<?xml version="1.0" standalone="no"?>
<!DOCTYPE svg PUBLIC "-//W3C//DTD SVG 1.1//EN" "http://www.w3.org/Graphics/SVG/1.1/DTD/svg11.dtd" >
<svg xmlns="http://www.w3.org/2000/svg">
<metadata></metadata>
<defs>
<font id="perspective_sans_blackitalic" horiz-adv-x="1356" >
<font-face units-per-em="2048" ascent="1638" descent="-410" />
<missing-glyph horiz-adv-x="553" />
<glyph horiz-adv-x="0" />
<glyph horiz-adv-x="0" />
<glyph unicode="&#xd;" horiz-adv-x="553" />
<glyph unicode="&#x9;" horiz-adv-x="553" />
<glyph unicode=" "  horiz-adv-x="553" />
<glyph unicode="&#x09;" horiz-adv-x="553" />
<glyph unicode="&#xa0;" horiz-adv-x="553" />
<glyph unicode="!" horiz-adv-x="674" d="M438 449l-305 -27l49 375l111 633l340 26l-115 -659zM207 -16q-76 0 -125 45q-49 43 -49 110q0 82 73 148q74 65 164 65q74 0 125 -43q51 -45 51 -110q0 -82 -75.5 -148.5t-163.5 -66.5z" />
<glyph unicode="&#x22;" horiz-adv-x="715" d="M674 1354l-129 -246l-152 2q0 14 -4 80q-6 65 -6 106q0 246 182 248h8q50 0 89 -24q40 -27 40 -78q0 -33 -28 -88zM326 1354l-129 -246l-152 2q0 14 -6 82q-4 61 -4 104q0 246 182 248h8q49 0 88 -24q41 -29 41 -78q0 -33 -28 -88z" />
<glyph unicode="#" horiz-adv-x="1264" d="M899 248l-43 -250l-270 -25l47 275h-121l-47 -275l-262 25l43 250h-172l45 252h172l26 149h-172l45 252h172l46 262l270 25l-49 -287h121l49 287l262 -25l-45 -262h172l-45 -252h-172l-27 -149h172l-45 -252h-172zM705 649h-121l-27 -149h121z" />
<glyph unicode="$" horiz-adv-x="1112" d="M610 31l-14 -82h-266l10 55q-100 8 -205 45q-104 35 -141 78l156 209q108 -62 235 -78l31 172q-146 12 -226 92q-69 70 -69 158q0 14 2 29q10 114 119 215q112 108 286 149l23 123h266l-22 -123q180 -35 247 -110l-143 -205q-45 16 -151 51l-23 -131q139 -14 215 -84 q70 -66 70 -168q0 -45 -15 -92q-61 -215 -385 -303zM479 791q-22 -7 -43 -11q-26 -8 -28 -26q-2 -6 -2 -13q0 -34 55 -51zM680 422l-16 -96l36 12q29 10 31 29v4q0 30 -51 51z" />
<glyph unicode="%" horiz-adv-x="1653" d="M1163 -37h-4q-117 0 -190 78q-76 80 -76 190q0 70 33 134q49 98 139 157q90 60 201 60q129 0 207 -84q65 -72 65 -170q0 -19 -2 -37q-14 -129 -125 -228q-111 -98 -248 -100zM375 -68l-170 160l1026 1059l207 -123zM397 555h-4q-112 0 -188 76q-80 78 -80 186 q0 66 33 127q106 201 336 201q127 0 206 -78q70 -68 70 -166q0 -14 -2 -31q-14 -127 -125 -219q-113 -94 -246 -96zM1274 281v16q0 25 -10 43q-13 20 -37 20h-4q-68 -4 -68 -88q0 -75 43 -75h4q62 2 72 84zM453 924q-31 -2 -50 -27q-18 -25 -18 -55q0 -56 47 -56h4 q27 2 48.5 27t21.5 53q0 58 -49 58h-4z" />
<glyph unicode="&#x26;" horiz-adv-x="1526" d="M1104 -86l-205 250q-231 -191 -448 -191h-21q-182 9 -297 114.5t-115 256.5q0 31 7 64q22 120 127 221q63 61 213 153q-101 144 -101 260q0 43 15 78q61 154 184 236q108 76 235 76q146 0 238 -91q88 -86 88 -219q0 -18 -2 -39q-10 -135 -236 -311l177 -217l225 184 l170 -188l-238 -189l236 -245zM655 1178q-41 -2 -80 -35q-38 -35 -38 -82q0 -37 73 -103q131 68 135 109v12q0 37 -22 68q-27 31 -64 31h-4zM541 594q-217 -113 -219 -178v-13q0 -73 40 -120q46 -54 138 -56h4q84 0 225 133z" />
<glyph unicode="'" horiz-adv-x="371" d="M328 1354l-127 -246l-152 2l-6 266v4q0 78 57 123q52 41 123 41q70 0 109 -37q26 -26 26 -61q0 -23 -10 -49q-4 -13 -20 -43z" />
<glyph unicode="(" horiz-adv-x="823" d="M410 500q-25 -142 -25 -250q0 -166 59 -318q58 -151 193 -342l-322 -143q-272 385 -272 754q0 133 29 299q55 315 188 544q137 238 428 506l289 -127q-281 -258 -404 -460q-116 -193 -163 -463z" />
<glyph unicode=")" horiz-adv-x="823" d="M135 -553l-270 143q270 256 389 455q113 191 160 455q24 139 24 245q0 170 -61.5 326t-202.5 352l332 127q145 -204 211 -381q63 -176 63 -372q0 -133 -28 -297q-56 -314 -191 -547.5t-426 -505.5z" />
<glyph unicode="*" horiz-adv-x="965" d="M694 969l-112 102l2 -145h-303l51 145l-156 -102l-113 221l173 49l-154 49l190 221l119 -104l-4 135h303l-49 -133l150 102l110 -221l-164 -49l148 -51z" />
<glyph unicode="+" horiz-adv-x="1034" d="M643 313l-31 -190h-297l33 188h-235l41 238h235l37 188h291l-33 -188h238l-41 -238z" />
<glyph unicode="," horiz-adv-x="555" d="M420 2l-248 -274l-131 53l127 352q55 152 194 152q64 0 103 -41q33 -37 33 -88q0 -15 -2 -31q-11 -49 -76 -123z" />
<glyph unicode="-" horiz-adv-x="844" d="M111 403l45 267h577l-45 -267h-577z" />
<glyph unicode="." horiz-adv-x="510" d="M221 -16q-67 0 -108 43q-43 43 -43 108q0 80 67 148q66 65 150 65q65 0 110 -43q43 -43 43 -106q0 -82 -67.5 -148.5t-151.5 -66.5z" />
<glyph unicode="/" horiz-adv-x="1118" d="M129 -348l-287 121l1143 1781l293 -108z" />
<glyph unicode="0" horiz-adv-x="1483" d="M637 -14q-248 0 -410 141q-164 141 -164 354q0 45 9 92q43 246 270 418q225 170 504 170q248 0 410.5 -141t162.5 -354q0 -45 -8 -93q-43 -245 -268 -415q-228 -172 -506 -172zM795 877q-152 0 -271 -109q-121 -111 -121 -244q0 -106 80 -180t205 -74q152 0 273 111 q118 108 118 240q0 108 -80 182q-79 74 -204 74z" />
<glyph unicode="1" horiz-adv-x="768" d="M199 0l139 791l-90 -50l-105 242l318 164h274l-200 -1147h-336z" />
<glyph unicode="2" horiz-adv-x="1204" d="M20 0l43 236q150 96 302 192q184 121 290 207q121 96 123 166v4q0 43 -43 74q-39 26 -86 26h-18q-148 -14 -363 -102l-71 262q292 109 483 109q221 0 324 -74q96 -70 108 -228v-24q0 -275 -461 -574h385l-49 -274h-967z" />
<glyph unicode="3" horiz-adv-x="1163" d="M526 -14q-18 -2 -37 -2q-163 0 -462 108l139 252q172 -94 315 -94q23 0 43 2q166 16 166 121q0 43 -28 76q-31 30 -84 30h-338l43 236q192 -6 266 -6q37 0 45 2q135 24 135 127v12q-2 53 -102 53q-152 0 -359 -76l-63 242q344 105 481 105q160 0 264 -82 q113 -86 113 -230q0 -151 -111 -258q64 -69 64 -180q0 -47 -12 -96q-37 -148 -181 -242q-131 -86 -297 -100z" />
<glyph unicode="4" horiz-adv-x="1159" d="M911 254l-43 -254l-336 2l43 252h-602l41 227l764 666h291l-108 -619h159l-49 -274h-160zM666 756l-267 -228h226z" />
<glyph unicode="5" horiz-adv-x="1112" d="M537 -16q-29 -7 -64 -7q-172 0 -442 123l149 265q230 -115 328 -115h16q86 10 140 53q47 41 47 94q0 72 -88 111q-5 2 -15 2q-53 0 -299 -51l-155 129l151 559h766l-16 -275h-500l-33 -110q82 10 142 10q28 0 53 -2q153 -18 241 -111q82 -86 82 -206q0 -154 -122 -281 q-140 -141 -381 -188z" />
<glyph unicode="6" horiz-adv-x="1196" d="M647 842q193 -2 318 -105q122 -100 122 -254q0 -14 -2 -28q-14 -193 -202 -334q-181 -131 -396 -135h-12q-176 0 -311 106q-141 111 -141 266q0 43 12 84q74 271 336 498q155 137 266 211q160 104 377 190l149 -227q-356 -149 -516 -272zM584 575h-13q-77 0 -147 -49 q-76 -55 -76 -129q0 -61 55 -98q50 -35 117 -35h12q84 4 154 58q68 53 68 122q0 60 -49.5 94.5t-120.5 36.5z" />
<glyph unicode="7" horiz-adv-x="1112" d="M238 -178l-263 117q287 475 703 931h-504l78 277h878l-12 -223q-192 -183 -450 -506q-258 -326 -430 -596z" />
<glyph unicode="8" horiz-adv-x="1159" d="M1047 338q-29 -168 -211 -268q-158 -88 -342 -90h-9q-176 0 -305 69q-155 84 -155 232q0 30 6 61q35 174 194 274q-69 70 -69 175q0 22 2 45q22 161 200 258q150 80 318 80h8q154 -3 262 -68q129 -76 129 -209q0 -164 -137 -276q113 -82 113 -226q0 -28 -4 -57zM629 934 q-146 -6 -160 -107q-2 -8 -2 -16q0 -74 121 -82h16q53 0 101 25q61 32 67 86v8q0 43 -43 67q-35 19 -88 19h-12zM745 369q0 57 -57 92q-53 28 -127 28q-86 0 -155 -40q-78 -48 -82 -119v-8q0 -58 55 -86q49 -25 131 -25q86 2 162 47q73 43 73 111z" />
<glyph unicode="9" horiz-adv-x="1196" d="M551 317q-195 0 -320 105q-122 100 -125 254q0 14 3 29q14 194 202 333q181 133 396 138h12q178 0 313 -107q139 -113 139 -268q0 -43 -12 -84q-78 -285 -336 -510q-151 -131 -264 -203q-151 -94 -366 -174l-152 231q356 134 510 256zM659 897q-81 -2 -147 -43 q-74 -45 -84 -117q-2 -12 -2 -22q0 -56 49 -90q49 -37 133 -41h17q75 0 139 32q78 41 94 115q2 14 2 29q0 65 -59 102q-58 35 -133 35h-9z" />
<glyph unicode=":" horiz-adv-x="469" d="M246 496q-66 0 -109 43t-43 108q0 80 68 148q65 65 149 65q66 0 111 -43q43 -43 43 -106q0 -82 -68 -148q-67 -67 -151 -67zM156 -16q-68 0 -109 43q-43 43 -43 108q0 80 68 148q65 65 149 65q66 0 111 -43q43 -43 43 -106q0 -82 -68 -148q-67 -67 -151 -67z" />
<glyph unicode=";" horiz-adv-x="539" d="M338 475q-66 0 -109 43t-43 109q0 80 68 147q65 66 147 66q68 0 113 -43q43 -43 43 -107q0 -82 -68 -147q-67 -68 -151 -68zM379 -10l-260 -287l-156 64l131 370q31 82 94 127q58 41 125 41q72 0 117 -49q35 -37 35 -92q0 -19 -4 -39q-10 -53 -82 -135z" />
<glyph unicode="&#x3c;" horiz-adv-x="1114" d="M788 121l-671 289l35 200l772 277l82 -223l-435 -158l381 -166z" />
<glyph unicode="=" horiz-adv-x="1010" d="M141 436l39 226h744l-39 -226h-744zM86 125l39 227h743l-39 -227h-743z" />
<glyph unicode="&#x3e;" horiz-adv-x="1114" d="M190 121l-81 223l434 158l-381 166l162 221l673 -291l-34 -201z" />
<glyph unicode="?" horiz-adv-x="1137" d="M864 709l-110 -66q-84 -53 -92 -70q-13 -28 -31 -90l-6 -34l-342 -37l14 75q25 146 127 244q57 55 231 166q154 96 154 174q0 39 -39 72q-39 31 -104 37q-15 2 -29 2q-150 0 -395 -140l-45 277q342 145 510 145q16 0 30 -2q168 -14 285 -100q129 -94 129 -238 q0 -26 -4 -53q-35 -205 -283 -362zM377 -16q-74 0 -123 45q-49 43 -49 110q0 82 73.5 147.5t163.5 65.5q74 0 125 -43q51 -45 51 -110q0 -82 -75.5 -148.5t-165.5 -66.5z" />
<glyph unicode="@" horiz-adv-x="1343" d="M1102 360q-137 -112 -344 -112q-47 0 -109 6q-45 -10 -78 -10q-14 0 -26 2q-76 10 -133 71q-64 66 -64 148q0 80 82 174q72 84 160 125q53 24 174 24q129 0 256 -22q-43 -160 -88 -297q61 16 125 76q63 57 76 112q6 21 6 39q0 95 -123 144q-76 30 -234 51q-26 4 -51 4 q-184 0 -332.5 -135t-148.5 -289q0 -88 57 -166q62 -86 174 -133q47 -20 125 -20q191 0 471 110l-88 -164q-270 -102 -475 -102q-88 0 -147 22q-142 56 -222 168q-79 111 -79 252q0 84 28 172q72 201 279 324q188 110 407 119h47q179 0 306 -56q184 -79 190 -256v-10 q0 -190 -221 -371zM604 479q0 -33 53 -33q11 0 25 3l45 145q-47 -2 -80 -33q-43 -41 -43 -82z" />
<glyph unicode="A" horiz-adv-x="1589" d="M1114 -23l-92 394h-500l-229 -394l-322 50l828 1407h319l336 -1407zM879 983l-199 -340h278z" />
<glyph unicode="B" horiz-adv-x="1378" d="M498 -20q-213 0 -459 24l252 1421q223 29 424 29q231 0 391 -59q223 -82 223 -258q0 -93 -59 -191q-60 -100 -150 -166q170 -116 170 -305q0 -31 -6 -61q-41 -236 -313 -348q-205 -86 -473 -86zM702 1176q-8 0 -120 -2l-50 -279q31 -2 62 -2q121 0 219 22q156 35 170 117 q2 12 2 23q0 73 -98 98q-21 6 -185 23zM483 614l-61 -350q84 -8 156 -8q112 0 217 37q139 49 157 145q2 15 2 29q0 154 -329 154q-70 0 -142 -7z" />
<glyph unicode="C" horiz-adv-x="1425" d="M74 727q51 295 325 512q269 211 568 211q190 0 467 -94l-111 -299q-238 114 -377 114q-188 0 -346 -133q-158 -135 -190 -321q-7 -39 -7 -76q0 -160 113 -264.5t283 -104.5q153 0 454 129l-6 -292q-338 -125 -538 -125q-277 0 -461 178q-185 176 -185 442q0 62 11 123z " />
<glyph unicode="D" horiz-adv-x="1509" d="M500 -14q-185 0 -494 18l252 1421q234 29 430 29q305 0 522 -135q248 -156 248 -428q0 -51 -8 -107q-66 -366 -324 -581q-260 -217 -626 -217zM551 1180l-162 -914q53 -6 107 -6q522 0 608 488q10 51 10 98q0 338 -469 338q-47 0 -94 -4z" />
<glyph unicode="E" horiz-adv-x="1280" d="M1051 0h-1045l254 1434h1004l-19 -279h-698l-49 -276h616l-49 -279h-616l-58 -321h739z" />
<glyph unicode="F" horiz-adv-x="1239" d="M547 1155l-49 -276h616l-49 -279h-616l-107 -600h-336l254 1434h1004l-19 -279h-698z" />
<glyph unicode="G" horiz-adv-x="1528" d="M664 -14q-275 0 -445 184q-158 172 -158 424q0 100 27 197q80 270 307 454q240 193 535 203h22q168 0 482 -84l-109 -293q-254 103 -407 103q-17 0 -33 -3q-197 -14 -342.5 -180t-145.5 -360q0 -156 91.5 -262.5t226.5 -106.5q116 0 221 70q102 69 145 170h-360l49 276 h692q-32 -358 -254.5 -575t-543.5 -217z" />
<glyph unicode="H" horiz-adv-x="1505" d="M905 -23l111 623h-567l-107 -600h-336l252 1430l342 26l-102 -577h567l98 555h336l-252 -1430z" />
<glyph unicode="I" horiz-adv-x="602" d="M16 0l252 1430l340 26l-256 -1456h-336z" />
<glyph unicode="J" horiz-adv-x="1311" d="M1061 295q-180 -285 -578 -303h-24q-264 0 -502 252l223 221q205 -195 326 -195h12q105 11 152 35q39 21 86 84q28 37 47 117l168 950l332 -26l-162 -920q-11 -41 -23 -78q-26 -88 -57 -137z" />
<glyph unicode="K" horiz-adv-x="1432" d="M889 -18l-461 507l-86 -489h-336l252 1430l340 26l-82 -471l596 467l399 -51l-852 -662l641 -706z" />
<glyph unicode="L" horiz-adv-x="1280" d="M1049 0h-1045l252 1430l342 26l-209 -1177h739z" />
<glyph unicode="M" horiz-adv-x="1827" d="M1628 23l-344 -48l66 779l-402 -756h-319l-150 758l-196 -781l-326 48l385 1407l324 22l202 -983l537 983l315 -20z" />
<glyph unicode="N" horiz-adv-x="1542" d="M938 -16l-438 907l-160 -911l-332 24l252 1428l365 18l422 -885l153 871h336l-252 -1432z" />
<glyph unicode="O" horiz-adv-x="1630" d="M684 -14q-281 0 -457 184q-166 172 -166 426q0 98 27 195q80 276 315 462q244 195 541 195h8q283 -2 455 -182q162 -170 162 -424q0 -318 -260 -582q-271 -274 -625 -274zM897 1171h-4q-191 0 -342 -165q-154 -168 -154 -369q0 -158 98.5 -266.5t239.5 -108.5 q187 0 340 174q154 172 154 371q0 156 -90 260q-92 102 -242 104z" />
<glyph unicode="P" horiz-adv-x="1333" d="M670 561q-84 -2 -232 -8l-96 -553h-336l252 1430q254 22 434 22q66 0 113 -4q514 -35 514 -356q0 -43 -8 -91q-41 -204 -228 -323q-174 -113 -413 -117zM799 1161q-80 13 -176 13q-37 0 -76 -3l-60 -337q113 -7 142 -7q297 0 348 183q6 16 6 32q0 91 -184 119z" />
<glyph unicode="Q" horiz-adv-x="1671" d="M1309 256l143 -162l-303 -170l-113 131q-157 -73 -327 -73q-279 0 -463 186q-178 178 -178 436q0 92 26 184q80 281 324 467q252 193 553 193h8q285 -2 465 -176q174 -170 174 -422q0 -53 -8 -109q-56 -331 -301 -485zM922 1171q-199 0 -359 -165.5t-160 -366.5 q0 -158 107 -268q104 -113 252 -113q45 0 90 14l-221 260l311 156l180 -213q154 119 154 334q0 154 -98 258q-99 102 -256 104z" />
<glyph unicode="R" horiz-adv-x="1450" d="M885 -23l-246 582q-41 0 -199 -6l-98 -553h-336l254 1430q254 22 434 22q66 0 113 -4q514 -35 514 -354q0 -45 -8 -93q-51 -258 -324 -374l268 -598zM799 1161q-78 13 -174 13q-37 0 -76 -3l-60 -337q113 -7 144 -7q295 0 346 183q6 16 6 32q0 91 -186 119z" />
<glyph unicode="S" horiz-adv-x="1331" d="M506 -14q-21 -2 -43 -2q-125 0 -273 51q-155 55 -217 121l217 258q46 -47 162 -95q117 -49 205 -53h25q125 0 213 62q88 63 88 143q0 64 -62 100q-61 35 -166 35h-32h-37q-178 0 -293 90q-127 101 -127 265q0 40 10 86q39 186 264 301q181 94 365 98h26q121 0 248 -33 q154 -41 209 -100l-176 -238q-221 92 -338 92h-14q-103 -4 -180 -61q-80 -57 -80 -119q0 -104 227 -104h27h22q201 0 322 -105q119 -102 119 -270q0 -68 -23 -137q-104 -340 -688 -385z" />
<glyph unicode="T" horiz-adv-x="1384" d="M938 1155l-205 -1155h-336l205 1155h-452l79 279h1180l-18 -279h-453z" />
<glyph unicode="U" horiz-adv-x="1550" d="M635 -14q-539 20 -539 454q0 72 15 158l147 832l340 26l-149 -850q-5 -55 -9 -108q-2 -23 -2 -41q0 -39 8 -66q35 -129 224 -129q141 0 254 82q125 92 135 244l147 846h336l-147 -844q-52 -283 -260 -449q-199 -155 -467 -155h-33z" />
<glyph unicode="V" horiz-adv-x="1559" d="M815 0h-328l-337 1407l350 49l233 -989l582 989l332 -49z" />
<glyph unicode="W" horiz-adv-x="2073" d="M1475 0h-308l-102 893l-416 -893h-309l-211 1409l354 49l103 -932l415 891h314l100 -891l430 932l338 -49z" />
<glyph unicode="X" horiz-adv-x="1419" d="M893 -23l-227 490l-402 -490l-364 52l622 712l-344 664l383 51l203 -438l358 438l363 -51l-580 -664l373 -712z" />
<glyph unicode="Y" horiz-adv-x="1413" d="M854 600l-106 -600h-336l106 600l-389 805l387 49l225 -543l418 543l365 -49z" />
<glyph unicode="Z" horiz-adv-x="1389" d="M1169 0h-1208l14 227l932 928h-743l72 279h1155l-7 -217l-942 -938h807z" />
<glyph unicode="[" horiz-adv-x="584" d="M-100 -530l364 2064h522l-51 -287h-186l-262 -1493h186l-51 -284h-522z" />
<glyph unicode="\" horiz-adv-x="1118" d="M653 -348l-514 1794l330 108l512 -1781z" />
<glyph unicode="]" horiz-adv-x="666" d="M-172 -530l51 284h187l262 1493h-187l52 287h522l-365 -2064h-522z" />
<glyph unicode="^" horiz-adv-x="967" d="M702 1143l-221 157l-280 -157l-138 133l363 227h184l277 -227z" />
<glyph unicode="_" horiz-adv-x="1677" d="M55 -184l33 184h1534l-33 -184h-1534z" />
<glyph unicode="`" horiz-adv-x="719" d="M430 1087l-373 248l271 156l325 -295z" />
<glyph unicode="a" d="M1067 -14h-12q-178 0 -260 59q-172 -59 -289 -59q-211 0 -330 108q-119 109 -119 291q0 248 168 436q183 209 471 211h9q202 0 477 -133l-133 -635v-6q0 -20 22 -22v0h213zM641 760q-90 0 -168 -117q-80 -117 -80 -246q0 -147 131 -147q84 0 191 31l96 462 q-70 17 -170 17z" />
<glyph unicode="b" horiz-adv-x="1292" d="M586 -14q-230 0 -516 143l258 1339l344 27l-97 -491q101 28 181 28q219 0 344 -104q125 -107 125 -295q0 -266 -156 -447q-176 -200 -483 -200zM741 741q-98 0 -225 -41l-78 -403q111 -35 195 -35q121 0 190 103q64 94 64 243q0 133 -146 133z" />
<glyph unicode="c" horiz-adv-x="1163" d="M1008 672q-152 94 -301 94q-111 0 -203 -104q-94 -105 -94 -220q0 -86 49 -137q47 -53 125 -53q125 0 348 82l92 -246q-303 -104 -461 -104q-211 0 -354 139q-135 131 -135 309q0 240 207 420q204 180 481 180q98 0 225 -37q31 -10 215 -73z" />
<glyph unicode="d" horiz-adv-x="1278" d="M1059 117q-318 -133 -543 -133q-207 0 -334 110q-127 111 -127 297q0 264 154 443q174 198 483 198q86 0 197 -39l100 500l334 -27zM651 743q-125 0 -192 -96q-70 -98 -70 -248q0 -137 131 -137q98 0 236 35l78 416q-95 30 -183 30z" />
<glyph unicode="e" horiz-adv-x="1178" d="M399 365q19 -76 97 -103q49 -18 147 -18q148 0 258 78l84 -216q-172 -120 -450 -120q-195 0 -326 123q-131 120 -131 315q0 244 194 426q195 182 441 182q153 0 280 -102q137 -109 137 -258q0 -205 -284 -271q-115 -26 -447 -36zM682 770q-78 0 -147 -45 q-78 -49 -89 -121q111 0 193 6q186 11 186 41q0 119 -143 119z" />
<glyph unicode="f" horiz-adv-x="1018" d="M993 1108q-143 61 -225 61q-117 0 -133 -157h377l-51 -271h-373l-139 -716q-48 -238 -121 -326q-113 -131 -410 -176l-123 297q119 -8 156 -8q94 0 125 45q22 34 53 194l133 690h-180l51 271h178q29 202 154 317q131 121 348 121h8q140 0 398 -104z" />
<glyph unicode="g" horiz-adv-x="1260" d="M1065 14q-41 -211 -170 -338q-150 -149 -389 -149q-195 0 -490 119l185 241q180 -80 286 -80q97 0 146 37q49 35 76 117q-88 -20 -166 -20q-211 0 -340 112q-129 113 -129 303q0 265 159 457q181 219 482 219q190 0 516 -164zM659 741q-110 0 -180 -112 q-69 -115 -69 -258q0 -154 151 -154q94 0 211 33l90 457q-117 34 -203 34z" />
<glyph unicode="h" horiz-adv-x="1434" d="M1151 -14q-160 0 -262 53q-113 59 -113 164q0 22 6 47q27 104 54 209q26 114 26 211q0 86 -129 86q-78 0 -221 -62l-137 -696h-338l287 1470l344 27l-99 -504q127 41 217 41q136 0 263 -74q151 -90 151 -229q0 -154 -72 -465q-2 -4 -2 -8q0 -18 25 -20v0h211z" />
<glyph unicode="i" horiz-adv-x="741" d="M465 1200h-8q-68 0 -115 43q-49 45 -49 109q0 71 63 131q60 55 142 55h4q73 -2 121 -45q47 -45 47 -109q0 -71 -62 -127q-63 -55 -143 -57zM455 -14h-4q-359 0 -359 256l148 757l344 25l-148 -760v-6q0 -20 23 -22v0h205z" />
<glyph unicode="j" horiz-adv-x="793" d="M541 1192h-4q-72 0 -119 45q-49 45 -49 111q0 73 63 133q60 57 141 57h5q73 -2 120 -47t47 -109q0 -73 -61 -131q-63 -57 -143 -59zM483 84q-6 -37 -47 -162q-74 -196 -196 -291q-134 -102 -344 -102h-17q-88 2 -323 80l141 248q61 -25 184 -58q27 -4 49 -4q78 0 121 51 q23 27 64 125q18 43 35 138l167 888l345 27z" />
<glyph unicode="k" horiz-adv-x="1178" d="M600 528l506 -489l-348 -78l-332 367l-66 -330h-337l286 1470l344 27l-139 -719l360 248l355 -92z" />
<glyph unicode="l" horiz-adv-x="735" d="M657 1495l-344 -27l-221 -1226q0 -256 359 -256h4l209 250h-205q-23 2 -23 22v6z" />
<glyph unicode="m" horiz-adv-x="2093" d="M1804 -14q-147 0 -245 43q-127 55 -127 172q0 73 47 243q45 170 45 256q0 37 -23 54q-24 14 -94 14q-78 0 -223 -78q-8 -145 -54 -348q-38 -172 -77 -344h-344q43 172 84 346q53 217 53 346q0 78 -121 78q-74 0 -207 -63l-143 -707h-338l205 1006l344 24l-19 -65 q51 22 101 43q61 26 96 26q180 0 305 -104q205 104 375 104q137 0 264 -69q152 -86 152 -222q0 -104 -29 -241q-25 -117 -49 -236v-6q0 -20 22 -22v0h217z" />
<glyph unicode="n" horiz-adv-x="1411" d="M1122 -14q-161 0 -264 51q-110 57 -110 160q0 20 4 41q28 112 57 225q33 135 33 227q0 76 -117 76q-76 0 -207 -61l-143 -707h-338l205 1006l344 24l-17 -65q54 22 105 43q65 26 106 26q138 0 258 -74q142 -86 142 -217q0 -110 -27 -239q-27 -119 -53 -238q-2 -4 -2 -8 q0 -18 24 -20v0h217z" />
<glyph unicode="o" horiz-adv-x="1276" d="M545 -14q-213 0 -346 137q-125 127 -125 305q0 231 197.5 417.5t467.5 186.5q213 0 342 -135q121 -123 121 -301q0 -229 -190 -416q-197 -194 -467 -194zM707 766q-109 0 -201 -102q-94 -105 -94 -218q0 -84 47 -137q45 -55 114 -55q107 0 199 105.5t92 215.5 q0 84 -45 137.5t-112 53.5z" />
<glyph unicode="p" horiz-adv-x="1321" d="M219 541q-41 -27 -88 -60l-45 234q119 90 193 131l47 241l344 25l-23 -113q107 33 189 33q200 0 325 -96q137 -105 137 -293q0 -268 -165 -471q-189 -229 -496 -229q-92 0 -188 28l-82 -422l-344 -26zM836 741q-103 0 -246 -41l-88 -452q88 -25 170 -25q129 0 211 121 q78 113 78 270q0 58 -35 92.5t-90 34.5z" />
<glyph unicode="q" horiz-adv-x="1372" d="M1079 -469h-12q-141 0 -229 49q-119 64 -119 201q0 98 26 180q-86 -20 -167 -20q-205 0 -334 119.5t-129 322.5q0 285 172 469q172 182 454 182q193 0 523 -166l-203 -1046l22 -31h217zM690 743q-125 0 -188 -118q-51 -95 -51 -232q0 -88 28 -127q33 -45 117 -45 q94 0 211 33l88 455q-113 34 -205 34z" />
<glyph unicode="r" horiz-adv-x="1053" d="M905 700q-190 68 -250 68q-57 0 -131 -53l-127 -715h-336l179 1001l340 25l-13 -63q51 22 103 45q69 26 121 26q69 0 147 -33q70 -32 137 -65z" />
<glyph unicode="s" horiz-adv-x="1096" d="M895 707q-182 73 -270 73q-43 0 -103 -32q-67 -37 -67 -72q0 -47 63 -47q21 0 64 10q41 8 63 8q139 0 227 -47q115 -61 115 -188q0 -209 -199 -328q-163 -98 -389 -98q-186 0 -428 118l183 213q147 -77 245 -77q78 0 158 26q107 35 107 92q0 60 -58 60q-22 0 -67 -12 q-47 -13 -72 -13q-139 0 -229 58q-109 67 -109 198q0 174 184 285q158 98 342 98q97 0 209 -35q123 -41 187 -100z" />
<glyph unicode="t" horiz-adv-x="918" d="M514 264q47 6 168 78l102 -262q-194 -94 -297 -94q-102 0 -188 43q-117 57 -119 170v16q0 119 29 262q31 137 61 275h-190l47 260h192l41 235l336 51l-49 -286h248l-47 -260h-248q-29 -121 -55 -242q-31 -139 -31 -246z" />
<glyph unicode="u" d="M1065 -14h-12q-185 0 -267 63q-204 -63 -311 -63q-141 0 -266 67q-152 82 -152 221q0 152 49 367q44 180 89 360l348 23q-43 -172 -86 -346q-54 -215 -54 -346q0 -96 109 -96q70 0 203 53l147 723h340l-153 -748v-6q0 -20 22 -22v0h213z" />
<glyph unicode="v" horiz-adv-x="1257" d="M641 0h-338l-227 981l348 47l129 -590l367 588l348 -49z" />
<glyph unicode="w" horiz-adv-x="1640" d="M1147 0h-291l-49 498l-250 -498h-289l-139 981l330 45l41 -553l260 539h291l45 -539l262 551l321 -45z" />
<glyph unicode="x" horiz-adv-x="1276" d="M846 502l274 -475l-354 -50l-158 295l-276 -292l-363 53l484 489l-263 455l353 49l147 -274l256 272l361 -53z" />
<glyph unicode="y" horiz-adv-x="1225" d="M551 -229q-86 -144 -168 -189q-84 -45 -266 -53l-121 262q143 0 186 14q41 13 76 70q10 19 96 162l-243 942l352 49l125 -608l348 606l330 -53z" />
<glyph unicode="z" horiz-adv-x="1130" d="M492 264h518l-84 -264h-903l-7 221l594 524h-452l55 265h864l8 -215z" />
<glyph unicode="{" horiz-adv-x="971" d="M352 -477q-147 78 -147 252q0 69 51 301q25 106 25 143q0 51 -37 82q-33 25 -135 61l49 275q159 51 196 96q33 39 52 191q30 241 57 313q61 168 233 244q121 53 447 53l-131 -309q-121 24 -133 24q-27 0 -39 -10q-70 -61 -92 -190q-19 -121 -37 -240q-37 -150 -138 -252 q-22 -22 -63 -59q98 -119 98 -246q0 -43 -51 -291q-10 -51 -10 -88q0 -66 35 -109q8 -10 32 -10q13 0 144 25l20 -309q-325 0 -426 53z" />
<glyph unicode="|" horiz-adv-x="573" d="M-2 0l270 1534h307l-270 -1534h-307z" />
<glyph unicode="}" horiz-adv-x="971" d="M602 250q-29 -70 -43 -187q-18 -169 -22 -186q-50 -258 -263 -354q-118 -53 -446 -53l133 309q121 -25 133 -25q25 0 37 10q74 66 94 201q33 225 41 254q49 158 195 279q-92 123 -92 266q0 51 45 264q10 51 10 92q0 74 -35 119q-8 10 -35 10q-16 0 -139 -22l-22 307 q325 0 425 -53q148 -78 148 -254q0 -70 -53 -303q-25 -107 -25 -144q0 -51 39 -82q33 -24 135 -61l-49 -275q-82 -26 -119 -43q-76 -34 -92 -69z" />
<glyph unicode="~" horiz-adv-x="874" d="M80 784q24 41 94 76q68 35 127 35q72 0 164 -66q90 -65 160 -65q71 0 225 131l-47 -274q-146 -123 -225 -123q-74 0 -164 65q-92 64 -158 64h-4q-59 0 -123 -37q-68 -39 -100 -92z" />
<glyph unicode="&#xa1;" horiz-adv-x="633" d="M383 659q-74 0 -125 46q-51 43 -51 110q0 82 75.5 147.5t166.5 65.5q73 0 122 -43q50 -45 50 -111q0 -81 -74 -147q-74 -68 -164 -68zM18 -449l119 664l84 381l305 27l-55 -410l-111 -635z" />
<glyph unicode="&#xa2;" horiz-adv-x="1188" d="M723 100l-16 -100h-308l19 106q-166 41 -254 148q-82 98 -82 229q0 170 129 318q137 155 367 213l22 133h307l-20 -125q100 -21 241 -84l-98 -260q-110 59 -190 84l-70 -402q80 23 262 123v-266q-53 -27 -102 -47q-121 -51 -207 -70zM526 727q-135 -80 -135 -190 q0 -80 78 -136z" />
<glyph unicode="&#xa3;" horiz-adv-x="1151" d="M-8 0l49 279l39 -5q29 -2 51 -2q68 0 88 27l19 115h-175l50 270h174l12 74q27 149 151.5 255.5t294.5 127.5q15 2 31 2q129 0 357 -117l-154 -250q-152 96 -207 96h-8q-113 -20 -129 -118l-12 -70h358l-49 -270h-359l-20 -127q-2 -4 -4 -15h457l-48 -272h-966z" />
<glyph unicode="&#xa5;" horiz-adv-x="1307" d="M870 600h181l-43 -240h-234l-8 -43h233l-41 -239h-233l-14 -78h-316l15 78h-236l41 239h236l8 43h-236l43 240h183l-283 506l326 35l194 -371l328 371l315 -35z" />
<glyph unicode="&#xa6;" horiz-adv-x="573" d="M139 782l125 709l307 2l-125 -711h-307zM2 0l121 690h307l-121 -690h-307z" />
<glyph unicode="&#xa7;" horiz-adv-x="1012" d="M352 -16q-110 2 -342 141l166 231q37 -30 109 -65q80 -39 121 -39h40q54 0 70 4q35 8 39 41v4q0 14 -10 14q-4 0 -33 -4t-55 -6h-33q-119 0 -199 53q-90 60 -90 179q0 30 6 65q15 68 76 129q-27 49 -27 113q0 33 7 69q24 123 178 205q131 70 260 74h8q105 0 344 -100 l-147 -211q-97 51 -213 51h-33q-84 -4 -90 -29v-6q0 -12 12 -14q10 -2 49 -2h47h25q295 0 295 -203q0 -123 -72 -207q21 -37 21 -88q0 -45 -19 -113q-45 -153 -213 -229q-127 -57 -276 -57h-21zM514 606q-59 -2 -68 -33q-2 -4 -2 -6q0 -10 17 -14h12q27 0 86 4q43 4 49 37v6 q0 10 -6 12h-8q-8 2 -21 0q-34 -4 -59 -6z" />
<glyph unicode="&#xa8;" horiz-adv-x="846" d="M629 1092h-4q-56 0 -88 34q-37 35 -37 88q0 68 57 125q53 56 121 56h4q55 -2 90 -37q35 -37 35 -90q0 -66 -55 -119q-56 -55 -123 -57zM166 1092q-55 0 -90 34q-37 35 -37 88q0 68 55 125q56 56 125 56q62 0 98 -45q29 -35 29 -80q0 -13 -2 -27q-10 -63 -63 -106 q-54 -45 -115 -45z" />
<glyph unicode="&#xa9;" horiz-adv-x="1157" d="M514 436q-90 8 -143 70q-56 61 -56 151q0 113 86 208.5t205 109.5q8 2 19 2q63 0 170 -47l-47 -168q-91 55 -138 55q-49 0 -78 -41q-30 -43 -30 -96q0 -86 78 -86q49 0 170 74l-17 -170q-137 -62 -207 -62h-12zM489 197q-184 0 -305 119.5t-121 299.5q0 43 9 89 q37 210 213 360q174 147 385 147q184 0 305 -118q119 -121 119 -301q0 -43 -9 -88q-36 -211 -211 -359q-174 -149 -385 -149zM641 1057q-160 0 -289 -129q-131 -131 -131 -285q0 -125 84 -207q84 -84 213 -84q158 0 289 129q129 129 129 285q0 125 -82 209q-84 82 -213 82z " />
<glyph unicode="&#xaa;" horiz-adv-x="633" d="M504 879h-168l4 26q-4 -2 -55 -22q-33 -13 -54 -13h-4q-174 27 -174 172v11q6 135 160 200q55 25 121 25q31 0 63 -6v37q-6 20 -41 20q-47 0 -182 -53l-51 129q168 63 242 63h8q123 -6 172 -61q35 -41 35 -102q0 -27 -7 -66l-10 -57q-16 -95 -59 -303zM375 1120 q-76 17 -86 17q-56 0 -64 -54q-2 -8 -2 -14q0 -53 72 -53q27 0 65 8z" />
<glyph unicode="&#xab;" horiz-adv-x="1145" d="M928 76l-369 348l31 172l489 334l23 -254l-246 -170l186 -176zM426 76l-369 348l31 172l490 334l22 -254l-246 -170l187 -176z" />
<glyph unicode="&#xac;" horiz-adv-x="1249" d="M766 227l29 162h-689l41 240h1024l-69 -402h-336z" />
<glyph unicode="&#xad;" horiz-adv-x="844" d="M111 403l45 267h577l-45 -267h-577z" />
<glyph unicode="&#xae;" horiz-adv-x="1157" d="M489 197q-184 0 -305 119.5t-121 299.5q0 43 9 89q37 210 213 360q174 147 385 147q184 0 305 -118q119 -121 119 -301q0 -43 -9 -88q-36 -211 -211 -359q-174 -149 -385 -149zM641 1057q-160 0 -289 -129q-131 -131 -131 -285q0 -125 84 -207q84 -84 213 -84 q158 0 289 129q129 129 129 285q0 125 -82 209q-84 82 -213 82zM612 430l-65 191h-4l-33 -179h-158l92 519q105 10 158 10h29q174 -15 174 -140q0 -104 -92 -165l73 -203zM643 803q-12 12 -65 14l-9 -45h9q20 0 65 31z" />
<glyph unicode="&#xaf;" horiz-adv-x="741" d="M96 1104l33 184h516l-33 -184h-516z" />
<glyph unicode="&#xb0;" horiz-adv-x="709" d="M311 952q-104 0 -174 60q-69 57 -69 143q0 107 102 195q100 86 227 86q105 0 174 -60q68 -59 68 -147q0 -107 -100 -191q-101 -86 -228 -86zM367 1268q-27 0 -52.5 -21.5t-31.5 -54.5q-2 -8 -2 -14q0 -21 14 -37q18 -21 47 -21q72 2 84 72q2 8 2 16q0 21 -12 37 q-19 23 -49 23z" />
<glyph unicode="&#xb1;" horiz-adv-x="1034" d="M690 483l-33 -178h-335l32 178h-235l45 260h235l31 179h336l-31 -179h238l-47 -262zM31 -14l45 260h809l-45 -260h-809z" />
<glyph unicode="&#xb2;" horiz-adv-x="991" d="M43 561l37 209q113 76 227 150q131 90 215 159q84 70 86 117v4q0 25 -24.5 42.5t-51.5 17.5h-12q-114 -13 -282 -86l-58 237q238 94 383 94q170 0 248 -59q76 -60 84 -189v-20q0 -205 -305 -426h250l-45 -250h-752z" />
<glyph unicode="&#xb3;" horiz-adv-x="989" d="M444 492q-14 -3 -28 -3q-131 0 -377 99l131 243q141 -83 250 -83q14 0 29 2q110 12 110 79q0 62 -74 62h-278l45 246q55 8 160 16h67q25 -2 31 0q53 10 72 27q14 12 14 45v8q-2 31 -64 31q-116 0 -282 -66l-60 234q289 94 398 94q121 0 200 -58q91 -63 103 -176 q2 -18 2 -37q0 -127 -88 -225q43 -59 43 -147q0 -43 -10 -88q-31 -131 -152 -215q-106 -76 -242 -88z" />
<glyph unicode="&#xb4;" horiz-adv-x="741" d="M227 1087l-184 109l432 295l215 -156z" />
<glyph unicode="&#xb5;" horiz-adv-x="1325" d="M879 37q-142 -82 -291 -82q-94 0 -207 33l-49 -275h-336l227 1286l342 27l-137 -770q104 -39 174 -39q148 0 176 160l109 629h338q-49 -252 -125 -691v-12q0 -84 188 -86l-45 -258h-33q-217 0 -331 78z" />
<glyph unicode="&#xb6;" horiz-adv-x="1296" d="M772 0l170 965l-88 2l-170 -967l-262 25l76 432q-168 14 -267 88q-104 80 -104 211q0 28 4 59q57 332 535 367q45 4 114 4q183 0 463 -21l-201 -1140z" />
<glyph unicode="&#xb8;" horiz-adv-x="713" d="M129 -422l-18 180q18 -2 53 -20q33 -21 57 -21q33 0 64 19q37 22 37 61v4q-3 31 -56 31q-12 0 -39.5 -2t-36.5 -2l68 172h236l-23 -63q135 -27 135 -101q0 -55 -71 -151q-84 -115 -299 -115q-62 0 -107 8z" />
<glyph unicode="&#xb9;" horiz-adv-x="741" d="M250 561l108 621l-102 -56l-88 220l295 157h248l-166 -942h-295z" />
<glyph unicode="&#xba;" horiz-adv-x="743" d="M322 877q-115 0 -185 69q-69 68 -69 166q0 41 14 82q39 115 139 180q90 60 199 60q117 0 188 -68q68 -63 68 -160q0 -18 -2 -37q-15 -114 -115 -200q-104 -92 -237 -92zM389 1270q-37 0 -72 -31q-34 -33 -43 -84q-2 -14 -2 -27q0 -32 17 -53q22 -28 61 -28q41 0 80 40 q37 39 37 95q0 86 -78 88z" />
<glyph unicode="&#xbb;" horiz-adv-x="1145" d="M567 78l-22 256l246 168l-187 176l115 254l368 -348l-30 -172zM66 78l-23 256l246 168l-187 176l115 254l369 -348l-31 -172z" />
<glyph unicode="&#xbc;" horiz-adv-x="1933" d="M1591 -14l-37 -211l-292 2l36 209h-452l37 213l596 561h250l-91 -512h121l-47 -262h-121zM444 -362l-249 110l1132 1823l254 -101zM319 524l113 645l-102 -55l-88 223l297 168h247l-172 -981h-295zM1356 305l-62 -57h52z" />
<glyph unicode="&#xbd;" horiz-adv-x="2023" d="M1018 -188l39 217q112 77 227 155q131 95 219 168q82 72 84 121v4q0 27 -24 47q-25 17 -52 17h-12q-115 -13 -282 -88l-54 243q238 99 381 99q170 0 248 -62.5t84 -195.5v-17q0 -217 -311 -450h252l-45 -258h-754zM444 -362l-249 110l1132 1823l254 -101zM319 524 l113 645l-102 -55l-88 223l297 168h247l-172 -981h-295z" />
<glyph unicode="&#xbe;" horiz-adv-x="2120" d="M1780 -14l-37 -211l-293 2l37 209h-453l39 213l594 561h250l-90 -512h119l-48 -262h-118zM633 -362l-252 110l1132 1823l256 -101zM516 492q-14 -3 -29 -3q-131 0 -376 99l129 243q141 -83 252 -83q14 0 28 2q111 12 111 79q0 62 -74 62h-278l43 246q57 8 161 16h68 q24 -2 31 0q53 10 71 27q15 12 15 45v8q-2 31 -64 31q-117 0 -282 -66l-60 234q289 94 397 94q121 0 201 -58q88 -63 101 -176q2 -20 2 -41q0 -125 -86 -221q43 -59 43 -147q0 -43 -11 -88q-30 -131 -151 -215q-109 -76 -242 -88zM1544 305l-63 -57h53z" />
<glyph unicode="&#xbf;" horiz-adv-x="1137" d="M713 662q-74 0 -123 45q-51 43 -51 110q0 82 74.5 147.5t164.5 65.5q74 0 123 -43q49 -45 49 -110q0 -82 -73.5 -148.5t-163.5 -66.5zM422 -428q-168 14 -287 100q-127 97 -127 240q0 27 4 53q27 158 148 264q57 50 264 170q72 43 80 56q8 10 20 77l11 56l342 35l-19 -99 q-24 -145 -127 -241q-59 -56 -231 -156q-150 -86 -150 -162q0 -39 39 -71.5t105 -38.5q12 -2 26 -2q152 0 395 141l48 -279q-342 -145 -510 -145q-17 0 -31 2z" />
<glyph unicode="&#xc0;" horiz-adv-x="1589" d="M0 0zM1114 -23l-92 394h-500l-229 -394l-322 50l828 1407h319l336 -1407zM879 983l-199 -340h278zM1016 1488l-373 248l271 156l325 -295z" />
<glyph unicode="&#xc1;" horiz-adv-x="1589" d="M0 0zM1114 -23l-92 394h-500l-229 -394l-322 50l828 1407h319l336 -1407zM879 983l-199 -340h278zM798 1482l-184 109l432 295l215 -156z" />
<glyph unicode="&#xc2;" horiz-adv-x="1589" d="M0 0zM1114 -23l-92 394h-500l-229 -394l-322 50l828 1407h319l336 -1407zM879 983l-199 -340h278zM1171 1483l-186 133l-234 -133l-125 158l400 209l325 -209z" />
<glyph unicode="&#xc3;" horiz-adv-x="1589" d="M0 0zM1114 -23l-92 394h-500l-229 -394l-322 50l828 1407h319l336 -1407zM879 983l-199 -340h278zM621 1757q24 41 94 76q68 34 127 34q72 0 164 -65q90 -66 160 -66q71 0 225 131l-47 -274q-146 -123 -225 -123q-74 0 -164 66q-92 63 -158 63h-4q-59 0 -123 -37 q-68 -39 -100 -92z" />
<glyph unicode="&#xc4;" horiz-adv-x="1589" d="M0 0zM1114 -23l-92 394h-500l-229 -394l-322 50l828 1407h319l336 -1407zM879 983l-199 -340h278zM1180 1512h-4q-56 0 -88 34q-37 35 -37 88q0 68 57 125q53 56 121 56h4q55 -2 90 -37q35 -37 35 -90q0 -66 -55 -119q-56 -55 -123 -57zM717 1512q-55 0 -90 34 q-37 35 -37 88q0 68 55 125q56 56 125 56q62 0 98 -45q29 -35 29 -80q0 -13 -2 -27q-10 -63 -63 -106q-54 -45 -115 -45z" />
<glyph unicode="&#xc5;" horiz-adv-x="1589" d="M0 0zM1114 -23l-92 394h-500l-229 -394l-322 50l828 1407h319l336 -1407zM879 983l-199 -340h278zM934 1357q-109 0 -178 70q-72 70 -72 174q0 127 110 236q109 106 242 106q109 0 179.5 -69.5t70.5 -174.5q0 -127 -109 -233q-110 -109 -243 -109zM999 1726 q-65 0 -80 -76q-2 -8 -2 -16q0 -23 13 -37q16 -22 43 -22q24 0 49 22q22 21 28 53q3 8 3 17q0 22 -13 39q-16 20 -41 20z" />
<glyph unicode="&#xc6;" horiz-adv-x="2271" d="M2046 0h-1055l66 371h-436l-377 -394l-332 56l1325 1401h1057l-17 -279h-739l-43 -235h616l-49 -279h-616l-64 -362h742zM1159 946l-272 -295h219z" />
<glyph unicode="&#xc7;" horiz-adv-x="1425" d="M63 0zM74 727q51 295 325 512q269 211 568 211q190 0 467 -94l-111 -299q-238 114 -377 114q-188 0 -346 -133q-158 -135 -190 -321q-7 -39 -7 -76q0 -160 113 -264.5t283 -104.5q153 0 454 129l-6 -292q-338 -125 -538 -125q-277 0 -461 178q-185 176 -185 442 q0 62 11 123zM477 -422l-18 180q18 -2 53 -20q33 -21 57 -21q33 0 64 19q37 22 37 61v4q-3 31 -56 31q-12 0 -39.5 -2t-36.5 -2l68 172h236l-23 -63q135 -27 135 -101q0 -55 -71 -151q-84 -115 -299 -115q-62 0 -107 8z" />
<glyph unicode="&#xc8;" horiz-adv-x="1280" d="M6 0zM1051 0h-1045l254 1434h1004l-19 -279h-698l-49 -276h616l-49 -279h-616l-58 -321h739zM872 1488l-373 248l271 156l325 -295z" />
<glyph unicode="&#xc9;" horiz-adv-x="1280" d="M6 0zM1051 0h-1045l254 1434h1004l-19 -279h-698l-49 -276h616l-49 -279h-616l-58 -321h739zM716 1482l-184 109l432 295l215 -156z" />
<glyph unicode="&#xca;" horiz-adv-x="1280" d="M6 0zM1051 0h-1045l254 1434h1004l-19 -279h-698l-49 -276h616l-49 -279h-616l-58 -321h739zM1028 1483l-186 133l-234 -133l-125 158l400 209l325 -209z" />
<glyph unicode="&#xcb;" horiz-adv-x="1280" d="M6 0zM1051 0h-1045l254 1434h1004l-19 -279h-698l-49 -276h616l-49 -279h-616l-58 -321h739zM1016 1512h-4q-56 0 -88 34q-37 35 -37 88q0 68 57 125q53 56 121 56h4q55 -2 90 -37q35 -37 35 -90q0 -66 -55 -119q-56 -55 -123 -57zM553 1512q-55 0 -90 34q-37 35 -37 88 q0 68 55 125q56 56 125 56q62 0 98 -45q29 -35 29 -80q0 -13 -2 -27q-10 -63 -63 -106q-54 -45 -115 -45z" />
<glyph unicode="&#xcc;" horiz-adv-x="602" d="M16 0zM16 0l252 1430l340 26l-256 -1456h-336zM545 1488l-373 248l271 156l325 -295z" />
<glyph unicode="&#xcd;" horiz-adv-x="602" d="M16 0zM16 0l252 1430l340 26l-256 -1456h-336zM327 1482l-184 109l432 295l215 -156z" />
<glyph unicode="&#xce;" horiz-adv-x="602" d="M16 0zM16 0l252 1430l340 26l-256 -1456h-336zM639 1483l-186 133l-234 -133l-125 158l400 209l325 -209z" />
<glyph unicode="&#xcf;" horiz-adv-x="602" d="M16 0zM16 0l252 1430l340 26l-256 -1456h-336zM688 1512h-4q-56 0 -88 34q-37 35 -37 88q0 68 57 125q53 56 121 56h4q55 -2 90 -37q35 -37 35 -90q0 -66 -55 -119q-56 -55 -123 -57zM225 1512q-55 0 -90 34q-37 35 -37 88q0 68 55 125q56 56 125 56q62 0 98 -45 q29 -35 29 -80q0 -13 -2 -27q-10 -63 -63 -106q-54 -45 -115 -45z" />
<glyph unicode="&#xd0;" horiz-adv-x="1612" d="M647 -14h-53q-164 0 -485 18l102 578h-164l49 278h164l100 565q248 29 431 29q77 0 135 -6q288 -31 460 -182q173 -154 173 -387q0 -64 -15 -131q-63 -312 -291 -523q-249 -231 -606 -239zM653 1180l-57 -320h201l-49 -278h-201l-55 -316q53 -6 106 -6q197 0 352 82 q205 104 256 406q8 36 8 71q0 195 -202 291q-146 70 -330 70h-29z" />
<glyph unicode="&#xd1;" horiz-adv-x="1542" d="M8 0zM938 -16l-438 907l-160 -911l-332 24l252 1428l365 18l422 -885l153 871h336l-252 -1432zM559 1757q24 41 94 76q68 34 127 34q72 0 164 -65q90 -66 160 -66q71 0 225 131l-47 -274q-146 -123 -225 -123q-74 0 -164 66q-92 63 -158 63h-4q-59 0 -123 -37 q-68 -39 -100 -92z" />
<glyph unicode="&#xd2;" horiz-adv-x="1630" d="M61 0zM684 -14q-281 0 -457 184q-166 172 -166 426q0 98 27 195q80 276 315 462q244 195 541 195h8q283 -2 455 -182q162 -170 162 -424q0 -318 -260 -582q-271 -274 -625 -274zM897 1171h-4q-191 0 -342 -165q-154 -168 -154 -369q0 -158 98.5 -266.5t239.5 -108.5 q187 0 340 174q154 172 154 371q0 156 -90 260q-92 102 -242 104zM1016 1488l-373 248l271 156l325 -295z" />
<glyph unicode="&#xd3;" horiz-adv-x="1630" d="M61 0zM684 -14q-281 0 -457 184q-166 172 -166 426q0 98 27 195q80 276 315 462q244 195 541 195h8q283 -2 455 -182q162 -170 162 -424q0 -318 -260 -582q-271 -274 -625 -274zM897 1171h-4q-191 0 -342 -165q-154 -168 -154 -369q0 -158 98.5 -266.5t239.5 -108.5 q187 0 340 174q154 172 154 371q0 156 -90 260q-92 102 -242 104zM798 1482l-184 109l432 295l215 -156z" />
<glyph unicode="&#xd4;" horiz-adv-x="1630" d="M61 0zM684 -14q-281 0 -457 184q-166 172 -166 426q0 98 27 195q80 276 315 462q244 195 541 195h8q283 -2 455 -182q162 -170 162 -424q0 -318 -260 -582q-271 -274 -625 -274zM897 1171h-4q-191 0 -342 -165q-154 -168 -154 -369q0 -158 98.5 -266.5t239.5 -108.5 q187 0 340 174q154 172 154 371q0 156 -90 260q-92 102 -242 104zM1171 1483l-186 133l-234 -133l-125 158l400 209l325 -209z" />
<glyph unicode="&#xd5;" horiz-adv-x="1630" d="M61 0zM684 -14q-281 0 -457 184q-166 172 -166 426q0 98 27 195q80 276 315 462q244 195 541 195h8q283 -2 455 -182q162 -170 162 -424q0 -318 -260 -582q-271 -274 -625 -274zM897 1171h-4q-191 0 -342 -165q-154 -168 -154 -369q0 -158 98.5 -266.5t239.5 -108.5 q187 0 340 174q154 172 154 371q0 156 -90 260q-92 102 -242 104zM641 1757q24 41 94 76q68 34 127 34q72 0 164 -65q90 -66 160 -66q71 0 225 131l-47 -274q-146 -123 -225 -123q-74 0 -164 66q-92 63 -158 63h-4q-59 0 -123 -37q-68 -39 -100 -92z" />
<glyph unicode="&#xd6;" horiz-adv-x="1630" d="M61 0zM684 -14q-281 0 -457 184q-166 172 -166 426q0 98 27 195q80 276 315 462q244 195 541 195h8q283 -2 455 -182q162 -170 162 -424q0 -318 -260 -582q-271 -274 -625 -274zM897 1171h-4q-191 0 -342 -165q-154 -168 -154 -369q0 -158 98.5 -266.5t239.5 -108.5 q187 0 340 174q154 172 154 371q0 156 -90 260q-92 102 -242 104zM1180 1512h-4q-56 0 -88 34q-37 35 -37 88q0 68 57 125q53 56 121 56h4q55 -2 90 -37q35 -37 35 -90q0 -66 -55 -119q-56 -55 -123 -57zM717 1512q-55 0 -90 34q-37 35 -37 88q0 68 55 125q56 56 125 56 q62 0 98 -45q29 -35 29 -80q0 -13 -2 -27q-10 -63 -63 -106q-54 -45 -115 -45z" />
<glyph unicode="&#xd7;" horiz-adv-x="961" d="M602 143l-143 129l-189 -149l-159 153l182 146l-137 129l204 170l144 -135l180 141l158 -152l-176 -137l141 -131z" />
<glyph unicode="&#xd8;" horiz-adv-x="1569" d="M643 -18q-147 0 -274 63l-95 -104l-299 104l181 195q-119 188 -119 407q0 72 10 144q51 305 305 489q240 172 551 172h8q158 0 293 -80l111 121l301 -104l-203 -222q111 -200 111 -405v-17q-6 -329 -279 -552q-258 -211 -602 -211zM856 1169h-4q-174 0 -324 -129 q-163 -139 -163 -325q0 -49 18 -107q14 -45 29 -92l577 623q-55 30 -133 30zM1145 879l-555 -598q45 -17 106 -17q176 0 330 133q156 135 156 310v16q-2 35 -19 86q-16 49 -18 70z" />
<glyph unicode="&#xd9;" horiz-adv-x="1550" d="M96 0zM635 -14q-539 20 -539 454q0 72 15 158l147 832l340 26l-149 -850q-5 -55 -9 -108q-2 -23 -2 -41q0 -39 8 -66q35 -129 224 -129q141 0 254 82q125 92 135 244l147 846h336l-147 -844q-52 -283 -260 -449q-199 -155 -467 -155h-33zM1016 1488l-373 248l271 156 l325 -295z" />
<glyph unicode="&#xda;" horiz-adv-x="1550" d="M96 0zM635 -14q-539 20 -539 454q0 72 15 158l147 832l340 26l-149 -850q-5 -55 -9 -108q-2 -23 -2 -41q0 -39 8 -66q35 -129 224 -129q141 0 254 82q125 92 135 244l147 846h336l-147 -844q-52 -283 -260 -449q-199 -155 -467 -155h-33zM798 1482l-184 109l432 295 l215 -156z" />
<glyph unicode="&#xdb;" horiz-adv-x="1550" d="M96 0zM635 -14q-539 20 -539 454q0 72 15 158l147 832l340 26l-149 -850q-5 -55 -9 -108q-2 -23 -2 -41q0 -39 8 -66q35 -129 224 -129q141 0 254 82q125 92 135 244l147 846h336l-147 -844q-52 -283 -260 -449q-199 -155 -467 -155h-33zM1110 1483l-186 133l-234 -133 l-125 158l400 209l325 -209z" />
<glyph unicode="&#xdc;" horiz-adv-x="1550" d="M96 0zM635 -14q-539 20 -539 454q0 72 15 158l147 832l340 26l-149 -850q-5 -55 -9 -108q-2 -23 -2 -41q0 -39 8 -66q35 -129 224 -129q141 0 254 82q125 92 135 244l147 846h336l-147 -844q-52 -283 -260 -449q-199 -155 -467 -155h-33zM1139 1512h-4q-56 0 -88 34 q-37 35 -37 88q0 68 57 125q53 56 121 56h4q55 -2 90 -37q35 -37 35 -90q0 -66 -55 -119q-56 -55 -123 -57zM676 1512q-55 0 -90 34q-37 35 -37 88q0 68 55 125q56 56 125 56q62 0 98 -45q29 -35 29 -80q0 -13 -2 -27q-10 -63 -63 -106q-54 -45 -115 -45z" />
<glyph unicode="&#xdd;" horiz-adv-x="1413" d="M129 0zM716 1482l-184 109l432 295l215 -156zM854 600l-106 -600h-336l106 600l-389 805l387 49l225 -543l418 543l365 -49z" />
<glyph unicode="&#xde;" horiz-adv-x="1313" d="M600 285q-84 -2 -231 -6l-50 -279h-335l252 1430l342 26l-52 -285q113 3 168 3h41q516 -35 516 -357q0 -43 -10 -90q-41 -205 -227 -326q-174 -112 -414 -116zM729 887q-70 10 -164 10q-41 0 -88 -2l-59 -336q112 -6 141 -6q297 0 350 182q4 17 4 33q0 90 -184 119z" />
<glyph unicode="&#xdf;" horiz-adv-x="1348" d="M592 -14h-12q-74 0 -168 24l100 283q141 -33 188 -33q154 0 170 174v8q0 129 -342 189l52 293q127 16 188 34q125 39 137 109q2 8 2 16q0 91 -184 91q-57 0 -156 -11l-205 -1167l-333 12l250 1422q274 18 446 18q55 0 94 -2q170 -10 291 -82q141 -86 141 -229v-25 q-14 -186 -247 -330q202 -125 202 -311q0 -27 -4 -55q-37 -197 -192 -308q-156 -110 -418 -120z" />
<glyph unicode="&#xe0;" d="M57 0zM1067 -14h-12q-178 0 -260 59q-172 -59 -289 -59q-211 0 -330 108q-119 109 -119 291q0 248 168 436q183 209 471 211h9q202 0 477 -133l-133 -635v-6q0 -20 22 -22v0h213zM641 760q-90 0 -168 -117q-80 -117 -80 -246q0 -147 131 -147q84 0 191 31l96 462 q-70 17 -170 17zM860 1087l-373 248l271 156l325 -295z" />
<glyph unicode="&#xe1;" d="M57 0zM1067 -14h-12q-178 0 -260 59q-172 -59 -289 -59q-211 0 -330 108q-119 109 -119 291q0 248 168 436q183 209 471 211h9q202 0 477 -133l-133 -635v-6q0 -20 22 -22v0h213zM641 760q-90 0 -168 -117q-80 -117 -80 -246q0 -147 131 -147q84 0 191 31l96 462 q-70 17 -170 17zM637 1087l-184 109l432 295l215 -156z" />
<glyph unicode="&#xe2;" d="M57 0zM1067 -14h-12q-178 0 -260 59q-172 -59 -289 -59q-211 0 -330 108q-119 109 -119 291q0 248 168 436q183 209 471 211h9q202 0 477 -133l-133 -635v-6q0 -20 22 -22v0h213zM641 760q-90 0 -168 -117q-80 -117 -80 -246q0 -147 131 -147q84 0 191 31l96 462 q-70 17 -170 17zM950 1112l-186 133l-234 -133l-125 158l400 209l325 -209z" />
<glyph unicode="&#xe3;" d="M57 0zM1067 -14h-12q-178 0 -260 59q-172 -59 -289 -59q-211 0 -330 108q-119 109 -119 291q0 248 168 436q183 209 471 211h9q202 0 477 -133l-133 -635v-6q0 -20 22 -22v0h213zM641 760q-90 0 -168 -117q-80 -117 -80 -246q0 -147 131 -147q84 0 191 31l96 462 q-70 17 -170 17zM367 1399q24 41 94 76q68 34 127 34q72 0 164 -65q90 -66 160 -66q71 0 225 131l-47 -274q-146 -123 -225 -123q-74 0 -164 66q-92 63 -158 63h-4q-59 0 -123 -37q-68 -39 -100 -92z" />
<glyph unicode="&#xe4;" d="M57 0zM1067 -14h-12q-178 0 -260 59q-172 -59 -289 -59q-211 0 -330 108q-119 109 -119 291q0 248 168 436q183 209 471 211h9q202 0 477 -133l-133 -635v-6q0 -20 22 -22v0h213zM641 760q-90 0 -168 -117q-80 -117 -80 -246q0 -147 131 -147q84 0 191 31l96 462 q-70 17 -170 17zM957 1092h-4q-56 0 -88 34q-37 35 -37 88q0 68 57 125q53 56 121 56h4q55 -2 90 -37q35 -37 35 -90q0 -66 -55 -119q-56 -55 -123 -57zM494 1092q-55 0 -90 34q-37 35 -37 88q0 68 55 125q56 56 125 56q62 0 98 -45q29 -35 29 -80q0 -13 -2 -27 q-10 -63 -63 -106q-54 -45 -115 -45z" />
<glyph unicode="&#xe5;" d="M57 0zM1067 -14h-12q-178 0 -260 59q-172 -59 -289 -59q-211 0 -330 108q-119 109 -119 291q0 248 168 436q183 209 471 211h9q202 0 477 -133l-133 -635v-6q0 -20 22 -22v0h213zM641 760q-90 0 -168 -117q-80 -117 -80 -246q0 -147 131 -147q84 0 191 31l96 462 q-70 17 -170 17zM758 999q-109 0 -178 70q-72 70 -72 174q0 127 110 236q109 106 242 106q109 0 179.5 -69.5t70.5 -174.5q0 -127 -109 -233q-110 -109 -243 -109zM823 1368q-65 0 -80 -76q-2 -8 -2 -16q0 -23 13 -37q16 -22 43 -22q24 0 49 22q22 21 28 53q3 8 3 17 q0 22 -13 39q-16 20 -41 20z" />
<glyph unicode="&#xe6;" horiz-adv-x="1804" d="M985 934q154 98 334 98q205 0 328 -137q108 -123 108 -289v-6q-2 -125 -143 -182q-103 -41 -301 -49q-142 -2 -283 -7q35 -135 213 -135q164 0 279 84l73 -207q-163 -120 -424 -120q-204 0 -325 90l-115 -37q-164 -55 -285 -55q-36 0 -67 6q-148 28 -242 104 q-110 90 -112 221v4q0 115 79 197q62 64 197 125q115 51 274 51q78 0 160 -12q6 22 6 39q0 39 -37 45l-98 4h-18q-99 0 -320 -80l-92 242q297 104 447 104h26q131 -8 180 -20q95 -21 158 -78zM354 322q-2 -7 -2 -13q0 -57 119 -57q74 0 172 20l29 140q-56 6 -105 6 q-194 0 -213 -96zM1276 766q-70 0 -133 -41q-72 -47 -80 -119l215 8q137 7 139 37v6q0 109 -141 109z" />
<glyph unicode="&#xe7;" horiz-adv-x="1163" d="M74 0zM1008 672q-152 94 -301 94q-111 0 -203 -104q-94 -105 -94 -220q0 -86 49 -137q47 -53 125 -53q125 0 348 82l92 -246q-303 -104 -461 -104q-211 0 -354 139q-135 131 -135 309q0 240 207 420q204 180 481 180q98 0 225 -37q31 -10 215 -73zM313 -422l-18 180 q18 -2 53 -20q33 -21 57 -21q33 0 64 19q37 22 37 61v4q-3 31 -56 31q-12 0 -39.5 -2t-36.5 -2l68 172h236l-23 -63q135 -27 135 -101q0 -55 -71 -151q-84 -115 -299 -115q-62 0 -107 8z" />
<glyph unicode="&#xe8;" horiz-adv-x="1178" d="M78 0zM399 365q19 -76 97 -103q49 -18 147 -18q148 0 258 78l84 -216q-172 -120 -450 -120q-195 0 -326 123q-131 120 -131 315q0 244 194 426q195 182 441 182q153 0 280 -102q137 -109 137 -258q0 -205 -284 -271q-115 -26 -447 -36zM682 770q-78 0 -147 -45 q-78 -49 -89 -121q111 0 193 6q186 11 186 41q0 119 -143 119zM778 1087l-373 248l271 156l325 -295z" />
<glyph unicode="&#xe9;" horiz-adv-x="1178" d="M78 0zM399 365q19 -76 97 -103q49 -18 147 -18q148 0 258 78l84 -216q-172 -120 -450 -120q-195 0 -326 123q-131 120 -131 315q0 244 194 426q195 182 441 182q153 0 280 -102q137 -109 137 -258q0 -205 -284 -271q-115 -26 -447 -36zM682 770q-78 0 -147 -45 q-78 -49 -89 -121q111 0 193 6q186 11 186 41q0 119 -143 119zM534 1087l-184 109l432 295l215 -156z" />
<glyph unicode="&#xea;" horiz-adv-x="1178" d="M78 0zM399 365q19 -76 97 -103q49 -18 147 -18q148 0 258 78l84 -216q-172 -120 -450 -120q-195 0 -326 123q-131 120 -131 315q0 244 194 426q195 182 441 182q153 0 280 -102q137 -109 137 -258q0 -205 -284 -271q-115 -26 -447 -36zM682 770q-78 0 -147 -45 q-78 -49 -89 -121q111 0 193 6q186 11 186 41q0 119 -143 119zM868 1112l-186 133l-234 -133l-125 158l400 209l325 -209z" />
<glyph unicode="&#xeb;" horiz-adv-x="1178" d="M78 0zM399 365q19 -76 97 -103q49 -18 147 -18q148 0 258 78l84 -216q-172 -120 -450 -120q-195 0 -326 123q-131 120 -131 315q0 244 194 426q195 182 441 182q153 0 280 -102q137 -109 137 -258q0 -205 -284 -271q-115 -26 -447 -36zM682 770q-78 0 -147 -45 q-78 -49 -89 -121q111 0 193 6q186 11 186 41q0 119 -143 119zM957 1092h-4q-56 0 -88 34q-37 35 -37 88q0 68 57 125q53 56 121 56h4q55 -2 90 -37q35 -37 35 -90q0 -66 -55 -119q-56 -55 -123 -57zM494 1092q-55 0 -90 34q-37 35 -37 88q0 68 55 125q56 56 125 56 q62 0 98 -45q29 -35 29 -80q0 -13 -2 -27q-10 -63 -63 -106q-54 -45 -115 -45z" />
<glyph unicode="&#xec;" horiz-adv-x="741" d="M92 0zM455 -14h-4q-359 0 -359 256l148 757l344 25l-148 -760v-6q0 -20 23 -22v0h205zM491 1087l-373 248l271 156l325 -295z" />
<glyph unicode="&#xed;" horiz-adv-x="741" d="M92 0zM455 -14h-4q-359 0 -359 256l148 757l344 25l-148 -760v-6q0 -20 23 -22v0h205zM288 1087l-184 109l432 295l215 -156z" />
<glyph unicode="&#xee;" horiz-adv-x="741" d="M92 0zM455 -14h-4q-359 0 -359 256l148 757l344 25l-148 -760v-6q0 -20 23 -22v0h205zM643 1112l-186 133l-234 -133l-125 158l400 209l325 -209z" />
<glyph unicode="&#xef;" horiz-adv-x="741" d="M59 0zM455 -14h-4q-359 0 -359 256l148 757l344 25l-148 -760v-6q0 -20 23 -22v0h205zM649 1092h-4q-56 0 -88 34q-37 35 -37 88q0 68 57 125q53 56 121 56h4q55 -2 90 -37q35 -37 35 -90q0 -66 -55 -119q-56 -55 -123 -57zM186 1092q-55 0 -90 34q-37 35 -37 88 q0 68 55 125q56 56 125 56q62 0 98 -45q29 -35 29 -80q0 -13 -2 -27q-10 -63 -63 -106q-54 -45 -115 -45z" />
<glyph unicode="&#xf0;" horiz-adv-x="1194" d="M16 369q0 200 129 368q142 183 367 226q31 4 94 6q-18 26 -45 67l-203 -86l-147 201l182 76q-24 26 -110 110l331 174q29 -36 111 -141l168 70l149 -197l-170 -74q168 -264 207 -430q13 -55 13 -118q0 -80 -19 -172q-39 -191 -221 -347q-190 -159 -401 -159 q-199 0 -322 129q-113 121 -113 297zM578 690q-86 0 -154 -92q-70 -92 -70 -192q0 -144 138 -162q12 -2 22 -2q80 0 152 88q82 100 82 209q0 149 -170 151z" />
<glyph unicode="&#xf1;" horiz-adv-x="1411" d="M37 0zM1122 -14q-161 0 -264 51q-110 57 -110 160q0 20 4 41q28 112 57 225q33 135 33 227q0 76 -117 76q-76 0 -207 -61l-143 -707h-338l205 1006l344 24l-17 -65q54 22 105 43q65 26 106 26q138 0 258 -74q142 -86 142 -217q0 -110 -27 -239q-27 -119 -53 -238 q-2 -4 -2 -8q0 -18 24 -20v0h217zM367 1399q24 41 94 76q68 34 127 34q72 0 164 -65q90 -66 160 -66q71 0 225 131l-47 -274q-146 -123 -225 -123q-74 0 -164 66q-92 63 -158 63h-4q-59 0 -123 -37q-68 -39 -100 -92z" />
<glyph unicode="&#xf2;" horiz-adv-x="1276" d="M74 0zM545 -14q-213 0 -346 137q-125 127 -125 305q0 231 197.5 417.5t467.5 186.5q213 0 342 -135q121 -123 121 -301q0 -229 -190 -416q-197 -194 -467 -194zM707 766q-109 0 -201 -102q-94 -105 -94 -218q0 -84 47 -137q45 -55 114 -55q107 0 199 105.5t92 215.5 q0 84 -45 137.5t-112 53.5zM778 1087l-373 248l271 156l325 -295z" />
<glyph unicode="&#xf3;" horiz-adv-x="1276" d="M74 0zM545 -14q-213 0 -346 137q-125 127 -125 305q0 231 197.5 417.5t467.5 186.5q213 0 342 -135q121 -123 121 -301q0 -229 -190 -416q-197 -194 -467 -194zM707 766q-109 0 -201 -102q-94 -105 -94 -218q0 -84 47 -137q45 -55 114 -55q107 0 199 105.5t92 215.5 q0 84 -45 137.5t-112 53.5zM637 1087l-184 109l432 295l215 -156z" />
<glyph unicode="&#xf4;" horiz-adv-x="1276" d="M74 0zM545 -14q-213 0 -346 137q-125 127 -125 305q0 231 197.5 417.5t467.5 186.5q213 0 342 -135q121 -123 121 -301q0 -229 -190 -416q-197 -194 -467 -194zM707 766q-109 0 -201 -102q-94 -105 -94 -218q0 -84 47 -137q45 -55 114 -55q107 0 199 105.5t92 215.5 q0 84 -45 137.5t-112 53.5zM950 1112l-186 133l-234 -133l-125 158l400 209l325 -209z" />
<glyph unicode="&#xf5;" horiz-adv-x="1276" d="M74 0zM545 -14q-213 0 -346 137q-125 127 -125 305q0 231 197.5 417.5t467.5 186.5q213 0 342 -135q121 -123 121 -301q0 -229 -190 -416q-197 -194 -467 -194zM707 766q-109 0 -201 -102q-94 -105 -94 -218q0 -84 47 -137q45 -55 114 -55q107 0 199 105.5t92 215.5 q0 84 -45 137.5t-112 53.5zM367 1399q24 41 94 76q68 34 127 34q72 0 164 -65q90 -66 160 -66q71 0 225 131l-47 -274q-146 -123 -225 -123q-74 0 -164 66q-92 63 -158 63h-4q-59 0 -123 -37q-68 -39 -100 -92z" />
<glyph unicode="&#xf6;" horiz-adv-x="1276" d="M74 0zM545 -14q-213 0 -346 137q-125 127 -125 305q0 231 197.5 417.5t467.5 186.5q213 0 342 -135q121 -123 121 -301q0 -229 -190 -416q-197 -194 -467 -194zM707 766q-109 0 -201 -102q-94 -105 -94 -218q0 -84 47 -137q45 -55 114 -55q107 0 199 105.5t92 215.5 q0 84 -45 137.5t-112 53.5zM957 1092h-4q-56 0 -88 34q-37 35 -37 88q0 68 57 125q53 56 121 56h4q55 -2 90 -37q35 -37 35 -90q0 -66 -55 -119q-56 -55 -123 -57zM494 1092q-55 0 -90 34q-37 35 -37 88q0 68 55 125q56 56 125 56q62 0 98 -45q29 -35 29 -80q0 -13 -2 -27 q-10 -63 -63 -106q-54 -45 -115 -45z" />
<glyph unicode="&#xf7;" horiz-adv-x="1034" d="M547 616q-62 0 -103 37q-41 35 -41 90q0 66 62 121q59 56 135 56q62 0 101.5 -37t39.5 -90q0 -68 -59 -121q-61 -56 -135 -56zM88 291l49 278h809l-49 -278h-809zM428 -49q-61 0 -102 37q-41 35 -41 90q0 65 61 121q62 55 135 55q64 0 103 -37t39 -90q0 -68 -60 -121 q-59 -55 -135 -55z" />
<glyph unicode="&#xf8;" horiz-adv-x="1284" d="M541 -18q-101 0 -183 30l-69 -69l-297 102l147 150q-65 102 -65 229q0 41 8 82q39 227 235 375q187 141 418 141q99 0 187 -33l73 72l299 -98l-151 -158q55 -96 55 -211q0 -43 -8 -86q-39 -225 -234 -377q-186 -149 -415 -149zM682 752q-102 0 -184 -90q-84 -91 -88 -191 l278 281h-6zM856 518l-262 -266q96 2 174 90q72 78 88 176z" />
<glyph unicode="&#xf9;" d="M57 0zM1065 -14h-12q-185 0 -267 63q-204 -63 -311 -63q-141 0 -266 67q-152 82 -152 221q0 152 49 367q44 180 89 360l348 23q-43 -172 -86 -346q-54 -215 -54 -346q0 -96 109 -96q70 0 203 53l147 723h340l-153 -748v-6q0 -20 22 -22v0h213zM778 1087l-373 248l271 156 l325 -295z" />
<glyph unicode="&#xfa;" d="M57 0zM1065 -14h-12q-185 0 -267 63q-204 -63 -311 -63q-141 0 -266 67q-152 82 -152 221q0 152 49 367q44 180 89 360l348 23q-43 -172 -86 -346q-54 -215 -54 -346q0 -96 109 -96q70 0 203 53l147 723h340l-153 -748v-6q0 -20 22 -22v0h213zM596 1087l-184 109l432 295 l215 -156z" />
<glyph unicode="&#xfb;" d="M57 0zM1065 -14h-12q-185 0 -267 63q-204 -63 -311 -63q-141 0 -266 67q-152 82 -152 221q0 152 49 367q44 180 89 360l348 23q-43 -172 -86 -346q-54 -215 -54 -346q0 -96 109 -96q70 0 203 53l147 723h340l-153 -748v-6q0 -20 22 -22v0h213zM909 1112l-186 133 l-234 -133l-125 158l400 209l325 -209z" />
<glyph unicode="&#xfc;" d="M57 0zM1065 -14h-12q-185 0 -267 63q-204 -63 -311 -63q-141 0 -266 67q-152 82 -152 221q0 152 49 367q44 180 89 360l348 23q-43 -172 -86 -346q-54 -215 -54 -346q0 -96 109 -96q70 0 203 53l147 723h340l-153 -748v-6q0 -20 22 -22v0h213zM957 1092h-4q-56 0 -88 34 q-37 35 -37 88q0 68 57 125q53 56 121 56h4q55 -2 90 -37q35 -37 35 -90q0 -66 -55 -119q-56 -55 -123 -57zM494 1092q-55 0 -90 34q-37 35 -37 88q0 68 55 125q56 56 125 56q62 0 98 -45q29 -35 29 -80q0 -13 -2 -27q-10 -63 -63 -106q-54 -45 -115 -45z" />
<glyph unicode="&#xfd;" horiz-adv-x="1225" d="M0 0zM637 1087l-184 109l432 295l215 -156zM551 -229q-86 -144 -168 -189q-84 -45 -266 -53l-121 262q143 0 186 14q41 13 76 70q10 19 96 162l-243 942l352 49l125 -608l348 606l330 -53z" />
<glyph unicode="&#xfe;" horiz-adv-x="1272" d="M592 -39h-29q-76 0 -180 27l-41 -234l-342 -26l260 1476l342 27l-41 -225q123 30 236 30q190 0 303 -90q123 -98 123 -289q0 -63 -15 -135q-49 -248 -209.5 -395t-406.5 -166zM807 731q-25 19 -82 19q-76 0 -215 -33l-78 -451q103 -30 180 -30q68 0 111 24 q111 62 147 254q13 64 13 94q0 62 -76 123z" />
<glyph unicode="&#xff;" horiz-adv-x="1225" d="M0 0zM551 -229q-86 -144 -168 -189q-84 -45 -266 -53l-121 262q143 0 186 14q41 13 76 70q10 19 96 162l-243 942l352 49l125 -608l348 606l330 -53zM957 1092h-4q-56 0 -88 34q-37 35 -37 88q0 68 57 125q53 56 121 56h4q55 -2 90 -37q35 -37 35 -90q0 -66 -55 -119 q-56 -55 -123 -57zM494 1092q-55 0 -90 34q-37 35 -37 88q0 68 55 125q56 56 125 56q62 0 98 -45q29 -35 29 -80q0 -13 -2 -27q-10 -63 -63 -106q-54 -45 -115 -45z" />
<glyph unicode="&#x131;" horiz-adv-x="741" d="M455 -14h-4q-359 0 -359 256l148 757l344 25l-148 -760v-6q0 -20 23 -22v0h205z" />
<glyph unicode="&#x152;" horiz-adv-x="2150" d="M1921 0h-1276q-270 0 -434 178q-152 166 -152 412q0 315 244 573q258 271 606 271h1266l-18 -279h-740l-41 -235h617l-49 -279h-617l-65 -362h739zM1081 1155h-227q-184 0 -319 -164q-138 -166 -138 -362q0 -150 84 -250t217 -100h228z" />
<glyph unicode="&#x153;" horiz-adv-x="1950" d="M522 -14q-211 0 -346 137q-123 127 -123 305q0 231 195 414q198 190 469 190q215 0 352 -139q68 59 184 100q111 39 209 39q205 0 328 -137q108 -123 108 -289v-6q-2 -125 -143 -182q-102 -41 -301 -49q-141 -2 -283 -7q35 -135 213 -135q164 0 279 84l74 -207 q-166 -120 -430 -120q-258 0 -379 145q-176 -143 -406 -143zM686 766q-108 0 -203 -104q-94 -105 -94 -218q0 -84 47 -137q45 -53 117 -53q102 0 196.5 105.5t94.5 213.5q0 84 -45 140q-45 53 -113 53zM1423 766q-69 0 -133 -41q-71 -47 -80 -119l215 8q138 7 140 37v6 q0 109 -142 109z" />
<glyph unicode="&#x178;" horiz-adv-x="1413" d="M129 0zM854 600l-106 -600h-336l106 600l-389 805l387 49l225 -543l418 543l365 -49zM1057 1512h-4q-56 0 -88 34q-37 35 -37 88q0 68 57 125q53 56 121 56h4q55 -2 90 -37q35 -37 35 -90q0 -66 -55 -119q-56 -55 -123 -57zM594 1512q-55 0 -90 34q-37 35 -37 88 q0 68 55 125q56 56 125 56q62 0 98 -45q29 -35 29 -80q0 -13 -2 -27q-10 -63 -63 -106q-54 -45 -115 -45z" />
<glyph unicode="&#x2c6;" horiz-adv-x="766" d="M561 1112l-186 133l-234 -133l-125 158l400 209l325 -209z" />
<glyph unicode="&#x2da;" horiz-adv-x="676" d="M287 999q-109 0 -178 70q-72 70 -72 174q0 127 110 236q109 106 242 106q109 0 179.5 -69.5t70.5 -174.5q0 -127 -109 -233q-110 -109 -243 -109zM352 1368q-65 0 -80 -76q-2 -8 -2 -16q0 -23 13 -37q16 -22 43 -22q24 0 49 22q22 21 28 53q3 8 3 17q0 22 -13 39 q-16 20 -41 20z" />
<glyph unicode="&#x2dc;" horiz-adv-x="874" d="M80 1399q24 41 94 76q68 34 127 34q72 0 164 -65q90 -66 160 -66q71 0 225 131l-47 -274q-146 -123 -225 -123q-74 0 -164 66q-92 63 -158 63h-4q-59 0 -123 -37q-68 -39 -100 -92z" />
<glyph unicode="&#x2000;" horiz-adv-x="971" />
<glyph unicode="&#x2001;" horiz-adv-x="1943" />
<glyph unicode="&#x2002;" horiz-adv-x="971" />
<glyph unicode="&#x2003;" horiz-adv-x="1943" />
<glyph unicode="&#x2004;" horiz-adv-x="647" />
<glyph unicode="&#x2005;" horiz-adv-x="485" />
<glyph unicode="&#x2006;" horiz-adv-x="323" />
<glyph unicode="&#x2007;" horiz-adv-x="323" />
<glyph unicode="&#x2008;" horiz-adv-x="242" />
<glyph unicode="&#x2009;" horiz-adv-x="388" />
<glyph unicode="&#x200a;" horiz-adv-x="107" />
<glyph unicode="&#x2010;" horiz-adv-x="844" d="M111 403l45 267h577l-45 -267h-577z" />
<glyph unicode="&#x2011;" horiz-adv-x="844" d="M111 403l45 267h577l-45 -267h-577z" />
<glyph unicode="&#x2012;" horiz-adv-x="844" d="M111 403l45 267h577l-45 -267h-577z" />
<glyph unicode="&#x2013;" horiz-adv-x="1171" d="M90 403l45 267h946l-45 -267h-946z" />
<glyph unicode="&#x2014;" horiz-adv-x="1745" d="M90 403l45 267h1520l-45 -267h-1520z" />
<glyph unicode="&#x2018;" horiz-adv-x="489" d="M371 1182q-62 -166 -207 -166q-64 0 -109 41q-47 41 -47 106q0 17 2 33q10 51 80 131l242 270l166 -71z" />
<glyph unicode="&#x2019;" horiz-adv-x="489" d="M397 1270l-239 -271l-166 72l127 344q24 66 74 111q59 55 135 55q65 0 110 -41q43 -43 43 -106q0 -70 -84 -164z" />
<glyph unicode="&#x201a;" horiz-adv-x="444" d="M360 -29l-229 -258l-137 60l121 327q55 150 184 150q63 0 107 -45q30 -35 30 -84q0 -15 -2 -31q-8 -43 -74 -119z" />
<glyph unicode="&#x201c;" horiz-adv-x="926" d="M807 1182q-62 -166 -207 -166q-65 0 -111 41q-45 41 -45 106q0 17 2 33q11 51 80 131l242 270l166 -71zM371 1182q-62 -166 -207 -166q-64 0 -109 41q-47 41 -47 106q0 17 2 33q10 51 80 131l242 270l166 -71z" />
<glyph unicode="&#x201d;" horiz-adv-x="926" d="M834 1270l-240 -271l-166 72l127 344q25 66 74 111q59 55 135 55q65 0 110 -41q44 -43 44 -106q0 -70 -84 -164zM397 1270l-239 -271l-166 72l127 344q61 166 205 166q71 0 120 -51q37 -39 37 -94q0 -17 -4 -35q-8 -51 -80 -131z" />
<glyph unicode="&#x201e;" horiz-adv-x="840" d="M756 -29l-230 -258l-137 60l121 327q55 150 184 150q60 0 98.5 -37t38.5 -94q0 -35 -16 -68q-10 -24 -59 -80zM360 -29l-229 -258l-137 60l121 327q55 150 184 150q63 0 107 -45q30 -35 30 -84q0 -15 -2 -31q-8 -43 -74 -119z" />
<glyph unicode="&#x2022;" horiz-adv-x="684" d="M92 586q0 100 78 174q76 71 176 71t174 -71q72 -72 72 -174q0 -101 -76 -174q-78 -74 -178 -74q-102 0 -174 74q-72 71 -72 174z" />
<glyph unicode="&#x2026;" horiz-adv-x="1493" d="M1204 -16q-67 0 -108 43q-43 43 -43 108q0 80 67 148q66 65 150 65q65 0 110 -43q43 -43 43 -106q0 -82 -67.5 -148.5t-151.5 -66.5zM713 -16q-68 0 -109 43q-43 43 -43 108q0 80 68 148q65 65 149 65q66 0 111 -43q43 -43 43 -106q0 -82 -68 -148q-67 -67 -151 -67z M221 -16q-67 0 -108 43q-43 43 -43 108q0 80 67 148q66 65 150 65q65 0 110 -43q43 -43 43 -106q0 -82 -67.5 -148.5t-151.5 -66.5z" />
<glyph unicode="&#x202f;" horiz-adv-x="388" />
<glyph unicode="&#x2039;" horiz-adv-x="643" d="M426 76l-369 348l31 172l490 334l22 -254l-246 -170l187 -176z" />
<glyph unicode="&#x203a;" horiz-adv-x="643" d="M66 78l-23 256l246 168l-187 176l115 254l369 -348l-31 -172z" />
<glyph unicode="&#x205f;" horiz-adv-x="485" />
<glyph unicode="&#x20ac;" horiz-adv-x="1440" d="M1274 811q-49 25 -100 41q-125 41 -236 41q-129 0 -236 -119h555l-135 -182h-516l-10 -37h508l-135 -182h-363q47 -152 217 -152q127 0 375 98l84 -239q-332 -119 -489 -119q-17 0 -31 2q-199 19 -328 129q-131 109 -155 281h-240l135 182h105l10 37h-211l135 182h145 q95 170 263 275q165 104 368 112h21q100 0 221 -33q53 -16 223 -79z" />
<glyph unicode="&#x2122;" horiz-adv-x="1477" d="M1124 870l11 144l-78 -129h-152l-33 129l-38 -146l-187 31l154 535h162l67 -265l158 265h164l-33 -535zM489 1280l-69 -395h-187l70 395h-168l27 154h522l-27 -154h-168z" />
<glyph unicode="&#xe000;" horiz-adv-x="1025" d="M0 1025h1025v-1025h-1025v1025z" />
<glyph horiz-adv-x="2028" d="M0 0z" />
</font>
</defs>
</svg>
