<?xml version="1.0" standalone="no"?>
<!DOCTYPE svg PUBLIC "-//W3C//DTD SVG 1.1//EN" "http://www.w3.org/Graphics/SVG/1.1/DTD/svg11.dtd" >
<svg xmlns="http://www.w3.org/2000/svg">
<metadata></metadata>
<defs>
<font id="costura_ltregular" horiz-adv-x="764" >
<font-face units-per-em="1000" ascent="800" descent="-200" />
<missing-glyph horiz-adv-x="464" />
<glyph horiz-adv-x="1000" />
<glyph horiz-adv-x="1000" />
<glyph unicode="&#xd;" horiz-adv-x="1000" />
<glyph unicode=" "  horiz-adv-x="464" />
<glyph unicode="&#x09;" horiz-adv-x="464" />
<glyph unicode="&#xa0;" horiz-adv-x="464" />
<glyph unicode="!" horiz-adv-x="307" d="M64 0q-13 14 0 27l49 49q14 14 0 27l-49 49q-8 9 -4 19.5t13 13t18 -5.5l50 -49q13 -13 26 0l50 49q5 6 13 6t13 -6q14 -13 0 -27l-49 -49q-13 -13 0 -27l49 -49q8 -7 5 -17.5t-12.5 -13.5t-18.5 4l-50 49q-5 6 -13 6t-13 -6l-50 -49q-13 -13 -27 0zM64 332l49 49 q6 5 6 13t-6 14l-49 49q-5 5 -5 13.5t5 13.5l49 49q6 6 6 14t-6 13l-49 50q-5 5 -5 13t5 13l49 50q6 5 6 13t-6 14l-49 49q-5 5 -5 13.5t5 13.5q6 5 14 5t13 -5l50 -49q5 -6 13 -6t13 6l50 49q12 12 26 0q13 -14 0 -27l-49 -49q-5 -6 -5 -14t5 -13l49 -50q6 -5 6 -13t-6 -13 l-49 -50q-5 -5 -5 -13t5 -14l49 -49q6 -5 6 -13.5t-6 -13.5l-49 -49q-5 -6 -5 -14t5 -13l49 -49q6 -6 6 -14t-6 -13q-5 -6 -13 -6t-13 6l-50 49q-5 6 -13 6t-13 -6l-50 -49q-8 -9 -18 -5.5t-13 13t4 19.5zM118 457l23 -22q5 -5 13 -5t13 5l23 22q5 5 5 13.5t-5 13.5l-23 22 q-5 6 -13 6t-13 -6l-23 -22q-5 -5 -5 -13.5t5 -13.5zM118 610l23 -23q5 -5 13 -5t13 5l23 23q5 5 5 13t-5 13l-23 23q-5 5 -13 5t-13 -5l-23 -23q-5 -5 -5 -13t5 -13z" />
<glyph unicode="&#x22;" horiz-adv-x="612" d="M64 456q-12 14 0 28l202 201q5 5 5 13t-5 14l-50 49q-5 5 -5 13t5 14q6 6 14 6t14 -6l49 -49q5 -5 13 -5t14 5l49 49q5 6 13 6t14 -6l49 -49q5 -5 13.5 -5t13.5 5l49 49q9 9 19.5 5t13 -13.5t-5.5 -18.5l-49 -49q-5 -6 -5 -14t5 -13l49 -49q13 -13 0 -27t-27 -1l-49 50 q-5 5 -13.5 5t-13.5 -5l-201 -202q-14 -12 -28 0q-12 14 0 28l126 124q12 14 0 28l-22 22q-14 13 -27 0l-201 -202q-14 -12 -28 0zM347 685l22 -22q5 -6 13 -6t14 6l22 22q6 5 6 13t-6 14l-22 22q-6 5 -14 5t-13 -5l-22 -22q-5 -6 -5 -14t5 -13z" />
<glyph unicode="#" />
<glyph unicode="$" d="M64 27l49 49q5 6 5 14t-5 13l-49 49q-13 13 0 27t27 1l49 -50q5 -5 13 -5t14 5l49 50q5 5 13 5t14 -5l49 -50q6 -5 14 -5t13 5l22 22q6 6 6 14t-6 14l-49 49q-5 5 -5 13t5 14l49 49q6 5 6 13t-6 14l-22 22q-5 6 -13 6t-14 -6l-49 -49q-14 -12 -26.5 0.5t-0.5 26.5l49 49 q6 5 6 13.5t-6 13.5l-98 98q-6 6 -14 6t-13 -6l-49 -49q-9 -8 -19.5 -4t-13 13t5.5 18l49 50q5 5 5 13t-5 13l-49 50q-6 5 -6 13t6 13q5 6 13 6t14 -6l49 -49q5 -5 13 -5t14 5l98 99q6 5 6 13t-6 14l-49 49q-12 14 0.5 26.5t26.5 0.5l49 -49q14 -14 27 0l22 22q14 14 0 27 l-49 49q-13 14 0 27q14 13 27 0l50 -49q5 -6 13 -6t13 6l50 49q8 8 18 4.5t12.5 -13t-4.5 -18.5l-49 -49q-13 -13 0 -27l23 -22q5 -6 13 -6t13 6l50 49q13 13 27 0l49 -49q14 -14 27 0l49 49q14 12 26.5 -0.5t0.5 -26.5l-49 -49q-6 -6 -6 -14t6 -13l49 -50q5 -5 5.5 -11 t-2.5 -10.5t-8 -7.5t-11 -2.5t-11 5.5l-49 49q-5 5 -13 5t-14 -5l-49 -49q-6 -6 -14 -6t-13 6l-50 49q-5 5 -13 5t-13 -5l-23 -23q-5 -5 -5 -13t5 -13l49 -50q6 -5 6 -13t-6 -13l-49 -50q-5 -5 -5 -13t5 -14l23 -22q5 -5 13 -5t13 5l50 49q8 9 18 5.5t13 -13t-4 -19.5 l-49 -49q-6 -5 -6 -13.5t6 -13.5l98 -99q6 -5 14 -5t13 5l49 50q6 5 14 5t13 -5q5 -6 5 -14t-5 -13l-49 -49q-4 -4 -5.5 -9t0 -10t5.5 -8l49 -49q12 -14 0 -28q-5 -5 -13 -5t-14 5l-49 50q-5 5 -13 5t-14 -5l-98 -99q-6 -5 -6 -13t6 -14l49 -49q5 -5 5 -13t-5 -14 q-6 -5 -14 -5t-13 5l-50 49q-5 6 -13 6t-13 -6l-23 -22q-5 -5 -5 -13t5 -14l49 -49q6 -5 6 -13.5t-6 -13.5q-5 -6 -13 -6t-13 6l-50 49q-5 5 -13 5t-13 -5l-50 -49q-8 -9 -18 -5t-13 13.5t4 18.5l49 49q14 14 0 27l-22 22q-13 14 -27 0l-49 -49q-14 -13 -27 0l-49 49 q-14 14 -27 0l-49 -49q-9 -8 -19.5 -4t-13 13t5.5 18zM194 76l22 -22q5 -6 13 -6t14 6l22 22q6 6 6 14t-6 13l-22 23q-6 5 -14 5t-13 -5l-22 -23q-6 -5 -6 -13t6 -14zM194 534l98 -99q6 -5 14 -5t13 5l22 22q6 6 6 14t-6 13l-49 50q-5 5 -5 13t5 13l49 50q6 5 6 13t-6 13 l-22 23q-5 5 -13 5t-14 -5l-98 -99q-6 -5 -6 -13t6 -13zM346 76l23 -22q5 -6 13 -6t13 6l23 22q5 6 5 14t-5 13l-23 23q-5 5 -13 5t-13 -5l-23 -23q-5 -5 -5 -13t5 -14zM346 229l23 -23q5 -5 13 -5t13 5l23 23q5 5 5 13t-5 14l-23 22q-5 5 -13 5t-13 -5l-23 -22 q-5 -6 -5 -14t5 -13zM346 381l23 -22q5 -6 13 -6t13 6l23 22q5 5 5 13.5t-5 13.5l-23 22q-5 6 -13 6t-13 -6l-23 -22q-5 -5 -5 -13.5t5 -13.5zM346 534l23 -23q5 -5 13 -5t13 5l23 23q5 5 5 13t-5 13l-23 23q-5 5 -13 5t-13 -5l-23 -23q-5 -5 -5 -13t5 -13zM346 686l23 -22 q5 -6 13 -6t13 6l23 22q5 5 5 13t-5 14l-23 22q-5 5 -13 5t-13 -5l-23 -22q-5 -6 -5 -14t5 -13zM422 152l23 -22q5 -5 13 -5t13 5l99 99q5 5 5 13t-5 14l-99 98q-5 6 -13 6t-13 -6l-23 -22q-5 -6 -5 -14t5 -13l49 -49q6 -6 6 -14t-6 -13l-49 -49q-12 -14 0 -28zM499 686 l22 -22q5 -6 13 -6t14 6l22 22q5 5 5 13t-5 14l-22 22q-6 5 -14 5t-13 -5l-22 -22q-6 -6 -6 -14t6 -13z" />
<glyph unicode="%" horiz-adv-x="917" d="M64 0q-13 14 0 27l49 49q14 14 0 27l-49 49q-12 14 0 28q13 13 27 0l49 -50q5 -5 13.5 -5t13.5 5l99 99q13 13 0 27l-50 49q-13 13 0 27q14 13 27 0l50 -50q13 -13 26 0l99 99q5 5 5 13.5t-5 13.5l-49 49q-14 14 0 27q13 14 27 0l49 -49q13 -13 27 0l99 99q13 13 0 26 l-50 50q-8 8 -4 18.5t13.5 13t17.5 -5.5l49 -49q6 -5 14 -5t13 5l99 99q5 5 5 13t-5 14l-50 49q-5 6 -5 14t5 13q14 12 28 0l49 -49q5 -6 13 -6t14 6l49 49q5 5 13 5t14 -5q5 -5 5 -13t-5 -14l-49 -49q-6 -6 -6 -14t6 -13l49 -50q8 -8 4 -18.5t-13.5 -13t-17.5 5.5l-49 49 q-14 13 -27 0l-99 -99q-13 -13 0 -26l50 -50q13 -13 0 -27q-14 -12 -28 0l-49 49q-13 14 -27 0l-98 -98q-6 -5 -6 -13.5t6 -13.5l49 -49q12 -14 -0.5 -26.5t-26.5 -0.5l-49 49q-5 6 -13.5 6t-13.5 -6l-98 -98q-2 -2 -3.5 -5t-2 -6t0 -6t2 -5.5t3.5 -4.5l49 -49q12 -14 0 -28 q-6 -5 -14 -5t-13 5l-50 50q-5 5 -13 5t-13 -5l-99 -99q-5 -5 -5 -13t5 -14l49 -49q9 -8 5.5 -18t-13 -13t-19.5 4l-49 49q-5 6 -13.5 6t-13.5 -6l-49 -49q-14 -13 -27 0zM64 457q-5 6 -5 14t5 13l49 50q6 5 6 13t-6 13l-49 50q-5 5 -5 13t5 13l49 50q6 5 6 13t-6 14l-49 49 q-12 14 0.5 26.5t26.5 0.5l49 -49q5 -6 13.5 -6t13.5 6l49 49q6 5 14 5t13 -5l50 -49q5 -6 13 -6t13 6l50 49q5 5 13 5t14 -5q5 -5 5 -13t-5 -14l-49 -49q-6 -6 -6 -14t6 -13l49 -50q8 -8 4 -18.5t-13.5 -13t-17.5 5.5l-50 49q-5 5 -13 5t-13 -5l-99 -99q-5 -5 -5 -13t5 -13 l49 -50q9 -8 5.5 -18t-13 -13t-19.5 4l-49 49q-5 6 -13.5 6t-13.5 -6l-49 -49q-14 -13 -27 0zM118 610l22 -23q5 -5 13.5 -5t13.5 5l22 23q6 5 6 13t-6 13l-22 23q-5 5 -13.5 5t-13.5 -5l-22 -23q-5 -5 -5 -13t5 -13zM194 686l22 -22q6 -6 14 -6t13 6l23 22q5 5 5 13t-5 14 l-23 22q-5 5 -13 5t-14 -5l-22 -22q-5 -6 -5 -14t5 -13zM521 0q-5 6 -5 14t5 13l50 49q5 6 5 14t-5 13l-50 49q-12 14 0 28q6 5 14 5t13 -5l49 -50q6 -5 14 -5t13 5l99 99q5 5 5 13t-5 14l-50 49q-5 5 -5 13t5 14q14 12 28 0l49 -50q5 -5 13 -5t14 5l49 50q5 5 13 5t14 -5 q5 -6 5 -14t-5 -13l-49 -49q-4 -4 -5.5 -9t0 -10t5.5 -8l49 -49q12 -14 0 -28l-49 -49q-6 -5 -6 -13t6 -14l49 -49q5 -5 5 -13t-5 -14q-6 -5 -14 -5t-13 5l-49 49q-6 6 -14 6t-13 -6l-49 -49q-14 -12 -28 0l-49 49q-5 6 -13 6t-14 -6l-49 -49q-5 -5 -13 -5t-14 5zM651 76 l22 -22q6 -6 14 -6t14 6l22 22q5 6 5 14t-5 13l-22 23q-14 12 -28 0l-22 -23q-5 -5 -5 -13t5 -14zM727 152l23 -22q5 -5 13 -5t14 5l22 22q12 14 0 28l-22 22q-6 5 -14 5t-13 -5l-23 -22q-12 -14 0 -28z" />
<glyph unicode="&#x26;" horiz-adv-x="917" d="M64 152q-5 6 -5 14t5 13l50 50q5 5 5 13t-5 14l-50 49q-5 5 -5 13t5 14l50 49q5 5 5 13t-5 14l-50 49q-8 8 -4 18.5t13 13.5t18 -5l49 -49q14 -12 28 0l98 98q5 6 5 14t-5 13l-98 99q-14 12 -28 0l-49 -49q-7 -8 -17.5 -5t-13.5 12.5t4 18.5l50 50q5 5 5 13t-5 14l-50 49 q-5 5 -5 13.5t5 13.5q6 5 14 5t13 -5l49 -49q6 -6 14 -6t14 6l49 49q5 5 13 5t14 -5l49 -49q5 -6 13 -6t14 6l49 49q5 5 13.5 5t13.5 -5l49 -49q6 -6 14 -6t13 6l50 49q5 5 13 5t13 -5l50 -49q5 -6 13 -6t14 6l49 49q5 5 13.5 5t13.5 -5t5 -13.5t-5 -13.5l-49 -49 q-6 -6 -6 -14t6 -13l49 -50q12 -12 0 -26q-14 -13 -27 0l-49 49q-6 5 -14 5t-13 -5l-50 -49q-5 -6 -13 -6t-13 6l-50 49q-5 5 -13 5t-14 -5l-98 -99q-6 -5 -6 -13t6 -14l98 -98q6 -5 14 -5t13 5l50 49q5 6 13 6t13 -6q6 -5 6 -13.5t-6 -13.5l-49 -49q-5 -6 -5 -14t5 -13 l99 -99q5 -5 13 -5t14 5l49 50q5 5 13.5 5t13.5 -5q5 -6 5 -14t-5 -13l-49 -49q-4 -4 -5.5 -9t0 -10t5.5 -8l98 -99q6 -5 14 -5t13 5l49 49q6 6 14 6t13 -6q6 -5 6 -13t-6 -14l-49 -49q-6 -5 -6 -13t6 -14l49 -49q9 -8 5.5 -18t-13 -13t-19.5 4l-49 49q-13 14 -27 0l-49 -49 q-8 -8 -18.5 -4t-13.5 13t5 18l49 49q13 14 0 27l-98 99q-14 13 -27 0l-99 -99q-13 -13 0 -27l49 -49q8 -7 5 -17.5t-12.5 -13.5t-18.5 4l-50 49q-13 14 -27 0l-49 -49q-5 -5 -13.5 -5t-13.5 5l-49 49q-14 14 -27 0l-49 -49q-9 -8 -19.5 -4t-13 13t5.5 18l49 49q13 14 0 27 l-98 99q-14 12 -28 0l-49 -50q-13 -13 -27 0zM118 305l22 -23q14 -12 28 0l22 23q5 5 5 13t-5 14l-22 22q-6 6 -14 6t-14 -6l-22 -22q-5 -6 -5 -14t5 -13zM194 229l99 -99q5 -5 13 -5t14 5l49 49q5 6 13.5 6t13.5 -6l49 -49q6 -5 14 -5t13 5l99 99q5 5 5 13t-5 14l-99 98 q-5 6 -13 6t-14 -6l-49 -49q-12 -13 -25 -1q-15 13 -2 28l49 49q6 5 6 13t-6 14l-98 98q-6 6 -14 6t-13 -6l-99 -98q-5 -6 -5 -14t5 -13l50 -49q5 -6 5 -14t-5 -13l-50 -49q-5 -6 -5 -14t5 -13zM194 686l23 -22q5 -6 13 -6t14 6l22 22q5 5 5 13t-5 14l-22 22q-6 5 -14 5 t-13 -5l-23 -22q-5 -6 -5 -14t5 -13zM270 610l23 -23q5 -5 13 -5t14 5l22 23q6 5 6 13t-6 13l-22 23q-6 5 -14 5t-13 -5l-23 -23q-5 -5 -5 -13t5 -13zM347 76l22 -22q5 -6 13.5 -6t13.5 6l22 22q3 3 4.5 6.5t1.5 7t-1.5 7t-4.5 6.5l-22 23q-5 5 -13.5 5t-13.5 -5l-22 -23 q-6 -5 -6 -13t6 -14zM347 686l22 -22q5 -6 13.5 -6t13.5 6l22 22q6 5 6 13t-6 14l-22 22q-5 5 -13.5 5t-13.5 -5l-22 -22q-6 -6 -6 -14t6 -13zM499 686l23 -22q5 -6 13 -6t13 6l23 22q5 5 5 13t-5 14l-23 22q-5 5 -13 5t-13 -5l-23 -22q-5 -6 -5 -14t5 -13z" />
<glyph unicode="'" horiz-adv-x="459" d="M64 484l201 202q6 6 6 14t-6 13l-49 50q-14 14 2 27q14 12 25 -1l49 -49q6 -6 14 -6t13 6l50 49q5 6 13 6t13 -6q6 -5 6 -13t-6 -13l-49 -50q-5 -5 -5 -13t5 -14l49 -49q9 -8 5.5 -18t-13 -13t-18.5 4l-50 49q-13 14 -27 0l-202 -201q-8 -9 -18 -5.5t-12.5 13t4.5 18.5z " />
<glyph unicode="(" horiz-adv-x="460" d="M64 0q-5 6 -5 14t5 13l49 49q6 6 6 14t-6 13l-49 49q-12 14 0 28l49 49q6 5 6 13t-6 14l-49 49q-5 5 -5 13t5 14l49 49q6 5 6 13.5t-6 13.5l-49 49q-5 6 -5 14t5 13l49 50q6 5 6 13t-6 13l-49 50q-5 5 -5 13t5 13l49 50q6 5 6 13t-6 14l-49 49q-12 14 0.5 26.5t26.5 0.5 l49 -49q5 -6 13.5 -6t13.5 6l99 98q13 14 0 27l-50 49q-8 9 -4 19.5t13 13t18 -5.5l50 -49q13 -13 26 0l50 49q8 9 18 5.5t13 -13t-4 -19.5l-49 -49q-6 -5 -6 -13t6 -14l49 -49q5 -5 5 -13t-5 -14q-6 -5 -14 -5t-13 5l-50 49q-5 6 -13 6t-13 -6l-99 -98q-5 -6 -5 -14t5 -13 l49 -50q6 -5 6 -13t-6 -13l-49 -50q-5 -5 -5 -13t5 -13l49 -50q6 -5 6 -13t-6 -14l-49 -49q-5 -5 -5 -13.5t5 -13.5l49 -49q6 -6 6 -14t-6 -13l-49 -49q-5 -6 -5 -14t5 -13l49 -49q6 -6 6 -14t-6 -14l-49 -49q-5 -5 -5 -13t5 -14l99 -98q5 -6 13 -6t13 6l50 49q5 5 13 5 t14 -5q5 -5 5 -13t-5 -14l-49 -49q-6 -5 -6 -13.5t6 -13.5l49 -49q8 -9 4 -19.5t-13 -13t-18 5.5l-50 49q-5 5 -13 5t-13 -5l-50 -49q-8 -9 -18 -5.5t-13 13t4 19.5l50 49q5 5 5 13.5t-5 13.5l-99 98q-5 6 -13.5 6t-13.5 -6l-49 -49q-14 -13 -27 0zM118 152l22 -22 q5 -5 13.5 -5t13.5 5l22 22q6 6 6 14t-6 14l-22 22q-5 5 -13.5 5t-13.5 -5l-22 -22q-12 -14 0 -28zM118 305l22 -23q5 -5 13.5 -5t13.5 5l22 23q6 5 6 13t-6 14l-22 22q-5 6 -13.5 6t-13.5 -6l-22 -22q-5 -6 -5 -14t5 -13zM118 457l22 -22q5 -5 13.5 -5t13.5 5l22 22 q6 6 6 14t-6 13l-22 22q-5 6 -13.5 6t-13.5 -6l-22 -22q-5 -5 -5 -13t5 -14zM118 610l22 -23q5 -5 13.5 -5t13.5 5l22 23q6 5 6 13t-6 13l-22 23q-5 5 -13.5 5t-13.5 -5l-22 -23q-5 -5 -5 -13t5 -13z" />
<glyph unicode=")" horiz-adv-x="460" d="M64 0q-5 6 -5 14t5 13q6 5 14 5t13 -5l50 -49q5 -6 13 -6t13 6l99 98q5 6 5 14t-5 13l-49 49q-6 6 -6 14t6 14l49 49q5 5 5 13t-5 14l-49 49q-6 5 -6 13t6 14l49 49q5 5 5 13.5t-5 13.5l-49 49q-6 6 -6 14t6 13l49 50q5 5 5 13t-5 13l-49 50q-6 5 -6 13t6 13l49 50 q5 5 5 13t-5 14l-99 98q-5 6 -13 6t-13 -6l-50 -49q-5 -5 -13 -5t-14 5q-5 6 -5 14t5 13l49 49q6 6 6 14t-6 13l-49 49q-8 9 -4 19.5t13 13t18 -5.5l50 -49q5 -5 13 -5t13 5l50 49q11 13 25 1q15 -13 2 -28l-50 -49q-5 -5 -5 -13t5 -14l99 -98q5 -6 13.5 -6t13.5 6l49 49 q14 12 26.5 -0.5t0.5 -26.5l-49 -49q-6 -6 -6 -14t6 -13l49 -50q5 -5 5 -13t-5 -13l-49 -50q-6 -5 -6 -13t6 -13l49 -50q5 -5 5 -13t-5 -14l-49 -49q-6 -5 -6 -13.5t6 -13.5l49 -49q5 -6 5 -14t-5 -13l-49 -49q-6 -6 -6 -14t6 -13l49 -49q12 -14 0 -28l-49 -49q-6 -5 -6 -13 t6 -14l49 -49q5 -5 5 -13t-5 -14q-5 -5 -13 -5t-14 5l-49 49q-5 6 -13.5 6t-13.5 -6l-99 -98q-5 -5 -5 -13.5t5 -13.5l50 -49q8 -9 4 -19.5t-13 -13t-18 5.5l-50 49q-13 13 -26 0l-50 -49q-8 -9 -18 -5.5t-13 13t4 19.5l49 49q6 5 6 13.5t-6 13.5zM271 152l22 -22 q5 -5 13.5 -5t13.5 5l22 22q12 14 0 28l-22 22q-5 5 -13.5 5t-13.5 -5l-22 -22q-6 -6 -6 -14t6 -14zM271 305l22 -23q5 -5 13.5 -5t13.5 5l22 23q5 5 5 13t-5 14l-22 22q-5 6 -13.5 6t-13.5 -6l-22 -22q-6 -6 -6 -14t6 -13zM271 457l22 -22q5 -5 13.5 -5t13.5 5l22 22 q5 6 5 14t-5 13l-22 22q-5 6 -13.5 6t-13.5 -6l-22 -22q-6 -5 -6 -13t6 -14zM271 610l22 -23q5 -5 13.5 -5t13.5 5l22 23q5 5 5 13t-5 13l-22 23q-5 5 -13.5 5t-13.5 -5l-22 -23q-6 -5 -6 -13t6 -13z" />
<glyph unicode="*" horiz-adv-x="613" d="M64 152q-5 6 -5 14t5 13l50 49q12 14 0 28l-50 49q-5 5 -5 13t5 14q6 5 14 5t13 -5l50 -50q5 -5 13 -5t13 5l99 99q5 5 5 13t-5 13l-99 99q-5 5 -13 5t-13 -5l-50 -49q-8 -9 -18 -5.5t-13 13t4 19.5l50 49q13 14 0 27l-50 49q-13 14 0 27q14 13 27 0l50 -49q5 -6 13 -6 t13 6l50 49q13 13 27 0q13 -13 0 -27l-49 -49q-14 -13 0 -27l98 -98q5 -6 13.5 -6t13.5 6l99 98q13 14 0 27l-50 49q-13 14 0 27q14 13 27 0l49 -49q14 -14 27 0l49 49q14 12 28 0q13 -13 0 -27l-50 -49q-13 -13 0 -27l50 -49q13 -14 -1 -27t-27 0l-49 49q-13 13 -27 0 l-98 -99q-6 -5 -6 -13t6 -13l98 -99q14 -13 27 0l49 50q14 12 28 0q13 -14 0 -27l-50 -49q-12 -14 0 -28l50 -49q13 -13 0 -27q-14 -12 -28 0l-49 50q-13 13 -27 0l-49 -50q-13 -13 -27 0q-13 14 0 27l50 49q12 14 0 28l-99 98q-5 5 -13.5 5t-13.5 -5l-98 -98q-14 -14 0 -28 l56 -56q6 -6 -7 -20q-14 -13 -21 -6l-56 56q-13 13 -26 0l-50 -50q-13 -13 -27 0z" />
<glyph unicode="+" horiz-adv-x="459" d="M64 -1q-13 11 -1 25q14 14 27 2l50 -50q5 -5 13 -5t14 5l202 202q12 14 25.5 0.5t0.5 -26.5l-201 -202q-6 -6 -6 -14t6 -13l49 -50q14 -14 -2 -27q-14 -12 -25 1l-49 49q-14 14 -27 0l-50 -49q-5 -6 -13 -6t-13 6q-6 5 -6 13t6 13l49 50q13 13 0 27z" />
<glyph unicode="," horiz-adv-x="314" d="M-81 -126l201 202q6 6 6 14t-6 13l-49 50q-14 14 2 27q14 12 25 -1l49 -49q6 -6 14 -6t13 6l50 49q5 6 13 6t13 -6q6 -5 6 -13t-6 -13l-49 -50q-5 -5 -5 -13t5 -14l49 -49q13 -11 1 -25q-14 -14 -27 -2l-50 50q-13 13 -27 0l-202 -202q-8 -9 -18 -5.5t-12.5 13t4.5 18.5z " />
<glyph unicode="-" horiz-adv-x="916" d="M64 152q-6 6 -6 14t6 13l201 202q6 5 6 13.5t-6 13.5l-49 49q-5 6 -5 14t5 13q6 5 14 5t13 -5l49 -49q6 -6 14 -6t14 6l48 49q14 12 28 0l49 -49q5 -6 13 -6t14 6l49 49q5 5 13 5t14 -5l49 -49q5 -6 13 -6t14 6l202 202q8 8 18.5 4t13 -13.5t-5.5 -17.5l-201 -202 q-5 -5 -5 -13.5t5 -13.5l49 -49q13 -13 0 -26t-27 -1l-49 49q-14 14 -27 0l-49 -49q-14 -13 -27 0l-49 49q-14 14 -27 0l-49 -49q-14 -12 -28 0l-48 49q-14 14 -28 0l-201 -202q-13 -13 -27 0zM346 381l22 -23q14 -12 28 0l22 23q5 5 5 13.5t-5 13.5l-22 22q-6 6 -14 6 t-14 -6l-22 -22q-5 -5 -5 -13.5t5 -13.5zM499 381l22 -23q5 -5 13 -5t14 5l22 23q6 5 6 13.5t-6 13.5l-22 22q-6 6 -14 6t-13 -6l-22 -22q-5 -5 -5 -13.5t5 -13.5z" />
<glyph unicode="." horiz-adv-x="307" d="M64 0q-13 14 0 27l49 49q14 14 0 27l-49 49q-8 9 -4 19.5t13 13t18 -5.5l50 -49q13 -13 26 0l50 49q5 6 13 6t13 -6q14 -13 0 -27l-49 -49q-13 -13 0 -27l49 -49q8 -7 5 -17.5t-12.5 -13.5t-18.5 4l-50 49q-5 6 -13 6t-13 -6l-50 -49q-13 -13 -27 0z" />
<glyph unicode="/" horiz-adv-x="917" d="M64 0q-13 14 0 27l49 49q14 14 0 27l-49 49q-12 14 0 28q13 13 27 0l49 -50q5 -5 13.5 -5t13.5 5l99 99q13 13 0 27l-50 49q-13 13 0 27q14 13 27 0l50 -50q13 -13 26 0l99 99q5 5 5 13.5t-5 13.5l-49 49q-14 14 0 27q13 14 27 0l49 -49q13 -13 27 0l99 99q13 13 0 26 l-50 50q-8 8 -4 18.5t13.5 13t17.5 -5.5l49 -49q6 -5 14 -5t13 5l99 99q5 5 5 13t-5 14l-50 49q-5 6 -5 14t5 13q14 12 28 0l49 -49q5 -6 13 -6t14 6l49 49q5 5 13 5t14 -5q5 -5 5 -13t-5 -14l-49 -49q-6 -6 -6 -14t6 -13l49 -50q8 -8 4 -18.5t-13.5 -13t-17.5 5.5l-49 49 q-14 13 -27 0l-99 -99q-13 -13 0 -26l50 -50q13 -13 0 -27q-14 -12 -28 0l-49 49q-13 14 -27 0l-98 -98q-6 -5 -6 -13.5t6 -13.5l49 -49q12 -14 -0.5 -26.5t-26.5 -0.5l-49 49q-5 6 -13.5 6t-13.5 -6l-98 -98q-2 -2 -3.5 -5t-2 -6t0 -6t2 -5.5t3.5 -4.5l49 -49q12 -14 0 -28 q-6 -5 -14 -5t-13 5l-50 50q-5 5 -13 5t-13 -5l-99 -99q-5 -5 -5 -13t5 -14l49 -49q9 -8 5.5 -18t-13 -13t-19.5 4l-49 49q-5 6 -13.5 6t-13.5 -6l-49 -49q-14 -13 -27 0z" />
<glyph unicode="0" horiz-adv-x="765" d="M64 152q-5 6 -5 14t5 13l50 50q5 5 5 13t-5 14l-50 49q-5 5 -5 13t5 14l50 49q5 5 5 13t-5 14l-50 49q-5 5 -5 13.5t5 13.5l50 49q5 6 5 14t-5 13l-50 50q-14 14 2 27q14 12 25 -1l50 -49q13 -13 26 0l99 99q13 13 0 27l-49 49q-9 8 -5.5 18t13 13t19.5 -4l49 -49 q5 -6 13.5 -6t13.5 6l49 49q14 13 27 0l49 -49q14 -14 27 0l49 49q14 12 28 0q13 -13 0 -27l-50 -49q-13 -14 0 -27l99 -99q13 -13 27 0l49 49q7 8 17.5 5t13.5 -12.5t-4 -18.5l-49 -50q-14 -13 0 -27l49 -49q13 -14 0 -27l-49 -49q-14 -14 0 -27l49 -49q13 -14 0 -27 l-49 -49q-14 -14 0 -27l49 -50q13 -13 0 -27q-14 -13 -27 0l-49 50q-14 13 -27 0l-99 -99q-13 -13 0 -27l50 -49q13 -13 0 -27q-14 -12 -28 0l-49 49q-13 14 -27 0l-49 -49q-13 -13 -27 0l-49 49q-5 6 -13.5 6t-13.5 -6l-49 -49q-9 -8 -19.5 -4t-13 13t5.5 18l49 49 q13 14 0 27l-99 99q-13 13 -26 0l-50 -50q-13 -13 -27 0zM118 305l23 -23q5 -5 13 -5t13 5l23 23q5 5 5 13t-5 14l-23 22q-5 6 -13 6t-13 -6l-23 -22q-5 -6 -5 -14t5 -13zM118 457l23 -22q5 -5 13 -5t13 5l23 22q5 5 5 13.5t-5 13.5l-23 22q-5 6 -13 6t-13 -6l-23 -22 q-5 -5 -5 -13.5t5 -13.5zM195 229l98 -99q5 -5 13.5 -5t13.5 5l49 49q6 6 14 6t13 -6l49 -49q6 -5 14 -5t13 5l99 99q5 5 5 13t-5 14l-50 49q-5 5 -5 13t5 14l50 49q5 5 5 13t-5 14l-50 49q-5 5 -5 13.5t5 13.5l50 49q5 6 5 14t-5 13l-99 99q-5 5 -13 5t-14 -5l-49 -49 q-5 -6 -13 -6t-14 6l-49 49q-5 5 -13.5 5t-13.5 -5l-98 -99q-6 -5 -6 -13t6 -14l49 -49q5 -5 5 -13.5t-5 -13.5l-49 -49q-6 -6 -6 -14t6 -13l49 -49q5 -6 5 -14t-5 -13l-49 -49q-6 -6 -6 -14t6 -13zM293 305q-6 5 -6 13t6 14l49 49q6 5 6 13t-6 14l-49 49q-6 5 -6 13.5 t6 13.5q5 6 13.5 6t13.5 -6l49 -49q6 -5 14 -5t13 5l49 49q6 6 14 6t13 -6q6 -5 6 -13.5t-6 -13.5l-49 -49q-5 -6 -5 -14t5 -13l49 -49q6 -6 6 -14t-6 -13q-5 -6 -13 -6t-14 6l-49 49q-5 6 -13 6t-14 -6l-49 -49q-5 -6 -13.5 -6t-13.5 6zM347 76l22 -22q6 -6 14 -6t13 6 l23 22q5 6 5 14t-5 13l-23 23q-5 5 -13 5t-14 -5l-22 -23q-6 -5 -6 -13t6 -14zM347 686l22 -22q6 -6 14 -6t13 6l23 22q5 5 5 13t-5 14l-23 22q-5 5 -13 5t-14 -5l-22 -22q-6 -6 -6 -14t6 -13zM575 305l23 -23q5 -5 13 -5t14 5l22 23q5 5 5 13t-5 14l-22 22q-6 6 -14 6 t-13 -6l-23 -22q-5 -6 -5 -14t5 -13zM575 457l23 -22q5 -5 13 -5t14 5l22 22q5 5 5 13.5t-5 13.5l-22 22q-6 6 -14 6t-13 -6l-23 -22q-5 -5 -5 -13.5t5 -13.5z" />
<glyph unicode="1" horiz-adv-x="612" d="M64 457q-5 5 -5 13.5t5 13.5l49 49q14 14 0 27l-49 49q-12 14 1 27t26 0l49 -49q14 -13 27 0l99 98q13 14 0 27l-50 50q-13 13 0 27q14 13 27 0l49 -49q14 -14 27 0l50 49q13 13 27 0l49 -49q13 -14 27 0l49 49q13 13 27 0q13 -14 0 -27l-49 -50q-14 -13 0 -27l49 -49 q13 -13 0 -27l-49 -49q-14 -13 0 -27l49 -49q5 -5 5 -13.5t-5 -13.5l-49 -49q-14 -14 0 -27l49 -49q13 -14 0 -27l-49 -50q-14 -13 0 -27l49 -49q13 -13 0 -27l-49 -49q-6 -5 -6 -13.5t6 -13.5l49 -49q13 -14 0 -27q-5 -5 -13.5 -5t-13.5 5l-49 49q-14 14 -27 0l-49 -49 q-14 -12 -27 1t0 26l49 49q5 5 5 13.5t-5 13.5l-49 49q-14 14 0 27l49 49q13 14 0 27l-49 50q-14 13 0 27l49 49q13 13 0 27l-49 49q-6 5 -6 13.5t6 13.5l49 49q13 14 0 27l-99 99q-13 13 -27 0l-98 -99q-13 -13 0 -27l49 -49q9 -8 5.5 -18t-13 -13t-19.5 4l-49 49 q-13 14 -27 0l-49 -49q-14 -13 -27 0zM346 685l23 -22q13 -13 27 0l22 22q13 14 0 27l-22 23q-14 13 -27 0l-23 -23q-13 -13 0 -27zM423 152l22 -22q13 -13 27 0l22 22q14 14 0 27l-22 23q-14 13 -27 0l-22 -23q-14 -13 0 -27zM423 305l22 -23q13 -13 27 0l22 23q14 13 0 27 l-22 22q-14 13 -27 0l-22 -22q-14 -14 0 -27zM423 457l22 -22q13 -14 27 0l22 22q6 5 6 13.5t-6 13.5l-22 22q-14 14 -27 0l-22 -22q-6 -5 -6 -13.5t6 -13.5zM423 609l22 -22q13 -13 27 0l22 22q14 14 0 27l-22 23q-14 13 -27 0l-22 -23q-14 -13 0 -27z" />
<glyph unicode="2" horiz-adv-x="765" d="M64 27l49 49q6 6 6 14t-6 13l-49 49q-5 6 -5 14t5 13l49 49q6 6 6 14t-6 13l-49 50q-5 5 -5 13t5 14q5 5 13 5t14 -5l49 -50q5 -5 13.5 -5t13.5 5l99 99q5 5 5 13t-5 14l-50 49q-5 5 -5 13t5 14q6 5 14 5t13 -5l50 -49q5 -6 13 -6t13 6l50 49q5 5 13 5t14 -5l49 -49 q5 -6 13.5 -6t13.5 6l98 98q6 6 6 14t-6 13l-98 99q-5 5 -13.5 5t-13.5 -5l-49 -49q-6 -6 -14 -6t-13 6l-50 49q-5 5 -13 5t-13 -5l-50 -49q-5 -6 -13 -6t-14 6l-49 49q-5 5 -13.5 5t-13.5 -5l-49 -49q-8 -8 -18.5 -4.5t-13 12.5t4.5 18l49 50q6 5 6 13t-6 13l-49 50 q-5 5 -5 13t5 14q5 5 13 5t14 -5l49 -49q5 -6 13.5 -6t13.5 6l49 49q6 5 14 5t13 -5l50 -49q5 -6 13 -6t13 6l50 49q5 5 13 5t14 -5l49 -49q5 -6 13.5 -6t13.5 6l49 49q6 5 14 5t13 -5q5 -6 5 -14t-5 -13l-49 -50q-6 -5 -6 -13t6 -13l98 -99q6 -5 14 -5t13 5l49 49q8 8 19 5 t13.5 -12.5t-4.5 -18.5l-50 -50q-5 -5 -5 -13t5 -14l50 -49q5 -6 5 -14t-5 -13q-14 -12 -28 0l-49 49q-5 6 -13 6t-14 -6l-98 -98q-6 -6 -6 -14t6 -13l49 -49q8 -9 4.5 -19.5t-12.5 -13t-19 5.5l-49 49q-5 5 -13.5 5t-13.5 -5l-49 -49q-6 -6 -14 -6t-13 6l-50 49q-5 5 -13 5 t-13 -5l-99 -99q-5 -5 -5 -13t5 -14l99 -98q5 -6 13 -6t13 6l50 49q5 5 13 5t14 -5l49 -49q5 -6 13.5 -6t13.5 6l49 49q6 5 14 5t13 -5l49 -49q6 -6 14 -6t13 6l49 49q14 12 28 0q5 -5 5 -13t-5 -14l-50 -49q-5 -5 -5 -13t5 -14l50 -49q13 -14 -1 -27t-27 0l-49 49 q-5 5 -13 5t-14 -5l-49 -49q-5 -6 -13 -6t-14 6l-49 49q-5 5 -13.5 5t-13.5 -5l-49 -49q-6 -6 -14 -6t-13 6l-50 49q-5 5 -13 5t-13 -5l-50 -49q-5 -6 -13 -6t-14 6l-49 49q-5 5 -13.5 5t-13.5 -5l-49 -49q-13 -13 -26 0t-1 27zM118 152l22 -22q5 -6 13.5 -6t13.5 6l22 22 q6 6 6 14t-6 13l-22 23q-5 5 -13.5 5t-13.5 -5l-22 -23q-5 -5 -5 -13t5 -14zM194 76l22 -22q6 -6 14 -6t13 6l23 22q5 6 5 14t-5 13l-23 22q-5 6 -13 6t-14 -6l-22 -22q-5 -5 -5 -13t5 -14zM194 686l22 -23q6 -5 14 -5t13 5l23 23q5 5 5 13t-5 13l-23 23q-5 5 -13 5t-14 -5 l-22 -23q-5 -5 -5 -13t5 -13zM347 76l22 -22q5 -6 13 -6t14 6l22 22q5 6 5 14t-5 13l-22 22q-6 6 -14 6t-13 -6l-22 -22q-6 -5 -6 -13t6 -14zM347 381l22 -23q5 -5 13 -5t14 5l22 23q5 5 5 13t-5 14l-22 22q-6 6 -14 6t-13 -6l-22 -22q-6 -6 -6 -14t6 -13zM347 686l22 -23 q5 -5 13 -5t14 5l22 23q5 5 5 13t-5 13l-22 23q-6 5 -14 5t-13 -5l-22 -23q-6 -5 -6 -13t6 -13zM499 76l22 -22q6 -6 14 -6t13 6l22 22q4 4 5.5 9t0 10t-5.5 8l-22 22q-5 6 -13 6t-14 -6l-22 -22q-6 -5 -6 -13t6 -14z" />
<glyph unicode="3" d="M64 0q-5 6 -5 14t5 13l49 49q6 6 6 14t-6 13l-49 49q-13 15 2 28q14 10 25 -1l49 -49q6 -5 14 -5t13 5l49 49q6 6 14 6t13 -6l49 -49q14 -12 28 0l49 49q5 6 13 6t14 -6l49 -49q5 -5 13 -5t14 5l98 98q6 6 6 14t-6 14l-98 98q-6 6 -14 6t-13 -6l-49 -49q-6 -6 -14 -6 t-13 6q-6 5 -6 13t6 14l49 49q6 5 6 13t-6 14l-49 49q-6 5 -6 13.5t6 13.5q5 6 13 6t14 -6l49 -49q5 -5 13 -5t14 5l98 98q6 6 6 14t-6 13l-98 99q-6 5 -14 5t-13 -5l-49 -49q-6 -6 -14 -6t-13 6l-49 49q-14 12 -28 0l-98 -99q-5 -5 -5 -13t5 -14l49 -49q9 -8 5.5 -18 t-13 -13t-19.5 4l-49 49q-5 6 -13 6t-14 -6l-49 -49q-5 -5 -13 -5t-14 5q-5 5 -5 13.5t5 13.5l49 49q6 6 6 14t-6 13l-49 50q-14 14 2 27q14 12 25 -1l49 -49q6 -5 14 -5t13 5l99 99q5 5 5 13t-5 14l-50 49q-5 5 -5 13.5t5 13.5q6 5 14 5t13 -5l49 -49q6 -6 14 -6t14 6 l49 49q5 5 13 5t14 -5l49 -49q5 -6 13 -6t14 6l49 49q8 8 19 4.5t13.5 -13t-5.5 -18.5l-49 -49q-5 -6 -5 -14t5 -13l98 -99q6 -5 14 -5t13 5l50 49q5 6 13 6t13 -6q6 -5 6 -13t-6 -13l-49 -50q-5 -5 -5 -13t5 -14l49 -49q9 -8 5.5 -18t-13 -13t-18.5 4l-50 49q-5 6 -13 6 t-14 -6l-98 -98q-5 -6 -5 -14t5 -13l98 -99q6 -5 14 -5t13 5l50 50q8 8 18.5 4t13 -13.5t-5.5 -17.5l-49 -49q-12 -14 0 -28l49 -49q8 -7 5 -17.5t-12.5 -13.5t-18.5 4l-50 50q-13 13 -27 0l-98 -99q-13 -13 0 -27l49 -49q14 -13 0 -27q-5 -5 -13.5 -5t-13.5 5l-49 49 q-14 14 -27 0l-49 -49q-14 -13 -27 0l-49 49q-14 14 -28 0l-49 -49q-13 -13 -27 0l-49 49q-13 14 -27 0l-49 -49q-13 -13 -27 0zM194 76l22 -22q6 -6 14 -6t13 6l23 22q5 6 5 14t-5 13l-23 23q-5 5 -13 5t-14 -5l-22 -23q-5 -5 -5 -13t5 -14zM346 76l23 -22q5 -6 13 -6t14 6 l22 22q6 6 6 14t-6 13l-22 23q-6 5 -14 5t-13 -5l-23 -23q-5 -5 -5 -13t5 -14zM346 686l23 -22q5 -6 13 -6t14 6l22 22q6 5 6 13t-6 14l-22 22q-6 5 -14 5t-13 -5l-23 -22q-5 -6 -5 -14t5 -13z" />
<glyph unicode="4" horiz-adv-x="917" d="M64 152q-12 14 0 28l50 49q5 5 5 13t-5 14l-50 49q-5 5 -5 13t5 14q6 5 14 5t13 -5l50 -50q5 -5 13 -5t14 5l98 99q6 5 6 13.5t-6 13.5l-49 49q-12 14 1 27t26 0l49 -49q5 -5 13 -5t14 5l98 99q6 5 6 13t-6 13l-49 50q-8 8 -4 18.5t13.5 13t17.5 -5.5l49 -49q14 -13 27 0 l99 99q13 13 0 27l-49 49q-8 8 -4.5 18.5t12.5 13t18 -4.5l50 -49q13 -14 27 0l49 49q14 13 27 0t0 -27l-49 -49q-14 -14 0 -27l49 -50q13 -13 0 -26l-49 -50q-6 -5 -6 -13t6 -13l49 -50q13 -13 0 -27l-49 -49q-6 -5 -6 -13.5t6 -13.5l98 -99q14 -13 27 0l49 50q9 8 19.5 4 t13 -13t-5.5 -18l-49 -49q-13 -14 0 -27l49 -49q13 -13 0 -27t-27 -1l-49 50q-5 5 -13 5t-14 -5l-98 -99q-6 -5 -6 -13t6 -14l49 -49q5 -5 5 -13t-5 -14q-5 -5 -13.5 -5t-13.5 5l-49 49q-6 6 -14 6t-13 -6l-50 -49q-8 -8 -18.5 -4t-13 13.5t5.5 17.5l49 49q13 14 0 27 l-99 99q-13 13 -27 0l-49 -50q-13 -13 -27 0l-49 50q-14 13 -27 0l-49 -50q-14 -13 -27 0l-49 50q-14 13 -27 0l-50 -50q-13 -13 -27 0zM194 229l23 -23q5 -5 13 -5t14 5l22 23q6 5 6 13t-6 14l-22 22q-6 5 -14 5t-13 -5l-23 -22q-5 -6 -5 -14t5 -13zM271 305l22 -23 q5 -5 13 -5t14 5l22 23q6 5 6 13t-6 14l-22 22q-6 6 -14 6t-13 -6l-22 -22q-6 -6 -6 -14t6 -13zM347 229l22 -23q6 -5 14 -5t13 5l22 23q6 5 6 13t-6 14l-22 22q-5 5 -13 5t-14 -5l-22 -22q-5 -6 -5 -14t5 -13zM347 381l98 -99q6 -5 14 -5t13 5l99 99q5 5 5 13.5t-5 13.5 l-99 98q-3 4 -8 5.5t-10 0t-9 -5.5l-98 -98q-5 -5 -5 -13.5t5 -13.5zM499 229l23 -23q5 -5 13 -5t13 5l23 23q5 5 5 13t-5 14l-23 22q-5 5 -13 5t-13 -5l-23 -22q-5 -6 -5 -14t5 -13zM499 534l23 -23q5 -5 13 -5t13 5l23 23q5 5 5 13t-5 13l-23 23q-5 5 -13 5t-13 -5 l-23 -23q-5 -5 -5 -13t5 -13zM576 152l22 -22q5 -5 13 -5t14 5l22 22q12 14 0 28l-22 22q-6 5 -14 5t-13 -5l-22 -22q-6 -6 -6 -14t6 -14zM576 305l22 -23q5 -5 13 -5t14 5l22 23q5 5 5 13t-5 14l-22 22q-6 6 -14 6t-13 -6l-22 -22q-6 -6 -6 -14t6 -13zM576 457l22 -22 q5 -5 13 -5t14 5l22 22q5 6 5 14t-5 13l-22 22q-6 6 -14 6t-13 -6l-22 -22q-6 -5 -6 -13t6 -14zM576 610l22 -23q5 -5 13 -5t14 5l22 23q5 5 5 13t-5 13l-22 23q-6 5 -14 5t-13 -5l-22 -23q-6 -5 -6 -13t6 -13zM652 229l22 -23q5 -5 13.5 -5t13.5 5l22 23q6 5 6 13t-6 14 l-22 22q-5 5 -13.5 5t-13.5 -5l-22 -22q-6 -6 -6 -14t6 -13z" />
<glyph unicode="5" horiz-adv-x="765" d="M64 0q-5 6 -5 14t5 13l49 49q6 6 6 14t-6 13l-49 49q-13 15 2 28q14 10 25 -1l50 -49q5 -5 13 -5t13 5l50 49q5 6 13 6t14 -6l49 -49q5 -5 13.5 -5t13.5 5l49 49q6 6 14 6t13 -6l49 -49q6 -5 14 -5t13 5l99 99q5 5 5 13t-5 14l-99 98q-5 6 -13 6t-14 -6l-49 -49 q-5 -6 -13 -6t-14 6l-49 49q-5 6 -13.5 6t-13.5 -6l-49 -49q-6 -6 -14 -6t-13 6l-50 49q-5 6 -13 6t-13 -6l-50 -49q-8 -9 -18 -5.5t-13 13t4 19.5l49 49q6 5 6 13t-6 14l-49 49q-5 5 -5 13.5t5 13.5l49 49q6 6 6 14t-6 13l-49 50q-5 5 -5 13t5 13l49 50q6 5 6 13t-6 14 l-49 49q-5 5 -5 13.5t5 13.5q6 5 14 5t13 -5l50 -49q5 -6 13 -6t13 6l50 49q5 5 13 5t14 -5l49 -49q5 -6 13.5 -6t13.5 6l49 49q6 5 14 5t13 -5l49 -49q6 -6 14 -6t13 6l49 49q6 5 14 5t13 -5l50 -49q5 -6 13 -6t14 6l49 49q5 5 13 5t14 -5q5 -5 5 -13.5t-5 -13.5l-50 -49 q-5 -6 -5 -14t5 -13l50 -50q8 -8 4 -18.5t-13.5 -13t-17.5 5.5l-49 49q-6 5 -14 5t-13 -5l-50 -49q-5 -6 -13 -6t-14 6l-49 49q-5 5 -13 5t-14 -5l-49 -49q-5 -6 -13 -6t-14 6l-49 49q-5 5 -13.5 5t-13.5 -5l-99 -99q-5 -5 -5 -13t5 -14l99 -98q5 -5 13.5 -5t13.5 5l49 49 q6 6 14 6t13 -6l49 -49q6 -5 14 -5t13 5l49 49q6 6 14 6t13 -6q6 -5 6 -13.5t-6 -13.5l-49 -49q-5 -6 -5 -14t5 -13l99 -99q5 -5 13 -5t14 5l49 50q5 5 13 5t14 -5q5 -6 5 -14t-5 -13l-50 -49q-5 -6 -5 -14t5 -13l50 -50q5 -5 5 -13t-5 -14q-6 -5 -14 -5t-13 5l-49 50 q-6 5 -14 5t-13 -5l-99 -99q-5 -5 -5 -13t5 -14l49 -49q9 -8 5.5 -18t-13 -13t-19.5 4l-49 49q-13 14 -27 0l-49 -49q-13 -13 -27 0l-49 49q-5 6 -13.5 6t-13.5 -6l-49 -49q-14 -13 -27 0l-50 49q-5 6 -13 6t-13 -6l-50 -49q-13 -13 -27 0zM118 457l23 -22q5 -5 13 -5t13 5 l23 22q5 5 5 13.5t-5 13.5l-23 22q-5 6 -13 6t-13 -6l-23 -22q-5 -5 -5 -13.5t5 -13.5zM118 610l23 -23q5 -5 13 -5t13 5l23 23q5 5 5 13t-5 13l-23 23q-5 5 -13 5t-13 -5l-23 -23q-5 -5 -5 -13t5 -13zM194 76l23 -22q5 -6 13 -6t14 6l22 22q5 6 5 14t-5 13l-22 23 q-6 5 -14 5t-13 -5l-23 -23q-5 -5 -5 -13t5 -14zM194 381l23 -22q5 -6 13 -6t14 6l22 22q5 5 5 13t-5 14l-22 22q-6 6 -14 6t-13 -6l-23 -22q-5 -6 -5 -14t5 -13zM194 686l23 -22q5 -6 13 -6t14 6l22 22q5 5 5 13t-5 14l-22 22q-6 5 -14 5t-13 -5l-23 -22q-5 -6 -5 -14 t5 -13zM347 76l22 -22q6 -6 14 -6t13 6l22 22q6 6 6 14t-6 13l-22 23q-5 5 -13 5t-14 -5l-22 -23q-6 -5 -6 -13t6 -14zM347 381l22 -22q6 -6 14 -6t13 6l22 22q6 5 6 13t-6 14l-22 22q-5 6 -13 6t-14 -6l-22 -22q-6 -6 -6 -14t6 -13zM347 686l22 -22q6 -6 14 -6t13 6l22 22 q6 5 6 13t-6 14l-22 22q-5 5 -13 5t-14 -5l-22 -22q-6 -6 -6 -14t6 -13zM499 686l22 -22q6 -6 14 -6t13 6l23 22q5 5 5 13t-5 14l-23 22q-5 5 -13 5t-14 -5l-22 -22q-5 -6 -5 -14t5 -13z" />
<glyph unicode="6" horiz-adv-x="765" d="M64 179l49 50q14 13 0 27l-49 49q-5 5 -5 13.5t5 13.5l49 49q14 14 0 27l-49 49q-13 14 0 27l49 49q14 14 0 28l-49 49q-13 13 0 27q14 13 27 0l50 -50q13 -13 26 0l99 99q13 13 0 27l-49 49q-6 5 -6 13.5t6 13.5q13 14 27 0l49 -49q5 -5 13.5 -5t13.5 5l49 49 q14 14 27 0l49 -49q14 -13 27 0l49 49q8 8 19 4.5t13.5 -13t-4.5 -18.5l-50 -49q-13 -14 0 -27l50 -49q13 -14 -1 -27t-27 0l-49 49q-13 14 -27 0l-49 -49q-13 -14 -27 0l-49 49q-5 6 -13.5 6t-13.5 -6l-98 -98q-14 -14 0 -28l98 -98q13 -13 27 0l49 49q14 14 27 0l49 -49 q14 -13 27 0l49 49q13 13 27 0t1 -27l-50 -49q-5 -5 -5 -13t5 -14l99 -98q5 -6 13 -6t14 6l49 49q5 5 13 5t14 -5q5 -5 5 -13.5t-5 -13.5l-50 -49q-5 -6 -5 -14t5 -13l50 -50q8 -8 4 -18.5t-13.5 -13t-17.5 5.5l-49 49q-14 13 -27 0l-99 -99q-13 -13 0 -27l50 -49 q13 -13 0 -27q-14 -12 -28 0l-49 49q-13 14 -27 0l-49 -49q-13 -13 -27 0l-49 49q-5 6 -13.5 6t-13.5 -6l-49 -49q-9 -8 -19.5 -4t-13 13t5.5 18l49 49q13 14 0 27l-99 99q-13 13 -26 0l-50 -49q-7 -8 -17.5 -5t-13.5 12.5t4 18.5zM118 305l23 -22q5 -6 13 -6t13 6l23 22 q5 5 5 13.5t-5 13.5l-23 22q-5 6 -13 6t-13 -6l-23 -22q-5 -5 -5 -13.5t5 -13.5zM118 457l23 -22q13 -13 26 0l23 22q13 14 0 27l-23 23q-13 13 -26 0l-23 -23q-13 -13 0 -27zM195 229l98 -99q5 -5 13.5 -5t13.5 5l49 49q14 14 27 0l49 -49q14 -13 27 0l99 99q13 13 0 27 l-99 98q-13 14 -27 0l-49 -49q-13 -14 -27 0l-49 49q-5 6 -13.5 6t-13.5 -6l-98 -98q-14 -14 0 -27zM195 381l22 -22q13 -14 27 0l22 22q13 14 0 27l-22 23q-14 13 -27 0l-22 -23q-14 -13 0 -27zM347 76l22 -22q14 -13 27 0l22 22q14 14 0 27l-22 23q-13 13 -27 0l-22 -23 q-14 -13 0 -27zM347 381l22 -22q14 -14 27 0l22 22q14 14 0 27l-22 23q-13 13 -27 0l-22 -23q-14 -13 0 -27zM347 686l22 -22q14 -14 27 0l22 22q14 13 0 27l-22 22q-13 14 -27 0l-22 -22q-14 -14 0 -27z" />
<glyph unicode="7" d="M64 636l49 50q6 5 6 13t-6 14l-49 49q-5 5 -5 13.5t5 13.5q6 5 14 5t13 -5l49 -49q6 -6 14 -6t13 6l49 49q14 12 28 0l49 -49q5 -6 13 -6t14 6l49 49q5 5 13 5t14 -5l49 -49q5 -6 13 -6t14 6l49 49q6 5 14 5t13 -5l50 -49q5 -6 13 -6t13 6l50 49q12 12 26 0q13 -14 0 -27 l-49 -49q-5 -6 -5 -14t5 -13l49 -50q6 -5 6 -13t-6 -13l-49 -50q-5 -5 -5 -13t5 -14l49 -49q9 -8 5.5 -18t-13 -13t-18.5 4l-50 49q-5 6 -13 6t-13 -6l-99 -98q-13 -14 0 -27l49 -49q14 -14 0 -27q-13 -14 -27 0l-49 49q-14 14 -27 0l-99 -98q-13 -14 0 -27l50 -50 q13 -13 0 -27l-50 -49q-13 -13 0 -27l50 -49q13 -13 0 -27q-14 -13 -27 0l-49 49q-14 14 -27 0l-49 -49q-14 -12 -28 0q-13 14 0 27l50 49q13 14 0 27l-50 49q-13 14 0 27l50 50q13 13 0 27l-50 49q-13 13 0 27q14 12 28 0l49 -50q13 -13 27 0l98 99q14 13 0 27l-49 49 q-13 13 0 27t27 0l49 -49q13 -13 27 0l98 98q14 14 0 27l-98 99q-14 13 -27 0l-49 -49q-14 -14 -27 0l-49 49q-14 13 -27 0l-49 -49q-14 -14 -28 0l-49 49q-13 13 -27 0l-49 -49q-7 -8 -17.5 -5t-13.5 12.5t4 18.5zM194 686l22 -22q6 -6 14 -6t14 6l22 22q5 5 5 13t-5 14 l-22 22q-14 12 -28 0l-22 -22q-5 -6 -5 -14t5 -13zM270 152l23 -22q5 -5 13 -5t14 5l22 22q5 6 5 14t-5 13l-22 23q-6 5 -14 5t-13 -5l-23 -23q-5 -5 -5 -13t5 -14zM346 686l23 -22q5 -6 13 -6t14 6l22 22q6 5 6 13t-6 14l-22 22q-6 5 -14 5t-13 -5l-23 -22q-5 -6 -5 -14 t5 -13zM499 686l22 -22q6 -6 14 -6t13 6l22 22q6 5 6 13t-6 14l-22 22q-5 5 -13 5t-14 -5l-22 -22q-5 -6 -5 -14t5 -13zM575 610l23 -23q5 -5 13 -5t13 5l23 23q5 5 5 13t-5 13l-23 23q-5 5 -13 5t-13 -5l-23 -23q-5 -5 -5 -13t5 -13z" />
<glyph unicode="8" d="M64 180l49 49q13 13 0 27l-49 49q-9 8 -5.5 18t13 13t19.5 -4l49 -49q5 -6 13.5 -6t13.5 6l98 98q6 5 6 13.5t-6 13.5l-98 99q-5 5 -13.5 5t-13.5 -5l-49 -50q-9 -8 -19.5 -4t-13 13t5.5 18l49 50q5 5 5 13t-5 13l-49 50q-9 8 -5.5 18t13 13t19.5 -4l49 -49q5 -6 13.5 -6 t13.5 6l98 98q6 5 6 13.5t-6 13.5l-49 49q-5 6 -5 14t5 13q6 5 14 5t13 -5l49 -49q6 -6 14 -6t13 6l49 49q14 12 28 0l49 -49q5 -6 13 -6t14 6l49 49q5 5 13 5t14 -5q5 -5 5 -13t-5 -14l-50 -49q-5 -5 -5 -13.5t5 -13.5l99 -98q5 -6 13 -6t14 6l49 49q9 8 19.5 4t13 -13 t-5.5 -18l-49 -50q-5 -5 -5 -13t5 -13l49 -50q9 -8 5.5 -18t-13 -13t-19.5 4l-49 50q-6 5 -14 5t-13 -5l-99 -99q-5 -5 -5 -13.5t5 -13.5l99 -98q5 -6 13 -6t14 6l49 49q9 8 19.5 4t13 -13t-5.5 -18l-49 -49q-5 -6 -5 -14t5 -13l49 -49q13 -13 0 -27t-27 -1l-49 50 q-14 13 -27 0l-99 -99q-13 -13 0 -27l50 -49q13 -13 0 -27q-14 -13 -27 0l-49 50q-14 13 -27 0l-49 -50q-14 -12 -28 0l-49 50q-13 13 -27 0l-49 -50q-13 -13 -27 0q-13 14 0 27l49 49q14 14 0 27l-98 99q-5 5 -13.5 5t-13.5 -5l-49 -50q-14 -13 -27 1t0 27zM194 229l98 -99 q14 -13 27 0l49 50q14 12 28 0l49 -50q13 -13 27 0l98 99q14 13 0 27l-98 98q-14 14 -27 0l-49 -49q-14 -12 -28 0l-49 49q-13 14 -27 0l-98 -98q-14 -14 0 -27zM194 534l98 -99q14 -13 27 0l49 49q14 14 28 0l49 -49q13 -13 27 0l98 99q6 5 6 13t-6 13l-98 99q-14 13 -27 0 l-49 -49q-14 -14 -28 0l-49 49q-13 13 -27 0l-98 -99q-6 -5 -6 -13t6 -13zM346 76l22 -22q14 -12 28 0l22 22q13 14 0 27l-22 23q-14 12 -28 0l-22 -23q-13 -13 0 -27zM346 381l22 -22q14 -12 28 0l22 22q5 5 5 13.5t-5 13.5l-22 22q-14 14 -28 0l-22 -22q-5 -5 -5 -13.5 t5 -13.5zM346 686l22 -22q14 -14 28 0l22 22q5 5 5 13.5t-5 13.5l-22 22q-14 12 -28 0l-22 -22q-5 -5 -5 -13.5t5 -13.5z" />
<glyph unicode="9" horiz-adv-x="765" d="M64 457q-5 5 -5 13.5t5 13.5l50 49q13 14 0 27l-50 50q-14 14 2 27q14 12 25 -1l49 -49q6 -5 14 -5t13 5l99 99q5 5 5 13t-5 14l-50 49q-5 5 -5 13.5t5 13.5q14 12 28 0l49 -49q5 -6 13 -6t14 6l49 49q5 5 13 5t14 -5l49 -49q5 -6 13.5 -6t13.5 6l49 49q15 13 28 -2 q12 -13 -1 -25l-49 -49q-5 -6 -5 -14t5 -13l99 -99q5 -5 13 -5t13 5l50 49q7 8 17.5 5t13.5 -12.5t-4 -18.5l-49 -50q-6 -5 -6 -13t6 -14l49 -49q5 -5 5 -13.5t-5 -13.5l-49 -49q-6 -6 -6 -14t6 -13l49 -49q5 -6 5 -14t-5 -13l-49 -49q-6 -6 -6 -14t6 -14l49 -49q5 -5 5 -13 t-5 -14q-6 -5 -14 -5t-13 5l-50 50q-5 5 -13 5t-13 -5l-99 -99q-5 -5 -5 -13t5 -14l49 -49q6 -5 6 -13.5t-6 -13.5q-5 -6 -13 -6t-14 6l-49 49q-5 5 -13.5 5t-13.5 -5l-49 -49q-6 -6 -14 -6t-13 6l-49 49q-6 5 -14 5t-13 -5l-49 -49q-8 -8 -19 -4.5t-13.5 13t4.5 18.5l50 49 q5 6 5 14t-5 13l-50 49q-13 14 1 27t27 0l49 -49q5 -6 13 -6t14 6l49 49q5 6 13 6t14 -6l49 -49q5 -6 13.5 -6t13.5 6l98 98q6 6 6 14t-6 14l-98 98q-5 5 -13.5 5t-13.5 -5l-49 -49q-6 -6 -14 -6t-13 6l-49 49q-6 5 -14 5t-13 -5l-49 -49q-13 -13 -27 0t-1 27l50 49 q13 13 0 27l-99 98q-13 14 -27 0l-49 -49q-13 -13 -27 0zM194 533l99 -98q13 -14 27 0l49 49q13 14 27 0l49 -49q5 -6 13.5 -6t13.5 6l98 98q14 14 0 27l-98 99q-14 13 -27 0l-49 -49q-14 -14 -27 0l-49 49q-14 13 -27 0l-99 -99q-13 -13 0 -27zM347 76l22 -22q13 -14 27 0 l22 22q14 14 0 27l-22 22q-14 14 -27 0l-22 -22q-14 -13 0 -27zM347 381l22 -23q13 -13 27 0l22 23q14 13 0 27l-22 22q-14 14 -27 0l-22 -22q-14 -14 0 -27zM347 686l22 -23q13 -13 27 0l22 23q14 13 0 27l-22 22q-14 13 -27 0l-22 -22q-14 -14 0 -27zM499 381l22 -23 q14 -13 27 0l22 23q14 13 0 27l-22 22q-13 14 -27 0l-22 -22q-13 -14 0 -27zM575 305l23 -23q13 -13 26 0l23 23q13 13 0 27l-23 22q-13 13 -26 0l-23 -22q-13 -14 0 -27zM575 457l23 -22q5 -6 13 -6t13 6l23 22q13 13 0 27l-23 22q-5 6 -13 6t-13 -6l-23 -22q-13 -14 0 -27 z" />
<glyph unicode=":" horiz-adv-x="307" d="M64 0q-6 5 -6 13.5t6 13.5l49 49q14 14 0 27l-49 49q-14 14 0 27q13 14 27 0l49 -49q13 -14 27 0l49 49q5 6 13.5 6t13.5 -6q14 -13 0 -27l-49 -49q-13 -13 0 -27l49 -49q6 -5 6 -13.5t-6 -13.5q-5 -6 -13.5 -6t-13.5 6l-49 49q-14 13 -27 0l-49 -49q-14 -14 -27 0z M64 305q-14 13 0 27l49 49q13 13 0 27l-49 49q-6 5 -6 13.5t6 13.5q13 14 27 0l49 -49q13 -14 27 0l49 49q5 6 13.5 6t13.5 -6q6 -5 6 -13.5t-6 -13.5l-49 -49q-14 -14 0 -27l49 -49q14 -14 0 -27q-5 -6 -13.5 -6t-13.5 6l-49 49q-14 13 -27 0l-49 -49q-14 -14 -27 0z" />
<glyph unicode=";" horiz-adv-x="459" d="M64 -126l201 202q6 6 6 14t-6 13l-49 50q-14 14 2 27q14 12 25 -1l49 -49q6 -6 14 -6t13 6l50 49q5 6 13 6t13 -6q6 -5 6 -13t-6 -13l-49 -50q-5 -5 -5 -13t5 -14l49 -49q9 -8 5.5 -18t-13 -13t-18.5 4l-50 50q-13 13 -27 0l-202 -202q-8 -9 -18 -5.5t-12.5 13t4.5 18.5z M214 305q-6 5 -6 13t6 14l49 49q5 5 5 13t-5 14l-49 49q-6 5 -6 13.5t6 13.5q5 6 13 6t14 -6l49 -49q5 -6 13 -6t14 6l49 49q5 6 13.5 6t13.5 -6q6 -5 6 -13.5t-6 -13.5l-49 -49q-6 -6 -6 -14t6 -13l49 -49q6 -6 6 -14t-6 -13q-5 -6 -13.5 -6t-13.5 6l-49 49q-6 5 -14 5 t-13 -5l-49 -49q-6 -6 -14 -6t-13 6z" />
<glyph unicode="&#x3c;" horiz-adv-x="460" d="M64 305q-5 5 -5 13t5 14l50 49q5 5 5 13.5t-5 13.5l-50 49q-8 9 -4 19.5t13 13t18 -5.5l49 -49q6 -5 14 -5t13 5l99 99q5 5 5 13t-5 13l-49 50q-6 5 -6 13t6 13q5 6 13 6t14 -6l49 -49q5 -5 13 -5t14 5l49 49q7 9 17.5 5.5t13.5 -13t-4 -18.5l-49 -50q-6 -5 -6 -13t6 -13 l49 -50q5 -5 5 -13t-5 -14q-6 -5 -14 -5t-13 5l-49 49q-6 6 -14 6t-13 -6l-99 -98q-5 -5 -5 -13.5t5 -13.5l99 -99q5 -5 13 -5t14 5l49 50q5 5 13 5t14 -5q5 -6 5 -14t-5 -13l-49 -49q-2 -2 -3.5 -5t-2 -6t0 -6t2 -5.5t3.5 -4.5l49 -49q12 -14 0 -28q-6 -5 -14 -5t-13 5 l-49 50q-6 5 -14 5t-13 -5l-49 -50q-14 -13 -27 1t0 27l49 49q13 13 0 27l-99 98q-13 14 -27 0l-49 -49q-13 -13 -27 0z" />
<glyph unicode="=" horiz-adv-x="459" d="M64 152q-8 8 -4.5 18.5t12.5 13t18 -5.5l202 -202q6 -5 14 -5t13 5l50 50q8 8 18.5 4t13 -13t-5.5 -18l-49 -49q-5 -6 -5 -14t5 -13l49 -50q2 -2 3.5 -4t2 -4.5t0.5 -4.5t-0.5 -4.5t-2 -4.5t-3.5 -4q-5 -6 -13 -6t-13 6l-50 49q-5 6 -13 6t-14 -6l-49 -49 q-7 -9 -17.5 -5.5t-13.5 13t4 18.5l49 50q14 13 0 27z" />
<glyph unicode="&#x3e;" horiz-adv-x="460" d="M64 152q-12 14 0 28l49 49q6 5 6 13t-6 14l-49 49q-5 5 -5 13t5 14q6 5 14 5t13 -5l49 -50q6 -5 14 -5t13 5l99 99q5 5 5 13.5t-5 13.5l-99 98q-5 6 -13 6t-14 -6l-49 -49q-5 -5 -13 -5t-14 5q-5 6 -5 14t5 13l49 50q6 5 6 13t-6 13l-49 50q-14 14 2 27q14 12 25 -1 l49 -49q6 -5 14 -5t13 5l49 49q4 4 9 5.5t10 0t8 -5.5q6 -5 6 -13t-6 -13l-49 -50q-5 -5 -5 -13t5 -13l99 -99q5 -5 13 -5t14 5l49 49q8 9 18 5.5t13 -13t-4 -19.5l-50 -49q-5 -5 -5 -13.5t5 -13.5l50 -49q5 -6 5 -14t-5 -13q-6 -5 -14 -5t-13 5l-49 49q-6 6 -14 6t-13 -6 l-99 -98q-5 -6 -5 -14t5 -13l49 -49q13 -13 0 -27t-27 -1l-49 50q-13 13 -27 0l-49 -50q-13 -13 -27 0z" />
<glyph unicode="?" d="M64 636l49 50q14 13 0 27l-49 49q-13 14 0 27q14 13 27 0l49 -49q14 -14 27 0l49 49q14 13 27 0l49 -49q14 -14 28 0l49 49q13 13 27 0l49 -49q13 -14 27 0l49 49q6 6 14 5.5t13 -6t6 -12.5t-6 -14l-49 -49q-13 -14 0 -27l98 -99q14 -13 27 0l50 49q5 6 13 6t13 -6 q6 -5 6 -13t-6 -13l-49 -50q-13 -13 0 -26l49 -50q8 -7 5 -17.5t-12.5 -13.5t-18.5 4l-50 49q-13 14 -27 0l-98 -98q-13 -14 0 -27l49 -49q13 -13 -0.5 -26.5t-26.5 -0.5l-49 49q-14 14 -27 0l-49 -49q-14 -13 -27 0l-49 49q-14 14 -28 0l-49 -49q-13 -13 -27 0q-13 13 0 27 l50 49q5 5 5 13.5t-5 13.5l-50 49q-8 9 -4 19.5t13 13t18 -5.5l49 -49q14 -12 28 0l49 49q13 14 27 0l49 -49q13 -13 27 0l98 99q6 5 6 13t-6 13l-98 99q-14 13 -27 0l-49 -49q-14 -14 -27 0l-49 49q-14 12 -28 0l-49 -49q-13 -14 -27 0l-49 49q-13 13 -27 0l-49 -49 q-7 -8 -17.5 -5t-13.5 12.5t4 18.5zM194 686l22 -22q14 -14 27 0l23 22q13 13 0 27l-23 22q-13 13 -27 0l-22 -22q-13 -14 0 -27zM216 0q-13 14 0 27l50 49q13 14 0 27l-50 49q-12 14 0 28q14 13 27 0l49 -50q14 -12 28 0l49 50q13 13 27 0q12 -14 0 -28l-50 -49 q-13 -13 0 -27l50 -49q13 -13 0 -27q-14 -13 -27 0l-49 49q-14 14 -28 0l-49 -49q-13 -13 -27 0zM346 381l23 -22q13 -14 27 0l22 22q6 5 6 13.5t-6 13.5l-22 22q-14 14 -27 0l-23 -22q-5 -5 -5 -13.5t5 -13.5zM346 686l23 -22q13 -14 27 0l22 22q14 13 0 27l-22 22 q-14 13 -27 0l-23 -22q-13 -14 0 -27z" />
<glyph unicode="@" horiz-adv-x="1069" d="M64 103l49 49q5 6 5 14t-5 13l-49 50q-6 5 -6 13t6 14l49 49q5 5 5 13t-5 14l-49 49q-6 5 -6 13t6 14l49 49q5 6 5 14t-5 13l-49 50q-6 5 -6 13t6 13q5 6 13 6t13 -6l50 -49q5 -5 13 -5t14 5l98 99q6 5 6 13t-6 13l-49 50q-5 5 -5 13t5 14q6 5 14 5t13 -5l49 -49 q6 -6 14 -6t13 6l99 98q5 6 5 14t-5 13l-50 49q-5 6 -5 14t5 13q6 5 14 5t13 -5l50 -49q3 -4 8 -5.5t10 0t9 5.5l49 49q5 5 13 5t14 -5l49 -49q5 -6 13 -6t14 6l49 49q5 5 13.5 5t13.5 -5l49 -49q6 -6 14 -6t13 6l50 49q5 5 11 5.5t10.5 -2.5t7.5 -8t2.5 -11t-5.5 -11 l-49 -49q-5 -5 -5 -13t5 -14l99 -98q5 -6 13 -6t14 6l49 49q5 5 13.5 5t13.5 -5q5 -6 5 -14t-5 -13l-49 -50q-6 -5 -6 -13t6 -13l49 -50q5 -5 5 -13t-5 -13l-49 -50q-6 -5 -6 -13t6 -14l49 -49q5 -6 5 -14t-5 -13l-49 -49q-6 -6 -6 -14t6 -13l49 -49q13 -15 -2 -28 q-13 -12 -25 1l-49 49q-6 5 -14 5t-13 -5l-99 -99q-5 -5 -5 -13t5 -14l49 -49q8 -7 5 -17.5t-12.5 -13.5t-18.5 4l-50 50q-5 5 -13 5t-14 -5l-22 -23q-5 -5 -5 -13t5 -14l49 -49q9 -8 5.5 -18t-13 -13t-19.5 4l-49 49q-5 6 -13.5 6t-13.5 -6l-49 -49q-6 -5 -14 -5t-13 5 l-49 49q-6 6 -14 6t-13 -6l-49 -49q-9 -8 -19.5 -4t-13 13t5.5 18l49 49q5 6 5 14t-5 13l-99 99q-5 5 -13 5t-14 -5l-49 -50q-5 -5 -13 -5t-14 5q-5 6 -5 14t5 13l50 50q5 5 5 13t-5 14l-50 49q-5 5 -5 13t5 14l50 49q5 5 5 13t-5 14l-50 49q-8 9 -4 19.5t13 13t18 -5.5 l49 -49q6 -5 14 -5t13 5l99 99q5 5 5 13t-5 13l-49 50q-6 5 -6 13t6 13q5 6 13 6t14 -6l49 -49q5 -5 13 -5t14 5l49 49q5 6 13 6t14 -6l49 -49q5 -5 13.5 -5t13.5 5l49 49q6 6 14 6t13 -6q6 -5 6 -13t-6 -13l-49 -50q-5 -5 -5 -13t5 -13l49 -50q6 -5 6 -13t-6 -14l-49 -49 q-5 -6 -5 -14t5 -13l49 -49q6 -6 6 -14t-6 -13l-49 -49q-5 -6 -5 -14t5 -13l22 -23q6 -5 14 -5t13 5l99 99q5 5 5 13t-5 14l-49 49q-6 5 -6 13t6 14l49 49q5 6 5 14t-5 13l-49 50q-6 5 -6 13t6 13l49 50q5 5 5 13t-5 13l-99 99q-5 5 -13 5t-14 -5l-49 -49q-5 -6 -13.5 -6 t-13.5 6l-49 49q-6 5 -14 5t-13 -5l-49 -49q-6 -6 -14 -6t-13 6l-49 49q-6 5 -14 5t-13 -5l-99 -99q-5 -5 -5 -13t5 -13l49 -50q6 -5 6 -13t-6 -13q-5 -6 -13 -6t-14 6l-49 49q-5 5 -13 5t-14 -5l-98 -99q-6 -5 -6 -13t6 -14l49 -49q5 -6 5 -14t-5 -13l-49 -49q-6 -6 -6 -14 t6 -13l49 -49q5 -6 5 -14t-5 -13l-49 -50q-6 -5 -6 -13t6 -14l22 -22l14 -13q6 -6 13 -14l49 -49q6 -6 14 -6t13 6l49 49q6 6 14 6t13 -6q14 -13 7 -20l-56 -56q-5 -5 -5 -13t5 -14l99 -98q5 -6 13 -6t14 6l49 49q5 5 13 5t14 -5l49 -49q5 -6 13 -6t14 6l49 49q5 5 13.5 5 t13.5 -5l49 -49q6 -6 14 -6t13 6l202 201q5 5 13.5 5t13.5 -5t5 -13t-5 -14l-202 -201q-5 -6 -5 -14t5 -13l49 -50q6 -5 6 -13t-6 -13q-5 -6 -13 -6t-13 6l-50 49q-5 5 -13 5t-14 -5l-49 -49q-5 -6 -13.5 -6t-13.5 6l-49 49q-6 5 -14 5t-13 -5l-49 -49q-6 -6 -14 -6t-13 6 l-49 49q-6 5 -14 5t-13 -5l-50 -49q-11 -13 -25 -1q-16 13 -2 27l50 50q5 5 5 13t-5 14l-99 98q-5 5 -13 5t-14 -5l-49 -49q-8 -9 -18 -5.5t-13 13t4 19.5l49 49q6 6 6 14t-6 13l-22 22l-13 14q-6 6 -14 13l-49 50q-6 5 -14 5t-13 -5l-50 -50q-14 -14 -27 2q-12 14 1 25z M118 229l22 -23q5 -5 13 -5t14 5l22 23q5 5 5 13t-5 14l-22 22q-6 5 -14 5t-13 -5l-22 -22q-6 -6 -6 -14t6 -13zM118 381l22 -22q5 -6 13 -6t14 6l22 22q5 5 5 13t-5 14l-22 22q-6 6 -14 6t-13 -6l-22 -22q-6 -6 -6 -14t6 -13zM346 305l22 -23q6 -5 14 -5t13 5l23 23 q5 5 5 13t-5 14l-23 22q-5 6 -13 6t-14 -6l-22 -22q-5 -6 -5 -14t5 -13zM422 229l99 -99q5 -5 13 -5t14 5l98 99q6 5 6 13t-6 14l-49 49q-5 5 -5 13t5 14l49 49q6 5 6 13t-6 14l-98 98q-6 6 -14 6t-13 -6l-99 -98q-5 -6 -5 -14t5 -13l50 -49q5 -6 5 -14t-5 -13l-50 -49 q-5 -6 -5 -14t5 -13zM498 -125q-5 -6 -5 -14t5 -13l23 -23q5 -5 13 -5t14 5l22 23q6 5 6 13t-6 14l-22 22q-6 5 -14 5t-13 -5zM498 762l23 -22q5 -6 13 -6t14 6l22 22q6 6 6 14t-6 13l-22 22q-6 6 -14 6t-13 -6l-23 -22q-5 -5 -5 -13t5 -14zM575 76l22 -22q5 -6 13 -6t14 6 l22 22q4 4 5.5 9t0 10t-5.5 8l-22 23q-6 5 -14 5t-13 -5l-22 -23q-6 -5 -6 -13t6 -14zM575 534l22 -23q5 -5 13 -5t14 5l22 23q6 5 6 13t-6 13l-22 23q-6 5 -14 5t-13 -5l-22 -23q-6 -5 -6 -13t6 -13zM651 -125q-5 -6 -5 -14t5 -13l22 -23q5 -5 13.5 -5t13.5 5l22 23 q6 5 6 13t-6 14l-22 22q-5 5 -13.5 5t-13.5 -5zM651 152l22 -22q5 -5 13.5 -5t13.5 5l22 22q6 6 6 14t-6 13l-22 23q-5 5 -13.5 5t-13.5 -5l-22 -23q-5 -5 -5 -13t5 -14zM651 305l22 -23q5 -5 13.5 -5t13.5 5l22 23q6 5 6 13t-6 14l-22 22q-5 6 -13.5 6t-13.5 -6l-22 -22 q-5 -6 -5 -14t5 -13zM651 457l22 -22q5 -5 13.5 -5t13.5 5l22 22q4 4 5.5 9t0 10t-5.5 8l-22 22q-5 6 -13.5 6t-13.5 -6l-22 -22q-5 -5 -5 -13t5 -14zM651 762l22 -22q5 -6 13.5 -6t13.5 6l22 22q6 6 6 14t-6 13l-22 22q-5 6 -13.5 6t-13.5 -6l-22 -22q-5 -5 -5 -13t5 -14z M880 381l22 -22q5 -6 13 -6t14 6l22 22q5 5 5 13t-5 14l-22 22q-6 6 -14 6t-13 -6l-22 -22q-6 -6 -6 -14t6 -13zM880 534l22 -23q5 -5 13 -5t14 5l22 23q5 5 5 13t-5 13l-22 23q-6 5 -14 5t-13 -5l-22 -23q-6 -5 -6 -13t6 -13z" />
<glyph unicode="A" horiz-adv-x="765" d="M64 0q-5 5 -5 13t5 14l50 49q5 5 5 13.5t-5 13.5l-23 22q-13 14 -27 27q-5 6 -5 14t5 13q29 30 50 49q5 6 5 14t-5 13l-50 50q-5 5 -5 13t5 14q14 13 27 27l23 22q5 5 5 13t-5 14l-23 22l-8 8t-10.5 11t-8.5 8q-5 5 -5 13.5t5 13.5q4 3 8.5 8t10.5 11l8 8l23 22q5 6 5 14 t-5 13l-50 49q-13 15 2 28q14 10 25 -1l49 -49q6 -5 14 -5t13 5l23 22q13 14 27 27q13 14 27 27l22 22q5 6 5 14t-5 13l-49 50q-9 8 -5.5 18t13 13t19.5 -4l49 -49q5 -6 13 -6t14 6l22 22l8 8t11 10.5t8 8.5q5 5 13.5 5t13.5 -5q3 -4 8 -8.5t11 -10.5l8 -8l22 -22 q6 -6 14 -6t13 6l49 49q9 8 19.5 4t13 -13t-5.5 -18l-49 -50q-5 -5 -5 -13t5 -14l22 -22q14 -13 27 -27q14 -13 27 -27l23 -22q5 -5 13 -5t14 5l49 49q8 9 18 5.5t13 -13t-4 -19.5l-49 -49q-6 -5 -6 -13t6 -14l22 -22l8 -8t10.5 -11t8.5 -8q5 -5 5 -13.5t-5 -13.5 q-4 -3 -8.5 -8t-10.5 -11l-8 -8l-22 -22q-6 -6 -6 -14t6 -13l22 -22q13 -14 27 -27q5 -6 5 -14t-5 -13q-30 -29 -49 -50q-6 -5 -6 -13t6 -14l49 -49q5 -5 5 -13t-5 -14q-14 -13 -27 -27l-22 -22q-6 -5 -6 -13.5t6 -13.5l49 -49q5 -6 5 -14t-5 -13q-6 -5 -14 -5t-13 5l-49 49 q-6 6 -14 6t-13 -6l-50 -49q-5 -5 -13 -5t-14 5q-5 5 -5 13t5 14l50 49q5 5 5 13.5t-5 13.5l-23 22q-13 14 -27 27q-5 6 -5 14t5 13q29 30 50 49q13 14 0 27l-99 99q-13 13 -27 0l-22 -22l-27 -27q-5 -6 -13.5 -6t-13.5 6l-27 27l-22 22q-14 13 -27 0l-99 -99q-13 -13 0 -27 q21 -20 50 -49q13 -13 0 -27q-14 -13 -27 -27l-23 -22q-5 -5 -5 -13.5t5 -13.5l50 -49q13 -14 0 -27q-14 -13 -27 0l-50 49q-13 14 -27 0l-49 -49q-13 -13 -27 0zM118 152l22 -22q6 -5 14 -5t13 5l23 22q5 6 5 14t-5 13l-23 23q-5 5 -13 5t-14 -5l-22 -23q-5 -5 -5 -13 t5 -14zM118 305l22 -23q6 -5 14 -5t13 5l23 23q5 5 5 13t-5 14l-23 22q-5 5 -13 5t-14 -5l-22 -22q-5 -6 -5 -14t5 -13zM118 457l22 -22q6 -6 14 -6t13 6l23 22q5 5 5 13.5t-5 13.5l-23 22q-5 6 -13 6t-14 -6l-22 -22q-5 -5 -5 -13.5t5 -13.5zM194 381l23 -22q5 -6 13 -6 t14 6l22 22q5 5 5 13t-5 14l-22 22q-6 5 -14 5t-13 -5l-23 -22q-5 -6 -5 -14t5 -13zM194 533l23 -22q6 -6 16.5 -17t19.5 -20.5t18 -16.5l22 -22q5 -6 13 -6t14 6l49 49q5 5 13.5 5t13.5 -5l49 -49q6 -6 14 -6t13 6l22 22q8 7 17.5 16.5t20 20.5t16.5 17l23 22q5 6 5 14 t-5 13l-23 23q-19 19 -27 26q-13 14 -27 27l-22 23q-5 5 -13 5t-14 -5l-22 -23l-27 -27q-5 -5 -13.5 -5t-13.5 5l-27 27l-22 23q-6 5 -14 5t-13 -5l-22 -23q-14 -13 -27 -27q-8 -7 -27 -26l-23 -23q-5 -5 -5 -13t5 -14zM347 381l22 -22q5 -6 13.5 -6t13.5 6l22 22q6 5 6 13 t-6 14l-22 22q-5 5 -13.5 5t-13.5 -5l-22 -22q-6 -6 -6 -14t6 -13zM347 685l22 -22q5 -5 13.5 -5t13.5 5l22 22q6 6 6 14t-6 13l-22 23q-5 5 -13.5 5t-13.5 -5l-22 -23q-6 -5 -6 -13t6 -14zM499 381l22 -22q6 -6 14 -6t13 6l23 22q5 5 5 13t-5 14l-23 22q-5 5 -13 5t-14 -5 l-22 -22q-5 -6 -5 -14t5 -13zM575 152l23 -22q5 -5 13 -5t14 5l22 22q5 6 5 14t-5 13l-22 23q-6 5 -14 5t-13 -5l-23 -23q-5 -5 -5 -13t5 -14zM575 305l23 -23q5 -5 13 -5t14 5l22 23q5 5 5 13t-5 14l-22 22q-6 5 -14 5t-13 -5l-23 -22q-5 -6 -5 -14t5 -13zM575 457l23 -22 q5 -6 13 -6t14 6l22 22q5 5 5 13.5t-5 13.5l-22 22q-6 6 -14 6t-13 -6l-23 -22q-5 -5 -5 -13.5t5 -13.5z" />
<glyph unicode="B" d="M64 27l49 49q5 6 5 14t-5 13l-49 49q-6 6 -6 14t6 13l49 49q12 14 0 28l-49 49q-6 5 -6 13t6 14l49 49q5 5 5 13t-5 14l-49 49q-6 5 -6 13.5t6 13.5l49 49q5 6 5 14t-5 13l-49 50q-6 5 -6 13t6 13l49 50q5 5 5 13t-5 14l-49 49q-9 8 -5.5 18t13 13t19.5 -4l49 -49 q6 -6 14 -6t13 6l49 49q6 5 14 5t13 -5l49 -49q6 -6 14 -6t13 6l50 49q5 5 13 5t14 -5l49 -49q5 -6 13 -6t14 6l49 49q5 5 13 5t14 -5q5 -5 5 -13.5t-5 -13.5l-49 -49q-6 -6 -6 -14t6 -13l98 -99q6 -5 14 -5t13 5l50 49q5 6 13 6t13 -6q6 -5 6 -13t-6 -13l-49 -50 q-5 -5 -5 -13t5 -14l49 -49q9 -8 5.5 -18t-13 -13t-18.5 4l-50 49q-5 6 -13 6t-14 -6l-98 -98q-6 -6 -6 -14t6 -13l98 -99q6 -5 14 -5t13 5l50 50q8 8 18.5 4t13 -13.5t-5.5 -17.5l-49 -49q-12 -14 0 -28l49 -49q8 -7 5 -17.5t-12.5 -13.5t-18.5 4l-50 50q-13 13 -27 0 l-98 -99q-14 -13 0 -27l49 -49q13 -13 0 -27q-14 -14 -27 0l-49 49q-14 14 -27 0l-49 -49q-14 -14 -27 0l-50 49q-13 14 -27 0l-49 -49q-13 -14 -27 0l-49 49q-13 14 -27 0l-49 -49q-9 -9 -19.5 -5t-13 13.5t5.5 18.5zM118 152l22 -22q6 -5 14 -5t13 5l22 22q6 6 6 14t-6 13 l-22 23q-5 5 -13 5t-14 -5l-22 -23q-6 -5 -6 -13t6 -14zM118 305l22 -23q6 -5 14 -5t13 5l22 23q6 5 6 13t-6 14l-22 22q-5 6 -13 6t-14 -6l-22 -22q-6 -6 -6 -14t6 -13zM118 457l22 -22q6 -5 14 -5t13 5l22 22q6 5 6 13.5t-6 13.5l-22 22q-5 6 -13 6t-14 -6l-22 -22 q-6 -5 -6 -13.5t6 -13.5zM118 610l22 -23q6 -5 14 -5t13 5l22 23q6 5 6 13t-6 13l-22 23q-5 5 -13 5t-14 -5l-22 -23q-6 -5 -6 -13t6 -13zM194 76l22 -22q6 -6 14 -6t13 6l23 22q5 6 5 14t-5 13l-23 23q-5 5 -13 5t-14 -5l-22 -23q-6 -5 -6 -13t6 -14zM194 228l98 -98 q6 -5 14 -5t13 5l50 49q5 6 13 6t14 -6l49 -49q5 -5 13 -5t14 5l98 98q6 6 6 14t-6 14l-98 98q-6 6 -14 6t-13 -6l-49 -49q-6 -6 -14 -6t-13 6l-50 49q-5 6 -13 6t-14 -6l-98 -98q-6 -6 -6 -14t6 -14zM194 381l22 -22q6 -6 14 -6t13 6l23 22q5 5 5 13t-5 14l-23 22 q-5 6 -13 6t-14 -6l-22 -22q-6 -6 -6 -14t6 -13zM194 533l98 -98q6 -5 14 -5t13 5l50 49q5 6 13 6t14 -6l49 -49q5 -5 13 -5t14 5l98 98q6 6 6 14t-6 13l-98 99q-6 5 -14 5t-13 -5l-49 -49q-6 -6 -14 -6t-13 6l-50 49q-5 5 -13 5t-14 -5l-98 -99q-6 -5 -6 -13t6 -14z M194 686l22 -22q6 -6 14 -6t13 6l23 22q5 5 5 13t-5 14l-23 22q-5 5 -13 5t-14 -5l-22 -22q-6 -6 -6 -14t6 -13zM346 76l23 -22q5 -6 13 -6t14 6l22 22q5 6 5 14t-5 13l-22 23q-6 5 -14 5t-13 -5l-23 -23q-5 -5 -5 -13t5 -14zM346 381l23 -22q5 -6 13 -6t14 6l22 22 q5 5 5 13t-5 14l-22 22q-6 6 -14 6t-13 -6l-23 -22q-5 -6 -5 -14t5 -13zM346 686l23 -22q5 -6 13 -6t14 6l22 22q5 5 5 13t-5 14l-22 22q-6 5 -14 5t-13 -5l-23 -22q-5 -6 -5 -14t5 -13z" />
<glyph unicode="C" d="M64 179l49 49q12 14 0 28l-49 49q-6 5 -6 13t6 14l49 49q5 5 5 13t-5 14l-49 49q-6 5 -6 13.5t6 13.5l49 49q5 6 5 14t-5 13l-49 50q-6 5 -6 13t6 13q5 6 13 6t14 -6l49 -49q5 -5 13 -5t14 5l98 99q6 5 6 13t-6 14l-49 49q-5 5 -5 13.5t5 13.5t13 5t14 -5l49 -49 q6 -6 14 -6t13 6l50 49q5 5 13 5t13 -5l50 -49q5 -6 13 -6t13 6l50 49q5 5 13 5t14 -5q5 -5 5 -13.5t-5 -13.5l-49 -49q-6 -6 -6 -14t6 -13l98 -99q6 -5 14 -5t13 5l49 49q8 8 18.5 4.5t13 -12.5t-4.5 -18l-49 -50q-6 -5 -6 -13t6 -14l49 -49q5 -5 5 -13.5t-5 -13.5t-13 -5 t-14 5l-49 49q-5 6 -13 6t-14 -6l-49 -49q-9 -8 -19.5 -4t-13 13t5.5 18l49 49q5 6 5 14t-5 13l-99 99q-5 5 -13 5t-13 -5l-50 -49q-5 -6 -13 -6t-13 6l-50 49q-5 5 -13 5t-14 -5l-98 -99q-6 -5 -6 -13t6 -14l49 -49q5 -5 5 -13.5t-5 -13.5l-49 -49q-6 -6 -6 -14t6 -13 l49 -49q5 -6 5 -14t-5 -13l-49 -49q-6 -6 -6 -14t6 -14l98 -98q6 -5 14 -5t13 5l50 49q5 6 13 6t13 -6l50 -49q5 -5 13 -5t13 5l99 98q12 14 0 28l-49 49q-9 8 -5.5 18t13 13t19.5 -4l49 -50q14 -13 27 0l49 50q14 13 27 0q13 -14 0 -27l-49 -49q-14 -14 0 -28l49 -49 q13 -13 0 -27q-13 -13 -27 0l-49 50q-13 13 -27 0l-98 -99q-14 -13 0 -27l49 -49q13 -13 0 -27q-14 -14 -27 0l-50 49q-5 6 -13 6t-13 -6l-50 -49q-5 -6 -13 -6t-13 6l-50 49q-13 14 -27 0l-49 -49q-14 -14 -27 0t0 27l49 49q14 14 0 27l-98 99q-14 13 -27 0l-49 -50 q-9 -8 -19.5 -4t-13 13t5.5 18zM117 305l23 -23q5 -5 13 -5t14 5l22 23q6 5 6 13t-6 14l-22 22q-6 6 -14 6t-13 -6l-23 -22q-5 -6 -5 -14t5 -13zM117 457l23 -22q5 -5 13 -5t14 5l22 22q6 5 6 13.5t-6 13.5l-22 22q-6 6 -14 6t-13 -6l-23 -22q-5 -5 -5 -13.5t5 -13.5z M346 76l23 -22q5 -6 13 -6t13 6l23 22q5 6 5 14t-5 13l-23 23q-5 5 -13 5t-13 -5l-23 -23q-5 -5 -5 -13t5 -14zM346 686l23 -22q5 -6 13 -6t13 6l23 22q5 5 5 13t-5 14l-23 22q-5 5 -13 5t-13 -5l-23 -22q-5 -6 -5 -14t5 -13z" />
<glyph unicode="D" horiz-adv-x="765" d="M64 27l49 49q14 14 0 27l-49 49q-13 14 0 27l49 49q14 14 0 28l-49 49q-13 13 0 27l49 49q14 13 0 27l-49 49q-5 5 -5 13.5t5 13.5l49 49q14 14 0 27l-49 50q-13 13 0 26l49 50q14 13 0 27l-49 49q-5 5 -5 13.5t5 13.5q13 13 27 0l49 -49q14 -14 27 0l50 49q13 13 26 0 l50 -49q5 -6 13 -6t13 6l50 49q13 13 27 0l49 -49q14 -14 27 0l49 49q14 13 27 0q5 -5 5 -13.5t-5 -13.5l-49 -49q-14 -14 0 -27l98 -99q14 -13 27 0l50 49q7 8 17.5 5t13.5 -12.5t-4 -18.5l-50 -50q-13 -13 0 -27l50 -49q13 -14 0 -27l-50 -49q-13 -14 0 -27l50 -49 q13 -14 0 -27l-50 -49q-12 -14 0 -28l50 -49q13 -13 0 -27q-14 -13 -27 0l-50 50q-13 13 -27 0l-98 -99q-14 -13 0 -27l49 -49q13 -13 0 -27t-27 0l-49 49q-13 14 -27 0l-49 -49q-14 -14 -27 0l-50 49q-5 6 -13 6t-13 -6l-50 -49q-5 -6 -13 -6t-13 6l-50 49q-13 14 -27 0 l-49 -49q-14 -14 -27 0t0 27zM118 152l22 -22q14 -13 27 0l22 22q14 14 0 27l-22 23q-13 13 -27 0l-22 -23q-13 -13 0 -27zM118 305l22 -23q14 -13 27 0l22 23q14 13 0 27l-22 22q-13 14 -27 0l-22 -22q-13 -14 0 -27zM118 457l22 -22q14 -13 27 0l22 22q6 5 6 13.5t-6 13.5 l-22 22q-13 14 -27 0l-22 -22q-5 -5 -5 -13.5t5 -13.5zM118 610l22 -23q14 -13 27 0l22 23q6 5 6 13t-6 13l-22 23q-13 13 -27 0l-22 -23q-13 -13 0 -26zM194 76l23 -22q5 -6 13 -6t13 6l23 22q13 14 0 27l-23 23q-13 13 -26 0l-23 -23q-13 -13 0 -27zM194 228l99 -98 q13 -13 26 0l50 49q13 14 27 0l49 -49q14 -13 27 0l99 98q12 14 0 28l-50 49q-13 13 0 27l50 49q13 13 0 27l-50 49q-13 13 0 27l50 49q13 14 0 27l-99 99q-13 13 -27 0l-49 -49q-14 -14 -27 0l-50 49q-13 13 -26 0l-99 -99q-13 -13 0 -27l49 -49q6 -5 6 -13.5t-6 -13.5 l-49 -49q-13 -14 0 -27l49 -49q14 -14 0 -27l-49 -49q-12 -14 0 -28zM194 686l23 -22q5 -6 13 -6t13 6l23 22q13 13 0 27l-23 22q-13 13 -26 0l-23 -22q-13 -14 0 -27zM347 76l22 -22q13 -14 27 0l22 22q13 14 0 27l-22 23q-14 13 -27 0l-22 -23q-14 -13 0 -27zM347 686 l22 -22q13 -14 27 0l22 22q13 13 0 27l-22 22q-14 13 -27 0l-22 -22q-14 -14 0 -27zM575 305l22 -23q14 -13 27 0l23 23q13 13 0 27l-23 22q-13 14 -27 0l-22 -22q-13 -14 0 -27zM575 457l22 -22q14 -13 27 0l23 22q13 13 0 27l-23 22q-13 14 -27 0l-22 -22q-13 -14 0 -27z " />
<glyph unicode="E" horiz-adv-x="765" d="M64 152q-5 6 -5 14t5 13l49 49q6 6 6 14t-6 14l-49 49q-5 5 -5 13t5 14l49 49q6 5 6 13t-6 14l-49 49q-5 5 -5 13.5t5 13.5l49 49q6 6 6 14t-6 13l-49 50q-8 8 -4.5 18t13 12.5t18.5 -4.5l49 -49q6 -5 14 -5t13 5l99 99q5 5 5 13t-5 14l-49 49q-13 11 -1 25q14 14 27 2 l50 -49q5 -6 13 -6t13 6l50 49q13 13 27 0l49 -49q14 -14 27 0l49 49q14 13 27 0l49 -49q14 -14 27 0l50 49q13 13 27 0q13 -13 0 -27l-50 -49q-13 -14 0 -27l50 -50q8 -8 4 -18.5t-13.5 -13t-17.5 5.5l-50 49q-5 5 -13 5t-14 -5l-49 -49q-5 -6 -13 -6t-14 6l-49 49 q-5 5 -13 5t-14 -5l-49 -49q-6 -6 -14 -6t-13 6l-50 49q-5 5 -13 5t-13 -5l-99 -99q-5 -5 -5 -13t5 -14l99 -98q5 -6 13 -6t13 6l50 49q5 6 13 6t14 -6l49 -49q6 -6 14 -6t13 6l49 49q9 9 19 5t12.5 -13.5t-4.5 -18.5l-49 -49q-6 -6 -6 -14t6 -13l49 -49q8 -9 4.5 -19.5 t-12.5 -13t-19 5.5l-49 49q-5 5 -13 5t-14 -5l-49 -49q-6 -6 -14 -6t-13 6l-50 49q-5 5 -13 5t-13 -5l-99 -98q-12 -14 0 -28l99 -98q5 -5 13 -5t13 5l50 49q5 6 13 6t14 -6l49 -49q6 -5 14 -5t13 5l49 49q6 6 14 6t13 -6l49 -49q6 -5 14 -5t13 5l50 49q8 9 18 5.5t13 -13 t-4 -19.5l-50 -49q-13 -13 0 -27l50 -49q8 -8 4 -18.5t-13 -13.5t-18 5l-50 49q-13 14 -27 0l-49 -49q-13 -14 -27 0l-49 49q-13 14 -27 0l-49 -49q-14 -14 -27 0l-50 49q-5 6 -13 6t-13 -6l-50 -49q-5 -6 -13 -6t-13 6q-6 5 -6 13.5t6 13.5l49 49q13 14 0 27l-99 99 q-13 13 -27 0l-49 -50q-14 -13 -27 0zM118 305l22 -23q6 -5 14 -5t13 5l22 23q6 5 6 13t-6 14l-22 22q-5 5 -13 5t-14 -5l-22 -22q-5 -6 -5 -14t5 -13zM118 457l22 -22q6 -6 14 -6t13 6l22 22q6 5 6 13.5t-6 13.5l-22 22q-5 6 -13 6t-14 -6l-22 -22q-5 -5 -5 -13.5t5 -13.5z M194 381l23 -23q5 -5 13 -5t13 5l23 23q5 5 5 13t-5 14l-23 22q-5 6 -13 6t-13 -6l-23 -22q-5 -6 -5 -14t5 -13zM347 76l22 -22q5 -6 13 -6t14 6l22 22q5 6 5 14t-5 13l-22 22q-6 6 -14 6t-13 -6l-22 -22q-6 -5 -6 -13t6 -14zM347 381l22 -23q5 -5 13 -5t14 5l22 23 q5 5 5 13t-5 14l-22 22q-6 6 -14 6t-13 -6l-22 -22q-6 -6 -6 -14t6 -13zM347 686l22 -23q5 -5 13 -5t14 5l22 23q5 5 5 13t-5 14l-22 22q-6 5 -14 5t-13 -5l-22 -22q-6 -6 -6 -14t6 -13zM499 76l22 -22q6 -6 14 -6t13 6l23 22q5 6 5 14t-5 13l-23 22q-5 6 -13 6t-14 -6 l-22 -22q-6 -5 -6 -13t6 -14zM499 686l22 -23q6 -5 14 -5t13 5l23 23q5 5 5 13t-5 14l-23 22q-5 5 -13 5t-14 -5l-22 -22q-6 -6 -6 -14t6 -13z" />
<glyph unicode="F" d="M64 0q-14 13 0 27l49 49q13 14 0 27l-49 49q-14 14 0 27l49 49q13 14 0 27l-49 50q-14 13 0 27l49 49q13 13 0 27l-49 49q-14 13 0 27l49 49q13 14 0 27l-49 50q-6 5 -6 13t6 13q5 6 13 6t13 -6l50 -49q13 -13 27 0l98 99q6 5 6 13t-6 13l-49 50q-14 13 0 27q14 13 27 0 l49 -49q14 -14 27 0l49 49q14 13 27 0l49 -49q14 -14 28 0l49 49q13 13 27 0l49 -49q13 -14 27 0l49 49q8 8 18.5 4t13.5 -13t-5 -18l-49 -50q-13 -13 0 -26l49 -50q6 -5 6 -13t-6 -13q-5 -6 -13.5 -6t-13.5 6l-49 49q-14 13 -27 0l-49 -49q-14 -14 -27 0l-49 49 q-14 12 -28 0l-49 -49q-13 -14 -27 0l-49 49q-13 13 -27 0l-98 -99q-14 -13 0 -27l98 -98q14 -14 27 0l49 49q14 13 27 0l49 -49q14 -14 28 0l49 49q13 13 27 0q13 -14 0 -27l-50 -49q-13 -14 0 -27l50 -49q8 -9 4 -19.5t-13 -13t-18 5.5l-49 49q-14 12 -28 0l-49 -49 q-13 -14 -27 0l-49 49q-13 13 -27 0l-98 -99q-14 -13 0 -27l49 -49q13 -13 0 -27l-49 -49q-14 -13 0 -27l49 -49q8 -9 4 -19.5t-13 -13t-18 5.5l-49 49q-14 13 -27 0l-50 -49q-5 -6 -13 -6t-13 6zM118 152l22 -22q13 -14 27 0l22 22q13 14 0 27l-22 23q-14 13 -27 0l-22 -23 q-14 -13 0 -27zM118 305l22 -23q13 -13 27 0l22 23q13 13 0 27l-22 22q-14 13 -27 0l-22 -22q-14 -14 0 -27zM118 457l22 -22q13 -14 27 0l22 22q13 13 0 27l-22 22q-14 14 -27 0l-22 -22q-14 -14 0 -27zM194 381l22 -23q5 -5 13.5 -5t13.5 5l22 23q14 13 0 27l-22 22 q-5 6 -13.5 6t-13.5 -6l-22 -22q-14 -14 0 -27zM346 381l22 -23q14 -13 27 0l23 23q13 13 0 27l-23 22q-13 14 -27 0l-22 -22q-13 -14 0 -27zM346 686l22 -23q14 -13 27 0l23 23q13 13 0 26l-23 23q-13 13 -27 0l-22 -23q-13 -13 0 -26zM498 686l23 -23q13 -13 27 0l22 23 q6 5 6 13t-6 13l-22 23q-14 13 -27 0l-23 -23q-13 -13 0 -26z" />
<glyph unicode="G" d="M64 152q-5 6 -5 14t5 13l49 49q6 6 6 14t-6 14l-49 49q-5 5 -5 13t5 14l49 49q6 5 6 13t-6 14l-49 49q-5 5 -5 13.5t5 13.5l49 49q6 6 6 14t-6 13l-49 50q-14 14 2 27q14 12 25 -1l49 -49q6 -5 14 -5t13 5l99 99q5 5 5 13t-5 14l-50 49q-5 5 -5 13.5t5 13.5q6 5 14 5 t13 -5l49 -49q6 -6 14 -6t14 6l49 49q5 5 13 5t14 -5l49 -49q5 -6 13 -6t14 6l49 49q5 5 13.5 5t13.5 -5l49 -49q6 -6 14 -6t13 6l50 49q12 12 26 0q13 -14 0 -27l-49 -49q-13 -14 0 -27l49 -50q6 -5 6 -13t-6 -13q-5 -6 -13 -6t-13 6l-50 49q-13 13 -27 0l-49 -49 q-5 -6 -13.5 -6t-13.5 6l-49 49q-14 13 -27 0l-49 -49q-14 -14 -27 0l-49 49q-14 12 -28 0l-98 -99q-13 -13 0 -27l49 -49q6 -5 6 -13.5t-6 -13.5l-49 -49q-13 -14 0 -27l49 -49q14 -14 0 -27l-49 -49q-12 -14 0 -28l98 -98q14 -14 28 0l49 49q13 14 27 0l49 -49 q13 -14 27 0l98 98q14 14 0 28l-98 98q-14 13 -27 0l-49 -49q-14 -14 -27 0q-14 13 0 27l49 49q14 13 0 27l-49 49q-6 5 -6 13.5t6 13.5q13 14 27 0l49 -49q13 -14 27 0l49 49q5 6 13.5 6t13.5 -6q6 -5 6 -13.5t-6 -13.5l-49 -49q-13 -14 0 -27l98 -99q14 -13 27 0l50 50 q8 8 18.5 4t13 -13.5t-5.5 -17.5l-49 -49q-12 -14 0 -28l49 -49q6 -5 6 -13t-6 -14l-49 -49q-5 -5 -5 -13t5 -14l49 -49q6 -5 6 -13.5t-6 -13.5q-5 -6 -13 -6t-13 6l-50 49q-5 5 -13 5t-14 -5l-49 -49q-5 -6 -13.5 -6t-13.5 6l-49 49q-6 5 -14 5t-13 -5l-49 -49 q-6 -6 -14 -6t-13 6l-49 49q-14 12 -28 0l-49 -49q-8 -9 -18 -5t-13 13.5t4 18.5l50 49q13 14 0 27l-99 99q-13 13 -27 0l-49 -50q-13 -13 -27 0zM118 305l22 -23q6 -5 14 -5t13 5l23 23q5 5 5 13t-5 14l-23 22q-5 5 -13 5t-14 -5l-22 -22q-6 -6 -6 -14t6 -13zM118 457 l22 -22q6 -6 14 -6t13 6l23 22q5 5 5 13.5t-5 13.5l-23 22q-5 6 -13 6t-14 -6l-22 -22q-6 -5 -6 -13.5t6 -13.5zM346 76l23 -22q5 -6 13 -6t14 6l22 22q6 6 6 14t-6 13l-22 22q-6 6 -14 6t-13 -6l-23 -22q-5 -5 -5 -13t5 -14zM346 686l23 -23q5 -5 13 -5t14 5l22 23 q6 5 6 13t-6 14l-22 22q-6 5 -14 5t-13 -5l-23 -22q-5 -6 -5 -14t5 -13zM499 76l22 -22q5 -6 13.5 -6t13.5 6l22 22q6 6 6 14t-6 13l-22 22q-5 6 -13.5 6t-13.5 -6l-22 -22q-5 -5 -5 -13t5 -14zM499 686l22 -23q5 -5 13.5 -5t13.5 5l22 23q6 5 6 13t-6 14l-22 22 q-5 5 -13.5 5t-13.5 -5l-22 -22q-5 -6 -5 -14t5 -13zM575 152l22 -22q6 -6 14 -6t13 6l23 22q5 6 5 14t-5 13l-23 23q-5 5 -13 5t-14 -5l-22 -23q-5 -5 -5 -13t5 -14z" />
<glyph unicode="H" d="M64 0q-6 5 -6 13t6 14l49 49q5 6 5 14t-5 13l-49 49q-6 6 -6 14t6 13l49 49q5 6 5 14t-5 13l-49 50q-6 5 -6 13t6 14l49 49q5 5 5 13t-5 14l-49 49q-6 5 -6 13t6 14l49 49q5 6 5 14t-5 13l-49 50q-6 5 -6 13t6 13l49 50q5 5 5 13t-5 13l-49 50q-8 7 -5 17.5t12.5 13.5 t18.5 -4l50 -49q5 -6 13 -6t14 6l49 49q5 5 13.5 5t13.5 -5q5 -6 5 -14t-5 -13l-49 -50q-6 -5 -6 -13t6 -13l49 -50q5 -5 5 -13t-5 -13l-49 -50q-6 -5 -6 -13t6 -14l98 -98q6 -6 14 -6t13 6l49 49q6 5 14 5t13 -5l49 -49q6 -6 14 -6t14 6l98 98q6 6 6 14t-6 13l-49 50 q-6 5 -6 13t6 13l49 50q6 5 6 13t-6 13l-49 50q-9 8 -5.5 18t13 13t19.5 -4l49 -49q13 -14 27 0l49 49q8 8 18.5 4t13.5 -13t-5 -18l-49 -50q-13 -13 0 -26l49 -50q6 -5 6 -13t-6 -13l-49 -50q-13 -13 0 -27l49 -49q14 -14 0 -27l-49 -49q-13 -14 0 -27l49 -49q14 -14 0 -27 l-49 -50q-13 -13 0 -27l49 -49q14 -13 0 -27l-49 -49q-13 -13 0 -27l49 -49q14 -14 0 -27q-5 -6 -13.5 -6t-13.5 6l-49 49q-14 13 -27 0l-49 -49q-14 -14 -27 0q-14 13 0 27l49 49q14 14 0 27l-49 49q-14 14 0 27l49 49q14 14 0 27l-98 99q-14 12 -28 0l-49 -49 q-13 -14 -27 0l-49 49q-13 13 -27 0l-98 -99q-14 -13 0 -27l49 -49q13 -13 0 -27l-49 -49q-14 -13 0 -27l49 -49q8 -9 4 -19.5t-13 -13t-18 5.5l-49 49q-14 13 -27 0l-50 -49q-5 -6 -13 -6t-13 6zM118 152l22 -22q5 -6 13 -6t14 6l22 22q5 6 5 14t-5 13l-22 23q-6 5 -14 5 t-13 -5l-22 -23q-6 -5 -6 -13t6 -14zM118 305l22 -23q5 -5 13 -5t14 5l22 23q5 5 5 13t-5 14l-22 22q-6 5 -14 5t-13 -5l-22 -22q-6 -6 -6 -14t6 -13zM118 457l22 -22q5 -6 13 -6t14 6l22 22q5 5 5 13t-5 14l-22 22q-6 6 -14 6t-13 -6l-22 -22q-6 -6 -6 -14t6 -13zM118 610 l22 -23q5 -5 13 -5t14 5l22 23q5 5 5 13t-5 13l-22 23q-6 5 -14 5t-13 -5l-22 -23q-6 -5 -6 -13t6 -13zM194 381l22 -23q5 -5 13.5 -5t13.5 5l22 23q6 5 6 13t-6 14l-22 22q-5 6 -13.5 6t-13.5 -6l-22 -22q-6 -6 -6 -14t6 -13zM346 381l22 -23q6 -5 14 -5t13 5l23 23 q5 5 5 13t-5 14l-23 22q-5 6 -13 6t-14 -6l-22 -22q-5 -6 -5 -14t5 -13zM498 381l23 -23q5 -5 13 -5t14 5l22 23q6 5 6 13t-6 14l-22 22q-6 6 -14 6t-13 -6l-23 -22q-5 -6 -5 -14t5 -13zM575 152l22 -22q5 -6 13 -6t14 6l22 22q6 6 6 14t-6 13l-22 23q-6 5 -14 5t-13 -5 l-22 -23q-6 -5 -6 -13t6 -14zM575 305l22 -23q5 -5 13 -5t14 5l22 23q6 5 6 13t-6 14l-22 22q-6 5 -14 5t-13 -5l-22 -22q-6 -6 -6 -14t6 -13zM575 457l22 -22q5 -6 13 -6t14 6l22 22q6 5 6 13t-6 14l-22 22q-6 6 -14 6t-13 -6l-22 -22q-6 -6 -6 -14t6 -13zM575 610l22 -23 q5 -5 13 -5t14 5l22 23q6 5 6 13t-6 13l-22 23q-6 5 -14 5t-13 -5l-22 -23q-6 -5 -6 -13t6 -13z" />
<glyph unicode="I" horiz-adv-x="307" d="M64 27l49 49q5 6 5 14t-5 13l-49 49q-6 6 -6 14t6 14l49 49q5 5 5 13t-5 14l-49 49q-6 5 -6 13t6 14l49 49q5 5 5 13.5t-5 13.5l-49 49q-6 6 -6 14t6 13l49 50q5 5 5 13t-5 13l-49 50q-6 5 -6 13t6 13l49 50q5 5 5 13t-5 14l-49 49q-13 13 0 26t27 1l49 -49q13 -14 27 0 l49 49q5 5 11 5.5t11 -2.5t8.5 -7.5t2.5 -11t-6 -11.5l-49 -49q-14 -14 0 -27l49 -50q6 -5 6 -13t-6 -13l-49 -50q-6 -5 -6 -13t6 -13l49 -50q14 -13 0 -27l-49 -49q-6 -5 -6 -13.5t6 -13.5l49 -49q14 -14 0 -27l-49 -49q-14 -14 0 -27l49 -49q14 -14 0 -28l-49 -49 q-14 -13 0 -27l49 -49q14 -13 0 -27q-5 -5 -13.5 -5t-13.5 5l-49 49q-14 14 -27 0l-49 -49q-9 -8 -19.5 -4t-13 13t5.5 18zM117 152l23 -22q5 -5 13 -5t14 5l22 22q6 6 6 14t-6 14l-22 22q-6 5 -14 5t-13 -5l-23 -22q-12 -14 0 -28zM117 305l23 -23q5 -5 13 -5t14 5l22 23 q6 5 6 13t-6 14l-22 22q-6 6 -14 6t-13 -6l-23 -22q-5 -6 -5 -14t5 -13zM117 457l23 -22q5 -5 13 -5t14 5l22 22q6 6 6 14t-6 13l-22 22q-6 6 -14 6t-13 -6l-23 -22q-5 -5 -5 -13t5 -14zM117 610l23 -23q5 -5 13 -5t14 5l22 23q6 5 6 13t-6 13l-22 23q-6 5 -14 5t-13 -5 l-23 -23q-5 -5 -5 -13t5 -13z" />
<glyph unicode="J" d="M64 152q-5 6 -5 14t5 13l49 49q6 6 6 14t-6 14l-49 49q-5 5 -5 13t5 14q5 5 13 5t14 -5l49 -50q5 -5 13 -5t14 5l49 50q8 8 18.5 4t13.5 -13t-5 -18l-49 -49q-12 -14 0 -28l98 -98q6 -6 14 -6t13 6l50 49q5 6 13 6t13 -6l50 -49q5 -6 13 -6t14 6l98 98q6 6 6 14t-6 14 l-49 49q-6 5 -6 13t6 14l49 49q6 5 6 13t-6 14l-49 49q-6 5 -6 13.5t6 13.5l49 49q6 6 6 14t-6 13l-49 50q-6 5 -6 13t6 13l49 50q6 5 6 13t-6 14l-49 49q-9 8 -5.5 18.5t13.5 13t19 -4.5l49 -49q6 -6 14 -6t13 6l49 49q15 13 28 -2q12 -13 -1 -25l-49 -49q-5 -6 -5 -14 t5 -13l49 -50q6 -5 6 -13t-6 -13l-49 -50q-5 -5 -5 -13t5 -14l49 -49q6 -5 6 -13.5t-6 -13.5l-49 -49q-5 -6 -5 -14t5 -13l49 -49q6 -6 6 -14t-6 -13l-49 -49q-12 -14 0 -28l49 -49q9 -8 5.5 -18t-13 -13t-19.5 4l-49 50q-5 5 -13 5t-14 -5l-98 -99q-6 -5 -6 -13t6 -14 l49 -49q8 -8 4.5 -19t-13 -13.5t-18.5 5.5l-49 49q-6 5 -14 5t-13 -5l-50 -49q-5 -6 -13 -6t-13 6l-50 49q-5 5 -13 5t-14 -5l-49 -49q-8 -9 -18.5 -5.5t-13 13.5t4.5 19l49 49q14 14 0 27l-98 99q-14 13 -27 0l-49 -50q-14 -13 -27 0zM346 76l23 -22q5 -6 13 -6t13 6l23 22 q5 6 5 14t-5 13l-23 22q-5 6 -13 6t-13 -6l-23 -22q-5 -5 -5 -13t5 -14zM575 305l22 -23q6 -5 14 -5t13 5l23 23q5 5 5 13t-5 14l-23 22q-5 5 -13 5t-14 -5l-22 -22q-6 -6 -6 -14t6 -13zM575 457l22 -22q6 -6 14 -6t13 6l23 22q5 5 5 13.5t-5 13.5l-23 22q-5 6 -13 6t-14 -6 l-22 -22q-6 -5 -6 -13.5t6 -13.5zM575 610l22 -23q6 -5 14 -5t13 5l23 23q5 5 5 13t-5 13l-23 23q-5 5 -13 5t-14 -5l-22 -23q-6 -5 -6 -13t6 -13z" />
<glyph unicode="K" horiz-adv-x="765" d="M64 27l50 49q5 6 5 14t-5 13l-50 49q-5 6 -5 14t5 13l50 49q12 14 0 28l-50 49q-5 5 -5 13t5 14l50 49q5 5 5 13t-5 14l-50 49q-5 5 -5 13.5t5 13.5l50 49q5 6 5 14t-5 13l-50 50q-5 5 -5 13t5 13l50 50q5 5 5 13t-5 14l-50 49q-5 5 -5 13.5t5 13.5q6 5 14 5t13 -5 l49 -49q6 -6 14 -6t14 6l49 49q5 5 13 5t14 -5q5 -5 5 -13.5t-5 -13.5l-50 -49q-5 -6 -5 -14t5 -13l50 -50q5 -5 5 -13t-5 -13l-50 -50q-5 -5 -5 -13t5 -14l99 -98q5 -6 13 -6t14 6l98 98q6 6 6 14t-6 13l-49 50q-8 8 -4 18.5t13 13t18 -5.5l49 -49q6 -5 14 -5t13 5l99 99 q5 5 5 13t-5 14l-49 49q-9 8 -5.5 18t13 13t18.5 -4l50 -49q5 -6 13 -6t14 6l49 49q5 5 13.5 5t13.5 -5t5 -13.5t-5 -13.5l-49 -49q-6 -6 -6 -14t6 -13l49 -50q12 -12 0 -26q-14 -13 -27 0l-49 49q-6 5 -14 5t-13 -5l-99 -99q-5 -5 -5 -13t5 -14l49 -49q9 -8 5.5 -18 t-13 -13t-18.5 4l-50 49q-5 6 -13 6t-14 -6l-98 -98q-5 -6 -5 -14t5 -13l98 -99q6 -5 14 -5t13 5l50 50q8 8 18.5 4t13 -13.5t-5.5 -17.5l-49 -49q-12 -14 0 -28l99 -98q13 -14 27 0l49 49q8 9 18 5.5t13 -13t-4 -19.5l-49 -49q-14 -13 0 -27l49 -49q8 -8 4.5 -19t-13 -13.5 t-18.5 5.5l-49 49q-6 5 -14 5t-13 -5l-50 -49q-5 -6 -13 -6t-13 6q-6 5 -6 13.5t6 13.5l49 49q5 6 5 14t-5 13l-99 99q-5 5 -13 5t-14 -5l-49 -50q-5 -5 -13.5 -5t-13.5 5q-5 6 -5 14t5 13l49 49q6 6 6 14t-6 14l-98 98q-6 5 -14 5t-13 -5l-99 -98q-12 -14 0 -28l50 -49 q5 -5 5 -13t-5 -14l-50 -49q-5 -5 -5 -13t5 -14l50 -49q8 -8 4 -18.5t-13 -13.5t-18 5l-49 49q-14 12 -28 0l-49 -49q-8 -9 -18 -5t-13 13.5t4 18.5zM118 152l22 -22q6 -6 14 -6t14 6l22 22q5 6 5 14t-5 13l-22 23q-14 12 -28 0l-22 -23q-5 -5 -5 -13t5 -14zM118 305l22 -23 q14 -12 28 0l22 23q5 5 5 13t-5 14l-22 22q-14 12 -28 0l-22 -22q-5 -6 -5 -14t5 -13zM118 457l22 -22q6 -6 14 -6t14 6l22 22q5 5 5 13.5t-5 13.5l-22 22q-6 6 -14 6t-14 -6l-22 -22q-5 -5 -5 -13.5t5 -13.5zM118 610l22 -23q14 -12 28 0l22 23q5 5 5 13t-5 13l-22 23 q-14 12 -28 0l-22 -23q-5 -5 -5 -13t5 -13zM194 381l23 -23q5 -5 13 -5t14 5l22 23q6 5 6 13t-6 14l-22 22q-6 6 -14 6t-13 -6l-23 -22q-5 -6 -5 -14t5 -13z" />
<glyph unicode="L" horiz-adv-x="612" d="M64 27l49 49q6 6 6 14t-6 13l-49 49q-5 6 -5 14t5 13l49 49q6 6 6 14t-6 13l-49 50q-5 5 -5 13t5 14l49 49q6 5 6 13t-6 14l-49 49q-5 5 -5 13t5 14l49 49q6 6 6 14t-6 13l-49 50q-5 5 -5 13t5 13l49 50q6 5 6 13t-6 13l-49 50q-5 5 -5 13t5 14q6 5 14 5t13 -5l49 -49 q6 -6 14 -6t13 6l49 49q14 12 28 0q5 -6 5 -14t-5 -13l-50 -50q-5 -5 -5 -13t5 -13l50 -50q5 -5 5 -13t-5 -13l-50 -50q-5 -5 -5 -13t5 -14l50 -49q5 -6 5 -14t-5 -13l-50 -49q-5 -6 -5 -14t5 -13l50 -49q5 -6 5 -14t-5 -13l-50 -50q-5 -5 -5 -13t5 -14l99 -98q5 -6 13 -6 t14 6l49 49q5 5 13 5t14 -5l49 -49q5 -6 13 -6t14 6l49 49q14 12 27 -1t0 -26l-49 -49q-5 -5 -5 -13t5 -14l49 -49q6 -6 6 -14t-6 -13q-5 -6 -13 -6t-14 6l-49 49q-6 5 -14 5t-13 -5l-49 -49q-6 -6 -14 -6t-13 6l-49 49q-6 5 -14 5t-13 -5l-49 -49q-6 -6 -14 -6t-14 6 l-49 49q-5 5 -13 5t-14 -5l-49 -49q-8 -9 -18 -5.5t-13 13t4 19.5zM118 152l22 -22q6 -6 14 -6t13 6l23 22q5 6 5 14t-5 13l-23 23q-5 5 -13 5t-14 -5l-22 -23q-6 -5 -6 -13t6 -14zM118 305l22 -23q6 -5 14 -5t13 5l23 23q5 5 5 13t-5 14l-23 22q-5 5 -13 5t-14 -5l-22 -22 q-6 -6 -6 -14t6 -13zM118 457l22 -22q6 -6 14 -6t13 6l23 22q5 5 5 13t-5 14l-23 22q-5 6 -13 6t-14 -6l-22 -22q-6 -6 -6 -14t6 -13zM118 610l22 -23q6 -5 14 -5t13 5l23 23q5 5 5 13t-5 13l-23 23q-5 5 -13 5t-14 -5l-22 -23q-6 -5 -6 -13t6 -13zM194 76l22 -22 q6 -6 14 -6t14 6l22 22q5 6 5 14t-5 13l-22 22q-6 6 -14 6t-14 -6l-22 -22q-5 -5 -5 -13t5 -14zM346 76l23 -22q5 -6 13 -6t14 6l22 22q3 3 4.5 6.5t1.5 7t-1.5 7t-4.5 6.5l-22 22q-6 6 -14 6t-13 -6l-23 -22q-5 -5 -5 -13t5 -14z" />
<glyph unicode="M" horiz-adv-x="917" d="M64 0q-6 5 -6 13.5t6 13.5l49 49q5 6 5 14t-5 13l-49 49q-6 6 -6 14t6 13l49 49q12 14 0 28l-49 49q-6 5 -6 13t6 14l49 49q5 5 5 13t-5 14l-49 49q-6 5 -6 13.5t6 13.5l49 49q5 6 5 14t-5 13l-49 50q-6 5 -6 13t6 13l49 50q5 5 5 13t-5 14l-49 49q-9 8 -5.5 18t13 13 t19.5 -4l49 -49q5 -6 13 -6t14 6l49 49q8 8 19 4.5t13.5 -13t-5.5 -18.5l-49 -49q-6 -6 -6 -14t6 -13l98 -99q6 -5 14 -5t13 5l50 49q5 6 13 6t13 -6q6 -5 6 -13t-6 -13l-49 -50q-5 -5 -5 -13t5 -14l99 -98q5 -6 13 -6t14 6l98 98q5 6 5 14t-5 13l-49 50q-6 5 -6 13t6 13 q5 6 13.5 6t13.5 -6l49 -49q6 -5 14 -5t13 5l99 99q5 5 5 13t-5 14l-50 49q-5 5 -5 13.5t5 13.5q6 5 14 5t13 -5l49 -49q6 -6 14 -6t14 6l49 49q5 5 13 5t14 -5q5 -5 5 -13.5t-5 -13.5l-50 -49q-5 -6 -5 -14t5 -13l50 -50q5 -5 5 -13t-5 -13l-50 -50q-5 -5 -5 -13t5 -14 l50 -49q5 -5 5 -13.5t-5 -13.5l-50 -49q-5 -6 -5 -14t5 -13l50 -49q5 -6 5 -14t-5 -13l-50 -49q-12 -14 0 -28l50 -49q5 -5 5 -13t-5 -14l-50 -49q-5 -5 -5 -13t5 -14l50 -49q8 -8 4 -18.5t-13 -13.5t-18 5l-49 49q-14 12 -28 0l-49 -49q-8 -9 -18 -5t-13 13.5t4 18.5l50 49 q13 14 0 27l-50 49q-13 14 0 27l50 49q12 14 0 28l-50 49q-13 13 0 27l50 49q13 13 0 27l-99 98q-13 14 -27 0l-98 -98q-14 -14 0 -27l49 -49q8 -9 4 -19.5t-13 -13t-18 5.5l-49 49q-14 13 -27 0l-50 -49q-5 -6 -13 -6t-13 6q-14 13 0 27l49 49q13 13 0 27l-99 98 q-13 14 -27 0l-98 -98q-14 -14 0 -27l49 -49q14 -14 0 -27l-49 -49q-14 -14 0 -28l49 -49q14 -13 0 -27l-49 -49q-14 -13 0 -27l49 -49q6 -5 6 -13.5t-6 -13.5q-5 -6 -13.5 -6t-13.5 6l-49 49q-14 13 -27 0l-49 -49q-14 -14 -27 0zM118 152l22 -22q5 -6 13 -6t14 6l22 22 q6 6 6 14t-6 13l-22 23q-6 5 -14 5t-13 -5l-22 -23q-6 -5 -6 -13t6 -14zM118 305l22 -23q5 -5 13 -5t14 5l22 23q6 5 6 13t-6 14l-22 22q-6 5 -14 5t-13 -5l-22 -22q-6 -6 -6 -14t6 -13zM118 457l22 -22q5 -6 13 -6t14 6l22 22q6 5 6 13.5t-6 13.5l-22 22q-6 6 -14 6t-13 -6 l-22 -22q-6 -5 -6 -13.5t6 -13.5zM118 610l22 -23q5 -5 13 -5t14 5l22 23q6 5 6 13t-6 13l-22 23q-6 5 -14 5t-13 -5l-22 -23q-6 -5 -6 -13t6 -13zM194 533l22 -22q5 -5 13.5 -5t13.5 5l22 22q6 6 6 14t-6 13l-22 22q-5 6 -13.5 6t-13.5 -6l-22 -22q-6 -5 -6 -13t6 -14z M651 533l22 -22q6 -5 14 -5t13 5l23 22q5 6 5 14t-5 13l-23 22q-5 6 -13 6t-14 -6l-22 -22q-6 -5 -6 -13t6 -14zM727 152l22 -22q6 -6 14 -6t14 6l22 22q5 6 5 14t-5 13l-22 23q-14 12 -28 0l-22 -23q-5 -5 -5 -13t5 -14zM727 305l22 -23q14 -12 28 0l22 23q5 5 5 13t-5 14 l-22 22q-14 12 -28 0l-22 -22q-5 -6 -5 -14t5 -13zM727 457l22 -22q6 -6 14 -6t14 6l22 22q5 5 5 13.5t-5 13.5l-22 22q-6 6 -14 6t-14 -6l-22 -22q-5 -5 -5 -13.5t5 -13.5zM727 610l22 -23q14 -12 28 0l22 23q5 5 5 13t-5 13l-22 23q-14 12 -28 0l-22 -23q-5 -5 -5 -13 t5 -13z" />
<glyph unicode="N" d="M64 0q-6 5 -6 13t6 14l49 49q5 6 5 14t-5 13l-49 49q-6 6 -6 14t6 13l49 49q5 6 5 14t-5 13l-49 50q-6 5 -6 13t6 14l49 49q5 5 5 13t-5 14l-49 49q-6 5 -6 13t6 14l49 49q5 6 5 14t-5 13l-49 50q-6 5 -6 13t6 13l49 50q5 5 5 13t-5 13l-49 50q-8 7 -5 17.5t12.5 13.5 t18.5 -4l50 -49q5 -6 13 -6t14 6l49 49q5 5 13.5 5t13.5 -5q5 -6 5 -14t-5 -13l-49 -50q-6 -5 -6 -13t6 -13l98 -99q6 -5 14 -5t13 5l49 49q6 6 14 6t13 -6q6 -5 6 -13t-6 -13l-49 -50q-5 -5 -5 -13t5 -14l98 -98q6 -6 14 -6t14 6l98 98q6 6 6 14t-6 13l-49 50q-6 5 -6 13 t6 13l49 50q6 5 6 13t-6 13l-49 50q-9 8 -5.5 18t13 13t19.5 -4l49 -49q5 -6 13 -6t14 6l49 49q8 8 18.5 4t13.5 -13t-5 -18l-49 -50q-5 -5 -5 -13t5 -13l49 -50q6 -5 6 -13t-6 -13l-49 -50q-5 -5 -5 -13t5 -14l49 -49q6 -6 6 -14t-6 -13l-49 -49q-5 -6 -5 -14t5 -13l49 -49 q6 -6 6 -14t-6 -13l-49 -50q-5 -5 -5 -13t5 -14l49 -49q6 -5 6 -13t-6 -14l-49 -49q-5 -5 -5 -13t5 -14l49 -49q6 -6 6 -14t-6 -13q-5 -6 -13.5 -6t-13.5 6l-49 49q-6 5 -14 5t-13 -5l-49 -49q-6 -6 -14 -6t-13 6q-6 5 -6 13t6 14l49 49q4 4 5.5 9t0 10t-5.5 8l-49 49 q-6 6 -6 14t6 13l49 49q6 6 6 14t-6 13l-98 99q-14 12 -28 0l-49 -49q-8 -9 -18 -5.5t-13 13t4 19.5l50 49q13 13 0 27l-99 98q-13 14 -27 0l-98 -98q-14 -14 0 -27l49 -49q13 -14 0 -27l-49 -50q-14 -13 0 -27l49 -49q13 -13 0 -27l-49 -49q-14 -13 0 -27l49 -49 q8 -9 4 -19.5t-13 -13t-18 5.5l-49 49q-14 13 -27 0l-50 -49q-5 -6 -13 -6t-13 6zM118 152l22 -22q5 -6 13 -6t14 6l22 22q5 6 5 14t-5 13l-22 23q-6 5 -14 5t-13 -5l-22 -23q-6 -5 -6 -13t6 -14zM118 305l22 -23q5 -5 13 -5t14 5l22 23q5 5 5 13t-5 14l-22 22q-6 5 -14 5 t-13 -5l-22 -22q-6 -6 -6 -14t6 -13zM118 457l22 -22q5 -6 13 -6t14 6l22 22q5 5 5 13t-5 14l-22 22q-6 6 -14 6t-13 -6l-22 -22q-6 -6 -6 -14t6 -13zM118 610l22 -23q5 -5 13 -5t14 5l22 23q5 5 5 13t-5 13l-22 23q-6 5 -14 5t-13 -5l-22 -23q-6 -5 -6 -13t6 -13zM194 533 l22 -22q5 -5 13.5 -5t13.5 5l22 22q6 6 6 14t-6 13l-22 22q-5 6 -13.5 6t-13.5 -6l-22 -22q-6 -5 -6 -13t6 -14zM498 381l23 -23q5 -5 13 -5t14 5l22 23q6 5 6 13t-6 14l-22 22q-6 6 -14 6t-13 -6l-23 -22q-5 -6 -5 -14t5 -13zM575 152l22 -22q5 -6 13 -6t14 6l22 22 q6 6 6 14t-6 13l-22 23q-6 5 -14 5t-13 -5l-22 -23q-6 -5 -6 -13t6 -14zM575 305l22 -23q5 -5 13 -5t14 5l22 23q6 5 6 13t-6 14l-22 22q-6 5 -14 5t-13 -5l-22 -22q-6 -6 -6 -14t6 -13zM575 457l22 -22q5 -6 13 -6t14 6l22 22q6 5 6 13t-6 14l-22 22q-6 6 -14 6t-13 -6 l-22 -22q-6 -6 -6 -14t6 -13zM575 610l22 -23q5 -5 13 -5t14 5l22 23q6 5 6 13t-6 13l-22 23q-6 5 -14 5t-13 -5l-22 -23q-6 -5 -6 -13t6 -13z" />
<glyph unicode="O" d="M64 179l49 50q13 13 0 27l-49 49q-14 13 0 27l49 49q13 13 0 27l-49 49q-6 5 -6 13.5t6 13.5l49 49q13 14 0 27l-49 50q-6 5 -6 13t6 13q5 6 13 6t13 -6l50 -49q13 -13 27 0l98 99q13 13 0 27l-49 49q-13 12 -1 25q15 14 28 2l49 -49q6 -6 14 -6t13 6l49 49q6 5 14 5 t13 -5l49 -49q6 -6 14 -6t14 6l49 49q5 5 13 5t14 -5q5 -5 5 -13.5t-5 -13.5l-50 -49q-5 -6 -5 -14t5 -13l99 -99q5 -5 13 -5t14 5l49 49q5 6 13.5 6t13.5 -6q6 -5 6 -13t-6 -13l-49 -50q-6 -5 -6 -13t6 -14l49 -49q6 -5 6 -13.5t-6 -13.5l-49 -49q-6 -6 -6 -14t6 -13 l49 -49q6 -6 6 -14t-6 -13l-49 -49q-4 -4 -5.5 -9t0 -10t5.5 -8l49 -50q6 -5 6 -13t-6 -14q-5 -5 -13.5 -5t-13.5 5l-49 50q-6 5 -14 5t-13 -5l-99 -99q-5 -5 -5 -13t5 -14l50 -49q5 -5 5 -13t-5 -14q-6 -5 -14 -5t-13 5l-49 49q-6 6 -14 6t-14 -6l-49 -49q-5 -5 -13 -5 t-14 5l-49 49q-5 6 -13 6t-14 -6l-49 -49q-8 -8 -18.5 -4t-13.5 13t5 18l49 49q5 6 5 14t-5 13l-98 99q-6 5 -14 5t-13 -5l-50 -50q-14 -14 -27 2q-12 14 1 25zM117 305l23 -23q13 -13 27 0l22 23q13 13 0 27l-22 22q-14 14 -27 0l-23 -22q-13 -14 0 -27zM117 457l23 -22 q13 -13 27 0l22 22q13 13 0 27l-22 22q-14 14 -27 0l-23 -22q-13 -14 0 -27zM194 229l98 -99q14 -13 27 0l49 49q14 14 27 0l49 -49q14 -12 28 0l98 99q13 13 0 27l-49 49q-14 13 0 27l49 49q13 13 0 27l-49 49q-6 5 -6 13.5t6 13.5l49 49q13 14 0 27l-98 99q-14 12 -28 0 l-49 -49q-13 -14 -27 0l-49 49q-13 13 -27 0l-98 -99q-14 -13 0 -27l49 -49q13 -14 0 -27l-49 -49q-14 -14 0 -27l49 -49q13 -14 0 -27l-49 -49q-14 -14 0 -27zM346 76l22 -22q14 -14 27 0l23 22q13 14 0 27l-23 23q-13 13 -27 0l-22 -23q-14 -13 0 -27zM346 686l22 -22 q14 -14 27 0l23 22q13 13 0 27l-23 22q-13 13 -27 0l-22 -22q-14 -14 0 -27zM574 305l23 -23q13 -13 27 0l22 23q14 13 0 27l-22 22q-14 14 -27 0l-23 -22q-13 -14 0 -27zM574 457l23 -22q13 -13 27 0l22 22q6 5 6 13.5t-6 13.5l-22 22q-14 14 -27 0l-23 -22q-5 -5 -5 -13.5 t5 -13.5z" />
<glyph unicode="P" horiz-adv-x="765" d="M64 27l50 49q5 6 5 14t-5 13l-50 49q-5 6 -5 14t5 13l50 49q12 14 0 28l-50 49q-5 5 -5 13t5 14l50 49q5 5 5 13t-5 14l-50 49q-5 5 -5 13.5t5 13.5l50 49q5 6 5 14t-5 13l-50 50q-5 5 -5 13t5 13l50 50q5 5 5 13t-5 14l-50 49q-5 5 -5 13.5t5 13.5q6 5 14 5t13 -5 l49 -49q6 -6 14 -6t14 6l49 49q5 5 13 5t14 -5l49 -49q5 -6 13 -6t14 6l49 49q5 5 13.5 5t13.5 -5l49 -49q6 -6 14 -6t13 6l50 49q12 12 26 0q13 -14 0 -27l-49 -49q-5 -6 -5 -14t5 -13l99 -99q5 -5 13 -5t14 5l49 49q8 9 18 5.5t13 -13t-4 -18.5l-49 -50q-6 -5 -6 -13 t6 -14l49 -49q5 -5 5 -13.5t-5 -13.5t-13.5 -5t-13.5 5l-49 49q-6 6 -14 6t-13 -6l-99 -98q-5 -6 -5 -14t5 -13l49 -49q6 -6 6 -14t-6 -13q-5 -6 -13 -6t-13 6l-50 49q-5 5 -13 5t-14 -5l-49 -49q-5 -6 -13.5 -6t-13.5 6l-49 49q-6 5 -14 5t-13 -5l-99 -98q-12 -14 0 -28 l50 -49q5 -5 5 -13t-5 -14l-50 -49q-5 -5 -5 -13t5 -14l50 -49q8 -8 4 -18.5t-13 -13.5t-18 5l-49 49q-14 12 -28 0l-49 -49q-8 -9 -18 -5t-13 13.5t4 18.5zM118 152l22 -22q6 -6 14 -6t14 6l22 22q5 6 5 14t-5 13l-22 23q-14 12 -28 0l-22 -23q-5 -5 -5 -13t5 -14zM118 305 l22 -23q14 -12 28 0l22 23q5 5 5 13t-5 14l-22 22q-14 12 -28 0l-22 -22q-5 -6 -5 -14t5 -13zM118 457l22 -22q6 -6 14 -6t14 6l22 22q5 5 5 13.5t-5 13.5l-22 22q-6 6 -14 6t-14 -6l-22 -22q-5 -5 -5 -13.5t5 -13.5zM118 610l22 -23q14 -12 28 0l22 23q5 5 5 13t-5 13 l-22 23q-14 12 -28 0l-22 -23q-5 -5 -5 -13t5 -13zM194 381l23 -23q5 -5 13 -5t14 5l22 23q5 5 5 13t-5 14l-22 22q-6 6 -14 6t-13 -6l-23 -22q-5 -6 -5 -14t5 -13zM194 533l99 -98q5 -6 13 -6t14 6l49 49q5 6 13.5 6t13.5 -6l49 -49q6 -6 14 -6t13 6l99 98q5 6 5 14t-5 13 l-99 99q-5 5 -13 5t-14 -5l-49 -49q-5 -6 -13.5 -6t-13.5 6l-49 49q-6 5 -14 5t-13 -5l-99 -99q-5 -5 -5 -13t5 -14zM194 686l23 -23q5 -5 13 -5t14 5l22 23q5 5 5 13t-5 14l-22 22q-6 5 -14 5t-13 -5l-23 -22q-5 -6 -5 -14t5 -13zM347 381l22 -23q5 -5 13.5 -5t13.5 5 l22 23q6 5 6 13t-6 14l-22 22q-5 6 -13.5 6t-13.5 -6l-22 -22q-6 -6 -6 -14t6 -13zM347 686l22 -23q5 -5 13.5 -5t13.5 5l22 23q6 5 6 13t-6 14l-22 22q-5 5 -13.5 5t-13.5 -5l-22 -22q-6 -6 -6 -14t6 -13z" />
<glyph unicode="Q" horiz-adv-x="841" d="M64 180l49 49q14 13 0 27l-22 22q-3 4 -8 8.5t-11 10.5l-8 8q-14 13 0 27l49 49q6 5 6 13.5t-6 13.5l-49 49q-14 14 0 27l49 50q6 5 6 13t-6 13l-49 50q-14 13 0 27q14 13 27 0l49 -49q14 -14 27 0l99 98q5 5 5 13.5t-5 13.5l-50 49q-13 14 0 27q14 13 27 0l49 -49 q14 -14 28 0l49 49q13 13 27 0l49 -49q13 -14 27 0l49 49q6 6 14 5.5t13 -6t6 -12.5t-6 -14l-49 -49q-13 -13 0 -27l98 -98q14 -14 27 0l50 49q8 8 18.5 4t13 -13.5t-5.5 -17.5l-49 -50q-5 -5 -5 -13t5 -13l49 -50q6 -5 6 -13t-6 -14l-49 -49q-5 -5 -5 -13.5t5 -13.5l49 -49 q6 -6 6 -14t-6 -13q-19 -19 -26 -27l-23 -22q-5 -6 -5 -14t5 -13l49 -49q8 -8 5 -19t-12.5 -13.5t-18.5 4.5l-50 50q-5 5 -13 5t-14 -5l-22 -22q-12 -14 0 -28l99 -98q5 -5 13 -5t13 5l50 49q8 9 18 5.5t13 -13t-4 -19.5l-49 -49q-6 -5 -6 -13t6 -14l49 -49q5 -5 5 -13 t-5 -14q-6 -6 -14 -6t-13 6l-50 49q-5 6 -13 6t-13 -6l-50 -49q-5 -6 -13 -6t-14 6q-5 6 -5 14t5 13l49 49q6 6 6 14t-6 13l-98 99q-5 5 -13.5 5t-13.5 -5l-22 -23q-5 -5 -5 -13t5 -14l49 -49q6 -5 6 -13t-6 -14q-5 -5 -13.5 -5t-13.5 5l-49 50q-6 5 -14 5t-13 -5l-49 -50 q-6 -5 -14 -5t-13 5l-49 50q-14 12 -28 0l-49 -50q-5 -5 -13 -5t-14 5q-5 6 -5 14t5 13l50 49q5 6 5 14t-5 13l-99 99q-5 5 -13 5t-14 -5l-49 -50q-5 -5 -11 -5.5t-11 2.5t-8 8t-2.5 11.5t5.5 11.5zM118 305l22 -22q14 -14 27 0l23 22q13 13 0 27l-23 22q-13 14 -27 0 l-22 -22q-14 -14 0 -27zM118 457l22 -22q14 -13 27 0l23 22q13 14 0 27l-23 23q-13 13 -27 0l-22 -23q-14 -13 0 -27zM194 229l98 -99q14 -12 28 0l49 50q13 13 27 0l49 -50q13 -13 27 0l22 22q14 14 0 28l-49 49q-13 13 0 27q13 13 27 0l49 -50q5 -5 13.5 -5t13.5 5l22 23 q14 13 0 27l-22 22l-27 27q-13 13 0 27l49 49q6 5 6 13.5t-6 13.5l-49 49q-13 14 0 27l49 50q6 5 6 13t-6 13l-98 99q-14 13 -27 0l-49 -49q-14 -14 -27 0l-49 49q-14 12 -28 0l-98 -99q-13 -13 0 -26l49 -50q14 -13 0 -27l-49 -49q-5 -5 -5 -13.5t5 -13.5l49 -49 q14 -14 0 -27l-49 -49q-13 -14 0 -27zM346 76l23 -22q13 -13 27 0l22 22q14 14 0 27l-22 23q-14 13 -27 0l-23 -23q-13 -13 0 -27zM346 686l23 -22q13 -14 27 0l22 22q6 5 6 13.5t-6 13.5l-22 22q-14 14 -27 0l-23 -22q-5 -5 -5 -13.5t5 -13.5zM575 305l22 -22q14 -14 27 0 l22 22q14 13 0 27l-22 22q-13 14 -27 0l-22 -22q-13 -14 0 -27zM575 457l22 -22q14 -13 27 0l22 22q14 14 0 27l-22 23q-13 13 -27 0l-22 -23q-13 -13 0 -27z" />
<glyph unicode="R" d="M64 27l49 49q5 6 5 14t-5 13l-49 49q-6 6 -6 14t6 14l49 49q5 5 5 13t-5 14l-49 49q-6 5 -6 13t6 14l49 49q5 5 5 13.5t-5 13.5l-49 49q-6 6 -6 14t6 13l49 50q5 5 5 13t-5 13l-49 50q-6 5 -6 13t6 13l49 50q5 5 5 13t-5 14l-49 49q-8 8 -4.5 18.5t12.5 13t18 -4.5 l50 -49q5 -6 13 -6t14 6l49 49q5 5 13.5 5t13.5 -5l49 -49q6 -6 14 -6t13 6l49 49q6 5 14 5t13 -5l49 -49q6 -6 14 -6t14 6l49 49q5 5 13 5t14 -5q5 -5 5 -13t-5 -14l-50 -49q-5 -6 -5 -14t5 -13l99 -99q5 -5 13 -5t14 5l49 49q5 6 13.5 6t13.5 -6q6 -5 6 -13t-6 -13 l-49 -50q-5 -5 -5 -13t5 -13l49 -50q6 -5 6 -13t-6 -14q-5 -5 -13.5 -5t-13.5 5l-49 49q-6 6 -14 6t-13 -6l-99 -98q-5 -5 -5 -13.5t5 -13.5l99 -99q5 -5 13 -5t14 5l49 50q8 8 18.5 4t13.5 -13t-5 -18l-49 -49q-5 -6 -5 -14t5 -13l49 -49q6 -6 6 -14t-6 -14l-49 -49 q-5 -5 -5 -13t5 -14l49 -49q6 -5 6 -13t-6 -14q-5 -5 -13.5 -5t-13.5 5l-49 49q-6 6 -14 6t-13 -6l-49 -49q-9 -8 -19.5 -4t-13 13t5.5 18l49 49q6 6 6 14t-6 13l-49 49q-6 6 -6 14t6 14l49 49q6 5 6 13t-6 14l-98 98q-6 6 -14 6t-14 -6l-49 -49q-5 -5 -13 -5t-14 5l-49 49 q-5 6 -13 6t-14 -6l-98 -98q-6 -6 -6 -14t6 -13l49 -49q12 -14 0 -28l-49 -49q-6 -5 -6 -13t6 -14l49 -49q5 -5 5 -13t-5 -14q-5 -5 -13.5 -5t-13.5 5l-49 49q-6 6 -14 6t-13 -6l-50 -49q-8 -8 -18.5 -4t-13 13.5t5.5 17.5zM118 152l22 -22q5 -5 13 -5t14 5l22 22 q12 14 0 28l-22 22q-6 5 -14 5t-13 -5l-22 -22q-6 -6 -6 -14t6 -14zM118 305l22 -23q5 -5 13 -5t14 5l22 23q5 5 5 13t-5 14l-22 22q-6 6 -14 6t-13 -6l-22 -22q-6 -6 -6 -14t6 -13zM118 457l22 -22q5 -5 13 -5t14 5l22 22q5 6 5 14t-5 13l-22 22q-6 6 -14 6t-13 -6l-22 -22 q-6 -5 -6 -13t6 -14zM118 610l22 -23q5 -5 13 -5t14 5l22 23q5 5 5 13t-5 13l-22 23q-6 5 -14 5t-13 -5l-22 -23q-6 -5 -6 -13t6 -13zM194 381l22 -22q5 -6 13.5 -6t13.5 6l22 22q6 5 6 13.5t-6 13.5l-22 22q-5 6 -13.5 6t-13.5 -6l-22 -22q-6 -5 -6 -13.5t6 -13.5zM194 534 l98 -99q6 -5 14 -5t13 5l49 49q6 6 14 6t13 -6l49 -49q14 -12 28 0l98 99q6 5 6 13t-6 13l-98 99q-14 12 -28 0l-49 -49q-5 -6 -13 -6t-14 6l-49 49q-5 5 -13 5t-14 -5l-98 -99q-6 -5 -6 -13t6 -13zM194 686l22 -22q5 -6 13.5 -6t13.5 6l22 22q6 5 6 13t-6 14l-22 22 q-5 5 -13.5 5t-13.5 -5l-22 -22q-6 -6 -6 -14t6 -13zM346 381l22 -22q6 -6 14 -6t13 6l23 22q5 5 5 13.5t-5 13.5l-23 22q-5 6 -13 6t-14 -6l-22 -22q-5 -5 -5 -13.5t5 -13.5zM346 686l22 -22q6 -6 14 -6t13 6l23 22q5 5 5 13t-5 14l-23 22q-5 5 -13 5t-14 -5l-22 -22 q-5 -6 -5 -14t5 -13zM575 152l22 -22q5 -5 13 -5t14 5l22 22q6 6 6 14t-6 14l-22 22q-6 5 -14 5t-13 -5l-22 -22q-6 -6 -6 -14t6 -14z" />
<glyph unicode="S" horiz-adv-x="765" d="M64 0q-5 6 -5 14t5 13l49 49q6 6 6 14t-6 13l-49 49q-12 14 0 28q5 5 13.5 5t13.5 -5l49 -50q6 -5 14 -5t13 5l50 50q5 5 13 5t13 -5l50 -50q5 -5 13 -5t14 5l49 50q5 5 13.5 5t13.5 -5l49 -50q6 -5 14 -5t13 5l99 99q5 5 5 13t-5 14l-99 98q-5 6 -13 6t-14 -6l-49 -49 q-5 -5 -13.5 -5t-13.5 5l-49 49q-6 6 -14 6t-13 -6l-50 -49q-8 -8 -18 -4.5t-12.5 13t4.5 18.5l49 49q5 5 5 13.5t-5 13.5l-99 99q-5 5 -13 5t-14 -5l-49 -50q-5 -5 -13.5 -5t-13.5 5q-5 6 -5 14t5 13l49 50q6 5 6 13t-6 13l-49 50q-5 5 -5 13t5 14q5 5 13.5 5t13.5 -5 l49 -49q6 -6 14 -6t13 6l99 98q5 5 5 13.5t-5 13.5l-49 49q-8 8 -4.5 18.5t12.5 13t18 -4.5l50 -49q5 -6 13 -6t14 6l49 49q5 5 13.5 5t13.5 -5l49 -49q6 -6 14 -6t13 6l49 49q6 5 14 5t13 -5l49 -49q6 -6 14 -6t14 6l49 49q5 5 13 5t14 -5q5 -5 5 -13t-5 -14l-50 -49 q-5 -5 -5 -13.5t5 -13.5l50 -49q8 -9 4 -19.5t-13 -13t-18 5.5l-49 49q-14 12 -28 0l-49 -49q-5 -6 -13 -6t-14 6l-49 49q-5 5 -13 5t-14 -5l-49 -49q-5 -6 -13.5 -6t-13.5 6l-49 49q-6 5 -14 5t-13 -5l-99 -99q-5 -5 -5 -13t5 -13l99 -99q5 -5 13 -5t14 5l49 49q5 6 13.5 6 t13.5 -6l49 -49q6 -5 14 -5t13 5l49 49q6 6 14 6t13 -6q6 -5 6 -13t-6 -14l-49 -49q-6 -5 -6 -13.5t6 -13.5l98 -98q6 -6 14 -6t14 6l49 49q5 5 13 5t14 -5q5 -6 5 -14t-5 -13l-50 -49q-5 -6 -5 -14t5 -13l50 -49q12 -14 0 -28q-6 -5 -14 -5t-13 5l-49 50q-14 12 -28 0 l-98 -99q-6 -5 -6 -13t6 -14l49 -49q9 -8 5.5 -18t-13 -13t-19.5 4l-49 50q-13 13 -27 0l-49 -50q-5 -5 -13.5 -5t-13.5 5l-49 50q-14 13 -27 0l-50 -50q-13 -13 -26 0l-50 50q-13 13 -27 0l-49 -50q-5 -5 -13.5 -5t-13.5 5zM194 76l23 -22q5 -5 13 -5t13 5l23 22q5 6 5 14 t-5 13l-23 23q-5 5 -13 5t-13 -5l-23 -23q-5 -5 -5 -13t5 -14zM347 76l22 -22q5 -5 13.5 -5t13.5 5l22 22q5 6 5 14t-5 13l-22 23q-5 5 -13.5 5t-13.5 -5l-22 -23q-6 -5 -6 -13t6 -14zM347 381l22 -22q5 -5 13.5 -5t13.5 5l22 22q5 5 5 13.5t-5 13.5l-22 22q-5 6 -13.5 6 t-13.5 -6l-22 -22q-6 -5 -6 -13.5t6 -13.5zM347 686l22 -22q5 -6 13.5 -6t13.5 6l22 22q5 5 5 13.5t-5 13.5l-22 22q-5 5 -13.5 5t-13.5 -5l-22 -22q-6 -5 -6 -13.5t6 -13.5zM499 686l22 -22q6 -6 14 -6t13 6l23 22q5 5 5 13.5t-5 13.5l-23 22q-5 5 -13 5t-14 -5l-22 -22 q-6 -5 -6 -13.5t6 -13.5z" />
<glyph unicode="T" horiz-adv-x="917" d="M64 636l49 50q6 5 6 13t-6 14l-49 49q-5 6 -5 14t5 13q6 5 14 5t13 -5l49 -49q6 -6 14 -6t13 6l49 49q6 5 14 5t13 -5l50 -49q5 -6 13 -6t14 6l49 49q5 5 13 5t14 -5l49 -49q3 -4 8 -5.5t10 0t9 5.5l49 49q5 5 13.5 5t13.5 -5l49 -49q6 -6 14 -6t13 6l50 49q5 5 13 5 t13 -5l50 -49q5 -6 13 -6t14 6l49 49q5 5 13.5 5t13.5 -5t5 -13t-5 -14l-49 -49q-6 -6 -6 -14t6 -13l49 -50q12 -12 0 -26q-14 -13 -27 0l-49 49q-14 13 -27 0l-50 -49q-5 -6 -13 -6t-13 6l-50 49q-13 13 -27 0l-98 -99q-13 -13 0 -26l49 -50q14 -13 0 -27l-49 -49 q-13 -14 0 -27l49 -49q14 -14 0 -27l-49 -49q-13 -14 0 -27l49 -49q14 -14 0 -28l-49 -49q-13 -13 0 -27l49 -49q14 -13 0 -27q-5 -5 -13.5 -5t-13.5 5l-49 49q-14 14 -27 0l-49 -49q-9 -8 -19.5 -4t-13 13t5.5 18l49 49q14 14 0 27l-49 49q-14 14 0 28l49 49q14 13 0 27 l-49 49q-14 13 0 27l49 49q6 5 6 13.5t-6 13.5l-49 49q-14 14 0 27l49 50q6 5 6 13t-6 13l-98 99q-14 13 -27 0l-50 -49q-13 -14 -27 0l-49 49q-13 13 -27 0l-49 -49q-7 -8 -17.5 -5t-13.5 12.5t4 18.5zM194 686l22 -22q6 -6 14 -6t13 6l23 22q5 5 5 13t-5 14l-23 22 q-5 5 -13 5t-14 -5l-22 -22q-5 -6 -5 -14t5 -13zM346 686l23 -22q5 -6 13 -6t14 6l22 22q6 5 6 13t-6 14l-22 22q-6 5 -14 5t-13 -5l-23 -22q-5 -6 -5 -14t5 -13zM423 152l22 -22q5 -5 13 -5t14 5l22 22q6 6 6 14t-6 14l-22 22q-6 5 -14 5t-13 -5l-22 -22q-6 -6 -6 -14 t6 -14zM423 305l22 -23q5 -5 13 -5t14 5l22 23q6 5 6 13t-6 14l-22 22q-6 6 -14 6t-13 -6l-22 -22q-6 -6 -6 -14t6 -13zM423 457l22 -22q5 -5 13 -5t14 5l22 22q3 3 4.5 6.5t1.5 7t-1.5 7t-4.5 6.5l-22 22q-6 6 -14 6t-13 -6l-22 -22q-6 -5 -6 -13t6 -14zM423 610l22 -23 q5 -5 13 -5t14 5l22 23q6 5 6 13t-6 13l-22 23q-6 5 -14 5t-13 -5l-22 -23q-6 -5 -6 -13t6 -13zM499 686l22 -22q5 -6 13.5 -6t13.5 6l22 22q6 5 6 13t-6 14l-22 22q-5 5 -13.5 5t-13.5 -5l-22 -22q-5 -6 -5 -14t5 -13zM651 686l23 -22q5 -6 13 -6t13 6l23 22q5 5 5 13 t-5 14l-23 22q-5 5 -13 5t-13 -5l-23 -22q-5 -6 -5 -14t5 -13z" />
<glyph unicode="U" d="M64 179l49 49q12 14 0 28l-49 49q-14 13 0 27l49 49q13 13 0 27l-49 49q-6 5 -6 13.5t6 13.5l49 49q13 14 0 27l-49 50q-6 5 -6 13t6 13l49 50q13 13 0 27l-49 49q-9 8 -5.5 18t13 13t19.5 -4l49 -49q14 -14 27 0l49 49q14 13 27 0t0 -27l-49 -49q-14 -14 0 -27l49 -50 q13 -13 0 -26l-49 -50q-14 -13 0 -27l49 -49q13 -14 0 -27l-49 -49q-14 -14 0 -27l49 -49q13 -14 0 -27l-49 -49q-14 -14 0 -28l98 -98q14 -14 27 0l50 49q13 14 27 0l49 -49q13 -14 27 0l98 98q14 14 0 28l-49 49q-13 13 0 27l49 49q14 13 0 27l-49 49q-13 13 0 27l49 49 q14 14 0 27l-49 50q-13 13 0 26l49 50q14 13 0 27l-49 49q-13 14 0 27t27 0l49 -49q14 -14 27 0l50 49q12 12 26 0q13 -14 0 -27l-49 -49q-5 -6 -5 -14t5 -13l49 -50q6 -5 6 -13t-6 -13l-49 -50q-5 -5 -5 -13t5 -14l49 -49q6 -5 6 -13.5t-6 -13.5l-49 -49q-5 -6 -5 -14 t5 -13l49 -49q6 -6 6 -14t-6 -13l-49 -49q-12 -14 0 -28l49 -49q8 -7 5 -17.5t-12.5 -13.5t-18.5 4l-50 50q-5 5 -13 5t-14 -5l-98 -99q-6 -5 -6 -13t6 -14l49 -49q8 -8 4 -18.5t-13 -13.5t-18 5l-49 49q-6 5 -14 5t-13 -5l-49 -49q-6 -6 -14 -6t-13 6l-50 49q-5 5 -13 5 t-14 -5l-49 -49q-8 -9 -18 -5t-13 13.5t4 18.5l50 49q13 14 0 27l-99 99q-13 13 -27 0l-49 -50q-9 -8 -19.5 -4t-13 13t5.5 18zM118 305l22 -23q14 -13 27 0l22 23q14 13 0 27l-22 22q-13 13 -27 0l-22 -22q-14 -14 0 -27zM118 457l22 -22q14 -14 27 0l22 22q6 5 6 13.5 t-6 13.5l-22 22q-13 14 -27 0l-22 -22q-6 -5 -6 -13.5t6 -13.5zM118 610l22 -23q14 -13 27 0l22 23q6 5 6 13t-6 13l-22 23q-13 13 -27 0l-22 -23q-6 -5 -6 -13t6 -13zM346 76l23 -22q13 -14 27 0l22 22q13 14 0 27l-22 22q-14 14 -27 0l-23 -22q-13 -13 0 -27zM575 305 l22 -23q14 -13 27 0l22 23q14 13 0 27l-22 22q-13 13 -27 0l-22 -22q-13 -14 0 -27zM575 457l22 -22q14 -14 27 0l22 22q6 5 6 13.5t-6 13.5l-22 22q-13 14 -27 0l-22 -22q-13 -14 0 -27zM575 610l22 -23q14 -13 27 0l22 23q6 5 6 13t-6 13l-22 23q-13 13 -27 0l-22 -23 q-13 -13 0 -26z" />
<glyph unicode="V" horiz-adv-x="917" d="M64 305q-5 5 -5 13t5 14l49 49q6 5 6 13.5t-6 13.5l-49 49q-5 6 -5 14t5 13l49 50q6 5 6 13t-6 13l-49 50q-5 5 -5 13t5 13l49 50q6 5 6 13t-6 14l-49 49q-5 6 -5 14t5 13q6 5 14 5t13 -5l50 -49q3 -4 8 -5.5t10 0t8 5.5l50 49q5 5 13 5t14 -5q5 -5 5 -13t-5 -14l-50 -49 q-5 -6 -5 -14t5 -13l50 -50q5 -5 5 -13t-5 -13l-50 -50q-5 -5 -5 -13t5 -13l50 -50q5 -5 5 -13t-5 -14l-50 -49q-5 -5 -5 -13.5t5 -13.5l99 -99q5 -5 13.5 -5t13.5 5l49 50q6 5 14 5t13 -5q5 -6 5 -14t-5 -13l-49 -49q-2 -2 -3.5 -4.5t-2 -4.5t-0.5 -4.5t0.5 -5t2 -4.5 t3.5 -4l98 -99q6 -5 14 -5t13 5l99 99q5 5 5 13t-5 14l-50 49q-5 5 -5 13t5 14q14 12 28 0l49 -50q5 -5 13 -5t14 5l98 99q6 5 6 13.5t-6 13.5l-49 49q-5 6 -5 14t5 13l49 50q6 5 6 13t-6 13l-49 50q-5 5 -5 13t5 13l49 50q6 5 6 13t-6 14l-49 49q-8 9 -4.5 19t12.5 12.5 t19 -4.5l49 -49q5 -6 13 -6t14 6l49 49q14 12 27 -1t0 -26l-49 -49q-5 -6 -5 -14t5 -13l49 -50q6 -5 6 -13t-6 -13l-49 -50q-5 -5 -5 -13t5 -13l49 -50q6 -5 6 -13t-6 -14l-49 -49q-5 -5 -5 -13.5t5 -13.5l49 -49q13 -13 0 -26t-27 -1l-49 49q-14 14 -27 0l-99 -98 q-13 -14 0 -27l50 -49q12 -14 0 -28q-14 -13 -27 0l-49 50q-14 13 -27 0l-99 -99q-13 -13 0 -27l50 -49q13 -13 0 -27q-14 -12 -28 0l-49 49q-13 14 -27 0l-49 -49q-13 -13 -27 0q-13 14 0 27l49 49q14 14 0 27l-98 99q-5 5 -13.5 5t-13.5 -5l-49 -50q-14 -13 -27 1t0 27 l49 49q13 13 0 27l-99 98q-5 6 -13 6t-13 -6l-50 -49q-13 -13 -27 0zM118 457l23 -22q5 -5 13 -5t13 5l23 22q5 6 5 14t-5 13l-23 22q-5 6 -13 6t-13 -6l-23 -22q-5 -5 -5 -13t5 -14zM118 610l23 -23q5 -5 13 -5t13 5l23 23q5 5 5 13t-5 13l-23 23q-5 5 -13 5t-13 -5 l-23 -23q-5 -5 -5 -13t5 -13zM728 457l22 -22q5 -5 13 -5t14 5l22 22q6 6 6 14t-6 13l-22 22q-6 6 -14 6t-13 -6l-22 -22q-6 -5 -6 -13t6 -14zM728 610l22 -23q5 -5 13 -5t14 5l22 23q6 5 6 13t-6 13l-22 23q-6 5 -14 5t-13 -5l-22 -23q-6 -5 -6 -13t6 -13z" />
<glyph unicode="W" horiz-adv-x="916" d="M64 179l49 49q12 14 0 28l-49 49q-6 5 -6 13t6 14l49 49q5 5 5 13t-5 14l-49 49q-6 5 -6 13.5t6 13.5l49 49q5 6 5 14t-5 13l-49 50q-6 5 -6 13t6 13l49 50q5 5 5 13t-5 14l-49 49q-13 11 -1 25q14 14 27 2l50 -49q5 -6 13 -6t13 6l50 49q13 13 27 0q13 -13 0 -27 l-49 -49q-14 -14 0 -27l49 -50q13 -13 0 -26l-49 -50q-14 -13 0 -27l49 -49q13 -14 0 -27l-49 -49q-14 -14 0 -27l49 -49q13 -14 0 -27l-49 -49q-14 -14 0 -28l98 -98q14 -13 27 0l99 98q12 14 0 28l-50 49q-13 13 0 27l50 49q13 13 0 27l-50 49q-5 5 -5 13.5t5 13.5l50 49 q13 14 0 27l-50 50q-13 13 0 26l50 50q13 13 0 27l-50 49q-5 5 -5 13.5t5 13.5q14 13 27 0l49 -49q14 -14 27 0l50 49q13 13 27 0q5 -5 5 -13.5t-5 -13.5l-50 -49q-13 -14 0 -27l50 -50q13 -13 0 -26l-50 -50q-13 -13 0 -27l50 -49q5 -5 5 -13.5t-5 -13.5l-50 -49 q-13 -14 0 -27l50 -49q13 -14 0 -27l-50 -49q-12 -14 0 -28l99 -98q13 -13 27 0l98 98q14 14 0 28l-49 49q-13 13 0 27l49 49q14 13 0 27l-49 49q-13 13 0 27l49 49q14 14 0 27l-49 50q-13 13 0 26l49 50q14 13 0 27l-49 49q-13 14 0 27t27 0l49 -49q14 -14 27 0l50 49 q12 12 26 0q13 -14 0 -27l-49 -49q-5 -6 -5 -14t5 -13l49 -50q6 -5 6 -13t-6 -13l-49 -50q-5 -5 -5 -13t5 -14l49 -49q6 -5 6 -13.5t-6 -13.5l-49 -49q-5 -6 -5 -14t5 -13l49 -49q6 -6 6 -14t-6 -13l-49 -49q-12 -14 0 -28l49 -49q8 -7 5 -17.5t-12.5 -13.5t-18.5 4l-50 50 q-5 5 -13 5t-14 -5l-98 -99q-6 -5 -6 -13t6 -14l49 -49q8 -8 4 -18.5t-13 -13.5t-18 5l-49 49q-6 6 -14 6t-13 -6l-49 -49q-6 -6 -14 -6t-13 6q-6 5 -6 13.5t6 13.5l49 49q5 6 5 14t-5 13l-99 99q-5 5 -13 5t-14 -5l-98 -99q-6 -5 -6 -13t6 -14l49 -49q13 -13 0 -27t-27 0 l-49 49q-5 6 -13 6t-14 -6l-49 -49q-6 -6 -14 -6t-13 6q-6 5 -6 13.5t6 13.5l49 49q5 6 5 14t-5 13l-99 99q-5 5 -13 5t-13 -5l-50 -50q-14 -14 -27 2q-12 14 1 25zM117 305l23 -23q5 -5 13 -5t13 5l23 23q5 5 5 13t-5 14l-23 22q-5 5 -13 5t-13 -5l-23 -22q-5 -6 -5 -14 t5 -13zM117 457l23 -22q5 -6 13 -6t13 6l23 22q5 5 5 13.5t-5 13.5l-23 22q-5 6 -13 6t-13 -6l-23 -22q-5 -5 -5 -13.5t5 -13.5zM117 610l23 -23q5 -5 13 -5t13 5l23 23q5 5 5 13t-5 13l-23 23q-5 5 -13 5t-13 -5l-23 -23q-5 -5 -5 -13t5 -13zM422 305l22 -23q6 -5 14 -5 t13 5l23 23q5 5 5 13t-5 14l-23 22q-5 5 -13 5t-14 -5l-22 -22q-5 -6 -5 -14t5 -13zM422 457l22 -22q6 -6 14 -6t13 6l23 22q5 5 5 13.5t-5 13.5l-23 22q-5 6 -13 6t-14 -6l-22 -22q-5 -5 -5 -13.5t5 -13.5zM422 610l22 -23q6 -5 14 -5t13 5l23 23q5 5 5 13t-5 13l-23 23 q-5 5 -13 5t-14 -5l-22 -23q-5 -5 -5 -13t5 -13zM727 305l22 -23q6 -5 14 -5t13 5l22 23q6 5 6 13t-6 14l-22 22q-5 5 -13 5t-14 -5l-22 -22q-5 -6 -5 -14t5 -13zM727 457l22 -22q6 -6 14 -6t13 6l22 22q6 5 6 13.5t-6 13.5l-22 22q-5 6 -13 6t-14 -6l-22 -22 q-5 -5 -5 -13.5t5 -13.5zM727 610l22 -23q6 -5 14 -5t13 5l22 23q6 5 6 13t-6 13l-22 23q-5 5 -13 5t-14 -5l-22 -23q-5 -5 -5 -13t5 -13z" />
<glyph unicode="X" horiz-adv-x="917" d="M64 0q-5 6 -5 14t5 13l49 49q6 6 6 14t-6 13l-49 49q-13 15 2 28q14 10 25 -1l50 -49q5 -5 13 -5t13 5l99 99q5 5 5 13t-5 14l-49 49q-13 11 -1 25q13 16 27 2l50 -50q5 -5 13 -5t14 5l98 99q6 5 6 13t-6 14l-98 98q-6 6 -14 6t-13 -6l-50 -49q-8 -8 -18.5 -4t-13 13 t5.5 18l49 49q5 6 5 14t-5 13l-99 99q-5 5 -13 5t-13 -5l-50 -49q-7 -8 -17.5 -5t-13.5 12.5t4 18.5l49 50q6 5 6 13t-6 14l-49 49q-5 5 -5 13.5t5 13.5q6 5 14 5t13 -5l50 -49q5 -6 13 -6t13 6l50 49q12 12 26 0q13 -14 0 -27l-49 -49q-5 -6 -5 -14t5 -13l99 -99 q5 -5 13 -5t14 5l49 49q8 9 18 5.5t13 -13t-4 -18.5l-49 -50q-6 -5 -6 -13t6 -14l98 -98q6 -5 14 -5t13 5l99 98q5 6 5 14t-5 13l-50 50q-8 8 -4 18.5t13.5 13t17.5 -5.5l49 -49q14 -12 28 0l98 99q14 13 0 27l-49 49q-9 8 -5.5 18t13 13t19.5 -4l49 -49q5 -6 13 -6t14 6 l49 49q8 8 19 4.5t13.5 -13t-5.5 -18.5l-49 -49q-13 -14 0 -27l49 -50q6 -5 6 -13t-6 -13q-5 -6 -13.5 -6t-13.5 6l-49 49q-14 13 -27 0l-99 -99q-13 -13 0 -27l50 -49q13 -14 0 -27q-14 -13 -27 0l-49 49q-14 14 -28 0l-98 -98q-13 -14 0 -27l98 -99q14 -12 28 0l49 50 q13 13 27 0q13 -14 0 -27l-50 -49q-13 -14 0 -27l99 -99q13 -13 27 0l49 49q5 6 13.5 6t13.5 -6q14 -13 0 -27l-49 -49q-13 -13 0 -27l49 -49q14 -13 0 -27q-5 -5 -13.5 -5t-13.5 5l-49 49q-14 14 -27 0l-49 -49q-9 -8 -19.5 -4t-13 13t5.5 18l49 49q14 14 0 27l-98 99 q-14 12 -28 0l-49 -50q-13 -13 -27 0q-13 14 0 27l50 50q13 13 0 27l-99 98q-13 14 -27 0l-98 -98q-14 -14 0 -27l49 -50q13 -13 0 -27q-5 -5 -13.5 -5t-13.5 5l-49 50q-14 13 -27 0l-99 -99q-13 -13 0 -27l49 -49q8 -7 5 -17.5t-12.5 -13.5t-18.5 4l-50 49q-5 6 -13 6 t-13 -6l-50 -49q-13 -13 -27 0z" />
<glyph unicode="Y" horiz-adv-x="917" d="M64 609q-5 6 -5 14t5 13l49 49q6 6 6 14t-6 13l-49 50q-5 5 -5 13t5 14q6 5 14 5t13 -5l49 -50q6 -5 14 -5t13 5l50 50q5 5 13 5t14 -5q5 -6 5 -14t-5 -13l-50 -50q-5 -5 -5 -13t5 -14l99 -98q5 -5 13 -5t14 5l49 49q8 9 18 5.5t13 -13t-4 -19.5l-50 -49q-5 -5 -5 -13.5 t5 -13.5l99 -98q13 -14 27 0l98 98q6 5 6 13.5t-6 13.5l-49 49q-8 9 -4 19.5t13 13t18 -5.5l49 -49q14 -13 27 0l99 98q13 14 0 27l-50 50q-13 13 0 27q14 13 27 0l50 -50q13 -13 27 0l49 50q13 13 27 0q13 -14 0 -27l-50 -50q-13 -13 0 -27l50 -49q13 -13 0 -27 q-14 -13 -27 0l-49 50q-14 13 -27 0l-99 -99q-13 -14 0 -27l49 -49q9 -8 5.5 -18t-13 -13t-19.5 4l-49 49q-13 14 -27 0l-98 -98q-14 -14 0 -27l49 -49q13 -14 0 -27l-49 -50q-14 -13 0 -27l49 -49q13 -13 0 -27l-49 -49q-14 -13 0 -27l49 -49q5 -5 5 -13.5t-5 -13.5 t-13.5 -5t-13.5 5l-49 49q-14 14 -27 0l-49 -49q-9 -8 -19.5 -4t-13 13t5.5 18l49 49q13 14 0 27l-49 49q-14 14 0 27l49 49q13 14 0 27l-49 50q-14 13 0 27l49 49q13 13 0 27l-98 98q-14 14 -27 0l-49 -49q-9 -8 -19.5 -4t-13 13t5.5 18l49 49q5 5 5 13.5t-5 13.5l-99 99 q-13 13 -27 0l-49 -50q-13 -13 -27 0zM423 152l22 -22q5 -5 13 -5t14 5l22 22q6 6 6 14t-6 13l-22 22q-6 6 -14 6t-13 -6l-22 -22q-6 -5 -6 -13t6 -14zM423 305l22 -23q5 -5 13 -5t14 5l22 23q6 5 6 13t-6 14l-22 22q-6 5 -14 5t-13 -5l-22 -22q-6 -6 -6 -14t6 -13z" />
<glyph unicode="Z" horiz-adv-x="765" d="M64 0q-5 6 -5 14t5 13l50 49q5 6 5 14t-5 13l-50 49q-12 14 0 28q14 12 28 0l49 -50q5 -5 13 -5t14 5l98 99q6 5 6 13t-6 14l-49 49q-5 5 -5 13t5 14q5 5 13 5t14 -5l49 -49q5 -6 13.5 -6t13.5 6l98 98q6 5 6 13.5t-6 13.5l-49 49q-8 9 -4 19.5t13 13t18 -5.5l50 -49 q5 -5 13 -5t13 5l99 99q5 5 5 13t-5 13l-99 99q-5 5 -13 5t-13 -5l-50 -49q-5 -6 -13 -6t-14 6l-49 49q-5 5 -13.5 5t-13.5 -5l-49 -49q-6 -6 -14 -6t-13 6l-49 49q-6 5 -14 5t-13 -5l-49 -49q-13 -13 -27 0t-1 27l50 49q5 5 5 13.5t-5 13.5l-50 49q-5 6 -5 14t5 13 q14 12 28 0l49 -49q5 -6 13 -6t14 6l49 49q5 5 13 5t14 -5l49 -49q5 -6 13.5 -6t13.5 6l49 49q6 5 14 5t13 -5l50 -49q5 -6 13 -6t13 6l50 49q5 5 13 5t13 -5l50 -49q5 -6 13 -6t14 6l49 49q14 12 26.5 -0.5t0.5 -26.5l-49 -49q-6 -5 -6 -13.5t6 -13.5l49 -49q13 -14 0 -27 l-49 -50q-6 -5 -6 -13t6 -13l49 -50q13 -13 0 -27q-13 -13 -27 0l-49 50q-14 13 -27 0l-99 -99q-13 -14 0 -27l49 -49q8 -8 4.5 -18.5t-12.5 -13t-18 4.5l-50 49q-5 6 -13 6t-13 -6l-99 -98q-13 -14 0 -27l99 -99q13 -13 26 0l50 50q13 13 26 0l50 -50q13 -13 27 0l49 50 q14 13 27 0q12 -14 0 -28l-49 -49q-14 -13 0 -27l49 -49q13 -13 0 -27q-13 -13 -27 0l-49 50q-14 13 -27 0l-50 -50q-13 -13 -26 0l-50 50q-13 13 -26 0l-50 -50q-13 -13 -27 0l-49 50q-5 5 -13.5 5t-13.5 -5l-49 -50q-14 -13 -27 0l-49 50q-14 13 -27 0l-49 -50 q-14 -12 -28 0zM194 76l23 -22q5 -5 13 -5t14 5l22 22q6 6 6 14t-6 13l-22 23q-6 5 -14 5t-13 -5l-23 -23q-5 -5 -5 -13t5 -14zM194 686l23 -22q5 -6 13 -6t14 6l22 22q6 5 6 13.5t-6 13.5l-22 22q-6 6 -14 6t-13 -6l-23 -22q-5 -5 -5 -13.5t5 -13.5zM271 152l22 -22 q5 -5 13.5 -5t13.5 5l22 22q6 6 6 14t-6 14l-22 22q-5 5 -13.5 5t-13.5 -5l-22 -22q-6 -6 -6 -14t6 -14zM347 76l22 -22q6 -5 14 -5t13 5l22 22q6 6 6 14t-6 13l-22 23q-5 5 -13 5t-14 -5l-22 -23q-5 -5 -5 -13t5 -14zM347 686l22 -22q6 -6 14 -6t13 6l22 22q6 5 6 13.5 t-6 13.5l-22 22q-5 6 -13 6t-14 -6l-22 -22q-5 -5 -5 -13.5t5 -13.5zM499 76l23 -22q5 -5 13 -5t13 5l23 22q5 6 5 14t-5 13l-23 23q-5 5 -13 5t-13 -5l-23 -23q-5 -5 -5 -13t5 -14zM499 686l23 -22q5 -6 13 -6t13 6l23 22q5 5 5 13.5t-5 13.5l-23 22q-5 6 -13 6t-13 -6 l-23 -22q-5 -5 -5 -13.5t5 -13.5zM576 610l22 -22q5 -6 13 -6t14 6l22 22q5 5 5 13t-5 14l-22 22q-6 5 -14 5t-13 -5l-22 -22q-6 -6 -6 -14t6 -13z" />
<glyph unicode="[" horiz-adv-x="460" d="M64 305q-13 13 0 27q14 13 27 0l305 -305q14 -14 0 -27q-13 -14 -27 0z" />
<glyph unicode="\" horiz-adv-x="918" d="M64 636l49 50q6 5 6 13t-6 14l-49 49q-5 6 -5 14t5 13q6 5 14 5t13 -5l49 -49q6 -6 14 -6t13 6l49 49q14 12 28 0q5 -5 5 -13t-5 -14l-50 -49q-5 -6 -5 -14t5 -13l99 -99q5 -5 13 -5t14 5l49 49q7 9 17.5 5.5t13.5 -13t-4 -18.5l-50 -50q-5 -5 -5 -13t5 -13l99 -99 q5 -5 13.5 -5t13.5 5l49 49q6 6 14 6t13 -6q6 -5 6 -13t-6 -14l-49 -49q-5 -5 -5 -13.5t5 -13.5l99 -99q5 -5 13 -5t13 5l50 50q5 5 13 5t14 -5q5 -6 5 -14t-5 -13l-50 -49q-5 -6 -5 -14t5 -13l99 -99q5 -5 13.5 -5t13.5 5l49 50q6 5 14 5t13 -5q12 -14 0 -28l-49 -49 q-4 -3 -5.5 -8t0 -10t5.5 -9l49 -49q5 -5 5 -13t-5 -14q-5 -5 -13 -5t-14 5l-49 49q-5 6 -13.5 6t-13.5 -6l-49 -49q-9 -8 -19.5 -4t-13 13t5.5 18l49 49q5 6 5 14t-5 13l-99 99q-5 5 -13 5t-13 -5l-50 -50q-5 -5 -13 -5t-14 5q-12 14 0 28l49 49q6 5 6 13t-6 14l-98 98 q-5 6 -13.5 6t-13.5 -6l-49 -49q-14 -12 -26.5 0.5t-0.5 26.5l49 49q6 5 6 13.5t-6 13.5l-98 98q-6 6 -14 6t-13 -6l-49 -49q-14 -12 -28 0q-5 6 -5 14t5 13l50 50q5 5 5 13t-5 13l-99 99q-5 5 -13 5t-14 -5l-49 -49q-7 -9 -17.5 -5.5t-13.5 13t4 18.5z" />
<glyph unicode="]" horiz-adv-x="460" d="M64 0q-14 13 0 27l305 305q13 13 27 0q13 -14 0 -27l-305 -305q-14 -14 -27 0z" />
<glyph unicode="_" horiz-adv-x="963" d="M64 153q-14 13 0 27q14 13 27 0l240 -240q5 -5 13.5 -5t13.5 5l49 49q14 14 27 0l50 -49q13 -13 26 0l50 49q13 14 27 0l49 -49q13 -13 27 0l49 49q14 14 27 0l49 -49q14 -13 27 0l49 49q14 14 27 0q14 -13 0 -27l-49 -49q-13 -13 0 -27l202 -202q8 -8 4 -18t-13.5 -12.5 t-18.5 4.5l-201 201q-13 13 -27 0l-49 -49q-13 -14 -27 0l-49 49q-14 13 -27 0l-49 -49q-14 -14 -27 0l-50 49q-13 13 -26 0l-50 -49q-13 -14 -27 0l-49 49q-14 13 -27 0l-49 -49q-14 -14 -27 0t0 27l49 49q14 14 0 27zM384 -87q-13 -13 0 -27l23 -22q14 -14 27 0l22 22 q14 14 0 27l-22 22q-13 13 -27 0zM537 -87q-13 -13 0 -27l23 -22q13 -14 27 0l21 22q14 14 0 27l-21 22q-14 13 -27 0zM689 -87q-13 -13 0 -27l23 -22q14 -14 27 0l22 22q13 14 0 27l-22 22q-13 13 -27 0z" />
<glyph unicode="a" horiz-adv-x="765" d="M64 0q-5 6 -5 14t5 13l49 49q6 6 6 14t-6 13l-49 49q-12 14 0 28l49 49q6 5 6 13t-6 14l-49 49q-5 5 -5 13t5 14l49 49q6 5 6 13.5t-6 13.5l-49 49q-5 6 -5 14t5 13l49 50q6 5 6 13t-6 13l-49 50q-8 8 -4.5 18t13 12.5t18.5 -4.5l49 -49q5 -5 13.5 -5t13.5 5l98 99 q6 5 6 13t-6 14l-49 49q-5 6 -5 14t5 13q6 5 14 5t13 -5l50 -49q5 -6 13 -6t13 6l50 49q5 5 13 5t14 -5l49 -49q5 -6 13.5 -6t13.5 6l49 49q14 12 26.5 -0.5t0.5 -26.5l-49 -49q-14 -14 0 -27l98 -99q14 -13 27 0l49 49q8 8 19 5t13.5 -12.5t-4.5 -18.5l-50 -50 q-13 -13 0 -26l50 -50q13 -13 0 -27l-50 -49q-13 -14 0 -27l50 -49q13 -14 0 -27l-50 -49q-13 -14 0 -27l50 -49q12 -14 0 -28l-50 -49q-13 -13 0 -27l50 -49q13 -13 0 -27q-14 -12 -28 0l-49 49q-13 14 -27 0l-49 -49q-13 -13 -27 0q-13 14 0 27l49 49q14 14 0 27l-49 49 q-12 14 0 28l49 49q14 13 0 27l-98 98q-5 6 -13.5 6t-13.5 -6l-99 -98q-13 -14 0 -27l50 -49q12 -14 0 -28q-14 -13 -27 0l-50 50q-13 13 -26 0l-99 -99q-13 -13 0 -27l49 -49q9 -8 5.5 -18t-13 -13t-19.5 4l-49 49q-5 6 -13.5 6t-13.5 -6l-49 -49q-14 -13 -27 0zM118 152 l22 -22q5 -5 13.5 -5t13.5 5l22 22q6 6 6 14t-6 14l-22 22q-5 5 -13.5 5t-13.5 -5l-22 -22q-12 -14 0 -28zM118 305l22 -23q5 -5 13.5 -5t13.5 5l22 23q6 5 6 13t-6 14l-22 22q-5 6 -13.5 6t-13.5 -6l-22 -22q-5 -6 -5 -14t5 -13zM118 457l22 -22q5 -5 13.5 -5t13.5 5l22 22 q6 6 6 14t-6 13l-22 22q-5 6 -13.5 6t-13.5 -6l-22 -22q-5 -5 -5 -13t5 -14zM194 229l22 -23q6 -5 14 -5t13 5l22 23q6 5 6 13t-6 14l-22 22q-5 5 -13 5t-14 -5l-22 -22q-5 -6 -5 -14t5 -13zM194 381l99 -99q5 -5 13 -5t13 5l99 99q5 5 5 13.5t-5 13.5l-49 49q-6 6 -6 14 t6 13q5 6 13 6t14 -6l49 -49q5 -5 13.5 -5t13.5 5l98 99q6 5 6 13t-6 13l-98 99q-5 5 -13.5 5t-13.5 -5l-49 -49q-6 -6 -14 -6t-13 6l-50 49q-5 5 -13 5t-13 -5l-99 -99q-5 -5 -5 -13t5 -13l49 -50q6 -5 6 -13t-6 -14l-49 -49q-5 -5 -5 -13.5t5 -13.5zM346 686l23 -22 q5 -6 13 -6t14 6l22 22q5 5 5 13t-5 14l-22 22q-6 5 -14 5t-13 -5l-23 -22q-5 -6 -5 -14t5 -13zM499 381l22 -22q6 -6 14 -6t13 6l22 22q6 5 6 13.5t-6 13.5l-22 22q-5 6 -13 6t-14 -6l-22 -22q-6 -5 -6 -13.5t6 -13.5zM575 152l22 -22q6 -5 14 -5t13 5l23 22q12 14 0 28 l-23 22q-5 5 -13 5t-14 -5l-22 -22q-6 -6 -6 -14t6 -14zM575 305l22 -23q6 -5 14 -5t13 5l23 23q5 5 5 13t-5 14l-23 22q-5 6 -13 6t-14 -6l-22 -22q-6 -6 -6 -14t6 -13zM575 457l22 -22q6 -5 14 -5t13 5l23 22q5 6 5 14t-5 13l-23 22q-5 6 -13 6t-14 -6l-22 -22 q-6 -5 -6 -13t6 -14z" />
<glyph unicode="b" d="M64 27l49 49q5 6 5 14t-5 13l-49 49q-6 6 -6 14t6 13l49 49q12 14 0 28l-49 49q-6 5 -6 13t6 14l49 49q5 5 5 13t-5 14l-49 49q-6 5 -6 13.5t6 13.5l49 49q5 6 5 14t-5 13l-49 50q-6 5 -6 13t6 13l49 50q5 5 5 13t-5 14l-49 49q-9 8 -5.5 18t13 13t19.5 -4l49 -49 q6 -6 14 -6t13 6l49 49q6 5 14 5t13 -5l49 -49q6 -6 14 -6t13 6l50 49q5 5 13 5t14 -5l49 -49q5 -6 13 -6t14 6l49 49q5 5 13 5t14 -5q5 -5 5 -13.5t-5 -13.5l-49 -49q-6 -6 -6 -14t6 -13l98 -99q6 -5 14 -5t13 5l50 49q5 6 13 6t13 -6q6 -5 6 -13t-6 -13l-49 -50 q-5 -5 -5 -13t5 -14l49 -49q9 -8 5.5 -18t-13 -13t-18.5 4l-50 49q-5 6 -13 6t-14 -6l-98 -98q-6 -6 -6 -14t6 -13l98 -99q6 -5 14 -5t13 5l50 50q8 8 18.5 4t13 -13.5t-5.5 -17.5l-49 -49q-12 -14 0 -28l49 -49q8 -7 5 -17.5t-12.5 -13.5t-18.5 4l-50 50q-13 13 -27 0 l-98 -99q-14 -13 0 -27l49 -49q13 -13 0 -27q-14 -14 -27 0l-49 49q-14 14 -27 0l-49 -49q-14 -14 -27 0l-50 49q-13 14 -27 0l-49 -49q-13 -14 -27 0l-49 49q-13 14 -27 0l-49 -49q-9 -9 -19.5 -5t-13 13.5t5.5 18.5zM118 152l22 -22q6 -5 14 -5t13 5l22 22q6 6 6 14t-6 13 l-22 23q-5 5 -13 5t-14 -5l-22 -23q-6 -5 -6 -13t6 -14zM118 305l22 -23q6 -5 14 -5t13 5l22 23q6 5 6 13t-6 14l-22 22q-5 6 -13 6t-14 -6l-22 -22q-6 -6 -6 -14t6 -13zM118 457l22 -22q6 -5 14 -5t13 5l22 22q6 5 6 13.5t-6 13.5l-22 22q-5 6 -13 6t-14 -6l-22 -22 q-6 -5 -6 -13.5t6 -13.5zM118 610l22 -23q6 -5 14 -5t13 5l22 23q6 5 6 13t-6 13l-22 23q-5 5 -13 5t-14 -5l-22 -23q-6 -5 -6 -13t6 -13zM194 76l22 -22q6 -6 14 -6t13 6l23 22q5 6 5 14t-5 13l-23 23q-5 5 -13 5t-14 -5l-22 -23q-6 -5 -6 -13t6 -14zM194 228l98 -98 q6 -5 14 -5t13 5l50 49q5 6 13 6t14 -6l49 -49q5 -5 13 -5t14 5l98 98q6 6 6 14t-6 14l-98 98q-6 6 -14 6t-13 -6l-49 -49q-6 -6 -14 -6t-13 6l-50 49q-5 6 -13 6t-14 -6l-98 -98q-6 -6 -6 -14t6 -14zM194 381l22 -22q6 -6 14 -6t13 6l23 22q5 5 5 13t-5 14l-23 22 q-5 6 -13 6t-14 -6l-22 -22q-6 -6 -6 -14t6 -13zM194 533l98 -98q6 -5 14 -5t13 5l50 49q5 6 13 6t14 -6l49 -49q5 -5 13 -5t14 5l98 98q6 6 6 14t-6 13l-98 99q-6 5 -14 5t-13 -5l-49 -49q-6 -6 -14 -6t-13 6l-50 49q-5 5 -13 5t-14 -5l-98 -99q-6 -5 -6 -13t6 -14z M194 686l22 -22q6 -6 14 -6t13 6l23 22q5 5 5 13t-5 14l-23 22q-5 5 -13 5t-14 -5l-22 -22q-6 -6 -6 -14t6 -13zM346 76l23 -22q5 -6 13 -6t14 6l22 22q5 6 5 14t-5 13l-22 23q-6 5 -14 5t-13 -5l-23 -23q-5 -5 -5 -13t5 -14zM346 381l23 -22q5 -6 13 -6t14 6l22 22 q5 5 5 13t-5 14l-22 22q-6 6 -14 6t-13 -6l-23 -22q-5 -6 -5 -14t5 -13zM346 686l23 -22q5 -6 13 -6t14 6l22 22q5 5 5 13t-5 14l-22 22q-6 5 -14 5t-13 -5l-23 -22q-5 -6 -5 -14t5 -13z" />
<glyph unicode="c" d="M64 179l49 49q12 14 0 28l-49 49q-6 5 -6 13t6 14l49 49q5 5 5 13t-5 14l-49 49q-6 5 -6 13.5t6 13.5l49 49q5 6 5 14t-5 13l-49 50q-6 5 -6 13t6 13q5 6 13 6t14 -6l49 -49q5 -5 13 -5t14 5l98 99q6 5 6 13t-6 14l-49 49q-5 5 -5 13.5t5 13.5t13 5t14 -5l49 -49 q6 -6 14 -6t13 6l50 49q5 5 13 5t13 -5l50 -49q5 -6 13 -6t13 6l50 49q5 5 13 5t14 -5q5 -5 5 -13.5t-5 -13.5l-49 -49q-6 -6 -6 -14t6 -13l98 -99q6 -5 14 -5t13 5l49 49q8 8 18.5 4.5t13 -12.5t-4.5 -18l-49 -50q-6 -5 -6 -13t6 -14l49 -49q5 -5 5 -13.5t-5 -13.5t-13 -5 t-14 5l-49 49q-5 6 -13 6t-14 -6l-49 -49q-9 -8 -19.5 -4t-13 13t5.5 18l49 49q5 6 5 14t-5 13l-99 99q-5 5 -13 5t-13 -5l-50 -49q-5 -6 -13 -6t-13 6l-50 49q-5 5 -13 5t-14 -5l-98 -99q-6 -5 -6 -13t6 -14l49 -49q5 -5 5 -13.5t-5 -13.5l-49 -49q-6 -6 -6 -14t6 -13 l49 -49q5 -6 5 -14t-5 -13l-49 -49q-6 -6 -6 -14t6 -14l98 -98q6 -5 14 -5t13 5l50 49q5 6 13 6t13 -6l50 -49q5 -5 13 -5t13 5l99 98q12 14 0 28l-49 49q-9 8 -5.5 18t13 13t19.5 -4l49 -50q14 -13 27 0l49 50q14 13 27 0q13 -14 0 -27l-49 -49q-14 -14 0 -28l49 -49 q13 -13 0 -27q-13 -13 -27 0l-49 50q-13 13 -27 0l-98 -99q-14 -13 0 -27l49 -49q13 -13 0 -27q-14 -14 -27 0l-50 49q-5 6 -13 6t-13 -6l-50 -49q-5 -6 -13 -6t-13 6l-50 49q-13 14 -27 0l-49 -49q-14 -14 -27 0t0 27l49 49q14 14 0 27l-98 99q-14 13 -27 0l-49 -50 q-9 -8 -19.5 -4t-13 13t5.5 18zM117 305l23 -23q5 -5 13 -5t14 5l22 23q6 5 6 13t-6 14l-22 22q-6 6 -14 6t-13 -6l-23 -22q-5 -6 -5 -14t5 -13zM117 457l23 -22q5 -5 13 -5t14 5l22 22q6 5 6 13.5t-6 13.5l-22 22q-6 6 -14 6t-13 -6l-23 -22q-5 -5 -5 -13.5t5 -13.5z M346 76l23 -22q5 -6 13 -6t13 6l23 22q5 6 5 14t-5 13l-23 23q-5 5 -13 5t-13 -5l-23 -23q-5 -5 -5 -13t5 -14zM346 686l23 -22q5 -6 13 -6t13 6l23 22q5 5 5 13t-5 14l-23 22q-5 5 -13 5t-13 -5l-23 -22q-5 -6 -5 -14t5 -13z" />
<glyph unicode="d" horiz-adv-x="765" d="M64 27l49 49q14 14 0 27l-49 49q-13 14 0 27l49 49q14 14 0 28l-49 49q-13 13 0 27l49 49q14 13 0 27l-49 49q-5 5 -5 13.5t5 13.5l49 49q14 14 0 27l-49 50q-13 13 0 26l49 50q14 13 0 27l-49 49q-5 5 -5 13.5t5 13.5q13 13 27 0l49 -49q14 -14 27 0l50 49q13 13 26 0 l50 -49q5 -6 13 -6t13 6l50 49q13 13 27 0l49 -49q14 -14 27 0l49 49q14 13 27 0q5 -5 5 -13.5t-5 -13.5l-49 -49q-14 -14 0 -27l98 -99q14 -13 27 0l50 49q7 8 17.5 5t13.5 -12.5t-4 -18.5l-50 -50q-13 -13 0 -27l50 -49q13 -14 0 -27l-50 -49q-13 -14 0 -27l50 -49 q13 -14 0 -27l-50 -49q-12 -14 0 -28l50 -49q13 -13 0 -27q-14 -13 -27 0l-50 50q-13 13 -27 0l-98 -99q-14 -13 0 -27l49 -49q13 -13 0 -27t-27 0l-49 49q-13 14 -27 0l-49 -49q-14 -14 -27 0l-50 49q-5 6 -13 6t-13 -6l-50 -49q-5 -6 -13 -6t-13 6l-50 49q-13 14 -27 0 l-49 -49q-14 -14 -27 0t0 27zM118 152l22 -22q14 -13 27 0l22 22q14 14 0 27l-22 23q-13 13 -27 0l-22 -23q-13 -13 0 -27zM118 305l22 -23q14 -13 27 0l22 23q14 13 0 27l-22 22q-13 14 -27 0l-22 -22q-13 -14 0 -27zM118 457l22 -22q14 -13 27 0l22 22q6 5 6 13.5t-6 13.5 l-22 22q-13 14 -27 0l-22 -22q-5 -5 -5 -13.5t5 -13.5zM118 610l22 -23q14 -13 27 0l22 23q6 5 6 13t-6 13l-22 23q-13 13 -27 0l-22 -23q-13 -13 0 -26zM194 76l23 -22q5 -6 13 -6t13 6l23 22q13 14 0 27l-23 23q-13 13 -26 0l-23 -23q-13 -13 0 -27zM194 228l99 -98 q13 -13 26 0l50 49q13 14 27 0l49 -49q14 -13 27 0l99 98q12 14 0 28l-50 49q-13 13 0 27l50 49q13 13 0 27l-50 49q-13 13 0 27l50 49q13 14 0 27l-99 99q-13 13 -27 0l-49 -49q-14 -14 -27 0l-50 49q-13 13 -26 0l-99 -99q-13 -13 0 -27l49 -49q6 -5 6 -13.5t-6 -13.5 l-49 -49q-13 -14 0 -27l49 -49q14 -14 0 -27l-49 -49q-12 -14 0 -28zM194 686l23 -22q5 -6 13 -6t13 6l23 22q13 13 0 27l-23 22q-13 13 -26 0l-23 -22q-13 -14 0 -27zM347 76l22 -22q13 -14 27 0l22 22q13 14 0 27l-22 23q-14 13 -27 0l-22 -23q-14 -13 0 -27zM347 686 l22 -22q13 -14 27 0l22 22q13 13 0 27l-22 22q-14 13 -27 0l-22 -22q-14 -14 0 -27zM575 305l22 -23q14 -13 27 0l23 23q13 13 0 27l-23 22q-13 14 -27 0l-22 -22q-13 -14 0 -27zM575 457l22 -22q14 -13 27 0l23 22q13 13 0 27l-23 22q-13 14 -27 0l-22 -22q-13 -14 0 -27z " />
<glyph unicode="e" horiz-adv-x="765" d="M64 152q-5 6 -5 14t5 13l49 49q6 6 6 14t-6 14l-49 49q-5 5 -5 13t5 14l49 49q6 5 6 13t-6 14l-49 49q-5 5 -5 13.5t5 13.5l49 49q6 6 6 14t-6 13l-49 50q-8 8 -4.5 18t13 12.5t18.5 -4.5l49 -49q6 -5 14 -5t13 5l99 99q5 5 5 13t-5 14l-49 49q-13 11 -1 25q14 14 27 2 l50 -49q5 -6 13 -6t13 6l50 49q13 13 27 0l49 -49q14 -14 27 0l49 49q14 13 27 0l49 -49q14 -14 27 0l50 49q13 13 27 0q13 -13 0 -27l-50 -49q-13 -14 0 -27l50 -50q8 -8 4 -18.5t-13.5 -13t-17.5 5.5l-50 49q-5 5 -13 5t-14 -5l-49 -49q-5 -6 -13 -6t-14 6l-49 49 q-5 5 -13 5t-14 -5l-49 -49q-6 -6 -14 -6t-13 6l-50 49q-5 5 -13 5t-13 -5l-99 -99q-5 -5 -5 -13t5 -14l99 -98q5 -6 13 -6t13 6l50 49q5 6 13 6t14 -6l49 -49q6 -6 14 -6t13 6l49 49q9 9 19 5t12.5 -13.5t-4.5 -18.5l-49 -49q-6 -6 -6 -14t6 -13l49 -49q8 -9 4.5 -19.5 t-12.5 -13t-19 5.5l-49 49q-5 5 -13 5t-14 -5l-49 -49q-6 -6 -14 -6t-13 6l-50 49q-5 5 -13 5t-13 -5l-99 -98q-12 -14 0 -28l99 -98q5 -5 13 -5t13 5l50 49q5 6 13 6t14 -6l49 -49q6 -5 14 -5t13 5l49 49q6 6 14 6t13 -6l49 -49q6 -5 14 -5t13 5l50 49q8 9 18 5.5t13 -13 t-4 -19.5l-50 -49q-13 -13 0 -27l50 -49q8 -8 4 -18.5t-13 -13.5t-18 5l-50 49q-13 14 -27 0l-49 -49q-13 -14 -27 0l-49 49q-13 14 -27 0l-49 -49q-14 -14 -27 0l-50 49q-5 6 -13 6t-13 -6l-50 -49q-5 -6 -13 -6t-13 6q-6 5 -6 13.5t6 13.5l49 49q13 14 0 27l-99 99 q-13 13 -27 0l-49 -50q-14 -13 -27 0zM118 305l22 -23q6 -5 14 -5t13 5l22 23q6 5 6 13t-6 14l-22 22q-5 5 -13 5t-14 -5l-22 -22q-5 -6 -5 -14t5 -13zM118 457l22 -22q6 -6 14 -6t13 6l22 22q6 5 6 13.5t-6 13.5l-22 22q-5 6 -13 6t-14 -6l-22 -22q-5 -5 -5 -13.5t5 -13.5z M194 381l23 -23q5 -5 13 -5t13 5l23 23q5 5 5 13t-5 14l-23 22q-5 6 -13 6t-13 -6l-23 -22q-5 -6 -5 -14t5 -13zM347 76l22 -22q5 -6 13 -6t14 6l22 22q5 6 5 14t-5 13l-22 22q-6 6 -14 6t-13 -6l-22 -22q-6 -5 -6 -13t6 -14zM347 381l22 -23q5 -5 13 -5t14 5l22 23 q5 5 5 13t-5 14l-22 22q-6 6 -14 6t-13 -6l-22 -22q-6 -6 -6 -14t6 -13zM347 686l22 -23q5 -5 13 -5t14 5l22 23q5 5 5 13t-5 14l-22 22q-6 5 -14 5t-13 -5l-22 -22q-6 -6 -6 -14t6 -13zM499 76l22 -22q6 -6 14 -6t13 6l23 22q5 6 5 14t-5 13l-23 22q-5 6 -13 6t-14 -6 l-22 -22q-6 -5 -6 -13t6 -14zM499 686l22 -23q6 -5 14 -5t13 5l23 23q5 5 5 13t-5 14l-23 22q-5 5 -13 5t-14 -5l-22 -22q-6 -6 -6 -14t6 -13z" />
<glyph unicode="f" d="M64 0q-14 13 0 27l49 49q13 14 0 27l-49 49q-14 14 0 27l49 49q13 14 0 27l-49 50q-14 13 0 27l49 49q13 13 0 27l-49 49q-14 13 0 27l49 49q13 14 0 27l-49 50q-6 5 -6 13t6 13q5 6 13 6t13 -6l50 -49q13 -13 27 0l98 99q6 5 6 13t-6 13l-49 50q-14 13 0 27q14 13 27 0 l49 -49q14 -14 27 0l49 49q14 13 27 0l49 -49q14 -14 28 0l49 49q13 13 27 0l49 -49q13 -14 27 0l49 49q8 8 18.5 4t13.5 -13t-5 -18l-49 -50q-13 -13 0 -26l49 -50q6 -5 6 -13t-6 -13q-5 -6 -13.5 -6t-13.5 6l-49 49q-14 13 -27 0l-49 -49q-14 -14 -27 0l-49 49 q-14 12 -28 0l-49 -49q-13 -14 -27 0l-49 49q-13 13 -27 0l-98 -99q-14 -13 0 -27l98 -98q14 -14 27 0l49 49q14 13 27 0l49 -49q14 -14 28 0l49 49q13 13 27 0q13 -14 0 -27l-50 -49q-13 -14 0 -27l50 -49q8 -9 4 -19.5t-13 -13t-18 5.5l-49 49q-14 12 -28 0l-49 -49 q-13 -14 -27 0l-49 49q-13 13 -27 0l-98 -99q-14 -13 0 -27l49 -49q13 -13 0 -27l-49 -49q-14 -13 0 -27l49 -49q8 -9 4 -19.5t-13 -13t-18 5.5l-49 49q-14 13 -27 0l-50 -49q-5 -6 -13 -6t-13 6zM118 152l22 -22q13 -14 27 0l22 22q13 14 0 27l-22 23q-14 13 -27 0l-22 -23 q-14 -13 0 -27zM118 305l22 -23q13 -13 27 0l22 23q13 13 0 27l-22 22q-14 13 -27 0l-22 -22q-14 -14 0 -27zM118 457l22 -22q13 -14 27 0l22 22q13 13 0 27l-22 22q-14 14 -27 0l-22 -22q-14 -14 0 -27zM194 381l22 -23q5 -5 13.5 -5t13.5 5l22 23q14 13 0 27l-22 22 q-5 6 -13.5 6t-13.5 -6l-22 -22q-14 -14 0 -27zM346 381l22 -23q14 -13 27 0l23 23q13 13 0 27l-23 22q-13 14 -27 0l-22 -22q-13 -14 0 -27zM346 686l22 -23q14 -13 27 0l23 23q13 13 0 26l-23 23q-13 13 -27 0l-22 -23q-13 -13 0 -26zM498 686l23 -23q13 -13 27 0l22 23 q6 5 6 13t-6 13l-22 23q-14 13 -27 0l-23 -23q-13 -13 0 -26z" />
<glyph unicode="g" d="M64 152q-5 6 -5 14t5 13l49 49q6 6 6 14t-6 14l-49 49q-5 5 -5 13t5 14l49 49q6 5 6 13t-6 14l-49 49q-5 5 -5 13.5t5 13.5l49 49q6 6 6 14t-6 13l-49 50q-14 14 2 27q14 12 25 -1l49 -49q6 -5 14 -5t13 5l99 99q5 5 5 13t-5 14l-50 49q-5 5 -5 13.5t5 13.5q6 5 14 5 t13 -5l49 -49q6 -6 14 -6t14 6l49 49q5 5 13 5t14 -5l49 -49q5 -6 13 -6t14 6l49 49q5 5 13.5 5t13.5 -5l49 -49q6 -6 14 -6t13 6l50 49q12 12 26 0q13 -14 0 -27l-49 -49q-13 -14 0 -27l49 -50q6 -5 6 -13t-6 -13q-5 -6 -13 -6t-13 6l-50 49q-13 13 -27 0l-49 -49 q-5 -6 -13.5 -6t-13.5 6l-49 49q-14 13 -27 0l-49 -49q-14 -14 -27 0l-49 49q-14 12 -28 0l-98 -99q-13 -13 0 -27l49 -49q6 -5 6 -13.5t-6 -13.5l-49 -49q-13 -14 0 -27l49 -49q14 -14 0 -27l-49 -49q-12 -14 0 -28l98 -98q14 -14 28 0l49 49q13 14 27 0l49 -49 q13 -14 27 0l98 98q14 14 0 28l-98 98q-14 13 -27 0l-49 -49q-14 -14 -27 0q-14 13 0 27l49 49q14 13 0 27l-49 49q-6 5 -6 13.5t6 13.5q13 14 27 0l49 -49q13 -14 27 0l49 49q5 6 13.5 6t13.5 -6q6 -5 6 -13.5t-6 -13.5l-49 -49q-13 -14 0 -27l98 -99q14 -13 27 0l50 50 q8 8 18.5 4t13 -13.5t-5.5 -17.5l-49 -49q-12 -14 0 -28l49 -49q6 -5 6 -13t-6 -14l-49 -49q-5 -5 -5 -13t5 -14l49 -49q6 -5 6 -13.5t-6 -13.5q-5 -6 -13 -6t-13 6l-50 49q-5 5 -13 5t-14 -5l-49 -49q-5 -6 -13.5 -6t-13.5 6l-49 49q-6 5 -14 5t-13 -5l-49 -49 q-6 -6 -14 -6t-13 6l-49 49q-14 12 -28 0l-49 -49q-8 -9 -18 -5t-13 13.5t4 18.5l50 49q13 14 0 27l-99 99q-13 13 -27 0l-49 -50q-13 -13 -27 0zM118 305l22 -23q6 -5 14 -5t13 5l23 23q5 5 5 13t-5 14l-23 22q-5 5 -13 5t-14 -5l-22 -22q-6 -6 -6 -14t6 -13zM118 457 l22 -22q6 -6 14 -6t13 6l23 22q5 5 5 13.5t-5 13.5l-23 22q-5 6 -13 6t-14 -6l-22 -22q-6 -5 -6 -13.5t6 -13.5zM346 76l23 -22q5 -6 13 -6t14 6l22 22q6 6 6 14t-6 13l-22 22q-6 6 -14 6t-13 -6l-23 -22q-5 -5 -5 -13t5 -14zM346 686l23 -23q5 -5 13 -5t14 5l22 23 q6 5 6 13t-6 14l-22 22q-6 5 -14 5t-13 -5l-23 -22q-5 -6 -5 -14t5 -13zM499 76l22 -22q5 -6 13.5 -6t13.5 6l22 22q6 6 6 14t-6 13l-22 22q-5 6 -13.5 6t-13.5 -6l-22 -22q-5 -5 -5 -13t5 -14zM499 686l22 -23q5 -5 13.5 -5t13.5 5l22 23q6 5 6 13t-6 14l-22 22 q-5 5 -13.5 5t-13.5 -5l-22 -22q-5 -6 -5 -14t5 -13zM575 152l22 -22q6 -6 14 -6t13 6l23 22q5 6 5 14t-5 13l-23 23q-5 5 -13 5t-14 -5l-22 -23q-5 -5 -5 -13t5 -14z" />
<glyph unicode="h" d="M64 0q-6 5 -6 13t6 14l49 49q5 6 5 14t-5 13l-49 49q-6 6 -6 14t6 13l49 49q5 6 5 14t-5 13l-49 50q-6 5 -6 13t6 14l49 49q5 5 5 13t-5 14l-49 49q-6 5 -6 13t6 14l49 49q5 6 5 14t-5 13l-49 50q-6 5 -6 13t6 13l49 50q5 5 5 13t-5 13l-49 50q-8 7 -5 17.5t12.5 13.5 t18.5 -4l50 -49q5 -6 13 -6t14 6l49 49q5 5 13.5 5t13.5 -5q5 -6 5 -14t-5 -13l-49 -50q-6 -5 -6 -13t6 -13l49 -50q5 -5 5 -13t-5 -13l-49 -50q-6 -5 -6 -13t6 -14l98 -98q6 -6 14 -6t13 6l49 49q6 5 14 5t13 -5l49 -49q6 -6 14 -6t14 6l98 98q6 6 6 14t-6 13l-49 50 q-6 5 -6 13t6 13l49 50q6 5 6 13t-6 13l-49 50q-9 8 -5.5 18t13 13t19.5 -4l49 -49q13 -14 27 0l49 49q8 8 18.5 4t13.5 -13t-5 -18l-49 -50q-13 -13 0 -26l49 -50q6 -5 6 -13t-6 -13l-49 -50q-13 -13 0 -27l49 -49q14 -14 0 -27l-49 -49q-13 -14 0 -27l49 -49q14 -14 0 -27 l-49 -50q-13 -13 0 -27l49 -49q14 -13 0 -27l-49 -49q-13 -13 0 -27l49 -49q14 -14 0 -27q-5 -6 -13.5 -6t-13.5 6l-49 49q-14 13 -27 0l-49 -49q-14 -14 -27 0q-14 13 0 27l49 49q14 14 0 27l-49 49q-14 14 0 27l49 49q14 14 0 27l-98 99q-14 12 -28 0l-49 -49 q-13 -14 -27 0l-49 49q-13 13 -27 0l-98 -99q-14 -13 0 -27l49 -49q13 -13 0 -27l-49 -49q-14 -13 0 -27l49 -49q8 -9 4 -19.5t-13 -13t-18 5.5l-49 49q-14 13 -27 0l-50 -49q-5 -6 -13 -6t-13 6zM118 152l22 -22q5 -6 13 -6t14 6l22 22q5 6 5 14t-5 13l-22 23q-6 5 -14 5 t-13 -5l-22 -23q-6 -5 -6 -13t6 -14zM118 305l22 -23q5 -5 13 -5t14 5l22 23q5 5 5 13t-5 14l-22 22q-6 5 -14 5t-13 -5l-22 -22q-6 -6 -6 -14t6 -13zM118 457l22 -22q5 -6 13 -6t14 6l22 22q5 5 5 13t-5 14l-22 22q-6 6 -14 6t-13 -6l-22 -22q-6 -6 -6 -14t6 -13zM118 610 l22 -23q5 -5 13 -5t14 5l22 23q5 5 5 13t-5 13l-22 23q-6 5 -14 5t-13 -5l-22 -23q-6 -5 -6 -13t6 -13zM194 381l22 -23q5 -5 13.5 -5t13.5 5l22 23q6 5 6 13t-6 14l-22 22q-5 6 -13.5 6t-13.5 -6l-22 -22q-6 -6 -6 -14t6 -13zM346 381l22 -23q6 -5 14 -5t13 5l23 23 q5 5 5 13t-5 14l-23 22q-5 6 -13 6t-14 -6l-22 -22q-5 -6 -5 -14t5 -13zM498 381l23 -23q5 -5 13 -5t14 5l22 23q6 5 6 13t-6 14l-22 22q-6 6 -14 6t-13 -6l-23 -22q-5 -6 -5 -14t5 -13zM575 152l22 -22q5 -6 13 -6t14 6l22 22q6 6 6 14t-6 13l-22 23q-6 5 -14 5t-13 -5 l-22 -23q-6 -5 -6 -13t6 -14zM575 305l22 -23q5 -5 13 -5t14 5l22 23q6 5 6 13t-6 14l-22 22q-6 5 -14 5t-13 -5l-22 -22q-6 -6 -6 -14t6 -13zM575 457l22 -22q5 -6 13 -6t14 6l22 22q6 5 6 13t-6 14l-22 22q-6 6 -14 6t-13 -6l-22 -22q-6 -6 -6 -14t6 -13zM575 610l22 -23 q5 -5 13 -5t14 5l22 23q6 5 6 13t-6 13l-22 23q-6 5 -14 5t-13 -5l-22 -23q-6 -5 -6 -13t6 -13z" />
<glyph unicode="i" horiz-adv-x="612" d="M64 0q-6 5 -6 13t6 14l49 49q6 6 6 14t-6 13l-49 49q-13 13 0 26t27 1l49 -49q5 -6 13 -6t14 6l98 98q6 6 6 14t-6 13l-49 50q-5 5 -5 13t5 14l49 49q6 5 6 13t-6 14l-49 49q-5 5 -5 13t5 14l49 49q6 6 6 14t-6 13l-98 99q-6 5 -14 5t-13 -5l-49 -49q-6 -6 -14 -6t-13 6 q-6 5 -6 13t6 13l49 50q6 5 6 13t-6 13l-49 50q-9 8 -5.5 18t13 13t19.5 -4l49 -49q5 -6 13 -6t14 6l49 49q8 8 18.5 4t13.5 -13t-5 -18l-49 -50q-5 -5 -5 -13t5 -13l98 -99q6 -5 14 -5t13 5l99 99q5 5 5 13t-5 13l-49 50q-8 7 -5 17.5t12.5 13.5t18.5 -4l50 -49 q3 -4 8 -5.5t10 0t9 5.5l49 49q5 5 13.5 5t13.5 -5q5 -6 5 -14t-5 -13l-49 -50q-6 -5 -6 -13t6 -13l49 -50q12 -12 0 -26q-14 -13 -27 0l-49 49q-14 13 -27 0l-99 -99q-13 -13 0 -27l49 -49q14 -14 0 -27l-49 -49q-13 -14 0 -27l49 -49q14 -14 0 -27l-49 -50q-13 -13 0 -27 l99 -98q13 -14 27 0l49 49q13 13 27 0q13 -13 0 -27l-49 -49q-14 -13 0 -27l49 -49q8 -9 4 -19.5t-13 -13t-18 5.5l-49 49q-14 13 -27 0l-50 -49q-5 -6 -13 -6t-13 6q-14 13 0 27l49 49q13 14 0 27l-99 99q-13 13 -27 0l-98 -99q-13 -13 0 -27l49 -49q14 -14 0 -27 q-5 -6 -13.5 -6t-13.5 6l-49 49q-14 13 -27 0l-49 -49q-14 -14 -27 0zM270 305l22 -23q6 -5 14 -5t13 5l23 23q5 5 5 13t-5 14l-23 22q-5 5 -13 5t-14 -5l-22 -22q-5 -6 -5 -14t5 -13zM270 457l22 -22q6 -6 14 -6t13 6l23 22q5 5 5 13t-5 14l-23 22q-5 6 -13 6t-14 -6 l-22 -22q-5 -6 -5 -14t5 -13z" />
<glyph unicode="j" d="M64 152q-5 6 -5 14t5 13l49 49q6 6 6 14t-6 14l-49 49q-5 5 -5 13t5 14q5 5 13 5t14 -5l49 -50q5 -5 13 -5t14 5l49 50q8 8 18.5 4t13.5 -13t-5 -18l-49 -49q-12 -14 0 -28l98 -98q6 -6 14 -6t13 6l50 49q5 6 13 6t13 -6l50 -49q5 -6 13 -6t14 6l98 98q6 6 6 14t-6 14 l-49 49q-6 5 -6 13t6 14l49 49q6 5 6 13t-6 14l-49 49q-6 5 -6 13.5t6 13.5l49 49q6 6 6 14t-6 13l-49 50q-6 5 -6 13t6 13l49 50q6 5 6 13t-6 14l-49 49q-9 8 -5.5 18.5t13.5 13t19 -4.5l49 -49q6 -6 14 -6t13 6l49 49q15 13 28 -2q12 -13 -1 -25l-49 -49q-5 -6 -5 -14 t5 -13l49 -50q6 -5 6 -13t-6 -13l-49 -50q-5 -5 -5 -13t5 -14l49 -49q6 -5 6 -13.5t-6 -13.5l-49 -49q-5 -6 -5 -14t5 -13l49 -49q6 -6 6 -14t-6 -13l-49 -49q-12 -14 0 -28l49 -49q9 -8 5.5 -18t-13 -13t-19.5 4l-49 50q-5 5 -13 5t-14 -5l-98 -99q-6 -5 -6 -13t6 -14 l49 -49q8 -8 4.5 -19t-13 -13.5t-18.5 5.5l-49 49q-6 5 -14 5t-13 -5l-50 -49q-5 -6 -13 -6t-13 6l-50 49q-5 5 -13 5t-14 -5l-49 -49q-8 -9 -18.5 -5.5t-13 13.5t4.5 19l49 49q14 14 0 27l-98 99q-14 13 -27 0l-49 -50q-14 -13 -27 0zM346 76l23 -22q5 -6 13 -6t13 6l23 22 q5 6 5 14t-5 13l-23 22q-5 6 -13 6t-13 -6l-23 -22q-5 -5 -5 -13t5 -14zM575 305l22 -23q6 -5 14 -5t13 5l23 23q5 5 5 13t-5 14l-23 22q-5 5 -13 5t-14 -5l-22 -22q-6 -6 -6 -14t6 -13zM575 457l22 -22q6 -6 14 -6t13 6l23 22q5 5 5 13.5t-5 13.5l-23 22q-5 6 -13 6t-14 -6 l-22 -22q-6 -5 -6 -13.5t6 -13.5zM575 610l22 -23q6 -5 14 -5t13 5l23 23q5 5 5 13t-5 13l-23 23q-5 5 -13 5t-14 -5l-22 -23q-6 -5 -6 -13t6 -13z" />
<glyph unicode="k" horiz-adv-x="765" d="M64 27l50 49q5 6 5 14t-5 13l-50 49q-5 6 -5 14t5 13l50 49q12 14 0 28l-50 49q-5 5 -5 13t5 14l50 49q5 5 5 13t-5 14l-50 49q-5 5 -5 13.5t5 13.5l50 49q5 6 5 14t-5 13l-50 50q-5 5 -5 13t5 13l50 50q5 5 5 13t-5 14l-50 49q-5 5 -5 13.5t5 13.5q6 5 14 5t13 -5 l49 -49q6 -6 14 -6t14 6l49 49q5 5 13 5t14 -5q5 -5 5 -13.5t-5 -13.5l-50 -49q-5 -6 -5 -14t5 -13l50 -50q5 -5 5 -13t-5 -13l-50 -50q-5 -5 -5 -13t5 -14l99 -98q5 -6 13 -6t14 6l98 98q6 6 6 14t-6 13l-49 50q-8 8 -4 18.5t13 13t18 -5.5l49 -49q6 -5 14 -5t13 5l99 99 q5 5 5 13t-5 14l-49 49q-9 8 -5.5 18t13 13t18.5 -4l50 -49q5 -6 13 -6t14 6l49 49q5 5 13.5 5t13.5 -5t5 -13.5t-5 -13.5l-49 -49q-6 -6 -6 -14t6 -13l49 -50q12 -12 0 -26q-14 -13 -27 0l-49 49q-6 5 -14 5t-13 -5l-99 -99q-5 -5 -5 -13t5 -14l49 -49q9 -8 5.5 -18 t-13 -13t-18.5 4l-50 49q-5 6 -13 6t-14 -6l-98 -98q-5 -6 -5 -14t5 -13l98 -99q6 -5 14 -5t13 5l50 50q8 8 18.5 4t13 -13.5t-5.5 -17.5l-49 -49q-12 -14 0 -28l99 -98q13 -14 27 0l49 49q8 9 18 5.5t13 -13t-4 -19.5l-49 -49q-14 -13 0 -27l49 -49q8 -8 4.5 -19t-13 -13.5 t-18.5 5.5l-49 49q-6 5 -14 5t-13 -5l-50 -49q-5 -6 -13 -6t-13 6q-6 5 -6 13.5t6 13.5l49 49q5 6 5 14t-5 13l-99 99q-5 5 -13 5t-14 -5l-49 -50q-5 -5 -13.5 -5t-13.5 5q-5 6 -5 14t5 13l49 49q6 6 6 14t-6 14l-98 98q-6 5 -14 5t-13 -5l-99 -98q-12 -14 0 -28l50 -49 q5 -5 5 -13t-5 -14l-50 -49q-5 -5 -5 -13t5 -14l50 -49q8 -8 4 -18.5t-13 -13.5t-18 5l-49 49q-14 12 -28 0l-49 -49q-8 -9 -18 -5t-13 13.5t4 18.5zM118 152l22 -22q6 -6 14 -6t14 6l22 22q5 6 5 14t-5 13l-22 23q-14 12 -28 0l-22 -23q-5 -5 -5 -13t5 -14zM118 305l22 -23 q14 -12 28 0l22 23q5 5 5 13t-5 14l-22 22q-14 12 -28 0l-22 -22q-5 -6 -5 -14t5 -13zM118 457l22 -22q6 -6 14 -6t14 6l22 22q5 5 5 13.5t-5 13.5l-22 22q-6 6 -14 6t-14 -6l-22 -22q-5 -5 -5 -13.5t5 -13.5zM118 610l22 -23q14 -12 28 0l22 23q5 5 5 13t-5 13l-22 23 q-14 12 -28 0l-22 -23q-5 -5 -5 -13t5 -13zM194 381l23 -23q5 -5 13 -5t14 5l22 23q6 5 6 13t-6 14l-22 22q-6 6 -14 6t-13 -6l-23 -22q-5 -6 -5 -14t5 -13z" />
<glyph unicode="l" horiz-adv-x="612" d="M64 27l49 49q6 6 6 14t-6 13l-49 49q-5 6 -5 14t5 13l49 49q6 6 6 14t-6 13l-49 50q-5 5 -5 13t5 14l49 49q6 5 6 13t-6 14l-49 49q-5 5 -5 13t5 14l49 49q6 6 6 14t-6 13l-49 50q-5 5 -5 13t5 13l49 50q6 5 6 13t-6 13l-49 50q-5 5 -5 13t5 14q6 5 14 5t13 -5l49 -49 q6 -6 14 -6t13 6l49 49q14 12 28 0q5 -6 5 -14t-5 -13l-50 -50q-5 -5 -5 -13t5 -13l50 -50q5 -5 5 -13t-5 -13l-50 -50q-5 -5 -5 -13t5 -14l50 -49q5 -6 5 -14t-5 -13l-50 -49q-5 -6 -5 -14t5 -13l50 -49q5 -6 5 -14t-5 -13l-50 -50q-5 -5 -5 -13t5 -14l99 -98q5 -6 13 -6 t14 6l49 49q5 5 13 5t14 -5l49 -49q5 -6 13 -6t14 6l49 49q14 12 27 -1t0 -26l-49 -49q-5 -5 -5 -13t5 -14l49 -49q6 -6 6 -14t-6 -13q-5 -6 -13 -6t-14 6l-49 49q-6 5 -14 5t-13 -5l-49 -49q-6 -6 -14 -6t-13 6l-49 49q-6 5 -14 5t-13 -5l-49 -49q-6 -6 -14 -6t-14 6 l-49 49q-5 5 -13 5t-14 -5l-49 -49q-8 -9 -18 -5.5t-13 13t4 19.5zM118 152l22 -22q6 -6 14 -6t13 6l23 22q5 6 5 14t-5 13l-23 23q-5 5 -13 5t-14 -5l-22 -23q-6 -5 -6 -13t6 -14zM118 305l22 -23q6 -5 14 -5t13 5l23 23q5 5 5 13t-5 14l-23 22q-5 5 -13 5t-14 -5l-22 -22 q-6 -6 -6 -14t6 -13zM118 457l22 -22q6 -6 14 -6t13 6l23 22q5 5 5 13t-5 14l-23 22q-5 6 -13 6t-14 -6l-22 -22q-6 -6 -6 -14t6 -13zM118 610l22 -23q6 -5 14 -5t13 5l23 23q5 5 5 13t-5 13l-23 23q-5 5 -13 5t-14 -5l-22 -23q-6 -5 -6 -13t6 -13zM194 76l22 -22 q6 -6 14 -6t14 6l22 22q5 6 5 14t-5 13l-22 22q-6 6 -14 6t-14 -6l-22 -22q-5 -5 -5 -13t5 -14zM346 76l23 -22q5 -6 13 -6t14 6l22 22q3 3 4.5 6.5t1.5 7t-1.5 7t-4.5 6.5l-22 22q-6 6 -14 6t-13 -6l-23 -22q-5 -5 -5 -13t5 -14z" />
<glyph unicode="m" horiz-adv-x="916" d="M64 0q-6 5 -6 13.5t6 13.5l49 49q5 6 5 14t-5 13l-49 49q-6 6 -6 14t6 13l49 49q12 14 0 28l-49 49q-6 5 -6 13t6 14l49 49q5 5 5 13t-5 14l-49 49q-6 5 -6 13.5t6 13.5l49 49q5 6 5 14t-5 13l-49 50q-6 5 -6 13t6 13q5 6 13 6t13 -6l50 -49q5 -5 13 -5t13 5l99 99 q5 5 5 13t-5 14l-49 49q-9 8 -5.5 18t13 13t19.5 -4l49 -49q6 -6 14 -6t13 6l49 49q6 5 14 5t13 -5t5 -13.5t-5 -13.5l-49 -49q-6 -6 -6 -14t6 -13l98 -99q6 -5 14 -5t13 5l99 99q5 5 5 13t-5 14l-49 49q-9 8 -5.5 18t13 13t19.5 -4l49 -49q5 -6 13 -6t14 6l49 49q5 5 13 5 t14 -5q5 -5 5 -13.5t-5 -13.5l-49 -49q-6 -6 -6 -14t6 -13l98 -99q6 -5 14 -5t13 5l50 49q5 6 13 6t13 -6q6 -5 6 -13t-6 -13l-49 -50q-5 -5 -5 -13t5 -14l49 -49q6 -5 6 -13.5t-6 -13.5l-49 -49q-5 -6 -5 -14t5 -13l49 -49q6 -6 6 -14t-6 -13l-49 -49q-12 -14 0 -28l49 -49 q6 -5 6 -13t-6 -14l-49 -49q-5 -5 -5 -13t5 -14l49 -49q6 -5 6 -13.5t-6 -13.5q-5 -6 -13 -6t-13 6l-50 49q-5 5 -13 5t-14 -5l-49 -49q-13 -13 -26.5 0.5t-0.5 26.5l49 49q6 6 6 14t-6 13l-49 49q-5 6 -5 14t5 13l49 49q6 6 6 14t-6 14l-49 49q-5 5 -5 13t5 14l49 49 q6 5 6 13t-6 14l-49 49q-5 5 -5 13.5t5 13.5l49 49q6 6 6 14t-6 13l-98 99q-6 5 -14 5t-13 -5l-99 -99q-5 -5 -5 -13t5 -14l50 -49q5 -5 5 -13.5t-5 -13.5l-50 -49q-5 -6 -5 -14t5 -13l50 -49q5 -6 5 -14t-5 -13l-50 -49q-12 -14 0 -28l50 -49q5 -5 5 -13t-5 -14l-50 -49 q-5 -5 -5 -13t5 -14l50 -49q8 -8 4 -18.5t-13 -13.5t-18 5l-50 49q-5 5 -13 5t-14 -5l-49 -49q-8 -9 -18 -5t-13 13.5t4 18.5l50 49q13 14 0 27l-50 49q-13 14 0 27l50 49q12 14 0 28l-50 49q-13 13 0 27l50 49q13 13 0 27l-50 49q-5 5 -5 13.5t5 13.5l50 49q13 14 0 27 l-99 99q-13 13 -27 0l-98 -99q-14 -13 0 -27l49 -49q13 -14 0 -27l-49 -49q-14 -14 0 -27l49 -49q13 -14 0 -27l-49 -49q-14 -14 0 -28l49 -49q13 -13 0 -27l-49 -49q-14 -13 0 -27l49 -49q8 -8 4 -18.5t-13 -13.5t-18 5l-50 49q-13 13 -26 0l-50 -49q-5 -6 -13 -6t-13 6z M117 152l23 -22q5 -6 13 -6t13 6l23 22q5 6 5 14t-5 13l-23 23q-5 5 -13 5t-13 -5l-23 -23q-5 -5 -5 -13t5 -14zM117 305l23 -23q5 -5 13 -5t13 5l23 23q5 5 5 13t-5 14l-23 22q-5 5 -13 5t-13 -5l-23 -22q-5 -6 -5 -14t5 -13zM117 457l23 -22q5 -6 13 -6t13 6l23 22 q5 5 5 13.5t-5 13.5l-23 22q-5 6 -13 6t-13 -6l-23 -22q-5 -5 -5 -13.5t5 -13.5zM422 152l22 -22q6 -6 14 -6t13 6l23 22q5 6 5 14t-5 13l-23 23q-5 5 -13 5t-14 -5l-22 -23q-5 -5 -5 -13t5 -14zM422 305l22 -23q6 -5 14 -5t13 5l23 23q5 5 5 13t-5 14l-23 22q-5 5 -13 5 t-14 -5l-22 -22q-5 -6 -5 -14t5 -13zM422 457l22 -22q6 -6 14 -6t13 6l23 22q5 5 5 13.5t-5 13.5l-23 22q-5 6 -13 6t-14 -6l-22 -22q-5 -5 -5 -13.5t5 -13.5zM727 152l22 -22q6 -6 14 -6t13 6l22 22q6 6 6 14t-6 13l-22 23q-5 5 -13 5t-14 -5l-22 -23q-5 -5 -5 -13t5 -14z M727 305l22 -23q6 -5 14 -5t13 5l22 23q6 5 6 13t-6 14l-22 22q-5 5 -13 5t-14 -5l-22 -22q-5 -6 -5 -14t5 -13zM727 457l22 -22q6 -6 14 -6t13 6l22 22q6 5 6 13.5t-6 13.5l-22 22q-5 6 -13 6t-14 -6l-22 -22q-5 -5 -5 -13.5t5 -13.5z" />
<glyph unicode="n" horiz-adv-x="916" d="M64 0q-6 5 -6 13.5t6 13.5l49 49q5 6 5 14t-5 13l-49 49q-6 6 -6 14t6 13l49 49q12 14 0 28l-49 49q-6 5 -6 13t6 14l49 49q5 5 5 13t-5 14l-49 49q-6 5 -6 13.5t6 13.5l49 49q5 6 5 14t-5 13l-49 50q-6 5 -6 13t6 13q3 4 8 5.5t10 0t8 -5.5l50 -49q5 -5 13 -5t14 5 l98 99q6 5 6 13t-6 14l-49 49q-5 5 -5 13.5t5 13.5q6 5 14 5t13 -5l49 -49q6 -6 14 -6t13 6l49 49q15 13 28 -2q12 -13 -1 -25l-49 -49q-5 -6 -5 -14t5 -13l98 -99q14 -12 28 0l49 49q7 8 17.5 5t13.5 -12.5t-4 -18.5l-50 -50q-5 -5 -5 -13t5 -14l50 -49q5 -5 5 -13.5 t-5 -13.5l-50 -49q-5 -6 -5 -14t5 -13l50 -49q5 -6 5 -14t-5 -13l-50 -49q-12 -14 0 -28l99 -98q5 -6 13 -6t14 6l98 98q6 6 6 14t-6 14l-49 49q-5 5 -5 13t5 14l49 49q6 5 6 13t-6 14l-49 49q-5 5 -5 13.5t5 13.5l49 49q6 6 6 14t-6 13l-49 50q-5 5 -5 13t5 13l49 50 q6 5 6 13t-6 14l-49 49q-5 5 -5 13.5t5 13.5t13.5 5t13.5 -5l49 -49q6 -6 14 -6t13 6l50 49q12 12 26 0q13 -14 0 -27l-49 -49q-13 -14 0 -27l49 -50q6 -5 6 -13t-6 -13l-49 -50q-13 -13 0 -27l49 -49q6 -5 6 -13.5t-6 -13.5l-49 -49q-13 -14 0 -27l49 -49q14 -14 0 -27 l-49 -49q-12 -14 0 -28l49 -49q8 -7 5 -17.5t-12.5 -13.5t-18.5 4l-50 50q-13 13 -27 0l-98 -99q-13 -13 0 -27l49 -49q6 -5 6 -13.5t-6 -13.5q-5 -6 -13.5 -6t-13.5 6l-49 49q-14 13 -27 0l-49 -49q-14 -14 -27 0q-6 5 -6 13.5t6 13.5l49 49q14 14 0 27l-98 99 q-14 12 -28 0l-49 -50q-13 -13 -27 0q-13 14 0 27l50 49q12 14 0 28l-50 49q-13 13 0 27l50 49q13 13 0 27l-50 49q-5 5 -5 13.5t5 13.5l50 49q13 14 0 27l-99 99q-13 13 -27 0l-98 -99q-14 -13 0 -27l49 -49q13 -14 0 -27l-49 -49q-14 -14 0 -27l49 -49q13 -14 0 -27 l-49 -49q-14 -14 0 -28l49 -49q13 -13 0 -27l-49 -49q-14 -13 0 -27l49 -49q14 -14 -1 -27q-13 -13 -26 0l-49 49q-14 13 -27 0l-50 -49q-5 -6 -13 -6t-13 6zM118 152l22 -22q5 -6 13 -6t14 6l22 22q5 6 5 14t-5 13l-22 23q-6 5 -14 5t-13 -5l-22 -23q-6 -5 -6 -13t6 -14z M118 305l22 -23q5 -5 13 -5t14 5l22 23q5 5 5 13t-5 14l-22 22q-6 5 -14 5t-13 -5l-22 -22q-6 -6 -6 -14t6 -13zM118 457l22 -22q5 -6 13 -6t14 6l22 22q5 5 5 13.5t-5 13.5l-22 22q-6 6 -14 6t-13 -6l-22 -22q-6 -5 -6 -13.5t6 -13.5zM422 305l22 -23q14 -12 28 0l22 23 q5 5 5 13t-5 14l-22 22q-14 12 -28 0l-22 -22q-5 -6 -5 -14t5 -13zM422 457l22 -22q6 -6 14 -6t14 6l22 22q5 5 5 13.5t-5 13.5l-22 22q-6 6 -14 6t-14 -6l-22 -22q-5 -5 -5 -13.5t5 -13.5zM727 305l22 -23q6 -5 14 -5t13 5l23 23q5 5 5 13t-5 14l-23 22q-5 5 -13 5t-14 -5 l-22 -22q-5 -6 -5 -14t5 -13zM727 457l22 -22q6 -6 14 -6t13 6l23 22q5 5 5 13.5t-5 13.5l-23 22q-5 6 -13 6t-14 -6l-22 -22q-5 -5 -5 -13.5t5 -13.5zM727 610l22 -23q6 -5 14 -5t13 5l23 23q5 5 5 13t-5 13l-23 23q-5 5 -13 5t-14 -5l-22 -23q-5 -5 -5 -13t5 -13z" />
<glyph unicode="o" d="M64 179l49 50q13 13 0 27l-49 49q-14 13 0 27l49 49q13 13 0 27l-49 49q-6 5 -6 13.5t6 13.5l49 49q13 14 0 27l-49 50q-6 5 -6 13t6 13q5 6 13 6t13 -6l50 -49q13 -13 27 0l98 99q13 13 0 27l-49 49q-13 12 -1 25q15 14 28 2l49 -49q6 -6 14 -6t13 6l49 49q6 5 14 5 t13 -5l49 -49q6 -6 14 -6t14 6l49 49q5 5 13 5t14 -5q5 -5 5 -13.5t-5 -13.5l-50 -49q-5 -6 -5 -14t5 -13l99 -99q5 -5 13 -5t14 5l49 49q5 6 13.5 6t13.5 -6q6 -5 6 -13t-6 -13l-49 -50q-6 -5 -6 -13t6 -14l49 -49q6 -5 6 -13.5t-6 -13.5l-49 -49q-6 -6 -6 -14t6 -13 l49 -49q6 -6 6 -14t-6 -13l-49 -49q-4 -4 -5.5 -9t0 -10t5.5 -8l49 -50q6 -5 6 -13t-6 -14q-5 -5 -13.5 -5t-13.5 5l-49 50q-6 5 -14 5t-13 -5l-99 -99q-5 -5 -5 -13t5 -14l50 -49q5 -5 5 -13t-5 -14q-6 -5 -14 -5t-13 5l-49 49q-6 6 -14 6t-14 -6l-49 -49q-5 -5 -13 -5 t-14 5l-49 49q-5 6 -13 6t-14 -6l-49 -49q-8 -8 -18.5 -4t-13.5 13t5 18l49 49q5 6 5 14t-5 13l-98 99q-6 5 -14 5t-13 -5l-50 -50q-14 -14 -27 2q-12 14 1 25zM117 305l23 -23q13 -13 27 0l22 23q13 13 0 27l-22 22q-14 14 -27 0l-23 -22q-13 -14 0 -27zM117 457l23 -22 q13 -13 27 0l22 22q13 13 0 27l-22 22q-14 14 -27 0l-23 -22q-13 -14 0 -27zM194 229l98 -99q14 -13 27 0l49 49q14 14 27 0l49 -49q14 -12 28 0l98 99q13 13 0 27l-49 49q-14 13 0 27l49 49q13 13 0 27l-49 49q-6 5 -6 13.5t6 13.5l49 49q13 14 0 27l-98 99q-14 12 -28 0 l-49 -49q-13 -14 -27 0l-49 49q-13 13 -27 0l-98 -99q-14 -13 0 -27l49 -49q13 -14 0 -27l-49 -49q-14 -14 0 -27l49 -49q13 -14 0 -27l-49 -49q-14 -14 0 -27zM346 76l22 -22q14 -14 27 0l23 22q13 14 0 27l-23 23q-13 13 -27 0l-22 -23q-14 -13 0 -27zM346 686l22 -22 q14 -14 27 0l23 22q13 13 0 27l-23 22q-13 13 -27 0l-22 -22q-14 -14 0 -27zM574 305l23 -23q13 -13 27 0l22 23q14 13 0 27l-22 22q-14 14 -27 0l-23 -22q-13 -14 0 -27zM574 457l23 -22q13 -13 27 0l22 22q6 5 6 13.5t-6 13.5l-22 22q-14 14 -27 0l-23 -22q-5 -5 -5 -13.5 t5 -13.5z" />
<glyph unicode="p" horiz-adv-x="765" d="M64 27l50 49q5 6 5 14t-5 13l-50 49q-5 6 -5 14t5 13l50 49q12 14 0 28l-50 49q-5 5 -5 13t5 14l50 49q5 5 5 13t-5 14l-50 49q-5 5 -5 13.5t5 13.5l50 49q5 6 5 14t-5 13l-50 50q-5 5 -5 13t5 13l50 50q5 5 5 13t-5 14l-50 49q-5 5 -5 13.5t5 13.5q6 5 14 5t13 -5 l49 -49q6 -6 14 -6t14 6l49 49q5 5 13 5t14 -5l49 -49q5 -6 13 -6t14 6l49 49q5 5 13.5 5t13.5 -5l49 -49q6 -6 14 -6t13 6l50 49q12 12 26 0q13 -14 0 -27l-49 -49q-5 -6 -5 -14t5 -13l99 -99q5 -5 13 -5t14 5l49 49q8 9 18 5.5t13 -13t-4 -18.5l-49 -50q-6 -5 -6 -13 t6 -14l49 -49q5 -5 5 -13.5t-5 -13.5t-13.5 -5t-13.5 5l-49 49q-6 6 -14 6t-13 -6l-99 -98q-5 -6 -5 -14t5 -13l49 -49q6 -6 6 -14t-6 -13q-5 -6 -13 -6t-13 6l-50 49q-5 5 -13 5t-14 -5l-49 -49q-5 -6 -13.5 -6t-13.5 6l-49 49q-6 5 -14 5t-13 -5l-99 -98q-12 -14 0 -28 l50 -49q5 -5 5 -13t-5 -14l-50 -49q-5 -5 -5 -13t5 -14l50 -49q8 -8 4 -18.5t-13 -13.5t-18 5l-49 49q-14 12 -28 0l-49 -49q-8 -9 -18 -5t-13 13.5t4 18.5zM118 152l22 -22q6 -6 14 -6t14 6l22 22q5 6 5 14t-5 13l-22 23q-14 12 -28 0l-22 -23q-5 -5 -5 -13t5 -14zM118 305 l22 -23q14 -12 28 0l22 23q5 5 5 13t-5 14l-22 22q-14 12 -28 0l-22 -22q-5 -6 -5 -14t5 -13zM118 457l22 -22q6 -6 14 -6t14 6l22 22q5 5 5 13.5t-5 13.5l-22 22q-6 6 -14 6t-14 -6l-22 -22q-5 -5 -5 -13.5t5 -13.5zM118 610l22 -23q14 -12 28 0l22 23q5 5 5 13t-5 13 l-22 23q-14 12 -28 0l-22 -23q-5 -5 -5 -13t5 -13zM194 381l23 -23q5 -5 13 -5t14 5l22 23q5 5 5 13t-5 14l-22 22q-6 6 -14 6t-13 -6l-23 -22q-5 -6 -5 -14t5 -13zM194 533l99 -98q5 -6 13 -6t14 6l49 49q5 6 13.5 6t13.5 -6l49 -49q6 -6 14 -6t13 6l99 98q5 6 5 14t-5 13 l-99 99q-5 5 -13 5t-14 -5l-49 -49q-5 -6 -13.5 -6t-13.5 6l-49 49q-6 5 -14 5t-13 -5l-99 -99q-5 -5 -5 -13t5 -14zM194 686l23 -23q5 -5 13 -5t14 5l22 23q5 5 5 13t-5 14l-22 22q-6 5 -14 5t-13 -5l-23 -22q-5 -6 -5 -14t5 -13zM347 381l22 -23q5 -5 13.5 -5t13.5 5 l22 23q6 5 6 13t-6 14l-22 22q-5 6 -13.5 6t-13.5 -6l-22 -22q-6 -6 -6 -14t6 -13zM347 686l22 -23q5 -5 13.5 -5t13.5 5l22 23q6 5 6 13t-6 14l-22 22q-5 5 -13.5 5t-13.5 -5l-22 -22q-6 -6 -6 -14t6 -13z" />
<glyph unicode="q" horiz-adv-x="841" d="M64 180l49 49q14 13 0 27l-22 22q-3 4 -8 8.5t-11 10.5l-8 8q-14 13 0 27l49 49q6 5 6 13.5t-6 13.5l-49 49q-14 14 0 27l49 50q6 5 6 13t-6 13l-49 50q-14 13 0 27q14 13 27 0l49 -49q14 -14 27 0l99 98q5 5 5 13.5t-5 13.5l-50 49q-13 14 0 27q14 13 27 0l49 -49 q14 -14 28 0l49 49q13 13 27 0l49 -49q13 -14 27 0l49 49q6 6 14 5.5t13 -6t6 -12.5t-6 -14l-49 -49q-13 -13 0 -27l98 -98q14 -14 27 0l50 49q8 8 18.5 4t13 -13.5t-5.5 -17.5l-49 -50q-5 -5 -5 -13t5 -13l49 -50q6 -5 6 -13t-6 -14l-49 -49q-5 -5 -5 -13.5t5 -13.5l49 -49 q6 -6 6 -14t-6 -13q-19 -19 -26 -27l-23 -22q-5 -6 -5 -14t5 -13l49 -49q8 -8 5 -19t-12.5 -13.5t-18.5 4.5l-50 50q-5 5 -13 5t-14 -5l-22 -22q-12 -14 0 -28l99 -98q5 -5 13 -5t13 5l50 49q8 9 18 5.5t13 -13t-4 -19.5l-49 -49q-6 -5 -6 -13t6 -14l49 -49q5 -5 5 -13 t-5 -14q-6 -6 -14 -6t-13 6l-50 49q-5 6 -13 6t-13 -6l-50 -49q-5 -6 -13 -6t-14 6q-5 6 -5 14t5 13l49 49q6 6 6 14t-6 13l-98 99q-5 5 -13.5 5t-13.5 -5l-22 -23q-5 -5 -5 -13t5 -14l49 -49q6 -5 6 -13t-6 -14q-5 -5 -13.5 -5t-13.5 5l-49 50q-6 5 -14 5t-13 -5l-49 -50 q-6 -5 -14 -5t-13 5l-49 50q-14 12 -28 0l-49 -50q-5 -5 -13 -5t-14 5q-5 6 -5 14t5 13l50 49q5 6 5 14t-5 13l-99 99q-5 5 -13 5t-14 -5l-49 -50q-5 -5 -11 -5.5t-11 2.5t-8 8t-2.5 11.5t5.5 11.5zM118 305l22 -22q14 -14 27 0l23 22q13 13 0 27l-23 22q-13 14 -27 0 l-22 -22q-14 -14 0 -27zM118 457l22 -22q14 -13 27 0l23 22q13 14 0 27l-23 23q-13 13 -27 0l-22 -23q-14 -13 0 -27zM194 229l98 -99q14 -12 28 0l49 50q13 13 27 0l49 -50q13 -13 27 0l22 22q14 14 0 28l-49 49q-13 13 0 27q13 13 27 0l49 -50q5 -5 13.5 -5t13.5 5l22 23 q14 13 0 27l-22 22l-27 27q-13 13 0 27l49 49q6 5 6 13.5t-6 13.5l-49 49q-13 14 0 27l49 50q6 5 6 13t-6 13l-98 99q-14 13 -27 0l-49 -49q-14 -14 -27 0l-49 49q-14 12 -28 0l-98 -99q-13 -13 0 -26l49 -50q14 -13 0 -27l-49 -49q-5 -5 -5 -13.5t5 -13.5l49 -49 q14 -14 0 -27l-49 -49q-13 -14 0 -27zM346 76l23 -22q13 -13 27 0l22 22q14 14 0 27l-22 23q-14 13 -27 0l-23 -23q-13 -13 0 -27zM346 686l23 -22q13 -14 27 0l22 22q6 5 6 13.5t-6 13.5l-22 22q-14 14 -27 0l-23 -22q-5 -5 -5 -13.5t5 -13.5zM575 305l22 -22q14 -14 27 0 l22 22q14 13 0 27l-22 22q-13 14 -27 0l-22 -22q-13 -14 0 -27zM575 457l22 -22q14 -13 27 0l22 22q14 14 0 27l-22 23q-13 13 -27 0l-22 -23q-13 -13 0 -27z" />
<glyph unicode="r" d="M64 0q-6 5 -6 13.5t6 13.5l49 49q5 6 5 14t-5 13l-49 49q-6 6 -6 14t6 13l49 49q12 14 0 28l-49 49q-6 5 -6 13t6 14l49 49q5 5 5 13t-5 14l-49 49q-6 5 -6 13.5t6 13.5l49 49q5 6 5 14t-5 13l-49 50q-6 5 -6 13t6 13l49 50q5 5 5 13t-5 14l-49 49q-13 11 -1 25 q14 14 27 2l50 -49q5 -6 13 -6t14 6l49 49q6 5 14 5t13 -5l49 -49q6 -6 14 -6t13 6l49 49q6 5 14 5t13 -5l49 -49q6 -6 14 -6t14 6l49 49q5 5 13 5t14 -5q5 -5 5 -13.5t-5 -13.5l-50 -49q-5 -6 -5 -14t5 -13l99 -99q5 -5 13 -5t14 5l49 49q5 6 13.5 6t13.5 -6q6 -5 6 -13 t-6 -13l-49 -50q-5 -5 -5 -13t5 -14l49 -49q9 -8 5.5 -18.5t-13.5 -13t-19 4.5l-49 49q-14 14 -27 0l-99 -98q-13 -14 0 -27l50 -49q13 -14 0 -27l-50 -49q-12 -14 0 -28l99 -98q13 -14 27 0l49 49q5 6 13.5 6t13.5 -6q14 -13 0 -27l-49 -49q-13 -13 0 -27l49 -49 q6 -5 6 -13.5t-6 -13.5q-5 -6 -13.5 -6t-13.5 6l-49 49q-14 13 -27 0l-49 -49q-14 -14 -27 0q-6 5 -6 13.5t6 13.5l49 49q14 14 0 27l-98 99q-14 12 -28 0l-49 -50q-13 -13 -27 0q-13 14 0 27l50 49q12 14 0 28l-99 98q-13 13 -27 0l-98 -98q-14 -14 0 -28l49 -49 q13 -13 0 -27l-49 -49q-14 -13 0 -27l49 -49q14 -14 -1 -27q-13 -13 -26 0l-49 49q-14 13 -27 0l-50 -49q-5 -6 -13 -6t-13 6zM118 152l22 -22q5 -6 13 -6t14 6l22 22q5 6 5 14t-5 13l-22 23q-6 5 -14 5t-13 -5l-22 -23q-6 -5 -6 -13t6 -14zM118 305l22 -23q5 -5 13 -5t14 5 l22 23q5 5 5 13t-5 14l-22 22q-6 5 -14 5t-13 -5l-22 -22q-6 -6 -6 -14t6 -13zM118 457l22 -22q5 -6 13 -6t14 6l22 22q5 5 5 13.5t-5 13.5l-22 22q-6 6 -14 6t-13 -6l-22 -22q-6 -5 -6 -13.5t6 -13.5zM118 610l22 -23q5 -5 13 -5t14 5l22 23q5 5 5 13t-5 13l-22 23 q-6 5 -14 5t-13 -5l-22 -23q-6 -5 -6 -13t6 -13zM194 381l22 -23q6 -5 14 -5t13 5l22 23q6 5 6 13t-6 14l-22 22q-5 6 -13 6t-14 -6l-22 -22q-6 -6 -6 -14t6 -13zM194 533l98 -98q6 -6 14 -6t13 6l49 49q6 6 14 6t13 -6l49 -49q6 -6 14 -6t14 6l98 98q6 6 6 14t-6 13l-98 99 q-14 12 -28 0l-49 -49q-5 -6 -13 -6t-14 6l-49 49q-5 5 -13 5t-14 -5l-98 -99q-6 -5 -6 -13t6 -14zM194 686l22 -23q6 -5 14 -5t13 5l22 23q6 5 6 13t-6 14l-22 22q-5 5 -13 5t-14 -5l-22 -22q-6 -6 -6 -14t6 -13zM346 381l22 -23q6 -5 14 -5t13 5l23 23q5 5 5 13t-5 14 l-23 22q-5 6 -13 6t-14 -6l-22 -22q-5 -6 -5 -14t5 -13zM346 686l22 -23q6 -5 14 -5t13 5l23 23q5 5 5 13t-5 14l-23 22q-5 5 -13 5t-14 -5l-22 -22q-5 -6 -5 -14t5 -13zM422 305l22 -23q14 -12 28 0l22 23q5 5 5 13t-5 14l-22 22q-14 12 -28 0l-22 -22q-5 -6 -5 -14t5 -13z " />
<glyph unicode="s" horiz-adv-x="765" d="M64 0q-5 6 -5 14t5 13l49 49q6 6 6 14t-6 13l-49 49q-12 14 0 28q5 5 13.5 5t13.5 -5l49 -50q6 -5 14 -5t13 5l50 50q5 5 13 5t13 -5l50 -50q5 -5 13 -5t14 5l49 50q5 5 13.5 5t13.5 -5l49 -50q6 -5 14 -5t13 5l99 99q5 5 5 13t-5 14l-99 98q-5 6 -13 6t-14 -6l-49 -49 q-5 -5 -13.5 -5t-13.5 5l-49 49q-6 6 -14 6t-13 -6l-50 -49q-8 -8 -18 -4.5t-12.5 13t4.5 18.5l49 49q5 5 5 13.5t-5 13.5l-99 99q-5 5 -13 5t-14 -5l-49 -50q-5 -5 -13.5 -5t-13.5 5q-5 6 -5 14t5 13l49 50q6 5 6 13t-6 13l-49 50q-5 5 -5 13t5 14q5 5 13.5 5t13.5 -5 l49 -49q6 -6 14 -6t13 6l99 98q5 5 5 13.5t-5 13.5l-49 49q-8 8 -4.5 18.5t12.5 13t18 -4.5l50 -49q5 -6 13 -6t14 6l49 49q5 5 13.5 5t13.5 -5l49 -49q6 -6 14 -6t13 6l49 49q6 5 14 5t13 -5l49 -49q6 -6 14 -6t14 6l49 49q5 5 13 5t14 -5q5 -5 5 -13t-5 -14l-50 -49 q-5 -5 -5 -13.5t5 -13.5l50 -49q8 -9 4 -19.5t-13 -13t-18 5.5l-49 49q-14 12 -28 0l-49 -49q-5 -6 -13 -6t-14 6l-49 49q-5 5 -13 5t-14 -5l-49 -49q-5 -6 -13.5 -6t-13.5 6l-49 49q-6 5 -14 5t-13 -5l-99 -99q-5 -5 -5 -13t5 -13l99 -99q5 -5 13 -5t14 5l49 49q5 6 13.5 6 t13.5 -6l49 -49q6 -5 14 -5t13 5l49 49q6 6 14 6t13 -6q6 -5 6 -13t-6 -14l-49 -49q-6 -5 -6 -13.5t6 -13.5l98 -98q6 -6 14 -6t14 6l49 49q5 5 13 5t14 -5q5 -6 5 -14t-5 -13l-50 -49q-5 -6 -5 -14t5 -13l50 -49q12 -14 0 -28q-6 -5 -14 -5t-13 5l-49 50q-14 12 -28 0 l-98 -99q-6 -5 -6 -13t6 -14l49 -49q9 -8 5.5 -18t-13 -13t-19.5 4l-49 50q-13 13 -27 0l-49 -50q-5 -5 -13.5 -5t-13.5 5l-49 50q-14 13 -27 0l-50 -50q-13 -13 -26 0l-50 50q-13 13 -27 0l-49 -50q-5 -5 -13.5 -5t-13.5 5zM194 76l23 -22q5 -5 13 -5t13 5l23 22q5 6 5 14 t-5 13l-23 23q-5 5 -13 5t-13 -5l-23 -23q-5 -5 -5 -13t5 -14zM347 76l22 -22q5 -5 13.5 -5t13.5 5l22 22q5 6 5 14t-5 13l-22 23q-5 5 -13.5 5t-13.5 -5l-22 -23q-6 -5 -6 -13t6 -14zM347 381l22 -22q5 -5 13.5 -5t13.5 5l22 22q5 5 5 13.5t-5 13.5l-22 22q-5 6 -13.5 6 t-13.5 -6l-22 -22q-6 -5 -6 -13.5t6 -13.5zM347 686l22 -22q5 -6 13.5 -6t13.5 6l22 22q5 5 5 13.5t-5 13.5l-22 22q-5 5 -13.5 5t-13.5 -5l-22 -22q-6 -5 -6 -13.5t6 -13.5zM499 686l22 -22q6 -6 14 -6t13 6l23 22q5 5 5 13.5t-5 13.5l-23 22q-5 5 -13 5t-14 -5l-22 -22 q-6 -5 -6 -13.5t6 -13.5z" />
<glyph unicode="t" horiz-adv-x="917" d="M64 637l49 49q6 5 6 13t-6 14l-49 49q-12 14 0.5 26.5t26.5 0.5l49 -49q5 -6 13.5 -6t13.5 6l49 49q6 5 14 5t13 -5l50 -49q5 -6 13 -6t13 6l50 49q5 5 13 5t14 -5q5 -5 5 -13t-5 -14l-50 -49q-5 -6 -5 -14t5 -13l99 -99q5 -5 13.5 -5t13.5 5l98 99q6 5 6 13t-6 14 l-49 49q-5 6 -5 14t5 13q6 5 14 5t13 -5l49 -49q6 -6 14 -6t13 6l49 49q6 5 14 5t13 -5l50 -49q5 -6 13 -6t14 6l49 49q5 5 13 5t14 -5q5 -5 5 -13t-5 -14l-50 -49q-5 -6 -5 -14t5 -13l50 -49q8 -9 4 -19.5t-13 -13t-18 5.5l-49 49q-6 5 -14 5t-13 -5l-50 -49q-5 -6 -13 -6 t-14 6l-49 49q-5 5 -13 5t-14 -5l-98 -99q-6 -5 -6 -13t6 -13l49 -50q5 -5 5 -13t-5 -14l-49 -49q-6 -5 -6 -13.5t6 -13.5l49 -49q5 -6 5 -14t-5 -13l-49 -49q-6 -6 -6 -14t6 -13l49 -49q12 -14 0 -28l-49 -49q-6 -5 -6 -13t6 -14l49 -49q5 -5 5 -13t-5 -14q-5 -5 -13 -5 t-14 5l-49 49q-5 6 -13.5 6t-13.5 -6l-49 -49q-9 -8 -19.5 -4t-13 13t5.5 18l49 49q5 6 5 14t-5 13l-49 49q-6 6 -6 14t6 14l49 49q5 5 5 13t-5 14l-49 49q-6 5 -6 13t6 14l49 49q5 5 5 13.5t-5 13.5l-49 49q-6 6 -6 14t6 13l49 50q5 5 5 13t-5 13l-99 99q-5 5 -13 5t-13 -5 l-50 -49q-5 -6 -13 -6t-14 6l-49 49q-5 5 -13.5 5t-13.5 -5l-49 -49q-13 -13 -26 0t-1 27zM194 686l22 -22q6 -6 14 -6t13 6l22 22q6 5 6 13t-6 14l-22 22q-5 5 -13 5t-14 -5l-22 -22q-5 -6 -5 -14t5 -13zM423 152l22 -22q5 -5 13.5 -5t13.5 5l22 22q12 14 0 28l-22 22 q-5 5 -13.5 5t-13.5 -5l-22 -22q-6 -6 -6 -14t6 -14zM423 305l22 -23q5 -5 13.5 -5t13.5 5l22 23q5 5 5 13t-5 14l-22 22q-5 6 -13.5 6t-13.5 -6l-22 -22q-6 -6 -6 -14t6 -13zM423 457l22 -22q5 -5 13.5 -5t13.5 5l22 22q5 6 5 14t-5 13l-22 22q-5 6 -13.5 6t-13.5 -6 l-22 -22q-6 -5 -6 -13t6 -14zM651 686l22 -22q6 -6 14 -6t13 6l23 22q5 5 5 13t-5 14l-23 22q-5 5 -13 5t-14 -5l-22 -22q-5 -6 -5 -14t5 -13z" />
<glyph unicode="u" d="M64 179l49 49q12 14 0 28l-49 49q-14 13 0 27l49 49q13 13 0 27l-49 49q-6 5 -6 13.5t6 13.5l49 49q13 14 0 27l-49 50q-6 5 -6 13t6 13l49 50q13 13 0 27l-49 49q-9 8 -5.5 18t13 13t19.5 -4l49 -49q14 -14 27 0l49 49q14 13 27 0t0 -27l-49 -49q-14 -14 0 -27l49 -50 q13 -13 0 -26l-49 -50q-14 -13 0 -27l49 -49q13 -14 0 -27l-49 -49q-14 -14 0 -27l49 -49q13 -14 0 -27l-49 -49q-14 -14 0 -28l98 -98q14 -14 27 0l50 49q13 14 27 0l49 -49q13 -14 27 0l98 98q14 14 0 28l-49 49q-13 13 0 27l49 49q14 13 0 27l-49 49q-13 13 0 27l49 49 q14 14 0 27l-49 50q-13 13 0 26l49 50q14 13 0 27l-49 49q-13 14 0 27t27 0l49 -49q14 -14 27 0l50 49q12 12 26 0q13 -14 0 -27l-49 -49q-5 -6 -5 -14t5 -13l49 -50q6 -5 6 -13t-6 -13l-49 -50q-5 -5 -5 -13t5 -14l49 -49q6 -5 6 -13.5t-6 -13.5l-49 -49q-5 -6 -5 -14 t5 -13l49 -49q6 -6 6 -14t-6 -13l-49 -49q-12 -14 0 -28l49 -49q8 -7 5 -17.5t-12.5 -13.5t-18.5 4l-50 50q-5 5 -13 5t-14 -5l-98 -99q-6 -5 -6 -13t6 -14l49 -49q8 -8 4 -18.5t-13 -13.5t-18 5l-49 49q-6 5 -14 5t-13 -5l-49 -49q-6 -6 -14 -6t-13 6l-50 49q-5 5 -13 5 t-14 -5l-49 -49q-8 -9 -18 -5t-13 13.5t4 18.5l50 49q13 14 0 27l-99 99q-13 13 -27 0l-49 -50q-9 -8 -19.5 -4t-13 13t5.5 18zM118 305l22 -23q14 -13 27 0l22 23q14 13 0 27l-22 22q-13 13 -27 0l-22 -22q-14 -14 0 -27zM118 457l22 -22q14 -14 27 0l22 22q6 5 6 13.5 t-6 13.5l-22 22q-13 14 -27 0l-22 -22q-6 -5 -6 -13.5t6 -13.5zM118 610l22 -23q14 -13 27 0l22 23q6 5 6 13t-6 13l-22 23q-13 13 -27 0l-22 -23q-6 -5 -6 -13t6 -13zM346 76l23 -22q13 -14 27 0l22 22q13 14 0 27l-22 22q-14 14 -27 0l-23 -22q-13 -13 0 -27zM575 305 l22 -23q14 -13 27 0l22 23q14 13 0 27l-22 22q-13 13 -27 0l-22 -22q-13 -14 0 -27zM575 457l22 -22q14 -14 27 0l22 22q6 5 6 13.5t-6 13.5l-22 22q-13 14 -27 0l-22 -22q-13 -14 0 -27zM575 610l22 -23q14 -13 27 0l22 23q6 5 6 13t-6 13l-22 23q-13 13 -27 0l-22 -23 q-13 -13 0 -26z" />
<glyph unicode="v" horiz-adv-x="917" d="M64 305q-5 5 -5 13t5 14l49 49q6 5 6 13.5t-6 13.5l-49 49q-5 6 -5 14t5 13l49 50q6 5 6 13t-6 13l-49 50q-5 5 -5 13t5 13l49 50q6 5 6 13t-6 14l-49 49q-5 6 -5 14t5 13q6 5 14 5t13 -5l50 -49q3 -4 8 -5.5t10 0t8 5.5l50 49q5 5 13 5t14 -5q5 -5 5 -13t-5 -14l-50 -49 q-5 -6 -5 -14t5 -13l50 -50q5 -5 5 -13t-5 -13l-50 -50q-5 -5 -5 -13t5 -13l50 -50q5 -5 5 -13t-5 -14l-50 -49q-5 -5 -5 -13.5t5 -13.5l99 -99q5 -5 13.5 -5t13.5 5l49 50q6 5 14 5t13 -5q5 -6 5 -14t-5 -13l-49 -49q-2 -2 -3.5 -4.5t-2 -4.5t-0.5 -4.5t0.5 -5t2 -4.5 t3.5 -4l98 -99q6 -5 14 -5t13 5l99 99q5 5 5 13t-5 14l-50 49q-5 5 -5 13t5 14q14 12 28 0l49 -50q5 -5 13 -5t14 5l98 99q6 5 6 13.5t-6 13.5l-49 49q-5 6 -5 14t5 13l49 50q6 5 6 13t-6 13l-49 50q-5 5 -5 13t5 13l49 50q6 5 6 13t-6 14l-49 49q-8 9 -4.5 19t12.5 12.5 t19 -4.5l49 -49q5 -6 13 -6t14 6l49 49q14 12 27 -1t0 -26l-49 -49q-5 -6 -5 -14t5 -13l49 -50q6 -5 6 -13t-6 -13l-49 -50q-5 -5 -5 -13t5 -13l49 -50q6 -5 6 -13t-6 -14l-49 -49q-5 -5 -5 -13.5t5 -13.5l49 -49q13 -13 0 -26t-27 -1l-49 49q-14 14 -27 0l-99 -98 q-13 -14 0 -27l50 -49q12 -14 0 -28q-14 -13 -27 0l-49 50q-14 13 -27 0l-99 -99q-13 -13 0 -27l50 -49q13 -13 0 -27q-14 -12 -28 0l-49 49q-13 14 -27 0l-49 -49q-13 -13 -27 0q-13 14 0 27l49 49q14 14 0 27l-98 99q-5 5 -13.5 5t-13.5 -5l-49 -50q-14 -13 -27 1t0 27 l49 49q13 13 0 27l-99 98q-5 6 -13 6t-13 -6l-50 -49q-13 -13 -27 0zM118 457l23 -22q5 -5 13 -5t13 5l23 22q5 6 5 14t-5 13l-23 22q-5 6 -13 6t-13 -6l-23 -22q-5 -5 -5 -13t5 -14zM118 610l23 -23q5 -5 13 -5t13 5l23 23q5 5 5 13t-5 13l-23 23q-5 5 -13 5t-13 -5 l-23 -23q-5 -5 -5 -13t5 -13zM728 457l22 -22q5 -5 13 -5t14 5l22 22q6 6 6 14t-6 13l-22 22q-6 6 -14 6t-13 -6l-22 -22q-6 -5 -6 -13t6 -14zM728 610l22 -23q5 -5 13 -5t14 5l22 23q6 5 6 13t-6 13l-22 23q-6 5 -14 5t-13 -5l-22 -23q-6 -5 -6 -13t6 -13z" />
<glyph unicode="w" horiz-adv-x="916" d="M64 179l49 49q12 14 0 28l-49 49q-6 5 -6 13t6 14l49 49q5 5 5 13t-5 14l-49 49q-6 5 -6 13.5t6 13.5l49 49q5 6 5 14t-5 13l-49 50q-6 5 -6 13t6 13l49 50q5 5 5 13t-5 14l-49 49q-13 11 -1 25q14 14 27 2l50 -49q5 -6 13 -6t13 6l50 49q13 13 27 0q13 -13 0 -27 l-49 -49q-14 -14 0 -27l49 -50q13 -13 0 -26l-49 -50q-14 -13 0 -27l49 -49q13 -14 0 -27l-49 -49q-14 -14 0 -27l49 -49q13 -14 0 -27l-49 -49q-14 -14 0 -28l98 -98q14 -13 27 0l99 98q12 14 0 28l-50 49q-13 13 0 27l50 49q13 13 0 27l-50 49q-5 5 -5 13.5t5 13.5l50 49 q13 14 0 27l-50 50q-13 13 0 26l50 50q13 13 0 27l-50 49q-5 5 -5 13.5t5 13.5q14 13 27 0l49 -49q14 -14 27 0l50 49q13 13 27 0q5 -5 5 -13.5t-5 -13.5l-50 -49q-13 -14 0 -27l50 -50q13 -13 0 -26l-50 -50q-13 -13 0 -27l50 -49q5 -5 5 -13.5t-5 -13.5l-50 -49 q-13 -14 0 -27l50 -49q13 -14 0 -27l-50 -49q-12 -14 0 -28l99 -98q13 -13 27 0l98 98q14 14 0 28l-49 49q-13 13 0 27l49 49q14 13 0 27l-49 49q-13 13 0 27l49 49q14 14 0 27l-49 50q-13 13 0 26l49 50q14 13 0 27l-49 49q-13 14 0 27t27 0l49 -49q14 -14 27 0l50 49 q12 12 26 0q13 -14 0 -27l-49 -49q-5 -6 -5 -14t5 -13l49 -50q6 -5 6 -13t-6 -13l-49 -50q-5 -5 -5 -13t5 -14l49 -49q6 -5 6 -13.5t-6 -13.5l-49 -49q-5 -6 -5 -14t5 -13l49 -49q6 -6 6 -14t-6 -13l-49 -49q-12 -14 0 -28l49 -49q8 -7 5 -17.5t-12.5 -13.5t-18.5 4l-50 50 q-5 5 -13 5t-14 -5l-98 -99q-6 -5 -6 -13t6 -14l49 -49q8 -8 4 -18.5t-13 -13.5t-18 5l-49 49q-6 6 -14 6t-13 -6l-49 -49q-6 -6 -14 -6t-13 6q-6 5 -6 13.5t6 13.5l49 49q5 6 5 14t-5 13l-99 99q-5 5 -13 5t-14 -5l-98 -99q-6 -5 -6 -13t6 -14l49 -49q13 -13 0 -27t-27 0 l-49 49q-5 6 -13 6t-14 -6l-49 -49q-6 -6 -14 -6t-13 6q-6 5 -6 13.5t6 13.5l49 49q5 6 5 14t-5 13l-99 99q-5 5 -13 5t-13 -5l-50 -50q-14 -14 -27 2q-12 14 1 25zM117 305l23 -23q5 -5 13 -5t13 5l23 23q5 5 5 13t-5 14l-23 22q-5 5 -13 5t-13 -5l-23 -22q-5 -6 -5 -14 t5 -13zM117 457l23 -22q5 -6 13 -6t13 6l23 22q5 5 5 13.5t-5 13.5l-23 22q-5 6 -13 6t-13 -6l-23 -22q-5 -5 -5 -13.5t5 -13.5zM117 610l23 -23q5 -5 13 -5t13 5l23 23q5 5 5 13t-5 13l-23 23q-5 5 -13 5t-13 -5l-23 -23q-5 -5 -5 -13t5 -13zM422 305l22 -23q6 -5 14 -5 t13 5l23 23q5 5 5 13t-5 14l-23 22q-5 5 -13 5t-14 -5l-22 -22q-5 -6 -5 -14t5 -13zM422 457l22 -22q6 -6 14 -6t13 6l23 22q5 5 5 13.5t-5 13.5l-23 22q-5 6 -13 6t-14 -6l-22 -22q-5 -5 -5 -13.5t5 -13.5zM422 610l22 -23q6 -5 14 -5t13 5l23 23q5 5 5 13t-5 13l-23 23 q-5 5 -13 5t-14 -5l-22 -23q-5 -5 -5 -13t5 -13zM727 305l22 -23q6 -5 14 -5t13 5l22 23q6 5 6 13t-6 14l-22 22q-5 5 -13 5t-14 -5l-22 -22q-5 -6 -5 -14t5 -13zM727 457l22 -22q6 -6 14 -6t13 6l22 22q6 5 6 13.5t-6 13.5l-22 22q-5 6 -13 6t-14 -6l-22 -22 q-5 -5 -5 -13.5t5 -13.5zM727 610l22 -23q6 -5 14 -5t13 5l22 23q6 5 6 13t-6 13l-22 23q-5 5 -13 5t-14 -5l-22 -23q-5 -5 -5 -13t5 -13z" />
<glyph unicode="x" horiz-adv-x="917" d="M64 0q-5 6 -5 14t5 13l49 49q6 6 6 14t-6 13l-49 49q-13 15 2 28q14 10 25 -1l50 -49q5 -5 13 -5t13 5l99 99q5 5 5 13t-5 14l-49 49q-13 11 -1 25q13 16 27 2l50 -50q5 -5 13 -5t14 5l98 99q6 5 6 13t-6 14l-98 98q-6 6 -14 6t-13 -6l-50 -49q-8 -8 -18.5 -4t-13 13 t5.5 18l49 49q5 6 5 14t-5 13l-99 99q-5 5 -13 5t-13 -5l-50 -49q-7 -8 -17.5 -5t-13.5 12.5t4 18.5l49 50q6 5 6 13t-6 14l-49 49q-5 5 -5 13.5t5 13.5q6 5 14 5t13 -5l50 -49q5 -6 13 -6t13 6l50 49q12 12 26 0q13 -14 0 -27l-49 -49q-5 -6 -5 -14t5 -13l99 -99 q5 -5 13 -5t14 5l49 49q8 9 18 5.5t13 -13t-4 -18.5l-49 -50q-6 -5 -6 -13t6 -14l98 -98q6 -5 14 -5t13 5l99 98q5 6 5 14t-5 13l-50 50q-8 8 -4 18.5t13.5 13t17.5 -5.5l49 -49q14 -12 28 0l98 99q14 13 0 27l-49 49q-9 8 -5.5 18t13 13t19.5 -4l49 -49q5 -6 13 -6t14 6 l49 49q8 8 19 4.5t13.5 -13t-5.5 -18.5l-49 -49q-13 -14 0 -27l49 -50q6 -5 6 -13t-6 -13q-5 -6 -13.5 -6t-13.5 6l-49 49q-14 13 -27 0l-99 -99q-13 -13 0 -27l50 -49q13 -14 0 -27q-14 -13 -27 0l-49 49q-14 14 -28 0l-98 -98q-13 -14 0 -27l98 -99q14 -12 28 0l49 50 q13 13 27 0q13 -14 0 -27l-50 -49q-13 -14 0 -27l99 -99q13 -13 27 0l49 49q5 6 13.5 6t13.5 -6q14 -13 0 -27l-49 -49q-13 -13 0 -27l49 -49q14 -13 0 -27q-5 -5 -13.5 -5t-13.5 5l-49 49q-14 14 -27 0l-49 -49q-9 -8 -19.5 -4t-13 13t5.5 18l49 49q14 14 0 27l-98 99 q-14 12 -28 0l-49 -50q-13 -13 -27 0q-13 14 0 27l50 50q13 13 0 27l-99 98q-13 14 -27 0l-98 -98q-14 -14 0 -27l49 -50q13 -13 0 -27q-5 -5 -13.5 -5t-13.5 5l-49 50q-14 13 -27 0l-99 -99q-13 -13 0 -27l49 -49q8 -7 5 -17.5t-12.5 -13.5t-18.5 4l-50 49q-5 6 -13 6 t-13 -6l-50 -49q-13 -13 -27 0z" />
<glyph unicode="y" horiz-adv-x="917" d="M64 609q-5 6 -5 14t5 13l49 49q6 6 6 14t-6 13l-49 50q-5 5 -5 13t5 14q6 5 14 5t13 -5l49 -50q6 -5 14 -5t13 5l50 50q5 5 13 5t14 -5q5 -6 5 -14t-5 -13l-50 -50q-5 -5 -5 -13t5 -14l99 -98q5 -5 13 -5t14 5l49 49q8 9 18 5.5t13 -13t-4 -19.5l-50 -49q-5 -5 -5 -13.5 t5 -13.5l99 -98q13 -14 27 0l98 98q6 5 6 13.5t-6 13.5l-49 49q-8 9 -4 19.5t13 13t18 -5.5l49 -49q14 -13 27 0l99 98q13 14 0 27l-50 50q-13 13 0 27q14 13 27 0l50 -50q13 -13 27 0l49 50q13 13 27 0q13 -14 0 -27l-50 -50q-13 -13 0 -27l50 -49q13 -13 0 -27 q-14 -13 -27 0l-49 50q-14 13 -27 0l-99 -99q-13 -14 0 -27l49 -49q9 -8 5.5 -18t-13 -13t-19.5 4l-49 49q-13 14 -27 0l-98 -98q-14 -14 0 -27l49 -49q13 -14 0 -27l-49 -50q-14 -13 0 -27l49 -49q13 -13 0 -27l-49 -49q-14 -13 0 -27l49 -49q5 -5 5 -13.5t-5 -13.5 t-13.5 -5t-13.5 5l-49 49q-14 14 -27 0l-49 -49q-9 -8 -19.5 -4t-13 13t5.5 18l49 49q13 14 0 27l-49 49q-14 14 0 27l49 49q13 14 0 27l-49 50q-14 13 0 27l49 49q13 13 0 27l-98 98q-14 14 -27 0l-49 -49q-9 -8 -19.5 -4t-13 13t5.5 18l49 49q5 5 5 13.5t-5 13.5l-99 99 q-13 13 -27 0l-49 -50q-13 -13 -27 0zM423 152l22 -22q5 -5 13 -5t14 5l22 22q6 6 6 14t-6 13l-22 22q-6 6 -14 6t-13 -6l-22 -22q-6 -5 -6 -13t6 -14zM423 305l22 -23q5 -5 13 -5t14 5l22 23q6 5 6 13t-6 14l-22 22q-6 5 -14 5t-13 -5l-22 -22q-6 -6 -6 -14t6 -13z" />
<glyph unicode="z" horiz-adv-x="765" d="M64 0q-5 6 -5 14t5 13l50 49q5 6 5 14t-5 13l-50 49q-12 14 0 28q14 12 28 0l49 -50q5 -5 13 -5t14 5l98 99q6 5 6 13t-6 14l-49 49q-5 5 -5 13t5 14q5 5 13 5t14 -5l49 -49q5 -6 13.5 -6t13.5 6l98 98q6 5 6 13.5t-6 13.5l-49 49q-8 9 -4 19.5t13 13t18 -5.5l50 -49 q5 -5 13 -5t13 5l99 99q5 5 5 13t-5 13l-99 99q-5 5 -13 5t-13 -5l-50 -49q-5 -6 -13 -6t-14 6l-49 49q-5 5 -13.5 5t-13.5 -5l-49 -49q-6 -6 -14 -6t-13 6l-49 49q-6 5 -14 5t-13 -5l-49 -49q-13 -13 -27 0t-1 27l50 49q5 5 5 13.5t-5 13.5l-50 49q-5 6 -5 14t5 13 q14 12 28 0l49 -49q5 -6 13 -6t14 6l49 49q5 5 13 5t14 -5l49 -49q5 -6 13.5 -6t13.5 6l49 49q6 5 14 5t13 -5l50 -49q5 -6 13 -6t13 6l50 49q5 5 13 5t13 -5l50 -49q5 -6 13 -6t14 6l49 49q14 12 26.5 -0.5t0.5 -26.5l-49 -49q-6 -5 -6 -13.5t6 -13.5l49 -49q13 -14 0 -27 l-49 -50q-6 -5 -6 -13t6 -13l49 -50q13 -13 0 -27q-13 -13 -27 0l-49 50q-14 13 -27 0l-99 -99q-13 -14 0 -27l49 -49q8 -8 4.5 -18.5t-12.5 -13t-18 4.5l-50 49q-5 6 -13 6t-13 -6l-99 -98q-13 -14 0 -27l99 -99q13 -13 26 0l50 50q13 13 26 0l50 -50q13 -13 27 0l49 50 q14 13 27 0q12 -14 0 -28l-49 -49q-14 -13 0 -27l49 -49q13 -13 0 -27q-13 -13 -27 0l-49 50q-14 13 -27 0l-50 -50q-13 -13 -26 0l-50 50q-13 13 -26 0l-50 -50q-13 -13 -27 0l-49 50q-5 5 -13.5 5t-13.5 -5l-49 -50q-14 -13 -27 0l-49 50q-14 13 -27 0l-49 -50 q-14 -12 -28 0zM194 76l23 -22q5 -5 13 -5t14 5l22 22q6 6 6 14t-6 13l-22 23q-6 5 -14 5t-13 -5l-23 -23q-5 -5 -5 -13t5 -14zM194 686l23 -22q5 -6 13 -6t14 6l22 22q6 5 6 13.5t-6 13.5l-22 22q-6 6 -14 6t-13 -6l-23 -22q-5 -5 -5 -13.5t5 -13.5zM271 152l22 -22 q5 -5 13.5 -5t13.5 5l22 22q6 6 6 14t-6 14l-22 22q-5 5 -13.5 5t-13.5 -5l-22 -22q-6 -6 -6 -14t6 -14zM347 76l22 -22q6 -5 14 -5t13 5l22 22q6 6 6 14t-6 13l-22 23q-5 5 -13 5t-14 -5l-22 -23q-5 -5 -5 -13t5 -14zM347 686l22 -22q6 -6 14 -6t13 6l22 22q6 5 6 13.5 t-6 13.5l-22 22q-5 6 -13 6t-14 -6l-22 -22q-5 -5 -5 -13.5t5 -13.5zM499 76l23 -22q5 -5 13 -5t13 5l23 22q5 6 5 14t-5 13l-23 23q-5 5 -13 5t-13 -5l-23 -23q-5 -5 -5 -13t5 -14zM499 686l23 -22q5 -6 13 -6t13 6l23 22q5 5 5 13.5t-5 13.5l-23 22q-5 6 -13 6t-13 -6 l-23 -22q-5 -5 -5 -13.5t5 -13.5zM576 610l22 -22q5 -6 13 -6t14 6l22 22q5 5 5 13t-5 14l-22 22q-6 5 -14 5t-13 -5l-22 -22q-6 -6 -6 -14t6 -13z" />
<glyph unicode="{" horiz-adv-x="460" d="M64 762q-13 13 0 27q14 13 27 0l305 -305q14 -14 0 -27q-13 -14 -27 0z" />
<glyph unicode="|" horiz-adv-x="612" d="M64 -125l202 201q5 5 5 13.5t-5 13.5l-50 49q-13 14 0 27l50 50q13 13 0 26l-50 50q-13 13 0 27l50 49q5 5 5 13.5t-5 13.5l-50 49q-13 14 0 27l50 49q13 14 0 27l-50 49q-13 14 0 27l50 50q13 13 0 27l-50 49q-13 13 0 27q14 12 28 0l49 -50q13 -13 27 0l201 202 q14 14 27 0q14 -13 0 -27l-201 -201q-14 -14 0 -27l49 -50q13 -13 0 -27l-49 -49q-14 -13 0 -27l49 -49q13 -13 0 -27l-49 -49q-6 -5 -6 -13.5t6 -13.5l49 -49q13 -14 0 -27l-49 -50q-6 -5 -6 -13t6 -13l49 -50q13 -13 0 -27l-49 -49q-6 -5 -6 -13.5t6 -13.5l49 -49 q13 -14 0 -27q-14 -13 -27 0l-49 49q-14 14 -27 0l-202 -202q-13 -13 -27 0q-12 14 0 28zM270 152l23 -22q13 -13 27 0l22 22q14 14 0 27l-22 22q-14 14 -27 0l-23 -22q-13 -13 0 -27zM270 305l23 -23q13 -13 27 0l22 23q14 13 0 27l-22 22q-14 13 -27 0l-23 -22 q-13 -14 0 -27zM270 457l23 -22q13 -14 27 0l22 22q14 14 0 27l-22 22q-14 14 -27 0l-23 -22q-13 -13 0 -27zM270 609l23 -22q13 -13 27 0l22 22q14 14 0 27l-22 23q-14 13 -27 0l-23 -23q-13 -13 0 -27z" />
<glyph unicode="}" horiz-adv-x="460" d="M64 457q-14 13 0 27l305 305q13 13 27 0q13 -14 0 -27l-305 -305q-14 -14 -27 0z" />
<glyph unicode="~" horiz-adv-x="151" />
<glyph unicode="&#xa1;" horiz-adv-x="307" d="M64 27l49 49q5 6 5 14t-5 13l-49 50q-6 5 -6 13t6 13l49 50q5 5 5 13t-5 14l-49 49q-6 5 -6 13.5t6 13.5l49 49q5 6 5 14t-5 13l-49 49q-6 6 -6 14t6 13q5 6 13 6t13 -6l50 -49q5 -6 13 -6t13 6l50 49q8 9 18 5.5t13 -13t-4 -19.5l-49 -49q-6 -5 -6 -13t6 -14l49 -49 q5 -5 5 -13.5t-5 -13.5l-49 -49q-6 -6 -6 -14t6 -13l49 -50q5 -5 5 -13t-5 -13l-49 -50q-6 -5 -6 -13t6 -14l49 -49q5 -5 5 -13.5t-5 -13.5q-6 -5 -14 -5t-13 5l-50 49q-5 6 -13 6t-13 -6l-50 -49q-8 -8 -18.5 -4t-13 13t5.5 18zM64 610q-6 5 -6 13t6 14l49 49q5 5 5 13 t-5 14l-49 49q-8 7 -5 17.5t12.5 13.5t18.5 -4l50 -49q5 -6 13 -6t13 6l50 49q5 5 13 5t14 -5q5 -6 5 -14t-5 -13l-49 -49q-6 -6 -6 -14t6 -13l49 -49q8 -9 4 -19.5t-13 -13t-18 5.5l-50 49q-5 5 -13 5t-13 -5l-50 -49q-5 -6 -13 -6t-13 6zM117 153l23 -23q5 -5 13 -5t13 5 l23 23q5 5 5 13t-5 13l-23 23q-5 5 -13 5t-13 -5l-23 -23q-5 -5 -5 -13t5 -13zM117 305l23 -22q5 -6 13 -6t13 6l23 22q5 5 5 13.5t-5 13.5l-23 22q-5 5 -13 5t-13 -5l-23 -22q-5 -5 -5 -13.5t5 -13.5z" />
<glyph unicode="&#xa3;" horiz-adv-x="917" d="M64 0q-13 14 0 27l49 49q14 14 0 27l-49 49q-8 9 -4 19.5t13 13t18 -5.5l49 -49q14 -13 27 0l99 99q13 13 0 27l-99 98q-13 14 -27 0l-49 -49q-12 -13 -25 -1q-15 13 -2 28l49 49q6 5 6 13t-6 14l-49 49q-5 5 -5 13.5t5 13.5t13.5 5t13.5 -5l49 -49q6 -6 14 -6t13 6 l99 98q5 6 5 14t-5 13l-49 49q-6 6 -6 14t6 13q5 6 13 6t13 -6l50 -49q5 -5 13 -5t14 5l98 98q12 14 0 28l-49 49q-6 5 -6 13t6 14q5 5 13.5 5t13.5 -5l49 -50q6 -5 14 -5t13 5l49 50q6 5 14 5t13 -5l49 -50q14 -12 28 0l49 50q5 5 13 5t14 -5q5 -6 5 -14t-5 -13l-50 -49 q-12 -14 0 -28l50 -49q5 -5 5 -13t-5 -14q-6 -5 -14 -5t-13 5l-49 50q-14 12 -28 0l-49 -50q-5 -5 -13 -5t-14 5l-49 50q-5 5 -13 5t-14 -5l-98 -99q-6 -5 -6 -13t6 -14l98 -98q6 -6 14 -6t13 6l49 49q9 8 19.5 4t13 -13t-5.5 -18l-49 -49q-6 -6 -6 -14t6 -13l49 -49 q6 -6 6 -14t-6 -13q-5 -6 -13 -6t-14 6l-49 49q-5 6 -13 6t-14 -6l-98 -98q-2 -2 -3.5 -4.5t-2 -4.5t-0.5 -4.5t0.5 -5t2 -4.5t3.5 -4l98 -99q6 -5 14 -5t13 5l49 49q6 6 14 6t13 -6l49 -49q14 -12 28 0l98 99q5 5 5 13t-5 14l-49 49q-9 8 -5.5 18t13 13t19.5 -4l49 -50 q13 -13 27 0l49 50q5 5 13.5 5t13.5 -5q13 -14 0 -27l-49 -49q-14 -14 0 -27l49 -50q13 -13 0 -27q-5 -5 -13.5 -5t-13.5 5l-49 50q-14 13 -27 0l-99 -99q-13 -13 0 -27l50 -49q13 -13 0 -27q-14 -13 -27 0l-49 49q-14 14 -28 0l-49 -49q-13 -13 -27 0l-49 49q-13 14 -27 0 l-49 -49q-5 -5 -13.5 -5t-13.5 5l-49 49q-14 14 -27 0l-50 -49q-13 -13 -26 0l-50 49q-13 14 -27 0l-49 -49q-5 -5 -13.5 -5t-13.5 5zM194 76l23 -22q5 -6 13 -6t13 6l23 22q13 14 0 27l-23 23q-13 13 -26 0l-23 -23q-13 -13 0 -27zM194 381l23 -22q5 -6 13 -6t13 6l23 22 q13 13 0 27l-23 22q-13 13 -26 0l-23 -22q-13 -14 0 -27zM270 152l23 -22q13 -13 27 0l22 22q13 14 0 27l-22 23q-14 13 -27 0l-23 -23q-13 -13 0 -27zM270 305l23 -23q13 -13 27 0l22 23q13 13 0 27l-22 22q-14 14 -27 0l-23 -22q-13 -14 0 -27zM270 457l23 -22 q13 -14 27 0l22 22q5 5 5 13.5t-5 13.5l-22 22q-14 14 -27 0l-23 -22q-5 -5 -5 -13.5t5 -13.5zM347 76l22 -22q5 -6 13.5 -6t13.5 6l22 22q13 14 0 27l-22 23q-5 5 -13.5 5t-13.5 -5l-22 -23q-14 -13 0 -27zM347 381l22 -22q5 -6 13.5 -6t13.5 6l22 22q13 13 0 27l-22 22 q-5 5 -13.5 5t-13.5 -5l-22 -22q-14 -14 0 -27zM499 76l22 -22q14 -14 27 0l23 22q13 14 0 27l-23 23q-13 13 -27 0l-22 -23q-14 -13 0 -27zM499 685l22 -22q14 -13 27 0l23 22q12 14 0 28l-23 22q-13 13 -27 0l-22 -22q-14 -14 0 -28z" />
<glyph unicode="&#xa9;" horiz-adv-x="1222" d="M64 76q-5 6 -5 14t5 13l49 49q6 6 6 14t-6 13l-49 49q-12 14 0 28l49 49q6 5 6 13t-6 14l-49 49q-5 5 -5 13t5 14l49 49q6 5 6 13.5t-6 13.5l-49 49q-13 15 2 28q14 10 25 -1l50 -49q5 -5 13 -5t13 5l99 99q5 5 5 13t-5 13l-49 50q-9 8 -5.5 18t13 13t19.5 -4l49 -49 q5 -6 13.5 -6t13.5 6l98 98q6 5 6 13.5t-6 13.5l-49 49q-5 6 -5 14t5 13q6 5 14 5t13 -5l49 -49q6 -6 14 -6t13 6l49 49q14 12 28 0l49 -49q5 -6 13 -6t14 6l49 49q5 5 13 5t14 -5l49 -49q5 -6 13.5 -6t13.5 6l49 49q14 12 27 -1t0 -26l-49 -49q-5 -5 -5 -13.5t5 -13.5 l99 -98q5 -6 13 -6t13 6l50 49q8 8 18.5 4t13 -13.5t-5.5 -17.5l-49 -50q-5 -5 -5 -13t5 -13l99 -99q5 -5 13 -5t14 5l49 49q13 13 26 0t1 -27l-49 -49q-6 -5 -6 -13.5t6 -13.5l49 -49q5 -6 5 -14t-5 -13l-49 -49q-6 -6 -6 -14t6 -13l49 -49q12 -14 0 -28l-49 -49 q-6 -5 -6 -13t6 -14l49 -49q5 -5 5 -13t-5 -14q-5 -5 -13 -5t-14 5l-49 50q-6 5 -14 5t-13 -5l-99 -99q-5 -5 -5 -13.5t5 -13.5l49 -49q6 -6 6 -14t-6 -13q-5 -6 -13 -6t-13 6l-50 49q-5 5 -13 5t-13 -5l-99 -99q-5 -5 -5 -13t5 -13l49 -50q9 -8 5.5 -18t-13 -13t-19.5 4 l-49 50q-13 13 -27 0l-49 -50q-14 -13 -27 0l-49 50q-14 13 -27 0l-49 -50q-14 -12 -28 0l-49 50q-13 13 -27 0l-49 -50q-13 -13 -27 0q-13 14 0 27l49 50q6 5 6 13t-6 13l-98 99q-14 13 -27 0l-49 -49q-14 -14 -27 0q-14 13 0 27l49 49q5 5 5 13.5t-5 13.5l-99 99 q-13 13 -26 0l-50 -50q-13 -13 -27 0zM118 228l23 -22q5 -5 13 -5t13 5l23 22q12 14 0 28l-23 22q-5 5 -13 5t-13 -5l-23 -22q-12 -14 0 -28zM118 381l23 -22q5 -6 13 -6t13 6l23 22q5 5 5 13t-5 14l-23 22q-5 6 -13 6t-13 -6l-23 -22q-5 -6 -5 -14t5 -13zM194 152l23 -22 l13 -14q6 -6 14 -13l49 -49q5 -6 13.5 -6t13.5 6l49 49q6 5 14 5t13 -5q14 -13 7 -20l-56 -56q-6 -5 -6 -13.5t6 -13.5l98 -98q6 -6 14 -6t13 6l49 49q14 12 28 0l49 -49q5 -6 13 -6t14 6l49 49q5 5 13 5t14 -5l49 -49q5 -6 13.5 -6t13.5 6l98 98q6 5 6 13.5t-6 13.5l-49 49 q-5 6 -5 14t5 13q6 5 14 5t13 -5l50 -49q5 -6 13 -6t13 6l99 98q5 6 5 14t-5 13l-49 49q-6 6 -6 14t6 14l49 49q5 5 5 13t-5 14l-49 49q-6 5 -6 13t6 14l49 49q5 5 5 13.5t-5 13.5l-99 98q-5 6 -13 6t-13 -6l-50 -49q-5 -5 -13 -5t-14 5q-5 6 -5 14t5 13l49 50q6 5 6 13 t-6 13l-98 99q-5 5 -13.5 5t-13.5 -5l-49 -49q-6 -6 -14 -6t-13 6l-49 49q-6 5 -14 5t-13 -5l-49 -49q-6 -6 -14 -6t-14 6l-49 49q-5 5 -13 5t-14 -5l-98 -99q-6 -5 -6 -13t6 -13l49 -50q5 -5 5 -13t-5 -14q-5 -5 -13 -5t-14 5l-49 49q-5 6 -13.5 6t-13.5 -6l-99 -98 q-5 -5 -5 -13.5t5 -13.5l50 -49q5 -6 5 -14t-5 -13l-50 -49q-5 -6 -5 -14t5 -13l50 -49q12 -14 0 -28l-50 -49q-5 -5 -5 -13t5 -14zM293 179l49 49q12 14 0 28l-49 49q-6 5 -6 13t6 14l49 49q5 5 5 13t-5 14l-49 49q-6 5 -6 13.5t6 13.5q5 6 13.5 6t13.5 -6l49 -49 q6 -5 14 -5t13 5l99 98q5 6 5 14t-5 13l-50 50q-8 8 -4 18.5t13.5 13t17.5 -5.5l49 -49q14 -12 28 0l49 49q5 6 13 6t14 -6l49 -49q5 -5 13 -5t14 5l49 49q5 6 13.5 6t13.5 -6q6 -5 6 -13t-6 -13l-49 -50q-6 -5 -6 -13t6 -14l49 -49q9 -8 5.5 -18.5t-13.5 -13t-19 4.5 l-49 49q-6 6 -14 6t-13 -6l-49 -49q-6 -5 -14 -5t-13 5l-49 49q-6 6 -14 6t-14 -6l-98 -98q-6 -6 -6 -14t6 -13l49 -49q6 -6 6 -14t-6 -13l-49 -49q-6 -6 -6 -14t6 -14l98 -98q14 -12 28 0l49 49q5 6 13 6t14 -6l49 -49q5 -5 13 -5t14 5l202 202q8 8 18.5 4t13 -13.5 t-5.5 -17.5l-201 -202q-6 -5 -6 -13t6 -14l49 -49q6 -5 6 -13.5t-6 -13.5q-5 -6 -13.5 -6t-13.5 6l-49 49q-6 6 -14 6t-13 -6l-49 -49q-6 -6 -14 -6t-13 6l-49 49q-6 6 -14 6t-14 -6l-49 -49q-8 -9 -18 -5t-13 13.5t4 18.5l50 49q5 6 5 14t-5 13l-99 99q-5 5 -13 5t-14 -5 l-49 -50q-8 -8 -18.5 -4t-13.5 13t5 18zM347 305l22 -23q6 -5 14 -5t13 5l22 23q6 5 6 13t-6 14l-22 22q-5 6 -13 6t-14 -6l-22 -22q-6 -6 -6 -14t6 -13zM499 -126q-5 -5 -5 -13t5 -13l22 -23q14 -12 28 0l22 23q5 5 5 13t-5 13l-22 23q-14 12 -28 0zM499 762l22 -22 q6 -6 14 -6t14 6l22 22q5 5 5 13.5t-5 13.5l-22 22q-14 12 -28 0l-22 -22q-5 -5 -5 -13.5t5 -13.5zM575 76l23 -22q5 -6 13 -6t14 6l22 22q5 6 5 14t-5 13l-22 23q-6 5 -14 5t-13 -5l-23 -23q-5 -5 -5 -13t5 -14zM575 533l23 -22q5 -5 13 -5t14 5l22 22q5 6 5 14t-5 13 l-22 22q-6 6 -14 6t-13 -6l-23 -22q-5 -5 -5 -13t5 -14zM651 -126q-5 -5 -5 -13t5 -13l23 -23q5 -5 13 -5t14 5l22 23q6 5 6 13t-6 13l-22 23q-6 5 -14 5t-13 -5zM651 762l23 -22q5 -6 13 -6t14 6l22 22q6 5 6 13.5t-6 13.5l-22 22q-6 5 -14 5t-13 -5l-23 -22 q-5 -5 -5 -13.5t5 -13.5zM1033 228l22 -22q5 -5 13 -5t14 5l22 22q12 14 0 28l-22 22q-6 5 -14 5t-13 -5l-22 -22q-6 -6 -6 -14t6 -14zM1033 381l22 -22q5 -6 13 -6t14 6l22 22q5 5 5 13t-5 14l-22 22q-6 6 -14 6t-13 -6l-22 -22q-6 -6 -6 -14t6 -13z" />
<glyph unicode="&#xad;" horiz-adv-x="916" d="M64 152q-6 6 -6 14t6 13l201 202q6 5 6 13.5t-6 13.5l-49 49q-5 6 -5 14t5 13q6 5 14 5t13 -5l49 -49q6 -6 14 -6t14 6l48 49q14 12 28 0l49 -49q5 -6 13 -6t14 6l49 49q5 5 13 5t14 -5l49 -49q5 -6 13 -6t14 6l202 202q8 8 18.5 4t13 -13.5t-5.5 -17.5l-201 -202 q-5 -5 -5 -13.5t5 -13.5l49 -49q13 -13 0 -26t-27 -1l-49 49q-14 14 -27 0l-49 -49q-14 -13 -27 0l-49 49q-14 14 -27 0l-49 -49q-14 -12 -28 0l-48 49q-14 14 -28 0l-201 -202q-13 -13 -27 0zM346 381l22 -23q14 -12 28 0l22 23q5 5 5 13.5t-5 13.5l-22 22q-6 6 -14 6 t-14 -6l-22 -22q-5 -5 -5 -13.5t5 -13.5zM499 381l22 -23q5 -5 13 -5t14 5l22 23q6 5 6 13.5t-6 13.5l-22 22q-6 6 -14 6t-13 -6l-22 -22q-5 -5 -5 -13.5t5 -13.5z" />
<glyph unicode="&#xae;" horiz-adv-x="1222" d="M64 103l49 49q6 6 6 14t-6 13l-49 49q-6 6 -6 14t6 14l49 49q6 5 6 13t-6 14l-49 49q-6 5 -6 13t6 14l49 49q6 5 6 13.5t-6 13.5l-49 49q-6 6 -6 14t6 13q5 6 13.5 6t13.5 -6l49 -49q6 -5 14 -5t13 5l99 99q5 5 5 13t-5 13l-50 50q-5 5 -5 13t5 14q6 5 14 5t13 -5l49 -49 q6 -6 14 -6t14 6l98 98q6 5 6 13.5t-6 13.5l-49 49q-13 13 0 26t27 1l49 -49q13 -14 27 0l49 49q13 13 27 0l49 -49q14 -14 27 0l50 49q13 13 26 0l50 -49q13 -14 27 0l49 49q14 13 27 0t0 -27l-49 -49q-6 -5 -6 -13.5t6 -13.5l98 -98q14 -14 27 0l49 49q9 8 19.5 4t13 -13 t-5.5 -18l-49 -50q-6 -5 -6 -13t6 -13l98 -99q14 -12 28 0l49 49q8 9 18 5.5t13 -13t-4 -19.5l-50 -49q-5 -5 -5 -13.5t5 -13.5l50 -49q5 -6 5 -14t-5 -13l-50 -49q-5 -6 -5 -14t5 -13l50 -49q12 -14 0 -28l-50 -49q-5 -5 -5 -13t5 -14l50 -49q5 -5 5 -13t-5 -14 q-6 -5 -14 -5t-13 5l-49 50q-14 12 -28 0l-98 -99q-6 -5 -6 -13.5t6 -13.5l49 -49q6 -6 6 -14t-6 -13q-5 -6 -13 -6t-14 6l-49 49q-5 5 -13 5t-14 -5l-98 -99q-4 -3 -5.5 -8t0 -10t5.5 -8l49 -50q5 -5 5 -13t-5 -14q-5 -5 -13.5 -5t-13.5 5l-49 50q-6 5 -14 5t-13 -5 l-50 -50q-5 -5 -13 -5t-13 5l-50 50q-5 5 -13 5t-14 -5l-49 -50q-5 -5 -13.5 -5t-13.5 5l-49 50q-6 5 -14 5t-13 -5l-49 -50q-9 -8 -19.5 -4t-13 13t5.5 18l49 50q6 5 6 13t-6 13l-98 99q-14 12 -28 0l-49 -49q-8 -9 -18 -5.5t-13 13t4 19.5l50 49q5 5 5 13.5t-5 13.5 l-23 22l-13 14q-6 6 -14 13l-49 50q-13 13 -27 0l-49 -50q-8 -8 -18.5 -4t-13.5 13t5 18zM118 228l22 -22q6 -5 14 -5t13 5l23 22q12 14 0 28l-23 22q-5 5 -13 5t-14 -5l-22 -22q-6 -6 -6 -14t6 -14zM118 381l22 -22q6 -6 14 -6t13 6l23 22q5 5 5 13t-5 14l-23 22 q-5 6 -13 6t-14 -6l-22 -22q-6 -6 -6 -14t6 -13zM194 152l22 -22l14 -14l62 -62q6 -6 14 -6t14 6l22 22q5 6 5 14t-5 13l-50 49q-5 6 -5 14t5 13l50 49q12 14 0 28l-50 49q-5 5 -5 13t5 14l50 49q5 5 5 13t-5 14l-50 49q-5 5 -5 13.5t5 13.5l50 49q5 6 5 14t-5 13l-22 22 q-6 6 -14 6t-14 -6l-98 -98q-5 -5 -5 -13.5t5 -13.5l49 -49q6 -6 6 -14t-6 -13l-49 -49q-5 -6 -5 -14t5 -13l49 -49q6 -6 6 -14t-6 -14l-49 -49q-5 -5 -5 -13t5 -14zM346 0l99 -98q5 -6 13 -6t14 6l49 49q5 5 13.5 5t13.5 -5l49 -49q6 -6 14 -6t13 6l50 49q5 5 13 5t13 -5 l50 -49q5 -6 13 -6t14 6l98 98q5 5 5 13.5t-5 13.5l-22 22q-5 6 -13.5 6t-13.5 -6l-49 -49q-6 -6 -14 -6t-13 6q-6 5 -6 13.5t6 13.5l49 49q5 6 5 14t-5 13l-99 99q-5 5 -13 5t-13 -5l-50 -50q-5 -5 -13 -5t-14 5l-49 50q-5 5 -13.5 5t-13.5 -5l-98 -99q-6 -5 -6 -13t6 -14 l49 -49q8 -8 4 -18.5t-13 -13.5t-18 5l-49 49q-6 6 -14 6t-13 -6l-23 -22q-5 -5 -5 -13.5t5 -13.5zM346 152l23 -22l13 -14q6 7 14 14l22 22q6 6 6 14t-6 13l-22 23q-6 5 -14 5t-13 -5l-23 -23q-5 -5 -5 -13t5 -14zM346 305l23 -23q5 -5 13 -5t14 5l22 23q6 5 6 13t-6 14 l-22 22q-6 6 -14 6t-13 -6l-23 -22q-5 -6 -5 -14t5 -13zM346 457l23 -22q5 -5 13 -5t14 5l22 22q6 5 6 13.5t-6 13.5l-22 22q-6 6 -14 6t-13 -6l-23 -22q-5 -5 -5 -13.5t5 -13.5zM346 610l23 -23q5 -5 13 -5t14 5l49 49q5 6 13 6t14 -6l49 -49q5 -5 13.5 -5t13.5 5l49 49 q6 6 14 6t13 -6l50 -49q5 -5 13 -5t13 5l50 49q7 8 17.5 5t13.5 -12.5t-4 -18.5l-50 -50q-5 -5 -5 -13t5 -14l99 -98q5 -5 13.5 -5t13.5 5l49 49q9 9 19 5t12.5 -13.5t-4.5 -18.5l-49 -49q-6 -6 -6 -14t6 -13l49 -49q8 -9 4.5 -19.5t-12.5 -13t-19 5.5l-49 49q-5 6 -13.5 6 t-13.5 -6l-99 -98q-12 -14 0 -28l99 -98q5 -5 13.5 -5t13.5 5l49 49q13 13 26 0t1 -27l-49 -49q-6 -5 -6 -13t6 -14l22 -22q6 -6 14 -6t13 6l99 98q5 6 5 14t-5 13l-50 49q-12 14 0 28l50 49q5 5 5 13t-5 14l-50 49q-5 5 -5 13t5 14l50 49q5 5 5 13.5t-5 13.5l-99 98 q-5 6 -13 6t-14 -6l-49 -49q-8 -8 -18.5 -4t-13.5 13t5 18l49 50q5 5 5 13t-5 13l-98 99q-6 5 -14 5t-13 -5l-50 -49q-5 -6 -13 -6t-13 6l-50 49q-5 5 -13 5t-14 -5l-49 -49q-5 -6 -13.5 -6t-13.5 6l-49 49q-6 5 -14 5t-13 -5l-99 -99q-5 -5 -5 -13t5 -13zM423 228l22 -22 q5 -5 13 -5t14 5l22 22q6 6 6 14t-6 14l-22 22q-6 5 -14 5t-13 -5l-22 -22q-6 -6 -6 -14t6 -14zM423 381l98 -99q5 -5 13.5 -5t13.5 5l49 50q6 5 14 5t13 -5l50 -50q5 -5 13 -5t13 5l99 99q5 5 5 13t-5 14l-99 98q-5 6 -13 6t-13 -6l-50 -49q-5 -5 -13 -5t-14 5l-49 49 q-5 6 -13.5 6t-13.5 -6l-98 -98q-6 -6 -6 -14t6 -13zM423 533l22 -22q5 -5 13 -5t14 5l22 22q6 6 6 14t-6 13l-22 22q-6 6 -14 6t-13 -6l-22 -22q-6 -5 -6 -13t6 -14zM499 -126q-5 -5 -5 -13t5 -13l22 -23q5 -5 13.5 -5t13.5 5l22 23q6 5 6 13t-6 13l-22 23q-5 5 -13.5 5 t-13.5 -5zM499 762l22 -22q5 -6 13.5 -6t13.5 6l22 22q6 5 6 13.5t-6 13.5l-22 22q-5 5 -13.5 5t-13.5 -5l-22 -22q-5 -5 -5 -13.5t5 -13.5zM575 228l22 -22q6 -5 14 -5t13 5l22 22q6 6 6 14t-6 14l-22 22q-5 5 -13 5t-14 -5l-22 -22q-12 -14 0 -28zM575 533l22 -22 q6 -5 14 -5t13 5l22 22q6 6 6 14t-6 13l-22 22q-5 6 -13 6t-14 -6l-22 -22q-5 -5 -5 -13t5 -14zM651 -126q-5 -5 -5 -13t5 -13l23 -23q5 -5 13 -5t13 5l23 23q5 5 5 13t-5 13l-23 23q-5 5 -13 5t-13 -5zM651 762l23 -22q5 -6 13 -6t13 6l23 22q5 5 5 13.5t-5 13.5l-23 22 q-5 5 -13 5t-13 -5l-23 -22q-5 -5 -5 -13.5t5 -13.5zM1032 228l22 -22q14 -12 28 0l22 22q12 14 0 28l-22 22q-14 12 -28 0l-22 -22q-12 -14 0 -28zM1032 381l22 -22q6 -6 14 -6t14 6l22 22q5 5 5 13t-5 14l-22 22q-6 6 -14 6t-14 -6l-22 -22q-5 -6 -5 -14t5 -13z" />
<glyph unicode="&#xaf;" horiz-adv-x="580" />
<glyph unicode="&#xb0;" horiz-adv-x="612" d="M64 457q-5 5 -5 13t5 14l50 49q5 5 5 13.5t-5 13.5l-50 49q-5 6 -5 14t5 13q14 12 28 0l48 -50q14 -12 28 0l98 100q5 5 5 13t-5 13l-49 50q-9 8 -5.5 18t13 13t19.5 -4l49 -50q13 -13 27 0l49 50q8 8 18.5 4t13.5 -13t-5 -18l-49 -50q-13 -13 0 -26l98 -100q14 -13 27 0 l50 50q8 8 18 4.5t12.5 -13t-4.5 -18.5l-48 -49q-6 -5 -6 -13.5t6 -13.5l48 -49q8 -8 4.5 -18.5t-12.5 -13t-18 4.5l-50 49q-13 14 -27 0l-98 -99q-13 -13 0 -26l49 -50q14 -13 0 -27q-5 -5 -13.5 -5t-13.5 5l-49 50q-14 13 -27 0l-49 -50q-9 -8 -19.5 -4t-13 13t5.5 18 l49 50q13 13 0 26l-98 99q-14 14 -28 0l-48 -49q-14 -12 -28 0zM195 533l98 -99q5 -5 13 -5t14 5l99 99q5 5 5 13.5t-5 13.5l-99 98q-6 6 -14 6t-13 -6l-98 -98q-5 -5 -5 -13.5t5 -13.5z" />
<glyph unicode="&#xb6;" horiz-adv-x="840" d="M64 484l49 49q5 6 5 14t-5 13l-49 50q-6 5 -6 13t6 13q5 6 13 6t13 -6l50 -49q5 -5 13 -5t14 5l98 99q6 5 6 13t-6 13l-49 50q-5 5 -5 13t5 14q6 5 14 5t13 -5l49 -49q6 -6 14 -6t13 6l49 49q6 5 14 5t13 -5l50 -49q3 -4 8 -5.5t10 0t9 5.5l49 49q5 5 13 5t14 -5 q5 -6 5 -14t-5 -13l-50 -50q-5 -5 -5 -13t5 -13l50 -50q5 -5 5 -13t-5 -13l-50 -50q-5 -5 -5 -13t5 -14l50 -49q5 -6 5 -14t-5 -13l-50 -49q-5 -6 -5 -14t5 -13l50 -49q5 -6 5 -14t-5 -13l-50 -50q-5 -5 -5 -13t5 -14l50 -49q5 -5 5 -13t-5 -14l-50 -49q-5 -5 -5 -13t5 -14 l50 -49q8 -9 4 -19.5t-13 -13t-18 5.5l-49 49q-6 5 -14 5t-13 -5l-50 -49q-8 -9 -18 -5.5t-13 13t4 19.5l50 49q5 6 5 14t-5 13l-50 49q-5 6 -5 14t5 13l50 49q5 6 5 14t-5 13l-99 99q-5 5 -13 5t-14 -5l-49 -49q-8 -9 -18 -5.5t-13 13t4 19.5l49 49q14 13 0 27l-98 98 q-14 14 -27 0l-50 -49q-8 -8 -18 -4.5t-12.5 13t4.5 18.5zM194 533l98 -98q6 -6 14 -6t13 6l99 98q5 6 5 14t-5 13l-99 99q-5 5 -13 5t-14 -5l-98 -99q-6 -5 -6 -13t6 -14zM346 381l22 -23q6 -5 14 -5t13 5l23 23q5 5 5 13t-5 14l-23 22q-5 6 -13 6t-14 -6l-22 -22 q-5 -6 -5 -14t5 -13zM346 686l22 -23q6 -5 14 -5t13 5l23 23q5 5 5 13t-5 13l-23 23q-5 5 -13 5t-14 -5l-22 -23q-5 -5 -5 -13t5 -13zM422 152l23 -22q5 -6 13 -6t14 6l22 22q5 6 5 14t-5 13l-22 23q-6 5 -14 5t-13 -5l-23 -23q-5 -5 -5 -13t5 -14zM422 305l23 -23 q5 -5 13 -5t14 5l22 23q5 5 5 13t-5 14l-22 22q-6 5 -14 5t-13 -5l-23 -22q-5 -6 -5 -14t5 -13zM422 457l23 -22q5 -6 13 -6t14 6l22 22q5 5 5 13t-5 14l-22 22q-6 6 -14 6t-13 -6l-23 -22q-5 -6 -5 -14t5 -13zM422 610l23 -23q5 -5 13 -5t14 5l22 23q5 5 5 13t-5 13l-22 23 q-6 5 -14 5t-13 -5l-23 -23q-5 -5 -5 -13t5 -13zM597 27l49 49q6 6 6 14t-6 13l-49 49q-5 6 -5 14t5 13l49 49q6 6 6 14t-6 13l-49 50q-5 5 -5 13t5 14l49 49q6 5 6 13t-6 14l-49 49q-5 5 -5 13t5 14l49 49q6 6 6 14t-6 13l-49 50q-5 5 -5 13t5 13l49 50q6 5 6 13t-6 13 l-49 50q-5 5 -5 13t5 14q5 5 13 5t14 -5l49 -49q6 -6 14 -6t13 6l50 49q8 8 18.5 4t13 -13.5t-5.5 -17.5l-49 -50q-5 -5 -5 -13t5 -13l49 -50q6 -5 6 -13t-6 -13l-49 -50q-5 -5 -5 -13t5 -14l49 -49q6 -6 6 -14t-6 -13l-49 -49q-5 -6 -5 -14t5 -13l49 -49q6 -6 6 -14t-6 -13 l-49 -50q-5 -5 -5 -13t5 -14l49 -49q6 -5 6 -13t-6 -14l-49 -49q-5 -5 -5 -13t5 -14l49 -49q6 -6 6 -14t-6 -13q-5 -6 -13 -6t-13 6l-50 49q-5 5 -13 5t-14 -5l-49 -49q-13 -13 -26 0t-1 27zM651 152l22 -22q6 -6 14 -6t13 6l22 22q6 6 6 14t-6 13l-22 23q-5 5 -13 5t-14 -5 l-22 -23q-5 -5 -5 -13t5 -14zM651 305l22 -23q6 -5 14 -5t13 5l22 23q6 5 6 13t-6 14l-22 22q-5 5 -13 5t-14 -5l-22 -22q-5 -6 -5 -14t5 -13zM651 457l22 -22q6 -6 14 -6t13 6l22 22q6 5 6 13t-6 14l-22 22q-5 6 -13 6t-14 -6l-22 -22q-5 -6 -5 -14t5 -13zM651 610l22 -23 q6 -5 14 -5t13 5l22 23q6 5 6 13t-6 13l-22 23q-5 5 -13 5t-14 -5l-22 -23q-5 -5 -5 -13t5 -13z" />
<glyph unicode="&#xba;" horiz-adv-x="612" d="M64 457q-5 5 -5 13t5 14l50 49q5 5 5 13.5t-5 13.5l-50 49q-5 6 -5 14t5 13q14 12 28 0l48 -50q14 -12 28 0l98 100q5 5 5 13t-5 13l-49 50q-9 8 -5.5 18t13 13t19.5 -4l49 -50q13 -13 27 0l49 50q8 8 18.5 4t13.5 -13t-5 -18l-49 -50q-13 -13 0 -26l98 -100q14 -13 27 0 l50 50q8 8 18 4.5t12.5 -13t-4.5 -18.5l-48 -49q-6 -5 -6 -13.5t6 -13.5l48 -49q8 -8 4.5 -18.5t-12.5 -13t-18 4.5l-50 49q-13 14 -27 0l-98 -99q-13 -13 0 -26l49 -50q14 -13 0 -27q-5 -5 -13.5 -5t-13.5 5l-49 50q-14 13 -27 0l-49 -50q-9 -8 -19.5 -4t-13 13t5.5 18 l49 50q13 13 0 26l-98 99q-14 14 -28 0l-48 -49q-14 -12 -28 0zM195 533l98 -99q5 -5 13 -5t14 5l99 99q5 5 5 13.5t-5 13.5l-99 98q-6 6 -14 6t-13 -6l-98 -98q-5 -5 -5 -13.5t5 -13.5z" />
<glyph unicode="&#xbf;" d="M64 153q-6 5 -6 13t6 13l49 50q13 13 0 26l-49 50q-8 7 -5 17.5t12.5 13.5t18.5 -4l50 -49q13 -14 27 0l98 98q13 13 0 27l-49 49q-13 13 0.5 26.5t26.5 0.5l49 -49q14 -14 27 0l49 49q14 13 27 0l49 -49q14 -14 28 0l49 49q13 13 27 0q13 -13 0 -27l-50 -49 q-5 -5 -5 -13.5t5 -13.5l50 -49q8 -9 4 -19.5t-13 -13t-18 5.5l-49 49q-14 12 -28 0l-49 -49q-13 -14 -27 0l-49 49q-13 13 -27 0l-98 -99q-6 -5 -6 -13t6 -13l98 -99q14 -13 27 0l49 49q14 14 27 0l49 -49q14 -12 28 0l49 49q13 14 27 0l49 -49q13 -13 27 0l49 49 q7 8 17.5 5t13.5 -12.5t-4 -18.5l-49 -50q-14 -13 0 -27l49 -49q13 -14 0 -27q-14 -13 -27 0l-49 49q-14 14 -27 0l-49 -49q-14 -13 -27 0l-49 49q-14 14 -28 0l-49 -49q-13 -13 -27 0l-49 49q-13 14 -27 0l-49 -49q-13 -13 -27 0t0 27l49 49q13 14 0 27l-98 99 q-14 13 -27 0l-50 -49q-5 -6 -13 -6t-13 6zM346 76l22 -22q14 -13 27 0l23 22q13 14 0 27l-23 22q-13 14 -27 0l-22 -22q-14 -13 0 -27zM346 381l22 -22q14 -14 27 0l23 22q5 5 5 13.5t-5 13.5l-23 22q-13 14 -27 0l-22 -22q-6 -5 -6 -13.5t6 -13.5zM368 609q-12 14 0 28 l50 49q13 13 0 27l-50 49q-13 13 0 27q14 13 27 0l49 -49q14 -14 28 0l49 49q13 13 27 0q13 -14 0 -27l-50 -49q-13 -14 0 -27l50 -49q12 -14 0 -28q-14 -13 -27 0l-49 50q-14 12 -28 0l-49 -50q-13 -13 -27 0zM498 76l23 -22q13 -13 27 0l22 22q13 14 0 27l-22 22 q-14 14 -27 0l-23 -22q-13 -13 0 -27z" />
<glyph unicode="&#xc0;" horiz-adv-x="765" d="M64 0q-5 6 -5 14t5 13l49 49q6 6 6 14t-6 13l-49 49q-12 14 0 28l49 49q6 5 6 13t-6 14l-49 49q-5 5 -5 13t5 14l49 49q6 5 6 13.5t-6 13.5l-49 49q-5 6 -5 14t5 13l49 50q6 5 6 13t-6 13l-49 50q-5 5 -5 13t5 14q5 5 13.5 5t13.5 -5l49 -50q6 -5 14 -5t13 5l99 99 q5 5 5 13.5t-5 13.5l-49 49q-8 8 -4.5 18.5t12.5 13t18 -4.5l50 -49q5 -6 13 -6t14 6l22 22q5 6 5 14t-5 13l-125 125q-8 8 -5 19t12.5 13.5t18.5 -4.5l202 -202q6 -6 14 -6t13 6l49 49q14 12 27 -1t0 -26l-49 -49q-6 -5 -6 -13.5t6 -13.5l98 -99q6 -5 14 -5t13 5l50 50 q5 5 13 5t14 -5q5 -6 5 -14t-5 -13l-50 -50q-5 -5 -5 -13t5 -13l50 -50q5 -5 5 -13t-5 -14l-50 -49q-5 -5 -5 -13.5t5 -13.5l50 -49q5 -6 5 -14t-5 -13l-50 -49q-5 -6 -5 -14t5 -13l50 -49q12 -14 0 -28l-50 -49q-5 -5 -5 -13t5 -14l50 -49q5 -5 5 -13t-5 -14q-6 -5 -14 -5 t-13 5l-50 50q-5 5 -13 5t-14 -5l-49 -50q-5 -5 -13 -5t-14 5q-5 6 -5 14t5 13l50 49q5 6 5 14t-5 13l-50 49q-12 14 0 28l50 49q5 5 5 13t-5 14l-99 98q-5 6 -13 6t-14 -6l-49 -49q-5 -5 -13.5 -5t-13.5 5l-49 49q-6 6 -14 6t-13 -6l-99 -98q-5 -6 -5 -14t5 -13l49 -49 q6 -6 6 -14t-6 -14l-49 -49q-5 -5 -5 -13t5 -14l49 -49q9 -7 5.5 -17.5t-13 -13.5t-18.5 4l-50 50q-13 13 -27 0l-49 -50q-5 -5 -13.5 -5t-13.5 5zM118 152l22 -22q6 -5 14 -5t13 5l22 22q6 6 6 14t-6 14l-22 22q-5 5 -13 5t-14 -5l-22 -22q-12 -14 0 -28zM118 305l22 -23 q6 -5 14 -5t13 5l22 23q6 5 6 13t-6 14l-22 22q-5 6 -13 6t-14 -6l-22 -22q-5 -6 -5 -14t5 -13zM118 457l22 -22q6 -5 14 -5t13 5l22 22q6 6 6 14t-6 13l-22 22q-5 6 -13 6t-14 -6l-22 -22q-5 -5 -5 -13t5 -14zM194 381l23 -22q5 -6 13 -6t13 6l23 22q5 5 5 13.5t-5 13.5 l-23 22q-5 6 -13 6t-13 -6l-23 -22q-5 -5 -5 -13.5t5 -13.5zM194 534l99 -99q5 -5 13 -5t14 5l49 49q5 6 13.5 6t13.5 -6l49 -49q6 -5 14 -5t13 5l99 99q5 5 5 13t-5 13l-99 99q-5 5 -13 5t-14 -5l-49 -49q-5 -6 -13.5 -6t-13.5 6l-49 49q-6 5 -14 5t-13 -5l-99 -99 q-5 -5 -5 -13t5 -13zM347 381l22 -22q5 -6 13.5 -6t13.5 6l22 22q5 5 5 13.5t-5 13.5l-22 22q-5 6 -13.5 6t-13.5 -6l-22 -22q-6 -5 -6 -13.5t6 -13.5zM347 686l22 -22q3 -4 8 -5.5t10.5 0t8.5 5.5l22 22q5 5 5 13.5t-5 13.5l-22 22q-5 5 -13.5 5t-13.5 -5l-22 -22 q-6 -5 -6 -13.5t6 -13.5zM499 381l22 -22q6 -6 14 -6t13 6l23 22q5 5 5 13.5t-5 13.5l-23 22q-5 6 -13 6t-14 -6l-22 -22q-6 -5 -6 -13.5t6 -13.5zM575 152l22 -22q6 -5 14 -5t13 5l23 22q12 14 0 28l-23 22q-5 5 -13 5t-14 -5l-22 -22q-12 -14 0 -28zM575 305l22 -23 q6 -5 14 -5t13 5l23 23q5 5 5 13t-5 14l-23 22q-5 6 -13 6t-14 -6l-22 -22q-5 -6 -5 -14t5 -13zM575 457l22 -22q6 -5 14 -5t13 5l23 22q5 6 5 14t-5 13l-23 22q-5 6 -13 6t-14 -6l-22 -22q-5 -5 -5 -13t5 -14z" />
<glyph unicode="&#xc1;" horiz-adv-x="765" d="M64 0q-5 6 -5 14t5 13l50 49q5 6 5 14t-5 13l-50 49q-12 14 0 28l50 49q5 5 5 13t-5 14l-50 49q-5 5 -5 13t5 14l50 49q5 5 5 13.5t-5 13.5l-50 49q-5 6 -5 14t5 13l50 50q5 5 5 13t-5 13l-50 50q-5 5 -5 13t5 14q6 5 14 5t13 -5l50 -50q5 -5 13 -5t14 5l98 99 q6 5 6 13.5t-6 13.5l-49 49q-13 13 0 26t27 1l49 -49q5 -6 13 -6t14 6l202 202q8 8 18 4t12.5 -13.5t-4.5 -18.5l-125 -125q-5 -5 -5 -13t5 -14l22 -22q6 -6 14 -6t13 6l50 49q5 5 11 5.5t10.5 -2.5t7.5 -8t2.5 -11t-5.5 -11l-49 -49q-5 -5 -5 -13.5t5 -13.5l99 -99 q5 -5 13 -5t14 5l49 50q5 5 13.5 5t13.5 -5q5 -6 5 -14t-5 -13l-49 -50q-6 -5 -6 -13t6 -13l49 -50q5 -5 5 -13t-5 -14l-49 -49q-6 -5 -6 -13.5t6 -13.5l49 -49q5 -6 5 -14t-5 -13l-49 -49q-4 -4 -5.5 -9t0 -10t5.5 -8l49 -49q12 -14 0 -28l-49 -49q-6 -5 -6 -13t6 -14 l49 -49q5 -5 5 -13t-5 -14q-5 -5 -13.5 -5t-13.5 5l-49 50q-6 5 -14 5t-13 -5l-50 -50q-8 -8 -18.5 -4t-13 13.5t5.5 17.5l49 49q13 14 0 27l-49 49q-14 14 0 28l49 49q13 13 0 27l-99 98q-13 14 -27 0l-49 -49q-14 -13 -27 0l-49 49q-14 14 -27 0l-99 -98q-13 -14 0 -27 l50 -49q12 -14 0 -28l-50 -49q-13 -13 0 -27l50 -49q13 -13 0 -27q-14 -13 -27 0l-49 50q-14 13 -27 0l-50 -50q-13 -13 -27 0zM118 152l23 -22q5 -5 13 -5t14 5l22 22q12 14 0 28l-22 22q-6 5 -14 5t-13 -5l-23 -22q-12 -14 0 -28zM118 305l23 -23q5 -5 13 -5t14 5l22 23 q5 5 5 13t-5 14l-22 22q-6 6 -14 6t-13 -6l-23 -22q-5 -6 -5 -14t5 -13zM118 457l23 -22q5 -5 13 -5t14 5l22 22q5 6 5 14t-5 13l-22 22q-6 6 -14 6t-13 -6l-23 -22q-5 -5 -5 -13t5 -14zM194 381l23 -22q5 -6 13 -6t14 6l22 22q6 5 6 13.5t-6 13.5l-22 22q-6 6 -14 6t-13 -6 l-23 -22q-5 -5 -5 -13.5t5 -13.5zM194 534l99 -99q5 -5 13 -5t14 5l49 49q5 6 13.5 6t13.5 -6l49 -49q6 -5 14 -5t13 5l99 99q5 5 5 13t-5 13l-99 99q-5 5 -13 5t-14 -5l-49 -49q-5 -6 -13.5 -6t-13.5 6l-49 49q-6 5 -14 5t-13 -5l-99 -99q-5 -5 -5 -13t5 -13zM347 381 l22 -22q5 -6 13.5 -6t13.5 6l22 22q6 5 6 13.5t-6 13.5l-22 22q-5 6 -13.5 6t-13.5 -6l-22 -22q-5 -5 -5 -13.5t5 -13.5zM347 686l22 -22q3 -4 8 -5.5t10.5 0t8.5 5.5l22 22q6 5 6 13.5t-6 13.5l-22 22q-5 5 -13.5 5t-13.5 -5l-22 -22q-5 -5 -5 -13.5t5 -13.5zM499 381 l23 -22q5 -6 13 -6t13 6l23 22q5 5 5 13.5t-5 13.5l-23 22q-5 6 -13 6t-13 -6l-23 -22q-5 -5 -5 -13.5t5 -13.5zM576 152l22 -22q5 -5 13 -5t14 5l22 22q12 14 0 28l-22 22q-6 5 -14 5t-13 -5l-22 -22q-6 -6 -6 -14t6 -14zM576 305l22 -23q5 -5 13 -5t14 5l22 23q5 5 5 13 t-5 14l-22 22q-6 6 -14 6t-13 -6l-22 -22q-6 -6 -6 -14t6 -13zM576 457l22 -22q5 -5 13 -5t14 5l22 22q5 6 5 14t-5 13l-22 22q-6 6 -14 6t-13 -6l-22 -22q-6 -5 -6 -13t6 -14z" />
<glyph unicode="&#xc2;" d="M64 0q-6 5 -6 13.5t6 13.5l49 49q13 14 0 27l-49 49q-14 14 0 27l49 49q12 14 0 28l-49 49q-14 13 0 27l49 49q13 13 0 27l-49 49q-6 5 -6 13.5t6 13.5l49 49q13 14 0 27l-49 50q-6 5 -6 13t6 13q13 14 27 0l49 -49q13 -13 27 0l98 99q14 13 0 27l-49 49q-5 5 -5 13.5 t5 13.5l153 152q5 6 13 6t13 -6l153 -152q5 -5 5 -13.5t-5 -13.5l-49 -49q-14 -14 0 -27l98 -99q14 -13 27 0l49 49q8 8 18.5 4.5t13 -12.5t-4.5 -18l-49 -50q-14 -13 0 -27l49 -49q5 -5 5 -13.5t-5 -13.5l-49 -49q-14 -14 0 -27l49 -49q13 -14 0 -27l-49 -49q-14 -14 0 -28 l49 -49q13 -13 0 -27l-49 -49q-14 -13 0 -27l49 -49q13 -13 0 -27t-27 0l-49 49q-13 14 -27 0l-49 -49q-14 -14 -27 0q-6 5 -6 13.5t6 13.5l49 49q13 14 0 27l-49 49q-14 14 0 27l49 49q12 14 0 28l-99 98q-5 6 -13 6t-13 -6l-50 -49q-5 -6 -13 -6t-13 6l-50 49 q-13 14 -27 0l-98 -98q-14 -14 0 -28l49 -49q13 -13 0 -27l-49 -49q-14 -13 0 -27l49 -49q8 -8 4 -18.5t-13 -13.5t-18 5l-49 49q-14 14 -27 0l-49 -49q-14 -14 -27 0zM117 152l23 -22q13 -13 27 0l22 22q14 14 0 27l-22 23q-14 13 -27 0l-23 -23q-13 -13 0 -27zM117 305 l23 -23q13 -13 27 0l22 23q14 13 0 27l-22 22q-14 14 -27 0l-23 -22q-13 -14 0 -27zM117 457l23 -22q13 -13 27 0l22 22q6 5 6 13.5t-6 13.5l-22 22q-14 14 -27 0l-23 -22q-13 -14 0 -27zM194 381l22 -22q13 -14 27 0l22 22q14 13 0 27l-22 22q-14 14 -27 0l-22 -22 q-14 -14 0 -27zM194 533l98 -98q14 -13 27 0l50 49q5 6 13 6t13 -6l50 -49q13 -13 26 0l99 98q13 14 0 27l-99 99q-13 13 -26 0l-50 -49q-5 -6 -13 -6t-13 6l-50 49q-13 13 -27 0l-98 -99q-14 -13 0 -27zM270 762l22 -22q14 -14 27 0l50 49q13 13 26 0l50 -49q5 -6 13 -6 t13 6l23 22q5 5 5 13.5t-5 13.5l-99 98q-5 6 -13 6t-13 -6l-99 -98q-5 -5 -5 -13.5t5 -13.5zM346 381l23 -22q5 -6 13 -6t13 6l23 22q13 13 0 27l-23 22q-5 6 -13 6t-13 -6l-23 -22q-13 -14 0 -27zM346 686l23 -22q5 -6 13 -6t13 6l23 22q13 13 0 27l-23 22q-13 13 -26 0 l-23 -22q-13 -14 0 -27zM499 381l22 -22q13 -14 27 0l22 22q13 13 0 27l-22 22q-14 14 -27 0l-22 -22q-14 -14 0 -27zM575 152l22 -22q14 -13 27 0l22 22q14 14 0 27l-22 23q-13 13 -27 0l-22 -23q-14 -13 0 -27zM575 305l22 -23q14 -13 27 0l22 23q14 13 0 27l-22 22 q-13 14 -27 0l-22 -22q-14 -14 0 -27zM575 457l22 -22q14 -13 27 0l22 22q6 5 6 13.5t-6 13.5l-22 22q-13 14 -27 0l-22 -22q-6 -5 -6 -13.5t6 -13.5z" />
<glyph unicode="&#xc4;" d="M64 27l49 49q6 6 6 14t-6 13l-49 49q-5 6 -5 14t5 13l49 49q6 6 6 14t-6 14l-49 49q-5 5 -5 13t5 14l49 49q6 5 6 13t-6 14l-49 49q-5 5 -5 13.5t5 13.5l49 49q6 6 6 14t-6 13l-49 49q-13 15 2 28q14 10 25 -1l50 -49q5 -6 13 -6t13 6l99 98q5 6 5 14t-5 13l-99 99 q-5 5 -13 5t-13 -5l-50 -49q-8 -9 -18 -5.5t-13 13t4 19.5l49 49q6 5 6 13t-6 14l-49 49q-5 5 -5 13t5 14q6 5 14 5t13 -5l50 -49q5 -6 13 -6t13 6l49 49q14 12 28 0q5 -6 5 -14t-5 -13l-50 -49q-5 -6 -5 -14t5 -13l99 -99q5 -5 13 -5t14 5l49 50q5 5 13 5t14 -5l49 -50 q5 -5 13 -5t14 5l98 99q6 5 6 13t-6 14l-49 49q-5 5 -5 13t5 14q6 5 14 5t13 -5l50 -49q5 -6 13 -6t13 6l50 49q8 8 18.5 4t13 -13.5t-5.5 -17.5l-49 -49q-5 -6 -5 -14t5 -13l49 -49q6 -6 6 -14t-6 -13q-5 -6 -13 -6t-13 6l-50 49q-5 5 -13 5t-13 -5l-99 -99q-5 -5 -5 -13 t5 -14l99 -98q5 -6 13 -6t13 6l50 49q5 6 13 6t13 -6q6 -5 6 -13t-6 -14l-49 -49q-5 -5 -5 -13t5 -14l49 -49q6 -5 6 -13.5t-6 -13.5l-49 -49q-5 -6 -5 -14t5 -13l49 -49q6 -6 6 -14t-6 -13l-49 -49q-12 -14 0 -28l49 -49q6 -5 6 -13t-6 -14l-49 -49q-5 -5 -5 -13t5 -14 l49 -49q6 -5 6 -13.5t-6 -13.5q-5 -6 -13 -6t-13 6l-50 49q-5 5 -13 5t-13 -5l-50 -49q-8 -9 -18 -5t-13 13.5t4 18.5l49 49q4 4 5.5 9t0 10t-5.5 8l-49 49q-5 6 -5 14t5 13l49 49q6 6 6 14t-6 14l-98 98q-6 5 -14 5t-13 -5l-49 -49q-6 -6 -14 -6t-13 6l-49 49q-6 5 -14 5 t-13 -5l-99 -98q-12 -14 0 -28l50 -49q5 -5 5 -13t-5 -14l-50 -49q-5 -5 -5 -13t5 -14l50 -49q5 -5 5.5 -11t-2.5 -11t-8 -8t-11.5 -2.5t-11.5 5.5l-49 49q-5 5 -13 5t-13 -5l-50 -49q-8 -9 -18 -5t-13 13.5t4 18.5zM118 152l23 -22q5 -6 13 -6t13 6l23 22q5 6 5 14t-5 13 l-23 23q-5 5 -13 5t-13 -5l-23 -23q-5 -5 -5 -13t5 -14zM118 305l23 -23q5 -5 13 -5t13 5l23 23q5 5 5 13t-5 14l-23 22q-5 5 -13 5t-13 -5l-23 -22q-5 -6 -5 -14t5 -13zM118 457l23 -22q5 -6 13 -6t13 6l23 22q5 5 5 13.5t-5 13.5l-23 22q-5 5 -13 5t-13 -5l-23 -22 q-5 -5 -5 -13.5t5 -13.5zM194 381l22 -23q14 -12 28 0l22 23q5 5 5 13t-5 14l-22 22q-14 12 -28 0l-22 -22q-5 -6 -5 -14t5 -13zM194 533l99 -98q5 -6 13 -6t14 6l49 49q5 5 13 5t14 -5l49 -49q5 -6 13 -6t14 6l98 98q6 6 6 14t-6 13l-98 99q-6 5 -14 5t-13 -5l-49 -50 q-6 -5 -14 -5t-13 5l-49 50q-6 5 -14 5t-13 -5l-99 -99q-5 -5 -5 -13t5 -14zM346 381l23 -23q5 -5 13 -5t14 5l22 23q6 5 6 13t-6 14l-22 22q-6 5 -14 5t-13 -5l-23 -22q-5 -6 -5 -14t5 -13zM346 685l23 -22q5 -5 13 -5t14 5l22 22q6 6 6 14t-6 13l-22 23q-6 5 -14 5t-13 -5 l-23 -23q-5 -5 -5 -13t5 -14zM499 381l22 -23q6 -5 14 -5t13 5l22 23q6 5 6 13t-6 14l-22 22q-5 5 -13 5t-14 -5l-22 -22q-5 -6 -5 -14t5 -13zM575 152l23 -22q5 -6 13 -6t13 6l23 22q5 6 5 14t-5 13l-23 23q-5 5 -13 5t-13 -5l-23 -23q-5 -5 -5 -13t5 -14zM575 305l23 -23 q5 -5 13 -5t13 5l23 23q5 5 5 13t-5 14l-23 22q-5 5 -13 5t-13 -5l-23 -22q-5 -6 -5 -14t5 -13zM575 457l23 -22q5 -6 13 -6t13 6l23 22q5 5 5 13.5t-5 13.5l-23 22q-5 5 -13 5t-13 -5l-23 -22q-5 -5 -5 -13.5t5 -13.5z" />
<glyph unicode="&#xc7;" d="M64 179l49 49q12 14 0 28l-49 49q-6 5 -6 13t6 14l49 49q5 5 5 13t-5 14l-49 49q-6 5 -6 13.5t6 13.5l49 49q5 6 5 14t-5 13l-49 50q-6 5 -6 13t6 13q5 6 13 6t13 -6l50 -49q5 -5 13 -5t14 5l98 99q5 5 5 13t-5 14l-49 49q-13 12 -1 25q15 14 28 2l49 -49q6 -6 14 -6 t13 6l49 49q6 5 14 5t13 -5l49 -49q6 -6 14 -6t14 6l49 49q5 5 13 5t14 -5q5 -5 5 -13.5t-5 -13.5l-50 -49q-5 -6 -5 -14t5 -13l99 -99q5 -5 13 -5t14 5l49 49q5 6 13.5 6t13.5 -6q6 -5 6 -13t-6 -13l-49 -50q-6 -5 -6 -13t6 -14l49 -49q9 -8 5.5 -18.5t-13.5 -13t-19 4.5 l-49 49q-6 6 -14 6t-13 -6l-49 -49q-9 -8 -19.5 -4t-13 13t5.5 18l49 49q5 6 5 14t-5 13l-98 99q-14 12 -28 0l-49 -49q-5 -6 -13 -6t-14 6l-49 49q-5 5 -13 5t-14 -5l-98 -99q-6 -5 -6 -13t6 -14l49 -49q5 -5 5 -13.5t-5 -13.5l-49 -49q-6 -6 -6 -14t6 -13l49 -49 q5 -6 5 -14t-5 -13l-49 -49q-6 -6 -6 -14t6 -14l98 -98q6 -5 14 -5t13 5l49 49q6 6 14 6t13 -6l49 -49q14 -12 28 0l98 98q12 14 0 28l-49 49q-9 8 -5.5 18t13 13t19.5 -4l49 -50q5 -5 13 -5t14 5l49 50q8 8 18.5 4t13.5 -13t-5 -18l-49 -49q-6 -6 -6 -14t6 -14l49 -49 q6 -5 6 -13t-6 -14q-5 -5 -13.5 -5t-13.5 5l-49 50q-6 5 -14 5t-13 -5l-99 -99q-5 -5 -5 -13t5 -14l50 -49q8 -8 4 -18.5t-13 -13.5t-18 5l-49 49q-6 6 -14 6t-14 -6l-201 -201q-5 -6 -13.5 -6t-13.5 6q-6 5 -6 13t6 13l125 126q6 5 6 13.5t-6 13.5l-22 22q-5 6 -13 6 t-14 -6l-49 -49q-5 -6 -13.5 -6t-13.5 6q-6 5 -6 13.5t6 13.5l49 49q5 6 5 14t-5 13l-98 99q-6 5 -14 5t-13 -5l-50 -50q-14 -14 -27 2q-12 14 1 25zM118 305l22 -23q5 -5 13 -5t14 5l22 23q5 5 5 13t-5 14l-22 22q-6 6 -14 6t-13 -6l-22 -22q-6 -6 -6 -14t6 -13zM118 457 l22 -22q5 -5 13 -5t14 5l22 22q5 5 5 13.5t-5 13.5l-22 22q-6 6 -14 6t-13 -6l-22 -22q-6 -5 -6 -13.5t6 -13.5zM346 76l22 -22q6 -6 14 -6t13 6l23 22q5 6 5 14t-5 13l-23 23q-5 5 -13 5t-14 -5l-22 -23q-6 -5 -6 -13t6 -14zM346 686l22 -22q6 -6 14 -6t13 6l23 22 q5 5 5 13t-5 14l-23 22q-5 5 -13 5t-14 -5l-22 -22q-6 -6 -6 -14t6 -13z" />
<glyph unicode="&#xc8;" horiz-adv-x="765" d="M64 152q-12 14 0 28l50 49q5 5 5 13t-5 14l-50 49q-5 5 -5 13t5 14l50 49q5 5 5 13.5t-5 13.5l-50 49q-5 6 -5 14t5 13l50 50q5 5 5 13t-5 13l-50 50q-5 5 -5 13t5 14q14 12 28 0l49 -50q5 -5 13 -5t14 5l98 99q6 5 6 13.5t-6 13.5l-49 49q-12 14 0.5 26.5t26.5 0.5 l49 -49q5 -6 13.5 -6t13.5 6l22 22q6 6 6 14t-6 13l-125 125q-12 14 0 28q5 5 13 5t14 -5l202 -202q5 -6 13 -6t13 6l50 49q5 5 13 5t13 -5l50 -49q5 -6 13 -6t14 6l49 49q14 12 26.5 -0.5t0.5 -26.5l-49 -49q-6 -5 -6 -13.5t6 -13.5l49 -49q5 -5 5.5 -11.5t-2.5 -11t-8 -8 t-11 -2.5t-11 6l-49 49q-14 13 -27 0l-50 -49q-5 -6 -13 -6t-13 6l-50 49q-13 13 -26 0l-50 -49q-13 -14 -27 0l-49 49q-14 13 -27 0l-99 -99q-13 -13 0 -26l99 -99q13 -13 27 0l49 49q14 14 27 0l50 -49q13 -13 26 0l50 49q5 6 13 6t13 -6q14 -13 0 -27l-49 -49 q-13 -14 0 -27l49 -49q8 -8 4.5 -18.5t-12.5 -13t-18 4.5l-50 49q-5 6 -13 6t-13 -6l-50 -49q-13 -13 -27 0l-49 49q-5 6 -13.5 6t-13.5 -6l-99 -98q-13 -14 0 -27l99 -99q5 -5 13.5 -5t13.5 5l49 50q14 13 27 0l50 -50q13 -13 26 0l50 50q13 13 26 0l50 -50q13 -13 27 0 l49 50q14 13 27 0q12 -14 0 -28l-49 -49q-14 -13 0 -27l49 -49q13 -13 0 -27q-13 -13 -27 0l-49 50q-14 13 -27 0l-50 -50q-13 -13 -26 0l-50 50q-13 13 -26 0l-50 -50q-13 -13 -27 0l-49 50q-5 5 -13.5 5t-13.5 -5l-49 -50q-14 -13 -27 0q-13 14 0 27l49 49q14 14 0 27 l-98 99q-14 13 -27 0l-49 -50q-14 -12 -28 0zM118 305l23 -23q5 -5 13 -5t14 5l22 23q5 5 5 13t-5 14l-22 22q-6 6 -14 6t-13 -6l-23 -22q-5 -6 -5 -14t5 -13zM118 457l23 -22q5 -5 13 -5t14 5l22 22q5 6 5 14t-5 13l-22 22q-6 6 -14 6t-13 -6l-23 -22q-5 -5 -5 -13t5 -14z M194 381l23 -22q5 -6 13 -6t14 6l22 22q6 5 6 13.5t-6 13.5l-22 22q-6 6 -14 6t-13 -6l-23 -22q-5 -5 -5 -13.5t5 -13.5zM347 76l22 -22q6 -5 14 -5t13 5l22 22q6 6 6 14t-6 13l-22 23q-5 5 -13 5t-14 -5l-22 -23q-5 -5 -5 -13t5 -14zM347 381l22 -22q6 -6 14 -6t13 6l22 22 q6 5 6 13.5t-6 13.5l-22 22q-5 6 -13 6t-14 -6l-22 -22q-5 -5 -5 -13.5t5 -13.5zM347 686l22 -22q6 -6 14 -6t13 6l22 22q6 5 6 13.5t-6 13.5l-22 22q-5 5 -13 5t-14 -5l-22 -22q-5 -5 -5 -13.5t5 -13.5zM499 76l23 -22q5 -5 13 -5t13 5l23 22q5 6 5 14t-5 13l-23 23 q-5 5 -13 5t-13 -5l-23 -23q-5 -5 -5 -13t5 -14zM499 686l23 -22q5 -6 13 -6t13 6l23 22q5 5 5 13.5t-5 13.5l-23 22q-5 5 -13 5t-13 -5l-23 -22q-5 -5 -5 -13.5t5 -13.5z" />
<glyph unicode="&#xc9;" d="M64 179l49 50q5 5 5 13t-5 14l-49 49q-6 5 -6 13t6 14l49 49q5 5 5 13t-5 14l-49 49q-6 6 -6 14t6 13l49 50q5 5 5 13t-5 13l-49 50q-6 5 -6 13t6 13q5 6 13 6t13 -6l50 -49q5 -5 13 -5t13 5l99 99q5 5 5 13t-5 14l-49 49q-13 13 0 26t27 1l49 -49q6 -6 14 -6t13 6 l202 201q8 9 18 5.5t13 -13t-4 -19.5l-126 -125q-5 -5 -5 -13t5 -14l22 -22q6 -6 14 -6t13 6l50 49q5 5 13 5t14 -5l49 -49q5 -6 13 -6t14 6l49 49q5 5 13 5t14 -5q5 -5 5 -13t-5 -14l-49 -49q-6 -6 -6 -14t6 -13l49 -50q8 -8 4 -18.5t-13.5 -13t-17.5 5.5l-49 49 q-6 5 -14 5t-13 -5l-49 -49q-6 -6 -14 -6t-13 6l-50 49q-5 5 -13 5t-14 -5l-49 -49q-5 -6 -13 -6t-14 6l-49 49q-5 5 -13 5t-14 -5l-98 -99q-6 -5 -6 -13t6 -13l98 -99q6 -5 14 -5t13 5l49 49q6 6 14 6t13 -6l49 -49q6 -5 14 -5t13 5l50 49q8 9 18 5.5t13 -13t-4 -19.5 l-50 -49q-5 -6 -5 -14t5 -13l50 -49q5 -6 5 -14t-5 -13q-6 -5 -14 -5t-13 5l-50 49q-5 6 -13 6t-14 -6l-49 -49q-5 -5 -13 -5t-14 5l-49 49q-5 6 -13 6t-14 -6l-98 -98q-6 -6 -6 -14t6 -13l98 -99q6 -5 14 -5t13 5l49 49q6 6 14 6t13 -6l49 -49q6 -5 14 -5t13 5l50 49 q5 6 13 6t14 -6l49 -49q5 -5 13 -5t14 5l49 49q8 9 18 5.5t13 -13t-4 -19.5l-49 -49q-6 -5 -6 -13t6 -14l49 -49q5 -5 5 -13t-5 -14q-6 -5 -14 -5t-13 5l-49 49q-6 6 -14 6t-13 -6l-49 -49q-6 -5 -14 -5t-13 5l-50 49q-5 6 -13 6t-14 -6l-49 -49q-5 -5 -13 -5t-14 5l-49 49 q-5 6 -13 6t-14 -6l-49 -49q-9 -8 -19.5 -4t-13 13t5.5 18l49 49q5 6 5 14t-5 13l-99 99q-5 5 -13 5t-13 -5l-50 -50q-14 -14 -27 2q-12 14 1 25zM117 305l23 -23q5 -5 13 -5t13 5l23 23q5 5 5 13t-5 14l-23 22q-5 6 -13 6t-13 -6l-23 -22q-5 -6 -5 -14t5 -13zM117 457 l23 -22q5 -5 13 -5t13 5l23 22q5 6 5 14t-5 13l-23 22q-5 6 -13 6t-13 -6l-23 -22q-5 -5 -5 -13t5 -14zM194 381l22 -22q5 -6 13 -6t14 6l22 22q5 5 5 13t-5 14l-22 22q-6 6 -14 6t-13 -6l-22 -22q-6 -6 -6 -14t6 -13zM346 76l22 -22q6 -6 14 -6t13 6l23 22q5 6 5 14t-5 13 l-23 23q-5 5 -13 5t-14 -5l-22 -23q-6 -5 -6 -13t6 -14zM346 381l22 -22q6 -6 14 -6t13 6l23 22q5 5 5 13t-5 14l-23 22q-5 6 -13 6t-14 -6l-22 -22q-6 -6 -6 -14t6 -13zM346 686l22 -22q6 -6 14 -6t13 6l23 22q5 5 5 13t-5 14l-23 22q-5 5 -13 5t-14 -5l-22 -22 q-6 -6 -6 -14t6 -13zM498 76l23 -22q5 -6 13 -6t14 6l22 22q5 6 5 14t-5 13l-22 23q-6 5 -14 5t-13 -5l-23 -23q-5 -5 -5 -13t5 -14zM498 686l23 -22q5 -6 13 -6t14 6l22 22q5 5 5 13t-5 14l-22 22q-6 5 -14 5t-13 -5l-23 -22q-5 -6 -5 -14t5 -13z" />
<glyph unicode="&#xca;" d="M64 179l49 50q5 5 5 13t-5 14l-49 49q-6 5 -6 13t6 14l49 49q5 5 5 13t-5 14l-49 49q-6 6 -6 14t6 13l49 50q5 5 5 13t-5 13l-49 50q-6 5 -6 13t6 13q5 6 13 6t13 -6l50 -49q5 -5 13 -5t14 5l98 99q6 5 6 13t-6 14l-49 49q-6 6 -6 14t6 13l152 152q6 6 14 6t13 -6 l202 -201q5 -6 13 -6t14 6l49 49q6 6 14 5.5t13 -6t6 -12.5t-6 -14l-49 -49q-5 -6 -5 -14t5 -13l49 -50q6 -5 6 -13t-6 -13q-5 -6 -13.5 -6t-13.5 6l-49 49q-6 5 -14 5t-13 -5l-49 -49q-6 -6 -14 -6t-13 6l-49 49q-14 12 -28 0l-49 -49q-5 -6 -13 -6t-14 6l-49 49 q-5 5 -13 5t-14 -5l-98 -99q-6 -5 -6 -13t6 -13l98 -99q6 -5 14 -5t13 5l49 49q6 6 14 6t13 -6l49 -49q14 -12 28 0l49 49q8 9 18 5.5t13 -13t-4 -19.5l-50 -49q-5 -6 -5 -14t5 -13l50 -49q5 -6 5 -14t-5 -13q-6 -5 -14 -5t-13 5l-49 49q-6 6 -14 6t-14 -6l-49 -49 q-5 -5 -13 -5t-14 5l-49 49q-5 6 -13 6t-14 -6l-98 -98q-6 -6 -6 -14t6 -13l98 -99q6 -5 14 -5t13 5l49 49q6 6 14 6t13 -6l49 -49q14 -12 28 0l49 49q5 6 13 6t14 -6l49 -49q5 -5 13 -5t14 5l49 49q5 6 13.5 6t13.5 -6q6 -5 6 -13t-6 -14l-49 -49q-5 -5 -5 -13t5 -14 l49 -49q6 -5 6 -13t-6 -14q-5 -5 -13.5 -5t-13.5 5l-49 49q-6 6 -14 6t-13 -6l-49 -49q-6 -5 -14 -5t-13 5l-49 49q-6 6 -14 6t-14 -6l-49 -49q-5 -5 -13 -5t-14 5l-49 49q-5 6 -13 6t-14 -6l-49 -49q-5 -5 -13 -5t-14 5q-6 6 -6 14t6 13l49 49q6 6 6 14t-6 13l-98 99 q-6 5 -14 5t-13 -5l-50 -50q-14 -14 -27 2q-12 14 1 25zM118 305l22 -23q5 -5 13 -5t14 5l22 23q5 5 5 13t-5 14l-22 22q-6 6 -14 6t-13 -6l-22 -22q-6 -6 -6 -14t6 -13zM118 457l22 -22q5 -5 13 -5t14 5l22 22q5 6 5 14t-5 13l-22 22q-6 6 -14 6t-13 -6l-22 -22 q-6 -5 -6 -13t6 -14zM194 381l22 -22q6 -6 14 -6t13 6l22 22q6 5 6 13t-6 14l-22 22q-5 6 -13 6t-14 -6l-22 -22q-6 -6 -6 -14t6 -13zM270 762l22 -22q6 -6 14 -6t13 6l49 49q6 5 14 5t13 -5l49 -49q6 -6 14 -6t14 6l22 22q5 6 5 14t-5 13l-99 99q-5 5 -13 5t-14 -5l-98 -99 q-6 -5 -6 -13t6 -14zM346 76l22 -22q6 -6 14 -6t13 6l23 22q5 6 5 14t-5 13l-23 23q-5 5 -13 5t-14 -5l-22 -23q-5 -5 -5 -13t5 -14zM346 381l22 -22q6 -6 14 -6t13 6l23 22q5 5 5 13t-5 14l-23 22q-5 6 -13 6t-14 -6l-22 -22q-5 -6 -5 -14t5 -13zM346 686l22 -22 q6 -6 14 -6t13 6l23 22q5 5 5 13t-5 14l-23 22q-5 5 -13 5t-14 -5l-22 -22q-5 -6 -5 -14t5 -13zM498 76l23 -22q5 -6 13 -6t14 6l22 22q6 6 6 14t-6 13l-22 23q-6 5 -14 5t-13 -5l-23 -23q-5 -5 -5 -13t5 -14zM498 686l23 -22q5 -6 13 -6t14 6l22 22q6 5 6 13t-6 14l-22 22 q-6 5 -14 5t-13 -5l-23 -22q-5 -6 -5 -14t5 -13z" />
<glyph unicode="&#xcb;" horiz-adv-x="917" d="M64 152q-5 6 -5 14t5 13l49 50q6 5 6 13t-6 14l-49 49q-5 5 -5 13t5 14l49 49q6 5 6 13t-6 14l-49 49q-5 6 -5 14t5 13l49 50q6 5 6 13t-6 13l-49 50q-14 14 2 27q14 12 25 -1l49 -49q14 -13 27 0l99 99q13 13 0 27l-99 98q-13 14 -27 0l-49 -49q-13 -13 -27 0 q-13 14 0 27l49 49q14 14 0 27l-49 49q-8 9 -4 19.5t13 13t18 -5.5l49 -49q14 -13 27 0l49 49q14 14 27 0q14 -13 0 -27l-49 -49q-13 -13 0 -27l99 -98q13 -14 27 0l49 49q13 13 27 0l49 -49q13 -14 27 0l49 49q13 13 27 0l49 -49q14 -14 27 0l99 98q13 14 0 27l-49 49 q-14 14 0 27q5 6 13 6t13 -6l50 -49q13 -13 27 0l49 49q8 9 18 5.5t13 -13t-4 -19.5l-49 -49q-14 -13 0 -27l49 -49q13 -13 0 -27q-5 -5 -13.5 -5t-13.5 5l-49 49q-14 14 -27 0l-99 -98q-13 -14 0 -27l49 -50q6 -5 6 -13t-6 -13q-5 -6 -13 -6t-13 6l-50 49q-13 13 -27 0 l-49 -49q-5 -6 -13.5 -6t-13.5 6l-49 49q-14 13 -27 0l-49 -49q-14 -14 -27 0l-49 49q-14 13 -27 0l-99 -99q-13 -13 0 -26l99 -99q13 -13 27 0l49 49q13 14 27 0l49 -49q13 -13 27 0l49 49q5 6 13.5 6t13.5 -6q14 -13 0 -27l-49 -49q-13 -14 0 -27l49 -49 q13 -13 -0.5 -26.5t-26.5 -0.5l-49 49q-14 14 -27 0l-49 -49q-14 -13 -27 0l-49 49q-14 14 -27 0l-99 -98q-13 -14 0 -27l99 -99q13 -13 27 0l49 49q13 14 27 0l49 -49q13 -13 27 0l49 49q5 6 13.5 6t13.5 -6l49 -49q14 -13 27 0l50 49q5 6 13 6t13 -6q14 -13 0 -27l-49 -49 q-13 -13 0 -27l49 -49q8 -7 5 -17.5t-12.5 -13.5t-18.5 4l-50 49q-13 14 -27 0l-49 -49q-5 -5 -13.5 -5t-13.5 5l-49 49q-14 14 -27 0l-49 -49q-14 -13 -27 0l-49 49q-14 14 -27 0l-50 -49q-13 -13 -27 0q-13 14 0 27l50 49q13 14 0 27l-99 99q-13 13 -27 0l-49 -50 q-13 -13 -27 0zM118 305l22 -23q6 -5 14 -5t13 5l23 23q5 5 5 13t-5 14l-23 22q-5 6 -13 6t-14 -6l-22 -22q-6 -6 -6 -14t6 -13zM118 457l22 -22q6 -5 14 -5t13 5l23 22q5 6 5 14t-5 13l-23 22q-5 6 -13 6t-14 -6l-22 -22q-6 -5 -6 -13t6 -14zM194 381l22 -22q6 -6 14 -6 t13 6l23 22q5 5 5 13t-5 14l-23 22q-3 4 -8 5.5t-10 0t-9 -5.5l-22 -22q-5 -6 -5 -14t5 -13zM346 76l23 -22q5 -6 13 -6t14 6l22 22q6 6 6 14t-6 13l-22 23q-6 5 -14 5t-13 -5l-23 -23q-5 -5 -5 -13t5 -14zM346 381l23 -22q5 -6 13 -6t14 6l22 22q6 5 6 13t-6 14l-22 22 q-6 6 -14 6t-13 -6l-23 -22q-5 -6 -5 -14t5 -13zM346 686l23 -22q5 -6 13 -6t14 6l22 22q6 5 6 13t-6 14l-22 22q-6 5 -14 5t-13 -5l-23 -22q-5 -6 -5 -14t5 -13zM499 76l22 -22q5 -6 13.5 -6t13.5 6l22 22q6 6 6 14t-6 13l-22 23q-5 5 -13.5 5t-13.5 -5l-22 -23 q-5 -5 -5 -13t5 -14zM499 686l22 -22q5 -6 13.5 -6t13.5 6l22 22q6 5 6 13t-6 14l-22 22q-5 5 -13.5 5t-13.5 -5l-22 -22q-5 -6 -5 -14t5 -13z" />
<glyph unicode="&#xcc;" horiz-adv-x="315" d="M-81 914q-13 14 1 27t27 0l201 -201q5 -6 13.5 -6t13.5 6l49 49q9 8 19.5 4.5t13 -12.5t-5.5 -19l-49 -49q-5 -6 -5 -14t5 -13l49 -50q6 -5 6 -13t-6 -13l-49 -50q-5 -5 -5 -13t5 -13l49 -50q6 -5 6 -13t-6 -14l-49 -49q-5 -6 -5 -14t5 -13l49 -49q6 -6 6 -14t-6 -13 l-49 -49q-5 -6 -5 -14t5 -13l49 -50q6 -5 6 -13t-6 -14l-49 -49q-5 -5 -5 -13t5 -14l49 -49q9 -8 5.5 -18t-13 -13t-19.5 4l-49 49q-5 6 -13.5 6t-13.5 -6l-49 -49q-14 -13 -27 0q-13 14 0 27l49 49q14 14 0 27l-49 49q-13 14 0 27l49 50q14 13 0 27l-49 49q-13 13 0 27 l49 49q14 13 0 27l-49 49q-13 14 0 27l49 50q6 5 6 13t-6 13l-49 50q-13 13 0 26l49 50q14 13 0 27zM126 152l22 -22q5 -5 13.5 -5t13.5 5l22 22q6 6 6 14t-6 13l-22 23q-5 5 -13.5 5t-13.5 -5l-22 -23q-5 -5 -5 -13t5 -14zM126 305l22 -23q5 -5 13.5 -5t13.5 5l22 23 q6 5 6 13t-6 14l-22 22q-5 6 -13.5 6t-13.5 -6l-22 -22q-5 -6 -5 -14t5 -13zM126 457l22 -22q5 -5 13.5 -5t13.5 5l22 22q6 6 6 14t-6 13l-22 22q-5 6 -13.5 6t-13.5 -6l-22 -22q-5 -5 -5 -13t5 -14zM126 610l22 -23q5 -5 13.5 -5t13.5 5l22 23q6 5 6 13t-6 13l-22 23 q-5 5 -13.5 5t-13.5 -5l-22 -23q-5 -5 -5 -13t5 -13z" />
<glyph unicode="&#xcd;" horiz-adv-x="315" d="M64 27l49 49q5 6 5 14t-5 13l-49 49q-6 6 -6 14t6 13l49 50q5 5 5 13t-5 14l-49 49q-6 5 -6 13t6 14l49 49q5 5 5 13t-5 14l-49 49q-6 6 -6 14t6 13l49 50q5 5 5 13t-5 13l-49 50q-6 5 -6 13t6 13l49 50q5 5 5 13t-5 14l-49 49q-9 9 -5.5 19t13 12.5t19.5 -4.5l49 -49 q5 -6 13.5 -6t13.5 6l201 201q13 13 27 0t1 -27l-202 -201q-6 -6 -6 -14t6 -13l49 -50q5 -5 5 -13t-5 -13l-49 -50q-6 -5 -6 -13t6 -13l49 -50q5 -5 5 -13t-5 -14l-49 -49q-6 -6 -6 -14t6 -13l49 -49q5 -6 5 -14t-5 -13l-49 -49q-6 -6 -6 -14t6 -13l49 -50q5 -5 5 -13 t-5 -14l-49 -49q-6 -5 -6 -13t6 -14l49 -49q5 -5 5 -13t-5 -14q-5 -5 -13 -5t-14 5l-49 49q-5 6 -13.5 6t-13.5 -6l-49 -49q-9 -8 -19.5 -4t-13 13t5.5 18zM118 152l22 -22q5 -5 13.5 -5t13.5 5l22 22q5 6 5 14t-5 13l-22 23q-5 5 -13.5 5t-13.5 -5l-22 -23q-6 -5 -6 -13 t6 -14zM118 305l22 -23q5 -5 13.5 -5t13.5 5l22 23q5 5 5 13t-5 14l-22 22q-5 6 -13.5 6t-13.5 -6l-22 -22q-6 -6 -6 -14t6 -13zM118 457l22 -22q5 -5 13.5 -5t13.5 5l22 22q5 6 5 14t-5 13l-22 22q-5 6 -13.5 6t-13.5 -6l-22 -22q-6 -5 -6 -13t6 -14zM118 610l22 -23 q5 -5 13.5 -5t13.5 5l22 23q5 5 5 13t-5 13l-22 23q-5 5 -13.5 5t-13.5 -5l-22 -23q-6 -5 -6 -13t6 -13z" />
<glyph unicode="&#xce;" horiz-adv-x="459" d="M64 762q-6 5 -6 13.5t6 13.5l152 152q5 6 13.5 6t13.5 -6l152 -152q6 -5 6 -13.5t-6 -13.5q-13 -14 -27 0l-125 125q-5 6 -13.5 6t-13.5 -6l-126 -125q-5 -6 -13 -6t-13 6zM140 0q-6 5 -6 13.5t6 13.5l49 49q13 14 0 27l-49 49q-14 14 0 27l49 49q12 14 0 28l-49 49 q-14 13 0 27l49 49q13 13 0 27l-49 49q-6 5 -6 13.5t6 13.5l49 49q13 14 0 27l-49 50q-6 5 -6 13t6 13l49 50q13 13 0 27l-49 49q-9 8 -5.5 18t13 13t19.5 -4l49 -49q5 -6 13.5 -6t13.5 6l49 49q14 13 27 0t0 -27l-49 -49q-14 -14 0 -27l49 -50q13 -13 0 -26l-49 -50 q-14 -13 0 -27l49 -49q13 -14 0 -27l-49 -49q-14 -14 0 -27l49 -49q13 -14 0 -27l-49 -49q-14 -14 0 -28l49 -49q13 -13 0 -27l-49 -49q-14 -13 0 -27l49 -49q14 -14 -1 -27q-13 -13 -26 0l-49 49q-5 6 -13.5 6t-13.5 -6l-49 -49q-14 -14 -27 0zM194 152l22 -22 q5 -5 13.5 -5t13.5 5l22 22q13 14 0 27l-22 23q-5 5 -13.5 5t-13.5 -5l-22 -23q-14 -13 0 -27zM194 305l22 -23q5 -5 13.5 -5t13.5 5l22 23q13 13 0 27l-22 22q-5 6 -13.5 6t-13.5 -6l-22 -22q-14 -14 0 -27zM194 457l22 -22q14 -13 27 0l22 22q13 13 0 27l-22 22 q-5 6 -13.5 6t-13.5 -6l-22 -22q-6 -5 -6 -13.5t6 -13.5zM194 610l22 -23q14 -13 27 0l22 23q13 13 0 26l-22 23q-13 13 -27 0l-22 -23q-6 -5 -6 -13t6 -13z" />
<glyph unicode="&#xcf;" horiz-adv-x="612" d="M64 789l49 49q6 6 6 14t-6 13l-49 49q-13 15 2 28q14 10 25 -1l50 -49q5 -6 13 -6t13 6l50 49q8 9 18 5.5t13 -13t-4 -19.5l-50 -49q-5 -5 -5 -13t5 -14l99 -98q5 -6 13 -6t14 6l98 98q6 6 6 14t-6 13l-49 49q-8 9 -4 19.5t13 13t18 -5.5l49 -49q6 -6 14 -6t13 6l49 49 q6 6 14 6t13 -6q6 -5 6 -13t-6 -14l-49 -49q-5 -5 -5 -13t5 -14l49 -49q6 -5 6 -13.5t-6 -13.5q-5 -6 -13 -6t-14 6l-49 49q-5 5 -13 5t-14 -5l-98 -98q-6 -6 -6 -14t6 -13l49 -50q5 -5 5 -13t-5 -13l-49 -50q-6 -5 -6 -13t6 -14l49 -49q5 -5 5 -13.5t-5 -13.5l-49 -49 q-6 -6 -6 -14t6 -13l49 -49q5 -6 5 -14t-5 -13l-49 -49q-6 -6 -6 -14t6 -14l49 -49q5 -5 5 -13t-5 -14l-49 -49q-6 -5 -6 -13t6 -14l49 -49q6 -6 5.5 -14t-6 -13t-12.5 -6t-14 6l-49 49q-6 6 -14 6t-13 -6l-49 -49q-6 -6 -14 -6t-13 6q-6 5 -6 13.5t6 13.5l49 49q5 6 5 14 t-5 13l-49 49q-6 6 -6 14t6 13l49 49q12 14 0 28l-49 49q-6 5 -6 13t6 14l49 49q5 5 5 13t-5 14l-49 49q-6 5 -6 13.5t6 13.5l49 49q5 6 5 14t-5 13l-49 50q-6 5 -6 13t6 13l49 50q5 5 5 13t-5 14l-99 98q-5 5 -13 5t-13 -5l-50 -49q-12 -13 -25 -1q-14 15 -2 28zM271 152 l22 -22q5 -5 13 -5t14 5l22 22q5 6 5 14t-5 13l-22 23q-6 5 -14 5t-13 -5l-22 -23q-6 -5 -6 -13t6 -14zM271 305l22 -23q5 -5 13 -5t14 5l22 23q5 5 5 13t-5 14l-22 22q-6 6 -14 6t-13 -6l-22 -22q-6 -6 -6 -14t6 -13zM271 457l22 -22q5 -5 13 -5t14 5l22 22q5 5 5 13.5 t-5 13.5l-22 22q-6 6 -14 6t-13 -6l-22 -22q-6 -5 -6 -13.5t6 -13.5zM271 610l22 -23q5 -5 13 -5t14 5l22 23q5 5 5 13t-5 13l-22 23q-6 5 -14 5t-13 -5l-22 -23q-6 -5 -6 -13t6 -13z" />
<glyph unicode="&#xd2;" d="M64 179l49 50q5 5 5 13t-5 14l-49 49q-6 5 -6 13t6 14l49 49q5 5 5 13t-5 14l-49 49q-6 6 -6 14t6 13l49 50q5 5 5 13t-5 13l-49 50q-6 5 -6 13t6 13q5 6 13 6t13 -6l50 -49q5 -5 13 -5t14 5l98 99q5 5 5 13t-5 14l-49 49q-6 6 -5.5 14t6 12.5t12.5 6t14 -5.5l49 -49 q6 -6 14 -6t13 6l22 22q6 6 6 14t-6 13l-125 125q-6 6 -6 14t6 13q5 6 13.5 6t13.5 -6l201 -201q6 -6 14 -6t14 6l49 49q5 5 13 5t14 -5q5 -5 5 -13t-5 -14l-50 -49q-5 -6 -5 -14t5 -13l99 -99q5 -5 13 -5t14 5l49 49q7 9 17.5 5.5t13.5 -13t-4 -18.5l-49 -50q-6 -5 -6 -13 t6 -13l49 -50q13 -13 0 -27l-49 -49q-14 -14 0 -27l49 -49q13 -14 0 -27l-49 -49q-14 -14 0 -27l49 -50q13 -13 0 -27q-14 -13 -27 0l-49 50q-14 13 -27 0l-99 -99q-13 -13 0 -27l50 -49q13 -13 0 -27q-14 -13 -27 0l-49 49q-14 14 -28 0l-49 -49q-13 -13 -27 0l-49 49 q-13 14 -27 0l-49 -49q-5 -5 -13.5 -5t-13.5 5q-14 14 0 27l49 49q13 14 0 27l-98 99q-14 13 -27 0l-50 -50q-8 -8 -18.5 -4t-12.5 13.5t5 17.5zM117 305l23 -23q5 -5 13 -5t14 5l22 23q5 5 5 13t-5 14l-22 22q-6 6 -14 6t-13 -6l-23 -22q-5 -6 -5 -14t5 -13zM117 457 l23 -22q5 -5 13 -5t14 5l22 22q5 6 5 14t-5 13l-22 22q-6 6 -14 6t-13 -6l-23 -22q-5 -5 -5 -13t5 -14zM194 229l98 -99q6 -5 14 -5t13 5l49 49q6 6 14 6t13 -6l49 -49q14 -12 28 0l98 99q5 5 5 13t-5 14l-49 49q-6 5 -6 13t6 14l49 49q5 5 5 13t-5 14l-49 49q-6 6 -6 14 t6 13l49 50q5 5 5 13t-5 13l-98 99q-14 12 -28 0l-49 -49q-5 -6 -13 -6t-14 6l-49 49q-5 5 -13 5t-14 -5l-98 -99q-6 -5 -6 -13t6 -13l49 -50q5 -5 5 -13t-5 -14l-49 -49q-6 -6 -6 -14t6 -13l49 -49q5 -6 5 -14t-5 -13l-49 -49q-6 -6 -6 -14t6 -13zM346 76l22 -22 q6 -6 14 -6t13 6l23 22q5 6 5 14t-5 13l-23 23q-5 5 -13 5t-14 -5l-22 -23q-6 -5 -6 -13t6 -14zM346 686l22 -22q6 -6 14 -6t13 6l23 22q5 5 5 13t-5 14l-23 22q-5 5 -13 5t-14 -5l-22 -22q-6 -6 -6 -14t6 -13zM574 305l23 -23q5 -5 13 -5t14 5l22 23q6 5 6 13t-6 14l-22 22 q-6 6 -14 6t-13 -6l-23 -22q-5 -6 -5 -14t5 -13zM574 457l23 -22q5 -5 13 -5t14 5l22 22q4 4 5.5 9t0 10t-5.5 8l-22 22q-6 6 -14 6t-13 -6l-23 -22q-5 -5 -5 -13t5 -14z" />
<glyph unicode="&#xd3;" d="M64 152q-5 6 -5 14t5 13l49 50q6 5 6 13t-6 14l-49 49q-5 5 -5 13t5 14l49 49q6 5 6 13t-6 14l-49 49q-5 6 -5 14t5 13l49 50q6 5 6 13t-6 13l-49 50q-14 14 2 27q14 12 25 -1l49 -49q14 -13 27 0l99 99q13 13 0 27l-50 49q-13 14 0 27q14 13 27 0l49 -49q14 -14 28 0 l201 201q5 6 13.5 6t13.5 -6q14 -13 0 -27l-125 -125q-14 -13 0 -27l22 -22q13 -14 27 0l49 49q6 6 14 5.5t13 -6t6 -12.5t-6 -14l-49 -49q-13 -14 0 -27l98 -99q14 -13 27 0l50 49q5 6 13 6t13 -6q6 -5 6 -13t-6 -13l-49 -50q-13 -13 0 -26l49 -50q14 -13 0 -27l-49 -49 q-13 -14 0 -27l49 -49q14 -14 0 -27l-49 -49q-13 -14 0 -27l49 -50q8 -7 5 -17.5t-12.5 -13.5t-18.5 4l-50 50q-13 13 -27 0l-98 -99q-13 -13 0 -27l49 -49q14 -13 0 -27q-5 -5 -13.5 -5t-13.5 5l-49 49q-14 14 -27 0l-49 -49q-14 -13 -27 0l-49 49q-14 14 -28 0l-49 -49 q-13 -13 -27 0q-13 14 0 27l50 49q13 14 0 27l-99 99q-13 13 -27 0l-49 -50q-13 -13 -27 0zM118 305l22 -23q6 -5 14 -5t13 5l23 23q5 5 5 13t-5 14l-23 22q-5 6 -13 6t-14 -6l-22 -22q-6 -6 -6 -14t6 -13zM118 457l22 -22q6 -5 14 -5t13 5l23 22q5 6 5 14t-5 13l-23 22 q-5 6 -13 6t-14 -6l-22 -22q-6 -5 -6 -13t6 -14zM194 229l98 -99q14 -12 28 0l49 49q5 6 13 6t14 -6l49 -49q5 -5 13 -5t14 5l98 99q6 5 6 13t-6 14l-49 49q-5 5 -5 13t5 14l49 49q6 5 6 13t-6 14l-49 49q-5 6 -5 14t5 13l49 50q6 5 6 13t-6 13l-98 99q-6 5 -14 5t-13 -5 l-49 -49q-6 -6 -14 -6t-13 6l-49 49q-14 12 -28 0l-98 -99q-5 -5 -5 -13t5 -13l49 -50q6 -5 6 -13t-6 -14l-49 -49q-5 -6 -5 -14t5 -13l49 -49q6 -6 6 -14t-6 -13l-49 -49q-5 -6 -5 -14t5 -13zM346 76l23 -22q5 -6 13 -6t14 6l22 22q6 6 6 14t-6 13l-22 23q-6 5 -14 5 t-13 -5l-23 -23q-5 -5 -5 -13t5 -14zM346 686l23 -22q5 -6 13 -6t14 6l22 22q6 5 6 13t-6 14l-22 22q-6 5 -14 5t-13 -5l-23 -22q-5 -6 -5 -14t5 -13zM575 305l22 -23q6 -5 14 -5t13 5l23 23q5 5 5 13t-5 14l-23 22q-5 6 -13 6t-14 -6l-22 -22q-5 -6 -5 -14t5 -13zM575 457 l22 -22q6 -5 14 -5t13 5l23 22q5 6 5 14t-5 13l-23 22q-5 6 -13 6t-14 -6l-22 -22q-5 -5 -5 -13t5 -14z" />
</font>
</defs>
</svg>
