<?xml version="1.0" standalone="no"?>
<!DOCTYPE svg PUBLIC "-//W3C//DTD SVG 1.1//EN" "http://www.w3.org/Graphics/SVG/1.1/DTD/svg11.dtd" >
<svg xmlns="http://www.w3.org/2000/svg">
<metadata></metadata>
<defs>
<font id="communistregular" horiz-adv-x="558" >
<font-face units-per-em="1000" ascent="800" descent="-200" />
<missing-glyph horiz-adv-x="222" />
<glyph horiz-adv-x="1000" />
<glyph horiz-adv-x="1000" />
<glyph unicode="&#xd;" horiz-adv-x="222" />
<glyph unicode=" "  horiz-adv-x="222" />
<glyph unicode="&#x09;" horiz-adv-x="222" />
<glyph unicode="&#xa0;" horiz-adv-x="222" />
<glyph unicode="!" horiz-adv-x="362" d="M185 124q28 0 47.5 -19t19.5 -47t-19.5 -47.5t-47.5 -19.5t-47 19.5t-19 47.5t19 47t47 19zM252 658q0 -34 -45 -431h-43q-45 397 -45 431q0 28 19 47t47 19t47.5 -19t19.5 -47z" />
<glyph unicode="&#x22;" horiz-adv-x="437" d="M187 747v-74l-22 -122h-49v196h71zM333 747v-74l-22 -122h-49v196h71z" />
<glyph unicode="$" horiz-adv-x="570" d="M319 276v-218q36 11 58.5 41t22.5 70q0 68 -81 107zM266 452v211q-76 -19 -76 -103q0 -68 76 -108zM266 -58v50q-110 6 -180 58v106h67v-59q15 -11 32 -19q40 -20 81 -24v245q-88 36 -123 70q-59 56 -59 155q0 178 182 195v50h53v-49q108 -6 161 -53v-89h-67v44 q-8 11 -21 19q-29 21 -73 25v-239q97 -41 130 -69q63 -53 63 -145q0 -103 -61 -162q-51 -49 -132 -58v-51h-53z" />
<glyph unicode="%" horiz-adv-x="833" d="M568 324q84 0 123 -57q29 -43 29 -109q0 -73 -22 -109q-35 -58 -130 -58q-94 0 -129 58q-22 36 -22 109q0 66 29 109q39 57 122 57zM640 158q0 55 -9 78q-16 40 -63 40t-62 -40q-9 -23 -9 -78t9 -78q15 -40 62 -40t63 40q9 23 9 78zM261 -18l-48 22l338 725l49 -22z M244 720q83 0 122 -58q29 -43 29 -109q0 -72 -22 -109q-35 -57 -129 -57q-95 0 -130 57q-22 37 -22 109q0 66 29 109q39 58 123 58zM315 553q0 55 -9 78q-15 40 -62 40t-63 -40q-9 -23 -9 -78t9 -78q15 -39 63 -39q47 0 62 39q9 23 9 78z" />
<glyph unicode="'" horiz-adv-x="285" d="M187 747v-74l-22 -122h-49v196h71z" />
<glyph unicode="(" horiz-adv-x="378" d="M95 267q0 193 54 318q58 135 157 135v-53q-93 0 -93 -400t93 -400v-54q-99 0 -157 135q-54 126 -54 319z" />
<glyph unicode=")" horiz-adv-x="378" d="M72 -187v54q94 0 94 400t-94 400v53q99 0 158 -135q54 -126 54 -318q0 -193 -54 -319q-59 -135 -158 -135z" />
<glyph unicode="*" horiz-adv-x="506" d="M292 606l58 -97l-46 -26l-56 99l-54 -98l-46 27l56 95l-111 -2l-1 56l112 -3l-57 96l47 27l54 -98l55 98l47 -27l-58 -96l112 2v-55z" />
<glyph unicode="+" horiz-adv-x="466" d="M260 373h137v-53h-137v-138h-54v138h-138v53h138v138h54v-138z" />
<glyph unicode="," horiz-adv-x="333" d="M152 -9q-26 0 -41 19t-15 48q0 28 19 47t47 19q34 0 55 -22q23 -25 23 -69q0 -105 -104 -158l-24 36q73 45 73 98q-12 -18 -33 -18z" />
<glyph unicode="-" horiz-adv-x="385" d="M291 231h-196v71h196v-71z" />
<glyph unicode="." horiz-adv-x="330" d="M170 124q28 0 47 -19t19 -47t-19 -47.5t-47 -19.5t-47.5 19.5t-19.5 47.5t19.5 47t47.5 19z" />
<glyph unicode="/" horiz-adv-x="382" d="M92 -188l-51 15l259 901l51 -15z" />
<glyph unicode="0" horiz-adv-x="666" d="M331 720q133 0 194 -80q64 -86 64 -284q0 -199 -64 -284q-61 -81 -194 -81t-194 81q-65 86 -65 284t65 284q61 80 194 80zM467 356q0 167 -29 237q-31 74 -107 74q-77 0 -107 -74q-29 -70 -29 -237q0 -168 29 -238q30 -74 107 -74q76 0 107 74q29 70 29 238z" />
<glyph unicode="1" horiz-adv-x="410" d="M268 53h80v-53h-283v53h85v605h-85v53h203v-658z" />
<glyph unicode="2" horiz-adv-x="578" d="M425 102v54h67v-156h-432v58q195 230 238 291q71 102 71 180q0 138 -102 138q-78 0 -115 -53v-58h-67v105q58 59 200 59q112 0 167 -55q40 -41 40 -97q0 -115 -83 -213q-119 -127 -237 -253h253z" />
<glyph unicode="3" horiz-adv-x="586" d="M365 529q0 138 -102 138q-79 0 -116 -53v-58h-67v105q57 59 183 59q114 0 169 -45t55 -146q0 -128 -100 -165q118 -24 118 -173q0 -95 -66.5 -147.5t-175.5 -52.5q-126 0 -200 59v106h66v-59q55 -53 134 -53q55 0 88 44q32 41 32 103t-34.5 104.5t-90.5 42.5h-56v53h61 q102 0 102 138z" />
<glyph unicode="4" horiz-adv-x="631" d="M316 249v296l-224 -296h224zM568 196h-134v-143h67v-53h-251v53h66v143h-292v53l357 471h53v-471h134v-53z" />
<glyph unicode="5" horiz-adv-x="612" d="M120 711h368v-155h-66v53h-236v-191h82q265 0 265 -202q0 -112 -68 -170q-63 -55 -174 -55q-126 0 -200 59v106h66v-59q55 -53 129 -53q58 0 93 44q32 40 32 103q0 72 -37 116t-106 44h-148v360z" />
<glyph unicode="6" horiz-adv-x="641" d="M195 218q9 -93 38.5 -133.5t89.5 -40.5q73 0 101 54q21 39 21 120t-21 120q-28 53 -101 53q-128 0 -128 -173zM568 218q0 -110 -64 -168.5t-181 -58.5q-124 0 -186 78q-69 89 -69 287q0 199 72 286q64 78 201 78q110 0 192 -48v-116h-66v65q-52 46 -135 46 q-76 0 -108 -65t-34 -217q47 59 133 59q245 0 245 -226z" />
<glyph unicode="7" horiz-adv-x="531" d="M131 9l260 600h-262v-53h-66v155h429v-53l-300 -676z" />
<glyph unicode="8" horiz-adv-x="600" d="M423 561q0 106 -109 106q-113 0 -113 -98q0 -43 35 -77q25 -24 82 -55q105 64 105 124zM184 359q-95 69 -95 194q0 60 41 105q56 62 171 62q109 0 159 -53q39 -41 39 -107q0 -84 -108 -160q71 -37 104 -75q46 -51 46 -121q0 -83 -49 -139q-63 -74 -193 -74 q-234 0 -234 193q0 96 119 175zM141 180q0 -45 23 -78q35 -49 115 -49q149 0 149 112q0 55 -54 93q-12 8 -119 60q-114 -71 -114 -138z" />
<glyph unicode="9" horiz-adv-x="641" d="M440 493q-10 93 -39 133.5t-89 40.5q-73 0 -102 -54q-21 -39 -21 -120q0 -80 21 -120q29 -53 102 -53q126 0 128 173zM67 493q0 110 64 168.5t181 58.5q124 0 186 -78q69 -88 69 -286q0 -200 -72 -287q-64 -78 -201 -78q-110 0 -193 48v117h67v-66q52 -46 135 -46 q75 0 107 65t35 217q-49 -59 -133 -59q-245 0 -245 226z" />
<glyph unicode=":" horiz-adv-x="329" d="M166 124q28 0 47.5 -19t19.5 -47t-19.5 -47.5t-47.5 -19.5t-47 19.5t-19 47.5t19 47t47 19zM166 542q28 0 47.5 -19.5t19.5 -46.5q0 -28 -19.5 -47.5t-47.5 -19.5t-47 19.5t-19 47.5q0 27 19 46.5t47 19.5z" />
<glyph unicode=";" horiz-adv-x="329" d="M163 542q28 0 47.5 -19.5t19.5 -46.5q0 -28 -19.5 -47.5t-47.5 -19.5t-47.5 19.5t-19.5 47.5q0 27 19.5 46.5t47.5 19.5zM152 -9q-26 0 -41 19t-15 48q0 28 19 47t47 19q34 0 55 -22q23 -25 23 -69q0 -105 -104 -158l-24 36q73 45 73 98q-12 -18 -33 -18z" />
<glyph unicode="&#x3c;" horiz-adv-x="466" d="M172 109l-42 35l110 124l-110 125l42 35l128 -160z" />
<glyph unicode="=" horiz-adv-x="510" d="M416 236h-329v53h329v-53zM416 404h-329v54h329v-54z" />
<glyph unicode="?" horiz-adv-x="519" d="M212 124q27 0 46.5 -19t19.5 -47t-19.5 -47.5t-46.5 -19.5q-28 0 -47.5 19.5t-19.5 47.5t19.5 47t47.5 19zM232 720q-104 0 -152 -52v-90h67v66q23 18 85 18v58zM232 720q118 0 165.5 -48.5t47.5 -173.5q0 -107 -67 -165q-55 -49 -133 -49v-53h-67v107h65q91 0 91 160 q0 94 -19 128q-22 36 -83 36v58z" />
<glyph unicode="A" horiz-adv-x="676" d="M203 213l-45 -160h66v-53h-195v53h67l174 605h-66v53h180l189 -658h67v-53h-256v53h66l-46 160h-201zM389 267l-86 303l-85 -303h171z" />
<glyph unicode="B" horiz-adv-x="615" d="M67 0v53h66v605h-66v53h269q102 0 150 -41q52 -44 52 -141q0 -132 -109 -165q39 -6 68 -25q67 -45 67 -148q0 -91 -66.5 -141t-175.5 -50h-255zM251 391h67q98 0 98 138q0 129 -98 129h-67v-267zM322 53q55 0 89 41q31 38 31 97q0 61 -36.5 104t-92.5 43h-62v-285h71z " />
<glyph unicode="C" horiz-adv-x="616" d="M338 720q125 0 206 -59v-105h-67v58q-61 53 -139 53q-83 0 -119.5 -72.5t-36.5 -238.5q0 -167 36.5 -239.5t119.5 -72.5q78 0 139 53v59h67v-106q-81 -59 -206 -59q-134 0 -202 78q-76 89 -76 287q0 197 76 286q68 78 202 78z" />
<glyph unicode="D" horiz-adv-x="676" d="M67 0v53h66v605h-66v53h273q135 0 202 -74q76 -85 76 -281q0 -197 -76 -282q-66 -74 -202 -74h-273zM340 53q84 0 120 68.5t36 234.5q0 165 -36 233.5t-120 68.5h-89v-605h89z" />
<glyph unicode="E" horiz-adv-x="568" d="M251 53h167v80h66v-133h-417v53h66v605h-66v53h413v-133h-67v80h-162v-267h125v53h66v-160h-66v54h-125v-285z" />
<glyph unicode="F" horiz-adv-x="532" d="M376 391v53h66v-160h-66v54h-125v-285h89v-53h-273v53h66v605h-66v53h424v-133h-67v80h-173v-267h125z" />
<glyph unicode="G" horiz-adv-x="645" d="M338 720q125 0 206 -59v-105h-67v58q-61 53 -139 53q-83 0 -119.5 -72.5t-36.5 -238.5q0 -167 36.5 -239.5t119.5 -72.5q71 0 110 40v205h-67v53h185v-292q-103 -59 -228 -59q-134 0 -202 78q-76 89 -76 287q0 197 76 286q68 78 202 78z" />
<glyph unicode="H" horiz-adv-x="780" d="M251 338v-285h67v-53h-251v53h66v605h-66v53h251v-53h-67v-267h278v267h-67v53h251v-53h-66v-605h66v-53h-251v53h67v285h-278z" />
<glyph unicode="I" horiz-adv-x="398" d="M258 53h66v-53h-251v53h67v605h-67v53h251v-53h-66v-605z" />
<glyph unicode="J" horiz-adv-x="398" d="M258 53q0 -99 -54 -167q-59 -73 -157 -73v54q93 0 93 186v605h-67v53h251v-53h-66v-605z" />
<glyph unicode="K" horiz-adv-x="695" d="M597 53h67v-53h-172l-194 336l-47 -54v-229h67v-53h-251v53h66v605h-66v53h251v-53h-67v-294l251 294h-66v53h204v-53h-68l-193 -226z" />
<glyph unicode="L" horiz-adv-x="520" d="M351 658h-100v-605h167v80h66v-133h-417v53h66v605h-66v53h284v-53z" />
<glyph unicode="M" horiz-adv-x="897" d="M612 711h218v-53h-66v-605h66v-53h-250v53h66v570l-181 -623h-98l-180 627v-575h66v-53h-186v53h66v606h-66v53h216l166 -569z" />
<glyph unicode="N" horiz-adv-x="705" d="M473 0l-286 588v-535h66v-53h-186v53h66v605h-66v53h190l278 -570v517h-67v53h187v-53h-67v-658h-115z" />
<glyph unicode="O" horiz-adv-x="676" d="M338 720q134 0 201 -78q77 -89 77 -286q0 -198 -77 -287q-67 -78 -201 -78t-202 78q-76 89 -76 287q0 197 76 286q68 78 202 78zM493 356q0 167 -36 239t-119 72t-119.5 -72.5t-36.5 -238.5q0 -167 36.5 -239.5t119.5 -72.5t119 72.5t36 239.5z" />
<glyph unicode="P" horiz-adv-x="592" d="M251 391h22q82 0 117 37q30 32 30 101q0 129 -102 129h-67v-267zM269 338h-18v-285h107v-53h-291v53h66v605h-66v53h251q120 0 172 -41.5t52 -140.5q0 -104 -62.5 -147.5t-210.5 -43.5z" />
<glyph unicode="Q" horiz-adv-x="676" d="M493 356q0 167 -36 239t-119 72t-119.5 -72.5t-36.5 -238.5q0 -167 36.5 -239.5t119.5 -72.5t119 72.5t36 239.5zM402 -4q12 -129 91 -129v-54q-83 0 -140 53q-53 50 -69 129q-224 30 -224 361q0 197 76 286q68 78 202 78t201 -78q77 -89 77 -286q0 -324 -214 -360z" />
<glyph unicode="R" horiz-adv-x="676" d="M251 338v-285h107v-53h-291v53h66v605h-66v53h251q120 0 172 -41.5t52 -140.5q0 -67 -42 -116q-38 -46 -91 -57q69 -27 109 -142l56 -161h66v-53h-181l-63 216q-11 37 -31 66q-37 56 -91 56h-23zM251 391h22q82 0 117 37q30 32 30 101q0 129 -102 129h-67v-267z" />
<glyph unicode="S" horiz-adv-x="537" d="M270 720q137 0 182 -53v-89h-67v44q-35 45 -116 45q-45 0 -72 -27q-30 -29 -30 -80q0 -68 81 -111q75 -37 151 -75q81 -57 81 -161q0 -113 -71 -172q-59 -50 -147 -50q-123 0 -204 59v106h67v-59q60 -44 131 -44q49 0 80.5 33t31.5 83q0 64 -80 103q-140 69 -148 75 q-80 61 -80 177q0 91 50 142q54 54 160 54z" />
<glyph unicode="T" horiz-adv-x="629" d="M478 0h-318v53h100v605l-162 -2v-78h-67v133h576v-133h-67v80h-162v-605h100v-53z" />
<glyph unicode="U" horiz-adv-x="702" d="M601 222q0 -231 -241 -231t-241 231v436h-67v53h251v-53h-67v-436q0 -178 156 -178t156 178v436h-67v53h187v-53h-67v-436z" />
<glyph unicode="V" horiz-adv-x="656" d="M360 142l144 516h-66v53h195v-53h-66l-191 -658h-98l-189 658h-67v53h257v-53h-67z" />
<glyph unicode="W" horiz-adv-x="1032" d="M737 142l-148 516zM737 142l144 516h-66v53h195v-53h-66l-191 -658h-98l-138 492l-141 -492h-98l-189 658h-67v53h257v-53h-67l148 -516l144 516h-66v53h218v-53h-67z" />
<glyph unicode="X" horiz-adv-x="678" d="M278 360l-145 298h-75v53h260v-53h-54l92 -189l92 189h-53v53h222v-53h-109l-122 -250l174 -355h62v-53h-261v53h67l-120 247l-120 -247h66v-53h-192v53h66z" />
<glyph unicode="Y" horiz-adv-x="646" d="M208 0v53h62v282l-158 323h-62v53h261v-53h-67l120 -246l120 246h-66v53h192v-53h-66l-156 -318v-287h68v-53h-248z" />
<glyph unicode="Z" horiz-adv-x="564" d="M477 658l-283 -605h226v80h66v-133h-423v53l281 605h-192v-80h-67v133h392v-53z" />
<glyph unicode="[" horiz-adv-x="334" d="M93 771h178v-53h-125v-902h125v-53h-178v1008z" />
<glyph unicode="\" horiz-adv-x="391" d="M300 -188l-259 901l51 15l259 -901z" />
<glyph unicode="]" horiz-adv-x="334" d="M233 -237h-178v53h125v902h-125v53h178v-1008z" />
<glyph unicode="^" horiz-adv-x="400" d="M355 636l-35 -41l-124 109l-125 -109l-35 41l160 128z" />
<glyph unicode="_" horiz-adv-x="478" d="M434 -293h-400v71h400v-71z" />
<glyph unicode="`" horiz-adv-x="356" d="M57 704l37 63l203 -128l-27 -47z" />
<glyph unicode="a" d="M180 160q0 -93 56 -93q36 0 99 62v142q-51 5 -71 5q-40 0 -58 -20q-26 -26 -26 -96zM335 413q0 71 -80 71q-62 0 -89 -22v-53h-66v80q56 53 160 53q76 0 115 -23q62 -37 62 -135v-331h67v-53h-164v80q-81 -89 -143 -89q-129 0 -129 169q0 93 49 133q43 36 138 36 q36 0 80 -16v100z" />
<glyph unicode="b" horiz-adv-x="581" d="M307 -9q-79 0 -174 45v622h-66v53h169v-233q57 64 137 64q82 0 118 -94q25 -67 25 -168q0 -126 -31 -189q-48 -100 -178 -100zM311 44q98 0 98 223q0 202 -71 202q-52 0 -102 -33v-369q30 -23 75 -23z" />
<glyph unicode="c" horiz-adv-x="484" d="M271 484q-58 0 -79 -63q-16 -47 -16 -154q0 -216 93 -216q51 0 138 40l15 -51q-78 -47 -175 -47q-183 0 -183 274q0 137 47 204q50 71 160 71q103 0 145 -51v-82h-67v58q-16 17 -78 17z" />
<glyph unicode="d" horiz-adv-x="581" d="M275 489q-98 0 -98 -222q0 -203 71 -203q52 0 103 34v369q-30 22 -76 22zM453 711v-658h67v-53h-160v56q-62 -65 -147 -65q-142 0 -142 262q0 126 31 190q48 99 178 99q22 0 71 -13v129h-67v53h169z" />
<glyph unicode="e" horiz-adv-x="522" d="M68 267q0 138 44 204q48 71 154 71q125 0 163 -74q28 -56 28 -228h-277q0 -80 25 -131q28 -60 81 -60q75 0 151 35l16 -48q-99 -45 -189 -45q-196 0 -196 276zM266 489q-57 0 -76 -71q-10 -38 -10 -125h173q0 109 -10 142q-17 54 -77 54z" />
<glyph unicode="f" horiz-adv-x="440" d="M236 533h97v-57h-97v-423h97v-53h-266v53h66v423h-66v57h66q0 80 23 118q40 69 157 69q23 0 65 -7v-109h-67v60q-12 3 -26 3q-36 0 -45 -40q-4 -18 -4 -94z" />
<glyph unicode="g" horiz-adv-x="565" d="M346 358q0 56 -10 84q-18 49 -70 49q-84 0 -84 -133q0 -134 84 -134q52 0 70 49q10 28 10 85zM272 173q-51 0 -76 -24q-18 -17 -18 -35q0 -14 4 -19q9 -8 39 -8h139q125 0 125 -112q0 -47 -33 -89q-58 -73 -191 -73q-119 0 -195 58v93h66v-51q52 -42 125 -42q78 0 112 34 q21 21 21 46q0 49 -50 49h-144q-107 0 -107 67q0 73 86 123q-98 43 -98 168q0 71 36 119q49 65 153 65q101 0 148 -61q32 68 86 68q19 0 24 -5v-77q-17 4 -35 4q-32 0 -56 -22q18 -39 18 -91q0 -73 -33 -120q-45 -65 -146 -65z" />
<glyph unicode="h" horiz-adv-x="644" d="M80 53h53v605h-66v53h169v-249q67 80 148 80q69 0 97 -32q30 -36 30 -132v-325h67v-53h-169v391q0 52 -18 69q-13 11 -51 11q-58 0 -104 -44v-374h53v-53h-209v53z" />
<glyph unicode="i" horiz-adv-x="383" d="M76 533h168v-480h67v-53h-235v53h66v427h-66v53zM193 756q28 0 47.5 -19.5t19.5 -47.5t-19.5 -47t-47.5 -19t-47.5 19t-19.5 47t19.5 47.5t47.5 19.5z" />
<glyph unicode="j" horiz-adv-x="366" d="M193 756q28 0 47.5 -19.5t19.5 -47.5t-19.5 -47t-47.5 -19t-47.5 19t-19.5 47t19.5 47.5t47.5 19.5zM44 -133q66 0 88 73q10 36 10 113v427h-66v53h168v-480q0 -130 -48 -185t-152 -55v54z" />
<glyph unicode="k" horiz-adv-x="607" d="M470 480l-133 -132l170 -295h53v-53h-140l-158 272l-26 -26v-193h53v-53h-222v53h66v605h-66v53h169v-390l158 159h-47v53h173v-53h-50z" />
<glyph unicode="l" horiz-adv-x="388" d="M76 711h168v-658h67v-53h-235v53h66v605h-66v53z" />
<glyph unicode="m" horiz-adv-x="914" d="M578 0h-215v53h46v338q0 52 -18 69q-13 11 -51 11q-58 0 -104 -44v-374h44v-53h-200v53h53v427h-66v53h160v-71q76 80 157 80q52 0 78 -16q30 -17 41 -62q71 78 156 78q69 0 97 -32q30 -36 30 -132v-325h66v-53h-168v391q0 52 -18 69q-13 11 -51 11q-62 0 -106 -44 q0 -7 1 -23.5t1 -25.5v-325h67v-53z" />
<glyph unicode="n" horiz-adv-x="644" d="M80 53h53v427h-66v53h160v-71q76 80 157 80q69 0 97 -32q30 -36 30 -132v-325h67v-53h-169v391q0 52 -18 69q-13 11 -51 11q-58 0 -104 -44v-374h53v-53h-209v53z" />
<glyph unicode="o" horiz-adv-x="560" d="M280 542q218 0 218 -278q0 -277 -218 -277t-218 277q0 278 218 278zM387 264q0 112 -20 163q-25 62 -87 62t-87 -62q-20 -51 -20 -163q0 -111 20 -162q25 -62 87 -62t87 62q20 51 20 162z" />
<glyph unicode="p" horiz-adv-x="576" d="M311 44q98 0 98 223q0 202 -71 202q-52 0 -102 -33v-369q30 -23 75 -23zM67 -178v54h66v604h-66v53h160v-55q62 64 146 64q143 0 143 -262q0 -126 -31 -189q-48 -100 -178 -100q-22 0 -71 13v-128h66v-54h-235z" />
<glyph unicode="q" horiz-adv-x="578" d="M271 489q-98 0 -98 -222q0 -203 71 -203q52 0 103 34v369q-30 22 -76 22zM276 542q22 0 115 -9h125v-53h-67v-604h67v-54h-236v54h67v180q-53 -65 -138 -65q-142 0 -142 262q0 126 31 190q48 99 178 99z" />
<glyph unicode="r" horiz-adv-x="446" d="M342 467l-13 1q-54 4 -93 -41v-374h97v-53h-266v53h66v427h-66v53h164v-69q55 83 138 78l35 -2v-131h-62v58z" />
<glyph unicode="s" horiz-adv-x="466" d="M231 542q86 0 151 -38v-95h-66v58q-40 17 -85 17q-38 0 -58 -25q-17 -20 -17 -48q0 -40 65 -68q103 -44 121 -57q65 -48 65 -137q0 -71 -50 -114.5t-121 -43.5q-104 0 -169 42v100h66v-57q40 -27 98 -27q42 0 64 28q16 21 16 45q0 51 -63 80q-113 51 -118 54 q-63 45 -63 137q0 57 36 98q45 51 128 51z" />
<glyph unicode="t" horiz-adv-x="385" d="M322 -4q-30 -5 -50 -5q-86 0 -121 41q-29 33 -29 101v347h-66v53h66v111l102 45v-156h103v-53h-103v-347q0 -43 12 -61q16 -25 58 -25q8 0 28 2v-53z" />
<glyph unicode="u" horiz-adv-x="638" d="M351 533h156v-480h66v-53h-160v71q-76 -80 -157 -80q-69 0 -96 32q-31 36 -31 133v324h-67v53h169v-391q0 -52 18 -68q13 -12 51 -12q58 0 104 45v373h-53v53z" />
<glyph unicode="v" horiz-adv-x="520" d="M22 533h204v-53h-46l103 -390l104 390h-47v53h158v-53h-54l-138 -480h-95l-139 480h-50v53z" />
<glyph unicode="w" horiz-adv-x="800" d="M371 480h-45v53h194v-53h-46l102 -390l91 390h-47v53h158v-53h-53l-121 -480h-98l-108 372l-107 -372h-99l-117 480h-53v53h203v-53h-46l87 -390z" />
<glyph unicode="x" horiz-adv-x="596" d="M524 533v-53h-72l-104 -179l144 -248h55v-53h-216v53h42l-93 162l-92 -162h39v-53h-156v53h56l118 204l-128 223h-50v53h209v-53h-40l76 -137l79 137h-35v53h168z" />
<glyph unicode="y" horiz-adv-x="539" d="M323 -7q-31 -109 -66 -147q-30 -33 -85 -33q-29 0 -47 3v51q50 -6 77 28q22 27 22 71q0 18 -4 34l-138 480h-49v53h195v-53h-40l108 -378l109 378h-55v53h156v-53h-45z" />
<glyph unicode="z" horiz-adv-x="481" d="M44 0v53l247 427h-162v-71h-62v124h342v-53l-246 -427h188v80h67v-133h-374z" />
<glyph unicode="{" horiz-adv-x="378" d="M95 267q0 193 54 318q58 135 157 135v-53q-93 0 -93 -400t93 -400v-54q-99 0 -157 135q-54 126 -54 319z" />
<glyph unicode="|" horiz-adv-x="329" d="M145 -191v915h54v-915h-54z" />
<glyph unicode="}" horiz-adv-x="378" d="M72 -187v54q94 0 94 400t-94 400v53q99 0 158 -135q54 -126 54 -318q0 -193 -54 -319q-59 -135 -158 -135z" />
<glyph unicode="~" horiz-adv-x="444" d="M396 691q-21 -81 -107 -81q-31 0 -75.5 31t-75.5 31q-42 0 -49 -42l-36 9q21 81 107 81q31 0 75.5 -31t75.5 -31q42 0 49 42z" />
<glyph unicode="&#xa1;" horiz-adv-x="362" d="M185 591q-28 0 -47 19.5t-19 47.5t19 47t47 19t47.5 -19t19.5 -47t-19.5 -47.5t-47.5 -19.5zM119 58q0 34 45 431h42q46 -397 46 -431q0 -28 -19.5 -47.5t-47.5 -19.5t-47 19.5t-19 47.5z" />
<glyph unicode="&#xa8;" horiz-adv-x="552" d="M132 756q28 0 47.5 -19.5t19.5 -47.5t-19.5 -47t-47.5 -19q-27 0 -46.5 19t-19.5 47t19.5 47.5t46.5 19.5zM406 756q28 0 47 -19.5t19 -47.5t-19 -47t-47 -19t-47.5 19t-19.5 47t19.5 47.5t47.5 19.5z" />
<glyph unicode="&#xa9;" horiz-adv-x="565" d="M176 298q0 -88 13 -126q16 -45 58 -45q52 0 102 33v307q-30 22 -76 22q-97 0 -97 -191zM518 533v-53h-67v-444q0 -97 -51.5 -155.5t-124.5 -58.5q-103 0 -169 45v66h66v-31q37 -26 98 -26q86 0 86 142v100q-60 -65 -145 -65q-87 0 -120 79q-22 52 -22 152q0 119 31 174 q47 84 178 84q8 0 45.5 -4.5t70.5 -4.5h124z" />
<glyph unicode="&#xad;" horiz-adv-x="385" d="M291 231h-196v71h196v-71z" />
<glyph unicode="&#xb0;" horiz-adv-x="311" d="M167 756q35 0 59.5 -24.5t24.5 -59.5q0 -34 -24.5 -59t-59.5 -25q-34 0 -59 25t-25 59q0 35 25 59.5t59 24.5zM117 672q0 -21 15 -35.5t35 -14.5q21 0 35.5 14.5t14.5 35.5t-14.5 35.5t-35.5 14.5q-20 0 -35 -14.5t-15 -35.5z" />
<glyph unicode="&#xb1;" horiz-adv-x="469" d="M397 0h-329v53h329v-53zM260 373h137v-53h-137v-138h-54v138h-138v53h138v138h54v-138z" />
<glyph unicode="&#xb4;" horiz-adv-x="356" d="M90 592l-27 47l203 128l37 -63z" />
<glyph unicode="&#xbf;" horiz-adv-x="533" d="M312 586q-27 0 -46.5 19.5t-19.5 46.5q0 28 19.5 47.5t46.5 19.5q28 0 47.5 -19.5t19.5 -47.5q0 -27 -19.5 -46.5t-47.5 -19.5zM292 48q62 0 85 18v66h67v-90q-48 -52 -152 -52q-117 0 -165 48.5t-48 173.5q0 107 67 166q55 48 133 48v53h67v-107h-65q-91 0 -91 -160 q0 -94 20.5 -129t81.5 -35z" />
<glyph unicode="&#xd7;" horiz-adv-x="466" d="M233 384l97 98l38 -38l-97 -97l97 -98l-38 -37l-97 97l-97 -97l-38 37l97 98l-97 97l38 38z" />
<glyph unicode="&#xdd;" horiz-adv-x="646" d="M208 0v53h62v282l-158 323h-62v53h261v-53h-67l120 -246l120 246h-66v53h192v-53h-66l-156 -318v-287h68v-53h-248z" />
<glyph unicode="&#xe0;" d="M180 160q0 -93 56 -93q36 0 99 62v142q-51 5 -71 5q-40 0 -58 -20q-26 -26 -26 -96zM335 413q0 71 -80 71q-62 0 -89 -22v-53h-66v80q56 53 160 53q76 0 115 -23q62 -37 62 -135v-331h67v-53h-164v80q-81 -89 -143 -89q-129 0 -129 169q0 93 49 133q43 36 138 36 q36 0 80 -16v100zM120 704l36 63l203 -128l-27 -47z" />
<glyph unicode="&#xe1;" d="M335 413q0 71 -80 71q-62 0 -89 -22v-53h-66v80q56 53 160 53q76 0 115 -23q62 -37 62 -135v-331h67v-53h-164v80q-81 -89 -143 -89q-129 0 -129 169q0 93 49 133q43 36 138 36q36 0 80 -16v100zM180 160q0 -93 56 -93q36 0 99 62v142q-51 5 -71 5q-40 0 -58 -20 q-26 -26 -26 -96zM209 592l-27 47l203 128l37 -63z" />
<glyph unicode="&#xe2;" d="M180 160q0 -93 56 -93q36 0 99 62v142q-51 5 -71 5q-40 0 -58 -20q-26 -26 -26 -96zM335 413q0 71 -80 71q-62 0 -89 -22v-53h-66v80q56 53 160 53q76 0 115 -23q62 -37 62 -135v-331h67v-53h-164v80q-81 -89 -143 -89q-129 0 -129 169q0 93 49 133q43 36 138 36 q36 0 80 -16v100zM430 636l-34 -41l-125 109l-124 -109l-35 41l159 128z" />
<glyph unicode="&#xe3;" d="M180 160q0 -93 56 -93q36 0 99 62v142q-51 5 -71 5q-40 0 -58 -20q-26 -26 -26 -96zM335 413q0 71 -80 71q-62 0 -89 -22v-53h-66v80q56 53 160 53q76 0 115 -23q62 -37 62 -135v-331h67v-53h-164v80q-81 -89 -143 -89q-129 0 -129 169q0 93 49 133q43 36 138 36 q36 0 80 -16v100zM430 639l-35 -9q-8 42 -49 42q-31 0 -75.5 -31t-75.5 -31q-87 0 -107 81l36 9q7 -42 48 -42q32 0 76.5 31t75.5 31q86 0 106 -81z" />
<glyph unicode="&#xe4;" d="M180 160q0 -93 56 -93q36 0 99 62v142q-51 5 -71 5q-40 0 -58 -20q-26 -26 -26 -96zM335 413q0 71 -80 71q-62 0 -89 -22v-53h-66v80q56 53 160 53q76 0 115 -23q62 -37 62 -135v-331h67v-53h-164v80q-81 -89 -143 -89q-129 0 -129 169q0 93 49 133q43 36 138 36 q36 0 80 -16v100zM150 756q28 0 47.5 -19.5t19.5 -47.5t-19.5 -47t-47.5 -19t-47 19t-19 47t19 47.5t47 19.5zM387 756q28 0 47.5 -19.5t19.5 -47.5t-19.5 -47t-47.5 -19t-47.5 19t-19.5 47t19.5 47.5t47.5 19.5z" />
<glyph unicode="&#xe5;" d="M180 160q0 -93 56 -93q36 0 99 62v142q-51 5 -71 5q-40 0 -58 -20q-26 -26 -26 -96zM335 413q0 71 -80 71q-62 0 -89 -22v-53h-66v80q56 53 160 53q76 0 115 -23q62 -37 62 -135v-331h67v-53h-164v80q-81 -89 -143 -89q-129 0 -129 169q0 93 49 133q43 36 138 36 q36 0 80 -16v100zM258 756q35 0 59.5 -24.5t24.5 -59.5q0 -34 -24.5 -59t-59.5 -25q-34 0 -59 25t-25 59q0 35 25 59.5t59 24.5zM208 672q0 -21 15 -35.5t35 -14.5q21 0 35.5 14.5t14.5 35.5t-14.5 35.5t-35.5 14.5q-20 0 -35 -14.5t-15 -35.5z" />
<glyph unicode="&#xe6;" horiz-adv-x="511" d="M424 300q36 -12 87 -12q64 0 64 97q-1 106 -75 106q-76 0 -76 -191zM682 381q0 -79 -50 -117q-40 -30 -102 -30q-50 0 -106 20v-14q0 -79 24 -134q27 -62 74 -62q51 0 142 36l13 -44q-74 -45 -177 -45q-101 0 -156 92q-23 -33 -62 -59q-49 -33 -98 -33q-67 0 -98 43.5 t-31 143.5t48.5 143t164.5 43q13 0 54 -9v58q-3 23 -21 44q-24 27 -59 27q-62 0 -89 -22v-53h-67v80q57 53 160 53q111 0 131 -49q13 21 48 35t73 14q96 0 140 -36.5t44 -124.5zM324 141q-11 50 -11 126v21q-28 23 -45 23q-61 0 -81.5 -25.5t-20.5 -107.5q0 -75 19 -97 q11 -14 48 -14q16 0 42.5 21t48.5 53z" />
<glyph unicode="&#xe7;" horiz-adv-x="484" d="M281 -5l-11 -44q107 0 107 -68q0 -79 -91 -79q-47 0 -104 20l1 44q57 -26 93 -26q40 0 40 35q0 28 -27 35q-13 3 -81 3l22 79q-166 11 -166 273q0 137 47 204q50 71 160 71q103 0 145 -51v-82h-67v58q-16 17 -78 17q-58 0 -79 -63q-16 -47 -16 -154q0 -216 93 -216 q51 0 138 40l15 -51q-18 -11 -39 -19q-49 -21 -102 -26z" />
<glyph unicode="&#xe8;" horiz-adv-x="522" d="M124 704l36 63l204 -128l-27 -47zM68 267q0 138 44 204q48 71 154 71q125 0 163 -74q28 -56 28 -228h-277q0 -80 25 -131q28 -60 81 -60q75 0 151 35l16 -48q-99 -45 -189 -45q-196 0 -196 276zM266 489q-57 0 -76 -71q-10 -38 -10 -125h173q0 109 -10 142q-17 54 -77 54 z" />
<glyph unicode="&#xe9;" horiz-adv-x="522" d="M212 592l-27 47l203 128l37 -63zM68 267q0 138 44 204q48 71 154 71q125 0 163 -74q28 -56 28 -228h-277q0 -80 25 -131q28 -60 81 -60q75 0 151 35l16 -48q-99 -45 -189 -45q-196 0 -196 276zM266 489q-57 0 -76 -71q-10 -38 -10 -125h173q0 109 -10 142q-17 54 -77 54z " />
<glyph unicode="&#xea;" horiz-adv-x="504" d="M430 636l-34 -41l-125 109l-124 -109l-35 41l159 128zM68 267q0 138 44 204q48 71 154 71q125 0 163 -74q28 -56 28 -228h-277q0 -80 25 -131q28 -60 81 -60q75 0 151 35l16 -48q-99 -45 -189 -45q-196 0 -196 276zM266 489q-57 0 -76 -71q-10 -38 -10 -125h173 q0 109 -10 142q-17 54 -77 54z" />
<glyph unicode="&#xeb;" horiz-adv-x="504" d="M146 756q28 0 47 -19.5t19 -47.5t-19 -47t-47 -19t-47.5 19t-19.5 47t19.5 47.5t47.5 19.5zM394 756q28 0 47 -19.5t19 -47.5t-19 -47t-47 -19t-47.5 19t-19.5 47t19.5 47.5t47.5 19.5zM68 267q0 138 44 204q48 71 154 71q125 0 163 -74q28 -56 28 -228h-277 q0 -80 25 -131q28 -60 81 -60q75 0 151 35l16 -48q-99 -45 -189 -45q-196 0 -196 276zM266 489q-57 0 -76 -71q-10 -38 -10 -125h173q0 109 -10 142q-17 54 -77 54z" />
<glyph unicode="&#xec;" horiz-adv-x="383" d="M76 533h168v-480h67v-53h-235v53h66v427h-66v53zM9 704l37 63l203 -128l-27 -47z" />
<glyph unicode="&#xed;" horiz-adv-x="383" d="M76 533h168v-480h67v-53h-235v53h66v427h-66v53zM141 592l-26 47l203 128l36 -63z" />
<glyph unicode="&#xee;" horiz-adv-x="383" d="M76 533h168v-480h67v-53h-235v53h66v427h-66v53zM335 636l-35 -41l-124 109l-124 -109l-35 41l159 128z" />
<glyph unicode="&#xef;" horiz-adv-x="383" d="M76 533h168v-480h67v-53h-235v53h66v427h-66v53zM75 756q28 0 47 -19.5t19 -47.5q0 -27 -21.5 -46.5t-49.5 -19.5q-27 0 -44.5 19t-17.5 47t19.5 47.5t47.5 19.5zM289 756q28 0 47.5 -19.5t19.5 -47.5q0 -27 -21.5 -46.5t-49.5 -19.5q-27 0 -44.5 19t-17.5 47t19 47.5 t47 19.5z" />
<glyph unicode="&#xf1;" horiz-adv-x="644" d="M133 53v427h-66v53h160v-71q76 80 157 80q69 0 97 -32q30 -36 30 -132v-325h67v-53h-169v391q0 52 -18 69q-13 11 -51 11q-58 0 -104 -44v-374h53v-53h-209v53h53zM480 691q-20 -81 -107 -81q-31 0 -75.5 31t-75.5 31q-41 0 -49 -42l-35 9q20 81 106 81q32 0 76.5 -31 t75.5 -31q41 0 48 42z" />
<glyph unicode="&#xf2;" horiz-adv-x="560" d="M280 542q218 0 218 -278q0 -277 -218 -277t-218 277q0 278 218 278zM387 264q0 112 -20 163q-25 62 -87 62t-87 -62q-20 -51 -20 -163q0 -111 20 -162q25 -62 87 -62t87 62q20 51 20 162zM132 704l36 63l203 -128l-27 -47z" />
<glyph unicode="&#xf3;" horiz-adv-x="560" d="M280 542q218 0 218 -278q0 -277 -218 -277t-218 277q0 278 218 278zM387 264q0 112 -20 163q-25 62 -87 62t-87 -62q-20 -51 -20 -163q0 -111 20 -162q25 -62 87 -62t87 62q20 51 20 162zM220 592l-27 47l203 128l36 -63z" />
<glyph unicode="&#xf4;" horiz-adv-x="560" d="M280 542q218 0 218 -278q0 -277 -218 -277t-218 277q0 278 218 278zM387 264q0 112 -20 163q-25 62 -87 62t-87 -62q-20 -51 -20 -163q0 -111 20 -162q25 -62 87 -62t87 62q20 51 20 162zM439 636l-35 -41l-124 109l-124 -109l-35 41l159 128z" />
<glyph unicode="&#xf5;" horiz-adv-x="560" d="M280 542q218 0 218 -278q0 -277 -218 -277t-218 277q0 278 218 278zM387 264q0 112 -20 163q-25 62 -87 62t-87 -62q-20 -51 -20 -163q0 -111 20 -162q25 -62 87 -62t87 62q20 51 20 162zM453 691q-20 -81 -106 -81q-32 0 -76 31t-75 31q-42 0 -49 -42l-36 9 q20 81 107 81q31 0 75.5 -31t75.5 -31q41 0 49 42z" />
<glyph unicode="&#xf6;" horiz-adv-x="560" d="M280 542q218 0 218 -278q0 -277 -218 -277t-218 277q0 278 218 278zM387 264q0 112 -20 163q-25 62 -87 62t-87 -62q-20 -51 -20 -163q0 -111 20 -162q25 -62 87 -62t87 62q20 51 20 162zM151 756q28 0 47.5 -19.5t19.5 -47.5t-19.5 -47t-47.5 -19t-47.5 19t-19.5 47 t19.5 47.5t47.5 19.5zM409 756q28 0 47.5 -19.5t19.5 -47.5t-19.5 -47t-47.5 -19t-47.5 19t-19.5 47t19.5 47.5t47.5 19.5z" />
<glyph unicode="&#xf9;" horiz-adv-x="638" d="M351 533h156v-480h66v-53h-160v71q-76 -80 -157 -80q-69 0 -96 32q-31 36 -31 133v324h-67v53h169v-391q0 -52 18 -68q13 -12 51 -12q58 0 104 45v373h-53v53zM137 704l37 63l203 -128l-27 -47z" />
<glyph unicode="&#xfa;" horiz-adv-x="638" d="M351 533h156v-480h66v-53h-160v71q-76 -80 -157 -80q-69 0 -96 32q-31 36 -31 133v324h-67v53h169v-391q0 -52 18 -68q13 -12 51 -12q58 0 104 45v373h-53v53zM275 592l-27 47l203 128l37 -63z" />
<glyph unicode="&#xfb;" horiz-adv-x="638" d="M351 533h156v-480h66v-53h-160v71q-76 -80 -157 -80q-69 0 -96 32q-31 36 -31 133v324h-67v53h169v-391q0 -52 18 -68q13 -12 51 -12q58 0 104 45v373h-53v53zM468 636l-35 -41l-125 109l-124 -109l-35 41l159 128z" />
<glyph unicode="&#xfc;" horiz-adv-x="638" d="M351 533h156v-480h66v-53h-160v71q-76 -80 -157 -80q-69 0 -96 32q-31 36 -31 133v324h-67v53h169v-391q0 -52 18 -68q13 -12 51 -12q58 0 104 45v373h-53v53zM177 756q28 0 47.5 -19.5t19.5 -47.5t-19.5 -47t-47.5 -19t-47.5 19t-19.5 47t19.5 47.5t47.5 19.5zM450 756 q28 0 47.5 -19.5t19.5 -47.5t-19.5 -47t-47.5 -19t-47 19t-19 47t19 47.5t47 19.5z" />
<glyph unicode="&#xfd;" horiz-adv-x="539" d="M323 -7q-31 -109 -66 -147q-30 -33 -85 -33q-29 0 -47 3v51q50 -6 77 28q22 27 22 71q0 18 -4 34l-138 480h-49v53h195v-53h-40l108 -378l109 378h-55v53h156v-53h-45zM205 592l-27 47l203 128l37 -63z" />
<glyph unicode="&#xff;" horiz-adv-x="539" d="M323 -7q-31 -109 -66 -147q-30 -33 -85 -33q-29 0 -47 3v51q50 -6 77 28q22 27 22 71q0 18 -4 34l-138 480h-49v53h195v-53h-40l108 -378l109 378h-55v53h156v-53h-45zM151 756q28 0 47.5 -19.5t19.5 -47.5t-19.5 -47t-47.5 -19t-47.5 19t-19.5 47t19.5 47.5t47.5 19.5z M409 756q28 0 47.5 -19.5t19.5 -47.5t-19.5 -47t-47.5 -19t-47.5 19t-19.5 47t19.5 47.5t47.5 19.5z" />
<glyph unicode="&#x2000;" horiz-adv-x="390" />
<glyph unicode="&#x2001;" horiz-adv-x="780" />
<glyph unicode="&#x2002;" horiz-adv-x="390" />
<glyph unicode="&#x2003;" horiz-adv-x="780" />
<glyph unicode="&#x2004;" horiz-adv-x="260" />
<glyph unicode="&#x2005;" horiz-adv-x="195" />
<glyph unicode="&#x2006;" horiz-adv-x="130" />
<glyph unicode="&#x2007;" horiz-adv-x="130" />
<glyph unicode="&#x2008;" horiz-adv-x="97" />
<glyph unicode="&#x2009;" horiz-adv-x="156" />
<glyph unicode="&#x200a;" horiz-adv-x="43" />
<glyph unicode="&#x2010;" horiz-adv-x="385" d="M291 231h-196v71h196v-71z" />
<glyph unicode="&#x2011;" horiz-adv-x="385" d="M291 231h-196v71h196v-71z" />
<glyph unicode="&#x2012;" horiz-adv-x="385" d="M291 231h-196v71h196v-71z" />
<glyph unicode="&#x2013;" horiz-adv-x="482" d="M417 231h-333v71h333v-71z" />
<glyph unicode="&#x2014;" horiz-adv-x="620" d="M541 231h-457v71h457v-71z" />
<glyph unicode="&#x2018;" horiz-adv-x="333" d="M184 659q26 0 41.5 -19t15.5 -48q0 -27 -19 -46.5t-47 -19.5q-34 0 -56.5 23.5t-22.5 67.5q0 105 105 159l24 -37q-73 -45 -73 -98q12 18 32 18z" />
<glyph unicode="&#x2019;" horiz-adv-x="333" d="M148 622q-26 0 -41 19t-15 48q0 28 19 47.5t47 19.5q34 0 56 -23.5t22 -68.5q0 -105 -104 -158l-24 36q73 45 73 98q-12 -18 -33 -18z" />
<glyph unicode="&#x201c;" horiz-adv-x="511" d="M166 659q26 0 41.5 -19.5t15.5 -47.5q0 -27 -19.5 -46.5t-47.5 -19.5q-34 0 -56 23.5t-22 67.5q0 105 105 159l24 -37q-74 -45 -74 -98q13 18 33 18zM390 659q26 0 41.5 -19.5t15.5 -47.5q0 -27 -19.5 -46.5t-47.5 -19.5q-34 0 -56 23.5t-22 67.5q0 105 105 159l24 -37 q-74 -45 -74 -98q13 18 33 18z" />
<glyph unicode="&#x201d;" horiz-adv-x="511" d="M352 622q-26 0 -41 19t-15 48q0 28 19 47.5t47 19.5q34 0 56 -23.5t22 -68.5q0 -105 -104 -158l-24 36q73 45 73 98q-12 -18 -33 -18zM129 622q-26 0 -41.5 19.5t-15.5 47.5t19.5 47.5t47.5 19.5q34 0 56 -23.5t22 -68.5q0 -105 -105 -158l-24 36q74 45 74 98 q-13 -18 -33 -18z" />
<glyph unicode="&#x2022;" horiz-adv-x="508" d="M253 444q47 0 79 -32t32 -79q0 -46 -32.5 -78.5t-78.5 -32.5t-78.5 32.5t-32.5 78.5t32.5 78.5t78.5 32.5z" />
<glyph unicode="&#x202f;" horiz-adv-x="156" />
<glyph unicode="&#x205f;" horiz-adv-x="195" />
<glyph unicode="&#xe000;" horiz-adv-x="535" d="M0 535h535v-535h-535v535z" />
</font>
</defs>
</svg>
