<?xml version="1.0" standalone="no"?>
<!DOCTYPE svg PUBLIC "-//W3C//DTD SVG 1.1//EN" "http://www.w3.org/Graphics/SVG/1.1/DTD/svg11.dtd" >
<svg xmlns="http://www.w3.org/2000/svg">
<metadata></metadata>
<defs>
<font id="kingthings_callicalligraphica" horiz-adv-x="750" >
<font-face units-per-em="2048" ascent="1638" descent="-410" />
<missing-glyph horiz-adv-x="414" />
<glyph horiz-adv-x="2048" />
<glyph horiz-adv-x="2048" />
<glyph unicode="&#xd;" horiz-adv-x="390" />
<glyph unicode=" "  horiz-adv-x="414" />
<glyph unicode="&#x09;" horiz-adv-x="414" />
<glyph unicode="&#xa0;" horiz-adv-x="414" />
<glyph unicode="!" horiz-adv-x="404" d="M236 1164l-194 -978l233 186l194 968zM32 85l-46 -236l215 148l48 240z" />
<glyph unicode="&#x22;" horiz-adv-x="542" d="M516 1094q-61 63 -45.5 128t69.5 101l-22 27q-142 -90 -187 -138.5t-58 -112.5t12 -100t63 -39zM256 1094q-61 63 -45.5 128t69.5 101l-22 27q-142 -90 -187 -138.5t-58 -112.5t12 -100t63 -39z" />
<glyph unicode="#" horiz-adv-x="863" d="M4 47l56 -76l548 1306l-52 81zM225 47l56 -76l548 1306l-51 81zM877 748l66 96l-847 -1l-71 -95h852zM820 466l67 96l-848 -1l-71 -95h852z" />
<glyph unicode="$" horiz-adv-x="920" d="M334.5 1129q-95.5 -97 -131 -205.5t24 -187t257 -179t223 -170.5t-38 -135.5t-160.5 -54.5t-185 73t-125.5 128t26.5 169l-10 17l-208 -197q-39 -75 11.5 -177.5t131.5 -156.5t190 -58.5t227.5 84.5t207 201.5t98.5 232.5t-42.5 168t-274 163t-200 201.5t141.5 96 t172.5 -61.5t-35.5 -161l20 -23l238 231q-27 92 -103 136.5t-218 3.5t-237.5 -138zM243 -191l110 -69l342 1715l-105 77z" />
<glyph unicode="%" horiz-adv-x="837" d="M21 -111l54 -83l714 1226l-47 87zM496.5 421.5q-76.5 -63.5 -108 -163.5t21 -180.5t102 -87t96 29.5t115 123.5t75 165.5t-37.5 132t-84 63t-71.5 -5t-108 -77.5zM643 360q50 -62 51.5 -129.5t-29 -97.5t-82.5 -19t-82 92.5t-20 130t61 67t101 -43.5zM136.5 821.5 q-76.5 -63.5 -108 -163.5t21 -180.5t102 -87t96 29.5t115 123.5t75 165.5t-37.5 132t-84 63t-71.5 -5t-108 -77.5zM283 760q50 -62 51.5 -129.5t-29 -97.5t-82.5 -19t-82 92.5t-20 130t61 67t101 -43.5z" />
<glyph unicode="&#x26;" horiz-adv-x="1220" d="M392 1099q-172 -138 -134 -342l43 -132q-307 -216 -293.5 -413.5t189 -218.5t290.5 66.5t136 128.5q131 -149 269 -198l325 344l-22 23l-160 -143q-85 41 -214 144l431 471l-14 28l-307 1l-235 -251l24 -24l57 56l220 1l-210 -242q-187 128 -323 478q-35 131 -3.5 185.5 t90.5 65t110 -45.5t36.5 -139t-150.5 -178l20 -37l261 220q93 113 35 209t-178.5 88.5t-292.5 -145.5zM589 216q-174 -117 -315 29.5t48 347.5q81 -167 267 -377z" />
<glyph unicode="'" horiz-adv-x="258" d="M163 1217q61 -63 45.5 -128t-69.5 -101l22 -27q142 90 187 138.5t58 112.5t-12 100t-63 39z" />
<glyph unicode="(" horiz-adv-x="447" d="M277.5 977q-136.5 -199 -208.5 -392.5t-67.5 -438t110.5 -440.5l194 163q-300 600 277 1431l-6 33q-163 -157 -299.5 -356z" />
<glyph unicode=")" horiz-adv-x="446" d="M172.5 61q136.5 199 208.5 392.5t68 438t-111 440.5l-194 -163q300 -600 -277 -1431l6 -33q163 157 299.5 356z" />
<glyph unicode="*" horiz-adv-x="422" d="M210 1376l-18 -113l-64 115l-38 -80l53 -88h-99l-51 -81l131 12l-94 -72l-1 -103l126 125l-35 -132l74 -42l23 176l80 -131l39 99l-68 80l108 -1l55 89l-155 -19l90 83l-3 81l-111 -108l40 155z" />
<glyph unicode="+" horiz-adv-x="795" d="M368 768l-34 -171h-160l-162 -179l279 2l-69 -344l205 172l35 172h165l178 180h-311l64 316z" />
<glyph unicode="," horiz-adv-x="284" d="M27 153q65 -67 48 -136.5t-74 -107.5l23 -29q152 96 200 147.5t62 120t-12.5 107t-67.5 41.5z" />
<glyph unicode="-" d="M586 640h-333q-160 -13 -268 -231l14 -13q64 76 157 72h396q117 21 235 247l-5 16q-100 -94 -196 -91z" />
<glyph unicode="." horiz-adv-x="415" d="M5 131q106 -19 83 -160l217 149q33 132 -84 178z" />
<glyph unicode="/" horiz-adv-x="450" d="M-197 -242l84 -97l747 1665l-77 103z" />
<glyph unicode="0" horiz-adv-x="786" d="M217.5 748q-138.5 -112 -194.5 -288.5t37 -318t186.5 -152.5t183.5 52t213.5 217.5t133.5 291.5t-73 232.5t-158 111t-132.5 -9t-196 -136.5zM544 673.5q92 -99.5 73 -274t-96.5 -231.5t-174.5 -18t-157.5 185t-19 278t162 146t212.5 -85.5z" />
<glyph unicode="1" horiz-adv-x="467" d="M125 669l12 -35l114 65l-80 -399q-16 -139 -199 -285l11 -19h273l182 116l-12 23q-127 0 -244 -1q141 58 171 155l119 593l-11 18z" />
<glyph unicode="2" horiz-adv-x="678" d="M423 871.5q-153 -40.5 -251 -127.5t-107.5 -179.5t41.5 -146.5l239 182l-10 15q-62 -25 -73 41.5t20.5 108t94.5 35.5t99 -160.5t-58 -236.5l-437 -378l18 -25h488l158 199l-28 9l-46 -54l-357 2q329 275 422.5 410.5t16.5 240.5t-230 64.5z" />
<glyph unicode="3" horiz-adv-x="664" d="M252 885l-230 -241l16 -24q87 80 143 60l256 4l-385 -412l27 -38q193 209 269.5 39t-138.5 -393l-268 -264l46 -22q362 319 490.5 467t112.5 309.5t-231 156.5l302 335l-9 21z" />
<glyph unicode="4" horiz-adv-x="831" d="M-62 28l31 -15q48 61 89 76t150.5 -18t143.5 -36q-13 -293 -150 -356l55 -41q184 145 227 235l50 132q105 -30 171 33t144 225l-46 18q-36 -89 -99.5 -101t-161.5 26l97 592l-224 -313l-37 -229q-164 38 -209 3q491 688 483 1071l-244 -214q129 -158 -470 -1088z" />
<glyph unicode="5" horiz-adv-x="674" d="M11 269l15 -26q104 133 232.5 117t171 -111t-7 -213t-352.5 -418l23 -30q355 337 421.5 430t100.5 203t-11.5 200.5t-114 113.5t-132.5 21t-162 -53l91 198h290l146 172l-5 19h-384z" />
<glyph unicode="6" horiz-adv-x="833" d="M231.5 904.5q-90.5 -109.5 -160 -245t-72 -291t104.5 -280.5t243.5 -81.5t287 199t159 313t-89.5 243.5t-219.5 57.5t-302.5 -246.5q40 204 147.5 336t201.5 178.5t186 12.5l149 206q-281 -84 -412.5 -188t-222 -213.5zM595.5 528.5q55.5 -127.5 0.5 -249.5t-142 -123 q-258 11 -272 348q110 153 234 152.5t179.5 -128z" />
<glyph unicode="7" horiz-adv-x="600" d="M-22 637l34 -6q69 68 134 67l338 -2l-297 -456q-164 -220 -182.5 -330t5.5 -180.5t92 -134.5l194 250q-158 82 -39 355l407 672l-15 25l-476 -1z" />
<glyph unicode="8" horiz-adv-x="717" d="M321.5 853.5q-70.5 -42.5 -113 -85t-74 -129t11 -148.5t199 -104t182.5 -81.5t6 -79t-56 -53t-107 -2.5t-138.5 45.5t-88 86t72.5 118.5l-32 18q-198 -130 -185.5 -238t103.5 -159t169.5 -49t150 54t158.5 152t100.5 170.5t-24 132t-209.5 103.5t-173.5 104t77 79.5 t166 -37t-31.5 -148.5l40 -10q144 78 163.5 151t-51 127.5t-158 39.5t-158 -57.5z" />
<glyph unicode="9" horiz-adv-x="855" d="M574.5 7.5q90.5 109.5 160 245t72.5 291t-104 280.5t-244 81.5t-287.5 -199t-159 -313t90 -243.5t219.5 -57.5t291 235.5q-29 -193 -136.5 -325t-201.5 -178.5t-186 -12.5l-149 -206q281 84 412.5 188t222 213.5zM240.5 398q-43.5 119 -9.5 238t121 120q249 -45 261 -359 q-99 -142 -214 -130t-158.5 131z" />
<glyph unicode=":" horiz-adv-x="368" d="M68 471q106 -19 83 -160l217 149q33 132 -84 178zM-2 121q106 -19 83 -160l217 149q33 132 -84 178z" />
<glyph unicode=";" horiz-adv-x="325" d="M48 471q106 -19 83 -160l217 149q33 132 -84 178zM33 153q64 -67 47.5 -136.5t-73.5 -107.5l23 -29q151 96 199.5 147.5t62 120t-12.5 107t-68 41.5z" />
<glyph unicode="&#x3c;" horiz-adv-x="654" d="M538 229q-68 222 -324 304l485 260l-21 38l-648 -347l-8 -35q284 -111 380 -362z" />
<glyph unicode="=" horiz-adv-x="961" d="M712 700h-348q-167 -13 -278 -231l14 -13q67 76 164 72h413q122 21 244 247l-6 16q-104 -94 -203 -91zM650 490h-348q-167 -13 -278 -231l14 -13q67 76 164 72h413q122 21 244 247l-6 16q-104 -94 -203 -91z" />
<glyph unicode="&#x3e;" horiz-adv-x="646" d="M138 689q68 -222 324 -304l-485 -260l21 -38l648 347l8 35q-284 111 -380 362z" />
<glyph unicode="?" horiz-adv-x="916" d="M158 83l-58 -236l232 148l58 233zM480 604q318 193 394 410.5t-83.5 314t-450 -47.5t-248.5 -479l213 90q-50 176 37.5 278t207 72.5t130.5 -173t-64 -260t-332 -241.5l-96 -381l218 119z" />
<glyph unicode="@" horiz-adv-x="1306" d="M512.5 1041q-129.5 -85 -269.5 -226t-204 -282.5t-49.5 -282t123 -255t200 -97t392.5 262.5l-39 26q-242 -208 -391.5 -57.5t-104 341t170.5 324t264 196.5t273.5 44t195.5 -119.5t46.5 -262t-117 -227t-143 12.5t67.5 480l-270 3q-255 -168 -325 -332t-3 -271.5t144 -76 t219 129.5q19 -96 105 -127q381 172 466.5 364.5t42.5 339.5t-195 201.5t-311 15t-288.5 -124.5zM764 791q-101 -273 -83 -371q-247 -97 -227.5 73.5t104.5 297.5h206z" />
<glyph unicode="A" horiz-adv-x="1106" d="M556 1233q-15 -86 18 -161q-86 -43 -119 -104l-184 -337h-146l-160 -199l32 -26l49 52h126q-93 -161 -368 -459l290 1l195 221l-224 6q116 41 221 231h226l163 140l107 -463q33 -130 151 -141l181 270l-35 26l-64 -82q-39 -23 -61 70l-219 1016q-21 79 60 155l-20 23 q-204 -153 -219 -239zM673 626h-298l221 358z" />
<glyph unicode="B" horiz-adv-x="1014" d="M226 1327l-211 -220l31 -21l67 71l173 1l-56 -92q-158 -867 -213 -909l-130 -134l11 -24l538 -1q102 69 297 247q210 153 221.5 298t-80.5 203.5t-230 46.5q204 118 218.5 304t-240.5 230h-396zM717.5 1021.5q-20.5 -153.5 -142.5 -223.5l-210 3l67 354 q306 20 285.5 -133.5zM753.5 542q48.5 -78 -17.5 -190.5t-135 -139.5h-488l164 144l56 262l222 -1q150 3 198.5 -75z" />
<glyph unicode="C" horiz-adv-x="936" d="M469.5 1170.5q-154.5 -113.5 -229.5 -193t-150.5 -192.5t-68 -259t127.5 -324.5t316 -213.5l280 261l-25 23l-94 -80q-147 16 -241.5 113.5t-138 239.5t35.5 368q99 204 295 195q232 -25 135 -224l16 -7q226 170 240.5 218.5t-45.5 120t-123 81t-119.5 -1.5t-211 -124.5z " />
<glyph unicode="D" horiz-adv-x="1139" d="M110 1038l32 -14l74 73l246 4q-159 -132 -183 -222l-118 -576q-6 -71 -242 -285l5 -23l517 -10q118 28 186 77.5t149 117.5t220 208t158 362.5t-128.5 396t-463.5 158.5l-226 -7zM845 1014.5q114 -103.5 127.5 -293.5t-75 -332t-170.5 -181l-562 -2q156 147 189 247 l115 552q-2 94 78 102q184 11 298 -92.5z" />
<glyph unicode="E" horiz-adv-x="880" d="M69 1032l31 -14q74 72 146 72l173 -1q-139 -51 -171 -159l-29 -140l-180 -199l10 -22l140 66l-68 -333q-6 -71 -209 -307l671 1l262 289l-49 3q-79 -81 -162 -80l-484 1q80 21 168 162l51 253h117l208 172l-12 24l-267 1l54 273l324 2l217 185l-2 20l-712 -2z" />
<glyph unicode="F" horiz-adv-x="747" d="M74 1025l31 -13q45 70 116 74l202 2l-167 -162l-27 -140l-177 -202l10 -22q100 68 136 53l-62 -336q-7 -84 -233 -301l26 -14q51 42 327 28l198 185l-290 -3q78 44 154 114l63 335l117 2l205 175l-11 24l-268 -4l49 274l344 8l214 189l-3 20l-732 -15z" />
<glyph unicode="G" horiz-adv-x="997" d="M470 1170.5q-155 -113.5 -229.5 -193t-150.5 -192.5t-86 -274t110 -339.5t352 -183.5l168 115l-22 -131l27 -12l197 134q62 512 123 568l110 134l-11 24l-368 1l-240 -234l9 -15q88 58 151 66l231 2q-124 -12 -153 -240l-38 -218q-190 -11 -302.5 88.5t-138.5 281 t37 327.5q135 238 349 235q245 -31 148 -230l15 -7q226 170 241 218.5t-45.5 120t-123 81t-134 -1.5t-226.5 -124.5z" />
<glyph unicode="H" horiz-adv-x="1118" d="M62 1032l31 -14q46 69 117 72l182 -1q-112 -69 -155 -179l-30 -150l-48 -2l-233 -247l10 -22q132 106 235 91l-60 -295q-9 -84 -239 -318l24 -4q62 39 330 33l201 181l-290 2q89 43 158 222l39 183h337l103 106l-83 -405q-9 -84 -239 -318l24 -4q62 39 330 33l201 181 l-290 2q89 43 162 192l157 725l207 185l-2 20l-372 -2l-227 -267l31 -14q46 69 117 72l182 -1q-114 -70 -158 -174l-28 -134h-406l62 313l4 2l217 185l-2 20l-372 -2z" />
<glyph unicode="I" horiz-adv-x="553" d="M92 1032l31 -14q46 69 117 72l202 -1q-164 -99 -189 -199l-110 -545l-24 -122q-48 -106 -217 -256l24 -4q62 39 330 33l203 191l-20 18q-56 -35 -282 -26q85 73 198 222l147 693l4 2l187 185l-2 20l-372 -2z" />
<glyph unicode="J" horiz-adv-x="1049" d="M215 1047l37 -19l79 86h488l-113 -115l-107 -535q-47 -240 -92 -283t-132 21q-279 183 -122 397l-11 17l-129 -102q-130 -97 -137 -252q51 -151 172 -233q158 -101 311 30q218 136 332 396l133 665l138 1l203 183h-812z" />
<glyph unicode="K" horiz-adv-x="1000" d="M62 1032l31 -14q46 69 117 72l182 -1q-112 -69 -165 -179l-114 -565l-24 -122q-48 -106 -217 -256l24 -4q62 39 330 33l203 191l-20 18q-56 -35 -282 -26q138 110 176 222l41 199q22 28 58.5 29t92.5 -53t82.5 -152.5t68 -237t141.5 -202.5l243 184l-20 24 q-65 -55 -93 -22q-49 63 -68 142t-50.5 191.5t-82 179.5t-170.5 95l566 501l8 20h-344l-233 -227l12 -17q81 43 136 44l143 1l-471 -411l83 407l217 185l-2 20l-372 -2z" />
<glyph unicode="L" horiz-adv-x="735" d="M72 1032l31 -14q46 69 117 72l182 -1q-112 -69 -165 -179l-114 -565l-34 -122q-48 -106 -217 -256l24 -4q62 39 610 33l211 231l-20 18q-60 -67 -179 -65l-391 -1q85 73 178 222l147 693l4 2l217 185l-2 20l-372 -2z" />
<glyph unicode="M" horiz-adv-x="1284" d="M977 945l-109 -609l-20 -119q-46 -104 -210 -250l24 -4q61 39 329 32l198 187l-21 17q-55 -34 -280 -25q82 71 161 217l146 756l-29 11zM1013 1203l-342 -392q-229 510 -301.5 494t-302.5 -214l27 -21q159 115 217 -3q-131 -131 -135 -179l-98 -552l-20 -119 q-46 -104 -210 -250l24 -4q61 39 329 32l198 187l-21 17q-55 -34 -280 -25q82 71 161 217l96 585l206 -399q61 -75 -38 -171l31 -33l138 130q122 110 14 230l368 434q131 105 249 -89l156 172q-40 34 -111 68.5t-158 13.5t-197 -129z" />
<glyph unicode="N" horiz-adv-x="1148" d="M380.5 1295q-67.5 -6 -318.5 -224l28 -21q158 115 218 -3q-113 -111 -116 -159l-100 -552l-19 -119q-46 -104 -211 -250l24 -4q61 39 328 32l199 187l-21 17q-55 -34 -281 -25q83 71 162 217l97 545l344 -781q-46 -72 -191 -185l25 -4q60 40 328 33l199 191l-20 18 q-55 -35 -249 -23q51 70 131 219l133 723l3 2l213 155l-3 20l-371 -2l-222 -237l31 -14q45 69 117 71h182q-113 -70 -153 -217l-75 -467q-344 863 -411.5 857z" />
<glyph unicode="O" horiz-adv-x="1024" d="M296 1094q-187 -163 -267 -419.5t37.5 -462.5t240.5 -222t243.5 75.5t289.5 316.5t187 424.5t-88 338t-203 161.5t-175 -13t-265 -199zM762 994q117 -174 66.5 -417.5t-155 -326.5t-236 -53t-213 250.5t-8.5 431.5t251 250t295 -135zM342 676q105 -19 83 -160l217 149 q32 132 -85 178z" />
<glyph unicode="P" horiz-adv-x="980" d="M318 408l7 36q228 -50 411.5 138.5t233 366.5t-60 295.5t-261.5 95.5l-346 2l-145 -175l-74 -75l24 -34l99 95l213 -10q-137 -65 -177 -233l-125 -622q-76 -189 -261 -291l8 -30q79 39 340 25l213 205q-127 -40 -283 -23q147 82 184 234zM361 645l96 501 q192 22 271.5 -45t87.5 -230t-123 -234t-281 63z" />
<glyph unicode="Q" horiz-adv-x="1038" d="M330.5 1094q-187.5 -163 -267 -419.5t31.5 -467t247 -222t250 80t283 316.5t186.5 424.5t-88 338t-203 161.5t-175 -13t-265 -199zM789 1003q127 -175 75.5 -422.5t-156 -330.5t-231 -73t-217 242.5t-14 451.5t246 263t296.5 -131zM688.5 434.5q-38.5 24.5 -261.5 -99.5 l2 -30q62 31 100 16t69.5 -164.5t69.5 -317.5t88.5 -191t271.5 116l-17 40q-70 -54 -105 -33t-62.5 146t-72 309t-83 208.5z" />
<glyph unicode="R" horiz-adv-x="984" d="M72 1032l31 -14q46 69 117 102l182 7q-142 -77 -195 -217l-114 -565l-24 -122q-48 -106 -198 -230l5 -30q92 39 360 33l203 191l-20 18q-56 -35 -282 -26q138 110 176 222l48 237q106 2 145.5 -28t78 -89.5t59 -134.5t41.5 -197t128 -211l227 190l-20 24q-65 -55 -93 -22 q-49 63 -68 142t-40.5 171.5t-75 154t-157.5 46.5q154 26 255 139.5t83 266t-176 201.5l-105 10l-344 -2zM688 1099.5q81 -43.5 63.5 -164t-90 -175t-288.5 -52.5l83 420q151 15 232 -28.5z" />
<glyph unicode="S" horiz-adv-x="860" d="M303.5 1129q-95.5 -97 -131 -205.5t24.5 -187t257 -179t222.5 -170.5t-38 -135.5t-160 -54.5t-185 73t-126 128t26.5 169l-10 17l-208 -197q-39 -75 11.5 -177.5t131.5 -156.5t190 -58.5t228 84.5t207.5 201.5t98.5 232.5t-43 168t-274.5 163t-200 201.5t141.5 96 t172.5 -61.5t-35.5 -161l20 -23l238 231q-27 92 -102.5 136.5t-218 3.5t-238 -138z" />
<glyph unicode="T" horiz-adv-x="805" d="M-88 1032l31 -14q46 69 117 72l413 -1q-133 -69 -194 -219l-106 -525l-24 -122q-48 -106 -217 -256l24 -4q62 39 330 33l203 191l-20 18q-56 -35 -281 -26q84 73 207 222l136 687l293 1l229 192l-12 18h-901z" />
<glyph unicode="U" horiz-adv-x="1234" d="M690 235q11 -187 115 -237l269 365l-21 30q-156 -150 -114 96l122 612l45 1l175 173l-2 20l-372 -2l-212 -242l31 -14q42 67 106 67l174 -1q-142 -106 -196 -257l-98 -491q-113 -191 -177 -162q-124 49 -203 172.5t-103.5 251.5t-5 227.5t202.5 272.5l190 179h-308 l-11 -16l-225 -237l22 -14q60 62 262 65q-403 -339 -327 -678q67 -269 298 -416q106 -22 239 103.5t124 131.5z" />
<glyph unicode="V" horiz-adv-x="1078" d="M220 1253l-273 -305l27 -28q114 128 137 27l190 -895q50 -96 164 -37q513 512 577.5 713.5t-22 398t-214.5 182.5t-250.5 -123.5t-201.5 -188.5l-51 260q-15 99 -83 -4zM829.5 929.5q56.5 -198.5 -4 -379.5t-251.5 -338q-81 -23 -209 735q125 127 266.5 154t198 -171.5z " />
<glyph unicode="W" horiz-adv-x="1408" d="M1091 1131q100 -13 139 -199.5t-24.5 -376t-250.5 -318.5q-91 43 -190 709l-10 50l-50 261q-11 90 -98 -16l-281 -266l-49 282q-15 98 -87 -5l-253 -304l26 -29q109 129 153 44l149 -848q38 -221 195 -40l176 141l-14 59l-105 -78q-83 -16 -183 722q170 129 214 41 l170 -871q40 -185 183 -14q449 452 512 653t-17.5 397.5t-203 182.5t-365.5 -283l13 -43q151 162 251 149z" />
<glyph unicode="X" horiz-adv-x="995" d="M49 1025l17 -40q150 167 242 -144l46 -149q-345 -285 -387 -422.5t18.5 -213t160.5 -61.5l287 314l-12 26q-187 -154 -253.5 -42.5t214.5 304.5l165 -472q64 -130 165 -130l206 247l-19 33q-111 -216 -320 476l499 510l-12 44l-311 -1l-228 -221l14 -25q99 64 274 42 l-255 -253l-129 399q-31 143 -247 -89z" />
<glyph unicode="Y" horiz-adv-x="760" d="M431 1093l13 -21q67 53 259 34l-280 -320l-184 434q-55 161 -164 18l-146 -134l23 -27q89 84 122 21l187 -446l-71 -359q-26 -94 -258 -296l389 2l222 207l-26 23q-49 -80 -340 -54q204 124 245 261l43 288l487 567l-14 7l-289 -2z" />
<glyph unicode="Z" horiz-adv-x="938" d="M294 1296l-224 -300l41 -17q49 71 243 104h331l-692 -1059l29 -32q139 196 404 82.5t323 -59t106.5 143t102.5 168.5l-30 23q-47 -100 -109 -125t-134.5 -4.5t-370.5 121.5l609 926l-17 32z" />
<glyph unicode="[" horiz-adv-x="516" d="M69.5 769q-104.5 -295 -29.5 -494t255 -281l172 194q-123 47 -199 168.5t-63 289t76.5 314t236.5 348.5l-21 18q-323 -262 -427.5 -557z" />
<glyph unicode="\" horiz-adv-x="338" d="M359 -242l-113 -97l-248 1665l108 103z" />
<glyph unicode="]" horiz-adv-x="535" d="M464.5 551q104.5 295 29.5 494t-255 281l-172 -194q123 -47 199 -168.5t63 -289t-76.5 -314t-236.5 -348.5l21 -18q323 262 427.5 557z" />
<glyph unicode="_" horiz-adv-x="976" d="M732 -269h-438q-208 -8 -292 -137l21 -8q65 45 188 43h521q149 12 245 146l-12 10q-106 -56 -233 -54z" />
<glyph unicode="`" horiz-adv-x="404" d="M234 1032l167 154q-130 -22 -259 153l-141 -121q142 -197 233 -186z" />
<glyph unicode="a" horiz-adv-x="762" d="M158.5 674q-141.5 -153 -171 -261t54.5 -257t145 -157q131 94 213 153q6 -107 125 -160l245 239l-28 23l-53 -47q-55 -23 -79 17t-10 99l97 481q17 73 73 97l-334 -1q-136 -73 -277.5 -226zM531 742l-48 -68l-8 -37l-86 -429q-101 -69 -192 118t91 416h243z" />
<glyph unicode="b" horiz-adv-x="807" d="M526 1451q-140 -78 -218.5 -167t-116.5 -224l-160 -719q-10 -114 8.5 -179t58 -108t144 -60t361.5 259q173 248 168.5 411t-121 226.5t-354.5 -176.5l112 452q24 168 138 274zM569 551.5q38 -178.5 -84 -359.5q-129 -86 -201.5 -11t-45.5 233l43 228q74 81 162 84.5 t126 -175z" />
<glyph unicode="c" horiz-adv-x="682" d="M259 753q-276 -222 -246.5 -408.5t107 -275t155.5 -70.5q175 116 353 301l-21 22q-103 -96 -194 -124q-109 -22 -177 118t-23.5 269t104.5 145t117.5 -22t49.5 -148l193 143q36 96 -27 150t-156 45q-100 -38 -235 -145z" />
<glyph unicode="d" horiz-adv-x="865" d="M680 1113l-43 -215h-248q-308 -348 -345 -442t-25 -175t92.5 -198.5t141.5 -73.5l240 153q13 -163 116 -162l175 175l60 55l-23 34l-85 -75q-52 16 -6 243l135 672q44 222 154 284l-25 17q-260 -95 -314 -292zM620 797l-115 -575q-178 -76 -254.5 59.5t-46.5 246.5 t88 158h224z" />
<glyph unicode="e" horiz-adv-x="632" d="M239 753q-276 -222 -246.5 -408.5t119.5 -290.5t189 -32q149 93 297 258l-21 22q-73 -76 -152 -119q-110 -53 -187 109t-52 294t110.5 161t131 -38t2.5 -118t-124 -102l-85 -56l21 -42l291 201l96 71q45 136 -18.5 190t-156.5 45q-100 -38 -215 -145z" />
<glyph unicode="f" horiz-adv-x="597" d="M391 1160q-61 -42 -110 -287l-113 -7l-154 -163l237 3l-144 -730q-40 -183 -107.5 -215t-164.5 72l-181 -180q303 -35 465.5 138.5t210.5 373.5l96 544l117 3l193 171l-276 -4q51 279 90 331q167 57 136 -119l139 96q57 55 40.5 121.5t-160.5 105.5z" />
<glyph unicode="g" horiz-adv-x="830" d="M202.5 674q-143.5 -153 -178.5 -261t50.5 -262t147.5 -162q145 104 235 163q-48 -332 -71 -379q-94 -46 -179 -18.5t-171 153.5l-148 -155q97 -125 187.5 -143.5t161.5 7t228 173t176 311t79.5 449t141.5 329.5l-7 22l-370 -1q-139 -73 -282.5 -226zM619 711 q-66 -68 -83 -149l-70 -350q-160 -106 -249 68.5t73 431.5z" />
<glyph unicode="h" horiz-adv-x="810" d="M155 1070l-97 -492l-82 -410q-27 -148 85 -168l226 186l-16 20l-67 -49q-37 17 -6 150l75 375l126 62q173 5 133 -205l-74 -367q-31 -146 78 -168l227 184l-15 26l-69 -54q-34 5 -10 118l80 397q24 135 -48 191t-163 41l-265 -178l79 396q36 214 128 274l-12 19 q-271 -127 -313 -348z" />
<glyph unicode="i" horiz-adv-x="439" d="M173 1131q105 -19 83 -160l217 149q32 132 -85 178zM40 710l12 -37l69 44q53 1 11 -151l-81 -406q-18 -147 91 -166l235 192l-18 23l-66 -50q-55 3 -18 154l84 423q29 157 -33 176z" />
<glyph unicode="j" horiz-adv-x="464" d="M186 1131q105 -19 83 -160l217 149q32 132 -84 178zM53 710l13 -20q119 69 79 -124l-81 -406q-29 -191 -61 -282.5t-154 -201.5l15 -14q365 182 418 576l100 498q30 157 -43 176z" />
<glyph unicode="k" horiz-adv-x="817" d="M161 968l-157 -785q-18 -135 87 -189l260 191l-20 27q-175 -135 -73 213q75 32 118 0t104 -233t134 -201l238 220l-25 26q-110 -123 -159.5 86.5t-164.5 230.5q90 43 157.5 128.5t62.5 217.5l-253 -144q14 -137 -29.5 -178t-181.5 -83l118 590q53 252 149 313l-26 17 q-297 -171 -339 -447z" />
<glyph unicode="l" horiz-adv-x="410" d="M202 1066l-172 -856q-17 -158 111 -216l236 192l-11 20q-115 -64 -147 32l96 478l78 391q34 197 129 273l-13 22q-283 -172 -307 -336z" />
<glyph unicode="m" horiz-adv-x="1285" d="M10 713l18 -30l70 53q79 -4 39 -164l-82 -410q-27 -148 85 -168l227 186l-16 20l-68 -49q-37 17 -6 150l75 375l86 62q173 5 133 -205l-74 -367q-30 -146 78 -168l227 184l-15 26l-69 -54q-34 5 -10 118l79 395l86 71q156 -12 130 -205l-74 -367q-30 -146 79 -168 l226 184l-21 20l-52 -41q-45 5 -18 117l70 347q47 247 -195 273l-233 -175q-14 162 -208 178l-225 -178q11 160 -116 178z" />
<glyph unicode="n" horiz-adv-x="852" d="M10 713l18 -30l69 53q80 -4 40 -164l-82 -410q-27 -148 85 -168l226 186l-16 20l-68 -49q-36 17 -6 150l75 375l117 62q202 45 133 -205l-75 -367q-30 -146 49 -168l257 184l-15 26l-69 -54q-34 5 -10 118l80 397q24 135 -48.5 191t-163.5 41l-254 -178q11 160 -117 178z " />
<glyph unicode="o" horiz-adv-x="770" d="M227.5 750.5q-134.5 -112.5 -190.5 -289t36 -319t180.5 -153.5t170 52t202 218t132 293t-66 233.5t-147.5 111.5t-126 -9t-190.5 -137.5zM518.5 640q82.5 -107 71.5 -227t-73 -181t-157 -49.5t-145.5 163.5t-13.5 261t136 124.5t181.5 -91.5z" />
<glyph unicode="p" horiz-adv-x="869" d="M230 9l22 65q86 -87 190.5 -22t245.5 218t165 295t-94 252t-179 66l-200 -153q-11 141 -116 162l-175 -175l-60 -55l23 -34l85 75q59 -2 17 -243l-98 -482q-31 -141 -198 -281l11 -15q76 24 140 -34t159 -46l213 205q-147 -90 -326 47q166 92 175 155zM279 255l89 401 l83 62q90 38 159 -45.5t50 -258.5t-145 -220t-185 116z" />
<glyph unicode="q" horiz-adv-x="778" d="M177.5 674q-136.5 -153 -166 -261t49 -262t135.5 -162q189 104 227 151l-116 -557l424 288l-26 33l-167 -101l200 957q11 86 79 111l-13 30h-299q-191 -74 -327.5 -227zM439 208q-122 -122 -216 63t32 421h342q-76 -34 -81 -109z" />
<glyph unicode="r" horiz-adv-x="685" d="M18 650l22 -20q85 85 118.5 66.5t-0.5 -130.5l-101 -406q-17 -144 81 -166l246 192l-10 20q-118 -64 -96 32l98 392q36 116 89 121t83 -103l202 131q-40 100 -110 117.5t-132.5 -29.5t-116.5 -122q14 129 -117 147z" />
<glyph unicode="s" horiz-adv-x="720" d="M351 842q-77 -42 -124.5 -83.5t-68 -118.5t10 -136.5t187 -112t181.5 -92t5 -78.5t-56 -52.5t-109.5 -13.5t-142 37t-83 88t34.5 106l-8 16l-168 -134q-32 -52 4 -123.5t100 -108t153.5 -41t161.5 47t147.5 131t97 164t-10.5 149t-203.5 108.5t-172.5 105.5t77.5 79 t154 -19.5t-10.5 -125l15 -3l191 158q-18 64 -74.5 95t-134 15t-154.5 -58z" />
<glyph unicode="t" horiz-adv-x="563" d="M399 1182q-110 -88 -137 -184l-22 -121l-48 -3l-186 -218l29 -23q73 104 177 82l-100 -494q-32 -158 112 -235l264 228l-18 33q-163 -131 -162 31l90 448h108l169 147l-4 28h-250l4 20l41 205q8 58 98 133l-16 20q-39 -9 -149 -97z" />
<glyph unicode="u" horiz-adv-x="814" d="M813 183l-18 30l-70 -53q-79 4 -39 164l82 410q27 148 -85 168l-227 -186l16 -20l68 49q45 -15 6 -150l-75 -375l-109 -79q-154 12 -110 222l74 367q30 146 -78 168l-227 -184l15 -26l69 54q40 -5 4 -148l-61 -300q-30 -150 38.5 -226t164.5 -81l220 186 q-11 -160 116 -178z" />
<glyph unicode="v" horiz-adv-x="840" d="M158 848l-205 -207l21 -19q86 87 106 18l170 -607q41 -65 128 -25q387 348 432.5 484.5t-26.5 274t-166.5 132.5t-194.5 -104t-128 -134l-55 178q-23 85 -82 9zM612 604q57 -114 16.5 -232t-137.5 -201q-75 -16 -185 456q68 82 158.5 86.5t147.5 -109.5z" />
<glyph unicode="w" horiz-adv-x="1265" d="M1031 665.5q87 -146.5 38.5 -276.5t-146.5 -215q-67 18 -173 480l-12 34l-47 181q-46 63 -116 -6l-225 -189l-50 195q-43 72 -115 -3l-209 -211l22 -20q88 89 132 25l156 -576q49 -159 167 -33l149 106l-15 37l-53 -33q-65 -37 -175 474q110 103 164 25l171 -601 q51 -109 150 -8q359 312 404.5 451.5t-30.5 279.5t-170.5 131t-295.5 -212l10 -38q182 149 269 2.5z" />
<glyph unicode="x" horiz-adv-x="861" d="M60 651l27 -28q89 103 133 35l87 -188q-268 -190 -299 -285t22 -147t138 -42l233 216l-10 18q-154 -106 -214 -29t148 222l153 -338q58 -89 143 -89l192 170l-16 23q-113 -149 -299 319l427 351l-13 40l-240 -1l-198 -173l12 -17q39 40 220 25l-225 -180l-105 280 q-25 124 -122 10z" />
<glyph unicode="y" horiz-adv-x="856" d="M359.5 -293q273.5 175 351.5 396l128 637q9 146 -91 168l-259 -214l16 -32l76 61q60 5 24 -142l-63 -317q-100 -84 -202.5 -75t-85.5 179l75 368q30 146 -83 168l-252 -224l12 -37l74 59q66 30 41 -106l-64 -321q-28 -215 173 -287q153 77 303 189l-23 -115 q-40 -277 -199 -292t-270 120l-151 -160q196 -198 469.5 -23z" />
<glyph unicode="z" horiz-adv-x="740" d="M82 630l14 -17q86 94 240 86h238q-550 -537 -649 -682l16 -18q72 60 271.5 11.5t288 10.5t235.5 274l-25 15q-128 -186 -518 -84l610 627l-12 26h-498z" />
<glyph unicode="{" horiz-adv-x="511" d="M236 1001l-48 -242q-26 -140 -177 -260q99 -136 74 -251q-89 -519 47 -588l203 229l-11 24q-102 -76 -59 268l30 152q4 133 -89 176q130 62 174 247l59 294q54 295 152 386l-13 26q-299 -205 -342 -461z" />
<glyph unicode="}" horiz-adv-x="459" d="M246 121l48 242q26 140 177 260q-99 136 -74 251q89 519 -47 588l-203 -229l11 -24q102 76 59 -268l-30 -152q-4 -133 89 -176q-130 -62 -174 -247l-59 -294q-54 -295 -152 -386l13 -26q299 205 342 461z" />
<glyph unicode="&#xa4;" horiz-adv-x="899" d="M444.5 1175.5q-154.5 -113.5 -229.5 -193t-150.5 -192.5t-68 -259t127.5 -324.5t316 -213.5l280 261l-25 23l-94 -80q-147 16 -241.5 113.5t-138 239.5t35.5 368q99 204 295 195q232 -25 135 -224l16 -7q226 170 240.5 218.5t-45.5 120t-123 81t-119.5 -1.5t-211 -124.5z M697 583h-333q-161 -13 -268 -231l13 -13q64 76 157 72h396q118 21 236 247l-6 16q-100 -94 -195 -91zM759 824h-333q-161 -13 -268 -231l13 -13q64 76 158 72h396q117 21 235 247l-6 16q-100 -94 -195 -91z" />
<glyph unicode="&#xa8;" horiz-adv-x="710" d="M384 1155q109 -19 115 -160l187 149q6 132 -120 178zM68 1159q109 -19 115 -160l187 149q6 132 -120 178z" />
<glyph unicode="&#xa9;" horiz-adv-x="1556" d="M920 1387q179 0 330.5 -91.5t213 -262t24.5 -355.5q-37 -184 -164.5 -353t-315.5 -262.5t-372 -93.5t-333.5 93.5t-210 262.5t-23.5 353q37 185 166.5 355.5t318 262t366.5 91.5zM908 1326q-163 0 -335 -84t-290 -239.5t-152 -324.5q-34 -168 21 -322t191.5 -240 t304.5 -86t340 86t288 240t150 322q34 169 -22 324.5t-194 239.5t-302 84zM699 1061q-117 -86 -174 -146t-114.5 -146t-51.5 -196.5t97 -245.5t239 -162l213 198l-19 17l-72 -60q-111 12 -182.5 85.5t-104.5 181.5t27 279q75 155 223 148q176 -19 103 -170l12 -5 q171 129 182 165.5t-34.5 90.5t-93 61.5t-90.5 -1t-160 -94.5z" />
<glyph unicode="&#xad;" d="M586 640h-333q-160 -13 -268 -231l14 -13q64 76 157 72h396q117 21 235 247l-5 16q-100 -94 -196 -91z" />
<glyph unicode="&#xae;" horiz-adv-x="1556" d="M920 1387q179 0 330.5 -91.5t213 -262t24.5 -355.5q-37 -184 -164.5 -353t-315.5 -262.5t-372 -93.5t-333.5 93.5t-210 262.5t-23.5 353q37 185 166.5 355.5t318 262t366.5 91.5zM908 1326q-163 0 -335 -84t-290 -239.5t-152 -324.5q-34 -168 21 -322t191.5 -240 t304.5 -86t340 86t288 240t150 322q34 169 -22 324.5t-194 239.5t-302 84zM462 975l22 -9q32 48 82 71l127 5q-99 -54 -136 -152l-80 -394l-17 -85q-33 -74 -138 -160l3 -21q65 27 252 23l141 133l-13 13q-40 -25 -197 -18q96 76 123 154l33 166q74 1 101.5 -20t54.5 -62.5 t41.5 -93.5t29 -137t89.5 -147l158 132l-14 17q-45 -39 -65 -16q-34 44 -47.5 99t-28.5 119.5t-52 107.5t-110 33q108 18 178.5 97t57.5 185.5t-123 140.5l-73 7l-240 -1zM892.5 1022.5q56.5 -30.5 44 -114.5t-63 -122t-201.5 -36l58 292q106 11 162.5 -19.5z" />
<glyph unicode="&#xb2;" horiz-adv-x="396" d="M246 1098q-87 -23 -142 -72.5t-60 -102t23 -83.5l135 103l-6 9q-35 -14 -41 24t12 61.5t53 20t55.5 -91.5t-32.5 -135l-247 -215l10 -14h275l89 113l-15 5l-27 -30l-200 1q185 156 238.5 233.5t10 137t-130.5 36.5z" />
<glyph unicode="&#xb3;" horiz-adv-x="416" d="M152 1103l-141 -139l10 -14q54 47 91 35l169 2l-236 -237l10 -22q91 87 151 -2t-44 -201l-166 -152l17 -13q224 184 284 252.5t71.5 147t-139.5 137.5l185 193l-7 12z" />
<glyph unicode="&#xb4;" horiz-adv-x="410" d="M35 1002l32 -48l259 159q98 83 33 233l-231 -155q105 -87 -93 -189z" />
<glyph unicode="&#xb8;" horiz-adv-x="234" d="M36 -119l5 -9q31 42 69.5 35.5t48.5 -33t3.5 -57t-33.5 -61.5l-76 -80l8 -9q107 106 127 135t30.5 63.5t-3 63t-35 35.5t-40.5 6.5t-48 -16.5l27 62l-19 5z" />
<glyph unicode="&#xb9;" horiz-adv-x="277" d="M72 972l8 -20l68 36l-45 -223q-8 -78 -117 -159l6 -11h165l110 65l-7 13q-77 0 -148 -1q84 33 102 87l67 332l-6 10z" />
<glyph unicode="&#xbc;" horiz-adv-x="793" d="M11 -111l54 -83l714 1226l-47 87zM130 775l8 -20l68 36l-45 -223q-8 -78 -118 -159l7 -11h165l110 65l-7 13q-77 0 -148 -1q84 33 102 87l66 332l-6 10zM255 29l17 -9q30 27 53.5 32t77.5 -14.5t68 -23.5q-14 -145 -56 -174l6 -8q112 60 141 100l13 61q50 -7 100 14 t116 111l-17 7q-34 -51 -76 -55.5t-106 16.5l57 275l-136 -145l-20 -99q-67 24 -95 9q315 300 334 479l-149 -89q62 -79 -328 -487z" />
<glyph unicode="&#xbd;" horiz-adv-x="768" d="M-9 -111l54 -83l714 1226l-47 87zM110 775l8 -20l68 36l-45 -223q-8 -78 -118 -159l7 -11h165l110 65l-7 13q-77 0 -148 -1q84 33 102 87l66 332l-6 10zM603.5 496q-86.5 -23 -142 -72.5t-60.5 -102t24 -83.5l135 103l-6 9q-35 -14 -41 24t11.5 61.5t53 20t56 -91.5 t-33.5 -135l-247 -215l11 -14h275l89 113l-15 5l-27 -30l-201 1q186 156 239.5 233.5t9.5 137t-130.5 36.5z" />
<glyph unicode="&#xbe;" horiz-adv-x="883" d="M91 -111l54 -83l714 1226l-47 87zM335 29l17 -9q30 27 53.5 32t77.5 -14.5t68 -23.5q-14 -145 -56 -174l6 -8q112 60 141 100l13 61q50 -7 100 14t116 111l-17 7q-34 -51 -76 -55.5t-106 16.5l57 275l-136 -145l-20 -99q-67 24 -95 9q315 300 334 479l-149 -89 q62 -79 -328 -487zM186 901l-142 -139l10 -14q55 47 91 35l170 2l-237 -237l11 -22q90 87 150.5 -2t-44.5 -201l-165 -152l16 -13q224 184 284 252.5t72 147t-139 137.5l184 193l-6 12z" />
<glyph unicode="&#xc6;" horiz-adv-x="1715" d="M653 626h-258l181 358zM551 1233q-30 -86 3 -161q-56 -43 -89 -104l-174 -337h-146l-160 -199l32 -26l49 52h126q-93 -161 -368 -459l290 1l195 221l-224 6q116 41 221 231h226l123 140l102 -399q58 -118 -77 -175l-10 -29h257l549 1l262 289l-49 3q-79 -81 -162 -80 l-484 1q80 21 168 162l51 253h117l208 172l-12 24l-267 1l54 273l324 2l217 185l-2 20l-712 -2l-227 -267l31 -14q74 72 146 72l173 -1q-139 -51 -171 -159l-29 -140l-180 -199l10 -22l140 66l-58 -284q-27 -115 -36 -133l-14 60l-219 1016q-21 79 60 155l-20 23 q-214 -153 -244 -239z" />
<glyph unicode="&#xd7;" horiz-adv-x="711" d="M424 602l-148 237l-193 -154l168 -233l-278 -260l39 -46l275 253l161 -247l173 144l-157 255l268 240l-38 45z" />
<glyph unicode="&#xe6;" horiz-adv-x="1327" d="M198.5 674q-141.5 -153 -171 -261t54.5 -257t145 -157q131 94 213 153q6 -107 125 -160l245 239l-28 23l-53 -47q-55 -23 -79 17t-10 99l97 481q17 73 73 97l-334 -1q-136 -73 -277.5 -226zM571 742l-48 -68l-8 -37l-86 -429q-101 -69 -192 118t91 416h243zM939 753 q-276 -222 -246.5 -408.5t119.5 -290.5t189 -32q149 93 327 278l-21 22q-103 -96 -182 -139q-99 -20 -167 127.5t-57.5 277.5t96 150t116.5 -34.5t2.5 -109t-109.5 -105.5l-85 -56l21 -42l291 201l96 71q45 136 -18.5 190t-156.5 45q-100 -38 -215 -145z" />
<glyph unicode="&#xf7;" horiz-adv-x="866" d="M688 563h-389q-188 -13 -294 -208l8 -16q70 80 181 72h462q137 21 264 227l-8 16q-79 -66 -224 -91zM212 221q106 -19 83 -160l217 149q33 132 -84 178zM328 751q106 -19 83 -160l217 149q33 132 -84 178z" />
<glyph unicode="&#x152;" horiz-adv-x="1540" d="M296 1094q-187 -163 -267 -419.5t37.5 -462.5t240.5 -222t243.5 75.5t289.5 316.5t187 424.5t-88 338t-203 161.5t-175 -13t-265 -199zM725 986q117 -145 85 -399t-136.5 -337t-230.5 -26.5t-200 269t-14 405t219.5 213t276.5 -124.5zM342 676q105 -19 83 -160l217 149 q32 132 -85 178zM886 1090q33 -52 2 -160l-29 -140l-30 -155l-69 -333q-6 -71 -358 -307l820 1l263 289l-50 3q-79 -81 -162 -80l-483 1q80 21 167 162l52 253h117l207 172l-11 24l-268 1l55 273l323 2l217 185l-2 20l-901 -2z" />
<glyph unicode="&#x153;" horiz-adv-x="1261" d="M227.5 750.5q-134.5 -112.5 -190.5 -289t36 -319t180.5 -153.5t170 52t202 218t132 293t-66 233.5t-147.5 111.5t-126 -9t-190.5 -137.5zM515.5 672.5q83.5 -113.5 73.5 -246.5t-72 -194t-157 -49.5t-145.5 163.5t-13.5 261t134 144t180.5 -78.5zM850 753 q-277 -222 -247 -408.5t119.5 -290.5t188.5 -32q149 93 327 278l-21 22q-103 -96 -181 -139q-99 -20 -167 127.5t-57.5 277.5t96 150t116 -34.5t2 -109t-109.5 -105.5l-84 -56l20 -42l291 201l97 71q44 136 -19.5 190t-155.5 45q-101 -38 -215 -145z" />
<glyph unicode="&#x2dc;" horiz-adv-x="552" d="M134 1144l-123 -145l19 -32l67 71q89 60 177 -26t160 15l140 166l-16 32l-57 -67q-75 -55 -165.5 35t-201.5 -49z" />
<glyph unicode="&#x2000;" horiz-adv-x="766" />
<glyph unicode="&#x2001;" horiz-adv-x="1532" />
<glyph unicode="&#x2002;" horiz-adv-x="766" />
<glyph unicode="&#x2003;" horiz-adv-x="1532" />
<glyph unicode="&#x2004;" horiz-adv-x="510" />
<glyph unicode="&#x2005;" horiz-adv-x="383" />
<glyph unicode="&#x2006;" horiz-adv-x="255" />
<glyph unicode="&#x2007;" horiz-adv-x="255" />
<glyph unicode="&#x2008;" horiz-adv-x="191" />
<glyph unicode="&#x2009;" horiz-adv-x="306" />
<glyph unicode="&#x200a;" horiz-adv-x="85" />
<glyph unicode="&#x2010;" d="M586 640h-333q-160 -13 -268 -231l14 -13q64 76 157 72h396q117 21 235 247l-5 16q-100 -94 -196 -91z" />
<glyph unicode="&#x2011;" d="M586 640h-333q-160 -13 -268 -231l14 -13q64 76 157 72h396q117 21 235 247l-5 16q-100 -94 -196 -91z" />
<glyph unicode="&#x2012;" d="M586 640h-333q-160 -13 -268 -231l14 -13q64 76 157 72h396q117 21 235 247l-5 16q-100 -94 -196 -91z" />
<glyph unicode="&#x2013;" horiz-adv-x="972" d="M752 640h-425q-204 -13 -342 -231l18 -13q82 76 200 72h506q149 21 300 247l-6 16q-128 -94 -251 -91z" />
<glyph unicode="&#x2014;" horiz-adv-x="1996" d="M1520 640h-851q-408 -13 -684 -231l36 -13q163 76 401 72h1011q299 21 600 247l-13 16q-255 -94 -500 -91z" />
<glyph unicode="&#x2018;" horiz-adv-x="276" d="M256 1094q-61 63 -45.5 128t69.5 101l-22 27q-142 -90 -187 -138.5t-58 -112.5t12 -100t63 -39z" />
<glyph unicode="&#x2019;" horiz-adv-x="379" d="M133 1217q61 -63 45.5 -128t-69.5 -101l22 -27q142 90 187 138.5t58 112.5t-12 100t-63 39z" />
<glyph unicode="&#x201c;" horiz-adv-x="565" d="M556 1094q-61 63 -45.5 128t69.5 101l-22 27q-142 -90 -187 -138.5t-58 -112.5t12 -100t63 -39zM296 1094q-61 63 -45.5 128t69.5 101l-22 27q-142 -90 -187 -138.5t-58 -112.5t12 -100t63 -39z" />
<glyph unicode="&#x201d;" horiz-adv-x="614" d="M366 1216q61 -63 45.5 -128t-69.5 -101l22 -27q142 90 187 138.5t58 112.5t-12 100t-63 39zM83 1217q61 -63 45.5 -128t-68.5 -101l21 -27q142 90 187.5 138.5t58 112.5t-12 100t-63.5 39z" />
<glyph unicode="&#x2022;" horiz-adv-x="421" d="M169 706l4 -113l-87 115l-22 -80l71 -88h-99l-35 -81l129 12l-80 -72l20 -103l101 125l-9 -132l82 -42l-12 176l106 -131l20 99l-84 80l108 -1l37 89l-151 -19l73 83l-19 81l-89 -108l9 155z" />
<glyph unicode="&#x2026;" horiz-adv-x="955" d="M15 131q106 -19 83 -160l217 149q33 132 -84 178zM335 131q106 -19 83 -160l217 149q33 132 -84 178zM655 131q106 -19 83 -160l217 149q33 132 -84 178z" />
<glyph unicode="&#x202f;" horiz-adv-x="306" />
<glyph unicode="&#x205f;" horiz-adv-x="383" />
<glyph unicode="&#xe000;" horiz-adv-x="900" d="M0 900h900v-900h-900v900z" />
</font>
</defs>
</svg>
