<?xml version="1.0" standalone="no"?>
<!DOCTYPE svg PUBLIC "-//W3C//DTD SVG 1.1//EN" "http://www.w3.org/Graphics/SVG/1.1/DTD/svg11.dtd" >
<svg xmlns="http://www.w3.org/2000/svg">
<metadata></metadata>
<defs>
<font id="santanaregular" horiz-adv-x="300" >
<font-face units-per-em="1000" ascent="800" descent="-200" />
<missing-glyph horiz-adv-x="240" />
<glyph horiz-adv-x="1000" />
<glyph horiz-adv-x="1000" />
<glyph horiz-adv-x="333" />
<glyph d="M271 684h-38q-2 -12 -7 -26t-15 -25t-25 -18.5t-36 -7.5q-34 0 -55.5 22.5t-27.5 54.5h-38q0 -19 6.5 -39.5t20.5 -38t37 -28.5t57 -11q51 0 85.5 31.5t35.5 85.5z" />
<glyph d="M189 605q0 17 -10.5 29t-27.5 12t-28 -12.5t-11 -28.5t10.5 -28.5t27.5 -12.5q18 0 28.5 12.5t10.5 28.5z" />
<glyph horiz-adv-x="400" d="M294 623q0 39 -26.5 65.5t-66.5 26.5q-41 0 -68 -27t-27 -65t27 -64t68 -26q18 0 35 7t30 19t20.5 28.5t7.5 35.5zM256 624q0 -25 -15.5 -43t-40.5 -18q-23 0 -38.5 18.5t-15.5 41.5q0 26 14.5 44t39.5 18t40.5 -17.5t15.5 -43.5z" />
<glyph unicode="&#xa;" d="M378 681h-69l-91 -127h38zM248 681h-69l-91 -127h38z" />
<glyph d="M218 -185l-9 32q-12 -6 -25.5 -7.5t-24.5 -1.5q-18 0 -32 12.5t-14 37.5q0 16 8 31.5t21.5 30.5t31 27.5t35.5 22.5h-43q-14 -5 -31 -17.5t-32 -29t-25 -36t-10 -38.5q0 -35 22.5 -56t57.5 -21q40 0 70 13z" />
<glyph d="M269 682h-47l-69 -103h-2l-69 103h-51l102 -140h38z" />
<glyph unicode="&#xd;" horiz-adv-x="225" d="M137 0v480h-49v-480h49z" />
<glyph horiz-adv-x="428" d="M436 662h-41l-403 -674h41z" />
<glyph horiz-adv-x="520" d="M432 0v480h-295v28q0 35 6.5 67.5t22 57t42 39.5t66.5 15q32 0 60 -9.5t45 -23.5l24 38q-9 7 -23 14t-30 11.5t-33.5 7.5t-33.5 3q-50 0 -86.5 -16t-60.5 -45t-36 -69t-12 -89v-29h-73v-39h73v-642h49v642h246v-441h49z" />
<glyph horiz-adv-x="520" d="M432 0v701q-23 12 -56 19.5t-71 7.5q-51 0 -86.5 -12.5t-61.5 -35.5q-69 -63 -69 -182v-18h-73v-39h73v-642h49v642h141v39h-141v26q0 36 7.5 68.5t26 57.5t49 40t75.5 15q33 0 53.5 -4.5t34.5 -11.5v-671h49z" />
<glyph horiz-adv-x="490" d="M471 0v41h-334v287l147 99v44l-147 -99v302h-49v-333l-94 -64v-44l94 65v-298h383z" />
<glyph horiz-adv-x="225" d="M209 425v46l-72 -59v304h-49v-341l-72 -59v-45l72 59v-330h49v366z" />
<glyph horiz-adv-x="605" d="M444 825h-50l-75 -78h-2l-77 78h-54l113 -115h36zM570 0v41h-469v3l462 596v34h-488v-41h423v-3l-461 -597v-33h533z" />
<glyph horiz-adv-x="440" d="M359 682h-47l-69 -103h-2l-69 103h-51l102 -140h38zM428 0v40h-348v2q15 17 29 33t28 33l287 338l1 34h-388v-40h328v-2q-17 -18 -32 -35t-30 -35l-287 -338v-30h412z" />
<glyph unicode=" "  horiz-adv-x="240" />
<glyph unicode="&#x09;" horiz-adv-x="240" />
<glyph unicode="&#xa0;" horiz-adv-x="240" />
<glyph unicode="!" horiz-adv-x="215" d="M137 674h-61l10 -494h41zM150 34q0 20 -11.5 33.5t-30.5 13.5t-30.5 -13.5t-12.5 -33.5q0 -18 11.5 -32t30.5 -14q20 0 31.5 14t11.5 32z" />
<glyph unicode="&#x22;" horiz-adv-x="302" d="M242 695h-60l14 -222h32zM120 695h-60l14 -222h32z" />
<glyph unicode="#" horiz-adv-x="500" d="M460 408v39h-91l25 203h-42l-26 -203h-122l25 203h-42l-26 -203h-100v-39h95l-20 -161h-96v-39h91l-26 -208h43l26 208h122l-26 -208h43l26 208h101v39h-96l20 161h96zM321 408l-20 -161h-122l20 161h122z" />
<glyph unicode="$" horiz-adv-x="530" d="M430 181q0 34 -11 60.5t-31.5 48t-50 38.5t-66.5 33q-72 30 -103 58t-31 72q0 18 7 37t22 34t39 25t59 10q49 0 80 -14t45 -24l22 38q-22 14 -52.5 25.5t-75.5 13.5v107h-42v-107q-69 -9 -109.5 -50.5t-40.5 -100.5t40.5 -97.5t126.5 -73.5q59 -24 92 -55.5t33 -80.5 q0 -25 -10.5 -47t-29 -38t-45 -25t-58.5 -9q-41 0 -77 13t-62 33l-22 -38q28 -23 69.5 -35t82.5 -12v-105h42v105q40 6 70 22.5t49 39t28.5 48.5t9.5 51z" />
<glyph unicode="%" horiz-adv-x="770" d="M740 202q0 98 -39 145.5t-102 47.5q-28 0 -55 -12.5t-48.5 -37.5t-34 -64t-12.5 -91q0 -51 12 -87.5t32 -60.5t45.5 -35.5t53.5 -11.5q31 0 58 13t47 38.5t31.5 64.5t11.5 91zM606 662h-41l-403 -674h41zM321 469q0 98 -39 145.5t-102 47.5q-28 0 -55 -12.5t-48.5 -37.5 t-34 -64t-12.5 -91q0 -51 12 -87.5t32 -60.5t45.5 -35.5t53.5 -11.5q31 0 58 13t47 38.5t31.5 64.5t11.5 91zM698 198q0 -79 -25.5 -124t-77.5 -45q-46 0 -75 44t-27 122q1 78 29.5 122t73.5 44q54 0 78 -44.5t24 -118.5zM279 465q0 -79 -25.5 -124t-77.5 -45q-46 0 -75 44 t-27 122q1 78 29.5 122t73.5 44q54 0 78 -44.5t24 -118.5z" />
<glyph unicode="&#x26;" horiz-adv-x="590" d="M599 0q-27 24 -55 51t-61 59q33 35 55.5 94t39.5 149h-46q-8 -45 -16 -78.5t-17.5 -59t-20.5 -44.5t-23 -35q-17 17 -40.5 41.5t-51 54t-59 63t-62.5 68.5v3q1 1 2 1t2 1q46 23 77.5 44.5t51.5 43t29 45t9 50.5q0 29 -10.5 54t-28.5 43t-43.5 28t-55.5 10 q-39 0 -69.5 -14t-51 -36.5t-31.5 -51.5t-11 -60q0 -67 62 -145v-3q-29 -14 -55 -32.5t-45.5 -43t-31.5 -55t-12 -68.5q0 -42 16 -76.5t43 -59.5t63.5 -39t78.5 -14q58 0 111.5 18.5t112.5 70.5q26 -23 44 -41.5t37 -35.5h63zM368 546q0 -27 -11 -48t-31 -39t-47.5 -34 t-60.5 -32q-20 26 -39.5 59t-19.5 77q0 23 7 44.5t21 38t34.5 26.5t47.5 10q26 0 45 -9t31 -24t17.5 -33t5.5 -36zM427 105q-32 -33 -78.5 -55.5t-105.5 -22.5q-34 0 -64 11t-52.5 31.5t-35.5 49.5t-13 65q0 34 12.5 61t30.5 47t38.5 33.5t37.5 21.5q38 -42 74.5 -81.5 t67.5 -71.5t54 -55.5t34 -33.5z" />
<glyph unicode="'" horiz-adv-x="180" d="M120 695h-60l14 -222h32z" />
<glyph unicode="(" horiz-adv-x="270" d="M265 -124q-33 41 -61 84.5t-48.5 92.5t-32 105.5t-11.5 124.5q0 69 11 127.5t31 109t48 94.5t63 84h-47q-29 -35 -56 -76t-49 -91.5t-35 -111.5t-13 -135t13 -134t35 -110t49 -90.5t56 -73.5h47z" />
<glyph unicode=")" horiz-adv-x="270" d="M205 287q0 74 -13 135t-35 111.5t-49.5 91t-55.5 73.5h-47q34 -41 62 -84.5t48 -93t31.5 -107t11.5 -125.5q0 -69 -11.5 -126.5t-32 -108t-48.5 -94t-61 -83.5h47q28 34 55.5 75t49.5 91t35 110.5t13 134.5z" />
<glyph unicode="*" horiz-adv-x="400" d="M370 498v49l-151 -12v2l92 123l-46 26l-64 -133h-2l-66 133l-47 -27l90 -121v-2l-146 11v-49l147 15v-3l-91 -120l40 -27l71 134h2l63 -134l49 27l-91 119v3z" />
<glyph unicode="+" horiz-adv-x="596" d="M556 247v40h-236v245h-44v-245h-236v-40h236v-247h44v247h236z" />
<glyph unicode="," horiz-adv-x="175" d="M143 96l-64 -10q-3 -23 -9.5 -53.5t-14 -60.5t-15 -56t-13.5 -42l39 5q6 10 16 35t21.5 56t22 64.5t17.5 61.5z" />
<glyph unicode="-" d="M270 261v43h-240v-43h240z" />
<glyph unicode="." horiz-adv-x="175" d="M112 34q0 20 -11.5 33.5t-30.5 13.5t-31 -13.5t-12 -33.5q-1 -18 11 -32t31 -14q20 0 31.5 14t11.5 32z" />
<glyph unicode="/" horiz-adv-x="374" d="M384 686h-51l-357 -726h48z" />
<glyph unicode="0" horiz-adv-x="530" d="M489 337q0 82 -16 143.5t-44.5 101.5t-68 60t-87.5 20q-44 0 -86 -20t-74.5 -62t-52.5 -106.5t-19 -152.5q1 -87 19.5 -150t48.5 -103.5t68.5 -60t80.5 -19.5q108 0 169.5 87.5t61.5 261.5zM437 330q0 -68 -10.5 -124t-32 -95.5t-55 -61t-78.5 -21.5q-38 0 -70 20.5 t-54.5 59.5t-34.5 95t-11 127q1 66 14 120t35.5 92t54 59t69.5 21q46 0 78.5 -21t53.5 -59.5t31 -92.5t10 -119z" />
<glyph unicode="1" horiz-adv-x="530" d="M298 0v650h-47l-121 -70l12 -39l106 61h2v-602h48z" />
<glyph unicode="2" horiz-adv-x="530" d="M469 0v41h-350v2l46 41q72 64 125.5 115.5t89 97.5t53 90t17.5 93q0 26 -9.5 57.5t-32 59.5t-60 46.5t-94.5 18.5q-53 0 -99 -19t-84 -53l20 -33q25 22 64.5 42t88.5 20q47 0 77 -14t47.5 -35.5t24.5 -48.5t7 -54q0 -38 -14.5 -73.5t-48 -78t-88.5 -96.5t-136 -129 l-64 -59v-31h420z" />
<glyph unicode="3" horiz-adv-x="530" d="M456 182q0 33 -12 61.5t-33 50.5t-49.5 37.5t-62.5 21.5v2q63 22 95.5 62.5t32.5 91.5q0 26 -9.5 53.5t-31 49.5t-56.5 36t-86 14q-50 0 -95 -17.5t-71 -37.5l20 -36q24 19 61.5 34t79.5 15q39 0 65.5 -10.5t42 -27.5t22.5 -37.5t7 -41.5q0 -34 -16.5 -59t-42 -42 t-57 -25.5t-61.5 -8.5h-52v-36h49q37 0 74 -8t67 -26t48.5 -47t19.5 -71q0 -17 -6 -42.5t-25.5 -49.5t-54.5 -41t-93 -17q-26 0 -49.5 4.5t-44 11t-36.5 14.5t-26 15l-20 -39q22 -16 67 -32t102 -16q62 0 107 17t74 45t42.5 62.5t13.5 69.5z" />
<glyph unicode="4" horiz-adv-x="530" d="M504 190v41h-108v419h-38l-352 -427v-33h343v-190h47v190h108zM351 583q-2 -17 -2 -36v-37v-279h-284v2l236 287q11 13 22 28t25 36z" />
<glyph unicode="5" horiz-adv-x="530" d="M446 206q0 36 -10.5 66t-27 52.5t-37.5 38.5t-42 24q-29 11 -57.5 16t-62.5 5q-26 0 -41.5 -1.5t-28.5 -3.5l31 204h267v43h-305l-41 -292q20 3 46.5 5.5t58.5 2.5q54 0 92 -13.5t62 -36.5t35.5 -54t11.5 -66t-13.5 -65t-37.5 -52.5t-56.5 -35.5t-71.5 -13 q-51 0 -90 14.5t-60 28.5l-20 -39q22 -16 65 -31t101 -15q48 0 90 16t73.5 44.5t50 68.5t18.5 89z" />
<glyph unicode="6" horiz-adv-x="530" d="M491 217q0 45 -14.5 83.5t-42 67t-67 45t-89.5 16.5q-33 0 -62 -8.5t-52.5 -22t-41.5 -31t-30 -36.5h-2q4 50 23.5 96t51.5 83t76.5 63t99.5 37q6 2 11.5 2.5t11.5 1.5q16 2 31 2.5t27 0.5l-1 45q-14 0 -33.5 -1.5t-40.5 -6.5q-113 -21 -190 -92q-50 -45 -84.5 -120.5 t-34.5 -177.5q0 -71 19 -123t51.5 -86t74 -50.5t86.5 -16.5q55 0 96.5 20.5t69.5 53.5t42 73.5t14 81.5zM440 215q0 -38 -11.5 -71.5t-33.5 -59t-53 -40.5t-70 -15q-46 0 -80.5 17.5t-57.5 47.5t-34.5 70t-11.5 85q0 11 4 21.5t9 20.5q24 42 69 69t96 27q37 0 69 -11.5 t55.5 -33.5t36.5 -54t13 -73z" />
<glyph unicode="7" horiz-adv-x="530" d="M481 611v39h-410v-41h359v-2l-316 -607h48z" />
<glyph unicode="8" horiz-adv-x="530" d="M487 176q0 55 -35.5 99t-112.5 69v4q37 15 61 34t38 40t19 42t5 40q0 34 -13.5 63t-38.5 50t-60 33t-78 12q-44 0 -81 -13t-64 -35.5t-42 -53.5t-15 -68q0 -42 26 -81.5t91 -64.5v-4q-72 -27 -108 -72t-36 -105q0 -42 18 -74.5t48 -55.5t70.5 -35t85.5 -12q42 0 82 13 t71 37t50 59t19 79zM414 501q0 -57 -38 -93t-95 -51q-78 15 -120 49t-41 93q0 24 9.5 46t28.5 39.5t47 28t66 10.5q40 0 67 -11.5t44 -29.5t24.5 -39.5t7.5 -41.5zM438 167q0 -27 -11.5 -52.5t-34 -44.5t-54.5 -30.5t-74 -11.5q-41 0 -73 12.5t-54 32.5t-32.5 46.5 t-9.5 54.5q2 56 40 98t114 59q45 -10 80.5 -23.5t59.5 -33t36.5 -45.5t12.5 -62z" />
<glyph unicode="9" horiz-adv-x="530" d="M492 386q0 71 -17 123t-46 86t-67.5 50.5t-80.5 16.5q-53 0 -95.5 -20t-72 -52.5t-45.5 -74.5t-16 -86q0 -36 12.5 -72t38 -64t63 -45.5t88.5 -17.5q57 0 104 23t82 68l3 1q-10 -69 -33.5 -118t-55.5 -84q-33 -35 -72.5 -55.5t-84.5 -26.5q-55 -8 -84 -5v-45q40 -2 100 9 q38 7 80 27t75 49q24 21 46 50t39.5 68t28 87.5t10.5 107.5zM443 390q0 -10 -3 -17.5t-6 -12.5q-23 -37 -68 -62.5t-105 -25.5q-36 0 -65.5 12t-50.5 33.5t-32.5 50.5t-11.5 63q0 37 11.5 71.5t33.5 60.5t53.5 42t70.5 16q45 0 78 -18t54 -49.5t31 -73.5t10 -90z" />
<glyph unicode=":" horiz-adv-x="175" d="M140 399q0 20 -11.5 33.5t-30.5 13.5t-30.5 -13.5t-12.5 -33.5q0 -18 11.5 -32t30.5 -14q20 0 31.5 14t11.5 32zM139 34q0 20 -11.5 33.5t-30.5 13.5t-30.5 -13.5t-12.5 -33.5q0 -18 11.5 -32t30.5 -14q20 0 31.5 14t11.5 32z" />
<glyph unicode=";" horiz-adv-x="175" d="M147 399q0 20 -11.5 33.5t-30.5 13.5t-30.5 -13.5t-12.5 -33.5q0 -18 11.5 -32t30.5 -14q20 0 31.5 14t11.5 32zM143 96l-64 -10q-3 -23 -9.5 -53.5t-14 -60.5t-15 -56t-13.5 -42l39 5q6 10 16 35t21.5 56t22 64.5t17.5 61.5z" />
<glyph unicode="&#x3c;" horiz-adv-x="596" d="M525 0v47l-407 218v2l407 218v47l-454 -249v-34z" />
<glyph unicode="=" horiz-adv-x="596" d="M556 345v40h-516v-40h516zM556 155v40h-516v-40h516z" />
<glyph unicode="&#x3e;" horiz-adv-x="596" d="M525 249v34l-454 249v-47l407 -218v-2l-407 -218v-47z" />
<glyph unicode="?" horiz-adv-x="410" d="M356 539q0 27 -9.5 53.5t-29.5 47t-50.5 33.5t-72.5 13q-16 0 -34.5 -2.5t-37.5 -8t-37 -14t-33 -20.5l20 -35q21 17 52 26.5t61 9.5q61 0 89.5 -30.5t28.5 -75.5q0 -35 -18 -70t-62 -82q-42 -46 -60.5 -90.5t-13.5 -85.5l4 -31h45l-2 36q-2 35 13.5 72t56.5 82 q46 50 68 89.5t22 82.5zM219 34q0 20 -11.5 33.5t-30.5 13.5t-30.5 -13.5t-12.5 -33.5q0 -18 11.5 -32t30.5 -14q20 0 31.5 14t11.5 32z" />
<glyph unicode="@" horiz-adv-x="766" d="M540 12v1q32 0 65.5 18t60.5 49.5t44.5 75t17.5 94.5q0 65 -22 121.5t-63 98t-99 65.5t-130 24q-89 0 -159 -31t-118 -83t-73.5 -120t-25.5 -142q0 -71 25.5 -130.5t69.5 -102t102 -66t123 -23.5q51 0 97.5 10.5t88.5 33.5l-16 36q-32 -20 -75 -30.5t-92 -10.5 q-57 0 -107.5 21t-88 59.5t-59 91.5t-21.5 116q0 77 25.5 139t69 105.5t102 66.5t124.5 23q65 0 116 -21t86.5 -58t54 -87.5t18.5 -110.5q0 -41 -8.5 -71.5t-25.5 -53t-42 -39t-57 -29.5q-4 -2 -8 -1t-8 1q-3 15 -5 30.5t-2 31.5v153q0 25 -5 56t-21.5 58t-48 45.5 t-85.5 18.5q-17 0 -36 -3l1.5 -7.5t4.5 -27.5q6 1 13 1.5t14 0.5q42 0 66 -15.5t36 -36t15 -41.5t3 -33v-10q-149 2 -217.5 -41t-68.5 -115q0 -23 11 -48t35 -42q26 -20 61 -24h2q6 -1 12 -1.5t13 -0.5q29 0 53.5 7t44 18.5t33.5 25t22 25.5h2l16 -67zM482 147q0 -12 -6 -24 q-6 -14 -17.5 -29.5t-29 -28.5t-41 -21t-54.5 -8q-38 0 -65.5 22t-27.5 67q0 37 22 59.5t56.5 34.5t77.5 15.5t85 2.5v-90z" />
<glyph unicode="A" horiz-adv-x="640" d="M620 0l-270 674h-48l-272 -674l51 -10l93 247h300l95 -247zM458 278h-267l96 240q12 30 20.5 54t16.5 50h2q8 -25 15.5 -49t21.5 -58z" />
<glyph unicode="B" horiz-adv-x="548" d="M499 188q0 43 -16 73t-39 50.5t-48.5 31t-43.5 14.5v3q25 9 47 24t38 34.5t25 43t9 48.5q0 69 -42 111q-30 30 -75.5 44.5t-114.5 14.5q-42 0 -81 -4t-70 -11v-665q23 -2 55.5 -4t71.5 -2q82 0 140 16t93 51q23 23 37 54t14 73zM421 508q0 -27 -11 -51t-32 -42t-52 -28.5 t-71 -10.5h-118v255q13 3 36 5.5t63 2.5q37 0 71 -6t59 -21t40 -40t15 -64zM448 186q0 -45 -19 -74t-49.5 -46.5t-69 -24t-78.5 -6.5q-30 0 -54 1t-41 5v295h101q43 0 81 -8.5t66.5 -26.5t45.5 -46.5t17 -68.5z" />
<glyph unicode="C" horiz-adv-x="640" d="M605 27l-15 39q-35 -17 -81.5 -26.5t-96.5 -9.5q-80 0 -140 23.5t-101 64t-61.5 95.5t-20.5 117q0 68 21.5 126t64 100t105 65.5t144.5 23.5q48 0 90.5 -9.5t72.5 -24.5l16 41q-17 8 -61 21t-121 13q-95 0 -166.5 -30.5t-119.5 -80t-72.5 -112.5t-24.5 -129 q0 -88 30 -153t79.5 -108t114 -64t132.5 -21q73 0 127.5 12.5t83.5 26.5z" />
<glyph unicode="D" horiz-adv-x="724" d="M686 352q0 66 -19.5 120t-61.5 100q-48 52 -127.5 80t-187.5 28q-57 0 -107 -4.5t-95 -10.5v-665q44 -4 86.5 -5t88.5 -1q114 0 197.5 30t132.5 82q53 57 73 122.5t20 123.5zM636 351q0 -66 -21.5 -123.5t-65.5 -100t-113 -67.5t-165 -25q-41 0 -75.5 1t-58.5 5v585 q26 5 63 9t86 4q92 0 158.5 -22t109 -60.5t62.5 -91t20 -114.5z" />
<glyph unicode="E" horiz-adv-x="511" d="M491 0v41h-354v294h300v41h-300v257h297v41h-346v-674h403z" />
<glyph unicode="F" horiz-adv-x="510" d="M477 327v41h-340v265h317v41h-366v-674h49v327h340z" />
<glyph unicode="G" horiz-adv-x="694" d="M631 16v317h-223v-40h174v-231q-23 -12 -64 -20t-104 -8q-77 0 -137.5 22.5t-102 63t-63.5 95.5t-22 121q0 63 21.5 118t64.5 96.5t106 65.5t146 24q55 0 95 -9.5t71 -23.5l16 40q-21 10 -69 22t-111 12q-102 0 -175.5 -31.5t-121.5 -81t-71 -110.5t-23 -120 q0 -77 26.5 -142t71.5 -107q57 -53 124 -74.5t145 -21.5q58 0 104 8t78 18q14 4 25 0.5t19 -3.5z" />
<glyph unicode="H" horiz-adv-x="696" d="M608 0v674h-49v-295h-422v295h-49v-674h49v338h422v-338h49z" />
<glyph unicode="I" horiz-adv-x="225" d="M137 0v674h-49v-674h49z" />
<glyph unicode="J" horiz-adv-x="378" d="M270 220v454h-49v-441q0 -60 -10 -99t-28.5 -62t-46 -32.5t-62.5 -9.5q-27 0 -48.5 5t-35.5 12l-12 -40q14 -7 41.5 -13t54.5 -6q36 0 71 10t63 35.5t45 70.5t17 116z" />
<glyph unicode="K" horiz-adv-x="540" d="M563 0l-314 387l284 287l-47 10l-284 -287q-14 -15 -30 -31.5t-31 -36.5h-4v345h-49v-674h49v278l78 78l297 -376z" />
<glyph unicode="L" horiz-adv-x="490" d="M471 0v109h-39v-68h-295v633h-49v-674h383z" />
<glyph unicode="M" horiz-adv-x="845" d="M780 0l-48 674h-58l-170 -403q-29 -67 -49 -119t-34 -95h-2q-30 91 -80 215l-162 402h-56l-54 -674l48 -10l24 318q3 42 5.5 85t5 83.5t4 77.5t2.5 66h2q17 -54 40 -116t55 -141l146 -363h37l156 368q32 77 56.5 137.5t44.5 114.5h2q0 -27 1.5 -63.5t4 -77t5.5 -82.5 t5 -79l21 -328z" />
<glyph unicode="N" horiz-adv-x="706" d="M618 0v674h-48v-348q0 -78 1.5 -140.5t6.5 -121.5l-2 -2q-26 45 -58.5 89.5t-78.5 107.5l-305 415h-46v-674h48v360q0 75 -1 133t-5 115l3 2q27 -45 64.5 -97.5t80.5 -111.5l295 -401h45z" />
<glyph unicode="O" horiz-adv-x="753" d="M715 346q0 73 -24.5 135t-69 107.5t-106 71.5t-135.5 26q-72 0 -134.5 -26t-108.5 -73.5t-72.5 -113.5t-26.5 -145q0 -74 25.5 -136.5t70.5 -107.5t106.5 -70.5t133.5 -25.5q66 0 127.5 23t109 68.5t76 112.5t28.5 154zM663 342q0 -67 -20 -124.5t-57.5 -99.5t-91.5 -66 t-121 -24q-66 0 -119 25t-89.5 66.5t-56.5 96t-20 114.5q0 62 18 119.5t54.5 101t90.5 69.5t126 26t125.5 -27t89 -70.5t53.5 -97.5t18 -109zM418 342q0 20 -11.5 33.5t-30.5 13.5t-30.5 -13.5t-12.5 -33.5q0 -18 11.5 -32t30.5 -14q20 0 31.5 14t11.5 32z" />
<glyph unicode="P" horiz-adv-x="548" d="M497 489q0 42 -14 74.5t-40 56.5q-30 29 -78.5 44.5t-116.5 15.5q-47 0 -87.5 -4t-72.5 -9v-667h49v287q21 -7 45.5 -8.5t50.5 -1.5q67 0 122 18.5t90 54.5q52 52 52 139zM448 483q0 -78 -54 -121.5t-155 -43.5q-29 0 -55 2.5t-47 9.5v300q15 3 43.5 6t66.5 3 q41 0 77.5 -8t64 -26.5t43.5 -48.5t16 -73z" />
<glyph unicode="Q" horiz-adv-x="753" d="M826 -65l-42 17q-6 -26 -19.5 -55.5t-39.5 -55.5q-23 -22 -44.5 -32.5t-41 -12t-36.5 5.5t-30 20q-29 29 -25.5 65.5t30.5 89.5q15 29 22 54t8 47q49 45 78 112t29 156q0 73 -24.5 135t-69 107.5t-106 71.5t-135.5 26q-72 0 -134.5 -26t-108.5 -73.5t-72.5 -113.5 t-26.5 -145q0 -74 25.5 -136.5t70.5 -107.5t106.5 -70.5t133.5 -25.5q97 0 180 49q-8 -24 -24 -55q-31 -63 -31 -108q0 -46 38 -84q21 -21 47 -30.5t54.5 -6.5t58.5 18t59 44q28 27 45 58t25 62zM663 342q0 -62 -16.5 -115t-48.5 -94q-8 16 -20 28q-18 18 -42.5 28t-51.5 9 t-56 -14t-56 -41q-22 -22 -39.5 -52.5t-25.5 -55.5q-51 12 -92 40t-69 67.5t-43 87.5t-15 100q0 62 18 119.5t54.5 101t90.5 69.5t126 26t125.5 -27t89 -70.5t53.5 -97.5t18 -109zM561 94q-36 -32 -83.5 -49t-104.5 -17h-11q-5 0 -10 1q7 20 20.5 45.5t34.5 46.5 q35 34 71.5 34.5t60.5 -24.5q17 -18 22 -37z" />
<glyph unicode="R" horiz-adv-x="549" d="M520 0q-12 22 -24 65t-31 123q-12 51 -38.5 87t-68.5 50v2q62 19 100.5 63.5t38.5 111.5q0 35 -13 66.5t-35 51.5q-31 30 -78 45t-119 15q-39 0 -84 -4t-80 -11v-665h49v309h128q69 0 105 -37t53 -110q7 -32 13.5 -61.5t12 -54t10.5 -42t9 -24.5zM448 494 q0 -66 -48.5 -105.5t-132.5 -39.5h-130v280q14 4 43 7.5t71 3.5q40 0 76 -7.5t63 -25t42.5 -45.5t15.5 -68z" />
<glyph unicode="S" horiz-adv-x="505" d="M455 175q0 41 -12 71t-36 53t-59.5 40.5t-81.5 32.5q-82 26 -117 60t-35 88q0 20 8 42t26.5 41t49 31t75.5 12q50 0 84.5 -12.5t48.5 -22.5l19 41q-20 13 -58 23.5t-92 10.5q-47 0 -85 -13t-66 -36.5t-43 -55t-15 -68.5q0 -66 44 -110t145 -76q42 -14 71 -29t47 -34 t26 -42t8 -52q0 -63 -46.5 -102t-128.5 -39q-49 0 -91.5 13.5t-75.5 36.5l-19 -41q15 -11 36 -20.5t45 -16t49.5 -10t49.5 -3.5q60 0 103.5 16t71.5 42.5t41 60t13 68.5z" />
<glyph unicode="T" horiz-adv-x="510" d="M531 633v41h-551v-41h251v-633h49v633h251z" />
<glyph unicode="U" horiz-adv-x="691" d="M603 289v385h-49v-389q0 -67 -16 -115t-44.5 -79.5t-67.5 -46.5t-86 -15q-42 0 -79 14.5t-64.5 45t-43.5 79t-16 117.5v389h-49v-390q0 -83 20.5 -139.5t55 -91t79.5 -50t94 -15.5q54 0 102 16.5t84.5 52.5t58 93.5t21.5 138.5z" />
<glyph unicode="V" horiz-adv-x="545" d="M566 674l-53 10l-150 -382q-29 -75 -54.5 -136.5t-42.5 -115.5h-2q-16 53 -38 114t-49 139l-133 381l-52 -10l246 -674h48z" />
<glyph unicode="W" horiz-adv-x="881" d="M883 674l-51 10l-124 -398q-21 -67 -38.5 -122t-29.5 -103h-2q-8 45 -24.5 105t-33.5 122l-109 386h-48l-124 -387q-21 -66 -40 -125t-28 -101h-2q-11 43 -27.5 102t-33.5 124l-107 397l-50 -10l191 -674h48l126 388q25 79 42 132t26 97h2q4 -23 9 -47t12 -51.5t16 -60 t20 -72.5l109 -386h48z" />
<glyph unicode="X" horiz-adv-x="600" d="M568 0l-242 344l242 330h-59l-128 -183q-26 -38 -45 -64.5t-36 -52.5h-2q-16 24 -34.5 52t-43.5 66l-120 182h-58l226 -333l-236 -341h58l105 158q19 28 33.5 50t26 39t20.5 31.5t18 28.5h2q18 -27 41.5 -60.5t61.5 -87.5l112 -159h58z" />
<glyph unicode="Y" horiz-adv-x="541" d="M548 674l-56 10l-131 -220q-24 -41 -45.5 -75t-38.5 -66h-2q-19 35 -39 67t-43 74l-125 220l-56 -10l236 -386v-288h49v286z" />
<glyph unicode="Z" horiz-adv-x="605" d="M580 41h-181h-298v3l462 596v34h-488l-10 -41h433v-3l-461 -597v-33h533z" />
<glyph unicode="[" horiz-adv-x="270" d="M275 -112v38h-140v722h140v38h-185v-798h185z" />
<glyph unicode="\" horiz-adv-x="370" d="M394 -40l-354 726h-50l354 -726h50z" />
<glyph unicode="]" horiz-adv-x="270" d="M180 -112v798h-185v-38h140v-722h-140v-38h185z" />
<glyph unicode="^" horiz-adv-x="596" d="M526 196l-205 454h-46l-205 -454h47l180 409h2l180 -409h47z" />
<glyph unicode="_" horiz-adv-x="500" d="M500 -273v50h-500v-50h500z" />
<glyph unicode="`" d="M194 542l-91 140h-74l127 -140h38z" />
<glyph unicode="a" horiz-adv-x="496" d="M434 0q-5 29 -11.5 58t-6.5 58v174q0 28 -5.5 63.5t-24 66t-54.5 51.5t-97 21q-20 0 -41 -3l1.5 -8.5t4.5 -31.5q8 1 15.5 1.5t15.5 0.5q48 0 75 -17t40.5 -40.5t17 -48t3.5 -37.5v-11q-168 2 -246.5 -46.5t-78.5 -130.5q0 -27 12.5 -55t40.5 -48q14 -10 31 -17t38 -10h2 q7 -1 14 -1.5t15 -0.5q33 0 61 8t50 21t38 28t25 29h2l18 -84zM367 154q0 -13 -6 -28q-7 -16 -20 -33.5t-33 -31.5t-47 -23.5t-62 -9.5q-42 0 -73.5 25t-31.5 76q0 42 25 67.5t64 39t87.5 17.5t96.5 3v-102z" />
<glyph unicode="b" horiz-adv-x="613" d="M570 247q0 50 -16.5 94.5t-46.5 78t-72.5 53t-95.5 19.5q-75 0 -124.5 -31.5t-75.5 -79.5h-2v335h-49v-600q0 -29 -1 -58t-3 -58h45l3 93h2q35 -57 84.5 -81t112.5 -24q45 0 87.5 16.5t76.5 49t54.5 81t20.5 112.5zM521 245q0 -49 -14 -89t-39.5 -68.5t-62 -44 t-82.5 -15.5q-35 0 -64.5 10.5t-53 27.5t-40 40t-23.5 48q-5 20 -5 37v83q0 14 2.5 24.5t5.5 19.5q10 33 29 58.5t43.5 42t53 25t58.5 8.5q45 0 80.5 -16.5t60.5 -45t38 -66t13 -79.5z" />
<glyph unicode="c" horiz-adv-x="498" d="M462 458q-15 11 -53.5 22.5t-92.5 11.5q-58 0 -108 -18t-86.5 -51.5t-57.5 -81.5t-21 -108q0 -52 18 -97t51.5 -78t80.5 -51.5t104 -18.5q62 0 103.5 13.5t57.5 21.5l-14 39q-21 -9 -54.5 -20.5t-85.5 -11.5q-46 0 -84.5 15t-67 42.5t-44.5 66t-16 85.5q0 44 14.5 82.5 t42 67t68.5 45t95 16.5q47 0 79 -10t53 -22z" />
<glyph unicode="d" horiz-adv-x="578" d="M532 253q0 54 -11.5 102t-33.5 92q-17 35 -40.5 67t-52.5 61q-13 14 -27 26t-29 23l-35 26q-32 24 -70 43.5t-76 34.5l-20 -40q33 -12 65.5 -27.5t56.5 -32.5l37 -25q57 -38 95 -83.5t66 -94.5l-2 -3q-43 43 -84 56.5t-84 13.5q-45 0 -88.5 -18t-78 -51.5t-55.5 -81.5 t-21 -108q0 -53 17.5 -97.5t49 -77.5t76 -51.5t97.5 -18.5q45 0 89 15t79.5 47t57.5 82t22 121zM481 246q0 -53 -15.5 -94t-42.5 -68.5t-63 -41.5t-78 -14q-36 0 -70 14t-60.5 40t-43 64.5t-16.5 88.5q0 37 11.5 75.5t35.5 70t61 51.5t87 20q52 0 87 -18t58 -40 q27 -26 38 -59t11 -89z" />
<glyph unicode="e" horiz-adv-x="537" d="M492 270q0 24 -7.5 61.5t-30 73.5t-63.5 61.5t-108 25.5q-51 0 -95 -18.5t-76 -52.5t-50.5 -83t-18.5 -110q0 -52 17.5 -96t49.5 -76t77.5 -50t101.5 -18q18 0 34.5 1t30.5 3l-4 41q-24 -3 -56 -3q-43 0 -80 13t-64.5 39.5t-43 65.5t-15.5 92h399q2 6 2 12v18zM441 279 h-347q4 27 16 57.5t33.5 56t54.5 42.5t79 17q54 0 86.5 -20t50 -48t22.5 -57t5 -48z" />
<glyph unicode="f" horiz-adv-x="285" d="M339 710q-16 10 -49 16q-7 1 -14.5 1.5t-15.5 0.5q-68 0 -114 -43q-31 -29 -44.5 -74.5t-13.5 -107.5v-23h-73l-10 -39h83v-526q0 -21 -4.5 -42t-10.5 -37.5t-10.5 -26.5l-4.5 -10l49 -10l4.5 10.5t10.5 28.5t10.5 41t4.5 47v525h131l10 39h-141v24q0 36 5 69.5t18 58.5 t36 40t60 15q24 0 40 -4.5t27 -10.5z" />
<glyph unicode="g" horiz-adv-x="378" d="M357 441v43l-180 -2h-2q-31 0 -61 -11.5t-53.5 -33.5t-38 -53.5t-14.5 -70.5q0 -37 14 -67.5t39 -53.5q-1 -4 -4 -16.5t-5.5 -27.5t-4 -30t0.5 -22q5 -25 14.5 -37t25 -18t38 -10.5t55.5 -14.5q57 -18 85 -41.5t28 -65.5q0 -37 -29 -65t-92 -28q-36 0 -67 11t-53 25 l-18 -42q27 -16 61.5 -25.5t72.5 -9.5q41 0 73 10.5t54.5 29t34 44t11.5 54.5q0 54 -32.5 85.5t-98.5 54.5q-27 9 -49 13.5t-37.5 10t-24.5 15.5t-9 30q0 1 1.5 10t3 21t0.5 17q34 -18 79 -18q28 0 57.5 9.5t54 30t40.5 52t16 75.5q1 39 -16 73.5t-48 57.5zM301 317 q0 -33 -10.5 -57t-28 -40t-40 -24t-46.5 -8q-22 0 -44 8t-40 24t-29.5 39.5t-11.5 55.5q0 24 7.5 47.5t23.5 42t39 30t55 11.5q33 0 56.5 -12.5t39 -31.5t22.5 -41.5t7 -43.5z" />
<glyph unicode="h" horiz-adv-x="591" d="M538 0q-1 2 -7.5 17t-14.5 39t-8 43v175q0 49 -10.5 84.5t-27.5 60t-38 39t-42 22t-39.5 10t-29.5 2.5q-29 0 -57 -8.5t-51 -22.5q-25 -14 -44 -34.5t-30 -43.5h-2v333h-49v-716h49v285q0 31 8 51q9 22 24.5 42.5t37 36t47 25t54.5 9.5q38 0 65.5 -12.5t45.5 -33.5 q21 -25 30.5 -59t9.5 -72v-173q0 -24 4.5 -45.5t10.5 -38t10.5 -26l4.5 -9.5z" />
<glyph unicode="i" horiz-adv-x="225" d="M153 632q0 17 -11.5 30t-28.5 13t-29 -13t-12 -30t11 -30t29 -13q19 0 30 13t11 30zM137 0v480h-49v-480h49z" />
<glyph unicode="j" horiz-adv-x="230" d="M158 632q0 17 -11 30t-28 13q-18 0 -30 -13t-12 -30q0 -16 10.5 -29.5t29.5 -13.5q20 0 30.5 13.5t10.5 29.5zM142 35v445h-49v-409q0 -51 -2.5 -85t-7 -56.5t-12.5 -37t-18 -25.5q-18 -19 -46.5 -28.5t-64.5 -10.5l5 -40q13 0 31 2.5t37.5 9t38.5 16.5t33 25 q34 36 44.5 83.5t10.5 110.5z" />
<glyph unicode="k" horiz-adv-x="458" d="M472 0l-245 282l214 198h-62l-187 -176q-13 -12 -28 -28t-25 -27h-2v467h-49v-716h49v201l55 53l229 -274z" />
<glyph unicode="l" horiz-adv-x="255" d="M268 34q-18 0 -45.5 10t-45.5 29q-11 11 -18.5 25.5t-12 37t-7 56.5t-2.5 85v439h-49v-475q0 -63 7.5 -113.5t41.5 -86.5q14 -15 32.5 -25t36.5 -15.5t33 -8t24 -2.5z" />
<glyph unicode="m" horiz-adv-x="897" d="M845 0q-1 2 -7.5 17t-14.5 39t-8 43v169q0 75 -20.5 119.5t-48.5 67.5t-57 30t-46 7q-45 0 -75 -12t-56 -35q-14 -12 -26.5 -28.5t-23.5 -38.5h-2q-8 23 -22 43.5t-33 36.5t-43.5 25t-52.5 9q-66 0 -106.5 -30t-66.5 -75h-2l-4 93h-46q2 -29 3 -58t1 -58v-364h49v292 q0 13 2.5 25t6.5 22q8 20 22 40t33 35.5t43 25.5t51 10q61 0 96.5 -43.5t35.5 -114.5v-292h49v306q0 14 3 25.5t7 21.5q8 18 21.5 35.5t31.5 31t40 22t47 8.5q69 0 105 -49q17 -23 26 -56t9 -78v-17t0.5 -42.5t0.5 -54.5v-54q0 -33 7.5 -61t14 -42t7.5 -16z" />
<glyph unicode="n" horiz-adv-x="591" d="M538 0q-1 2 -7.5 17t-14.5 39t-8 43v174q0 50 -11 85.5t-28 60t-38 39t-42 22t-39 10t-29 2.5q-33 0 -62 -8.5t-52.5 -23.5t-41.5 -34.5t-29 -41.5h-2l-4 96h-46q2 -29 3 -58t1 -58v-364h49v293q0 11 2.5 23t5.5 20q8 23 24 43.5t37 36.5t47 25t55 9q41 0 70 -14.5 t47 -39t26 -56.5t8 -67v-174q0 -33 8 -61.5t14.5 -42t7.5 -15.5z" />
<glyph unicode="o" horiz-adv-x="591" d="M548 246q0 51 -17.5 96t-50 78.5t-79 52.5t-104.5 19q-50 0 -96 -17.5t-81 -51t-56 -81t-21 -107.5q0 -53 18.5 -98.5t51.5 -78.5t78.5 -51.5t99.5 -18.5q44 0 89.5 15t83 46.5t61 80t23.5 116.5zM498 243q0 -52 -17.5 -92t-46 -67.5t-66 -41.5t-77.5 -14q-39 0 -75 14 t-63.5 41t-44.5 66t-17 89q0 42 13 80.5t38.5 68.5t64 47.5t89.5 17.5q53 0 91 -20t63 -50.5t36.5 -67.5t11.5 -71zM333 242q0 18 -10 29.5t-27 11.5t-27 -11.5t-11 -29.5q0 -16 10 -28t27 -12t27.5 12t10.5 28z" />
<glyph unicode="p" horiz-adv-x="613" d="M570 250q0 49 -16.5 93t-46.5 77t-72.5 52.5t-95.5 19.5q-75 0 -125 -31.5t-77 -80.5h-2l-4 100h-47q2 -39 3 -77.5t1 -77.5v-28t0.5 -73.5t0.5 -102.5v-113v-108q0 -24 -8 -48t-15 -37t-8 -15l49 -10l4.5 9.5t10.5 25.5t10.5 35.5t4.5 39.5v186h2q30 -51 80.5 -74.5 t107.5 -23.5q49 0 93 17.5t77.5 50.5t53 82t19.5 112zM521 248q0 -50 -14 -91t-39.5 -69.5t-62 -44t-82.5 -15.5q-34 0 -63.5 10.5t-53 27.5t-40.5 40t-24 49q-5 20 -5 38v85q0 10 3 21t6 21q10 33 29 57.5t43 41t52.5 25t58.5 8.5q45 0 80.5 -16.5t60.5 -44.5t38 -65 t13 -78z" />
<glyph unicode="q" horiz-adv-x="600" d="M518 480h-45l-3 -90h-2q-8 17 -22.5 35t-37 33t-52 24.5t-67.5 9.5q-41 0 -84.5 -14.5t-79.5 -46t-59 -81.5t-23 -121q0 -46 15 -87t41 -73q31 -37 75.5 -59t98.5 -22q37 0 67.5 9t54.5 23.5t41 33t27 38.5h2v-292h49v564v3v17q0 5 0.5 9t0.5 9v1v9q0 33 3 68zM465 191 q0 -11 -3 -24t-8 -24q-20 -51 -66 -83t-105 -32q-38 0 -68.5 10.5t-53.5 29.5q-35 30 -52 75t-17 93q0 49 14.5 89t40.5 68.5t61.5 43.5t78.5 15q34 0 62 -9.5t50 -25.5t37 -37t23 -45q6 -21 6 -47v-97z" />
<glyph unicode="r" horiz-adv-x="320" d="M304 444v45q-11 3 -23 3q-54 0 -91.5 -32.5t-55.5 -83.5h-3l-2 104h-45q2 -39 3 -77.5t1 -77.5v-325h49v260q0 24 5 47q12 63 47.5 101t86.5 38h14q7 0 14 -2z" />
<glyph unicode="s" horiz-adv-x="408" d="M357 126q0 54 -32.5 85.5t-98.5 54.5q-27 9 -47.5 18t-35 20t-22 26t-7.5 35q0 35 25.5 60.5t75.5 25.5q42 0 68 -11.5t38 -19.5l19 40q-21 14 -51 23t-65 9q-39 0 -68.5 -11t-49.5 -30t-30 -43t-10 -49q0 -88 130 -130q57 -18 85 -41.5t28 -65.5q0 -37 -29 -65t-92 -28 q-36 0 -67 11t-53 25l-18 -42q27 -16 61.5 -25.5t72.5 -9.5q41 0 73 10.5t54.5 29t34 44t11.5 54.5z" />
<glyph unicode="t" horiz-adv-x="339" d="M309 480h-152v106l-49 -15v-91h-88l-10 -39h62h36v-301q0 -34 7 -65t25 -51q30 -36 89 -36q24 0 42.5 4t31.5 9l-6 38q-11 -4 -26 -6.5t-37 -2.5q-44 0 -60.5 30t-16.5 74v307h142z" />
<glyph unicode="u" horiz-adv-x="586" d="M522 0q-11 26 -17.5 56.5t-6.5 59.5v364h-49v-291q0 -16 -3.5 -30.5t-8.5 -25.5q-19 -42 -62 -72t-98 -30q-40 0 -67.5 14t-45 39t-25 60t-7.5 77v259h-49v-269q0 -77 20.5 -121t49.5 -67t59.5 -29t51.5 -6q36 0 66 9.5t53 25t40 35t28 39.5h2q0 -1 1 -9.5t3 -22t4 -24.5 q4 -16 9.5 -33.5l5.5 -17.5z" />
<glyph unicode="v" horiz-adv-x="496" d="M487 480h-52l-128 -296q-17 -38 -31.5 -71t-26.5 -65h-2q-11 32 -24.5 63.5t-30.5 72.5l-125 296h-53l210 -480h44z" />
<glyph unicode="w" horiz-adv-x="784" d="M766 480h-50l-96 -280q-15 -44 -27 -80t-20 -68h-2q-10 31 -22 67.5t-29 81.5l-102 279h-49l-107 -280q-17 -44 -30 -80t-23 -68h-2q-9 33 -19.5 68.5t-24.5 79.5l-88 280h-51l158 -480h44l105 264q17 45 32.5 87.5t27.5 84.5h2q11 -41 25.5 -83t31.5 -88l98 -265h44z " />
<glyph unicode="x" horiz-adv-x="470" d="M451 0l-193 247l184 233h-55l-92 -118q-17 -21 -32 -40.5t-30 -40.5h-2q-15 21 -29.5 40t-31.5 41l-92 118h-56l183 -234l-195 -246h57l94 122q20 26 36 47t31 44h2q17 -22 33 -44.5t35 -46.5l96 -122h57z" />
<glyph unicode="y" horiz-adv-x="480" d="M473 480h-53l-134 -317q-12 -29 -22 -55.5t-18 -49.5h-2q-7 23 -17.5 50.5t-21.5 50.5l-143 321h-53l199 -446q7 -15 7 -22q0 -6 -6 -19q-23 -51 -48 -82t-44 -47q-23 -20 -46.5 -31t-41.5 -16l13 -41q8 2 32.5 11t55.5 32q24 17 44.5 40.5t41 56t41.5 76t46 100.5z" />
<glyph unicode="z" horiz-adv-x="440" d="M428 0v40h-348v2q15 17 29 33t28 33l287 338l1 34h-388v-40h328v-2q-17 -18 -32 -35t-30 -35l-287 -338v-30h412z" />
<glyph unicode="{" horiz-adv-x="270" d="M255 -112v38h-19q-101 0 -101 102q0 20 3 40t7 40t7 39.5t3 39.5q0 35 -17.5 63.5t-46.5 37.5v2q29 9 46.5 36t17.5 63q0 20 -3 39.5t-7 39.5t-7 39.5t-3 39.5q0 49 22 75t79 26h19v38h-13q-66 0 -109 -32t-43 -101q0 -21 3 -42t8 -42q4 -21 7 -42t3 -43q0 -15 -3 -29.5 t-12.5 -25.5t-27 -17.5t-46.5 -5.5v-36q29 1 46.5 -6.5t27 -19.5t12.5 -26t3 -26q0 -20 -2.5 -40t-7.5 -40q-4 -20 -7.5 -40t-3.5 -40q0 -40 11.5 -67.5t32 -44.5t48.5 -24.5t60 -7.5h13z" />
<glyph unicode="|" horiz-adv-x="219" d="M131 -250v1000h-43v-1000h43z" />
<glyph unicode="}" horiz-adv-x="270" d="M248 270v36q-29 -1 -46.5 5.5t-27 17.5t-12.5 25.5t-3 29.5q0 22 3 43t8 42q4 21 7 42t3 42q0 69 -43 101t-109 32h-13v-38h19q57 0 79 -26t22 -75q0 -20 -3 -39.5t-7 -39.5t-7 -39.5t-3 -39.5q0 -36 17.5 -63t46.5 -36v-2q-29 -9 -46.5 -37.5t-17.5 -63.5q0 -20 3 -39.5 t7 -39.5t7 -40t3 -40q0 -102 -101 -102h-19v-38h13q32 0 60 7.5t48.5 24.5t32 44.5t11.5 67.5q0 20 -3 40t-7 40q-5 20 -8 40t-3 40q0 12 3 26t12.5 26t27 19.5t46.5 6.5z" />
<glyph unicode="~" horiz-adv-x="596" d="M554 351h-38q0 -44 -16.5 -67t-50.5 -23q-36 0 -71.5 14t-76.5 31q-31 13 -52.5 22t-37.5 14.5t-29.5 7.5t-28.5 2q-23 0 -43.5 -9t-36.5 -26.5t-24.5 -42.5t-6.5 -56h39q0 45 18.5 67.5t53.5 22.5q34 0 67 -14.5t72 -31.5q32 -14 55 -22.5t41 -13.5t31.5 -7t26.5 -2 q20 0 40 7t36 23t25 41.5t7 62.5z" />
<glyph unicode="&#xa1;" horiz-adv-x="215" d="M150 433q0 20 -11.5 33.5t-30.5 13.5t-30.5 -13.5t-12.5 -33.5q0 -18 11.5 -32t30.5 -14q20 0 31.5 14t11.5 32zM138 -200l-10 488h-41l-10 -488h61z" />
<glyph unicode="&#xa2;" horiz-adv-x="530" d="M461 542q-17 10 -52 21t-83 11v108h-42v-108q-48 -6 -89 -26t-71 -52t-47 -76t-17 -97q0 -51 16.5 -92.5t42.5 -69.5q30 -32 68 -50.5t97 -23.5v-107h42v108q24 1 45.5 5.5t38.5 10t29.5 11t18.5 9.5l-14 36q-19 -10 -53 -21.5t-89 -11.5q-41 0 -76.5 14t-61.5 40.5 t-41.5 63.5t-15.5 84q0 45 15.5 82.5t42.5 65t64.5 43t81.5 15.5q51 0 82.5 -11t48.5 -22z" />
<glyph unicode="&#xa3;" horiz-adv-x="530" d="M488 0v42h-342v2q30 24 52 55.5t32 75.5q8 33 6 66.5t-5 67.5h157v39h-162q-5 26 -8.5 55t-3.5 67q0 70 31.5 110.5t98.5 40.5q38 0 63 -7.5t39 -15.5l16 38q-17 10 -44 18t-69 8q-40 0 -73.5 -14t-57.5 -39.5t-37.5 -60.5t-13.5 -77q0 -33 4 -64.5t9 -58.5h-109v-39h113 q4 -27 5 -46.5t1 -39.5q0 -57 -26.5 -105.5t-94.5 -86.5v-31h419z" />
<glyph unicode="&#xa5;" horiz-adv-x="530" d="M503 650h-52l-147 -243q-13 -21 -23.5 -40.5t-16.5 -36.5h-4q-9 20 -18 35.5t-22 38.5l-140 246h-53l188 -320h-146v-37h165v-76h-165v-37h165v-180h47v180h165v37h-165v76h165v37h-144z" />
<glyph unicode="&#xa6;" horiz-adv-x="219" d="M131 325v350h-43v-350h43zM131 -175v350h-43v-350h43z" />
<glyph unicode="&#xa7;" horiz-adv-x="530" d="M451 298q0 30 -11 52.5t-31 39.5t-47.5 29.5t-60.5 23.5q-32 10 -58.5 20t-45.5 22t-29.5 28.5t-10.5 40.5q0 19 9.5 36t25 29t36.5 19t45 7q42 0 73.5 -12t48.5 -25l21 36q-20 14 -55 25.5t-81 11.5q-36 0 -67 -10t-53.5 -28t-35 -42.5t-12.5 -54.5q0 -23 9.5 -45 t25.5 -33q-38 -29 -52.5 -59t-14.5 -55q0 -57 41.5 -89t122.5 -59q42 -14 68.5 -27t42.5 -27.5t22 -30.5t6 -37q0 -48 -36.5 -75t-93.5 -27q-48 0 -79 13.5t-47 27.5l-22 -36q23 -19 59.5 -30.5t85.5 -11.5q37 0 69.5 10t56.5 28.5t37.5 45.5t13.5 61q0 29 -11.5 52.5 t-23.5 34.5q28 25 43.5 54t15.5 67zM406 291q0 -53 -41 -91q-17 11 -41.5 21.5t-71.5 26.5q-39 13 -64 26.5t-39.5 27t-19.5 27.5t-5 28q0 24 10.5 46.5t39.5 45.5q26 -16 58.5 -27.5t62.5 -21.5q65 -21 88 -48.5t23 -60.5z" />
<glyph unicode="&#xa8;" d="M278 605q0 17 -10.5 29t-27.5 12t-28 -12.5t-11 -28.5t10 -28.5t28 -12.5q19 0 29 12.5t10 28.5zM99 605q0 17 -10.5 29t-27.5 12t-28 -12.5t-11 -28.5t10 -28.5t28 -12.5q19 0 29 12.5t10 28.5z" />
<glyph unicode="&#xa9;" horiz-adv-x="677" d="M637 340q0 64 -23 120t-62.5 98t-94 66t-117.5 24t-118 -24t-95.5 -66t-63.5 -98t-23 -120q0 -65 23 -121.5t63.5 -98.5t95.5 -66t118 -24t117.5 24t94 66t62.5 98.5t23 121.5zM598 340q0 -60 -20 -111t-54.5 -88t-81.5 -58t-101 -21q-56 0 -103.5 21t-82 58t-54.5 87 t-20 108q0 60 20 111t54.5 88.5t82 59t103.5 21.5q54 0 101 -21t81.5 -58.5t54.5 -88t20 -108.5zM480 185l-10 29q-18 -13 -45 -20.5t-58 -7.5q-38 0 -66.5 12t-47.5 32.5t-28 48t-9 58.5t9 58t27 47.5t46 32.5t67 12q38 0 63 -9t36 -16l10 31q-11 9 -40 18t-70 9 q-38 0 -72 -13t-60 -37.5t-41.5 -59t-15.5 -76.5q0 -38 12.5 -71t35.5 -57.5t57 -38.5t77 -14q31 0 64 6.5t59 25.5z" />
<glyph unicode="&#xaa;" horiz-adv-x="350" d="M300 267q-6 42 -6 79v95q0 25 -3.5 52t-16 49t-36.5 36t-65 14q-23 0 -53 -7.5t-56 -27.5l13 -30q20 16 42 22t45 6q30 0 47.5 -10.5t26.5 -23.5t11.5 -25t2.5 -16v-12q-56 3 -96.5 -5t-66.5 -23.5t-39 -37t-13 -45.5q0 -18 6 -35.5t19 -30.5t33 -21t48 -8q21 0 38 5.5 t31 14t24.5 18t16.5 18.5h2l5 -51h40zM252 371q0 -5 -3.5 -13t-11.5 -18q-12 -15 -33.5 -28.5t-52.5 -13.5q-29 0 -49.5 15t-20.5 44q0 25 15 40.5t39 24t54.5 11t62.5 1.5v-63z" />
<glyph unicode="&#xab;" horiz-adv-x="410" d="M389 68l-157 184l156 184h-52l-156 -184l157 -184h52zM239 68l-157 184l156 184h-52l-156 -184l157 -184h52z" />
<glyph unicode="&#xac;" horiz-adv-x="596" d="M556 131v254h-516v-40h472v-214h44z" />
<glyph unicode="&#xad;" d="M270 261v43h-240v-43h240z" />
<glyph unicode="&#xae;" horiz-adv-x="510" d="M476 458q0 47 -17 88t-47 71t-70 47.5t-86 17.5t-86 -17.5t-70 -47.5t-47.5 -71t-17.5 -88q0 -48 17.5 -89.5t47.5 -71.5t70 -47.5t86 -17.5t86 17.5t70 47.5t47 71.5t17 89.5zM441 457q0 -41 -14.5 -77t-39 -62.5t-58 -42t-71.5 -15.5q-39 0 -73 15.5t-59 42.5t-39.5 63 t-14.5 77q0 40 14.5 76t39.5 62.5t58.5 42t72.5 15.5t72.5 -15.5t58 -42t39 -62.5t14.5 -77zM353 327q-4 6 -8 19.5t-9 42.5q-9 55 -43 61v2q20 6 34.5 21t14.5 41q0 34 -23 51q-11 8 -29.5 13.5t-44.5 5.5q-19 0 -33.5 -2t-31.5 -4v-251h32v111h30q26 0 39.5 -10.5 t18.5 -36.5q9 -51 19 -64h34zM308 509q0 -26 -19.5 -36.5t-45.5 -10.5h-31v94q5 1 12 1.5t17 0.5q38 0 52.5 -15.5t14.5 -33.5z" />
<glyph unicode="&#xaf;" d="M259 592v39h-217v-39h217z" />
<glyph unicode="&#xb0;" d="M270 570q0 22 -7 42.5t-22 37t-37.5 26.5t-52.5 10q-25 0 -47 -9.5t-38.5 -26t-26 -39t-9.5 -49.5q0 -22 8 -42.5t23.5 -36.5t37.5 -25.5t49 -9.5q22 0 43.5 8t39 24t28.5 38.5t11 51.5zM233 568q0 -38 -23.5 -62.5t-59.5 -24.5q-35 0 -58 23.5t-23 58.5q0 14 4 30 t14 29.5t25 22t38 8.5q25 0 41.5 -9t25.5 -22t12.5 -28t3.5 -26z" />
<glyph unicode="&#xb1;" horiz-adv-x="596" d="M556 320v40h-236v207h-44v-207h-236v-40h236v-215h44v215h236zM556 0v40h-516v-40h516z" />
<glyph unicode="&#xb2;" horiz-adv-x="360" d="M315 267v36h-198v2l34 29q37 32 66.5 59t50 52.5t31 51.5t10.5 56q0 15 -6 33.5t-20.5 35.5t-39.5 28.5t-62 11.5q-34 0 -64 -12.5t-49 -30.5l15 -26q14 10 36.5 22t51.5 12q26 0 43.5 -7.5t28.5 -19.5t16 -27.5t5 -31.5q0 -18 -7 -36t-23 -39t-41.5 -46.5t-62.5 -58.5 l-73 -65v-29h258z" />
<glyph unicode="&#xb3;" horiz-adv-x="340" d="M303 377q0 35 -24.5 63.5t-70.5 35.5v2q37 14 57 38.5t20 53.5q0 16 -5.5 32t-19 29.5t-35.5 22t-55 8.5q-34 0 -61 -10.5t-44 -21.5l16 -32q10 8 33.5 19t52.5 11q21 0 35 -6t22.5 -14.5t12.5 -19t4 -19.5q0 -21 -10.5 -36t-26 -24t-34 -13t-34.5 -4h-34v-33h32 q21 0 43 -4t40 -13.5t30 -25.5t12 -39q0 -10 -4 -24t-16 -26.5t-32.5 -21.5t-51.5 -9q-30 0 -57.5 10t-38.5 18l-16 -33q14 -11 43 -20t67 -9q39 0 67 10.5t46.5 27t27.5 37t9 40.5z" />
<glyph unicode="&#xb4;" d="M283 682h-74l-91 -140h38z" />
<glyph unicode="&#xb5;" horiz-adv-x="586" d="M502 0q-2 29 -3 58t-1 58v364h-49v-293q0 -30 -14 -58t-37.5 -49.5t-54 -35t-62.5 -13.5q-42 0 -70.5 14.5t-46 39t-25 56t-7.5 65.5v274h-49v-680h49v268h2q15 -27 33.5 -43t37.5 -24t35.5 -10.5t27.5 -2.5q36 0 65 9.5t51.5 25.5t39 35.5t27.5 39.5h2l3 -98h46z" />
<glyph unicode="&#xb6;" horiz-adv-x="530" d="M425 -51v719q-15 3 -40 5t-70 2q-84 0 -138.5 -20t-86 -52t-43.5 -71t-12 -77q0 -50 20 -86.5t52 -61t71 -36.5t77 -12h9v-310h43v686h75v-686h43z" />
<glyph unicode="&#xb7;" horiz-adv-x="175" d="M130 284q0 20 -11.5 33.5t-30.5 13.5t-30.5 -13.5t-12.5 -33.5q0 -18 11.5 -32t30.5 -14q20 0 31.5 14t11.5 32z" />
<glyph unicode="&#xb8;" d="M212 -120q0 28 -21 45t-49 21l38 54h-38l-53 -81q34 -3 57 -12t24 -32q1 -20 -14.5 -28t-35.5 -8q-14 0 -29 3t-27 10l-11 -35q11 -7 28.5 -11t31.5 -4q42 0 70.5 18t28.5 60z" />
<glyph unicode="&#xb9;" d="M187 267v390h-38l-79 -39l9 -33l65 32h2v-350h41z" />
<glyph unicode="&#xba;" horiz-adv-x="350" d="M343 429q0 33 -11.5 62.5t-33.5 52t-53 35.5t-70 13q-31 0 -61 -11.5t-53.5 -33.5t-38 -53.5t-14.5 -70.5q0 -35 12.5 -64t35 -51t53 -34t66.5 -12q28 0 57.5 9.5t54 30t40.5 52t16 75.5zM301 427q0 -33 -10.5 -57t-28 -40t-40 -24t-46.5 -8q-22 0 -44 8t-40 24 t-29.5 39.5t-11.5 55.5q0 24 7.5 47.5t23.5 42t39 30t55 11.5q33 0 56.5 -12.5t39 -31.5t22.5 -41.5t7 -43.5z" />
<glyph unicode="&#xbb;" horiz-adv-x="410" d="M380 252l-157 184h-52l157 -184l-156 -184h51zM230 252l-157 184h-52l157 -184l-156 -184h51z" />
<glyph unicode="&#xbc;" horiz-adv-x="760" d="M722 108v34h-70v253h-35l-228 -261v-26h222v-108h41v108h70zM566 662h-41l-403 -674h41zM168 267v390h-38l-79 -39l9 -33l65 32h2v-350h41zM613 345q-2 -11 -2 -23v-26v-154h-171v1l142 164q6 8 13 17.5t16 20.5h2z" />
<glyph unicode="&#xbd;" horiz-adv-x="760" d="M696 0v36h-198v2l34 29q37 32 66.5 59t50 52.5t31 51.5t10.5 56q0 15 -6 33.5t-20.5 35.5t-39.5 28.5t-62 11.5q-34 0 -64 -12.5t-49 -30.5l15 -26q14 10 36.5 22t51.5 12q26 0 43.5 -7.5t28.5 -19.5t16 -27.5t5 -31.5q0 -18 -7 -36t-23 -39t-41.5 -46.5t-62.5 -58.5 l-73 -65v-29h258zM551 662h-41l-403 -674h41zM153 267v390h-38l-79 -39l9 -33l65 32h2v-350h41z" />
<glyph unicode="&#xbe;" horiz-adv-x="760" d="M737 108v34h-70v253h-35l-228 -261v-26h222v-108h41v108h70zM614 662h-41l-403 -674h41zM293 377q0 35 -24.5 63.5t-70.5 35.5v2q37 14 57 38.5t20 53.5q0 16 -5.5 32t-19 29.5t-36 22t-55.5 8.5q-34 0 -60.5 -11t-43.5 -22l16 -31q10 8 33 19t52 11q21 0 35.5 -6 t23.5 -14.5t12.5 -19t3.5 -19.5q0 -21 -10.5 -36t-26 -24t-34 -13t-34.5 -4h-34v-33h32q21 0 43 -4t40 -13.5t30 -25.5t12 -39q0 -10 -4 -24t-16 -26.5t-32.5 -21.5t-51.5 -9q-30 0 -57.5 10t-38.5 18l-16 -33q14 -11 43 -20t67 -9q39 0 67 10.5t46.5 27t27.5 37t9 40.5z M628 345q-2 -11 -2 -23v-26v-154h-171v1l143 164q6 7 12.5 16.5t15.5 21.5h2z" />
<glyph unicode="&#xbf;" horiz-adv-x="410" d="M295 433q0 20 -11.5 33.5t-30.5 13.5t-30.5 -13.5t-12.5 -33.5q0 -18 11.5 -32t30.5 -14q20 0 31.5 14t11.5 32zM379 -172l-19 36q-23 -18 -53.5 -27.5t-60.5 -9.5q-61 0 -89.5 30.5t-28.5 75.5q0 35 18 70t62 82q42 46 60.5 90.5t13.5 85.5l-4 31h-45l2 -36 q2 -35 -13.5 -72t-56.5 -82q-47 -50 -68.5 -89.5t-21.5 -82.5q0 -27 9.5 -53.5t29.5 -47t50.5 -33.5t72.5 -13q16 0 34.5 3t37.5 8.5t37 14t33 19.5z" />
<glyph unicode="&#xc0;" horiz-adv-x="640" d="M363 710l-96 115h-76l132 -115h40zM620 0l-270 674h-48l-272 -674h51l93 237h300l95 -237h51zM458 278h-267l96 240q12 30 20.5 54t16.5 50h2q8 -25 15.5 -49t21.5 -58z" />
<glyph unicode="&#xc1;" horiz-adv-x="640" d="M459 825h-76l-96 -115h40zM620 0l-270 674h-48l-272 -674h51l93 237h300l95 -237h51zM458 278h-267l96 240q12 30 20.5 54t16.5 50h2q8 -25 15.5 -49t21.5 -58z" />
<glyph unicode="&#xc2;" horiz-adv-x="640" d="M459 710l-113 115h-36l-109 -115h50l76 79h2l76 -79h54zM620 0l-270 674h-48l-272 -674h51l93 237h300l95 -237h51zM458 278h-267l96 240q12 30 20.5 54t16.5 50h2q8 -25 15.5 -49t21.5 -58z" />
<glyph unicode="&#xc3;" horiz-adv-x="640" d="M440 802h-31q-2 -28 -9.5 -35t-20.5 -7q-14 0 -27 4.5t-26 12.5q-20 11 -35 16.5t-30 5.5q-14 0 -25.5 -7t-19.5 -19t-12 -27t-4 -31h31q2 19 8 32t20 13t27 -6t30 -14q21 -11 35 -15.5t28 -4.5q32 0 46.5 22.5t14.5 59.5zM620 0l-270 674h-48l-272 -674h51l93 237h300 l95 -237h51zM458 278h-267l96 240q12 30 20.5 54t16.5 50h2q8 -25 15.5 -49t21.5 -58z" />
<glyph unicode="&#xc4;" horiz-adv-x="640" d="M453 765q0 17 -10.5 29t-27.5 12t-28 -12.5t-11 -28.5t10 -28.5t28 -12.5q19 0 29 12.5t10 28.5zM274 765q0 17 -10.5 29t-27.5 12t-28 -12.5t-11 -28.5t10 -28.5t28 -12.5q19 0 29 12.5t10 28.5zM620 0l-270 674h-48l-272 -674h51l93 237h300l95 -237h51zM458 278h-267 l96 240q12 30 20.5 54t16.5 50h2q8 -25 15.5 -49t21.5 -58z" />
<glyph unicode="&#xc5;" horiz-adv-x="640" d="M620 0l-262 654q30 7 48.5 28t18.5 50q0 37 -25.5 61.5t-69.5 24.5q-45 0 -70.5 -25.5t-25.5 -60.5q0 -26 16 -47t45 -29l-265 -656h51l93 237h300l94 -237h52zM387 734q0 -22 -15 -38t-43 -16q-27 0 -42 16.5t-15 35.5q0 23 14 40t43 17q28 0 43 -16t15 -39zM458 278 h-269l106 264q9 22 17 44.5t11 35.5h2q8 -23 17 -51.5t18 -50.5z" />
<glyph unicode="&#xc6;" horiz-adv-x="807" d="M766 0v41h-259l-42 293h267v41h-273l-36 258h326v41h-399l-360 -674h51l148 279h237l40 -279h300zM421 319h-211l113 216q14 27 27.5 53.5t23.5 48.5h4q2 -25 6.5 -57.5t7.5 -53.5z" />
<glyph unicode="&#xc7;" horiz-adv-x="640" d="M605 27l-15 39q-35 -17 -81.5 -26.5t-96.5 -9.5q-80 0 -140 23.5t-101 64t-61.5 95.5t-20.5 117q0 68 21.5 126t64 100t105 65.5t144.5 23.5q48 0 90.5 -9.5t72.5 -24.5l16 41q-17 8 -61 21t-121 13q-95 0 -166.5 -30.5t-119.5 -80t-72.5 -112.5t-24.5 -129 q0 -80 25 -141t67.5 -104t98 -67t116.5 -31l-46 -72q34 -4 57 -13.5t23 -31.5q0 -17 -14.5 -26t-34.5 -9q-32 0 -56 13l-11 -36q11 -5 28.5 -9.5t34.5 -4.5q40 0 68.5 17.5t28.5 56.5q0 28 -20.5 46.5t-49.5 23.5l30 42q81 0 137 12.5t85 26.5z" />
<glyph unicode="&#xc8;" horiz-adv-x="511" d="M329 710l-96 115h-76l132 -115h40zM471 0v41h-334v294h300v41h-300v257h317v41h-366v-674h383z" />
<glyph unicode="&#xc9;" horiz-adv-x="511" d="M405 825h-76l-96 -115h40zM471 0v41h-334v294h300v41h-300v257h317v41h-366v-674h383z" />
<glyph unicode="&#xca;" horiz-adv-x="511" d="M397 710l-113 115h-36l-109 -115h50l76 79h2l76 -79h54zM471 0v41h-334v294h300v41h-300v257h317v41h-366v-674h383z" />
<glyph unicode="&#xcb;" horiz-adv-x="511" d="M404 765q0 17 -10.5 29t-27.5 12t-28 -12.5t-11 -28.5t10 -28.5t28 -12.5q19 0 29 12.5t10 28.5zM225 765q0 17 -10.5 29t-27.5 12t-28 -12.5t-11 -28.5t10 -28.5t28 -12.5q19 0 29 12.5t10 28.5zM471 0v41h-334v294h300v41h-300v257h317v41h-366v-674h383z" />
<glyph unicode="&#xcc;" horiz-adv-x="225" d="M155 710l-96 115h-76l132 -115h40zM137 0v674h-49v-674h49z" />
<glyph unicode="&#xcd;" horiz-adv-x="225" d="M246 825h-76l-96 -115h40zM137 0v674h-49v-674h49z" />
<glyph unicode="&#xce;" horiz-adv-x="225" d="M241 710l-113 115h-36l-109 -115h50l76 79h2l76 -79h54zM137 0v674h-49v-674h49z" />
<glyph unicode="&#xcf;" horiz-adv-x="225" d="M240 765q0 17 -10.5 29t-27.5 12t-28 -12.5t-11 -28.5t10 -28.5t28 -12.5q19 0 29 12.5t10 28.5zM61 765q0 17 -10.5 29t-27.5 12t-28 -12.5t-11 -28.5t10 -28.5t28 -12.5q19 0 29 12.5t10 28.5zM137 0v674h-49v-674h49z" />
<glyph unicode="&#xd0;" horiz-adv-x="725" d="M686 352q0 68 -19.5 122.5t-61.5 100.5q-48 52 -127.5 80t-187.5 28q-57 0 -107 -4.5t-95 -10.5v-311h-94v-40h94v-317q44 -4 86.5 -5t88.5 -1q114 0 197.5 30t132.5 82q53 57 73 122.5t20 123.5zM636 354q0 -67 -21.5 -125t-65.5 -101t-113 -68t-165 -25q-41 0 -75.5 1 t-58.5 5v276h239v40h-239v272q26 5 63 9t86 4q92 0 158.5 -22t109 -60.5t62.5 -91t20 -114.5z" />
<glyph unicode="&#xd1;" horiz-adv-x="706" d="M493 802h-31q-2 -28 -9.5 -35t-20.5 -7q-14 0 -27 4.5t-26 12.5q-20 11 -35 16.5t-30 5.5q-14 0 -25.5 -7t-19.5 -19t-12 -27t-4 -31h31q2 19 8 32t20 13t27 -6t30 -14q21 -11 35 -15.5t28 -4.5q32 0 46.5 22.5t14.5 59.5zM618 0v674h-48v-348q0 -78 1.5 -140.5 t6.5 -121.5l-2 -2q-26 45 -58.5 89.5t-78.5 107.5l-305 415h-46v-674h48v360q0 75 -1 133t-5 115l3 2q27 -45 64.5 -97.5t80.5 -111.5l295 -401h45z" />
<glyph unicode="&#xd2;" horiz-adv-x="753" d="M410 710l-96 115h-76l132 -115h40zM715 346q0 73 -24.5 135t-69 107.5t-106 71.5t-135.5 26q-72 0 -134.5 -26t-108.5 -73.5t-72.5 -113.5t-26.5 -145q0 -74 25.5 -136.5t70.5 -107.5t106.5 -70.5t133.5 -25.5q66 0 127.5 23t109 68.5t76 112.5t28.5 154zM663 342 q0 -67 -20 -124.5t-57.5 -99.5t-91.5 -66t-121 -24q-66 0 -119 25t-89.5 66.5t-56.5 96t-20 114.5q0 62 18 119.5t54.5 101t90.5 69.5t126 26t125.5 -27t89 -70.5t53.5 -97.5t18 -109z" />
<glyph unicode="&#xd3;" horiz-adv-x="753" d="M521 825h-76l-96 -115h40zM715 346q0 73 -24.5 135t-69 107.5t-106 71.5t-135.5 26q-72 0 -134.5 -26t-108.5 -73.5t-72.5 -113.5t-26.5 -145q0 -74 25.5 -136.5t70.5 -107.5t106.5 -70.5t133.5 -25.5q66 0 127.5 23t109 68.5t76 112.5t28.5 154zM663 342 q0 -67 -20 -124.5t-57.5 -99.5t-91.5 -66t-121 -24q-66 0 -119 25t-89.5 66.5t-56.5 96t-20 114.5q0 62 18 119.5t54.5 101t90.5 69.5t126 26t125.5 -27t89 -70.5t53.5 -97.5t18 -109z" />
<glyph unicode="&#xd4;" horiz-adv-x="753" d="M506 710l-113 115h-36l-109 -115h50l76 79h2l76 -79h54zM715 346q0 73 -24.5 135t-69 107.5t-106 71.5t-135.5 26q-72 0 -134.5 -26t-108.5 -73.5t-72.5 -113.5t-26.5 -145q0 -74 25.5 -136.5t70.5 -107.5t106.5 -70.5t133.5 -25.5q66 0 127.5 23t109 68.5t76 112.5 t28.5 154zM663 342q0 -67 -20 -124.5t-57.5 -99.5t-91.5 -66t-121 -24q-66 0 -119 25t-89.5 66.5t-56.5 96t-20 114.5q0 62 18 119.5t54.5 101t90.5 69.5t126 26t125.5 -27t89 -70.5t53.5 -97.5t18 -109z" />
<glyph unicode="&#xd5;" horiz-adv-x="753" d="M497 802h-31q-2 -28 -9.5 -35t-20.5 -7q-14 0 -27 4.5t-26 12.5q-20 11 -35 16.5t-30 5.5q-14 0 -25.5 -7t-19.5 -19t-12 -27t-4 -31h31q2 19 8 32t20 13t27 -6t30 -14q21 -11 35 -15.5t28 -4.5q32 0 46.5 22.5t14.5 59.5zM715 346q0 73 -24.5 135t-69 107.5t-106 71.5 t-135.5 26q-72 0 -134.5 -26t-108.5 -73.5t-72.5 -113.5t-26.5 -145q0 -74 25.5 -136.5t70.5 -107.5t106.5 -70.5t133.5 -25.5q66 0 127.5 23t109 68.5t76 112.5t28.5 154zM663 342q0 -67 -20 -124.5t-57.5 -99.5t-91.5 -66t-121 -24q-66 0 -119 25t-89.5 66.5t-56.5 96 t-20 114.5q0 62 18 119.5t54.5 101t90.5 69.5t126 26t125.5 -27t89 -70.5t53.5 -97.5t18 -109z" />
<glyph unicode="&#xd6;" horiz-adv-x="753" d="M505 765q0 17 -10.5 29t-27.5 12t-28 -12.5t-11 -28.5t10 -28.5t28 -12.5q19 0 29 12.5t10 28.5zM326 765q0 17 -10.5 29t-27.5 12t-28 -12.5t-11 -28.5t10 -28.5t28 -12.5q19 0 29 12.5t10 28.5zM715 346q0 73 -24.5 135t-69 107.5t-106 71.5t-135.5 26 q-72 0 -134.5 -26t-108.5 -73.5t-72.5 -113.5t-26.5 -145q0 -74 25.5 -136.5t70.5 -107.5t106.5 -70.5t133.5 -25.5q66 0 127.5 23t109 68.5t76 112.5t28.5 154zM663 342q0 -67 -20 -124.5t-57.5 -99.5t-91.5 -66t-121 -24q-66 0 -119 25t-89.5 66.5t-56.5 96t-20 114.5 q0 62 18 119.5t54.5 101t90.5 69.5t126 26t125.5 -27t89 -70.5t53.5 -97.5t18 -109z" />
<glyph unicode="&#xd7;" horiz-adv-x="596" d="M556 30l-227 233l227 232l-32 31l-226 -231l-226 231l-32 -31l227 -232l-227 -233l32 -30l226 231l226 -231z" />
<glyph unicode="&#xd8;" horiz-adv-x="753" d="M715 346q0 72 -25.5 135.5t-72.5 108.5l74 87l-32 25l-72 -85q-89 69 -205 69q-71 0 -134 -25.5t-109.5 -72.5t-73.5 -112.5t-27 -145.5q0 -72 26 -135.5t72 -109.5l-74 -87l29 -26l74 87q44 -34 98 -52.5t116 -18.5q61 0 121.5 22t108 66.5t77 111.5t29.5 158zM664 342 q0 -65 -19.5 -122t-57 -99.5t-91 -67.5t-120.5 -25q-62 0 -104 17t-78 47l392 463h3q1 -1 1.5 -2t1.5 -2q40 -50 56 -102.5t16 -106.5zM559 583l-392 -462l-2 -2q-32 41 -54 91.5t-22 127.5q0 57 18.5 112.5t54.5 99t90.5 70t126.5 26.5q55 0 99.5 -17t80.5 -46z" />
<glyph unicode="&#xd9;" horiz-adv-x="691" d="M389 710l-96 115h-76l132 -115h40zM603 289v385h-49v-389q0 -67 -16 -115t-44.5 -79.5t-67.5 -46.5t-86 -15q-42 0 -79 14.5t-64.5 45t-43.5 79t-16 117.5v389h-49v-390q0 -83 20.5 -139.5t55 -91t79.5 -50t94 -15.5q54 0 102 16.5t84.5 52.5t58 93.5t21.5 138.5z" />
<glyph unicode="&#xda;" horiz-adv-x="691" d="M485 825h-76l-96 -115h40zM603 289v385h-49v-389q0 -67 -16 -115t-44.5 -79.5t-67.5 -46.5t-86 -15q-42 0 -79 14.5t-64.5 45t-43.5 79t-16 117.5v389h-49v-390q0 -83 20.5 -139.5t55 -91t79.5 -50t94 -15.5q54 0 102 16.5t84.5 52.5t58 93.5t21.5 138.5z" />
<glyph unicode="&#xdb;" horiz-adv-x="691" d="M480 710l-113 115h-36l-109 -115h50l76 79h2l76 -79h54zM603 289v385h-49v-389q0 -67 -16 -115t-44.5 -79.5t-67.5 -46.5t-86 -15q-42 0 -79 14.5t-64.5 45t-43.5 79t-16 117.5v389h-49v-390q0 -83 20.5 -139.5t55 -91t79.5 -50t94 -15.5q54 0 102 16.5t84.5 52.5 t58 93.5t21.5 138.5z" />
<glyph unicode="&#xdc;" horiz-adv-x="691" d="M474 765q0 17 -10.5 29t-27.5 12t-28 -12.5t-11 -28.5t10 -28.5t28 -12.5q19 0 29 12.5t10 28.5zM295 765q0 17 -10.5 29t-27.5 12t-28 -12.5t-11 -28.5t10 -28.5t28 -12.5q19 0 29 12.5t10 28.5zM603 289v385h-49v-389q0 -67 -16 -115t-44.5 -79.5t-67.5 -46.5t-86 -15 q-42 0 -79 14.5t-64.5 45t-43.5 79t-16 117.5v389h-49v-390q0 -83 20.5 -139.5t55 -91t79.5 -50t94 -15.5q54 0 102 16.5t84.5 52.5t58 93.5t21.5 138.5z" />
<glyph unicode="&#xdd;" horiz-adv-x="541" d="M420 825h-76l-96 -115h40zM548 674h-56l-131 -210q-25 -40 -46 -74.5t-38 -66.5h-2q-19 35 -38.5 67.5t-43.5 73.5l-125 210h-56l236 -386v-288h49v286z" />
<glyph unicode="&#xde;" horiz-adv-x="548" d="M497 371q0 35 -14 66t-38 54q-31 29 -77.5 43.5t-111.5 14.5q-26 0 -58.5 -2.5t-61.5 -8.5v136h-48v-674h48v169q22 -4 47 -5t48 -1q60 0 109 14t84 41t54 65.5t19 87.5zM448 362q0 -73 -55.5 -115.5t-158.5 -42.5q-23 0 -48 1.5t-50 6.5v284q16 5 48 8.5t72 3.5 q38 0 73 -7t61.5 -24t42 -45t15.5 -70z" />
<glyph unicode="&#xdf;" horiz-adv-x="558" d="M506 143q0 27 -7.5 49t-19.5 40t-27.5 33.5t-32.5 31.5q-29 27 -46.5 47.5t-17.5 52.5q0 29 22 50.5t59 36.5q7 11 14.5 31.5t7.5 49.5q0 39 -13 69.5t-35.5 51t-52.5 31.5t-64 11q-41 0 -74 -10.5t-61 -35.5q-16 -14 -29 -33t-22 -45t-14 -60t-5 -78v-546 q0 -34 -8 -62.5t-14.5 -42.5t-7.5 -16l49 -10q1 2 7.5 17.5t14.5 46.5t8 67v548q0 114 35 166.5t111 52.5q63 0 95.5 -35.5t32.5 -93.5q0 -16 -2.5 -27.5t-5.5 -19.5q-96 -47 -96 -122q0 -36 21.5 -65.5t62.5 -64.5q35 -30 51.5 -58t16.5 -66q0 -21 -7.5 -40.5t-23 -34.5 t-38.5 -23.5t-54 -8.5q-26 0 -51 7t-52 20l-14 -41q27 -14 56.5 -20t59.5 -6q41 0 73 12t53.5 33t33 49t11.5 61z" />
<glyph unicode="&#xe0;" horiz-adv-x="496" d="M272 542l-91 140h-74l127 -140h38zM434 0q-5 29 -11.5 58t-6.5 58v174q0 28 -5.5 63.5t-24 66t-54.5 51.5t-97 21q-20 0 -41 -3l1.5 -8.5t4.5 -31.5q8 1 15.5 1.5t15.5 0.5q48 0 75 -17t40.5 -40.5t17 -48t3.5 -37.5v-11q-168 2 -246.5 -46.5t-78.5 -130.5 q0 -27 12.5 -55t40.5 -48q14 -10 31 -17t38 -10h2q7 -1 14 -1.5t15 -0.5q33 0 61 8t50 21t38 28t25 29h2l18 -84zM367 154q0 -13 -6 -28q-7 -16 -20 -33.5t-33 -31.5t-47 -23.5t-62 -9.5q-42 0 -73.5 25t-31.5 76q0 42 25 67.5t64 39t87.5 17.5t96.5 3v-102z" />
<glyph unicode="&#xe1;" horiz-adv-x="496" d="M366 682h-74l-91 -140h38zM434 0q-5 29 -11.5 58t-6.5 58v174q0 28 -5.5 63.5t-24 66t-54.5 51.5t-97 21q-20 0 -41 -3l1.5 -8.5t4.5 -31.5q8 1 15.5 1.5t15.5 0.5q48 0 75 -17t40.5 -40.5t17 -48t3.5 -37.5v-11q-168 2 -246.5 -46.5t-78.5 -130.5q0 -27 12.5 -55 t40.5 -48q14 -10 31 -17t38 -10h2q7 -1 14 -1.5t15 -0.5q33 0 61 8t50 21t38 28t25 29h2l18 -84zM367 154q0 -13 -6 -28q-7 -16 -20 -33.5t-33 -31.5t-47 -23.5t-62 -9.5q-42 0 -73.5 25t-31.5 76q0 42 25 67.5t64 39t87.5 17.5t96.5 3v-102z" />
<glyph unicode="&#xe2;" horiz-adv-x="496" d="M360 542l-100 140h-38l-96 -140h47l67 102h2l67 -102h51zM434 0q-5 29 -11.5 58t-6.5 58v174q0 28 -5.5 63.5t-24 66t-54.5 51.5t-97 21q-20 0 -41 -3l1.5 -8.5t4.5 -31.5q8 1 15.5 1.5t15.5 0.5q48 0 75 -17t40.5 -40.5t17 -48t3.5 -37.5v-11q-168 2 -246.5 -46.5 t-78.5 -130.5q0 -27 12.5 -55t40.5 -48q14 -10 31 -17t38 -10h2q7 -1 14 -1.5t15 -0.5q33 0 61 8t50 21t38 28t25 29h2l18 -84zM367 154q0 -13 -6 -28q-7 -16 -20 -33.5t-33 -31.5t-47 -23.5t-62 -9.5q-42 0 -73.5 25t-31.5 76q0 42 25 67.5t64 39t87.5 17.5t96.5 3v-102z " />
<glyph unicode="&#xe3;" horiz-adv-x="496" d="M364 657h-30q-2 -26 -8.5 -34.5t-16.5 -8.5q-14 0 -25.5 4.5t-23.5 10.5q-23 11 -37.5 18t-31.5 7q-29 0 -44 -26.5t-14 -59.5h31q2 20 8.5 33t19.5 13q11 0 22.5 -4.5t29.5 -14.5q17 -9 31.5 -15t28.5 -6q32 0 46 22.5t14 60.5zM434 0q-5 29 -11.5 58t-6.5 58v174 q0 28 -5.5 63.5t-24 66t-54.5 51.5t-97 21q-20 0 -41 -3l1.5 -8.5t4.5 -31.5q8 1 15.5 1.5t15.5 0.5q48 0 75 -17t40.5 -40.5t17 -48t3.5 -37.5v-11q-168 2 -246.5 -46.5t-78.5 -130.5q0 -27 12.5 -55t40.5 -48q14 -10 31 -17t38 -10h2q7 -1 14 -1.5t15 -0.5q33 0 61 8 t50 21t38 28t25 29h2l18 -84zM367 154q0 -13 -6 -28q-7 -16 -20 -33.5t-33 -31.5t-47 -23.5t-62 -9.5q-42 0 -73.5 25t-31.5 76q0 42 25 67.5t64 39t87.5 17.5t96.5 3v-102z" />
<glyph unicode="&#xe4;" horiz-adv-x="496" d="M376 605q0 17 -10.5 29t-27.5 12t-28 -12.5t-11 -28.5t10 -28.5t28 -12.5q19 0 29 12.5t10 28.5zM197 605q0 17 -10.5 29t-27.5 12t-28 -12.5t-11 -28.5t10 -28.5t28 -12.5q19 0 29 12.5t10 28.5zM434 0q-5 29 -11.5 58t-6.5 58v174q0 28 -5.5 63.5t-24 66t-54.5 51.5 t-97 21q-20 0 -41 -3l1.5 -8.5t4.5 -31.5q8 1 15.5 1.5t15.5 0.5q48 0 75 -17t40.5 -40.5t17 -48t3.5 -37.5v-11q-168 2 -246.5 -46.5t-78.5 -130.5q0 -27 12.5 -55t40.5 -48q14 -10 31 -17t38 -10h2q7 -1 14 -1.5t15 -0.5q33 0 61 8t50 21t38 28t25 29h2l18 -84zM367 154 q0 -13 -6 -28q-7 -16 -20 -33.5t-33 -31.5t-47 -23.5t-62 -9.5q-42 0 -73.5 25t-31.5 76q0 42 25 67.5t64 39t87.5 17.5t96.5 3v-102z" />
<glyph unicode="&#xe5;" horiz-adv-x="496" d="M339 623q0 39 -26.5 65.5t-66.5 26.5q-41 0 -68 -27t-27 -65t27 -64t68 -26q18 0 35 7t30 19t20.5 28.5t7.5 35.5zM434 0q-5 29 -11.5 58t-6.5 58v174q0 28 -5.5 63.5t-24 66t-54.5 51.5t-97 21q-20 0 -41 -3l1.5 -8.5t4.5 -31.5q8 1 15.5 1.5t15.5 0.5q48 0 75 -17 t40.5 -40.5t17 -48t3.5 -37.5v-11q-168 2 -246.5 -46.5t-78.5 -130.5q0 -27 12.5 -55t40.5 -48q14 -10 31 -17t38 -10h2q7 -1 14 -1.5t15 -0.5q33 0 61 8t50 21t38 28t25 29h2l18 -84zM301 624q0 -25 -15.5 -43t-40.5 -18q-23 0 -38.5 18.5t-15.5 41.5q0 26 14.5 44t39.5 18 t40.5 -17.5t15.5 -43.5zM367 154q0 -13 -6 -28q-7 -16 -20 -33.5t-33 -31.5t-47 -23.5t-62 -9.5q-42 0 -73.5 25t-31.5 76q0 42 25 67.5t64 39t87.5 17.5t96.5 3v-102z" />
<glyph unicode="&#xe6;" horiz-adv-x="835" d="M819 270q0 24 -7.5 61.5t-30 73.5t-63.5 61.5t-108 25.5q-69 0 -123.5 -32t-85.5 -92h-1q-6 26 -18 48.5t-32.5 39.5t-50 26.5t-69.5 9.5q-24 0 -66.5 -8.5t-86.5 -37.5l16 -35q23 18 62 29t75 11q48 0 75.5 -20t41.5 -45t17.5 -48.5t3.5 -29.5v-20q-84 2 -145.5 -10 t-101.5 -35t-59 -56t-19 -72q0 -21 8 -43t26 -41t47 -31t70 -12q68 0 122.5 32t77.5 95h1q29 -58 86 -92.5t135 -34.5q18 0 34.5 1t30.5 3l-4 41q-24 -3 -56 -3q-43 0 -80 13t-64.5 39.5t-43 65.5t-15.5 92h399q2 6 2 12v18zM768 279h-347q4 27 16 57.5t33.5 56t54.5 42.5 t79 17q54 0 86.5 -20t50 -48t22.5 -57t5 -48zM368 174q0 -21 -6 -40q-7 -20 -20 -39.5t-33.5 -34.5t-47.5 -23.5t-62 -8.5q-45 0 -75.5 25t-30.5 67q0 44 26 70t66.5 39.5t89 17t93.5 2.5v-75z" />
<glyph unicode="&#xe7;" horiz-adv-x="498" d="M462 458q-15 11 -53.5 22.5t-92.5 11.5q-58 0 -108 -18t-86.5 -51.5t-57.5 -81.5t-21 -108q0 -48 16 -90.5t45 -75t70.5 -53t91.5 -24.5l-47 -71q34 -3 57 -12t24 -32q1 -20 -15 -28t-36 -8q-33 0 -55 13l-11 -35q11 -7 29 -11t31 -4q42 0 70.5 18t28.5 60q0 28 -21 45 t-49 21l30 42q60 1 100.5 14t55.5 21l-14 39q-21 -9 -54.5 -20.5t-85.5 -11.5q-46 0 -84.5 15t-67 42.5t-44.5 66t-16 85.5q0 44 14.5 82.5t42 67t68.5 45t95 16.5q47 0 79 -10t53 -22z" />
<glyph unicode="&#xe8;" horiz-adv-x="537" d="M338 542l-91 140h-74l127 -140h38zM492 270q0 24 -7.5 61.5t-30 73.5t-63.5 61.5t-108 25.5q-51 0 -95 -18.5t-76 -52.5t-50.5 -83t-18.5 -110q0 -52 17.5 -96t49.5 -76t77.5 -50t101.5 -18q18 0 34.5 1t30.5 3l-4 41q-24 -3 -56 -3q-43 0 -80 13t-64.5 39.5t-43 65.5 t-15.5 92h399q2 6 2 12v18zM441 279h-347q4 27 16 57.5t33.5 56t54.5 42.5t79 17q54 0 86.5 -20t50 -48t22.5 -57t5 -48z" />
<glyph unicode="&#xe9;" horiz-adv-x="537" d="M407 682h-74l-91 -140h38zM492 270q0 24 -7.5 61.5t-30 73.5t-63.5 61.5t-108 25.5q-51 0 -95 -18.5t-76 -52.5t-50.5 -83t-18.5 -110q0 -52 17.5 -96t49.5 -76t77.5 -50t101.5 -18q18 0 34.5 1t30.5 3l-4 41q-24 -3 -56 -3q-43 0 -80 13t-64.5 39.5t-43 65.5t-15.5 92 h399q2 6 2 12v18zM441 279h-347q4 27 16 57.5t33.5 56t54.5 42.5t79 17q54 0 86.5 -20t50 -48t22.5 -57t5 -48z" />
<glyph unicode="&#xea;" horiz-adv-x="537" d="M400 542l-100 140h-38l-96 -140h47l67 102h2l67 -102h51zM492 270q0 24 -7.5 61.5t-30 73.5t-63.5 61.5t-108 25.5q-51 0 -95 -18.5t-76 -52.5t-50.5 -83t-18.5 -110q0 -52 17.5 -96t49.5 -76t77.5 -50t101.5 -18q18 0 34.5 1t30.5 3l-4 41q-24 -3 -56 -3q-43 0 -80 13 t-64.5 39.5t-43 65.5t-15.5 92h399q2 6 2 12v18zM441 279h-347q4 27 16 57.5t33.5 56t54.5 42.5t79 17q54 0 86.5 -20t50 -48t22.5 -57t5 -48z" />
<glyph unicode="&#xeb;" horiz-adv-x="537" d="M417 605q0 17 -10.5 29t-27.5 12t-28 -12.5t-11 -28.5t10 -28.5t28 -12.5q19 0 29 12.5t10 28.5zM238 605q0 17 -10.5 29t-27.5 12t-28 -12.5t-11 -28.5t10 -28.5t28 -12.5q19 0 29 12.5t10 28.5zM492 270q0 24 -7.5 61.5t-30 73.5t-63.5 61.5t-108 25.5q-51 0 -95 -18.5 t-76 -52.5t-50.5 -83t-18.5 -110q0 -52 17.5 -96t49.5 -76t77.5 -50t101.5 -18q18 0 34.5 1t30.5 3l-4 41q-24 -3 -56 -3q-43 0 -80 13t-64.5 39.5t-43 65.5t-15.5 92h399q2 6 2 12v18zM441 279h-347q4 27 16 57.5t33.5 56t54.5 42.5t79 17q54 0 86.5 -20t50 -48t22.5 -57 t5 -48z" />
<glyph unicode="&#xec;" horiz-adv-x="225" d="M141 542l-91 140h-74l127 -140h38zM137 0v480h-49v-480h49z" />
<glyph unicode="&#xed;" horiz-adv-x="225" d="M246 682h-74l-91 -140h38zM137 0v480h-49v-480h49z" />
<glyph unicode="&#xee;" horiz-adv-x="225" d="M230 542l-100 140h-38l-96 -140h47l67 102h2l67 -102h51zM137 0v480h-49v-480h49z" />
<glyph unicode="&#xef;" horiz-adv-x="225" d="M241 605q0 17 -10.5 29t-27.5 12t-28 -12.5t-11 -28.5t10 -28.5t28 -12.5q19 0 29 12.5t10 28.5zM62 605q0 17 -10.5 29t-27.5 12t-28 -12.5t-11 -28.5t10 -28.5t28 -12.5q19 0 29 12.5t10 28.5zM137 0v480h-49v-480h49z" />
<glyph unicode="&#xf0;" horiz-adv-x="578" d="M532 253q0 54 -11.5 102t-33.5 92q-26 52 -63.5 96.5t-85.5 80.5l113 53l-16 37l-132 -64q-33 23 -70.5 43t-75.5 35l-20 -40q33 -12 65.5 -27.5t56.5 -32.5l-135 -63l14 -35l158 73q55 -41 94 -85t67 -93l-2 -3q-43 43 -84 56.5t-84 13.5q-45 0 -88.5 -18t-78 -51.5 t-55.5 -81.5t-21 -108q0 -53 17.5 -97.5t49 -77.5t76 -51.5t97.5 -18.5q45 0 89 15t79.5 47t57.5 82t22 121zM481 246q0 -53 -15.5 -94t-42.5 -68.5t-63 -41.5t-78 -14q-36 0 -70 14t-60.5 40t-43 64.5t-16.5 88.5q0 37 11.5 75.5t35.5 70t61 51.5t87 20q52 0 87 -18t58 -40 q27 -26 38 -59t11 -89z" />
<glyph unicode="&#xf1;" horiz-adv-x="591" d="M412 657h-30q-2 -26 -8.5 -34.5t-16.5 -8.5q-14 0 -25.5 4.5t-23.5 10.5q-23 11 -37.5 18t-31.5 7q-29 0 -44 -26.5t-14 -59.5h31q2 20 8.5 33t19.5 13q11 0 22.5 -4.5t29.5 -14.5q17 -9 31.5 -15t28.5 -6q32 0 46 22.5t14 60.5zM538 0q-1 2 -7.5 17t-14.5 39t-8 43v174 q0 50 -11 85.5t-28 60t-38 39t-42 22t-39 10t-29 2.5q-33 0 -62 -8.5t-52.5 -23.5t-41.5 -34.5t-29 -41.5h-2l-4 96h-46q2 -29 3 -58t1 -58v-364h49v293q0 11 2.5 23t5.5 20q8 23 24 43.5t37 36.5t47 25t55 9q41 0 70 -14.5t47 -39t26 -56.5t8 -67v-174q0 -33 8 -61.5 t14.5 -42t7.5 -15.5z" />
<glyph unicode="&#xf2;" horiz-adv-x="591" d="M345 542l-91 140h-74l127 -140h38zM548 246q0 51 -17.5 96t-50 78.5t-79 52.5t-104.5 19q-50 0 -96 -17.5t-81 -51t-56 -81t-21 -107.5q0 -53 18.5 -98.5t51.5 -78.5t78.5 -51.5t99.5 -18.5q44 0 89.5 15t83 46.5t61 80t23.5 116.5zM498 243q0 -52 -17.5 -92t-46 -67.5 t-66 -41.5t-77.5 -14q-39 0 -75 14t-63.5 41t-44.5 66t-17 89q0 42 13 80.5t38.5 68.5t64 47.5t89.5 17.5q53 0 91 -20t63 -50.5t36.5 -67.5t11.5 -71z" />
<glyph unicode="&#xf3;" horiz-adv-x="591" d="M414 682h-74l-91 -140h38zM548 246q0 51 -17.5 96t-50 78.5t-79 52.5t-104.5 19q-50 0 -96 -17.5t-81 -51t-56 -81t-21 -107.5q0 -53 18.5 -98.5t51.5 -78.5t78.5 -51.5t99.5 -18.5q44 0 89.5 15t83 46.5t61 80t23.5 116.5zM498 243q0 -52 -17.5 -92t-46 -67.5t-66 -41.5 t-77.5 -14q-39 0 -75 14t-63.5 41t-44.5 66t-17 89q0 42 13 80.5t38.5 68.5t64 47.5t89.5 17.5q53 0 91 -20t63 -50.5t36.5 -67.5t11.5 -71z" />
<glyph unicode="&#xf4;" horiz-adv-x="591" d="M413 542l-100 140h-38l-96 -140h47l67 102h2l67 -102h51zM548 246q0 51 -17.5 96t-50 78.5t-79 52.5t-104.5 19q-50 0 -96 -17.5t-81 -51t-56 -81t-21 -107.5q0 -53 18.5 -98.5t51.5 -78.5t78.5 -51.5t99.5 -18.5q44 0 89.5 15t83 46.5t61 80t23.5 116.5zM498 243 q0 -52 -17.5 -92t-46 -67.5t-66 -41.5t-77.5 -14q-39 0 -75 14t-63.5 41t-44.5 66t-17 89q0 42 13 80.5t38.5 68.5t64 47.5t89.5 17.5q53 0 91 -20t63 -50.5t36.5 -67.5t11.5 -71z" />
<glyph unicode="&#xf5;" horiz-adv-x="591" d="M412 657h-30q-2 -26 -8.5 -34.5t-16.5 -8.5q-14 0 -25.5 4.5t-23.5 10.5q-23 11 -37.5 18t-31.5 7q-29 0 -44 -26.5t-14 -59.5h31q2 20 8.5 33t19.5 13q11 0 22.5 -4.5t29.5 -14.5q17 -9 31.5 -15t28.5 -6q32 0 46 22.5t14 60.5zM548 246q0 51 -17.5 96t-50 78.5 t-79 52.5t-104.5 19q-50 0 -96 -17.5t-81 -51t-56 -81t-21 -107.5q0 -53 18.5 -98.5t51.5 -78.5t78.5 -51.5t99.5 -18.5q44 0 89.5 15t83 46.5t61 80t23.5 116.5zM498 243q0 -52 -17.5 -92t-46 -67.5t-66 -41.5t-77.5 -14q-39 0 -75 14t-63.5 41t-44.5 66t-17 89 q0 42 13 80.5t38.5 68.5t64 47.5t89.5 17.5q53 0 91 -20t63 -50.5t36.5 -67.5t11.5 -71z" />
<glyph unicode="&#xf6;" horiz-adv-x="591" d="M424 605q0 17 -10.5 29t-27.5 12t-28 -12.5t-11 -28.5t10 -28.5t28 -12.5q19 0 29 12.5t10 28.5zM245 605q0 17 -10.5 29t-27.5 12t-28 -12.5t-11 -28.5t10 -28.5t28 -12.5q19 0 29 12.5t10 28.5zM548 246q0 51 -17.5 96t-50 78.5t-79 52.5t-104.5 19q-50 0 -96 -17.5 t-81 -51t-56 -81t-21 -107.5q0 -53 18.5 -98.5t51.5 -78.5t78.5 -51.5t99.5 -18.5q44 0 89.5 15t83 46.5t61 80t23.5 116.5zM498 243q0 -52 -17.5 -92t-46 -67.5t-66 -41.5t-77.5 -14q-39 0 -75 14t-63.5 41t-44.5 66t-17 89q0 42 13 80.5t38.5 68.5t64 47.5t89.5 17.5 q53 0 91 -20t63 -50.5t36.5 -67.5t11.5 -71z" />
<glyph unicode="&#xf7;" horiz-adv-x="596" d="M341 440q0 20 -11.5 33.5t-30.5 13.5t-30.5 -13.5t-12.5 -33.5q0 -18 11.5 -32t30.5 -14q20 0 31.5 14t11.5 32zM555 247v40h-516v-40h516zM340 93q0 20 -11.5 33.5t-30.5 13.5t-30.5 -13.5t-12.5 -33.5q0 -18 11.5 -32t30.5 -14q20 0 31.5 14t11.5 32z" />
<glyph unicode="&#xf8;" horiz-adv-x="591" d="M548 247q0 51 -19.5 97.5t-57.5 82.5l45 57l-31 23l-45 -56q-31 20 -67.5 30.5t-74.5 10.5q-51 0 -97 -17.5t-81.5 -51t-56 -81t-20.5 -107.5q0 -55 20.5 -101t56.5 -80l-45 -55l28 -26l47 57q30 -21 67.5 -31.5t77.5 -10.5q44 0 89 15t81.5 47t59.5 80.5t23 116.5z M500 244q0 -51 -16.5 -91t-44.5 -67.5t-65.5 -42.5t-79.5 -15h-3q-30 0 -58.5 7.5t-54.5 27.5l264 328h2q32 -35 44 -76t12 -71zM415 416l-265 -328h-2q-29 31 -42 69.5t-13 80.5q0 40 12 78.5t37 68.5t63.5 48.5t90.5 18.5h4q69 -2 115 -36z" />
<glyph unicode="&#xf9;" horiz-adv-x="586" d="M347 542l-91 140h-74l127 -140h38zM522 0q-11 26 -17.5 56.5t-6.5 59.5v364h-49v-291q0 -16 -3.5 -30.5t-8.5 -25.5q-19 -42 -62 -72t-98 -30q-40 0 -67.5 14t-45 39t-25 60t-7.5 77v259h-49v-269q0 -77 20.5 -121t49.5 -67t59.5 -29t51.5 -6q36 0 66 9.5t53 25t40 35 t28 39.5h2q0 -1 1 -9.5t3 -22t4 -24.5q4 -16 9.5 -33.5l5.5 -17.5z" />
<glyph unicode="&#xfa;" horiz-adv-x="586" d="M426 682h-74l-91 -140h38zM522 0q-11 26 -17.5 56.5t-6.5 59.5v364h-49v-291q0 -16 -3.5 -30.5t-8.5 -25.5q-19 -42 -62 -72t-98 -30q-40 0 -67.5 14t-45 39t-25 60t-7.5 77v259h-49v-269q0 -77 20.5 -121t49.5 -67t59.5 -29t51.5 -6q36 0 66 9.5t53 25t40 35t28 39.5h2 q0 -1 1 -9.5t3 -22t4 -24.5q4 -16 9.5 -33.5l5.5 -17.5z" />
<glyph unicode="&#xfb;" horiz-adv-x="586" d="M410 542l-100 140h-38l-96 -140h47l67 102h2l67 -102h51zM522 0q-11 26 -17.5 56.5t-6.5 59.5v364h-49v-291q0 -16 -3.5 -30.5t-8.5 -25.5q-19 -42 -62 -72t-98 -30q-40 0 -67.5 14t-45 39t-25 60t-7.5 77v259h-49v-269q0 -77 20.5 -121t49.5 -67t59.5 -29t51.5 -6 q36 0 66 9.5t53 25t40 35t28 39.5h2q0 -1 1 -9.5t3 -22t4 -24.5q4 -16 9.5 -33.5l5.5 -17.5z" />
<glyph unicode="&#xfc;" horiz-adv-x="586" d="M424 605q0 17 -10.5 29t-27.5 12t-28 -12.5t-11 -28.5t10 -28.5t28 -12.5q19 0 29 12.5t10 28.5zM245 605q0 17 -10.5 29t-27.5 12t-28 -12.5t-11 -28.5t10 -28.5t28 -12.5q19 0 29 12.5t10 28.5zM522 0q-11 26 -17.5 56.5t-6.5 59.5v364h-49v-291q0 -16 -3.5 -30.5 t-8.5 -25.5q-19 -42 -62 -72t-98 -30q-40 0 -67.5 14t-45 39t-25 60t-7.5 77v259h-49v-269q0 -77 20.5 -121t49.5 -67t59.5 -29t51.5 -6q36 0 66 9.5t53 25t40 35t28 39.5h2q0 -1 1 -9.5t3 -22t4 -24.5q4 -16 9.5 -33.5l5.5 -17.5z" />
<glyph unicode="&#xfd;" horiz-adv-x="480" d="M373 682h-74l-91 -140h38zM473 480h-53l-134 -317q-12 -29 -22 -55.5t-18 -49.5h-2q-7 23 -17.5 50.5t-21.5 50.5l-143 321h-53l199 -446q7 -15 7 -22q0 -6 -6 -19q-23 -51 -48 -82t-44 -47q-23 -20 -46.5 -31t-41.5 -16l13 -41q8 2 32.5 11t55.5 32q24 17 44.5 40.5 t41 56t41.5 76t46 100.5z" />
<glyph unicode="&#xfe;" horiz-adv-x="613" d="M570 250q0 49 -16.5 93t-47 77t-73 52.5t-94.5 19.5q-76 0 -124 -31t-76 -76h-2v281h-49v-866h49v285h2q32 -51 81.5 -74t103.5 -23q49 0 93.5 16.5t78.5 49.5t54 82t20 114zM521 249q0 -53 -15 -94.5t-41 -69.5t-61 -42.5t-76 -14.5q-34 0 -63.5 9.5t-53 25t-40.5 37 t-26 45.5q-8 21 -8 44v84q0 14 3.5 30t8.5 29q23 59 73 89.5t107 30.5q44 0 79.5 -16.5t60.5 -44t38.5 -64.5t13.5 -78z" />
<glyph unicode="&#xff;" horiz-adv-x="480" d="M382 605q0 17 -10.5 29t-27.5 12t-28 -12.5t-11 -28.5t10 -28.5t28 -12.5q19 0 29 12.5t10 28.5zM203 605q0 17 -10.5 29t-27.5 12t-28 -12.5t-11 -28.5t10 -28.5t28 -12.5q19 0 29 12.5t10 28.5zM473 480h-53l-134 -317q-12 -29 -22 -55.5t-18 -49.5h-2 q-7 23 -17.5 50.5t-21.5 50.5l-143 321h-53l199 -446q7 -15 7 -22q0 -6 -6 -19q-23 -51 -48 -82t-44 -47q-23 -20 -46.5 -31t-41.5 -16l13 -41q8 2 32.5 11t55.5 32q24 17 44.5 40.5t41 56t41.5 76t46 100.5z" />
<glyph unicode="&#x152;" horiz-adv-x="962" d="M921 0v41h-334v293h300v41h-300v258h317v41h-329q-17 0 -35.5 2t-40.5 4t-47 4t-56 2q-81 0 -147 -25.5t-113 -72t-72.5 -111.5t-25.5 -144q0 -77 26 -140.5t72.5 -109t111 -70.5t142.5 -25q29 0 53 2t47 4q22 2 42 4t38 2h351zM538 45q-23 -8 -59.5 -12.5t-76.5 -4.5 q-77 0 -135.5 25t-98 67t-59.5 98t-20 118q0 58 17.5 114t54.5 99.5t95 70t138 26.5q51 0 84 -5t60 -12v-584z" />
<glyph unicode="&#x153;" horiz-adv-x="955" d="M929 270q0 24 -7.5 61.5t-30 73.5t-63.5 61.5t-108 25.5q-74 0 -131 -37t-86 -105v1h-2q-24 66 -79.5 103.5t-133.5 37.5q-50 0 -94.5 -18.5t-78 -52t-53 -81t-19.5 -105.5q0 -53 17.5 -98t49.5 -78t76.5 -52t97.5 -19q31 0 63.5 8t61 25t52 43t37.5 62h2 q27 -63 85.5 -100.5t140.5 -37.5q18 0 34.5 1t30.5 3l-4 41q-24 -3 -56 -3q-43 0 -80 13t-64.5 39.5t-43 65.5t-15.5 92h399q2 6 2 12v18zM878 279h-347q4 27 16 57.5t33.5 56t54.5 42.5t79 17q54 0 86.5 -20t50 -48t22.5 -57t5 -48zM479 240q0 -45 -12 -81 q-7 -21 -17 -38.5t-23 -31.5q-27 -30 -63.5 -45.5t-78.5 -15.5q-36 0 -71 14t-62 41t-43.5 66t-16.5 89q0 37 11 75t34.5 69t60 50.5t87.5 19.5q49 0 85.5 -18t60.5 -48t36 -68t12 -78z" />
<glyph unicode="&#x178;" horiz-adv-x="541" d="M399 765q0 17 -10.5 29t-27.5 12t-28 -12.5t-11 -28.5t10 -28.5t28 -12.5q19 0 29 12.5t10 28.5zM220 765q0 17 -10.5 29t-27.5 12t-28 -12.5t-11 -28.5t10 -28.5t28 -12.5q19 0 29 12.5t10 28.5zM548 674h-56l-131 -210q-25 -40 -46 -74.5t-38 -66.5h-2 q-19 35 -38.5 67.5t-43.5 73.5l-125 210h-56l236 -386v-288h49v286z" />
<glyph unicode="&#x2c6;" d="M267 542l-100 140h-38l-96 -140h47l67 102h2l67 -102h51z" />
<glyph unicode="&#x2dc;" d="M266 657h-30q-2 -26 -8.5 -34.5t-16.5 -8.5q-14 0 -25.5 4.5t-23.5 10.5q-23 11 -37.5 18t-31.5 7q-29 0 -44 -26.5t-14 -59.5h31q2 20 8.5 33t19.5 13q11 0 22.5 -4.5t29.5 -14.5q17 -9 31.5 -15t28.5 -6q32 0 46 22.5t14 60.5z" />
<glyph unicode="&#x2000;" horiz-adv-x="412" />
<glyph unicode="&#x2001;" horiz-adv-x="825" />
<glyph unicode="&#x2002;" horiz-adv-x="412" />
<glyph unicode="&#x2003;" horiz-adv-x="825" />
<glyph unicode="&#x2004;" horiz-adv-x="275" />
<glyph unicode="&#x2005;" horiz-adv-x="206" />
<glyph unicode="&#x2006;" horiz-adv-x="137" />
<glyph unicode="&#x2007;" horiz-adv-x="137" />
<glyph unicode="&#x2008;" horiz-adv-x="103" />
<glyph unicode="&#x2009;" horiz-adv-x="165" />
<glyph unicode="&#x200a;" horiz-adv-x="45" />
<glyph unicode="&#x2010;" d="M270 261v43h-240v-43h240z" />
<glyph unicode="&#x2011;" d="M270 261v43h-240v-43h240z" />
<glyph unicode="&#x2012;" d="M270 261v43h-240v-43h240z" />
<glyph unicode="&#x2013;" horiz-adv-x="500" d="M470 232v40h-440v-40h440z" />
<glyph unicode="&#x2014;" horiz-adv-x="1000" d="M970 232v40h-940v-40h940z" />
<glyph unicode="&#x2018;" horiz-adv-x="175" d="M154 695l-34 -5q-6 -11 -16.5 -35.5t-21.5 -55.5t-21.5 -64.5t-17.5 -61.5l59 10q3 23 9.5 53t14 60t15 56.5t13.5 42.5z" />
<glyph unicode="&#x2019;" horiz-adv-x="175" d="M154 695l-59 -10q-3 -23 -9.5 -53.5t-14 -60.5t-15 -56t-13.5 -42l34 5q6 10 16 35t21.5 56t22 64.5t17.5 61.5z" />
<glyph unicode="&#x201a;" horiz-adv-x="231" d="M339 710q-16 10 -49 16q-7 1 -14.5 1.5t-15.5 0.5q-68 0 -114 -43q-31 -29 -44.5 -74.5t-13.5 -107.5v-588q0 -21 -4.5 -42t-10.5 -37.5t-10.5 -26.5l-4.5 -10l49 -10l4.5 10.5t10.5 28.5t10.5 41t4.5 47v588q0 36 5 69.5t18 58.5t36 40t60 15q24 0 40 -4.5t27 -10.5z " />
<glyph unicode="&#x201c;" horiz-adv-x="294" d="M273 695l-34 -5q-6 -11 -16.5 -35.5t-21.5 -55.5t-21.5 -64.5t-17.5 -61.5l59 10q3 23 9.5 53t14 60t15 56.5t13.5 42.5zM154 695l-34 -5q-6 -11 -16.5 -35.5t-21.5 -55.5t-21.5 -64.5t-17.5 -61.5l59 10q3 23 9.5 53t14 60t15 56.5t13.5 42.5z" />
<glyph unicode="&#x201d;" horiz-adv-x="294" d="M273 695l-59 -10q-3 -23 -9.5 -53.5t-14 -60.5t-15 -56t-13.5 -42l34 5q6 10 16 35t21.5 56t22 64.5t17.5 61.5zM154 695l-59 -10q-3 -23 -9.5 -53.5t-14 -60.5t-15 -56t-13.5 -42l34 5q6 10 16 35t21.5 56t22 64.5t17.5 61.5z" />
<glyph unicode="&#x201e;" horiz-adv-x="294" d="M251 96l-59 -10q-3 -23 -9.5 -53.5t-14 -60.5t-15 -56t-13.5 -42l34 5q6 10 16 35t21.5 56t22 64.5t17.5 61.5zM132 96l-59 -10q-3 -23 -9.5 -53.5t-14 -60.5t-15 -56t-13.5 -42l34 5q6 10 16 35t21.5 56t22 64.5t17.5 61.5z" />
<glyph unicode="&#x2022;" horiz-adv-x="235" d="M197 345q0 32 -23 55t-56 23q-16 0 -30.5 -6t-25 -16.5t-16.5 -25t-6 -30.5q0 -33 23 -55.5t55 -22.5q33 0 56 23t23 55z" />
<glyph unicode="&#x2026;" horiz-adv-x="1000" d="M874 34q0 20 -11.5 33.5t-30.5 13.5t-30.5 -13.5t-12.5 -33.5q0 -18 11.5 -32t30.5 -14q20 0 31.5 14t11.5 32zM542 34q0 20 -11.5 33.5t-30.5 13.5t-30.5 -13.5t-12.5 -33.5q0 -18 11.5 -32t30.5 -14q20 0 31.5 14t11.5 32zM210 34q0 20 -11.5 33.5t-30.5 13.5 t-30.5 -13.5t-12.5 -33.5q0 -18 11.5 -32t30.5 -14q20 0 31.5 14t11.5 32z" />
<glyph unicode="&#x202f;" horiz-adv-x="165" />
<glyph unicode="&#x2039;" horiz-adv-x="260" d="M239 68l-157 184l156 184h-52l-156 -184l157 -184h52z" />
<glyph unicode="&#x203a;" horiz-adv-x="260" d="M230 252l-157 184h-52l157 -184l-156 -184h51z" />
<glyph unicode="&#x205f;" horiz-adv-x="206" />
<glyph unicode="&#x20ac;" horiz-adv-x="671" d="M655 27l-15 39q-35 -17 -81.5 -26.5t-96.5 -9.5q-60 0 -109 13.5t-87 38t-65 58.5t-42 75h377v40h-389q-8 38 -8 75q0 41 7 75h390v40h-379q30 90 110 145t207 55q48 0 90.5 -9.5t72.5 -24.5l16 41q-17 8 -61 21t-121 13q-75 0 -135 -19t-106 -52t-77 -77t-47 -93h-86 v-40h75q-4 -17 -5.5 -35t-1.5 -36q0 -44 7 -79h-75v-40h85q18 -58 52.5 -100.5t79.5 -70.5t98 -42t109 -14q73 0 127.5 12.5t83.5 26.5z" />
<glyph unicode="&#x2122;" horiz-adv-x="792" d="M761 276l-35 398h-49l-101 -255q-8 -19 -14.5 -43t-13.5 -53h-2q-8 29 -14.5 52.5t-14.5 42.5l-103 256h-48l-34 -398h39l20 270q2 24 1.5 46t0.5 46h3q6 -23 14 -49t16 -45l102 -263h32l101 255q9 23 17.5 50.5t16.5 51.5h3q1 -23 0 -48.5t1 -43.5l22 -270h40zM326 640 v34h-316v-34h139v-364h38v364h139z" />
<glyph unicode="&#xe000;" horiz-adv-x="480" d="M0 480h480v-480h-480v480z" />
</font>
</defs>
</svg>
