<?xml version="1.0" standalone="no"?>
<!DOCTYPE svg PUBLIC "-//W3C//DTD SVG 1.1//EN" "http://www.w3.org/Graphics/SVG/1.1/DTD/svg11.dtd" >
<svg xmlns="http://www.w3.org/2000/svg">
<metadata></metadata>
<defs>
<font id="pecitamedium" horiz-adv-x="480" >
<font-face units-per-em="1000" ascent="688" descent="-312" />
<missing-glyph horiz-adv-x="500" />
<glyph unicode="cc" horiz-adv-x="360" d="M0 0v360h360v-360h-360z" />
<glyph unicode="&#xfb01;" horiz-adv-x="736" d="M40 -190q0 23 9 47.5t18.5 40t31 38.5t29.5 31t32 29q-48 212 -48 454q0 33 6.5 71t20 77t39.5 64.5t59 25.5q31 0 54.5 -20t35 -48.5t16.5 -52.5t5 -41q0 -108 -99 -197q-11 -10 -25 -13h-3q-32 0 -32 29l1 5q3 10 23 31q72 76 72 145q0 28 -15.5 65t-32.5 37h-2 q-20 -4 -41 -60t-21 -118q0 -220 44 -422q190 153 236 183q58 37 102 37h1q11 0 20.5 -3t16.5 -7t13.5 -12.5t10.5 -13.5t9 -17t6.5 -16.5t5.5 -17.5t5 -15q0 -4 11 -36.5t17 -36.5q7 0 53 22l14 7v-60q-1 -1 -7 -4.5t-12 -6t-14 -6t-17 -5.5t-18 -2q-31 0 -47 21t-40 89 l-3 10q-3 10 -7 20.5t-9 20.5t-9 12q-25 0 -82.5 -40t-237.5 -186q13 -52 13 -119q0 -158 -106 -158q-102 0 -102 122zM100 -190q0 -19 2 -31t12 -21.5t28 -9.5q43 0 43 98q0 55 -8 85q-77 -68 -77 -121zM532 450q0 20 13 29t27 9q48 0 48 -50q0 -17 -13 -27.5t-31 -10.5 t-31 16.5t-13 33.5z" />
<glyph unicode="&#xfb02;" horiz-adv-x="872" d="M40 -150q0 54 41 94t101 66q-70 214 -70 440q0 33 6.5 71t20 77t39.5 64.5t59 25.5q30 0 53 -20t34.5 -48.5t16.5 -53t5 -40.5q0 -108 -98 -197q-11 -10 -25 -13h-3q-31 0 -31 29q0 5 1 5q1 8 22 31q72 76 72 145q0 28 -15.5 65t-31.5 37h-2q-21 -4 -42 -60t-21 -118 q0 -222 67 -428q72 31 174 91.5t138 87.5q-21 48 -21 173q0 118 51 216t103 98q74 0 74 -136q0 -137 -43 -229t-88 -129q67 -118 171 -118q22 0 62 20l14 7v-60q-48 -24 -76 -24q-46 0 -86.5 16t-67.5 41t-42.5 44.5t-26.5 38.5q-45 -31 -149 -90t-170 -87q16 -50 16 -108 q0 -72 -33.5 -129t-91.5 -57q-40 0 -65.5 27.5t-33.5 61.5t-8 73zM100 -150q0 -38 11.5 -70t35.5 -32q26 0 44.5 43t18.5 83q0 41 -12 82q-39 -18 -68.5 -45.5t-29.5 -60.5zM593 372q0 -70 10 -126q19 23 37.5 55.5t37 102t18.5 148.5q0 60 -12 75q-25 -19 -58 -90t-33 -165 z" />
<glyph unicode="&#xfb03;" horiz-adv-x="1096" d="M0 27v61l6 2q34 22 128 111q-22 129 -22 249q0 33 6.5 71t20 77t39.5 64.5t59 25.5q30 0 53 -20t34 -48.5t16 -52.5t5 -41q0 -194 -145 -351q12 -63 34 -136q196 203 267 283q0 14 -1 101t-1 107q0 66 25 92t57 26q56 0 86 -41.5t30 -80.5q0 -91 -124 -222 q2 -266 9.5 -375.5t24.5 -129.5q5 -3 6 -3q10 5 127 214q17 30 37 67t30.5 56.5t24 42.5t22 34t19.5 22t21 14.5t23 3.5q11 0 20.5 -3t16 -7t13.5 -12.5t10.5 -13.5t8.5 -17.5t6.5 -16t6 -18t4.5 -15.5q0 -4 11 -36t17 -36q10 1 53 21l14 7v-60q-2 -1 -14 -7.5t-26.5 -11.5 t-27.5 -5q-31 0 -47 21t-39 90l-3 10l-6.5 19.5t-8.5 20.5t-9 12q-9 -5 -111 -187q-19 -34 -41.5 -75.5t-34.5 -63.5t-26.5 -47.5t-24 -38t-21 -24.5t-22 -16t-22.5 -4q-19 0 -33 6t-24 21.5t-17 32.5t-11.5 47t-7 57.5t-3.5 72.5t-2 82t-2 96.5t-2 106.5 q-99 -112 -256 -263q16 -55 16 -121q0 -72 -33.5 -129t-90.5 -57q-52 0 -80 33t-28 89q0 80 143 202q-23 66 -35 122q-34 -29 -78.5 -62t-55.5 -38zM100 -190q0 -62 48 -62q26 0 44 43t18 83q0 52 -6 80q-33 -30 -49 -46t-35.5 -45t-19.5 -53zM173 444q0 -98 14 -190 q97 126 97 272q0 28 -15.5 65t-31.5 37h-2q-19 -4 -40 -56.5t-22 -121.5v-6zM560 527q0 -40 5 -145q71 91 71 144q0 23 -17 42.5t-38 19.5t-21 -61zM894 450q0 20 12.5 29t26.5 9q47 0 47 -50q0 -17 -13 -27.5t-30 -10.5q-18 0 -30.5 16.5t-12.5 33.5z" />
<glyph horiz-adv-x="1000" />
<glyph horiz-adv-x="1000" />
<glyph unicode="&#xd;" horiz-adv-x="1000" />
<glyph unicode=" " />
<glyph unicode="!" horiz-adv-x="240" d="M70 620q0 25 26 25q15 0 22 -5.5t11 -21.5q0 -2 3.5 -15t8 -36.5t8.5 -49.5q11 -70 11 -268q0 -30 -30 -30t-30 30q0 198 -9 256q-4 26 -8.5 48t-7.5 34.5t-3 13.5q-2 10 -2 19zM74 40q0 28 30 28q18 0 26 -8t8 -32q0 -12 -11.5 -20t-22.5 -8q-14 0 -22 12.5t-8 27.5z " />
<glyph unicode="&#x22;" horiz-adv-x="300" d="M40 658q0 30 30 30t30 -30q0 -121 8 -145q22 26 61.5 65.5t49.5 39.5q41 0 41 -32q0 -6 -15.5 -97t-15.5 -119q0 -14 -10 -22t-20 -8q-12 0 -21 8.5t-9 21.5q0 47 17 136q-31 -31 -49 -51q-2 -2 -5.5 -6.5t-5.5 -6t-5.5 -4.5t-6.5 -4.5t-7 -2.5t-9 -1q-29 0 -39 24 q-19 46 -19 204z" />
<glyph unicode="#" d="M40 108q0 11 4 19t13 13t15.5 7t20.5 4.5t18 3.5q14 32 40 66q-79 5 -89 8q-22 6 -22 27q0 34 30 34q9 0 63.5 -4.5t67.5 -4.5q6 7 13 16t11.5 15l7.5 10q16 18 30 18q28 0 28 -31q0 -12 -13 -29h17q10 18 36 50q22 30 46 30q26 0 26 -23q0 -7 -5 -15q-2 -5 -13.5 -19.5 t-16.5 -22.5q13 0 26.5 1t19.5 1q26 0 26 -29q0 -32 -38 -32q-4 0 -29 -0.5t-40 -0.5q-17 -26 -31 -58q13 -1 32 -4t34.5 -5.5t17.5 -2.5q9 -1 18.5 -8.5t9.5 -20.5q0 -16 -9.5 -23.5t-18.5 -7.5q-18 0 -57.5 6t-47.5 7q-17 -60 -29 -73q-9 -9 -23 -9t-20.5 10t-6.5 19 q0 14 14 53q-22 0 -67 -5q-15 -41 -15 -68q0 -30 -30 -30t-30 30q0 15 9 55q-3 0 -7 -1t-7 -1.5t-5 -0.5q-24 0 -24 26zM185 162q34 2 50 2q13 31 27 56h-35q-23 -27 -42 -58z" />
<glyph unicode="$" d="M40 155q0 27 36 27q4 0 25.5 -4.5t51.5 -11t44 -9.5q0 62 -5 106q-22 3 -32 5t-37 10.5t-42 19.5t-28 31.5t-13 47.5q0 45 35.5 75t72.5 39q-2 9 -7 25.5t-8.5 28t-3.5 15.5q0 12 9 19t22 7q28 0 37 -28q1 -6 7.5 -24.5t9.5 -30.5q102 17 166 17q32 0 32 -30t-32 -30 q-42 0 -150 -18q20 -62 27 -132q83 -20 127 -51q32 -23 44 -48.5t12 -65.5q0 -81 -86 -81q-15 0 -90 15v-52q0 -5 -2 -10.5t-10 -11t-22 -5.5q-16 0 -24.5 8.5t-8.5 18.5v64l-111 23q-46 9 -46 41zM100 380q0 -44 87 -56q-7 62 -24 112q-63 -13 -63 -56zM261 249 q3 -38 3 -111q15 -3 37.5 -7t35.5 -6.5t17 -2.5q26 0 26 23q0 25 -6.5 38.5t-23.5 26.5q-32 24 -89 39z" />
<glyph unicode="%" horiz-adv-x="880" d="M40 415q0 13 2.5 25t5.5 20.5t10.5 19t11.5 15.5t15 14t14.5 11.5t16 11.5t14.5 10q20 14 40 14q9 0 17 -7t8 -17q0 -19 -31 -40q-6 -4 -17.5 -11.5t-16 -11t-12 -10t-10.5 -12t-5.5 -13.5t-2.5 -17q0 -14 12 -22.5t28 -8.5q32 0 66 10t54 21.5t20 18.5q0 3 -1.5 5.5 t-6 5.5t-7 5t-10 5.5t-10.5 5.5q-20 11 -26 17.5t-6 16.5q0 12 8 19.5t20 7.5q15 0 33 -9q42 -20 55 -38.5t13 -42.5q0 -40 -64.5 -74t-137.5 -34q-44 0 -72 24.5t-28 64.5zM237 27q0 8 4 18q59 104 166 286t141 231q17 24 37 24q27 0 27 -25q0 -15 -9 -29 q-34 -47 -140 -228.5t-163 -284.5q-11 -19 -34 -19q-14 0 -21.5 8t-7.5 19zM598 161q0 43 28 70t72 27q50 0 96 -41t46 -79q0 -49 -33.5 -78.5t-92.5 -29.5q-48 0 -79.5 26.5t-31.5 71.5q-5 13 -5 33zM658 158q0 -20 5 -30q0 -17 14.5 -27.5t36.5 -10.5q26 0 46 13t20 35 q0 14 -29.5 37t-52.5 23q-17 0 -28.5 -11t-11.5 -29z" />
<glyph unicode="&#x26;" d="M40 82q0 67 86 129q-19 31 -28.5 50t-17.5 48t-8 61q0 23 7.5 57t22 71t41 62.5t59.5 25.5q27 0 46.5 -15t29 -35.5t15 -53.5t6.5 -56t1 -56q0 -105 -91 -172q38 -58 70 -92q36 25 90 117q11 18 16 25.5t12 13.5t13 6q30 0 30 -26q0 -1 -9 -28q-10 -26 -43.5 -75.5 t-61.5 -70.5q19 -19 82 -68q1 -1 4 -3l4.5 -3t3.5 -2.5t3 -2.5t2.5 -3t2 -3l1.5 -3t1 -4.5v-4.5q0 -13 -9 -20.5t-22 -7.5t-29 11q-62 42 -95 79q-16 -11 -26 -16t-35 -11t-56 -6q-41 0 -79.5 21.5t-38.5 60.5zM100 82q0 -6 20.5 -14t37.5 -8q37 0 69 13q-36 44 -65 88 q-6 -6 -21.5 -18t-22 -18t-12.5 -17.5t-6 -25.5zM132 369q0 -51 42 -121q66 58 66 122q0 69 -4.5 103.5t-11.5 43.5t-22 9q-17 0 -43.5 -60t-26.5 -97z" />
<glyph unicode="'" horiz-adv-x="224" d="M40 454q0 7 4 15q56 105 56 189q0 30 30 30t30 -30q0 -93 -56 -204q-15 -30 -34 -30q-30 0 -30 30z" />
<glyph unicode="(" horiz-adv-x="280" d="M40 148q0 299 93 502q19 38 38 38q29 0 29 -26q0 -9 -4 -21q-96 -203 -96 -493q0 -165 13 -245.5t56 -170.5q5 -5 5 -18q0 -26 -29 -26q-21 0 -40 33q-30 61 -45 137.5t-17.5 133.5t-2.5 156z" />
<glyph unicode=")" horiz-adv-x="280" d="M40 657q0 31 30 31t54 -20q116 -90 116 -560q0 -205 -44 -384q-9 -36 -32 -36q-30 0 -30 30q0 9 4 25q42 176 42 365q0 117 -9 222t-34.5 195t-64.5 103q-32 12 -32 29z" />
<glyph unicode="*" d="M90 180q0 30 30 30h83q-17 24 -33 58q-3 9 -3 12q0 30 30 30q19 0 28 -15q32 -58 44 -74l63 63q16 16 30 16q30 0 30 -30q0 -12 -15 -27l-33 -33h16q30 0 30 -30t-30 -30h-26q27 -22 27 -34q0 -14 -10 -22t-20 -8t-26 10q-28 17 -44 33l-62 -62q-8 -8 -20 -8 q-29 0 -29 32q0 13 8 20l39 39h-77q-30 0 -30 30z" />
<glyph unicode="+" d="M110 190q0 25 30 30l90 13v97q0 30 30 30t30 -30v-87q36 5 40 6l10 1q30 0 30 -30q0 -26 -30 -30l-50 -8v-76q0 -30 -30 -30t-30 30v67q-23 -3 -80 -12q-5 -1 -10 -1q-30 0 -30 30z" />
<glyph unicode="," horiz-adv-x="240" d="M80 -204q0 7 4 15q56 105 56 189q0 30 30 30t30 -30q0 -93 -56 -204q-15 -30 -34 -30q-30 0 -30 30z" />
<glyph unicode="-" d="M110 169q0 27 30 31q150 20 200 20q30 0 30 -30q0 -13 -8 -21.5t-22 -8.5q-48 0 -190 -19q-2 0 -5 -0.5t-5 -0.5q-30 0 -30 29z" />
<glyph unicode="." horiz-adv-x="240" d="M120 46q0 30 30 30q16 0 33 -14.5t17 -31.5q0 -14 -13.5 -22t-28.5 -8q-17 0 -27.5 14.5t-10.5 31.5z" />
<glyph unicode="/" horiz-adv-x="320" d="M40 -94q0 15 10 52q9 38 32 102q132 380 178 600q7 28 31 28q29 0 29 -30q0 -6 -8 -46q-44 -208 -171 -569q-36 -102 -41 -141q-1 -8 -9 -17t-21 -9q-30 0 -30 30z" />
<glyph unicode="0" d="M32 231q0 86 68.5 161.5t138.5 75.5q0 11 11 15q29 11 76 11q55 0 88.5 -48.5t33.5 -105.5q0 -103 -76 -176.5t-196 -73.5q-61 0 -102.5 41t-41.5 100zM92 232q0 -33 24.5 -57.5t59.5 -24.5q90 0 151 55t61 135q0 38 -16.5 66t-45.5 28q-33 0 -52 -8q0 -9 -8 -13.5 t-14 -4.5q-53 0 -106.5 -55t-53.5 -121z" />
<glyph unicode="1" d="M40 68q0 13 22 29q92 72 203 222.5t111 236.5q0 30 30 30q14 0 19 -5.5t11 -23.5q4 -12 4 -49q0 -29 -9 -169t-9 -170q0 -66 11 -118l1 -8q2 -8 2 -13q0 -30 -30 -30q-22 0 -30 28q-14 72 -14 141q0 49 10 194q-60 -106 -165 -214.5t-137 -108.5q-30 0 -30 28z" />
<glyph unicode="2" d="M113 120q0 49 24 114t53 114.5t53 89.5t24 46q0 19 -4 29t-7 11.5t-9 1.5q-17 0 -29 -3.5t-16.5 -7.5t-4.5 -7q0 -2 3 -7t3 -8q0 -13 -9.5 -20t-22.5 -7q-34 0 -34 45q0 31 29.5 53t80.5 22q46 0 63 -19t17 -83q0 -19 -24 -60t-53 -84t-53 -104.5t-24 -115.5 q0 -23 14 -37q7 -7 63.5 -15t86.5 -8t30 -30t-30 -30q-41 0 -107 10.5t-83 27.5q-34 34 -34 82z" />
<glyph unicode="3" d="M88 516q0 18 30 32q79 38 130 38q46 0 86 -27.5t40 -68.5q0 -33 -16 -63t-35 -47t-35 -31.5t-16 -20.5q0 -11 6 -17q11 -16 42.5 -47t51.5 -61t20 -62q0 -42 -42 -76t-89 -49.5t-79 -15.5q-62 0 -62 34q0 30 30 30q5 0 16.5 -2t15.5 -2q38 0 94 28t56 53q0 18 -16.5 38 t-43.5 47.5t-42 49.5q-18 23 -18 52q0 23 16 44.5t35 36.5t35 36.5t16 44.5q0 14 -24 25t-42 11q-40 0 -112 -36q-12 -4 -18 -4q-30 0 -30 30z" />
<glyph unicode="4" d="M88 346q0 37 10.5 78t21 66t30.5 66q8 17 14.5 23.5t17.5 6.5q30 0 30 -30q0 -8 -8 -23q0 -1 -5.5 -10.5t-7 -13t-7 -14t-8 -16t-7 -17t-7 -20t-5.5 -21t-5 -23t-3 -24t-1 -26.5q0 -44 22.5 -76.5t59.5 -32.5q21 0 65.5 24t52.5 24q28 0 35 -7.5t7 -24.5q0 -5 -7.5 -25.5 t-15 -61.5t-7.5 -98q0 -2 16 -18t16 -22q0 -30 -30 -30q-28 0 -48 30q-14 25 -14 40q0 80 12 134q-34 -25 -82 -25q-61 0 -101.5 50t-40.5 117z" />
<glyph unicode="5" d="M46 79q0 30 30 30q11 0 32 -15q19 -12 45.5 -23t40.5 -11q98 0 98 64q0 31 -16.5 71t-31 64t-46.5 72q-6 9 -31.5 41t-42 58.5t-16.5 45.5q0 18 10 36t25 24q33 12 73.5 21t87 16.5t62.5 10.5q10 2 22 2q13 0 21.5 -9t8.5 -21q0 -24 -30 -30q-15 -3 -76.5 -12.5 t-102.5 -19t-41 -18.5q0 -4 10.5 -18.5t32.5 -44t39 -53.5q102 -146 102 -237q0 -48 -35.5 -85.5t-122.5 -37.5q-24 0 -58 12t-60 30q-30 21 -30 37z" />
<glyph unicode="6" d="M40 104q0 236 338 470q16 12 32 12q30 0 30 -30q0 -12 -30 -33q-310 -217 -310 -419q0 -16 9 -30t23 -14q69 0 134 43.5t65 78.5q0 19 -21.5 30.5t-48.5 11.5q-22 0 -41 -13q-6 -4 -13 -11t-12.5 -10.5t-10.5 -3.5q-30 0 -30 30q0 23 30 45q32 23 77 23q53 0 91.5 -28 t38.5 -74q0 -66 -83 -124t-176 -58q-41 0 -66.5 30.5t-25.5 73.5z" />
<glyph unicode="7" d="M40 496q0 27 14 46.5t35.5 28t39.5 12t34 3.5q90 0 139.5 -59.5t49.5 -166.5q0 -40 -31 -164q13 1 34.5 2.5t37 3t17.5 1.5q30 0 30 -30q0 -27 -30 -30q-65 -7 -104 -8q-28 -84 -65 -135q-2 -3 -6.5 -9t-6.5 -8.5t-5.5 -6t-7.5 -5t-9 -1.5q-30 0 -30 30q0 11 16 35 q32 49 46 93q-16 -1 -49.5 -6.5t-50.5 -5.5q-30 0 -30 30q0 24 30 30q46 8 119 15q3 11 10.5 38t12 45t8.5 42.5t4 43.5q0 166 -132 166q-19 0 -39.5 -8t-20.5 -22q0 -18 16 -32.5t16 -27.5t-8 -21.5t-22 -8.5q-10 0 -23 11t-19 19q-20 20 -20 60z" />
<glyph unicode="8" d="M98 120q0 7 3 22q4 24 29.5 67.5t51.5 73.5q-44 54 -61 83t-17 64q0 10 9 20t21 10t21 -9t9 -20q0 -32 61 -106q1 2 12.5 15t15 17.5t13.5 17t14.5 18.5t12.5 17.5t12 19t8.5 16.5t6.5 16.5t2 13.5q0 50 -30 50q-10 0 -38 -19t-38 -19q-30 0 -30 30q0 14 30 36 q45 32 76 32q43 0 66.5 -30.5t23.5 -79.5q0 -23 -9.5 -48t-32 -55.5t-34.5 -45t-41 -47.5q2 -3 23 -26.5t35.5 -43.5t28.5 -53.5t14 -66.5q0 -35 -22 -62.5t-68 -27.5q-65 0 -121.5 36.5t-56.5 83.5zM158 120q0 -16 39 -38t79 -22q30 0 30 30q0 23 -11.5 48t-23.5 41t-29 35 t-20 23q-23 -30 -43.5 -66.5t-20.5 -50.5z" />
<glyph unicode="9" d="M85 440q0 49 41 97.5t105 48.5q29 0 56 -21q23 -19 23 -32q0 -7 -3 -16q4 2 12 2q13 0 22 -9q1 -1 7.5 -5.5t9 -6.5t8.5 -10t9 -15.5t7.5 -21.5t6.5 -31t4 -41.5t2 -54.5q0 -57 -45.5 -154.5t-73.5 -133.5q-2 -3 -6 -8t-5.5 -7t-4.5 -5.5t-4.5 -5l-4 -4t-4.5 -3 t-4.5 -1.5t-5.5 -1.5t-6 -0.5q-30 0 -30 30q0 13 30 48q21 28 62.5 117t41.5 129q-30 -30 -136 -30q-54 0 -84 42.5t-30 103.5zM145 440q0 -41 16.5 -63.5t37.5 -22.5q83 0 108 23q15 13 18.5 20t3.5 22q0 25 -22 42q-1 1 -8 4t-10.5 8t-3.5 15l1 4q1 3 1 5q-16 0 -39 23 q-9 6 -17 6q-38 0 -62 -27t-24 -59z" />
<glyph unicode=":" horiz-adv-x="240" d="M98 268q0 30 30 30q16 0 33 -14.5t17 -31.5q0 -14 -13.5 -22t-28.5 -8q-17 0 -27.5 14.5t-10.5 31.5zM120 46q0 30 30 30q16 0 33 -14.5t17 -31.5q0 -14 -13.5 -22t-28.5 -8q-17 0 -27.5 14.5t-10.5 31.5z" />
<glyph unicode=";" horiz-adv-x="240" d="M80 -204q0 7 4 15q56 105 56 189q0 30 30 30t30 -30q0 -93 -56 -204q-15 -30 -34 -30q-30 0 -30 30zM98 268q0 30 30 30q16 0 33 -14.5t17 -31.5q0 -14 -13.5 -22t-28.5 -8q-17 0 -27.5 14.5t-10.5 31.5z" />
<glyph unicode="&#x3c;" d="M64 230q0 43 28 71l259 262q23 23 35 23q30 0 30 -30q0 -13 -20 -33l-260 -263q-12 -12 -12 -30q0 -14 20 -20q59 -19 93 -32.5t79.5 -39.5t83.5 -61q16 -15 16 -27q0 -30 -30 -30q-15 0 -27 12q-14 14 -29.5 25.5t-26 20t-29.5 18t-26 13.5t-31.5 12.5t-28.5 10.5 t-35 12t-35 11q-23 7 -38.5 27t-15.5 48z" />
<glyph unicode="=" d="M50 222q0 24 28 30q10 2 107 20t107 20q12 2 42 2q19 0 26.5 -0.5t19.5 -3t17 -9.5t5 -19q0 -30 -30 -30q-4 0 -15.5 1t-22.5 1q-26 0 -36 -2t-98 -18.5t-98 -18.5q-21 -3 -22 -3q-30 0 -30 30zM70 90q0 26 30 30q10 2 138.5 19t135.5 18q20 3 26 3q30 0 30 -30 q0 -25 -30 -30q-10 -2 -137 -18.5t-137 -18.5q-24 -3 -26 -3q-12 0 -21 8t-9 22z" />
<glyph unicode="&#x3e;" d="M36 556q0 30 28 30q9 0 28 -7q237 -92 306 -145q46 -34 46 -74q0 -38 -33 -69q-152 -147 -245 -271q-15 -20 -31 -20q-30 0 -30 30q0 4 13 26q99 134 246 272q20 17 20 32q0 9 -20 24q-63 47 -298 140q-30 12 -30 32z" />
<glyph unicode="?" horiz-adv-x="340" d="M46 576q0 46 33.5 79t80.5 33q59 0 96.5 -32.5t37.5 -97.5q0 -85 -63 -212l-15 -30l-14.5 -29t-10.5 -23t-8 -25.5t-2 -22.5q0 -30 -30 -30t-30 30q0 50 47 139q66 127 66 203q0 70 -74 70q-22 0 -38 -15.5t-16 -36.5q0 -9 28 -55q8 -14 8 -23q0 -30 -30 -30 q-16 0 -31 25q-3 4 -11.5 17.5t-12 20t-7.5 19.5t-4 26zM134 44q0 46 42 46q15 0 30.5 -13.5t15.5 -28.5q0 -48 -46 -48q-15 0 -28.5 14.5t-13.5 29.5z" />
<glyph unicode="@" horiz-adv-x="580" d="M36 90q0 201 96.5 300.5t265.5 99.5q58 0 102 -45.5t44 -114.5q0 -76 -51.5 -154t-118.5 -78q-41 0 -55 22q-13 -18 -20.5 -27t-27 -21t-41.5 -12q-33 0 -56.5 22.5t-23.5 67.5q0 56 29 99t67 43q49 0 79 -60q19 39 37 98q9 30 30 30q30 0 30 -30q0 -8 -3 -19 q-17 -63 -42 -109q-4 -7 -22 -32q6 -12 19 -12q35 0 72.5 59t37.5 113q0 46 -27 73t-59 27q-302 0 -302 -340q0 -71 19.5 -104.5t82.5 -33.5q103 0 258 96q6 4 8 5q10 7 26 7q30 0 30 -30q0 -15 -26 -30q-46 -28 -74 -44t-96.5 -40t-125.5 -24q-91 0 -126.5 51.5 t-35.5 146.5zM210 150q0 -30 20 -30q14 0 57 57q-1 3 -5 12t-7.5 15t-8 13t-9.5 11t-11 4q-11 0 -23.5 -27t-12.5 -55z" />
<glyph unicode="A" d="M40 30q0 3 1 7t1 5l117 458q21 86 89 86q18 0 36 -11q23 -17 34 -49q19 -60 60 -278h32q30 0 30 -30t-30 -30h-24q8 -72 8 -95q0 -51 -21 -72t-49 -21q-35 0 -65 41.5t-42.5 79t-12.5 47.5q0 42 33.5 61t78.5 19q-45 278 -68 278q-22 0 -32 -41l-116 -455 q-4 -16 -10.5 -23t-19.5 -7q-30 0 -30 30zM264 168q0 -18 23.5 -63t36.5 -45q10 0 10 33q0 45 -10 95q-60 0 -60 -20z" />
<glyph unicode="B" d="M40 328q0 25 7 64.5t21 85t41.5 77t62.5 31.5q41 0 60.5 -25t19.5 -65q0 -41 -16 -102.5t-16 -65.5q0 -20 34.5 -29.5t75.5 -13t75.5 -26.5t34.5 -67q0 -61 -62.5 -126.5t-157.5 -65.5q-46 0 -84 26t-38 44q0 30 30 30q7 0 35.5 -20t56.5 -20q69 0 114.5 48t45.5 84 q0 20 -34.5 29.5t-75.5 13t-75.5 26.5t-34.5 67q0 15 16 77.5t16 90.5q0 10 -0.5 15t-5.5 10t-14 5q-22 0 -47 -73t-25 -125t26 -156q2 -6 2 -12q0 -30 -30 -30q-24 0 -32 30q-26 104 -26 168z" />
<glyph unicode="C" d="M40 210q0 80 32 153t80 120.5t101 75t97 27.5q32 0 60 -15q30 -17 30 -35q0 -30 -30 -30q-9 0 -26.5 10t-33.5 10q-31 0 -73 -23t-82 -62t-67.5 -101t-27.5 -130q0 -61 32.5 -105.5t107.5 -44.5h60q37 0 92 10t76 16q10 4 14 4q30 0 30 -28q0 -17 -36 -35q-4 -2 -32 -8 t-70.5 -12.5t-73.5 -6.5h-60q-56 0 -97.5 21.5t-62.5 55.5t-30.5 67.5t-9.5 65.5z" />
<glyph unicode="D" d="M40 310q0 106 20 178q7 25 29.5 50t58.5 37q33 11 82 11q78 0 144 -58.5t66 -125.5q0 -54 -19 -100.5t-55.5 -84.5t-71.5 -66.5t-84.5 -65t-76.5 -61.5q-4 -3 -10.5 -9.5l-9.5 -9.5t-8.5 -6.5t-10 -4.5t-10.5 -1q-30 0 -30 31q0 11 30 38q33 30 97 78.5t100.5 78.5 t67.5 79t31 102q0 44 -50 85t-100 41q-39 0 -61 -8q-43 -15 -53 -54q-16 -61 -16 -154q0 -107 12 -155q2 -12 2 -15q0 -30 -30 -30q-15 0 -21 6.5t-10 23.5q-13 52 -13 170z" />
<glyph unicode="E" horiz-adv-x="400" d="M40 180q0 51 108 111q8 4 20.5 11t19 10.5t13.5 8t10 7.5t3 6q0 6 -22 22t-49 35t-49 50.5t-22 64.5q0 32 21.5 51.5t41.5 24t39 4.5q16 0 33.5 -5t28.5 -10.5t26 -14t18 -10.5q28 -14 28 -32q0 -12 -7.5 -21t-22.5 -9q-9 0 -27 10q-64 32 -77 32q-42 0 -42 -20t22.5 -43 t49 -41.5t49 -42.5t22.5 -45q0 -15 -5 -27t-16 -21.5t-20 -15t-26.5 -15t-25.5 -14.5q-7 -4 -18.5 -11t-17.5 -10.5t-15 -9t-13.5 -9t-9 -7.5t-6.5 -7.5t-2 -6.5q0 -35 48.5 -77.5t109.5 -42.5q27 0 51.5 3.5t37.5 7.5t26 9.5t15 5.5q10 4 14 4q30 0 30 -30q0 -15 -36 -33 q-5 -2 -25.5 -8t-54 -12.5t-58.5 -6.5q-85 0 -151.5 59.5t-66.5 120.5z" />
<glyph unicode="F" d="M40 380q0 110 64 174q32 32 126 32q51 0 104.5 -13.5t75.5 -24.5q17 -8 23.5 -14.5t6.5 -17.5q0 -30 -30 -30q-10 0 -26 8q-18 9 -68.5 20.5t-85.5 11.5q-68 0 -88 -20q-42 -42 -42 -126q0 -22 21 -53t53 -31q18 0 54.5 2t66 4t31.5 2q30 0 30 -30q0 -27 -29 -30 q-66 -8 -153 -8q-38 0 -64 20q15 -149 26 -210q2 -12 2 -16q0 -30 -30 -30q-26 0 -31 30q-12 70 -24.5 196t-12.5 154z" />
<glyph unicode="G" d="M40 220q0 85 28.5 157t73 116t94.5 68.5t97 24.5q40 0 73.5 -25.5t33.5 -74.5q0 -38 -15 -68q-7 -14 -17.5 -22t-17.5 -8q-12 0 -21 8t-9 22l8 20q12 24 12 48q0 20 -14 30t-33 10q-24 0 -53.5 -10.5t-61.5 -35t-58 -58.5t-43 -87t-17 -115q0 -72 40.5 -116t99.5 -44h60 q30 0 30 30q0 17 -15.5 27.5t-34.5 16t-34.5 22t-15.5 44.5q0 80 120 80h60q30 0 30 -31q0 -29 -30 -29h-60q-60 0 -60 -20q0 -6 15.5 -13.5t34.5 -16t34.5 -29.5t15.5 -51q0 -40 -25 -65t-65 -25h-60q-78 0 -139 58.5t-61 161.5z" />
<glyph unicode="H" d="M40 176q0 44 32.5 67t62.5 23q-25 219 -25 290q0 30 30 30t30 -30q0 -35 3.5 -84.5t7.5 -83.5t9 -78l6 -44q64 0 103 16t39 38q-1 8 -11.5 89t-13.5 103q-1 4 -1 14q0 30 29 30q27 0 31 -30q3 -21 15 -109t13 -97q4 -30 15 -83.5t18 -97t7 -79.5q0 -30 -30 -30t-30 30 q0 23 -3.5 51.5t-7.5 48t-9.5 47.5t-7.5 36q-48 -37 -151 -37q9 -79 9 -116q0 -90 -80 -90q-49 0 -70 60q-20 54 -20 116zM100 176q0 -26 8.5 -71t21.5 -45q14 0 17 6t3 24l-10 116q-16 0 -28 -8t-12 -22z" />
<glyph unicode="I" horiz-adv-x="560" d="M40 510q0 20 30 30q4 1 22.5 7.5t22.5 7.5t20.5 6t22 6.5t20 5t22.5 5t22 3.5t25 3t25.5 1.5t29.5 0.5q75 0 148 -44q30 -18 30 -32q0 -16 -6.5 -23t-23.5 -7q-12 0 -22 6q-67 40 -126 40q-55 0 -98.5 -10t-110.5 -32q-16 -4 -23 -4q-30 0 -30 30zM110 102q0 30 30 30 q13 0 21.5 -10.5t8.5 -14.5q9 -18 39 -34q-9 108 -9 227v120q0 30 30 30t30 -30v-120q0 -53 2.5 -113t5.5 -93l2 -33q2 0 12.5 -0.5t19.5 -0.5q73 0 167 68q8 6 21 6q30 0 30 -30q0 -11 -24 -29q-101 -75 -194 -75q-78 0 -121 20t-66 62q-5 10 -5 20z" />
<glyph unicode="J" d="M40 114q0 30 30 30q12 0 42 -15q53 -24 75.5 -34t64 -22.5t71.5 -12.5q22 0 39 13.5t17 30.5q0 21 -13.5 149t-13.5 190q0 66 18 116q2 8 11.5 17.5t22.5 9.5q28 0 28 -30q0 -4 -1 -10l-1 -7q-14 -49 -14 -97t12 -169t12 -171q0 -44 -34 -73t-83 -29q-21 0 -44.5 4 t-41 8.5t-44.5 15.5t-37.5 15.5t-38.5 17.5t-32 15q-17 8 -25 12t-14 11t-6 15z" />
<glyph unicode="K" d="M40 120q0 80 10 218t10 218q0 30 30 30t30 -30q0 -71 -3 -125t-5.5 -81t-2.5 -31q164 181 301 181q30 0 30 -30t-30 -30q-72 0 -155 -67q25 -59 38.5 -125t16.5 -102.5t17 -61t45 -24.5q9 0 28.5 5.5t43 13t24.5 7.5q10 4 14 4q30 0 30 -30q0 -15 -36 -33q-7 -3 -49 -15 t-55 -12q-44 0 -70.5 20t-38 57t-17 76.5t-15 91.5t-24.5 89q-71 -70 -89 -106.5t-18 -107.5q0 -30 -30 -30t-30 30z" />
<glyph unicode="L" horiz-adv-x="400" d="M40 110q0 43 12 196t12 194q0 12 -2 33t-2 22q0 31 30 31q27 0 30 -30q4 -24 4 -56q0 -44 -12 -195.5t-12 -194.5q0 -30 10.5 -40t33.5 -10h156q16 0 35.5 6t35 13t17.5 7q10 4 14 4q30 0 30 -30q0 -15 -36 -33q-54 -27 -96 -27h-156q-104 0 -104 110z" />
<glyph unicode="M" horiz-adv-x="640" d="M40 29q0 96 7.5 275.5t18.5 221.5q16 60 64 60q46 0 68 -60q12 -32 37.5 -138.5t48.5 -187t36 -80.5q9 0 20.5 82t23.5 177.5t20 116.5q9 28 23.5 44t42.5 16q48 0 69 -60q8 -20 16 -127t20 -198t31 -91q21 0 42 6q10 4 14 4q30 0 30 -30q0 -15 -36 -33q-14 -7 -50 -7 q-48 0 -73 60q-14 33 -23.5 139t-18 191.5t-21.5 85.5q-9 0 -20.5 -83.5t-23.5 -178.5t-20 -114q-1 -2 -4.5 -12t-7 -16t-10.5 -14.5t-18 -13t-26 -4.5q-48 0 -73 60q-15 33 -40.5 136.5t-47 186.5t-29.5 83q-13 0 -21.5 -195.5t-8.5 -301.5q0 -29 -30 -29q-16 0 -23 9.5 t-7 19.5z" />
<glyph unicode="N" horiz-adv-x="560" d="M40 30q0 7 2 17q8 54 23 223.5t15 195.5q0 40 22.5 65t57.5 25q51 0 78 -72q12 -31 22 -68t15 -61.5t11 -56.5t7 -38q18 -99 30 -134.5t27 -35.5q55 0 82.5 140t27.5 327q0 29 30 29t30 -29q0 -32 -2 -77.5t-8 -126t-23 -153t-42 -110.5q-39 -60 -95 -60q-18 0 -33 6.5 t-26 22.5t-18.5 29t-14 40.5t-10 41.5t-9 47t-7.5 43q-46 236 -72 236q-20 0 -20 -30q0 -26 -15.5 -200.5t-24.5 -235.5q-4 -30 -30 -30q-30 0 -30 30z" />
<glyph unicode="O" horiz-adv-x="580" d="M40 270q0 35 14 83.5t38 97t64 82.5t86 34q18 0 38 -2q28 21 100 21q51 0 89.5 -39t54.5 -89t16 -98q0 -43 -6.5 -86t-25.5 -94t-49 -89.5t-83 -64.5t-121 -26q-215 0 -215 270zM100 270q0 -111 38 -160.5t117 -49.5q61 0 106 25t70 68.5t37 95t12 111.5t-27 113t-73 53 q-17 0 -47 -4q-5 -21 -31 -21q-2 0 -5 0.5t-7 1.5t-7 1q-18 3 -41 3q-38 0 -72 -45t-52 -99.5t-18 -92.5z" />
<glyph unicode="P" d="M40 450q0 58 60.5 97t185.5 39q154 0 154 -136q0 -24 -10.5 -45.5t-23.5 -36.5t-39 -29t-42 -21.5t-48 -16.5t-42.5 -11.5t-38.5 -8.5q-15 -3 -16 -3q-30 0 -30 30q0 14 7 20t23 10q30 7 42.5 10t42.5 11.5t45 16.5t34 19t27.5 25t8.5 30q0 43 -18.5 59.5t-75.5 16.5 q-53 0 -92 -7.5t-58 -20t-27.5 -24.5t-8.5 -25q0 -66 27.5 -196t49.5 -206q3 -9 3 -17q0 -30 -30 -30q-14 0 -20 7t-10 23q-24 88 -52 218.5t-28 201.5z" />
<glyph unicode="Q" horiz-adv-x="660" d="M40 300q0 123 70.5 189.5t185.5 66.5q49 30 104 30q104 0 162 -66t58 -160q0 -100 -65 -188t-172 -147q0 -9 2.5 -17.5t7.5 -18t8.5 -15t10.5 -15.5t9 -12q9 -13 9 -25q0 -30 -30 -30q-16 0 -30 22q-2 2 -8 11.5t-10.5 16.5t-10.5 18t-10.5 23.5t-7.5 24.5q-29 -8 -70 -8 q-90 0 -151.5 75t-61.5 225zM100 300q0 -105 37.5 -172.5t115.5 -67.5q42 0 70 12q0 17 -2.5 33.5t-5.5 29.5t-9 25.5t-11 21t-12.5 17.5t-12.5 14.5t-13 12t-11.5 9t-10 7.5t-7.5 5q-58 41 -58 113q0 56 59 129l-11 -4q-11 -4 -18 -7t-20.5 -11t-23 -16.5t-21 -23.5 t-18.5 -32t-12 -42t-5 -53zM230 360q0 -18 10 -36.5t22 -27.5q1 -1 9 -6t13 -9l15 -12t17.5 -16.5t17 -20.5t16.5 -26t14 -30.5t11.5 -37.5t6.5 -44q67 36 122.5 110t55.5 156q0 79 -45.5 122.5t-114.5 43.5q0 -30 -30 -30h-50q-90 -82 -90 -136z" />
<glyph unicode="R" horiz-adv-x="540" d="M40 260q0 78 31 151t97 124t152 51q83 0 131.5 -39.5t48.5 -116.5q0 -170 -220 -170q19 -10 35.5 -20t32.5 -22.5t27 -20.5t26.5 -23t22 -21.5l24 -24l22.5 -22.5q30 -30 30 -46q0 -30 -30 -30q-4 0 -7.5 1t-7.5 4.5t-6.5 5.5t-8.5 8.5t-10 10.5q-6 6 -23.5 24 t-24.5 24.5t-24 22t-31 26t-36.5 26.5t-49.5 32.5t-61 36.5q-30 17 -30 38q0 30 30 30h100q83 0 121.5 24t38.5 86q0 49 -28.5 72.5t-91.5 23.5q-53 0 -96 -24.5t-69.5 -64.5t-40.5 -85.5t-14 -91.5q0 -124 22 -215q2 -6 2 -15q0 -30 -30 -30q-11 0 -19 10.5t-11 19.5 q-24 96 -24 230z" />
<glyph unicode="S" d="M40 30q0 30 30 30q74 0 131.5 4.5t90 11t53.5 15t28 15.5t7 14q0 17 -35 31.5t-85 30.5t-100 39t-85 67.5t-35 105.5q0 81 70 136.5t168 55.5q54 0 90.5 -32t36.5 -82q0 -40 -41 -81q-29 -29 -42 -29q-30 0 -30 30q0 13 30 43q23 23 23 37q0 24 -18.5 39t-47.5 15 q-74 0 -126.5 -37.5t-52.5 -96.5q0 -49 35 -82t85 -51t100 -33.5t85 -41.5t35 -64q0 -61 -87.5 -90.5t-282.5 -29.5q-30 0 -30 30z" />
<glyph unicode="T" horiz-adv-x="520" d="M40 556q0 30 30 30q155 0 380 -46q12 -2 21 -13.5t9 -26.5t-10 -27.5t-20 -12.5q-88 0 -144 -64t-56 -156v-210q0 -30 -30 -30t-30 30v210q0 89 45 160t115 100q-150 26 -280 26q-30 0 -30 30z" />
<glyph unicode="U" d="M40 300q0 103 20 206q3 14 12 22t18 8q30 0 30 -30q0 -3 -1.5 -10t-1.5 -9q-17 -84 -17 -187q0 -40 1 -67.5t6.5 -63t14.5 -58t27 -38t43 -15.5q55 0 99 58.5t66.5 141.5t22.5 166q0 54 -17 121q0 1 -0.5 5t-0.5 6q0 14 8.5 22t18.5 8q25 0 33 -30q18 -74 18 -132 q0 -68 -16 -140.5t-45 -137t-78 -105.5t-109 -41q-49 0 -81.5 26t-47 75t-19 93.5t-4.5 105.5z" />
<glyph unicode="V" d="M40 497q0 29 30 29q27 0 30 -30q14 -125 56 -280.5t64 -155.5q7 0 28 90.5t57.5 217.5t74.5 194q14 24 30 24q30 0 30 -30q0 -10 -6 -21q-38 -69 -68.5 -172.5t-50.5 -193t-28 -109.5q-7 -17 -12 -27t-20 -21.5t-35 -11.5q-8 0 -15 1.5t-13 4.5t-10.5 5.5t-9.5 7.5 t-7.5 8t-6.5 9.5t-5 8.5t-5 9l-3 6q-24 47 -57.5 180t-45.5 240q-2 12 -2 17z" />
<glyph unicode="W" horiz-adv-x="720" d="M40 496q0 30 30 30q27 0 30 -27q14 -124 56 -281.5t64 -157.5q10 0 20.5 70t21 157.5t17.5 112.5q18 60 66 60q14 0 25 -4t18 -12.5t10.5 -14t8 -16.5t5.5 -13q8 -16 29.5 -104t43.5 -162t35 -74q8 0 22 81.5t35.5 209.5t42.5 205q4 16 10.5 23t19.5 7q30 0 30 -30 q0 -9 -2 -17q-25 -88 -54.5 -277t-42.5 -216q-7 -15 -11.5 -22.5t-17.5 -15.5t-32 -8q-50 0 -74 60q-17 40 -38.5 127.5t-38 150t-24.5 62.5t-17.5 -70.5t-20 -157t-20.5 -112.5q-6 -16 -11 -25.5t-20.5 -22t-35.5 -12.5q-17 0 -29.5 5t-22 17t-12.5 17.5t-11 20.5 q-24 47 -57.5 180t-45.5 240q0 3 -0.5 5t-1 3.5t-0.5 3.5v4z" />
<glyph unicode="X" d="M40 556q0 30 30 30q13 0 35 -33q7 -10 68 -96.5t67 -96.5l100 160q21 36 40 36q30 0 30 -29q0 -10 -16 -34l-116 -187q7 -10 74.5 -106t74.5 -106q13 -21 13 -34q0 -30 -30 -30q-12 0 -32 30q-7 10 -68 95.5t-67 95.5q-105 -171 -123 -221q-11 -30 -30 -30q-30 0 -30 30 q0 16 5 27q39 87 140 248q-6 10 -75 108.5t-76 108.5q-14 22 -14 34z" />
<glyph unicode="Y" d="M40 556q0 30 29 30q11 0 31 -24q4 -4 27 -34t37.5 -44.5t44 -30t61.5 -15.5q28 0 61.5 21t47.5 51q13 30 31 30q30 0 30 -30q0 -53 -33 -132l-141 -351q-11 -27 -31 -27q-30 0 -30 30q0 5 7 24l138 346q-37 -22 -80 -22q-22 0 -43 5t-37 11t-33.5 19t-27.5 21t-25 25.5 t-19.5 23.5t-17.5 24t-14 19q-3 3 -8 14t-5 16z" />
<glyph unicode="Z" horiz-adv-x="540" d="M40 280q0 30 30 30h196q40 29 66 51t53 61t27 74q0 14 -18 22t-36 8q-109 0 -261 -47q-26 -7 -27 -7q-30 0 -30 30q0 23 30 32q175 52 288 52q44 0 79 -24t35 -66q0 -97 -107 -186h105q30 0 30 -30t-30 -30h-184q-103 -74 -125 -96q-31 -30 -31 -54q0 -40 172 -40 q34 0 64 1t51.5 3.5t38.5 4.5t30 5t20 5t14 4.5t8 2.5q10 4 14 4q30 0 30 -30q0 -15 -36 -33q-54 -27 -234 -27q-43 0 -75.5 2.5t-72.5 11.5t-62 31t-22 55q0 71 113 150h-113q-30 0 -30 30z" />
<glyph unicode="[" d="M40 0q0 65 10 164t10 196q0 54 -10 137.5t-10 88.5q0 30 18 52t44.5 32t47.5 14t36 4q34 0 76 -34q30 -24 30 -38q0 -30 -30 -30q-9 0 -38 21t-38 21q-29 0 -57.5 -11t-28.5 -31q0 -50 10 -117.5t10 -108.5q0 -62 -10 -182t-10 -178q0 -31 43.5 -45.5t98.5 -14.5 q45 0 136 26q14 4 20 4q30 0 30 -30q0 -20 -30 -30q-92 -30 -158 -30q-84 0 -142 30t-58 90z" />
<glyph unicode="\" horiz-adv-x="320" d="M40 556q0 30 30 30q24 0 30 -30q9 -40 22.5 -88t29.5 -94.5t32.5 -91t32.5 -85t28 -69.5t21.5 -51.5t9.5 -23.5q4 -11 4 -23q0 -30 -30 -30q-18 0 -30 30q-145 363 -178 512q-2 12 -2 14z" />
<glyph unicode="]" d="M100 -60q0 30 30 30q37 0 110.5 -15t109.5 -15q14 0 22 18t8 42q0 38 -32 101.5t-32 114.5q0 71 20 175.5t20 164.5q0 34 -22 53t-83 19q-91 0 -91 -52q0 -30 -30 -30t-30 30q0 16 4.5 31t18 35.5t46.5 33t81 12.5q51 0 86 -12.5t51.5 -34t22.5 -42t6 -43.5 q0 -65 -20 -168t-20 -172q0 -38 32 -101.5t32 -114.5t-24.5 -85.5t-65.5 -34.5q-37 0 -110.5 15t-109.5 15q-30 0 -30 30z" />
<glyph unicode="^" horiz-adv-x="400" d="M40 510q0 15 30 43q9 9 27.5 27t25.5 25.5t21.5 21t21 19t18.5 14.5t19.5 12.5t17.5 8t19.5 6t19.5 1.5q14 0 26.5 -5.5t21 -13.5t16 -21t12 -23.5t9 -26.5t6.5 -24t4.5 -21.5t2.5 -14.5q2 -7 2 -12q0 -30 -29 -30q-25 0 -31 30q-20 102 -40 102q-21 0 -48 -22t-100 -96 l-6 -6t-6 -5.5t-5 -4.5l-4.5 -4.5t-4.5 -3.5t-4.5 -2.5t-3.5 -1.5t-4 -1.5t-4 -0.5q-30 0 -30 30z" />
<glyph unicode="_" d="M0 56q0 30 21 30q5 0 39.5 -6.5t94 -13t125.5 -6.5h60q53 0 128 28q10 2 14 2q30 0 30 -28q0 -17 -36 -35q-7 -3 -23.5 -8.5t-49 -12t-63.5 -6.5h-60q-126 0 -260 26q-20 4 -20 30z" />
<glyph unicode="`" horiz-adv-x="280" d="M40 658q0 30 30 30q17 0 32 -30q35 -69 108 -128q30 -24 30 -37q0 -31 -30 -31q-12 0 -48 30q-21 17 -58 59.5t-57 82.5q-7 13 -7 24z" />
<glyph unicode="a" d="M40 90q0 99 81.5 184.5t160.5 85.5q45 0 77.5 -16.5t32.5 -33.5q0 -30 -30 -30q-6 0 -29 10t-51 10q-51 0 -116.5 -66t-65.5 -144q0 -30 30 -30q59 0 113.5 39t75.5 70q10 15 19 32t13.5 22.5t10.5 5.5q24 0 32 -11t20 -50q2 -8 9 -37t12.5 -39t14.5 -10q4 0 18 4 q11 4 14 4q30 0 30 -30q0 -13 -21.5 -25.5t-40.5 -12.5q-21 0 -37 8t-25 23.5t-13.5 27t-8.5 29.5l-4 17q-18 -32 -88.5 -79.5t-143.5 -47.5q-40 0 -65 25t-25 65z" />
<glyph unicode="b" horiz-adv-x="412" d="M40 244q0 3 0.5 5.5t2.5 6.5t4 7.5t6.5 9.5t8.5 11t11 14t13 17t16.5 21t19.5 24q-42 59 -42 140q0 55 16 95t40.5 58.5t45.5 26.5t38 8q45 0 72.5 -28.5t27.5 -73.5q0 -55 -28.5 -105t-92.5 -121q28 -37 74 -74t80.5 -60t60.5 -58.5t26 -77.5t-37.5 -66t-82.5 -24 q-70 0 -130 30q-30 14 -30 30q0 30 30 30q9 0 28 -8q15 -8 47.5 -15t54.5 -7q19 0 39.5 8t20.5 22q0 27 -24 53.5t-55.5 46.5t-73 53.5t-67.5 67.5q-12 -15 -30 -39q-30 -38 -40 -48t-20 -10q-30 0 -30 30zM140 500q0 -59 22 -90q98 107 98 176q0 42 -40 42 q-27 0 -53.5 -30.5t-26.5 -97.5z" />
<glyph unicode="c" horiz-adv-x="420" d="M40 140q0 86 76 153t154 67q38 0 74 -17t36 -33q0 -30 -30 -30q-9 0 -36.5 10t-43.5 10q-57 0 -113.5 -52t-56.5 -108q0 -45 22 -62.5t78 -17.5h60q24 0 46.5 2t39.5 6t28.5 7t21.5 7t12 4q10 4 14 4q30 0 30 -30q0 -15 -36 -33q-6 -3 -23 -8.5t-55.5 -12t-77.5 -6.5h-60 q-160 0 -160 140z" />
<glyph unicode="d" d="M40 90q0 107 68.5 172.5t143.5 65.5q14 0 44 -5t41 -11q-20 33 -90 115.5t-92 112.5q-15 20 -15 46t17.5 45t42.5 25q28 8 63 14t60.5 9t48.5 5.5t25 2.5q4 1 13 1q30 0 30 -30q0 -8 -8 -18t-22 -12q-2 0 -28.5 -3.5t-54.5 -7t-58 -8.5t-49.5 -11t-19.5 -12 q0 -8 36 -51.5t84.5 -101.5t68.5 -90q23 -37 23 -69q0 -53 -30.5 -105.5t-74 -88t-89.5 -58t-78 -22.5q-45 0 -72.5 25t-27.5 65zM100 90q0 -14 12 -22t28 -8q24 0 64.5 21t84.5 65.5t60 97.5q-16 8 -48 16t-49 8q-49 0 -100.5 -47.5t-51.5 -130.5z" />
<glyph unicode="e" horiz-adv-x="400" d="M-30 60q0 7 7.5 14.5t14.5 11.5l8 4q16 10 46 25q-6 14 -6 27q0 92 63.5 155t116.5 63q51 0 80.5 -24.5t29.5 -65.5q0 -28 -16 -53t-49.5 -49t-61.5 -39.5t-76 -39.5q40 -29 113 -29q57 0 148 26q10 4 14 4q30 0 30 -30q0 -15 -36 -33q-7 -3 -23 -8.5t-54.5 -12 t-78.5 -6.5q-109 0 -173 59q-16 -9 -67 -29q-30 0 -30 30zM100 142q170 85 170 128q0 30 -50 30q-30 0 -75 -47.5t-45 -110.5z" />
<glyph unicode="f" horiz-adv-x="380" d="M40 -180q0 16 2.5 30.5t6 26t11 23.5t12.5 19.5t17 17.5t17 15t19.5 14t19.5 11.5t21 11.5t19 11q-95 247 -95 450q0 33 7 71t22 77t44 64.5t67 25.5q24 0 43.5 -12t31.5 -30t20 -40.5t11.5 -42.5t3.5 -37q0 -43 -11 -77t-26.5 -52t-29.5 -27.5t-23 -9.5q-30 0 -30 30 q0 9 9.5 18.5t20.5 19.5t20.5 35.5t9.5 62.5q0 18 -6.5 41.5t-18.5 42t-25 18.5q-23 0 -42 -29.5t-28.5 -70t-9.5 -78.5q0 -192 89 -423l60 30q43 22 69 29q10 4 14 4q30 0 30 -30q0 -15 -33 -32q-2 -1 -3 -1q-55 -26 -116 -57q20 -56 20 -110q0 -66 -39 -119t-94 -53 q-49 0 -78 36t-29 96zM100 -180q0 -72 47 -72q29 0 51 37t22 75q0 40 -14 82l-16 -8t-20 -11t-19.5 -12t-20 -16.5t-15 -19.5t-12 -25t-3.5 -30z" />
<glyph unicode="g" horiz-adv-x="370" d="M40 230q0 73 27.5 101.5t62.5 28.5q39 0 78 -32t50 -82q2 -8 2 -16q0 -30 -30 -30q-22 0 -30 30q-7 29 -30 49.5t-40 20.5q-30 0 -30 -70q0 -27 17 -69.5t32 -70t51 -90.5q31 28 79 52q53 27 79 34q10 4 14 4q30 0 30 -30q0 -15 -36 -33q-2 -1 -11 -4.5t-22.5 -9.5 t-26.5 -13q-37 -19 -76 -53q66 -132 66 -169q0 -40 -30 -65t-66 -25q-42 0 -70.5 12.5t-40.5 33.5t-16.5 39t-4.5 37q0 33 16.5 66t29.5 47.5t38 39.5q-5 9 -20.5 36t-21 37.5t-18 34t-18 35.5t-13.5 31.5t-11.5 33t-6.5 29.5t-3 30zM128 -190q0 -32 21 -47t51 -15 q10 0 23 8.5t13 21.5q0 22 -54 130q-54 -54 -54 -98z" />
<glyph unicode="h" horiz-adv-x="540" d="M40 174q0 125 27.5 243t77 194.5t105.5 76.5q54 0 82 -40t28 -92q0 -75 -34.5 -136.5t-85.5 -99.5q-25 -20 -40 -20q-30 0 -30 30q0 11 30 34q39 29 69.5 78t30.5 114q0 27 -12 49.5t-38 22.5q-30 0 -64.5 -62.5t-60 -170.5t-25.5 -221q0 -114 30 -114q24 0 44 22.5 t36 55t34 65t47.5 55t68.5 22.5q90 0 90 -170q0 -30 30 -30q27 0 48 6q10 4 14 4q30 0 30 -30q0 -15 -36 -33q-14 -7 -56 -7t-66 19t-24 71q0 42 -8 76t-22 34q-24 0 -44 -22.5t-36 -55t-34 -65t-47.5 -55t-68.5 -22.5q-90 0 -90 174z" />
<glyph unicode="i" horiz-adv-x="420" d="M-30 60q0 4 3 9t7.5 8.5t9 6.5t7.5 4l3 2q14 7 39 23.5t41 32.5q1 1 20 21t29.5 29.5t29.5 24.5t36.5 22t34.5 7q39 0 60 -28t25 -62t12 -62t23 -28q10 0 20.5 3t22 7.5t15.5 5.5q10 4 14 4q30 0 30 -30q0 -15 -36 -33q-34 -17 -66 -17q-39 0 -60 28t-25 62t-12 62 t-23 28q-23 0 -102 -79q-38 -38 -114 -74l-14 -7q-30 0 -30 30zM201 466q0 16 9 23t21 7q16 0 33 -14.5t17 -31.5q0 -9 -7 -16.5t-16 -10.5t-19 -3q-17 0 -27.5 14.5t-10.5 31.5z" />
<glyph unicode="j" horiz-adv-x="420" d="M40 -160q0 49 37.5 95.5t96.5 64.5q-57 290 -63 315q-3 12 -3 15q0 30 30 30q26 0 32 -32l62 -308q23 8 96.5 36t79.5 30q10 4 14 4q30 0 30 -30q0 -15 -36 -33q-6 -3 -78.5 -31.5t-92.5 -35.5q19 -109 19 -166q0 -44 -24.5 -75t-65.5 -31q-47 0 -90.5 47.5t-43.5 104.5z M100 -160q0 -32 26.5 -62t47.5 -30q14 0 22 14.5t8 31.5q0 56 -18 146q-29 -9 -57.5 -38t-28.5 -62zM160 552q0 30 30 30q16 0 33 -14.5t17 -31.5q0 -14 -13.5 -22t-28.5 -8q-17 0 -27.5 14.5t-10.5 31.5z" />
<glyph unicode="k" horiz-adv-x="400" d="M40 269q0 179 17 359q2 20 3 31q3 29 30 29q30 0 30 -30q0 -1 -0.5 -8t-0.5 -9q-12 -120 -15.5 -178t-3.5 -194q0 -27 5 -52q24 53 82 98t143 45q30 0 30 -30t-30 -30q-41 0 -75.5 -15t-55 -37.5t-32 -41.5t-15.5 -33q-2 -6 -6.5 -25.5t-6.5 -26t-7.5 -17.5t-13 -15 t-18.5 -4q-21 0 -40.5 66.5t-19.5 117.5zM210 168q0 32 30 32t30 -32q0 -40 14 -69t36 -29q12 0 24.5 3t26.5 7.5t17 5.5q10 4 14 4q30 0 30 -30q0 -15 -36 -33q-34 -17 -76 -17q-53 0 -81.5 48t-28.5 110z" />
<glyph unicode="l" horiz-adv-x="520" d="M-30 60q0 7 7.5 14.5t14.5 11.5l8 4q106 53 182 110q-22 72 -22 160q0 133 49.5 230.5t110.5 97.5q26 0 45 -16t28 -40.5t13 -47.5t4 -44q0 -62 -12 -117.5t-28.5 -93.5t-39.5 -71t-39 -49.5t-32 -29.5q73 -119 151 -119q22 0 42.5 5.5t37 12.5t18.5 8q10 4 14 4 q30 0 30 -30q0 -15 -36 -33q-54 -27 -106 -27q-38 0 -73.5 16.5t-61 43t-40 46t-26.5 39.5q-45 -33 -195 -108l-14 -7q-30 0 -30 30zM220 360q0 -70 15 -123q16 15 31.5 35t36.5 56.5t34 92t13 119.5q0 29 -8 58.5t-22 29.5q-7 0 -18.5 -10t-25.5 -32t-26.5 -52t-21 -76 t-8.5 -98z" />
<glyph unicode="m" horiz-adv-x="1030" d="M-30 60q0 7 7.5 14.5t14.5 11.5l8 4l6 3q49 25 61 69l7.5 30t9 34.5t10.5 31.5t15 33t20 26.5t27.5 23.5t35 13t45.5 6q29 0 48.5 -15.5t28.5 -44t12 -56t3 -64.5q0 -30 0.5 -47t3.5 -36t9.5 -28t17.5 -9q4 0 9 7t11 21.5t12 29.5t14 37.5t15 38.5q3 8 11 28t11.5 29 t11 24.5t14 22.5t16 16t20.5 12.5t25 3.5q74 0 106 -164q16 -86 24 -86q14 0 31.5 23.5t34 51.5t48.5 51.5t70 23.5q37 0 53 -25t16 -55t9.5 -55t35.5 -25q11 0 22 3t22.5 7.5t15.5 5.5q10 4 14 4q30 0 30 -30q0 -15 -36 -33q-34 -17 -68 -17q-42 0 -66 25t-29.5 55t-9 55 t-9.5 25q-26 0 -49 -23.5t-38.5 -51.5t-41 -51.5t-55.5 -23.5q-13 0 -23 3t-18 12.5t-13 15.5t-9.5 22.5t-6.5 22.5t-6 27.5t-5 25.5q-27 121 -49 121q-6 0 -11 -5t-10.5 -16t-9.5 -21t-11.5 -29.5t-12.5 -31.5q-6 -14 -17.5 -46.5t-18.5 -48t-19 -35.5t-26.5 -28.5 t-33.5 -8.5q-30 0 -49 15.5t-27.5 44t-11.5 55.5t-3 65q0 59 -6 89.5t-26 30.5q-21 0 -37.5 -8t-26 -17t-19 -31.5t-13 -35.5t-11.5 -44q-3 -11 -4 -16q-3 -13 -8.5 -24.5t-9.5 -20t-12.5 -16.5t-13 -12.5t-16 -11t-15.5 -8.5t-18.5 -9t-18.5 -9l-14 -7q-30 0 -30 30z" />
<glyph unicode="n" horiz-adv-x="630" d="M-30 60q0 7 7.5 14.5t14.5 11.5l8 4q34 17 47 38q18 29 36 65t25.5 47.5t25 20.5t46.5 9q41 0 62 -33t24.5 -72t10.5 -72t23 -33t30.5 23.5t25.5 51.5t35.5 51.5t58.5 23.5t54.5 -20.5t27 -44.5t15.5 -44.5t23 -20.5q27 0 48 6q10 4 14 4q30 0 30 -30q0 -15 -36 -33 q-14 -7 -56 -7q-34 0 -54.5 20.5t-27 44.5t-15.5 44.5t-23 20.5q-16 0 -30.5 -23.5t-25.5 -51.5t-35.5 -51.5t-58.5 -23.5q-41 0 -62 33t-24.5 72t-10.5 72t-23 33q-8 0 -12.5 -1.5t-8 -4.5t-8 -12t-10 -19.5t-17.5 -32t-26 -44.5q-8 -12 -20.5 -23t-20.5 -15.5t-25 -12.5 t-18 -8l-14 -7q-30 0 -30 30z" />
<glyph unicode="o" d="M40 174q0 24 10 55t30 31q30 0 30 -30q0 -10 -5 -28t-5 -29q0 -9 10.5 -26t30.5 -37.5t60 -35t89 -14.5q32 0 61 21t29 59q0 70 -29.5 115t-80.5 45q-24 0 -48.5 -15t-31.5 -15q-30 0 -30 30q0 19 30 37q39 23 80 23q75 0 122.5 -64t47.5 -156q0 -64 -47.5 -102 t-102.5 -38q-65 0 -117 21t-79 51t-40.5 57t-13.5 45z" />
<glyph unicode="p" d="M40 -50q0 145 58 290q30 75 68.5 97.5t133.5 22.5q60 0 100 -32.5t40 -87.5q0 -76 -82.5 -118t-244.5 -42q-13 -65 -13 -130q0 -95 19 -222q1 -4 1 -10q0 -30 -30 -30q-26 0 -30 30q-20 133 -20 232zM128 140q127 0 189.5 28t62.5 72q0 60 -80 60q-32 0 -49 -1t-35 -7 t-26.5 -14t-20.5 -28.5t-20 -44t-21 -65.5z" />
<glyph unicode="q" horiz-adv-x="400" d="M40 130q0 87 70.5 158.5t139.5 71.5q27 0 68.5 -18t41.5 -42q0 -30 -30 -30q-6 0 -29 14q-32 16 -51 16q-47 0 -98.5 -56t-51.5 -114q0 -32 14 -51t36 -19q49 0 99.5 43t50.5 79q0 28 30 28q12 0 21 -7.5t9 -19.5q0 -41 -15 -169t-15 -174v-122q0 -14 -8 -22t-22 -8 q-30 0 -30 30v122q0 40 4.5 88t10 88t5.5 44q-21 -21 -59.5 -40.5t-80.5 -19.5q-52 0 -81 40t-29 90z" />
<glyph unicode="r" horiz-adv-x="540" d="M-30 60q0 7 7.5 14.5t14.5 11.5l8 4q3 2 17 8t21 10t16 11t13 15q2 3 9.5 43t18 78.5t38 71.5t66.5 33q76 0 128.5 -39.5t52.5 -100.5q0 -63 17 -111.5t45 -48.5q9 0 26.5 5.5t36.5 12.5t23 8q10 4 14 4q30 0 30 -30q0 -15 -36 -33q-11 -5 -43.5 -16t-50.5 -11 q-45 0 -74 37.5t-38.5 83.5t-9.5 99q0 35 -34 57.5t-86 22.5q-25 0 -41 -40.5t-25.5 -93t-13.5 -60.5q-12 -24 -106 -71l-14 -7q-30 0 -30 32z" />
<glyph unicode="s" horiz-adv-x="540" d="M-30 60q0 7 7.5 14.5t14.5 11.5l8 4q11 5 42 23.5t38 21.5q23 12 80.5 71.5t66.5 67.5q41 36 95 36q33 0 72 -16t72.5 -57t33.5 -97t-65.5 -98t-172.5 -42q-30 0 -30 30t30 30q82 0 130 26.5t48 53.5q0 37 -24 64t-49.5 36.5t-44.5 9.5q-33 0 -63 -26q-10 -9 -38.5 -40.5 t-57.5 -59t-53 -39.5l-110 -55q-30 0 -30 30z" />
<glyph unicode="t" horiz-adv-x="420" d="M60 210q0 56 15 203.5t15 244.5q0 13 8.5 21.5t21.5 8.5q30 0 30 -30q0 -99 -15 -251.5t-15 -196.5q0 -54 10 -70q62 62 107 89q68 41 133 41q30 0 30 -30t-30 -30q-41 0 -85 -23.5t-73 -51.5t-52.5 -51.5t-29.5 -23.5q-25 0 -42 27.5t-22.5 59t-5.5 63.5z" />
<glyph unicode="u" horiz-adv-x="580" d="M-30 60q0 7 7.5 14.5t14.5 11.5l8 4l6 3q37 17 75.5 82t38.5 125q0 28 30 28q27 0 30 -28q1 -12 10 -47t24 -80t38.5 -79t47.5 -34q6 0 13.5 12t15.5 32t16.5 43t16.5 49.5t13.5 45.5t11 37t5.5 19q9 30 38 30q15 0 22 -6t10 -24q0 -2 4 -30t9.5 -56.5t13.5 -60 t18.5 -51.5t22.5 -20q17 0 38 6q10 4 14 4q30 0 30 -30q0 -15 -36 -33q-14 -7 -46 -7q-78 0 -110 160q-3 -12 -9 -30l-6 -18t-7.5 -21.5t-8 -21.5t-10 -22.5t-11.5 -20t-13.5 -19t-15 -14t-18.5 -10.5t-21 -3q-32 0 -61.5 25t-47.5 58t-29 60t-12 37q-17 -34 -60 -80.5 t-76 -62.5l-14 -7q-30 0 -30 30z" />
<glyph unicode="v" horiz-adv-x="580" d="M40 310q0 30 30 30q15 0 21.5 -6.5t8.5 -22.5q2 -14 5 -41.5t5 -41.5t5.5 -37.5t7 -36t8.5 -30.5t11 -27.5t14 -19t18 -13.5t22 -4q27 0 62.5 92t43.5 132q20 76 87 76q26 0 101 -30q30 -12 30 -30q0 -30 -30 -30q-11 0 -24 5q-63 25 -76 25q-22 0 -30 -30 q-5 -24 -28 -91t-51 -119q-15 -28 -38 -44t-47 -16q-19 0 -35.5 5.5t-29 13t-23.5 23t-18.5 27.5t-14.5 34t-10.5 35.5t-8 39.5t-6 37.5t-5 39t-4.5 35.5q-1 7 -1 20z" />
<glyph unicode="w" horiz-adv-x="730" d="M40 220q0 60 20 110q7 16 13 23t17 7q30 0 30 -30q0 -12 -3 -19q-17 -43 -17 -91q0 -160 70 -160q13 0 26.5 2t24.5 4.5t24 8.5t22 9.5t22 11.5t19 12t19 13.5t16.5 12.5t16 13t14.5 12q-24 43 -24 81q0 42 14 70q15 30 30 30q31 0 31 -30q0 -7 -6 -22q-9 -20 -9 -48 q0 -41 50 -95.5t90 -54.5q80 0 80 240q0 30 30 30t30 -30q0 -300 -140 -300q-68 0 -140 80q-79 -62 -127 -84q-58 -26 -113 -26q-37 0 -64 18.5t-40.5 51.5t-19.5 69.5t-6 80.5z" />
<glyph unicode="x" d="M40 -10q0 10 12 30q68 135 96 173q-6 8 -72 100q-16 22 -16 37q0 30 30 30q13 0 34 -30l63 -88q46 61 73 83q43 35 90 35q40 0 65 -25t25 -65q0 -29 -6 -61t-20 -67.5t-43.5 -58.5t-70.5 -23q-26 0 -47 10t-30 20.5t-21 28t-16 22.5q-43 -71 -83 -151q-7 -13 -9.5 -17.5 t-8.5 -8.5t-15 -4q-30 0 -30 30zM224 191q38 -53 47.5 -62t28.5 -9q24 0 41 17.5t25 43.5t11 48t3 41q0 30 -30 30q-9 0 -19 -3.5t-17.5 -7.5t-17.5 -13.5t-16 -15t-16.5 -18t-14 -17t-14 -18.5t-11.5 -16z" />
<glyph unicode="y" horiz-adv-x="440" d="M40 330q0 16 6.5 23t23.5 7q27 0 30 -30q7 -66 23.5 -138t36.5 -72q65 0 101 33t79 117q12 30 30 30q30 0 30 -30q0 -126 -11.5 -270.5t-28.5 -221.5q-19 -90 -90 -90q-130 0 -130 174q0 48 26.5 93t63.5 45q30 0 30 -30q0 -5 -5.5 -10t-13.5 -10.5t-11 -9.5 q-30 -34 -30 -78q0 -56 14.5 -85t55.5 -29q24 0 33 46q10 46 18.5 133.5t12 148.5t3.5 74l-5 -7q-5 -7 -7.5 -10t-9.5 -11t-12.5 -12.5t-15 -12t-18 -12t-21 -10t-25.5 -8.5t-29.5 -5t-33.5 -2q-53 0 -76 60q-31 79 -43 200q-1 5 -1 10z" />
<glyph unicode="z" horiz-adv-x="440" d="M40 330q0 30 30 30q158 0 219 -24t61 -76q0 -24 -30 -94.5t-30 -105.5q0 -40 27.5 -84.5t55 -88t27.5 -79.5q0 -56 -38.5 -88t-101.5 -32q-70 0 -115 35.5t-45 84.5q0 47 37.5 74.5t62.5 27.5q30 0 30 -30q0 -10 -30 -28q-1 -1 -6 -4t-7 -4t-6 -4t-5.5 -4.5t-5 -4.5 t-4.5 -5t-3 -5t-2.5 -6.5t-0.5 -6.5q0 -24 26.5 -42t73.5 -18q80 0 80 59q0 21 -27.5 62.5t-55 93t-27.5 97.5q0 47 30 119t30 81q0 40 -220 40q-30 0 -30 30z" />
<glyph unicode="{" horiz-adv-x="300" d="M40 240q0 23 16 45q43 58 74.5 125t31.5 110q0 11 -3 43.5t-3 36.5q0 30 28 30q29 0 32 -30q6 -60 6 -80q0 -55 -35 -128.5t-79 -136.5q20 -8 29.5 -30t12 -50.5t7 -58t22.5 -57t51 -42.5q13 -5 21.5 -13t8.5 -14q0 -30 -30 -30q-18 0 -30 6q-39 18 -63.5 50t-32.5 64.5 t-11.5 62t-7.5 48.5t-15 19q-30 0 -30 30z" />
<glyph unicode="|" d="M206 360q0 46 2 162.5t2 155.5v10h60v-10q0 -39 -2 -155.5t-2 -162.5q0 -18 4 -147t4 -213q0 -83 -2 -189t-2 -113v-10h-60v10q0 7 2 113t2 189q0 86 -4 214t-4 146z" />
<glyph unicode="}" horiz-adv-x="300" d="M56 648q0 16 18.5 28t41.5 12q41 0 65.5 -27t24.5 -75q0 -24 -10 -73t-10 -73q0 -34 8 -53t16 -24t24 -10q26 -7 26 -38q0 -28 -27 -42q-37 -18 -49 -27q-38 -31 -38 -146q0 -34 25 -84q5 -10 5 -26q0 -30 -30 -30q-15 0 -30 30q-30 60 -30 110q0 144 62 194q5 4 28 18 q-50 41 -50 128q0 24 10 73t10 73q0 42 -30 42q-6 0 -15 -5t-15 -5q-30 0 -30 30z" />
<glyph unicode="~" horiz-adv-x="400" d="M30 580q0 19 38.5 48.5t81.5 29.5q29 0 71.5 -19t48.5 -19q15 0 24 6t11 12.5t5 19.5q2 10 4 15.5t8.5 10t17.5 4.5q30 0 30 -30q0 -35 -24 -66.5t-76 -31.5q-22 0 -62.5 19t-57.5 19q-27 0 -52 -24t-38 -24q-30 0 -30 30z" />
<glyph unicode="&#xa0;" />
<glyph unicode="&#xa1;" horiz-adv-x="240" d="M80 555q0 14 11 22.5t27 8.5q15 0 26.5 -10.5t11.5 -25.5q0 -16 -8 -28.5t-22 -12.5q-19 0 -32.5 13.5t-13.5 32.5zM88 360q0 30 30 30q27 0 30 -30q12 -120 12 -430q0 -30 -30 -30t-30 30q0 310 -10 410z" />
<glyph unicode="&#xa2;" horiz-adv-x="440" d="M40 140q0 81 49 141t127 75q2 13 6.5 57.5t9 93t4.5 50.5q2 15 8.5 22t21.5 7q30 0 30 -30q0 -2 -0.5 -7.5t-0.5 -6.5q0 -3 -4 -45.5t-7.5 -82.5t-6.5 -55q17 -1 32 -6t25 -13t17 -18t10 -21t3 -23q0 -30 -30 -30t-30 30q0 9 -9.5 15.5t-23.5 6.5q-9 -113 -9 -160 q0 -44 3 -78q42 4 85 21q12 5 20 5q30 0 30 -29q0 -17 -26 -30q-45 -21 -102 -27q37 -139 45 -158q3 -8 3 -14q0 -30 -29 -30q-22 0 -33 27q-5 13 -45 173q-71 4 -122 40t-51 100zM100 140q0 -9 4 -19.5t13.5 -24t32.5 -23.5t55 -12q-3 39 -3 79q0 64 8 152 q-49 -12 -79.5 -54.5t-30.5 -97.5z" />
<glyph unicode="&#xa3;" horiz-adv-x="580" d="M40 46q0 41 32 65.5t78 24.5q23 0 44 -9l33 73h-21q-12 0 -21 8t-9 22q0 30 30 30h44l118 296q7 17 12.5 23.5t16.5 6.5q31 0 31 -30q0 -12 -4 -22l-109 -274h159q30 0 30 -30t-30 -30h-181l-45 -99q5 -2 25 -11t34.5 -14.5t40 -10.5t52.5 -5q12 0 42 8.5t38 12.5 q16 9 30 9q30 0 30 -30q0 -13 -30 -30q-15 -9 -52 -19.5t-58 -10.5q-24 0 -47.5 3.5t-44 10t-34 11.5t-31 12.5t-21.5 9.5q-16 -31 -43.5 -61t-57.5 -30q-36 0 -58.5 25.5t-22.5 64.5zM100 46q0 -30 20 -30q16 0 47 57q-8 3 -17 3q-50 0 -50 -30z" />
<glyph unicode="&#xa4;" horiz-adv-x="680" d="M40 490q0 30 30 30q15 0 37 -30l19 -27q18 -25 18 -33q0 -12 -8 -21t-22 -9q-16 0 -38 30l-19 26q-17 26 -17 34zM70 30q0 15 29 44l59 59q34 30 41 30q30 0 30 -30q0 -14 -30 -44l-58 -58q-31 -31 -41 -31q-30 0 -30 30zM180 286q0 58 43.5 104t106.5 46q56 0 73 -36 q11 0 28 -3t39.5 -11t38 -27t15.5 -45q0 -73 -57 -109.5t-137 -36.5q-62 0 -106 32.5t-44 85.5zM240 286q0 -27 26.5 -42.5t63.5 -15.5q55 0 94.5 21.5t39.5 64.5q0 13 -26.5 19.5t-55.5 6.5q-30 0 -30 29q-5 7 -22 7q-38 0 -64 -29.5t-26 -60.5zM430 122q0 30 30 30 q18 0 61 -30l51 -34q26 -17 26 -30q0 -30 -30 -30q-18 0 -61 30l-47 34q-30 20 -30 30zM474 449q0 13 30 43l64 64q30 30 42 30q30 0 30 -30q0 -14 -30 -44l-62 -62q-31 -31 -44 -31q-30 0 -30 30z" />
<glyph unicode="&#xa5;" d="M40 512q0 30 30 30q15 0 32 -24q42 -58 61 -94q3 -5 22.5 -53t34.5 -67q2 56 13 94t23 55t41.5 52t48.5 61q14 20 34 20q30 0 30 -30q0 -4 -4 -10.5t-9 -11.5l-5 -6q-20 -29 -49 -62.5t-38 -48.5t-17 -49.5t-8 -90.5l120 12q2 0 5.5 0.5t4.5 0.5q30 0 30 -30 q0 -27 -30 -30l-130 -13v-89q80 -8 130 -8q30 0 30 -30t-30 -30q-50 0 -130 8v-38q0 -30 -30 -30t-30 30v45q-19 2 -93 13q-27 3 -27 30q0 30 30 30q5 0 10 -1q49 -7 80 -11v75q-114 -11 -120 -11q-30 0 -30 30q0 27 30 30l73 7q-13 17 -24 37.5t-23 50t-18 41.5 q-14 28 -59 94q0 1 -2.5 5t-4.5 8.5t-2 8.5z" />
<glyph unicode="&#xa6;" horiz-adv-x="260" d="M80 140q0 30 30 30q20 0 30 -30q6 -18 13 -61t7 -79q0 -124 -6 -160q-5 -30 -30 -30q-30 0 -30 30q0 6 2 18q4 24 4 142q0 27 -5.5 66.5t-11.5 55.5q-3 12 -3 18zM100 556q0 30 30 30q10 0 19.5 -8t10.5 -22q2 -15 6 -98t4 -98v-100q0 -30 -30 -30t-30 30v100 q0 12 -5 104z" />
<glyph unicode="&#xa7;" horiz-adv-x="440" d="M40 -128q0 27 30 30q9 1 36.5 4t48.5 5q137 15 137 65q0 20 -23 35.5t-55.5 27.5t-65 26.5t-55.5 40.5t-23 62q0 31 26 64t80 41q-56 25 -88 55t-32 74q0 84 57 134t139 50q27 0 48.5 -17.5t21.5 -42.5q0 -30 -30 -30q-10 0 -20 15t-20 15q-52 0 -94 -30.5t-42 -93.5 q0 -25 29.5 -45t71 -36t83 -34t71 -48.5t29.5 -70.5q0 -30 -20.5 -68.5t-51.5 -60.5q24 -26 24 -63q0 -32 -19 -56t-50.5 -37.5t-60.5 -20.5t-62 -11q-12 -1 -27 -2.5t-31 -3t-22 -2.5q-1 0 -10 -1q-30 0 -30 30zM130 168q0 -16 14 -29.5t30 -20.5t47.5 -19t47.5 -19 q26 1 48.5 33t22.5 55q0 22 -21 37.5t-63 35.5q-4 1 -6.5 2.5t-5.5 2.5q0 -30 -40 -30q-34 0 -54 -15.5t-20 -32.5z" />
<glyph unicode="&#xa8;" horiz-adv-x="300" d="M40 596q0 30 30 30q16 0 33 -14.5t17 -31.5q0 -14 -13.5 -22t-28.5 -8q-17 0 -27.5 14.5t-10.5 31.5zM220 566q0 30 30 30q16 0 33 -14.5t17 -31.5q0 -14 -13.5 -22t-28.5 -8q-17 0 -27.5 14.5t-10.5 31.5z" />
<glyph unicode="&#xa9;" horiz-adv-x="620" d="M40 220q0 92 50 149t130 57q28 0 40 -6q0 24 30 30q50 10 80 10q89 0 149.5 -67t60.5 -173q0 -99 -73.5 -159.5t-166.5 -60.5q-124 0 -212 64t-88 156zM100 220q0 -66 70 -113t170 -47q64 0 122 42.5t58 117.5q0 78 -41.5 129t-108.5 51q-18 0 -47.5 -5t-32.5 -5 q0 -15 -9 -22.5t-21 -7.5q-10 0 -22.5 3t-17.5 3q-48 0 -84 -34.5t-36 -111.5zM190 200q0 68 40 99t90 31q30 0 30 -30t-30 -30q-15 0 -28 -3t-27.5 -20t-14.5 -47t30 -30q57 0 125 34q12 6 25 6q30 0 30 -30q0 -15 -30 -30q-80 -40 -150 -40q-39 0 -64.5 25.5t-25.5 64.5z " />
<glyph unicode="&#xaa;" horiz-adv-x="370" d="M40 470q0 46 57 81t103 35q30 0 30 -30q42 0 71 -34t29 -62q0 -30 -30 -30q-15 0 -30 30q-18 36 -40 36q-6 0 -14 -18.5t-16.5 -40.5t-26.5 -40.5t-43 -18.5q-36 0 -63 30t-27 62zM80 300q0 30 30 30q70 0 160 18q8 2 10 2q30 0 30 -30q0 -24 -30 -30q-100 -20 -170 -20 q-30 0 -30 30zM100 470q0 -32 30 -32q6 0 11.5 12t13.5 33.5t17 35.5q-72 -28 -72 -49z" />
<glyph unicode="&#xab;" horiz-adv-x="720" d="M40 120q0 50 52 89l190 140q15 11 28 11q30 0 30 -30q0 -4 -1.5 -7.5t-6.5 -8t-8.5 -7t-13.5 -10.5l-180 -135q-30 -22 -30 -42q0 -30 30 -30q144 0 230 -30q30 -10 30 -30q0 -30 -30 -30q-8 0 -19 3q-23 8 -84 17.5t-127 9.5q-39 0 -64.5 25.5t-25.5 64.5zM350 180 q0 8 1 15t4 14t5 11t7.5 10.5t7.5 8.5l8 8l7 7q67 67 70 76q3 12 11.5 21t18.5 9q30 0 30 -30q0 -7 -4 -19q-6 -21 -86 -101q-20 -20 -20 -30q0 -17 20 -23l220 -67q30 -9 30 -30q0 -30 -30 -30q-4 0 -11 1.5t-8 1.5l-201 61q-14 4 -22 7.5t-24.5 13t-25 26.5t-8.5 39z" />
<glyph unicode="&#xac;" horiz-adv-x="440" d="M40 306q0 27 30 30q240 24 270 24t30 -30q0 -20 -5 -73t-5 -67q0 -53 10 -88t20 -50.5t10 -21.5q0 -30 -30 -30q-25 0 -47.5 53t-22.5 137q0 34 8 108q-218 -22 -238 -22q-30 0 -30 30z" />
<glyph unicode="&#xad;" d="M110 169q0 27 30 31q150 20 200 20q30 0 30 -30q0 -13 -8 -21.5t-22 -8.5q-48 0 -190 -19q-2 0 -5 -0.5t-5 -0.5q-30 0 -30 29z" />
<glyph unicode="&#xae;" horiz-adv-x="670" d="M40 250q0 50 24 108.5t64.5 109t99.5 84.5t122 34q78 0 144.5 -57.5t101 -135.5t34.5 -149q0 -81 -50 -111q-24 -58 -98.5 -95.5t-169.5 -37.5q-138 0 -205 66t-67 184zM100 250q0 -190 212 -190q124 0 188 62q-69 6 -158 48.5t-99 61.5l-16 -32q-15 -30 -30 -30 q-30 0 -30 30q0 15 9 30l65 126q15 29 26.5 48t34.5 37.5t48 18.5q51 0 75.5 -31t24.5 -69q0 -43 -44 -68.5t-113 -25.5q30 -23 101.5 -54.5t135.5 -31.5q0 30 35 30q5 15 5 34q0 52 -26.5 116.5t-79.5 115t-114 50.5q-88 0 -169 -96.5t-81 -179.5zM293 326q33 0 65 10 t32 24q0 40 -40 40q-4 0 -8.5 -3t-9.5 -8.5t-9 -11t-9 -14t-8 -14t-7.5 -13.5t-5.5 -10z" />
<glyph unicode="&#xaf;" d="M40 638q0 14 7 20.5t23 9.5q100 20 340 20q30 0 30 -30t-30 -30q-235 0 -330 -19q-8 -1 -10 -1q-30 0 -30 30z" />
<glyph unicode="&#xb0;" horiz-adv-x="310" d="M40 560q0 55 30 91.5t80 36.5q46 0 83 -39.5t37 -88.5q0 -43 -29 -71.5t-91 -28.5q-48 0 -79 31.5t-31 68.5zM100 560q0 -17 15 -28.5t35 -11.5q19 0 30 2t20.5 11t9.5 27q0 23 -18 45.5t-42 22.5q-22 0 -36 -19t-14 -49z" />
<glyph unicode="&#xb1;" d="M110 29q0 27 30 31q150 20 200 20q30 0 30 -30q0 -13 -8 -21.5t-22 -8.5q-48 0 -190 -19q-2 0 -5 -0.5t-5 -0.5q-30 0 -30 29zM110 190q0 25 30 30l90 13v97q0 30 30 30t30 -30v-87q36 5 40 6l10 1q30 0 30 -30q0 -26 -30 -30l-50 -8v-76q0 -30 -30 -30t-30 30v67 q-23 -3 -80 -12q-5 -1 -10 -1q-30 0 -30 30z" />
<glyph unicode="&#xb2;" horiz-adv-x="300" d="M40 638q0 22 21 36t49 14q40 0 65 -24t25 -64q0 -31 -22.5 -64.5t-45 -61.5t-22.5 -44q0 -14 12 -22t28 -8h80q30 0 30 -30t-30 -30h-80q-41 0 -70.5 24.5t-29.5 63.5q0 31 22.5 64.5t45 61.5t22.5 44q0 30 -30 30q-10 0 -20 -10t-20 -10q-30 0 -30 30z" />
<glyph unicode="&#xb3;" horiz-adv-x="260" d="M40 330q0 30 30 30q10 0 19.5 -10t19.5 -10q17 0 34 14.5t17 35.5q0 10 -32 48.5t-32 67.5q0 19 8.5 35t18.5 24.5t18.5 17.5t8.5 15q0 30 -30 30q-10 0 -20 -10t-20 -10q-30 0 -30 30q0 22 21 36t49 14q40 0 65 -25t25 -65q0 -22 -13.5 -40.5t-27 -31t-13.5 -20.5 q0 -6 32 -45.5t32 -70.5q0 -49 -36.5 -79.5t-73.5 -30.5q-28 0 -49 14t-21 36z" />
<glyph unicode="&#xb4;" horiz-adv-x="370" d="M80 506q0 4 1 7.5t3.5 7.5t4.5 6.5t8 9t9 10.5q92 104 169 135q15 6 25 6q30 0 30 -30q0 -8 -9.5 -17t-20.5 -13q-34 -14 -79 -52t-71 -70q-25 -30 -40 -30q-30 0 -30 30z" />
<glyph unicode="&#xb5;" horiz-adv-x="460" d="M40 -282l1 10l62 562q3 30 32 30q28 0 28 -30q0 -25 36.5 -127.5t60.5 -102.5q36 0 68 81.5t32 189.5q0 29 30 29t30 -30q0 -79 -17.5 -152.5t-55 -125.5t-87.5 -52q-22 0 -39 10t-31 31.5t-22.5 40.5t-21.5 51l-46 -415q-3 -30 -30 -30q-16 0 -23 6.5t-7 23.5z" />
<glyph unicode="&#xb6;" horiz-adv-x="410" d="M40 446q0 59 47 99.5t115 40.5q52 0 122 -14q28 -6 28 -36q0 -12 -4 -89.5t-4 -108.5q0 -48 2 -90.5t5.5 -77t6 -54.5t7 -46t4.5 -28q1 -10 1 -12q0 -30 -30 -30q-25 0 -30 30q-1 5 -5 29.5t-7 45t-6.5 51t-5.5 64.5t-2 68q-25 1 -71 6q0 -18 10.5 -110t15.5 -114l1 -4 v-6q0 -30 -30 -30q-13 0 -19.5 7t-10.5 23q-7 28 -17.5 123t-10.5 119q-48 12 -80 49t-32 95zM100 446q0 -34 16.5 -54.5t35.5 -25.5v150q-52 -21 -52 -70zM212 354q38 -4 72 -6q1 31 4 98t3 70q-33 7 -79 9v-171z" />
<glyph unicode="&#xb7;" horiz-adv-x="240" d="M80 300q0 38 36 38q17 0 30.5 -14t13.5 -36q0 -16 -12 -27t-28 -11q-17 0 -28.5 16.5t-11.5 33.5z" />
<glyph unicode="&#xb8;" horiz-adv-x="240" d="M40 -220q0 30 30 30h40q30 0 30 30q0 7 -6.5 16.5t-13 16.5t-20 19.5t-18.5 17.5q-22 22 -22 80v10h60v-10q0 -34 10 -44q1 -1 7.5 -6.5t13.5 -11.5t16 -16.5t16 -21t12 -24t5 -26.5q0 -40 -25 -65t-65 -25h-40q-30 0 -30 30z" />
<glyph unicode="&#xb9;" horiz-adv-x="220" d="M80 390v166q0 30 30 30t30 -30v-166q0 -30 -30 -30t-30 30z" />
<glyph unicode="&#xba;" horiz-adv-x="310" d="M40 381q0 29 30 29q2 0 5 -0.5t5 -0.5t22.5 -3.5t41 -6.5t48 -6t48.5 -3q14 0 22 -8.5t8 -21.5q0 -30 -30 -30q-21 0 -50 3t-51.5 6t-44.5 7t-24 4q-30 4 -30 31zM40 560q0 55 30 91.5t80 36.5q46 0 83 -39.5t37 -88.5q0 -43 -29 -71.5t-91 -28.5q-48 0 -79 31.5 t-31 68.5zM100 560q0 -17 15 -28.5t35 -11.5q19 0 30 2t20.5 11t9.5 27q0 23 -18 45.5t-42 22.5q-22 0 -36 -19t-14 -49z" />
<glyph unicode="&#xbb;" horiz-adv-x="760" d="M40 250q0 30 30 30l10 -1l128 -13q127 -12 169.5 -39.5t42.5 -66.5q0 -41 -33.5 -67.5t-147.5 -74.5l-109 -44q-10 -4 -20 -4q-30 0 -30 30q0 12 5.5 18t21.5 12l111 45q67 28 99 45t37.5 23.5t5.5 16.5q0 14 -49.5 27.5t-110.5 19.5l-132 13q-28 3 -28 30zM360 330 q0 30 30 30q7 0 22 -5l99 -31q125 -40 167 -69.5t42 -74.5q0 -17 -7 -29.5t-14.5 -20t-27.5 -15t-29.5 -10t-37.5 -9.5q-48 -14 -90 -66q-23 -30 -34 -30q-30 0 -30 30q0 12 15 34q45 62 119 89q16 6 37.5 11t30 8t8.5 8q0 10 -9 19t-48 27t-111 42q-17 6 -102 32 q-30 9 -30 30z" />
<glyph unicode="&#xbc;" horiz-adv-x="550" d="M60 390q0 9 10 51.5t10 58.5v158q0 30 30 30t30 -30v-158q0 -30 -20 -110q-8 -30 -30 -30q-30 0 -30 30zM160 90q0 43 14 99l86 337q8 30 30 30q30 0 30 -30q0 -9 -5 -29l-85 -335q-10 -40 -10 -72q0 -30 -30 -30t-30 30zM330 180q0 34 9.5 64.5t18.5 46t30 47.5 q1 1 3 4.5t3 4.5t3 4t3 4t3 3.5t3.5 3.5t4 2.5t5 2l5 1t5.5 0.5q30 0 30 -30q0 -7 -18 -34q-26 -39 -37 -65t-11 -59q0 -30 30 -30q22 0 30 30q3 14 11.5 22t18.5 8q30 0 30 -30q0 -16 -5 -43.5t-5 -36.5q0 -29 8 -56q2 -10 2 -14q0 -30 -30 -30q-13 0 -19 7t-11 23 q-10 33 -10 70q-9 -10 -20 -10q-40 0 -65 25t-25 65z" />
<glyph unicode="&#xbd;" horiz-adv-x="620" d="M60 390q0 9 10 51.5t10 58.5v158q0 30 30 30t30 -30v-158q0 -30 -20 -110q-8 -30 -30 -30q-30 0 -30 30zM160 90q0 43 14 99l86 337q8 30 30 30q30 0 30 -30q0 -9 -5 -29l-85 -335q-10 -40 -10 -72q0 -30 -30 -30t-30 30zM360 299q0 22 21 36t49 14q40 0 65 -24t25 -64 q0 -31 -22.5 -64.5t-45 -61.5t-22.5 -44q0 -14 12 -22t28 -8h80q30 0 30 -30t-30 -30h-80q-41 0 -70.5 24.5t-29.5 63.5q0 31 22.5 64.5t45 61.5t22.5 44q0 30 -30 30q-10 0 -20 -10t-20 -10q-30 0 -30 30z" />
<glyph unicode="&#xbe;" horiz-adv-x="640" d="M40 330q0 30 30 30q10 0 19.5 -10t19.5 -10q17 0 34 14.5t17 35.5q0 10 -32 48.5t-32 67.5q0 19 8.5 35t18.5 24.5t18.5 17.5t8.5 15q0 30 -30 30q-10 0 -20 -10t-20 -10q-30 0 -30 30q0 22 21 36t49 14q40 0 65 -25t25 -65q0 -22 -13.5 -40.5t-27 -31t-13.5 -20.5 q0 -6 32 -45.5t32 -70.5q0 -49 -36.5 -79.5t-73.5 -30.5q-28 0 -49 14t-21 36zM250 90q0 43 14 99l86 337q8 30 30 30q30 0 30 -30q0 -9 -5 -29l-85 -335q-10 -40 -10 -72q0 -30 -30 -30t-30 30zM420 180q0 34 9.5 64.5t18.5 46t30 47.5q1 1 3 4.5t3 4.5t3 4t3 4t3 3.5 t3.5 3.5t4 2.5t5 2l5 1t5.5 0.5q30 0 30 -30q0 -7 -18 -34q-26 -39 -37 -65t-11 -59q0 -30 30 -30q22 0 30 30q3 14 11.5 22t18.5 8q30 0 30 -30q0 -16 -5 -43.5t-5 -36.5q0 -29 8 -56q2 -10 2 -14q0 -30 -30 -30q-13 0 -19 7t-11 23q-10 33 -10 70q-9 -10 -20 -10 q-40 0 -65 25t-25 65z" />
<glyph unicode="&#xbf;" horiz-adv-x="320" d="M40 100q0 26 40 74t40 82v104q0 30 30 30t30 -30v-104q0 -39 -20 -73t-40 -55.5t-20 -27.5q0 -16 42.5 -28t107.5 -12q30 0 30 -30t-30 -30q-63 0 -107.5 9.5t-65 26t-29 32t-8.5 32.5zM92 544q0 42 28 42q14 0 27 -12.5t13 -27.5q0 -22 -12 -38t-26 -16 q-15 0 -22.5 16.5t-7.5 35.5z" />
<glyph unicode="&#xc0;" d="M40 30q0 3 5 20l105 343q9 30 34 48.5t49 18.5q31 0 63.5 -45.5t54.5 -102.5t34 -112h25q14 0 22 -9t8 -21t-8 -21t-22 -9h-14q4 -27 4 -50q0 -39 -25 -64.5t-55 -25.5q-38 0 -79 40t-41 80q0 69 125 77q-16 65 -46.5 134t-45.5 69q-20 0 -29 -30l-104 -340 q-5 -16 -11 -23t-19 -7q-30 0 -30 30zM240 658q0 30 30 30q17 0 32 -30q35 -69 108 -128q30 -24 30 -37q0 -31 -30 -31q-12 0 -48 30q-21 17 -58 59.5t-57 82.5q-7 13 -7 24zM260 120q0 -15 22.5 -37.5t37.5 -22.5q20 0 20 30q0 25 -4 48q-76 -5 -76 -18z" />
<glyph unicode="&#xc1;" d="M40 30q0 3 5 20l105 343q9 30 34 48.5t49 18.5q31 0 63.5 -45.5t54.5 -102.5t34 -112h25q14 0 22 -9t8 -21t-8 -21t-22 -9h-14q4 -27 4 -50q0 -39 -25 -64.5t-55 -25.5q-38 0 -79 40t-41 80q0 69 125 77q-16 65 -46.5 134t-45.5 69q-20 0 -29 -30l-104 -340 q-5 -16 -11 -23t-19 -7q-30 0 -30 30zM260 120q0 -15 22.5 -37.5t37.5 -22.5q20 0 20 30q0 25 -4 48q-76 -5 -76 -18zM260 550q0 13 16 29l90 90q19 19 30 19q30 0 30 -30q0 -14 -16 -30l-90 -90q-18 -18 -30 -18q-30 0 -30 30z" />
<glyph unicode="&#xc2;" d="M40 30q0 3 5 20l105 343q9 30 34 48.5t49 18.5q31 0 63.5 -45.5t54.5 -102.5t34 -112h25q14 0 22 -9t8 -21t-8 -21t-22 -9h-14q4 -27 4 -50q0 -39 -25 -64.5t-55 -25.5q-38 0 -79 40t-41 80q0 69 125 77q-16 65 -46.5 134t-45.5 69q-20 0 -29 -30l-104 -340 q-5 -16 -11 -23t-19 -7q-30 0 -30 30zM70 550q0 13 30 43l16 16l16.5 16.5t15 14t16 14t15 11t17 10t16.5 6.5t19 5.5t19 1.5q24 0 43 -14.5t30 -38t16.5 -40t8.5 -33.5q2 -7 2 -12q0 -30 -29 -30q-25 0 -31 30q-5 24 -16 51t-24 27q-21 0 -42.5 -17t-65.5 -61 q-30 -30 -42 -30q-30 0 -30 30zM260 120q0 -15 22.5 -37.5t37.5 -22.5q20 0 20 30q0 25 -4 48q-76 -5 -76 -18z" />
<glyph unicode="&#xc3;" d="M40 30q0 3 5 20l105 343q9 30 34 48.5t49 18.5q31 0 63.5 -45.5t54.5 -102.5t34 -112h25q14 0 22 -9t8 -21t-8 -21t-22 -9h-14q4 -27 4 -50q0 -39 -25 -64.5t-55 -25.5q-38 0 -79 40t-41 80q0 69 125 77q-16 65 -46.5 134t-45.5 69q-20 0 -29 -30l-104 -340 q-5 -16 -11 -23t-19 -7q-30 0 -30 30zM100 580q0 19 38.5 48.5t81.5 29.5q29 0 71.5 -19t48.5 -19q15 0 24 6t11 12.5t5 19.5q2 10 4 15.5t8.5 10t17.5 4.5q30 0 30 -30q0 -35 -24 -66.5t-76 -31.5q-22 0 -62.5 19t-57.5 19q-27 0 -52 -24t-38 -24q-30 0 -30 30zM260 120 q0 -15 22.5 -37.5t37.5 -22.5q20 0 20 30q0 25 -4 48q-76 -5 -76 -18z" />
<glyph unicode="&#xc4;" d="M40 30q0 3 5 20l105 343q9 30 34 48.5t49 18.5q31 0 63.5 -45.5t54.5 -102.5t34 -112h25q14 0 22 -9t8 -21t-8 -21t-22 -9h-14q4 -27 4 -50q0 -39 -25 -64.5t-55 -25.5q-38 0 -79 40t-41 80q0 69 125 77q-16 65 -46.5 134t-45.5 69q-20 0 -29 -30l-104 -340 q-5 -16 -11 -23t-19 -7q-30 0 -30 30zM120 596q0 30 30 30q16 0 33 -14.5t17 -31.5q0 -14 -13.5 -22t-28.5 -8q-17 0 -27.5 14.5t-10.5 31.5zM260 120q0 -15 22.5 -37.5t37.5 -22.5q20 0 20 30q0 25 -4 48q-76 -5 -76 -18zM300 566q0 30 30 30q16 0 33 -14.5t17 -31.5 q0 -14 -13.5 -22t-28.5 -8q-17 0 -27.5 14.5t-10.5 31.5z" />
<glyph unicode="&#xc5;" d="M40 30q0 3 5 20l105 343q9 30 34 48.5t49 18.5q31 0 63.5 -45.5t54.5 -102.5t34 -112h25q14 0 22 -9t8 -21t-8 -21t-22 -9h-14q4 -27 4 -50q0 -39 -25 -64.5t-55 -25.5q-38 0 -79 40t-41 80q0 69 125 77q-16 65 -46.5 134t-45.5 69q-20 0 -29 -30l-104 -340 q-5 -16 -11 -23t-19 -7q-30 0 -30 30zM120 560q0 55 30 91.5t80 36.5q46 0 83 -39.5t37 -88.5q0 -43 -29 -71.5t-91 -28.5q-48 0 -79 31.5t-31 68.5zM180 560q0 -17 15 -28.5t35 -11.5q19 0 30 2t20.5 11t9.5 27q0 23 -18 45.5t-42 22.5q-22 0 -36 -19t-14 -49zM260 120 q0 -15 22.5 -37.5t37.5 -22.5q20 0 20 30q0 25 -4 48q-76 -5 -76 -18z" />
<glyph unicode="&#xc6;" horiz-adv-x="680" d="M40 30q0 3 1 7t1 5l117 458q21 86 89 86q18 0 36 -11q23 -17 34 -49q13 -43 30 -120q24 86 68 133t104 47q32 0 60 -15q30 -17 30 -35q0 -30 -30 -30q-9 0 -26.5 10t-33.5 10q-56 0 -92.5 -75t-41.5 -203h174q30 0 30 -30t-30 -30h-173q7 -49 39.5 -88.5t71.5 -39.5 q21 0 45.5 6.5t34.5 13.5q18 10 32 10q30 0 30 -28q0 -3 -1.5 -6.5t-3.5 -6t-5.5 -5.5t-6 -4.5t-7 -5t-6.5 -4.5q-13 -9 -46 -19.5t-66 -10.5q-62 0 -109 52q-15 -52 -65 -52q-35 0 -65 41.5t-42.5 79t-12.5 47.5q0 42 33.5 61t78.5 19q-45 278 -68 278q-22 0 -32 -41 l-116 -455q-4 -16 -10.5 -23t-19.5 -7q-30 0 -30 30zM264 168q0 -18 23.5 -63t36.5 -45q10 0 10 33q0 45 -10 95q-60 0 -60 -20z" />
<glyph unicode="&#xc7;" d="M40 210q0 80 32 153t80 120.5t101 75t97 27.5q32 0 60 -15q30 -17 30 -35q0 -30 -30 -30q-9 0 -26.5 10t-33.5 10q-31 0 -73 -23t-82 -62t-67.5 -101t-27.5 -130q0 -61 32.5 -105.5t107.5 -44.5h60q37 0 92 10t76 16q10 4 14 4q30 0 30 -28q0 -17 -36 -35q-4 -2 -32 -8 t-70.5 -12.5t-73.5 -6.5h-60q-56 0 -97.5 21.5t-62.5 55.5t-30.5 67.5t-9.5 65.5zM260 -221q0 30 30 30h40q30 0 30 30q0 7 -6.5 16.5t-13 16.5t-20 19.5t-18.5 17.5q-22 22 -22 80v10h60v-10q0 -34 10 -44q1 -1 7.5 -6.5t13.5 -11.5t16 -16.5t16 -21t12 -24t5 -26.5 q0 -41 -25 -65.5t-65 -24.5h-40q-30 0 -30 30z" />
<glyph unicode="&#xc8;" horiz-adv-x="400" d="M40 140q0 30 27 52t60 31t60 19t27 19q0 6 -22 12.5t-49 13.5t-49 29t-22 54q0 41 28 65.5t74 24.5q39 0 106 -20q30 -9 30 -30q0 -30 -30 -30l-20 4q-53 16 -86 16q-42 0 -42 -30q0 -15 22.5 -24t49 -14t49 -23t22.5 -48t-27.5 -51.5t-60 -30.5t-60 -19.5t-27.5 -19.5 q0 -39 51 -59.5t107 -20.5q39 0 130 26q10 4 14 4q30 0 30 -30q0 -15 -36 -33q-4 -2 -26.5 -8t-55.5 -12.5t-56 -6.5q-85 0 -151.5 37t-66.5 103zM160 658q0 30 30 30q11 0 30 -19l90 -90q16 -16 16 -29q0 -30 -30 -30q-12 0 -30 18l-90 90q-16 16 -16 30z" />
<glyph unicode="&#xc9;" horiz-adv-x="400" d="M40 140q0 30 27 52t60 31t60 19t27 19q0 6 -22 12.5t-49 13.5t-49 29t-22 54q0 41 28 65.5t74 24.5q39 0 106 -20q30 -9 30 -30q0 -30 -30 -30l-20 4q-53 16 -86 16q-42 0 -42 -30q0 -15 22.5 -24t49 -14t49 -23t22.5 -48t-27.5 -51.5t-60 -30.5t-60 -19.5t-27.5 -19.5 q0 -39 51 -59.5t107 -20.5q39 0 130 26q10 4 14 4q30 0 30 -30q0 -15 -36 -33q-4 -2 -26.5 -8t-55.5 -12.5t-56 -6.5q-85 0 -151.5 37t-66.5 103zM194 550q0 13 16 29l90 90q19 19 30 19q30 0 30 -30q0 -14 -16 -30l-90 -90q-18 -18 -30 -18q-30 0 -30 30z" />
<glyph unicode="&#xca;" horiz-adv-x="400" d="M40 140q0 30 27 52t60 31t60 19t27 19q0 6 -22 12.5t-49 13.5t-49 29t-22 54q0 41 28 65.5t74 24.5q39 0 106 -20q30 -9 30 -30q0 -30 -30 -30l-20 4q-53 16 -86 16q-42 0 -42 -30q0 -15 22.5 -24t49 -14t49 -23t22.5 -48t-27.5 -51.5t-60 -30.5t-60 -19.5t-27.5 -19.5 q0 -39 51 -59.5t107 -20.5q39 0 130 26q10 4 14 4q30 0 30 -30q0 -15 -36 -33q-4 -2 -26.5 -8t-55.5 -12.5t-56 -6.5q-85 0 -151.5 37t-66.5 103zM40 550q0 13 30 43l16 16l16.5 16.5t15 14t16 14t15 11t17 10t16.5 6.5t19 5.5t19 1.5q24 0 43 -14.5t30 -38t16.5 -40 t8.5 -33.5q2 -7 2 -12q0 -30 -29 -30q-25 0 -31 30q-5 24 -16 51t-24 27q-21 0 -42 -17t-66 -61q-30 -30 -42 -30q-30 0 -30 30z" />
<glyph unicode="&#xcb;" horiz-adv-x="400" d="M40 140q0 30 27 52t60 31t60 19t27 19q0 6 -22 12.5t-49 13.5t-49 29t-22 54q0 41 28 65.5t74 24.5q39 0 106 -20q30 -9 30 -30q0 -30 -30 -30l-20 4q-53 16 -86 16q-42 0 -42 -30q0 -15 22.5 -24t49 -14t49 -23t22.5 -48t-27.5 -51.5t-60 -30.5t-60 -19.5t-27.5 -19.5 q0 -39 51 -59.5t107 -20.5q39 0 130 26q10 4 14 4q30 0 30 -30q0 -15 -36 -33q-4 -2 -26.5 -8t-55.5 -12.5t-56 -6.5q-85 0 -151.5 37t-66.5 103zM80 596q0 30 30 30q16 0 33 -14.5t17 -31.5q0 -14 -13.5 -22t-28.5 -8q-17 0 -27.5 14.5t-10.5 31.5zM260 566q0 30 30 30 q16 0 33 -14.5t17 -31.5q0 -14 -13.5 -22t-28.5 -8q-17 0 -27.5 14.5t-10.5 31.5z" />
<glyph unicode="&#xcc;" horiz-adv-x="520" d="M40 390q0 22 30 31q4 1 27.5 7.5t28 8t24.5 6.5t27.5 6t25.5 4t30.5 4t30 2t36.5 1q76 0 150 -37q30 -15 30 -33q0 -30 -30 -30q-8 0 -28 10q-60 30 -122 30q-38 0 -80 -5v-135q0 -45 2.5 -94.5t5.5 -77.5l2 -27q2 0 12.5 -0.5t19.5 -0.5q96 0 164 54q9 8 24 8 q30 0 30 -25q0 -15 -24 -34q-79 -63 -194 -63q-77 0 -112.5 14.5t-59.5 42.5q-20 23 -20 33q0 30 30 30q3 0 5.5 -0.5t4.5 -1.5t3.5 -1.5t4 -3l3.5 -3.5t4 -5t5 -6q15 -17 39 -28q-9 89 -9 189v123q-15 -3 -74 -19l-16 -4q-30 0 -30 30zM160 658q0 30 30 30q11 0 30 -19 l90 -90q16 -16 16 -29q0 -30 -30 -30q-12 0 -30 18l-90 90q-16 16 -16 30z" />
<glyph unicode="&#xcd;" horiz-adv-x="520" d="M40 390q0 22 30 31q4 1 27.5 7.5t28 8t24.5 6.5t27.5 6t25.5 4t30.5 4t30 2t36.5 1q76 0 150 -37q30 -15 30 -33q0 -30 -30 -30q-8 0 -28 10q-60 30 -122 30q-38 0 -80 -5v-135q0 -45 2.5 -94.5t5.5 -77.5l2 -27q2 0 12.5 -0.5t19.5 -0.5q96 0 164 54q9 8 24 8 q30 0 30 -25q0 -15 -24 -34q-79 -63 -194 -63q-77 0 -112.5 14.5t-59.5 42.5q-20 23 -20 33q0 30 30 30q3 0 5.5 -0.5t4.5 -1.5t3.5 -1.5t4 -3l3.5 -3.5t4 -5t5 -6q15 -17 39 -28q-9 89 -9 189v123q-15 -3 -74 -19l-16 -4q-30 0 -30 30zM240 550q0 13 16 29l90 90 q19 19 30 19q30 0 30 -30q0 -14 -16 -30l-90 -90q-18 -18 -30 -18q-30 0 -30 30z" />
<glyph unicode="&#xce;" horiz-adv-x="520" d="M40 390q0 22 30 31q4 1 27.5 7.5t28 8t24.5 6.5t27.5 6t25.5 4t30.5 4t30 2t36.5 1q76 0 150 -37q30 -15 30 -33q0 -30 -30 -30q-8 0 -28 10q-60 30 -122 30q-38 0 -80 -5v-135q0 -45 2.5 -94.5t5.5 -77.5l2 -27q2 0 12.5 -0.5t19.5 -0.5q96 0 164 54q9 8 24 8 q30 0 30 -25q0 -15 -24 -34q-79 -63 -194 -63q-77 0 -112.5 14.5t-59.5 42.5q-20 23 -20 33q0 30 30 30q3 0 5.5 -0.5t4.5 -1.5t3.5 -1.5t4 -3l3.5 -3.5t4 -5t5 -6q15 -17 39 -28q-9 89 -9 189v123q-15 -3 -74 -19l-16 -4q-30 0 -30 30zM80 550q0 13 30 43l16 16l16.5 16.5 t15 14t16 14t15 11t17 10t16.5 6.5t19 5.5t19 1.5q24 0 43 -14.5t30 -38t16.5 -40t8.5 -33.5q2 -7 2 -12q0 -30 -29 -30q-25 0 -31 30q-5 24 -16 51t-24 27q-21 0 -42.5 -17t-65.5 -61q-30 -30 -42 -30q-30 0 -30 30z" />
<glyph unicode="&#xcf;" horiz-adv-x="520" d="M40 390q0 22 30 31q4 1 27.5 7.5t28 8t24.5 6.5t27.5 6t25.5 4t30.5 4t30 2t36.5 1q76 0 150 -37q30 -15 30 -33q0 -30 -30 -30q-8 0 -28 10q-60 30 -122 30q-38 0 -80 -5v-135q0 -45 2.5 -94.5t5.5 -77.5l2 -27q2 0 12.5 -0.5t19.5 -0.5q96 0 164 54q9 8 24 8 q30 0 30 -25q0 -15 -24 -34q-79 -63 -194 -63q-77 0 -112.5 14.5t-59.5 42.5q-20 23 -20 33q0 30 30 30q3 0 5.5 -0.5t4.5 -1.5t3.5 -1.5t4 -3l3.5 -3.5t4 -5t5 -6q15 -17 39 -28q-9 89 -9 189v123q-15 -3 -74 -19l-16 -4q-30 0 -30 30zM120 596q0 30 30 30q16 0 33 -14.5 t17 -31.5q0 -14 -13.5 -22t-28.5 -8q-17 0 -27.5 14.5t-10.5 31.5zM300 566q0 30 30 30q16 0 33 -14.5t17 -31.5q0 -14 -13.5 -22t-28.5 -8q-17 0 -27.5 14.5t-10.5 31.5z" />
<glyph unicode="&#xd0;" horiz-adv-x="560" d="M40 309q0 27 30 31l50 7q3 80 20 141q7 25 29.5 50t58.5 37q33 11 82 11q78 0 144 -58.5t66 -125.5q0 -54 -19 -100.5t-55.5 -84.5t-71.5 -66.5t-84.5 -65t-76.5 -61.5q-4 -3 -10.5 -9.5l-9.5 -9.5t-8.5 -6.5t-10 -4.5t-10.5 -1q-30 0 -30 31q0 11 30 38q33 30 97 78.5 t100.5 78.5t67.5 79t31 102q0 44 -50 85t-100 41q-39 0 -61 -8q-43 -15 -53 -54q-14 -55 -15 -110q64 6 89 6q30 0 30 -30q0 -13 -8 -21.5t-22 -8.5q-26 0 -90 -6q2 -103 12 -139q2 -12 2 -15q0 -30 -30 -30q-15 0 -21 6.5t-10 23.5q-10 45 -13 147l-40 -6q-2 0 -5 -0.5 t-5 -0.5q-30 0 -30 29z" />
<glyph unicode="&#xd1;" horiz-adv-x="520" d="M50 30q0 14 15 164t15 166q0 40 22 65t58 25q33 0 57.5 -25t32.5 -65q11 -56 41.5 -163t48.5 -107q25 0 52.5 150t27.5 190q0 30 30 30t30 -30q0 -12 -7 -68t-23 -139t-35 -133q-10 -28 -30.5 -44t-44.5 -16q-47 0 -74 60q-35 78 -76 270q-3 14 -11.5 22t-18.5 8 q-20 0 -20 -30t-30 -330q-3 -30 -30 -30q-30 0 -30 30zM120 618q0 14 11 25q24 24 44.5 34.5t46.5 10.5q22 0 49.5 -15t49 -30t29.5 -15q22 0 31 7t9 23q0 30 30 30t30 -30q0 -41 -27.5 -65.5t-72.5 -24.5q-24 0 -69.5 30t-58.5 30q-14 0 -23.5 -6t-26.5 -23 q-11 -11 -22 -11q-30 0 -30 30z" />
<glyph unicode="&#xd2;" horiz-adv-x="500" d="M40 210q0 28 10 66t29.5 77t54 65.5t76.5 26.5q16 0 32 -2q58 17 85 17q63 0 98 -58.5t35 -121.5q0 -34 -5.5 -67.5t-21.5 -73.5t-41 -69.5t-69.5 -49.5t-102.5 -20q-94 0 -137 50.5t-43 159.5zM100 210q0 -87 26.5 -118.5t93.5 -31.5q51 0 88 19.5t56 53t27.5 70 t8.5 77.5q0 44 -21.5 82t-51.5 38q-23 0 -49 -9t-34 -9q-15 3 -34 3q-46 0 -78 -62t-32 -113zM240 658q0 30 30 30q11 0 30 -19l90 -90q16 -16 16 -29q0 -30 -30 -30q-12 0 -30 18l-90 90q-16 16 -16 30z" />
<glyph unicode="&#xd3;" horiz-adv-x="500" d="M40 210q0 28 10 66t29.5 77t54 65.5t76.5 26.5q16 0 32 -2q58 17 85 17q63 0 98 -58.5t35 -121.5q0 -34 -5.5 -67.5t-21.5 -73.5t-41 -69.5t-69.5 -49.5t-102.5 -20q-94 0 -137 50.5t-43 159.5zM100 210q0 -87 26.5 -118.5t93.5 -31.5q51 0 88 19.5t56 53t27.5 70 t8.5 77.5q0 44 -21.5 82t-51.5 38q-23 0 -49 -9t-34 -9q-15 3 -34 3q-46 0 -78 -62t-32 -113zM240 550q0 13 16 29l90 90q19 19 30 19q30 0 30 -30q0 -14 -16 -30l-90 -90q-18 -18 -30 -18q-30 0 -30 30z" />
<glyph unicode="&#xd4;" horiz-adv-x="500" d="M40 210q0 28 10 66t29.5 77t54 65.5t76.5 26.5q16 0 32 -2q58 17 85 17q63 0 98 -58.5t35 -121.5q0 -34 -5.5 -67.5t-21.5 -73.5t-41 -69.5t-69.5 -49.5t-102.5 -20q-94 0 -137 50.5t-43 159.5zM100 210q0 -87 26.5 -118.5t93.5 -31.5q51 0 88 19.5t56 53t27.5 70 t8.5 77.5q0 44 -21.5 82t-51.5 38q-23 0 -49 -9t-34 -9q-15 3 -34 3q-46 0 -78 -62t-32 -113zM120 550q0 13 30 43l16 16l16.5 16.5t15 14t16 14t15 11t17 10t16.5 6.5t19 5.5t19 1.5q24 0 43 -14.5t30 -38t16.5 -40t8.5 -33.5q2 -7 2 -12q0 -30 -29 -30q-25 0 -31 30 q-5 24 -16 51t-24 27q-21 0 -42.5 -17t-65.5 -61q-30 -30 -42 -30q-30 0 -30 30z" />
<glyph unicode="&#xd5;" horiz-adv-x="500" d="M40 210q0 28 10 66t29.5 77t54 65.5t76.5 26.5q16 0 32 -2q58 17 85 17q63 0 98 -58.5t35 -121.5q0 -34 -5.5 -67.5t-21.5 -73.5t-41 -69.5t-69.5 -49.5t-102.5 -20q-94 0 -137 50.5t-43 159.5zM100 210q0 -87 26.5 -118.5t93.5 -31.5q51 0 88 19.5t56 53t27.5 70 t8.5 77.5q0 44 -21.5 82t-51.5 38q-23 0 -49 -9t-34 -9q-15 3 -34 3q-46 0 -78 -62t-32 -113zM120 618q0 14 11 25q45 45 91 45q29 0 75.5 -30t52.5 -30q40 0 40 30t30 30t30 -30q0 -40 -27.5 -65t-72.5 -25q-24 0 -69.5 30t-58.5 30q-21 0 -50 -29q-11 -11 -22 -11 q-30 0 -30 30z" />
<glyph unicode="&#xd6;" horiz-adv-x="500" d="M40 210q0 28 10 66t29.5 77t54 65.5t76.5 26.5q16 0 32 -2q58 17 85 17q63 0 98 -58.5t35 -121.5q0 -34 -5.5 -67.5t-21.5 -73.5t-41 -69.5t-69.5 -49.5t-102.5 -20q-94 0 -137 50.5t-43 159.5zM100 210q0 -87 26.5 -118.5t93.5 -31.5q51 0 88 19.5t56 53t27.5 70 t8.5 77.5q0 44 -21.5 82t-51.5 38q-23 0 -49 -9t-34 -9q-15 3 -34 3q-46 0 -78 -62t-32 -113zM120 596q0 30 30 30q16 0 33 -14.5t17 -31.5q0 -14 -13.5 -22t-28.5 -8q-17 0 -27.5 14.5t-10.5 31.5zM300 566q0 30 30 30q16 0 33 -14.5t17 -31.5q0 -14 -13.5 -22t-28.5 -8 q-17 0 -27.5 14.5t-10.5 31.5z" />
<glyph unicode="&#xd7;" horiz-adv-x="320" d="M40 90q0 14 30 44l40 40q-10 14 -42 78q-8 16 -8 28q0 30 30 30q15 0 30 -30q3 -7 8 -19t10.5 -23t13.5 -22l54 54q30 30 44 30q30 0 30 -30q0 -11 -33 -44l-54 -54q22 -19 47 -32q30 -15 30 -30q0 -30 -30 -30q-14 0 -28 7q-36 18 -61 43l-40 -40q-5 -6 -20.5 -18 t-20.5 -12q-30 0 -30 30z" />
<glyph unicode="&#xd8;" horiz-adv-x="580" d="M40 270q0 35 14 83.5t38 97t64 82.5t86 34q18 0 38 -2q23 18 67 21q12 54 16 74q3 15 9.5 21.5t21.5 6.5q29 0 29 -30q0 -6 -8 -46l-6 -26q43 -10 73.5 -48.5t44 -84.5t13.5 -93q0 -97 -25.5 -169.5t-68 -112.5t-90.5 -59t-101 -19h-27q-3 -10 -12.5 -47t-12.5 -47 q-9 -30 -30 -30q-30 0 -30 30q0 15 10 52q4 16 16 56q-129 46 -129 256zM100 270q0 -165 89 -199q93 273 139 442q-14 -12 -26 -12q-2 0 -5 0.5t-7 1.5t-7 1q-18 3 -41 3q-38 0 -72 -45t-52 -99.5t-18 -92.5zM249 60q64 0 110.5 24.5t72 68.5t37 95t11.5 112q0 55 -23 106.5 t-63 59.5q-47 -182 -145 -466z" />
<glyph unicode="&#xd9;" d="M40 360q0 30 30 30t30 -30q0 -302 92 -302q54 0 98.5 60t67 144t22.5 168q0 30 30 30t30 -30q0 -68 -15 -140t-44 -138.5t-78.5 -109t-110.5 -42.5q-29 0 -52.5 12t-39 30.5t-27 48t-18 59t-10 68.5t-4.5 70.5t-1 71.5zM120 658q0 30 30 30q17 0 32 -30q35 -69 108 -128 q30 -24 30 -37q0 -31 -30 -31q-12 0 -48 30q-21 17 -58 59.5t-57 82.5q-7 13 -7 24z" />
<glyph unicode="&#xda;" d="M40 360q0 30 30 30t30 -30q0 -302 92 -302q54 0 98.5 60t67 144t22.5 168q0 30 30 30t30 -30q0 -68 -15 -140t-44 -138.5t-78.5 -109t-110.5 -42.5q-29 0 -52.5 12t-39 30.5t-27 48t-18 59t-10 68.5t-4.5 70.5t-1 71.5zM120 506q0 4 1 7.5t3.5 7.5t4.5 6.5t8 9t9 10.5 q92 104 169 135q15 6 25 6q30 0 30 -30q0 -8 -9.5 -17t-20.5 -13q-34 -14 -79 -52t-71 -70q-26 -30 -40 -30q-30 0 -30 30z" />
<glyph unicode="&#xdb;" d="M40 360q0 30 30 30t30 -30q0 -302 92 -302q54 0 98.5 60t67 144t22.5 168q0 30 30 30t30 -30q0 -68 -15 -140t-44 -138.5t-78.5 -109t-110.5 -42.5q-29 0 -52.5 12t-39 30.5t-27 48t-18 59t-10 68.5t-4.5 70.5t-1 71.5zM80 550q0 13 30 43l16 16l16.5 16.5t15 14t16 14 t15 11t17 10t16.5 6.5t19 5.5t19 1.5q24 0 43 -14.5t30 -38t16.5 -40t8.5 -33.5q2 -7 2 -12q0 -30 -29 -30q-25 0 -31 30q-5 24 -16 51t-24 27q-21 0 -42.5 -17t-65.5 -61q-30 -30 -42 -30q-30 0 -30 30z" />
<glyph unicode="&#xdc;" d="M40 360q0 30 30 30t30 -30q0 -302 92 -302q54 0 98.5 60t67 144t22.5 168q0 30 30 30t30 -30q0 -68 -15 -140t-44 -138.5t-78.5 -109t-110.5 -42.5q-29 0 -52.5 12t-39 30.5t-27 48t-18 59t-10 68.5t-4.5 70.5t-1 71.5zM80 596q0 30 30 30q16 0 33 -14.5t17 -31.5 q0 -14 -13.5 -22t-28.5 -8q-17 0 -27.5 14.5t-10.5 31.5zM260 566q0 30 30 30q16 0 33 -14.5t17 -31.5q0 -14 -13.5 -22t-28.5 -8q-17 0 -27.5 14.5t-10.5 31.5z" />
<glyph unicode="&#xdd;" d="M40 430q0 30 29 30q11 0 31 -24q4 -4 27 -34t37.5 -44.5t44 -30t61.5 -15.5q28 0 61.5 21t47.5 51q13 30 31 30q30 0 30 -30q0 -53 -33 -132l-89 -225q-11 -27 -31 -27q-30 0 -30 30q0 5 7 24l86 220q-37 -22 -80 -22q-22 0 -43 5t-37 11t-33.5 19t-27.5 21t-25 25.5 t-19.5 23.5t-17.5 24t-14 19q-3 3 -8 14t-5 16zM200 506q0 4 1 7.5t3.5 7.5t4.5 6.5t8 9t9 10.5q92 104 169 135q15 6 25 6q30 0 30 -30q0 -8 -9.5 -17t-20.5 -13q-34 -14 -79 -52t-71 -70q-25 -30 -40 -30q-30 0 -30 30z" />
<glyph unicode="&#xde;" horiz-adv-x="520" d="M40 -50q0 73 20 176v532q0 30 30 30t30 -30v-366q27 44 73 61t129 17q63 0 110.5 -32.5t47.5 -87.5q0 -31 -14 -55.5t-34.5 -40t-54.5 -27t-62.5 -17.5t-70.5 -9t-66.5 -4t-61.5 -1q-16 -80 -16 -146q0 -110 17 -212q0 -3 0.5 -6t1 -4.5l1 -3t0.5 -2.5v-2v-2 q0 -30 -30 -30q-25 0 -30 28q-20 120 -20 234zM130 156q290 2 290 94q0 28 -30.5 44t-67.5 16q-48 0 -74 -4t-51 -19.5t-40 -46.5t-27 -84z" />
<glyph unicode="&#xdf;" d="M40 130q0 82 8.5 154.5t29 144.5t62 114.5t100.5 42.5q48 0 74 -44.5t26 -91.5q0 -84 -37 -135q63 -5 100 -42t37 -103q0 -42 -25 -71t-65 -29q-80 0 -120 20q-17 8 -23.5 14t-6.5 16q0 30 30 30q11 0 26 -6q39 -14 94 -14q15 0 22.5 11.5t7.5 28.5q0 90 -100 90 q-15 0 -35 -10t-35 -10q-30 0 -30 30q0 2 0.5 4.5t2 4.5t2.5 3.5t3.5 3.5t4 3l4.5 3l4.5 3l4.5 3t4 2q70 43 70 150q0 27 -12.5 51.5t-27.5 24.5q-38 0 -66 -35t-43.5 -94t-23 -126t-7.5 -141q0 -193 67 -394q3 -9 3 -18q0 -12 -8 -21t-22 -9q-9 0 -15 4.5t-8.5 9.5t-6.5 16 q-70 210 -70 412z" />
<glyph unicode="&#xe0;" d="M40 100q0 107 76 183.5t154 76.5q43 0 71.5 -21t28.5 -39q0 -30 -30 -30q-8 0 -15.5 7.5t-20.5 15t-34 7.5q-52 0 -111 -59t-59 -141q0 -18 11 -29t29 -11q40 0 78.5 27t48.5 48q27 55 48 55q13 0 24 -12t26 -43q45 -90 45 -105q0 -30 -30 -30q-10 0 -16 6.5t-14 23.5 l-35 70q-13 -26 -64 -63t-111 -37q-44 0 -72 28t-28 72zM200 658q0 30 30 30q17 0 32 -30q35 -69 108 -128q30 -24 30 -37q0 -31 -30 -31q-12 0 -48 30q-21 17 -58 59.5t-57 82.5q-7 13 -7 24z" />
<glyph unicode="&#xe1;" d="M40 90q0 99 81.5 184.5t160.5 85.5q45 0 77.5 -16.5t32.5 -33.5q0 -30 -30 -30q-6 0 -29 10t-51 10q-51 0 -116.5 -66t-65.5 -144q0 -30 30 -30q59 0 113.5 39t75.5 70q10 15 19 32t13.5 22.5t10.5 5.5q24 0 32 -11t20 -50q2 -8 9 -37t12.5 -39t14.5 -10q4 0 18 4 q11 4 14 4q30 0 30 -30q0 -13 -21.5 -25.5t-40.5 -12.5q-21 0 -37 8t-25 23.5t-13.5 27t-8.5 29.5l-4 17q-18 -32 -88.5 -79.5t-143.5 -47.5q-40 0 -65 25t-25 65zM160 506q0 4 1 7.5t3.5 7.5t4.5 6.5t8 9t9 10.5q92 104 169 135q15 6 25 6q30 0 30 -30q0 -8 -9.5 -17 t-20.5 -13q-34 -14 -79 -52t-71 -70q-25 -30 -40 -30q-30 0 -30 30z" />
<glyph unicode="&#xe2;" d="M40 90q0 99 81.5 184.5t160.5 85.5q45 0 77.5 -16.5t32.5 -33.5q0 -30 -30 -30q-6 0 -29 10t-51 10q-51 0 -116.5 -66t-65.5 -144q0 -30 30 -30q59 0 113.5 39t75.5 70q10 15 19 32t13.5 22.5t10.5 5.5q24 0 32 -11t20 -50q2 -8 9 -37t12.5 -39t14.5 -10q4 0 18 4 q11 4 14 4q30 0 30 -30q0 -13 -21.5 -25.5t-40.5 -12.5q-21 0 -37 8t-25 23.5t-13.5 27t-8.5 29.5l-4 17q-18 -32 -88.5 -79.5t-143.5 -47.5q-40 0 -65 25t-25 65zM80 510q0 15 30 43q9 9 27.5 27t25.5 25.5t21.5 21t21 19t18.5 14.5t19.5 12.5t17.5 8t19.5 6t19.5 1.5 q14 0 26.5 -5.5t21 -13.5t16 -21t12 -23.5t9 -26.5t6.5 -24t4.5 -21.5t2.5 -14.5q2 -7 2 -12q0 -30 -29 -30q-25 0 -31 30q-20 102 -40 102q-21 0 -47.5 -22t-100.5 -96l-6 -6t-6 -5.5t-5 -4.5l-4.5 -4.5t-4.5 -3.5t-4.5 -2.5t-3.5 -1.5t-4 -1.5t-4 -0.5q-30 0 -30 30z" />
<glyph unicode="&#xe3;" d="M40 90q0 99 81.5 184.5t160.5 85.5q45 0 77.5 -16.5t32.5 -33.5q0 -30 -30 -30q-6 0 -29 10t-51 10q-51 0 -116.5 -66t-65.5 -144q0 -30 30 -30q59 0 113.5 39t75.5 70q10 15 19 32t13.5 22.5t10.5 5.5q24 0 32 -11t20 -50q2 -8 9 -37t12.5 -39t14.5 -10q4 0 18 4 q11 4 14 4q30 0 30 -30q0 -13 -21.5 -25.5t-40.5 -12.5q-21 0 -37 8t-25 23.5t-13.5 27t-8.5 29.5l-4 17q-18 -32 -88.5 -79.5t-143.5 -47.5q-40 0 -65 25t-25 65zM70 580q0 19 38.5 48.5t81.5 29.5q29 0 71.5 -19t48.5 -19q15 0 24 6t11 12.5t5 19.5q2 10 4 15.5t8.5 10 t17.5 4.5q30 0 30 -30q0 -35 -24 -66.5t-76 -31.5q-22 0 -62.5 19t-57.5 19q-27 0 -52 -24t-38 -24q-30 0 -30 30z" />
<glyph unicode="&#xe4;" d="M40 90q0 99 81.5 184.5t160.5 85.5q45 0 77.5 -16.5t32.5 -33.5q0 -30 -30 -30q-6 0 -29 10t-51 10q-51 0 -116.5 -66t-65.5 -144q0 -30 30 -30q59 0 113.5 39t75.5 70q10 15 19 32t13.5 22.5t10.5 5.5q24 0 32 -11t20 -50q2 -8 9 -37t12.5 -39t14.5 -10q4 0 18 4 q11 4 14 4q30 0 30 -30q0 -13 -21.5 -25.5t-40.5 -12.5q-21 0 -37 8t-25 23.5t-13.5 27t-8.5 29.5l-4 17q-18 -32 -88.5 -79.5t-143.5 -47.5q-40 0 -65 25t-25 65zM120 596q0 30 30 30q16 0 33 -14.5t17 -31.5q0 -14 -13.5 -22t-28.5 -8q-17 0 -27.5 14.5t-10.5 31.5z M300 566q0 30 30 30q16 0 33 -14.5t17 -31.5q0 -14 -13.5 -22t-28.5 -8q-17 0 -27.5 14.5t-10.5 31.5z" />
<glyph unicode="&#xe5;" d="M40 90q0 99 81.5 184.5t160.5 85.5q45 0 77.5 -16.5t32.5 -33.5q0 -30 -30 -30q-6 0 -29 10t-51 10q-51 0 -116.5 -66t-65.5 -144q0 -30 30 -30q59 0 113.5 39t75.5 70q10 15 19 32t13.5 22.5t10.5 5.5q24 0 32 -11t20 -50q2 -8 9 -37t12.5 -39t14.5 -10q4 0 18 4 q11 4 14 4q30 0 30 -30q0 -13 -21.5 -25.5t-40.5 -12.5q-21 0 -37 8t-25 23.5t-13.5 27t-8.5 29.5l-4 17q-18 -32 -88.5 -79.5t-143.5 -47.5q-40 0 -65 25t-25 65zM120 560q0 55 30 91.5t80 36.5q46 0 83 -39.5t37 -88.5q0 -43 -29 -71.5t-91 -28.5q-48 0 -79 31.5t-31 68.5 zM180 560q0 -17 15 -28.5t35 -11.5q19 0 30 2t20.5 11t9.5 27q0 23 -18 45.5t-42 22.5q-22 0 -36 -19t-14 -49z" />
<glyph unicode="&#xe6;" horiz-adv-x="690" d="M40 140q0 54 20.5 98.5t52 69.5t64.5 38.5t63 13.5q55 0 100 -34q30 -22 30 -36q0 -30 -30 -30q-13 0 -36 18q-31 22 -64 22q-46 0 -93 -40.5t-47 -119.5q0 -80 60 -80q20 0 40.5 6.5t34.5 14.5t30.5 22t24 22t19.5 22t13 15q11 12 18 34q0 30 29 36q7 45 57.5 86.5 t123.5 41.5q43 0 76.5 -25.5t33.5 -64.5q0 -72 -58 -120t-147 -48q9 -15 34 -28.5t41 -13.5q57 0 148 26q10 4 14 4q30 0 30 -30q0 -15 -36 -33q-7 -3 -23 -8.5t-54.5 -12t-78.5 -6.5q-56 0 -98 40t-56 90q-38 -48 -94.5 -89t-121.5 -41q-45 0 -82.5 30.5t-37.5 109.5z M425 196q0 -34 30 -34q65 0 105 31t40 77q0 13 -16.5 21.5t-33.5 8.5q-45 0 -85 -27.5t-40 -76.5z" />
<glyph unicode="&#xe7;" horiz-adv-x="420" d="M40 140q0 86 76 153t154 67q38 0 74 -17t36 -33q0 -30 -30 -30q-9 0 -36.5 10t-43.5 10q-57 0 -113.5 -52t-56.5 -108q0 -45 22 -62.5t78 -17.5h60q24 0 46.5 2t39.5 6t28.5 7t21.5 7t12 4q10 4 14 4q30 0 30 -30q0 -15 -36 -33q-6 -3 -23 -8.5t-55.5 -12t-77.5 -6.5h-60 q-160 0 -160 140zM180 -221q0 30 30 30h40q30 0 30 30q0 7 -6.5 16.5t-13 16.5t-20 19.5t-18.5 17.5q-22 22 -22 80v10h60v-10q0 -34 10 -44q1 -1 7.5 -6.5t13.5 -11.5t16 -16.5t16 -21t12 -24t5 -26.5q0 -41 -25 -65.5t-65 -24.5h-40q-30 0 -30 30z" />
<glyph unicode="&#xe8;" horiz-adv-x="400" d="M-30 60q0 7 7.5 14.5t14.5 11.5l8 4q16 10 46 25q-6 14 -6 27q0 93 54.5 155.5t105.5 62.5t80.5 -24.5t29.5 -65.5q0 -54 -47.5 -95.5t-135.5 -85.5q40 -29 113 -29q57 0 148 26q10 4 14 4q30 0 30 -30q0 -15 -36 -33q-7 -3 -23 -8.5t-54.5 -12t-78.5 -6.5 q-109 0 -173 59q-16 -9 -67 -29q-30 0 -30 30zM100 142q78 39 114 69t36 59q0 30 -50 30q-30 0 -65 -46.5t-35 -111.5zM160 658q0 30 30 30q17 0 32 -30q15 -31 51.5 -71.5t56.5 -56.5q30 -24 30 -37q0 -31 -30 -31q-12 0 -48 30q-21 17 -58 59.5t-57 82.5q-7 13 -7 24z" />
<glyph unicode="&#xe9;" horiz-adv-x="440" d="M-30 60q0 7 7.5 14.5t14.5 11.5l8 4q16 10 66 35q-6 13 -6 27q0 85 36 136.5t79 51.5q45 0 72.5 -27t27.5 -68q0 -46 -32 -80t-96 -66q54 -39 113 -39q77 0 168 26q10 4 14 4q30 0 30 -30q0 -15 -36 -33q-4 -2 -31.5 -8t-70 -12.5t-74.5 -6.5q-98 0 -173 69 q-30 -16 -87 -39q-30 0 -30 30zM120 152q51 26 73 48t22 45q0 15 -11 25t-29 10q-17 0 -36 -38t-19 -90zM150 446q0 4 1 7.5t3.5 7.5t4.5 6.5t8 9t9 10.5q92 104 169 135q15 6 25 6q30 0 30 -30q0 -8 -9.5 -17t-20.5 -13q-34 -14 -79 -52t-71 -70q-26 -30 -40 -30 q-30 0 -30 30z" />
<glyph unicode="&#xea;" horiz-adv-x="400" d="M-30 60q0 7 7.5 14.5t14.5 11.5l8 4q16 10 46 25q-6 14 -6 27q0 92 63.5 155t116.5 63q51 0 80.5 -24.5t29.5 -65.5q0 -28 -16 -53t-49.5 -49t-61.5 -39.5t-76 -39.5q40 -29 113 -29q57 0 148 26q10 4 14 4q30 0 30 -30q0 -15 -36 -33q-7 -3 -23 -8.5t-54.5 -12 t-78.5 -6.5q-109 0 -173 59q-16 -9 -67 -29q-30 0 -30 30zM47 430q0 15 30 43q9 9 27.5 27t25.5 25.5t21.5 21t21 19t18.5 14.5t19.5 12.5t17.5 8t19.5 6t19.5 1.5q14 0 26.5 -5.5t21 -13.5t16 -21t12 -23.5t9 -26.5t6.5 -24t4.5 -21.5t2.5 -14.5q2 -7 2 -12q0 -30 -29 -30 q-25 0 -31 30q-20 102 -40 102q-21 0 -47.5 -22.5t-100.5 -95.5l-6 -6t-6 -5.5t-5 -4.5l-4.5 -4.5t-4.5 -3.5t-4.5 -2.5t-3.5 -1.5t-4 -1.5t-4 -0.5q-30 0 -30 30zM100 142q170 85 170 128q0 30 -50 30q-30 0 -75 -47.5t-45 -110.5z" />
<glyph unicode="&#xeb;" horiz-adv-x="400" d="M-30 60q0 7 7.5 14.5t14.5 11.5l8 4q16 10 46 25q-6 14 -6 27q0 92 63.5 155t116.5 63q51 0 80.5 -24.5t29.5 -65.5q0 -28 -16 -53t-49.5 -49t-61.5 -39.5t-76 -39.5q40 -29 113 -29q57 0 148 26q10 4 14 4q30 0 30 -30q0 -15 -36 -33q-7 -3 -23 -8.5t-54.5 -12 t-78.5 -6.5q-109 0 -173 59q-16 -9 -67 -29q-30 0 -30 30zM44 560q0 30 30 30q16 0 33 -14.5t17 -31.5q0 -14 -13.5 -22t-28.5 -8q-17 0 -27.5 14.5t-10.5 31.5zM100 142q170 85 170 128q0 30 -50 30q-30 0 -75 -47.5t-45 -110.5zM224 530q0 30 30 30q16 0 33 -14.5 t17 -31.5q0 -14 -13.5 -22t-28.5 -8q-17 0 -27.5 14.5t-10.5 31.5z" />
<glyph unicode="&#xec;" horiz-adv-x="420" d="M-30 60q0 4 3 9t7.5 8.5t9 6.5t7.5 4l3 2q14 7 39 23.5t41 32.5q1 1 20 21t29.5 29.5t29.5 24.5t36.5 22t34.5 7q39 0 60 -28t25 -62t12 -62t23 -28q10 0 20.5 3t22 7.5t15.5 5.5q10 4 14 4q30 0 30 -30q0 -15 -36 -33q-34 -17 -66 -17q-39 0 -60 28t-25 62t-12 62 t-23 28q-23 0 -102 -79q-38 -38 -114 -74l-14 -7q-30 0 -30 30zM160 658q0 30 30 30q17 0 32 -30q20 -39 51.5 -73.5t56.5 -54.5q30 -24 30 -37t-8 -22t-22 -9q-12 0 -48 30q-21 17 -58 59.5t-57 82.5q-7 13 -7 24z" />
<glyph unicode="&#xed;" horiz-adv-x="420" d="M-30 60q0 4 3 9t7.5 8.5t9 6.5t7.5 4l3 2q14 7 39 23.5t41 32.5q1 1 20 21t29.5 29.5t29.5 24.5t36.5 22t34.5 7q39 0 60 -28t25 -62t12 -62t23 -28q10 0 20.5 3t22 7.5t15.5 5.5q10 4 14 4q30 0 30 -30q0 -15 -36 -33q-34 -17 -66 -17q-39 0 -60 28t-25 62t-12 62 t-23 28q-23 0 -102 -79q-38 -38 -114 -74l-14 -7q-30 0 -30 30zM120 506q0 4 1 7.5t3.5 7.5t4.5 6.5t8 9t9 10.5q92 104 169 135q15 6 25 6q30 0 30 -30q0 -8 -9.5 -17t-20.5 -13q-34 -14 -79 -52t-71 -70q-26 -30 -40 -30q-30 0 -30 30z" />
<glyph unicode="&#xee;" horiz-adv-x="420" d="M-30 60q0 4 3 9t7.5 8.5t9 6.5t7.5 4l3 2q14 7 39 23.5t41 32.5q1 1 20 21t29.5 29.5t29.5 24.5t36.5 22t34.5 7q39 0 60 -28t25 -62t12 -62t23 -28q10 0 20.5 3t22 7.5t15.5 5.5q10 4 14 4q30 0 30 -30q0 -15 -36 -33q-34 -17 -66 -17q-39 0 -60 28t-25 62t-12 62 t-23 28q-23 0 -102 -79q-38 -38 -114 -74l-14 -7q-30 0 -30 30zM43 408q0 15 30 43q9 9 25 24.5t23 23t20 20t19.5 18t17.5 14.5t17.5 13t16 9t17 7.5t16.5 4t18 1.5q13 0 24 -4t19.5 -11.5t15.5 -16.5t12 -21t9 -22t7.5 -23t5 -20.5t3.5 -18.5t2 -13q2 -7 2 -12 q0 -30 -29 -30q-14 0 -21 7t-10 23q-20 102 -40 102q-21 0 -48 -22t-100 -96l-5.5 -5.5t-5.5 -5t-4.5 -4t-4.5 -4t-4 -3.5t-3.5 -3t-3.5 -2t-4 -1.5t-3.5 -1t-3.5 -0.5q-30 0 -30 30z" />
<glyph unicode="&#xef;" horiz-adv-x="420" d="M-30 60q0 4 3 9t7.5 8.5t9 6.5t7.5 4l3 2q14 7 39 23.5t41 32.5q1 1 20 21t29.5 29.5t29.5 24.5t36.5 22t34.5 7q39 0 60 -28t25 -62t12 -62t23 -28q10 0 20.5 3t22 7.5t15.5 5.5q10 4 14 4q30 0 30 -30q0 -15 -36 -33q-34 -17 -66 -17q-39 0 -60 28t-25 62t-12 62 t-23 28q-23 0 -102 -79q-38 -38 -114 -74l-14 -7q-30 0 -30 30zM80 556q0 11 5 18t11.5 9.5t13.5 2.5q10 0 22 -6.5t20 -17.5t8 -22q0 -14 -13.5 -22t-28.5 -8q-17 0 -27.5 14.5t-10.5 31.5zM260 526q0 11 5 18t11.5 9.5t13.5 2.5q16 0 33 -14.5t17 -31.5q0 -9 -7 -16.5 t-16 -10.5t-19 -3q-17 0 -27.5 14.5t-10.5 31.5z" />
<glyph unicode="&#xf0;" d="M40 90q0 107 68.5 172.5t143.5 65.5q14 0 44 -5t41 -11q-14 22 -124 155q-63 -5 -76 -7h-7q-30 0 -30 30q0 27 30 30q1 0 6 0.5t14 1.5t17 2l-87 104q-16 20 -16 30q0 30 31 30q20 0 38 -23q17 -25 107 -135q128 10 170 10q30 0 30 -30t-30 -30q-36 0 -124 -7 q86 -105 103 -130q23 -37 23 -69q0 -53 -30.5 -105.5t-74 -88t-89.5 -58t-78 -22.5q-45 0 -72.5 25t-27.5 65zM100 90q0 -14 12 -22t28 -8q24 0 64.5 21t84.5 65.5t60 97.5q-16 8 -48 16t-49 8q-49 0 -100.5 -47.5t-51.5 -130.5z" />
<glyph unicode="&#xf1;" horiz-adv-x="630" d="M-30 60q0 7 7.5 14.5t14.5 11.5l8 4q34 17 47 38q18 29 36 65t25.5 47.5t25 20.5t46.5 9q41 0 62 -33t24.5 -72t10.5 -72t23 -33t30.5 23.5t25.5 51.5t35.5 51.5t58.5 23.5t54.5 -20.5t27 -44.5t15.5 -44.5t23 -20.5q27 0 48 6q10 4 14 4q30 0 30 -30q0 -15 -36 -33 q-14 -7 -56 -7q-34 0 -54.5 20.5t-27 44.5t-15.5 44.5t-23 20.5q-16 0 -30.5 -23.5t-25.5 -51.5t-35.5 -51.5t-58.5 -23.5q-41 0 -62 33t-24.5 72t-10.5 72t-23 33q-8 0 -12.5 -1.5t-8 -4.5t-8 -12t-10 -19.5t-17.5 -32t-26 -44.5q-8 -12 -20.5 -23t-20.5 -15.5t-25 -12.5 t-18 -8l-14 -7q-30 0 -30 30zM150 580q0 19 38.5 48.5t81.5 29.5q29 0 71.5 -19t48.5 -19q15 0 24 6t11 12.5t5 19.5q2 10 4 15.5t8.5 10t17.5 4.5q30 0 30 -30q0 -35 -24 -66.5t-76 -31.5q-22 0 -62.5 19t-57.5 19q-27 0 -52 -24t-38 -24q-30 0 -30 30z" />
<glyph unicode="&#xf2;" d="M40 174q0 24 10 55t30 31q30 0 30 -30q0 -10 -5 -28t-5 -29q0 -9 10.5 -26t30.5 -37.5t60 -35t89 -14.5q32 0 61 21t29 59q0 70 -29.5 115t-80.5 45q-24 0 -48.5 -15t-31.5 -15q-30 0 -30 30q0 19 30 37q39 23 80 23q75 0 122.5 -64t47.5 -156q0 -64 -47.5 -102 t-102.5 -38q-65 0 -117 21t-79 51t-40.5 57t-13.5 45zM160 658q0 30 30 30q17 0 32 -30q20 -39 51.5 -73.5t56.5 -54.5q30 -24 30 -37t-8 -22t-22 -9q-12 0 -48 30q-21 17 -58 59.5t-57 82.5q-7 13 -7 24z" />
<glyph unicode="&#xf3;" d="M40 174q0 24 10 55t30 31q30 0 30 -30q0 -10 -5 -28t-5 -29q0 -9 10.5 -26t30.5 -37.5t60 -35t89 -14.5q32 0 61 21t29 59q0 70 -29.5 115t-80.5 45q-24 0 -48.5 -15t-31.5 -15q-30 0 -30 30q0 19 30 37q39 23 80 23q75 0 122.5 -64t47.5 -156q0 -64 -47.5 -102 t-102.5 -38q-65 0 -117 21t-79 51t-40.5 57t-13.5 45zM160 506q0 4 1 7.5t3.5 7.5t4.5 6.5t8 9t9 10.5q92 104 169 135q15 6 25 6q30 0 30 -30q0 -6 -5 -12t-11.5 -10.5t-13.5 -7.5q-34 -14 -79 -52t-71 -70q-25 -30 -40 -30q-30 0 -30 30z" />
<glyph unicode="&#xf4;" d="M40 174q0 24 10 55t30 31q30 0 30 -30q0 -10 -5 -28t-5 -29q0 -9 10.5 -26t30.5 -37.5t60 -35t89 -14.5q32 0 61 21t29 59q0 70 -29.5 115t-80.5 45q-24 0 -48.5 -15t-31.5 -15q-30 0 -30 30q0 19 30 37q39 23 80 23q75 0 122.5 -64t47.5 -156q0 -64 -47.5 -102 t-102.5 -38q-65 0 -117 21t-79 51t-40.5 57t-13.5 45zM80 510q0 15 30 43q9 9 27.5 27t25.5 25.5t21.5 21t21 19t18.5 14.5t19.5 12.5t17.5 8t19.5 6t19.5 1.5q14 0 26.5 -5.5t21 -13.5t16 -21t12 -23.5t9 -26.5t6.5 -24t4.5 -21.5t2.5 -14.5q2 -7 2 -12q0 -30 -29 -30 q-10 0 -16 3.5t-9.5 9.5t-5.5 17q-20 102 -40 102q-21 0 -47.5 -22t-100.5 -96l-6 -6t-6 -5.5t-5 -4.5l-4.5 -4.5t-4.5 -3.5t-4.5 -2.5t-3.5 -1.5t-4 -1.5t-4 -0.5q-30 0 -30 30z" />
<glyph unicode="&#xf5;" d="M40 174q0 24 10 55t30 31q30 0 30 -30q0 -10 -5 -28t-5 -29q0 -9 10.5 -26t30.5 -37.5t60 -35t89 -14.5q32 0 61 21t29 59q0 70 -29.5 115t-80.5 45q-24 0 -48.5 -15t-31.5 -15q-30 0 -30 30q0 19 30 37q39 23 80 23q75 0 122.5 -64t47.5 -156q0 -64 -47.5 -102 t-102.5 -38q-65 0 -117 21t-79 51t-40.5 57t-13.5 45zM80 580q0 19 38.5 48.5t81.5 29.5q29 0 71.5 -19t48.5 -19q12 0 19.5 2.5t11.5 9.5t5.5 11.5t3.5 14.5q1 6 2 9.5t3 8t5 7t8 4t12 1.5q30 0 30 -30q0 -15 -5 -30.5t-15.5 -31.5t-31 -26t-48.5 -10q-22 0 -62.5 19 t-57.5 19q-21 0 -37 -12t-28.5 -24t-24.5 -12q-30 0 -30 30z" />
<glyph unicode="&#xf6;" d="M40 174q0 24 10 55t30 31q30 0 30 -30q0 -10 -5 -28t-5 -29q0 -9 10.5 -26t30.5 -37.5t60 -35t89 -14.5q32 0 61 21t29 59q0 70 -29.5 115t-80.5 45q-24 0 -48.5 -15t-31.5 -15q-30 0 -30 30q0 19 30 37q39 23 80 23q75 0 122.5 -64t47.5 -156q0 -64 -47.5 -102 t-102.5 -38q-65 0 -117 21t-79 51t-40.5 57t-13.5 45zM100 596q0 11 5 18t11.5 9.5t13.5 2.5q16 0 33 -14.5t17 -31.5q0 -14 -13.5 -22t-28.5 -8q-17 0 -27.5 14.5t-10.5 31.5zM280 566q0 11 5 18t11.5 9.5t13.5 2.5q16 0 33 -14.5t17 -31.5q0 -14 -13.5 -22t-28.5 -8 q-17 0 -27.5 14.5t-10.5 31.5z" />
<glyph unicode="&#xf7;" d="M40 310q0 14 7 20.5t23 9.5q100 20 340 20q30 0 30 -30t-30 -30q-235 0 -330 -19q-8 -1 -10 -1q-30 0 -30 30zM190 480q0 30 30 30q16 0 33 -14.5t17 -31.5q0 -14 -13.5 -22t-28.5 -8q-17 0 -27.5 14.5t-10.5 31.5zM210 190q0 30 30 30q16 0 33 -14.5t17 -31.5 q0 -14 -13.5 -22t-28.5 -8q-17 0 -27.5 14.5t-10.5 31.5z" />
<glyph unicode="&#xf8;" d="M40 231q0 84 56.5 157t123.5 79q32 111 49 193q7 28 31 28q29 0 29 -30q0 -6 -8 -46q-16 -74 -29 -119q8 1 26 1q55 0 88.5 -48.5t33.5 -105.5q0 -102 -69 -176t-187 -74q-12 0 -17 1q-53 -149 -58 -189q-1 -8 -9 -17t-21 -9q-30 0 -30 30q0 15 10 52q6 24 49 153 q-31 18 -49.5 50t-18.5 70zM100 232q0 -36 28 -61l72 226q-41 -20 -70.5 -66.5t-29.5 -98.5zM187 150q87 1 140 55t53 135q0 38 -16.5 66t-45.5 28q-26 0 -44 -5q-31 -112 -87 -279z" />
<glyph unicode="&#xf9;" horiz-adv-x="580" d="M-30 60q0 7 7.5 14.5t14.5 11.5l8 4l6 3q37 17 75.5 82t38.5 125q0 28 30 28q27 0 30 -28q1 -12 10 -47t24 -80t38.5 -79t47.5 -34q6 0 13.5 12t15.5 32t16.5 43t16.5 49.5t13.5 45.5t11 37t5.5 19q9 30 38 30q15 0 22 -6t10 -24q0 -2 4 -30t9.5 -56.5t13.5 -60 t18.5 -51.5t22.5 -20q17 0 38 6q10 4 14 4q30 0 30 -30q0 -15 -36 -33q-14 -7 -46 -7q-78 0 -110 160q-3 -12 -9 -30l-6 -18t-7.5 -21.5t-8 -21.5t-10 -22.5t-11.5 -20t-13.5 -19t-15 -14t-18.5 -10.5t-21 -3q-32 0 -61.5 25t-47.5 58t-29 60t-12 37q-17 -34 -60 -80.5 t-76 -62.5l-14 -7q-30 0 -30 30zM240 658q0 30 30 30q17 0 32 -30q35 -69 108 -128q30 -24 30 -37q0 -31 -30 -31q-12 0 -48 30q-21 17 -58 59.5t-57 82.5q-7 13 -7 24z" />
<glyph unicode="&#xfa;" horiz-adv-x="580" d="M-30 60q0 7 7.5 14.5t14.5 11.5l8 4l6 3q37 17 75.5 82t38.5 125q0 28 30 28q27 0 30 -28q1 -12 10 -47t24 -80t38.5 -79t47.5 -34q6 0 13.5 12t15.5 32t16.5 43t16.5 49.5t13.5 45.5t11 37t5.5 19q9 30 38 30q15 0 22 -6t10 -24q0 -2 4 -30t9.5 -56.5t13.5 -60 t18.5 -51.5t22.5 -20q17 0 38 6q10 4 14 4q30 0 30 -30q0 -15 -36 -33q-14 -7 -46 -7q-78 0 -110 160q-3 -12 -9 -30l-6 -18t-7.5 -21.5t-8 -21.5t-10 -22.5t-11.5 -20t-13.5 -19t-15 -14t-18.5 -10.5t-21 -3q-32 0 -61.5 25t-47.5 58t-29 60t-12 37q-17 -34 -60 -80.5 t-76 -62.5l-14 -7q-30 0 -30 30zM200 506q0 4 1 7.5t3.5 7.5t4.5 6.5t8 9t9 10.5q92 104 169 135q15 6 25 6q30 0 30 -30q0 -8 -9.5 -17t-20.5 -13q-34 -14 -79 -52t-71 -70q-25 -30 -40 -30q-30 0 -30 30z" />
<glyph unicode="&#xfb;" horiz-adv-x="580" d="M-30 60q0 7 7.5 14.5t14.5 11.5l8 4l6 3q37 17 75.5 82t38.5 125q0 28 30 28q27 0 30 -28q1 -12 10 -47t24 -80t38.5 -79t47.5 -34q6 0 13.5 12t15.5 32t16.5 43t16.5 49.5t13.5 45.5t11 37t5.5 19q9 30 38 30q15 0 22 -6t10 -24q0 -2 4 -30t9.5 -56.5t13.5 -60 t18.5 -51.5t22.5 -20q17 0 38 6q10 4 14 4q30 0 30 -30q0 -15 -36 -33q-14 -7 -46 -7q-78 0 -110 160q-3 -12 -9 -30l-6 -18t-7.5 -21.5t-8 -21.5t-10 -22.5t-11.5 -20t-13.5 -19t-15 -14t-18.5 -10.5t-21 -3q-32 0 -61.5 25t-47.5 58t-29 60t-12 37q-17 -34 -60 -80.5 t-76 -62.5l-14 -7q-30 0 -30 30zM140 510q0 15 30 43q9 9 27.5 27t25.5 25.5t21.5 21t21 19t18.5 14.5t19.5 12.5t17.5 8t19.5 6t19.5 1.5q14 0 26.5 -5.5t21 -13.5t16 -21t12 -23.5t9 -26.5t6.5 -24t4.5 -21.5t2.5 -14.5q2 -7 2 -12q0 -30 -29 -30q-25 0 -31 30 q-20 102 -40 102q-21 0 -47.5 -22t-100.5 -96l-6 -6t-6 -5.5t-5 -4.5l-4.5 -4.5t-4.5 -3.5t-4.5 -2.5t-3.5 -1.5t-4 -1.5t-4 -0.5q-30 0 -30 30z" />
<glyph unicode="&#xfc;" horiz-adv-x="580" d="M38 60q0 7 7.5 14.5t14.5 11.5l8 4l6 3q37 17 75.5 82t38.5 125q0 28 30 28q27 0 30 -28q1 -12 10 -47t24 -80t38.5 -79t47.5 -34q6 0 13.5 12t15.5 32t16.5 43t16.5 49.5t13.5 45.5t11 37t5.5 19q9 30 38 30q15 0 22 -6t10 -24q0 -2 4 -30t9.5 -56.5t13.5 -60 t18.5 -51.5t22.5 -20q17 0 38 6q10 4 14 4q30 0 30 -30q0 -15 -36 -33q-14 -7 -46 -7q-78 0 -110 160q-3 -12 -9 -30l-6 -18t-7.5 -21.5t-8 -21.5t-10 -22.5t-11.5 -20t-13.5 -19t-15 -14t-18.5 -10.5t-21 -3q-32 0 -61.5 25t-47.5 58t-29 60t-12 37q-17 -34 -60 -80.5 t-76 -62.5l-14 -7q-30 0 -30 30zM240 596q0 30 30 30q16 0 33 -14.5t17 -31.5q0 -14 -13.5 -22t-28.5 -8q-17 0 -27.5 14.5t-10.5 31.5zM420 566q0 30 30 30q16 0 33 -14.5t17 -31.5q0 -14 -13.5 -22t-28.5 -8q-17 0 -27.5 14.5t-10.5 31.5z" />
<glyph unicode="&#xfd;" horiz-adv-x="440" d="M40 330q0 16 6.5 23t23.5 7q27 0 30 -30q7 -66 23.5 -138t36.5 -72q65 0 101 33t79 117q12 30 30 30q30 0 30 -30q0 -126 -11.5 -270.5t-28.5 -221.5q-19 -90 -90 -90q-130 0 -130 174q0 48 26.5 93t63.5 45q30 0 30 -30q0 -5 -5.5 -10t-13.5 -10.5t-11 -9.5 q-30 -34 -30 -78q0 -56 14.5 -85t55.5 -29q24 0 33 46q10 46 18.5 133.5t12 148.5t3.5 74l-5 -7q-5 -7 -7.5 -10t-9.5 -11t-12.5 -12.5t-15 -12t-18 -12t-21 -10t-25.5 -8.5t-29.5 -5t-33.5 -2q-53 0 -76 60q-31 79 -43 200q-1 5 -1 10zM120 506q0 4 1 7.5t3.5 7.5t4.5 6.5 t8 9t9 10.5q92 104 169 135q15 6 25 6q30 0 30 -30q0 -8 -9.5 -17t-20.5 -13q-34 -14 -79 -52t-71 -70q-26 -30 -40 -30q-30 0 -30 30z" />
<glyph unicode="&#xfe;" horiz-adv-x="530" d="M40 438v220q0 30 30 30t30 -30v-107q28 18 74 26q60 9 126 9q80 0 135 -50t55 -126q0 -38 -31 -66t-71.5 -41.5t-91 -21.5t-76 -9.5t-40.5 -1.5q-20 0 -47 8q47 -201 47 -248q0 -30 -30 -30t-30 30q0 12 -40 195t-40 213zM100 438q0 -23 11 -60q14 -48 69 -48 q15 0 49 3.5t82.5 11t83.5 25t35 40.5q0 49 -36 82.5t-94 33.5q-60 0 -120 -9q-33 -5 -52.5 -21.5t-23.5 -30t-4 -27.5z" />
<glyph unicode="&#xff;" horiz-adv-x="440" d="M40 330q0 16 6.5 23t23.5 7q27 0 30 -30q7 -66 23.5 -138t36.5 -72q65 0 101 33t79 117q12 30 30 30q30 0 30 -30q0 -126 -11.5 -270.5t-28.5 -221.5q-19 -90 -90 -90q-130 0 -130 174q0 48 26.5 93t63.5 45q30 0 30 -30q0 -5 -5.5 -10t-13.5 -10.5t-11 -9.5 q-30 -34 -30 -78q0 -56 14.5 -85t55.5 -29q24 0 33 46q10 46 18.5 133.5t12 148.5t3.5 74l-5 -7q-5 -7 -7.5 -10t-9.5 -11t-12.5 -12.5t-15 -12t-18 -12t-21 -10t-25.5 -8.5t-29.5 -5t-33.5 -2q-53 0 -76 60q-31 79 -43 200q-1 5 -1 10zM117 596q0 30 30 30q16 0 33 -14.5 t17 -31.5q0 -14 -13.5 -22t-28.5 -8q-17 0 -27.5 14.5t-10.5 31.5zM297 566q0 30 30 30q16 0 33 -14.5t17 -31.5q0 -14 -13.5 -22t-28.5 -8q-17 0 -27.5 14.5t-10.5 31.5z" />
<glyph unicode="&#x152;" horiz-adv-x="848" d="M40 311q0 89 32.5 148.5t106.5 59.5q19 0 35 -4q38 24 59.5 36.5t58.5 23.5t76 11q87 0 142 -39q31 39 87 39q9 0 19.5 -2.5t18 -5t18.5 -8t16 -8.5t16.5 -10.5t14.5 -9.5q16 -11 16 -31q0 -8 -8.5 -17.5t-22.5 -9.5q-9 0 -41.5 22t-46.5 22q-12 0 -27 -6t-15 -13 q0 -4 1 -5q13 -20 15 -26q3 -3 15.5 -13t19.5 -17q2 -2 15 -12t21.5 -18.5t19 -21.5t16.5 -29t6 -33q0 -21 -25.5 -49.5t-55.5 -52t-55.5 -51.5t-25.5 -48q0 -31 49.5 -52t106.5 -21q15 0 29 2t25 5t20 6.5t16 7.5t11 7t9 6l4 4l16 11v-64q-17 -13 -55 -29t-75 -16 q-62 0 -127 26t-85 75l-37 -34q-78 -67 -187 -67q-108 0 -175 90t-67 221zM100 311q0 -111 52.5 -181t129.5 -70q86 0 146 49q69 57 108 110t39 123q0 58 -13 94q-16 18 -25 43q-40 48 -129 48q-40 0 -70.5 -12t-69.5 -37q25 -30 25 -77q0 -36 -15 -51q-9 -10 -22 -10 q-12 0 -21.5 8.5t-9.5 20.5q0 6 3.5 17t3.5 15q0 24 -15 42t-38 18q-79 0 -79 -150zM634 306q26 24 28 29q-1 20 -27 46q2 -26 2 -37q0 -18 -3 -38z" />
<glyph unicode="&#x153;" horiz-adv-x="736" d="M40 167q0 17 9 32t19.5 25t11.5 13q0 49 31 86t80 37q102 0 211 -84q74 64 145 64q89 0 123 -25.5t34 -59.5q0 -31 -18.5 -52.5t-47.5 -30t-50 -11.5t-41 -3q-26 0 -52.5 7.5t-37.5 22.5q-3 -35 -22 -72q17 -18 60.5 -37t93.5 -19q22 0 53.5 8.5t52.5 16.5t25 11l16 11 v-62q-15 -11 -63 -28t-84 -17q-53 0 -108 21t-82 49q-56 -70 -128 -70q-90 0 -160.5 48t-70.5 119zM100 169q0 -38 46.5 -73.5t124.5 -35.5q42 0 88 55q-15 35 -15 61q0 27 20 56q-93 68 -173 68q-23 0 -37 -19t-14 -46q0 -19 -20 -43zM442 237q8 -11 12 -26q5 17 30 17 q11 0 31.5 -5t31.5 -5q41 0 69 9.5t28 26.5q0 12 -30.5 19t-66.5 7q-27 0 -57.5 -14t-47.5 -29z" />
<glyph unicode="&#x178;" d="M40 430q0 30 29 30q11 0 31 -24q4 -4 27 -34t37.5 -44.5t44 -30t61.5 -15.5q28 0 61.5 21t47.5 51q13 30 31 30q30 0 30 -30q0 -53 -33 -132l-89 -225q-11 -27 -31 -27q-30 0 -30 30q0 5 7 24l86 220q-37 -22 -80 -22q-22 0 -43 5t-37 11t-33.5 19t-27.5 21t-25 25.5 t-19.5 23.5t-17.5 24t-14 19q-3 3 -8 14t-5 16zM120 596q0 30 30 30q16 0 33 -14.5t17 -31.5q0 -14 -13.5 -22t-28.5 -8q-17 0 -27.5 14.5t-10.5 31.5zM300 566q0 30 30 30q16 0 33 -14.5t17 -31.5q0 -14 -13.5 -22t-28.5 -8q-17 0 -27.5 14.5t-10.5 31.5z" />
<glyph unicode="&#x2c6;" horiz-adv-x="360" d="M40 550q0 13 30 43l16 16l16.5 16.5t15 14t16 14t15 11t17 10t16.5 6.5t19 5.5t19 1.5q24 0 43 -14.5t30 -38t16.5 -40t8.5 -33.5q2 -7 2 -12q0 -30 -29 -30q-25 0 -31 30q-5 24 -16 51t-24 27q-21 0 -42 -17t-66 -61q-30 -30 -42 -30q-30 0 -30 30z" />
<glyph unicode="&#x2dc;" horiz-adv-x="410" d="M40 618q0 14 11 25q45 45 91 45q29 0 75.5 -30t52.5 -30q40 0 40 30t30 30t30 -30q0 -40 -27.5 -65t-72.5 -25q-24 0 -69.5 30t-58.5 30q-21 0 -50 -29q-11 -11 -22 -11q-30 0 -30 30z" />
<glyph unicode="&#x2000;" horiz-adv-x="349" />
<glyph unicode="&#x2001;" horiz-adv-x="698" />
<glyph unicode="&#x2002;" horiz-adv-x="349" />
<glyph unicode="&#x2003;" horiz-adv-x="698" />
<glyph unicode="&#x2004;" horiz-adv-x="232" />
<glyph unicode="&#x2005;" horiz-adv-x="174" />
<glyph unicode="&#x2006;" horiz-adv-x="116" />
<glyph unicode="&#x2007;" horiz-adv-x="116" />
<glyph unicode="&#x2008;" horiz-adv-x="87" />
<glyph unicode="&#x2009;" horiz-adv-x="139" />
<glyph unicode="&#x200a;" horiz-adv-x="38" />
<glyph unicode="&#x2010;" d="M110 169q0 27 30 31q150 20 200 20q30 0 30 -30q0 -13 -8 -21.5t-22 -8.5q-48 0 -190 -19q-2 0 -5 -0.5t-5 -0.5q-30 0 -30 29z" />
<glyph unicode="&#x2011;" d="M110 169q0 27 30 31q150 20 200 20q30 0 30 -30q0 -13 -8 -21.5t-22 -8.5q-48 0 -190 -19q-2 0 -5 -0.5t-5 -0.5q-30 0 -30 29z" />
<glyph unicode="&#x2012;" d="M110 169q0 27 30 31q150 20 200 20q30 0 30 -30q0 -13 -8 -21.5t-22 -8.5q-48 0 -190 -19q-2 0 -5 -0.5t-5 -0.5q-30 0 -30 29z" />
<glyph unicode="&#x2013;" horiz-adv-x="720" d="M110 169q0 27 58 31q288 20 384 20q58 0 58 -30q0 -13 -15.5 -21.5t-42.5 -8.5q-92 0 -365 -19q-4 0 -9.5 -0.5t-9.5 -0.5q-58 0 -58 29z" />
<glyph unicode="&#x2014;" horiz-adv-x="1220" d="M110 169q0 27 115 31q577 20 770 20q115 0 115 -30q0 -13 -31 -21.5t-84 -8.5q-185 0 -731 -19q-8 0 -19.5 -0.5t-19.5 -0.5q-115 0 -115 29z" />
<glyph unicode="&#x2018;" horiz-adv-x="240" d="M40 458q0 4 3 16q31 130 85 184q30 30 42 30t21 -8t9 -22q0 -12 -30 -42l-6.5 -6.5l-7 -7t-7 -8t-7.5 -11.5t-7 -14t-8.5 -19t-8.5 -23.5t-9.5 -30.5t-9.5 -38q-7 -30 -29 -30q-30 0 -30 30z" />
<glyph unicode="&#x2019;" horiz-adv-x="200" d="M40 454q0 7 4 15q56 105 56 189q0 30 30 30t30 -30q0 -93 -56 -204q-15 -30 -34 -30q-30 0 -30 30z" />
<glyph unicode="&#x201a;" horiz-adv-x="200" d="M40 -204q0 7 4 15q56 105 56 189q0 30 30 30t30 -30q0 -93 -56 -204q-15 -30 -34 -30q-30 0 -30 30z" />
<glyph unicode="&#x201c;" horiz-adv-x="330" d="M40 658q0 30 30 30q24 0 30 -30q1 -4 4 -25t6.5 -43.5t8 -46t10 -38.5t11.5 -15q7 0 21 31.5t35 63t44 31.5q30 0 30 -30t18 -204q2 -8 2 -12q0 -30 -30 -30q-25 0 -30 30q-13 81 -13 125l-4 -8q-4 -8 -5.5 -10.5t-6.5 -10t-8.5 -11l-9.5 -9.5t-12 -8.5t-14 -5t-17 -2.5 q-16 0 -28.5 5.5t-21.5 18t-15 25.5t-11 35.5t-8 39t-7.5 46.5t-7.5 48z" />
<glyph unicode="&#x201d;" horiz-adv-x="310" d="M40 460q0 7 3 25t11 66.5t16 106.5q2 16 8.5 23t21.5 7q30 0 30 -30q0 -11 -4.5 -40.5t-10.5 -64t-7 -40.5q109 103 132 103q30 0 30 -30q0 -9 -2 -16q-15 -48 -29.5 -88t-20 -57t-8.5 -35q-6 -30 -30 -30q-30 0 -30 30q0 4 2 12q8 42 28 95q-67 -67 -110 -67 q-30 0 -30 30z" />
<glyph unicode="&#x2022;" d="M160 180q0 39 24 59.5t66 20.5q70 0 70 -60q0 -25 -31 -52.5t-69 -27.5q-22 0 -41 19t-19 41z" />
<glyph unicode="&#x2026;" horiz-adv-x="440" d="M80 46q0 30 30 30q16 0 33 -14.5t17 -31.5q0 -14 -13.5 -22t-28.5 -8q-17 0 -27.5 14.5t-10.5 31.5zM200 46q0 30 30 30q16 0 33 -14.5t17 -31.5q0 -14 -13.5 -22t-28.5 -8q-17 0 -27.5 14.5t-10.5 31.5zM320 46q0 30 30 30q16 0 33 -14.5t17 -31.5q0 -14 -13.5 -22 t-28.5 -8q-17 0 -27.5 14.5t-10.5 31.5z" />
<glyph unicode="&#x202f;" horiz-adv-x="139" />
<glyph unicode="&#x205f;" horiz-adv-x="174" />
<glyph unicode="&#x20ac;" horiz-adv-x="880" d="M30 337q0 23 27 30l107 39q2 87 45.5 155t110.5 102.5t144 34.5q15 0 29.5 -7.5t25 -19t17 -21.5t11.5 -20q7 -14 7 -22q0 -12 -9 -21t-21 -9q-10 0 -19 10.5t-11 15.5q-15 27 -30 34q-94 0 -163.5 -60.5t-75.5 -149.5q52 17 121.5 32t164 31.5t118.5 21.5q4 1 11 1 q30 0 30 -28q0 -20 -17 -28q-3 -2 -11 -4l-111 -19.5t-184 -36t-122 -34.5q5 -41 14 -72q67 21 216 45.5t182 31.5q4 1 11 1q30 0 30 -29v-0.5v-1.5q0 -10 -9 -18t-19 -11q-56 -12 -189 -33t-194 -39q35 -53 80.5 -88.5t97 -51.5t96 -22t99.5 -6q78 0 169 22q4 1 11 1 q30 0 30 -29q0 -23 -28 -31q-101 -23 -182 -23q-149 0 -254.5 47.5t-179.5 162.5q-12 -4 -32 -10.5t-33 -10.5q-28 -7 -30 -7q-30 0 -30 29q0 20 26 30q28 10 74 25q-10 28 -14 67q-10 -3 -38.5 -13.5t-38.5 -13.5q-23 -8 -30 -8q-30 0 -30 29z" />
</font>
</defs>
</svg>
