<?xml version="1.0" standalone="no"?>
<!DOCTYPE svg PUBLIC "-//W3C//DTD SVG 1.1//EN" "http://www.w3.org/Graphics/SVG/1.1/DTD/svg11.dtd" >
<svg xmlns="http://www.w3.org/2000/svg">
<metadata></metadata>
<defs>
<font id="proclamate_incisedheavy" horiz-adv-x="550" >
<font-face units-per-em="1000" ascent="800" descent="-200" />
<missing-glyph horiz-adv-x="302" />
<glyph horiz-adv-x="1000" />
<glyph horiz-adv-x="1000" />
<glyph unicode="&#xd;" horiz-adv-x="1000" />
<glyph unicode=" "  horiz-adv-x="302" />
<glyph unicode="&#x09;" horiz-adv-x="302" />
<glyph unicode="&#xa0;" horiz-adv-x="302" />
<glyph unicode="!" horiz-adv-x="368" d="M78 71q0 -26 15 -44.5t41 -18.5q18 0 38 5t36 15.5t26.5 26t10.5 35.5q0 15 -6.5 25t-17 16t-23.5 8.5t-26 2.5q-17 0 -34 -3.5t-30.5 -12t-21.5 -22t-8 -33.5zM123 73v4q9 11 20.5 20t26.5 9q8 0 19 -5.5t11 -13.5q0 -4 -8 -10.5t-18.5 -13t-19.5 -11t-11 -4.5 q-8 0 -14 8.5t-6 16.5zM172 90q-3 0 -8.5 -1.5t-11 -4t-9.5 -5.5t-4 -6v-6q3 0 9 2t11 4t9 4.5t4 3.5v9zM26 287q16 -7 34.5 -23t36 -32.5t32 -29t22.5 -12.5q14 0 21 12.5t16 19.5q7 6 22.5 17t31.5 22t28 21t12 15q0 4 -8 9t-17.5 11.5t-18.5 15.5t-10 23q0 3 -0.5 12 t-1 19.5t-1 19.5t-0.5 12q1 14 1.5 23.5t1 18t0.5 16.5v21v133q5 34 15.5 55.5t26.5 34t37 17t47 6.5q3 3 4.5 9.5t1.5 13.5q-69 0 -127 -15t-106 -56q-3 -3 -9 -9.5t-12 -13.5t-11 -12.5t-6 -5.5q-6 0 -14 12t-16 27t-17.5 27t-18.5 12q-8 0 -10.5 -2.5t-2.5 -10.5v-8 q17 -23 29 -42t20 -38.5t12.5 -41t7.5 -48.5l-4 -202q0 -11 -7.5 -16t-17 -9t-17 -8.5t-7.5 -13.5v-6zM107 291v12q1 49 3 76.5t3 45t2 30.5t1 33q0 46 -1 72t-4 43q0 1 -2 4t-2 4q0 4 10.5 7.5t13.5 8.5q13 18 26.5 34t34.5 27l4 -6v-2q0 -21 -1 -52t-1.5 -60t-1 -49.5 l-0.5 -20.5v-118q1 -17 4.5 -39.5t3.5 -41.5v-3q0 -1 -6.5 -7t-14.5 -13t-16 -12.5t-11 -5.5q-6 0 -12.5 4t-12.5 9.5t-11.5 11zM123 303l28 -24q11 0 19.5 9t13.5 15v4q0 10 -1 26t-2 26.5t-1 12.5v281q-9 0 -16 -6.5t-13.5 -14.5t-12 -16.5t-11.5 -12.5l-4 -190v-110z" />
<glyph unicode="&#x22;" horiz-adv-x="376" d="M212 690q0 -15 3 -24.5t8.5 -17t13 -15t16.5 -18.5q3 -5 8 -14.5t11 -19t13.5 -16.5t17.5 -7q5 0 15.5 14.5t21 34t18.5 40.5t8 33q0 34 -16.5 57.5t-54.5 23.5q-15 0 -30 -5t-26.5 -14.5t-19 -22.5t-7.5 -29zM10 687q0 -14 10.5 -33.5t25 -37t28 -30t19.5 -12.5h6 q13 0 20.5 7t12 16.5t8 21t8.5 20.5q8 15 14 22.5t6 23.5q0 32 -18 54t-53 22q-15 0 -30 -5.5t-28 -15.5t-21 -23.5t-8 -29.5zM54 683v4q0 6 4.5 11t11 9t13.5 6.5t12 2.5q9 0 19 -6.5t10 -15.5q0 -4 -3.5 -13.5t-7.5 -19t-8.5 -17.5t-5.5 -9l-8 8q-2 2 -7.5 8l-11 12 l-11 12t-7.5 8zM252 687q0 6 5 11.5t12 9t14.5 6t12.5 2.5q11 0 20.5 -7t9.5 -20q0 -5 -3 -12.5t-7.5 -15t-10 -13t-10.5 -5.5l-42 40q0 1 -0.5 2t-0.5 2zM75 687l20 -20q3 5 5.5 11.5t2.5 13.5q0 8 -10 8h-2q-2 -2 -8 -6.5t-8 -6.5zM273 687l22 -20q5 0 8 5t4.5 10.5t2 8.5 t0.5 -1l-1 1q-2 5 -7.5 7t-10.5 2h-2q-2 -2 -8 -6.5t-8 -6.5z" />
<glyph unicode="&#x26;" horiz-adv-x="882" d="M10 174q15 -27 28 -49t33 -48q5 -7 18.5 -20.5t29.5 -27t30.5 -24t22.5 -10.5q16 0 28.5 6t23.5 14t21.5 17.5t23.5 16.5q13 0 27.5 9t28 19.5t26 19.5t22.5 9q8 0 16 -4.5t16.5 -11t17.5 -13.5t20 -12q39 -23 82.5 -32t88.5 -9h43q2 0 10.5 1.5t19 3.5t20.5 4l15 3 q12 3 37 13t50 23t44 27.5t19 25.5q0 8 -1.5 12.5t-10.5 4.5h-8q-32 -17 -73 -25t-76 -8q-25 0 -61.5 12.5t-71 30t-59 35t-24.5 26.5v0q0 1 1 2l76 76q7 7 13.5 8t14.5 1q21 0 41.5 -4.5t42.5 -4.5q34 0 57 9t41.5 23t35.5 32.5t38 37.5v6q0 11 -9.5 12.5t-17.5 1.5 q-17 0 -26 -8t-20 -21h-45q-8 0 -11 7t-4.5 16t-3 17t-5.5 9h-16q-19 0 -30 -3.5t-19 -10.5t-15.5 -16t-20.5 -19q-16 -13 -42 -37t-50.5 -47t-43.5 -39.5t-22 -13.5l-8 4q-10 4 -20.5 14.5t-20.5 23t-19.5 25.5t-16.5 22q-11 15 -24 33t-13 38l1 2q0 5 15.5 12t32.5 13 t30 10.5t7 4.5q1 1 4 2.5t4 1.5q37 23 70.5 64t50.5 82v38q0 35 -8.5 67.5t-35.5 56.5h-45q-63 0 -117.5 -19.5t-104.5 -57.5q-22 -11 -38.5 -37t-27 -57.5t-15.5 -64t-5 -56.5q0 -14 2.5 -27.5t2.5 -27.5v-4q0 -4 -4 -5q-26 -14 -50 -28.5t-42.5 -35t-30 -48.5t-11.5 -68 v-12v-39zM46 222q0 31 15 53t34 45l10 8h2q2 -1 4 -2.5l2 -1.5q-5 -32 -5 -62t5 -60q0 -7 9 -23t20 -33t22 -31t16 -18q7 -7 18 -10t18 -14l1 -2q0 -3 -4 -7t-10 -8.5t-12 -7.5t-10 -3h-1q-6 1 -10.5 6.5t-9.5 9.5q-19 15 -39 32t-36.5 37t-27.5 43t-11 49zM179 477 q0 9 7.5 37t19.5 57.5t25.5 53t25.5 23.5q4 0 4 -5q-3 -18 -3.5 -31t-0.5 -27v-24q0 -37 5 -76.5t16.5 -78.5t30 -75t45.5 -64q25 -27 63.5 -60.5t83 -63.5t91.5 -50t88 -20h10v-4q0 -2 -12 -4t-26 -4t-26.5 -3.5l-12.5 -1.5q-30 0 -56.5 7.5t-51 19.5t-47.5 27.5t-47 31.5 q-35 23 -62.5 42.5t-50.5 42t-42 50.5t-36 67q-15 34 -28 63t-13 70zM58 221q0 -15 15 -42t36 -53t44 -45.5t40 -19.5q0 12 -13 20t-20 16t-16.5 21t-18.5 27t-16 26.5t-8 18.5q-6 26 -7 51.5t7 51.5q-8 0 -16 -8.5t-14 -20.5t-9.5 -24t-3.5 -19zM212 393q8 -15 15.5 -34.5 t17.5 -34.5q19 -33 41.5 -59t48 -48.5t54.5 -42.5t62 -40q16 -10 33 -20.5t35 -19.5t37 -15t39 -6h2q-1 1 -15.5 9.5t-32 17.5t-32.5 16.5l-17 8.5q-4 2 -10.5 6l-13 8t-11.5 7t-6 4q-64 50 -105 95.5t-65.5 96.5t-35 112t-12.5 141h-2q-6 0 -14 -17t-15.5 -38t-12.5 -40 t-5 -23zM330 134q-1 -2 -10.5 -7.5t-20 -12.5t-19.5 -12l-9 -5q-15 0 -36 17.5t-40.5 40.5t-33 46t-13.5 34v85q0 1 1 6t3 11t4 10.5t4 4.5h4q13 -23 25 -45t24 -43.5t26.5 -42t33.5 -39.5q13 -13 28.5 -23.5t28.5 -24.5zM621 336v2q2 1 11.5 9.5t22 20.5t15.5 16h4 q7 -17 14.5 -25t25.5 -11v-4q-13 -6 -21 -11.5t-23 -5.5q-14 0 -24 1.5t-25 7.5zM661 346q0 -5 4.5 -6t8.5 -1v14q-4 0 -8.5 -1t-4.5 -6zM289 561v2q1 18 5.5 44.5t12.5 51t20 41.5t29 17q22 0 35.5 -12.5t20.5 -31t9 -39t2 -36.5q0 -20 -7.5 -45.5t-21.5 -48.5t-33.5 -39 t-43.5 -16q-7 0 -12 12t-8.5 29.5t-5.5 37t-2 33.5zM435 722q0 7 10 7h5q12 0 23 -10.5t18.5 -25.5t12 -30.5t4.5 -25.5q0 -4 -6.5 -17t-14.5 -26.5t-15.5 -24.5t-8.5 -11h-4q0 31 -1 60t-3.5 51t-7.5 35.5t-12 15.5v2zM467 693q0 -10 0.5 -22.5t1 -25.5t1.5 -24t1 -18h2 q2 0 5.5 5.5t6.5 12.5t5 14t2 9q0 3 -2 11t-5.5 16.5t-8 15t-9.5 6.5z" />
<glyph unicode="'" horiz-adv-x="174" d="M10 690q0 -19 5 -30t12.5 -19t17 -15.5t18.5 -19.5q5 -11 12 -19.5t18 -8.5q7 0 19 13.5t23.5 31t20 35.5t8.5 27q0 32 -18 54t-53 22q-32 0 -57.5 -19.5t-25.5 -51.5zM50 687q0 6 4.5 11t11 9t14 6.5t12.5 2.5q8 0 18 -6.5t10 -16.5q0 -4 -3 -11t-8 -14t-11 -12.5 t-11 -5.5q-1 0 -2.5 0.5l-1.5 0.5l-32 32q-1 1 -1 4zM71 687l14 -16q5 0 9.5 9.5t4.5 10.5v4q0 1 -3 2.5l-5 2.5h-4q-2 -2 -8 -6.5t-8 -6.5z" />
<glyph unicode="," horiz-adv-x="170" d="M42 -60q0 -9 7 -11t13 -2q19 0 37 16.5t31.5 39.5t21.5 48t8 43v24q-9 26 -37 37h-26q-16 0 -31.5 -4t-28 -12t-20 -21t-7.5 -32q0 -29 18 -49t47 -20v-4q0 -9 -5 -15t-11.5 -11.5t-11.5 -11.5t-5 -15zM54 68q0 6 4.5 11.5t10.5 10t12.5 7t11.5 2.5q10 0 20.5 -9.5 t10.5 -19.5q0 -14 -8.5 -24t-24.5 -10q-14 0 -25.5 8t-11.5 24zM75 66q0 -17 19 -17q8 0 9 5.5t1 11.5q0 7 -1.5 9.5t-9.5 2.5q-5 0 -11.5 -2.5t-6.5 -9.5z" />
<glyph unicode="-" d="M10 376q0 -8 6 -15.5t10 -13.5q13 -19 27 -38.5t30.5 -35t36.5 -25.5t46 -10q37 0 69 17t62 38t61.5 38t68.5 17q32 0 52 -14.5t41 -38.5l0.5 -0.5t1.5 -0.5q7 0 12.5 6t5.5 13t-4 16.5t-10 18t-12 16l-10 12.5q-33 36 -70.5 58.5t-87.5 22.5q-37 0 -69 -16.5t-62 -36.5 t-60.5 -36.5t-64.5 -16.5q-13 0 -23.5 5t-19 11.5t-14.5 11.5t-10 5q-5 0 -9 -1.5t-4 -6.5zM115 307l4 4q28 7 55 19.5t52.5 27.5l51 30t52.5 28q7 3 10 3.5t10 0.5q4 0 17 -4t26 -9.5t23.5 -11t10.5 -9.5v-2q-41 -1 -72.5 -12.5t-60 -28t-57.5 -35.5t-65 -34h-6 q-14 0 -28.5 11.5t-22.5 21.5zM151 301q0 -5 4 -6t8 -1h3q15 0 32 7.5t33.5 18t31.5 21.5t26 18q20 13 39.5 21.5t41.5 15.5q-4 5 -9 6.5t-11 1.5h-8q-51 -22 -96.5 -50t-94.5 -53z" />
<glyph unicode="." horiz-adv-x="166" d="M10 65q0 -11 2.5 -22.5t8 -21t14 -15.5t20.5 -6q17 0 35 6.5t32.5 18t24 27t9.5 32.5q0 36 -37 50h-26q-35 0 -59 -15t-24 -54zM50 67q0 12 14 21.5t25 9.5q7 0 15 -4.5t8 -12.5q0 -4 -5.5 -10t-13.5 -12t-16 -10.5t-12 -4.5q-8 0 -11.5 10.5t-3.5 12.5zM83 77 q-8 0 -8 -6v-2l12 8h-4z" />
<glyph unicode="0" horiz-adv-x="644" d="M10 360q0 -43 11 -87t31.5 -85t49.5 -76.5t64.5 -62t77.5 -42t88 -15.5q36 0 71.5 16.5t64.5 36.5q39 26 70 63t52.5 79.5t32.5 89.5t11 94q0 37 -5 77t-19 75q-18 45 -49 84t-71.5 67t-87 44t-95.5 16q-32 0 -59.5 -10.5t-55.5 -26.5q-45 -26 -79 -62.5t-57 -81 t-34.5 -93.5t-11.5 -100zM245 101v410q0 34 -0.5 70.5t5 67t21 50t47.5 19.5q22 0 35.5 -8t21 -20.5t11.5 -29t9 -32.5v-531q0 -3 -1 -10t-2.5 -14.5t-3 -14t-1.5 -9.5l-33 -33q-3 -3 -14 -3.5t-16 -0.5q-27 0 -40 7.5t-19 20t-9 28.5t-11 33zM46 365q0 41 11 80t30.5 74.5 t46.5 67t58 57.5q4 3 10 8t7 4l4 -4v-105q0 -18 -0.5 -54.5t-1 -82.5t-1 -97.5t-1 -98t-0.5 -83.5v-54h-5q-31 25 -59.5 57.5t-50.5 69.5t-35 78t-13 83zM427 424v54q0 19 1 49t1.5 57.5t1 47.5l0.5 20l4 4q1 1 5.5 -2.5t7.5 -5.5q65 -53 107.5 -121t42.5 -154 q0 -44 -12.5 -86t-34 -80.5t-51.5 -71.5t-65 -58l-4 4q0 2 -0.5 21.5t-1 54t-1 72t-1 74.5t-0.5 62v59zM58 366q0 -36 13.5 -74t33.5 -73t43.5 -64t43.5 -46h4q0 17 0.5 52.5t1 79.5t1 93t1 93.5t0.5 79.5v52q0 4 0.5 13t0.5 19v20v14q-4 0 -8 -3.5t-9 -5.5 q-25 -23 -48 -51.5t-40 -61t-27.5 -67.5t-10.5 -70zM439 423q0 -79 1.5 -156t3.5 -158h8q23 20 46.5 49.5t43 64.5t32 73.5t12.5 76.5q0 36 -10 70t-27 64.5t-40 57.5t-49 51q-6 5 -6.5 7t-5.5 2q-2 0 -3 -10.5t-2 -26t-1.5 -35t-1 -37t-1 -31.5t-0.5 -19v-43z" />
<glyph unicode="1" horiz-adv-x="469" d="M22 10v-3q0 -6 4 -7h166h33h54t61.5 1t58 2t43.5 3.5t17 5.5q0 2 -0.5 6t-3.5 4h-109q-6 0 -9.5 5.5t-5 13t-2 15t-0.5 10.5q0 105 2.5 208.5t2.5 208.5v259q0 5 -2.5 5.5t-4.5 0.5h-10q-3 0 -10.5 -0.5t-15.5 -1t-15.5 -1.5t-10.5 -1q-20 -46 -45 -72.5t-56 -40.5 t-68.5 -19.5t-81.5 -8.5q-4 -2 -4.5 -5.5t-0.5 -5.5q0 -8 3 -9t14 -1h89q4 0 11.5 -6.5t12.5 -13.5q3 -94 4 -179t1 -177q0 -24 1 -54.5t0 -58.5t-4.5 -48.5t-13.5 -24.5q-5 0 -16 0.5t-24 0.5h-23t-15.5 -0.5t-12.5 -1.5t-14 -3v-6zM176 36v546q0 1 3 4l5 5q38 23 65.5 49 t47.5 68h5v-24t-0.5 -36.5t-0.5 -37.5v-24q-1 -41 -1.5 -97t-1.5 -116.5t-1.5 -120t-1.5 -106.5t-1.5 -76.5l-0.5 -29.5l-4 -4h-113zM188 463v-42v-43t0.5 -66t1 -77.5t1 -77t1 -65.5t0.5 -43h93v602q-3 -3 -10 -10.5t-15.5 -16t-16.5 -15.5t-11 -10t-10 -7t-13.5 -7 t-11.5 -6t-5 -5q0 -4 -1 -15t-1.5 -23t-1 -23.5t-0.5 -15.5v-34z" />
<glyph unicode="2" horiz-adv-x="579" d="M261 49q21 -9 34.5 -17t27 -14t29 -10t39.5 -4q15 0 31 4t29 12q41 24 64.5 57t35.5 72t15.5 81.5t3.5 86.5q-7 0 -11 -12t-8 -27.5t-10 -31.5t-17 -23q-20 -15 -48 -18t-53 -3h-16q-29 0 -59 2.5t-59 2.5q-48 0 -95.5 -3t-94.5 -10l-4 4q17 26 47.5 38.5t57.5 22.5 q41 15 84.5 26t84.5 24t77 30t63.5 43.5t43.5 65t16 94.5q0 58 -31.5 97t-78.5 63t-101 34t-98 10q-48 0 -93 -12.5t-80 -38t-56 -64.5t-21 -93q0 -23 10 -42t26 -33t37 -22t42 -8q25 0 43.5 10.5t31 27.5t19 38.5t6.5 43.5t-9.5 33.5t-24 17.5t-31.5 8t-31.5 5t-24 9 t-9.5 19q0 21 12.5 35.5t31 23.5t39.5 13t38 4q30 0 55.5 -10.5t44 -29t28.5 -44t10 -56.5q0 -42 -14.5 -79t-38.5 -71t-56.5 -66t-68.5 -65q-27 -25 -52.5 -49.5t-45.5 -51.5t-32 -59t-12 -72q0 -9 2.5 -19.5t7.5 -19.5t13.5 -15t19.5 -6q15 0 21 13t6 26t-6 24t-12.5 21.5 t-12.5 21t-6 24.5q0 15 12 25.5t26 10.5t30 -7.5t25 -16.5zM294 81q-11 10 -24.5 23t-25 25t-19.5 21t-8 12v8h296q0 -18 -13.5 -41t-33 -42.5t-42 -33t-39.5 -13.5q-13 0 -25 4.5t-23 11.5t-21.5 13.5t-21.5 11.5zM306 93q9 -4 18 -10t18.5 -12t19.5 -10.5t21 -4.5 q12 0 31 11t36 27t29.5 33.5t12.5 30.5h-247v-4zM387 581v43q-1 18 -9.5 35.5t-8.5 34.5q25 0 53.5 -17.5t53 -43t41 -54.5t16.5 -53q0 -47 -25.5 -80t-62 -56t-77 -37.5t-70.5 -24.5q-7 -2 -12.5 -3.5t-12.5 -1.5v5q55 48 84.5 113.5t29.5 139.5zM399 581q0 -45 -7.5 -81.5 t-25.5 -78.5q-2 -4 -9 -14.5t-15 -22t-14.5 -21t-6.5 -11.5h5q1 1 5.5 2.5t6.5 1.5q28 11 60 26t58 36t43.5 48.5t17.5 63.5q0 23 -14.5 46.5t-34 43t-39.5 32t-30 12.5h-4q3 -11 3.5 -24t0.5 -27v-32zM46 549v2q5 11 6.5 25t10.5 19l1 1q10 0 16.5 -5.5t14.5 -7.5 q12 -3 27.5 -4t29 -4.5t23 -12t9.5 -26.5q0 -9 -6 -20t-15.5 -20.5t-20.5 -16t-21 -6.5q-11 0 -24 7.5t-24.5 18.5t-19 24.5t-7.5 25.5zM63 553q0 -10 5.5 -20.5t14 -19t19 -14t20.5 -5.5q7 0 15 4t15 11t11.5 14.5t4.5 15.5q0 10 -13.5 17t-30.5 11.5t-33 6t-20 1.5h-4 q-1 -2 -2.5 -10t-1.5 -10v-2z" />
<glyph unicode="3" horiz-adv-x="583" d="M10 171q0 -45 23.5 -77.5t59 -53.5t78 -30.5t80.5 -9.5q49 0 105.5 11t104.5 36t80 66t32 102q0 39 -16 69.5t-42.5 53t-60 38.5t-67.5 25v8q35 10 70.5 28t54.5 53q8 13 12.5 26.5t12.5 26.5v24q0 51 -22 84.5t-57.5 53.5t-79 28t-86.5 8h-47q-31 0 -67.5 -8 t-68.5 -25.5t-53.5 -45t-21.5 -67.5q0 -48 23 -76.5t74 -28.5q44 0 73 24t29 69q0 31 -14 44t-31 19t-31 11t-14 21q0 15 10 24t23.5 14.5t28.5 7t26 1.5q14 0 29 -3t28.5 -10t23.5 -18t14 -26q5 -17 9 -44t4 -47q0 -34 -2.5 -64.5t-13 -53.5t-32.5 -36.5t-62 -13.5h-93 q-2 -1 -5 -4l-4 -4v-4q1 -2 4 -4.5t5 -3.5h109q38 0 60 -18t33 -46t14 -61.5t3 -63.5q0 -37 -4.5 -70t-19 -57.5t-41.5 -38.5t-71 -14q-10 0 -26.5 1.5t-33 7t-28.5 14.5t-12 24q0 11 14 17.5t31 16.5t31 27.5t14 50.5q0 30 -12.5 55.5t-48.5 36.5h-65q-1 0 -6 -2.5 t-11.5 -5.5t-13 -6.5t-10.5 -5.5q-19 -12 -25.5 -36t-6.5 -44zM387 207v64q0 3 -2 15t-4 25.5t-4 25.5t-2 15q-1 2 -1 5v4q4 0 5 -1q22 -9 49.5 -21.5t51.5 -30.5t40.5 -41t16.5 -52q0 -25 -16 -51.5t-39.5 -49t-51.5 -37t-52 -14.5q0 17 4 33t5 34v77zM399 284v-200 q15 0 36 14.5t40 34.5t32 42.5t13 37.5q0 19 -13 40t-32.5 39t-41 29.5t-39.5 11.5q0 -11 1.5 -26t3.5 -23zM46 170q0 12 6.5 23.5t17 21t22.5 15t23 5.5q9 0 19 -5t18.5 -12.5t14 -17t5.5 -18.5q0 -16 -13 -29.5t-29 -23t-30 -15t-15 -5.5q-5 0 -11.5 8.5t-12.5 19.5 t-10.5 21t-4.5 12zM62 172l1 -2q0 -2 2.5 -7.5t6.5 -12t8 -11.5t9 -5q7 0 18.5 4t22.5 10.5t18.5 15t7.5 16.5q0 14 -15 26.5t-28 12.5q-6 0 -14.5 -4.5t-17 -11.5t-14 -15.5t-5.5 -15.5zM366 463q0 29 2.5 57t2.5 57q0 36 -4.5 65.5t-4.5 56.5q16 0 40 -12.5t45.5 -31.5 t37 -40t15.5 -38q0 -21 -12 -43.5t-31 -41t-41.5 -31t-43.5 -12.5q-6 0 -6 10v4zM383 656v-188q13 0 30.5 12t33.5 28.5t26.5 35t10.5 31.5q0 12 -12.5 29.5t-30 33.5t-35.5 27.5t-28 11.5q0 -12 5 -21zM71 588q0 1 3 9.5t7.5 18t10.5 17t11 7.5h4q2 -1 8 -8t8 -8 q6 -3 17.5 -5t23.5 -5.5t20.5 -10t8.5 -17.5q0 -9 -5.5 -19.5t-14 -19.5t-18.5 -15t-19 -6q-12 0 -23.5 5t-20.5 13.5t-15 20t-6 23.5zM87 583q0 -6 5 -13.5t12 -13.5t14.5 -10t12.5 -4q13 0 27 13.5t14 25.5q0 9 -9.5 14.5t-21.5 9.5t-23 5.5t-15 1.5h-4q-2 -3 -6.5 -12.5 t-5.5 -12.5v-4z" />
<glyph unicode="4" horiz-adv-x="623" d="M314 120q0 -3 -0.5 -18.5t-2.5 -33t-6 -31t-12 -13.5h-85q-11 0 -16.5 -4t-5.5 -16h423v18h-101q-2 0 -7 8t-5 10v122l12 14h105v42l-8 9h-85q-7 0 -14 2.5t-10 9.5q0 14 -1 49t-1.5 74.5t-1 74.5t-0.5 49q0 1 -0.5 8t-0.5 10q0 11 0.5 17t4.5 17v207h-114 q-3 0 -15.5 -17t-26.5 -38.5t-26.5 -41t-16.5 -25.5q-6 -9 -19.5 -25t-28 -34t-26.5 -35t-15 -27l-186 -279q-8 -12 -10.5 -18t-2.5 -17q0 -8 3 -13t11 -5h7q9 0 42 0.5t71.5 1.5t71.5 1.5t42 0.5h16q14 -3 22.5 -5t12.5 -5.5t5 -10t1 -16.5v-17zM346 40v40q0 100 -2 197.5 t-2 196.5v44t2.5 47t7.5 43.5t14 34.5q2 4 8.5 15t14.5 23t15 21.5t11 9.5h40q5 0 6.5 -6.5t1.5 -14.5v-10q0 -45 -2 -88.5t-2 -88.5v-51q0 -6 0.5 -25.5t0.5 -45.5q0 -25 1 -54.5t1 -55.5q0 -25 0.5 -44.5t0.5 -25.5v-4q0 -17 -1 -43.5t-1.5 -51t-1 -42l-0.5 -17.5l-4 -4 q-2 0 -17 -1t-37 -2t-35 -1h-13q-6 0 -7 4zM354 473q0 -106 2.5 -210t2.5 -210h88v648h-5q-10 0 -22 -9.5t-23.5 -23.5t-20.5 -30.5t-14 -30.5q-1 -32 -4.5 -66.5t-3.5 -67.5zM257 530q5 4 10.5 12.5t11.5 17.5t13 16t15 7q5 0 6 -3.5t1 -7.5v-3q0 -11 -1 -19t-4 -20v-299 l-4 -4h-19q-57 0 -114 -2.5t-115 -2.5q0 16 10 29z" />
<glyph unicode="5" horiz-adv-x="579" d="M10 168q0 -43 18.5 -76t49 -55.5t69 -34t78.5 -11.5q60 0 121 15t110.5 47t81 81.5t31.5 118.5q0 56 -20.5 101t-56 76t-83.5 47.5t-103 16.5q-33 0 -66 -6t-64 -18q-10 -4 -25 -15t-29 -23t-25 -21.5t-12 -9.5h-2q-3 11 -3.5 15.5t-0.5 12.5v9v35t1.5 38.5t6 31 t12.5 12.5q34 0 67.5 -6.5t68.5 -6.5q49 0 95 15.5t81.5 45t56.5 71.5t21 96q-9 0 -13.5 -9t-11.5 -20t-18.5 -21.5t-34.5 -14.5h-11q-7 0 -15.5 -0.5t-16.5 -0.5h-10q-11 0 -38.5 1.5t-62 3.5t-71.5 5.5t-67 6.5q-11 5 -18 7t-18 2h-3q-8 0 -9 -5v-37q0 -75 -4.5 -148.5 t-4.5 -148.5v-14t0.5 -15.5t1.5 -13.5t3 -8h2q4 0 11 9t14.5 21t15.5 23.5t13 15.5q29 23 58.5 38t67.5 15t59 -24t31.5 -59t13 -74.5t2.5 -69.5v-24q0 -36 -7 -72t-23.5 -65.5t-45 -47.5t-70.5 -18q-9 0 -25.5 2.5t-32.5 8.5t-28 15t-12 22q0 18 16 26.5t35 18t35 25 t16 48.5q0 45 -29 73.5t-74 28.5q-47 0 -73.5 -31.5t-26.5 -76.5zM370 65q6 21 9 42.5t8 42.5v126q0 38 -6.5 71.5t-14.5 77.5q0 2 -1.5 6.5t-2.5 6.5v4q4 0 4 4h4q30 -12 60 -30t54 -42t38.5 -54.5t14.5 -66.5q0 -33 -14 -61.5t-36 -52.5t-48.5 -43t-51.5 -31l-12 -4 q-5 0 -5 4zM399 138q-4 -11 -4.5 -24t-0.5 -25h5q17 9 38 25.5t40 38.5t31.5 48t12.5 54q0 29 -15 58.5t-36 53.5t-44 39t-39 15h-5l0.5 -1.5t0.5 -2.5q0 -2 1 -7.5t2.5 -12.5t3 -13t1.5 -7q1 -6 2 -19.5t2.5 -27.5t2.5 -26t1 -16v-75v-75zM46 168q0 11 5.5 23t14.5 21.5 t20.5 16t23.5 6.5q9 0 20 -5t20.5 -13t15.5 -18.5t6 -20.5q0 -17 -11 -27t-26.5 -17.5t-31 -13.5t-24.5 -15q-14 11 -23.5 28.5t-9.5 34.5zM62 168q0 -10 5 -22.5t17 -12.5q7 0 19.5 3.5t24 10t20 15t8.5 18.5q0 6 -5 13t-12.5 12.5t-15.5 9.5t-14 4q-8 0 -16 -5.5 t-15 -13.5t-11.5 -16.5t-4.5 -15.5zM107 596v85q0 3 3 3.5t5 0.5h12q31 -2 78 -4.5t91 -5.5t75.5 -5l31.5 -2l4 -4q-21 -23 -41 -39t-41 -26.5t-45.5 -15t-55.5 -4.5h-32q-8 1 -21.5 2.5t-26.5 3.5t-22.5 4t-10.5 2zM119 669v-65q0 -1 10 -2.5t23.5 -3.5t28 -4t23.5 -3h22 q12 0 36.5 4.5t48.5 13t42 20t18 25.5q0 1 -15 2.5t-38 3t-50.5 3t-52.5 2.5t-43.5 2t-23.5 1q-4 1 -15 1h-14z" />
<glyph unicode="6" horiz-adv-x="583" d="M9 362q0 -66 18 -131.5t55 -117.5t92.5 -84.5t129.5 -32.5q51 0 99.5 17.5t86 49t60.5 76t23 98.5q0 69 -33.5 120.5t-96.5 79.5q-15 7 -28 12t-30 5q-25 0 -44.5 -4t-36 -12.5t-32 -21.5t-31.5 -31h-4q-2 0 -3.5 17t-1.5 41q0 7 1 26t3 43.5t4.5 50t4.5 45.5q6 49 28 77 t73 28q9 0 21 -0.5t23 -3.5t18.5 -10t7.5 -20q0 -12 -9.5 -18.5t-21.5 -14.5t-21.5 -20t-9.5 -34q0 -38 26.5 -64t64.5 -26q19 0 38 5.5t33.5 16.5t23.5 27.5t9 37.5q0 37 -19.5 64.5t-49.5 46t-65.5 28t-66.5 9.5q-76 0 -138.5 -31.5t-107 -84t-69 -120t-24.5 -139.5z M233 266q0 19 4 45t14 49.5t27.5 40t43.5 16.5q8 0 19.5 -10t12.5 -18l4 -45v-259q0 -29 -18.5 -51t-48.5 -22q-19 0 -30 8.5t-16 22t-6.5 30t-1.5 32.5v25q0 4 -0.5 20.5t-1.5 36t-1.5 36t-0.5 20.5v23zM395 61q0 18 -1 63.5t-1.5 96.5t-1 96.5t-0.5 63.5v29q27 0 53 -17 t47 -42.5t33.5 -55.5t12.5 -55q0 -29 -10 -53.5t-26 -45.5t-36.5 -38.5t-41.5 -33.5q-3 -2 -10 -7t-12 -5h-2q-4 0 -4 4zM46 363q0 92 45 163.5t117 125.5q1 0 2.5 -1.5l2.5 -2.5v-2q0 -35 -6.5 -68t-6.5 -68v-443q-8 0 -16 7.5t-12 10.5q-62 58 -94 125t-32 153zM407 385 v-304h4q18 15 38.5 31.5t37 35.5t27.5 41.5t11 49.5q0 17 -11 42t-27.5 48t-36.5 39.5t-37 16.5h-6zM58 362q0 -40 8.5 -74t23.5 -64.5t36 -58.5t46 -56q5 -5 6.5 -8.5t9.5 -3.5v426q0 24 4.5 47t4.5 46q-17 0 -37.5 -22t-39.5 -52t-34 -60.5t-19 -48.5q-6 -22 -7.5 -31.5 t-1.5 -25.5v-14zM395 589q0 12 8.5 18t19 12t19.5 14t9 25l2 2q7 0 16.5 -7.5t18.5 -18.5t15 -22.5t6 -18.5q0 -9 -5.5 -18t-14 -16.5t-18.5 -12t-19 -4.5q-8 0 -18 4t-18.5 10.5t-14.5 15t-6 17.5zM415 587q0 -11 11.5 -19.5t22.5 -8.5q6 0 13 3t14 8t11.5 11t4.5 12 q0 8 -8.5 19.5t-17.5 11.5q-3 0 -11.5 -4t-17.5 -10t-15.5 -12.5t-6.5 -10.5z" />
<glyph unicode="7" horiz-adv-x="538" d="M115 146q0 -60 33 -101t96 -41q44 0 68.5 17.5t37 45.5t16 64t5 73t4.5 71.5t15 60.5q18 41 42 76.5t45.5 71t36.5 73.5t15 85q0 15 -1.5 32.5t-7.5 33.5t-17 26.5t-30 10.5q-38 0 -38 -39q0 -18 10 -29.5t22.5 -22t22.5 -22t10 -29.5q0 -11 -9 -18t-20 -7 q-21 0 -38.5 12.5t-34.5 31t-34 40t-38 40t-46 31t-57 12.5q-30 0 -53 -12t-41.5 -30.5t-33.5 -42t-28 -45.5q-4 -6 -5 -8.5t-7 -2.5v120q0 8 -8.5 12.5t-14.5 4.5q-14 0 -22 -13v-20q0 -32 4.5 -64.5t4.5 -64.5q0 -43 -4.5 -84.5t-4.5 -83.5v-14q1 -5 8 -5h4q4 30 11 57.5 t20.5 48t35.5 33t58 12.5q35 0 67.5 -5t66.5 -12q5 -5 17 -7t25 -2q27 0 48.5 1t41 4.5t37 10t37.5 17.5h8q0 -14 -7 -22t-17 -18q-28 -31 -65.5 -55.5t-77 -47.5t-78 -47.5t-68.5 -54.5t-48.5 -69t-18.5 -90zM151 146q0 36 20.5 70.5t50.5 64t64.5 52t63.5 35.5q4 -1 4 -8 q0 -18 -7.5 -36t-8.5 -37q0 -4 -1 -21t-1.5 -37t-1 -37.5t-0.5 -21.5q-1 -17 -6.5 -39.5t-15.5 -42.5t-25.5 -34t-37.5 -14q-20 0 -37.5 9.5t-31 24.5t-21.5 34t-8 38zM167 145q0 -15 6.5 -30.5t17.5 -28.5t25.5 -21.5t30.5 -8.5q18 0 32 14.5t23 35t14 41.5t6 35q0 20 1 45 t2.5 46.5t2.5 37t2 17.5v8h-4q-23 -12 -51 -32t-52 -45.5t-40 -54.5t-16 -59zM103 579l-4 4q6 5 16.5 25.5t26.5 42.5t37 39.5t47 17.5q19 0 41 -16t44 -39t43 -48t40 -43v-4l-9.5 -1.5t-14.5 -2.5h-44l-8 4q-12 6 -38 9.5t-57 6t-63 3.5t-57 2zM326 571q4 -4 11 -5t13 -1h9 q0 8 -14.5 28t-35.5 41t-43.5 37.5t-37.5 16.5q-12 0 -29.5 -10.5t-33 -25t-27 -31t-11.5 -28.5v-2q53 -2 100 -6t99 -14z" />
<glyph unicode="8" horiz-adv-x="623" d="M10 174q0 -43 31 -76.5t77 -57t98 -36t93 -12.5q57 0 111.5 13.5t97.5 43t69 75t26 109.5q0 43 -11 75.5t-32 58t-51 45.5t-68 37v8q18 11 41 21.5t42.5 23.5t33 30t13.5 41q0 51 -32 84t-78 52.5t-97.5 27.5t-90.5 8q-53 0 -102 -16t-87 -46t-61 -74t-23 -100 q0 -31 11 -59.5t29 -52.5q5 -6 20 -17.5t31.5 -23t29.5 -21t13 -11.5q0 -7 -5 -8q-24 -11 -47 -24t-41 -29.5t-29.5 -38t-11.5 -50.5zM99 153q0 12 8 38.5t20 54.5t26.5 49t26.5 21h4l8 -4l8 -4l150 -45q19 -12 44.5 -20.5t49 -21t40 -31.5t16.5 -50q0 -37 -18 -61.5 t-45 -39.5t-59.5 -21t-62.5 -6q-32 0 -69.5 7t-70 23t-54.5 43t-22 68zM382 295l-137 41q-12 6 -44.5 18t-67 32.5t-61 50.5t-26.5 73q0 16 6 36.5t15 39.5t19 32t17 13h6v-60q0 -15 14 -28t33 -24t37.5 -19.5t26.5 -13.5l187 -61q1 -1 5.5 -4t6.5 -4q27 -14 55.5 -31.5 t52.5 -39.5t39 -49.5t15 -63.5q0 -14 -5.5 -32t-12.5 -33.5t-13.5 -26.5t-9.5 -11h-4q-2 33 -8.5 57.5t-23 43.5t-44 33.5t-70.5 26.5q-1 1 -4 2.5t-4 1.5zM46 180v2q0 1 2 5.5t4.5 9.5t6 9.5t8.5 4.5v-5q0 -3 -1 -10t-1.5 -15.5t-1 -16t-0.5 -10.5h-4q-3 1 -6.5 7.5t-5 11 t-1.5 5.5v2zM394 308q-3 1 5 -1.5t20 -7t25.5 -10.5l22.5 -10q35 -14 52.5 -40t28.5 -61q8 13 12.5 26.5t4.5 27.5q0 41 -22.5 74t-57 58t-77 43.5t-82 31.5t-71.5 21.5t-47 13.5q-20 12 -40.5 20.5t-36.5 20t-26 28.5t-10 46v6q-8 -6 -14.5 -16.5t-10.5 -22t-6 -23.5 t-2 -21q0 -36 23 -62.5t54 -45.5t61.5 -31t44.5 -21zM143 621q0 33 17 52.5t42.5 30t55 14t54.5 3.5q28 0 59 -7t57 -22t43 -39t17 -58q0 -11 -6.5 -32t-17 -42t-23.5 -36.5t-26 -15.5q1 0 -16.5 5.5t-41.5 13t-49 15t-39 11.5q-19 6 -41 14.5t-41 21t-31.5 30t-12.5 41.5z M524 611h2q8 0 11.5 -10t3.5 -16q0 -7 -4.5 -17t-12.5 -10v53z" />
<glyph unicode="9" horiz-adv-x="587" d="M38 133q0 -36 18.5 -62.5t46.5 -44t61.5 -26t63.5 -8.5q66 0 122.5 21t101 58.5t74.5 90.5t43 118q9 39 9 93q0 67 -18 131t-54.5 114t-91.5 80.5t-129 30.5q-50 0 -99.5 -17t-88.5 -48t-63 -75.5t-24 -98.5q0 -40 12.5 -78t37.5 -67.5t62 -47.5t86 -18q24 0 42.5 3.5 t34.5 11t30 20t31 30.5h2q0 -6 0.5 -19.5t0.5 -30.5q0 -16 0.5 -32.5t0.5 -27.5v-11q0 -32 -1 -66t-8 -63.5t-23 -51.5t-45 -30h-32q-7 0 -20 0.5t-25.5 3.5t-22 10t-9.5 19q0 13 11 20t23.5 16t23.5 22.5t11 40.5q0 39 -26.5 59t-64.5 20q-44 0 -74 -21t-30 -69zM78 131 q0 21 18.5 38.5t39.5 17.5q6 0 16 -3.5t20 -9.5t17 -14t7 -16t-6 -15t-14.5 -12.5t-18.5 -10.5t-17 -9q-1 -2 -3 -6.5t-4 -9.5t-4.5 -9t-4.5 -4q-7 0 -15 8t-15 18.5t-11.5 21t-4.5 15.5zM387 656q0 4 4 4h4q34 -22 61.5 -53t46 -67t28.5 -76t10 -80q0 -78 -26 -147 t-84 -124q-3 0 -9.5 -5t-14 -11.5t-15.5 -11.5t-14 -5q0 129 4.5 256t4.5 256v64zM95 134q0 -7 7.5 -20t14.5 -13q3 0 12 5t18.5 12t17 14t7.5 12q0 12 -14 19.5t-25 7.5q-5 0 -11.5 -3.5t-12.5 -9t-10 -12t-4 -12.5zM399 633q0 -131 -2.5 -260t-2.5 -260q6 0 13.5 4.5 t11.5 8.5q53 53 81.5 117.5t28.5 139.5q0 28 -9 65.5t-25.5 73.5t-40 66t-51.5 44q-1 0 -2 0.5t-2 0.5zM224 452v12t0.5 19t0.5 19v12q1 4 1.5 20.5t1 38t2.5 45.5t6.5 44.5t12 33.5t20.5 13h45q13 0 21.5 -12t12.5 -30t5.5 -39.5t1.5 -40.5q0 -16 -0.5 -28t-0.5 -16v-26 q0 -26 -2 -61t-10.5 -67t-25.5 -54.5t-47 -22.5q-21 0 -30.5 15t-12.5 36.5t-2.5 46t0.5 42.5zM42 488q0 28 15 56.5t37.5 53.5t49 44.5t48.5 29.5q4 -1 4 -6v-5q0 -86 -2.5 -170.5t-2.5 -171.5q-26 0 -52 17.5t-48 43t-35.5 55t-13.5 53.5zM58 481q0 -24 15.5 -50t35.5 -47 t39.5 -34.5t27.5 -13.5h4v309q-11 0 -31 -16t-40.5 -40.5t-35.5 -53.5t-15 -54z" />
<glyph unicode=":" horiz-adv-x="170" d="M10 65q0 -10 3.5 -21.5t10 -21t15.5 -16t20 -6.5q17 0 35 6.5t32.5 18t24 27t9.5 32.5q0 37 -37 50h-28q-34 0 -59.5 -15t-25.5 -54zM54 67q0 12 14.5 21.5t24.5 9.5q8 0 15.5 -4.5t7.5 -12.5q0 -4 -5.5 -10t-13.5 -12t-16 -10.5t-12 -4.5q-8 0 -11.5 10.5t-3.5 12.5z M87 77q-8 0 -8 -6v-2l12 8h-4zM10 437q0 -10 3.5 -21.5t10 -21t15.5 -16t20 -6.5q17 0 35 7t32.5 18.5t24 27t9.5 32.5q0 37 -37 50h-28q-34 0 -59.5 -15t-25.5 -55zM54 440q0 12 14.5 21.5t24.5 9.5q8 0 15.5 -4.5t7.5 -12.5q0 -4 -5.5 -10t-13.5 -12t-16 -10.5t-12 -4.5 q-8 0 -11.5 10.5t-3.5 12.5zM87 450q-8 0 -8 -6v-2l12 8h-4z" />
<glyph unicode=";" horiz-adv-x="174" d="M38 -60q0 -9 9 -10.5t15 -1.5q19 0 36.5 16t31 39t22 48t8.5 43v24q-9 26 -37 37h-26q-16 0 -31.5 -4t-28 -12t-20 -21t-7.5 -32v-7q0 -2 0.5 -3t3.5 -6q6 -14 10.5 -24t10.5 -16t15 -9t25 -4v-4q0 -9 -6 -15t-12.5 -11.5t-12.5 -11.5t-6 -15zM54 68q0 12 14 21.5t25 9.5 q10 0 20.5 -9.5t10.5 -19.5q0 -3 -1.5 -8.5t-4 -11t-5.5 -9.5t-6 -4h-36q-3 0 -6.5 4.5t-5.5 10.5t-3.5 11zM75 66q0 -17 17 -17q8 0 10 4.5t2 12.5t-2.5 10t-10.5 2q-6 0 -11 -2t-5 -10zM18 438q0 -10 2.5 -21.5t8 -21t14 -16t20.5 -6.5q18 0 36 6t32.5 17.5t23.5 27 t9 34.5q0 25 -16.5 37.5t-46.5 12.5q-35 0 -59 -15t-24 -55zM58 441q0 6 4.5 11t10.5 9.5t12.5 7t11.5 2.5q7 0 15 -4t8 -12q0 -9 -14 -18t-31 -19h-2q-8 0 -11.5 11t-3.5 12zM99 456q-6 0 -11.5 -4.5t-8.5 -8.5q0 -1 1 -1h1q2 1 10 4t8 5v5z" />
<glyph unicode="?" horiz-adv-x="700" d="M248 60q0 -26 15 -44.5t41 -18.5q17 0 36.5 5.5t36.5 15.5t28 25t11 35q0 15 -7 25.5t-17.5 16.5t-23.5 8.5t-26 2.5q-17 0 -34 -3.5t-30.5 -12t-21.5 -22t-8 -33.5zM293 62v4q9 11 20.5 20t26.5 9q8 0 19 -5.5t11 -13.5v-2q-1 -1 -7 -5.5t-14 -10t-16.5 -11.5t-14.5 -10 h-4q-8 0 -14.5 8.5t-6.5 16.5zM342 79q-6 0 -19 -6t-13 -11v-6q3 0 8.5 2t10.5 4t9 4.5t4 3.5v9zM153 232q20 0 38 -7.5t35 -17t34.5 -18t36.5 -10.5h85q2 0 9.5 1.5t11.5 2.5q2 1 21 9t49 22.5t59 29.5t49.5 29t20.5 22q0 7 -5 8.5t-11 1.5h-8q-13 0 -25 -5t-25 -11.5 t-27.5 -11.5t-30.5 -5q-5 0 -25 5t-42 12.5t-39.5 15.5t-17.5 14q0 2 15.5 9.5t39.5 19t55 27t62 33.5t59 39t48 44q12 14 23.5 33t21 39t15 39t5.5 33q0 13 -5.5 21t-10.5 17q-11 17 -22 29t-24 20.5t-29 15t-35 12.5q-11 4 -23 8t-25 4h-190q-27 0 -60.5 -9t-68.5 -25 t-68.5 -37.5t-60 -45.5t-42.5 -50.5t-16 -51.5v-13q0 -32 17.5 -51t43.5 -29t56 -13t54 -3h24q11 0 21 0.5t21 1t26 2.5q7 1 25 5t37 9.5t33.5 11t14.5 10.5q0 11 -7 14t-16 3q-20 0 -36 -10.5t-35 -14.5q-20 -3 -45 -3.5t-45 -0.5q-17 0 -40 2t-43.5 9t-35 21.5t-14.5 38.5 q0 37 30.5 62.5t72.5 42t85 24t68 7.5h40q10 -8 24 -8t25 -4q16 -7 31.5 -16t28.5 -21.5t21 -27.5t8 -34q0 -27 -10 -49.5t-26 -42t-35.5 -36.5t-38.5 -32q-41 -35 -93.5 -62.5t-100.5 -47.5q-6 -2 -22 -7t-32.5 -12t-29.5 -15.5t-13 -18.5q0 -5 6 -6.5t11 -1.5h7 q9 0 15.5 2.5t14.5 2.5zM237 252q0 1 -0.5 2t-0.5 2q0 6 5 8l56 24q1 1 2 1h2q2 0 10.5 -4t19 -9.5t19.5 -10t12 -5.5t11 -4t17 -6t17.5 -6t11.5 -4v-4q0 -3 -11 -7.5t-25 -8.5t-27 -6.5t-16 -2.5q-11 0 -25 4t-29 10t-28 13.5t-21 13.5zM269 252q19 -5 35 -15t36 -10h9 q7 0 14.5 1.5t10.5 7.5q-2 3 -13 8.5t-24.5 11t-25.5 9t-16 3.5h-2q-5 -2 -14.5 -6.5t-9.5 -5.5v-4zM524 475v1q0 7 1.5 20.5t6.5 18.5v85q-6 10 -7 21.5t-9 19.5q-27 22 -51 35t-52 20t-62 9t-80 2q0 2 12 5.5t27 7.5t29 7t19 3h126q49 -7 90 -26.5t67 -62.5q1 -2 4.5 -6.5 t3.5 -6.5q0 -1 -3.5 -5.5t-4.5 -6.5q-14 -38 -33.5 -67t-51.5 -58q-7 -7 -14.5 -9.5t-13.5 -10.5zM546 608v-101h6q3 0 14.5 11.5t25 29t24 38.5t10.5 40q0 25 -23.5 42.5t-55.5 28.5t-65 16t-51 5h-8h-13q-6 0 -11.5 -0.5t-8.5 -0.5q25 -4 50.5 -11.5t47.5 -20.5 q11 -7 20 -16t20 -16l4 -4q5 -10 4.5 -21.5t9.5 -19.5z" />
<glyph unicode="A" horiz-adv-x="797" d="M164 101q49 0 90 -26.5t64 -71.5h2q5 0 13 6.5t17 15.5t18 19.5t18 19.5q17 14 38 32.5t39 35l30 27.5t11 10h4q6 0 8 -4q2 -53 22.5 -93t70.5 -65h6q5 0 7.5 0.5t6.5 3.5l126 109q12 4 22.5 15t10.5 24q-8 0 -14.5 -4t-12.5 -9.5t-13 -9.5t-16 -4q-19 0 -26.5 16 t-7.5 33v465q0 34 13.5 50.5t29.5 24.5t29.5 13t13.5 16q-50 0 -99 -16t-92 -39q-5 -3 -14 -12t-18 -19t-16.5 -18t-10.5 -8q-8 0 -13 16t-11 35.5t-14.5 35.5t-21.5 16q0 -11 4.5 -17t9.5 -17q15 -38 23.5 -81t8.5 -85v-303q0 -16 -9 -32t-21.5 -30.5t-27.5 -27t-27 -20.5 q-7 0 -14.5 5.5t-14.5 12.5l-13.5 13.5t-10.5 9.5t-13.5 9t-20 12.5t-19 11.5t-11.5 7q-3 1 -13.5 3.5t-22 5.5t-20.5 6.5t-9 7.5q0 3 22.5 16.5t52 32t58 40t41.5 42.5q17 29 21 62.5t4 66.5q0 27 -2 56.5t-9.5 57.5t-21.5 53.5t-37 43.5q-25 19 -43 29t-33 14.5t-30 5 t-33 0.5q-47 0 -89.5 -15.5t-74.5 -43.5t-50.5 -68t-18.5 -89q0 -33 10.5 -67.5t38.5 -56.5q12 -9 29 -17t33 -16.5t27.5 -19.5t11.5 -26q0 -14 -9.5 -24.5t-22 -19t-26.5 -14t-23 -9.5v-7q32 0 57.5 16.5t43.5 42t27.5 56t9.5 58.5q0 36 -12 60t-29.5 40t-38 26.5t-38 20.5 t-29.5 22t-12 31q0 17 7 30.5t19 22.5t27 13.5t31 4.5q43 0 68 -26t37 -65t15 -83t3 -80v-38q0 -14 0.5 -29t0.5 -30q0 -35 -8 -67.5t-38 -54.5q-22 -17 -50.5 -39.5t-53.5 -47.5t-42.5 -52t-17.5 -53q4 0 9.5 5.5t12 13t14 16t15.5 15.5q11 10 27 11.5t30 1.5zM552 173v28 q0 14 0.5 43t1 65t1 76.5t1 76.5t0.5 65v43q7 12 12.5 24t12.5 24t17 23.5t27 21.5l32 16l5 -4l0.5 -30t1 -71t1.5 -85t1 -73v-267q2 -11 3 -17.5t1 -15.5q0 -6 -7.5 -15.5t-17 -19t-19.5 -16t-15 -6.5l-2 1q-27 21 -42 50t-15 63zM184 137v4q0 2 6.5 9t16.5 15t21.5 14 t20.5 6q12 0 30 -7.5t36 -18t33 -22.5t22 -21v-4l-12 -12q-4 -3 -11 -9t-11.5 -10t-5.5 -5h-8q-31 32 -63.5 45t-74.5 16zM564 175q0 -8 4.5 -23.5t11 -30.5t15.5 -26.5t18 -11.5q1 0 2.5 0.5l1.5 0.5l36 32l0.5 13t0.5 31v37v31v115t-1 103.5l-2 101t-2 107.5h-2 q-11 0 -22 -10t-21.5 -23t-19.5 -27t-16 -21v-45t-0.5 -68t-1 -79.5t-1 -79.5t-1 -68.5t-0.5 -44.5v-14zM220 149q4 -1 16.5 -4t16.5 -4q8 -2 19 -9l22 -14t20 -12.5t12 -5.5q6 0 11 5t5 11q0 9 -14.5 18.5t-32 17t-31.5 12.5l-14 5q-9 0 -16.5 -7t-13.5 -13zM301 323 q0 55 1.5 111t-3 107t-17.5 94.5t-41 75.5v5q46 0 79 -21t54 -53.5t31 -72t10 -75.5q0 -54 -20.5 -93t-68.5 -70q-5 -3 -12.5 -8t-8.5 -4zM281 696q0 -11 5 -22.5t7 -23.5q6 -26 9.5 -60.5t6 -74.5t3.5 -82.5t1 -85.5h3q2 0 6.5 3t9.5 6.5t9 6.5t5 4q30 27 43.5 57t13.5 70 q0 37 -7 65.5t-21.5 52t-37 43.5t-52.5 40zM46 533v7q0 10 8 10q21 0 43 -12t40.5 -30t30.5 -40t12 -42q0 -5 -1 -16t-9 -11l-2 1q-21 9 -42.5 21t-39 28.5t-29 37t-11.5 46.5zM62 526q0 -15 11 -33t27 -34t34 -26.5t32 -10.5q0 17 -9.5 35.5t-24.5 33.5t-33.5 25t-36.5 10z " />
<glyph unicode="B" horiz-adv-x="838" d="M124 162q22 0 44.5 -11.5t44 -28t42 -34.5t38.5 -31q38 -29 83.5 -43t93.5 -14q34 0 72.5 12.5t76.5 34.5t73 51t61.5 62.5t42.5 69t16 70.5q0 36 -13.5 65.5t-39.5 55.5q-5 5 -15 11t-20.5 12t-18 12.5t-7.5 11.5v2q4 4 25 11t44 13t42 9.5t19 2.5v4q0 4 -4 4 q-21 1 -34.5 4t-21 10.5t-11.5 20.5t-6 34q-4 38 -10 70t-21 55.5t-42 36.5t-74 13q-23 0 -48.5 -4t-48 -13.5t-40 -26.5t-24.5 -42h-8q-1 0 -8.5 7.5t-11.5 12.5q-32 37 -70.5 49.5t-87.5 12.5q-44 0 -88.5 -13.5t-80 -40t-57.5 -65t-22 -88.5q0 -24 6 -51t23 -47 q9 -10 23 -19.5t27 -20t22.5 -22.5t9.5 -27q0 -19 -11.5 -28.5t-26 -15t-26 -10.5t-11.5 -15q33 0 62.5 15.5t52 40.5t36 56t13.5 63q0 28 -9.5 47.5t-24.5 33.5t-31.5 24.5t-31.5 21t-24.5 23.5t-9.5 32q0 17 8 28.5t20 19t27 10.5t29 3q10 0 20.5 -5t17.5 -12 q24 -22 37.5 -47.5t19.5 -54t7.5 -59t1.5 -60.5v-14q0 -17 0.5 -48.5t-1.5 -62.5t-8.5 -55.5t-19.5 -27.5q-36 -6 -70.5 -19.5t-61.5 -35.5t-43.5 -53t-16.5 -71q6 0 10 5q2 31 20.5 52t48.5 21zM172 202q1 4 11.5 7.5t23 6.5t23.5 5t15 2q28 0 52 -11t46 -27.5t41.5 -36 t38.5 -35.5q20 -17 40.5 -30.5t40.5 -29.5v-2q0 -5 -4.5 -8t-10.5 -4.5t-13 -2t-12 -0.5h-4q-36 0 -70 15t-66 37t-61 47.5t-55 46.5q-3 2 -8 4.5t-11 5t-11 5t-6 5.5zM212 198q20 -16 51 -41.5t66 -49.5t69.5 -41.5t61.5 -17.5q8 0 8 7v2q-28 20 -53 42t-50.5 43t-52.5 40 t-59 33h-10q-7 0 -19 -2.5t-12 -12.5v-2zM277 263q0 5 4 8q45 30 84 57.5t74 68.5l6.5 6.5t5.5 1.5h8q36 0 77.5 -22t77 -56t58.5 -73.5t23 -75.5q0 -45 -26.5 -75.5t-72.5 -30.5q-33 0 -66 19t-64.5 45t-61.5 54t-58 45q-3 2 -14.5 6t-23.5 8t-21.5 8t-9.5 6zM585 411v2 q19 6 35.5 11.5t35.5 5.5q13 0 33 -12.5t39.5 -31.5t33.5 -41t14 -41q0 -6 -4.5 -20.5t-11 -29t-14 -25.5t-13.5 -11q-1 0 -1.5 0.5l-0.5 0.5q-9 30 -20 53.5t-27 44.5t-38.5 41t-52.5 43q-2 1 -4.5 4t-3.5 4v2zM621 401q37 -25 69.5 -63.5t44.5 -82.5h2q4 0 8 5t7 12 t5 14.5t2 12.5q0 15 -11 34.5t-27.5 37.5t-35 30t-33.5 12q-2 0 -7.5 -0.5t-10.5 -1.5t-9 -3t-4 -5v-2zM248 722q33 0 55.5 -7.5t40 -20.5t34 -30t37.5 -36q3 -17 4.5 -29t2.5 -23.5t1 -22.5v-26v-24q0 -14 -0.5 -27.5t-6 -28.5t-18 -31t-36.5 -35q-4 -4 -11.5 -11 t-16 -13.5t-17 -11t-14.5 -4.5q0 25 0.5 51.5t0.5 53.5q0 60 -4.5 117.5t-26.5 112.5q-4 12 -14.5 22.5t-10.5 23.5zM281 702v-6q1 0 4 -8.5t6.5 -19t6.5 -20t4 -12.5q9 -42 11.5 -85.5t2.5 -87.5q0 -24 -0.5 -48t-0.5 -47q8 0 21 11t26.5 25.5t25.5 29t19 20.5 q3 22 3.5 36.5t0.5 35.5v25q0 4 -1 13.5t-2.5 20.5t-2.5 21t-2 14q-12 2 -23 15t-24.5 28t-31.5 27t-43 12zM46 545q0 8 2 14t7 16h4q15 -9 34 -20t35.5 -24.5t28 -30.5t11.5 -37q0 -4 -1 -11.5t-3 -15t-5.5 -13.5t-8.5 -6h-2q-15 11 -33 24t-33.5 29t-25.5 34.5t-10 40.5z M455 438q0 13 2.5 33.5t2.5 42.5q0 31 -4.5 61t-4.5 61q0 14 5.5 29t15 27.5t22.5 20.5t28 8q16 0 25 -10t14.5 -26t8 -35.5l5 -39t6.5 -36.5t12 -27q8 -11 25 -20t34 -16.5t30 -13t13 -7.5q0 -5 -26 -14t-63 -19t-76 -20t-66 -16q-6 2 -7.5 5.5t-1.5 8.5v3zM61 547 q0 -17 7.5 -31.5t19.5 -27.5t26 -24t26 -19h4q8 0 8 11v4q0 13 -9 28.5t-23 28.5t-30 21.5t-29 8.5zM593 717q0 3 3 3.5t6 0.5h3q32 0 53.5 -15t34 -38.5t18 -53t5.5 -58.5v-22q-38 0 -59.5 15.5t-33 39.5t-16.5 53.5t-10 58.5q0 1 -2 7.5t-2 8.5zM612 705q0 -21 4 -47.5 t14 -49.5t28 -38.5t46 -15.5q0 19 -4.5 45t-15 49.5t-28 40t-44.5 16.5z" />
<glyph unicode="C" horiz-adv-x="793" d="M10 404q0 -102 35.5 -178t93.5 -126t133 -75t155 -25q65 0 116 11.5t90.5 37t69 66.5t52.5 100q3 9 6 16.5t3 17.5q-7 0 -18 -20t-23.5 -45.5t-26 -50.5t-26.5 -35q-36 -29 -68.5 -51t-69.5 -22h-109q-39 0 -68.5 16t-51 42.5t-35 59t-22 65.5t-11.5 63t-3 50v37 q0 71 6 136t23 134q2 2 5.5 13t6.5 20q14 32 38 52.5t59 20.5q34 0 54 -19t20 -53q0 -16 -7.5 -20t-17.5 -14q-18 -17 -35 -34t-30 -36t-21 -40.5t-8 -47.5q0 -41 22 -74t49 -63.5t49 -61t22 -66.5q0 -25 -11 -34t-33 -9q-34 0 -55.5 25.5t-34 56t-19 56t-11.5 25.5 t-5.5 -3.5t-0.5 -6.5q0 -11 2.5 -19.5t5.5 -19.5q9 -29 21 -54.5t30 -44t42.5 -29t57.5 -10.5q21 0 36 2.5t40 10.5q24 7 41.5 25.5t29 40.5t17 43t5.5 33q0 41 -16.5 77t-40.5 69t-51.5 64t-49.5 61q-4 5 -10 18t-6 22q0 17 8 27.5t20 21.5h7q13 0 23.5 -13.5t18.5 -19.5 q51 -41 118 -41q21 0 45.5 8.5t45 23t34.5 35t14 44.5q-17 0 -32.5 -6.5t-32.5 -6.5q-19 0 -35.5 11.5t-30.5 25t-24 25t-16 11.5q-13 0 -31 -12t-38.5 -27t-40 -27t-35.5 -12q-4 0 -7.5 7.5t-8 17t-11 20t-15.5 16.5q-21 15 -43.5 20t-48.5 5q-72 0 -131.5 -30 t-102.5 -79.5t-67 -113t-24 -131.5zM46 395q0 38 9 76t26.5 73t42 65t56.5 52q5 2 13.5 7.5l17 11t16 10t10.5 4.5q0 -8 -1.5 -17t-6.5 -16q-20 -79 -24.5 -154.5t-4.5 -156.5v-48v-41t2 -39.5t7 -41t15 -45.5q5 -13 17 -28.5t12 -29.5q-10 0 -23.5 9.5t-21.5 15.5 q-27 21 -47.5 41t-36.5 41.5t-29 46.5t-24 57q-11 28 -18 53t-7 54zM58 396q0 -36 14 -76.5t35.5 -78t47 -68.5t49.5 -47h5q0 5 -3.5 17t-7 28.5t-7 36t-3.5 40.5v109q0 41 1 76t3 68.5t6 68t10 74.5q1 2 1 7v7q0 1 -4 -1t-9 -5t-9.5 -6.5t-6.5 -5.5q-26 -23 -48 -50.5 t-38.5 -59t-26 -65.5t-9.5 -69zM362 475q0 11 5.5 23t13.5 23.5t17 21.5t17 16q6 -5 12 -12.5t11.5 -16.5t10.5 -17.5t10 -13.5q15 -19 37 -44.5t43 -53t35.5 -55.5t14.5 -52q0 -11 -8.5 -28.5t-20.5 -34t-26 -28.5t-24 -12h-2q-2 1 -4 2.5l-2 1.5v65q0 10 -10.5 24.5 t-26 32.5t-33.5 38t-33.5 40.5t-26 41t-10.5 38.5zM378 472q0 -15 12 -31t21 -27q16 -23 34.5 -44t34 -43t26 -46.5t10.5 -53.5v-7q0 -1 1 -1h1q8 0 17.5 9t18 21t14 25t5.5 21q0 15 -11 37t-26 44t-31 42t-26 32q-1 1 -8.5 10.5t-17 21l-19 23t-15.5 18.5l-6 4q-4 0 -10 -7 t-11.5 -16t-9.5 -18t-4 -14zM556 665q0 4 5.5 8.5t12.5 8t14.5 6.5l12.5 5q20 -18 41 -33t48 -20v-2q0 -6 -6.5 -10t-15 -6.5t-16.5 -4t-12 -1.5q-7 0 -21 5t-28 12.5t-24.5 16t-10.5 15.5zM584 663q0 -6 9 -12t20.5 -10.5t22.5 -7t15 -2.5q0 3 -7.5 9.5t-17 12.5t-18 11 t-11.5 5t-8 -1t-5 -5z" />
<glyph unicode="D" horiz-adv-x="801" d="M130 119q8 0 14.5 -2t15.5 -7l162 -81q32 -17 71.5 -23t75.5 -6q53 0 100.5 17.5t87 48t70 72.5t48.5 90q11 30 13.5 64t2.5 66q0 51 -9.5 93t-27.5 79.5t-45.5 71.5t-63.5 67q-29 27 -61.5 44t-68 27t-72.5 14t-74 4q-58 0 -107.5 -9.5t-91.5 -30.5t-77 -56t-63 -86 q-20 -39 -20 -87q0 -168 168 -168q5 0 13.5 1t17 3.5t14.5 7.5t6 13q-19 0 -36 -2.5t-35 -2.5h-35q-16 4 -31 12.5t-27 20.5t-19.5 27.5t-7.5 33.5q0 32 14.5 55t38.5 38.5t54.5 25t62 14.5t61 6.5t51.5 1.5h2q2 -1 9 -3t7 -7v-3q-1 -1 -2 -3.5t-2 -4.5q-11 -16 -23.5 -33 t-23.5 -35t-18.5 -37t-7.5 -40q0 -30 14.5 -49.5t36 -34t47 -24t47 -19t36 -20t14.5 -25.5q0 -5 -2 -13t-6 -15.5t-9 -13t-12 -5.5h-4q-19 6 -36 13t-35 12t-39 8.5t-48 3.5q-65 0 -113.5 -21.5t-80.5 -80.5q-11 -19 -20 -37t-9 -41q8 0 14 11t14.5 24.5t22 24.5t37.5 11z M354 62q-28 14 -62 30.5t-63.5 30.5t-49.5 24l-20 10q0 9 11 15t24.5 10.5t25.5 6.5t13 2t15 0.5t21 0.5q33 0 62 -9.5t57 -23t55.5 -28t56.5 -25.5q25 -9 49.5 -11.5t51.5 -4.5v-4q-5 -9 -22 -18t-38 -17t-41.5 -13t-30.5 -5q-28 0 -58.5 10t-56.5 19zM196 161l170 -87 q21 -11 49 -18t51 -7q26 0 44.5 8t41.5 17v4q-36 5 -72.5 21.5t-72.5 34.5t-71 32t-68 14q-4 0 -16 -1t-24.5 -3.5t-22 -6t-9.5 -8.5zM455 175q-4 1 -4 7v4q0 7 5.5 14t13 13.5t15 12t11.5 10.5q26 30 43.5 59t17.5 70q0 34 -15.5 56t-39 36t-51 22.5t-51 17t-39 19.5 t-15.5 29q0 12 6.5 21.5t19.5 9.5h2q59 -7 127 -25t126.5 -52t97 -85t38.5 -124q0 -24 -7.5 -53t-22 -54.5t-36.5 -43t-51 -17.5q-56 0 -99 13.5t-92 39.5zM301 410q0 4 4 14.5t9.5 21.5t11.5 20t11 9q4 0 5 -1l97 -32q7 -2 21 -10t27 -19.5t23 -25t10 -26.5 q0 -19 -13.5 -38t-27.5 -31q-9 8 -25.5 15.5t-36.5 16t-40.5 17t-37.5 19t-27.5 23t-10.5 27.5zM317 409q0 -10 21.5 -26t49.5 -31t54 -25.5t35 -10.5q4 0 9 6.5t9 14.5t6.5 15t2.5 9q0 18 -21 34.5t-48.5 29.5t-53.5 21t-35 8h-4q-8 -8 -16.5 -20t-8.5 -25zM332 608 q-51 0 -98.5 -4t-98.5 -12q-13 -2 -26.5 -9.5t-26.5 -7.5q0 8 8.5 18t12.5 15q52 62 126.5 90t154.5 28q47 0 91 -13t83 -35.5t72 -54t60 -68.5q10 -14 23.5 -32t13.5 -37q-8 0 -17 5.5t-17.5 13t-16.5 15t-15 11.5q-74 46 -158.5 61.5t-170.5 15.5zM419 620q65 -5 129 -23 t122 -50v8q0 1 -8 10.5t-13 14.5q-54 60 -118 91.5t-145 41.5h-4q-8 -1 -21.5 -2t-26 -2.5t-22.5 -2.5t-11 -1q-8 -1 -23.5 -6t-34.5 -12.5t-39 -17.5t-36.5 -20.5t-27 -21.5t-10.5 -21q30 0 70 7t77 7h55h87z" />
<glyph unicode="E" horiz-adv-x="818" d="M10 404q0 -96 30.5 -171.5t85 -127.5t130.5 -79t168 -27q79 0 149.5 25.5t125.5 84.5q3 3 9.5 10.5t13.5 16t12 17t5 15.5v2q0 4 -4 4h-4l-4 -4q-1 -1 -4.5 -6t-7.5 -10t-7.5 -10t-4.5 -6q-48 -54 -107.5 -84t-131.5 -30q-78 0 -125 27t-72.5 72t-33.5 105t-8 126 q0 33 0.5 74t4 83.5t11.5 82.5t23 71t38.5 50t58.5 19q12 0 27 -3.5t28.5 -10.5t22.5 -17.5t9 -24.5q0 -7 -11 -17t-25.5 -20.5t-28 -20.5t-17.5 -16q-20 -28 -34 -54t-14 -62q0 -39 21.5 -74.5t47.5 -68.5t47.5 -65t21.5 -63v-23q-6 -8 -10 -12.5t-8.5 -7t-11 -3.5 t-17.5 -1q-26 0 -44.5 19t-31.5 46t-19.5 55t-7.5 46q-2 5 -6.5 5.5t-7.5 0.5q0 -36 9.5 -71t29 -63t49.5 -45.5t72 -17.5q29 0 58.5 10.5t53.5 29t39 45t15 59.5q0 34 -8.5 64.5t-8.5 63.5q0 15 3.5 32.5t11 32t20.5 24t31 9.5q16 0 16 -15q0 -8 -5.5 -15.5t-11.5 -16 t-11.5 -19.5t-5.5 -24q0 -32 19 -56.5t54 -24.5q21 0 35 9.5t22.5 24.5t12.5 33.5t4 36.5q0 15 -10 31.5t-25 31t-32.5 23.5t-31.5 9q-26 0 -45 -8.5t-32.5 -23.5t-21.5 -35t-13 -43l-4 -4l-8 8q-2 3 -8.5 13t-14 22t-14 22t-8.5 12q-9 14 -22.5 29.5t-25.5 31.5t-20.5 33.5 t-8.5 36.5q0 11 9.5 21.5t21.5 10.5h5t5 -1q17 -15 33 -28.5t32.5 -24.5t36 -17.5t44.5 -6.5q27 0 56.5 14t55 34.5t42 42.5t16.5 37v2q0 4 -4 4h-4q-17 -18 -31.5 -27.5t-38.5 -9.5q-27 0 -46 12t-32 27t-19.5 27t-8.5 12q-17 0 -33 -12.5t-30 -20.5q-12 -6 -26 -14 t-26 -15t-21.5 -11.5t-13.5 -4.5q-1 0 -1.5 0.5l-0.5 0.5q-15 16 -28.5 29t-28.5 22t-34 13.5t-45 4.5q-72 0 -132 -28.5t-103 -77t-67 -113t-24 -135.5zM79 243q-13 38 -25 77.5t-12 81.5q0 48 20 98.5t48.5 92t60 68t54.5 26.5q0 -14 -6 -30t-11 -29q-10 -69 -13 -138 t-3 -138v-36q3 -54 8.5 -106.5t16.5 -87.5q2 -8 7 -16t5 -17h-4q-1 0 -7 3.5t-14 9l-16 11t-12 9.5q-31 26 -54.5 56t-42.5 65zM58 395q0 -69 29 -131t77 -110q5 -5 14 -12.5t10 -7.5h9q0 -1 -1 3t-2 10t-3 12.5t-3 10.5q-1 7 -2 26.5t-2.5 40.5t-2.5 40t-1 27v47 q0 75 4.5 147t11.5 146v8q-6 -2 -13 -7.5t-11 -8.5q-51 -47 -82.5 -109t-31.5 -132zM358 494q0 9 6 24t15 30t19 25.5t19 10.5l2 -1l8 -12t12.5 -18.5t12 -18t8.5 -11.5q13 -18 33.5 -45.5t40 -57.5t33.5 -60.5t14 -55.5q0 -12 -8.5 -31t-21.5 -36.5t-27 -30t-26 -12.5 l-2 20q0 14 -1.5 29.5t-6.5 27.5q-11 24 -32.5 52t-43 58t-38 59t-16.5 54zM374 495q0 -23 15.5 -50t36.5 -55t42 -55t32 -51q6 -14 7 -30.5t1 -30.5h4q3 0 12 8t18 20t16 25.5t7 24.5q0 17 -10.5 43t-27 54t-35.5 56t-35.5 50.5t-29 36.5t-14.5 14q-5 0 -11.5 -7.5 t-12.5 -17.5t-10.5 -20t-4.5 -15zM690 420q0 9 4.5 16t10 13t10 12.5t4.5 15.5v1l1.5 0.5t2.5 0.5q6 0 11.5 -5t10.5 -12.5t8 -15t3 -13.5q0 -4 -3 -11t-7.5 -14.5t-9.5 -13t-9 -5.5h-12l-25 24v7zM706 423l1 -2q1 -2 5.5 -6t6.5 -6h2q7 0 12.5 9t5.5 16q0 4 -2.5 8t-7.5 4 l-22 -21l-0.5 -0.5t-0.5 -1.5zM556 676q0 2 5 6t11.5 8.5t14.5 8.5t14 6h4q10 -12 19.5 -19t19.5 -12t20.5 -10.5t22.5 -13.5q0 -2 -7 -5t-16.5 -6t-18.5 -5t-12 -2q-6 0 -18.5 4t-25.5 10t-23 14t-10 16zM585 668q17 -13 29 -17t32 -4v5q-3 1 -9.5 6.5t-14 11.5t-14 10.5 t-9.5 4.5q-5 0 -10 -3.5t-5 -9.5l0.5 -1.5t0.5 -2.5z" />
<glyph unicode="F" horiz-adv-x="773" d="M75 7q0 -54 28.5 -98t72 -74.5t96.5 -47.5t101 -17q63 0 122 21.5t104 60t72 92.5t27 120q0 42 -19.5 78.5t-43.5 71t-43.5 70.5t-19.5 78q0 9 3 21t9 23.5t15 19.5t20 8t11 -8q0 -16 -10.5 -31t-10.5 -32q0 -28 22.5 -49.5t50.5 -21.5q20 0 35.5 8t25.5 21.5t15 31 t5 35.5q0 19 -9.5 33t-23.5 22t-31.5 12t-32.5 4q-32 0 -53.5 -8t-34 -24t-17.5 -39.5t-5 -53.5l-4 -9q-12 10 -24.5 24.5t-22 31.5t-16 34.5t-6.5 34.5q0 11 3.5 22t13.5 19q9 -1 19 -1h21q34 0 73 4.5t71 19t53.5 40.5t21.5 68q0 27 -11 48.5t-29.5 37t-42 24t-48.5 8.5 q0 -12 16.5 -19t37 -16.5t37 -24.5t16.5 -43q0 -20 -13 -26.5t-29 -6.5q-27 0 -52.5 9.5t-49.5 23.5t-47 29t-44 27q-51 27 -108.5 50t-116.5 23q-48 0 -95.5 -15t-85 -44t-61 -70.5t-23.5 -93.5q0 -35 12.5 -64.5t34 -51t51 -34t64.5 -12.5q22 0 47 5t48 15t43 25.5 t32 35.5v2q0 5 -3.5 6t-6.5 1q-1 0 -3 -0.5t-3 -0.5q-30 -33 -66.5 -51t-81.5 -18q-24 0 -49 6.5t-45 19.5t-33 33t-13 48q0 27 11.5 46t29.5 31t41.5 17.5t47.5 5.5q28 0 55.5 -6.5t53.5 -17.5q8 -4 26 -11.5t40.5 -17.5t46.5 -21t44 -20t33 -14.5t13 -6.5v-2 q-5 -13 -15 -24.5t-22 -22t-23 -21t-17 -21.5q-16 -23 -26.5 -53t-10.5 -59l25 -91q0 -1 4 -8t10 -16l12 -18l10 -15q17 -24 36.5 -47.5t36.5 -49t28.5 -53t11.5 -58.5v-2q-12 -74 -57.5 -110.5t-115.5 -36.5q-27 0 -53 8.5t-47 25t-34 40t-13 53.5q0 34 16.5 64t36.5 60.5 t36.5 62.5t16.5 70q0 65 -32 104.5t-101 39.5q-55 0 -94 -26.5t-69 -71.5q-3 -5 -7.5 -14.5t-4.5 -15.5t8 -6h4q7 17 18.5 35.5t26.5 34t33.5 25.5t39.5 10q16 0 22 -10t6 -24t-6 -28t-15 -27.5t-19 -25.5t-17 -23q-21 -31 -32.5 -66t-11.5 -73zM111 12q0 26 10.5 49 t25.5 45t30.5 43t26.5 42q1 2 2 14t3 26t4.5 25.5t7.5 11.5q12 0 24.5 -10.5t23 -25.5t17.5 -31t7 -28q0 -15 -8.5 -34.5t-21.5 -41t-28.5 -44t-30.5 -44.5q-12 -30 -15 -58t-5 -60h-2q-9 0 -21 15t-23 35t-19 40t-8 31zM406 298q0 11 3.5 24t9.5 25t14.5 22t17.5 16 q7 -5 13.5 -14t12.5 -20t12 -21.5t11 -17.5q11 -14 26 -22t26 -22q3 -5 10 -16.5t15 -24t14.5 -24.5t9.5 -16q9 -16 20 -33t20 -34.5t15 -36.5t6 -38q0 -14 -8.5 -38t-21.5 -48t-28 -42.5t-27 -21.5q-2 38 -4.5 72.5t-16.5 69.5q-14 34 -39 64t-50 60.5t-43 63.5t-18 73z M123 11q0 -22 16.5 -45.5t32.5 -37.5q2 29 9.5 53t19 46.5t26 45t30.5 49.5q8 14 12.5 27t4.5 29q0 6 -4 17t-10 22t-13.5 19t-13.5 8h-10v-53q-9 -10 -14 -22t-13 -23t-20 -28t-24 -36t-20.5 -37.5t-8.5 -33.5zM422 297q0 -30 16 -60t38 -59.5t46 -57.5t39 -54 q17 -31 22 -63t6 -67h4q7 0 16 14.5t17.5 33.5t14 38.5t5.5 28.5q0 17 -10 40t-25 48.5t-32.5 50t-32.5 44t-26 32.5t-12 14q-9 7 -18 19.5t-17.5 24.5t-14.5 20.5t-7 8.5h-4q-8 -14 -13 -22t-7.5 -13t-3.5 -9.5t-1 -11.5zM653 367q0 9 5 13.5t8 12.5q2 7 2.5 15.5t5.5 13.5 q15 -7 32 -18.5t17 -30.5q0 -5 -4.5 -11.5t-11 -13t-13.5 -11t-12 -4.5q-10 0 -19.5 12.5t-9.5 21.5zM670 367v-2q1 -2 5.5 -6.5t6.5 -5.5h2q7 0 13 9t6 16q0 3 -5 11.5t-14 8.5q-2 -6 -8 -15.5t-6 -15.5zM94 640q0 11 20 26.5t48 29.5t59 24t52 10q38 0 72.5 -11t67 -28.5 t64 -37.5t64 -38.5t66.5 -31.5t71 -16v-2q0 -8 -14.5 -15t-33 -12t-35.5 -8t-21 -3q-55 0 -107 18t-101 43l-68 34t-73 18h-131zM140 657q76 0 132.5 -18.5t105 -40.5t94.5 -40.5t101 -18.5q13 0 29 4t27 12q0 4 -4 4q-42 17 -88.5 44t-93 52.5t-90 44t-80.5 18.5 q-19 0 -42 -8t-43.5 -18t-34 -19t-13.5 -12v-4z" />
<glyph unicode="G" horiz-adv-x="886" d="M10 372q0 -41 9.5 -76.5t26.5 -72.5q27 -62 73.5 -106t103.5 -71.5t121.5 -40.5t128.5 -13q41 0 87 9t90.5 26.5t85.5 43.5t72 59.5t49.5 74.5t18.5 88q0 54 -16 94.5t-61 69.5q-5 3 -16.5 7t-24.5 7.5t-22.5 6.5t-9.5 6q0 5 14.5 13.5t32 22t32 33t14.5 46.5 q0 22 -12.5 38t-28 27t-28 19t-12.5 13q0 9 11 15t23.5 11t23.5 9.5t11 11.5q0 5 -3 5.5t-7 0.5h-6q-21 -6 -54 -17.5t-64 -29t-53.5 -41.5t-22.5 -54q0 -29 15.5 -47t36.5 -38q0 -2 0.5 -6t0.5 -6q0 -15 -10 -27.5t-24 -22.5t-29.5 -18t-26.5 -13h-2q-3 0 -12 13 t-18.5 29.5t-17.5 31.5t-10 19q-45 60 -45 104q0 7 3 16.5t8.5 18t13 14t16.5 5.5q10 0 16 -8.5t11 -18.5t11.5 -18.5t17.5 -8.5v9q-11 16 -22 32.5t-11 24.5q0 10 8.5 15.5t19 10.5t19 11t8.5 17q-18 0 -35.5 -12t-30.5 -22h-6q-8 0 -16.5 5t-17 11l-17 12t-16.5 9 q-18 5 -25 6.5t-18 1.5h-22q-81 0 -147 -30.5t-113.5 -83t-73.5 -122.5t-26 -149zM228 369q0 44 2.5 95.5t10.5 106.5q3 27 12 49t16 48l53 52q11 11 31.5 14t34.5 3q6 0 20.5 -3.5t29.5 -9t26.5 -13t11.5 -15.5q0 -3 -0.5 -4.5t-4.5 -3.5q-31 -23 -60.5 -46.5t-52 -51.5 t-36 -61t-13.5 -74q0 -37 19.5 -69.5t43.5 -64.5t43.5 -66.5t19.5 -74.5q0 -18 -5.5 -26.5t-24.5 -8.5q-32 0 -51 21.5t-29.5 47.5t-15 47.5t-8.5 21.5h-5q0 -77 37 -119.5t115 -42.5q31 0 59.5 14t50 37t34.5 52.5t13 59.5t-12 60.5t-25 56.5v4q0 7 5 12.5t12.5 9t15.5 5 t14 1.5q22 0 34 -19.5t17.5 -45t6.5 -51t1 -38.5q0 -55 -10 -104t-34.5 -86t-65.5 -59t-104 -22q-79 0 -125 33t-70 85t-30.5 116t-6.5 127zM46 344v34q0 36 9 75t27 75.5t44.5 69t61.5 54.5q6 4 15 11t18 7v-6q0 -3 -1 -4q-14 -73 -19.5 -144.5t-5.5 -146.5q0 -36 0.5 -59 t1.5 -43t3.5 -42t7.5 -55q3 -18 10.5 -36.5t7.5 -37.5q-12 0 -26.5 10t-29 25t-29 31t-26.5 28q-15 15 -25 34t-17.5 39t-13.5 41t-13 40zM706 298v66q-3 14 -7 28t-7 25.5t-5 19.5t-2 9q31 0 59 -11t49.5 -30t34 -46t12.5 -58q0 -32 -19 -68t-44.5 -66.5t-50.5 -50.5 t-37 -20q0 32 8.5 67t8.5 68v67zM719 298q0 -42 -4.5 -82.5t-4.5 -82.5q2 0 6 1.5t6 3.5q15 14 33.5 32.5t34.5 39.5t27 44t11 46q0 22 -10 44.5t-27 40.5t-38.5 29.5t-43.5 11.5q0 -6 1.5 -19.5t3.5 -31t3.5 -37.5t1.5 -40zM58 378q0 -26 12.5 -63.5t32.5 -74.5t44.5 -65.5 t48.5 -36.5h4q-5 10 -8 36.5t-5 60t-3 69.5t-1 66q0 67 7 133t7 132h-5q-41 -23 -67 -59.5t-41 -74.5t-20.5 -71.5t-5.5 -51.5zM349 473q0 8 7.5 26.5t18 37t22.5 32.5t20 14l9 -17t20 -38t21 -40t12 -23q12 -20 27.5 -43.5t29.5 -48t23.5 -49.5t9.5 -49q0 -10 -10 -27 t-24 -33.5t-29.5 -28.5t-26.5 -12h-4q-2 30 -7.5 56.5t-20.5 52.5q-13 22 -30 44t-32 45.5t-25.5 48.5t-10.5 52zM390 397q17 -25 33 -48t29 -46t22.5 -48.5t12.5 -56.5h5q3 0 12.5 9t20 22t19 27.5t8.5 24.5q0 17 -9.5 39t-22.5 45.5t-28 46.5t-25 41q-5 9 -11.5 23 t-13.5 28.5t-14.5 27t-16.5 18.5q-9 -3 -16.5 -12t-14 -20.5t-11 -22.5t-7.5 -17v-6q0 -20 11 -38.5t17 -36.5zM637 607v1q0 6 8 15.5t18.5 18.5t21 15.5t15.5 6.5q3 0 15.5 -9t26.5 -20.5t25.5 -23t11.5 -16.5q0 -7 -11.5 -19.5t-26 -24.5t-28.5 -20.5t-19 -8.5 q-3 0 -5 5.5t-3.5 12.5t-3.5 13.5t-4 9.5q-4 4 -10.5 8.5t-13 10t-11.5 12t-6 13.5zM657 603q14 -12 27 -27t18 -26h4q4 0 13 5.5t18 13t15.5 15t6.5 11.5v4q-12 14 -29 27.5t-37 13.5q-5 0 -11 -3.5t-11.5 -9t-9.5 -11.5t-4 -11v-2z" />
<glyph unicode="H" horiz-adv-x="830" d="M228 -59q0 -33 13 -59t35 -43.5t51 -26.5t60 -9q46 0 88 10.5t78 42.5q4 4 11 10.5t13.5 13t11 11.5l4.5 5v8h-8q-20 -18 -40.5 -34t-43 -28.5t-47.5 -19.5t-53 -7q-26 0 -54 6.5t-50.5 20.5t-37 36t-14.5 53q0 7 4 16t10.5 17.5t14 14.5t15.5 6h53q23 -13 40 -26.5 t37 -42.5h12l227 122q80 51 121 114.5t41 144.5q0 59 -20.5 104t-56 75t-83.5 45t-104 15q-31 0 -59 -9.5t-54.5 -24t-51.5 -31.5t-49 -32q-1 -1 -5.5 -2.5t-6.5 -1.5h-4q-12 8 -27 29t-28 46.5t-21.5 53t-8.5 49.5q0 15 8 31t20.5 29t28.5 21t31 8q1 0 4.5 -5t8 -12t9 -15 t7.5 -13q24 -29 58.5 -51t73.5 -22q24 0 51 7t48 18q16 8 40.5 26t47 39t39 43.5t16.5 39.5q-9 0 -19 -11.5t-24 -25t-34 -24.5t-50 -11t-54 17t-41 38t-27 38t-13 17h-2q-37 -22 -72.5 -41t-73.5 -36q-37 -17 -78.5 -34.5t-76.5 -41.5t-58 -57.5t-23 -82.5q0 -36 11 -66.5 t27.5 -58.5t35.5 -53.5t35.5 -51.5t27.5 -52.5t11 -56.5q0 -16 -6.5 -28.5t-17.5 -21.5t-25 -14t-29 -5q-7 0 -15.5 0.5t-16 3.5t-12.5 8.5t-5 14.5v10q21 23 33 43.5t12 52.5q0 30 -18.5 50.5t-50.5 20.5q-19 0 -32.5 -8t-22.5 -21t-13.5 -29.5t-4.5 -32.5q0 -19 3.5 -32.5 t10 -25.5t17.5 -22.5t26 -23.5q26 -14 46.5 -19.5t46.5 -5.5q37 0 78 17.5t75 46.5t56 66t22 76q0 22 -7.5 40t-17 33t-17 28t-7.5 25q0 9 11 15.5t25.5 10.5t28.5 5.5t21 1.5q34 0 70.5 -15.5t66.5 -41t49.5 -59t19.5 -70.5v-53q0 -60 -12 -109t-57 -90h-8q-6 0 -13 7 t-14 16t-13.5 18.5t-12.5 15.5q-17 19 -44.5 32t-53.5 13q-35 0 -67.5 -12.5t-57 -35t-39 -52.5t-14.5 -66zM374 20h-61q0 7 11.5 16t26.5 17t29 13t19 5q17 -8 29 -13.5t22 -12.5t19.5 -16.5t22.5 -23.5v-4l-4 -4q-3 -1 -9.5 -4.5t-14.5 -7t-15 -7.5t-10 -5q-11 6 -17 17 t-19 11q-4 2 -14.5 9.5t-14.5 9.5zM358 34h3q15 0 28 -6.5t24 -14t18 -14t10 -6.5h2q3 2 11 6t10 6v3q0 5 -8.5 12.5t-20 15t-21.5 13t-13 5.5h-2q-3 -1 -12.5 -4t-12.5 -4l-16 -8v-4zM666 110q0 30 2 60t2 60q0 41 -11.5 81.5t-34 73.5t-55.5 56.5t-77 29.5v4q0 4 9.5 8 t22.5 8t25 6.5t17 2.5q40 0 80 -16.5t71.5 -44t51 -65t19.5 -79.5q0 -11 -4.5 -19.5t-8.5 -18.5q-9 -26 -18 -47t-21 -39t-28 -34t-38 -34q-4 1 -4 4v3zM541 475q19 -12 37 -22.5t35 -25.5q24 -20 38.5 -46.5t21.5 -56.5t9 -61.5t2 -61.5v-62h6q3 0 16 15.5t28 39.5 t26.5 51.5t11.5 51.5q0 35 -17.5 68.5t-46 60t-63.5 42.5t-69 16h-12q-5 0 -14.5 -1t-9.5 -6v-1zM46 201q0 6 3 15t7.5 17.5t11 14t13.5 5.5q11 0 21 -9.5t10 -20.5q0 -18 -12.5 -31.5t-24.5 -24.5h-4q-10 0 -17.5 13t-7.5 21zM269 176v2q0 33 -11 62t-27 56t-35 51.5 t-35 49.5t-27 51t-11 54q0 10 8 28.5t19.5 35.5t25 30t24.5 13h4q5 -38 13.5 -71.5t27.5 -66.5q10 -17 27.5 -41.5t35 -51.5t30.5 -53t13 -45q0 -14 -8 -29.5t-19.5 -30t-24 -27t-22.5 -21.5q0 -1 -2 -1q-1 0 -6 5zM62 206q0 -4 3 -9t8 -5q7 0 15 12t8 18q0 11 -13 11 q-8 0 -14.5 -10t-6.5 -17zM139 498q0 -17 6.5 -31t14.5 -28q15 -29 34.5 -57t38.5 -56.5t33.5 -58.5t18.5 -64q6 0 14.5 11.5t16.5 26t13.5 28t5.5 18.5q0 10 -8.5 26.5t-20.5 34t-23.5 33.5t-17.5 25q-16 27 -28 48.5t-20.5 41t-14.5 40t-10 45.5h-4q-4 0 -12 -8.5 t-16.5 -21t-14.5 -27t-6 -26.5zM391 690l-0.5 1.5t-0.5 2.5q0 6 8 12t18.5 11.5t20.5 10t14 6.5q14 -11 24 -25.5t25 -26.5q6 -5 15 -8.5t17.5 -6.5t16 -7t12.5 -11q-10 -12 -28 -18t-33 -6q-35 0 -61.5 20t-47.5 45zM415 690q17 -20 38 -34.5t47 -14.5h7q5 0 9.5 1t4.5 5 q0 5 -5 6.5t-8 3.5q-6 3 -15 12l-18.5 18.5t-17 16.5t-9.5 7q-8 0 -20.5 -5.5t-12.5 -13.5v-2z" />
<glyph unicode="I" horiz-adv-x="733" d="M64 82q17 0 29.5 -19.5t22 -45.5t16 -51.5t12.5 -37.5q18 -41 44 -69t57 -45t67 -24.5t75 -7.5q60 0 118 17.5t103.5 51.5t74 85t28.5 117q0 42 -12.5 82t-31 78t-39.5 74.5t-39 73.5v25q0 9 2 15t10 13h19q28 0 43.5 -15.5t25.5 -34t17 -34t18 -15.5q0 25 -10.5 47.5 t-27.5 39.5t-40 27t-47 10q-36 0 -68 -11t-56 -32t-38 -51t-14 -67q0 -22 6.5 -52.5t17.5 -50.5l102 -182q14 -26 20.5 -44.5t11.5 -44.5v-2q0 -23 -9.5 -40t-25 -28.5t-35 -17.5t-39.5 -6q-48 0 -74.5 25.5t-43 64t-29 83t-31.5 83t-50 64t-86 25.5q-43 0 -81.5 -14.5 t-58.5 -54.5q-2 -4 -5 -11.5t-3 -8.5v-90q0 -7 3.5 -19t13.5 -12q0 19 -2.5 37t-2.5 38q0 10 1.5 21t6 20t13 15t21.5 6zM119 106v4q11 6 17.5 7.5t16.5 1.5q33 0 56.5 -16.5t40 -42.5t27.5 -59t20.5 -65t19 -61t21.5 -48q-1 0 -3 -0.5t-3 -0.5q-18 0 -40.5 11t-34.5 18 q-27 15 -44.5 38.5t-29.5 51t-21 57t-18 55.5q-4 10 -14.5 25.5t-10.5 23.5zM143 103q0 -7 5.5 -17.5t7.5 -15.5q5 -15 12.5 -37t17 -46t21.5 -47.5t26.5 -42.5t32.5 -31t40 -12v5q-10 30 -21 71.5t-28.5 80t-44.5 65.5t-69 27zM460 278q0 20 11 39t25.5 35t29.5 27t23 15 l4 -4q-1 -5 -1 -9v-8q0 -39 19 -77.5t42.5 -77.5t42.5 -78t19 -80q0 -20 -4.5 -37t-12 -32.5t-17 -31t-19.5 -31.5l-2 -1q-2 0 -7 12.5t-11 29t-11.5 33t-9.5 23.5l-101 182q-7 13 -13.5 35t-6.5 36zM476 276q0 -12 5 -29t11 -28l101 -182q1 -3 6 -14t10.5 -23.5t9 -22 l3.5 -9.5h2q7 0 14 13t12 29t8.5 31t3.5 19v2q-1 4 -3.5 12t-5 16.5t-4.5 15t-3 8.5q-9 24 -26.5 56t-35 65.5t-31 65.5t-13.5 56q0 2 0.5 4t0.5 4q-1 0 -1.5 0.5l-0.5 0.5q-8 0 -19 -11.5t-21 -26.5t-16.5 -30t-6.5 -22zM50 556q0 -38 11.5 -71.5t33.5 -59.5t53.5 -41 t72.5 -15q8 0 30 3.5t45 10.5t41 17t18 24q0 1 -1.5 3.5t-3.5 2.5h-2q-14 0 -28 -11.5t-26 -16.5q-18 -8 -34.5 -10.5t-36.5 -2.5q-32 0 -60.5 11.5t-49.5 32t-33.5 48.5t-12.5 61q0 24 9.5 43.5t25 33.5t36 22t42.5 8q36 0 67 -16.5t59 -39.5t54.5 -48t54.5 -42 q34 -20 70.5 -28.5t76.5 -8.5q39 0 67 20.5t45.5 52t25.5 68.5t8 70q-13 0 -16.5 -15t-6.5 -33.5t-11 -33.5t-30 -15t-38.5 11.5t-30.5 27.5t-27 33t-28 29q-46 38 -99.5 66t-115.5 28q-42 0 -87.5 -17t-82.5 -46.5t-61 -69.5t-24 -86zM188 685v2q0 8 14.5 17t33 16.5 t37.5 12.5t28 5q26 0 51.5 -8t49 -21t45 -29t41.5 -31q15 -12 27 -28t24.5 -30.5t27.5 -25t36 -10.5q10 0 15 1q4 -1 4 -8v-4q0 -9 -8 -17t-19.5 -13t-23.5 -8t-19 -3q-35 0 -64.5 13t-57 32.5t-53.5 42.5t-55 43.5t-61.5 34.5t-72.5 16zM233 697q45 -11 84.5 -40.5 t77.5 -61t76 -56t80 -24.5h2q12 5 26.5 8.5t14.5 16.5q1 1 -4.5 3t-12.5 3.5t-13 3t-7 2.5l-69 69q-4 12 -26 30t-51 34.5t-59.5 28.5t-51.5 12q-17 0 -35.5 -9t-31.5 -20z" />
<glyph unicode="J" horiz-adv-x="729" d="M103 61q5 -16 13.5 -40.5t16.5 -48t12.5 -39t2.5 -13.5q13 -34 37.5 -57t55 -37.5t65 -21t68.5 -6.5q63 0 113 14.5t102 46.5q1 0 4 1.5t4 2.5q25 24 45.5 46t34.5 47t22 53.5t8 64.5q0 33 -9 65t-23 62t-31.5 59t-33.5 57q-9 14 -19 30.5t-10 33.5q0 22 8.5 35.5 t32.5 13.5q22 0 37 -16t25 -35t16 -35t11 -16q8 0 8 7q0 19 -8 37.5t-21 34t-29.5 27t-34.5 16.5q-5 1 -20 1h-19q-33 0 -64 -10.5t-55 -30t-38.5 -48t-14.5 -64.5q0 -29 5 -55t19 -52l118 -219q12 -24 12 -48q0 -23 -9 -41t-24.5 -31t-35.5 -19.5t-42 -6.5 q-37 0 -59.5 13.5t-36.5 35.5t-22 50t-14.5 57.5t-14 57.5t-21.5 50q-26 40 -60.5 60.5t-72.5 20.5q-80 0 -113.5 -40.5t-33.5 -118.5v-3q0 -13 5.5 -26.5t6.5 -18.5h8q0 18 -2 36t-2 36q0 10 1.5 21t5.5 20t12 15t21 6q14 0 23 -12.5t14 -24.5zM136 94q-2 2 -7.5 11.5 t-9.5 16.5v4q3 5 12 6.5t14 1.5h5q14 0 24.5 -5t21.5 -11q30 -17 48 -43.5t29 -57.5t18 -64t15 -62q3 -12 12 -25t9 -24q-20 0 -36.5 7.5t-33.5 17.5q-32 19 -50.5 44t-30.5 54t-20.5 62t-19.5 67zM147 120q0 -11 3 -22.5t6 -19.5q10 -32 17.5 -59t18 -51t26.5 -45t43 -40 q7 -5 16 -11t17 -6q0 25 -10 67.5t-28.5 84t-46 72t-62.5 30.5zM451 290q0 19 7 35t19 30t26.5 26t29.5 21q2 1 4.5 2.5t3.5 1.5q4 0 4 -4v-12q0 -45 19.5 -83.5t43.5 -76.5t43.5 -77.5t19.5 -84.5q0 -35 -14 -61t-35 -51q-2 -2 -5.5 -9t-8.5 -7h-2q-2 17 -5.5 33t-11.5 32 l-117 218q-8 15 -14.5 32.5t-6.5 34.5zM601 17q4 -10 10 -23t7 -14h2q6 0 13 12.5t13 28.5t9.5 30t3.5 16q0 38 -19.5 76t-43.5 75.5t-43.5 75t-19.5 75.5l-2 8q-10 0 -21.5 -10.5t-21.5 -24.5t-17 -28.5t-7 -23.5v-2l2.5 -8t6 -17t6.5 -17.5t5 -9.5zM55 570 q0 -35 10.5 -68.5t31 -59.5t50 -41.5t67.5 -15.5q11 0 34 3t46 9.5t40 18t17 29.5q-12 0 -19 -6.5t-18 -12.5q-19 -11 -41 -18t-44 -7q-32 0 -60.5 11t-49.5 31.5t-33 48t-12 60.5q0 23 7 43.5t20 36.5t32 25t43 9q18 0 32 -4t29 -13q39 -24 74 -53.5t71 -55.5t76 -44 t89 -18q45 0 75 18t48.5 48t26 68t7.5 77q-11 0 -13.5 -15t-5 -33.5t-9.5 -33.5t-28 -15q-11 0 -24.5 4t-22.5 12q-38 39 -73 72.5t-73 58t-82 38.5t-100 14q-35 0 -73 -19t-70.5 -50t-53.5 -70.5t-21 -81.5zM350 628q-42 31 -79.5 52t-79.5 21h-11v4q0 6 13 14.5t32 16 t40 13t37 5.5q42 0 78 -19.5t68 -47.5t62 -58.5t59 -52.5q5 -4 12 -6t14.5 -4.5t13.5 -5.5t9 -8q-12 -15 -30.5 -26t-38.5 -11q-29 -1 -54.5 9.5t-49 26.5t-45 35t-42.5 34zM229 714q29 -5 56 -20.5t52.5 -36t50 -43t50 -41.5t52 -31t55.5 -12q11 0 19.5 1.5t16.5 11.5v2 q0 5 -10.5 11t-13.5 8q-5 5 -19 18.5t-29.5 28t-29 28t-19.5 18.5q-13 12 -32.5 26.5t-41.5 27.5t-44.5 22t-41.5 9q-3 0 -15 -2.5t-24.5 -6.5t-22.5 -8.5t-10 -8.5q0 -1 0.5 -1.5z" />
<glyph unicode="K" horiz-adv-x="745" d="M10 130q0 -31 15.5 -55.5t39.5 -41t53 -25t56 -8.5q37 0 68.5 11.5t55 33.5t36.5 54t13 73q0 65 -29 128q-7 10 -14 25t-7 19q0 6 4 8.5t9.5 3.5t11.5 1h10q11 0 22.5 -2.5t20.5 -10.5q27 -22 36.5 -50.5t12.5 -60.5t4.5 -65t11 -63.5t32.5 -56.5t69 -44l2.5 -0.5 t3.5 -0.5q8 0 22 10.5t20 18.5l136 102q6 0 6 7q0 9 -6 9q-8 0 -14.5 -4t-13.5 -8.5t-14.5 -8.5t-16.5 -4q-17 0 -33.5 13.5t-19.5 31.5l-20 150q-2 16 -10.5 25.5t-19 17t-21.5 14t-18 16.5q6 6 13 8l109 24q3 1 3.5 4t0.5 6v6q0 44 -15.5 84t-43.5 70t-65.5 47.5 t-82.5 17.5q-30 0 -58.5 -8.5t-52 -24t-41 -39t-26.5 -53.5q-7 -26 -7.5 -49t-4.5 -49q-11 7 -17.5 21.5t-10 31t-4.5 32.5t-1 27q0 45 18.5 79.5t48.5 58t69 35.5t80 12q52 0 98.5 -18.5t83.5 -51t62 -76.5t35 -94q0 -8 0.5 -19t3 -20.5t6.5 -16t11 -6.5q0 52 -12.5 97.5 t-41.5 90.5q-28 42 -61 69t-72 42t-83 20.5t-94 5.5q-61 0 -122 -18t-110 -53t-79.5 -86.5t-30.5 -117.5q0 -23 3.5 -48.5t11.5 -49.5t20.5 -46t29.5 -38l101 -97q15 -7 28 -19.5t23 -28.5t16 -33t6 -33q0 -28 -20 -48.5t-49 -20.5q-8 0 -17 2t-17 6t-13 10.5t-5 16.5 q0 20 8 38.5t8 39.5q0 32 -19.5 55t-51.5 23q-38 0 -60.5 -21.5t-22.5 -59.5zM435 356v4q10 3 16 4t15 1q14 0 30 -6.5t29.5 -17.5t23.5 -24.5t12 -28.5l20 -150q3 -5 7 -14t7 -15.5t3 -7.5t-0.5 -2.5l-0.5 -1.5l-52 -40h-13q-32 19 -46.5 46.5t-20 58.5t-6 63.5t-3.5 62.5 q-1 5 -4.5 14.5t-7 20l-6.5 19.5t-3 14zM50 132q0 14 14 26t28 12l31 -28q1 0 1 -4v-6q0 -4 -2 -15.5t-4.5 -23.5t-5.5 -22t-5 -10q-9 4 -19 11.5t-18.5 17t-14 20.5t-5.5 22zM459 345q0 2 1 -3t2 -12.5t2.5 -15.5t3.5 -14q3 -28 3 -60q0 -31 5 -62t18.5 -57.5t42.5 -43.5h1 q11 0 23 10.5t12 21.5v5q0 3 -0.5 6t-3.5 6l-20 149q-2 9 -11.5 22.5t-21.5 26t-24.5 21t-19.5 8.5q-5 0 -9 -1.5t-4 -6.5zM67 128v-2q0 -2 1.5 -5t2.5 -4l26 -25q3 0 5 5t3.5 11t2 12t0.5 8q0 8 -6.5 15t-14.5 7q-7 0 -13.5 -7.5t-6.5 -14.5zM67 454q0 3 -0.5 13t-0.5 13 q0 29 14 62.5t35.5 62.5t46.5 48.5t47 19.5q0 -6 -3 -15.5t-7 -19.5t-7 -19.5t-4 -15.5v-54q0 -36 6 -67t16.5 -60t24.5 -58t30 -60q15 -29 32 -63.5t17 -68.5v-10q-2 -5 -4.5 -14.5t-3.5 -9.5h-4q-10 43 -40 75t-64.5 61t-67 59.5t-47.5 71.5q-2 5 -5 14t-5.5 17t-4 13.5 t-1.5 4.5zM241 247q3 -2 9 -6.5t12.5 -11l13.5 -13.5l13 -13q1 0 1 2v4q0 23 -18 54.5t-39 67.5t-39 74.5t-18 76.5v150h-8q-7 0 -21.5 -15t-29.5 -37.5t-26.5 -49.5t-11.5 -50q0 -18 6.5 -39t16 -39.5t20 -34t18.5 -23.5zM281 377q-5 25 -6.5 39t-1.5 35q0 20 7.5 39 t20 33.5t30 23.5t38.5 9q24 0 42.5 -12t31 -30.5t19 -41t6.5 -43.5v-16q0 -1 -22 -7.5t-51 -14t-57 -13.5t-40 -6h-6q-10 0 -11 5zM504 441q-1 16 -3.5 34t-8 34.5t-14.5 31.5t-22 26q-7 5 -19.5 13.5t-13.5 8.5h-58q0 9 9 15.5t21.5 11t25 6.5t18.5 2q27 0 51 -9.5 t43.5 -25.5t35 -37.5t24.5 -45.5q5 -10 9 -19.5t4 -20.5q0 -7 -15 -12.5t-32.5 -9t-31.5 -5.5t-11 -2h-4q-6 0 -8 4zM419 603q2 0 8 -1t8 -3q44 -22 61.5 -60t19.5 -85q1 0 3 -0.5t3 -0.5q3 0 14 2t22.5 5t21 6t9.5 5q0 22 -15.5 46.5t-38.5 45.5t-49 35t-47 14 q-5 0 -11.5 -2t-8.5 -7z" />
<glyph unicode="L" horiz-adv-x="619" d="M131 134q35 -38 67.5 -64t64.5 -41.5t66 -22t73 -6.5q37 0 71 17.5t60 46t41.5 64.5t15.5 73q-9 0 -14 -15t-14.5 -33t-28 -33t-54.5 -15q-30 0 -56 11t-49.5 27.5t-46 34.5t-46.5 32q-24 15 -53 23t-56 14l-4 4q8 11 18.5 16t21.5 12q18 11 34.5 24t30 29t21.5 35t8 41 q0 25 -9.5 45.5t-24 38.5t-31.5 34.5t-31.5 34.5t-24 38t-9.5 44q0 16 8 33.5t21 32t30 23.5t34 9h85q19 0 37 -10t32.5 -24.5t23 -30.5t8.5 -27v-16q0 -32 -15 -56.5t-33.5 -47.5t-33.5 -47.5t-15 -56.5q0 -29 9 -56t25.5 -48t41 -33.5t55.5 -12.5q15 0 36.5 6.5t41 18 t33.5 27t14 33.5h-9l-53 -52q-6 -6 -17 -9.5t-19 -3.5q-14 0 -25.5 6.5t-11.5 22.5t8 29.5t19.5 25.5t24 23t21.5 23q41 54 41 124q0 48 -26 87.5t-66 67t-88 42.5t-91 15q-49 0 -98.5 -13.5t-90 -40.5t-66 -68.5t-25.5 -96.5q0 -33 11 -60.5t29 -51.5t39.5 -46t42.5 -44 q6 -7 13 -17.5t7 -20.5q0 -17 -10.5 -28.5t-25.5 -20.5t-31 -17t-26 -17q-14 -12 -28 -27.5t-25.5 -33.5t-18.5 -37.5t-7 -39.5h10q4 12 9 24.5t12.5 23.5t18 18t25.5 7q14 0 25.5 -6.5t22.5 -13.5zM127 186v2q0 9 13.5 14t20.5 5q28 0 56 -11.5t53.5 -28.5t48.5 -36t43 -34 t48.5 -20.5t52.5 -7.5v-2q0 -7 -10 -13t-23.5 -10t-26 -6t-16.5 -2q-45 0 -78 17.5t-61.5 41.5t-56.5 49.5t-64 41.5zM162 192q0 -7 4.5 -8.5t9.5 -5.5q21 -18 44.5 -41t50 -42.5t55 -33t60.5 -13.5q5 0 17 2.5t12 8.5v2q-35 7 -66.5 28.5t-61.5 44.5t-60.5 40.5t-64.5 17.5 zM390 419q0 22 11.5 39.5t26.5 34t30 33.5t21 37q7 20 7.5 43.5t1.5 41.5h4q8 -8 18.5 -19.5t20 -25t16 -28.5t6.5 -30q0 -33 -16.5 -57.5t-37 -47t-39 -46t-21.5 -54.5h-2q-7 0 -15 9t-15 22t-12 26t-5 22zM74 542q0 16 7.5 35.5t17 36t19 27.5t13.5 11h4q2 -27 5.5 -55 t19.5 -51q9 -14 26 -29t33.5 -32.5t29 -36.5t12.5 -40q0 -6 -4.5 -17t-11.5 -21.5t-15 -18t-14 -7.5q-2 0 -10 9t-17.5 20.5t-18 22t-10.5 13.5q-13 14 -28 28.5t-28 31t-21.5 34.5t-8.5 39zM91 540q0 -25 14 -48t33.5 -44t41 -40t36.5 -36h4q4 0 8.5 4.5t8.5 11t6 13 t2 10.5q0 12 -12.5 30t-29.5 36.5t-34 36t-25 28.5q-11 14 -15 36.5t-6 36.5q-15 -11 -23.5 -33.5t-8.5 -41.5zM406 417q0 -4 1 -10.5t3.5 -12.5t6.5 -10t10 -4q1 0 4 3.5t7 9t7.5 11t5.5 9.5q9 11 24.5 26.5t29.5 33t24.5 36t10.5 35.5q0 9 -4 18.5t-10 18.5t-13 17t-13 13 q-1 -14 -2 -30.5t-6 -30.5q-6 -17 -20 -33t-29 -31.5t-26 -32.5t-11 -36z" />
<glyph unicode="M" horiz-adv-x="1101" d="M75 106q14 0 33.5 -17t39 -38t35 -38t21.5 -17t8 4q35 52 80 104t85 105t67.5 108.5t27.5 116.5q0 55 -8.5 107.5t-16.5 106.5v8q0 15 10.5 32t27.5 17q21 0 34.5 -16.5t22 -43t13 -58.5t6.5 -63.5t2.5 -59t1.5 -43.5v-210q0 -2 0.5 -9t1 -15.5t1.5 -15.5t1 -9v-9 q0 -7 -1.5 -14t-6.5 -9q-15 12 -34 29t-36.5 32t-31 25.5t-16.5 10.5q-2 0 -10.5 -9t-18.5 -22l-20 -26t-16 -20q-5 -15 -20.5 -33t-32.5 -36t-30.5 -34t-13.5 -27q0 -8 6 -8q8 0 18 14t20.5 30.5t21 30.5t21.5 14h2q29 -24 60 -52.5t62 -52.5h4l8 8q3 4 12 15t18.5 23.5 t18.5 23t12 15.5q4 16 21 30.5t27 26.5q34 40 61.5 75.5t47 73t30.5 81.5t11 101q0 38 -4 76t-4 76q0 13 3.5 28t11 28.5t19 22.5t27.5 9q19 0 27.5 -20t12 -47t4.5 -53t4 -38q4 -14 15 -23.5t22 -17.5q7 -5 22.5 -8.5t31 -6t27.5 -5.5t12 -6v-2q-5 -5 -15.5 -9.5 t-22.5 -8.5t-23.5 -8t-19.5 -7q-39 -16 -61 -38t-33 -50.5t-13.5 -62.5t-2.5 -73q0 -50 5.5 -84.5t18 -59t33 -43.5t49.5 -38h4q1 1 4 2t4 2l170 129v13q-7 0 -13 -4t-12 -8.5t-13 -8.5t-15 -4q-18 0 -29.5 11.5t-18 30t-9.5 42t-4 46.5t-0.5 43.5t0.5 33.5v25q0 26 3.5 53 t17.5 47q7 10 22.5 15.5t31 9.5t27.5 7t12 9v4q-8 1 -17.5 2t-18.5 4.5t-15.5 9.5t-9.5 16q0 7 -0.5 26t-1 39.5t-1.5 39t-1 25.5v12q-17 47 -53.5 66t-84.5 19q-29 0 -55.5 -9.5t-49.5 -26.5q-5 -4 -10.5 -12.5t-11.5 -17.5t-11 -16t-9 -7q-5 0 -14 10t-21.5 23.5t-27 27 t-28.5 20.5q-16 8 -37 10t-38 2q-29 0 -60.5 -6.5t-51.5 -29.5q-2 -3 -7.5 -12t-12 -19.5t-11.5 -18.5l-5 -8q-1 0 -2 0.5t-2 0.5q-38 45 -82.5 69t-106.5 24q-47 0 -85.5 -19.5t-65.5 -52t-42 -74t-15 -85.5q0 -22 3 -44t17 -41q9 -12 27.5 -24t37 -24.5t32 -26t13.5 -28.5 q0 -16 -16.5 -25.5t-36.5 -15t-36.5 -9t-16.5 -6.5q0 -5 5.5 -8t8.5 -3q28 0 58 12t55 32t40.5 46.5t15.5 55.5v12q0 38 -11.5 63.5t-29.5 43t-38 29t-38 22t-29.5 22t-11.5 29.5q0 13 6 23.5t15.5 18.5t21 12.5t23.5 4.5q13 0 22 -1t21 -8q30 -28 49 -61t29.5 -71.5 t14.5 -82t4 -92.5v-102q0 -5 0.5 -24.5t1.5 -42t1.5 -42t0.5 -24.5v-3q0 -6 -8 -6q-1 0 -2.5 0.5l-1.5 0.5l-105 97l-2 0.5t-4 0.5q-3 0 -14 -11.5t-24.5 -28t-28 -35t-24.5 -31.5q-8 -10 -18.5 -20t-20.5 -20.5t-16.5 -22t-6.5 -24.5q13 0 21 9t14 20.5t13 20.5t18 9z M840 233q0 35 4 62.5t15 50t32 40t54 31.5q4 0 4 -4v-4q0 -2 -1.5 -8t-2.5 -8v-93q0 -37 1.5 -73.5t6.5 -72.5q2 -12 9.5 -25t7.5 -24q0 -3 -8.5 -10t-18 -14.5t-18 -13.5l-8.5 -6h-8q-1 0 -5.5 4t-10.5 10l-12 12t-9 10q-23 29 -27.5 60.5t-4.5 66.5v9zM419 126 q7 8 15.5 18t16.5 18q14 -17 32.5 -31t32.5 -30v-2q0 -4 -3 -10t-7 -11.5t-9 -9.5t-9 -4q-6 0 -15.5 7.5t-20 18t-19.5 21t-14 15.5zM131 132q0 2 4.5 9t10 14.5t11.5 13.5t9 6l67 -62v-8q-2 -2 -6 -7t-9.5 -10.5t-10 -10.5t-7.5 -8h-4q-9 7 -20 16.5t-21 18.5t-17 16.5 t-7 11.5zM852 233q0 -44 10 -81.5t47 -66.5q1 0 3 -0.5t3 -0.5q8 0 19 9t11 18v6q0 3 -1 10.5t-2.5 16t-2.5 16t-2 10.5l-8 215h-4q-7 0 -10.5 -3.5t-9.5 -8.5q-34 -30 -43.5 -63t-9.5 -77zM443 126q1 -2 7 -8l12.5 -12.5t13.5 -11.5t10 -5q6 0 6 9l-33 40h-3q-5 0 -9 -2.5 t-4 -7.5v-2zM152 130q5 -5 12.5 -11.5t14.5 -12.5t12 -9.5l5 -3.5h2q6 0 8.5 5t2.5 10q0 4 -5 10t-12 12t-14 11.5t-10 8.5h-4q-1 0 -5.5 -6t-6.5 -10l-1 -2q0 -1 0.5 -1.5zM556 727q54 0 87.5 -23t52 -58t25 -76.5t6.5 -77.5v-21q0 -38 -7.5 -71t-21.5 -68q-3 -8 -15 -29 t-27 -42.5t-29.5 -38t-23.5 -16.5h-1t-1 1l-12 368q0 3 -1.5 15t-3.5 26.5t-4 28t-3 19.5q-2 13 -11.5 30.5t-9.5 32.5zM229 717q-1 0 -1 2q0 5 6 5.5t11 0.5q28 0 54.5 -13t46.5 -32q31 -29 49 -55t27 -54.5t11 -61t2 -74.5v-22q-3 -3 -5 -9.5t-3.5 -13t-2.5 -11.5t-1 -6 q-6 -22 -20.5 -45.5t-30 -44.5t-30 -38t-20.5 -26h-4q0 11 -0.5 39t-1 59.5t-1.5 60t-1 39.5q-2 42 -4.5 82.5t-11 78.5t-24.5 72.5t-45 66.5zM580 709q0 -1 3.5 -16t7.5 -34.5t7 -40t3 -31.5l14 -348q12 0 24.5 19t23 41t17 37t6.5 8q12 33 20.5 66t8.5 65v17q0 30 -2.5 56 t-10 48.5t-22 43t-38.5 40.5q-14 12 -28.5 20.5t-33.5 8.5zM269 702q0 -1 5 -12.5t12 -25.5t12.5 -28t7.5 -21q15 -87 19.5 -175.5t4.5 -176.5h4l4 4q13 16 28 36t28 41.5t21 44t8 45.5q0 35 -4 69.5t-14.5 66t-29.5 58.5t-49 48q-13 9 -26.5 17.5t-30.5 10.5v-2zM62 537v8 q0 6 1 12t6 6h2q20 -9 42.5 -21t41 -27.5t30.5 -36t12 -46.5q0 -6 -2.5 -18.5t-12.5 -12.5q-6 0 -14.5 7t-11.5 9q-17 12 -34 23.5t-30.5 25.5t-21.5 31t-8 40zM74 539q0 -21 10 -38t25.5 -31t33.5 -25t33 -20h2q6 0 6 8q0 15 -11.5 33.5t-28 34.5t-36 27t-34.5 11zM880 715 q0 4 3 5t6 1h6q33 0 53 -14.5t30.5 -37t13.5 -50t3 -52.5q0 -7 -0.5 -21t-0.5 -16l-4 -4q-41 0 -60.5 15.5t-28 40t-10.5 55t-7 59.5q0 2 -1.5 8.5t-2.5 8.5v2zM898 705q0 -21 1.5 -49.5t9.5 -53.5t25 -42.5t49 -17.5q0 19 -1.5 47t-10 54t-25.5 44t-48 18z" />
<glyph unicode="N" horiz-adv-x="850" d="M69 102l2 -1q7 0 24 -17t36.5 -38t37.5 -38t27 -17q1 0 2.5 0.5l1.5 0.5l195 190q8 11 19.5 21t16.5 20q37 51 47 113.5t10 123.5q0 38 -2.5 75.5t-2.5 75.5q0 13 2.5 28t9 28t17 21.5t26.5 8.5q18 0 26.5 -12.5t12.5 -32.5t7 -44t9.5 -47.5t19.5 -43.5t37 -31 q4 -2 14.5 -5t22 -6t21 -6.5t10.5 -6.5q-5 -7 -14.5 -12t-19.5 -8t-19.5 -5t-14.5 -4q-47 -17 -72.5 -36.5t-37.5 -45.5t-14 -60.5t-2 -82.5v-37q0 -24 1.5 -42.5t7.5 -35.5t18.5 -33.5t33.5 -35.5q11 -9 23 -18.5t28 -9.5q9 0 27.5 11t38.5 26t39 30t30 22q7 6 17 11 t18 10.5t14 11.5t6 13q-17 0 -30.5 -9t-30.5 -9q-21 0 -34 11t-19.5 28.5t-8.5 38t-2 40.5q0 13 0.5 24t0.5 19v17q0 21 1.5 49.5t8 54t20.5 45t39 22.5q20 2 35.5 2.5t33.5 5.5v4q0 6 -4 8q-22 0 -35 5.5t-20 14.5t-9 21.5t-2 27.5q0 10 0.5 20.5t0.5 21.5v14 q-2 31 -14.5 56.5t-33 43.5t-47 28t-56.5 10q-39 0 -71 -10.5t-57 -42.5q-3 -4 -5.5 -11t-5.5 -14t-6 -13.5t-8 -9.5q-14 11 -25.5 29t-22.5 32q-11 12 -30.5 20t-42 13.5t-44 8t-34.5 2.5q-46 0 -91 -14t-80 -40.5t-57 -65.5t-22 -90q0 -35 11 -66.5t38 -55.5 q9 -8 24.5 -16t31 -17t27 -19.5t11.5 -24.5q0 -22 -16 -32t-35.5 -16t-35.5 -11t-16 -16q35 0 70 13t62.5 36.5t45 55t17.5 68.5q0 35 -12 58t-30 38.5t-39 26.5t-39 22t-30 25t-12 35q0 29 23 45.5t50 16.5q28 0 48.5 -16.5t35 -41.5t24 -54t15 -54.5t8 -44t2.5 -20.5 q2 -20 3 -36.5t1.5 -37.5t0.5 -51v-74v-23v-35t-0.5 -35.5t-0.5 -23.5v-6q0 -5 -1.5 -16t-8.5 -11q-12 11 -30.5 28.5t-36 34t-32 28.5t-19.5 12q-1 0 -3 -0.5l-2 -0.5l-154 -158q-3 -3 -4 -8t-1 -9q11 0 19.5 8t15.5 17t13 17t12 8zM556 184v16q0 27 1.5 54t9 51t23 44 t43.5 32q10 4 20.5 8.5t21.5 4.5q0 -28 -2.5 -54.5t-2.5 -54.5v-36q0 -15 0.5 -30t1 -31.5t2.5 -37.5q0 -6 3.5 -15l7 -18t6.5 -16.5t3 -9.5v-2q-1 -1 -10.5 -8.5t-23 -18.5t-22.5 -17q-1 0 -1.5 -0.5t-1.5 -0.5q-79 47 -79 140zM131 113v9l41 40h8q2 0 10 -6.5t18 -16 t19 -19t14 -15.5v-4q0 -3 -6 -10t-14 -14.5t-15 -13.5t-10 -6h-8zM656 370q-15 0 -30 -10t-27 -25t-19 -32.5t-7 -31.5v-121q0 -12 6 -23.5t15 -22.5t18.5 -20t16.5 -15h4q4 0 10.5 2.5t12.5 6t10 8t4 9.5v2q-6 30 -9 64.5t-4 70t-1 70.5v68zM156 113q2 -2 6.5 -7.5t10 -11 t12 -9.5t12.5 -4q8 0 14 6t6 14q0 4 -5 10t-12 12t-14 10.5t-10 4.5q-8 0 -14.5 -6t-6.5 -14q0 -1 0.5 -2.5t0.5 -2.5zM256 713q99 0 149.5 -64.5t50.5 -184.5q0 -51 -12 -109t-45 -100l-15 -17.5t-18 -20t-16 -16.5t-8 -7h-4q0 72 0.5 142t-4.5 134t-18.5 119t-42.5 99 q-1 2 -8 10.5t-8 10.5zM293 688q39 -82 48 -170.5t9 -178.5v-108q51 42 72.5 106.5t21.5 127.5q0 42 -6.5 79t-23.5 67t-46.5 52t-74.5 33v-8zM54 532q0 4 0.5 10.5t2 13t4 12t6.5 7.5q17 -16 42.5 -28.5t49.5 -27.5t41 -34t17 -48q0 -4 -1.5 -13.5t-4.5 -19t-7 -17 t-10 -7.5q-2 0 -5 3.5t-6.5 8t-6.5 8.5t-4 5q-16 13 -36.5 25t-38.5 26t-30.5 32t-12.5 44zM68 543q0 -23 10 -40.5t25 -31t33.5 -23.5t35.5 -19q2 -1 11 -8.5t11 -7.5q5 0 8 6t3 10q0 23 -13.5 40.5t-33 31t-41.5 23.5t-38 19h-11zM605 705q0 3 3 3.5t6 0.5h3 q23 0 42.5 -9.5t34.5 -25t25.5 -35.5t15.5 -40q0 -5 0.5 -17t1 -25.5t1.5 -25.5t1 -17v-9q-47 0 -70 16.5t-33.5 43.5t-14.5 60.5t-12 66.5q0 2 -2 6.5t-2 6.5zM625 688q0 -23 4 -51.5t15 -54t30 -43t51 -17.5q0 46 -9 82.5t-46 67.5q-8 6 -18 11.5t-21 5.5l-2.5 -0.5 t-3.5 -0.5z" />
<glyph unicode="O" horiz-adv-x="838" d="M96 158q27 0 51 -11t47 -27t44.5 -33.5t42.5 -29.5q19 -11 42.5 -22t48.5 -19.5t50 -14t47 -5.5q78 0 140.5 29t108 77.5t72.5 113t34 136.5q3 4 3.5 6t0.5 6q0 170 -84 269.5t-252 123.5q-16 2 -31 5t-31 3q-57 0 -118 -14.5t-112 -45.5t-84 -78.5t-33 -113.5 q0 -28 11 -50.5t23.5 -42.5t23.5 -40t11 -42q0 -13 -10 -24t-23 -11q-21 0 -35.5 10.5t-25 26.5t-17 34.5t-11.5 34.5q0 4 -4 4h-2q-6 0 -6 -8q0 -28 10.5 -51.5t28.5 -40t42 -25.5t51 -9q52 0 94.5 20t69.5 65l5 10t3 7v77q0 22 -13.5 45t-29.5 47t-29.5 48t-13.5 48 q0 9 3.5 23t11 27.5t19.5 23t29 9.5q4 0 7.5 -0.5t3.5 -5.5v-2q0 -2 -2 -10t-4.5 -17t-4.5 -16.5t-2 -9.5v-8q0 -47 28 -72.5t70 -36.5q23 1 47.5 1.5t50.5 0.5q50 0 99 -5.5t91 -23.5t72.5 -52t44.5 -91v-39q0 -49 -10 -90t-33 -71t-59.5 -47t-89.5 -17q-52 0 -96 23 t-86.5 50.5t-87.5 50.5t-99 23q-22 0 -46 -3t-45 -10q-21 -6 -45.5 -23t-45.5 -39.5t-35 -48.5t-14 -50q7 0 14 10.5t16 23.5t22.5 23.5t35.5 10.5zM140 194q0 1 -0.5 1.5l-0.5 0.5q0 7 13.5 13t31.5 10t35.5 6t24.5 2q28 0 55 -10.5t52.5 -26.5t49.5 -33.5t46 -30.5 q36 -23 80 -33.5t86 -11.5v-4q0 -2 -14 -9t-34 -14t-41 -12.5t-36 -5.5q-48 0 -90.5 14.5t-83.5 38.5q-22 13 -42.5 28t-41.5 30t-43 27.5t-47 19.5zM184 201q0 -5 4.5 -9t10.5 -7.5t12 -6t10 -4.5q30 -20 61 -42t64 -41t68 -31t74 -12q17 0 34 6.5t31 14.5q-13 9 -28 13.5 t-30.5 8.5t-31 9t-28.5 13q-16 10 -40.5 27.5t-51 34t-53 28.5t-47.5 12q-4 0 -13.5 -1.5t-19.5 -3.5t-18 -4.5t-8 -4.5zM188 328q-1 23 -5 47.5t-15 45.5q-7 12 -15.5 23.5t-16 23.5t-12.5 25t-5 28q0 20 10.5 42.5t24 41t26 31t16.5 12.5h4q1 -12 1.5 -29.5t6.5 -31.5 q7 -16 21 -37.5t27.5 -45t23.5 -45.5t10 -40q0 -12 -11 -28t-26.5 -31t-32 -25.5t-26.5 -10.5h-2q-1 0 -2 1.5t-2 2.5zM135 518q0 -12 5 -23t12 -21.5t14.5 -20.5t13.5 -20q11 -19 14.5 -41.5t5.5 -43.5h4q9 0 20.5 8.5t22.5 20.5t18.5 24t7.5 20q0 18 -12.5 41.5t-28 48.5 t-29.5 51t-17 50q-7 0 -15.5 -12.5t-16.5 -29t-13.5 -31.5t-5.5 -21zM427 583q-14 4 -30 10t-29 15.5t-21.5 22.5t-8.5 31v6q2 16 4.5 28t8 19.5t15.5 11t28 3.5q52 0 101.5 -9t93.5 -29.5t82.5 -53t67.5 -79.5q1 -2 2.5 -4.5t1.5 -3.5v-4q-25 6 -42 12.5t-39 12t-56.5 9 t-95.5 3.5q-26 0 -50 -0.5t-33 -0.5zM439 595q24 1 47 1.5t46 0.5q42 0 81 -3t81 -11h8q-50 62 -125 98t-156 36q-14 0 -26 -0.5t-21 -5t-14.5 -16.5t-5.5 -34q0 -15 9 -26.5t22 -19t28 -12.5t26 -8z" />
<glyph unicode="P" horiz-adv-x="854" d="M167 138q8 0 25.5 -3.5t36 -9t35 -13t21.5 -15.5l4 -4q1 0 4 -21.5t8 -53t11 -69t13 -69t14.5 -53t14.5 -21.5h32q2 0 5.5 9.5t7.5 21.5t7 23t5 15q1 3 5.5 12.5t6.5 11.5l32 113q4 13 15 13t21 -4t20.5 -8.5t21.5 -8.5t23 -4q51 0 100.5 30.5t88.5 77.5t63 103.5 t24 109.5q0 28 -8 45.5t-22 29t-34 19.5l-45 18q-8 5 -10.5 8.5t-2.5 10.5q0 6 5 11.5t12 6.5l113 16q1 0 2 1.5t2 2.5v4q-1 1 -2 2.5t-2 1.5h-53q-17 0 -21 15t-4 32q0 26 5 50.5t5 50.5q0 36 -13.5 58t-35 34t-48 16t-52.5 4q-29 0 -51 -4.5t-48 -16.5q-10 -4 -19.5 -16 t-17.5 -24.5t-14 -22.5t-8 -10h-2q-18 14 -31.5 32t-36.5 29q-38 19 -76 24t-80 5q-45 0 -86.5 -14t-73 -40t-50.5 -63.5t-19 -84.5q0 -18 4.5 -38t12.5 -39t20.5 -35.5t27.5 -26.5q7 -5 20.5 -10.5t27 -13.5t23.5 -17.5t10 -21.5q0 -16 -12.5 -24t-27.5 -13t-27.5 -10.5 t-12.5 -15.5q31 0 61 14t54 37t39 52.5t15 61.5q0 33 -13 63.5t-40 51.5q-12 10 -29 19.5t-32 21.5t-25.5 26.5t-10.5 34.5q0 16 8 26t20.5 16t27 8t27.5 2q33 0 54 -16.5t33 -43t16.5 -60t5.5 -68t0 -67t-1 -55.5v-25t-0.5 -38.5t-0.5 -38.5v-25q-2 -5 -13 -8t-24.5 -5.5 t-26 -4.5t-17.5 -3q-27 -8 -47.5 -28.5t-34.5 -47.5t-21 -56.5t-7 -54.5q7 0 11 9.5t10.5 21.5t18 21.5t33.5 9.5zM322 126l-4 4q-10 7 -26.5 14.5t-36 14t-40 11t-39.5 4.5q-4 0 -4 4q0 1 1.5 4l2.5 5q15 17 30.5 27t33 16t36.5 9t42 8v324q0 27 -3.5 55.5t-13.5 53.5 q-3 11 -7.5 19t-4.5 19q27 0 48 -11t39 -25.5t33.5 -29.5t29.5 -24l4 -4v-425q0 -9 9.5 -18.5t23 -18.5t27 -16.5t21.5 -11.5q13 -8 29 -17t30.5 -17.5t25 -15t12.5 -7.5v-2q0 -9 -7.5 -15.5t-18 -11t-21 -6.5t-16.5 -2q-15 0 -24.5 3t-25.5 14h-77q-2 0 -5 -6l-3 -6 l-32 -114q-3 -3 -6 -11t-6 -16.5t-5.5 -15t-5.5 -6.5q-2 0 -5 13t-7.5 34t-9 47.5t-9 53.5t-8.5 52.5t-7 43.5zM334 138q2 -11 6.5 -37t9.5 -56t9.5 -56.5t6.5 -36.5q2 -4 3 -11.5t3 -5.5q1 0 3.5 2t2.5 7l33 113l3 6t5 6h101q4 -2 18 -8t19 -8h4q8 4 20 8.5t12 7.5v2 q0 3 -12 10.5t-30 18t-39 22t-39 23.5t-30 23t-12 19v429q-9 0 -21 12.5t-27 26.5t-31.5 26t-34.5 12q0 -27 6.5 -54t6.5 -56v-344q0 -4 -19.5 -7.5t-43.5 -9t-43.5 -13.5t-19.5 -20v-2q42 -8 75.5 -21t50.5 -24zM476 231q0 3 -0.5 12t-0.5 19v19v13q0 74 2.5 146t2.5 147 v25q1 16 5 35t11.5 35.5t20.5 27.5t34 11q18 0 25.5 -11.5t9.5 -29.5t2 -41t2 -45t9.5 -42t25.5 -33q3 -2 15 -8t25 -12t23.5 -11t10.5 -6q0 -5 -21.5 -10t-48 -17t-48 -36t-21.5 -68q0 -8 4 -18t10 -20t13 -18t14 -11l113 -61q19 -10 28 -26.5t9 -36.5q0 -22 -17.5 -40.5 t-40.5 -18.5q-26 0 -61.5 21t-74.5 44l-22.5 12.5t-26 15.5t-22 17.5t-10.5 19.5zM747 255l-114 61q-10 6 -19 17.5t-13 23.5v2q0 11 6 23t16 21.5t22 16t23 6.5q7 0 11 -10t11 -15q15 -6 33.5 -13t34.5 -17t27 -24t11 -34q0 -5 -2 -16.5t-5.5 -23.5t-9 -21t-12.5 -9 t-11 3.5t-9 8.5zM621 365q0 -16 15 -29.5t36.5 -25.5t46.5 -23t46 -20q3 0 6.5 6t6 14t4 16t1.5 11q0 16 -10.5 26.5t-26 18.5t-34 15t-34.5 15q-5 3 -10.5 8t-11.5 5q-12 0 -23.5 -12.5t-11.5 -24.5zM46 555v4q1 6 3.5 14t5 15t5 11.5t3.5 4.5h4q20 -17 44 -33t45 -32.5 t35 -35.5t14 -42q0 -5 -1.5 -14.5t-4.5 -18.5t-7 -16t-10 -7h-2q-21 10 -45 24.5t-43.5 33t-32.5 42t-13 50.5zM62 553q0 -16 11.5 -37t29 -40.5t37 -33t35.5 -13.5q8 0 12.5 12t4.5 19q0 11 -16 30.5t-37 38t-41 32.5t-29 14h-2q-3 -8 -4 -12t-1 -10zM621 726q14 0 34.5 -6 t39 -16.5t31.5 -25.5t13 -32q0 -10 -3 -30.5t-6.5 -41t-7 -36t-4.5 -15.5q-16 0 -33 9t-31.5 23t-23.5 31t-9 34v106zM632 709v-15t0.5 -23.5t0.5 -23.5v-15q1 -11 7 -26t15.5 -28.5t21.5 -22.5t25 -9q4 0 8 11.5t7 27.5t4.5 31.5t1.5 23.5q0 12 -10 24.5t-24 22.5t-29.5 16 t-27.5 6z" />
<glyph unicode="Q" horiz-adv-x="967" d="M120 122q15 0 27 -3.5t23 -9.5t22 -13.5t24 -14.5q26 -15 54.5 -30.5t58.5 -28.5t61 -21.5t63 -8.5h2q10 1 26.5 3t32.5 4l28 3.5t14 1.5q28 4 53.5 15.5t49 27.5t44.5 35t39 39q5 5 9 12t8.5 13t9.5 10.5t13 4.5q0 -14 -1 -29.5t-1 -31.5q0 -20 2.5 -38.5t11 -33 t24.5 -23.5t42 -9q30 0 49.5 20t30 48.5t14.5 59.5t4 52q0 4 -0.5 17t-0.5 18v3q0 10 -8 10q-4 0 -6 -16t-7.5 -35.5t-16 -35.5t-31.5 -16q-25 0 -39 14.5t-20.5 35.5t-8 43.5t-1.5 39.5q0 33 2.5 65.5t2.5 65.5q0 91 -32.5 160.5t-88 116.5t-129.5 71t-158 24 q-54 0 -116.5 -15.5t-116.5 -46t-89.5 -76t-35.5 -104.5q0 -32 14.5 -60t32.5 -52.5t32.5 -47t14.5 -44.5q0 -13 -6.5 -26.5t-23.5 -13.5q-24 0 -42 12.5t-30.5 31.5t-20.5 41t-11 41q-3 5 -9 5q0 -30 9.5 -58t27 -49.5t43 -35t57.5 -13.5q31 0 62.5 12.5t56.5 34.5t41 50.5 t16 61.5q0 36 -16.5 64.5t-36.5 54t-36.5 51.5t-16.5 58q0 12 4 26.5t12 27.5t19.5 21.5t25.5 8.5q8 0 8 -7q0 -15 -6 -29.5t-6 -30.5q0 -25 10 -45t27 -34t38.5 -21.5t45.5 -7.5h166q45 0 89 -10t78 -32t55 -57.5t21 -85.5q0 -43 -10 -85.5t-32.5 -77t-58 -56t-85.5 -21.5 q-47 0 -89.5 19t-84 42t-84.5 42t-90 19q-33 0 -66.5 -8t-63.5 -23.5t-55.5 -38.5t-41.5 -52q-8 -15 -16.5 -29.5t-8.5 -32.5q9 0 15.5 10.5t16 23t25.5 23t46 10.5zM152 158v4q6 5 19 11.5t28.5 12t33 9.5t32.5 4q24 0 47.5 -7.5t46 -18t43.5 -22.5t41 -21q45 -21 86.5 -34 t91.5 -15v-2q0 -13 -20.5 -22t-47 -15t-52 -9.5t-34.5 -4.5h-4q-47 -1 -90 18.5t-82 43.5t-73.5 44.5t-65.5 23.5zM814 102q18 0 36 -8.5t46 -8.5v-12l-32 -32q0 -1 -3 -1h-4q-11 0 -19.5 6.5t-13.5 15.5t-7.5 20t-2.5 20zM195 164q0 -3 5.5 -3.5t7.5 -2.5q29 -16 59 -36 t62 -37t65.5 -29t68.5 -12q28 0 56.5 5t53.5 20q-70 14 -132.5 45t-126.5 60q-31 13 -50 13t-35 -6t-33 -15zM838 73q0 -6 7.5 -11t12.5 -5l14 16h-34zM99 514q0 18 8 36.5t20 32.5l13.5 13.5l16 16t13.5 13l6 5.5h4q1 -14 1.5 -30t6.5 -30q9 -19 25 -39.5t32 -42t28 -42.5 t12 -42q0 -19 -12.5 -37t-28.5 -32.5t-29.5 -23t-14.5 -8.5h-12v11q0 32 -14 56.5t-30.5 46.5t-30.5 44.5t-14 51.5zM114 514q0 -24 13.5 -44t29.5 -40t29.5 -42.5t13.5 -51.5l2 -8q9 0 19.5 9t20 21.5t17 24.5t10.5 18v4q0 9 -6 21.5t-10 18.5q-13 19 -27.5 36.5t-26.5 36 t-20.5 38t-10.5 43.5h-4q-3 0 -11 -9t-16.5 -21.5t-15.5 -27.5t-7 -27zM309 650q0 30 10 44.5t25 20.5t31 6h31h23q43 0 87 -11.5t84.5 -32.5t75 -52t58.5 -70q0 -3 -4 -5h-4q-35 14 -64 19.5t-69 5.5h-166q-14 0 -34 4.5t-39 14t-32 23.5t-13 33zM403 591q10 0 32 -0.5 t49.5 -1.5t58 -2t58 -2t49.5 -1.5t32 -0.5h8q-3 9 -10 16t-14 12q-27 19 -54.5 37t-56.5 31.5t-60.5 21.5t-65.5 8h-25t-22 -1.5t-22.5 -4t-25.5 -7.5q-2 -15 -3 -24t-1 -22v-11q17 -19 32.5 -30t40.5 -18z" />
<glyph unicode="R" horiz-adv-x="850" d="M557 110q3 -17 12 -37t21 -38t27.5 -30t32.5 -12q9 0 25 9t33 21.5t33.5 24.5t25.5 18q11 6 23.5 14t23 15.5t17.5 15.5t7 14q-9 0 -17 -3.5t-15.5 -8t-15.5 -8t-18 -3.5q-15 0 -22 10.5t-10 27t-2.5 35t0.5 35.5q0 38 2.5 76t2.5 76q0 17 -8.5 35.5t-16.5 32.5v6 q0 6 2.5 9t10.5 3h101q6 0 8.5 6.5t2.5 10.5q-12 0 -25 1t-23.5 5.5t-17 13.5t-6.5 25q0 18 2 36t2 36q0 34 -10.5 66t-30 56.5t-48.5 39t-66 14.5q-19 0 -40 -3.5t-40 -11t-35 -20t-25 -30.5q-1 -2 -3 -7.5t-4.5 -12t-6 -12.5t-7.5 -8q-11 8 -16.5 21.5t-15.5 22.5 q-35 35 -86 50.5t-99 15.5q-42 0 -83.5 -15.5t-74.5 -42.5t-53.5 -64.5t-20.5 -82.5q0 -29 6 -58.5t26 -53.5q9 -11 26 -21.5t33 -22t28 -23.5t12 -26q0 -17 -16 -26.5t-35.5 -15.5t-35.5 -9t-16 -7l4 -6q2 -1 7 -1h8q35 0 66.5 12t55 34t37 52t13.5 66q0 30 -11 51.5 t-27 37.5t-35.5 28.5t-35.5 24.5t-27 25.5t-11 32.5q0 33 24 47.5t54 14.5t51 -18t35 -46t22 -61t11.5 -63.5t4.5 -53.5t1 -30v-263q0 -25 -5 -53.5t-17 -52.5t-32.5 -40t-50.5 -16q-10 0 -22 3t-22.5 9t-17.5 15.5t-7 21.5q0 16 12 24q37 3 63.5 20t26.5 58q0 32 -24 54 t-56 22q-33 0 -62.5 -14.5t-40.5 -50.5v-32q0 -35 12.5 -62.5t34 -46t50.5 -28t63 -9.5q30 0 60 8.5t56 23.5q45 27 75.5 63t50.5 77.5t32 88t20 95.5q1 5 2.5 20.5t1.5 20.5l4 4l5.5 0.5t7.5 0.5q23 0 34.5 -9.5t17.5 -32.5v-40q0 -27 -2.5 -53.5t-2.5 -53.5 q0 -5 0.5 -19.5t1.5 -31t2 -32t1 -21.5zM589 143v101q0 16 0.5 40.5t1.5 48t1.5 40.5l0.5 17l8 8l73 12q2 0 7 -8t10.5 -18t10 -19.5t4.5 -11.5v-243q1 -2 2.5 -10t1.5 -10l1 -2q0 -4 -8.5 -11t-19 -14t-21 -12.5t-14.5 -5.5q-1 0 -1.5 0.5l-0.5 0.5q-25 20 -38 43.5 t-19 53.5zM601 190q0 -26 4 -52t20 -48q5 -5 14 -14.5t11 -9.5h4l6 3.5t12.5 8t12 8t5.5 4.5q0 13 1 46.5t1.5 71t1 71t0.5 46.5v16q-1 3 -4.5 10t-7 15t-7.5 14.5t-5 9.5l-6 4h-2l-38.5 -7t-18.5 -5q-1 -29 -2 -53t-1.5 -46.5t-0.5 -45.5v-47zM253 722v6q19 0 39.5 -6 t40 -15.5t36.5 -22.5t30 -27q6 -7 14 -15.5t15.5 -15.5t13 -11.5t5.5 -2.5q2 -44 3.5 -89.5t1.5 -80.5q0 -9 -1 -20.5t-1.5 -21t-1.5 -15t-1 -3.5q-8 -45 -16 -83t-21.5 -72t-35 -65.5t-56.5 -63.5v377q0 66 -15 128.5t-50 118.5zM66 140q0 11 5 22.5t13 20.5t19 15t22 6 q7 0 15.5 -3t15.5 -8.5t11.5 -12.5t4.5 -15q0 -14 -10 -21.5t-23.5 -11.5t-27 -5.5t-20.5 -3.5q-1 -1 -6 -4.5t-6 -4.5h-2q-8 0 -9.5 8.5t-1.5 14.5v3zM115 187q-4 -3 -10 -8.5t-12 -12t-10.5 -14.5t-4.5 -15q6 0 18 0.5t24.5 3.5t22 9t9.5 17q0 9 -10.5 15t-18.5 6 q-1 0 -4 -0.5t-4 -0.5zM285 701q13 -20 22 -50t14.5 -61t8 -59t2.5 -44v-348h6l4.5 5.5t10.5 13t12 16t9 13.5q24 37 37 82.5t20 87.5q3 11 3 25q0 15 5 20v81q0 7 -0.5 24t-1 36.5t-1.5 36.5t-1 24q-12 0 -19 5t-12.5 12.5t-10 16t-11.5 15.5t-18 15.5t-23.5 16t-25.5 12.5 t-24 5h-3t-3 -1zM46 550v7q0 8 1.5 17.5t9.5 9.5h2q16 -13 38.5 -27t43.5 -30t36 -36t15 -45q0 -10 -3.5 -24t-12.5 -20q-18 16 -41 30t-42.5 30.5t-33 37.5t-13.5 50zM488 442q-3 41 -4 74.5t-1 77.5q0 15 0.5 36t6 39.5t17 31.5t33.5 13q13 0 21 -8t12 -19t5.5 -24 t2.5 -22q2 -29 6 -55.5t15 -50t31.5 -42t56.5 -30.5l4 -6q0 -5 -21.5 -10t-51.5 -9.5t-61.5 -8.5t-51.5 -7q-10 2 -14 6t-6 14zM57 557q0 -20 11 -39t27 -35.5t34.5 -29t34.5 -19.5h4q6 0 7 5t1 10q0 12 -14 30t-33.5 35.5t-39.5 30t-32 12.5zM609 712q0 4 3 5t6 1h6 q25 0 46 -13t36.5 -33t24 -44.5t8.5 -46.5q0 -25 -1 -45.5t-3 -48.5h-4l-43.5 29t-34.5 28.5t-24 36.5t-12 52q0 10 -1 22.5t-2 24t-2.5 20t-2.5 10.5v2zM628 699q0 -26 1.5 -48.5t7 -42.5t17 -38t32.5 -34q7 -6 14 -11.5t16 -5.5h7q2 16 3 30.5t1 29.5q0 18 -8.5 39 t-22.5 39t-31.5 30t-36.5 12z" />
<glyph unicode="S" horiz-adv-x="769" d="M10 399q0 -58 14.5 -114.5t42.5 -106.5t70 -90t96 -64q38 -17 83 -20.5t86 -3.5h33q68 0 125 24t98.5 65t65 97t23.5 119q0 52 -20.5 89.5t-55 61.5t-79 35t-92.5 11q-35 0 -75 -6t-71 -26l-125 -85q-11 -8 -21.5 -10.5t-23.5 -2.5q-29 0 -45 20.5t-16 48.5q0 27 13 45 t32 29t40.5 15.5t38.5 4.5q19 0 30.5 -2.5t20 -6t15 -6t15.5 -2.5q6 0 6 8t-11 13.5t-25.5 9t-28.5 5t-20 1.5q-48 0 -87.5 -23t-54.5 -70v-33q0 -44 16 -77.5t44 -56t65.5 -34t79.5 -11.5q47 0 92.5 15t83.5 43q20 14 39 31t39 31.5t42.5 24.5t49.5 10q37 0 55 -23t18 -59 q0 -35 -18 -58.5t-47.5 -39.5t-66 -24.5t-73.5 -12.5t-70.5 -5t-56.5 -1h-30q-33 0 -69 1.5t-70.5 8t-66 19.5t-56.5 36q-38 35 -59.5 72t-21.5 90q0 45 18 83.5t48 67t69.5 44.5t83.5 16q29 0 56.5 -7t54 -17.5t52.5 -23.5t51 -25q25 -13 54 -15t56 -2q34 0 68 13.5 t61.5 37.5t44.5 56t17 69q-10 0 -16 -9.5t-13.5 -21.5t-17.5 -21.5t-27 -9.5q-20 0 -41 8t-41.5 19.5t-40 24t-35.5 21.5q-41 22 -81 33.5t-87 11.5q-72 0 -135.5 -30t-111.5 -80.5t-75.5 -116t-27.5 -136.5zM117 183q1 0 3.5 -0.5l2.5 -0.5q70 -20 135.5 -26.5t138.5 -6.5 h39q27 0 50.5 0.5t53.5 4.5q30 3 61.5 12t61.5 9q0 -19 -22 -40.5t-53.5 -41t-66.5 -35t-62 -22.5h-50q-44 0 -81 6.5t-69.5 20.5t-63 36.5t-60.5 54.5q-4 5 -11 12.5t-7 16.5zM167 151q0 -13 15.5 -24t29.5 -22q50 -31 97 -44t105 -13q49 0 95 20t84 49q2 2 9 7t14.5 11 t13 11.5t5.5 7.5h-10q-51 -8 -90 -12.5t-83 -4.5h-55h-56t-38.5 1t-30.5 1.5t-31 2.5q-18 2 -36.5 5.5t-37.5 3.5zM196 334v2q17 1 34 3.5t31 12.5l125 85q18 12 38 16.5t39 12.5h35q7 0 23 -1t32.5 -4t30 -8t17.5 -12q0 -1 -5.5 -4t-13.5 -6.5t-16 -7.5t-14 -6 q-27 -16 -53.5 -39t-55 -44t-60.5 -36t-71 -15q-7 0 -26 4.5t-39 11.5t-35.5 16.5t-15.5 18.5zM237 324q19 -12 36 -18.5t39 -6.5q35 0 67 15t62 37t58.5 45.5t57.5 40.5q0 4 4 4q-17 7 -31 10t-32 3q-25 0 -52 -7.5t-47 -21.5l-126 -85q-5 -4 -18 -9t-18 -7zM191 657 q0 10 23.5 23t53 23.5t57.5 18t37 7.5q34 0 65 -11.5t61 -28t59 -34.5t58 -32q1 0 9 -2t17 -5t16 -6t7 -5q0 -9 -13 -16t-29.5 -12t-32.5 -8t-22 -3q-28 0 -54.5 9t-52.5 21.5t-52 26t-52 21.5q-29 9 -60.5 11t-62.5 2h-32zM241 672q46 -3 86.5 -11t83.5 -25q16 -7 34 -16.5 t37 -18.5t38.5 -15.5t37.5 -6.5q4 0 13.5 1t19 3.5t16.5 7t7 10.5l-1 2q-33 10 -63.5 28.5t-61 36.5t-62.5 31.5t-68 13.5q-10 0 -27.5 -3.5t-36 -9.5t-34 -13.5t-19.5 -14.5z" />
<glyph unicode="T" horiz-adv-x="737" d="M84 162q21 0 41 -8.5t38.5 -21t37 -26.5t36.5 -25q35 -21 70 -40t76 -29q16 -2 35.5 -5.5t41.5 -3.5q67 0 123.5 24.5t94.5 81.5q15 23 26.5 44.5t11.5 48.5h-9q-8 -26 -25 -52t-44 -37h-40q-8 0 -16.5 0.5t-16.5 3.5q-15 7 -43 19.5t-55.5 26.5t-48 27t-20.5 21 q0 6 18 18t39.5 30.5t39.5 43.5t18 57q0 34 -18 56t-42.5 39t-51 33t-43.5 39v6q0 18 17 18h8q24 -12 47.5 -24.5t47.5 -23.5t49 -18t53 -7q30 0 56.5 9.5t46.5 27.5t32 43t12 56q0 19 -13 40t-32.5 38.5t-41.5 29t-39 11.5q-8 0 -8 -10v-6q17 -6 37 -15t37 -21.5 t28.5 -29.5t11.5 -38q0 -11 -4 -16.5t-13 -13.5h-16q-22 0 -42.5 11.5t-40 27t-37.5 33t-34 29.5q-29 22 -58.5 40.5t-61 32t-65 21.5t-70.5 8q-44 0 -89.5 -14t-82 -41.5t-60 -68t-23.5 -93.5v-6q0 -4 1.5 -13t2.5 -19.5t2.5 -19.5t1.5 -13q7 -18 21 -32.5t31 -24t36 -15 t37 -5.5q20 0 36.5 2.5t33.5 13.5v2q0 5 -3.5 6t-6.5 1q-16 0 -30.5 -4.5t-31.5 -4.5q-47 0 -77 29.5t-30 74.5q0 29 10 47.5t27 29t39.5 14.5t47.5 4h30q13 -5 40.5 -14t54.5 -19.5t47.5 -21.5t20.5 -21q0 -8 -16.5 -20t-36.5 -29t-36.5 -41.5t-16.5 -58.5q0 -26 11 -44.5 t28 -32.5t36 -24.5t36 -20.5t28 -21t11 -25q0 -8 -5 -14.5t-13 -6.5q-4 0 -12.5 3.5t-20 9t-23.5 11t-23 9.5q-19 6 -31 9t-20.5 3.5t-16.5 0.5h-19q-43 0 -80 -13t-64.5 -37.5t-43 -60t-15.5 -80.5h10q1 13 5.5 28t12.5 28t19.5 21t28.5 8zM119 198v2q0 5 12.5 11t28 11.5 t30.5 9t20 3.5q26 0 54.5 -10.5t56.5 -26t55 -32t51 -28.5q11 -6 28.5 -15t34.5 -17t29.5 -14.5t13.5 -6.5l36 -10q0 -9 -13.5 -15.5t-31 -11t-34 -6.5t-22.5 -2q-38 0 -72.5 11t-66.5 28.5t-63 38t-62 40.5q-20 14 -41.5 21.5t-43.5 18.5zM160 200q0 -1 6.5 -4.5t16 -8 l19 -9t15.5 -8.5q28 -18 57.5 -38.5t60.5 -38.5t64.5 -29.5t68.5 -11.5q3 0 13 1.5t21.5 4t20.5 5.5t10 6q-2 0 -6.5 1.5t-6.5 2.5q-34 16 -65.5 32.5t-63 33.5t-65.5 34.5t-73 37.5q-16 5 -24.5 6.5t-21.5 1.5q-4 0 -12 -1t-15.5 -3t-13.5 -5.5t-6 -9.5zM281 411 q0 7 5 18.5t12.5 22.5t16.5 19t17 8q6 0 21.5 -9t32.5 -20.5t32 -23t21 -17.5q12 -9 22.5 -21.5t10.5 -29.5q0 -6 -4.5 -16.5t-11 -21t-15 -18t-16.5 -7.5q-4 0 -9.5 3.5t-11.5 8.5l-12 10t-9 7q-9 6 -26 15t-34 20.5t-29.5 24.5t-12.5 27zM301 413q0 -10 17 -25.5 t38.5 -30.5t42 -26t26.5 -11q5 0 10.5 4t10 10t7.5 12.5t3 11.5q0 12 -16 27.5t-37 30t-41 26.5t-28 16h-2q-5 0 -10 -5t-10 -12t-8 -15t-3 -13zM431 575q-26 22 -61 37.5t-64 27.5q-7 3 -18 6t-23.5 6.5t-24 8t-19.5 9.5h-118l-4 6q15 17 34.5 30.5t41.5 23.5t45 15t45 5 q34 0 67 -10t63.5 -26.5t58.5 -37t54 -40.5q15 -12 30.5 -26.5t31.5 -27t33.5 -22.5t38.5 -13v-2q0 -5 -7.5 -10.5t-17 -10t-19.5 -7.5t-15 -3h-6q-4 1 -10.5 2t-13 2.5t-11.5 2.5l-5 1zM233 682q8 -5 19.5 -9.5t24 -8t23.5 -6.5t18 -6q12 -5 27 -11t30.5 -13.5t30 -15.5 t25.5 -17q16 -8 34 -19t37.5 -21.5t39.5 -17.5t40 -7q8 0 12 1.5t11 7.5q-8 11 -24.5 19t-27.5 17q-30 24 -62 52t-67 52t-72.5 39.5t-79.5 15.5q-14 0 -34 -3t-40.5 -9.5t-37.5 -16.5t-24 -23h97z" />
<glyph unicode="U" horiz-adv-x="729" d="M435 186h4q2 0 3.5 -13t4.5 -30t7.5 -34.5t13.5 -27.5q5 -6 15 -18.5t21.5 -24.5t23 -21.5t19.5 -9.5t24.5 13t36.5 32.5t42 41.5t41 40q13 12 21 16.5t8 21.5q-14 0 -24 -7.5t-24 -7.5q-25 0 -36 18t-14.5 46t-2 61.5t1.5 65.5v54q0 39 1 75t4 78q1 21 13 32t25 16 t24 7.5t11 7.5q0 3 -10.5 10t-24 15t-26 15t-16.5 10t-15 12.5t-14 12.5q-2 2 -10.5 13t-18 23.5t-18 22.5t-9.5 10q-3 0 -13 -12.5t-22 -29t-24 -31.5t-18 -21q-6 -5 -20 -12.5t-29 -15.5t-26 -14.5t-11 -9.5q0 -1 0.5 -2.5l0.5 -1.5q24 -3 38 -10t22 -19t10.5 -29.5 t2.5 -41.5v-2q-1 -1 -2.5 -4t-2.5 -4v-251l-4 -32q0 -2 -7 -10.5t-18 -18.5t-23.5 -20t-23.5 -16h-2q-7 0 -19.5 5t-25 12.5t-21.5 16t-9 14.5v276q3 13 3.5 27.5t0.5 29.5v97q-6 24 -15.5 42t-22.5 32.5t-29.5 27.5t-34.5 28q-5 4 -8 6t-8 2h-4l-162 -162v-11q7 0 13 3 l13 6.5t15.5 6.5t21.5 3q15 0 23.5 -9.5t13 -23t5.5 -28.5t1 -26q0 -13 -1 -21t-4 -22q0 -13 0.5 -44.5t0.5 -66.5v-64q0 -24 -0.5 -42.5t-1.5 -34.5t-3 -36q-10 -24 -29 -27.5t-44 -4.5q-1 0 -2 -1.5t-2 -2.5v-4q1 -1 2 -2.5t2 -1.5q44 -24 81.5 -46.5t76.5 -54.5 q4 -3 8.5 -10t9.5 -14t10.5 -12t10.5 -5h2q11 6 19.5 15t20.5 13zM472 616l40 40q4 4 10.5 14.5t14.5 10.5h1q2 0 3 -1q4 -4 14 -12.5t20.5 -17.5t18.5 -17t8 -11q0 -21 -6.5 -43t-6.5 -44v-341q0 -9 3.5 -19.5t7 -20t7 -16.5t3.5 -10q0 -8 -7.5 -16.5t-17.5 -16.5l-20 -16 t-16 -14q-10 9 -22 20t-22.5 23.5t-17.5 26.5t-7 31v381q0 11 -2.5 33t-5.5 36zM140 150v6q0 94 4 186.5t4 186.5q0 24 -1 46t-7 45q-2 6 -9.5 16t-7.5 14v2q9 7 17.5 17t16 19t14 15t11.5 6h2q9 -7 21.5 -18.5t24 -24.5t19.5 -27t8 -27v-442q0 -10 7 -14.5t15.5 -7.5 t15.5 -6t7 -10v-2q-5 -6 -13 -14t-17 -15.5t-16.5 -14t-10.5 -9.5h-8q-21 17 -46.5 37.5t-50.5 35.5zM492 612v-434q0 -28 17 -48t36 -37h4q4 0 9.5 3.5t11 8t9.5 9.5t6 7v7q0 14 -4 27t-4 27v365q0 3 1 11t1.5 17t1 17.5t0.5 11.5v16q-12 12 -25.5 22.5t-19.5 10.5 q-1 0 -2 -0.5l-1 -0.5zM156 162q2 -2 10 -8.5t19.5 -15.5t24 -18.5t23.5 -18.5h12l9.5 7.5t14.5 12.5l4 4q0 1 0.5 1.5t0.5 1.5q-8 6 -18.5 11t-10.5 19v441q0 14 -8.5 29.5t-19.5 29t-20.5 22.5t-12.5 9h-4l-32 -39v-2q0 -1 1 -6t2.5 -10l3 -10t1.5 -6q3 -15 3.5 -26 t0.5 -22v-36q0 -86 -2 -171.5t-2 -172.5v-26z" />
<glyph unicode="V" horiz-adv-x="805" d="M124 195q22 0 41.5 -9.5t36.5 -24t32.5 -31t30.5 -29.5q20 -18 43.5 -36.5t50 -32.5t54.5 -23t57 -9q56 0 113 20.5t103 57t76 87t33 110.5v8q0 29 -10.5 54.5t-34.5 42.5l-8 8q-14 7 -30.5 15.5t-30.5 18t-23 20t-9 21.5q0 6 6 16.5t14 10.5h5q24 -5 46.5 -11t48.5 -6h2 l12.5 2.5l7.5 1.5v4q-17 3 -29 15.5t-12 29.5q0 15 4.5 29t4.5 30q0 49 -19.5 92t-65.5 63q-5 2 -18 7.5t-19 5.5h-89q-26 0 -42 -14.5t-26.5 -32.5t-16.5 -32.5t-10 -14.5q-10 5 -15.5 17t-10.5 20q-30 38 -70 50t-94 12q-35 0 -63 -3.5t-53 -13t-47.5 -26.5t-44.5 -43 q-19 -22 -32 -51.5t-13 -58.5t9.5 -49.5t23.5 -35t30 -25t30 -21t23.5 -22.5t9.5 -28q0 -19 -15 -28t-32.5 -14.5t-32.5 -9.5t-15 -13q38 0 72.5 12.5t60 35t40.5 54.5t15 71q0 25 -9.5 42.5t-24 31t-31.5 24t-31.5 22t-24 24.5t-9.5 32q0 30 21.5 47t50.5 17q35 0 56.5 -20 t34 -51t17 -67t5.5 -68t-0.5 -55.5t-1.5 -27.5q0 -23 -1 -47t-3.5 -45.5t-7.5 -38t-13 -22.5q-38 -2 -67.5 -8t-53 -19.5t-43 -35.5t-38.5 -54q-7 -11 -12.5 -23.5t-5.5 -25.5h9q5 12 12 25.5t16.5 24t22 17.5t27.5 7zM176 227v2q0 6 9.5 10t22.5 6.5t24.5 4t16.5 1.5h2 q30 0 58 -13t52.5 -32.5t47 -41t42.5 -39.5q20 -17 42 -34t43 -34l4 -7q0 -4 -9 -6.5t-20.5 -4t-22 -2.5t-13.5 -1q-43 0 -81 24t-73.5 56t-71 63.5t-73.5 47.5zM216 227q35 -25 67 -55.5t66 -57.5t71.5 -45t84.5 -18q0 9 -16.5 25.5t-38.5 35.5t-44.5 37t-35.5 29 q-28 24 -58.5 40.5t-65.5 16.5h-9q-7 0 -14 -1t-7 -5v-2zM285 289v2q1 1 2 2.5t2 1.5q27 14 51 25t45 24.5t38.5 32t31.5 48.5q4 9 4.5 19.5t1 20.5t2.5 19.5t8 17.5v149q0 26 16.5 48t43.5 22q24 0 34 -20t13.5 -47.5t5.5 -55.5t9 -44q3 -8 11.5 -16t16.5 -15.5t14.5 -14 t6.5 -12.5t-19.5 -14.5t-43.5 -22t-43.5 -34t-19.5 -51.5q0 -29 14.5 -50.5t36 -39t46.5 -33t46.5 -31.5t36 -35t14.5 -44q0 -14 -7 -27t-18.5 -23t-25.5 -16t-28 -6q-31 0 -65.5 23t-68.5 54t-65 61t-54 44q-6 4 -21 9.5t-31 11t-28.5 10.5t-12.5 7zM556 374q0 5 7 14.5 t16 18.5t18 15.5t14 6.5q6 0 9.5 -10t8.5 -14q12 -10 33.5 -22t43 -26.5t37.5 -32.5t16 -39q0 -7 -1.5 -17t-4.5 -20.5t-7.5 -19.5t-11.5 -14q-14 16 -43.5 36.5t-59.5 41.5t-52.5 42t-22.5 40zM576 372q0 -5 10 -16t25.5 -25t34 -29t35 -27t29.5 -20t18 -8q9 0 12 11.5 t3 18.5q0 25 -14.5 39.5t-35 26.5t-43.5 25t-41 33h-6q-8 0 -17.5 -10.5t-9.5 -18.5zM280 722q50 0 83 -29.5t56 -69.5q3 -1 8.5 -2.5t7.5 -5.5v-42q0 -27 -1.5 -52t-7.5 -47.5t-18 -43t-34 -38.5q-10 -8 -26 -20t-33 -12q0 88 -1.5 151.5t-5 106t-10.5 67.5t-18 37z M309 700q0 -14 5.5 -30t7.5 -31q4 -35 5 -72.5t1 -75.5q0 -28 -0.5 -55t-0.5 -52h3q32 16 50.5 36t28 43.5t12 51.5t2.5 60v32q-12 1 -23.5 15.5t-24.5 31.5t-29 31.5t-37 14.5zM50 560q0 4 0.5 11.5t3 14.5t6 12t9.5 5h2q19 -13 40.5 -28t39.5 -30.5t30 -31.5t12 -31 q0 -3 -2 -11.5t-5 -16.5t-7.5 -14.5t-8.5 -6.5h-2q-13 16 -33 28.5t-39 26.5t-32.5 31t-13.5 41zM66 563q0 -18 10.5 -33t25.5 -27t32 -21.5t30 -16.5l1.5 -0.5t2.5 -0.5q6 0 7 6.5t1 11.5q0 12 -10 24t-24.5 24t-31.5 23.5t-31 21.5h-4q-6 0 -7.5 -3.5t-1.5 -8.5zM604 718 q24 0 45.5 -12t37.5 -30.5t25.5 -41.5t9.5 -45q0 -15 -3.5 -32t-4.5 -31l-4 -4l-0.5 -0.5t-2.5 -0.5q-5 0 -11.5 1.5t-9.5 3.5q-28 15 -42.5 32t-21 37.5t-8.5 44.5t-5 52q0 7 -2.5 15.5t-2.5 10.5zM624 697q0 -25 2.5 -48t10 -43t21 -37t36.5 -31h8q2 17 3 29t1 26 q0 13 -7.5 31t-19 34.5t-26 27.5t-29.5 11z" />
<glyph unicode="W" horiz-adv-x="1081" d="M96 126q36 0 65.5 -19t58 -42t58.5 -42t67 -19q28 0 59.5 8t54.5 24q10 7 20.5 19t21.5 23.5t22.5 19.5t25.5 8q15 0 28.5 -6t25.5 -14.5t23.5 -18.5t23.5 -18q29 -21 60 -33t66 -12q53 0 104 23t90.5 61.5t64 88.5t24.5 104q0 29 -11 52t-27 40.5t-35 30.5t-35 24 t-27 20t-11 18v4q1 2 4.5 8.5t7.5 13t8.5 11.5t7.5 5h110q5 0 12.5 3.5t7.5 10.5v4q-11 0 -22 0.5t-20 3.5t-15.5 9.5t-7.5 19.5q-2 23 -2.5 40t-5.5 37q-10 36 -29.5 60t-46 38.5t-58.5 21t-65 6.5q-53 0 -94 -17t-79 -57h-5q-8 0 -16 11.5t-19.5 25.5t-27 25.5t-36.5 11.5 q-20 0 -37 -11.5t-30.5 -25.5t-22 -25.5t-11.5 -11.5h-2q-36 34 -77 54t-92 20t-95 -16t-76 -45t-50.5 -70.5t-18.5 -93.5v-16q0 -11 0.5 -23t3.5 -20q7 -22 28.5 -38t45 -29.5t42 -26t18.5 -27.5q0 -23 -14 -34.5t-30.5 -18t-30 -12t-13.5 -15.5q36 0 66.5 17t53.5 44.5 t36 61t13 66.5v32q-9 20 -20 35.5t-29 29.5q-12 9 -28.5 19t-32 22t-26 26.5t-10.5 34.5q0 16 9 28.5t23 20t29.5 11.5t29.5 4q35 0 54 -22t27.5 -55.5t10 -72.5t3.5 -73v-4q0 -4 -0.5 -6t-3.5 -6q0 -7 0.5 -23.5t0.5 -35.5t-0.5 -35.5t-0.5 -23.5q0 -8 -1.5 -25.5t-5.5 -36 t-10 -34.5t-15 -21h-12q-39 0 -68 -9.5t-51.5 -27.5t-39.5 -44.5t-32 -60.5q-7 -15 -12 -25t-5 -27q6 0 11 10t13.5 22t22 22.5t36.5 10.5zM613 134v4q0 1 6.5 11.5t15 22.5t15.5 21.5t8 9.5q21 0 42 -11.5t40.5 -27.5t36.5 -33.5t31 -29.5q11 -11 22 -20t18 -16l1 -2 q0 -2 -8.5 -6t-19.5 -7.5t-22 -6.5t-17 -3q-24 0 -46.5 9.5t-44 23.5t-41 30.5t-37.5 30.5zM115 162v4q0 8 12.5 17.5t29 17.5t32 13t21.5 5q9 0 20.5 -4t23.5 -10t22.5 -12.5t16.5 -10.5q25 -14 45 -27.5t38 -25t37 -21t43 -13.5q0 -8 -14 -17t-32 -16.5t-35 -12.5t-23 -5 h-1q-27 0 -54 18t-55.5 39.5t-60 40t-66.5 20.5zM638 138q14 -12 30.5 -26.5t34.5 -26.5t36.5 -20.5t37.5 -8.5q9 0 21 2t18 11q-14 15 -30.5 32t-35 33.5t-39 30t-41.5 21.5l-1.5 0.5t-2.5 0.5q-2 0 -6 -6t-8.5 -13.5t-8 -15t-5.5 -10.5l-1 -2q0 -1 0.5 -1.5zM151 176 q0 -3 6 -6.5t14 -6.5t15 -5.5t10 -3.5q15 -9 35.5 -24.5t42 -31t42.5 -27t36 -11.5q4 0 15.5 2.5t22.5 6t20 8.5t9 10v2q-28 5 -53.5 22.5t-51 37t-51.5 35t-56 15.5q-17 0 -29 -6t-26 -15zM674 239q-4 1 -4 8v4q33 30 57 66.5t24 84.5q0 32 -6.5 55.5t-25.5 52.5 q-9 13 -24 28.5t-28.5 33t-23.5 36t-10 38.5q0 19 10.5 34.5t26.5 26.5t35 16.5t36 5.5q27 0 39.5 -18.5t18.5 -43.5t9 -51t12 -41q8 -15 23.5 -27.5t31 -21.5t27 -14.5t11.5 -7.5q0 -4 -19 -13t-42 -25t-42 -40t-19 -57q0 -34 14 -59t35.5 -44.5t46 -35t46 -29.5 t35.5 -28.5t14 -32.5q0 -24 -21 -37.5t-42 -13.5h-12q-4 0 -7 0.5t-7 3.5q-26 19 -50.5 43t-50.5 45.5t-55 38t-63 19.5zM257 247v4q0 3 14.5 10.5t33.5 16t37 17t24 13.5q49 38 71.5 92t22.5 115q0 34 -4.5 67.5t-24.5 73.5v8q32 41 85 41q7 0 21 -2.5t28.5 -8t25.5 -12.5 t11 -16q0 -8 -4 -11.5t-9 -10.5q-12 -18 -26 -38.5t-25 -42.5t-18.5 -45t-7.5 -46q0 -34 17 -60t38 -49.5t38 -47.5t17 -54q0 -25 -12 -48t-31 -41t-43 -28.5t-48 -10.5q-25 0 -45.5 8t-39.5 20.5t-37.5 27t-39.5 26.5l-15 7.5t-18.5 9t-19 8.5t-16.5 7zM832 364 q0 8 3.5 18.5t10 20t14.5 16t17 6.5h4q16 -10 40.5 -27.5t47 -37.5t38.5 -42t16 -41q0 -5 -2.5 -15t-6.5 -21t-9 -19t-9 -8q-16 9 -43.5 25.5t-54.5 36.5t-46.5 42.5t-19.5 45.5zM847 364q0 -12 17.5 -32t40.5 -40t47 -34.5t38 -14.5q6 0 9 4.5t4.5 11t2 13t0.5 9.5v6 q-5 10 -21 29.5t-36 38t-41 32.5t-35 14q-11 0 -18.5 -13t-7.5 -24zM552 473q0 11 6 29t14.5 35t18 29.5t15.5 12.5q5 0 10 -11.5t10 -16.5q15 -19 28 -33t24 -28.5t20 -30.5t17 -38v-10q0 -14 -4.5 -28.5t-12 -28t-17 -25.5t-19.5 -21q-9 5 -10 12.5t-6 15.5q-9 16 -25 32 t-31.5 33t-26.5 35t-11 37zM302 503q0 53 -3 106t-22 104q1 4 7 4h3q15 0 30.5 -8t30 -19t26.5 -24t21 -22q1 -15 6 -28.5t9.5 -27t8.5 -28t4 -29.5q0 -60 -22 -105.5t-67 -85.5q-7 -6 -16.5 -12.5t-20.5 -6.5q0 46 2.5 91.5t2.5 90.5zM568 476q0 -7 14 -29t31.5 -46 t32.5 -42.5t18 -18.5q5 0 11 8t11.5 19t9 22t3.5 16q0 16 -8.5 33t-21.5 34.5t-29 35t-31 35.5l-6 4q-4 0 -10 -9t-11.5 -20.5t-9.5 -23.5t-4 -18zM301 693l0.5 -2t0.5 -3q6 -81 10.5 -163t4.5 -173h5q1 0 5.5 3.5t10 9t11.5 11t9 9.5q27 28 40 68t13 78q0 14 -4 27t-9 25.5 t-9.5 25.5t-5.5 27q-10 9 -20 19t-20.5 18.5t-21 14t-20.5 5.5zM46 530v4q0 5 0.5 14t2 18t4.5 15.5t9 6.5t6 -2t7 -7q18 -13 38.5 -25t38.5 -25.5t29.5 -29.5t11.5 -35q0 -11 -5 -28t-16 -23q-17 8 -38.5 18.5t-41 25t-33 32.5t-13.5 41zM58 531q0 -18 14.5 -34.5t33.5 -30 t36 -21.5t22 -8h4q6 0 7 9.5t1 14.5q0 16 -8 28t-21.5 22.5t-31 20.5t-36.5 23q-5 2 -6.5 3t-5.5 1h-4q-5 -14 -5 -28zM828 719q0 6 8 6t13 -4.5t11 -7.5q24 -12 44 -25.5t35 -30.5t23 -39.5t8 -52.5v-18q-1 -5 -9 -5h-6q-18 0 -30.5 8t-27.5 17q-41 24 -55 65t-14 87z M847 697q0 -42 14.5 -68.5t47.5 -49.5q13 -9 22.5 -15t26.5 -6q0 21 -8 45.5t-23 45.5t-35.5 34.5t-44.5 13.5z" />
<glyph unicode="X" horiz-adv-x="741" d="M303 158q4 0 8.5 -8t9.5 -18.5t9.5 -20.5t7.5 -14q2 -2 7.5 -8t12 -12t12.5 -12t9 -8q4 -4 17.5 -14.5t30 -22t32 -20t23.5 -8.5h2q1 1 4 2t4 2l174 142q7 8 17 14t19.5 12.5t16 15t6.5 20.5q-12 0 -24.5 -9t-27.5 -20.5t-33 -20.5t-41 -9q-34 0 -59 16.5t-41 42.5 t-23.5 58t-7.5 62q0 4 4 13t8 9h93q21 0 35.5 13.5t24.5 32.5t16 39.5t9 34.5q2 6 5 14t3 14q0 3 -1 6t-5 3q-5 0 -8.5 -4.5t-5.5 -11t-4 -12.5t-4 -9q-15 -20 -39.5 -25t-50.5 -5q-12 0 -23.5 0.5t-21.5 0.5h-27l-4 5q-1 0 -2 12t-2 20v4q0 4 0.5 6t3.5 6v34t2.5 48.5 t8 53.5t16.5 49.5t29 36.5t45 14q8 0 14.5 -2.5t6.5 -12.5q0 -6 -6.5 -14.5t-14 -19.5t-14 -23.5t-6.5 -27.5q0 -38 25.5 -61t61.5 -23q20 0 36.5 8.5t28.5 23t19 32.5t7 37q0 25 -10 46.5t-26.5 36.5t-38.5 23.5t-47 8.5q-33 0 -57 -13.5t-41.5 -35.5t-29.5 -48.5 t-21 -53.5q-3 0 -11.5 11.5t-18.5 26.5t-19.5 29t-15.5 19q-32 29 -71 44t-79 29q-5 1 -6.5 2t-2 1.5t-2.5 0.5h-7h-6l-191 -186v-21q9 0 20 9t25.5 19.5t32 19.5t40.5 9q32 0 58 -13.5t44 -35.5t27.5 -51t9.5 -59q0 -4 -0.5 -13t-1.5 -11l-4 -4q-14 1 -26.5 1.5t-25.5 0.5 q-26 0 -49.5 -6.5t-41.5 -23.5t-29 -46t-11 -73q12 0 18 9t13.5 20.5t21.5 20.5t42 9q8 0 16.5 -0.5t15.5 -0.5h12q5 0 13.5 -0.5t16 -1t13 -1.5l5.5 -1l4 -4q0 -1 0.5 -7t0.5 -14v-15v-12q0 -37 -1.5 -70t-9.5 -62.5t-24.5 -56t-46.5 -50.5q-12 -11 -23.5 -16t-28.5 -5 q-9 0 -19 3.5t-10 14.5q0 10 10 17.5t22.5 16.5t22.5 22.5t10 37.5q0 44 -28.5 65.5t-67.5 21.5q-42 0 -64 -28.5t-22 -68.5q0 -29 10.5 -51t28 -37t40.5 -22.5t49 -7.5h34q17 7 30.5 13.5t25 14t21.5 18t20 27.5q4 7 9 19.5t9.5 25.5t8.5 22.5t7 9.5zM322 365l-4 4l-138 8 q4 6 12 12t16 6h110v128q-14 65 -51 94.5t-91 34.5l61 65h5q15 0 31 -8q30 -14 59 -32.5t52 -44t37.5 -58.5t14.5 -75q0 -14 -0.5 -29t-0.5 -32v-13q1 -6 2 -16t2 -10h142q-2 -4 -7 -8.5t-11.5 -8t-12.5 -5.5t-9 -2h-94q-2 0 -6.5 -8t-5.5 -10v-37q0 -19 2 -45.5t8 -53.5 t17.5 -50.5t29.5 -36.5q6 -4 14.5 -7.5t17 -7.5t15.5 -8t10 -10q-5 -6 -13.5 -15t-19 -17.5t-20.5 -14.5t-18 -6q-1 0 -3 0.5t-3 0.5q-52 28 -81.5 60t-44.5 71t-19 84.5t-5 100.5zM50 128q0 9 4 19.5t11 19t16.5 14.5t19.5 6q7 0 16 -5t16.5 -12.5t13 -16t5.5 -15.5 q0 -11 -7.5 -18t-17.5 -13t-19 -11t-13 -11q-2 -2 -2.5 -10t-5.5 -10q-14 11 -25.5 27.5t-11.5 35.5zM212 666q0 -1 18 -9.5t40 -25t40.5 -40.5t19.5 -56l8 -288q1 -20 15.5 -50.5t35.5 -59t45 -48.5t44 -20q4 0 10 3t11.5 7t9.5 9t4 9q0 1 -0.5 2.5l-0.5 1.5 q-30 16 -48 40.5t-27.5 54t-12 62t-2.5 62.5q0 8 1 18t1.5 19t1.5 16t1 8v4q0 22 -1 49t-3 52t-6 45.5t-10 31.5q-27 49 -64 86.5t-94 51.5h-4l-32 -33q-1 0 -1 -2zM66 128q0 -9 4.5 -18t14.5 -9q5 0 13 4t15.5 9.5t13 12t5.5 11.5q0 11 -11 19.5t-22 8.5q-13 0 -23 -13.5 t-10 -24.5zM593 622q0 12 6 19.5t12.5 14.5t12.5 17.5t6 28.5v3q0 4 4 4q7 0 17 -8t19 -19t15 -22t6 -18q0 -10 -4.5 -21t-12.5 -20.5t-18 -15.5t-21 -6q-6 0 -13.5 4.5t-13.5 11t-10.5 14t-4.5 13.5zM613 622q0 -9 8.5 -16t16.5 -7q13 0 25 14.5t12 26.5q0 4 -3 11 t-7.5 13.5t-10 11.5t-10.5 5l-2 -4q0 -11 -4.5 -17t-10 -11.5t-10 -11.5t-4.5 -15z" />
<glyph unicode="Y" horiz-adv-x="761" d="M127 -119q0 -28 14 -47.5t36.5 -33t50.5 -21t56.5 -11.5t55 -5t45.5 -1q30 0 56.5 7.5t54.5 16.5q75 25 124.5 79.5t78.5 123.5t41 146t12 148q0 30 -1 65t-4 72.5t-9.5 75t-18.5 72.5q-11 34 -29.5 66t-44 57t-57.5 40t-70 15q-31 0 -49 -13.5t-27.5 -29t-14.5 -29 t-10 -13.5l-6 4q-38 45 -74 65t-86 20q-55 0 -99.5 -16t-76 -46.5t-49 -73.5t-17.5 -97q0 -41 10.5 -70t39.5 -53q10 -9 25 -16.5t28 -16t22.5 -19.5t9.5 -27v-14q-28 -39 -73 -53v-15q14 0 23 3.5t21 11.5q48 29 71 74.5t23 101.5q0 19 -1.5 40.5t-11.5 38.5q-12 22 -34 36 t-43.5 26.5t-37 28t-15.5 41.5q0 14 8.5 27.5t21.5 24t28 17t28 6.5q41 0 64.5 -24t35 -59t14.5 -73.5t3 -66.5v-4q0 -2 -0.5 -11t-1.5 -19.5t-1.5 -19.5t-0.5 -11q0 -11 -0.5 -42.5t-2.5 -66t-7 -63.5t-14 -35q-13 -7 -28 -8t-29 -8q-16 -7 -39.5 -23.5t-45.5 -37.5 t-37.5 -44t-15.5 -43v-2q4 0 4 -4h3q1 0 8 9t18.5 19.5t27.5 19.5t34 9q44 0 80.5 -24.5t63.5 -56.5q5 -5 8 -15t13 -10l1.5 0.5t2.5 0.5q3 2 10.5 8.5t15.5 13.5t15.5 13.5t10.5 8.5l4 4q9 8 29.5 27.5t42.5 40t38 35.5l16 15v4q-1 1 -2 2.5t-2 1.5h-4q-7 -6 -15.5 -14 t-16.5 -14.5t-15 -11.5t-12 -5h-6q-25 21 -48.5 42.5t-56.5 30.5q-14 4 -27.5 6.5t-13.5 13.5q0 7 15 17t34.5 20.5t39 20t29.5 15.5q20 18 31.5 41t17 49.5t7 56.5t1.5 61q0 34 -6.5 67.5t-6.5 66.5q0 13 3 26.5t9 24.5t16 18t24 7q16 0 26 -14.5t16.5 -36t9.5 -46.5 t4 -46.5t1 -35.5q0 -13 0 -12v-93q0 -5 1 -22.5t1.5 -38t1.5 -38.5t1 -22v-90v-53t-0.5 -47t-1.5 -47.5t-3 -54.5q-4 -11 -4 -24q0 -5 0.5 -9t0.5 -9q0 -71 -34 -123t-104 -66h-97q-4 0 -14.5 2t-22 4.5t-20.5 5.5t-9 6q0 1 0.5 1.5l0.5 0.5q18 2 35.5 7t31 14.5t22 24 t8.5 36.5q0 20 -10.5 35.5t-27 25.5t-35.5 15t-36 5q-18 0 -36 -5.5t-33 -16.5t-24 -26.5t-9 -35.5zM168 -119q0 9 7 16.5t16.5 13.5t20 9.5t17.5 3.5t18.5 -3.5t21.5 -9t17.5 -13t7.5 -15.5q0 -14 -9 -22.5t-21.5 -13t-26 -6.5t-23.5 -2h-14q-8 8 -20 19t-12 23zM188 -118 q0 -5 3.5 -9.5t7.5 -9t8 -8t5 -4.5h2q4 0 14 1.5t20 5t17.5 9t7.5 12.5q0 13 -15.5 21t-26.5 8q-5 0 -12.5 -2t-14.5 -5.5t-11.5 -8.5t-4.5 -10zM581 235v130q0 14 -1 50t-2.5 76t-2.5 75.5t-2 49.5l-2.5 15t-3 19.5t-2.5 21t-1 18.5q24 0 45 -23.5t38.5 -55.5t30.5 -64.5 t20 -51.5l21 -182q0 -56 -6 -110.5t-20.5 -105.5t-39 -99t-60.5 -90q-5 -6 -9.5 -13.5t-15.5 -7.5q0 1 0.5 4t0.5 5q8 85 10 169t2 170zM593 236q0 -77 -2 -152.5t-2 -152.5q6 0 15.5 12t18.5 27t15.5 28l7.5 15q9 21 16 37.5t11.5 29.5t7.5 24t5 22q5 24 8 44t5 38t3 36.5 t1 40.5q0 38 -2.5 83.5t-12 92.5t-28.5 92.5t-51 83.5q-4 5 -11.5 12.5t-8.5 7.5h-4q0 -106 4 -210.5t4 -210.5zM176 139v2q0 7 8 12.5t19.5 9.5t23 6t18.5 2q35 0 61 -15t52 -38q3 -2 6 -5t3 -5l-1 -2q0 -1 -7 -7t-16 -13t-16.5 -13t-8.5 -7h-8q-55 55 -134 73zM216 147 q26 -12 51.5 -26.5t46.5 -34.5l24 20v2q0 9 -11.5 18t-27 16.5t-31 12t-23.5 4.5q-7 0 -15.5 -3.5t-13.5 -8.5zM297 296v31q0 40 2.5 80t2.5 80v9q0 27 -1 55.5t-5 56t-13.5 53.5t-25.5 48q1 5 8 5q19 0 36.5 -10t32.5 -23.5t26 -27t18 -20.5q5 -5 11.5 -6t9.5 -7 q2 -32 7 -60.5t5 -60.5q0 -37 -2.5 -64.5t-12.5 -50.5t-30 -43.5t-56 -44.5l-8 -4q-5 0 -5 4zM314 487q0 -42 -2.5 -83.5t-2.5 -83.5q30 0 47.5 20.5t27 47t12.5 52t3 36.5v22q0 29 -5 57t-7 57q-12 1 -20 7t-15 14.5t-13 17.5t-13 18q-7 3 -15.5 8t-13.5 8v-8 q0 -17 5.5 -34.5t7.5 -34.5q3 -36 3.5 -61.5t0.5 -59.5zM46 519v24q2 4 3.5 7.5t5.5 5.5q19 -10 40 -22t38 -27t28 -34.5t11 -44.5v-9q0 -11 -2 -22.5t-10 -11.5q-4 0 -4 1q-21 8 -41 21t-35.5 30t-24.5 38t-9 44zM57 527q0 -20 10.5 -41.5t26 -39.5t33 -29.5t30.5 -11.5 q0 34 -8.5 55.5t-37.5 42.5q-4 3 -11 7t-14 7.5t-12.5 6.5t-6.5 3h-10z" />
<glyph unicode="Z" horiz-adv-x="720" d="M87 -3q8 -27 12.5 -55.5t15.5 -54.5q17 -39 46.5 -63.5t65.5 -38t76 -18.5t78 -5q57 0 116 13.5t106 46t77 86.5t30 135q0 49 -13.5 86.5t-39.5 77.5q0 2 -7 9.5t-17 16t-20 17.5t-16 14q-6 4 -24.5 13t-39 18t-37 16t-17.5 9q5 8 24 10.5t33 6.5q30 6 55 24t43.5 42.5 t29 54t10.5 58.5q0 60 -28 104.5t-72 74t-98 44t-106 14.5q-47 0 -94.5 -12.5t-86 -39t-62.5 -66t-24 -93.5q0 -4 2.5 -8t7.5 -4q3 0 5.5 9t5.5 21.5t5.5 26t5.5 21.5q10 25 27.5 44.5t40 33t47.5 20.5t51 7q47 0 79.5 -15.5t53 -42.5t29.5 -63.5t9 -78.5q0 -100 -33 -142.5 t-99 -42.5q-9 0 -25.5 1.5t-32 6t-27 13.5t-11.5 23q0 11 11 16t24 12t24 20.5t11 43.5q0 28 -17.5 47.5t-45.5 19.5q-39 0 -67.5 -25.5t-28.5 -65.5q0 -28 16.5 -50.5t36.5 -38.5t36.5 -25.5t16.5 -11.5v-2q-1 0 -2 -1.5t-2 -2.5t-6 -3t-10.5 -5t-10.5 -5t-6 -3 q-36 -20 -59 -60t-23 -82h10q9 32 24.5 60t38 49t51 33.5t64.5 12.5q13 0 32 -0.5t32 -4.5q31 -9 50.5 -32.5t31 -53t16 -61.5t4.5 -59l-21 -239q-2 -18 -10.5 -32t-22 -24t-29.5 -15.5t-32 -5.5q-43 0 -64.5 15.5t-31 40t-12 54.5t-7.5 60.5t-18 57t-44 43.5 q-14 8 -29.5 14.5t-32.5 6.5q-45 0 -71.5 -12t-41 -34.5t-18.5 -54.5t-4 -73h11v39q0 20 4 37.5t13 29t26 11.5q8 0 14.5 -4.5t11.5 -11.5zM528 94v44q-1 13 -4.5 29t-7.5 32t-7 31t-3 27q27 0 56.5 -21.5t54.5 -53t41 -66t16 -61.5q0 -32 -9 -63.5t-25.5 -59.5t-38.5 -52 t-49 -41q-6 -5 -18.5 -11t-22.5 -6q0 69 8.5 136t8.5 136zM123 23q0 10 8 10q10 0 21.5 -5.5t19.5 -10.5q25 -14 39.5 -35.5t21.5 -46.5t8.5 -52.5t1.5 -53.5q-26 0 -48 22t-38 52.5t-25 63.5t-9 56zM541 94q0 -61 -7 -121.5t-7 -121.5h13l4 3t9.5 6.5t10.5 7.5t8 7 q18 15 34 36.5t28.5 45.5t19.5 49t7 49q0 25 -15.5 55.5t-36.5 56.5t-43 44t-35 18q0 -34 5 -67t5 -68zM143 7q0 -16 6.5 -42t18 -50.5t27.5 -42.5t35 -18q0 52 -18.5 94.5t-67.5 64.5q-1 -1 -1 -3v-3zM504 442v141q0 31 -13.5 59.5t-27.5 54.5h12q12 0 39 -15t54.5 -39.5 t48.5 -57t21 -66.5q0 -23 -14 -49t-36 -49t-47.5 -38t-49.5 -15v5q1 7 2.5 17l3 20t2.5 17l1 7zM516 430q-7 -8 -8 -20t-1 -22q17 0 37 15.5t37 37t28.5 44.5t11.5 38q0 16 -12 40t-30 45.5t-38.5 37t-37.5 15.5q0 -17 6.5 -32t6.5 -34v-165zM196 437q0 29 14.5 45.5 t44.5 16.5q17 0 28 -14t11 -31t-10.5 -23.5t-25 -8.5t-29 -1.5t-21.5 -3.5h-4q-1 2 -4 8.5t-4 8.5v3zM212 456q0 -11 2.5 -17t22.5 -6h4q11 0 24 3t13 18q0 12 -7 22.5t-20 10.5q-14 0 -21 -6.5t-18 -18.5v-6zM459 705q3 0 3 -4t-3 -4t-3 4t3 4z" />
<glyph unicode="a" horiz-adv-x="473" d="M265 539q-6 -4 -15.5 -10.5t-20.5 -14t-22 -14t-19 -10.5q-27 -13 -58 -24.5t-58 -28t-44.5 -40t-17.5 -60.5v-203q0 -19 8 -39.5t21.5 -39t30 -33t33.5 -21.5h4q1 0 11 9t24 21l28 24t22 19q10 8 21.5 20t25.5 12q4 0 13 -16t22 -35t29.5 -35t34.5 -16q1 0 5.5 0.5 t6.5 0.5q11 13 30.5 28.5t38.5 31.5t33 30t14 24q-11 0 -19 -4.5t-19 -4.5q-6 0 -12 5t-11 12t-8 14.5t-3 12.5v5q0 12 1 44t1.5 67t1 67t0.5 44q4 12 12.5 19t17.5 11.5t16 7.5t7 6q0 7 -4 9q-50 19 -87.5 43.5t-78.5 61.5h-16zM236 462v4q5 3 15 9.5t18 6.5h4 q18 -14 37.5 -27t39.5 -25l12 -8v-304q8 -11 8 -22q0 -5 -4.5 -11t-10.5 -11t-12 -9.5t-9 -6.5q-10 8 -20 18t-17 22l-18 36v284q0 7 -6.5 12t-15 9.5t-15 9.5t-6.5 13zM42 190q0 28 -1 66t6 72t25.5 58t56.5 24v-300q1 -2 3.5 -8t2.5 -8l1 -2q0 -1 -0.5 -1.5l-0.5 -0.5 l-28 -28q0 -1 -4 -1q-7 0 -11 6t-9 11q-23 25 -32 51t-9 61zM54 191q0 -7 3.5 -24.5t9.5 -35.5t15 -32t21 -14q4 0 8 2t4 7v293q-26 0 -38 -18t-16.5 -45t-5 -58.5t-1.5 -58.5v-16zM265 458l20 -20q2 -2 4 -5l2 -3v-283q0 -3 4.5 -13.5t11 -21t14.5 -19t14 -8.5q4 0 9.5 1.5 t5.5 7.5v315q0 1 -5 4t-7 5q-5 3 -15.5 10.5t-22.5 15.5t-22 14t-13 6v-6zM170 450h2q10 -8 22.5 -16.5t23.5 -18.5t19 -21.5t8 -24.5v-190q0 -11 -3.5 -23t-10.5 -22.5t-17 -17t-23 -6.5q-10 0 -18.5 11t-8.5 22v303l4 4h2z" />
<glyph unicode="b" horiz-adv-x="461" d="M9 127q0 -10 14.5 -14.5t30.5 -15.5q11 -6 32 -22t43 -32.5t39.5 -29.5t21.5 -13h6q22 20 46.5 33.5t50 24t52 20t53.5 23.5q22 16 32.5 39t15 48.5t4.5 51.5q0 27 1 51v28q0 26 -0.5 50t-5 47t-13.5 44.5t-26 41.5q-4 4 -8.5 11t-10 14t-12 11.5t-14.5 4.5q-3 0 -18 -10 t-36 -24.5t-44.5 -31t-42.5 -28.5h-4l-8 8v94q0 35 2.5 65.5t14.5 53t36.5 36t68.5 14.5l4 6l-4 6q-5 0 -20.5 0.5t-20.5 0.5q-21 0 -44.5 -1t-46 -5.5t-44 -12.5t-39.5 -22q-13 -13 -27.5 -26t-20.5 -19h-4q-5 3 -11 14l-12 22t-12 20t-12 9h-2q-4 0 -4 -4v-2 q0 -6 4.5 -14.5t10 -17t10.5 -17t7 -14.5q4 -14 8 -36.5t4 -36.5v-392q0 -11 -7 -19t-15.5 -13.5t-15.5 -10t-7 -8.5zM174 672q6 0 6 -8t-4 -17v-501q0 -6 8 -14t18 -17t20 -17t15 -13q-6 -8 -20.5 -16.5t-24.5 -8.5q-3 0 -20 11.5t-35.5 25t-34 25l-15.5 11.5v474l11.5 10 t26.5 21.5t29 21.5t18 12h2zM103 599v-457q0 -2 11 -8.5t17 -12.5q6 -4 13.5 -10.5t16 -13t16.5 -11.5t15 -5h4q5 0 9 1t4 5l-1 2q-9 14 -23.5 22t-22.5 22v510q-9 -3 -16 -9t-13.5 -13t-13.5 -13t-16 -9zM261 438q5 0 12.5 -0.5t7.5 -4.5l8 -16v-255l-4 -41q0 -3 -3 -3.5 t-5 -0.5h-4q-9 8 -20 17t-21 18t-17 17t-7 13v231q0 6 6.5 11t15.5 8t17.5 4.5t13.5 1.5zM321 123v2q0 13 0.5 39.5t1 59.5t1 69.5t1 69.5t1 59t0.5 39q5 7 14 14t18 7q6 0 8.5 -3t7.5 -10q18 -21 26.5 -42.5t12 -45t3.5 -51.5v-61q0 -20 -3.5 -46t-13.5 -49.5t-27.5 -40 t-45.5 -16.5q-1 0 -2.5 1.5l-2.5 2.5v2zM356 461h-2q-1 0 -5.5 -3t-6.5 -5l-4 -4v-308q4 0 8.5 1t7.5 4q33 29 41.5 63.5t8.5 74.5q0 31 -1 54.5t-5 43t-12.5 37.5t-23.5 38l-4 4h-2z" />
<glyph unicode="c" horiz-adv-x="384" d="M10 140q6 -24 21 -43.5t34.5 -35.5t41.5 -29t40 -25q5 -3 7 -3.5t5 -0.5h5q6 0 17.5 7.5t26.5 18t32 22.5t33 21q4 2 20.5 10.5t34.5 18.5t32 20t14 15q0 9 -8 9q-19 0 -37.5 -8.5t-38.5 -8.5q-32 0 -56 12t-40 32.5t-23.5 47.5t-7.5 57q0 7 0.5 25t1 41t1.5 47t2.5 44 t3.5 33t4 13h4q4 0 13 -23.5t19.5 -51.5t21.5 -51.5t19 -23.5q3 0 4 1l113 52q3 2 3.5 6t0.5 6v4q-17 37 -34 74.5t-31 75.5h-12l-202 -61q-30 -9 -47 -26.5t-25.5 -40.5t-10.5 -49.5t-2 -53.5v-89v-89zM42 219v10q2 38 4 81.5t8 80.5q2 10 10 21.5t19 21t23 16t23 6.5h2 q4 0 4 -4v-2q0 -43 -2 -85t-2 -85v-67q8 -43 27.5 -71.5t61.5 -45.5l1 -2q0 -4 -7 -10t-17 -11.5t-20.5 -9.5t-16.5 -4q-2 0 -4.5 0.5t-3.5 0.5q-27 15 -47.5 29.5t-34.5 32t-21 41t-7 56.5zM59 173q5 -11 17 -27.5t27 -32t30.5 -26.5t28.5 -11q5 0 12 6t10 10 q-23 19 -44 47.5t-21 61.5v233q-18 0 -30 -14.5t-19 -35t-10 -43t-3 -38.5q0 -31 -1 -63t3 -67zM232 476v4q0 7 4 8l41 12q3 1 10 -11t13.5 -28t12 -30.5t5.5 -18.5t-1 -5l-45 -20q-3 0 -8 9.5t-10 23.5t-11 29.5t-11 26.5zM252 474l21 -59q1 -4 8 -4q5 0 10.5 1t5.5 7 q0 5 -3 15.5t-7.5 20.5t-9 17.5t-8.5 7.5h-4q-5 0 -9 -1t-4 -5z" />
<glyph unicode="d" horiz-adv-x="457" d="M10 110v-3q0 -6 4 -7q27 -11 49.5 -18.5t43 -17.5t40.5 -24t41 -37h12q17 20 38.5 37.5t46.5 27.5q27 10 53.5 16t48 16.5t36.5 29.5t20 55q3 27 3.5 56.5t0.5 57.5q0 59 -6 101.5t-19.5 73.5t-35 53t-52 40.5t-71 36t-91.5 38.5q-14 6 -29.5 17t-15.5 28q0 13 8 20 t19 10.5t24 4.5t23 1h11q1 1 2.5 2t1.5 2l1 2q0 2 -3.5 6t-5.5 4h-64q-20 0 -39 -13t-34 -32t-24 -40.5t-9 -39.5q0 -29 13 -51.5t34 -39t46 -28t49 -19.5q9 -5 9 -12q0 -9 -7.5 -14.5t-17.5 -8.5t-20 -4t-16 -1q-17 0 -32.5 2t-31.5 2h-4q-4 0 -8 -0.5t-4 -3.5v-283 q0 -6 -4.5 -11.5t-11 -10.5t-13 -9t-9.5 -6v-6zM83 399h91v-258q0 -3 6 -8.5t15 -12t19 -13t19 -11.5v-2q0 -3 -5.5 -8t-12 -9t-13.5 -7t-10 -3q-1 0 -2 0.5t-2 0.5q-24 18 -49 29.5t-52 22.5l-4 4v275zM95 132q14 -3 27.5 -10t27 -14.5t26.5 -13t25 -5.5q0 7 -6 11.5 t-13.5 8.5t-13.5 8.5t-6 10.5v259h-67v-255zM216 465q33 0 49 -20.5t22 -52t6 -69.5v-73v-85q-2 -6 -2 -13q0 -3 0.5 -5.5t0.5 -5.5q0 -8 -2 -14.5t-9 -6.5h-4q-8 6 -19.5 13t-22.5 14t-19 13.5t-8 12.5v287q0 4 3 4.5t5 0.5zM79 612v2q2 11 6 19.5t6 8.5l2 1l6.5 -4.5 t14 -10.5t15 -11.5t10.5 -6.5q44 -18 92 -37.5t88 -47.5t66 -68t26 -98v-142q0 -13 -6 -28.5t-15.5 -29t-22.5 -22.5t-27 -9h-10l-8 300q-1 25 -19 41t-42.5 26.5t-50.5 17t-42 12.5q-11 4 -26.5 12.5t-29.5 20.5t-23.5 25.5t-9.5 28.5zM98 608q0 -10 10 -21t23.5 -21 t27 -18t21.5 -11q16 -6 42 -12.5t50.5 -17t42.5 -26.5t19 -41l8 -291l1.5 -0.5t2.5 -0.5q22 0 33 19t15.5 43t4.5 47v31q0 79 -17 127t-51 79.5t-85 53.5t-119 50q-7 2 -14.5 6.5t-13.5 9.5q0 -1 -0.5 -3t-0.5 -3z" />
<glyph unicode="e" horiz-adv-x="392" d="M10 279v-14q0 -40 1.5 -70.5t10.5 -56t28 -49t53 -49.5q6 -4 14.5 -10t17.5 -12t18 -10t17 -4h6q33 20 63.5 45t65.5 44q22 12 41.5 20.5t35.5 27.5v2q0 5 -3.5 6t-6.5 1q-9 0 -19 -3.5t-21.5 -7t-24 -7t-25.5 -3.5q-16 0 -37.5 8.5t-40.5 23t-32 32.5t-13 36 q0 9 16.5 21.5t41.5 26.5t53.5 27.5t53.5 26t41.5 22t16.5 15.5q0 3 -7 18t-17.5 36t-23.5 44.5t-24.5 43t-20 32.5t-11.5 13q-6 0 -8 -0.5t-3.5 -1.5t-4 -2.5t-9.5 -4.5q-5 -2 -25 -9t-42.5 -15.5t-42 -15.5t-24.5 -9q-41 -15 -63 -36t-32 -48t-12 -60.5t-2 -73.5zM42 278 q0 24 2 46.5t8 43.5t18 39.5t33 33.5q2 2 6.5 4.5t5.5 3.5h4l4 -4v-14q0 -32 -2 -64t-2 -64v-29q0 -24 2 -49.5t11.5 -49t29 -43t54.5 -31.5q4 0 4 -4v-2q0 -3 -7.5 -9.5t-17 -13t-18 -11.5t-11.5 -5q-10 0 -15.5 4.5t-15.5 12.5q-29 22 -46 39t-26.5 35.5t-13.5 43t-7 60.5 v27zM54 278v-15q4 -41 11 -67t17.5 -44.5t26 -33.5t38.5 -33q6 -5 8.5 -7t8.5 -2q5 0 14.5 4t9.5 11q0 2 -11 12.5t-25 24.5t-26.5 28.5t-14.5 25.5q0 3 -1 29t-2 62t-2 76t-1 70q-15 0 -25 -18.5t-16 -42.5t-8 -47.5t-2 -32.5zM152 275q-1 3 -1 15v15q0 13 0.5 39.5 t2.5 53.5t5 48t9 23q10 -8 22.5 -28.5t23.5 -43.5t19 -44t8 -30q0 -7 -10 -16t-23.5 -17.5t-26.5 -14t-19 -5.5q-3 0 -6 0.5t-4 4.5zM220 483v6q4 2 10.5 4t12.5 4t10 3.5l4 1.5q5 0 15.5 -16t21.5 -36.5t19.5 -39.5t8.5 -25q0 -1 -0.5 -3l-0.5 -2l-42 -21q-3 0 -12.5 17.5 t-20 39.5t-18.5 42t-8 25zM240 473q0 -4 2.5 -10.5t6 -13.5l7 -14l5.5 -11l20 -40h4q4 0 10 2.5t6 7.5q0 3 -6.5 17t-15 29.5t-17.5 28t-13 12.5q-9 0 -9 -8z" />
<glyph unicode="f" horiz-adv-x="332" d="M95 74l45 -276q0 -3 3 -3.5t5 -0.5q9 0 12 11.5t4 16.5l32 211q17 45 24.5 90.5t10.5 90.5t5 89t9 87q4 15 14.5 18.5t24.5 3.5q8 0 16 -1t14 -1l8 8v57q0 5 -17 8.5t-43 8.5t-55.5 12.5t-55.5 20.5t-43 33t-17 50q0 9 5.5 17t16.5 8t20 -8.5t20.5 -18.5t27 -18.5 t38.5 -8.5q28 0 45 12.5t26.5 32t12.5 43t3 45.5v14q-1 6 -2.5 17l-1.5 11h-12q-1 -8 -1.5 -18t-2 -18.5t-4 -14.5t-7.5 -6q-12 0 -22.5 9t-20.5 19.5t-20.5 19.5t-23.5 9h-52q-2 0 -8.5 -3t-8.5 -5q-17 -14 -27.5 -32t-16 -37.5t-7.5 -41t-2 -42.5q0 -18 0.5 -35t0.5 -34 v-13q-1 -23 -10 -37.5t-19.5 -24.5t-19 -16.5t-8.5 -12.5v-3q0 -3 0.5 -6t3.5 -3h45q4 -1 5 -10t3 -17l20 -206q0 -4 -0.5 -7t-0.5 -7q0 -22 3.5 -44.5t5.5 -42.5zM144 -24l-49 470v4q0 3 1.5 9t2.5 13.5t2.5 13.5t1.5 9h4q22 -8 38 -15t39 -13q4 -1 19.5 -3.5t33 -5t31 -5 t13.5 -3.5v-4h-25q-15 0 -28 -4t-15 -20l-25 -223q-15 -53 -22.5 -111t-13.5 -112h-8zM111 446l37 -381q7 17 10 35.5t5.5 37l5 37t7.5 36.5l24 239q-21 1 -42 11t-41 10q-4 0 -5 -5.5t-1 -10.5v-9zM119 669v2q0 14 14.5 28t26.5 19h2q11 0 22 -8t22.5 -18t24 -19.5 t26.5 -11.5v-2q0 -6 -4 -13t-9.5 -12.5t-12 -9.5t-12.5 -4q-15 0 -24 7t-18 16t-22 17t-36 9zM148 681q12 -2 21 -9t17 -15t15.5 -14.5t15.5 -6.5q4 0 8 3t4 8q0 2 -9 10.5t-20.5 17.5t-22 16t-13.5 7q-2 0 -9.5 -3.5t-7.5 -11.5l0.5 -0.5t0.5 -1.5z" />
<glyph unicode="g" horiz-adv-x="473" d="M26 -153q35 -44 85.5 -58.5t104.5 -14.5q40 0 83 11.5t78.5 35t58.5 58t23 80.5q0 27 -9 47t-19.5 39t-19.5 39t-9 46v4q0 13 1.5 45t2.5 68t2.5 68t1.5 45q5 24 15 35.5t38 13.5v4q0 3 -17 13.5t-39.5 23.5t-45.5 26t-36 22q-7 5 -15 14t-16.5 17.5t-17 15t-16.5 6.5 q-6 0 -14.5 -6t-17.5 -14.5t-17.5 -16.5t-14.5 -12q-2 -1 -10 -5.5t-18 -9.5t-19 -10t-14 -7q-17 -9 -36.5 -14t-36.5 -13t-29 -23t-15 -43q0 -9 -0.5 -27.5t-1.5 -42.5t-2 -49.5t-2 -49.5t-1.5 -42.5t-0.5 -27.5v-2q0 -35 11.5 -60.5t37.5 -46.5q6 -5 16 -17t20 -12 q12 0 31.5 15.5t41 33.5t42 33.5t34.5 15.5q7 0 9 -5q3 -30 10.5 -52.5t21.5 -48.5q6 -11 14 -21.5t14.5 -21.5t11.5 -23t5 -26q0 -24 -13 -43t-33 -32t-43.5 -20t-44.5 -7h-12q-14 0 -29.5 2.5t-23.5 13.5q6 11 16 14.5t19 8t15.5 13.5t6.5 31q0 39 -25 55t-60 16 t-60 -18.5t-25 -56.5q0 -5 3.5 -15t4.5 -15zM58 -119q6 10 19 22.5t28 12.5q16 0 28 -11t12 -28q0 -22 -16 -30.5t-35 -8.5q-6 0 -12.5 4.5t-11.5 11.5t-8.5 14t-3.5 13zM78 -126v-4q0 -8 4 -12t19 -4q8 0 19.5 3t11.5 16q0 10 -7.5 18.5t-17.5 8.5q-29 0 -29 -26zM228 464 q0 3 4 7t9 7.5t9.5 7t6.5 4.5h4l8.5 -5.5t21.5 -14.5t28.5 -20t28.5 -20t21.5 -15.5t8.5 -7.5v-3q0 -69 -4 -137.5t-4 -137.5v-21q0 -14 0.5 -29.5t3.5 -25.5q3 -12 11.5 -23t16.5 -21.5t14.5 -21.5t6.5 -25q0 -7 -5.5 -21.5t-13.5 -29t-17.5 -25.5t-16.5 -11h-4q1 5 1 9v9 q0 37 -12 63.5t-27 49t-27 46t-12 54.5v307q0 1 -8.5 7.5t-19 14.5t-20.5 15.5t-13 11.5v2zM252 468q0 -7 7.5 -13t17 -11.5t17 -10t7.5 -8.5v-307q0 -29 12 -53t26.5 -47.5t26.5 -47.5t12 -54v-9q11 8 20 24.5t9 30.5q0 12 -6 22t-14 19t-15 18t-10 20t-3.5 29t-0.5 35v22 q0 60 2 119.5t2 119.5v35q-15 10 -32.5 22t-33.5 22t-28 16.5t-16 6.5zM46 134v116v47t7 56.5t24 47.5t52 20h2q4 -2 4 -4v-332q0 -3 -4 -7t-10 -8t-11.5 -6.5t-8.5 -2.5q-12 0 -22 7.5t-17 19t-11 24t-5 22.5zM59 146q0 -7 3 -18.5t8.5 -23t13.5 -19.5t17 -8h2l8 8l8 8 q3 78 4 154t1 154q-23 0 -36 -12t-19.5 -30t-8 -38.5t-1.5 -38.5v-15q0 -1 -0.5 -8t-0.5 -17v-20v-15v-12v-19q0 -9 0.5 -18t0.5 -12zM168 136v2q0 7 0.5 32t1.5 58t2 69t2 66.5t2.5 50.5t3.5 20q3 0 14.5 -7t24.5 -16.5t24 -18t14 -11.5v-89q0 -9 -1 -30t-1.5 -45t-1 -45.5 t-0.5 -29.5q-2 -6 -9.5 -13t-16.5 -13.5t-18.5 -10.5t-14.5 -4q-14 0 -20 11.5t-6 23.5z" />
<glyph unicode="h" horiz-adv-x="465" d="M147 -208q0 -5 3.5 -5.5t6.5 -0.5q9 0 19.5 4t20.5 10t19 12t16 10q59 35 101 69.5t69 79.5t40 106t13 150v174q-2 36 -15 65.5t-38 55.5q-3 3 -7.5 8t-9 9.5l-8 8l-3.5 3.5h-8l-121 -94q-2 -1 -8 -3.5t-9 -4.5h-2q-5 0 -7 7t-3 10v96q0 33 3 61t15 49.5t35.5 35 t64.5 16.5v4q-1 2 -2.5 4.5t-1.5 4.5h-31q-33 0 -67.5 -5t-66 -18.5t-57.5 -36.5t-43 -58h-2q-5 2 -11 15t-13 28t-14.5 27t-14.5 12v-13q28 -49 40.5 -105.5t12.5 -112.5v-300q0 -20 -8.5 -30.5t-18 -16.5t-18 -10t-8.5 -10q0 -3 7 -7.5t16 -9.5t18.5 -9.5t15.5 -7.5 q5 -3 15 -14t20.5 -22t20 -20t14.5 -9q4 0 17 9.5t29.5 23t34.5 28t31 24.5q9 8 13 10t4 15h-38q-6 0 -11 9.5t-5 15.5v7q0 15 1 53t1.5 80.5t1 80.5t0.5 53q8 10 19.5 19t25.5 9h4q11 -6 20 -17t9 -25q0 -2 -0.5 -3t-0.5 -3v-210q0 -32 -0.5 -64t-3.5 -66q-3 -5 -3.5 -10 t-0.5 -10v-20q-4 -57 -24.5 -105t-68.5 -82q-4 -3 -11.5 -6t-15 -7t-13 -9t-5.5 -12zM326 271v154q-1 3 -2.5 14t-2.5 14v4q2 4 8.5 9t13.5 9.5t13.5 8.5t9.5 6q21 -17 32.5 -37.5t17 -43t6.5 -47t1 -49.5v-37q0 -34 -1.5 -75t-7.5 -81.5t-18.5 -76t-33.5 -59.5 q-4 -5 -11 -11.5t-13.5 -13t-11.5 -11l-5 -4.5h-4q0 82 4.5 163.5t4.5 163.5zM338 449v-37q0 -110 -2.5 -215t-2.5 -214q5 0 10 5.5t7 7.5q22 26 34.5 62.5t18.5 76.5t7 80.5t1 74.5v30q0 18 -1 39t-5 41t-13.5 37.5t-25.5 28.5h-2q-6 0 -15 -7.5t-11 -9.5zM91 111v3 q0 2 1.5 11.5t2.5 12.5v368q-2 17 -3 31.5t-1 31.5v10q0 1 5.5 6t6.5 6q10 13 17.5 25t16.5 22.5t21 19.5t30 18l4 -4q-1 -5 -2.5 -30.5t-2.5 -63.5t-2.5 -85t-2.5 -96.5t-1.5 -98t-0.5 -87.5v-114q-5 -5 -15.5 -16.5t-21.5 -11.5h-4q-5 4 -13 11t-15.5 13.5t-13.5 11.5 l-6 5v1zM107 518v-400q0 -2 5.5 -6.5t12 -9.5t12.5 -9l6 -4h3q5 0 11 5.5t7 11.5q0 18 0.5 57t1.5 87.5t2 102t2 102t1.5 87t0.5 57.5v45q-15 0 -23.5 -11.5t-15 -25t-13.5 -25t-17 -11.5v-4q0 -3 0.5 -10t1.5 -15t1.5 -14.5t0.5 -9.5z" />
<glyph unicode="i" horiz-adv-x="299" d="M58 131q0 -6 1.5 -15.5t4 -20t6.5 -20t9 -14.5l52 -53q4 -3 7.5 -3.5t7.5 -0.5q6 0 23 12.5t38 29.5t42 36t36 31l4 4q0 2 0.5 7t0.5 7q-11 0 -20.5 -5t-21.5 -5q-14 0 -20.5 10.5t-9 24.5t-2.5 28v22v182q4 16 13.5 24.5t19.5 13t17 7.5t7 8q0 2 -9.5 9.5t-21.5 15.5 t-23 14.5t-15 8.5l-58 53q-6 0 -15.5 -6t-19.5 -14.5t-18.5 -16.5t-13.5 -12q-10 -8 -27 -22t-28.5 -23.5t-13.5 -10.5v-17q8 0 15 4.5t15 4.5q16 0 20 -12t7 -25v-44q0 -44 -2 -87t-2 -86v-29q-4 -4 -4.5 -7t-0.5 -8zM141 481h2q12 -12 28.5 -22t16.5 -20v-2l-1 -16 t-1.5 -38t-1.5 -46t-1 -40q0 -50 2.5 -98.5t2.5 -97.5v-4q-3 -3 -8 -9t-11 -11t-12 -9t-12 -4q-1 -2 -8 3t-15.5 14t-15.5 19.5t-7 20.5v328q0 1 6.5 6.5t14 11t14 10t7.5 4.5zM111 133q1 -2 4 -10t4 -10l4 -8q4 -5 12 -12.5l8 -7.5h9l20 20v53q0 16 -1 56t-1.5 85t-1 85.5 t-0.5 56.5q-8 2 -14 9t-13 7q-6 0 -14 -5.5t-12 -10.5q0 -11 -1 -37t-1.5 -56t-1 -56.5t-0.5 -36.5v-61v-61zM78 658q0 -7 1.5 -21t5 -28t9.5 -24.5t15 -10.5h6q45 10 75.5 29.5t30.5 57.5q0 30 -19.5 48.5t-49.5 18.5q-34 0 -54 -18t-20 -52zM115 657l28 30h13l24 -28 q0 -4 -6 -10.5t-14 -12.5t-15.5 -10t-10.5 -4q-12 0 -15.5 13t-3.5 22zM149 667q-8 0 -13 -7t-5 -14q6 0 15.5 2t9.5 10q0 9 -7 9z" />
<glyph unicode="j" horiz-adv-x="299" d="M75 -121q-4 -16 -15 -28.5t-22.5 -23.5t-20.5 -20t-9 -18q54 0 101 23t83 63q1 1 3.5 5.5t6 9.5t7 9t5.5 4h2q1 0 7 -17t13 -37.5t14 -37.5t11 -17h2q6 0 6 8v12q-14 34 -24.5 69.5t-12.5 72.5v182q0 13 1 47t1.5 72t1 71.5t0.5 47.5q3 22 12 32.5t18 15t16 7t7 8.5v6 l-40 20q-9 4 -23.5 17.5t-29.5 27.5t-27 25t-16 11q-1 0 -12 -8t-27 -20.5t-34.5 -27t-34.5 -28t-26.5 -24t-10.5 -14.5q12 0 23 4.5t23 4.5h5q14 -13 20 -21.5t8 -27.5v-165q0 -13 -1 -39.5t-2 -60t-2.5 -70.5t-3 -70.5t-2.5 -60t-1 -39.5zM117 109l2 308q-2 8 -3 15.5 t-1 15.5q0 4 4.5 10t10.5 11t12 9t10 4l1.5 -0.5t2.5 -0.5q15 -15 25 -23t16 -12.5t8.5 -6.5t2.5 -6v-2q0 -5 -1 -12.5t-3 -9.5q0 -15 -0.5 -45.5t-1.5 -69.5t-2 -81.5t-2 -81.5t-1.5 -69.5t-0.5 -45.5v-72l-6.5 -5t-14 -11.5t-13.5 -13.5t-6 -11q-5 -5 -14.5 -13t-15.5 -13 t-7 -6h-8v16q0 12 1 44t2 67t2 67t1 44zM127 97v-190h2q9 0 15 6.5t11 14.5t10.5 15t14.5 9q1 13 2 46.5t2.5 70.5t2.5 70.5t1 46.5v243q-5 6 -17.5 17t-20.5 11h-3q-2 -1 -9.5 -5t-7.5 -7v-332zM99 668q0 -47 28 -86h14q19 0 37.5 7t33.5 19t24 28.5t9 36.5q0 29 -22 48 t-51 19q-34 0 -53.5 -20t-19.5 -52zM139 669v6q2 3 10 11t11 10h7q13 0 20.5 -7t16.5 -18v-2q0 -7 -6 -13.5t-13.5 -11.5t-16 -9.5t-12.5 -7.5q-11 5 -14 18.5t-3 23.5zM155 665q0 -10 10 -10q15 0 15 14q0 11 -10 11q-2 0 -8.5 -6.5t-6.5 -8.5z" />
<glyph unicode="k" horiz-adv-x="352" d="M10 117q0 -3 9.5 -10.5t23 -17.5t29 -20.5t27.5 -19.5q5 -5 11 -13t12.5 -16.5t13.5 -14.5t14 -6q1 0 3 0.5t3 0.5q39 32 74.5 67t75.5 67q7 0 11.5 7.5t4.5 12.5q0 8 -6 8q-8 0 -15.5 -6t-16 -12.5t-17.5 -12.5t-21 -6q-18 0 -30 13.5t-12 31.5v223q0 5 4 14.5t13 9.5 h109l4 4l1.5 12.5t2.5 19.5v15q0 8 -1.5 15t-6.5 7h-101q-2 0 -10.5 1.5t-10.5 6.5v14q0 16 4.5 35.5t11 36.5t15.5 28t18 11h5q0 -9 0.5 -22.5t4.5 -25.5t11.5 -20.5t22.5 -8.5t23 7.5t12 18t5 22t1 19.5q0 20 -14 35.5t-36 15.5q-14 0 -24 -6t-18.5 -15t-16.5 -19t-17 -17 l-4 4q0 2 -0.5 10t-0.5 11q0 25 7.5 41t20.5 25t31 12t38 3h15t15 -1q4 1 4 7v7q0 6 -4 7h-39q-38 0 -68.5 -4t-57 -14t-51 -27.5t-51.5 -44.5q-6 0 -8 5l-29 56h-10q0 -11 4 -21t9 -19.5t10 -19.5t8 -21q3 -14 3.5 -32.5t0.5 -33.5q0 -35 -11.5 -67t-37.5 -57v-14h49v-265 q0 -11 -7.5 -15.5t-17 -6.5t-17 -5t-7.5 -10zM91 115v2q0 6 0.5 26t0.5 46t1 55.5t1 55.5q0 27 0.5 46.5t0.5 25.5v65q-2 5 -7 9.5t-5 8.5v2q5 26 8.5 65.5t3.5 76.5q2 3 13.5 14t24 23.5t24 22t13.5 9.5h2q1 -1 2.5 -2t1.5 -2v-198q0 -5 6 -5t10 -4l1 -1q0 -4 -3.5 -6 t-7 -4.5t-7 -7t-3.5 -13.5v-287q1 -2 2.5 -8.5t1.5 -8.5v-3q0 -3 -0.5 -12t-3 -18.5t-7 -16.5t-11.5 -7q-1 0 -9 6t-18 14t-19.5 15t-12.5 10l-4 4v2zM107 449v-328q1 -2 7 -6t14 -9t15 -10t9 -7h4q1 1 2.5 4t1.5 4v78q0 117 2 232t2 233l-49 -45l-8 -4l-0.5 -12t-1 -29 t-1.5 -34.5t-1 -29.5v-21q0 -4 0.5 -7.5t3.5 -8.5z" />
<glyph unicode="l" horiz-adv-x="320" d="M10 105q21 -12 37 -24t31 -24.5t30 -27.5t32 -33h4q1 0 4 1.5t4 2.5q13 12 39 30t51.5 36.5t45 34t19.5 21.5v5q-15 0 -27 -7t-28 -7q-15 0 -23 11t-8 26v450q5 11 5.5 28t2.5 25q3 19 9 30t15.5 17.5t23.5 10t33 6.5v14q-54 0 -101 -10.5t-90 -43.5q-4 -3 -10.5 -10.5 t-13.5 -15t-13 -13.5t-9 -6q-7 0 -12 12.5t-10.5 27t-13 27t-19.5 12.5v-10q12 -22 18.5 -40.5t10.5 -35.5t6.5 -34t5.5 -36v-373q0 -21 -4.5 -39.5t-12.5 -18.5h-32v-19zM107 600q10 10 21 22t22 22.5t22 17.5t22 7q0 -9 -1 -18.5t-5 -18.5q0 -18 -0.5 -63.5t-1 -96.5 t-1.5 -96.5t-1 -63.5v-170q3 -13 4 -22t1 -21q0 -5 -4.5 -11.5t-10.5 -12.5t-13 -10t-13 -4h-4q-9 9 -14 14.5t-9.5 9t-10.5 8t-15 12.5l-4 4v483l4 4q2 1 6 2.5t6 1.5zM103 126v-4q1 -2 7 -8t13 -12.5t14.5 -12t12.5 -5.5q7 0 14.5 4.5t7.5 12.5v532q-12 0 -19 -7.5 t-13.5 -16.5t-14 -17t-18.5 -8v-53q0 -35 -0.5 -79t-1 -93t-1 -93.5t-1 -79.5t-0.5 -52v-8z" />
<glyph unicode="m" horiz-adv-x="753" d="M358 19q2 -5 5.5 -12.5t11.5 -7.5q6 0 11 5t10.5 11.5t10 13.5t8.5 10q6 6 18.5 13t24.5 13.5t21 12.5t9 9v6q0 6 -5 10t-11.5 8t-11.5 9.5t-5 13.5v3q2 24 3 45.5t1.5 43t0.5 43.5v48q0 23 -0.5 43t-0.5 28q0 10 5.5 18t13.5 14t17.5 9.5t18.5 3.5q14 0 20 -9.5 t7.5 -23.5t0.5 -30t-1 -29q0 -54 -2.5 -106.5t-2.5 -106.5q0 -42 24.5 -75t56.5 -55l19.5 15t42.5 34t43 36t21 21q1 2 1 6v4h-37q-5 0 -8 5t-5 11t-3 11.5t-1 7.5v251q0 11 6.5 16.5t14 8.5t14 6.5t6.5 11.5q-7 -1 -25 14.5t-38 34t-36 34.5t-18 16q-9 0 -9 -1t-8 -7 q-29 -27 -55.5 -48t-61.5 -46q-1 0 -4 -1.5t-4 -2.5h-3q-3 0 -10.5 17t-19 38t-26 38t-30.5 17h-5q-3 -2 -9.5 -7.5t-14.5 -11t-14.5 -11t-9.5 -7.5t-16.5 -12.5t-29 -22t-30 -21t-19.5 -9.5t-8.5 7.5t-6.5 17.5t-6 19.5t-6 12.5l-14.5 14.5t-18 16t-19.5 13t-19 5.5h-6 l-121 -117q0 -9 8 -9t11 4.5t13 4.5t16.5 -5.5t10 -13.5t5 -17.5t1.5 -17.5v-24q0 -12 -1 -41t-1.5 -62t-1 -62t-0.5 -41q-5 -17 -16.5 -30t-24.5 -23v-2q0 -3 6 -7t14 -8.5t16 -8.5t13 -6q6 -4 15.5 -14t18.5 -20.5t16 -18.5t9 -8l6 4q7 10 12.5 18t11.5 15t13.5 13.5 t18.5 14.5q4 3 12 5.5t16.5 6t14.5 8t6 11.5q0 11 -8.5 17t-11.5 17v12t-0.5 19t-0.5 19v12q0 40 1.5 99t3.5 114q4 12 19 24.5t27 12.5t18 -7t9 -17t3.5 -21t0.5 -18q0 -52 -2 -103.5t-2 -103.5v-34l-5 -5.5t-11 -12.5t-11.5 -14t-5.5 -8q0 -8 4 -12.5t10 -7.5l12 -6t11 -7 l9.5 -9.5l14.5 -14.5t14.5 -15t9.5 -10zM573 448l32 29q9 0 23.5 -13.5t25.5 -27.5v-39t0.5 -59t1 -69.5t1 -70t1 -59.5t0.5 -39v-4l-41 -36q-6 0 -13.5 10t-14.5 22.5t-11.5 23.5t-4.5 13v319zM342 104v344q0 7 6 14t13 13t13.5 10l6.5 4q5 0 12 -7.5t13 -17.5t11 -20.5 t6 -15.5v-203q0 -31 -0.5 -62.5t-3.5 -58.5q-3 -3 -8 -8.5t-11 -10.5t-12.5 -9t-11.5 -4h-2zM103 106q0 68 2 135t2 135v52q-1 3 -4 12.5t-4 12.5v4l4 4q4 3 10 8.5l12 11t10.5 9l4.5 3.5h8q7 0 15 -8.5t14.5 -21t11.5 -26.5t7 -25v-117q0 -10 -0.5 -35.5t-1 -54t-1.5 -54 t-1 -35.5q-3 -5 -10.5 -10t-15.5 -10t-15.5 -9t-10.5 -7h-4q-1 0 -12 7.5t-17 12.5l-4 4v2zM585 141q1 -5 4.5 -14.5t8 -19t10 -16.5t12.5 -7l22 20v320l-32 29q-7 0 -12 -4t-9 -9q0 -12 -1 -43t-1.5 -65.5t-1 -66t-0.5 -43.5v-41v-40zM354 116l16 -20q1 0 2.5 -0.5 t3.5 -0.5q18 0 25.5 14.5t9.5 35t1 43t-1 38.5v190q-1 4 -4 12t-7 16.5t-9 14.5t-10 6t-16 -4.5t-11 -12.5v-332zM144 469q-6 0 -15.5 -6.5t-9.5 -14.5v-336q0 -5 7 -6.5t12 -1.5q8 0 22.5 9t19.5 16q0 10 1 35t1.5 53.5t1 54t0.5 35.5v93q-3 11 -6.5 23t-8 22.5t-10.5 17 t-15 6.5z" />
<glyph unicode="n" horiz-adv-x="538" d="M34 95q0 -8 8 -11.5t13 -6.5q7 -5 21.5 -18.5t29 -28.5t25 -26.5l10.5 -11.5l7 4q15 15 27 29t24 25t25.5 20t32.5 15q1 1 2 4t2 4v2q0 5 -5 7.5t-11 4.5t-11 5t-5 9v276q0 8 5.5 15.5t13.5 13t17 9t16 3.5q6 0 14.5 -1.5t9.5 -11.5l4 -45v-30q0 -19 -0.5 -44t-1 -53 t-1 -53t-1 -45t-0.5 -29v-20q0 -16 6 -32t15.5 -30.5t21 -28t22.5 -23.5h4q22 9 39 25l34 32q7 3 21 11.5t27.5 19t23.5 22t10 21.5q-11 0 -19.5 -5t-19.5 -5q-5 0 -15.5 2.5t-11.5 10.5l-4 32l4 222q1 19 16.5 28t32.5 9v10q0 3 -4 6q-32 24 -62 48t-56 57l-1.5 0.5 t-2.5 0.5q-5 0 -16.5 -7.5t-24.5 -17.5t-25.5 -19t-18.5 -13q-3 -2 -11 -8t-17 -12.5t-17 -12.5t-11 -8h-4q-7 0 -10.5 5t-5.5 11.5t-3.5 13.5t-5.5 11l-24 24q-4 3 -11.5 8.5t-16 11t-15.5 9.5t-10 4q-8 0 -21 -9t-26.5 -21t-26 -23.5t-19.5 -16.5q-17 -12 -27 -20t-10 -21 q10 0 18 4.5t17 4.5q20 0 27.5 -13.5t7.5 -30.5v-231q0 -21 -7 -31t-15.5 -15.5t-15.5 -9t-7 -11.5zM377 474h5l49 -52q0 -76 -2 -142t-2 -140v-51q-7 -9 -22 -21t-27 -12q-5 0 -11.5 7t-12 16.5t-9 19t-3.5 14.5v336q0 3 4 7.5t10 8.5t12 6.5t9 2.5zM111 97v328q-1 3 -2 14 t-2 14v3q0 4 4 8.5t10 8.5t11.5 6.5t8.5 2.5q9 0 18 -5.5t16.5 -14t12 -18.5t4.5 -19v-320l-4 -4q-6 -4 -16 -12t-16.5 -13.5t-7.5 -6.5h-9zM354 126q1 -4 4.5 -12t7.5 -16.5t8 -14.5t6 -6h2q8 4 16 12t13 8l4 4v316q0 4 -4.5 10.5t-11 12.5t-13 10t-10.5 4l-2 -1 q-3 0 -8.5 -5t-7.5 -7q0 -10 -1 -34.5t-1.5 -52.5t-1 -52.5t-0.5 -34.5v-71v-70zM144 462q-5 0 -13 -4t-8 -9v-340q0 -1 6.5 -7.5t9.5 -8.5h9q3 2 14 10t14 10l4 4v296q0 17 -12 29.5t-24 19.5z" />
<glyph unicode="o" horiz-adv-x="449" d="M10 117q57 -24 103 -50t91 -67h4q6 0 11 5.5t10.5 13t10 15t9.5 11.5q12 10 25 16t26.5 10t28 7t29.5 7q27 7 43.5 22.5t25 36.5t11 45.5t2.5 49.5q0 17 -0.5 33.5t-0.5 31.5v84q-6 48 -25 79.5t-56 62.5q-6 5 -10 9t-13 4q-6 0 -17.5 -6.5t-24.5 -15t-25 -16.5t-19 -11 q-47 -20 -96 -25.5t-98 -7.5l-5 -8v-279q0 -17 -6.5 -24.5t-14 -10.5t-14 -5.5t-6.5 -10.5l0.5 -2.5t0.5 -3.5zM87 138v291h79v-271q0 -10 7.5 -19t17.5 -16.5t21 -14t17 -11.5v-4q0 -8 -11.5 -16.5t-17.5 -8.5l-1.5 0.5t-2.5 0.5q-2 1 -7 5t-11 7.5t-11 7t-7 4.5 q-4 3 -16.5 9t-26 13.5t-24 13.5t-10.5 9h4zM99 417v-271l15 -9t33 -19t34.5 -18.5t19.5 -8.5q0 9 -7.5 14.5t-16 10.5t-16 12t-7.5 18v271h-55zM293 463v2q2 2 15.5 11t21.5 14h2q6 0 13.5 -8t12.5 -13q18 -21 28 -41.5t14.5 -43t5.5 -47t1 -52.5v-21q0 -19 -1.5 -38.5 t-6.5 -37.5t-15.5 -33t-29.5 -26l-13 -6.5t-15 -5.5t-4 4v231q0 12 -2.5 28.5t-6 32.5t-9 29t-11.5 19v2zM200 449l8 8q30 -6 46 -24.5t24 -42.5t9.5 -51t1.5 -50q0 -14 0.5 -41.5t-1 -54.5t-5 -47.5t-10.5 -20.5q-6 0 -18 7.5t-24.5 18t-21.5 21.5t-9 18v259zM317 456 q0 -23 8.5 -45.5t8.5 -46.5v-224q10 0 20 10q30 25 35.5 58.5t5.5 69.5v7q0 27 -1 49.5t-6 43.5t-14.5 40t-27.5 39q-5 6 -6 7.5t-8 1.5q-6 0 -10.5 -1.5t-4.5 -8.5z" />
<glyph unicode="p" horiz-adv-x="510" d="M57 109q25 0 36.5 -11.5t16 -29t5.5 -38t4 -38.5q1 -6 3.5 -24.5t5.5 -42t8 -50t11 -48t14 -36t17 -14.5q10 0 19.5 19t17 48t14 62.5t11.5 62.5t8.5 48t5.5 19h3q4 0 10.5 -6.5t13.5 -14t14 -14t13 -6.5l6 5q6 12 10.5 20.5t9.5 16t11.5 15.5t16.5 17q8 7 30 15t45 17.5 t41 21.5t18 27q0 3 1 10t1.5 15.5t1 16t0.5 10.5v219q-3 15 -10 36t-16 41t-17.5 34t-13.5 14h-16q-34 -27 -72.5 -57t-81.5 -44h-2q-3 0 -7 12.5t-9 28.5t-11.5 31.5t-14.5 20.5q-3 2 -20 7.5t-36 13t-34.5 17t-15.5 19.5q0 18 12.5 22.5t27.5 6.5t27.5 6t12.5 19 q-32 0 -61 -9t-51.5 -26.5t-35.5 -44t-13 -61.5q0 -23 9.5 -36.5t21 -23t22 -18t12.5 -21.5v-73q0 -6 -0.5 -20t-1 -30.5t-1.5 -30.5t-1 -20q-2 -3 -16.5 -12t-31.5 -24t-31 -34.5t-14 -43.5v-61l6 -4l6 4q1 23 6 36t29 13zM168 -77l-28 186q-2 12 -9.5 19t-17.5 11t-21 5 t-21 1v3q0 10 10.5 18.5t22.5 15t22 11.5t10 9q0 6 0.5 20t1 30.5t1.5 30.5t1 20v138q-3 13 -12 21t-19.5 15.5t-18.5 17t-8 24.5q0 8 2 18t13 10q16 0 36.5 -8t39.5 -21t33.5 -29t18.5 -32q2 -45 3.5 -92t1.5 -94q0 -21 -0.5 -41t-0.5 -40q3 -23 21 -40t38.5 -29.5 t37 -21.5t16.5 -16q0 -1 -5.5 -8.5t-12.5 -16t-13.5 -15.5t-8.5 -7h-5q-4 2 -16 10t-16 10q-3 3 -7.5 8.5t-10 11t-11.5 9.5t-11 4h-4q-8 -47 -16.5 -92t-20.5 -90q0 -2 -1.5 -5t-2.5 -4h-4zM102 160q0 -2 7 -4t16 -6.5t17 -11.5t10 -17l24 -162h4l8 25l20 129q1 1 2 2.5 t2 1.5h5l64 -53q5 -3 7.5 -3.5t7.5 -0.5q8 0 15 6t7 14q0 6 -16 15t-34.5 21t-34.5 27t-16 34v77q0 48 -1 96.5t-4 94.5q-10 36 -32.5 49t-56.5 24q-7 2 -13 5.5t-14 3.5q0 -15 8 -23.5t18 -15.5t19 -14.5t11 -20.5v-81v-48q0 -21 -0.5 -42t-1.5 -43t-2 -49q-7 -12 -22 -16 t-24 -14zM378 137q0 17 -1 59.5t-2.5 90.5t-2.5 90.5t-2 59.5v5q0 5 6.5 12t15 13t17.5 10.5t14 4.5q17 0 26.5 -21.5t13.5 -48.5t4.5 -52.5t0.5 -34.5q0 -14 1 -30.5t1 -34.5q0 -23 -2.5 -45.5t-11 -40.5t-24.5 -29.5t-42 -11.5h-3q-2 0 -5 0.5t-4 3.5zM265 202 q0 10 -0.5 36.5t-1.5 56.5t-1.5 56t-0.5 37v5q0 21 15 31t34 10q15 0 22 -17t9.5 -40.5t1.5 -48t-1 -40.5v-134q-2 -8 -8 -13l-19.5 13t-20.5 15t-18 16.5t-11 16.5zM386 413q0 -5 0.5 -14t0.5 -11v-28q0 -20 0.5 -46.5t1 -55.5t1.5 -53.5t2.5 -40t4.5 -15.5q20 0 32 12 t18 30t8 40t2 43q0 16 -0.5 29t-0.5 22t-1 29t-4.5 42t-10 41t-17.5 24h-2q-20 0 -27.5 -16.5t-7.5 -31.5z" />
<glyph unicode="q" horiz-adv-x="473" d="M253 106q3 -35 7.5 -66.5t10.5 -61.5t13.5 -60t16.5 -63q7 -23 10 -38t14 -35h7q6 0 11.5 8.5t10 20t8 23t4.5 17.5l40 190l8 364q0 10 8 14t17 6t16.5 5.5t7.5 12.5v2q-1 1 -2 2.5t-2 1.5q-54 18 -106 45t-92 69h-8q-20 -22 -41 -37.5t-43.5 -28t-46.5 -23t-51 -21.5 q-8 -3 -13 -5.5t-9 -6t-8 -8.5t-11 -12q-7 -8 -11 -29.5t-6 -46t-2.5 -47.5t-0.5 -34v-9q1 -47 1.5 -77t2.5 -51t7.5 -35.5t16.5 -30.5q1 -1 2.5 -4t1.5 -4l53 -49q5 -4 12 -4h4q13 12 29.5 27.5t34 31t35.5 29t35 22.5h4q0 -4 4 -4zM287 437q-3 1 -13 6t-20 11t-18 12 t-8 10v2q1 0 4.5 3t8 7.5t9 8t7.5 5.5h4q5 -3 23.5 -13t39 -21.5t37 -21.5t17.5 -13v-119q0 -53 -2 -103t-6.5 -99.5t-12 -100t-19.5 -104.5q-1 -1 -2.5 -4t-1.5 -4h-5q-8 23 -15.5 51t-13.5 56t-9.5 52t-3.5 39v340zM299 445v-335q0 -11 3 -29t7 -38t8.5 -41t7.5 -38 q2 -5 3 -9t4 -4q2 -1 6.5 18t9.5 45.5t9 54.5t5 45q0 7 0.5 37t1 67.5t1.5 73.5t1 56v73q0 1 -15.5 10t-34.5 19.5t-35.5 19t-19.5 8.5h-5q0 -5 5.5 -9.5t12.5 -9t14.5 -8.5t10.5 -6zM46 215v52q0 24 0.5 49t7 47.5t22.5 40t47 25.5l12 4q4 0 4 -4v-295q0 -10 4.5 -17 t8.5 -16v-2q0 -2 -6 -8.5t-14 -13.5t-15.5 -12t-9.5 -5q-13 0 -24 13.5t-19 31t-13 35t-5 26.5v49zM58 215q0 -10 1.5 -31.5t7 -43.5t15 -38.5t25.5 -16.5h4q4 3 10 9t6 7v310q-23 0 -37 -14t-21.5 -35.5t-9.5 -47t-2 -48.5q0 -16 0.5 -29t0.5 -22zM172 166v13 q0 10 -0.5 20.5t-0.5 19.5v14q0 46 2.5 91t2.5 91v26q0 4 4 4h2q4 0 13.5 -5t20 -11.5t19.5 -13.5t14 -10l4 -4v-235q0 -17 -10 -31t-28 -14q-19 0 -30 14t-13 31z" />
<glyph unicode="r" horiz-adv-x="465" d="M148 57l60 -53q8 0 12 4l106 89q3 1 15.5 10t26 19.5t24.5 21t11 16.5q0 10 -8 10q-9 0 -17 -6.5t-17.5 -14t-22.5 -14t-31 -6.5q-14 0 -25 6.5t-19.5 17t-13 23.5t-4.5 26v203l28 24q11 0 22.5 -19t22 -42t21 -42t19.5 -19h4l93 98l0.5 4t0.5 6t-9.5 23.5t-23 46.5 t-28.5 45.5t-25 20.5q-2 0 -12.5 -10t-24.5 -24l-28.5 -28.5l-23.5 -23.5q-2 -2 -11.5 -10t-12.5 -10h-4q-3 0 -11 17t-21 37.5t-31 37.5t-40 17h-2q-17 -14 -41 -34.5t-45.5 -39.5t-36.5 -33.5t-15 -17.5v-14q13 0 22.5 7t21.5 7t22.5 -9.5t10.5 -23.5v-226q0 -11 -6 -18.5 t-14.5 -13t-18.5 -8.5t-18 -5v-6q0 -5 10 -11t23.5 -11.5t27 -10.5t20.5 -9q9 -6 17.5 -13t19.5 -11zM119 133q0 8 4 17v109q0 10 -0.5 34.5t-1 52.5t-1.5 52.5t-1 34.5q-1 2 -4 10t-4 10v8q5 6 12.5 13t14.5 13t12 10.5t6 4.5h2q7 0 16 -8t16.5 -18.5t12.5 -21.5t5 -17 v-170l-8 -8v-65q6 -2 9.5 -11.5t6.5 -20.5t6.5 -22.5t9.5 -18.5l10 -10t11 -10v-2q0 -3 -5.5 -9t-12.5 -12t-14 -10t-11 -4l-9.5 7t-21.5 16t-22.5 16.5t-13.5 9.5t-13.5 7t-10.5 13zM139 137q2 -3 12.5 -10.5t22.5 -16t23.5 -15t15.5 -6.5q5 0 8.5 3.5t3.5 8.5q0 4 -1 4 q-6 11 -10 18.5t-7 15t-5.5 16.5t-5.5 23l-8 8v81l8 8v150q0 6 -3.5 15t-9 17.5t-12.5 14.5t-14 6h-3t-2 -1l-21 -23v-5q1 -18 2 -62t2.5 -94t2.5 -94t1 -62zM329 445q0 4 1 4l32 32l1.5 0.5t2.5 0.5q3 0 9.5 -8.5t13 -18t11.5 -18t6 -8.5l-36 -41h-2q-4 0 -10.5 7t-13 17 t-11 19t-4.5 14zM350 443v-2q0 -1 2 -5.5t5 -10t6 -9.5t5 -4q8 5 11 7.5t3 8.5q0 8 -5.5 16t-10.5 13h-4q-2 -2 -6.5 -6t-5.5 -6v-2z" />
<glyph unicode="s" horiz-adv-x="457" d="M34 89q54 -13 108 -33.5t99 -55.5l1.5 -0.5t2.5 -0.5q2 0 7 5t11 12.5l12 15t10 13.5q15 16 42.5 37.5t54 46t46 50.5t19.5 52v72q0 18 -14 31.5t-30.5 23.5t-30.5 18t-14 14v6q32 29 50.5 65t18.5 79q0 40 -16.5 71t-44 52.5t-62.5 33t-72 11.5q-26 0 -54 -10.5 t-51 -28.5t-37.5 -42.5t-14.5 -52.5q0 -8 8 -8q3 0 6.5 7.5t7.5 17t7.5 19t6.5 13.5q29 34 61 47.5t75 13.5q23 0 48.5 -7t46.5 -21t35 -34.5t14 -47.5t-21.5 -46t-47.5 -19q-19 0 -38 5.5t-35 15.5q-3 2 -8 6.5t-10.5 9.5t-10 9t-7.5 4q-4 0 -14 -10.5t-22.5 -25.5t-26 -30 t-23.5 -24q-22 -20 -43 -36.5t-37.5 -35.5t-26.5 -42.5t-10 -55.5q0 -27 14 -47.5t30.5 -35t30.5 -23.5t14 -13v-2q-1 -2 -2 -4.5t-2 -3.5l-57 -65q-4 -5 -4 -12v-4zM111 109v4q0 6 5 14t10.5 15t10 11.5l4.5 4.5q11 0 29.5 -7t37 -17t35 -21t22.5 -20q-2 -2 -8 -10t-8 -10 l-12 -12q-1 0 -1.5 -0.5l-0.5 -0.5q-1 0 -1.5 0.5l-0.5 0.5q-29 15 -59.5 27.5t-62.5 20.5zM139 117q23 -7 45.5 -16t43.5 -20h3q6 0 6 8q0 5 -10.5 13.5t-24.5 16.5t-27.5 13.5t-19.5 5.5q-16 0 -16 -19v-2zM152 198q-3 2 -6.5 6t-2.5 4q0 12 11 24.5t27 23t34.5 17.5 t33.5 7q22 0 38.5 -12.5t27.5 -31.5t17 -40.5t6 -40.5q0 -5 -0.5 -12.5t-2.5 -15t-5.5 -13t-9.5 -5.5h-3q-29 35 -75.5 57.5t-89.5 31.5zM329 299q0 4 12.5 14.5t20.5 18.5h2q8 0 16.5 -7t15 -17t11 -21t4.5 -18q0 -6 -3 -17.5t-7.5 -23.5t-11 -21t-13.5 -9h-2l-2 4.5 t-4.5 11.5t-5.5 15t-4 14l-20 40q-4 4 -6.5 9t-2.5 7zM353 293q0 -15 11 -32t16 -31q4 0 7.5 5t6 12t4 13t1.5 9q0 4 -3.5 10.5t-9 13t-11 11t-9.5 4.5q-6 0 -9.5 -4.5t-3.5 -10.5zM50 303q0 9 4 20.5t9 22.5t11 18.5t9 7.5h4q1 -6 8.5 -21l15.5 -31t14.5 -28.5l6.5 -12.5 q0 -10 -10.5 -24.5t-18.5 -19.5q-18 8 -35.5 27.5t-17.5 40.5zM66 305q0 -14 9.5 -24t19.5 -18h4q6 5 9.5 7.5t3.5 8.5q0 1 -4.5 9.5t-10.5 19t-11.5 19t-6.5 9.5q-8 -5 -10.5 -14t-2.5 -17zM123 409v3q0 9 2.5 21.5t14.5 12.5q3 0 15 -8t26.5 -18t29 -19.5t22.5 -12.5 q14 -5 29.5 -7t31.5 -2q8 0 16 0.5t16 0.5l4 -6q0 -8 -11 -18t-14 -12q-23 -20 -41.5 -32.5t-49.5 -12.5q-20 0 -36.5 10.5t-28.5 26.5t-19 35.5t-7 37.5zM196 469l20 21h6q15 0 31 -4t28 -13h78q0 -12 -7.5 -22t-17.5 -18t-20 -12.5t-15 -4.5q-14 0 -29.5 5.5t-30 12.5 t-26 14.5t-17.5 12.5v8zM223 474q0 -9 9.5 -17.5t22.5 -14.5t26.5 -10t20.5 -4t14 12t7 19h-54q-7 10 -21 12.5t-25 2.5z" />
<glyph unicode="t" horiz-adv-x="344" d="M14 113q0 -3 8.5 -7.5t19.5 -9t23 -9.5t18 -10q6 -4 17.5 -16t23.5 -24.5t22.5 -22.5t15.5 -10h2q22 19 41 35.5t38 31.5l38 30t41 33q1 1 2 5.5t2 6.5v4l-6 4q-7 0 -13 -4t-12 -8.5t-12.5 -8.5t-14.5 -4q-18 0 -27 8t-12.5 21.5t-4 31t-0.5 37.5q0 42 1.5 89.5t3.5 96.5 q2 2 6 5t6 3h89q2 17 3 28t1 26v11q0 2 -1.5 4t-2.5 2h-93l-8 10v216q-8 0 -17 -16t-18 -37t-17 -41.5t-13 -28.5q-17 -29 -31 -52t-28.5 -41t-31.5 -31t-39 -22q-17 -7 -21 -10t-4 -17v-5h66l8 -8v-32q0 -6 -1.5 -30t-3 -51t-2.5 -51t-1 -30v-49q-2 -18 -12 -26.5 t-21 -12.5t-19.5 -6t-8.5 -8zM107 122q0 74 4.5 145t4.5 143q0 10 -0.5 19.5t-0.5 19.5q22 21 40.5 46.5t32.5 51.5h6v-77q4 -4 7.5 -8.5t3.5 -6.5l-3 -4t-6 -6q0 -7 -1 -24.5t-1.5 -37.5t-1 -38t-0.5 -25v-186q5 -10 7 -16.5t2 -14.5q0 -3 -4 -8.5t-10 -10t-12 -8t-9 -3.5 t-12.5 6t-20 14.5t-18.5 16.5t-8 12zM123 172v-47l43 -32h2q3 2 7.5 6.5t4.5 5.5v393q-14 -11 -24.5 -26t-24.5 -27q-4 -74 -6 -138.5t-2 -134.5z" />
<glyph unicode="u" d="M26 111q0 -4 6 -8.5t13.5 -8t14 -6t7.5 -3.5q7 -4 22.5 -17t30.5 -27.5t26.5 -25.5l11.5 -11q3 0 15 9.5t26 22t28 24.5t22 17l36 24q5 4 8.5 8t9.5 4q1 0 10.5 -16.5t24 -36t33 -36t37.5 -16.5q3 0 15.5 9.5t30 23.5l37.5 30t37 30q8 7 10 8.5t2 9.5q0 11 -8 11 t-15.5 -6.5t-18.5 -6.5q-15 0 -22.5 16t-10.5 38.5t-2.5 46t0.5 37.5q0 34 2 67t2 68v23q4 14 12 20.5t16 10t14.5 6t6.5 7.5t-4 8q-33 20 -57.5 42t-52.5 51h-8q-24 -25 -53.5 -50t-63.5 -39v-6q0 -6 4.5 -10.5t10 -9.5t10.5 -10.5t7 -11.5v-14q0 -9 0.5 -19.5t0.5 -20.5 v-13q0 -44 -2.5 -86t-2.5 -85v-25q0 -17 -15.5 -27t-29.5 -10q-22 0 -28 21v70q0 49 2.5 97.5t2.5 97.5q0 37 -6.5 67t-34.5 56q-11 10 -20 17.5t-23 7.5q-1 0 -8 -5.5t-17 -13.5t-21 -17.5t-20 -16.5q-5 -5 -17.5 -14.5t-26 -19.5t-23.5 -18.5t-10 -10.5q0 -5 3.5 -5.5 t6.5 -0.5q7 0 12 2t12 2q17 0 24.5 -15.5t10 -36.5t1.5 -42.5t-1 -33.5q0 -35 -1 -69.5t-3 -69.5q-1 -22 -9 -32t-17 -14.5t-16 -6.5t-7 -6zM342 146v105q0 11 0.5 40t1 61t1.5 61t1 40q2 4 9 10t15.5 12t15 11t8.5 7h4q3 0 12.5 -9t16.5 -16.5t8 -8.5v-3q0 -51 -2 -101.5 t-2 -101.5v-47q0 -14 1 -31t2.5 -32.5t3 -26.5t1.5 -13q0 -14 -11.5 -24.5t-25.5 -10.5q-3 0 -8.5 4t-12 9.5t-13 12t-10.5 11.5q-8 8 -9 19.5t-7 21.5zM107 124q0 50 2 98.5t2 98.5q0 34 -2 67.5t-2 66.5l49 43h4q7 0 14 -7t13 -17t9.5 -20.5t3.5 -16.5v-340l-4 -4 q-5 -5 -14 -12.5t-18 -7.5h-4q-8 6 -17 13.5t-17 14.5t-13.5 12t-5.5 7v4zM354 158q4 -7 7.5 -18.5t8.5 -23t12 -20t18 -8.5q8 0 15.5 4t7.5 12v5q-3 26 -4 45.5t-1.5 41.5t0 51t0.5 76v78q0 37 1 52l-4 4q-5 4 -12 8.5l-7 4.5l-38 -25l-0.5 -23.5t-1 -56.5t-1.5 -68t-1 -58 v-41v-40zM160 474q-9 0 -23 -10t-14 -19v-320l4 -4q5 -3 18.5 -14t18.5 -14h4q2 2 8 6t8 6q0 13 1 45t1.5 68.5t1 68.5t0.5 45v93q0 14 -10.5 30t-17.5 19z" />
<glyph unicode="v" horiz-adv-x="461" d="M18 128q0 -6 8.5 -12t20 -11.5t22 -9.5t14.5 -6q9 -5 27 -19.5t36.5 -30t33.5 -27.5t18 -12h2q29 31 58.5 51.5t67.5 37.5q32 15 55.5 19t39 17.5t23 48t7.5 109.5v104q0 30 -1.5 51t-9 38.5t-22 34.5t-40.5 39q-1 0 -3 0.5t-3 0.5q-9 0 -17.5 -5t-17 -12t-17.5 -15 t-19 -13q-4 -3 -14 -10t-21.5 -15t-22.5 -14.5t-15 -9.5h-4q-5 0 -8 8t-6 19t-6 21.5t-8 16.5q-9 11 -26.5 19.5t-34 16.5t-29 16t-12.5 19q0 12 7 18.5t19 10t27.5 4.5t31.5 1h5q0 1 0.5 3t0.5 3q0 10 -13 10q-30 0 -59 -7.5t-52 -23t-37 -39.5t-14 -57q0 -13 3.5 -29.5 t12.5 -25.5l45 -44v-130l-4 -8v-109q0 -11 -7.5 -16t-17 -8t-17 -6.5t-7.5 -11.5zM103 129v324q0 3 -8.5 8.5t-18 14.5t-18 20.5t-8.5 25.5q0 6 2.5 13.5t10.5 7.5q24 -8 45.5 -17t37 -21.5t25 -31.5t9.5 -47q0 -49 -2 -97.5t-2 -97.5v-33q0 -12 0.5 -23.5t3.5 -24.5 q2 -9 10.5 -16t18 -13t17 -12t7.5 -14q0 -3 -4.5 -8.5t-10.5 -10t-12 -8t-9 -3.5h-1q-12 2 -23.5 10.5t-23.5 18.5t-23.5 19.5t-22.5 15.5zM115 142q8 -5 18.5 -14t21.5 -17.5t22 -15t19 -6.5t8 6v2q-11 9 -18.5 16t-12 14.5t-7 16t-2.5 22.5v287q0 13 -11.5 25.5t-27.5 22 t-32.5 15.5t-26.5 6q0 -4 1 -8.5t4 -7.5l44 -45v-319zM208 235q0 47 2 94.5t6 95.5q21 24 52 24q11 0 18 -7.5t10.5 -19.5t5 -26.5t1.5 -27.5q0 -11 -0.5 -21t-0.5 -16v-11q0 -11 -1 -20.5t-6 -20.5v-164q-6 0 -14.5 5.5t-18.5 13.5t-21 17.5t-21 18.5q-8 7 -10 18.5 t-2 23.5v23zM330 138q0 3 -0.5 10.5t-0.5 16.5v16v11v26q0 14 1 28t4 25v63q0 32 -2.5 63t-2.5 63q0 4 4 10t10 11t12.5 9t10.5 4q14 0 24 -12.5t16.5 -30.5t9.5 -38t3 -35v-62q0 -31 -1 -63.5t-8.5 -59t-24.5 -43.5t-50 -17h-1l-2.5 2.5t-1.5 2.5zM368 474q-5 0 -13.5 -6.5 t-8.5 -10.5v-300q28 0 41 22.5t17.5 54t3.5 65t-1 54.5q0 5 -2 24.5t-6.5 41t-12 38.5t-18.5 17z" />
<glyph unicode="w" horiz-adv-x="704" d="M265 115v-2q3 -6 11 -11t17 -9t17 -7t12 -5q8 -4 26.5 -17t37 -27.5t34 -25.5t17.5 -11q5 0 19 15.5t28 29.5q12 11 29 20t31 16q30 13 57.5 19.5t48.5 21t33.5 46t12.5 95.5q0 26 -1 50.5t-1 42.5v81q-8 38 -30 63t-51 50q-1 1 -4 2.5t-4 1.5l-2 1q-1 0 -6.5 -4 t-13 -9.5t-16 -12t-15.5 -11.5q-5 -5 -17 -15.5t-25.5 -21.5t-26.5 -19.5t-22 -8.5h-2q-4 1 -11.5 17.5t-18 36t-25.5 36t-34 16.5q-6 0 -22.5 -11.5t-36 -27t-40 -31t-34.5 -24.5q-8 5 -11.5 10.5t-5 11t-3 10.5t-5.5 9q-8 12 -24 25t-28 23q-8 6 -19 7.5t-21.5 3t-18 6.5 t-7.5 20q0 13 8 20t19.5 10.5t24.5 4.5t23 1h7q0 1 0.5 3t0.5 3q0 8 -5.5 9.5t-12.5 1.5h-10q-27 0 -52 -9t-44.5 -25t-31 -39t-11.5 -51q0 -29 9 -48t31 -39q8 -7 12.5 -9t8.5 -11v-134q0 -7 -0.5 -25t-1.5 -37.5t-1.5 -37.5t-0.5 -25q-1 -10 -6.5 -15t-13.5 -8t-17 -4 t-16 -2v-6q0 -7 7 -12.5t17 -10t19 -8t14 -7.5q17 -14 32 -31.5t24 -37.5h8l13 13l19.5 19.5t19.5 20t13 12.5q4 4 13 8t18 8.5t15.5 9.5t6.5 12q0 6 -3.5 9t-8.5 5.5t-9.5 5t-7.5 7.5q-5 12 -7 25.5t-2 27.5q0 54 2.5 98t2.5 93v28q0 19 15.5 31t33.5 12q15 0 22 -11.5 t9.5 -28t2 -35.5t-0.5 -34q0 -48 -2 -98t-7 -104q-1 -5 -5.5 -9t-9.5 -7.5t-9 -7t-4 -7.5zM330 130v14q0 51 2 102t2 102v101q-1 2 -2.5 8t-1.5 8v4q2 3 7 8.5t11 11t11.5 9.5t10.5 4h4q17 -12 31 -34t14 -43v-291q0 -10 8 -15.5t18 -9t18 -6t8 -6.5v-4l-32 -24l-2.5 -0.5 t-4.5 -0.5q-5 0 -20.5 8t-32.5 18.5t-31.5 20.5t-17.5 15zM103 117v328q0 8 -9 15.5t-19.5 16t-19.5 19t-9 24.5q0 5 3.5 14t11.5 9q8 -6 24.5 -8.5t33.5 -8.5q6 -2 17 -10.5t21.5 -19t18.5 -20.5t8 -15t1 -19t1.5 -29.5t1 -29t0.5 -19.5v-14q0 -52 -2 -101.5t-2 -102.5v-21 q-3 -1 -9 -7l-13 -13l-13 -13t-9 -7h-5zM342 138q10 -5 22.5 -13.5t25.5 -17t25.5 -14.5t22.5 -6q0 8 -5 11t-10.5 5t-10.5 5.5t-5 12.5v292q0 6 -3 17t-8.5 21.5t-12.5 18.5t-15 8q-12 0 -18 -13q0 -12 -0.5 -37t-1.5 -56.5t-2 -66t-2 -66t-1.5 -56.5t-0.5 -37v-4v-4z M115 130l22 -22l35 26q-1 8 -1 29v47q0 28 1 47t1.5 33t1.5 27t1 31v4q0 6 -0.5 19.5t-1.5 29t-1.5 29.5t-0.5 19q0 4 -8 14t-18.5 21t-21.5 20t-17 10l-5 0.5t-11.5 1t-13 1.5t-10.5 1h-4q2 -9 10.5 -17.5t17.5 -16t16.5 -14.5t7.5 -13v-327zM451 224q0 42 2 80.5t2 80.5 v28q3 16 19.5 26.5t32.5 10.5q14 0 21 -10.5t9.5 -26t2.5 -34.5v-35v-16q0 -3 -1.5 -17t-3 -29.5t-2.5 -29.5t-1 -17v-88q0 -5 -1.5 -14t-6.5 -12h-4q-25 13 -39 18t-20.5 10t-8 15.5t-1.5 34.5v25zM568 138v52q0 44 2.5 87t2.5 87v69q-2 8 -3.5 15.5t-1.5 15.5t12 19t19 11 h2q23 -20 38.5 -39t22.5 -50v-49q0 -17 1 -36t1 -39q0 -25 -3.5 -49t-13 -44t-27.5 -34t-47 -20q-5 0 -5 4zM585 465v-21q0 -73 -3 -144t-3 -144q24 0 38 14.5t21.5 36t10 47.5t2.5 50q0 1 0.5 14t0 31.5t-3 39.5t-8.5 39t-16.5 30t-26.5 12q-7 0 -12 -5z" />
<glyph unicode="x" horiz-adv-x="490" d="M10 -18q0 -42 17 -76t45.5 -58t65 -37t76.5 -13q29 0 61.5 6t60 21t45.5 39t18 60q0 21 -13.5 33t-33.5 12q-29 0 -41.5 -11t-17.5 -27t-6.5 -35.5t-7.5 -35.5t-21.5 -27t-47.5 -11q-29 0 -60 10t-57 28t-42.5 44t-16.5 58q0 39 26 65.5t65 26.5q29 0 54 -16t42 -37 q0 -1 2 -1q2 1 20.5 15t48.5 36t58.5 43.5t49 37.5t20.5 18q0 9 -9 9t-17 -4.5t-17 -10t-19.5 -10t-24.5 -4.5q-11 0 -22 4.5t-20.5 12.5t-15.5 18t-6 22v211q0 11 13 24t24 13q14 0 25.5 -17t20.5 -38t16.5 -38t14.5 -17h8l69 69q8 4 14.5 10.5t6.5 14.5t-8 24t-20 35.5 t-24.5 40t-21.5 37.5h-4q-9 0 -25.5 -18t-35.5 -39t-37.5 -39t-29.5 -18q-6 0 -14.5 18t-22 39t-33.5 39t-49 18q-5 0 -9 -0.5t-7 -3.5l-122 -122v-15q7 0 12.5 3t10.5 6.5t10.5 6.5t13.5 3q21 0 32.5 -11t17.5 -27t7.5 -35.5t1.5 -35.5v-19v-49t-1.5 -49t-5 -40t-10.5 -22 q-48 -32 -72.5 -71.5t-24.5 -92.5zM348 -76h2l5 -5t3 -4q0 -5 -4 -12.5t-10 -14.5t-12.5 -12.5t-10.5 -5.5q0 5 1.5 14t4.5 18t8 15.5t13 6.5zM115 90v2q0 5 4.5 9t10.5 7.5t11 7.5t7 10q6 25 7.5 51t1.5 52q0 23 -0.5 45t-0.5 45v39q0 18 -1.5 36.5t-6.5 35.5q-2 4 -6 8.5 t-8 9.5t-7.5 9t-3.5 7v2q2 3 6.5 8t10 11t12 11t12.5 7h4q44 -27 56.5 -63t12.5 -85q0 -38 -2 -77t-2 -78q0 -32 8 -55.5t33 -46.5q0 -3 -6.5 -9t-14 -12t-14 -10.5t-6.5 -5.5h-4q-17 9 -29.5 14.5t-24.5 8.5t-26.5 4t-33.5 2zM160 102q21 -2 38 -11.5t27 -9.5q6 0 13 5 t7 12t-4 14t-8.5 14.5t-8 15.5t-3.5 17v247q0 11 -5 21.5t-12.5 20t-16 17.5t-15.5 14h-6q-15 0 -15 -14q0 -11 5.5 -19.5t7.5 -19.5q3 -23 3.5 -39.5t0.5 -34.5v-33q0 -54 -4 -107t-4 -106v-4zM362 447l29 32h8q2 0 6 -7.5t8.5 -16.5t7.5 -17l3 -8q0 -3 -3.5 -9t-8 -11 t-10 -9t-9.5 -4q-3 0 -8 6.5t-10 15t-9 17t-4 11.5zM382 444l1 -2q1 -1 5 -8.5t9 -7.5q6 0 6 8q0 5 -3 11t-9 6q-3 0 -6 -1.5t-3 -5.5z" />
<glyph unicode="y" horiz-adv-x="478" d="M163 -210q0 -8 11 -8h2q35 13 65 29.5t61 35.5q45 27 75 53.5t48.5 57t27.5 68t12.5 87.5t3.5 115v152q0 32 -3.5 64t-17.5 47l-41 41q-1 1 -3.5 5t-6 8t-7 7.5t-7.5 3.5h-4q-4 -2 -16.5 -10t-16.5 -10q-8 -6 -24.5 -19t-34.5 -27t-34 -24.5t-22 -10.5h-2q-4 0 -4 4 q-5 25 -13.5 42.5t-21 31t-30 24t-41.5 19.5q-1 1 -5.5 4.5t-10 8t-9.5 9t-4 9.5q0 17 15 22.5t33 7.5t33 4.5t15 14.5v3q-31 0 -62.5 -6t-56.5 -21t-41 -40t-16 -62q0 -23 6.5 -44t25.5 -35q8 -5 15 -10t10 -15v-154q0 -7 -0.5 -24t-1.5 -36.5t-1.5 -36.5t-0.5 -24 q-4 -9 -10 -14t-12 -9t-10.5 -8t-4.5 -11q0 -5 8 -11.5t19.5 -14.5t24 -17t21.5 -17q3 -2 9 -8.5t13.5 -13.5t13.5 -13l9 -9h4q8 0 12 4q31 29 60.5 57.5t65.5 51.5v18q-12 0 -22 -7t-21 -7t-16 12t-6 21v113q0 26 -1.5 58t2 59.5t15 46.5t36.5 19q11 0 17.5 -6.5t10 -16 t4.5 -20t1 -18.5v-118q0 -14 -0.5 -50.5t-1.5 -77t-1.5 -77t-0.5 -50.5q-5 -46 -11.5 -77.5t-20.5 -55t-37.5 -42.5t-60.5 -40q-9 -5 -9 -12zM334 -15q0 14 1 50.5t1.5 77t1 77t0.5 50.5v182q-1 4 -2 16.5t-2 16.5v7q0 4 5 9.5t11.5 11t13 9.5t9.5 4l2 -1q21 -13 33.5 -29.5 t18.5 -36t7.5 -41.5t1.5 -44v-28q0 -48 -3.5 -102.5t-5.5 -99.5q-2 -60 -24 -108t-73 -82v16q0 13 0.5 22t3.5 23zM350 459v-72q0 -107 -2 -211.5t-2 -213.5q10 0 17 10t12 17q29 42 37 94.5t8 106.5q0 20 -0.5 38.5t-0.5 36.5v11v8q0 8 0.5 18t0.5 19v16q0 28 -1 47.5 t-5 34.5t-12 27t-23 25h-4q-16 0 -25 -12zM46 528q0 6 3.5 17t11.5 11h2q18 -8 40 -18t41 -24t31.5 -32.5t12.5 -42.5v-333q0 -3 -5.5 -9.5t-12 -12.5t-13 -10.5t-7.5 -4.5l-2 1q-2 1 -8 5.5t-12.5 10t-12.5 10t-8 6.5l-8 8v349q0 7 -8.5 14t-18 15t-18 18t-8.5 22zM64 532 q0 -12 7.5 -20t16 -15t16 -13t7.5 -13v-349l8 -8q2 -1 12.5 -10.5t18.5 -9.5q6 0 12.5 6t9.5 10q0 12 1 41t1.5 62t1 62.5t0.5 41.5v109q-3 20 -13.5 39t-25.5 34t-33.5 24t-39.5 9z" />
<glyph unicode="z" horiz-adv-x="392" d="M10 -14q0 -36 9 -73t28.5 -67t49 -49t71.5 -19q20 0 39 6.5t37 13.5q39 16 65.5 42t42.5 59t23 70.5t7 75.5q0 62 -20 118t-69 96v4q0 11 13.5 14.5t29 5.5t29 5.5t13.5 13.5q0 4 -3.5 5t-7.5 1h-3q-13 0 -25.5 -4.5t-24.5 -10t-24.5 -10t-24.5 -4.5h-12q-7 0 -14.5 1.5 t-13.5 3.5t-9 7q8 8 24 17.5t32.5 21t28.5 26t12 32.5v65q0 7 -11.5 24.5t-26 35.5t-27.5 32t-16 14q-5 0 -14.5 -7.5t-20.5 -17.5t-20.5 -19.5l-12.5 -12.5q-5 -4 -23 -15t-37.5 -25t-35 -28.5t-15.5 -25.5q9 0 16.5 4t15 8.5t15.5 8.5t17 4q15 0 26.5 -8t20 -20.5 t12.5 -27t4 -27.5q0 -26 -10 -41.5t-25 -24t-32 -13.5t-32 -10.5t-25 -13t-10 -22.5q0 -8 6.5 -13.5t14.5 -5.5q12 0 20.5 7t17 15.5t17.5 15.5t23 7q8 0 17 -2t14 -10l-4 -4q-35 -21 -65 -47t-51.5 -57.5t-33.5 -67.5t-12 -77zM66 -4q0 133 106 215q7 5 9 6.5t9 1.5 q10 0 16 -18.5t8 -43t2.5 -50t0.5 -40.5v-34q0 -70 -1 -122t-24 -80q-5 -6 -14 -15.5t-10 -9.5h-41q-13 0 -23 15.5t-17 36t-11 41t-5 29.5q-1 6 -2 18.5t-1.5 24.5t-1 20t-0.5 5zM249 33v113q-1 25 -5.5 46t-4.5 45q10 0 16.5 -6.5t13.5 -11.5q37 -34 61 -85.5t24 -101.5 q0 -27 -8.5 -53t-22.5 -49t-32.5 -42.5t-37.5 -32.5h-9q0 45 2.5 89t2.5 89zM265 -89q-4 -4 -5 -9.5t-1 -10.5h6q9 0 22.5 14.5t25.5 36t20.5 45.5t8.5 44q0 10 -8 38t-20 57t-26.5 51.5t-27.5 22.5q0 -63 2.5 -125t2.5 -125v-39zM216 352q-1 17 -3 29.5t-6 24t-9.5 22.5 t-13.5 25v4q0 1 6 6.5t13 12t13.5 12t7.5 6.5h4q2 0 10 -7.5t16.5 -18.5t15.5 -23.5t7 -23.5q0 -6 -7 -18.5t-16 -24.5t-18 -21.5t-14 -9.5q-1 0 -2 1zM208 451l12 -26q1 -3 2 -9t2.5 -13.5t2.5 -13.5t1 -9h4q5 0 10 4.5t9.5 10.5t7 12t2.5 9q0 4 -3.5 13t-9 18t-11.5 16 t-11 7l-2 -1l-8 -8l-8 -8v-2z" />
<glyph unicode="&#xad;" d="M10 376q0 -8 6 -15.5t10 -13.5q13 -19 27 -38.5t30.5 -35t36.5 -25.5t46 -10q37 0 69 17t62 38t61.5 38t68.5 17q32 0 52 -14.5t41 -38.5l0.5 -0.5t1.5 -0.5q7 0 12.5 6t5.5 13t-4 16.5t-10 18t-12 16l-10 12.5q-33 36 -70.5 58.5t-87.5 22.5q-37 0 -69 -16.5t-62 -36.5 t-60.5 -36.5t-64.5 -16.5q-13 0 -23.5 5t-19 11.5t-14.5 11.5t-10 5q-5 0 -9 -1.5t-4 -6.5zM115 307l4 4q28 7 55 19.5t52.5 27.5l51 30t52.5 28q7 3 10 3.5t10 0.5q4 0 17 -4t26 -9.5t23.5 -11t10.5 -9.5v-2q-41 -1 -72.5 -12.5t-60 -28t-57.5 -35.5t-65 -34h-6 q-14 0 -28.5 11.5t-22.5 21.5zM151 301q0 -5 4 -6t8 -1h3q15 0 32 7.5t33.5 18t31.5 21.5t26 18q20 13 39.5 21.5t41.5 15.5q-4 5 -9 6.5t-11 1.5h-8q-51 -22 -96.5 -50t-94.5 -53z" />
<glyph unicode="&#xdf;" horiz-adv-x="595" d="M119 -84q4 -16 7.5 -38.5t6.5 -43t7 -35t10 -14.5q3 0 7 7t7 16t5 18t3 13l49 287q0 3 0.5 9.5t1 14.5t2 16t4.5 13l12 101l12 73l4 4q17 15 26.5 24t15.5 13.5t10 6t10 1.5q15 0 27 -8t20 -20.5t12.5 -27t4.5 -27.5q0 -29 -10 -45.5t-26.5 -25.5t-38 -14t-43.5 -11 q-6 -5 -11 -13.5t-5 -16.5t6.5 -13.5t13.5 -5.5q12 0 21 7t17 16t17 16t23 7q19 0 39.5 -14t37.5 -34t28 -42.5t11 -39.5v-130q-7 -16 -12 -37t-12.5 -40t-19 -32t-32.5 -13q-8 0 -12.5 1t-12.5 4v4q0 2 4.5 6t10 11t10 16t4.5 21q0 39 -25.5 55.5t-60.5 16.5 q-34 0 -59.5 -19t-25.5 -57q0 -26 17.5 -44.5t43 -30.5t53.5 -18t49 -6q19 0 39.5 7t36.5 13q37 15 61.5 36.5t38.5 48t20 59t6 70.5q0 28 -7.5 60t-21.5 61.5t-35 53.5t-49 37q-14 4 -31.5 6t-21.5 10l4 4q14 9 31 21.5t32 28t25.5 35t10.5 42.5q0 14 -6 31q0 7 -11.5 24.5 t-26 35.5t-27.5 31.5t-16 13.5t-20.5 -13.5t-38.5 -30.5t-40.5 -33t-25.5 -20t-15 -10.5t-17 -12.5t-14.5 -10l-6.5 -4h-4q-1 11 -2.5 25t-5.5 28t-11 26t-18 19l-109 68q-14 9 -23.5 24t-9.5 31q0 10 3.5 18.5t14.5 8.5q12 0 22 -11t22.5 -24t29.5 -24t43 -11 q24 0 40.5 12.5t26.5 32t14 42t4 43.5v8t-1.5 14.5t-6 13.5t-12.5 6h-3v-42q0 -1 -5.5 -5.5t-8.5 -6.5h-4l-53 53q-1 1 -6 2.5t-12 3.5t-13 3.5t-9 2.5h-2q-27 0 -47 -12t-32.5 -31t-18.5 -43t-6 -48q0 -28 4.5 -55.5t4.5 -55.5q0 -27 -8.5 -42t-18 -24t-18 -14.5 t-8.5 -12.5q0 -4 5 -7t7 -4h37q3 0 5 -17t3.5 -39t2 -44t1.5 -33q0 -4 0.5 -11.5l1 -15t1.5 -14t1 -8.5zM261 -97q8 10 20 21.5t26 11.5q15 0 27.5 -10t12.5 -26q0 -5 -2 -13t-5.5 -15.5t-9 -12.5t-12.5 -5q-9 0 -18 5t-16.5 12.5t-13.5 16t-9 15.5zM285 -99l21 -22h1 q11 0 15 8.5t4 16.5q0 6 -5 11t-11 5q-7 0 -16 -6t-9 -13zM496 -72v194q0 6 -3.5 16.5t-7 20t-7 16.5t-3.5 6l0.5 0.5t0.5 1.5q18 -15 31.5 -34.5t23 -42t14 -46.5t4.5 -46q0 -9 -4.5 -29t-13 -40.5t-20 -35.5t-24.5 -15q0 8 3 17t6 17zM512 98v-154q6 4 11 13t8 19.5 t4.5 20.5t1.5 17q0 4 -2 17.5t-5.5 28.5t-7.5 26.5t-8 11.5h-2zM148 -32l-41 288q-1 51 -6.5 100.5t-5.5 100.5v11q0 9 1 17.5t2.5 15t4.5 6.5l8 -4q25 -15 45 -27.5t34 -28.5t21 -38.5t7 -57.5q0 -11 -2 -21.5t-8 -17.5l-14 -113q0 -4 -3 -25l-7 -49t-9.5 -59.5t-9.5 -57.5 t-7 -41.5t-3 -12.5q0 -1 1 6t4 24l-4 -16h-8zM107 456v-2q2 -45 5 -65.5t3 -31.5q0 -3 0.5 -16.5t1.5 -28.5t1.5 -28t0.5 -16q1 -13 5.5 -45t10 -68.5t10.5 -68.5t7 -45q2 5 7 30.5t10 55t9 55t4 29.5l14 114q6 6 7.5 15t1.5 18v18q0 18 -8 34.5t-20.5 30t-29 23.5t-32.5 14 h-4q0 -2 -1.5 -10t-2.5 -10v-2zM419 320q-1 18 -3.5 30.5t-6 23.5t-9 22t-13.5 26q-1 0 -1 2v1t1 1l8 8q4 4 12 11t13.5 11.5t6.5 5.5h4q3 0 11 -7.5t16.5 -18.5t15 -23.5t6.5 -22.5q0 -6 -7 -18.5t-16 -25t-18.5 -22t-13.5 -9.5h-1q0 1 -1 1zM411 420v-2q5 -17 12 -32.5 t12 -37.5q5 0 10 4.5t9.5 11t7 12.5t2.5 9q0 4 -3.5 13t-9 18t-11.5 15.5t-11 6.5h-2l-8 -8l-8 -8v-2zM140 669q-6 4 -16 4t-13 8q13 14 20.5 21.5t24.5 7.5q7 0 20 -8t26 -18.5t24 -21t15 -14.5v-2q0 -4 -4 -10t-9.5 -11t-12 -9t-11.5 -4q-3 0 -11 5.5t-17 14t-19 18.5 t-17 19zM145 693q0 -6 8 -16.5t19 -20.5t22 -17.5t18 -7.5v9l-52 53h-15z" />
<glyph unicode="&#x2c6;" horiz-adv-x="652" d="M10 141q6 -24 21 -43.5t35 -35.5t41.5 -29.5t40.5 -25.5q4 -3 6 -3.5t5 -0.5h6q9 0 29.5 14.5t44.5 32.5t47.5 32.5t38.5 14.5q22 0 40.5 -15t34 -32.5t28 -32.5t22.5 -15q43 29 79 66t76 69q8 4 12.5 8t4.5 12t-6 8q-9 0 -16.5 -6t-15.5 -12.5t-17.5 -12.5t-21.5 -6 q-17 0 -29 13.5t-12 31.5v223q0 6 4 15t12 9h110l4 4q0 1 1.5 13l2.5 20v14q0 8 -1.5 15t-6.5 7h-101q-2 0 -10.5 1.5t-10.5 6.5v14q0 17 4.5 36.5t11.5 36.5t15.5 28t17.5 11h5q0 -10 0.5 -23t4.5 -25t11.5 -20.5t22.5 -8.5t23.5 7.5t12 18t4.5 22t1 19.5q0 20 -14.5 35.5 t-35.5 15.5q-14 0 -24 -6t-18.5 -15t-16.5 -19t-17 -17l-4 4q0 2 -0.5 9.5t-0.5 10.5q0 26 8 42t22 25t32.5 12t39.5 3q6 0 12 -0.5t13 -0.5q4 1 4 7v7q0 3 -5 4.5t-11.5 2t-14.5 0.5h-12q-38 0 -68 -3.5t-56.5 -13.5t-50.5 -27.5t-49 -45.5h-4q-6 0 -9 4l-28 57h-11 q0 -11 4 -21t9 -20t10.5 -20t7.5 -20q3 -14 4 -33t1 -34q0 -35 -11.5 -67t-37.5 -57v-14h48v-265q0 -11 -8.5 -17t-19.5 -8.5t-22.5 -3t-18.5 -0.5q-32 0 -55.5 12.5t-39 33t-23 47.5t-7.5 56q0 12 0.5 45t2 68.5t3.5 63t6 27.5h4q4 0 13 -23.5t19.5 -51.5t21.5 -51.5 t19 -23.5l61 28q1 1 2 2.5t2 2.5v1q0 4 -11.5 30.5t-25 57.5t-25.5 56t-13 25h-2q-32 -11 -65 -21t-65 -20q-35 -11 -55.5 -26.5t-30.5 -37t-12.5 -49t-2.5 -61.5v-89v-89zM42 219v11q2 37 4 80.5t9 81.5q1 10 9 21.5t19 21t23.5 16t23.5 6.5h2q0 -4 4 -4v-2 q0 -43 -2.5 -85.5t-2.5 -85.5q0 -36 3.5 -65t13 -51.5t27 -39.5t46.5 -28v-2q0 -4 -7 -10t-17 -11.5t-20.5 -9.5t-16.5 -4q-1 0 -4 0.5t-4 0.5q-27 15 -47.5 29.5t-34.5 32t-21 41t-7 56.5zM391 118v2q0 6 0.5 26t0.5 46t1 56t1 56t0.5 46t0.5 26v65q-2 5 -7 9t-5 8v3 q0 1 1 7.5t2.5 14t3 14t1.5 8.5q0 6 1 19.5t1.5 29.5t1 29.5t0.5 19.5q2 3 13.5 14t24 23t24 22t13.5 10l2 -1q4 0 4 -4v-198q0 -2 5.5 -5t10.5 -3l1 -2q0 -4 -3.5 -6t-7 -4.5t-7 -7t-3.5 -13.5v-287q0 -10 5.5 -21.5t10.5 -19.5l-36 -32l-7 5t-16 12t-18.5 14.5t-15.5 12.5 l-4 4v2zM59 173q5 -11 17 -27.5t27 -32t30.5 -26.5t28.5 -11q5 0 12 6t10 10q-23 19 -44 47.5t-21 61.5v233q-18 0 -30 -14.5t-19 -35t-10 -43t-3 -38.5q0 -31 -1 -63t3 -67zM407 453v-328q0 -2 7 -7.5t15.5 -11.5t15.5 -10l7 -4h2q5 0 7.5 4.5t2.5 9.5q0 11 -4 23v31 t-0.5 46.5t-0.5 46.5v32q0 90 2.5 179t2.5 179l-49 -45l-8 -4l-0.5 -12t-1 -28.5t-1.5 -34.5t-1 -30v-21q0 -4 0.5 -7t3.5 -8z" />
<glyph unicode="&#x2000;" horiz-adv-x="399" />
<glyph unicode="&#x2001;" horiz-adv-x="798" />
<glyph unicode="&#x2002;" horiz-adv-x="399" />
<glyph unicode="&#x2003;" horiz-adv-x="798" />
<glyph unicode="&#x2004;" horiz-adv-x="266" />
<glyph unicode="&#x2005;" horiz-adv-x="199" />
<glyph unicode="&#x2006;" horiz-adv-x="133" />
<glyph unicode="&#x2007;" horiz-adv-x="133" />
<glyph unicode="&#x2008;" horiz-adv-x="99" />
<glyph unicode="&#x2009;" horiz-adv-x="159" />
<glyph unicode="&#x200a;" horiz-adv-x="44" />
<glyph unicode="&#x2010;" d="M10 376q0 -8 6 -15.5t10 -13.5q13 -19 27 -38.5t30.5 -35t36.5 -25.5t46 -10q37 0 69 17t62 38t61.5 38t68.5 17q32 0 52 -14.5t41 -38.5l0.5 -0.5t1.5 -0.5q7 0 12.5 6t5.5 13t-4 16.5t-10 18t-12 16l-10 12.5q-33 36 -70.5 58.5t-87.5 22.5q-37 0 -69 -16.5t-62 -36.5 t-60.5 -36.5t-64.5 -16.5q-13 0 -23.5 5t-19 11.5t-14.5 11.5t-10 5q-5 0 -9 -1.5t-4 -6.5zM115 307l4 4q28 7 55 19.5t52.5 27.5l51 30t52.5 28q7 3 10 3.5t10 0.5q4 0 17 -4t26 -9.5t23.5 -11t10.5 -9.5v-2q-41 -1 -72.5 -12.5t-60 -28t-57.5 -35.5t-65 -34h-6 q-14 0 -28.5 11.5t-22.5 21.5zM151 301q0 -5 4 -6t8 -1h3q15 0 32 7.5t33.5 18t31.5 21.5t26 18q20 13 39.5 21.5t41.5 15.5q-4 5 -9 6.5t-11 1.5h-8q-51 -22 -96.5 -50t-94.5 -53z" />
<glyph unicode="&#x2011;" d="M10 376q0 -8 6 -15.5t10 -13.5q13 -19 27 -38.5t30.5 -35t36.5 -25.5t46 -10q37 0 69 17t62 38t61.5 38t68.5 17q32 0 52 -14.5t41 -38.5l0.5 -0.5t1.5 -0.5q7 0 12.5 6t5.5 13t-4 16.5t-10 18t-12 16l-10 12.5q-33 36 -70.5 58.5t-87.5 22.5q-37 0 -69 -16.5t-62 -36.5 t-60.5 -36.5t-64.5 -16.5q-13 0 -23.5 5t-19 11.5t-14.5 11.5t-10 5q-5 0 -9 -1.5t-4 -6.5zM115 307l4 4q28 7 55 19.5t52.5 27.5l51 30t52.5 28q7 3 10 3.5t10 0.5q4 0 17 -4t26 -9.5t23.5 -11t10.5 -9.5v-2q-41 -1 -72.5 -12.5t-60 -28t-57.5 -35.5t-65 -34h-6 q-14 0 -28.5 11.5t-22.5 21.5zM151 301q0 -5 4 -6t8 -1h3q15 0 32 7.5t33.5 18t31.5 21.5t26 18q20 13 39.5 21.5t41.5 15.5q-4 5 -9 6.5t-11 1.5h-8q-51 -22 -96.5 -50t-94.5 -53z" />
<glyph unicode="&#x2012;" d="M10 376q0 -8 6 -15.5t10 -13.5q13 -19 27 -38.5t30.5 -35t36.5 -25.5t46 -10q37 0 69 17t62 38t61.5 38t68.5 17q32 0 52 -14.5t41 -38.5l0.5 -0.5t1.5 -0.5q7 0 12.5 6t5.5 13t-4 16.5t-10 18t-12 16l-10 12.5q-33 36 -70.5 58.5t-87.5 22.5q-37 0 -69 -16.5t-62 -36.5 t-60.5 -36.5t-64.5 -16.5q-13 0 -23.5 5t-19 11.5t-14.5 11.5t-10 5q-5 0 -9 -1.5t-4 -6.5zM115 307l4 4q28 7 55 19.5t52.5 27.5l51 30t52.5 28q7 3 10 3.5t10 0.5q4 0 17 -4t26 -9.5t23.5 -11t10.5 -9.5v-2q-41 -1 -72.5 -12.5t-60 -28t-57.5 -35.5t-65 -34h-6 q-14 0 -28.5 11.5t-22.5 21.5zM151 301q0 -5 4 -6t8 -1h3q15 0 32 7.5t33.5 18t31.5 21.5t26 18q20 13 39.5 21.5t41.5 15.5q-4 5 -9 6.5t-11 1.5h-8q-51 -22 -96.5 -50t-94.5 -53z" />
<glyph unicode="&#x2013;" horiz-adv-x="520" d="M10 376q0 -8 5.5 -15.5t9.5 -13.5q12 -19 25.5 -38.5t29 -35t34.5 -25.5t43 -10q35 0 65 17t58.5 38t58 38t64.5 17q31 0 49.5 -14.5t38.5 -38.5l0.5 -0.5t1.5 -0.5q7 0 12 6t5 13t-4 16.5t-9.5 18t-11 16t-9.5 12.5q-31 36 -66.5 58.5t-82.5 22.5q-35 0 -65 -16.5 t-58.5 -36.5t-57 -36.5t-61.5 -16.5q-12 0 -22 5t-18 11.5t-13.5 11.5t-9.5 5t-8 -1.5t-4 -6.5zM109 307l4 4q26 7 51.5 19.5t49.5 27.5l48 30t50 28q6 3 9 3.5t10 0.5q4 0 16 -4t24.5 -9.5t22 -11t9.5 -9.5v-2q-38 -1 -68 -12.5t-56.5 -28t-54 -35.5t-61.5 -34h-6 q-13 0 -26.5 11.5t-21.5 21.5zM143 301q0 -5 4 -6t7 -1h3q14 0 30 7.5t32 18t30 21.5t24 18q19 13 37.5 21.5t39.5 15.5q-4 5 -9 6.5t-10 1.5h-8q-48 -22 -91 -50t-89 -53z" />
<glyph unicode="&#x2014;" horiz-adv-x="1020" d="M10 376q0 -8 11.5 -15.5t18.5 -13.5q25 -19 51.5 -38.5t57.5 -35t68.5 -25.5t86.5 -10q70 0 130.5 17t117 38t116 38t129.5 17q60 0 98 -14.5t77 -38.5l1 -0.5t3 -0.5q13 0 23.5 6t10.5 13t-7.5 16.5t-19 18t-22.5 16t-19 12.5q-62 36 -133 58.5t-165 22.5 q-70 0 -130.5 -16.5t-117 -36.5t-114 -36.5t-121.5 -16.5q-25 0 -44.5 5t-35.5 11.5t-27.5 11.5t-18.5 5q-10 0 -17.5 -1.5t-7.5 -6.5zM208 307l8 4q52 7 103 19.5t99.5 27.5t96.5 30t99 28q13 3 18.5 3.5t19.5 0.5q7 0 31.5 -4t49 -9.5t44.5 -11t20 -9.5v-2 q-78 -1 -137 -12.5t-113 -28t-108.5 -35.5t-122.5 -34h-12q-26 0 -53.5 11.5t-42.5 21.5zM276 301q0 -5 7.5 -6t15.5 -1h5q29 0 61 7.5t63 18t59.5 21.5t48.5 18q38 13 75 21.5t78 15.5q-7 5 -16.5 6.5t-20.5 1.5h-16q-96 -22 -182 -50t-178 -53z" />
<glyph unicode="&#x2018;" horiz-adv-x="141" d="M10 627q6 -20 19.5 -28t32.5 -8q32 0 50.5 18t18.5 51q0 24 -8.5 37t-18 20t-18 9.5t-8.5 5.5q0 8 4.5 14t10 12t10 12.5t4.5 14.5q0 7 -5 9.5t-11 2.5q-13 0 -27 -15.5t-26 -38t-20 -48t-8 -44.5v-24zM46 656q0 8 6 20t16 12t16.5 -11t6.5 -20q0 -8 -8.5 -17t-16.5 -9 t-14 8.5t-6 16.5zM62 664v-8h13v8h-13z" />
<glyph unicode="&#x2019;" horiz-adv-x="141" d="M34 603q0 -8 5 -10t11 -2q13 0 27.5 15.5t26.5 38t19.5 47.5t7.5 44v24q-6 21 -19.5 29t-32.5 8q-32 0 -50.5 -18t-18.5 -51q0 -25 8.5 -38t18 -19.5t18 -8.5t8.5 -6q0 -8 -4.5 -14t-10 -12t-10 -12.5t-4.5 -14.5zM50 730q0 8 8.5 17.5t15.5 9.5q8 0 14.5 -8.5t6.5 -16.5 t-6 -20.5t-16 -12.5t-16.5 11t-6.5 20zM83 738q-9 0 -13.5 -2.5t-4.5 -11.5h18v14z" />
<glyph unicode="&#x201c;" horiz-adv-x="291" d="M10 627q6 -20 19.5 -28t32.5 -8q32 0 51 18t19 51q0 24 -8.5 37t-18.5 19.5t-18.5 9.5t-8.5 6q0 8 4.5 14t10 12t10 12.5t4.5 14.5t-5 10.5t-11 2.5q-13 0 -27 -16t-26 -38.5t-20 -48t-8 -43.5v-25zM160 627q6 -20 19.5 -28t32.5 -8q32 0 50.5 18t18.5 51q0 25 -8.5 38 t-18 19.5t-18 8.5t-8.5 6q0 8 4.5 14t10 12t10 12.5t4.5 14.5t-5 10.5t-11 2.5q-12 0 -26.5 -16t-27 -38.5t-20.5 -47.5t-8 -44q0 -3 0.5 -12.5t0.5 -12.5zM46 656q0 8 6 20t16 12t16.5 -10.5t6.5 -19.5q0 -8 -8 -17.5t-16 -9.5t-14.5 8.5t-6.5 16.5zM196 656q0 8 6 20 t16 12t16.5 -10.5t6.5 -19.5q0 -8 -8.5 -17.5t-16.5 -9.5t-14 8.5t-6 16.5zM57 669q0 -14 4.5 -16.5t18.5 -2.5q0 14 -4.5 16.5t-18.5 2.5zM218 668q-8 0 -9.5 -5.5t-1.5 -12.5q5 0 13.5 1t8.5 8q0 6 -3 7.5t-8 1.5z" />
<glyph unicode="&#x201d;" horiz-adv-x="291" d="M34 603q0 -8 5 -10t11 -2q13 0 27.5 15.5t26.5 38t20 48t8 44.5q0 35 -14.5 48t-38.5 13q-32 0 -50.5 -18t-18.5 -52q0 -25 8.5 -38t18 -19.5t18 -8.5t8.5 -6q0 -8 -4.5 -14t-10 -12t-10 -12.5t-4.5 -14.5zM184 603q0 -8 5 -10t10 -2q13 0 27.5 16t26.5 38.5t20 47.5 t8 44v24q-6 20 -19.5 28.5t-32.5 8.5q-32 0 -51 -18t-19 -52q0 -24 8.5 -37t18 -19.5t18 -9.5t8.5 -6q0 -8 -4.5 -14t-9.5 -12t-9.5 -12.5t-4.5 -14.5zM50 731q0 8 8.5 17t16.5 9t14 -8.5t6 -15.5q0 -9 -6 -21t-16 -12t-16.5 11t-6.5 20zM200 731q0 8 8 17t16 9 q10 0 16 -10.5t6 -18.5q-8 0 -13.5 3.5t-14.5 3.5q0 -8 3 -11t6.5 -4t6.5 -2t3 -5q0 -7 -4.5 -10t-9.5 -3q-11 0 -17 11t-6 20zM71 737v-14q13 0 13 14h-13z" />
<glyph unicode="&#x202f;" horiz-adv-x="159" />
<glyph unicode="&#x205f;" horiz-adv-x="199" />
<glyph unicode="&#xe000;" horiz-adv-x="555" d="M0 555h555v-555h-555v555z" />
</font>
</defs>
</svg>
