<?xml version="1.0" standalone="no"?>
<!DOCTYPE svg PUBLIC "-//W3C//DTD SVG 1.1//EN" "http://www.w3.org/Graphics/SVG/1.1/DTD/svg11.dtd" >
<svg xmlns="http://www.w3.org/2000/svg">
<metadata></metadata>
<defs>
<font id="bellotalight" horiz-adv-x="1230" >
<font-face units-per-em="2048" ascent="1638" descent="-410" />
<missing-glyph horiz-adv-x="567" />
<glyph unicode="&#xfb01;" horiz-adv-x="1034" d="M102 -541v1493q0 231 70 351q40 72 99.5 107.5t144.5 35.5q145 0 221 -88l-64 -66q-56 74 -157 74q-228 0 -228 -408v-47h562v-755q0 -35 25.5 -61.5t60.5 -26.5q40 0 63 26l72 -47q-20 -29 -56 -47t-79 -18q-73 0 -121.5 50t-48.5 124v675h-478v-1372h-86z" />
<glyph unicode="&#xfb02;" horiz-adv-x="1079" d="M123 -545v1493q0 223 70 350q83 144 270 144q138 0 217 -71t86 -202v-1011q0 -36 25 -62t61 -26q41 0 61 26l74 -47q-52 -65 -135 -65q-74 0 -123 50t-49 124v1011q-3 96 -59 144.5t-154 48.5q-128 0 -191 -86q-62 -85 -67 -236v-542h309v-80h-309v-963h-86z" />
<glyph horiz-adv-x="2048" />
<glyph horiz-adv-x="2048" />
<glyph unicode="&#xd;" horiz-adv-x="2048" />
<glyph unicode=" "  horiz-adv-x="567" />
<glyph unicode="&#x09;" horiz-adv-x="567" />
<glyph unicode="&#xa0;" horiz-adv-x="567" />
<glyph unicode="!" horiz-adv-x="354" d="M51 55q0 32 21 53t53 21t54 -21t22 -53t-21.5 -52.5t-54.5 -20.5q-32 0 -53 20.5t-21 52.5zM86 1444h117l-19 -1151h-80z" />
<glyph unicode="&#x22;" horiz-adv-x="614" d="M102 1403h119l-20 -373h-80zM332 1403h119l-19 -373h-82z" />
<glyph unicode="#" horiz-adv-x="1204" d="M55 387v80h238v438h-238v80h238v320h88v-320h377v320h88v-320h239v-80h-239v-438h239v-80h-239v-321h-82v321h-383v-321h-84v321h-242zM381 467h377v438h-377v-438z" />
<glyph unicode="$" horiz-adv-x="1091" d="M53 125l53 78q190 -117 365 -133v602q-86 26 -143.5 53.5t-104.5 71.5q-102 96 -102 241q0 74 29.5 133t80 97t111 60.5t129.5 29.5v182h92v-182q125 -10 232 -53q101 -41 170 -88l-54 -78q-56 37 -139 73q-58 25 -99 37.5t-110 20.5v-533q79 -24 129 -43t109.5 -52.5 t93.5 -71t57 -95.5t23 -131q0 -164 -121 -264q-105 -82 -291 -96v-127h-92v125q-245 16 -418 143zM221 1044q0 -102 68 -167q58 -58 182 -109v506q-127 -8 -188.5 -72.5t-61.5 -157.5zM563 68q138 3 221 69q90 69 90 201q0 127 -90 199q-77 60 -221 104v-573z" />
<glyph unicode="%" horiz-adv-x="1499" d="M63 791q0 131 77 196.5t190 65.5q118 0 188 -71.5t70 -195.5q0 -131 -77.5 -197.5t-188.5 -66.5q-118 0 -188.5 72t-70.5 197zM147 786q0 -83 48.5 -136.5t130.5 -53.5q81 0 129.5 54t48.5 138q0 83 -48 137t-128 54q-83 0 -132 -56t-49 -137zM440 25l445 1015h90 l-443 -1015h-92zM831 293q0 131 77 196.5t190 65.5q118 0 188 -71t70 -195q0 -131 -77.5 -197.5t-188.5 -66.5q-118 0 -188.5 71.5t-70.5 196.5zM915 289q0 -83 48.5 -137t130.5 -54q81 0 129.5 54t48.5 139q0 83 -48 136.5t-128 53.5q-83 0 -132 -55.5t-49 -136.5z" />
<glyph unicode="&#x26;" horiz-adv-x="1288" d="M78 330q0 53 11.5 104.5t37.5 104.5t75.5 100.5t116.5 79.5q-116 125 -116 270q0 142 94 225.5t231 83.5q98 0 175 -45t112 -116l-61 -52q-70 127 -222 127q-109 0 -166 -56.5t-57 -149.5q0 -53 15.5 -100.5t46.5 -88.5t56 -66.5t65 -60.5q229 -207 421 -393 q95 157 95 352v70h82v-74q0 -220 -115 -403l188 -176l-57 -64l-186 172q-75 -93 -190 -142.5t-245 -49.5q-82 0 -153 20.5t-129 61t-91.5 109t-33.5 157.5zM168 340q0 -71 27 -126t73 -87.5t101 -49t116 -16.5q102 0 204.5 43t170.5 123q-37 34 -93.5 86.5t-98.5 91.5 t-92 84.5t-100 89t-97 83.5q-101 -44 -156 -132t-55 -190z" />
<glyph unicode="'" horiz-adv-x="362" d="M88 1403h121l-21 -373h-79z" />
<glyph unicode="(" horiz-adv-x="731" d="M47 600q0 317 140 560t378 374l37 -64q-97 -60 -182 -155.5t-144 -204.5q-61 -115 -96 -248t-35 -260q0 -132 36 -264.5t95 -241.5q126 -233 326 -360l-37 -66q-254 145 -389 400q-129 243 -129 530z" />
<glyph unicode=")" horiz-adv-x="731" d="M88 -276q200 127 326 360q59 109 95 241.5t36 264.5q0 127 -35 260t-96 248q-59 109 -144 204.5t-182 155.5l37 64q238 -131 378 -374t140 -560q0 -315 -140.5 -554.5t-377.5 -375.5z" />
<glyph unicode="*" horiz-adv-x="749" d="M55 1171l29 91l227 -88l-14 249h96l-16 -252l229 91l29 -91l-225 -61l143 -176l-76 -53l-133 202l-133 -204l-74 55l146 178z" />
<glyph unicode="+" horiz-adv-x="862" d="M25 561v78h331v334h86v-334h332v-78h-332v-336h-86v336h-331z" />
<glyph unicode="," horiz-adv-x="360" d="M51 -152q34 37 47 74.5t13 102.5q0 42 -2 71q0 26 14.5 41t40.5 15t38.5 -16t12.5 -40v-41q0 -85 -25 -149q-20 -56 -88 -109z" />
<glyph unicode="-" horiz-adv-x="870" d="M106 582v90h592v-90h-592z" />
<glyph unicode="." horiz-adv-x="389" d="M92 68q0 32 21 52.5t53 20.5q33 0 54.5 -20.5t21.5 -52.5t-22 -53t-54 -21t-53 21t-21 53z" />
<glyph unicode="/" horiz-adv-x="673" d="M31 -143l448 1683h103l-449 -1683h-102z" />
<glyph unicode="0" horiz-adv-x="1325" d="M80 672q0 139 37 262.5t105 218t174 150t235 55.5q130 0 236.5 -56.5t175 -152.5t105 -220.5t36.5 -264.5t-37.5 -263.5t-106.5 -216.5t-174.5 -147.5t-234.5 -54.5q-105 0 -194.5 36.5t-154.5 101t-111 151.5t-68.5 189t-22.5 212zM182 672q0 -118 29.5 -225 t84.5 -192.5t143 -136t196 -50.5q90 0 165 34.5t126.5 92.5t87.5 136.5t52.5 164.5t16.5 178q0 118 -29.5 225t-84.5 190.5t-142 133t-194 49.5q-87 0 -161.5 -33t-127 -90.5t-89.5 -134t-55 -163t-18 -179.5z" />
<glyph unicode="1" horiz-adv-x="716" d="M104 1145q44 3 87 16t104 47.5t95 56.5t122 81q22 14 33 22v-1366h-99v1215q-82 -74 -157 -111.5t-164 -40.5zM545 1368v2h4z" />
<glyph unicode="2" horiz-adv-x="1083" d="M86 2v12q0 81 25 154t75.5 139t110.5 121.5t145 118.5q18 13 60 44.5t64.5 48.5t60 49t59 54.5t49 57t41.5 65.5t24.5 69.5t10.5 78.5q0 121 -82.5 196.5t-218.5 75.5q-125 0 -216.5 -65t-129.5 -183l-72 37q54 146 157 216.5t263 70.5q188 0 287.5 -92t99.5 -258 q0 -70 -20.5 -132.5t-49.5 -107t-82 -95.5t-96 -84.5t-115.5 -88t-117.5 -92.5q-100 -79 -157 -154.5t-75 -165.5h781v-90h-881z" />
<glyph unicode="3" horiz-adv-x="1126" d="M63 164l54 69q88 -80 175.5 -120.5t205.5 -40.5q167 0 277 81t110 228q0 76 -31.5 138t-83 100.5t-113.5 60.5t-129 25h-215v88h213q105 0 193 80.5t88 185.5q0 104 -86.5 164.5t-202.5 60.5q-143 0 -289 -98l-43 76l9 4q87 57 158.5 83.5t162.5 26.5q170 0 283.5 -83.5 t113.5 -219.5q0 -113 -74.5 -204t-187.5 -103l23 -14q54 9 139 -47q82 -52 129 -144.5t47 -198.5q0 -122 -65 -211t-168.5 -131.5t-231.5 -42.5q-253 0 -461 187z" />
<glyph unicode="4" horiz-adv-x="1081" d="M37 266v86l420 1000h108l-418 -996h553v463h101v-463h176v-90h-176v-270h-101v270h-663z" />
<glyph unicode="5" horiz-adv-x="1044" d="M86 131l18 80q98 -69 176 -101t171 -32q179 0 278.5 110.5t99.5 280.5q0 76 -21.5 134.5t-59.5 96.5t-94.5 61.5t-121 33.5t-143.5 10q-161 0 -264 -41v559l670 14v-90l-572 -8v-367q153 21 199 21q231 0 366.5 -117.5t135.5 -322.5q0 -204 -130 -333.5t-325 -129.5 q-119 0 -223 44.5t-160 96.5z" />
<glyph unicode="6" horiz-adv-x="1150" d="M68 492q0 155 60 307t169 274q110 120 255 186.5t310 69.5v-82q-231 -3 -405 -135q-216 -163 -324 -545q74 144 186.5 212.5t243.5 68.5q192 0 326.5 -135.5t134.5 -327.5q0 -126 -61 -232t-169 -167.5t-239 -61.5q-143 0 -254.5 74.5t-172 203.5t-60.5 290zM172 383 q0 -150 111.5 -263.5t273.5 -113.5q157 0 271 111.5t114 269.5q0 156 -112.5 267.5t-268.5 111.5q-107 0 -197.5 -55t-141 -143t-50.5 -185z" />
<glyph unicode="7" horiz-adv-x="976" d="M37 1239v88l842 10l-527 -1335h-102l500 1245z" />
<glyph unicode="8" horiz-adv-x="1120" d="M78 362q0 70 19.5 130t57.5 109t80 86.5t101 78.5q-182 89 -182 270q0 146 104.5 237t265.5 91q163 0 272 -91t109 -229q0 -57 -20 -107.5t-53.5 -88t-67 -63.5t-70.5 -46q133 -49 211 -143.5t78 -237.5q0 -182 -125 -285.5t-328 -103.5q-205 0 -328.5 105.5 t-123.5 287.5zM178 369q0 -145 95.5 -230.5t256.5 -85.5q162 0 257.5 86.5t95.5 227.5q0 66 -23.5 118.5t-57 85.5t-93.5 63t-108 45.5t-126 37.5l-53 14l-19 -16q-127 -105 -176 -177.5t-49 -168.5zM254 1036q0 -156 188 -213l140 -45l32 -8q46 32 73.5 55t58 56t45 71.5 t14.5 83.5q0 103 -79 172.5t-198 69.5t-196.5 -69t-77.5 -173z" />
<glyph unicode="9" horiz-adv-x="1148" d="M66 870q0 191 136 325t335 134q145 0 255.5 -75t169 -204t58.5 -292q0 -161 -60 -310.5t-163 -263.5q-109 -122 -254 -189.5t-316 -70.5v82q230 6 416 150q213 168 297 487q-195 -237 -424 -237q-119 0 -223 63t-165.5 170t-61.5 231zM147 872q0 -157 110.5 -271 t270.5 -114q163 0 276.5 117t113.5 270t-115.5 263t-272.5 110q-154 0 -268.5 -107.5t-114.5 -267.5z" />
<glyph unicode=":" horiz-adv-x="407" d="M72 55q0 32 20.5 53t52.5 21t54 -21t22 -53t-21.5 -52.5t-54.5 -20.5q-32 0 -52.5 20.5t-20.5 52.5zM72 879q0 32 20.5 52.5t52.5 20.5q33 0 54.5 -20.5t21.5 -52.5t-22 -53t-54 -21t-52.5 21t-20.5 53z" />
<glyph unicode=";" horiz-adv-x="374" d="M31 -164q34 37 46.5 73.5t12.5 102.5q0 43 -2 72q0 55 55 55q26 0 39 -15.5t13 -39.5v-41q0 -85 -25 -149q-20 -56 -88 -109zM72 879q0 32 20.5 52.5t52.5 20.5q21 0 38.5 -9t27.5 -26t10 -38q0 -32 -22 -53t-54 -21q-21 0 -38 9.5t-26 26.5t-9 38z" />
<glyph unicode="&#x3c;" horiz-adv-x="772" d="M31 541l526 366l49 -73l-413 -289l417 -291l-53 -78z" />
<glyph unicode="=" horiz-adv-x="917" d="M106 393v80h707v-80h-707zM106 727v80h707v-80h-707z" />
<glyph unicode="&#x3e;" horiz-adv-x="772" d="M98 829l54 78l526 -366l-526 -365l-50 74l414 287z" />
<glyph unicode="?" horiz-adv-x="925" d="M53 1186q0 78 54.5 137.5t136.5 89t174 29.5q107 0 199 -48t150 -142.5t58 -215.5q0 -101 -34 -170q-16 -36 -38.5 -66.5t-54.5 -56.5t-53.5 -41t-60.5 -40q-14 -9 -57 -34.5t-54.5 -33t-37 -25t-40 -31.5t-28.5 -32q-41 -52 -41 -119q0 -24 8 -74l-80 -18q-8 41 -8 92 q0 85 35 143q17 28 40 53t55 47t52.5 34.5t58.5 33.5q85 45 136.5 88.5t81.5 98.5q40 70 40 159q0 136 -98 226t-231 90q-60 0 -124.5 -20.5t-111.5 -60.5t-47 -87q0 -68 80 -74l20 -82h-10q-85 0 -127.5 41t-42.5 109zM246 96q0 35 24.5 60.5t59.5 25.5q37 0 60.5 -24.5 t23.5 -61.5q0 -36 -24 -60t-60 -24q-35 0 -59.5 24.5t-24.5 59.5z" />
<glyph unicode="@" horiz-adv-x="1427" d="M80 479q0 284 166.5 461.5t443.5 177.5q268 0 435 -164.5t167 -416.5q0 -161 -71.5 -257t-204.5 -96q-162 0 -191 144q-73 -115 -194 -115q-107 0 -178.5 88t-71.5 217q0 73 25 132.5t65.5 95.5t88.5 55.5t97 19.5q18 0 66 -6l70 -4h77v-420q10 -67 49.5 -105t98.5 -38 q89 0 140.5 82.5t51.5 212.5q0 220 -146 363t-374 143q-159 0 -279.5 -73t-183.5 -201t-63 -292q0 -249 145 -391.5t402 -142.5q100 0 201 22t173 60l21 -66q-188 -88 -410 -88q-180 0 -317.5 67.5t-218 205t-80.5 329.5zM457 522q0 -36 8.5 -74t26.5 -75t52.5 -60.5 t80.5 -23.5q104 0 155 110l15 31v315h-133q-92 0 -148.5 -63t-56.5 -160z" />
<glyph unicode="A" horiz-adv-x="1579" d="M29 125l92 16q10 -23 31 -38t49 -15q55 0 73 51l549 1268h21l606 -1405h-100l-199 475h-637l-156 -379q-20 -51 -62 -77.5t-95 -26.5q-61 0 -109 36t-63 95zM553 567h559l-244 580v-2l-37 112l-34 -112v2z" />
<glyph unicode="B" horiz-adv-x="1306" d="M27 1235q3 76 62.5 133t135.5 57h465q179 0 293.5 -100.5t114.5 -261.5q0 -93 -40.5 -163.5t-111.5 -106.5q-18 -12 -106 -35l112 -35q209 -115 209 -354q0 -198 -141.5 -292.5t-394.5 -94.5q-137 0 -242 10l-98 10v1335q-102 3 -135 -30q-27 -27 -35 -72h-88zM383 78 q249 -10 250 -10q434 0 434 303q0 153 -105.5 242t-259.5 89h-184v86h170q139 0 226 73.5t87 201.5q0 126 -77.5 197t-204.5 77h-336v-1259z" />
<glyph unicode="C" horiz-adv-x="1505" d="M78 690q0 153 58 294.5t155 245t231.5 165t280.5 61.5q57 0 117.5 -9t124 -31.5t113 -55t81 -85.5t31.5 -118q0 -77 -47 -128.5t-119 -51.5q-49 0 -96 29l53 67q28 -12 45 -12q35 0 58.5 29.5t23.5 68.5q0 50 -43 96q-55 58 -151 86.5t-189 28.5q-173 0 -322 -94.5 t-235 -251t-86 -334.5q0 -130 48.5 -249t132 -207t201.5 -140.5t249 -52.5q149 0 281 67t214 183l70 -47q-100 -142 -249.5 -214.5t-317.5 -72.5q-199 0 -363.5 99t-257 267t-92.5 367z" />
<glyph unicode="D" horiz-adv-x="1640" d="M25 1225q3 74 62 132t138 58h625q307 -28 478 -222t171 -517q0 -358 -222.5 -525t-670.5 -167q-145 0 -237 8l-56 4l-28 4v1327q-102 4 -142 -39q-25 -22 -30 -63h-88zM383 92l14 -14q255 -10 357 -10q144 0 263.5 42t205 120.5t133 197t47.5 266.5q0 276 -156 447.5 t-418 185.5h-446v-1235z" />
<glyph unicode="E" horiz-adv-x="1312" d="M25 1212q3 76 62.5 133.5t135.5 57.5h948v-88h-806v-527h557v-90h-557v-606h806v-90h-905v1313q-50 0 -76 -8t-45 -27q-25 -21 -32 -68h-88z" />
<glyph unicode="F" horiz-adv-x="1228" d="M25 1210q3 76 62.5 133.5t135.5 57.5h948v-88h-806v-527h557v-90h-557v-696h-99v1313q-50 0 -76 -8t-45 -27q-25 -21 -32 -68h-88z" />
<glyph unicode="G" horiz-adv-x="1527" d="M78 676q0 151 58.5 292.5t155.5 244.5t229 165t274 62q56 0 115.5 -8.5t123 -30t113 -53t81.5 -82.5t32 -113q0 -83 -47 -133.5t-121 -50.5q-51 0 -93 26l54 68q23 -10 41 -10q35 0 58.5 29.5t23.5 70.5q0 54 -40 95t-101.5 63t-122.5 32.5t-115 10.5q-170 0 -317 -95 t-232.5 -251.5t-85.5 -333.5q0 -130 49 -250.5t131 -209t196 -141.5t238 -53q196 0 333.5 124t162.5 309v153h90v-991q0 -85 -55 -131.5t-125 -46.5q-87 0 -138 67l78 52q25 -25 62 -25q38 0 61.5 25.5t26.5 58.5v590q-86 -132 -215 -200t-281 -68q-145 0 -276 60.5 t-222.5 161.5t-145.5 236t-54 281z" />
<glyph unicode="H" horiz-adv-x="1421" d="M29 1346q58 67 141 67q74 0 128 -50t54 -130v-457h799v627h98v-1401h-98v684h-799v-684h-100v1231q0 32 -24 56t-56 24q-35 0 -57 -25z" />
<glyph unicode="I" horiz-adv-x="368" d="M106 2v1401h99v-1401h-99z" />
<glyph unicode="J" horiz-adv-x="935" d="M55 346l90 -8q3 -114 76 -184t193 -70q76 0 131.5 28.5t85 75.5t42.5 98t13 107v914q-46 -43 -129 -43q-48 0 -94 12q-25 6 -92.5 34.5t-108.5 28.5q-19 0 -42.5 -5.5t-38 -10.5t-42 -16.5t-35.5 -14.5l-41 82q86 33 123.5 43t75.5 10q23 0 52 -7.5t130 -39.5 q76 -28 117 -28q29 0 65.5 18t53.5 39h96v-1022q0 -79 -21 -147.5t-64 -124.5t-115.5 -88.5t-167.5 -32.5q-90 0 -159 29.5t-109 80.5t-61 111.5t-24 130.5z" />
<glyph unicode="K" horiz-adv-x="1302" d="M106 4v1399h99v-653h104q91 3 145.5 31.5t98.5 82.5q72 89 143 221q38 69 158 318h123q-120 -228 -205 -379q-81 -142 -106 -176q-56 -80 -121 -133l426 -602q26 -37 69 -37q32 0 55.5 20t28.5 51h93q-6 -78 -60.5 -119.5t-120.5 -41.5q-87 0 -141 75l-438 621 q-53 -16 -84.5 -21.5t-85.5 -5.5q-11 0 -36 1t-42 1v-653h-103z" />
<glyph unicode="L" horiz-adv-x="1028" d="M106 2v1401h99v-1311h684v-90h-783z" />
<glyph unicode="M" horiz-adv-x="2074" d="M29 80l84 35q24 -39 69 -39q55 0 74 55l2 2l260 1270h100l435 -1184l37 -131l36 131l437 1184h96l287 -1401h-88l-234 1163l-25 146l-40 -146l2 2l-422 -1165h-103l-418 1163v-2l-40 150l-23 -150l-209 -1038q-12 -60 -57 -98.5t-107 -38.5q-51 0 -90.5 25t-62.5 67z" />
<glyph unicode="N" horiz-adv-x="1589" d="M25 154h88q6 -32 31.5 -52t54.5 -20q36 0 60 26t26 58v1237h57l227 -256l711 -854v2l49 -88v1194h94v-1399h-16l-979 1172v-3l-47 86v-1091q0 -81 -59.5 -126.5t-128.5 -45.5q-65 0 -114.5 46t-53.5 114z" />
<glyph unicode="O" horiz-adv-x="1648" d="M78 678v39q0 146 55 280t149.5 233t228 158.5t282.5 59.5q196 0 361.5 -99.5t260 -267.5t94.5 -364v-39q0 -149 -55 -284t-149 -233t-225.5 -156t-278.5 -58q-197 0 -363.5 99t-263 267t-96.5 365zM166 678q0 -175 86 -324.5t230.5 -236t312.5 -86.5q102 0 197.5 33.5 t172.5 94t135 140.5t89.5 178t31.5 201v39q0 132 -51.5 252t-137 206t-201.5 136.5t-240 50.5q-172 0 -316.5 -90t-226.5 -238t-82 -317v-39z" />
<glyph unicode="P" d="M25 1212q3 76 62.5 133.5t135.5 57.5h482q184 0 285.5 -119t101.5 -311q0 -110 -35.5 -195t-98.5 -136t-142.5 -77t-172.5 -26q-51 0 -143 10v86q85 -6 133 -6q169 0 266.5 82t97.5 260q0 168 -87 253.5t-234 90.5h-291v-1315h-98v1315q-69 0 -94.5 -7t-45.5 -28 q-31 -28 -34 -68h-88z" />
<glyph unicode="Q" horiz-adv-x="1591" d="M78 702q0 207 86 371t243.5 257t360.5 93q204 0 362 -94.5t243 -258.5t85 -370q0 -207 -86.5 -370.5t-243.5 -255t-358 -90.5h-68l-137 -201l185 -62q119 -43 237 -43q50 0 94 14.5t103 53.5l39 -68q-71 -50 -116 -64.5t-106 -14.5q-129 0 -268 45l-217 73l-84 -125 l-67 52l251 354q-257 53 -397.5 245.5t-140.5 458.5zM176 705q0 -180 70.5 -323.5t206.5 -228.5t315 -85q178 0 314.5 84.5t208 228.5t71.5 324t-72 323t-208 226t-312 83q-177 0 -313.5 -82.5t-208.5 -225.5t-72 -324z" />
<glyph unicode="R" horiz-adv-x="1462" d="M25 1212q3 75 63 133t135 58h494q87 0 162 -35q100 -50 158.5 -153t58.5 -230q0 -163 -92 -265.5t-230 -111.5l-129 -6l100 -35q15 -5 38 -21t34 -32l316 -408q27 -38 67 -38q29 0 54.5 21.5t31.5 49.5h90q-4 -71 -53.5 -114t-120.5 -43q-86 0 -143 75l-264 342 q-61 83 -120.5 125.5t-156.5 53.5v88h168q145 0 229 88.5t84 230.5q0 141 -81 235.5t-209 94.5h-328v-1313h-98v1313h-56q-43 0 -76.5 -30t-37.5 -73h-88z" />
<glyph unicode="S" horiz-adv-x="1126" d="M47 281l80 30q59 -128 171 -202t239 -74q156 0 259 103.5t103 246.5q0 55 -16.5 99t-49.5 77.5t-67 57t-84 49.5q-29 15 -78 38t-84.5 39.5t-82 42t-79.5 48t-68 54.5t-56.5 65t-35.5 75.5t-14 89.5q0 144 105.5 236t259.5 92q69 0 127 -18q91 -28 137.5 -84t46.5 -129 q0 -77 -47.5 -124.5t-122.5 -43.5l6 77q34 -3 56 25.5t22 67.5q0 46 -36.5 80t-86.5 48.5t-102 14.5q-114 0 -196.5 -70.5t-82.5 -167.5q0 -49 24 -93.5t59 -76.5t88 -64.5t97.5 -53.5t102.5 -48t88 -43q134 -70 195 -158.5t61 -199.5q0 -117 -57 -217t-160 -159.5 t-229 -59.5q-156 0 -293.5 91.5t-198.5 238.5z" />
<glyph unicode="T" horiz-adv-x="1267" d="M47 1243q3 63 53.5 111.5t114.5 48.5h954v-90h-497v-1311h-99v1311h-352q-33 0 -55 -20.5t-29 -49.5h-90z" />
<glyph unicode="U" horiz-adv-x="1515" d="M25 1350q28 33 68.5 52t82.5 19q91 0 140 -48t49 -142v-684q0 -98 28.5 -183.5t82.5 -151.5t140.5 -104t194.5 -38q92 0 168 28.5t126.5 75t85 109t49.5 129t15 135.5v858h99v-858q0 -85 -19.5 -164.5t-62 -152.5t-104 -127.5t-153 -86.5t-202.5 -32q-131 0 -236.5 45 t-172.5 122.5t-102.5 178.5t-35.5 217v684q-1 52 -28 73t-58 21q-43 0 -74 -31z" />
<glyph unicode="V" horiz-adv-x="1380" d="M29 1298q22 55 67.5 86t102.5 31q54 0 92 -26t53 -70l406 -1198l409 1284h96l-456 -1403h-101l-428 1266q-9 23 -30 37t-45 14q-21 0 -42.5 -12t-33.5 -33z" />
<glyph unicode="W" horiz-adv-x="2299" d="M29 1309q21 55 66 84.5t100 29.5q58 0 103 -33.5t62 -89.5l357 -1107q3 -17 6.5 -35t8 -40t7.5 -34l25 109l389 1212h102l390 -1212l41 -191h-68l-414 1268l-411 -1268h-103l-418 1272q-10 27 -32.5 43t-46.5 16q-52 0 -76 -49zM1686 2v143q0 5 1 11t1 8v2l4 27l389 1212 h94l-455 -1403h-34z" />
<glyph unicode="X" horiz-adv-x="1353" d="M96 1403h109l389 -619l385 619h115l-430 -682l360 -606q23 -35 68 -35q30 0 52 18.5t30 46.5l94 -4q-9 -72 -61.5 -112.5t-123.5 -40.5q-61 0 -98.5 33t-79.5 110l-305 524l-387 -653h-115l428 719z" />
<glyph unicode="Y" horiz-adv-x="1280" d="M25 1278q11 69 63 107t117 38q96 0 151 -94l336 -606l379 682h113l-439 -789v-614h-108l6 610l-369 674q-30 43 -75 43q-26 0 -49.5 -17t-30.5 -44z" />
<glyph unicode="Z" horiz-adv-x="1189" d="M55 18l774 1297h-663v80h807l-735 -1229l92 -16q27 -6 182.5 -50.5t228.5 -44.5q132 0 250 103l58 -58q-76 -69 -148.5 -98t-159.5 -29q-79 0 -166 23t-190.5 56.5t-185.5 47.5l-74 -123z" />
<glyph unicode="[" horiz-adv-x="659" d="M106 -360v1900h469v-90h-370v-1722h370v-88h-469z" />
<glyph unicode="\" horiz-adv-x="673" d="M31 1540h100l451 -1683h-105z" />
<glyph unicode="]" horiz-adv-x="661" d="M20 -272h371v1722h-371v90h469v-1900h-469v88z" />
<glyph unicode="^" horiz-adv-x="907" d="M55 750l355 507h26l352 -507l-79 -58l-291 416l-285 -412z" />
<glyph unicode="_" horiz-adv-x="1169" d="M106 -190h891v-86h-891v86z" />
<glyph unicode="`" horiz-adv-x="501" d="M37 1405l55 78l309 -244l-30 -47z" />
<glyph unicode="a" horiz-adv-x="1239" d="M80 502q0 240 132 386t363 146q115 0 248 -18h103v-860q0 -39 27.5 -63.5t60.5 -24.5q40 0 63 26l72 -47q-49 -65 -133 -65q-75 0 -125.5 51t-50.5 125q0 15 4 39q-81 -215 -332 -215q-106 0 -190 41.5t-136 113.5t-79 165t-27 200zM170 506q0 -85 21.5 -163t62.5 -142 t108.5 -102t151.5 -38q99 0 178 50.5t117 128.5q31 60 31 141v557q-29 -1 -133 7.5t-144 8.5q-186 0 -289.5 -127.5t-103.5 -320.5z" />
<glyph unicode="b" horiz-adv-x="1091" d="M106 20v1469h87v-653q47 101 135 149.5t196 48.5q128 0 225 -66t149 -185t52 -275q0 -89 -17 -165.5t-56 -143.5t-97.5 -114.5t-145.5 -75t-196 -27.5q-202 0 -332 38zM193 82l122 -14q72 -7 121 -7q94 0 168 24.5t121.5 66t78.5 99.5t43.5 120.5t12.5 134.5 q0 106 -26.5 192t-73 141.5t-108.5 85t-134 29.5q-55 0 -109.5 -18.5t-97.5 -50.5q-108 -78 -118 -211v-592z" />
<glyph unicode="c" horiz-adv-x="1044" d="M80 485q0 158 51.5 283.5t152.5 199.5t236 74q145 0 250 -78.5t111 -209.5h-88q-6 102 -83.5 158.5t-181.5 56.5q-74 0 -135.5 -29.5t-102 -78t-69 -112t-41 -130.5t-12.5 -136q0 -192 98.5 -302.5t270.5 -110.5q84 0 160 24.5t165 69.5l39 -64q-169 -110 -364 -110 q-225 0 -341 131.5t-116 363.5z" />
<glyph unicode="d" horiz-adv-x="1239" d="M80 502q0 239 132 385.5t363 146.5q117 0 265 -20v477h86v-1335q0 -34 27 -61t63 -27q38 0 61 26l72 -47q-49 -65 -133 -65q-75 0 -125.5 51t-50.5 125q0 15 4 39q-81 -215 -330 -215q-139 0 -239 71.5t-147.5 187t-47.5 261.5zM170 516q0 -92 22 -173.5t63.5 -144.5 t108.5 -100t150 -37q135 0 230.5 88.5t95.5 231.5v553q-12 0 -85 10t-137 10q-121 0 -209.5 -33t-139.5 -94t-75 -138t-24 -173z" />
<glyph unicode="e" horiz-adv-x="1048" d="M80 469q0 82 15.5 161t50 153t85 129t126 88.5t167.5 33.5q155 0 257 -84t102 -223q0 -148 -119 -227.5t-328 -79.5h-262q37 -359 358 -359q88 0 164 24.5t166 70.5l39 -64q-168 -110 -369 -110q-115 0 -202.5 36.5t-141.5 102t-81 153.5t-27 195zM170 500h266 q78 0 141 12t113 38t77.5 71.5t27.5 107.5q0 111 -78.5 171.5t-186.5 60.5q-77 0 -140.5 -31.5t-104 -81.5t-68 -112.5t-38.5 -122t-9 -113.5z" />
<glyph unicode="f" horiz-adv-x="792" d="M102 -541v1577q0 108 14.5 190.5t49 152.5t99 107.5t157.5 37.5q136 0 210.5 -77t74.5 -222q0 -174 -108 -265.5t-296 -91.5h-115v-368h310v-80h-310v-961h-86zM188 948h115q147 0 230 75.5t83 203.5q0 101 -53.5 159t-144.5 58q-48 0 -86 -16t-62.5 -46t-41 -66 t-25 -84.5t-12 -92.5t-3.5 -97v-94z" />
<glyph unicode="g" horiz-adv-x="1093" d="M80 526q0 99 34.5 191t96.5 163t156 113.5t206 42.5q53 0 127 -6l127 -14h99v-1262q0 -156 -82.5 -248t-218.5 -92q-95 0 -163 48.5t-98 118.5t-30 151q0 160 112 252q-92 15 -165 71q-103 80 -152 214.5t-49 256.5zM162 506q0 -110 41 -211t121 -167.5t180 -66.5 q58 0 117 27q53 25 108.5 72.5t87.5 111.5q27 49 27 90v580l-213 12h-68q-76 0 -141.5 -25.5t-112.5 -69t-80.5 -100.5t-50 -121.5t-16.5 -131.5zM414 -264q0 -95 59 -167.5t162 -72.5q100 0 151 70t58 180v418q-21 -18 -51.5 -45.5t-49.5 -45.5t-20 -18q-24 -22 -103 -66.5 t-83 -47.5q-58 -39 -90.5 -87t-32.5 -118z" />
<glyph unicode="h" horiz-adv-x="1198" d="M106 8v1487h87v-674q67 114 155.5 166.5t210.5 52.5q166 0 246 -80t80 -241v-559q0 -39 26.5 -62.5t61.5 -23.5q38 0 61 26l72 -49q-51 -63 -133 -63q-76 0 -125 49t-49 123v553q0 125 -66.5 186.5t-189.5 61.5q-110 0 -189 -55t-161 -167v-731h-87z" />
<glyph unicode="i" horiz-adv-x="454" d="M29 1366q0 32 20.5 53t52.5 21t54 -21t22 -53t-22 -53t-54 -21t-52.5 21t-20.5 53zM84 156v862h86v-862q0 -37 27.5 -62.5t60.5 -25.5q38 0 61 26l72 -47q-50 -65 -133 -65q-75 0 -124.5 50t-49.5 124z" />
<glyph unicode="j" horiz-adv-x="468" d="M0 -475l72 47q24 -27 61 -27q38 0 63 25.5t25 62.5v1387h86v-1387q0 -74 -49 -124t-125 -50q-82 0 -133 66zM166 1366q0 32 21 53t53 21t53.5 -21t21.5 -53t-21.5 -53t-53.5 -21t-53 21t-21 53z" />
<glyph unicode="k" horiz-adv-x="1179" d="M106 4v1487h87v-717q47 128 139 197t213 69q139 0 223 -83.5t84 -221.5q0 -110 -51.5 -175t-145.5 -116l199 -319q31 -31 70 -31q32 0 53.5 18t26.5 48l88 -4q-9 -64 -57 -108t-113 -44q-44 0 -84.5 21.5t-61.5 60.5l-205 336h-378v-418h-87zM197 502h258q107 0 170 28 q70 30 109.5 85t39.5 128q0 94 -64 157t-169 63q-113 0 -197.5 -75.5t-122.5 -209.5q-27 -95 -24 -176z" />
<glyph unicode="l" horiz-adv-x="503" d="M104 158v1331h86v-1331q0 -38 28 -63t61 -25q35 0 61 26l72 -47q-50 -65 -138 -65q-70 0 -120 51t-50 123z" />
<glyph unicode="m" horiz-adv-x="1830" d="M98 973l52 51q47 -38 70 -86.5t34 -122.5q106 219 338 219q221 0 285 -215q118 215 333 215q142 0 225 -84t83 -229v-567q0 -39 28 -63.5t62 -24.5q36 0 59 26l72 -47q-51 -65 -133 -65q-78 0 -126 50t-48 124v565q-12 235 -224 235q-208 0 -319 -217v-735h-86v688 q0 123 -56.5 193.5t-164.5 70.5q-105 0 -195 -62.5t-125 -152.5v-737h-86v723q0 161 -78 248z" />
<glyph unicode="n" d="M63 973l52 51q87 -65 104 -213q74 119 165.5 171t211.5 52q152 0 232.5 -70.5t89.5 -220.5v-593q0 -39 28.5 -64t61.5 -25q34 0 61 27l70 -47q-51 -66 -133 -66q-78 0 -126.5 50.5t-48.5 124.5v540q0 264 -245 264q-114 0 -197 -56t-164 -165v-731h-84v723q0 161 -78 248 z" />
<glyph unicode="o" d="M80 504q0 231 139.5 380.5t366.5 149.5q225 0 364.5 -147.5t139.5 -380.5q0 -234 -140.5 -379t-365.5 -145q-227 0 -365.5 146t-138.5 376zM170 506q0 -197 113.5 -321t302.5 -124q191 0 302 128t111 325q0 198 -113.5 319t-299.5 121q-194 0 -305 -127.5t-111 -320.5z " />
<glyph unicode="p" horiz-adv-x="1124" d="M63 973l52 51q48 -39 69 -85.5t35 -119.5q39 112 126 163.5t204 51.5q106 0 190.5 -41t137.5 -112.5t80.5 -165t27.5 -201.5q0 -240 -131.5 -386t-364.5 -146q-112 0 -264 20v-545h-84v1268q0 161 -78 248zM225 82q215 -21 254 -21q203 0 309.5 121t106.5 320 q0 123 -39 224.5t-117.5 164.5t-183.5 63q-123 0 -221.5 -79t-108.5 -201v-592z" />
<glyph unicode="q" horiz-adv-x="1093" d="M78 506q0 243 133.5 385.5t392.5 142.5q171 0 318 -39v-1538h-86v725q-40 -100 -127 -150t-201 -50q-137 0 -236 70.5t-146.5 187.5t-47.5 266zM168 518q0 -199 89.5 -328t248.5 -129q125 0 221.5 79t108.5 202v590q-110 20 -224 20q-121 0 -209 -32.5t-138 -92.5 t-73.5 -136t-23.5 -173z" />
<glyph unicode="r" horiz-adv-x="698" d="M84 973l51 51q48 -39 73 -89t34 -122q56 120 143 178q68 43 172 43q28 0 107 -14v-78q-59 10 -103 10q-116 0 -188 -57q-77 -64 -125 -158v-735h-86v723q0 161 -78 248z" />
<glyph unicode="s" horiz-adv-x="886" d="M63 92l43 64q148 -95 306 -95q51 0 96.5 11.5t83.5 34.5t60 64t22 95q0 68 -38.5 115t-115.5 84q-36 17 -92 39t-94.5 36.5t-82.5 38.5t-71 50t-45 66.5t-18 90.5q0 117 82.5 182.5t210.5 65.5q63 0 134 -15t118 -42l-19 -78q-113 55 -235 55q-95 0 -147 -41.5 t-52 -113.5q0 -51 27.5 -90.5t76 -66.5t99 -47t114.5 -46t103 -49q70 -43 103.5 -97.5t33.5 -134.5q0 -75 -30 -131.5t-82.5 -89.5t-116 -49t-136.5 -16q-193 0 -338 110z" />
<glyph unicode="t" horiz-adv-x="720" d="M102 287v989h86v-262h330v-86h-330v-641q0 -110 35 -168t127 -58q61 0 114.5 29.5t88.5 85.5l61 -45q-93 -149 -264 -149q-132 0 -190 78t-58 227z" />
<glyph unicode="u" horiz-adv-x="1261" d="M61 956l48 72q45 -34 74 -62t52 -72t23 -93v-471q0 -264 248 -264q114 0 193 52.5t163 166.5v733h84v-864q0 -39 29 -63.5t61 -24.5q39 0 62 26l71 -49q-51 -63 -131 -63q-79 0 -128.5 51.5t-49.5 130.5q0 11 4 39q-81 -118 -165 -166.5t-205 -48.5q-153 0 -233 70 t-89 220v525q0 25 -10.5 49t-31 45.5t-33.5 32.5t-36 28z" />
<glyph unicode="v" horiz-adv-x="989" d="M63 977l43 67q104 -72 148 -208l235 -719l295 899h84l-331 -1014h-97l-282 858q-12 32 -38.5 64t-56.5 53z" />
<glyph unicode="w" horiz-adv-x="1689" d="M63 979l43 68q98 -70 146 -211l235 -713l293 895h97l290 -895l293 895h86l-329 -1014h-97l-293 895l-292 -895h-99l-278 858q-30 72 -95 117z" />
<glyph unicode="x" horiz-adv-x="1124" d="M88 1018h105l278 -445l268 445h105l-312 -504l261 -420q18 -41 71 -41q33 0 55 20t29 48l88 -4q-7 -70 -55.5 -112t-116.5 -42q-93 0 -147 82l-246 401l-278 -444h-101l320 508z" />
<glyph unicode="y" horiz-adv-x="1116" d="M61 956l48 72q74 -58 111.5 -109t37.5 -118v-471q0 -264 244 -264q103 0 179 44.5t148 131.5q14 21 21.5 41t9 29.5t2.5 31.5v674h84v-1274q0 -162 -81 -250t-214 -88q-93 0 -161.5 45t-100 114t-31.5 152q0 59 15 114t51.5 100t87.5 53q-340 3 -340 292v525 q0 35 -35 78.5t-76 76.5zM438 -279q0 -100 57 -166.5t154 -66.5q98 0 156.5 69.5t58.5 178.5v407l-47 -43q-51 -48 -106 -75l-105 -56q-85 -44 -126.5 -103t-41.5 -145z" />
<glyph unicode="z" horiz-adv-x="1069" d="M70 18l624 916h-549v80h703v-8l-578 -844l185 -66q113 -41 235 -41q51 0 94.5 13.5t104.5 52.5l39 -66q-61 -43 -113.5 -61.5t-120.5 -18.5q-124 0 -254 45l-217 70l-86 -123z" />
<glyph unicode="{" horiz-adv-x="632" d="M59 532v91q57 8 91.5 22t62.5 51q18 23 18 78q0 11 -1 24.5t-2.5 30t-2.5 25.5l-14 123q-21 151 -21 244q0 103 31 151q44 63 118 97t185 57l21 -68q-193 -43 -238 -129q-18 -35 -18 -92q0 -14 1 -29t2.5 -34t2.5 -29l14 -129q21 -164 21 -252q0 -76 -51 -127 q-39 -41 -107 -53l-16 -25q15 6 30 6q36 0 72 -28t57 -70q17 -41 17 -88q0 -25 -8 -103q-1 -15 -18 -163.5t-17 -200.5q0 -43 16 -77.5t40 -56t60.5 -38t67.5 -25t72 -16.5l-21 -68q-40 9 -55.5 12.5t-53 13.5t-58 20t-49 25.5t-49.5 36t-38 46.5q-31 51 -31 131 q0 101 35 385q0 5 3 35.5t3 46.5q0 127 -172 149z" />
<glyph unicode="|" horiz-adv-x="385" d="M106 -143v1683h99v-1683h-99z" />
<glyph unicode="}" horiz-adv-x="630" d="M47 -289q41 8 72 16.5t67.5 25t60.5 38t40 56t16 77.5q0 52 -17 201.5t-18 163.5q-8 78 -8 102q0 49 16 88q21 42 57.5 70.5t72.5 28.5q12 0 30 -7l-16 25q-68 12 -107 53q-13 13 -22.5 26.5t-16 29t-9.5 33t-3 38.5q0 88 21 252l14 129q1 10 2.5 29t2.5 34t1 29 q0 105 -74 152q-63 43 -182 69l21 68q134 -28 223 -78q44 -24 80 -76q30 -47 30 -151q0 -101 -20 -244l-14 -123q-1 -8 -2 -20t-2 -21t-2 -19.5t-1 -19.5q0 -53 19 -77q29 -38 62.5 -52t90.5 -22v-90q-75 -9 -123.5 -44.5t-48.5 -105.5q0 -15 3 -44t4 -38q34 -276 34 -385 q0 -82 -30 -131q-15 -22 -35 -41t-36 -31.5t-45.5 -25t-43.5 -18.5t-50 -15.5t-45 -11.5t-48 -10z" />
<glyph unicode="~" horiz-adv-x="1064" d="M113 598q57 42 105.5 60t113.5 18q74 0 168 -35t151 -35q92 0 172 62l54 -64q-91 -71 -193 -80h-29q-64 0 -164.5 36t-156.5 36q-87 0 -168 -61z" />
<glyph unicode="&#xa1;" horiz-adv-x="436" d="M72 997q0 32 20.5 53t52.5 21t54 -21t22 -53t-21.5 -52.5t-54.5 -20.5q-32 0 -52.5 20.5t-20.5 52.5zM106 -391l19 1151h80l18 -1151h-117z" />
<glyph unicode="&#xa2;" horiz-adv-x="1015" d="M49 645q0 216 101 359q118 160 282 180v217h98v-215q142 -11 234 -96q83 -77 86 -189h-90q-3 82 -58 137q-26 26 -72 48t-100 28v-899q30 2 57 5.5t52.5 10.5t43.5 12.5t43 16.5t35.5 16t37 18.5t32.5 16.5l39 -65q-165 -107 -340 -111v-135h-98v139q-193 23 -288 153 t-95 353zM137 621q0 -164 79 -269.5t216 -130.5v889q-74 -11 -133 -63.5t-94 -120.5q-68 -130 -68 -305z" />
<glyph unicode="&#xa3;" horiz-adv-x="1150" d="M94 635v90h172v276q0 167 92 259q106 98 312 98q125 0 223 -33v-80q-124 33 -240 33q-69 0 -123 -18t-90.5 -52.5t-55.5 -86.5t-19 -120v-276h321v-90h-321v-387l-3 -39l-4 -45q66 -24 109.5 -39t71 -24t47 -14.5t29.5 -7.5t26 -5q75 -11 107 -11q53 0 101 16t105 52 l39 -76q-115 -80 -221 -80q-136 0 -268 45l-166 54q-33 -74 -49 -97l-80 39q19 39 29.5 66.5t19 71t8.5 92.5v389h-172z" />
<glyph unicode="&#xa4;" horiz-adv-x="1425" d="M109 59l213 211q-105 123 -105 318q0 196 107 315l-215 217l69 72l219 -221q127 90 283 90q158 0 285 -90l219 221l69 -72l-213 -217q101 -119 101 -313q0 -189 -103 -316l215 -215l-69 -71l-221 221q-66 -44 -132 -68t-151 -24q-88 0 -154 22.5t-131 65.5l-217 -217z M319 590q0 -182 101 -283q96 -108 262 -108q80 0 147 28q70 31 115 82q98 104 98 285q0 171 -97 277t-263 106q-39 0 -67.5 -4t-41 -8t-41.5 -15q-58 -24 -114 -80q-99 -105 -99 -280z" />
<glyph unicode="&#xa5;" horiz-adv-x="1275" d="M104 1352h109l395 -623l389 623h111l-377 -602h324v-84h-369l-27 -45v-185h398v-80h-398v-354h-96v354h-405v80h401v185l-29 45h-374v84h331z" />
<glyph unicode="&#xa6;" horiz-adv-x="368" d="M104 -143v743h99v-743h-99zM104 797v743h99v-743h-99z" />
<glyph unicode="&#xa7;" horiz-adv-x="817" d="M94 676q0 101 51 168q23 30 48 44t40 9q-75 85 -75 193q0 62 24.5 106.5t79.5 79.5q98 70 293 100l20 -82q-158 -33 -229 -71q-82 -45 -82 -131q0 -92 107 -179q19 -14 87 -60t105 -79q52 -45 75.5 -91.5t23.5 -109.5q0 -109 -52 -176q-20 -23 -88 -63q76 -79 76 -182 q0 -121 -104 -187q-103 -70 -295 -100l-21 82q163 34 230 71q84 46 84 134q0 54 -29.5 95.5t-79.5 80.5q-21 17 -88 61.5t-102 77.5q-53 46 -76 94t-23 115zM195 676q0 -50 22 -86.5t64 -71.5q31 -25 90 -63t82 -58q38 15 64 47t35 62.5t9 60.5q0 82 -88 154q-28 23 -87 63 t-85 62q-49 -25 -77.5 -70.5t-28.5 -99.5z" />
<glyph unicode="&#xa8;" horiz-adv-x="886" d="M96 1311q0 32 21 52.5t53 20.5q33 0 54.5 -20.5t21.5 -52.5t-22 -53t-54 -21t-53 21t-21 53zM561 1311q0 32 21 52.5t53 20.5q33 0 54.5 -20.5t21.5 -52.5t-22 -53t-54 -21t-53 21t-21 53z" />
<glyph unicode="&#xa9;" horiz-adv-x="1501" d="M100 496q0 134 44.5 249t127.5 199q173 176 449 176q271 0 444 -176q172 -175 172 -444q0 -136 -46.5 -250.5t-125.5 -196.5q-168 -176 -448 -176q-271 0 -445 174q-172 172 -172 445zM184 500q0 -251 148 -402q72 -74 173.5 -112.5t213.5 -38.5q119 0 218.5 42.5 t168.5 112.5q71 74 109 180t38 224q0 115 -37.5 219t-109.5 176t-172.5 110t-212.5 38q-114 0 -215 -39t-174 -113q-148 -151 -148 -397zM475 500q0 134 65.5 225.5t182.5 91.5q89 0 139 -29v-67q-75 29 -127 29q-49 0 -85.5 -23.5t-56 -62t-29 -79.5t-9.5 -83 q0 -108 55.5 -176t143.5 -68q75 0 155 53l31 -53q-103 -68 -199 -68q-127 0 -196.5 87t-69.5 223z" />
<glyph unicode="&#xaa;" horiz-adv-x="811" d="M100 1116q0 86 41.5 148.5t108.5 93.5q41 20 96 20q17 0 63.5 -4t61.5 -4h68v-442q0 -11 10.5 -22t23.5 -11q11 0 17 6l53 -33q-27 -34 -72 -34q-40 0 -61.5 19.5t-32.5 59.5q-53 -79 -155 -79q-56 0 -100 26t-70 68.5t-39 90.5t-13 97zM168 1110q0 -78 40.5 -141.5 t110.5 -63.5q50 0 85 30.5t53 68.5l16 30v264l-72 7q-32 4 -41 4q-83 0 -137.5 -55t-54.5 -144z" />
<glyph unicode="&#xab;" horiz-adv-x="1241" d="M92 512q0 34 62 90l419 375l58 -66l-453 -399l453 -399l-58 -66l-419 375q-62 53 -62 90zM530 512q0 35 64 90l418 375l59 -66l-453 -399l453 -399l-59 -66l-420 375q-62 53 -62 90z" />
<glyph unicode="&#xac;" horiz-adv-x="974" d="M84 553v92h723v-336h-100v244h-623z" />
<glyph unicode="&#xad;" horiz-adv-x="1212" d="M86 569v90h592v-90h-592z" />
<glyph unicode="&#xae;" horiz-adv-x="1501" d="M100 864q0 135 44.5 251t127.5 200q171 174 449 174q273 0 444 -174q172 -175 172 -447q0 -264 -172 -444q-172 -178 -446 -178q-273 0 -447 174q-172 172 -172 444zM184 868q0 -248 148 -399q73 -74 174.5 -114t212.5 -40q161 0 283.5 74t186.5 200.5t64 284.5 q0 116 -37.5 220t-109.5 176q-73 73 -173 111t-212 38q-114 0 -215 -39.5t-174 -113.5q-148 -151 -148 -398zM539 504v522q0 28 1 86t1 86l63 4q25 0 64 5t61 5q103 0 165 -54.5t62 -143.5q0 -75 -42 -124.5t-107 -62.5q82 -17 115 -98l73 -178l-71 -31l-62 164 q-23 63 -72 97t-116 34h-62v-311h-73zM612 868h136q65 0 102 40.5t37 97.5q0 65 -47.5 102t-122.5 37q-48 0 -105 -15v-262z" />
<glyph unicode="&#xaf;" horiz-adv-x="882" d="M84 1313v90h651v-90h-651z" />
<glyph unicode="&#xb0;" horiz-adv-x="788" d="M100 1098q0 131 77 196.5t190 65.5q118 0 188 -71t70 -195q0 -131 -78 -198t-189 -67q-118 0 -188 72t-70 197zM184 1094q0 -84 48 -137.5t130 -53.5q81 0 130 54.5t49 138.5q0 83 -48 136.5t-128 53.5q-83 0 -132 -55.5t-49 -136.5z" />
<glyph unicode="&#xb1;" horiz-adv-x="987" d="M88 2v80h748v-80h-748zM88 561v78h330v334h88v-334h330v-78h-330v-336h-88v336h-330z" />
<glyph unicode="&#xb2;" horiz-adv-x="587" d="M86 1255q21 67 69 103.5t119 36.5q79 0 125.5 -43t46.5 -115q0 -36 -10.5 -65.5t-34 -55t-43.5 -42.5t-56.5 -44t-55.5 -43q-36 -30 -55.5 -52.5t-24.5 -47.5h307v-70h-385v25q0 65 38.5 118t109.5 107q3 2 19 13.5t20 14.5t18.5 14t19.5 16t16.5 15.5t16 17.5t12.5 18 t11 20t5.5 20.5t2.5 22.5q0 40 -29.5 66t-73.5 26q-48 0 -84 -28.5t-45 -75.5z" />
<glyph unicode="&#xb3;" horiz-adv-x="610" d="M63 889l43 53q41 -39 73.5 -56.5t80.5 -17.5q59 0 98 29t39 80q0 49 -37.5 79.5t-85.5 33.5h-104v67h102q33 0 65 29t32 63q0 31 -31 51.5t-70 20.5q-60 0 -121 -47l-32 59l16 13q67 45 137 45q72 0 124 -39t52 -99q0 -34 -18 -68.5t-47 -56.5q42 -20 68 -64t26 -95 q0 -79 -60 -124.5t-143 -45.5q-112 0 -207 90z" />
<glyph unicode="&#xb4;" horiz-adv-x="612" d="M92 1239l309 244l58 -78l-336 -213z" />
<glyph unicode="&#xb5;" horiz-adv-x="1058" d="M84 -520v1534h86v-703h2q3 -127 59.5 -188.5t180.5 -61.5q116 0 194 60q82 64 154 166v727h86v-725q0 -156 76 -248l-52 -51q-93 74 -104 223q-133 -231 -354 -231q-159 0 -242 73v-575h-86z" />
<glyph unicode="&#xb6;" horiz-adv-x="1021" d="M29 889q0 204 125 289q125 84 452 84h94l154 -7v-1251h-90v1161h-201v-1161h-94v520q-260 21 -352 107q-88 91 -88 258z" />
<glyph unicode="&#xb7;" horiz-adv-x="430" d="M72 670q0 46 31 78t77 32q47 0 79 -32t32 -78t-32 -78.5t-79 -32.5q-45 0 -76.5 32.5t-31.5 78.5z" />
<glyph unicode="&#xb8;" horiz-adv-x="499" d="M98 -176l19 172h96l-20 -102q74 -4 111.5 -53t37.5 -120q0 -78 -48 -138t-132 -64v82q45 6 72.5 43t27.5 80q0 46 -30.5 73t-84.5 27h-49z" />
<glyph unicode="&#xb9;" horiz-adv-x="417" d="M104 1294q6 -2 15 -2q24 0 54.5 13t51.5 27t74 50h20v-581h-69v469q-61 -46 -127 -43z" />
<glyph unicode="&#xba;" horiz-adv-x="817" d="M100 1147q0 124 77.5 205.5t201.5 81.5q123 0 198.5 -78.5t75.5 -206.5q0 -123 -73 -207q-78 -84 -199 -84q-126 0 -203.5 81.5t-77.5 207.5zM174 1165q0 -114 53 -178q55 -63 148 -63q98 0 155 65q54 66 54 164q0 96 -58.5 155.5t-146.5 59.5q-91 0 -148 -57t-57 -146z " />
<glyph unicode="&#xbb;" horiz-adv-x="1241" d="M109 113l452 399l-452 399l57 66l420 -375q61 -52 61 -90q0 -35 -61 -90l-420 -375zM547 113l452 399l-452 399l59 66l418 -375q63 -57 63 -90t-63 -90l-418 -375z" />
<glyph unicode="&#xbc;" horiz-adv-x="1435" d="M104 930q6 -2 15 -2q24 0 54.5 13t51.5 27t74 50h20v-582h-69v469q-61 -46 -127 -43zM356 2l445 1016h90l-442 -1016h-93zM928 106v54l174 413h78l-168 -397h182v184h72v-184h71v-70h-71v-108h-72v108h-266z" />
<glyph unicode="&#xbd;" horiz-adv-x="1417" d="M104 930q6 -2 15 -2q24 0 54.5 13t51.5 27t74 50h20v-582h-69v469q-61 -46 -127 -43zM356 2l445 1016h90l-442 -1016h-93zM932 430q20 67 68.5 103t119.5 36q79 0 125.5 -42.5t46.5 -114.5q0 -36 -10.5 -65.5t-34 -55t-43.5 -42.5t-56.5 -44t-55.5 -43q-71 -60 -80 -101 h307v-69h-385v24q0 65 38.5 118.5t108.5 107.5q2 2 21 15t23 16.5t20 15.5t21.5 18t17.5 18t16.5 20.5t11 20.5t9 23.5t2.5 24.5q0 40 -29.5 66t-73.5 26q-48 0 -84 -29t-45 -76z" />
<glyph unicode="&#xbe;" horiz-adv-x="1628" d="M102 524l43 54q41 -39 73.5 -56.5t80.5 -17.5q59 0 98 28.5t39 79.5q0 49 -37.5 79.5t-85.5 33.5h-104v68h102q33 0 65 29t32 63q0 31 -31 51t-70 20q-60 0 -121 -47l-32 60q76 57 153 57q73 0 124.5 -38.5t51.5 -98.5q0 -34 -18 -68.5t-47 -56.5q41 -20 67.5 -64.5 t26.5 -95.5q0 -79 -60 -124.5t-143 -45.5q-112 0 -207 90zM549 2l444 1016h90l-442 -1016h-92zM1120 106v54l174 413h78l-168 -397h182v184h72v-184h72v-70h-72v-108h-72v108h-266z" />
<glyph unicode="&#xbf;" horiz-adv-x="1015" d="M127 100q0 99 35 170q16 36 38.5 66.5t54 57t54 42t60.5 39.5q14 9 57 34.5t54.5 33t37 25t40 31.5t28.5 32q41 52 41 119q0 17 -9 73l80 19q9 -46 9 -92q0 -86 -35 -144q-22 -37 -61 -71.5t-66.5 -51t-79.5 -45.5q-85 -45 -136 -88t-81 -98q-41 -71 -41 -160 q0 -135 98.5 -225t231.5 -90q60 0 124.5 20.5t111 60.5t46.5 87q0 67 -80 73l-20 82h10q86 0 128 -40.5t42 -108.5q0 -78 -54 -138t-135.5 -89t-174.5 -29q-107 0 -199 48t-150.5 142t-58.5 215zM539 1040q0 36 24 60t60 24q35 0 59.5 -24.5t24.5 -59.5t-24.5 -60.5 t-59.5 -25.5q-37 0 -60.5 24.5t-23.5 61.5z" />
<glyph unicode="&#xc0;" horiz-adv-x="1579" d="M29 125l92 16q10 -23 31 -38t49 -15q55 0 73 51l549 1268h21l606 -1405h-100l-199 475h-637l-156 -379q-20 -51 -62 -77.5t-95 -26.5q-61 0 -109 36t-63 95zM518 1794l55 78l310 -244l-31 -47zM553 567h559l-244 580v-2l-37 112l-34 -112v2z" />
<glyph unicode="&#xc1;" horiz-adv-x="1579" d="M29 125l92 16q10 -23 31 -38t49 -15q55 0 73 51l549 1268h21l606 -1405h-100l-199 475h-637l-156 -379q-20 -51 -62 -77.5t-95 -26.5q-61 0 -109 36t-63 95zM553 567h559l-244 580v-2l-37 112l-34 -112v2zM795 1628l309 244l57 -78l-336 -213z" />
<glyph unicode="&#xc2;" horiz-adv-x="1579" d="M29 125l92 16q10 -23 31 -38t49 -15q55 0 73 51l549 1268h21l606 -1405h-100l-199 475h-637l-156 -379q-20 -51 -62 -77.5t-95 -26.5q-61 0 -109 36t-63 95zM553 567h559l-244 580v-2l-37 112l-34 -112v2zM557 1655l231 268h89l233 -268h-102l-174 194l-177 -194h-100z " />
<glyph unicode="&#xc3;" horiz-adv-x="1579" d="M29 125l92 16q10 -23 31 -38t49 -15q55 0 73 51l549 1268h21l606 -1405h-100l-199 475h-637l-156 -379q-20 -51 -62 -77.5t-95 -26.5q-61 0 -109 36t-63 95zM483 1741q104 82 203 82q62 0 154.5 -37t138.5 -37q71 0 151 63l52 -63q-55 -43 -96 -60.5t-111 -17.5 q-57 0 -150 35t-137 35q-37 0 -71 -13.5t-82 -50.5zM553 567h559l-244 580v-2l-37 112l-34 -112v2z" />
<glyph unicode="&#xc4;" horiz-adv-x="1579" d="M29 125l92 16q10 -23 31 -38t49 -15q55 0 73 51l549 1268h21l606 -1405h-100l-199 475h-637l-156 -379q-20 -51 -62 -77.5t-95 -26.5q-61 0 -109 36t-63 95zM516 1700q0 32 21 53t53 21t54 -21t22 -53t-22 -53t-54 -21t-53 21t-21 53zM553 567h559l-244 580v-2l-37 112 l-34 -112v2zM981 1700q0 32 21 53t53 21t53.5 -21t21.5 -53t-21.5 -53t-53.5 -21t-53 21t-21 53z" />
<glyph unicode="&#xc5;" horiz-adv-x="1579" d="M29 125l92 16q10 -23 31 -38t49 -15q55 0 73 51l549 1268h21l606 -1405h-100l-199 475h-637l-156 -379q-20 -51 -62 -77.5t-95 -26.5q-61 0 -109 36t-63 95zM553 567h559l-244 580v-2l-37 112l-34 -112v2zM637 1733q0 93 52 147.5t145 54.5t144.5 -53t51.5 -145 q0 -94 -54.5 -148.5t-146.5 -54.5q-91 0 -141.5 53.5t-50.5 145.5zM711 1733q0 -64 33.5 -101t86.5 -37q56 0 91.5 41t35.5 101q0 59 -34.5 97t-89.5 38q-56 0 -89.5 -39t-33.5 -100z" />
<glyph unicode="&#xc6;" horiz-adv-x="1906" d="M29 2l735 1401h960v-90h-809v-525h662v-90h-662v-606h850v-90h-948v475h-424l-246 -475h-118zM434 567h383v819l-51 -167z" />
<glyph unicode="&#xc7;" horiz-adv-x="1505" d="M78 690q0 153 58 294.5t155 245t231.5 165t280.5 61.5q57 0 117.5 -9t124 -31.5t113 -55t81 -85.5t31.5 -118q0 -77 -47 -128.5t-119 -51.5q-49 0 -96 29l53 67q28 -12 45 -12q35 0 58.5 29.5t23.5 68.5q0 50 -43 96q-55 58 -151 86.5t-189 28.5q-173 0 -322 -94.5 t-235 -251t-86 -334.5q0 -130 48.5 -249t132 -207t201.5 -140.5t249 -52.5q149 0 281 67t214 183l70 -47q-100 -142 -249.5 -214.5t-317.5 -72.5q-199 0 -363.5 99t-257 267t-92.5 367zM684 -219l18 172h97l-21 -103q74 -4 112 -52.5t38 -119.5q0 -78 -48 -138t-132 -64v82 q45 6 72.5 43t27.5 80q0 46 -30.5 73t-84.5 27h-49z" />
<glyph unicode="&#xc8;" horiz-adv-x="1312" d="M25 1212q3 76 62.5 133.5t135.5 57.5h948v-88h-806v-527h557v-90h-557v-606h806v-90h-905v1313q-50 0 -76 -8t-45 -27q-25 -21 -32 -68h-88zM393 1790l56 78l309 -244l-31 -47z" />
<glyph unicode="&#xc9;" horiz-adv-x="1312" d="M25 1212q3 76 62.5 133.5t135.5 57.5h948v-88h-806v-527h557v-90h-557v-606h806v-90h-905v1313q-50 0 -76 -8t-45 -27q-25 -21 -32 -68h-88zM670 1624l309 244l57 -78l-336 -213z" />
<glyph unicode="&#xca;" horiz-adv-x="1312" d="M25 1212q3 76 62.5 133.5t135.5 57.5h948v-88h-806v-527h557v-90h-557v-606h806v-90h-905v1313q-50 0 -76 -8t-45 -27q-25 -21 -32 -68h-88zM432 1651l232 268h88l233 -268h-102l-174 194l-177 -194h-100z" />
<glyph unicode="&#xcb;" horiz-adv-x="1312" d="M25 1212q3 76 62.5 133.5t135.5 57.5h948v-88h-806v-527h557v-90h-557v-606h806v-90h-905v1313q-50 0 -76 -8t-45 -27q-25 -21 -32 -68h-88zM391 1696q0 32 21 52.5t53 20.5q21 0 38.5 -9t27.5 -26t10 -38q0 -32 -22 -53t-54 -21t-53 21t-21 53zM856 1696q0 21 9.5 38 t26.5 26t38 9t38.5 -9t27.5 -26t10 -38t-10 -38t-27.5 -26.5t-38.5 -9.5q-32 0 -53 21t-21 53z" />
<glyph unicode="&#xcc;" horiz-adv-x="368" d="M-164 1790l55 78l310 -244l-31 -47zM106 2v1401h99v-1401h-99z" />
<glyph unicode="&#xcd;" horiz-adv-x="368" d="M106 2v1401h99v-1401h-99zM113 1624l309 244l57 -78l-336 -213z" />
<glyph unicode="&#xce;" horiz-adv-x="368" d="M-125 1651l231 268h89l233 -268h-102l-174 194l-177 -194h-100zM106 2v1401h99v-1401h-99z" />
<glyph unicode="&#xcf;" horiz-adv-x="368" d="M-166 1696q0 32 21 52.5t53 20.5q33 0 54.5 -20.5t21.5 -52.5t-22 -53t-54 -21t-53 21t-21 53zM106 2v1401h99v-1401h-99zM299 1696q0 32 21 52.5t53 20.5q33 0 54.5 -20.5t21.5 -52.5t-22 -53t-54 -21t-53 21t-21 53z" />
<glyph unicode="&#xd0;" horiz-adv-x="1640" d="M25 1225q3 74 62.5 132.5t137.5 55.5h625q307 -26 478 -220t171 -517q0 -358 -222.5 -525t-670.5 -167q-145 0 -237 8l-56 4l-28 4v633h-179v90h179v604q-102 4 -142 -39q-25 -22 -30 -63h-88zM383 92l14 -14q255 -10 357 -10q294 0 471.5 165.5t177.5 460.5 q0 276 -156 447.5t-418 185.5h-446v-604h315v-90h-315v-541z" />
<glyph unicode="&#xd1;" horiz-adv-x="1589" d="M25 154h88q6 -32 31.5 -52t54.5 -20q36 0 60 26t26 58v1237h57l227 -256l711 -854v2l49 -88v1194h94v-1399h-16l-979 1172v-3l-47 86v-1091q0 -81 -59.5 -126.5t-128.5 -45.5q-65 0 -114.5 46t-53.5 114zM506 1737q104 82 203 82q62 0 154 -37t138 -37q72 0 152 63 l51 -63q-55 -43 -96 -60.5t-111 -17.5q-57 0 -149.5 35t-136.5 35q-72 0 -154 -64z" />
<glyph unicode="&#xd2;" horiz-adv-x="1648" d="M78 678v39q0 146 55 280t149.5 233t228 158.5t282.5 59.5q196 0 361.5 -99.5t260 -267.5t94.5 -364v-39q0 -149 -55 -284t-149 -233t-225.5 -156t-278.5 -58q-197 0 -363.5 99t-263 267t-96.5 365zM166 678q0 -175 86 -324.5t230.5 -236t312.5 -86.5q102 0 197.5 33.5 t172.5 94t135 140.5t89.5 178t31.5 201v39q0 132 -51.5 252t-137 206t-201.5 136.5t-240 50.5q-172 0 -316.5 -90t-226.5 -238t-82 -317v-39zM475 1790l55 78l310 -244l-31 -47z" />
<glyph unicode="&#xd3;" horiz-adv-x="1648" d="M78 678v39q0 146 55 280t149.5 233t228 158.5t282.5 59.5q196 0 361.5 -99.5t260 -267.5t94.5 -364v-39q0 -149 -55 -284t-149 -233t-225.5 -156t-278.5 -58q-197 0 -363.5 99t-263 267t-96.5 365zM166 678q0 -175 86 -324.5t230.5 -236t312.5 -86.5q102 0 197.5 33.5 t172.5 94t135 140.5t89.5 178t31.5 201v39q0 132 -51.5 252t-137 206t-201.5 136.5t-240 50.5q-172 0 -316.5 -90t-226.5 -238t-82 -317v-39zM752 1624l309 244l57 -78l-336 -213z" />
<glyph unicode="&#xd4;" horiz-adv-x="1648" d="M78 678v39q0 146 55 280t149.5 233t228 158.5t282.5 59.5q196 0 361.5 -99.5t260 -267.5t94.5 -364v-39q0 -149 -55 -284t-149 -233t-225.5 -156t-278.5 -58q-197 0 -363.5 99t-263 267t-96.5 365zM166 678q0 -175 86 -324.5t230.5 -236t312.5 -86.5q102 0 197.5 33.5 t172.5 94t135 140.5t89.5 178t31.5 201v39q0 132 -51.5 252t-137 206t-201.5 136.5t-240 50.5q-172 0 -316.5 -90t-226.5 -238t-82 -317v-39zM514 1651l231 268h89l233 -268h-102l-174 194l-177 -194h-100z" />
<glyph unicode="&#xd5;" horiz-adv-x="1648" d="M78 678v39q0 146 55 280t149.5 233t228 158.5t282.5 59.5q196 0 361.5 -99.5t260 -267.5t94.5 -364v-39q0 -149 -55 -284t-149 -233t-225.5 -156t-278.5 -58q-197 0 -363.5 99t-263 267t-96.5 365zM166 678q0 -175 86 -324.5t230.5 -236t312.5 -86.5q102 0 197.5 33.5 t172.5 94t135 140.5t89.5 178t31.5 201v39q0 132 -51.5 252t-137 206t-201.5 136.5t-240 50.5q-172 0 -316.5 -90t-226.5 -238t-82 -317v-39zM440 1737q104 82 203 82q62 0 154.5 -37t138.5 -37q71 0 151 63l52 -63q-55 -43 -96 -60.5t-111 -17.5q-57 0 -150 35t-137 35 q-37 0 -71 -13.5t-82 -50.5z" />
<glyph unicode="&#xd6;" horiz-adv-x="1648" d="M78 678v39q0 146 55 280t149.5 233t228 158.5t282.5 59.5q196 0 361.5 -99.5t260 -267.5t94.5 -364v-39q0 -149 -55 -284t-149 -233t-225.5 -156t-278.5 -58q-197 0 -363.5 99t-263 267t-96.5 365zM166 678q0 -175 86 -324.5t230.5 -236t312.5 -86.5q102 0 197.5 33.5 t172.5 94t135 140.5t89.5 178t31.5 201v39q0 132 -51.5 252t-137 206t-201.5 136.5t-240 50.5q-172 0 -316.5 -90t-226.5 -238t-82 -317v-39zM473 1696q0 32 21 52.5t53 20.5q33 0 54.5 -20.5t21.5 -52.5t-22 -53t-54 -21t-53 21t-21 53zM938 1696q0 32 21 52.5t53 20.5 t53.5 -20.5t21.5 -52.5t-21.5 -53t-53.5 -21t-53 21t-21 53z" />
<glyph unicode="&#xd7;" horiz-adv-x="1034" d="M109 229l311 312l-297 299l70 69l296 -299l297 299l64 -65l-295 -297l311 -311l-69 -68l-312 311l-311 -313z" />
<glyph unicode="&#xd8;" horiz-adv-x="1648" d="M78 678v39q0 146 55 280t149.5 233t228 158.5t282.5 59.5q181 0 337 -86l35 53l97 -31l-48 -75q137 -103 216 -258.5t79 -333.5v-39q0 -149 -55 -284t-149 -233t-225.5 -156t-278.5 -58q-201 0 -373 104l-88 -143l-98 31l106 170q-126 103 -198 252t-72 317zM166 678 q0 -146 61 -275t166 -221l690 1104q-136 76 -292 76q-172 0 -316.5 -90t-226.5 -238t-82 -317v-39zM473 123q150 -92 322 -92q102 0 197.5 33.5t172.5 94t135 140.5t89.5 178t31.5 201v39q0 156 -68.5 290t-185.5 226z" />
<glyph unicode="&#xd9;" horiz-adv-x="1515" d="M25 1350q28 33 68.5 52t82.5 19q91 0 140 -48t49 -142v-684q0 -98 28.5 -183.5t82.5 -151.5t140.5 -104t194.5 -38q92 0 168 28.5t126.5 75t85 109t49.5 129t15 135.5v858h99v-858q0 -85 -19.5 -164.5t-62 -152.5t-104 -127.5t-153 -86.5t-202.5 -32q-131 0 -236.5 45 t-172.5 122.5t-102.5 178.5t-35.5 217v684q-1 52 -28 73t-58 21q-43 0 -74 -31zM494 1790l55 78l309 -244l-31 -47z" />
<glyph unicode="&#xda;" horiz-adv-x="1515" d="M25 1350q28 33 68.5 52t82.5 19q91 0 140 -48t49 -142v-684q0 -98 28.5 -183.5t82.5 -151.5t140.5 -104t194.5 -38q92 0 168 28.5t126.5 75t85 109t49.5 129t15 135.5v858h99v-858q0 -85 -19.5 -164.5t-62 -152.5t-104 -127.5t-153 -86.5t-202.5 -32q-131 0 -236.5 45 t-172.5 122.5t-102.5 178.5t-35.5 217v684q-1 52 -28 73t-58 21q-43 0 -74 -31zM770 1624l309 244l58 -78l-336 -213z" />
<glyph unicode="&#xdb;" horiz-adv-x="1515" d="M25 1350q28 33 68.5 52t82.5 19q91 0 140 -48t49 -142v-684q0 -98 28.5 -183.5t82.5 -151.5t140.5 -104t194.5 -38q92 0 168 28.5t126.5 75t85 109t49.5 129t15 135.5v858h99v-858q0 -85 -19.5 -164.5t-62 -152.5t-104 -127.5t-153 -86.5t-202.5 -32q-131 0 -236.5 45 t-172.5 122.5t-102.5 178.5t-35.5 217v684q-1 52 -28 73t-58 21q-43 0 -74 -31zM532 1651l232 268h88l233 -268h-102l-174 194l-176 -194h-101z" />
<glyph unicode="&#xdc;" horiz-adv-x="1515" d="M25 1350q28 33 68.5 52t82.5 19q91 0 140 -48t49 -142v-684q0 -98 28.5 -183.5t82.5 -151.5t140.5 -104t194.5 -38q92 0 168 28.5t126.5 75t85 109t49.5 129t15 135.5v858h99v-858q0 -85 -19.5 -164.5t-62 -152.5t-104 -127.5t-153 -86.5t-202.5 -32q-131 0 -236.5 45 t-172.5 122.5t-102.5 178.5t-35.5 217v684q-1 52 -28 73t-58 21q-43 0 -74 -31zM492 1696q0 32 20.5 52.5t52.5 20.5q33 0 54.5 -20.5t21.5 -52.5t-22 -53t-54 -21t-52.5 21t-20.5 53zM956 1696q0 32 21 52.5t53 20.5q33 0 54.5 -20.5t21.5 -52.5t-22 -53t-54 -21t-53 21 t-21 53z" />
<glyph unicode="&#xdd;" horiz-adv-x="1280" d="M25 1278q11 69 63 107t117 38q96 0 151 -94l336 -606l379 682h113l-439 -789v-614h-108l6 610l-369 674q-30 43 -75 43q-26 0 -49.5 -17t-30.5 -44zM645 1624l309 244l58 -78l-336 -213z" />
<glyph unicode="&#xde;" horiz-adv-x="1077" d="M104 2v1401h99v-254h340q182 -11 284.5 -123t102.5 -303q0 -112 -37 -197t-104 -136t-154.5 -76t-194.5 -25q-62 0 -102 6v86q49 -8 108 -8q112 0 198 37t139 119t53 202q0 159 -89.5 246.5t-242.5 87.5h-301v-1063h-99z" />
<glyph unicode="&#xdf;" horiz-adv-x="1040" d="M104 -520v1540q0 107 14.5 189.5t49.5 152.5t100.5 107.5t159.5 37.5q133 0 207 -68t74 -182q0 -59 -11 -101.5t-29 -65.5t-39.5 -39.5t-43.5 -29.5t-40 -28.5t-29 -43t-11 -66.5q0 -49 20 -87.5t54.5 -65.5t70.5 -48.5t79 -48.5t69 -53q96 -101 96 -263 q0 -74 -21.5 -132t-59 -96t-91 -62t-114 -34.5t-132.5 -10.5q-61 0 -262 16h-25v-518h-86zM190 80q149 -19 254 -19q192 0 279.5 59t87.5 195q0 144 -104 240q-31 28 -76.5 57t-78 49.5t-64 48.5t-48 68t-16.5 94q0 61 10.5 101t28 57.5t38 27.5t41 19.5t38 25.5t28 52.5 t10.5 93.5q0 84 -56 131t-138 47q-59 0 -102 -23.5t-68 -60.5t-40 -92.5t-19.5 -107.5t-4.5 -117v-946z" />
<glyph unicode="&#xe0;" horiz-adv-x="1239" d="M80 502q0 240 132 386t363 146q115 0 248 -18h103v-860q0 -39 27.5 -63.5t60.5 -24.5q40 0 63 26l72 -47q-49 -65 -133 -65q-75 0 -125.5 51t-50.5 125q0 15 4 39q-81 -215 -332 -215q-106 0 -190 41.5t-136 113.5t-79 165t-27 200zM170 506q0 -85 21.5 -163t62.5 -142 t108.5 -102t151.5 -38q99 0 178 50.5t117 128.5q31 60 31 141v557q-29 -1 -133 7.5t-144 8.5q-186 0 -289.5 -127.5t-103.5 -320.5zM236 1421l55 78l309 -244l-31 -47z" />
<glyph unicode="&#xe1;" horiz-adv-x="1239" d="M80 502q0 240 132 386t363 146q115 0 248 -18h103v-860q0 -39 27.5 -63.5t60.5 -24.5q40 0 63 26l72 -47q-49 -65 -133 -65q-75 0 -125.5 51t-50.5 125q0 15 4 39q-81 -215 -332 -215q-106 0 -190 41.5t-136 113.5t-79 165t-27 200zM170 506q0 -85 21.5 -163t62.5 -142 t108.5 -102t151.5 -38q99 0 178 50.5t117 128.5q31 60 31 141v557q-29 -1 -133 7.5t-144 8.5q-186 0 -289.5 -127.5t-103.5 -320.5zM512 1255l309 244l58 -78l-336 -213z" />
<glyph unicode="&#xe2;" horiz-adv-x="1239" d="M80 502q0 240 132 386t363 146q115 0 248 -18h103v-860q0 -39 27.5 -63.5t60.5 -24.5q40 0 63 26l72 -47q-49 -65 -133 -65q-75 0 -125.5 51t-50.5 125q0 15 4 39q-81 -215 -332 -215q-106 0 -190 41.5t-136 113.5t-79 165t-27 200zM170 506q0 -85 21.5 -163t62.5 -142 t108.5 -102t151.5 -38q99 0 178 50.5t117 128.5q31 60 31 141v557q-29 -1 -133 7.5t-144 8.5q-186 0 -289.5 -127.5t-103.5 -320.5zM274 1282l232 268h88l233 -268h-102l-174 195l-176 -195h-101z" />
<glyph unicode="&#xe3;" horiz-adv-x="1239" d="M80 502q0 240 132 386t363 146q115 0 248 -18h103v-860q0 -39 27.5 -63.5t60.5 -24.5q40 0 63 26l72 -47q-49 -65 -133 -65q-75 0 -125.5 51t-50.5 125q0 15 4 39q-81 -215 -332 -215q-106 0 -190 41.5t-136 113.5t-79 165t-27 200zM170 506q0 -85 21.5 -163t62.5 -142 t108.5 -102t151.5 -38q99 0 178 50.5t117 128.5q31 60 31 141v557q-29 -1 -133 7.5t-144 8.5q-186 0 -289.5 -127.5t-103.5 -320.5zM201 1368q104 82 202 82q62 0 154.5 -37t138.5 -37q71 0 152 64l51 -64q-55 -43 -96 -60.5t-111 -17.5q-57 0 -149.5 35t-136.5 35 q-37 0 -71.5 -13t-82.5 -50z" />
<glyph unicode="&#xe4;" horiz-adv-x="1239" d="M80 502q0 240 132 386t363 146q115 0 248 -18h103v-860q0 -39 27.5 -63.5t60.5 -24.5q40 0 63 26l72 -47q-49 -65 -133 -65q-75 0 -125.5 51t-50.5 125q0 15 4 39q-81 -215 -332 -215q-106 0 -190 41.5t-136 113.5t-79 165t-27 200zM170 506q0 -85 21.5 -163t62.5 -142 t108.5 -102t151.5 -38q99 0 178 50.5t117 128.5q31 60 31 141v557q-29 -1 -133 7.5t-144 8.5q-186 0 -289.5 -127.5t-103.5 -320.5zM233 1327q0 32 21 53t53 21t54 -21t22 -53t-22 -53t-54 -21t-53 21t-21 53zM698 1327q0 32 21 53t53 21t54 -21t22 -53t-22 -53t-54 -21 t-53 21t-21 53z" />
<glyph unicode="&#xe5;" horiz-adv-x="1239" d="M80 502q0 240 132 386t363 146q115 0 248 -18h103v-860q0 -39 27.5 -63.5t60.5 -24.5q40 0 63 26l72 -47q-49 -65 -133 -65q-75 0 -125.5 51t-50.5 125q0 15 4 39q-81 -215 -332 -215q-106 0 -190 41.5t-136 113.5t-79 165t-27 200zM170 506q0 -85 21.5 -163t62.5 -142 t108.5 -102t151.5 -38q99 0 178 50.5t117 128.5q31 60 31 141v557q-29 -1 -133 7.5t-144 8.5q-186 0 -289.5 -127.5t-103.5 -320.5zM354 1360q0 93 52 148t145 55t145 -53.5t52 -145.5q0 -94 -54.5 -148.5t-146.5 -54.5q-91 0 -142 53.5t-51 145.5zM428 1360 q0 -63 33.5 -100t87.5 -37q56 0 91.5 40.5t35.5 100.5q0 59 -35 97t-90 38q-56 0 -89.5 -39t-33.5 -100z" />
<glyph unicode="&#xe6;" horiz-adv-x="1685" d="M78 262q0 87 35 141q27 45 74 76.5t103 47.5t108 23t106 7h217v133q0 138 -57 201q-58 63 -168 63q-100 0 -179 -34q-69 -24 -133 -72l-41 63q56 48 148 84q97 39 198 39q133 0 201 -59q81 -65 103 -197q59 128 157 197q86 59 203 59q154 0 260.5 -83t106.5 -224 q0 -79 -39 -143q-49 -82 -155.5 -123t-252.5 -41h-262q9 -83 32.5 -146.5t66 -112.5t109.5 -74.5t157 -25.5q86 0 161 25.5t162 69.5l39 -64q-74 -49 -167.5 -79.5t-196.5 -30.5q-146 0 -250 63q-56 36 -93 85t-69 140q-4 -6 -11 -47t-32 -89t-78 -85q-96 -67 -240 -67 q-146 0 -234.5 70.5t-88.5 209.5zM168 258q0 -58 19.5 -99t54 -61.5t70 -28.5t77.5 -8q148 0 238 76q94 82 94 221v123h-217q-141 0 -225 -37q-111 -53 -111 -186zM807 500h266q204 0 291 73q66 58 66 156q0 59 -23 105t-61.5 73t-84.5 40.5t-96 13.5q-166 0 -264 -140 q-49 -68 -73 -152.5t-21 -168.5z" />
<glyph unicode="&#xe7;" horiz-adv-x="1044" d="M80 485q0 158 51.5 283.5t152.5 199.5t236 74q145 0 250 -78.5t111 -209.5h-88q-6 102 -83.5 158.5t-181.5 56.5q-74 0 -135.5 -29.5t-102 -78t-69 -112t-41 -130.5t-12.5 -136q0 -192 98.5 -302.5t270.5 -110.5q84 0 160 24.5t165 69.5l39 -64q-157 -101 -336 -110 l-18 -96q74 -4 111.5 -53t37.5 -120q0 -78 -48 -138t-132 -64v82q45 6 72.5 43t27.5 80q0 46 -30 73t-84 27h-49l18 170q-193 18 -292 147.5t-99 343.5z" />
<glyph unicode="&#xe8;" horiz-adv-x="1048" d="M80 469q0 82 15.5 161t50 153t85 129t126 88.5t167.5 33.5q155 0 257 -84t102 -223q0 -148 -119 -227.5t-328 -79.5h-262q37 -359 358 -359q88 0 164 24.5t166 70.5l39 -64q-168 -110 -369 -110q-115 0 -202.5 36.5t-141.5 102t-81 153.5t-27 195zM170 500h266 q78 0 141 12t113 38t77.5 71.5t27.5 107.5q0 111 -78.5 171.5t-186.5 60.5q-77 0 -140.5 -31.5t-104 -81.5t-68 -112.5t-38.5 -122t-9 -113.5zM203 1421l55 78l309 -244l-30 -47z" />
<glyph unicode="&#xe9;" horiz-adv-x="1048" d="M80 469q0 82 15.5 161t50 153t85 129t126 88.5t167.5 33.5q155 0 257 -84t102 -223q0 -148 -119 -227.5t-328 -79.5h-262q37 -359 358 -359q88 0 164 24.5t166 70.5l39 -64q-168 -110 -369 -110q-115 0 -202.5 36.5t-141.5 102t-81 153.5t-27 195zM170 500h266 q78 0 141 12t113 38t77.5 71.5t27.5 107.5q0 111 -78.5 171.5t-186.5 60.5q-77 0 -140.5 -31.5t-104 -81.5t-68 -112.5t-38.5 -122t-9 -113.5zM479 1255l309 244l58 -78l-336 -213z" />
<glyph unicode="&#xea;" horiz-adv-x="1048" d="M80 469q0 82 15.5 161t50 153t85 129t126 88.5t167.5 33.5q155 0 257 -84t102 -223q0 -148 -119 -227.5t-328 -79.5h-262q37 -359 358 -359q88 0 164 24.5t166 70.5l39 -64q-168 -110 -369 -110q-115 0 -202.5 36.5t-141.5 102t-81 153.5t-27 195zM170 500h266 q78 0 141 12t113 38t77.5 71.5t27.5 107.5q0 111 -78.5 171.5t-186.5 60.5q-77 0 -140.5 -31.5t-104 -81.5t-68 -112.5t-38.5 -122t-9 -113.5zM242 1282l231 268h88l234 -268h-103l-174 195l-176 -195h-100z" />
<glyph unicode="&#xeb;" horiz-adv-x="1048" d="M80 469q0 82 15.5 161t50 153t85 129t126 88.5t167.5 33.5q155 0 257 -84t102 -223q0 -148 -119 -227.5t-328 -79.5h-262q37 -359 358 -359q88 0 164 24.5t166 70.5l39 -64q-168 -110 -369 -110q-115 0 -202.5 36.5t-141.5 102t-81 153.5t-27 195zM170 500h266 q78 0 141 12t113 38t77.5 71.5t27.5 107.5q0 111 -78.5 171.5t-186.5 60.5q-77 0 -140.5 -31.5t-104 -81.5t-68 -112.5t-38.5 -122t-9 -113.5zM201 1327q0 32 20.5 53t52.5 21t54 -21t22 -53t-22 -53t-54 -21t-52.5 21t-20.5 53zM666 1327q0 32 20.5 53t52.5 21t54 -21 t22 -53t-22 -53t-54 -21t-52.5 21t-20.5 53z" />
<glyph unicode="&#xec;" horiz-adv-x="454" d="M-188 1405l55 78l309 -244l-31 -47zM84 156v862h86v-862q0 -37 27.5 -62.5t60.5 -25.5q38 0 61 26l72 -47q-50 -65 -133 -65q-75 0 -124.5 50t-49.5 124z" />
<glyph unicode="&#xed;" horiz-adv-x="454" d="M84 156v862h86v-862q0 -37 27.5 -62.5t60.5 -25.5q38 0 61 26l72 -47q-50 -65 -133 -65q-75 0 -124.5 50t-49.5 124zM88 1239l309 244l58 -78l-336 -213z" />
<glyph unicode="&#xee;" horiz-adv-x="454" d="M-150 1266l232 268h88l233 -268h-102l-174 194l-176 -194h-101zM84 156v862h86v-862q0 -37 27.5 -62.5t60.5 -25.5q38 0 61 26l72 -47q-50 -65 -133 -65q-75 0 -124.5 50t-49.5 124z" />
<glyph unicode="&#xef;" horiz-adv-x="454" d="M-190 1311q0 32 20.5 52.5t52.5 20.5q33 0 54.5 -20.5t21.5 -52.5t-22 -53t-54 -21t-52.5 21t-20.5 53zM84 156v862h86v-862q0 -37 27.5 -62.5t60.5 -25.5q38 0 61 26l72 -47q-50 -65 -133 -65q-75 0 -124.5 50t-49.5 124zM274 1311q0 32 21 52.5t53 20.5 q33 0 54.5 -20.5t21.5 -52.5t-22 -53t-54 -21t-53 21t-21 53z" />
<glyph unicode="&#xf0;" horiz-adv-x="1208" d="M80 502q0 153 57 273t167.5 189.5t258.5 69.5q105 0 246 -26l-66 190l-198 -61l-23 86l191 63l-82 217l92 29l80 -217l203 61l24 -86l-199 -63q131 -385 162 -495t31 -210q0 -259 -119.5 -399.5t-339.5 -140.5q-229 0 -357 144t-128 376zM170 514q0 -205 104.5 -329 t288.5 -124q180 0 274.5 118.5t94.5 316.5q0 166 -94 426q-34 5 -79.5 13.5t-78.5 12.5t-74 4q-215 0 -325.5 -116.5t-110.5 -321.5z" />
<glyph unicode="&#xf1;" d="M63 973l52 51q87 -65 104 -213q74 119 165.5 171t211.5 52q152 0 232.5 -70.5t89.5 -220.5v-593q0 -39 28.5 -64t61.5 -25q34 0 61 27l70 -47q-51 -66 -133 -66q-78 0 -126.5 50.5t-48.5 124.5v540q0 264 -245 264q-114 0 -197 -56t-164 -165v-731h-84v723q0 161 -78 248 zM231 1368q104 82 203 82q62 0 154.5 -37t138.5 -37q71 0 152 64l51 -64q-55 -43 -96 -60.5t-111 -17.5q-57 0 -150 35t-137 35q-37 0 -71 -13t-82 -50z" />
<glyph unicode="&#xf2;" d="M80 504q0 231 139.5 380.5t366.5 149.5q225 0 364.5 -147.5t139.5 -380.5q0 -234 -140.5 -379t-365.5 -145q-227 0 -365.5 146t-138.5 376zM170 506q0 -197 113.5 -321t302.5 -124q191 0 302 128t111 325q0 198 -113.5 319t-299.5 121q-194 0 -305 -127.5t-111 -320.5z M270 1407l56 78l309 -244l-31 -47z" />
<glyph unicode="&#xf3;" d="M80 504q0 231 139.5 380.5t366.5 149.5q225 0 364.5 -147.5t139.5 -380.5q0 -234 -140.5 -379t-365.5 -145q-227 0 -365.5 146t-138.5 376zM170 506q0 -197 113.5 -321t302.5 -124q191 0 302 128t111 325q0 198 -113.5 319t-299.5 121q-194 0 -305 -127.5t-111 -320.5z M547 1241l309 244l57 -78l-335 -213z" />
<glyph unicode="&#xf4;" d="M80 504q0 231 139.5 380.5t366.5 149.5q225 0 364.5 -147.5t139.5 -380.5q0 -234 -140.5 -379t-365.5 -145q-227 0 -365.5 146t-138.5 376zM170 506q0 -197 113.5 -321t302.5 -124q191 0 302 128t111 325q0 198 -113.5 319t-299.5 121q-194 0 -305 -127.5t-111 -320.5z M309 1268l232 268h88l233 -268h-102l-174 194l-176 -194h-101z" />
<glyph unicode="&#xf5;" d="M80 504q0 231 139.5 380.5t366.5 149.5q225 0 364.5 -147.5t139.5 -380.5q0 -234 -140.5 -379t-365.5 -145q-227 0 -365.5 146t-138.5 376zM170 506q0 -197 113.5 -321t302.5 -124q191 0 302 128t111 325q0 198 -113.5 319t-299.5 121q-194 0 -305 -127.5t-111 -320.5z M236 1354q104 82 202 82q62 0 154.5 -37t138.5 -37q72 0 152 63l51 -63q-55 -43 -96 -60.5t-111 -17.5q-57 0 -150 35t-137 35q-37 0 -71 -13.5t-82 -50.5z" />
<glyph unicode="&#xf6;" d="M80 504q0 231 139.5 380.5t366.5 149.5q225 0 364.5 -147.5t139.5 -380.5q0 -234 -140.5 -379t-365.5 -145q-227 0 -365.5 146t-138.5 376zM170 506q0 -197 113.5 -321t302.5 -124q191 0 302 128t111 325q0 198 -113.5 319t-299.5 121q-194 0 -305 -127.5t-111 -320.5z M268 1313q0 32 21 52.5t53 20.5q33 0 54.5 -20.5t21.5 -52.5t-22 -53t-54 -21t-53 21t-21 53zM733 1313q0 32 21 52.5t53 20.5q33 0 54.5 -20.5t21.5 -52.5t-22 -53t-54 -21t-53 21t-21 53z" />
<glyph unicode="&#xf7;" horiz-adv-x="983" d="M86 561v78h748v-78h-748zM365 274q0 32 20.5 53t52.5 21t54 -21t22 -53t-21.5 -52.5t-54.5 -20.5q-32 0 -52.5 20.5t-20.5 52.5zM365 899q0 32 20.5 53t52.5 21t54 -21t22 -53t-22 -53t-54 -21t-52.5 21t-20.5 53z" />
<glyph unicode="&#xf8;" d="M80 502q0 151 61.5 271.5t177.5 190.5t265 70q145 0 252 -61l47 80l75 -47l-55 -78q187 -145 187 -416q0 -129 -43.5 -232.5t-116 -167.5t-162 -98t-186.5 -34q-139 0 -250 63l-47 -80l-76 47l53 76q-91 70 -136.5 179t-45.5 237zM170 500q0 -225 131 -344l487 741 q-64 57 -186 57q-197 0 -314.5 -123.5t-117.5 -330.5zM377 104q99 -45 207 -45q82 0 156.5 31t132.5 88t92 147t34 199q0 221 -133 336z" />
<glyph unicode="&#xf9;" horiz-adv-x="1261" d="M61 956l48 72q45 -34 74 -62t52 -72t23 -93v-471q0 -264 248 -264q114 0 193 52.5t163 166.5v733h84v-864q0 -39 29 -63.5t61 -24.5q39 0 62 26l71 -49q-51 -63 -131 -63q-79 0 -128.5 51.5t-49.5 130.5q0 11 4 39q-81 -118 -165 -166.5t-205 -48.5q-153 0 -233 70 t-89 220v525q0 25 -10.5 49t-31 45.5t-33.5 32.5t-36 28zM217 1405l55 78l310 -244l-31 -47z" />
<glyph unicode="&#xfa;" horiz-adv-x="1261" d="M61 956l48 72q45 -34 74 -62t52 -72t23 -93v-471q0 -264 248 -264q114 0 193 52.5t163 166.5v733h84v-864q0 -39 29 -63.5t61 -24.5q39 0 62 26l71 -49q-51 -63 -131 -63q-79 0 -128.5 51.5t-49.5 130.5q0 11 4 39q-81 -118 -165 -166.5t-205 -48.5q-153 0 -233 70 t-89 220v525q0 25 -10.5 49t-31 45.5t-33.5 32.5t-36 28zM494 1239l309 244l57 -78l-336 -213z" />
<glyph unicode="&#xfb;" horiz-adv-x="1261" d="M61 956l48 72q45 -34 74 -62t52 -72t23 -93v-471q0 -264 248 -264q114 0 193 52.5t163 166.5v733h84v-864q0 -39 29 -63.5t61 -24.5q39 0 62 26l71 -49q-51 -63 -131 -63q-79 0 -128.5 51.5t-49.5 130.5q0 11 4 39q-81 -118 -165 -166.5t-205 -48.5q-153 0 -233 70 t-89 220v525q0 25 -10.5 49t-31 45.5t-33.5 32.5t-36 28zM256 1266l231 268h88l234 -268h-102l-175 194l-176 -194h-100z" />
<glyph unicode="&#xfc;" horiz-adv-x="1261" d="M61 956l48 72q45 -34 74 -62t52 -72t23 -93v-471q0 -264 248 -264q114 0 193 52.5t163 166.5v733h84v-864q0 -39 29 -63.5t61 -24.5q39 0 62 26l71 -49q-51 -63 -131 -63q-79 0 -128.5 51.5t-49.5 130.5q0 11 4 39q-81 -118 -165 -166.5t-205 -48.5q-153 0 -233 70 t-89 220v525q0 25 -10.5 49t-31 45.5t-33.5 32.5t-36 28zM215 1311q0 32 21 52.5t53 20.5q33 0 54.5 -20.5t21.5 -52.5t-22 -53t-54 -21t-53 21t-21 53zM680 1311q0 32 21 52.5t53 20.5t53.5 -20.5t21.5 -52.5t-21.5 -53t-53.5 -21t-53 21t-21 53z" />
<glyph unicode="&#xfd;" horiz-adv-x="1116" d="M61 956l48 72q74 -58 111.5 -109t37.5 -118v-471q0 -264 244 -264q103 0 179 44.5t148 131.5q14 21 21.5 41t9 29.5t2.5 31.5v674h84v-1274q0 -162 -81 -250t-214 -88q-93 0 -161.5 45t-100 114t-31.5 152q0 59 15 114t51.5 100t87.5 53q-340 3 -340 292v525 q0 35 -35 78.5t-76 76.5zM438 -279q0 -100 57 -166.5t154 -66.5q98 0 156.5 69.5t58.5 178.5v407l-47 -43q-51 -48 -106 -75l-105 -56q-85 -44 -126.5 -103t-41.5 -145zM520 1239l309 244l58 -78l-336 -213z" />
<glyph unicode="&#xfe;" horiz-adv-x="1091" d="M104 -518v2007h86q0 -284 -10 -664q94 211 338 211q105 0 188 -41.5t135 -113.5t79.5 -165.5t27.5 -201.5q0 -236 -130.5 -383t-362.5 -147q-117 0 -265 20v-522h-86zM190 84q212 -21 252 -21q206 0 311 120.5t105 318.5q0 120 -36.5 220.5t-115.5 167t-188 66.5 q-120 0 -217 -77.5t-111 -202.5v-592z" />
<glyph unicode="&#xff;" horiz-adv-x="1116" d="M61 956l48 72q74 -58 111.5 -109t37.5 -118v-471q0 -264 244 -264q103 0 179 44.5t148 131.5q14 21 21.5 41t9 29.5t2.5 31.5v674h84v-1274q0 -162 -81 -250t-214 -88q-93 0 -161.5 45t-100 114t-31.5 152q0 59 15 114t51.5 100t87.5 53q-340 3 -340 292v525 q0 35 -35 78.5t-76 76.5zM242 1311q0 32 20.5 52.5t52.5 20.5q33 0 54.5 -20.5t21.5 -52.5t-22 -53t-54 -21t-52.5 21t-20.5 53zM438 -279q0 -100 57 -166.5t154 -66.5q98 0 156.5 69.5t58.5 178.5v407l-47 -43q-51 -48 -106 -75l-105 -56q-85 -44 -126.5 -103t-41.5 -145z M707 1311q0 32 20.5 52.5t52.5 20.5q33 0 54.5 -20.5t21.5 -52.5t-22 -53t-54 -21t-52.5 21t-20.5 53z" />
<glyph unicode="&#x152;" horiz-adv-x="2494" d="M78 678v39q0 146 55 280t149.5 233t228 158.5t282.5 59.5q193 0 354.5 -95t257.5 -257v295h907v-91h-813v-460q4 -22 8 -64h596v-90h-594v-8q0 -60 -10 -125v-473h854v-90h-948v303q-94 -159 -253.5 -252.5t-350.5 -93.5q-197 0 -363.5 99t-263 267t-96.5 365zM166 678 q0 -175 86 -324.5t230.5 -236t312.5 -86.5q220 0 390 142.5t220 358.5v330q-50 217 -223.5 358.5t-390.5 141.5q-172 0 -316.5 -90t-226.5 -238t-82 -317v-39z" />
<glyph unicode="&#x153;" horiz-adv-x="1949" d="M80 504q0 233 140 381.5t368 148.5q163 0 279.5 -82t170.5 -237q43 148 143.5 233.5t252.5 85.5q154 0 254 -81.5t100 -225.5q0 -82 -36.5 -143t-100 -96t-140.5 -51.5t-168 -16.5h-260q15 -179 105.5 -269t251.5 -90q89 0 164 24t165 71l39 -64q-164 -110 -364 -110 q-330 0 -414 301q-60 -153 -174.5 -227t-269.5 -74q-227 0 -366.5 145t-139.5 377zM170 510q0 -196 113.5 -322.5t300.5 -126.5q190 0 302.5 128.5t112.5 324.5q0 197 -113.5 318.5t-299.5 121.5q-189 0 -302.5 -124.5t-113.5 -319.5zM1079 500h264q164 0 259.5 55.5 t95.5 175.5q0 59 -23 104.5t-61 72t-82.5 40t-91.5 13.5q-87 0 -158.5 -42t-115.5 -109.5t-66.5 -148t-20.5 -161.5z" />
<glyph unicode="&#x178;" horiz-adv-x="1280" d="M25 1278q11 69 63 107t117 38q96 0 151 -94l336 -606l379 682h113l-439 -789v-614h-108l6 610l-369 674q-30 43 -75 43q-26 0 -49.5 -17t-30.5 -44zM367 1696q0 32 20.5 52.5t52.5 20.5q33 0 54.5 -20.5t21.5 -52.5t-22 -53t-54 -21t-52.5 21t-20.5 53zM831 1696 q0 32 21 52.5t53 20.5q33 0 54.5 -20.5t21.5 -52.5t-22 -53t-54 -21t-53 21t-21 53z" />
<glyph unicode="&#x2c6;" horiz-adv-x="835" d="M109 1266l231 268h88l234 -268h-103l-174 194l-176 -194h-100z" />
<glyph unicode="&#x2dc;" horiz-adv-x="1007" d="M131 1352q104 82 203 82q62 0 154.5 -37t138.5 -37q71 0 151 63l51 -63q-55 -43 -95.5 -60.5t-110.5 -17.5q-57 0 -150 35t-137 35q-72 0 -154 -64z" />
<glyph unicode="&#x2000;" horiz-adv-x="967" />
<glyph unicode="&#x2001;" horiz-adv-x="1935" />
<glyph unicode="&#x2002;" horiz-adv-x="967" />
<glyph unicode="&#x2003;" horiz-adv-x="1935" />
<glyph unicode="&#x2004;" horiz-adv-x="645" />
<glyph unicode="&#x2005;" horiz-adv-x="483" />
<glyph unicode="&#x2006;" horiz-adv-x="322" />
<glyph unicode="&#x2007;" horiz-adv-x="322" />
<glyph unicode="&#x2008;" horiz-adv-x="241" />
<glyph unicode="&#x2009;" horiz-adv-x="387" />
<glyph unicode="&#x200a;" horiz-adv-x="107" />
<glyph unicode="&#x2010;" horiz-adv-x="870" d="M106 582v90h592v-90h-592z" />
<glyph unicode="&#x2011;" horiz-adv-x="870" d="M106 582v90h592v-90h-592z" />
<glyph unicode="&#x2012;" horiz-adv-x="870" d="M106 582v90h592v-90h-592z" />
<glyph unicode="&#x2013;" horiz-adv-x="1093" d="M84 582v90h862v-90h-862z" />
<glyph unicode="&#x2014;" horiz-adv-x="1427" d="M84 582v90h1196v-90h-1196z" />
<glyph unicode="&#x2018;" horiz-adv-x="397" d="M78 1122v21q0 96 34.5 174.5t96.5 124.5l51 -51q-78 -87 -78 -248v-21q0 -25 -14.5 -40t-38.5 -15q-23 0 -37 15.5t-14 39.5z" />
<glyph unicode="&#x2019;" horiz-adv-x="397" d="M76 1102q78 87 78 248v20q0 24 14 39.5t37 15.5t38 -16t15 -39v-20q0 -76 -33 -170q-30 -76 -98 -129z" />
<glyph unicode="&#x201a;" horiz-adv-x="397" d="M76 -172q78 87 78 248v20q0 23 14.5 39.5t36.5 16.5t37.5 -16.5t15.5 -39.5v-20q0 -76 -33 -170q-30 -76 -98 -129z" />
<glyph unicode="&#x201c;" horiz-adv-x="671" d="M82 1122v21q0 96 34.5 174.5t96.5 124.5l51 -51q-78 -87 -78 -248v-21q0 -25 -14.5 -40t-38.5 -15q-23 0 -37 15.5t-14 39.5zM342 1122v21q0 76 33 170q30 76 98 129l51 -51q-78 -87 -78 -248v-21q0 -24 -14 -39.5t-37 -15.5q-22 0 -37.5 16t-15.5 39z" />
<glyph unicode="&#x201d;" horiz-adv-x="671" d="M84 1102q78 87 78 248v20q0 24 14 39.5t37 15.5t38 -15.5t15 -39.5v-20q0 -96 -34.5 -174.5t-96.5 -124.5zM344 1102q78 87 78 248v20q0 24 15 39.5t38 15.5t37 -15.5t14 -39.5v-20q0 -91 -32 -170q-26 -74 -97 -129z" />
<glyph unicode="&#x201e;" horiz-adv-x="671" d="M84 -172q78 87 78 248v20q0 23 14.5 39.5t36.5 16.5t37.5 -16t15.5 -40v-20q0 -96 -34.5 -174.5t-96.5 -124.5zM344 -172q78 87 78 248v20q0 24 15.5 40t37.5 16t36.5 -16.5t14.5 -39.5v-20q0 -91 -32 -170q-26 -74 -97 -129z" />
<glyph unicode="&#x2022;" horiz-adv-x="546" d="M80 643q0 69 48 116.5t118 47.5q68 0 115 -47.5t47 -116.5q0 -70 -47 -117t-115 -47q-71 0 -118.5 47t-47.5 117z" />
<glyph unicode="&#x2026;" horiz-adv-x="1067" d="M72 55q0 32 20.5 53t52.5 21t54 -21t22 -53t-21.5 -52.5t-54.5 -20.5q-32 0 -52.5 20.5t-20.5 52.5zM406 55q0 32 20.5 53t52.5 21t54 -21t22 -53t-21.5 -52.5t-54.5 -20.5q-32 0 -52.5 20.5t-20.5 52.5zM739 55q0 32 21 53t53 21t54 -21t22 -53t-21.5 -52.5t-54.5 -20.5 q-32 0 -53 20.5t-21 52.5z" />
<glyph unicode="&#x202f;" horiz-adv-x="387" />
<glyph unicode="&#x2039;" horiz-adv-x="751" d="M63 512q0 34 62 90l420 375l57 -66l-452 -399l452 -399l-57 -66l-420 375q-62 53 -62 90z" />
<glyph unicode="&#x203a;" horiz-adv-x="751" d="M86 113l453 399l-453 399l57 66l420 -375q23 -23 47 -51q15 -21 15 -39q0 -34 -62 -90l-420 -375z" />
<glyph unicode="&#x205f;" horiz-adv-x="483" />
<glyph unicode="&#x20ac;" horiz-adv-x="1212" d="M98 498l17 80h139l-4 149h-152l17 80h141q36 404 311 514q100 39 240 39q72 0 205 -33v-84q-113 31 -217 31q-105 0 -185 -29q-156 -61 -217 -235q-34 -115 -39 -203h514l-14 -80h-504v-78q0 -55 4 -71h477l-12 -80h-459q26 -207 136 -320q102 -110 299 -110 q90 0 157 21.5t140 68.5l41 -70q-76 -57 -155.5 -81.5t-182.5 -24.5q-243 0 -377 137q-71 73 -105 162.5t-51 216.5h-164z" />
<glyph unicode="&#x2122;" horiz-adv-x="1251" d="M70 1231v43h405v-43h-174v-539h-55v539h-176zM561 690v584h94l179 -514l186 514h94v-584h-55v565l-193 -542h-65l-187 544v-567h-53z" />
<glyph unicode="&#xe000;" horiz-adv-x="1013" d="M0 0v1014h1014v-1014h-1014z" />
<glyph unicode="&#xfb03;" horiz-adv-x="1515" d="M102 -541v1493q0 231 70 351q83 143 268 143q164 0 246 -98q13 22 62 57q66 41 153 41q63 0 120.5 -25t94.5 -65l-63 -64q-27 33 -69.5 53.5t-86.5 20.5q-61 0 -108.5 -35.5t-75.5 -93.5q-43 -91 -43 -279v-45h561v-757q0 -18 6.5 -34.5t18.5 -28t28 -18.5t35 -7 q38 0 61 26l72 -47q-20 -29 -55 -47t-78 -18q-75 0 -124.5 50t-49.5 124v675h-475v-1372h-86v1372h-396v-1372h-86zM188 911h396v41q0 103 16 197q25 90 27 125q-16 29 -47.5 50.5t-68.5 31.5t-75 10q-70 0 -124 -35.5t-81 -93.5q-43 -91 -43 -279v-47z" />
<glyph unicode="&#xfb04;" horiz-adv-x="1626" d="M106 -541v1493q0 224 70 351q39 69 97.5 103t148.5 34q144 0 219 -84l-63 -64q-55 68 -152 68q-69 0 -118.5 -36t-74.5 -99q-40 -96 -40 -287v-440h475v471q0 235 63 340q78 127 250 127q126 0 204 -73.5t81 -193.5v-1011q0 -40 26.5 -64t61.5 -24t61 26l72 -47 q-45 -65 -135 -65q-76 0 -122.5 50t-49.5 124v1011q-4 85 -59.5 136t-139.5 51q-110 0 -168 -77t-61 -200v-581h309v-80h-309v-963h-84v963h-475v-959h-87z" />
</font>
</defs>
</svg>
