<?xml version="1.0" standalone="no"?>
<!DOCTYPE svg PUBLIC "-//W3C//DTD SVG 1.1//EN" "http://www.w3.org/Graphics/SVG/1.1/DTD/svg11.dtd" >
<svg xmlns="http://www.w3.org/2000/svg">
<metadata></metadata>
<defs>
<font id="bilbo_swash_capsregular" horiz-adv-x="614" >
<font-face units-per-em="1000" ascent="800" descent="-200" />
<missing-glyph horiz-adv-x="200" />
<glyph horiz-adv-x="1000" />
<glyph horiz-adv-x="1000" />
<glyph unicode="&#xd;" horiz-adv-x="1000" />
<glyph unicode=" "  horiz-adv-x="200" />
<glyph unicode="&#x09;" horiz-adv-x="200" />
<glyph unicode="&#xa0;" horiz-adv-x="200" />
<glyph unicode="!" horiz-adv-x="202" d="M76 24q0 15 15 29.5t31.5 20.5t20.5 0l1 -1v-1q-2 -8 -5.5 -23t-6 -26.5t-2.5 -14.5q0 -18 -32 -25q-10 -1 -15.5 7t-6 15.5t-0.5 18.5zM158 180q-6 9 -5.5 23.5t9.5 44t20 57.5t26.5 64t27.5 63.5t25 56t18 40.5q3 9 26.5 55.5t25.5 56.5q2 3 -1 3.5t-8.5 2.5t-7.5 8 q1 12 39 16q41 4 42 -14l-2 -7q-26 -30 -120.5 -227.5t-74.5 -209.5q12 -14 -7.5 -25.5t-32.5 -7.5z" />
<glyph unicode="&#x22;" horiz-adv-x="406" d="M89 401h1q41 41 77 92.5t19 68.5q-11 11 -8.5 27.5t15.5 26.5l1 1v-1q2 2 5 4.5t11 7.5t15 8t14.5 2.5t11.5 -7.5q7 -21 7.5 -30.5t-4.5 -17.5t-6 -10l1 -1q-31 -94 -109 -152q-40 -30 -50 -23q-1 1 -1 4zM220 409q23 23 47.5 53t42.5 63t7 44v1q-11 12 -8.5 28t14.5 26 l2 1q2 2 5 4.5t11 7.5t15 8t14 2t11 -8q7 -21 7.5 -31t-4 -17t-5.5 -10v-1q-31 -93 -109 -152q-39 -30 -49 -23q-2 1 -1 4z" />
<glyph unicode="#" horiz-adv-x="672" d="M-7 198q-2 8 8.5 13t21.5 7l12 1h141q14 36 54 148l-84 -1q-74 0 -79 19q-1 5 2.5 8.5t10 5.5t13 3.5t11.5 2.5h5q89 0 134 -1q7 18 19.5 54.5t19.5 55.5q14 36 20 37q9 3 9 -22q0 -51 -13 -84l-16 -42q27 0 81 -0.5t82 -0.5q21 57 46 113q15 33 23 35q10 -9 4.5 -48.5 t-11.5 -56.5l-16 -42q64 0 127 3q39 2 42 -4q3 -4 -2 -7.5t-13 -7.5q-2 -1 -3 -1q-54 -18 -84 -18h-81q-53 -142 -55 -148h122q37 0 42 -6q5 -9 -25 -18q-46 -14 -77 -14l-77 -1q-26 -70 -30 -82q-10 -30 -22 -49t-22 -18q-8 0 -9.5 11.5t0.5 22.5l3 12q8 22 38 103l-167 -1 q-6 -16 -16 -44t-14 -37q-10 -30 -22 -49t-22 -18q-8 0 -9.5 11.5t1.5 22.5l3 12q23 52 42 102h-89q-73 -2 -79 18zM213 219h166q28 82 52 149l-163 -1q-53 -142 -55 -148z" />
<glyph unicode="$" horiz-adv-x="572" d="M42 52q3 29 27 29q2 0 2.5 -5t1.5 -13.5t4 -13.5q15 -33 75 -33q27 91 81 233q-29 11 -44.5 18t-36 20t-29.5 31t-9 41q1 60 66 106.5t153 56.5q41 107 50 113q13 3 18 -1.5t-1 -22.5q-9 -19 -36 -87h9q48 0 61.5 -23t10.5 -59q-2 -11 -12 -23.5t-18 -8.5q-2 1 -1.5 8 t2.5 16.5t0 19.5q-7 39 -64 41q-52 -134 -84 -222q77 -29 99 -48q33 -29 19 -74q-16 -54 -75 -98.5t-137 -56.5q-23 -79 -27 -112q-3 -21 1.5 -33t12.5 -12q3 0 1 -7q-4 -11 -15 -17q-20 -10 -24 18q-11 46 22 160q-9 -1 -28 -1q-50 1 -65 18.5t-10 41.5zM153 375 q0 -34 24.5 -55t67.5 -38q0 1 5 13l73 199q-36 -3 -73.5 -17.5t-67 -41.5t-29.5 -60zM180 17q52 5 99.5 35.5t60.5 71.5q15 47 -8 71.5t-76 44.5q-49 -135 -76 -223z" />
<glyph unicode="%" horiz-adv-x="596" d="M81 377q0 51 74.5 143t119.5 92q31 0 40.5 -25t-0.5 -51q1 -2 8 -2t16 1t10 1q85 11 199 63q4 2 5 2q12 0 17.5 -9t-5.5 -23q-117 -136 -264.5 -333t-173.5 -269q-14 -40 4 -49q5 -2 0 -7q-7 -9 -18 -9t-14 13t1.5 34t8.5 35t8 26q22 59 167.5 259t230.5 296 q-42 -20 -105 -38.5t-100 -19.5q5 -16 -23 -62t-72 -86.5t-76 -40.5h-13q-22 0 -33.5 20.5t-11.5 38.5zM121 370q0 -27 20 -27q36 0 92.5 66t56.5 96q-7 4 -15.5 13.5t-13.5 17.5l-5 8q-29 0 -82.5 -69t-52.5 -105zM251 -11q0 51 74.5 143t119.5 92q59 0 40 -76q1 -2 8 -3 q10 -1 5 -11q-5 -9 -18 -14q5 -16 -23 -62t-72 -87t-76 -41h-13q-22 0 -33.5 20.5t-11.5 38.5zM291 -18q0 -26 20 -26q36 0 92.5 66t56.5 95q-7 4 -15.5 14t-13.5 17l-5 8q-29 0 -82.5 -69t-52.5 -105z" />
<glyph unicode="&#x26;" horiz-adv-x="862" d="M114 387q0 59 43 108t109 78t138.5 44.5t138.5 15.5q68 0 113 -17.5t59 -52.5t-22 -88q-27 -39 -88.5 -63t-101.5 -24q-8 0 -9 5q3 8 13 10q27 0 76 27t62 58q25 61 -9 93t-110 32q-52 0 -112.5 -14.5t-118 -41t-95.5 -71.5t-38 -99q0 -31 37.5 -46.5t83 -14.5t75.5 13 q24 8 31 -6t-21 -26q-17 -7 -43 -9q-144 -39 -199 -126t16 -143.5t234 -21.5q124 26 179 110q42 62 19 113q-25 54 -105 45q-4 0 -8 -1q-85 -13 -62 -81q5 -14 -4 -14q-12 1 -20 20q-4 9 -4 18q0 48 43 70.5t100 22.5q29 0 60 -6t72.5 -17t57.5 -14q70 -15 90 -6 q16 7 21.5 3t-5.5 -17q-5 -5 -12 -9t-18.5 -5t-20 -2t-24 0t-22 1.5t-22.5 2.5t-18 2q-17 2 -36.5 7.5t-37 12t-23.5 8.5q21 -10 36 -32.5t15 -49.5q0 -59 -77.5 -120t-178.5 -84q-197 -43 -285 24q-60 46 -39 121q22 78 121 134q34 19 75 33q-129 11 -129 90z" />
<glyph unicode="'" horiz-adv-x="209" d="M137 334v1q41 41 76.5 92.5t19.5 67.5q-11 11 -8.5 27.5t15.5 26.5l1 1h1q2 2 5 4.5t11 7.5t15 8t14 2t11 -8q20 -39 -2 -59q-31 -93 -109 -152q-39 -30 -49 -23q-2 1 -1 4z" />
<glyph unicode="(" horiz-adv-x="268" d="M12 345q17 57 54 114t89.5 107t125.5 81t153 31h1q26 -5 5 -28q-17 -19 -33 -19q-66 -1 -127 -29t-105.5 -72.5t-75.5 -93t-48 -97.5q-26 -78 -35 -158.5t8 -144.5t64 -76q24 -2 24 -14t-19 -10q-5 0 -10 2q-49 9 -76 69.5t-25.5 151t30.5 186.5z" />
<glyph unicode=")" horiz-adv-x="397" d="M-24 -56q-17 6 2 33q17 26 35 26q80 1 166 99t150 231h1q19 39 31 79t14.5 84t-8.5 77t-46 54t-92 19q-10 0 -19 13.5t13 14.5q80 4 125 -30.5t53 -91.5t-1.5 -116.5t-33.5 -117.5q-67 -160 -176 -267t-213 -107h-1z" />
<glyph unicode="*" horiz-adv-x="203" d="M23 552q-14 28 58 46q-15 6 -21.5 9t-19.5 10t-17 15t0 16q22 24 67 -30q-17 69 13 71q30 -4 11 -70q48 48 63 33q14 -14 -7 -28.5t-48 -24.5l21 -7t20.5 -9.5t16 -15t-0.5 -17.5q-18 -22 -64 27q19 -69 -11 -69q-31 0 -14 69q-47 -47 -67 -25z" />
<glyph unicode="+" horiz-adv-x="379" d="M61 153q-4 5 -2.5 11.5t9.5 12t19 6.5l99 -2q1 3 18.5 54.5t20.5 62.5q4 12 22 18q13 5 15 -4q0 -34 -38 -132q1 0 35.5 1t62 1t34.5 -3q20 -13 -16 -17q-14 -2 -52 -4q-52 -3 -73 -6q-15 -58 -54 -140q-20 -44 -22 -13q-1 23 4 30q38 117 35 125h-30q-31 -1 -57 -1h-30z " />
<glyph unicode="," horiz-adv-x="202" d="M1 -164q41 42 77 94t20 66h-1q-10 13 -8 29t15 26l1 1h1q2 2 5 4.5t11 7.5t15 8t14 2t11 -8q7 -21 7.5 -30.5t-4.5 -17.5t-6 -10q-31 -94 -109 -154q-40 -30 -48 -22q-2 1 -1 4z" />
<glyph unicode="-" horiz-adv-x="289" d="M28 124q-10 10 1 24t24 20q27 12 26 0q0 -6 -5 -11q97 -6 167 -1q19 1 18 -6q-1 -5 -12 -8q-28 -9 -94 -15.5t-106 -4.5q-15 0 -19 2z" />
<glyph unicode="." horiz-adv-x="247" d="M113 26q0 13 15.5 27t31 20.5t17.5 1.5q-2 -8 -5.5 -23t-6 -26.5t-2.5 -14.5q-3 -17 -30 -24q-9 -1 -13.5 6t-5.5 14.5t-1 18.5z" />
<glyph unicode="/" horiz-adv-x="604" d="M20 -92q0 33 19 79t65 118t75 113t96 135q62 87 127.5 169.5t108 129t50.5 46.5q15 0 21.5 -10.5t-6.5 -27.5q-135 -155 -310 -389.5t-206 -318.5q-17 -46 5 -57q5 -2 0 -9q-8 -10 -21 -10q-24 0 -24 32z" />
<glyph unicode="0" horiz-adv-x="558" d="M68 104q-10 -86 41 -90q64 -6 137 31t137 94q59 52 92.5 111t38 105t-2.5 79t-22 45q-41 31 -78 39q-80 -25 -156 -98t-118 -139q-59 -91 -69 -177zM94 292q41 68 116 132t150 98q-13 12 14 15q16 2 31 1q25 10 77 7.5t52 -22.5q-2 -11 -17 -5q-29 10 -52 9 q28 -10 48 -30q67 -72 37.5 -179.5t-127.5 -194.5q-83 -73 -168.5 -105t-155.5 -23q-69 9 -70.5 97.5t65.5 199.5z" />
<glyph unicode="1" horiz-adv-x="297" d="M7 19q78 29 86 31q24 41 102 185.5t111 203.5q-55 -33 -119 -56q-11 -5 -13 6q-2 9 8 13q55 21 161 102l5 9q10 18 42 15q22 -2 20 -14q0 -2 -2 -5l-274 -452q56 10 122 10q11 0 8 -11q-3 -9 -12 -10q-18 0 -35 -1.5t-36.5 -6t-32 -7.5t-35.5 -11.5t-31 -11.5t-34.5 -14 t-32.5 -13q-7 -2 -11.5 6t-4 18.5t7.5 13.5z" />
<glyph unicode="2" d="M38 -2q-38 -9 -37 11q1 21 33 43q7 5 14 8q17 8 53 15t54 5q189 107 250 155q59 46 92.5 87.5t43.5 95.5q7 44 -27.5 56t-89.5 -5q-125 -32 -202 -104q-10 -9 -15 1q-4 9 4 16q69 58 157 97.5t169 39.5q75 0 75 -63t-79 -144q-48 -51 -123 -106q-85 -61 -234 -135 q37 -3 125 -32q84 -26 141 -26q74 0 90 37q8 16 -3 32.5t-43 27.5q-11 4 -4 10q4 4 12 2q67 -19 67 -62q0 -35 -37 -56t-87 -21q-58 0 -158 36q-7 3 -24 9.5t-27.5 10l-25.5 8.5t-29 7t-28 3q-13 -4 -49.5 -29t-57.5 -30z" />
<glyph unicode="3" horiz-adv-x="608" d="M33 102q0 61 59 98t128 37q10 0 10 -7q-2 -7 -12 -8q-47 0 -90.5 -34t-43.5 -85q0 -44 38.5 -67.5t100.5 -23.5q74 0 144 23t120.5 73.5t50.5 116.5q0 33 -22.5 53t-55.5 24.5t-66.5 2t-60.5 -11.5q-29 -11 -32 9q-2 17 14 25q5 3 11 3q91 0 158 31q33 15 52 40.5 t19 52.5q0 22 -22.5 33t-65.5 2q-85 -16 -158 -65q-12 -8 -12 8q2 22 16 30q32 16 62 46q9 8 13 1q3 -7 -4 -14l-7 -7q17 7 36.5 13.5t48 14.5t53 9.5t46.5 -1.5t35 -18t13 -40q0 -43 -50.5 -84.5t-101.5 -51.5q129 -13 129 -102q0 -70 -61 -126t-143.5 -83.5t-161.5 -27.5 q-85 0 -136 27.5t-51 83.5z" />
<glyph unicode="4" horiz-adv-x="483" d="M52 254q21 6 47 11q131 65 266.5 143.5t172.5 127.5q8 11 32 2q13 -7 10 -14q-18 -24 -66.5 -86t-82.5 -107t-64 -90q57 -19 101 -19q28 0 51 19t14 55q-1 6 2 9t8.5 1t8.5 -7q16 -26 16 -45t-10 -29t-29 -15.5t-34 -7t-31 -1.5q-46 0 -110 17q-3 -5 -17 -26.5t-23 -37 t-20.5 -36.5t-17 -37.5t-4.5 -27.5q60 7 103 7q11 0 8 -11q-3 -9 -12 -10q-18 0 -35 -1.5t-36.5 -6t-32 -7.5t-35.5 -11.5t-31 -11.5t-34.5 -14t-32.5 -13q-7 -2 -11.5 6t-4 18.5t7.5 13.5q77 29 106 35l18 3q-7 54 73 176q-64 17 -107 17q-60 0 -159 -37q-16 -6 -22 13 q-8 22 11 33zM160 273q32 3 58 3q43 0 117 -24q9 14 31 47.5t44 66t43 60.5l20 25q-106 -72 -313 -178z" />
<glyph unicode="5" horiz-adv-x="613" d="M12 57q0 29 15.5 52.5t53.5 52.5q15 11 22.5 -0.5t-6.5 -18.5q-1 -1 -3 -2q-17 -6 -30.5 -28.5t-13.5 -39.5q0 -38 35.5 -58t88.5 -20q51 0 110 19.5t111 53.5t86.5 86t34.5 109q0 34 -30.5 51.5t-72.5 18t-82.5 -7t-64.5 -19.5q-10 -5 -36 -19.5t-42 -21.5 q-12 -5 -13 8.5t11 19.5l113 147q8 11 40 10q15 0 15 -5q0 -2 -2 -4l-110 -128q22 18 77 31t113 14t102.5 -21.5t44.5 -68.5q0 -72 -61 -142t-156 -112.5t-190 -42.5q-69 0 -114.5 25t-45.5 61zM295 493q35 21 81 22t84 -10t86.5 -23t81.5 -12q17 0 42 12t25 33q0 6 3.5 10 t8 3t6.5 -6q9 -27 -10.5 -45t-41 -23t-38.5 -5q-42 0 -116 11t-117 11q-57 0 -87 -24q-19 -10 -22 12q-2 23 14 34z" />
<glyph unicode="6" horiz-adv-x="563" d="M43 93q0 70 69.5 156t177.5 145q126 69 215 99l-15 3q-5 3 -4 6q10 17 95 13q40 -2 50 -24q5 -13 -7 -16q-126 -23 -309 -112q-78 -39 -160 -120.5t-82 -152.5q2 -84 106 -84q30 0 73.5 9t90 25t79 46t32.5 66q0 14 -12 24t-36 10q-77 0 -130.5 -39t-66.5 -106 q-3 -15 -14 -16t-8 14q15 83 75.5 127t157.5 44q40 0 62.5 -15t22.5 -40q0 -44 -36.5 -79t-91 -54t-107 -28.5t-95.5 -9.5q-66 0 -99 28.5t-33 80.5z" />
<glyph unicode="7" horiz-adv-x="420" d="M94 429v3l1 2l9 18t12 26t4 17q-3 14 4 24q2 2 4 1q6 -4 6 -26q60 53 160 53q40 0 121.5 -18t98.5 -20q8 6 24.5 18t19.5 14q4 3 11.5 0t12.5 -10q17 -17 7 -24q-205 -148 -344 -287q-45 -44 -85 -112t-32 -111q2 -9 -9 -10q-12 0 -14 10q-10 49 25.5 115t85.5 122 q115 130 275 257q-3 0 -43.5 6.5t-71 9.5t-64.5 3q-73 0 -116 -18.5t-62 -74.5q-7 -21 -27 -16t-13 28z" />
<glyph unicode="8" horiz-adv-x="517" d="M19 13q-25 29 -15.5 70t49.5 84q92 103 228 174q-63 39 -49 79q18 47 74 79t112.5 35.5t99.5 -15.5q44 -26 7 -76l72 23q7 2 11 -2t2 -11q-2 -15 -24 -19q-105 -24 -226 -81q46 -19 78 -38q54 -35 61 -77.5t-25.5 -82t-84.5 -74.5t-116 -61q-43 -18 -91.5 -28t-95.5 -6 t-67 27zM48 47q4 -26 24.5 -37.5t51.5 -8.5t61.5 10.5t62.5 20.5q111 45 162 94t41 91t-73 74q-62 31 -73 37q-26 -14 -66.5 -44t-87 -70.5t-77.5 -86.5t-26 -80zM283 416q3 -30 52 -52q118 55 162 70q14 25 16 35q7 21 -14 29q-51 16 -100.5 10t-84.5 -33t-31 -59z" />
<glyph unicode="9" horiz-adv-x="374" d="M64 309q2 54 54 100t125.5 71.5t144.5 39.5t119 12q6 0 6 -8q-1 -8 -8.5 -18.5t-14.5 -9.5q-77 5 -167 -19t-154 -68.5t-66 -91.5q-1 -14 6.5 -21.5t20.5 -6.5t27.5 4t32 10.5t29 13t22.5 11.5q117 61 236 159q11 9 36 0q27 -10 7 -27q-5 -5 -22 -19.5t-35.5 -31 t-35.5 -32.5q-297 -272 -289 -464q0 -23 12 -28q13 -4 5 -11q-6 -4 -18 -3q-13 1 -23.5 12t-11.5 34q-3 91 85 227t199 245q-130 -89 -224 -115q-46 -13 -72.5 -4t-25.5 39z" />
<glyph unicode=":" horiz-adv-x="202" d="M90 103q0 15 15 29.5t31.5 20.5t20.5 0h1v-1q-2 -8 -5.5 -23t-6 -26.5t-2.5 -14.5q0 -20 -32 -25q-10 -1 -15.5 7t-6 15t-0.5 18zM132 308q0 15 15 29.5t31.5 20.5t20.5 1l1 -1v-1q-2 -8 -5.5 -23t-6 -26t-2.5 -14q0 -19 -32 -26q-10 -1 -15.5 7t-6 15t-0.5 18z" />
<glyph unicode=";" horiz-adv-x="202" d="M28 -136q5 8 14 19.5t17 21.5t16.5 21.5t14 21.5t9.5 19t3.5 16.5t-5.5 12.5q-10 13 -8 29t15 26l1 1h1q2 2 5 4.5t11 7.5t15 8t14 2t11 -8q7 -21 7.5 -30.5t-4.5 -17.5t-6 -10q-30 -97 -91 -139q-31 -21 -39 -10q-1 2 -1 4v1zM146 206q0 14 15 28.5t31 21t20 0.5v-1 q-13 -62 -13 -64q0 -17 -33 -25q-20 -2 -20 37v3z" />
<glyph unicode="&#x3c;" horiz-adv-x="318" d="M85 256q0 9 24 45t57 80t37 50q6 11 19 11q7 0 7 -6t-40 -66.5t-59 -86.5q2 -3 15.5 -19t25.5 -31.5t25.5 -33.5t22 -31.5t8.5 -18.5q0 -13 -10 -13l-8 4q-37 50 -121 110q-3 3 -3 6z" />
<glyph unicode="=" horiz-adv-x="399" d="M112 122q-10 10 1 24t24 20q27 12 26 0q0 -6 -5 -11q97 -6 167 -1q19 1 18 -6q-1 -5 -12 -8q-28 -9 -94 -15.5t-106 -4.5q-15 0 -19 2zM116 204q-10 10 1 24t24 20q27 12 26 0q0 -6 -5 -11q97 -6 167 -1q19 1 18 -6q-1 -5 -12 -8q-28 -9 -94 -15.5t-106 -4.5q-16 0 -19 2 z" />
<glyph unicode="&#x3e;" horiz-adv-x="318" d="M85 135q0 6 40 66.5t59 86.5q-98 116 -98 134q0 13 11 13l8 -4q34 -46 121 -110q3 -1 3 -6q0 -9 -24.5 -45t-57.5 -80t-37 -50q-7 -11 -19 -11q-6 0 -6 6z" />
<glyph unicode="?" horiz-adv-x="464" d="M104 24q0 15 16.5 29.5t34 20.5t21.5 0l1 -1q-2 -12 -11.5 -37t-9.5 -27v-1q-5 -18 -34 -25h-1q-5 0 -8.5 2.5t-5 5t-2.5 8t-1 8.5v9.5v7.5zM151 532q43 59 134 96t174 27t101 -75q11 -39 -3 -75t-67 -81t-87 -68.5t-124 -81.5q-9 -6 -14 -9q-17 -11 -30 -27t-18.5 -27 t-12.5 -30t-10 -26h-1q-12 -16 -23 1q-17 24 6 66q5 9 12 18q8 10 42.5 32.5t84 53.5t78.5 53h-1q46 34 74.5 78.5t31.5 83t-34.5 61t-114.5 13.5q-72 -9 -121.5 -47.5t-45.5 -92.5q2 -22 9 -32.5t13 -10t9 -3.5t-2 -12v-1q-22 -18 -51 5q-35 27 -27 71q4 20 18 40z" />
<glyph unicode="@" horiz-adv-x="804" d="M26 379q51 151 224 244q-6 0 -35.5 -1.5t-47.5 -2t-29 1.5q-7 3 -5 8.5t11 8.5q49 15 186 13q48 14 98.5 21.5t106 6t98 -15t70 -48.5t27.5 -88q0 -36 -18 -83q29 -55 29.5 -110t-28.5 -105t-72.5 -93t-103.5 -74t-121.5 -48t-126 -15.5t-117.5 23.5q-99 42 -141 144 t-5 213zM66 361q-20 -66 -16 -127.5t38 -113.5t92 -77q44 -19 105.5 -16.5t123 23t121 55.5t100 80.5t60 99t-0.5 110.5q-30 -79 -121 -176q-95 -101 -152 -106q-35 -3 -42 39q-2 38 33 155q-150 -207 -205 -182q-20 11 -7 70.5t38.5 125.5t62 118t63.5 49l11 8q7 8 20.5 10 t27 -1.5t27 -7.5t20.5 -6t8 2q3 0 9 6.5t14 6.5q10 0 16 -3t7.5 -9t1.5 -12.5t-3.5 -16t-6 -16t-6.5 -15.5t-6 -13q-1 -3 -9 -7t-9 -6q-41 -115 -54 -197q-11 -66 20 -59q41 9 127 125q73 98 96 160q-47 87 -140.5 130.5t-206.5 48.5q-85 -28 -157 -99t-100 -156zM238 198 q-6 -47 32 -19q46 35 119 134q2 3 3 4q60 101 66 143q2 14 -6 11h-1q-7 0 -20 2t-26 2t-29 -4q-24 -6 -77 -108.5t-61 -164.5zM396 638q95 -10 172.5 -49.5t115.5 -105.5q6 25 6 49q0 51 -26.5 81t-72 37.5t-93 4t-102.5 -16.5z" />
<glyph unicode="A" d="M-1 -75q0 84 38.5 167.5t103.5 177.5q-115 0 -115 4q0 8 7 14t19.5 8.5t26 4.5t29 2t27 -0.5t21.5 -0.5l9 -1q109 147 266 298q-10 43 -10 55q0 20 24 20q30 0 35 -29q18 18 24 18q10 0 10 -19q0 -3 -0.5 -7.5t-0.5 -6.5q-3 -3 -11 -10t-12 -12q27 -125 27 -307 q84 0 91 -14q-2 -5 -37.5 -8.5t-53.5 -3.5v-233q69 37 83 37q9 0 9 -7q0 -6 -16 -16q-81 -39 -144 -120q-4 -6 -9 -6q-10 0 -10 14q0 11 15.5 31t27.5 29q14 189 10 269q-306 -3 -308 -3q-46 -71 -70.5 -114t-46.5 -110.5t-22 -133.5q0 -52 24 -78q10 -12 7.5 -16t-16.5 -4 q-27 0 -39.5 38.5t-12.5 72.5zM197 300h286q0 43 -13 132.5t-29 130.5q-179 -164 -244 -263z" />
<glyph unicode="B" horiz-adv-x="860" d="M2 474q0 55 24.5 94.5t66.5 59.5t87 29t96 9q92 0 213 -26q14 33 30 47q5 -1 16 2t16 3t9 -0.5t9.5 -1.5t8 -4.5t0.5 -9.5q-11 -15 -29 -49q37 -10 75 -24.5t81 -37.5t69.5 -56t26.5 -71q0 -35 -22.5 -64.5t-60 -50t-70 -33.5t-67.5 -22q36 -2 78 -11t87 -26t74.5 -48 t29.5 -70q0 -38 -35 -75q-101 -106 -287 -106q-123 0 -214 33q0 -4 0.5 -12.5t0.5 -13.5q0 -12 -5 -18q-8 -1 -13.5 10.5t-7.5 23.5t-2 19q-24 11 -51 29t-27 34q0 6 5 6q3 0 18 -9.5t32.5 -21t22.5 -13.5q0 110 61.5 294t127.5 319q-121 29 -206 29q-42 0 -80 -7.5t-73 -24 t-56 -49.5t-21 -78q0 -102 97 -192q4 20 10 20q7 0 17.5 -21.5t10.5 -29.5q0 -13 -18 -13q-37 0 -74.5 42.5t-59 95.5t-21.5 90zM316 -11q86 -34 213 -34q166 0 232 67q42 42 42 82t-32.5 69.5t-82 43.5t-93.5 20.5t-80 6.5q-15 0 -74 -6.5t-63 -6.5q-51 -158 -62 -242z M389 265q16 5 44.5 7.5t37.5 4.5q36 6 75.5 16.5t91 29.5t84 48.5t32.5 64.5q0 31 -24 59.5t-62.5 48.5t-70.5 33t-63 22h-1q-81 -141 -144 -334z" />
<glyph unicode="C" horiz-adv-x="753" d="M27 233q6 112 83.5 215.5t190.5 164t224 60.5t149 -50q9 27 9 39q0 2 -2 8t-1 9.5t8 3.5q8 0 16 -4t8 -10q0 -12 -3.5 -24.5t-9 -29t-7.5 -23.5q11 -28 9 -65q-3 -58 -30 -58q-33 0 -31 33q1 19 20 79q-17 28 -53 46t-82 18q-106 0 -207.5 -57.5t-167.5 -154.5t-72 -204 q-7 -124 76 -201t208 -77q53 0 101 10t79.5 23t63.5 34.5t47 35.5t36 35l24 24q5 8 16.5 19.5t13.5 4.5q3 -13 -6 -35t-19 -32q-62 -63 -167 -104t-201 -41q-165 0 -248 82.5t-75 225.5z" />
<glyph unicode="D" horiz-adv-x="917" d="M-23 345q-96 100 109 183q124 51 276 73l14 2q20 44 38 64h2q28 7 52 7q11 0 11 -4q-24 -24 -42 -63q115 1 208.5 -25.5t149.5 -71.5t84.5 -101t20.5 -118t-49 -120q-37 -52 -94.5 -94t-118 -66.5t-120.5 -37t-108.5 -10.5t-75.5 17q-31 17 -39 43q0 1 -0.5 2.5t-1.5 2.5 q-4 -5 -14.5 -21.5t-17.5 -24.5q-15 -20 -28.5 -15.5t-12.5 43.5q1 274 140 563q-6 -1 -42 -8.5t-63 -13.5q-18 -4 -44.5 -12.5t-65.5 -23.5t-69.5 -32.5t-56 -39.5t-26 -44.5t20.5 -48.5q11 -11 20 -16q17 -16 21 -22h-4q3 -8 -7 -8q-2 0 -5 1t-8 3t-8 3q-35 22 -46 34z M264 34q2 2 8.5 9.5t10.5 11t9.5 6.5t9.5 0.5t7 -11.5q1 -2 5.5 -11.5t6.5 -13t7 -10.5t10.5 -10.5t12.5 -6.5q81 -30 227.5 28.5t211.5 141.5q78 104 73.5 183t-68.5 131.5t-163 77t-210 19.5q-133 -232 -157 -541q0 -3 -1 -4z" />
<glyph unicode="E" horiz-adv-x="935" d="M-25 548q0 111 172 111q171 0 446 -96q1 4 4.5 16t6.5 20t8 18t12 15t15 5q19 0 35 -20t16 -39q0 -10 -6 -10q-7 0 -18 9t-13 9q-8 0 -15 -13t-9 -23q120 -41 244 -41q21 0 39 5t28 10t12 5q13 0 13 -9q0 -25 -38 -36t-70 -11q-51 0 -120.5 14t-115.5 35 q-5 -16 -30 -85.5t-37 -107.5q7 0 76 -1.5t94 -1.5q36 0 40 -13q2 -6 -9 -10q-9 -3 -25 -3q-29 0 -106 -3t-81 -3q-18 -65 -55 -142.5t-76 -120.5q204 -99 338 -99q51 0 93 28.5t42 77.5q0 23 -16 46.5t-16 29.5q0 20 16 20q14 0 27.5 -26t13.5 -63q0 -71 -55.5 -110.5 t-129.5 -39.5q-49 0 -115 19t-99.5 33.5t-110.5 50.5q-13 6 -20 9q-88 -82 -219 -82q-50 0 -89 19t-39 65t36 74.5t84 28.5q83 0 229 -67q49 64 121 247q-5 0 -25 -0.5t-39 -0.5t-33 1q-20 2 -12 21q6 16 20 17q18 1 54 0t46 -1q12 34 35 103.5t35 104.5q-256 75 -389 75 q-29 0 -57 -4t-59.5 -14.5t-51 -32t-19.5 -52.5q0 -47 42.5 -97t93.5 -83.5t93.5 -62.5t42.5 -38q0 -3 -4 -3q-16 0 -63 25q-46 24 -85.5 52.5t-75.5 65.5t-56.5 83.5t-20.5 96.5zM67 31q0 -25 27 -44.5t58 -27t56 -7.5q85 0 151 66q-43 20 -112.5 37t-112.5 17 q-67 0 -67 -41z" />
<glyph unicode="F" horiz-adv-x="735" d="M15 529q-9 86 44 122t143 36q55 0 115.5 -12.5t93.5 -23.5t113.5 -43t106.5 -42q26 75 33 76t12.5 1.5t9.5 -0.5t8.5 -3.5t7 -4.5t6 -6.5t5 -7t5 -8.5t5.5 -9q9 -23 3.5 -30.5t-27.5 11.5q-12 19 -27 -18q-4 -10 -5 -15q201 -72 227 -37q9 12 22 7q17 -5 -8 -31 q-61 -64 -251 27q-61 -185 -65 -199q149 0 171 -10q7 -5 3.5 -9t-11.5 -5q-3 0 -29 -2.5t-67.5 -5.5t-77.5 -5q-44 -161 -75 -227q-65 -137 -177 -179q-35 -10 -76.5 -9.5t-86 22.5t-67.5 60q-43 72 -39 151q1 36 12 38q8 1 11 -28q0 -15 6.5 -41t21.5 -60t36.5 -62.5 t56 -46.5t74.5 -14q32 3 63.5 24.5t57.5 59.5t47 74t41.5 88t30.5 79.5t23 68.5q-120 0 -136 3q-9 5 -9 18.5t9 13.5l53 2q52 2 94 2q12 37 36 113t34 106q-113 49 -206.5 75.5t-193.5 26.5q-78 0 -126.5 -23t-48.5 -67q0 -57 60.5 -146.5t117.5 -129.5q20 -14 50.5 -31 t39.5 -23q8 -5 6 -9.5t-12 -2.5q-104 23 -194 124t-100 197z" />
<glyph unicode="G" horiz-adv-x="848" d="M15 206q0 78 33.5 149.5t90.5 124.5t129 92t153 57t158 14q72 -4 117.5 -22t57.5 -37q5 -7 6.5 -12.5t-1 -11t-4.5 -8t-8 -8.5t-8 -9q-4 -5 -13 -20q-16 -27 -23 -27q-4 1 -6 4v1q0 7 7 21.5t7 24t-13 33.5q-31 43 -129 52q-41 4 -97.5 -5.5t-125.5 -34t-133.5 -80.5 t-101.5 -134q-40 -84 -40 -162q0 -98 72 -159.5t164 -61.5q149 0 243.5 63.5t158.5 197.5q-85 -5 -272 -5q-17 0 -27 10t-11 23q-1 14 21 24.5t37 9.5q6 0 7 -4q0 -1 -1 -2q-5 -6 -6.5 -10t3.5 -6q200 -8 358 -4q18 0 21 -1q31 -8 -2 -19l-31 -7q-32 -4 -48 -4 q-70 -258 -99 -320q-74 -157 -160 -224t-171 -67q-89 0 -139 62q-23 28 -18 49q3 16 21 -5q1 -2 3 -4q17 -23 29.5 -36t37 -26t51.5 -13q71 0 136 49t111 125t77 153.5t47 148.5q-42 -81 -159 -136t-236 -55q-126 0 -200 72.5t-74 179.5z" />
<glyph unicode="H" horiz-adv-x="959" d="M35 95q1 32 11 38q5 3 9 -9l3 -19q0 -15 6.5 -41t21.5 -59.5t36.5 -62t56 -46.5t74.5 -15q47 5 92.5 48t78 104.5t50.5 102.5t27 71q-35 0 -49 3q-9 4 -9 18t9 14l10 2q10 2 52 2q12 37 47.5 147t45.5 140q-21 9 -124 44.5t-134 44.5q-67 20 -125.5 24.5t-101 -10 t-64 -44.5t-12 -83t53.5 -122q35 -54 71.5 -87t81 -58t47.5 -27q8 -5 6 -10t-12 -2q-51 17 -124 71t-112 113q-71 108 -65 176t64.5 98t149 26.5t188.5 -38.5q9 -3 105 -42.5t161 -59t76 -3.5q9 12 22 7q17 -5 -8 -31q-13 -14 -56 -14.5t-53 7.5q-7 -20 -25.5 -76.5 t-35.5 -107t-27 -83.5q180 0 297 -3l80 230q-4 12 -4.5 21.5t3.5 21.5t7 19.5t7 14.5l4 8q9 25 45 28q27 3 28 -10q0 -4 -5 -9q-48 -117 -119 -326q55 -2 67 -5q21 -12 -30 -15q-17 -1 -44 -1q-61 -187 -72 -289q6 0 35.5 23.5t39.5 37.5q18 17 23 8q8 -12 -25 -43 q-68 -66 -95 -65q-15 0 -22 12.5t-5.5 34.5t7 48t15 58.5t19 61t19 60t14.5 51.5q-136 -3 -302 -9q-73 -277 -237 -338q-35 -10 -76.5 -9.5t-86 22.5t-67.5 60q-41 68 -39 151z" />
<glyph unicode="I" horiz-adv-x="473" d="M9 -14q0 24 23.5 46t56.5 22q34 0 96 -27q42 51 82 137.5t63 154.5t50.5 158.5t33.5 109.5q-9 1 -41.5 7.5t-40.5 7.5q-96 19 -132.5 -22t35.5 -117q15 -15 10 -21q-3 -6 -29 17q-43 39 -51.5 77t12.5 63.5t68.5 37t109.5 0.5q7 -1 35.5 -7t55.5 -10.5t57 -8.5t51.5 -3 t27.5 9q6 9 11 1q7 -12 -16 -32q-4 -4 -9 -6.5t-12 -4t-12.5 -2.5t-15.5 -0.5t-15 0.5t-16 1.5t-15 2t-16 2.5t-13 2q-2 -5 -24 -83.5t-38 -125.5t-44 -122t-62 -134t-72 -101q96 -43 175 -43q35 0 49.5 10t11.5 21t-10 24.5t-7 15.5q0 4 2 7.5t5 2.5q14 -6 20 -35t-12 -57 t-64 -28q-38 0 -96.5 16t-98.5 34q-32 -29 -75 -38t-73.5 3t-30.5 38zM25 -2q0 -23 21.5 -35t54.5 -4t61 36q-5 3 -16 6.5t-27 9t-32 8t-30 3t-23 -5.5t-9 -18z" />
<glyph unicode="J" horiz-adv-x="604" d="M5 -8q1 32 11 37q5 3 9 -8l3 -19q0 -15 6.5 -41t21.5 -60t36.5 -62.5t56 -46.5t74.5 -14q35 3 73 41t74 103.5t68 135.5t64 158.5t52.5 149t42.5 131t26 82.5q-44 4 -173 27q-177 28 -183 -33q-6 -51 108 -137q29 -21 63 -43q6 -3 3 -7q-2 -3 -8 -2q-38 9 -71 26t-55 38 t-37.5 45t-18 47.5t2 45t24 37.5t47.5 25.5t72.5 9.5t98.5 -12l42 -10q41 -9 68 -14t66.5 -11t65 -3t33.5 14q9 12 16 5q11 -11 -19 -43q-27 -28 -106 -11q-1 -2 -18.5 -61.5t-35.5 -116.5t-45 -133.5t-59 -153t-64 -135.5q-44 -81 -90.5 -135t-97.5 -81t-104.5 -6.5 t-103.5 90.5q-41 59 -39 151z" />
<glyph unicode="K" horiz-adv-x="950" d="M0 524q-8 64 23.5 102t81.5 48t111.5 7t106 -12.5t72.5 -19.5q9 -3 105 -42.5t161 -59t76 -3.5q9 12 22 7q17 -5 -8 -31q-13 -14 -56 -14.5t-53 7.5q-10 -30 -34.5 -113t-40.5 -131q71 28 167 90q41 27 84.5 62t71.5 60.5t53 50t29 27.5q-7 8 1.5 19t21 15t20.5 -1 q17 -17 -61.5 -92.5t-190.5 -152.5q-108 -74 -208 -114l-19 -53q19 -18 66.5 -64t76.5 -72.5t69 -60t71.5 -50.5t55.5 -19q22 -2 34.5 24.5t12.5 58.5t-1 57q-3 24 6 22q10 -2 13 -18q1 -2 1 -4q7 -89 -20.5 -130.5t-64.5 -41.5q-52 0 -145.5 79t-187.5 187 q-94 -234 -209 -277q-35 -10 -76.5 -9.5t-86 22.5t-67.5 60q-41 68 -39 151q1 32 11 38q5 3 9 -9q2 -7 3 -19q0 -15 6.5 -41t21.5 -59.5t36.5 -62t56 -46.5t74.5 -15q125 11 233 297q-54 54 -61 64q-11 17 4 17q24 -22 83 -6q20 61 48 157.5t37 122.5q-204 87 -261 98 q-64 13 -125.5 13t-109.5 -13t-69 -44.5t-3 -77.5q26 -65 56 -114.5t61 -79t54.5 -46.5t52 -32t37.5 -22q8 -5 6 -9.5t-12 -2.5q-101 22 -192 127t-102 194z" />
<glyph unicode="L" horiz-adv-x="798" d="M25 6q0 41 30.5 67.5t72.5 26.5q67 0 196 -60q43 59 104 222q-68 0 -107.5 34t-39.5 99q0 26 7.5 46t22.5 20q5 0 5 -9q0 -5 -2 -20.5t-2 -21.5q0 -53 30 -92t92 -39q3 8 17 49t30 85.5t34 90.5t37 75.5t32 29.5q14 0 30 -7.5t16 -19.5q0 -9 -8 -9q-2 0 -4 4t-5 4 q-16 0 -46 -63t-62 -149.5t-33 -88.5q100 23 159 134t52 220q-1 10 -8 15t-7 10q0 13 21 13q34 0 36 -38q1 -47 -13 -105t-43 -117t-82.5 -102t-121.5 -50q-18 -57 -52.5 -129t-62.5 -104q176 -89 290 -89q44 0 79.5 25.5t35.5 69.5q0 22 -13 43t-13 26q0 7 3.5 13.5 t9.5 4.5q12 -5 23.5 -34.5t11.5 -45.5q0 -64 -46.5 -100t-112.5 -36q-14 0 -29.5 2t-29 4.5t-31.5 8t-30 9t-32 12t-30 12t-31 13.5t-28 13.5t-29 14t-26 12.5q-75 -74 -187 -74q-44 0 -77 17.5t-33 57.5zM54 27q0 -35 35 -53.5t86 -18.5q72 0 129 60q-16 8 -52.5 19.5 t-83 22.5t-80.5 4.5t-34 -34.5z" />
<glyph unicode="M" horiz-adv-x="963" d="M23 496q-6 47 10.5 80t46.5 49t74 22t86.5 3.5t92 -10.5t83.5 -16.5t67 -17.5q18 -5 18.5 -25t-8.5 -51q-78 -363 -30 -445q51 -88 247 190q55 79 101 161t59 116t26 42t21.5 -6.5t11.5 -44.5q15 -137 -20 -283.5t-107 -273.5q55 43 115 66q31 12 30 4q-2 -8 -27 -25 q-17 -12 -37 -28.5t-35.5 -30.5t-32 -29t-30 -25t-26 -15.5t-23.5 -4t-19 11.5q-10 11 3.5 24t32.5 24t20 15q17 40 28.5 69t26 70.5t24 75t18.5 75.5t13 78.5t4 78.5t-6 81q-7 -10 -30.5 -51t-54.5 -92t-62 -95q-253 -361 -316 -213q-42 99 7 384q10 61 23 115 q-47 -64 -97.5 -146t-108 -190t-94 -221t-36.5 -200v-1q-6 -29 -20 -5q-13 23 -14 52q-2 66 45 185.5t111.5 234t120.5 203.5t79 115l-33 8q-33 8 -56 13t-62 10.5t-72 5.5q-45 1 -84.5 -15.5t-59.5 -45.5t-18.5 -63.5t42.5 -75.5t119 -77q18 -8 20 -16q3 -8 -34 1 q-73 18 -120.5 71t-52.5 104z" />
<glyph unicode="N" horiz-adv-x="966" d="M16 121q2 35 13 37q7 2 10 -25v-2q0 -20 11 -55.5t32 -77t61 -69t90 -22.5q41 4 82.5 47.5t74 103t66 144t54 147.5t43.5 137t29 92q-20 6 -87.5 21t-88.5 18q-171 28 -183 -33q-9 -50 90 -132q35 -29 80 -57q5 -3 3.5 -6.5t-8.5 -2.5q-68 16 -116.5 55.5t-60 81.5t5 80 t78 51t158.5 -6q63 -14 157 -39q40 -11 48 -25q6 -10 -23 -12h-18q-3 -9 -24.5 -78t-42 -131.5t-50 -139.5t-52.5 -121q-44 -81 -90 -135.5t-96.5 -81t-104 -6t-103.5 90.5q-41 58 -38 151zM613 517q-1 18 14 25q18 7 23 -19l2 -12q30 -394 89 -489q52 -85 116 115 q9 27 18 60q20 73 30.5 180.5t7.5 162.5q-18 28 -28 50q-18 40 -7 71q10 23 29 0q11 -13 37 -81q45 -118 76 -129q13 -10 1 -12q-9 -2 -19 3q-24 11 -61 60q-12 -196 -46 -321q-65 -238 -130 -226q-64 12 -113 245q-34 166 -39 317z" />
<glyph unicode="O" horiz-adv-x="796" d="M8 196q0 168 154 329q-51 -18 -72 -30q-50 -25 -49 -13q1 11 41 32q60 32 123 51q115 98 252 116q89 11 112 -20q16 -24 -22 -69q241 -32 241 -249q0 -165 -142 -284q-120 -99 -280 -121q-162 -22 -263 51q-96 69 -95 207zM61 197q3 -150 122 -209q106 -53 249 -14 t231 146q80 98 80 222q0 90 -58.5 154.5t-150.5 74.5q-7 -9 -25 -28t-59.5 -52.5t-78.5 -52.5q-72 -35 -56 -16q12 14 52 41q78 52 136 110q-129 8 -268 -26q-91 -83 -133.5 -174t-40.5 -176zM284 585q105 20 234 10q19 40 7.5 50.5t-58.5 6.5q-100 -10 -183 -67z" />
<glyph unicode="P" horiz-adv-x="854" d="M7 92q1 32 11 38q5 3 9 -9q2 -7 3 -19q0 -15 6.5 -41t21.5 -59.5t36.5 -62t56 -46.5t74.5 -15q116 11 246 356l-6 2q-18 12 -13 20q3 4 13 2q3 -1 14 -1q22 60 43.5 125.5t39.5 124.5t22 72q7 21 30 21q19 0 18 -17q0 -3 -1 -6q-43 -159 -107 -320q273 18 352 115 q51 65 -1 137q-54 73 -178 105q-82 21 -172 15q-163 -10 -252 -73q-87 -62 -39 -138q19 -30 58 -59q28 -21 13 -21q-20 1 -40 15q-135 99 -78 183q50 73 212 105q68 13 143 15q237 7 347 -84q77 -63 56 -144q-21 -83 -131 -137q-119 -59 -300 -58q-37 -89 -74.5 -159.5 t-86.5 -132t-96.5 -86.5t-103 -6t-107.5 92q-41 59 -39 151z" />
<glyph unicode="Q" horiz-adv-x="796" d="M3 -171q0 42 28 72.5t69 30.5q52 0 121.5 -27t127 -59t132 -59t136.5 -27q45 0 80.5 25.5t35.5 69.5q0 11 -1 19.5t-3 15t-3.5 10t-5 10t-4.5 8.5q-6 15 -1 23q2 2 5 1q12 -5 23.5 -34.5t11.5 -45.5q0 -63 -47 -99.5t-112 -36.5q-49 0 -110.5 20.5t-112 46.5t-115.5 53 t-116 36q-46 9 -83 -2t-37 -40q0 -24 -10 -38q-6 -8 -8 7q-1 8 -1 20zM8 196q0 168 154 329q-51 -18 -72 -30q-50 -25 -49 -13q1 11 41 32q60 32 123 51q115 98 252 116q89 11 112 -20q16 -24 -22 -69q241 -32 241 -249q0 -81 -36.5 -152t-93 -118.5t-125.5 -82t-133.5 -50 t-117.5 -15.5q-122 0 -198.5 76t-75.5 195zM61 197q2 -107 67 -176t168 -69q42 0 89 10t98 29t97 51.5t82.5 74t58.5 100t22 125.5q0 90 -58.5 154.5t-150.5 74.5q-7 -9 -25 -28t-59.5 -52.5t-78.5 -52.5q-72 -35 -56 -16q12 14 52 41q78 52 136 110q-129 8 -268 -26 q-91 -83 -133.5 -174t-40.5 -176zM284 585q105 20 234 10q19 40 7.5 50.5t-58.5 6.5q-100 -10 -183 -67z" />
<glyph unicode="R" horiz-adv-x="951" d="M7 92q1 32 11 38q5 3 9 -9q2 -7 3 -19q0 -15 6.5 -41t21.5 -59.5t36.5 -62t56 -46.5t74.5 -15q116 11 243 348l-17 21q-8 10 0 34q6 19 16 7l17 -20q28 78 62.5 190.5t37.5 120.5q7 21 30 21q19 0 18 -17q0 -3 -1 -6q-43 -159 -107 -320q273 18 352 115q51 65 -1 137 q-54 73 -178 105q-82 21 -172 15q-163 -10 -252 -73q-87 -62 -39 -138q19 -30 58 -59q28 -21 13 -21q-20 1 -40 15q-135 99 -78 183q50 73 212 105q68 13 143 15q237 7 347 -84q77 -63 56 -144q-21 -83 -131 -137q-119 -59 -300 -58v-1q253 -308 361 -318q22 -2 34.5 24.5 t12.5 58.5t-1 57q-3 24 6 22q10 -2 13 -18q1 -2 1 -4q7 -89 -20.5 -130.5t-64.5 -41.5q-110 0 -360 309q-36 -83 -73.5 -148t-84 -118.5t-92.5 -74t-98.5 0t-101.5 90.5q-41 59 -39 151z" />
<glyph unicode="S" horiz-adv-x="460" d="M-9 338q0 73 40.5 135.5t105 104t137 68.5t145.5 36q32 4 62 5.5t66 -2.5t62 -15.5t44 -35.5t18 -59q0 -59 -56 -114t-131 -55q-14 0 -14 9q2 10 17 11q51 0 97 38.5t46 95.5q0 47 -33.5 73t-79.5 28t-95 -2q-95 -12 -178.5 -48.5t-140.5 -102t-57 -145.5q0 -48 27 -82.5 t67.5 -50.5t88.5 -31t90.5 -25t73.5 -31t36 -51q7 -43 -36 -85t-117.5 -68.5t-154.5 -26.5q-60 0 -81.5 22t-20.5 55q0 37 27 37q3 0 5 -6.5t5 -17t7 -17.5q16 -26 42 -33.5t73 -5.5q74 3 143.5 34.5t61.5 78.5q-5 33 -48 55t-99.5 37.5t-112 34.5t-94 57t-38.5 95z" />
<glyph unicode="T" horiz-adv-x="700" d="M60 100q1 36 12 38q8 1 11 -28q0 -15 6.5 -41t21.5 -60t36.5 -62.5t56 -46.5t74.5 -14q35 3 69 31t64 77.5t56 102t51 122.5t41.5 120t36 113.5t26.5 85.5q-112 49 -203.5 75.5t-189.5 26.5q-93 0 -138 -28.5t-44 -76.5t39 -114q38 -67 109 -127q29 -26 71.5 -48 t48.5 -26q8 -5 6 -9.5t-12 -2.5q-82 18 -141 69q-67 58 -106 124q-46 75 -47 140t48 105.5t141 40.5q55 0 115.5 -12.5t92.5 -23.5t113 -43.5t106 -41.5q26 75 33 76t12.5 1.5t9.5 -0.5t8.5 -3.5t7 -4.5t6 -6.5t5 -7t5 -8.5t5.5 -9q9 -23 3.5 -30.5t-27.5 11.5 q-12 19 -27 -18q-4 -10 -5 -15q85 -36 147.5 -47t79.5 10q9 12 22 7q17 -5 -8 -31q-58 -61 -250 31q-12 -35 -33 -109t-37.5 -130t-44.5 -128.5t-56 -123t-69.5 -94.5t-88.5 -61q-35 -10 -76.5 -9.5t-86 22.5t-67.5 60q-43 72 -39 151z" />
<glyph unicode="U" horiz-adv-x="898" d="M14 260q0 84 45.5 159.5t115.5 124.5t149.5 77.5t150.5 28.5q100 0 100 -76q0 -40 -19.5 -90t-71.5 -160q-10 -21 -15 -32q-58 -123 -72 -161q-49 -132 10 -120q27 6 78 44q99 75 241 267.5t170 274.5q6 7 16 12.5t20.5 6.5t18 -9t7.5 -32q-19 -29 -79 -185t-80 -225 q-13 -47 -19.5 -75t-9.5 -53.5t3 -36.5t21 -11q22 0 72 41q21 18 21 6q-1 -13 -9 -21q-81 -73 -130 -73q-13 0 -20.5 7.5t-8.5 24.5t1 35.5t9.5 49.5t15 57t19.5 67q46 150 102 282q-71 -116 -192 -251.5t-200 -196.5q-117 -89 -147 -34q-5 9 -6 21.5t2 30t6.5 33t12.5 38.5 t14.5 38t17 41t16.5 36.5t17 36t14 29.5q1 3 12.5 26l19 38t20 42.5t21 49.5t17 47.5t13 47.5t4.5 40q0 28 -15 37.5t-53 9.5q-91 0 -185 -53t-156.5 -141.5t-62.5 -181.5q0 -43 18.5 -70t56.5 -27q92 0 166 82q19 22 22 19q2 -2 2 -8q-10 -43 -63 -80t-126 -37 q-48 0 -83 34t-35 98z" />
<glyph unicode="V" horiz-adv-x="705" d="M12 482q0 95 69 148t175 53q48 0 85.5 -13.5t63.5 -35t44.5 -56.5t28.5 -68t14.5 -80.5t5 -83.5t-3 -87t-7 -81t-8.5 -76q-1 -4 -1 -6q2 3 46.5 76.5t79 127.5t86.5 130.5t102 135t91 90.5q63 49 97 29q13 -7 8 -15q-1 -2 -3 -3l-1 -1q-3 -1 -12.5 -2.5t-19 -3.5t-28 -13 t-39.5 -30q-80 -71 -179.5 -211t-160.5 -246t-53 -103q14 -4 -12 -39q-25 -33 -42 -34q-18 0 -28 11t4 34q11 13 25 107.5t14 148.5q0 58 -3.5 104.5t-16 99.5t-34 88.5t-60.5 59t-92 23.5q-83 0 -136 -47.5t-53 -139.5q0 -62 31 -101.5t76 -39.5q11 0 16.5 -3t1 -6.5 t-17.5 -3.5q-68 0 -110.5 46t-42.5 117z" />
<glyph unicode="W" horiz-adv-x="1173" d="M16 362q0 67 46.5 129.5t116 103t148 65t145.5 24.5q171 0 171 -151q0 -31 -5.5 -65t-20 -80.5t-21.5 -67t-29.5 -80.5t-25.5 -67q-33 -92 -39 -143q211 266 308 375q61 69 71 75q12 9 25 -6l6 -6q11 -11 -6 -68q-9 -29 -14 -47.5t-16.5 -60t-17.5 -70.5t-14 -69 t-9 -67.5t1 -53.5t12 -39t27 -13q36 0 93 50t111 125.5t92.5 175.5t38.5 189q0 94 -52 113q-10 4 -13.5 9t1 9t13.5 4q41 0 69.5 -33.5t28.5 -96.5q0 -89 -46 -196.5t-110 -192t-133.5 -142t-115.5 -57.5q-25 0 -40 18t-18.5 52t-2.5 70.5t9.5 85.5t16 85t18 81.5t13.5 62.5 q-74 -59 -156 -161t-123.5 -167t-73.5 -121v1q-17 -34 -35.5 -41.5t-26.5 9.5t0 48q3 10 47 142t74.5 254t30.5 199q0 57 -25.5 81.5t-85.5 24.5q-38 0 -90 -12t-109.5 -38t-106 -60.5t-80.5 -85t-32 -106.5q0 -60 48.5 -101t110.5 -41q55 0 79 17q15 11 19 2q0 -8 -14 -17 q-32 -19 -111 -17q-67 2 -119.5 47t-52.5 113z" />
<glyph unicode="X" horiz-adv-x="730" d="M8 509q24 84 74 128t97 44q55 0 101 -42t74 -120l66 -178q181 148 259 230q31 32 40 63q1 3 1.5 8t0.5 9t2 7t5 3q15 0 15 -29q0 -55 -66 -110q-145 -120 -248 -210q121 -270 205 -301q25 -9 45 22t28 67q5 23 13 12q5 -8 3 -17q-18 -66 -55.5 -97.5t-65.5 -23.5 q-82 23 -208 307l-121 -108q-66 -60 -143 -147t-94 -120q-13 -24 -25 -16q-9 7 -1 23q60 115 237 279q50 47 136 118q-55 162 -68 193q-23 62 -61 103.5t-76 41.5q-99 0 -128 -116q-15 -54 -9.5 -92t15.5 -57.5t21 -24.5q4 -2 5 -5t-1 -5.5t-7 -2.5q-38 0 -60 53t-6 111z M426 318l1 1h-1v-1z" />
<glyph unicode="Y" horiz-adv-x="955" d="M43 274q0 69 50 144.5t123 133t157.5 95t150.5 37.5q45 0 77 -19t32 -61q0 -46 -31.5 -124t-69.5 -149t-69.5 -151.5t-31.5 -129.5q0 -33 23 -33q46 0 145.5 102t177 203t114.5 159t79 154q8 19 25 19q15 0 21 -16t6 -33q0 -101 -91 -313t-169 -343q-32 -54 -74.5 -109 t-97.5 -112t-119 -92.5t-122 -35.5q-54 0 -98 31t-44 82q0 19 7 48t19 32q6 -4 7.5 -15.5t0 -29.5t-1.5 -19q0 -44 37 -68.5t84 -24.5q52 0 108 33.5t106 88.5t85.5 103t66.5 99q36 58 69.5 131.5t53 125t52 144t47.5 131.5q-37 -62 -142.5 -186t-229.5 -236t-181 -112 q-32 0 -32 44q0 56 35 143.5t76.5 164t76.5 161.5t35 138q0 30 -18 39.5t-51 9.5q-65 0 -140.5 -36.5t-137.5 -92.5t-103.5 -129t-41.5 -139q0 -98 99 -98q25 0 47 6.5t41 20.5t29 22.5t25.5 26t16.5 18.5q15 15 15 0q0 -11 -14 -29q-28 -40 -77.5 -66t-98.5 -26 q-58 0 -96 40t-38 98z" />
<glyph unicode="Z" horiz-adv-x="655" d="M2 -16q7 43 75.5 121.5t159 160t178 159t140 132.5t38.5 66q-107 11 -181 9q-196 -4 -229 -30q3 -1 7.5 -7.5t4.5 -12.5q-4 -22 -35 7q-14 13 -23 27q-7 10 -3.5 18.5t14.5 9.5q87 14 243 15t235 -3q19 -3 20 -31.5t-12 -43.5q-27 -36 -95 -98t-143 -127t-148.5 -132 t-124.5 -129t-58 -102q36 6 82.5 11.5t133 14t169 6t135.5 -17.5q20 -6 23.5 -19t-6 -28t-22 -28t-24.5 -20t-11 -2l3 7q27 27 28.5 44t-14.5 23.5t-45 6.5q-154 0 -395 -29q-21 -2 -46.5 -7t-38 -7t-13.5 -1q-22 29 -22 36v1z" />
<glyph unicode="[" horiz-adv-x="585" d="M20 18q0 78 128.5 311.5t204.5 321.5q29 33 65 33h127q17 0 6 -20q-3 -6 -7.5 -7t-23.5 -1h-82q-31 0 -74 -57.5t-129 -206.5q-160 -277 -160 -350q0 -31 92 -31q12 0 46 1.5t46 1.5q10 0 2 -14q-7 -13 -17 -13h-128h-9h-12.5t-13.5 0.5t-14.5 1t-13.5 2t-13 4t-10 5.5 t-7.5 7.5t-2.5 10.5z" />
<glyph unicode="\" horiz-adv-x="604" d="M52 660q-11 11 -6.5 24.5t21.5 13.5q15 0 133.5 -148.5t243 -327.5t148.5 -248q23 -67 -6 -67q-6 0 -8.5 2t-2 6t-1.5 14.5t-6 22.5q-31 84 -206 318.5t-310 389.5z" />
<glyph unicode="]" horiz-adv-x="556" d="M27 3q3 6 7.5 7t23.5 1h82q31 0 74 57.5t129 206.5q160 277 160 350q0 31 -92 31q-12 0 -46 -1.5t-46 -1.5q-10 0 -2 14q7 13 17 13h128h9h12.5t13.5 -0.5t14.5 -1t13.5 -2t13 -4t10 -5.5t7.5 -7.5t2.5 -10.5q0 -78 -128.5 -311.5t-204.5 -321.5q-29 -33 -65 -33h-127 q-17 0 -6 20z" />
<glyph unicode="^" horiz-adv-x="334" d="M53 463q6 9 55 51.5t59 44.5q7 -2 51.5 -40.5t58.5 -52.5q8 -8 3 -11q-3 -2 -7 0q-62 34 -111 72q-12 -10 -53 -39t-50 -33q-6 -3 -8.5 -1t2.5 9z" />
<glyph unicode="_" horiz-adv-x="328" d="M-2 1l3 3h338l2 -3v-16l-2 -2h-338l-3 2v16z" />
<glyph unicode="`" horiz-adv-x="355" d="M90 554q-11 8 -9 19t13 18.5t19 1.5q20 -16 57 -39.5t63 -42.5t35 -34q10 -17 -49 11q-52 23 -129 66z" />
<glyph unicode="a" horiz-adv-x="329" d="M6 33q0 46 27.5 124.5t67.5 142t70 63.5h3l11 8q9 10 28 10q15 0 42 -8t30 -8q4 0 10.5 8t15.5 8q25 0 25 -22q0 -9 -3.5 -20t-10 -25.5t-7.5 -17.5q-1 -2 -9.5 -6t-9.5 -7q-22 -62 -39 -132.5t-17 -86.5q0 -25 14 -25t34.5 17t35.5 34t16 17q2 0 2 -4q0 -15 -10 -23 q-1 -1 -9 -8.5t-13 -11.5t-14.5 -12.5t-16.5 -13.5t-17 -12t-17.5 -10.5t-15.5 -6.5t-15 -3q-21 0 -25 25q0 42 33 155q-134 -185 -192 -185q-24 0 -24 36zM52 61q0 -17 10 -17q21 0 74.5 61t70.5 87q25 40 46 86.5t21 61.5q0 6 -5 6h-3q-6 0 -20.5 2t-24.5 2q-14 0 -30 -4 q-25 -7 -82 -118.5t-57 -166.5z" />
<glyph unicode="b" horiz-adv-x="292" d="M-2 39q0 15 24 76q3 8 9.5 12t7.5 7q108 281 171 497l8 6q7 6 17.5 12t17.5 6q10 0 10 -15q-11 -41 -70 -201t-97 -252q38 57 100.5 127.5t93.5 70.5q20 0 20 -37v-7q-1 -20 -19 -90q22 11 30 11q3 0 3 -2q0 -5 -12.5 -15t-25.5 -15q-39 -129 -76 -170q-14 -15 -57 -41.5 t-53 -26.5q-41 0 -61 19q-5 -12 -10 -12q-9 0 -20 12t-11 28zM58 51q24 -27 49 -27q41 0 76.5 61t52.5 121q-118 -62 -152 -99q-6 -12 -14.5 -31t-11.5 -25zM91 132q60 49 153 96q16 42 18 87q0 21 -10 21q-33 0 -161 -204z" />
<glyph unicode="c" horiz-adv-x="231" d="M4 63q0 69 45 166t78 112q15 6 32.5 15t30 14t27.5 5q47 0 47 -47q0 -21 -9.5 -37.5t-20.5 -16.5q-12 0 -12 18q0 6 4 22t4 23q0 16 -17 16q-12 0 -37.5 -16.5t-38.5 -29.5q-19 -20 -55 -109.5t-36 -138.5q0 -37 29 -37q37 0 74 28.5t60 58t24 29.5q5 -2 5 -7 q0 -15 -24 -47.5t-66.5 -62t-82.5 -29.5q-61 0 -61 71z" />
<glyph unicode="d" horiz-adv-x="339" d="M5 23q0 43 30 124.5t71.5 148t69.5 66.5h4q7 0 16.5 7.5t20.5 7.5q15 0 42.5 -8t29.5 -8q1 0 1 1q72 194 74 200q-11 0 -11 12q0 28 30 73q4 8 16 8q13 0 27 -7q3 -2 3 -9q0 -16 -15.5 -59.5t-43 -113t-42.5 -113.5q1 1 2 1q4 0 8.5 -7t4.5 -13t-10 -6q-13 0 -14 3 q-20 -45 -50.5 -146t-30.5 -124t13 -23q15 0 35 17.5t35.5 35.5t18.5 18t3 -5q0 -3 -1.5 -8t-3 -8.5t-2.5 -3.5q-23 -23 -64 -52.5t-64 -29.5q-19 0 -19 21q0 54 38 165q-43 -61 -104.5 -128t-96.5 -67q-21 0 -21 30zM52 59q0 -16 10 -16t29 16t35 34t35 39.5t20 23.5 q27 30 49.5 70.5t37 75.5t15.5 37q0 11 -59 11q-17 0 -25 -2q-22 -6 -84.5 -121t-62.5 -168z" />
<glyph unicode="e" horiz-adv-x="253" d="M20 57q0 11 3 26q7 38 18.5 74t12.5 44q-15 4 -15 16q0 11 17 11h7q40 79 46 91q28 53 107 53q34 0 47 -61q6 -31 6 -50q0 -22 -15 -37.5t-39 -22t-43 -9t-36 -2.5q-10 0 -22.5 0.5t-13.5 0.5q-33 -84 -33 -132q0 -40 30 -40q21 0 49 26.5t49 53t25 26.5q7 0 7 -8 q0 -28 -55 -77.5t-86 -49.5q-25 0 -45.5 15.5t-20.5 51.5zM109 219q2 0 16 -1t24 -1q41 0 59 9t19 37q0 25 -5 43t-11.5 25t-13.5 7q-20 0 -47.5 -43t-40.5 -76z" />
<glyph unicode="f" horiz-adv-x="210" d="M-180 -127q0 28 8.5 52t15.5 24q4 0 5 -6q-2 -20 -2 -28q0 -46 18 -74t44 -28q24 0 49 25.5t46 77.5q28 70 75.5 224t60.5 204q-24 -4 -67 -4q-23 0 -23 9q0 7 13 16.5t21 9.5h64q46 163 63 200q9 20 19.5 35t23 24t23.5 14.5t26.5 8t26 3.5t28.5 1.5t28 1.5 q16 -3 16 -23q0 -14 -6.5 -27.5t-13.5 -13.5q-1 0 -6 10.5t-16.5 20.5t-28.5 10q-48 0 -70 -56q-44 -113 -68 -209h98q28 0 28 -6q0 -10 -46 -15.5t-88 -5.5q-4 -10 -24.5 -80t-46 -156.5t-38.5 -127.5q-33 -104 -81.5 -147.5t-97.5 -43.5q-77 0 -77 80z" />
<glyph unicode="g" horiz-adv-x="293" d="M-73 -297q0 53 49 148.5t82 132.5q3 4 20 10q-5 3 -13 7.5t-13.5 7t-9.5 6.5t-4 8q0 11 9.5 20.5t19.5 9.5h4q61 -23 115 -101t54 -146q0 -14 -1 -20q-9 -51 -88.5 -93.5t-150.5 -42.5q-73 0 -73 53zM-45 -284q0 -41 47 -41q51 0 119.5 34t70.5 64v13q0 53 -28.5 106 t-68.5 88q-2 -3 -24.5 -35t-38 -56t-35.5 -58.5t-31 -64t-11 -50.5zM55 132q0 86 53.5 166t112.5 80q5 0 15 -2q0 36 26 36q29 0 29 -46q0 -7 -1 -24t-1 -25q1 0 4 -2t5.5 -4t5.5 -5t4.5 -6t1.5 -6q0 -9 -15 -9h-9q-1 -6 -4.5 -24.5t-6.5 -34t-5 -20.5q-25 -64 -69.5 -102.5 t-92.5 -38.5q-28 0 -40.5 16t-12.5 51zM97 125q0 -31 25 -31q37 0 82 59.5t45 135.5q-11 2 -13 31.5t-14 29.5q-31 0 -58 -40t-42 -79q-25 -68 -25 -106z" />
<glyph unicode="h" horiz-adv-x="310" d="M8 4q0 9 5 20q27 70 52 145t53.5 167.5t46.5 146.5q3 9 3 18q0 4 -1 7.5t-1 5.5q0 4 3 13q23 64 39 84.5t49 20.5q13 0 15 -9q-109 -220 -177 -468q149 233 225 233q21 0 21 -14q0 -9 -7 -20q-54 -87 -100.5 -193.5t-46.5 -165.5q0 -14 8 -14q3 0 17.5 9t17.5 9q5 0 5 -6 q0 -12 -19 -25.5t-37 -13.5q-25 0 -25 37q0 43 28 121.5t56 143t28 72.5q0 2 -1 2q-4 0 -18 -15q-63 -71 -106 -138.5t-57.5 -103.5t-30 -57.5t-36.5 -21.5q-9 0 -9 10z" />
<glyph unicode="i" horiz-adv-x="168" d="M18 12q0 9 4 21q11 31 22.5 64t17.5 51t12.5 37t9.5 28.5t5.5 19t3.5 14.5t1 10q0 4 -1.5 7.5t-1.5 5.5q0 4 3 13q22 63 39 84t50 21q13 0 15 -9q-2 -3 -13.5 -25t-19.5 -38t-22 -47t-25 -59t-23 -67t-21 -78q-1 -3 -1 -8q0 -12 10 -12q6 0 32.5 15t34.5 15q7 0 8 -4 q0 -12 -51 -44.5t-70 -32.5t-19 18zM164 482q0 21 31 46t54 25q5 0 6 -3q0 -13 -19 -33t-24 -31q-13 -33 -28 -37q-20 0 -20 33z" />
<glyph unicode="j" horiz-adv-x="201" d="M-163 -173q0 24 6.5 44t12.5 20q4 0 5 -6v-10q0 -54 20 -88t49 -34q23 0 45 25t38 76q59 189 109 385q2 8 2 17q0 4 -1.5 8t-1.5 7q0 7 2 12q16 62 32 83.5t48 21.5q13 0 16 -9q-71 -170 -135 -453q-24 -104 -68.5 -147.5t-93.5 -43.5q-85 0 -85 92zM172 493q0 21 33 43 t52 22q14 0 14 -9t-18 -19q-12 -7 -21 -20.5t-13 -26t-11 -22t-16 -9.5q-7 0 -13 15.5t-7 25.5z" />
<glyph unicode="k" horiz-adv-x="269" d="M-1 -12q0 4 5 19q28 70 54 147.5t58 179t48 149.5q4 12 4 18q0 4 -1.5 7.5t-1.5 5.5q0 4 3 13q23 64 39 84.5t49 20.5q14 0 15 -9q-60 -121 -97.5 -217t-66.5 -212l46 41q46 41 96 84.5t57 49.5q27 20 41 20q6 0 6 -4q0 -11 -27 -32q-62 -36 -117.5 -96.5t-55.5 -79.5 q0 -36 31 -90t55 -74q19 -16 19 -26q0 -6 -9 -6q-20 0 -46 27.5t-44.5 56t-38.5 65.5l-21 37q-43 -119 -45 -150q0 -7 -18.5 -22.5t-29.5 -15.5q-7 0 -7 9z" />
<glyph unicode="l" horiz-adv-x="179" d="M17 12q0 10 4 21q26 71 48.5 141t51.5 166.5t43 142.5q3 9 3 18q0 4 -1.5 7.5t-1.5 6.5t3 12q20 63 37 84t50 21q14 0 15 -9q-55 -114 -112 -275.5t-84 -282.5q-1 -3 -1 -8q0 -12 10 -12q6 0 32.5 15t33.5 15q6 0 9 -4q0 -12 -50 -44.5t-71 -32.5q-19 0 -19 18z" />
<glyph unicode="m" horiz-adv-x="488" d="M-2 -9q0 7 4.5 18t10 22l6.5 13q16 39 66 195q4 12 4 18q0 4 -1.5 7.5t-1.5 5.5q0 4 3 13q22 63 39 84t49 21q13 0 15 -9q-82 -168 -98 -240q167 266 253 266q20 0 20 -13q0 -9 -7 -20q-87 -147 -110 -259q49 97 93.5 150.5t132.5 117.5q19 15 50 15q20 0 20 -14 q0 -7 -6 -19q-121 -214 -146 -345q-3 -10 -3 -20q0 -14 9 -14q4 0 20.5 9.5t19.5 9.5q5 0 5 -6q0 -13 -22 -27t-44 -14q-29 0 -29 40q0 23 10 58.5t20 60t28.5 66t21.5 49.5q31 73 31 87q0 7 -5 7q-3 0 -11 -5q-52 -35 -110 -113t-86 -182q-2 -8 -21 -18.5t-32 -10.5 q-12 0 -12 9v2l1 2q28 132 94 307q5 13 5 18t-3 5q-5 0 -15 -11q-64 -74 -113 -147t-68.5 -111t-38.5 -62t-40 -24q-8 0 -8 8z" />
<glyph unicode="n" horiz-adv-x="326" d="M-3 -10q2 -3 37.5 100t50.5 149q4 12 4 18q0 4 -1.5 7.5t-1.5 5.5q0 4 3 13q23 64 39 84.5t49 20.5q13 0 15 -9q-82 -168 -98 -240q165 266 253 266q20 0 20 -13q0 -9 -7 -20q-51 -85 -95 -195t-44 -165q0 -18 8 -18q3 0 19.5 10t19.5 10q6 0 6 -6q0 -12 -22 -27t-44 -15 q-29 0 -29 43q0 39 16 91t50 133t34 82q5 13 5 20q0 5 -3 5q-5 0 -22 -18q-43 -48 -123 -164t-82 -143q-1 -7 -19 -19.5t-30 -12.5q-7 0 -8 7z" />
<glyph unicode="o" horiz-adv-x="261" d="M21 65q0 23 4 46q5 26 18 67t34 89t51.5 81.5t61.5 33.5h7q0 14 8 24t22 10q14 -1 25 -58.5t32 -59.5q19 -3 19 -11t-15 -15.5t-27 -7.5q0 -117 -61 -200t-121 -83q-58 0 -58 84zM66 60q0 -49 28 -49q40 0 89.5 81.5t49.5 179.5q-9 5 -22 35.5t-18 30.5q-31 0 -72 -91.5 t-51 -144.5q-4 -23 -4 -42z" />
<glyph unicode="p" horiz-adv-x="298" d="M-68 -251q0 21 16.5 73t48 135.5t32.5 87.5q-3 7 -3 17q0 23 22 37q67 207 78 247q0 1 -11 2.5t-11 6.5q0 8 16 15l15 6q-4 4 -4 8q0 14 19 30.5t32 16.5q8 0 8 -10q0 -9 -5 -19l-11 -24q71 -50 94 -163q6 2 19 7t24 8t22 3q7 0 7 -3q0 -7 -10 -12.5t-30.5 -11.5 t-27.5 -9q5 -26 5 -57q0 -78 -39.5 -113.5t-93.5 -35.5q-58 0 -90 26q-9 -26 -34 -98.5t-36 -104.5q-1 -2 -1 -4q0 -3 3.5 -9t3.5 -12q0 -12 -15 -38.5t-31 -26.5q-12 0 -12 25zM66 39q35 -23 68 -23q51 0 75.5 33.5t24.5 81.5q0 22 -5 52q-17 0 -69 -31.5t-72 -49.5z M99 137q48 33 125 62q-7 36 -19 67t-22.5 47t-17.5 16q-3 0 -13 -28.5t-27 -82.5t-26 -81z" />
<glyph unicode="q" horiz-adv-x="311" d="M10 23q0 44 34.5 125.5t81.5 148t78 66.5h3l11 8q9 10 28 10q16 0 42 -8t29 -8q4 0 11.5 8t16.5 8q27 0 27 -25q0 -19 -19 -60q-1 -2 -9.5 -6t-9.5 -7q-41 -97 -60 -143.5t-46 -126.5t-43 -150q-4 -16 -4 -28q0 -18 11 -18q19 0 56.5 35.5t40.5 35.5q5 0 5 -7 q0 -6 -3.5 -13t-5.5 -8q-98 -84 -136 -84q-20 0 -23 25q0 65 118 376q-30 -38 -62 -74t-77.5 -73.5t-71.5 -37.5q-23 0 -23 31zM65 58q0 -14 9 -14q21 0 74.5 56.5t80.5 91.5q29 44 52.5 89.5t23.5 59.5q0 5 -4 5h-3q-6 0 -21 2.5t-24 2.5q-15 0 -30 -5q-13 -3 -51 -58 t-72.5 -125t-34.5 -105z" />
<glyph unicode="r" horiz-adv-x="270" d="M6 -1q0 27 6.5 49t16.5 26q22 83 31 124l10 42q2 7 2 16q0 5 -2 9t-2 8q0 6 2 11q16 63 32.5 86t48.5 23q12 0 14 -8q-1 -3 -14.5 -35t-25 -60t-25.5 -71t-22 -79q33 65 102 156.5t114 91.5q24 0 24 -30q0 -31 -23 -63q-8 -11 -21.5 -21.5t-20.5 -10.5q-6 0 -6 6 q0 4 9.5 28t9.5 33q0 7 -5 7q-35 0 -103.5 -108t-101.5 -211q-6 -8 -19 -16t-22 -8q-6 0 -9 5z" />
<glyph unicode="s" horiz-adv-x="254" d="M14 3q0 12 11 12q33 0 92.5 20.5t59.5 44.5q0 14 -22.5 33t-49 35t-49 38.5t-22.5 43.5q0 17 12 32q9 11 19 21.5t19 18.5t20.5 16t20.5 14t21 12l19 9.5t18.5 8.5t16 6.5t14.5 5.5t11 4q17 5 26 5q36 0 36 -40q-2 -20 -26 -57t-37 -37q-4 0 -4 6q0 9 11 36.5t11 35.5 q0 15 -18 15q-3 0 -33 -5q-25 -6 -65.5 -32t-40.5 -57q0 -11 5 -20q13 -26 45.5 -44t56 -34t23.5 -42q0 -44 -67.5 -84.5t-115.5 -40.5q-8 0 -13 6.5t-5 13.5z" />
<glyph unicode="t" horiz-adv-x="231" d="M53 349q0 7 13 16.5t21 9.5h64l4 14q3 12 3 17q0 4 -2 7.5t-2 6.5t3 12q20 64 36.5 85t48.5 21q14 0 16 -9q-22 -47 -61 -154h97q28 0 28 -6q0 -10 -46 -15.5t-88 -5.5q-50 -141 -81 -270q-5 -20 -5 -29q0 -17 11 -17q20 0 58.5 35.5t41.5 35.5q5 0 5 -6q0 -17 -11 -22 q-92 -83 -129 -83q-23 0 -23 29q0 16 24 94q3 10 64 229q-24 -4 -67 -4q-23 0 -23 9z" />
<glyph unicode="u" horiz-adv-x="333" d="M7 9q0 15 11 43q0 1 24 54t38.5 91.5t14.5 55.5q0 5 -2 9.5t-2 7.5q0 1 2 11q17 64 32 84.5t50 20.5q14 0 17 -9q-120 -295 -120 -309q0 -4 3 -4q4 0 24 16q100 77 176 216q1 31 19 64t53 33q11 0 12 -9q-3 -9 -22 -60t-31 -86q-18 -51 -38.5 -124t-20.5 -89q0 -3 2 -3 q8 0 40.5 25t44.5 25q8 0 8 -5q0 -7 -22.5 -23t-51.5 -33.5t-32 -19.5q-7 -6 -20.5 -20.5t-25 -24t-20.5 -9.5q-13 0 -13 11q0 7 16 21.5t21 25.5q17 41 68 239q-47 -70 -124.5 -156.5t-116.5 -86.5q-14 0 -14 18z" />
<glyph unicode="v" horiz-adv-x="349" d="M51 -6q0 7 2 9.5t4.5 4.5t6.5 6t7.5 16.5t7 33t6.5 60t4 92.5q0 18 -6 27t-6 35q0 49 9.5 68t39.5 19q14 0 19 -9q-35 -279 -38 -315q1 1 20 17t37.5 35t43 48t46 69t35.5 85q2 8 2 12q0 7 -4 17.5t-4 15.5q0 12 21 37.5t35 25.5q11 0 11 -21q0 -12 -3 -28 q-11 -59 -50 -126.5t-85 -118.5t-89.5 -85.5t-65.5 -34.5q-6 0 -6 5z" />
<glyph unicode="w" horiz-adv-x="493" d="M17 319q0 14 26 37t40 23q41 0 41 -141q0 -30 -3 -81q31 57 83.5 137t73.5 80q8 11 20 11q19 0 19 -22q0 -3 -1 -8t-1 -7q-1 -6 9 -34q8 -24 20 -75.5t21 -90t10 -38.5q14 0 62 94t51 145q0 6 -4 18t-4 19q0 12 10 23h1q11 9 17 9q13 0 19.5 -19.5t6.5 -37.5 q0 -6 -18 -46t-50 -101t-63 -111q-12 -19 -18.5 -31.5t-8.5 -18t-7.5 -24.5t-9.5 -33q-4 -7 -11 -7q-10 0 -20.5 12.5t-10.5 23.5q0 4 0.5 12.5t0.5 13.5q0 137 -55 270q-36 -21 -102.5 -152.5t-66.5 -176.5q-3 -11 -11 -11q-10 0 -22 14t-12 25q0 3 1 4q42 103 42 190 q0 43 -7 70.5t-16 37.5t-19 10q-2 0 -14 -8t-16 -8q-3 0 -3 3z" />
<glyph unicode="x" horiz-adv-x="282" d="M-75 -93q0 23 45 81.5t104 125t74 89.5l-2 7q-1 7 -2.5 14t-4.5 18t-6.5 20.5t-9 19.5t-11 17t-13 11.5t-15.5 4.5q-5 0 -14 -1t-12 -1q-13 0 -14 12q-1 3 13 11.5t19 8.5q14 1 28.5 17t17.5 16h1q17 0 37 -54t26 -85q13 24 69 84.5t69 60.5q11 0 11 -15q0 -25 -13 -34 q-9 -3 -10 -3l-3 1q-3 0 -32 -29.5t-37 -38.5q-48 -48 -48 -51l26 -92q26 -93 26 -116q0 -11 -13 -30.5t-26 -19.5q-4 0 -11 40.5t-17 97t-20 83.5q-23 -30 -67 -83t-77 -96.5t-58 -88.5q-11 -20 -21 -20q-9 0 -9 18z" />
<glyph unicode="y" horiz-adv-x="317" d="M-87 -311q0 36 43 109.5t88.5 136.5t46.5 67q11 33 11 90q0 82 -15.5 144t-42.5 62h-8l-6 -1q-4 0 -4 5q0 8 22 24q3 2 17 22t21 20q21 0 37.5 -64.5t16.5 -143.5q0 -8 -0.5 -24t-0.5 -24q0 -16 8 -16q23 0 92.5 106t69.5 135q0 6 -5 6q-2 0 -7 -2t-8 -2q-5 0 -8 5 q0 13 29 29t47 16q5 0 7 -1q3 -5 3 -11q0 -40 -87.5 -161t-140.5 -183q0 5 -2 -1q-15 -60 -18 -66q-5 -10 -9 -11q-4 0 -10.5 2.5t-7.5 2.5q-135 -181 -135 -232q0 -9 4 -18.5t4 -12.5q0 -11 -12 -19t-24 -8q-16 0 -16 19z" />
<glyph unicode="z" horiz-adv-x="303" d="M-11 21q0 27 19 44q174 168 262 274h-54q-78 0 -91 -14q-1 -1 -9 -11t-15.5 -18.5t-9.5 -8.5q-9 0 -9 7q0 42 22.5 60.5t79.5 18.5q2 0 25.5 0.5t40.5 0.5t38.5 -1.5t33.5 -6t12 -11.5q0 -6 -1 -10q-5 -18 -13.5 -27t-16 -11t-7.5 -3q-50 -41 -132.5 -124.5 t-114.5 -131.5q-2 -2 -2 -6q0 -16 68 -16q99 0 155 14q10 3 17 3q10 0 10 -7q0 -13 -12 -29.5t-26 -16.5q-13 0 -13 10q-60 5 -96 5q-38 0 -83.5 -3.5t-52.5 -3.5q-25 0 -25 23z" />
<glyph unicode="{" horiz-adv-x="323" d="M54 280q71 7 101 28t49 85q5 18 13 55t13 55q19 65 61.5 101.5t131.5 35.5h1q3 0 4.5 -4.5t-1 -10t-8.5 -6.5q-75 0 -104.5 -34t-48.5 -111q-15 -60 -25 -83q-18 -46 -51 -81.5t-75 -44.5q63 -24 59 -91q-3 -37 -25.5 -106.5t-25.5 -105.5q-1 -19 4 -32.5t11.5 -20 t21 -9.5t23 -3.5t25.5 -0.5h8q14 -3 4 -11q-7 -7 -20 -7q-56 0 -88 17.5t-27 70.5q3 37 26 107t26 106q3 41 -18.5 60.5t-55.5 19.5q-29 0 -27 9q3 7 18 12z" />
<glyph unicode="|" horiz-adv-x="219" d="M101 616q0 10 17 10q40 0 40 -86q0 -109 -10.5 -342t-24.5 -273q-6 -11 -12.5 -12.5t-8.5 6t0 19.5q7 28 7 173v333q0 55 -2 93.5t-4 56t-2 22.5z" />
<glyph unicode="}" horiz-adv-x="425" d="M32 -121q-3 0 -4.5 4.5t1 10t8.5 6.5q75 0 104.5 34t48.5 111q15 60 25 83q18 46 51 81.5t75 44.5q-63 24 -59 91q3 37 25.5 106.5t25.5 105.5q1 19 -4 32.5t-11.5 20t-21 9.5t-23 3.5t-25.5 0.5h-8q-14 3 -4 11q7 7 20 7q56 0 88 -17.5t27 -70.5q-3 -37 -26 -107 t-26 -106q-3 -41 18.5 -60.5t55.5 -19.5q29 0 27 -9q-2 -7 -18 -12q-71 -7 -101 -28t-49 -85q-5 -18 -13 -55t-13 -55q-19 -65 -61.5 -101.5t-131.5 -35.5h-1z" />
<glyph unicode="~" horiz-adv-x="304" d="M29 440q0 7 16.5 21.5t26.5 19.5q16 10 36 10q17 0 48 -10.5t47 -10.5q24 0 42 21q6 0 6 -4q0 -7 -14.5 -21t-25.5 -21q-13 -8 -27 -8q-18 0 -50 13.5t-49 13.5t-33.5 -13t-21.5 -13q-1 1 -1 2z" />
<glyph unicode="&#xa1;" horiz-adv-x="202" d="M-141 -336q27 33 122 230t75 211q-7 9 -0.5 16t19 12t18.5 2q6 -8 5.5 -22.5t-10 -43.5t-20.5 -57.5t-26 -64t-27.5 -63.5l-25 -56t-17.5 -41q-2 -6 -26.5 -53t-26.5 -58q-2 -6 7 -8t10 -7q0 -11 -40 -13q-41 -3 -39 12zM111 244q1 7 5 23t6.5 27t2.5 15q2 18 30 23 q8 1 12.5 -6t5.5 -14.5t1 -17.5v-1q0 -13 -15.5 -27t-31 -20.5t-16.5 -1.5z" />
<glyph unicode="&#xa2;" horiz-adv-x="231" d="M79 204q-21 13 -16 50.5t22 78t43 75.5t47 45q12 4 30.5 12.5t26.5 10.5q61 149 70 153q10 3 14.5 -0.5t-0.5 -17.5q-15 -30 -59 -133q49 -2 41 -46q-5 -23 -23 -27q-13 -1 -14 12q0 4 4.5 17.5t1.5 20.5t-17 7q-52 -121 -97 -243q28 8 56 29t44.5 39t17.5 18 q15 -1 -12 -33l-2 -3q-17 -19 -48.5 -40.5t-62.5 -29.5q-37 -103 -43 -146q-3 -16 0.5 -25.5t10.5 -9.5q4 0 1 -5q-1 -3 -6 -8t-6 -5q-7 -4 -13 0t-8 13q-11 44 39 181q-25 -2 -42 10zM119 215h9q40 100 62 153q4 11 15.5 40t17.5 44q-18 -9 -39 -24q-27 -23 -66 -116.5 t1 -96.5z" />
<glyph unicode="&#xa3;" horiz-adv-x="817" d="M40 15q0 23 14 37t39 15q43 2 126 -25q19 24 59 107.5t62 150.5h-97q-12 1 -14.5 8t3 14.5t14.5 7.5q18 1 54 0t46 -1q6 14 18 52t23.5 73.5t33 78t46 73.5t63.5 52t85 21q43 0 72.5 -27.5t29.5 -68.5q0 -35 -15 -54t-33 -19q-9 0 -12.5 3t4.5 10q21 15 27 37 q12 43 -11.5 71.5t-74.5 28.5q-31 0 -58 -18t-45.5 -43.5t-37.5 -65.5t-29.5 -70.5t-24.5 -73t-21 -60.5q7 0 49 -1.5t67 -1.5q36 0 40 -13q2 -6 -9 -10q-9 -3 -25 -3q-29 0 -76.5 1t-51.5 1q-1 -1 -16 -39t-20.5 -51t-21 -47.5t-26 -53.5t-25 -42t-27.5 -38 q69 -33 177.5 -55t191.5 -22q51 0 93 28.5t42 77.5q0 27 -11 49t-21 27q-8 4 -5.5 10.5t11.5 6.5q18 0 34.5 -24.5t16.5 -61.5q0 -72 -48.5 -111t-120.5 -39q-26 0 -51.5 2t-56.5 8.5t-48.5 10t-55.5 15.5t-46.5 15t-53 18t-46.5 16q-88 30 -126 30q-48 0 -48 -45 q0 -6 -12 -4q-20 3 -20 32z" />
<glyph unicode="&#xa4;" horiz-adv-x="479" d="M49 90l102 96q-35 22 -35 65q0 69 67 109l-53 81l29 9q4 -18 39 -82q39 17 84 17q34 0 60 -12q43 42 72 75l23 -9q-2 -2 -16 -14t-32 -28t-35 -32q29 -21 29 -61q0 -39 -22 -69.5t-58 -47.5q48 -79 63 -96h-33q-4 13 -48 88q-29 -10 -64 -10t-58 11l-82 -90h-32zM155 266 q0 -29 20.5 -48.5t57.5 -19.5q50 0 81 28.5t31 68.5q0 29 -18 47t-54 18q-52 0 -85 -26.5t-33 -67.5z" />
<glyph unicode="&#xa5;" horiz-adv-x="582" d="M73 143q-27 21 8 40q11 3 19.5 2t21 -4t15.5 -3q19 0 65 -2v1q0 1 1 2q6 22 9 50q-51 -3 -96 -1q-20 0 -26 3q-27 21 8 40q11 3 19.5 2t21 -4t15.5 -3q19 0 61 -2q0 9 -1 12q-38 98 -107 308q-14 54 4 62q31 14 67 2q6 -2 8 -5t0.5 -6t-4 -5.5t-4.5 -4l-2 -1.5 q-11 -3 -12.5 -22t6 -50t17 -63t24 -70.5t24.5 -62.5t20 -49q54 44 150 147t113 169q2 11 9 26t14 15q1 0 6.5 0.5t9.5 0.5t9 -1.5t8 -6t4 -12.5q3 -23 -93 -140q-8 -9 -12 -14q-62 -75 -206 -209q-6 -18 -7 -22q61 0 124 3q25 1 25 -6q0 -5 -17 -9q-44 -11 -139 -18 q-7 -35 -11 -58q62 0 125 3q25 1 25 -6q0 -5 -17 -9q-43 -11 -138 -18q-3 -18 -3 -31q-3 -39 -6 -50q-9 -33 -20 -45.5t-43 -16.5q-6 -3 -17.5 -0.5t-10.5 11.5q5 9 15 30t13 27q16 34 27 72q-49 -3 -93 -1q-20 0 -26 3zM176 626z" />
<glyph unicode="&#xa6;" horiz-adv-x="219" d="M101 616q0 10 17 10q40 0 40 -86q0 -97 -5 -218l-44 2v120q0 55 -2 93.5t-4 56t-2 22.5zM102 -65q7 30 8 96t-1 246l42 1q-12 -310 -28 -356q-6 -11 -12.5 -12.5t-8.5 6t0 19.5z" />
<glyph unicode="&#xa7;" horiz-adv-x="626" d="M-14 -180q0 37 29 36q3 0 5 -6t4.5 -16.5t6.5 -17.5q15 -27 42 -35t75 -7q67 1 129.5 41.5t74.5 96.5q13 63 -74 104q-17 8 -55 23t-64 27t-55 30.5t-46 43.5t-20 55q-6 60 38.5 115t119.5 87q-8 17 -9 36q-9 89 85 160.5t216 71.5q103 0 101 -105q0 -13 -11 -30t-21 -12 q-3 1 -3 10.5t0.5 21.5t-2.5 25q-15 58 -113 53q-71 -4 -144 -51.5t-66 -111.5q2 -18 9 -33.5t15 -27t23.5 -23t25.5 -18.5t31 -16.5t30.5 -13.5t33 -12.5t30.5 -11.5q66 -26 101 -54t28 -70q-9 -53 -54.5 -102t-113.5 -76q25 -26 19 -60q-14 -82 -106 -145t-213 -60 q-62 1 -83 23.5t-19 54.5zM80 227q2 -18 9 -33.5t15 -27t23.5 -23t25.5 -18.5t31 -16.5t30.5 -13.5t33 -12.5t30.5 -11.5q66 -28 91 -46q49 17 86 51t46 74q13 63 -74 104q-14 6 -68.5 27.5t-90 42.5t-57.5 48q-58 -22 -97 -60t-34 -85z" />
<glyph unicode="&#xa8;" horiz-adv-x="565" d="M301 536q0 14 16.5 29.5t31.5 20t19 -0.5q0 -12 -7 -37.5t-7 -27.5q0 -18 -32 -25q-10 -1 -15 7t-6 16t0 18zM453 536q0 14 16.5 29.5t31.5 20t19 -0.5q0 -12 -7 -37.5t-7 -27.5q0 -18 -32 -25q-10 -1 -15 7t-6 16t0 18z" />
<glyph unicode="&#xa9;" horiz-adv-x="799" d="M324 -8q-169 0 -239 116q-59 98 -23 231q35 134 147 220q110 86 258 86q187 0 259 -118q60 -97 20 -230q-40 -131 -155 -217q-116 -88 -267 -88zM332 12q154 1 266 122q93 100 111 228q17 131 -58 205q-63 61 -177 61q-151 0 -266 -120q-95 -99 -117 -225 q-22 -132 53 -207q65 -64 188 -64zM352 95q-122 0 -162 91q-36 79 7 180q44 102 140 151q61 31 132 31q67 0 89 -30q6 14 6 23q0 12 9 12q7 -1 8 -7q0 -7 -2 -15t-5.5 -17.5t-4.5 -14.5q6 -14 6 -39q-3 -34 -18 -34q-20 0 -19 19q1 15 12 48q-21 34 -88 34q-115 0 -188 -96 q-61 -79 -57 -170q5 -92 77 -126q31 -14 73 -14q116 0 215 91q13 16 18 14q8 -1 -1 -20t-19 -30q-34 -38 -100 -59.5t-128 -21.5z" />
<glyph unicode="&#xaa;" horiz-adv-x="329" d="M6 323q0 46 27.5 124.5t67.5 142t70 63.5h3l11 8q9 10 28 10q15 0 42 -8t30 -8q4 0 10.5 8t15.5 8q25 0 25 -22q0 -9 -3.5 -20t-10 -25.5t-7.5 -17.5q-1 -2 -9.5 -6t-9.5 -7q-22 -62 -39 -132.5t-17 -86.5q0 -25 14 -25t34.5 17t35.5 34t16 17q2 0 2 -4q0 -15 -10 -23 q-1 -1 -9 -8.5t-13 -11.5t-14.5 -12.5t-16.5 -13.5t-17 -12t-17.5 -10.5t-15.5 -6.5t-15 -3q-21 0 -25 25q0 42 33 155q-134 -185 -192 -185q-24 0 -24 36zM52 351q0 -17 10 -17q21 0 74.5 61t70.5 87q25 40 46 86.5t21 61.5q0 6 -5 6h-3q-6 0 -20.5 2t-24.5 2q-14 0 -30 -4 q-25 -7 -82 -118.5t-57 -166.5z" />
<glyph unicode="&#xab;" horiz-adv-x="420" d="M85 256q0 11 48 79.5t70 95.5q8 11 19 11q7 0 7 -6q0 -7 -41 -68.5t-58 -84.5q97 -121 97 -134q0 -4 -1 -7t-3 -4.5t-6 -1.5l-8 4q-12 17 -28.5 33.5t-27 25t-34 26.5t-31.5 25q-3 3 -3 6zM225 256q0 11 49.5 81.5t69.5 93.5q8 11 19 11q6 0 6 -6q0 -7 -41 -68.5 t-58 -84.5q98 -115 98 -134q0 -6 -2.5 -10t-8.5 -3l-8 4q-12 17 -28 33.5t-27 25.5t-34 26.5t-32 24.5q-3 3 -3 6z" />
<glyph unicode="&#xac;" horiz-adv-x="596" d="M29 187q0 6 8 11l77 3q67 0 102 10q12 5 22 6l22 3q12 0 24 -4q8 0 72.5 6t101.5 4q29 -2 57 0l15 2l16 3q5 0 8 -3q2 0 3 1h3q12 0 12 -12q0 -22 -5 -45t-12.5 -48.5t-10.5 -40.5q-6 -22 -9 -46q-4 -7 -11 -6t-8 10q4 111 18 168l-42 -3q-50 -3 -70 -9q-36 -9 -44 -9 q-10 -3 -28 -1l-37 3q-19 1 -36 7q-18 -3 -35 -3h-40q-10 0 -15 -1l-17 -2q-5 -1 -20 0t-19 -1q-26 -10 -85 -14q-4 0 -6 2h-1q-8 1 -10 9z" />
<glyph unicode="&#xad;" horiz-adv-x="289" d="M28 124q-10 10 1 24t24 20q27 12 26 0q0 -6 -5 -11q97 -6 167 -1q19 1 18 -6q-1 -5 -12 -8q-28 -9 -94 -15.5t-106 -4.5q-15 0 -19 2z" />
<glyph unicode="&#xae;" horiz-adv-x="638" d="M207 369l5 26q3 17 19 69q-8 11 -6 13t9 3q10 34 32 89q3 20 15 35q4 5 18 4q5 -2 5 -4q-8 -12 -9 -17q4 0 16 -1t19 -1.5t19 -2.5t17 -5t13 -9t7 -14t-1 -20q-18 -71 -124 -69q-9 0 -1 -8q3 -4 17 -21.5t22.5 -26.5t21 -21.5t23 -17.5t18.5 -2q6 1 8 -1q37 30 57 74 t19 84.5t-30.5 69.5t-83.5 29q-85 0 -143 -76q-51 -66 -42 -133q10 -69 82 -84q16 -3 35 -3q53 0 98 32q-4 -1 -17 -1q-18 0 -45.5 25t-49.5 57l-8 13q-14 -53 -14 -77q0 -6 -8 -9t-13 1zM249 476q30 -7 67.5 6t49.5 48q9 29 -11.5 38t-63.5 11h-1q-19 -29 -41 -103z M260 317q-95 0 -124 72q-26 65 13 138q43 80 130 101q24 6 50 6q104 0 134 -73q25 -64 -17 -137q-45 -79 -133 -101q-26 -6 -53 -6z" />
<glyph unicode="&#xaf;" horiz-adv-x="228" d="M47 420q-27 0 -25 7q3 9 30 16q23 5 47 5q31 0 93 -8q26 -6 26 -10q0 -5 -10 -7.5t-16 -2.5h-145z" />
<glyph unicode="&#xb0;" horiz-adv-x="283" d="M65 406q0 35 25.5 60.5t60.5 25.5t60.5 -25.5t25.5 -60.5t-25.5 -60.5t-60.5 -25.5t-60.5 25.5t-25.5 60.5zM87 406q0 -26 19 -45t45 -19t45 19t19 45t-19 45t-45 19t-45 -19t-19 -45z" />
<glyph unicode="&#xb1;" horiz-adv-x="379" d="M77 21q-7 8 0.5 22t15.5 18q11 5 13.5 1t2.5 -5.5t-2 -6.5q10 0 47.5 -1t69.5 -1t48 2v1q11 1 29 -2q23 -3 -11 -11q-77 -18 -169 -20q-20 0 -31 1q-11 0 -13 2zM96 256q-4 5 -2.5 11.5t9.5 12t19 6.5l99 -2q1 3 18.5 54.5t20.5 62.5q4 12 22 18q13 5 15 -4 q0 -34 -38 -132q1 0 35.5 1t62 1t34.5 -3q20 -13 -16 -17q-14 -2 -52 -4q-52 -3 -73 -6q-15 -58 -54 -140q-20 -44 -22 -13q-1 23 4 30q38 117 35 125l-31 -1h-56h-30z" />
<glyph unicode="&#xb2;" horiz-adv-x="547" d="M56 282q-29 -6 -28 9q2 18 29 34l7 4q13 6 39.5 11t40.5 4q133 74 188 116q44 35 69.5 65.5t32.5 71.5q5 33 -20.5 42t-67.5 -3q-94 -24 -152 -78q-8 -8 -12 2q0 6 4 10q51 44 117 73.5t128 29.5q56 0 56 -47t-59 -108q-36 -39 -93 -80q-63 -45 -175 -101q29 -3 93.5 -23 t105.5 -20q55 0 68 27q6 12 -2.5 24.5t-32.5 20.5q-7 3 -3 7q3 4 9 2q51 -13 51 -46q0 -26 -28 -42t-65 -16q-40 0 -119 27q-6 2 -22.5 8.5t-26 9.5t-24 6.5t-27.5 4.5q-10 -3 -37.5 -22t-43.5 -23z" />
<glyph unicode="&#xb3;" horiz-adv-x="608" d="M2 360q0 46 44 74t96 28q7 0 8 -5q-3 -5 -10 -7q-35 0 -67.5 -25.5t-32.5 -63.5q0 -33 28.5 -50.5t75.5 -17.5q89 0 162.5 43.5t73.5 116.5q0 25 -16.5 39.5t-41.5 18t-50 1.5t-45 -8q-24 -9 -24 8q-1 14 13 18l5 1q68 0 119 24q25 11 39 30t14 39q0 17 -17 25t-49 2 q-68 -14 -118 -49q-9 -5 -9 5q0 17 12 23q22 11 46 35q8 7 10 -1q1 -4 -3 -9l-5 -5q13 5 27.5 10t36 11t39.5 7t35 -1.5t26.5 -13.5t9.5 -30q0 -32 -38.5 -63.5t-75.5 -38.5q96 -9 96 -76q0 -77 -89 -127.5t-185 -50.5q-63 0 -101.5 20.5t-38.5 62.5z" />
<glyph unicode="&#xb4;" horiz-adv-x="355" d="M303 446q-20 -5 24.5 42.5t103.5 103.5q10 9 21 2.5t13.5 -18t-4.5 -18.5q-22 -14 -55.5 -42t-59.5 -47t-43 -23z" />
<glyph unicode="&#xb5;" horiz-adv-x="333" d="M-30 -164q9 130 84 299q32 81 39 102q4 17 0.5 25t-0.5 19q11 41 21 69q6 14 24.5 24.5t33.5 11t20 -8.5q-51 -126 -60 -154q-19 -54 -55 -138q-9 -21 -2 -21q5 0 24 16q100 77 176 216q9 35 9 43q0 24 35 45q33 18 39 3q1 -2 1 -3q-3 -10 -11 -31.5t-20.5 -55.5 t-21.5 -59q-28 -83 -52 -198q0 -2 -0.5 -9.5t-1.5 -13t-5 -13t-11 -13.5q-27 -23 -41 -12q-7 5 -1 16q13 24 68 239q-37 -54 -94.5 -123t-103.5 -100q-19 -13 -32 -18q-2 -6 -2 -8q-10 -35 -18.5 -100.5t1 -134.5t48.5 -71q19 -1 18 -13q-6 -14 -27 -16q-33 0 -51.5 25 t-24.5 55q-9 45 -6 106z" />
<glyph unicode="&#xb6;" horiz-adv-x="414" d="M199 -54q10 157 10 182q0 1 5 119t4 144q-80 -31 -120 32q-34 52 -18 123q16 74 75 95q26 9 57 5q17 -4 39.5 -16.5t19.5 -26.5q-1 -5 -12.5 -3.5t-11.5 0.5q-2 -24 -2 -94q-4 -124 -5 -216q-5 -298 -4 -337q0 -5 -17 -15q-21 -12 -20 8zM268 -54q24 394 15 718 q-1 29 10 27q12 -3 26 -31q3 -8 3 -14.5t-2 -9.5l-2 -4q-6 -129 -9 -342q-5 -298 -4 -337q0 -5 -17 -15q-21 -12 -20 8z" />
<glyph unicode="&#xb7;" horiz-adv-x="273" d="M107 305q0 14 16.5 29.5t31.5 20t19 -0.5q0 -12 -7 -37.5t-7 -27.5q0 -18 -32 -25q-10 -1 -15 7t-6 16t0 18z" />
<glyph unicode="&#xb8;" horiz-adv-x="224" d="M15 -269q0 5 9 8q13 4 36.5 6t36.5 4.5t23.5 17t10.5 41.5q0 14 -26 50.5t-26 56.5q0 34 19 60.5t51 26.5q11 0 12 -7q-21 -4 -33.5 -22.5t-12.5 -40.5q0 -12 29 -48.5t29 -64.5q0 -33 -26 -56.5t-58.5 -33t-64.5 -9.5q-9 0 -9 11z" />
<glyph unicode="&#xb9;" horiz-adv-x="443" d="M32 298q46 19 65 23q19 32 79 143.5t80 148.5q-42 -25 -89 -42q-5 -2 -8 1t-2 7.5t6 5.5q46 19 121 77l4 7q9 14 34 11q17 -3 11 -14l-206 -339q42 7 92 7q9 0 6 -9q-2 -7 -9 -7q-13 0 -26 -1t-27.5 -4.5t-24 -6t-26.5 -8.5t-23.5 -8.5l-26 -10t-24.5 -9.5t-8.5 4.5 t-3 14t5.5 9.5z" />
<glyph unicode="&#xba;" horiz-adv-x="261" d="M21 334q0 23 4 46q5 26 18 67t34 89t51.5 81.5t61.5 33.5h7q0 14 8 24t22 10q14 -1 25 -58.5t32 -59.5q19 -3 19 -11t-15 -15.5t-27 -7.5q0 -117 -61 -200t-121 -83q-58 0 -58 84zM66 329q0 -49 28 -49q40 0 89.5 81.5t49.5 179.5q-9 5 -22 35.5t-18 30.5 q-31 0 -72 -91.5t-51 -144.5q-4 -23 -4 -42z" />
<glyph unicode="&#xbb;" horiz-adv-x="420" d="M85 135q0 7 40.5 67.5t58.5 85.5q-98 115 -98 134q0 6 2.5 10t8.5 3l8 -4q12 -17 28.5 -33t26.5 -25t34 -27.5t32 -24.5q3 -3 3 -6q0 -11 -49.5 -81.5t-69.5 -93.5q-9 -11 -19 -11q-6 0 -6 6zM241 135q0 7 40.5 67.5t58.5 85.5q-98 115 -98 134q0 6 2.5 10t8.5 3l8 -4 q12 -17 28.5 -33t26.5 -25t34 -27.5t32 -24.5q3 -3 3 -6q0 -11 -49.5 -81.5t-69.5 -93.5q-9 -11 -19 -11q-6 0 -6 6z" />
<glyph unicode="&#xbc;" horiz-adv-x="933" d="M32 298q46 19 65 23q19 32 79 143.5t80 148.5q-42 -25 -89 -42q-5 -2 -8 1t-2 7.5t6 5.5q46 19 121 77l4 7q9 14 34 11q17 -3 11 -14l-206 -339q42 7 92 7q9 0 6 -9q-2 -7 -9 -7q-13 0 -26 -1t-27.5 -4.5t-24 -6t-26.5 -8.5t-23.5 -8.5l-26 -10t-24.5 -9.5t-8.5 4.5 t-3 14t5.5 9.5zM219 143q0 15 14 37t45 53.5t54.5 53.5t67.5 62q66 61 129.5 110.5t72.5 49.5q8 0 14 -3q7 -7 -3 -14q-97 -73 -220.5 -181.5t-144.5 -147.5q-12 -20 3 -26q5 -2 -5 -6l-10 -3q-17 0 -17 15zM479 190l35 9q281 139 329 203q7 9 26 1q10 -5 6 -10 q-17 -23 -51 -66t-60.5 -78t-48.5 -68q42 -15 76 -15q21 0 38 14.5t11 41.5q-2 7 4 7.5t10 -5.5q12 -19 12 -33.5t-7.5 -21.5t-22 -11.5t-25.5 -5.5t-23 -1q-31 0 -83 12q-3 -5 -16.5 -26t-22.5 -36t-16.5 -33t-6.5 -28q43 5 78 5q9 0 6 -9q-2 -7 -9 -7q-12 0 -24.5 -1.5 t-21.5 -2.5t-24 -5.5t-20.5 -6t-23 -8t-20 -7.5t-23.5 -10l-21 -8q-5 -1 -8.5 5t-3 14t5.5 10q75 25 80 26l13 2q-5 44 55 132q-46 13 -80 13q-44 0 -119 -28q-13 -4 -17 12q-5 19 13 24zM560 205q32 2 43 2q32 0 88 -18l35 52.5t54 77.5l15 19q-84 -56 -235 -133z" />
<glyph unicode="&#xbd;" horiz-adv-x="1015" d="M32 298q46 19 65 23q19 32 79 143.5t80 148.5q-42 -25 -89 -42q-5 -2 -8 1t-2 7.5t6 5.5q46 19 121 77l4 7q9 14 34 11q17 -3 11 -14l-206 -339q42 7 92 7q9 0 6 -9q-2 -7 -9 -7q-13 0 -26 -1t-27.5 -4.5t-24 -6t-26.5 -8.5t-23.5 -8.5l-26 -10t-24.5 -9.5t-8.5 4.5 t-3 14t5.5 9.5zM321 143q0 15 14 37t45 53.5t54.5 53.5t67.5 62q66 61 129.5 110.5t72.5 49.5q8 0 14 -3q7 -7 -3 -14q-97 -73 -220.5 -181.5t-144.5 -147.5q-12 -20 3 -26q5 -2 -5 -6l-10 -3q-17 0 -17 15zM515 -2q-29 -6 -28 9q2 18 29 34q3 2 7 4q13 6 39.5 11t40.5 4 q133 74 188 116q44 35 69.5 65.5t32.5 71.5q5 33 -20.5 42t-67.5 -3q-94 -24 -152 -78q-8 -8 -12 2q-1 6 4 10q51 44 117 73.5t128 29.5q56 0 56 -47t-59 -108q-36 -39 -93 -80q-63 -45 -175 -101q29 -3 93.5 -23t105.5 -20q55 0 68 27q6 12 -2.5 24.5t-32.5 20.5q-7 3 -3 7 q3 4 9 2q51 -13 51 -46q0 -26 -28 -42t-65 -16q-40 0 -119 27q-6 2 -22.5 8.5t-26 9.5t-24 6.5t-27.5 4.5q-10 -3 -37.5 -22t-43.5 -23z" />
<glyph unicode="&#xbe;" horiz-adv-x="1029" d="M2 360q0 46 44 74t96 28q7 0 8 -5q-3 -5 -10 -7q-35 0 -67.5 -25.5t-32.5 -63.5q0 -33 28.5 -50.5t75.5 -17.5q89 0 162.5 43.5t73.5 116.5q0 25 -16.5 39.5t-41.5 18t-50 1.5t-45 -8q-24 -9 -24 8q-1 14 13 18l5 1q68 0 119 24q25 11 39 30t14 39q0 17 -17 25t-49 2 q-68 -14 -118 -49q-9 -5 -9 5q0 17 12 23q22 11 46 35q8 7 10 -1q1 -4 -3 -9l-5 -5q13 5 27.5 10t36 11t39.5 7t35 -1.5t26.5 -13.5t9.5 -30q0 -32 -38.5 -63.5t-75.5 -38.5q96 -9 96 -76q0 -77 -89 -127.5t-185 -50.5q-63 0 -101.5 20.5t-38.5 62.5zM347 143q0 15 14 37 t45 53.5t54.5 53.5t67.5 62q66 61 129.5 110.5t72.5 49.5q8 0 14 -3q7 -7 -3 -14q-97 -73 -220.5 -181.5t-144.5 -147.5q-12 -20 3 -26q5 -2 -5 -6l-10 -3q-17 0 -17 15zM579 190l35 9q281 139 329 203q7 9 26 1q10 -5 6 -10q-17 -23 -51 -66t-60.5 -78t-48.5 -68 q42 -15 76 -15q21 0 38 14.5t11 41.5q-2 7 4 7.5t10 -5.5q12 -19 12 -33.5t-7.5 -21.5t-22 -11.5t-25.5 -5.5t-23 -1q-31 0 -83 12q-3 -5 -16.5 -26t-22.5 -36t-16.5 -33t-6.5 -28q43 5 78 5q9 0 6 -9q-2 -7 -9 -7q-12 0 -24.5 -1.5t-21.5 -2.5t-24 -5.5t-20.5 -6t-23 -8 t-20 -7.5t-23.5 -10l-21 -8q-5 -1 -8.5 5t-3 14t5.5 10q75 25 80 26l13 2q-5 44 55 132q-46 13 -80 13q-44 0 -119 -28q-13 -4 -17 12q-5 19 13 24zM660 205q32 2 43 2q32 0 88 -18l35 52.5t54 77.5l15 19q-84 -56 -235 -133z" />
<glyph unicode="&#xbf;" horiz-adv-x="464" d="M-65 -309q-10 39 4 75.5t64.5 79.5t87.5 69t123 81q10 7 15 10q23 14 35.5 31.5t23.5 46t13 31.5h1q12 16 23 -1q17 -24 -6 -66q-5 -9 -12 -18q-8 -10 -42.5 -32.5t-84 -53.5t-78.5 -53q-46 -34 -74.5 -78.5t-31.5 -83t34.5 -60.5t114.5 -13q72 9 121.5 47.5t45.5 92.5 q-2 22 -9 32.5t-13 10t-9 3.5t2 12q22 18 52 -5q35 -27 27 -71q-4 -20 -18 -39q-43 -59 -134 -96t-174 -27t-101 75zM316 198q2 12 11.5 37t9.5 27v1q6 19 35 24l1 1q19 0 16 -41q0 -15 -16.5 -29.5t-34 -20.5t-21.5 0z" />
<glyph unicode="&#xc0;" d="M-1 -75q0 84 38.5 167.5t103.5 177.5q-115 0 -115 4q0 8 7 14t19.5 8.5t26 4.5t29 2t27 -0.5t21.5 -0.5l9 -1q109 147 266 298q-10 43 -10 55q0 20 24 20q30 0 35 -29q18 18 24 18q10 0 10 -19q0 -3 -0.5 -7.5t-0.5 -6.5q-3 -3 -11 -10t-12 -12q27 -125 27 -307 q84 0 91 -14q-2 -5 -37.5 -8.5t-53.5 -3.5v-233q69 37 83 37q9 0 9 -7q0 -6 -16 -16q-81 -39 -144 -120q-4 -6 -9 -6q-10 0 -10 14q0 11 15.5 31t27.5 29q14 189 10 269q-306 -3 -308 -3q-46 -71 -70.5 -114t-46.5 -110.5t-22 -133.5q0 -52 24 -78q10 -12 7.5 -16t-16.5 -4 q-27 0 -39.5 38.5t-12.5 72.5zM197 300h286q0 43 -13 132.5t-29 130.5q-179 -164 -244 -263zM369 795q-11 8 -9 19t13 18.5t19 1.5q20 -16 57 -39.5t63 -42.5t35 -34q10 -17 -49 11q-52 23 -129 66z" />
<glyph unicode="&#xc1;" d="M-1 -75q0 84 38.5 167.5t103.5 177.5q-115 0 -115 4q0 8 7 14t19.5 8.5t26 4.5t29 2t27 -0.5t21.5 -0.5l9 -1q109 147 266 298q-10 43 -10 55q0 20 24 20q30 0 35 -29q18 18 24 18q10 0 10 -19q0 -3 -0.5 -7.5t-0.5 -6.5q-3 -3 -11 -10t-12 -12q27 -125 27 -307 q84 0 91 -14q-2 -5 -37.5 -8.5t-53.5 -3.5v-233q69 37 83 37q9 0 9 -7q0 -6 -16 -16q-81 -39 -144 -120q-4 -6 -9 -6q-10 0 -10 14q0 11 15.5 31t27.5 29q14 189 10 269q-306 -3 -308 -3q-46 -71 -70.5 -114t-46.5 -110.5t-22 -133.5q0 -52 24 -78q10 -12 7.5 -16t-16.5 -4 q-27 0 -39.5 38.5t-12.5 72.5zM197 300h286q0 43 -13 132.5t-29 130.5q-179 -164 -244 -263zM439 699q-20 -5 24.5 42.5t103.5 103.5q10 9 21 2.5t13.5 -18t-4.5 -18.5q-22 -14 -55.5 -42t-59.5 -47t-43 -23z" />
<glyph unicode="&#xc2;" d="M-1 -75q0 84 38.5 167.5t103.5 177.5q-115 0 -115 4q0 8 7 14t19.5 8.5t26 4.5t29 2t27 -0.5t21.5 -0.5l9 -1q109 147 266 298q-10 43 -10 55q0 20 24 20q30 0 35 -29q18 18 24 18q10 0 10 -19q0 -3 -0.5 -7.5t-0.5 -6.5q-3 -3 -11 -10t-12 -12q27 -125 27 -307 q84 0 91 -14q-2 -5 -37.5 -8.5t-53.5 -3.5v-233q69 37 83 37q9 0 9 -7q0 -6 -16 -16q-81 -39 -144 -120q-4 -6 -9 -6q-10 0 -10 14q0 11 15.5 31t27.5 29q14 189 10 269q-306 -3 -308 -3q-46 -71 -70.5 -114t-46.5 -110.5t-22 -133.5q0 -52 24 -78q10 -12 7.5 -16t-16.5 -4 q-27 0 -39.5 38.5t-12.5 72.5zM197 300h286q0 43 -13 132.5t-29 130.5q-179 -164 -244 -263zM376 737q10 12 63 61.5t62 51.5q5 -2 34 -47.5t38 -62.5q5 -11 -2 -14l-5 1q-13 11 -40.5 41t-37.5 45q-13 -12 -56 -46.5t-52 -39.5q-8 -4 -8 1q0 3 4 9z" />
<glyph unicode="&#xc3;" d="M-1 -75q0 84 38.5 167.5t103.5 177.5q-115 0 -115 4q0 8 7 14t19.5 8.5t26 4.5t29 2t27 -0.5t21.5 -0.5l9 -1q109 147 266 298q-10 43 -10 55q0 20 24 20q30 0 35 -29q18 18 24 18q10 0 10 -19q0 -3 -0.5 -7.5t-0.5 -6.5q-3 -3 -11 -10t-12 -12q27 -125 27 -307 q84 0 91 -14q-2 -5 -37.5 -8.5t-53.5 -3.5v-233q69 37 83 37q9 0 9 -7q0 -6 -16 -16q-81 -39 -144 -120q-4 -6 -9 -6q-10 0 -10 14q0 11 15.5 31t27.5 29q14 189 10 269q-306 -3 -308 -3q-46 -71 -70.5 -114t-46.5 -110.5t-22 -133.5q0 -52 24 -78q10 -12 7.5 -16t-16.5 -4 q-27 0 -39.5 38.5t-12.5 72.5zM197 300h286q0 43 -13 132.5t-29 130.5q-179 -164 -244 -263zM374 745q0 7 16.5 21.5t26.5 19.5q16 10 36 10q17 0 48 -10.5t47 -10.5q24 0 42 21q6 0 6 -4q0 -7 -14.5 -21t-25.5 -21q-13 -8 -27 -8q-18 0 -50 13.5t-49 13.5t-33.5 -13 t-21.5 -13q-1 1 -1 2z" />
<glyph unicode="&#xc4;" d="M-1 -75q0 84 38.5 167.5t103.5 177.5q-115 0 -115 4q0 8 7 14t19.5 8.5t26 4.5t29 2t27 -0.5t21.5 -0.5l9 -1q109 147 266 298q-10 43 -10 55q0 20 24 20q30 0 35 -29q18 18 24 18q10 0 10 -19q0 -3 -0.5 -7.5t-0.5 -6.5q-3 -3 -11 -10t-12 -12q27 -125 27 -307 q84 0 91 -14q-2 -5 -37.5 -8.5t-53.5 -3.5v-233q69 37 83 37q9 0 9 -7q0 -6 -16 -16q-81 -39 -144 -120q-4 -6 -9 -6q-10 0 -10 14q0 11 15.5 31t27.5 29q14 189 10 269q-306 -3 -308 -3q-46 -71 -70.5 -114t-46.5 -110.5t-22 -133.5q0 -52 24 -78q10 -12 7.5 -16t-16.5 -4 q-27 0 -39.5 38.5t-12.5 72.5zM197 300h286q0 43 -13 132.5t-29 130.5q-179 -164 -244 -263zM386 781q0 14 16.5 29.5t31.5 20t19 -0.5q0 -12 -7 -37.5t-7 -27.5q0 -18 -32 -25q-10 -1 -15 7t-6 16t0 18zM538 781q0 14 16.5 29.5t31.5 20t19 -0.5q0 -12 -7 -37.5t-7 -27.5 q0 -18 -32 -25q-10 -1 -15 7t-6 16t0 18z" />
<glyph unicode="&#xc5;" d="M-1 -75q0 84 38.5 167.5t103.5 177.5q-115 0 -115 4q0 8 7 14t19.5 8.5t26 4.5t29 2t27 -0.5t21.5 -0.5l9 -1q109 147 266 298q-10 43 -10 55q0 16 17 19q-1 3 -1 10q0 20 11 45t28 31q14 29 51 29q19 0 31 -14.5t12 -34.5q0 -26 -16.5 -50t-40.5 -36q1 -3 1 -9 q0 -3 -0.5 -7.5t-0.5 -6.5q-3 -3 -11 -10t-12 -12q27 -125 27 -307q84 0 91 -14q-2 -5 -37.5 -8.5t-53.5 -3.5v-233q69 37 83 37q9 0 9 -7q0 -6 -16 -16q-81 -39 -144 -120q-4 -6 -9 -6q-10 0 -10 14q0 11 15.5 31t27.5 29q14 189 10 269q-306 -3 -308 -3 q-46 -71 -70.5 -114t-46.5 -110.5t-22 -133.5q0 -52 24 -78q10 -12 7.5 -16t-16.5 -4q-27 0 -39.5 38.5t-12.5 72.5zM197 300h286q0 43 -13 132.5t-29 130.5q-179 -164 -244 -263zM489 664q25 0 43 23t18 52q0 34 -26 34q-16 0 -35 -18q-10 -9 -18 -24t-11 -30t4 -26t25 -11 z" />
<glyph unicode="&#xc6;" horiz-adv-x="960" d="M-78 516q0 112 172 135q143 21 348 -15q-5 20 -5 35q0 20 24 20q13 0 24 -18t11 -34q29 24 38 24q8 0 12 -2t3 -7l-1.5 -7.5t-5 -9t-4.5 -7.5q-5 -5 -15 -10q110 -20 168 -21q65 -1 129 7q21 3 39 10.5t28 14t12 6.5q13 2 13 -7q0 -25 -38.5 -41.5t-69.5 -20.5 q-22 -3 -43 -4.5t-46 0t-40.5 2.5t-45 5.5t-40 6t-45 8t-41.5 7.5q10 -122 -9 -290q16 0 47.5 -0.5t42.5 -0.5q7 0 71 -0.5t89 -0.5q36 0 46 -14q5 -9 -13 -13q-7 -1 -17 -1q-93 0 -271 -4l-34 -225q28 -7 112 -36t145 -39.5t118 0.5q41 8 71 42.5t24 82.5q-3 23 -18.5 44 t-16.5 27q-2 19 10 22q9 2 25.5 -32t18.5 -49q9 -71 -30 -119t-99 -59q-57 -11 -121.5 3.5t-140 42t-120.5 35.5q-11 -5 -27 -2q0 4 1 6q-47 5 -86 -2q-38 -9 -42 -34q0 -2 1 -8q0 -6 -2 -7q-10 0 -13 15q-7 25 13 47.5t53 28.5q34 7 82 0q5 24 14.5 68t16.5 80t11 68 q-50 1 -305 1q-46 -71 -70.5 -114t-46.5 -110.5t-22 -133.5q0 -54 33 -89q7 -8 2 -8q-4 -1 -20 -1q-27 0 -39.5 38.5t-12.5 72.5q0 84 38.5 167.5t103.5 177.5q-115 0 -115 4q0 8 7 14t19.5 8.5t26 4.5t29 2t27 -0.5t20.5 -0.5l10 -1q55 74 141.5 163.5t151.5 140.5 q-2 0 -47 6q-174 17 -268 3q-61 -9 -112 -42t-51 -91q0 -37 15 -56t2 -22q-14 -3 -26 13l-2 4q-22 41 -22 96zM172 300q228 0 288 2q16 222 -1 286q-209 -170 -287 -288z" />
<glyph unicode="&#xc7;" horiz-adv-x="753" d="M27 233q6 112 83.5 215.5t190.5 164t224 60.5t149 -50q9 27 9 39q0 2 -2 8t-1 9.5t8 3.5q8 0 16 -4t8 -10q0 -12 -3.5 -24.5t-9 -29t-7.5 -23.5q11 -28 9 -65q-3 -58 -30 -58q-33 0 -31 33q1 19 20 79q-17 28 -53 46t-82 18q-106 0 -207.5 -57.5t-167.5 -154.5t-72 -204 q-7 -124 76 -201t208 -77q53 0 101 10t79.5 23t63.5 34.5t47 35.5t36 35l24 24q5 8 16.5 19.5t13.5 4.5q3 -13 -6 -35t-19 -32q-62 -63 -167 -104t-201 -41q-15 0 -22 1q-22 -19 -22 -53q0 -12 29 -48.5t29 -64.5q0 -33 -26 -56.5t-58.5 -33t-64.5 -9.5q-9 0 -9 11q0 5 9 8 q13 4 36.5 6t36.5 4.5t23.5 17t10.5 41.5q0 14 -26 50.5t-26 56.5q0 47 28 72q-139 13 -208.5 93.5t-62.5 211.5z" />
<glyph unicode="&#xc8;" horiz-adv-x="935" d="M-25 548q0 111 172 111q171 0 446 -96q1 4 4.5 16t6.5 20t8 18t12 15t15 5q19 0 35 -20t16 -39q0 -10 -6 -10q-7 0 -18 9t-13 9q-8 0 -15 -13t-9 -23q120 -41 244 -41q21 0 39 5t28 10t12 5q13 0 13 -9q0 -25 -38 -36t-70 -11q-51 0 -120.5 14t-115.5 35 q-5 -16 -30 -85.5t-37 -107.5q7 0 76 -1.5t94 -1.5q36 0 40 -13q2 -6 -9 -10q-9 -3 -25 -3q-29 0 -106 -3t-81 -3q-18 -65 -55 -142.5t-76 -120.5q204 -99 338 -99q51 0 93 28.5t42 77.5q0 23 -16 46.5t-16 29.5q0 20 16 20q14 0 27.5 -26t13.5 -63q0 -71 -55.5 -110.5 t-129.5 -39.5q-49 0 -115 19t-99.5 33.5t-110.5 50.5q-13 6 -20 9q-88 -82 -219 -82q-50 0 -89 19t-39 65t36 74.5t84 28.5q83 0 229 -67q49 64 121 247q-5 0 -25 -0.5t-39 -0.5t-33 1q-20 2 -12 21q6 16 20 17q18 1 54 0t46 -1q12 34 35 103.5t35 104.5q-256 75 -389 75 q-29 0 -57 -4t-59.5 -14.5t-51 -32t-19.5 -52.5q0 -47 42.5 -97t93.5 -83.5t93.5 -62.5t42.5 -38q0 -3 -4 -3q-16 0 -63 25q-46 24 -85.5 52.5t-75.5 65.5t-56.5 83.5t-20.5 96.5zM67 31q0 -25 27 -44.5t58 -27t56 -7.5q85 0 151 66q-43 20 -112.5 37t-112.5 17 q-67 0 -67 -41zM605 762q-11 8 -9 19t13 18.5t19 1.5q20 -16 57 -39.5t63 -42.5t35 -34q10 -17 -49 11q-52 23 -129 66z" />
<glyph unicode="&#xc9;" horiz-adv-x="935" d="M-25 548q0 111 172 111q171 0 446 -96q1 4 4.5 16t6.5 20t8 18t12 15t15 5q19 0 35 -20t16 -39q0 -10 -6 -10q-7 0 -18 9t-13 9q-8 0 -15 -13t-9 -23q120 -41 244 -41q21 0 39 5t28 10t12 5q13 0 13 -9q0 -25 -38 -36t-70 -11q-51 0 -120.5 14t-115.5 35 q-5 -16 -30 -85.5t-37 -107.5q7 0 76 -1.5t94 -1.5q36 0 40 -13q2 -6 -9 -10q-9 -3 -25 -3q-29 0 -106 -3t-81 -3q-18 -65 -55 -142.5t-76 -120.5q204 -99 338 -99q51 0 93 28.5t42 77.5q0 23 -16 46.5t-16 29.5q0 20 16 20q14 0 27.5 -26t13.5 -63q0 -71 -55.5 -110.5 t-129.5 -39.5q-49 0 -115 19t-99.5 33.5t-110.5 50.5q-13 6 -20 9q-88 -82 -219 -82q-50 0 -89 19t-39 65t36 74.5t84 28.5q83 0 229 -67q49 64 121 247q-5 0 -25 -0.5t-39 -0.5t-33 1q-20 2 -12 21q6 16 20 17q18 1 54 0t46 -1q12 34 35 103.5t35 104.5q-256 75 -389 75 q-29 0 -57 -4t-59.5 -14.5t-51 -32t-19.5 -52.5q0 -47 42.5 -97t93.5 -83.5t93.5 -62.5t42.5 -38q0 -3 -4 -3q-16 0 -63 25q-46 24 -85.5 52.5t-75.5 65.5t-56.5 83.5t-20.5 96.5zM67 31q0 -25 27 -44.5t58 -27t56 -7.5q85 0 151 66q-43 20 -112.5 37t-112.5 17 q-67 0 -67 -41zM707 684q-20 -5 24.5 42.5t103.5 103.5q10 9 21 2.5t13.5 -18t-4.5 -18.5q-22 -14 -55.5 -42t-59.5 -47t-43 -23z" />
<glyph unicode="&#xca;" horiz-adv-x="935" d="M-25 548q0 111 172 111q171 0 446 -96q1 4 4.5 16t6.5 20t8 18t12 15t15 5q19 0 35 -20t16 -39q0 -10 -6 -10q-7 0 -18 9t-13 9q-8 0 -15 -13t-9 -23q120 -41 244 -41q21 0 39 5t28 10t12 5q13 0 13 -9q0 -25 -38 -36t-70 -11q-51 0 -120.5 14t-115.5 35 q-5 -16 -30 -85.5t-37 -107.5q7 0 76 -1.5t94 -1.5q36 0 40 -13q2 -6 -9 -10q-9 -3 -25 -3q-29 0 -106 -3t-81 -3q-18 -65 -55 -142.5t-76 -120.5q204 -99 338 -99q51 0 93 28.5t42 77.5q0 23 -16 46.5t-16 29.5q0 20 16 20q14 0 27.5 -26t13.5 -63q0 -71 -55.5 -110.5 t-129.5 -39.5q-49 0 -115 19t-99.5 33.5t-110.5 50.5q-13 6 -20 9q-88 -82 -219 -82q-50 0 -89 19t-39 65t36 74.5t84 28.5q83 0 229 -67q49 64 121 247q-5 0 -25 -0.5t-39 -0.5t-33 1q-20 2 -12 21q6 16 20 17q18 1 54 0t46 -1q12 34 35 103.5t35 104.5q-256 75 -389 75 q-29 0 -57 -4t-59.5 -14.5t-51 -32t-19.5 -52.5q0 -47 42.5 -97t93.5 -83.5t93.5 -62.5t42.5 -38q0 -3 -4 -3q-16 0 -63 25q-46 24 -85.5 52.5t-75.5 65.5t-56.5 83.5t-20.5 96.5zM67 31q0 -25 27 -44.5t58 -27t56 -7.5q85 0 151 66q-43 20 -112.5 37t-112.5 17 q-67 0 -67 -41zM643 706q10 12 63 61.5t62 51.5q5 -2 34 -47.5t38 -62.5q5 -11 -2 -14l-5 1q-13 11 -40.5 41t-37.5 45q-13 -12 -56 -46.5t-52 -39.5q-8 -4 -8 1q0 3 4 9z" />
<glyph unicode="&#xcb;" horiz-adv-x="935" d="M-25 548q0 111 172 111q171 0 446 -96q1 4 4.5 16t6.5 20t8 18t12 15t15 5q19 0 35 -20t16 -39q0 -10 -6 -10q-7 0 -18 9t-13 9q-8 0 -15 -13t-9 -23q120 -41 244 -41q21 0 39 5t28 10t12 5q13 0 13 -9q0 -25 -38 -36t-70 -11q-51 0 -120.5 14t-115.5 35 q-5 -16 -30 -85.5t-37 -107.5q7 0 76 -1.5t94 -1.5q36 0 40 -13q2 -6 -9 -10q-9 -3 -25 -3q-29 0 -106 -3t-81 -3q-18 -65 -55 -142.5t-76 -120.5q204 -99 338 -99q51 0 93 28.5t42 77.5q0 23 -16 46.5t-16 29.5q0 20 16 20q14 0 27.5 -26t13.5 -63q0 -71 -55.5 -110.5 t-129.5 -39.5q-49 0 -115 19t-99.5 33.5t-110.5 50.5q-13 6 -20 9q-88 -82 -219 -82q-50 0 -89 19t-39 65t36 74.5t84 28.5q83 0 229 -67q49 64 121 247q-5 0 -25 -0.5t-39 -0.5t-33 1q-20 2 -12 21q6 16 20 17q18 1 54 0t46 -1q12 34 35 103.5t35 104.5q-256 75 -389 75 q-29 0 -57 -4t-59.5 -14.5t-51 -32t-19.5 -52.5q0 -47 42.5 -97t93.5 -83.5t93.5 -62.5t42.5 -38q0 -3 -4 -3q-16 0 -63 25q-46 24 -85.5 52.5t-75.5 65.5t-56.5 83.5t-20.5 96.5zM67 31q0 -25 27 -44.5t58 -27t56 -7.5q85 0 151 66q-43 20 -112.5 37t-112.5 17 q-67 0 -67 -41zM668 740q0 14 16.5 29.5t31.5 20t19 -0.5q0 -12 -7 -37.5t-7 -27.5q0 -18 -32 -25q-10 -1 -15 7t-6 16t0 18zM820 740q0 14 16.5 29.5t31.5 20t19 -0.5q0 -12 -7 -37.5t-7 -27.5q0 -18 -32 -25q-10 -1 -15 7t-6 16t0 18z" />
<glyph unicode="&#xcc;" horiz-adv-x="458" d="M9 -14q0 24 23.5 46t56.5 22q34 0 96 -27q42 51 82 137.5t63 154.5t50.5 158.5t33.5 109.5q-9 1 -41.5 7.5t-40.5 7.5q-96 19 -132.5 -22t35.5 -117q15 -15 10 -21q-3 -6 -29 17q-43 39 -51.5 77t12.5 63.5t68.5 37t109.5 0.5q7 -1 35.5 -7t55.5 -10.5t57 -8.5t51.5 -3 t27.5 9q6 9 11 1q7 -12 -16 -32q-4 -4 -9 -6.5t-12 -4t-12.5 -2.5t-15.5 -0.5t-15 0.5t-16 1.5t-15 2t-16 2.5t-13 2q-2 -5 -24 -83.5t-38 -125.5t-44 -122t-62 -134t-72 -101q96 -43 175 -43q35 0 49.5 10t11.5 21t-10 24.5t-7 15.5q0 4 2 7.5t5 2.5q14 -6 20 -35t-12 -57 t-64 -28q-38 0 -96.5 16t-98.5 34q-32 -29 -75 -38t-73.5 3t-30.5 38zM25 -2q0 -23 21.5 -35t54.5 -4t61 36q-5 3 -16 6.5t-27 9t-32 8t-30 3t-23 -5.5t-9 -18zM363 785q-11 8 -9 19t13 18.5t19 1.5q20 -16 57 -39.5t63 -42.5t35 -34q10 -17 -49 11q-52 23 -129 66z" />
<glyph unicode="&#xcd;" horiz-adv-x="458" d="M9 -14q0 24 23.5 46t56.5 22q34 0 96 -27q42 51 82 137.5t63 154.5t50.5 158.5t33.5 109.5q-9 1 -41.5 7.5t-40.5 7.5q-96 19 -132.5 -22t35.5 -117q15 -15 10 -21q-3 -6 -29 17q-43 39 -51.5 77t12.5 63.5t68.5 37t109.5 0.5q7 -1 35.5 -7t55.5 -10.5t57 -8.5t51.5 -3 t27.5 9q6 9 11 1q7 -12 -16 -32q-4 -4 -9 -6.5t-12 -4t-12.5 -2.5t-15.5 -0.5t-15 0.5t-16 1.5t-15 2t-16 2.5t-13 2q-2 -5 -24 -83.5t-38 -125.5t-44 -122t-62 -134t-72 -101q96 -43 175 -43q35 0 49.5 10t11.5 21t-10 24.5t-7 15.5q0 4 2 7.5t5 2.5q14 -6 20 -35t-12 -57 t-64 -28q-38 0 -96.5 16t-98.5 34q-32 -29 -75 -38t-73.5 3t-30.5 38zM25 -2q0 -23 21.5 -35t54.5 -4t61 36q-5 3 -16 6.5t-27 9t-32 8t-30 3t-23 -5.5t-9 -18zM420 688q-20 -5 24.5 42.5t103.5 103.5q10 9 21 2.5t13.5 -18t-4.5 -18.5q-22 -14 -55.5 -42t-59.5 -47t-43 -23 z" />
<glyph unicode="&#xce;" horiz-adv-x="458" d="M9 -14q0 24 23.5 46t56.5 22q34 0 96 -27q42 51 82 137.5t63 154.5t50.5 158.5t33.5 109.5q-9 1 -41.5 7.5t-40.5 7.5q-96 19 -132.5 -22t35.5 -117q15 -15 10 -21q-3 -6 -29 17q-43 39 -51.5 77t12.5 63.5t68.5 37t109.5 0.5q7 -1 35.5 -7t55.5 -10.5t57 -8.5t51.5 -3 t27.5 9q6 9 11 1q7 -12 -16 -32q-4 -4 -9 -6.5t-12 -4t-12.5 -2.5t-15.5 -0.5t-15 0.5t-16 1.5t-15 2t-16 2.5t-13 2q-2 -5 -24 -83.5t-38 -125.5t-44 -122t-62 -134t-72 -101q96 -43 175 -43q35 0 49.5 10t11.5 21t-10 24.5t-7 15.5q0 4 2 7.5t5 2.5q14 -6 20 -35t-12 -57 t-64 -28q-38 0 -96.5 16t-98.5 34q-32 -29 -75 -38t-73.5 3t-30.5 38zM25 -2q0 -23 21.5 -35t54.5 -4t61 36q-5 3 -16 6.5t-27 9t-32 8t-30 3t-23 -5.5t-9 -18zM368 724q10 12 63 61.5t62 51.5q5 -2 34 -47.5t38 -62.5q5 -11 -2 -14l-5 1q-13 11 -40.5 41t-37.5 45 q-13 -12 -56 -46.5t-52 -39.5q-8 -4 -8 1q0 3 4 9z" />
<glyph unicode="&#xcf;" horiz-adv-x="458" d="M9 -14q0 24 23.5 46t56.5 22q34 0 96 -27q42 51 82 137.5t63 154.5t50.5 158.5t33.5 109.5q-9 1 -41.5 7.5t-40.5 7.5q-96 19 -132.5 -22t35.5 -117q15 -15 10 -21q-3 -6 -29 17q-43 39 -51.5 77t12.5 63.5t68.5 37t109.5 0.5q7 -1 35.5 -7t55.5 -10.5t57 -8.5t51.5 -3 t27.5 9q6 9 11 1q7 -12 -16 -32q-4 -4 -9 -6.5t-12 -4t-12.5 -2.5t-15.5 -0.5t-15 0.5t-16 1.5t-15 2t-16 2.5t-13 2q-2 -5 -24 -83.5t-38 -125.5t-44 -122t-62 -134t-72 -101q96 -43 175 -43q35 0 49.5 10t11.5 21t-10 24.5t-7 15.5q0 4 2 7.5t5 2.5q14 -6 20 -35t-12 -57 t-64 -28q-38 0 -96.5 16t-98.5 34q-32 -29 -75 -38t-73.5 3t-30.5 38zM25 -2q0 -23 21.5 -35t54.5 -4t61 36q-5 3 -16 6.5t-27 9t-32 8t-30 3t-23 -5.5t-9 -18zM357 765q0 14 16.5 29.5t31.5 20t19 -0.5q0 -12 -7 -37.5t-7 -27.5q0 -18 -32 -25q-10 -1 -15 7t-6 16t0 18z M509 765q0 14 16.5 29.5t31.5 20t19 -0.5q0 -12 -7 -37.5t-7 -27.5q0 -18 -32 -25q-10 -1 -15 7t-6 16t0 18z" />
<glyph unicode="&#xd0;" horiz-adv-x="775" d="M18 258q9 9 85 4q16 196 53 341q-33 3 -56 -5q-11 -4 -11 9q0 20 20 29q8 4 16 4h39q5 28 18 41q5 3 12 5.5t16.5 5t16 0t6.5 -10.5q-8 -18 -15 -38q79 6 164.5 -9t163.5 -48.5t128.5 -96.5t50.5 -145q0 -73 -50 -144q-37 -52 -99 -94t-128.5 -66.5t-133 -37.5 t-119.5 -11.5t-81 15.5q-19 10 -21 24q-1 6 1.5 9.5t11.5 0.5q-12 59 -5 188q-19 -1 -53 -1q-18 0 -30 9.5t0 21.5zM144 105q2 -68 31 -78q53 -19 142 1.5t172.5 68t124.5 100.5q74 95 74 180q0 88 -83.5 143t-214.5 74q-102 15 -182 11q-50 -171 -62 -343q19 0 50.5 -0.5 t51.5 -0.5q11 0 14 -2.5t-1 -5.5t-13 -6q-26 -9 -104 -16q-3 -65 0 -126z" />
<glyph unicode="&#xd1;" horiz-adv-x="966" d="M16 121q2 35 13 37q7 2 10 -25v-2q0 -20 11 -55.5t32 -77t61 -69t90 -22.5q41 4 82.5 47.5t74 103t66 144t54 147.5t43.5 137t29 92q-20 6 -87.5 21t-88.5 18q-171 28 -183 -33q-9 -50 90 -132q35 -29 80 -57q5 -3 3.5 -6.5t-8.5 -2.5q-68 16 -116.5 55.5t-60 81.5t5 80 t78 51t158.5 -6q63 -14 157 -39q40 -11 48 -25q6 -10 -23 -12h-18q-3 -9 -24.5 -78t-42 -131.5t-50 -139.5t-52.5 -121q-44 -81 -90 -135.5t-96.5 -81t-104 -6t-103.5 90.5q-41 58 -38 151zM613 517q-1 18 14 25q18 7 23 -19l2 -12q30 -394 89 -489q52 -85 116 115 q9 27 18 60q20 73 30.5 180.5t7.5 162.5q-18 28 -28 50q-18 40 -7 71q10 23 29 0q11 -13 37 -81q45 -118 76 -129q13 -10 1 -12q-9 -2 -19 3q-24 11 -61 60q-12 -196 -46 -321q-65 -238 -130 -226q-64 12 -113 245q-34 166 -39 317zM664 724q0 7 16.5 21.5t26.5 19.5 q16 10 36 10q17 0 48 -10.5t47 -10.5q24 0 42 21q6 0 6 -4q0 -7 -14.5 -21t-25.5 -21q-13 -8 -27 -8q-18 0 -50 13.5t-49 13.5t-33.5 -13t-21.5 -13q-1 1 -1 2z" />
<glyph unicode="&#xd2;" horiz-adv-x="796" d="M8 196q0 168 154 329q-51 -18 -72 -30q-50 -25 -49 -13q1 11 41 32q60 32 123 51q115 98 252 116q89 11 112 -20q16 -24 -22 -69q241 -32 241 -249q0 -165 -142 -284q-120 -99 -280 -121q-162 -22 -263 51q-96 69 -95 207zM61 197q3 -150 122 -209q106 -53 249 -14 t231 146q80 98 80 222q0 90 -58.5 154.5t-150.5 74.5q-7 -9 -25 -28t-59.5 -52.5t-78.5 -52.5q-72 -35 -56 -16q12 14 52 41q78 52 136 110q-129 8 -268 -26q-91 -83 -133.5 -174t-40.5 -176zM284 585q105 20 234 10q19 40 7.5 50.5t-58.5 6.5q-100 -10 -183 -67zM425 804 q-11 8 -9 19t13 18.5t19 1.5q20 -16 57 -39.5t63 -42.5t35 -34q10 -17 -49 11q-52 23 -129 66z" />
<glyph unicode="&#xd3;" horiz-adv-x="796" d="M8 196q0 168 154 329q-51 -18 -72 -30q-50 -25 -49 -13q1 11 41 32q60 32 123 51q115 98 252 116q89 11 112 -20q16 -24 -22 -69q241 -32 241 -249q0 -165 -142 -284q-120 -99 -280 -121q-162 -22 -263 51q-96 69 -95 207zM61 197q3 -150 122 -209q106 -53 249 -14 t231 146q80 98 80 222q0 90 -58.5 154.5t-150.5 74.5q-7 -9 -25 -28t-59.5 -52.5t-78.5 -52.5q-72 -35 -56 -16q12 14 52 41q78 52 136 110q-129 8 -268 -26q-91 -83 -133.5 -174t-40.5 -176zM284 585q105 20 234 10q19 40 7.5 50.5t-58.5 6.5q-100 -10 -183 -67zM481 699 q-20 -5 24.5 42.5t103.5 103.5q10 9 21 2.5t13.5 -18t-4.5 -18.5q-22 -14 -55.5 -42t-59.5 -47t-43 -23z" />
<glyph unicode="&#xd4;" horiz-adv-x="796" d="M8 196q0 168 154 329q-51 -18 -72 -30q-50 -25 -49 -13q1 11 41 32q60 32 123 51q115 98 252 116q89 11 112 -20q16 -24 -22 -69q241 -32 241 -249q0 -165 -142 -284q-120 -99 -280 -121q-162 -22 -263 51q-96 69 -95 207zM61 197q3 -150 122 -209q106 -53 249 -14 t231 146q80 98 80 222q0 90 -58.5 154.5t-150.5 74.5q-7 -9 -25 -28t-59.5 -52.5t-78.5 -52.5q-72 -35 -56 -16q12 14 52 41q78 52 136 110q-129 8 -268 -26q-91 -83 -133.5 -174t-40.5 -176zM284 585q105 20 234 10q19 40 7.5 50.5t-58.5 6.5q-100 -10 -183 -67zM424 734 q10 12 63 61.5t62 51.5q5 -2 34 -47.5t38 -62.5q5 -11 -2 -14l-5 1q-13 11 -40.5 41t-37.5 45q-13 -12 -56 -46.5t-52 -39.5q-8 -4 -8 1q0 3 4 9z" />
<glyph unicode="&#xd5;" horiz-adv-x="796" d="M8 196q0 168 154 329q-51 -18 -72 -30q-50 -25 -49 -13q1 11 41 32q60 32 123 51q115 98 252 116q89 11 112 -20q16 -24 -22 -69q241 -32 241 -249q0 -165 -142 -284q-120 -99 -280 -121q-162 -22 -263 51q-96 69 -95 207zM61 197q3 -150 122 -209q106 -53 249 -14 t231 146q80 98 80 222q0 90 -58.5 154.5t-150.5 74.5q-7 -9 -25 -28t-59.5 -52.5t-78.5 -52.5q-72 -35 -56 -16q12 14 52 41q78 52 136 110q-129 8 -268 -26q-91 -83 -133.5 -174t-40.5 -176zM284 585q105 20 234 10q19 40 7.5 50.5t-58.5 6.5q-100 -10 -183 -67zM357 761 q0 7 16.5 21.5t26.5 19.5q16 10 36 10q17 0 48 -10.5t47 -10.5q24 0 42 21q6 0 6 -4q0 -7 -14.5 -21t-25.5 -21q-13 -8 -27 -8q-18 0 -50 13.5t-49 13.5t-33.5 -13t-21.5 -13q-1 1 -1 2z" />
<glyph unicode="&#xd6;" horiz-adv-x="796" d="M8 196q0 168 154 329q-51 -18 -72 -30q-50 -25 -49 -13q1 11 41 32q60 32 123 51q115 98 252 116q89 11 112 -20q16 -24 -22 -69q241 -32 241 -249q0 -165 -142 -284q-120 -99 -280 -121q-162 -22 -263 51q-96 69 -95 207zM61 197q3 -150 122 -209q106 -53 249 -14 t231 146q80 98 80 222q0 90 -58.5 154.5t-150.5 74.5q-7 -9 -25 -28t-59.5 -52.5t-78.5 -52.5q-72 -35 -56 -16q12 14 52 41q78 52 136 110q-129 8 -268 -26q-91 -83 -133.5 -174t-40.5 -176zM284 585q105 20 234 10q19 40 7.5 50.5t-58.5 6.5q-100 -10 -183 -67zM385 783 q0 14 16.5 29.5t31.5 20t19 -0.5q0 -12 -7 -37.5t-7 -27.5q0 -18 -32 -25q-10 -1 -15 7t-6 16t0 18zM537 783q0 14 16.5 29.5t31.5 20t19 -0.5q0 -12 -7 -37.5t-7 -27.5q0 -18 -32 -25q-10 -1 -15 7t-6 16t0 18z" />
<glyph unicode="&#xd7;" horiz-adv-x="440" d="M94 114q25 25 55 57l62 64q-27 27 -60 62t-57 59q-4 5 -1.5 14t8.5 12t14 -3l117 -124l74 74q55 55 74 61q6 2 6 -4q-1 -14 -25 -39l-110 -112q26 -27 68.5 -67t51.5 -49q24 -25 10 -33q-4 -2 -10 0q-8 2 -17.5 9.5t-15.5 13t-17.5 17.5t-14.5 15q-7 6 -74 73l-117 -123 q-7 -7 -14 -3t-8.5 12t1.5 14z" />
<glyph unicode="&#xd8;" horiz-adv-x="782" d="M62 248q0 81 33.5 160.5t99.5 140.5q-50 -22 -62 -30q-10 -7 -15 2.5t8 15.5q66 36 107 51q99 95 220 115q78 9 98 -21q13 -23 -20 -68q39 -7 45 -9q58 66 92 98q12 11 20.5 -3t-3.5 -27q-22 -23 -72 -81q136 -57 136 -221q0 -88 -35 -163t-92 -123.5t-128 -75.5 t-146 -27q-90 0 -154 33q-54 -99 -22 -115q4 -2 0 -9q-8 -10 -21 -10q-24 0 -24 32q0 45 38 118q-103 72 -103 217zM110 262q0 -126 74 -196q45 78 198 292q84 119 177 227q-18 6 -38 9q-25 -27 -29 -16q-3 8 8 18q-120 8 -247 -27q-73 -55 -108 -136.5t-35 -170.5zM211 45 q58 -39 144 -39q60 0 120.5 25t111.5 69.5t83.5 115t32.5 152.5q0 65 -29.5 118.5t-79.5 82.5q-106 -126 -214.5 -274.5t-168.5 -249.5zM285 603q89 29 229 14q14 40 2 50.5t-54 6.5q-46 -5 -95 -25t-82 -46z" />
<glyph unicode="&#xd9;" horiz-adv-x="885" d="M14 260q0 84 45.5 159.5t115.5 124.5t149.5 77.5t150.5 28.5q100 0 100 -76q0 -40 -19.5 -90t-71.5 -160q-10 -21 -15 -32q-58 -123 -72 -161q-49 -132 10 -120q27 6 78 44q99 75 241 267.5t170 274.5q6 7 16 12.5t20.5 6.5t18 -9t7.5 -32q-19 -29 -79 -185t-80 -225 q-13 -47 -19.5 -75t-9.5 -53.5t3 -36.5t21 -11q22 0 72 41q21 18 21 6q-1 -13 -9 -21q-81 -73 -130 -73q-13 0 -20.5 7.5t-8.5 24.5t1 35.5t9.5 49.5t15 57t19.5 67q46 150 102 282q-71 -116 -192 -251.5t-200 -196.5q-117 -89 -147 -34q-5 9 -6 21.5t2 30t6.5 33t12.5 38.5 t14.5 38t17 41t16.5 36.5t17 36t14 29.5q1 3 12.5 26l19 38t20 42.5t21 49.5t17 47.5t13 47.5t4.5 40q0 28 -15 37.5t-53 9.5q-91 0 -185 -53t-156.5 -141.5t-62.5 -181.5q0 -43 18.5 -70t56.5 -27q92 0 166 82q19 22 22 19q2 -2 2 -8q-10 -43 -63 -80t-126 -37 q-48 0 -83 34t-35 98zM643 772q-11 8 -9 19t13 18.5t19 1.5q20 -16 57 -39.5t63 -42.5t35 -34q10 -17 -49 11q-52 23 -129 66z" />
<glyph unicode="&#xda;" horiz-adv-x="885" d="M14 260q0 84 45.5 159.5t115.5 124.5t149.5 77.5t150.5 28.5q100 0 100 -76q0 -40 -19.5 -90t-71.5 -160q-10 -21 -15 -32q-58 -123 -72 -161q-49 -132 10 -120q27 6 78 44q99 75 241 267.5t170 274.5q6 7 16 12.5t20.5 6.5t18 -9t7.5 -32q-19 -29 -79 -185t-80 -225 q-13 -47 -19.5 -75t-9.5 -53.5t3 -36.5t21 -11q22 0 72 41q21 18 21 6q-1 -13 -9 -21q-81 -73 -130 -73q-13 0 -20.5 7.5t-8.5 24.5t1 35.5t9.5 49.5t15 57t19.5 67q46 150 102 282q-71 -116 -192 -251.5t-200 -196.5q-117 -89 -147 -34q-5 9 -6 21.5t2 30t6.5 33t12.5 38.5 t14.5 38t17 41t16.5 36.5t17 36t14 29.5q1 3 12.5 26l19 38t20 42.5t21 49.5t17 47.5t13 47.5t4.5 40q0 28 -15 37.5t-53 9.5q-91 0 -185 -53t-156.5 -141.5t-62.5 -181.5q0 -43 18.5 -70t56.5 -27q92 0 166 82q19 22 22 19q2 -2 2 -8q-10 -43 -63 -80t-126 -37 q-48 0 -83 34t-35 98zM719 693q-20 -5 24.5 42.5t103.5 103.5q10 9 21 2.5t13.5 -18t-4.5 -18.5q-22 -14 -55.5 -42t-59.5 -47t-43 -23z" />
<glyph unicode="&#xdb;" horiz-adv-x="885" d="M14 260q0 84 45.5 159.5t115.5 124.5t149.5 77.5t150.5 28.5q100 0 100 -76q0 -40 -19.5 -90t-71.5 -160q-10 -21 -15 -32q-58 -123 -72 -161q-49 -132 10 -120q27 6 78 44q99 75 241 267.5t170 274.5q6 7 16 12.5t20.5 6.5t18 -9t7.5 -32q-19 -29 -79 -185t-80 -225 q-13 -47 -19.5 -75t-9.5 -53.5t3 -36.5t21 -11q22 0 72 41q21 18 21 6q-1 -13 -9 -21q-81 -73 -130 -73q-13 0 -20.5 7.5t-8.5 24.5t1 35.5t9.5 49.5t15 57t19.5 67q46 150 102 282q-71 -116 -192 -251.5t-200 -196.5q-117 -89 -147 -34q-5 9 -6 21.5t2 30t6.5 33t12.5 38.5 t14.5 38t17 41t16.5 36.5t17 36t14 29.5q1 3 12.5 26l19 38t20 42.5t21 49.5t17 47.5t13 47.5t4.5 40q0 28 -15 37.5t-53 9.5q-91 0 -185 -53t-156.5 -141.5t-62.5 -181.5q0 -43 18.5 -70t56.5 -27q92 0 166 82q19 22 22 19q2 -2 2 -8q-10 -43 -63 -80t-126 -37 q-48 0 -83 34t-35 98zM649 693q10 12 63 61.5t62 51.5q5 -2 34 -47.5t38 -62.5q5 -11 -2 -14l-5 1q-13 11 -40.5 41t-37.5 45q-13 -12 -56 -46.5t-52 -39.5q-8 -4 -8 1q0 3 4 9z" />
<glyph unicode="&#xdc;" horiz-adv-x="885" d="M14 260q0 84 45.5 159.5t115.5 124.5t149.5 77.5t150.5 28.5q100 0 100 -76q0 -40 -19.5 -90t-71.5 -160q-10 -21 -15 -32q-58 -123 -72 -161q-49 -132 10 -120q27 6 78 44q99 75 241 267.5t170 274.5q6 7 16 12.5t20.5 6.5t18 -9t7.5 -32q-19 -29 -79 -185t-80 -225 q-13 -47 -19.5 -75t-9.5 -53.5t3 -36.5t21 -11q22 0 72 41q21 18 21 6q-1 -13 -9 -21q-81 -73 -130 -73q-13 0 -20.5 7.5t-8.5 24.5t1 35.5t9.5 49.5t15 57t19.5 67q46 150 102 282q-71 -116 -192 -251.5t-200 -196.5q-117 -89 -147 -34q-5 9 -6 21.5t2 30t6.5 33t12.5 38.5 t14.5 38t17 41t16.5 36.5t17 36t14 29.5q1 3 12.5 26l19 38t20 42.5t21 49.5t17 47.5t13 47.5t4.5 40q0 28 -15 37.5t-53 9.5q-91 0 -185 -53t-156.5 -141.5t-62.5 -181.5q0 -43 18.5 -70t56.5 -27q92 0 166 82q19 22 22 19q2 -2 2 -8q-10 -43 -63 -80t-126 -37 q-48 0 -83 34t-35 98zM651 763q0 14 16.5 29.5t31.5 20t19 -0.5q0 -12 -7 -37.5t-7 -27.5q0 -18 -32 -25q-10 -1 -15 7t-6 16t0 18zM803 763q0 14 16.5 29.5t31.5 20t19 -0.5q0 -12 -7 -37.5t-7 -27.5q0 -18 -32 -25q-10 -1 -15 7t-6 16t0 18z" />
<glyph unicode="&#xdd;" horiz-adv-x="955" d="M43 274q0 69 50 144.5t123 133t157.5 95t150.5 37.5q45 0 77 -19t32 -61q0 -46 -31.5 -124t-69.5 -149t-69.5 -151.5t-31.5 -129.5q0 -33 23 -33q46 0 145.5 102t177 203t114.5 159t79 154q8 19 25 19q15 0 21 -16t6 -33q0 -101 -91 -313t-169 -343q-32 -54 -74.5 -109 t-97.5 -112t-119 -92.5t-122 -35.5q-54 0 -98 31t-44 82q0 19 7 48t19 32q6 -4 7.5 -15.5t0 -29.5t-1.5 -19q0 -44 37 -68.5t84 -24.5q52 0 108 33.5t106 88.5t85.5 103t66.5 99q36 58 69.5 131.5t53 125t52 144t47.5 131.5q-37 -62 -142.5 -186t-229.5 -236t-181 -112 q-32 0 -32 44q0 56 35 143.5t76.5 164t76.5 161.5t35 138q0 30 -18 39.5t-51 9.5q-65 0 -140.5 -36.5t-137.5 -92.5t-103.5 -129t-41.5 -139q0 -98 99 -98q25 0 47 6.5t41 20.5t29 22.5t25.5 26t16.5 18.5q15 15 15 0q0 -11 -14 -29q-28 -40 -77.5 -66t-98.5 -26 q-58 0 -96 40t-38 98zM798 696q-20 -5 24.5 42.5t103.5 103.5q10 9 21 2.5t13.5 -18t-4.5 -18.5q-22 -14 -55.5 -42t-59.5 -47t-43 -23z" />
<glyph unicode="&#xde;" horiz-adv-x="298" d="M-64 -218q-1 49 108 350q-9 16 -3 38t28 35q93 285 106 335q0 1 -15.5 3.5t-14.5 9.5q0 11 21 19l21 8q17 46 25.5 68.5t15 35.5t7.5 14l8 8q17 18 32.5 8.5t2.5 -40.5l-38 -91q61 -39 105.5 -125.5t44.5 -188.5q0 -79 -42 -135t-113 -69q-32 -8 -81 -1t-77 30 q-38 -77 -75 -249q-2 -11 5 -34.5t-9 -43.5q-7 -13 -21.5 -18t-27.5 3t-13 30zM94 124q27 -28 70 -35t71 5q60 22 83 88.5t11 146.5q-20 131 -102 202q-32 -72 -133 -407z" />
<glyph unicode="&#xdf;" horiz-adv-x="610" d="M-128 -104q5 3 9.5 1t2.5 -12q-4 -18 6 -40q8 -18 26.5 -26t36.5 -6q24 2 48 28t43 75q28 69 73.5 220.5t60.5 209.5h-65q-19 0 -11 11q8 9 19 10h64q47 167 66 208q40 87 144 89q81 2 124 -37q118 -105 -78 -184q-27 -11 -43 -19t-35 -21t-26 -29.5t-2 -35.5 q2 -8 7.5 -16t15 -15.5t18 -13t23.5 -13t23.5 -11.5t26 -11.5l24.5 -10.5q22 -10 36 -18.5t29 -21.5t21.5 -28.5t3.5 -33.5q-9 -64 -84 -110.5t-164 -44.5q-44 1 -58 23t-8 43q5 19 29 19q3 0 4 -4t2.5 -12t4.5 -13q19 -31 83 -29q50 0 91.5 26.5t50.5 72.5q8 50 -52 84 q-13 8 -61.5 31t-74 42t-31.5 42q-11 43 14 77.5t108 62.5q29 10 52.5 24t40.5 33.5t11.5 45t-35.5 52.5q-38 35 -96.5 32.5t-85.5 -49.5q-33 -57 -84 -247q-65 -240 -104 -362q-34 -106 -83.5 -149t-99.5 -41q-39 1 -57 22q-18 22 -16.5 48t12.5 32z" />
<glyph unicode="&#xe0;" horiz-adv-x="329" d="M6 33q0 46 27.5 124.5t67.5 142t70 63.5h3l11 8q9 10 28 10q15 0 42 -8t30 -8q4 0 10.5 8t15.5 8q25 0 25 -22q0 -9 -3.5 -20t-10 -25.5t-7.5 -17.5q-1 -2 -9.5 -6t-9.5 -7q-22 -62 -39 -132.5t-17 -86.5q0 -25 14 -25t34.5 17t35.5 34t16 17q2 0 2 -4q0 -15 -10 -23 q-1 -1 -9 -8.5t-13 -11.5t-14.5 -12.5t-16.5 -13.5t-17 -12t-17.5 -10.5t-15.5 -6.5t-15 -3q-21 0 -25 25q0 42 33 155q-134 -185 -192 -185q-24 0 -24 36zM52 61q0 -17 10 -17q21 0 74.5 61t70.5 87q25 40 46 86.5t21 61.5q0 6 -5 6h-3q-6 0 -20.5 2t-24.5 2q-14 0 -30 -4 q-25 -7 -82 -118.5t-57 -166.5zM172 540q-11 8 -9 19t13 18.5t19 1.5q20 -16 57 -39.5t63 -42.5t35 -34q10 -17 -49 11q-52 23 -129 66z" />
<glyph unicode="&#xe1;" horiz-adv-x="329" d="M6 33q0 46 27.5 124.5t67.5 142t70 63.5h3l11 8q9 10 28 10q15 0 42 -8t30 -8q4 0 10.5 8t15.5 8q25 0 25 -22q0 -9 -3.5 -20t-10 -25.5t-7.5 -17.5q-1 -2 -9.5 -6t-9.5 -7q-22 -62 -39 -132.5t-17 -86.5q0 -25 14 -25t34.5 17t35.5 34t16 17q2 0 2 -4q0 -15 -10 -23 q-1 -1 -9 -8.5t-13 -11.5t-14.5 -12.5t-16.5 -13.5t-17 -12t-17.5 -10.5t-15.5 -6.5t-15 -3q-21 0 -25 25q0 42 33 155q-134 -185 -192 -185q-24 0 -24 36zM52 61q0 -17 10 -17q21 0 74.5 61t70.5 87q25 40 46 86.5t21 61.5q0 6 -5 6h-3q-6 0 -20.5 2t-24.5 2q-14 0 -30 -4 q-25 -7 -82 -118.5t-57 -166.5zM235 446q-20 -5 24.5 42.5t103.5 103.5q10 9 21 2.5t13.5 -18t-4.5 -18.5q-22 -14 -55.5 -42t-59.5 -47t-43 -23z" />
<glyph unicode="&#xe2;" horiz-adv-x="329" d="M6 33q0 46 27.5 124.5t67.5 142t70 63.5h3l11 8q9 10 28 10q15 0 42 -8t30 -8q4 0 10.5 8t15.5 8q25 0 25 -22q0 -9 -3.5 -20t-10 -25.5t-7.5 -17.5q-1 -2 -9.5 -6t-9.5 -7q-22 -62 -39 -132.5t-17 -86.5q0 -25 14 -25t34.5 17t35.5 34t16 17q2 0 2 -4q0 -15 -10 -23 q-1 -1 -9 -8.5t-13 -11.5t-14.5 -12.5t-16.5 -13.5t-17 -12t-17.5 -10.5t-15.5 -6.5t-15 -3q-21 0 -25 25q0 42 33 155q-134 -185 -192 -185q-24 0 -24 36zM52 61q0 -17 10 -17q21 0 74.5 61t70.5 87q25 40 46 86.5t21 61.5q0 6 -5 6h-3q-6 0 -20.5 2t-24.5 2q-14 0 -30 -4 q-25 -7 -82 -118.5t-57 -166.5zM180 479q10 12 63 61.5t62 51.5q5 -2 34 -47.5t38 -62.5q5 -11 -2 -14q-2 -1 -5 1q-13 11 -40.5 41t-37.5 45q-13 -12 -56 -46.5t-52 -39.5q-8 -4 -8 1q0 3 4 9z" />
<glyph unicode="&#xe3;" horiz-adv-x="329" d="M6 33q0 46 27.5 124.5t67.5 142t70 63.5h3l11 8q9 10 28 10q15 0 42 -8t30 -8q4 0 10.5 8t15.5 8q25 0 25 -22q0 -9 -3.5 -20t-10 -25.5t-7.5 -17.5q-1 -2 -9.5 -6t-9.5 -7q-22 -62 -39 -132.5t-17 -86.5q0 -25 14 -25t34.5 17t35.5 34t16 17q2 0 2 -4q0 -15 -10 -23 q-1 -1 -9 -8.5t-13 -11.5t-14.5 -12.5t-16.5 -13.5t-17 -12t-17.5 -10.5t-15.5 -6.5t-15 -3q-21 0 -25 25q0 42 33 155q-134 -185 -192 -185q-24 0 -24 36zM52 61q0 -17 10 -17q21 0 74.5 61t70.5 87q25 40 46 86.5t21 61.5q0 6 -5 6h-3q-6 0 -20.5 2t-24.5 2q-14 0 -30 -4 q-25 -7 -82 -118.5t-57 -166.5zM174 489q0 7 16.5 21.5t26.5 19.5q16 10 36 10q17 0 48 -10.5t47 -10.5q24 0 42 21q6 0 6 -4q0 -7 -14.5 -21t-25.5 -21q-13 -8 -27 -8q-18 0 -50 13.5t-49 13.5t-33.5 -13t-21.5 -13q-1 1 -1 2z" />
<glyph unicode="&#xe4;" horiz-adv-x="329" d="M6 33q0 46 27.5 124.5t67.5 142t70 63.5h3l11 8q9 10 28 10q15 0 42 -8t30 -8q4 0 10.5 8t15.5 8q25 0 25 -22q0 -9 -3.5 -20t-10 -25.5t-7.5 -17.5q-1 -2 -9.5 -6t-9.5 -7q-22 -62 -39 -132.5t-17 -86.5q0 -25 14 -25t34.5 17t35.5 34t16 17q2 0 2 -4q0 -15 -10 -23 q-1 -1 -9 -8.5t-13 -11.5t-14.5 -12.5t-16.5 -13.5t-17 -12t-17.5 -10.5t-15.5 -6.5t-15 -3q-21 0 -25 25q0 42 33 155q-134 -185 -192 -185q-24 0 -24 36zM52 61q0 -17 10 -17q21 0 74.5 61t70.5 87q25 40 46 86.5t21 61.5q0 6 -5 6h-3q-6 0 -20.5 2t-24.5 2q-14 0 -30 -4 q-25 -7 -82 -118.5t-57 -166.5zM174 525q0 14 16.5 29.5t31.5 20t19 -0.5q0 -12 -7 -37.5t-7 -27.5q0 -18 -32 -25q-10 -1 -15 7t-6 16t0 18zM326 525q0 14 16.5 29.5t31.5 20t19 -0.5q0 -12 -7 -37.5t-7 -27.5q0 -18 -32 -25q-10 -1 -15 7t-6 16t0 18z" />
<glyph unicode="&#xe5;" horiz-adv-x="329" d="M6 33q0 46 27.5 124.5t67.5 142t70 63.5h3l11 8q9 10 28 10q15 0 42 -8t30 -8q4 0 10.5 8t15.5 8q25 0 25 -22q0 -9 -3.5 -20t-10 -25.5t-7.5 -17.5q-1 -2 -9.5 -6t-9.5 -7q-22 -62 -39 -132.5t-17 -86.5q0 -25 14 -25t34.5 17t35.5 34t16 17q2 0 2 -4q0 -15 -10 -23 q-1 -1 -9 -8.5t-13 -11.5t-14.5 -12.5t-16.5 -13.5t-17 -12t-17.5 -10.5t-15.5 -6.5t-15 -3q-21 0 -25 25q0 42 33 155q-134 -185 -192 -185q-24 0 -24 36zM52 61q0 -17 10 -17q21 0 74.5 61t70.5 87q25 40 46 86.5t21 61.5q0 6 -5 6h-3q-6 0 -20.5 2t-24.5 2q-14 0 -30 -4 q-25 -7 -82 -118.5t-57 -166.5zM231 471q0 20 11 45t28 31q14 29 51 29q19 0 31 -14.5t12 -34.5q0 -36 -28 -65t-64 -29q-18 0 -29.5 10t-11.5 28zM283 452q25 0 43 23t18 52q0 34 -26 34q-16 0 -35 -18q-10 -9 -18 -24t-11 -30t4 -26t25 -11z" />
<glyph unicode="&#xe6;" horiz-adv-x="470" d="M17 0q-20 11 -7 70.5t38.5 125.5t62 118t63.5 49l11 8q7 8 20.5 10t27 -1.5t27 -7.5t20.5 -6t8 2q3 0 9 6.5t14 6.5q22 0 24 -17q15 5 41 5q19 9 36 -7t24 -51q12 -61 -1 -77t-32.5 -26t-40.5 -13.5t-37.5 -4t-33 0t-18.5 0.5q-58 -151 -18 -168q9 -8 22.5 -3t24.5 11.5 t24.5 20.5t23 25t20 24t15.5 18q4 6 8 6q12 0 3 -23q-17 -31 -57.5 -68t-69.5 -43q-11 -2 -24 1t-27.5 11t-21 29t-0.5 51q9 51 25 98q-147 -206 -204 -181zM53 73q-6 -47 32 -19q46 35 119 134q2 3 3 4q60 101 66 143q2 14 -6 11h-1q-7 0 -20 2t-26 2t-29 -4 q-24 -6 -77 -109t-61 -164zM282 219l18 -1q18 -1 35 -0.5t32 4.5q19 5 25.5 12.5t7.5 28.5q0 10 -3 25q-13 104 -82 -4q-22 -37 -33 -65z" />
<glyph unicode="&#xe7;" horiz-adv-x="231" d="M-59 -270q0 5 9 8q13 4 36.5 6t36.5 4.5t23.5 17t10.5 41.5q0 14 -26 50.5t-26 56.5q0 25 11 47.5t30 32.5q-42 10 -42 69q0 69 45 166t78 112q15 6 32.5 15t30 14t27.5 5q47 0 47 -47q0 -21 -9.5 -37.5t-20.5 -16.5q-12 0 -12 18q0 6 4 22t4 23q0 16 -17 16 q-12 0 -37.5 -16.5t-38.5 -29.5q-19 -20 -55 -109.5t-36 -138.5q0 -37 29 -37q37 0 74 28.5t60 58t24 29.5q5 -2 5 -7q0 -24 -49 -75t-102 -61v-1q-21 -4 -33.5 -22t-12.5 -41q0 -12 29 -48.5t29 -64.5q0 -33 -26 -56.5t-58.5 -33t-64.5 -9.5q-9 0 -9 11z" />
<glyph unicode="&#xe8;" horiz-adv-x="253" d="M20 57q0 11 3 26q7 38 18.5 74t12.5 44q-15 4 -15 16q0 11 17 11h7q40 79 46 91q28 53 107 53q34 0 47 -61q6 -31 6 -50q0 -22 -15 -37.5t-39 -22t-43 -9t-36 -2.5q-10 0 -22.5 0.5t-13.5 0.5q-33 -84 -33 -132q0 -40 30 -40q21 0 49 26.5t49 53t25 26.5q7 0 7 -8 q0 -28 -55 -77.5t-86 -49.5q-25 0 -45.5 15.5t-20.5 51.5zM100 518q-11 8 -9 19t13 18.5t19 1.5q20 -16 57 -39.5t63 -42.5t35 -34q10 -17 -49 11q-52 23 -129 66zM109 219q2 0 16 -1t24 -1q41 0 59 9t19 37q0 25 -5 43t-11.5 25t-13.5 7q-20 0 -47.5 -43t-40.5 -76z" />
<glyph unicode="&#xe9;" horiz-adv-x="253" d="M20 57q0 11 3 26q7 38 18.5 74t12.5 44q-15 4 -15 16q0 11 17 11h7q40 79 46 91q28 53 107 53q34 0 47 -61q6 -31 6 -50q0 -22 -15 -37.5t-39 -22t-43 -9t-36 -2.5q-10 0 -22.5 0.5t-13.5 0.5q-33 -84 -33 -132q0 -40 30 -40q21 0 49 26.5t49 53t25 26.5q7 0 7 -8 q0 -28 -55 -77.5t-86 -49.5q-25 0 -45.5 15.5t-20.5 51.5zM109 219q2 0 16 -1t24 -1q41 0 59 9t19 37q0 25 -5 43t-11.5 25t-13.5 7q-20 0 -47.5 -43t-40.5 -76zM183 420q-20 -5 24.5 42.5t103.5 103.5q10 9 21 2.5t13.5 -18t-4.5 -18.5q-22 -14 -55.5 -42t-59.5 -47 t-43 -23z" />
<glyph unicode="&#xea;" horiz-adv-x="253" d="M20 57q0 11 3 26q7 38 18.5 74t12.5 44q-15 4 -15 16q0 11 17 11h7q40 79 46 91q28 53 107 53q34 0 47 -61q6 -31 6 -50q0 -22 -15 -37.5t-39 -22t-43 -9t-36 -2.5q-10 0 -22.5 0.5t-13.5 0.5q-33 -84 -33 -132q0 -40 30 -40q21 0 49 26.5t49 53t25 26.5q7 0 7 -8 q0 -28 -55 -77.5t-86 -49.5q-25 0 -45.5 15.5t-20.5 51.5zM109 219q2 0 16 -1t24 -1q41 0 59 9t19 37q0 25 -5 43t-11.5 25t-13.5 7q-20 0 -47.5 -43t-40.5 -76zM131 467q10 12 63 61.5t62 51.5q5 -2 34 -47.5t38 -62.5q5 -11 -2 -14q-2 -1 -5 1q-13 11 -40.5 41t-37.5 45 q-13 -12 -56 -46.5t-52 -39.5q-8 -4 -8 1q0 3 4 9z" />
<glyph unicode="&#xeb;" horiz-adv-x="253" d="M20 57q0 11 3 26q7 38 18.5 74t12.5 44q-15 4 -15 16q0 11 17 11h7q40 79 46 91q28 53 107 53q34 0 47 -61q6 -31 6 -50q0 -22 -15 -37.5t-39 -22t-43 -9t-36 -2.5q-10 0 -22.5 0.5t-13.5 0.5q-33 -84 -33 -132q0 -40 30 -40q21 0 49 26.5t49 53t25 26.5q7 0 7 -8 q0 -28 -55 -77.5t-86 -49.5q-25 0 -45.5 15.5t-20.5 51.5zM109 219q2 0 16 -1t24 -1q41 0 59 9t19 37q0 25 -5 43t-11.5 25t-13.5 7q-20 0 -47.5 -43t-40.5 -76zM116 488q0 14 16.5 29.5t31.5 20t19 -0.5q0 -12 -7 -37.5t-7 -27.5q0 -18 -32 -25q-10 -1 -15 7t-6 16t0 18z M268 488q0 14 16.5 29.5t31.5 20t19 -0.5q0 -12 -7 -37.5t-7 -27.5q0 -18 -32 -25q-10 -1 -15 7t-6 16t0 18z" />
<glyph unicode="&#xec;" horiz-adv-x="168" d="M22 33q23 67 68 206q6 17 3 25t1 19q18 50 28 69q7 14 25.5 24.5t32.5 11t18 -8.5q-2 -3 -13.5 -25t-19.5 -38t-22 -47t-25 -59t-23 -67t-21 -78q-5 -22 12 -20q11 2 32 16q33 25 40 10q0 -6 -10.5 -14.5t-29 -20t-27.5 -19.5q-30 -25 -57 -23q-25 2 -12 39zM73 546 q-11 8 -9 19t13 18.5t19 1.5q20 -16 57 -39.5t63 -42.5t35 -34q10 -17 -49 11q-52 23 -129 66z" />
<glyph unicode="&#xed;" horiz-adv-x="168" d="M22 33q23 67 68 206q6 17 3 25t1 19q18 50 28 69q7 14 25.5 24.5t32.5 11t18 -8.5q-2 -3 -13.5 -25t-19.5 -38t-22 -47t-25 -59t-23 -67t-21 -78q-5 -22 12 -20q11 2 32 16q33 25 40 10q0 -6 -10.5 -14.5t-29 -20t-27.5 -19.5q-30 -25 -57 -23q-25 2 -12 39zM159 452 q-20 -5 24.5 42.5t103.5 103.5q10 9 21 2.5t13.5 -18t-4.5 -18.5q-22 -14 -55.5 -42t-59.5 -47t-43 -23z" />
<glyph unicode="&#xee;" horiz-adv-x="168" d="M22 33q23 67 68 206q6 17 3 25t1 19q18 50 28 69q7 14 25.5 24.5t32.5 11t18 -8.5q-2 -3 -13.5 -25t-19.5 -38t-22 -47t-25 -59t-23 -67t-21 -78q-5 -22 12 -20q11 2 32 16q33 25 40 10q0 -6 -10.5 -14.5t-29 -20t-27.5 -19.5q-30 -25 -57 -23q-25 2 -12 39zM91 466 q10 12 63 61.5t62 51.5q5 -2 34 -47.5t38 -62.5q5 -11 -2 -14q-2 -1 -5 1q-13 11 -40.5 41t-37.5 45q-13 -12 -56 -46.5t-52 -39.5q-8 -4 -8 1q0 3 4 9z" />
<glyph unicode="&#xef;" horiz-adv-x="168" d="M22 33q23 67 68 206q6 17 3 25t1 19q18 50 28 69q7 14 25.5 24.5t32.5 11t18 -8.5q-2 -3 -13.5 -25t-19.5 -38t-22 -47t-25 -59t-23 -67t-21 -78q-5 -22 12 -20q11 2 32 16q33 25 40 10q0 -6 -10.5 -14.5t-29 -20t-27.5 -19.5q-30 -25 -57 -23q-25 2 -12 39zM86 513 q0 14 16.5 29.5t31.5 20t19 -0.5q0 -12 -7 -37.5t-7 -27.5q0 -18 -32 -25q-10 -1 -15 7t-6 16t0 18zM238 513q0 14 16.5 29.5t31.5 20t19 -0.5q0 -12 -7 -37.5t-7 -27.5q0 -18 -32 -25q-10 -1 -15 7t-6 16t0 18z" />
<glyph unicode="&#xf0;" horiz-adv-x="310" d="M25 111q4 24 16.5 63.5t32 84.5t47.5 80t57 42q29 5 46 -1q-2 42 -58 142q-47 -23 -79 -36q-17 -8 -20 5q-3 11 13 22q18 12 71 35q-34 54 -59 75q-15 13 -3 31q13 20 33 8q7 -4 13 -12q33 -43 56 -84q19 8 48.5 20t36.5 15q16 6 16 1q-1 -5 -14 -15q-28 -21 -75 -46 q35 -71 51 -152t3 -170.5t-63 -153.5q-30 -38 -64 -58.5t-61 -19.5t-40.5 33t-3.5 91zM70 102q-16 -88 22 -91q32 -2 75 56q64 93 66 205q1 14 0 26.5t-3 22t-9.5 14t-20.5 2.5q-21 9 -51.5 -40t-51.5 -106t-27 -89z" />
<glyph unicode="&#xf1;" horiz-adv-x="326" d="M-3 -10q2 -3 37.5 100t50.5 149q4 12 4 18q0 4 -1.5 7.5t-1.5 5.5q0 4 3 13q23 64 39 84.5t49 20.5q13 0 15 -9q-82 -168 -98 -240q165 266 253 266q20 0 20 -13q0 -9 -7 -20q-51 -85 -95 -195t-44 -165q0 -18 8 -18q3 0 19.5 10t19.5 10q6 0 6 -6q0 -12 -22 -27t-44 -15 q-29 0 -29 43q0 39 16 91t50 133t34 82q5 13 5 20q0 5 -3 5q-5 0 -22 -18q-43 -48 -123 -164t-82 -143q-1 -7 -19 -19.5t-30 -12.5q-7 0 -8 7zM153 491q0 7 16.5 21.5t26.5 19.5q16 10 36 10q17 0 48 -10.5t47 -10.5q24 0 42 21q6 0 6 -4q0 -7 -14.5 -21t-25.5 -21 q-13 -8 -27 -8q-18 0 -50 13.5t-49 13.5t-33.5 -13t-21.5 -13q-1 1 -1 2z" />
<glyph unicode="&#xf2;" horiz-adv-x="261" d="M21 65q0 23 4 46q5 26 18 67t34 89t51.5 81.5t61.5 33.5h7q0 14 8 24t22 10q14 -1 25 -58.5t32 -59.5q19 -3 19 -11t-15 -15.5t-27 -7.5q0 -117 -61 -200t-121 -83q-58 0 -58 84zM66 60q0 -49 28 -49q40 0 89.5 81.5t49.5 179.5q-9 5 -22 35.5t-18 30.5q-31 0 -72 -91.5 t-51 -144.5q-4 -23 -4 -42zM135 541q-11 8 -9 19t13 18.5t19 1.5q20 -16 57 -39.5t63 -42.5t35 -34q10 -17 -49 11q-52 23 -129 66z" />
<glyph unicode="&#xf3;" horiz-adv-x="261" d="M21 65q0 23 4 46q5 26 18 67t34 89t51.5 81.5t61.5 33.5h7q0 14 8 24t22 10q14 -1 25 -58.5t32 -59.5q19 -3 19 -11t-15 -15.5t-27 -7.5q0 -117 -61 -200t-121 -83q-58 0 -58 84zM66 60q0 -49 28 -49q40 0 89.5 81.5t49.5 179.5q-9 5 -22 35.5t-18 30.5q-31 0 -72 -91.5 t-51 -144.5q-4 -23 -4 -42zM188 455q-20 -5 24.5 42.5t103.5 103.5q10 9 21 2.5t13.5 -18t-4.5 -18.5q-22 -14 -55.5 -42t-59.5 -47t-43 -23z" />
<glyph unicode="&#xf4;" horiz-adv-x="261" d="M21 65q0 23 4 46q5 26 18 67t34 89t51.5 81.5t61.5 33.5h7q0 14 8 24t22 10q14 -1 25 -58.5t32 -59.5q19 -3 19 -11t-15 -15.5t-27 -7.5q0 -117 -61 -200t-121 -83q-58 0 -58 84zM66 60q0 -49 28 -49q40 0 89.5 81.5t49.5 179.5q-9 5 -22 35.5t-18 30.5q-31 0 -72 -91.5 t-51 -144.5q-4 -23 -4 -42zM132 484q10 12 63 61.5t62 51.5q5 -2 34 -47.5t38 -62.5q5 -11 -2 -14q-2 -1 -5 1q-13 11 -40.5 41t-37.5 45q-13 -12 -56 -46.5t-52 -39.5q-8 -4 -8 1q0 3 4 9z" />
<glyph unicode="&#xf5;" horiz-adv-x="261" d="M21 65q0 23 4 46q5 26 18 67t34 89t51.5 81.5t61.5 33.5h7q0 14 8 24t22 10q14 -1 25 -58.5t32 -59.5q19 -3 19 -11t-15 -15.5t-27 -7.5q0 -117 -61 -200t-121 -83q-58 0 -58 84zM66 60q0 -49 28 -49q40 0 89.5 81.5t49.5 179.5q-9 5 -22 35.5t-18 30.5q-31 0 -72 -91.5 t-51 -144.5q-4 -23 -4 -42zM135 495q0 7 16.5 21.5t26.5 19.5q16 10 36 10q17 0 48 -10.5t47 -10.5q24 0 42 21q6 0 6 -4q0 -7 -14.5 -21t-25.5 -21q-13 -8 -27 -8q-18 0 -50 13.5t-49 13.5t-33.5 -13t-21.5 -13q-1 1 -1 2z" />
<glyph unicode="&#xf6;" horiz-adv-x="261" d="M21 65q0 23 4 46q5 26 18 67t34 89t51.5 81.5t61.5 33.5h7q0 14 8 24t22 10q14 -1 25 -58.5t32 -59.5q19 -3 19 -11t-15 -15.5t-27 -7.5q0 -117 -61 -200t-121 -83q-58 0 -58 84zM66 60q0 -49 28 -49q40 0 89.5 81.5t49.5 179.5q-9 5 -22 35.5t-18 30.5q-31 0 -72 -91.5 t-51 -144.5q-4 -23 -4 -42zM126 521q0 14 16.5 29.5t31.5 20t19 -0.5q0 -12 -7 -37.5t-7 -27.5q0 -18 -32 -25q-10 -1 -15 7t-6 16t0 18zM278 521q0 14 16.5 29.5t31.5 20t19 -0.5q0 -12 -7 -37.5t-7 -27.5q0 -18 -32 -25q-10 -1 -15 7t-6 16t0 18z" />
<glyph unicode="&#xf7;" horiz-adv-x="406" d="M19 235q0 11 9 17.5t16 6.5q1 0 24.5 0.5t52 0.5h64.5h63q25 -1 74 -0.5t74 2.5q4 -8 -11 -15t-41 -12t-52 -9t-51.5 -7.5t-33.5 -5.5q-19 -5 -103.5 1t-84.5 21zM142 140q0 29 38 29q14 0 28 -9.5t14 -24.5q0 -12 -13 -21t-25 -9q-17 0 -29.5 10.5t-12.5 24.5zM188 340 q0 29 38 29q14 0 28 -9.5t14 -24.5q0 -12 -13 -21t-25 -9q-17 0 -29.5 10.5t-12.5 24.5z" />
<glyph unicode="&#xf8;" horiz-adv-x="261" d="M22 -80q0 29 19 77q-30 32 -16 114q5 27 19 69.5t35.5 91.5t53.5 81.5t64 28.5q0 6 2 12.5t6 11t9.5 7.5t12.5 3q12 -1 21 -39q48 75 55 75q8 0 11 -7.5t-3 -18.5q-15 -21 -56 -86q9 -41 29 -42q20 -3 19 -11.5t-19 -17.5q-11 -5 -23 -5q0 -66 -22.5 -125.5t-55 -95.5 t-67.5 -52t-60 -5q-28 -65 -10 -75q7 -4 -11 -12q-13 0 -13 21zM66 53q45 93 142 259q-8 16 -8 25q-21 9 -51.5 -40t-51.5 -106t-27 -89q-6 -28 -4 -49zM73 22q19 -28 62 10q56 49 84 142q14 49 14 98q-6 3 -12 14q-95 -157 -148 -264z" />
<glyph unicode="&#xf9;" horiz-adv-x="333" d="M7 9q0 15 11 43q0 1 24 54t38.5 91.5t14.5 55.5q0 5 -2 9.5t-2 7.5q0 1 2 11q17 64 32 84.5t50 20.5q14 0 17 -9q-120 -295 -120 -309q0 -4 3 -4q4 0 24 16q100 77 176 216q1 31 19 64t53 33q11 0 12 -9q-3 -9 -22 -60t-31 -86q-18 -51 -38.5 -124t-20.5 -89q0 -3 2 -3 q8 0 40.5 25t44.5 25q8 0 8 -5q0 -7 -22.5 -23t-51.5 -33.5t-32 -19.5q-7 -6 -20.5 -20.5t-25 -24t-20.5 -9.5q-13 0 -13 11q0 7 16 21.5t21 25.5q17 41 68 239q-47 -70 -124.5 -156.5t-116.5 -86.5q-14 0 -14 18zM163 545q-11 8 -9 19t13 18.5t19 1.5q20 -16 57 -39.5 t63 -42.5t35 -34q10 -17 -49 11q-52 23 -129 66z" />
<glyph unicode="&#xfa;" horiz-adv-x="333" d="M7 9q0 15 11 43q0 1 24 54t38.5 91.5t14.5 55.5q0 5 -2 9.5t-2 7.5q0 1 2 11q17 64 32 84.5t50 20.5q14 0 17 -9q-120 -295 -120 -309q0 -4 3 -4q4 0 24 16q100 77 176 216q1 31 19 64t53 33q11 0 12 -9q-3 -9 -22 -60t-31 -86q-18 -51 -38.5 -124t-20.5 -89q0 -3 2 -3 q8 0 40.5 25t44.5 25q8 0 8 -5q0 -7 -22.5 -23t-51.5 -33.5t-32 -19.5q-7 -6 -20.5 -20.5t-25 -24t-20.5 -9.5q-13 0 -13 11q0 7 16 21.5t21 25.5q17 41 68 239q-47 -70 -124.5 -156.5t-116.5 -86.5q-14 0 -14 18zM228 429q-20 -5 24.5 42.5t103.5 103.5q10 9 21 2.5 t13.5 -18t-4.5 -18.5q-22 -14 -55.5 -42t-59.5 -47t-43 -23z" />
<glyph unicode="&#xfb;" horiz-adv-x="333" d="M7 9q0 15 11 43q0 1 24 54t38.5 91.5t14.5 55.5q0 5 -2 9.5t-2 7.5q0 1 2 11q17 64 32 84.5t50 20.5q14 0 17 -9q-120 -295 -120 -309q0 -4 3 -4q4 0 24 16q100 77 176 216q1 31 19 64t53 33q11 0 12 -9q-3 -9 -22 -60t-31 -86q-18 -51 -38.5 -124t-20.5 -89q0 -3 2 -3 q8 0 40.5 25t44.5 25q8 0 8 -5q0 -7 -22.5 -23t-51.5 -33.5t-32 -19.5q-7 -6 -20.5 -20.5t-25 -24t-20.5 -9.5q-13 0 -13 11q0 7 16 21.5t21 25.5q17 41 68 239q-47 -70 -124.5 -156.5t-116.5 -86.5q-14 0 -14 18zM173 484q10 12 63 61.5t62 51.5q5 -2 34 -47.5t38 -62.5 q5 -11 -2 -14q-2 -1 -5 1q-13 11 -40.5 41t-37.5 45q-13 -12 -56 -46.5t-52 -39.5q-8 -4 -8 1q0 3 4 9z" />
<glyph unicode="&#xfc;" horiz-adv-x="333" d="M7 9q0 15 11 43q0 1 24 54t38.5 91.5t14.5 55.5q0 5 -2 9.5t-2 7.5q0 1 2 11q17 64 32 84.5t50 20.5q14 0 17 -9q-120 -295 -120 -309q0 -4 3 -4q4 0 24 16q100 77 176 216q1 31 19 64t53 33q11 0 12 -9q-3 -9 -22 -60t-31 -86q-18 -51 -38.5 -124t-20.5 -89q0 -3 2 -3 q8 0 40.5 25t44.5 25q8 0 8 -5q0 -7 -22.5 -23t-51.5 -33.5t-32 -19.5q-7 -6 -20.5 -20.5t-25 -24t-20.5 -9.5q-13 0 -13 11q0 7 16 21.5t21 25.5q17 41 68 239q-47 -70 -124.5 -156.5t-116.5 -86.5q-14 0 -14 18zM161 512q0 14 16.5 29.5t31.5 20t19 -0.5q0 -12 -7 -37.5 t-7 -27.5q0 -18 -32 -25q-10 -1 -15 7t-6 16t0 18zM313 512q0 14 16.5 29.5t31.5 20t19 -0.5q0 -12 -7 -37.5t-7 -27.5q0 -18 -32 -25q-10 -1 -15 7t-6 16t0 18z" />
<glyph unicode="&#xfd;" horiz-adv-x="317" d="M-87 -311q0 36 43 109.5t88.5 136.5t46.5 67q11 33 11 90q0 82 -15.5 144t-42.5 62h-8l-6 -1q-4 0 -4 5q0 8 22 24q3 2 17 22t21 20q21 0 37.5 -64.5t16.5 -143.5q0 -8 -0.5 -24t-0.5 -24q0 -16 8 -16q23 0 92.5 106t69.5 135q0 6 -5 6q-2 0 -7 -2t-8 -2q-5 0 -8 5 q0 13 29 29t47 16q5 0 7 -1q3 -5 3 -11q0 -40 -87.5 -161t-140.5 -183q0 5 -2 -1q-15 -60 -18 -66q-5 -10 -9 -11q-4 0 -10.5 2.5t-7.5 2.5q-135 -181 -135 -232q0 -9 4 -18.5t4 -12.5q0 -11 -12 -19t-24 -8q-16 0 -16 19zM198 411q-20 -5 24.5 42.5t103.5 103.5 q10 9 21 2.5t13.5 -18t-4.5 -18.5q-22 -14 -55.5 -42t-59.5 -47t-43 -23z" />
<glyph unicode="&#xfe;" horiz-adv-x="219" d="M-68 -251q0 16 12.5 58t26 80.5t33.5 91.5t25 66q-14 34 19 54q67 207 78 247q0 1 -5.5 1.5t-11 2.5t-5.5 6q0 8 16 14l15 6q12 33 34 98.5t37 107t20 46.5q26 26 37 21q8 -4 -2 -28q-2 -5 -44.5 -123.5t-42.5 -119.5q46 -32 72 -91q16 -36 23.5 -79.5t5.5 -89t-27 -80 t-72 -44.5q-24 -6 -62.5 -0.5t-59.5 23.5q-9 -26 -34 -98.5t-36 -104.5q-1 -2 5 -17.5t-10 -39.5q-16 -29 -33 -32q-13 -3 -14 24zM66 39q53 -33 104 -16q81 29 59 160q-17 85 -51 133q-13 18 -17 11q-44 -140 -73 -225z" />
<glyph unicode="&#xff;" horiz-adv-x="317" d="M-87 -311q0 36 43 109.5t88.5 136.5t46.5 67q11 33 11 90q0 82 -15.5 144t-42.5 62h-8l-6 -1q-4 0 -4 5q0 8 22 24q3 2 17 22t21 20q21 0 37.5 -64.5t16.5 -143.5q0 -8 -0.5 -24t-0.5 -24q0 -16 8 -16q23 0 92.5 106t69.5 135q0 6 -5 6q-2 0 -7 -2t-8 -2q-5 0 -8 5 q0 13 29 29t47 16q5 0 7 -1q3 -5 3 -11q0 -40 -87.5 -161t-140.5 -183q0 5 -2 -1q-15 -60 -18 -66q-5 -10 -9 -11q-4 0 -10.5 2.5t-7.5 2.5q-135 -181 -135 -232q0 -9 4 -18.5t4 -12.5q0 -11 -12 -19t-24 -8q-16 0 -16 19zM140 509q0 14 16.5 29.5t31.5 20t19 -0.5 q0 -12 -7 -37.5t-7 -27.5q0 -18 -32 -25q-10 -1 -15 7t-6 16t0 18zM292 509q0 14 16.5 29.5t31.5 20t19 -0.5q0 -12 -7 -37.5t-7 -27.5q0 -18 -32 -25q-10 -1 -15 7t-6 16t0 18z" />
<glyph unicode="&#x152;" horiz-adv-x="1102" d="M62 248q0 81 33.5 160.5t99.5 140.5q-50 -22 -62 -30q-10 -7 -15 2.5t8 15.5q66 36 107 51q99 95 220 115q78 9 98 -21q13 -23 -20 -68q92 -13 151 -77q6 42 14 73h-16h-21.5h-15.5q-22 1 -22 8q1 11 31 15l11 1h39q6 34 19 47q12 7 33 10t24 -11q-5 -10 -19 -45h295 q23 -1 12 -28q-9 -24 -26 -30q-5 -2 -15 11t-21 14q-17 2 -85 2q-37 -1 -170 1q-34 -116 -54 -274q226 0 286 3q10 1 5 -10q-7 -19 -37 -24h-258q-20 -195 -7 -269q13 0 97.5 -0.5t162.5 -0.5q64 0 115 16q4 1 5 -4q4 -18 -11 -34q-8 -8 -19 -8h-432q-16 0 3 18q16 15 30 18 q-1 14 1 61q-57 -55 -133 -85t-155 -30q-140 0 -213 75t-73 191zM110 262q0 -110 62 -183t183 -73q74 0 158 41.5t126 100.5q13 180 35 337q-24 45 -63.5 73.5t-89.5 35.5q-25 -27 -29 -16q-3 8 8 18q-120 8 -247 -27q-73 -55 -108 -136.5t-35 -170.5zM285 603q89 29 229 14 q14 40 2 50.5t-54 6.5q-46 -5 -95 -25t-82 -46z" />
<glyph unicode="&#x153;" horiz-adv-x="464" d="M25 111q5 27 19 69.5t35.5 91.5t53.5 81.5t64 28.5q0 13 7 18.5t15 -1.5q13 -6 26 -41.5t17 -66.5q4 9 15 28q16 29 38 39.5t56 10.5q19 9 36 -7t24 -51q12 -61 -1 -77t-32.5 -26t-40.5 -13.5t-37.5 -4t-33 0t-18.5 0.5q-58 -151 -18 -168q9 -8 22.5 -3t24.5 11.5 t24.5 20.5t23 25t20 24t15.5 18q4 6 8 6q12 0 3 -23q-17 -31 -57.5 -68t-69.5 -43q-13 -2 -28.5 1t-30.5 17.5t-17 39.5q-40 -49 -83 -64t-68 17t-12 109zM70 102q-16 -88 22 -91q32 -2 75 56q64 93 66 205q-8 4 -19.5 29t-13.5 36q-21 9 -51.5 -40t-51.5 -106t-27 -89z M277 219l18 -1q18 -1 35 -0.5t32 4.5q19 5 25.5 12.5t7.5 28.5q0 10 -3 25q-13 104 -82 -4q-22 -37 -33 -65z" />
<glyph unicode="&#x178;" horiz-adv-x="955" d="M43 274q0 69 50 144.5t123 133t157.5 95t150.5 37.5q45 0 77 -19t32 -61q0 -46 -31.5 -124t-69.5 -149t-69.5 -151.5t-31.5 -129.5q0 -33 23 -33q46 0 145.5 102t177 203t114.5 159t79 154q8 19 25 19q15 0 21 -16t6 -33q0 -101 -91 -313t-169 -343q-32 -54 -74.5 -109 t-97.5 -112t-119 -92.5t-122 -35.5q-54 0 -98 31t-44 82q0 19 7 48t19 32q6 -4 7.5 -15.5t0 -29.5t-1.5 -19q0 -44 37 -68.5t84 -24.5q52 0 108 33.5t106 88.5t85.5 103t66.5 99q36 58 69.5 131.5t53 125t52 144t47.5 131.5q-37 -62 -142.5 -186t-229.5 -236t-181 -112 q-32 0 -32 44q0 56 35 143.5t76.5 164t76.5 161.5t35 138q0 30 -18 39.5t-51 9.5q-65 0 -140.5 -36.5t-137.5 -92.5t-103.5 -129t-41.5 -139q0 -98 99 -98q25 0 47 6.5t41 20.5t29 22.5t25.5 26t16.5 18.5q15 15 15 0q0 -11 -14 -29q-28 -40 -77.5 -66t-98.5 -26 q-58 0 -96 40t-38 98zM720 774q0 14 16.5 29.5t31.5 20t19 -0.5q0 -12 -7 -37.5t-7 -27.5q0 -18 -32 -25q-10 -1 -15 7t-6 16t0 18zM872 774q0 14 16.5 29.5t31.5 20t19 -0.5q0 -12 -7 -37.5t-7 -27.5q0 -18 -32 -25q-10 -1 -15 7t-6 16t0 18z" />
<glyph unicode="&#x2c6;" horiz-adv-x="370" d="M116 510q10 12 63 61.5t62 51.5q5 -2 34 -47.5t38 -62.5q5 -11 -2 -14q-2 -1 -5 1q-13 11 -40.5 41t-37.5 45q-13 -12 -56 -46.5t-52 -39.5q-8 -4 -8 1q0 3 4 9z" />
<glyph unicode="&#x2dc;" horiz-adv-x="272" d="M177 494q0 7 16.5 21.5t26.5 19.5q16 10 36 10q17 0 48 -10.5t47 -10.5q24 0 42 21q6 0 6 -4q0 -7 -14.5 -21t-25.5 -21q-13 -8 -27 -8q-18 0 -50 13.5t-49 13.5t-33.5 -13t-21.5 -13q-1 1 -1 2z" />
<glyph unicode="&#x2000;" horiz-adv-x="425" />
<glyph unicode="&#x2001;" horiz-adv-x="850" />
<glyph unicode="&#x2002;" horiz-adv-x="425" />
<glyph unicode="&#x2003;" horiz-adv-x="850" />
<glyph unicode="&#x2004;" horiz-adv-x="283" />
<glyph unicode="&#x2005;" horiz-adv-x="212" />
<glyph unicode="&#x2006;" horiz-adv-x="141" />
<glyph unicode="&#x2007;" horiz-adv-x="141" />
<glyph unicode="&#x2008;" horiz-adv-x="106" />
<glyph unicode="&#x2009;" horiz-adv-x="170" />
<glyph unicode="&#x200a;" horiz-adv-x="47" />
<glyph unicode="&#x2010;" horiz-adv-x="289" d="M28 124q-10 10 1 24t24 20q27 12 26 0q0 -6 -5 -11q97 -6 167 -1q19 1 18 -6q-1 -5 -12 -8q-28 -9 -94 -15.5t-106 -4.5q-15 0 -19 2z" />
<glyph unicode="&#x2011;" horiz-adv-x="289" d="M28 124q-10 10 1 24t24 20q27 12 26 0q0 -6 -5 -11q97 -6 167 -1q19 1 18 -6q-1 -5 -12 -8q-28 -9 -94 -15.5t-106 -4.5q-15 0 -19 2z" />
<glyph unicode="&#x2012;" horiz-adv-x="289" d="M28 124q-10 10 1 24t24 20q27 12 26 0q0 -6 -5 -11q97 -6 167 -1q19 1 18 -6q-1 -5 -12 -8q-28 -9 -94 -15.5t-106 -4.5q-15 0 -19 2z" />
<glyph unicode="&#x2013;" horiz-adv-x="397" d="M37 138q-10 0 -12 7.5t3 15t11 7.5h79q147 0 223 -4q78 -3 95 -12q13 -7 -5 -12q-9 -2 -27 -2h-367z" />
<glyph unicode="&#x2014;" horiz-adv-x="606" d="M37 138q-10 0 -12 7.5t3 15t11 7.5h79q295 0 371 -4q78 -3 95 -12q13 -7 -5 -12q-9 -2 -27 -2h-515z" />
<glyph unicode="&#x2018;" horiz-adv-x="221" d="M50 410q-7 21 -8 31t4 18t6 10q29 94 108 153q40 30 51 23q1 -1 1 -4h-1q-41 -42 -77 -94t-20 -66q10 -12 8.5 -28.5t-14.5 -26.5l-1 -1q-2 -2 -5 -4.5t-11 -7.5t-15 -8t-14.5 -2.5t-11.5 7.5z" />
<glyph unicode="&#x2019;" horiz-adv-x="209" d="M137 334v1q41 41 76.5 92.5t19.5 67.5q-11 11 -8.5 27.5t15.5 26.5l1 1h1q2 2 5 4.5t11 7.5t15 8t14 2t11 -8q7 -21 7.5 -30.5t-4.5 -17.5t-6 -10l1 -1q-31 -93 -109 -152q-39 -30 -49 -23q-2 1 -1 4z" />
<glyph unicode="&#x201a;" horiz-adv-x="255" d="M68 1v1q41 41 76.5 92.5t19.5 67.5t-3.5 39.5t34.5 31.5t34 -2q5 -16 6 -28t-0.5 -17t-5.5 -12t-5 -10q-29 -83 -107 -143q-41 -32 -49 -23v3z" />
<glyph unicode="&#x201c;" horiz-adv-x="275" d="M50 410q-7 21 -8 31t4 18t6 10q29 94 108 153q40 30 51 23q1 -1 1 -4h-1q-41 -42 -77 -94t-20 -66q10 -12 8.5 -28.5t-14.5 -26.5l-1 -1q-2 -2 -5 -4.5t-11 -7.5t-15 -8t-14.5 -2.5t-11.5 7.5zM182 419q-6 16 -7 27t0.5 14.5t4.5 8t4 8.5q30 95 109 154q39 29 49 22 q2 -1 1 -4q-41 -42 -77 -94t-20 -66q10 -12 8.5 -28.5t-14.5 -26.5h-1l-1 -1v1q-2 -2 -5 -4.5t-11 -7.5t-15 -8t-14 -2.5t-11 7.5z" />
<glyph unicode="&#x201d;" horiz-adv-x="406" d="M89 401h1q41 41 77 92.5t19 68.5q-11 11 -8.5 27.5t15.5 26.5l1 1v-1q2 2 5 4.5t11 7.5t15 8t14.5 2.5t11.5 -7.5q7 -21 7.5 -30.5t-4.5 -17.5t-6 -10l1 -1q-31 -94 -109 -152q-40 -30 -50 -23q-1 1 -1 4zM220 409q23 23 47.5 53t42.5 63t7 44v1q-11 12 -8.5 28t14.5 26 l2 1q2 2 5 4.5t11 7.5t15 8t14 2t11 -8q7 -21 7.5 -31t-4 -17t-5.5 -10v-1q-31 -93 -109 -152q-39 -30 -49 -23q-2 1 -1 4z" />
<glyph unicode="&#x201e;" horiz-adv-x="447" d="M68 1v1q41 41 76.5 92.5t19.5 67.5t-3.5 39.5t34.5 31.5t34 -2q5 -16 6 -28t-0.5 -17t-5.5 -12t-5 -10q-29 -83 -107 -143q-41 -32 -49 -23v3zM235 1v1q41 41 76.5 92.5t19.5 67.5t-3.5 39.5t34.5 31.5t34 -2q5 -16 6 -28t-0.5 -17t-5.5 -12t-5 -10q-29 -83 -107 -143 q-41 -32 -49 -23v3z" />
<glyph unicode="&#x2022;" horiz-adv-x="537" d="M54 236q0 90 63.5 153.5t152.5 63.5q90 0 153.5 -63.5t63.5 -152.5q0 -90 -63.5 -153.5t-152.5 -63.5q-90 0 -153.5 63.5t-63.5 152.5z" />
<glyph unicode="&#x2026;" horiz-adv-x="685" d="M113 26q0 13 15.5 27t31 20.5t17.5 1.5q-2 -8 -5.5 -23t-6 -26.5t-2.5 -14.5q-3 -17 -30 -24q-9 -1 -13.5 6t-5.5 14.5t-1 18.5zM321 26q0 13 15.5 27t31 20.5t17.5 1.5q-2 -8 -5.5 -23t-6 -26.5t-2.5 -14.5q-3 -17 -30 -24q-9 -1 -13.5 6t-5.5 14.5t-1 18.5zM529 24 q0 13 15.5 27t31 20.5t16.5 1.5q-2 -8 -5.5 -23t-6 -26.5t-2.5 -14.5q-3 -17 -29 -24q-9 -1 -13.5 6t-5.5 14.5t-1 18.5z" />
<glyph unicode="&#x202f;" horiz-adv-x="170" />
<glyph unicode="&#x2039;" horiz-adv-x="324" d="M14 259q1 26 8 29q231 181 273 221q5 5 6 -5q1 -26 -10 -52q-2 -4 -4 -5q-187 -135 -230 -178q18 -34 76 -115.5t62 -88.5q3 -5 0 -25.5t-6 -30.5q-7 -20 -14 -3q-1 2 -3 7q-4 12 -7 17q-12 22 -45.5 71t-36.5 54q-13 20 -29.5 44.5t-26.5 39t-13 20.5z" />
<glyph unicode="&#x203a;" horiz-adv-x="371" d="M70 -8q-5 -5 -6 5q-1 26 10 52q2 4 4 5q187 135 230 178q-18 34 -76 115.5t-62 88.5q-3 5 0 25.5t6 30.5q7 20 14 3q1 -2 3 -7q4 -12 7 -17q12 -22 45.5 -71t36.5 -54q13 -20 29.5 -44.5t26.5 -39t13 -20.5q-1 -26 -8 -29q-231 -181 -273 -221z" />
<glyph unicode="&#x205f;" horiz-adv-x="212" />
<glyph unicode="&#x20ac;" horiz-adv-x="684" d="M24 216q-10 0 -12 7.5t3 14.5t11 7q12 -1 42.5 0t36.5 1h23v12q-2 61 10 114h-72q-10 0 -12 7.5t3 14.5t11 7q12 -1 42 0t36 1q32 114 115.5 185t203.5 71q132 0 177 -47q10 -10 6 -47q-3 -10 -6 -9q-10 16 -26.5 31t-57 31t-91.5 16q-98 0 -169 -64.5t-101 -166.5 q147 -2 173 -4q78 -3 95 -12q13 -7 -5 -12q-9 -2 -27 -2h-244q-11 -51 -11 -111v-16q27 0 62.5 -1t59 -1.5t28.5 -0.5q78 -3 95 -12q13 -7 -5 -12q-9 -2 -27 -2h-211q11 -94 65.5 -151.5t150.5 -57.5q50 0 94 14t73 36t46.5 40t28.5 35q9 13 10 -3q1 -30 -16 -51 q-36 -50 -100 -72t-131 -22q-118 0 -187 61t-83 171h-107z" />
<glyph unicode="&#x2122;" horiz-adv-x="656" d="M27 613q8 13 120.5 21.5t167.5 8.5q22 0 22 -8q0 -10 -34.5 -15t-72 -10t-43.5 -16q-12 -23 -24.5 -57t-25.5 -78t-19 -61q-19 -56 -26 -67q-6 -9 -21 -9q-18 0 -18 13q0 10 18 55t42 101l27 63q12 36 12 42q0 9 -28 9q-12 0 -36 -2.5t-36 -2.5q-21 0 -25 13zM254 335 q0 4 18.5 50.5t39.5 99t25 64.5q1 4 2.5 28.5t7.5 40t19 15.5q9 0 13 -22q1 -2 9.5 -64.5t23 -100.5t39.5 -38q22 0 62 54t72.5 108t36.5 54q12 0 12 -27q0 -10 -6 -37t-7 -34q0 -4 -2.5 -49.5t-5.5 -80t-6 -39.5q-10 -17 -35 -17q-11 0 -11 9q0 6 1 8q8 30 17.5 86.5 t14.5 78.5q-104 -135 -153 -135q-52 0 -89 135q-11 -24 -28 -89t-32 -89q-10 -16 -27 -16q-11 0 -11 7z" />
<glyph unicode="&#xe000;" horiz-adv-x="385" d="M0 0v385h385v-385h-385z" />
<glyph unicode="&#xfb01;" horiz-adv-x="402" d="M-164 -184q-28 38 -10 102q9 31 18 31q3 0 5 -6q-5 -41 3.5 -73t26 -45t38.5 -11.5t45 28.5t42 74q28 70 74 219t59 200h-65q-26 0 -24 10q3 12 24 20q6 2 9 2h64q24 86 59 182q21 58 59.5 85t99.5 27q60 0 85.5 -45t16.5 -83q-4 -16 -13.5 -28t-18.5 -14l-5 -1 q-4 -2 -7.5 -3t-8.5 -1t-9 3t-6 9q-4 11 4.5 31t17.5 35t6 16q-3 18 -25.5 39t-47.5 21q-23 0 -41 -8t-30.5 -25.5t-18.5 -29t-14 -32.5q-21 -53 -58 -179q5 0 27.5 -1t38.5 0t29 5q21 7 19 0q-2 -10 -24 -21l-8 -3q-26 -7 -90 -7q-4 -10 -46.5 -156t-59.5 -199 q-22 -68 -52.5 -112t-59.5 -59.5t-57 -18t-46 4.5t-25 17zM251 33q23 67 68 206q6 17 3 25t1 19q18 50 28 69q7 14 25.5 24.5t32.5 11t18 -8.5q-2 -3 -13.5 -25t-19.5 -38t-22 -47t-25 -59t-23 -67t-21 -78q-5 -22 12 -20q12 3 32 16q33 25 40 10q0 -6 -10.5 -14.5t-29 -20 t-27.5 -19.5q-30 -25 -57 -23q-25 2 -12 39z" />
<glyph unicode="&#xfb02;" horiz-adv-x="426" d="M-164 -184q-28 38 -10 102q9 31 18 31q3 0 5 -6q-5 -41 3.5 -73t26 -45t38.5 -11.5t45 28.5t42 74q28 70 74 219t59 200h-65q-26 0 -24 10q3 12 24 20q6 2 9 2h64q47 167 66 208q19 42 35.5 57.5t50.5 24.5q36 8 102.5 1t102.5 -21q23 -9 7 -25q-54 -114 -108.5 -271.5 t-81.5 -275.5q-4 -21 11 -20q12 1 33 16q32 24 40 10q0 -6 -10.5 -14.5t-28.5 -20t-27 -19.5q-30 -25 -56.5 -23.5t-13.5 39.5q35 97 73 222q100 320 108 348q-12 15 -44 26t-74 11q-47 0 -69 -56q-46 -118 -71 -218q5 0 27.5 -1t38.5 0t29 5q21 7 19 0q-2 -10 -24 -21 l-8 -3q-26 -7 -90 -7q-4 -10 -46.5 -156t-59.5 -199q-22 -68 -52.5 -112t-59.5 -59.5t-57 -18t-46 4.5t-25 17z" />
</font>
</defs>
</svg>
