<?xml version="1.0" standalone="no"?>
<!DOCTYPE svg PUBLIC "-//W3C//DTD SVG 1.1//EN" "http://www.w3.org/Graphics/SVG/1.1/DTD/svg11.dtd" >
<svg xmlns="http://www.w3.org/2000/svg">
<metadata></metadata>
<defs>
<font id="bpreplaybold_italic" horiz-adv-x="625" >
<font-face units-per-em="1000" ascent="800" descent="-200" />
<missing-glyph horiz-adv-x="283" />
<glyph horiz-adv-x="1000" />
<glyph horiz-adv-x="1000" />
<glyph unicode="&#xd;" horiz-adv-x="1000" />
<glyph unicode=" "  horiz-adv-x="283" />
<glyph unicode="&#x09;" horiz-adv-x="283" />
<glyph unicode="&#xa0;" horiz-adv-x="283" />
<glyph unicode="!" horiz-adv-x="208" d="M-32 80q4 43 32 70.5t66 27.5q36 0 58.5 -23t22.5 -57q-4 -44 -32 -71t-67 -27q-34 0 -57 23t-23 57zM4 310q0 10 39 380q9 83 85 83q69 0 69 -66q0 -11 -39 -381q-9 -78 -86 -78q-68 0 -68 62z" />
<glyph unicode="&#x22;" horiz-adv-x="407" d="M21 546q0 2 2 21q6 53 13 124q9 83 87 83q68 0 68 -66q0 -11 -14 -148q-9 -79 -86 -79q-70 0 -70 65zM215 546q0 2 2 22q2 14 3 25t4 38.5t6 59.5q9 83 87 83q71 0 71 -67q0 -11 -14 -147q-9 -79 -89 -79q-70 0 -70 65z" />
<glyph unicode="#" horiz-adv-x="663" d="M5 263q4 43 31.5 64t59.5 21h32q7 18 17 55h-16q-71 0 -71 61q0 41 23.5 63.5t62.5 22.5h34q4 20 36 149q19 73 80 73q29 0 49 -20t20 -48l-36 -154h34l37 150q18 73 81 73q28 0 46.5 -19t18.5 -48l-34 -156h12q30 0 51 -16t21 -48q-9 -83 -92 -83h-26q-8 -19 -16 -55h13 q69 0 69 -62q0 -38 -26 -63t-62 -25h-31l-30 -117q-21 -81 -90 -81q-60 0 -60 56q0 16 3 22l30 120h-36l-29 -116q-21 -82 -90 -82q-60 0 -60 55q0 2 0.5 6.5t0.5 6.5q0 4 31 130h-11q-77 0 -77 65zM276 348h36l15 55h-36z" />
<glyph unicode="$" horiz-adv-x="544" d="M-21 112q4 46 25 66.5t61 20.5q30 0 58 -17q29 -20 63 -26l20 189q-38 19 -64 35t-54 41t-42 57.5t-14 71.5q0 92 66.5 161.5t154.5 85.5l3 26q4 37 13 50t42 13q24 0 32.5 -8t8.5 -27q0 -6 -1.5 -18.5t-1.5 -17.5l-2 -21q64 -12 113 -52q38 -30 38 -68q0 -36 -27 -65 t-62 -29q-32 0 -60 25l-20 14l-15 -136q93 -48 138 -93.5t45 -118.5q0 -105 -67 -180t-167 -96l-4 -42q-3 -34 -12.5 -46.5t-41.5 -12.5q-25 0 -33.5 8t-8.5 27q0 7 2 31l3 29q-85 8 -151 54q-38 26 -38 69zM201 571q0 -24 24 -43l11 100q-31 -12 -35 -51v-6zM281 171 q39 23 45 69q0 34 -31 56z" />
<glyph unicode="%" horiz-adv-x="948" d="M41 543q0 95 63.5 162t152.5 67q80 0 126 -53t46 -131q0 -96 -63 -165t-153 -69q-79 0 -125.5 55t-46.5 134zM191 550q0 -24 9 -40.5t27 -16.5q28 0 41.5 26.5t13.5 55.5q0 24 -10.5 40.5t-29.5 16.5q-26 0 -38.5 -27t-12.5 -55zM238 51q0 25 10 41l307 621q27 55 81 55 q29 0 47 -18.5t18 -46.5q-2 -27 -14 -49l-315 -626q-5 -14 -25.5 -28t-47.5 -14q-26 0 -43.5 18t-17.5 47zM514 184q0 98 63 166t154 68q79 0 124 -53t45 -131q0 -95 -60 -164.5t-152 -69.5q-82 0 -128 52t-46 132zM663 195q0 -24 10 -40t29 -16q27 0 39.5 26.5t12.5 53.5 q0 24 -9.5 41t-27.5 17q-22 0 -36.5 -22.5t-17.5 -59.5z" />
<glyph unicode="&#x26;" horiz-adv-x="760" d="M3 199q0 148 160 265q-31 50 -31 102q0 86 60 146t142 60q64 0 108.5 -40t44.5 -115q0 -94 -93 -181l86 -111l25 37q38 56 88 56q31 0 49.5 -18t18.5 -47q-3 -37 -28 -74l-61 -78l52 -68q14 -17 14 -41q-4 -40 -29 -66t-57 -26q-34 0 -50 16l-47 56q-93 -91 -209 -91 q-114 0 -178.5 60.5t-64.5 157.5zM159 221q0 -38 30.5 -63t72.5 -25q58 0 110 56l-124 155q-84 -63 -89 -123zM280 593q0 -34 22 -67q40 40 43 78q0 15 -8 23t-20 8q-18 0 -27.5 -12.5t-9.5 -29.5z" />
<glyph unicode="'" horiz-adv-x="255" d="M18 543q2 20 7 33l70 137q31 61 88 61q30 0 51 -21t21 -52q0 -26 -12 -45l-70 -131q-29 -50 -82 -50q-30 0 -51.5 19.5t-21.5 48.5z" />
<glyph unicode="(" horiz-adv-x="289" d="M-3 278q0 272 182 460q32 24 61 24q28 0 46.5 -20t18.5 -53q-3 -30 -27 -54q-130 -138 -130 -341q0 -150 73 -237q12 -19 12 -52q-3 -32 -26 -52t-54 -20q-35 0 -56 25q-100 113 -100 320z" />
<glyph unicode=")" horiz-adv-x="289" d="M-38 5q4 28 22 52q65 60 100.5 152t35.5 193q0 138 -69 233q-17 23 -17 54q3 30 28 51.5t55 21.5q28 0 49 -20q107 -130 107 -317q0 -130 -46 -256.5t-138 -210.5q-26 -25 -61 -25q-29 0 -47.5 19t-18.5 53z" />
<glyph unicode="*" d="M149 470q0 32 35 65l23 12l-22 16q-21 20 -21 48q3 33 26 55.5t53 22.5q5 0 14.5 -2t10.5 -2l24 -16v5q0 32 22 58t56 26q23 0 42 -18t19 -59v-12l11 7q18 12 42 12t43 -19t19 -45q-3 -42 -42 -70l-15 -7q43 -19 43 -62q-3 -32 -26 -54.5t-52 -22.5q-12 0 -48 16l-1 -11 q-4 -35 -27 -55t-52 -20q-27 0 -45.5 17.5t-19.5 49.5l2 20q-35 -18 -50 -18q-26 0 -45 18t-19 45z" />
<glyph unicode="+" d="M31 289q4 38 29.5 59.5t63.5 21.5h118l13 117q4 38 28 60.5t61 22.5q32 0 52.5 -21t20.5 -52q0 -1 -1 -11t-2 -19.5t-4 -36.5t-7 -60h118q38 0 59.5 -19.5t21.5 -51.5q0 -43 -28 -68t-70 -25h-118l-13 -124q-4 -34 -28.5 -58t-58.5 -24q-36 0 -55.5 19t-19.5 52q0 2 1 12 q5 46 13 123h-118q-43 0 -59.5 20.5t-16.5 62.5z" />
<glyph unicode="," horiz-adv-x="254" d="M-44 -51q1 16 8 32v1l1 2l75 145q30 56 84 56q29 0 49 -20t20 -48q-1 -11 -9 -36l-83 -155q-29 -48 -75 -48q-29 0 -49.5 21t-20.5 50z" />
<glyph unicode="-" horiz-adv-x="391" d="M0 276q0 40 27 67t65 27h183q76 0 76 -67q0 -43 -25.5 -66.5t-66.5 -23.5h-183q-76 0 -76 63z" />
<glyph unicode="." horiz-adv-x="245" d="M-2 80q4 43 32 70.5t66 27.5q36 0 58.5 -23t22.5 -57q-4 -44 -32 -71t-67 -27q-34 0 -57 23t-23 57z" />
<glyph unicode="/" d="M101 51q0 25 10 41l305 621q30 55 83 55q29 0 46.5 -19t17.5 -46q-3 -30 -13 -49l-315 -626q-5 -14 -25.5 -28t-47.5 -14q-26 0 -43.5 18t-17.5 47z" />
<glyph unicode="0" horiz-adv-x="582" d="M-10 310q0 76 18.5 153t54.5 147t97.5 115t138.5 47h4q61 0 105.5 -28t69 -76t36 -102t11.5 -115q0 -73 -18.5 -150.5t-54 -148.5t-97 -117t-137.5 -46q-63 0 -109 28t-71 75.5t-36.5 101.5t-11.5 116zM154 324q0 -73 19.5 -125t61.5 -52q33 0 59 33t40 81.5t21 94.5 t7 80q0 73 -18.5 124.5t-58.5 51.5q-34 0 -61 -32.5t-41.5 -80.5t-21.5 -93.5t-7 -81.5z" />
<glyph unicode="1" horiz-adv-x="404" d="M-7 621q0 32 21.5 56t53.5 33l151 40q30 -2 49.5 -21t19.5 -47q0 -14 -61 -599q-4 -36 -28 -59.5t-60 -23.5q-34 0 -54 20t-20 52q0 1 3 26q16 156 49 470q-33 -12 -55 -12q-29 0 -49 18t-20 47z" />
<glyph unicode="2" horiz-adv-x="585" d="M1 64q0 39 29 72l277 329q34 42 39 86q0 28 -18.5 44t-45.5 16q-29 0 -52 -19.5t-27 -54.5q-4 -31 -28 -59.5t-60 -28.5q-35 0 -54 25.5t-19 57.5q11 107 88 172t171 65q84 0 146.5 -53t62.5 -136q0 -108 -95 -219q-155 -180 -176 -205h161q69 0 69 -63q0 -41 -23 -66 t-63 -27h-296q-86 0 -86 64z" />
<glyph unicode="3" horiz-adv-x="570" d="M-5 163q0 38 24 66t60 28q22 0 42 -13.5t27 -36.5q19 -58 69 -58q34 0 61.5 22t31.5 60q0 36 -13.5 64t-43.5 33h-33q-40 0 -59 13t-19 43q0 78 94 78q19 0 29 2q20 6 35 33t17 53q0 66 -56 66q-57 0 -70 -50q-3 -16 -19.5 -35t-48.5 -19q-76 0 -76 60q0 84 75 142 t160 58q89 0 143 -56t54 -133q0 -55 -29.5 -101t-76.5 -75q97 -56 97 -165q0 -106 -83 -179.5t-186 -73.5q-62 0 -110.5 28t-74.5 71q-21 34 -21 75z" />
<glyph unicode="4" horiz-adv-x="601" d="M-24 243q0 38 29 72l269 371q46 64 112 64q41 0 66.5 -25.5t25.5 -69.5q0 -10 -34 -331q67 0 67 -63q0 -42 -22.5 -67t-60.5 -25l-8 -83q-9 -86 -89 -86q-34 0 -52.5 18t-18.5 53q0 10 9 97h-210q-40 0 -61.5 21.5t-21.5 53.5zM193 324h93l16 161z" />
<glyph unicode="5" horiz-adv-x="595" d="M-10 139q4 40 27.5 62t53.5 22q39 0 59 -34q13 -19 39.5 -31.5t53.5 -12.5q43 0 74 31.5t36 73.5q0 47 -22.5 76.5t-67.5 29.5q-17 0 -46.5 -7.5t-44.5 -7.5q-73 0 -73 64q0 8 0.5 13.5t2.5 13t7.5 25.5t13 41.5t21.5 71.5t30 105q10 34 36.5 53.5t64.5 19.5h210 q33 0 51.5 -20.5t18.5 -51.5q0 -40 -24 -64.5t-63 -24.5h-166q-3 -13 -20 -77q116 0 175.5 -63.5t59.5 -158.5q0 -123 -87.5 -211t-207.5 -88q-88 0 -150 48.5t-62 101.5z" />
<glyph unicode="6" horiz-adv-x="576" d="M-1 233q0 245 289 493q33 24 62 24q33 0 53.5 -18.5t20.5 -51.5v-10q-3 -30 -30 -54q-3 -3 -29.5 -24t-36 -29.5t-29 -27t-32.5 -35.5t-23 -36q30 15 83 15q83 0 126 -55t43 -136q0 -120 -83 -209.5t-196 -89.5q-106 0 -162 69.5t-56 174.5zM157 242q0 -40 20.5 -68.5 t56.5 -29.5q42 4 70.5 37t33.5 76q0 45 -20.5 73.5t-63.5 28.5q-45 0 -71 -36t-26 -81z" />
<glyph unicode="7" horiz-adv-x="554" d="M11 654q0 46 26 70.5t69 24.5h315q32 0 54.5 -21t22.5 -54q0 -20 -14 -52l-295 -559q-33 -63 -90 -63q-35 0 -51.5 19.5t-16.5 48.5q0 26 14 52l249 467h-205q-78 0 -78 67z" />
<glyph unicode="8" horiz-adv-x="579" d="M-3 206q0 64 33.5 120t88.5 86q-29 19 -45.5 54t-16.5 75q0 94 75 160.5t167 66.5q86 0 139.5 -51t53.5 -133q0 -52 -26 -96t-67 -70q36 -18 61.5 -66t25.5 -99q0 -106 -83 -185t-185 -79q-100 0 -160.5 60.5t-60.5 156.5zM163 226q0 -34 19.5 -55.5t52.5 -21.5 q38 0 63 31.5t25 68.5q0 35 -19.5 58t-49.5 23q-40 0 -65.5 -32.5t-25.5 -71.5zM217 543q0 -25 13 -41.5t37 -16.5q23 0 40.5 21t20.5 48q0 29 -13 43.5t-33 14.5q-29 0 -47 -20.5t-18 -48.5z" />
<glyph unicode="9" horiz-adv-x="570" d="M-9 478q0 122 84.5 207.5t200.5 85.5q104 0 162.5 -68.5t58.5 -178.5q0 -151 -86.5 -285.5t-218.5 -235.5q-26 -19 -57 -19q-30 0 -49.5 19t-19.5 47q5 48 41 75q112 84 170 159q-50 -17 -95 -17q-90 0 -140.5 63t-50.5 148zM150 484q0 -44 23.5 -69t58.5 -25q50 0 80 38 t30 87q0 41 -22 69.5t-65 28.5q-48 0 -76.5 -41t-28.5 -88z" />
<glyph unicode=":" horiz-adv-x="207" d="M-32 80q4 43 32 70.5t66 27.5q36 0 58.5 -23t22.5 -57q-4 -44 -32 -71t-67 -27q-34 0 -57 23t-23 57zM0 389q0 39 29 69.5t70 30.5q35 0 58 -22t23 -56q0 -39 -29.5 -69t-70.5 -30q-34 0 -57 22t-23 55z" />
<glyph unicode=";" horiz-adv-x="254" d="M-44 -51q1 16 8 32v1l1 2l75 145q30 56 84 56q29 0 49 -20t20 -48q-1 -11 -9 -36l-83 -155q-29 -48 -75 -48q-29 0 -49.5 21t-20.5 50zM49 389q0 39 29 69.5t70 30.5q35 0 57.5 -22t22.5 -56q0 -39 -29 -69t-70 -30q-34 0 -57 22t-23 55z" />
<glyph unicode="&#x3c;" horiz-adv-x="651" d="M26 286q5 60 65 87l427 189h1q1 1 2 1q28 10 46 10q29 0 46.5 -18.5t17.5 -46.5q-5 -59 -62 -85l-319 -127l286 -136q51 -23 51 -68q0 -37 -25 -64t-60 -27q-26 0 -54 14l-374 197q-48 26 -48 74z" />
<glyph unicode="=" horiz-adv-x="659" d="M17 145q0 41 23.5 66t62.5 25h419q69 0 69 -63q0 -42 -22 -67t-63 -25h-419q-70 0 -70 64zM42 379q0 42 23.5 66.5t62.5 24.5h419q69 0 69 -64q0 -41 -23 -65.5t-62 -24.5h-419q-70 0 -70 63z" />
<glyph unicode="&#x3e;" horiz-adv-x="651" d="M6 66q5 57 68 87q57 26 156.5 67t162.5 70l-299 133q-47 24 -47 66q0 35 23.5 59.5t57.5 24.5q15 0 48 -11l385 -189q49 -25 49 -69q0 -29 -18.5 -53.5t-46.5 -38.5l-417 -197q-31 -14 -55 -14q-32 0 -49.5 18t-17.5 47z" />
<glyph unicode="?" horiz-adv-x="490" d="M33 549q0 82 67.5 141.5t154.5 59.5q77 0 129 -46.5t52 -130.5q0 -35 -13 -72t-29.5 -65t-49.5 -65t-53 -57t-59 -57q-31 -24 -59 -24q-32 0 -50.5 18.5t-18.5 48.5q0 34 39 75q67 61 99 99t35 72v6q0 21 -12 31.5t-30 10.5q-17 0 -31 -12t-16 -29q-8 -36 -32 -56.5 t-54 -20.5q-28 0 -48.5 19t-20.5 54zM70 80q4 43 32 70.5t66 27.5q34 0 56.5 -23t22.5 -57q-4 -43 -31.5 -70.5t-65.5 -27.5q-35 0 -57.5 23t-22.5 57z" />
<glyph unicode="@" horiz-adv-x="833" d="M51 313q0 192 115.5 324.5t298.5 132.5q139 0 226 -75t87 -208q0 -44 -11 -95t-31 -100.5t-56 -82t-80 -32.5q-54 0 -94 57q-56 -56 -122 -56q-73 0 -111 47.5t-38 117.5q0 92 55.5 164.5t142.5 72.5q53 0 93 -44q9 43 37 43q30 0 30 -33q0 -43 -11.5 -124.5 t-11.5 -120.5q0 -57 34 -57q29 0 51.5 27t33.5 66t16.5 74t5.5 60q0 108 -67.5 171t-176.5 63q-104 0 -184.5 -57.5t-120 -143.5t-39.5 -182q0 -122 74 -195.5t189 -73.5q166 0 252 86q21 20 39 20q25 0 25 -22q-2 -25 -16 -39q-111 -111 -292 -111q-142 0 -242.5 89.5 t-100.5 236.5zM307 352q0 -45 23 -75t69 -30q60 0 96 51l18 174q-33 40 -75 40q-60 0 -95.5 -50.5t-35.5 -109.5z" />
<glyph unicode="A" horiz-adv-x="680" d="M-21 67q0 19 10 45l273 594q33 71 104 71q72 0 90 -71q157 -605 157 -626q-4 -36 -26.5 -58t-59.5 -22q-58 0 -72 51l-26 90h-255q-30 -65 -35 -75q-29 -66 -91 -66q-35 0 -52 19t-17 48zM244 303h142q-9 39 -22.5 92t-26.5 106z" />
<glyph unicode="B" horiz-adv-x="605" d="M-24 77q0 9 64 610q9 90 93 90h182q36 0 73.5 -10.5t72 -31.5t56 -58.5t21.5 -85.5q0 -49 -34.5 -100.5t-75.5 -57.5q55 -8 92 -63t37 -116q0 -105 -83 -179.5t-185 -74.5h-221q-47 0 -69.5 17.5t-22.5 59.5zM145 160h151q44 0 72 25t31 60q0 44 -28.5 72t-86.5 28h-119z M178 470h117q38 0 60.5 20.5t25.5 49.5q0 34 -20 55.5t-59 21.5h-109z" />
<glyph unicode="C" horiz-adv-x="712" d="M9 338q0 121 51 226.5t147 171.5t215 66q132 0 219 -87q24 -25 24 -60q-4 -43 -29 -67t-59 -24q-38 0 -59 24q-41 47 -117 47q-70 0 -122.5 -44t-76 -104.5t-23.5 -123.5q0 -86 44.5 -144t128.5 -58q78 0 125 43q27 24 57 24q37 0 55 -19.5t18 -50.5q0 -49 -38 -80 q-109 -89 -238 -89q-156 0 -239 101t-83 248z" />
<glyph unicode="D" horiz-adv-x="660" d="M-22 60q0 15 65 627q9 90 109 90h183q92 0 158 -49t96 -124t30 -166q0 -111 -48.5 -211t-138 -163.5t-197.5 -63.5h-179q-44 0 -61 11.5t-17 48.5zM148 160h99q65 4 113.5 46t70.5 98.5t22 117.5q0 84 -37 139.5t-108 55.5h-112z" />
<glyph unicode="E" horiz-adv-x="495" d="M-17 54q0 11 65 636q9 87 93 87h282q73 0 73 -64q0 -45 -24.5 -70.5t-65.5 -25.5h-206l-14 -135h161q73 0 73 -67q0 -43 -24.5 -68t-65.5 -25h-161l-17 -162h213q79 0 79 -66q0 -45 -26.5 -69.5t-68.5 -24.5h-289q-45 0 -61 11t-16 43z" />
<glyph unicode="F" horiz-adv-x="444" d="M-29 62q0 2 4 40q22 206 62 585q9 90 93 90h273q74 0 74 -64q0 -45 -25 -70.5t-66 -25.5h-196l-16 -152h138q72 0 72 -65q0 -45 -24 -70.5t-65 -25.5h-138l-24 -231q-8 -73 -88 -73q-74 0 -74 62z" />
<glyph unicode="G" horiz-adv-x="722" d="M10 327q0 122 48.5 230.5t143.5 178.5t216 70q90 0 166.5 -44t76.5 -107q0 -36 -23 -62.5t-57 -26.5q-33 0 -58 26q-48 48 -125 48q-54 0 -98 -28.5t-69 -73t-38.5 -94t-13.5 -96.5q0 -83 41.5 -139t119.5 -56q68 0 112 39t59 111h-145q-79 0 -79 66q0 45 28 70t71 25 h201q53 0 73.5 -24.5t20.5 -67.5q0 -163 -101.5 -273t-260.5 -110q-151 0 -230 97t-79 241z" />
<glyph unicode="H" horiz-adv-x="679" d="M-21 64q0 11 66 634q9 81 86 81q74 0 74 -65q0 -11 -25 -239h290l24 223q9 81 88 81q74 0 74 -66q0 -10 -66 -633q-9 -80 -89 -80q-73 0 -73 65q0 10 26 249h-290l-25 -234q-9 -80 -88 -80q-72 0 -72 64z" />
<glyph unicode="I" horiz-adv-x="204" d="M-37 66q0 10 66 632q9 81 88 81q74 0 74 -66q0 -10 -66 -632q-9 -81 -89 -81q-73 0 -73 66z" />
<glyph unicode="J" horiz-adv-x="452" d="M-27 96q0 41 23.5 66.5t63.5 25.5q22 0 62 -29q19 -14 41 -14q37 0 42 39l54 514q9 81 88 81q75 0 75 -66q0 -10 -55 -529q-10 -90 -71 -143t-151 -53q-92 0 -150 58q-22 20 -22 50z" />
<glyph unicode="K" horiz-adv-x="591" d="M-24 64q0 2 6 55q24 224 62 586q7 74 86 74q75 0 75 -62q0 -2 -2 -22q-9 -81 -22 -208l271 267q20 23 57 23q30 0 52.5 -23t22.5 -52q-3 -43 -28 -64q-30 -30 -91.5 -89t-101.5 -99l160 -317q15 -18 15 -53q-4 -35 -36 -58t-54 -23q-23 0 -36.5 8.5t-29.5 28.5l-149 293 l-77 -74l-19 -179q-8 -76 -86 -76q-75 0 -75 64z" />
<glyph unicode="L" horiz-adv-x="508" d="M-24 80q0 12 64 618q9 81 87 81q74 0 74 -65q0 -11 -58 -554h251q74 0 74 -66q0 -44 -24 -69t-66 -25h-319q-83 0 -83 80z" />
<glyph unicode="M" horiz-adv-x="922" d="M-14 65q0 16 4 36l152 572q29 108 116 108q38 0 64.5 -25t35.5 -70l70 -358l148 359q38 92 120 92q87 0 92 -107l25 -584q-1 -40 -26.5 -63.5t-60.5 -23.5q-38 0 -56 18.5t-20 58.5l-13 379q-37 -71 -89 -210.5t-67 -174.5q-30 -72 -89 -72q-64 0 -76 72l-65 387 l-104 -380q-21 -78 -90 -78q-71 0 -71 64z" />
<glyph unicode="N" horiz-adv-x="670" d="M-22 66q0 10 65 626q9 87 88 87q53 0 83 -53l232 -409l40 380q9 81 87 81q74 0 74 -67q0 -2 -7 -69q-24 -228 -58 -555q-9 -87 -89 -87q-53 0 -80 47l-235 408l-39 -373q-9 -82 -88 -82q-73 0 -73 66z" />
<glyph unicode="O" horiz-adv-x="753" d="M12 341q0 115 46 218.5t136 172t204 68.5q76 0 135.5 -29t96 -78.5t55 -111.5t18.5 -132q0 -116 -47 -219.5t-138 -171t-205 -67.5q-98 0 -168 50t-101.5 127.5t-31.5 172.5zM177 358q0 -89 39.5 -148.5t114.5 -59.5q52 0 93.5 28t65 71.5t36 90.5t12.5 92q0 88 -40 147 t-117 59q-52 0 -93 -27.5t-64 -71t-35 -90t-12 -91.5z" />
<glyph unicode="P" horiz-adv-x="617" d="M-25 65q0 10 66 630q9 83 92 83h209q107 0 172.5 -61.5t65.5 -162.5q0 -119 -84.5 -201.5t-200.5 -83.5h-139l-20 -188q-9 -81 -88 -81q-73 0 -73 65zM173 429h135q49 3 78.5 32.5t29.5 75.5q0 38 -27 59.5t-77 21.5h-120z" />
<glyph unicode="Q" horiz-adv-x="764" d="M12 342q0 114 46.5 218t137 172t203.5 68q75 0 134.5 -29t96 -78.5t55 -111.5t18.5 -132q0 -148 -75 -274l37 -39q18 -21 18 -56q-3 -33 -26.5 -56t-60.5 -23q-31 0 -51 22l-29 35q-94 -67 -202 -67q-146 0 -224 101.5t-78 249.5zM178 359q0 -89 39.5 -149t114.5 -60 q48 0 85 20l-57 63q-20 22 -20 53q4 41 27.5 65t53.5 24q23 0 42 -16q11 -10 33 -37t24 -29q19 61 19 139q0 88 -39.5 147t-116.5 59q-51 0 -92 -27.5t-65 -70.5t-36 -90t-12 -91z" />
<glyph unicode="R" horiz-adv-x="620" d="M-25 71q0 11 65 624q9 83 107 83h199q110 0 174 -62t64 -148q0 -67 -39.5 -120t-99.5 -82l73 -238q8 -28 8 -43q0 -37 -24 -61.5t-61 -24.5q-50 0 -68 44l-96 286h-116l-25 -241q-9 -88 -88 -88q-73 0 -73 71zM178 488h145q37 0 67 18.5t34 49.5q0 32 -26 47t-62 15h-145 z" />
<glyph unicode="S" horiz-adv-x="544" d="M-21 112q4 46 25 66.5t61 20.5q30 0 58 -17q41 -28 91 -28q44 0 76 22.5t36 63.5q0 27 -21 47t-76 47q-35 17 -56.5 28.5t-51.5 32.5t-47 41.5t-29.5 50.5t-12.5 64q0 106 75.5 177.5t185.5 71.5q97 0 167 -58q38 -30 38 -68q0 -36 -27 -65t-62 -29q-32 0 -60 25 q-35 29 -75 29q-67 0 -73 -57q0 -15 5.5 -26.5t19 -21t23.5 -15t32 -16t33 -15.5q93 -48 138 -93.5t45 -118.5q0 -124 -90.5 -203.5t-210.5 -79.5q-101 0 -179 55q-38 26 -38 69z" />
<glyph unicode="T" horiz-adv-x="526" d="M39 683q0 44 25.5 69.5t66.5 25.5h343q74 0 74 -66q0 -44 -25.5 -69t-65.5 -25h-92l-56 -533q-9 -85 -86 -85q-75 0 -75 69q0 10 57 549h-91q-75 0 -75 65z" />
<glyph unicode="U" horiz-adv-x="685" d="M1 253q0 27 43 439q9 86 93 86q75 0 75 -69q0 -11 -40 -392q-2 -26 -2 -30q0 -130 132 -130q64 0 103.5 36t48.5 124l39 375q9 86 93 86q76 0 76 -70q0 -10 -41 -398q-18 -168 -113 -244.5t-233 -76.5q-125 0 -199.5 63t-74.5 201z" />
<glyph unicode="V" horiz-adv-x="661" d="M45 700q9 80 88 80q60 0 74 -59l102 -441q34 74 98 224.5t93 215.5q27 59 82 59q30 0 54.5 -24t24.5 -54q-3 -22 -11 -35l-265 -578q-40 -88 -106 -88q-62 0 -82 80l-150 588q-2 16 -2 32z" />
<glyph unicode="W" horiz-adv-x="919" d="M52 698q4 37 30 59t59 22t52.5 -19t22.5 -54l30 -387q24 62 67 197.5t65 193.5q28 69 101 69q74 0 85 -69l58 -385l98 380q20 76 91 76q32 0 53 -20.5t21 -53.5q0 -19 -4 -27q-32 -113 -91.5 -318.5t-80.5 -277.5q-10 -37 -41.5 -60.5t-69.5 -23.5q-34 0 -60 19t-32 58 l-64 373l-128 -359q-16 -45 -48.5 -69t-66.5 -24q-36 0 -63 25.5t-31 65.5z" />
<glyph unicode="X" horiz-adv-x="664" d="M-22 59q0 2 0.5 6.5t0.5 6.5q3 29 23 57l220 293l-139 228q-12 20 -12 40q0 2 0.5 5t0.5 5q4 34 29.5 56t57.5 22q43 0 65 -35l109 -178q24 32 68 90t63 84q28 39 72 39q29 0 50 -20.5t21 -50.5q-3 -34 -20 -56l-171 -218l166 -303q14 -26 14 -50v-9q-7 -72 -80 -72 q-42 0 -69 40l-143 246l-181 -244q-30 -42 -80 -42q-65 0 -65 60z" />
<glyph unicode="Y" horiz-adv-x="565" d="M40 691q0 39 24 63.5t62 24.5q49 0 64 -43l94 -273q22 32 73 136.5t74 136.5q31 43 77 43q70 0 70 -61q0 -32 -17 -59l-215 -344l-24 -229q-9 -86 -90 -86q-73 0 -73 68q0 12 25 249q-23 51 -67.5 169.5t-66.5 166.5q-10 20 -10 38z" />
<glyph unicode="Z" horiz-adv-x="598" d="M-23 69q0 44 25 77l362 472h-236q-73 0 -73 64q0 96 90 96h372q44 0 65 -17.5t21 -47.5q0 -2 -0.5 -5.5t-0.5 -5.5q-3 -32 -33 -71l-363 -471h269q75 0 75 -66q0 -2 -0.5 -6t-0.5 -6q-9 -82 -90 -82h-411q-71 0 -71 69z" />
<glyph unicode="[" horiz-adv-x="252" d="M-37 16q0 11 68 659q10 88 91 88h65q67 0 67 -63q0 -37 -20 -60t-55 -24l-55 -526q60 -3 60 -59q0 -39 -23 -63t-60 -24h-65q-73 0 -73 72z" />
<glyph unicode="\" horiz-adv-x="466" d="M42 689q4 34 28.5 53.5t57.5 19.5q32 0 45 -14.5t23 -48.5q180 -618 180 -629v-4q-3 -30 -26 -51t-55 -21q-57 0 -73 57l-177 608q-3 12 -3 30z" />
<glyph unicode="]" horiz-adv-x="252" d="M-38 6q0 38 19.5 61t53.5 23l55 519q-59 2 -59 59q0 41 22 64.5t60 23.5h66q73 0 73 -70q0 -11 -68 -653q-9 -89 -90 -89h-66q-66 0 -66 62z" />
<glyph unicode="^" d="M37 303q3 35 19 57l235 352q30 44 81 44q50 0 71 -46l154 -351q8 -21 8 -37q0 -38 -24.5 -61.5t-61.5 -23.5q-28 0 -44.5 14t-29.5 45l-99 231l-152 -232q-21 -33 -38 -45.5t-48 -12.5q-30 0 -50.5 17t-20.5 49z" />
<glyph unicode="_" horiz-adv-x="614" d="M-47 -93q0 40 23.5 63.5t62.5 23.5h444q72 0 72 -62q0 -40 -24 -62.5t-64 -22.5h-444q-70 0 -70 60z" />
<glyph unicode="`" horiz-adv-x="255" d="M15 526q0 22 12 44l74 138q27 51 80 51q34 0 54 -17.5t20 -49.5q0 -17 -11 -39l-72 -134q-32 -58 -80 -58q-34 0 -55.5 18t-21.5 47z" />
<glyph unicode="a" horiz-adv-x="640" d="M2 242q0 57 15.5 116.5t45 112t78 86t108.5 33.5q39 0 75 -19.5t54 -56.5q11 75 87 75q70 0 70 -67q0 -2 -3.5 -34t-6.5 -59.5t-11 -103.5t-18 -168q0 -15 16 -15q77 0 77 -64q0 -40 -26 -63t-66 -23q-126 0 -150 91q-34 -43 -78 -68.5t-85 -25.5q-75 0 -128.5 70.5 t-53.5 182.5zM159 258q0 -52 20.5 -86t59.5 -34t68 32.5t40.5 72t11.5 75.5q0 58 -25 92.5t-60 34.5q-38 0 -65.5 -35t-38.5 -76t-11 -76z" />
<glyph unicode="b" horiz-adv-x="573" d="M-19 55q0 10 71 684q9 79 84 79q71 0 71 -64q0 -10 -25 -246q66 81 158 81q72 0 124 -65t52 -180q0 -75 -32 -155.5t-94.5 -139.5t-137.5 -59q-42 0 -78.5 24.5t-50.5 69.5l-3 -32q-3 -29 -26.5 -45t-44.5 -16q-68 0 -68 64zM161 266q0 -53 22.5 -89t66.5 -36q29 0 51 19 t33.5 48.5t17 58.5t5.5 54q0 52 -18 88.5t-57 36.5q-41 0 -70 -32.5t-40 -71.5t-11 -76z" />
<glyph unicode="c" horiz-adv-x="515" d="M1 256q0 133 91.5 232t220.5 99q38 0 74 -7t66.5 -28.5t30.5 -54.5q-4 -38 -25.5 -58.5t-55.5 -20.5q-14 0 -49.5 8.5t-55.5 8.5q-63 0 -101.5 -51.5t-38.5 -113.5q0 -54 32 -90.5t80 -36.5q43 0 77 22q17 11 37 11q25 0 44.5 -19t19.5 -46q-4 -48 -49 -76 q-67 -44 -146 -44q-110 0 -181 75t-71 190z" />
<glyph unicode="d" horiz-adv-x="630" d="M2 242q0 77 28 155t86.5 135.5t132.5 57.5q39 0 75.5 -19.5t54.5 -56.5l23 225q9 80 88 80q69 0 69 -65q0 -10 -62 -595q0 -17 16 -17q77 0 77 -64q0 -40 -26 -63t-66 -23q-126 0 -150 91q-34 -44 -78.5 -69t-85.5 -25q-75 0 -128.5 70.5t-53.5 182.5zM159 258 q0 -52 20.5 -86t59.5 -34t68 32.5t40.5 72t11.5 75.5q0 58 -25 92.5t-60 34.5q-38 0 -65.5 -35t-38.5 -76t-11 -76z" />
<glyph unicode="e" horiz-adv-x="576" d="M3 252q0 86 35.5 165t104.5 131t154 52q107 0 165 -61.5t58 -164.5q0 -27 -2 -41q-2 -23 -10 -37.5t-17 -22.5t-28.5 -12t-33 -4.5t-43.5 -0.5h-229q0 -2 -0.5 -6.5t-0.5 -6.5q0 -53 40.5 -80.5t80.5 -27.5q41 0 93 31t75 31q50 0 50 -66q-3 -28 -22 -46 q-87 -96 -226 -96q-116 0 -180 74t-64 189zM176 360h185q1 5 1 14q0 39 -23 60t-56 21q-38 0 -70 -25.5t-37 -69.5z" />
<glyph unicode="f" horiz-adv-x="433" d="M-93 -145q0 31 20.5 53t50.5 22q24 0 44 19t22 43l46 444q-37 1 -55 13t-18 42q0 40 24.5 60.5t64.5 20.5l7 68q8 78 72.5 124t138.5 46q77 0 77 -65q0 -32 -20.5 -53.5t-51.5 -21.5q-24 0 -42.5 -18.5t-20.5 -43.5l-3 -36q1 0 3 0.5t4 0.5q39 0 57.5 -12.5t18.5 -43.5 q0 -42 -25 -62t-66 -20h-12l-50 -475q-12 -78 -74.5 -124t-135.5 -46q-76 0 -76 65z" />
<glyph unicode="g" horiz-adv-x="595" d="M-7 -131q4 37 27 62t59 25q17 0 53 -19q38 -22 83 -22q63 0 91 44.5t37 131.5q-61 -92 -158 -92q-76 0 -129.5 67t-53.5 177q0 76 28 154t86.5 135.5t132.5 57.5q39 0 75.5 -19.5t54.5 -56.5q10 75 86 75q70 0 70 -67q0 -2 -4 -37q-16 -154 -42 -408 q-16 -151 -102 -236.5t-199 -85.5q-87 0 -164 52q-31 21 -31 62zM159 258q0 -52 20.5 -86t59.5 -34t68 32.5t40.5 72t11.5 75.5q0 58 -25 92.5t-60 34.5q-38 0 -65.5 -35t-38.5 -76t-11 -76z" />
<glyph unicode="h" horiz-adv-x="538" d="M-20 62q0 10 69 667q9 80 84 80q70 0 70 -64q0 -10 -24 -235q70 72 147 72q61 0 105.5 -41t44.5 -125q0 -11 -34 -339q-8 -77 -86 -77q-70 0 -70 63q0 9 1 14q17 165 27 266q2 17 2.5 21t0.5 5q0 36 -19.5 56t-46.5 20q-32 0 -58 -23.5t-30 -65.5l-29 -279 q-8 -77 -86 -77q-68 0 -68 62z" />
<glyph unicode="i" horiz-adv-x="315" d="M-3 125q0 15 38 372q7 77 85 77q72 0 72 -64q0 -2 -3 -30q-12 -117 -32 -307v-7q0 -24 16 -24q77 0 77 -64q0 -40 -26 -63t-66 -23q-81 0 -121 35t-40 98zM44 714q4 43 32.5 70.5t66.5 27.5q35 0 58 -22t23 -56q0 -39 -29.5 -69.5t-70.5 -30.5q-34 0 -57 23t-23 57z" />
<glyph unicode="j" horiz-adv-x="242" d="M-169 -145q0 32 20.5 53.5t51.5 21.5q24 0 42 18.5t20 43.5l53 511q17 77 89 77q70 0 70 -62q0 -10 -59 -558q-12 -78 -75 -124t-135 -46q-77 0 -77 65zM34 714q4 44 32.5 71t66.5 27t59 -25.5t21 -63.5q-4 -37 -32.5 -63t-66.5 -26q-35 0 -57.5 23t-22.5 57z" />
<glyph unicode="k" horiz-adv-x="531" d="M-21 62q0 10 69 668q9 78 84 78q70 0 70 -63q0 -20 -35 -348l211 162q26 19 54 19q29 0 50 -22t21 -51q-2 -24 -10.5 -37.5t-27.5 -26.5l-113 -89q7 -17 32 -71t38 -84t25.5 -69.5t12.5 -61.5q-4 -33 -24 -51t-48 -18q-47 0 -71 41l-93 230q-5 -3 -39.5 -31t-38.5 -32 l-13 -128q-8 -77 -85 -77q-69 0 -69 62z" />
<glyph unicode="l" horiz-adv-x="274" d="M-27 133q0 40 8.5 111.5t24.5 207t28 279.5q8 79 86 79q70 0 70 -64q0 -10 -59 -576q0 -28 16 -28q77 0 77 -64q0 -40 -26 -63t-66 -23q-84 0 -121.5 36t-37.5 105z" />
<glyph unicode="m" horiz-adv-x="852" d="M-20 62q0 10 45 437q3 34 25 57t58 23q35 0 53 -19t18 -44v-6q70 72 147 72q44 0 84.5 -21.5t55.5 -63.5q27 38 73 60.5t94 22.5q64 0 107 -41t43 -123q0 -11 -34 -339q-8 -77 -86 -77q-70 0 -70 63q0 9 1 14q17 165 27 266q2 17 2.5 21t0.5 5q0 36 -19.5 56t-46.5 20 q-29 0 -53 -19t-32 -53l-31 -296q-8 -77 -86 -77q-70 0 -70 63q0 9 1 14q17 165 27 266q2 17 2.5 21t0.5 5q0 36 -19.5 56t-46.5 20q-32 0 -58 -23.5t-30 -65.5l-29 -279q-8 -77 -86 -77q-68 0 -68 62z" />
<glyph unicode="n" horiz-adv-x="522" d="M-20 62q0 10 45 437q3 34 25 57t58 23q35 0 53 -19t18 -44v-6q70 72 147 72q61 0 105.5 -41t44.5 -125q0 -11 -34 -339q-8 -77 -86 -77q-70 0 -70 63q0 9 1 14q17 165 27 266q2 17 2.5 21t0.5 5q0 36 -19.5 56t-46.5 20q-32 0 -58 -23.5t-30 -65.5l-29 -279 q-8 -77 -86 -77q-68 0 -68 62z" />
<glyph unicode="o" horiz-adv-x="588" d="M4 252q0 138 83 242t210 104q110 0 170 -78t60 -190q0 -138 -80 -238.5t-213 -100.5q-111 0 -170.5 75t-59.5 186zM163 273q0 -57 21 -99.5t64 -42.5q40 0 69 32t40 70.5t11 75.5q0 58 -21.5 102.5t-64.5 44.5q-40 0 -68.5 -34t-39.5 -73.5t-11 -75.5z" />
<glyph unicode="p" horiz-adv-x="573" d="M-40 -138q0 2 8 73q25 238 60 574q8 79 84 79q71 0 71 -65q0 -2 -0.5 -6.5t-0.5 -7.5q66 80 158 80q72 0 124 -65t52 -180q0 -75 -32 -155.5t-94.5 -139.5t-137.5 -59q-41 0 -78 22.5t-52 60.5l-23 -216q-3 -29 -26.5 -45t-44.5 -16q-68 0 -68 66zM161 266 q0 -53 22.5 -89t66.5 -36q29 0 51 19t33.5 48.5t17 58.5t5.5 54q0 52 -18 88.5t-57 36.5q-41 0 -70 -32.5t-40 -71.5t-11 -76z" />
<glyph unicode="q" horiz-adv-x="579" d="M2 242q0 77 28 155t86.5 135.5t132.5 57.5q39 0 75.5 -19.5t54.5 -56.5q10 75 86 75q70 0 70 -67q0 -2 -5 -53q-24 -226 -63 -598q-8 -74 -85 -74q-63 0 -63 58q0 8 22 216q-62 -82 -157 -82q-75 0 -128.5 70.5t-53.5 182.5zM159 258q0 -52 20.5 -86t59.5 -34t68 32.5 t40.5 72t11.5 75.5q0 58 -25 92.5t-60 34.5q-38 0 -65.5 -35t-38.5 -76t-11 -76z" />
<glyph unicode="r" horiz-adv-x="408" d="M-25 62q0 10 45 438q9 80 85 80q25 0 41.5 -15t16.5 -46v-5q15 25 57.5 49.5t73.5 24.5q52 0 77 -21.5t25 -53.5q0 -36 -26.5 -62t-61.5 -26q-12 0 -31.5 3t-27.5 3q-30 0 -58 -21.5t-32 -53.5l-29 -279q-8 -77 -85 -77q-70 0 -70 62z" />
<glyph unicode="s" horiz-adv-x="498" d="M-10 105q3 37 26 55.5t53 18.5q28 0 74.5 -27.5t87.5 -27.5q49 0 53 36q-4 16 -32 34t-64 37.5t-72 42.5t-60.5 58.5t-24.5 76.5q9 88 78 138t162 50q89 0 156 -37q34 -20 34 -58q-3 -31 -23 -50.5t-53 -19.5q-25 0 -71 15t-77 15q-46 0 -50 -36q0 -18 27 -37t65 -37.5 t76 -40.5t65 -56.5t27 -76.5q0 -92 -75.5 -139.5t-171.5 -47.5q-97 0 -185 59q-25 17 -25 55z" />
<glyph unicode="t" horiz-adv-x="399" d="M18 497q0 65 78 74l4 39q8 76 85 76q71 0 71 -63q0 -2 -0.5 -5t-1.5 -16t-3 -31h43q39 0 56.5 -11.5t17.5 -41.5q0 -76 -86 -76h-45q-27 -262 -27 -273q0 -27 16 -27q77 0 77 -64q0 -40 -26 -63t-66 -23q-87 0 -122 38.5t-35 115.5q0 28 28 298q-64 7 -64 53z" />
<glyph unicode="u" horiz-adv-x="544" d="M-4 192q0 16 31 318q9 77 84 77q70 0 70 -61q0 -10 -26 -273q-2 -22 -2 -29q0 -81 59 -81q38 0 70.5 40t39.5 108l23 222q4 39 23.5 59t59.5 20q69 0 69 -63q0 -10 -48 -468q-8 -74 -85 -74q-21 0 -36.5 14t-15.5 41v8l3 30q-74 -86 -163 -86q-66 0 -111 53t-45 145z" />
<glyph unicode="v" horiz-adv-x="503" d="M25 501q4 39 27.5 61t57.5 22q62 0 73 -71l43 -270l98 273q33 68 89 68q31 0 49.5 -16.5t18.5 -48.5q0 -26 -10 -42l-189 -421q-26 -56 -86 -56q-58 0 -72 56l-97 423q-2 14 -2 22z" />
<glyph unicode="w" horiz-adv-x="881" d="M38 501q0 38 24.5 60t61.5 22q56 0 74 -58l46 -293l100 289q10 29 35.5 45t53.5 16q27 0 52 -17.5t29 -46.5l41 -281l97 288q20 59 86 59q37 0 52 -14.5t15 -46.5q0 -28 -12 -54q-1 -2 -6 -14.5t-17.5 -41t-30.5 -70t-50.5 -115.5t-72.5 -164q-28 -63 -87 -63 q-58 0 -73 66q-13 55 -23.5 123t-24.5 126l-103 -251q-28 -65 -91 -65q-64 0 -80 67q-96 412 -96 434z" />
<glyph unicode="x" horiz-adv-x="547" d="M-20 60q0 40 32 79l154 161l-102 153q-13 19 -13 43q0 35 26.5 60.5t60.5 25.5q46 0 68 -39l58 -123l87 125q26 38 74 38q31 0 51 -19.5t20 -49.5q-3 -36 -26 -61l-134 -148l120 -162q18 -24 18 -56q0 -40 -22 -63.5t-58 -23.5q-53 0 -77 46l-83 137q-21 -26 -60 -75 t-51 -64q-35 -42 -79 -42q-64 0 -64 58z" />
<glyph unicode="y" horiz-adv-x="517" d="M-43 -145q0 2 0.5 5.5t0.5 5.5q4 33 25.5 48.5t44.5 15.5q35 0 59.5 34.5t33.5 77.5q-17 75 -47.5 220t-44.5 207q-4 12 -4 24q0 41 23 65t61 24q61 0 74 -62l41 -311q18 39 57.5 158t56.5 158q25 58 86 58q35 0 52 -18.5t17 -47.5q0 -23 -9 -47l-245 -525 q-74 -155 -206 -155q-76 0 -76 65z" />
<glyph unicode="z" horiz-adv-x="528" d="M-18 64q0 35 32 69l232 303h-138q-70 0 -70 63q0 83 87 83h272q77 0 77 -61q0 -37 -34 -73l-240 -304h173q71 0 71 -63q0 -40 -23 -60.5t-64 -20.5h-286q-89 0 -89 64z" />
<glyph unicode="{" horiz-adv-x="379" d="M3 357q2 22 15 37.5t26 21.5t35 13q18 0 26.5 37t10.5 83t4 51q8 91 53 123.5t125 32.5q28 0 47 -20t19 -45q-6 -75 -90 -75q-5 0 -7 -23q-1 -12 -4.5 -49t-6.5 -53t-9.5 -43.5t-18.5 -48.5t-29 -40q31 -36 31 -108q0 -25 -6.5 -72t-6.5 -70q0 -19 12 -19q67 -5 67 -56 q0 -2 -0.5 -6t-0.5 -6q-8 -70 -82 -70q-153 0 -153 117q0 30 9 85.5t9 83.5q0 38 -9 47q-40 8 -53 22t-13 50z" />
<glyph unicode="|" horiz-adv-x="175" d="M-37 46q0 10 72 687q9 83 86 83q69 0 69 -67q0 -10 -72 -688q-9 -77 -85 -77q-70 0 -70 62z" />
<glyph unicode="}" horiz-adv-x="379" d="M-32 22q7 63 79 68q15 0 19 30q2 15 5 50t5.5 54t9 46t18.5 48.5t30 40.5q-32 42 -32 118q0 30 2 46q1 11 7.5 38.5t6.5 42.5q0 12 -5 12q-39 0 -57.5 16.5t-18.5 52.5q3 26 27.5 48.5t53.5 22.5q73 0 112 -26.5t39 -99.5q0 -26 -8 -75.5t-8 -73.5q0 -46 21 -54 q27 -8 42 -21t15 -39q0 -67 -84 -82q-14 -16 -20 -50t-7.5 -82t-2.5 -56q-7 -66 -46 -105.5t-138 -39.5q-65 0 -65 70z" />
<glyph unicode="~" horiz-adv-x="612" d="M-1 233q0 55 64 108.5t119 53.5q54 0 127 -43q40 -24 54 -24l2 2q2 2 5.5 6t6.5 7q13 16 22 24.5t27 17.5t38 9q68 0 68 -67q0 -56 -68.5 -108.5t-123.5 -52.5q-49 0 -113 40q-5 3 -16 9l-16.5 9t-13.5 5.5t-14 2.5q-5 0 -18 -14q-42 -52 -83 -52q-67 0 -67 67z" />
<glyph unicode="&#xa3;" horiz-adv-x="678" d="M17 64q0 44 51 93q39 37 60 66.5t25 63.5v23h-66q-70 0 -70 62q0 42 23 66.5t63 25.5h15q-17 41 -17 81q0 64 41 114.5t99 75t117 24.5q96 0 168 -54t72 -146q-3 -39 -27.5 -65t-57.5 -26q-52 0 -72 61q-1 36 -29.5 56t-66.5 20q-37 0 -57.5 -19.5t-20.5 -53.5 q0 -37 14 -68h94q69 0 69 -63q0 -42 -23.5 -66.5t-61.5 -24.5h-46q0 -84 -50 -154h234q70 0 70 -64q0 -41 -23.5 -65.5t-62.5 -24.5h-390q-74 0 -74 62z" />
<glyph unicode="&#xa4;" horiz-adv-x="776" d="M22 71q4 51 51 85l79 53q-4 30 -4 46q0 38 22 89l-72 55q-34 33 -34 78q3 33 27.5 51t53.5 18t58 -26l70 -65q63 34 111 34q54 0 102 -32l79 63q33 26 66 26q27 0 47.5 -16t20.5 -45q-6 -56 -52 -86l-80 -59q14 -17 14 -50q0 -51 -20 -88l60 -45q36 -32 36 -71 q-3 -38 -28 -57t-54 -19q-33 0 -60 26l-52 50q-66 -43 -127 -43q-63 0 -115 46q-7 -5 -31.5 -25t-34.5 -26q-35 -28 -66 -28q-27 0 -47 16t-20 45zM288 254q0 -36 19 -56t47 -20q38 0 62.5 32t24.5 72q0 34 -20.5 53.5t-49.5 19.5q-37 0 -60 -30t-23 -71z" />
<glyph unicode="&#xa5;" horiz-adv-x="565" d="M-29 185q0 41 23.5 66t63.5 25h122l4 40h-122q-70 0 -70 63q0 42 23.5 66.5t62.5 24.5h57q-58 122 -86 183q-9 22 -9 38q0 39 24 63.5t62 24.5q49 0 64 -43l92 -266h7q21 31 70 132.5t72 133.5q31 43 77 43q70 0 70 -61q0 -34 -17 -59l-132 -189h68q69 0 69 -64 q0 -41 -23 -65.5t-62 -24.5h-135l-4 -40h135q68 0 68 -61q0 -44 -22.5 -69t-62.5 -25h-135l-3 -35q-7 -86 -90 -86q-73 0 -73 68q0 12 4 53h-122q-70 0 -70 64z" />
<glyph unicode="&#xa6;" horiz-adv-x="175" d="M-35 62q0 10 27 262q4 39 28 62.5t58 23.5q31 0 50 -16.5t19 -47.5q0 -9 -27 -269q-8 -77 -85 -77q-70 0 -70 62zM11 508q0 2 2 22q9 81 22 209q4 39 28.5 62.5t57.5 23.5q32 0 51 -17.5t19 -49.5q0 -1 -1 -15q-2 -18 -4 -35t-7.5 -69t-12.5 -118q-7 -77 -85 -77 q-70 0 -70 64z" />
<glyph unicode="&#xa7;" horiz-adv-x="531" d="M-18 49q0 35 25.5 61t59.5 26q21 0 56.5 -14t66.5 -14q57 0 60 24q0 13 -40 35t-88.5 44t-88.5 61t-40 82q0 41 27 72.5t66 31.5q28 0 44.5 -16.5t24.5 -38.5t32 -48.5t63 -41.5q34 -13 48.5 -19t42 -20.5t40 -28.5t23 -36t10.5 -49q0 -98 -74 -154.5t-170 -56.5 q-84 0 -155 39q-33 19 -33 61zM31 621q0 95 75 151.5t170 56.5q87 0 155 -40q34 -19 34 -61q0 -2 -0.5 -5t-0.5 -5q-4 -35 -29 -56t-56 -21q-21 0 -56 14.5t-67 14.5q-57 0 -60 -25q0 -13 40 -33.5t88.5 -42.5t88.5 -61t40 -84q0 -41 -26.5 -73t-65.5 -32q-24 0 -37 9.5 t-20 26t-16 34.5t-32.5 39.5t-61.5 36.5q-74 26 -118.5 61t-44.5 95z" />
<glyph unicode="&#xa8;" horiz-adv-x="487" d="M32 614q4 44 32 71t67 27q34 0 57 -23t23 -57q-4 -43 -32 -70.5t-66 -27.5q-36 0 -58.5 23t-22.5 57zM281 614q4 43 31.5 70.5t65.5 27.5q36 0 58 -22.5t22 -56.5q-4 -44 -31.5 -71.5t-66.5 -27.5q-34 0 -56.5 23t-22.5 57z" />
<glyph unicode="&#xa9;" horiz-adv-x="895" d="M21 322q0 119 58 217.5t155 154t210 55.5q155 0 248.5 -93.5t93.5 -242.5q0 -178 -124.5 -301.5t-299.5 -123.5q-154 0 -247.5 93t-93.5 241zM124 333q0 -112 69 -182.5t184 -70.5q134 0 222.5 97t88.5 225q0 113 -69 185.5t-184 72.5q-135 0 -223 -99t-88 -228zM185 342 q0 107 75 187.5t176 80.5q42 0 93 -24q19 -8 30 -24.5t11 -33.5q-3 -32 -24.5 -54t-49.5 -22q-10 0 -36.5 9t-41.5 9q-43 0 -69 -36.5t-26 -79.5q0 -35 19 -60t49 -25q15 0 41.5 8.5t39.5 8.5q61 0 61 -54q0 -49 -45 -75t-104 -26q-92 0 -145.5 60.5t-53.5 150.5z" />
<glyph unicode="&#xab;" horiz-adv-x="579" d="M-2 288q1 21 24 53l100 144q27 33 63 33q28 0 50 -21.5t22 -49.5q-3 -26 -16 -45l-83 -114l64 -138q4 -9 4 -24q-3 -25 -31.5 -47t-57.5 -22q-40 0 -56 32l-71 146q-12 24 -12 53zM237 288q1 21 21 52l106 147q25 30 63 30q73 0 73 -59q0 -31 -19 -58l-84 -112l64 -136 q5 -10 5 -26q-3 -25 -31.5 -47t-57.5 -22q-42 0 -55 32l-75 146q-10 24 -10 53z" />
<glyph unicode="&#xac;" horiz-adv-x="674" d="M7 275q0 41 26.5 68t64.5 27h412q74 0 74 -71q0 -10 -15 -148q-9 -83 -84 -83q-30 0 -51 20t-21 53l7 72h-338q-75 0 -75 62z" />
<glyph unicode="&#xad;" horiz-adv-x="0" />
<glyph unicode="&#xae;" horiz-adv-x="894" d="M22 331q0 179 125 302t297 123q154 0 247.5 -93t93.5 -241q0 -182 -123 -304t-298 -122q-153 0 -247.5 93.5t-94.5 241.5zM121 342q0 -113 70.5 -185t187.5 -72q136 0 222.5 97.5t86.5 227.5q0 112 -69 183.5t-185 71.5q-135 0 -224 -97.5t-89 -225.5zM219 201 q0 9 34 331q3 35 24 55t59 20h123q60 0 103 -38.5t43 -96.5q0 -43 -24 -77t-62 -54l20 -34q35 -62 35 -92q-4 -34 -26 -51.5t-56 -17.5q-46 0 -66 51l-56 121l-11 -103q-7 -69 -78 -69q-62 0 -62 55zM380 420h53q21 0 33.5 10.5t13.5 24.5v4q0 29 -40 29h-53z" />
<glyph unicode="&#xb0;" horiz-adv-x="304" d="M32 653q0 63 44 106t104 43q55 0 88 -33.5t33 -84.5q0 -62 -45 -106t-104 -44q-54 0 -87 33.5t-33 85.5zM100 660q0 -26 16.5 -42.5t42.5 -16.5q29 0 50 20.5t24 54.5q0 25 -16.5 42t-43.5 17q-32 0 -51.5 -21t-21.5 -54z" />
<glyph unicode="&#xb1;" d="M14 64q0 41 27.5 66.5t64.5 25.5h398q76 0 76 -64q0 -43 -25 -67t-67 -24h-398q-76 0 -76 63zM47 401q0 45 25 69.5t66 24.5h118l4 47q3 39 26 59.5t62 20.5q33 0 53.5 -17.5t20.5 -49.5v-2t-0.5 -5t-1 -9.5t-2 -17t-2.5 -26.5h118q38 0 59.5 -20t21.5 -51 q0 -43 -27.5 -65.5t-70.5 -22.5h-118l-6 -56q-4 -35 -29.5 -56.5t-60.5 -21.5q-71 0 -71 63q0 10 7 71h-118q-74 0 -74 65z" />
<glyph unicode="&#xb2;" horiz-adv-x="331" d="M0 432q0 19 15 36l138 164q17 22 20 43q0 14 -9.5 22t-22.5 8q-15 0 -26.5 -9.5t-13.5 -27.5q-2 -15 -14 -29.5t-30 -14.5q-17 0 -26.5 13t-9.5 29q5 54 43.5 86t85.5 32q42 0 73.5 -26.5t31.5 -67.5q0 -54 -48 -110q-11 -12 -38.5 -44t-49.5 -58h81q34 0 34 -32 q0 -44 -43 -46h-148q-43 0 -43 32z" />
<glyph unicode="&#xb3;" horiz-adv-x="334" d="M-3 481q0 19 12 33t30 14q27 0 35 -25q9 -29 34 -29q17 0 31 11t16 30q0 44 -29 49h-16q-39 0 -39 28q0 39 47 39q9 0 14 1q10 3 17.5 16.5t8.5 26.5q0 33 -28 33q-29 0 -35 -25q-1 -8 -9.5 -17.5t-24.5 -9.5q-38 0 -38 30q0 42 37.5 71t80.5 29q44 0 71 -28t27 -67 q0 -55 -53 -88q49 -27 49 -82q0 -53 -41.5 -90t-93.5 -37q-61 0 -92 50q-11 17 -11 37z" />
<glyph unicode="&#xb5;" horiz-adv-x="547" d="M-43 -146q2 10 68 651q7 78 85 78q71 0 71 -64q0 -4 -3 -36l-29 -278q2 -24 17.5 -39.5t39.5 -15.5q38 0 66 29.5t32 70.5l27 255q9 78 87 78q71 0 71 -65q0 -2 -4 -38l-42 -397q-9 -83 -86 -83q-23 0 -39 15t-16 43q-13 -28 -40.5 -44.5t-59.5 -16.5q-26 0 -45 15.5 t-24 40.5q-3 -32 -10 -93t-10 -92q-9 -78 -88 -78q-68 0 -68 64z" />
<glyph unicode="&#xb6;" horiz-adv-x="572" d="M20 524q0 116 85 176t211 60h234q29 -2 47 -22.5t18 -51.5q-4 -30 -27 -51.5t-53 -22.5l-58 -548q-3 -30 -23 -47.5t-45 -17.5q-22 0 -38.5 15t-16.5 42q0 1 3 29q19 176 56 529h-77l-57 -545q-4 -33 -24 -52t-45 -19q-24 0 -40.5 17.5t-16.5 48.5q0 2 2 21q11 98 29 272 q-74 11 -119 56.5t-45 110.5z" />
<glyph unicode="&#xb7;" horiz-adv-x="209" d="M-4 347q4 43 32.5 70.5t65.5 27.5q36 0 58.5 -23t22.5 -57q-4 -43 -32 -70.5t-67 -27.5q-34 0 -57 23t-23 57z" />
<glyph unicode="&#xbb;" horiz-adv-x="525" d="M-20 113q2 25 15 41l93 134l-65 131q-8 14 -8 29q2 28 29 50.5t58 22.5q42 0 59 -36l70 -144q14 -30 14 -49q-3 -32 -24 -58l-101 -144q-21 -32 -65 -32q-75 0 -75 55zM220 112q2 30 17 44l89 133q-6 11 -62 113q-10 17 -10 37q0 38 23 60t61 22q47 0 62 -35l74 -145 q12 -24 12 -45q-3 -34 -23 -62l-105 -145q-22 -31 -67 -31q-71 0 -71 54z" />
<glyph unicode="&#xbd;" horiz-adv-x="630" d="M-4 720q0 16 11 28t27 17l75 20q15 -2 25 -11t10 -23q0 -2 -31 -300q-2 -18 -14 -29.5t-30 -11.5q-17 0 -27 10t-10 26v1q4 36 26 247q-14 -6 -27 -6q-15 0 -25 9t-10 23zM29 42q0 15 7 29l331 672q24 39 52 39q15 0 24.5 -11.5t9.5 -29.5q0 -17 -9 -35l-341 -680 q-17 -25 -39 -25q-15 0 -25 11.5t-10 29.5zM319 32q0 19 15 36l138 164q17 22 20 43q0 14 -9.5 22t-22.5 8q-15 0 -26.5 -9.5t-13.5 -27.5q-2 -15 -14 -29.5t-30 -14.5q-17 0 -26.5 13t-9.5 29q5 54 43.5 86t85.5 32q42 0 73.5 -26.5t31.5 -67.5q0 -54 -48 -110 q-11 -12 -38.5 -44t-49.5 -58h81q34 0 34 -32q0 -44 -43 -46h-148q-43 0 -43 32z" />
<glyph unicode="&#x2000;" horiz-adv-x="443" />
<glyph unicode="&#x2001;" horiz-adv-x="886" />
<glyph unicode="&#x2002;" horiz-adv-x="443" />
<glyph unicode="&#x2003;" horiz-adv-x="886" />
<glyph unicode="&#x2004;" horiz-adv-x="295" />
<glyph unicode="&#x2005;" horiz-adv-x="221" />
<glyph unicode="&#x2006;" horiz-adv-x="147" />
<glyph unicode="&#x2007;" horiz-adv-x="147" />
<glyph unicode="&#x2008;" horiz-adv-x="110" />
<glyph unicode="&#x2009;" horiz-adv-x="177" />
<glyph unicode="&#x200a;" horiz-adv-x="49" />
<glyph unicode="&#x2010;" horiz-adv-x="391" d="M0 276q0 40 27 67t65 27h183q76 0 76 -67q0 -43 -25.5 -66.5t-66.5 -23.5h-183q-76 0 -76 63z" />
<glyph unicode="&#x2011;" horiz-adv-x="391" d="M0 276q0 40 27 67t65 27h183q76 0 76 -67q0 -43 -25.5 -66.5t-66.5 -23.5h-183q-76 0 -76 63z" />
<glyph unicode="&#x2012;" horiz-adv-x="391" d="M0 276q0 40 27 67t65 27h183q76 0 76 -67q0 -43 -25.5 -66.5t-66.5 -23.5h-183q-76 0 -76 63z" />
<glyph unicode="&#x2013;" horiz-adv-x="720" d="M8 275q0 41 27 68t65 27h450q76 0 76 -67q0 -43 -25.5 -66.5t-66.5 -23.5h-450q-76 0 -76 62z" />
<glyph unicode="&#x2014;" horiz-adv-x="928" d="M16 275q0 41 27 68t65 27h626q76 0 76 -67q0 -43 -25 -66.5t-67 -23.5h-626q-76 0 -76 62z" />
<glyph unicode="&#x2018;" horiz-adv-x="254" d="M33 681q3 35 29 57.5t58 22.5q47 0 63 -45l49 -151q7 -13 7 -23q0 -33 -27.5 -59.5t-59.5 -26.5q-26 0 -44.5 17t-26.5 41l-45 145q-3 11 -3 22z" />
<glyph unicode="&#x2019;" horiz-adv-x="254" d="M16 526q1 19 15 38l80 152q23 45 72 45q30 0 51 -19t21 -48q-1 -23 -11 -38l-72 -142q-12 -23 -35.5 -40.5t-49.5 -17.5q-25 0 -48 21.5t-23 48.5z" />
<glyph unicode="&#x201a;" horiz-adv-x="254" d="M-44 -51q1 21 10 37l74 143q12 24 35.5 40t49.5 16t47.5 -19.5t21.5 -46.5q-1 -24 -13 -40l-81 -153q-27 -44 -72 -44q-30 0 -51 19t-21 48z" />
<glyph unicode="&#x201c;" horiz-adv-x="496" d="M40 687q3 31 28.5 52.5t57.5 21.5q48 0 64 -45l49 -151q6 -11 6 -34q-3 -28 -31.5 -51.5t-55.5 -23.5q-25 0 -44 17.5t-26 40.5l-44 145q-4 14 -4 28zM262 687q3 32 28 53t57 21q49 0 65 -45l49 -151q5 -11 5 -34q-3 -28 -31.5 -51.5t-55.5 -23.5q-25 0 -43.5 17.5 t-25.5 40.5l-45 145q-3 9 -3 28z" />
<glyph unicode="&#x201d;" horiz-adv-x="493" d="M23 526q1 18 14 38l80 152q26 45 72 45q30 0 51.5 -19t21.5 -48q-1 -20 -9 -35l-75 -145q-13 -23 -35.5 -40.5t-49.5 -17.5q-24 0 -47 21.5t-23 48.5zM245 526q1 20 13 38l80 152q26 45 72 45q30 0 51.5 -19t21.5 -48q-1 -20 -9 -35l-75 -145q-7 -15 -19.5 -27.5 t-30 -21.5t-35.5 -9q-24 0 -46.5 21.5t-22.5 48.5z" />
<glyph unicode="&#x201e;" horiz-adv-x="484" d="M-38 -52q1 20 11 38l74 143q12 23 36 40t49 17t46.5 -20.5t21.5 -47.5q-1 -22 -12 -39l-82 -153q-25 -44 -72 -44q-29 0 -50.5 19t-21.5 47zM175 -52q1 23 11 38l73 143q12 24 36.5 40t49.5 16q26 0 47 -19.5t21 -46.5q-1 -24 -13 -40l-81 -153q-25 -44 -73 -44 q-29 0 -50 19t-21 47z" />
<glyph unicode="&#x2022;" horiz-adv-x="580" d="M59 328q0 94 66 158t155 64q80 0 128.5 -48.5t48.5 -125.5q0 -94 -65 -159t-154 -65q-81 0 -130 49t-49 127z" />
<glyph unicode="&#x2026;" horiz-adv-x="690" d="M-18 80q4 43 32 70.5t66 27.5q34 0 57 -23t23 -57q-4 -43 -32 -70.5t-66 -27.5q-35 0 -57.5 23t-22.5 57zM213 80q4 43 32 70.5t66 27.5q34 0 57 -23t23 -57q-4 -43 -32 -70.5t-66 -27.5q-35 0 -57.5 23t-22.5 57zM446 80q4 43 31.5 70.5t65.5 27.5q35 0 57.5 -23 t22.5 -57q-4 -43 -32 -70.5t-66 -27.5q-34 0 -56.5 23t-22.5 57z" />
<glyph unicode="&#x202f;" horiz-adv-x="177" />
<glyph unicode="&#x2039;" horiz-adv-x="682" d="M7 281q0 61 65 90l427 189q25 11 47 11q30 0 49 -17.5t19 -44.5q-5 -59 -64 -87l-327 -130l291 -141q50 -24 50 -70q0 -37 -23 -59t-59 -22q-29 0 -52 12l-376 197q-47 24 -47 72z" />
<glyph unicode="&#x203a;" horiz-adv-x="682" d="M-14 62q0 64 53 89l334 135l-298 139q-45 25 -45 69q7 81 84 81q18 0 35 -7l387 -201q56 -30 56 -73q-6 -60 -82 -95l-417 -191q-17 -7 -37 -7q-70 0 -70 61z" />
<glyph unicode="&#x205f;" horiz-adv-x="221" />
<glyph unicode="&#x20ac;" horiz-adv-x="776" d="M-16 312q0 38 22.5 51.5t62.5 13.5h11l2 15q2 18 4 28h-12q-41 0 -57.5 7.5t-16.5 34.5q0 38 22.5 51.5t62.5 13.5h29q47 121 145 198t233 77q132 0 219 -87q24 -25 24 -60q-4 -43 -29 -67t-59 -24q-38 0 -59 24q-41 47 -117 47q-116 0 -179 -108h217q41 0 57.5 -8 t16.5 -35q0 -38 -22 -51t-63 -13h-245l-5 -43h135q40 0 57 -7.5t17 -34.5q0 -39 -22 -52t-63 -13h-107q41 -109 157 -109q78 0 125 43q27 24 57 24q37 0 55 -19.5t18 -50.5q0 -49 -38 -80q-109 -89 -238 -89q-137 0 -218 78.5t-99 202.5h-26q-41 0 -57.5 7.5t-16.5 34.5z " />
<glyph unicode="&#x2122;" horiz-adv-x="799" d="M51 689q0 32 18 51.5t49 19.5h165q57 0 57 -51q0 -32 -18.5 -51t-50.5 -19h-21l-25 -238q-7 -66 -68 -66q-55 0 -55 52q0 9 26 252h-22q-55 0 -55 50zM301 387q0 3 78 313q17 66 78 66q58 0 68 -56l16 -140l48 141q22 55 80 55q28 0 46 -17.5t19 -48.5l14 -297 q-7 -64 -67 -64q-53 0 -56 55v168q-39 -160 -45 -175q-21 -50 -64 -50t-56 51l-9 168l-29 -161q-14 -57 -68 -57q-53 0 -53 49z" />
<glyph unicode="&#xe000;" horiz-adv-x="585" d="M0 0v585h585v-585h-585z" />
</font>
</defs>
</svg>
