<?xml version="1.0" standalone="no"?>
<!DOCTYPE svg PUBLIC "-//W3C//DTD SVG 1.1//EN" "http://www.w3.org/Graphics/SVG/1.1/DTD/svg11.dtd" >
<svg xmlns="http://www.w3.org/2000/svg">
<metadata></metadata>
<defs>
<font id="dejavu_serifCnBdIt" horiz-adv-x="1544" >
<font-face units-per-em="2048" ascent="1556" descent="-492" />
<missing-glyph horiz-adv-x="641" />
<glyph unicode="&#xfb00;" horiz-adv-x="1524" d="M580 942l-170 -971q-36 -209 -148 -269q-174 -91 -371 -91q10 56 21 112q72 0 114 57.5t65 186.5l171 975h-143l22 121h142l23 133q31 177 148.5 268.5t315.5 91.5q76 0 147.5 -9.5t137.5 -28.5l-39 -228h-101q1 15 1 28q0 57 -22 88q-27 38 -89 38q-72 0 -114.5 -57.5 t-65.5 -186.5l-24 -137h417l23 133q31 177 149 268.5t315 91.5q76 0 147.5 -9.5t137.5 -28.5l-39 -228h-101q1 15 1 28q0 57 -22 88q-27 38 -89 38q-72 0 -114.5 -57.5t-65.5 -186.5l-24 -137h241l-21 -121h-241l-170 -971q-36 -209 -148 -269q-174 -91 -371 -91 q11 56 21 112q72 0 114.5 57.5t64.5 186.5l171 975h-417z" />
<glyph unicode="fi" horiz-adv-x="1340" d="M262 942h-142l20 121h143l13 76q36 206 181.5 311.5t394.5 105.5q87 0 181.5 -12t197.5 -37l-42 -239h-101q1 9 1 17q0 74 -42 114q-46 45 -141 45q-133 0 -207.5 -71t-102.5 -224l-15 -86h644l-165 -942h137l-21 -121h-455l164 942h-325l-170 -971q-36 -209 -148 -269 q-174 -91 -371 -91q10 56 21 112q72 0 114 57.5t65 186.5z" />
<glyph unicode="fl" horiz-adv-x="1340" d="M262 942h-142l20 121h143l13 76q37 213 186.5 315t424.5 102h421l-252 -1435h137l-21 -121h-455l252 1444h-79q-127 0 -196.5 -70t-97.5 -225l-15 -86h218l-21 -121h-218l-170 -971q-36 -209 -148 -269q-174 -91 -371 -91q10 56 21 112q72 0 114 57.5t65 186.5z" />
<glyph unicode="&#xfb03;" horiz-adv-x="2043" d="M994 942l-170 -975q-23 -129 -65.5 -186.5t-114.5 -57.5l-20 -112q197 0 370 91q112 60 149 269l169 971h325l-165 -942h456l21 121h-136l164 942h-643l15 86q26 153 101.5 224t208.5 71q94 0 140 -45q41 -40 41 -114v-17h101l42 239q-102 25 -196.5 37t-181.5 12 q-250 0 -395 -105.5t-181 -311.5l-14 -76h-414l25 137q22 129 64.5 186.5t114.5 57.5q62 0 89 -38q22 -31 22 -88q0 -13 -2 -28h101l41 228q-68 19 -139 28.5t-147 9.5q-198 0 -315.5 -91.5t-148.5 -268.5l-23 -133h-143l-20 -121h142l-171 -975q-23 -129 -65 -186.5 t-114 -57.5q-11 -56 -21 -112q197 0 371 91q112 60 148 269l170 971h414z" />
<glyph unicode="&#xfb04;" horiz-adv-x="2112" d="M580 942l-170 -971q-36 -209 -148 -269q-174 -91 -371 -91q10 56 21 112q72 0 114 57.5t65 186.5l171 975h-142l20 121h143l23 133q31 177 148.5 268.5t315.5 91.5q76 0 147 -9.5t139 -28.5l-41 -228h-101q2 15 2 28q0 57 -22 88q-27 38 -89 38q-72 0 -114.5 -57.5 t-64.5 -186.5l-25 -137h409l20 76q64 236 180 315q149 102 424 102h421l-251 -1435h136l-20 -121h-456l252 1444h-79q-127 0 -196.5 -70t-96.5 -225l-16 -86h218l-20 -121h-218l-170 -971q-37 -209 -149 -269q-174 -91 -371 -91q10 56 21 112q72 0 114.5 57.5t64.5 186.5 l171 975h-409z" />
<glyph unicode="&#x192;&#x192;" horiz-adv-x="1524" d="M997 942h-417l-171 -971q-32 -177 -149 -269q-118 -91 -315 -91q-76 0 -147.5 9.5t-138.5 28.5l40 228h101q-1 -15 -1 -28q0 -57 22 -88q27 -38 89 -38q72 0 114 57q42 58 65 187l173 975h-143l22 121h142l23 133q31 177 148.5 268.5t315.5 91.5q76 0 147.5 -9.5 t137.5 -28.5l-39 -228h-101q1 15 1 28q0 57 -22 88q-27 38 -89 38q-72 0 -114.5 -57.5t-65.5 -186.5l-24 -137h417l23 133q31 177 149 268.5t315 91.5q76 0 147.5 -9.5t137.5 -28.5l-39 -228h-101q1 15 1 28q0 57 -22 88q-27 38 -89 38q-72 0 -114.5 -57.5t-65.5 -186.5 l-24 -137h241l-21 -121h-241l-171 -971q-32 -177 -149 -269q-118 -91 -315 -91q-76 0 -147.5 9.5t-138.5 28.5l40 228h101q-1 -15 -1 -28q0 -57 22 -88q27 -38 89 -38q72 0 114 57q42 58 65 187z" />
<glyph unicode="&#x192;i" horiz-adv-x="1340" d="M1209 1268h-101v17q0 74 -41 114q-46 45 -141 45q-133 0 -208 -71t-102 -224l-15 -86h644l-165 -942h137l-21 -121h-456l165 942h-325l-170 -971q-31 -177 -148.5 -268.5t-314.5 -91.5q-77 0 -148 9.5t-138 28.5l40 228h101q-2 -15 -2 -28q0 -57 22 -88q27 -38 90 -38 q72 0 114 57.5t65 186.5l171 975h-143l22 121h142l13 76q36 206 181.5 311.5t394.5 105.5q87 0 182 -12t197 -37z" />
<glyph unicode="&#x192;l" horiz-adv-x="1340" d="M296 1139q37 213 186.5 315t424.5 102h421l-252 -1435h137l-21 -121h-455l252 1444h-79q-127 0 -196.5 -70t-97.5 -225l-15 -86h218l-21 -121h-218l-170 -971q-31 -177 -148.5 -268.5t-314.5 -91.5q-77 0 -148 9.5t-138 28.5l40 228h101q-2 -15 -2 -28q0 -57 22 -88 q27 -38 90 -38q72 0 114 57.5t65 186.5l171 975h-143l22 121h142z" />
<glyph unicode="&#x192;&#x192;i" horiz-adv-x="2043" d="M994 942h-414l-171 -971q-32 -177 -149 -269q-118 -91 -315 -91q-76 0 -147.5 9.5t-138.5 28.5l40 228h101q-1 -15 -1 -28q0 -57 22 -88q27 -38 89 -38q72 0 114 57q42 58 65 187l173 975h-143l22 121h142l23 133q31 177 148.5 268.5t315.5 91.5q76 0 147.5 -9.5 t137.5 -28.5l-39 -228h-101q1 15 1 28q0 57 -22 88q-27 38 -89 38q-72 0 -114.5 -57.5t-65.5 -186.5l-24 -137h414l13 76q37 206 182 311.5t395 105.5q87 0 181.5 -12t196.5 -37l-42 -239h-101q1 9 1 17q0 74 -42 114q-46 45 -140 45q-133 0 -208 -71t-102 -224l-15 -86h643 l-165 -942h137l-21 -121h-455l165 942h-325l-170 -971q-31 -177 -149 -268.5t-315 -91.5q-76 0 -147.5 9.5t-138.5 28.5l40 228h101q-1 -15 -1 -28q0 -57 22 -88q27 -38 89 -38q72 0 114.5 57.5t64.5 186.5z" />
<glyph unicode="&#x192;&#x192;l" horiz-adv-x="2112" d="M989 942h-409l-171 -971q-32 -177 -149 -269q-118 -91 -315 -91q-76 0 -147.5 9.5t-138.5 28.5l40 228h101q-1 -15 -1 -28q0 -57 22 -88q27 -38 89 -38q72 0 114 57q42 58 65 187l173 975h-143l22 121h142l23 133q31 177 148.5 268.5t315.5 91.5q76 0 147.5 -9.5 t137.5 -28.5l-39 -228h-101q1 15 1 28q0 57 -22 88q-27 38 -89 38q-72 0 -114.5 -57.5t-65.5 -186.5l-24 -137h409l20 76q64 236 180 315q149 102 424 102h421l-251 -1435h136l-21 -121h-455l252 1444h-79q-127 0 -196.5 -70t-96.5 -225l-15 -86h217l-21 -121h-218 l-169 -971q-31 -177 -149 -268.5t-315 -91.5q-76 0 -147.5 9.5t-138.5 28.5l40 228h101q-1 -15 -1 -28q0 -57 22 -88q27 -38 89 -38q72 0 114.5 57.5t64.5 186.5z" />
<glyph unicode="&#xd;" horiz-adv-x="682" />
<glyph unicode=" "  horiz-adv-x="641" />
<glyph unicode="&#x09;" horiz-adv-x="641" />
<glyph unicode="&#xa0;" horiz-adv-x="641" />
<glyph unicode="!" horiz-adv-x="809" d="M134 162q14 78 73.5 134t130 56t111 -56t26.5 -134q-13 -79 -73.5 -135t-130.5 -56t-110.5 56t-26.5 135zM369 1493h337l-254 -842l-33 -190h-125l33 190z" />
<glyph unicode="&#x22;" horiz-adv-x="960" d="M389 1493v-555h-213v555h213zM785 1493v-555h-213v555h213z" />
<glyph unicode="#" d="M922 872h-238l-63 -274h238zM820 1470l-86 -385h237l87 385h199l-87 -385h249v-213h-297l-62 -274h256v-215h-303l-86 -383h-199l86 383h-237l-87 -383h-200l86 383h-251v215h295l63 274h-254v213h304l86 385h201z" />
<glyph unicode="$" horiz-adv-x="1282" d="M76 59l51 291h108q-9 -134 50.5 -200t188.5 -66h13l71 405q-215 55 -295.5 150t-51.5 258q31 180 159.5 283.5t327.5 109.5l47 269h109l-47 -269q99 -6 187.5 -27.5t169.5 -60.5l-48 -272h-109q6 116 -51.5 180.5t-168.5 66.5l-65 -372q232 -59 312.5 -158.5t48.5 -279.5 q-32 -185 -163.5 -287.5t-343.5 -108.5l-47 -270h-109l47 270q-99 2 -196.5 24t-194.5 64zM678 1178q-78 -11 -130 -53t-63 -103q-12 -70 18.5 -113t115.5 -71zM596 84q93 11 147 54.5t67 117.5t-22 122t-127 79z" />
<glyph unicode="%" horiz-adv-x="1751" d="M516 1419q-58 0 -95.5 -69.5t-66.5 -235.5q-29 -167 -16 -237t71 -70t95.5 70t66.5 237q29 166 16 235.5t-71 69.5zM533 1520q172 0 245 -104.5t38.5 -301.5t-144 -302t-281.5 -105q-171 0 -244 105t-38.5 302t144 301.5t280.5 104.5zM1354 1520h155l-1112 -1549h-154z M1359 784q172 0 245 -104.5t38 -300.5q-34 -197 -143.5 -302.5t-281.5 -105.5q-171 0 -244 105.5t-38 302.5q34 196 143.5 300.5t280.5 104.5zM1341.5 684q-58.5 0 -95.5 -69.5t-66 -235.5q-30 -167 -16.5 -237t71.5 -70t95.5 70t66.5 237q30 166 16.5 235.5t-72 69.5z" />
<glyph unicode="&#x26;" horiz-adv-x="1664" d="M1500 0h-431l-91 131q-104 -80 -220 -120t-245 -40q-270 0 -400 128q-100 98 -100 253q0 47 9 99q29 163 127 278.5t279 198.5q-34 67 -47 128q-6 34 -6 66q0 26 4 52q29 164 168.5 255t363.5 91q67 0 153.5 -12t194.5 -35l-55 -312h-116q1 14 1 28q0 103 -38 153 q-42 57 -138 57q-91 0 -151.5 -48t-75.5 -130q-2 -11 -2 -23q0 -92 115 -251q15 -20 22 -29l330 -482q66 68 112 157t74 202l21 120h286l-21 -120h-158q-41 -146 -101.5 -259t-142.5 -200l148 -215h153zM910 229l-405 588q-61 -67 -99.5 -142.5t-53.5 -158.5q-8 -47 -8 -89 q0 -110 55 -189q77 -109 225 -109q70 0 140.5 24.5t145.5 75.5z" />
<glyph unicode="'" horiz-adv-x="564" d="M389 1493v-555h-213v555h213z" />
<glyph unicode="(" horiz-adv-x="872" d="M612 -319q-282 125 -390.5 358t-48 579t248.5 576t518 362l-21 -120q-159 -96 -254.5 -284.5t-156.5 -533.5q-60 -344 -30.5 -532.5t155.5 -284.5z" />
<glyph unicode=")" horiz-adv-x="872" d="M-70 -319l21 120q159 96 254.5 284.5t155.5 532.5q60 345 30.5 533.5t-154.5 284.5l21 120q283 -132 391 -362t47.5 -576t-251 -579t-515.5 -358z" />
<glyph unicode="*" horiz-adv-x="963" d="M923 1212l-324 -168l324 -170l-88 -155l-295 239l24 -389h-164l24 389l-295 -239l-89 155l325 170l-325 168l89 158l295 -242l-24 392h164l-24 -392l295 242z" />
<glyph unicode="+" d="M876 1284v-526h473v-230h-473v-526h-207v526h-474v230h474v526h207z" />
<glyph unicode="," horiz-adv-x="641" d="M-9 -197q109 84 171 188t87 242l15 86h256l-1 -8q-39 -221 -150 -380.5t-303 -268.5z" />
<glyph unicode="-" horiz-adv-x="765" d="M124 684h565l-48 -270h-565z" />
<glyph unicode="." horiz-adv-x="641" d="M149 162q14 78 74.5 134t130.5 56q71 0 111.5 -56t26.5 -134q-13 -79 -73.5 -135t-131.5 -56q-70 0 -110.5 56t-27.5 135z" />
<glyph unicode="/" horiz-adv-x="673" d="M621 1493h199l-768 -1683h-199z" />
<glyph unicode="0" horiz-adv-x="1282" d="M527 88q108 0 167 109t136 548q76 436 55.5 547t-128.5 111t-167.5 -109t-135.5 -549q-77 -439 -56 -548t129 -109zM506 -29q-269 0 -377 199.5t-42.5 574.5t243.5 575t447 200q268 0 376.5 -200t42.5 -575t-244 -574.5t-446 -199.5z" />
<glyph unicode="1" horiz-adv-x="1282" d="M120 0l21 121h252l211 1208l-312 -184l26 149l377 226h284l-245 -1399h253l-21 -121h-846z" />
<glyph unicode="2" horiz-adv-x="1282" d="M307 1124h-108l56 322q116 37 227 55.5t221 18.5q256 0 379.5 -116.5t86.5 -324.5q-26 -148 -125.5 -265.5t-351.5 -278.5l-422 -273h636l31 176h124l-77 -438h-994l43 244l226 153q289 195 397.5 332t140.5 320q30 173 -18.5 263.5t-171.5 90.5q-107 0 -183 -71.5 t-117 -207.5z" />
<glyph unicode="3" horiz-adv-x="1282" d="M282 1450q125 35 239.5 52.5t220.5 17.5q243 0 356 -96.5t82 -276.5q-24 -135 -113 -219t-239 -113q171 -31 239.5 -133t37.5 -279q-37 -209 -205.5 -320.5t-450.5 -111.5q-107 0 -216 20t-226 60l58 328h108q-14 -142 43 -216.5t181 -74.5q137 0 226.5 84.5t116.5 239.5 q28 162 -34.5 250t-205.5 88h-59l21 120h47q132 0 210.5 68t102.5 203q22 127 -29 194.5t-168 67.5q-106 0 -179.5 -64.5t-107.5 -187.5h-109z" />
<glyph unicode="4" horiz-adv-x="1282" d="M1043 0h-739l21 121h200l47 272h-561l21 115l739 1012h338l-174 -998h230l-22 -129h-231l-47 -272h200zM595 522l126 725l-527 -725h401z" />
<glyph unicode="5" horiz-adv-x="1282" d="M1173 1493l-46 -262h-719l-58 -328q69 51 146.5 77t158.5 26q248 0 367.5 -139.5t77.5 -379.5q-43 -244 -210.5 -380t-426.5 -136q-110 0 -215 20t-216 62l57 326h108q-20 -147 31 -219t175 -72q132 0 213.5 98.5t116.5 300.5q35 199 -10.5 297.5t-172.5 98.5 q-68 0 -127 -31.5t-117 -97.5h-90l130 739h827z" />
<glyph unicode="6" horiz-adv-x="1282" d="M478 885q68 52 145 78t162 26q206 0 300 -134t53 -368q-43 -247 -199 -381.5t-399 -134.5q-276 0 -385.5 184.5t-46.5 542.5q71 407 265 614.5t503 207.5q81 0 171 -15t191 -45l-46 -264h-109q-4 102 -57.5 154.5t-152.5 52.5q-160 0 -253 -122t-142 -396zM539.5 88 q92.5 0 147.5 87.5t92.5 303.5t13.5 303.5t-117 87.5t-147.5 -87.5t-92 -303.5t-13.5 -303.5t116.5 -87.5z" />
<glyph unicode="7" horiz-adv-x="1282" d="M1216 1239l-771 -1239h-183l751 1210h-663l-35 -202h-123l84 485h984z" />
<glyph unicode="8" horiz-adv-x="1282" d="M865 795q156 -29 221 -131t37 -267q-37 -206 -196 -316t-422.5 -110t-385 110t-85.5 316q29 165 130.5 267t266.5 131q-135 36 -190.5 120.5t-32.5 214.5q33 190 178 290t389 100q243 0 354 -100t78 -290q-23 -130 -108.5 -214.5t-233.5 -120.5zM858 1126 q27 158 3.5 217.5t-106.5 59.5q-84 0 -128 -59.5t-72 -217.5q-27 -157 -3.5 -215.5t107 -58.5t127.5 58.5t72 215.5zM768 414q32 183 2.5 252t-132.5 69t-156.5 -69t-85.5 -252q-33 -185 -3.5 -255.5t132.5 -70.5q102 0 156.5 70.5t86.5 255.5z" />
<glyph unicode="9" horiz-adv-x="1282" d="M743.5 1403q-92.5 0 -147 -87.5t-92.5 -303.5t-14 -303.5t116.5 -87.5t147.5 87.5t93 303.5t13.5 303.5t-117 87.5zM805 608q-69 -53 -146 -79.5t-162 -26.5q-205 0 -299 133.5t-53 368.5q44 248 198.5 382t398.5 134q276 0 385.5 -185t47.5 -542q-71 -407 -265 -614.5 t-504 -207.5q-81 0 -171 15t-191 45l46 264h109q5 -102 58.5 -154.5t153.5 -52.5q158 0 251.5 122.5t142.5 397.5z" />
<glyph unicode=":" horiz-adv-x="680" d="M226 813q14 79 73.5 135t130 56t111 -56.5t27 -134.5t-73.5 -133t-131 -55t-111 55t-26 133zM112 162q14 78 73.5 134t130 56t111 -56t26.5 -134q-13 -79 -73.5 -135t-130.5 -56t-110.5 56t-26.5 135z" />
<glyph unicode=";" horiz-adv-x="680" d="M252 813q14 79 74 135t130 56t110.5 -56.5t27 -134.5t-73 -133t-130.5 -55t-111 55t-27 133zM-44 -188q109 83 171 186.5t86 241.5l16 88h256q-39 -225 -151 -387t-303 -271z" />
<glyph unicode="&#x3c;" d="M1349 979l-881 -338l881 -336v-239l-1154 464v226l1154 463v-240z" />
<glyph unicode="=" d="M195 528h1154v-227h-1154v227zM195 983h1154v-227h-1154v227z" />
<glyph unicode="&#x3e;" d="M195 979v240l1154 -463v-226l-1154 -464v239l881 336z" />
<glyph unicode="?" horiz-adv-x="1080" d="M206 162q13 78 73.5 134t130.5 56q71 0 111.5 -56t27.5 -134q-14 -79 -74.5 -135t-131.5 -56q-70 0 -110.5 56t-26.5 135zM243 1452q118 34 221.5 51t198.5 17q227 0 329 -110.5t66 -315.5q-35 -202 -173 -318.5t-361 -134.5l-36 -205h-125l52 299q133 43 208 135 t102 246q25 144 -17 217.5t-149 73.5q-99 0 -164.5 -66t-96.5 -196h-108z" />
<glyph unicode="@" horiz-adv-x="1843" d="M1138 504l13 76q23 129 -19 207.5t-133 78.5q-89 0 -159 -87.5t-95.5 -235.5t13.5 -236t128 -88q91 0 160 77.5t92 207.5zM1092 240q-52 -72 -123 -110t-152 -38q-172 0 -249 120t-40.5 331t155.5 330.5t291 119.5q81 0 139 -38t85 -109l22 125h197l-130 -742 q136 39 226.5 156t121.5 293q25 143 -4 260t-114 213q-69 78 -173.5 120t-230.5 42q-117 0 -224.5 -35t-204.5 -104q-146 -106 -244 -270t-132 -361q-27 -155 -7.5 -292.5t81.5 -238.5q76 -119 191 -180t261 -61q110 0 218.5 34t213.5 101l35 -94q-130 -84 -262 -126 t-262 -42q-174 0 -309 63t-227 189q-92 124 -122.5 289.5t3 357.5t122 357t223.5 290q137 126 295 188t343 62q160 0 283 -48.5t209 -146.5q100 -111 135 -253t4 -316q-48 -276 -217 -430t-425 -154h-28z" />
<glyph unicode="A" horiz-adv-x="1430" d="M-145 0l21 121h110l746 1372h215l267 -1372h127l-21 -121h-629l21 121h132l-58 305h-505l-165 -305h160l-21 -121h-400zM347 547h416l-107 571z" />
<glyph unicode="B" horiz-adv-x="1557" d="M-44 0l21 121h172l219 1251h-172l21 121h796q246 0 353.5 -92t74.5 -277q-23 -133 -121.5 -211t-269.5 -98q199 -21 289.5 -120t61.5 -263q-39 -222 -208 -327t-490 -105h-747zM626 870h118q155 0 240.5 62.5t108.5 191.5q23 130 -39.5 189t-221.5 59h-118zM495 121h129 q172 0 268 76t124 235q28 160 -42 239t-240 79h-129z" />
<glyph unicode="C" horiz-adv-x="1467" d="M1318 426q-94 -231 -251.5 -343t-389.5 -112q-340 0 -501 208.5t-99 565.5q63 358 297 566.5t574 208.5q120 0 244 -32t257 -97l-64 -367h-114q-2 188 -78.5 281.5t-228.5 93.5q-196 0 -319.5 -160.5t-182 -493.5t9 -493t265.5 -160q134 0 233.5 83t167.5 251h180z" />
<glyph unicode="D" horiz-adv-x="1598" d="M495 121h125q211 0 335 150t181 477q57 325 -14 474.5t-283 149.5h-125zM-44 0l21 121h172l219 1251h-172l21 121h689q362 0 520 -192t95 -553q-63 -363 -289 -555.5t-587 -192.5h-689z" />
<glyph unicode="E" horiz-adv-x="1404" d="M-44 0l21 121h172l219 1251h-172l21 121h1208l-62 -352h-124l38 215h-566l-83 -479h352l33 190h123l-90 -516h-124l34 190h-352l-106 -604h582l38 215h123l-61 -352h-1224z" />
<glyph unicode="F" horiz-adv-x="1308" d="M-44 0l21 121h172l219 1251h-172l21 121h1198l-62 -352h-123l38 215h-555l-84 -479h342l33 190h123l-90 -516h-123l33 190h-341l-109 -620h212l-21 -121h-732z" />
<glyph unicode="G" horiz-adv-x="1574" d="M1317 1024q-6 198 -85 286.5t-251 88.5q-209 0 -334 -157.5t-184 -496.5q-59 -336 6.5 -494.5t263.5 -158.5q76 0 144 19t128 57l72 410h-162l21 120h484l-100 -573q-165 -78 -322.5 -116t-314.5 -38q-346 0 -507.5 207t-98.5 567q63 361 297 568t580 207 q144 0 277.5 -32t263.5 -97l-64 -367h-114z" />
<glyph unicode="H" horiz-adv-x="1741" d="M-44 0l21 121h172l219 1251h-172l21 121h691l-21 -121h-173l-88 -502h535l88 502h-172l21 121h691l-21 -121h-173l-219 -1251h173l-21 -121h-691l21 121h172l107 612h-535l-107 -612h173l-21 -121h-691z" />
<glyph unicode="I" horiz-adv-x="862" d="M-44 0l21 121h172l219 1251h-172l21 121h691l-21 -121h-173l-219 -1251h173l-21 -121h-691z" />
<glyph unicode="J" horiz-adv-x="872" d="M-291 -358l41 235h117q-11 -94 16 -138t95 -44q88 0 135.5 74.5t83.5 279.5l231 1323h-195l21 121h716l-21 -121h-172l-233 -1331q-43 -243 -172.5 -355t-370.5 -112q-74 0 -147 17t-145 51z" />
<glyph unicode="K" horiz-adv-x="1602" d="M-44 0l21 121h172l219 1251h-172l21 121h691l-21 -121h-173l-95 -545l665 545h-144l21 121h501l-21 -121h-179l-563 -461l518 -790h132l-21 -121h-455l-472 725l-106 -604h173l-21 -121h-691z" />
<glyph unicode="L" horiz-adv-x="1296" d="M-44 0l21 121h172l219 1251h-172l21 121h691l-21 -121h-173l-216 -1235h529l42 236h121l-65 -373h-1169z" />
<glyph unicode="M" horiz-adv-x="2040" d="M-53 0l21 121h171l219 1251h-171l21 121h554l216 -958l553 958h553l-21 -121h-172l-218 -1251h171l-21 -121h-691l21 121h171l200 1139l-599 -1041h-228l-233 1041l-199 -1139h171l-21 -121h-468z" />
<glyph unicode="N" horiz-adv-x="1684" d="M-50 0l22 121h171l219 1251h-172l22 121h420l626 -1057l164 936h-171l21 121h470l-22 -121h-171l-240 -1372h-236l-635 1079l-168 -958h171l-21 -121h-470z" />
<glyph unicode="O" horiz-adv-x="1605" d="M688 92q171 0 283 161t170 492q58 332 2.5 493t-227.5 161q-171 0 -283.5 -162.5t-169.5 -491.5q-58 -328 -2 -490.5t227 -162.5zM666 -29q-339 0 -495.5 206t-93 568t292.5 568.5t567 206.5q340 0 496.5 -206t92.5 -569q-63 -362 -292 -568t-568 -206z" />
<glyph unicode="P" horiz-adv-x="1386" d="M-44 0l21 121h172l219 1251h-172l21 121h765q224 0 335.5 -118.5t76.5 -317.5q-35 -200 -188.5 -319.5t-376.5 -119.5h-247l-87 -497h217l-21 -121h-735zM603 739h101q117 0 202 86.5t110 231.5q26 144 -28.5 229.5t-172.5 85.5h-101z" />
<glyph unicode="Q" horiz-adv-x="1605" d="M694 -29q-340 6 -493 210q-109 145 -109 368q0 91 18 196q63 362 292.5 568.5t567.5 206.5q339 0 496 -206q111 -147 111 -373q0 -91 -18 -196q-56 -318 -238.5 -516t-464.5 -245q38 -57 102 -82q148 -58 270 -58h173l-43 -246h-154q-227 0 -367 115q-100 82 -143 258z M720 92q172 0 284 161t170 492q29 170 29 295q0 119 -27 198q-55 161 -227 161q-171 0 -283.5 -162.5t-170.5 -491.5q-29 -166 -29 -290q0 -120 27 -201q56 -162 227 -162z" />
<glyph unicode="R" horiz-adv-x="1531" d="M975 729q78 -13 125 -59t72 -133l123 -416h138l-21 -121h-442l-135 451q-38 140 -75 178.5t-114 38.5h-55l-96 -547h173l-21 -121h-691l21 121h172l219 1251h-172l21 121h767q234 0 343 -104.5t75 -296.5q-27 -156 -133.5 -246.5t-293.5 -116.5zM612 788h118 q126 0 207 76t106 217t-30 216t-181 75h-118z" />
<glyph unicode="S" horiz-adv-x="1331" d="M24 72l62 354h115q-4 -168 79 -251t255 -83q139 0 222.5 59t102.5 173q16 90 -24.5 140t-188.5 93l-192 55q-187 56 -249.5 155.5t-30.5 283.5q39 222 193 345.5t394 123.5q118 0 241.5 -22t252.5 -66l-58 -330h-114q1 154 -75 225.5t-239 71.5q-133 0 -210 -51.5 t-95 -153.5q-16 -93 22.5 -141.5t211.5 -100.5l192 -55q179 -52 243.5 -162t31.5 -303q-40 -226 -201 -343.5t-434 -117.5q-131 0 -256 25t-251 76z" />
<glyph unicode="T" horiz-adv-x="1371" d="M203 0l21 121h179l216 1235h-368l-42 -236h-123l65 373h1332l-65 -373h-121l41 236h-371l-216 -1235h179l-21 -121h-706z" />
<glyph unicode="U" horiz-adv-x="1607" d="M346 1372h-171l21 121h691l-21 -121h-172l-130 -747q-49 -279 9.5 -390.5t248.5 -111.5q186 0 283.5 112.5t145.5 389.5l131 747h-171l21 121h468l-21 -121h-172l-134 -768q-60 -342 -219 -487.5t-473 -145.5q-312 0 -420.5 147t-48.5 488z" />
<glyph unicode="V" horiz-adv-x="1430" d="M1587 1493l-21 -121h-113l-747 -1372h-214l-266 1372h-127l21 121h630l-21 -121h-131l190 -989l538 989h-160l21 121h400z" />
<glyph unicode="W" horiz-adv-x="2070" d="M1440 0h-232l-114 1087l-495 -1087h-232l-143 1372h-131l21 121h638l-22 -121h-144l97 -917l471 1038h255l111 -1055l425 934h-160l21 121h416l-21 -121h-138z" />
<glyph unicode="X" horiz-adv-x="1430" d="M595 575l-360 -454h166l-21 -121h-477l21 121h165l454 571l-301 680h-124l22 121h667l-21 -121h-147l186 -420l331 420h-156l21 121h468l-21 -121h-166l-426 -536l316 -715h127l-21 -121h-671l21 121h150z" />
<glyph unicode="Y" horiz-adv-x="1315" d="M186 0l21 121h181l87 497l-267 754h-115l21 121h645l-21 -121h-150l203 -569l400 569h-134l21 121h385l-21 -121h-114l-495 -702l-96 -549h180l-21 -121h-710z" />
<glyph unicode="Z" horiz-adv-x="1345" d="M-62 0l24 141l1015 1215h-644l-39 -223h-123l63 360h1166l-24 -141l-1006 -1215h679l37 209h123l-61 -346h-1210z" />
<glyph unicode="[" horiz-adv-x="872" d="M390 1556h510l-21 -120h-191l-278 -1586h192l-21 -120h-510z" />
<glyph unicode="\" horiz-adv-x="673" d="M346 1493l180 -1683h-200l-179 1683h199z" />
<glyph unicode="]" horiz-adv-x="872" d="M801 1556l-319 -1826h-511l21 120h191l278 1586h-192l21 120h511z" />
<glyph unicode="^" d="M876 1493l482 -557h-192l-394 315l-394 -315h-192l489 557h201z" />
<glyph unicode="_" horiz-adv-x="921" d="M922 -293v-190h-922v190h922z" />
<glyph unicode="`" horiz-adv-x="921" d="M488 1638l165 -376h-147l-269 376h251z" />
<glyph unicode="a" horiz-adv-x="1194" d="M757 876q-3 60 -54 60q-121 0 -239 -160q-54 -74 -98 -321q-32 -185 -9 -256.5t110 -71.5q83 0 135.5 83t84.5 269zM1063 1031l-158 -910l120 2l-21 -123h-400l23 135q-99 -164 -274 -164q-174 0 -251 127.5t-38 349.5q39 223 211 416q205 228 478 228q270 0 310 -61z " />
<glyph unicode="b" horiz-adv-x="1288" d="M297 1436h-137l21 120h455l-110 -628q55 83 130.5 123.5t176.5 40.5q205 0 296 -150q61 -99 61 -248q0 -75 -16 -162q-45 -261 -189 -411t-348 -150q-101 0 -162 40.5t-87 123.5l-24 -135h-318zM448 479q-17 -100 -17 -170q0 -60 13 -99q28 -83 123 -83q98 0 153.5 88 t95.5 317q25 142 25 229q0 54 -9 87q-25 88 -123 88q-96 0 -153 -83t-90 -269z" />
<glyph unicode="c" horiz-adv-x="1122" d="M1005 332q-66 -182 -187.5 -271.5t-303.5 -89.5q-256 0 -370 147q-82 104 -82 270q0 67 14 144q46 264 210.5 412t410.5 148q100 0 198 -21t196 -63l-51 -295h-101q2 23 2 44q0 102 -38 157q-45 65 -148 65q-133 0 -207 -100t-117 -347q-22 -129 -22 -218q0 -78 17 -126 q37 -104 161 -104q96 0 165.5 64t102.5 184h150z" />
<glyph unicode="d" horiz-adv-x="1288" d="M741 479l19 105q17 99 17 169q0 61 -13 100q-29 83 -124 83q-99 0 -154 -87.5t-95 -316.5q-25 -141 -25 -228q0 -55 10 -89q25 -88 123 -88q94 0 152 83t90 269zM1248 1556l-272 -1556h-318l23 135q-55 -83 -131 -123.5t-177 -40.5q-203 0 -293 150q-60 100 -60 248 q0 75 15 163q46 262 188.5 411t346.5 149q100 0 162 -40.5t88 -123.5l89 508h-137l21 120h455z" />
<glyph unicode="e" horiz-adv-x="1172" d="M774 832q0 147 -112 147q-85 0 -135.5 -89.5t-96.5 -370.5h20q275 0 318 243q6 38 6 70zM409 400q-6 -34 -6 -105q1 -211 186 -211q103 0 178 61t112 177h150q-71 -181 -201 -266t-337 -85q-248 0 -355 145q-75 102 -75 263q0 69 15 150q46 267 208 415t399 148 q172 0 291.5 -74.5t119.5 -209.5q0 -27 -6 -56q-57 -324 -679 -352z" />
<glyph unicode="f" horiz-adv-x="792" d="M-88 -277q72 0 114 57.5t65 186.5l171 975h-143l22 121h142l23 133q31 177 148.5 268.5t315.5 91.5q76 0 147.5 -9.5t137.5 -28.5l-39 -228h-101q1 15 1 28q0 57 -22 88q-27 38 -89 38q-72 0 -114.5 -57.5t-65.5 -186.5l-24 -137h241l-21 -121h-241l-170 -971 q-36 -209 -148 -269q-174 -91 -371 -91q10 56 21 112z" />
<glyph unicode="g" horiz-adv-x="1288" d="M889 876q-5 60 -63 60q-164 0 -266 -160q-65 -101 -103 -321q-32 -185 -4.5 -256.5t125.5 -71.5q94 0 151.5 83t89.5 269zM1228 996l-172 -982q-43 -246 -204 -346q-196 -123 -427 -123q-95 0 -190 16.5t-193 49.5l44 254h102v-17q0 -92 49 -139q53 -51 169 -51 q148 0 222.5 78.5t109.5 277.5l21 121q-110 -164 -312 -164q-201 0 -293.5 127.5t-54.5 349.5q48 272 276 468q203 176 504 176q241 0 349 -96z" />
<glyph unicode="h" horiz-adv-x="1340" d="M63 0l251 1436h-142l21 120h461l-113 -643q74 95 155.5 137t193.5 42q161 0 225 -106q41 -67 41 -175q0 -61 -13 -135l-97 -555h137l-21 -121h-456l120 686q13 70 13 118q0 44 -11 70q-22 52 -98 52q-97 0 -155.5 -78.5t-88.5 -249.5l-105 -598h-318z" />
<glyph unicode="i" horiz-adv-x="700" d="M272 1364q14 81 74 136.5t133 55.5q71 0 111 -56q30 -41 30 -96q0 -19 -4 -40q-13 -79 -73 -134.5t-131 -55.5q-73 0 -113 55q-31 41 -31 96q0 19 4 39zM403 121h136l-21 -121h-455l165 942h-136l21 121h454z" />
<glyph unicode="j" horiz-adv-x="666" d="M303 1364q14 81 73.5 136.5t133.5 55.5q70 0 111 -56q30 -42 30 -97q0 -18 -4 -39q-14 -79 -73.5 -134.5t-130.5 -55.5q-73 0 -114 55q-30 41 -30 96q0 19 4 39zM266 942h-136l21 121h454l-207 -1188q-29 -163 -147.5 -246.5t-321.5 -83.5q-54 0 -113.5 10t-121.5 29 l40 226l101 -1q-4 -30 -4 -54q0 -39 12 -61q21 -36 80 -36q66 0 100 47t56 170z" />
<glyph unicode="k" horiz-adv-x="1277" d="M381 0h-318l251 1436h-136l21 120h455l-175 -999l453 385h-114l21 121h259l-21 -121l-289 -246l302 -575h104l-22 -121h-351l-263 500l-105 -88z" />
<glyph unicode="l" horiz-adv-x="700" d="M403 121h136l-21 -121h-455l251 1436h-136l21 120h455z" />
<glyph unicode="m" horiz-adv-x="1950" d="M1179 889q85 106 171 154.5t189 48.5q165 0 228 -104q40 -65 40 -173q0 -63 -13 -139l-97 -555h137l-22 -121h-455l109 623q23 130 23 198q0 35 -6 53q-19 52 -94 52q-84 0 -143.5 -72.5t-83.5 -206.5l-113 -647h-318l109 623q22 129 22 196q0 37 -6 55q-19 52 -93 52 q-85 0 -144.5 -72.5t-83.5 -206.5l-113 -647h-319l165 942h-136l21 121h455l-26 -150q72 93 151.5 136t178.5 43q117 0 181 -49.5t86 -153.5z" />
<glyph unicode="n" horiz-adv-x="1340" d="M103 0l165 942h-136l21 121h455l-26 -150q74 95 155 137t194 42q161 0 225 -106q41 -67 41 -175q0 -61 -13 -135l-97 -555h136l-21 -121h-455l120 686q12 70 12 118q0 44 -10 70q-22 52 -99 52q-96 0 -154.5 -78.5t-88.5 -249.5l-105 -598h-319z" />
<glyph unicode="o" horiz-adv-x="1229" d="M537 84q101 0 159 96t102 352q30 167 30 266q0 52 -9 86q-23 95 -125 95t-160 -96.5t-103 -350.5q-28 -164 -28 -262q0 -55 8 -89q25 -97 126 -97zM517.5 -29q-252.5 0 -370.5 149q-84 108 -84 274q0 64 13 138q46 263 215.5 411.5t422.5 148.5t371 -148q84 -107 84 -273 q0 -65 -13 -139q-46 -262 -216 -411.5t-422.5 -149.5z" />
<glyph unicode="p" horiz-adv-x="1288" d="M542 584l-19 -105q-17 -100 -17 -170q0 -60 13 -99q28 -83 124 -83q98 0 153.5 88t95.5 317q24 142 24 229q0 54 -9 87q-25 88 -123 88q-95 0 -152.5 -83t-89.5 -269zM286 942h-137l21 121h455l-23 -135q55 83 130.5 123.5t176.5 40.5q204 0 295 -150q61 -99 61 -248 q0 -75 -15 -162q-46 -261 -189.5 -411t-348.5 -150q-100 0 -161.5 40.5t-87.5 123.5l-98 -561h-319z" />
<glyph unicode="q" horiz-adv-x="1288" d="M1226 996l-227 -1296l145 -2l-22 -122l-464 -2l98 561q-110 -164 -312 -164q-201 0 -293.5 127.5t-53.5 349.5q47 272 275 468q204 176 504 176q242 0 350 -96zM886 876q-5 60 -63 60q-164 0 -266 -160q-64 -101 -103 -321q-32 -185 -4 -256.5t125 -71.5q94 0 151.5 83 t90.5 269z" />
<glyph unicode="r" horiz-adv-x="971" d="M1083 1075l-56 -317h-102q3 21 3 39q0 56 -22 87q-29 42 -97 42q-104 0 -182.5 -102t-109.5 -283l-95 -541h-319l165 942h-146l22 121h464l-33 -189q66 111 152.5 164.5t197.5 53.5q28 0 67.5 -4.5t90.5 -12.5z" />
<glyph unicode="s" horiz-adv-x="1037" d="M50 328h102q-1 -15 -1 -29q0 -98 53 -156.5t160 -58.5q210 0 235 145q4 19 4 47q0 27 -23 57t-113 56l-125 37q-141 41 -186 106t-45 145q0 34 6 73q31 173 153.5 257.5t319 84.5t410.5 -64l-48 -268h-102q3 19 3 36q0 183 -203 183q-204 0 -228 -135q-3 -16 -3 -39 q0 -65 111 -98l124 -37q179 -53 228.5 -119.5t49.5 -152.5q0 -35 -7 -76q-31 -180 -161.5 -265.5t-374.5 -85.5q-177 0 -390 60z" />
<glyph unicode="t" horiz-adv-x="851" d="M228 942h-138l21 121h138l58 330h319l-58 -330h265l-21 -121h-265l-114 -651q-16 -89 -16 -134q0 -27 5 -39q14 -34 66 -34q58 0 93.5 43t52.5 133h135q-37 -160 -118.5 -224.5t-254.5 -64.5q-197 0 -256 69q-37 44 -37 136q0 50 11 115z" />
<glyph unicode="u" horiz-adv-x="1340" d="M1237 1063l-165 -942h136l-21 -121h-456l26 150q-73 -95 -154 -137t-194 -42q-161 0 -225 105q-41 68 -41 176q0 61 13 135l97 555h-136l21 121h455l-108 -621q-22 -125 -22 -192q0 -40 7 -60q21 -53 100 -53q96 0 154.5 79t88.5 251l104 596h320z" />
<glyph unicode="v" horiz-adv-x="1071" d="M574 0h-256l-174 942h-105l21 121h389l147 -793q23 0 168 214q132 204 191 458h-106l22 123l214 -2q2 -249 -179 -583q-172 -316 -332 -480z" />
<glyph unicode="w" horiz-adv-x="1586" d="M1185 300q8 8 135 182q128 183 179 460l-125 -2l21 123h245q-51 -382 -164 -578q-175 -305 -347 -485h-219l-86 666l-321 -666h-218l-125 942h-104l21 121h392l92 -696l336 696h190z" />
<glyph unicode="x" horiz-adv-x="1098" d="M673 678l314 385h128l-409 -500l207 -442h127l-21 -121h-408l-187 401l-330 -401h-128l422 518l-200 424h-107l21 121h390z" />
<glyph unicode="y" horiz-adv-x="1071" d="M447 -273l-256 1215h-104l21 121h391l215 -1028q103 166 172.5 353.5t137.5 551.5l-128 1l21 121l258 1q-22 -128 -55 -293q-80 -406 -180 -594q-263 -490 -475 -580q-120 -51 -292 -51q-85 0 -208 43l39 222l101 -1q-3 -24 -3 -44q0 -69 42 -91q19 -10 58 -16 q21 -3 43 -3q100 0 202 72z" />
<glyph unicode="z" horiz-adv-x="1046" d="M1057 944l-631 -749q31 -12 56 -29q114 -68 186 -68q108 0 270 145l-28 -158q-160 -168 -304 -168q-74 4 -189 68q-129 73 -179.5 73t-102.5 -23t-74 -37l-89 2l21 121l628 748q-29 11 -54 28q-114 68 -185 68q-108 0 -270 -145l27 158q160 168 304 168q75 -4 189 -68 q129 -73 179.5 -73t103 23t73.5 37l90 -2z" />
<glyph unicode="{" horiz-adv-x="1185" d="M876 -213l-22 -121h-133q-212 0 -281.5 24.5t-103.5 86.5q-20 36 -21.5 91t17.5 167l44 250q26 151 -12 208.5t-165 57.5h-55l21 121h55q127 0 185.5 57.5t84.5 208.5l44 250q19 112 40 166.5t54 91.5q55 61 133 85.5t291 24.5h133l-21 -120h-93q-100 0 -145.5 -47 t-69.5 -183l-47 -270q-28 -159 -84 -226.5t-178 -97.5q112 -34 144.5 -100t4.5 -225l-48 -271q-23 -135 5.5 -182t129.5 -47h93z" />
<glyph unicode="|" horiz-adv-x="670" d="M431 1565v-2048h-193v2048h193z" />
<glyph unicode="}" horiz-adv-x="1185" d="M23 -213h91q100 0 145.5 47t69.5 182l47 271q28 157 83.5 224t180.5 101q-112 30 -145 98t-5 226l47 270q24 136 -5 183t-129 47h-91l21 120h131q213 0 282.5 -24.5t103.5 -85.5q20 -37 21.5 -91.5t-18.5 -166.5l-43 -250q-27 -151 11 -208.5t164 -57.5h56l-21 -121h-56 q-126 0 -184 -57.5t-85 -208.5l-43 -250q-20 -112 -41 -167t-53 -91q-56 -62 -134 -86.5t-291 -24.5h-131z" />
<glyph unicode="~" d="M1349 831v-206q-84 -86 -168 -127t-175 -41q-85 0 -222 58q-15 6 -23 9q-6 3 -18 8q-154 66 -242 66q-69 0 -144 -36t-162 -109v206q87 87 170 127.5t173 40.5q86 0 222 -57q16 -7 23 -10l13 -6q156 -68 247 -68q69 0 144.5 36t161.5 109z" />
<glyph unicode="&#xa1;" horiz-adv-x="809" d="M674.5 1329q-13.5 -78 -73.5 -133t-130 -55q-71 0 -111 55t-26 133q13 79 73 135t130 56t110.5 -56.5t27 -134.5zM440 0h-337l252 842l34 190h125l-33 -190z" />
<glyph unicode="&#xa2;" horiz-adv-x="1282" d="M589 94l153 875q-93 -25 -150 -125.5t-94 -311.5t-15.5 -311t106.5 -127zM1075 332q-56 -157 -156.5 -246.5t-240.5 -108.5l-49 -276h-109l48 270q-249 6 -359 152.5t-64.5 408.5t207 407.5t412.5 152.5l46 264h109l-47 -269q52 -4 121 -23t169 -56l-52 -295h-101 q8 126 -30 190.5t-126 75.5l-156 -891q85 16 142.5 77t86.5 167h149z" />
<glyph unicode="&#xa3;" horiz-adv-x="1282" d="M1200 1202h-108q11 97 -24 151t-111 54q-105 0 -164 -74.5t-89 -249.5l-47 -268h317l-22 -121h-316l-98 -557h378l40 228h123l-64 -365h-1016l22 121h173l100 573h-173l21 121h174l48 277q38 216 176.5 322t385.5 106q58 0 138 -9t185 -26z" />
<glyph unicode="&#xa4;" horiz-adv-x="1172" d="M588 422q82 0 139.5 63.5t57.5 155.5t-57.5 155.5t-139.5 63.5t-139.5 -63.5t-57.5 -155.5q0 -93 56.5 -156t140.5 -63zM392 268l-188 -207l-136 154l188 209q-27 46 -40.5 99.5t-13.5 117.5q0 63 14 117t40 100l-188 205l138 158l186 -211q44 30 92.5 44.5t103.5 14.5 q49 0 98 -14.5t101 -44.5l184 211l137 -154l-188 -205q27 -56 40 -111.5t13 -109.5q0 -63 -13 -115.5t-40 -99.5l188 -211l-140 -154l-187 211q-41 -30 -89 -44.5t-104 -14.5q-52 0 -101 14t-95 41z" />
<glyph unicode="&#xa5;" horiz-adv-x="1282" d="M163 0l21 121h171l61 346h-363l20 117h363l10 59l-31 135h-308l21 117h257l-117 477h-123l21 121h624l-21 -121h-153l136 -551l327 551h-136l21 121h392l-21 -121h-121l-283 -477h263l-20 -117h-315l-68 -116l-14 -78h363l-21 -117h-362l-61 -346h171l-21 -121h-683z" />
<glyph unicode="&#xa6;" horiz-adv-x="670" d="M431 1432v-758h-193v758h193zM431 408v-758h-193v758h193z" />
<glyph unicode="&#xa7;" horiz-adv-x="963" d="M949 1475l-42 -240h-107q10 86 -29.5 129t-126.5 43q-73 0 -120.5 -37t-58.5 -104q-9 -47 10 -80t91 -80l109 -72q153 -98 202 -182t29 -199q-19 -104 -83 -178t-174 -117q66 -47 89.5 -110.5t8.5 -153.5q-24 -137 -135.5 -213t-291.5 -76q-75 0 -154.5 11.5t-167.5 33.5 l42 240h106q-8 -90 31.5 -131t135.5 -41q78 0 126.5 37t60.5 106q8 47 -10 80t-92 80l-109 72q-152 99 -201 183t-29 198q18 103 82.5 176t175.5 117q-67 46 -91 110.5t-9 153.5q24 136 135.5 212.5t288.5 76.5q66 0 142.5 -11.5t165.5 -33.5zM397 901q-45 -33 -72.5 -72 t-35.5 -84q-11 -61 21 -112t121 -109l136 -88q47 35 75 74.5t35 81.5q11 60 -22 111t-124 110z" />
<glyph unicode="&#xa8;" horiz-adv-x="921" d="M302 1468q10 60 57 103t101 43t85 -43t20 -103t-57 -104q-45 -43 -98 -43q-54 0 -87 44q-31 44 -21 103zM704 1468q11 60 57 103t100 43t86.5 -43t21.5 -103q-10 -59 -57 -103t-101 -44t-85.5 44t-21.5 103z" />
<glyph unicode="&#xa9;" horiz-adv-x="1843" d="M921.5 1485q136.5 0 255 -55t216.5 -164t146.5 -240t48.5 -285q0 -152 -48.5 -282.5t-146.5 -239.5t-216.5 -164t-255 -55t-255 55t-216.5 164t-146.5 239.5t-48.5 282.5q0 154 48.5 285t146.5 240t216.5 164t255 55zM921.5 1331q-108.5 0 -202 -43.5t-172.5 -130.5 q-77 -86 -116 -189.5t-39 -226.5q0 -122 39 -225.5t116.5 -189.5t171.5 -129t203 -43q110 0 203 42.5t171 129.5q77 86 116 189.5t39 225.5q0 123 -39 226.5t-116 189.5q-79 88 -172.5 131t-202 43zM1252 580q-24 -139 -106.5 -209t-222.5 -70q-169 0 -273.5 121t-104.5 319 q0 202 105.5 322.5t281.5 120.5q72 0 144 -18.5t150 -57.5v-223h-95q-11 94 -58 147t-120 53q-93 0 -147 -91.5t-54 -252.5t53.5 -251.5t147.5 -90.5q66 0 110 46t65 135h124z" />
<glyph unicode="&#xaa;" horiz-adv-x="897" d="M595 1136l12 66q8 44 8 79q0 56 -19 92q-25 47 -75 47q-12 0 -25 -3q-68 -14 -123 -98.5t-78 -212.5q-10 -56 -10 -101q0 -57 16 -94q24 -56 74 -56q11 0 23 2q69 15 123 91q55 76 74 188zM533 779l23 129q-41 -69 -97 -112q-55 -43 -116 -56q-31 -7 -58 -7 q-87 0 -131 68q-36 56 -36 151q0 54 12 120q32 183 125 302t224 146q22 5 42 5q36 0 63 -15q44 -22 63 -78l16 89h145l-104 -592h104l-27 -150h-248zM36 639h718l-23 -135h-719z" />
<glyph unicode="&#xab;" horiz-adv-x="1152" d="M1060 1069l-25 -147l-272 -322l159 -321l-26 -148l-354 385l29 168zM646 1069l-25 -147l-273 -322l160 -321l-26 -148l-354 385l29 168z" />
<glyph unicode="&#xac;" d="M195 903h1154v-616h-206v389h-948v227z" />
<glyph unicode="&#xad;" horiz-adv-x="765" d="M124 684h565l-48 -270h-565z" />
<glyph unicode="&#xae;" horiz-adv-x="1843" d="M1049 754q35 -11 62 -37.5t45 -67.5l90 -215h54v-82h-201l-105 254q-29 68 -55.5 89.5t-76.5 21.5h-23v-283h77v-82h-332v82h78v643h-78v82h408q108 0 170 -55t62 -150q0 -89 -44.5 -140t-130.5 -60zM839 799h60q71 0 109.5 36t38.5 103t-38.5 103t-109.5 36h-60v-278z M921.5 1485q136.5 0 255 -55t216.5 -164t146.5 -240t48.5 -285q0 -152 -48.5 -282.5t-146.5 -239.5t-216.5 -164t-255 -55t-255 55t-216.5 164t-146.5 239.5t-48.5 282.5q0 154 48.5 285t146.5 240t216.5 164t255 55zM921.5 1331q-108.5 0 -202 -43.5t-172.5 -130.5 q-77 -86 -116 -189.5t-39 -226.5q0 -122 39 -225.5t116.5 -189.5t171.5 -129t203 -43q110 0 203 42.5t171 129.5q77 86 116 189.5t39 225.5q0 123 -39 226.5t-116 189.5q-79 88 -172.5 131t-202 43z" />
<glyph unicode="&#xaf;" horiz-adv-x="921" d="M320 1548h566l-32 -188h-567z" />
<glyph unicode="&#xb0;" horiz-adv-x="921" d="M461 1534q59 0 114 -25.5t98 -72.5q43 -48 65 -108t22 -128q0 -67 -22 -127.5t-63 -105.5q-43 -48 -99 -73.5t-117 -25.5q-127 0 -213 95.5t-86 236.5t87 237.5t214 96.5zM461 1372q-65 0 -110 -50t-45 -122t44.5 -121t110.5 -49q65 0 110 49.5t45 120.5q0 72 -45.5 122 t-109.5 50z" />
<glyph unicode="&#xb1;" d="M195 227h1154v-227h-1154v227zM876 1284v-358h473v-228h-473v-358h-207v358h-474v228h474v358h207z" />
<glyph unicode="&#xb2;" horiz-adv-x="807" d="M201 1284h-85l35 195q68 20 137.5 30.5t141.5 10.5q163 0 242 -64t59 -178q-14 -82 -74.5 -146.5t-217.5 -154.5l-244 -139h373l16 96h90l-43 -250h-627l24 133l130 84q190 123 247.5 193t73.5 163q15 84 -14 131.5t-95 47.5q-57 0 -103.5 -41.5t-65.5 -110.5z" />
<glyph unicode="&#xb3;" horiz-adv-x="807" d="M168 1481q82 19 151 29t126 10q162 0 236.5 -52.5t57.5 -152.5q-13 -72 -68.5 -119t-149.5 -63q105 -16 151 -71.5t30 -148.5q-22 -122 -124.5 -183.5t-283.5 -61.5q-72 0 -142 10.5t-138 32.5l35 200h86q-7 -80 24.5 -119.5t102.5 -39.5q80 0 129 43t64 125 q14 80 -22.5 123.5t-118.5 43.5h-37l15 84h27q73 0 118.5 34t56.5 98q11 63 -18 98t-94 35q-59 0 -101.5 -36.5t-58.5 -100.5l-86 -1z" />
<glyph unicode="&#xb4;" horiz-adv-x="921" d="M717 1638h251l-402 -376h-148z" />
<glyph unicode="&#xb5;" horiz-adv-x="1349" d="M1280 1063l-164 -942h136l-21 -121h-455l22 125q-64 -83 -119.5 -118.5t-121.5 -35.5q-28 0 -53 10t-51 31l-77 -438h-318l239 1368h-137l22 121h455l-104 -596q-25 -142 -25 -216q0 -40 7 -59q21 -55 100 -55q96 0 154.5 79.5t88.5 250.5l104 596h318z" />
<glyph unicode="&#xb6;" horiz-adv-x="1172" d="M709 1493h499l-22 -125h-102l-273 -1565h-137l274 1565h-147l-274 -1565h-137l148 846q-190 17 -277 127.5t-55 294.5q34 190 171 306t332 116z" />
<glyph unicode="&#xb7;" horiz-adv-x="641" d="M149.5 711q13.5 78 73.5 134t131 56t111.5 -56t27 -134t-74 -133.5t-131.5 -55.5q-70 0 -110.5 55.5t-27 133.5z" />
<glyph unicode="&#xb8;" horiz-adv-x="921" d="M570 0q44 -64 61 -118.5t8 -106.5q-15 -86 -81 -131t-175 -45q-43 0 -87.5 6.5t-89.5 19.5l27 156q37 -17 73.5 -26t69.5 -9q54 0 86.5 23.5t40.5 68.5q5 28 -4.5 61t-43.5 101h115z" />
<glyph unicode="&#xb9;" horiz-adv-x="807" d="M73 684l16 94h148l107 613l-182 -101l18 105l222 125h204l-130 -742h148l-17 -94h-534z" />
<glyph unicode="&#xba;" horiz-adv-x="921" d="M36 639h719l-24 -135h-718zM428 823q68 0 110.5 71t71.5 234q28 164 10.5 235t-85.5 71q-70 0 -112 -70t-71 -236q-28 -165 -11 -235t87 -70zM412.5 737q-190.5 0 -280 104t-57.5 287t158 287.5t316.5 104.5t280 -104.5t57.5 -287.5t-158 -287t-316.5 -104z" />
<glyph unicode="&#xbb;" horiz-adv-x="1152" d="M256 1069l354 -385l-29 -168l-489 -385l26 148l271 321l-159 322zM670 1069l354 -385l-29 -168l-489 -385l26 148l272 321l-160 322z" />
<glyph unicode="&#xbc;" horiz-adv-x="1922" d="M73 0zM1649 16h-466l17 94h112l21 121h-326l15 88l434 533h227l-92 -527h132l-16 -94h-133l-21 -121h113zM1350 325l58 334l-274 -334h216zM73 684l16 94h148l107 613l-182 -101l18 105l222 125h204l-130 -742h148l-17 -94h-534zM1440 1520h153l-1111 -1549h-153z" />
<glyph unicode="&#xbd;" horiz-adv-x="1922" d="M73 0zM73 684l16 94h148l107 613l-182 -101l18 105l222 125h204l-130 -742h148l-17 -94h-534zM1440 1520h153l-1111 -1549h-153zM1199 616h-85l35 195q68 20 137.5 30.5t141.5 10.5q163 0 242 -64t59 -178q-14 -82 -74.5 -146.5t-217.5 -154.5l-244 -139h373l16 96h90 l-43 -250h-627l24 133l130 84q190 123 247.5 193t73.5 163q15 84 -14 131.5t-95 47.5q-57 0 -103.5 -41.5t-65.5 -110.5z" />
<glyph unicode="&#xbe;" horiz-adv-x="1922" d="M14 0zM1649 16h-466l17 94h112l21 121h-326l15 88l434 533h227l-92 -527h132l-16 -94h-133l-21 -121h113zM1350 325l58 334l-274 -334h216zM168 1481q82 19 151 29t126 10q162 0 236.5 -52.5t57.5 -152.5q-13 -72 -68.5 -119t-149.5 -63q105 -16 151 -71.5t30 -148.5 q-22 -122 -124.5 -183.5t-283.5 -61.5q-72 0 -142 10.5t-138 32.5l35 200h86q-7 -80 24.5 -119.5t102.5 -39.5q80 0 129 43t64 125q14 80 -22.5 123.5t-118.5 43.5h-37l15 84h27q73 0 118.5 34t56.5 98q11 63 -18 98t-94 35q-59 0 -101.5 -36.5t-58.5 -100.5l-86 -1z M1440 1520h153l-1111 -1549h-153z" />
<glyph unicode="&#xbf;" horiz-adv-x="1080" d="M874.5 1329q-13.5 -78 -73.5 -133t-131 -55t-110.5 55t-26.5 133q14 79 73.5 135t130 56t111 -56.5t27 -134.5zM837 39q-118 -34 -221.5 -51t-198.5 -17q-227 0 -329 110.5t-66 315.5q35 202 173 318.5t361 134.5l36 205h125l-52 -299q-132 -43 -207.5 -135.5 t-102.5 -245.5q-25 -145 17 -218t150 -73q98 0 163.5 66t96.5 196h108z" />
<glyph unicode="&#xc0;" horiz-adv-x="1430" d="M0 0zM-145 0l21 121h110l746 1372h215l267 -1372h127l-21 -121h-629l21 121h132l-58 305h-505l-165 -305h160l-21 -121h-400zM347 547h416l-107 571zM855 1899l117 -264h-148l-220 264h251z" />
<glyph unicode="&#xc1;" horiz-adv-x="1430" d="M0 0zM-145 0l21 121h110l746 1372h215l267 -1372h127l-21 -121h-629l21 121h132l-58 305h-505l-165 -305h160l-21 -121h-400zM347 547h416l-107 571zM924 1899h251l-314 -264h-148z" />
<glyph unicode="&#xc2;" horiz-adv-x="1430" d="M0 0zM-145 0l21 121h110l746 1372h215l267 -1372h127l-21 -121h-629l21 121h132l-58 305h-505l-165 -305h160l-21 -121h-400zM347 547h416l-107 571zM750 1899h277l154 -264h-147l-163 161l-221 -161h-147z" />
<glyph unicode="&#xc3;" horiz-adv-x="1430" d="M0 0zM-145 0l21 121h110l746 1372h215l267 -1372h127l-21 -121h-629l21 121h132l-58 305h-505l-165 -305h160l-21 -121h-400zM347 547h416l-107 571zM532 1635l1 12q22 123 82 190q61 66 151 66q55 0 120 -39q7 -4 10 -6l59 -33q24 -13 39 -18q15 -4 32 -4q37 0 63 25 q27 25 34 69l1 4h99l-3 -15q-21 -122 -81 -187q-59 -66 -150 -66q-31 0 -59.5 9t-71.5 36l-47 28q-22 13 -43.5 20t-38.5 7q-37 0 -63 -26q-27 -25 -35 -68v-4h-99z" />
<glyph unicode="&#xc4;" horiz-adv-x="1430" d="M0 0zM-145 0l21 121h110l746 1372h215l267 -1372h127l-21 -121h-629l21 121h132l-58 305h-505l-165 -305h160l-21 -121h-400zM347 547h416l-107 571zM553 1776q11 60 58 103q46 44 100 44t85 -44q31 -43 20.5 -103t-56.5 -103q-45 -43 -99 -43t-86.5 43t-21.5 103z M955.5 1776q10.5 60 57.5 103q46 44 100 44t86 -44q33 -43 22 -103t-58 -103t-101 -43t-86 43q-31 43 -20.5 103z" />
<glyph unicode="&#xc5;" horiz-adv-x="1430" d="M707.5 1616q-9.5 -54 19 -92.5t76.5 -38.5q49 0 90.5 38.5t51 92.5t-19 92.5t-76.5 38.5t-90 -38.5t-51.5 -92.5zM-181 0l21 121h110l688 1263q-45 37 -63 97.5t-5 134.5q20 117 110 201t195 84q107 0 167.5 -84t39.5 -201q-13 -74 -50.5 -133t-98.5 -99l245 -1263h128 l-21 -121h-630l22 121h131l-57 305h-505l-166 -305h160l-21 -121h-400zM311 547h417l-106 571z" />
<glyph unicode="&#xc6;" horiz-adv-x="1906" d="M326 545h418l145 827h-68zM478 0l21 121h171l53 303h-470l-182 -303h148l-21 -121h-385l21 121h102l752 1251h-181l21 121h1396l-61 -352h-124l37 215h-542l-83 -479h330l33 190h122l-91 -516h-121l33 190h-330l-106 -604h561l37 215h122l-62 -352h-1201z" />
<glyph unicode="&#xc7;" horiz-adv-x="1467" d="M77 0zM1318 426q-94 -231 -251.5 -343t-389.5 -112q-340 0 -501 208.5t-99 565.5q63 358 297 566.5t574 208.5q120 0 244 -32t257 -97l-64 -367h-114q-2 188 -78.5 281.5t-228.5 93.5q-196 0 -319.5 -160.5t-182 -493.5t9 -493t265.5 -160q134 0 233.5 83t167.5 251h180z M752 0q44 -64 61 -118.5t8 -106.5q-15 -86 -81 -131t-175 -45q-43 0 -87.5 6.5t-89.5 19.5l27 156q37 -17 73.5 -26t69.5 -9q54 0 86.5 23.5t40.5 68.5q5 28 -4.5 61t-43.5 101h115z" />
<glyph unicode="&#xc8;" horiz-adv-x="1404" d="M0 0zM-44 0l21 121h172l219 1251h-172l21 121h1208l-62 -352h-124l38 215h-566l-83 -479h352l33 190h123l-90 -516h-124l34 190h-352l-106 -604h582l38 215h123l-61 -352h-1224zM894 1899l117 -264h-148l-220 264h251z" />
<glyph unicode="&#xc9;" horiz-adv-x="1404" d="M0 0zM-44 0l21 121h172l219 1251h-172l21 121h1208l-62 -352h-124l38 215h-566l-83 -479h352l33 190h123l-90 -516h-124l34 190h-352l-106 -604h582l38 215h123l-61 -352h-1224zM963 1899h251l-314 -264h-148z" />
<glyph unicode="&#xca;" horiz-adv-x="1404" d="M0 0zM-44 0l21 121h172l219 1251h-172l21 121h1208l-62 -352h-124l38 215h-566l-83 -479h352l33 190h123l-90 -516h-124l34 190h-352l-106 -604h582l38 215h123l-61 -352h-1224zM789 1899h277l154 -264h-147l-163 161l-221 -161h-147z" />
<glyph unicode="&#xcb;" horiz-adv-x="1404" d="M0 0zM-44 0l21 121h172l219 1251h-172l21 121h1208l-62 -352h-124l38 215h-566l-83 -479h352l33 190h123l-90 -516h-124l34 190h-352l-106 -604h582l38 215h123l-61 -352h-1224zM630 1776q11 60 58 103q46 44 100 44t85 -44q31 -43 20.5 -103t-56.5 -103q-45 -43 -99 -43 t-86.5 43t-21.5 103zM1032.5 1776q10.5 60 57.5 103q46 44 100 44t86 -44q33 -43 22 -103t-58 -103t-101 -43t-86 43q-31 43 -20.5 103z" />
<glyph unicode="&#xcc;" horiz-adv-x="862" d="M0 0zM-44 0l21 121h172l219 1251h-172l21 121h691l-21 -121h-173l-219 -1251h173l-21 -121h-691zM591 1899l117 -264h-148l-220 264h251z" />
<glyph unicode="&#xcd;" horiz-adv-x="862" d="M0 0zM-44 0l21 121h172l219 1251h-172l21 121h691l-21 -121h-173l-219 -1251h173l-21 -121h-691zM660 1899h251l-314 -264h-148z" />
<glyph unicode="&#xce;" horiz-adv-x="862" d="M0 0zM-44 0l21 121h172l219 1251h-172l21 121h691l-21 -121h-173l-219 -1251h173l-21 -121h-691zM486 1899h277l154 -264h-147l-163 161l-221 -161h-147z" />
<glyph unicode="&#xcf;" horiz-adv-x="862" d="M0 0zM-44 0l21 121h172l219 1251h-172l21 121h691l-21 -121h-173l-219 -1251h173l-21 -121h-691zM258 1776q11 60 58 103q46 44 100 44t85 -44q31 -43 20.5 -103t-56.5 -103q-45 -43 -99 -43t-86.5 43t-21.5 103zM660.5 1776q10.5 60 57.5 103q46 44 100 44t86 -44 q33 -43 22 -103t-58 -103t-101 -43t-86 43q-31 43 -20.5 103z" />
<glyph unicode="&#xd0;" horiz-adv-x="1611" d="M508 121h125q211 0 333.5 149.5t180.5 477.5q57 326 -13.5 475t-281.5 149h-125l-91 -522h298l-24 -137h-298zM-32 0l21 121h172l104 592h-192l24 137h192l91 522h-172l21 121h691q360 0 517.5 -191.5t94.5 -553.5q-63 -363 -288 -555.5t-585 -192.5h-691z" />
<glyph unicode="&#xd1;" horiz-adv-x="1684" d="M0 0zM-50 0l22 121h171l219 1251h-172l22 121h420l626 -1057l164 936h-171l21 121h470l-22 -121h-171l-240 -1372h-236l-635 1079l-168 -958h171l-21 -121h-470zM679 1635l1 12q22 123 82 190q61 66 151 66q55 0 120 -39q7 -4 10 -6l59 -33q24 -13 39 -18q15 -4 32 -4 q37 0 63 25q27 25 34 69l1 4h99l-3 -15q-21 -122 -81 -187q-59 -66 -150 -66q-31 0 -59.5 9t-71.5 36l-47 28q-22 13 -43.5 20t-38.5 7q-37 0 -63 -26q-27 -25 -35 -68v-4h-99z" />
<glyph unicode="&#xd2;" horiz-adv-x="1605" d="M77 0zM688 92q171 0 283 161t170 492q58 332 2.5 493t-227.5 161q-171 0 -283.5 -162.5t-169.5 -491.5q-58 -328 -2 -490.5t227 -162.5zM666 -29q-339 0 -495.5 206t-93 568t292.5 568.5t567 206.5q340 0 496.5 -206t92.5 -569q-63 -362 -292 -568t-568 -206zM964 1899 l117 -264h-148l-220 264h251z" />
<glyph unicode="&#xd3;" horiz-adv-x="1605" d="M77 0zM688 92q171 0 283 161t170 492q58 332 2.5 493t-227.5 161q-171 0 -283.5 -162.5t-169.5 -491.5q-58 -328 -2 -490.5t227 -162.5zM666 -29q-339 0 -495.5 206t-93 568t292.5 568.5t567 206.5q340 0 496.5 -206t92.5 -569q-63 -362 -292 -568t-568 -206zM1033 1899 h251l-314 -264h-148z" />
<glyph unicode="&#xd4;" horiz-adv-x="1605" d="M77 0zM688 92q171 0 283 161t170 492q58 332 2.5 493t-227.5 161q-171 0 -283.5 -162.5t-169.5 -491.5q-58 -328 -2 -490.5t227 -162.5zM666 -29q-339 0 -495.5 206t-93 568t292.5 568.5t567 206.5q340 0 496.5 -206t92.5 -569q-63 -362 -292 -568t-568 -206zM859 1899 h277l154 -264h-147l-163 161l-221 -161h-147z" />
<glyph unicode="&#xd5;" horiz-adv-x="1605" d="M77 0zM688 92q171 0 283 161t170 492q58 332 2.5 493t-227.5 161q-171 0 -283.5 -162.5t-169.5 -491.5q-58 -328 -2 -490.5t227 -162.5zM666 -29q-339 0 -495.5 206t-93 568t292.5 568.5t567 206.5q340 0 496.5 -206t92.5 -569q-63 -362 -292 -568t-568 -206zM641 1635 l1 12q22 123 82 190q61 66 151 66q55 0 120 -39q7 -4 10 -6l59 -33q24 -13 39 -18q15 -4 32 -4q37 0 63 25q27 25 34 69l1 4h99l-3 -15q-21 -122 -81 -187q-59 -66 -150 -66q-31 0 -59.5 9t-71.5 36l-47 28q-22 13 -43.5 20t-38.5 7q-37 0 -63 -26q-27 -25 -35 -68v-4h-99z " />
<glyph unicode="&#xd6;" horiz-adv-x="1605" d="M77 0zM688 92q171 0 283 161t170 492q58 332 2.5 493t-227.5 161q-171 0 -283.5 -162.5t-169.5 -491.5q-58 -328 -2 -490.5t227 -162.5zM666 -29q-339 0 -495.5 206t-93 568t292.5 568.5t567 206.5q340 0 496.5 -206t92.5 -569q-63 -362 -292 -568t-568 -206zM700 1776 q11 60 58 103q46 44 100 44t85 -44q31 -43 20.5 -103t-56.5 -103q-45 -43 -99 -43t-86.5 43t-21.5 103zM1102.5 1776q10.5 60 57.5 103q46 44 100 44t86 -44q33 -43 22 -103t-58 -103t-101 -43t-86 43q-31 43 -20.5 103z" />
<glyph unicode="&#xd7;" d="M1307 1081l-396 -440l396 -440l-139 -154l-396 440l-396 -440l-138 154l396 440l-396 440l138 156l396 -440l396 440z" />
<glyph unicode="&#xd8;" horiz-adv-x="1605" d="M435 479l728 678q-17 119 -79.5 180.5t-167.5 61.5q-171 0 -283.5 -162.5t-169.5 -491.5q-14 -76 -21 -142t-7 -124zM442 334q19 -122 80 -182t166 -60q175 0 287 167t175 525q11 65 14.5 115.5t-0.5 93.5zM1458 1280q63 -104 80 -237.5t-12 -297.5q-63 -362 -292 -568 t-568 -206q-142 0 -254.5 39t-193.5 117l-220 -205l-65 90l215 201q-64 102 -81.5 235.5t10.5 296.5q64 362 293 568.5t567 206.5q144 0 257 -38.5t193 -115.5l219 203l65 -90z" />
<glyph unicode="&#xd9;" horiz-adv-x="1607" d="M175 0zM346 1372h-171l21 121h691l-21 -121h-172l-130 -747q-49 -279 9.5 -390.5t248.5 -111.5q186 0 283.5 112.5t145.5 389.5l131 747h-171l21 121h468l-21 -121h-172l-134 -768q-60 -342 -219 -487.5t-473 -145.5q-312 0 -420.5 147t-48.5 488zM1010 1899l117 -264 h-148l-220 264h251z" />
<glyph unicode="&#xda;" horiz-adv-x="1607" d="M175 0zM346 1372h-171l21 121h691l-21 -121h-172l-130 -747q-49 -279 9.5 -390.5t248.5 -111.5q186 0 283.5 112.5t145.5 389.5l131 747h-171l21 121h468l-21 -121h-172l-134 -768q-60 -342 -219 -487.5t-473 -145.5q-312 0 -420.5 147t-48.5 488zM1079 1899h251 l-314 -264h-148z" />
<glyph unicode="&#xdb;" horiz-adv-x="1607" d="M175 0zM346 1372h-171l21 121h691l-21 -121h-172l-130 -747q-49 -279 9.5 -390.5t248.5 -111.5q186 0 283.5 112.5t145.5 389.5l131 747h-171l21 121h468l-21 -121h-172l-134 -768q-60 -342 -219 -487.5t-473 -145.5q-312 0 -420.5 147t-48.5 488zM905 1899h277l154 -264 h-147l-163 161l-221 -161h-147z" />
<glyph unicode="&#xdc;" horiz-adv-x="1607" d="M175 0zM346 1372h-171l21 121h691l-21 -121h-172l-130 -747q-49 -279 9.5 -390.5t248.5 -111.5q186 0 283.5 112.5t145.5 389.5l131 747h-171l21 121h468l-21 -121h-172l-134 -768q-60 -342 -219 -487.5t-473 -145.5q-312 0 -420.5 147t-48.5 488zM746 1776q11 60 58 103 q46 44 100 44t85 -44q31 -43 20.5 -103t-56.5 -103q-45 -43 -99 -43t-86.5 43t-21.5 103zM1148.5 1776q10.5 60 57.5 103q46 44 100 44t86 -44q33 -43 22 -103t-58 -103t-101 -43t-86 43q-31 43 -20.5 103z" />
<glyph unicode="&#xdd;" horiz-adv-x="1315" d="M93 0zM186 0l21 121h181l87 497l-267 754h-115l21 121h645l-21 -121h-150l203 -569l400 569h-134l21 121h385l-21 -121h-114l-495 -702l-96 -549h180l-21 -121h-710zM887 1899h251l-314 -264h-148z" />
<glyph unicode="&#xde;" horiz-adv-x="1395" d="M-44 0l21 121h172l219 1251h-172l21 121h733l-21 -121h-215l-30 -170h247q224 0 335.5 -118.5t77 -317.5t-188.5 -318.5t-377 -119.5h-246l-37 -207h217l-21 -121h-735zM553 449h101q117 0 201.5 86t110.5 231q25 144 -29.5 229.5t-172.5 85.5h-101z" />
<glyph unicode="&#xdf;" horiz-adv-x="1400" d="M977 1221q16 124 -18.5 173.5t-135.5 49.5q-98 0 -152.5 -59.5t-78.5 -194.5l-213 -1219q-37 -209 -149 -269q-173 -91 -370 -91l20 112q72 0 114.5 57.5t64.5 186.5l207 1180q36 201 180 305t386 104q236 0 339 -105.5t87 -334.5h-20q-140 0 -219.5 -45.5t-94.5 -134.5 q-7 -40 8 -74q16 -36 79 -94l68 -63q136 -126 167 -207q30 -79 11 -187q-28 -160 -155.5 -250t-329.5 -90q-72 0 -148 15t-161 45l45 258h109q-7 -107 28.5 -156t120.5 -49q68 0 118 44t63 116q18 105 -109 222q-2 2 -25 23l-69 64q-78 73 -105 153q-27 78 -9 183 q24 134 110.5 216.5t236.5 115.5z" />
<glyph unicode="&#xe0;" horiz-adv-x="1194" d="M64 0zM757 876q-3 60 -54 60q-121 0 -239 -160q-54 -74 -98 -321q-32 -185 -9 -256.5t110 -71.5q83 0 135.5 83t84.5 269zM1063 1031l-158 -910l120 2l-21 -123h-400l23 135q-99 -164 -274 -164q-174 0 -251 127.5t-38 349.5q39 223 211 416q205 228 478 228 q270 0 310 -61zM567 1638l165 -376h-147l-269 376h251z" />
<glyph unicode="&#xe1;" horiz-adv-x="1194" d="M64 0zM757 876q-3 60 -54 60q-121 0 -239 -160q-54 -74 -98 -321q-32 -185 -9 -256.5t110 -71.5q83 0 135.5 83t84.5 269zM1063 1031l-158 -910l120 2l-21 -123h-400l23 135q-99 -164 -274 -164q-174 0 -251 127.5t-38 349.5q39 223 211 416q205 228 478 228 q270 0 310 -61zM796 1638h251l-402 -376h-148z" />
<glyph unicode="&#xe2;" horiz-adv-x="1194" d="M64 0zM757 876q-3 60 -54 60q-121 0 -239 -160q-54 -74 -98 -321q-32 -185 -9 -256.5t110 -71.5q83 0 135.5 83t84.5 269zM1063 1031l-158 -910l120 2l-21 -123h-400l23 135q-99 -164 -274 -164q-174 0 -251 127.5t-38 349.5q39 223 211 416q205 228 478 228 q270 0 310 -61zM570 1638h218l164 -376h-148l-152 225l-231 -225h-148z" />
<glyph unicode="&#xe3;" horiz-adv-x="1194" d="M64 0zM757 876q-3 60 -54 60q-121 0 -239 -160q-54 -74 -98 -321q-32 -185 -9 -256.5t110 -71.5q83 0 135.5 83t84.5 269zM1063 1031l-158 -910l120 2l-21 -123h-400l23 135q-99 -164 -274 -164q-174 0 -251 127.5t-38 349.5q39 223 211 416q205 228 478 228 q270 0 310 -61zM326 1309l2 16q25 146 87 221q61 76 153 76q33 0 63 -12q29 -13 65 -43l56 -47l2 -2q35 -29 67 -29q37 0 65 35t39 96h99l-3 -16q-25 -146 -86 -222q-61 -75 -153 -75q-33 0 -63 13q-30 12 -66 42l-56 47l-1 1q-35 30 -68 30q-37 0 -65 -35t-38 -96h-99z" />
<glyph unicode="&#xe4;" horiz-adv-x="1194" d="M64 0zM757 876q-3 60 -54 60q-121 0 -239 -160q-54 -74 -98 -321q-32 -185 -9 -256.5t110 -71.5q83 0 135.5 83t84.5 269zM1063 1031l-158 -910l120 2l-21 -123h-400l23 135q-99 -164 -274 -164q-174 0 -251 127.5t-38 349.5q39 223 211 416q205 228 478 228 q270 0 310 -61zM381 1468q10 60 57 103t101 43t85 -43t20 -103t-57 -104q-45 -43 -98 -43q-54 0 -87 44q-31 44 -21 103zM783 1468q11 60 57 103t100 43t86.5 -43t21.5 -103q-10 -59 -57 -103t-101 -44t-85.5 44t-21.5 103z" />
<glyph unicode="&#xe5;" horiz-adv-x="1194" d="M64 0zM757 876q-3 60 -54 60q-121 0 -239 -160q-54 -74 -98 -321q-32 -185 -9 -256.5t110 -71.5q83 0 135.5 83t84.5 269zM1063 1031l-158 -910l120 2l-21 -123h-400l23 135q-99 -164 -274 -164q-174 0 -251 127.5t-38 349.5q39 223 211 416q205 228 478 228 q270 0 310 -61zM427.5 1534q20.5 118 110.5 202q89 83 195 83t168 -83q60 -84 39.5 -202t-110.5 -202q-89 -83 -195.5 -83t-167.5 83q-60 84 -39.5 202zM566 1534q-10 -55 18 -93q29 -38 77 -38q50 0 90 39q42 38 51 92t-19 92q-28 39 -77 39t-90 -39q-41 -38 -50 -92z" />
<glyph unicode="&#xe6;" horiz-adv-x="1717" d="M1318 831q0 148 -111 148q-86 0 -133 -84.5t-89 -313.5l-10 -62q299 0 337 243q6 37 6 69zM757 876q-3 60 -54 60q-121 0 -239 -160q-54 -74 -85 -249t-31 -238.5t9 -90.5q24 -71 108.5 -71t137 83t85.5 269zM1023 1060q94 32 205 32q172 0 291 -74.5t119 -209.5 q0 -27 -5 -56q-57 -324 -679 -352q-6 -34 -6 -66q0 -250 185 -250q104 0 178.5 61t112.5 177h149q-70 -181 -200 -266t-342 -85t-322 111q-132 -111 -356 -111q-174 0 -251 127q-52 85 -52 212q0 303 215 542.5t488 239.5q196 0 270 -32z" />
<glyph unicode="&#xe7;" horiz-adv-x="1122" d="M62 0zM1005 332q-66 -182 -187.5 -271.5t-303.5 -89.5q-256 0 -370 147q-82 104 -82 270q0 67 14 144q46 264 210.5 412t410.5 148q100 0 198 -21t196 -63l-51 -295h-101q2 23 2 44q0 102 -38 157q-45 65 -148 65q-133 0 -207 -100t-117 -347q-22 -129 -22 -218 q0 -78 17 -126q37 -104 161 -104q96 0 165.5 64t102.5 184h150zM602 0q44 -64 61 -118.5t8 -106.5q-15 -86 -81 -131t-175 -45q-43 0 -87.5 6.5t-89.5 19.5l27 156q37 -17 73.5 -26t69.5 -9q54 0 86.5 23.5t40.5 68.5q5 28 -4.5 61t-43.5 101h115z" />
<glyph unicode="&#xe8;" horiz-adv-x="1172" d="M61 0zM774 832q0 147 -112 147q-85 0 -135.5 -89.5t-96.5 -370.5h20q275 0 318 243q6 38 6 70zM409 400q-6 -34 -6 -105q1 -211 186 -211q103 0 178 61t112 177h150q-71 -181 -201 -266t-337 -85q-248 0 -355 145q-75 102 -75 263q0 69 15 150q46 267 208 415t399 148 q172 0 291.5 -74.5t119.5 -209.5q0 -27 -6 -56q-57 -324 -679 -352zM613 1638l165 -376h-147l-269 376h251z" />
<glyph unicode="&#xe9;" horiz-adv-x="1172" d="M61 0zM774 832q0 147 -112 147q-85 0 -135.5 -89.5t-96.5 -370.5h20q275 0 318 243q6 38 6 70zM409 400q-6 -34 -6 -105q1 -211 186 -211q103 0 178 61t112 177h150q-71 -181 -201 -266t-337 -85q-248 0 -355 145q-75 102 -75 263q0 69 15 150q46 267 208 415t399 148 q172 0 291.5 -74.5t119.5 -209.5q0 -27 -6 -56q-57 -324 -679 -352zM842 1638h251l-402 -376h-148z" />
<glyph unicode="&#xea;" horiz-adv-x="1172" d="M61 0zM774 832q0 147 -112 147q-85 0 -135.5 -89.5t-96.5 -370.5h20q275 0 318 243q6 38 6 70zM409 400q-6 -34 -6 -105q1 -211 186 -211q103 0 178 61t112 177h150q-71 -181 -201 -266t-337 -85q-248 0 -355 145q-75 102 -75 263q0 69 15 150q46 267 208 415t399 148 q172 0 291.5 -74.5t119.5 -209.5q0 -27 -6 -56q-57 -324 -679 -352zM616 1638h218l164 -376h-148l-152 225l-231 -225h-148z" />
<glyph unicode="&#xeb;" horiz-adv-x="1172" d="M61 0zM774 832q0 147 -112 147q-85 0 -135.5 -89.5t-96.5 -370.5h20q275 0 318 243q6 38 6 70zM409 400q-6 -34 -6 -105q1 -211 186 -211q103 0 178 61t112 177h150q-71 -181 -201 -266t-337 -85q-248 0 -355 145q-75 102 -75 263q0 69 15 150q46 267 208 415t399 148 q172 0 291.5 -74.5t119.5 -209.5q0 -27 -6 -56q-57 -324 -679 -352zM427 1468q10 60 57 103t101 43t85 -43t20 -103t-57 -104q-45 -43 -98 -43q-54 0 -87 44q-31 44 -21 103zM829 1468q11 60 57 103t100 43t86.5 -43t21.5 -103q-10 -59 -57 -103t-101 -44t-85.5 44 t-21.5 103z" />
<glyph unicode="&#xec;" horiz-adv-x="700" d="M106 0zM446 121h136l-21 -121h-455l165 942h-136l21 121h454zM377 1638l165 -376h-147l-269 376h251z" />
<glyph unicode="&#xed;" horiz-adv-x="700" d="M106 0zM446 121h136l-21 -121h-455l165 942h-136l21 121h454zM606 1638h251l-402 -376h-148z" />
<glyph unicode="&#xee;" horiz-adv-x="700" d="M83 0zM446 121h136l-21 -121h-455l165 942h-136l21 121h454zM380 1638h218l164 -376h-148l-152 225l-231 -225h-148z" />
<glyph unicode="&#xef;" horiz-adv-x="700" d="M106 0zM446 121h136l-21 -121h-455l165 942h-136l21 121h454zM191 1468q10 60 57 103t101 43t85 -43t20 -103t-57 -104q-45 -43 -98 -43q-54 0 -87 44q-31 44 -21 103zM593 1468q11 60 57 103t100 43t86.5 -43t21.5 -103q-10 -59 -57 -103t-101 -44t-85.5 44t-21.5 103z " />
<glyph unicode="&#xf0;" horiz-adv-x="1229" d="M905 1337q143 -149 198.5 -350.5t15.5 -429.5q-48 -275 -218.5 -430.5t-424.5 -155.5q-247 0 -368 146.5t-78 390.5q40 230 210 381t390 151q38 0 75.5 -6t74.5 -18q-7 63 -27 118t-53 107l-313 -149l-28 100l274 131q-40 38 -103.5 69t-148.5 54l44 110 q123 -17 222 -53.5t171 -91.5l324 154l24 -103zM776 891q-39 19 -71.5 28t-60.5 9q-100 0 -159 -95.5t-99 -324.5q-41 -234 -15.5 -329t125.5 -95t158 94t99 330q19 107 24 202.5t-1 180.5z" />
<glyph unicode="&#xf1;" horiz-adv-x="1340" d="M103 0zM103 0l165 942h-136l21 121h455l-26 -150q74 95 155 137t194 42q161 0 225 -106q41 -67 41 -175q0 -61 -13 -135l-97 -555h136l-21 -121h-455l120 686q12 70 12 118q0 44 -10 70q-22 52 -99 52q-96 0 -154.5 -78.5t-88.5 -249.5l-105 -598h-319zM441 1309l2 16 q25 146 87 221q61 76 153 76q33 0 63 -12q29 -13 65 -43l56 -47l2 -2q35 -29 67 -29q37 0 65 35t39 96h99l-3 -16q-25 -146 -86 -222q-61 -75 -153 -75q-33 0 -63 13q-30 12 -66 42l-56 47l-1 1q-35 30 -68 30q-37 0 -65 -35t-38 -96h-99z" />
<glyph unicode="&#xf2;" horiz-adv-x="1229" d="M63 0zM537 84q101 0 159 96t102 352q30 167 30 266q0 52 -9 86q-23 95 -125 95t-160 -96.5t-103 -350.5q-28 -164 -28 -262q0 -55 8 -89q25 -97 126 -97zM517.5 -29q-252.5 0 -370.5 149q-84 108 -84 274q0 64 13 138q46 263 215.5 411.5t422.5 148.5t371 -148 q84 -107 84 -273q0 -65 -13 -139q-46 -262 -216 -411.5t-422.5 -149.5zM643 1638l165 -376h-147l-269 376h251z" />
<glyph unicode="&#xf3;" horiz-adv-x="1229" d="M63 0zM537 84q101 0 159 96t102 352q30 167 30 266q0 52 -9 86q-23 95 -125 95t-160 -96.5t-103 -350.5q-28 -164 -28 -262q0 -55 8 -89q25 -97 126 -97zM517.5 -29q-252.5 0 -370.5 149q-84 108 -84 274q0 64 13 138q46 263 215.5 411.5t422.5 148.5t371 -148 q84 -107 84 -273q0 -65 -13 -139q-46 -262 -216 -411.5t-422.5 -149.5zM872 1638h251l-402 -376h-148z" />
<glyph unicode="&#xf4;" horiz-adv-x="1229" d="M63 0zM537 84q101 0 159 96t102 352q30 167 30 266q0 52 -9 86q-23 95 -125 95t-160 -96.5t-103 -350.5q-28 -164 -28 -262q0 -55 8 -89q25 -97 126 -97zM517.5 -29q-252.5 0 -370.5 149q-84 108 -84 274q0 64 13 138q46 263 215.5 411.5t422.5 148.5t371 -148 q84 -107 84 -273q0 -65 -13 -139q-46 -262 -216 -411.5t-422.5 -149.5zM646 1638h218l164 -376h-148l-152 225l-231 -225h-148z" />
<glyph unicode="&#xf5;" horiz-adv-x="1229" d="M63 0zM537 84q101 0 159 96t102 352q30 167 30 266q0 52 -9 86q-23 95 -125 95t-160 -96.5t-103 -350.5q-28 -164 -28 -262q0 -55 8 -89q25 -97 126 -97zM517.5 -29q-252.5 0 -370.5 149q-84 108 -84 274q0 64 13 138q46 263 215.5 411.5t422.5 148.5t371 -148 q84 -107 84 -273q0 -65 -13 -139q-46 -262 -216 -411.5t-422.5 -149.5zM402 1309l2 16q25 146 87 221q61 76 153 76q33 0 63 -12q29 -13 65 -43l56 -47l2 -2q35 -29 67 -29q37 0 65 35t39 96h99l-3 -16q-25 -146 -86 -222q-61 -75 -153 -75q-33 0 -63 13q-30 12 -66 42 l-56 47l-1 1q-35 30 -68 30q-37 0 -65 -35t-38 -96h-99z" />
<glyph unicode="&#xf6;" horiz-adv-x="1229" d="M63 0zM537 84q101 0 159 96t102 352q30 167 30 266q0 52 -9 86q-23 95 -125 95t-160 -96.5t-103 -350.5q-28 -164 -28 -262q0 -55 8 -89q25 -97 126 -97zM517.5 -29q-252.5 0 -370.5 149q-84 108 -84 274q0 64 13 138q46 263 215.5 411.5t422.5 148.5t371 -148 q84 -107 84 -273q0 -65 -13 -139q-46 -262 -216 -411.5t-422.5 -149.5zM457 1468q10 60 57 103t101 43t85 -43t20 -103t-57 -104q-45 -43 -98 -43q-54 0 -87 44q-31 44 -21 103zM859 1468q11 60 57 103t100 43t86.5 -43t21.5 -103q-10 -59 -57 -103t-101 -44t-85.5 44 t-21.5 103z" />
<glyph unicode="&#xf7;" d="M638 1012q0 61 39.5 105t94.5 44q56 0 95.5 -44t39.5 -105q0 -62 -39.5 -106t-95.5 -44q-55 0 -94.5 44t-39.5 106zM638 272q0 62 39.5 106t94.5 44q56 0 95.5 -44t39.5 -106q0 -61 -39.5 -105t-95.5 -44q-55 0 -94.5 44t-39.5 105zM195 756h1154v-228h-1154v228z" />
<glyph unicode="&#xf8;" horiz-adv-x="1229" d="M413 416l416 385q0 90 -32.5 134t-102.5 44q-99 0 -157.5 -95.5t-99.5 -330.5zM403 262q-2 -89 31.5 -133.5t103.5 -44.5q98 0 155.5 94t99.5 330l24 141zM1103 913q47 -72 60.5 -167.5t-7.5 -213.5q-46 -262 -215.5 -411.5t-422.5 -149.5q-100 0 -179.5 24.5 t-142.5 74.5l-185 -172l-61 86l177 163q-46 75 -58.5 171.5t7.5 213.5q46 263 215.5 411.5t422.5 148.5q104 0 185 -25t137 -74l181 168l62 -86z" />
<glyph unicode="&#xf9;" horiz-adv-x="1340" d="M117 0zM1237 1063l-165 -942h136l-21 -121h-456l26 150q-73 -95 -154 -137t-194 -42q-161 0 -225 105q-41 68 -41 176q0 61 13 135l97 555h-136l21 121h455l-108 -621q-22 -125 -22 -192q0 -40 7 -60q21 -53 100 -53q96 0 154.5 79t88.5 251l104 596h320zM664 1638 l165 -376h-147l-269 376h251z" />
<glyph unicode="&#xfa;" horiz-adv-x="1340" d="M117 0zM1237 1063l-165 -942h136l-21 -121h-456l26 150q-73 -95 -154 -137t-194 -42q-161 0 -225 105q-41 68 -41 176q0 61 13 135l97 555h-136l21 121h455l-108 -621q-22 -125 -22 -192q0 -40 7 -60q21 -53 100 -53q96 0 154.5 79t88.5 251l104 596h320zM893 1638h251 l-402 -376h-148z" />
<glyph unicode="&#xfb;" horiz-adv-x="1340" d="M117 0zM1237 1063l-165 -942h136l-21 -121h-456l26 150q-73 -95 -154 -137t-194 -42q-161 0 -225 105q-41 68 -41 176q0 61 13 135l97 555h-136l21 121h455l-108 -621q-22 -125 -22 -192q0 -40 7 -60q21 -53 100 -53q96 0 154.5 79t88.5 251l104 596h320zM667 1638h218 l164 -376h-148l-152 225l-231 -225h-148z" />
<glyph unicode="&#xfc;" horiz-adv-x="1340" d="M117 0zM1237 1063l-165 -942h136l-21 -121h-456l26 150q-73 -95 -154 -137t-194 -42q-161 0 -225 105q-41 68 -41 176q0 61 13 135l97 555h-136l21 121h455l-108 -621q-22 -125 -22 -192q0 -40 7 -60q21 -53 100 -53q96 0 154.5 79t88.5 251l104 596h320zM478 1468 q10 60 57 103t101 43t85 -43t20 -103t-57 -104q-45 -43 -98 -43q-54 0 -87 44q-31 44 -21 103zM880 1468q11 60 57 103t100 43t86.5 -43t21.5 -103q-10 -59 -57 -103t-101 -44t-85.5 44t-21.5 103z" />
<glyph unicode="&#xfd;" horiz-adv-x="1071" d="M0 0zM447 -273l-256 1215h-104l21 121h391l215 -1028q103 166 172.5 353.5t137.5 551.5l-128 1l21 121l258 1q-22 -128 -55 -293q-80 -406 -180 -594q-263 -490 -475 -580q-120 -51 -292 -51q-85 0 -208 43l39 222l101 -1q-3 -24 -3 -44q0 -69 42 -91q19 -10 58 -16 q21 -3 43 -3q100 0 202 72zM793 1638h251l-402 -376h-148z" />
<glyph unicode="&#xfe;" horiz-adv-x="1288" d="M501 584l-18 -105q-18 -100 -18 -170q0 -60 13 -99q29 -83 124 -83q98 0 153.5 88t95.5 317q25 142 25 229q0 54 -10 87q-24 88 -123 88q-95 0 -152 -83t-90 -269zM331 1436h-136l21 120h455l-110 -628q55 83 130.5 123.5t176.5 40.5q204 0 296 -150q60 -99 60 -248 q0 -75 -15 -162q-45 -261 -189 -411t-348 -150q-101 0 -162.5 40.5t-87.5 123.5l-98 -561h-318z" />
<glyph unicode="&#xff;" horiz-adv-x="1071" d="M0 0zM447 -273l-256 1215h-104l21 121h391l215 -1028q103 166 172.5 353.5t137.5 551.5l-128 1l21 121l258 1q-22 -128 -55 -293q-80 -406 -180 -594q-263 -490 -475 -580q-120 -51 -292 -51q-85 0 -208 43l39 222l101 -1q-3 -24 -3 -44q0 -69 42 -91q19 -10 58 -16 q21 -3 43 -3q100 0 202 72zM378 1468q10 60 57 103t101 43t85 -43t20 -103t-57 -104q-45 -43 -98 -43q-54 0 -87 44q-31 44 -21 103zM780 1468q11 60 57 103t100 43t86.5 -43t21.5 -103q-10 -59 -57 -103t-101 -44t-85.5 44t-21.5 103z" />
<glyph unicode="&#x100;" horiz-adv-x="1430" d="M0 0zM625 1872h566l-32 -188h-567zM-145 0l21 121h110l746 1372h215l267 -1372h127l-21 -121h-629l21 121h132l-58 305h-505l-165 -305h160l-21 -121h-400zM347 547h416l-107 571z" />
<glyph unicode="&#x101;" horiz-adv-x="1194" d="M64 0zM382 1562h566l-32 -188h-567zM757 876q-3 60 -54 60q-121 0 -239 -160q-54 -74 -98 -321q-32 -185 -9 -256.5t110 -71.5q83 0 135.5 83t84.5 269zM1063 1031l-158 -910l120 2l-21 -123h-400l23 135q-99 -164 -274 -164q-174 0 -251 127.5t-38 349.5q39 223 211 416 q205 228 478 228q270 0 310 -61z" />
<glyph unicode="&#x102;" horiz-adv-x="1430" d="M0 0zM590 1917h113q-8 -73 36 -112t133 -39t146 39t75 112h113q-25 -146 -122 -229q-95 -82 -240 -82q-147 0 -212.5 81t-41.5 230zM-145 0l21 121h110l746 1372h215l267 -1372h127l-21 -121h-629l21 121h132l-58 305h-505l-165 -305h160l-21 -121h-400zM347 547h416 l-107 571z" />
<glyph unicode="&#x103;" horiz-adv-x="1194" d="M64 0zM420 1589h113q-8 -73 36 -112t133 -39t146 39t75 112h113q-25 -146 -122 -229q-95 -82 -240 -82q-147 0 -212.5 81t-41.5 230zM757 876q-3 60 -54 60q-121 0 -239 -160q-54 -74 -98 -321q-32 -185 -9 -256.5t110 -71.5q83 0 135.5 83t84.5 269zM1063 1031 l-158 -910l120 2l-21 -123h-400l23 135q-99 -164 -274 -164q-174 0 -251 127.5t-38 349.5q39 223 211 416q205 228 478 228q270 0 310 -61z" />
<glyph unicode="&#x104;" horiz-adv-x="1430" d="M0 0zM696 0h112q-55 -65 -79 -102t-29 -66q-8 -41 14 -63.5t69 -22.5q35 0 72.5 8t74.5 23l-28 -156q-50 -11 -94.5 -16.5t-82.5 -5.5q-101 0 -149.5 46t-33.5 130q9 52 46.5 106.5t107.5 118.5zM-145 0l21 121h110l746 1372h215l267 -1372h127l-21 -121h-629l21 121h132 l-58 305h-505l-165 -305h160l-21 -121h-400zM347 547h416l-107 571z" />
<glyph unicode="&#x105;" horiz-adv-x="1194" d="M64 0zM604 0h112q-55 -65 -79 -102t-29 -66q-8 -41 14 -63.5t69 -22.5q35 0 72.5 8t74.5 23l-28 -156q-50 -11 -94.5 -16.5t-82.5 -5.5q-101 0 -149.5 46t-33.5 130q9 52 46.5 106.5t107.5 118.5zM757 876q-3 60 -54 60q-121 0 -239 -160q-54 -74 -98 -321 q-32 -185 -9 -256.5t110 -71.5q83 0 135.5 83t84.5 269zM1063 1031l-158 -910l120 2l-21 -123h-400l23 135q-99 -164 -274 -164q-174 0 -251 127.5t-38 349.5q39 223 211 416q205 228 478 228q270 0 310 -61z" />
<glyph unicode="&#x106;" horiz-adv-x="1467" d="M77 0zM1318 426q-94 -231 -251.5 -343t-389.5 -112q-340 0 -501 208.5t-99 565.5q63 358 297 566.5t574 208.5q120 0 244 -32t257 -97l-64 -367h-114q-2 188 -78.5 281.5t-228.5 93.5q-196 0 -319.5 -160.5t-182 -493.5t9 -493t265.5 -160q134 0 233.5 83t167.5 251h180z M1029 1899h251l-314 -264h-148z" />
<glyph unicode="&#x107;" horiz-adv-x="1122" d="M62 0zM1005 332q-66 -182 -187.5 -271.5t-303.5 -89.5q-256 0 -370 147q-82 104 -82 270q0 67 14 144q46 264 210.5 412t410.5 148q100 0 198 -21t196 -63l-51 -295h-101q2 23 2 44q0 102 -38 157q-45 65 -148 65q-133 0 -207 -100t-117 -347q-22 -129 -22 -218 q0 -78 17 -126q37 -104 161 -104q96 0 165.5 64t102.5 184h150zM854 1638h251l-402 -376h-148z" />
<glyph unicode="&#x108;" horiz-adv-x="1467" d="M77 0zM855 1899h277l154 -264h-147l-163 161l-221 -161h-147zM1318 426q-94 -231 -251.5 -343t-389.5 -112q-340 0 -501 208.5t-99 565.5q63 358 297 566.5t574 208.5q120 0 244 -32t257 -97l-64 -367h-114q-2 188 -78.5 281.5t-228.5 93.5q-196 0 -319.5 -160.5 t-182 -493.5t9 -493t265.5 -160q134 0 233.5 83t167.5 251h180z" />
<glyph unicode="&#x109;" horiz-adv-x="1122" d="M62 0zM628 1638h218l164 -376h-148l-152 225l-231 -225h-148zM1005 332q-66 -182 -187.5 -271.5t-303.5 -89.5q-256 0 -370 147q-82 104 -82 270q0 67 14 144q46 264 210.5 412t410.5 148q100 0 198 -21t196 -63l-51 -295h-101q2 23 2 44q0 102 -38 157q-45 65 -148 65 q-133 0 -207 -100t-117 -347q-22 -129 -22 -218q0 -78 17 -126q37 -104 161 -104q96 0 165.5 64t102.5 184h150z" />
<glyph unicode="&#x10a;" horiz-adv-x="1467" d="M77 0zM857 1776q11 60 58 103q46 44 100 44t86 -44q31 -43 20.5 -103t-57.5 -103q-46 -43 -100 -43t-86 43t-21 103zM1318 426q-94 -231 -251.5 -343t-389.5 -112q-340 0 -501 208.5t-99 565.5q63 358 297 566.5t574 208.5q120 0 244 -32t257 -97l-64 -367h-114 q-2 188 -78.5 281.5t-228.5 93.5q-196 0 -319.5 -160.5t-182 -493.5t9 -493t265.5 -160q134 0 233.5 83t167.5 251h180z" />
<glyph unicode="&#x10b;" horiz-adv-x="1122" d="M62 0zM606 1468q11 60 57 103t100 43t87 -43q31 -43 21 -103q-10 -59 -57 -103t-101 -44t-85.5 44t-21.5 103zM1005 332q-66 -182 -187.5 -271.5t-303.5 -89.5q-256 0 -370 147q-82 104 -82 270q0 67 14 144q46 264 210.5 412t410.5 148q100 0 198 -21t196 -63l-51 -295 h-101q2 23 2 44q0 102 -38 157q-45 65 -148 65q-133 0 -207 -100t-117 -347q-22 -129 -22 -218q0 -78 17 -126q37 -104 161 -104q96 0 165.5 64t102.5 184h150z" />
<glyph unicode="&#x10c;" horiz-adv-x="1467" d="M77 0zM1318 426q-94 -231 -251.5 -343t-389.5 -112q-340 0 -501 208.5t-99 565.5q63 358 297 566.5t574 208.5q120 0 244 -32t257 -97l-64 -367h-114q-2 188 -78.5 281.5t-228.5 93.5q-196 0 -319.5 -160.5t-182 -493.5t9 -493t265.5 -160q134 0 233.5 83t167.5 251h180z M836 1635l-154 264h147l163 -162l221 162h147l-247 -264h-277z" />
<glyph unicode="&#x10d;" horiz-adv-x="1122" d="M62 0zM1005 332q-66 -182 -187.5 -271.5t-303.5 -89.5q-256 0 -370 147q-82 104 -82 270q0 67 14 144q46 264 210.5 412t410.5 148q100 0 198 -21t196 -63l-51 -295h-101q2 23 2 44q0 102 -38 157q-45 65 -148 65q-133 0 -207 -100t-117 -347q-22 -129 -22 -218 q0 -78 17 -126q37 -104 161 -104q96 0 165.5 64t102.5 184h150zM580 1262l-164 376h148l151 -227l232 227h148l-297 -376h-218z" />
<glyph unicode="&#x10e;" horiz-adv-x="1598" d="M0 0zM495 121h125q211 0 335 150t181 477q57 325 -14 474.5t-283 149.5h-125zM-44 0l21 121h172l219 1251h-172l21 121h689q362 0 520 -192t95 -553q-63 -363 -289 -555.5t-587 -192.5h-689zM815 1635l-154 264h147l163 -162l221 162h147l-247 -264h-277z" />
<glyph unicode="&#x10f;" horiz-adv-x="1288" d="M20 0zM741 479l19 105q17 99 17 169q0 61 -13 100q-29 83 -124 83q-99 0 -154 -87.5t-95 -316.5q-25 -141 -25 -228q0 -55 10 -89q25 -88 123 -88q94 0 152 83t90 269zM1248 1556l-272 -1556h-318l23 135q-55 -83 -131 -123.5t-177 -40.5q-203 0 -293 150 q-60 100 -60 248q0 75 15 163q46 262 188.5 411t346.5 149q100 0 162 -40.5t88 -123.5l89 508h-137l21 120h455zM1458 1554h251l-231 -376h-148z" />
<glyph unicode="&#x110;" horiz-adv-x="1611" d="M0 0zM508 121h125q211 0 333.5 149.5t180.5 477.5q57 326 -13.5 475t-281.5 149h-125l-91 -522h298l-24 -137h-298zM-32 0l21 121h172l104 592h-192l24 137h192l91 522h-172l21 121h691q360 0 517.5 -191.5t94.5 -553.5q-63 -363 -288 -555.5t-585 -192.5h-691z" />
<glyph unicode="&#x111;" horiz-adv-x="1288" d="M741 479l19 105q17 99 17 169q0 61 -13 100q-29 83 -124 83q-99 0 -154 -87.5t-95 -316.5q-25 -141 -25 -228q0 -55 10 -89q25 -88 123 -88q94 0 152 83t90 269zM1190 1223l-214 -1223h-318l23 135q-55 -83 -131 -123.5t-177 -40.5q-203 0 -293 150q-60 100 -60 248 q0 75 15 163q46 262 188.5 411t346.5 149q100 0 162 -40.5t88 -123.5l51 295h-291l21 120h291l17 93h-137l21 120h455l-37 -213h155l-21 -120h-155z" />
<glyph unicode="&#x112;" horiz-adv-x="1404" d="M0 0zM606 1872h566l-32 -188h-567zM-44 0l21 121h172l219 1251h-172l21 121h1208l-62 -352h-124l38 215h-566l-83 -479h352l33 190h123l-90 -516h-124l34 190h-352l-106 -604h582l38 215h123l-61 -352h-1224z" />
<glyph unicode="&#x113;" horiz-adv-x="1172" d="M61 0zM451 1562h566l-32 -188h-567zM774 832q0 147 -112 147q-85 0 -135.5 -89.5t-96.5 -370.5h20q275 0 318 243q6 38 6 70zM409 400q-6 -34 -6 -105q1 -211 186 -211q103 0 178 61t112 177h150q-71 -181 -201 -266t-337 -85q-248 0 -355 145q-75 102 -75 263 q0 69 15 150q46 267 208 415t399 148q172 0 291.5 -74.5t119.5 -209.5q0 -27 -6 -56q-57 -324 -679 -352z" />
<glyph unicode="&#x114;" horiz-adv-x="1404" d="M0 0zM641 1899h111q9 -55 54 -84t121 -29t131 29q56 30 84 84h111q-49 -131 -137 -198q-89 -66 -216 -66q-130 0 -193.5 65t-65.5 199zM-44 0l21 121h172l219 1251h-172l21 121h1208l-62 -352h-124l38 215h-566l-83 -479h352l33 190h123l-90 -516h-124l34 190h-352 l-106 -604h582l38 215h123l-61 -352h-1224z" />
<glyph unicode="&#x115;" horiz-adv-x="1172" d="M61 0zM438 1589h113q-8 -73 36 -112t133 -39t146 39t75 112h113q-25 -146 -122 -229q-95 -82 -240 -82q-147 0 -212.5 81t-41.5 230zM774 832q0 147 -112 147q-85 0 -135.5 -89.5t-96.5 -370.5h20q275 0 318 243q6 38 6 70zM409 400q-6 -34 -6 -105q1 -211 186 -211 q103 0 178 61t112 177h150q-71 -181 -201 -266t-337 -85q-248 0 -355 145q-75 102 -75 263q0 69 15 150q46 267 208 415t399 148q172 0 291.5 -74.5t119.5 -209.5q0 -27 -6 -56q-57 -324 -679 -352z" />
<glyph unicode="&#x116;" horiz-adv-x="1404" d="M0 0zM791 1776q11 60 58 103q46 44 100 44t86 -44q31 -43 20.5 -103t-57.5 -103q-46 -43 -100 -43t-86 43t-21 103zM-44 0l21 121h172l219 1251h-172l21 121h1208l-62 -352h-124l38 215h-566l-83 -479h352l33 190h123l-90 -516h-124l34 190h-352l-106 -604h582l38 215 h123l-61 -352h-1224z" />
<glyph unicode="&#x117;" horiz-adv-x="1172" d="M61 0zM594 1468q11 60 57 103t100 43t87 -43q31 -43 21 -103q-10 -59 -57 -103t-101 -44t-85.5 44t-21.5 103zM774 832q0 147 -112 147q-85 0 -135.5 -89.5t-96.5 -370.5h20q275 0 318 243q6 38 6 70zM409 400q-6 -34 -6 -105q1 -211 186 -211q103 0 178 61t112 177h150 q-71 -181 -201 -266t-337 -85q-248 0 -355 145q-75 102 -75 263q0 69 15 150q46 267 208 415t399 148q172 0 291.5 -74.5t119.5 -209.5q0 -27 -6 -56q-57 -324 -679 -352z" />
<glyph unicode="&#x118;" horiz-adv-x="1404" d="M0 0zM935 0h112q-55 -65 -79 -102t-29 -66q-8 -41 14 -63.5t69 -22.5q35 0 72.5 8t74.5 23l-28 -156q-50 -11 -94.5 -16.5t-82.5 -5.5q-101 0 -149.5 46t-33.5 130q9 52 46.5 106.5t107.5 118.5zM-44 0l21 121h172l219 1251h-172l21 121h1208l-62 -352h-124l38 215h-566 l-83 -479h352l33 190h123l-90 -516h-124l34 190h-352l-106 -604h582l38 215h123l-61 -352h-1224z" />
<glyph unicode="&#x119;" horiz-adv-x="1172" d="M61 0zM489 0h112q-55 -65 -79 -102t-29 -66q-8 -41 14 -63.5t69 -22.5q35 0 72.5 8t74.5 23l-28 -156q-50 -11 -94.5 -16.5t-82.5 -5.5q-101 0 -149.5 46t-33.5 130q9 52 46.5 106.5t107.5 118.5zM774 832q0 147 -112 147q-85 0 -135.5 -89.5t-96.5 -370.5h20 q275 0 318 243q6 38 6 70zM409 400q-6 -34 -6 -105q1 -211 186 -211q103 0 178 61t112 177h150q-71 -181 -201 -266t-337 -85q-248 0 -355 145q-75 102 -75 263q0 69 15 150q46 267 208 415t399 148q172 0 291.5 -74.5t119.5 -209.5q0 -27 -6 -56q-57 -324 -679 -352z" />
<glyph unicode="&#x11a;" horiz-adv-x="1404" d="M0 0zM-44 0l21 121h172l219 1251h-172l21 121h1208l-62 -352h-124l38 215h-566l-83 -479h352l33 190h123l-90 -516h-124l34 190h-352l-106 -604h582l38 215h123l-61 -352h-1224zM767 1641l-154 264h147l163 -162l221 162h147l-247 -264h-277z" />
<glyph unicode="&#x11b;" horiz-adv-x="1172" d="M61 0zM774 832q0 147 -112 147q-85 0 -135.5 -89.5t-96.5 -370.5h20q275 0 318 243q6 38 6 70zM409 400q-6 -34 -6 -105q1 -211 186 -211q103 0 178 61t112 177h150q-71 -181 -201 -266t-337 -85q-248 0 -355 145q-75 102 -75 263q0 69 15 150q46 267 208 415t399 148 q172 0 291.5 -74.5t119.5 -209.5q0 -27 -6 -56q-57 -324 -679 -352zM580 1262l-164 376h148l151 -227l232 227h148l-297 -376h-218z" />
<glyph unicode="&#x11c;" horiz-adv-x="1574" d="M77 0zM873 1899h277l154 -264h-147l-163 161l-221 -161h-147zM1317 1024q-6 198 -85 286.5t-251 88.5q-209 0 -334 -157.5t-184 -496.5q-59 -336 6.5 -494.5t263.5 -158.5q76 0 144 19t128 57l72 410h-162l21 120h484l-100 -573q-165 -78 -322.5 -116t-314.5 -38 q-346 0 -507.5 207t-98.5 567q63 361 297 568t580 207q144 0 277.5 -32t263.5 -97l-64 -367h-114z" />
<glyph unicode="&#x11d;" horiz-adv-x="1288" d="M42 0zM640 1638h218l164 -376h-148l-152 225l-231 -225h-148zM889 876q-5 60 -63 60q-164 0 -266 -160q-65 -101 -103 -321q-32 -185 -4.5 -256.5t125.5 -71.5q94 0 151.5 83t89.5 269zM1228 996l-172 -982q-43 -246 -204 -346q-196 -123 -427 -123q-95 0 -190 16.5 t-193 49.5l44 254h102v-17q0 -92 49 -139q53 -51 169 -51q148 0 222.5 78.5t109.5 277.5l21 121q-110 -164 -312 -164q-201 0 -293.5 127.5t-54.5 349.5q48 272 276 468q203 176 504 176q241 0 349 -96z" />
<glyph unicode="&#x11e;" horiz-adv-x="1574" d="M77 0zM1317 1024q-6 198 -85 286.5t-251 88.5q-209 0 -334 -157.5t-184 -496.5q-59 -336 6.5 -494.5t263.5 -158.5q76 0 144 19t128 57l72 410h-162l21 120h484l-100 -573q-165 -78 -322.5 -116t-314.5 -38q-346 0 -507.5 207t-98.5 567q63 361 297 568t580 207 q144 0 277.5 -32t263.5 -97l-64 -367h-114zM694 1899h111q9 -55 54 -84t121 -29t131 29q56 30 84 84h111q-49 -131 -137 -198q-89 -66 -216 -66q-130 0 -193.5 65t-65.5 199z" />
<glyph unicode="&#x11f;" horiz-adv-x="1288" d="M42 0zM889 876q-5 60 -63 60q-164 0 -266 -160q-65 -101 -103 -321q-32 -185 -4.5 -256.5t125.5 -71.5q94 0 151.5 83t89.5 269zM1228 996l-172 -982q-43 -246 -204 -346q-196 -123 -427 -123q-95 0 -190 16.5t-193 49.5l44 254h102v-17q0 -92 49 -139q53 -51 169 -51 q148 0 222.5 78.5t109.5 277.5l21 121q-110 -164 -312 -164q-201 0 -293.5 127.5t-54.5 349.5q48 272 276 468q203 176 504 176q241 0 349 -96zM497 1589h113q-8 -73 36 -112t133 -39t146 39t75 112h113q-25 -146 -122 -229q-95 -82 -240 -82q-147 0 -212.5 81t-41.5 230z " />
<glyph unicode="&#x120;" horiz-adv-x="1574" d="M77 0zM875 1776q11 60 58 103q46 44 100 44t86 -44q31 -43 20.5 -103t-57.5 -103q-46 -43 -100 -43t-86 43t-21 103zM1317 1024q-6 198 -85 286.5t-251 88.5q-209 0 -334 -157.5t-184 -496.5q-59 -336 6.5 -494.5t263.5 -158.5q76 0 144 19t128 57l72 410h-162l21 120 h484l-100 -573q-165 -78 -322.5 -116t-314.5 -38q-346 0 -507.5 207t-98.5 567q63 361 297 568t580 207q144 0 277.5 -32t263.5 -97l-64 -367h-114z" />
<glyph unicode="&#x121;" horiz-adv-x="1288" d="M42 0zM708 1468q11 60 57 103t100 43t87 -43q31 -43 21 -103q-10 -59 -57 -103t-101 -44t-85.5 44t-21.5 103zM889 876q-5 60 -63 60q-164 0 -266 -160q-65 -101 -103 -321q-32 -185 -4.5 -256.5t125.5 -71.5q94 0 151.5 83t89.5 269zM1228 996l-172 -982 q-43 -246 -204 -346q-196 -123 -427 -123q-95 0 -190 16.5t-193 49.5l44 254h102v-17q0 -92 49 -139q53 -51 169 -51q148 0 222.5 78.5t109.5 277.5l21 121q-110 -164 -312 -164q-201 0 -293.5 127.5t-54.5 349.5q48 272 276 468q203 176 504 176q241 0 349 -96z" />
<glyph unicode="&#x122;" horiz-adv-x="1574" d="M77 0zM593 -420q78 42 120.5 94t54.5 121l7 43h193l-1 -4q-19 -111 -96 -190q-76 -80 -215 -135zM1317 1024q-6 198 -85 286.5t-251 88.5q-209 0 -334 -157.5t-184 -496.5q-59 -336 6.5 -494.5t263.5 -158.5q76 0 144 19t128 57l72 410h-162l21 120h484l-100 -573 q-165 -78 -322.5 -116t-314.5 -38q-346 0 -507.5 207t-98.5 567q63 361 297 568t580 207q144 0 277.5 -32t263.5 -97l-64 -367h-114z" />
<glyph unicode="&#x123;" horiz-adv-x="1288" d="M42 0zM1025 1472q-77 -42 -119.5 -94t-54.5 -121l-7 -43h-193q19 114 97 194q76 80 215 135zM889 876q-5 60 -63 60q-164 0 -266 -160q-65 -101 -103 -321q-32 -185 -4.5 -256.5t125.5 -71.5q94 0 151.5 83t89.5 269zM1228 996l-172 -982q-43 -246 -204 -346 q-196 -123 -427 -123q-95 0 -190 16.5t-193 49.5l44 254h102v-17q0 -92 49 -139q53 -51 169 -51q148 0 222.5 78.5t109.5 277.5l21 121q-110 -164 -312 -164q-201 0 -293.5 127.5t-54.5 349.5q48 272 276 468q203 176 504 176q241 0 349 -96z" />
<glyph unicode="&#x124;" horiz-adv-x="1741" d="M0 0zM928 1899h277l154 -264h-147l-163 161l-221 -161h-147zM-44 0l21 121h172l219 1251h-172l21 121h691l-21 -121h-173l-88 -502h535l88 502h-172l21 121h691l-21 -121h-173l-219 -1251h173l-21 -121h-691l21 121h172l107 612h-535l-107 -612h173l-21 -121h-691z" />
<glyph unicode="&#x125;" horiz-adv-x="1340" d="M63 0zM347 1899h277l154 -264h-147l-163 161l-221 -161h-147zM63 0l251 1436h-142l21 120h461l-113 -643q74 95 155.5 137t193.5 42q161 0 225 -106q41 -67 41 -175q0 -61 -13 -135l-97 -555h137l-21 -121h-456l120 686q13 70 13 118q0 44 -11 70q-22 52 -98 52 q-97 0 -155.5 -78.5t-88.5 -249.5l-105 -598h-318z" />
<glyph unicode="&#x126;" horiz-adv-x="1741" d="M-44 0l21 121h171l164 932h-172l24 137h172l32 182h-172l21 121h691l-21 -121h-172l-33 -182h535l32 182h-172l21 121h691l-21 -121h-172l-33 -182h173l-23 -137h-173l-164 -932h173l-21 -121h-691l21 121h172l107 612h-535l-107 -612h173l-21 -121h-691zM626 870h535 l32 183h-534z" />
<glyph unicode="&#x127;" horiz-adv-x="1340" d="M63 0l209 1196h-142l24 137h142l18 103h-142l21 120h461l-39 -223h323l-24 -137h-323l-50 -283q74 95 155.5 137t193.5 42q161 0 225 -106q41 -67 41 -175q0 -61 -13 -135l-97 -555h137l-21 -121h-456l120 686q13 70 13 118q0 44 -11 70q-22 52 -98 52 q-97 0 -155.5 -78.5t-88.5 -249.5l-105 -598h-318z" />
<glyph unicode="&#x128;" horiz-adv-x="862" d="M0 0zM268 1635l1 12q22 123 82 190q61 66 151 66q55 0 120 -39q7 -4 10 -6l59 -33q24 -13 39 -18q15 -4 32 -4q37 0 63 25q27 25 34 69l1 4h99l-3 -15q-21 -122 -81 -187q-59 -66 -150 -66q-31 0 -59.5 9t-71.5 36l-47 28q-22 13 -43.5 20t-38.5 7q-37 0 -63 -26 q-27 -25 -35 -68v-4h-99zM-44 0l21 121h172l219 1251h-172l21 121h691l-21 -121h-173l-219 -1251h173l-21 -121h-691z" />
<glyph unicode="&#x129;" horiz-adv-x="700" d="M106 0zM136 1309l2 16q25 146 87 221q61 76 153 76q33 0 63 -12q29 -13 65 -43l56 -47l2 -2q35 -29 67 -29q37 0 65 35t39 96h99l-3 -16q-25 -146 -86 -222q-61 -75 -153 -75q-33 0 -63 13q-30 12 -66 42l-56 47l-1 1q-35 30 -68 30q-37 0 -65 -35t-38 -96h-99zM446 121 h136l-21 -121h-455l165 942h-136l21 121h454z" />
<glyph unicode="&#x12a;" horiz-adv-x="862" d="M0 0zM348 1872h566l-32 -188h-567zM-44 0l21 121h172l219 1251h-172l21 121h691l-21 -121h-173l-219 -1251h173l-21 -121h-691z" />
<glyph unicode="&#x12b;" horiz-adv-x="700" d="M106 0zM152 1563h566l-32 -188h-567zM446 121h136l-21 -121h-455l165 942h-136l21 121h454z" />
<glyph unicode="&#x12c;" horiz-adv-x="862" d="M0 0zM338 1899h111q9 -55 54 -84t121 -29t131 29q56 30 84 84h111q-49 -131 -137 -198q-89 -66 -216 -66q-130 0 -193.5 65t-65.5 199zM-44 0l21 121h172l219 1251h-172l21 121h691l-21 -121h-173l-219 -1251h173l-21 -121h-691z" />
<glyph unicode="&#x12d;" horiz-adv-x="700" d="M106 0zM202 1589h113q-8 -73 36 -112t133 -39t146 39t75 112h113q-25 -146 -122 -229q-95 -82 -240 -82q-147 0 -212.5 81t-41.5 230zM446 121h136l-21 -121h-455l165 942h-136l21 121h454z" />
<glyph unicode="&#x12e;" horiz-adv-x="862" d="M0 0zM-9 0l21 121h172l219 1251h-172l21 121h691l-21 -121h-173l-219 -1251h173l-21 -121h-691zM397 0h112q-55 -65 -79 -102t-29 -66q-8 -41 14 -63.5t69 -22.5q35 0 72.5 8t74.5 23l-28 -156q-50 -11 -94.5 -16.5t-82.5 -5.5q-101 0 -149.5 46t-33.5 130 q9 52 46.5 106.5t107.5 118.5z" />
<glyph unicode="&#x12f;" horiz-adv-x="700" d="M98 0zM307 1364q14 81 74 136.5t133 55.5q71 0 111 -56q30 -41 30 -96q0 -19 -4 -40q-13 -79 -73 -134.5t-131 -55.5q-73 0 -113 55q-31 41 -31 96q0 19 4 39zM438 121h136l-21 -121h-455l165 942h-136l21 121h454zM305 0h112q-55 -65 -79 -102t-29 -66q-8 -41 14 -63.5 t69 -22.5q35 0 72.5 8t74.5 23l-28 -156q-50 -11 -94.5 -16.5t-82.5 -5.5q-101 0 -149.5 46t-33.5 130q9 52 46.5 106.5t107.5 118.5z" />
<glyph unicode="&#x130;" horiz-adv-x="862" d="M0 0zM-44 0l21 121h172l219 1251h-172l21 121h691l-21 -121h-173l-219 -1251h173l-21 -121h-691zM488 1776q11 60 58 103q46 44 100 44t86 -44q31 -43 20.5 -103t-57.5 -103q-46 -43 -100 -43t-86 43t-21 103z" />
<glyph unicode="&#x131;" horiz-adv-x="700" d="M446 121h136l-21 -121h-455l165 942h-136l21 121h454z" />
<glyph unicode="&#x132;" horiz-adv-x="1736" d="M0 0zM573 -358l41 235h117q-11 -94 16 -138t95 -44q88 0 135.5 74.5t83.5 279.5l231 1323h-195l21 121h716l-21 -121h-172l-233 -1331q-43 -243 -172.5 -355t-370.5 -112q-74 0 -147 17t-145 51zM-44 0l21 121h172l219 1251h-172l21 121h691l-21 -121h-173l-219 -1251 h173l-21 -121h-691z" />
<glyph unicode="&#x133;" horiz-adv-x="1384" d="M63 0zM1019 1364q14 81 73.5 136.5t133.5 55.5q70 0 111 -56q30 -42 30 -97q0 -18 -4 -39q-14 -79 -73.5 -134.5t-130.5 -55.5q-73 0 -114 55q-30 41 -30 96q0 19 4 39zM982 942h-136l21 121h454l-207 -1188q-29 -163 -147.5 -246.5t-321.5 -83.5q-54 0 -113.5 10 t-121.5 29l40 226l101 -1q-4 -30 -4 -54q0 -39 12 -61q21 -36 80 -36q66 0 100 47t56 170zM272 1364q14 81 74 136.5t133 55.5q71 0 111 -56q30 -41 30 -96q0 -19 -4 -40q-13 -79 -73 -134.5t-131 -55.5q-73 0 -113 55q-31 41 -31 96q0 19 4 39zM403 121h136l-21 -121h-455 l165 942h-136l21 121h454z" />
<glyph unicode="&#x134;" horiz-adv-x="872" d="M0 0zM499 1899h277l154 -264h-147l-163 161l-221 -161h-147zM-291 -358l41 235h117q-11 -94 16 -138t95 -44q88 0 135.5 74.5t83.5 279.5l231 1323h-195l21 121h716l-21 -121h-172l-233 -1331q-43 -243 -172.5 -355t-370.5 -112q-74 0 -147 17t-145 51z" />
<glyph unicode="&#x135;" horiz-adv-x="666" d="M0 0zM317 1638h218l164 -376h-148l-152 225l-231 -225h-148zM309 942h-136l21 121h454l-207 -1188q-29 -163 -147.5 -246.5t-320.5 -83.5q-54 0 -113.5 10t-122.5 29l40 226l101 -1q-12 -80 8.5 -115.5t79.5 -35.5q66 0 100.5 47t55.5 170z" />
<glyph unicode="&#x136;" horiz-adv-x="1602" d="M0 0zM653 -391q78 42 120.5 94t54.5 121l7 43h193l-1 -4q-19 -111 -96 -190q-76 -80 -215 -135zM-44 0l21 121h172l219 1251h-172l21 121h691l-21 -121h-173l-95 -545l665 545h-144l21 121h501l-21 -121h-179l-563 -461l518 -790h132l-21 -121h-455l-472 725l-106 -604 h173l-21 -121h-691z" />
<glyph unicode="&#x137;" horiz-adv-x="1277" d="M63 0zM461 -391q78 42 120.5 94t54.5 121l7 43h193l-1 -4q-19 -111 -96 -190q-76 -80 -215 -135zM381 0h-318l251 1436h-136l21 120h455l-175 -999l453 385h-114l21 121h259l-21 -121l-289 -246l302 -575h104l-22 -121h-351l-263 500l-105 -88z" />
<glyph unicode="&#x138;" horiz-adv-x="1277" d="M425 0h-319l164 939h-135l21 121h454l-88 -504l453 383h-114l21 121h259l-21 -121l-289 -244l303 -574h103l-21 -121h-352l-263 499l-104 -88z" />
<glyph unicode="&#x139;" horiz-adv-x="1296" d="M0 0zM739 1900h251l-314 -264h-148zM-44 0l21 121h172l219 1251h-172l21 121h691l-21 -121h-173l-216 -1235h529l42 236h121l-65 -373h-1169z" />
<glyph unicode="&#x13a;" horiz-adv-x="700" d="M63 0zM631 1900h251l-314 -264h-148zM403 121h136l-21 -121h-455l251 1436h-136l21 120h455z" />
<glyph unicode="&#x13b;" horiz-adv-x="1296" d="M0 0zM451 -391q78 42 120.5 94t54.5 121l7 43h193l-1 -4q-19 -111 -96 -190q-76 -80 -215 -135zM-44 0l21 121h172l219 1251h-172l21 121h691l-21 -121h-173l-216 -1235h529l42 236h121l-65 -373h-1169z" />
<glyph unicode="&#x13c;" horiz-adv-x="700" d="M63 0zM133 -391q78 42 120.5 94t54.5 121l7 43h193l-1 -4q-19 -111 -96 -190q-76 -80 -215 -135zM403 121h136l-21 -121h-455l251 1436h-136l21 120h455z" />
<glyph unicode="&#x13d;" horiz-adv-x="1296" d="M0 0zM1012 1493h251l-231 -376h-148zM-44 0l21 121h172l219 1251h-172l21 121h691l-21 -121h-173l-216 -1235h529l42 236h121l-65 -373h-1169z" />
<glyph unicode="&#x13e;" horiz-adv-x="936" d="M63 0zM837 1556h251l-231 -376h-148zM403 121h136l-21 -121h-455l251 1436h-136l21 120h455z" />
<glyph unicode="&#x13f;" horiz-adv-x="1296" d="M0 0zM966.5 887q13.5 78 73.5 134t131 56t111.5 -56t27 -134t-74 -133.5t-131.5 -55.5q-70 0 -110.5 55.5t-27 133.5zM-44 0l21 121h172l219 1251h-172l21 121h691l-21 -121h-173l-216 -1235h529l42 236h121l-65 -373h-1169z" />
<glyph unicode="&#x140;" horiz-adv-x="1026" d="M63 0zM636.5 883q13.5 78 73.5 134t131 56t111.5 -56t27 -134t-74 -133.5t-131.5 -55.5q-70 0 -110.5 55.5t-27 133.5zM403 121h136l-21 -121h-455l251 1436h-136l21 120h455z" />
<glyph unicode="&#x141;" horiz-adv-x="1308" d="M-32 0l21 121h172l75 428l-215 -127l-43 117l286 168l116 665h-172l21 121h691l-21 -121h-172l-76 -434l341 201l43 -117l-412 -244l-112 -641h529l41 236h122l-65 -373h-1170z" />
<glyph unicode="&#x142;" horiz-adv-x="709" d="M407 121h136l-21 -121h-456l115 653l-157 -96l-37 105l218 133l113 641h-136l21 120h455l-97 -557l156 97l39 -105l-220 -133z" />
<glyph unicode="&#x143;" horiz-adv-x="1684" d="M0 0zM1075 1900h251l-314 -264h-148zM-50 0l22 121h171l219 1251h-172l22 121h420l626 -1057l164 936h-171l21 121h470l-22 -121h-171l-240 -1372h-236l-635 1079l-168 -958h171l-21 -121h-470z" />
<glyph unicode="&#x144;" horiz-adv-x="1340" d="M103 0zM845 1590h251l-402 -376h-148zM103 0l165 942h-136l21 121h455l-26 -150q74 95 155 137t194 42q161 0 225 -106q41 -67 41 -175q0 -61 -13 -135l-97 -555h136l-21 -121h-455l120 686q12 70 12 118q0 44 -10 70q-22 52 -99 52q-96 0 -154.5 -78.5t-88.5 -249.5 l-105 -598h-319z" />
<glyph unicode="&#x145;" horiz-adv-x="1684" d="M0 0zM540 -391q78 42 120.5 94t54.5 121l7 43h193l-1 -4q-19 -111 -96 -190q-76 -80 -215 -135zM-50 0l22 121h171l219 1251h-172l22 121h420l626 -1057l164 936h-171l21 121h470l-22 -121h-171l-240 -1372h-236l-635 1079l-168 -958h171l-21 -121h-470z" />
<glyph unicode="&#x146;" horiz-adv-x="1340" d="M103 0zM496 -391q78 42 120.5 94t54.5 121l7 43h193l-1 -4q-19 -111 -96 -190q-76 -80 -215 -135zM103 0l165 942h-136l21 121h455l-26 -150q74 95 155 137t194 42q161 0 225 -106q41 -67 41 -175q0 -61 -13 -135l-97 -555h136l-21 -121h-455l120 686q12 70 12 118 q0 44 -10 70q-22 52 -99 52q-96 0 -154.5 -78.5t-88.5 -249.5l-105 -598h-319z" />
<glyph unicode="&#x147;" horiz-adv-x="1684" d="M0 0zM-50 0l22 121h171l219 1251h-172l22 121h420l626 -1057l164 936h-171l21 121h470l-22 -121h-171l-240 -1372h-236l-635 1079l-168 -958h171l-21 -121h-470zM863 1635l-154 264h147l163 -162l221 162h147l-247 -264h-277z" />
<glyph unicode="&#x148;" horiz-adv-x="1340" d="M103 0zM103 0l165 942h-136l21 121h455l-26 -150q74 95 155 137t194 42q161 0 225 -106q41 -67 41 -175q0 -61 -13 -135l-97 -555h136l-21 -121h-455l120 686q12 70 12 118q0 44 -10 70q-22 52 -99 52q-96 0 -154.5 -78.5t-88.5 -249.5l-105 -598h-319zM580 1262 l-164 376h148l151 -227l232 227h148l-297 -376h-218z" />
<glyph unicode="&#x149;" horiz-adv-x="1858" d="M139 0zM541 0l165 942h-136l21 121h455l-26 -150q74 95 155 137t194 42q161 0 225 -106q41 -67 41 -175q0 -61 -13 -135l-97 -555h136l-21 -121h-455l120 686q12 70 12 118q0 44 -10 70q-22 52 -99 52q-96 0 -154.5 -78.5t-88.5 -249.5l-105 -598h-319zM139 1070 q98 67 154 161.5t80 233.5l10 55h242q-43 -207 -143.5 -348.5t-272.5 -237.5z" />
<glyph unicode="&#x14a;" horiz-adv-x="1607" d="M724 -173q0 -132 115 -132q87 0 135 74.5t84 279.5l152 878q28 153 28 231t-11 115q-28 97 -138 97q-136 0 -223.5 -124.5t-136.5 -404.5l-125 -720h172l-22 -121h-691l22 121h171l218 1251h-136l21 121h484l-27 -154q89 97 189 139.5t244 42.5q204 0 283 -141 q49 -88 49 -200t-18 -215l-162 -924q-42 -243 -172 -355t-370 -112q-148 0 -293 68l42 235h119q-3 -27 -3 -50z" />
<glyph unicode="&#x14b;" horiz-adv-x="1340" d="M765 -125l142 811q12 70 12 118q0 44 -11 70q-21 52 -98 52q-96 0 -155 -78.5t-89 -249.5l-104 -598h-319l165 942h-136l21 121h455l-26 -150q74 95 155 137t194 42q161 0 225 -106q40 -67 40 -175q0 -61 -12 -135l-141 -801q-28 -163 -146.5 -246.5t-321.5 -83.5 q-54 0 -113.5 10t-121.5 29l40 226l101 -1q-5 -30 -5 -54q0 -39 13 -61q21 -36 80 -36q66 0 100 47t56 170z" />
<glyph unicode="&#x14c;" horiz-adv-x="1605" d="M77 0zM718 1872h566l-32 -188h-567zM688 92q171 0 283 161t170 492q58 332 2.5 493t-227.5 161q-171 0 -283.5 -162.5t-169.5 -491.5q-58 -328 -2 -490.5t227 -162.5zM666 -29q-339 0 -495.5 206t-93 568t292.5 568.5t567 206.5q340 0 496.5 -206t92.5 -569 q-63 -362 -292 -568t-568 -206z" />
<glyph unicode="&#x14d;" horiz-adv-x="1229" d="M63 0zM477 1562h566l-32 -188h-567zM537 84q101 0 159 96t102 352q30 167 30 266q0 52 -9 86q-23 95 -125 95t-160 -96.5t-103 -350.5q-28 -164 -28 -262q0 -55 8 -89q25 -97 126 -97zM517.5 -29q-252.5 0 -370.5 149q-84 108 -84 274q0 64 13 138q46 263 215.5 411.5 t422.5 148.5t371 -148q84 -107 84 -273q0 -65 -13 -139q-46 -262 -216 -411.5t-422.5 -149.5z" />
<glyph unicode="&#x14e;" horiz-adv-x="1605" d="M77 0zM711 1899h111q9 -55 54 -84t121 -29t131 29q56 30 84 84h111q-49 -131 -137 -198q-89 -66 -216 -66q-130 0 -193.5 65t-65.5 199zM688 92q171 0 283 161t170 492q58 332 2.5 493t-227.5 161q-171 0 -283.5 -162.5t-169.5 -491.5q-58 -328 -2 -490.5t227 -162.5z M666 -29q-339 0 -495.5 206t-93 568t292.5 568.5t567 206.5q340 0 496.5 -206t92.5 -569q-63 -362 -292 -568t-568 -206z" />
<glyph unicode="&#x14f;" horiz-adv-x="1229" d="M63 0zM468 1589h113q-8 -73 36 -112t133 -39t146 39t75 112h113q-25 -146 -122 -229q-95 -82 -240 -82q-147 0 -212.5 81t-41.5 230zM537 84q101 0 159 96t102 352q30 167 30 266q0 52 -9 86q-23 95 -125 95t-160 -96.5t-103 -350.5q-28 -164 -28 -262q0 -55 8 -89 q25 -97 126 -97zM517.5 -29q-252.5 0 -370.5 149q-84 108 -84 274q0 64 13 138q46 263 215.5 411.5t422.5 148.5t371 -148q84 -107 84 -273q0 -65 -13 -139q-46 -262 -216 -411.5t-422.5 -149.5z" />
<glyph unicode="&#x150;" horiz-adv-x="1605" d="M77 0zM1222 1899h251l-314 -264h-148zM923 1899h251l-314 -264h-147zM688 92q171 0 283 161t170 492q58 332 2.5 493t-227.5 161q-171 0 -283.5 -162.5t-169.5 -491.5q-58 -328 -2 -490.5t227 -162.5zM666 -29q-339 0 -495.5 206t-93 568t292.5 568.5t567 206.5 q340 0 496.5 -206t92.5 -569q-63 -362 -292 -568t-568 -206z" />
<glyph unicode="&#x151;" horiz-adv-x="1229" d="M63 0zM989 1638h213l-334 -376h-148zM660 1638h195l-286 -376h-146zM537 84q101 0 159 96t102 352q30 167 30 266q0 52 -9 86q-23 95 -125 95t-160 -96.5t-103 -350.5q-28 -164 -28 -262q0 -55 8 -89q25 -97 126 -97zM517.5 -29q-252.5 0 -370.5 149q-84 108 -84 274 q0 64 13 138q46 263 215.5 411.5t422.5 148.5t371 -148q84 -107 84 -273q0 -65 -13 -139q-46 -262 -216 -411.5t-422.5 -149.5z" />
<glyph unicode="&#x152;" horiz-adv-x="2175" d="M939 121l219 1251h-114q-238 0 -386 -157t-202 -467q-55 -314 37 -470.5t332 -156.5h114zM1950 0h-1189q-186 0 -303.5 26t-198.5 83q-126 86 -173 252t-8 387q38 220 143 384.5t261 251.5q100 58 225.5 83.5t314.5 25.5h1173l-61 -352h-124l38 215h-545l-83 -479h330 l33 190h123l-90 -516h-123l33 190h-330l-106 -604h561l37 215h124z" />
<glyph unicode="&#x153;" horiz-adv-x="1894" d="M1132 400q-5 -34 -5 -105q1 -211 185 -211q104 0 178.5 61t112.5 177h149q-70 -181 -200 -266t-341.5 -85t-320.5 110q-156 -110 -390.5 -110t-351.5 149q-85 108 -85 274q0 64 13 138q46 263 215.5 411.5t406.5 148.5q235 0 353 -112q150 112 339 112t298 -68 q154 -97 124 -272q-57 -324 -680 -352zM1491 762q14 75 -1 132q-19 85 -105 85q-85 0 -133 -86q-50 -94 -99 -374q294 -9 338 243zM411 181q25 -97 126 -97t158.5 96t94.5 308q38 211 38 286.5t-9 109.5q-23 95 -125 95t-160.5 -96.5t-94.5 -305.5q-37 -209 -37 -285.5 t9 -110.5z" />
<glyph unicode="&#x154;" horiz-adv-x="1531" d="M0 0zM1027 1900h251l-314 -264h-148zM975 729q78 -13 125 -59t72 -133l123 -416h138l-21 -121h-442l-135 451q-38 140 -75 178.5t-114 38.5h-55l-96 -547h173l-21 -121h-691l21 121h172l219 1251h-172l21 121h767q234 0 343 -104.5t75 -296.5q-27 -156 -133.5 -246.5 t-293.5 -116.5zM612 788h118q126 0 207 76t106 217t-30 216t-181 75h-118z" />
<glyph unicode="&#x155;" horiz-adv-x="971" d="M103 0zM845 1590h251l-402 -376h-148zM1083 1075l-56 -317h-102q3 21 3 39q0 56 -22 87q-29 42 -97 42q-104 0 -182.5 -102t-109.5 -283l-95 -541h-319l165 942h-146l22 121h464l-33 -189q66 111 152.5 164.5t197.5 53.5q28 0 67.5 -4.5t90.5 -12.5z" />
<glyph unicode="&#x156;" horiz-adv-x="1531" d="M0 0zM595 -391q78 42 120.5 94t54.5 121l7 43h193l-1 -4q-19 -111 -96 -190q-76 -80 -215 -135zM975 729q78 -13 125 -59t72 -133l123 -416h138l-21 -121h-442l-135 451q-38 140 -75 178.5t-114 38.5h-55l-96 -547h173l-21 -121h-691l21 121h172l219 1251h-172l21 121 h767q234 0 343 -104.5t75 -296.5q-27 -156 -133.5 -246.5t-293.5 -116.5zM612 788h118q126 0 207 76t106 217t-30 216t-181 75h-118z" />
<glyph unicode="&#x157;" horiz-adv-x="971" d="M103 0zM192 -391q78 42 120.5 94t54.5 121l7 43h193l-1 -4q-19 -111 -96 -190q-76 -80 -215 -135zM1083 1075l-56 -317h-102q3 21 3 39q0 56 -22 87q-29 42 -97 42q-104 0 -182.5 -102t-109.5 -283l-95 -541h-319l165 942h-146l22 121h464l-33 -189q66 111 152.5 164.5 t197.5 53.5q28 0 67.5 -4.5t90.5 -12.5z" />
<glyph unicode="&#x158;" horiz-adv-x="1531" d="M0 0zM975 729q78 -13 125 -59t72 -133l123 -416h138l-21 -121h-442l-135 451q-38 140 -75 178.5t-114 38.5h-55l-96 -547h173l-21 -121h-691l21 121h172l219 1251h-172l21 121h767q234 0 343 -104.5t75 -296.5q-27 -156 -133.5 -246.5t-293.5 -116.5zM612 788h118 q126 0 207 76t106 217t-30 216t-181 75h-118zM815 1635l-154 264h147l163 -162l221 162h147l-247 -264h-277z" />
<glyph unicode="&#x159;" horiz-adv-x="971" d="M103 0zM1083 1075l-56 -317h-102q3 21 3 39q0 56 -22 87q-29 42 -97 42q-104 0 -182.5 -102t-109.5 -283l-95 -541h-319l165 942h-146l22 121h464l-33 -189q66 111 152.5 164.5t197.5 53.5q28 0 67.5 -4.5t90.5 -12.5zM580 1262l-164 376h148l151 -227l232 227h148 l-297 -376h-218z" />
<glyph unicode="&#x15a;" horiz-adv-x="1331" d="M24 0zM1027 1900h251l-314 -264h-148zM24 72l62 354h115q-4 -168 79 -251t255 -83q139 0 222.5 59t102.5 173q16 90 -24.5 140t-188.5 93l-192 55q-187 56 -249.5 155.5t-30.5 283.5q39 222 193 345.5t394 123.5q118 0 241.5 -22t252.5 -66l-58 -330h-114 q1 154 -75 225.5t-239 71.5q-133 0 -210 -51.5t-95 -153.5q-16 -93 22.5 -141.5t211.5 -100.5l192 -55q179 -52 243.5 -162t31.5 -303q-40 -226 -201 -343.5t-434 -117.5q-131 0 -256 25t-251 76z" />
<glyph unicode="&#x15b;" horiz-adv-x="1037" d="M0 0zM845 1590h251l-402 -376h-148zM50 328h102q-1 -15 -1 -29q0 -98 53 -156.5t160 -58.5q210 0 235 145q4 19 4 47q0 27 -23 57t-113 56l-125 37q-141 41 -186 106t-45 145q0 34 6 73q31 173 153.5 257.5t319 84.5t410.5 -64l-48 -268h-102q3 19 3 36q0 183 -203 183 q-204 0 -228 -135q-3 -16 -3 -39q0 -65 111 -98l124 -37q179 -53 228.5 -119.5t49.5 -152.5q0 -35 -7 -76q-31 -180 -161.5 -265.5t-374.5 -85.5q-177 0 -390 60z" />
<glyph unicode="&#x15c;" horiz-adv-x="1331" d="M24 0zM711 1899h277l154 -264h-147l-163 161l-221 -161h-147zM24 72l62 354h115q-4 -168 79 -251t255 -83q139 0 222.5 59t102.5 173q16 90 -24.5 140t-188.5 93l-192 55q-187 56 -249.5 155.5t-30.5 283.5q39 222 193 345.5t394 123.5q118 0 241.5 -22t252.5 -66 l-58 -330h-114q1 154 -75 225.5t-239 71.5q-133 0 -210 -51.5t-95 -153.5q-16 -93 22.5 -141.5t211.5 -100.5l192 -55q179 -52 243.5 -162t31.5 -303q-40 -226 -201 -343.5t-434 -117.5q-131 0 -256 25t-251 76z" />
<glyph unicode="&#x15d;" horiz-adv-x="1037" d="M0 0zM550 1638h218l164 -376h-148l-152 225l-231 -225h-148zM50 328h102q-1 -15 -1 -29q0 -98 53 -156.5t160 -58.5q210 0 235 145q4 19 4 47q0 27 -23 57t-113 56l-125 37q-141 41 -186 106t-45 145q0 34 6 73q31 173 153.5 257.5t319 84.5t410.5 -64l-48 -268h-102 q3 19 3 36q0 183 -203 183q-204 0 -228 -135q-3 -16 -3 -39q0 -65 111 -98l124 -37q179 -53 228.5 -119.5t49.5 -152.5q0 -35 -7 -76q-31 -180 -161.5 -265.5t-374.5 -85.5q-177 0 -390 60z" />
<glyph unicode="&#x15e;" horiz-adv-x="1331" d="M24 0zM24 72l62 354h115q-4 -168 79 -251t255 -83q139 0 222.5 59t102.5 173q16 90 -24.5 140t-188.5 93l-192 55q-187 56 -249.5 155.5t-30.5 283.5q39 222 193 345.5t394 123.5q118 0 241.5 -22t252.5 -66l-58 -330h-114q1 154 -75 225.5t-239 71.5q-133 0 -210 -51.5 t-95 -153.5q-16 -93 22.5 -141.5t211.5 -100.5l192 -55q179 -52 243.5 -162t31.5 -303q-40 -226 -201 -343.5t-434 -117.5q-131 0 -256 25t-251 76zM585 0q44 -64 61 -118.5t8 -106.5q-15 -86 -81 -131t-175 -45q-43 0 -87.5 6.5t-89.5 19.5l27 156q37 -17 73.5 -26t69.5 -9 q54 0 86.5 23.5t40.5 68.5q5 28 -4.5 61t-43.5 101h115z" />
<glyph unicode="&#x15f;" horiz-adv-x="1037" d="M0 0zM50 328h102q-1 -15 -1 -29q0 -98 53 -156.5t160 -58.5q210 0 235 145q4 19 4 47q0 27 -23 57t-113 56l-125 37q-141 41 -186 106t-45 145q0 34 6 73q31 173 153.5 257.5t319 84.5t410.5 -64l-48 -268h-102q3 19 3 36q0 183 -203 183q-204 0 -228 -135q-3 -16 -3 -39 q0 -65 111 -98l124 -37q179 -53 228.5 -119.5t49.5 -152.5q0 -35 -7 -76q-31 -180 -161.5 -265.5t-374.5 -85.5q-177 0 -390 60zM431 0q44 -64 61 -118.5t8 -106.5q-15 -86 -81 -131t-175 -45q-43 0 -87.5 6.5t-89.5 19.5l27 156q37 -17 73.5 -26t69.5 -9q54 0 86.5 23.5 t40.5 68.5q5 28 -4.5 61t-43.5 101h115z" />
<glyph unicode="&#x160;" horiz-adv-x="1331" d="M24 0zM24 72l62 354h115q-4 -168 79 -251t255 -83q139 0 222.5 59t102.5 173q16 90 -24.5 140t-188.5 93l-192 55q-187 56 -249.5 155.5t-30.5 283.5q39 222 193 345.5t394 123.5q118 0 241.5 -22t252.5 -66l-58 -330h-114q1 154 -75 225.5t-239 71.5q-133 0 -210 -51.5 t-95 -153.5q-16 -93 22.5 -141.5t211.5 -100.5l192 -55q179 -52 243.5 -162t31.5 -303q-40 -226 -201 -343.5t-434 -117.5q-131 0 -256 25t-251 76zM701 1635l-154 264h147l163 -162l221 162h147l-247 -264h-277z" />
<glyph unicode="&#x161;" horiz-adv-x="1037" d="M0 0zM50 328h102q-1 -15 -1 -29q0 -98 53 -156.5t160 -58.5q210 0 235 145q4 19 4 47q0 27 -23 57t-113 56l-125 37q-141 41 -186 106t-45 145q0 34 6 73q31 173 153.5 257.5t319 84.5t410.5 -64l-48 -268h-102q3 19 3 36q0 183 -203 183q-204 0 -228 -135q-3 -16 -3 -39 q0 -65 111 -98l124 -37q179 -53 228.5 -119.5t49.5 -152.5q0 -35 -7 -76q-31 -180 -161.5 -265.5t-374.5 -85.5q-177 0 -390 60zM502 1262l-164 376h148l151 -227l232 227h148l-297 -376h-218z" />
<glyph unicode="&#x162;" horiz-adv-x="1371" d="M86 0zM609 0q44 -64 61 -118.5t8 -106.5q-15 -86 -81 -131t-175 -45q-43 0 -87.5 6.5t-89.5 19.5l27 156q37 -17 73.5 -26t69.5 -9q54 0 86.5 23.5t40.5 68.5q5 28 -4.5 61t-43.5 101h115zM203 0l21 121h179l216 1235h-368l-42 -236h-123l65 373h1332l-65 -373h-121 l41 236h-371l-216 -1235h179l-21 -121h-706z" />
<glyph unicode="&#x163;" horiz-adv-x="851" d="M90 0zM498 0q44 -64 61 -118.5t8 -106.5q-15 -86 -81 -131t-175 -45q-43 0 -87.5 6.5t-89.5 19.5l27 156q37 -17 73.5 -26t69.5 -9q54 0 86.5 23.5t40.5 68.5q5 28 -4.5 61t-43.5 101h115zM228 942h-138l21 121h138l58 330h319l-58 -330h265l-21 -121h-265l-114 -651 q-16 -89 -16 -134q0 -27 5 -39q14 -34 66 -34q58 0 93.5 43t52.5 133h135q-37 -160 -118.5 -224.5t-254.5 -64.5q-197 0 -256 69q-37 44 -37 136q0 50 11 115z" />
<glyph unicode="&#x164;" horiz-adv-x="1371" d="M86 0zM203 0l21 121h179l216 1235h-368l-42 -236h-123l65 373h1332l-65 -373h-121l41 236h-371l-216 -1235h179l-21 -121h-706zM728 1635l-154 264h147l163 -162l221 162h147l-247 -264h-277z" />
<glyph unicode="&#x165;" horiz-adv-x="851" d="M90 0zM228 942h-138l21 121h138l58 330h319l-58 -330h265l-21 -121h-265l-114 -651q-16 -89 -16 -134q0 -27 5 -39q14 -34 66 -34q58 0 93.5 43t52.5 133h135q-37 -160 -118.5 -224.5t-254.5 -64.5q-197 0 -256 69q-37 44 -37 136q0 50 11 115zM823 1598h251l-231 -376 h-148z" />
<glyph unicode="&#x166;" horiz-adv-x="1371" d="M203 0l21 121h178l95 538h-223l34 192h222l88 505h-368l-40 -236h-124l65 373h1332l-65 -373h-121l40 236h-370l-89 -505h223l-34 -192h-222l-94 -538h179l-21 -121h-706z" />
<glyph unicode="&#x167;" horiz-adv-x="851" d="M229 942h-139l21 121h138l58 330h319l-58 -330h265l-20 -121h-266l-48 -277h165l-34 -192h-166l-31 -182q-15 -89 -15 -134q0 -27 4 -39q14 -34 67 -34q57 0 92 43t53 133h135q-36 -160 -119 -224q-81 -65 -254 -65q-197 0 -256 69q-37 44 -37 136q0 50 11 115l32 182 h-133l34 192h133z" />
<glyph unicode="&#x168;" horiz-adv-x="1607" d="M175 0zM687 1635l1 12q22 123 82 190q61 66 151 66q55 0 120 -39q7 -4 10 -6l59 -33q24 -13 39 -18q15 -4 32 -4q37 0 63 25q27 25 34 69l1 4h99l-3 -15q-21 -122 -81 -187q-59 -66 -150 -66q-31 0 -59.5 9t-71.5 36l-47 28q-22 13 -43.5 20t-38.5 7q-37 0 -63 -26 q-27 -25 -35 -68v-4h-99zM346 1372h-171l21 121h691l-21 -121h-172l-130 -747q-49 -279 9.5 -390.5t248.5 -111.5q186 0 283.5 112.5t145.5 389.5l131 747h-171l21 121h468l-21 -121h-172l-134 -768q-60 -342 -219 -487.5t-473 -145.5q-312 0 -420.5 147t-48.5 488z" />
<glyph unicode="&#x169;" horiz-adv-x="1340" d="M117 0zM423 1309l2 16q25 146 87 221q61 76 153 76q33 0 63 -12q29 -13 65 -43l56 -47l2 -2q35 -29 67 -29q37 0 65 35t39 96h99l-3 -16q-25 -146 -86 -222q-61 -75 -153 -75q-33 0 -63 13q-30 12 -66 42l-56 47l-1 1q-35 30 -68 30q-37 0 -65 -35t-38 -96h-99z M1237 1063l-165 -942h136l-21 -121h-456l26 150q-73 -95 -154 -137t-194 -42q-161 0 -225 105q-41 68 -41 176q0 61 13 135l97 555h-136l21 121h455l-108 -621q-22 -125 -22 -192q0 -40 7 -60q21 -53 100 -53q96 0 154.5 79t88.5 251l104 596h320z" />
<glyph unicode="&#x16a;" horiz-adv-x="1607" d="M175 0zM788 1872h566l-32 -188h-567zM346 1372h-171l21 121h691l-21 -121h-172l-130 -747q-49 -279 9.5 -390.5t248.5 -111.5q186 0 283.5 112.5t145.5 389.5l131 747h-171l21 121h468l-21 -121h-172l-134 -768q-60 -342 -219 -487.5t-473 -145.5q-312 0 -420.5 147 t-48.5 488z" />
<glyph unicode="&#x16b;" horiz-adv-x="1340" d="M117 0zM521 1562h566l-32 -188h-567zM1237 1063l-165 -942h136l-21 -121h-456l26 150q-73 -95 -154 -137t-194 -42q-161 0 -225 105q-41 68 -41 176q0 61 13 135l97 555h-136l21 121h455l-108 -621q-22 -125 -22 -192q0 -40 7 -60q21 -53 100 -53q96 0 154.5 79t88.5 251 l104 596h320z" />
<glyph unicode="&#x16c;" horiz-adv-x="1607" d="M175 0zM757 1899h111q9 -55 54 -84t121 -29t131 29q56 30 84 84h111q-49 -131 -137 -198q-89 -66 -216 -66q-130 0 -193.5 65t-65.5 199zM346 1372h-171l21 121h691l-21 -121h-172l-130 -747q-49 -279 9.5 -390.5t248.5 -111.5q186 0 283.5 112.5t145.5 389.5l131 747 h-171l21 121h468l-21 -121h-172l-134 -768q-60 -342 -219 -487.5t-473 -145.5q-312 0 -420.5 147t-48.5 488z" />
<glyph unicode="&#x16d;" horiz-adv-x="1340" d="M117 0zM489 1589h113q-8 -73 36 -112t133 -39t146 39t75 112h113q-25 -146 -122 -229q-95 -82 -240 -82q-147 0 -212.5 81t-41.5 230zM1237 1063l-165 -942h136l-21 -121h-456l26 150q-73 -95 -154 -137t-194 -42q-161 0 -225 105q-41 68 -41 176q0 61 13 135l97 555 h-136l21 121h455l-108 -621q-22 -125 -22 -192q0 -40 7 -60q21 -53 100 -53q96 0 154.5 79t88.5 251l104 596h320z" />
<glyph unicode="&#x16e;" horiz-adv-x="1607" d="M175 0zM346 1372h-171l21 121h691l-21 -121h-172l-130 -747q-49 -279 9.5 -390.5t248.5 -111.5q186 0 283.5 112.5t145.5 389.5l131 747h-171l21 121h468l-21 -121h-172l-134 -768q-60 -342 -219 -487.5t-473 -145.5q-312 0 -420.5 147t-48.5 488zM888.5 1879 q20.5 118 110.5 202q89 83 195 83t168 -83q60 -84 39.5 -202t-110.5 -202q-89 -83 -195.5 -83t-167.5 83q-60 84 -39.5 202zM1027 1879q-10 -55 18 -93q29 -38 77 -38q50 0 90 39q42 38 51 92t-19 92q-28 39 -77 39t-90 -39q-41 -38 -50 -92z" />
<glyph unicode="&#x16f;" horiz-adv-x="1340" d="M117 0zM1237 1063l-165 -942h136l-21 -121h-456l26 150q-73 -95 -154 -137t-194 -42q-161 0 -225 105q-41 68 -41 176q0 61 13 135l97 555h-136l21 121h455l-108 -621q-22 -125 -22 -192q0 -40 7 -60q21 -53 100 -53q96 0 154.5 79t88.5 251l104 596h320zM502.5 1464 q20.5 118 110.5 202q89 83 195 83t168 -83q60 -84 39.5 -202t-110.5 -202q-89 -83 -195.5 -83t-167.5 83q-60 84 -39.5 202zM641 1464q-10 -55 18 -93q29 -38 77 -38q50 0 90 39q42 38 51 92t-19 92q-28 39 -77 39t-90 -39q-41 -38 -50 -92z" />
<glyph unicode="&#x170;" horiz-adv-x="1607" d="M175 0zM1268 1899h251l-314 -264h-148zM969 1899h251l-314 -264h-147zM346 1372h-171l21 121h691l-21 -121h-172l-130 -747q-49 -279 9.5 -390.5t248.5 -111.5q186 0 283.5 112.5t145.5 389.5l131 747h-171l21 121h468l-21 -121h-172l-134 -768q-60 -342 -219 -487.5 t-473 -145.5q-312 0 -420.5 147t-48.5 488z" />
<glyph unicode="&#x171;" horiz-adv-x="1340" d="M117 0zM1010 1638h213l-334 -376h-148zM681 1638h195l-286 -376h-146zM1237 1063l-165 -942h136l-21 -121h-456l26 150q-73 -95 -154 -137t-194 -42q-161 0 -225 105q-41 68 -41 176q0 61 13 135l97 555h-136l21 121h455l-108 -621q-22 -125 -22 -192q0 -40 7 -60 q21 -53 100 -53q96 0 154.5 79t88.5 251l104 596h320z" />
<glyph unicode="&#x172;" horiz-adv-x="1607" d="M175 0zM628 -16h112q-55 -65 -79 -102t-29 -66q-8 -41 14 -63.5t69 -22.5q35 0 72.5 8t74.5 23l-28 -156q-50 -11 -94.5 -16.5t-82.5 -5.5q-101 0 -149.5 46t-33.5 130q9 52 46.5 106.5t107.5 118.5zM346 1372h-171l21 121h691l-21 -121h-172l-130 -747 q-49 -279 9.5 -390.5t248.5 -111.5q186 0 283.5 112.5t145.5 389.5l131 747h-171l21 121h468l-21 -121h-172l-134 -768q-60 -342 -219 -487.5t-473 -145.5q-312 0 -420.5 147t-48.5 488z" />
<glyph unicode="&#x173;" horiz-adv-x="1340" d="M117 0zM977 0h112q-55 -65 -79 -102t-29 -66q-8 -41 14 -63.5t69 -22.5q35 0 72.5 8t74.5 23l-28 -156q-50 -11 -94.5 -16.5t-82.5 -5.5q-101 0 -149.5 46t-33.5 130q9 52 46.5 106.5t107.5 118.5zM1237 1063l-165 -942h136l-21 -121h-456l26 150q-73 -95 -154 -137 t-194 -42q-161 0 -225 105q-41 68 -41 176q0 61 13 135l97 555h-136l21 121h455l-108 -621q-22 -125 -22 -192q0 -40 7 -60q21 -53 100 -53q96 0 154.5 79t88.5 251l104 596h320z" />
<glyph unicode="&#x174;" horiz-adv-x="2070" d="M93 0zM1440 0h-232l-114 1087l-495 -1087h-232l-143 1372h-131l21 121h638l-22 -121h-144l97 -917l471 1038h255l111 -1055l425 934h-160l21 121h416l-21 -121h-138zM1103 1906h277l154 -264h-147l-163 161l-221 -161h-147z" />
<glyph unicode="&#x175;" horiz-adv-x="1586" d="M56 0zM826 1638h218l164 -376h-148l-152 225l-231 -225h-148zM1185 300q8 8 135 182q128 183 179 460l-125 -2l21 123h245q-51 -382 -164 -578q-175 -305 -347 -485h-219l-86 666l-321 -666h-218l-125 942h-104l21 121h392l92 -696l336 696h190z" />
<glyph unicode="&#x176;" horiz-adv-x="1315" d="M93 0zM186 0l21 121h181l87 497l-267 754h-115l21 121h645l-21 -121h-150l203 -569l400 569h-134l21 121h385l-21 -121h-114l-495 -702l-96 -549h180l-21 -121h-710zM720 1906h277l154 -264h-147l-163 161l-221 -161h-147z" />
<glyph unicode="&#x177;" horiz-adv-x="1071" d="M0 0zM567 1638h218l164 -376h-148l-152 225l-231 -225h-148zM447 -273l-256 1215h-104l21 121h391l215 -1028q103 166 172.5 353.5t137.5 551.5l-128 1l21 121l258 1q-22 -128 -55 -293q-80 -406 -180 -594q-263 -490 -475 -580q-120 -51 -292 -51q-85 0 -208 43l39 222 l101 -1q-3 -24 -3 -44q0 -69 42 -91q19 -10 58 -16q21 -3 43 -3q100 0 202 72z" />
<glyph unicode="&#x178;" horiz-adv-x="1315" d="M93 0zM186 0l21 121h181l87 497l-267 754h-115l21 121h645l-21 -121h-150l203 -569l400 569h-134l21 121h385l-21 -121h-114l-495 -702l-96 -549h180l-21 -121h-710zM554 1776q11 60 58 103q46 44 100 44t85 -44q31 -43 20.5 -103t-56.5 -103q-45 -43 -99 -43t-86.5 43 t-21.5 103zM956.5 1776q10.5 60 57.5 103q46 44 100 44t86 -44q33 -43 22 -103t-58 -103t-101 -43t-86 43q-31 43 -20.5 103z" />
<glyph unicode="&#x179;" horiz-adv-x="1345" d="M0 0zM1027 1900h251l-314 -264h-148zM-62 0l24 141l1015 1215h-644l-39 -223h-123l63 360h1166l-24 -141l-1006 -1215h679l37 209h123l-61 -346h-1210z" />
<glyph unicode="&#x17a;" horiz-adv-x="1046" d="M0 0zM845 1590h251l-402 -376h-148zM1057 944l-631 -749q31 -12 56 -29q114 -68 186 -68q108 0 270 145l-28 -158q-160 -168 -304 -168q-74 4 -189 68q-129 73 -179.5 73t-102.5 -23t-74 -37l-89 2l21 121l628 748q-29 11 -54 28q-114 68 -185 68q-108 0 -270 -145 l27 158q160 168 304 168q75 -4 189 -68q129 -73 179.5 -73t103 23t73.5 37l90 -2z" />
<glyph unicode="&#x17b;" horiz-adv-x="1345" d="M0 0zM-62 0l24 141l1015 1215h-644l-39 -223h-123l63 360h1166l-24 -141l-1006 -1215h679l37 209h123l-61 -346h-1210zM733 1802q11 60 58 103q46 44 100 44t86 -44q31 -43 20.5 -103t-57.5 -103q-46 -43 -100 -43t-86 43t-21 103z" />
<glyph unicode="&#x17c;" horiz-adv-x="1046" d="M0 0zM527 1408q11 60 57 103t100 43t87 -43q31 -43 21 -103q-10 -59 -57 -103t-101 -44t-85.5 44t-21.5 103zM1057 944l-631 -749q31 -12 56 -29q114 -68 186 -68q108 0 270 145l-28 -158q-160 -168 -304 -168q-74 4 -189 68q-129 73 -179.5 73t-102.5 -23t-74 -37l-89 2 l21 121l628 748q-29 11 -54 28q-114 68 -185 68q-108 0 -270 -145l27 158q160 168 304 168q75 -4 189 -68q129 -73 179.5 -73t103 23t73.5 37l90 -2z" />
<glyph unicode="&#x17d;" horiz-adv-x="1345" d="M0 0zM-62 0l24 141l1015 1215h-644l-39 -223h-123l63 360h1166l-24 -141l-1006 -1215h679l37 209h123l-61 -346h-1210zM709 1635l-154 264h147l163 -162l221 162h147l-247 -264h-277z" />
<glyph unicode="&#x17e;" horiz-adv-x="1046" d="M0 0zM1057 944l-631 -749q31 -12 56 -29q114 -68 186 -68q108 0 270 145l-28 -158q-160 -168 -304 -168q-74 4 -189 68q-129 73 -179.5 73t-102.5 -23t-74 -37l-89 2l21 121l628 748q-29 11 -54 28q-114 68 -185 68q-108 0 -270 -145l27 158q160 168 304 168 q75 -4 189 -68q129 -73 179.5 -73t103 23t73.5 37l90 -2zM506 1262l-164 376h148l151 -227l232 227h148l-297 -376h-218z" />
<glyph unicode="&#x17f;" horiz-adv-x="792" d="M1015 1290h-101q2 15 2 28q0 57 -22 88q-27 38 -89 38q-72 0 -114.5 -57.5t-64.5 -186.5l-216 -1229q-36 -209 -148 -269q-174 -91 -371 -91q10 56 21 112q72 0 114 57.5t65 186.5l171 975h-142l20 121h143l23 133q31 177 148.5 268.5t315.5 91.5q76 0 147 -9.5 t139 -28.5z" />
<glyph unicode="&#x180;" horiz-adv-x="1288" d="M297 1436h-137l21 120h455l-39 -223h323l-24 -137h-323l-47 -268q55 83 130.5 123.5t176.5 40.5q205 0 296 -150q61 -99 61 -248q0 -75 -16 -162q-45 -261 -189 -411t-348 -150q-101 0 -162 40.5t-87 123.5l-24 -135h-318l209 1196h-142l24 137h142zM448 479 q-17 -100 -17 -170q0 -60 13 -99q28 -83 123 -83q98 0 153.5 88t95.5 317q25 142 25 229q0 54 -9 87q-25 88 -123 88q-96 0 -153 -83t-90 -269z" />
<glyph unicode="&#x181;" horiz-adv-x="1557" d="M389 1493h624q250 0 353 -92q107 -95 75 -277q-23 -133 -121 -211q-99 -78 -270 -98q202 0 289 -120q91 -99 62 -263q-39 -222 -208 -327t-490 -105h-747l21 121h172l219 1251q-177 0 -254 -89q-79 -91 -112 -277h-178l63 358q86 69 307 112q89 17 195 17zM626 870h118 q155 0 241 62q85 63 108 192q23 130 -40 189q-62 59 -221 59h-118zM495 121h129q172 0 268 76t124 235q28 160 -42 239t-240 79h-129z" />
<glyph unicode="&#x182;" horiz-adv-x="1575" d="M0 0zM-44 0l21 121h171l220 1251h-172l21 121h1305l-65 -373h-121l40 236h-665l-85 -486h119q222 0 328 -21q173 -34 283 -154q70 -75 70 -188q0 -36 -8 -75q-38 -222 -207.5 -327t-506.5 -105h-748zM495 121h130q188 0 284 76t124 235q8 47 8 86q0 96 -48 151 q-71 81 -258 81h-129z" />
<glyph unicode="&#x183;" horiz-adv-x="1288" d="M448 479q-33 -186 -5 -269q29 -83 124 -83q98 0 154 88q55 88 95 317t16 316q-25 88 -123 88q-96 0 -153 -83t-90 -269zM1175 1556l-50 -288h-109l30 168h-431l-89 -508q55 83 131 124q75 40 176 40q205 0 296 -150q91 -149 45.5 -410t-188.5 -411q-145 -150 -349 -150 q-101 0 -162 41q-61 40 -87 123l-24 -135h-455l21 121h137l230 1315h-137l21 120h994z" />
<glyph unicode="&#x184;" horiz-adv-x="1575" d="M626 870h119q184 0 307 -18q12 -1 21 -3q171 -34 281 -151q1 -2 2 -3q91 -99 62 -263q-39 -222 -208 -327t-506 -105h-748l21 121h172l125 713h-259l21 121l699 538zM495 121h130q182 0 278 72l6 4q96 76 124 235q28 160 -42 239q-66 75 -241 79h-15h-130z" />
<glyph unicode="&#x185;" horiz-adv-x="1288" d="M448 479q-33 -186 -4.5 -269t123.5 -83q98 0 153.5 88t95.5 317t15.5 316.5t-122.5 87.5q-96 0 -153 -83t-90 -269zM43 1008l21 120l572 429l-110 -629q55 83 130.5 123.5t176.5 40.5q204 0 295.5 -149.5t46 -410.5t-189.5 -411t-348 -150q-101 0 -162 40.5t-87 123.5 l-24 -135h-455l21 121h137l154 887h-178z" />
<glyph unicode="&#x186;" horiz-adv-x="1467" d="M133 1065q94 231 251 343t390 112q340 0 501 -208.5t98 -565.5q-62 -358 -296 -566.5t-574 -208.5q-120 0 -244 32t-258 97l65 367h114q2 -188 78.5 -281.5t228.5 -93.5q196 0 319.5 160.5t182 493.5t-9 493t-265.5 160q-134 0 -234 -83t-168 -251h-179z" />
<glyph unicode="&#x187;" horiz-adv-x="1467" d="M1300 426q-94 -231 -251 -343t-389 -112q-341 0 -501 209q-162 208 -99 565q62 358 297 567q233 208 574 208q119 0 243 -32q50 -13 102 -31q37 126 125 195q89 69 180 69q54 0 113.5 -10t122.5 -29l-40 -225h-101q14 80 -8 115q-21 36 -80 36q-66 0 -100.5 -47 t-55.5 -170l-64 -367h-115q-2 188 -78 282q-77 93 -229 93q-196 0 -319 -161q-124 -160 -182 -493t9 -493t265 -160q135 0 235 83q99 83 167 251h179z" />
<glyph unicode="&#x188;" horiz-adv-x="1122" d="M973 332q-66 -182 -187 -272q-122 -89 -304 -89q-255 0 -370 147t-68 414q46 264 210.5 412t411.5 148q99 0 196 -21l9 52q29 163 148 247q118 83 210 83q54 0 113.5 -10t122.5 -29l-40 -225h-101q14 80 -9 115q-20 36 -79 36q-66 0 -100.5 -47t-55.5 -170l-20 -115 l-52 -295h-101q10 135 -36 201q-45 65 -147 65q-134 0 -207 -100q-74 -100 -117 -347q-43 -241 -6 -344q37 -104 161 -104q97 0 165 64q70 64 104 184h149z" />
<glyph unicode="&#x189;" horiz-adv-x="1611" d="M0 0zM508 121h125q211 0 333.5 149.5t180.5 477.5q57 326 -13.5 475t-281.5 149h-125l-91 -522h298l-24 -137h-298zM-32 0l21 121h172l104 592h-192l24 137h192l91 522h-172l21 121h691q360 0 517.5 -191.5t94.5 -553.5q-63 -363 -288 -555.5t-585 -192.5h-691z" />
<glyph unicode="&#x18a;" horiz-adv-x="1598" d="M389 1493h517q362 0 520 -192t95 -553q-63 -363 -290 -556q-225 -192 -586 -192h-689l21 121h172l219 1251q-177 0 -254 -89q-79 -91 -112 -277h-178l63 358q86 69 307 112q89 17 195 17zM495 121h125q211 0 335 150t181 477q57 325 -14 474q-71 150 -283 150h-125z" />
<glyph unicode="&#x18b;" horiz-adv-x="1575" d="M1062 1356h-666l-41 -236h-121l65 373h1305l-21 -121h-172l-219 -1251h172l-21 -121h-748q-338 0 -470 105t-94 327q29 164 154 263q2 1 5 3q150 117 333 151q9 2 21 3q130 18 314 18h119zM845 121l111 629h-130h-14q-176 0 -270 -79q-97 -79 -125 -239q-28 -159 41 -235 q3 -2 5 -4q71 -72 253 -72h129z" />
<glyph unicode="&#x18c;" horiz-adv-x="1288" d="M710 479l18 105q33 186 4 269q-28 83 -123 83q-98 0 -153 -88q-56 -87 -96 -316t-15 -317q24 -88 122 -88q96 0 153 83t90 269zM1332 1436h-136l-230 -1315h137l-22 -121h-455l24 135q-55 -83 -131 -123q-75 -41 -176 -41q-204 0 -295 150q-92 150 -46.5 411t189.5 410 q144 150 348 150q101 0 162 -40q61 -41 87 -124l89 508h-430l-29 -168h-109l50 288h994z" />
<glyph unicode="&#x18d;" horiz-adv-x="1229" d="M867 41q130 -94 105 -238q-30 -169 -162 -238l-12 -6q-127 -63 -322 -63q-90 0 -198 13q-106 13 -206 37l37 213h101q-2 -36 9 -57q6 -14 41 -47q51 -46 148 -46q108 0 174 48l34 27q41 35 49 123q29 164 -106 164q-255 0 -371 149q-117 149 -71 411t216 411 q169 150 422 150t370 -150q118 -149 72 -411q-46 -263 -216 -411q-101 -89 -114 -79zM735 979q-100 0 -159 -96q-57 -96 -101.5 -352t-21.5 -351q24 -96 126 -96t160 96q58 97 102.5 351t20 351t-126.5 97z" />
<glyph unicode="&#x18e;" horiz-adv-x="1404" d="M1180 0h-1224l61 352h124l-38 -215h582l106 604h-352l-33 -190h-123l90 516h123l-33 -190h352l84 479h-566l-37 -215h-124l61 352h1208l-21 -121h-172l-219 -1251h172z" />
<glyph unicode="&#x18f;" horiz-adv-x="1605" d="M1154 830q47 269 -22 408q-67 160 -265 160q-134 0 -234 -83t-168 -252h-179q94 231 251 344q157 112 390 112q340 0 500 -209q162 -208 99 -565q-63 -362 -292 -568t-568 -206t-495.5 206t-93.5 568l15 85h1062zM1127 669h-677q-49 -281 11 -415q62 -162 227 -162 q172 0 283 161q108 142 156 416z" />
<glyph unicode="&#x190;" horiz-adv-x="1329" d="M336 1075q0 -209 241 -260q-359 -62 -420 -412q-9 -47 -9 -89q0 -145 99 -232q126 -111 468 -111q212 0 355.5 94.5t203.5 199.5h-179q-115 -177 -317 -177q-172 0 -226 84q-36 56 -36 123q0 244 130 367q94 88 345 88h59l21 120h-47q-240 0 -295 68q-39 48 -39 127 q0 33 8 72q22 131 96.5 198.5t227 67.5t199 -59.5t46.5 -157.5q0 -17 -1 -35h109l52 299q-225 70 -449 70q-311 0 -457.5 -96.5t-178.5 -276.5q-6 -38 -6 -72z" />
<glyph unicode="&#x191;" horiz-adv-x="1308" d="M-22 -426q-148 0 -292 68l41 235h117q-25 -143 59 -173q22 -9 52 -9q87 0 135 75q49 75 84 279l231 1323h-172l21 121h1198l-61 -352h-124l38 215h-555l-83 -479h341l33 190h123l-90 -516h-123l33 190h-341l-123 -700q-46 -263 -195 -373q-128 -94 -347 -94z" />
<glyph unicode="&#x192;" horiz-adv-x="792" d="M1016 1290h-101q1 15 1 28q0 57 -22 88q-27 38 -89 38q-72 0 -115 -58q-42 -57 -65 -186l-24 -137h241l-21 -121h-241l-170 -971q-31 -177 -148 -269q-118 -91 -315 -91q-77 0 -148 9q-71 10 -138 29l40 228h101q-1 -15 -2 -28q0 -57 22 -88q27 -38 90 -38q72 0 114 57 q42 58 65 187l171 975h-143l22 121h142l23 133q31 177 149 268q117 92 315 92q76 0 147 -10q72 -9 138 -28z" />
<glyph unicode="&#x193;" horiz-adv-x="1574" d="M1318 1435q49 155 129 217q88 69 180 69q54 0 113.5 -10t122.5 -29l-40 -225h-102q14 80 -8 115q-20 36 -79 36q-66 0 -100.5 -47t-55.5 -170l-64 -367h-115q-6 198 -85 286q-79 89 -251 89q-208 0 -334 -157q-125 -158 -184 -497q-59 -336 7 -495q66 -158 264 -158 q75 0 143.5 19t127.5 57l72 410h-162l21 120h484l-100 -573q-165 -78 -322 -116t-315 -38q-346 0 -506 207q-162 207 -99 567q63 361 297 568q233 207 579 207q212 0 278 -32z" />
<glyph unicode="&#x194;" horiz-adv-x="1420" d="M617 710l-314 676h-166l19 107h613l-19 -107h-50l167 -420l353 420h-179l19 107h506l-19 -107h-174l-456 -531q374 -765 181 -899q-207 -144 -551 -144q-366 0 -395 200q-27 181 465 698zM673 595q-352 -383 -373 -515q-24 -150 268 -147q260 2 273 152q9 117 -168 510z " />
<glyph unicode="&#x195;" horiz-adv-x="1922" d="M1085 346q-39 -226 99 -225q90 0 166 112t108 297q28 161 7 257q-26 121 -48 148l7 44h116q148 -64 218 -193q71 -130 46 -272q-19 -108 -81 -207t-158 -172q-86 -67 -190 -102q-104 -36 -214 -36q-455 0 -393 351l58 338q24 137 3 188q-23 52 -99 52q-96 0 -155 -78 q-58 -79 -89 -250l-104 -598h-319l251 1436h-142l22 120h460l-112 -643q74 95 155 137t193 42q159 0 225 -106q64 -105 28 -310z" />
<glyph unicode="&#x196;" horiz-adv-x="862" d="M187 337l181 1035h-172l21 121h691l-21 -121h-173l-178 -1021q-23 -131 1 -191q26 -61 111 -61l-17 -99h-180q-181 0 -210 24q-95 78 -54 313z" />
<glyph unicode="&#x197;" horiz-adv-x="862" d="M623 851h223l-33 -192h-224l-94 -538h173l-21 -121h-691l21 121h172l94 538h-224l33 192h225l91 521h-172l21 121h691l-21 -121h-173z" />
<glyph unicode="&#x198;" horiz-adv-x="1602" d="M1415 1332l-516 -421l518 -790h132l-21 -121h-455l-472 725l-106 -604h173l-21 -121h-691l21 121h172l219 1251h-172l21 121h691l-21 -121h-173l-95 -545l665 545q145 119 272 121q47 0 114 -9q59 -10 122 -29l-40 -225h-101q14 80 -9 116q-21 38 -79 35q-95 -4 -148 -49 z" />
<glyph unicode="&#x199;" horiz-adv-x="1277" d="M454 412l-72 -412h-319l214 1226q29 163 147 246q119 84 321 84q54 0 113.5 -10t122.5 -29l-40 -225h-101q13 80 -8 116q-21 35 -80 35q-66 0 -100 -47q-35 -49 -56 -170l-117 -669l453 385h-114l21 121h259l-21 -121l-289 -246l302 -575h103l-20 -121h-352l-263 500z " />
<glyph unicode="&#x19a;" horiz-adv-x="700" d="M402 121h137l-21 -121h-455l84 479h-136l21 121h135l147 836h-136l21 120h454l-167 -956h137l-21 -121h-137z" />
<glyph unicode="&#x19b;" horiz-adv-x="1292" d="M994 121h111l-21 -121h-360l22 121h125l-107 579l-377 -579h117l-22 -121h-549l22 121h105l625 988l1 1l-423 -251l-38 105l430 256q-41 125 -95 156q-36 22 -114 24q-59 0 -97 -37q-37 -37 -53 -114h-102l39 221q70 22 123 32q65 12 100 11q204 0 287 -241l213 126 l39 -105l-221 -131v-2z" />
<glyph unicode="&#x19c;" horiz-adv-x="1950" d="M755 174q-85 -106 -171 -154.5t-190 -48.5q-164 0 -227.5 103.5t-27.5 312.5l173 985h-137l21 121h570l-21 -121h-115l-163 -932q-34 -199 -16 -251t93 -52q85 0 144 72.5t83 206.5l167 956h-114l21 121h547l-21 -121h-114l-163 -932q-35 -199 -16 -251t92 -52 q86 0 145.5 72.5t82.5 206.5l167 956h-114l21 121h569l-21 -121h-136l-219 -1251h136l-21 -121h-455l27 150q-72 -93 -151.5 -136t-178.5 -43q-117 0 -181.5 49.5t-85.5 153.5z" />
<glyph unicode="&#x19d;" horiz-adv-x="1684" d="M-320 -358l41 235h117q-25 -143 60 -173q22 -9 52 -9q87 0 134 75q48 74 84 279l232 1323h-172l21 121h420l626 -1057l164 936h-171l21 121h470l-21 -121h-172l-240 -1372h-236l-635 1079l-181 -1038q-50 -285 -167 -389q-87 -78 -214 -78q-15 0 -87.5 17t-145.5 51z" />
<glyph unicode="&#x19e;" horiz-adv-x="1340" d="M140 0l165 942h-136l22 121h454l-26 -150q74 95 155.5 137t193.5 42q162 0 224 -106q64 -106 29 -310l-172 -981h136l-21 -121h-455l195 1112q24 137 2 188q-22 52 -99 52q-96 0 -155 -78q-58 -79 -88 -250l-105 -598h-319z" />
<glyph unicode="&#x19f;" horiz-adv-x="1605" d="M666 -29q-339 0 -495.5 206t-93 568t292.5 568.5t567 206.5q340 0 496.5 -206t92.5 -569q-63 -362 -292 -568t-568 -206zM688 92q171 0 283 161q99 142 156 416h-677q-38 -271 11 -415q56 -162 227 -162zM479 830h676q37 268 -11 408q-56 161 -228 161q-171 0 -283 -163 q-98 -140 -154 -406z" />
<glyph unicode="&#x1a0;" horiz-adv-x="1605" d="M76 0zM1333 1253l21 126q50 -50 80 -69t56 -19q37 0 62.5 28t34.5 80q7 40 6.5 80t-6.5 78h140q0 -54 -3.5 -102t-10.5 -90q-20 -114 -72 -176t-128 -62q-47 0 -90.5 31t-89.5 95zM687 92q171 0 283 161t170 492q58 332 2.5 493t-227.5 161q-171 0 -283.5 -162.5 t-169.5 -491.5q-58 -328 -2 -490.5t227 -162.5zM665 -29q-339 0 -495.5 206t-93 568t292.5 568.5t567 206.5q340 0 496.5 -206t92.5 -569q-63 -362 -292 -568t-568 -206z" />
<glyph unicode="&#x1a1;" horiz-adv-x="1229" d="M64 0zM997 818l21 126q50 -50 80 -69t56 -19q37 0 62.5 28t34.5 80q7 40 6.5 80t-6.5 78h140q0 -54 -3.5 -102t-10.5 -90q-20 -114 -72 -176t-128 -62q-47 0 -90.5 31t-89.5 95zM538 84q101 0 159 96t102 352q30 167 30 266q0 52 -9 86q-23 95 -125 95t-160 -96.5 t-103 -350.5q-28 -164 -28 -262q0 -55 8 -89q25 -97 126 -97zM518.5 -29q-252.5 0 -370.5 149q-84 108 -84 274q0 64 13 138q46 263 215.5 411.5t422.5 148.5t371 -148q84 -107 84 -273q0 -65 -13 -139q-46 -262 -216 -411.5t-422.5 -149.5z" />
<glyph unicode="&#x1a2;" horiz-adv-x="2212" d="M694 -29q-340 0 -496.5 206t-93 568t292.5 568.5t568 206.5q228 0 374 -94q83 33 160 50q78 17 153 17q240 0 331 -112t48 -355l-220 -1256h172l-21 -121h-692l21 121h172l218 1248q36 205 14.5 279.5t-108.5 74.5q-69 0 -111 -44q-7 -7 -14 -16q155 -206 92 -567 q-64 -362 -293 -568t-567 -206zM715 92q172 0 283.5 161t169.5 492q58 332 2.5 493t-227.5 161q-171 0 -283.5 -162.5t-169.5 -491.5q-58 -328 -2 -490.5t227 -162.5z" />
<glyph unicode="&#x1a3;" horiz-adv-x="1738" d="M1026 1027q136 36 239 36q203 0 292 -83.5t61 -246.5l-182 -1038h148l-21 -121h-467l203 1159q22 123 4 170t-77 47t-90 -27q98 -146 53.5 -399.5t-214 -403t-422.5 -149.5t-370.5 149.5t-71.5 412t215.5 411t422.5 148.5q169 0 277 -65zM446.5 181q24.5 -97 126 -97 t159 96t102.5 352t21 351.5t-125.5 95.5t-160 -96.5t-103 -350.5t-20 -351z" />
<glyph unicode="&#x1a4;" horiz-adv-x="1386" d="M389 1493h593q224 0 336 -119q111 -118 76 -317q-35 -200 -188 -319q-154 -120 -377 -120h-247l-87 -497h217l-21 -121h-735l21 121h172l219 1251q-177 0 -254 -89q-79 -91 -112 -277h-178l63 358q86 69 307 112q89 17 195 17zM603 739h101q117 0 203 87q84 86 109 231 q26 144 -29 229q-54 86 -172 86h-101z" />
<glyph unicode="&#x1a5;" horiz-adv-x="1288" d="M510 584l-19 -105q-32 -186 -4 -269q29 -83 124 -83q98 0 154 88q55 88 95 317t16 316q-26 88 -124 88q-95 0 -153 -83q-56 -83 -89 -269zM285 1123q29 165 147 247q120 83 322 83q54 0 113.5 -10t121.5 -29l-39 -225h-102q13 78 -7 115q-21 36 -81 36q-65 0 -99.5 -47 t-56.5 -170l-33 -195q55 83 130 124q75 40 176 40q204 0 296 -150q91 -149 45.5 -410t-188.5 -411q-144 -150 -349 -150q-101 0 -162 41q-62 40 -88 123l-98 -561h-319z" />
<glyph unicode="&#x1a6;" horiz-adv-x="1531" d="M393 1372h-172l21 121h688l-21 -121h-169l-30 -170h248q234 0 343 -104q84 -80 84 -211q0 -41 -8 -86q-55 -311 -427 -363q78 -13 124.5 -58.5t72.5 -133.5l123 -416h138l-21 -121h-442l-136 451q-44 147 -77.5 182t-110.5 35h-55l-49 -256h173l-21 -121h-691l21 121h172 zM587 497h118q126 0 207 76t106 217q7 44 7 81q0 83 -38 135q-54 75 -180 75h-118z" />
<glyph unicode="&#x1a7;" horiz-adv-x="1331" d="M1082 72q-143 -51 -277 -76t-265 -25q-273 0 -393 117q-120 118 -80 344q33 193 136 303q104 110 301 162l211 55q192 52 247 100q55 49 71 142q18 102 -40 154q-60 51 -193 51q-163 0 -263 -71q-101 -72 -154 -226h-115l58 330q145 44 275 66q132 22 250 22 q239 0 350 -124q112 -123 73 -345q-32 -184 -130 -283q-97 -100 -304 -156l-211 -55q-163 -43 -221 -93t-74 -140q-20 -114 42.5 -173t202.5 -59q172 0 283.5 83t167.5 251h114z" />
<glyph unicode="&#x1a8;" horiz-adv-x="1037" d="M867 31q-117 -30 -219.5 -45t-191.5 -15q-244 0 -345 85q-100 86 -68 266q24 139 109.5 217t283.5 131l137 37q78 21 112 52t44 85q11 66 -32 100q-45 35 -142 35q-115 0 -186 -55t-99 -164h-101l47 268q121 33 219 48q100 16 184 16q225 0 318 -84q94 -85 63 -258 q-22 -130 -102 -206q-80 -77 -236 -118l-138 -37q-99 -26 -138 -61t-50 -99q-12 -70 33 -107q45 -38 142 -38q116 0 195 62q78 63 112 182h101z" />
<glyph unicode="&#x1a9;" horiz-adv-x="1303" d="M0 0zM-56 0l729 748l-468 745h1105l-58 -332h-111l34 195h-460l276 -470l-600 -608h595l26 144h110l-74 -422h-1104z" />
<glyph unicode="&#x1aa;" horiz-adv-x="610" d="M848 1523q-16 -89 -72 -170q-44 -63 -140 -118l-2 -8l-413 -1327q-36 -116 0 -187q29 -57 94 -57q62 0 102.5 38t61.5 116h101l-40 -228q-74 -19 -148.5 -28.5t-150.5 -9.5q-187 0 -283 91q-107 102 -55 269l383 1229q-33 -2 -68 -2q-56 0 -97 11q-130 37 -103 189 q39 222 352 225q117 1 203 -83q58 -55 71 -124q27 23 47 51q33 44 58 123h99zM314 1223l2 4q38 124 3 170q-21 28 -47 30q-117 7 -133 -81q-22 -127 144 -125q15 0 31 2z" />
<glyph unicode="&#x1ab;" horiz-adv-x="851" d="M347 942h-138l21 121h139l57 330h319l-58 -330h266l-21 -121h-266l-114 -651q-24 -139 -10 -173t66 -34h249l-36 -209q-29 -163 -147.5 -246.5t-321.5 -83.5q-54 0 -113 10t-122 29l39 225h102q-12 -80 8.5 -115.5t79.5 -35.5q64 0 100 47q34 45 56 170l17 96h-4 q-197 0 -255 68.5t-26 251.5z" />
<glyph unicode="&#x1ac;" horiz-adv-x="1371" d="M619 1356q-187 0 -252 -73q-78 -91 -111 -277h-178l62 358q87 69 308 112q88 17 195 17h840l-65 -373h-121l41 236h-371l-216 -1235h179l-21 -121h-706l21 121h179z" />
<glyph unicode="&#x1ad;" horiz-adv-x="851" d="M214 942h-139l21 121h139l29 163q28 163 146 246q119 84 322 84q54 0 113.5 -10t121.5 -29l-39 -225h-102q12 80 -8 116q-21 35 -80 35q-63 0 -100 -47q-33 -42 -56 -170l-28 -163h265l-21 -121h-265l-114 -651q-25 -139 -11 -173t66 -34q58 0 93.5 43t52.5 133h134 q-28 -160 -118 -224q-82 -65 -254 -65q-198 0 -256 69q-58 68 -26 251z" />
<glyph unicode="&#x1ae;" horiz-adv-x="1371" d="M426 41l230 1315h-368l-41 -236h-124l66 373h1332l-66 -373h-121l41 236h-371l-228 -1307q-36 -205 -15 -279q22 -75 109 -75q69 0 111 44t64 138h117l-41 -235q-84 -34 -162.5 -51t-153.5 -17q-240 0 -330 112q-92 112 -49 355z" />
<glyph unicode="&#x1af;" horiz-adv-x="1607" d="M180 0zM351 1372h-171l21 121h691l-21 -121h-172l-130 -747q-49 -279 9.5 -390.5t248.5 -111.5q186 0 283.5 112.5t145.5 389.5l131 747h-171l21 121h468l-21 -121h-172l-134 -768q-60 -342 -219 -487.5t-473 -145.5q-312 0 -420.5 147t-48.5 488zM1451 1248l21 126 q50 -50 80 -69t56 -19q37 0 62.5 28t34.5 80q7 40 6.5 80t-6.5 78h140q0 -54 -3.5 -102t-10.5 -90q-20 -114 -72 -176t-128 -62q-47 0 -90.5 31t-89.5 95z" />
<glyph unicode="&#x1b0;" horiz-adv-x="1340" d="M121 0zM1241 1063l-165 -942h136l-21 -121h-456l26 150q-73 -95 -154 -137t-194 -42q-161 0 -225 105q-41 68 -41 176q0 61 13 135l97 555h-136l21 121h455l-108 -621q-22 -125 -22 -192q0 -40 7 -60q21 -53 100 -53q96 0 154.5 79t88.5 251l104 596h320zM1108 818 l21 126q50 -50 80 -69t56 -19q37 0 62.5 28t34.5 80q7 40 6.5 80t-6.5 78h140q0 -54 -3.5 -102t-10.5 -90q-20 -114 -72 -176t-128 -62q-47 0 -90.5 31t-89.5 95z" />
<glyph unicode="&#x1b1;" horiz-adv-x="1640" d="M617 1336h-300l-22 -125h-123l54 309h659l-33 -193q-146 -32 -245 -184t-145 -418q-52 -295 11 -449q63 -155 236 -155t290 155q116 154 168 451q46 261 0 415q-47 153 -180 185l34 193h661l-54 -309h-123l22 125h-301q197 -92 279 -252q81 -161 43 -381 q-55 -316 -292 -509q-235 -194 -568 -194t-502 194q-168 193 -113 509q38 220 176 381q138 160 368 252z" />
<glyph unicode="&#x1b2;" horiz-adv-x="1640" d="M711 121q173 0 289.5 154.5t168.5 451.5q46 263 0 415q-40 130 -94 130l17 100h108q207 -90 307 -288q82 -161 43 -381q-55 -316 -291 -509.5t-569 -193.5h-180q-181 0 -210 24q-95 78 -54 313l181 1035h-172l21 121h692l-22 -121h-172l-175 -999q-23 -129 2 -191 q23 -61 110 -61z" />
<glyph unicode="&#x1b3;" horiz-adv-x="1315" d="M1191 1372q87 123 241 123q44 0 77 -10q59 -10 122 -29l-40 -225h-102q13 80 -7.5 115.5t-79.5 35.5q-67 0 -100 -47l-470 -665l-96 -549h181l-21 -121h-710l21 121h181l87 497l-268 754h-114l21 121h645l-22 -121h-149l203 -569z" />
<glyph unicode="&#x1b4;" horiz-adv-x="1287" d="M1106 932l-629 -1172q-63 -117 -133 -166t-173 -49q-44 0 -96.5 11t-112.5 32l39 222l102 -1q-11 -77 12.5 -114t83.5 -37q59 0 101 35.5t96 134.5l21 37l-229 1077h-103l21 121h552l-22 -121h-114l133 -629l337 629q81 151 234 150q28 0 87.5 -10t121.5 -29l-39 -225 h-102q12 80 -8 115.5t-80 35.5q-72 4 -100 -47z" />
<glyph unicode="&#x1b5;" horiz-adv-x="1345" d="M-62 0l24 141l433 518h-200l34 192h327l421 505h-644l-39 -223h-123l63 360h1166l-24 -141l-415 -501h219l-33 -192h-344l-433 -522h679l37 209h123l-61 -346h-1210z" />
<glyph unicode="&#x1b6;" horiz-adv-x="1046" d="M114 479l21 121h260l226 269q-23 9 -54 28q-112 68 -185 68q-108 0 -270 -145l28 158q162 170 303 168q70 -1 190 -68q128 -73 178.5 -73t103 23t73.5 37l89 -2l-20 -119l-289 -344h167l-21 -121h-249l-238 -284q23 -9 55 -29q112 -68 186 -68q108 0 270 145l-28 -158 q-162 -170 -303 -168q-71 1 -190 68q-129 73 -179.5 73t-102.5 -23t-74 -37l-89 2l21 121l300 358h-179z" />
<glyph unicode="&#x1b7;" horiz-adv-x="1210" d="M676 839q195 -21 280 -105q123 -121 86 -331q-36 -209 -204.5 -320.5t-451.5 -111.5q-106 0 -215.5 20t-225.5 60l57 328h109q-15 -142 42 -216.5t182 -74.5q136 0 225.5 84.5t117.5 239.5q28 162 -34.5 250t-205.5 88h-60l40 224l305 382h-387l-39 -223h-123l63 360h881 l-24 -137z" />
<glyph unicode="&#x1b8;" horiz-adv-x="1210" d="M525 839l-237 517l24 137h881l-63 -360h-123l39 223h-387l172 -382l-39 -224h-60q-143 0 -236 -88t-122 -250q-27 -155 33 -239.5t197 -84.5q124 0 207 74.5t118 216.5h109l-57 -328q-131 -40 -247.5 -60t-222.5 -20q-282 0 -411.5 111.5t-93.5 320.5q37 210 202 331 q115 84 317 105z" />
<glyph unicode="&#x1b9;" horiz-adv-x="1210" d="M529 452l-241 492l20 119h891l-52 -299h-107l32 182h-413l176 -358l-40 -225h-59q-143 0 -236.5 -88t-121.5 -250q-27 -155 33 -239.5t196 -84.5q125 0 208 74.5t118 216.5h109l-58 -328q-130 -40 -246.5 -60t-222.5 -20q-283 0 -412 111.5t-93 320.5q37 210 202 331 q115 84 317 105z" />
<glyph unicode="&#x1bb;" horiz-adv-x="1282" d="M307 1124h-108l56 322q116 37 228 56q110 18 220 18q256 0 380 -116q123 -117 86 -325q-22 -125 -96 -228h105l-34 -192h-272q-77 -57 -180 -124l-422 -273h636l31 176h124l-77 -438h-994l43 244l226 153q219 149 334 262h-400l34 192h506q45 91 64 198q30 173 -18 263 q-49 91 -172 91q-107 0 -183 -71q-76 -72 -117 -208z" />
<glyph unicode="&#x1bc;" horiz-adv-x="1389" d="M942 840q170 -31 238.5 -133t33.5 -304q-36 -209 -204.5 -320.5t-451.5 -111.5q-106 0 -215.5 20t-225.5 60l57 328h109q-15 -142 42 -216.5t182 -74.5q136 0 225.5 84.5t116.5 239.5q29 162 -33.5 250t-205.5 88h-349l109 622h-172l22 121h1197l-61 -352h-123l37 215 h-554l-85 -486q153 -1 311 -30z" />
<glyph unicode="&#x1bd;" horiz-adv-x="1046" d="M683 472q228 -53 280 -105q123 -121 83 -351q-37 -209 -205 -320.5t-451 -111.5q-106 0 -215.5 20t-225.5 60l57 328h109q-15 -142 42 -216.5t181 -74.5q137 0 226.5 84.5t116.5 239.5q29 162 -33.5 250t-205.5 88h-237l101 579h-136l21 121h994l-50 -289h-109l29 168 h-430l-80 -459q101 -2 138 -11z" />
<glyph unicode="&#x1be;" horiz-adv-x="988" d="M307 1393h319l-60 -344h133l-21 -121h-134l-24 -141q23 -8 89 -85q74 -85 32 -322q-39 -224 -143.5 -317t-338.5 -93q-65 0 -121.5 16t-106.5 50l32 198h102q-11 -82 8 -116q19 -35 100 -35q92 0 123 47q31 48 75 282q40 211 7 254q-23 30 -88 30h-105l41 232h-140 l21 121h140z" />
<glyph unicode="&#x1c0;" horiz-adv-x="543" d="M499 1493l-261 -1493h-194l262 1493h193z" />
<glyph unicode="&#x1c1;" horiz-adv-x="907" d="M44 0zM863 1493l-261 -1493h-194l262 1493h193zM499 1493l-261 -1493h-194l262 1493h193z" />
<glyph unicode="&#x1c2;" horiz-adv-x="846" d="M345 851h-311l29 162h310l84 480h193l-84 -480h310l-28 -162h-310l-37 -209h311l-29 -162h-310l-84 -480h-193l84 480h-310l28 162h310z" />
<glyph unicode="&#x1c3;" horiz-adv-x="543" d="M276 216l-38 -216h-194l38 216h194zM499 1493l-185 -1061h-194l186 1061h193z" />
<glyph unicode="&#x1c4;" horiz-adv-x="2943" d="M0 0zM1598 0zM1536 0l24 141l1015 1215h-644l-39 -223h-123l63 360h1166l-24 -141l-1006 -1215h679l37 209h123l-61 -346h-1210zM2307 1635l-154 264h147l163 -162l221 162h147l-247 -264h-277zM495 121h125q211 0 335 150t181 477q57 325 -14 474.5t-283 149.5h-125z M-44 0l21 121h172l219 1251h-172l21 121h689q362 0 520 -192t95 -553q-63 -363 -289 -555.5t-587 -192.5h-689z" />
<glyph unicode="&#x1c5;" horiz-adv-x="2645" d="M0 0zM1598 0zM2655 944l-631 -749q31 -12 56 -29q114 -68 186 -68q108 0 270 145l-28 -158q-160 -168 -304 -168q-74 4 -189 68q-129 73 -179.5 73t-102.5 -23t-74 -37l-89 2l21 121l628 748q-29 11 -54 28q-114 68 -185 68q-108 0 -270 -145l27 158q160 168 304 168 q75 -4 189 -68q129 -73 179.5 -73t103 23t73.5 37l90 -2zM2104 1262l-164 376h148l151 -227l232 227h148l-297 -376h-218zM495 121h125q211 0 335 150t181 477q57 325 -14 474.5t-283 149.5h-125zM-44 0l21 121h172l219 1251h-172l21 121h689q362 0 520 -192t95 -553 q-63 -363 -289 -555.5t-587 -192.5h-689z" />
<glyph unicode="&#x1c6;" horiz-adv-x="2335" d="M19 0zM1289 0zM2346 944l-631 -749q31 -12 56 -29q114 -68 186 -68q108 0 270 145l-28 -158q-160 -168 -304 -168q-74 4 -189 68q-129 73 -179.5 73t-102.5 -23t-74 -37l-89 2l21 121l628 748q-29 11 -54 28q-114 68 -185 68q-108 0 -270 -145l27 158q160 168 304 168 q75 -4 189 -68q129 -73 179.5 -73t103 23t73.5 37l90 -2zM1795 1262l-164 376h148l151 -227l232 227h148l-297 -376h-218zM740 479l19 105q17 99 17 169q0 61 -13 100q-29 83 -124 83q-99 0 -154 -87.5t-95 -316.5q-25 -141 -25 -228q0 -55 10 -89q25 -88 123 -88 q94 0 152 83t90 269zM1247 1556l-272 -1556h-318l23 135q-55 -83 -131 -123.5t-177 -40.5q-203 0 -293 150q-60 100 -60 248q0 75 15 163q46 262 188.5 411t346.5 149q100 0 162 -40.5t88 -123.5l89 508h-137l21 120h455z" />
<glyph unicode="&#x1c7;" horiz-adv-x="2168" d="M0 0zM1005 -358l41 235h117q-11 -94 16 -138t95 -44q88 0 135.5 74.5t83.5 279.5l231 1323h-195l21 121h716l-21 -121h-172l-233 -1331q-43 -243 -172.5 -355t-370.5 -112q-74 0 -147 17t-145 51zM-44 0l21 121h172l219 1251h-172l21 121h691l-21 -121h-173l-216 -1235 h529l42 236h121l-65 -373h-1169z" />
<glyph unicode="&#x1c8;" horiz-adv-x="1962" d="M0 0zM1600 1364q14 81 73.5 136.5t133.5 55.5q70 0 111 -56q30 -42 30 -97q0 -18 -4 -39q-14 -79 -73.5 -134.5t-130.5 -55.5q-73 0 -114 55q-30 41 -30 96q0 19 4 39zM1563 942h-136l21 121h454l-207 -1188q-29 -163 -147.5 -246.5t-321.5 -83.5q-54 0 -113.5 10 t-121.5 29l40 226l101 -1q-4 -30 -4 -54q0 -39 12 -61q21 -36 80 -36q66 0 100 47t56 170zM-44 0l21 121h172l219 1251h-172l21 121h691l-21 -121h-173l-216 -1235h529l42 236h121l-65 -373h-1169z" />
<glyph unicode="&#x1c9;" horiz-adv-x="1367" d="M62 0zM1004 1364q14 81 73.5 136.5t133.5 55.5q70 0 111 -56q30 -42 30 -97q0 -18 -4 -39q-14 -79 -73.5 -134.5t-130.5 -55.5q-73 0 -114 55q-30 41 -30 96q0 19 4 39zM967 942h-136l21 121h454l-207 -1188q-29 -163 -147.5 -246.5t-321.5 -83.5q-54 0 -113.5 10 t-121.5 29l40 226l101 -1q-4 -30 -4 -54q0 -39 12 -61q21 -36 80 -36q66 0 100 47t56 170zM402 121h136l-21 -121h-455l251 1436h-136l21 120h455z" />
<glyph unicode="&#x1ca;" horiz-adv-x="2556" d="M0 0zM1394 -358l41 235h117q-11 -94 16 -138t95 -44q88 0 135.5 74.5t83.5 279.5l231 1323h-195l21 121h716l-21 -121h-172l-233 -1331q-43 -243 -172.5 -355t-370.5 -112q-74 0 -147 17t-145 51zM-50 0l22 121h171l219 1251h-172l22 121h420l626 -1057l164 936h-171 l21 121h470l-22 -121h-171l-240 -1372h-236l-635 1079l-168 -958h171l-21 -121h-470z" />
<glyph unicode="&#x1cb;" horiz-adv-x="2351" d="M0 0zM1989 1364q14 81 73.5 136.5t133.5 55.5q70 0 111 -56q30 -42 30 -97q0 -18 -4 -39q-14 -79 -73.5 -134.5t-130.5 -55.5q-73 0 -114 55q-30 41 -30 96q0 19 4 39zM1952 942h-136l21 121h454l-207 -1188q-29 -163 -147.5 -246.5t-321.5 -83.5q-54 0 -113.5 10 t-121.5 29l40 226l101 -1q-4 -30 -4 -54q0 -39 12 -61q21 -36 80 -36q66 0 100 47t56 170zM-50 0l22 121h171l219 1251h-172l22 121h420l626 -1057l164 936h-171l21 121h470l-22 -121h-171l-240 -1372h-236l-635 1079l-168 -958h171l-21 -121h-470z" />
<glyph unicode="&#x1cc;" horiz-adv-x="2007" d="M102 0zM1644 1364q14 81 73.5 136.5t133.5 55.5q70 0 111 -56q30 -42 30 -97q0 -18 -4 -39q-14 -79 -73.5 -134.5t-130.5 -55.5q-73 0 -114 55q-30 41 -30 96q0 19 4 39zM1607 942h-136l21 121h454l-207 -1188q-29 -163 -147.5 -246.5t-321.5 -83.5q-54 0 -113.5 10 t-121.5 29l40 226l101 -1q-4 -30 -4 -54q0 -39 12 -61q21 -36 80 -36q66 0 100 47t56 170zM102 0l165 942h-136l21 121h455l-26 -150q74 95 155 137t194 42q161 0 225 -106q41 -67 41 -175q0 -61 -13 -135l-97 -555h136l-21 -121h-455l120 686q12 70 12 118q0 44 -10 70 q-22 52 -99 52q-96 0 -154.5 -78.5t-88.5 -249.5l-105 -598h-319z" />
<glyph unicode="&#x1cd;" horiz-adv-x="1430" d="M0 0zM-145 0l21 121h110l746 1372h215l267 -1372h127l-21 -121h-629l21 121h132l-58 305h-505l-165 -305h160l-21 -121h-400zM347 547h416l-107 571zM684 1635l-154 264h147l163 -162l221 162h147l-247 -264h-277z" />
<glyph unicode="&#x1ce;" horiz-adv-x="1194" d="M64 0zM757 876q-3 60 -54 60q-121 0 -239 -160q-54 -74 -98 -321q-32 -185 -9 -256.5t110 -71.5q83 0 135.5 83t84.5 269zM1063 1031l-158 -910l120 2l-21 -123h-400l23 135q-99 -164 -274 -164q-174 0 -251 127.5t-38 349.5q39 223 211 416q205 228 478 228 q270 0 310 -61zM506 1262l-164 376h148l151 -227l232 227h148l-297 -376h-218z" />
<glyph unicode="&#x1cf;" horiz-adv-x="862" d="M0 0zM-44 0l21 121h172l219 1251h-172l21 121h691l-21 -121h-173l-219 -1251h173l-21 -121h-691zM445 1635l-154 264h147l163 -162l221 162h147l-247 -264h-277z" />
<glyph unicode="&#x1d0;" horiz-adv-x="700" d="M106 0zM446 121h136l-21 -121h-455l165 942h-136l21 121h454zM317 1262l-164 376h148l151 -227l232 227h148l-297 -376h-218z" />
<glyph unicode="&#x1d1;" horiz-adv-x="1605" d="M77 0zM688 92q171 0 283 161t170 492q58 332 2.5 493t-227.5 161q-171 0 -283.5 -162.5t-169.5 -491.5q-58 -328 -2 -490.5t227 -162.5zM666 -29q-339 0 -495.5 206t-93 568t292.5 568.5t567 206.5q340 0 496.5 -206t92.5 -569q-63 -362 -292 -568t-568 -206zM842 1635 l-154 264h147l163 -162l221 162h147l-247 -264h-277z" />
<glyph unicode="&#x1d2;" horiz-adv-x="1229" d="M63 0zM537 84q101 0 159 96t102 352q30 167 30 266q0 52 -9 86q-23 95 -125 95t-160 -96.5t-103 -350.5q-28 -164 -28 -262q0 -55 8 -89q25 -97 126 -97zM517.5 -29q-252.5 0 -370.5 149q-84 108 -84 274q0 64 13 138q46 263 215.5 411.5t422.5 148.5t371 -148 q84 -107 84 -273q0 -65 -13 -139q-46 -262 -216 -411.5t-422.5 -149.5zM645 1262l-164 376h148l151 -227l232 227h148l-297 -376h-218z" />
<glyph unicode="&#x1d3;" horiz-adv-x="1607" d="M175 0zM346 1372h-171l21 121h691l-21 -121h-172l-130 -747q-49 -279 9.5 -390.5t248.5 -111.5q186 0 283.5 112.5t145.5 389.5l131 747h-171l21 121h468l-21 -121h-172l-134 -768q-60 -342 -219 -487.5t-473 -145.5q-312 0 -420.5 147t-48.5 488zM892 1635l-154 264h147 l163 -162l221 162h147l-247 -264h-277z" />
<glyph unicode="&#x1d4;" horiz-adv-x="1340" d="M117 0zM1237 1063l-165 -942h136l-21 -121h-456l26 150q-73 -95 -154 -137t-194 -42q-161 0 -225 105q-41 68 -41 176q0 61 13 135l97 555h-136l21 121h455l-108 -621q-22 -125 -22 -192q0 -40 7 -60q21 -53 100 -53q96 0 154.5 79t88.5 251l104 596h320zM619 1262 l-164 376h148l151 -227l232 227h148l-297 -376h-218z" />
<glyph unicode="&#x1d5;" horiz-adv-x="1607" d="M175 0zM1449 2057zM883 2245h566l-32 -188h-567zM175 0zM346 1372h-171l21 121h691l-21 -121h-172l-130 -747q-49 -279 9.5 -390.5t248.5 -111.5q186 0 283.5 112.5t145.5 389.5l131 747h-171l21 121h468l-21 -121h-172l-134 -768q-60 -342 -219 -487.5t-473 -145.5 q-312 0 -420.5 147t-48.5 488zM746 1776q11 60 58 103q46 44 100 44t85 -44q31 -43 20.5 -103t-56.5 -103q-45 -43 -99 -43t-86.5 43t-21.5 103zM1148.5 1776q10.5 60 57.5 103q46 44 100 44t86 -44q33 -43 22 -103t-58 -103t-101 -43t-86 43q-31 43 -20.5 103z" />
<glyph unicode="&#x1d6;" horiz-adv-x="1340" d="M117 0zM117 0zM1237 1063l-165 -942h136l-21 -121h-456l26 150q-73 -95 -154 -137t-194 -42q-161 0 -225 105q-41 68 -41 176q0 61 13 135l97 555h-136l21 121h455l-108 -621q-22 -125 -22 -192q0 -40 7 -60q21 -53 100 -53q96 0 154.5 79t88.5 251l104 596h320z M478 1468q10 60 57 103t101 43t85 -43t20 -103t-57 -104q-45 -43 -98 -43q-54 0 -87 44q-31 44 -21 103zM880 1468q11 60 57 103t100 43t86.5 -43t21.5 -103q-10 -59 -57 -103t-101 -44t-85.5 44t-21.5 103zM604 1872h566l-32 -188h-567z" />
<glyph unicode="&#x1d7;" horiz-adv-x="1607" d="M175 0zM1122 2212h251l-314 -264h-148zM175 0zM346 1372h-171l21 121h691l-21 -121h-172l-130 -747q-49 -279 9.5 -390.5t248.5 -111.5q186 0 283.5 112.5t145.5 389.5l131 747h-171l21 121h468l-21 -121h-172l-134 -768q-60 -342 -219 -487.5t-473 -145.5 q-312 0 -420.5 147t-48.5 488zM746 1776q11 60 58 103q46 44 100 44t85 -44q31 -43 20.5 -103t-56.5 -103q-45 -43 -99 -43t-86.5 43t-21.5 103zM1148.5 1776q10.5 60 57.5 103q46 44 100 44t86 -44q33 -43 22 -103t-58 -103t-101 -43t-86 43q-31 43 -20.5 103z" />
<glyph unicode="&#x1d8;" horiz-adv-x="1340" d="M117 0zM1236 1644zM985 2020h251l-402 -376h-148zM117 0zM1237 1063l-165 -942h136l-21 -121h-456l26 150q-73 -95 -154 -137t-194 -42q-161 0 -225 105q-41 68 -41 176q0 61 13 135l97 555h-136l21 121h455l-108 -621q-22 -125 -22 -192q0 -40 7 -60q21 -53 100 -53 q96 0 154.5 79t88.5 251l104 596h320zM478 1468q10 60 57 103t101 43t85 -43t20 -103t-57 -104q-45 -43 -98 -43q-54 0 -87 44q-31 44 -21 103zM880 1468q11 60 57 103t100 43t86.5 -43t21.5 -103q-10 -59 -57 -103t-101 -44t-85.5 44t-21.5 103z" />
<glyph unicode="&#x1d9;" horiz-adv-x="1607" d="M175 0zM927 1948l-154 264h147l163 -162l221 162h147l-247 -264h-277zM175 0zM346 1372h-171l21 121h691l-21 -121h-172l-130 -747q-49 -279 9.5 -390.5t248.5 -111.5q186 0 283.5 112.5t145.5 389.5l131 747h-171l21 121h468l-21 -121h-172l-134 -768 q-60 -342 -219 -487.5t-473 -145.5q-312 0 -420.5 147t-48.5 488zM746 1776q11 60 58 103q46 44 100 44t85 -44q31 -43 20.5 -103t-56.5 -103q-45 -43 -99 -43t-86.5 43t-21.5 103zM1148.5 1776q10.5 60 57.5 103q46 44 100 44t86 -44q33 -43 22 -103t-58 -103t-101 -43 t-86 43q-31 43 -20.5 103z" />
<glyph unicode="&#x1da;" horiz-adv-x="1340" d="M117 0zM1232 1652zM717 1652l-164 376h148l151 -227l232 227h148l-297 -376h-218zM117 0zM1237 1063l-165 -942h136l-21 -121h-456l26 150q-73 -95 -154 -137t-194 -42q-161 0 -225 105q-41 68 -41 176q0 61 13 135l97 555h-136l21 121h455l-108 -621q-22 -125 -22 -192 q0 -40 7 -60q21 -53 100 -53q96 0 154.5 79t88.5 251l104 596h320zM478 1468q10 60 57 103t101 43t85 -43t20 -103t-57 -104q-45 -43 -98 -43q-54 0 -87 44q-31 44 -21 103zM880 1468q11 60 57 103t100 43t86.5 -43t21.5 -103q-10 -59 -57 -103t-101 -44t-85.5 44t-21.5 103 z" />
<glyph unicode="&#x1db;" horiz-adv-x="1607" d="M175 0zM1098 2212l117 -264h-148l-220 264h251zM175 0zM346 1372h-171l21 121h691l-21 -121h-172l-130 -747q-49 -279 9.5 -390.5t248.5 -111.5q186 0 283.5 112.5t145.5 389.5l131 747h-171l21 121h468l-21 -121h-172l-134 -768q-60 -342 -219 -487.5t-473 -145.5 q-312 0 -420.5 147t-48.5 488zM746 1776q11 60 58 103q46 44 100 44t85 -44q31 -43 20.5 -103t-56.5 -103q-45 -43 -99 -43t-86.5 43t-21.5 103zM1148.5 1776q10.5 60 57.5 103q46 44 100 44t86 -44q33 -43 22 -103t-58 -103t-101 -43t-86 43q-31 43 -20.5 103z" />
<glyph unicode="&#x1dc;" horiz-adv-x="1340" d="M117 0zM985 1644zM820 2020l165 -376h-147l-269 376h251zM117 0zM1237 1063l-165 -942h136l-21 -121h-456l26 150q-73 -95 -154 -137t-194 -42q-161 0 -225 105q-41 68 -41 176q0 61 13 135l97 555h-136l21 121h455l-108 -621q-22 -125 -22 -192q0 -40 7 -60 q21 -53 100 -53q96 0 154.5 79t88.5 251l104 596h320zM478 1468q10 60 57 103t101 43t85 -43t20 -103t-57 -104q-45 -43 -98 -43q-54 0 -87 44q-31 44 -21 103zM880 1468q11 60 57 103t100 43t86.5 -43t21.5 -103q-10 -59 -57 -103t-101 -44t-85.5 44t-21.5 103z" />
<glyph unicode="&#x1dd;" horiz-adv-x="1172" d="M84 0zM414 463q-37 -210 -16.5 -294.5t104.5 -84.5q82 0 132 83t84 278l4 18h-308zM84 582h658l2 8q36 206 -4 297.5t-164 91.5q-104 0 -178.5 -61t-112.5 -177h-149q70 181 200 266t337 85q249 0 356 -145.5t60 -415.5q-46 -264 -208 -412t-404 -148 q-238 0 -337.5 155.5t-55.5 455.5z" />
<glyph unicode="&#x1de;" horiz-adv-x="1430" d="M0 0zM1248 2057zM682 2245h566l-32 -188h-567zM0 0zM-145 0l21 121h110l746 1372h215l267 -1372h127l-21 -121h-629l21 121h132l-58 305h-505l-165 -305h160l-21 -121h-400zM347 547h416l-107 571zM553 1776q11 60 58 103q46 44 100 44t85 -44q31 -43 20.5 -103 t-56.5 -103q-45 -43 -99 -43t-86.5 43t-21.5 103zM955.5 1776q10.5 60 57.5 103q46 44 100 44t86 -44q33 -43 22 -103t-58 -103t-101 -43t-86 43q-31 43 -20.5 103z" />
<glyph unicode="&#x1df;" horiz-adv-x="1194" d="M64 0zM64 0zM757 876q-3 60 -54 60q-121 0 -239 -160q-54 -74 -98 -321q-32 -185 -9 -256.5t110 -71.5q83 0 135.5 83t84.5 269zM1063 1031l-158 -910l120 2l-21 -123h-400l23 135q-99 -164 -274 -164q-174 0 -251 127.5t-38 349.5q39 223 211 416q205 228 478 228 q270 0 310 -61zM381 1468q10 60 57 103t101 43t85 -43t20 -103t-57 -104q-45 -43 -98 -43q-54 0 -87 44q-31 44 -21 103zM783 1468q11 60 57 103t100 43t86.5 -43t21.5 -103q-10 -59 -57 -103t-101 -44t-85.5 44t-21.5 103zM507 1872h566l-32 -188h-567z" />
<glyph unicode="&#x1e0;" horiz-adv-x="1430" d="M0 0zM1225 2057zM659 2245h566l-32 -188h-567zM1014 1694zM749 1841q11 60 57 103t100 43t87 -43q31 -43 21 -103q-10 -59 -57 -103t-101 -44t-85.5 44t-21.5 103zM-145 0l21 121h110l746 1372h215l267 -1372h127l-21 -121h-629l21 121h132l-58 305h-505l-165 -305h160 l-21 -121h-400zM347 547h416l-107 571z" />
<glyph unicode="&#x1e1;" horiz-adv-x="1194" d="M63 0zM1024 1684zM458 1872h566l-32 -188h-567zM813 1321zM548 1468q11 60 57 103t100 43t87 -43q31 -43 21 -103q-10 -59 -57 -103t-101 -44t-85.5 44t-21.5 103zM756 876q-3 60 -54 60q-121 0 -239 -160q-54 -74 -98 -321q-32 -185 -9 -256.5t110 -71.5q83 0 135.5 83 t84.5 269zM1062 1031l-158 -910l120 2l-21 -123h-400l23 135q-99 -164 -274 -164q-174 0 -251 127.5t-38 349.5q39 223 211 416q205 228 478 228q270 0 310 -61z" />
<glyph unicode="&#x1e2;" horiz-adv-x="1906" d="M0 0zM1012 1872h566l-32 -188h-567zM326 545h418l145 827h-68zM478 0l21 121h171l53 303h-470l-182 -303h148l-21 -121h-385l21 121h102l752 1251h-181l21 121h1396l-61 -352h-124l37 215h-542l-83 -479h330l33 190h122l-91 -516h-121l33 190h-330l-106 -604h561l37 215 h122l-62 -352h-1201z" />
<glyph unicode="&#x1e3;" horiz-adv-x="1797" d="M50 0zM728 1562h566l-32 -188h-567zM1318 831q0 148 -111 148q-86 0 -133 -84.5t-89 -313.5l-10 -62q299 0 337 243q6 37 6 69zM757 876q-3 60 -54 60q-121 0 -239 -160q-54 -74 -85 -249t-31 -238.5t9 -90.5q24 -71 108.5 -71t137 83t85.5 269zM1023 1060q94 32 205 32 q172 0 291 -74.5t119 -209.5q0 -27 -5 -56q-57 -324 -679 -352q-6 -34 -6 -66q0 -250 185 -250q104 0 178.5 61t112.5 177h149q-70 -181 -200 -266t-342 -85t-322 111q-132 -111 -356 -111q-174 0 -251 127q-52 85 -52 212q0 303 215 542.5t488 239.5q196 0 270 -32z" />
<glyph unicode="&#x1e4;" horiz-adv-x="1650" d="M1317 1024q-6 198 -85 286.5t-251 88.5q-209 0 -334 -157.5t-184 -496.5q-59 -336 6.5 -494.5t263.5 -158.5q76 0 144 19t128 57l25 143h-332l21 120h332l26 147h-162l21 120h484l-47 -267h179l-21 -120h-179l-32 -186q-165 -78 -322.5 -116t-314.5 -38 q-346 0 -507.5 207t-98.5 567q63 361 297 568t580 207q144 0 277.5 -32t263.5 -97l-64 -367h-114z" />
<glyph unicode="&#x1e5;" horiz-adv-x="1288" d="M888 876q-4 60 -62 60q-164 0 -266 -160q-64 -101 -103 -321q-32 -185 -4.5 -256.5t125.5 -71.5q93 0 151 83q57 82 89 265h-186l21 121h186zM1137 475l-80 -461q-44 -245 -205 -346q-197 -123 -426 -123q-96 0 -191 16.5t-194 49.5l45 254h102q-1 -9 -1 -17 q0 -92 50 -139q54 -51 170 -51q147 0 221.5 78.5t109.5 277.5l21 121q-110 -164 -313 -164q-200 0 -293 127.5t-54 349.5q48 272 275 468q205 176 504 176q242 0 350 -96l-70 -400h136l-21 -121h-136z" />
<glyph unicode="&#x1e6;" horiz-adv-x="1574" d="M38 0zM806 1635l-154 264h147l163 -162l221 162h147l-247 -264h-277zM1278 1019q-6 198 -85 286.5t-251 88.5q-209 0 -334 -157.5t-184 -496.5q-59 -336 6.5 -494.5t263.5 -158.5q76 0 144 19t128 57l72 410h-162l21 120h484l-100 -573q-165 -78 -322.5 -116t-314.5 -38 q-346 0 -507.5 207t-98.5 567q63 361 297 568t580 207q144 0 277.5 -32t263.5 -97l-64 -367h-114z" />
<glyph unicode="&#x1e7;" horiz-adv-x="1288" d="M0 0zM619 1262l-164 376h148l151 -227l232 227h148l-297 -376h-218zM840 876q-5 60 -63 60q-164 0 -266 -160q-65 -101 -103 -321q-32 -185 -4.5 -256.5t125.5 -71.5q94 0 151.5 83t89.5 269zM1179 996l-172 -982q-43 -246 -204 -346q-196 -123 -427 -123 q-95 0 -190 16.5t-193 49.5l44 254h102v-17q0 -92 49 -139q53 -51 169 -51q148 0 222.5 78.5t109.5 277.5l21 121q-110 -164 -312 -164q-201 0 -293.5 127.5t-54.5 349.5q48 272 276 468q203 176 504 176q241 0 349 -96z" />
<glyph unicode="&#x1e8;" horiz-adv-x="1602" d="M0 0zM-76 0l21 121h172l219 1251h-172l21 121h691l-21 -121h-173l-95 -545l665 545h-144l21 121h501l-21 -121h-179l-563 -461l518 -790h132l-21 -121h-455l-472 725l-106 -604h173l-21 -121h-691zM916 1635l-154 264h147l163 -162l221 162h147l-247 -264h-277z" />
<glyph unicode="&#x1e9;" horiz-adv-x="1277" d="M32 0zM350 0h-318l251 1436h-136l21 120h455l-175 -999l453 385h-114l21 121h259l-21 -121l-289 -246l302 -575h104l-22 -121h-351l-263 500l-105 -88zM280 1635l-154 264h147l163 -162l221 162h147l-247 -264h-277z" />
<glyph unicode="&#x1ea;" horiz-adv-x="1605" d="M77 0zM688 92q171 0 283 161t170 492q58 332 2.5 493t-227.5 161q-171 0 -283.5 -162.5t-169.5 -491.5q-58 -328 -2 -490.5t227 -162.5zM666 -29q-339 0 -495.5 206t-93 568t292.5 568.5t567 206.5q340 0 496.5 -206t92.5 -569q-63 -362 -292 -568t-568 -206zM624 -16 h112q-55 -65 -79 -102t-29 -66q-8 -41 14 -63.5t69 -22.5q35 0 72.5 8t74.5 23l-28 -156q-50 -11 -94.5 -16.5t-82.5 -5.5q-101 0 -149.5 46t-33.5 130q9 52 46.5 106.5t107.5 118.5z" />
<glyph unicode="&#x1eb;" horiz-adv-x="1229" d="M63 0zM537 84q101 0 159 96t102 352q30 167 30 266q0 52 -9 86q-23 95 -125 95t-160 -96.5t-103 -350.5q-28 -164 -28 -262q0 -55 8 -89q25 -97 126 -97zM517.5 -29q-252.5 0 -370.5 149q-84 108 -84 274q0 64 13 138q46 263 215.5 411.5t422.5 148.5t371 -148 q84 -107 84 -273q0 -65 -13 -139q-46 -262 -216 -411.5t-422.5 -149.5zM469 -16h112q-55 -65 -79 -102t-29 -66q-8 -41 14 -63.5t69 -22.5q35 0 72.5 8t74.5 23l-28 -156q-50 -11 -94.5 -16.5t-82.5 -5.5q-101 0 -149.5 46t-33.5 130q9 52 46.5 106.5t107.5 118.5z" />
<glyph unicode="&#x1ec;" horiz-adv-x="1605" d="M77 0zM77 0zM688 92q171 0 283 161t170 492q58 332 2.5 493t-227.5 161q-171 0 -283.5 -162.5t-169.5 -491.5q-58 -328 -2 -490.5t227 -162.5zM666 -29q-339 0 -495.5 206t-93 568t292.5 568.5t567 206.5q340 0 496.5 -206t92.5 -569q-63 -362 -292 -568t-568 -206z M624 -16h112q-55 -65 -79 -102t-29 -66q-8 -41 14 -63.5t69 -22.5q35 0 72.5 8t74.5 23l-28 -156q-50 -11 -94.5 -16.5t-82.5 -5.5q-101 0 -149.5 46t-33.5 130q9 52 46.5 106.5t107.5 118.5zM661 1872h566l-32 -188h-567z" />
<glyph unicode="&#x1ed;" horiz-adv-x="1229" d="M63 0zM63 0zM537 84q101 0 159 96t102 352q30 167 30 266q0 52 -9 86q-23 95 -125 95t-160 -96.5t-103 -350.5q-28 -164 -28 -262q0 -55 8 -89q25 -97 126 -97zM517.5 -29q-252.5 0 -370.5 149q-84 108 -84 274q0 64 13 138q46 263 215.5 411.5t422.5 148.5t371 -148 q84 -107 84 -273q0 -65 -13 -139q-46 -262 -216 -411.5t-422.5 -149.5zM469 -16h112q-55 -65 -79 -102t-29 -66q-8 -41 14 -63.5t69 -22.5q35 0 72.5 8t74.5 23l-28 -156q-50 -11 -94.5 -16.5t-82.5 -5.5q-101 0 -149.5 46t-33.5 130q9 52 46.5 106.5t107.5 118.5zM475 1562 h566l-32 -188h-567z" />
<glyph unicode="&#x1ee;" horiz-adv-x="1210" d="M0 0zM545 1635l-154 264h147l163 -162l221 162h147l-247 -264h-277zM676 839q195 -21 280 -105q123 -121 86 -331q-36 -209 -204.5 -320.5t-451.5 -111.5q-106 0 -215.5 20t-225.5 60l57 328h109q-15 -142 42 -216.5t182 -74.5q136 0 225.5 84.5t117.5 239.5 q28 162 -34.5 250t-205.5 88h-60l40 224l305 382h-387l-39 -223h-123l63 360h881l-24 -137z" />
<glyph unicode="&#x1ef;" horiz-adv-x="1046" d="M0 0zM1058 1262zM543 1262l-164 376h148l151 -227l232 227h148l-297 -376h-218zM680 452q194 -21 280 -105q123 -121 86 -331q-37 -209 -205 -320.5t-451 -111.5q-106 0 -215.5 20t-225.5 60l57 328h109q-15 -142 42 -216.5t181 -74.5q137 0 226.5 84.5t116.5 239.5 q29 162 -33.5 250t-205.5 88h-60l39 225l302 358h-413l-32 -182h-107l52 299h891l-21 -119z" />
<glyph unicode="&#x1f0;" horiz-adv-x="666" d="M0 0zM355 1262l-164 376h148l151 -227l232 227h148l-297 -376h-218zM309 942h-136l21 121h454l-207 -1188q-29 -163 -147.5 -246.5t-320.5 -83.5q-54 0 -113.5 10t-122.5 29l40 226l101 -1q-12 -80 8.5 -115.5t79.5 -35.5q66 0 100.5 47t55.5 170z" />
<glyph unicode="&#x1f1;" horiz-adv-x="2943" d="M0 0zM1536 0l24 141l1015 1215h-644l-39 -223h-123l63 360h1166l-24 -141l-1006 -1215h679l37 209h123l-61 -346h-1210zM495 121h125q211 0 335 150t181 477q57 325 -14 474.5t-283 149.5h-125zM-44 0l21 121h172l219 1251h-172l21 121h689q362 0 520 -192t95 -553 q-63 -363 -289 -555.5t-587 -192.5h-689z" />
<glyph unicode="&#x1f2;" horiz-adv-x="2645" d="M0 0zM2655 944l-631 -749q31 -12 56 -29q114 -68 186 -68q108 0 270 145l-28 -158q-160 -168 -304 -168q-74 4 -189 68q-129 73 -179.5 73t-102.5 -23t-74 -37l-89 2l21 121l628 748q-29 11 -54 28q-114 68 -185 68q-108 0 -270 -145l27 158q160 168 304 168 q75 -4 189 -68q129 -73 179.5 -73t103 23t73.5 37l90 -2zM495 121h125q211 0 335 150t181 477q57 325 -14 474.5t-283 149.5h-125zM-44 0l21 121h172l219 1251h-172l21 121h689q362 0 520 -192t95 -553q-63 -363 -289 -555.5t-587 -192.5h-689z" />
<glyph unicode="&#x1f3;" horiz-adv-x="2335" d="M19 0zM2346 944l-631 -749q31 -12 56 -29q114 -68 186 -68q108 0 270 145l-28 -158q-160 -168 -304 -168q-74 4 -189 68q-129 73 -179.5 73t-102.5 -23t-74 -37l-89 2l21 121l628 748q-29 11 -54 28q-114 68 -185 68q-108 0 -270 -145l27 158q160 168 304 168 q75 -4 189 -68q129 -73 179.5 -73t103 23t73.5 37l90 -2zM740 479l19 105q17 99 17 169q0 61 -13 100q-29 83 -124 83q-99 0 -154 -87.5t-95 -316.5q-25 -141 -25 -228q0 -55 10 -89q25 -88 123 -88q94 0 152 83t90 269zM1247 1556l-272 -1556h-318l23 135 q-55 -83 -131 -123.5t-177 -40.5q-203 0 -293 150q-60 100 -60 248q0 75 15 163q46 262 188.5 411t346.5 149q100 0 162 -40.5t88 -123.5l89 508h-137l21 120h455z" />
<glyph unicode="&#x1f4;" horiz-adv-x="1574" d="M43 0zM1004 1900h251l-314 -264h-148zM1283 1026q-6 198 -85 286.5t-251 88.5q-209 0 -334 -157.5t-184 -496.5q-59 -336 6.5 -494.5t263.5 -158.5q76 0 144 19t128 57l72 410h-162l21 120h484l-100 -573q-165 -78 -322.5 -116t-314.5 -38q-346 0 -507.5 207t-98.5 567 q63 361 297 568t580 207q144 0 277.5 -32t263.5 -97l-64 -367h-114z" />
<glyph unicode="&#x1f5;" horiz-adv-x="1288" d="M0 0zM883 1590h251l-402 -376h-148zM840 876q-5 60 -63 60q-164 0 -266 -160q-65 -101 -103 -321q-32 -185 -4.5 -256.5t125.5 -71.5q94 0 151.5 83t89.5 269zM1179 996l-172 -982q-43 -246 -204 -346q-196 -123 -427 -123q-95 0 -190 16.5t-193 49.5l44 254h102v-17 q0 -92 49 -139q53 -51 169 -51q148 0 222.5 78.5t109.5 277.5l21 121q-110 -164 -312 -164q-201 0 -293.5 127.5t-54.5 349.5q48 272 276 468q203 176 504 176q241 0 349 -96z" />
<glyph unicode="&#x1f6;" horiz-adv-x="2250" d="M1467 625q-57 -329 -23 -391q62 -111 198 -111q159 0 256.5 112.5t145.5 389.5l56 318h-171l21 120h296l-80 -459q-61 -345 -219 -488q-162 -145 -446 -145q-278 0 -370 147q-77 123 -14 486l23 129h-535l-107 -612h173l-21 -121h-692l22 121h171l219 1251h-172l22 121 h691l-21 -121h-173l-88 -502h535l87 502h-172l22 121h691l-21 -121h-173z" />
<glyph unicode="&#x1f8;" horiz-adv-x="1684" d="M0 0zM-82 0l22 121h171l219 1251h-172l22 121h420l626 -1057l164 936h-171l21 121h470l-22 -121h-171l-240 -1372h-236l-635 1079l-168 -958h171l-21 -121h-470zM987 1899l117 -264h-148l-220 264h251z" />
<glyph unicode="&#x1f9;" horiz-adv-x="1340" d="M-80 0l21 121h136l143 821h-135l21 121h454l-26 -150q74 95 155 137t194 42q161 0 225 -105.5t28 -310.5l-97 -555h137l-21 -121h-572l21 121h116l99 565q24 135 2 187.5t-98 52.5q-97 0 -155.5 -78.5t-88.5 -249.5l-84 -477h117l-21 -121h-571zM658 1638l166 -376h-147 l-270 376h251z" />
<glyph unicode="&#x1fa;" horiz-adv-x="1430" d="M311 547h417l-106 571zM675.5 1430q-9.5 -54 19 -92.5t75.5 -38.5q50 0 91.5 38.5t50.5 92.5t-19 92.5t-77 38.5q-48 0 -89.5 -38.5t-51 -92.5zM953 1900h251l-253 -213q33 -21 59 -56q60 -84 40 -201q-13 -74 -51 -133q-17 -27 -40 -50l219 -1126h128l-21 -121h-629 l21 121h131l-57 305h-505l-166 -305h160l-21 -121h-400l22 121h109l614 1126q-14 22 -22 49q-17 60 -4 134q20 117 110 201q72 68 155 81z" />
<glyph unicode="&#x1fb;" horiz-adv-x="1194" d="M757 876q-3 60 -54 60q-121 0 -239 -160q-54 -74 -98 -321q-32 -185 -9 -256.5t110 -71.5q83 0 135.5 83t84.5 269zM1063 1031l-158 -910l120 2l-21 -123h-400l23 135q-99 -164 -274 -164q-174 0 -251 127.5t-38 349.5q39 223 211 416q205 228 478 228q270 0 310 -61z M848 1900h251l-253 -213q34 -20 59 -55q61 -84 40 -202t-110.5 -201.5t-196 -83.5t-167 83.5t-39.5 201.5t110 202q73 67 157 80zM571 1430q-10 -55 18 -93t77 -38t90 38.5t50.5 92.5t-18.5 92.5t-77 38.5t-90 -38.5t-50 -92.5z" />
<glyph unicode="&#x1fc;" horiz-adv-x="1906" d="M0 0zM1281 1900h251l-314 -264h-148zM326 545h418l145 827h-68zM478 0l21 121h171l53 303h-470l-182 -303h148l-21 -121h-385l21 121h102l752 1251h-181l21 121h1396l-61 -352h-124l37 215h-542l-83 -479h330l33 190h122l-91 -516h-121l33 190h-330l-106 -604h561l37 215 h122l-62 -352h-1201z" />
<glyph unicode="&#x1fd;" horiz-adv-x="1717" d="M50 0zM1384 1262zM1133 1638h251l-402 -376h-148zM1318 831q0 148 -111 148q-86 0 -133 -84.5t-89 -313.5l-10 -62q299 0 337 243q6 37 6 69zM757 876q-3 60 -54 60q-121 0 -239 -160q-54 -74 -85 -249t-31 -238.5t9 -90.5q24 -71 108.5 -71t137 83t85.5 269zM1023 1060 q94 32 205 32q172 0 291 -74.5t119 -209.5q0 -27 -5 -56q-57 -324 -679 -352q-6 -34 -6 -66q0 -250 185 -250q104 0 178.5 61t112.5 177h149q-70 -181 -200 -266t-342 -85t-322 111q-132 -111 -356 -111q-174 0 -251 127q-52 85 -52 212q0 303 215 542.5t488 239.5 q196 0 270 -32z" />
<glyph unicode="&#x1fe;" horiz-adv-x="1605" d="M0 0zM1004 1900h251l-314 -264h-148zM436 479l728 678q-17 119 -79.5 180.5t-167.5 61.5q-171 0 -283.5 -162.5t-169.5 -491.5q-14 -76 -21 -142t-7 -124zM443 334q19 -122 80 -182t166 -60q175 0 287 167t175 525q11 65 14.5 115.5t-0.5 93.5zM1459 1280 q63 -104 80 -237.5t-12 -297.5q-63 -362 -292 -568t-568 -206q-142 0 -254.5 39t-193.5 117l-220 -205l-65 90l215 201q-64 102 -81.5 235.5t10.5 296.5q64 362 293 568.5t567 206.5q144 0 257 -38.5t193 -115.5l219 203l65 -90z" />
<glyph unicode="&#x1ff;" horiz-adv-x="1229" d="M0 0zM1123 1262zM872 1638h251l-402 -376h-148zM413 416l416 385q0 90 -32.5 134t-102.5 44q-99 0 -157.5 -95.5t-99.5 -330.5zM403 262q-2 -89 31.5 -133.5t103.5 -44.5q98 0 155.5 94t99.5 330l24 141zM1103 913q47 -72 60.5 -167.5t-7.5 -213.5 q-46 -262 -215.5 -411.5t-422.5 -149.5q-100 0 -179.5 24.5t-142.5 74.5l-185 -172l-61 86l177 163q-46 75 -58.5 171.5t7.5 213.5q46 263 215.5 411.5t422.5 148.5q104 0 185 -25t137 -74l181 168l62 -86z" />
<glyph unicode="&#x200;" horiz-adv-x="1430" d="M0 0zM722 1900l118 -264h-148l-221 264h251zM1021 1900l117 -264h-147l-221 264h251zM-145 0l21 121h110l746 1372h215l267 -1372h127l-21 -121h-629l21 121h132l-58 305h-505l-165 -305h160l-21 -121h-400zM347 547h416l-107 571z" />
<glyph unicode="&#x201;" horiz-adv-x="1194" d="M63 0zM501 1638l136 -376h-147l-202 376h213zM830 1638l104 -376h-145l-154 376h195zM756 876q-3 60 -54 60q-121 0 -239 -160q-54 -74 -98 -321q-32 -185 -9 -256.5t110 -71.5q83 0 135.5 83t84.5 269zM1062 1031l-158 -910l120 2l-21 -123h-400l23 135 q-99 -164 -274 -164q-174 0 -251 127.5t-38 349.5q39 223 211 416q205 228 478 228q270 0 310 -61z" />
<glyph unicode="&#x202;" horiz-adv-x="1430" d="M0 0zM1188 1651h-113q7 73 -36 112q-44 39 -133 39t-146 -39q-58 -39 -76 -112h-112q25 146 121 229q96 82 241 82q146 0 212 -81t42 -230zM-145 0l21 121h110l746 1372h215l267 -1372h127l-21 -121h-629l21 121h132l-58 305h-505l-165 -305h160l-21 -121h-400zM347 547 h416l-107 571z" />
<glyph unicode="&#x203;" horiz-adv-x="1194" d="M63 0zM987 1278h-113q7 73 -36 112q-44 39 -133 39t-146 -39q-58 -39 -76 -112h-112q25 146 121 229q96 82 241 82q146 0 212 -81t42 -230zM756 876q-3 60 -54 60q-121 0 -239 -160q-54 -74 -98 -321q-32 -185 -9 -256.5t110 -71.5q83 0 135.5 83t84.5 269zM1062 1031 l-158 -910l120 2l-21 -123h-400l23 135q-99 -164 -274 -164q-174 0 -251 127.5t-38 349.5q39 223 211 416q205 228 478 228q270 0 310 -61z" />
<glyph unicode="&#x204;" horiz-adv-x="1404" d="M0 0zM759 1900l118 -264h-148l-221 264h251zM1058 1900l117 -264h-147l-221 264h251zM-44 0l21 121h172l219 1251h-172l21 121h1208l-62 -352h-124l38 215h-566l-83 -479h352l33 190h123l-90 -516h-124l34 190h-352l-106 -604h582l38 215h123l-61 -352h-1224z" />
<glyph unicode="&#x205;" horiz-adv-x="1172" d="M61 0zM547 1638l136 -376h-147l-202 376h213zM876 1638l104 -376h-145l-154 376h195zM774 832q0 147 -112 147q-85 0 -135.5 -89.5t-96.5 -370.5h20q275 0 318 243q6 38 6 70zM409 400q-6 -34 -6 -105q1 -211 186 -211q103 0 178 61t112 177h150q-71 -181 -201 -266 t-337 -85q-248 0 -355 145q-75 102 -75 263q0 69 15 150q46 267 208 415t399 148q172 0 291.5 -74.5t119.5 -209.5q0 -27 -6 -56q-57 -324 -679 -352z" />
<glyph unicode="&#x206;" horiz-adv-x="1404" d="M0 0zM1226 1651h-113q7 73 -36 112q-44 39 -133 39t-146 -39q-58 -39 -76 -112h-112q25 146 121 229q96 82 241 82q146 0 212 -81t42 -230zM-44 0l21 121h172l219 1251h-172l21 121h1208l-62 -352h-124l38 215h-566l-83 -479h352l33 190h123l-90 -516h-124l34 190h-352 l-106 -604h582l38 215h123l-61 -352h-1224z" />
<glyph unicode="&#x207;" horiz-adv-x="1172" d="M61 0zM1033 1278h-113q7 73 -36 112q-44 39 -133 39t-146 -39q-58 -39 -76 -112h-112q25 146 121 229q96 82 241 82q146 0 212 -81t42 -230zM774 832q0 147 -112 147q-85 0 -135.5 -89.5t-96.5 -370.5h20q275 0 318 243q6 38 6 70zM409 400q-6 -34 -6 -105 q1 -211 186 -211q103 0 178 61t112 177h150q-71 -181 -201 -266t-337 -85q-248 0 -355 145q-75 102 -75 263q0 69 15 150q46 267 208 415t399 148q172 0 291.5 -74.5t119.5 -209.5q0 -27 -6 -56q-57 -324 -679 -352z" />
<glyph unicode="&#x208;" horiz-adv-x="862" d="M0 0zM452 1900l118 -264h-148l-221 264h251zM751 1900l117 -264h-147l-221 264h251zM-44 0l21 121h172l219 1251h-172l21 121h691l-21 -121h-173l-219 -1251h173l-21 -121h-691z" />
<glyph unicode="&#x209;" horiz-adv-x="700" d="M29 0zM242 1641l136 -376h-147l-202 376h213zM571 1641l104 -376h-145l-154 376h195zM402 121h136l-21 -121h-455l165 942h-136l21 121h454z" />
<glyph unicode="&#x20a;" horiz-adv-x="862" d="M0 0zM924 1651h-113q7 73 -36 112q-44 39 -133 39t-146 -39q-58 -39 -76 -112h-112q25 146 121 229q96 82 241 82q146 0 212 -81t42 -230zM-44 0l21 121h172l219 1251h-172l21 121h691l-21 -121h-173l-219 -1251h173l-21 -121h-691z" />
<glyph unicode="&#x20b;" horiz-adv-x="700" d="M62 0zM402 121h136l-21 -121h-455l165 942h-136l21 121h454zM718 1259h-113q7 73 -36 112q-44 39 -133 39t-146 -39q-58 -39 -76 -112h-112q25 146 121 229q96 82 241 82q146 0 212 -81t42 -230z" />
<glyph unicode="&#x20c;" horiz-adv-x="1605" d="M77 0zM824 1900l118 -264h-148l-221 264h251zM1123 1900l117 -264h-147l-221 264h251zM688 92q171 0 283 161t170 492q58 332 2.5 493t-227.5 161q-171 0 -283.5 -162.5t-169.5 -491.5q-58 -328 -2 -490.5t227 -162.5zM666 -29q-339 0 -495.5 206t-93 568t292.5 568.5 t567 206.5q340 0 496.5 -206t92.5 -569q-63 -362 -292 -568t-568 -206z" />
<glyph unicode="&#x20d;" horiz-adv-x="1229" d="M62 0zM576 1638l136 -376h-147l-202 376h213zM905 1638l104 -376h-145l-154 376h195zM536 84q101 0 159 96t102 352q30 167 30 266q0 52 -9 86q-23 95 -125 95t-160 -96.5t-103 -350.5q-28 -164 -28 -262q0 -55 8 -89q25 -97 126 -97zM516.5 -29q-252.5 0 -370.5 149 q-84 108 -84 274q0 64 13 138q46 263 215.5 411.5t422.5 148.5t371 -148q84 -107 84 -273q0 -65 -13 -139q-46 -262 -216 -411.5t-422.5 -149.5z" />
<glyph unicode="&#x20e;" horiz-adv-x="1605" d="M77 0zM1296 1651h-113q7 73 -36 112q-44 39 -133 39t-146 -39q-58 -39 -76 -112h-112q25 146 121 229q96 82 241 82q146 0 212 -81t42 -230zM688 92q171 0 283 161t170 492q58 332 2.5 493t-227.5 161q-171 0 -283.5 -162.5t-169.5 -491.5q-58 -328 -2 -490.5t227 -162.5 zM666 -29q-339 0 -495.5 206t-93 568t292.5 568.5t567 206.5q340 0 496.5 -206t92.5 -569q-63 -362 -292 -568t-568 -206z" />
<glyph unicode="&#x20f;" horiz-adv-x="1229" d="M62 0zM1062 1278h-113q7 73 -36 112q-44 39 -133 39t-146 -39q-58 -39 -76 -112h-112q25 146 121 229q96 82 241 82q146 0 212 -81t42 -230zM536 84q101 0 159 96t102 352q30 167 30 266q0 52 -9 86q-23 95 -125 95t-160 -96.5t-103 -350.5q-28 -164 -28 -262 q0 -55 8 -89q25 -97 126 -97zM516.5 -29q-252.5 0 -370.5 149q-84 108 -84 274q0 64 13 138q46 263 215.5 411.5t422.5 148.5t371 -148q84 -107 84 -273q0 -65 -13 -139q-46 -262 -216 -411.5t-422.5 -149.5z" />
<glyph unicode="&#x210;" horiz-adv-x="1531" d="M0 0zM803 1900l118 -264h-148l-221 264h251zM1102 1900l117 -264h-147l-221 264h251zM975 729q78 -13 125 -59t72 -133l123 -416h138l-21 -121h-442l-135 451q-38 140 -75 178.5t-114 38.5h-55l-96 -547h173l-21 -121h-691l21 121h172l219 1251h-172l21 121h767 q234 0 343 -104.5t75 -296.5q-27 -156 -133.5 -246.5t-293.5 -116.5zM612 788h118q126 0 207 76t106 217t-30 216t-181 75h-118z" />
<glyph unicode="&#x211;" horiz-adv-x="971" d="M102 0zM558 1638l136 -376h-147l-202 376h213zM887 1638l104 -376h-145l-154 376h195zM1082 1075l-56 -317h-102q3 21 3 39q0 56 -22 87q-29 42 -97 42q-104 0 -182.5 -102t-109.5 -283l-95 -541h-319l165 942h-146l22 121h464l-33 -189q66 111 152.5 164.5t197.5 53.5 q28 0 67.5 -4.5t90.5 -12.5z" />
<glyph unicode="&#x212;" horiz-adv-x="1531" d="M0 0zM1271 1651h-113q7 73 -36 112q-44 39 -133 39t-146 -39q-58 -39 -76 -112h-112q25 146 121 229q96 82 241 82q146 0 212 -81t42 -230zM975 729q78 -13 125 -59t72 -133l123 -416h138l-21 -121h-442l-135 451q-38 140 -75 178.5t-114 38.5h-55l-96 -547h173l-21 -121 h-691l21 121h172l219 1251h-172l21 121h767q234 0 343 -104.5t75 -296.5q-27 -156 -133.5 -246.5t-293.5 -116.5zM612 788h118q126 0 207 76t106 217t-30 216t-181 75h-118z" />
<glyph unicode="&#x213;" horiz-adv-x="971" d="M102 0zM1044 1278h-113q7 73 -36 112q-44 39 -133 39t-146 -39q-58 -39 -76 -112h-112q25 146 121 229q96 82 241 82q146 0 212 -81t42 -230zM1082 1075l-56 -317h-102q3 21 3 39q0 56 -22 87q-29 42 -97 42q-104 0 -182.5 -102t-109.5 -283l-95 -541h-319l165 942h-146 l22 121h464l-33 -189q66 111 152.5 164.5t197.5 53.5q28 0 67.5 -4.5t90.5 -12.5z" />
<glyph unicode="&#x214;" horiz-adv-x="1607" d="M175 0zM873 1900l118 -264h-148l-221 264h251zM1172 1900l117 -264h-147l-221 264h251zM346 1372h-171l21 121h691l-21 -121h-172l-130 -747q-49 -279 9.5 -390.5t248.5 -111.5q186 0 283.5 112.5t145.5 389.5l131 747h-171l21 121h468l-21 -121h-172l-134 -768 q-60 -342 -219 -487.5t-473 -145.5q-312 0 -420.5 147t-48.5 488z" />
<glyph unicode="&#x215;" horiz-adv-x="1340" d="M116 0zM597 1638l136 -376h-147l-202 376h213zM926 1638l104 -376h-145l-154 376h195zM1236 1063l-165 -942h136l-21 -121h-456l26 150q-73 -95 -154 -137t-194 -42q-161 0 -225 105q-41 68 -41 176q0 61 13 135l97 555h-136l21 121h455l-108 -621q-22 -125 -22 -192 q0 -40 7 -60q21 -53 100 -53q96 0 154.5 79t88.5 251l104 596h320z" />
<glyph unicode="&#x216;" horiz-adv-x="1607" d="M175 0zM1342 1651h-113q7 73 -36 112q-44 39 -133 39t-146 -39q-58 -39 -76 -112h-112q25 146 121 229q96 82 241 82q146 0 212 -81t42 -230zM346 1372h-171l21 121h691l-21 -121h-172l-130 -747q-49 -279 9.5 -390.5t248.5 -111.5q186 0 283.5 112.5t145.5 389.5 l131 747h-171l21 121h468l-21 -121h-172l-134 -768q-60 -342 -219 -487.5t-473 -145.5q-312 0 -420.5 147t-48.5 488z" />
<glyph unicode="&#x217;" horiz-adv-x="1340" d="M116 0zM1083 1278h-113q7 73 -36 112q-44 39 -133 39t-146 -39q-58 -39 -76 -112h-112q25 146 121 229q96 82 241 82q146 0 212 -81t42 -230zM1236 1063l-165 -942h136l-21 -121h-456l26 150q-73 -95 -154 -137t-194 -42q-161 0 -225 105q-41 68 -41 176q0 61 13 135 l97 555h-136l21 121h455l-108 -621q-22 -125 -22 -192q0 -40 7 -60q21 -53 100 -53q96 0 154.5 79t88.5 251l104 596h320z" />
<glyph unicode="&#x218;" horiz-adv-x="1331" d="M24 0zM442 -400q78 42 120.5 94t54.5 121l7 43h193l-1 -4q-19 -111 -96 -190q-76 -80 -215 -135zM24 72l62 354h115q-4 -168 79 -251t255 -83q139 0 222.5 59t102.5 173q16 90 -24.5 140t-188.5 93l-192 55q-187 56 -249.5 155.5t-30.5 283.5q39 222 193 345.5t394 123.5 q118 0 241.5 -22t252.5 -66l-58 -330h-114q1 154 -75 225.5t-239 71.5q-133 0 -210 -51.5t-95 -153.5q-16 -93 22.5 -141.5t211.5 -100.5l192 -55q179 -52 243.5 -162t31.5 -303q-40 -226 -201 -343.5t-434 -117.5q-131 0 -256 25t-251 76z" />
<glyph unicode="&#x219;" horiz-adv-x="1037" d="M0 0zM270 -400q78 42 120.5 94t54.5 121l7 43h193l-1 -4q-19 -111 -96 -190q-76 -80 -215 -135zM50 328h102q-1 -15 -1 -29q0 -98 53 -156.5t160 -58.5q210 0 235 145q4 19 4 47q0 27 -23 57t-113 56l-125 37q-141 41 -186 106t-45 145q0 34 6 73q31 173 153.5 257.5 t319 84.5t410.5 -64l-48 -268h-102q3 19 3 36q0 183 -203 183q-204 0 -228 -135q-3 -16 -3 -39q0 -65 111 -98l124 -37q179 -53 228.5 -119.5t49.5 -152.5q0 -35 -7 -76q-31 -180 -161.5 -265.5t-374.5 -85.5q-177 0 -390 60z" />
<glyph unicode="&#x21a;" horiz-adv-x="1371" d="M86 0zM458 -400q78 42 120.5 94t54.5 121l7 43h193l-1 -4q-19 -111 -96 -190q-76 -80 -215 -135zM203 0l21 121h179l216 1235h-368l-42 -236h-123l65 373h1332l-65 -373h-121l41 236h-371l-216 -1235h179l-21 -121h-706z" />
<glyph unicode="&#x21b;" horiz-adv-x="851" d="M90 0zM270 -400q78 42 120.5 94t54.5 121l7 43h193l-1 -4q-19 -111 -96 -190q-76 -80 -215 -135zM228 942h-138l21 121h138l58 330h319l-58 -330h265l-21 -121h-265l-114 -651q-16 -89 -16 -134q0 -27 5 -39q14 -34 66 -34q58 0 93.5 43t52.5 133h135 q-37 -160 -118.5 -224.5t-254.5 -64.5q-197 0 -256 69q-37 44 -37 136q0 50 11 115z" />
<glyph unicode="&#x21c;" horiz-adv-x="1272" d="M321 1024h-114l64 367q156 65 262.5 96t245.5 33q221 3 339 -109.5t89 -278t-116.5 -275.5t-218.5 -183q129 -19 186 -133t37 -230q-31 -179 -278 -357q-165 -119 -418 -231t-447 -153l24 129q110 27 346 156q348 191 389 423q20 111 -25 178q-78 117 -229 39l-206 -107 l23 131l216 138q153 97 222 193q82 111 108 260.5t-24 219.5q-64 87 -137 69q-223 -55 -338 -375z" />
<glyph unicode="&#x21d;" horiz-adv-x="1119" d="M562 973q-102 0 -184 -65.5t-120 -200.5h-100l51 295q228 85 439.5 85t317.5 -100t86 -214q-36 -204 -287 -332q117 -15 169.5 -107.5t36.5 -186.5q-40 -229 -656 -473q-185 -73 -357 -107l20 113q139 34 295 112q317 157 343 312q17 95 -23.5 150t-105.5 56 q-55 0 -95 -15l-178 -65l20 113l184 87q105 50 192 155q72 86 88 173q18 106 -26 158q-45 57 -110 57z" />
<glyph unicode="&#x21e;" horiz-adv-x="1741" d="M0 0zM872 1635l-154 264h147l163 -162l221 162h147l-247 -264h-277zM-44 0l21 121h172l219 1251h-172l21 121h691l-21 -121h-173l-88 -502h535l88 502h-172l21 121h691l-21 -121h-173l-219 -1251h173l-21 -121h-691l21 121h172l107 612h-535l-107 -612h173l-21 -121h-691 z" />
<glyph unicode="&#x21f;" horiz-adv-x="1340" d="M62 0zM311 1635l-154 264h147l163 -162l221 162h147l-247 -264h-277zM62 0l251 1436h-142l21 120h461l-113 -643q74 95 155.5 137t193.5 42q161 0 225 -106q41 -67 41 -175q0 -61 -13 -135l-97 -555h137l-21 -121h-456l120 686q13 70 13 118q0 44 -11 70q-22 52 -98 52 q-97 0 -155.5 -78.5t-88.5 -249.5l-105 -598h-318z" />
<glyph unicode="&#x220;" horiz-adv-x="1607" d="M63 0l21 121h171l219 1251h-136l21 121h484l-26 -154q89 97 188.5 139.5t239.5 42.5q207 0 287 -141q50 -87 50 -200q0 -112 -19 -215l-222 -1270h173l-21 -121h-690l21 121h171l216 1232q26 153 26 231t-10 115q-28 97 -138 97q-136 0 -223.5 -124.5t-136.5 -404.5 l-126 -720h172l-21 -121h-691z" />
<glyph unicode="&#x221;" horiz-adv-x="1457" d="M604 42q-7 -9 -48 -30q-76 -41 -176 -41q-204 0 -294 150t-45 411q46 262 188.5 411t346.5 149q100 0 162 -40.5t88 -123.5l89 508h-137l21 120h455l-203 -1163l80 2q42 0 97 -11q132 -26 104 -189q-39 -222 -353 -225q-126 -1 -203 82q-17 19 -15 23q-26 -23 -47 -51 q-33 -44 -58 -123h-99q14 78 47 141zM1035 303v-4q-22 -124 -5 -170q12 -27 47 -30q118 -7 133 81q22 127 -143 125q-15 0 -32 -2zM747 479l19 105q32 186 3.5 269t-123.5 83q-99 0 -154 -87.5t-95 -316.5t-15 -317t123 -88q94 0 152 83t90 269z" />
<glyph unicode="&#x224;" horiz-adv-x="1345" d="M-15 0l25 141l1014 1215h-644l-39 -223h-123l63 360h1167l-25 -141l-1006 -1215h546h256l-4 -26q-39 -221 -150 -380.5t-303 -268.5l-74 141q116 90 170 188q56 100 80 209h-953z" />
<glyph unicode="&#x225;" horiz-adv-x="1046" d="M19 0l21 121l693 825h-413l-32 -182h-107l53 299h891l-21 -119l-694 -825h293h256l-1 -8q-39 -221 -150 -380.5t-303 -268.5l-74 141q108 84 171 188q54 91 80 209h-663z" />
<glyph unicode="&#x226;" horiz-adv-x="1430" d="M0 0zM746 1776q11 60 58 103q46 44 100 44t86 -44q31 -43 20.5 -103t-57.5 -103q-46 -43 -100 -43t-86 43t-21 103zM-145 0l21 121h110l746 1372h215l267 -1372h127l-21 -121h-629l21 121h132l-58 305h-505l-165 -305h160l-21 -121h-400zM347 547h416l-107 571z" />
<glyph unicode="&#x227;" horiz-adv-x="1194" d="M63 0zM813 1321zM548 1468q11 60 57 103t100 43t87 -43q31 -43 21 -103q-10 -59 -57 -103t-101 -44t-85.5 44t-21.5 103zM756 876q-3 60 -54 60q-121 0 -239 -160q-54 -74 -98 -321q-32 -185 -9 -256.5t110 -71.5q83 0 135.5 83t84.5 269zM1062 1031l-158 -910l120 2 l-21 -123h-400l23 135q-99 -164 -274 -164q-174 0 -251 127.5t-38 349.5q39 223 211 416q205 228 478 228q270 0 310 -61z" />
<glyph unicode="&#x228;" horiz-adv-x="1404" d="M0 0zM1123 0zM1054 0q44 -64 61 -118.5t8 -106.5q-15 -86 -81 -131t-175 -45q-43 0 -87.5 6.5t-89.5 19.5l27 156q37 -17 73.5 -26t69.5 -9q54 0 86.5 23.5t40.5 68.5q5 28 -4.5 61t-43.5 101h115zM-44 0l21 121h172l219 1251h-172l21 121h1208l-62 -352h-124l38 215 h-566l-83 -479h352l33 190h123l-90 -516h-124l34 190h-352l-106 -604h582l38 215h123l-61 -352h-1224z" />
<glyph unicode="&#x229;" horiz-adv-x="1172" d="M61 0zM891 0zM822 0q44 -64 61 -118.5t8 -106.5q-15 -86 -81 -131t-175 -45q-43 0 -87.5 6.5t-89.5 19.5l27 156q37 -17 73.5 -26t69.5 -9q54 0 86.5 23.5t40.5 68.5q5 28 -4.5 61t-43.5 101h115zM774 832q0 147 -112 147q-85 0 -135.5 -89.5t-96.5 -370.5h20 q275 0 318 243q6 38 6 70zM409 400q-6 -34 -6 -105q1 -211 186 -211q103 0 178 61t112 177h150q-71 -181 -201 -266t-337 -85q-248 0 -355 145q-75 102 -75 263q0 69 15 150q46 267 208 415t399 148q172 0 291.5 -74.5t119.5 -209.5q0 -27 -6 -56q-57 -324 -679 -352z" />
<glyph unicode="&#x22a;" horiz-adv-x="1605" d="M77 0zM1422 2057zM856 2245h566l-32 -188h-567zM77 0zM688 92q171 0 283 161t170 492q58 332 2.5 493t-227.5 161q-171 0 -283.5 -162.5t-169.5 -491.5q-58 -328 -2 -490.5t227 -162.5zM666 -29q-339 0 -495.5 206t-93 568t292.5 568.5t567 206.5q340 0 496.5 -206 t92.5 -569q-63 -362 -292 -568t-568 -206zM700 1776q11 60 58 103q46 44 100 44t85 -44q31 -43 20.5 -103t-56.5 -103q-45 -43 -99 -43t-86.5 43t-21.5 103zM1102.5 1776q10.5 60 57.5 103q46 44 100 44t86 -44q33 -43 22 -103t-58 -103t-101 -43t-86 43q-31 43 -20.5 103z " />
<glyph unicode="&#x22b;" horiz-adv-x="1229" d="M63 0zM63 0zM537 84q101 0 159 96t102 352q30 167 30 266q0 52 -9 86q-23 95 -125 95t-160 -96.5t-103 -350.5q-28 -164 -28 -262q0 -55 8 -89q25 -97 126 -97zM517.5 -29q-252.5 0 -370.5 149q-84 108 -84 274q0 64 13 138q46 263 215.5 411.5t422.5 148.5t371 -148 q84 -107 84 -273q0 -65 -13 -139q-46 -262 -216 -411.5t-422.5 -149.5zM457 1468q10 60 57 103t101 43t85 -43t20 -103t-57 -104q-45 -43 -98 -43q-54 0 -87 44q-31 44 -21 103zM859 1468q11 60 57 103t100 43t86.5 -43t21.5 -103q-10 -59 -57 -103t-101 -44t-85.5 44 t-21.5 103zM583 1872h566l-32 -188h-567z" />
<glyph unicode="&#x22c;" horiz-adv-x="1605" d="M77 0zM1378 2057zM812 2245h566l-32 -188h-567zM77 0zM688 92q171 0 283 161t170 492q58 332 2.5 493t-227.5 161q-171 0 -283.5 -162.5t-169.5 -491.5q-58 -328 -2 -490.5t227 -162.5zM666 -29q-339 0 -495.5 206t-93 568t292.5 568.5t567 206.5q340 0 496.5 -206 t92.5 -569q-63 -362 -292 -568t-568 -206zM641 1635l1 12q22 123 82 190q61 66 151 66q55 0 120 -39q7 -4 10 -6l59 -33q24 -13 39 -18q15 -4 32 -4q37 0 63 25q27 25 34 69l1 4h99l-3 -15q-21 -122 -81 -187q-59 -66 -150 -66q-31 0 -59.5 9t-71.5 36l-47 28 q-22 13 -43.5 20t-38.5 7q-37 0 -63 -26q-27 -25 -35 -68v-4h-99z" />
<glyph unicode="&#x22d;" horiz-adv-x="1229" d="M63 0zM63 0zM537 84q101 0 159 96t102 352q30 167 30 266q0 52 -9 86q-23 95 -125 95t-160 -96.5t-103 -350.5q-28 -164 -28 -262q0 -55 8 -89q25 -97 126 -97zM517.5 -29q-252.5 0 -370.5 149q-84 108 -84 274q0 64 13 138q46 263 215.5 411.5t422.5 148.5t371 -148 q84 -107 84 -273q0 -65 -13 -139q-46 -262 -216 -411.5t-422.5 -149.5zM402 1309l2 16q25 146 87 221q61 76 153 76q33 0 63 -12q29 -13 65 -43l56 -47l2 -2q35 -29 67 -29q37 0 65 35t39 96h99l-3 -16q-25 -146 -86 -222q-61 -75 -153 -75q-33 0 -63 13q-30 12 -66 42 l-56 47l-1 1q-35 30 -68 30q-37 0 -65 -35t-38 -96h-99zM529 1872h566l-32 -188h-567z" />
<glyph unicode="&#x22e;" horiz-adv-x="1605" d="M77 0zM688 92q171 0 283 161t170 492q58 332 2.5 493t-227.5 161q-171 0 -283.5 -162.5t-169.5 -491.5q-58 -328 -2 -490.5t227 -162.5zM666 -29q-339 0 -495.5 206t-93 568t292.5 568.5t567 206.5q340 0 496.5 -206t92.5 -569q-63 -362 -292 -568t-568 -206zM794 1776 q11 60 58 103q46 44 100 44t86 -44q31 -43 20.5 -103t-57.5 -103q-46 -43 -100 -43t-86 43t-21 103z" />
<glyph unicode="&#x22f;" horiz-adv-x="1229" d="M63 0zM537 84q101 0 159 96t102 352q30 167 30 266q0 52 -9 86q-23 95 -125 95t-160 -96.5t-103 -350.5q-28 -164 -28 -262q0 -55 8 -89q25 -97 126 -97zM517.5 -29q-252.5 0 -370.5 149q-84 108 -84 274q0 64 13 138q46 263 215.5 411.5t422.5 148.5t371 -148 q84 -107 84 -273q0 -65 -13 -139q-46 -262 -216 -411.5t-422.5 -149.5zM624 1468q11 60 57 103t100 43t87 -43q31 -43 21 -103q-10 -59 -57 -103t-101 -44t-85.5 44t-21.5 103z" />
<glyph unicode="&#x230;" horiz-adv-x="1605" d="M77 0zM1422 2057zM856 2245h566l-32 -188h-567zM1122 1694zM857 1841q11 60 57 103t100 43t87 -43q31 -43 21 -103q-10 -59 -57 -103t-101 -44t-85.5 44t-21.5 103zM688 92q171 0 283 161t170 492q58 332 2.5 493t-227.5 161q-171 0 -283.5 -162.5t-169.5 -491.5 q-58 -328 -2 -490.5t227 -162.5zM666 -29q-339 0 -495.5 206t-93 568t292.5 568.5t567 206.5q340 0 496.5 -206t92.5 -569q-63 -362 -292 -568t-568 -206z" />
<glyph unicode="&#x231;" horiz-adv-x="1229" d="M63 0zM63 0zM537 84q101 0 159 96t102 352q30 167 30 266q0 52 -9 86q-23 95 -125 95t-160 -96.5t-103 -350.5q-28 -164 -28 -262q0 -55 8 -89q25 -97 126 -97zM517.5 -29q-252.5 0 -370.5 149q-84 108 -84 274q0 64 13 138q46 263 215.5 411.5t422.5 148.5t371 -148 q84 -107 84 -273q0 -65 -13 -139q-46 -262 -216 -411.5t-422.5 -149.5zM624 1468q11 60 57 103t100 43t87 -43q31 -43 21 -103q-10 -59 -57 -103t-101 -44t-85.5 44t-21.5 103zM565 1872h566l-32 -188h-567z" />
<glyph unicode="&#x232;" horiz-adv-x="1315" d="M93 0zM642 1872h566l-32 -188h-567zM186 0l21 121h181l87 497l-267 754h-115l21 121h645l-21 -121h-150l203 -569l400 569h-134l21 121h385l-21 -121h-114l-495 -702l-96 -549h180l-21 -121h-710z" />
<glyph unicode="&#x233;" horiz-adv-x="1071" d="M0 0zM407 1562h566l-32 -188h-567zM447 -273l-256 1215h-104l21 121h391l215 -1028q103 166 172.5 353.5t137.5 551.5l-128 1l21 121l258 1q-22 -128 -55 -293q-80 -406 -180 -594q-263 -490 -475 -580q-120 -51 -292 -51q-85 0 -208 43l39 222l101 -1q-3 -24 -3 -44 q0 -69 42 -91q19 -10 58 -16q21 -3 43 -3q100 0 202 72z" />
<glyph unicode="&#x234;" horiz-adv-x="1056" d="M498 222q57 -153 198 -152q124 -1 142 106q22 125 -59 124q-230 -2 -281 -78zM493 524q-16 -94 -12 -208q146 74 308 74q188 0 149 -218q-36 -210 -340 -213q-162 -2 -268 71q-15 -32 -29 -117l-25 -144h-123l26 144q21 101 60 180l-17 19q-92 154 -47 412l159 912h-136 l21 120h455z" />
<glyph unicode="&#x235;" horiz-adv-x="1700" d="M1182 222q57 -153 198 -152q124 -1 143 106q21 125 -60 124q-230 -2 -281 -78zM1177 524q-16 -94 -11 -208q145 74 307 74q187 0 150 -218q-37 -210 -341 -213q-162 -2 -268 71q-15 -32 -29 -117l-26 -144h-122l26 144q21 101 60 180l-17 19q-92 154 -47 412l28 162 q24 135 2 187.5t-99 52.5q-96 0 -154.5 -78.5t-88.5 -249.5l-105 -598h-319l165 942h-136l22 121h454l-26 -150q74 95 155.5 137t193.5 42q161 0 225 -105.5t28 -310.5z" />
<glyph unicode="&#x236;" horiz-adv-x="1040" d="M496 222q57 -153 198 -152q124 -1 142 106q22 125 -59 124q-230 -2 -281 -78zM172 520l74 422h-139l21 121h139l58 330h318l-57 -330h265l-21 -121h-266l-73 -422q-16 -90 -12 -204q146 74 308 74q188 0 149 -218q-36 -210 -340 -213q-162 -2 -268 71q-15 -32 -29 -117 l-25 -144h-123l26 144q21 101 61 180l-18 19q-92 154 -48 408z" />
<glyph unicode="&#x237;" horiz-adv-x="666" d="M309 942h-136l21 121h454l-207 -1188q-29 -163 -147.5 -246.5t-320.5 -83.5q-54 0 -113.5 10t-122.5 29l40 226l101 -1q-12 -80 8.5 -115.5t79.5 -35.5q66 0 100.5 47t55.5 170z" />
<glyph unicode="&#x238;" horiz-adv-x="1900" d="M1060 479q-33 -186 -4.5 -269t123.5 -83q98 0 153.5 88t95.5 317t15.5 316.5t-122.5 87.5q-96 0 -153 -83t-90 -269zM679 121l2 14q-55 -83 -131 -123.5t-177 -40.5q-203 0 -293.5 150t-44.5 411q46 262 188.5 411t346.5 149q100 0 162 -40.5t88 -123.5l89 508h-137 l21 120h455l-110 -628q56 83 131 123.5t176 40.5q205 0 296 -149.5t45.5 -410.5t-189.5 -411t-348 -150q-101 0 -162 40.5t-87 123.5l-3 -14l-21 -121h-318zM741 479l19 105q32 186 3.5 269t-123.5 83q-99 0 -154 -87.5t-95 -316.5t-15 -317t123 -88q94 0 152 83t90 269z " />
<glyph unicode="&#x239;" horiz-adv-x="1900" d="M1214 928q55 83 131 123.5t177 40.5q203 0 293 -150t44 -411q-45 -262 -187.5 -411t-345.5 -149q-101 0 -163 40.5t-87 123.5l-78 -440h137l-21 -120l-456 -1l99 561q-56 -83 -131 -123.5t-176 -40.5q-204 0 -295.5 149.5t-46 410.5t189.5 411t348 150q101 0 162 -40.5 t88 -123.5l23 135h319zM835 584q33 186 4 269t-123 83q-100 0 -155 -87.5t-95 -316.5t-15 -317t123 -88q95 0 152.5 83t89.5 269zM1154 584l-19 -105q-33 -186 -4.5 -269t124.5 -83q98 0 153 88t95.5 317t15.5 316.5t-123 87.5q-96 0 -153 -83t-89 -269z" />
<glyph unicode="&#x23a;" horiz-adv-x="1430" d="M-89 -78l-65 90l13 13l17 96h87l47 43l722 1329h215l75 -386l497 462l65 -90l-537 -500l167 -858h128l-22 -121h-629l21 121h132l-57 305h-334l-328 -305h151l-21 -121h-260zM713 819l-57 299l-309 -571h74zM583 547h181l-27 143zM272 409l19 17h-9z" />
<glyph unicode="&#x23b;" horiz-adv-x="1467" d="M-70 -78l-66 90l263 244q-101 194 -50 489q63 358 297 566.5t574 208.5q120 0 244 -32q91 -24 188 -65l157 146l66 -90l-165 -153l-53 -302h-114q-1 74 -13 134l-819 -762q7 -84 33 -144q67 -160 265 -160q134 0 233.5 83t167.5 251h180q-94 -231 -251.5 -343 t-389.5 -112q-327 0 -488 192zM438 546l778 724q-10 19 -24 36q-76 93 -228 93q-196 0 -319.5 -160.5t-181.5 -493.5q-20 -109 -25 -199z" />
<glyph unicode="&#x23c;" horiz-adv-x="1122" d="M1005 332q-66 -182 -187.5 -271.5t-303.5 -89.5q-232 0 -348 121l-209 -194l-60 86l209 194q-68 138 -30 354q46 264 210.5 412t411.5 148q100 0 198 -21q65 -14 130 -37l137 127l62 -86l-145 -135l-40 -227h-101q4 53 -1 95l-529 -491q0 -80 17 -129q37 -104 161 -104 q96 0 165.5 64t103.5 184h149zM901 917q-46 62 -146 62q-133 0 -206.5 -100t-116.5 -347q-6 -31 -10 -60z" />
<glyph unicode="&#x23d;" horiz-adv-x="1296" d="M-44 0l21 121h172l94 538h-224l34 192h224l91 521h-172l21 121h691l-21 -121h-173l-91 -521h223l-34 -192h-223l-91 -522h529l42 236h121l-65 -373h-1169z" />
<glyph unicode="&#x23e;" horiz-adv-x="1371" d="M909 0h-706l22 121h179l59 340l-579 -539l-65 90l676 629l125 715h-371l-41 -236h-122l65 373h1259l81 76l66 -90l-91 -84l-48 -275h-123l24 138l-440 -409l-127 -728h178zM1263 1356h-295l-57 -327z" />
<glyph unicode="&#x23f;" horiz-adv-x="1037" d="M786 -402q-122 -38 -220 -42q-32 -1 -96 -1q-119 0 -195 59q-79 62 -96 156l-38 206q-4 21 -20 33q-28 6 -57 14q-14 3 -29 8l52 297h102q-13 -188 131 -232q40 -10 90 -12q174 0 217 113q6 15 9 32q14 81 -36 118q-30 22 -96 42l-125 37q-142 42 -195 118t-30 206 q43 246 276 314q95 28 225 28q167 0 381 -64l-47 -268h-102q22 219 -208 219q-187 0 -218 -123q-2 -6 -3 -12q-12 -73 39 -107q24 -16 70 -30l124 -37q176 -53 235 -130q60 -79 36 -218q-37 -210 -210 -292q-113 -54 -290 -59q3 -11 5 -23l20 -110q19 -98 49 -134t89 -36 q8 0 44.5 37t53.5 114l102 1z" />
<glyph unicode="&#x240;" horiz-adv-x="1046" d="M193 0h-181l21 121l693 825h-413l-32 -182h-107l52 299h891l-20 -119l-695 -825q169 1 197 -153l24 -138q17 -97 49 -134q29 -36 89 -36q8 0 44.5 37t52.5 114l102 1l-39 -222q-67 -21 -123 -32t-192 -11q-119 0 -195 59q-79 62 -97 156l-36 196q-10 44 -85 44z" />
<glyph unicode="&#x241;" horiz-adv-x="1216" d="M438 1372q-92 0 -117 -28q-31 -33 -48 -115h-102l34 198q62 34 127 50t127 16h354q224 0 335.5 -118.5t76.5 -317.5t-188.5 -318.5t-376.5 -119.5h-35l-87 -498h217l-22 -121h-735l21 121h172l109 619h235q117 0 202 86t110 231q25 144 -29 229.5t-172 85.5h-208z" />
<glyph unicode="&#x242;" horiz-adv-x="1008" d="M292 339q118 0 202.5 86t109.5 231q25 144 -29 230q-54 85 -172 85q-93 0 -117 -27q-30 -34 -48 -116h-102l34 198q62 34 127 50t127 16h146q224 0 335 -118q112 -119 77 -318q-34 -199 -188 -318q-88 -69 -201 -99l-41 -239h-320z" />
<glyph unicode="&#x245;" horiz-adv-x="1430" d="M0 0zM116 121h160l-21 -121h-400l21 121h110l746 1372h215l267 -1372h127l-21 -121h-629l21 121h132l-188 997z" />
<glyph unicode="&#x250;" horiz-adv-x="1194" d="M191 410l93 532h-137l22 121h455l-24 -135q78 84 162.5 124t183.5 40q147 0 210 -87.5t35 -250.5q-31 -179 -159.5 -268t-356.5 -89h-168l-11 -63q-22 -129 22 -190.5t159 -61.5q96 0 155 43.5t98 142.5h102l-40 -229q-91 -34 -186 -51t-197 -17q-256 0 -357 106t-61 333 zM566 729l-38 -213h120q89 0 146 54t75 155t-8 151t-97 50q-74 0 -128.5 -54t-69.5 -143z" />
<glyph unicode="&#x251;" horiz-adv-x="1288" d="M76 0zM1075 931q90 81 185 132h116l-8 -44q-124 -95 -195 -194q-24 -34 -84 -153l-8 -326q-5 -216 72 -220t161 62l-27 -155q-267 -109 -416 12q-28 23 -54 59q-43 -58 -122 -92q-89 -41 -222 -41q-262 0 -352.5 150t-44.5 411q46 260 188 411q142 149 427 145 q314 -2 384 -157zM763 361l29 419q10 146 -111 156q-94 8 -154 -88q-55 -87 -95.5 -316t-14.5 -317q25 -89 123 -88q95 1 152 83q14 21 71 151z" />
<glyph unicode="&#x252;" horiz-adv-x="1288" d="M376 128q-90 -81 -184 -132h-116l8 44q124 95 195 194q24 34 84 153l8 327q5 215 -73 220q-76 4 -161 -62l27 154q267 109 417 -12q28 -22 54 -59q43 59 121 93q89 40 223 40q262 0 352 -150t45 -410q-46 -261 -189 -412q-141 -149 -427 -145q-314 3 -384 157zM688 698 l-28 -418q-10 -147 110 -156q95 -8 155 87q55 87 95 316t15 317q-25 90 -123 88q-96 -1 -152 -82q-15 -22 -72 -152z" />
<glyph unicode="&#x253;" horiz-adv-x="1288" d="M448 479q-32 -186 -4 -269t123 -83q98 0 153.5 88t96 317t15.5 316.5t-123 87.5q-95 0 -152.5 -83t-90.5 -269zM261 1226q29 163 147 246.5t321 83.5q54 0 113.5 -10t121.5 -29l-39 -225h-101q11 80 -9 115.5t-80 35.5q-65 0 -99.5 -47t-55.5 -170l-53 -296 q55 81 130 122q76 40 176 40q205 0 296 -149.5t45.5 -410.5t-189 -411t-348.5 -150q-101 0 -162 40.5t-87 123.5l-24 -135h-318z" />
<glyph unicode="&#x254;" horiz-adv-x="1122" d="M111 731q66 182 187 271.5t303 89.5q256 0 370.5 -147t67.5 -414q-46 -264 -210.5 -412t-410.5 -148q-100 0 -198 21t-196 63l51 295h101q-9 -135 36 -200.5t148 -65.5q133 0 207 100t117 347q42 241 5 344.5t-161 103.5q-96 0 -165.5 -64t-102.5 -184h-149z" />
<glyph unicode="&#x255;" horiz-adv-x="1122" d="M442 222q57 -151 198 -152q227 -1 247 116q20 116 -164 114q-230 -2 -281 -78zM426 316q142 72 362 74q241 0 196 -232q-39 -199 -441 -199q-165 0 -269 71q-15 -32 -29 -117l-25 -144h-123l26 144q21 101 61 180q-9 10 -17 19q-126 154 -81 408q44 255 223 408 q179 152 430 152q145 0 220 -24q75 -23 147 -71l-48 -272h-85q8 140 -36 204q-45 64 -148 64q-135 0 -223 -115q-92 -120 -129 -346q-16 -94 -11 -204z" />
<glyph unicode="&#x256;" horiz-adv-x="1288" d="M779 479l18 105q32 186 3.5 269t-122.5 83q-99 0 -154.5 -87.5t-95.5 -316.5t-15 -317t123 -88q95 0 152.5 83t90.5 269zM717 133q-54 -81 -130 -121q-75 -41 -176 -41q-204 0 -294 150t-45 411q46 262 188.5 411t346.5 149q101 0 162.5 -40.5t87.5 -123.5l89 508h-137 l21 120h456l-273 -1556h-1l-21 -125q-22 -123 -4 -170t84 -47q59 0 91.5 35.5t48.5 115.5h102l-39 -225q-69 -19 -132 -29t-117 -10q-203 0 -292 83.5t-61 246.5z" />
<glyph unicode="&#x257;" horiz-adv-x="1345" d="M976 0h-318l23 135q-55 -83 -131 -123.5t-176 -40.5q-204 0 -294.5 150t-44.5 411q46 262 188.5 411t346.5 149q100 0 162 -40.5t88 -123.5l53 298q29 163 147 246.5t321 83.5q54 0 113.5 -10t121.5 -29l-39 -225h-101q11 80 -9 115.5t-80 35.5q-65 0 -99.5 -47 t-55.5 -170zM742 479l18 105q32 186 3.5 269t-122.5 83q-99 0 -154.5 -87.5t-96 -316.5t-15.5 -317t124 -88q94 0 152 83t91 269z" />
<glyph unicode="&#x258;" horiz-adv-x="1172" d="M438 600h307l4 18q34 195 13 278t-103 83q-85 0 -135 -84.5t-86 -294.5zM67 481q60 300 214.5 455.5t391.5 155.5q242 0 352 -148t64 -412q-47 -270 -205.5 -415.5t-406.5 -145.5q-207 0 -307.5 85t-107.5 266h150q-3 -116 50.5 -177t156.5 -61q125 0 196.5 91.5 t107.5 297.5l2 8h-658z" />
<glyph unicode="&#x259;" horiz-adv-x="1172" d="M414 463q-37 -210 -16.5 -294.5t104.5 -84.5q82 0 132 83t84 278l4 18h-308zM84 582h658l2 8q36 206 -4 297.5t-164 91.5q-104 0 -178.5 -61t-112.5 -177h-149q70 181 200 266t337 85q249 0 356 -145.5t60 -415.5q-46 -264 -208 -412t-404 -148q-238 0 -337.5 155.5 t-55.5 455.5z" />
<glyph unicode="&#x25a;" horiz-adv-x="1672" d="M747 606l-342 -197q-25 -167 -8 -241q21 -84 105 -84q82 0 132 83q50 82 84 278zM760 738q4 95 -20 150q-40 91 -164 91q-104 0 -178.5 -61t-112.5 -177h-149q70 181 200 266t337 85q249 0 356 -146q14 -18 25 -39l205 118l157 -3l-8 -43q-16 -94 19 -136q36 -44 89 -44 q89 0 102 32l80 -152q-78 -48 -81 -49q-45 -17 -130 -17q-105 0 -172 93q-59 81 -48 201l-176 -102q26 -116 -2 -274q-46 -264 -208 -412t-404 -148q-238 0 -337 155q-55 86 -66 216l178 103z" />
<glyph unicode="&#x25b;" horiz-adv-x="1120" d="M189 812q21 115 131 184q126 80 358 82q229 1 404 -50l-37 -213h-101q2 69 -57 110q-57 39 -141 40q-110 0 -177 -49q-62 -45 -73 -108q-12 -69 31 -115q52 -56 167 -56h60l-24 -137h-55q-134 0 -227 -70q-71 -53 -85 -141q-14 -79 33 -133q58 -67 195 -68q136 -1 226 80 q42 38 59 98h100l-41 -234q-250 -57 -429 -57q-202 0 -331 61q-158 75 -129 247q23 130 114 198q107 81 237 95q-120 27 -171.5 86t-36.5 150z" />
<glyph unicode="&#x25c;" horiz-adv-x="1035" d="M1008 812q-16 -91 -88.5 -150t-201.5 -86q124 -14 203 -95q67 -68 44 -198q-30 -172 -215 -247q-150 -61 -351 -61q-180 0 -410 57l41 234h100q-4 -60 25 -98q62 -81 198 -80q137 1 218 68q66 54 80 133q17 88 -35 141q-69 70 -203 70h-55l24 137h59q116 0 188 56 q59 46 71 115q11 63 -35 108q-50 49 -161 49q-83 -1 -154 -40q-74 -41 -96 -110h-101l37 213q194 51 422 50q231 -2 330 -82q86 -69 66 -184z" />
<glyph unicode="&#x25d;" horiz-adv-x="1672" d="M919 662q-72 -59 -201 -86q123 -14 203 -95q67 -69 44 -198q-30 -172 -215 -247q-150 -61 -351 -61q-180 0 -410 57l41 234h100q-4 -60 25 -98q62 -81 198 -80q137 1 218 68q66 54 80 133q16 88 -35 141q-69 70 -203 70h-55l24 137h59q116 0 188 56q59 46 71 115 q11 63 -35 108q-51 49 -161 49q-83 -1 -154 -40q-74 -41 -96 -110h-101l37 213q194 51 422 50q231 -2 330 -82q71 -58 69 -147l248 176l157 -3l-8 -43q-16 -94 19 -136q36 -44 89 -44q89 0 102 32l80 -152q-78 -48 -81 -49q-45 -17 -130 -17q-105 0 -172 93q-59 81 -48 201z " />
<glyph unicode="&#x25e;" horiz-adv-x="1326" d="M632 70q98 1 158 51q60 51 77 147q13 73 -39 137q-51 62 -177 62h-34l21 120h34q124 0 199 64q74 62 87 138q17 95 -26 146q-43 52 -140 52q-14 0 -84 -18q-35 -9 -99 -46q-216 -123 -264 -398q-44 -252 125 -398q30 -26 83 -46q29 -11 79 -11zM836 1092q248 0 363.5 -77 t90.5 -218q-18 -102 -121 -173q-105 -72 -273 -96q159 -24 239 -95q79 -71 61 -174q-25 -141 -167 -218t-419 -77q-19 0 -144 19q-51 8 -145 55q-304 154 -245 490q53 308 417 490q68 34 164 56q79 18 179 18z" />
<glyph unicode="&#x25f;" horiz-adv-x="712" d="M309 942h-136l21 121h454l-81 -463h139l-21 -121h-139l-105 -604q-29 -163 -147.5 -246.5t-320.5 -83.5q-54 0 -113.5 10t-122.5 29l40 226l101 -1q-12 -80 8.5 -115.5t79.5 -35.5q66 0 100.5 47t55.5 170l106 604h-134l21 121h134z" />
<glyph unicode="&#x260;" horiz-adv-x="1288" d="M859 936h-181q-99 0 -154.5 -87.5t-95.5 -316.5t-15 -317t123 -88q95 0 152.5 83t90.5 269l18 105zM1156 816l-140 -802q-39 -224 -204 -346.5t-427 -122.5q-96 0 -191 16.5t-193 49.5l45 254h101q-4 -105 49.5 -156t169.5 -51q147 0 221.5 78.5t109.5 277.5l21 121 q-55 -83 -130.5 -123.5t-176.5 -40.5q-204 0 -294 150t-45 411q41 230 186 382q143 149 346 149h278l28 163q29 163 147.5 246.5t320.5 83.5q54 0 113.5 -10t122.5 -29l-40 -225h-101q12 80 -8.5 115.5t-79.5 35.5q-66 0 -100.5 -47t-55.5 -170l-72 -410h-1z" />
<glyph unicode="&#x261;" horiz-adv-x="1288" d="M648 1063h730l-21 -121h-136l-162 -928q-39 -224 -204 -346.5t-427 -122.5q-95 0 -190.5 16.5t-193.5 49.5l45 254h101q-4 -105 49.5 -156t169.5 -51q148 0 222.5 78.5t108.5 277.5l22 121q-55 -83 -131 -123.5t-177 -40.5q-204 0 -294 150t-45 411q41 230 187 382 q142 149 346 149zM840 584l63 352h-182q-99 0 -154.5 -87.5t-95.5 -316.5t-15 -317t123 -88q95 0 152.5 83t90.5 269z" />
<glyph unicode="&#x262;" horiz-adv-x="1154" d="M939 720q0 115 -75 199q-54 61 -123 61q-105 0 -191 -109q-88 -109 -129 -344q-41 -233 5 -342q46 -110 144 -110q44 0 103 40l53 296h-131l15 84h436l-70 -397q-115 -54 -224 -81q-109 -26 -218 -26q-239 0 -351 143q-111 144 -68 393q44 250 206 393q162 144 401 144 q100 0 192 -22q93 -23 183 -68l-45 -254h-113z" />
<glyph unicode="&#x263;" horiz-adv-x="1312" d="M1258 1063l-408 -500q213 -470 150 -839q-30 -170 -524 -172q-423 -3 -256 347q101 212 373 505l-262 538h-107l22 121h389l181 -385l215 264h-117l21 121h323zM631 305q-296 -349 -319 -477q-22 -127 154 -128q224 -1 244 120q43 262 -79 485z" />
<glyph unicode="&#x264;" horiz-adv-x="1156" d="M740 692q316 358 399 373q63 11 59 -95l-27 -152h-95l4 19q12 85 -11 71q-44 -28 -290 -320q210 -445 112 -532q-150 -133 -343 -132q-282 2 -350 76q-82 87 306 465q-52 180 -192 415q-51 86 -73 -40l-4 -22h-103l27 156q25 88 205 90q207 3 376 -372zM539 348 q-162 -150 -170 -192q-16 -78 105 -80q87 -2 121 76q27 64 -56 196z" />
<glyph unicode="&#x265;" horiz-adv-x="1340" d="M1272 1063l-240 -1369h142l-21 -120h-461l101 576q-74 -95 -155.5 -137t-193.5 -42q-161 0 -225 105.5t-28 310.5l97 555h-137l22 121h455l-120 -686q-24 -135 -2 -187.5t99 -52.5q96 0 154.5 78.5t88.5 249.5l84 477h-118l22 121h436z" />
<glyph unicode="&#x266;" horiz-adv-x="1340" d="M63 0l215 1226q29 163 147.5 246.5t320.5 83.5q54 0 113.5 -10t122.5 -29l-40 -225h-101q11 80 -9 115.5t-80 35.5q-65 0 -99.5 -47t-55.5 -170l-54 -312q73 94 154 136t193 42q161 0 225 -105.5t28 -310.5l-97 -555h137l-21 -121h-456l120 686q24 135 2 187.5t-98 52.5 q-96 0 -155 -78.5t-89 -249.5l-104 -598h-319z" />
<glyph unicode="&#x267;" horiz-adv-x="1340" d="M103 0l215 1226q28 163 146.5 246.5t321.5 83.5q54 0 113.5 -10t122.5 -29l-40 -225h-102q13 80 -8 115.5t-80 35.5q-66 0 -100 -47t-56 -170l-54 -312q74 94 154 136q81 42 194 42q161 0 225 -105.5t28 -310.5l-140 -801q-29 -163 -147 -246.5t-321 -83.5q-54 0 -114 10 t-122 29l40 225h102q-13 -80 7.5 -115.5t80.5 -35.5q65 0 99.5 47t55.5 170l142 811q24 135 2 187.5t-98 52.5q-97 0 -156 -78.5t-88 -249.5l-105 -598h-318z" />
<glyph unicode="&#x268;" horiz-adv-x="700" d="M11 0zM268 1324q0 104 69 168t141 64t107 -48t35 -103q0 -104 -68.5 -167.5t-140.5 -63.5t-107.5 48t-35.5 102zM402 121h137l-21 -121h-455l84 479h-136l21 121h135l61 342h-136l20 121h455l-81 -463h137l-21 -121h-137z" />
<glyph unicode="&#x269;" horiz-adv-x="700" d="M165 337l106 605h-133l22 121h450l-124 -712q-23 -131 4 -191q29 -61 111 -61l-17 -99h-156q-168 0 -226 48q-77 63 -37 289z" />
<glyph unicode="&#x26a;" horiz-adv-x="700" d="M271 942zM156 1063h591l-21 -121h-136l-144 -821h136l-21 -121h-591l21 121h136l144 821h-136z" />
<glyph unicode="&#x26b;" horiz-adv-x="753" d="M569 877q57 25 75 125h99q-25 -156 -81.5 -227t-125.5 -83l-100 -571h137l-20 -121h-456l144 822q-33 -3 -60 -36.5t-38 -94.5h-99q24 156 85 231.5t144 81.5l75 432h-136l21 120h455z" />
<glyph unicode="&#x26c;" horiz-adv-x="947" d="M628 121h137l-21 -121h-455l114 657h-141q-224 0 -194 174q44 251 306 251q60 0 102 -12l64 366h-136l21 120h454l-136 -779h155l-21 -120h-155zM449 918q4 73 -98 60q-127 -16 -143.5 -111.5t86.5 -89.5h131z" />
<glyph unicode="&#x26d;" horiz-adv-x="700" d="M103 0v0l251 1436h-136l21 120h454l-221 -1271l-72 -410q-21 -123 -3.5 -170t83.5 -47q60 0 92.5 35.5t48.5 115.5h102l-40 -225q-69 -19 -132 -29t-117 -10q-202 0 -291.5 83.5t-60.5 246.5z" />
<glyph unicode="&#x26e;" horiz-adv-x="1466" d="M1056 452q195 -21 280 -105q123 -121 86 -331q-36 -209 -205 -320.5t-451 -111.5q-106 0 -215.5 20t-225.5 60l57 328h109q-15 -142 42 -216.5t182 -74.5q136 0 225.5 84.5t117.5 239.5q28 162 -34.5 250t-205.5 88h-59l38 225l302 358h-413l-32 -182h-102l-113 -643h137 l-22 -121h-455l251 1436h-136l22 120h454l-86 -493h886l-20 -119z" />
<glyph unicode="&#x26f;" horiz-adv-x="1950" d="M771 174q-84 -106 -170 -154.5t-190 -48.5q-164 0 -227.5 103.5t-26.5 312.5l97 555h-137l21 121h455l-109 -623q-35 -199 -16.5 -251t93.5 -52q84 0 143.5 72.5t83.5 206.5l92 526h-114l21 121h433l-109 -623q-35 -199 -16.5 -251t92.5 -52q86 0 145 72.5t83 206.5 l93 526h-115l21 121h433l-165 -942h136l-21 -121h-454l26 150q-72 -93 -151.5 -136t-178.5 -43q-117 0 -181.5 49.5t-86.5 153.5z" />
<glyph unicode="&#x270;" horiz-adv-x="1950" d="M806 174q-85 -106 -171 -154.5t-189 -48.5q-165 0 -228 103.5t-27 312.5l97 555h-137l22 121h455l-109 -623q-35 -199 -16.5 -251t93.5 -52q84 0 143.5 72.5t83.5 206.5l91 526h-114l22 121h433l-109 -623q-35 -199 -16.5 -251t92.5 -52q86 0 145 72.5t83 206.5l92 526 h-115l22 121h433l-240 -1368h136l-21 -121h-455l101 576q-72 -93 -151.5 -136t-178.5 -43q-117 0 -181 49.5t-86 153.5z" />
<glyph unicode="&#x271;" horiz-adv-x="1950" d="M1219 889q84 106 170 154.5t190 48.5q164 0 227.5 -103.5t26.5 -312.5l-139 -801q-29 -163 -147.5 -246.5t-320.5 -83.5q-54 0 -113.5 10t-122.5 29l40 225h101q-12 -80 8.5 -115.5t80.5 -35.5q65 0 99.5 47t55.5 170l131 748q35 199 16.5 251t-93.5 52 q-84 0 -143.5 -72.5t-83.5 -206.5l-113 -647h-319l109 623q35 199 16.5 251t-92.5 52q-86 0 -145.5 -72.5t-82.5 -206.5l-113 -647h-319l165 942h-136l22 121h454l-26 -150q72 93 151 136t178 43q117 0 181.5 -49.5t86.5 -153.5z" />
<glyph unicode="&#x272;" horiz-adv-x="1340" d="M308 942h-136l22 121h454l-26 -150q74 95 155 137t193 42q161 0 225 -105.5t28 -310.5l-96 -555h137l-22 -121h-455l119 686q25 135 2.5 187.5t-98.5 52.5q-96 0 -154.5 -78.5t-89.5 -249.5l-127 -723q-29 -163 -147 -246.5t-321 -83.5q-54 0 -113.5 10t-122.5 29l40 225 h102q-13 -80 8 -115.5t80 -35.5q66 0 100 47t56 170z" />
<glyph unicode="&#x273;" horiz-adv-x="1340" d="M143 0l165 942h-136l22 121h454l-26 -150q74 95 155 137t193 42q161 0 225 -105.5t28 -310.5l-141 -801q-22 -123 -4 -170t84 -47q59 0 91.5 35.5t48.5 115.5h102l-40 -225q-68 -19 -131 -29t-117 -10q-202 0 -292 83.5t-61 246.5l143 811q25 135 2.5 187.5t-98.5 52.5 q-96 0 -154.5 -78.5t-89.5 -249.5l-104 -598h-319z" />
<glyph unicode="&#x274;" horiz-adv-x="1313" d="M22 0l22 122h123l143 816h-124l22 125h301l441 -624l87 499h-93l22 125h337l-22 -125h-124l-164 -938h-168l-449 635l-89 -513h92l-21 -122h-336z" />
<glyph unicode="&#x275;" horiz-adv-x="1229" d="M517.5 -29q-252.5 0 -370 149.5t-71.5 411.5q46 263 215.5 411.5t422.5 148.5t370.5 -148.5t71.5 -411.5q-46 -262 -216 -411.5t-422.5 -149.5zM537 84q101 0 159 96q51 86 93 299h-367q-33 -211 -11 -298q25 -97 126 -97zM444 600h366q30 201 9 284q-23 95 -125 95 t-160 -97q-50 -82 -90 -282z" />
<glyph unicode="&#x276;" horiz-adv-x="1955" d="M847 87l156 894h-114q-75 0 -160 -57q-190 -127 -236 -389q-42 -245 89 -391q51 -57 151 -57h114zM1759 0h-923q-186 0 -304.5 18.5t-202.5 59.5q-131 61 -186 180t-28 277q28 157 124.5 274.5t248.5 180.5q98 41 221.5 59.5t313.5 18.5h906l-44 -252h-123l27 154h-439 l-60 -343h225l24 136h123l-65 -369h-123l24 136h-225l-76 -432h456l27 154h123z" />
<glyph unicode="&#x277;" horiz-adv-x="1380" d="M798 529l-7 -40q-21 -120 -5 -226q30 -197 58 -197q82 0 143 364q30 173 10 342q-49 197 -234 201q-179 4 -302 -201q-79 -169 -110 -342q-64 -364 16 -364q27 0 127 197q53 106 74 226l7 40h223zM640 272q-51 -142 -142 -222q-90 -79 -201 -79q-153 0 -216 112 q-64 111 -28 317q14 79 49 160q44 106 88 167q260 358 592 358q336 0 470 -358q23 -61 30 -167q7 -81 -7 -160q-36 -206 -139 -317q-103 -112 -255 -112q-111 0 -174 79q-63 80 -67 222z" />
<glyph unicode="&#x278;" horiz-adv-x="1229" d="M490 1556h415l-81 -470q206 -25 315 -142q139 -149 93 -412q-46 -262 -238 -412q-151 -118 -365 -143l-73 -413h-238l72 414q-199 26 -307 142q-139 150 -93 412q46 263 237 412q148 115 356 141l61 350h-175zM414 113l146 837q-45 -24 -77 -68q-72 -96 -116.5 -350 t-6.5 -351q17 -44 54 -68zM800 955l-148 -846q50 24 85 71q70 96 115 352t8 352q-18 47 -60 71z" />
<glyph unicode="&#x279;" horiz-adv-x="1053" d="M-40 -12l56 317h102q-10 -85 19 -126.5t97 -41.5q104 0 182.5 102t109.5 283l74 420h-173l20 121h493l-165 -942h146l-21 -121h-464l32 189q-66 -111 -152 -164.5t-198 -53.5q-28 0 -67 4.5t-91 12.5z" />
<glyph unicode="&#x27a;" horiz-adv-x="1053" d="M-83 -12l56 317h102q-10 -85 18.5 -126.5t97.5 -41.5q104 0 183 102q78 104 109 283l161 914h-174l20 121h493l-251 -1436h146l-22 -121h-464l33 189q-66 -111 -152.5 -164.5t-197.5 -53.5q-28 0 -67.5 4.5t-90.5 12.5z" />
<glyph unicode="&#x27b;" horiz-adv-x="1053" d="M-2 -12l55 317h102q-9 -85 19.5 -126.5t97.5 -41.5q104 0 182 102t109 283l74 420h-173l21 121h492l-207 -1188q-21 -123 -3.5 -170t83.5 -47q59 0 92 35.5t49 115.5h102l-40 -225q-69 -19 -132 -29t-117 -10q-203 0 -292 83.5t-60 246.5l21 125h-1l34 189 q-67 -111 -153.5 -164.5t-197.5 -53.5q-28 0 -67 4.5t-90 12.5z" />
<glyph unicode="&#x27c;" horiz-adv-x="971" d="M1120 1075l-56 -317h-102q10 85 -19 126.5t-97 41.5q-104 0 -183 -102q-78 -104 -109 -283l-169 -965h-318l238 1366h-146l22 121h464l-33 -189q67 111 152.5 164.5t197.5 53.5q28 0 67.5 -4.5t90.5 -12.5z" />
<glyph unicode="&#x27d;" horiz-adv-x="971" d="M1122 1075l-55 -317h-102q10 85 -19 126.5t-97 41.5q-105 0 -183 -102t-110 -283l-116 -666q-22 -123 -4 -170t84 -47q59 0 92 35.5t49 115.5h101l-39 -225q-69 -19 -132 -29t-117 -10q-203 0 -292 83.5t-61 246.5l187 1067h-146l21 121h465l-33 -189q66 111 152.5 164.5 t197.5 53.5q28 0 67.5 -4.5t89.5 -12.5z" />
<glyph unicode="&#x27e;" horiz-adv-x="832" d="M422 0h-319l134 762q28 163 146.5 246.5t321.5 83.5q54 0 113.5 -10t121.5 -29l-39 -225h-102q12 80 -8 115.5t-80 35.5q-66 0 -100 -47q-35 -49 -56 -170z" />
<glyph unicode="&#x27f;" horiz-adv-x="897" d="M435 762q21 123 3 170t-83 47q-60 0 -92.5 -35.5t-48.5 -115.5h-102l40 225q69 19 132 29t117 10q202 0 291.5 -83.5t60.5 -246.5l-133 -762h-319z" />
<glyph unicode="&#x280;" horiz-adv-x="1476" d="M883 519q72 -9 116 -42q45 -33 72 -95l85 -261h145l-21 -121h-408l-109 321q-36 91 -45 105.5t-19 21.5q-27 21 -38 24q-14 4 -38 4h-50l-63 -355h160l-21 -121h-627l21 121h159l143 821h-158l21 121h654q164 0 257 -53q16 -9 32 -21q105 -75 81 -212q-19 -111 -114 -175 q-82 -55 -167 -73q-31 -6 -68 -10zM594 597h109q91 0 150 51q68 60 79 122q12 72 -28 114q-29 32 -70 48q-25 10 -71 10h-109z" />
<glyph unicode="&#x281;" horiz-adv-x="1476" d="M887 544q36 -4 64 -10q80 -18 142 -73q72 -65 53 -175q-24 -137 -155 -212q-21 -12 -40 -21q-111 -53 -274 -53h-655l21 121h159l143 821h-158l21 121h627l-22 -121h-159l-62 -355h50q24 0 39 4q13 3 47 24q13 7 27 21.5t82 105.5l221 321h407l-21 -121h-145l-176 -261 q-48 -62 -105 -95q-55 -33 -131 -42zM571 466l-61 -345h109q47 0 75 10q46 16 87 48q55 42 67 114q11 62 -36 122q-41 51 -132 51h-109z" />
<glyph unicode="&#x282;" horiz-adv-x="1037" d="M36 31l45 254l7 43h102q-8 -119 48.5 -181.5t172.5 -62.5q97 0 155.5 37.5t70.5 107.5q11 64 -15.5 99t-116.5 61l-125 37q-142 42 -195 118t-30 206q30 173 153 257.5t348 84.5q84 0 177 -15.5t204 -48.5l-47 -268h-102q11 109 -41 164t-167 55q-97 0 -153 -34.5 t-68 -100.5q-9 -54 14 -85t94 -52l124 -37q180 -53 238 -131t34 -217q-32 -180 -162.5 -265.5t-374.5 -85.5q-40 0 -81 3l-18 -99q-21 -123 -3 -170t83 -47q60 0 92.5 35.5t48.5 115.5h102l-40 -225q-69 -19 -132 -29t-117 -10q-202 0 -291.5 83.5t-60.5 246.5z" />
<glyph unicode="&#x283;" horiz-adv-x="610" d="M129 1196q7 175 149 268q118 92 315 92q76 0 147.5 -9.5t138.5 -28.5l-40 -228h-101q6 78 -21 116t-89 38q-74 0 -114 -58q-61 -59 -65 -186l-52 -1327q-5 -146 -147 -247q-118 -83 -321 -83q-54 0 -113.5 10t-121.5 29l39 226l102 -1q-12 -80 8 -115.5t80 -35.5 q66 0 100 47q52 73 56 170z" />
</font>
</defs>
</svg>
