<?xml version="1.0" standalone="no"?>
<!DOCTYPE svg PUBLIC "-//W3C//DTD SVG 1.1//EN" "http://www.w3.org/Graphics/SVG/1.1/DTD/svg11.dtd" >
<svg xmlns="http://www.w3.org/2000/svg">
<metadata></metadata>
<defs>
<font id="garogierregular" horiz-adv-x="500" >
<font-face units-per-em="2048" ascent="1638" descent="-410" />
<missing-glyph horiz-adv-x="500" />
<glyph horiz-adv-x="2048" />
<glyph horiz-adv-x="2048" />
<glyph unicode="&#xd;" horiz-adv-x="390" />
<glyph unicode=" " />
<glyph unicode="!" d="M150 70q0 40 30 70t70 30t70 -30t30 -70t-30 -70t-70 -30t-70 30t-30 70zM150 1300q0 100 100 100t100 -100q-75 -500 -75 -1000h-50q0 500 -75 1000z" />
<glyph unicode="&#x22;" horiz-adv-x="650" d="M75 1300q0 100 100 100t100 -100t-75 -450h-50q-75 350 -75 450zM375 1300q0 100 100 100t100 -100t-75 -450h-50q-75 350 -75 450z" />
<glyph unicode="#" horiz-adv-x="930" d="M75 300l20 150h150l80 400h-145l30 150h145l60 300h50l-60 -300h250l60 300h50l-60 -300h150l-30 -150h-150l-80 -400h150l-30 -150h-150l-60 -300h-50l60 300h-250l-60 -300h-50l60 300h-140zM295 450h250l80 400h-250z" />
<glyph unicode="$" horiz-adv-x="1000" d="M235 52q42 0 106 -36t199 -36t212.5 69.5t77.5 221.5t-260 214.5t-260 162t104.5 126t214.5 0.5t131 -187h42v177q-42 0 -103.5 28t-180.5 28q-157 0 -220 -63t-63 -205.5t259 -204.5t259 -172.5t-110.5 -142.5t-224 0t-141.5 215h-42v-195zM276 -176h60v1072h-60v-1072z M390 -176h60v1072h-60v-1072z" />
<glyph unicode="%" horiz-adv-x="1555" d="M72 856q0 144 78.5 244t191.5 100t191.5 -100t78.5 -244t-78.5 -244t-191.5 -100t-191.5 100t-78.5 244zM162 856q0 -133 48 -222.5t132 -89.5t132 89.5t48 222.5t-48 222.5t-132 89.5t-132 -89.5t-48 -222.5zM250 -30h100l1070 1360h-100zM618 296q0 144 78.5 244 t191.5 100t191.5 -100t78.5 -244t-78.5 -244t-191.5 -100t-191.5 100t-78.5 244zM708 296q0 -133 48 -222.5t132 -89.5t132 89.5t48 222.5t-48 222.5t-132 89.5t-132 -89.5t-48 -222.5z" />
<glyph unicode="&#x26;" horiz-adv-x="1650" d="M100 400q0 -200 125 -315t325 -113.5t450 228.5q230 -230 350 -230t200 120l-20 30q-60 -50 -120 -50t-310 230q240 250 280 400q20 70 170 70v30q-100 0 -150 -5t-100 0t-150 5v-30q150 0 130 -70q-40 -150 -205 -375l-475 475q300 200 225 365t-275 165t-275 -165 t175 -415q-350 -90 -350 -350zM250 414q0 209 225 311l500 -500q-175 -125 -375 -125t-275 85t-75 229zM399.5 1170q49.5 120 160 120t150.5 -155t-135 -310q-225 225 -175.5 345z" />
<glyph unicode="'" horiz-adv-x="350" d="M75 1300q0 100 100 100t100 -100t-75 -450h-50q-75 350 -75 450z" />
<glyph unicode="(" d="M50 450q0 -500 400 -850h50q-320 350 -320 850t320 850h-50q-400 -350 -400 -850z" />
<glyph unicode=")" d="M0 -400q320 350 320 850t-320 850h50q400 -350 400 -850t-400 -850h-50z" />
<glyph unicode="*" horiz-adv-x="749" d="M50 828l35 -61l276 183h-2l-20 -330h70l-20 330h-1l276 -183l35 61l-296 147h1l295 148l-35 60l-275 -182v-1l20 330h-70l20 -330l1 1l-275 182l-35 -60l295 -148h1z" />
<glyph unicode="+" horiz-adv-x="1200" d="M100 350h450v-450h100v450h450v100h-450v450h-100v-450h-450v-100z" />
<glyph unicode="," horiz-adv-x="440" d="M120 70q0 40 30 70t70 30t70 -30t40 -70t10 -70t-10 -75t-60 -102.5t-150 -102.5v30q100 70 120 105t30 75t-40 40t-80 30t-30 70z" />
<glyph unicode="-" horiz-adv-x="700" d="M100 350h500v100h-500v-100z" />
<glyph unicode="." horiz-adv-x="440" d="M120 70q0 40 30 70t70 30t70 -30t30 -70t-30 -70t-70 -30t-70 30t-30 70z" />
<glyph unicode="/" horiz-adv-x="780" d="M0 -300h100l680 1700h-100z" />
<glyph unicode="0" horiz-adv-x="1000" d="M50 400q0 180 130.5 305t319.5 125t319.5 -125t130.5 -305t-130.5 -305t-319.5 -125t-319.5 125t-130.5 305zM200 400q0 -166 80 -278t220 -112t220 112t80 278t-80 278t-220 112t-220 -112t-80 -278z" />
<glyph unicode="1" horiz-adv-x="750" d="M100 0v30q200 0 200 70v600q0 70 -200 70v30q138 0 206.5 -5t137 0t206.5 5v-30q-200 0 -200 -70v-600q0 -70 200 -70v-30q-138 0 -206.5 5t-137 0t-206.5 -5z" />
<glyph unicode="2" horiz-adv-x="1000" d="M120 0v40q320 260 415 360t95 190q0 70 -40 115t-110 45q-90 0 -163.5 -33.5t-116.5 -141.5h-30q30 126 110 190.5t200 64.5q130 0 215 -47.5t85 -172.5q0 -130 -115 -220t-405 -280h420q100 0 115 50t55 120h30q-35 -70 -45 -140t-15 -140h-700z" />
<glyph unicode="3" horiz-adv-x="1000" d="M100 -520q230 10 420 120t190 320q0 160 -95 270t-305 -10l-20 50q260 150 310 245t5 185t-165 90t-260 -180l-30 10q90 250 355 250t257.5 -180t-292.5 -360q160 40 280 -50t120 -240q0 -250 -225 -405t-545 -165v50z" />
<glyph unicode="4" horiz-adv-x="1000" d="M50 0v80q320 450 400 880h120q-210 -560 -480 -880h510v550h150v-550h200v-80h-200v-390h-150v390h-550z" />
<glyph unicode="5" horiz-adv-x="1000" d="M60 -520v-50q320 10 545 165t225 405q0 230 -160 325t-460 95l50 240h550v140h-580l-80 -480q260 0 390 -70t130 -330q0 -210 -190 -320t-420 -120z" />
<glyph unicode="6" horiz-adv-x="1000" d="M100 500q0 300 250 565t520 335v-50q-180 -70 -360 -225t-250 -475q120 100 260 100q180 0 280 -100t100 -275t-100 -290t-300 -115q-190 0 -295 120t-105 410zM250 400q0 -200 75 -295t190 -95t175 95t60 295t-75 255t-155 55q-140 0 -265 -110q-5 -100 -5 -200z" />
<glyph unicode="7" horiz-adv-x="1000" d="M80 525q30 175 30 275h850l-630 -1380h-100q330 650 610 1240h-460q-120 0 -170 -5t-90 -130h-40z" />
<glyph unicode="8" horiz-adv-x="1000" d="M100 320q0 -180 100 -265t300 -85t300 85t100 265q0 210 -310 380q260 160 260 332q0 166 -100 233t-245 67q-155 0 -255 -91t-100 -241q0 -200 210 -340q-260 -130 -260 -340zM250 350q0 200 150 280q350 -150 350 -330q0 -160 -60 -225t-190 -65q-127 0 -188.5 70 t-61.5 270zM270 1020q0 130 55 200t175 70q110 0 170 -55t60 -215t-185 -296q-275 166 -275 296z" />
<glyph unicode="9" horiz-adv-x="1000" d="M100 425q0 175 100 290t300 115q190 0 295 -120t105 -410q0 -300 -250 -565t-520 -335v50q180 70 360 225t250 475q-120 -100 -260 -100q-180 0 -280 100t-100 275zM250 400q0 -200 75 -255t155 -55q140 0 265 110q5 100 5 200q0 200 -75 295t-190 95t-175 -95t-60 -295z " />
<glyph unicode=":" horiz-adv-x="440" d="M120 70q0 40 30 70t70 30t70 -30t30 -70t-30 -70t-70 -30t-70 30t-30 70zM120 730q0 40 30 70t70 30t70 -30t30 -70t-30 -70t-70 -30t-70 30t-30 70z" />
<glyph unicode=";" horiz-adv-x="440" d="M120 70q0 40 30 70t70 30t70 -30t40 -70t10 -70t-10 -75t-60 -102.5t-150 -102.5v30q100 70 120 105t30 75t-40 40t-80 30t-30 70zM120 730q0 40 30 70t70 30t70 -30t30 -70t-30 -70t-70 -30t-70 30t-30 70z" />
<glyph unicode="&#x3c;" horiz-adv-x="1200" d="M100 350l1000 -450v100l-900 400l900 400v100l-1000 -450v-100z" />
<glyph unicode="=" horiz-adv-x="1400" d="M100 150h1200v80h-1200v-80zM100 570h1200v80h-1200v-80z" />
<glyph unicode="&#x3e;" horiz-adv-x="1200" d="M100 0l900 400l-900 400v100l1000 -450v-100l-1000 -450v100z" />
<glyph unicode="?" horiz-adv-x="900" d="M100 1300q0 100 200 100q470 0 470 -450q0 -350 -370 -350q-75 0 -75 -301h-50q-75 401 -55 426t80 25q200 0 290 50t90 182q0 168 -65 243t-183 75q-82 0 -132 -50t-125 -50t-75 100zM200 70q0 40 30 70t70 30t70 -30t30 -70t-30 -70t-70 -30t-70 30t-30 70z" />
<glyph unicode="@" horiz-adv-x="0" />
<glyph unicode="A" horiz-adv-x="1340" d="M-80 0v30q200 0 228 70q92 200 375 1020q38 90 50 180l134 16l6 -16l437 -1200q20 -70 220 -70v-30q-138 0 -206 5q-34 3 -69 3l-69 -3q-68 -5 -206 -5v30q182 0 182 54q0 5 -2 11l-175 475h-460q-60 -170 -147 -470q-3 -9 -3 -16q0 -54 175 -54v-30q-118 0 -176 5 q-29 3 -59 3l-59 -3q-58 -5 -176 -5zM379 610h432l-216 610z" />
<glyph unicode="B" horiz-adv-x="1230" d="M50 0v30q200 0 200 70v1100q0 70 -200 70v30l220 5q89 5 168 5q612 0 612 -310q0 -275 -340 -300q440 -25 440 -350q0 -360 -646 -360q-73 0 -154 5zM400 40q600 0 600 317.5t-455 317.5h-145v-635zM400 725h140q360 1 360 273q0 268 -482 267h-18v-540z" />
<glyph unicode="C" horiz-adv-x="1310" d="M70 650q0 -250 170 -465t510 -215q350 0 490 280l-10 20q-150 -260 -480 -260q-510 0 -510 640t510 640q300 0 410 -270h50l-40 230q-100 0 -175 40t-245 40q-340 0 -510 -215t-170 -465z" />
<glyph unicode="D" horiz-adv-x="1430" d="M50 0v30q200 0 200 70v1100q0 70 -200 70v30q167 8 310 8q287 0 480 -33q510 -125 510 -625t-510 -625q-193 -33 -480 -33q-143 0 -310 8zM400 40q800 0 800 610t-800 610v-1220z" />
<glyph unicode="E" horiz-adv-x="1280" d="M50 0v30q200 0 200 70v1100q0 70 -200 70v30q162 0 218 -5q28 -3 57 -3l57 3q56 5 168 5h540q0 -100 30 -245h-40q-40 125 -90 165t-170 40h-420v-560h400q70 0 70 125h30q0 -75 -5 -113q-2 -19 -2.5 -37.5t2.5 -36.5q5 -38 5 -113h-30q0 125 -70 125h-400v-610h500 q120 0 170 55t90 180h40q-30 -175 -30 -275h-620q-112 0 -168 5q-28 3 -57 3l-57 -3q-56 -5 -218 -5z" />
<glyph unicode="F" horiz-adv-x="1120" d="M50 0v30q200 0 200 70v1100q0 70 -200 70v30q162 0 218 -5q28 -3 57 -3l57 3q56 5 168 5h540q0 -100 30 -245h-40q-40 125 -90 165t-170 40h-420v-560h400q70 0 70 125h30q0 -75 -5 -113q-2 -19 -2.5 -37.5t2.5 -36.5q5 -38 5 -113h-30q0 125 -70 125h-400v-550 q0 -70 200 -70v-30q-138 0 -206 5q-34 3 -69 3l-69 -3q-68 -5 -206 -5z" />
<glyph unicode="G" horiz-adv-x="1430" d="M50 650q0 -250 170 -465t510 -215q177 0 348.5 75t171.5 185v240q0 70 160 70v30q-138 0 -206 -5q-35 -3 -69 -3l-69 3q-68 5 -206 5v-30q240 0 240 -70v-180q0 -130 -100 -205t-270 -75q-510 0 -510 640t510 640q300 0 410 -270h50l-40 230q-100 0 -175 40t-245 40 q-340 0 -510 -215t-170 -465z" />
<glyph unicode="H" horiz-adv-x="1550" d="M50 0v30q200 0 200 70v1100q0 70 -200 70v30q138 0 206 -5q34 -2 69 -2.5t69 2.5q69 5 206 5v-30q-200 0 -200 -70v-500h750v500q0 70 -200 70v30q138 0 206 -5q34 -2 69 -2.5t69 2.5q69 5 206 5v-30q-200 0 -200 -70v-1100q0 -70 200 -70v-30q-137 0 -206 5q-34 2 -68 3 q-36 0 -70 -3q-68 -5 -206 -5v30q200 0 200 70v550h-750v-550q0 -70 200 -70v-30q-137 0 -206 5q-34 2 -68 3q-36 0 -70 -3q-68 -5 -206 -5z" />
<glyph unicode="I" horiz-adv-x="650" d="M50 0v30q200 0 200 70v1100q0 70 -200 70v30q138 0 206 -5q34 -3 69 -3l69 3q68 5 206 5v-30q-200 0 -200 -70v-1100q0 -70 200 -70v-30q-138 0 -206 5q-34 3 -69 3l-69 -3q-68 -5 -206 -5z" />
<glyph unicode="J" horiz-adv-x="625" d="M-200 -415q0 85 65 85t100 -50t110 -50t125 140t50 390v1100q0 70 -200 70v30q138 0 206 -5q35 -3 69 -3l69 3q68 5 206 5v-30q-200 0 -200 -70v-900q0 -450 -125 -625t-300 -175t-175 85z" />
<glyph unicode="K" horiz-adv-x="1430" d="M50 0v30q200 0 200 70v1100q0 70 -200 70v30q138 0 206 -5q34 -3 69 -3l69 3q68 5 206 5v-30q-200 0 -200 -70v-1100q0 -70 200 -70v-30q-138 0 -206 5q-34 3 -69 3l-69 -3q-68 -5 -206 -5zM400 670l596 530q25 21 25 35q0 35 -141 35v30q110 0 165 -5q28 -3 55 -3l55 3 q55 5 165 5v-30q-170 0 -254 -70l-540 -486l683 -614q81 -70 221 -70v-30q-132 0 -198 5q-33 3 -67 3l-67 -3q-66 -5 -198 -5v30q142 0 142 35q0 14 -23 35z" />
<glyph unicode="L" horiz-adv-x="1250" d="M50 0v30q200 0 200 70v1100q0 70 -200 70v30q138 0 206 -5q34 -3 69 -3l69 3q68 5 206 5v-30q-200 0 -200 -70v-1160h500q120 0 170 55t90 180h40q-30 -175 -30 -275h-620q-112 0 -168 5q-28 3 -57 3l-57 -3q-56 -5 -218 -5z" />
<glyph unicode="M" horiz-adv-x="1830" d="M50 0v30q200 0 200 70q0 200 20 1100q0 70 -200 70v30h380l530 -1130l450 1130h350v-30q-200 0 -200 -70v-1100q0 -70 200 -70v-30q-138 0 -206 5q-34 3 -69 3l-69 -3q-68 -5 -206 -5v30q200 0 200 70v1100l-25 -51l-445 -1149h-80l-560 1200v-1100q0 -70 200 -70v-30 q-118 0 -176 5q-29 3 -59 3l-59 -3q-58 -5 -176 -5z" />
<glyph unicode="N" horiz-adv-x="1510" d="M50 0q136 0 178 5q21 3 42 3l42 -3q42 -5 178 -5v30q-200 0 -200 70v1000l1000 -1100h20v1200q0 70 200 70v30q-136 0 -178 -5q-21 -3 -42 -3l-42 3q-42 5 -178 5v-30q200 0 200 -70v-900l-909 1000h-311v-50q200 0 200 -161v-989q0 -70 -200 -70v-30z" />
<glyph unicode="O" horiz-adv-x="1460" d="M80 650q0 300 175 490t475 190t475 -190t175 -490t-175 -490t-475 -190t-475 190t-175 490zM250 647.5q0 -272.5 127.5 -450t352.5 -177.5t352.5 177.5t127.5 450t-127.5 452.5t-352.5 180t-352.5 -180t-127.5 -452.5z" />
<glyph unicode="P" horiz-adv-x="1180" d="M50 0v30q200 0 200 70v1100q0 70 -200 70v30l250 5q79 4 150 4q650 0 650 -369q0 -374 -581 -374q-57 0 -119 4v-470q0 -70 200 -70v-30q-137 0 -206 5q-34 2 -68 3q-36 0 -70 -3q-68 -5 -206 -5zM400 610q550 1 550 328t-550 327v-655z" />
<glyph unicode="Q" horiz-adv-x="1460" d="M80 650q0 300 175 490t475 190t475 -190t175 -490t-175 -490t-475 -190q-49 -42 -190 -100q240 -80 405 -100q33 -4 69 -4q146 0 346 64v-50q-287 -93 -490 -93q-101 0 -182 23q-242 70 -469 70v48q296 47 436 142q-225 0 -400 190t-175 490zM250 647.5 q0 -272.5 127.5 -450t352.5 -177.5t352.5 177.5t127.5 450t-127.5 452.5t-352.5 180t-352.5 -180t-127.5 -452.5z" />
<glyph unicode="R" horiz-adv-x="1370" d="M50 0v30q200 0 200 70v1100q0 70 -200 70v30l250 5q81 5 154 5q646 0 646 -360q0 -300 -290 -360q160 -240 277.5 -390t282.5 -170v-30q-145 -10 -220 -10t-197.5 155t-292.5 430q-160 0 -260 5v-480q0 -70 200 -70v-30q-137 0 -206 5q-34 2 -68 3q-36 0 -70 -3 q-68 -5 -206 -5zM400 610q550 1 550 328t-550 332v-660z" />
<glyph unicode="S" horiz-adv-x="1090" d="M120 100q60 0 151.5 -65t284 -65t303.5 118t111 344t-371.5 324.5t-371.5 272.5t149 230q75 28 153 28q75 0 153 -27q158 -55 188 -310h60v280q-60 0 -147.5 50t-257.5 50q-225 0 -315 -105.5t-90 -316t370 -308.5t370 -289t-158 -259q-79 -34 -158 -34q-80 0 -162 34 q-162 68 -202 358h-60v-310z" />
<glyph unicode="T" horiz-adv-x="1310" d="M30 1055q30 145 30 245h1190q0 -100 30 -245h-40q-40 125 -90 165t-170 40h-250v-1160q0 -70 200 -70v-30q-138 0 -206 5q-34 3 -69 3l-69 -3q-68 -5 -206 -5v30q200 0 200 70v1160h-250q-120 0 -170 -40t-90 -165h-40z" />
<glyph unicode="U" horiz-adv-x="1420" d="M30 1270v30q138 0 206 -5q34 -3 69 -3l69 3q68 5 206 5v-30q-200 0 -200 -70v-800q0 -200 97.5 -285t272.5 -85t272.5 85t97.5 285v800q0 70 -200 70v30q118 0 176 -5q29 -3 59 -3l59 3q58 5 176 5v-30q-200 0 -200 -70v-800q-10 -220 -140 -325t-330 -105t-345 90 t-145 340v800q0 70 -200 70z" />
<glyph unicode="V" horiz-adv-x="1270" d="M-50 1271v30q162 0 218 -5q28 -2 56.5 -2t56.5 2q56 5 219 5v-30q-181 0 -181 -55q0 -5 2 -10l389 -1011l215 536q60 170 147 470q3 8 3 15q0 55 -175 55v30q142 0 188 -5q23 -2 47 -2l47 2q46 5 188 5v-30q-203 0 -228 -70q-92 -200 -400 -1020q-38 -90 -76 -181h-34 l-462 1201q-17 70 -220 70z" />
<glyph unicode="W" horiz-adv-x="1740" d="M-50 1270q203 0 225 -70l457 -1200h34q38 91 76 180l148 377l212 -557h34q38 91 76 180q308 821 400 1020q25 70 228 70v30q-112 0 -168 -5q-28 -3 -57 -3l-57 3q-56 5 -168 5v-30q155 0 155 -54q0 -8 -3 -16q-87 -299 -147 -469l-215 -536l-212 555q82 251 174 450 q25 70 168 70v30q-86 0 -128 -5q-21 -3 -42 -3l-42 3q-42 5 -128 5v-30q106 0 106 -49q0 -10 -4 -21q-92 -299 -124 -397l-152 397q-4 11 -4 20q0 50 108 50v30q-100 0 -150 -5q-25 -3 -50 -3l-50 3q-50 5 -150 5v-30q123 0 145 -70l228 -599l-163 -406l-384 1005 q-4 11 -4 20q0 50 108 50v30q-120 0 -180 -5q-30 -3 -60 -3l-60 3q-60 5 -180 5v-30z" />
<glyph unicode="X" horiz-adv-x="1325" d="M30 0v30q200 0 240 70l335 538l-322 562q-53 70 -253 70v30q160 0 215 -5q28 -2 59 -2.5t66 2.5q70 5 230 5v-30q-158 0 -158 -44q0 -12 11 -26l240 -419l261 419q9 13 9 24q0 46 -163 46v30q138 0 182 -5q22 -2 44 -3q24 0 48 3q48 5 186 5v-30q-200 0 -246 -70 l-292 -470l361 -630q42 -70 242 -70v-30q-160 0 -230 5q-35 2 -66 2.5t-59 -2.5q-55 -5 -215 -5v30q165 0 165 48q0 10 -7 22l-279 488l-304 -488q-7 -12 -7 -21q0 -49 167 -49v-30q-138 0 -186 5q-24 2 -48 3q-22 0 -44 -3q-44 -5 -182 -5z" />
<glyph unicode="Y" horiz-adv-x="1240" d="M-50 1270v30q142 0 214 -5q35 -3 71 -3l71 3q72 5 214 5v-30q-159 0 -159 -44q0 -12 10 -26l347 -505l316 505q9 13 9 24q0 46 -163 46v30q138 0 182 -5q21 -3 44 -3t48 3q48 5 186 5v-30q-200 0 -246 -70l-344 -550v-550q0 -70 200 -70v-30q-138 0 -206 5q-35 3 -69 3 l-69 -3q-68 -5 -206 -5v30q200 0 200 70v490l-399 610q-51 70 -251 70z" />
<glyph unicode="Z" horiz-adv-x="1250" d="M80 0h1060q0 100 50 275h-40q-50 -125 -105 -180t-175 -55h-600l900 1220v40h-910q-70 0 -70 100h-30q-10 -70 -27.5 -150t-52.5 -170h40q50 90 80 135t110 45h670l-900 -1220v-40z" />
<glyph unicode="[" horiz-adv-x="470" d="M100 -400h370v30q-250 0 -250 70v1500q-20 70 250 70v30h-370v-1700z" />
<glyph unicode="\" horiz-adv-x="780" d="M0 1400l680 -1700h100l-680 1700h-100z" />
<glyph unicode="]" horiz-adv-x="470" d="M0 -370q250 0 250 70v1500q20 70 -250 70v30h370v-1700h-370v30z" />
<glyph unicode="^" horiz-adv-x="900" d="M50 830l40 -30l360 450l360 -450l40 30l-400 500z" />
<glyph unicode="_" horiz-adv-x="1200" d="M0 -150v-80h1200v80h-1200z" />
<glyph unicode="`" d="M50 1280l130 50l200 -330h-50z" />
<glyph unicode="a" horiz-adv-x="820" d="M80 130q0 150 450 320v158q0 162 -130 162t-175 -140t-95 -140t-50 50t125 170t225 120t160 -64.5t60 -151.5v-544q0 -24 18 -24q26 0 92 54l20 -20q-53 -100 -150 -100q-80 0 -100 90q-100 -90 -259 -90q-191 0 -191 150zM210 160q0 -120 110 -120t210 70v300 q-320 -130 -320 -250z" />
<glyph unicode="b" horiz-adv-x="990" d="M-20 1270v30q75 10 132.5 35t107.5 65h30v-670q100 100 275 100t285 -115t110 -315t-110 -315t-285 -115t-295 70q-20 -30 -70 -70h-30v1200q0 70 -47.5 85t-102.5 15zM250 190q0 -60 75 -120t190 -60t190 110t75 250q0 200 -115 300q-105 91 -197 91q-9 0 -18 -1 q-100 -10 -200 -70v-500z" />
<glyph unicode="c" horiz-adv-x="870" d="M70 409.5q0 190.5 125 305.5t265 115q170 0 245 -70q47 -44 47 -76q0 -19 -17 -34q-14 -12 -30 -12q-35 0 -80 62q-65 90 -145 90q-150 0 -215 -120t-65 -270t85 -235t185 -85q150 0 320 170l30 -20q-170 -260 -380 -260q-150 0 -260 124.5t-110 315z" />
<glyph unicode="d" horiz-adv-x="1030" d="M70 400q0 200 110 315t285 115t275 -100v440q0 70 -47.5 85t-102.5 15v30q75 10 132.5 35t107.5 65h30v-1260q0 -80 150 -80v-30q-75 -10 -132.5 -20t-107.5 -40h-30v100q-100 -100 -275 -100t-285 115t-110 315zM210 430q0 -200 115 -300q105 -91 197 -91q9 0 18 1 q100 10 200 70v470q0 60 -75 135t-190 75t-190 -110t-75 -250z" />
<glyph unicode="e" horiz-adv-x="910" d="M80 400q0 200 130 315t260 115q170 0 265 -95t95 -235h-630q0 -220 85 -315t185 -95q150 0 330 160l30 -20q-170 -260 -380 -260q-150 0 -260 124.5t-110 305.5zM200 540h500q0 100 -63 175t-147 75q-150 0 -220 -80t-70 -170z" />
<glyph unicode="f" horiz-adv-x="520" d="M20 0v30q150 0 150 70v630h-150q0 50 80 60t80 80q0 210 120 370t245 160t165 -30t40 -70t-40 -60q-16 -8 -34 -8q-28 0 -61 18q-55 30 -140 40q-14 2 -27 2q-66 0 -108 -42q-50 -50 -50 -220v-230h200v-70h-200v-630q0 -70 150 -70v-30q-105 0 -158 5q-26 3 -52 3 l-52 -3q-53 -5 -158 -5z" />
<glyph unicode="g" horiz-adv-x="920" d="M20 -260q0 110 230 220q-180 70 -180 155t250 105q-69 20 -139.5 100t-70.5 195q0 132 96 223.5t234 91.5q109 0 190 -56q60 -23 123 -23q57 0 117 19v-110q-114 1 -153 29q52 -73 53 -174q0 -131 -95 -223t-235 -92q-260 0 -260 -80t295 -80t370 -80t75 -195 t-127.5 -200t-322.5 -85t-322.5 75t-127.5 185zM140 -260q0 -110 105 -165t225 -55t245 65t125 180t-139 135t-427 20q-134 -70 -134 -180zM230 515q0 -121 56 -198t155 -77t154 77t55 198q0 122 -55 198.5t-155 76.5q-98 0 -154 -76.5t-56 -198.5z" />
<glyph unicode="h" horiz-adv-x="1010" d="M20 0v30q150 0 150 70v1070q0 70 -47.5 85t-102.5 15v30q75 10 132.5 35t107.5 65h30v-760q131 190 280 190q100 0 185 -65t85 -215v-450q0 -70 150 -70v-30q-106 0 -158 5q-26 3 -52 3l-52 -3q-52 -5 -158 -5v30q150 0 150 70v350q0 180 -59 230t-171 50 q-100 0 -200 -140v-490q0 -70 150 -70v-30q-106 0 -158 5q-26 3 -52 3l-52 -3q-52 -5 -158 -5z" />
<glyph unicode="i" horiz-adv-x="480" d="M40 0v30q150 0 150 70v490q0 40 -40 57.5t-110 22.5v30q80 10 145 47.5t95 72.5h30v-720q0 -70 150 -70v-30q-106 0 -158 5q-26 3 -52 3l-52 -3q-52 -5 -158 -5zM148 1200q0 35 26.5 61.5t61.5 26.5t61.5 -26.5t26.5 -61.5t-26.5 -61.5t-61.5 -26.5t-61.5 26.5 t-26.5 61.5z" />
<glyph unicode="j" horiz-adv-x="435" d="M10 -475q190 175 190 575v490q0 40 -40 57.5t-110 22.5v30q80 10 145 47.5t95 72.5h30v-720q0 -400 -285 -600zM158 1200q0 35 26.5 61.5t61.5 26.5t61.5 -26.5t26.5 -61.5t-26.5 -61.5t-61.5 -26.5t-61.5 26.5t-26.5 61.5z" />
<glyph unicode="k" horiz-adv-x="1060" d="M20 0v30q150 0 150 70v1070q0 70 -47.5 85t-102.5 15v30q75 10 132.5 35t107.5 65h30v-1000l385 300q37 27 37 44q0 26 -92 26v30q90 0 135 -5q22 -3 45 -3l45 3q45 5 135 5v-30q-150 0 -245 -70l-255 -200l355 -400q75 -70 225 -70v-30q-110 0 -165 5q-28 3 -55 3 l-55 -3q-55 -5 -165 -5v30q100 0 100 31q0 16 -25 39l-295 336l-110 -86v-250q0 -70 150 -70v-30q-106 0 -158 5q-26 3 -52 3l-52 -3q-52 -5 -158 -5z" />
<glyph unicode="l" horiz-adv-x="460" d="M20 0v30q150 0 150 70v1070q0 70 -47.5 85t-102.5 15v30q75 10 132.5 35t107.5 65h30v-1300q0 -70 150 -70v-30q-106 0 -158 5q-26 3 -52 3l-52 -3q-52 -5 -158 -5z" />
<glyph unicode="m" horiz-adv-x="1590" d="M50 0v30q150 0 150 70v490q0 40 -40 57.5t-110 22.5v30q80 10 145 47.5t95 72.5h30v-180q131 190 280 190q100 0 185 -65q60 -46 78 -135q138 200 287 200q100 0 185 -65t85 -215v-450q0 -70 150 -70v-30q-106 0 -158 5q-26 3 -52 3l-52 -3q-52 -5 -158 -5v30 q150 0 150 70v350q0 186 -59 233t-171 47q-100 0 -202 -143q2 -17 2 -37v-450q0 -70 150 -70v-30q-106 0 -158 5q-26 3 -52 3l-52 -3q-52 -5 -158 -5v30q150 0 150 70v350q0 186 -59 233t-171 47q-100 0 -200 -140v-490q0 -70 150 -70v-30q-106 0 -158 5q-26 3 -52 3l-52 -3 q-52 -5 -158 -5z" />
<glyph unicode="n" horiz-adv-x="1040" d="M50 0v30q150 0 150 70v490q0 40 -40 57.5t-110 22.5v30q80 10 145 47.5t95 72.5h30v-180q131 190 280 190q100 0 185 -65t85 -215v-450q0 -70 150 -70v-30q-106 0 -158 5q-26 3 -52 3l-52 -3q-52 -5 -158 -5v30q150 0 150 70v350q0 180 -59 230t-171 50q-100 0 -200 -140 v-490q0 -70 150 -70v-30q-106 0 -158 5q-26 3 -52 3l-52 -3q-52 -5 -158 -5z" />
<glyph unicode="o" horiz-adv-x="1040" d="M70 400q0 180 130 305t320 125t320 -125t130 -305t-130 -305t-320 -125t-320 125t-130 305zM205 400q0 -166 90 -278t225 -112t225 112t90 278t-90 278t-225 112t-225 -112t-90 -278z" />
<glyph unicode="p" horiz-adv-x="1040" d="M30 -500q150 0 150 70v1020q0 40 -40 57.5t-110 22.5v30q80 10 145 47.5t95 72.5h30v-90q100 100 275 100t285 -115t110 -315t-110 -315t-285 -115t-275 70v-470q0 -70 150 -70v-30q-105 0 -158 5q-26 3 -52 3l-52 -3q-53 -5 -158 -5v30zM300 190q0 -60 75 -120t190 -60 t190 110t75 250q0 200 -115 300q-105 91 -197 91q-9 0 -18 -1q-100 -10 -200 -70v-500z" />
<glyph unicode="q" horiz-adv-x="960" d="M70 400q0 200 110 315t285 115t295 -70q20 30 70 70h30v-1260q0 -70 150 -70v-30q-105 0 -158 5q-26 3 -52 3l-52 -3q-53 -5 -158 -5v30q150 0 150 70v400v100q-100 -100 -275 -100t-285 115t-110 315zM210 430q0 -200 115 -300q105 -91 197 -91q9 0 18 1q100 10 200 70 v500q0 60 -75 120t-190 60t-190 -110t-75 -250z" />
<glyph unicode="r" horiz-adv-x="700" d="M40 0v30q150 0 150 70v490q0 40 -40 57.5t-110 22.5v30q80 10 145 47.5t95 72.5h30v-230q80 240 215 240t135 -80t-35 -95q-12 -5 -24 -5q-26 0 -56 20q-45 30 -105 35h-3q-59 0 -127 -165v-440q0 -70 150 -70v-30q-106 0 -158 5q-26 3 -52 3l-52 -3q-52 -5 -158 -5z" />
<glyph unicode="s" horiz-adv-x="770" d="M100 30v230h40q20 -160 132 -210q68 -30 128 -30q38 0 78 15q92 35 92 147.5t-235 175t-235 202.5t65 200t205 60t190 -30t90 -30v-180h-40q-20 160 -128 190q-36 10 -107 10t-87 -5q-88 -25 -88 -127.5t235 -165t235 -212.5t-77.5 -220t-200 -70t-187.5 25t-105 25z" />
<glyph unicode="t" horiz-adv-x="620" d="M20 730v50q100 0 165 75t95 195h40v-250h230v-70h-230v-577q0 -93 90 -93t165 75l25 -25q-90 -130 -200 -130t-160 50t-50 173v527h-170z" />
<glyph unicode="u" horiz-adv-x="990" d="M20 710v30q75 10 117.5 25t102.5 55h30v-470q0 -180 59 -230t171 -50q100 0 200 140v400q0 70 -37.5 85t-92.5 15v30q75 10 117.5 25t102.5 55h30v-680q0 -80 150 -80v-30q-75 -10 -132.5 -20t-107.5 -40h-30v190q-131 -190 -280 -190q-100 0 -185 65t-85 215v360 q0 70 -37.5 85t-92.5 15z" />
<glyph unicode="v" horiz-adv-x="960" d="M-30 770v30q110 0 165 -5q28 -3 55 -3l55 3q55 5 165 5v-30q-126 0 -126 -49q0 -10 5 -21l248 -563l227 563q4 10 4 19q0 51 -128 51v30q88 0 132 -5q22 -3 43 -3l43 3q44 5 132 5v-30q-150 0 -176 -70l-294 -730h-50l-321 730q-29 70 -179 70z" />
<glyph unicode="w" horiz-adv-x="1410" d="M-30 770v30q96 0 144 -5q24 -2 48.5 -2.5t48.5 2.5q48 5 144 5v-30q-73 0 -73 -41q0 -13 7 -29l241 -580l155 387l-86 193q-29 70 -124 70v30q110 0 165 -5q28 -3 55 -3l55 3q55 5 165 5v-30q-180 0 -180 -54q0 -8 4 -16l248 -563l227 563q3 8 3 15q0 55 -182 55v30 q101 0 152 -5q26 -2 51 -3q24 0 50 3q50 5 152 5v-30q-150 0 -176 -70l-294 -730h-50l-209 475l-191 -475h-50l-321 730q-29 70 -179 70z" />
<glyph unicode="x" horiz-adv-x="985" d="M20 0v30q150 0 204 70l220 287l-221 313q-53 70 -203 70v30q110 0 165 -5q28 -3 55 -3l55 3q55 5 165 5v-30q-111 0 -111 -38q0 -14 14 -32l153 -218l167 218q16 19 16 33q0 37 -109 37v30q88 0 132 -5q22 -3 43 -3l43 3q44 5 132 5v-30q-150 0 -207 -70l-192 -252 l245 -348q49 -70 199 -70v-30q-110 0 -165 5q-28 3 -55 3l-55 -3q-55 -5 -165 -5v30q113 0 113 40q0 13 -12 30l-178 253l-194 -253q-14 -19 -14 -32q0 -38 110 -38v-30q-88 0 -132 5q-22 3 -43 3l-43 -3q-44 -5 -132 -5z" />
<glyph unicode="y" horiz-adv-x="960" d="M-30 770v30q110 0 165 -5q27 -3 55 -3l55 3q55 5 165 5v-30q-126 0 -126 -49q0 -10 5 -21l241 -580l234 580q4 10 4 19q0 51 -128 51v30q88 0 132 -5q21 -3 43 -3l43 3q44 5 132 5v-30q-150 0 -176 -70l-424 -1050q-45 -110 -95 -130t-95 -20q-40 0 -75 25q-20 15 -20 41 q0 19 10 44q17 41 62 41q21 0 48 -9q16 -5 32 -5q65 0 115 93l98 240l-321 730q-29 70 -179 70z" />
<glyph unicode="z" horiz-adv-x="880" d="M50 0v40l640 720h-540q-20 -60 -60 -130h-40q35 70 52.5 135t27.5 135h40q-1 -8 -1 -15q0 -85 111 -85h570v-40l-640 -720h420q100 0 120 40t60 110h40q-35 -70 -42.5 -110t-17.5 -110h-30q0 30 -90 30h-620z" />
<glyph unicode="{" horiz-adv-x="600" d="M50 430q330 -30 240 -405t310 -445v40q-250 40 -185 405t-265 425q330 60 265 425t185 405v40q-400 -70 -310 -445t-240 -405v-40z" />
<glyph unicode="|" d="M200 -400h100v1950h-100v-1950z" />
<glyph unicode="}" horiz-adv-x="600" d="M0 -380q250 40 185 405t265 425q-330 60 -265 425t-185 405v40q400 -70 310 -445t240 -405v-40q-330 -30 -240 -405t-310 -445v40z" />
<glyph unicode="~" horiz-adv-x="1400" d="M100 310l50 -25q150 145 240 145q100 0 260 -70t300 -70q190 0 350 200l-50 25q-150 -145 -240 -145q-100 0 -260 70t-300 70q-190 0 -350 -200z" />
<glyph unicode="&#xa1;" d="M150 -450q75 500 75 1000h50q0 -500 75 -1000q0 -100 -100 -100t-100 100zM150 730q0 40 30 70t70 30t70 -30t30 -70t-30 -70t-70 -30t-70 30t-30 70z" />
<glyph unicode="&#xa2;" horiz-adv-x="636" />
<glyph unicode="&#xa3;" horiz-adv-x="636" />
<glyph unicode="&#xa4;" horiz-adv-x="420" />
<glyph unicode="&#xa5;" horiz-adv-x="636" />
<glyph unicode="&#xa6;" horiz-adv-x="201" />
<glyph unicode="&#xa7;" horiz-adv-x="420" />
<glyph unicode="&#xa8;" d="M-50 1150q0 35 26.5 61.5t61.5 26.5t61.5 -26.5t26.5 -61.5t-26.5 -61.5t-61.5 -26.5t-61.5 26.5t-26.5 61.5zM376 1150q0 35 26.5 61.5t61.5 26.5t61.5 -26.5t26.5 -61.5t-26.5 -61.5t-61.5 -26.5t-61.5 26.5t-26.5 61.5z" />
<glyph unicode="&#xa9;" horiz-adv-x="714" />
<glyph unicode="&#xaa;" horiz-adv-x="402" />
<glyph unicode="&#xab;" horiz-adv-x="540" />
<glyph unicode="&#xac;" horiz-adv-x="1395" />
<glyph unicode="&#xad;" horiz-adv-x="700" d="M100 350h500v100h-500v-100z" />
<glyph unicode="&#xae;" horiz-adv-x="747" />
<glyph unicode="&#xaf;" d="M0 1100h500v100h-500v-100z" />
<glyph unicode="&#xb0;" horiz-adv-x="285" />
<glyph unicode="&#xb1;" horiz-adv-x="636" />
<glyph unicode="&#xb2;" horiz-adv-x="300" />
<glyph unicode="&#xb3;" horiz-adv-x="300" />
<glyph unicode="&#xb4;" d="M150 1000h50l280 280l-130 50z" />
<glyph unicode="&#xb6;" horiz-adv-x="450" />
<glyph unicode="&#xb7;" horiz-adv-x="207" />
<glyph unicode="&#xb8;" horiz-adv-x="321" />
<glyph unicode="&#xb9;" horiz-adv-x="300" />
<glyph unicode="&#xba;" horiz-adv-x="402" />
<glyph unicode="&#xbb;" horiz-adv-x="540" />
<glyph unicode="&#xbc;" horiz-adv-x="786" />
<glyph unicode="&#xbd;" horiz-adv-x="786" />
<glyph unicode="&#xbe;" horiz-adv-x="786" />
<glyph unicode="&#xbf;" horiz-adv-x="900" d="M130 -100q0 350 370 350q75 0 75 301h50q75 -401 55 -426t-80 -25q-200 0 -290 -50t-90 -182q0 -168 65 -243t183 -75q82 0 132 50t125 50t75 -100t-200 -100q-470 0 -470 450zM500 730q0 40 30 70t70 30t70 -30t30 -70t-30 -70t-70 -30t-70 30t-30 70z" />
<glyph unicode="&#xc6;" horiz-adv-x="1900" d="M-50 0v30q203 0 243 70q97 200 577 1020q100 150 -100 150v30h1040q0 -100 30 -245h-40q-40 125 -90 165t-170 40h-420v-560h400q70 0 70 125h30q0 -75 -5 -112.5t0 -75t5 -112.5h-30q0 125 -70 125h-400v-610h500q120 0 170 55t90 180h40q-30 -175 -30 -275h-620 q-112 0 -168.5 5t-113 0t-218.5 -5v30q200 0 200 70v470h-355q-96 -170 -252 -470q-40 -70 157 -70v-30q-118 0 -176.5 5t-117 0t-176.5 -5zM530 610h340v610z" />
<glyph unicode="&#xd0;" horiz-adv-x="1460" d="M80 0v30q200 0 200 70v550h-200v40h200v510q0 70 -200 70v30q500 25 790 -25q510 -125 510 -625t-510 -625q-290 -50 -790 -25zM430 40q800 0 800 610t-800 610v-570h300v-40h-300v-610z" />
<glyph unicode="&#xd7;" horiz-adv-x="636" />
<glyph unicode="&#xd8;" horiz-adv-x="1540" d="M120 0l1230 1330l70 -30l-1230 -1330zM120 650q0 300 175 490t475 190t475 -190t175 -490t-175 -490t-475 -190t-475 190t-175 490zM290 647.5q0 -272.5 127.5 -450t352.5 -177.5t352.5 177.5t127.5 450t-127.5 452.5t-352.5 180t-352.5 -180t-127.5 -452.5z" />
<glyph unicode="&#xde;" horiz-adv-x="1150" d="M50 0v30q200 0 200 70v1100q0 70 -200 70v30q138 0 206.5 -5t137.5 0t206 5v-30q-200 0 -200 -70v-180q700 40 700 -370t-700 -370v-180q0 -70 200 -70v-30q-137 0 -206 5t-137.5 0t-206.5 -5zM400 320q550 1 550 328t-550 332v-660z" />
<glyph unicode="&#xdf;" horiz-adv-x="1020" d="M20 0v30q150 0 150 70v630h-150q0 50 80 60t80 80q0 210 120 370t260 160t245 -135t105 -320t-205 -180t-205 -107.5t235 -175t235 -212.5t-77.5 -220t-200 -70t-202.5 50l10 30q100 -42 191 -42q44 0 87 17q92 35 92 147.5t-235 175t-235 202.5t65 200t195 50t135 140 t-85 250t-205 100t-165 -50t-50 -220v-930q0 -70 150 -70v-30q-105 0 -157.5 5t-105 0t-157.5 -5z" />
<glyph unicode="&#xe6;" horiz-adv-x="1320" d="M100 130q0 150 450 320v158q0 162 -130 162t-175 -140t-95 -140t-50 50t125 170t225 120t172 -128q118 128 268 128q170 0 265 -95t95 -235h-580q0 -220 60 -315t160 -95q150 0 330 160l30 -20q-170 -260 -380 -260q-150 0 -260 155q-160 -145 -319 -145q-191 0 -191 150 zM230 160q0 -120 110 -120t255 110q-45 100 -45 260q-320 -130 -320 -250zM670 540h450q0 100 -63 180t-147 80q-150 0 -195 -85t-45 -175z" />
<glyph unicode="&#xf0;" horiz-adv-x="1040" d="M70 400q0 180 130 305t320 125q150 0 290 -110q-103 276 -246 403l-284 -193l-30 50l273 184q-101 103 -283 206l30 60q198 -105 330 -214l170 114l30 -50l-149 -100q99 -95 209 -287.5t110 -492.5q0 -180 -130 -305t-320 -125t-320 125t-130 305zM205 400 q0 -166 90 -283t225 -117t225 117t90 283t-20 280q-160 90 -295 90t-225 -102t-90 -268z" />
<glyph unicode="&#xf7;" horiz-adv-x="636" />
<glyph unicode="&#xf8;" horiz-adv-x="1040" d="M70 0l112 113q-112 120 -112 293.5t130 298.5t307.5 125t297.5 -95l95 95l70 -30l-113 -113q113 -120 113 -293.5t-130 -298.5t-308 -125t-297 95l-95 -95zM205 422.5q0 -143.5 48 -239.5l495 495q-93 122 -228 122t-225 -117t-90 -260.5zM291 122q94 -122 229 -122 t225 117t90 260.5t-48 239.5z" />
<glyph unicode="&#xfe;" horiz-adv-x="990" d="M-20 -501q150 0 150 70v1601q0 70 -47.5 85t-102.5 15v30q75 10 132.5 35t107.5 65h30v-671q100 100 275 100t285 -115t110 -315t-110 -315t-285 -115t-275 70v-470q0 -70 150 -70v-30q-105 0 -157.5 5t-105 0t-157.5 -5v30zM250 189q0 -60 75 -120t190 -60t190 110 t75 250q0 200 -115 300t-215 90t-200 -70v-500z" />
<glyph unicode="&#x152;" horiz-adv-x="1960" d="M80 650q0 300 175 485t475 185q100 0 187.5 -15t144 -10t168.5 5h540q0 -100 30 -245h-40q-40 125 -90 165t-170 40h-420v-560h400q70 0 70 125h30q0 -75 -5 -112.5t0 -75t5 -112.5h-30q0 125 -70 125h-400v-610h500q120 0 170 55t90 180h40q-30 -175 -30 -275h-620 q-112 0 -168.5 5t-144 -10t-187.5 -15q-300 0 -475 185t-175 485zM250 650q0 -275 127.5 -447.5t352.5 -172.5q125 0 200 50v1140q-75 50 -200 50q-225 0 -352.5 -175t-127.5 -445z" />
<glyph unicode="&#x153;" horiz-adv-x="1610" d="M70 400q0 -180 130 -305t320 -125t340 180q150 -180 300 -180q210 0 380 260l-30 20q-180 -160 -330 -160q-100 0 -185 95t-85 315h630q0 140 -95 235t-265 95t-320 -180q-150 180 -340 180t-320 -125t-130 -305zM205 400q0 166 90 283t225 117q120 0 192.5 -100 t72.5 -300t-72.5 -300t-192.5 -100q-135 0 -225 117t-90 283zM910 530q0 100 70 185t220 85q84 0 147 -80t63 -190h-500z" />
<glyph unicode="&#x2c6;" d="M0 1000h50l200 180l200 -180h50l-200 300h-100z" />
<glyph unicode="&#x2dc;" d="M-20 1110l25 -25q65 75 115 75q30 0 100 -50t130 -50q100 0 170 130l-25 25q-65 -75 -115 -75q-30 0 -100 50t-130 50q-100 0 -170 -130z" />
<glyph unicode="&#x2000;" horiz-adv-x="775" />
<glyph unicode="&#x2001;" horiz-adv-x="1550" />
<glyph unicode="&#x2002;" horiz-adv-x="775" />
<glyph unicode="&#x2003;" horiz-adv-x="1550" />
<glyph unicode="&#x2004;" horiz-adv-x="516" />
<glyph unicode="&#x2005;" horiz-adv-x="387" />
<glyph unicode="&#x2006;" horiz-adv-x="258" />
<glyph unicode="&#x2007;" horiz-adv-x="258" />
<glyph unicode="&#x2008;" horiz-adv-x="193" />
<glyph unicode="&#x2009;" horiz-adv-x="310" />
<glyph unicode="&#x200a;" horiz-adv-x="86" />
<glyph unicode="&#x2010;" horiz-adv-x="700" d="M100 350h500v100h-500v-100z" />
<glyph unicode="&#x2011;" horiz-adv-x="700" d="M100 350h500v100h-500v-100z" />
<glyph unicode="&#x2012;" horiz-adv-x="700" d="M100 350h500v100h-500v-100z" />
<glyph unicode="&#x2013;" horiz-adv-x="1024" d="M0 350h1024v100h-1024v-100z" />
<glyph unicode="&#x2014;" horiz-adv-x="2048" d="M0 350h2048v100h-2048v-100z" />
<glyph unicode="&#x2018;" horiz-adv-x="237" />
<glyph unicode="&#x2019;" horiz-adv-x="240" />
<glyph unicode="&#x201a;" horiz-adv-x="234" />
<glyph unicode="&#x201c;" horiz-adv-x="350" />
<glyph unicode="&#x201d;" horiz-adv-x="350" />
<glyph unicode="&#x201e;" horiz-adv-x="402" />
<glyph unicode="&#x2022;" horiz-adv-x="387" />
<glyph unicode="&#x2026;" horiz-adv-x="792" />
<glyph unicode="&#x202f;" horiz-adv-x="310" />
<glyph unicode="&#x2039;" horiz-adv-x="321" />
<glyph unicode="&#x203a;" horiz-adv-x="321" />
<glyph unicode="&#x205f;" horiz-adv-x="387" />
<glyph unicode="&#x2122;" horiz-adv-x="681" />
<glyph unicode="&#x25fc;" horiz-adv-x="800" d="M0 0v800h800v-800h-800z" />
<glyph unicode="&#xfb01;" horiz-adv-x="980" d="M20 0v30q150 0 150 70v600h-150q0 50 80 60t80 90q0 230 130 390t250 160t190 -60t70 -110t-55 -70t-115 50t-140 80t-150 -40t-70 -220v-270h250q80 0 145 12.5t95 47.5h30v-720q0 -70 150 -70v-30q-105 0 -157.5 5t-105 0t-157.5 -5v30q150 0 150 70v520q0 40 -40 57.5 t-110 22.5h-250v-600q0 -70 150 -70v-30q-105 0 -157.5 5t-105 0t-157.5 -5z" />
<glyph unicode="&#xfb02;" horiz-adv-x="980" d="M20 0v30q150 0 150 70v630h-150q0 50 80 60t80 80q0 210 120 370t245 160t180 -40l55 40h30v-1300q0 -70 150 -70v-30q-105 0 -157.5 5t-105 0t-157.5 -5v30q150 0 150 70v1110q-20 10 -75 40t-140 40t-135 -40t-50 -220v-230h200v-70h-200v-630q0 -70 150 -70v-30 q-105 0 -157.5 5t-105 0t-157.5 -5z" />
</font>
</defs>
</svg>
