<?xml version="1.0" standalone="no"?>
<!DOCTYPE svg PUBLIC "-//W3C//DTD SVG 1.1//EN" "http://www.w3.org/Graphics/SVG/1.1/DTD/svg11.dtd" >
<svg xmlns="http://www.w3.org/2000/svg">
<metadata></metadata>
<defs>
<font id="action_man_extendedregular" horiz-adv-x="1608" >
<font-face units-per-em="2048" ascent="1638" descent="-410" />
<missing-glyph horiz-adv-x="1331" />
<glyph horiz-adv-x="2048" />
<glyph horiz-adv-x="2048" />
<glyph unicode="&#xd;" horiz-adv-x="2048" />
<glyph unicode=" "  horiz-adv-x="1331" />
<glyph unicode="&#x09;" horiz-adv-x="1331" />
<glyph unicode="&#xa0;" horiz-adv-x="1331" />
<glyph unicode="!" horiz-adv-x="710" d="M855 1154q-5 -51 -18 -101t-32 -100t-42.5 -100t-47.5 -99q-29 -44 -52 -92.5t-53 -95t-75.5 -88t-119.5 -72.5q-47 7 -68.5 25t-29.5 40.5t-7 47t-1 44.5q8 62 24 122t34 122q11 34 21 67t15 66q2 34 5 67t3 66q7 44 17.5 86t42.5 83q16 26 43 47t61.5 34t74.5 17.5 t82 -2.5q47 -14 71.5 -35t35.5 -46t12.5 -52t3.5 -51zM604 114q-3 -22 -26.5 -41t-59 -32.5t-79 -20.5t-86.5 -5q-53 6 -96.5 21.5t-74 37t-47.5 47.5t-17 53q-1 24 23 42.5t61 31t82.5 18t87.5 2.5q64 3 112 -10.5t78 -36t41 -51t1 -56.5z" />
<glyph unicode="&#x22;" horiz-adv-x="1201" d="M1258 1029q-8 -26 -15 -54t-23 -55t-44.5 -49.5t-78.5 -37.5q-26 -6 -56 -9q-41 5 -64.5 16.5t-35.5 28t-15.5 36t-3.5 39.5t1.5 39.5t-1.5 35.5l3 39q7 20 7 43q4 35 4 68t8 68q5 14 9 29.5t13 30t26 26t47 18.5q16 3 31 4.5t31 -0.5q42 -6 68 -21t42.5 -34t26.5 -40 t18 -40q9 -45 7.5 -90.5t-5.5 -90.5zM684 1036q-5 -25 -6.5 -53.5t-12 -55.5t-34.5 -50.5t-73 -38.5l-34 -2l-24 -1q-74 16 -110.5 47t-50.5 69t-14 78t-2 75q6 31 13 65t24.5 67t49 62t87.5 49q8 1 13.5 3t13.5 3l36 4q43 -3 67 -16.5t36.5 -32.5t17.5 -40.5t10 -38.5 q4 -49 0.5 -96.5t-7.5 -96.5z" />
<glyph unicode="#" horiz-adv-x="1737" d="M1867 1015q-1 -11 -11 -22t-26.5 -19.5t-38 -14t-45.5 -5.5q-47 0 -89 1t-89 1q-1 -42 -5.5 -80.5t-11.5 -80.5q37 -3 83 -3.5t89 -5t76 -15.5t44 -34q-4 -18 -21 -33.5t-39 -29.5q-19 -13 -49 -22.5t-63 -11.5q-36 -2 -74 -2q-37 0 -73 -1q-5 -27 -12 -53.5t-15 -52.5 q-3 -12 -15.5 -23.5t-31 -20t-41.5 -14t-47 -5.5q-60 1 -91 18.5t-43 42.5t-10.5 53t4.5 51q-88 -2 -175.5 0t-176.5 0q-1 -23 0 -46t-3 -46q-4 -17 -25.5 -29.5t-47.5 -21.5q-27 -9 -57 -15.5t-61 -5.5q-50 9 -75.5 28t-37.5 43t-14.5 50t-4.5 48q-108 3 -215 9 q-24 1 -45.5 6.5t-38.5 14t-27.5 19.5t-12.5 23q5 20 24.5 33.5t48 22.5t64.5 14t73 7t73.5 2.5t66.5 0.5q2 42 6.5 82t13.5 82q-49 2 -97.5 0t-96.5 0q-31 2 -57 10t-44 21q-22 11 -28 27.5t-6 31.5q22 26 63.5 39.5t91 20t102.5 8.5t99 6q4 22 16 48t35.5 48.5t60 38.5 t90.5 18q23 1 44 -3t37.5 -12t26.5 -18.5t10 -22.5q-5 -24 -7.5 -47.5t-4.5 -47.5q85 -3 169 -4t169 -3q2 22 6.5 44t15.5 44q15 31 41 50t70 17q35 0 62 -9t55 -18l26 -10l22 -16l17 -14l2 -13q2 -20 2.5 -41t4.5 -41q45 -1 94.5 -5.5t92.5 -14.5t73 -27t35 -44zM1237 792 q0 42 4.5 83t2.5 82h-348l-15 -169q91 3 178 2t178 2z" />
<glyph unicode="$" horiz-adv-x="1539" d="M1729 925q-3 -12 -18 -18.5t-35 -9.5t-42 -3h-40q-49 3 -97 4.5t-94 6.5q-48 5 -96 7.5t-97 3.5q-22 0 -49 -1t-51 -4.5t-41 -11.5t-19 -23q5 -16 22 -29t40.5 -23.5t50.5 -19.5t52 -17q76 -23 152 -44.5t152 -44.5q29 -12 58 -26t51.5 -30t34.5 -34.5t8 -39.5 q-3 -25 -24 -47t-52.5 -41.5t-70.5 -36.5t-78 -30q-85 -29 -179.5 -49.5t-196.5 -27.5l3 -12q-2 -27 -4 -53.5t-2 -53.5q5 -26 4.5 -52t-3.5 -52q-5 -29 -12 -58t-35 -55q-17 -15 -41.5 -24t-54 -14.5t-61 -7.5t-62.5 -2q-36 2 -72.5 8t-58.5 21q-3 21 0 41q6 38 13 73.5 t21 71.5q13 38 20.5 77t15.5 77q1 2 -0.5 3.5t-1.5 3.5q-93 3 -183.5 16t-170.5 36t-146.5 55.5t-112.5 73.5q-9 11 -18 22.5t-7 24.5l7 14q26 13 41.5 17t31.5 4q20 -2 42.5 -3.5t42.5 -5.5q141 -23 283.5 -46.5t293.5 -28.5q33 -1 71.5 2.5t71 12t54 22t22.5 33.5 q3 27 -17 50t-54 41t-79 31t-91 21q-112 14 -223 31.5t-223 31.5q-39 7 -80 17.5t-73.5 25t-51.5 34t-13 43.5q9 25 40 44.5t73 34t89.5 26t89.5 21.5q99 22 203 35.5t208 22.5q14 51 29 101.5t29 101.5q11 21 24 45t34.5 45t55 35.5t86.5 16.5q42 1 84.5 -5.5t75 -19.5 t50.5 -31.5t13 -42.5q-5 -29 -17 -56.5t-29 -54.5q-13 -29 -28.5 -58t-15.5 -58q4 -4 10.5 -7t11.5 -7l34 -3h11q63 -5 120 -19.5t110 -30.5q31 -10 63 -21.5t58 -25t42.5 -30t17.5 -37.5z" />
<glyph unicode="%" horiz-adv-x="2236" d="M1205 1055q7 -54 -27 -111t-102.5 -102t-168.5 -71t-224 -20q-54 -1 -106 5.5t-98 19.5t-83 32t-61 42q-31 21 -48 44.5t-25 49t-8.5 51t2.5 51.5q11 51 40.5 99t87.5 92q27 23 64 42t80.5 33.5t93 23t100.5 11.5q55 2 112.5 0t110.5 -10.5t98.5 -23t77.5 -38.5 q30 -24 48.5 -51t27.5 -54.5t10.5 -56.5t-2.5 -58zM2225 1374q-65 -88 -154 -170.5t-189.5 -162.5t-205.5 -158.5t-203 -158.5q-193 -152 -385 -302.5t-378 -305.5q-17 -17 -36.5 -31.5t-33.5 -31.5q-20 -17 -32.5 -35t-32.5 -35q-14 -17 -43.5 -28t-65.5 -11 q-40 2 -73 11.5t-56.5 23.5t-36 32t-12.5 38q11 34 43 62.5t63 57.5q87 75 177.5 147.5t179.5 146.5q136 120 278.5 238t288 235.5t290.5 235t286 236.5q15 8 28 18t26.5 19.5t30 17.5t38.5 12q41 -1 78.5 -8.5t66 -21t46 -31.5t17.5 -40zM2295 338q-8 -54 -46 -105.5 t-104 -95.5q-30 -23 -69.5 -43.5t-86 -35.5t-99 -24.5t-107.5 -11.5q-121 -11 -210.5 13t-145.5 66.5t-77 97t-5 105.5q4 29 11 58.5t21.5 58t38.5 55.5t60 51q39 24 89.5 40.5t107.5 27t117.5 15t119.5 4.5q51 1 99.5 -4t91 -17t76.5 -29.5t57 -39.5q24 -21 38 -43.5 t20.5 -46.5t6.5 -48t-4 -48zM899 1067q5 24 4 48t-12 47q-20 22 -63.5 30t-91.5 6q-57 -4 -92 -21.5t-55.5 -41.5t-29 -51t-11.5 -50q-6 -17 -3 -37.5t18 -38t43 -29t72 -9.5q59 -2 101 12t68.5 36t39 48.5t12.5 50.5zM1997 304q3 22 3 48q0 27 -13.5 50.5t-44.5 39.5 t-89 17q-24 0 -48.5 -2.5t-46.5 -7.5t-40 -13t-30 -20q-20 -23 -25 -46t-9 -47q-6 -22 0 -48t26.5 -47.5t58 -34t94.5 -7.5q43 1 73.5 12.5t50 29t29 38t11.5 38.5z" />
<glyph unicode="&#x26;" horiz-adv-x="1898" d="M1978 800q-7 -63 -21.5 -125t-33 -124.5t-40 -124.5t-42.5 -124q-14 -29 -30.5 -59.5t-39.5 -59.5t-56 -55.5t-80 -48.5q-49 -20 -105 -31.5t-115 -18.5t-119.5 -10t-119.5 -5q-98 -2 -190.5 8.5t-177.5 30t-161.5 47t-141.5 60.5q-61 33 -114 71.5t-91.5 80.5t-59 87 t-16.5 93q-3 47 31.5 89.5t93.5 78.5t137 63.5t161 44.5q-131 55 -210 128q-18 17 -36 35t-30.5 37t-18.5 38.5t0 39.5q4 33 27 64.5t59.5 59.5t85 52.5t102.5 43.5q105 44 233 65t259 22q82 0 167 -3.5t166 -14t153.5 -29.5t129.5 -50q11 -9 19 -18.5t12 -20.5 q-14 -41 -60 -70q-22 -16 -46 -31.5t-65 -18.5q-42 5 -84.5 8t-84.5 8q-97 9 -193 19t-198 8q-36 -2 -71 -6t-67 -14q-29 -9 -53.5 -22.5t-28.5 -30.5q-9 -40 17 -81t92 -64q74 -23 156 -33.5t163 -21.5q91 -8 177 -16t177 -13q5 16 21 32.5t41 29.5t57 20t68 5 q50 -1 89 -12t64.5 -28t36.5 -39.5t5 -45.5zM1538 611q-34 2 -64.5 5t-63.5 5q-34 3 -67 5t-66 2q-101 0 -199.5 -6.5t-195.5 -22.5q-42 -6 -86 -16.5t-81 -25.5t-60.5 -34.5t-23.5 -44.5q-3 -29 14.5 -54.5t48.5 -47.5t72.5 -40t86.5 -32q93 -29 202.5 -43.5t222.5 -13.5 q44 0 85 4t83 8q26 89 47.5 176t44.5 176z" />
<glyph unicode="'" horiz-adv-x="601" d="M700 1094q-6 -33 -11.5 -69.5t-21 -71.5t-48.5 -65.5t-95 -52.5q-16 -2 -31 -2t-30 -2q-36 2 -59.5 11.5t-39.5 23t-26 29.5t-19 30q-15 54 -21 98t1 86q6 31 11 64.5t19.5 66.5t43.5 62t83 51q17 5 32.5 7t33.5 2q40 -3 66 -15t42.5 -28.5t26.5 -35t19 -34.5 q11 -38 20.5 -76.5t3.5 -78.5z" />
<glyph unicode="(" horiz-adv-x="1423" d="M1437 7q-1 -22 -20.5 -40t-50 -32t-69 -23.5t-77.5 -13.5q-51 -5 -100 -3t-96 8.5t-92 17.5t-87 23q-170 50 -295.5 124.5t-208.5 163.5q-88 84 -130 177t-35 190q9 108 57 214t132 208q45 50 99 99.5t119 96t141.5 87.5t168.5 75q75 29 164.5 46.5t184.5 13.5 q48 -3 85 -15.5t61.5 -31t36.5 -41t10 -44.5q-8 -9 -21.5 -15t-30 -10t-34 -8t-33.5 -8q-189 -42 -322 -114.5t-218 -162t-126.5 -188t-47.5 -192.5q-3 -40 -0.5 -81t14 -81t34 -78.5t58.5 -74.5q81 -67 199.5 -118t253.5 -89q61 -11 121.5 -25t120.5 -24q15 -5 28 -13 t6 -18z" />
<glyph unicode=")" horiz-adv-x="1420" d="M1560 737q-6 -65 -32.5 -128t-68.5 -125t-96 -122t-115 -118q-57 -51 -125.5 -109t-155.5 -106t-195.5 -77.5t-245.5 -24.5q-44 2 -81.5 12t-69.5 23q-32 14 -54 33t-24 41q-3 12 8.5 20.5t30.5 14t42 9t42 5.5q100 16 183 46t150.5 69t121.5 84t96 90q89 99 135 203.5 t55 210.5q11 85 -38 165t-144.5 146.5t-229.5 116.5t-292 76q-22 4 -48 8t-49 10t-41 15t-24 22q6 23 30.5 40t59.5 29t76.5 19.5t81.5 11.5q84 5 167 1.5t159 -16.5q63 -17 122 -36.5t110 -43.5q124 -58 214.5 -129.5t147.5 -151t81 -164.5t16 -170z" />
<glyph unicode="*" horiz-adv-x="1314" d="M1476 1068q2 -14 -8.5 -29.5t-37.5 -23.5q-106 -29 -208 -61.5t-205 -64.5q91 -29 177.5 -59t177.5 -57q25 -11 35 -26t1 -32q-1 -15 -11 -31t-28 -29.5t-44 -23t-59 -10.5q-24 0 -44.5 3.5t-39.5 9.5t-36.5 12.5t-36.5 12.5q-35 17 -74 30.5t-74 30.5q5 -14 7 -27.5 t3 -27t2 -27.5t5 -27q-7 -18 -27.5 -32.5t-52.5 -23.5q-31 -9 -67 -16t-72 -8q-32 1 -50.5 10t-29 22t-15.5 27.5t-9 27.5q-5 31 -2 60.5t6 60.5q-51 -20 -99.5 -38t-98.5 -37q-18 -5 -36.5 -7t-38.5 -2q-36 3 -67.5 9t-60.5 15q-31 8 -50 22t-27 31q5 15 20.5 28t36.5 23.5 t45 20t48 17.5q58 20 118 38.5t118 38.5q-51 20 -103 38t-102 39q-21 9 -43.5 18.5t-41 21t-30.5 25t-13 28.5q6 15 22 29t39 25t51 18t58 9q8 0 17.5 -1t17.5 -1l42 -10q54 -29 110 -55t107 -55q2 23 2 47t1 47q3 22 10.5 48t26 48.5t53 38.5t91.5 17q27 -1 52 -6t44.5 -13 t32 -19.5t13.5 -24.5q-11 -42 -20.5 -83t-20.5 -83q40 18 83.5 34t85.5 33q40 14 82.5 25t91.5 13q30 -2 57 -9t47.5 -17.5t33 -24.5t12.5 -30z" />
<glyph unicode="+" horiz-adv-x="1256" d="M1463 678q-2 -15 -15 -28t-33.5 -23.5t-47.5 -17t-55 -7.5q-88 0 -172 -1.5t-172 -1.5l-7 -78q-5 -20 -7 -38t-3 -38q-5 -17 -27.5 -33t-53.5 -26q-29 -12 -65.5 -18t-74.5 -8q-46 8 -73.5 23.5t-42 35.5t-18.5 43t-3.5 47t2.5 47t1 43q-42 2 -80.5 1t-76.5 -1 q-39 2 -76 2h-75q-17 0 -34 2.5t-30 7.5l-29 10l-24 12l-2 2q-22 15 -35 32.5t-15 37.5q4 17 25 28.5t50 19t61.5 12t61.5 6.5q49 5 90.5 7t79 3t71.5 0.5t67 0.5q4 37 10 74t20 74q6 17 22 33.5t40 29t56 20t70 6.5q28 0 53 -5.5t43.5 -14.5t30.5 -21.5t15 -26.5 q-4 -44 0.5 -88t-2.5 -88q75 -2 150 -2t149 -8q34 -2 67.5 -9t59 -18t40.5 -26t14 -34z" />
<glyph unicode="," horiz-adv-x="601" d="M686 159q0 -28 -15.5 -54.5t-40.5 -51t-56.5 -47.5t-64.5 -45q-26 -16 -53 -33.5t-58 -33t-66.5 -26.5t-78.5 -15q-14 2 -28 2q-13 0 -29 2q-26 2 -42.5 9.5t-26 17t-13.5 21t-5 22.5q1 27 15.5 53.5t37 52t50.5 50t56 48.5q27 21 56.5 45t65 45t79 36t98.5 18 q32 -2 55.5 -10t38.5 -20.5t21.5 -27t3.5 -29.5q3 -15 0 -29z" />
<glyph unicode="-" horiz-adv-x="1587" d="M1630 678q-5 -16 -23.5 -29t-44.5 -22t-56.5 -14.5t-59.5 -6.5q-242 -5 -480 -5.5t-480 1.5q-41 -1 -75 10.5t-61 22.5q-14 7 -26.5 15.5t-21.5 17.5t-13 18.5t1 20.5q31 28 82.5 41.5t112 19.5t124 7.5t118.5 4.5q46 -2 90 -2q45 0 91 -1q46 0 92 -2t92 -2q36 0 72 0.5 t72 -2.5q35 0 76 -1t82.5 -4t81 -9t71.5 -16t54 -25.5t29 -37.5z" />
<glyph unicode="." horiz-adv-x="679" d="M707 166q-6 -61 -77 -108q-36 -23 -86.5 -40.5t-110.5 -15.5q-63 -1 -109.5 14t-76 38t-41.5 52t-5 56q5 25 29.5 47t61.5 38.5t83.5 25.5t95.5 9q51 2 94.5 -7t75.5 -25t49.5 -38t16.5 -46z" />
<glyph unicode="/" horiz-adv-x="1321" d="M1568 1341q-4 -33 -24 -63t-46 -61q-28 -34 -56.5 -67t-59.5 -65q-198 -232 -418 -456.5t-464 -447.5q-33 -23 -64.5 -51.5t-70 -54t-86.5 -42.5t-113 -18q-39 4 -62.5 21.5t-21.5 36.5q3 28 14 55t28 53t38.5 51.5t44.5 50.5q50 58 104.5 113t108.5 113 q60 70 126.5 139.5t125.5 139.5q102 103 208.5 205t227.5 200q40 31 73.5 63t74.5 62q17 12 40.5 24.5t51.5 22t60 13.5t65 -1q13 -3 29 -5.5t30 -6t24 -9.5t12 -15z" />
<glyph unicode="0" horiz-adv-x="1836" d="M1910 638q-12 -104 -63 -206t-154 -195q-51 -45 -123 -86.5t-159 -73t-187.5 -49t-208.5 -14.5q-111 -1 -204.5 20.5t-170 56t-136.5 79t-103 89.5q-89 93 -130 194.5t-32 206.5q6 109 55.5 213.5t140.5 205.5q44 46 102.5 94t133.5 87.5t168 65t207 27.5q179 0 316 -33 t237 -88t165.5 -127.5t101.5 -151.5t46 -160.5t-2 -154.5zM1512 667q7 75 -0.5 148.5t-42.5 145.5q-18 38 -50 72.5t-77.5 61t-105 41.5t-132.5 13q-81 -3 -138.5 -25.5t-98 -55.5t-68 -70.5t-48.5 -70.5q-49 -78 -77.5 -156t-33.5 -158q-1 -34 0.5 -73.5t11.5 -79.5 t31 -77.5t60 -67.5t99.5 -50t147.5 -24q70 -2 133 11t114.5 35t91.5 51t64 60q57 64 86 132t33 137z" />
<glyph unicode="1" horiz-adv-x="751" d="M831 992q-8 -85 -20 -168t-29 -167q-8 -42 -18 -84.5t-19.5 -84.5t-17 -84.5t-10.5 -84.5q-2 -22 -5.5 -43.5t-1.5 -43.5q0 -20 -2.5 -41t-4.5 -41q-2 -18 -8 -38.5t-21 -38.5t-41 -32t-68 -21q-60 -6 -113 7t-88 36q-18 21 -25.5 43.5t-9.5 45t-0.5 45.5t2.5 45 q5 76 21 151.5t30 150.5q39 156 58 311q0 29 2 58t-0.5 58t-13.5 57t-37 54q-26 13 -55.5 25.5t-54 26.5t-39.5 31t-10 38q2 23 15.5 47.5t39.5 44.5t64 34.5t88 18.5q73 -7 134.5 -26t109.5 -46t82 -60t52 -67q12 -39 15 -78.5t-1 -78.5z" />
<glyph unicode="2" horiz-adv-x="1911" d="M1969 189q-54 -31 -124 -50.5t-147.5 -33t-158 -23t-155.5 -21.5q-179 -17 -360 -31t-364 -6q-54 1 -92.5 14.5t-62.5 33.5t-35 45t-9 49q3 37 21.5 74t47.5 72t65.5 69t75.5 66q106 82 207 163t207 163q41 34 81.5 70t73.5 73.5t55.5 76t27.5 79.5q6 20 -4.5 39.5 t-33.5 34.5t-58.5 23t-79.5 5q-111 0 -212.5 -20t-198.5 -45q-26 -8 -44.5 -19.5t-32.5 -24.5t-25 -27.5t-23 -27.5q-9 -15 -27.5 -27.5t-43 -21.5t-53.5 -14t-60 -5q-54 -3 -86.5 9t-49 32t-18.5 43.5t5 43.5q13 42 55.5 76.5t103.5 62t134 49t146 36.5q155 35 320.5 46.5 t332.5 9.5q54 -1 99 -10.5t81 -25.5t64.5 -37t49.5 -43q40 -47 63.5 -97t15.5 -101q2 -36 -14.5 -71.5t-43.5 -69.5t-61.5 -66.5t-68.5 -63.5q-94 -71 -184.5 -141t-187.5 -141q-41 -32 -79 -64t-69.5 -66t-53.5 -69t-30 -72q106 11 212.5 19.5t210.5 22.5q102 11 201 21.5 t202 12.5q15 2 33.5 1.5t34.5 -2.5q27 -8 47 -20t37 -25q17 -11 29.5 -24t10.5 -29z" />
<glyph unicode="3" horiz-adv-x="1857" d="M1966 555q-6 -56 -39.5 -109t-88 -101t-127 -91.5t-156.5 -79.5q-81 -37 -175 -67.5t-196 -51.5t-210.5 -31.5t-217.5 -6.5q-62 4 -109.5 20.5t-83.5 39.5q-31 26 -53 53t-22 58q-2 7 3 14t15 12.5t23 9.5t27 6q18 0 36 1t36 1q62 2 123 4t121 10q122 14 236 38t213 64 q49 18 93 40.5t77.5 48.5t53.5 54.5t22 59.5q7 17 1 35.5t-23.5 33t-47 24t-69.5 8.5q-167 0 -333 -14t-317 -54q-40 -14 -83.5 -23t-83.5 -22q-44 3 -77 16t-60 29q-26 15 -45.5 34t-22.5 41q3 20 22 37t46.5 31.5t61 27t65.5 23.5q93 29 186 57t186 58q41 16 78 35.5 t65 41.5t45 47t18 51q1 10 0 22.5t-7 23.5t-19.5 18.5t-38.5 9.5q-53 -3 -102.5 -12.5t-96.5 -22t-93 -27t-92 -27.5q-72 -22 -139.5 -46.5t-145.5 -43.5q-37 2 -71.5 11.5t-61.5 22.5q-24 13 -44.5 27.5t-21.5 31.5q8 18 24 31q33 30 78.5 54.5t97.5 45.5t108.5 39.5 t112.5 36.5q116 33 242 60t260 29q98 0 186 -21t157 -53q34 -15 63 -33.5t49.5 -39t32 -43t10.5 -46.5q-3 -35 -23.5 -68t-51.5 -64.5t-69.5 -61t-78.5 -57.5q126 3 231.5 -22t177.5 -69t103.5 -101t9.5 -118z" />
<glyph unicode="4" horiz-adv-x="1707" d="M1773 601q-1 -16 -13 -31t-29 -29q-20 -14 -45 -24t-61 -8q-23 -41 -31 -86q-5 -32 -4 -64.5t-1 -64.5q0 -32 -2.5 -63.5t-4.5 -63.5q-5 -21 -16 -44t-33 -43t-56 -34.5t-83 -18.5q-33 -3 -67.5 0.5t-63.5 11.5t-49 21.5t-24 31.5q-12 17 -17 34.5t-6 35.5t0.5 36t3.5 36 q8 23 9.5 47t9.5 47q6 24 12.5 46.5t9.5 47.5q1 19 2.5 38t-6.5 38q-62 5 -124.5 6t-124.5 3q-103 4 -211.5 8.5t-213.5 15t-200.5 31t-173.5 58.5q-26 17 -34 40.5t-10 46.5q3 28 13.5 57t26.5 57t35.5 56t40.5 55q49 55 97.5 111t112.5 107q27 22 55 46t59.5 46.5t69.5 41 t86 30.5q44 2 83 -9t69 -27q35 -13 54.5 -32t23.5 -41q-31 -54 -81 -103.5t-102 -99.5q-25 -27 -52.5 -54t-53.5 -54.5t-47 -56t-33 -57.5l6 -17l3 2q72 -2 141 -5.5t137 -11.5q72 -7 142.5 -13t142.5 -6l34 1h7q12 46 19.5 91.5t12.5 91t9 91t9 90.5q4 19 6 38t4 38.5 t5.5 38.5t11.5 39q5 17 21 34.5t41 30.5t58 20.5t73 4.5q46 -2 83.5 -13.5t63 -28.5t38.5 -39t11 -44q-2 -57 -6.5 -111.5t-12.5 -111.5q-4 -48 -5 -94.5t-15 -93.5v-48t8 -47q33 -6 61.5 -16.5t49.5 -24t32.5 -30.5t8.5 -35z" />
<glyph unicode="5" horiz-adv-x="1881" d="M2021 625q-7 -63 -51.5 -121.5t-113 -111t-155.5 -99t-180 -86.5q-92 -41 -196 -77t-216.5 -61t-232 -37t-243.5 -5q-53 7 -98 20.5t-74 36.5q-29 22 -42 47.5t-15 52.5q-5 21 15.5 42t66.5 25q54 2 107.5 5t107.5 3q57 2 114.5 1t112.5 8q61 10 114 26t100.5 36t91 43 t84.5 47q37 24 76 48.5t72 51t55 55t27 60.5q4 15 1 32.5t-16 32.5t-37 24.5t-62 9.5q-112 -7 -208 -36.5t-183 -62.5q-89 -38 -176 -73.5t-176 -73.5q-47 -14 -96.5 -28.5t-108.5 -12.5q-62 3 -106 23t-64 49q-23 28 -36.5 57.5t-8.5 60.5q5 63 17 124.5t28 124.5 q17 60 31 121t32 121q5 26 21.5 51.5t44.5 47.5q87 46 197 71t230 36.5t244 13.5t241 2q51 0 102.5 -5.5t96.5 -18.5q88 -37 77 -95q4 -17 -16 -29.5t-49 -18.5q-26 -4 -51 -2t-51 0q-88 2 -175 -1.5t-175 -8.5q-82 -7 -168 -17t-161 -33q-9 -45 -20.5 -89.5t-25.5 -89.5 q-12 -46 -23.5 -91t-16.5 -92l-1 -18l3 -9q59 49 141.5 91.5t181.5 73t210 47t227 15.5q138 5 250 -22t187.5 -75t108.5 -110.5t12 -126.5z" />
<glyph unicode="6" horiz-adv-x="1737" d="M1896 524q-14 -94 -89.5 -181.5t-200.5 -159.5q-60 -37 -132.5 -68.5t-154.5 -54.5t-172.5 -35.5t-185.5 -10.5q-86 0 -164 13.5t-146.5 36t-126 53t-102.5 64.5q-94 64 -147.5 141t-50.5 159q4 55 21.5 110t43.5 109t58.5 107t67.5 106l69 103.5t77.5 103.5t95 99 t120.5 92q39 18 91.5 28.5t106.5 12.5q26 0 52.5 -0.5t49.5 -8.5q20 -20 32 -31t14 -22q4 -14 9 -29t3 -30q-49 -53 -99 -104.5t-104 -102.5q-31 -33 -61 -66t-56.5 -66.5t-47 -68t-31.5 -70.5q59 30 130 49.5t149 30.5t159 15t161 4q64 -1 126.5 -7t120 -18t107 -31 t86.5 -45q73 -48 101 -107.5t20 -119.5zM1512 505q8 25 -2 53t-37.5 50t-71.5 35.5t-104 10.5q-88 0 -168 -16t-151 -42q-72 -23 -136.5 -53t-104.5 -69q-33 -32 -54.5 -68t-25.5 -71q-5 -30 21.5 -52t70.5 -35.5t99 -19.5t106 -4q55 -1 110.5 4t107.5 15t98.5 25.5 t84.5 36.5q77 42 114.5 94t42.5 106z" />
<glyph unicode="7" horiz-adv-x="1700" d="M1872 1190q-12 -25 -28 -49.5t-33 -48.5t-34.5 -48.5t-33.5 -48.5q-131 -161 -263 -320t-272 -318q-15 -14 -26 -29t-19.5 -30.5t-16 -30.5t-16.5 -30q-13 -27 -21.5 -53.5t-17.5 -53.5q-5 -12 -9 -24t-10 -24.5t-14.5 -24t-23.5 -21.5q-32 -11 -69.5 -16.5t-75.5 -5.5 q-54 -2 -98 10t-74 31.5t-43.5 44.5t-7.5 50q5 60 40.5 117.5t81.5 113.5q118 149 240.5 296t237.5 298q38 44 68 88t57 91q-38 0 -74.5 3.5t-74.5 4.5q-38 2 -78 3.5t-79 1.5q-90 0 -182 -8t-173 -31q-39 -13 -73.5 -30t-62.5 -36q-23 -14 -52 -27t-68 -13q-88 -2 -169 19 q-35 11 -55.5 27t-12.5 38q9 44 53.5 80t110.5 63.5t146 46.5t160 30q171 20 343.5 23.5t347.5 -4.5q71 -4 150.5 -12.5t148.5 -26t117.5 -45.5t57.5 -71z" />
<glyph unicode="8" horiz-adv-x="1775" d="M1862 990q7 -54 -29 -103t-102 -89.5t-155.5 -70.5t-187.5 -46q85 -17 163 -44t135 -63.5t87 -80.5t19 -94q-7 -38 -30 -74t-58.5 -70t-82 -65t-100.5 -57q-55 -27 -119 -49.5t-134 -38.5t-145 -24.5t-152 -6.5q-142 0 -273.5 25.5t-233.5 74.5q-52 23 -94 51t-72 59.5 t-46 65.5t-16 70q0 49 35.5 97t103.5 86q74 41 164.5 72.5t194.5 48.5q-60 9 -119 23t-112.5 33t-98.5 43t-75.5 51.5t-44 59t-4.5 66.5q7 40 32 77.5t63.5 73t88 67.5t106.5 61q56 30 122.5 54.5t140 42t152.5 27t160 9.5q144 0 271.5 -31.5t220.5 -84.5q48 -24 89.5 -52.5 t72 -59.5t47.5 -64.5t16 -69.5zM1396 1024q1 25 -16 50t-48.5 44.5t-76 31.5t-98.5 12q-73 -1 -140 -16.5t-118 -41.5q-51 -24 -87.5 -56.5t-43.5 -67.5q-6 -28 12.5 -54.5t54.5 -47t86.5 -32t107.5 -10.5q75 -1 139 17.5t115 44.5q22 13 42 28t36 30.5t25.5 32.5t9.5 35z M1338 357q3 28 -19.5 54.5t-62 47t-92 32t-109.5 11.5q-69 0 -135 -14t-120 -37q-25 -11 -47.5 -23t-39 -25.5t-26.5 -29t-9 -32.5q-1 -14 6.5 -26t21 -23t32 -20t39.5 -16q48 -14 101.5 -20.5t107.5 -6.5q125 -3 238 29q24 9 44.5 20t36 23.5t24.5 26.5t9 29z" />
<glyph unicode="9" horiz-adv-x="1731" d="M1828 887q-4 -63 -25 -125t-53 -123t-71.5 -121.5t-81.5 -119.5q-32 -33 -60.5 -70t-59 -73.5t-65.5 -72.5t-79.5 -67.5t-100.5 -57t-128 -42.5q-28 -2 -52.5 2.5t-42 13.5t-25.5 21.5t-4 26.5l1 27q4 6 4.5 13.5t2.5 13.5q19 43 49.5 84t66.5 81.5t74.5 80.5t74.5 80 q55 58 99.5 118t67.5 123q-55 -44 -133.5 -76.5t-168.5 -55.5q-94 -22 -194 -37.5t-202 -13.5q-63 0 -125.5 6t-119.5 18.5t-107 31t-87 43.5q-38 24 -62.5 51.5t-38.5 57t-18.5 60t-1.5 60.5q8 68 48.5 135t110.5 127t168.5 109.5t222.5 83.5q84 26 178.5 39t189.5 13 q86 0 166.5 -11.5t152.5 -32.5t132.5 -49.5t105.5 -62.5q97 -66 144 -145.5t47 -163.5zM1384 1029q4 28 -21.5 47t-66 30t-89.5 16t-94 4q-118 5 -222 -17.5t-181.5 -63t-122 -94t-43.5 -110.5q-6 -24 0.5 -50t28.5 -48t60.5 -35.5t96.5 -11.5q93 -1 175.5 21t157.5 48 q72 26 132 57.5t102 71.5q31 32 57 65.5t30 69.5z" />
<glyph unicode=":" horiz-adv-x="645" d="M684 768q2 -26 0.5 -52t-18.5 -52q-6 -14 -23 -24t-39.5 -17t-48.5 -10.5t-52 -3.5q-26 1 -51 4t-47 9t-39.5 14.5t-27.5 20.5q-32 18 -41 42t-7 49q6 22 20.5 45.5t40 44t62.5 34t87 15.5q46 0 83 -10.5t62 -27.5t35.5 -38t3.5 -43zM662 186q-10 -29 -26.5 -58 t-51.5 -55q-15 -12 -35.5 -24t-45 -21t-52.5 -14.5t-58 -4.5q-65 2 -108.5 19t-69.5 42t-36.5 55t-9.5 58q0 25 25 44.5t63.5 32t85 18t90.5 4.5q46 3 90.5 -2t78 -17.5t51 -32t9.5 -44.5z" />
<glyph unicode=";" horiz-adv-x="700" d="M836 712q3 -24 -14.5 -46.5t-49.5 -40t-75.5 -27t-92.5 -6.5q-27 1 -55.5 3.5t-55.5 7t-51 11.5t-43 19q-31 22 -35 48t1 53q0 25 17 51.5t48.5 47.5t77 33.5t101.5 9.5q57 -4 100.5 -20t72.5 -39.5t43 -50.5t11 -54zM729 171q-4 -28 -21 -54.5t-43 -52t-57.5 -49.5 t-64.5 -47q-26 -16 -53 -33.5t-58 -32t-67.5 -24.5t-79.5 -11l-34 5l-22 3q-24 4 -39.5 13t-24.5 19.5t-13 22.5t-5 24q3 25 17.5 48.5t35.5 46.5t47 45t52 43q28 22 60.5 46t71 44.5t84 35.5t101.5 20q33 2 57.5 -5.5t39.5 -19.5t19.5 -27.5t-2.5 -29.5l-1 -18v-12z" />
<glyph unicode="&#x3c;" horiz-adv-x="1294" d="M1275 447q-8 -28 -42.5 -50.5t-94.5 -26.5q-42 -2 -81.5 2t-77 11.5t-73.5 17t-70 19.5q-84 20 -162.5 43t-158.5 46q-32 9 -63 18t-63 17q-45 16 -94 29t-88 33q-11 5 -19.5 9.5t-16.5 10.5q-25 9 -42.5 21.5t-24.5 28.5q11 24 38.5 44t64 36.5t77.5 31t78 29.5 q90 30 179.5 58t182.5 57q48 14 96 29.5t97 29t100.5 24t107.5 14.5q28 -3 54.5 -10t46.5 -18t33 -24t16 -28q2 -16 -6 -29t-37 -22q-161 -51 -316 -106t-317 -108q158 -41 313.5 -81t318.5 -77q19 -6 30 -15.5t15.5 -20t3.5 -22t-5 -21.5z" />
<glyph unicode="=" horiz-adv-x="1638" d="M1664 835q6 -18 -8.5 -32t-40.5 -23t-58.5 -13t-63.5 -2q-255 4 -508.5 3t-508.5 -3q-35 -1 -62.5 6.5t-46 20t-26 28.5t-0.5 33q26 32 77 50t113.5 27t129.5 11.5t126 5.5h80t78 -2q42 -1 82.5 -2t81.5 -1q26 2 53 -0.5t53 -1.5q26 3 53 1t53 -1q52 0 109 -5.5 t106 -17.5t84 -32t44 -50zM1611 514q-6 -19 -28.5 -32.5t-53 -22.5t-66.5 -13.5t-69 -5.5q-228 -8 -453.5 -7t-450.5 9q-39 1 -72 9t-58 21.5t-41 30.5t-19 35q-5 14 7 25t33 19t46.5 13.5t48.5 8.5q90 7 161 10t138 2q44 0 86 -1.5t86 -3.5t89 -2.5t89 -0.5q26 0 49.5 -1 t49.5 1q23 1 47.5 2t47.5 -1h71q40 0 79.5 -3t75.5 -9t62.5 -17t39 -27t5.5 -39z" />
<glyph unicode="&#x3e;" horiz-adv-x="1290" d="M1507 686q-11 -25 -38 -45.5t-63 -38.5t-76.5 -34.5t-78.5 -31.5q-93 -31 -181 -62.5t-181 -60.5q-49 -14 -98 -29.5t-99 -29t-102.5 -23.5t-108.5 -12q-58 5 -100 28t-50 52q2 14 11.5 28.5t38.5 21.5q162 55 318.5 113t315.5 116q-158 45 -313 89t-313 88q-21 5 -32 14 t-15.5 19.5t-3.5 22t3 21.5q11 26 43 49.5t94 25.5q63 -4 121.5 -14t114.5 -23.5t110.5 -29t109.5 -29.5q125 -33 245 -71.5t229 -83.5q9 -5 16 -10.5t20 -9.5q22 -11 40.5 -22.5t22.5 -27.5z" />
<glyph unicode="?" horiz-adv-x="1731" d="M1905 1053q-24 -56 -79.5 -101t-132.5 -82.5t-170.5 -68.5t-192 -59t-198 -53t-188.5 -51q33 -8 68.5 -12t72.5 -5.5t74 -2.5t72 -4q79 -4 158 -4.5t159 -8.5q9 -12 11.5 -24.5t3.5 -23.5q0 -29 -32.5 -53.5t-83.5 -40.5q-33 0 -69 -2.5t-69 -2.5q-36 -2 -70 -2h-70 q-116 -1 -232 7t-225 26q-50 9 -99 22.5t-87.5 32t-61.5 43t-19 54.5q7 29 35 53t68 44t87.5 36.5t93.5 31.5q128 35 257 69t260 66q41 13 86.5 26t85.5 29t68.5 36t34.5 47q-3 34 -41.5 54.5t-93.5 31.5t-118.5 14.5t-117.5 3.5q-103 0 -204.5 -10.5t-194.5 -36.5 q-60 -20 -100.5 -49.5t-77.5 -58.5q-24 -29 -71 -51t-111 -26q-33 0 -62 7t-49 18.5t-31 26.5t-8 32q7 42 43 78.5t90 67.5t121 56t138 44q146 41 306 59t322 14q126 -4 246.5 -19.5t217.5 -55.5q96 -42 138 -101t42 -121zM1140 166q-6 -29 -22.5 -56.5t-54.5 -49.5 q-35 -22 -86 -34t-105 -12q-69 1 -135.5 12t-123.5 30q-58 20 -89.5 50t-33.5 65q-4 31 23 57.5t72.5 45.5t103.5 28.5t117 6.5q64 3 128 -5.5t113.5 -27t76.5 -46.5t16 -64z" />
<glyph unicode="@" horiz-adv-x="2673" d="M2797 766q0 -47 -14 -94t-43.5 -92.5t-75.5 -88t-109 -78.5q-61 -39 -139.5 -68.5t-168 -49t-186 -29.5t-192.5 -10q-160 -2 -317 10.5t-306 38.5q-67 12 -137.5 29.5t-128 41t-94 55t-36.5 72.5q-1 32 20.5 62t59 55.5t87.5 46t106 34.5q116 32 243.5 47t256.5 15 q38 0 75 -2t75 -2q-4 26 -20 52t-44.5 48.5t-69.5 40t-94 25.5q-40 2 -79 5t-80 7q-47 4 -68 23.5t-19 41.5q2 21 21.5 39.5t50 31.5t69 20t79.5 6q72 1 142 -6.5t133 -22.5t116 -38t90 -54q77 -60 104.5 -130t18.5 -141q-6 -75 -47.5 -149t-126.5 -138q58 1 116.5 7 t112 18.5t100 31.5t79.5 45t52.5 54t30.5 57.5t16 59t8 58.5q14 57 -2 112.5t-59 106t-111 93t-156.5 72t-195.5 44.5t-228 11q-148 8 -291.5 -7t-272 -48.5t-236.5 -83t-184.5 -110.5t-116 -131.5t-31.5 -145.5q-4 -46 3.5 -93t29 -91.5t60.5 -86t98 -76.5 q57 -36 132 -63.5t160.5 -45t178.5 -26t186 -6.5q27 2 51.5 -2t42.5 -12t27.5 -20t6.5 -26q-3 -21 -23 -39t-50.5 -32t-69.5 -22.5t-80 -8.5q-120 0 -237 13.5t-223.5 39t-199 62t-163.5 83.5q-74 45 -127.5 97t-86.5 108.5t-46.5 115t-8.5 117.5q-4 74 28 145t93 136 t148 123.5t194.5 107.5t232 87.5t260.5 63t279.5 34.5t289.5 3q113 1 222 -10.5t209 -34t187.5 -56t158.5 -75.5q139 -85 200.5 -190.5t53.5 -217.5zM1737 577q-28 2 -56 6t-56 6q-54 -2 -110 -2q-55 0 -109 -5l-41 -3q-20 -2 -32.5 -4t-20.5 -3t-13 -2l-10 -2 q-51 -10 -69.5 -20.5t-19.5 -21.5q12 -13 31.5 -21t42.5 -14t48.5 -10.5t49.5 -9.5q53 -11 108 -17.5t112 -8.5q57 27 90 61.5t55 70.5z" />
<glyph unicode="A" horiz-adv-x="2058" d="M2086 108q-3 -13 -14.5 -24.5t-29.5 -20.5t-41 -14.5t-49 -7.5q-27 -1 -55.5 -1.5t-55 2t-49.5 8.5t-39 18q-15 12 -24.5 25.5t-15.5 27.5t-11 28t-11 28q-11 36 -24 73t-27 73q-44 10 -92 16t-97 4q-105 -2 -205 -6.5t-202 -15.5q-92 -8 -182.5 -23t-170.5 -44 q-23 -15 -37 -31.5t-23 -34t-15 -35.5t-12 -35q1 -15 -9.5 -30.5t-31 -27.5t-49.5 -18.5t-63 -3.5q-62 6 -107.5 24.5t-73.5 45.5q-35 24 -55 51.5t-22 57.5q0 59 33 116t79 112q49 62 99 125t108 123q51 97 109 191t118 189q34 39 69 83t81.5 84t110 71t155.5 42 q85 2 161 -16.5t138 -44.5q60 -29 108.5 -63t77.5 -74q31 -39 49 -79.5t40 -82.5q84 -163 161 -325t139 -328q13 -29 25 -56t25 -55q4 -14 8 -28.5t6 -29t0.5 -29t-7.5 -29.5v-5zM1446 640q-7 58 -29 114t-52.5 111t-65.5 109t-68 108q-89 -45 -146.5 -101t-101.5 -114 q-22 -30 -42.5 -60t-36.5 -61t-26 -62.5t-11 -62.5l-2 -13l4 -12q-2 -8 -3 -14.5t-8 -14.5l7 -11q34 0 68 -0.5t67 -0.5q36 -3 72 -3.5t71 -0.5q44 -2 96 1t97 13.5t76 28.5t34 46z" />
<glyph unicode="B" horiz-adv-x="2089" d="M2205 514q-8 -40 -35.5 -75.5t-70 -67t-97.5 -59.5t-117 -52t-129 -45t-133 -38q-118 -32 -241.5 -57t-251.5 -47q-120 -18 -241.5 -32.5t-246.5 -9.5q-82 10 -140 32t-98 52.5t-63.5 67.5t-37 76.5t-18.5 79t-7 74.5q3 58 16.5 115.5t31.5 114.5q20 60 37.5 118 t30.5 118q5 35 4.5 69t-2.5 69q5 34 5 68q0 35 10 69q20 41 65 71.5t106 52t134.5 35.5t151 22t155 12t146.5 5q122 4 240.5 -8t227.5 -37q52 -11 101 -28t87 -39t60.5 -49t22.5 -58q2 -33 -7.5 -66.5t-35.5 -64.5q-31 -29 -66 -56t-79 -53q120 -17 213 -57.5t153 -94.5 q59 -52 93.5 -108.5t25.5 -118.5zM1437 1051q2 25 -21.5 46t-63.5 33q-40 14 -88.5 17t-97.5 5q-57 -2 -113 -7t-104 -22q-53 -13 -85 -37.5t-43 -51.5q-5 -28 -10.5 -55t-10.5 -56q-1 -22 0.5 -45t10.5 -45q103 2 198.5 24t181.5 49q41 12 82.5 27t76 32.5t58.5 38.5t29 47 zM1705 575q2 38 -29 72t-82 60q-27 10 -36.5 12.5t-16.5 4.5q-75 -1 -151.5 -4.5t-150.5 -12t-144.5 -23t-133.5 -37.5q-62 -21 -110.5 -49.5t-81 -61t-48.5 -68.5t-14 -72q-7 -23 6 -45t40.5 -39t68.5 -27.5t89 -9.5q137 -2 267.5 21.5t241.5 63.5q54 19 104 42.5t89 50.5 t63.5 57.5t28.5 64.5z" />
<glyph unicode="C" horiz-adv-x="1966" d="M2062 935q6 -20 -10.5 -35.5t-45 -25.5t-65 -14t-70.5 -2q-70 2 -123.5 24t-81.5 52q-57 66 -108 134q-26 31 -79 53t-122 22q-91 1 -168 -18t-139.5 -49t-110.5 -68t-82 -76q-85 -80 -132.5 -166.5t-55.5 -174.5q0 -32 6.5 -64.5t22 -63.5t42.5 -60t69 -53 q34 -26 82.5 -47t105.5 -35.5t120.5 -22t128.5 -6.5q75 0 146 10t137 27q51 17 97 35.5t91 38.5q29 11 57 24t66 15q42 2 66 -8t35.5 -26t13.5 -34.5t-1 -33.5q-8 -27 -28.5 -52.5t-51 -48.5t-69.5 -43.5t-83 -36.5q-77 -38 -179 -62.5t-210 -26.5q-122 -5 -237 8t-218.5 40 t-193.5 65t-163 83q-74 45 -133.5 96t-99.5 106.5t-58.5 114.5t-12.5 119q4 59 26 116.5t60 113t90.5 109t115.5 104.5q59 49 135 96t168 84t199.5 59t229.5 21q168 0 310.5 -38.5t250.5 -96.5q56 -28 103.5 -60t82 -68t54 -75t20.5 -79z" />
<glyph unicode="D" horiz-adv-x="2045" d="M2169 835q-2 -77 -37 -152t-97.5 -145.5t-148.5 -135.5t-190 -122q-96 -57 -215.5 -107t-254.5 -85.5t-282 -51.5t-299 -5q-78 2 -143.5 19t-113 44.5t-73.5 62.5t-25 73q2 23 3 47t6 47q4 23 8.5 48t9.5 48q9 55 9 111q2 40 4.5 79.5t2.5 78.5q4 40 9.5 79t10.5 79 q12 56 22 113.5t25 114.5t39 112.5t63 109.5q81 13 163 20.5t164 15.5q94 5 186 11.5t185 8.5q142 5 271.5 -12.5t240.5 -52.5t200 -84.5t149 -108.5t89 -125.5t19 -134.5zM1760 887q0 24 -1.5 49t-9 49t-22.5 47t-43 43q-31 19 -72.5 30.5t-88 18.5t-96 9.5t-96.5 3.5 q-49 -2 -99 -2t-99 -2t-97 -3.5t-97 -1.5q-51 -30 -83 -65t-51 -73.5t-28 -78.5t-14 -80.5t-9 -80.5t-13 -78q-3 -47 -5 -94t0.5 -94.5t12 -94.5t31.5 -92q103 0 194.5 19.5t171.5 51t150 70.5t131 77q64 40 121.5 84t102.5 90.5t74 96t35 101.5z" />
<glyph unicode="E" horiz-adv-x="1963" d="M2039 362q-10 -22 -27 -43.5t-46 -38.5q-63 -32 -136.5 -56.5t-153 -45.5t-163.5 -38.5t-166 -33.5q-160 -31 -323.5 -56t-335.5 -23q-63 3 -123 14.5t-104 33.5q-42 25 -71.5 54.5t-44.5 61.5q-24 55 -35 111.5t-14.5 113t-1.5 113.5t5 113q10 54 17 110.5t17 112.5 t25.5 112.5t41.5 110.5t65.5 106t97.5 101q129 23 265 33.5t273 14.5q152 7 305.5 5.5t305.5 -10.5q54 1 99.5 -9t78 -27.5t49.5 -41.5t13 -50q0 -12 -3.5 -28t-14.5 -30t-31.5 -22t-55.5 -5q-237 10 -472.5 13.5t-476.5 -1.5q-34 -40 -58 -82t-28 -84q2 -6 1.5 -12 t-0.5 -13q0 -6 2 -12t9 -11q114 0 226.5 5t226.5 9q113 5 226.5 6.5t227.5 0.5q51 0 100.5 -9t87.5 -25.5t59 -39.5t15 -51q-6 -29 -40.5 -45.5t-82.5 -25t-102 -11.5t-99 -5q-155 -8 -310 -15t-308 -22q-74 -9 -139 -30t-112 -50.5t-73.5 -65.5t-23.5 -75q-2 -27 4 -52.5 t17.5 -50.5t26.5 -50t31 -50q74 0 146 7.5t141.5 20.5t137 29.5t133.5 33.5q127 36 264 66t287 36q43 3 74 -5.5t49 -24t24 -35t1 -37.5z" />
<glyph unicode="F" horiz-adv-x="1666" d="M1903 761q-5 -23 -30 -39t-61 -27.5t-77.5 -18t-79.5 -10.5q-126 -9 -253 -17t-253 -14q-53 -4 -107 -7t-106.5 -8.5t-102.5 -15t-96 -24.5q2 -33 3 -66t-1 -67q7 -38 8 -77.5t-1 -79.5q-2 -20 -4 -41t-6 -41.5t-11 -40.5t-20 -39q-20 -44 -69 -71t-117 -23 q-36 5 -67.5 13.5t-48.5 25.5q-27 33 -43 68t-25.5 71t-16 72.5t-14.5 72.5q-11 78 -19.5 156t-4.5 158q13 115 57 226.5t102 223.5q13 26 32 50.5t39 48.5q25 20 60.5 37t78.5 26q91 18 187 27.5t191 15.5q105 11 208.5 15t206.5 4q63 -2 127.5 -11.5t117 -28t85.5 -45.5 t32 -64q1 -15 -10.5 -28t-31.5 -23t-46.5 -17t-54.5 -10q-55 -5 -103.5 -7.5t-93 -3.5t-85 -0.5t-80.5 1.5q-67 1 -131.5 3.5t-131.5 2.5q-23 0 -46 -1t-46 -4q-32 -22 -51 -46.5t-30.5 -50.5t-17 -53t-9.5 -53l-1 -20l6 -16l2 -8q95 2 188 5.5t186 8.5q93 4 187 8t185 2 q49 0 96 -7t87.5 -20t71.5 -31.5t47 -42.5q5 -6 9.5 -11.5t2.5 -12.5z" />
<glyph unicode="G" horiz-adv-x="2147" d="M2236 659q0 -25 -7 -49t-15 -49q-30 -97 -114.5 -187.5t-208.5 -170.5q-60 -39 -132.5 -73.5t-156 -60.5t-177 -41t-194.5 -14q-127 -2 -237 20t-203.5 58t-170 83t-135.5 96q-62 50 -112 104t-83.5 111t-48.5 117t-7 121q13 109 93.5 211.5t211.5 190.5q60 44 136 85.5 t166 73t192 50.5t215 18q185 2 360.5 -28t323.5 -83q25 -9 53.5 -19.5t53 -23t42 -27t22.5 -32.5q0 -4 -2 -7.5t-2 -7.5l-19 -14l-25 -12q-26 -21 -74 -29q-69 2 -132 17t-124 29q-60 16 -123 27.5t-133 15.5q-87 3 -174 -6.5t-166 -29.5t-147 -49.5t-118 -66.5 q-56 -36 -96 -76t-66.5 -83t-40.5 -87t-18 -87q-8 -77 17 -152.5t96 -142.5q30 -35 79 -64.5t112 -50t136.5 -31t152.5 -8.5q59 -1 116.5 7.5t108.5 24t94 37t75 47.5q72 49 108.5 106t41.5 116q4 13 3 26.5t-4 26.5t-7 25.5t-7 25.5q-151 -12 -292 -30q-76 -9 -151.5 -16.5 t-152.5 -9.5q-46 -2 -85.5 11.5t-59.5 32.5q-24 20 -32.5 41.5t-8.5 44.5q3 17 21 32q103 33 219 48.5t231 33.5q120 14 240 29t241 17q95 1 156.5 -22.5t96 -59.5t45 -79.5t3.5 -80.5z" />
<glyph unicode="H" horiz-adv-x="2010" d="M1987 232q-10 -23 -19 -49t-27 -50t-48 -43.5t-82 -28.5q-42 -5 -78 1t-65 18t-50 29t-33 34q-18 28 -26 56.5t-11.5 58t-4.5 58.5t-5 58q1 42 -14 83.5t-39 81.5q-54 0 -107.5 2t-107.5 2q-69 -2 -137.5 -5.5t-137.5 -5.5q-69 -4 -137.5 -5t-135.5 -5q7 -38 15.5 -76.5 t16.5 -77.5t14.5 -78t8.5 -78q-3 -29 -9 -56.5t-19 -54.5q-18 -35 -55.5 -55t-82.5 -14q-64 5 -115.5 23t-87.5 44q-38 24 -60 53t-32 60q-16 67 -16 141q-4 74 5 145.5t18 144.5q11 75 24 148.5t22 148.5q8 29 11 56t6 55q5 29 9.5 56.5t7.5 56.5q9 22 17 46.5t23.5 47 t43 41t76.5 27.5q33 3 67 1t65 -8t58.5 -16t48.5 -23q42 -29 67.5 -63t23.5 -72l-2 -13l-2 -19v-5q-9 -38 -20 -74t-28 -73q-15 -38 -31 -75t-18 -75q-2 -9 1 -19t6 -19q168 0 331 2.5t331 1.5q22 3 33.5 11t16.5 18t6.5 21t3.5 20q1 45 -5 90l-12 90q-7 45 -12 89t-4 89 q1 17 5 40t17.5 43.5t40.5 34.5t75 13q65 -4 113 -21t83.5 -41.5t59.5 -54t40 -57.5q33 -59 51 -121t15 -125q3 -28 -2.5 -54t-7.5 -55l-9 -112q2 -61 2.5 -120.5t13.5 -118.5q6 -56 9 -111.5t-7 -112.5z" />
<glyph unicode="I" horiz-adv-x="1874" d="M1865 90q-6 -13 -16 -26t-37 -18q-261 -24 -525 -30t-528 3q-55 3 -114 9t-112 17.5t-95 30t-63 47.5q-8 11 -14 21t-6 22q6 15 25.5 22.5t45.5 10.5t53 3q28 0 50 1q62 2 125 2t126 8q2 12 0 23.5t0 22.5q5 85 18 168.5t26 168.5q17 88 33 174t27 174q7 45 5 90.5 t-19 90.5l-100 -8t-99 -8q-31 0 -69 -1t-76.5 -0.5t-75.5 4t-66 11.5t-47 22t-18 36q24 32 71.5 53.5t106.5 37t123.5 26t123.5 20.5q133 20 271 27t277 5q63 -3 133 -6t135 -12t120 -26t88 -48q-13 -34 -60 -59t-114 -33q-72 -3 -144 -10.5t-144 -13.5q-9 -36 -13.5 -73 t-10.5 -74q-9 -38 -16 -75.5t-12 -74.5q-2 -31 -2.5 -62.5t-0.5 -62.5q0 -32 1 -63t-3 -63q3 -49 -5 -100t-10.5 -101.5t8 -100t48.5 -94.5q29 0 58.5 -1t57.5 1h34l38 2l24 1q26 0 52 3t52 3q51 2 101.5 1t98.5 -12q27 -14 41 -27.5t19.5 -27t4 -26.5t-5.5 -25z" />
<glyph unicode="J" horiz-adv-x="1918" d="M2034 1174q0 -9 -9.5 -14.5t-23.5 -8.5t-30.5 -3.5t-30.5 1.5q-46 -2 -94 -2q-47 0 -93 -2q-21 -1 -40 -5.5t-33.5 -11.5t-23 -16.5t-7.5 -20.5q4 -14 5.5 -25.5t6.5 -24.5q38 -120 47 -241t-6 -244q-9 -58 -20.5 -117.5t-34.5 -118t-63.5 -114.5t-107.5 -107 q-35 -22 -79 -38t-93.5 -26.5t-102.5 -15.5t-107 -5q-109 0 -199.5 21.5t-166 55t-138 75t-114.5 81.5q-204 180 -316 381q-9 13 -11 25.5t-4 25.5q-1 15 13 26t36.5 18t49.5 10t53 3q56 -1 102 -12t82 -29t62 -41.5t42 -47.5q42 -60 80.5 -118.5t80.5 -118.5q16 -24 42 -47 t62.5 -41t82.5 -29.5t101 -12.5q59 10 94 32t56.5 50t34 58t27.5 56q54 138 65 273q3 51 3.5 101.5t-5.5 101t-19.5 100.5t-38.5 98q-9 20 -31 40t-66 22h-51q-45 -2 -97.5 1t-96.5 13t-71 28.5t-21 47.5q0 19 14.5 36t40 30t59 20t71.5 5q208 4 410 -3t404 -21 q68 -12 120.5 -37t75.5 -59q7 -14 15.5 -28t6.5 -30z" />
<glyph unicode="K" horiz-adv-x="1915" d="M1905 125q-3 -12 -11.5 -24t-22.5 -21.5t-34 -16t-47 -7.5q-42 -5 -81.5 -1.5t-74.5 13t-65 23t-53 28.5q-48 36 -94 73t-94 73q-140 101 -282 200.5t-285 200.5q-10 -89 -9.5 -177t2.5 -177q0 -23 2.5 -46t2.5 -46q-2 -29 -13 -59t-34 -59q-28 -21 -61 -34t-68.5 -19.5 t-72 -7.5t-70.5 3q-34 9 -51.5 24t-26.5 32.5t-13.5 36t-12.5 35.5q-5 38 -5 75q0 38 -2 76q-1 26 -4.5 50t-3.5 50q-3 27 -3.5 54t1.5 54q3 24 2.5 49t6.5 50l10 52l10 52q7 45 4.5 90.5t4.5 90.5q1 44 3.5 88t11.5 88q12 30 19.5 63.5t24 66t47.5 60t90 45.5 q40 5 79.5 2.5t71.5 -12.5t54.5 -25.5t29.5 -36.5q12 -42 14 -84t4 -85q-3 -20 1.5 -39.5t8.5 -40.5q144 67 288 133.5t290 132.5q33 14 72 23.5t80 14t83 4.5t83 -4q40 -1 72.5 -9.5t55 -23t34 -32t10.5 -36.5q-1 -22 -16 -42t-40 -37.5t-56 -33t-64 -28.5 q-88 -30 -174 -59.5t-174 -60.5q-33 -14 -67.5 -28.5t-63 -31.5t-49 -36.5t-25.5 -41.5q6 -31 28 -58.5t52 -54t64.5 -51t67.5 -49.5q94 -65 188 -128.5t188 -126.5q31 -24 62.5 -49.5t55.5 -52t37 -55t7 -59.5z" />
<glyph unicode="L" horiz-adv-x="1874" d="M2045 201q-14 -13 -36 -21t-48 -13q-138 -38 -285.5 -63.5t-298.5 -45.5q-150 -18 -301 -29.5t-303 -6.5q-77 3 -140.5 20t-114 43t-87.5 59t-61 66q-51 68 -72 140.5t-16 146.5q0 110 19 219.5t51 220.5q26 54 43.5 110.5t44.5 108.5t73 98t129 79q40 4 72.5 -2 t54.5 -19t32 -30.5t5 -35.5q-3 -62 -7.5 -123t-15.5 -123q-6 -50 -16 -98.5t-18 -99.5q-9 -50 -12.5 -99.5t-7.5 -100.5q3 -46 2 -95t9 -96.5t38 -92t89 -81.5q129 4 254.5 15.5t250.5 27.5q100 11 196.5 23t196.5 16q45 1 86 -6t76.5 -19.5t62.5 -29.5t44 -37q4 -7 8 -13 t3 -13z" />
<glyph unicode="M" horiz-adv-x="2813" d="M2749 97q-13 -14 -34.5 -24t-48 -17t-56 -11t-57.5 -6q-46 -1 -91.5 -2.5t-89.5 6.5q-17 7 -28.5 17t-19.5 20.5t-15 21.5t-15 21q-25 50 -41 100.5t-27.5 102t-20 103t-19.5 102.5q-6 41 -8 83.5t0 85.5q2 32 -0.5 62t0.5 62q-5 31 -10.5 62.5t-18.5 60.5 q-102 -63 -181 -132t-143 -142.5t-117.5 -148.5t-104.5 -150q-18 -29 -34.5 -56.5t-34.5 -56.5q-11 -12 -21 -25t-24 -24.5t-33 -21t-48 -13.5q-51 -2 -98 4.5t-86 20t-69.5 32t-48.5 41.5q-54 55 -85.5 115t-54.5 120q-13 31 -24 62t-24.5 61.5t-30 61t-39.5 59.5 q-41 -29 -59 -63.5t-24.5 -70.5t-6.5 -72t-4 -70q-2 -32 -0.5 -64t4.5 -64q5 -25 11.5 -49t17.5 -47q5 -23 13 -46t6 -46q5 -19 -1 -42.5t-25.5 -43t-53 -31t-84.5 -6.5q-78 4 -140 25.5t-96 56.5q-31 34 -47 68.5t-26 69.5q-22 94 -31 188t0 191q4 85 25 168t52 167 q31 54 56.5 109t60.5 103t89.5 86t144.5 58q56 4 105 -3t89 -22.5t70 -36.5t49 -45q19 -26 33 -53t26.5 -54.5t24.5 -55t27 -54.5q14 -36 29 -70.5t39 -69.5q12 -15 24 -32t29 -32t39.5 -27t55.5 -18q96 88 190.5 172.5t187.5 172.5q46 32 89 69t92.5 71.5t110.5 62 t143 39.5q64 -1 122 -11.5t107 -29t87 -43.5t61 -54q44 -58 65 -119.5t32 -122.5q8 -12 5.5 -23.5t1.5 -23.5q0 -32 -4.5 -63t-12.5 -63q-6 -32 -13 -64t-9 -64q-3 -10 -3.5 -20.5t0.5 -21t1 -21.5q0 -10 -2 -20q2 -32 10 -63t19 -62t23 -61.5t22 -61.5q23 -58 40 -116 t14 -118z" />
<glyph unicode="N" horiz-adv-x="2096" d="M2045 239q-11 -29 -27 -57.5t-42 -55.5q-27 -26 -70 -49t-102 -28q-109 2 -189.5 29t-144 66t-115 84t-102.5 84q-109 105 -216 207t-209 208q-41 -19 -63.5 -43t-33.5 -50.5t-15 -53.5t-8 -53q-4 -42 0.5 -84t8.5 -85q-4 -42 2 -83.5t5 -83.5q-5 -20 -5 -46t-9.5 -50 t-35 -41t-80.5 -20q-42 2 -82 10.5t-67 23.5q-20 18 -40.5 36.5t-27.5 40.5q-29 46 -46 94t-25.5 96.5t-11 97.5t-2.5 98q2 35 4.5 68t10.5 68q9 78 26.5 154t41.5 154q26 52 43.5 103t41.5 97.5t63 86.5t108 69q70 1 123.5 -14.5t95 -40t75 -54t65.5 -55.5 q86 -95 164.5 -190t159.5 -192q34 -39 67 -78.5t70 -77.5t80.5 -74t98.5 -69q23 32 32.5 66t13.5 69q4 130 -15 258q-8 63 -13.5 124.5t-5.5 124.5q2 17 4 37.5t7.5 41.5t16.5 41t31.5 36t52.5 25.5t79 9.5q76 -6 127.5 -28t82 -53.5t43 -68t10.5 -70.5q4 -49 3 -96.5 t-3 -96.5l-7 -199q-9 -112 -20.5 -222t-22.5 -222z" />
<glyph unicode="O" horiz-adv-x="1980" d="M2063 766q-5 -60 -21 -120t-45 -119t-72.5 -116.5t-103.5 -111.5q-52 -53 -125.5 -105t-166.5 -92.5t-204 -65t-238 -22.5q-123 -1 -227.5 22t-189 61.5t-148.5 87.5t-107 100q-100 104 -139 218t-23 229q11 106 71.5 211.5t180.5 196.5q57 46 135 86t170 69t196 44.5 t214 12.5q105 1 204 -12.5t185.5 -40t157 -63.5t119.5 -82q51 -43 85.5 -90t55.5 -96.5t29.5 -100t6.5 -101.5zM1601 857q4 49 -8.5 96.5t-49.5 92.5q-14 22 -40.5 42t-63.5 35t-81.5 23.5t-92.5 8.5q-78 3 -148 -11t-128.5 -38t-103.5 -55.5t-73 -65.5q-66 -71 -97 -147 t-37 -152q-8 -64 4.5 -127.5t41.5 -125.5q15 -27 34 -56.5t50 -55t76 -44t111 -21.5q96 1 169 24t128 58t95.5 77t71.5 80q28 44 53 89t44.5 90t31 91t13.5 92z" />
<glyph unicode="P" horiz-adv-x="1703" d="M1920 957q4 -48 -24 -93.5t-78.5 -86.5t-120 -75.5t-149.5 -59.5q-86 -30 -178.5 -52t-189.5 -38.5t-197.5 -28t-200.5 -20.5q-2 -17 -7 -36t-4 -37q0 -36 2 -71t7 -71q15 -66 15 -134q0 -26 -15 -53t-55 -46q-73 -18 -131 -19.5t-109 3.5q-42 4 -70.5 16.5t-46 30 t-25.5 38t-8 38.5q8 38 13 73.5t14 73.5q15 66 23 131.5t13 131.5q1 73 -4 145.5t-12 146.5q-9 69 -10.5 139t2.5 140q2 7 2.5 13.5t2.5 12.5q5 35 34 67.5t82 57.5q57 24 127 33.5t141 15.5q93 4 181 7t181 3q79 0 157.5 -6.5t152 -20.5t140 -35t121.5 -49 q109 -57 169 -131t55 -154zM1531 993q-6 66 -68 120q-31 26 -74.5 48.5t-110.5 24.5q-61 4 -125.5 0.5t-125 -14t-114.5 -28t-94 -41.5t-63 -53.5t-22 -64.5q-5 -62 12.5 -122.5t55.5 -118.5q124 3 238 24t220 53q47 13 94 31t85 39.5t63 47t29 54.5z" />
<glyph unicode="Q" horiz-adv-x="1894" d="M1881 44q-8 -29 -51 -51.5t-103 -26.5q-13 -2 -25.5 -3t-25.5 -1q-60 49 -130.5 94.5t-164.5 80.5q-26 -27 -66 -50.5t-89.5 -41t-106.5 -27t-117 -8.5q-97 0 -180 17t-153 45t-127.5 64t-102.5 74q-94 77 -148 163.5t-62 177.5q0 21 -2 42.5t0 41.5q9 115 63.5 226.5 t158.5 215.5q46 50 112.5 99t151 88t187 63.5t221.5 24.5q111 3 203 -18t165.5 -56.5t127 -81t88.5 -92.5q73 -97 100.5 -201t20.5 -210q-6 -51 -17.5 -102.5t-36.5 -102t-66.5 -98.5t-106.5 -90q45 -46 105.5 -86.5t123.5 -80.5q23 -20 40.5 -42t12.5 -47zM1399 696 q3 69 -1 138.5t-26 138.5q-10 28 -23.5 60.5t-39 61t-67.5 49t-109 25.5q-89 -7 -151.5 -34t-107.5 -64t-76 -78.5t-56 -77.5q-62 -89 -95.5 -179t-42.5 -183q1 -29 1.5 -63t6.5 -68.5t21 -67t45.5 -59.5t79.5 -45.5t123 -24.5q37 0 72 8t63 20.5t47.5 29t25.5 34.5 q-34 27 -73 52t-77 51q-40 24 -66.5 53t-31.5 61q-1 13 10.5 24.5t31.5 19.5t45.5 12t51.5 2q52 -2 102.5 -10.5t94 -23t78.5 -33.5t57 -42q28 24 43.5 50.5t24 53.5t12 54.5t7.5 54.5z" />
<glyph unicode="R" horiz-adv-x="2191" d="M2185 114q-5 -22 -26.5 -42.5t-69.5 -27.5q-70 -9 -129.5 -1t-109.5 26.5t-91.5 44t-75.5 50.5q-47 31 -89.5 61.5t-96.5 57.5q-156 75 -321 143t-341 130q-25 -32 -31 -65.5t-9 -68.5q-1 -32 1 -64l4 -64q2 -42 -8.5 -82.5t-28.5 -81.5q-25 -43 -73 -70t-120 -22 q-57 4 -107 17.5t-79 36.5q-20 25 -31.5 50t-11.5 51q-5 36 -2.5 72.5t8.5 72.5t13.5 72.5t13.5 72.5q17 77 32.5 153.5t28.5 153.5q4 49 -6 97.5t-19 97.5q-13 46 -15 92.5t4 94.5q4 24 20 50t44.5 47.5t70 37t97.5 19.5q192 13 383 18.5t384 3.5q65 1 126.5 -7t116.5 -23 t102.5 -36t84.5 -46q40 -24 72.5 -52t54.5 -58.5t32.5 -62.5t7.5 -65q1 -34 -18 -65.5t-53 -60.5t-78.5 -55t-92.5 -49q-102 -51 -226 -88t-267 -50q145 -48 280 -101t264 -111q53 -25 108.5 -49.5t106 -51.5t93 -57t69.5 -65q2 -10 5.5 -20t5.5 -20.5t1 -20.5t-8 -20z M1596 1029q4 22 -6.5 43.5t-35 39t-62 27.5t-87.5 8q-121 2 -241 0t-241 -4q-33 -6 -49 -18t-23 -27.5t-9 -32t-7 -29.5q-3 -31 -6.5 -62.5t-3.5 -63.5q0 -31 5.5 -61.5t22.5 -60.5q121 0 234.5 23t216.5 53q47 14 96.5 30.5t91.5 36.5t70.5 44.5t33.5 53.5z" />
<glyph unicode="S" horiz-adv-x="1976" d="M2026 440q-7 -51 -47 -96.5t-101.5 -85.5t-139.5 -73.5t-161 -59.5q-169 -56 -360.5 -84.5t-392.5 -23.5q-121 8 -234.5 28t-219.5 47q-9 20 -21 39.5t-23 39.5t-19 40.5t-8 41.5l5 13l27 7q51 -4 97.5 -12.5t95.5 -16.5q51 -8 99 -14.5t99 -9.5q85 -4 182.5 -2.5t195 11 t188 28t161.5 47t115.5 69.5t50.5 95q0 13 2 29t-2.5 31t-20 26t-49.5 14q-78 -1 -157.5 -2.5t-156.5 -4.5q-78 -2 -156 -2.5t-155 -2.5q-65 1 -132 3.5t-131.5 9.5t-124.5 20t-112 34q-50 21 -80.5 48t-46 57t-19 62t1.5 63q5 48 31.5 94.5t68.5 90t98.5 83.5t121.5 75 q66 35 144.5 64.5t165.5 50.5t180.5 32t188.5 9q118 0 237.5 -14t223.5 -42.5t184.5 -71.5t120.5 -101q7 -8 11.5 -15.5t5.5 -16.5q0 -11 -11 -17.5t-26.5 -9.5t-33.5 -3t-33 2q-72 3 -136 14.5t-130 25.5q-67 11 -135 23t-140 12q-120 5 -237.5 -13.5t-218.5 -54.5 q-51 -15 -94.5 -36t-76 -46t-52 -53t-22.5 -58q-7 -22 5 -42t38.5 -34.5t65 -22.5t84.5 -5q64 0 126 5t126 10q66 5 128 12t126 6q72 0 143 -6.5t136 -20.5t120.5 -35.5t97.5 -50.5q79 -54 105 -120t13 -133z" />
<glyph unicode="T" horiz-adv-x="2024" d="M2191 1210q1 -26 -25 -43.5t-66.5 -28t-88 -15t-88.5 -5.5q-106 -5 -213 -2.5t-213 4.5q-25 -109 -48.5 -217t-43.5 -217q-22 -109 -44.5 -217.5t-51.5 -217.5q-15 -30 -26 -66.5t-32.5 -71t-60.5 -61.5t-110 -38q-52 -3 -102.5 5t-89.5 24t-60.5 39t-13.5 51 q4 47 12 91.5t27 89.5q13 46 29 92t31 92.5t27 92.5t17 92q4 55 6 111t-1 111.5t-13 110.5t-31 109q-144 -2 -287.5 -6.5t-287.5 -10.5q-32 5 -39 18q-12 16 -17.5 23t-8.5 12q-5 17 -8.5 34.5t-4.5 35.5q6 15 24 24t42 15t51 9t51 6q218 14 433 25t434 18q164 6 324 5.5 t322 -5.5q46 -4 85.5 -15t71.5 -28q32 -15 56 -34t32 -41z" />
<glyph unicode="U" horiz-adv-x="1850" d="M1927 1198q-12 -18 -29 -35t-34 -35q-22 -35 -28 -71t-10 -72q0 -36 2 -71t3 -71q-2 -36 1 -71t-2 -71q-9 -101 -40 -202t-99 -197q-44 -58 -105 -110.5t-140 -92.5t-174.5 -63.5t-208.5 -21.5q-90 -2 -174 9.5t-158.5 33.5t-136.5 52.5t-108 67.5q-94 72 -137 156 t-35 172q0 62 8 121.5t16 121.5q14 61 25 121.5t24 122.5l2 18l5 17l-3 9q2 23 -4.5 46t-11.5 46q-4 23 -8.5 46t0.5 46q9 25 35.5 44t68.5 33q38 16 83 25.5t93 13.5q82 -17 124 -50t58.5 -73.5t16 -84.5t-2.5 -82q-11 -67 -22.5 -132.5t-25.5 -131.5q-9 -69 -21.5 -135.5 t-19.5 -134.5q-1 -44 6 -87t27 -85q9 -19 23.5 -38.5t37 -35.5t55 -27t77.5 -12q67 4 116.5 19.5t85.5 38.5t60.5 52t41.5 60t28.5 61.5t22.5 56.5q28 136 50 269.5t42 270.5q6 38 18 77t36 76q15 23 35 44.5t46 37t60 24t78 5.5q42 -6 80.5 -18.5t67.5 -29.5 q32 -14 55.5 -32.5t23.5 -40.5z" />
<glyph unicode="V" horiz-adv-x="1860" d="M2016 1155q0 -28 -16 -53.5t-44 -50.5q-29 -26 -57 -51t-58 -51q-41 -49 -76 -98.5t-69 -99.5q-41 -72 -86.5 -142.5t-90.5 -142.5q-51 -69 -105 -138t-120 -135q-30 -32 -72 -64t-96 -58t-120 -41.5t-144 -14.5q-47 3 -82 17t-55 35q-29 42 -49 88q-29 60 -52.5 119.5 t-36.5 119.5q-15 62 -32.5 123.5t-30.5 124.5q-42 146 -100 286t-127 282q-2 4 -2.5 7t-2.5 7q3 9 12.5 17.5t22.5 15.5t28.5 13.5t30.5 11.5q14 6 31 9.5t35.5 6t37.5 4.5t37 4q76 -2 117.5 -25t63.5 -55.5t31.5 -68.5t21.5 -65q11 -112 25.5 -221.5t34.5 -221.5 q7 -30 11.5 -59.5t22.5 -57.5q10 -23 19.5 -44t23.5 -37.5t35.5 -27.5t54.5 -15q49 23 80.5 52.5t53.5 61.5t40 65.5t41 64.5q44 77 87 153t80 154q36 56 77 110.5t86 108.5q22 20 43 43.5t47 45.5t60 39t82 25q54 -8 93.5 -28t71.5 -42q31 -24 54.5 -50t31.5 -56z" />
<glyph unicode="W" horiz-adv-x="2413" d="M2441 1094q0 -29 -3 -58t-11 -58q-9 -48 -15.5 -96t-8.5 -97q2 -22 0 -44.5t0 -44.5q0 -23 -1.5 -44t-3.5 -44q-13 -85 -45.5 -168.5t-99.5 -163.5q-30 -38 -70.5 -77t-94.5 -72.5t-123.5 -56.5t-158.5 -29q-54 -3 -103.5 3.5t-93 19.5t-80 31t-63.5 38 q-32 22 -57.5 46.5t-47.5 49.5t-42 50t-41 50q-19 -30 -41 -64.5t-51.5 -68t-66.5 -64.5t-86 -54.5t-110.5 -37t-139.5 -13.5q-70 3 -133 17t-115 35.5t-91.5 50t-61.5 59.5q-27 40 -41 82.5t-21 85.5t-10 86.5t-8 85.5q2 35 -0.5 67.5t2.5 67.5q8 85 28 168.5t55 167.5 q31 53 60 107t70.5 100t103.5 80t159 49q61 2 95 -13.5t49.5 -39.5t16 -51t-3.5 -49q-11 -43 -26 -84.5t-37 -83.5q-7 -17 -20.5 -33t-22.5 -33q-21 -46 -42.5 -92t-39.5 -92t-31 -92t-18 -93q-5 -50 11 -99t54 -95q63 38 108 81t77.5 88.5t56 93.5t44 96t40.5 96t46 94 q5 32 18.5 62t28.5 61q8 15 24 30.5t39 27.5t53 19t65 5q62 0 105 -11.5t71 -30.5t44 -44t25 -52t13 -53.5t9 -49.5q6 -50 9.5 -99.5t7.5 -99.5q13 -91 42.5 -178.5t93.5 -169.5q42 36 66 75t38.5 79.5t23 81t19.5 81.5q18 89 28 177t23 176q7 43 12.5 85t16.5 84 q13 30 18.5 49t19.5 35l8 15l16 17q24 13 37 18.5t26 3.5q85 -4 142.5 -27.5t92.5 -57.5t51 -74t18 -76z" />
<glyph unicode="X" horiz-adv-x="1946" d="M1918 114q-11 -15 -32.5 -26.5t-50.5 -19.5q-23 -11 -55 -18t-63 -12q-72 2 -124.5 21t-95 45.5t-79 57t-75.5 55.5q-78 71 -150 142t-145 143q-60 -69 -121.5 -138.5t-119.5 -139.5q-29 -25 -56.5 -55.5t-62.5 -57.5t-81 -46.5t-112 -23.5q-38 3 -71.5 12t-58.5 23 t-39 31.5t-14 37.5q-1 9 -0.5 17t0.5 17q12 54 51.5 105t92.5 99t113.5 95t114.5 94q43 36 88.5 71.5t82.5 73.5q-26 39 -58 76.5t-66 74.5t-69 74t-68 75q-26 30 -53.5 59.5t-52 60t-42 62t-21.5 64.5q3 16 19 27.5t39.5 19t52 12t55.5 6.5q30 2 63 4t59 -4q26 -7 42 -17.5 t33 -21.5q45 -34 81 -70t71 -72q52 -49 95 -100t93 -100q48 58 105 113t119 111q30 21 56 45t55.5 47t65 42.5t84.5 30.5q48 -2 89.5 -13.5t73 -29t50.5 -39.5t21 -46q-10 -49 -38.5 -94.5t-70 -89t-93 -85t-107 -82t-113 -80t-111.5 -79.5q37 -44 80 -85.5t88.5 -83 t92.5 -82t92 -82.5q33 -31 68 -61.5t68 -61.5t62.5 -63t52.5 -65z" />
<glyph unicode="Y" horiz-adv-x="1713" d="M1908 1201q-2 -35 -21.5 -68t-49 -64.5t-65 -62.5t-69.5 -61q-85 -69 -172 -138.5t-162 -142.5q-80 -91 -150 -182.5t-139 -184.5q-27 -42 -55.5 -81.5t-53.5 -80.5q-15 -16 -31 -35t-36.5 -36t-48.5 -30t-68 -17q-63 -1 -113.5 12.5t-85.5 36t-52 51t-12 57.5 q7 56 38.5 110t76 106.5t97.5 103t104 100.5q-98 -1 -176.5 19t-138.5 53t-101.5 74.5t-65.5 83.5q-48 84 -58.5 170.5t7.5 174.5q3 22 19 44.5t43.5 40.5t65.5 30.5t86 15.5q47 1 76.5 -10.5t47.5 -29t27.5 -38.5t15.5 -39q6 -62 17 -123t19 -123q6 -23 20.5 -46.5 t40.5 -42.5t64 -31.5t91 -12.5q69 16 117.5 44t86 61t68.5 68.5t65 66.5q33 34 63 69.5t62 70t68 67.5t81 63q25 13 58 16t64 1q47 -4 89 -15.5t74 -29t51 -39.5t21 -46z" />
<glyph unicode="Z" horiz-adv-x="1915" d="M1927 217q-11 -27 -36.5 -50t-76.5 -36q-186 -39 -381 -59.5t-392 -35.5q-107 -7 -214.5 -10.5t-213.5 3.5q-48 4 -87.5 17.5t-74.5 28.5q-16 8 -32 16.5t-29.5 17.5t-22.5 19t-12 22q7 18 9 34.5t13 33.5q27 41 62 81t74.5 79t82 77t85.5 76q93 78 191 154.5t199 152 t203.5 150.5t203.5 150q-73 9 -150.5 14t-155.5 3q-41 0 -83 -0.5t-84 -2.5q-41 0 -80 -1t-80 -1q-72 -4 -140 -2.5t-140 2.5q-41 2 -80 6.5t-68.5 12.5t-47 20t-14.5 30q38 42 108 65.5t154.5 36t174.5 17t169 9.5l164 5q41 0 81.5 0.5t82.5 -0.5q60 -1 126.5 -5.5t131 -14 t123 -24t103.5 -36t72.5 -49.5t30.5 -64q-1 -39 -18 -76t-44.5 -73t-63 -70.5t-72.5 -67.5q-109 -89 -221 -175t-233 -171q-51 -37 -102 -74.5t-99.5 -75.5t-93 -77.5t-81.5 -80.5q204 5 405.5 23t396.5 47q13 2 24 3t24 3q39 3 83 0.5t79.5 -11.5t55.5 -25t11 -41z" />
<glyph unicode="[" horiz-adv-x="1348" d="M1343 143q-1 -19 -15 -37t-38 -33t-57 -25.5t-72 -13.5q-154 -17 -309.5 -18.5t-310.5 11.5q-29 2 -51.5 9t-44.5 13q-35 16 -58.5 36t-38.5 42t-21.5 45t-7.5 46q-2 76 0 151t0 150q-2 78 -0.5 155t14.5 155q7 60 16.5 120.5t25.5 120.5t41 119.5t64 117.5q8 5 14.5 11 t17.5 10q183 22 366.5 25t362.5 -17q36 -5 67 -15t54 -24t36 -31t13 -35q1 -9 -5 -16t-16 -13t-21 -11.5t-21 -11.5q-26 -10 -58.5 -16t-65.5 -4q-100 8 -199 10t-199 0v-3q-3 -10 -7.5 -19.5t-9.5 -18.5t-9 -18.5t-5 -18.5q-6 -71 -14.5 -142t-17.5 -142q-9 -73 -17 -145 t-10 -145q-3 -26 -6 -51t-8 -51q-4 -25 -6.5 -49t-2.5 -50q-4 -25 -2.5 -50t1.5 -49q82 -7 163.5 -8t163.5 1q34 2 65.5 3t64.5 4q31 0 64 -4.5t59.5 -14t41.5 -23.5t9 -32z" />
<glyph unicode="\" horiz-adv-x="1328" d="M1452 67q1 -11 -6.5 -20.5t-20 -17t-30 -13t-36.5 -7.5q-65 2 -109 20t-76 43.5t-57.5 55t-53.5 53.5q-208 223 -389 448t-336 460q-26 32 -48 65.5t-46 65.5q-9 15 -18.5 30.5t-17 31t-11.5 31.5t-1 32q12 17 40.5 26t62.5 11q34 3 64.5 -1t56 -13t47 -21.5t38.5 -25.5 q31 -32 62.5 -63t62.5 -63q99 -100 191.5 -200.5t173.5 -204.5q48 -71 100.5 -141.5t102.5 -141.5q47 -58 89 -114t89 -113q15 -26 31 -52.5t28 -53t17.5 -53.5t-0.5 -54z" />
<glyph unicode="]" horiz-adv-x="1352" d="M1338 538q-8 -61 -18 -122t-26.5 -121.5t-42 -120.5t-65.5 -118q-5 -5 -11.5 -10.5t-17.5 -9.5q-183 -20 -366 -21.5t-361 16.5q-75 9 -121.5 38.5t-50.5 67.5q-3 8 3 15t16.5 13t23 11.5t20.5 11.5q28 9 58 16.5t63 3.5q99 -6 200 -8t201 -2v3q5 20 16 38t15 37 q6 71 14.5 141t17.5 141q9 73 16 145t12 145q0 26 5.5 51.5t7.5 51.5q4 26 6.5 50t2.5 50q5 25 2 50t-1 49q-82 7 -163.5 8.5t-163.5 -1.5q-34 -2 -65.5 -2.5t-64.5 -2.5q-32 -1 -65 3t-58.5 13t-40.5 23t-10 33q3 18 17 36t38 32.5t56.5 24.5t71.5 12q153 18 309.5 21 t309.5 -10q25 -4 52 -9t44 -15q37 -15 61 -34t38 -41t19 -45.5t5 -45.5q4 -75 2.5 -150.5t0.5 -151.5q2 -78 0.5 -155t-12.5 -155z" />
<glyph unicode="^" horiz-adv-x="1266" d="M1359 751q-3 -14 -18.5 -26t-38 -21t-49 -14t-53.5 -6q-21 -1 -44 -1t-44.5 3t-39 9.5t-26.5 17.5q-53 78 -112 152.5t-122 149.5q-66 -75 -128.5 -151.5t-127.5 -153.5q-5 -9 -17 -13.5t-27.5 -6.5t-33.5 -2h-33q-38 2 -72.5 9t-63.5 18q-31 9 -51.5 23t-27.5 32 q8 37 31.5 73t55 70.5t67.5 68t70 66.5q41 29 78.5 62t79.5 64.5t92 58t117 42.5q77 -12 133 -37.5t99 -58t78.5 -68.5t71.5 -68q30 -35 60.5 -70t54.5 -71t36 -73.5t5 -77.5z" />
<glyph unicode="_" horiz-adv-x="2113" d="M2062 48q-25 -21 -67.5 -31t-86.5 -12q-749 -8 -1498 0q-32 2 -61 9.5t-51 18.5t-35 25.5t-12 31.5q33 27 79 44.5t100.5 27.5t115 14t122.5 6t122.5 3t114.5 4q54 2 110.5 -0.5t110.5 -2.5q58 -2 113 -2.5t114 -0.5q62 1 125 -1.5t125 -2.5q61 -2 122 -2t123 -1 q39 -8 84.5 -19t80.5 -26.5t51.5 -36t-2.5 -46.5z" />
<glyph unicode="`" horiz-adv-x="492" d="M662 1490q0 -13 -19.5 -20t-40.5 -11q-78 1 -131 22.5t-88 52t-56 66.5t-35 67q-4 12 -8.5 22.5t-0.5 22.5q1 12 11.5 22.5t27 19t38 13.5t44.5 6q75 -7 120.5 -32t73 -59t42 -71t27.5 -68q2 -13 2 -27q0 -13 -7 -26z" />
<glyph unicode="a" horiz-adv-x="1929" d="M1961 169q-6 -20 -20 -41t-38 -38.5t-58.5 -29.5t-79.5 -14q-48 -6 -92 0t-78.5 20t-57.5 34t-27 43q-2 52 -17 102.5t-25 100.5q-98 -2 -195 0q-51 -1 -100.5 2.5t-100.5 1.5q-85 0 -171 -3.5t-172 -11.5q-22 -45 -50.5 -89t-50.5 -89q-13 -17 -26.5 -37t-33.5 -38 t-49 -30t-72 -13q-54 4 -104 16.5t-78 36.5q-20 25 -27 51t-9 53q0 56 12.5 112t33.5 112t47.5 111.5t54.5 110.5q56 106 117.5 211.5t138.5 209.5q42 43 90 92t111 91t145.5 71.5t192.5 35.5q95 0 167.5 -21.5t126.5 -54.5t90 -74t59 -80q25 -44 44 -89t34 -91t27.5 -92 t25.5 -92q20 -90 47 -180t76 -178q19 -28 39 -56.5t35 -57t21 -58t-3 -60.5zM1449 536q-16 78 -33.5 156t-34.5 156q-14 36 -27.5 73t-33.5 72.5t-50.5 68.5t-78.5 61q-56 -28 -98.5 -61t-75.5 -68.5t-58 -72.5t-46 -74q-40 -78 -65 -154.5t-49 -154.5q163 -2 324 -2h326z " />
<glyph unicode="b" horiz-adv-x="2086" d="M2149 445q-11 -61 -64.5 -114.5t-135.5 -98t-184 -79t-210 -57.5q-220 -48 -457 -64.5t-470 0.5q-90 5 -148.5 34.5t-95.5 66.5q-31 38 -53.5 79t-18.5 83q-1 40 12.5 80.5t28.5 78.5q16 57 28 111t17 111q8 130 5 258.5t-12 258.5q36 26 82 47t99.5 37.5t111.5 28.5 t118 20q120 16 241.5 21.5t245.5 5.5q63 0 126.5 -2.5t126 -8.5t122 -16.5t113.5 -26.5q56 -15 99 -37.5t72 -50.5t43 -59t13 -63q0 -36 -18.5 -71.5t-50 -69t-73 -65t-87.5 -59.5q104 -24 178 -68t119 -96q92 -100 77 -215zM1553 1053q6 19 -4.5 37.5t-33.5 33t-56.5 23 t-74.5 7.5q-95 0 -188.5 -2.5t-185.5 -19.5q-44 -8 -83 -22t-69.5 -32.5t-50.5 -40t-24 -45.5q-4 -8 -4.5 -16.5t-1.5 -16.5q-2 -20 -5.5 -41.5t-1.5 -41.5q2 -21 1.5 -42.5t1.5 -41.5q71 12 151.5 24t161 26.5t157 32.5t140 43t108.5 58t62 77zM1673 510q11 31 -4 61.5 t-51 54.5t-90 37.5t-120 10.5q-102 -2 -195 -18.5t-182 -39.5q-41 -12 -83 -24.5t-81 -27.5t-72.5 -32.5t-58.5 -38.5q-8 -33 -10 -65l-4 -64q-4 -32 0.5 -64t14.5 -63q152 -5 302 4.5t292 38.5q69 15 132 38t110 53t74.5 65.5t25.5 73.5z" />
<glyph unicode="c" horiz-adv-x="1915" d="M2022 951q3 -17 -5 -36t-27.5 -34t-50 -23.5t-72.5 -5.5q-72 0 -127 22t-86 51q-32 32 -59 65t-56 65q-18 16 -44 30t-58.5 23.5t-69.5 15t-77 4.5q-91 1 -161 -20t-123 -53.5t-92.5 -71.5t-68.5 -75q-62 -84 -98.5 -170.5t-41.5 -174.5q-7 -42 -4 -83t12 -82 q12 -31 29 -60.5t44.5 -52.5t67 -37.5t95.5 -15.5q103 -2 208.5 5t201.5 33q48 11 87 29.5t81 36.5q45 17 96.5 29t108.5 12q39 2 63.5 -7t37.5 -24t14.5 -33t-4.5 -33q0 -18 -8 -33q-20 -29 -56 -53t-82 -43.5t-97.5 -35.5t-101.5 -31q-103 -29 -213.5 -49t-228.5 -21 q-106 -2 -202 14.5t-178 46t-148 68.5t-112 84q-100 88 -140 187t-35 200q9 123 77.5 242t198.5 226q58 52 136.5 101.5t175.5 88t210 61t239 19.5q155 -4 283.5 -42t223.5 -95q49 -27 92.5 -57.5t75.5 -63.5t50.5 -69t18.5 -74z" />
<glyph unicode="d" horiz-adv-x="1881" d="M1980 783q-1 -70 -27 -138.5t-74.5 -134t-117 -127.5t-153.5 -118q-82 -56 -188 -104t-228 -81.5t-257 -48.5t-275 -4q-48 3 -88.5 12.5t-75 24t-63 32.5t-52.5 37q-38 42 -60 85t-24 89q2 72 10.5 143.5t16.5 143.5q21 76 36 152t29 152q5 16 6.5 31.5t1.5 30.5v31 q0 16 2 31q2 31 6.5 63t9.5 64q10 32 25 64.5t53 61.5q38 28 99 44.5t130 18.5q122 7 249 7.5t250.5 -9t238.5 -32.5t213 -62q94 -41 155.5 -94.5t97 -114t47 -124.5t7.5 -126zM1579 835q1 17 -1.5 35t-3.5 36q-5 25 -9.5 51t-15.5 50.5t-32 46.5t-60 40q-41 16 -88 25.5 t-97 14.5t-102 6.5t-103 1.5q-27 -2 -54 -1t-54 -1q-26 -2 -51 -2t-51 -1q-43 -41 -66 -85.5t-35 -90t-17.5 -91.5t-14.5 -90q-5 -62 -10 -121t-7 -121q0 -58 9.5 -116t37.5 -113q91 -4 181 7.5t170.5 34.5t148 56.5t113.5 73.5q54 39 92.5 82t63.5 88t38 91.5t18 92.5z" />
<glyph unicode="e" horiz-adv-x="1966" d="M2103 398q-56 -43 -134.5 -75.5t-167.5 -59t-183 -49.5t-181 -48q-94 -23 -189.5 -46t-194 -42.5t-199 -32.5t-205.5 -14q-60 2 -115.5 14t-93.5 35q-33 26 -53 55t-35 58q-41 67 -54.5 135.5t-14.5 137.5q3 62 14.5 124t29 124t39.5 123.5t45 123.5q23 60 47.5 121 t53.5 121q25 29 70.5 48.5t100 32.5t114.5 22t114 17q205 20 389 24.5t364 -4.5q42 -1 81 -8.5t68 -21t46 -32t15 -40.5q1 -17 -13.5 -31t-38.5 -23.5t-54 -14.5t-61 -5q-67 -1 -135 -0.5t-135 2.5q-93 2 -184 -6t-178 -25q-42 -8 -80.5 -20.5t-70.5 -29t-55 -36.5t-33 -42 q-6 -18 -12.5 -36.5t-7.5 -36.5q-4 -11 -1.5 -22t4.5 -22q116 2 227.5 13.5t226.5 21.5q111 12 224 21.5t228 7.5q40 1 80 -5t70.5 -18.5t47 -31t9.5 -40.5q-1 -29 -32 -48.5t-77.5 -31.5t-100 -18t-99.5 -8q-148 -8 -293 -15.5t-291 -21.5q-75 -11 -136.5 -34.5t-104.5 -55 t-65.5 -68.5t-20.5 -75q-5 -57 14 -113t47 -112q140 14 273 46t260 67q63 17 128.5 33.5t133 29.5t137.5 22t142 12q39 2 77.5 -1.5t72.5 -12.5t60.5 -22.5t43.5 -31.5z" />
<glyph unicode="f" horiz-adv-x="1563" d="M1801 1183q-9 -17 -33 -24.5t-54.5 -10t-63 -3t-58.5 -2.5q-109 -2 -217 -3t-214 -10q-51 -6 -100.5 -16t-92.5 -24.5t-76.5 -34t-51.5 -45.5q-27 -38 -42.5 -78t-15.5 -80q-3 -15 0 -29q59 0 118 3t119 5q62 2 121 4.5t121 0.5q72 0 142 -4t133 -20q59 -20 81.5 -55 t15.5 -69q-1 -17 -21.5 -32.5t-56.5 -17.5q-38 -6 -74 -6.5t-71 -0.5q-82 -3 -168.5 -2.5t-172 -3t-166 -15t-150.5 -37.5q-12 -23 -17.5 -46.5t-8 -47.5t-4.5 -47.5t-6 -47.5q-5 -53 -8.5 -104t-3.5 -104q-3 -20 -10 -45.5t-25 -47.5t-50.5 -36.5t-87.5 -12.5 q-70 6 -115.5 26.5t-72.5 49t-38 61.5t-12 63q0 24 6 47.5t9 47.5q9 52 17.5 102t9.5 101q5 30 3 59.5t1 58.5q0 31 3 61.5t5 61.5q8 42 7.5 81.5t6.5 80.5q2 40 8 78t12 78q4 15 6 30.5t6 30.5q10 21 33.5 39t55.5 32.5t70 25t77 17.5q84 12 166 22t168 18q71 10 144 15.5 t145 13.5q71 4 140 5t138 -4q55 -5 99.5 -21t79.5 -37l31.5 -21t29.5 -23t21.5 -24.5t8.5 -26.5z" />
<glyph unicode="g" horiz-adv-x="1969" d="M2062 708q-7 -54 -24.5 -107.5t-35.5 -107.5q-27 -85 -99 -165t-181 -149q-51 -35 -115 -66t-138.5 -53.5t-157 -35t-169.5 -10.5q-116 -2 -222 14.5t-197.5 47t-166 72t-126.5 89.5q-109 94 -154 201.5t-37 216.5q4 65 26.5 129.5t65 126.5t105.5 120t148 109 q79 53 184 94.5t224.5 68.5t249 38.5t258.5 5.5q49 -1 101.5 -6.5t96.5 -18t72.5 -32.5t28.5 -49q-2 -10 -3 -22t-7.5 -23t-20.5 -18.5t-41 -8.5q-18 2 -34 3.5t-34 1.5q-107 6 -215.5 -2.5t-208.5 -30.5t-187.5 -56.5t-151.5 -80.5q-68 -46 -114.5 -97t-76 -105 t-44.5 -109.5t-19 -110.5q-5 -38 -1.5 -80t20 -84t48 -80t81.5 -67t121 -46.5t166 -17.5q51 -2 99.5 4t93.5 18t84 28.5t71 36.5q60 41 97 88t50 98q11 26 14 52.5t8 52.5q2 23 1 46.5t-6 46.5q-51 -2 -105 -5.5t-105 -12.5q-51 -5 -103.5 -11t-106.5 -4q-38 -2 -71.5 4.5 t-57 19t-35 29.5t-5.5 36l4 17l8 17l2 3q22 20 60 31.5t76 21.5q74 15 149.5 31t152 29.5t155 22.5t159.5 9q50 -3 95 -13.5t81.5 -27t63 -37t40.5 -44.5q11 -21 16 -42.5t0 -43.5z" />
<glyph unicode="h" horiz-adv-x="1990" d="M1935 123q-8 -15 -25.5 -28t-42 -22.5t-53 -15.5t-58.5 -8q-51 -5 -88 5t-62.5 28t-40 40.5t-19.5 43.5q-13 46 -16 92.5t-1 94.5q-1 24 -0.5 49t-0.5 49.5t-4.5 49.5t-11.5 49q-118 -8 -234 -10t-234 -2q-77 0 -152.5 2t-150.5 4q-16 -53 -28 -104t-12 -104 q-2 -31 1.5 -61.5t5.5 -61.5q3 -31 8 -60.5t3 -60.5q4 -17 -10 -29.5t-38 -19.5t-54 -9t-57 2q-87 9 -136.5 37.5t-75.5 66.5t-34.5 80t-11.5 79q-3 25 0.5 49.5t8.5 49t10.5 49.5t7.5 50q21 53 34 105t19 105q5 48 4 97.5t-7 98.5q-3 48 2.5 94.5t14.5 94.5q9 30 17.5 64 t28 65.5t55.5 57.5t100 40q60 4 104 -4.5t74.5 -25.5t48.5 -40t26.5 -49t8.5 -52q0 -25 -6 -47q-13 -93 -31 -185.5t-35 -185.5q82 -6 163.5 -8.5t163.5 -1.5q98 0 196 3.5t195 10.5l8 98t6 98q0 69 -9 138q-5 34 -7.5 67t-0.5 68q0 20 5.5 44.5t23 45.5t51 35t89.5 12 q71 -4 121 -23t81.5 -47t44.5 -61t9 -64q2 -40 -1 -80t-4 -80q2 -42 -3.5 -81.5t-3.5 -80.5q0 -57 -3 -113t1 -113q8 -113 10.5 -225t11.5 -225v-24z" />
<glyph unicode="i" horiz-adv-x="730" d="M717 241q-9 -30 -18.5 -65.5t-31.5 -68t-62.5 -58t-111.5 -35.5q-51 -2 -86 16t-57 38q-11 25 -22.5 48t-20.5 48q-10 55 -19 110t-1 112q2 97 13.5 192t22.5 192q11 95 24 190t27 190q4 26 9.5 55.5t21 57t45.5 50.5t84 37q35 4 68 0t60.5 -14t48.5 -24.5t33 -29.5 q31 -60 26 -127q-3 -55 -9 -109t-17 -109q-5 -58 -13.5 -114.5t-13.5 -114.5q-5 -60 -3.5 -121t6.5 -121q0 -57 1 -112.5t-4 -112.5z" />
<glyph unicode="j" horiz-adv-x="1915" d="M2026 1231q6 -17 -5.5 -31t-34.5 -24.5t-53 -17.5t-61 -8q-69 -5 -138.5 -6t-141.5 -1q2 -101 9 -200.5t14 -201.5q6 -102 6 -204q0 -101 -12 -204q-8 -56 -30.5 -108.5t-76.5 -103.5q-26 -26 -65.5 -46t-88 -34t-103 -21t-110.5 -6q-126 -1 -232.5 22t-195.5 60.5 t-160.5 85.5t-126.5 98q-57 51 -103 104.5t-77.5 110t-45.5 114.5t-8 118q6 18 28 28t52.5 15t64 6.5t62.5 1.5l29 -8l6 -5q32 -20 54.5 -41.5t38.5 -45t28 -47t24 -47.5q18 -30 35 -60t35.5 -59t40.5 -57.5t50 -55.5q25 -24 60 -45.5t79.5 -37t96 -24.5t109.5 -8 q43 13 62.5 34t27 45t9 49.5t8.5 47.5q0 26 2 50.5t0 50.5q2 26 1.5 51t1.5 51q12 138 4.5 274.5t-45.5 271.5q-66 5 -134.5 6.5t-134.5 10.5q-61 9 -103.5 31.5t-65.5 50.5q-11 12 -15 24.5t-6 25.5q-1 7 6 13t18 10t24.5 6.5t26.5 4.5q290 13 575.5 6t569.5 -30 q26 -6 45.5 -15.5t33 -22t22.5 -26t14 -26.5z" />
<glyph unicode="k" horiz-adv-x="2017" d="M1983 123q-3 -18 -19 -33t-41 -26t-56.5 -18t-64.5 -10q-53 3 -92 16t-71.5 31.5t-60.5 39t-59 37.5q-86 69 -176.5 135.5t-181.5 132.5q-38 24 -78 49t-86.5 46t-100 36t-118.5 20h-27t-27 -2q-2 -31 -8.5 -61.5t-14.5 -61.5q-8 -29 -12.5 -59.5t-4.5 -59.5 q-2 -30 1.5 -58.5t5.5 -58.5q5 -28 9.5 -55t6.5 -55q0 -30 -24 -60q-18 -12 -47.5 -13t-55.5 1q-88 4 -145 33t-82 69q-20 54 -30.5 108t-8.5 109q-4 46 -2 93t9 93q2 48 11.5 95t12.5 96q1 23 4.5 47t2.5 47q5 23 7.5 45t7.5 45q11 34 18 71t15.5 74t21 73.5t35 71t58 65.5 t89.5 57q70 7 115 -7.5t69 -40t30 -56.5t-2 -57q-3 -20 -15 -40t-16 -40q-11 -20 -18.5 -40.5t-8.5 -41.5q-5 -28 -6 -55t-1 -56q79 22 149 51t135.5 61t128 65.5t126.5 65.5q52 24 104 51t107.5 52t117.5 43t134 24q51 -3 92 -16t71 -32.5t47 -43.5t20 -48 q-2 -10 -12.5 -17t-21.5 -15q-37 -11 -68.5 -23t-71.5 -20q-40 -11 -79.5 -22t-77.5 -22q-161 -58 -298 -131t-260 -151q58 -44 128 -83t138 -79q57 -38 121.5 -74.5t129 -73.5t125 -75.5t111 -79t86.5 -85t50 -93.5z" />
<glyph unicode="l" horiz-adv-x="1580" d="M1777 302q-20 -41 -69.5 -72.5t-115 -56.5t-140 -44.5t-143.5 -36.5q-151 -35 -312 -56t-326 -12q-42 2 -84 7.5t-80 15t-69.5 23.5t-53.5 32q-35 36 -49.5 75t-18.5 79q-8 20 -10 41.5t-4 43.5q5 114 34 224q16 58 30 115.5t25 116.5q4 51 3 100t-3 100q-2 49 3 96.5 t14 96.5q2 22 14 45t35.5 43t59 34t84.5 19q58 4 99 -4.5t68 -25t41.5 -39.5t21 -48.5t5.5 -50.5t-5 -45q-11 -85 -36 -168t-51 -167q-23 -86 -42.5 -170.5t-27.5 -170.5q0 -26 -0.5 -52.5t2 -53t9.5 -52t22 -50.5q108 -2 210.5 13t202.5 35q60 14 118.5 29t118.5 30 q55 12 109.5 27t113.5 21q40 5 81 0.5t71 -16.5t44 -30.5t1 -40.5z" />
<glyph unicode="m" horiz-adv-x="2441" d="M2374 179q-8 -18 -16.5 -38.5t-23.5 -39t-39 -34t-63 -24.5q-44 -3 -83 3.5t-71.5 18.5t-55.5 29t-34 37q-13 27 -10 56t3 57q7 81 13 160.5t1 160.5q-3 40 -7.5 80.5t-13.5 81t-24 80.5t-40 79q-58 -109 -127.5 -215t-147.5 -212q-37 -42 -69 -87.5t-69 -89t-85 -83 t-117 -71.5q-41 1 -72.5 10t-55.5 23.5t-41.5 31.5t-29.5 34q-48 75 -82.5 150.5t-69.5 151.5q-19 38 -37 76t-39 76t-46 75t-56 73q-40 -95 -54.5 -190t-16.5 -192q-3 -35 3.5 -68t14.5 -68q11 -34 15 -68t4 -67q2 -17 -1 -33.5t-7 -33.5l-5 -19l-9 -15l-15 -14 q-23 -7 -41 -9.5t-34 -3.5t-30.5 -0.5t-29.5 0.5q-32 4 -63 8.5t-53 18.5q-22 13 -36.5 29t-23.5 33q-27 39 -42.5 79.5t-23.5 81.5t-10.5 82.5t-3.5 83.5q-2 135 26 270.5t81 269.5q16 28 25.5 56.5t22.5 57.5q20 28 36.5 57t42.5 56q15 16 35 33.5t45.5 32t57.5 25 t72 13.5q43 4 77.5 -3.5t60.5 -21.5t44.5 -32t28.5 -36q106 -168 190 -338.5t133 -347.5q53 49 92.5 100.5t77.5 102.5q62 84 120.5 166.5t127.5 165.5q28 35 57 67t64 66q24 18 45.5 36.5t44.5 33.5t49 24.5t61 9.5q90 -11 153 -36.5t104 -61t64 -77.5t35 -86t16 -88t7 -83 q2 -35 -5.5 -69t-10.5 -69q-9 -35 -13 -69t-9 -69q2 -40 7.5 -79.5t13.5 -79.5q8 -71 8 -141t-17 -141z" />
<glyph unicode="n" horiz-adv-x="1939" d="M1891 189q-5 -23 -18 -48t-37.5 -47t-61 -38t-88.5 -22q-66 3 -116.5 20t-91.5 41t-75 51.5t-68 51.5q-108 92 -194.5 175t-160.5 166q-57 63 -116 124t-116 124q-5 -57 -8 -113t-1 -113q-5 -54 -2 -107.5t-3 -107.5q-2 -45 -7 -89t-22 -88q-10 -24 -22.5 -48 t-32.5 -43.5t-49.5 -30.5t-74.5 -9q-43 4 -80.5 15t-66.5 27t-48.5 35.5t-26.5 41.5q-2 38 8 77.5t19 77.5q11 42 25 82.5t16 81.5q2 71 -3 141t-9 141q-2 69 2.5 139t18.5 139q15 35 21.5 75t22.5 78t49 72t99 57q39 2 71.5 -4t60 -17.5t49 -26t38.5 -29.5 q35 -35 64.5 -70.5t58.5 -73.5q58 -78 117.5 -156.5t128.5 -153.5q35 -38 71.5 -75.5t77 -73.5t87 -70.5t101.5 -65.5q5 17 9.5 33t6.5 33q-5 53 -12 104.5t-7 104.5q-11 83 -18 166.5t-4 167.5q2 32 6.5 65t18.5 65q9 20 23.5 38.5t35 32t47.5 20.5t60 4q36 -3 64 -12.5 t48.5 -23.5t35.5 -30.5t26 -32.5q40 -68 43 -141q-2 -25 -4.5 -48t-7.5 -48q2 -24 -3.5 -48.5t-5.5 -48.5q2 -109 12 -217t19 -217q9 -69 8 -139t-8 -141z" />
<glyph unicode="o" horiz-adv-x="2051" d="M2121 688q-8 -116 -81 -227.5t-205 -209.5q-63 -49 -146 -93t-180.5 -77t-208 -51.5t-230.5 -15.5q-113 0 -211 21t-179 56t-145 79t-107 91q-99 95 -143.5 199.5t-33.5 213.5q8 117 81 229t206 211q62 49 143.5 93.5t179 77.5t208 51.5t230.5 15.5q114 0 211.5 -21.5 t178 -56.5t143.5 -80t108 -91q47 -48 83.5 -98.5t60.5 -102.5t33.5 -106t3.5 -108zM1679 746q3 38 0.5 81.5t-16.5 86.5t-42.5 83t-77 71.5t-119 50.5t-168.5 21q-77 2 -147 -11t-130 -36t-108.5 -53.5t-82.5 -63.5q-68 -69 -99.5 -143.5t-38.5 -149.5q-4 -43 -3 -92 t13.5 -98t40.5 -95t78.5 -82t127 -59.5t185.5 -27.5q127 4 218.5 30t155.5 67.5t103.5 94t62.5 109t33 112.5t14 104z" />
<glyph unicode="p" horiz-adv-x="1621" d="M1845 990q-1 -50 -35.5 -94t-90 -83.5t-125.5 -74t-142 -64.5q-166 -67 -349 -116.5t-384 -77.5q8 -84 12.5 -166t2.5 -166q-3 -22 -7 -44t-22 -43q-8 -10 -23 -16.5t-34 -10t-39 -4.5t-39 1q-63 4 -110.5 20t-79 40t-47 53.5t-12.5 58.5q-5 113 11.5 226t39.5 226 q4 18 7 35t5 35q2 58 1.5 115.5t-8.5 115.5q-5 111 9 222q11 33 43 58t78 44t102 31.5t116.5 21t121.5 13t117 6.5q82 0 166 -2t165.5 -9.5t158 -22t143.5 -38.5q68 -24 115 -57t76 -71.5t42.5 -79.5t14.5 -82zM1505 1010q1 21 -13.5 38t-38.5 31t-54 25.5t-61 20.5 q-71 17 -146.5 26.5t-155.5 9.5q-38 -2 -75.5 -3.5t-71.5 -10.5q-46 -15 -74 -37.5t-44 -48.5t-22.5 -53t-9.5 -52q-8 -60 -7 -117.5t4 -114.5q65 1 126.5 10.5t120 24t114.5 32.5t111 35q48 17 98 36.5t92 42t71.5 48.5t35.5 57z" />
<glyph unicode="q" horiz-adv-x="1929" d="M1874 80q-8 -14 -24.5 -25.5t-39 -20.5t-48.5 -15.5t-52 -9.5q-8 -2 -17 -2t-17 -2h-31v2q-33 27 -71.5 52t-71.5 52q-33 -22 -74.5 -40.5t-90 -32t-101.5 -21t-108 -7.5q-114 -3 -220 13t-197.5 46t-165 71t-122.5 89q-54 45 -89.5 95t-56 102t-27.5 105.5t-3 106.5 q5 58 19 117t39 116.5t63.5 113.5t92.5 109q49 53 124 101t170 84t206 56t232 17q109 0 203.5 -19.5t171.5 -52.5t136 -76t97 -90q85 -94 119 -194.5t27 -204.5q-5 -56 -20 -112t-43.5 -111t-71 -108t-102.5 -102q9 -29 35.5 -55t61.5 -46q15 -12 28.5 -23.5t23.5 -24 t14.5 -26t0.5 -27.5zM1584 707q4 64 -6.5 127t-46.5 123q-15 28 -37 57.5t-56 54t-81.5 40.5t-114.5 17q-83 3 -161 -9.5t-143.5 -36.5t-115.5 -57.5t-76 -71.5q-33 -39 -52.5 -79t-31 -80.5t-17 -82t-10.5 -81.5q-5 -62 8 -122.5t57 -118.5q18 -27 46.5 -53.5t68.5 -48 t92 -34.5t117 -12q64 -2 119.5 13t97.5 40q-34 19 -71 39t-68 42.5t-51 47t-20 52.5q3 13 14 26.5t28.5 24t41.5 18t52 9.5q47 -6 79.5 -24t59.5 -35q29 -18 61 -36t77 -26q43 30 69 64t40 69.5t20 72t11 71.5z" />
<glyph unicode="r" horiz-adv-x="2137" d="M2152 130q-6 -17 -25 -30t-45.5 -22.5t-58 -15t-62.5 -7.5q-74 -5 -143 1.5t-133 21t-122 35t-109 44.5q-103 57 -199 115t-193 117q-37 21 -74.5 42t-79 39.5t-89 32t-104.5 18.5q-9 -32 -17.5 -64t-8.5 -64q-2 -32 3 -64t8 -64q4 -31 6 -62.5t2 -62.5q-1 -14 -3 -32 t-12 -34t-31 -27t-61 -11q-61 6 -105 22t-74.5 38t-49 49t-29.5 56t-15.5 58t-6.5 55q-2 48 4 95.5t20 95.5q9 51 19.5 100t14.5 100q5 59 3 116.5t0 117.5q5 57 8.5 114t19.5 114q6 23 17.5 45t33.5 42q40 24 91 39.5t108 24.5t117.5 14t118.5 9q64 3 129.5 6t129.5 5 q74 0 150.5 -1.5t151.5 -7t146 -17t134 -31.5q64 -20 107.5 -50t69 -65t36 -73.5t8.5 -75.5q2 -36 -20 -70t-59 -64.5t-85 -58.5t-98 -53q-108 -57 -238.5 -101t-283.5 -61q81 -42 152.5 -87.5t139.5 -93.5q66 -46 147 -87t184 -70q69 -15 134.5 -34t128.5 -39 q20 -7 38.5 -15.5t32 -19t19.5 -22.5t2 -25zM1541 1073q1 17 -11 30t-33 22t-48.5 15t-58 9t-61.5 4t-58 1q-54 -2 -107 -3.5t-104 -3.5t-105 -5.5t-105 -4.5q-41 -5 -63.5 -18.5t-34 -32t-16 -38.5t-9.5 -36q-4 -29 -6 -59t0.5 -59.5t10 -58.5t22.5 -57q137 0 271.5 19 t254.5 55q56 18 104 42t83.5 52.5t55 60.5t18.5 66z" />
<glyph unicode="s" horiz-adv-x="1969" d="M2029 497q-13 -91 -80.5 -175t-185.5 -155q-58 -35 -130.5 -63.5t-154.5 -49t-170.5 -31t-179.5 -9.5q-134 1 -262.5 18.5t-244.5 49.5q-55 14 -111 32t-101.5 40.5t-75.5 50t-33 61.5q-3 11 3.5 22.5t20 20.5t33.5 14t44 3q51 -4 96.5 -11.5t87.5 -20.5 q45 -12 88.5 -26.5t91.5 -25.5q78 -15 163 -23.5t173 -8.5q71 -4 142.5 2.5t136.5 21t120.5 37.5t96 52t61.5 63.5t18 72.5q7 54 -9 108q-5 12 -18 23t-32 19t-42.5 13t-48.5 4q-91 0 -176.5 -11.5t-171.5 -25.5q-87 -13 -172.5 -24.5t-176.5 -9.5q-79 -3 -152 8.5t-133 34 t-105 53.5t-69 68q-28 34 -43.5 69.5t-21.5 72.5t-5 74.5t7 74.5q8 40 38 76.5t76 69t105.5 59.5t127.5 48q132 46 286.5 68t313.5 21q103 -2 202.5 -11t187.5 -34q44 -11 84.5 -25.5t72 -33.5t50 -41.5t18.5 -49.5q3 -19 -16.5 -30.5t-49 -17t-64 -7t-61.5 0.5 q-65 2 -123.5 12.5t-120.5 21.5q-61 9 -119.5 19.5t-123.5 10.5q-95 0 -186.5 -17t-166.5 -47q-40 -14 -73.5 -32.5t-58 -39.5t-39.5 -44t-18 -47q-3 -28 15.5 -54.5t40.5 -52.5q15 -11 33 -22t39 -20t46 -15t56 -6q76 2 144.5 17.5t137.5 28.5q75 17 156.5 28t163.5 13 q65 0 126.5 -9t116.5 -25t101 -39t80 -50q72 -51 101.5 -112.5t22.5 -124.5z" />
<glyph unicode="t" horiz-adv-x="1911" d="M2070 1224q-3 -14 -15 -25t-31 -20t-43.5 -14.5t-50.5 -7.5q-59 -4 -115 0.5t-115 4.5q-35 1 -71.5 1.5t-73 -1.5t-71.5 -7.5t-67 -16.5q-11 -32 -15.5 -64t-12.5 -64q-23 -119 -41 -237.5t-32 -238.5l-16 -177q-6 -44 -9 -88t-9 -88q-5 -22 -10 -48.5t-20.5 -50.5 t-46 -43t-84.5 -25q-79 0 -128 20.5t-76 51t-37 66.5t-11 66q-4 39 -4 78v78q7 36 16.5 71.5t21.5 71.5l53 149q10 29 14 57.5t6 58.5q11 84 -6.5 165t-53.5 162q-51 -2 -103 -3.5t-103 -9.5q-51 -4 -103 -10.5t-104 -6.5q-30 -2 -65 -2t-69.5 3t-65.5 9.5t-52.5 17 t-31.5 26t-1 36.5q5 11 14.5 21t26.5 18q53 18 113.5 30t122.5 18q68 5 133 13t133 14q151 17 300 29t301 23q84 2 164 5t162 -2q55 -4 114.5 -10.5t112.5 -19.5t94.5 -33t60.5 -51z" />
<glyph unicode="u" horiz-adv-x="1959" d="M2005 678q-10 -107 -68.5 -210t-158.5 -198q-48 -46 -112.5 -91.5t-145 -82t-177 -59.5t-208.5 -23q-125 -3 -240 15.5t-211 53.5t-168.5 83.5t-112.5 104.5q-41 55 -63.5 113t-33 117.5t-11 119.5t4.5 120q11 66 21 133.5t25.5 134.5t40.5 133t65 131q10 14 30 24.5 t45.5 18t54 11.5t56.5 6q33 6 60 2t47 -13.5t33.5 -23t18.5 -27.5q11 -20 15.5 -41.5t5.5 -43t-0.5 -43t-1.5 -42.5q-14 -78 -30.5 -154t-36.5 -152q-20 -78 -37 -156t-21 -156q-4 -42 6.5 -82.5t48.5 -77.5q25 -18 59 -30.5t73.5 -20t82.5 -11t85 -3.5q150 -4 252.5 32.5 t165.5 94t90.5 125.5t27.5 127q11 103 4.5 204.5t-35.5 201.5q-9 40 -19.5 78.5t-9.5 78.5q-1 17 4.5 38t22 39t45.5 30t75 11q47 -3 83.5 -14t64.5 -27.5t49.5 -36.5t38.5 -39q39 -63 61 -127.5t32.5 -130.5t10.5 -133q0 -66 -4 -132z" />
<glyph unicode="v" horiz-adv-x="1635" d="M1756 1188q0 -51 -15 -101t-39 -99q-31 -53 -62 -103t-60 -103q-53 -111 -109 -219.5t-119 -217.5q-20 -29 -37.5 -61t-38 -64.5t-46 -63.5t-60 -58t-81 -48.5t-108.5 -35.5q-32 0 -65.5 1.5t-66 5t-61.5 10.5t-52 18q-24 12 -40.5 25.5t-29.5 28.5t-24 30.5t-24 30.5 q-47 77 -83 154.5t-61 157.5q-23 80 -43.5 159t-36.5 160q-23 67 -41.5 132.5t-41.5 132.5q-12 36 -18.5 71.5t-2.5 73.5q5 15 13 31.5t22 31.5t36 26t57 15q43 6 76.5 -1.5t58.5 -21.5t40 -33t21 -36q11 -34 14 -66t14 -66q22 -91 47 -182.5t53 -182.5q34 -93 76.5 -184 t106.5 -179q42 38 72.5 78.5t54 81.5t43 83t40.5 84q51 112 99.5 223t100.5 223q20 25 35 56t37.5 59.5t57.5 51.5t95 32q51 -3 88.5 -17t61.5 -34t35.5 -43.5t10.5 -46.5z" />
<glyph unicode="w" horiz-adv-x="2536" d="M2565 884q0 -99 -28.5 -197.5t-73.5 -196.5q-21 -47 -44 -94.5t-52 -94t-66 -92t-86 -88.5q-20 -15 -42 -31t-48 -29.5t-58 -23t-72 -11.5q-38 0 -67.5 8.5t-52 21.5t-38.5 29.5t-28 32.5q-118 146 -208.5 295.5t-141.5 306.5q-62 -89 -128 -174.5t-138 -171.5 q-58 -72 -107.5 -123.5t-99.5 -98.5q-27 -23 -52 -44t-52 -38t-59 -28t-74 -13q-90 12 -153 38t-104.5 60.5t-66 76.5t-37.5 85.5t-18 87t-8 82.5q0 38 5 73.5t10 73.5q9 38 17.5 76.5t9.5 76.5q8 58 1.5 114.5t-11.5 114.5q-6 56 -3.5 112t15.5 112q4 15 12.5 31.5t24 30.5 t39 24t56.5 14q43 1 83.5 -5t73.5 -19t56.5 -30.5t33.5 -38.5q11 -29 9.5 -57.5t-4.5 -57.5q-10 -88 -15.5 -172.5t-8.5 -172.5q3 -88 -1 -177t-9 -178q58 45 94.5 94t69.5 98q58 84 120 166t132 163q33 35 64 71.5t64.5 72t73 69t90.5 63.5q18 3 34.5 6t34.5 5q38 0 74 -7 t60 -21q20 -15 28.5 -34t19.5 -36q51 -77 87 -154.5t67 -157.5q17 -45 31.5 -89.5t31.5 -89.5q20 -44 45 -85.5t62 -81.5q43 183 71.5 366.5t27.5 367.5q-1 17 0.5 34.5t6.5 35.5q0 11 4 23.5t13 23.5q45 18 81.5 19.5t67.5 -0.5q33 -4 62.5 -10t55.5 -17q55 -45 81 -96 t35.5 -104t11 -108t8.5 -107z" />
<glyph unicode="x" horiz-adv-x="2014" d="M1973 111q-6 -17 -25 -30.5t-46 -23.5t-59.5 -15.5t-64.5 -7.5q-59 -2 -105.5 15.5t-80.5 39.5q-42 23 -73.5 50t-54.5 56q-79 88 -165 174.5t-166 174.5q-54 -31 -100 -64.5t-87.5 -68.5t-79.5 -71t-74 -72q-12 -17 -28 -34t-32 -34.5t-31 -34.5t-27 -34 q-17 -12 -31 -26.5t-30.5 -28t-38 -24t-52.5 -14.5q-56 3 -100 17.5t-73.5 36t-44.5 47.5t-14 52q3 26 19.5 50.5t40.5 47t52 44.5t54 44q72 48 140.5 97t139.5 98q50 41 95 81t87 83q-71 70 -144 139.5t-139 141.5q-28 30 -56.5 60.5t-51.5 62t-37.5 64t-13.5 66.5 q4 15 20 26.5t39.5 19t51.5 11.5t55 6q25 1 52 0.5t51.5 -3.5t46 -9.5t36.5 -18.5q28 -20 48.5 -43.5t38.5 -46.5q60 -72 114.5 -145t112.5 -145q95 50 165 108t132 120q20 27 47.5 54t49.5 54q15 9 27 20.5t25.5 23t30.5 20.5t42 14q48 -4 91 -15.5t75.5 -29.5t52 -40.5 t21.5 -47.5q-15 -46 -48 -87.5t-78 -81t-98.5 -77t-111 -74t-116 -72.5t-111.5 -72q80 -62 149.5 -125t138.5 -129q62 -60 123.5 -117.5t126.5 -114.5q18 -17 34.5 -34t30 -34t22 -35.5t10.5 -38.5z" />
<glyph unicode="y" horiz-adv-x="1717" d="M1910 1196q-5 -18 -19 -34.5t-31.5 -32.5t-37 -32t-35.5 -32q-51 -33 -97 -67.5t-93 -69.5q-113 -87 -213.5 -179t-183 -187t-143.5 -194.5t-94 -201.5q-9 -26 -18 -51.5t-32 -49.5q-11 -12 -29 -21t-39.5 -15t-46.5 -9t-49 -1q-40 0 -69 9t-48 24t-27.5 33t-7.5 36 q3 49 15.5 97.5t29.5 97.5q18 49 44 97.5t68 95.5q-75 34 -129 75.5t-94.5 87.5t-70.5 95t-57 97q-24 45 -43.5 92t-31.5 94.5t-14.5 95.5t7.5 96q4 12 13 25t23 24.5t34.5 19.5t48.5 8q40 6 77 1.5t66 -16t48 -28.5t24 -35q9 -44 25 -86.5t25 -86.5q17 -48 41.5 -93.5 t53.5 -92.5q25 -48 63.5 -93t88.5 -88q97 109 210 211.5t232 205.5q45 45 95.5 87.5t101.5 86.5q20 20 57.5 28.5t78.5 7.5q47 -3 82.5 -16t58.5 -31t33.5 -40.5t8.5 -44.5z" />
<glyph unicode="z" horiz-adv-x="2007" d="M2103 1205q-55 -60 -123 -116.5t-141.5 -111t-148.5 -109t-145 -109.5q-80 -65 -168.5 -127.5t-172.5 -126.5t-157.5 -130.5t-124.5 -138.5l3 -9q46 1 90 6.5t87 12.5t85.5 15t85.5 15q91 18 186 38t186 38q36 6 73.5 10t75.5 7q38 1 80 -3.5t76 -15t54.5 -27.5t14.5 -40 q-1 -14 -13.5 -26t-30.5 -23t-39.5 -20.5t-41.5 -17.5q-41 -8 -81 -18t-82 -18q-137 -27 -277 -52.5t-283 -44.5t-288.5 -28.5t-291.5 -3.5q-24 2 -43 8t-35 14t-29.5 17t-26.5 17q-20 20 -34 40t-19 42q24 65 76 126t119 118.5t141 114t142 112.5q83 66 169.5 130.5 t172.5 129t170 130t162 132.5q-17 2 -35 3.5t-36 1.5q-69 0 -140 -2.5t-142 -9.5q-161 -11 -316.5 -26.5t-314.5 -25.5q-35 -2 -80 -2q-44 0 -83 5t-64 18t-21 38q43 43 116 69.5t160 43.5t181 27t178 21q195 19 391.5 22t392.5 -9q57 -4 112.5 -14.5t103.5 -27.5 q25 -8 49 -17t44 -20t33.5 -24t17.5 -28z" />
<glyph unicode="{" horiz-adv-x="1208" d="M1195 87q-4 -18 -19 -35.5t-38 -32t-53.5 -25t-65.5 -16.5q-58 -6 -117 -6t-116 6.5t-111.5 18t-102.5 27.5q-50 16 -95.5 37t-80 46t-55 54t-18.5 61q0 24 10 48t26.5 46.5t38.5 44t47 42.5q56 45 127.5 85t156.5 72q-69 2 -140 1.5t-140 1.5q-42 1 -92.5 4.5t-94 12.5 t-72.5 26t-28 44q3 23 22 39t48.5 27t66.5 18t77 10.5t79.5 4.5t73.5 2h10h31t31 -2h65q10 0 20 1t21 1q-88 26 -154.5 63.5t-119.5 79.5q-21 20 -41.5 41.5t-35 44t-21 45.5t0.5 47q3 66 56 126t142 109q43 24 97 43t114.5 30t125 15t127.5 -2q54 -4 104 -16.5t88 -31.5 q39 -18 66 -41t27 -51q5 -17 -8.5 -30t-37.5 -20.5t-54 -9t-58 4.5q-32 5 -67 7.5t-68 6.5q-58 7 -115.5 0t-101.5 -25t-69.5 -44.5t-20.5 -57.5q6 -27 30 -49.5t57 -43t70 -39.5t70 -38q34 -18 70.5 -36.5t69 -38.5t57 -42.5t33.5 -48.5q-1 -15 -12.5 -28t-30 -24t-41 -21 t-46.5 -17q24 -6 48 -14t44.5 -18t33.5 -21.5t14 -26.5l-8 -18q-51 -48 -120.5 -87.5t-140.5 -79.5q-33 -18 -67 -38t-62.5 -41t-50 -44.5t-30.5 -48.5q41 -14 85 -27.5t90.5 -23.5t96 -14.5t101.5 -1.5q34 5 64 1.5t51 -13.5t31.5 -25t4.5 -31z" />
<glyph unicode="|" horiz-adv-x="652" d="M693 742q-5 -37 -9.5 -72t-9.5 -73q-4 -35 -9.5 -71t-7.5 -72q-2 -16 -2 -31t-6 -30q4 -16 2 -33t-4 -32q-9 -35 -13 -71.5t-9 -73.5t-13 -74t-24.5 -72t-45 -68t-73.5 -63q-45 1 -73 13t-45.5 30t-26.5 38.5t-15 38.5q-11 38 -17.5 78t-6.5 80q-8 143 -5 284.5t19 284.5 q8 97 21 194t30 195q2 35 5.5 69t9.5 69q6 76 46 147q7 9 13.5 18.5t20.5 17.5q52 12 90 4.5t63.5 -25.5t40.5 -41t23 -42q2 -45 12 -90t12 -90q11 -109 15.5 -217.5t-8.5 -219.5z" />
<glyph unicode="}" horiz-adv-x="1205" d="M1365 712q-3 -22 -21.5 -38.5t-48 -28t-66.5 -18.5t-77 -11.5t-80 -5.5t-74 -1h-10h-61q-16 2 -33 2h-32q-11 0 -20.5 -1t-20.5 -1q85 -27 151.5 -64t119.5 -79q22 -20 42.5 -41t35 -43t21 -45t2.5 -47q-9 -66 -59.5 -126.5t-141.5 -108.5q-44 -25 -98 -43.5 t-114.5 -29.5t-124 -15t-126.5 1q-53 6 -101 17.5t-88 31.5q-43 17 -70.5 41t-27.5 53q3 5 4 11t2.5 11t5.5 10t12 9q45 14 75 14t58 -2q36 -5 70.5 -9t69.5 -7q60 -7 117 1t101.5 26.5t69.5 45t20 57.5q-8 26 -33 48.5t-58.5 42.5t-71 38.5t-71.5 36.5q-35 18 -70.5 37 t-67 39.5t-55 42.5t-33.5 48q3 15 14.5 28t29 24t40.5 20.5t48 16.5q-23 6 -47.5 14t-45 18t-34 22.5t-13.5 27.5l8 15q48 46 118 87.5t144 81.5q32 20 65.5 40t62.5 41.5t50.5 44t29.5 48.5q-41 14 -84.5 27.5t-90 23t-96 14.5t-101.5 2q-33 -5 -62.5 -1t-51.5 14 t-32.5 24.5t-5.5 30.5q9 36 56.5 67t120.5 40q58 7 117 7q60 0 117.5 -6t111.5 -17.5t101 -27.5q49 -16 94.5 -37t80 -46.5t54.5 -54.5t19 -60q-2 -49 -37 -95t-88 -88q-53 -46 -125 -85.5t-155 -71.5q70 -2 139 -1.5t138 -1.5q42 -1 92.5 -4t94 -11.5t72.5 -25t29 -44.5z " />
<glyph unicode="~" horiz-adv-x="1935" d="M2039 840q-1 -18 -19.5 -32.5t-43.5 -25.5q-29 -12 -62 -22.5t-71 -11.5q-121 -34 -248.5 -62t-266.5 -31q-65 2 -121.5 15.5t-107.5 32.5q-48 18 -102.5 32.5t-117.5 17.5q-117 -3 -216.5 -35t-165.5 -80h-4q-36 2 -67.5 11.5t-60.5 21.5q-27 13 -48.5 30t-26.5 36 q-1 26 21.5 46.5t57 37t77 29.5t81.5 24q87 23 178.5 42t188.5 19q62 0 114.5 -14t100.5 -32q49 -18 104 -30.5t116 -15.5q67 3 130.5 15t119.5 29q53 14 110.5 27t117.5 11q39 -2 77 -8t69.5 -16.5t54.5 -25.5t31 -35z" />
<glyph unicode="&#xa1;" horiz-adv-x="724" d="M920 1195q1 -24 -21.5 -43t-58.5 -32t-80.5 -18.5t-87.5 -2.5q-64 -2 -112.5 10.5t-79 34.5t-42 50t-1.5 57q8 22 26.5 43t58.5 32q35 14 76.5 19.5t85.5 2.5q53 -5 96 -19.5t73.5 -35.5t47.5 -46.5t19 -51.5zM732 802q-8 -62 -23 -122t-35 -122q-11 -33 -22.5 -66.5 t-16.5 -66.5t-5.5 -65.5t-3.5 -65.5q-5 -21 -7.5 -42.5t-8 -43t-15.5 -42.5t-28 -41q-16 -26 -43 -47t-61.5 -34t-75 -17.5t-82.5 2.5q-47 13 -72 35t-36.5 47.5t-13.5 52.5t-4 51q6 50 20.5 99.5t34 99t43 99t46.5 98.5q32 43 55 92.5t53 96.5t75 89t120 72q46 -8 67.5 -26 t29.5 -40.5t7.5 -47t1.5 -45.5z" />
<glyph unicode="&#xa2;" horiz-adv-x="1498" d="M1683 865q0 -13 -7 -27t-22 -26t-38.5 -19t-55.5 -5q-76 2 -122.5 30.5t-67.5 62.5q-15 16 -31.5 33.5t-38 32.5t-49 27.5t-65.5 18.5q3 -62 1.5 -123.5t-6.5 -123.5q-2 -35 -5.5 -69t-9.5 -69q-3 -34 -10 -68t-9 -67q42 10 80 25t75 29q40 14 82.5 26t91.5 12 q26 -3 44.5 -8.5t29.5 -18.5l12 -16l1 -15l2 -17v-9q-15 -38 -60.5 -65.5t-107 -48t-132.5 -35t-135 -25.5q-3 -20 -6 -40.5t-4 -41.5q-9 -30 -13 -65t-18 -68t-45 -61t-93 -45q-60 -2 -98.5 17.5t-48.5 45.5q-4 29 -6.5 56t-2.5 55q2 35 -2 68.5t-6 68.5 q-143 17 -261.5 58.5t-206.5 98.5q-42 27 -76.5 57t-58 62t-35 66t-6.5 69q2 38 18.5 74.5t44 71.5t64.5 68t80 64t97.5 60.5t118.5 52.5t136 37t150 14q5 30 8 59.5t5 60.5q5 15 6.5 33.5t7.5 35.5t20.5 32t47.5 23q34 1 68.5 -3t63 -12.5t49 -21.5t26.5 -31q5 -32 9 -65.5 t6 -65.5l2 -29q106 -11 196 -41t159 -72q34 -19 63 -40.5t50.5 -45.5t33 -49.5t10.5 -52.5zM843 985q-75 -30 -130.5 -67.5t-103.5 -77.5q-48 -39 -80.5 -80t-38.5 -86q-1 -17 7 -33t21.5 -31t31.5 -28.5t37 -26.5q81 -58 201 -91l11 125q5 50 7.5 100.5t10.5 100.5z" />
<glyph unicode="&#xa3;" horiz-adv-x="2273" d="M2389 398q-57 -42 -135 -74t-166 -58.5t-180.5 -50t-178.5 -48.5q-96 -24 -193 -48t-197 -45t-202.5 -36t-209.5 -21q-60 2 -117 12.5t-95 33.5q-19 12 -32 26t-22 28t-16.5 28.5t-14.5 28.5q-38 69 -51.5 140t-13.5 143q7 126 43 250q-34 1 -67 -0.5t-67 -1.5h-63t-63 2 q-36 -2 -64.5 9t-47.5 25q-22 14 -32 32t-15 36q30 33 85.5 48t121.5 21t135 6q70 0 129 2q5 20 16.5 40.5t16.5 41.5q15 62 43.5 125t51.5 126q30 29 78.5 47.5t106 30.5t120 19t119.5 13q103 7 198 11t185 5t176.5 -1t172.5 -6q42 1 80.5 -6.5t67.5 -21.5t45.5 -32.5 t14.5 -40.5q4 -17 -9.5 -30.5t-36.5 -23t-53 -15t-60 -6.5q-66 2 -132.5 1.5t-133.5 2.5q-90 2 -180 -3.5t-178 -22.5q-42 -8 -81 -20.5t-71 -28.5t-55 -35.5t-32 -41.5q-18 -32 -31 -65t-22 -67q72 0 143.5 -1.5t143.5 -6.5q31 -3 62.5 -10.5t56 -18.5t39 -26t11.5 -34 q0 -15 -13 -29t-34.5 -24.5t-49.5 -16.5t-57 -7q-88 2 -172.5 -0.5t-172.5 -0.5q-13 -57 -18.5 -112t-10.5 -112q-2 -58 14 -115t44 -112q142 16 275 50t261 69q65 17 130.5 33.5t132.5 30.5t136 23t142 11q37 2 75.5 -2t72.5 -13t60.5 -23t39.5 -32z" />
<glyph unicode="&#xa4;" horiz-adv-x="2813" d="M2806 1133q-8 -17 -25.5 -32t-40 -28t-48.5 -25t-50 -24q-57 -29 -115.5 -55.5t-118.5 -53.5q60 -54 86 -114t23 -123q-5 -37 -19 -74t-39.5 -72t-63 -67.5t-89.5 -60.5q43 -26 94.5 -50.5t96 -51.5t75.5 -57.5t34 -67.5q-3 -11 -15 -18.5t-28.5 -12.5t-36.5 -8t-39 -5 q-75 0 -138 19t-117 39q-59 26 -117.5 51t-115.5 52q-121 -29 -249 -39.5t-257 -10.5q-126 0 -246 17.5t-226 49.5q-65 -25 -126.5 -50t-128.5 -48q-58 -20 -125.5 -37t-142.5 -16q-18 1 -37.5 3.5t-36 7t-27.5 12t-11 18.5q13 38 53.5 69.5t94 59t113 53.5t111.5 52 q-69 49 -103.5 107t-29.5 120q5 32 12.5 64.5t21 64t34.5 61.5t53 59q-54 29 -108.5 56t-108.5 55q-19 13 -41.5 25.5t-42.5 26t-35.5 28t-20.5 31.5q14 11 30 18.5t38 14.5q21 6 43.5 7.5t45.5 5.5q66 3 122.5 -10t102.5 -32q53 -21 104 -41.5t101 -40.5q76 29 161 48 t175 30.5t182.5 16t183.5 4.5q72 0 142 -7t136 -20.5t125.5 -32.5t109.5 -43q56 21 110 42.5t112 41.5q53 20 113 33t126 11q23 -1 46 -5t43 -10q22 -4 39 -11.5t26 -19.5zM2080 647q8 54 -15 107.5t-89 97.5q-31 22 -74 38.5t-92.5 27t-104 15.5t-108.5 4q-67 4 -136 -1 t-133 -18t-119.5 -33.5t-96.5 -47t-63 -59.5t-18 -70q-7 -48 22 -93t89 -81q64 -36 154.5 -55t188.5 -16q100 1 200 3.5t197 21.5q48 9 85 26t62.5 38.5t38.5 46t12 48.5z" />
<glyph unicode="&#xa5;" horiz-adv-x="1809" d="M1954 1196q-4 -18 -17 -34.5t-30.5 -33t-37.5 -32.5t-38 -31q-50 -33 -96.5 -67.5t-92.5 -69.5q-84 -63 -161 -127.5t-140 -133.5q34 1 73 -0.5t77.5 -5.5t73 -12t60 -19.5t39 -28t10.5 -38.5q1 -18 -16 -33t-44 -25.5t-60.5 -16t-66.5 -3.5q-78 -2 -152.5 -1t-151.5 1 q-27 -39 -55 -76.5t-48 -77.5q23 -2 44.5 0t44.5 2q23 -2 46 -1t46 1q33 0 73 -0.5t80 -3.5t77 -9.5t65.5 -17t44.5 -26.5t14 -39q-2 -20 -23 -34.5t-52 -24t-67.5 -14.5t-69.5 -5q-100 -3 -199.5 -4t-199.5 0q-5 -22 -18 -46.5t-38 -45t-62.5 -33.5t-91.5 -11 q-49 0 -88.5 15t-50.5 39q-11 22 -12.5 45t2.5 46q-42 4 -87 6t-89 4q-38 3 -70.5 12t-56.5 23.5t-38 32t-17 36.5q13 21 39 34t60.5 20t74.5 9t81 2t80.5 -0.5t73.5 0.5q16 36 34.5 72t49.5 71q-80 2 -159 2.5t-158 3.5q-37 0 -67 9t-52 22.5t-34 31t-13 34.5q8 24 39 38.5 t72.5 22.5t87.5 12t84 7q-58 71 -101.5 142.5t-70.5 147.5q-29 69 -43 140t0 143q4 12 13 25t23.5 24.5t35 19.5t48.5 8q40 6 76.5 1.5t65.5 -16t48.5 -28.5t24.5 -35q9 -44 24.5 -86.5t24.5 -86.5q21 -47 44.5 -95t52.5 -94.5t65.5 -91t85.5 -86.5q45 55 98 107.5 t110 104.5t116 103l118 102q45 45 95 87.5t101 86.5q20 20 57.5 28.5t79.5 7.5q47 -3 82 -16t58 -31t33.5 -40.5t8.5 -44.5z" />
<glyph unicode="&#xa6;" horiz-adv-x="676" d="M678 877q-2 -19 -21.5 -33.5t-48.5 -24.5t-64 -14.5t-68 -4.5q-47 4 -77 16t-47.5 29.5t-24.5 38t-9 42.5t-1 43.5t0 39.5q3 39 14 78q4 20 10.5 40t6.5 40q2 12 3.5 25t-3.5 25q-2 13 4 24.5t5 24.5q2 30 13 60t31 58q33 38 74.5 62.5t99.5 19.5q38 -5 63 -18t40 -30 t22 -36t8 -37q-8 -117 -15 -233.5t-15 -234.5zM608 46q-6 -20 -21 -42t-39 -41.5t-58 -33t-80 -16.5q-35 3 -56.5 13.5t-35.5 24.5t-22.5 29.5t-17.5 29.5q-5 24 -10 45t-9 39t-5.5 34.5t2.5 33.5q2 20 5.5 38t4.5 37q7 20 10 38.5t7 38.5q4 11 2 22t-2 22q2 11 4 22.5 t-2 22.5q-2 26 8.5 56.5t37 56.5t71.5 43t112 16q39 3 67.5 -5t46.5 -21.5t25.5 -30.5t3.5 -33q-13 -111 -23.5 -219.5t-25.5 -219.5z" />
<glyph unicode="&#xa8;" horiz-adv-x="1376" d="M1459 1548q-3 -19 -21.5 -35.5t-47 -29t-64 -20t-72.5 -7.5q-45 1 -78.5 12t-56 28t-32.5 38t-7 41q4 23 19 44.5t39 41.5q25 15 56.5 28t73.5 13q55 -2 95.5 -17t65.5 -37t32.5 -48.5t-2.5 -51.5zM754 1553q2 -17 -9.5 -35t-34 -31.5t-54.5 -20.5t-71 -3 q-48 0 -87.5 12.5t-69.5 29.5q-32 17 -47.5 39t-13.5 45q22 45 85 77q35 14 69.5 27t79.5 15q60 0 91.5 -16t45 -39.5t15 -50.5t1.5 -49z" />
<glyph unicode="&#xa9;" horiz-adv-x="2618" d="M2657 485q-7 -53 -41 -102.5t-89.5 -94.5t-129.5 -83.5t-160 -69.5q-172 -62 -372 -93.5t-406 -31.5q-223 -2 -427 32t-382 96q-88 30 -166.5 68t-136.5 83t-90.5 96.5t-29.5 107.5q1 67 29 133.5t80.5 129t127 120t167.5 107.5q87 52 194 96t227.5 74.5t251.5 47 t266 14.5q132 1 256 -17t233.5 -51t200.5 -78.5t157 -99.5q144 -104 203 -229.5t37 -254.5zM2326 480q16 99 -18.5 196.5t-129.5 183.5q-44 43 -108.5 80t-145 63.5t-174 40.5t-194.5 12q-105 1 -206 -11.5t-192.5 -37t-171 -59t-141.5 -76.5q-134 -82 -208 -181t-76 -203 q-3 -40 22 -75.5t69 -66.5t103 -55.5t124 -41.5q135 -38 286.5 -57.5t310.5 -19.5q144 0 286.5 18t270.5 56q61 18 114 43.5t92 56t62 64.5t25 70zM1882 835q-1 -16 -15.5 -31.5t-38.5 -28t-55.5 -20t-65.5 -7.5q-36 0 -65.5 7.5t-62.5 9.5q-80 -5 -148 -27.5t-125 -51.5 q-59 -27 -103.5 -61t-55.5 -74q-6 -24 11.5 -43t49.5 -31t73.5 -17.5t85.5 -3.5q40 2 78 4.5t74 10.5q36 5 73 9.5t75 5.5q33 0 63.5 -7t52 -18.5t32.5 -27t6 -32.5q-1 -15 -13 -27.5t-31.5 -23t-44.5 -18t-53 -11.5q-78 -14 -159 -22t-163 -11q-55 0 -110.5 4t-107.5 13.5 t-99 23.5t-86 33q-80 35 -118.5 86t-36.5 105q3 37 26.5 72t61 67.5t85.5 61.5t101 55q55 25 116 48t127.5 40t137.5 27t147 10q46 -2 93.5 -7.5t88.5 -16.5q20 -6 39 -13.5t33 -17t22 -20.5t5 -24z" />
<glyph unicode="&#xab;" horiz-adv-x="1754" d="M1700 111q-6 -15 -22 -28t-38.5 -23.5t-50 -17.5t-56.5 -10q-57 6 -101 22t-81 37t-69 44.5t-65 43.5q-35 26 -72 52.5t-69.5 54.5t-55 57.5t-28.5 62.5q13 31 42.5 59t67.5 54t80.5 51t80.5 50q37 19 73.5 41t76.5 41.5t86.5 33.5t103.5 18q29 0 52 -6.5t39 -17 t24.5 -23.5t10.5 -26q-2 -20 -17 -40.5t-45 -36.5q-85 -51 -171.5 -102t-174.5 -103q90 -59 173.5 -117.5t171.5 -117.5q20 -11 28 -25t6 -28zM985 720q-2 -17 -20 -31t-40 -27q-111 -62 -215 -125t-210 -126q82 -53 165 -106.5t171 -104.5q30 -18 48 -39.5t21 -44.5 q0 -14 -8.5 -27.5t-25 -24t-40.5 -16.5t-56 -4q-58 9 -105.5 26t-89.5 38t-80 44t-77 44q-35 24 -74 48.5t-73.5 50t-60 53t-32.5 58.5q13 33 42 62t67.5 56.5t81.5 53.5t83 52q42 23 84 48t88 48t98 41t114 27q30 0 56.5 -6t46.5 -16t31 -23.5t10 -28.5z" />
<glyph unicode="&#xad;" horiz-adv-x="1618" d="M1647 678q-5 -16 -23.5 -29t-44.5 -22t-56.5 -14.5t-59.5 -6.5q-242 -5 -480 -5.5t-480 1.5q-41 -1 -75 10.5t-61 22.5q-14 7 -26.5 15.5t-21.5 17.5t-13 18.5t1 20.5q31 28 82.5 41.5t112 19.5t124 7.5t118.5 4.5q47 -2 91 -2t90 -1q46 0 92 -2t92 -2q36 0 72 0.5 t72 -2.5q35 0 76 -1t82.5 -4t81 -9t71.5 -16t54 -25.5t29 -37.5z" />
<glyph unicode="&#xae;" horiz-adv-x="2761" d="M2813 580q-7 -66 -51.5 -127.5t-116.5 -116t-167.5 -100.5t-204.5 -82q19 -5 35.5 -12.5t28.5 -16.5t18 -19.5t4 -21.5q-3 -13 -18.5 -22.5t-36.5 -16t-45.5 -9.5t-46.5 -4q-71 -4 -137 5.5t-124 27.5q-128 -25 -260 -38t-266 -13q-163 -4 -317 15.5t-289.5 58 t-247.5 93.5t-189 122.5t-114 145t-24 159.5q3 69 38 136t96 129t145 118.5t184 104.5q95 49 207.5 89.5t236 69t257 43.5t270.5 13q133 0 259 -17.5t238.5 -49t208 -76t167.5 -98.5q151 -106 215 -232.5t47 -257.5zM1913 800q1 21 -19.5 33t-52 18.5t-67.5 8.5t-67 2 q-42 2 -82.5 -1.5t-81.5 -3.5q-42 0 -82 -1t-82 -1q-33 -3 -51 -14t-27.5 -25t-12.5 -29.5t-6 -28.5q-4 -47 0 -92.5t30 -90.5q106 0 208.5 13t192.5 42q44 13 81 31.5t64 40.5t41.5 47t13.5 51zM2481 579q5 49 0 98t-22.5 97t-48.5 94t-77 89q-44 43 -109.5 79.5t-146.5 63 t-175 40.5t-194 14q-107 1 -211.5 -11t-202 -34.5t-186.5 -54t-166 -69.5q-79 -37 -144.5 -81t-113.5 -92t-75.5 -100t-29.5 -106q-8 -58 13 -116t71 -109.5t128.5 -93t186.5 -65.5q4 36 7.5 72.5t12.5 72.5q11 37 17.5 75.5t10.5 76.5q4 48 -2 94t-10 94q-4 46 -2.5 91.5 t5.5 92.5q4 18 10 37t23 35q34 19 76.5 29t89 14.5t94.5 5.5t93 3q51 -1 105.5 1.5t106.5 0.5q57 -2 116.5 -3t117.5 -4.5t113.5 -11t105.5 -22.5t83.5 -38.5t53 -50.5t26.5 -56.5t5 -57.5q-3 -28 -21 -54t-46.5 -50t-64 -45.5t-73.5 -41.5q-84 -40 -180 -74t-209 -47 q46 -26 88.5 -53t78.5 -56q42 -29 86 -57t97 -51q96 23 183 57.5t154 78t107.5 94t44.5 105.5zM1696 189q-46 29 -88.5 57.5t-88.5 57.5q-50 24 -106.5 48t-129.5 29q-8 -25 -10.5 -48.5t-4.5 -47.5q-2 -26 -1 -51t1 -51q44 -5 85.5 -5.5t85.5 -0.5q64 -1 127.5 3t129.5 9z " />
<glyph unicode="&#xb0;" horiz-adv-x="1256" d="M1370 1082q-3 -27 -18.5 -53t-42 -50t-61.5 -45t-77 -38q-87 -36 -189.5 -59t-213.5 -21q-103 0 -191.5 23t-153.5 60q-68 36 -104 83.5t-34 97.5q2 56 52 106.5t132 88.5q39 20 85.5 35.5t97.5 26.5t105.5 16.5t109.5 5.5q106 -2 196.5 -25.5t156.5 -63.5 q72 -38 113.5 -86t36.5 -102zM1041 1092q2 25 -22.5 46t-59.5 36q-37 16 -81.5 26t-95.5 10q-41 -1 -75 -11.5t-59 -26.5t-39.5 -36t-17.5 -39q-6 -22 3.5 -44t33 -40t60.5 -28.5t87 -8.5q51 -3 101 5t88.5 23.5t60 38t16.5 49.5z" />
<glyph unicode="&#xb1;" horiz-adv-x="1417" d="M1533 667q1 -14 -11 -26.5t-32 -22.5t-46 -15.5t-53 -5.5q-88 4 -172.5 2.5t-172.5 1.5q-2 -21 -2 -41q0 -19 -1 -39l-7 -81q-2 -19 -27.5 -34.5t-54.5 -26.5q-31 -11 -69 -19t-79 -7q-36 0 -59.5 9.5t-38.5 23.5t-22.5 30.5t-11.5 30.5q-5 25 -5.5 46t0 39.5t2.5 35 t3 33.5q-41 1 -80 -1.5t-80 -0.5q-38 0 -75 -1.5t-75 -0.5q-34 -1 -66.5 8.5t-51.5 22.5q-25 14 -33 31.5t-8 35.5q31 34 89 50.5t128 23t144 6.5t137 3q3 38 11.5 74.5t21.5 72.5q8 16 23.5 32.5t39 29t54 20t69.5 7.5q28 0 53 -5.5t43.5 -15.5t30 -22.5t13.5 -25.5 q-5 -44 -2.5 -87t-1.5 -87q73 -4 149 -3.5t146 -9.5q33 -4 65 -11.5t58 -18.5t41.5 -26.5t15.5 -34.5zM1457 109q-10 -28 -52.5 -50.5t-102.5 -29.5q-241 -18 -479.5 -18.5t-476.5 16.5q-37 3 -63 15t-49 26q-25 14 -36.5 33t-18.5 37q0 14 13.5 23t34.5 14t46 7.5t48 3.5 q79 5 139.5 4t116.5 -2q49 -2 94.5 -3t94.5 -2q49 0 96 -2t95 0h72t72 2q54 0 109.5 0.5t108.5 -6.5q75 -5 111 -23.5t27 -44.5z" />
<glyph unicode="&#xb4;" horiz-adv-x="492" d="M707 1712q1 -12 -6 -22.5t-13 -22.5q-19 -31 -46 -67t-67.5 -67.5t-97 -52.5t-134.5 -21q-20 4 -38 11t-18 20q-4 13 -1.5 26.5t6.5 26.5q18 31 39 68t54 70.5t82.5 58.5t124.5 33q23 0 44 -5.5t37 -13.5t25 -19t9 -23z" />
<glyph unicode="&#xb6;" horiz-adv-x="3113" d="M3156 1222q0 -18 -9 -36t-15 -36q-7 -7 -12.5 -15t-12.5 -16t-17.5 -14t-27.5 -8q-75 2 -149.5 6.5t-149.5 4.5q-24 -53 -38 -106t-22 -106t-13 -106.5t-9 -106.5q-2 -67 -3.5 -134.5t0.5 -133.5t4.5 -130.5t0.5 -130.5q2 -44 0.5 -87t-12.5 -87q-4 -28 -31.5 -50.5 t-69.5 -38.5t-93.5 -25t-102.5 -9q-28 -1 -48 5.5t-33.5 17t-23 22.5t-16.5 23q-10 24 -14.5 45.5t-6 40.5t-2 37t-1.5 36q1 129 7 258t5 259q2 130 -6.5 259t-31.5 260q-91 2 -185 1.5t-185 3.5q-20 -69 -41 -137t-44 -136q-25 -71 -44.5 -142t-25.5 -142 q-5 -64 -5.5 -126.5t-3.5 -125.5q2 -49 2 -99q0 -49 2 -98q1 -39 9.5 -78t7.5 -79q1 -18 -8 -39t-29.5 -38t-53 -28t-77.5 -11q-59 2 -121 7t-111 22q-45 21 -65 50t-15 60q2 54 10.5 108t15.5 108q10 57 19.5 112t14.5 112q1 20 1.5 39.5t-1.5 38.5q-197 18 -385 50.5 t-347 89.5q-75 25 -136 59.5t-101.5 75t-56 86t-0.5 92.5q20 78 94.5 151.5t202.5 124.5q60 28 129.5 48t144.5 33.5t153.5 21t156.5 10.5q93 2 182.5 4.5t182.5 2.5q165 -3 329 -10t328 -18q213 -11 421 -24t420 -23q26 -3 53.5 -6.5t51 -9.5t41 -15t22.5 -24z" />
<glyph unicode="&#xb7;" horiz-adv-x="707" d="M775 771q-6 -58 -79 -107q-35 -23 -85.5 -40.5t-110.5 -15.5q-63 -1 -109.5 14t-76 38t-41.5 52t-5 56q5 25 29.5 47t61.5 38.5t83 25.5t96 8q50 2 93.5 -6.5t76 -25t50.5 -38.5t17 -46z" />
<glyph unicode="&#xbb;" horiz-adv-x="1754" d="M1841 406q-12 -33 -41 -62t-67 -56t-80.5 -52.5t-80.5 -51.5q-44 -22 -86 -47t-87.5 -48.5t-97.5 -42t-115 -27.5q-29 -1 -55.5 5t-46.5 16t-31.5 23.5t-9.5 28.5q-1 8 4 16t14 15.5t20 14t22 12.5q108 62 214 125t210 126q-83 54 -168.5 106.5t-168.5 106.5 q-62 35 -67 84q-1 13 6.5 27t23.5 25t39.5 17t55.5 3q59 -8 107 -25.5t89.5 -39t79 -45.5t75.5 -46q36 -24 74.5 -47.5t72.5 -49t59.5 -53t35.5 -58.5zM1036 406q-13 -31 -42 -59t-67 -54.5t-80.5 -51.5t-81.5 -50q-38 -19 -76 -41t-79.5 -41t-88.5 -32.5t-103 -16.5 q-29 0 -52 6.5t-39 17.5t-25 24t-10 27q-2 22 18 40.5t47 34.5q86 50 174 100t174 101q-88 60 -172 119.5t-169 119.5q-20 11 -27.5 24t-8.5 27q18 29 61 51.5t103 27.5q57 -5 100.5 -21t80.5 -36.5t69 -44t65 -43.5q36 -26 74 -52.5t70 -54.5t55.5 -58.5t29.5 -63.5z" />
<glyph unicode="&#xbf;" horiz-adv-x="1748" d="M1568 1198q4 -31 -22 -57.5t-71 -46t-102.5 -29t-116.5 -5.5q-63 -3 -127 5.5t-113.5 27t-77 46.5t-16.5 64q5 27 22 54.5t54 49.5q34 23 84.5 35.5t107.5 12.5q69 -2 134 -12.5t122 -28.5q55 -20 89.5 -50.5t32.5 -65.5zM1821 338q-10 -42 -46 -79t-90 -68.5t-121 -57 t-139 -43.5q-146 -41 -306 -60t-322 -15q-63 2 -125 6.5t-121 13.5t-113.5 23.5t-101.5 35.5q-48 20 -82.5 46t-56.5 55t-32.5 60t-10.5 62q0 33 25 61.5t65 53.5t89 47t99 42q175 68 345 116t341 90q-33 8 -68.5 12t-72.5 5.5t-74.5 2.5t-73.5 4q-78 2 -156.5 4.5 t-158.5 9.5q-12 11 -14.5 22.5t-4.5 24.5q1 15 11 29t26.5 26t38 22.5t45.5 18.5h34q43 1 63.5 2t35.5 1q36 2 72 3t72 1q118 1 233 -7t224 -27q51 -9 99.5 -22.5t86.5 -32t60.5 -42.5t19.5 -54q-6 -29 -33.5 -53t-67.5 -44t-88 -37t-94 -31q-129 -35 -259.5 -69t-261.5 -66 q-41 -13 -86 -26t-84.5 -29.5t-68 -36.5t-35.5 -46q3 -34 41.5 -54.5t94.5 -31.5t119.5 -14.5t117.5 -3.5q103 0 203.5 11.5t196.5 36.5q60 19 100.5 48.5t76.5 58.5q27 27 73 51t112 26q33 2 61 -4.5t48 -18.5t30.5 -27.5t8.5 -31.5z" />
<glyph unicode="&#xc0;" horiz-adv-x="1792" d="M193 38zM2086 108q-3 -13 -14.5 -24.5t-29.5 -20.5t-41 -14.5t-49 -7.5q-27 -1 -55.5 -1.5t-55 2t-49.5 8.5t-39 18q-15 12 -24.5 25.5t-15.5 27.5t-11 28t-11 28q-11 36 -24 73t-27 73q-44 10 -92 16t-97 4q-105 -2 -205 -6.5t-202 -15.5q-92 -8 -182.5 -23t-170.5 -44 q-23 -15 -37 -31.5t-23 -34t-15 -35.5t-12 -35q1 -15 -9.5 -30.5t-31 -27.5t-49.5 -18.5t-63 -3.5q-62 6 -107.5 24.5t-73.5 45.5q-35 24 -55 51.5t-22 57.5q0 59 33 116t79 112q49 62 99 125t108 123q51 97 109 191t118 189q34 39 69 83t81.5 84t110 71t155.5 42 q85 2 161 -16.5t138 -44.5q60 -29 108.5 -63t77.5 -74q31 -39 49 -79.5t40 -82.5q84 -163 161 -325t139 -328q13 -29 25 -56t25 -55q4 -14 8 -28.5t6 -29t0.5 -29t-7.5 -29.5v-5zM1446 640q-7 58 -29 114t-52.5 111t-65.5 109t-68 108q-89 -45 -146.5 -101t-101.5 -114 q-22 -30 -42.5 -60t-36.5 -61t-26 -62.5t-11 -62.5l-2 -13l4 -12q-2 -8 -3 -14.5t-8 -14.5l7 -11q34 0 68 -0.5t67 -0.5q36 -3 72 -3.5t71 -0.5q44 -2 96 1t97 13.5t76 28.5t34 46zM1099 1493q0 -13 -19.5 -20t-40.5 -11q-78 1 -131 22.5t-88 52t-56 66.5t-35 67 q-4 12 -8.5 22.5t-0.5 22.5q1 12 11.5 22.5t27 19t38 13.5t44.5 6q75 -7 120.5 -32t73 -59t42 -71t27.5 -68q2 -13 2 -27q0 -13 -7 -26z" />
<glyph unicode="&#xc1;" horiz-adv-x="1792" d="M193 38zM2086 108q-3 -13 -14.5 -24.5t-29.5 -20.5t-41 -14.5t-49 -7.5q-27 -1 -55.5 -1.5t-55 2t-49.5 8.5t-39 18q-15 12 -24.5 25.5t-15.5 27.5t-11 28t-11 28q-11 36 -24 73t-27 73q-44 10 -92 16t-97 4q-105 -2 -205 -6.5t-202 -15.5q-92 -8 -182.5 -23t-170.5 -44 q-23 -15 -37 -31.5t-23 -34t-15 -35.5t-12 -35q1 -15 -9.5 -30.5t-31 -27.5t-49.5 -18.5t-63 -3.5q-62 6 -107.5 24.5t-73.5 45.5q-35 24 -55 51.5t-22 57.5q0 59 33 116t79 112q49 62 99 125t108 123q51 97 109 191t118 189q34 39 69 83t81.5 84t110 71t155.5 42 q85 2 161 -16.5t138 -44.5q60 -29 108.5 -63t77.5 -74q31 -39 49 -79.5t40 -82.5q84 -163 161 -325t139 -328q13 -29 25 -56t25 -55q4 -14 8 -28.5t6 -29t0.5 -29t-7.5 -29.5v-5zM1446 640q-7 58 -29 114t-52.5 111t-65.5 109t-68 108q-89 -45 -146.5 -101t-101.5 -114 q-22 -30 -42.5 -60t-36.5 -61t-26 -62.5t-11 -62.5l-2 -13l4 -12q-2 -8 -3 -14.5t-8 -14.5l7 -11q34 0 68 -0.5t67 -0.5q36 -3 72 -3.5t71 -0.5q44 -2 96 1t97 13.5t76 28.5t34 46zM1376 1721q1 -12 -6 -22.5t-13 -22.5q-19 -31 -46 -67t-67.5 -67.5t-97 -52.5t-134.5 -21 q-20 4 -38 11t-18 20q-4 13 -1.5 26.5t6.5 26.5q18 31 39 68t54 70.5t82.5 58.5t124.5 33q23 0 44 -5.5t37 -13.5t25 -19t9 -23z" />
<glyph unicode="&#xc2;" horiz-adv-x="1792" d="M193 38zM2086 108q-3 -13 -14.5 -24.5t-29.5 -20.5t-41 -14.5t-49 -7.5q-27 -1 -55.5 -1.5t-55 2t-49.5 8.5t-39 18q-15 12 -24.5 25.5t-15.5 27.5t-11 28t-11 28q-11 36 -24 73t-27 73q-44 10 -92 16t-97 4q-105 -2 -205 -6.5t-202 -15.5q-92 -8 -182.5 -23t-170.5 -44 q-23 -15 -37 -31.5t-23 -34t-15 -35.5t-12 -35q1 -15 -9.5 -30.5t-31 -27.5t-49.5 -18.5t-63 -3.5q-62 6 -107.5 24.5t-73.5 45.5q-35 24 -55 51.5t-22 57.5q0 59 33 116t79 112q49 62 99 125t108 123q51 97 109 191t118 189q34 39 69 83t81.5 84t110 71t155.5 42 q85 2 161 -16.5t138 -44.5q60 -29 108.5 -63t77.5 -74q31 -39 49 -79.5t40 -82.5q84 -163 161 -325t139 -328q13 -29 25 -56t25 -55q4 -14 8 -28.5t6 -29t0.5 -29t-7.5 -29.5v-5zM1446 640q-7 58 -29 114t-52.5 111t-65.5 109t-68 108q-89 -45 -146.5 -101t-101.5 -114 q-22 -30 -42.5 -60t-36.5 -61t-26 -62.5t-11 -62.5l-2 -13l4 -12q-2 -8 -3 -14.5t-8 -14.5l7 -11q34 0 68 -0.5t67 -0.5q36 -3 72 -3.5t71 -0.5q44 -2 96 1t97 13.5t76 28.5t34 46zM1584 1519q-3 -11 -14.5 -20t-28 -15t-37 -9.5t-41.5 -3.5q-17 -1 -33.5 0.5t-31.5 5.5 t-26.5 10.5t-17.5 14.5q-42 54 -88 107.5t-95 105.5q-67 -54 -135.5 -107.5t-128.5 -110.5q-17 -17 -52 -26t-71 -6q-30 1 -51 9t-35.5 19.5t-21.5 25t-8 26.5q1 26 17.5 50t42 46.5t57 43.5t62.5 41q33 18 68 38t74 36.5t83.5 28.5t95.5 14q52 -1 96 -11.5t81 -26.5 t68.5 -35.5t59.5 -38.5q26 -21 50.5 -43t42 -45t25.5 -48t2 -50q-3 -7 -4.5 -13t-4.5 -13z" />
<glyph unicode="&#xc3;" horiz-adv-x="1792" d="M193 38zM2086 108q-3 -13 -14.5 -24.5t-29.5 -20.5t-41 -14.5t-49 -7.5q-27 -1 -55.5 -1.5t-55 2t-49.5 8.5t-39 18q-15 12 -24.5 25.5t-15.5 27.5t-11 28t-11 28q-11 36 -24 73t-27 73q-44 10 -92 16t-97 4q-105 -2 -205 -6.5t-202 -15.5q-92 -8 -182.5 -23t-170.5 -44 q-23 -15 -37 -31.5t-23 -34t-15 -35.5t-12 -35q1 -15 -9.5 -30.5t-31 -27.5t-49.5 -18.5t-63 -3.5q-62 6 -107.5 24.5t-73.5 45.5q-35 24 -55 51.5t-22 57.5q0 59 33 116t79 112q49 62 99 125t108 123q51 97 109 191t118 189q34 39 69 83t81.5 84t110 71t155.5 42 q85 2 161 -16.5t138 -44.5q60 -29 108.5 -63t77.5 -74q31 -39 49 -79.5t40 -82.5q84 -163 161 -325t139 -328q13 -29 25 -56t25 -55q4 -14 8 -28.5t6 -29t0.5 -29t-7.5 -29.5v-5zM1446 640q-7 58 -29 114t-52.5 111t-65.5 109t-68 108q-89 -45 -146.5 -101t-101.5 -114 q-22 -30 -42.5 -60t-36.5 -61t-26 -62.5t-11 -62.5l-2 -13l4 -12q-2 -8 -3 -14.5t-8 -14.5l7 -11q34 0 68 -0.5t67 -0.5q36 -3 72 -3.5t71 -0.5q44 -2 96 1t97 13.5t76 28.5t34 46zM1875 1625q3 -28 -28 -53t-86 -36q-108 -26 -219.5 -48t-231.5 -27q-48 0 -89.5 11 t-73.5 29q-26 18 -68.5 28.5t-88.5 10.5q-58 2 -116.5 -8.5t-102.5 -32.5q-18 -9 -38 -17.5t-34 -20.5q-35 2 -66.5 11.5t-56.5 23.5q-24 14 -46 30t-22 36q-2 21 14.5 39t44 33t61.5 27t68 21q71 17 147.5 29.5t156.5 12.5q46 2 85 -8.5t68 -27.5q32 -17 75 -26t89 -9 q49 0 97 2.5t96 10.5q35 13 70 23t70 23q13 2 24.5 4.5t24.5 0.5q33 -3 63 -11.5t53.5 -20.5t39 -27.5t20.5 -32.5z" />
<glyph unicode="&#xc4;" horiz-adv-x="1792" d="M193 38zM2086 108q-3 -13 -14.5 -24.5t-29.5 -20.5t-41 -14.5t-49 -7.5q-27 -1 -55.5 -1.5t-55 2t-49.5 8.5t-39 18q-15 12 -24.5 25.5t-15.5 27.5t-11 28t-11 28q-11 36 -24 73t-27 73q-44 10 -92 16t-97 4q-105 -2 -205 -6.5t-202 -15.5q-92 -8 -182.5 -23t-170.5 -44 q-23 -15 -37 -31.5t-23 -34t-15 -35.5t-12 -35q1 -15 -9.5 -30.5t-31 -27.5t-49.5 -18.5t-63 -3.5q-62 6 -107.5 24.5t-73.5 45.5q-35 24 -55 51.5t-22 57.5q0 59 33 116t79 112q49 62 99 125t108 123q51 97 109 191t118 189q34 39 69 83t81.5 84t110 71t155.5 42 q85 2 161 -16.5t138 -44.5q60 -29 108.5 -63t77.5 -74q31 -39 49 -79.5t40 -82.5q84 -163 161 -325t139 -328q13 -29 25 -56t25 -55q4 -14 8 -28.5t6 -29t0.5 -29t-7.5 -29.5v-5zM1446 640q-7 58 -29 114t-52.5 111t-65.5 109t-68 108q-89 -45 -146.5 -101t-101.5 -114 q-22 -30 -42.5 -60t-36.5 -61t-26 -62.5t-11 -62.5l-2 -13l4 -12q-2 -8 -3 -14.5t-8 -14.5l7 -11q34 0 68 -0.5t67 -0.5q36 -3 72 -3.5t71 -0.5q44 -2 96 1t97 13.5t76 28.5t34 46zM1708 1553q-3 -19 -21.5 -35.5t-47 -29t-64 -20t-72.5 -7.5q-45 1 -78.5 12t-56 28 t-32.5 38t-7 41q4 23 19 44.5t39 41.5q25 15 56.5 28t73.5 13q55 -2 95.5 -17t65.5 -37t32.5 -48.5t-2.5 -51.5zM1003 1558q2 -17 -9.5 -35t-34 -31.5t-54.5 -20.5t-71 -3q-48 0 -87.5 12.5t-69.5 29.5q-32 17 -47.5 39t-13.5 45q22 45 85 77q35 14 69.5 27t79.5 15 q60 0 91.5 -16t45 -39.5t15 -50.5t1.5 -49z" />
<glyph unicode="&#xc5;" horiz-adv-x="1792" d="M193 38zM2086 108q-3 -13 -14.5 -24.5t-29.5 -20.5t-41 -14.5t-49 -7.5q-27 -1 -55.5 -1.5t-55 2t-49.5 8.5t-39 18q-15 12 -24.5 25.5t-15.5 27.5t-11 28t-11 28q-11 36 -24 73t-27 73q-44 10 -92 16t-97 4q-105 -2 -205 -6.5t-202 -15.5q-92 -8 -182.5 -23t-170.5 -44 q-23 -15 -37 -31.5t-23 -34t-15 -35.5t-12 -35q1 -15 -9.5 -30.5t-31 -27.5t-49.5 -18.5t-63 -3.5q-62 6 -107.5 24.5t-73.5 45.5q-35 24 -55 51.5t-22 57.5q0 59 33 116t79 112q49 62 99 125t108 123q51 97 109 191t118 189q34 39 69 83t81.5 84t110 71t155.5 42 q85 2 161 -16.5t138 -44.5q60 -29 108.5 -63t77.5 -74q31 -39 49 -79.5t40 -82.5q84 -163 161 -325t139 -328q13 -29 25 -56t25 -55q4 -14 8 -28.5t6 -29t0.5 -29t-7.5 -29.5v-5zM1446 640q-7 58 -29 114t-52.5 111t-65.5 109t-68 108q-89 -45 -146.5 -101t-101.5 -114 q-22 -30 -42.5 -60t-36.5 -61t-26 -62.5t-11 -62.5l-2 -13l4 -12q-2 -8 -3 -14.5t-8 -14.5l7 -11q34 0 68 -0.5t67 -0.5q36 -3 72 -3.5t71 -0.5q44 -2 96 1t97 13.5t76 28.5t34 46zM1722 1705q-3 -27 -18.5 -53t-42 -50t-61.5 -45t-77 -38q-87 -36 -189.5 -59t-213.5 -21 q-103 0 -191.5 23t-153.5 60q-68 36 -104 83.5t-34 97.5q2 56 52 106.5t132 88.5q39 20 85.5 35.5t97.5 26.5t105.5 16.5t109.5 5.5q106 -2 196.5 -25.5t156.5 -63.5q72 -38 113.5 -86t36.5 -102zM1393 1715q2 25 -22.5 46t-59.5 36q-37 16 -81.5 26t-95.5 10 q-41 -1 -75 -11.5t-59 -26.5t-39.5 -36t-17.5 -39q-6 -22 3.5 -44t33 -40t60.5 -28.5t87 -8.5q51 -3 101 5t88.5 23.5t60 38t16.5 49.5z" />
<glyph unicode="&#xc6;" horiz-adv-x="3280" d="M3296 362q-11 -22 -30.5 -42.5t-50.5 -37.5q-66 -31 -141.5 -54t-155 -42.5t-161.5 -36.5t-163 -35q-165 -33 -333.5 -62t-343.5 -38q-42 0 -86 1.5t-86.5 6.5t-81.5 14t-71 24q-22 12 -35.5 26.5t-21.5 30t-11 32t-3 32.5q-2 42 2 82t3 82q-49 0 -99 0.5t-99 2.5 q-49 0 -99 2.5t-99 2.5q-85 2 -168.5 -1.5t-167.5 -11.5q-38 -44 -69 -87t-63 -87q-17 -17 -33 -37t-38.5 -37.5t-53.5 -30t-76 -13.5q-35 0 -69 6.5t-61 17.5t-44 26.5t-19 34.5q-6 31 -3.5 63t11.5 63.5t23.5 62.5t31.5 62q47 64 91.5 129.5t98.5 129.5q165 217 392 422 q56 44 118.5 92t137 89.5t165.5 70.5t204 35q62 0 120 -9t102 -32q142 21 288.5 27.5t294.5 5.5t295 -6.5t291 -9.5q54 2 100.5 -7t81.5 -25.5t54.5 -40t19.5 -50.5q2 -12 0.5 -28t-11.5 -29.5t-30.5 -22t-56.5 -5.5q-233 6 -464 11t-466 7q-36 -38 -54.5 -80.5t-20.5 -84.5 q2 -6 2 -13q0 -6 0.5 -12t3 -12t9.5 -11q114 -2 225 1t224 6q111 5 222 6t222 1q51 0 102 -8t90.5 -23.5t61.5 -38t16 -50.5q-5 -28 -39.5 -44.5t-83 -25.5t-102.5 -13t-98 -6q-152 -6 -302 -13.5t-300 -21.5q-77 -9 -143 -30.5t-114 -51.5t-75 -66.5t-27 -75.5 q-2 -26 3.5 -52t15.5 -51.5t23 -50.5t27 -49q74 1 146 10t141.5 23t137 30.5t133.5 33.5q128 38 265 67t286 36q43 2 73.5 -7.5t47.5 -25.5t22 -35.5t-1 -37.5zM1548 536q2 54 7 108.5t10 109.5q0 46 3.5 94t-1.5 95.5t-25.5 92.5t-68.5 85q-62 -27 -113.5 -58.5t-95 -66 t-80.5 -71t-71 -73.5q-62 -78 -110.5 -155.5t-91.5 -157.5q160 -1 318.5 -2t318.5 -1z" />
<glyph unicode="&#xc8;" horiz-adv-x="1918" d="M294 27zM2039 362q-10 -22 -27 -43.5t-46 -38.5q-63 -32 -136.5 -56.5t-153 -45.5t-163.5 -38.5t-166 -33.5q-160 -31 -323.5 -56t-335.5 -23q-63 3 -123 14.5t-104 33.5q-42 25 -71.5 54.5t-44.5 61.5q-24 55 -35 111.5t-14.5 113t-1.5 113.5t5 113q10 54 17 110.5 t17 112.5t25.5 112.5t41.5 110.5t65.5 106t97.5 101q129 23 265 33.5t273 14.5q152 7 305.5 5.5t305.5 -10.5q54 1 99.5 -9t78 -27.5t49.5 -41.5t13 -50q0 -12 -3.5 -28t-14.5 -30t-31.5 -22t-55.5 -5q-237 10 -472.5 13.5t-476.5 -1.5q-34 -40 -58 -82t-28 -84 q2 -6 1.5 -12t-0.5 -13q0 -6 2 -12t9 -11q114 0 226.5 5t226.5 9q113 5 226.5 6.5t227.5 0.5q51 0 100.5 -9t87.5 -25.5t59 -39.5t15 -51q-6 -29 -40.5 -45.5t-82.5 -25t-102 -11.5t-99 -5q-155 -8 -310 -15t-308 -22q-74 -9 -139 -30t-112 -50.5t-73.5 -65.5t-23.5 -75 q-2 -27 4 -52.5t17.5 -50.5t26.5 -50t31 -50q74 0 146 7.5t141.5 20.5t137 29.5t133.5 33.5q127 36 264 66t287 36q43 3 74 -5.5t49 -24t24 -35t1 -37.5zM1234 1500q0 -13 -19.5 -20t-40.5 -11q-78 1 -131 22.5t-88 52t-56 66.5t-35 67q-4 12 -8.5 22.5t-0.5 22.5 q1 12 11.5 22.5t27 19t38 13.5t44.5 6q75 -7 120.5 -32t73 -59t42 -71t27.5 -68q2 -13 2 -27q0 -13 -7 -26z" />
<glyph unicode="&#xc9;" horiz-adv-x="1918" d="M294 27zM2039 362q-10 -22 -27 -43.5t-46 -38.5q-63 -32 -136.5 -56.5t-153 -45.5t-163.5 -38.5t-166 -33.5q-160 -31 -323.5 -56t-335.5 -23q-63 3 -123 14.5t-104 33.5q-42 25 -71.5 54.5t-44.5 61.5q-24 55 -35 111.5t-14.5 113t-1.5 113.5t5 113q10 54 17 110.5 t17 112.5t25.5 112.5t41.5 110.5t65.5 106t97.5 101q129 23 265 33.5t273 14.5q152 7 305.5 5.5t305.5 -10.5q54 1 99.5 -9t78 -27.5t49.5 -41.5t13 -50q0 -12 -3.5 -28t-14.5 -30t-31.5 -22t-55.5 -5q-237 10 -472.5 13.5t-476.5 -1.5q-34 -40 -58 -82t-28 -84 q2 -6 1.5 -12t-0.5 -13q0 -6 2 -12t9 -11q114 0 226.5 5t226.5 9q113 5 226.5 6.5t227.5 0.5q51 0 100.5 -9t87.5 -25.5t59 -39.5t15 -51q-6 -29 -40.5 -45.5t-82.5 -25t-102 -11.5t-99 -5q-155 -8 -310 -15t-308 -22q-74 -9 -139 -30t-112 -50.5t-73.5 -65.5t-23.5 -75 q-2 -27 4 -52.5t17.5 -50.5t26.5 -50t31 -50q74 0 146 7.5t141.5 20.5t137 29.5t133.5 33.5q127 36 264 66t287 36q43 3 74 -5.5t49 -24t24 -35t1 -37.5zM1385 1732q1 -12 -6 -22.5t-13 -22.5q-19 -31 -46 -67t-67.5 -67.5t-97 -52.5t-134.5 -21q-20 4 -38 11t-18 20 q-4 13 -1.5 26.5t6.5 26.5q18 31 39 68t54 70.5t82.5 58.5t124.5 33q23 0 44 -5.5t37 -13.5t25 -19t9 -23z" />
<glyph unicode="&#xca;" horiz-adv-x="1918" d="M294 27zM2039 362q-10 -22 -27 -43.5t-46 -38.5q-63 -32 -136.5 -56.5t-153 -45.5t-163.5 -38.5t-166 -33.5q-160 -31 -323.5 -56t-335.5 -23q-63 3 -123 14.5t-104 33.5q-42 25 -71.5 54.5t-44.5 61.5q-24 55 -35 111.5t-14.5 113t-1.5 113.5t5 113q10 54 17 110.5 t17 112.5t25.5 112.5t41.5 110.5t65.5 106t97.5 101q129 23 265 33.5t273 14.5q152 7 305.5 5.5t305.5 -10.5q54 1 99.5 -9t78 -27.5t49.5 -41.5t13 -50q0 -12 -3.5 -28t-14.5 -30t-31.5 -22t-55.5 -5q-237 10 -472.5 13.5t-476.5 -1.5q-34 -40 -58 -82t-28 -84 q2 -6 1.5 -12t-0.5 -13q0 -6 2 -12t9 -11q114 0 226.5 5t226.5 9q113 5 226.5 6.5t227.5 0.5q51 0 100.5 -9t87.5 -25.5t59 -39.5t15 -51q-6 -29 -40.5 -45.5t-82.5 -25t-102 -11.5t-99 -5q-155 -8 -310 -15t-308 -22q-74 -9 -139 -30t-112 -50.5t-73.5 -65.5t-23.5 -75 q-2 -27 4 -52.5t17.5 -50.5t26.5 -50t31 -50q74 0 146 7.5t141.5 20.5t137 29.5t133.5 33.5q127 36 264 66t287 36q43 3 74 -5.5t49 -24t24 -35t1 -37.5zM1604 1522q-3 -11 -14.5 -20t-28 -15t-37 -9.5t-41.5 -3.5q-17 -1 -33.5 0.5t-31.5 5.5t-26.5 10.5t-17.5 14.5 q-42 54 -88 107.5t-95 105.5q-67 -54 -135.5 -107.5t-128.5 -110.5q-17 -17 -52 -26t-71 -6q-30 1 -51 9t-35.5 19.5t-21.5 25t-8 26.5q1 26 17.5 50t42 46.5t57 43.5t62.5 41q33 18 68 38t74 36.5t83.5 28.5t95.5 14q52 -1 96 -11.5t81 -26.5t68.5 -35.5t59.5 -38.5 q26 -21 50.5 -43t42 -45t25.5 -48t2 -50q-3 -7 -4.5 -13t-4.5 -13z" />
<glyph unicode="&#xcb;" horiz-adv-x="1918" d="M294 27zM2039 362q-10 -22 -27 -43.5t-46 -38.5q-63 -32 -136.5 -56.5t-153 -45.5t-163.5 -38.5t-166 -33.5q-160 -31 -323.5 -56t-335.5 -23q-63 3 -123 14.5t-104 33.5q-42 25 -71.5 54.5t-44.5 61.5q-24 55 -35 111.5t-14.5 113t-1.5 113.5t5 113q10 54 17 110.5 t17 112.5t25.5 112.5t41.5 110.5t65.5 106t97.5 101q129 23 265 33.5t273 14.5q152 7 305.5 5.5t305.5 -10.5q54 1 99.5 -9t78 -27.5t49.5 -41.5t13 -50q0 -12 -3.5 -28t-14.5 -30t-31.5 -22t-55.5 -5q-237 10 -472.5 13.5t-476.5 -1.5q-34 -40 -58 -82t-28 -84 q2 -6 1.5 -12t-0.5 -13q0 -6 2 -12t9 -11q114 0 226.5 5t226.5 9q113 5 226.5 6.5t227.5 0.5q51 0 100.5 -9t87.5 -25.5t59 -39.5t15 -51q-6 -29 -40.5 -45.5t-82.5 -25t-102 -11.5t-99 -5q-155 -8 -310 -15t-308 -22q-74 -9 -139 -30t-112 -50.5t-73.5 -65.5t-23.5 -75 q-2 -27 4 -52.5t17.5 -50.5t26.5 -50t31 -50q74 0 146 7.5t141.5 20.5t137 29.5t133.5 33.5q127 36 264 66t287 36q43 3 74 -5.5t49 -24t24 -35t1 -37.5zM1729 1546q-3 -19 -21.5 -35.5t-47 -29t-64 -20t-72.5 -7.5q-45 1 -78.5 12t-56 28t-32.5 38t-7 41q4 23 19 44.5 t39 41.5q25 15 56.5 28t73.5 13q55 -2 95.5 -17t65.5 -37t32.5 -48.5t-2.5 -51.5zM1024 1551q2 -17 -9.5 -35t-34 -31.5t-54.5 -20.5t-71 -3q-48 0 -87.5 12.5t-69.5 29.5q-32 17 -47.5 39t-13.5 45q22 45 85 77q35 14 69.5 27t79.5 15q60 0 91.5 -16t45 -39.5t15 -50.5 t1.5 -49z" />
<glyph unicode="&#xcc;" horiz-adv-x="1713" d="M319 16zM1865 90q-6 -13 -16 -26t-37 -18q-261 -24 -525 -30t-528 3q-55 3 -114 9t-112 17.5t-95 30t-63 47.5q-8 11 -14 21t-6 22q6 15 25.5 22.5t45.5 10.5t53 3q28 0 50 1q62 2 125 2t126 8q2 12 0 23.5t0 22.5q5 85 18 168.5t26 168.5q17 88 33 174t27 174 q7 45 5 90.5t-19 90.5l-100 -8t-99 -8q-31 0 -69 -1t-76.5 -0.5t-75.5 4t-66 11.5t-47 22t-18 36q24 32 71.5 53.5t106.5 37t123.5 26t123.5 20.5q133 20 271 27t277 5q63 -3 133 -6t135 -12t120 -26t88 -48q-13 -34 -60 -59t-114 -33q-72 -3 -144 -10.5t-144 -13.5 q-9 -36 -13.5 -73t-10.5 -74q-9 -38 -16 -75.5t-12 -74.5q-2 -31 -2.5 -62.5t-0.5 -62.5q0 -32 1 -63t-3 -63q3 -49 -5 -100t-10.5 -101.5t8 -100t48.5 -94.5q29 0 58.5 -1t57.5 1h34l38 2l24 1q26 0 52 3t52 3q51 2 101.5 1t98.5 -12q27 -14 41 -27.5t19.5 -27t4 -26.5 t-5.5 -25zM1072 1499q0 -13 -19.5 -20t-40.5 -11q-78 1 -131 22.5t-88 52t-56 66.5t-35 67q-4 12 -8.5 22.5t-0.5 22.5q1 12 11.5 22.5t27 19t38 13.5t44.5 6q75 -7 120.5 -32t73 -59t42 -71t27.5 -68q2 -13 2 -27q0 -13 -7 -26z" />
<glyph unicode="&#xcd;" horiz-adv-x="1713" d="M319 16zM1865 90q-6 -13 -16 -26t-37 -18q-261 -24 -525 -30t-528 3q-55 3 -114 9t-112 17.5t-95 30t-63 47.5q-8 11 -14 21t-6 22q6 15 25.5 22.5t45.5 10.5t53 3q28 0 50 1q62 2 125 2t126 8q2 12 0 23.5t0 22.5q5 85 18 168.5t26 168.5q17 88 33 174t27 174 q7 45 5 90.5t-19 90.5l-100 -8t-99 -8q-31 0 -69 -1t-76.5 -0.5t-75.5 4t-66 11.5t-47 22t-18 36q24 32 71.5 53.5t106.5 37t123.5 26t123.5 20.5q133 20 271 27t277 5q63 -3 133 -6t135 -12t120 -26t88 -48q-13 -34 -60 -59t-114 -33q-72 -3 -144 -10.5t-144 -13.5 q-9 -36 -13.5 -73t-10.5 -74q-9 -38 -16 -75.5t-12 -74.5q-2 -31 -2.5 -62.5t-0.5 -62.5q0 -32 1 -63t-3 -63q3 -49 -5 -100t-10.5 -101.5t8 -100t48.5 -94.5q29 0 58.5 -1t57.5 1h34l38 2l24 1q26 0 52 3t52 3q51 2 101.5 1t98.5 -12q27 -14 41 -27.5t19.5 -27t4 -26.5 t-5.5 -25zM1275 1729q1 -12 -6 -22.5t-13 -22.5q-19 -31 -46 -67t-67.5 -67.5t-97 -52.5t-134.5 -21q-20 4 -38 11t-18 20q-4 13 -1.5 26.5t6.5 26.5q18 31 39 68t54 70.5t82.5 58.5t124.5 33q23 0 44 -5.5t37 -13.5t25 -19t9 -23z" />
<glyph unicode="&#xce;" horiz-adv-x="1713" d="M319 16zM1865 90q-6 -13 -16 -26t-37 -18q-261 -24 -525 -30t-528 3q-55 3 -114 9t-112 17.5t-95 30t-63 47.5q-8 11 -14 21t-6 22q6 15 25.5 22.5t45.5 10.5t53 3q28 0 50 1q62 2 125 2t126 8q2 12 0 23.5t0 22.5q5 85 18 168.5t26 168.5q17 88 33 174t27 174 q7 45 5 90.5t-19 90.5l-100 -8t-99 -8q-31 0 -69 -1t-76.5 -0.5t-75.5 4t-66 11.5t-47 22t-18 36q24 32 71.5 53.5t106.5 37t123.5 26t123.5 20.5q133 20 271 27t277 5q63 -3 133 -6t135 -12t120 -26t88 -48q-13 -34 -60 -59t-114 -33q-72 -3 -144 -10.5t-144 -13.5 q-9 -36 -13.5 -73t-10.5 -74q-9 -38 -16 -75.5t-12 -74.5q-2 -31 -2.5 -62.5t-0.5 -62.5q0 -32 1 -63t-3 -63q3 -49 -5 -100t-10.5 -101.5t8 -100t48.5 -94.5q29 0 58.5 -1t57.5 1h34l38 2l24 1q26 0 52 3t52 3q51 2 101.5 1t98.5 -12q27 -14 41 -27.5t19.5 -27t4 -26.5 t-5.5 -25zM1474 1519q-3 -11 -14.5 -20t-28 -15t-37 -9.5t-41.5 -3.5q-17 -1 -33.5 0.5t-31.5 5.5t-26.5 10.5t-17.5 14.5q-42 54 -88 107.5t-95 105.5q-67 -54 -135.5 -107.5t-128.5 -110.5q-17 -17 -52 -26t-71 -6q-30 1 -51 9t-35.5 19.5t-21.5 25t-8 26.5q1 26 17.5 50 t42 46.5t57 43.5t62.5 41q33 18 68 38t74 36.5t83.5 28.5t95.5 14q52 -1 96 -11.5t81 -26.5t68.5 -35.5t59.5 -38.5q26 -21 50.5 -43t42 -45t25.5 -48t2 -50q-3 -7 -4.5 -13t-4.5 -13z" />
<glyph unicode="&#xcf;" horiz-adv-x="1713" d="M319 16zM1865 90q-6 -13 -16 -26t-37 -18q-261 -24 -525 -30t-528 3q-55 3 -114 9t-112 17.5t-95 30t-63 47.5q-8 11 -14 21t-6 22q6 15 25.5 22.5t45.5 10.5t53 3q28 0 50 1q62 2 125 2t126 8q2 12 0 23.5t0 22.5q5 85 18 168.5t26 168.5q17 88 33 174t27 174 q7 45 5 90.5t-19 90.5l-100 -8t-99 -8q-31 0 -69 -1t-76.5 -0.5t-75.5 4t-66 11.5t-47 22t-18 36q24 32 71.5 53.5t106.5 37t123.5 26t123.5 20.5q133 20 271 27t277 5q63 -3 133 -6t135 -12t120 -26t88 -48q-13 -34 -60 -59t-114 -33q-72 -3 -144 -10.5t-144 -13.5 q-9 -36 -13.5 -73t-10.5 -74q-9 -38 -16 -75.5t-12 -74.5q-2 -31 -2.5 -62.5t-0.5 -62.5q0 -32 1 -63t-3 -63q3 -49 -5 -100t-10.5 -101.5t8 -100t48.5 -94.5q29 0 58.5 -1t57.5 1h34l38 2l24 1q26 0 52 3t52 3q51 2 101.5 1t98.5 -12q27 -14 41 -27.5t19.5 -27t4 -26.5 t-5.5 -25zM1551 1548q-3 -19 -21.5 -35.5t-47 -29t-64 -20t-72.5 -7.5q-45 1 -78.5 12t-56 28t-32.5 38t-7 41q4 23 19 44.5t39 41.5q25 15 56.5 28t73.5 13q55 -2 95.5 -17t65.5 -37t32.5 -48.5t-2.5 -51.5zM846 1553q2 -17 -9.5 -35t-34 -31.5t-54.5 -20.5t-71 -3 q-48 0 -87.5 12.5t-69.5 29.5q-32 17 -47.5 39t-13.5 45q22 45 85 77q35 14 69.5 27t79.5 15q60 0 91.5 -16t45 -39.5t15 -50.5t1.5 -49z" />
<glyph unicode="&#xd1;" horiz-adv-x="1942" d="M292 34zM2045 239q-11 -29 -27 -57.5t-42 -55.5q-27 -26 -70 -49t-102 -28q-109 2 -189.5 29t-144 66t-115 84t-102.5 84q-109 105 -216 207t-209 208q-41 -19 -63.5 -43t-33.5 -50.5t-15 -53.5t-8 -53q-4 -42 0.5 -84t8.5 -85q-4 -42 2 -83.5t5 -83.5q-5 -20 -5 -46 t-9.5 -50t-35 -41t-80.5 -20q-42 2 -82 10.5t-67 23.5q-20 18 -40.5 36.5t-27.5 40.5q-29 46 -46 94t-25.5 96.5t-11 97.5t-2.5 98q2 35 4.5 68t10.5 68q9 78 26.5 154t41.5 154q26 52 43.5 103t41.5 97.5t63 86.5t108 69q70 1 123.5 -14.5t95 -40t75 -54t65.5 -55.5 q86 -95 164.5 -190t159.5 -192q34 -39 67 -78.5t70 -77.5t80.5 -74t98.5 -69q23 32 32.5 66t13.5 69q4 130 -15 258q-8 63 -13.5 124.5t-5.5 124.5q2 17 4 37.5t7.5 41.5t16.5 41t31.5 36t52.5 25.5t79 9.5q76 -6 127.5 -28t82 -53.5t43 -68t10.5 -70.5q4 -49 3 -96.5 t-3 -96.5l-7 -199q-9 -112 -20.5 -222t-22.5 -222zM1962 1626q3 -28 -28 -53t-86 -36q-108 -26 -219.5 -48t-231.5 -27q-48 0 -89.5 11t-73.5 29q-26 18 -68.5 28.5t-88.5 10.5q-58 2 -116.5 -8.5t-102.5 -32.5q-18 -9 -38 -17.5t-34 -20.5q-35 2 -66.5 11.5t-56.5 23.5 q-24 14 -46 30t-22 36q-2 21 14.5 39t44 33t61.5 27t68 21q71 17 147.5 29.5t156.5 12.5q46 2 85 -8.5t68 -27.5q32 -17 75 -26t89 -9q49 0 97 2.5t96 10.5q35 13 70 23t70 23q13 2 24.5 4.5t24.5 0.5q33 -3 63 -11.5t53.5 -20.5t39 -27.5t20.5 -32.5z" />
<glyph unicode="&#xd2;" horiz-adv-x="1772" d="M253 14zM2063 766q-5 -60 -21 -120t-45 -119t-72.5 -116.5t-103.5 -111.5q-52 -53 -125.5 -105t-166.5 -92.5t-204 -65t-238 -22.5q-123 -1 -227.5 22t-189 61.5t-148.5 87.5t-107 100q-100 104 -139 218t-23 229q11 106 71.5 211.5t180.5 196.5q57 46 135 86t170 69 t196 44.5t214 12.5q105 1 204 -12.5t185.5 -40t157 -63.5t119.5 -82q51 -43 85.5 -90t55.5 -96.5t29.5 -100t6.5 -101.5zM1601 857q4 49 -8.5 96.5t-49.5 92.5q-14 22 -40.5 42t-63.5 35t-81.5 23.5t-92.5 8.5q-78 3 -148 -11t-128.5 -38t-103.5 -55.5t-73 -65.5 q-66 -71 -97 -147t-37 -152q-8 -64 4.5 -127.5t41.5 -125.5q15 -27 34 -56.5t50 -55t76 -44t111 -21.5q96 1 169 24t128 58t95.5 77t71.5 80q28 44 53 89t44.5 90t31 91t13.5 92zM1157 1482q0 -13 -19.5 -20t-40.5 -11q-78 1 -131 22.5t-88 52t-56 66.5t-35 67 q-4 12 -8.5 22.5t-0.5 22.5q1 12 11.5 22.5t27 19t38 13.5t44.5 6q75 -7 120.5 -32t73 -59t42 -71t27.5 -68q2 -13 2 -27q0 -13 -7 -26z" />
<glyph unicode="&#xd3;" horiz-adv-x="1772" d="M253 14zM2063 766q-5 -60 -21 -120t-45 -119t-72.5 -116.5t-103.5 -111.5q-52 -53 -125.5 -105t-166.5 -92.5t-204 -65t-238 -22.5q-123 -1 -227.5 22t-189 61.5t-148.5 87.5t-107 100q-100 104 -139 218t-23 229q11 106 71.5 211.5t180.5 196.5q57 46 135 86t170 69 t196 44.5t214 12.5q105 1 204 -12.5t185.5 -40t157 -63.5t119.5 -82q51 -43 85.5 -90t55.5 -96.5t29.5 -100t6.5 -101.5zM1601 857q4 49 -8.5 96.5t-49.5 92.5q-14 22 -40.5 42t-63.5 35t-81.5 23.5t-92.5 8.5q-78 3 -148 -11t-128.5 -38t-103.5 -55.5t-73 -65.5 q-66 -71 -97 -147t-37 -152q-8 -64 4.5 -127.5t41.5 -125.5q15 -27 34 -56.5t50 -55t76 -44t111 -21.5q96 1 169 24t128 58t95.5 77t71.5 80q28 44 53 89t44.5 90t31 91t13.5 92zM1337 1724q1 -12 -6 -22.5t-13 -22.5q-19 -31 -46 -67t-67.5 -67.5t-97 -52.5t-134.5 -21 q-20 4 -38 11t-18 20q-4 13 -1.5 26.5t6.5 26.5q18 31 39 68t54 70.5t82.5 58.5t124.5 33q23 0 44 -5.5t37 -13.5t25 -19t9 -23z" />
<glyph unicode="&#xd4;" horiz-adv-x="1772" d="M253 14zM2063 766q-5 -60 -21 -120t-45 -119t-72.5 -116.5t-103.5 -111.5q-52 -53 -125.5 -105t-166.5 -92.5t-204 -65t-238 -22.5q-123 -1 -227.5 22t-189 61.5t-148.5 87.5t-107 100q-100 104 -139 218t-23 229q11 106 71.5 211.5t180.5 196.5q57 46 135 86t170 69 t196 44.5t214 12.5q105 1 204 -12.5t185.5 -40t157 -63.5t119.5 -82q51 -43 85.5 -90t55.5 -96.5t29.5 -100t6.5 -101.5zM1601 857q4 49 -8.5 96.5t-49.5 92.5q-14 22 -40.5 42t-63.5 35t-81.5 23.5t-92.5 8.5q-78 3 -148 -11t-128.5 -38t-103.5 -55.5t-73 -65.5 q-66 -71 -97 -147t-37 -152q-8 -64 4.5 -127.5t41.5 -125.5q15 -27 34 -56.5t50 -55t76 -44t111 -21.5q96 1 169 24t128 58t95.5 77t71.5 80q28 44 53 89t44.5 90t31 91t13.5 92zM1546 1524q-3 -11 -14.5 -20t-28 -15t-37 -9.5t-41.5 -3.5q-17 -1 -33.5 0.5t-31.5 5.5 t-26.5 10.5t-17.5 14.5q-42 54 -88 107.5t-95 105.5q-67 -54 -135.5 -107.5t-128.5 -110.5q-17 -17 -52 -26t-71 -6q-30 1 -51 9t-35.5 19.5t-21.5 25t-8 26.5q1 26 17.5 50t42 46.5t57 43.5t62.5 41q33 18 68 38t74 36.5t83.5 28.5t95.5 14q52 -1 96 -11.5t81 -26.5 t68.5 -35.5t59.5 -38.5q26 -21 50.5 -43t42 -45t25.5 -48t2 -50q-3 -7 -4.5 -13t-4.5 -13z" />
<glyph unicode="&#xd5;" horiz-adv-x="1772" d="M253 14zM2063 766q-5 -60 -21 -120t-45 -119t-72.5 -116.5t-103.5 -111.5q-52 -53 -125.5 -105t-166.5 -92.5t-204 -65t-238 -22.5q-123 -1 -227.5 22t-189 61.5t-148.5 87.5t-107 100q-100 104 -139 218t-23 229q11 106 71.5 211.5t180.5 196.5q57 46 135 86t170 69 t196 44.5t214 12.5q105 1 204 -12.5t185.5 -40t157 -63.5t119.5 -82q51 -43 85.5 -90t55.5 -96.5t29.5 -100t6.5 -101.5zM1601 857q4 49 -8.5 96.5t-49.5 92.5q-14 22 -40.5 42t-63.5 35t-81.5 23.5t-92.5 8.5q-78 3 -148 -11t-128.5 -38t-103.5 -55.5t-73 -65.5 q-66 -71 -97 -147t-37 -152q-8 -64 4.5 -127.5t41.5 -125.5q15 -27 34 -56.5t50 -55t76 -44t111 -21.5q96 1 169 24t128 58t95.5 77t71.5 80q28 44 53 89t44.5 90t31 91t13.5 92zM1964 1625q3 -28 -28 -53t-86 -36q-108 -26 -219.5 -48t-231.5 -27q-48 0 -89.5 11t-73.5 29 q-26 18 -68.5 28.5t-88.5 10.5q-58 2 -116.5 -8.5t-102.5 -32.5q-18 -9 -38 -17.5t-34 -20.5q-35 2 -66.5 11.5t-56.5 23.5q-24 14 -46 30t-22 36q-2 21 14.5 39t44 33t61.5 27t68 21q71 17 147.5 29.5t156.5 12.5q46 2 85 -8.5t68 -27.5q32 -17 75 -26t89 -9q49 0 97 2.5 t96 10.5q35 13 70 23t70 23q13 2 24.5 4.5t24.5 0.5q33 -3 63 -11.5t53.5 -20.5t39 -27.5t20.5 -32.5z" />
<glyph unicode="&#xd6;" horiz-adv-x="1772" d="M253 14zM2063 766q-5 -60 -21 -120t-45 -119t-72.5 -116.5t-103.5 -111.5q-52 -53 -125.5 -105t-166.5 -92.5t-204 -65t-238 -22.5q-123 -1 -227.5 22t-189 61.5t-148.5 87.5t-107 100q-100 104 -139 218t-23 229q11 106 71.5 211.5t180.5 196.5q57 46 135 86t170 69 t196 44.5t214 12.5q105 1 204 -12.5t185.5 -40t157 -63.5t119.5 -82q51 -43 85.5 -90t55.5 -96.5t29.5 -100t6.5 -101.5zM1601 857q4 49 -8.5 96.5t-49.5 92.5q-14 22 -40.5 42t-63.5 35t-81.5 23.5t-92.5 8.5q-78 3 -148 -11t-128.5 -38t-103.5 -55.5t-73 -65.5 q-66 -71 -97 -147t-37 -152q-8 -64 4.5 -127.5t41.5 -125.5q15 -27 34 -56.5t50 -55t76 -44t111 -21.5q96 1 169 24t128 58t95.5 77t71.5 80q28 44 53 89t44.5 90t31 91t13.5 92zM1746 1548q-3 -19 -21.5 -35.5t-47 -29t-64 -20t-72.5 -7.5q-45 1 -78.5 12t-56 28t-32.5 38 t-7 41q4 23 19 44.5t39 41.5q25 15 56.5 28t73.5 13q55 -2 95.5 -17t65.5 -37t32.5 -48.5t-2.5 -51.5zM1041 1553q2 -17 -9.5 -35t-34 -31.5t-54.5 -20.5t-71 -3q-48 0 -87.5 12.5t-69.5 29.5q-32 17 -47.5 39t-13.5 45q22 45 85 77q35 14 69.5 27t79.5 15q60 0 91.5 -16 t45 -39.5t15 -50.5t1.5 -49z" />
<glyph unicode="&#xd7;" horiz-adv-x="1311" d="M1355 850q2 -11 -7 -23t-29 -20q-69 -29 -136.5 -60t-139.5 -59q69 -27 134.5 -57.5t124.5 -62.5q5 -9 5 -17t-1 -17q-9 -14 -16.5 -29.5t-29.5 -26.5q-14 -14 -40 -23.5t-54 -14.5q-60 4 -104 21.5t-82 36.5q-40 26 -82.5 49.5t-86.5 48.5q-39 -20 -70.5 -42t-64.5 -42 q-15 -8 -27.5 -17.5t-26.5 -18t-30 -16.5t-37 -13q-16 -2 -34.5 -4t-34.5 1q-31 1 -62 4.5t-55 14.5q-8 2 -15.5 4t-15.5 4l-22 12l-16 19l-6 5q15 29 49.5 54t78 47.5t90.5 43t89 41.5q-43 22 -88 42t-86 42q-16 10 -31.5 21t-27 22.5t-17 24t-1.5 25.5q5 15 20.5 28t38 23 t50 16.5t56.5 7.5q27 3 47.5 -2.5t38.5 -12.5q55 -38 113.5 -75.5t118.5 -74.5q49 23 95.5 46t90.5 48q21 9 43.5 18.5t46.5 17.5t50.5 12.5t55.5 4.5q56 -5 93.5 -27t46.5 -50z" />
<glyph unicode="&#xd8;" horiz-adv-x="2062" d="M2142 1348q-9 -27 -29.5 -51.5t-46.5 -48.5t-53.5 -48t-51.5 -48q92 -87 128 -184.5t29 -197.5q-11 -122 -67 -242t-172 -231q-53 -54 -128 -106t-168.5 -93t-205.5 -65.5t-239 -22.5q-142 -2 -265 31t-214 82q-20 -20 -45.5 -39t-43.5 -40q-17 -15 -28 -31t-28 -32 q-8 -6 -16 -13t-17.5 -12.5t-22 -9t-30.5 -2.5q-40 4 -77 14t-65.5 24t-47 32.5t-21.5 40.5q20 31 49 59.5t62 56.5t67 55.5t66 55.5q-91 106 -129 219.5t-25 230.5q6 54 22.5 108t46.5 106.5t74 102.5t105 96q55 48 133.5 88t173.5 68.5t201.5 44t216.5 13.5 q111 -2 216 -16.5t195 -43.5q49 40 99 80t116 75q43 -5 82.5 -13.5t71.5 -23.5q16 -6 31.5 -13.5t27 -16t18 -18.5t5.5 -21zM1485 1132q-35 13 -76.5 19t-85.5 8q-79 3 -148 -11t-127 -38t-103 -56t-76 -66q-63 -72 -95 -148.5t-38 -153.5q-5 -44 0.5 -86t14.5 -85 q179 156 363.5 309t370.5 308zM1655 858q2 14 3 25.5t-1 24.5q-195 -152 -389 -302.5t-386 -303.5q30 -20 72 -34t96 -14q97 0 171 22.5t129.5 58t95 77.5t68.5 81q59 91 97.5 181t43.5 184z" />
<glyph unicode="&#xd9;" horiz-adv-x="1717" d="M314 14zM1927 1198q-12 -18 -29 -35t-34 -35q-22 -35 -28 -71t-10 -72q0 -36 2 -71t3 -71q-2 -36 1 -71t-2 -71q-9 -101 -40 -202t-99 -197q-44 -58 -105 -110.5t-140 -92.5t-174.5 -63.5t-208.5 -21.5q-90 -2 -174 9.5t-158.5 33.5t-136.5 52.5t-108 67.5 q-94 72 -137 156t-35 172q0 62 8 121.5t16 121.5q14 61 25 121.5t24 122.5l2 18l5 17l-3 9q2 23 -4.5 46t-11.5 46q-4 23 -8.5 46t0.5 46q9 25 35.5 44t68.5 33q38 16 83 25.5t93 13.5q82 -17 124 -50t58.5 -73.5t16 -84.5t-2.5 -82q-11 -67 -22.5 -132.5t-25.5 -131.5 q-9 -69 -21.5 -135.5t-19.5 -134.5q-1 -44 6 -87t27 -85q9 -19 23.5 -38.5t37 -35.5t55 -27t77.5 -12q67 4 116.5 19.5t85.5 38.5t60.5 52t41.5 60t28.5 61.5t22.5 56.5q28 136 50 269.5t42 270.5q6 38 18 77t36 76q15 23 35 44.5t46 37t60 24t78 5.5q42 -6 80.5 -18.5 t67.5 -29.5q32 -14 55.5 -32.5t23.5 -40.5zM1176 1500q0 -13 -19.5 -20t-40.5 -11q-78 1 -131 22.5t-88 52t-56 66.5t-35 67q-4 12 -8.5 22.5t-0.5 22.5q1 12 11.5 22.5t27 19t38 13.5t44.5 6q75 -7 120.5 -32t73 -59t42 -71t27.5 -68q2 -13 2 -27q0 -13 -7 -26z" />
<glyph unicode="&#xda;" horiz-adv-x="1717" d="M314 14zM1927 1198q-12 -18 -29 -35t-34 -35q-22 -35 -28 -71t-10 -72q0 -36 2 -71t3 -71q-2 -36 1 -71t-2 -71q-9 -101 -40 -202t-99 -197q-44 -58 -105 -110.5t-140 -92.5t-174.5 -63.5t-208.5 -21.5q-90 -2 -174 9.5t-158.5 33.5t-136.5 52.5t-108 67.5 q-94 72 -137 156t-35 172q0 62 8 121.5t16 121.5q14 61 25 121.5t24 122.5l2 18l5 17l-3 9q2 23 -4.5 46t-11.5 46q-4 23 -8.5 46t0.5 46q9 25 35.5 44t68.5 33q38 16 83 25.5t93 13.5q82 -17 124 -50t58.5 -73.5t16 -84.5t-2.5 -82q-11 -67 -22.5 -132.5t-25.5 -131.5 q-9 -69 -21.5 -135.5t-19.5 -134.5q-1 -44 6 -87t27 -85q9 -19 23.5 -38.5t37 -35.5t55 -27t77.5 -12q67 4 116.5 19.5t85.5 38.5t60.5 52t41.5 60t28.5 61.5t22.5 56.5q28 136 50 269.5t42 270.5q6 38 18 77t36 76q15 23 35 44.5t46 37t60 24t78 5.5q42 -6 80.5 -18.5 t67.5 -29.5q32 -14 55.5 -32.5t23.5 -40.5zM1338 1721q1 -12 -6 -22.5t-13 -22.5q-19 -31 -46 -67t-67.5 -67.5t-97 -52.5t-134.5 -21q-20 4 -38 11t-18 20q-4 13 -1.5 26.5t6.5 26.5q18 31 39 68t54 70.5t82.5 58.5t124.5 33q23 0 44 -5.5t37 -13.5t25 -19t9 -23z" />
<glyph unicode="&#xdb;" horiz-adv-x="1717" d="M314 14zM1927 1198q-12 -18 -29 -35t-34 -35q-22 -35 -28 -71t-10 -72q0 -36 2 -71t3 -71q-2 -36 1 -71t-2 -71q-9 -101 -40 -202t-99 -197q-44 -58 -105 -110.5t-140 -92.5t-174.5 -63.5t-208.5 -21.5q-90 -2 -174 9.5t-158.5 33.5t-136.5 52.5t-108 67.5 q-94 72 -137 156t-35 172q0 62 8 121.5t16 121.5q14 61 25 121.5t24 122.5l2 18l5 17l-3 9q2 23 -4.5 46t-11.5 46q-4 23 -8.5 46t0.5 46q9 25 35.5 44t68.5 33q38 16 83 25.5t93 13.5q82 -17 124 -50t58.5 -73.5t16 -84.5t-2.5 -82q-11 -67 -22.5 -132.5t-25.5 -131.5 q-9 -69 -21.5 -135.5t-19.5 -134.5q-1 -44 6 -87t27 -85q9 -19 23.5 -38.5t37 -35.5t55 -27t77.5 -12q67 4 116.5 19.5t85.5 38.5t60.5 52t41.5 60t28.5 61.5t22.5 56.5q28 136 50 269.5t42 270.5q6 38 18 77t36 76q15 23 35 44.5t46 37t60 24t78 5.5q42 -6 80.5 -18.5 t67.5 -29.5q32 -14 55.5 -32.5t23.5 -40.5zM1543 1522q-3 -11 -14.5 -20t-28 -15t-37 -9.5t-41.5 -3.5q-17 -1 -33.5 0.5t-31.5 5.5t-26.5 10.5t-17.5 14.5q-42 54 -88 107.5t-95 105.5q-67 -54 -135.5 -107.5t-128.5 -110.5q-17 -17 -52 -26t-71 -6q-30 1 -51 9t-35.5 19.5 t-21.5 25t-8 26.5q1 26 17.5 50t42 46.5t57 43.5t62.5 41q33 18 68 38t74 36.5t83.5 28.5t95.5 14q52 -1 96 -11.5t81 -26.5t68.5 -35.5t59.5 -38.5q26 -21 50.5 -43t42 -45t25.5 -48t2 -50q-3 -7 -4.5 -13t-4.5 -13z" />
<glyph unicode="&#xdc;" horiz-adv-x="1717" d="M314 14zM1927 1198q-12 -18 -29 -35t-34 -35q-22 -35 -28 -71t-10 -72q0 -36 2 -71t3 -71q-2 -36 1 -71t-2 -71q-9 -101 -40 -202t-99 -197q-44 -58 -105 -110.5t-140 -92.5t-174.5 -63.5t-208.5 -21.5q-90 -2 -174 9.5t-158.5 33.5t-136.5 52.5t-108 67.5 q-94 72 -137 156t-35 172q0 62 8 121.5t16 121.5q14 61 25 121.5t24 122.5l2 18l5 17l-3 9q2 23 -4.5 46t-11.5 46q-4 23 -8.5 46t0.5 46q9 25 35.5 44t68.5 33q38 16 83 25.5t93 13.5q82 -17 124 -50t58.5 -73.5t16 -84.5t-2.5 -82q-11 -67 -22.5 -132.5t-25.5 -131.5 q-9 -69 -21.5 -135.5t-19.5 -134.5q-1 -44 6 -87t27 -85q9 -19 23.5 -38.5t37 -35.5t55 -27t77.5 -12q67 4 116.5 19.5t85.5 38.5t60.5 52t41.5 60t28.5 61.5t22.5 56.5q28 136 50 269.5t42 270.5q6 38 18 77t36 76q15 23 35 44.5t46 37t60 24t78 5.5q42 -6 80.5 -18.5 t67.5 -29.5q32 -14 55.5 -32.5t23.5 -40.5zM1684 1550q-3 -19 -21.5 -35.5t-47 -29t-64 -20t-72.5 -7.5q-45 1 -78.5 12t-56 28t-32.5 38t-7 41q4 23 19 44.5t39 41.5q25 15 56.5 28t73.5 13q55 -2 95.5 -17t65.5 -37t32.5 -48.5t-2.5 -51.5zM979 1555q2 -17 -9.5 -35 t-34 -31.5t-54.5 -20.5t-71 -3q-48 0 -87.5 12.5t-69.5 29.5q-32 17 -47.5 39t-13.5 45q22 45 85 77q35 14 69.5 27t79.5 15q60 0 91.5 -16t45 -39.5t15 -50.5t1.5 -49z" />
<glyph unicode="&#xdd;" d="M299 17zM1908 1201q-2 -35 -21.5 -68t-49 -64.5t-65 -62.5t-69.5 -61q-85 -69 -172 -138.5t-162 -142.5q-80 -91 -150 -182.5t-139 -184.5q-27 -42 -55.5 -81.5t-53.5 -80.5q-15 -16 -31 -35t-36.5 -36t-48.5 -30t-68 -17q-63 -1 -113.5 12.5t-85.5 36t-52 51t-12 57.5 q7 56 38.5 110t76 106.5t97.5 103t104 100.5q-98 -1 -176.5 19t-138.5 53t-101.5 74.5t-65.5 83.5q-48 84 -58.5 170.5t7.5 174.5q3 22 19 44.5t43.5 40.5t65.5 30.5t86 15.5q47 1 76.5 -10.5t47.5 -29t27.5 -38.5t15.5 -39q6 -62 17 -123t19 -123q6 -23 20.5 -46.5 t40.5 -42.5t64 -31.5t91 -12.5q69 16 117.5 44t86 61t68.5 68.5t65 66.5q33 34 63 69.5t62 70t68 67.5t81 63q25 13 58 16t64 1q47 -4 89 -15.5t74 -29t51 -39.5t21 -46zM1236 1721q1 -12 -6 -22.5t-13 -22.5q-19 -31 -46 -67t-67.5 -67.5t-97 -52.5t-134.5 -21 q-20 4 -38 11t-18 20q-4 13 -1.5 26.5t6.5 26.5q18 31 39 68t54 70.5t82.5 58.5t124.5 33q23 0 44 -5.5t37 -13.5t25 -19t9 -23z" />
<glyph unicode="&#xde;" horiz-adv-x="1625" d="M1867 748q-2 -50 -32.5 -97.5t-82.5 -89.5t-122.5 -78t-151.5 -63q-85 -30 -176.5 -52t-187.5 -38t-194.5 -27t-197.5 -18l-2 -17q-2 -20 -4.5 -30t-3.5 -16q0 -29 6.5 -56t8.5 -53q-1 -12 -2.5 -25t-5.5 -25.5t-12 -24.5t-23 -23q-22 -8 -47 -11t-51 -3t-52.5 1.5 t-52.5 2.5q-40 4 -68.5 17t-46.5 30t-26 37t-7 39q-2 27 1 54.5t1 54.5q2 29 6 56t4 55q2 26 -1.5 51.5t-3.5 51.5q-9 184 6 367.5t55 369.5q9 27 20 57.5t33 58t60.5 48.5t101.5 29q29 0 59 -1t52 -11q26 -5 44.5 -17t16.5 -28l-4 -40t-6 -40q-6 -36 -7 -71.5t0 -71.5 q83 20 170.5 28t178.5 9q72 0 144 -6t141 -14q120 -15 211 -52.5t150 -88.5t85 -110.5t16 -118.5zM1471 771q5 32 -18 61t-55 55q-34 23 -81 40.5t-109 17.5q-84 0 -171 -4t-165 -23q-42 -12 -69 -29.5t-43.5 -38.5t-24 -43.5t-10.5 -43.5q-1 -14 -2.5 -29t-5.5 -29l-5 -56 q-3 -34 3 -66.5t24 -63.5q121 0 235 20.5t217 52.5q49 15 97 33.5t87 41t65 48.5t31 56z" />
<glyph unicode="&#xdf;" horiz-adv-x="2024" d="M2132 440q-1 -54 -33 -103.5t-87 -93t-130 -81t-163.5 -66.5t-186.5 -49t-199 -30q-38 -6 -77.5 -7t-77.5 -3q-36 -2 -71 3t-61 16t-41 27t-10 36q-3 20 11 39t39.5 35t60 27.5t73.5 16.5q36 4 70 10.5t72 11.5q78 14 152.5 36.5t132.5 53.5t94 68.5t37 81.5 q5 39 -21.5 74.5t-75.5 64.5q-44 29 -108 47.5t-141 18.5q-40 -2 -78 -5.5t-74 -8.5t-73 -8t-75 -5q-33 -2 -59 4.5t-42.5 18t-23.5 26t-2 29.5q1 17 9 34.5t24 32.5t40.5 27.5t59.5 18.5q29 7 59.5 11.5t58.5 10.5q62 10 120.5 28t103 42.5t70.5 54.5t24 65q5 19 -5 38 t-32 33.5t-55 23t-74 7.5q-75 2 -148.5 -0.5t-148.5 -6.5q-63 -1 -115 -14.5t-91.5 -35t-64.5 -49t-33 -56.5q-11 -45 -20 -90.5t-17 -90.5q-12 -113 -26.5 -225t-19.5 -226q-4 -77 -1 -154t23 -153q5 -22 8.5 -44.5t3.5 -45.5q1 -16 -2 -36t-16 -37.5t-39 -29t-69 -10.5 q-87 8 -147 38t-92 68q-36 36 -51.5 77.5t-17.5 82.5q-1 47 2.5 93.5t9.5 92.5q4 38 13 74.5t18 74.5q15 55 31.5 110.5t17.5 112.5q8 48 9 95t5 95t8.5 94.5t15.5 93.5q4 19 8.5 38.5t13.5 38t22.5 36.5t35.5 35q60 48 149 77.5t192 46t213 22.5t211 8q128 0 256 -11.5 t240 -43.5q55 -16 97.5 -39t71 -51t43 -59t14.5 -63q0 -36 -18 -71t-49.5 -68t-72.5 -64t-86 -59q103 -26 178 -70.5t123 -95.5q44 -50 65 -105t12 -112z" />
<glyph unicode="&#xe0;" d="M229 39zM1961 169q-6 -20 -20 -41t-38 -38.5t-58.5 -29.5t-79.5 -14q-48 -6 -92 0t-78.5 20t-57.5 34t-27 43q-2 52 -17 102.5t-25 100.5q-98 -2 -195 0q-51 -1 -100.5 2.5t-100.5 1.5q-85 0 -171 -3.5t-172 -11.5q-22 -45 -50.5 -89t-50.5 -89q-13 -17 -26.5 -37 t-33.5 -38t-49 -30t-72 -13q-54 4 -104 16.5t-78 36.5q-20 25 -27 51t-9 53q0 56 12.5 112t33.5 112t47.5 111.5t54.5 110.5q56 106 117.5 211.5t138.5 209.5q42 43 90 92t111 91t145.5 71.5t192.5 35.5q95 0 167.5 -21.5t126.5 -54.5t90 -74t59 -80q25 -44 44 -89t34 -91 t27.5 -92t25.5 -92q20 -90 47 -180t76 -178q19 -28 39 -56.5t35 -57t21 -58t-3 -60.5zM1449 536q-16 78 -33.5 156t-34.5 156q-14 36 -27.5 73t-33.5 72.5t-50.5 68.5t-78.5 61q-56 -28 -98.5 -61t-75.5 -68.5t-58 -72.5t-46 -74q-40 -78 -65 -154.5t-49 -154.5 q163 -2 324 -2h326zM1053 1500q0 -13 -19.5 -20t-40.5 -11q-78 1 -131 22.5t-88 52t-56 66.5t-35 67q-4 12 -8.5 22.5t-0.5 22.5q1 12 11.5 22.5t27 19t38 13.5t44.5 6q75 -7 120.5 -32t73 -59t42 -71t27.5 -68q2 -13 2 -27q0 -13 -7 -26z" />
<glyph unicode="&#xe1;" d="M229 39zM1961 169q-6 -20 -20 -41t-38 -38.5t-58.5 -29.5t-79.5 -14q-48 -6 -92 0t-78.5 20t-57.5 34t-27 43q-2 52 -17 102.5t-25 100.5q-98 -2 -195 0q-51 -1 -100.5 2.5t-100.5 1.5q-85 0 -171 -3.5t-172 -11.5q-22 -45 -50.5 -89t-50.5 -89q-13 -17 -26.5 -37 t-33.5 -38t-49 -30t-72 -13q-54 4 -104 16.5t-78 36.5q-20 25 -27 51t-9 53q0 56 12.5 112t33.5 112t47.5 111.5t54.5 110.5q56 106 117.5 211.5t138.5 209.5q42 43 90 92t111 91t145.5 71.5t192.5 35.5q95 0 167.5 -21.5t126.5 -54.5t90 -74t59 -80q25 -44 44 -89t34 -91 t27.5 -92t25.5 -92q20 -90 47 -180t76 -178q19 -28 39 -56.5t35 -57t21 -58t-3 -60.5zM1449 536q-16 78 -33.5 156t-34.5 156q-14 36 -27.5 73t-33.5 72.5t-50.5 68.5t-78.5 61q-56 -28 -98.5 -61t-75.5 -68.5t-58 -72.5t-46 -74q-40 -78 -65 -154.5t-49 -154.5 q163 -2 324 -2h326zM1296 1727q1 -12 -6 -22.5t-13 -22.5q-19 -31 -46 -67t-67.5 -67.5t-97 -52.5t-134.5 -21q-20 4 -38 11t-18 20q-4 13 -1.5 26.5t6.5 26.5q18 31 39 68t54 70.5t82.5 58.5t124.5 33q23 0 44 -5.5t37 -13.5t25 -19t9 -23z" />
<glyph unicode="&#xe2;" d="M229 39zM1961 169q-6 -20 -20 -41t-38 -38.5t-58.5 -29.5t-79.5 -14q-48 -6 -92 0t-78.5 20t-57.5 34t-27 43q-2 52 -17 102.5t-25 100.5q-98 -2 -195 0q-51 -1 -100.5 2.5t-100.5 1.5q-85 0 -171 -3.5t-172 -11.5q-22 -45 -50.5 -89t-50.5 -89q-13 -17 -26.5 -37 t-33.5 -38t-49 -30t-72 -13q-54 4 -104 16.5t-78 36.5q-20 25 -27 51t-9 53q0 56 12.5 112t33.5 112t47.5 111.5t54.5 110.5q56 106 117.5 211.5t138.5 209.5q42 43 90 92t111 91t145.5 71.5t192.5 35.5q95 0 167.5 -21.5t126.5 -54.5t90 -74t59 -80q25 -44 44 -89t34 -91 t27.5 -92t25.5 -92q20 -90 47 -180t76 -178q19 -28 39 -56.5t35 -57t21 -58t-3 -60.5zM1449 536q-16 78 -33.5 156t-34.5 156q-14 36 -27.5 73t-33.5 72.5t-50.5 68.5t-78.5 61q-56 -28 -98.5 -61t-75.5 -68.5t-58 -72.5t-46 -74q-40 -78 -65 -154.5t-49 -154.5 q163 -2 324 -2h326zM1502 1517q-3 -11 -14.5 -20t-28 -15t-37 -9.5t-41.5 -3.5q-17 -1 -33.5 0.5t-31.5 5.5t-26.5 10.5t-17.5 14.5q-42 54 -88 107.5t-95 105.5q-67 -54 -135.5 -107.5t-128.5 -110.5q-17 -17 -52 -26t-71 -6q-30 1 -51 9t-35.5 19.5t-21.5 25t-8 26.5 q1 26 17.5 50t42 46.5t57 43.5t62.5 41q33 18 68 38t74 36.5t83.5 28.5t95.5 14q52 -1 96 -11.5t81 -26.5t68.5 -35.5t59.5 -38.5q26 -21 50.5 -43t42 -45t25.5 -48t2 -50q-3 -7 -4.5 -13t-4.5 -13z" />
<glyph unicode="&#xe3;" d="M229 39zM1961 169q-6 -20 -20 -41t-38 -38.5t-58.5 -29.5t-79.5 -14q-48 -6 -92 0t-78.5 20t-57.5 34t-27 43q-2 52 -17 102.5t-25 100.5q-98 -2 -195 0q-51 -1 -100.5 2.5t-100.5 1.5q-85 0 -171 -3.5t-172 -11.5q-22 -45 -50.5 -89t-50.5 -89q-13 -17 -26.5 -37 t-33.5 -38t-49 -30t-72 -13q-54 4 -104 16.5t-78 36.5q-20 25 -27 51t-9 53q0 56 12.5 112t33.5 112t47.5 111.5t54.5 110.5q56 106 117.5 211.5t138.5 209.5q42 43 90 92t111 91t145.5 71.5t192.5 35.5q95 0 167.5 -21.5t126.5 -54.5t90 -74t59 -80q25 -44 44 -89t34 -91 t27.5 -92t25.5 -92q20 -90 47 -180t76 -178q19 -28 39 -56.5t35 -57t21 -58t-3 -60.5zM1449 536q-16 78 -33.5 156t-34.5 156q-14 36 -27.5 73t-33.5 72.5t-50.5 68.5t-78.5 61q-56 -28 -98.5 -61t-75.5 -68.5t-58 -72.5t-46 -74q-40 -78 -65 -154.5t-49 -154.5 q163 -2 324 -2h326zM1817 1619q3 -28 -28 -53t-86 -36q-108 -26 -219.5 -48t-231.5 -27q-48 0 -89.5 11t-73.5 29q-26 18 -68.5 28.5t-88.5 10.5q-58 2 -116.5 -8.5t-102.5 -32.5q-18 -9 -38 -17.5t-34 -20.5q-35 2 -66.5 11.5t-56.5 23.5q-24 14 -46 30t-22 36 q-2 21 14.5 39t44 33t61.5 27t68 21q71 17 147.5 29.5t156.5 12.5q46 2 85 -8.5t68 -27.5q32 -17 75 -26t89 -9q49 0 97 2.5t96 10.5q35 13 70 23t70 23q13 2 24.5 4.5t24.5 0.5q33 -3 63 -11.5t53.5 -20.5t39 -27.5t20.5 -32.5z" />
<glyph unicode="&#xe4;" d="M229 39zM1961 169q-6 -20 -20 -41t-38 -38.5t-58.5 -29.5t-79.5 -14q-48 -6 -92 0t-78.5 20t-57.5 34t-27 43q-2 52 -17 102.5t-25 100.5q-98 -2 -195 0q-51 -1 -100.5 2.5t-100.5 1.5q-85 0 -171 -3.5t-172 -11.5q-22 -45 -50.5 -89t-50.5 -89q-13 -17 -26.5 -37 t-33.5 -38t-49 -30t-72 -13q-54 4 -104 16.5t-78 36.5q-20 25 -27 51t-9 53q0 56 12.5 112t33.5 112t47.5 111.5t54.5 110.5q56 106 117.5 211.5t138.5 209.5q42 43 90 92t111 91t145.5 71.5t192.5 35.5q95 0 167.5 -21.5t126.5 -54.5t90 -74t59 -80q25 -44 44 -89t34 -91 t27.5 -92t25.5 -92q20 -90 47 -180t76 -178q19 -28 39 -56.5t35 -57t21 -58t-3 -60.5zM1449 536q-16 78 -33.5 156t-34.5 156q-14 36 -27.5 73t-33.5 72.5t-50.5 68.5t-78.5 61q-56 -28 -98.5 -61t-75.5 -68.5t-58 -72.5t-46 -74q-40 -78 -65 -154.5t-49 -154.5 q163 -2 324 -2h326zM1606 1551q-3 -19 -21.5 -35.5t-47 -29t-64 -20t-72.5 -7.5q-45 1 -78.5 12t-56 28t-32.5 38t-7 41q4 23 19 44.5t39 41.5q25 15 56.5 28t73.5 13q55 -2 95.5 -17t65.5 -37t32.5 -48.5t-2.5 -51.5zM901 1556q2 -17 -9.5 -35t-34 -31.5t-54.5 -20.5 t-71 -3q-48 0 -87.5 12.5t-69.5 29.5q-32 17 -47.5 39t-13.5 45q22 45 85 77q35 14 69.5 27t79.5 15q60 0 91.5 -16t45 -39.5t15 -50.5t1.5 -49z" />
<glyph unicode="&#xe5;" d="M229 39zM1961 169q-6 -20 -20 -41t-38 -38.5t-58.5 -29.5t-79.5 -14q-48 -6 -92 0t-78.5 20t-57.5 34t-27 43q-2 52 -17 102.5t-25 100.5q-98 -2 -195 0q-51 -1 -100.5 2.5t-100.5 1.5q-85 0 -171 -3.5t-172 -11.5q-22 -45 -50.5 -89t-50.5 -89q-13 -17 -26.5 -37 t-33.5 -38t-49 -30t-72 -13q-54 4 -104 16.5t-78 36.5q-20 25 -27 51t-9 53q0 56 12.5 112t33.5 112t47.5 111.5t54.5 110.5q56 106 117.5 211.5t138.5 209.5q42 43 90 92t111 91t145.5 71.5t192.5 35.5q95 0 167.5 -21.5t126.5 -54.5t90 -74t59 -80q25 -44 44 -89t34 -91 t27.5 -92t25.5 -92q20 -90 47 -180t76 -178q19 -28 39 -56.5t35 -57t21 -58t-3 -60.5zM1449 536q-16 78 -33.5 156t-34.5 156q-14 36 -27.5 73t-33.5 72.5t-50.5 68.5t-78.5 61q-56 -28 -98.5 -61t-75.5 -68.5t-58 -72.5t-46 -74q-40 -78 -65 -154.5t-49 -154.5 q163 -2 324 -2h326zM1636 1708q-3 -27 -18.5 -53t-42 -50t-61.5 -45t-77 -38q-87 -36 -189.5 -59t-213.5 -21q-103 0 -191.5 23t-153.5 60q-68 36 -104 83.5t-34 97.5q2 56 52 106.5t132 88.5q39 20 85.5 35.5t97.5 26.5t105.5 16.5t109.5 5.5q106 -2 196.5 -25.5 t156.5 -63.5q72 -38 113.5 -86t36.5 -102zM1307 1718q2 25 -22.5 46t-59.5 36q-37 16 -81.5 26t-95.5 10q-41 -1 -75 -11.5t-59 -26.5t-39.5 -36t-17.5 -39q-6 -22 3.5 -44t33 -40t60.5 -28.5t87 -8.5q51 -3 101 5t88.5 23.5t60 38t16.5 49.5z" />
<glyph unicode="&#xe6;" horiz-adv-x="3280" d="M3296 362q-11 -22 -30.5 -42.5t-50.5 -37.5q-66 -31 -141.5 -54t-155 -42.5t-161.5 -36.5t-163 -35q-165 -33 -333.5 -62t-343.5 -38q-42 0 -86 1.5t-86.5 6.5t-81.5 14t-71 24q-22 12 -35.5 26.5t-21.5 30t-11 32t-3 32.5q-2 42 2 82t3 82q-49 0 -99 0.5t-99 2.5 q-49 0 -99 2.5t-99 2.5q-85 2 -168.5 -1.5t-167.5 -11.5q-38 -44 -69 -87t-63 -87q-17 -17 -33 -37t-38.5 -37.5t-53.5 -30t-76 -13.5q-35 0 -69 6.5t-61 17.5t-44 26.5t-19 34.5q-6 31 -3.5 63t11.5 63.5t23.5 62.5t31.5 62q47 64 91.5 129.5t98.5 129.5q165 217 392 422 q56 44 118.5 92t137 89.5t165.5 70.5t204 35q62 0 120 -9t102 -32q142 21 288.5 27.5t294.5 5.5t295 -6.5t291 -9.5q54 2 100.5 -7t81.5 -25.5t54.5 -40t19.5 -50.5q2 -12 0.5 -28t-11.5 -29.5t-30.5 -22t-56.5 -5.5q-233 6 -464 11t-466 7q-36 -38 -54.5 -80.5t-20.5 -84.5 q2 -6 2 -13q0 -6 0.5 -12t3 -12t9.5 -11q114 -2 225 1t224 6q111 5 222 6t222 1q51 0 102 -8t90.5 -23.5t61.5 -38t16 -50.5q-5 -28 -39.5 -44.5t-83 -25.5t-102.5 -13t-98 -6q-152 -6 -302 -13.5t-300 -21.5q-77 -9 -143 -30.5t-114 -51.5t-75 -66.5t-27 -75.5 q-2 -26 3.5 -52t15.5 -51.5t23 -50.5t27 -49q74 1 146 10t141.5 23t137 30.5t133.5 33.5q128 38 265 67t286 36q43 2 73.5 -7.5t47.5 -25.5t22 -35.5t-1 -37.5zM1548 536q2 54 7 108.5t10 109.5q0 46 3.5 94t-1.5 95.5t-25.5 92.5t-68.5 85q-62 -27 -113.5 -58.5t-95 -66 t-80.5 -71t-71 -73.5q-62 -78 -110.5 -155.5t-91.5 -157.5q160 -1 318.5 -2t318.5 -1z" />
<glyph unicode="&#xe8;" horiz-adv-x="1980" d="M283 31zM2103 398q-56 -43 -134.5 -75.5t-167.5 -59t-183 -49.5t-181 -48q-94 -23 -189.5 -46t-194 -42.5t-199 -32.5t-205.5 -14q-60 2 -115.5 14t-93.5 35q-33 26 -53 55t-35 58q-41 67 -54.5 135.5t-14.5 137.5q3 62 14.5 124t29 124t39.5 123.5t45 123.5 q23 60 47.5 121t53.5 121q25 29 70.5 48.5t100 32.5t114.5 22t114 17q205 20 389 24.5t364 -4.5q42 -1 81 -8.5t68 -21t46 -32t15 -40.5q1 -17 -13.5 -31t-38.5 -23.5t-54 -14.5t-61 -5q-67 -1 -135 -0.5t-135 2.5q-93 2 -184 -6t-178 -25q-42 -8 -80.5 -20.5t-70.5 -29 t-55 -36.5t-33 -42q-6 -18 -12.5 -36.5t-7.5 -36.5q-4 -11 -1.5 -22t4.5 -22q116 2 227.5 13.5t226.5 21.5q111 12 224 21.5t228 7.5q40 1 80 -5t70.5 -18.5t47 -31t9.5 -40.5q-1 -29 -32 -48.5t-77.5 -31.5t-100 -18t-99.5 -8q-148 -8 -293 -15.5t-291 -21.5 q-75 -11 -136.5 -34.5t-104.5 -55t-65.5 -68.5t-20.5 -75q-5 -57 14 -113t47 -112q140 14 273 46t260 67q63 17 128.5 33.5t133 29.5t137.5 22t142 12q39 2 77.5 -1.5t72.5 -12.5t60.5 -22.5t43.5 -31.5zM1242 1490q0 -13 -19.5 -20t-40.5 -11q-78 1 -131 22.5t-88 52 t-56 66.5t-35 67q-4 12 -8.5 22.5t-0.5 22.5q1 12 11.5 22.5t27 19t38 13.5t44.5 6q75 -7 120.5 -32t73 -59t42 -71t27.5 -68q2 -13 2 -27q0 -13 -7 -26z" />
<glyph unicode="&#xe9;" horiz-adv-x="1980" d="M283 31zM2103 398q-56 -43 -134.5 -75.5t-167.5 -59t-183 -49.5t-181 -48q-94 -23 -189.5 -46t-194 -42.5t-199 -32.5t-205.5 -14q-60 2 -115.5 14t-93.5 35q-33 26 -53 55t-35 58q-41 67 -54.5 135.5t-14.5 137.5q3 62 14.5 124t29 124t39.5 123.5t45 123.5 q23 60 47.5 121t53.5 121q25 29 70.5 48.5t100 32.5t114.5 22t114 17q205 20 389 24.5t364 -4.5q42 -1 81 -8.5t68 -21t46 -32t15 -40.5q1 -17 -13.5 -31t-38.5 -23.5t-54 -14.5t-61 -5q-67 -1 -135 -0.5t-135 2.5q-93 2 -184 -6t-178 -25q-42 -8 -80.5 -20.5t-70.5 -29 t-55 -36.5t-33 -42q-6 -18 -12.5 -36.5t-7.5 -36.5q-4 -11 -1.5 -22t4.5 -22q116 2 227.5 13.5t226.5 21.5q111 12 224 21.5t228 7.5q40 1 80 -5t70.5 -18.5t47 -31t9.5 -40.5q-1 -29 -32 -48.5t-77.5 -31.5t-100 -18t-99.5 -8q-148 -8 -293 -15.5t-291 -21.5 q-75 -11 -136.5 -34.5t-104.5 -55t-65.5 -68.5t-20.5 -75q-5 -57 14 -113t47 -112q140 14 273 46t260 67q63 17 128.5 33.5t133 29.5t137.5 22t142 12q39 2 77.5 -1.5t72.5 -12.5t60.5 -22.5t43.5 -31.5zM1405 1731q1 -12 -6 -22.5t-13 -22.5q-19 -31 -46 -67t-67.5 -67.5 t-97 -52.5t-134.5 -21q-20 4 -38 11t-18 20q-4 13 -1.5 26.5t6.5 26.5q18 31 39 68t54 70.5t82.5 58.5t124.5 33q23 0 44 -5.5t37 -13.5t25 -19t9 -23z" />
<glyph unicode="&#xea;" horiz-adv-x="1980" d="M283 31zM2103 398q-56 -43 -134.5 -75.5t-167.5 -59t-183 -49.5t-181 -48q-94 -23 -189.5 -46t-194 -42.5t-199 -32.5t-205.5 -14q-60 2 -115.5 14t-93.5 35q-33 26 -53 55t-35 58q-41 67 -54.5 135.5t-14.5 137.5q3 62 14.5 124t29 124t39.5 123.5t45 123.5 q23 60 47.5 121t53.5 121q25 29 70.5 48.5t100 32.5t114.5 22t114 17q205 20 389 24.5t364 -4.5q42 -1 81 -8.5t68 -21t46 -32t15 -40.5q1 -17 -13.5 -31t-38.5 -23.5t-54 -14.5t-61 -5q-67 -1 -135 -0.5t-135 2.5q-93 2 -184 -6t-178 -25q-42 -8 -80.5 -20.5t-70.5 -29 t-55 -36.5t-33 -42q-6 -18 -12.5 -36.5t-7.5 -36.5q-4 -11 -1.5 -22t4.5 -22q116 2 227.5 13.5t226.5 21.5q111 12 224 21.5t228 7.5q40 1 80 -5t70.5 -18.5t47 -31t9.5 -40.5q-1 -29 -32 -48.5t-77.5 -31.5t-100 -18t-99.5 -8q-148 -8 -293 -15.5t-291 -21.5 q-75 -11 -136.5 -34.5t-104.5 -55t-65.5 -68.5t-20.5 -75q-5 -57 14 -113t47 -112q140 14 273 46t260 67q63 17 128.5 33.5t133 29.5t137.5 22t142 12q39 2 77.5 -1.5t72.5 -12.5t60.5 -22.5t43.5 -31.5zM1621 1517q-3 -11 -14.5 -20t-28 -15t-37 -9.5t-41.5 -3.5 q-17 -1 -33.5 0.5t-31.5 5.5t-26.5 10.5t-17.5 14.5q-42 54 -88 107.5t-95 105.5q-67 -54 -135.5 -107.5t-128.5 -110.5q-17 -17 -52 -26t-71 -6q-30 1 -51 9t-35.5 19.5t-21.5 25t-8 26.5q1 26 17.5 50t42 46.5t57 43.5t62.5 41q33 18 68 38t74 36.5t83.5 28.5t95.5 14 q52 -1 96 -11.5t81 -26.5t68.5 -35.5t59.5 -38.5q26 -21 50.5 -43t42 -45t25.5 -48t2 -50q-3 -7 -4.5 -13t-4.5 -13z" />
<glyph unicode="&#xeb;" horiz-adv-x="1980" d="M283 31zM2103 398q-56 -43 -134.5 -75.5t-167.5 -59t-183 -49.5t-181 -48q-94 -23 -189.5 -46t-194 -42.5t-199 -32.5t-205.5 -14q-60 2 -115.5 14t-93.5 35q-33 26 -53 55t-35 58q-41 67 -54.5 135.5t-14.5 137.5q3 62 14.5 124t29 124t39.5 123.5t45 123.5 q23 60 47.5 121t53.5 121q25 29 70.5 48.5t100 32.5t114.5 22t114 17q205 20 389 24.5t364 -4.5q42 -1 81 -8.5t68 -21t46 -32t15 -40.5q1 -17 -13.5 -31t-38.5 -23.5t-54 -14.5t-61 -5q-67 -1 -135 -0.5t-135 2.5q-93 2 -184 -6t-178 -25q-42 -8 -80.5 -20.5t-70.5 -29 t-55 -36.5t-33 -42q-6 -18 -12.5 -36.5t-7.5 -36.5q-4 -11 -1.5 -22t4.5 -22q116 2 227.5 13.5t226.5 21.5q111 12 224 21.5t228 7.5q40 1 80 -5t70.5 -18.5t47 -31t9.5 -40.5q-1 -29 -32 -48.5t-77.5 -31.5t-100 -18t-99.5 -8q-148 -8 -293 -15.5t-291 -21.5 q-75 -11 -136.5 -34.5t-104.5 -55t-65.5 -68.5t-20.5 -75q-5 -57 14 -113t47 -112q140 14 273 46t260 67q63 17 128.5 33.5t133 29.5t137.5 22t142 12q39 2 77.5 -1.5t72.5 -12.5t60.5 -22.5t43.5 -31.5zM1756 1548q-3 -19 -21.5 -35.5t-47 -29t-64 -20t-72.5 -7.5 q-45 1 -78.5 12t-56 28t-32.5 38t-7 41q4 23 19 44.5t39 41.5q25 15 56.5 28t73.5 13q55 -2 95.5 -17t65.5 -37t32.5 -48.5t-2.5 -51.5zM1051 1553q2 -17 -9.5 -35t-34 -31.5t-54.5 -20.5t-71 -3q-48 0 -87.5 12.5t-69.5 29.5q-32 17 -47.5 39t-13.5 45q22 45 85 77 q35 14 69.5 27t79.5 15q60 0 91.5 -16t45 -39.5t15 -50.5t1.5 -49z" />
<glyph unicode="&#xec;" horiz-adv-x="594" d="M147 14zM717 241q-9 -30 -18.5 -65.5t-31.5 -68t-62.5 -58t-111.5 -35.5q-51 -2 -86 16t-57 38q-11 25 -22.5 48t-20.5 48q-10 55 -19 110t-1 112q2 97 13.5 192t22.5 192q11 95 24 190t27 190q4 26 9.5 55.5t21 57t45.5 50.5t84 37q35 4 68 0t60.5 -14t48.5 -24.5 t33 -29.5q31 -60 26 -127q-3 -55 -9 -109t-17 -109q-5 -58 -13.5 -114.5t-13.5 -114.5q-5 -60 -3.5 -121t6.5 -121q0 -57 1 -112.5t-4 -112.5zM526 1490q0 -13 -19.5 -20t-40.5 -11q-78 1 -131 22.5t-88 52t-56 66.5t-35 67q-4 12 -8.5 22.5t-0.5 22.5q1 12 11.5 22.5t27 19 t38 13.5t44.5 6q75 -7 120.5 -32t73 -59t42 -71t27.5 -68q2 -13 2 -27q0 -13 -7 -26z" />
<glyph unicode="&#xed;" horiz-adv-x="594" d="M285 14zM717 241q-9 -30 -18.5 -65.5t-31.5 -68t-62.5 -58t-111.5 -35.5q-51 -2 -86 16t-57 38q-11 25 -22.5 48t-20.5 48q-10 55 -19 110t-1 112q2 97 13.5 192t22.5 192q11 95 24 190t27 190q4 26 9.5 55.5t21 57t45.5 50.5t84 37q35 4 68 0t60.5 -14t48.5 -24.5 t33 -29.5q31 -60 26 -127q-3 -55 -9 -109t-17 -109q-5 -58 -13.5 -114.5t-13.5 -114.5q-5 -60 -3.5 -121t6.5 -121q0 -57 1 -112.5t-4 -112.5zM707 1712q1 -12 -6 -22.5t-13 -22.5q-19 -31 -46 -67t-67.5 -67.5t-97 -52.5t-134.5 -21q-20 4 -38 11t-18 20q-4 13 -1.5 26.5 t6.5 26.5q18 31 39 68t54 70.5t82.5 58.5t124.5 33q23 0 44 -5.5t37 -13.5t25 -19t9 -23z" />
<glyph unicode="&#xee;" horiz-adv-x="594" d="M23 14zM717 241q-9 -30 -18.5 -65.5t-31.5 -68t-62.5 -58t-111.5 -35.5q-51 -2 -86 16t-57 38q-11 25 -22.5 48t-20.5 48q-10 55 -19 110t-1 112q2 97 13.5 192t22.5 192q11 95 24 190t27 190q4 26 9.5 55.5t21 57t45.5 50.5t84 37q35 4 68 0t60.5 -14t48.5 -24.5 t33 -29.5q31 -60 26 -127q-3 -55 -9 -109t-17 -109q-5 -58 -13.5 -114.5t-13.5 -114.5q-5 -60 -3.5 -121t6.5 -121q0 -57 1 -112.5t-4 -112.5zM939 1517q-3 -11 -14.5 -20t-28 -15t-37 -9.5t-41.5 -3.5q-17 -1 -33.5 0.5t-31.5 5.5t-26.5 10.5t-17.5 14.5q-42 54 -88 107.5 t-95 105.5q-67 -54 -135.5 -107.5t-128.5 -110.5q-17 -17 -52 -26t-71 -6q-30 1 -51 9t-35.5 19.5t-21.5 25t-8 26.5q1 26 17.5 50t42 46.5t57 43.5t62.5 41q33 18 68 38t74 36.5t83.5 28.5t95.5 14q52 -1 96 -11.5t81 -26.5t68.5 -35.5t59.5 -38.5q26 -21 50.5 -43t42 -45 t25.5 -48t2 -50q-3 -7 -4.5 -13t-4.5 -13z" />
<glyph unicode="&#xef;" horiz-adv-x="594" d="M23 14zM717 241q-9 -30 -18.5 -65.5t-31.5 -68t-62.5 -58t-111.5 -35.5q-51 -2 -86 16t-57 38q-11 25 -22.5 48t-20.5 48q-10 55 -19 110t-1 112q2 97 13.5 192t22.5 192q11 95 24 190t27 190q4 26 9.5 55.5t21 57t45.5 50.5t84 37q35 4 68 0t60.5 -14t48.5 -24.5 t33 -29.5q31 -60 26 -127q-3 -55 -9 -109t-17 -109q-5 -58 -13.5 -114.5t-13.5 -114.5q-5 -60 -3.5 -121t6.5 -121q0 -57 1 -112.5t-4 -112.5zM1115 1553q-3 -19 -21.5 -35.5t-47 -29t-64 -20t-72.5 -7.5q-45 1 -78.5 12t-56 28t-32.5 38t-7 41q4 23 19 44.5t39 41.5 q25 15 56.5 28t73.5 13q55 -2 95.5 -17t65.5 -37t32.5 -48.5t-2.5 -51.5zM410 1558q2 -17 -9.5 -35t-34 -31.5t-54.5 -20.5t-71 -3q-48 0 -87.5 12.5t-69.5 29.5q-32 17 -47.5 39t-13.5 45q22 45 85 77q35 14 69.5 27t79.5 15q60 0 91.5 -16t45 -39.5t15 -50.5t1.5 -49z" />
<glyph unicode="&#xf1;" horiz-adv-x="1795" d="M304 34zM1891 189q-5 -23 -18 -48t-37.5 -47t-61 -38t-88.5 -22q-66 3 -116.5 20t-91.5 41t-75 51.5t-68 51.5q-108 92 -194.5 175t-160.5 166q-57 63 -116 124t-116 124q-5 -57 -8 -113t-1 -113q-5 -54 -2 -107.5t-3 -107.5q-2 -45 -7 -89t-22 -88q-10 -24 -22.5 -48 t-32.5 -43.5t-49.5 -30.5t-74.5 -9q-43 4 -80.5 15t-66.5 27t-48.5 35.5t-26.5 41.5q-2 38 8 77.5t19 77.5q11 42 25 82.5t16 81.5q2 71 -3 141t-9 141q-2 69 2.5 139t18.5 139q15 35 21.5 75t22.5 78t49 72t99 57q39 2 71.5 -4t60 -17.5t49 -26t38.5 -29.5 q35 -35 64.5 -70.5t58.5 -73.5q58 -78 117.5 -156.5t128.5 -153.5q35 -38 71.5 -75.5t77 -73.5t87 -70.5t101.5 -65.5q5 17 9.5 33t6.5 33q-5 53 -12 104.5t-7 104.5q-11 83 -18 166.5t-4 167.5q2 32 6.5 65t18.5 65q9 20 23.5 38.5t35 32t47.5 20.5t60 4q36 -3 64 -12.5 t48.5 -23.5t35.5 -30.5t26 -32.5q40 -68 43 -141q-2 -25 -4.5 -48t-7.5 -48q2 -24 -3.5 -48.5t-5.5 -48.5q2 -109 12 -217t19 -217q9 -69 8 -139t-8 -141zM1831 1616q3 -28 -28 -53t-86 -36q-108 -26 -219.5 -48t-231.5 -27q-48 0 -89.5 11t-73.5 29q-26 18 -68.5 28.5 t-88.5 10.5q-58 2 -116.5 -8.5t-102.5 -32.5q-18 -9 -38 -17.5t-34 -20.5q-35 2 -66.5 11.5t-56.5 23.5q-24 14 -46 30t-22 36q-2 21 14.5 39t44 33t61.5 27t68 21q71 17 147.5 29.5t156.5 12.5q46 2 85 -8.5t68 -27.5q32 -17 75 -26t89 -9q49 0 97 2.5t96 10.5q35 13 70 23 t70 23q13 2 24.5 4.5t24.5 0.5q33 -3 63 -11.5t53.5 -20.5t39 -27.5t20.5 -32.5z" />
<glyph unicode="&#xf2;" horiz-adv-x="1836" d="M251 14zM2121 688q-8 -116 -81 -227.5t-205 -209.5q-63 -49 -146 -93t-180.5 -77t-208 -51.5t-230.5 -15.5q-113 0 -211 21t-179 56t-145 79t-107 91q-99 95 -143.5 199.5t-33.5 213.5q8 117 81 229t206 211q62 49 143.5 93.5t179 77.5t208 51.5t230.5 15.5 q114 0 211.5 -21.5t178 -56.5t143.5 -80t108 -91q47 -48 83.5 -98.5t60.5 -102.5t33.5 -106t3.5 -108zM1679 746q3 38 0.5 81.5t-16.5 86.5t-42.5 83t-77 71.5t-119 50.5t-168.5 21q-77 2 -147 -11t-130 -36t-108.5 -53.5t-82.5 -63.5q-68 -69 -99.5 -143.5t-38.5 -149.5 q-4 -43 -3 -92t13.5 -98t40.5 -95t78.5 -82t127 -59.5t185.5 -27.5q127 4 218.5 30t155.5 67.5t103.5 94t62.5 109t33 112.5t14 104zM1271 1500q0 -13 -19.5 -20t-40.5 -11q-78 1 -131 22.5t-88 52t-56 66.5t-35 67q-4 12 -8.5 22.5t-0.5 22.5q1 12 11.5 22.5t27 19t38 13.5 t44.5 6q75 -7 120.5 -32t73 -59t42 -71t27.5 -68q2 -13 2 -27q0 -13 -7 -26z" />
<glyph unicode="&#xf3;" horiz-adv-x="1836" d="M251 14zM2121 688q-8 -116 -81 -227.5t-205 -209.5q-63 -49 -146 -93t-180.5 -77t-208 -51.5t-230.5 -15.5q-113 0 -211 21t-179 56t-145 79t-107 91q-99 95 -143.5 199.5t-33.5 213.5q8 117 81 229t206 211q62 49 143.5 93.5t179 77.5t208 51.5t230.5 15.5 q114 0 211.5 -21.5t178 -56.5t143.5 -80t108 -91q47 -48 83.5 -98.5t60.5 -102.5t33.5 -106t3.5 -108zM1679 746q3 38 0.5 81.5t-16.5 86.5t-42.5 83t-77 71.5t-119 50.5t-168.5 21q-77 2 -147 -11t-130 -36t-108.5 -53.5t-82.5 -63.5q-68 -69 -99.5 -143.5t-38.5 -149.5 q-4 -43 -3 -92t13.5 -98t40.5 -95t78.5 -82t127 -59.5t185.5 -27.5q127 4 218.5 30t155.5 67.5t103.5 94t62.5 109t33 112.5t14 104zM1432 1731q1 -12 -6 -22.5t-13 -22.5q-19 -31 -46 -67t-67.5 -67.5t-97 -52.5t-134.5 -21q-20 4 -38 11t-18 20q-4 13 -1.5 26.5t6.5 26.5 q18 31 39 68t54 70.5t82.5 58.5t124.5 33q23 0 44 -5.5t37 -13.5t25 -19t9 -23z" />
<glyph unicode="&#xf4;" horiz-adv-x="1836" d="M251 14zM2121 688q-8 -116 -81 -227.5t-205 -209.5q-63 -49 -146 -93t-180.5 -77t-208 -51.5t-230.5 -15.5q-113 0 -211 21t-179 56t-145 79t-107 91q-99 95 -143.5 199.5t-33.5 213.5q8 117 81 229t206 211q62 49 143.5 93.5t179 77.5t208 51.5t230.5 15.5 q114 0 211.5 -21.5t178 -56.5t143.5 -80t108 -91q47 -48 83.5 -98.5t60.5 -102.5t33.5 -106t3.5 -108zM1679 746q3 38 0.5 81.5t-16.5 86.5t-42.5 83t-77 71.5t-119 50.5t-168.5 21q-77 2 -147 -11t-130 -36t-108.5 -53.5t-82.5 -63.5q-68 -69 -99.5 -143.5t-38.5 -149.5 q-4 -43 -3 -92t13.5 -98t40.5 -95t78.5 -82t127 -59.5t185.5 -27.5q127 4 218.5 30t155.5 67.5t103.5 94t62.5 109t33 112.5t14 104zM1587 1524q-3 -11 -14.5 -20t-28 -15t-37 -9.5t-41.5 -3.5q-17 -1 -33.5 0.5t-31.5 5.5t-26.5 10.5t-17.5 14.5q-42 54 -88 107.5 t-95 105.5q-67 -54 -135.5 -107.5t-128.5 -110.5q-17 -17 -52 -26t-71 -6q-30 1 -51 9t-35.5 19.5t-21.5 25t-8 26.5q1 26 17.5 50t42 46.5t57 43.5t62.5 41q33 18 68 38t74 36.5t83.5 28.5t95.5 14q52 -1 96 -11.5t81 -26.5t68.5 -35.5t59.5 -38.5q26 -21 50.5 -43t42 -45 t25.5 -48t2 -50q-3 -7 -4.5 -13t-4.5 -13z" />
<glyph unicode="&#xf5;" horiz-adv-x="1836" d="M251 14zM2121 688q-8 -116 -81 -227.5t-205 -209.5q-63 -49 -146 -93t-180.5 -77t-208 -51.5t-230.5 -15.5q-113 0 -211 21t-179 56t-145 79t-107 91q-99 95 -143.5 199.5t-33.5 213.5q8 117 81 229t206 211q62 49 143.5 93.5t179 77.5t208 51.5t230.5 15.5 q114 0 211.5 -21.5t178 -56.5t143.5 -80t108 -91q47 -48 83.5 -98.5t60.5 -102.5t33.5 -106t3.5 -108zM1679 746q3 38 0.5 81.5t-16.5 86.5t-42.5 83t-77 71.5t-119 50.5t-168.5 21q-77 2 -147 -11t-130 -36t-108.5 -53.5t-82.5 -63.5q-68 -69 -99.5 -143.5t-38.5 -149.5 q-4 -43 -3 -92t13.5 -98t40.5 -95t78.5 -82t127 -59.5t185.5 -27.5q127 4 218.5 30t155.5 67.5t103.5 94t62.5 109t33 112.5t14 104zM1899 1619q3 -28 -28 -53t-86 -36q-108 -26 -219.5 -48t-231.5 -27q-48 0 -89.5 11t-73.5 29q-26 18 -68.5 28.5t-88.5 10.5 q-58 2 -116.5 -8.5t-102.5 -32.5q-18 -9 -38 -17.5t-34 -20.5q-35 2 -66.5 11.5t-56.5 23.5q-24 14 -46 30t-22 36q-2 21 14.5 39t44 33t61.5 27t68 21q71 17 147.5 29.5t156.5 12.5q46 2 85 -8.5t68 -27.5q32 -17 75 -26t89 -9q49 0 97 2.5t96 10.5q35 13 70 23t70 23 q13 2 24.5 4.5t24.5 0.5q33 -3 63 -11.5t53.5 -20.5t39 -27.5t20.5 -32.5z" />
<glyph unicode="&#xf6;" horiz-adv-x="1836" d="M251 14zM2121 688q-8 -116 -81 -227.5t-205 -209.5q-63 -49 -146 -93t-180.5 -77t-208 -51.5t-230.5 -15.5q-113 0 -211 21t-179 56t-145 79t-107 91q-99 95 -143.5 199.5t-33.5 213.5q8 117 81 229t206 211q62 49 143.5 93.5t179 77.5t208 51.5t230.5 15.5 q114 0 211.5 -21.5t178 -56.5t143.5 -80t108 -91q47 -48 83.5 -98.5t60.5 -102.5t33.5 -106t3.5 -108zM1679 746q3 38 0.5 81.5t-16.5 86.5t-42.5 83t-77 71.5t-119 50.5t-168.5 21q-77 2 -147 -11t-130 -36t-108.5 -53.5t-82.5 -63.5q-68 -69 -99.5 -143.5t-38.5 -149.5 q-4 -43 -3 -92t13.5 -98t40.5 -95t78.5 -82t127 -59.5t185.5 -27.5q127 4 218.5 30t155.5 67.5t103.5 94t62.5 109t33 112.5t14 104zM1759 1546q-3 -19 -21.5 -35.5t-47 -29t-64 -20t-72.5 -7.5q-45 1 -78.5 12t-56 28t-32.5 38t-7 41q4 23 19 44.5t39 41.5q25 15 56.5 28 t73.5 13q55 -2 95.5 -17t65.5 -37t32.5 -48.5t-2.5 -51.5zM1054 1551q2 -17 -9.5 -35t-34 -31.5t-54.5 -20.5t-71 -3q-48 0 -87.5 12.5t-69.5 29.5q-32 17 -47.5 39t-13.5 45q22 45 85 77q35 14 69.5 27t79.5 15q60 0 91.5 -16t45 -39.5t15 -50.5t1.5 -49z" />
<glyph unicode="&#xf7;" horiz-adv-x="1273" d="M1099 1089q0 -57 -68 -108q-35 -23 -88.5 -38t-113.5 -13q-65 -3 -111.5 10.5t-74 36.5t-37 52t1.5 56q2 25 24.5 47t58.5 38.5t82.5 25t96.5 7.5q49 2 92.5 -6.5t75.5 -24t48.5 -37t12.5 -46.5zM1476 676q-1 -14 -13.5 -27t-32.5 -23.5t-46.5 -16.5t-54.5 -7 q-257 -4 -514 -4q-256 0 -513 3q-36 0 -68 11t-51 25q-22 15 -35 31.5t-15 36.5q23 31 72 46t109 21t123 6.5t116 3.5q49 -2 99 -2t99 -2q49 0 99 -1.5t99 -1.5q38 2 75 -1t75 -1q34 -1 75 -2.5t82 -4.5t79.5 -9t69 -16t49.5 -26t22 -39zM992 362q-3 -29 -24.5 -57 t-54.5 -52q-31 -25 -83.5 -40t-109.5 -13q-63 -2 -108 13t-73 38t-40 51.5t-7 55.5q-2 26 22 48t62.5 37.5t87 23.5t97.5 6q49 3 94.5 -4.5t78.5 -22.5t49.5 -37t8.5 -47z" />
<glyph unicode="&#xf8;" horiz-adv-x="2092" d="M2169 691q-8 -117 -80.5 -229t-202.5 -211q-63 -50 -146 -94.5t-181 -77.5t-209 -52t-232 -17q-138 -1 -257.5 30t-208.5 79q-22 -17 -43.5 -36t-41.5 -39q-8 -6 -16 -13.5t-13 -15.5l-12 -17l-12 -13l-4 -4q-9 -6 -17.5 -12.5t-18.5 -12.5t-22 -9.5t-30 -2.5 q-41 4 -78 14t-65.5 24t-47 32.5t-21.5 40.5q22 29 50.5 57t61 55.5t65.5 54.5t64 54q-88 93 -127 193.5t-29 204.5q8 118 80 231.5t204 214.5q61 50 144 94.5t183 77.5t213 51t233 16q93 -2 176.5 -17.5t159.5 -41.5q25 19 50 39.5t51 41t54.5 39.5t62.5 36q43 -4 81 -14.5 t73 -24.5q15 -6 29.5 -13.5t26 -16t19 -18t7.5 -19.5q-12 -27 -33 -53t-47 -51.5t-55 -50t-56 -48.5q119 -103 174.5 -219t43.5 -237zM1471 1125q-38 9 -81.5 12t-83.5 5q-78 2 -148.5 -11t-130 -35.5t-107 -53t-80.5 -64.5q-69 -71 -100.5 -145.5t-38.5 -149.5 q-6 -49 -1 -97.5t12 -97.5q186 161 375 319t384 318zM1727 748q10 100 -25 203q-211 -167 -421 -331.5t-423 -329.5q49 -32 125.5 -49t159.5 -16q125 4 216 31t154 69t102.5 95.5t62.5 110t33.5 113t15.5 104.5z" />
<glyph unicode="&#xf9;" horiz-adv-x="1782" d="M295 14zM2005 678q-10 -107 -68.5 -210t-158.5 -198q-48 -46 -112.5 -91.5t-145 -82t-177 -59.5t-208.5 -23q-125 -3 -240 15.5t-211 53.5t-168.5 83.5t-112.5 104.5q-41 55 -63.5 113t-33 117.5t-11 119.5t4.5 120q11 66 21 133.5t25.5 134.5t40.5 133t65 131 q10 14 30 24.5t45.5 18t54 11.5t56.5 6q33 6 60 2t47 -13.5t33.5 -23t18.5 -27.5q11 -20 15.5 -41.5t5.5 -43t-0.5 -43t-1.5 -42.5q-14 -78 -30.5 -154t-36.5 -152q-20 -78 -37 -156t-21 -156q-4 -42 6.5 -82.5t48.5 -77.5q25 -18 59 -30.5t73.5 -20t82.5 -11t85 -3.5 q150 -4 252.5 32.5t165.5 94t90.5 125.5t27.5 127q11 103 4.5 204.5t-35.5 201.5q-9 40 -19.5 78.5t-9.5 78.5q-1 17 4.5 38t22 39t45.5 30t75 11q47 -3 83.5 -14t64.5 -27.5t49.5 -36.5t38.5 -39q39 -63 61 -127.5t32.5 -130.5t10.5 -133q0 -66 -4 -132zM1133 1489 q0 -13 -19.5 -20t-40.5 -11q-78 1 -131 22.5t-88 52t-56 66.5t-35 67q-4 12 -8.5 22.5t-0.5 22.5q1 12 11.5 22.5t27 19t38 13.5t44.5 6q75 -7 120.5 -32t73 -59t42 -71t27.5 -68q2 -13 2 -27q0 -13 -7 -26z" />
<glyph unicode="&#xfa;" horiz-adv-x="1782" d="M295 14zM2005 678q-10 -107 -68.5 -210t-158.5 -198q-48 -46 -112.5 -91.5t-145 -82t-177 -59.5t-208.5 -23q-125 -3 -240 15.5t-211 53.5t-168.5 83.5t-112.5 104.5q-41 55 -63.5 113t-33 117.5t-11 119.5t4.5 120q11 66 21 133.5t25.5 134.5t40.5 133t65 131 q10 14 30 24.5t45.5 18t54 11.5t56.5 6q33 6 60 2t47 -13.5t33.5 -23t18.5 -27.5q11 -20 15.5 -41.5t5.5 -43t-0.5 -43t-1.5 -42.5q-14 -78 -30.5 -154t-36.5 -152q-20 -78 -37 -156t-21 -156q-4 -42 6.5 -82.5t48.5 -77.5q25 -18 59 -30.5t73.5 -20t82.5 -11t85 -3.5 q150 -4 252.5 32.5t165.5 94t90.5 125.5t27.5 127q11 103 4.5 204.5t-35.5 201.5q-9 40 -19.5 78.5t-9.5 78.5q-1 17 4.5 38t22 39t45.5 30t75 11q47 -3 83.5 -14t64.5 -27.5t49.5 -36.5t38.5 -39q39 -63 61 -127.5t32.5 -130.5t10.5 -133q0 -66 -4 -132zM1347 1722 q1 -12 -6 -22.5t-13 -22.5q-19 -31 -46 -67t-67.5 -67.5t-97 -52.5t-134.5 -21q-20 4 -38 11t-18 20q-4 13 -1.5 26.5t6.5 26.5q18 31 39 68t54 70.5t82.5 58.5t124.5 33q23 0 44 -5.5t37 -13.5t25 -19t9 -23z" />
<glyph unicode="&#xfb;" horiz-adv-x="1782" d="M295 14zM2005 678q-10 -107 -68.5 -210t-158.5 -198q-48 -46 -112.5 -91.5t-145 -82t-177 -59.5t-208.5 -23q-125 -3 -240 15.5t-211 53.5t-168.5 83.5t-112.5 104.5q-41 55 -63.5 113t-33 117.5t-11 119.5t4.5 120q11 66 21 133.5t25.5 134.5t40.5 133t65 131 q10 14 30 24.5t45.5 18t54 11.5t56.5 6q33 6 60 2t47 -13.5t33.5 -23t18.5 -27.5q11 -20 15.5 -41.5t5.5 -43t-0.5 -43t-1.5 -42.5q-14 -78 -30.5 -154t-36.5 -152q-20 -78 -37 -156t-21 -156q-4 -42 6.5 -82.5t48.5 -77.5q25 -18 59 -30.5t73.5 -20t82.5 -11t85 -3.5 q150 -4 252.5 32.5t165.5 94t90.5 125.5t27.5 127q11 103 4.5 204.5t-35.5 201.5q-9 40 -19.5 78.5t-9.5 78.5q-1 17 4.5 38t22 39t45.5 30t75 11q47 -3 83.5 -14t64.5 -27.5t49.5 -36.5t38.5 -39q39 -63 61 -127.5t32.5 -130.5t10.5 -133q0 -66 -4 -132zM1553 1520 q-3 -11 -14.5 -20t-28 -15t-37 -9.5t-41.5 -3.5q-17 -1 -33.5 0.5t-31.5 5.5t-26.5 10.5t-17.5 14.5q-42 54 -88 107.5t-95 105.5q-67 -54 -135.5 -107.5t-128.5 -110.5q-17 -17 -52 -26t-71 -6q-30 1 -51 9t-35.5 19.5t-21.5 25t-8 26.5q1 26 17.5 50t42 46.5t57 43.5 t62.5 41q33 18 68 38t74 36.5t83.5 28.5t95.5 14q52 -1 96 -11.5t81 -26.5t68.5 -35.5t59.5 -38.5q26 -21 50.5 -43t42 -45t25.5 -48t2 -50q-3 -7 -4.5 -13t-4.5 -13z" />
<glyph unicode="&#xfc;" horiz-adv-x="1782" d="M295 14zM2005 678q-10 -107 -68.5 -210t-158.5 -198q-48 -46 -112.5 -91.5t-145 -82t-177 -59.5t-208.5 -23q-125 -3 -240 15.5t-211 53.5t-168.5 83.5t-112.5 104.5q-41 55 -63.5 113t-33 117.5t-11 119.5t4.5 120q11 66 21 133.5t25.5 134.5t40.5 133t65 131 q10 14 30 24.5t45.5 18t54 11.5t56.5 6q33 6 60 2t47 -13.5t33.5 -23t18.5 -27.5q11 -20 15.5 -41.5t5.5 -43t-0.5 -43t-1.5 -42.5q-14 -78 -30.5 -154t-36.5 -152q-20 -78 -37 -156t-21 -156q-4 -42 6.5 -82.5t48.5 -77.5q25 -18 59 -30.5t73.5 -20t82.5 -11t85 -3.5 q150 -4 252.5 32.5t165.5 94t90.5 125.5t27.5 127q11 103 4.5 204.5t-35.5 201.5q-9 40 -19.5 78.5t-9.5 78.5q-1 17 4.5 38t22 39t45.5 30t75 11q47 -3 83.5 -14t64.5 -27.5t49.5 -36.5t38.5 -39q39 -63 61 -127.5t32.5 -130.5t10.5 -133q0 -66 -4 -132zM1735 1551 q-3 -19 -21.5 -35.5t-47 -29t-64 -20t-72.5 -7.5q-45 1 -78.5 12t-56 28t-32.5 38t-7 41q4 23 19 44.5t39 41.5q25 15 56.5 28t73.5 13q55 -2 95.5 -17t65.5 -37t32.5 -48.5t-2.5 -51.5zM1030 1556q2 -17 -9.5 -35t-34 -31.5t-54.5 -20.5t-71 -3q-48 0 -87.5 12.5 t-69.5 29.5q-32 17 -47.5 39t-13.5 45q22 45 85 77q35 14 69.5 27t79.5 15q60 0 91.5 -16t45 -39.5t15 -50.5t1.5 -49z" />
<glyph unicode="&#xfd;" horiz-adv-x="1481" d="M313 19zM1910 1196q-5 -18 -19 -34.5t-31.5 -32.5t-37 -32t-35.5 -32q-51 -33 -97 -67.5t-93 -69.5q-113 -87 -213.5 -179t-183 -187t-143.5 -194.5t-94 -201.5q-9 -26 -18 -51.5t-32 -49.5q-11 -12 -29 -21t-39.5 -15t-46.5 -9t-49 -1q-40 0 -69 9t-48 24t-27.5 33 t-7.5 36q3 49 15.5 97.5t29.5 97.5q18 49 44 97.5t68 95.5q-75 34 -129 75.5t-94.5 87.5t-70.5 95t-57 97q-24 45 -43.5 92t-31.5 94.5t-14.5 95.5t7.5 96q4 12 13 25t23 24.5t34.5 19.5t48.5 8q40 6 77 1.5t66 -16t48 -28.5t24 -35q9 -44 25 -86.5t25 -86.5 q17 -48 41.5 -93.5t53.5 -92.5q25 -48 63.5 -93t88.5 -88q97 109 210 211.5t232 205.5q45 45 95.5 87.5t101.5 86.5q20 20 57.5 28.5t78.5 7.5q47 -3 82.5 -16t58.5 -31t33.5 -40.5t8.5 -44.5zM1180 1722q1 -12 -6 -22.5t-13 -22.5q-19 -31 -46 -67t-67.5 -67.5t-97 -52.5 t-134.5 -21q-20 4 -38 11t-18 20q-4 13 -1.5 26.5t6.5 26.5q18 31 39 68t54 70.5t82.5 58.5t124.5 33q23 0 44 -5.5t37 -13.5t25 -19t9 -23z" />
<glyph unicode="&#xfe;" horiz-adv-x="1625" d="M1867 748q-2 -50 -32.5 -97.5t-82.5 -89.5t-122.5 -78t-151.5 -63q-85 -30 -176.5 -52t-187.5 -38t-194.5 -27t-197.5 -18l-2 -17q-2 -20 -4.5 -30t-3.5 -16q0 -29 6.5 -56t8.5 -53q-1 -12 -2.5 -25t-5.5 -25.5t-12 -24.5t-23 -23q-22 -8 -47 -11t-51 -3t-52.5 1.5 t-52.5 2.5q-40 4 -68.5 17t-46.5 30t-26 37t-7 39q-2 27 1 54.5t1 54.5q2 29 6 56t4 55q2 26 -1.5 51.5t-3.5 51.5q-9 184 6 367.5t55 369.5q9 27 20 57.5t33 58t60.5 48.5t101.5 29q29 0 59 -1t52 -11q26 -5 44.5 -17t16.5 -28l-4 -40t-6 -40q-6 -36 -7 -71.5t0 -71.5 q83 20 170.5 28t178.5 9q72 0 144 -6t141 -14q120 -15 211 -52.5t150 -88.5t85 -110.5t16 -118.5zM1471 771q5 32 -18 61t-55 55q-34 23 -81 40.5t-109 17.5q-84 0 -171 -4t-165 -23q-42 -12 -69 -29.5t-43.5 -38.5t-24 -43.5t-10.5 -43.5q-1 -14 -2.5 -29t-5.5 -29l-5 -56 q-3 -34 3 -66.5t24 -63.5q121 0 235 20.5t217 52.5q49 15 97 33.5t87 41t65 48.5t31 56z" />
<glyph unicode="&#xff;" horiz-adv-x="1481" d="M313 19zM1910 1196q-5 -18 -19 -34.5t-31.5 -32.5t-37 -32t-35.5 -32q-51 -33 -97 -67.5t-93 -69.5q-113 -87 -213.5 -179t-183 -187t-143.5 -194.5t-94 -201.5q-9 -26 -18 -51.5t-32 -49.5q-11 -12 -29 -21t-39.5 -15t-46.5 -9t-49 -1q-40 0 -69 9t-48 24t-27.5 33 t-7.5 36q3 49 15.5 97.5t29.5 97.5q18 49 44 97.5t68 95.5q-75 34 -129 75.5t-94.5 87.5t-70.5 95t-57 97q-24 45 -43.5 92t-31.5 94.5t-14.5 95.5t7.5 96q4 12 13 25t23 24.5t34.5 19.5t48.5 8q40 6 77 1.5t66 -16t48 -28.5t24 -35q9 -44 25 -86.5t25 -86.5 q17 -48 41.5 -93.5t53.5 -92.5q25 -48 63.5 -93t88.5 -88q97 109 210 211.5t232 205.5q45 45 95.5 87.5t101.5 86.5q20 20 57.5 28.5t78.5 7.5q47 -3 82.5 -16t58.5 -31t33.5 -40.5t8.5 -44.5zM1585 1548q-3 -19 -21.5 -35.5t-47 -29t-64 -20t-72.5 -7.5q-45 1 -78.5 12 t-56 28t-32.5 38t-7 41q4 23 19 44.5t39 41.5q25 15 56.5 28t73.5 13q55 -2 95.5 -17t65.5 -37t32.5 -48.5t-2.5 -51.5zM880 1553q2 -17 -9.5 -35t-34 -31.5t-54.5 -20.5t-71 -3q-48 0 -87.5 12.5t-69.5 29.5q-32 17 -47.5 39t-13.5 45q22 45 85 77q35 14 69.5 27t79.5 15 q60 0 91.5 -16t45 -39.5t15 -50.5t1.5 -49z" />
<glyph unicode="&#x152;" horiz-adv-x="3386" d="M3444 398q-58 -42 -138.5 -73t-171.5 -56.5t-185 -49t-179 -48.5q-98 -23 -195.5 -47t-196.5 -46t-201 -39t-209 -25q-54 0 -108.5 6t-94.5 24q-31 21 -53.5 46t-30.5 52q-49 -28 -108.5 -51.5t-127 -39.5t-140 -24t-146.5 -5q-120 2 -224 25t-190.5 60t-154.5 84 t-117 97q-104 102 -150.5 214.5t-28.5 229.5q14 107 80.5 209.5t195.5 193.5q63 45 144 82.5t174.5 65.5t197.5 45t213 19q77 2 153 -3.5t147 -18t134.5 -33t116.5 -48.5q78 32 165.5 51t181.5 29t192.5 12.5t197.5 2t196.5 -3t189.5 -2.5q41 -2 79 -9.5t68 -20t48 -30 t18 -39.5q5 -17 -6.5 -30t-33 -23t-50 -16t-56.5 -8q-67 2 -134.5 1.5t-133.5 3.5q-88 0 -174.5 -3.5t-170.5 -21.5q-42 -7 -80 -19t-69 -28t-53 -35t-30 -41q-4 -18 -10 -37t-4 -38q-4 -12 0.5 -22.5t6.5 -22.5q113 2 224 11t221 20q109 11 219.5 20t221.5 7q40 1 79 -5 t69 -18t47.5 -29.5t14.5 -39.5q-2 -28 -32 -47.5t-75 -32t-97 -19t-98 -7.5q-143 -9 -283.5 -15t-283.5 -20q-78 -11 -140 -35t-105 -56.5t-66 -70.5t-24 -76q-5 -58 8.5 -114t39.5 -111q143 18 273.5 52t259.5 69q128 35 260.5 64t276.5 33q39 1 76.5 -3t70.5 -13t59.5 -23 t41.5 -32zM1625 860q6 49 -3 96t-38 94q-14 22 -40 41t-62 32.5t-79 21t-91 5.5q-77 1 -145.5 -13t-127 -38t-105 -55t-77.5 -64q-71 -70 -103 -144t-39 -150q-8 -63 6 -125t44 -122q15 -27 35.5 -56.5t52.5 -55t77.5 -43t108.5 -21.5q94 0 164.5 22t123.5 56t91 74.5 t65 77.5q60 91 94.5 182.5t47.5 184.5z" />
<glyph unicode="&#x153;" horiz-adv-x="3386" d="M3444 398q-58 -42 -138.5 -73t-171.5 -56.5t-185 -49t-179 -48.5q-98 -23 -195.5 -47t-196.5 -46t-201 -39t-209 -25q-54 0 -108.5 6t-94.5 24q-31 21 -53.5 46t-30.5 52q-49 -28 -108.5 -51.5t-127 -39.5t-140 -24t-146.5 -5q-120 2 -224 25t-190.5 60t-154.5 84 t-117 97q-104 102 -150.5 214.5t-28.5 229.5q14 107 80.5 209.5t195.5 193.5q63 45 144 82.5t174.5 65.5t197.5 45t213 19q77 2 153 -3.5t147 -18t134.5 -33t116.5 -48.5q78 32 165.5 51t181.5 29t192.5 12.5t197.5 2t196.5 -3t189.5 -2.5q41 -2 79 -9.5t68 -20t48 -30 t18 -39.5q5 -17 -6.5 -30t-33 -23t-50 -16t-56.5 -8q-67 2 -134.5 1.5t-133.5 3.5q-88 0 -174.5 -3.5t-170.5 -21.5q-42 -7 -80 -19t-69 -28t-53 -35t-30 -41q-4 -18 -10 -37t-4 -38q-4 -12 0.5 -22.5t6.5 -22.5q113 2 224 11t221 20q109 11 219.5 20t221.5 7q40 1 79 -5 t69 -18t47.5 -29.5t14.5 -39.5q-2 -28 -32 -47.5t-75 -32t-97 -19t-98 -7.5q-143 -9 -283.5 -15t-283.5 -20q-78 -11 -140 -35t-105 -56.5t-66 -70.5t-24 -76q-5 -58 8.5 -114t39.5 -111q143 18 273.5 52t259.5 69q128 35 260.5 64t276.5 33q39 1 76.5 -3t70.5 -13t59.5 -23 t41.5 -32zM1625 860q6 49 -3 96t-38 94q-14 22 -40 41t-62 32.5t-79 21t-91 5.5q-77 1 -145.5 -13t-127 -38t-105 -55t-77.5 -64q-71 -70 -103 -144t-39 -150q-8 -63 6 -125t44 -122q15 -27 35.5 -56.5t52.5 -55t77.5 -43t108.5 -21.5q94 0 164.5 22t123.5 56t91 74.5 t65 77.5q60 91 94.5 182.5t47.5 184.5z" />
<glyph unicode="&#x178;" d="M299 17zM1908 1201q-2 -35 -21.5 -68t-49 -64.5t-65 -62.5t-69.5 -61q-85 -69 -172 -138.5t-162 -142.5q-80 -91 -150 -182.5t-139 -184.5q-27 -42 -55.5 -81.5t-53.5 -80.5q-15 -16 -31 -35t-36.5 -36t-48.5 -30t-68 -17q-63 -1 -113.5 12.5t-85.5 36t-52 51t-12 57.5 q7 56 38.5 110t76 106.5t97.5 103t104 100.5q-98 -1 -176.5 19t-138.5 53t-101.5 74.5t-65.5 83.5q-48 84 -58.5 170.5t7.5 174.5q3 22 19 44.5t43.5 40.5t65.5 30.5t86 15.5q47 1 76.5 -10.5t47.5 -29t27.5 -38.5t15.5 -39q6 -62 17 -123t19 -123q6 -23 20.5 -46.5 t40.5 -42.5t64 -31.5t91 -12.5q69 16 117.5 44t86 61t68.5 68.5t65 66.5q33 34 63 69.5t62 70t68 67.5t81 63q25 13 58 16t64 1q47 -4 89 -15.5t74 -29t51 -39.5t21 -46zM1585 1553q-3 -19 -21.5 -35.5t-47 -29t-64 -20t-72.5 -7.5q-45 1 -78.5 12t-56 28t-32.5 38t-7 41 q4 23 19 44.5t39 41.5q25 15 56.5 28t73.5 13q55 -2 95.5 -17t65.5 -37t32.5 -48.5t-2.5 -51.5zM880 1558q2 -17 -9.5 -35t-34 -31.5t-54.5 -20.5t-71 -3q-48 0 -87.5 12.5t-69.5 29.5q-32 17 -47.5 39t-13.5 45q22 45 85 77q35 14 69.5 27t79.5 15q60 0 91.5 -16t45 -39.5 t15 -50.5t1.5 -49z" />
<glyph unicode="&#x2c6;" horiz-adv-x="1096" d="M1232 1517q-3 -11 -14.5 -20t-28 -15t-37 -9.5t-41.5 -3.5q-17 -1 -33.5 0.5t-31.5 5.5t-26.5 10.5t-17.5 14.5q-42 54 -88 107.5t-95 105.5q-67 -54 -135.5 -107.5t-128.5 -110.5q-17 -17 -52 -26t-71 -6q-30 1 -51 9t-35.5 19.5t-21.5 25t-8 26.5q1 26 17.5 50t42 46.5 t57 43.5t62.5 41q33 18 68 38t74 36.5t83.5 28.5t95.5 14q52 -1 96 -11.5t81 -26.5t68.5 -35.5t59.5 -38.5q26 -21 50.5 -43t42 -45t25.5 -48t2 -50q-3 -7 -4.5 -13t-4.5 -13z" />
<glyph unicode="&#x2da;" horiz-adv-x="1256" d="M1370 1082q-3 -27 -18.5 -53t-42 -50t-61.5 -45t-77 -38q-87 -36 -189.5 -59t-213.5 -21q-103 0 -191.5 23t-153.5 60q-68 36 -104 83.5t-34 97.5q2 56 52 106.5t132 88.5q39 20 85.5 35.5t97.5 26.5t105.5 16.5t109.5 5.5q106 -2 196.5 -25.5t156.5 -63.5 q72 -38 113.5 -86t36.5 -102zM1041 1092q2 25 -22.5 46t-59.5 36q-37 16 -81.5 26t-95.5 10q-41 -1 -75 -11.5t-59 -26.5t-39.5 -36t-17.5 -39q-6 -22 3.5 -44t33 -40t60.5 -28.5t87 -8.5q51 -3 101 5t88.5 23.5t60 38t16.5 49.5z" />
<glyph unicode="&#x2dc;" horiz-adv-x="1597" d="M1732 1616q3 -28 -28 -53t-86 -36q-108 -26 -219.5 -48t-231.5 -27q-48 0 -89.5 11t-73.5 29q-26 18 -68.5 28.5t-88.5 10.5q-58 2 -116.5 -8.5t-102.5 -32.5q-18 -9 -38 -17.5t-34 -20.5q-35 2 -66.5 11.5t-56.5 23.5q-24 14 -46 30t-22 36q-2 21 14.5 39t44 33t61.5 27 t68 21q71 17 147.5 29.5t156.5 12.5q46 2 85 -8.5t68 -27.5q32 -17 75 -26t89 -9q49 0 97 2.5t96 10.5q35 13 70 23t70 23q13 2 24.5 4.5t24.5 0.5q33 -3 63 -11.5t53.5 -20.5t39 -27.5t20.5 -32.5z" />
<glyph unicode="&#x2000;" horiz-adv-x="992" />
<glyph unicode="&#x2001;" horiz-adv-x="1985" />
<glyph unicode="&#x2002;" horiz-adv-x="992" />
<glyph unicode="&#x2003;" horiz-adv-x="1985" />
<glyph unicode="&#x2004;" horiz-adv-x="661" />
<glyph unicode="&#x2005;" horiz-adv-x="496" />
<glyph unicode="&#x2006;" horiz-adv-x="330" />
<glyph unicode="&#x2007;" horiz-adv-x="330" />
<glyph unicode="&#x2008;" horiz-adv-x="248" />
<glyph unicode="&#x2009;" horiz-adv-x="397" />
<glyph unicode="&#x200a;" horiz-adv-x="110" />
<glyph unicode="&#x2010;" horiz-adv-x="1587" d="M1630 678q-5 -16 -23.5 -29t-44.5 -22t-56.5 -14.5t-59.5 -6.5q-242 -5 -480 -5.5t-480 1.5q-41 -1 -75 10.5t-61 22.5q-14 7 -26.5 15.5t-21.5 17.5t-13 18.5t1 20.5q31 28 82.5 41.5t112 19.5t124 7.5t118.5 4.5q46 -2 90 -2q45 0 91 -1q46 0 92 -2t92 -2q36 0 72 0.5 t72 -2.5q35 0 76 -1t82.5 -4t81 -9t71.5 -16t54 -25.5t29 -37.5z" />
<glyph unicode="&#x2011;" horiz-adv-x="1587" d="M1630 678q-5 -16 -23.5 -29t-44.5 -22t-56.5 -14.5t-59.5 -6.5q-242 -5 -480 -5.5t-480 1.5q-41 -1 -75 10.5t-61 22.5q-14 7 -26.5 15.5t-21.5 17.5t-13 18.5t1 20.5q31 28 82.5 41.5t112 19.5t124 7.5t118.5 4.5q46 -2 90 -2q45 0 91 -1q46 0 92 -2t92 -2q36 0 72 0.5 t72 -2.5q35 0 76 -1t82.5 -4t81 -9t71.5 -16t54 -25.5t29 -37.5z" />
<glyph unicode="&#x2012;" horiz-adv-x="1587" d="M1630 678q-5 -16 -23.5 -29t-44.5 -22t-56.5 -14.5t-59.5 -6.5q-242 -5 -480 -5.5t-480 1.5q-41 -1 -75 10.5t-61 22.5q-14 7 -26.5 15.5t-21.5 17.5t-13 18.5t1 20.5q31 28 82.5 41.5t112 19.5t124 7.5t118.5 4.5q46 -2 90 -2q45 0 91 -1q46 0 92 -2t92 -2q36 0 72 0.5 t72 -2.5q35 0 76 -1t82.5 -4t81 -9t71.5 -16t54 -25.5t29 -37.5z" />
<glyph unicode="&#x2013;" horiz-adv-x="1294" d="M1326 681q-4 -15 -20 -27.5t-39 -22.5t-51.5 -15.5t-56.5 -6.5q-170 -5 -339.5 -6.5t-339.5 -1.5q-39 2 -70.5 12.5t-56.5 21.5q-27 14 -42.5 32.5t-13.5 39.5q28 28 77 42t106.5 19.5t118.5 7t114 4.5q112 -3 226 -3q36 -2 77 -3t82.5 -4.5t80.5 -9t70 -16t51.5 -26 t25.5 -37.5z" />
<glyph unicode="&#x2014;" horiz-adv-x="2103" d="M2118 683q-6 -16 -26 -29t-47 -22t-58 -14.5t-60 -6.5q-702 -10 -1403 -9q-44 0 -81 11t-66 22q-31 13 -51.5 31.5t-11.5 40.5q36 27 89.5 41t115 20t125.5 7t121 3q235 3 471 0h233q116 0 234 -1q36 -2 78.5 -3.5t85.5 -4.5t84.5 -8.5t75.5 -15.5t58 -25t33 -37z" />
<glyph unicode="&#x2018;" horiz-adv-x="614" d="M782 932q-4 -14 -18 -26t-34 -20.5t-45.5 -14t-53.5 -7.5q-56 7 -94.5 25.5t-68 42.5t-52 51t-46.5 51q-49 57 -86 115.5t-57 118.5q2 11 -4.5 21t-2.5 22q6 14 25 22.5t44 14t53.5 8t53.5 4.5q54 -9 91 -29t64 -44.5t48.5 -51.5t43.5 -51q87 -109 134 -228 q2 -7 3.5 -12.5t1.5 -11.5z" />
<glyph unicode="&#x2019;" horiz-adv-x="597" d="M761 1248q1 -38 -13.5 -75t-38.5 -73t-55 -70.5t-65 -68.5q-22 -16 -44 -35t-48 -35.5t-59 -27.5t-76 -11q-40 1 -66.5 11.5t-43 25.5t-24 33t-8.5 35q8 60 42 116.5t88 110.5q22 24 45 51.5t53 52.5t71 44.5t99 26.5q39 -3 67 -14.5t46 -27t25.5 -33.5t4.5 -36z" />
<glyph unicode="&#x201a;" horiz-adv-x="621" d="M696 159q0 -28 -15.5 -54.5t-40.5 -51t-56.5 -47.5t-64.5 -45q-26 -16 -53 -33.5t-58 -33t-66.5 -26.5t-78.5 -15q-14 2 -28 2q-13 0 -28 2q-26 2 -42.5 9.5t-26.5 17t-14 21t-5 22.5q1 27 15.5 53.5t37 52t50.5 50t56 48.5q28 21 57.5 45t64.5 45t78.5 36t98.5 18 q32 -2 55.5 -10t38.5 -20.5t21.5 -27t3.5 -29.5q3 -15 0 -29z" />
<glyph unicode="&#x201c;" horiz-adv-x="1314" d="M1413 928q-3 -14 -16.5 -25t-34.5 -19t-47 -13t-52 -6q-54 8 -90.5 26.5t-63 42.5t-47.5 50.5t-43 49.5q-47 60 -88.5 120.5t-72.5 122.5q-4 11 -7 22.5t-4 23.5q6 15 26.5 22.5t47 10.5t54.5 3h52q54 -11 92 -31t67 -44t52 -50.5t47 -50.5q44 -56 78 -113.5t52 -117.5 q-2 -6 0.5 -11.5t-2.5 -12.5zM852 881q2 -15 -10 -26.5t-33 -19t-47.5 -11.5t-51.5 -3q-57 10 -97.5 29t-71 43t-55.5 51t-51 51q-49 57 -86 115.5t-50 120.5q-2 10 -3 21t-1 21q9 14 29.5 22.5t46 13t54 6t53.5 3.5q51 -11 84.5 -30.5t57 -44t42 -51t39.5 -49.5 q44 -59 83 -118t66 -120q2 -7 4 -12.5t-2 -11.5z" />
<glyph unicode="&#x201d;" horiz-adv-x="1249" d="M1386 1169q-1 -38 -15.5 -75t-39.5 -73t-58.5 -70t-72.5 -67q-21 -17 -43.5 -35.5t-50 -35t-60.5 -29t-75 -16.5q-29 -2 -59 1.5t-53.5 11.5t-36.5 20.5t-8 29.5q-2 9 6 17.5t16 16.5q32 30 58 61.5t49 63.5t43.5 65t42.5 65q20 19 35 43t35 46.5t49.5 40t78.5 23.5 q41 -1 71.5 -10.5t50 -24.5t29 -33t8.5 -36zM795 1258q-6 -39 -22.5 -77.5t-41 -76t-56 -74t-66.5 -71.5q-20 -15 -40 -33.5t-44.5 -35t-55.5 -27.5t-73 -11q-38 0 -66 9.5t-46.5 24t-27.5 32t-9 34.5q1 30 12.5 59.5t30 58.5t42 57t49.5 56q26 24 51 50.5t56 51.5t71 44.5 t96 29.5q41 0 70.5 -9t47 -23.5t23 -32.5t-0.5 -36z" />
<glyph unicode="&#x201e;" horiz-adv-x="1249" d="M1290 87q-4 -76 -54 -147.5t-130 -137.5q-21 -17 -43 -35.5t-49 -35t-60.5 -29t-76.5 -16.5q-29 -2 -59.5 1t-54 11t-36.5 21t-8 30l5 17l18 16q32 30 58 61.5t49 64t43.5 65.5t42.5 65q19 19 33.5 43.5t35 47t50.5 40.5t79 24q41 0 71.5 -10t50 -25t28.5 -34t7 -37z M701 176q-6 -39 -22.5 -77.5t-41 -76t-56 -74t-66.5 -71.5q-20 -15 -40 -33.5t-44.5 -35t-56 -27.5t-74.5 -11q-39 -1 -67 8.5t-46 24.5t-26.5 32.5t-8.5 34.5q0 30 11 59.5t30 58.5t42.5 57t49.5 56q26 24 51 50.5t55.5 51t71 44.5t97.5 29q41 1 70 -8t46.5 -23.5 t23.5 -32.5t1 -36z" />
<glyph unicode="&#x2022;" horiz-adv-x="1082" d="M1166 792q-2 -60 -38 -119t-109 -110q-36 -26 -83 -47.5t-102 -36.5t-115 -22.5t-123 -5.5q-99 4 -164 32t-102 68t-49 87t-6 89q-3 51 35 101t106.5 88.5t162 60t201.5 16.5q77 -1 148 -18t120 -47q54 -26 86 -62t32 -74z" />
<glyph unicode="&#x2026;" horiz-adv-x="2144" d="M2099 114q-7 -24 -32 -43.5t-62 -33.5t-81.5 -22t-90.5 -8q-44 2 -81.5 13t-53.5 33q-27 22 -35 45.5t-8 49.5q2 25 19 48t46 43q22 18 58.5 31t78.5 12q61 -2 111 -17t83 -39t46.5 -53t1.5 -59zM1410 121q2 -23 -16.5 -43.5t-50 -35.5t-73.5 -23t-87 -5q-53 0 -98.5 12 t-79 31t-52.5 43t-18 50q3 29 29 53t62 46q32 20 74 34t93 14q68 1 112.5 -16t70 -43.5t33 -57.5t1.5 -59zM703 114q6 -20 -3.5 -40.5t-33 -36t-59 -24t-81.5 -4.5q-56 4 -103.5 15.5t-82.5 31.5q-40 18 -65 42.5t-22 51.5q1 13 11 25t25 22.5t33.5 20.5t35.5 19 q21 7 42.5 15t43.5 15t46 11.5t51 4.5q67 2 100 -15.5t46 -44t13.5 -56.5t2.5 -53z" />
<glyph unicode="&#x202f;" horiz-adv-x="397" />
<glyph unicode="&#x2039;" horiz-adv-x="973" d="M942 498q-8 -28 -41.5 -51t-94.5 -27q-48 0 -90.5 6.5t-82 17t-77 23.5t-73.5 26q-80 31 -151 65.5t-148 66.5q-22 10 -43.5 22t-22.5 29q15 31 48.5 57t76 49.5t89.5 45t90 42.5q45 19 91 40t95.5 39t103.5 30.5t116 15.5q27 -4 53 -11.5t46 -18t32 -24t12 -28.5 q2 -18 -0.5 -37t-26.5 -35q-81 -40 -160.5 -78.5t-160.5 -78.5q67 -28 131.5 -55t131.5 -54q38 -13 49 -34.5t7 -42.5z" />
<glyph unicode="&#x203a;" horiz-adv-x="969" d="M1174 737q-13 -31 -45.5 -57t-74.5 -49.5t-88.5 -45.5t-88.5 -44q-47 -18 -94 -39t-97.5 -39t-105.5 -30.5t-117 -14.5q-29 4 -54.5 11.5t-45 18t-31.5 24t-15 28.5q1 9 1.5 18.5t3.5 18.5t9.5 18t18.5 17q84 38 161 78.5t160 78.5q-67 27 -133 54.5t-130 54.5 q-38 13 -47 34.5t-4 43.5q5 13 15 26.5t26.5 24t39 17.5t52.5 8q47 1 89.5 -5.5t82 -17t76.5 -23.5t73 -26q79 -31 151 -65.5t147 -66.5q23 -10 43 -22t22 -29z" />
<glyph unicode="&#x205f;" horiz-adv-x="496" />
<glyph unicode="&#x20ac;" horiz-adv-x="2215" d="M2306 951q2 -17 -7 -36t-29 -34.5t-50.5 -24.5t-72.5 -6q-69 2 -123.5 23t-83.5 50q-33 31 -58.5 64.5t-58.5 65.5q-17 17 -43.5 30.5t-59.5 23t-70.5 14.5t-75.5 5q-90 0 -161 -20.5t-126.5 -52.5t-96 -71t-67.5 -76q29 -1 59 1.5t59 0.5q37 0 80.5 -1t86.5 -5.5 t82.5 -12.5t69 -20.5t47 -31t16.5 -42.5q2 -21 -19 -35.5t-53.5 -23t-72 -12t-73.5 -2.5q-96 2 -191.5 1t-191.5 -1q-13 -36 -21.5 -71t-10.5 -71q38 0 78.5 2t78.5 0q37 0 79 -1t84 -5t80.5 -11t68 -19t46.5 -29t17 -41q1 -21 -20 -36t-54 -24t-72.5 -12.5t-73.5 -2.5 q-77 0 -152.5 -1t-151.5 1q8 -26 21.5 -55t39.5 -53.5t67.5 -42t105.5 -18.5q103 1 209 7.5t201 33.5q45 14 85.5 30.5t83.5 34.5q45 17 96 27.5t105 13.5q39 1 64.5 -8.5t38 -24t13.5 -32t-8 -32.5q0 -20 -9 -33q-19 -29 -55.5 -52.5t-83 -43t-98.5 -36t-102 -30.5 q-103 -29 -213 -49t-226 -24q-168 -5 -302.5 28t-233.5 89.5t-161 128.5t-85 146q-51 3 -105.5 4t-105.5 3q-37 1 -70.5 9t-58 21.5t-38.5 31t-13 35.5q10 29 50 44.5t92 23t108.5 9.5t101.5 4l3 27q2 26 6.5 52t12.5 52q-38 2 -78.5 1t-78.5 -1q-37 0 -67 8t-51 21 t-30.5 30t-6.5 35q18 31 63.5 48.5t103.5 26t121 11.5t116 6q58 82 138.5 160t198.5 144q55 32 122.5 58.5t144 45t159 27t166.5 5.5q77 -1 148 -12t135 -29.5t121 -43t106 -51.5t92 -57t75.5 -63t52 -68.5t21.5 -72.5z" />
<glyph unicode="&#x2122;" horiz-adv-x="2321" d="M2285 770q-6 -20 -24.5 -39.5t-58.5 -25.5q-16 0 -31 0.5t-31 2.5q-24 14 -33.5 23t-14.5 18q2 14 0.5 28.5t4.5 28.5q14 38 20.5 77.5t3.5 79.5q5 39 -5 78t-36 77q-24 -53 -57.5 -104.5t-78.5 -102.5q-20 -21 -38.5 -43.5t-40.5 -44.5t-48.5 -41.5t-62.5 -35.5 q-35 2 -57 16.5t-26 31.5q-16 38 -33 75t-30 75q-17 38 -35 77t-54 75q-14 -49 -25.5 -98.5t-15.5 -98.5q-4 -17 -0.5 -34.5t5.5 -35.5q3 -17 2.5 -34t-2.5 -34q-3 -24 -22 -51q-11 -13 -36 -16.5t-48 -4.5q-29 0 -47.5 7.5t-29.5 18.5t-16.5 24.5t-8.5 25.5q-4 44 -4 76 q0 33 2 64q7 50 12 101t14 101.5t26 100.5t49 99q11 17 37 31.5t62 16.5q24 0 42.5 -5t32.5 -12.5t25.5 -17t22.5 -18.5q64 -84 111.5 -169t65.5 -176q49 56 87.5 111.5t78.5 110.5q16 20 28 43t28.5 44.5t40 40.5t61.5 31q70 -7 112.5 -30t66 -53.5t32.5 -64.5t13 -64 q4 -17 1 -34t-4 -34q-4 -17 -9 -33.5t-7 -34.5q0 -20 2.5 -40.5t4.5 -39.5q-2 -35 -4.5 -70t-19.5 -70zM1309 1306q-3 -13 -16.5 -22.5t-33.5 -15.5t-43 -9.5t-45 -5.5q-39 -4 -71 -6t-59.5 -3t-52.5 -1t-49 -1q-78 -215 -96 -431q-4 -15 -6 -32.5t-10 -34t-24.5 -30 t-48.5 -19.5q-27 0 -51.5 4.5t-44 12.5t-31 19t-11.5 25q-5 32 0 64t10 66q9 35 18 69t11 69q5 54 8 108.5t-8 108.5q-69 -2 -139 -3.5t-139 -3.5q-11 4 -18 11t-6 15q-2 8 -1.5 18t0.5 19q14 13 40 17.5t52 6.5q106 4 209 10.5t209 11.5q80 5 161 8t165 8q21 -2 41.5 -6 t37.5 -11t28 -16t14 -20z" />
<glyph unicode="&#xe000;" horiz-adv-x="1335" d="M0 1335h1335v-1335h-1335v1335z" />
<glyph horiz-adv-x="1335" d="M0 0z" />
</font>
</defs>
</svg>
