<?xml version="1.0" standalone="no"?>
<!DOCTYPE svg PUBLIC "-//W3C//DTD SVG 1.1//EN" "http://www.w3.org/Graphics/SVG/1.1/DTD/svg11.dtd" >
<svg xmlns="http://www.w3.org/2000/svg">
<metadata></metadata>
<defs>
<font id="yew_basturdbolditalic" horiz-adv-x="721" >
<font-face units-per-em="1000" ascent="800" descent="-200" />
<missing-glyph horiz-adv-x="676" />
<glyph horiz-adv-x="1000" />
<glyph horiz-adv-x="1000" />
<glyph unicode="&#xd;" horiz-adv-x="676" />
<glyph unicode=" "  horiz-adv-x="676" />
<glyph unicode="&#x09;" horiz-adv-x="676" />
<glyph unicode="&#xa0;" horiz-adv-x="676" />
<glyph unicode="!" horiz-adv-x="401" d="M299 218q-44 -17 -51 -17q-17 0 -23 10q-2 3 -2 10q0 37 18 87q3 7 125 338q12 30 26 56q20 36 74 73.5t84 37.5q9 0 17 -6q11 -9 11 -21q0 -5 -2 -11l-162 -444q-8 -21 -50.5 -62.5t-64.5 -50.5zM230 3q-44 -25 -64 -25q-24 0 -24 23q0 10 4 22q21 57 79 115 q62 62 112 62q27 0 27 -22q0 -10 -7 -28q-14 -39 -51 -82t-76 -65z" />
<glyph unicode="&#x22;" horiz-adv-x="583" d="M585 512q-25 -8 -37 -8q-18 0 -26 13q-3 4 -3 11q0 8 27 82q16 45 43 103q16 36 71 75.5t91 39.5q30 0 30 -23q0 -5 -2 -9l-62 -172q-9 -23 -53.5 -61.5t-78.5 -50.5zM516 631q-1 -6 -3 -17q-13 -40 -69.5 -83t-96.5 -43q-31 0 -31 26q0 10 12 44q4 11 63 146 q15 36 70.5 75.5t91.5 39.5q29 0 29 -23q0 -8 -11 -37q-18 -41 -55 -128z" />
<glyph unicode="#" horiz-adv-x="836" d="M347 309q-39 -18 -60 -18q-34 0 -34 34q0 37 61 89q50 43 93 61l64 175q9 25 64 70.5t84 52.5q26 7 34 7q32 0 32 -25q0 -6 -2 -13l-65 -184q28 7 66 16q6 38 17 93q17 44 81.5 95t111.5 51q31 0 31 -29q0 -5 -2 -11q-8 -44 -39 -157l21 3q23 3 29 3q38 0 38 -26 q0 -38 -55 -87q-44 -40 -87 -59q-5 -15 -15 -46h6q66 4 66 -26q0 -8 -3 -18q-8 -21 -32.5 -48.5t-47.5 -40.5q-13 -7 -26 -15q-5 -4 -11 -23q-9 -39 -37 -116q-18 -40 -80 -83.5t-101 -43.5q-33 0 -33 18q0 4 1 10q6 35 23 92q25 82 28 94q-44 -11 -84 -24q-4 -9 -6 -16 l1 -2q1 -4 1 -9q0 -46 -82 -107q-76 -56 -119 -56q-34 0 -30 36l28 81q-38 -17 -63 -17q-36 0 -36 29q0 36 61 89q48 40 94 64zM628 406q-42 -9 -69 -14q-11 -29 -16 -46q25 6 73 20q5 14 12 40z" />
<glyph unicode="$" horiz-adv-x="680" d="M353 271l2 1q29 0 29 -22q0 -12 -9 -31q23 -13 52 -13q17 0 48 11q27 10 31.5 14t11.5 24q4 12 4 26q0 20 -8.5 35.5t-20.5 15.5q-3 0 -49 -22q-58 -26 -91 -39zM672 502q29 -11 46.5 -40t13.5 -67q-2 -15 -15 -50q-22 -62 -68 -115q-81 -96 -184 -142q-17 -8 -27 -15 q-2 -5 -7 -15q-16 -23 -54 -53.5t-69 -42.5q-18 -7 -34 -7q-30 0 -30 23q0 10 6.5 27.5t12.5 26.5l-10 2q-100 14 -100 61q0 10 4 21q12 32 53.5 73t85.5 65q-7 -2 -13 -2q-43 0 -43 52q0 21 7 39q13 37 58 99q39 53 75 92q59 62 94 84q15 9 38 26q11 25 25 55 q18 38 75 80.5t94 42.5q28 0 28 -24q0 -17 -15 -48q-4 -6 -8 -16l-8 -22q34 -5 64 -21q38 -22 38 -51q0 -34 -51 -81q-43 -39 -82 -57zM452 440q51 25 152 63q-17 20 -18 20q-13 11 -38 11q-18 0 -24 -4q-14 -9 -38.5 -40.5t-33.5 -49.5z" />
<glyph unicode="%" horiz-adv-x="962" d="M595 775l2 1q36 22 69 22q20 0 48.5 -19.5t32.5 -35.5q10 -39 10 -75q0 -109 -139 -201q-125 -83 -240 -83q-34 0 -64 15q-40 20 -40 56q0 76 124 191q115 106 197 129zM513 612q-8 0 -19 -31q-3 -7 18 -13q10 -2 23 -2q-5 46 -22 46zM978 666q-21 -22 -54 -58 q-97 -115 -247 -261l-260 -248q-110 -107 -176 -107q-30 0 -30 26q0 9 3 18q18 49 97 112q8 6 23 19q98 90 173 162q154 147 331 353q31 35 76 65q52 34 86 34q31 0 31 -24q0 -31 -53 -91zM872 119q-58 -57 -124 -85q-36 -15 -92.5 -28.5t-89.5 -13.5q-70 0 -70 67 q0 18 6.5 36t36.5 66q49 80 143 156q106 86 182 86q99 0 99 -97q0 -39 -17 -86t-74 -101zM745 175q-1 27 -14 39q-13 -18 -15 -23q-6 -18 9 -18q5 0 20 2z" />
<glyph unicode="&#x26;" horiz-adv-x="639" d="M425 265l108 15q12 1 41 12q26 10 40 10q28 0 28 -20q0 -9 -6 -25.5t-29 -57.5q-10 -18 -29 -77q-5 -13 -11 -25q-17 -29 -63 -62q-49 -35 -78 -35q-27 0 -27 27q0 17 15 61l21 42q-6 -1 -93 -15q-59 -10 -90 -10q-26 0 -49 10q-33 14 -33 40t37 67q26 31 57 54 q-44 19 -44 60q0 51 76 122q59 56 121 89q53 29 99.5 44.5t94.5 30.5l24 67q8 21 52 57.5t68 42.5q21 6 28 6q26 0 26 -23q0 -13 -7 -30q-9 -22 -11 -28q-11 -33 -32 -98q0 -6 -3 -17q-10 -28 -45.5 -59.5t-68.5 -46.5q-20 -9 -41 -9q-30 -1 -37 -3q-102 -18 -158 -47 q5 -9 35 -9q2 0 74.5 7.5t74.5 7.5q42 0 42 -23q0 -7 -3 -15q-10 -28 -51 -64q-44 -40 -81 -49q-41 -11 -72 -24z" />
<glyph unicode="'" horiz-adv-x="450" d="M532 630q0 -5 -3 -17q-13 -39 -65.5 -82t-88.5 -43q-28 0 -28 25q0 10 13 45q4 11 62 146q15 35 66.5 74.5t84.5 39.5q25 0 25 -21q0 -9 -11 -38q-18 -41 -55 -129z" />
<glyph unicode="(" horiz-adv-x="486" d="M634 727q-16 -15 -46 -47q-99 -124 -156 -281q-12 -33 -38 -137q-4 -17 -4 -49q1 -38 9 -46l5 -4q14 -13 5 -37q-16 -44 -79.5 -91t-98.5 -47q-42 0 -42 111q0 32 5 51q15 56 49 165q50 139 162 306q36 55 98 113q82 77 133 77q30 0 30 -23q0 -7 -4 -17q-8 -21 -28 -44z " />
<glyph unicode=")" horiz-adv-x="476" d="M412 153q-62 -93 -131 -140q-53 -36 -85 -36q-27 0 -27 24q0 23 31 59q24 27 47 54q16 27 48 79q22 33 37 75q51 140 51 268q0 21 -2 36q-11 83 -11 97q0 12 2 18q15 41 73.5 86.5t95.5 45.5q25 0 27 -18q14 -118 14 -146q-1 -52 -18 -142q-18 -94 -41 -158 q-30 -82 -111 -202z" />
<glyph unicode="*" horiz-adv-x="668" d="M650 676q43 31 56 39q35 23 57 30t33 7q27 0 27 -24q0 -19 -27 -49q-24 -26 -45 -38q-15 -6 -45 -21q-18 -11 -61 -44q5 -6 45 -37q20 -15 32 -29q6 -6 -1 -25q-12 -33 -58 -66t-74 -33q-6 0 -26 15l-13 10q-2 -6 -13 -42q-9 -31 -56.5 -68t-79.5 -37q-26 0 -26 20 q0 13 11 33l31 85q-52 -44 -64 -52q-43 -30 -72 -30q-25 0 -25 20q0 32 77 96q53 40 107 80q-59 75 -59 104t54 69q51 38 82 38q17 0 25 -20q23 32 59.5 56.5t62.5 24.5q24 0 24 -18q0 -9 -7 -26q0 -3 -31 -68z" />
<glyph unicode="+" horiz-adv-x="785" d="M485 457l36 98q9 24 60.5 66.5t79.5 49.5q25 6 33 6q31 0 31 -24q0 -4 -2 -8l-61 -168h4q4 0 45 2.5t43 2.5q45 0 52 -1q31 -5 31 -26q0 -35 -60 -86q-53 -45 -92 -57q-20 -5 -85 -5l-43 -120q-3 -6 -36 -46q-14 -17 -48.5 -40t-54 -29.5t-34.5 -6.5q-10 0 -19 7 q-12 8 -12 19q0 3 2 7l70 193q-159 -14 -142 -14q-43 0 -43 26q0 7 4 18q14 38 71 82t96 49q25 2 74 5z" />
<glyph unicode="," horiz-adv-x="504" d="M378 51q-25 -41 -82 -95q-73 -69 -117 -69q-26 0 -26 22q0 21 30 54q23 25 46 49q6 8 14 29q6 17 5 41q-2 36 1 44q13 35 62 74t82 39q17 0 21 -7q10 -17 10 -44q0 -35 -14 -72q-11 -29 -32 -65z" />
<glyph unicode="-" d="M571 315q-22 -5 -36 -5q-2 0 -57.5 4t-58.5 4h-97q-14 0 -20.5 10.5t-1.5 23.5q11 30 62.5 68t90.5 41h53q31 0 105 -4q79 -4 85 -8t8 -16q2 -10 0 -15q-9 -26 -54 -61t-79 -42z" />
<glyph unicode="." horiz-adv-x="610" d="M295 -8q-18 0 -22 11t-7 23q-11 21 -2 44q11 31 56.5 67t78.5 36q23 0 22 -29q-1 -8 6 -20.5t7 -20.5q0 -31 -53 -71t-86 -40z" />
<glyph unicode="/" horiz-adv-x="684" d="M875 738q-77 -86 -260 -305q-164 -197 -265 -304q-146 -155 -220 -155q-30 0 -30 27q0 9 3 18q11 30 40 59q23 20 70 67q136 144 173 184q43 47 113 130q58 68 133 167q26 35 93 115q26 29 72.5 56t76.5 27q32 0 32 -30q0 -22 -31 -56z" />
<glyph unicode="0" d="M463 40q-96 -54 -154 -54q-109 0 -109 149q0 85 30 166q36 99 109 210t158 197q90 92 152 92q6 0 20 -8q3 -2 22 -3q146 -9 146 -145q0 -62 -30 -147q-46 -126 -120 -236q-101 -152 -224 -221zM623 451q8 26 8 66q0 52 -14 70.5t-56 24.5l-8 2q-32 -41 -71 -110t-57 -118 q-24 -66 -24 -137q0 -88 56 -88q15 0 19 5q73 82 131 240q6 15 16 45z" />
<glyph unicode="1" horiz-adv-x="513" d="M606 652l-144 -394q-1 -5 -7 -14t-8 -14l-38 -106q-6 -16 -39 -52q-29 -31 -71 -58q-45 -28 -73 -28q-29 0 -29 28q0 8 4.5 16.5t10.5 18.5l40 110q5 13 19 41l114 316q-18 -6 -26 -6q-30 0 -30 25q0 10 5 24q14 36 101 116q66 60 91 77q62 42 95 42q29 0 29 -25 q0 -9 -13 -45q-15 -32 -31 -72z" />
<glyph unicode="2" horiz-adv-x="676" d="M601 614q-26 -43 -83.5 -82.5t-93.5 -39.5q-35 0 -35 33q0 12 4 25q13 34 52 77q68 75 158 124t155 49q46 0 80 -30t34 -75q0 -22 -9 -44q-23 -65 -150 -182q-62 -54 -139 -122q-52 -47 -165 -153q20 1 51 3q28 2 30 2q68 0 118 -11q7 -2 14 -9l12 -12q19 -12 19 -31 q0 -44 -70.5 -101.5t-115.5 -57.5q-16 0 -26.5 13.5t-19.5 16.5q-25 8 -90 8q-33 0 -106.5 -8.5t-67.5 -8.5q-32 0 -32 24q0 9 4 21q13 34 93 113q40 42 147 145q18 17 173 156q54 46 110 101q5 12 -6.5 30t-22 22t-22.5 4z" />
<glyph unicode="3" horiz-adv-x="748" d="M720 216q-77 -70 -158 -117q-99 -58 -184 -103q-30 -16 -111 -53q-43 -21 -86 -43q-57 -27 -84 -27q-32 0 -32 26q0 31 45 76q36 35 72 56q6 3 75 36q47 21 142 68l134 72q74 43 122 97q15 17 33 43q2 6 2 11q0 16 -19 30q-5 5 -14 13q-38 31 -131 31q-19 0 -79 -6 q-7 -1 -29 -6q-18 -4 -27 -4q-31 0 -31 32q0 7 2 13q27 74 184 150q-81 1 -113 -3l-12 -2q-6 -1 -10 -1q-33 0 -33 28q0 42 68 97q64 51 109 58q41 7 43 7h253q3 0 30.5 2.5t30.5 2.5q50 0 50 -28q0 -8 -4 -17q-9 -24 -46.5 -62t-71.5 -55q-17 -7 -60 -32q131 -36 131 -118 q0 -22 -10 -48q-16 -44 -79 -119q-51 -58 -102 -105z" />
<glyph unicode="4" horiz-adv-x="818" d="M690 431q15 52 87 233q16 41 76.5 87t103.5 46h6q24 1 24 -24q0 -9 -10 -39l-36 -97q-13 -41 -44 -123q-121 -281 -198 -459q-16 -37 -77 -82.5t-100 -45.5q-29 0 -29 25q0 12 9 38q31 73 105 250q-84 8 -122 17q-161 40 -213 104q-14 17 -3 48q12 34 46 66q16 15 65 52 l88 66q125 95 157 129q26 26 69 49.5t71 23.5q33 0 33 -27q0 -39 -52 -84q-74 -65 -232 -185q29 -21 48 -28q77 -32 128 -40z" />
<glyph unicode="5" horiz-adv-x="683" d="M721 606q9 0 -35 1q-38 1 -72 1q-20 -2 -63 -4q-5 -14 -16 -42q70 27 102 27q47 0 91 -56q25 -31 25 -88q0 -55 -21 -113q-39 -107 -105 -184q-103 -121 -215 -194q-120 -79 -216 -79q-42 0 -87 22q-52 25 -52 60q0 42 74 100q71 55 115 55q19 0 27 -15l3 -5 q8 -14 34 -23q22 -9 43 -9q59 0 113 76q32 46 52 100q14 40 14 74q0 51 -32 76q-20 15 -25 15q-17 0 -75 -33.5t-87 -33.5q-31 0 -31 23q0 11 7 30q2 6 8.5 17.5t9.5 17.5l43 120q7 19 63 128q23 46 89 92.5t107 46.5q26 0 31 -19l183 4q49 0 55 -1q31 -5 31 -28 q0 -9 -4 -20q-14 -40 -77 -88q-65 -51 -107 -51z" />
<glyph unicode="6" horiz-adv-x="720" d="M438 378q198 162 291 162q73 0 73 -53q0 -22 -13 -60q-52 -141 -223 -292q-176 -154 -299 -154q-102 0 -102 100q0 53 29 133q52 144 170 293q114 146 236 228q113 76 173 76q52 0 52 -32q0 -38 -66 -94q-62 -52 -102 -58q-34 -5 -38 -7q-9 -5 -35 -35 q-95 -109 -146 -207zM419 170q5 -1 8 -1q29 0 80 58q48 56 65 103q9 23 1 23q-6 0 -63 -49t-59 -55q6 -19 3 -27q-7 -19 -35 -52z" />
<glyph unicode="7" horiz-adv-x="676" d="M341 312h-3q-81 7 -81 42q0 34 60 85q52 44 92 60q25 10 64 10q26 0 36 -3q48 46 108 101q-97 3 -205 0q-5 0 -16 -2.5t-16 -2.5q-32 0 -32 29q0 48 83 107q79 57 130 57h314h4l11 2q17 3 23 3q38 0 38 -28q0 -8 -4 -18q-6 -18 -42 -58q-26 -30 -116 -87q-50 -32 -88 -67 q-9 -8 -78 -78q-84 -84 -142 -176q-40 -63 -90 -170q-18 -38 -81 -84t-103 -46q-32 0 -32 23q0 11 7 30q1 4 6 11l7 14q12 20 16 29q49 112 130 217z" />
<glyph unicode="8" horiz-adv-x="705" d="M654 195q-86 -82 -220 -150q-130 -66 -199 -66q-34 0 -66 22q-38 25 -36 63q1 20 18 68q22 60 56.5 104t109.5 106q-10 19 -10 44q0 27 10 56q13 34 54 93q72 104 184 183q117 82 202 82q11 0 25 -5.5t17 -10.5q6 -8 4 -23q56 -25 56 -83q0 -26 -11 -58 q-33 -91 -165 -191q60 -29 60 -89q0 -21 -7 -42q-15 -40 -82 -103zM637 522q6 17 6 25q0 19 -15 31.5t-39 12.5q1 0 -28 -2q-26 -30 -35 -55q-4 -12 -4 -22q0 -26 31 -26h14q32 6 70 36zM424 291q-51 -22 -67 -67q-9 -24 -9 -31q0 -11 14.5 -21t29.5 -10q25 0 125 52 q6 2 13 6q1 4 -7.5 15t-13.5 13q-35 17 -65 20q-15 2 -20 23z" />
<glyph unicode="9" horiz-adv-x="701" d="M529 347q-38 -17 -77 -33q-45 -18 -76 -18q-57 0 -87 33q-26 30 -26 80q0 35 13 72q32 89 119 169q91 84 215 132q41 16 107 16q63 0 91 -12q39 -16 39 -60q0 -26 -14 -63q-1 -4 -21 -44l-14 -27q-6 -11 -6.5 -13.5t-7 -27t-7.5 -27.5l-38 -105q-1 -4 -18 -57.5 t-18 -56.5q-8 -24 -28 -73q-36 -75 -103 -144q-83 -85 -166 -103q-30 -7 -150 -7q-99 0 -114 1q-25 1 -25 34q0 9 3 16q17 48 91 102t119 54q20 0 29 -14h111q2 4 11 28q13 43 48 148zM610 597q-13 8 -58 8q-33 0 -39 -2q-11 -4 -17 -21t-6 -32q0 -39 32 -55q12 -6 17 -6 q18 3 39 14q0 4 32 94z" />
<glyph unicode=":" horiz-adv-x="454" d="M385 459q-18 0 -21.5 12.5t-6.5 24.5q-10 24 0 50q12 34 59 73.5t80 39.5q23 0 20 -32q-1 -9 5.5 -22.5t6.5 -21.5q0 -33 -54.5 -78.5t-88.5 -45.5zM262 122q-18 0 -21.5 12t-6.5 25q-9 24 0 49q12 34 59 74t80 40q24 0 21 -32q-1 -9 5.5 -22.5t6.5 -21.5 q0 -33 -54.5 -78.5t-89.5 -45.5z" />
<glyph unicode=";" horiz-adv-x="441" d="M334 425q-23 0 -24 17q-3 39 10 74.5t62.5 76t82.5 40.5q23 0 24 -17q2 -46 -7 -73q-15 -39 -67.5 -78.5t-80.5 -39.5zM332 72q-26 -42 -80 -94q-69 -65 -111 -65q-25 0 -25 21q0 7 4 17q8 22 40 55.5t40 56.5q5 13 7.5 46t5.5 41q13 35 59 75q50 44 87 44q19 0 22 -15 v-33q0 -39 -15 -79q-13 -35 -34 -70z" />
<glyph unicode="&#x3c;" horiz-adv-x="726" d="M897 712q-125 -101 -291 -223q-14 -9 -102 -65q40 -46 57 -69q29 -39 47 -76q10 -20 48 -91q15 -29 22 -51q3 -9 -3 -26q-16 -45 -80.5 -94.5t-109.5 -49.5q-22 0 -26 8q-35 67 -69 134q-42 80 -84 124q-21 21 -41 42q-27 32 -27 54q0 5 2 10q28 78 179 161 q77 42 202 135q172 129 200 149q50 34 92 34q33 0 33 -27q0 -7 -3 -16q-14 -36 -46 -63z" />
<glyph unicode="=" horiz-adv-x="763" d="M627 410q-3 0 -75.5 4t-75.5 4h-127q-30 0 -30 30q0 9 3 18q16 44 85.5 95.5t114.5 52.5q32 1 71 1q47 0 200 -5q39 -2 39 -34q0 -47 -80 -107q-76 -59 -125 -59zM543 163q-2 0 -75 5.5t-77 5.5q-3 0 -69 -5.5t-71 -5.5q-60 0 -60 28q0 8 4 18q15 41 80 93q69 55 118 57 q30 2 102 8q64 5 67 5q1 0 50 -4q53 -3 77 -4q34 -1 46 -4q22 -7 22 -27q0 -9 -5 -21q-18 -50 -88.5 -99.5t-120.5 -49.5z" />
<glyph unicode="&#x3e;" horiz-adv-x="683" d="M649 337q-57 -48 -176 -151q-42 -41 -125 -119q-79 -72 -130 -72q-28 0 -28 29q0 8 2 15q13 33 113 126l63 60q20 18 98 84q27 21 54 45q0 -2 -7 13q-12 31 -37 93q-20 45 -39 90q-28 71 -28 101q0 8 2 13q14 39 69 85q59 48 103 48q12 0 16 -1q7 -4 16 -29l10 -36 q29 -69 58 -139q47 -113 47 -147q0 -6 -2 -10q-15 -43 -79 -98z" />
<glyph unicode="?" horiz-adv-x="683" d="M526 605q0 1 1 1q-1 -16 -12 -35q-23 -38 -77 -75t-88 -37q-35 0 -35 33q0 12 5 24q13 36 75 102q172 182 318 182q33 0 65 -21q37 -26 37 -63q0 -14 -5 -28q-26 -73 -211 -244q24 10 42 10q30 0 30 -26q0 -7 -3 -16q-6 -18 -38 -53q-44 -48 -133 -84q-77 -31 -126 -31 q-38 0 -38 34q0 14 6 30q12 33 51 74q34 33 69 65l80 76q65 61 68 72q5 12 -15 22q-16 8 -26 8q-25 0 -40 -20zM288 -4q-29 0 -29 30q0 42 95 111q91 67 135 67q31 0 31 -25q0 -45 -95 -116q-92 -67 -137 -67z" />
<glyph unicode="@" horiz-adv-x="926" d="M387 255q23 -116 104 -116q38 0 120 28t139 113q17 25 40 68q5 15 8 22q14 27 57 56t66 29t23 -25q0 -14 -7 -34q-2 -5 -25 -41t-30 -49q-57 -100 -176 -180q-106 -70 -221 -101q-83 -22 -105 -22q-34 0 -68 17t-51 44q-38 59 -38 153q0 32 28 109q42 116 132 222 q14 21 46 61q62 72 197 154q59 37 103 48q31 9 80 9q55 0 95 -22q49 -26 49 -76q0 -25 -11 -55q-14 -39 -41 -82q-57 -88 -138 -147q-5 -1 -9 -3q0 -1 1 -36t-1 -41q-12 -31 -57 -64.5t-73 -33.5q-24 0 -26 19q-1 7 -3 54q-25 -13 -81 -41q-4 -2 -29 -22q-10 -7 -35 -18.5 t-36 -11.5q-8 0 -27 15zM753 538q24 31 37 67q4 12 4 23q0 31 -37 47q-27 11 -59 11q-51 0 -90 -24q-32 -19 -83 -73q-14 -23 -68 -94q-33 -43 -57 -109q-20 -54 -19 -84l2 -16q8 19 31 40q16 16 42 56q44 71 62 97q37 55 70 95q22 25 81 53q18 9 37 18t34 9q7 0 14 -2 q10 -14 6 -30q-9 -40 -7 -84z" />
<glyph unicode="A" horiz-adv-x="751" d="M562 -14q-29 0 -29 28q0 5 2 12q8 24 10 55q2 21 0 55q-1 42 -1 52q-204 -102 -239 -129q-55 -42 -72 -52q-41 -24 -79 -24t-38 30q0 11 6 28q10 29 29 58q55 84 186 271q98 140 194 262q134 168 223 168q31 0 31 -25q0 -9 -5 -26q-3 -12 -3 -29v-29q-18 -265 -19 -482 q0 -44 -13 -81q-15 -41 -74 -90q-63 -52 -109 -52zM557 467q-105 -147 -166 -237q54 29 160 84q3 68 6 153z" />
<glyph unicode="B" horiz-adv-x="761" d="M566 751l45 16q90 33 182 33q47 0 99 -21q72 -28 72 -78q0 -44 -60 -114q-45 -52 -96 -91q82 -44 82 -103q0 -20 -8 -43q-25 -66 -107 -141q-77 -69 -176 -120q-47 -25 -113 -48q-73 -25 -121 -31q-35 -1 -113 -6q-1 -1 -4 -3q-32 -19 -59 -19q-33 0 -33 24q0 7 3 15 q-36 15 -36 36q0 9 5 23q9 25 44 60q17 17 35 33q11 33 33 97q19 56 39 111q21 63 46 161q-5 2 -14 9q-9 14 -2 35q16 20 40 55q27 48 86 91t100 43q26 0 31 -24zM631 614q-48 0 -102 -14q-9 -32 -28 -96q18 5 102 21q62 12 103 29q36 15 39 23q4 11 -27 23q-19 8 -35.5 11 t-51.5 3zM653 293q-39 29 -68.5 38.5t-77.5 9.5q-44 0 -67 -6q-29 -93 -43 -143q32 -4 44 -4q18 0 86 8q20 2 68 19q66 22 74 43q6 18 -16 35z" />
<glyph unicode="C" horiz-adv-x="661" d="M725 248q-40 -65 -68 -96q-42 -47 -97 -74q-93 -46 -194 -77q-44 -13 -84 -13q-122 0 -122 123q0 61 29 139q45 125 151 264q122 160 259 245q61 38 102 38q58 0 94 -81q5 -11 11 -21q7 -13 7 -24q0 -40 -66 -91.5t-107 -51.5q-20 0 -32 17q0 1 -17 33q-11 23 -24 36 q-125 -127 -179 -276q-25 -67 -25 -107q0 -68 66 -68h3.5h7.5q17 0 68 19q16 4 42 16q10 13 28 33q24 23 60 45q43 25 68 25q27 0 27 -25q0 -14 -8 -28z" />
<glyph unicode="D" horiz-adv-x="782" d="M936 509q-80 -113 -299 -269q-211 -150 -342 -195q-19 -6 -70 -32q-22 -12 -44 -12q-33 0 -33 30q0 13 10 48q30 108 64 211l120 330q3 10 8 32q-1 3 -4 11q1 4 1 6l1 4q1 7 3 13q16 44 81 92t110 48q33 0 33 -28q0 -6 -1 -16q81 24 167 24q83 0 170 -23q121 -32 118 -90 q-1 -28 -11.5 -57t-36.5 -66q-22 -31 -45 -61zM808 554q7 39 -95 56q-59 10 -129 10q-48 0 -67 -6l-65 -179q-9 -24 -67 -217l4 2q68 20 199 111q135 94 176 154q17 20 40 58q1 3 4 11z" />
<glyph unicode="E" horiz-adv-x="750" d="M800 630q-3 0 -26 1.5t-25 1.5q-66 0 -226 -14l-31 -85q11 -1 17 -1q11 2 23 5q152 35 261 35q65 0 65 -28q0 -33 -56 -83q-48 -43 -87 -60q-25 -11 -52.5 -12t-54.5 -1q-75 -8 -85 -9q-47 -7 -85 -16q-14 -44 -27 -136q-5 -31 -2 -48q2 -7 12 -7q25 0 114 27 q52 17 74 29q4 2 61 43q15 10 41 20t39 10q28 0 28 -30q0 -39 -68 -99q-56 -51 -150 -97q-46 -23 -144 -53q-109 -34 -154 -34q-62 0 -70 39q-8 42 6 114q2 23 10 72q18 71 39 128l120 332q11 29 63.5 72t82.5 51q26 7 34 7q24 0 29 -14v-3q3 1 11 3l28 4q42 7 60 9 q160 13 230 13q50 0 59 -3q24 -7 24 -28q0 -8 -4 -17q-16 -46 -79.5 -92t-104.5 -46z" />
<glyph unicode="F" horiz-adv-x="649" d="M587 801q5 1 68 9l48 6q22 3 25 3h138q1 0 5 1l10 1q18 3 22 3q38 0 38 -27q0 -8 -4 -18q-13 -37 -69 -83q-59 -49 -107 -56q-40 -6 -48 -6h-135q-2 0 -20 -2q-21 -3 -33 -4q-13 -44 -41 -137q132 52 269 52q45 0 45 -28q0 -7 -3 -17q-14 -36 -67.5 -81.5t-89.5 -52.5 q-21 -4 -101 -9q-61 -4 -105 -20l-82 -225q-4 -11 -13 -18q-22 -37 -75 -72q-55 -38 -92 -38q-11 0 -21.5 7.5t-10.5 18.5q0 4 2 8l101 278q1 3 20 69.5t21 69.5l95 262q11 30 65 74q51 43 82 51q25 7 34 7q30 0 30 -18q0 -4 -1 -8z" />
<glyph unicode="G" horiz-adv-x="805" d="M660 42q-23 0 -31 17q-51 -27 -136 -56q-95 -32 -138 -32q1 0 -56 11q-18 3 -49 13q-64 43 -64 137q0 60 24 126q17 47 65 128q110 183 308 303q180 109 328 109q89 0 89 -52q0 -12 -6 -28q-15 -41 -77 -90t-106 -49q-29 0 -30 28q0 11 -24 11q-73 0 -148 -39 q-78 -41 -119 -103q-38 -58 -40 -61q-18 -31 -31 -65q-18 -50 -18 -96q0 -79 56 -91q50 -10 54 -10q24 0 76 18q49 16 81 34l29 77h-73q-17 0 -75 -14q-13 -3 -25 -3q-45 0 -45 30q0 9 4 19q14 38 73.5 86t103.5 51q179 11 169 11q9 0 32 1q16 1 26 0q14 -1 30 -8 q10 -4 10 -17q0 -15 -13 -44q-9 -19 -18 -39l-43 -119q-4 -10 -7.5 -29.5t-6.5 -29.5q-15 -41 -76 -88t-103 -47z" />
<glyph unicode="H" horiz-adv-x="871" d="M637 -22q-33 0 -33 31l6 45q8 54 32 136q21 68 41 136l-253 -7l-22 -78l-48 -132q-15 -42 -82 -93t-110 -51q-33 0 -33 23q0 15 15.5 47t28.5 73q62 214 126 433q4 10 45 118q17 42 83.5 91.5t109.5 49.5q29 0 29 -22q0 -15 -14 -44q-10 -21 -50 -140q-11 -31 -27 -93 q16 -2 18 -2q4 0 64 5t63 5h120q18 47 36 116q0 12 3 35q15 41 79.5 92t109.5 51q25 0 30 -18q7 -25 -4 -66q-15 -60 -42 -133l-46 -126q-7 -20 -37 -122q-35 -117 -41 -151q-2 -26 -10 -69q-16 -43 -79.5 -91.5t-107.5 -48.5z" />
<glyph unicode="I" horiz-adv-x="678" d="M499 0q-20 -7 -44 -6h-41q-159 -16 -210 -16q-79 0 -79 34q0 8 3 16q17 46 83 93q63 44 101 44q1 0 28 -3q1 8 2 11l49 134q24 79 73 236q9 28 29 85q-19 -1 -50.5 -4t-33.5 -3q-33 0 -33 28q0 40 67 95q62 50 106 57q64 12 179 12q7 0 33 1q20 1 32 0q18 -1 31 -5.5 t13 -18.5q0 -43 -63 -96q-57 -49 -102 -59l-55 -181l-60 -167q-2 -7 -5 -23q-8 -29 -28 -93l70 4q29 0 39 -2q20 -5 20 -23q0 -9 -4 -20q-13 -35 -59 -74.5t-91 -55.5z" />
<glyph unicode="J" horiz-adv-x="748" d="M864 650q-19 -75 -50 -218q-18 -82 -40 -141q-44 -121 -139 -209q-111 -102 -239 -102q-76 0 -148 39q-85 46 -85 113q0 19 7 40q26 70 132 163t167 93q29 0 29 -25q0 -9 -4 -20q-16 -44 -89 -96q-10 -7 -23 -21q-2 -6 -2 -11q0 -28 50 -58q35 -20 54 -25q38 -8 65 -10 q11 19 15 32q7 19 51 203q45 193 61 243h-27q-3 0 -25 -4l-54 -8q-80 -13 -85 -13q-37 0 -37 27q0 8 4 17q17 49 90 98q69 47 109 47q3 0 10.5 -1t11.5 -1q2 0 14 2l34 5q55 9 75 12q9 1 64 1q97 0 120 -18q14 -11 4 -38t-45.5 -60.5t-74.5 -55.5z" />
<glyph unicode="K" horiz-adv-x="795" d="M627 -33q-26 0 -32.5 22.5t-11.5 43.5q-2 10 -8 36q-14 58 -60 134q-43 71 -85 112q-6 -23 -23 -73q-17 -37 -43 -95q0 -6 -2 -17q-17 -42 -81 -90t-105 -48q-31 0 -31 25q0 34 32 86q23 56 48 136q48 151 97 309q0 4 51 132q16 40 76.5 86t103.5 46q31 0 31 -25 q0 -5 -2 -11l-65 -180q-8 -21 -27 -90q56 46 171 134l129 105q76 62 121 62q31 0 31 -24q0 -39 -63 -96q-57 -52 -252 -202q61 -54 112.5 -148t62.5 -170q1 -8 6.5 -21t5.5 -21q0 -9 -5 -21q-15 -42 -78.5 -89.5t-103.5 -47.5z" />
<glyph unicode="L" horiz-adv-x="704" d="M554 0q-3 0 -42 4t-42 4q-47 0 -110 -12q-57 -12 -113 -24q-66 -13 -71 -13q-41 0 -38 32q1 23 17 78t47 163q56 186 116 349q13 38 40 110q18 42 82.5 89t106.5 47q33 0 33 -26q0 -5 -2 -11l-54 -148q-40 -110 -89 -276q-11 -42 -33 -123q-9 -28 -25 -83q19 4 54 11 q109 30 204 30q117 0 117 -40q0 -45 -75.5 -103t-122.5 -58z" />
<glyph unicode="M" horiz-adv-x="1046" d="M819 -33q-38 0 -32 32q12 41 34 124q3 24 14 79q8 37 28 114q11 35 34 106q-48 -60 -105 -150q-48 -77 -96 -153q-24 -38 -81 -75t-92 -37q-23 0 -27 2q-9 4 -9 24q-2 88 23 388q-100 -151 -140 -244q-1 -3 -3 -6l-3 -4q-67 -89 -86 -108q-62 -63 -123 -63q-31 0 -31 26 q0 10 4 23q3 8 32 65q31 63 47 90q36 62 152 240q61 95 91 138q54 75 105 132q49 54 111 78q13 5 37 14q44 16 57 16q32 0 32 -26q0 -12 -17 -59t-28 -105q-10 -53 -17 -216q44 48 128 146q55 69 138 140q109 94 169 94q35 0 35 -27q0 -5 -2 -10l-57 -159q-5 -16 -13 -46 q-13 -37 -36 -109q-10 -43 -38 -156q-1 -13 -5 -39q-20 -85 -36.5 -130.5t-77.5 -95.5q-66 -53 -116 -53z" />
<glyph unicode="N" horiz-adv-x="830" d="M555 -9q-4 -1 -9 -1q-28 0 -35 25t-13 49q-24 57 -82 240q-23 -67 -45 -142q-2 -21 -11 -62q-17 -44 -77.5 -89.5t-101.5 -45.5q-37 0 -37 31q0 12 11 54q37 137 100 311q1 2 41 102t41 102l48 133q1 2 16 23q27 37 78 71q55 37 91 37q30 0 30 -24q0 -14 -10.5 -32.5 t-10.5 -33.5q4 -156 89 -403q10 26 14 36l118 323q1 4 16 26q28 39 80.5 73.5t87.5 34.5q28 0 28 -19q0 -13 -13 -47q-127 -318 -221 -606q2 -22 0 -29q-17 -45 -77 -97q-66 -56 -116 -56q-23 0 -30 16z" />
<glyph unicode="O" horiz-adv-x="862" d="M528 45q-139 -67 -235 -67q-125 0 -125 117q0 49 23 110q70 195 250 379q191 195 361 221q3 0 46 9q29 6 46 6q67 0 108 -42.5t41 -113.5q0 -28 -7 -58q-10 -43 -23 -79q-49 -136 -168 -258q-130 -134 -317 -224zM789 616q-23 20 -52 20q-39 0 -94 -26q-16 -8 -35 -14 q-46 -16 -122 -139q-60 -99 -82 -158q-15 -43 -15 -75q0 -63 62 -63q50 0 135 40t125 83q60 65 90 148q20 54 20 100q0 56 -32 84z" />
<glyph unicode="P" horiz-adv-x="705" d="M576 799q121 33 190 33q148 0 195 -81q11 -18 11 -38q0 -16 -7 -36q-34 -94 -175 -197q-125 -92 -247 -133q-36 -12 -121 -31q-26 -89 -54 -183q-17 -46 -77 -96q-63 -52 -110 -52q-33 0 -33 28q0 11 4 27q40 155 76 254l51 139q1 2 8 29t8 30l47 128q-3 22 -1 25 q8 12 22 35q25 47 84 90.5t100 43.5q24 0 29 -15zM497 490q63 7 128 25q15 5 76 34q21 10 28 14q17 10 20 19q5 13 -21 32q-19 14 -32 19q-23 7 -40 8q-64 5 -53 5q-9 0 -76 -11q-29 -89 -46 -136q8 -2 16 -9z" />
<glyph unicode="Q" horiz-adv-x="881" d="M634 31q-6 -4 -23 -12q-103 -48 -187 -48q-116 0 -183 60q-64 57 -64 151q0 49 20 103q13 37 58 112q77 131 224 256q161 137 293 161q65 13 73 13q7 0 17.5 -7t14.5 -7q36 -1 62 -14q110 -58 110 -178q0 -64 -33 -154q-19 -53 -56 -121q-47 -88 -89 -132q-6 -6 -19 -18 l-7 -7q-2 -4 15 -15.5t17 -27.5q0 -8 -4 -16q-16 -47 -82.5 -93t-107.5 -46q-29 0 -49 40zM786 337q16 35 19 43q32 89 26 123q-26 130 -146 130q-6 0 -26.5 -6t-28.5 -6q-3 0 -15 5q-14 0 -65 -46q-42 -37 -82 -95t-57 -106q-13 -35 -13 -69q0 -67 47 -109q50 -46 139 -45 q-8 20 -18 40q-8 15 -17 31q-10 20 -10 36q0 44 77 101q74 56 121 56q30 0 30 -24q0 -6 -2 -15q5 -16 16 -36z" />
<glyph unicode="R" horiz-adv-x="797" d="M621 -16q-34 0 -44 57l-14 84q-12 33 -35 66q-28 42 -52.5 52t-71.5 22q-1 -2 -45 -123q0 -16 -4 -25q-15 -43 -79 -94q-66 -54 -112 -54q-11 0 -22.5 7.5t-11.5 19.5q0 3 1 7l135 370q13 42 28 90l33 89q-24 5 -24 26q0 8 4 18q11 31 40 56l7 7q11 9 24 32t29 39 q30 30 69 53q43 25 72 25q27 0 33 -19q73 27 158 27q77 0 141 -19q85 -24 111 -75q4 -8 4 -19q0 -19 -10 -45q-25 -68 -105 -142q-76 -70 -175 -122q47 -57 60 -83q20 -37 30 -104q3 -20 13 -57q4 -9 -2 -27q-16 -43 -78.5 -91t-106.5 -48zM532 629l-5 -14q-7 -26 -22 -74 l-26 -72q23 9 52 10q39 3 50 5q28 5 70 20q35 14 70 27q51 19 51 39q0 31 -107 54q-40 8 -86 8q3 0 -47 -3z" />
<glyph unicode="S" horiz-adv-x="714" d="M438 456q15 3 109 26q116 27 121 27q60 0 107 -38q53 -41 56 -107q2 -24 -13 -64q-24 -66 -102 -143q-30 -30 -78 -65q-51 -36 -84 -50q-60 -25 -144 -45q-88 -21 -141 -21q-98 0 -98 56q0 13 6 28q16 46 93 115q84 75 139 75q30 0 30 -25q0 -9 -5 -21q-7 -21 -27 -43h23 q34 0 94 14q52 12 78 23q5 13 5 28q0 38 -32 68t-65 30q-30 -9 -62 -18q-131 -36 -176 -36q-56 0 -56 46q0 20 12 52q45 125 213 266q157 132 295 180q29 10 95 10q106 0 106 -61q0 -18 -8 -41q-4 -10 -12 -29q-21 -42 -81 -84t-98 -42q-32 0 -32 21q0 8 4.5 21t4.5 19 q0 11 -29 11h-8.5h-6.5q-34 0 -45 -3q-42 -11 -111 -76t-77 -104z" />
<glyph unicode="T" horiz-adv-x="854" d="M922 626q-7 0 -18 3.5t-16 3.5q-9 1 -34 1q-17 0 -91 -3l-30 -3q-28 -91 -58 -187l-39 -107q-1 -3 -23 -71t-23 -71q-13 -36 -29.5 -78.5t-84 -93.5t-108.5 -51q-32 0 -32 23q0 24 11 42t25 57q1 3 14 46.5t15 46.5l38 106q1 3 29 93.5t29 93.5l51 139h-15q-2 0 -119 -17 t-121 -17q-33 0 -33 31q0 41 72 98q67 53 112 60q62 10 186 26q81 7 237 16q132 8 146 8q48 0 65 -3q40 -8 40 -33q0 -44 -77 -102q-73 -57 -119 -57z" />
<glyph unicode="U" horiz-adv-x="805" d="M609 -3q-31 0 -31 23q0 -2 14 57q-74 -47 -160.5 -77t-147.5 -30q-69 0 -95 25q-22 22 -22 69q0 63 47 190q34 84 84 208q23 59 46 117q31 76 55 114q22 35 76.5 72.5t89.5 37.5q30 0 30 -24q0 -9 -6 -26q-1 -3 -84 -204t-84 -205q-40 -109 -40 -150q0 -24 10 -35 q7 -7 49 -7q86 0 122.5 35t74.5 54q101 310 119 360q11 31 34 91q16 37 73 80q61 46 102 46q32 0 32 -25q0 -5 -2 -10l-44 -122q-9 -29 -24 -76q-26 -73 -65 -194q-34 -120 -70 -246q-17 -47 -72 -95q-61 -53 -111 -53z" />
<glyph unicode="V" horiz-adv-x="672" d="M889 692q-120 -172 -174 -265q-45 -78 -91 -157q-53 -92 -83 -157q-20 -43 -80.5 -89.5t-101.5 -46.5q-19 0 -26 9q-4 6 -7 28q-13 112 -13 191q1 41 -1 145q-1 87 0 139q3 77 11 148q-2 9 0 30q16 45 81 91.5t106 46.5q30 0 30 -21q0 -8 -5 -29q-5 -25 -8 -76 q-4 -82 -1 -310q63 100 115 181q21 30 66 95q58 88 117 128q48 32 81 32q31 0 31 -23q0 -9 -5 -23.5t-42 -66.5z" />
<glyph unicode="W" horiz-adv-x="924" d="M489 365q37 56 88 143q80 138 84 144q21 36 77 73.5t92 37.5q30 0 30 -24q0 -6 -1 -20q-4 -31 -16 -93q-31 -163 -40 -259q52 79 79 128q35 73 109 221q16 29 60 70q49 44 87 57q28 10 40 10q32 0 32 -24q0 -9 -5 -24q-14 -22 -37 -62q-27 -61 -88 -182q-7 -13 -101 -160 q-34 -53 -180 -271q-28 -43 -86 -84q-62 -44 -101 -44q-28 0 -37 22q0 1 -8 46q-2 7 1.5 22.5t3.5 19.5q2 24 20 179l-102 -152q-69 -95 -128 -128q-51 -29 -78 -29q-30 0 -30 23q0 4 1 13t1 14q-3 108 9 169l34 230q21 138 53 226q4 10 11 28q21 41 81 82t95 41 q32 0 32 -28q0 -16 -11 -43q-24 -65 -45 -186q-5 -29 -26 -186z" />
<glyph unicode="X" horiz-adv-x="841" d="M649 -8q-22 0 -28 7q-19 25 -43 104q-11 36 -78 208q-81 -70 -109 -99q-42 -42 -95 -114q-32 -43 -84 -81q-58 -41 -99 -41q-31 0 -31 28q0 9 3 18q8 22 29 49q19 24 38 47q58 75 90 107q24 24 203 183l20 16q3 7 -43 108q-26 55 -52 109q-6 16 1 34q15 44 84.5 95.5 t117.5 51.5q18 0 37.5 -7t23 -13t3.5 -13q0 -13 -14 -37q31 -69 58 -138q74 60 154 111q107 68 148 68q34 0 34 -25q0 -9 -5 -22q-25 -68 -172 -146q-30 -16 -79 -55q-45 -35 -47 -41q1 2 19 -45l34 -84q15 -41 51 -155q4 -13 14 -27t19 -27q5 -9 -1 -26 q-17 -47 -86.5 -97.5t-114.5 -50.5z" />
<glyph unicode="Y" horiz-adv-x="691" d="M597 302q-16 -51 -44 -146q-2 -15 -9 -44q-15 -42 -79.5 -91.5t-105.5 -49.5q-32 0 -32 26q0 3 18 67q10 29 27 85q8 38 34 115q-140 16 -140 143q0 59 30 142q1 3 59 135q19 42 81 89t103 47q34 0 34 -30q0 -8 -3 -16q-11 -15 -27 -42q-17 -32 -38 -90q-24 -64 -24 -108 q0 -91 101 -91q67 0 91 25q29 29 61 117q7 21 7 70q0 4 6 20q15 42 75 91t105 49q8 0 19 -5t11 -12q7 -62 -16 -125q-93 -255 -344 -371z" />
<glyph unicode="Z" horiz-adv-x="903" d="M726 -12q-31 0 -46 21q-9 12 -150 12q-101 0 -100 1q-29 -3 -186 -22q-19 -2 -72 -11l-34 -6q-15 -2 -19 -2q-36 0 -36 29q0 9 4 20q10 29 52 76q36 42 70 70q14 12 40 34q152 142 500 424q-45 -1 -87 -5q-35 -3 -117 -12q-72 -7 -74 -7q-53 0 -53 26q0 8 4 19 q15 43 82 94t111 51q5 0 13 -2.5t12 -2.5q-5 0 37 4l134 14t146 7t136 -11q14 -3 19 -17q4 -14 -1 -27q-10 -26 -50 -63q-34 -33 -64 -50q-19 -11 -51 -21q-39 -12 -52 -18q-34 -16 -261 -207q-197 -167 -258 -223q71 9 213 22q21 1 102 1q99 0 111 -1q23 -4 68 -12 q7 -2 21 -17q27 -12 26 -32q0 -5 -5 -19q-16 -44 -80.5 -90.5t-104.5 -46.5z" />
<glyph unicode="[" horiz-adv-x="595" d="M456 15q-21 -8 -34 -9q-32 0 -95 -4q-22 -2 -74 -9l-33 -5q-16 -2 -19 -2q-10 0 -23.5 10.5t-13.5 22.5q0 4 1 7l40 110l3 14l7 34q18 94 72 243q49 134 90 231q11 26 56.5 65.5t80.5 52.5q40 14 58 14h134q4 0 15 3.5t16 3.5q30 0 30 -24q0 -42 -65 -96 q-60 -51 -105 -59q-28 -6 -74 -6q-11 -27 -33 -87q-49 -136 -79 -282l-25 -74q73 13 154 15q5 0 16.5 3.5t17.5 3.5q28 0 28 -25q0 -39 -55 -90q-48 -45 -91 -61z" />
<glyph unicode="\" horiz-adv-x="757" d="M561 -20q-24 0 -29 11q-34 72 -50 142q-17 52 -47 160q-32 126 -69 291q-15 63 -9 78q15 40 75.5 87t102.5 47q26 0 30 -12q9 -23 16 -60q11 -58 12 -62q7 -29 23 -93l48 -212q34 -133 73 -200q10 -18 2 -42q-16 -42 -76.5 -88.5t-101.5 -46.5z" />
<glyph unicode="]" horiz-adv-x="621" d="M575 179q-7 -20 -24 -60q-22 -44 -80 -84.5t-99 -40.5q-3 0 -64 4.5t-64 4.5q-2 0 -34.5 -2.5t-34.5 -2.5q-31 0 -31 28q0 42 74 100q71 55 115 55h81l31 86q6 23 19 65l104 286q-4 0 -11.5 2t-12.5 2h-95q-26 0 -26 28q0 9 3 16q14 39 74 85.5t99 47.5q29 1 52 1 q41 0 73 -4q65 -8 65 -37q0 -3 -1 -6l-204 -559q-1 -3 -9 -15z" />
<glyph unicode="^" horiz-adv-x="642" d="M600 489q-17 0 -41 33q-17 23 -27 43q-4 10 -18 43q-40 -31 -81 -62q-52 -36 -85 -36q-30 0 -30 23q0 32 68 88l96 74q17 16 51 46q71 57 118 57q20 0 24 -8q8 -21 24 -64q24 -53 48 -82q17 -19 9 -42q-13 -35 -66.5 -74t-89.5 -39z" />
<glyph unicode="_" horiz-adv-x="651" d="M531 -22q-6 0 -12 4h-198q-3 0 -20 2t-20 2h-231q-14 0 -21 11.5t-2 24.5q12 33 68 70.5t94 37.5h236q3 0 20 -2t19 -2h203q15 0 22.5 -13.5t3.5 -26.5q-11 -31 -68 -69.5t-94 -38.5z" />
<glyph unicode="`" horiz-adv-x="531" d="M459 528q-15 0 -22 11q-2 3 -11 24q-8 16 -15 49q-2 67 5 87q13 35 64.5 75t86.5 40q28 0 28 -29q0 5 -3 -34q-2 -24 23 -84q3 -8 -3 -24q-12 -36 -65.5 -75.5t-87.5 -39.5z" />
<glyph unicode="a" horiz-adv-x="751" d="M562 -14q-29 0 -29 28q0 5 2 12q8 24 10 55q2 21 0 55q-1 42 -1 52q-204 -102 -239 -129q-55 -42 -72 -52q-41 -24 -79 -24t-38 30q0 11 6 28q10 29 29 58q55 84 186 271q98 140 194 262q134 168 223 168q31 0 31 -25q0 -9 -5 -26q-3 -12 -3 -29v-29q-18 -265 -19 -482 q0 -44 -13 -81q-15 -41 -74 -90q-63 -52 -109 -52zM557 467q-105 -147 -166 -237q54 29 160 84q3 68 6 153z" />
<glyph unicode="b" horiz-adv-x="761" d="M566 751l45 16q90 33 182 33q47 0 99 -21q72 -28 72 -78q0 -44 -60 -114q-45 -52 -96 -91q82 -44 82 -103q0 -20 -8 -43q-25 -66 -108 -141q-76 -69 -175 -120q-47 -25 -113 -48q-73 -25 -121 -31q-35 -1 -113 -6q-1 -1 -4 -3q-32 -19 -59 -19q-33 0 -33 24q0 7 3 15 q-36 15 -36 36q0 9 5 23q9 25 44 60q17 17 35 33q11 33 33 97q19 56 39 111q21 63 46 161q-5 2 -14 9q-9 14 -2 35q16 20 40 55q27 48 86 91t100 43q26 0 31 -24zM631 614q-48 0 -102 -14q-9 -32 -28 -96q18 5 102 21q63 12 103 29q36 15 39 23q4 11 -27 23q-19 8 -35.5 11 t-51.5 3zM653 293q-39 29 -68.5 38.5t-77.5 9.5q-44 0 -67 -6q-29 -93 -43 -143q32 -4 44 -4q18 0 86 8q20 2 68 19q66 22 74 43q6 18 -16 35z" />
<glyph unicode="c" horiz-adv-x="661" d="M725 248q-40 -65 -68 -96q-42 -47 -97 -74q-93 -46 -194 -77q-44 -13 -84 -13q-122 0 -122 123q0 61 29 139q45 125 151 264q122 160 259 245q61 38 102 38q58 0 94 -81q5 -11 11 -21q7 -13 7 -24q0 -39 -66 -91t-107 -52q-20 0 -32 17q0 1 -17 33q-11 23 -24 36 q-125 -127 -179 -276q-25 -67 -25 -107q0 -68 66 -68h3.5h7.5q17 0 68 19q16 4 42 16q10 13 28 33q24 23 60 45q43 25 68 25q27 0 27 -25q0 -14 -8 -28z" />
<glyph unicode="d" horiz-adv-x="782" d="M936 509q-80 -113 -299 -269q-211 -150 -342 -195q-19 -6 -70 -32q-22 -12 -44 -12q-33 0 -33 30q0 13 10 48q30 108 64 211l120 330q3 10 8 32q-1 3 -4 11q1 4 1 6l1 4q1 7 3 13q16 44 81 92t110 48q33 0 33 -28q0 -6 -1 -16q81 24 167 24q83 0 170 -23q121 -32 118 -90 q-1 -28 -11.5 -57t-36.5 -66q-22 -31 -45 -61zM808 554q7 39 -95 56q-59 10 -129 10q-48 0 -67 -6l-65 -179q-9 -24 -67 -217l4 2q68 20 199 111q135 94 176 154q17 20 40 58q1 3 4 11z" />
<glyph unicode="e" horiz-adv-x="750" d="M800 630q-3 0 -26 1.5t-25 1.5q-66 0 -226 -14l-31 -85q11 -1 17 -1q11 2 23 5q152 35 261 35q65 0 65 -28q0 -33 -56 -83q-48 -43 -87 -60q-25 -11 -52.5 -12t-54.5 -1q-75 -8 -85 -9q-47 -7 -85 -16q-14 -44 -27 -136q-5 -31 -2 -48q2 -7 12 -7q25 0 114 27 q52 17 74 29q4 2 61 43q15 10 41 20t39 10q28 0 28 -30q0 -39 -68 -99q-56 -51 -150 -97q-46 -23 -144 -53q-109 -34 -154 -34q-62 0 -70 39q-8 42 6 114q2 23 10 72q18 71 39 128l120 332q11 29 63.5 72t82.5 51q26 7 34 7q24 0 29 -14v-3q3 1 11 3l28 4q42 7 60 9 q160 13 230 13q50 0 59 -3q24 -7 24 -28q0 -8 -4 -17q-16 -46 -79.5 -92t-104.5 -46z" />
<glyph unicode="f" horiz-adv-x="649" d="M587 801q7 1 68 9q69 9 73 9h138q1 0 5 1l10 1q18 3 22 3q38 0 38 -27q0 -8 -4 -18q-13 -37 -69 -83q-59 -49 -107 -56q-40 -6 -48 -6h-135q-2 0 -20 -2q-21 -3 -33 -4q-13 -44 -41 -137q132 52 269 52q45 0 45 -28q0 -7 -3 -17q-14 -36 -67.5 -81.5t-89.5 -52.5 q-21 -4 -101 -9q-61 -4 -105 -20l-82 -225q-4 -11 -13 -18q-22 -37 -75 -72q-55 -38 -92 -38q-11 0 -21.5 7.5t-10.5 18.5q0 4 2 8l101 278q1 3 20 69.5t21 69.5l95 262q11 30 65 74q51 43 82 51q25 7 34 7q30 0 30 -18q0 -4 -1 -8z" />
<glyph unicode="g" horiz-adv-x="805" d="M660 42q-23 0 -31 17q-51 -27 -136 -56q-95 -32 -138 -32q1 0 -56 11q-18 3 -49 13q-64 43 -64 137q0 60 24 126q17 47 65 128q110 183 308 303q180 109 328 109q89 0 89 -52q0 -12 -6 -28q-15 -41 -77 -90t-106 -49q-29 0 -30 28q0 11 -24 11q-73 0 -148 -39 q-78 -41 -119 -103q-38 -58 -40 -61q-18 -31 -31 -65q-18 -50 -18 -96q0 -79 56 -91q50 -10 54 -10q24 0 76 18q49 16 81 34l29 77h-73q-17 0 -75 -14q-13 -3 -25 -3q-45 0 -45 30q0 9 4 19q14 38 73.5 86t103.5 51q179 11 169 11q9 0 32 1q16 1 26 0q14 -1 30 -8 q10 -4 10 -17q0 -15 -13 -44q-9 -19 -18 -39l-43 -119q-4 -10 -7.5 -29.5t-6.5 -29.5q-15 -41 -76 -88t-103 -47z" />
<glyph unicode="h" horiz-adv-x="871" d="M637 -22q-33 0 -33 31l6 45q8 54 32 136q21 68 41 136l-253 -7l-22 -78l-48 -132q-15 -42 -82 -93t-110 -51q-33 0 -33 23q0 15 15.5 47t28.5 73q62 214 126 433q4 10 45 118q17 42 83.5 91.5t109.5 49.5q29 0 29 -22q0 -15 -14 -44q-10 -21 -50 -140q-11 -31 -27 -93 q16 -2 18 -2q4 0 64 5t63 5h120q18 47 36 116q0 12 3 35q15 41 79.5 92t109.5 51q25 0 30 -18q7 -25 -4 -66q-15 -60 -42 -133l-46 -126q-7 -20 -37 -122q-35 -117 -41 -151q-2 -26 -10 -69q-16 -43 -79.5 -91.5t-107.5 -48.5z" />
<glyph unicode="i" horiz-adv-x="500" d="M391 619l-1 1q-18 9 -6 42q17 46 91 101q71 53 111 53q26 0 28 -19q1 -19 -9 -45q-14 -36 -16 -44q-3 -12 -10.5 -37t-80.5 -245q-22 -74 -66 -212q-9 -37 -20 -80q-15 -43 -76 -96q-64 -56 -107 -56q-30 0 -30 24q0 5 2 11q8 26 24 77l75 247l45 123q16 54 46 155z" />
<glyph unicode="j" horiz-adv-x="770" d="M395 -19q-74 0 -146 39q-84 45 -84 112q0 19 7 39q26 71 131 163t165 92q29 0 29 -24q0 -10 -4 -20q-16 -44 -88 -96q-10 -7 -23 -21q-2 -5 -2 -11q0 -28 50 -57q35 -20 53 -24q37 -9 65 -11q10 19 15 32q10 27 30 115q19 85 39 171q35 148 50.5 191.5t74.5 93.5 q63 53 112 53q27 0 27 -23q0 -11 -19 -81q-14 -51 -39 -152l-30 -138q-17 -78 -38 -134q-43 -120 -138 -207q-110 -102 -237 -102z" />
<glyph unicode="k" horiz-adv-x="795" d="M627 -33q-26 0 -32.5 22.5t-11.5 43.5q-2 10 -8 36q-14 58 -60 134q-43 71 -85 112q-6 -23 -23 -73q-17 -37 -43 -95q0 -6 -2 -17q-17 -42 -81 -90t-105 -48q-31 0 -31 25q0 34 32 86q23 56 48 136q48 151 97 309q0 4 51 132q16 40 76.5 86t103.5 46q31 0 31 -25 q0 -5 -2 -11l-65 -180q-8 -21 -27 -90q56 46 171 134l129 105q76 62 121 62q31 0 31 -24q0 -39 -63 -96q-57 -52 -252 -202q61 -54 112.5 -148t62.5 -170q1 -8 6.5 -21t5.5 -21q0 -9 -5 -21q-15 -42 -78.5 -89.5t-103.5 -47.5z" />
<glyph unicode="l" horiz-adv-x="704" d="M554 0q-3 0 -42 4t-42 4q-47 0 -110 -12q-57 -12 -113 -24q-66 -13 -71 -13q-41 0 -38 32q1 23 17 78t47 163q56 186 116 349q13 38 40 110q18 42 82.5 89t106.5 47q33 0 33 -26q0 -5 -2 -11l-54 -148q-40 -110 -89 -276q-11 -42 -33 -123q-9 -28 -25 -83q19 4 54 11 q109 30 204 30q117 0 117 -40q0 -45 -75.5 -103t-122.5 -58z" />
<glyph unicode="m" horiz-adv-x="1046" d="M819 -33q-38 0 -32 32q12 41 34 124q3 24 14 79q8 37 28 114q11 35 33 106q-47 -60 -104 -150q-48 -77 -96 -153q-24 -38 -81 -75t-92 -37q-23 0 -27 2q-9 4 -9 24q-2 88 23 388q-100 -151 -140 -244q-1 -3 -3 -6l-3 -4q-67 -89 -86 -108q-62 -63 -123 -63q-31 0 -31 26 q0 10 4 23q3 8 32 65q31 63 47 90q36 62 152 240q61 95 91 138q54 75 105 132q49 54 111 78q13 5 37 14q44 16 57 16q32 0 32 -26q0 -12 -17 -59t-28 -105q-10 -53 -17 -216q44 48 128 146q55 69 138 140q109 94 169 94q35 0 35 -27q0 -5 -2 -10l-57 -159q-5 -16 -13 -46 q-13 -37 -36 -109q-10 -43 -38 -156q-1 -13 -5 -39q-20 -85 -36.5 -130.5t-77.5 -95.5q-66 -53 -116 -53z" />
<glyph unicode="n" horiz-adv-x="830" d="M555 -9q-4 -1 -9 -1q-28 0 -35 25t-13 49q-24 57 -82 240q-23 -67 -45 -142q-2 -21 -11 -62q-17 -44 -77.5 -89.5t-101.5 -45.5q-37 0 -37 31q0 12 11 54q37 137 100 311q1 2 41 102t41 102l48 133q1 2 16 23q27 37 78 71q55 37 91 37q30 0 30 -24q0 -14 -10.5 -32.5 t-10.5 -33.5q4 -156 89 -403q10 26 14 36l118 323q1 4 16 26q28 39 80.5 73.5t87.5 34.5q28 0 28 -19q0 -13 -13 -47q-127 -318 -221 -606q2 -22 0 -29q-17 -45 -77 -97q-66 -56 -116 -56q-23 0 -30 16z" />
<glyph unicode="o" horiz-adv-x="862" d="M528 45q-139 -67 -235 -67q-125 0 -125 117q0 49 23 110q70 195 250 379q191 195 361 221q3 0 46 9q29 6 46 6q67 0 108 -42.5t41 -113.5q0 -28 -7 -58q-10 -43 -23 -79q-49 -136 -168 -258q-130 -134 -317 -224zM789 616q-23 20 -52 20q-39 0 -94 -26q-16 -8 -35 -14 q-46 -16 -122 -139q-60 -99 -82 -158q-15 -43 -15 -75q0 -63 62 -63q50 0 135 40t125 83q60 65 90 148q20 54 20 100q0 56 -32 84z" />
<glyph unicode="p" horiz-adv-x="705" d="M576 799q121 33 190 33q148 0 195 -81q11 -18 11 -38q0 -16 -7 -36q-34 -94 -175 -197q-125 -92 -247 -133q-36 -12 -121 -31q-26 -89 -54 -183q-17 -46 -77 -96q-63 -52 -110 -52q-33 0 -33 28q0 11 4 27q40 155 76 254l51 139q1 2 8 29t8 30l47 128q-3 22 -1 25 q8 12 22 35q25 47 84 90.5t100 43.5q24 0 29 -15zM497 490q63 7 128 25q15 5 76 34q21 10 28 14q17 10 20 19q5 13 -21 32q-19 14 -32 19q-23 7 -40 8q-64 5 -53 5q-9 0 -76 -11q-29 -89 -46 -136q8 -2 16 -9z" />
<glyph unicode="q" horiz-adv-x="881" d="M634 31q-6 -4 -23 -12q-103 -48 -187 -48q-116 0 -183 60q-64 57 -64 151q0 49 20 103q13 37 58 112q77 131 224 256q161 137 293 161q65 13 73 13q7 0 17.5 -7t14.5 -7q36 -1 62 -14q110 -58 110 -178q0 -64 -33 -154q-19 -53 -56 -121q-47 -88 -89 -132q-6 -6 -19 -18 l-7 -7q-2 -4 15 -15.5t17 -27.5q0 -8 -4 -16q-16 -47 -82.5 -93t-107.5 -46q-29 0 -49 40zM786 337q16 35 19 43q32 89 26 123q-26 130 -146 130q-6 0 -26.5 -6t-28.5 -6q-3 0 -15 5q-14 0 -65 -46q-42 -37 -82 -95t-57 -106q-13 -35 -13 -69q0 -67 47 -109q50 -46 139 -45 q-8 20 -18 40q-8 15 -17 31q-10 20 -10 36q0 44 77 101q74 56 121 56q30 0 30 -24q0 -6 -2 -15q5 -16 16 -36z" />
<glyph unicode="r" horiz-adv-x="797" d="M621 -16q-34 0 -44 57l-14 84q-12 33 -35 66q-28 42 -52.5 52t-71.5 22q-1 -2 -45 -123q0 -16 -4 -25q-15 -43 -79 -94q-66 -54 -112 -54q-11 0 -22.5 7.5t-11.5 19.5q0 3 1 7l135 370q13 42 28 90l33 89q-24 5 -24 26q0 8 4 18q11 31 40 56l7 7q11 9 24 32t29 39 q30 30 69 53q43 25 72 25q27 0 33 -19q73 27 158 27q77 0 141 -19q85 -24 111 -75q4 -8 4 -19q0 -19 -10 -45q-25 -68 -105 -142q-76 -70 -175 -122q47 -57 60 -83q20 -37 30 -104q3 -20 13 -57q4 -9 -2 -27q-16 -43 -78.5 -91t-106.5 -48zM532 629l-5 -14q-7 -26 -22 -74 l-26 -72q23 9 52 10q39 3 50 5q28 5 70 20q35 14 70 27q51 19 51 39q0 31 -107 54q-40 8 -86 8q3 0 -47 -3z" />
<glyph unicode="s" horiz-adv-x="714" d="M438 456q15 3 109 26q116 27 121 27q60 0 107 -38q53 -41 56 -107q2 -24 -13 -64q-24 -66 -102 -143q-30 -30 -78 -65q-51 -36 -84 -50q-60 -25 -144 -45q-88 -21 -141 -21q-98 0 -98 56q0 13 6 28q16 46 93 115q84 75 139 75q30 0 30 -25q0 -9 -5 -21q-7 -21 -27 -43h23 q34 0 94 14q52 12 78 23q5 13 5 28q0 38 -32 68t-65 30q-30 -9 -62 -18q-131 -36 -176 -36q-56 0 -56 46q0 20 12 52q45 125 213 266q157 132 295 180q29 10 95 10q106 0 106 -61q0 -18 -8 -41q-4 -10 -12 -29q-21 -42 -81 -84t-98 -42q-32 0 -32 21q0 8 4.5 21t4.5 19 q0 11 -29 11h-8.5h-6.5q-34 0 -45 -3q-42 -11 -111 -76t-77 -104z" />
<glyph unicode="t" horiz-adv-x="854" d="M922 626q-7 0 -18 3.5t-16 3.5q-9 1 -34 1q-17 0 -91 -3l-30 -3q-28 -91 -58 -187l-39 -107q-1 -3 -23 -71t-23 -71q-13 -36 -29.5 -78.5t-84 -93.5t-108.5 -51q-32 0 -32 23q0 24 11 42t25 57q1 3 14 46.5t15 46.5l38 106q1 3 29 93.5t29 93.5l51 139h-15q-2 0 -119 -17 t-121 -17q-33 0 -33 31q0 41 72 98q67 53 112 60q62 10 186 26q81 7 237 16q132 8 146 8q48 0 65 -3q40 -8 40 -33q0 -44 -77 -102q-73 -57 -119 -57z" />
<glyph unicode="u" horiz-adv-x="805" d="M609 -3q-31 0 -31 23q0 -2 14 57q-74 -47 -160.5 -77t-147.5 -30q-69 0 -95 25q-22 22 -22 69q0 63 47 190q34 84 84 208q23 59 46 117q31 76 55 114q22 35 76.5 72.5t89.5 37.5q30 0 30 -24q0 -9 -6 -26q-1 -3 -84 -204.5t-84 -204.5q-40 -109 -40 -150q0 -24 10 -35 q7 -7 49 -7q86 0 122.5 35t74.5 54q101 310 119 360q11 31 34 91q16 37 73 80q61 46 102 46q32 0 32 -25q0 -5 -2 -10l-44 -122q-9 -29 -24 -76q-26 -73 -65 -194q-34 -120 -70 -246q-17 -47 -72 -95q-61 -53 -111 -53z" />
<glyph unicode="v" horiz-adv-x="672" d="M889 692q-120 -172 -174 -265q-45 -78 -91 -157q-53 -92 -83 -157q-20 -43 -80.5 -89.5t-101.5 -46.5q-19 0 -26 9q-4 6 -7 28q-13 112 -13 191q1 41 -1 145q-1 87 0 139q3 77 11 148q-2 9 0 30q16 45 81 91.5t106 46.5q30 0 30 -21q0 -8 -5 -29q-5 -25 -8 -76 q-4 -82 -1 -310q63 100 115 181q21 30 66 95q58 88 117 128q48 32 81 32q31 0 31 -23q0 -9 -5 -23.5t-42 -66.5z" />
<glyph unicode="w" horiz-adv-x="924" d="M489 365q37 56 88 143q80 138 84 144q21 36 77 73.5t92 37.5q30 0 30 -24q0 -6 -1 -20q-4 -31 -16 -93q-31 -163 -40 -259q52 79 79 128q35 73 109 221q16 29 60 70q49 44 87 57q28 10 40 10q32 0 32 -24q0 -9 -5 -24q-14 -22 -37 -62q-27 -61 -88 -182q-7 -13 -101 -160 q-34 -53 -180 -271q-28 -43 -86 -84q-62 -44 -101 -44q-28 0 -37 22q0 1 -8 46q-2 7 1.5 22.5t3.5 19.5q2 24 20 179l-102 -152q-69 -95 -128 -128q-51 -29 -78 -29q-30 0 -30 23q0 4 1 13t1 14q-3 108 9 169l34 230q21 138 53 226q4 10 11 28q21 41 81 82t95 41 q32 0 32 -28q0 -16 -11 -43q-24 -65 -45 -186q-5 -29 -26 -186z" />
<glyph unicode="x" horiz-adv-x="841" d="M649 -8q-22 0 -28 7q-19 25 -43 104q-11 36 -78 208q-81 -70 -109 -99q-42 -42 -95 -114q-32 -43 -84 -81q-58 -41 -99 -41q-31 0 -31 28q0 9 3 18q8 22 29 49q19 24 38 47q58 75 90 107q24 24 203 183l20 16q3 7 -43 108q-26 55 -52 109q-6 16 1 34q15 44 84.5 95.5 t117.5 51.5q18 0 37.5 -7t23 -13t3.5 -13q0 -13 -14 -37q31 -69 58 -138q74 60 154 111q107 68 148 68q34 0 34 -25q0 -9 -5 -22q-25 -68 -172 -146q-30 -16 -79 -55q-45 -35 -47 -41q1 2 19 -45l34 -84q15 -41 51 -155q4 -13 14 -27t19 -27q5 -9 -1 -26 q-17 -47 -86.5 -97.5t-114.5 -50.5z" />
<glyph unicode="y" horiz-adv-x="691" d="M597 302q-16 -51 -44 -146q-2 -15 -9 -44q-15 -42 -79.5 -91.5t-105.5 -49.5q-32 0 -32 26q0 3 18 67q10 29 27 85q8 38 34 115q-140 16 -140 143q0 59 30 142q1 3 59 135q19 42 81 89t103 47q34 0 34 -30q0 -8 -3 -16q-11 -15 -27 -42q-17 -32 -38 -90q-24 -64 -24 -108 q0 -91 101 -91q67 0 91 25q29 29 61 117q7 21 7 70q0 4 6 20q15 42 75 91t105 49q8 0 19 -5t11 -12q7 -62 -16 -125q-93 -255 -344 -371z" />
<glyph unicode="z" horiz-adv-x="903" d="M726 -12q-31 0 -46 21q-9 12 -150 12q-101 0 -100 1q-29 -3 -186 -22q-19 -2 -72 -11l-34 -6q-15 -2 -19 -2q-36 0 -36 29q0 9 4 20q10 29 52 76q36 42 70 70q14 12 40 34q152 142 500 424q-45 -1 -87 -5q-35 -3 -117 -12q-72 -7 -74 -7q-53 0 -53 26q0 8 4 19 q15 43 82 94t111 51q5 0 13 -2.5t12 -2.5q-5 0 37 4l134 14t146 7t136 -11q14 -3 19 -17q4 -14 -1 -27q-10 -26 -50 -63q-34 -33 -64 -50q-19 -11 -51 -21q-39 -12 -52 -18q-34 -16 -261 -207q-197 -167 -258 -223q71 9 213 22q21 1 102 1q99 0 111 -1q23 -4 68 -12 q7 -2 21 -17q27 -12 26 -32q0 -5 -5 -19q-16 -44 -80.5 -90.5t-104.5 -46.5z" />
<glyph unicode="{" horiz-adv-x="628" d="M574 511q-12 0 -60 42l-60 54q-10 7 -12 23q-3 14 1 24q17 47 81.5 95.5t112.5 48.5q15 0 64 -46q35 -33 56 -57q14 -15 4 -41q-16 -43 -79.5 -93t-107.5 -50zM521 294q-29 -14 -68 -22l-66 -10q-68 -13 -79 -13q-40 0 -40 28q0 9 4 21q17 45 80.5 94.5t107.5 49.5 q3 0 8 -1t7 -1t71.5 13t73.5 13q34 0 34 -29q0 -32 -52 -82q-43 -41 -81 -61zM358 26q-7 -1 -37 -13q-21 -8 -43 -8q-37 0 -37 29q0 46 73 106q70 58 117 58q21 0 80 24t79 24q30 0 30 -26q0 -8 -3 -19q-24 -64 -122 -119q-74 -41 -137 -56z" />
<glyph unicode="|" horiz-adv-x="481" d="M527 489l-69 -190q-23 -48 -61 -144q-3 -15 -14 -46q-20 -40 -76 -84.5t-92 -44.5q-23 0 -23 29q0 23 15 66q1 3 32.5 76.5t32.5 77.5l79 216q1 2 11 24t11 25l35 94q20 57 52 111q22 37 74.5 75.5t84.5 38.5q27 0 27 -22q0 -11 -7 -31q-1 -3 -56 -135.5t-56 -135.5z" />
<glyph unicode="}" horiz-adv-x="585" d="M714 696q-47 -45 -99 -70q-26 -12 -61 -38l-58 -44q-54 -37 -88 -37q-31 0 -31 27q0 55 149 161q144 102 203 102q31 0 31 -25q0 -7 -3 -16q-11 -29 -43 -60zM456 295q-18 -3 -93 -3q-109 0 -53 -1q-38 0 -44 11q-9 15 -1 37q16 43 77 91t102 48q-3 0 26 -1q40 -1 121 -2 q31 0 31 -28q0 -39 -64 -93q-60 -51 -102 -59zM308 -10q-26 0 -77 41q-42 34 -51 47q-13 19 -3 46q15 41 76 88.5t102 47.5q15 0 22 -8.5t14 -17.5q15 -18 46 -38q38 -25 48.5 -34t1.5 -34q-14 -39 -76 -88.5t-103 -49.5z" />
<glyph unicode="~" horiz-adv-x="829" d="M938 694q-50 -46 -120.5 -77t-129.5 -31q-44 0 -87 35t-80 33q-62 -58 -114 -58q-27 0 -27 20q0 7 3 16q12 34 85.5 88t119.5 62q24 9 60 9q45 0 70 -11q8 -4 45 -32q30 -23 48 -23q29 0 71.5 28.5t73.5 28.5q28 0 28 -21q0 -24 -46 -67z" />
<glyph unicode="&#xa3;" horiz-adv-x="1023" d="M704 369q-7 -13 -19 -48q36 -25 79 -64l74 -66q4 -5 43 -10q25 -3 67 -13q19 -6 7 -39t-56.5 -72t-86.5 -55q-26 -9 -56 -9q-15 0 -52 7q-50 9 -77 35l-54 52q-9 8 -28 23q-33 -34 -79 -63q-51 -32 -85 -38q-94 -16 -128 -16q-77 0 -77 59q0 23 12 55q1 2 34 72 q32 65 110 134q89 78 157 78q6 0 46 -10l41 111q36 100 159 206q135 116 247 116q35 0 72.5 -18t45.5 -44q1 -7 5 -20q13 -16 6 -37q-17 -46 -82.5 -92t-104.5 -46q-25 0 -32 18q-11 29 -13 32q-24 25 -54 25q-20 0 -34 -39l-20 -55q52 13 127 13q50 0 50 -28q0 -42 -70 -96 q-65 -51 -109 -57q-22 0 -65 -1zM397 188l-2 -3q-3 -10 17 -10q2 0 9 -1t12 -1q-17 8 -36 15z" />
<glyph unicode="&#xa5;" horiz-adv-x="1135" d="M1114 451q-9 -1 -44 1q-27 2 -43 -4q-2 -1 -38 -27q-43 -32 -62 -44q-72 -43 -160 -77q-100 -37 -158 -37h-88q-13 -33 -18 -53q-7 -29 -16 -64q-18 -48 -79 -99q-66 -55 -116 -55q-33 0 -33 25q0 12 11 42q7 19 15 61l99 278q-24 1 -77 -7q-18 -5 -24 -5q-35 0 -35 29 q0 46 78 102q70 51 121 60q1 7 4 19q10 17 27 50q12 25 40 74q23 35 80 72t90 37q35 0 31 -35q54 12 86 12q136 0 263 -66q55 -29 67 -108q25 2 63 2q49 0 57 -2q35 -5 35 -28q0 -38 -70 -94q-66 -55 -106 -59zM735 609q-33 8 -49 8h-35l-56 -153q73 -16 120 -16q58 0 91 7 q45 10 102 40q-1 45 -57 75q-37 19 -116 39z" />
<glyph unicode="&#xa9;" horiz-adv-x="1014" d="M909 447q0 -197 -124 -328q-127 -132 -323 -132q-75 0 -160 31q-171 63 -171 242q0 91 30 173q19 50 88 151.5t157 158.5t173 57q28 0 35 -2q18 -4 36 -22q24 0 70 -7q189 -58 189 -322zM801 382q0 86 -27 153q-40 96 -127 124q-20 6 -76 6q-3 0 -18 -1.5t-18 -1.5 q-7 0 -17.5 6.5t-10.5 15.5q0 2 1 5h-15q-2 0 -41 -10q-55 -14 -117 -96q-45 -59 -74 -123q-22 -49 -22 -133q0 -74 31 -121q38 -56 128 -86q70 -23 129 -23q137 0 204 65q70 70 70 220zM656 357q0 -16 -17 -41q-19 -28 -43 -40q-8 -5 -54 -16q-74 -18 -78 -18 q-107 0 -107 132q0 119 106 181q49 29 91 29q26 0 58.5 -19t32.5 -45q0 -28 -29.5 -57t-55.5 -29q-10 0 -31.5 20t-40.5 20q-18 0 -22 -10q-1 -3 -1 -24q0 -42 11 -61q14 -26 53 -26q3 0 52 12t52 12q23 0 23 -20z" />
<glyph unicode="&#xad;" d="M571 315q-22 -5 -36 -5q-2 0 -57.5 4t-58.5 4h-97q-14 0 -20.5 10.5t-1.5 23.5q11 30 62.5 68t90.5 41h53q31 0 105 -4q79 -4 85 -8t8 -16q2 -10 0 -15q-9 -26 -54 -61t-79 -42z" />
<glyph unicode="&#xae;" horiz-adv-x="1031" d="M905 469q0 -20 -8 -62q-11 -57 -13 -70q-13 -93 -106 -185q-85 -86 -158 -101q-20 -9 -63 -26q-60 -23 -111 -23t-133 30q-94 34 -141 127q-39 74 -39 165q0 57 14 107q9 35 37 103q48 115 151 190q21 15 86 43q75 33 148 33q40 0 62 -5q18 -7 53 -17q18 -1 55 -10 q4 -8 17 -20q103 -48 121 -109q28 -100 28 -170zM528 440q-34 16 -55 20q6 -44 5 -46q35 17 50 26zM795 402q0 38 -10 89t-21 73q-17 35 -53 56q-31 15 -63 30q-11 6 -33 8q-26 3 -31 4q-3 5 -11 15q-19 10 -72 10q-38 0 -52 -4q-58 -15 -103 -42q-26 -15 -38 -38 q-40 -72 -52.5 -113t-12.5 -97q0 -73 32 -137q41 -85 124 -114q76 -26 116 -26q43 0 141 42q107 48 101 84q-37 1 -109 4q-57 4 -158 32q-6 -24 -36 -53t-52 -29q-6 0 -10 2q-9 9 -10 13q-7 27 -10 73q-1 29 -3 59q-2 21 -9 65q-6 41 -6 43q0 27 3 35q13 29 39 52.5t52 23.5 q3 0 4.5 -1t4.5 -1q59 16 68 16q32 0 69 -15q52 -22 52 -59q0 -51 -69 -115q131 -29 151 -28h64q0 8 1.5 24.5t1.5 18.5z" />
<glyph unicode="&#x2000;" horiz-adv-x="426" />
<glyph unicode="&#x2001;" horiz-adv-x="853" />
<glyph unicode="&#x2002;" horiz-adv-x="426" />
<glyph unicode="&#x2003;" horiz-adv-x="853" />
<glyph unicode="&#x2004;" horiz-adv-x="284" />
<glyph unicode="&#x2005;" horiz-adv-x="213" />
<glyph unicode="&#x2006;" horiz-adv-x="142" />
<glyph unicode="&#x2007;" horiz-adv-x="142" />
<glyph unicode="&#x2008;" horiz-adv-x="106" />
<glyph unicode="&#x2009;" horiz-adv-x="170" />
<glyph unicode="&#x200a;" horiz-adv-x="47" />
<glyph unicode="&#x2010;" d="M571 315q-22 -5 -36 -5q-2 0 -57.5 4t-58.5 4h-97q-14 0 -20.5 10.5t-1.5 23.5q11 30 62.5 68t90.5 41h53q31 0 105 -4q79 -4 85 -8t8 -16q2 -10 0 -15q-9 -26 -54 -61t-79 -42z" />
<glyph unicode="&#x2011;" d="M571 315q-22 -5 -36 -5q-2 0 -57.5 4t-58.5 4h-97q-14 0 -20.5 10.5t-1.5 23.5q11 30 62.5 68t90.5 41h53q31 0 105 -4q79 -4 85 -8t8 -16q2 -10 0 -15q-9 -26 -54 -61t-79 -42z" />
<glyph unicode="&#x2012;" d="M571 315q-22 -5 -36 -5q-2 0 -57.5 4t-58.5 4h-97q-14 0 -20.5 10.5t-1.5 23.5q11 30 62.5 68t90.5 41h53q31 0 105 -4q79 -4 85 -8t8 -16q2 -10 0 -15q-9 -26 -54 -61t-79 -42z" />
<glyph unicode="&#x2013;" horiz-adv-x="813" d="M632 315q-27 -5 -44 -5q-2 0 -70.5 4t-71.5 4h-119q-18 0 -25.5 10.5t-1.5 23.5q13 30 76.5 68t111.5 41h65q38 0 129 -4q97 -4 104 -8t10 -16q2 -10 0 -15q-11 -26 -66.5 -61t-97.5 -42z" />
<glyph unicode="&#x2014;" horiz-adv-x="1313" d="M968 315q-54 -5 -89 -5q-4 0 -140.5 4t-143.5 4h-239q-34 0 -50 10.5t-4 23.5q27 30 153.5 68t222.5 41h130q76 0 258 -4q194 -4 209 -8t20 -16q4 -10 0 -15q-23 -26 -133.5 -61t-193.5 -42z" />
<glyph unicode="&#x202f;" horiz-adv-x="170" />
<glyph unicode="&#x205f;" horiz-adv-x="213" />
<glyph unicode="&#x2122;" horiz-adv-x="1008" d="M866 512q0 -22 -24 -46.5t-43 -24.5q-10 0 -13 3.5t-9 16.5t-20 56q-11 35 -32 104q-14 -41 -35 -96q-3 -10 -12 -32q-8 -15 -29 -31.5t-35 -16.5q-18 0 -23 5q-9 10 -20 38t-29 81q-7 24 -19 72l-44 -106q-36 -75 -78 -75q-5 0 -15 9q0 7 1 19q17 36 48 109 q34 89 40 100q46 94 91 94q18 0 28 -25q0 -1 8 -31q4 -22 15 -65q8 -30 24 -79q28 64 40 113q8 30 42 59t58 24q7 -7 8 -12q10 -41 28 -111q11 -38 32 -108q1 -4 10 -21q7 -12 7 -23zM457 750q0 -19 -20 -41.5t-43 -28.5q-25 0 -70 -9v-148q0 -22 1 -17q-3 -17 -26.5 -40 t-42.5 -23q-4 0 -10 5.5t-6 10.5q0 98 2 202q-3 5 -12 3q-17 -3 -19 -3q-9 -1 -28.5 -2t-21.5 -1q-41 0 -41 18t18 41t39 26q54 9 160 17q87 8 101 8q19 0 19 -18z" />
<glyph unicode="&#xe000;" horiz-adv-x="820" d="M0 820h820v-820h-820v820z" />
</font>
</defs>
</svg>
