<?xml version="1.0" standalone="no"?>
<!DOCTYPE svg PUBLIC "-//W3C//DTD SVG 1.1//EN" "http://www.w3.org/Graphics/SVG/1.1/DTD/svg11.dtd" >
<svg xmlns="http://www.w3.org/2000/svg">
<metadata></metadata>
<defs>
<font id="luxi_sansregular" horiz-adv-x="1139" vert-adv-y="2048" >
<font-face units-per-em="2048" ascent="1638" descent="-410" />
<missing-glyph horiz-adv-x="569" />
<glyph horiz-adv-x="2048" vert-adv-y="0" />
<glyph horiz-adv-x="2048" vert-adv-y="0" />
<glyph unicode="&#xd;" horiz-adv-x="2048" vert-adv-y="0" />
<glyph unicode=" " horiz-adv-x="569" vert-adv-y="2465" />
<glyph unicode="!" horiz-adv-x="569" vert-adv-y="2465" d="M186 0v197h197v-197h-197zM211 395l-25 789v296h197v-296l-24 -789h-148z" />
<glyph unicode="&#x22;" horiz-adv-x="727" vert-adv-y="2465" d="M117 1086l-25 493h197l-24 -493h-148zM462 1086l-25 493h198l-25 -493h-148z" />
<glyph unicode="#" vert-adv-y="2465" d="M125 0l111 444h-211l24 124h218l87 345h-236l25 123h241l112 444h127l-111 -444h263l111 444h128l-111 -444h211l-24 -123h-218l-87 -345h236l-24 -124h-242l-111 -444h-128l111 444h-263l-111 -444h-128zM394 568h264l87 345h-264z" />
<glyph unicode="$" vert-adv-y="2465" d="M498 -123v123q-176 0 -395 83v170q225 -105 395 -105v531q-186 116 -263 202q-88 100 -88 244q0 171 127 273q86 69 224 82v124h99v-124q144 0 321 -67v-161q-191 83 -321 93v-527l12 -8q26 -16 49 -29l12 -8q126 -75 189 -141q83 -86 83 -219q0 -181 -122 -300 q-85 -82 -223 -113v-123h-99zM597 160q172 67 172 225q0 82 -48 135q-37 40 -124 101v-461zM498 883v456q-179 -61 -179 -206q0 -131 179 -250z" />
<glyph unicode="%" horiz-adv-x="1821" vert-adv-y="2465" d="M250 -37l1166 1554h154l-1165 -1554h-155zM429 1480q147 0 232 -99q86 -100 86 -271t-86 -270q-85 -100 -231 -100q-148 0 -233 100t-85 275q0 151 70 247q88 118 247 118zM429 1382q-73 0 -118 -74q-45 -75 -45 -192q0 -115 37 -187q45 -90 126 -90q74 0 119 75t45 196 q0 123 -45 197q-46 75 -119 75zM1392 740q147 0 232 -100q85 -99 85 -270t-85 -270q-86 -100 -232 -100q-148 0 -233 100t-85 275q0 152 70 247q88 118 248 118zM1392 642q-74 0 -119 -74q-45 -75 -45 -192q0 -114 37 -187q44 -90 127 -90q73 0 118 75t45 196q0 123 -45 197 q-45 75 -118 75z" />
<glyph unicode="&#x26;" horiz-adv-x="1366" vert-adv-y="2465" d="M1025 0l-73 87q-200 -124 -382 -124q-218 0 -366 136t-148 343q0 205 129 332q76 74 220 130q-88 163 -88 283q0 150 92 240q93 90 250 90q149 0 236 -81t87 -217q0 -151 -116 -260q-71 -66 -205 -127q168 -305 334 -504q99 127 99 379v80h195q0 -346 -202 -566 q88 -112 206 -221h-268zM866 202q-197 225 -391 588q-98 -47 -148 -106q-73 -84 -73 -207q0 -153 102 -259q103 -107 246 -107q112 0 264 91zM587 956q96 42 142 90q68 70 68 169q0 154 -140 154q-148 0 -148 -162q0 -98 70 -235z" />
<glyph unicode="'" horiz-adv-x="391" vert-adv-y="2465" d="M121 1036l-49 543h247l-50 -543h-148z" />
<glyph unicode="(" horiz-adv-x="682" vert-adv-y="2465" d="M600 -160v-136q-200 142 -316 351q-153 273 -153 587q0 328 166 610q114 192 303 327v-136q-135 -150 -196 -307q-76 -195 -76 -494q0 -312 83 -513q62 -147 189 -289z" />
<glyph unicode=")" horiz-adv-x="682" vert-adv-y="2465" d="M82 1443v136q200 -142 317 -351q152 -272 152 -586q0 -330 -166 -611q-114 -192 -303 -327v136q135 151 196 308q75 195 75 494q0 311 -83 512q-60 145 -188 289z" />
<glyph unicode="*" horiz-adv-x="797" vert-adv-y="2465" d="M711 1289l46 -141l-278 -66v2q2 11 2 12v1q-2 42 -29 67zM681 838l-120 -87l-157 267q50 6 70 51zM235 751l-120 87l206 231q20 -45 70 -51zM39 1148l45 141l260 -125q-29 -26 -29 -67v-1v-5l1 -3q1 -4 1 -6zM324 1480h148l-31 -308q-22 11 -43 11q-23 0 -43 -11z" />
<glyph unicode="+" horiz-adv-x="1196" vert-adv-y="2465" d="M523 99v419h-419v148h419v420h148v-420h420v-148h-420v-419h-148z" />
<glyph unicode="," horiz-adv-x="569" vert-adv-y="2465" d="M161 -321v74q96 27 96 227v20h-96v247h247v-214q-1 -327 -247 -354z" />
<glyph unicode="-" horiz-adv-x="682" vert-adv-y="2465" d="M88 518v148h506v-148h-506z" />
<glyph unicode="." horiz-adv-x="569" vert-adv-y="2465" d="M161 0v247h247v-247h-247z" />
<glyph unicode="/" horiz-adv-x="569" vert-adv-y="2465" d="M-59 -296l533 1776h155l-533 -1776h-155z" />
<glyph unicode="0" vert-adv-y="2465" d="M569 1517q225 0 357 -208t132 -565q0 -366 -132 -573q-132 -208 -363 -208q-198 0 -323 169q-160 214 -160 610q0 359 132 566q132 209 357 209zM569 1369q-134 0 -206 -164q-73 -165 -73 -464q0 -297 73 -464q72 -166 207 -166q122 0 189 122q90 162 90 510 q0 302 -73 463q-75 163 -207 163z" />
<glyph unicode="1" vert-adv-y="2465" d="M230 0v148h296v1168l-296 -74v152l494 123v-1369h296v-148h-790z" />
<glyph unicode="2" vert-adv-y="2465" d="M102 0v173q68 160 230 329l108 110l98 100q193 197 193 395q0 141 -74 208q-60 55 -166 55q-138 0 -352 -120v174q203 93 378 93q194 0 309 -113q115 -112 115 -302q0 -131 -59 -232q-62 -104 -224 -250l-69 -62q-207 -188 -249 -385h593v-173h-831z" />
<glyph unicode="3" vert-adv-y="2465" d="M153 11v184l7 -3q26 -11 37 -14q109 -40 148 -50q65 -17 118 -17q151 0 226 84q66 72 66 205q0 155 -101 237q-100 82 -286 82h-78v133l68 1q172 3 265 79q97 78 97 215q0 222 -239 222q-123 0 -308 -83v172q181 59 320 59q241 0 346 -115q78 -85 78 -226 q0 -159 -112 -262q-66 -61 -196 -112q114 -30 172 -64q185 -107 185 -330q0 -202 -133 -323q-133 -122 -350 -122q-117 0 -330 48z" />
<glyph unicode="4" vert-adv-y="2465" d="M688 0v419h-657v149l657 912h185v-900h198v-161h-198v-419h-185zM224 580h477v658z" />
<glyph unicode="5" vert-adv-y="2465" d="M163 -6v176q152 -59 279 -59q147 0 230 86q84 87 84 234q0 336 -456 336q-55 0 -112 -7v720h748v-172h-575v-390q264 -4 414 -107q191 -132 191 -387q0 -216 -145 -338q-146 -123 -401 -123q-110 0 -257 31z" />
<glyph unicode="6" vert-adv-y="2465" d="M298 778q138 172 337 172q182 0 287 -124q105 -123 105 -340q0 -241 -124 -382t-332 -141q-227 0 -357 195q-130 194 -130 535q0 387 155 606t429 219q126 0 279 -56v-172q-181 80 -283 80q-221 0 -310 -222q-35 -88 -47 -197q-7 -58 -9 -173zM582 808q-124 0 -200 -86 q-77 -86 -77 -233q0 -164 79 -271t205 -107q244 0 244 334q0 363 -251 363z" />
<glyph unicode="7" vert-adv-y="2465" d="M222 0q29 173 82 299q53 125 190 346l404 650h-762v185h950v-185q-569 -839 -637 -1295h-227z" />
<glyph unicode="8" vert-adv-y="2465" d="M393 806q-98 71 -147 136q-70 94 -70 203q0 163 123 267q123 105 321 105q184 0 297 -89q113 -88 113 -232q0 -129 -100 -244q-61 -69 -176 -146q150 -77 227 -159q108 -116 108 -267q0 -183 -141 -300q-140 -117 -363 -117q-219 0 -352 111q-134 111 -134 294 q0 160 108 286q64 76 186 152zM644 868q207 142 207 296q0 94 -68 149q-68 56 -184 56q-110 0 -177 -53q-67 -52 -67 -140q0 -105 113 -194q58 -46 176 -114zM500 726q-110 -86 -154 -149q-50 -72 -50 -180q0 -129 82 -207q82 -79 217 -79q128 0 209 67q82 67 82 174 q0 95 -63 160q-53 54 -183 131z" />
<glyph unicode="9" vert-adv-y="2465" d="M813 702q-138 -172 -337 -172q-182 0 -287 124t-105 341q0 240 124 381q123 142 331 142q228 0 358 -195t130 -535q0 -388 -155 -607t-429 -219q-128 0 -280 56v172q183 -79 284 -79q221 0 310 222q35 87 47 196q7 58 9 173zM522 1369q-244 0 -244 -333q0 -364 251 -364 q124 0 200 86q77 87 77 234q0 163 -79 270q-80 107 -205 107z" />
<glyph unicode=":" horiz-adv-x="569" vert-adv-y="2465" d="M186 0v197h197v-197h-197zM186 888v198h197v-198h-197z" />
<glyph unicode=";" horiz-adv-x="569" vert-adv-y="2465" d="M186 -321v74q71 37 71 224v23h-71v197h197v-166q-1 -302 -197 -352zM186 888v198h197v-198h-197z" />
<glyph unicode="&#x3c;" horiz-adv-x="1196" vert-adv-y="2465" d="M1091 99l-987 493l987 494v-166l-654 -327v-2l654 -327v-165z" />
<glyph unicode="=" horiz-adv-x="1196" vert-adv-y="2465" d="M104 333v148h987v-148h-987zM104 703v148h987v-148h-987z" />
<glyph unicode="&#x3e;" horiz-adv-x="1196" vert-adv-y="2465" d="M104 1086l987 -494l-987 -493v165l654 327v2l-654 327v166z" />
<glyph unicode="?" vert-adv-y="2465" d="M376 0v197h197v-197h-197zM376 395v54q-1 245 163 373l89 69q176 136 176 283q0 195 -274 195q-168 0 -392 -74v167q221 55 407 55q204 0 320 -66q149 -86 149 -274t-191 -306l-81 -50q-99 -61 -134 -127q-35 -65 -35 -189v-110h-197z" />
<glyph unicode="@" horiz-adv-x="2079" vert-adv-y="2465" d="M1253 44q-186 -81 -356 -81q-278 0 -461 174q-183 173 -183 445q0 367 282 651t651 284q282 0 470 -180t188 -448q0 -246 -151 -420q-151 -173 -366 -173q-167 0 -167 115q0 39 21 105l40 126h-12q-85 -156 -161 -234q-109 -112 -230 -112q-189 0 -189 227q0 249 162 452 q161 203 366 203q25 0 65 -2q10 -1 23 -2q39 -2 66 -2h137l-126 -636q-6 -30 -6 -61q0 -68 77 -68q132 0 236 142q104 143 104 325q0 229 -159 381t-402 152q-316 0 -562 -249q-246 -250 -246 -567q0 -230 155 -373q154 -144 394 -144q154 0 304 72zM1233 833l39 195 q-94 33 -160 33q-141 0 -235 -143t-94 -350q0 -149 80 -149q133 0 370 414z" />
<glyph unicode="A" horiz-adv-x="1366" vert-adv-y="2465" d="M19 0l562 1480h208l553 -1480h-226l-154 410h-594l-154 -410h-195zM428 566h476l-237 634z" />
<glyph unicode="B" horiz-adv-x="1366" vert-adv-y="2465" d="M165 0v1480h474q292 0 412 -75q121 -76 121 -256q0 -166 -119 -269q-72 -62 -209 -109q174 -52 262 -127q125 -106 125 -275q0 -157 -102 -261q-72 -74 -189 -93q-93 -15 -249 -15h-526zM375 157h155q294 0 387 44q92 43 92 182q0 153 -119 233q-119 81 -344 81h-171 v-540zM375 830h179q402 0 402 283q0 143 -115 181q-88 29 -272 29h-194v-493z" />
<glyph unicode="C" horiz-adv-x="1479" vert-adv-y="2465" d="M1352 76q-229 -113 -490 -113q-365 0 -555 198q-191 198 -191 577q0 378 194 579q194 200 561 200q205 0 479 -65v-197q-311 105 -490 105q-251 0 -385 -160q-134 -159 -134 -460q0 -294 143 -453q143 -160 402 -160q217 0 466 129v-180z" />
<glyph unicode="D" horiz-adv-x="1479" vert-adv-y="2465" d="M165 0v1480h474q747 0 747 -706q0 -368 -195 -571q-194 -203 -549 -203h-477zM375 157h252q534 0 534 593q0 349 -211 492q-62 42 -147 60q-103 21 -273 21h-155v-1166z" />
<glyph unicode="E" horiz-adv-x="1366" vert-adv-y="2465" d="M191 0v1480h1073v-157h-863v-475h764v-155h-764v-536h907v-157h-1117z" />
<glyph unicode="F" horiz-adv-x="1251" vert-adv-y="2465" d="M191 0v1480h1005v-157h-795v-496h695v-155h-695v-672h-210z" />
<glyph unicode="G" horiz-adv-x="1593" vert-adv-y="2465" d="M1405 688v-648q-274 -77 -534 -77q-778 0 -778 772q0 378 201 580q202 202 583 202q246 0 526 -67v-194q-321 104 -535 104q-550 0 -550 -616q0 -304 152 -464q151 -160 430 -160q115 0 296 37v377h-247v154h456z" />
<glyph unicode="H" horiz-adv-x="1479" vert-adv-y="2465" d="M165 0v1480h210v-624h729v624h209v-1480h-209v699h-729v-699h-210z" />
<glyph unicode="I" horiz-adv-x="569" vert-adv-y="2465" d="M180 0v1480h210v-1480h-210z" />
<glyph unicode="J" horiz-adv-x="1024" vert-adv-y="2465" d="M49 -232v181q171 -77 320 -77q171 0 220 79q41 68 41 229v1300h210v-1293q0 -483 -481 -483q-162 0 -310 64z" />
<glyph unicode="K" horiz-adv-x="1366" vert-adv-y="2465" d="M191 0v1480h197v-728l615 728h211l-596 -706l699 -774h-266l-663 750v-750h-197z" />
<glyph unicode="L" vert-adv-y="2465" d="M165 0v1480h210v-1323h726v-157h-936z" />
<glyph unicode="M" horiz-adv-x="1706" vert-adv-y="2465" d="M165 0v1480h291l407 -1145l418 1145h260v-1480h-196v1203l-404 -1104h-203l-392 1108v-1207h-181z" />
<glyph unicode="N" horiz-adv-x="1479" vert-adv-y="2465" d="M165 0v1480h205l763 -1143v1143h180v-1480h-206l-762 1143v-1143h-180z" />
<glyph unicode="O" horiz-adv-x="1593" vert-adv-y="2465" d="M797 1517q319 0 512 -211q192 -212 192 -564q0 -359 -192 -569q-193 -210 -522 -210q-282 0 -465 173q-229 217 -229 604q0 355 192 566t512 211zM797 1360q-227 0 -353 -163t-126 -456q0 -291 126 -456q125 -165 348 -165q207 0 330 132q154 163 154 490q0 292 -127 455 t-352 163z" />
<glyph unicode="P" horiz-adv-x="1366" vert-adv-y="2465" d="M167 0v1480h580q229 0 328 -26q101 -27 164 -103q79 -96 79 -262q0 -501 -633 -501h-308v-588h-210zM377 747h299q420 0 420 329q0 160 -109 207q-93 40 -306 40h-304v-576z" />
<glyph unicode="Q" horiz-adv-x="1593" vert-adv-y="2465" d="M1639 -129l-133 -167q-350 115 -584 269q-103 -11 -157 -11q-294 0 -483 218q-189 217 -189 561q0 352 191 564t510 212q322 0 515 -212q193 -211 193 -567q0 -311 -146 -507q-56 -76 -129 -131q-38 -28 -113 -70q246 -110 525 -159zM793 1360q-223 0 -349 -165 q-126 -164 -126 -455q0 -290 126 -455t349 -165q225 0 354 162t129 452q0 269 -103 429q-127 197 -380 197z" />
<glyph unicode="R" horiz-adv-x="1479" vert-adv-y="2465" d="M165 0v1480h618q456 0 456 -367q0 -180 -111 -296q-65 -69 -188 -124l494 -693h-258l-421 626h-380v-626h-210zM375 783h235q214 0 313 74q100 75 100 232q0 127 -81 180q-80 54 -267 54h-300v-540z" />
<glyph unicode="S" horiz-adv-x="1366" vert-adv-y="2465" d="M120 52v208q296 -140 584 -140q323 0 323 239q0 124 -89 182q-69 46 -222 96l-201 66q-387 127 -387 419q0 395 542 395q232 0 481 -63v-193q-260 99 -494 99q-326 0 -326 -222q0 -87 61 -140q63 -55 222 -107l206 -67q233 -76 328 -174q95 -97 95 -260q0 -197 -146 -312 q-145 -115 -401 -115q-252 0 -576 89z" />
<glyph unicode="T" horiz-adv-x="1251" vert-adv-y="2465" d="M520 0v1323h-500v157h1210v-157h-500v-1323h-210z" />
<glyph unicode="U" horiz-adv-x="1479" vert-adv-y="2465" d="M166 1480h210v-934q0 -158 26 -232q25 -73 97 -124q100 -70 269 -70q199 0 279 94q81 93 81 325v941h184v-938q0 -198 -39 -300q-39 -103 -144 -178q-142 -101 -379 -101q-302 0 -443 140t-141 445v932z" />
<glyph unicode="V" horiz-adv-x="1366" vert-adv-y="2465" d="M607 0l-571 1480h216l472 -1215l452 1215h179l-550 -1480h-198z" />
<glyph unicode="W" horiz-adv-x="1933" vert-adv-y="2465" d="M406 0l-381 1480h202l303 -1169l347 1169h202l333 -1158l325 1158h171l-416 -1480h-208l-329 1141l-341 -1141h-208z" />
<glyph unicode="X" horiz-adv-x="1366" vert-adv-y="2465" d="M28 0l545 735l-521 745h248l401 -575l427 575h199l-529 -710l540 -770h-248l-420 598l-444 -598h-198z" />
<glyph unicode="Y" horiz-adv-x="1366" vert-adv-y="2465" d="M561 0v617l-531 863h240l421 -685l451 685h195l-566 -858v-622h-210z" />
<glyph unicode="Z" horiz-adv-x="1251" vert-adv-y="2465" d="M101 0v169l795 1154h-746v157h998v-157l-795 -1154h795v-169h-1047z" />
<glyph unicode="[" horiz-adv-x="569" vert-adv-y="2465" d="M149 -296v1875h395v-148h-222v-1579h222v-148h-395z" />
<glyph unicode="\" horiz-adv-x="569" vert-adv-y="2465" d="M629 -296h-155l-533 1776h155z" />
<glyph unicode="]" horiz-adv-x="569" vert-adv-y="2465" d="M421 1579v-1875h-395v148h222v1579h-222v148h395z" />
<glyph unicode="^" horiz-adv-x="960" vert-adv-y="2465" d="M480 1149l-279 -557h-165l444 888l444 -888h-166z" />
<glyph unicode="_" vert-adv-y="2465" d="M0 -148v148h1139v-148h-1139z" />
<glyph unicode="`" horiz-adv-x="682" vert-adv-y="2465" d="M575 1283h-148l-321 321h228z" />
<glyph unicode="a" vert-adv-y="2465" d="M774 138q-185 -163 -360 -163q-141 0 -230 83q-89 84 -89 215q0 369 604 369h46v131q0 189 -209 189q-162 0 -347 -96v163q205 81 385 81q192 0 280 -81q88 -80 88 -256v-492q0 -169 104 -169q14 0 38 4l14 -109q-73 -32 -146 -32q-68 0 -112 38q-43 37 -66 125zM745 245 v281l-65 2q-60 2 -133 -9q-248 -35 -248 -216q0 -167 181 -167q126 0 265 109z" />
<glyph unicode="b" vert-adv-y="2465" d="M351 703v-554q137 -26 206 -26q282 0 282 429q0 181 -56 283q-55 103 -149 103q-126 0 -283 -235zM351 882q56 102 118 154q89 74 207 74q169 0 272 -147q104 -147 104 -391q0 -285 -134 -441q-133 -156 -378 -156q-91 0 -189 25l-197 -12v1591h197v-697z" />
<glyph unicode="c" horiz-adv-x="1024" vert-adv-y="2465" d="M926 33q-181 -58 -341 -58q-225 0 -362 158q-137 157 -137 410q0 266 140 416q139 151 390 151q126 0 298 -36v-164q-164 49 -262 49q-344 0 -344 -416q0 -196 89 -302q88 -107 247 -107q121 0 282 69v-170z" />
<glyph unicode="d" vert-adv-y="2465" d="M787 382v555q-139 25 -205 25q-283 0 -283 -430q0 -178 56 -281q55 -103 149 -103q126 0 283 234zM787 203q-56 -102 -118 -154q-88 -74 -207 -74q-169 0 -272 148q-104 147 -104 391q0 284 134 440t377 156q94 0 190 -24v493h197v-1579h-197v203z" />
<glyph unicode="e" vert-adv-y="2465" d="M818 660q-3 98 -20 149q-52 154 -226 154q-121 0 -191 -72q-68 -69 -85 -231h522zM1013 191v-156q-203 -60 -372 -60q-255 0 -405 158t-150 424q0 253 133 403q132 150 358 150q259 0 366 -184q79 -137 76 -353l-1 -61h-725q12 -119 39 -181q88 -206 351 -206 q149 0 330 66z" />
<glyph unicode="f" horiz-adv-x="569" vert-adv-y="2465" d="M175 0v938h-144v148h144v130q0 388 308 388q65 0 147 -26v-157q-74 35 -126 35q-73 0 -102 -49q-29 -48 -29 -170v-151h195v-148h-195v-938h-198z" />
<glyph unicode="g" vert-adv-y="2465" d="M794 432v505q-141 25 -203 25q-285 0 -285 -388q0 -173 56 -275t149 -102q126 0 283 235zM794 253q-55 -102 -117 -154q-89 -74 -207 -74q-168 0 -272 146q-105 145 -105 380q0 266 134 412q134 147 376 147q94 0 191 -24h197v-790q0 -256 -27 -378q-73 -338 -501 -338 q-180 0 -363 59v171q215 -81 362 -81q332 0 332 353v171z" />
<glyph unicode="h" vert-adv-y="2465" d="M154 0v1579h197v-697q73 101 144 153q103 75 226 75q276 0 276 -330v-780h-198v716q0 132 -27 178q-28 47 -104 47q-162 0 -317 -238v-703h-197z" />
<glyph unicode="i" horiz-adv-x="455" vert-adv-y="2465" d="M129 0v1086h197v-1086h-197zM129 1283v197h197v-197h-197z" />
<glyph unicode="j" horiz-adv-x="455" vert-adv-y="2465" d="M-155 -387v156q80 -40 150 -40q97 0 120 74q18 61 18 197v1086h198v-1086q0 -419 -320 -419q-88 0 -166 32zM133 1283v197h198v-197h-198z" />
<glyph unicode="k" horiz-adv-x="1024" vert-adv-y="2465" d="M154 0v1579h197v-1020l364 527h188l-347 -513l450 -573h-240l-415 557v-557h-197z" />
<glyph unicode="l" horiz-adv-x="455" vert-adv-y="2465" d="M129 0v1579h197v-1579h-197z" />
<glyph unicode="m" horiz-adv-x="1706" vert-adv-y="2465" d="M154 0v1086h197v-204q87 130 143 176q65 52 171 52q130 0 211 -84q47 -49 82 -144q88 132 143 176q65 52 172 52q291 0 291 -320v-790h-197l-1 759q0 187 -144 187q-128 0 -264 -218v-728h-198v759q0 187 -145 187q-128 0 -264 -218v-728h-197z" />
<glyph unicode="n" vert-adv-y="2465" d="M154 0v1086h197v-204q73 101 144 153q103 75 226 75q276 0 276 -330v-780h-198v716q0 132 -27 178q-28 47 -104 47q-162 0 -317 -238v-703h-197z" />
<glyph unicode="o" vert-adv-y="2465" d="M569 1110q223 0 353 -152q130 -151 130 -414q0 -267 -130 -418t-360 -151q-197 0 -320 125q-156 157 -156 443q0 263 130 415t353 152zM569 962q-270 0 -270 -418q0 -421 269 -421q271 0 271 424q0 415 -270 415z" />
<glyph unicode="p" vert-adv-y="2465" d="M351 -395h-197v1481h197v-204q56 102 118 154q88 74 207 74q169 0 272 -147q104 -147 104 -391q0 -285 -134 -441q-133 -156 -378 -156q-91 0 -189 25v-395zM351 703v-554q137 -26 206 -26q282 0 282 429q0 181 -56 283q-55 103 -149 103q-126 0 -283 -235z" />
<glyph unicode="q" vert-adv-y="2465" d="M787 1086h197v-1481h-197v598q-56 -102 -118 -154q-88 -74 -207 -74q-169 0 -272 148q-104 147 -104 391q0 284 134 440t377 156q94 0 190 -24zM787 382v555q-139 25 -205 25q-283 0 -283 -430q0 -178 56 -281q55 -103 149 -103q126 0 283 234z" />
<glyph unicode="r" horiz-adv-x="682" vert-adv-y="2465" d="M154 0v1086h197v-204q43 103 92 154q71 74 169 74q19 0 56 -5v-184q-52 17 -84 17q-109 0 -233 -222v-716h-197z" />
<glyph unicode="s" horiz-adv-x="1024" vert-adv-y="2465" d="M116 38v181q199 -96 367 -96q227 0 227 160q0 110 -159 162l-176 58q-253 83 -253 304q0 303 414 303q119 0 289 -32v-165q-151 49 -302 49q-206 0 -206 -135q0 -98 141 -144l157 -51q293 -95 293 -330q0 -151 -116 -239t-317 -88q-159 0 -359 63z" />
<glyph unicode="t" horiz-adv-x="569" vert-adv-y="2465" d="M530 -6q-60 -19 -113 -19q-265 0 -265 325v638h-123v148h123v197l197 19v-216h210v-148h-210v-602q0 -129 22 -171t92 -42q38 0 67 11v-140z" />
<glyph unicode="u" vert-adv-y="2465" d="M787 0v203q-73 -101 -143 -153q-103 -75 -226 -75q-276 0 -276 331v780h197v-716q0 -131 27 -178q28 -47 104 -47q162 0 317 237v704h197v-1086h-197z" />
<glyph unicode="v" horiz-adv-x="1024" vert-adv-y="2465" d="M404 0l-385 1086h199l301 -845l318 845h175l-411 -1086h-197z" />
<glyph unicode="w" horiz-adv-x="1479" vert-adv-y="2465" d="M273 0l-262 1086h193l196 -818l250 818h197l220 -821l228 821h170l-305 -1086h-198l-230 841l-260 -841h-199z" />
<glyph unicode="x" horiz-adv-x="1024" vert-adv-y="2465" d="M28 0l353 574l-341 512h228l272 -407l244 407h182l-332 -547l359 -539h-227l-294 436l-262 -436h-182z" />
<glyph unicode="y" horiz-adv-x="1024" vert-adv-y="2465" d="M404 0l-385 1086h200l295 -833l324 833h174l-574 -1481h-205z" />
<glyph unicode="z" horiz-adv-x="1024" vert-adv-y="2465" d="M74 0v148l621 790h-590v148h833v-148l-621 -790h633v-148h-876z" />
<glyph unicode="{" horiz-adv-x="684" vert-adv-y="2465" d="M25 716h61q153 0 153 164q0 64 -16 137l-19 87q-19 87 -19 164q0 163 136 249q95 59 247 62v-148h-53q-69 0 -113 -35q-45 -36 -45 -90q0 -20 13 -94l17 -102q11 -67 11 -148q0 -189 -147 -320q147 -131 147 -322q0 -80 -11 -147l-17 -102q-13 -74 -13 -95q0 -53 46 -89 q44 -35 112 -35h53v-148q-160 3 -257 69q-126 87 -126 244q0 75 19 162l19 87q16 73 16 140q0 162 -153 162h-61v148z" />
<glyph unicode="|" horiz-adv-x="532" vert-adv-y="2465" d="M192 -296v1875h148v-1875h-148z" />
<glyph unicode="}" horiz-adv-x="684" vert-adv-y="2465" d="M659 568h-62q-152 0 -152 -164q0 -73 15 -138l20 -87q19 -83 19 -164q0 -163 -138 -249q-94 -59 -245 -62v148h52q68 0 113 35q45 36 45 90q0 26 -12 94l-18 102q-11 62 -11 148q0 190 147 321q-66 59 -99 118q-48 88 -48 203q0 85 11 147l18 102q12 68 12 96 q0 52 -46 88q-45 35 -112 35h-52v148q160 -3 256 -69q127 -87 127 -244q0 -79 -19 -162l-20 -87q-15 -65 -15 -140q0 -161 152 -161h62v-148z" />
<glyph unicode="~" horiz-adv-x="1196" vert-adv-y="2465" d="M252 444h-148q3 106 22 161q58 167 244 167q99 0 199 -69l112 -77l66 -46q29 -20 77 -20q115 0 119 180h148q-3 -106 -22 -161q-58 -167 -243 -167q-99 0 -199 69l-112 77l-67 46q-29 20 -76 20q-116 0 -120 -180z" />
<glyph vert-adv-y="2465" d="M377 537q39 -161 98 -249q107 -161 298 -161q125 0 307 72v-172q-196 -64 -332 -64q-232 0 -376 137q-102 97 -153 257q-19 58 -42 180h-177l51 123h111l-2 75q0 4 1 23q1 43 4 99h-165l51 124h132q40 166 88 251q158 283 511 283q126 0 297 -44v-182q-168 71 -295 71 q-177 0 -282 -128q-60 -74 -92 -166q-13 -36 -27 -85h567l-51 -124h-537q-4 -74 -5 -121l2 -76h459l-51 -123h-390z" />
<glyph unicode="&#xa0;" horiz-adv-x="569" vert-adv-y="2465" />
<glyph unicode="&#xa1;" horiz-adv-x="682" vert-adv-y="2465" d="M439 1086v-198h-197v198h197zM415 691l24 -790v-296h-197v296l25 790h148z" />
<glyph unicode="&#xa2;" vert-adv-y="2465" d="M631 0v173q-188 24 -304 147q-154 163 -154 420q0 270 158 421q110 105 300 134v185h99v-185q133 -6 284 -46v-166q-178 60 -284 70v-840q136 0 284 67v-149q-149 -58 -284 -58v-173h-99zM631 1144q-59 -9 -89 -24q-153 -79 -153 -381q0 -209 91 -317q52 -61 151 -98v820 z" />
<glyph unicode="&#xa3;" vert-adv-y="2465" d="M121 0v173q209 67 210 316v227h-179v148h179v215q0 213 101 325q101 113 293 113q102 0 226 -30v-167q-129 49 -235 49q-188 0 -188 -230v-275h216v-148h-216v-127q0 -180 -48 -270q-38 -74 -125 -146h611v-173h-845z" />
<glyph unicode="&#xa4;" vert-adv-y="2465" d="M365 449l-156 -156l-87 87l155 156q-63 104 -63 204q0 101 64 204l-156 156l87 88l156 -156q98 63 204 63t204 -63l156 156l87 -88l-156 -156q64 -103 64 -204t-63 -204l155 -156l-87 -87l-156 156q-99 -64 -204 -64t-204 64zM569 972q-98 0 -165 -67t-67 -166 q0 -96 67 -163q66 -68 162 -68q89 0 153 54q82 69 82 179q0 97 -67 164q-68 67 -165 67z" />
<glyph unicode="&#xa5;" vert-adv-y="2465" d="M453 0v345h-296v124h296v148h-296v123h296l-428 740h228l322 -558h2l323 558h177l-427 -740h296v-123h-296v-148h296v-124h-296v-345h-197z" />
<glyph unicode="&#xa6;" horiz-adv-x="532" vert-adv-y="2465" d="M192 -296v740h148v-740h-148zM192 839v740h148v-740h-148z" />
<glyph unicode="&#xa7;" vert-adv-y="2465" d="M129 -260v180q250 -105 412 -105q126 0 208 50q81 50 81 132q0 75 -61 117q-50 36 -169 87l-177 76q-289 124 -289 336q0 145 146 299q-141 99 -141 244q0 161 130 261q129 100 342 100q145 0 343 -47v-160q-207 59 -346 59q-130 0 -210 -51t-80 -132q0 -109 175 -180 l136 -55q208 -84 286 -162q80 -80 80 -200q0 -141 -149 -312q164 -101 164 -268q0 -157 -134 -250q-133 -93 -353 -93q-154 0 -394 74zM748 341q74 102 74 193q0 73 -48 120t-172 99l-222 93q-74 -95 -74 -182q0 -135 230 -233z" />
<glyph unicode="&#xa8;" horiz-adv-x="682" vert-adv-y="2465" d="M57 1283v173h173v-173h-173zM452 1283v173h173v-173h-173z" />
<glyph unicode="&#xa9;" horiz-adv-x="1509" vert-adv-y="2465" d="M755 1480q305 0 523 -217q217 -216 217 -522q0 -310 -218 -525q-217 -216 -531 -216q-268 0 -469 176q-262 228 -262 565q0 306 217 522q218 217 523 217zM755 1375q-261 0 -448 -187q-186 -186 -186 -448q0 -258 185 -446t442 -188q239 0 416 150q226 192 226 485 q0 262 -187 447q-187 187 -448 187zM1025 364q-138 -47 -244 -47q-178 0 -293 117t-115 302q0 191 112 306t302 115q97 0 214 -24l24 -5v-118q-130 53 -231 53q-126 0 -203 -89q-77 -90 -77 -235q0 -146 80 -231t215 -85q105 0 216 59v-118z" />
<glyph unicode="&#xaa;" horiz-adv-x="758" vert-adv-y="2465" d="M485 915q-102 -93 -204 -93q-85 0 -140 53q-55 54 -55 134q0 228 342 228h48v70q0 110 -121 110q-97 0 -210 -59v111q127 49 238 49q242 0 242 -207v-298q0 -94 55 -91h6q3 0 9 1q5 0 11 1l6 -83q-51 -19 -96 -19q-98 0 -126 93h-5zM476 996v154h-38q-204 0 -204 -124 q0 -94 97 -94q68 0 145 64z" />
<glyph unicode="&#xab;" vert-adv-y="2465" d="M1003 913l-296 -370l296 -370l-98 -74l-395 444l395 444zM608 913l-296 -370l296 -370l-98 -74l-395 444l395 444z" />
<glyph unicode="&#xac;" horiz-adv-x="1196" vert-adv-y="2465" d="M86 740v148h987v-592h-148v444h-839z" />
<glyph unicode="&#xad;" horiz-adv-x="682" vert-adv-y="2465" d="M88 518v148h506v-148h-506z" />
<glyph unicode="&#xae;" horiz-adv-x="1509" vert-adv-y="2465" d="M755 1480q305 0 523 -217q217 -216 217 -522q0 -310 -218 -525q-217 -216 -531 -216q-268 0 -469 176q-262 228 -262 565q0 306 217 522q218 217 523 217zM755 1375q-261 0 -448 -187q-186 -186 -186 -448q0 -258 185 -446t442 -188q239 0 416 150q226 192 226 485 q0 262 -187 447q-187 187 -448 187zM511 337v800h252q242 0 242 -195q0 -139 -140 -233l241 -372h-149l-216 334h-101v-334h-129zM632 770h36q212 0 212 155q0 130 -177 130h-71v-285z" />
<glyph unicode="&#xaf;" vert-adv-y="2465" d="M99 1456v148h941v-148h-941z" />
<glyph unicode="&#xb0;" horiz-adv-x="819" vert-adv-y="2465" d="M410 1517q121 0 209 -87q87 -86 87 -208q0 -124 -87 -210q-88 -87 -213 -87q-106 0 -187 70q-105 92 -105 226q0 123 87 209q88 87 209 87zM410 1394q-71 0 -122 -51q-51 -50 -51 -121t51 -122q50 -51 120 -51q65 0 113 41q62 52 62 132q0 71 -51 121q-51 51 -122 51z " />
<glyph unicode="&#xb1;" horiz-adv-x="1196" vert-adv-y="2465" d="M523 296v370h-419v148h419v370h149v-370h419v-148h-419v-370h-149zM104 0v148h987v-148h-987z" />
<glyph unicode="&#xb2;" horiz-adv-x="682" vert-adv-y="2465" d="M74 592v122q68 118 182 219l70 62q156 138 156 260q0 146 -161 146q-95 0 -225 -69v117q131 54 251 54q131 0 212 -68q80 -68 80 -175q0 -140 -184 -293l-53 -44q-133 -110 -156 -209h389v-122h-561z" />
<glyph unicode="&#xb3;" horiz-adv-x="682" vert-adv-y="2465" d="M86 1353v112q114 38 226 38q282 0 282 -208q0 -96 -69 -158q-41 -36 -122 -66q128 -33 179 -101q41 -56 41 -138q0 -121 -87 -191q-86 -71 -238 -71q-102 0 -224 29v122q135 -51 213 -51q180 0 180 161q0 184 -260 184h-51v93h44q244 0 244 167q0 128 -155 128 q-91 0 -203 -50z" />
<glyph unicode="&#xb4;" horiz-adv-x="682" vert-adv-y="2465" d="M107 1283l241 321h228l-321 -321h-148z" />
<glyph unicode="&#xb5;" vert-adv-y="2465" d="M142 1086h197v-716q0 -131 27 -178q28 -47 104 -47q162 0 317 237v704h197v-1086h-197v203q-158 -222 -318 -222q-65 0 -130 44v-420h-197v1481z" />
<glyph unicode="&#xb6;" horiz-adv-x="1100" vert-adv-y="2465" d="M507 -296v1036q-182 17 -285 103q-134 111 -134 312q0 176 96 250q96 75 323 75h395v-1776h-123v1653h-148v-1653h-124z" />
<glyph unicode="&#xb7;" horiz-adv-x="569" vert-adv-y="2465" d="M161 491v247h247v-247h-247z" />
<glyph unicode="&#xb8;" horiz-adv-x="682" vert-adv-y="2465" d="M284 0h97l-60 -109q72 -2 124 -39q70 -49 70 -121q0 -68 -59 -115q-58 -48 -145 -48q-67 0 -143 21v81q50 -15 104 -15q104 0 104 74q0 93 -187 96z" />
<glyph unicode="&#xb9;" horiz-adv-x="682" vert-adv-y="2465" d="M320 592v759l-197 -49v114l345 87v-911h-148z" />
<glyph unicode="&#xba;" horiz-adv-x="748" vert-adv-y="2465" d="M374 1517q138 0 219 -93q80 -93 80 -253q0 -163 -80 -256q-81 -93 -222 -93q-123 0 -200 77q-97 96 -97 271q0 160 81 253q81 94 219 94zM374 1416q-143 0 -143 -246t143 -246q142 0 142 248q0 244 -142 244z" />
<glyph unicode="&#xbb;" vert-adv-y="2465" d="M136 173l296 370l-296 370l99 74l394 -444l-394 -444zM531 173l296 370l-296 370l98 74l395 -444l-395 -444z" />
<glyph unicode="&#xbc;" horiz-adv-x="1708" vert-adv-y="2465" d="M313 592v759l-197 -49v114l345 87v-911h-148zM1325 0v242h-407v113l403 533h140v-529h123v-117h-123v-242h-136zM1047 359h278v364zM191 -37l1088 1554h135l-1088 -1554h-135z" />
<glyph unicode="&#xbd;" horiz-adv-x="1708" vert-adv-y="2465" d="M1019 0v122q63 112 182 219l70 62q156 138 156 260q0 146 -161 146q-92 0 -225 -69v117q132 53 251 53q131 0 212 -68q80 -67 80 -175q0 -144 -184 -293l-53 -43q-133 -109 -156 -209h389v-122h-561zM140 -37l1088 1554h136l-1088 -1554h-136zM313 592v759l-197 -49v114 l345 87v-911h-148z" />
<glyph unicode="&#xbe;" horiz-adv-x="1708" vert-adv-y="2465" d="M123 1353v112q114 38 226 38q282 0 282 -208q0 -96 -69 -158q-41 -36 -122 -66q128 -33 179 -101q41 -56 41 -138q0 -121 -87 -191q-86 -71 -238 -71q-102 0 -224 29v122q135 -51 213 -51q180 0 180 161q0 184 -260 184h-51v93h44q244 0 244 167q0 128 -155 128 q-91 0 -203 -50zM1338 0v242h-407v113l403 533h139v-529h124v-117h-124v-242h-135zM1060 359h278v364zM284 -37l1088 1554h135l-1088 -1554h-135z" />
<glyph unicode="&#xbf;" horiz-adv-x="1251" vert-adv-y="2465" d="M823 1086v-198h-197v198h197zM823 691v-55q0 -244 -163 -372l-89 -69q-176 -137 -176 -283q0 -196 275 -196q168 0 391 75v-167q-219 -56 -406 -56q-205 0 -321 67q-149 85 -149 274q0 188 191 306l81 50q99 61 134 126q35 66 35 189v111h197z" />
<glyph unicode="&#xc0;" horiz-adv-x="1366" vert-adv-y="2465" d="M19 0l562 1480h208l553 -1480h-226l-154 410h-594l-154 -410h-195zM428 566h476l-237 634zM833 1604h-148l-321 321h228z" />
<glyph unicode="&#xc1;" horiz-adv-x="1366" vert-adv-y="2465" d="M19 0l562 1480h208l553 -1480h-226l-154 410h-594l-154 -410h-195zM428 566h476l-237 634zM537 1604l241 321h228l-321 -321h-148z" />
<glyph unicode="&#xc2;" horiz-adv-x="1366" vert-adv-y="2465" d="M19 0l562 1480h208l553 -1480h-226l-154 410h-594l-154 -410h-195zM428 566h476l-237 634zM335 1604l241 321h218l241 -321h-148l-201 202h-2l-201 -202h-148z" />
<glyph unicode="&#xc3;" horiz-adv-x="1366" vert-adv-y="2465" d="M19 0l562 1480h208l553 -1480h-226l-154 410h-594l-154 -410h-195zM428 566h476l-237 634zM352 1604q7 93 32 144q46 90 155 90q72 0 133 -38l60 -37q57 -35 87 -35q65 0 76 110h123q-7 -94 -32 -144q-45 -90 -153 -90q-72 0 -135 39l-60 37q-55 34 -87 34 q-65 0 -76 -110h-123z" />
<glyph unicode="&#xc4;" horiz-adv-x="1366" vert-adv-y="2465" d="M19 0l562 1480h208l553 -1480h-226l-154 410h-594l-154 -410h-195zM428 566h476l-237 634zM401 1604v173h173v-173h-173zM796 1604v173h173v-173h-173z" />
<glyph unicode="&#xc5;" horiz-adv-x="1366" vert-adv-y="2465" d="M19 0l562 1480h208l553 -1480h-226l-154 410h-594l-154 -410h-195zM428 566h476l-237 634zM685 1935q94 0 160 -66q67 -66 67 -160q0 -95 -67 -162q-67 -66 -162 -66q-83 0 -145 54q-80 69 -80 173q0 94 66 160q67 67 161 67zM685 1848q-59 0 -100 -40q-41 -41 -41 -100 q0 -58 41 -99q42 -42 98 -42q54 0 93 33q50 43 50 109q0 58 -42 99q-41 40 -99 40z" />
<glyph unicode="&#xc6;" horiz-adv-x="2048" vert-adv-y="2465" d="M597 569h418v658zM19 0l940 1480h988v-157h-722v-475h622v-155h-622v-536h765v-157h-975v414h-517l-262 -414h-217z" />
<glyph unicode="&#xc7;" horiz-adv-x="1479" vert-adv-y="2465" d="M1352 76q-229 -113 -490 -113q-365 0 -555 198q-191 198 -191 577q0 378 194 579q194 200 561 200q205 0 479 -65v-197q-311 105 -490 105q-251 0 -385 -160q-134 -159 -134 -460q0 -294 143 -453q143 -160 402 -160q217 0 466 129v-180zM767 0h97l-60 -109 q72 -2 124 -39q70 -49 70 -121q0 -68 -59 -115q-59 -48 -144 -48q-67 0 -144 21v81q50 -15 104 -15q104 0 104 74q0 93 -187 96z" />
<glyph unicode="&#xc8;" horiz-adv-x="1366" vert-adv-y="2465" d="M191 0v1480h1073v-157h-863v-475h764v-155h-764v-536h907v-157h-1117zM894 1604h-148l-321 321h228z" />
<glyph unicode="&#xc9;" horiz-adv-x="1366" vert-adv-y="2465" d="M191 0v1480h1073v-157h-863v-475h764v-155h-764v-536h907v-157h-1117zM598 1604l241 321h228l-321 -321h-148z" />
<glyph unicode="&#xca;" horiz-adv-x="1366" vert-adv-y="2465" d="M191 0v1480h1073v-157h-863v-475h764v-155h-764v-536h907v-157h-1117zM399 1604l241 321h218l241 -321h-148l-201 202h-2l-201 -202h-148z" />
<glyph unicode="&#xcb;" horiz-adv-x="1366" vert-adv-y="2465" d="M191 0v1480h1073v-157h-863v-475h764v-155h-764v-536h907v-157h-1117zM450 1604v173h173v-173h-173zM845 1604v173h173v-173h-173z" />
<glyph unicode="&#xcc;" horiz-adv-x="569" vert-adv-y="2465" d="M180 0v1480h210v-1480h-210zM433 1604h-148l-321 321h228z" />
<glyph unicode="&#xcd;" horiz-adv-x="569" vert-adv-y="2465" d="M180 0v1480h210v-1480h-210zM137 1604l241 321h228l-321 -321h-148z" />
<glyph unicode="&#xce;" horiz-adv-x="569" vert-adv-y="2465" d="M180 0v1480h210v-1480h-210zM-65 1604l241 321h218l241 -321h-148l-201 202h-2l-201 -202h-148z" />
<glyph unicode="&#xcf;" horiz-adv-x="569" vert-adv-y="2465" d="M180 0v1480h210v-1480h-210zM1 1604v173h173v-173h-173zM396 1604v173h173v-173h-173z" />
<glyph unicode="&#xd0;" horiz-adv-x="1479" vert-adv-y="2465" d="M165 0v679h-160v157h160v644h474q747 0 747 -706q0 -368 -195 -571t-549 -203h-477zM375 157h252q534 0 534 593q0 349 -211 492q-62 42 -147 60q-103 21 -273 21h-155v-487h333v-157h-333v-522z" />
<glyph unicode="&#xd1;" horiz-adv-x="1479" vert-adv-y="2465" d="M165 0v1480h205l763 -1143v1143h180v-1480h-206l-762 1143v-1143h-180zM432 1604q7 94 32 144q46 90 155 90q71 0 133 -38l60 -37q57 -35 87 -35q65 0 76 110h123q-7 -94 -32 -144q-45 -90 -153 -90q-72 0 -135 39l-60 37q-55 34 -87 34q-65 0 -76 -110h-123z" />
<glyph unicode="&#xd2;" horiz-adv-x="1593" vert-adv-y="2465" d="M796 1517q319 0 512 -211q192 -212 192 -564q0 -359 -192 -569q-193 -210 -522 -210q-282 0 -465 173q-229 217 -229 604q0 355 192 566t512 211zM796 1360q-227 0 -353 -163t-126 -456q0 -291 126 -456q125 -165 348 -165q207 0 330 132q154 163 154 490q0 292 -127 455 t-352 163zM944 1604h-148l-321 321h228z" />
<glyph unicode="&#xd3;" horiz-adv-x="1593" vert-adv-y="2465" d="M796 1517q319 0 512 -211q192 -212 192 -564q0 -359 -192 -569q-193 -210 -522 -210q-282 0 -465 173q-229 217 -229 604q0 355 192 566t512 211zM796 1360q-227 0 -353 -163t-126 -456q0 -291 126 -456q125 -165 348 -165q207 0 330 132q154 163 154 490q0 292 -127 455 t-352 163zM648 1604l241 321h228l-321 -321h-148z" />
<glyph unicode="&#xd4;" horiz-adv-x="1593" vert-adv-y="2465" d="M796 1517q319 0 512 -211q192 -212 192 -564q0 -359 -192 -569q-193 -210 -522 -210q-282 0 -465 173q-229 217 -229 604q0 355 192 566t512 211zM796 1360q-227 0 -353 -163t-126 -456q0 -291 126 -456q125 -165 348 -165q207 0 330 132q154 163 154 490q0 292 -127 455 t-352 163zM446 1604l241 321h218l241 -321h-148l-201 202h-2l-201 -202h-148z" />
<glyph unicode="&#xd5;" horiz-adv-x="1593" vert-adv-y="2465" d="M796 1517q319 0 512 -211q192 -212 192 -564q0 -359 -192 -569q-193 -210 -522 -210q-282 0 -465 173q-229 217 -229 604q0 355 192 566t512 211zM796 1360q-227 0 -353 -163t-126 -456q0 -291 126 -456q125 -165 348 -165q207 0 330 132q154 163 154 490q0 292 -127 455 t-352 163zM463 1604q7 93 32 144q46 90 155 90q72 0 133 -38l60 -37q57 -35 87 -35q65 0 76 110h123q-7 -94 -32 -144q-45 -90 -153 -90q-72 0 -135 39l-60 37q-55 34 -87 34q-65 0 -76 -110h-123z" />
<glyph unicode="&#xd6;" horiz-adv-x="1593" vert-adv-y="2465" d="M796 1517q319 0 512 -211q192 -212 192 -564q0 -359 -192 -569q-193 -210 -522 -210q-282 0 -465 173q-229 217 -229 604q0 355 192 566t512 211zM796 1360q-227 0 -353 -163t-126 -456q0 -291 126 -456q125 -165 348 -165q207 0 330 132q154 163 154 490q0 292 -127 455 t-352 163zM512 1604v173h173v-173h-173zM907 1604v173h173v-173h-173z" />
<glyph unicode="&#xd7;" horiz-adv-x="1196" vert-adv-y="2465" d="M118 217l375 375l-375 375l105 105l375 -375l375 375l105 -105l-375 -375l375 -375l-105 -105l-375 375l-375 -375z" />
<glyph unicode="&#xd8;" horiz-adv-x="1593" vert-adv-y="2465" d="M104 -37l174 221q-82 102 -124 206q-61 155 -61 352q0 352 192 564q191 211 510 211q243 0 428 -133l106 133h172l-179 -227q79 -102 120 -205q59 -153 59 -347q0 -353 -192 -564q-191 -211 -511 -211q-235 0 -420 128l-102 -128h-172zM491 235q130 -115 307 -115 q225 0 351 163q127 163 127 454q0 232 -82 390zM1110 1240q-134 120 -314 120q-225 0 -351 -163q-127 -163 -127 -454q0 -236 87 -398z" />
<glyph unicode="&#xd9;" horiz-adv-x="1479" vert-adv-y="2465" d="M166 1480h210v-934q0 -158 26 -232q25 -73 97 -124q100 -70 269 -70q199 0 279 94q81 93 81 325v941h184v-938q0 -198 -39 -300q-39 -103 -144 -178q-142 -101 -379 -101q-302 0 -443 140t-141 445v932zM900 1604h-148l-321 321h228z" />
<glyph unicode="&#xda;" horiz-adv-x="1479" vert-adv-y="2465" d="M166 1480h210v-934q0 -158 26 -232q25 -73 97 -124q100 -70 269 -70q199 0 279 94q81 93 81 325v941h184v-938q0 -198 -39 -300q-39 -103 -144 -178q-142 -101 -379 -101q-302 0 -443 140t-141 445v932zM604 1604l241 321h228l-321 -321h-148z" />
<glyph unicode="&#xdb;" horiz-adv-x="1479" vert-adv-y="2465" d="M166 1480h210v-934q0 -158 26 -232q25 -73 97 -124q100 -70 269 -70q199 0 279 94q81 93 81 325v941h184v-938q0 -198 -39 -300q-39 -103 -144 -178q-142 -101 -379 -101q-302 0 -443 140t-141 445v932zM402 1604l241 321h218l241 -321h-148l-201 202h-2l-201 -202h-148z " />
<glyph unicode="&#xdc;" horiz-adv-x="1479" vert-adv-y="2465" d="M166 1480h210v-934q0 -158 26 -232q25 -73 97 -124q100 -70 269 -70q199 0 279 94q81 93 81 325v941h184v-938q0 -198 -39 -300q-39 -103 -144 -178q-142 -101 -379 -101q-302 0 -443 140t-141 445v932zM468 1604v173h173v-173h-173zM863 1604v173h173v-173h-173z" />
<glyph unicode="&#xdd;" horiz-adv-x="1366" vert-adv-y="2465" d="M561 0v617l-531 863h240l421 -685l451 685h195l-566 -858v-622h-210zM543 1604l241 321h228l-321 -321h-148z" />
<glyph unicode="&#xde;" horiz-adv-x="1366" vert-adv-y="2465" d="M167 0v1480h210v-279h370q228 0 328 -27q100 -26 164 -103q79 -95 79 -261q0 -502 -633 -502h-310v-308h-208zM375 467h301q420 0 420 329q0 160 -109 207q-93 40 -306 40h-306v-576z" />
<glyph unicode="&#xdf;" horiz-adv-x="1251" vert-adv-y="2465" d="M129 0v1151q0 255 91 354q93 99 329 99q381 0 381 -271q0 -130 -130 -270q-103 -112 -103 -164q0 -68 111 -150l185 -137q172 -127 172 -317q0 -320 -376 -320q-165 0 -302 55v172q187 -79 302 -79q191 0 191 153q0 101 -115 189l-215 164q-129 98 -129 212q0 95 114 243 q98 128 98 215q0 157 -197 157q-117 0 -164 -49q-46 -49 -46 -173v-1234h-197z" />
<glyph unicode="&#xe0;" vert-adv-y="2465" d="M95 0zM774 138q-185 -163 -360 -163q-141 0 -230 83q-89 84 -89 215q0 369 604 369h46v131q0 189 -209 189q-162 0 -347 -96v163q205 81 385 81q192 0 280 -81q88 -80 88 -256v-492q0 -169 104 -169q14 0 38 4l14 -109q-73 -32 -146 -32q-68 0 -112 38q-43 37 -66 125z M745 245v281l-65 2q-60 2 -133 -9q-248 -35 -248 -216q0 -167 181 -167q126 0 265 109zM727 1283h-148l-321 321h228z" />
<glyph unicode="&#xe1;" vert-adv-y="2465" d="M95 0zM774 138q-185 -163 -360 -163q-141 0 -230 83q-89 84 -89 215q0 369 604 369h46v131q0 189 -209 189q-162 0 -347 -96v163q205 81 385 81q192 0 280 -81q88 -80 88 -256v-492q0 -169 104 -169q14 0 38 4l14 -109q-73 -32 -146 -32q-68 0 -112 38q-43 37 -66 125z M745 245v281l-65 2q-60 2 -133 -9q-248 -35 -248 -216q0 -167 181 -167q126 0 265 109zM430 1283l241 321h228l-321 -321h-148z" />
<glyph unicode="&#xe2;" vert-adv-y="2465" d="M95 0zM774 138q-185 -163 -360 -163q-141 0 -230 83q-89 84 -89 215q0 369 604 369h46v131q0 189 -209 189q-162 0 -347 -96v163q205 81 385 81q192 0 280 -81q88 -80 88 -256v-492q0 -169 104 -169q14 0 38 4l14 -109q-73 -32 -146 -32q-68 0 -112 38q-43 37 -66 125z M745 245v281l-65 2q-60 2 -133 -9q-248 -35 -248 -216q0 -167 181 -167q126 0 265 109zM229 1283l241 321h218l241 -321h-148l-201 202h-2l-201 -202h-148z" />
<glyph unicode="&#xe3;" vert-adv-y="2465" d="M95 0zM774 138q-185 -163 -360 -163q-141 0 -230 83q-89 84 -89 215q0 369 604 369h46v131q0 189 -209 189q-162 0 -347 -96v163q205 81 385 81q192 0 280 -81q88 -80 88 -256v-492q0 -169 104 -169q14 0 38 4l14 -109q-73 -32 -146 -32q-68 0 -112 38q-43 37 -66 125z M745 245v281l-65 2q-60 2 -133 -9q-248 -35 -248 -216q0 -167 181 -167q126 0 265 109zM214 1283q7 93 32 144q46 90 155 90q72 0 133 -38l60 -37q57 -35 87 -35q65 0 76 110h123q-7 -94 -32 -144q-45 -90 -153 -90q-72 0 -135 39l-60 37q-55 34 -87 34q-65 0 -76 -110h-123 z" />
<glyph unicode="&#xe4;" vert-adv-y="2465" d="M95 0zM774 138q-185 -163 -360 -163q-141 0 -230 83q-89 84 -89 215q0 369 604 369h46v131q0 189 -209 189q-162 0 -347 -96v163q205 81 385 81q192 0 280 -81q88 -80 88 -256v-492q0 -169 104 -169q14 0 38 4l14 -109q-73 -32 -146 -32q-68 0 -112 38q-43 37 -66 125z M745 245v281l-65 2q-60 2 -133 -9q-248 -35 -248 -216q0 -167 181 -167q126 0 265 109zM276 1283v173h173v-173h-173zM671 1283v173h173v-173h-173z" />
<glyph unicode="&#xe5;" vert-adv-y="2465" d="M95 0zM774 138q-185 -163 -360 -163q-141 0 -230 83q-89 84 -89 215q0 369 604 369h46v131q0 189 -209 189q-162 0 -347 -96v163q205 81 385 81q192 0 280 -81q88 -80 88 -256v-492q0 -169 104 -169q14 0 38 4l14 -109q-73 -32 -146 -32q-68 0 -112 38q-43 37 -66 125z M745 245v281l-65 2q-60 2 -133 -9q-248 -35 -248 -216q0 -167 181 -167q126 0 265 109zM579 1737q94 0 160 -66q67 -66 67 -160q0 -96 -67 -162q-66 -66 -162 -66q-83 0 -145 54q-80 69 -80 173q0 94 66 160q66 67 161 67zM579 1650q-58 0 -100 -41q-41 -40 -41 -99 q0 -58 41 -99q41 -42 98 -42q54 0 93 33q50 43 50 109q0 58 -42 98q-41 41 -99 41z" />
<glyph unicode="&#xe6;" horiz-adv-x="1821" vert-adv-y="2465" d="M767 245v281l-75 2q-65 2 -141 -9q-259 -36 -259 -216q0 -167 199 -167q137 0 276 109zM916 983q151 127 343 127q442 0 442 -537v-61h-740q12 -117 38 -178q90 -209 365 -209q151 0 332 66v-156q-205 -60 -378 -60q-191 0 -321 87q-72 48 -139 143q-115 -123 -197 -172 q-99 -58 -234 -58q-150 0 -241 82q-91 83 -91 215q0 370 626 370h46v131q0 105 -49 147t-171 42q-171 0 -358 -96v163q206 81 392 81q226 0 335 -127zM971 660h532q-3 96 -20 146q-53 156 -232 156q-125 0 -195 -73q-67 -69 -85 -229z" />
<glyph unicode="&#xe7;" horiz-adv-x="1024" vert-adv-y="2465" d="M86 0zM926 33q-181 -58 -341 -58q-225 0 -362 158q-137 157 -137 410q0 266 140 416q139 151 390 151q126 0 298 -36v-164q-164 49 -262 49q-344 0 -344 -416q0 -196 89 -302q88 -107 247 -107q121 0 282 69v-170zM544 0h97l-60 -109q72 -2 124 -39q70 -49 70 -121 q0 -68 -59 -115q-58 -48 -145 -48q-67 0 -143 21v81q50 -15 104 -15q104 0 104 74q0 93 -187 96z" />
<glyph unicode="&#xe8;" vert-adv-y="2465" d="M86 0zM818 660q-3 98 -20 149q-52 154 -226 154q-121 0 -191 -72q-68 -69 -85 -231h522zM1013 191v-156q-203 -60 -372 -60q-255 0 -405 158t-150 424q0 253 133 403q132 150 358 150q259 0 366 -184q79 -137 76 -353l-1 -61h-725q12 -119 39 -181q88 -206 351 -206 q149 0 330 66zM718 1283h-148l-321 321h228z" />
<glyph unicode="&#xe9;" vert-adv-y="2465" d="M86 0zM818 660q-3 98 -20 149q-52 154 -226 154q-121 0 -191 -72q-68 -69 -85 -231h522zM1013 191v-156q-203 -60 -372 -60q-255 0 -405 158t-150 424q0 253 133 403q132 150 358 150q259 0 366 -184q79 -137 76 -353l-1 -61h-725q12 -119 39 -181q88 -206 351 -206 q149 0 330 66zM422 1283l241 321h228l-321 -321h-148z" />
<glyph unicode="&#xea;" vert-adv-y="2465" d="M86 0zM818 660q-3 98 -20 149q-52 154 -226 154q-121 0 -191 -72q-68 -69 -85 -231h522zM1013 191v-156q-203 -60 -372 -60q-255 0 -405 158t-150 424q0 253 133 403q132 150 358 150q259 0 366 -184q79 -137 76 -353l-1 -61h-725q12 -119 39 -181q88 -206 351 -206 q149 0 330 66zM231 1283l241 321h218l241 -321h-148l-201 202h-2l-201 -202h-148z" />
<glyph unicode="&#xeb;" vert-adv-y="2465" d="M86 0zM818 660q-3 98 -20 149q-52 154 -226 154q-121 0 -191 -72q-68 -69 -85 -231h522zM1013 191v-156q-203 -60 -372 -60q-255 0 -405 158t-150 424q0 253 133 403q132 150 358 150q259 0 366 -184q79 -137 76 -353l-1 -61h-725q12 -119 39 -181q88 -206 351 -206 q149 0 330 66zM298 1283v173h173v-173h-173zM693 1283v173h173v-173h-173z" />
<glyph unicode="&#xec;" horiz-adv-x="455" vert-adv-y="2465" d="M0 0zM128 0v1086h197v-1086h-197zM375 1283h-148l-321 321h228z" />
<glyph unicode="&#xed;" horiz-adv-x="455" vert-adv-y="2465" d="M79 0zM128 0v1086h197v-1086h-197zM79 1283l241 321h228l-321 -321h-148z" />
<glyph unicode="&#xee;" horiz-adv-x="455" vert-adv-y="2465" d="M0 0zM128 0v1086h197v-1086h-197zM-123 1283l241 321h218l241 -321h-148l-201 202h-2l-201 -202h-148z" />
<glyph unicode="&#xef;" horiz-adv-x="455" vert-adv-y="2465" d="M129 0v1086h197v-1086h-197zM-56 1283v173h173v-173h-173zM339 1283v173h173v-173h-173z" />
<glyph unicode="&#xf0;" vert-adv-y="2465" d="M126 1434v149q200 0 362 -76l154 169l79 -88l-130 -143q125 -96 192 -171q269 -299 269 -724q0 -269 -128 -422t-349 -153q-224 0 -356 152q-133 152 -133 408q0 258 130 404q129 147 354 147q54 0 120 -14q-77 145 -217 244l-149 -164l-79 87l128 141q-102 54 -247 54z M566 938q-127 0 -198 -106q-72 -106 -72 -301q0 -408 274 -408q272 0 272 407q0 408 -276 408z" />
<glyph unicode="&#xf1;" vert-adv-y="2465" d="M154 0zM154 0v1086h197v-204q73 101 144 153q103 75 226 75q276 0 276 -330v-780h-198v716q0 132 -27 178q-28 47 -104 47q-162 0 -317 -238v-703h-197zM229 1283q7 93 32 144q46 90 155 90q72 0 133 -38l60 -37q57 -35 87 -35q65 0 76 110h123q-7 -94 -32 -144 q-45 -90 -153 -90q-72 0 -135 39l-60 37q-55 34 -87 34q-65 0 -76 -110h-123z" />
<glyph unicode="&#xf2;" vert-adv-y="2465" d="M86 0zM569 1110q223 0 353 -152q130 -151 130 -414q0 -267 -130 -418t-360 -151q-197 0 -320 125q-156 157 -156 443q0 263 130 415t353 152zM569 962q-270 0 -270 -418q0 -421 269 -421q271 0 271 424q0 415 -270 415zM717 1283h-148l-321 321h228z" />
<glyph unicode="&#xf3;" vert-adv-y="2465" d="M86 0zM569 1110q223 0 353 -152q130 -151 130 -414q0 -267 -130 -418t-360 -151q-197 0 -320 125q-156 157 -156 443q0 263 130 415t353 152zM569 962q-270 0 -270 -418q0 -421 269 -421q271 0 271 424q0 415 -270 415zM421 1283l241 321h228l-321 -321h-148z" />
<glyph unicode="&#xf4;" vert-adv-y="2465" d="M86 0zM569 1110q223 0 353 -152q130 -151 130 -414q0 -267 -130 -418t-360 -151q-197 0 -320 125q-156 157 -156 443q0 263 130 415t353 152zM569 962q-270 0 -270 -418q0 -421 269 -421q271 0 271 424q0 415 -270 415zM219 1283l241 321h218l241 -321h-148l-201 202h-2 l-201 -202h-148z" />
<glyph unicode="&#xf5;" vert-adv-y="2465" d="M86 0zM569 1110q223 0 353 -152q130 -151 130 -414q0 -267 -130 -418t-360 -151q-197 0 -320 125q-156 157 -156 443q0 263 130 415t353 152zM569 962q-270 0 -270 -418q0 -421 269 -421q271 0 271 424q0 415 -270 415zM236 1283q7 93 32 144q46 90 155 90q72 0 133 -38 l60 -37q57 -35 87 -35q65 0 76 110h123q-7 -94 -32 -144q-45 -90 -153 -90q-72 0 -135 39l-60 37q-55 34 -87 34q-65 0 -76 -110h-123z" />
<glyph unicode="&#xf6;" vert-adv-y="2465" d="M86 0zM569 1110q223 0 353 -152q130 -151 130 -414q0 -267 -130 -418t-360 -151q-197 0 -320 125q-156 157 -156 443q0 263 130 415t353 152zM569 962q-270 0 -270 -418q0 -421 269 -421q271 0 271 424q0 415 -270 415zM285 1283v173h173v-173h-173zM680 1283v173h173 v-173h-173z" />
<glyph unicode="&#xf7;" horiz-adv-x="1196" vert-adv-y="2465" d="M104 518v148h987v-148h-987zM474 938v246h247v-246h-247zM474 0v247h247v-247h-247z" />
<glyph unicode="&#xf8;" horiz-adv-x="1251" vert-adv-y="2465" d="M348 59l-61 -84h-144l121 167q-121 167 -121 402q0 264 130 415t357 151q160 0 274 -83l61 83h144l-121 -167q121 -168 121 -401q0 -262 -130 -414q-129 -153 -354 -153q-160 0 -277 84zM450 201l2 -2q42 -42 77 -57q45 -19 96 -19q271 0 271 421q0 125 -30 231zM802 885 l-2 2q-75 75 -173 75q-271 0 -271 -415q0 -142 30 -237z" />
<glyph unicode="&#xf9;" vert-adv-y="2465" d="M142 0zM787 0v203q-73 -101 -143 -153q-103 -75 -226 -75q-276 0 -276 331v780h197v-716q0 -131 27 -178q28 -47 104 -47q162 0 317 237v704h197v-1086h-197zM723 1283h-148l-321 321h228z" />
<glyph unicode="&#xfa;" vert-adv-y="2465" d="M142 0zM787 0v203q-73 -101 -143 -153q-103 -75 -226 -75q-276 0 -276 331v780h197v-716q0 -131 27 -178q28 -47 104 -47q162 0 317 237v704h197v-1086h-197zM415 1283l241 321h228l-321 -321h-148z" />
<glyph unicode="&#xfb;" vert-adv-y="2465" d="M142 0zM787 0v203q-73 -101 -143 -153q-103 -75 -226 -75q-276 0 -276 331v780h197v-716q0 -131 27 -178q28 -47 104 -47q162 0 317 237v704h197v-1086h-197zM213 1283l241 321h218l241 -321h-148l-201 202h-2l-201 -202h-148z" />
<glyph unicode="&#xfc;" vert-adv-y="2465" d="M142 0zM787 0v203q-73 -101 -143 -153q-103 -75 -226 -75q-276 0 -276 331v780h197v-716q0 -131 27 -178q28 -47 104 -47q162 0 317 237v704h197v-1086h-197zM279 1283v173h173v-173h-173zM674 1283v173h173v-173h-173z" />
<glyph unicode="&#xfd;" horiz-adv-x="1024" vert-adv-y="2465" d="M19 0zM404 0l-385 1086h200l295 -833l324 833h174l-574 -1481h-205zM366 1283l241 321h228l-321 -321h-148z" />
<glyph unicode="&#xfe;" vert-adv-y="2465" d="M351 -395h-197v1974h197v-697q56 102 118 154q88 74 207 74q169 0 272 -147q104 -147 104 -391q0 -285 -134 -441q-133 -156 -378 -156q-91 0 -189 25v-395zM351 703v-554q137 -26 206 -26q282 0 282 429q0 181 -56 283q-55 103 -149 103q-126 0 -283 -235z" />
<glyph unicode="&#xff;" horiz-adv-x="1024" vert-adv-y="2465" d="M19 0zM404 0l-385 1086h200l295 -833l324 833h174l-574 -1481h-205zM245 1283v173h173v-173h-173zM640 1283v173h173v-173h-173z" />
<glyph unicode="&#x131;" horiz-adv-x="455" vert-adv-y="2465" d="M129 0v1086h197v-1086h-197z" />
<glyph unicode="&#x152;" horiz-adv-x="2048" vert-adv-y="2465" d="M1129 0v58q-164 -95 -354 -95q-306 0 -494 214t-188 563q0 355 189 566t503 211q182 0 344 -94v57h818v-157h-608v-475h509v-155h-509v-536h652v-157h-862zM1129 569v342q0 236 -81 342q-81 107 -260 107q-223 0 -347 -163q-125 -163 -125 -457t125 -457 q126 -163 348 -163q340 0 340 449z" />
<glyph unicode="&#x153;" horiz-adv-x="1933" vert-adv-y="2465" d="M990 910q64 89 135 134q105 66 250 66q258 0 359 -183q75 -136 78 -415h-713q18 -191 92 -279q92 -110 303 -110q155 0 318 71v-157q-192 -62 -368 -62q-180 0 -287 58q-80 44 -162 141q-61 -88 -133 -133q-107 -66 -256 -66q-238 0 -379 154t-141 414q0 262 142 414 q141 153 380 153q156 0 264 -75q62 -43 118 -125zM608 962q-313 0 -313 -415q0 -182 61 -287q79 -137 254 -137q288 0 288 420q0 193 -60 297q-70 122 -230 122zM1105 648h497q-3 128 -34 196q-55 118 -197 118q-138 0 -205 -105q-46 -71 -61 -209z" />
<glyph unicode="&#x178;" horiz-adv-x="1366" vert-adv-y="2465" d="M561 0v617l-531 863h240l421 -685l451 685h195l-566 -858v-622h-210zM422 1604v173h173v-173h-173zM817 1604v173h173v-173h-173z" />
<glyph unicode="&#x2c6;" horiz-adv-x="682" vert-adv-y="2465" d="M-9 1283l241 321h218l241 -321h-148l-201 202h-2l-201 -202h-148z" />
<glyph unicode="&#x2da;" horiz-adv-x="682" vert-adv-y="2465" d="M341 1737q94 0 160 -66q67 -66 67 -160q0 -96 -67 -162q-66 -66 -162 -66q-83 0 -145 54q-80 69 -80 173q0 94 66 160q66 67 161 67zM341 1650q-58 0 -100 -41q-41 -40 -41 -99q0 -58 41 -99q41 -42 98 -42q54 0 93 33q50 43 50 109q0 58 -42 98q-41 41 -99 41z" />
<glyph unicode="&#x2dc;" horiz-adv-x="682" vert-adv-y="2465" d="M8 1283q7 93 32 144q46 90 155 90q72 0 133 -38l60 -37q57 -35 87 -35q65 0 76 110h123q-7 -94 -32 -144q-45 -90 -153 -90q-72 0 -135 39l-60 37q-55 34 -87 34q-65 0 -76 -110h-123z" />
<glyph unicode="&#x2000;" horiz-adv-x="967" vert-adv-y="0" />
<glyph unicode="&#x2001;" horiz-adv-x="1935" vert-adv-y="0" />
<glyph unicode="&#x2002;" horiz-adv-x="967" vert-adv-y="0" />
<glyph unicode="&#x2003;" horiz-adv-x="1935" vert-adv-y="0" />
<glyph unicode="&#x2004;" horiz-adv-x="645" vert-adv-y="0" />
<glyph unicode="&#x2005;" horiz-adv-x="483" vert-adv-y="0" />
<glyph unicode="&#x2006;" horiz-adv-x="322" vert-adv-y="0" />
<glyph unicode="&#x2007;" horiz-adv-x="322" vert-adv-y="0" />
<glyph unicode="&#x2008;" horiz-adv-x="241" vert-adv-y="0" />
<glyph unicode="&#x2009;" horiz-adv-x="387" vert-adv-y="0" />
<glyph unicode="&#x200a;" horiz-adv-x="107" vert-adv-y="0" />
<glyph unicode="&#x2010;" horiz-adv-x="682" vert-adv-y="2465" d="M88 518v148h506v-148h-506z" />
<glyph unicode="&#x2011;" horiz-adv-x="682" vert-adv-y="2465" d="M88 518v148h506v-148h-506z" />
<glyph unicode="&#x2012;" horiz-adv-x="682" vert-adv-y="2465" d="M88 518v148h506v-148h-506z" />
<glyph unicode="&#x2013;" vert-adv-y="2465" d="M101 543v123h938v-123h-938z" />
<glyph unicode="&#x2014;" horiz-adv-x="2048" vert-adv-y="2465" d="M99 543v99h1851v-99h-1851z" />
<glyph unicode="&#x2018;" horiz-adv-x="455" vert-adv-y="2465" d="M339 1579v-74q-96 -27 -96 -226v-21h96v-246h-247v214q1 325 247 353z" />
<glyph unicode="&#x2019;" horiz-adv-x="455" vert-adv-y="2465" d="M116 1012v74q96 27 96 226v20h-96v247h247v-214q-1 -329 -247 -353z" />
<glyph unicode="&#x201a;" horiz-adv-x="455" vert-adv-y="2465" d="M104 -296v74q96 27 96 202v20h-96v247h247v-214q-1 -303 -247 -329z" />
<glyph unicode="&#x201c;" horiz-adv-x="682" vert-adv-y="2465" d="M600 1579v-74q-71 -37 -71 -224v-23h71v-197h-198v166q1 302 198 352zM254 1579v-74q-70 -37 -70 -224v-23h70v-197h-197v166q1 302 197 352z" />
<glyph unicode="&#x201d;" horiz-adv-x="682" vert-adv-y="2465" d="M82 1061v74q71 37 71 224v23h-71v197h197v-166q-1 -302 -197 -352zM427 1061v74q71 37 71 224v23h-71v197h198v-166q-1 -302 -198 -352z" />
<glyph unicode="&#x201e;" horiz-adv-x="682" vert-adv-y="2465" d="M70 -321v74q71 37 71 224v23h-71v197h197v-166q-1 -302 -197 -352zM415 -321v74q71 38 71 224v23h-71v197h198v-166q-1 -302 -198 -352z" />
<glyph unicode="&#x2022;" horiz-adv-x="717" vert-adv-y="2465" d="M359 1110q115 0 196 -82t81 -197q0 -114 -82 -195t-200 -81q-99 0 -175 66q-98 86 -98 212q0 115 82 196q81 81 196 81z" />
<glyph unicode="&#x2026;" horiz-adv-x="2048" vert-adv-y="2465" d="M247 0v197h197v-197h-197zM926 0v197h197v-197h-197zM1604 0v197h198v-197h-198z" />
<glyph unicode="&#x202f;" horiz-adv-x="387" vert-adv-y="0" />
<glyph unicode="&#x2039;" horiz-adv-x="682" vert-adv-y="2465" d="M567 913l-296 -370l296 -370l-98 -74l-395 444l395 444z" />
<glyph unicode="&#x203a;" horiz-adv-x="682" vert-adv-y="2465" d="M114 173l296 370l-296 370l99 74l394 -444l-394 -444z" />
<glyph unicode="&#x205f;" horiz-adv-x="483" vert-adv-y="0" />
<glyph unicode="&#x20ac;" vert-adv-y="2465" d="M377 537q39 -161 98 -249q107 -161 298 -161q125 0 307 72v-172q-196 -64 -332 -64q-232 0 -376 137q-102 97 -153 257q-19 58 -42 180h-177l51 123h111l-2 75q0 4 1 23q1 43 4 99h-165l51 124h132q40 166 88 251q158 283 511 283q126 0 297 -44v-182q-168 71 -295 71 q-177 0 -282 -128q-60 -74 -92 -166q-13 -36 -27 -85h567l-51 -124h-537q-4 -74 -5 -121l2 -76h459l-51 -123h-390z" />
<glyph unicode="&#x2122;" horiz-adv-x="2048" vert-adv-y="2465" d="M469 740v617h-247v123h666v-123h-247v-617h-172zM1012 740v740h233l156 -427l150 427h213v-740h-173v537l-163 -475h-118l-163 432v-494h-135z" />
<glyph unicode="&#xe000;" horiz-adv-x="1085" vert-adv-y="2170" d="M0 1085h1085v-1085h-1085v1085z" />
<glyph unicode="&#xfb01;" horiz-adv-x="1024" vert-adv-y="2465" d="M175 0v938h-144v148h144v130q0 388 308 388q65 0 147 -26v-157q-74 35 -126 35q-73 0 -102 -49q-29 -48 -29 -170v-151h523v-1086h-197v938h-326v-938h-198zM699 1283v197h197v-197h-197z" />
<glyph unicode="&#xfb02;" horiz-adv-x="1024" vert-adv-y="2465" d="M175 0v938h-144v148h144v130q0 388 303 388l220 -25h198v-1579h-198v1431l-41 8q-86 17 -145 17q-89 0 -117 -60q-23 -50 -23 -159v-151h178v-148h-178v-938h-197z" />
<glyph horiz-adv-x="569" vert-adv-y="2465" d="M0 0z" />
</font>
</defs>
</svg>
