<?xml version="1.0" standalone="no"?>
<!DOCTYPE svg PUBLIC "-//W3C//DTD SVG 1.1//EN" "http://www.w3.org/Graphics/SVG/1.1/DTD/svg11.dtd" >
<svg xmlns="http://www.w3.org/2000/svg">
<metadata></metadata>
<defs>
<font id="tiresias_infofontitalic" horiz-adv-x="1355" >
<font-face units-per-em="2048" ascent="1638" descent="-410" />
<missing-glyph horiz-adv-x="600" />
<glyph horiz-adv-x="2048" />
<glyph horiz-adv-x="2048" />
<glyph unicode="&#xd;" horiz-adv-x="600" />
<glyph unicode=" "  horiz-adv-x="600" />
<glyph unicode="&#x09;" horiz-adv-x="600" />
<glyph unicode="&#xa0;" horiz-adv-x="600" />
<glyph unicode="!" horiz-adv-x="692" d="M81 0l49 278h290l-49 -278h-290zM634 1489l-88 -499l-181 -584h-134l25 584l88 499h290z" />
<glyph unicode="&#x22;" horiz-adv-x="918" d="M152 976l54 513h255l-127 -513h-182zM529 976l54 513h255l-127 -513h-182z" />
<glyph unicode="#" horiz-adv-x="1808" d="M307 391h-294l100 193h296l169 326h-298l100 193h299l203 386h222l-203 -386h375l203 386h223l-203 -386h299l-103 -193h-297l-169 -326h302l-105 -193h-299l-204 -391h-222l204 391h-376l-204 -391h-222zM1006 584l170 326h-376l-169 -326h375z" />
<glyph unicode="$" horiz-adv-x="1240" d="M824 1285l-70 -397q287 -91 348 -265q32 -91 10 -214q-38 -215 -260 -343q-112 -64 -254 -84l-30 -167h-161l29 162q-232 24 -430 159l143 208q163 -127 327 -140l81 459q-162 52 -244 116q-118 91 -118 229q0 32 7 67q45 260 276 378q106 54 230 68l28 158h161l-28 -157 q182 -16 362 -139l-144 -197q-130 94 -263 99zM708 606l-69 -391q162 41 189 193q3 19 3 37q0 108 -123 161zM606 939l61 347q-150 -15 -177 -171q-3 -17 -3 -33q0 -100 119 -143z" />
<glyph unicode="%" horiz-adv-x="1800" d="M572 1512q208 0 266 -203q27 -95 7 -206q-42 -240 -229 -354q-89 -54 -188 -54q-207 0 -266 202q-27 94 -8 206q43 241 230 355q89 54 188 54zM544 1356q-140 0 -185 -253q-10 -61 -10 -107q0 -145 106 -145q140 0 184 252q11 61 11 108q0 145 -106 145zM1394 795 q208 0 266 -203q28 -95 8 -206q-42 -240 -229 -354q-89 -54 -189 -54q-206 0 -265 202q-28 94 -8 206q43 241 230 355q88 54 187 54zM1367 639q-140 0 -185 -253q-11 -61 -11 -107q0 -145 107 -145q140 0 184 252q11 61 11 108q0 145 -106 145zM224 -1l1150 1490h225 l-1150 -1490h-225z" />
<glyph unicode="&#x26;" horiz-adv-x="1516" d="M478 825q-128 134 -126 287q0 31 6 62q35 199 254 292q98 42 214 42q282 0 349 -210q22 -71 5 -168h-265q3 18 3 34q0 116 -124 116q-60 0 -108 -37q-51 -41 -51 -99q0 -66 72 -159l366 -480q40 53 60 112q18 54 34 164h236q-22 -249 -185 -469l238 -313l-352 1l-88 118 q-206 -145 -475 -145q-319 0 -410 214q-41 96 -22 202q36 204 205 337q76 60 164 99zM609 658q-192 -84 -218 -239q-4 -23 -4 -44q0 -84 61 -132q57 -44 144 -44q139 0 284 103z" />
<glyph unicode="'" horiz-adv-x="541" d="M152 976l54 513h255l-127 -513h-182z" />
<glyph unicode="(" horiz-adv-x="930" d="M750 1542l139 -95q-257 -320 -381 -664q-92 -256 -92 -506q0 -323 152 -650l-172 -95q-142 191 -214 423q-54 174 -54 353q0 468 361 938q122 159 261 296z" />
<glyph unicode=")" horiz-adv-x="930" d="M178 -468l-138 95q471 580 471 1162q0 339 -150 659l173 94q205 -292 253 -634q66 -470 -240 -939q-157 -241 -369 -437z" />
<glyph unicode="*" horiz-adv-x="885" d="M586 1512l-49 -273l275 97l34 -145l-280 -92l121 -220l-141 -92l-125 228l-197 -229l-119 92l195 221l-241 92l82 145l237 -96l48 272h160z" />
<glyph unicode="+" horiz-adv-x="1335" d="M1213 642h-447l-79 -452h-231l79 452h-446l39 221h446l80 452h231l-80 -452h447z" />
<glyph unicode="," horiz-adv-x="615" d="M239 -290h-217l250 568h294z" />
<glyph unicode="-" horiz-adv-x="841" d="M727 499h-617l39 220h617z" />
<glyph unicode="." horiz-adv-x="615" d="M452 0h-289l49 278h289z" />
<glyph unicode="/" horiz-adv-x="865" d="M247 0h-247l882 1489h246z" />
<glyph unicode="0" horiz-adv-x="1335" d="M815 1512q273 0 385 -237q64 -136 64 -316q0 -101 -20 -215q-56 -318 -231 -531q-196 -237 -469 -237q-272 0 -383 237q-67 142 -67 323q0 98 19 208q79 445 371 660q146 108 331 108zM777 1298q-187 0 -301 -271q-52 -123 -80 -283q-22 -126 -22 -225q0 -330 207 -330 q187 0 300 272q52 125 80 283q23 129 23 229q0 325 -207 325z" />
<glyph unicode="1" horiz-adv-x="875" d="M788 1489l-263 -1489h-261l206 1169q-163 -105 -346 -128l41 235q204 39 389 213h234z" />
<glyph unicode="2" horiz-adv-x="1109" d="M402 219h586l-39 -219h-957l36 206q473 352 665 558q152 164 174 289q5 30 5 56q0 177 -203 177q-155 0 -352 -170l-121 163q302 237 553 237q141 0 243 -64q112 -70 148 -199q24 -86 5 -194q-38 -215 -295 -471q-154 -153 -448 -369z" />
<glyph unicode="3" horiz-adv-x="1115" d="M301 732l25 141l460 391h-573l40 225h907l-36 -199l-418 -358q159 -5 261 -92q110 -94 110 -248q0 -46 -9 -97q-46 -264 -273 -403q-197 -121 -474 -121q-173 0 -319 49l40 231q178 -62 311 -62q234 0 349 131q59 67 78 172q5 27 4 51q-1 201 -349 197q-76 -1 -134 -8z " />
<glyph unicode="4" horiz-adv-x="1284" d="M68 499l688 990h262l-641 -953h384l84 481h258l-84 -481h224l-38 -215h-224l-57 -321h-258l57 321h-686z" />
<glyph unicode="5" horiz-adv-x="1138" d="M-1 20l41 233q153 -64 307 -64q159 0 265 72q116 79 142 229q5 25 5 47q1 203 -353 203q-101 0 -226 -21l136 770h831l-40 -225h-569l-56 -316q45 3 64 3q385 0 476 -216q27 -65 27 -145q0 -45 -9 -95q-47 -267 -258 -403q-188 -121 -473 -121q-169 0 -310 49z" />
<glyph unicode="6" horiz-adv-x="1244" d="M1175 1458l-80 -186q-98 38 -207 38q-239 0 -371 -204q-62 -96 -94 -228q139 70 313 70q283 0 368 -204q27 -63 27 -145q0 -50 -10 -107q-56 -317 -320 -452q-127 -65 -277 -65q-445 0 -445 495q0 121 27 271q58 332 250 540q215 232 535 232q154 0 284 -55zM381 648 q-19 -109 -19 -192q0 -267 199 -267q222 0 276 306q7 40 7 73q0 174 -190 174q-162 0 -273 -94z" />
<glyph unicode="7" horiz-adv-x="1161" d="M124 1489h1032l-33 -186l-832 -1303h-287l804 1265h-724z" />
<glyph unicode="8" horiz-adv-x="1305" d="M1178 412q-48 -271 -349 -382q-138 -51 -297 -51q-226 0 -364 107q-123 95 -123 248q0 37 8 78q38 220 332 390q-138 114 -138 272q0 34 7 70q41 234 296 325q118 42 266 42q283 0 385 -161q37 -58 37 -137q0 -34 -7 -71q-35 -198 -277 -341q230 -117 230 -319 q0 -34 -6 -70zM746 886q180 107 205 247q4 22 4 41q0 154 -194 154q-124 0 -193 -83q-50 -59 -50 -139q0 -156 228 -220zM587 688q-225 -117 -254 -279q-5 -29 -5 -54q0 -175 248 -175q108 0 191 48q95 55 112 154q3 14 3 27q4 162 -295 279z" />
<glyph unicode="9" horiz-adv-x="1244" d="M53 44l79 186q133 -53 250 -53q343 0 461 431q-127 -68 -311 -68q-214 0 -319 123q-77 90 -77 228q0 49 9 104q40 227 202 371q166 147 394 147q446 0 446 -496q0 -120 -26 -270q-56 -315 -235 -524q-209 -244 -552 -244q-161 0 -321 65zM885 839q19 109 19 193 q0 266 -200 266q-221 0 -274 -298q-7 -43 -7 -78q0 -174 179 -174q157 0 283 91z" />
<glyph unicode=":" horiz-adv-x="615" d="M352 0h-289l49 278h289zM256 1094h289l-49 -278h-289z" />
<glyph unicode=";" horiz-adv-x="615" d="M179 -290h-217l250 568h295zM356 1094h289l-49 -278h-289z" />
<glyph unicode="&#x3c;" horiz-adv-x="1335" d="M58 832l1263 513l-41 -235l-912 -358l786 -357l-42 -235l-1082 513z" />
<glyph unicode="=" horiz-adv-x="1335" d="M127 859l39 216h1124l-39 -216h-1124zM52 429l38 218h1124l-38 -218h-1124z" />
<glyph unicode="&#x3e;" horiz-adv-x="1335" d="M197 1110l41 235l1083 -513l-28 -159l-1264 -513l42 235l910 357z" />
<glyph unicode="?" horiz-adv-x="1056" d="M514 427h-268q27 140 42 184q32 97 97 168q57 62 199 177q119 97 131 168q12 70 -37 112q-45 39 -116 39q-164 0 -289 -182l-184 111q129 199 328 269q93 33 191 33q267 0 359 -169q31 -58 31 -133q0 -34 -6 -71q-16 -89 -91 -179q-53 -64 -151 -146q-74 -63 -155 -144 q-51 -68 -81 -237zM444 0h-278l49 278h278z" />
<glyph unicode="@" horiz-adv-x="2004" d="M1061 281q-124 -128 -270 -128q-198 0 -267 188q-32 87 -14 187q40 224 200 391q173 181 391 181q179 0 235 -154l55 119h177l-247 -579q-19 -44 -35 -92q-2 -10 -2 -19q0 -39 46 -39q156 0 282 203q60 97 82 222q11 64 11 122q0 188 -119 308q-149 150 -428 150 q-302 0 -528 -202q-220 -196 -273 -498q-14 -80 -14 -152q0 -214 125 -355q163 -184 472 -184q197 0 377 90q85 42 150 95h205q-183 -224 -486 -319q-144 -45 -290 -45q-381 0 -593 241q-166 189 -166 458q0 84 16 176q66 372 363.5 623t675.5 251q340 0 539 -196 q165 -161 165 -401q0 -69 -14 -144q-56 -319 -276 -483q-190 -142 -417 -142q-61 0 -98 33.5t-30 93.5zM732 556q-6 -34 -6 -62q0 -141 149 -141q161 0 281 193q52 82 66 163q14 79 -24 134.5t-117 55.5q-122 0 -228 -113q-99 -105 -121 -230z" />
<glyph unicode="A" d="M602 632h326l-77 487zM1028 0l-67 418h-466l-216 -418h-268l790 1489h248l263 -1489h-284z" />
<glyph unicode="B" horiz-adv-x="1335" d="M102 0l263 1489h394q320 0 400 -149q28 -52 28 -130q0 -45 -9 -99q-36 -201 -220 -306q258 -39 258 -295q0 -41 -8 -87q-75 -423 -620 -423h-486zM414 219h217q182 0 250 90q37 48 51 130q6 29 6 54q0 169 -229 169h-217zM530 881h163q181 0 218 207q4 24 4 45 q0 137 -183 137h-133z" />
<glyph unicode="C" horiz-adv-x="1150" d="M1168 1383l-169 -175q-100 82 -237 82q-216 0 -354 -256q-68 -127 -98 -295q-17 -102 -18 -185q0 -199 100 -297q69 -67 176 -67q134 0 297 102l93 -172q-213 -149 -440 -149q-210 0 -345 127q-131 122 -162 333q-21 142 8 308q55 310 257 528q222 240 521 240 q209 0 371 -124z" />
<glyph unicode="D" horiz-adv-x="1384" d="M509 0h-443l263 1489h417q336 0 467 -215q80 -133 80 -327q0 -95 -19 -204q-54 -305 -252 -514q-218 -229 -513 -229zM380 225h158q218 0 357 233q69 117 99 285q16 88 16 162q0 198 -112 296q-72 63 -177 63h-158z" />
<glyph unicode="E" horiz-adv-x="1167" d="M927 219l-39 -219h-859l263 1489h859l-39 -219h-586l-69 -389h485l-38 -219h-485l-78 -443h586z" />
<glyph unicode="F" horiz-adv-x="1121" d="M273 0h-273l263 1489h859l-39 -219h-586l-69 -389h485l-38 -219h-485z" />
<glyph unicode="G" horiz-adv-x="1349" d="M1114 160q-243 -183 -517 -183q-183 0 -310 99.5t-177 277.5q-27 98 -27 209q0 87 16 182q37 205 145 379q114 183 283 288q163 101 341 101q276 0 424 -171l-165 -170q-118 124 -282 124q-217 0 -355 -250q-69 -126 -100 -301q-17 -101 -17 -184q0 -216 119 -311 q74 -59 172 -59q109 0 209 66l68 383h-299l37 213h557z" />
<glyph unicode="H" horiz-adv-x="1441" d="M1370 1489l-263 -1489h-273l117 662h-485l-117 -662h-273l263 1489h273l-108 -608h485l108 608h273z" />
<glyph unicode="I" horiz-adv-x="803" d="M476 189h170l-33 -189h-613l33 189h170l196 1111h-170l34 189h613l-34 -189h-170z" />
<glyph unicode="J" horiz-adv-x="688" d="M-237 -484l40 228q239 17 347 168q59 81 82 212l241 1365h273l-237 -1339q-111 -633 -746 -634z" />
<glyph unicode="K" horiz-adv-x="1296" d="M765 0l-370 694l-122 -694h-273l263 1489h273l-110 -622l600 622h310l-685 -699l440 -790h-326z" />
<glyph unicode="L" horiz-adv-x="1054" d="M995 219l-39 -219h-814l263 1489h273l-224 -1270h541z" />
<glyph unicode="M" horiz-adv-x="1825" d="M795 1489l187 -833l476 833h295l-108 -1489h-278l83 1047l-418 -738h-230l-167 738l-288 -1047h-267l417 1489h298z" />
<glyph unicode="N" horiz-adv-x="1525" d="M86 0l263 1489h295l374 -1011l179 1011h267l-263 -1489h-290l-377 1024l-181 -1024h-267z" />
<glyph unicode="O" horiz-adv-x="1471" d="M883 1507q181 0 309 -103q124 -100 175 -276q29 -101 29 -215q0 -84 -16 -174q-36 -209 -141 -380q-113 -184 -282 -288q-164 -100 -345 -100q-182 0 -310 100t-178 276q-27 98 -27 210q0 87 16 182q37 206 145 379q114 183 284 288q164 101 341 101zM844 1288 q-178 0 -305 -193q-98 -151 -135 -356q-17 -100 -17 -183q0 -194 96 -296q66 -70 168 -70q209 0 346 265q64 123 92 284q17 96 17 177q0 126 -40 219q-66 153 -222 153z" />
<glyph unicode="P" horiz-adv-x="1267" d="M313 1489h426q477 0 477 -347q0 -52 -10 -111q-81 -458 -625 -458h-157l-101 -573h-273zM547 1270l-84 -478h161q265 0 307 239q6 33 6 62q0 177 -229 177h-161z" />
<glyph unicode="Q" horiz-adv-x="1471" d="M892 324q134 154 180 415q17 96 17 177q0 126 -40 219q-66 153 -222 153q-178 0 -305 -193q-98 -151 -135 -356q-17 -100 -17 -183q0 -194 96 -296q66 -70 168 -70q37 0 69 10l-127 252h252zM802 7q-99 -36 -207 -36q-182 0 -310 100t-178 276q-27 98 -27 210 q0 87 16 182q37 206 145 379q114 183 284 288q164 101 341 101q181 0 309 -103q124 -100 175 -276q29 -101 29 -215q0 -84 -16 -174q-70 -397 -365 -624l148 -290h-251z" />
<glyph unicode="R" horiz-adv-x="1342" d="M912 682l355 -682h-315l-335 645h-100l-114 -645h-273l263 1489h419q457 0 457 -327q0 -47 -10 -101q-50 -286 -347 -379zM627 1271l-73 -414h119q277 0 312 200q5 28 5 52q0 162 -219 162h-144z" />
<glyph unicode="S" horiz-adv-x="1227" d="M153 343q182 -146 376 -141q267 7 302 205q3 18 3 35q0 98 -107 151q-50 25 -200 81q-127 48 -193 90q-134 85 -134 245q0 38 7 79q48 271 317 380q126 51 271 51q272 0 437 -141l-141 -195q-158 105 -343 105q-223 0 -256 -189q-2 -13 -2 -25q0 -102 161 -154 q28 -8 100 -32q272 -93 344 -246q29 -60 29 -140q0 -44 -9 -94q-46 -260 -331 -376q-136 -55 -293 -55q-287 0 -481 159z" />
<glyph unicode="T" horiz-adv-x="1153" d="M38 1270l39 219h1063l-39 -219h-395l-224 -1270h-273l224 1270h-395z" />
<glyph unicode="U" horiz-adv-x="1437" d="M905 422l188 1066h272l-195 -1102q-45 -254 -302 -358q-129 -52 -303 -52q-195 0 -315 65q-153 82 -153 260q0 40 8 85l195 1102h272l-188 -1066q-6 -30 -6 -57q0 -170 226 -170q261 0 301 227z" />
<glyph unicode="V" d="M327 1489l177 -1112l572 1112h268l-789 -1489h-248l-264 1489h284z" />
<glyph unicode="W" horiz-adv-x="1852" d="M930 0l-118 761l-385 -761h-267l-118 1489h279l61 -1097l399 788h212l120 -790l470 1099h257l-642 -1489h-268z" />
<glyph unicode="X" horiz-adv-x="1295" d="M979 0l-231 573l-431 -573h-290l615 793l-294 696h290l197 -476l356 476h282l-540 -696l335 -793h-289z" />
<glyph unicode="Y" horiz-adv-x="1261" d="M246 0l102 578l-307 911h291l206 -627l431 627h279l-628 -911l-102 -578h-272z" />
<glyph unicode="Z" horiz-adv-x="1160" d="M269 1270l39 219h958l-37 -207l-888 -1063h733l-39 -219h-1035l37 211l886 1059h-654z" />
<glyph unicode="[" horiz-adv-x="927" d="M543 -469h-484l354 2004h484l-31 -176h-222l-292 -1653h222z" />
<glyph unicode="\" horiz-adv-x="865" d="M400 1489l355 -1489h-246l-356 1489h247z" />
<glyph unicode="]" horiz-adv-x="927" d="M48 -469l31 175h222l292 1653h-222l31 176h483l-354 -2004h-483z" />
<glyph unicode="^" horiz-adv-x="1384" d="M388 639h-243l587 850h207l284 -850h-241l-192 597z" />
<glyph unicode="_" horiz-adv-x="1024" d="M1006 -383h-1024l39 220h1024z" />
<glyph unicode="`" horiz-adv-x="1070" d="M681 1594l89 -314h-194l-188 314h293z" />
<glyph unicode="a" horiz-adv-x="1127" d="M406 861l-56 179q180 76 366 76q275 0 327 -177q29 -100 -3 -282l-116 -660h-256l14 81q-117 -102 -274 -102q-171 0 -258 98q-65 73 -65 186q0 39 8 83q41 237 309 311q122 34 269 34q62 0 112 -4q9 52 9 92q0 81 -40 112q-34 26 -117 26q-111 0 -229 -53zM712 280 l39 226q-32 6 -76 6q-307 0 -340 -186q-14 -77 37 -119q45 -36 124 -36q137 0 216 109z" />
<glyph unicode="b" horiz-adv-x="1207" d="M365 74l-13 -74h-253l279 1580h263l-99 -560q131 96 282 96q191 0 278 -146q58 -98 59 -235q1 -68 -13 -146q-44 -249 -159 -410q-145 -201 -370 -201q-162 0 -254 96zM506 818l-97 -553q81 -84 174 -84q218 0 289 402q12 69 12 123q0 198 -159 198q-101 0 -219 -86z" />
<glyph unicode="c" horiz-adv-x="1065" d="M821 269l79 -137q-205 -162 -415 -162q-291 0 -384 247q-29 75 -29 173q0 69 14 149q40 227 200 392q173 177 395 177q197 0 359 -150l-129 -155q-125 111 -257 112q-127 1 -208 -134q-58 -96 -84 -242q-14 -80 -14 -143q0 -234 194 -234q122 0 279 107z" />
<glyph unicode="d" horiz-adv-x="1207" d="M827 1024l97 555h263l-278 -1579h-252l16 91q-132 -114 -298 -114q-257 0 -319 254q-30 121 -3 273q43 246 160 408q145 203 367 203q151 0 247 -91zM695 276l97 551q-81 84 -174 84q-218 0 -289 -401q-12 -70 -12 -124q0 -196 159 -196q103 0 219 86z" />
<glyph unicode="e" horiz-adv-x="1153" d="M903 307l78 -144q-228 -187 -475 -187q-219 0 -332 160q-81 114 -81 276q0 63 13 134q40 232 192 392q166 176 391 176q284 0 366 -265q23 -75 23 -172q0 -89 -19 -196h-689q-6 -45 -7 -83q-1 -228 208 -228q140 0 332 137zM409 666h403q1 24 1 47q0 208 -158 208 q-176 0 -246 -255z" />
<glyph unicode="f" horiz-adv-x="782" d="M903 1530l-97 -177q-77 39 -126 39q-127 0 -167 -228l-12 -70h264l-35 -199h-264l-158 -895h-263l158 895h-199l35 199h199l13 75q46 259 213 374q85 58 196 58q120 0 243 -71z" />
<glyph unicode="g" horiz-adv-x="1208" d="M902 1019l11 64h263l-195 -1108q-38 -214 -190 -323q-141 -102 -365 -102q-233 0 -375 127l134 153q114 -86 251 -86q243 0 289 258l14 81q-138 -115 -301 -115q-251 0 -311 253q-28 119 -1 272q67 378 287 533q111 78 249 78q146 0 240 -85zM769 264l97 551 q-82 84 -176 84q-217 0 -287 -399q-12 -68 -13 -122q-1 -199 158 -199q106 0 221 85z" />
<glyph unicode="h" horiz-adv-x="1220" d="M1147 852l-150 -852h-263l133 754q4 21 4 40q-1 98 -118 98q-111 0 -250 -95l-141 -797h-263l279 1580h263l-102 -579q195 115 373 115q184 0 228 -122q22 -59 7 -142z" />
<glyph unicode="i" horiz-adv-x="599" d="M491 1094l-193 -1094h-263l193 1094h263zM524 1284h-263l53 296h263z" />
<glyph unicode="j" horiz-adv-x="599" d="M361 1094h263l-194 -1102q-49 -275 -223 -383q-84 -52 -192 -52q-121 0 -240 71l96 181q68 -33 113 -33q145 0 189 255zM657 1284h-263l53 296h263z" />
<glyph unicode="k" horiz-adv-x="1131" d="M1019 0h-317l-312 519l-92 -519h-263l279 1580h263l-154 -869l400 383h308l-501 -474z" />
<glyph unicode="l" horiz-adv-x="648" d="M529 198l37 -172q-124 -50 -243 -50q-155 0 -208 75q-34 49 -34 143q0 61 14 140l219 1244h263l-210 -1196q-20 -113 -9 -153q14 -51 81 -51q38 0 90 20z" />
<glyph unicode="m" horiz-adv-x="1856" d="M1135 802l-141 -802h-263l133 754q4 21 4 38q0 100 -118 100q-107 0 -250 -90l-141 -802h-263l193 1094h263l-16 -93q195 115 373 115q182 0 230 -134q210 134 406 134q179 0 227 -123q23 -58 8 -141l-150 -852h-263l133 754q4 21 4 38q0 100 -118 100q-112 0 -251 -90z " />
<glyph unicode="n" horiz-adv-x="1220" d="M1141 852l-150 -852h-263l133 754q4 21 4 38q0 100 -119 100q-110 0 -249 -91l-141 -801h-263l193 1094h263l-16 -93q195 115 372 115q180 0 228 -123q23 -58 8 -141z" />
<glyph unicode="o" horiz-adv-x="1155" d="M695 1114q294 0 373 -279q38 -130 9 -290q-59 -338 -317 -494q-124 -75 -266 -75q-295 0 -375 279q-37 130 -9 290q60 339 319 495q122 74 266 74zM660 920q-208 0 -274 -375q-16 -90 -16 -159q0 -216 158 -216q207 0 273 375q16 86 16 153q0 222 -157 222z" />
<glyph unicode="p" horiz-adv-x="1207" d="M301 1094h253l-17 -93q126 115 289 115q215 0 296 -161q48 -96 48 -223q0 -67 -13 -143q-70 -391 -292 -539q-108 -72 -236 -72q-156 0 -246 91l-85 -481h-263zM513 810l-96 -545q82 -84 175 -84q218 0 288 402q13 68 13 122q1 199 -159 199q-107 0 -221 -94z" />
<glyph unicode="q" horiz-adv-x="1207" d="M731 276l97 550q-77 86 -174 86q-218 0 -288 -401q-13 -70 -13 -125q0 -196 159 -196q109 0 219 86zM873 -412h-263l88 499q-120 -109 -286 -109q-188 0 -276 147q-60 99 -60 239q0 66 14 141q44 249 157 409q144 202 366 202q163 0 260 -98l14 76h252z" />
<glyph unicode="r" horiz-adv-x="818" d="M440 770l-136 -770h-263l193 1094h263l-19 -110q163 130 262 130q73 0 147 -56l-123 -220q-60 26 -114 26q-103 0 -210 -94z" />
<glyph unicode="s" horiz-adv-x="1004" d="M7 91l126 183q163 -103 326 -103q164 0 187 127q1 9 1 17q0 51 -56 83q-25 15 -118 44q-235 74 -283 179q-29 62 -12 158q35 203 249 291q107 44 242 44q166 0 336 -103l-115 -176q-136 84 -256 84q-74 0 -123 -30q-60 -35 -60 -105q0 -45 55 -75q24 -13 170 -65 q94 -34 136 -58q120 -71 120 -197q0 -30 -6 -65q-37 -212 -262 -304q-108 -44 -236 -44q-221 0 -421 115z" />
<glyph unicode="t" horiz-adv-x="808" d="M630 216l36 -171q-146 -69 -305 -69q-205 0 -237 138q-18 79 7 220l99 559h-198l35 199h198l69 395h263l-69 -395h265l-35 -199h-265l-90 -511q-18 -98 -13 -133q10 -71 84 -71q62 0 156 38z" />
<glyph unicode="u" horiz-adv-x="1220" d="M101 243l150 851h263l-133 -755q-4 -20 -4 -38q0 -99 119 -99q112 0 249 95l141 797h263l-193 -1094h-263l16 93q-199 -115 -372 -115q-183 0 -228 123q-22 61 -8 142z" />
<glyph unicode="v" horiz-adv-x="1086" d="M258 0l-234 1094h272l127 -709l388 709h249l-620 -1094h-182z" />
<glyph unicode="w" horiz-adv-x="1534" d="M802 0l-87 713l-337 -713h-206l-132 1094h259l57 -672l316 672h231l81 -672l292 672h248l-516 -1094h-206z" />
<glyph unicode="x" horiz-adv-x="1138" d="M1205 1094l-413 -498l296 -596h-297l-185 408l-328 -408h-278l498 596l-248 498h296l137 -307l244 307h278z" />
<glyph unicode="y" horiz-adv-x="1085" d="M381 32l-209 1058h272l124 -717l390 717h249l-605 -1095q-103 -188 -217 -285q-124 -107 -320 -160l-65 167q276 93 381 315z" />
<glyph unicode="z" horiz-adv-x="979" d="M891 199l-35 -199h-856l26 145l672 750h-481l35 199h789l-30 -167l-656 -728h536z" />
<glyph unicode="{" horiz-adv-x="775" d="M278 534q129 -37 129 -185q0 -35 -7 -76l-74 -421q-5 -30 -5 -53q0 -85 70 -85h128l-33 -183h-185q-122 0 -186 82q-48 62 -48 146q0 28 6 59l76 429q5 31 5 56q0 137 -150 143l31 177q117 6 176 94q28 40 37 94l77 439q30 168 179 247q71 38 151 38h185l-33 -183h-128 q-89 0 -113 -138l-75 -425q-34 -193 -213 -255z" />
<glyph unicode="|" horiz-adv-x="532" d="M242 -68h-236l294 1668h236z" />
<glyph unicode="}" horiz-adv-x="775" d="M556 534q-129 51 -129 190q0 31 6 65l75 425q5 30 5 53q0 85 -70 85h-128l33 183h185q168 0 219 -140q24 -65 9 -145l-77 -439q-5 -26 -5 -49q0 -129 152 -139l-31 -177q-182 -7 -215 -199l-76 -429q-32 -181 -190 -255q-68 -32 -140 -32h-185l33 183h128q89 0 113 138 l74 421q38 215 214 261z" />
<glyph unicode="~" horiz-adv-x="1495" d="M1205 941l62 -175q-145 -182 -312 -182q-82 0 -242 68q-150 64 -199 64q-76 0 -215 -157l-65 179q160 181 318 181q82 0 235 -66t202 -66q60 0 216 154z" />
<glyph unicode="&#xa1;" horiz-adv-x="692" d="M344 1094h289l-49 -278h-289zM371 -395h-289l88 499l179 584h138l-28 -584z" />
<glyph unicode="&#xa2;" horiz-adv-x="1166" d="M620 -23l-29 -164h-162l29 165q-290 37 -363 286q-37 123 -9 282q58 325 325 483q121 71 248 88l24 138h162l-24 -138q175 -15 304 -149l-145 -162q-98 91 -195 108l-130 -741q121 17 240 102l89 -141q-150 -129 -364 -157zM494 184l129 728q-106 -30 -177 -149 q-58 -96 -80 -217q-11 -66 -11 -121q0 -188 139 -241z" />
<glyph unicode="&#xa3;" horiz-adv-x="1199" d="M476 225h569l-40 -225h-1005l37 210q261 23 304 266q8 44 8 104q0 41 -4 90h-256l36 205h202q-8 47 -8 97q0 53 10 109q49 279 307 386q116 48 248 48q187 0 333 -129l-150 -184q-97 83 -202 83q-217 0 -258 -230q-6 -32 -6 -82q0 -43 4 -98h431l-36 -205h-385 q4 -41 4 -80q0 -225 -143 -365z" />
<glyph unicode="&#xa5;" horiz-adv-x="1339" d="M1337 1489l-418 -606h236l-31 -176h-326l-89 -129l-14 -81h392l-31 -175h-392l-57 -322h-274l57 322h-393l31 175h393l14 81l-43 129h-327l31 176h236l-204 606h291l206 -627l432 627h280z" />
<glyph unicode="&#xa8;" horiz-adv-x="1070" d="M296 1561q58 0 99 -41t41 -99t-41 -99t-99 -41t-98.5 41t-40.5 99t40.5 99t98.5 41zM775 1561q58 0 99 -41t41 -99t-41 -99t-99 -41t-99.5 41t-41.5 99q0 59 41 99.5t100 40.5z" />
<glyph unicode="&#xa9;" horiz-adv-x="1813" d="M1115 651h188q-80 -215 -247 -301q-90 -46 -197 -46q-271 0 -349 223q-37 106 -14 239q37 207 171 331q140 128 347 128q162 0 248.5 -87t82.5 -249h-188q-5 162 -172 162q-245 0 -294 -280q-7 -39 -7 -74q0 -75 33 -131q52 -89 172 -89q166 0 226 174zM1066 1581 q332 0 525 -234q148 -180 148 -418q0 -72 -13 -149q-59 -332 -332 -565q-275 -236 -611 -236q-330 0 -524 236q-149 181 -149 418q0 71 14 147q58 332 332 566.5t610 234.5zM1038 1421q-177 0 -342 -89q-159 -85 -269 -230q-113 -149 -143 -322q-11 -58 -11 -114 q0 -108 40 -206q61 -153 198 -238q132 -83 301 -83q176 0 341 89q159 85 270.5 232t142.5 320q10 58 10 114q0 108 -40 206q-61 153 -198 238q-132 83 -300 83z" />
<glyph unicode="&#xab;" horiz-adv-x="1097" d="M931 465l-40 -229l-327 283l35 204l427 283l-40 -227l-240 -158zM456 464l-41 -229l-329 283l36 204l429 283l-40 -227l-241 -158z" />
<glyph unicode="&#xac;" horiz-adv-x="1337" d="M980 645h-886l38 217h1117l-113 -639h-231z" />
<glyph unicode="&#xad;" horiz-adv-x="841" d="M727 499h-617l39 220h617z" />
<glyph unicode="&#xae;" horiz-adv-x="1813" d="M541 343l156 881h335q281 0 281 -197q0 -28 -5 -60q-40 -223 -253 -239l149 -385h-194l-137 374h-80l-66 -374h-186zM857 1076l-38 -214h130q151 0 170 106q2 12 2 22q0 86 -141 86h-123zM1066 1581q332 0 525 -234q148 -180 148 -418q0 -72 -13 -149q-59 -332 -332 -565 q-275 -236 -611 -236q-330 0 -524 236q-149 181 -149 418q0 71 14 147q58 332 332 566.5t610 234.5zM1038 1421q-177 0 -342 -89q-159 -85 -269 -230q-113 -149 -143 -322q-11 -58 -11 -114q0 -108 40 -206q61 -153 198 -238q132 -83 301 -83q176 0 341 89q159 85 270.5 232 t142.5 320q10 58 10 114q0 108 -40 206q-61 153 -198 238q-132 83 -300 83z" />
<glyph unicode="&#xb0;" horiz-adv-x="874" d="M437 1516q135 0 229 -94t94 -229q0 -184 -161 -279q-75 -44 -162 -44q-184 0 -279 161q-44 75 -44 162q0 185 161 280q73 43 162 43zM437 1375q-76 0 -129 -53.5t-53 -128.5q0 -76 53.5 -129t128.5 -53q76 0 129 53t53 129t-53 129t-129 53z" />
<glyph unicode="&#xb4;" horiz-adv-x="1070" d="M785 1279h-193l199 315h292z" />
<glyph unicode="&#xb6;" horiz-adv-x="1453" d="M603 -245h-234l165 939q-169 6 -275 74q-130 82 -130 239q0 36 7 77q72 405 599 405h609l-306 -1734h-233l272 1544h-202z" />
<glyph unicode="&#xb7;" horiz-adv-x="611" d="M450 611h-289v278h289v-278z" />
<glyph unicode="&#xbb;" horiz-adv-x="1097" d="M518 519l-428 -283l40 229l242 156l-187 158l40 227l328 -283zM606 464l241 156l-186 158l40 227l328 -283l-36 -204l-428 -283z" />
<glyph unicode="&#xbc;" horiz-adv-x="2048" d="M284 -1l1149 1490h225l-1150 -1490h-224zM703 1489l-165 -936h-199l122 697q-89 -50 -184 -66l30 170q131 45 227 135h169zM1506 348l54 304h194l-54 -304h135l-28 -160h-135l-33 -188h-194l33 188h-417l25 142l416 605h194l-390 -587h200z" />
<glyph unicode="&#xbd;" horiz-adv-x="2048" d="M528 -1h-225l1150 1490h225zM723 1489l-165 -936h-199l122 697q-91 -50 -184 -66l30 170q130 44 227 135h169zM1278 784q194 163 367 163q205 0 251 -162q17 -56 3 -133q-24 -138 -197 -306q-83 -81 -221 -185h326l-28 -161h-617l27 151q337 250 441 382q65 82 65 150 q0 88 -105 88q-87 0 -219 -112z" />
<glyph unicode="&#xbe;" horiz-adv-x="2048" d="M367 -1l1151 1490h225l-1150 -1490h-226zM329 1002l16 96l270 232h-331l28 159h574l-25 -137l-223 -197q196 -21 196 -211q0 -30 -6 -64q-38 -214 -256 -296q-98 -37 -200 -37q-110 0 -215 43l29 165q117 -46 203 -46q198 0 227 162q2 14 2 27q1 112 -182 112 q-26 0 -107 -8zM1590 348l54 304h195l-54 -304h134l-28 -160h-134l-33 -188h-195l33 188h-417l25 142l416 605h194l-389 -587h199z" />
<glyph unicode="&#xbf;" horiz-adv-x="1056" d="M564 667h268q-27 -140 -42 -184q-33 -101 -122 -193q-46 -49 -174 -152q-119 -96 -131 -168q-12 -69 37 -112q45 -38 116 -38q163 0 289 181l184 -110q-199 -303 -519 -303q-266 0 -358 169q-32 60 -32 135q0 33 6 69q16 91 91 180q54 65 151 146q77 65 154 143 q52 70 82 237zM634 1094h278l-49 -277h-278z" />
<glyph unicode="&#xc0;" d="M11 0zM602 632h326l-77 487zM1028 0l-67 418h-466l-216 -418h-268l790 1489h248l263 -1489h-284zM741 1989l89 -314h-194l-188 314h293z" />
<glyph unicode="&#xc1;" d="M11 0zM602 632h326l-77 487zM1028 0l-67 418h-466l-216 -418h-268l790 1489h248l263 -1489h-284zM1007 1674h-193l199 315h292z" />
<glyph unicode="&#xc2;" d="M11 0zM602 632h326l-77 487zM1028 0l-67 418h-466l-216 -418h-268l790 1489h248l263 -1489h-284zM574 1994h206l195 -319h-180l-119 148l-121 -148h-178z" />
<glyph unicode="&#xc3;" d="M11 0zM602 632h326l-77 487zM1028 0l-67 418h-466l-216 -418h-268l790 1489h248l263 -1489h-284zM319 1680q36 258 212 258q50 0 159 -49t150 -49q72 0 83 96h116q-6 -262 -208 -262q-47 0 -161 49t-152 49q-70 0 -83 -92h-116z" />
<glyph unicode="&#xc4;" d="M11 0zM602 632h326l-77 487zM1028 0l-67 418h-466l-216 -418h-268l790 1489h248l263 -1489h-284zM438 1956q58 0 99 -41t41 -99t-41 -99t-99 -41t-98.5 41t-40.5 99t40.5 99t98.5 41zM917 1956q58 0 99 -41t41 -99t-41 -99t-99 -41t-99.5 41t-41.5 99q0 59 41 99.5 t100 40.5z" />
<glyph unicode="&#xc5;" d="M2 0zM593 632h326l-77 487zM1019 0l-67 418h-466l-216 -418h-268l790 1489h248l263 -1489h-284zM655 2019q82 0 138 -56t56 -138q0 -112 -97 -168q-45 -26 -97 -26q-112 0 -168 98q-26 45 -26 96q0 112 98 168q45 26 96 26zM655 1915q-37 0 -63.5 -26.5t-26.5 -63.5 q0 -36 27 -63t63 -27q37 0 63.5 26.5t26.5 63.5q0 38 -26 64t-64 26z" />
<glyph unicode="&#xc6;" horiz-adv-x="1927" d="M555 417l-267 -417h-288l977 1489h847v-219h-586v-389h486v-219h-486v-443h586v-219h-859v417h-410zM689 634h276v431z" />
<glyph unicode="&#xc7;" horiz-adv-x="1150" d="M791 -22l-81 -103q27 6 54 6q87 0 141 -43q59 -47 59 -132q0 -138 -142 -190q-69 -25 -156 -25q-115 0 -229 57l56 103q95 -44 169 -44q133 0 133 87q0 80 -114 80q-57 0 -101 -25l-60 66l129 167q-332 44 -477 390q-70 167 -70 372q0 309 163 527q180 241 479 241 q209 0 393 -124l-138 -175q-115 82 -252 82q-216 0 -308 -256q-46 -127 -46 -295q0 -342 167 -482q80 -67 187 -67q134 0 279 102l124 -172q-162 -130 -359 -147z" />
<glyph unicode="&#xc8;" horiz-adv-x="1167" d="M29 0zM927 219l-39 -219h-859l263 1489h859l-39 -219h-586l-69 -389h485l-38 -219h-485l-78 -443h586zM681 1989l89 -314h-194l-188 314h293z" />
<glyph unicode="&#xc9;" horiz-adv-x="1167" d="M29 0zM927 219l-39 -219h-859l263 1489h859l-39 -219h-586l-69 -389h485l-38 -219h-485l-78 -443h586zM965 1674h-193l199 315h292z" />
<glyph unicode="&#xca;" horiz-adv-x="1167" d="M29 0zM927 219l-39 -219h-859l263 1489h859l-39 -219h-586l-69 -389h485l-38 -219h-485l-78 -443h586zM529 1994h206l195 -319h-180l-119 148l-121 -148h-178z" />
<glyph unicode="&#xcb;" horiz-adv-x="1167" d="M29 0zM927 219l-39 -219h-859l263 1489h859l-39 -219h-586l-69 -389h485l-38 -219h-485l-78 -443h586zM386 1956q58 0 99 -41t41 -99t-41 -99t-99 -41t-98.5 41t-40.5 99t40.5 99t98.5 41zM865 1956q58 0 99 -41t41 -99t-41 -99t-99 -41t-99.5 41t-41.5 99q0 59 41 99.5 t100 40.5z" />
<glyph unicode="&#xcc;" horiz-adv-x="803" d="M0 0zM476 189h170l-33 -189h-613l33 189h170l196 1111h-170l34 189h613l-34 -189h-170zM468 1989l89 -314h-194l-188 314h293z" />
<glyph unicode="&#xcd;" horiz-adv-x="803" d="M0 0zM476 189h170l-33 -189h-613l33 189h170l196 1111h-170l34 189h613l-34 -189h-170zM722 1674h-193l199 315h292z" />
<glyph unicode="&#xce;" horiz-adv-x="803" d="M0 0zM476 189h170l-33 -189h-613l33 189h170l196 1111h-170l34 189h613l-34 -189h-170zM301 1994h206l195 -319h-180l-119 148l-121 -148h-178z" />
<glyph unicode="&#xcf;" horiz-adv-x="803" d="M0 0zM476 189h170l-33 -189h-613l33 189h170l196 1111h-170l34 189h613l-34 -189h-170zM161 1956q58 0 99 -41t41 -99t-41 -99t-99 -41t-98.5 41t-40.5 99t40.5 99t98.5 41zM640 1956q58 0 99 -41t41 -99t-41 -99t-99 -41t-99.5 41t-41.5 99q0 59 41 99.5t100 40.5z" />
<glyph unicode="&#xd1;" horiz-adv-x="1525" d="M86 0zM86 0l263 1489h295l374 -1011l179 1011h267l-263 -1489h-290l-377 1024l-181 -1024h-267zM403 1680q36 258 212 258q50 0 159 -49t150 -49q72 0 83 96h116q-6 -262 -208 -262q-47 0 -161 49t-152 49q-70 0 -83 -92h-116z" />
<glyph unicode="&#xd2;" horiz-adv-x="1471" d="M97 0zM883 1507q181 0 309 -103q124 -100 175 -276q29 -101 29 -215q0 -84 -16 -174q-36 -209 -141 -380q-113 -184 -282 -288q-164 -100 -345 -100q-182 0 -310 100t-178 276q-27 98 -27 210q0 87 16 182q37 206 145 379q114 183 284 288q164 101 341 101zM844 1288 q-178 0 -305 -193q-98 -151 -135 -356q-17 -100 -17 -183q0 -194 96 -296q66 -70 168 -70q209 0 346 265q64 123 92 284q17 96 17 177q0 126 -40 219q-66 153 -222 153zM804 1989l89 -314h-194l-188 314h293z" />
<glyph unicode="&#xd3;" horiz-adv-x="1471" d="M97 0zM883 1507q181 0 309 -103q124 -100 175 -276q29 -101 29 -215q0 -84 -16 -174q-36 -209 -141 -380q-113 -184 -282 -288q-164 -100 -345 -100q-182 0 -310 100t-178 276q-27 98 -27 210q0 87 16 182q37 206 145 379q114 183 284 288q164 101 341 101zM844 1288 q-178 0 -305 -193q-98 -151 -135 -356q-17 -100 -17 -183q0 -194 96 -296q66 -70 168 -70q209 0 346 265q64 123 92 284q17 96 17 177q0 126 -40 219q-66 153 -222 153zM1064 1674h-193l199 315h292z" />
<glyph unicode="&#xd4;" horiz-adv-x="1471" d="M97 0zM883 1507q181 0 309 -103q124 -100 175 -276q29 -101 29 -215q0 -84 -16 -174q-36 -209 -141 -380q-113 -184 -282 -288q-164 -100 -345 -100q-182 0 -310 100t-178 276q-27 98 -27 210q0 87 16 182q37 206 145 379q114 183 284 288q164 101 341 101zM844 1288 q-178 0 -305 -193q-98 -151 -135 -356q-17 -100 -17 -183q0 -194 96 -296q66 -70 168 -70q209 0 346 265q64 123 92 284q17 96 17 177q0 126 -40 219q-66 153 -222 153zM634 1994h206l195 -319h-180l-119 148l-121 -148h-178z" />
<glyph unicode="&#xd5;" horiz-adv-x="1471" d="M97 0zM883 1507q181 0 309 -103q124 -100 175 -276q29 -101 29 -215q0 -84 -16 -174q-36 -209 -141 -380q-113 -184 -282 -288q-164 -100 -345 -100q-182 0 -310 100t-178 276q-27 98 -27 210q0 87 16 182q37 206 145 379q114 183 284 288q164 101 341 101zM844 1288 q-178 0 -305 -193q-98 -151 -135 -356q-17 -100 -17 -183q0 -194 96 -296q66 -70 168 -70q209 0 346 265q64 123 92 284q17 96 17 177q0 126 -40 219q-66 153 -222 153zM376 1680q36 258 212 258q50 0 159 -49t150 -49q72 0 83 96h116q-6 -262 -208 -262q-47 0 -161 49 t-152 49q-70 0 -83 -92h-116z" />
<glyph unicode="&#xd6;" horiz-adv-x="1471" d="M97 0zM883 1507q181 0 309 -103q124 -100 175 -276q29 -101 29 -215q0 -84 -16 -174q-36 -209 -141 -380q-113 -184 -282 -288q-164 -100 -345 -100q-182 0 -310 100t-178 276q-27 98 -27 210q0 87 16 182q37 206 145 379q114 183 284 288q164 101 341 101zM844 1288 q-178 0 -305 -193q-98 -151 -135 -356q-17 -100 -17 -183q0 -194 96 -296q66 -70 168 -70q209 0 346 265q64 123 92 284q17 96 17 177q0 126 -40 219q-66 153 -222 153zM495 1944q58 0 99 -41t41 -99t-41 -99t-99 -41t-98.5 41t-40.5 99t40.5 99t98.5 41zM974 1944 q58 0 99 -41t41 -99t-41 -99t-99 -41t-99.5 41t-41.5 99q0 59 41 99.5t100 40.5z" />
<glyph unicode="&#xd7;" horiz-adv-x="1335" d="M1193 1135l-382 -383l382 -383l-142 -142l-383 382l-383 -382l-142 142l382 383l-382 383l142 142l383 -382l383 382z" />
<glyph unicode="&#xd8;" horiz-adv-x="1471" d="M1234 1229q136 -203 136 -485q0 -201 -75 -373q-82 -189 -236 -295q-146 -100 -323 -100q-207 0 -367 135l-111 -146l-157 117l137 177q-88 133 -120 308q-16 88 -16 177q0 202 75 373q82 187 236 294q146 101 323 101q205 0 367 -135l111 145l157 -117zM952 1183 q-88 110 -216 110q-180 0 -272 -196q-70 -151 -70 -353q0 -132 31 -245zM1048 989l-528 -685q88 -109 216 -109q209 0 300 264q43 125 43 285q0 126 -31 245z" />
<glyph unicode="&#xd9;" horiz-adv-x="1437" d="M97 0zM905 422l188 1066h272l-195 -1102q-45 -254 -302 -358q-129 -52 -303 -52q-195 0 -315 65q-153 82 -153 260q0 40 8 85l195 1102h272l-188 -1066q-6 -30 -6 -57q0 -170 226 -170q261 0 301 227zM801 1989l89 -314h-194l-188 314h293z" />
<glyph unicode="&#xda;" horiz-adv-x="1437" d="M97 0zM905 422l188 1066h272l-195 -1102q-45 -254 -302 -358q-129 -52 -303 -52q-195 0 -315 65q-153 82 -153 260q0 40 8 85l195 1102h272l-188 -1066q-6 -30 -6 -57q0 -170 226 -170q261 0 301 227zM1037 1674h-193l199 315h292z" />
<glyph unicode="&#xdb;" horiz-adv-x="1437" d="M97 0zM905 422l188 1066h272l-195 -1102q-45 -254 -302 -358q-129 -52 -303 -52q-195 0 -315 65q-153 82 -153 260q0 40 8 85l195 1102h272l-188 -1066q-6 -30 -6 -57q0 -170 226 -170q261 0 301 227zM617 1994h206l195 -319h-180l-119 148l-121 -148h-178z" />
<glyph unicode="&#xdc;" horiz-adv-x="1437" d="M97 0zM905 422l188 1066h272l-195 -1102q-45 -254 -302 -358q-129 -52 -303 -52q-195 0 -315 65q-153 82 -153 260q0 40 8 85l195 1102h272l-188 -1066q-6 -30 -6 -57q0 -170 226 -170q261 0 301 227zM479 1956q58 0 99 -41t41 -99t-41 -99t-99 -41t-98.5 41t-40.5 99 t40.5 99t98.5 41zM958 1956q58 0 99 -41t41 -99t-41 -99t-99 -41t-99.5 41t-41.5 99q0 59 41 99.5t100 40.5z" />
<glyph unicode="&#xdd;" horiz-adv-x="1261" d="M41 0zM246 0l102 578l-307 911h291l206 -627l431 627h279l-628 -911l-102 -578h-272zM959 1674h-193l199 315h292z" />
<glyph unicode="&#xdf;" horiz-adv-x="1343" d="M941 846q194 -36 270 -196q38 -80 38 -186q0 -222 -138.5 -353t-361.5 -131q-103 0 -208 33v212q91 -37 172 -37q121 0 193 80q69 77 69 199q0 154 -125 216q-90 45 -263 47v197q150 2 223 47q94 57 94 197q0 222 -216 222q-266 0 -266 -354v-1040h-262v1009 q0 596 551 596q275 0 405 -194q63 -94 63 -221q0 -172 -100 -263q-53 -48 -138 -80z" />
<glyph unicode="&#xe0;" horiz-adv-x="1127" d="M85 0zM406 861l-56 179q180 76 366 76q275 0 327 -177q29 -100 -3 -282l-116 -660h-256l14 81q-117 -102 -274 -102q-171 0 -258 98q-65 73 -65 186q0 39 8 83q41 237 309 311q122 34 269 34q62 0 112 -4q9 52 9 92q0 81 -40 112q-34 26 -117 26q-111 0 -229 -53z M712 280l39 226q-32 6 -76 6q-307 0 -340 -186q-14 -77 37 -119q45 -36 124 -36q137 0 216 109zM645 1594l89 -314h-194l-188 314h293z" />
<glyph unicode="&#xe1;" horiz-adv-x="1127" d="M85 0zM406 861l-56 179q180 76 366 76q275 0 327 -177q29 -100 -3 -282l-116 -660h-256l14 81q-117 -102 -274 -102q-171 0 -258 98q-65 73 -65 186q0 39 8 83q41 237 309 311q122 34 269 34q62 0 112 -4q9 52 9 92q0 81 -40 112q-34 26 -117 26q-111 0 -229 -53z M712 280l39 226q-32 6 -76 6q-307 0 -340 -186q-14 -77 37 -119q45 -36 124 -36q137 0 216 109zM911 1279h-193l199 315h292z" />
<glyph unicode="&#xe2;" horiz-adv-x="1127" d="M85 0zM406 861l-56 179q180 76 366 76q275 0 327 -177q29 -100 -3 -282l-116 -660h-256l14 81q-117 -102 -274 -102q-171 0 -258 98q-65 73 -65 186q0 39 8 83q41 237 309 311q122 34 269 34q62 0 112 -4q9 52 9 92q0 81 -40 112q-34 26 -117 26q-111 0 -229 -53z M712 280l39 226q-32 6 -76 6q-307 0 -340 -186q-14 -77 37 -119q45 -36 124 -36q137 0 216 109zM472 1599h206l195 -319h-180l-119 148l-121 -148h-178z" />
<glyph unicode="&#xe3;" horiz-adv-x="1127" d="M85 0zM406 861l-56 179q180 76 366 76q275 0 327 -177q29 -100 -3 -282l-116 -660h-256l14 81q-117 -102 -274 -102q-171 0 -258 98q-65 73 -65 186q0 39 8 83q41 237 309 311q122 34 269 34q62 0 112 -4q9 52 9 92q0 81 -40 112q-34 26 -117 26q-111 0 -229 -53z M712 280l39 226q-32 6 -76 6q-307 0 -340 -186q-14 -77 37 -119q45 -36 124 -36q137 0 216 109zM226 1285q36 258 212 258q50 0 159 -49t150 -49q72 0 83 96h116q-6 -262 -208 -262q-47 0 -161 49t-152 49q-70 0 -83 -92h-116z" />
<glyph unicode="&#xe4;" horiz-adv-x="1127" d="M85 0zM406 861l-56 179q180 76 366 76q275 0 327 -177q29 -100 -3 -282l-116 -660h-256l14 81q-117 -102 -274 -102q-171 0 -258 98q-65 73 -65 186q0 39 8 83q41 237 309 311q122 34 269 34q62 0 112 -4q9 52 9 92q0 81 -40 112q-34 26 -117 26q-111 0 -229 -53z M712 280l39 226q-32 6 -76 6q-307 0 -340 -186q-14 -77 37 -119q45 -36 124 -36q137 0 216 109zM326 1561q58 0 99 -41t41 -99t-41 -99t-99 -41t-98.5 41t-40.5 99t40.5 99t98.5 41zM805 1561q58 0 99 -41t41 -99t-41 -99t-99 -41t-99.5 41t-41.5 99q0 59 41 99.5t100 40.5z " />
<glyph unicode="&#xe5;" horiz-adv-x="1127" d="M85 0zM406 861l-56 179q180 76 366 76q275 0 327 -177q29 -100 -3 -282l-116 -660h-256l14 81q-117 -102 -274 -102q-171 0 -258 98q-65 73 -65 186q0 39 8 83q41 237 309 311q122 34 269 34q62 0 112 -4q9 52 9 92q0 81 -40 112q-34 26 -117 26q-111 0 -229 -53z M712 280l39 226q-32 6 -76 6q-307 0 -340 -186q-14 -77 37 -119q45 -36 124 -36q137 0 216 109zM578 1620q82 0 138 -56t56 -138q0 -112 -97 -168q-45 -26 -97 -26q-112 0 -168 98q-26 45 -26 96q0 112 98 168q45 26 96 26zM578 1516q-37 0 -63.5 -26.5t-26.5 -63.5 q0 -36 27 -63t63 -27q37 0 63.5 26.5t26.5 63.5q0 38 -26 64t-64 26z" />
<glyph unicode="&#xe6;" horiz-adv-x="1757" d="M1199 -22q-236 0 -367 167q-160 -168 -371 -166q-172 2 -274 98q-107 99 -106 269q1 237 254 311q116 34 263 34q62 0 113 -4q0 168 -73 208q-40 22 -115 22q-111 0 -220 -53l-88 179q167 76 353 76q228 0 318 -112q126 109 295 109q284 0 413 -265q69 -142 69 -368h-689 q11 -311 256 -311q140 0 308 137l103 -144q-195 -187 -442 -187zM734 317q-31 90 -35 194q-27 4 -66 4q-307 0 -307 -186q0 -77 58 -118q51 -37 131 -37q146 0 219 143zM980 668h403q-27 255 -202 255q-176 0 -201 -255z" />
<glyph unicode="&#xe7;" horiz-adv-x="979" d="M876 277l103 -137q-139 -127 -305 -155l-84 -107q27 6 53 6q194 0 194 -171q0 -111 -93 -165q-75 -44 -194 -44q-112 0 -226 55l55 102q94 -44 164 -44q130 0 130 87q0 75 -106 75q-51 0 -103 -23l-59 64l127 164q-218 26 -333 188q-105 147 -105 375q0 227 131 392 q141 177 363 177q197 0 386 -150l-102 -155q-145 112 -277 112q-126 0 -183 -134q-42 -98 -42 -242q0 -377 246 -377q122 0 260 107z" />
<glyph unicode="&#xe8;" horiz-adv-x="1153" d="M93 0zM903 307l78 -144q-228 -187 -475 -187q-219 0 -332 160q-81 114 -81 276q0 63 13 134q40 232 192 392q166 176 391 176q284 0 366 -265q23 -75 23 -172q0 -89 -19 -196h-689q-6 -45 -7 -83q-1 -228 208 -228q140 0 332 137zM409 666h403q1 24 1 47q0 208 -158 208 q-176 0 -246 -255zM654 1594l89 -314h-194l-188 314h293z" />
<glyph unicode="&#xe9;" horiz-adv-x="1153" d="M93 0zM903 307l78 -144q-228 -187 -475 -187q-219 0 -332 160q-81 114 -81 276q0 63 13 134q40 232 192 392q166 176 391 176q284 0 366 -265q23 -75 23 -172q0 -89 -19 -196h-689q-6 -45 -7 -83q-1 -228 208 -228q140 0 332 137zM409 666h403q1 24 1 47q0 208 -158 208 q-176 0 -246 -255zM914 1279h-193l199 315h292z" />
<glyph unicode="&#xea;" horiz-adv-x="1153" d="M93 0zM903 307l78 -144q-228 -187 -475 -187q-219 0 -332 160q-81 114 -81 276q0 63 13 134q40 232 192 392q166 176 391 176q284 0 366 -265q23 -75 23 -172q0 -89 -19 -196h-689q-6 -45 -7 -83q-1 -228 208 -228q140 0 332 137zM409 666h403q1 24 1 47q0 208 -158 208 q-176 0 -246 -255zM487 1599h206l195 -319h-180l-119 148l-121 -148h-178z" />
<glyph unicode="&#xeb;" horiz-adv-x="1153" d="M93 0zM903 307l78 -144q-228 -187 -475 -187q-219 0 -332 160q-81 114 -81 276q0 63 13 134q40 232 192 392q166 176 391 176q284 0 366 -265q23 -75 23 -172q0 -89 -19 -196h-689q-6 -45 -7 -83q-1 -228 208 -228q140 0 332 137zM409 666h403q1 24 1 47q0 208 -158 208 q-176 0 -246 -255zM338 1561q58 0 99 -41t41 -99t-41 -99t-99 -41t-98.5 41t-40.5 99t40.5 99t98.5 41zM817 1561q58 0 99 -41t41 -99t-41 -99t-99 -41t-99.5 41t-41.5 99q0 59 41 99.5t100 40.5z" />
<glyph unicode="&#xec;" horiz-adv-x="599" d="M431 1094v-1094h-263v1094h263zM254 1594l144 -314h-194l-243 314h293z" />
<glyph unicode="&#xed;" horiz-adv-x="599" d="M431 1094v-1094h-263v1094h263zM400 1279h-193l144 315h292z" />
<glyph unicode="&#xee;" horiz-adv-x="599" d="M431 1094v-1094h-263v1094h263zM196 1599h206l195 -319h-180l-119 148l-121 -148h-178z" />
<glyph unicode="&#xef;" horiz-adv-x="599" d="M431 1094v-1094h-263v1094h263zM69 1561q58 0 99 -41t41 -99t-41 -99t-99 -41t-98.5 41t-40.5 99t40.5 99t98.5 41zM529 1561q58 0 99 -41t41 -99t-41 -99t-99 -41t-99.5 41t-41.5 99q0 59 41 99.5t100 40.5z" />
<glyph unicode="&#xf1;" horiz-adv-x="1220" d="M93 0zM1141 852l-150 -852h-263l133 754q4 21 4 38q0 100 -119 100q-110 0 -249 -91l-141 -801h-263l193 1094h263l-16 -93q195 115 372 115q180 0 228 -123q23 -58 8 -141zM262 1285q36 258 212 258q50 0 159 -49t150 -49q72 0 83 96h116q-6 -262 -208 -262 q-47 0 -161 49t-152 49q-70 0 -83 -92h-116z" />
<glyph unicode="&#xf2;" horiz-adv-x="1155" d="M110 0zM695 1114q294 0 373 -279q38 -130 9 -290q-59 -338 -317 -494q-124 -75 -266 -75q-295 0 -375 279q-37 130 -9 290q60 339 319 495q122 74 266 74zM660 920q-208 0 -274 -375q-16 -90 -16 -159q0 -216 158 -216q207 0 273 375q16 86 16 153q0 222 -157 222z M657 1594l89 -314h-194l-188 314h293z" />
<glyph unicode="&#xf3;" horiz-adv-x="1155" d="M110 0zM695 1114q294 0 373 -279q38 -130 9 -290q-59 -338 -317 -494q-124 -75 -266 -75q-295 0 -375 279q-37 130 -9 290q60 339 319 495q122 74 266 74zM660 920q-208 0 -274 -375q-16 -90 -16 -159q0 -216 158 -216q207 0 273 375q16 86 16 153q0 222 -157 222z M908 1279h-193l199 315h292z" />
<glyph unicode="&#xf4;" horiz-adv-x="1155" d="M110 0zM695 1114q294 0 373 -279q38 -130 9 -290q-59 -338 -317 -494q-124 -75 -266 -75q-295 0 -375 279q-37 130 -9 290q60 339 319 495q122 74 266 74zM660 920q-208 0 -274 -375q-16 -90 -16 -159q0 -216 158 -216q207 0 273 375q16 86 16 153q0 222 -157 222z M475 1599h206l195 -319h-180l-119 148l-121 -148h-178z" />
<glyph unicode="&#xf5;" horiz-adv-x="1155" d="M110 0zM695 1114q294 0 373 -279q38 -130 9 -290q-59 -338 -317 -494q-124 -75 -266 -75q-295 0 -375 279q-37 130 -9 290q60 339 319 495q122 74 266 74zM660 920q-208 0 -274 -375q-16 -90 -16 -159q0 -216 158 -216q207 0 273 375q16 86 16 153q0 222 -157 222z M217 1285q36 258 212 258q50 0 159 -49t150 -49q72 0 83 96h116q-6 -262 -208 -262q-47 0 -161 49t-152 49q-70 0 -83 -92h-116z" />
<glyph unicode="&#xf6;" horiz-adv-x="1155" d="M110 0zM695 1114q294 0 373 -279q38 -130 9 -290q-59 -338 -317 -494q-124 -75 -266 -75q-295 0 -375 279q-37 130 -9 290q60 339 319 495q122 74 266 74zM660 920q-208 0 -274 -375q-16 -90 -16 -159q0 -216 158 -216q207 0 273 375q16 86 16 153q0 222 -157 222z M338 1561q58 0 99 -41t41 -99t-41 -99t-99 -41t-98.5 41t-40.5 99t40.5 99t98.5 41zM817 1561q58 0 99 -41t41 -99t-41 -99t-99 -41t-99.5 41t-41.5 99q0 59 41 99.5t100 40.5z" />
<glyph unicode="&#xf7;" horiz-adv-x="1335" d="M1230 863v-221h-1124v221h1124zM668 504q55 0 95 -40t40 -95t-40 -95t-95 -40q-56 0 -95.5 39.5t-39.5 95.5t39.5 95.5t95.5 39.5zM668 1271q55 0 95 -40t40 -95t-40 -95t-95 -40q-56 0 -95.5 39.5t-39.5 95.5t39.5 95.5t95.5 39.5z" />
<glyph unicode="&#xf8;" horiz-adv-x="1155" d="M188 196q-93 150 -93 351q0 339 231 495q110 74 253 74q149 0 263 -82l76 98l145 -104l-97 -126q96 -147 96 -355q0 -338 -230 -494q-111 -75 -253 -75q-149 0 -266 84l-76 -99l-146 107zM379 437l328 424q-50 61 -128 61q-208 0 -208 -375q0 -65 8 -110zM448 235 q51 -63 131 -63q207 0 207 375q0 57 -8 115z" />
<glyph unicode="&#xf9;" horiz-adv-x="1220" d="M101 0zM101 243l150 851h263l-133 -755q-4 -20 -4 -38q0 -99 119 -99q112 0 249 95l141 797h263l-193 -1094h-263l16 93q-199 -115 -372 -115q-183 0 -228 123q-22 61 -8 142zM666 1594l89 -314h-194l-188 314h293z" />
<glyph unicode="&#xfa;" horiz-adv-x="1220" d="M101 0zM101 243l150 851h263l-133 -755q-4 -20 -4 -38q0 -99 119 -99q112 0 249 95l141 797h263l-193 -1094h-263l16 93q-199 -115 -372 -115q-183 0 -228 123q-22 61 -8 142zM926 1279h-193l199 315h292z" />
<glyph unicode="&#xfb;" horiz-adv-x="1220" d="M101 0zM101 243l150 851h263l-133 -755q-4 -20 -4 -38q0 -99 119 -99q112 0 249 95l141 797h263l-193 -1094h-263l16 93q-199 -115 -372 -115q-183 0 -228 123q-22 61 -8 142zM496 1599h206l195 -319h-180l-119 148l-121 -148h-178z" />
<glyph unicode="&#xfc;" horiz-adv-x="1220" d="M101 0zM101 243l150 851h263l-133 -755q-4 -20 -4 -38q0 -99 119 -99q112 0 249 95l141 797h263l-193 -1094h-263l16 93q-199 -115 -372 -115q-183 0 -228 123q-22 61 -8 142zM368 1561q58 0 99 -41t41 -99t-41 -99t-99 -41t-98.5 41t-40.5 99t40.5 99t98.5 41zM847 1561 q58 0 99 -41t41 -99t-41 -99t-99 -41t-99.5 41t-41.5 99q0 59 41 99.5t100 40.5z" />
<glyph unicode="&#xfd;" horiz-adv-x="1085" d="M0 0zM381 32l-209 1058h272l124 -717l390 717h249l-605 -1095q-103 -188 -217 -285q-124 -107 -320 -160l-65 167q276 93 381 315zM875 1279h-193l199 315h292z" />
<glyph unicode="&#xff;" horiz-adv-x="1085" d="M0 0zM381 32l-209 1058h272l124 -717l390 717h249l-605 -1095q-103 -188 -217 -285q-124 -107 -320 -160l-65 167q276 93 381 315zM296 1561q58 0 99 -41t41 -99t-41 -99t-99 -41t-98.5 41t-40.5 99t40.5 99t98.5 41zM775 1561q58 0 99 -41t41 -99t-41 -99t-99 -41 t-99.5 41t-41.5 99q0 59 41 99.5t100 40.5z" />
<glyph unicode="&#x152;" horiz-adv-x="1867" d="M1574 0h-1029q-242 0 -385 164q-134 154 -134 395q0 86 17 184q60 338 253 533q210 213 542 213h999l-39 -219h-584l-69 -389h484l-38 -219h-484l-78 -443h584zM597 225h160l183 1039h-160q-188 0 -317 -175q-104 -141 -140 -346q-14 -81 -14 -152q0 -124 43 -215 q72 -151 245 -151z" />
<glyph unicode="&#x153;" horiz-adv-x="1843" d="M867 137q-160 -159 -373 -159q-295 0 -375 279q-37 130 -9 290q60 339 319 495q122 74 266 74q211 0 317 -159q163 159 372 159q303 0 372 -292q17 -69 17 -152q0 -87 -19 -189h-689q-2 -33 -2 -62q0 -252 203 -249q153 2 332 136l78 -142q-228 -188 -475 -188 q-221 0 -334 159zM661 922q-208 0 -275 -375q-15 -90 -15 -159q0 -216 157 -216q207 0 273 375q16 86 16 153q0 222 -156 222zM1103 668h404q1 24 1 45q0 210 -158 210q-177 0 -247 -255z" />
<glyph unicode="&#x178;" horiz-adv-x="1261" d="M41 0zM246 0l102 578l-307 911h291l206 -627l431 627h279l-628 -911l-102 -578h-272zM390 1956q58 0 99 -41t41 -99t-41 -99t-99 -41t-98.5 41t-40.5 99t40.5 99t98.5 41zM869 1956q58 0 99 -41t41 -99t-41 -99t-99 -41t-99.5 41t-41.5 99q0 59 41 99.5t100 40.5z" />
<glyph unicode="&#x2c6;" horiz-adv-x="1070" d="M433 1599h206l195 -319h-180l-119 148l-121 -148h-178z" />
<glyph unicode="&#x2da;" horiz-adv-x="1070" d="M512 1620q82 0 138 -56t56 -138q0 -112 -97 -168q-45 -26 -97 -26q-112 0 -168 98q-26 45 -26 96q0 112 98 168q45 26 96 26zM512 1516q-37 0 -63.5 -26.5t-26.5 -63.5q0 -36 27 -63t63 -27q37 0 63.5 26.5t26.5 63.5q0 38 -26 64t-64 26z" />
<glyph unicode="&#x2dc;" horiz-adv-x="1070" d="M199 1285q36 258 212 258q50 0 159 -49t150 -49q72 0 83 96h116q-6 -262 -208 -262q-47 0 -161 49t-152 49q-70 0 -83 -92h-116z" />
<glyph unicode="&#x2000;" horiz-adv-x="1009" />
<glyph unicode="&#x2001;" horiz-adv-x="2019" />
<glyph unicode="&#x2002;" horiz-adv-x="1009" />
<glyph unicode="&#x2003;" horiz-adv-x="2019" />
<glyph unicode="&#x2004;" horiz-adv-x="673" />
<glyph unicode="&#x2005;" horiz-adv-x="504" />
<glyph unicode="&#x2006;" horiz-adv-x="336" />
<glyph unicode="&#x2007;" horiz-adv-x="336" />
<glyph unicode="&#x2008;" horiz-adv-x="252" />
<glyph unicode="&#x2009;" horiz-adv-x="403" />
<glyph unicode="&#x200a;" horiz-adv-x="112" />
<glyph unicode="&#x2010;" horiz-adv-x="841" d="M727 499h-617l39 220h617z" />
<glyph unicode="&#x2011;" horiz-adv-x="841" d="M727 499h-617l39 220h617z" />
<glyph unicode="&#x2012;" horiz-adv-x="841" d="M727 499h-617l39 220h617z" />
<glyph unicode="&#x2013;" horiz-adv-x="1024" d="M1024 499h-1024v220h1024v-220z" />
<glyph unicode="&#x2014;" horiz-adv-x="2048" d="M2048 499h-2048v220h2048v-220z" />
<glyph unicode="&#x2018;" horiz-adv-x="615" d="M92 997l279 492h190l-213 -492h-256z" />
<glyph unicode="&#x2019;" horiz-adv-x="615" d="M562 1489l-279 -492h-190l213 492h256z" />
<glyph unicode="&#x201a;" horiz-adv-x="610" d="M266 -214h-190l213 492h256z" />
<glyph unicode="&#x201c;" horiz-adv-x="989" d="M746 1489h189l-213 -492h-252zM92 997l278 492h190l-212 -492h-256z" />
<glyph unicode="&#x201d;" horiz-adv-x="989" d="M658 997h-189l212 492h255zM562 1489l-279 -492h-190l213 492h256z" />
<glyph unicode="&#x201e;" horiz-adv-x="989" d="M548 278l-279 -492h-190l213 492h256zM922 278l-278 -492h-189l212 492h255z" />
<glyph unicode="&#x2022;" horiz-adv-x="929" d="M464 1056q200 0 299 -171q46 -80 46 -173q0 -200 -171 -299q-80 -46 -174 -46q-199 0 -298 172q-46 80 -46 173q0 199 172 298q80 46 172 46z" />
<glyph unicode="&#x2026;" horiz-adv-x="2048" d="M486 0h-289v278h289v-278zM1168 0h-288v278h288v-278zM1851 0h-289v278h289v-278z" />
<glyph unicode="&#x202f;" horiz-adv-x="403" />
<glyph unicode="&#x2039;" horiz-adv-x="622" d="M456 464l-41 -229l-329 283l36 204l429 283l-40 -227l-241 -158z" />
<glyph unicode="&#x203a;" horiz-adv-x="622" d="M528 518l-429 -283l41 229l241 156l-186 158l40 227l329 -283z" />
<glyph unicode="&#x205f;" horiz-adv-x="504" />
<glyph unicode="&#x20ac;" horiz-adv-x="1369" d="M1377 1381l-178 -168q-105 82 -239 82q-245 0 -380 -315h581l-26 -147h-606q-21 -86 -31 -177h606l-26 -147h-581q20 -204 134 -277q58 -37 135 -37q135 0 297 102l94 -172q-213 -149 -440 -149q-286 0 -425 232q-72 120 -88 301h-201l26 147h179q8 93 31 177h-179 l26 147h202q144 323 409 461q137 71 299 71q215 0 381 -131z" />
<glyph unicode="&#x2122;" horiz-adv-x="2237" d="M475 560h-208l131 746h-286l33 183h780l-33 -183h-286zM1384 560l-128 628l-110 -628h-206l164 929h291l132 -581l334 581h292l-164 -929h-206l110 628l-348 -628h-161z" />
<glyph unicode="&#xe000;" horiz-adv-x="1095" d="M0 1095h1095v-1095h-1095v1095z" />
<glyph horiz-adv-x="600" d="M0 0z" />
</font>
</defs>
</svg>
