<?xml version="1.0" standalone="no"?>
<!DOCTYPE svg PUBLIC "-//W3C//DTD SVG 1.1//EN" "http://www.w3.org/Graphics/SVG/1.1/DTD/svg11.dtd" >
<svg xmlns="http://www.w3.org/2000/svg">
<metadata></metadata>
<defs>
<font id="almendra_scbold_italic" horiz-adv-x="921" >
<font-face units-per-em="2048" ascent="1638" descent="-410" />
<missing-glyph horiz-adv-x="337" />
<glyph horiz-adv-x="2048" />
<glyph horiz-adv-x="2048" />
<glyph unicode="&#xd;" horiz-adv-x="2048" />
<glyph unicode=" "  horiz-adv-x="337" />
<glyph unicode="&#x09;" horiz-adv-x="337" />
<glyph unicode="&#xa0;" horiz-adv-x="337" />
<glyph unicode="!" horiz-adv-x="530" d="M43 190q23 43 85.5 96t113.5 81q38 -24 86.5 -76.5t79.5 -100.5q-30 -49 -93.5 -118.5t-109.5 -102.5q-42 31 -89.5 98.5t-72.5 122.5zM197 487l32 908q52 24 128.5 44t119.5 17q50 -47 96 -141q-198 -431 -282 -817z" />
<glyph unicode="&#x22;" horiz-adv-x="684" d="M98 760l37 575q35 15 107 30.5t106 14.5l33 -34q-124 -234 -205 -576zM401 760l37 575q35 15 107 30.5t106 14.5l33 -34q-124 -234 -205 -576z" />
<glyph unicode="#" horiz-adv-x="1171" d="M76 295l59 127l92 -8q100 -10 127 -11l47 246l-231 6l-16 15l59 127l92 -9q76 -8 121 -10l80 424q72 0 123 15l8 -7q-51 -191 -98 -438q64 -4 194 -8l82 438q72 0 123 15l8 -7q-52 -194 -98 -440l-2 -8q83 -2 244 2l12 -10l-60 -121l-219 6l-47 -252q79 -2 236 2l12 -10 l-59 -121l-211 6l-86 -461h-11q-26 6 -59.5 21.5t-52.5 30.5q64 256 94 413l-193 4l-88 -469h-10q-26 6 -59.5 21.5t-52.5 30.5q71 292 96 419l-240 7zM469 397q59 -4 193 -8l49 254l-195 4z" />
<glyph unicode="$" horiz-adv-x="792" d="M8 164q64 58 125 127t94 129l29 -17q-8 -27 -8 -59q0 -44 23.5 -93.5t60.5 -88.5l22 282q-142 84 -190 125q-83 71 -84 133q0 47 38.5 100.5t99 100t123.5 83.5t122 63l12 155q45 5 66 13l8 -7q-15 -68 -23 -155q80 -23 160 -23q57 0 84 19l21 -23q-96 -111 -136 -233 l-20 -7l-53 39l-72 47l-12 -163q52 -30 84 -51t71.5 -52t58.5 -62.5t19 -64.5q0 -80 -57 -176t-132.5 -172t-158.5 -137l-10 -182l-11 -2q-47 14 -63 30l14 131q-84 15 -165 62.5t-121 103.5zM342 840q0 -39 96 -97l15 162q-43 17 -58 19q-20 -13 -36.5 -37.5t-16.5 -46.5z M391 117q40 35 71.5 96t31.5 109q0 30 -80 86z" />
<glyph unicode="%" horiz-adv-x="1554" d="M94 799q17 85 57.5 157t88.5 116.5t97 69.5t89 25h8q44 -1 217.5 -31t290.5 -30q76 0 118.5 14t76.5 64l14 20q99 4 166 25l6 -6q-164 -212 -334 -451l-692 -985h-10q-27 9 -57.5 33t-43.5 47q24 31 84 103.5t107.5 132.5t81.5 106l397 561q23 33 67 93.5t78 109t64 94.5 l-8 2q-64 -61 -139 -61q-41 0 -101 14.5t-103 28.5t-122 43l-6 -7q49 -49 84.5 -116t44.5 -135q-17 -86 -57.5 -159t-89.5 -118t-98.5 -69.5t-90.5 -24.5q-89 0 -179.5 103.5t-105.5 230.5zM338 786q0 -84 13.5 -153.5t41.5 -83.5q76 23 76 289q0 217 -55 245 q-76 -22 -76 -297zM840 303q17 85 57 157.5t88 117t97 69.5t89 25q90 0 181 -103t108 -229q-17 -86 -57.5 -159t-89.5 -118t-98.5 -69.5t-90.5 -24.5q-89 0 -179 103.5t-105 230.5zM1083 291q0 -83 14 -153.5t42 -84.5q75 23 75 289q0 218 -55 246q-76 -22 -76 -297z" />
<glyph unicode="&#x26;" horiz-adv-x="1392" d="M43 397q0 169 105.5 282t283.5 159v8q-76 5 -135 53t-59 117q86 119 232 214t294 134q69 0 152.5 -20t136.5 -54q-36 -43 -69.5 -117.5t-49.5 -138.5h-14q-50 65 -118 104.5t-143 39.5q-52 0 -86 -11q-12 -41 -12 -84q0 -170 178 -192l-10 -76q-169 -33 -255.5 -125.5 t-86.5 -255.5q0 -135 62.5 -214t187.5 -79q106 0 178 41q33 56 54.5 139t21.5 150q0 68 -20 107.5t-74 39.5q-31 0 -58 -12q-4 -16 -4 -33q0 -63 29 -108v-16q-36 -31 -76 -80.5t-63 -94.5q-35 0 -52.5 30.5t-17.5 70.5q0 83 29.5 151t85 117.5t122.5 85t154 64.5 q47 -9 105 -9q111 0 155 33q4 16 4 33q0 65 -28 108v17q37 31 76.5 80.5t62.5 93.5q35 0 52.5 -30t17.5 -70q0 -117 -66.5 -213.5t-177.5 -165.5q29 -24 44 -71.5t15 -92.5q0 -89 -58 -180t-147.5 -161.5t-191.5 -122.5t-195 -73q-119 0 -219.5 24.5t-180.5 74t-125.5 134 t-45.5 195.5z" />
<glyph unicode="'" horiz-adv-x="380" d="M98 760l37 575q35 15 107 30.5t106 14.5l33 -34q-124 -234 -205 -576z" />
<glyph unicode="(" horiz-adv-x="606" d="M88 537q20 273 150.5 511.5t339.5 407.5l43 -33q-313 -389 -347 -886q-19 -257 37 -506.5t183 -440.5l-50 -30q-182 165 -279 429.5t-77 547.5z" />
<glyph unicode=")" horiz-adv-x="606" d="M-14 -408q312 388 346 887q19 258 -36.5 506.5t-182.5 439.5l49 31q182 -165 279 -429.5t77 -547.5q-20 -274 -150 -512.5t-339 -406.5z" />
<glyph unicode="*" horiz-adv-x="759" d="M88 952q3 20 45 74q-2 3 -19.5 22.5t-19.5 26.5l2 4q119 -4 219 41q-104 46 -211 43v4q4 7 23 28t20 22q-38 57 -38 71q16 9 81 -2q3 6 11.5 33t11.5 33h6q51 -108 129 -172q-6 118 -57 215l4 4q11 0 63 -13q26 60 43 70q15 -9 31 -70q4 1 32.5 7t35.5 6l4 -4 q-72 -108 -88 -215q89 67 151 174h6q9 -17 17 -68q62 12 78 2q0 -16 -47 -69q2 -3 12.5 -14t18.5 -21t10 -15l-3 -4q-104 3 -219 -45q102 -48 213 -45l2 -4q-4 -6 -47 -49q39 -50 39 -70q-17 -11 -80 0q-13 -39 -24 -61h-6q-45 98 -129 170q3 -114 57 -217l-2 -4q-7 0 -35 8 t-29 8q-27 -63 -45 -72q-7 4 -18.5 29.5t-16.5 44.5q-3 -1 -29.5 -7.5t-33.5 -6.5l-4 4q70 112 88 213q-83 -62 -152 -172h-6q-2 6 -7 32.5t-7 32.5q-62 -12 -80 -2z" />
<glyph unicode="+" horiz-adv-x="1179" d="M117 449l18 145q251 -12 375 -14v415l145 19l11 -13q-11 -300 -11 -421v-2q114 -3 224 -3q81 0 174 7l12 -13l-18 -135h-392q0 -247 19 -454l-144 -19l-20 14v459h-377z" />
<glyph unicode="," horiz-adv-x="450" d="M-10 -311q62 66 114 150t68 159q-37 37 -73.5 93t-55.5 99q23 43 85.5 96t113.5 81q38 -24 86.5 -76.5t79.5 -100.5q-25 -147 -136.5 -294.5t-251.5 -241.5z" />
<glyph unicode="-" horiz-adv-x="614" d="M49 475l12 135h95q212 0 393 21l16 -10l-12 -127l-485 -31z" />
<glyph unicode="." horiz-adv-x="450" d="M43 190q23 43 85.5 96t113.5 81q38 -24 86.5 -76.5t79.5 -100.5q-30 -49 -93.5 -118.5t-109.5 -102.5q-42 31 -89.5 98.5t-72.5 122.5z" />
<glyph unicode="/" horiz-adv-x="835" d="M14 -14q103 197 176 364l302 664q92 204 167 409q74 3 152 23l10 -8q-81 -159 -157 -326l-533 -1208h-14q-54 22 -103 82z" />
<glyph unicode="0" d="M-16 522q29 135 90 254t133.5 196t148.5 121t140 44q96 0 193 -83.5t164 -211.5t85 -260q-29 -135 -90 -253.5t-134 -195t-149.5 -120.5t-140.5 -44q-96 0 -192.5 83.5t-163 211t-84.5 258.5zM348 500q0 -143 24.5 -270t73.5 -156q66 25 96.5 167t30.5 347 q0 171 -24 292.5t-76 151.5q-65 -23 -95 -172.5t-30 -359.5z" />
<glyph unicode="1" d="M154 -6q49 32 151 72q47 286 47 651q0 84 -2 129q-84 -12 -157 -15l-13 64q103 33 205 89.5t154 125.5q113 9 157 27l15 -9q-36 -133 -55 -378t-19 -431q0 -163 14 -229q56 -39 115 -55l-14 -51q-93 18 -217 18q-212 0 -363 -49z" />
<glyph unicode="2" d="M2 -2q22 58 62 120.5t85 117.5t95 113t95 115.5t81.5 115.5t58 122t21.5 127t-17 97.5t-67 34.5q-32 0 -66 -9q-20 -42 -20 -90q0 -66 30 -88l-4 -18q-108 -40 -188 -123q-30 0 -46 18.5t-16 50.5q0 70 37.5 142t97.5 129t132 100.5t143 65.5q156 0 247 -90t91 -246 q-32 -64 -105.5 -141t-147 -137.5t-160.5 -135t-132 -121.5q120 -26 252 -26q116 0 166 28q45 105 90 170l37 -18q-24 -57 -37.5 -135t-13.5 -140q0 -113 31 -159l-21 -31q-294 66 -555 66q-163 0 -233 -48z" />
<glyph unicode="3" d="M43 158q147 121 209 243l41 -22q-8 -24 -8 -53q0 -55 46 -118.5t101 -92.5q40 48 64 128t24 148q0 182 -147 182q-34 0 -64 -10l-14 45q184 142 258 287q-53 6 -111 6q-106 0 -153 -24q-36 -70 -70 -113l-43 16q20 50 32.5 116t12.5 118q0 78 -24 119l20 22 q103 -47 406 -47q135 0 219 12l18 -28q-47 -98 -133 -197.5t-182 -175.5v-8q140 0 218.5 -59.5t78.5 -186.5q0 -74 -45 -151t-117 -141.5t-147.5 -115t-151.5 -88.5q-97 7 -185.5 53t-136.5 113z" />
<glyph unicode="4" d="M-14 309q201 249 469 781q226 13 336 47l14 -9q-29 -93 -49.5 -277.5t-24.5 -416.5q88 0 164 33l10 -10q-6 -15 -12 -42.5t-9 -49.5t-7 -55t-5 -40q-89 13 -143 13q0 -117 12 -199q43 -40 107 -64l-10 -45q-126 23 -289 23q-157 0 -270 -25l-11 43q45 30 131 56 q21 100 29 211h-434zM250 444q57 -8 190 -8l31 469h-12q-87 -248 -209 -461z" />
<glyph unicode="5" d="M43 158q63 50 120 116t89 127l41 -22q-8 -24 -8 -55q0 -53 46.5 -116.5t100.5 -92.5q41 47 64.5 126t23.5 148q0 87 -38 126.5t-124 39.5q-57 0 -143 -23l-25 15l27 358q6 97 -24 185l18 28q59 -12 174 -12q231 0 334 47l20 -23q-24 -41 -24 -118q0 -106 43 -211l-37 -15 q-25 23 -64 91q-44 24 -178 24q-71 0 -145 -8l-33 -197l6 -2l19 23q81 22 180 22q148 0 241 -65t93 -199q0 -77 -43.5 -156.5t-113 -144.5t-147 -117t-155.5 -88q-99 7 -186.5 53t-135.5 113z" />
<glyph unicode="6" d="M61 340q0 108 41 213t109.5 192t161 164.5t193.5 135.5t208 100l27 -39q-410 -247 -410 -735q0 -44 0.5 -70t3 -62t8 -56.5t14.5 -41t23.5 -30t34.5 -9.5q39 0 60 21q14 75 14 160q0 47 -0.5 73.5t-4 63.5t-10.5 57t-19 41t-32 30t-47 9v14q68 68 127 170q89 0 151 -33 t96 -95t49 -137.5t15 -174.5q-73 -107 -195.5 -198t-250.5 -134q-173 0 -270 98t-97 273z" />
<glyph unicode="7" d="M139 14q48 18 105 64q29 208 113.5 380t260.5 412q-98 13 -172 13q-116 0 -165 -25q-39 -77 -68 -113l-37 19q19 47 31 116.5t12 123.5q0 81 -24 122l24 27q103 -47 377 -47q157 0 235 16l21 -18q-293 -534 -299 -1041q65 -21 111 -53l-9 -37q-116 27 -247 27 q-132 0 -258 -23z" />
<glyph unicode="8" d="M102 225q0 84 65.5 169t156.5 149q-89 84 -136.5 155.5t-40.5 149.5q68 92 194 183.5t224 107.5q244 0 244 -168q0 -77 -51 -150t-135 -153q51 -39 78 -62.5t63.5 -63.5t54.5 -84t21 -96q-45 -133 -164 -235.5t-268 -157.5q-136 0 -221 65.5t-85 190.5zM348 279 q0 -69 25 -117.5t80 -48.5q58 0 90 28q16 41 16 103q0 54 -42.5 108t-127.5 131q-41 -76 -41 -204zM428 926q0 -102 117 -199q22 78 22 166q0 104 -75 104q-28 0 -50 -10q-14 -22 -14 -61z" />
<glyph unicode="9" d="M61 805q72 107 195.5 198t251.5 134q173 0 269.5 -98t96.5 -273q0 -108 -41 -213t-109.5 -192t-160.5 -164.5t-193 -135.5t-208 -100l-27 39q410 247 410 735q0 44 -0.5 70t-3 62t-8 56.5t-14.5 41t-23.5 30t-34.5 9.5q-39 0 -60 -21q-14 -75 -14 -160q0 -47 0.5 -73.5 t4 -63.5t10.5 -57t19 -41t32 -30t47 -9v-14q-68 -68 -127 -170q-71 0 -126 22.5t-89.5 60.5t-56.5 95t-31 120.5t-9 141.5z" />
<glyph unicode=":" horiz-adv-x="475" d="M43 190q23 43 85.5 96t113.5 81q38 -24 86.5 -76.5t79.5 -100.5q-30 -49 -93.5 -118.5t-109.5 -102.5q-42 31 -89.5 98.5t-72.5 122.5zM68 858q23 43 85 95.5t113 80.5q38 -24 86.5 -76t79.5 -100q-30 -49 -93.5 -118.5t-109.5 -102.5q-42 31 -89 98.5t-72 122.5z" />
<glyph unicode=";" horiz-adv-x="475" d="M-10 -311q62 66 114 150t68 159q-37 37 -73.5 93t-55.5 99q23 43 85.5 96t113.5 81q38 -24 86.5 -76.5t79.5 -100.5q-25 -147 -136.5 -294.5t-251.5 -241.5zM68 858q23 43 85 95.5t113 80.5q38 -24 86.5 -76t79.5 -100q-30 -49 -93.5 -118.5t-109.5 -102.5 q-42 31 -89 98.5t-72 122.5z" />
<glyph unicode="&#x3c;" horiz-adv-x="1179" d="M113 455l28 131q137 43 381 135q272 103 496 219l49 -135l-10 -21l-715 -264v-8l715 -262l10 -21l-53 -137q-196 99 -445 200t-456 163z" />
<glyph unicode="=" horiz-adv-x="1179" d="M115 291l18 135q347 -18 744 -18q95 0 174 6l12 -13l-19 -125h-913zM115 616l18 136q366 -19 744 -19q95 0 174 6l12 -12l-19 -125h-913z" />
<glyph unicode="&#x3e;" horiz-adv-x="1179" d="M113 229l10 21l715 262v8l-715 264l-10 21l49 135q227 -117 495 -219q244 -92 381 -135l29 -131q-207 -62 -456 -163t-445 -200z" />
<glyph unicode="?" horiz-adv-x="645" d="M12 1040q0 73 32.5 141t87 120t122 92t141.5 63q145 0 236.5 -82.5t91.5 -222.5q-15 -19 -31 -37.5t-36 -38t-35 -33.5t-41 -34.5t-38.5 -30.5t-44 -32.5t-40.5 -29t-44.5 -31t-41.5 -28.5q-20 -60 -41 -178.5t-27 -145.5l-127 -20l10 328q81 63 135 157.5t54 188.5 q0 100 -76 100q-34 0 -59 -10q-19 -40 -19 -94q0 -44 29 -68l-4 -16q-118 -54 -183 -119q-51 0 -51 61zM43 190q25 45 89 108.5t110 88.5q36 -22 82 -80t84 -117q-30 -49 -93.5 -118.5t-109.5 -102.5q-42 31 -89.5 98.5t-72.5 122.5z" />
<glyph unicode="@" horiz-adv-x="1746" d="M61 209q0 227 60.5 427.5t174 359.5t288.5 265.5t393 141.5q153 0 279.5 -33t224 -99.5t151.5 -176.5t54 -256q0 -191 -65.5 -367t-194.5 -311t-300 -191q-155 23 -155 369q-38 10 -92 10q-70 0 -115 -10q-33 -127 -33 -240q0 -36 12 -98q-198 0 -342 -25l-20 15l362 999 q-59 26 -88 47l11 37q120 -18 313 -18t328 22l8 -8q-23 -97 -38 -290.5t-15 -383.5q0 -183 16 -276q121 107 185.5 291t64.5 358q0 257 -144 383.5t-411 126.5q-94 0 -194.5 -19.5t-172.5 -58.5q-120 -105 -208 -267t-130.5 -336.5t-42.5 -342.5q0 -237 132.5 -377.5 t365.5 -140.5q134 0 252 47l12 -29q-181 -120 -289 -143q-304 0 -470.5 152t-166.5 446zM791 475q25 -10 92 -10q64 0 92 12q8 141 8 297q0 78 -6 166q-9 6 -29 6q-10 0 -18 -2.5t-14.5 -8t-11.5 -10.5t-9.5 -15t-7.5 -16.5t-6 -19t-4.5 -19t-4.5 -20t-4 -18.5z" />
<glyph unicode="A" horiz-adv-x="1193" d="M-6 920q0 155 108.5 273.5t274.5 180.5q190 -41 360 -41q192 0 330 23l12 -10q-29 -121 -49 -404t-20 -545q0 -278 22 -397q-268 -8 -383 -31l-12 11q36 160 55 456q-47 13 -117 13q-74 3 -141 -13q-43 -173 -43 -311q0 -50 15 -127q-213 0 -383 -29l-25 17l405 1185 q55 19 111 31l2 15q-96 0 -196.5 -14.5t-141.5 -53.5q-4 -16 -4 -33q0 -63 29 -108v-17q-37 -31 -77 -80.5t-63 -93.5q-35 0 -52 31t-17 72zM463 592q38 -14 119 -14q77 0 116 16q11 244 11 383q0 119 -9 233q-11 7 -36 7t-39 -7q-38 -56 -62 -180z" />
<glyph unicode="B" horiz-adv-x="1171" d="M-152 897q0 79 32 152t87.5 129.5t124.5 100.5t148 73q99 -19 483 -19q73 0 131 -12t106 -39t74.5 -75t26.5 -115q0 -113 -72 -198.5t-190 -139.5v-9q151 0 240 -63t89 -197q0 -74 -38 -144.5t-98.5 -126t-140.5 -104.5t-157.5 -83t-156.5 -58l-66 17q-145 37 -233 37 q-42 0 -88 -9l-13 27q44 47 58 162q36 330 36 710q0 132 -8 236q55 19 111 31l2 14q-81 0 -173 -15.5t-130 -50.5q-4 -16 -4 -32q0 -66 28 -109v-16q-37 -31 -76.5 -80.5t-62.5 -93.5q-35 0 -52.5 30t-17.5 70zM530 393q0 -2 5 -217q45 -26 100 -26q75 0 115 32 q32 98 32 224q0 78 -6.5 125.5t-28 88t-64 58.5t-110.5 18l9 76q47 3 82 19q25 43 40 113t15 126q0 41 -2.5 67t-10.5 56.5t-28 45.5t-51 15q-41 0 -68 -12q-29 -375 -29 -809z" />
<glyph unicode="C" horiz-adv-x="954" d="M61 377q0 323 144.5 575t427.5 412q82 -31 215 -31q79 0 121 13l14 -29q-55 -73 -87 -210.5t-32 -246.5h-35q-20 52 -38 156l-43 33q-45 34 -71 52.5t-75.5 42t-85.5 23.5q-113 -237 -113 -708q0 -68 4.5 -131t20 -136.5t39.5 -126.5t67.5 -88.5t100.5 -35.5 q55 99 55 256q0 36 -6 63l14 10q126 3 256 23q-31 -157 -144.5 -306t-256.5 -223q-127 0 -223 46.5t-154 130t-86.5 193t-28.5 243.5z" />
<glyph unicode="D" horiz-adv-x="1261" d="M-152 897q0 79 32 152t87.5 129.5t124.5 100.5t148 73q99 -19 452 -19q270 0 389 -135.5t119 -417.5q0 -294 -182.5 -513t-478.5 -298l-64 17q-48 12 -123 24.5t-114 12.5q-42 0 -88 -9l-13 27q44 47 58 162q36 330 36 710q0 132 -8 236q55 19 111 31l2 14 q-81 0 -173 -15.5t-130 -50.5q-4 -16 -4 -32q0 -66 28 -109v-16q-37 -31 -76.5 -80.5t-62.5 -93.5q-35 0 -52.5 30t-17.5 70zM532 393q0 -113 11 -225q32 -18 86 -18q101 0 149 43q41 88 63.5 225t22.5 256q0 46 -0.5 76t-2.5 78.5t-6 82t-11.5 77t-18.5 73t-27.5 61t-38 50 t-50.5 30.5t-64 12q-46 0 -76 -12q-37 -380 -37 -809z" />
<glyph unicode="E" horiz-adv-x="1163" d="M29 264q0 169 113 288.5t288 156.5q18 0 92 -11l2 15q-65 13 -118 32.5t-101.5 49.5t-76 76.5t-27.5 103.5q102 134 235 241.5t271 147.5q185 0 311 -74q-89 -134 -119 -289h-18q-75 77 -139 118.5t-142 41.5q-29 0 -59 -6q-13 -33 -13 -82q0 -144 50.5 -219t179.5 -94 l-13 -78q-181 0 -276.5 -90.5t-95.5 -269.5q0 -123 56.5 -206t164.5 -83q93 0 133 30q36 50 54 127t18 150q0 37 -3 62t-11.5 51.5t-28 39.5t-49.5 13q-17 0 -33 -4q-6 -21 -6 -49q0 -82 45 -127v-17q-36 -22 -76 -64.5t-64 -84.5q-30 0 -46.5 20.5t-20.5 45.5t-4 63 q0 163 110.5 261t286.5 114q106 -26 154.5 -86t48.5 -168q0 -92 -53 -182.5t-139 -161.5t-181 -125t-192 -88q-235 0 -371.5 109t-136.5 302z" />
<glyph unicode="F" horiz-adv-x="1007" d="M-152 897q0 79 32 152t87.5 129.5t124.5 100.5t148 73q211 -25 442 -25q255 0 344 59l25 -22q-100 -147 -103 -367h-35q-27 90 -36 191q-37 -19 -119 -19q-81 0 -185 17q-28 -199 -41 -402q39 -8 113 -8q122 0 225 35l11 -12q-14 -40 -31 -172q-143 20 -258 20 q-43 0 -66 -4q-6 -138 -6 -264q0 -80 9.5 -202.5t21.5 -176.5q-266 -7 -383 -31l-12 11q29 122 50 398.5t21 534.5q0 158 -4 236q55 19 111 31l2 14q-81 0 -173 -15.5t-130 -50.5q-4 -16 -4 -32q0 -66 28 -109v-16q-37 -31 -76.5 -80.5t-62.5 -93.5q-35 0 -52.5 30t-17.5 70 z" />
<glyph unicode="G" horiz-adv-x="1114" d="M61 479q0 557 572 885q41 -15 118.5 -23t137.5 -8q79 0 121 13l14 -29q-55 -73 -87 -210.5t-32 -246.5h-35q-22 56 -39 156l-43 33q-157 118 -272 118q-52 -119 -82.5 -291.5t-30.5 -314.5q0 -78 10.5 -145.5t34.5 -131.5t72 -101.5t115 -37.5q23 10 61 48l4 178 q0 69 -12 137q-61 15 -145 53l4 43q68 -9 139.5 -10.5t154 15t148.5 48.5l21 -14q-25 -57 -31 -119q-36 -290 -39 -624q-99 -115 -269 -212.5t-306 -97.5q-56 0 -94 18.5t-38 61.5q119 60 175 154h16q60 -60 137 -60q49 0 72 13q54 96 61 291q-68 -58 -141 -99 q-228 0 -360 139t-132 371z" />
<glyph unicode="H" horiz-adv-x="1386" d="M-152 897q0 79 32 152t87.5 129.5t124.5 100.5t148 73q73 -15 159 -15q97 0 187 23l12 -10q-40 -170 -61 -541q92 -21 184 -21q95 0 178 19q4 102 4 145q0 91 -6.5 209.5t-17.5 167.5q65 73 147 144.5t177 137t198 106t190 40.5q56 0 93.5 -18.5t37.5 -61.5 q-119 -59 -174 -153h-16q-59 59 -137 59q-37 0 -72 -12q-45 -75 -63 -238q-58 -508 -58 -940q0 -97 6 -219t17 -174q-256 -7 -383 -31l-13 11q24 107 42 291.5t24 373.5q-85 14 -176 14q-104 0 -189 -14q-12 -91 -12 -266q0 -80 9.5 -202.5t21.5 -176.5q-266 -7 -383 -31 l-12 11q29 122 50 409t21 547q0 69 -4 213q52 18 113 31l2 14q-81 0 -173 -15.5t-130 -50.5q-4 -16 -4 -32q0 -66 28 -109v-16q-37 -31 -76.5 -80.5t-62.5 -93.5q-35 0 -52.5 30t-17.5 70z" />
<glyph unicode="I" horiz-adv-x="704" d="M-152 897q0 79 32 152t87.5 129.5t124.5 100.5t148 73q73 -15 159 -15q97 0 187 23l12 -10q-30 -126 -55 -423t-25 -548q0 -80 9.5 -202.5t21.5 -176.5q-266 -7 -383 -31l-12 11q29 122 50 409t21 547q0 69 -4 213q52 18 113 31l2 14q-81 0 -173 -15.5t-130 -50.5 q-4 -16 -4 -32q0 -66 28 -109v-16q-37 -31 -76.5 -80.5t-62.5 -93.5q-35 0 -52.5 30t-17.5 70z" />
<glyph unicode="J" horiz-adv-x="704" d="M-152 897q0 79 32 152t87.5 129.5t124.5 100.5t148 73q73 -15 159 -15q97 0 187 23l12 -10q-34 -151 -57 -442.5t-23 -514.5q0 -209 41 -366q-105 -128 -263.5 -244.5t-324.5 -194.5l-24 33q71 67 120 146.5t76.5 171.5t40 177.5t19.5 198.5q22 354 22 621q0 69 -4 213 q52 18 113 31l2 14q-81 0 -173 -15.5t-130 -50.5q-4 -16 -4 -32q0 -66 28 -109v-16q-37 -31 -76.5 -80.5t-62.5 -93.5q-35 0 -52.5 30t-17.5 70z" />
<glyph unicode="K" horiz-adv-x="1224" d="M-152 897q0 79 32 152t87.5 129.5t124.5 100.5t148 73q73 -15 159 -15q97 0 187 23l12 -10q-50 -207 -74 -664l129 150q156 178 156 426q0 11 -4 61l14 10q227 0 389 19q-53 -153 -158 -302.5t-233 -261.5q121 -271 209 -434q55 -102 91 -165t98 -150t114 -129 q35 -12 72 -12q88 0 141 71h17q30 -43 84 -83.5t106 -61.5q0 -43 -37.5 -61.5t-93.5 -18.5q-170 0 -406.5 88.5t-398.5 190.5q-68 314 -221 602l-72 -54q-2 -66 -2 -192q0 -80 9.5 -202.5t21.5 -176.5q-266 -7 -383 -31l-12 11q29 122 50 409t21 547q0 69 -4 213 q52 18 113 31l2 14q-81 0 -173 -15.5t-130 -50.5q-4 -16 -4 -32q0 -66 28 -109v-16q-37 -31 -76.5 -80.5t-62.5 -93.5q-35 0 -52.5 30t-17.5 70z" />
<glyph unicode="L" horiz-adv-x="1067" d="M-152 897q0 79 32 152t87.5 129.5t124.5 100.5t148 73q73 -15 159 -15q97 0 187 23l12 -10q-30 -127 -55 -414.5t-25 -536.5q0 -142 17 -264q40 -8 96 -8q83 0 155 22t111 66q4 16 4 33q0 63 -29 108v17q37 31 77 80.5t63 93.5q35 0 52 -31t17 -72q0 -146 -100 -281.5 t-242 -193.5q-88 31 -211 31q-210 0 -362 -31l-12 11q29 122 50 409t21 547q0 69 -4 213q52 18 113 31l2 14q-81 0 -173 -15.5t-130 -50.5q-4 -16 -4 -32q0 -66 28 -109v-16q-37 -31 -76.5 -80.5t-62.5 -93.5q-35 0 -52.5 30t-17.5 70z" />
<glyph unicode="M" horiz-adv-x="1517" d="M-125 897q0 105 56.5 197.5t142 155t192.5 102.5q73 -15 185 -15q121 0 200 27l11 -10q-13 -47 -13 -97q0 -51 20.5 -190.5t49.5 -273.5l43 -201l14 4q-9 75 15 166l133 459q12 41 12 69q0 23 -6 35l6 14q41 -6 166 -6q49 0 141.5 9t130.5 20l15 -10q-46 -242 -46 -789 q0 -169 12.5 -330t30.5 -233q-307 -17 -370 -31l-15 11q22 115 35 304.5t13 379.5q0 166 -23 366h-8q-81 -248 -121 -407t-47.5 -224t-7.5 -149q-18 -6 -83.5 -22.5t-119.5 -33t-78 -32.5l-24 16q4 46 4 68q0 227 -144 772v-2l-8 -2q-90 -539 -94 -1014q-175 -5 -281 -29 l-12 11q58 175 139 546.5t115 620.5q52 18 113 31l2 14q-87 0 -180.5 -15.5t-131.5 -50.5q-4 -16 -4 -32q0 -64 29 -109v-16q-37 -31 -76.5 -80.5t-62.5 -93.5q-35 0 -52.5 30t-17.5 70z" />
<glyph unicode="N" horiz-adv-x="1312" d="M-152 897q0 79 32 152t87.5 129.5t124.5 100.5t148 73q73 -15 174 -15q112 0 202 23l13 -10q35 -181 128 -438.5t187 -422.5l70 -122l6 2q0 361 -18 622t-35 342q169 9 254 31l12 -10q-30 -125 -52 -398.5t-22 -533.5q0 -236 31 -422q-13 -1 -103.5 -5.5t-174.5 -10.5 t-103 -11l-14 7q-49 169 -140 403.5t-190 450.5q-53 113 -88 159l-8 -4q0 -362 18 -636t35 -353q-166 -9 -254 -31l-12 11q29 120 49 407t20 549q0 69 -4 213q52 18 113 31l2 14q-81 0 -173 -15.5t-130 -50.5q-4 -16 -4 -32q0 -66 28 -109v-16q-37 -31 -76.5 -80.5 t-62.5 -93.5q-35 0 -52.5 30t-17.5 70z" />
<glyph unicode="O" horiz-adv-x="1204" d="M61 487q0 158 58.5 314.5t148.5 269.5l31 -14q-53 -98 -53 -213q0 -222 157 -322q0 -74 10.5 -140t32 -121.5t58.5 -88.5t86 -33q58 0 100 23q55 111 83 300t28 349q0 381 -187 381q-60 0 -102 -23q-36 -51 -54 -127t-18 -149q0 -37 3 -62t11.5 -51.5t28 -39.5t49.5 -13 q17 0 33 4q6 21 6 49q0 82 -45 127v17q92 63 140 149q73 0 73 -123q0 -147 -90 -243t-243 -129q-64 33 -94.5 105t-30.5 161q0 175 107 318.5t276 201.5q479 0 479 -518q0 -181 -77 -361.5t-215.5 -319.5t-307.5 -196q-228 0 -355 141t-127 377z" />
<glyph unicode="P" horiz-adv-x="1142" d="M-152 897q0 79 32 152t87.5 129.5t124.5 100.5t148 73q99 -19 473 -19q99 0 171.5 -13t133.5 -45t92 -93t31 -150q0 -85 -31 -156t-85 -120.5t-126.5 -84t-154.5 -51t-171 -16.5l7 76q108 0 161.5 71.5t53.5 219.5q0 50 -5.5 89t-19.5 76t-43 57.5t-72 20.5 q-47 0 -90 -12q-41 -284 -41 -823q0 -80 9.5 -202.5t21.5 -176.5q-266 -7 -383 -31l-12 11q29 122 50 398.5t21 534.5q0 132 -8 236q55 19 111 31l2 14q-81 0 -173 -15.5t-130 -50.5q-4 -16 -4 -32q0 -66 28 -109v-16q-37 -31 -76.5 -80.5t-62.5 -93.5q-35 0 -52.5 30 t-17.5 70z" />
<glyph unicode="Q" horiz-adv-x="1204" d="M-27 -309q70 87 172.5 169t202.5 132q-108 28 -182.5 103t-108.5 174.5t-34 217.5q0 284 167.5 530t434.5 347q479 0 479 -518q0 -181 -76 -359.5t-214.5 -317.5t-309.5 -200q-202 -73 -277 -137l11 -12q119 76 266 88q74 -14 160 -55.5t149.5 -81t144.5 -71.5t152 -32 q41 0 61.5 49t20.5 105l8 14q110 7 215 62q25 -18 25 -45q0 -63 -80.5 -130t-191.5 -114.5t-224 -78t-182 -30.5q-115 105 -264 179.5t-281 74.5q-111 0 -205 -94zM365 522q0 -101 17.5 -184t61 -141t107.5 -58q58 0 100 23q55 111 83 300t28 349q0 381 -187 381 q-60 0 -102 -23q-53 -134 -80.5 -310t-27.5 -337z" />
<glyph unicode="R" horiz-adv-x="1251" d="M-152 897q0 79 32 152t87.5 129.5t124.5 100.5t148 73q99 -19 465 -19q78 0 140 -7.5t119 -28t95 -54t60 -87.5t22 -126q0 -230 -256 -352q28 -58 58 -114t68.5 -125t47.5 -85q37 -68 108.5 -183t112.5 -171q-212 -3 -397 -31l-15 4q-23 104 -92.5 286t-159.5 353h-51 l6 76q106 0 165 70t59 211q0 245 -140 245q-47 0 -90 -12q-41 -284 -41 -823q0 -80 9.5 -202.5t21.5 -176.5q-266 -7 -383 -31l-12 11q29 122 50 398.5t21 534.5q0 132 -8 236q55 19 111 31l2 14q-81 0 -173 -15.5t-130 -50.5q-4 -16 -4 -32q0 -66 28 -109v-16 q-37 -31 -76.5 -80.5t-62.5 -93.5q-35 0 -52.5 30t-17.5 70z" />
<glyph unicode="S" horiz-adv-x="946" d="M-43 113q72 136 195 243t227 107q56 0 93.5 -18.5t37.5 -61.5q-29 -27 -61.5 -72t-51.5 -82h-16q-45 60 -117 60q-28 0 -49 -6q-4 -20 -4 -39q0 -106 60.5 -184.5t162.5 -104.5q65 58 126 167.5t61 184.5q0 48 -29.5 93t-76 80.5t-103 70.5t-113.5 70.5t-103.5 71.5 t-76 82t-29.5 95q0 84 60.5 189t148.5 188t170 117q111 -31 283 -31q86 0 141 17l12 -27q-56 -74 -86.5 -194t-30.5 -226h-34q-26 65 -41 156l-62 37q-140 86 -276 86q-23 -23 -23 -74q0 -65 56 -125t136 -107.5t159.5 -95.5t135.5 -109t56 -128q0 -97 -48.5 -213.5 t-124.5 -221t-165.5 -195.5t-175.5 -149q-119 0 -213.5 37.5t-152.5 118t-58 193.5z" />
<glyph unicode="T" horiz-adv-x="1081" d="M29 901q0 159 100.5 281t261.5 182q12 -1 236 -20t315 -19q52 0 76 8q65 68 115 109l26 -12q-71 -133 -96 -304l-47 15q-79 22 -217 33q-22 -164 -36.5 -385t-14.5 -410q0 -81 9.5 -203.5t20.5 -175.5q-266 -7 -383 -31l-12 11q29 122 50.5 409.5t21.5 546.5q0 75 -4 223 q64 18 108 23l2 14q-153 6 -227 -8t-121 -58q-4 -16 -4 -32q0 -64 29 -109v-16q-37 -31 -77 -80.5t-63 -93.5q-35 0 -52 30.5t-17 71.5z" />
<glyph unicode="U" horiz-adv-x="1333" d="M-152 897q0 79 32 152t87.5 129.5t124.5 100.5t148 73q73 -15 159 -15q93 0 183 23l12 -10q-31 -137 -54.5 -368t-23.5 -427q0 -59 1 -93.5t4 -85t10.5 -80.5t19.5 -61.5t32.5 -48.5t47.5 -22q55 38 110.5 105t89.5 141q15 255 15 526q0 97 -6 219t-17 174q268 7 383 31 l13 -10q-33 -147 -52.5 -434.5t-19.5 -522.5q0 -289 22 -393q-262 -12 -356 -31l-14 11q40 154 53 276l-8 2q-57 -105 -124 -176t-161 -113q-200 4 -282 116.5t-82 334.5q0 66 15 258.5t15 257.5q0 69 -4 213q52 18 113 31l2 14q-81 0 -173 -15.5t-130 -50.5q-4 -16 -4 -32 q0 -66 28 -109v-16q-37 -31 -76.5 -80.5t-62.5 -93.5q-35 0 -52.5 30t-17.5 70z" />
<glyph unicode="V" horiz-adv-x="1150" d="M-150 897q0 79 32 152t87.5 129.5t124.5 100.5t148 73q73 -15 159 -15q97 0 187 23l12 -10q-31 -138 -53.5 -392t-26.5 -565q0 -76 2 -121q18 -31 54 -59t69 -41q154 438 154 881q0 63 -15.5 131t-48.5 98v18q176 49 279 113q74 -37 101.5 -107t27.5 -171 q0 -151 -42.5 -310t-118 -308.5t-163 -281.5t-194.5 -262l-19 -4l-69 33q-17 8 -72.5 35.5t-85.5 40.5t-79 26t-91 13q-39 0 -66 -8l-10 28q57 46 66 158q28 350 28 641q0 69 -4 213q52 18 113 31l2 14q-81 0 -173 -15.5t-130 -50.5q-4 -16 -4 -32q0 -66 28 -109v-16 q-37 -31 -76.5 -80.5t-62.5 -93.5q-35 0 -52.5 30t-17.5 70z" />
<glyph unicode="W" horiz-adv-x="1654" d="M-150 897q0 79 32 152t87.5 129.5t124.5 100.5t148 73q73 -15 159 -15q97 0 187 23l12 -10q-31 -138 -53.5 -392t-26.5 -565q0 -76 2 -121q18 -31 54 -59t69 -41q154 438 154 881q0 224 -107 262l4 28q157 -10 398 -10q154 0 331.5 26.5t274.5 80.5l18 -23 q-37 -44 -125 -102q33 -62 33 -180q0 -306 -146.5 -619.5t-379.5 -542.5l-19 -4l-69 33q-152 69 -242 166q-68 -103 -145 -195l-19 -4l-69 33q-12 6 -73 35t-89 41t-77 25.5t-89 13.5q-39 0 -66 -8l-10 28q57 46 66 158q28 350 28 641q0 69 -4 213q52 18 113 31l2 14 q-81 0 -173 -15.5t-130 -50.5q-4 -16 -4 -32q0 -66 28 -109v-16q-37 -31 -76.5 -80.5t-62.5 -93.5q-35 0 -52.5 30t-17.5 70zM924 434q23 -73 91.5 -162t125.5 -100q141 401 141 881q0 115 -32.5 168t-114.5 53q-4 0 -50 -4q8 -13 12.5 -59t4.5 -76q0 -340 -178 -701z" />
<glyph unicode="X" horiz-adv-x="1118" d="M-141 897q0 149 107 271.5t263 183.5q77 -17 187 -17q58 0 112 13l11 -11q62 -270 143 -508q47 93 86 219t39 205q0 41 -10 70l8 10q196 0 315 31q-2 -40 -15.5 -85t-29.5 -83t-48 -89t-53.5 -83t-64.5 -86.5t-62.5 -77.5t-66 -77.5t-57.5 -67.5q72 -181 176 -361 q37 -68 108.5 -183t112.5 -171q-258 -4 -438 -31l-14 4q-118 409 -174 564q-48 -108 -88.5 -247t-40.5 -208q0 -41 10 -70l-8 -10q-197 0 -316 -31q3 59 34 134t69 140t99.5 149t100.5 133t99 120q-62 153 -154 332q-9 15 -100 170q54 18 112 31l2 14q-199 0 -270 -66 q-4 -16 -4 -32q0 -64 29 -109v-16q-37 -31 -77 -80.5t-63 -93.5q-35 0 -52 29.5t-17 70.5z" />
<glyph unicode="Y" horiz-adv-x="1077" d="M-424 1573q0 43 37.5 61.5t93.5 18.5q71 0 180.5 -35.5t227 -92t209.5 -106t174 -98.5q10 -102 42 -223.5t101 -337.5q44 85 84.5 247t40.5 246q0 41 -10 70l8 10q196 0 315 31q-4 -74 -42 -169.5t-97 -191.5t-117.5 -177t-120.5 -156q-10 -141 -10 -373q0 -154 31 -297 q-266 -7 -383 -31l-12 11q24 99 43.5 276t25.5 346q-44 99 -126.5 300.5t-86.5 209.5q-61 143 -112.5 230t-126.5 147q-30 10 -56 10q-88 0 -143 -80h-16q-65 109 -154 154z" />
<glyph unicode="Z" d="M-92 -31q65 78 132.5 175t195.5 307l346 567l-7 6q-13 -8 -47 -16q-12 6 -38.5 20t-39.5 20t-33 14t-37.5 11.5t-35.5 3.5q-57 0 -57 -112q0 -22 4 -54l-6 -14q-48 -12 -105 -39.5t-96 -58.5q-33 16 -33 57q0 77 90 195.5t201.5 214t189.5 133.5q50 -31 115 -48.5 t125 -17.5q123 0 191 60l32 -21q-36 -46 -152 -235t-210 -369l-264 -500q62 -17 137.5 -78t144.5 -135t137.5 -145.5t136 -119.5t119.5 -48q41 0 61.5 49t20.5 105l9 14q49 3 109.5 20.5t105.5 40.5q24 -17 24 -45q0 -71 -83.5 -139t-201 -113t-237 -72.5t-197.5 -27.5 q-60 94 -104 156.5t-96 125t-97 98t-98 57.5t-108 22q-111 0 -205 -94z" />
<glyph unicode="[" horiz-adv-x="655" d="M131 -416q30 127 85.5 912t43.5 936l16 10q138 -35 404 -31l-4 -51q-104 -3 -252 -41l-115 -1620q147 -40 246 -43l-2 -51q-266 4 -408 -31z" />
<glyph unicode="\" horiz-adv-x="581" d="M14 1421q87 28 138 58h12q51 -268 110 -496l175 -616q49 -183 118 -390q-43 -46 -118 -75h-15l-280 1040q-80 291 -140 479z" />
<glyph unicode="]" horiz-adv-x="655" d="M-25 -395l5 51q103 3 251 41l115 1620q-147 40 -246 43l2 51q266 -4 408 31l14 -10q-30 -127 -85.5 -912t-43.5 -936l-16 -10q-138 35 -404 31z" />
<glyph unicode="^" horiz-adv-x="1060" d="M92 606q119 208 193 362.5t188 436.5l109 20q118 -290 195 -454t192 -365l-70 -37l-369 557l-368 -557z" />
<glyph unicode="_" horiz-adv-x="1357" d="M14 -377l82 121q327 -25 826 -25q247 0 403 13l18 -17l-81 -112h-1225z" />
<glyph unicode="`" horiz-adv-x="569" d="M-82 1327q2 32 26 105.5t44 93.5q39 6 110 2q94 -170 389 -367l-28 -49z" />
<glyph unicode="a" horiz-adv-x="1077" d="M-14 -16l381 1052q-59 24 -93 49l11 39q126 -18 329 -18t344 22l11 -8q-24 -101 -41 -338t-17 -456q0 -232 19 -332q-222 0 -361 -25l-10 8q33 152 47 373q-42 10 -98 10q-74 0 -119 -10q-35 -134 -35 -252q0 -32 13 -104q-208 0 -361 -25zM416 496q37 -13 98 -13 q58 0 96 15q8 148 8 311q0 81 -6 176q-9 6 -30 6q-24 0 -39 -6q-24 -38 -45 -131z" />
<glyph unicode="b" horiz-adv-x="1050" d="M84 1067l2 39q99 0 287 9t256 9q57 0 101 -4t87.5 -17t71.5 -34.5t45.5 -58t17.5 -86.5q0 -187 -262 -293v-6q72 0 126.5 -10.5t99.5 -35t68.5 -70t23.5 -110.5q0 -61 -38.5 -121t-95 -105t-133.5 -87t-140 -68.5t-128 -48.5l-55 15q-98 26 -213 26q-61 0 -94 -8l-13 27 q38 41 49 133q31 299 31 612q0 147 -12 264q-43 10 -82 29zM469 330q0 -24 1 -81.5t1 -94.5q39 -23 84 -23q63 0 96 23q29 79 29 186q0 126 -34.5 182t-141.5 56l8 71q40 4 70 17q20 35 32.5 93.5t12.5 104.5q0 30 -2.5 52t-10 45t-24 35t-41.5 12q-28 0 -57 -11 q-23 -317 -23 -667z" />
<glyph unicode="c" horiz-adv-x="856" d="M57 393q0 447 516 737q68 -24 181 -24q65 0 102 12l14 -26q-46 -61 -72 -175t-26 -204h-39q-22 65 -31 112l-32 27q-119 98 -199 98q-41 -99 -64.5 -236t-23.5 -253q0 -328 192 -328q41 81 41 205q0 31 -4 59l13 9q139 3 239 20q-26 -140 -125 -265t-231 -192 q-210 0 -330.5 110t-120.5 314z" />
<glyph unicode="d" horiz-adv-x="1126" d="M84 1067l2 39q99 0 272.5 9t241.5 9q241 0 355 -114.5t114 -356.5q0 -130 -46.5 -244t-128 -199t-187.5 -146t-230 -95l-53 15q-102 26 -217 26q-61 0 -94 -8l-13 27q39 42 50 133q30 228 30 614q0 166 -14 262q-43 10 -82 29zM471 322q0 -92 10 -177q23 -14 72 -14 q91 0 129 31q31 71 48.5 188t17.5 215v63.5t-2 65.5t-5 68t-9.5 63t-15.5 60t-23 49.5t-31.5 41t-42 24.5t-54.5 10q-34 0 -63 -13q-31 -336 -31 -675z" />
<glyph unicode="e" horiz-adv-x="851" d="M43 272q0 73 31 132t84.5 98t120.5 62.5t145 31.5v6q-80 0 -145 21.5t-108.5 70.5t-43.5 119q208 242 467 326q156 0 264 -64q-71 -109 -102 -256h-19q-39 39 -54 53t-49.5 41t-65 37.5t-64.5 10.5q-21 0 -49 -7q-11 -22 -11 -67q0 -123 55 -180t179 -68l-10 -80 q-136 0 -216.5 -61t-80.5 -185q0 -81 42 -128.5t119 -47.5q69 0 105 27q10 36 10 84q0 51 -29 84l5 14q50 16 97 45t75 64q30 -6 45.5 -27.5t15.5 -52.5q0 -129 -113 -242.5t-258 -163.5q-86 0 -162 17t-140.5 52t-102 95t-37.5 139z" />
<glyph unicode="f" horiz-adv-x="874" d="M90 1085l2 39q145 -18 445 -18q193 0 356 27l10 -19q-37 -43 -56.5 -119t-23.5 -151h-37q-16 44 -26 117q-74 32 -174 32q-45 0 -78 -8q-22 -173 -31 -326q41 -8 92 -8q101 0 193 29l10 -10q-22 -53 -31 -162q-122 18 -209 18q-34 0 -61 -6q-4 -76 -4 -209 q0 -70 7.5 -172t17.5 -145q-229 0 -361 -25l-10 8q24 100 41.5 342t17.5 474q0 153 -8 260q-43 10 -82 32z" />
<glyph unicode="g" horiz-adv-x="1026" d="M57 393q0 440 514 737q64 -24 236 -24q77 0 117 12l14 -26q-51 -64 -83.5 -174t-35.5 -205h-39q-20 63 -30 112l-35 29q-52 42 -118.5 69t-127.5 27q-40 -99 -65 -237t-25 -250q0 -61 9 -115t29.5 -104t60.5 -79.5t95 -29.5q18 7 54 39l4 133q0 53 -13 113 q-54 14 -104 35l8 43q93 -9 198.5 4t184.5 47l21 -19q-19 -49 -25 -98q-29 -240 -33 -559q-37 -38 -97.5 -84.5t-133 -92t-151.5 -76t-138 -30.5q-48 0 -87.5 16t-39.5 50q44 24 90 65t70 80h18q52 -49 119 -49q45 0 60 10q43 81 47 291q-29 -23 -117 -84q-211 0 -331 111 t-120 313z" />
<glyph unicode="h" horiz-adv-x="1249" d="M90 1067l2 39q275 0 430 22l10 -8q-33 -139 -51 -442q81 -19 154 -19q75 0 147 17q4 86 4 112q0 230 -20 314q244 0 364 26l11 -8q-28 -125 -46 -366.5t-18 -429.5q0 -245 19 -328q-226 0 -361 -27l-10 8q41 186 55 547q-83 13 -147 13q-75 0 -158 -13q-10 -79 -10 -213 q0 -67 8.5 -169t18.5 -146q-240 0 -365 -27l-10 8q25 103 44 343.5t19 453.5q0 157 -8 264q-43 10 -82 29z" />
<glyph unicode="i" horiz-adv-x="641" d="M90 1067l2 39q270 0 430 22l10 -8q-25 -105 -46 -352t-21 -457q0 -67 8.5 -169t18.5 -146q-240 0 -365 -27l-10 8q25 103 44 343.5t19 453.5q0 157 -8 264q-43 10 -82 29z" />
<glyph unicode="j" horiz-adv-x="657" d="M-70 -375q126 118 176.5 250t61.5 346q20 420 20 541q0 169 -8 276q-43 10 -82 29l2 39q282 0 441 22l10 -8q-29 -132 -48.5 -374.5t-19.5 -436.5q0 -205 35 -340q-85 -90 -248.5 -196.5t-314.5 -184.5z" />
<glyph unicode="k" horiz-adv-x="1093" d="M90 1067l2 39q275 0 430 22l10 -8q-41 -163 -61 -545l109 125q129 147 129 340q0 18 -4 58l12 8q233 0 364 16q-80 -236 -333 -460q90 -202 182 -371q112 -206 178 -295q-212 -4 -373 -27l-12 4q-19 98 -69.5 246t-125.5 289l-61 -45v-152q0 -70 7.5 -171t17.5 -144 q-277 -9 -361 -27l-10 8q24 101 41.5 340t17.5 457q0 157 -8 264q-43 10 -82 29z" />
<glyph unicode="l" horiz-adv-x="808" d="M90 1067l2 39q270 0 430 22l10 -8q-25 -109 -46 -344.5t-21 -439.5q0 -120 12 -211q40 -8 105 -8q123 0 215 35l10 -13q-30 -91 -33 -166q-148 23 -266 23q-98 0 -211.5 -7.5t-165.5 -19.5l-10 8q23 103 41 343.5t18 453.5q0 157 -8 264q-43 10 -82 29z" />
<glyph unicode="m" horiz-adv-x="1386" d="M14 -20q57 174 133.5 529.5t90.5 528.5q-43 10 -82 29l2 39q294 0 452 27l11 -13q-11 -46 -11 -78q0 -40 17 -156.5t41 -230.5l34 -166l13 5q-7 64 12 135l111 383q10 38 10 59q0 20 -6 29l10 16q58 -10 152 -10q70 0 153 7t115 17l12 -8q-37 -196 -37 -657 q0 -140 10.5 -274t24.5 -195q-233 0 -350 -27l-12 8q38 196 38 572q0 155 -18 305h-6q-68 -207 -101.5 -337.5t-40 -184t-6.5 -123.5q-77 -13 -166.5 -38.5t-121.5 -45.5l-23 12q4 36 4 58q0 181 -119 649v-2l-8 -2q-74 -443 -78 -844q-147 0 -249 -25z" />
<glyph unicode="n" horiz-adv-x="1249" d="M90 1067l2 39q322 0 488 27q19 -110 57 -213q83 -228 242 -502l57 -101h4q0 303 -12.5 513.5t-24.5 275.5q129 0 227 24l11 -8q-26 -108 -47 -336.5t-21 -439.5q0 -194 27 -352q-236 0 -375 -21l-12 4q-25 85 -72.5 195t-128.5 276t-109 226q-39 89 -73 133l-6 -2 q0 -300 15 -520.5t28 -290.5q-123 0 -228 -25l-10 8q24 100 40.5 337.5t16.5 457.5q0 148 -16 266q-39 9 -80 29z" />
<glyph unicode="o" horiz-adv-x="1101" d="M57 403q0 246 148.5 438t398.5 296q208 0 324 -113.5t116 -321.5q0 -240 -153 -441t-391 -292q-194 0 -318.5 120.5t-124.5 313.5zM383 432q0 -68 7 -119.5t24 -94t49 -65t78 -22.5q55 0 92 16q40 112 63 257t23 270q0 68 -7 119.5t-24 94t-49 65t-78 22.5q-53 0 -92 -17 q-40 -112 -63 -256.5t-23 -269.5z" />
<glyph unicode="p" horiz-adv-x="1009" d="M90 1067l2 39q99 0 280 9t249 9q73 0 127 -5t108.5 -21t89.5 -42.5t56.5 -73t21.5 -110.5q0 -75 -29 -137.5t-78 -105t-115 -72.5t-139.5 -43.5t-152.5 -13.5l6 78q178 0 178 235q0 197 -114 197q-32 0 -78 -11q-33 -220 -33 -688q0 -67 8.5 -170t18.5 -147 q-250 -4 -361 -25l-10 8q24 101 41.5 340t17.5 457q0 147 -12 264q-43 10 -82 29z" />
<glyph unicode="q" horiz-adv-x="1101" d="M57 403q0 246 148.5 438t398.5 296q208 0 324 -113.5t116 -321.5q0 -224 -135 -415.5t-350 -290.5q44 -16 107.5 -55t114.5 -74.5t109.5 -63.5t100.5 -28q35 0 51.5 37.5t16.5 83.5l6 12q52 3 116 20t105 41q23 -19 23 -39q0 -53 -70 -109.5t-169 -98t-194 -70.5 t-157 -37q-53 49 -90.5 80t-93.5 70t-110.5 59t-105.5 20q-108 0 -174 -41l-24 29q41 45 122 91t148 59q-150 31 -242 144.5t-92 276.5zM383 432q0 -68 7 -119.5t24 -94t49 -65t78 -22.5q55 0 92 16q40 112 63 257t23 270q0 68 -7 119.5t-24 94t-49 65t-78 22.5 q-53 0 -92 -17q-40 -112 -63 -256.5t-23 -269.5z" />
<glyph unicode="r" horiz-adv-x="1128" d="M90 1067l2 39q99 0 280 9t249 9q73 0 126.5 -5t107.5 -21t88 -43t55.5 -73t21.5 -110q0 -99 -60 -179t-157 -128q51 -101 149 -274q106 -186 185 -297q-196 0 -373 -25l-10 4q-21 93 -77 244.5t-130 290.5h-47l6 78q87 0 136.5 56.5t49.5 170.5q0 38 -5.5 70.5 t-17.5 62.5t-36 47t-58 17q-31 0 -77 -11q-31 -223 -31 -688q0 -70 7.5 -172t17.5 -145q-250 -4 -361 -25l-10 8q24 101 41.5 340t17.5 457q0 184 -8 264q-43 10 -82 29z" />
<glyph unicode="s" horiz-adv-x="833" d="M20 193q141 131 195 260l47 -17q-12 -44 -12 -78q0 -63 56.5 -128t123.5 -91q35 35 64.5 95t29.5 104q0 45 -44 85.5t-106.5 72t-125 63.5t-106.5 73.5t-44 88.5q0 103 113 234t221 175q102 -24 248 -24q79 0 125 14l12 -22q-47 -61 -72.5 -164t-25.5 -193h-41 q-13 37 -29 109l-45 31q-47 32 -120.5 57t-133.5 25q-14 -20 -14 -54q0 -45 45 -85t109.5 -71l129 -62t109.5 -72t45 -87q0 -66 -40 -150t-101 -161t-127.5 -143t-126.5 -109q-222 0 -330 176z" />
<glyph unicode="t" horiz-adv-x="952" d="M2 713q0 150 87.5 260t236.5 164q62 -3 224 -18t257 -15q48 0 70 12q8 8 34.5 37t40.5 41l29 -14q-48 -99 -72 -258l-41 12q-66 19 -180 27q-43 -310 -43 -650q0 -64 8 -167t17 -148q-277 -9 -361 -27l-10 8q24 101 41.5 341.5t17.5 459.5q0 95 -6 203q-117 0 -172 -45 q-6 -15 -6 -39q0 -51 23 -90v-14q-65 -49 -123 -166q-33 0 -52.5 25.5t-19.5 60.5z" />
<glyph unicode="u" horiz-adv-x="1185" d="M70 1067l2 39q270 0 430 22l10 -8q-25 -111 -43 -299.5t-18 -355.5q0 -59 1 -92t6 -79.5t14.5 -72.5t28.5 -47.5t46 -26.5q46 33 94 89.5t76 115.5q8 188 8 422q0 250 -18 328q240 0 360 26l10 -8q-27 -123 -43 -361t-16 -435q0 -250 18 -328q-210 0 -338 -27l-12 8 q35 145 45 232l-8 2q-93 -172 -236 -242q-180 4 -263 97t-83 278q0 56 13.5 216t13.5 214q0 157 -16 264q-43 10 -82 29z" />
<glyph unicode="v" horiz-adv-x="1011" d="M74 1067l2 39q270 0 430 22l10 -8q-59 -257 -67 -766q0 -77 2 -116q14 -24 47 -48t61 -34q123 346 123 716q0 53 -12.5 110t-40.5 83v14q169 34 272 95q62 -31 85.5 -89.5t23.5 -142.5q0 -106 -26.5 -215t-69.5 -204t-107 -196t-127.5 -182.5t-142.5 -171.5l-17 -4 l-57 27q-76 35 -108 49t-87.5 30.5t-97.5 16.5q-47 0 -74 -12l-12 26q48 42 57 136q23 306 23 534q0 155 -8 262q-43 10 -82 29z" />
<glyph unicode="w" horiz-adv-x="1486" d="M74 1067l2 39q270 0 430 22l10 -8v-2q-59 -254 -67 -764q0 -77 2 -116q19 -26 53 -50.5t65 -33.5q111 332 111 718q0 182 -90 213l6 31q130 -10 375 -10q134 0 288 21t234 67l23 -29q-31 -36 -91 -75q27 -50 27 -148q0 -142 -35.5 -277t-102.5 -256t-149.5 -225.5 t-189.5 -210.5l-14 -4l-60 27q-163 75 -223 139q-72 -104 -141 -162l-17 -4l-57 27q-76 35 -108 49t-87.5 30.5t-97.5 16.5q-47 0 -74 -12l-12 26q48 42 57 136q23 306 23 534q0 155 -8 262q-43 10 -82 29zM827 354q19 -57 78.5 -124.5t108.5 -75.5q59 178 85.5 344.5 t26.5 357.5q0 95 -27 138.5t-95 43.5q-23 0 -41 -2q14 -25 14 -110q0 -258 -150 -572z" />
<glyph unicode="x" horiz-adv-x="954" d="M2 1067l2 39q280 0 440 22l11 -8q16 -59 40.5 -152t41.5 -153.5t36 -116.5q40 83 65.5 175.5t25.5 166.5q0 31 -9 58l7 8q183 0 294 27q-3 -58 -29.5 -122.5t-55.5 -113.5t-84.5 -116t-85 -98.5t-87.5 -92.5q48 -120 148 -299q116 -204 184 -295q-216 0 -407 -27l-13 4 q-85 297 -141 455q-39 -91 -63.5 -193.5t-24.5 -171.5q0 -33 8 -57l-6 -10q-192 0 -295 -25q7 130 104 277t240 287q-72 179 -127 276q-49 83 -139 227q-39 9 -80 29z" />
<glyph unicode="y" horiz-adv-x="950" d="M-14 1067l2 39q280 0 440 22l10 -8q16 -198 119 -499q37 69 69.5 207t32.5 210q0 40 -8 58l8 10q194 0 293 24q-12 -203 -325 -579q-9 -138 -9 -309q0 -128 27 -246q-276 -9 -358 -27l-11 8q20 83 35.5 231.5t20.5 289.5q-15 41 -37.5 93.5t-52.5 117t-43 94.5 q-71 155 -133 235q-39 9 -80 29z" />
<glyph unicode="z" horiz-adv-x="884" d="M-29 -16q104 123 267 389l274 450l-4 4q-17 -9 -41 -12q-76 55 -145 55q-50 0 -50 -94q0 -17 4 -45l-6 -12q-37 -10 -94 -42t-94 -61q-29 14 -29 48q0 65 84.5 175t187 200.5t167.5 121.5q99 -55 213 -55q107 0 167 55l29 -22q-41 -52 -144.5 -207t-181.5 -301l-194 -361 l6 -6q25 12 41 17q117 -80 211 -80q49 0 49 94q0 17 -4 45l4 12q38 10 95.5 42t95.5 61q26 -13 26 -47q0 -52 -54.5 -134.5t-129 -157.5t-156 -134.5t-133.5 -71.5q-69 40 -156 72t-151 32q-83 0 -123 -53z" />
<glyph unicode="{" horiz-adv-x="614" d="M96 522q61 13 107 40.5t49 70.5q7 99 -9 267.5t-10 264.5q5 60 61.5 123t128 106.5t136.5 61.5l14 -37q-55 -28 -106.5 -84.5t-73.5 -113.5q-7 -98 21.5 -282.5t23.5 -264.5q-35 -66 -202 -162v-8q153 -94 178 -162q-6 -81 -61.5 -264.5t-61.5 -280.5q13 -57 57.5 -113.5 t95.5 -84.5l-18 -39q-62 19 -127.5 61.5t-113.5 105.5t-44 123q7 98 47.5 266.5t47.5 266.5q3 40 -38 65.5t-96 34.5z" />
<glyph unicode="|" horiz-adv-x="534" d="M188 1473q86 33 144 73l14 -2q-6 -591 -6 -1943q-54 -30 -113 -47l-20 8q0 982 -4 1327.5t-15 583.5z" />
<glyph unicode="}" horiz-adv-x="602" d="M41 -403q55 28 106.5 84.5t73.5 113.5q7 98 -21.5 282.5t-23.5 264.5q34 65 203 162v8q-153 94 -178 162q6 81 61.5 264.5t61.5 280.5q-13 56 -57.5 113t-96.5 85l18 39q62 -19 127.5 -62t113.5 -106t44 -123q-7 -97 -47 -265.5t-47 -266.5q-3 -40 38 -66t95 -35l6 -38 q-61 -13 -107 -40.5t-49 -70.5q-7 -99 9 -268t10 -265q-5 -60 -61.5 -123t-128 -106t-136.5 -61z" />
<glyph unicode="~" horiz-adv-x="1482" d="M43 406q78 120 223 230t269 124q136 -91 258 -142t247 -51q101 0 184 45t169 129l47 -39q-70 -111 -205 -215t-258 -139q-61 0 -143 28t-150.5 62t-151 62t-143.5 28q-174 0 -299 -161z" />
<glyph unicode="&#xa1;" horiz-adv-x="530" d="M-43 -303q203 443 283 809l94 10l-33 -899q-52 -24 -128.5 -44t-119.5 -17q-50 47 -96 141zM123 858q23 42 85 95t114 81q38 -24 86 -76t79 -100q-30 -49 -93 -118.5t-109 -102.5q-42 31 -89.5 98.5t-72.5 122.5z" />
<glyph unicode="&#xa2;" horiz-adv-x="727" d="M41 358q0 200 119.5 369.5t314.5 290.5l10 186q34 4 62 13l8 -7q-9 -62 -18 -186q75 -20 139 -20q38 0 59 8l13 -31q-50 -56 -76 -151t-31 -193h-37q-11 40 -22 102l-29 43q-13 16 -35 35l-39 -602q85 85 152 254l49 -10q-61 -262 -215 -412l-10 -233l-11 -2 q-39 13 -59 30l21 158l-3 -2q-169 5 -265.5 99.5t-96.5 260.5zM358 453q0 -170 64 -224l43 623q-21 12 -51 16q-25 -89 -40.5 -205.5t-15.5 -209.5z" />
<glyph unicode="&#xa3;" horiz-adv-x="823" d="M14 498l33 94h86q34 143 163 282.5t277 227.5q89 -31 213 -31q47 0 68 8l12 -30q-67 -59 -104.5 -154.5t-42.5 -198.5h-37q-13 47 -23 103l-28 43q-24 33 -68 63t-80 31q-24 -57 -43.5 -159t-19.5 -165v-12q68 3 256 21l16 -11l-35 -84l-243 -16q-9 -69 -42.5 -137 t-82.5 -115q85 -16 217 -16q73 0 119 20q4 7 18.5 34t20.5 37t18.5 29t24.5 33l32 -16q-47 -117 -47 -250q0 -101 29 -143l-19 -29q-96 26 -222 42.5t-238 16.5q-131 0 -193 -43l-20 21q49 49 77.5 128.5t28.5 153.5q0 38 -6 108.5t-6 107.5l-92 -5z" />
<glyph unicode="&#xa4;" horiz-adv-x="1161" d="M10 233q20 15 193 154q-51 73 -51 184q0 169 116 301q-181 173 -192 183q13 45 82 114h12l197 -211q126 87 270 113q153 0 250 -63l164 159q82 -29 131 -39l4 -10l-223 -194q49 -76 49 -193q0 -183 -140 -323l-6 -5q229 -206 258 -231l-4 -8q-41 -6 -137 -39l-207 203 q-101 -66 -221 -90q-166 0 -270 65l-211 -180h-13q-16 18 -32 52t-19 58zM332 659q0 -135 65.5 -210.5t194.5 -75.5q43 0 93 12t79 33q34 44 52 108.5t18 122.5q0 138 -65.5 212.5t-197.5 74.5q-43 0 -93 -12t-79 -33q-33 -44 -50 -109t-17 -123z" />
<glyph unicode="&#xa5;" horiz-adv-x="1067" d="M-14 1030l2 37q165 0 270.5 5t226.5 24l11 -13q49 -257 139 -501q47 91 82 208t35 197q0 38 -11 70l9 10q184 0 303 31q-2 -43 -15 -88.5t-39.5 -95t-49 -87.5t-65 -93.5t-65 -84t-72.5 -87.5t-65 -77q0 -2 -1 -6t-1 -6q156 5 199 10l6 -8q-25 -32 -35 -65l-176 -7 q0 -5 -1 -25.5t-1 -41.5q154 5 198 10l7 -8q-25 -32 -35 -66l-170 -6q0 -125 30 -266q-233 -6 -354 -31l-12 11q35 147 51 278q-134 -4 -213 -14l-6 8q7 7 21.5 20.5t24.5 24t19 22.5l164 7l4 69q-137 -5 -219 -14l-6 8q7 7 21.5 20.5t25 24.5t19.5 23l151 6 q-42 93 -135 287q-77 162 -158 245q-62 10 -114 35z" />
<glyph unicode="&#xa6;" horiz-adv-x="534" d="M188 373q98 42 144 76l14 -3q-6 -591 -6 -843q-54 -30 -113 -47l-20 8q-1 263 -3.5 389.5t-7.5 225.5t-8 194zM188 1487q83 32 144 74l14 -2q-6 -591 -6 -852q-57 -32 -113 -48l-20 9q-1 263 -3.5 391.5t-7.5 231.5t-8 196z" />
<glyph unicode="&#xa7;" horiz-adv-x="872" d="M20 496q0 160 226 335q-107 93 -107 173q0 51 45.5 109.5t114 106.5t136.5 85.5t124 58.5q98 -31 186 -31q57 0 84 19l21 -23q-94 -109 -135 -233l-21 -6l-53 38q-36 28 -92.5 60t-93.5 37q-25 -14 -39.5 -44t-14.5 -61q0 -42 46.5 -89t113 -91t132.5 -90.5t112.5 -103 t46.5 -113.5q0 -157 -225 -338q106 -89 106 -170q0 -51 -45.5 -109.5t-114 -107t-136.5 -86t-124 -58.5q-98 31 -186 31q-58 0 -84 -18l-20 22q94 108 135 234l20 6l53 -39q35 -27 92.5 -59t94.5 -37q25 14 39 43.5t14 60.5q0 36 -33.5 75.5t-83.5 74t-108.5 75.5 t-108.5 79.5t-83.5 87t-33.5 96.5zM258 635q0 -25 14 -51t33.5 -47.5t53.5 -48.5t61.5 -46t71.5 -48.5t69 -47.5q53 62 53 148q0 29 -16.5 58t-53 60.5t-66.5 53.5t-85.5 59t-81.5 55q-53 -62 -53 -145z" />
<glyph unicode="&#xa8;" horiz-adv-x="829" d="M29 1335q23 42 82 92t108 76q35 -22 81 -72t77 -96q-31 -47 -91.5 -112.5t-103.5 -96.5q-39 29 -83 92.5t-70 116.5zM481 1335q23 41 82.5 91.5t108.5 76.5q35 -22 80.5 -71.5t76.5 -96.5q-32 -48 -91.5 -113t-102.5 -96q-39 29 -83.5 92.5t-70.5 116.5z" />
<glyph unicode="&#xa9;" horiz-adv-x="1517" d="M61 639q0 137 55.5 268.5t150 232.5t230 162.5t285.5 61.5q139 0 264 -53.5t215 -143.5t142.5 -215.5t52.5 -263.5q0 -137 -57 -268.5t-153 -230.5t-231 -159.5t-282 -60.5q-139 0 -263.5 52.5t-214 142t-142 213.5t-52.5 262zM170 643q0 -155 74.5 -286t204.5 -207 t286 -76q122 0 235.5 49t196 131.5t132 196t49.5 237.5q0 155 -76 286.5t-207 208.5t-287 77q-117 0 -228.5 -48.5t-195 -130.5t-134 -197t-50.5 -241zM422 555q0 151 99 308t231 235q103 -29 200 -29q41 0 74 8l10 -16q-67 -74 -67 -268h-37q-22 54 -31 100l-22 22 q-25 24 -70 43.5t-74 18.5q-35 -80 -56.5 -181t-21.5 -190q0 -248 144 -248q34 28 44.5 70t10.5 104q0 7 -4 31l6 6q28 2 94 14t90 21q-23 -110 -105.5 -208.5t-188.5 -151.5q-153 0 -239.5 81t-86.5 230z" />
<glyph unicode="&#xaa;" horiz-adv-x="899" d="M78 813q0 182 112.5 333.5t288.5 229.5q93 0 213 -55q48 80 70 109l26 -9q-55 -143 -55 -458q0 -175 12 -269q25 33 49.5 86.5t35 85t30.5 95.5l27 -7q-59 -330 -195 -424q-47 0 -81 14.5t-54 38t-31 61.5t-14.5 76.5t-3.5 92.5q2 9 11 59t13 74l-26 4 q-13 -68 -26.5 -119t-36.5 -112t-57 -109.5t-79 -79.5q-106 0 -167.5 82.5t-61.5 200.5zM334 862q0 -136 26 -153q54 74 93 230t39 263q-31 39 -70 39q-30 0 -45 -10q-43 -191 -43 -369z" />
<glyph unicode="&#xab;" horiz-adv-x="993" d="M70 547l4 51q261 134 501 385l48 -33l-287 -366l194 -406l-57 -35q-97 131 -193 230.5t-210 173.5zM461 547l4 51q136 69 245 150.5t216 193.5l53 -39l-252 -319l174 -365l-63 -37q-91 123 -175 206t-202 159z" />
<glyph unicode="&#xac;" horiz-adv-x="1179" d="M111 481l18 135q346 -18 702 -18q136 0 216 6l12 -12q0 -140 10 -412l-10 -12l-137 18v281h-795z" />
<glyph unicode="&#xad;" horiz-adv-x="614" d="M49 475l12 135h95q212 0 393 21l16 -10l-12 -127l-485 -31z" />
<glyph unicode="&#xae;" horiz-adv-x="888" d="M43 1008q0 173 121.5 295t294.5 122q163 0 275 -112t112 -275q0 -171 -122.5 -293t-293.5 -122q-164 0 -275.5 111.5t-111.5 273.5zM129 1024q0 -134 85 -226.5t218 -92.5q132 0 228 93.5t96 225.5q0 134 -83 224.5t-216 90.5t-230.5 -92t-97.5 -223zM256 1217l4 22 q40 0 115 3t98 3q69 0 102 -20.5t33 -71.5q0 -43 -23 -75t-63 -42l51 -92q25 -46 70 -110q-63 3 -133 -11l-4 2q-31 127 -68 203h-18l4 37q68 0 68 78q0 61 -41 61q-22 0 -35 -8q-13 -110 -13 -242q0 -91 7 -120q-76 0 -125 -9l-4 4q20 94 20 285q0 59 -6 88q-18 4 -39 15z " />
<glyph unicode="&#xaf;" horiz-adv-x="739" d="M0 1255l57 175l76 -9q110 -10 320 -10q114 0 264 10l22 -18l-57 -154l-662 -8z" />
<glyph unicode="&#xb0;" horiz-adv-x="745" d="M92 1042q0 126 85 214t216 110q119 0 192.5 -62t73.5 -174q0 -122 -77.5 -207t-204.5 -112q-122 0 -203.5 60t-81.5 171zM233 1102q0 -85 40.5 -133.5t121.5 -48.5q67 0 97 24q26 57 26 131q0 86 -40 134t-122 48q-66 0 -96 -24q-27 -59 -27 -131z" />
<glyph unicode="&#xb1;" horiz-adv-x="1179" d="M109 -6l18 125q366 -19 723 -19q114 0 194 6l13 -12l-19 -114h-913zM125 551l18 145q251 -12 375 -14v313l146 19l10 -13q-10 -182 -10 -319v-2q76 -2 223 -2q95 0 174 6l12 -12l-18 -135h-391q0 -157 18 -353l-143 -8l-21 4v357h-377z" />
<glyph unicode="&#xb2;" horiz-adv-x="802" d="M29 721q22 50 70 105t98.5 102t98.5 95t79 101t31 103q0 110 -95 110q-41 0 -78 -12q-12 -42 -12 -59q0 -18 6 -34t15 -20v-12q-34 -11 -80.5 -37.5t-67.5 -48.5q-8 0 -13 2t-7.5 3.5t-4 7.5t-1.5 8v11.5v12.5q0 88 114 217.5t217 155.5q161 0 234.5 -63t73.5 -216 q-43 -54 -104 -104t-134 -101.5t-111 -84.5q58 -17 134 -17q62 0 112 15q38 58 82 108l23 -12q-39 -99 -39 -213q0 -28 7.5 -70.5t18.5 -58.5l-14 -21q-96 18 -246.5 32.5t-234.5 14.5q-93 0 -140 -39z" />
<glyph unicode="&#xb3;" horiz-adv-x="739" d="M29 825q57 38 105.5 93.5t74.5 115.5l43 -16q-16 -31 -16 -53q0 -132 102 -166q39 27 57.5 83.5t18.5 116.5q0 53 -25.5 84t-75.5 31q-29 0 -53 -8l-10 33q93 58 145 168q-74 18 -121 18q-37 0 -55 -6q-27 -59 -53 -92l-31 10q33 79 33 174q0 71 -21 109l19 20 q36 -24 98 -36t108.5 -13.5t133.5 -1.5q96 0 168 10l8 -31q-81 -132 -242 -231v-6q55 0 100.5 -8.5t85.5 -27t62.5 -54t22.5 -84.5q0 -50 -29.5 -100.5t-73.5 -89.5t-101 -74.5t-105.5 -58t-92.5 -38.5q-78 0 -159.5 35t-120.5 94z" />
<glyph unicode="&#xb4;" horiz-adv-x="569" d="M82 1161q295 197 389 367q71 4 111 -2q20 -20 43.5 -93.5t25.5 -105.5l-540 -215z" />
<glyph unicode="&#xb6;" horiz-adv-x="1177" d="M43 1018q0 89 36 154.5t100 103t143.5 55t175.5 17.5q47 0 146.5 -7t137.5 -8l9 -10q-48 -221 -80 -657l-21 -295q-7 -100 -26 -186t-56 -165t-88 -134.5t-126.5 -88.5t-168.5 -33q-30 0 -50.5 19t-20.5 49q74 54 112 123l19 2q28 -25 80 -25q63 0 110 21q63 146 72 315 l22 342q-38 -6 -69 -6q-126 0 -229.5 50t-165.5 145.5t-62 218.5zM729 -23q26 69 44.5 199.5t43.5 489.5q36 485 72 667q172 13 274 53l15 -26q-83 -61 -137 -337.5t-54 -670.5q0 -238 31 -352q-167 0 -281 -31z" />
<glyph unicode="&#xb7;" horiz-adv-x="450" d="M43 586q23 42 85 95t114 81q38 -24 86.5 -76t79.5 -100q-30 -49 -93.5 -118.5t-109.5 -102.5q-42 31 -89.5 98.5t-72.5 122.5z" />
<glyph unicode="&#xb8;" horiz-adv-x="462" d="M2 -430q38 55 78 147l10 4q54 -81 154 -81q36 0 55 8q12 17 12 53q0 30 -15 49.5t-43.5 28t-55 11.5t-64.5 3l-14 10l119 232l92 4l-78 -117l8 -8q97 0 152 -54t45 -147q-43 -67 -109 -119t-139 -75q-49 0 -107 14.5t-100 36.5z" />
<glyph unicode="&#xb9;" horiz-adv-x="634" d="M49 733q64 36 117 55q1 5 5 33t6.5 46.5t6.5 58t6.5 76t4.5 91t2 113.5q0 24 -4 60.5t-5 56.5h-122l-5 4q0 38 5 53q203 39 340 140q16 1 51 4.5t43 3.5l4 -4q0 -3 -7 -53t-9.5 -72.5t-8.5 -78.5t-8.5 -98.5t-5 -102.5t-2.5 -118q0 -121 6 -192q49 -56 92 -76l-10 -37 q-86 23 -225 23q-166 0 -269 -21z" />
<glyph unicode="&#xba;" horiz-adv-x="802" d="M78 844q0 159 103 302t255 218q144 0 215.5 -81t71.5 -232q0 -160 -103.5 -305t-257.5 -216q-136 0 -210 85.5t-74 228.5zM328 870q0 -31 0.5 -49.5t2 -46.5t6 -44.5t11.5 -34t19 -25.5t28 -8q21 0 37 8q17 68 28 173t11 181q0 30 -0.5 46.5t-2 45.5t-6 46t-12 35.5 t-20 27t-29.5 8.5q-20 0 -36 -8q-15 -68 -26 -176.5t-11 -178.5z" />
<glyph unicode="&#xbb;" horiz-adv-x="993" d="M14 223l252 320l-174 364l64 37q91 -123 174.5 -205.5t201.5 -158.5l-4 -52q-135 -69 -244 -150.5t-216 -193.5zM371 176l286 367l-194 405l57 35q96 -130 192.5 -229.5t211.5 -173.5l-4 -52q-263 -135 -502 -385z" />
<glyph unicode="&#xbc;" horiz-adv-x="1638" d="M57 571q69 39 117 56q1 5 5 33t6.5 46.5t6.5 57.5t6.5 76t4.5 91t2 113q0 25 -3.5 61.5t-4.5 55.5h-123l-4 4q0 42 4 54q205 40 340 139q16 1 51 4.5t43 3.5l4 -4q0 -4 -6.5 -53t-9.5 -72t-8.5 -78.5t-8.5 -98t-5.5 -102.5t-2.5 -118q0 -122 6 -193q49 -56 92 -76 l-10 -36q-83 22 -225 22q-170 0 -268 -20zM188 16q261 297 379 445l453 571q99 121 309 416q68 -18 135 -21l11 -8q-82 -93 -318 -389l-891 -1128h-14q-7 6 -13 12.5t-11.5 15.5t-9 14.5t-9 18t-7.5 17t-7.5 19.5t-6.5 17zM791 266q116 133 199.5 256t156.5 273 q173 7 321 57l13 -6q-50 -119 -56 -510q83 0 136 45l26 -19q-33 -95 -43 -178q-58 9 -123 9q0 -37 6 -84q35 -41 95 -68l-11 -37q-86 23 -254 23q-134 0 -237 -21l-8 35q60 30 116 45q19 54 21 107h-340zM989 350q68 -12 162 -12l12 303h-10q-63 -155 -164 -291z" />
<glyph unicode="&#xbd;" horiz-adv-x="1638" d="M57 571q69 39 117 56q1 5 5 33t6.5 46.5t6.5 57.5t6.5 76t4.5 91t2 113q0 25 -3.5 61.5t-4.5 55.5h-123l-4 4q0 42 4 54q205 40 340 139q16 1 51 4.5t43 3.5l4 -4q0 -4 -6.5 -53t-9.5 -72t-8.5 -78.5t-8.5 -98t-5.5 -102.5t-2.5 -118q0 -122 6 -193q49 -56 92 -76 l-10 -36q-83 22 -225 22q-170 0 -268 -20zM188 16q261 297 379 445l453 571q99 121 309 416q68 -18 135 -21l11 -8q-82 -93 -318 -389l-891 -1128h-14q-7 6 -13 12.5t-11.5 15.5t-9 14.5t-9 18t-7.5 17t-7.5 19.5t-6.5 17zM893 23q22 50 70 105t98.5 101.5t98.5 94.5t79 101 t31 103q0 111 -94 111q-40 0 -78 -12q-13 -46 -13 -60q0 -17 6 -33t15 -20v-12q-34 -11 -80.5 -37.5t-67.5 -48.5q-8 0 -13 2t-7.5 3.5t-4 7.5t-1.5 8v11.5v12.5q0 57 53.5 139t132.5 149.5t146 84.5q161 0 234 -63t73 -216q-43 -54 -103.5 -104t-133.5 -102t-111 -85 q55 -16 133 -16q66 0 112 14q41 62 82 109l23 -13q-39 -99 -39 -213q0 -27 8 -70t19 -59l-15 -20q-96 18 -246.5 32.5t-234.5 14.5q-92 0 -139 -39z" />
<glyph unicode="&#xbe;" horiz-adv-x="1638" d="M29 662q57 38 105.5 93t74.5 115l43 -16q-16 -31 -16 -53q0 -132 102 -166q39 27 57.5 84t18.5 117q0 53 -25.5 83.5t-75.5 30.5q-29 0 -53 -8l-10 33q93 58 145 168q-74 18 -121 18q-37 0 -55 -6q-27 -59 -53 -92l-31 10q33 79 33 174q0 71 -21 109l19 20q36 -24 98 -36 t108.5 -13.5t133.5 -1.5q96 0 168 10l8 -30q-81 -133 -242 -232v-6q55 0 100.5 -8.5t85.5 -27t62.5 -54t22.5 -84.5q0 -50 -29.5 -100.5t-73.5 -89.5t-101 -74.5t-105.5 -58t-92.5 -38.5q-78 0 -159.5 35.5t-120.5 94.5zM188 16q261 297 379 445l453 571q99 121 309 416 q68 -18 135 -21l11 -8q-82 -93 -318 -389l-891 -1128h-14q-7 6 -13 12.5t-11.5 15.5t-9 14.5t-9 18t-7.5 17t-7.5 19.5t-6.5 17zM791 266q116 133 199.5 256t156.5 273q173 7 321 57l13 -6q-50 -119 -56 -510q83 0 136 45l26 -19q-33 -95 -43 -178q-58 9 -123 9q0 -37 6 -84 q35 -41 95 -68l-11 -37q-86 23 -254 23q-134 0 -237 -21l-8 35q60 30 116 45q19 54 21 107h-340zM989 350q68 -12 162 -12l12 303h-10q-63 -155 -164 -291z" />
<glyph unicode="&#xbf;" horiz-adv-x="645" d="M-78 -135q15 19 31 37.5t36 38t35 33.5t41 34.5t38.5 30.5t44 32.5t40.5 29t44.5 31t41.5 28.5q20 60 41 178.5t27 144.5l127 21l-10 -328q-81 -63 -135 -157.5t-54 -188.5q0 -100 76 -100q35 0 60 10q18 38 18 94q0 44 -29 68l4 16q118 54 183 119q51 0 51 -62 q0 -73 -32.5 -140.5t-87 -120t-122 -92t-141.5 -62.5q-145 0 -236.5 82.5t-91.5 222.5zM238 840q25 45 88.5 108t109.5 88q36 -22 82.5 -80t83.5 -116q-30 -49 -93.5 -119t-109.5 -103q-42 31 -88.5 98.5t-72.5 123.5z" />
<glyph unicode="&#xc0;" horiz-adv-x="1193" d="M-6 920q0 155 108.5 273.5t274.5 180.5q190 -41 360 -41q192 0 330 23l12 -10q-29 -121 -49 -404t-20 -545q0 -278 22 -397q-268 -8 -383 -31l-12 11q36 160 55 456q-47 13 -117 13q-74 3 -141 -13q-43 -173 -43 -311q0 -50 15 -127q-213 0 -383 -29l-25 17l405 1185 q55 19 111 31l2 15q-96 0 -196.5 -14.5t-141.5 -53.5q-4 -16 -4 -33q0 -63 29 -108v-17q-37 -31 -77 -80.5t-63 -93.5q-35 0 -52 31t-17 72zM266 1642q0 35 18 113t38 98q39 6 110 2q27 -48 71.5 -92.5t109.5 -87t106.5 -66.5t115.5 -63q10 -5 15 -8l-23 -51zM463 592 q38 -14 119 -14q77 0 116 16q11 244 11 383q0 119 -9 233q-11 7 -36 7t-39 -7q-38 -56 -62 -180z" />
<glyph unicode="&#xc1;" horiz-adv-x="1193" d="M-6 920q0 155 108.5 273.5t274.5 180.5q190 -41 360 -41q192 0 330 23l12 -10q-29 -121 -49 -404t-20 -545q0 -278 22 -397q-268 -8 -383 -31l-12 11q36 160 55 456q-47 13 -117 13q-74 3 -141 -13q-43 -173 -43 -311q0 -50 15 -127q-213 0 -383 -29l-25 17l405 1185 q55 19 111 31l2 15q-96 0 -196.5 -14.5t-141.5 -53.5q-4 -16 -4 -33q0 -63 29 -108v-17q-37 -31 -77 -80.5t-63 -93.5q-35 0 -52 31t-17 72zM463 592q38 -14 119 -14q77 0 116 16q11 244 11 383q0 119 -9 233q-11 7 -36 7t-39 -7q-38 -56 -62 -180zM627 1538q56 30 77 41.5 t75 42t82.5 52t68.5 52.5t67.5 63t46.5 66q71 4 111 -2q19 -19 37 -97.5t18 -113.5l-561 -155z" />
<glyph unicode="&#xc2;" horiz-adv-x="1193" d="M-6 920q0 155 108.5 273.5t274.5 180.5q190 -41 360 -41q192 0 330 23l12 -10q-29 -121 -49 -404t-20 -545q0 -278 22 -397q-268 -8 -383 -31l-12 11q36 160 55 456q-47 13 -117 13q-74 3 -141 -13q-43 -173 -43 -311q0 -50 15 -127q-213 0 -383 -29l-25 17l405 1185 q55 19 111 31l2 15q-96 0 -196.5 -14.5t-141.5 -53.5q-4 -16 -4 -33q0 -63 29 -108v-17q-37 -31 -77 -80.5t-63 -93.5q-35 0 -52 31t-17 72zM334 1538q302 157 397 317h94q113 -190 357 -317l-23 -51l-422 123l-381 -123zM463 592q38 -14 119 -14q77 0 116 16q11 244 11 383 q0 119 -9 233q-11 7 -36 7t-39 -7q-38 -56 -62 -180z" />
<glyph unicode="&#xc3;" horiz-adv-x="1193" d="M-6 920q0 155 108.5 273.5t274.5 180.5q190 -41 360 -41q192 0 330 23l12 -10q-29 -121 -49 -404t-20 -545q0 -278 22 -397q-268 -8 -383 -31l-12 11q36 160 55 456q-47 13 -117 13q-74 3 -141 -13q-43 -173 -43 -311q0 -50 15 -127q-213 0 -383 -29l-25 17l405 1185 q55 19 111 31l2 15q-96 0 -196.5 -14.5t-141.5 -53.5q-4 -16 -4 -33q0 -63 29 -108v-17q-37 -31 -77 -80.5t-63 -93.5q-35 0 -52 31t-17 72zM305 1559q55 74 153.5 142.5t198.5 100.5q66 -43 148.5 -70.5t159.5 -27.5q101 0 170 72l49 -35q-133 -181 -287 -244 q-51 0 -187.5 49t-187.5 49q-98 0 -166 -71zM463 592q38 -14 119 -14q77 0 116 16q11 244 11 383q0 119 -9 233q-11 7 -36 7t-39 -7q-38 -56 -62 -180z" />
<glyph unicode="&#xc4;" horiz-adv-x="1193" d="M-6 920q0 155 108.5 273.5t274.5 180.5q190 -41 360 -41q192 0 330 23l12 -10q-29 -121 -49 -404t-20 -545q0 -278 22 -397q-268 -8 -383 -31l-12 11q36 160 55 456q-47 13 -117 13q-74 3 -141 -13q-43 -173 -43 -311q0 -50 15 -127q-213 0 -383 -29l-25 17l405 1185 q55 19 111 31l2 15q-96 0 -196.5 -14.5t-141.5 -53.5q-4 -16 -4 -33q0 -63 29 -108v-17q-37 -31 -77 -80.5t-63 -93.5q-35 0 -52 31t-17 72zM352 1667q23 41 82.5 91.5t108.5 76.5q35 -22 80.5 -71.5t76.5 -96.5q-32 -48 -91.5 -113t-102.5 -96q-39 29 -83.5 92.5 t-70.5 116.5zM463 592q38 -14 119 -14q77 0 116 16q11 244 11 383q0 119 -9 233q-11 7 -36 7t-39 -7q-38 -56 -62 -180zM805 1667q23 42 82 92t108 76q35 -22 81 -72t77 -96q-31 -47 -91.5 -112.5t-103.5 -96.5q-39 29 -83 92.5t-70 116.5z" />
<glyph unicode="&#xc5;" horiz-adv-x="1193" d="M-6 920q0 155 108.5 273.5t274.5 180.5q190 -41 360 -41q192 0 330 23l12 -10q-29 -121 -49 -404t-20 -545q0 -278 22 -397q-268 -8 -383 -31l-12 11q36 160 55 456q-47 13 -117 13q-74 3 -141 -13q-43 -173 -43 -311q0 -50 15 -127q-213 0 -383 -29l-25 17l405 1185 q55 19 111 31l2 15q-96 0 -196.5 -14.5t-141.5 -53.5q-4 -16 -4 -33q0 -63 29 -108v-17q-37 -31 -77 -80.5t-63 -93.5q-35 0 -52 31t-17 72zM463 592q38 -14 119 -14q77 0 116 16q11 244 11 383q0 119 -9 233q-11 7 -36 7t-39 -7q-38 -56 -62 -180zM514 1581 q0 97 76.5 167.5t189.5 102.5q191 0 191 -139q0 -101 -71.5 -172.5t-180.5 -103.5q-88 0 -146.5 37t-58.5 108zM647 1632q0 -45 28.5 -72.5t74.5 -27.5q36 0 63 18q29 51 29 109q0 45 -28.5 72.5t-74.5 27.5q-36 0 -63 -18q-29 -51 -29 -109z" />
<glyph unicode="&#xc6;" horiz-adv-x="1499" d="M-6 920q0 155 108.5 273.5t274.5 180.5q190 -41 483 -41q427 0 604 31l13 -23q-46 -52 -69.5 -142.5t-27.5 -180.5h-34q-20 62 -33 156q-94 43 -197 43q-33 0 -90 -11q-24 -166 -41 -442q39 -8 113 -8q102 0 205 35l10 -13q-14 -40 -31 -172q-150 21 -238 21 q-42 0 -65 -4q-4 -70 -4 -97q0 -54 1.5 -91.5t7.5 -86.5t18.5 -81t33 -62t53 -45t76.5 -15q56 79 56 195q0 32 -7 63l15 11q134 3 256 22q-25 -135 -144 -266.5t-258 -200.5q-123 0 -204 26.5t-128.5 86t-67 144t-19.5 212.5q0 94 6 183q-41 6 -84 6q-60 0 -109 -6 q-65 -347 -65 -496q0 -55 14 -127q-213 0 -383 -29l-25 17l385 1185q55 19 111 31l2 15q-96 0 -196.5 -14.5t-141.5 -53.5q-4 -16 -4 -33q0 -63 29 -108v-17q-37 -31 -77 -80.5t-63 -93.5q-35 0 -52 31t-17 72zM506 762q40 -6 86 -6q59 0 84 4q4 122 4 176q0 144 -6 276 q-10 5 -27 5q-11 0 -26 -5q-26 -37 -58 -182z" />
<glyph unicode="&#xc7;" horiz-adv-x="954" d="M61 377q0 323 144.5 575t427.5 412q82 -31 215 -31q79 0 121 13l14 -29q-55 -73 -87 -210.5t-32 -246.5h-35q-20 52 -38 156l-43 33q-34 25 -52 38t-54 35.5t-67.5 33.5t-58.5 11q-62 -131 -87.5 -321.5t-25.5 -386.5q0 -56 3.5 -108.5t12 -114t26 -112t42 -93 t62.5 -66.5t86 -24q27 49 41 120t14 136q0 36 -6 63l14 10q126 3 256 23q-15 -76 -51.5 -153.5t-87 -145.5t-114.5 -126t-132 -95l-37 -56l9 -8q97 0 151.5 -54t44.5 -147q-43 -67 -109 -119t-139 -75q-49 0 -106.5 14.5t-99.5 36.5q34 49 77 148l11 4q55 -82 153 -82 q37 0 56 8q12 17 12 53q0 30 -15 49.5t-43.5 28t-55 11.5t-64.5 3l-15 11l87 169q-88 9 -159 44.5t-120 90t-82.5 129t-48.5 160.5t-15 185z" />
<glyph unicode="&#xc8;" horiz-adv-x="1163" d="M29 264q0 169 113 288.5t288 156.5q18 0 92 -11l2 15q-65 13 -118 32.5t-101.5 49.5t-76 76.5t-27.5 103.5q102 134 235 241.5t271 147.5q185 0 311 -74q-89 -134 -119 -289h-18q-75 77 -139 118.5t-142 41.5q-29 0 -59 -6q-13 -33 -13 -82q0 -144 50.5 -219t179.5 -94 l-13 -78q-181 0 -276.5 -90.5t-95.5 -269.5q0 -123 56.5 -206t164.5 -83q93 0 133 30q36 50 54 127t18 150q0 37 -3 62t-11.5 51.5t-28 39.5t-49.5 13q-17 0 -33 -4q-6 -21 -6 -49q0 -82 45 -127v-17q-36 -22 -76 -64.5t-64 -84.5q-30 0 -46.5 20.5t-20.5 45.5t-4 63 q0 163 110.5 261t286.5 114q106 -26 154.5 -86t48.5 -168q0 -92 -53 -182.5t-139 -161.5t-181 -125t-192 -88q-235 0 -371.5 109t-136.5 302zM207 1642q0 35 18 113.5t37 97.5q40 6 111 2q27 -48 71.5 -92.5t109.5 -87t106.5 -66.5t115.5 -63q10 -5 15 -8l-23 -51z" />
<glyph unicode="&#xc9;" horiz-adv-x="1163" d="M29 264q0 169 113 288.5t288 156.5q18 0 92 -11l2 15q-65 13 -118 32.5t-101.5 49.5t-76 76.5t-27.5 103.5q102 134 235 241.5t271 147.5q185 0 311 -74q-89 -134 -119 -289h-18q-75 77 -139 118.5t-142 41.5q-29 0 -59 -6q-13 -33 -13 -82q0 -144 50.5 -219t179.5 -94 l-13 -78q-181 0 -276.5 -90.5t-95.5 -269.5q0 -123 56.5 -206t164.5 -83q93 0 133 30q36 50 54 127t18 150q0 37 -3 62t-11.5 51.5t-28 39.5t-49.5 13q-17 0 -33 -4q-6 -21 -6 -49q0 -82 45 -127v-17q-36 -22 -76 -64.5t-64 -84.5q-30 0 -46.5 20.5t-20.5 45.5t-4 63 q0 163 110.5 261t286.5 114q106 -26 154.5 -86t48.5 -168q0 -92 -53 -182.5t-139 -161.5t-181 -125t-192 -88q-235 0 -371.5 109t-136.5 302zM567 1538q184 98 262 155q109 80 156 162q71 4 111 -2q19 -19 37 -97.5t18 -113.5l-561 -155z" />
<glyph unicode="&#xca;" horiz-adv-x="1163" d="M29 264q0 169 113 288.5t288 156.5q18 0 92 -11l2 15q-65 13 -118 32.5t-101.5 49.5t-76 76.5t-27.5 103.5q102 134 235 241.5t271 147.5q185 0 311 -74q-89 -134 -119 -289h-18q-75 77 -139 118.5t-142 41.5q-29 0 -59 -6q-13 -33 -13 -82q0 -144 50.5 -219t179.5 -94 l-13 -78q-181 0 -276.5 -90.5t-95.5 -269.5q0 -123 56.5 -206t164.5 -83q93 0 133 30q36 50 54 127t18 150q0 37 -3 62t-11.5 51.5t-28 39.5t-49.5 13q-17 0 -33 -4q-6 -21 -6 -49q0 -82 45 -127v-17q-36 -22 -76 -64.5t-64 -84.5q-30 0 -46.5 20.5t-20.5 45.5t-4 63 q0 163 110.5 261t286.5 114q106 -26 154.5 -86t48.5 -168q0 -92 -53 -182.5t-139 -161.5t-181 -125t-192 -88q-235 0 -371.5 109t-136.5 302zM274 1538q304 158 398 317h94q113 -191 356 -317l-22 -51l-422 123l-381 -123z" />
<glyph unicode="&#xcb;" horiz-adv-x="1163" d="M29 264q0 169 113 288.5t288 156.5q18 0 92 -11l2 15q-65 13 -118 32.5t-101.5 49.5t-76 76.5t-27.5 103.5q102 134 235 241.5t271 147.5q185 0 311 -74q-89 -134 -119 -289h-18q-75 77 -139 118.5t-142 41.5q-29 0 -59 -6q-13 -33 -13 -82q0 -144 50.5 -219t179.5 -94 l-13 -78q-181 0 -276.5 -90.5t-95.5 -269.5q0 -123 56.5 -206t164.5 -83q93 0 133 30q36 50 54 127t18 150q0 37 -3 62t-11.5 51.5t-28 39.5t-49.5 13q-17 0 -33 -4q-6 -21 -6 -49q0 -82 45 -127v-17q-36 -22 -76 -64.5t-64 -84.5q-30 0 -46.5 20.5t-20.5 45.5t-4 63 q0 163 110.5 261t286.5 114q106 -26 154.5 -86t48.5 -168q0 -92 -53 -182.5t-139 -161.5t-181 -125t-192 -88q-235 0 -371.5 109t-136.5 302zM293 1667q23 42 82 92t108 76q35 -22 81 -72t77 -96q-31 -47 -91.5 -112.5t-103.5 -96.5q-39 29 -83 92.5t-70 116.5zM745 1667 q23 41 82.5 91.5t108.5 76.5q35 -22 81 -72t77 -96q-31 -47 -91.5 -112.5t-103.5 -96.5q-39 29 -83.5 92.5t-70.5 116.5z" />
<glyph unicode="&#xcc;" horiz-adv-x="704" d="M-152 897q0 79 32 152t87.5 129.5t124.5 100.5t148 73q73 -15 159 -15q97 0 187 23l12 -10q-30 -126 -55 -423t-25 -548q0 -80 9.5 -202.5t21.5 -176.5q-266 -7 -383 -31l-12 11q29 122 50 409t21 547q0 69 -4 213q52 18 113 31l2 14q-81 0 -173 -15.5t-130 -50.5 q-4 -16 -4 -32q0 -66 28 -109v-16q-37 -31 -76.5 -80.5t-62.5 -93.5q-35 0 -52.5 30t-17.5 70zM-45 1642q0 35 18 113.5t37 97.5q40 6 111 2q27 -48 71.5 -92.5t109.5 -87t106.5 -66.5t115.5 -63q10 -5 15 -8l-23 -51z" />
<glyph unicode="&#xcd;" horiz-adv-x="704" d="M-152 897q0 79 32 152t87.5 129.5t124.5 100.5t148 73q73 -15 159 -15q97 0 187 23l12 -10q-30 -126 -55 -423t-25 -548q0 -80 9.5 -202.5t21.5 -176.5q-266 -7 -383 -31l-12 11q29 122 50 409t21 547q0 69 -4 213q52 18 113 31l2 14q-81 0 -173 -15.5t-130 -50.5 q-4 -16 -4 -32q0 -66 28 -109v-16q-37 -31 -76.5 -80.5t-62.5 -93.5q-35 0 -52.5 30t-17.5 70zM233 1538q184 98 262 155q109 80 156 162q71 4 111 -2q19 -19 37 -97.5t18 -113.5l-561 -155z" />
<glyph unicode="&#xce;" horiz-adv-x="704" d="M-152 897q0 79 32 152t87.5 129.5t124.5 100.5t148 73q73 -15 159 -15q97 0 187 23l12 -10q-30 -126 -55 -423t-25 -548q0 -80 9.5 -202.5t21.5 -176.5q-266 -7 -383 -31l-12 11q29 122 50 409t21 547q0 69 -4 213q52 18 113 31l2 14q-81 0 -173 -15.5t-130 -50.5 q-4 -16 -4 -32q0 -66 28 -109v-16q-37 -31 -76.5 -80.5t-62.5 -93.5q-35 0 -52.5 30t-17.5 70zM-18 1538q302 157 397 317h94q113 -191 356 -317l-22 -51l-422 123l-381 -123z" />
<glyph unicode="&#xcf;" horiz-adv-x="704" d="M-152 897q0 79 32 152t87.5 129.5t124.5 100.5t148 73q73 -15 159 -15q97 0 187 23l12 -10q-30 -126 -55 -423t-25 -548q0 -80 9.5 -202.5t21.5 -176.5q-266 -7 -383 -31l-12 11q29 122 50 409t21 547q0 69 -4 213q52 18 113 31l2 14q-81 0 -173 -15.5t-130 -50.5 q-4 -16 -4 -32q0 -66 28 -109v-16q-37 -31 -76.5 -80.5t-62.5 -93.5q-35 0 -52.5 30t-17.5 70zM0 1667q23 42 82 92t108 76q35 -22 81 -72t77 -96q-32 -48 -91.5 -113t-102.5 -96q-39 29 -83.5 92.5t-70.5 116.5zM453 1667q23 42 82 92t108 76q35 -22 81 -72t77 -96 q-31 -47 -91.5 -112.5t-103.5 -96.5q-39 29 -83 92.5t-70 116.5z" />
<glyph unicode="&#xd0;" horiz-adv-x="1232" d="M14 633q49 45 72 100h113q4 140 4 203q0 209 -17 326q-69 11 -116 34l2 37q88 0 280.5 11.5t280.5 11.5q285 0 411.5 -136t126.5 -429q0 -299 -182 -521t-479 -301l-64 17q-48 12 -123 24.5t-114 12.5q-41 0 -88 -9l-12 27q43 46 57 162q22 213 31 432l-166 -14zM504 393 q0 -123 10 -225q32 -18 86 -18q102 0 150 43q41 87 63.5 229t22.5 262q0 49 -0.5 77.5t-2.5 80t-5.5 84t-11 78.5t-18.5 75.5t-28 62t-38 51.5t-50.5 31.5t-65.5 12.5q-45 0 -75 -12q-20 -223 -29 -469q129 12 215 28l12 -10q-31 -51 -51 -94l-180 -16q-4 -98 -4 -271z" />
<glyph unicode="&#xd1;" horiz-adv-x="1277" d="M-186 897q0 105 56.5 197.5t142 155t192.5 102.5q73 -15 174 -15q113 0 203 23l12 -10q35 -181 128 -438.5t187 -422.5l70 -122l6 2q0 361 -18 622t-35 342q169 9 254 31l12 -10q-30 -125 -52 -398.5t-22 -533.5q0 -236 31 -422q-13 -1 -103.5 -5.5t-174.5 -10.5 t-103 -11l-14 7q-49 169 -140 403.5t-190 450.5q-53 113 -88 159l-8 -4q0 -362 18 -636t35 -353q-166 -9 -254 -31l-12 11q29 120 49 407t20 549q0 69 -4 213q52 18 113 31l2 14q-81 0 -173 -15.5t-130 -50.5q-4 -16 -4 -32q0 -64 29 -109v-16q-37 -31 -77 -80.5t-63 -93.5 q-35 0 -52 29.5t-17 70.5zM283 1559q55 74 153.5 142.5t198.5 100.5q66 -43 148.5 -70.5t158.5 -27.5q101 0 170 72l49 -35q-133 -181 -287 -244q-51 0 -187 49t-187 49q-98 0 -166 -71z" />
<glyph unicode="&#xd2;" horiz-adv-x="1204" d="M61 487q0 158 58.5 314.5t148.5 269.5l31 -14q-53 -98 -53 -213q0 -222 157 -322q0 -74 10.5 -140t32 -121.5t58.5 -88.5t86 -33q58 0 100 23q55 111 83 300t28 349q0 381 -187 381q-60 0 -102 -23q-36 -51 -54 -127t-18 -149q0 -37 3 -62t11.5 -51.5t28 -39.5t49.5 -13 q17 0 33 4q6 21 6 49q0 82 -45 127v17q92 63 140 149q73 0 73 -123q0 -147 -90 -243t-243 -129q-64 33 -94.5 105t-30.5 161q0 175 107 318.5t276 201.5q479 0 479 -518q0 -181 -77 -361.5t-215.5 -319.5t-307.5 -196q-228 0 -355 141t-127 377zM193 1642q0 35 18 113.5 t37 97.5q39 6 110 2q27 -48 71.5 -92.5t109.5 -87t106.5 -66.5t115.5 -63q10 -5 15 -8l-22 -51z" />
<glyph unicode="&#xd3;" horiz-adv-x="1204" d="M61 487q0 158 58.5 314.5t148.5 269.5l31 -14q-53 -98 -53 -213q0 -222 157 -322q0 -74 10.5 -140t32 -121.5t58.5 -88.5t86 -33q58 0 100 23q55 111 83 300t28 349q0 381 -187 381q-60 0 -102 -23q-36 -51 -54 -127t-18 -149q0 -37 3 -62t11.5 -51.5t28 -39.5t49.5 -13 q17 0 33 4q6 21 6 49q0 82 -45 127v17q92 63 140 149q73 0 73 -123q0 -147 -90 -243t-243 -129q-64 33 -94.5 105t-30.5 161q0 175 107 318.5t276 201.5q479 0 479 -518q0 -181 -77 -361.5t-215.5 -319.5t-307.5 -196q-228 0 -355 141t-127 377zM553 1538q184 98 262 155 q109 80 156 162q71 4 110 -2q20 -20 38 -98t18 -113l-562 -155z" />
<glyph unicode="&#xd4;" horiz-adv-x="1204" d="M61 487q0 158 58.5 314.5t148.5 269.5l31 -14q-53 -98 -53 -213q0 -222 157 -322q0 -74 10.5 -140t32 -121.5t58.5 -88.5t86 -33q58 0 100 23q55 111 83 300t28 349q0 381 -187 381q-60 0 -102 -23q-36 -51 -54 -127t-18 -149q0 -37 3 -62t11.5 -51.5t28 -39.5t49.5 -13 q17 0 33 4q6 21 6 49q0 82 -45 127v17q92 63 140 149q73 0 73 -123q0 -147 -90 -243t-243 -129q-64 33 -94.5 105t-30.5 161q0 175 107 318.5t276 201.5q479 0 479 -518q0 -181 -77 -361.5t-215.5 -319.5t-307.5 -196q-228 0 -355 141t-127 377zM260 1538q302 157 397 317 h95q113 -191 356 -317l-23 -51l-421 123l-381 -123z" />
<glyph unicode="&#xd5;" horiz-adv-x="1204" d="M61 487q0 158 58.5 314.5t148.5 269.5l31 -14q-53 -98 -53 -213q0 -222 157 -322q0 -74 10.5 -140t32 -121.5t58.5 -88.5t86 -33q58 0 100 23q55 111 83 300t28 349q0 381 -187 381q-60 0 -102 -23q-36 -51 -54 -127t-18 -149q0 -37 3 -62t11.5 -51.5t28 -39.5t49.5 -13 q17 0 33 4q6 21 6 49q0 82 -45 127v17q92 63 140 149q73 0 73 -123q0 -147 -90 -243t-243 -129q-64 33 -94.5 105t-30.5 161q0 175 107 318.5t276 201.5q479 0 479 -518q0 -181 -77 -361.5t-215.5 -319.5t-307.5 -196q-228 0 -355 141t-127 377zM231 1559q54 74 153 142.5 t200 100.5q66 -43 148.5 -70.5t158.5 -27.5q101 0 170 72l49 -35q-133 -181 -287 -244q-51 0 -187 49t-187 49q-98 0 -166 -71z" />
<glyph unicode="&#xd6;" horiz-adv-x="1204" d="M61 487q0 158 58.5 314.5t148.5 269.5l31 -14q-53 -98 -53 -213q0 -222 157 -322q0 -74 10.5 -140t32 -121.5t58.5 -88.5t86 -33q58 0 100 23q55 111 83 300t28 349q0 381 -187 381q-60 0 -102 -23q-36 -51 -54 -127t-18 -149q0 -37 3 -62t11.5 -51.5t28 -39.5t49.5 -13 q17 0 33 4q6 21 6 49q0 82 -45 127v17q92 63 140 149q73 0 73 -123q0 -147 -90 -243t-243 -129q-64 33 -94.5 105t-30.5 161q0 175 107 318.5t276 201.5q479 0 479 -518q0 -181 -77 -361.5t-215.5 -319.5t-307.5 -196q-228 0 -355 141t-127 377zM279 1667q23 42 82 92 t108 76q35 -22 81 -72t77 -96q-31 -47 -91.5 -112.5t-103.5 -96.5q-39 29 -83 92.5t-70 116.5zM731 1667q23 41 82.5 91.5t108.5 76.5q35 -22 80.5 -71.5t76.5 -96.5q-32 -48 -91.5 -113t-102.5 -96q-39 29 -83.5 92.5t-70.5 116.5z" />
<glyph unicode="&#xd7;" horiz-adv-x="1179" d="M158 186q14 13 137.5 119t198.5 184l-316 314l107 102l16 -2q52 -59 295 -313l283 311l16 2l106 -98l-319 -311q58 -60 115 -112t129 -112.5t96 -81.5l-86 -110l-23 2l-327 319l-320 -321h-22z" />
<glyph unicode="&#xd8;" horiz-adv-x="1204" d="M61 487q0 284 168 530t435 347q79 0 151 -16q9 28 25 83.5t20 67.5q56 4 96 19l9 -9q-27 -57 -78 -182q256 -102 256 -481q0 -181 -77 -361.5t-215.5 -319.5t-307.5 -196q-81 0 -168 25l-62 -172h-12q-56 36 -70 65l64 138q-114 61 -174 180.5t-60 281.5zM403 522 q0 -94 19 -184l311 795q-46 59 -119 59q-60 0 -102 -23q-53 -135 -81 -311t-28 -336zM463 225q47 -86 127 -86q58 0 100 23q55 111 83 300t28 349q0 129 -25 227z" />
<glyph unicode="&#xd9;" horiz-adv-x="1312" d="M-172 897q0 105 56.5 197.5t142 155t192.5 102.5q73 -15 160 -15q92 0 182 23l12 -10q-31 -136 -54 -367t-23 -428q0 -45 0.5 -70t1.5 -66t4 -65t8.5 -56t14 -51t20 -38.5t28 -30t37.5 -14.5q55 39 111 106t90 140q14 238 14 526t-22 393q268 7 383 31l12 -10 q-33 -147 -52.5 -434.5t-19.5 -522.5q0 -97 6 -219t17 -174q-262 -12 -356 -31l-15 11q40 154 53 276l-8 2q-57 -105 -123.5 -176t-160.5 -113q-200 4 -282.5 117t-82.5 334q0 66 15.5 258.5t15.5 257.5q0 69 -4 213q54 18 112 31l2 14q-81 0 -173 -15.5t-130 -50.5 q-4 -16 -4 -32q0 -64 29 -109v-16q-37 -31 -76.5 -80.5t-62.5 -93.5q-35 0 -52.5 30t-17.5 70zM211 1642q0 35 18 113.5t37 97.5q40 6 111 2q27 -48 71.5 -92.5t109.5 -87t106.5 -66.5t115.5 -63q10 -5 15 -8l-23 -51z" />
<glyph unicode="&#xda;" horiz-adv-x="1312" d="M-172 897q0 105 56.5 197.5t142 155t192.5 102.5q73 -15 160 -15q92 0 182 23l12 -10q-31 -136 -54 -367t-23 -428q0 -45 0.5 -70t1.5 -66t4 -65t8.5 -56t14 -51t20 -38.5t28 -30t37.5 -14.5q55 39 111 106t90 140q14 238 14 526t-22 393q268 7 383 31l12 -10 q-33 -147 -52.5 -434.5t-19.5 -522.5q0 -97 6 -219t17 -174q-262 -12 -356 -31l-15 11q40 154 53 276l-8 2q-57 -105 -123.5 -176t-160.5 -113q-200 4 -282.5 117t-82.5 334q0 66 15.5 258.5t15.5 257.5q0 69 -4 213q54 18 112 31l2 14q-81 0 -173 -15.5t-130 -50.5 q-4 -16 -4 -32q0 -64 29 -109v-16q-37 -31 -76.5 -80.5t-62.5 -93.5q-35 0 -52.5 30t-17.5 70zM571 1538q184 98 262 155q109 80 156 162q71 4 111 -2q19 -19 37 -97.5t18 -113.5l-561 -155z" />
<glyph unicode="&#xdb;" horiz-adv-x="1312" d="M-172 897q0 105 56.5 197.5t142 155t192.5 102.5q73 -15 160 -15q92 0 182 23l12 -10q-31 -136 -54 -367t-23 -428q0 -45 0.5 -70t1.5 -66t4 -65t8.5 -56t14 -51t20 -38.5t28 -30t37.5 -14.5q55 39 111 106t90 140q14 238 14 526t-22 393q268 7 383 31l12 -10 q-33 -147 -52.5 -434.5t-19.5 -522.5q0 -97 6 -219t17 -174q-262 -12 -356 -31l-15 11q40 154 53 276l-8 2q-57 -105 -123.5 -176t-160.5 -113q-200 4 -282.5 117t-82.5 334q0 66 15.5 258.5t15.5 257.5q0 69 -4 213q54 18 112 31l2 14q-81 0 -173 -15.5t-130 -50.5 q-4 -16 -4 -32q0 -64 29 -109v-16q-37 -31 -76.5 -80.5t-62.5 -93.5q-35 0 -52.5 30t-17.5 70zM279 1538q302 157 397 317h94q113 -191 356 -317l-22 -51l-422 123l-381 -123z" />
<glyph unicode="&#xdc;" horiz-adv-x="1312" d="M-172 897q0 105 56.5 197.5t142 155t192.5 102.5q73 -15 160 -15q92 0 182 23l12 -10q-31 -136 -54 -367t-23 -428q0 -45 0.5 -70t1.5 -66t4 -65t8.5 -56t14 -51t20 -38.5t28 -30t37.5 -14.5q55 39 111 106t90 140q14 238 14 526t-22 393q268 7 383 31l12 -10 q-33 -147 -52.5 -434.5t-19.5 -522.5q0 -97 6 -219t17 -174q-262 -12 -356 -31l-15 11q40 154 53 276l-8 2q-57 -105 -123.5 -176t-160.5 -113q-200 4 -282.5 117t-82.5 334q0 66 15.5 258.5t15.5 257.5q0 69 -4 213q54 18 112 31l2 14q-81 0 -173 -15.5t-130 -50.5 q-4 -16 -4 -32q0 -64 29 -109v-16q-37 -31 -76.5 -80.5t-62.5 -93.5q-35 0 -52.5 30t-17.5 70zM297 1667q23 42 82 92t108 76q35 -22 81 -72t77 -96q-32 -48 -91.5 -113t-102.5 -96q-39 29 -83.5 92.5t-70.5 116.5zM750 1667q23 42 82 92t108 76q35 -22 81 -72t77 -96 q-31 -47 -91.5 -112.5t-103.5 -96.5q-39 29 -83 92.5t-70 116.5z" />
<glyph unicode="&#xdd;" horiz-adv-x="1077" d="M-424 1573q0 43 37.5 61.5t93.5 18.5q71 0 180.5 -35.5t227 -92t209.5 -106t174 -98.5q10 -102 42 -223.5t101 -337.5q44 85 84.5 247t40.5 246q0 41 -10 70l8 10q196 0 315 31q-4 -74 -42 -169.5t-97 -191.5t-117.5 -177t-120.5 -156q-10 -141 -10 -373q0 -154 31 -297 q-266 -7 -383 -31l-12 11q24 99 43.5 276t25.5 346q-44 99 -126.5 300.5t-86.5 209.5q-61 143 -112.5 230t-126.5 147q-30 10 -56 10q-88 0 -143 -80h-16q-65 109 -154 154zM530 1540q48 26 65.5 35t64.5 36t70.5 42.5t63 43.5t63 50.5t49 52t42.5 58.5q67 4 111 -3 q19 -19 37 -97t18 -113l-561 -156z" />
<glyph unicode="&#xde;" horiz-adv-x="1138" d="M63 1296l3 37q119 0 176.5 1t141 7t167.5 19l12 -10q-26 -110 -43 -281q86 4 121 4q78 0 140 -7.5t119 -28t95 -54t60 -87.5t22 -126q0 -98 -44.5 -180t-120 -135.5t-174 -83t-208.5 -29.5l7 76q103 0 148.5 75t45.5 216q0 40 -3 72t-12 65.5t-23.5 56t-40.5 37t-60 14.5 q-40 0 -82 -10q-27 -310 -27 -565q0 -80 9.5 -202.5t21.5 -176.5q-266 -7 -383 -31l-12 11q29 122 50 409t21 547q0 206 -10 326q-70 11 -117 34z" />
<glyph unicode="&#xdf;" horiz-adv-x="1652" d="M20 193q141 131 195 260l47 -17q-12 -44 -12 -78q0 -63 56.5 -128t123.5 -91q35 35 64.5 95t29.5 104q0 45 -44 85.5t-106.5 72t-125 63.5t-106.5 73.5t-44 88.5q0 103 113 234t221 175q102 -24 248 -24q79 0 125 14l12 -22q-47 -61 -72.5 -164t-25.5 -193h-41 q-13 37 -29 109l-45 31q-47 32 -120.5 57t-133.5 25q-14 -20 -14 -54q0 -45 45 -85t109.5 -71l129 -62t109.5 -72t45 -87q0 -66 -40 -150t-101 -161t-127.5 -143t-126.5 -109q-222 0 -330 176zM840 193q140 129 194 260l47 -17q-12 -44 -12 -78q0 -63 56.5 -128t123.5 -91 q35 35 64.5 95t29.5 104q0 45 -44 85.5t-106.5 72t-124.5 63.5t-106 73.5t-44 88.5q0 103 112.5 234t220.5 175q102 -24 248 -24q79 0 125 14l12 -22q-47 -61 -72.5 -164t-25.5 -193h-41q-13 37 -29 109l-45 31q-47 32 -120.5 57t-133.5 25q-14 -20 -14 -54q0 -45 45 -85 t109.5 -71l129 -62t109.5 -72t45 -87q0 -66 -40 -150t-101 -161t-127.5 -143t-126.5 -109q-222 0 -330 176z" />
<glyph unicode="&#xe0;" horiz-adv-x="1062" d="M-29 -16l381 1052q-56 23 -92 49l10 39q126 -18 330 -18q203 0 344 22l10 -8q-24 -100 -40.5 -337t-16.5 -457q0 -237 18 -332q-221 0 -360 -25l-10 8q33 152 47 373q-42 10 -98 10q-74 0 -119 -10q-35 -134 -35 -252q0 -38 12 -104q-207 0 -360 -25zM215 1401 q2 32 26 105t44 93q44 7 110 3q94 -170 389 -367l-28 -49zM401 496q37 -13 99 -13q58 0 96 15q8 148 8 311q0 81 -6 176q-9 6 -31 6q-24 0 -39 -6q-24 -38 -45 -131z" />
<glyph unicode="&#xe1;" horiz-adv-x="1062" d="M-29 -16l381 1052q-56 23 -92 49l10 39q126 -18 330 -18q203 0 344 22l10 -8q-24 -100 -40.5 -337t-16.5 -457q0 -237 18 -332q-221 0 -360 -25l-10 8q33 152 47 373q-42 10 -98 10q-74 0 -119 -10q-35 -134 -35 -252q0 -38 12 -104q-207 0 -360 -25zM401 496 q37 -13 99 -13q58 0 96 15q8 148 8 311q0 81 -6 176q-9 6 -31 6q-24 0 -39 -6q-24 -38 -45 -131zM518 1235q295 197 389 367q67 4 111 -3q20 -20 43.5 -93t25.5 -105l-540 -215z" />
<glyph unicode="&#xe2;" horiz-adv-x="1062" d="M-29 -16l381 1052q-56 23 -92 49l10 39q126 -18 330 -18q203 0 344 22l10 -8q-24 -100 -40.5 -337t-16.5 -457q0 -237 18 -332q-221 0 -360 -25l-10 8q33 152 47 373q-42 10 -98 10q-74 0 -119 -10q-35 -134 -35 -252q0 -38 12 -104q-207 0 -360 -25zM248 1235 q291 182 409 367h91q58 -105 150.5 -201t197.5 -166l-29 -49l-416 164l-375 -164zM401 496q37 -13 99 -13q58 0 96 15q8 148 8 311q0 81 -6 176q-9 6 -31 6q-24 0 -39 -6q-24 -38 -45 -131z" />
<glyph unicode="&#xe3;" horiz-adv-x="1062" d="M-29 -16l381 1052q-56 23 -92 49l10 39q126 -18 330 -18q203 0 344 22l10 -8q-24 -100 -40.5 -337t-16.5 -457q0 -237 18 -332q-221 0 -360 -25l-10 8q33 152 47 373q-42 10 -98 10q-74 0 -119 -10q-35 -134 -35 -252q0 -38 12 -104q-207 0 -360 -25zM264 1305 q55 74 153.5 142.5t198.5 100.5q75 -49 134.5 -73.5t132.5 -24.5q101 0 170 72l49 -35q-133 -181 -287 -244q-51 0 -167 49t-167 49q-98 0 -166 -71zM401 496q37 -13 99 -13q58 0 96 15q8 148 8 311q0 81 -6 176q-9 6 -31 6q-24 0 -39 -6q-24 -38 -45 -131z" />
<glyph unicode="&#xe4;" horiz-adv-x="1062" d="M-29 -16l381 1052q-56 23 -92 49l10 39q126 -18 330 -18q203 0 344 22l10 -8q-24 -100 -40.5 -337t-16.5 -457q0 -237 18 -332q-221 0 -360 -25l-10 8q33 152 47 373q-42 10 -98 10q-74 0 -119 -10q-35 -134 -35 -252q0 -38 12 -104q-207 0 -360 -25zM264 1409 q23 41 82.5 91.5t108.5 76.5q35 -22 80.5 -71.5t76.5 -96.5q-32 -48 -91.5 -113t-102.5 -96q-39 29 -83.5 92.5t-70.5 116.5zM401 496q37 -13 99 -13q58 0 96 15q8 148 8 311q0 81 -6 176q-9 6 -31 6q-24 0 -39 -6q-24 -38 -45 -131zM717 1409q23 42 82 92t108 76 q35 -22 81 -72t77 -96q-31 -47 -91.5 -112.5t-103.5 -96.5q-39 29 -83 92.5t-70 116.5z" />
<glyph unicode="&#xe5;" horiz-adv-x="1062" d="M-29 -16l381 1052q-56 23 -92 49l10 39q126 -18 330 -18q203 0 344 22l10 -8q-24 -100 -40.5 -337t-16.5 -457q0 -237 18 -332q-221 0 -360 -25l-10 8q33 152 47 373q-42 10 -98 10q-74 0 -119 -10q-35 -134 -35 -252q0 -38 12 -104q-207 0 -360 -25zM401 496 q37 -13 99 -13q58 0 96 15q8 148 8 311q0 81 -6 176q-9 6 -31 6q-24 0 -39 -6q-24 -38 -45 -131zM430 1331q0 97 77 168t189 103q191 0 191 -140q0 -101 -71.5 -172.5t-180.5 -103.5q-88 0 -146.5 37t-58.5 108zM563 1380q0 -45 28.5 -72.5t74.5 -27.5q36 0 63 18 q29 51 29 109q0 45 -28.5 72.5t-74.5 27.5q-36 0 -63 -18q-29 -51 -29 -109z" />
<glyph unicode="&#xe6;" horiz-adv-x="1320" d="M-14 -16l346 1052q-56 23 -92 49l10 39q126 -18 514 -18q354 0 518 27l10 -19q-37 -43 -56.5 -119t-23.5 -151h-36q-17 49 -27 117q-74 32 -160 32q-45 0 -78 -8q-18 -144 -30 -340q41 -8 92 -8q86 0 178 29l10 -11q-22 -53 -31 -161q-122 18 -194 18q-32 0 -59 -6v-154 q0 -104 31 -159.5t116 -55.5q49 0 76 15q10 36 10 84q0 50 -29 83l4 15q115 37 172 108q30 -6 46 -28t16 -52q0 -131 -100 -237.5t-242 -155.5q-204 0 -305 78t-101 266l4 183q-33 8 -88 8q-27 0 -77 -4l-27 -150q-29 -164 -29 -252q0 -32 13 -104q-208 0 -361 -25zM430 631 q40 -4 64 -4q57 0 88 10q2 61 2 172q0 81 -6 176q-9 6 -31 6q-24 0 -39 -6q-32 -49 -43 -133z" />
<glyph unicode="&#xe7;" horiz-adv-x="856" d="M57 393q0 447 516 737q68 -24 181 -24q65 0 102 12l14 -26q-46 -61 -72 -175t-26 -204h-39q-22 65 -31 112l-32 27q-119 98 -199 98q-41 -99 -64.5 -236t-23.5 -253q0 -328 192 -328q41 81 41 205q0 31 -4 59l13 9q139 3 239 20q-25 -138 -122.5 -261.5t-226.5 -192.5 l-34 -50l8 -8q97 0 152 -54t45 -147q-43 -67 -109 -119t-139 -75q-49 0 -107 14.5t-100 36.5q16 23 40.5 69.5t37.5 77.5l10 4q54 -81 154 -81q36 0 55 8q13 18 13 53q0 24 -11 41.5t-27.5 27t-42 15t-47.5 7t-51 1.5l-14 10l87 170q-178 18 -278 126.5t-100 293.5z" />
<glyph unicode="&#xe8;" horiz-adv-x="851" d="M43 272q0 73 31 132t84.5 98t120.5 62.5t145 31.5v6q-80 0 -145 21.5t-108.5 70.5t-43.5 119q208 242 467 326q156 0 264 -64q-71 -109 -102 -256h-19q-39 39 -54 53t-49.5 41t-65 37.5t-64.5 10.5q-21 0 -49 -7q-11 -22 -11 -67q0 -123 55 -180t179 -68l-10 -80 q-136 0 -216.5 -61t-80.5 -185q0 -81 42 -128.5t119 -47.5q69 0 105 27q10 36 10 84q0 51 -29 84l5 14q50 16 97 45t75 64q30 -6 45.5 -27.5t15.5 -52.5q0 -129 -113 -242.5t-258 -163.5q-86 0 -162 17t-140.5 52t-102 95t-37.5 139zM68 1401q2 32 25.5 105t43.5 93 q44 7 111 3q94 -170 389 -367l-29 -49z" />
<glyph unicode="&#xe9;" horiz-adv-x="851" d="M43 272q0 73 31 132t84.5 98t120.5 62.5t145 31.5v6q-80 0 -145 21.5t-108.5 70.5t-43.5 119q208 242 467 326q156 0 264 -64q-71 -109 -102 -256h-19q-39 39 -54 53t-49.5 41t-65 37.5t-64.5 10.5q-21 0 -49 -7q-11 -22 -11 -67q0 -123 55 -180t179 -68l-10 -80 q-136 0 -216.5 -61t-80.5 -185q0 -81 42 -128.5t119 -47.5q69 0 105 27q10 36 10 84q0 51 -29 84l5 14q50 16 97 45t75 64q30 -6 45.5 -27.5t15.5 -52.5q0 -129 -113 -242.5t-258 -163.5q-86 0 -162 17t-140.5 52t-102 95t-37.5 139zM371 1235q295 197 389 367q66 4 110 -3 q20 -20 44 -93t26 -105l-541 -215z" />
<glyph unicode="&#xea;" horiz-adv-x="851" d="M43 272q0 73 31 132t84.5 98t120.5 62.5t145 31.5v6q-80 0 -145 21.5t-108.5 70.5t-43.5 119q208 242 467 326q156 0 264 -64q-71 -109 -102 -256h-19q-39 39 -54 53t-49.5 41t-65 37.5t-64.5 10.5q-21 0 -49 -7q-11 -22 -11 -67q0 -123 55 -180t179 -68l-10 -80 q-136 0 -216.5 -61t-80.5 -185q0 -81 42 -128.5t119 -47.5q69 0 105 27q10 36 10 84q0 51 -29 84l5 14q50 16 97 45t75 64q30 -6 45.5 -27.5t15.5 -52.5q0 -129 -113 -242.5t-258 -163.5q-86 0 -162 17t-140.5 52t-102 95t-37.5 139zM100 1235q292 183 410 367h90 q58 -105 150.5 -201t197.5 -166l-28 -49l-416 164l-375 -164z" />
<glyph unicode="&#xeb;" horiz-adv-x="851" d="M43 272q0 73 31 132t84.5 98t120.5 62.5t145 31.5v6q-80 0 -145 21.5t-108.5 70.5t-43.5 119q208 242 467 326q156 0 264 -64q-71 -109 -102 -256h-19q-39 39 -54 53t-49.5 41t-65 37.5t-64.5 10.5q-21 0 -49 -7q-11 -22 -11 -67q0 -123 55 -180t179 -68l-10 -80 q-136 0 -216.5 -61t-80.5 -185q0 -81 42 -128.5t119 -47.5q69 0 105 27q10 36 10 84q0 51 -29 84l5 14q50 16 97 45t75 64q30 -6 45.5 -27.5t15.5 -52.5q0 -129 -113 -242.5t-258 -163.5q-86 0 -162 17t-140.5 52t-102 95t-37.5 139zM117 1409q23 42 82 92t108 76 q35 -22 81 -72t77 -96q-31 -47 -91.5 -112.5t-103.5 -96.5q-39 29 -83 92.5t-70 116.5zM569 1409q23 41 82.5 91.5t108.5 76.5q35 -22 81 -72t77 -96q-31 -47 -91.5 -112.5t-103.5 -96.5q-39 29 -83.5 92.5t-70.5 116.5z" />
<glyph unicode="&#xec;" horiz-adv-x="641" d="M-61 1401q2 32 25.5 105t43.5 93q44 7 111 3q94 -170 389 -367l-29 -49zM90 1067l2 39q270 0 430 22l10 -8q-25 -105 -46 -352t-21 -457q0 -67 8.5 -169t18.5 -146q-240 0 -365 -27l-10 8q25 103 44 343.5t19 453.5q0 157 -8 264q-43 10 -82 29z" />
<glyph unicode="&#xed;" horiz-adv-x="641" d="M90 1067l2 39q270 0 430 22l10 -8q-25 -105 -46 -352t-21 -457q0 -67 8.5 -169t18.5 -146q-240 0 -365 -27l-10 8q25 103 44 343.5t19 453.5q0 157 -8 264q-43 10 -82 29zM160 1235q295 197 389 367q66 4 110 -3q20 -20 44 -93t26 -105l-541 -215z" />
<glyph unicode="&#xee;" horiz-adv-x="641" d="M-49 1235q257 161 389 367h90q129 -235 328 -367l-29 -49l-395 164l-354 -164zM90 1067l2 39q270 0 430 22l10 -8q-25 -105 -46 -352t-21 -457q0 -67 8.5 -169t18.5 -146q-240 0 -365 -27l-10 8q25 103 44 343.5t19 453.5q0 157 -8 264q-43 10 -82 29z" />
<glyph unicode="&#xef;" horiz-adv-x="641" d="M-39 1409q23 41 82.5 91.5t108.5 76.5q35 -22 80.5 -71.5t76.5 -96.5q-32 -48 -91.5 -113t-102.5 -96q-39 29 -83.5 92.5t-70.5 116.5zM90 1067l2 39q270 0 430 22l10 -8q-25 -105 -46 -352t-21 -457q0 -67 8.5 -169t18.5 -146q-240 0 -365 -27l-10 8q25 103 44 343.5 t19 453.5q0 157 -8 264q-43 10 -82 29zM385 1409q23 42 82 92t108 76q35 -22 81 -72t77 -96q-32 -48 -91.5 -113t-102.5 -96q-39 29 -83.5 92.5t-70.5 116.5z" />
<glyph unicode="&#xf0;" horiz-adv-x="907" d="M16 508q49 45 72 100h109q2 57 2 168q0 160 -15 262q-43 10 -82 29l2 39q99 0 272.5 9t241.5 9q241 0 355 -114.5t114 -356.5q0 -130 -46 -244t-127.5 -199t-187.5 -146t-230 -95l-54 15q-102 26 -217 26q-61 0 -94 -8l-12 27q38 41 49 133q21 156 27 348l-162 -14z M489 322q0 -84 11 -177q23 -14 71 -14q91 0 129 31q31 71 48.5 188t17.5 215q0 47 -0.5 72.5t-2.5 73t-7 76t-13 68t-21.5 63.5t-32 47t-45.5 34t-60 11q-35 0 -64 -13q-14 -147 -24 -368q83 9 161 24l13 -10q-35 -56 -52 -94l-124 -12q-5 -190 -5 -215z" />
<glyph unicode="&#xf1;" horiz-adv-x="1249" d="M90 1067l2 39q322 0 488 27q19 -110 57 -213q83 -228 242 -502l57 -101h4q0 303 -12.5 513.5t-24.5 275.5q129 0 227 24l11 -8q-26 -108 -47 -336.5t-21 -439.5q0 -194 27 -352q-236 0 -375 -21l-12 4q-25 85 -72.5 195t-128.5 276t-109 226q-39 89 -73 133l-6 -2 q0 -300 15 -520.5t28 -290.5q-123 0 -228 -25l-10 8q24 100 40.5 337.5t16.5 457.5q0 148 -16 266q-39 9 -80 29zM248 1305q55 74 153.5 142.5t198.5 100.5q75 -49 134.5 -73.5t131.5 -24.5q101 0 170 72l49 -35q-133 -182 -286 -244q-51 0 -167 49t-167 49q-98 0 -166 -71z " />
<glyph unicode="&#xf2;" horiz-adv-x="1101" d="M57 403q0 246 148.5 438t398.5 296q208 0 324 -113.5t116 -321.5q0 -240 -153 -441t-391 -292q-194 0 -318.5 120.5t-124.5 313.5zM168 1401q2 32 26 105t44 93q44 7 110 3q94 -170 389 -367l-28 -49zM383 432q0 -68 7 -119.5t24 -94t49 -65t78 -22.5q55 0 92 16 q40 112 63 257t23 270q0 68 -7 119.5t-24 94t-49 65t-78 22.5q-53 0 -92 -17q-40 -112 -63 -256.5t-23 -269.5z" />
<glyph unicode="&#xf3;" horiz-adv-x="1101" d="M57 403q0 246 148.5 438t398.5 296q208 0 324 -113.5t116 -321.5q0 -240 -153 -441t-391 -292q-194 0 -318.5 120.5t-124.5 313.5zM383 432q0 -68 7 -119.5t24 -94t49 -65t78 -22.5q55 0 92 16q40 112 63 257t23 270q0 68 -7 119.5t-24 94t-49 65t-78 22.5q-53 0 -92 -17 q-40 -112 -63 -256.5t-23 -269.5zM471 1235q295 197 389 367q67 4 111 -3q20 -20 43.5 -93t25.5 -105l-540 -215z" />
<glyph unicode="&#xf4;" horiz-adv-x="1101" d="M57 403q0 246 148.5 438t398.5 296q208 0 324 -113.5t116 -321.5q0 -240 -153 -441t-391 -292q-194 0 -318.5 120.5t-124.5 313.5zM201 1235q291 182 409 367h90q58 -105 150.5 -201t198.5 -166l-29 -49l-416 164l-375 -164zM383 432q0 -68 7 -119.5t24 -94t49 -65 t78 -22.5q55 0 92 16q40 112 63 257t23 270q0 68 -7 119.5t-24 94t-49 65t-78 22.5q-53 0 -92 -17q-40 -112 -63 -256.5t-23 -269.5z" />
<glyph unicode="&#xf5;" horiz-adv-x="1101" d="M57 403q0 246 148.5 438t398.5 296q208 0 324 -113.5t116 -321.5q0 -240 -153 -441t-391 -292q-194 0 -318.5 120.5t-124.5 313.5zM217 1305q55 74 153.5 142.5t198.5 100.5q75 -49 134.5 -73.5t132.5 -24.5q101 0 170 72l49 -35q-133 -181 -287 -244q-51 0 -167 49 t-167 49q-98 0 -166 -71zM383 432q0 -68 7 -119.5t24 -94t49 -65t78 -22.5q55 0 92 16q40 112 63 257t23 270q0 68 -7 119.5t-24 94t-49 65t-78 22.5q-53 0 -92 -17q-40 -112 -63 -256.5t-23 -269.5z" />
<glyph unicode="&#xf6;" horiz-adv-x="1101" d="M57 403q0 246 148.5 438t398.5 296q208 0 324 -113.5t116 -321.5q0 -240 -153 -441t-391 -292q-194 0 -318.5 120.5t-124.5 313.5zM217 1409q23 41 82.5 91.5t108.5 76.5q35 -22 80.5 -71.5t76.5 -96.5q-32 -48 -91.5 -113t-102.5 -96q-39 29 -83.5 92.5t-70.5 116.5z M383 432q0 -68 7 -119.5t24 -94t49 -65t78 -22.5q55 0 92 16q40 112 63 257t23 270q0 68 -7 119.5t-24 94t-49 65t-78 22.5q-53 0 -92 -17q-40 -112 -63 -256.5t-23 -269.5zM670 1409q23 42 82 92t108 76q35 -22 81 -72t77 -96q-31 -47 -91.5 -112.5t-103.5 -96.5 q-39 29 -83 92.5t-70 116.5z" />
<glyph unicode="&#xf7;" horiz-adv-x="1179" d="M117 459l18 135q366 -19 744 -19q81 0 174 7l12 -13l-18 -125h-914zM475 219q0 42 36.5 78.5t78.5 36.5q43 0 77.5 -36t34.5 -79q0 -42 -35 -79.5t-77 -37.5q-41 0 -78 38t-37 79zM475 799q0 42 36.5 78t78.5 36q43 0 77.5 -35.5t34.5 -78.5q0 -42 -35 -79.5t-77 -37.5 q-41 0 -78 38t-37 79z" />
<glyph unicode="&#xf8;" horiz-adv-x="1101" d="M57 403q0 246 148.5 438t398.5 296q47 0 111 -11q9 27 25 82.5t20 69.5q59 4 96 18l8 -8q-33 -71 -78 -180q124 -42 191 -146t67 -260q0 -240 -153 -441t-391 -292q-69 0 -144 21l-59 -168h-12q-56 36 -70 65l61 133q-103 53 -161 153t-58 230zM383 432q0 -79 8 -131 l254 645q-32 29 -84 29q-53 0 -92 -17q-40 -112 -63 -256.5t-23 -269.5zM430 186q39 -55 111 -55q55 0 92 16q40 112 63 257t23 270q0 120 -25 194z" />
<glyph unicode="&#xf9;" horiz-adv-x="1185" d="M70 1067l2 39q270 0 430 22l10 -8q-25 -111 -43 -299.5t-18 -355.5q0 -59 1 -92t6 -79.5t14.5 -72.5t28.5 -47.5t46 -26.5q46 33 94 89.5t76 115.5q8 188 8 422q0 250 -18 328q240 0 360 26l10 -8q-27 -123 -43 -361t-16 -435q0 -250 18 -328q-210 0 -338 -27l-12 8 q35 145 45 232l-8 2q-93 -172 -236 -242q-180 4 -263 97t-83 278q0 56 13.5 216t13.5 214q0 157 -16 264q-43 10 -82 29zM172 1401q2 32 26 105t44 93q44 7 110 3q94 -170 389 -367l-28 -49z" />
<glyph unicode="&#xfa;" horiz-adv-x="1185" d="M70 1067l2 39q270 0 430 22l10 -8q-25 -111 -43 -299.5t-18 -355.5q0 -59 1 -92t6 -79.5t14.5 -72.5t28.5 -47.5t46 -26.5q46 33 94 89.5t76 115.5q8 188 8 422q0 250 -18 328q240 0 360 26l10 -8q-27 -123 -43 -361t-16 -435q0 -250 18 -328q-210 0 -338 -27l-12 8 q35 145 45 232l-8 2q-93 -172 -236 -242q-180 4 -263 97t-83 278q0 56 13.5 216t13.5 214q0 157 -16 264q-43 10 -82 29zM475 1235q295 197 389 367q67 4 111 -3q20 -20 43.5 -93t25.5 -105l-540 -215z" />
<glyph unicode="&#xfb;" horiz-adv-x="1185" d="M70 1067l2 39q270 0 430 22l10 -8q-25 -111 -43 -299.5t-18 -355.5q0 -59 1 -92t6 -79.5t14.5 -72.5t28.5 -47.5t46 -26.5q46 33 94 89.5t76 115.5q8 188 8 422q0 250 -18 328q240 0 360 26l10 -8q-27 -123 -43 -361t-16 -435q0 -250 18 -328q-210 0 -338 -27l-12 8 q35 145 45 232l-8 2q-93 -172 -236 -242q-180 4 -263 97t-83 278q0 56 13.5 216t13.5 214q0 157 -16 264q-43 10 -82 29zM205 1235q291 182 409 367h91q58 -105 150.5 -201t197.5 -166l-29 -49l-416 164l-375 -164z" />
<glyph unicode="&#xfc;" horiz-adv-x="1185" d="M70 1067l2 39q270 0 430 22l10 -8q-25 -111 -43 -299.5t-18 -355.5q0 -59 1 -92t6 -79.5t14.5 -72.5t28.5 -47.5t46 -26.5q46 33 94 89.5t76 115.5q8 188 8 422q0 250 -18 328q240 0 360 26l10 -8q-27 -123 -43 -361t-16 -435q0 -250 18 -328q-210 0 -338 -27l-12 8 q35 145 45 232l-8 2q-93 -172 -236 -242q-180 4 -263 97t-83 278q0 56 13.5 216t13.5 214q0 157 -16 264q-43 10 -82 29zM221 1409q23 41 82.5 91.5t108.5 76.5q35 -22 80.5 -71.5t76.5 -96.5q-32 -48 -91.5 -113t-102.5 -96q-39 29 -83.5 92.5t-70.5 116.5zM674 1409 q23 42 82 92t108 76q35 -22 81 -72t77 -96q-31 -47 -91.5 -112.5t-103.5 -96.5q-39 29 -83 92.5t-70 116.5z" />
<glyph unicode="&#xfd;" horiz-adv-x="899" d="M-35 1067l2 39q281 0 441 22l10 -8q16 -198 119 -499q37 69 69.5 207t32.5 210q0 40 -8 58l8 10q194 0 293 24q-12 -202 -326 -579q-8 -123 -8 -309q0 -128 27 -246q-277 -9 -359 -27l-10 8q20 83 35 231t20 290q-15 41 -37.5 93.5t-52.5 117t-43 94.5q-71 155 -133 235 q-39 9 -80 29zM377 1235q295 197 389 367q67 4 111 -3q20 -20 43.5 -93t25.5 -105l-540 -215z" />
<glyph unicode="&#xfe;" horiz-adv-x="1052" d="M90 1067l2 39q270 0 430 22l10 -8q-18 -71 -34 -217q20 0 55.5 1t52.5 1q73 0 127 -5t109 -21t89.5 -42.5t56.5 -73t22 -110.5q0 -75 -29 -137.5t-78 -105t-115 -72.5t-139.5 -43.5t-152.5 -13.5l6 77q178 0 178 236q0 197 -115 197q-32 0 -78 -11q-22 -239 -22 -469 q0 -67 8.5 -169t18.5 -146q-240 0 -365 -27l-10 8q25 103 44 343.5t19 453.5q0 157 -8 264q-43 10 -82 29z" />
<glyph unicode="&#xff;" horiz-adv-x="899" d="M-35 1067l2 39q281 0 441 22l10 -8q16 -198 119 -499q37 69 69.5 207t32.5 210q0 40 -8 58l8 10q194 0 293 24q-12 -202 -326 -579q-8 -123 -8 -309q0 -128 27 -246q-277 -9 -359 -27l-10 8q20 83 35 231t20 290q-15 41 -37.5 93.5t-52.5 117t-43 94.5q-71 155 -133 235 q-39 9 -80 29zM123 1409q23 42 82 92t108 76q35 -22 81 -72t77 -96q-31 -47 -91.5 -112.5t-103.5 -96.5q-39 29 -83 92.5t-70 116.5zM575 1409q23 41 82.5 91.5t108.5 76.5q35 -22 81 -72t77 -96q-31 -47 -91.5 -112.5t-103.5 -96.5q-39 29 -83.5 92.5t-70.5 116.5z" />
<glyph unicode="&#x152;" horiz-adv-x="1601" d="M61 487q0 189 68 363.5t199.5 311t306.5 202.5l4 -2l-2 2q188 -31 504 -31q249 0 426 31l12 -23q-46 -52 -69 -142t-27 -181h-35q-20 62 -33 156q-94 43 -196 43q-34 0 -91 -11q-24 -166 -41 -442q39 -8 113 -8q102 0 205 35l10 -13q-14 -40 -31 -172q-151 21 -237 21 q-43 0 -66 -4q-4 -70 -4 -97q0 -45 1 -78t5.5 -75.5t12 -72.5t22 -61t34 -50.5t49 -31.5t67.5 -12q55 78 55 195q0 36 -6 63l14 11q134 3 256 22q-25 -135 -143.5 -266.5t-257.5 -200.5q-148 0 -227 39t-121 127h-13q-102 -116 -282 -166q-228 0 -355 141t-127 377zM403 522 q0 -177 57 -277t171 -100q45 0 80 15q44 61 47 219l14 512q0 157 -22 264q-51 37 -136 37q-62 0 -102 -23q-53 -135 -81 -311t-28 -336z" />
<glyph unicode="&#x153;" horiz-adv-x="1437" d="M63 403q0 246 148.5 438t398.5 296q55 0 158 -15.5t174 -15.5q294 0 457 27l10 -19q-37 -43 -56.5 -119t-23.5 -151h-37q-16 44 -26 117q-74 32 -160 32q-45 0 -78 -8q-20 -160 -31 -340q41 -8 93 -8q86 0 178 29l10 -11q-22 -53 -31 -161q-122 18 -194 18q-33 0 -60 -6 v-154q0 -68 10.5 -112t44.5 -73.5t93 -29.5q49 0 76 15q10 36 10 84q0 50 -29 83l4 15q115 37 172 108q30 -6 46 -28t16 -52q0 -131 -100 -237.5t-242 -155.5q-268 0 -353 133q-107 -84 -235 -133q-194 0 -318.5 120.5t-124.5 313.5zM389 432q0 -68 7 -119.5t24 -94t49 -65 t78 -22.5q55 0 92 16q43 92 49 220l12 352q3 105 -2 203q-45 53 -131 53q-53 0 -92 -17q-40 -112 -63 -256.5t-23 -269.5z" />
<glyph unicode="&#x2c6;" horiz-adv-x="847" d="M0 1161q292 183 410 367h90q58 -105 150.5 -201t197.5 -166l-29 -49l-416 164l-374 -164z" />
<glyph unicode="&#x2dc;" horiz-adv-x="837" d="M29 1231q55 74 153.5 143t198.5 101q76 -50 135 -74.5t131 -24.5q101 0 170 72l49 -35q-133 -182 -286 -244q-51 0 -167 49.5t-167 49.5q-97 0 -166 -72z" />
<glyph unicode="&#x2000;" horiz-adv-x="929" />
<glyph unicode="&#x2001;" horiz-adv-x="1859" />
<glyph unicode="&#x2002;" horiz-adv-x="929" />
<glyph unicode="&#x2003;" horiz-adv-x="1859" />
<glyph unicode="&#x2004;" horiz-adv-x="619" />
<glyph unicode="&#x2005;" horiz-adv-x="464" />
<glyph unicode="&#x2006;" horiz-adv-x="309" />
<glyph unicode="&#x2007;" horiz-adv-x="309" />
<glyph unicode="&#x2008;" horiz-adv-x="232" />
<glyph unicode="&#x2009;" horiz-adv-x="371" />
<glyph unicode="&#x200a;" horiz-adv-x="103" />
<glyph unicode="&#x2010;" horiz-adv-x="614" d="M49 475l12 135h95q212 0 393 21l16 -10l-12 -127l-485 -31z" />
<glyph unicode="&#x2011;" horiz-adv-x="614" d="M49 475l12 135h95q212 0 393 21l16 -10l-12 -127l-485 -31z" />
<glyph unicode="&#x2012;" horiz-adv-x="614" d="M49 475l12 135h95q212 0 393 21l16 -10l-12 -127l-485 -31z" />
<glyph unicode="&#x2013;" horiz-adv-x="980" d="M14 508l80 121q230 -25 590 -25q146 0 266 10l17 -16l-80 -111h-850z" />
<glyph unicode="&#x2014;" horiz-adv-x="1452" d="M14 508l80 121q394 -25 924 -25q265 0 403 12l17 -16l-80 -113h-1321z" />
<glyph unicode="&#x2018;" horiz-adv-x="462" d="M43 858q25 148 136.5 295.5t250.5 241.5l31 -35q-62 -66 -114 -150t-68 -159q37 -37 73.5 -93t55.5 -100q-23 -42 -85 -95t-114 -81q-38 24 -86.5 76t-79.5 100z" />
<glyph unicode="&#x2019;" horiz-adv-x="462" d="M2 717q62 66 114 150t68 159q-37 37 -73.5 93t-55.5 100q23 42 85 95t114 81q38 -24 86.5 -76t79.5 -100q-25 -148 -136.5 -295.5t-250.5 -241.5z" />
<glyph unicode="&#x201a;" horiz-adv-x="450" d="M-10 -270q151 130 182 268q-37 37 -73.5 93t-55.5 99q23 43 85.5 96t113.5 81q38 -24 86.5 -76.5t79.5 -100.5q-25 -151 -134 -285.5t-254 -209.5z" />
<glyph unicode="&#x201c;" horiz-adv-x="882" d="M43 858q25 148 136.5 295.5t250.5 241.5l31 -35q-62 -66 -114 -150t-68 -159q37 -37 73.5 -93t55.5 -100q-23 -42 -85 -95t-114 -81q-38 24 -86.5 76t-79.5 100zM463 858q25 148 136.5 295.5t250.5 241.5l31 -35q-63 -66 -115 -150t-68 -159q37 -37 73.5 -93t55.5 -100 q-23 -43 -85 -95.5t-113 -80.5q-38 24 -86.5 76t-79.5 100z" />
<glyph unicode="&#x201d;" horiz-adv-x="882" d="M2 717q62 66 114 150t68 159q-37 37 -73.5 93t-55.5 100q23 42 85 95t114 81q38 -24 86.5 -76t79.5 -100q-25 -148 -136.5 -295.5t-250.5 -241.5zM422 717q62 66 114 150t68 159q-37 37 -73.5 93t-55.5 100q23 42 85 95t114 81q38 -24 86.5 -76t79.5 -100 q-25 -148 -136.5 -295.5t-250.5 -241.5z" />
<glyph unicode="&#x201e;" horiz-adv-x="870" d="M-10 -270q151 130 182 268q-37 37 -73.5 93t-55.5 99q23 43 85.5 96t113.5 81q38 -24 86.5 -76.5t79.5 -100.5q-25 -151 -134 -285.5t-254 -209.5zM410 -270q151 130 182 268q-37 37 -73.5 93t-55.5 99q23 43 85.5 96t113.5 81q38 -24 86 -76.5t79 -100.5 q-25 -151 -134 -285.5t-253 -209.5z" />
<glyph unicode="&#x2022;" horiz-adv-x="688" d="M43 561l6 31q114 74 185.5 137.5t132.5 159.5h32q40 -94 95.5 -156t150.5 -139l-4 -31q-108 -81 -183.5 -156t-138.5 -174h-30q-39 99 -97.5 173.5t-148.5 154.5z" />
<glyph unicode="&#x2026;" horiz-adv-x="1351" d="M43 190q21 38 51 64q7 10 21 20l39 33q25 20 28 23l19 12q21 15 41 25q0 -2 4 -2q43 -28 88 -80l14 -17q46 -57 47 -59q1 -1 4 -6t4 -8l5 -5q-43 -62 -98 -123.5t-101 -93.5l-4 -4q-46 40 -90 97q-9 12 -25.5 40t-26.5 41q-5 8 -11.5 23.5t-8.5 19.5zM494 190 q23 43 85 96t113 81q38 -24 86.5 -76.5t79.5 -100.5q-30 -49 -93.5 -118.5t-109.5 -102.5q-42 31 -89 98.5t-72 122.5zM944 190q23 43 85.5 96t113.5 81q25 -16 57 -46.5t60.5 -65t48.5 -65.5q-30 -49 -93.5 -118.5t-109.5 -102.5q-42 31 -89.5 98.5t-72.5 122.5z" />
<glyph unicode="&#x202f;" horiz-adv-x="371" />
<glyph unicode="&#x2039;" horiz-adv-x="636" d="M70 547l4 51q261 134 501 385l48 -33l-287 -366l194 -406l-57 -35q-97 131 -193 230.5t-210 173.5z" />
<glyph unicode="&#x203a;" horiz-adv-x="636" d="M14 176l287 367l-195 405l58 35q96 -131 192 -230t211 -173l-4 -52q-263 -135 -502 -385z" />
<glyph unicode="&#x205f;" horiz-adv-x="464" />
<glyph unicode="&#x20ac;" horiz-adv-x="849" d="M14 434q48 42 66 66l70 2h4q8 34 20 71q-80 -3 -139 -10l-6 8q5 5 20.5 20t25.5 25.5t19 22.5l105 4h2q62 139 172.5 260.5t242.5 198.5q99 -31 164 -31q39 0 60 8l12 -30q-50 -56 -75.5 -154.5t-31.5 -198.5h-36q-13 47 -23 103l-29 43q-19 29 -60.5 61t-70.5 33 q-32 -114 -55 -281q154 5 211 11l6 -9q-25 -32 -35 -65l-190 -6l-6 -68q169 6 211 10l6 -8q-26 -37 -35 -67l-182 -4q2 -112 28.5 -187.5t85.5 -81.5q91 89 158 260l49 -10q-33 -142 -103 -265.5t-173 -195.5q-172 4 -267.5 112t-95.5 286q0 44 4 69h-2l-121 -10z" />
<glyph unicode="&#xe000;" horiz-adv-x="1136" d="M0 0v1137h1137v-1137h-1137z" />
</font>
</defs>
</svg>
