<?xml version="1.0" standalone="no"?>
<!DOCTYPE svg PUBLIC "-//W3C//DTD SVG 1.1//EN" "http://www.w3.org/Graphics/SVG/1.1/DTD/svg11.dtd" >
<svg xmlns="http://www.w3.org/2000/svg">
<metadata></metadata>
<defs>
<font id="freebooter_script_-_altsRg" horiz-adv-x="366" >
<font-face units-per-em="1000" ascent="800" descent="-200" />
<missing-glyph horiz-adv-x="273" />
<glyph horiz-adv-x="1000" />
<glyph horiz-adv-x="1000" />
<glyph unicode="&#xd;" horiz-adv-x="273" />
<glyph unicode=" "  horiz-adv-x="273" />
<glyph unicode="&#x09;" horiz-adv-x="273" />
<glyph unicode="&#xa0;" horiz-adv-x="273" />
<glyph unicode="'" horiz-adv-x="199" d="M174 778q-16 15 -32 23q-4 10 -21 10q-35 0 -51 -46q-1 -6 -2 -11t-1 -9q0 -24 27 -24q21 0 29 8q-30 -117 -86 -161l-16 -15q-5 -10 -3 -13q2 -7 10 -3q8 5 13.5 9t10.5 6l23 19q44 38 66 90q15 34 33 117z" />
<glyph unicode="4" horiz-adv-x="782" d="M948 735q-10 166 -196 166q-139 0 -219 -46q-112 -66 -198 -257q-23 -51 -40 -89t-33.5 -67.5t-34.5 -52t-41 -40t-54 -32.5t-73 -31q-7 0 -17 3.5t-24 8.5q-1 2 -4 2q-5 0 -6 -2q-4 -7 12 -16q39 -22 78.5 -36.5t77.5 -23.5q60 -15 111 -25t96 -16l-116 -229 q-62 -127 -130 -219q-229 -318 -560 -309q-64 2 -123.5 19t-113.5 50q-24 15 -40 15q-2 0 -2.5 -1t-2.5 -2q0 -9 50 -35q118 -60 246 -64q368 -7 609 315q27 37 58.5 92t67.5 128l81 170l31 63q33 -2 60 -3.5t48 0.5q38 1 71.5 6t65.5 13q94 25 94 78q0 36 -57 81 q21 -29 21 -54q0 -49 -72 -76q-25 -9 -52.5 -13.5t-59.5 -6.5q-29 -1 -54.5 -0.5t-50.5 2.5q30 60 62.5 119t67.5 119q16 27 27 36q2 2 2.5 3.5t2.5 2.5q-3 3 -11 3q-39 0 -51 -12q-64 -109 -103 -176t-53 -92q-82 8 -160 24.5t-153 42.5q88 4 175 111q25 32 48.5 68.5 t46.5 74.5t46 76.5t48 74.5q133 186 288 203q165 -3 170 -146q2 -71 -56 -112q-50 -41 -121 -42q-108 -3 -162 82l-18 24q15 -128 180 -141q90 -6 156 45q71 59 64 146z" />
<glyph unicode="?" horiz-adv-x="431" d="M507 585q0 155 -273 157q-212 3 -217 -175q-3 -86 57 -137q55 -49 142 -49h10q7 0 17 1q165 18 174 149l-16 -26q-53 -87 -159 -87q-73 0 -125 36q-58 43 -58 111q0 150 163 150q248 0 248 -147q0 -62 -47 -130q-42 -62 -99 -102q-112 -97 -112 -201q5 19 19.5 43 t40.5 53q21 23 43 42.5t44 35.5q148 161 148 276zM209 34q6 25 -24 29q-35 6 -56 -20q-13 -17 5 -28q33 0 33 -18q0 -23 -29 -72q26 29 43 56t28 53z" />
<glyph unicode="B" horiz-adv-x="1113" d="M571 -279q20 -2 38.5 1t35.5 11q11 5 29 14.5t41 25.5q70 61 63 156q-6 94 -18 132q-3 11 -11 30t-20 48q-8 20 -12.5 33t-2.5 18q6 60 157 119q212 83 212 190q0 31 -15 60q-28 60 -93 75q-42 20 -79 35t-71 24q-222 54 -371 49q-213 -4 -217 -175q-3 -86 57 -137 q55 -49 142 -49h10q7 0 17 1q165 18 174 149l-16 -26q-53 -87 -159 -87q-73 0 -125 36q-58 43 -58 111q0 146 163 150q258 7 474 -72q-17 -2 -33 -6q-29 -2 -31 -12q-29 -12 -56 -35.5t-55 -57.5q-22 -26 -51.5 -75t-68.5 -124q-48 -88 -119 -188q-136 -187 -288 -202 q-84 1 -126.5 37.5t-44.5 107.5q-1 69 56 113q26 20 56 30t65 12q111 1 164 -83q1 -2 5 -7.5t11 -16.5q-13 127 -180 141q-90 7 -154 -45q-71 -56 -65 -145q12 -167 195 -167q142 0 221 47q104 59 196 256l54 113q29 60 51 100t36 63q62 86 138 114q8 0 17 1t19 2 q60 0 86 -54q15 -32 15 -54q0 -94 -177 -172q-155 -70 -177 -129q-2 -2 -2 -6v-6q0 -13 3.5 -33t8.5 -48q8 -32 11.5 -53.5t5.5 -32.5q13 -112 15 -115q0 -11 -3.5 -22.5t-8.5 -24.5q-57 -109 -161 -109q-45 0 -58 33q-14 36 6 60q37 44 39 46q-8 12 -21 12q-20 0 -39 -31 q-20 -33 -20 -56q0 -17 8 -36q27 -58 112 -64z" />
<glyph unicode="F" horiz-adv-x="910" d="M1285 612q0 2 -3 4q-13 0 -18 -1q-14 -2 -29.5 -0.5t-33.5 4.5l-18 3q-54 11 -112 22t-120 23q24 39 60 53q5 3 9 5t6 4q-3 4 -8 4q-5 3 -9 0q-45 -9 -87 -60q-193 34 -333 51t-228 17q-85 0 -151.5 -8t-116.5 -22q-189 -58 -204 -201q-4 -33 1.5 -65t17.5 -63 q44 -98 110 -130q-6 -20 -8.5 -39.5t-2.5 -38.5q0 -56 23 -108q63 -155 238 -155q177 0 299 108q96 85 186 266q36 1 68.5 -1t61.5 -5h33q8 14 -19 16q-24 4 -58.5 5t-81.5 1q15 24 32 62q81 182 148 280q83 -14 149.5 -23.5t117.5 -16.5q47 -5 68 1q13 3 13 8zM901 651 q-43 -60 -85.5 -129t-85.5 -147l-42 -77q-42 -3 -66.5 -4.5t-32.5 -2.5q-55 -9 -79 -18q31 62 31 117q0 19 -3.5 36t-11.5 33q-28 64 -132 64q-76 0 -148 -28q-180 -67 -225 -233q-56 34 -95 120q-25 58 -16 113q33 207 468 207q185 0 523 -51zM679 282 q-48 -83 -91.5 -143.5t-85.5 -99.5q-114 -108 -243 -108q-156 0 -213 135q-5 14 -8.5 30.5t-3.5 33.5q0 124 114 237q142 141 270 141q108 3 108 -111q0 -59 -39 -135q-61 -29 -61 -70q0 -15 12 -15t25 19q11 16 19 27t11 17q25 24 87 36q15 2 39.5 3t59.5 3z" />
<glyph unicode="P" horiz-adv-x="949" d="M933 486q0 93 -134 177q-66 28 -106.5 44.5t-55.5 19.5q-222 54 -370 51q-210 -6 -218 -177q0 -42 15 -76.5t41.5 -58.5t63 -37.5t78.5 -13.5q4 0 11 1t18 2q165 18 174 149l-15 -27q-52 -85 -161 -87q-73 0 -124 36q-57 40 -57 111q0 145 162 150q258 6 474 -72 q-86 -4 -176 -111q-20 -25 -50 -74.5t-70 -125.5q-23 -44 -52.5 -90.5t-65.5 -96.5q-133 -186 -288 -203q-166 3 -170 147q-2 68 54 113q26 19 56.5 29t66.5 11q108 3 162 -81q2 -2 6 -8.5t12 -16.5q-15 129 -180 142q-46 4 -84.5 -8t-71.5 -38q-71 -59 -64 -146 q10 -166 196 -166q151 0 234 57q95 62 183 246l54 114q70 149 119 204q61 70 153 85q126 -74 126 -150q0 -9 -1.5 -19t-3.5 -23q-15 -66 -126 -112q-93 -41 -171 -41q-40 0 -73 9q42 -27 106 -27q35 0 73.5 8t82.5 22q29 11 52.5 20.5t40.5 20.5q74 44 74 117z" />
<glyph unicode="Q" horiz-adv-x="882" d="M529 -275q0 106 -63 232q17 8 32.5 16.5t32.5 18.5q186 120 232 350l3 12q2 14 2 27v24q0 86 -35 136v12q-11 167 -220 167q-261 0 -420 -188q-58 -66 -86 -141t-28 -160q0 -42 8 -78.5t25 -68.5q42 -85 120.5 -127.5t174.5 -39.5q61 3 124 26q74 -125 74 -231 q0 -77 -34 -131q-40 -58 -116 -58q-79 0 -121 63q-32 47 -32 108q0 131 107 181q4 0 18 8q-117 4 -153 -156q-4 -13 -5 -25t-1 -25q0 -58 30 -109q46 -75 133 -83q103 -6 155 69q43 64 43 171zM331 534q104 66 216 66q29 0 55 -6t52 -17q12 -6 22.5 -12t19.5 -14 q0 -71 -56 -113q-51 -41 -123 -42q-21 -2 -39 3.5t-33 15.5q-34 26 -34 66q0 13 3.5 25.5t11.5 27.5q-30 -35 -30 -71q0 -45 40 -72q34 -24 81 -27q88 -6 153 47q50 40 61 96q16 -34 16 -72q0 -107 -80 -243q-78 -135 -216 -205q0 1 -1 1v1q-32 60 -69 110.5t-81 95.5 q-98 96 -98 159v11q26 100 129 169zM568 634h-34q-166 0 -273 -103q-96 -89 -96 -200q0 -52 27 -85q23 -31 42.5 -54.5t36.5 -43.5q45 -47 80.5 -91.5t63.5 -86.5q-24 -11 -49 -19.5t-51 -15.5q-201 -14 -278 149q-10 23 -15.5 47.5t-5.5 52.5q0 144 135 312 q160 201 375 201q75 2 116.5 -28t50.5 -89q-75 50 -125 54z" />
<glyph unicode="S" horiz-adv-x="376" d="M1197 738q-12 166 -221 166q-317 0 -576 -408q-60 -94 -128.5 -223t-147.5 -297q-29 -63 -55 -110t-50 -79q-229 -318 -559 -309q-66 2 -125.5 19t-113.5 50q-24 15 -39 15q-1 0 -4 -3q0 -10 49 -35q119 -60 246 -64q367 -7 608 315q28 37 59.5 92t66.5 128l82 170l11 24 q30 62 70.5 137.5t92.5 166.5q24 40 44 68.5t37 45.5q214 272 444 275q166 1 171 -147q2 -35 -12.5 -63t-42.5 -51q-26 -20 -56.5 -30.5t-68.5 -11.5q-97 -5 -163 78q-2 3 -5.5 8t-6.5 13q14 -120 175 -129q92 -7 156 43q68 53 62 146z" />
<glyph unicode="T" horiz-adv-x="903" d="M1406 612q0 2 -3 4l-18 -1q-10 -2 -25.5 -0.5t-37.5 4.5q-99 16 -279 54l-27 6q-1 63 -76 66q31 -4 30 -58q-260 47 -446 54q-339 11 -460 -119q-57 -60 -57 -138q0 -34 9 -67t26 -62t41 -52.5t54 -38.5q-52 32 -85 106q-26 58 -26 99q0 74 66 134q112 99 390 99 q97 0 218 -11t267 -33q-2 -7 -3.5 -12.5t-2.5 -11.5q-74 -155 -151 -283t-158 -231q-184 -228 -411 -236q-71 -1 -119 36q-50 41 -52 111q-2 35 12.5 64t42.5 50q26 20 56.5 30.5t68.5 11.5q115 5 175 -99q-13 119 -175 131q-92 4 -155 -45q-69 -54 -63 -144 q9 -168 221 -168q395 0 712 646q22 45 34 80.5t16 63.5l12 -3q84 -17 158 -28t140 -18q49 -5 68 1q13 3 13 8z" />
<glyph unicode="V" horiz-adv-x="1137" d="M1699 723q-10 166 -220 166q-246 0 -461 -249q-46 15 -76.5 24.5t-46.5 14.5q-1 63 -77 66q31 -5 31 -52v-6q-149 28 -273.5 41.5t-224.5 13.5q-273 0 -408 -120q-45 -42 -45 -115q0 -83 58 -131q54 -45 138 -45q57 0 108 24q63 31 63 83q0 30 -24 54q14 -22 14 -38 q0 -45 -63 -75q-53 -24 -102 -24q-35 0 -63.5 10.5t-49 30t-32 47t-11.5 61.5q0 63 37 99q112 99 390 99q97 0 218 -11t267 -33q-2 -10 -3.5 -16t-2.5 -8q-81 -164 -150 -283.5t-129 -194.5q-214 -272 -449 -272q-72 0 -115 41q-48 40 -48 112t63 114q54 36 127 36 q106 0 165 -99q-15 131 -193 131q-78 0 -137 -50q-63 -51 -63 -129q0 -178 221 -178q391 0 712 646q22 43 34 79t16 65q17 -3 43 -11t63 -20q-120 -147 -235 -378q-26 -51 -38.5 -94.5t-12.5 -78.5q0 -72 75 -75q-30 4 -27 54q28 131 63 177l12 24q49 72 91 72q30 0 30 -46 q0 -37 -27 -104q-25 -67 -25 -100q0 -20 9 -41q18 -42 58 -42q70 0 162 144q5 9 -3 17q-7 7 -15 -3q-26 -38 -43 -60.5t-26 -31.5q-48 -48 -73 -48q-20 0 -20 30q0 43 36 135q18 45 18 86q0 88 -72 88q-28 0 -54 -13q45 81 88 148.5t85 121.5q217 -72 360 -72q31 0 66 3 q87 -4 151 48q73 57 66 141zM1660 720q3 -84 -73 -126q-62 -32 -153 -32q-143 0 -362 63l6 6q191 228 413 236q37 1 67 -7t53 -26q47 -40 49 -114z" />
<glyph unicode="W" horiz-adv-x="1155" d="M1719 724q-9 167 -221 167q-237 0 -450 -237q-46 5 -84 11.5t-69 13.5q-1 63 -77 66q31 -5 31 -52v-6q-149 28 -273.5 41.5t-224.5 13.5q-273 0 -408 -120q-45 -42 -45 -115q0 -83 58 -131q54 -45 138 -45q57 0 108 24q63 31 63 83q0 30 -24 54q14 -22 14 -38 q0 -45 -63 -75q-53 -24 -102 -24q-35 0 -63.5 10.5t-49 30t-32 47t-11.5 61.5q0 63 37 99q112 99 390 99q97 0 218 -11t267 -33q-2 -10 -3.5 -16t-2.5 -8q-81 -164 -150 -283.5t-129 -194.5q-214 -272 -449 -272q-72 0 -115 41q-48 40 -48 112t63 114q54 36 127 36 q106 0 165 -99q-15 131 -193 131q-78 0 -137 -50q-63 -51 -63 -129q0 -178 221 -178q391 0 712 646q22 43 34 79t16 65q30 -7 64.5 -11.5t71.5 -7.5q-64 -76 -125.5 -173t-120.5 -216q-51 -101 -51 -172q0 -72 77 -75q-30 5 -29 54q30 132 63 177l12 24q50 70 92 70 q30 0 30 -45q0 -36 -27 -103q-26 -67 -26 -101q0 -21 9 -40q20 -42 60 -42q68 0 161 144q4 5 -3 16q-7 4 -14 -4q-26 -36 -43.5 -58.5t-26.5 -31.5q-48 -50 -72 -50q-21 0 -21 32q0 43 37 135q18 45 18 85q0 89 -73 89q-24 0 -54 -14q51 91 99 163.5t93 129.5l87 -8 q18 -1 40.5 4t49.5 17q28 12 58 41q-4 -11 -4 -26q0 -62 72 -96q56 -25 126 -25q71 0 130 49q71 57 65 141zM1681 721q2 -35 -12.5 -63t-42.5 -51q-26 -19 -56.5 -29.5t-66.5 -12.5q-48 -2 -98 24q-60 31 -60 77q0 36 48 81q-2 1 -3 2t-3 1q-1 0 -1 -1t-2 -2q-19 -5 -34 -26 q-26 -26 -46.5 -42.5t-36.5 -24.5q-49 -25 -88 -20q-20 4 -37 6.5t-34 4.5q180 217 404 223q75 3 118 -34q50 -40 51 -113z" />
<glyph unicode="Z" horiz-adv-x="865" d="M1041 684h-15l-12 3q-237 46 -432 54q-337 11 -489 -119q-98 -83 -98 -196q0 -112 84 -162q-43 32 -58 106q-13 50 -2 99q18 75 98 134q136 99 414 99q175 0 423 -36q-62 -26 -129 -90q-29 -29 -70 -78t-98 -120q-68 -89 -162 -189q-129 -136 -254 -183q0 1 -4 0 q-87 -12 -87 -18q0 -2 4 -3q49 -14 195 -24l47 -5q23 -1 51.5 -2t60.5 -1q74 0 140 6.5t127 19.5q-2 -2 -3 -4t-3 -4q3 0 9.5 5t12.5 11t11 12.5t5 9.5t-5 3h-9q-86 -20 -163 -29t-149 -9q-104 0 -174 15l-10 3q17 4 33.5 9.5t32.5 13.5q60 30 124.5 93.5t133.5 159.5 l81 114q84 119 124 162q79 88 165 117l14 -3q17 15 36 26z" />
<glyph unicode="c" horiz-adv-x="589" d="M397 427q127 86 330 122l302 54q130 36 130 120q-1 166 -222 166q-391 0 -714 -646q-12 -26 -22 -50.5t-15 -45.5q-7 4 -14 -5q-69 -117 -156 -117q-33 0 -33 54q0 81 69 171q40 56 78 56q36 0 36 -24q0 -28 -55 -77l3 -4q78 55 78 93q0 37 -53 42q-54 4 -120 -62 q-87 -87 -87 -181q0 -92 75 -92q5 -1 9 -1h9q72 0 152 106q-3 -18 -3 -36q0 -72 75 -75q-30 5 -29 54q30 131 63 177l12 24q49 72 92 72q31 0 31 -46q0 -37 -27 -104q-27 -65 -27 -100q0 -20 9 -41q21 -42 60 -42q68 0 161 144q4 8 -3 17q-7 6 -14 -3q-26 -38 -43 -60.5 t-26 -31.5q-48 -48 -73 -48q-21 0 -21 30q0 45 37 135q18 45 18 86q0 88 -73 88q-27 0 -54 -13q14 25 27.5 48t27.5 46zM1120 720q-6 -65 -136 -93l-282 -56q-179 -36 -288 -118q32 53 63.5 97t60.5 81q182 229 413 236q36 1 66 -7t55 -28q56 -41 48 -112z" />
<glyph unicode="d" horiz-adv-x="484" d="M1012 723q-10 166 -220 166q-359 0 -651 -526q-11 1 -22 1h-19q-102 0 -102 -66q0 -20 15 -33q18 49 63 56q7 1 18 1h26q-15 -26 -25 -45.5t-17 -33.5q-145 -307 -276 -476q-210 -265 -446 -273q-71 -2 -118 36q-49 40 -51 111q-2 34 12.5 62t42.5 51q26 20 56.5 31 t66.5 12q106 4 164 -79q10 -15 12 -20q-12 119 -176 129q-43 4 -81 -8t-70 -38q-70 -57 -66 -143q4 -85 72 -129q59 -37 150 -37q231 0 435 222q155 172 279 424q45 97 102 198l78 -3q38 0 76 -9v-6q0 -17 -5.5 -33.5t-16.5 -30.5q-20 -29 -31 -45.5t-14 -22.5 q-27 -56 -27 -96q0 -79 69 -79q40 0 96 60q46 48 70 97q3 3 3 6q0 8 -9 8q-4 0 -9 -5q-96 -150 -150 -150q-9 0 -18 12q-9 22 11 74q16 45 41.5 95t63.5 107q-4 11 -20 24q-1 2 -3 4.5t-4 6.5q-8 3 -13 4.5t-7 2.5q-14 7 -22 9q-24 11 -48.5 13.5t-47.5 -1.5q-19 -4 -41 -1 q50 85 95.5 153t87.5 121q184 228 413 236q37 1 67 -7t53 -26q47 -40 49 -114q3 -70 -54 -113q-52 -42 -124 -43q-97 -4 -164 79l-12 20q13 -118 176 -129q91 -7 154 45q70 54 63 144z" />
<glyph unicode="e" horiz-adv-x="555" d="M1267 711q-6 122 -121 154q-53 32 -213 32q-71 0 -153 -9q-224 -21 -387 -173q-121 -113 -252 -352q-11 1 -22 1h-19q-102 0 -102 -66q0 -20 15 -33q18 49 63 56q7 1 18 1h26q-15 -26 -25 -45.5t-17 -33.5q-145 -307 -276 -476q-210 -265 -446 -273q-71 -2 -118 36 q-49 40 -51 111q-2 34 12.5 62t42.5 51q26 20 56.5 31t66.5 12q106 4 164 -79q10 -15 12 -20q-12 119 -176 129q-43 4 -81 -8t-70 -38q-70 -57 -66 -143q4 -85 72 -129q59 -37 150 -37q231 0 435 222q155 172 279 424q45 97 102 198q25 -3 43 -3.5t29 0.5q66 12 66 60 q0 19 -17 41q-11 -48 -58 -56q-19 -4 -41 -1q51 86 96 154t87 120q45 58 88.5 98.5t85.5 66.5q45 26 101.5 43.5t126.5 25.5q88 11 149 14.5t96 -2.5q-390 -6 -705 -646q-26 -51 -38.5 -92t-12.5 -72q0 -37 18 -55q15 -23 46 -23q38 0 95 63q21 25 38 49t29 47q5 3 5 6 q0 4 -5 6q-6 7 -13 -3q-72 -95 -78 -102q-39 -45 -65 -45q-25 0 -25 33q0 25 12 63q71 153 140 270.5t137 203.5q214 272 443 275q75 1 121 -36.5t50 -110.5q1 -69 -56 -114q-26 -20 -56.5 -30.5t-67.5 -11.5q-99 -5 -162 78q-2 3 -5.5 8t-8.5 13q13 -120 176 -129 q91 -7 154 45q70 54 63 144z" />
<glyph unicode="f" horiz-adv-x="645" d="M1294 715q-9 167 -220 167q-359 0 -651 -528q-11 1 -21.5 2t-19.5 1q-5 -2 -27 -2h-60h-60q-21 0 -27 2q50 85 95.5 153t87.5 121q193 240 413 248q-377 0 -663 -516q-11 1 -22 1h-19q-102 0 -102 -66q0 -20 15 -33q18 49 63 56q7 1 18 1h26q-15 -26 -25 -45.5t-17 -33.5 q-145 -307 -276 -476q-210 -265 -446 -273q-71 -2 -118 36q-49 40 -51 111q-2 34 12.5 62t42.5 51q26 20 56.5 31t66.5 12q106 4 164 -79q10 -15 12 -20q-12 119 -176 129q-43 4 -81 -8t-70 -38q-70 -57 -66 -143q4 -85 72 -129q59 -37 150 -37q231 0 435 222 q155 172 279 424q45 97 102 198q23 -3 46.5 -4.5t46.5 0.5l51 1h72q-17 -29 -27 -48t-15 -30q-72 -154 -140 -272t-136 -203q-220 -279 -444 -285q253 0 448 211q78 85 146.5 190.5t131.5 234.5q21 45 47 94.5t55 103.5q25 -4 43 -4.5t29 1.5q67 10 67 60q0 20 -18 40 q-11 -48 -58 -57q-21 -1 -41 0q50 85 96 153t89 122q181 229 411 235q75 3 120 -34q48 -40 51 -113q1 -69 -56 -114q-53 -39 -124 -42q-98 -5 -162 78l-14 21q14 -120 176 -129q91 -6 154 45q70 54 63 144z" />
<glyph unicode="g" horiz-adv-x="361" d="M1260 723q-12 166 -221 166q-66 0 -130 -18q-48 18 -117 18q-389 0 -651 -526l-2 -3q-188 -17 -192 -176q-2 -54 26 -54q18 0 18 53q-3 126 132 147q-17 -31 -28.5 -52t-16.5 -35q-156 -331 -299 -503q-32 78 -166 87q-36 2 -69 -5.5t-62 -27.5q-21 15 -50 23t-67 10 q-43 4 -81 -8t-70 -38q-70 -57 -66 -143q4 -85 72 -129q59 -37 150 -37q69 0 135 19q45 -19 112 -19q234 0 435 222q154 167 279 424q20 42 45 90t56 105q77 -14 141.5 -33.5t117.5 -45.5q7 -3 11 0q5 7 -11 16q-106 53 -249 83l14 24q44 75 86.5 141t87.5 123 q37 -81 165 -87q77 -5 133 30q44 -26 114 -30q92 -7 155 45q69 54 63 144zM367 322q-17 -30 -27 -49.5t-15 -29.5q-143 -308 -276 -476q-207 -265 -445 -273q-20 -1 -36 1t-30 7q304 114 546 616q21 45 46 94t56 104q2 8 9 17q44 0 86.5 -2.5t85.5 -8.5zM871 859 q-287 -106 -483 -496l-9 -18q-45 8 -86.5 11.5t-81.5 4.5q99 169 180 270q184 228 413 236q37 1 67 -8zM1222 720q2 -35 -12.5 -63t-42.5 -50q-26 -20 -56.5 -31t-68.5 -12q-50 -3 -90 18q68 52 60 141q-3 44 -19 76.5t-47 52.5q20 7 46.5 10t58.5 5q166 4 171 -147z M-536 -489q-21 -8 -48 -11.5t-60 -5.5q-71 -2 -118 36q-49 40 -51 111q-2 34 12.5 62t42.5 51q26 20 56.5 31t66.5 12q56 3 95 -18q-68 -56 -63 -141t67 -127zM973 720q3 -70 -54 -113l-3 -3q-17 24 -38 43.5t-47 36.5q-58 37 -108 37q45 43 92 73t97 47q59 -37 61 -121z M-318 -360q-90 -84 -185 -117q-60 41 -63 118q-1 70 57 113q6 -7 16 -18t25 -27q9 -7 9 -10v4q73 -63 141 -63zM-231 -272q-15 -17 -28.5 -31.5t-27.5 -28.5q-20 -6 -40 -6q-48 0 -95 38q-5 3 -19 17.5t-38 40.5q-7 10 -7 11q21 12 45.5 19.5t53.5 8.5q102 3 156 -69z M897 591q-36 -25 -102 -27q-93 -5 -155 69q25 33 54 60q21 6 38 6q52 0 93 -35l21 -21t51 -52z" />
<glyph unicode="i" horiz-adv-x="192" d="M214 154q0 8 -9 8q-4 0 -9 -5q-96 -150 -150 -150q-9 0 -18 12q-9 22 11 74q32 91 103 202q-4 15 -31 33q-26 18 -42 18q-7 0 -5 -3q4 -12 5 -23t1 -22q0 -17 -5.5 -33.5t-16.5 -30.5q-20 -29 -31 -45.5t-14 -22.5q-27 -56 -27 -96q0 -79 69 -79q40 0 96 60 q23 23 39.5 47.5t29.5 49.5q4 3 4 6z" />
<glyph unicode="k" d="M313 142l-10 8q-13 -63 -32 -96t-48 -38q-41 -6 -91 23q-57 31 -57 70q0 30 43 56q177 55 177 117q0 28 -31 43q-13 8 -26.5 11.5t-27.5 3.5q-28 0 -56 -14q44 80 87 146.5t86 121.5q213 270 444 273q73 1 119.5 -36.5t49.5 -110.5q2 -35 -12.5 -63t-42.5 -50 q-26 -20 -56.5 -31t-66.5 -12q-97 -7 -164 79q-5 7 -8 11.5t-5 8.5q14 -120 177 -129q86 -5 151 48q71 56 65 141q-9 166 -221 166q-394 0 -714 -646q-51 -102 -51 -164q0 -71 78 -72q-13 1 -22 14q-19 20 -5 76q12 -31 54 -61q55 -41 105 -41q54 0 80 50q7 13 31 97z M109 240q2 5 5 8.5t6 7.5q42 59 81 59q33 0 33 -29q0 -54 -158 -111q8 17 16.5 33t16.5 32z" />
<glyph unicode="l" d="M313 142l-10 8q-25 -140 -80 -134q-75 12 -75 66q0 36 38 83q30 50 45.5 84.5t15.5 56.5q0 34 -37 34q-28 0 -56 -14q44 80 87 146.5t86 121.5q213 270 444 273q73 1 119.5 -36.5t49.5 -110.5q2 -35 -12.5 -63t-42.5 -50q-26 -20 -56.5 -31t-66.5 -12q-97 -7 -164 79 q-5 7 -8 11.5t-5 8.5q14 -120 177 -129q86 -5 151 48q71 56 65 141q-9 166 -221 166q-394 0 -714 -646q-51 -102 -51 -164q0 -71 78 -72q-13 1 -22 14q-21 24 1 97q15 32 30 62.5t30 59.5q2 5 5 8.5t6 7.5q42 59 81 59q13 0 13 -9q0 -10 -30 -53q-64 -91 -64 -132 q0 -42 27 -81q27 -42 70 -42q50 0 71 50q5 23 11.5 47t13.5 47z" />
<glyph unicode="m" d="M910 723q-9 166 -220 166q-394 0 -714 -646q-26 -51 -38.5 -94.5t-12.5 -78.5q0 -72 76 -75q-31 5 -28 54q20 89 55 135q26 36 81 80q65 49 95 49q16 0 16 -12q0 -15 -21 -46q-29 -32 -55 -58.5t-50 -48.5q-8 -14 -13 -24t-6 -18v-18q0 -3 5.5 -17.5t16.5 -37.5 q21 -44 77 -44q69 0 162 144q5 9 -5 17q-7 7 -13 -3q-95 -136 -147 -131q-11 0 -28 11.5t-22 20.5l-22 40q-7 35 25 56q140 81 140 142q0 45 -54 45q-20 0 -45 -10t-56 -32q-21 -14 -40 -30t-33 -33q66 127 130 227.5t125 177.5q181 228 411 236q78 2 120 -33 q48 -40 51 -114q1 -69 -56 -113q-52 -42 -124 -43q-97 -4 -162 79q-5 7 -8.5 11.5t-5.5 8.5q13 -120 176 -129q87 -5 153 48q71 57 64 141z" />
<glyph unicode="o" horiz-adv-x="318" d="M300 250q0 90 -74 90q-54 0 -117 -61q-96 -95 -96 -200q0 -90 74 -90q59 0 118 62q95 97 95 199zM247 271q0 -44 -27 -111q-56 -144 -124 -144q-35 0 -35 50q0 46 19 93.5t56 98.5q45 57 81 57q30 0 30 -44z" />
<glyph unicode="q" horiz-adv-x="354" d="M389 58l-18 5l-116 -107q-59 -54 -96 -121q-18 -36 -18 -92q0 -21 4.5 -53t13.5 -74q18 -86 18 -129q0 -73 -72 -68q-109 9 -109 77q0 19 8 46.5t25 62.5l214 489q57 76 57 156q0 90 -73 90q-56 0 -117 -61q-96 -93 -96 -200q0 -90 73 -90q35 0 70 21l-179 -405 q-27 -51 -27 -91q0 -59 55 -87q23 -13 50 -18.5t60 -5.5q93 0 93 93q0 36 -14 112q-5 38 -8.5 65.5t-3.5 47.5q0 56 20 93q50 99 186 244zM248 271q0 -44 -27 -111q-57 -144 -125 -144q-34 0 -34 50q0 90 75 192q43 57 81 57q30 0 30 -44z" />
<glyph unicode="t" horiz-adv-x="208" d="M977 723q-12 166 -221 166q-356 0 -651 -526q-38 1 -54 0q-66 -12 -66 -65q0 -20 15 -33q20 55 83 57q-92 -171 -92 -243q0 -71 77 -72q-14 2 -23 14q-20 25 2 97q26 54 51.5 103.5t51.5 96.5q18 0 23 -2q27 -2 48 0q66 12 66 60q0 19 -17 41q-11 -51 -58 -57 q-23 -3 -39 -2q44 76 89 144t94 129q185 233 412 236q76 1 122 -36.5t48 -110.5q1 -70 -54 -113q-26 -20 -56.5 -31t-68.5 -12q-98 -5 -163 79q-2 2 -5.5 7t-6.5 13q13 -119 175 -129q92 -7 155 45q69 54 63 144z" />
<glyph unicode="u" horiz-adv-x="600" d="M175 102q-1 -8 -1 -16v-16q0 -72 75 -75q-30 5 -29 54q30 131 63 177l12 24q49 72 92 72q31 0 31 -46q0 -37 -27 -104q-27 -65 -27 -100q0 -20 9 -41q21 -42 60 -42q68 0 161 144q4 8 -3 17q-7 6 -14 -3q-26 -38 -43 -60.5t-26 -31.5q-48 -48 -73 -48q-21 0 -21 30 q0 45 37 135q18 45 18 86q0 88 -73 88q-27 0 -54 -13q14 25 27.5 48t27.5 46q127 86 330 122l302 54q130 36 130 120q-1 166 -222 166q-157 0 -303 -103q-103 -6 -186.5 -36t-147.5 -86q-50 -44 -107 -122.5t-123 -195.5q-19 2 -31.5 1t-20.5 -2q-66 -9 -66 -63 q0 -20 13 -33q22 55 83 55q-92 -171 -92 -241q0 -55 41 -69q8 -4 19 -5t27 -1q55 0 132 114zM702 787q118 77 249 80q36 1 66 -7t55 -28q56 -41 48 -112q-6 -65 -136 -93l-282 -56q-179 -36 -288 -118q73 118 141.5 198.5t132.5 126.5q43 2 99 -1.5t125 -8.5 q-59 8 -111.5 13t-98.5 6zM322 615q33 39 65 68t64 47q66 36 168 45q-209 -159 -396 -532q-11 -24 -20 -44.5t-14 -38.5l-2 -1q-90 -152 -145 -152q-39 0 -39 32q0 19 2 34.5t5 29.5q35 68 61 117t44 81l23 -1q7 -2 11 -2h7q97 -5 97 60q0 21 -16 42q-12 -50 -59 -57 q-11 -1 -21 -2t-19 1q43 75 88.5 142.5t95.5 130.5z" />
<glyph unicode="&#xb6;" horiz-adv-x="1378" d="M582 106q0 -7 -30 -39q3 -3 3 -16q-20 1 -29 -3q2 -2 2 -20q-1 4 -5 6q-3 -5 -5 -10.5t-4 -8.5q-5 6 -9 6t-9 -5q3 -6 3 -13q0 -10 -4 -18q-17 0 -20 -5q3 -19 -6 -31q-6 0 -16 10q-18 -26 -27 -30q1 2 2 2.5t1 2.5q0 4 -6 9q-8 -8 -12 -9q0 5 -1 9t-2 6q-8 -5 -12 -5v48 q5 6 10.5 9.5t8.5 5.5q-7 7 -10 11t-5 6q18 16 29 16l1 42q-5 4 -8.5 7.5t-3.5 11.5q0 -4 6 -5q5 5 5 7q0 5 -6 8q6 4 6 15q0 7 -2 12q4 7 7.5 12t6.5 9l-2 10q-2 9 12 15q-7 6 -10 10.5t-5 6.5q19 8 24 13q-13 4 -13 14q0 8 10 24q4 0 9 -6q0 33 6 47q-23 -17 -41 -26.5 t-29 -13.5q-8 -1 -25 -2t-44 -1q-170 -2 -290 -180q-19 -37 -31.5 -65t-20.5 -47q-14 -17 -25 -29.5t-20 -23.5q9 -2 12 0q26 41 43.5 70t28.5 46q100 177 211 204q106 15 161 18q14 3 26.5 7t22.5 8q0 -1 -3.5 -6t-7 -11.5t-7 -12.5t-3.5 -9q0 -6 8 -6q-9 -24 -15 -42.5 t-9 -32.5q1 -5 1 -9q0 -3 2 -5q-8 -9 -11 -9q-1 -40 0 -60q0 -5 -3.5 -13.5t-7.5 -18t-7.5 -19t-3.5 -16.5q0 1 9 -48q15 -21 31 -21l60 31q3 12 3 20q12 6 18 6q4 7 5 13.5t3 11.5q7 5 12 7l10 4l8 24l25 25t17 20q1 -2 1 -14q-1 3 -18 -64q-4 -60 -15 -71v-19q6 7 11 22.5 t10 38.5q6 24 9.5 37.5t7.5 16.5q1 27 6 33q19 -44 33 -64q0 -21 10 -42q12 -26 29 -26q11 0 22 17v46t2 35l6 6q0 18 -6.5 44t-19.5 61q43 18 93 18q20 0 36 -3.5t29 -8.5q22 -21 36 -36q43 -33 72 -33q21 0 81 43q37 27 37 38v0q0 1 -1 2q6 -2 12 -4.5t9 -2.5q10 0 24.5 9 t14.5 18q2 25 -5 41q13 14 21 19q4 15 5 27t3 20q11 16 21 24q38 -30 58 -35q3 -1 36 -1q95 0 95 72q0 63 -98 102q-17 5 -48 8.5t-78 3.5q-11 42 -19 58q-3 2 4 9q11 -10 18.5 -18t14.5 -13l44 7q-22 16 -33 51q-11 41 -18 51q-5 8 -12.5 11.5t-17.5 5.5q-40 121 -186 121 q-122 0 -197 -54q-94 -71 -120 -153q-14 15 -31 15q-8 -6 -11 -6q0 -5 2.5 -14t5 -19.5t5 -19.5t2.5 -14q0 -2 -3.5 -8t-7 -12.5t-7 -12.5t-3.5 -9q0 -22 26 -53l40 -46q-32 -27 -43 -27q-7 0 -11 6l-3 6q-5 1 -17 1h-34q-3 0 -40 -25q0 -19 9 -35q2 7 3 14t3 15q6 22 19 22 l54 -13q-8 0 -18.5 1.5t-18.5 1.5q-20 -37 -20 -56q0 -54 54 -112q23 -26 23 -29zM1341 345q0 -68 -90 -68q-6 0 -20 5.5t-37 15.5q-30 13 -30 18l2 2q-10 -1 -27 -3t-26 -2q-2 0 -7.5 3.5t-12 7t-12.5 7t-9 3.5v23q20 7 34 11t22 5q-8 5 -23 5q-38 0 -117 -78 q-37 -27 -112 -47q1 2 2 4.5t1 4.5q-2 6 -5 6l-15 -13v-14q3 -2 12 -9q4 -6 9 -6q0 5 -2 11.5t-2 8.5q82 2 124 46q-2 -16 14 -34q8 7 12.5 11.5l6.5 6.5v6h-13q-9 -9 -14 -9q-1 8 -2 13.5t-2 7.5q24 24 37 24q9 0 24.5 -3t23.5 -3q0 -14 -7 -14q-14 0 -3 -7q2 -5 12 -5 q1 2 1 4t2 5q1 3 9 3q9 0 12 -9q-13 0 -9 -13q5 -8 7 -8q3 3 3 14q9 -9 9 -20q0 -30 -36 -30q-43 0 -112 36q-9 -11 -9 -22q0 -7 4 -14q2 0 7 7.5t10 7.5q8 0 22.5 -4t35.5 -12q23 -8 37.5 -14t19.5 -12v-33q-12 -12 -25 -12q-16 0 -33 20q-11 12 -17 18.5t-7 8.5l-8 -4 t-6 -5l3.5 -14t1.5 -12q0 -13 -8 -21q-3 11 -6 18.5t-4 13.5q-2 -2 -4 -2.5t-4 -2.5v-18q0 -19 -15 -27q15 -2 36 14v-18q-2 -8 -9.5 -15.5t-17 -14t-19.5 -10.5t-17 -4q-41 0 -81 48q-27 33 -43 51.5t-21 22.5q-7 -8 -18.5 -14t-28.5 -12q-8 -3 -20.5 -6.5t-31.5 -6.5 q8 14 14 23.5t11 16.5q-9 0 -39 -30q-15 -18 -22 -18q-8 0 -38 36q-1 -1 -2 -1h-1v-8q0 -7 30 -40q-27 0 -57 -32q-73 58 -73 126q0 15 1 26t5 19q31 4 90 27q14 20 24 20q3 0 11 -3.5t19 -8.5q24 -12 28 -12q5 0 8.5 4.5t6.5 4.5q10 0 48 -18q-2 -5 2 -9t10.5 -7t14 -5 t12.5 -2q19 0 33 23h-6q-10 -6 -16 -8.5t-9 -3.5q-5 0 -13 3t-11 3q-3 22 -45 76q-42 51 -42 79q2 -2 18 82q0 -30 1 -32q6 0 18 7.5t17 7.5l9 -10q12 -15 20.5 -24.5t13.5 -14.5q0 -21 -40 -48q22 -13 27 -30q1 -4 2 -14t2 -27q9 -7 17 -11.5t13 -7.5q12 15 19 23.5t9 10.5 l-8 6q-11 -10 -17.5 -16t-9.5 -8q-7 0 -14 6q3 9 3 18q-1 2 -5.5 16t-13.5 40q6 4 16 22l6 -4q6 -6 12 -6q1 0 12 7v30q-1 2 -6.5 13.5t-15.5 33.5q22 -13 30 -50q1 -3 2.5 -18t4.5 -43l36 -42q22 -29 39 -29q9 0 15 9q-45 120 -45 140v58q11 -2 17.5 -3t11.5 -3 q14 -35 20.5 -54t7.5 -21q26 -52 99 -52q-1 0 -1 -3v-8h-51q-20 0 -48 27q-24 19 -33 32q-3 -3 -3 -11q0 -24 52 -45q39 -15 59 -15q28 0 31 3q15 25 22.5 38.5t9.5 15.5q15 -4 46 0q14 2 23 2.5t15 2.5q63 0 115 -23q68 -27 68 -82zM1093 636q0 -8 -7 -15q-6 0 -15.5 -3.5 t-23.5 -8.5q-30 -12 -39 -12h-15q-9 19 -23 19q-25 0 -31 -39q-35 -12 -61 -21t-43 -15q11 7 11 20q0 30 -29 30q-12 0 -20 -14t-8 -27q-28 11 -44 11q-30 0 -40 -15q-9 30 -29 30q-3 0 -10.5 -4.5t-17.5 -13.5v-20q19 -18 28 -18q10 0 15 5q0 -15 -4 -15q-14 0 -29.5 -1.5 t-35.5 -3.5q0 5 -2 13.5t-2 13.5q0 6 3.5 18t11.5 30q18 41 33 41q3 0 10 -2.5t12 -2.5q30 0 30 30q0 7 -9 18q83 56 105 51q-6 -6 -6 -19q0 -35 29 -35q28 0 28 33q0 16 -16 30q51 14 64 14q15 0 75 -18q5 -23 26 -23q5 0 12 2.5t10 2.5q10 0 33 -27q13 -14 18.5 -24 t5.5 -15zM763 319q-9 -6 -12 -6l-1 5q-17 4 -14 7q-3 4 -6.5 6.5t-6.5 4.5l-2 7q-4 -4 -18 -4q0 -11 -7 -21q0 9 -5 9q-23 0 -37.5 17.5t-14.5 39.5q-6 -4 -12.5 -8.5t-11.5 -12.5q-42 41 -42 76v9q38 44 48 45q19 4 34 5t27 1v-90zM1165 501q-1 0 -9 4.5t-13 4.5 q-2 0 -8 4.5t-12.5 10.5t-12.5 10.5t-8 4.5q-4 0 -4 -6t3 -15q-2 1 -6 1h-23q-3 0 -9 5t-12.5 11.5t-12.5 12t-8 7.5q-10 -10 -24 -10q-5 0 -11 2t-11 2q-23 9 -36 8q-5 2 -8 3t-4 3h5t8 1h14q12 0 12 6q34 14 60 14v4q-4 6 19 6q5 0 6 3t6 3t17 7.5t18 7.5q9 0 19.5 -9.5 t11.5 -18.5q1 -4 3.5 -12t5 -17t4.5 -17.5t2 -13.5v-5l3 3q6 0 15 -25zM682 -56q-5 0 -12.5 -3t-11.5 -3q0 2 -3.5 7.5t-7 11.5t-7 11.5t-3.5 8.5q0 6 4 9t2 5q0 3 -2.5 7l-5 8t-5 7l-2.5 3h-6q3 4 3 8q0 10 -12 18v37q28 -4 39 39q-2 3 -6 0q-5 -2 -18.5 -4t-24.5 -2 q41 29 52 29q8 0 11 -14q11 -26 13 -22q-6 -17 -4 -21l3 -2q4 -1 4 -9v-129zM1042 472q-25 -11 -25 -31q0 -5 9 -15h-27q-10 0 -20.5 8t-19 19t-14 24t-5.5 22q0 6 3.5 15t8.5 21q58 -38 90 -63zM1107 472q0 -10 -12 -22q-8 5 -27.5 19t-52.5 39q-45 35 -67 41l18 1 q3 0 8.5 -2.5t12 -5t12 -5t7.5 -2.5q5 0 9 2.5t9 2.5q8 0 33 -17q38 -24 44 -25q6 -21 6 -26zM906 366q-6 -4 -9.5 -5t-5.5 -3q1 7 -15 24q-14 15 -20.5 23.5t-8.5 9.5q2 11 2.5 18t2.5 12q-9 47 -32 72q26 14 27 14q12 0 21 9q-1 -9 -1 -18v-18q0 -87 39 -138zM795 616v24 q-22 17 -29 17q-10 0 -27 -17v-24q18 -15 27 -15q11 0 29 15zM1057 633v24q-20 15 -27 15q-13 0 -28 -17v-24q18 -15 28 -15q8 0 27 17zM966 673v24q-19 15 -27 15q-10 0 -29 -16v-24q19 -15 29 -15q8 0 27 16zM916 616v24q-23 17 -28 17q-12 0 -27 -17v-24q18 -15 27 -15 q10 0 28 15zM850 -81q4 29 -6 60.5t-31 66.5q-36 57 -92 101q-6 -8 -12 -8q50 -32 79 -67t40 -71l4 -16q12 -39 18 -66zM612 511q-11 0 -17 -6q-8 0 -15.5 6t-12.5 18q3 -3 27 -13q6 4 3 7q0 3 15 -12zM780 535q-36 14 -51 14l6 3q3 1 5.5 2t4.5 1q11 0 35 -20zM1062 253 q0 6 -18 24q-2 -5 -3 -8t-3 -5q1 0 9.5 -5.5t14.5 -5.5zM969 142l-8 23h-7l6 -23h9zM850 277l-3 8l-18 -9l3 -8zM1011 439l-17 12l-4 -6l16 -13zM1062 448q-9 -7 -18 -7v18q10 -11 18 -11zM945 312h-20q3 -9 8 -14l7.5 9t4.5 5zM930 321q-9 6 -14 6q0 -5 -3 -10t-3 -7z M943 118l-9 3l-4 -19h6zM876 337l-12 12l-6 -4l13 -14zM888 201q-8 -10 -8 -14q17 0 19 -1q-10 11 -11 15zM930 553h-14v9h14v-9zM1102 264l-12 10q-1 2 -1 -16q8 1 13 6zM498 3l-8 3l-6 -15h8zM909 151q-4 -4 -9 -4q-4 0 -6 1q8 -7 13.5 -11.5t7.5 -8.5q-6 13 -6 23z M985 115v6l-12 8l-3 -9zM874 282v6l-12 7l-3 -9zM1068 292l-3 8l-12 -8l1 -6zM472 -39v13h-7v-13h7zM882 171q-4 -6 -5 -9.5t-3 -7.5q7 -6 5 -12q1 2 1 18q0 9 5 9q-2 2 -3 2zM1011 459q-2 3 -3 5.5t-2 4.5v-1q0 -5 -5 -5q6 -2 10 -4zM1147 523l-4 -3q0 -1 1 -1q3 0 3 4z M442 160l-1 -1v-1q1 0 1 2zM1005 472q0 -1 0.5 -1.5t0.5 -1.5q-1 1 -1 3zM887 168q-1 0 -2 1q1 0 1 -1h1z" />
<glyph unicode="&#x2000;" horiz-adv-x="452" />
<glyph unicode="&#x2001;" horiz-adv-x="904" />
<glyph unicode="&#x2002;" horiz-adv-x="452" />
<glyph unicode="&#x2003;" horiz-adv-x="904" />
<glyph unicode="&#x2004;" horiz-adv-x="301" />
<glyph unicode="&#x2005;" horiz-adv-x="226" />
<glyph unicode="&#x2006;" horiz-adv-x="150" />
<glyph unicode="&#x2007;" horiz-adv-x="150" />
<glyph unicode="&#x2008;" horiz-adv-x="113" />
<glyph unicode="&#x2009;" horiz-adv-x="180" />
<glyph unicode="&#x200a;" horiz-adv-x="50" />
<glyph unicode="&#x202f;" horiz-adv-x="180" />
<glyph unicode="&#x205f;" horiz-adv-x="226" />
<glyph unicode="&#xe000;" horiz-adv-x="500" d="M0 0v0v0v0v0z" />
</font>
</defs>
</svg>
