<?xml version="1.0" standalone="no"?>
<!DOCTYPE svg PUBLIC "-//W3C//DTD SVG 1.1//EN" "http://www.w3.org/Graphics/SVG/1.1/DTD/svg11.dtd" >
<svg xmlns="http://www.w3.org/2000/svg">
<metadata></metadata>
<defs>
<font id="cherry_swashbold" horiz-adv-x="580" >
<font-face units-per-em="1000" ascent="800" descent="-200" />
<missing-glyph horiz-adv-x="310" />
<glyph horiz-adv-x="1000" />
<glyph horiz-adv-x="1000" />
<glyph unicode="&#xd;" horiz-adv-x="1000" />
<glyph unicode=" "  horiz-adv-x="310" />
<glyph unicode="&#x09;" horiz-adv-x="310" />
<glyph unicode="&#xa0;" horiz-adv-x="310" />
<glyph unicode="!" horiz-adv-x="360" d="M108 801h150l-20 -600h-110zM109 63q0 31 21.5 52.5t51.5 21.5q31 0 52.5 -21.5t21.5 -52.5q0 -30 -21.5 -51.5t-52.5 -21.5q-30 0 -51.5 21.5t-21.5 51.5z" />
<glyph unicode="&#x22;" horiz-adv-x="450" d="M60 700h135l-15 -228h-106zM255 700h135l-15 -228h-106z" />
<glyph unicode="#" horiz-adv-x="686" d="M60 160l21 98h96q4 23 11 60t10 57h-116l21 98h112l28 157h101l-28 -157h110l28 157h101l-28 -157h99l-12 -98h-104q-4 -23 -11 -60t-10 -57h115l-12 -98h-120l-24 -140h-101l24 140h-110l-24 -140h-101l24 140h-100zM278 258h110q4 23 11 60t10 57h-110z" />
<glyph unicode="$" horiz-adv-x="565" d="M36 63v180h115v-91q52 -20 111 -20q66 0 106 23t40 55q0 13 -7.5 24.5t-24 21.5t-31 17t-40 18.5t-40.5 18.5q-12 6 -43 20.5t-45 22.5t-39.5 22.5t-38 27t-27.5 30.5t-21 38.5t-6 44.5q0 67 48.5 112t130.5 60v81h115v-73q112 -8 173 -40v-179h-115v88q-31 12 -96 12 q-55 0 -91 -16.5t-36 -46.5q0 -6 1.5 -10.5t5.5 -9.5t8 -9t13 -9t16.5 -9t21 -10t24.5 -11t30 -13t34 -15q115 -52 163 -100.5t48 -116.5q0 -80 -53.5 -126t-146.5 -59v-77h-115v74q-110 7 -188 50z" />
<glyph unicode="%" horiz-adv-x="895" d="M18 520q0 77 47 128.5t130 51.5t130 -51.5t47 -128.5q0 -78 -47 -129t-130 -51t-130 51t-47 129zM139 520q0 -30 15 -49t41 -19t40.5 19t14.5 49t-14.5 48.5t-40.5 18.5t-41 -19t-15 -48zM249 -22l272 723h115l-272 -723h-115zM520 176q0 77 47 128.5t130 51.5t130 -51.5 t47 -128.5q0 -78 -47 -129t-130 -51t-130 51t-47 129zM641 176q0 -30 15 -49t41 -19t40.5 19t14.5 49t-14.5 48.5t-40.5 18.5t-41 -19t-15 -48z" />
<glyph unicode="&#x26;" horiz-adv-x="726" d="M16 183q0 108 133 213q-59 84 -59 164q0 67 44.5 114.5t133.5 47.5q91 0 139 -42.5t48 -106.5q0 -60 -33.5 -103t-108.5 -98q72 -91 143 -161q31 40 54 95h-45v103h225v-103h-55q-27 -98 -91 -177q80 -67 146 -99l-65 -100q-79 44 -166 119q-89 -61 -203 -61 q-105 0 -172.5 49.5t-67.5 145.5zM151 183q0 -36 30 -55t77 -19q61 0 109 25q-86 86 -147 168q-69 -60 -69 -119zM219 556q0 -50 27 -90q42 22 60.5 48t18.5 48q0 20 -14.5 32t-36.5 12q-24 0 -39.5 -15.5t-15.5 -34.5z" />
<glyph unicode="'" horiz-adv-x="255" d="M60 700h135l-15 -228h-106z" />
<glyph unicode="(" horiz-adv-x="329" d="M60 297q0 90 18 174.5t47 148t53.5 104t49.5 71.5l88 -62q-26 -36 -51 -82.5t-52 -146t-27 -206.5q0 -108 27 -208t52 -146.5t51 -82.5l-88 -62q-25 31 -49.5 71.5t-53.5 104t-47 148t-18 174.5z" />
<glyph unicode=")" horiz-adv-x="331" d="M15 -139q26 36 51 82.5t52 146.5t27 208q0 107 -27 206.5t-52 146t-51 82.5l88 62q25 -31 49.5 -71.5t53.5 -104t47 -148t18 -174.5t-18 -174.5t-47 -148t-53.5 -104t-49.5 -71.5z" />
<glyph unicode="*" horiz-adv-x="443" d="M49 537l40 127l85 -48l-20 94h135l-19 -94q68 36 83 45l44 -127l-100 -11q11 -10 35 -33t34 -32l-103 -79l-43 89q-8 -17 -22 -47t-19 -40l-107 76l71 68q-75 9 -94 12z" />
<glyph unicode="+" horiz-adv-x="550" d="M60 231v117h155v156h120v-156h155v-117h-155v-157h-120v157h-155z" />
<glyph unicode="," horiz-adv-x="284" d="M70 -136q49 61 54 115q-24 9 -37 31t-13 40q0 31 21 50.5t54 19.5q30 0 52 -20.5t22 -63.5q0 -38 -27.5 -101t-68.5 -106z" />
<glyph unicode="-" horiz-adv-x="430" d="M60 231v117h310v-117h-310z" />
<glyph unicode="." horiz-adv-x="275" d="M70 63q0 31 21.5 52.5t51.5 21.5q31 0 52.5 -21.5t21.5 -52.5q0 -30 -21.5 -51.5t-52.5 -21.5q-30 0 -51.5 21.5t-21.5 51.5z" />
<glyph unicode="/" horiz-adv-x="420" d="M10 -30l290 730h110l-290 -730h-110z" />
<glyph unicode="0" horiz-adv-x="600" d="M24 280q0 126 73.5 208t202.5 82t202.5 -82t73.5 -208t-73.5 -208t-202.5 -82t-202.5 82t-73.5 208zM159 280q0 -74 38.5 -122t103.5 -48q64 0 102 48t38 122t-38.5 122t-103.5 48q-64 0 -102 -48t-38 -122z" />
<glyph unicode="1" horiz-adv-x="487" d="M44 475l266 95v-450h127v-120h-382v120h125v286l-110 -23z" />
<glyph unicode="2" horiz-adv-x="561" d="M47 340v179q77 41 198 41q249 0 249 -181q0 -69 -59.5 -141t-154.5 -134l2 -3l118 14l2 35h115l-9 -150h-454v100q4 2 34.5 18t53 29.5t58 35.5t61.5 43.5t51.5 46.5t39 52t13.5 53q0 62 -117 62q-47 0 -86 -17v-83h-115z" />
<glyph unicode="3" horiz-adv-x="552" d="M17 -139l48 111q79 -32 174 -32q63 0 104.5 22.5t41.5 72.5q0 54 -41.5 78t-104.5 24h-77v120h60q62 0 104 24t42 73q0 85 -126 85q-46 0 -69 -7v-87h-115v186q105 28 187 28q71 0 125.5 -17t90.5 -57.5t36 -101.5q0 -131 -114 -181q60 -17 95.5 -60.5t35.5 -105.5 q0 -109 -77 -162.5t-195 -53.5q-137 0 -225 41z" />
<glyph unicode="4" horiz-adv-x="588" d="M22 21v120l313 419h129v-419h108v-120h-108v-70h77v-120h-284v120h77v70h-312zM172 141h163v219z" />
<glyph unicode="5" horiz-adv-x="554" d="M20 -138l48 111q29 -14 76 -23t84 -9q64 0 107 31t43 95q0 58 -35.5 84.5t-88.5 26.5q-45 0 -93 -28l-98 24l60 386h370v-194h-115v74h-152l-25 -153q33 11 71 11q103 0 169 -57t66 -172q0 -64 -22 -112.5t-60.5 -77.5t-87 -43.5t-104.5 -14.5q-128 0 -213 41z" />
<glyph unicode="6" horiz-adv-x="537" d="M40 309q0 92 14.5 162.5t47.5 125.5t91 84t140 29q70 0 155 -34l-40 -109q-71 23 -115 23q-77 0 -113.5 -45t-45.5 -138q47 26 112 26q105 0 167.5 -58t62.5 -163q0 -95 -60 -158.5t-171 -63.5q-65 0 -114 27t-76.5 73.5t-41 101t-13.5 117.5zM170 287q2 -47 12 -84 t36.5 -65t67.5 -28q53 0 76.5 27t23.5 70q0 48 -30.5 77t-88.5 29q-56 0 -97 -26z" />
<glyph unicode="7" horiz-adv-x="514" d="M37 360v199h442v-119q0 -36 -21.5 -88t-52.5 -109.5t-61.5 -120.5t-52 -140.5t-21.5 -151.5h-125q0 87 24 175t54.5 150t70.5 144.5t60 139.5h-202v-79h-115z" />
<glyph unicode="8" horiz-adv-x="563" d="M40 189q0 104 111 184q-80 54 -80 147q0 87 62 138.5t149 51.5t149 -51.5t62 -136.5q0 -50 -22 -86t-66 -78q57 -31 88 -71t31 -99q0 -84 -62 -141t-180 -57t-180 57t-62 142zM170 197q0 -87 110 -87q114 0 114 79q0 42 -36 68.5t-125 58.5q-63 -44 -63 -119zM201 517 q0 -26 11.5 -46t34.5 -32.5t37.5 -18t40.5 -12.5q38 49 38 105q0 77 -80 77q-38 0 -60 -18.5t-22 -54.5z" />
<glyph unicode="9" horiz-adv-x="537" d="M25 338q0 95 60 158.5t171 63.5q65 0 114 -28.5t76.5 -77t41 -106t13.5 -122.5q0 -92 -14.5 -162.5t-47.5 -125.5t-91 -84t-140 -29q-66 0 -155 34l40 109q71 -23 115 -23q77 0 113.5 45t45.5 138q-47 -26 -112 -26q-105 0 -167.5 62t-62.5 174zM155 343q0 -55 30.5 -88 t88.5 -33q59 0 97 26q-1 37 -7.5 69t-19 61t-35.5 45.5t-54 16.5q-53 0 -76.5 -27t-23.5 -70z" />
<glyph unicode=":" horiz-adv-x="277" d="M70 63q0 31 21.5 52.5t51.5 21.5q31 0 52.5 -21.5t21.5 -52.5q0 -30 -21.5 -51.5t-52.5 -21.5q-30 0 -51.5 21.5t-21.5 51.5zM70 346q0 31 21.5 52.5t51.5 21.5q31 0 52.5 -21.5t21.5 -52.5q0 -30 -21.5 -51.5t-52.5 -21.5q-30 0 -51.5 21.5t-21.5 51.5z" />
<glyph unicode=";" horiz-adv-x="283" d="M70 -136q49 61 54 115q-24 9 -37 31t-13 40q0 31 21 50.5t54 19.5q30 0 52 -20.5t22 -63.5q0 -38 -27.5 -101t-68.5 -106zM74 346q0 31 21.5 52.5t51.5 21.5q31 0 52.5 -21.5t21.5 -52.5q0 -30 -21.5 -51.5t-52.5 -21.5q-30 0 -51.5 21.5t-21.5 51.5z" />
<glyph unicode="&#x3c;" horiz-adv-x="618" d="M79 242v91l468 235v-146l-279 -134l279 -137v-146z" />
<glyph unicode="=" horiz-adv-x="550" d="M60 125v117h430v-117h-430zM60 326v117h430v-117h-430z" />
<glyph unicode="&#x3e;" horiz-adv-x="618" d="M79 5v146l279 137l-279 134v146l468 -235v-91z" />
<glyph unicode="?" d="M55 490v179q77 41 198 41q249 0 249 -201q0 -84 -48 -132t-134 -85v-91h-116v162q40 14 64.5 25t51.5 28.5t40 40t13 51.5q0 82 -117 82q-52 0 -86 -12v-88h-115zM192 63q0 31 21.5 52.5t51.5 21.5q31 0 52.5 -21.5t21.5 -52.5q0 -30 -21.5 -51.5t-52.5 -21.5 q-30 0 -51.5 21.5t-21.5 51.5z" />
<glyph unicode="@" horiz-adv-x="1214" d="M50 220q0 131 47.5 241t124 179.5t170 108t188.5 38.5q104 0 195.5 -33.5t152 -103t60.5 -160.5q0 -74 -44 -127.5t-110 -53.5q-40 0 -79 21l-25 -202h76l-14 -87q-56 -32 -117 -32q-25 0 -45.5 15.5t-24.5 35.5q-63 -56 -138 -56q-88 0 -132 56.5t-44 155.5 q0 136 80 231.5t223 95.5q82 0 193 -36l-4 -52q4 -21 16 -21q27 0 37.5 21t10.5 42q0 66 -83 108t-187 42q-73 0 -142 -29.5t-123.5 -82.5t-87.5 -133.5t-33 -174.5q0 -148 89 -234t256 -86q133 0 240.5 42t177 115t106.5 168t37 203q0 181 -126.5 282.5t-343.5 120.5 l22 140q272 -18 431 -165.5t159 -376.5q0 -131 -49.5 -251t-138 -213.5t-224 -149t-295.5 -55.5q-229 0 -355.5 122t-126.5 331zM430 229q0 -96 63 -96q45 0 76 32t41 91l24 151q-22 7 -48 7q-73 0 -114.5 -54.5t-41.5 -130.5z" />
<glyph unicode="A" horiz-adv-x="897" d="M-45 456q0 114 114 179t365 65h274v-120h-59l182 -460h66v-120h-257v120h59l-21 56h-262l-21 -56h60v-120h-257v120h65l181 460h-10q-201 0 -277.5 -28t-76.5 -96q0 -54 51 -54q47 0 47 64h125q0 -78 -41 -131t-132 -53q-89 0 -132 51t-43 123zM457 286h179l-89 238z" />
<glyph unicode="B" horiz-adv-x="904" d="M-45 466q0 114 107 179t342 65h45q383 0 383 -204q0 -102 -95 -144q58 -20 92 -65.5t34 -109.5q0 -86 -69 -141.5t-200 -55.5q-22 0 -102 5t-128 5h-112v120h97v469q-150 -4 -209.5 -32.5t-59.5 -90.5q0 -54 51 -54q47 0 47 64h125q0 -77 -41 -130.5t-132 -53.5 q-89 0 -132 51t-43 123zM479 117q100 -7 130 -7q50 0 79.5 25t29.5 70q0 40 -30 61t-79 21h-90v120h79q38 0 63.5 22t25.5 62q0 51 -47 75t-161 24v-473z" />
<glyph unicode="C" horiz-adv-x="645" d="M35 348q0 159 90 260.5t245 101.5q97 0 169.5 -60t72.5 -155q0 -72 -43 -123t-132 -51q-91 0 -132 53.5t-41 130.5h125q0 -64 47 -64q36 0 36 54q0 40 -31 65t-71 25q-91 0 -145.5 -66.5t-54.5 -168.5t54.5 -168.5t145.5 -66.5q103 0 185 86l76 -95q-93 -116 -261 -116 q-155 0 -245 99.5t-90 258.5z" />
<glyph unicode="D" horiz-adv-x="922" d="M-45 456q0 114 107 179t342 65h45q213 0 325.5 -102.5t112.5 -277.5q0 -52 -9.5 -98t-33 -89t-59 -74.5t-91 -50t-125.5 -18.5q-20 0 -98.5 5t-106.5 5h-103v120h88v459q-150 -4 -209.5 -32.5t-59.5 -90.5q0 -54 51 -54q47 0 47 64h125q0 -77 -41 -130.5t-132 -53.5 q-89 0 -132 51t-43 123zM479 116q68 -6 90 -6q52 0 89.5 18.5t57 50t28 66.5t8.5 75q0 124 -69.5 192t-203.5 68v-464z" />
<glyph unicode="E" horiz-adv-x="855" d="M-45 456q0 114 107 179t342 65h410v-205h-115v85h-220v-174h78v60h115v-240h-115v60h-78v-166h229v85h115v-205h-571v120h97v459q-150 -4 -209.5 -32.5t-59.5 -90.5q0 -54 51 -54q47 0 47 64h125q0 -77 -41 -130.5t-132 -53.5q-89 0 -132 51t-43 123z" />
<glyph unicode="F" horiz-adv-x="818" d="M-45 456q0 114 107 179t342 65h410v-205h-115v85h-220v-174h78v60h115v-240h-115v60h-78v-166h92v-120h-319v120h97v459q-150 -4 -209.5 -32.5t-59.5 -90.5q0 -54 51 -54q47 0 47 64h125q0 -77 -41 -130.5t-132 -53.5q-89 0 -132 51t-43 123z" />
<glyph unicode="G" horiz-adv-x="705" d="M35 348q0 159 90 260.5t245 101.5q97 0 169.5 -56t72.5 -144q0 -66 -39.5 -112.5t-120.5 -46.5q-91 0 -132 44.5t-41 109.5h125q0 -34 32 -34q36 0 36 39q0 33 -31 54t-71 21q-91 0 -145.5 -66.5t-54.5 -168.5t54.5 -168.5t145.5 -66.5q77 0 135 65h-169v120h299v-300 h-107l-14 44q-68 -54 -159 -54q-149 0 -234.5 99.5t-85.5 258.5z" />
<glyph unicode="H" horiz-adv-x="994" d="M-45 456q0 114 107 179t342 65h162v-120h-87v-172h268v172h-87v120h314v-120h-97v-460h97v-120h-314v120h87v168h-268v-168h87v-120h-314v120h97v459q-150 -4 -209.5 -32.5t-59.5 -90.5q0 -54 51 -54q47 0 47 64h125q0 -77 -41 -130.5t-132 -53.5q-89 0 -132 51t-43 123z " />
<glyph unicode="I" horiz-adv-x="600" d="M-45 456q0 114 107 179t342 65h172v-120h-97v-460h97v-120h-315v120h88v459q-150 -4 -209.5 -32.5t-59.5 -90.5q0 -54 51 -54q47 0 47 64h125q0 -77 -41 -130.5t-132 -53.5q-89 0 -132 51t-43 123z" />
<glyph unicode="J" horiz-adv-x="600" d="M-45 456q0 114 107 179t342 65h172v-120h-97v-480q0 -121 -66 -190.5t-193 -69.5v115q62 0 95.5 38t33.5 107v479q-150 -4 -209.5 -32.5t-59.5 -90.5q0 -54 51 -54q47 0 47 64h125q0 -77 -41 -130.5t-132 -53.5q-89 0 -132 51t-43 123z" />
<glyph unicode="K" horiz-adv-x="968" d="M-45 456q0 114 107 179t342 65h126v-120h-51v-180l57 36l118 144h-39v120h276v-120h-78l-182 -213l99 -207q29 -51 68 -51q30 0 40.5 14.5t10.5 46.5h120q0 -95 -42 -138t-122 -43q-119 0 -188 122l-83 172l-55 -23v-140h67v-120h-294v120h97v459q-150 -4 -209.5 -32.5 t-59.5 -90.5q0 -54 51 -54q47 0 47 64h125q0 -77 -41 -130.5t-132 -53.5q-89 0 -132 51t-43 123z" />
<glyph unicode="L" horiz-adv-x="839" d="M-45 456q0 114 107 179t342 65h147v-120h-72v-460h219v85h115v-205h-561v120h97v459q-150 -4 -209.5 -32.5t-59.5 -90.5q0 -54 51 -54q47 0 47 64h125q0 -77 -41 -130.5t-132 -53.5q-89 0 -132 51t-43 123z" />
<glyph unicode="M" horiz-adv-x="1110" d="M-45 456q0 114 107 179t342 65h90l177 -431l177 431h242v-120h-97v-475h97v-105h-299v105h72v316l-142 -361h-100l-142 361v-316h72v-105h-299v105h97v474q-150 -4 -209.5 -32.5t-59.5 -90.5q0 -54 51 -54q47 0 47 64h125q0 -77 -41 -130.5t-132 -53.5q-89 0 -132 51 t-43 123z" />
<glyph unicode="N" horiz-adv-x="1009" d="M-45 456q0 114 107 179t342 65h77l291 -467v347h-87v120h314v-120h-97v-580h-123l-300 479v-359h87v-120h-314v120h97v459q-150 -4 -209.5 -32.5t-59.5 -90.5q0 -54 51 -54q47 0 47 64h125q0 -77 -41 -130.5t-132 -53.5q-89 0 -132 51t-43 123z" />
<glyph unicode="O" horiz-adv-x="740" d="M35 350q0 157 91 258.5t244 101.5q154 0 244.5 -100.5t90.5 -257.5q0 -159 -90 -260.5t-245 -101.5t-245 101.5t-90 258.5zM170 350q0 -104 54.5 -172t145.5 -68t145.5 68t54.5 172q0 102 -54.5 168.5t-145.5 66.5q-40 0 -71 -25t-31 -65q0 -54 36 -54q47 0 47 64h125 q0 -78 -41 -131t-132 -53q-41 0 -76 26t-52 57q-5 -12 -5 -54z" />
<glyph unicode="P" horiz-adv-x="852" d="M-45 456q0 114 107 179t342 65h45q187 0 277.5 -61.5t90.5 -167.5q0 -109 -67.5 -169t-171.5 -60q-56 0 -99 8v-130h117v-120h-344v120h97v459q-150 -4 -209.5 -32.5t-59.5 -90.5q0 -54 51 -54q47 0 47 64h125q0 -77 -41 -130.5t-132 -53.5q-89 0 -132 51t-43 123z M479 373q39 -11 99 -11q45 0 77 30t32 79q0 54 -47.5 81.5t-160.5 27.5v-207z" />
<glyph unicode="Q" horiz-adv-x="730" d="M35 350q0 157 91 258.5t244 101.5q154 0 244.5 -100.5t90.5 -257.5q0 -124 -55.5 -215t-156.5 -127l222 -173l-84 -97l-297 252q-139 12 -219 111t-80 247zM170 350q0 -104 54.5 -172t145.5 -68t145.5 68t54.5 172q0 102 -54.5 168.5t-145.5 66.5q-40 0 -71 -25t-31 -65 q0 -54 36 -54q47 0 47 64h125q0 -78 -41 -131t-132 -53q-41 0 -76 26t-52 57q-5 -13 -5 -54z" />
<glyph unicode="R" horiz-adv-x="904" d="M-45 456q0 114 107 179t342 65h45q187 0 277.5 -61.5t90.5 -167.5q0 -88 -44.5 -144.5t-119.5 -75.5q22 -77 46 -109.5t55 -32.5q24 0 24 31h120q0 -77 -39 -114t-95 -37q-88 0 -141.5 57.5t-96.5 196.5q-30 3 -47 7v-130h57v-120h-284v120h97v459q-150 -4 -209.5 -32.5 t-59.5 -90.5q0 -54 51 -54q47 0 47 64h125q0 -77 -41 -130.5t-132 -53.5q-89 0 -132 51t-43 123zM479 373q39 -11 99 -11q45 0 77 30t32 79q0 54 -47.5 81.5t-160.5 27.5v-207z" />
<glyph unicode="S" horiz-adv-x="482" d="M-45 43v180h115v-91q57 -20 113 -20q67 0 105.5 14.5t38.5 38.5q0 15 -10 25.5t-40 28.5l-173 101q-27 18 -43.5 31.5t-43 40t-40 61t-13.5 74.5q0 89 71 139.5t182 50.5q99 0 168.5 -47.5t69.5 -122.5q0 -22 -3 -40.5t-14 -39t-29 -34.5t-50 -23.5t-75 -9.5v115 q24 0 32.5 6.5t8.5 19.5q0 21 -27.5 38.5t-80.5 17.5q-55 0 -89 -16.5t-34 -51.5q0 -29 14.5 -49.5t50.5 -42.5l192 -117q105 -65 105 -154q0 -85 -73.5 -129.5t-193.5 -44.5q-140 0 -234 51z" />
<glyph unicode="T" horiz-adv-x="775" d="M-45 456q0 114 103.5 179t330.5 65h352v-207h-119v87h-103v-460h97v-120h-315v120h88v460h-70q-131 0 -185 -31t-54 -93q0 -54 51 -54q47 0 47 64h125q0 -77 -41 -130.5t-132 -53.5q-89 0 -132 51t-43 123z" />
<glyph unicode="U" horiz-adv-x="1013" d="M-45 456q0 114 107 179t342 65h162v-120h-87v-345q0 -51 42.5 -85.5t111.5 -34.5q66 0 110 34.5t44 85.5v345h-87v120h314v-120h-97v-345q0 -104 -77.5 -174.5t-206.5 -70.5q-132 0 -208 70t-76 175v344q-150 -4 -209.5 -32.5t-59.5 -90.5q0 -54 51 -54q47 0 47 64h125 q0 -77 -41 -130.5t-132 -53.5q-89 0 -132 51t-43 123z" />
<glyph unicode="V" horiz-adv-x="880" d="M-45 456q0 114 107 179t342 65h109v-120h-55l112 -379l113 379h-55v120h252v-120h-64l-179 -580h-133l-179 578q-136 -6 -190.5 -34.5t-54.5 -87.5q0 -54 51 -54q47 0 47 64h125q0 -77 -41 -130.5t-132 -53.5q-89 0 -132 51t-43 123z" />
<glyph unicode="W" horiz-adv-x="1213" d="M-45 456q0 114 107 179t342 65h134v-120h-57l94 -369l123 489h103l122 -489l95 369h-57v120h252v-120h-62l-156 -580h-133l-113 405l-112 -405h-133l-156 579q-150 -4 -209 -32.5t-59 -90.5q0 -54 51 -54q47 0 47 64h125q0 -77 -41 -130.5t-132 -53.5q-89 0 -132 51 t-43 123z" />
<glyph unicode="X" horiz-adv-x="818" d="M-45 456q0 114 110.5 179t353.5 65h43v-120h-21l72 -116l72 116h-37v120h252v-120h-73l-137 -220l152 -240h75v-120h-252v120h34l-86 138l-85 -138h31v-120h-252v120h79l150 240l-135 216q-123 -10 -172 -37.5t-49 -82.5q0 -54 51 -54q47 0 47 64h125q0 -78 -41 -131 t-132 -53q-89 0 -132 51t-43 123z" />
<glyph unicode="Y" horiz-adv-x="804" d="M-45 456q0 114 103.5 179t330.5 65h92v-120h-40l75 -166l75 166h-40v120h252v-120h-70l-152 -307v-153h97v-120h-324v120h97v153l-151 305q-122 -7 -171 -35t-49 -87q0 -54 51 -54q47 0 47 64h125q0 -77 -41 -130.5t-132 -53.5q-89 0 -132 51t-43 123z" />
<glyph unicode="Z" horiz-adv-x="737" d="M-45 456q0 114 107 179t342 65h278v-100l-338 -480h241v69h100v-189h-512v100l337 480h-108q-182 0 -252 -28.5t-70 -95.5q0 -54 51 -54q47 0 47 64h125q0 -77 -41 -130.5t-132 -53.5q-89 0 -132 51t-43 123z" />
<glyph unicode="[" horiz-adv-x="288" d="M40 -200v995h208v-110h-88v-775h88v-110h-208z" />
<glyph unicode="\" horiz-adv-x="420" d="M10 700h110l290 -730h-110z" />
<glyph unicode="]" horiz-adv-x="288" d="M40 -90h88v775h-88v110h208v-995h-208v110z" />
<glyph unicode="^" horiz-adv-x="489" d="M13 365l187 335h90l188 -335h-132l-101 174l-102 -174h-130z" />
<glyph unicode="_" horiz-adv-x="590" d="M0 0h590v-117h-590v117z" />
<glyph unicode="`" horiz-adv-x="335" d="M44 918l111 75l101 -183l-84 -50z" />
<glyph unicode="a" horiz-adv-x="552" d="M30 131q0 78 56 127t165 49h79v36q0 47 -58 47q-60 0 -106 -13v-57h-115v149q49 19 114.5 30t109.5 11q87 0 136 -45.5t49 -121.5v-238h82v-87q-43 -23 -108 -23q-104 0 -104 70q-62 -75 -138 -75t-119 39t-43 102zM160 138q0 -28 41 -28q69 0 129 82v4h-80 q-46 0 -68 -16t-22 -42z" />
<glyph unicode="b" horiz-adv-x="582" d="M10 640v110h207v-290q45 50 121 50q100 0 154.5 -73.5t54.5 -186.5q0 -114 -67 -187t-194 -73q-94 0 -199 30v620h-77zM217 122q27 -12 61 -12q69 0 104 38t35 99t-25 102t-70 41q-47 0 -76 -47t-29 -113v-108z" />
<glyph unicode="c" horiz-adv-x="495" d="M35 250q0 113 64.5 186.5t180.5 73.5q99 0 176 -41v-164h-115v77q-27 8 -61 8q-54 0 -84.5 -39t-30.5 -101t30.5 -101t84.5 -39q39 0 70.5 9t44 16.5t33.5 22.5l52 -101q-78 -67 -200 -67q-116 0 -180.5 73.5t-64.5 186.5z" />
<glyph unicode="d" horiz-adv-x="587" d="M35 245q0 117 63.5 191t182.5 74q34 0 84 -6v136h-77v110h207v-645h82v-87q-43 -23 -108 -23q-99 0 -104 60q-46 -65 -118 -65q-102 0 -157 72.5t-55 182.5zM165 249q0 -59 25.5 -99t71.5 -40q44 0 73.5 47t29.5 113v103q-39 17 -77 17q-56 0 -89.5 -37.5t-33.5 -103.5z " />
<glyph unicode="e" horiz-adv-x="533" d="M35 250q0 113 64.5 186.5t180.5 73.5q107 0 165 -72t58 -184v-53h-338q3 -40 33.5 -65.5t81.5 -25.5q31 0 59.5 6t40 11t34.5 18l24 13l52 -101q-82 -67 -210 -67q-116 0 -180.5 73.5t-64.5 186.5zM169 302h204q-4 40 -27.5 64t-65.5 24q-45 0 -73.5 -24.5t-37.5 -63.5z " />
<glyph unicode="f" horiz-adv-x="387" d="M20 0v110h78v280h-77v100l77 10v46q0 105 45.5 158.5t161.5 53.5q43 0 110 -8v-179h-115v67q-43 -1 -57.5 -23t-14.5 -69v-46h144v-110h-144v-280h72v-110h-280z" />
<glyph unicode="g" horiz-adv-x="538" d="M38 -79q0 32 14 59.5t44 39.5q-14 6 -24 14.5t-16.5 19.5t-10 23.5t-3.5 26.5q0 71 59 102q-51 48 -51 124q0 78 57 129t158 51q64 0 108 -22h165v-117h-66q8 -24 8 -41q0 -78 -57 -129t-158 -51q-37 0 -72 8q-21 -4 -21 -24q0 -8 7 -12.5t15.5 -6.5t27.5 -4l148 -21 q68 -10 108 -49.5t40 -101.5q0 -73 -73 -118t-187 -45q-110 0 -165 41t-55 104zM168 -73q0 -31 86 -31q59 0 96.5 11t37.5 33q0 26 -45 31l-123 14q-21 -4 -36.5 -21t-15.5 -37zM180 330q0 -27 22 -43.5t63 -16.5t63 16.5t22 43.5q0 18 -9.5 31t-29 21t-46.5 8 q-41 0 -63 -16.5t-22 -43.5z" />
<glyph unicode="h" horiz-adv-x="640" d="M20 0v110h77v530h-77v110h207v-284q86 44 155 44q94 0 130 -55t36 -152v-198h82v-87q-43 -23 -112 -23q-53 0 -76.5 27t-23.5 88v193q0 44 -12 65.5t-51 21.5q-49 0 -128 -60v-220h87v-110h-294z" />
<glyph unicode="i" horiz-adv-x="360" d="M40 0v110h78v280h-77v110h207v-390h87v-110h-295zM113 622q0 33 21 55.5t51 22.5q33 0 52 -22t19 -51q0 -33 -21 -55.5t-51 -22.5q-32 0 -51.5 22t-19.5 51z" />
<glyph unicode="j" horiz-adv-x="323" d="M-3 -106q63 0 92 32.5t29 98.5v365h-77v110h207v-475q0 -113 -60.5 -181.5t-190.5 -68.5v119zM113 622q0 33 21 55.5t51 22.5q33 0 52 -22t19 -51q0 -33 -21 -55.5t-51 -22.5q-32 0 -51.5 22t-19.5 51z" />
<glyph unicode="k" horiz-adv-x="567" d="M10 0v110h78v530h-77v110h207v-439l35 13l67 66h-34v110h260v-110h-56l-128 -127l129 -158h76v-87q-22 -13 -39 -18t-51 -5q-42 0 -66 13.5t-45 41.5l-116 152l-32 -13v-79h67v-110h-275z" />
<glyph unicode="l" horiz-adv-x="340" d="M20 0v110h78v530h-77v110h207v-640h87v-110h-295z" />
<glyph unicode="m" horiz-adv-x="922" d="M20 0v110h77v280h-77v110h177l15 -49q76 59 140 59q100 0 144 -58q96 58 168 58q94 0 130 -55t36 -152v-198h82v-87q-43 -23 -112 -23q-53 0 -76.5 27t-23.5 88v193q0 44 -12 65.5t-51 21.5q-43 0 -106 -44q2 -28 2 -43v-198h82v-105h-264v110h52v193q0 44 -12 65.5 t-51 21.5q-45 0 -113 -60v-220h62v-110h-269z" />
<glyph unicode="n" horiz-adv-x="640" d="M20 0v110h77v280h-77v110h177l15 -49q94 59 170 59q94 0 130 -55t36 -152v-198h82v-87q-43 -23 -112 -23q-53 0 -76.5 27t-23.5 88v193q0 44 -12 65.5t-51 21.5q-49 0 -128 -60v-220h87v-110h-294z" />
<glyph unicode="o" d="M35 250q0 113 67 186.5t188 73.5t188 -73.5t67 -186.5t-67 -186.5t-188 -73.5t-188 73.5t-67 186.5zM165 250q0 -61 33 -100.5t92 -39.5t92 39.5t33 100.5t-33 100.5t-92 39.5t-92 -39.5t-33 -100.5z" />
<glyph unicode="p" horiz-adv-x="597" d="M20 393v107h181l16 -57q50 65 133 65q102 0 157 -72.5t55 -182.5q0 -117 -63.5 -191t-182.5 -74q-34 0 -84 6v-99h62v-110h-269v108h77v500h-82zM232 125q39 -17 77 -17q56 0 89.5 37.5t33.5 103.5q0 59 -25.5 99t-71.5 40q-44 0 -73.5 -47t-29.5 -113v-103z" />
<glyph unicode="q" horiz-adv-x="572" d="M35 250q0 114 67 187t194 73q94 0 199 -30v-585h77v-110h-279v110h72v145q-45 -50 -121 -50q-100 0 -154.5 73.5t-54.5 186.5zM165 253q0 -61 25 -102t70 -41q47 0 76 47t29 113v108q-27 12 -61 12q-69 0 -104 -38t-35 -99z" />
<glyph unicode="r" horiz-adv-x="451" d="M20 0v110h77v280h-77v110h188l12 -53q93 63 162 63l71 -15l-38 -127l-45 12q-68 0 -143 -42v-228h72v-110h-279z" />
<glyph unicode="s" horiz-adv-x="469" d="M40 29v145h115v-58q28 -5 66 -5q78 0 78 26q0 10 -47 38l-120 72q-44 27 -65 57t-21 75q0 62 53 96.5t134 34.5q101 0 183 -41v-149h-115v62q-29 8 -65 8q-60 0 -60 -22q0 -1 0.5 -2.5t1.5 -2.5t2 -2.5t3 -3t4 -2.5t5 -3t5.5 -3.5t7 -4.5t8.5 -5l135 -82q81 -50 81 -119 q0 -70 -57 -108.5t-149 -38.5q-114 0 -183 38z" />
<glyph unicode="t" horiz-adv-x="401" d="M20 390v100l87 10q33 83 43 132h87v-132h119v-110h-119v-247q0 -17 5.5 -25.5t21.5 -8.5q22 0 69 19l48 -102q-64 -36 -138 -36q-71 0 -103.5 38t-32.5 99v263h-87z" />
<glyph unicode="u" horiz-adv-x="630" d="M10 395v105h207v-303q0 -44 12.5 -66t50.5 -22q46 0 128 61v220h-62v110h192v-395h82v-87q-43 -23 -112 -23q-70 0 -90 51q-92 -57 -165 -57q-94 0 -130 55.5t-36 152.5v198h-77z" />
<glyph unicode="v" horiz-adv-x="576" d="M10 390v110h237v-110h-33l74 -217l74 217h-33v110h237v-110h-62l-144 -390h-144l-144 390h-62z" />
<glyph unicode="w" horiz-adv-x="762" d="M-10 390v110h212v-110h-25l53 -247l92 357h118l87 -356l57 246h-24v110h212v-110h-57l-101 -390h-163l-70 262l-70 -262h-163l-102 390h-56z" />
<glyph unicode="x" horiz-adv-x="512" d="M-5 0v110h49l134 145l-127 135h-51v110h209v-110l47 -51l47 51v110h209v-110h-51l-127 -135l134 -145h49v-110h-228v110h26l-59 62l-59 -62h26v-110h-228z" />
<glyph unicode="y" horiz-adv-x="559" d="M10 390v110h238v-110h-27l74 -223l65 223h-36v110h230v-110h-62l-115 -390q-64 -226 -242 -226q-54 0 -115 18l35 126q45 -13 80 -13q62 0 100 80l-164 405h-61z" />
<glyph unicode="z" horiz-adv-x="484" d="M23 0v120l259 260h-117v-58h-130v178h422v-120l-257 -260h120v69h130v-189h-427z" />
<glyph unicode="{" horiz-adv-x="315" d="M12 293v89q81 16 81 93v160q0 84 38 122t122 38h48v-110h-38q-50 0 -50 -50v-135q0 -141 -66 -160q66 -18 66 -155v-215q0 -60 50 -60h38v-110h-48q-85 0 -122.5 37.5t-37.5 122.5v255q0 17 -4 30t-23.5 27.5t-53.5 20.5z" />
<glyph unicode="|" horiz-adv-x="270" d="M80 -160v910h110v-910h-110z" />
<glyph unicode="}" horiz-adv-x="315" d="M12 -90h38q50 0 50 60v215q0 137 66 155q-66 19 -66 160v135q0 50 -50 50h-38v110h48q84 0 122 -38t38 -122v-160q0 -77 81 -93v-89q-34 -6 -53.5 -20.5t-23.5 -27.5t-4 -30v-255q0 -85 -37.5 -122.5t-122.5 -37.5h-48v110z" />
<glyph unicode="~" horiz-adv-x="528" d="M30 246q58 117 158 117q19 0 41.5 -4t38 -8.5t42.5 -13t38 -11.5l86 42l64 -50q-54 -118 -147 -118q-19 0 -42.5 4.5t-37 8t-44 13.5t-37.5 12l-96 -42z" />
<glyph unicode="&#xa1;" horiz-adv-x="360" d="M108 -301l20 600h110l20 -600h-150zM109 437q0 30 21.5 51.5t51.5 21.5q31 0 52.5 -21.5t21.5 -51.5q0 -31 -21.5 -52.5t-52.5 -21.5q-30 0 -51.5 21.5t-21.5 52.5z" />
<glyph unicode="&#xa2;" horiz-adv-x="495" d="M35 250q0 97 48.5 166t136.5 88v78h115v-75q64 -9 121 -38v-164h-115v77q-27 8 -61 8q-54 0 -84.5 -39t-30.5 -101t30.5 -101t84.5 -39q39 0 70.5 9t44 16.5t33.5 22.5l52 -101q-59 -51 -150 -63v-76h-115v79q-86 20 -133 89t-47 164z" />
<glyph unicode="&#xa3;" horiz-adv-x="551" d="M36 0v120q42 0 67 46.5t25 92.5v37h-72v97h72v93q0 98 59.5 154.5t149.5 56.5q109 0 178 -41v-179h-115v90q-21 10 -66 10q-32 0 -54 -23.5t-22 -62.5v-98h99v-97h-99v-35q0 -40 -18.5 -82t-45.5 -59h331v-120h-489z" />
<glyph unicode="&#xa4;" horiz-adv-x="561" d="M8 141l73 45q-17 48 -17 93q0 52 17 92l-73 47l67 91l65 -60q55 46 141 46q82 0 141 -46l66 60l67 -91l-74 -48q17 -40 17 -91q0 -46 -17 -92l74 -46l-66 -91l-63 55q-56 -50 -145 -50t-145 50l-61 -56zM179 279q0 -51 27.5 -85t74.5 -34t74.5 34t27.5 85 q0 48 -27.5 79.5t-74.5 31.5t-74.5 -31.5t-27.5 -79.5z" />
<glyph unicode="&#xa5;" horiz-adv-x="849" d="M0 456q0 114 103.5 179t330.5 65h92v-120h-40l67 -148h16l67 148h-40v120h252v-120h-70l-73 -148h41v-102h-92l-23 -47h115v-102h-120v-61h97v-120h-324v120h97v61h-105v102h100l-24 47h-76v102h26l-72 146q-122 -7 -171 -35t-49 -87q0 -54 51 -54q47 0 47 64h125 q0 -77 -41 -130.5t-132 -53.5q-89 0 -132 51t-43 123z" />
<glyph unicode="&#xa6;" horiz-adv-x="285" d="M80 -160v400h125v-400h-125zM80 350v400h125v-400h-125z" />
<glyph unicode="&#xa7;" horiz-adv-x="465" d="M36 279q0 73 63 135q-47 44 -47 104q0 77 58 120t148 43q79 0 168 -26v-165h-100v69q-47 7 -69 7q-32 0 -54 -10.5t-22 -31.5q0 -29 40 -48l100 -49q58 -28 88 -62.5t30 -86.5q0 -73 -63 -135q47 -46 47 -104q0 -77 -58 -120t-148 -43q-79 0 -168 26v165h100v-69 q47 -7 69 -7q32 0 54 10.5t22 31.5q0 29 -40 48l-100 49q-58 28 -88 62.5t-30 86.5zM161 295q0 -22 12 -34t43 -28l64 -33q34 34 34 62q0 22 -12 34t-43 28l-65 32q-33 -34 -33 -61z" />
<glyph unicode="&#xa8;" horiz-adv-x="548" d="M96 868q0 33 20.5 55t48.5 22q31 0 49.5 -21t18.5 -49q0 -33 -20.5 -55t-48.5 -22q-31 0 -49.5 20.5t-18.5 49.5zM319 868q0 33 20.5 55t48.5 22q31 0 49.5 -21t18.5 -49q0 -33 -20.5 -55t-48.5 -22q-31 0 -49.5 20.5t-18.5 49.5z" />
<glyph unicode="&#xa9;" horiz-adv-x="835" d="M24 348q0 171 105 282.5t289 111.5q183 0 288 -111.5t105 -282.5q0 -112 -45 -202t-135.5 -145.5t-212.5 -55.5q-183 0 -288.5 115.5t-105.5 287.5zM131 348q0 -131 77 -219t210 -88q132 0 209 88t77 219q0 130 -76.5 213.5t-209.5 83.5q-134 0 -210.5 -83.5 t-76.5 -213.5zM220 341q0 93 58 154t148 61q69 0 117 -44t48 -115l-117 -1q0 24 -12.5 36t-30.5 12q-38 0 -62.5 -29t-24.5 -72q0 -44 24.5 -73t64.5 -29q23 0 49.5 10t42.5 29l75 -72q-62 -78 -170 -78q-94 0 -152 59.5t-58 151.5z" />
<glyph unicode="&#xaa;" horiz-adv-x="392" d="M60 550q0 41 29.5 67.5t87.5 26.5h42v18q0 25 -30 25q-9 0 -51 -6.5t-54 -10.5l-13 60q53 21 120 21q47 0 72.5 -24t25.5 -65v-126h43v-46q-23 -13 -57 -13q-56 0 -56 38q-32 -40 -73 -40q-40 0 -63 20.5t-23 54.5zM130 554q0 -15 21 -15q37 0 68 45h-42q-47 0 -47 -30z " />
<glyph unicode="&#xab;" horiz-adv-x="566" d="M58 176v54l182 171l54 -49l-120 -149l120 -149l-54 -49zM264 176v54l182 171l54 -49l-120 -149l120 -149l-54 -49z" />
<glyph unicode="&#xac;" horiz-adv-x="430" d="M60 211v107h310v-198h-102v91h-208z" />
<glyph unicode="&#xad;" horiz-adv-x="400" d="M60 236v102h280v-102h-280z" />
<glyph unicode="&#xae;" horiz-adv-x="701" d="M28 417q0 141 87 233.5t239 92.5q153 0 240 -92.5t87 -233.5q0 -144 -87.5 -240t-239.5 -96t-239 96t-87 240zM117 419q0 -106 64 -178t173 -72q110 0 173 71.5t63 178.5q0 101 -63 168t-173 67t-173.5 -67t-63.5 -168zM220 247v71h40v199h-40v72h96q86 0 128.5 -31.5 t42.5 -84.5q0 -69 -49 -96l41 -59h23v-71h-118v71h9l-32 46q-19 0 -26 2v-48h22v-71h-137zM335 439q30 -3 37 -3q15 0 27.5 10.5t12.5 26.5q0 38 -77 44v-78z" />
<glyph unicode="&#xaf;" horiz-adv-x="563" d="M84 591v124h389v-124h-389z" />
<glyph unicode="&#xb0;" horiz-adv-x="404" d="M60 643q0 65 36 103t106 38t106 -38t36 -103t-36 -103t-106 -38t-106 38t-36 103zM156 643q0 -50 46 -50q45 0 45 50t-45 50q-46 0 -46 -50z" />
<glyph unicode="&#xb1;" horiz-adv-x="550" d="M60 30v117h430v-117h-430zM60 351v117h155v156h120v-156h155v-117h-155v-157h-120v157h-155z" />
<glyph unicode="&#xb2;" horiz-adv-x="352" d="M60 452v70q47 23 89 56t42 67q0 23 -30 23q-15 0 -33 -4v-35h-66v101q43 20 98 20q117 0 117 -89q0 -85 -108 -163l3 -2l88 50h32l-11 -94h-221z" />
<glyph unicode="&#xb3;" horiz-adv-x="350" d="M60 477l27 71q35 -14 76 -14q16 0 28.5 8t12.5 18q0 23 -41 23h-36v52h17q53 0 53 23q0 14 -43 14q-29 0 -64 -7l-19 77q58 12 94 12q51 0 84.5 -19.5t33.5 -58.5q0 -41 -33 -64q40 -22 40 -66q0 -47 -36 -70.5t-90 -23.5t-104 25z" />
<glyph unicode="&#xb4;" horiz-adv-x="387" d="M44 810l101 183l111 -75l-128 -158z" />
<glyph unicode="&#xb6;" horiz-adv-x="825" d="M11 366q0 114 103.5 179t330.5 65h352v-108h-75v-722h-115v722h-102v-722h-115v709q-142 -4 -198 -32.5t-56 -90.5q0 -54 51 -54q47 0 47 64h125q0 -77 -41 -130.5t-132 -53.5q-89 0 -132 51t-43 123z" />
<glyph unicode="&#xb7;" horiz-adv-x="275" d="M70 300q0 31 21.5 52.5t51.5 21.5q31 0 52.5 -21.5t21.5 -52.5q0 -30 -21.5 -51.5t-52.5 -21.5q-30 0 -51.5 21.5t-21.5 51.5z" />
<glyph unicode="&#xb8;" horiz-adv-x="469" d="M113 -236l34 93q19 -10 58 -10q48 0 48 28q0 31 -38 31q-21 0 -39 -8l-21 69l66 43h117l-50 -30q73 -19 73 -109q0 -65 -39.5 -97t-99.5 -32t-109 22z" />
<glyph unicode="&#xb9;" horiz-adv-x="316" d="M60 707l146 46v-220h50v-82h-190v82h54v113l-51 -8z" />
<glyph unicode="&#xba;" horiz-adv-x="404" d="M60 588q0 77 36 121.5t106 44.5t106 -44.5t36 -121.5t-36 -121.5t-106 -44.5t-106 44.5t-36 121.5zM163 588q0 -69 39 -69t39 69t-39 69t-39 -69z" />
<glyph unicode="&#xbb;" horiz-adv-x="566" d="M66 54l120 149l-120 149l54 49l182 -171v-54l-182 -171zM272 54l120 149l-120 149l54 49l182 -171v-54l-182 -171z" />
<glyph unicode="&#xbc;" horiz-adv-x="374" d="M51 50v67l144 177h76v-174h41v-70h-41v-50h-86v50h-134zM92 339v69h229v-69h-229zM105 707l146 46v-220h50v-82h-190v82h54v113l-51 -8zM118 120h67v85z" />
<glyph unicode="&#xbd;" horiz-adv-x="356" d="M60 339v69h229v-69h-229zM64 0v70q47 23 89 56t42 67q0 23 -30 23q-15 0 -33 -4v-35h-66v101q43 20 98 20q117 0 117 -89q0 -85 -108 -163l3 -2l88 50h32l-11 -94h-221zM78 707l146 46v-220h50v-82h-190v82h54v113l-51 -8z" />
<glyph unicode="&#xbe;" horiz-adv-x="381" d="M60 50v67l144 177h76v-174h41v-70h-41v-50h-86v50h-134zM81 339v69h229v-69h-229zM83 477l27 71q35 -14 76 -14q16 0 28.5 8t12.5 18q0 23 -41 23h-36v52h17q53 0 53 23q0 14 -43 14q-29 0 -64 -7l-19 77q58 12 94 12q51 0 84.5 -19.5t33.5 -58.5q0 -41 -33 -64 q40 -22 40 -66q0 -47 -36 -70.5t-90 -23.5t-104 25zM127 120h67v85z" />
<glyph unicode="&#xbf;" d="M55 10h115v-88q34 -12 86 -12q117 0 117 82q0 29 -13 51.5t-40 40t-51.5 28.5t-64.5 25v162h116v-91q86 -37 134 -85t48 -132q0 -201 -249 -201q-121 0 -198 41v179zM192 437q0 30 21.5 51.5t51.5 21.5q31 0 52.5 -21.5t21.5 -51.5q0 -31 -21.5 -52.5t-52.5 -21.5 q-30 0 -51.5 21.5t-21.5 52.5z" />
<glyph unicode="&#xc0;" horiz-adv-x="897" d="M-45 456q0 114 114 179t365 65h274v-120h-59l182 -460h66v-120h-257v120h59l-21 56h-262l-21 -56h60v-120h-257v120h65l181 460h-10q-201 0 -277.5 -28t-76.5 -96q0 -54 51 -54q47 0 47 64h125q0 -78 -41 -131t-132 -53q-89 0 -132 51t-43 123zM451 918l111 75l101 -183 l-84 -50zM457 286h179l-89 238z" />
<glyph unicode="&#xc1;" horiz-adv-x="897" d="M-45 456q0 114 114 179t365 65h274v-120h-59l182 -460h66v-120h-257v120h59l-21 56h-262l-21 -56h60v-120h-257v120h65l181 460h-10q-201 0 -277.5 -28t-76.5 -96q0 -54 51 -54q47 0 47 64h125q0 -78 -41 -131t-132 -53q-89 0 -132 51t-43 123zM457 286h179l-89 238z M509 810l101 183l111 -75l-128 -158z" />
<glyph unicode="&#xc2;" horiz-adv-x="897" d="M-45 456q0 114 114 179t365 65h274v-120h-59l182 -460h66v-120h-257v120h59l-21 56h-262l-21 -56h60v-120h-257v120h65l181 460h-10q-201 0 -277.5 -28t-76.5 -96q0 -54 51 -54q47 0 47 64h125q0 -78 -41 -131t-132 -53q-89 0 -132 51t-43 123zM390 800l130 147h82 l130 -147l-62 -50l-109 90l-109 -90zM457 286h179l-89 238z" />
<glyph unicode="&#xc3;" horiz-adv-x="897" d="M-45 456q0 114 114 179t365 65h274v-120h-59l182 -460h66v-120h-257v120h59l-21 56h-262l-21 -56h60v-120h-257v120h65l181 460h-10q-201 0 -277.5 -28t-76.5 -96q0 -54 51 -54q47 0 47 64h125q0 -78 -41 -131t-132 -53q-89 0 -132 51t-43 123zM360 800q18 48 47.5 76.5 t67.5 28.5q6 0 12.5 -0.5t14.5 -3t13.5 -4t17 -5.5t17.5 -6.5t21.5 -8.5t23.5 -9q8 6 31 20.5t32 21.5l55 -43q-18 -48 -47.5 -76.5t-67.5 -28.5q-31 0 -120 37l-63 -42zM457 286h179l-89 238z" />
<glyph unicode="&#xc4;" horiz-adv-x="897" d="M-45 456q0 114 114 179t365 65h274v-120h-59l182 -460h66v-120h-257v120h59l-21 56h-262l-21 -56h60v-120h-257v120h65l181 460h-10q-201 0 -277.5 -28t-76.5 -96q0 -54 51 -54q47 0 47 64h125q0 -78 -41 -131t-132 -53q-89 0 -132 51t-43 123zM373 868q0 33 20.5 55 t48.5 22q31 0 49.5 -21t18.5 -49q0 -33 -20.5 -55t-48.5 -22q-31 0 -49.5 20.5t-18.5 49.5zM457 286h179l-89 238zM596 868q0 33 20.5 55t48.5 22q31 0 49.5 -21t18.5 -49q0 -33 -20.5 -55t-48.5 -22q-31 0 -49.5 20.5t-18.5 49.5z" />
<glyph unicode="&#xc5;" horiz-adv-x="897" d="M-45 456q0 114 114 179t365 65h274v-120h-59l182 -460h66v-120h-257v120h59l-21 56h-262l-21 -56h60v-120h-257v120h65l181 460h-10q-201 0 -277.5 -28t-76.5 -96q0 -54 51 -54q47 0 47 64h125q0 -78 -41 -131t-132 -53q-89 0 -132 51t-43 123zM410 845q0 54 41 94.5 t98 40.5t96.5 -40t39.5 -95q0 -58 -39.5 -96.5t-96.5 -38.5q-58 0 -98.5 39.5t-40.5 95.5zM457 286h179l-89 238zM500 845q0 -21 13.5 -35.5t35.5 -14.5q23 0 36.5 14.5t13.5 35.5q0 20 -14 35t-36 15t-35.5 -15t-13.5 -35z" />
<glyph unicode="&#xc6;" horiz-adv-x="1084" d="M-45 456q0 114 107 179t342 65h639v-205h-115v85h-220v-174h78v60h115v-240h-115v60h-78v-166h229v85h115v-205h-526v120h52v56h-194l-27 -56h28v-120h-257v120h96l225 460h-45q-184 0 -254 -28t-70 -96q0 -54 51 -54q47 0 47 64h125q0 -77 -41 -130.5t-132 -53.5 q-89 0 -132 51t-43 123zM438 286h140v286z" />
<glyph unicode="&#xc7;" horiz-adv-x="561" d="M-45 348q0 159 90 260.5t245 101.5q97 0 169.5 -60t72.5 -155q0 -72 -43 -123t-132 -51q-91 0 -132 53.5t-41 130.5h125q0 -64 47 -64q36 0 36 54q0 40 -31 65t-71 25q-91 0 -145.5 -66.5t-54.5 -168.5t54.5 -168.5t145.5 -66.5q103 0 185 86l76 -95q-78 -96 -206 -112 l-26 -16q73 -19 73 -109q0 -65 -39.5 -97t-99.5 -32t-109 22l34 93q19 -10 58 -10q48 0 48 28q0 31 -38 31q-21 0 -39 -8l-21 69l45 30q-129 18 -202.5 114.5t-73.5 238.5z" />
<glyph unicode="&#xc8;" horiz-adv-x="840" d="M-45 456q0 114 103.5 179t330.5 65h410v-205h-115v85h-220v-174h78v60h115v-240h-115v60h-78v-166h229v85h115v-205h-571v120h97v459q-142 -4 -198 -32.5t-56 -90.5q0 -54 51 -54q47 0 47 64h125q0 -77 -41 -130.5t-132 -53.5q-89 0 -132 51t-43 123zM381 918l111 75 l101 -183l-84 -50z" />
<glyph unicode="&#xc9;" horiz-adv-x="840" d="M-45 456q0 114 103.5 179t330.5 65h410v-205h-115v85h-220v-174h78v60h115v-240h-115v60h-78v-166h229v85h115v-205h-571v120h97v459q-142 -4 -198 -32.5t-56 -90.5q0 -54 51 -54q47 0 47 64h125q0 -77 -41 -130.5t-132 -53.5q-89 0 -132 51t-43 123zM414 810l101 183 l111 -75l-128 -158z" />
<glyph unicode="&#xca;" horiz-adv-x="840" d="M-45 456q0 114 103.5 179t330.5 65h410v-205h-115v85h-220v-174h78v60h115v-240h-115v60h-78v-166h229v85h115v-205h-571v120h97v459q-142 -4 -198 -32.5t-56 -90.5q0 -54 51 -54q47 0 47 64h125q0 -77 -41 -130.5t-132 -53.5q-89 0 -132 51t-43 123zM348 800l130 147h82 l130 -147l-62 -50l-109 90l-109 -90z" />
<glyph unicode="&#xcb;" horiz-adv-x="840" d="M-45 456q0 114 103.5 179t330.5 65h410v-205h-115v85h-220v-174h78v60h115v-240h-115v60h-78v-166h229v85h115v-205h-571v120h97v459q-142 -4 -198 -32.5t-56 -90.5q0 -54 51 -54q47 0 47 64h125q0 -77 -41 -130.5t-132 -53.5q-89 0 -132 51t-43 123zM360 868 q0 33 20.5 55t48.5 22q31 0 49.5 -21t18.5 -49q0 -33 -20.5 -55t-48.5 -22q-31 0 -49.5 20.5t-18.5 49.5zM583 868q0 33 20.5 55t48.5 22q31 0 49.5 -21t18.5 -49q0 -33 -20.5 -55t-48.5 -22q-31 0 -49.5 20.5t-18.5 49.5z" />
<glyph unicode="&#xcc;" horiz-adv-x="585" d="M-45 456q0 114 103.5 179t330.5 65h172v-120h-97v-460h97v-120h-315v120h88v459q-142 -4 -198 -32.5t-56 -90.5q0 -54 51 -54q47 0 47 64h125q0 -77 -41 -130.5t-132 -53.5q-89 0 -132 51t-43 123zM258 918l111 75l101 -183l-84 -50z" />
<glyph unicode="&#xcd;" horiz-adv-x="587" d="M-45 456q0 114 103.5 179t330.5 65h172v-120h-97v-460h97v-120h-315v120h88v459q-142 -4 -198 -32.5t-56 -90.5q0 -54 51 -54q47 0 47 64h125q0 -77 -41 -130.5t-132 -53.5q-89 0 -132 51t-43 123zM320 810l101 183l111 -75l-128 -158z" />
<glyph unicode="&#xce;" horiz-adv-x="585" d="M-45 456q0 114 103.5 179t330.5 65h172v-120h-97v-460h97v-120h-315v120h88v459q-142 -4 -198 -32.5t-56 -90.5q0 -54 51 -54q47 0 47 64h125q0 -77 -41 -130.5t-132 -53.5q-89 0 -132 51t-43 123zM233 800l130 147h82l130 -147l-62 -50l-109 90l-109 -90z" />
<glyph unicode="&#xcf;" horiz-adv-x="586" d="M-45 456q0 114 103.5 179t330.5 65h172v-120h-97v-460h97v-120h-315v120h88v459q-142 -4 -198 -32.5t-56 -90.5q0 -54 51 -54q47 0 47 64h125q0 -77 -41 -130.5t-132 -53.5q-89 0 -132 51t-43 123zM209 868q0 33 20.5 55t48.5 22q31 0 49.5 -21t18.5 -49q0 -33 -20.5 -55 t-48.5 -22q-31 0 -49.5 20.5t-18.5 49.5zM432 868q0 33 20.5 55t48.5 22q31 0 49.5 -21t18.5 -49q0 -33 -20.5 -55t-48.5 -22q-31 0 -49.5 20.5t-18.5 49.5z" />
<glyph unicode="&#xd0;" horiz-adv-x="926" d="M-45 456q0 114 103.5 179t330.5 65h45q213 0 325.5 -102.5t112.5 -277.5q0 -52 -9.5 -98t-33 -89t-59 -74.5t-91 -50t-125.5 -18.5q-20 0 -98.5 5t-106.5 5h-103v120h88v459q-142 -4 -198 -32.5t-56 -90.5q0 -54 51 -54q47 0 47 64h125q0 -77 -41 -130.5t-132 -53.5 q-89 0 -132 51t-43 123zM464 116q68 -6 90 -6q52 0 89.5 18.5t57 50t28 66.5t8.5 75q0 124 -69.5 192t-203.5 68v-198h101v-102h-101v-164z" />
<glyph unicode="&#xd1;" horiz-adv-x="994" d="M-45 456q0 114 103.5 179t330.5 65h77l291 -467v347h-87v120h314v-120h-97v-580h-123l-300 479v-359h87v-120h-314v120h97v459q-142 -4 -198 -32.5t-56 -90.5q0 -54 51 -54q47 0 47 64h125q0 -77 -41 -130.5t-132 -53.5q-89 0 -132 51t-43 123zM418 800q18 48 47.5 76.5 t67.5 28.5q6 0 12.5 -0.5t14.5 -3t13.5 -4t17 -5.5t17.5 -6.5t21.5 -8.5t23.5 -9q8 6 31 20.5t32 21.5l55 -43q-18 -48 -47.5 -76.5t-67.5 -28.5q-31 0 -120 37l-63 -42z" />
<glyph unicode="&#xd2;" horiz-adv-x="740" d="M35 350q0 157 91 258.5t244 101.5q154 0 244.5 -100.5t90.5 -257.5q0 -159 -90 -260.5t-245 -101.5t-245 101.5t-90 258.5zM170 350q0 -104 54.5 -172t145.5 -68t145.5 68t54.5 172q0 102 -54.5 168.5t-145.5 66.5q-40 0 -71 -25t-31 -65q0 -54 36 -54q47 0 47 64h125 q0 -77 -41 -130.5t-132 -53.5q-42 0 -75.5 25.5t-52.5 57.5q-5 -18 -5 -54zM253 918l111 75l101 -183l-84 -50z" />
<glyph unicode="&#xd3;" horiz-adv-x="740" d="M35 350q0 157 91 258.5t244 101.5q154 0 244.5 -100.5t90.5 -257.5q0 -159 -90 -260.5t-245 -101.5t-245 101.5t-90 258.5zM170 350q0 -104 54.5 -172t145.5 -68t145.5 68t54.5 172q0 102 -54.5 168.5t-145.5 66.5q-40 0 -71 -25t-31 -65q0 -54 36 -54q47 0 47 64h125 q0 -77 -41 -130.5t-132 -53.5q-42 0 -75.5 25.5t-52.5 57.5q-5 -18 -5 -54zM311 810l101 183l111 -75l-128 -158z" />
<glyph unicode="&#xd4;" horiz-adv-x="740" d="M35 350q0 157 91 258.5t244 101.5q154 0 244.5 -100.5t90.5 -257.5q0 -159 -90 -260.5t-245 -101.5t-245 101.5t-90 258.5zM170 350q0 -104 54.5 -172t145.5 -68t145.5 68t54.5 172q0 102 -54.5 168.5t-145.5 66.5q-40 0 -71 -25t-31 -65q0 -54 36 -54q47 0 47 64h125 q0 -77 -41 -130.5t-132 -53.5q-42 0 -75.5 25.5t-52.5 57.5q-5 -18 -5 -54zM192 800l130 147h82l130 -147l-62 -50l-109 90l-109 -90z" />
<glyph unicode="&#xd5;" horiz-adv-x="740" d="M35 350q0 157 91 258.5t244 101.5q154 0 244.5 -100.5t90.5 -257.5q0 -159 -90 -260.5t-245 -101.5t-245 101.5t-90 258.5zM170 350q0 -104 54.5 -172t145.5 -68t145.5 68t54.5 172q0 102 -54.5 168.5t-145.5 66.5q-40 0 -71 -25t-31 -65q0 -54 36 -54q47 0 47 64h125 q0 -77 -41 -130.5t-132 -53.5q-42 0 -75.5 25.5t-52.5 57.5q-5 -18 -5 -54zM204 800q18 48 47.5 76.5t67.5 28.5q6 0 12.5 -0.5t14.5 -3t13.5 -4t17 -5.5t17.5 -6.5t21.5 -8.5t23.5 -9q8 6 31 20.5t32 21.5l55 -43q-18 -48 -47.5 -76.5t-67.5 -28.5q-31 0 -120 37l-63 -42z " />
<glyph unicode="&#xd6;" horiz-adv-x="740" d="M35 350q0 157 91 258.5t244 101.5q154 0 244.5 -100.5t90.5 -257.5q0 -159 -90 -260.5t-245 -101.5t-245 101.5t-90 258.5zM170 350q0 -104 54.5 -172t145.5 -68t145.5 68t54.5 172q0 102 -54.5 168.5t-145.5 66.5q-40 0 -71 -25t-31 -65q0 -54 36 -54q47 0 47 64h125 q0 -77 -41 -130.5t-132 -53.5q-42 0 -75.5 25.5t-52.5 57.5q-5 -18 -5 -54zM211 868q0 33 20.5 55t48.5 22q31 0 49.5 -21t18.5 -49q0 -33 -20.5 -55t-48.5 -22q-31 0 -49.5 20.5t-18.5 49.5zM434 868q0 33 20.5 55t48.5 22q31 0 49.5 -21t18.5 -49q0 -33 -20.5 -55 t-48.5 -22q-31 0 -49.5 20.5t-18.5 49.5z" />
<glyph unicode="&#xd7;" horiz-adv-x="574" d="M93 179l111 111l-110 110l83 82l109 -109l111 110l84 -84l-110 -111l109 -109l-82 -83l-110 110l-111 -111z" />
<glyph unicode="&#xd8;" horiz-adv-x="740" d="M35 350q0 157 91 258.5t244 101.5q154 0 244.5 -100.5t90.5 -257.5q0 -159 -90 -260.5t-245 -101.5q-47 0 -98 12l-13 -32h-120l33 79q-66 48 -101.5 126.5t-35.5 174.5zM170 350q0 -104 55 -172l59 144q-68 12 -109 82q-5 -18 -5 -54zM268 495q0 -54 36 -54q47 0 47 64 h125q0 -99 -58 -147l-99 -242q24 -6 51 -6q91 0 145.5 68t54.5 172q0 102 -54.5 168.5t-145.5 66.5q-40 0 -71 -25t-31 -65z" />
<glyph unicode="&#xd9;" horiz-adv-x="998" d="M-45 456q0 114 103.5 179t330.5 65h162v-120h-87v-345q0 -51 42.5 -85.5t111.5 -34.5q66 0 110 34.5t44 85.5v345h-87v120h314v-120h-97v-345q0 -104 -77.5 -174.5t-206.5 -70.5q-132 0 -208 70t-76 175v344q-142 -4 -198 -32.5t-56 -90.5q0 -54 51 -54q47 0 47 64h125 q0 -77 -41 -130.5t-132 -53.5q-89 0 -132 51t-43 123zM410 918l111 75l101 -183l-84 -50z" />
<glyph unicode="&#xda;" horiz-adv-x="998" d="M-45 456q0 114 103.5 179t330.5 65h162v-120h-87v-345q0 -51 42.5 -85.5t111.5 -34.5q66 0 110 34.5t44 85.5v345h-87v120h314v-120h-97v-345q0 -104 -77.5 -174.5t-206.5 -70.5q-132 0 -208 70t-76 175v344q-142 -4 -198 -32.5t-56 -90.5q0 -54 51 -54q47 0 47 64h125 q0 -77 -41 -130.5t-132 -53.5q-89 0 -132 51t-43 123zM511 810l101 183l111 -75l-128 -158z" />
<glyph unicode="&#xdb;" horiz-adv-x="998" d="M-45 456q0 114 103.5 179t330.5 65h162v-120h-87v-345q0 -51 42.5 -85.5t111.5 -34.5q66 0 110 34.5t44 85.5v345h-87v120h314v-120h-97v-345q0 -104 -77.5 -174.5t-206.5 -70.5q-132 0 -208 70t-76 175v344q-142 -4 -198 -32.5t-56 -90.5q0 -54 51 -54q47 0 47 64h125 q0 -77 -41 -130.5t-132 -53.5q-89 0 -132 51t-43 123zM451 800l130 147h82l130 -147l-62 -50l-109 90l-109 -90z" />
<glyph unicode="&#xdc;" horiz-adv-x="998" d="M-45 456q0 114 103.5 179t330.5 65h162v-120h-87v-345q0 -51 42.5 -85.5t111.5 -34.5q66 0 110 34.5t44 85.5v345h-87v120h314v-120h-97v-345q0 -104 -77.5 -174.5t-206.5 -70.5q-132 0 -208 70t-76 175v344q-142 -4 -198 -32.5t-56 -90.5q0 -54 51 -54q47 0 47 64h125 q0 -77 -41 -130.5t-132 -53.5q-89 0 -132 51t-43 123zM440 868q0 33 20.5 55t48.5 22q31 0 49.5 -21t18.5 -49q0 -33 -20.5 -55t-48.5 -22q-31 0 -49.5 20.5t-18.5 49.5zM663 868q0 33 20.5 55t48.5 22q31 0 49.5 -21t18.5 -49q0 -33 -20.5 -55t-48.5 -22q-31 0 -49.5 20.5 t-18.5 49.5z" />
<glyph unicode="&#xdd;" horiz-adv-x="804" d="M-45 456q0 114 103.5 179t330.5 65h92v-120h-40l75 -166l75 166h-40v120h252v-120h-70l-152 -307v-153h97v-120h-324v120h97v153l-151 305q-122 -7 -171 -35t-49 -87q0 -54 51 -54q47 0 47 64h125q0 -77 -41 -130.5t-132 -53.5q-89 0 -132 51t-43 123zM420 810l101 183 l111 -75l-128 -158z" />
<glyph unicode="&#xde;" horiz-adv-x="601" d="M18 0v110h78v471h-77v110h294v-110h-87v-40q100 7 110 7q117 0 178 -56t61 -139q0 -92 -61 -151t-178 -59q-67 0 -110 2v-35h87v-110h-295zM226 265q41 -2 125 -2q43 0 68.5 24t25.5 66q0 35 -25.5 55t-68.5 20q-29 0 -125 -7v-156z" />
<glyph unicode="&#xdf;" d="M19 0v110h77v232h-71v108h71v61q0 20 2 39t13.5 52.5t31.5 57.5t61.5 42.5t98.5 18.5q97 0 143.5 -54t46.5 -118q0 -31 -16.5 -61.5t-35.5 -50t-35.5 -41.5t-16.5 -38t28 -40t61 -46.5t61 -57.5t28 -71q0 -66 -48.5 -111t-140.5 -45q-80 0 -140 25l26 121q52 -26 115 -26 q58 0 58 39q0 26 -28 54t-61 48.5t-61 50.5t-28 60q0 35 26 69t52 64.5t26 56.5q0 21 -15 36.5t-48 15.5q-39 0 -56.5 -25.5t-17.5 -63.5v-512h-207z" />
<glyph unicode="&#xe0;" horiz-adv-x="552" d="M20 131q0 78 56 127t165 49h79v36q0 47 -58 47q-60 0 -106 -13v-57h-115v149q49 19 114.5 30t109.5 11q87 0 136 -45.5t49 -121.5v-238h82v-87q-43 -23 -108 -23q-104 0 -104 70q-62 -75 -138 -75t-119 39t-43 102zM124 718l111 75l101 -183l-84 -50zM150 138 q0 -28 41 -28q69 0 129 82v4h-80q-46 0 -68 -16t-22 -42z" />
<glyph unicode="&#xe1;" horiz-adv-x="552" d="M20 131q0 78 56 127t165 49h79v36q0 47 -58 47q-60 0 -106 -13v-57h-115v149q49 19 114.5 30t109.5 11q87 0 136 -45.5t49 -121.5v-238h82v-87q-43 -23 -108 -23q-104 0 -104 70q-62 -75 -138 -75t-119 39t-43 102zM150 138q0 -28 41 -28q69 0 129 82v4h-80 q-46 0 -68 -16t-22 -42zM202 610l101 183l111 -75l-128 -158z" />
<glyph unicode="&#xe2;" horiz-adv-x="552" d="M20 131q0 78 56 127t165 49h79v36q0 47 -58 47q-60 0 -106 -13v-57h-115v149q49 19 114.5 30t109.5 11q87 0 136 -45.5t49 -121.5v-238h82v-87q-43 -23 -108 -23q-104 0 -104 70q-62 -75 -138 -75t-119 39t-43 102zM83 600l130 147h82l130 -147l-62 -50l-109 90l-109 -90 zM150 138q0 -28 41 -28q69 0 129 82v4h-80q-46 0 -68 -16t-22 -42z" />
<glyph unicode="&#xe3;" horiz-adv-x="552" d="M20 131q0 78 56 127t165 49h79v36q0 47 -58 47q-60 0 -106 -13v-57h-115v149q49 19 114.5 30t109.5 11q87 0 136 -45.5t49 -121.5v-238h82v-87q-43 -23 -108 -23q-104 0 -104 70q-62 -75 -138 -75t-119 39t-43 102zM80 600q18 48 47.5 76.5t67.5 28.5q6 0 12.5 -0.5 t14.5 -3t13.5 -4t17 -5.5t17.5 -6.5t21.5 -8.5t23.5 -9q8 6 31 20.5t32 21.5l55 -43q-18 -48 -47.5 -76.5t-67.5 -28.5q-31 0 -120 37l-63 -42zM150 138q0 -28 41 -28q69 0 129 82v4h-80q-46 0 -68 -16t-22 -42z" />
<glyph unicode="&#xe4;" horiz-adv-x="552" d="M20 131q0 78 56 127t165 49h79v36q0 47 -58 47q-60 0 -106 -13v-57h-115v149q49 19 114.5 30t109.5 11q87 0 136 -45.5t49 -121.5v-238h82v-87q-43 -23 -108 -23q-104 0 -104 70q-62 -75 -138 -75t-119 39t-43 102zM72 668q0 33 20.5 55t48.5 22q31 0 49.5 -21t18.5 -49 q0 -33 -20.5 -55t-48.5 -22q-31 0 -49.5 20.5t-18.5 49.5zM150 138q0 -28 41 -28q69 0 129 82v4h-80q-46 0 -68 -16t-22 -42zM295 668q0 33 20.5 55t48.5 22q31 0 49.5 -21t18.5 -49q0 -33 -20.5 -55t-48.5 -22q-31 0 -49.5 20.5t-18.5 49.5z" />
<glyph unicode="&#xe5;" horiz-adv-x="552" d="M20 131q0 78 56 127t165 49h79v36q0 47 -58 47q-60 0 -106 -13v-57h-115v149q49 19 114.5 30t109.5 11q87 0 136 -45.5t49 -121.5v-238h82v-87q-43 -23 -108 -23q-104 0 -104 70q-62 -75 -138 -75t-119 39t-43 102zM126 660q0 54 41 94.5t98 40.5t96.5 -40t39.5 -95 q0 -58 -39.5 -96.5t-96.5 -38.5q-58 0 -98.5 39.5t-40.5 95.5zM150 138q0 -28 41 -28q69 0 129 82v4h-80q-46 0 -68 -16t-22 -42zM216 660q0 -21 13.5 -35.5t35.5 -14.5q23 0 36.5 14.5t13.5 35.5q0 20 -14 35t-36 15t-35.5 -15t-13.5 -35z" />
<glyph unicode="&#xe6;" horiz-adv-x="839" d="M30 131q0 78 56 127t165 49h79v36q0 47 -58 47q-60 0 -106 -13v-57h-115v149q49 19 114.5 30t109.5 11q84 0 134 -56q64 56 163 56q107 0 165 -72t58 -184v-53h-335v-19q8 -33 37.5 -52.5t74.5 -19.5q31 0 59.5 6t40 11t34.5 18l24 13l52 -101q-82 -67 -210 -67 q-110 0 -176 69q-106 -69 -189 -69t-130 39t-47 102zM141 150q0 -40 56 -40q39 0 77 16.5t56 43.5v26h-99q-45 0 -67.5 -13t-22.5 -33zM461 302h204q-4 40 -27.5 64t-65.5 24q-45 0 -73.5 -24.5t-37.5 -63.5z" />
<glyph unicode="&#xe7;" horiz-adv-x="495" d="M35 250q0 113 64.5 186.5t180.5 73.5q99 0 176 -41v-164h-115v77q-27 8 -61 8q-54 0 -84.5 -39t-30.5 -101t30.5 -101t84.5 -39q39 0 70.5 9t44 16.5t33.5 22.5l52 -101q-43 -38 -109 -55l-39 -24q73 -19 73 -109q0 -65 -39.5 -97t-99.5 -32t-109 22l34 93q19 -10 58 -10 q48 0 48 28q0 31 -38 31q-21 0 -39 -8l-21 69l42 28q-98 12 -152 83t-54 174z" />
<glyph unicode="&#xe8;" horiz-adv-x="533" d="M35 250q0 113 64.5 186.5t180.5 73.5q107 0 165 -72t58 -184v-53h-338q3 -40 33.5 -65.5t81.5 -25.5q31 0 59.5 6t40 11t34.5 18l24 13l52 -101q-82 -67 -210 -67q-116 0 -180.5 73.5t-64.5 186.5zM168 718l111 75l101 -183l-84 -50zM169 302h204q-4 40 -27.5 64 t-65.5 24q-45 0 -73.5 -24.5t-37.5 -63.5z" />
<glyph unicode="&#xe9;" horiz-adv-x="533" d="M35 250q0 113 64.5 186.5t180.5 73.5q107 0 165 -72t58 -184v-53h-338q3 -40 33.5 -65.5t81.5 -25.5q31 0 59.5 6t40 11t34.5 18l24 13l52 -101q-82 -67 -210 -67q-116 0 -180.5 73.5t-64.5 186.5zM169 302h204q-4 40 -27.5 64t-65.5 24q-45 0 -73.5 -24.5t-37.5 -63.5z M215 610l101 183l111 -75l-128 -158z" />
<glyph unicode="&#xea;" horiz-adv-x="533" d="M35 250q0 113 64.5 186.5t180.5 73.5q107 0 165 -72t58 -184v-53h-338q3 -40 33.5 -65.5t81.5 -25.5q31 0 59.5 6t40 11t34.5 18l24 13l52 -101q-82 -67 -210 -67q-116 0 -180.5 73.5t-64.5 186.5zM107 600l130 147h82l130 -147l-62 -50l-109 90l-109 -90zM169 302h204 q-4 40 -27.5 64t-65.5 24q-45 0 -73.5 -24.5t-37.5 -63.5z" />
<glyph unicode="&#xeb;" horiz-adv-x="533" d="M35 250q0 113 64.5 186.5t180.5 73.5q107 0 165 -72t58 -184v-53h-338q3 -40 33.5 -65.5t81.5 -25.5q31 0 59.5 6t40 11t34.5 18l24 13l52 -101q-82 -67 -210 -67q-116 0 -180.5 73.5t-64.5 186.5zM96 657q0 33 20.5 55t48.5 22q31 0 49.5 -21t18.5 -49q0 -33 -20.5 -55 t-48.5 -22q-31 0 -49.5 20.5t-18.5 49.5zM169 302h204q-4 40 -27.5 64t-65.5 24q-45 0 -73.5 -24.5t-37.5 -63.5zM319 657q0 33 20.5 55t48.5 22q31 0 49.5 -21t18.5 -49q0 -33 -20.5 -55t-48.5 -22q-31 0 -49.5 20.5t-18.5 49.5z" />
<glyph unicode="&#xec;" horiz-adv-x="360" d="M30 718l111 75l101 -183l-84 -50zM40 0v110h78v280h-77v110h207v-390h87v-110h-295z" />
<glyph unicode="&#xed;" horiz-adv-x="359" d="M40 0v110h78v280h-77v110h207v-390h87v-110h-295zM108 610l101 183l111 -75l-128 -158z" />
<glyph unicode="&#xee;" horiz-adv-x="362" d="M-3 600l130 147h82l130 -147l-62 -50l-109 90l-109 -90zM42 0v110h78v280h-77v110h207v-390h87v-110h-295z" />
<glyph unicode="&#xef;" horiz-adv-x="361" d="M-12 668q0 33 20.5 55t48.5 22q31 0 49.5 -21t18.5 -49q0 -33 -20.5 -55t-48.5 -22q-31 0 -49.5 20.5t-18.5 49.5zM41 0v110h78v280h-77v110h207v-390h87v-110h-295zM211 668q0 33 20.5 55t48.5 22q31 0 49.5 -21t18.5 -49q0 -33 -20.5 -55t-48.5 -22q-31 0 -49.5 20.5 t-18.5 49.5z" />
<glyph unicode="&#xf0;" horiz-adv-x="537" d="M42 246q0 108 71.5 166.5t196.5 58.5q28 0 55 -4q-10 45 -50 85l-59 -54l-69 72l46 41q-38 19 -78 29l31 103q78 -19 135 -52l64 58l68 -72l-54 -49q110 -115 110 -315q0 -136 -56 -217t-179 -81q-112 0 -172 66t-60 165zM173 242q0 -45 23.5 -76.5t75.5 -31.5 q108 0 108 154q0 40 -5 57q-34 7 -63 7q-139 0 -139 -110z" />
<glyph unicode="&#xf1;" horiz-adv-x="640" d="M20 0v110h77v280h-77v110h177l15 -49q94 59 170 59q94 0 130 -55t36 -152v-198h82v-87q-43 -23 -112 -23q-53 0 -76.5 27t-23.5 88v193q0 44 -12 65.5t-51 21.5q-49 0 -128 -60v-220h87v-110h-294zM149 600q18 48 47.5 76.5t67.5 28.5q6 0 12.5 -0.5t14.5 -3t13.5 -4 t17 -5.5t17.5 -6.5t21.5 -8.5t23.5 -9q8 6 31 20.5t32 21.5l55 -43q-18 -48 -47.5 -76.5t-67.5 -28.5q-31 0 -120 37l-63 -42z" />
<glyph unicode="&#xf2;" d="M35 250q0 113 67 186.5t188 73.5t188 -73.5t67 -186.5t-67 -186.5t-188 -73.5t-188 73.5t-67 186.5zM155 718l111 75l101 -183l-84 -50zM165 250q0 -61 33 -100.5t92 -39.5t92 39.5t33 100.5t-33 100.5t-92 39.5t-92 -39.5t-33 -100.5z" />
<glyph unicode="&#xf3;" d="M35 250q0 113 67 186.5t188 73.5t188 -73.5t67 -186.5t-67 -186.5t-188 -73.5t-188 73.5t-67 186.5zM165 250q0 -61 33 -100.5t92 -39.5t92 39.5t33 100.5t-33 100.5t-92 39.5t-92 -39.5t-33 -100.5zM240 610l101 183l111 -75l-128 -158z" />
<glyph unicode="&#xf4;" d="M35 250q0 113 67 186.5t188 73.5t188 -73.5t67 -186.5t-67 -186.5t-188 -73.5t-188 73.5t-67 186.5zM119 600l130 147h82l130 -147l-62 -50l-109 90l-109 -90zM165 250q0 -61 33 -100.5t92 -39.5t92 39.5t33 100.5t-33 100.5t-92 39.5t-92 -39.5t-33 -100.5z" />
<glyph unicode="&#xf5;" d="M35 250q0 113 67 186.5t188 73.5t188 -73.5t67 -186.5t-67 -186.5t-188 -73.5t-188 73.5t-67 186.5zM112 600q18 48 47.5 76.5t67.5 28.5q6 0 12.5 -0.5t14.5 -3t13.5 -4t17 -5.5t17.5 -6.5t21.5 -8.5t23.5 -9q8 6 31 20.5t32 21.5l55 -43q-18 -48 -47.5 -76.5 t-67.5 -28.5q-31 0 -120 37l-63 -42zM165 250q0 -61 33 -100.5t92 -39.5t92 39.5t33 100.5t-33 100.5t-92 39.5t-92 -39.5t-33 -100.5z" />
<glyph unicode="&#xf6;" d="M35 250q0 113 67 186.5t188 73.5t188 -73.5t67 -186.5t-67 -186.5t-188 -73.5t-188 73.5t-67 186.5zM110 668q0 33 20.5 55t48.5 22q31 0 49.5 -21t18.5 -49q0 -33 -20.5 -55t-48.5 -22q-31 0 -49.5 20.5t-18.5 49.5zM165 250q0 -61 33 -100.5t92 -39.5t92 39.5t33 100.5 t-33 100.5t-92 39.5t-92 -39.5t-33 -100.5zM333 668q0 33 20.5 55t48.5 22q31 0 49.5 -21t18.5 -49q0 -33 -20.5 -55t-48.5 -22q-31 0 -49.5 20.5t-18.5 49.5z" />
<glyph unicode="&#xf7;" horiz-adv-x="430" d="M60 283v117h310v-117h-310zM147 166q0 31 21.5 52.5t51.5 21.5q31 0 52.5 -21.5t21.5 -52.5q0 -30 -21.5 -51.5t-52.5 -21.5q-30 0 -51.5 21.5t-21.5 51.5zM147 523q0 31 21.5 52.5t51.5 21.5q31 0 52.5 -21.5t21.5 -52.5q0 -30 -21.5 -51.5t-52.5 -21.5 q-30 0 -51.5 21.5t-21.5 51.5z" />
<glyph unicode="&#xf8;" horiz-adv-x="623" d="M34 0l56 76q-55 68 -55 174q0 113 67 186.5t188 73.5q57 0 106 -19l7 9h141l-56 -76q57 -69 57 -174q0 -113 -67 -186.5t-188 -73.5q-56 0 -109 20l-7 -10h-140zM165 250q0 -33 9 -60l145 197q-13 3 -29 3q-59 0 -92 -39.5t-33 -100.5zM258 113q15 -3 32 -3q59 0 92 39.5 t33 100.5q0 33 -11 61z" />
<glyph unicode="&#xf9;" horiz-adv-x="630" d="M10 395v105h207v-303q0 -44 12.5 -66t50.5 -22q46 0 128 61v220h-62v110h192v-395h82v-87q-43 -23 -112 -23q-70 0 -90 51q-92 -57 -165 -57q-94 0 -130 55.5t-36 152.5v198h-77zM188 718l111 75l101 -183l-84 -50z" />
<glyph unicode="&#xfa;" horiz-adv-x="630" d="M10 395v105h207v-303q0 -44 12.5 -66t50.5 -22q46 0 128 61v220h-62v110h192v-395h82v-87q-43 -23 -112 -23q-70 0 -90 51q-92 -57 -165 -57q-94 0 -130 55.5t-36 152.5v198h-77zM246 610l101 183l111 -75l-128 -158z" />
<glyph unicode="&#xfb;" horiz-adv-x="630" d="M10 395v105h207v-303q0 -44 12.5 -66t50.5 -22q46 0 128 61v220h-62v110h192v-395h82v-87q-43 -23 -112 -23q-70 0 -90 51q-92 -57 -165 -57q-94 0 -130 55.5t-36 152.5v198h-77zM140 600l130 147h82l130 -147l-62 -50l-109 90l-109 -90z" />
<glyph unicode="&#xfc;" horiz-adv-x="630" d="M10 395v105h207v-303q0 -44 12.5 -66t50.5 -22q46 0 128 61v220h-62v110h192v-395h82v-87q-43 -23 -112 -23q-70 0 -90 51q-92 -57 -165 -57q-94 0 -130 55.5t-36 152.5v198h-77zM138 668q0 33 20.5 55t48.5 22q31 0 49.5 -21t18.5 -49q0 -33 -20.5 -55t-48.5 -22 q-31 0 -49.5 20.5t-18.5 49.5zM361 668q0 33 20.5 55t48.5 22q31 0 49.5 -21t18.5 -49q0 -33 -20.5 -55t-48.5 -22q-31 0 -49.5 20.5t-18.5 49.5z" />
<glyph unicode="&#xfd;" horiz-adv-x="549" d="M10 390v110h238v-110h-27l74 -223l65 223h-36v110h230v-110h-62l-115 -390q-66 -226 -242 -226q-54 0 -115 18l35 126q46 -13 80 -13q62 0 100 80l-164 405h-61zM226 610l101 183l111 -75l-128 -158z" />
<glyph unicode="&#xfe;" horiz-adv-x="582" d="M10 -105h77v695h-77v110h207v-255q46 65 118 65q102 0 157 -72.5t55 -182.5q0 -117 -60 -191t-171 -74q-46 0 -99 20v-115h77v-110h-284v110zM217 136q34 -26 77 -26q56 0 89.5 37.5t33.5 103.5q0 59 -25.5 99t-71.5 40q-44 0 -72 -33t-31 -82v-139z" />
<glyph unicode="&#xff;" horiz-adv-x="549" d="M10 390v110h238v-110h-27l74 -223l65 223h-36v110h230v-110h-62l-115 -390q-66 -226 -242 -226q-54 0 -115 18l35 126q46 -13 80 -13q62 0 100 80l-164 405h-61zM118 668q0 33 20.5 55t48.5 22q31 0 49.5 -21t18.5 -49q0 -33 -20.5 -55t-48.5 -22q-31 0 -49.5 20.5 t-18.5 49.5zM341 668q0 33 20.5 55t48.5 22q31 0 49.5 -21t18.5 -49q0 -33 -20.5 -55t-48.5 -22q-31 0 -49.5 20.5t-18.5 49.5z" />
<glyph unicode="&#x152;" horiz-adv-x="996" d="M-45 350q0 157 91 258.5t244 101.5q116 0 200 -61v51h465v-205h-115v85h-220v-161l2 -13h76v60h115v-240h-115v60h-77q-1 -2 -1 -6v-160h229v85h115v-205h-474v50q-83 -60 -200 -60q-155 0 -245 101.5t-90 258.5zM90 350q0 -104 54.5 -172t145.5 -68t145.5 68t54.5 172 v12q-3 98 -58 160.5t-142 62.5q-40 0 -71 -25t-31 -65q0 -54 36 -54q47 0 47 64h125q0 -78 -41 -131t-132 -53q-41 0 -76 26t-52 57q-5 -12 -5 -54z" />
<glyph unicode="&#x153;" horiz-adv-x="928" d="M35 250q0 113 67 186.5t188 73.5q126 0 196 -83q67 83 189 83q107 0 165 -72t58 -184v-53h-338q3 -40 33.5 -65.5t81.5 -25.5q31 0 59.5 6t40 11t35.5 18l23 13l52 -101q-82 -67 -210 -67q-122 0 -189 83q-70 -83 -196 -83q-121 0 -188 73.5t-67 186.5zM165 250 q0 -61 33 -100.5t92 -39.5t92 39.5t33 100.5t-33 100.5t-92 39.5t-92 -39.5t-33 -100.5zM564 302h204q-4 40 -27.5 64t-65.5 24q-45 0 -73.5 -24.5t-37.5 -63.5z" />
<glyph unicode="&#x2c6;" horiz-adv-x="519" d="M87 800l130 147h82l130 -147l-62 -50l-109 90l-109 -90z" />
<glyph unicode="&#x2dc;" horiz-adv-x="551" d="M109 800q18 48 47.5 76.5t67.5 28.5q6 0 12.5 -0.5t14.5 -3t13.5 -4t17 -5.5t17.5 -6.5t21.5 -8.5t23.5 -9q8 6 31 20.5t32 21.5l55 -43q-18 -48 -47.5 -76.5t-67.5 -28.5q-31 0 -120 37l-63 -42z" />
<glyph unicode="&#x2000;" horiz-adv-x="496" />
<glyph unicode="&#x2001;" horiz-adv-x="993" />
<glyph unicode="&#x2002;" horiz-adv-x="496" />
<glyph unicode="&#x2003;" horiz-adv-x="993" />
<glyph unicode="&#x2004;" horiz-adv-x="331" />
<glyph unicode="&#x2005;" horiz-adv-x="248" />
<glyph unicode="&#x2006;" horiz-adv-x="165" />
<glyph unicode="&#x2007;" horiz-adv-x="165" />
<glyph unicode="&#x2008;" horiz-adv-x="124" />
<glyph unicode="&#x2009;" horiz-adv-x="198" />
<glyph unicode="&#x200a;" horiz-adv-x="55" />
<glyph unicode="&#x2010;" horiz-adv-x="430" d="M60 231v117h310v-117h-310z" />
<glyph unicode="&#x2011;" horiz-adv-x="430" d="M60 231v117h310v-117h-310z" />
<glyph unicode="&#x2012;" horiz-adv-x="430" d="M60 231v117h310v-117h-310z" />
<glyph unicode="&#x2013;" horiz-adv-x="643" d="M30 231v117h583v-117h-583z" />
<glyph unicode="&#x2014;" horiz-adv-x="674" d="M0 231v117h674v-117h-674z" />
<glyph unicode="&#x2018;" horiz-adv-x="284" d="M49 684q0 38 27.5 101t68.5 106l57 -35q-49 -61 -54 -115q24 -9 37 -31t13 -40q0 -31 -21 -50.5t-54 -19.5q-30 0 -52 20.5t-22 63.5z" />
<glyph unicode="&#x2019;" horiz-adv-x="284" d="M49 454q49 61 54 115q-24 9 -37 31t-13 40q0 31 21 50.5t54 19.5q30 0 52 -20.5t22 -63.5q0 -38 -27.5 -101t-68.5 -106z" />
<glyph unicode="&#x201a;" horiz-adv-x="284" d="M70 -136q49 61 54 115q-24 9 -37 31t-13 40q0 31 21 50.5t54 19.5q30 0 52 -20.5t22 -63.5q0 -38 -27.5 -101t-68.5 -106z" />
<glyph unicode="&#x201c;" horiz-adv-x="480" d="M49 684q0 38 27.5 101t68.5 106l57 -35q-49 -61 -54 -115q24 -9 37 -31t13 -40q0 -31 -21 -50.5t-54 -19.5q-30 0 -52 20.5t-22 63.5zM245 684q0 38 27.5 101t68.5 106l57 -35q-49 -61 -54 -115q24 -9 37 -31t13 -40q0 -31 -21 -50.5t-54 -19.5q-30 0 -52 20.5t-22 63.5z " />
<glyph unicode="&#x201d;" horiz-adv-x="480" d="M49 454q49 61 54 115q-24 9 -37 31t-13 40q0 31 21 50.5t54 19.5q30 0 52 -20.5t22 -63.5q0 -38 -27.5 -101t-68.5 -106zM245 454q49 61 54 115q-24 9 -37 31t-13 40q0 31 21 50.5t54 19.5q30 0 52 -20.5t22 -63.5q0 -38 -27.5 -101t-68.5 -106z" />
<glyph unicode="&#x201e;" horiz-adv-x="480" d="M70 -136q49 61 54 115q-24 9 -37 31t-13 40q0 31 21 50.5t54 19.5q30 0 52 -20.5t22 -63.5q0 -38 -27.5 -101t-68.5 -106zM266 -136q49 61 54 115q-24 9 -37 31t-13 40q0 31 21 50.5t54 19.5q30 0 52 -20.5t22 -63.5q0 -38 -27.5 -101t-68.5 -106z" />
<glyph unicode="&#x2022;" horiz-adv-x="350" d="M70 310q0 45 32 77.5t78 32.5q45 0 77.5 -32.5t32.5 -77.5q0 -46 -32.5 -78t-77.5 -32q-46 0 -78 32t-32 78z" />
<glyph unicode="&#x202f;" horiz-adv-x="198" />
<glyph unicode="&#x2039;" horiz-adv-x="360" d="M58 176v54l182 171l54 -49l-120 -149l120 -149l-54 -49z" />
<glyph unicode="&#x203a;" horiz-adv-x="360" d="M66 54l120 149l-120 149l54 49l182 -171v-54l-182 -171z" />
<glyph unicode="&#x205f;" horiz-adv-x="248" />
<glyph unicode="&#x20ac;" horiz-adv-x="687" d="M7 223l20 117h50v8q0 27 1 40h-71l20 117h77q37 95 116.5 150t191.5 55q97 0 169.5 -60t72.5 -155q0 -72 -43 -123t-132 -51q-98 0 -142 67h-123q-2 -15 -2 -38v-10h136l-20 -117h-88q54 -108 172 -108q103 0 185 86l76 -95q-93 -116 -261 -116q-122 0 -204.5 62.5 t-113.5 170.5h-87zM256 505h175q0 -64 47 -64q36 0 36 54q0 40 -31 65t-71 25q-99 0 -156 -80z" />
<glyph unicode="&#xe000;" horiz-adv-x="500" d="M0 0v500h500v-500h-500z" />
</font>
</defs>
</svg>
