<?xml version="1.0" standalone="no"?>
<!DOCTYPE svg PUBLIC "-//W3C//DTD SVG 1.1//EN" "http://www.w3.org/Graphics/SVG/1.1/DTD/svg11.dtd" >
<svg xmlns="http://www.w3.org/2000/svg">
<metadata></metadata>
<defs>
<font id="florante_at_lauraregular" horiz-adv-x="559" >
<font-face units-per-em="1000" ascent="800" descent="-200" />
<missing-glyph horiz-adv-x="453" />
<glyph horiz-adv-x="1000" />
<glyph horiz-adv-x="1000" />
<glyph unicode="&#xd;" horiz-adv-x="453" />
<glyph unicode=" "  horiz-adv-x="453" />
<glyph unicode="&#x09;" horiz-adv-x="453" />
<glyph unicode="&#xa0;" horiz-adv-x="453" />
<glyph unicode="!" horiz-adv-x="471" d="M352 302q-5 -19 -56 -78q-58 -67 -86 -67q1 0 -44 27v131q0 4 3 8t3 8v278q0 6 -10 17t-15 11q-3 0 -19.5 -9.5t-24.5 -10.5q-7 7 -7 8q0 27 77 101t101 74q6 0 26 -23.5t20 -27.5v-291q0 -3 -3 -7t-3 -7v-113q13 -10 38 -29zM378 130q0 -35 -73 -108.5t-106 -73.5 q-9 0 -38 20.5t-41 20.5q5 0 -40 -12q-7 7 -7 9q0 41 78 98q71 53 99 53q19 0 43 -14.5t23 -14.5q4 0 20 13q21 16 26 19h13q3 -4 3 -10z" />
<glyph unicode="&#x22;" horiz-adv-x="683" d="M604 713q0 -45 -59 -115q-54 -64 -104 -91l-15 3q2 11 17 35q13 21 13 39q0 25 -11 47q-6 12 -36 55q-33 -25 -37 -25h-15v18q-1 22 76.5 93t96.5 71q24 0 51 -63q23 -53 23 -67zM308 707q0 -58 -67 -140t-128 -94q18 36 43 71q7 9 7 51q0 15 -36 51q-4 -2 -20 -13.5 t-20 -11.5h-15q2 20 62 96q68 86 106 86q29 0 50 -39q18 -32 18 -57z" />
<glyph unicode="#" horiz-adv-x="933" d="M883 345q-11 -56 -144 -155q13 -32 69 -73q8 -16 -48 -76.5t-80 -60.5q-10 0 -52 46t-42 50v148h-135q-27 0 -85 -15v-42q16 -9 94 -56q-3 -18 -52 -75q-53 -61 -78 -61q-6 0 -55 33t-48 35v139q-36 -2 -77 -29q-60 -39 -78 -47q-4 3 -4 9q0 27 71 90q51 44 93 72v155 q-8 10 -44.5 28.5t-40.5 18.5q-2 0 -24 -18q-28 -21 -43 -30l-13 3q-2 23 60 88q53 54 99 90q-16 10 -33 20q-21 13 -35 11q-4 3 -4 9q0 27 57 77t77 50q10 0 44 -16t34 -25v-166q66 -18 103 -18t101 18v34l-42 32q-36 30 -36 41q0 19 54.5 73t75.5 54q22 -14 39 -27 q40 -31 48 -52l2 -110q29 7 80 49q56 47 72 54h15q-3 -18 -18 -39q-13 -16 -26 -33q-30 -29 -61 -58q-56 -56 -56 -67l3 -148q-4 -10 11 -15t27.5 -8.5t42.5 -18.5q25 -12 29 -12q2 0 19 12t20 12h14zM580 361q-1 34 -4 71q-1 27 -1 36q-118 -40 -203 -51q0 -8 -3 -25 t-3 -19v-49q144 31 214 37z" />
<glyph unicode="$" horiz-adv-x="733" d="M659 328q0 -24 -1 -27q-4 -13 -73 -92q-77 -88 -102 -88l-25 18.5t-40 23.5q-11 -47 -48.5 -95t-84.5 -75h-11v10q30 84 30 123q0 42 -3 61q-68 2 -99 -2q-55 -7 -91 -36h-13q46 99 121 132q52 24 154 24q48 0 59 -1q28 -3 95 -19q-8 28 -57 56q-43 26 -66 26h-112 q-33 0 -66 19q-41 24 -41 63q0 22 20 59t68 84q40 38 40 51t-2 16q-11 8 -22 17q-13 -8 -39 -21q-3 4 -3 8q0 20 62 78.5t80 58.5q46 0 46 -103q0 -29 -9 -41q4 -8 40 -19t66 -11q36 0 103 45l14 -3q-22 -56 -93.5 -107.5t-128.5 -51.5q-29 0 -63 11q-48 15 -58 17 q23 -54 98 -54h110q10 0 46 -14q56 -23 80 -64q19 -33 19 -77z" />
<glyph unicode="%" horiz-adv-x="935" d="M499 707q0 -59 -82 -134q-24 -23 -147 -117q-9 -6 -42 -6q-79 0 -79 70q0 54 58 123q50 59 119 107q66 46 94 46q37 0 60 -30q19 -26 19 -59zM905 311q0 -63 -110.5 -167.5t-168.5 -104.5q-71 0 -71 94q0 35 3 45q14 42 82 112q61 63 105 91q15 9 69 9q91 0 91 -79z M905 758q-2 -35 -81.5 -104t-121.5 -69q-3 0 -16.5 4t-16.5 4q-126 -160 -211 -277q-34 -45 -70.5 -117t-59.5 -102q-40 -54 -106 -100h-12q0 1 -2 9q0 4 -4 4q-3 0 -3.5 -1.5t-4.5 -1.5l-17 8t-45 8q-39 0 -42 -8q-5 -14 -42 -23q-4 3 -4 9q0 12 17 32q30 37 72 74 q57 51 87 51h70q38 67 76 123q63 79 173 221q44 68 89 136q66 92 129 115q37 -34 63 -34q7 0 35 17q32 21 36 22h12zM365 585v15q0 18 -21.5 39.5t-41.5 21.5q-13 0 -19 -6q0 -32 1 -36t20 -19t26 -15h35zM771 182q2 12 -10 41q-15 32 -31 32h-41v-30q0 -17 18.5 -34 t38.5 -17q17 0 25 8z" />
<glyph unicode="&#x26;" horiz-adv-x="967" d="M968 548q-8 -40 -74 -95.5t-106 -55.5q-20 0 -30 7t-15 8l-149 -193q30 -49 136 -49q36 0 68 20q17 10 44 36q20 20 28 20h14q-23 -66 -114 -136.5t-154 -70.5q-35 0 -80 12q-62 17 -67 44q-126 -101 -208 -101q-47 0 -114 42q-79 50 -79 107q0 45 38 109q33 57 85 111 q-123 34 -123 141q0 87 79 187q86 109 184 109q60 0 104 -43t44 -101q0 -47 -53 -109q7 0 24.5 3t19.5 3q64 0 117 -66q48 -61 54 -130l96 112q67 71 123 87q6 -5 1 -14q25 -14 26 -14q-1 0 15 0q11 0 18 2q24 10 48 18zM350 540q0 39 -33 82q-36 47 -77 47h-43v-28 q-1 -12 -1 -21q0 -46 37 -86.5t83 -40.5q14 0 24 17t10 30zM511 233q0 57 -41 118q-47 71 -114 71q-56 0 -108 -55t-52 -110q0 -47 77 -93q66 -39 104 -39q44 0 84 25q50 31 50 83z" />
<glyph unicode="'" horiz-adv-x="415" d="M307 707q0 -58 -67 -140t-128 -94q18 36 43 71q7 9 7 51q0 15 -36 51q-4 -2 -20 -13.5t-20 -11.5h-15q2 20 62 96q68 86 106 86q29 0 50 -39q18 -32 18 -57z" />
<glyph unicode="(" horiz-adv-x="504" d="M469 761q1 -3 -27 -39t-63 -62q-40 -30 -68 -30q-12 0 -52 13q-32 -43 -52.5 -109t-20.5 -119q0 -71 38.5 -149t88.5 -103q17 -11 33 -21q29 -15 44 -15q2 0 16 7.5t26 10.5v-12q1 -31 -67.5 -87.5t-92.5 -56.5q-16 0 -50 18q-19 10 -38 21q-63 29 -102 122 q-31 76 -31 144q0 65 49 186q51 127 118 214q78 103 143 103q31 -29 70 -29q13 0 38 8v-15z" />
<glyph unicode=")" horiz-adv-x="612" d="M550 475q0 -114 -56 -227.5t-151 -195.5l-38 -34q-30 -24 -45 -24q-3 0 -39.5 23t-71.5 23q-14 0 -34 -9t-19 -9h-13q11 43 73.5 96.5t104.5 53.5q25 0 54.5 -11t44.5 -25q57 65 57 221q0 86 -30 160q-44 105 -140 148q-21 -16 -51 -28q-9 6 -9 11q0 29 71.5 90.5 t96.5 61.5q3 0 59 -35q73 -46 108 -137q28 -72 28 -153z" />
<glyph unicode="*" horiz-adv-x="828" d="M781 503q-26 -68 -102 -118q-71 -48 -132 -48q-52 0 -72 9l-46 -134q-40 -88 -119 -126q56 153 56 225q0 2 -8 83q-29 -16 -90.5 -85.5t-95.5 -86.5h-13q0 1 1.5 4t1.5 8q0 22 -46 20q-24 0 -44 -14h-14q66 124 154 124q39 0 49 -12l61 61q-39 34 -144 117q-2 -1 -28 -20 q-20 -16 -35 -17q3 32 70 94t91 62q49 -49 82 -78q1 28 8 82q-35 27 -35 40t43.5 58.5t58.5 45.5q4 0 18 -15q19 -21 24 -25q0 -14 -5 -42l2 -173q3 2 93 90q60 57 102 82h13q0 -1 -1.5 -6.5t-1.5 -9.5q17 -8 33 -8q14 0 46 21h13q-14 -39 -65 -85t-87 -46q-4 0 -20 3t-19 3 q-7 0 -105 -90q68 -33 100 -42q28 -7 75 -7q51 0 71 18q31 27 62 38z" />
<glyph unicode="+" horiz-adv-x="708" d="M619 407q0 -21 -54 -73q-39 -37 -59 -50q-31 -22 -71 -44q8 -60 -52 -136q-55 -71 -121 -103q-6 6 -6 8q0 7 24 41t24 52v112q-55 4 -104 10q-6 1 -22 12t-18 11q-4 0 -22.5 -13t-21.5 -13h-11q-3 4 -3 9q0 30 77 93q73 60 93 60q10 0 21 -13q1 1 1 64q-5 3 -31 21 q-19 12 -23 12q-3 0 -8.5 -4t-8.5 -3h-13v11q0 15 63.5 75t89.5 62q4 -13 28 -27q28 -16 34 -23v-105l10 -102q3 -2 19 -2q49 0 94 28q54 33 68 36q3 0 3 -6z" />
<glyph unicode="," horiz-adv-x="440" d="M298 79q0 -63 -40.5 -123t-111.5 -99l-2 8q13 23 27 45q16 31 16 69q0 23 -5 32q-2 4 -16 13q-21 -14 -33 -14q-1 2 -1 5q0 21 54.5 71.5t76.5 50.5q35 0 35 -58z" />
<glyph unicode="-" d="M502 452q-21 -62 -98 -117.5t-141 -55.5l-139 40l-47 -27h-14v11q0 22 69.5 87t90.5 65q3 0 79.5 -22t79.5 -22q40 0 74 20.5t33 20.5h13z" />
<glyph unicode="." horiz-adv-x="402" d="M298 95q1 -15 -44 -62t-64 -47q-8 0 -22.5 17t-21.5 17q1 0 -24 -10q-6 4 -6 7q0 21 44.5 57.5t64.5 36.5q5 0 38 -33q11 9 25 17h10z" />
<glyph unicode="/" horiz-adv-x="708" d="M660 784q1 -3 -34 -69q-39 -72 -60 -103q-1 -2 -169 -262q-112 -172 -192 -274q-14 -18 -43 -44q-36 -32 -58 -41h-13v12q0 7 127 194q139 206 164 250q47 72 104 174q11 30 66 93q60 68 96 83h12v-13z" />
<glyph unicode="0" horiz-adv-x="734" d="M631 421q0 -65 -3 -88q-3 -28 -4 -38q-1 -63 -128 -183q-130 -122 -203 -122q-22 0 -31 3q-13 4 -23 5q-27 13 -64 53q-42 48 -64 101q-24 57 -24 71v236q0 48 80 136q69 75 158 141t115 62q125 -84 165 -188q26 -66 26 -189zM462 269q0 62 -8 91q1 16 -1 37 q-8 15 -18 49q-8 28 -29 60q-18 29 -58 68q-49 47 -72 47q-5 0 -12.5 -9t-7.5 -13v-207q0 -46 62 -137q67 -96 117 -96h18q1 13 5 56q4 40 4 54z" />
<glyph unicode="1" horiz-adv-x="458" d="M398 168q-25 -54 -86 -112q-67 -65 -108 -60q-8 14 -32 30q-33 22 -35 23v126q-2 9 -5 18q-5 17 -3 29l-2 342l-30 -24q-31 -23 -38 -23h-12v18q0 25 105.5 141.5t142.5 123.5h12v-433q0 -3 4.5 -7.5t4.5 -8.5v-125q55 -41 82 -58z" />
<glyph unicode="2" horiz-adv-x="772" d="M804 231q0 -34 -90 -105q-72 -57 -99 -69q-48 -21 -70 -23q-2 -1 -82 -1q-62 0 -102 4t-41 4q-3 0 -37 -5t-36 -5q-3 0 -22.5 1t-23.5 1q-40 0 -89 -15q-33 -13 -67 -25l-19 4q35 123 309 347q21 24 65 66q40 32 52 46q18 22 18 48q0 48 -45 86q-42 35 -84 35h-71 q-3 -40 -66 -105q-59 -61 -108 -82q-5 10 -23 31v70q0 39 130.5 149.5t175.5 110.5h39q29 1 31 1q90 0 136 -25q60 -32 60 -111q0 -71 -74 -165q-55 -70 -162 -165q-82 -70 -163 -140q1 -1 8 -1q3 0 29 8t29 8h105q2 0 18.5 4t44.5 4q4 0 72 -4t71 -4q71 0 86 3.5t48 19.5 q30 14 33 14h14v-15z" />
<glyph unicode="3" horiz-adv-x="850" d="M774 401q0 -8 1 -19t1 -17q0 -25 -21 -76q-36 -83 -141 -188q-120 -120 -202 -120q1 0 -110.5 31t-157.5 31q-23 0 -37 -5q-26 -12 -50 -18l-15 4q107 187 258 187q28 0 147.5 -28.5t118.5 -28.5q40 0 40 95q0 54 -51 100q-48 43 -97 43q-17 0 -87.5 -16t-80.5 -21 q-24 -14 -72 -41l-13 4q15 54 76 114q149 149 173 175l-224 2q-25 7 -29 7t-40 -27t-39 -27h-16q-3 4 -3 9q0 30 91.5 129.5t123.5 99.5q3 0 27 -8q31 -10 51 -15l276 -4q-16 -53 -103 -128q-97 -83 -116 -117q25 9 77 20q57 12 81 12q39 0 89 -29q57 -33 73 -78q1 -3 1 -52 z" />
<glyph unicode="4" horiz-adv-x="743" d="M727 350q0 -17 -54 -72q-29 -27 -57 -55q-3 -7 -3 -24q0 -20 1 -21q5 -7 23 -21q13 -9 13 -23q0 -37 -76 -101q-70 -59 -89 -59q-3 4 -28 28q-20 18 -20 22q0 3 3.5 10.5t3.5 10.5q5 29 9 78v66h-141q-3 0 -17 -4t-17 -4h-103q2 0 -99 -23l-25 4q37 162 278 455 q-20 14 -40 14q-36 0 -106 -43q-78 -50 -93 -54q27 82 154 175q124 91 199 91q26 0 43 -10q28 -15 34 -17v-16l-115 -136q-119 -139 -133 -185q-17 -36 -41 -104q12 2 42 10q27 7 29 7h105q-1 0 52 8q1 2 1 10q0 15 -5 48l-5 33q0 40 61.5 105t106.5 76q5 -23 11 -74 q3 -53 3 -93q0 -1 -5 -40t-6 -65h66q2 0 7 4t9 4h24v-15z" />
<glyph unicode="5" horiz-adv-x="792" d="M849 822q0 -30 -75 -107q-70 -73 -96.5 -85t-51.5 -24q-50 -21 -75 -21q14 0 -80 2q-45 1 -55 16q-10 -14 -21 -27q-12 -18 -13 -31q20 8 75 8q91 0 154 -61t63 -147q0 -72 -72 -160q-59 -73 -146 -134q-78 -57 -112 -59.5t-88 -2.5q-8 0 -69.5 25t-60.5 25q-3 0 -23 -5 t-23 -5t-8.5 1.5t-8.5 1.5q-4 0 -20 -6q-19 -8 -30 -10q-3 4 -3 10q0 30 66 94q55 54 75 64q16 8 42 19q82 11 93 11q-3 0 60 -25t104 -25q38 0 52 7q6 88 -60 151q-61 59 -140 59q-54 0 -106 -24l-18 4q-2 10 51 86q60 86 73 126q28 79 94 150q72 76 132 76q-7 0 43 -20 t106 -20q58 0 82 18q53 40 83 54q7 -7 7 -9z" />
<glyph unicode="6" horiz-adv-x="813" d="M737 403q0 -44 -31 -90q-21 -32 -83 -99q-11 -21 -43 -63q-79 -82 -129 -118q-75 -54 -139 -54q-45 0 -85 19q-24 14 -48 27q-52 26 -74 57q-15 21 -29 69q-1 3 -1 77q0 75 7 99l26 80q23 86 135 214q115 133 197 159q2 1 15 9.5t21 8.5q-3 0 26 -15.5t55 -15.5 q34 0 52 8q34 16 61 23q3 -3 3 -10q0 -44 -88 -113q-77 -61 -102 -65q-11 -6 -35 -14q-22 -3 -72 -3q-16 0 -33 13t-19 13q-33 0 -77 -180l1 -81q65 90 155 146q85 52 158 52q56 0 112 -41q64 -47 64 -112zM565 249q0 55 -65 97q-55 36 -99 36q-41 0 -70 -22 q-35 -33 -71 -65q9 -53 87 -101q71 -44 121 -44q25 0 39 6q10 5 34 43t24 50z" />
<glyph unicode="7" horiz-adv-x="765" d="M820 808q2 -23 -58 -83q-5 -5 -89 -83q-46 -43 -191 -225q20 -8 40.5 -16t51.5 -8q35 0 48 11q25 20 47 30l19 -4q-25 -72 -115 -143.5t-160 -71.5q-37 0 -85 14q-32 -69 -87 -135q-64 -78 -119 -101l-19 5q22 91 165 252q-14 18 -44 22q-5 1 -43 1q-40 0 -44 -1 q-17 -4 -67 -32l-17 4q15 55 93 125t132 81q5 1 64 1q62 0 81 -9l125 141q-52 -19 -104 -37q-8 -2 -84 -2q-68 0 -119 14q-34 10 -63 26q-24 15 -26 15q-28 -27 -47 -44q-53 -47 -84 -60l-17 3q-3 28 123 159t164 131q2 0 37 -17q43 -21 82 -32q57 -17 113 -17q98 0 272 90z " />
<glyph unicode="8" horiz-adv-x="756" d="M670 392q0 -46 -64 -145t-142 -172q-90 -84 -150 -84q-80 0 -150 47q-76 52 -76 127q0 35 12 55q27 35 54 69q-11 1 -34 10q-52 29 -70 65q-13 26 -13 73q0 115 115 241q111 122 201 122q41 0 97 -37q53 -35 62 -62l16 -34q3 -7 3 -46q0 -42 -10 -59q31 -19 61 -38 q45 -33 72 -83q16 -28 16 -49zM372 459q5 11 5 24q0 51 -56.5 104.5t-104.5 53.5q-21 0 -21 -61q0 -48 35 -88q38 -43 93 -43q19 0 49 10zM509 248q0 21 -49 81q-51 64 -79 64q-2 0 -52 -37q-55 -42 -83 -56q15 -63 81 -109q63 -44 118 -37q9 13 44 52q20 24 20 42z" />
<glyph unicode="9" horiz-adv-x="722" d="M653 763q0 -1 -27.5 -43l-27.5 -42q0 -3 3.5 -25.5t3.5 -24.5v-75q0 -3 3 -9t3 -9v-202q0 -1 3.5 -13t3.5 -44q0 -44 -8 -55q-28 -40 -112 -126q-98 -102 -124 -102q-3 0 -33 18q-37 22 -69 34q-47 18 -91 18q-2 0 -31.5 -5t-32.5 -5q-2 0 -6 1.5t-6 1.5q-3 0 -14.5 -7 t-14.5 -7h-16q-1 0 -2 1t-1 6q0 31 78 97q74 63 97 62q10 -1 48 2l38 3q75 0 144 -37q-1 -1 -1 13l-2 187q-12 -21 -67 -65q-59 -49 -82 -49q-82 0 -132.5 50t-50.5 124q0 96 72.5 191.5t200.5 170.5q4 -31 58 -46q37 -10 84 -10q24 0 60 14l36 14h12q1 0 2 -1t1 -6z M454 423q0 17 -4 51q-2 18 -3 35v82h-29q-20 1 -19 1q-61 0 -121 20v-77q-1 -28 53.5 -74t93.5 -46q20 0 29 8z" />
<glyph unicode=":" horiz-adv-x="356" d="M263 265q2 -16 -43 -63t-65 -47q-7 0 -22 17t-21 17l-25 -10q-5 5 -5 8q0 21 44.5 57t64.5 36q5 0 37 -32q11 8 26 17h9zM264 562q2 -16 -43 -63t-64 -47q-8 0 -23 17.5t-21 17.5l-24 -11q-6 5 -6 8q0 21 44.5 57.5t64.5 36.5q5 0 38 -33q10 8 25 17h9z" />
<glyph unicode=";" horiz-adv-x="377" d="M274 79q0 -63 -40 -123t-111 -99l-3 8q13 23 27 45q16 31 16 69q0 23 -5 32q-2 4 -15 13q-21 -14 -33 -14q-2 2 -2 5q0 21 54.5 71.5t76.5 50.5q35 0 35 -58zM273 431q1 -15 -44 -62.5t-64 -47.5q-8 0 -22.5 17.5t-21.5 17.5q1 0 -24 -10q-6 4 -6 7q0 21 44.5 57.5 t64.5 36.5q5 0 38 -33q11 9 25 17h10z" />
<glyph unicode="&#x3c;" horiz-adv-x="703" d="M647 157q-21 -58 -85.5 -110t-118.5 -52q-92 0 -205 111q-90 95 -181 190q-4 34 121 178q26 31 82 111t90 119q54 62 108 93l14 -4q-3 -21 -11 -31q-199 -245 -258 -335q90 -94 179 -187q109 -102 189 -102q27 0 60 19h16z" />
<glyph unicode="=" horiz-adv-x="646" d="M551 567q-27 -67 -98 -108q-61 -36 -122 -36q-43 0 -72 9.5t-42 9.5q-9 0 -21 -9q-21 -15 -32 -21h-11v10q0 16 59 72q51 48 67 59q13 8 31 8q24 0 51.5 -9.5t74.5 -9.5q31 0 36 1q13 3 66 24h13zM558 367q0 -29 -81 -84q-74 -51 -92 -51q-13 -1 -43 -3.5t-32 -2.5 q-49 0 -98.5 16.5t-48.5 16.5q3 0 -32 -21l-11 3q2 18 54 75q56 61 88 61q4 0 53 -16t103 -16q41 0 70 6q11 2 33.5 15.5t24.5 13.5h12v-13z" />
<glyph unicode="&#x3e;" horiz-adv-x="754" d="M699 508q-2 -28 -57 -83q-43 -42 -87 -84q-80 -88 -168 -199q-75 -93 -97 -114q-37 -37 -71 -36q-3 22 114 158q167 194 187 221q-79 48 -148 126q-90 101 -97 107q-52 46 -122 46h-21.5h-38.5q34 67 85 108.5t103 41.5q84 0 146 -58q54 -61 107 -123q73 -78 165 -111z " />
<glyph unicode="?" horiz-adv-x="591" d="M530 619q0 -67 -44 -129q-28 -41 -125 -139q19 -8 51 -27q-3 -16 -50 -71q-53 -62 -81 -62q-2 0 -17 9t-25 12l-26 2q-18 1 -32 13q50 82 109 134q38 30 76 61q28 27 28 75q0 69 -36 102q-30 29 -124 59q-8 -5 -8 -21q0 -7 3 -30t3 -38q0 -16 -3 -31q-4 -23 -52 -69 t-78 -58q-11 59 -11 98t3 46q10 22 103 127q103 118 133 118q81 0 142 -52.5t61 -128.5zM423 131q0 -34 -74 -95q-70 -59 -97 -59q-13 0 -42.5 16t-33.5 16q-1 0 -17 -7t-25 -6q-9 20 60 85t99 65q19 0 46 -16t32 -16q1 0 21.5 12.5t26.5 13.5q4 -3 4 -9z" />
<glyph unicode="@" horiz-adv-x="979" d="M925 259q0 -28 -71 -76q-63 -43 -76 -43q-27 0 -48 19q-53 -60 -121 -108q-81 -57 -130 -57q-4 0 -61 9q-60 10 -70 11q-132 10 -207 103q-67 84 -67 204q0 195 134 338q131 139 301 139q-1 0 46.5 -5.5t67.5 -5.5q77 0 138 -94q52 -81 52 -150t-100 -189 q-92 -111 -169 -153q-4 4 2 16q-25 18 -75 60q-77 -79 -135 -79q-44 0 -69 48q-20 38 -20 75q0 76 59 150t150 112q8 -10 28 -20.5t35 -10.5q6 0 20.5 3.5t22.5 3.5q7 0 12 -1q-9 -12 -18 -31v-151q26 -20 77 -60q80 82 80 141q0 134 -101 197q-76 47 -190 47q-44 0 -92 -18 q-42 -17 -84 -35q-35 -15 -56 -111q-16 -73 -16 -131q0 -120 61 -196q68 -83 202 -99q31 -6 61 -11q58 -9 67 -9q42 0 90 40q18 15 82 82q48 50 78 64q1 -12 -2 -17q35 -23 48 -23q7 0 52 34h12v-12zM456 309v148q-12 -2 -23 -2q-34 0 -70 26q-17 -17 -17 -76q0 -35 17 -68 q21 -42 59 -42q24 0 34 14z" />
<glyph unicode="A" horiz-adv-x="818" d="M819 207q0 -32 -93.5 -125.5t-124.5 -93.5q-13 0 -52 63q-24 39 -47 77q-146 -146 -238 -146q-199 0 -199 215q0 135 92 273q85 127 238 243l52 48q43 39 63 39q113 -91 164 -155q3 -11 -2 -29q-4 -21 -4 -24v-277q0 -3 81 -136q33 31 67 39q3 -5 3 -11zM500 468 q0 18 -41 52q-65 54 -93 83q-43 -28 -44 -29q-26 -18 -31 -27q-35 -75 -45 -115q-8 -31 -8 -78q0 -91 49.5 -145t137.5 -54q22 0 38.5 13t31.5 27v253q0 4 2.5 10.5t2.5 9.5z" />
<glyph unicode="B" horiz-adv-x="784" d="M772 395q0 -123 -86 -239q-73 -100 -168 -147q-10 -6 -19 -13q-14 -9 -24 -9q-8 0 -31 17q-26 20 -28 20q-9 0 -25 2q-19 7 -56 7q-2 0 -12 2t-20 2q-36 0 -100 -28q-34 -38 -104 -97q-7 -4 -30 -16l-13 4q-3 13 40 71q37 48 80 94v481q-9 4 -25 21q-19 22 -37 36 q-10 -7 -22 -15.5t-27 -9.5q-3 5 -3 11q0 30 83.5 110.5t112.5 80.5q16 0 76 -68q38 38 76 77q47 44 78 44q21 0 67 -19q39 -16 47 -23q41 -35 41 -118q0 -30 -2 -36q-3 -12 -23 -48l102 -68q34 -23 43 -45t9 -81zM479 524q0 118 -139 142v-180q0 -3 -3.5 -14t-3.5 -14v-125 q40 45 80 89q66 76 66 102zM608 243q0 67 -21 91q-13 15 -110 80q-88 -107 -137 -147v-66q0 -3 -19 -32q87 23 108 26q12 2 55 2q44 0 56 -2q30 -4 59 -21q9 30 9 69z" />
<glyph unicode="C" horiz-adv-x="749" d="M749 764q-52 -99 -128.5 -156.5t-151.5 -57.5q-48 0 -78 13q-42 19 -85 75q-12 -8 -29 -25q-14 -30 -26 -103q-9 -58 -9 -81q0 -116 91 -189q82 -68 195 -68q38 0 83 18q90 35 98 38q-51 -110 -156 -178q-97 -62 -193 -62q-126 0 -210 69q-92 76 -92 203q0 197 142 357 q92 104 277 219q65 -102 159 -102q37 0 52 9q38 23 44 25z" />
<glyph unicode="D" horiz-adv-x="784" d="M763 495q0 -171 -321 -418l-62 -56q-35 -29 -74 -29q-4 0 -51 35.5t-76 61.5q-2 2 1 11q4 14 4 18q3 27 3 48q0 28 -4.5 49.5l-4.5 21.5v191q0 57 -19 82q-3 5 -77 77q-15 -10 -30 -21q-18 -11 -33 -9q-6 29 84.5 122t118.5 93q3 0 35 -31q40 -40 57 -55q53 45 107 91 q62 49 105 49q40 0 122 -71q51 -45 73 -89q11 -22 27 -80q7 -23 15 -47v-44zM597 343q0 33 1 32q-2 12 -15 51q-5 30 -17 71q-14 21 -27 43q-13 16 -56 52q-21 18 -43 36q-38 30 -61 30q-15 0 -43 -26q0 -7 3.5 -23t3.5 -19v-182q0 -3 4 -14.5t4 -14.5v-129q0 -1 105 -85 q54 43 109 86q32 33 32 92z" />
<glyph unicode="E" horiz-adv-x="750" d="M752 782q-54 -116 -145 -160q-65 -32 -171 -32q-74 0 -118 56q-13 -5 -35 -24q-16 -22 -30 -78q-16 -59 -16 -104q0 -75 23 -123q54 54 109 107q83 79 110 79q95 -35 110 -35q23 0 37 12q24 19 44 28l18 -3q5 -34 -93.5 -123t-140.5 -89q-63 0 -115 24q-13 -11 -44 -36 q17 -45 103 -81q78 -34 141 -34q28 0 93 39q45 29 91 57l13 -4q-15 -70 -147 -167t-208 -97q-132 0 -220 72q-96 79 -96 216q0 144 86 277q93 144 264 236q58 31 57 31h16q0 -22 41 -44q36 -20 58 -20q45 0 165 20z" />
<glyph unicode="F" horiz-adv-x="759" d="M799 810q0 -10 -45 -69q-48 -64 -121 -104q-68 -38 -124 -38q-53 0 -108 62q-14 -9 -17 -21l2 -283l64 60q55 49 77 49q-4 0 38.5 -22.5t80.5 -22.5q3 0 43 26t48 27q6 -6 6 -9q0 -49 -109 -136q-105 -84 -147 -84q-6 0 -62 9q-13 9 -39 26q-2 -11 -6 -35.5t-4 -27.5 q0 -23 22.5 -46.5t22.5 -29.5q0 -30 -69.5 -97.5t-95.5 -67.5q-47 0 -47 88q0 10 1 23l1 13v457l-106 74q-35 -26 -56 -34l-21 3q-6 41 100 127q101 83 133 83q7 0 58.5 -35.5t65.5 -49.5q44 43 90.5 87t75.5 46q41 -45 53 -56q33 -27 63 -27q32 0 70 18q47 23 56 25 q6 -7 6 -8z" />
<glyph unicode="G" horiz-adv-x="878" d="M881 561q0 -8 -36.5 -51t-36.5 -45q1 -23 -2 -68q0 -18 -8 -51q-82 -152 -214 -252q-137 -104 -268 -104h-44l-46 10q-27 6 -42 16q-38 24 -81 97q-41 69 -41 98l3 139q22 134 105 258q100 150 249 209q1 1 27 19q21 15 32 15q1 0 22 -18q26 -21 49 -33q34 -17 68 -17 q52 0 70 13q36 26 66 38q4 -4 4 -10q0 -44 -108 -136q-103 -89 -140 -89q-46 0 -74 -1t-23 -1q-21 0 -106 67q-39 -66 -50 -119q-8 -36 -8 -111q0 -108 64 -183q66 -78 173 -78q51 0 88 14q51 19 51 58v107q2 -1 -34 -1q-4 0 -26.5 11.5t-25.5 11.5q1 0 -42.5 -32.5 t-63.5 -32.5q-14 0 -14 12q0 38 123 146q120 104 149 104q4 0 31.5 -17t43.5 -17q3 0 16.5 4.5t17.5 4.5q3 0 4.5 -3t5.5 -3q3 0 28 18.5t29 18.5h15v-16z" />
<glyph unicode="H" horiz-adv-x="939" d="M930 168q-3 -28 -65 -100q-66 -78 -103 -78q-9 0 -29.5 20.5t-23.5 21.5q-33 11 -108 37q-1 23 3 29q39 52 78 105q7 15 7 78q0 78 -50.5 127.5t-131.5 49.5q-43 0 -69 -20q-75 -57 -76 -58q8 -16 8 -21v-154q16 -21 65 -61q-3 -28 -65 -101q-66 -77 -102 -77 q-10 0 -41 30q-16 18 -32 35v144q0 3 -5.5 25t-5.5 25l3 253q8 73 8 61q0 42 -14 54q-36 26 -72 51q-17 -11 -35 -23q-23 -15 -40 -13q-5 29 95 128.5t131 99.5q5 0 52.5 -36.5t57.5 -47.5v-101q0 2 -8 -30l2 -174q95 95 146 131q80 56 158 56q91 0 144 -50.5t53 -146.5 q0 -57 -7 -90q-14 -63 -58 -112q56 -16 86 -30q6 -10 19 -25q9 -4 25 -12z" />
<glyph unicode="I" horiz-adv-x="528" d="M501 208q8 -26 -82 -116.5t-117 -90.5h-78q-10 0 -41.5 20.5l-31.5 20.5q1 0 -34 -26t-59 -27q0 26 50 83q44 44 87 89v397q-23 14 -72 48q-27 -18 -79 -49l-19 4q0 23 43 75q23 27 103 93q86 71 103 71q-3 0 49 -37t78 -37q5 0 42 23.5t49 25.5q3 -3 3 -9q0 -21 -52 -80 q-46 -53 -71 -71v-400q0 -8 -11 -19q29 -16 39 -18q-1 0 17 0q19 0 31 8q20 12 53 22z" />
<glyph unicode="J" horiz-adv-x="750" d="M712 388q0 -45 -4 -61.5t-4 -17.5v-153q0 -65 -125 -178q-89 -73 -179 -146q-14 -12 -53 -20q-32 -7 -58 -7q-106 0 -180 66q-79 69 -79 178q0 78 48.5 143.5t154.5 133.5l16 -4q-14 -34 -39 -68q-12 -17 -12 -54q0 -90 78 -159q74 -68 165 -68q32 0 54 19q7 6 40 45v132 l8 64q0 43 -3 60l-36 30q-31 26 -45 26q-7 0 -34.5 -19t-43.5 -16q2 30 57 88q47 51 97 87v79q-19 20 -63 72q-46 -34 -55 -34h-16v14q0 25 93.5 113t117.5 88q9 0 50.5 -41t41.5 -46v-257q0 6 4 -18t4 -71z" />
<glyph unicode="K" horiz-adv-x="888" d="M849 148q0 -24 -71 -92.5t-95 -68.5q2 0 -49 26.5t-66 24.5v121q0 71 -50 153q-55 90 -119 90q-66 0 -66 -102v-93q25 -25 80 -74q-10 -28 -65 -93q-64 -77 -101 -77q-13 0 -86 73v120q0 2 4 19.5t4 20.5v343q-15 15 -68 63q-62 -48 -72 -48h-17q-3 3 -3 8 q0 29 94.5 132.5t130.5 103.5q7 0 57 -42t50 -52l2 -259q97 121 194 241q131 155 176 152q3 -2 3 -8q0 -20 -91 -129q-55 -65 -111 -129q6 0 21.5 1.5t18.5 1.5q85 0 138 -94q34 -62 48 -147l2 -121q3 3 6 3q11 0 53 -26l48 -30v-12z" />
<glyph unicode="L" horiz-adv-x="760" d="M749 237q-25 -61 -92 -141q-76 -92 -130 -105q-72 61 -183 61q-63 0 -94 -9q-19 1 -53 -9q-30 -26 -59 -52q-46 -40 -72 -41q1 21 45.5 79t44.5 62v73q0 3 4 12t4 12v384l-36 32q-31 26 -37 26q-3 0 -22 -13q-25 -17 -31 -20l-18 4q-6 28 90.5 118t126.5 90q6 0 44 -31 q35 -28 49 -42l2 -395q0 -3 -5 -24t-5 -25v-67q0 -2 -3.5 -8t-4.5 -11q105 18 117 19.5t60 1.5q70 0 121.5 -15.5t42.5 -15.5q3 0 31 21q33 25 45 33z" />
<glyph unicode="M" horiz-adv-x="1033" d="M1002 394q0 -51 -19 -112q-23 -75 -63 -112q6 -7 32 -17q37 -15 40 -17v-13q0 -24 -67 -85.5t-91 -61.5q-3 0 -33.5 14.5t-40.5 14.5q-2 0 -10 -4.5t-26 -9.5q-3 5 -3 11q0 19 40 63q50 55 54 62t6.5 26.5t7.5 27.5q11 23 11 68q0 27 -2 35q-9 35 -19 70q-1 17 -4 47 q-13 52 -92 131l-98 94q-12 -8 -25 -22v-181q0 -3 3.5 -10.5t3.5 -10.5v-189q12 -4 29 -20q25 -25 31 -29q-8 -26 -59 -86q-61 -73 -99 -73q-7 0 -19 15q-16 19 -24 24q-7 -1 -20 10v183q0 3 -4 14t-4 14v230q-38 40 -123 124l-34 -18q-22 -11 -31 -24q-12 -16 -22 -51 q-8 -29 -8 -37v-73q0 -3 -2.5 -11.5t-2.5 -11.5q0 -52 28 -102q32 -58 93 -99q18 -5 37 -10q33 -11 33 -23q0 -26 -67 -90t-88 -64q-3 0 -12.5 6.5t-15.5 7.5q-15 1 -42 10q-23 13 -54 49q-10 5 -33 27q-16 20 -30 68q-13 44 -13 71q0 2 3.5 21t3.5 23v66q0 2 7 15.5t7 19.5 q7 84 120 202q100 105 192 152q7 4 39 28q27 21 34 21h13q56 -68 116 -124q149 132 179 132q6 0 37 -30q28 -27 39 -40q29 -25 80 -77q41 -50 51 -88q5 -31 11.5 -60.5t17.5 -58.5q1 -2 1 -52z" />
<glyph unicode="N" horiz-adv-x="990" d="M971 460q0 -62 -58 -162l-88 -136q28 -6 55 -11q37 -7 56 -24v-12q0 -28 -73.5 -95.5t-97.5 -67.5q-3 0 -20.5 10.5t-25.5 12.5q-29 7 -84 13q8 21 90 152q71 113 71 160q0 124 -106.5 224t-229.5 100q-14 0 -60 -25q-52 -29 -52 -50q0 -4 8 -66t8 -65v-71q8 -106 8 -114 q0 -86 -23 -119.5t-140 -120.5h-12v133q0 3 -4.5 19t-4.5 19v78q0 48 -11 108q-5 21 -5 43q0 17 5 56q4 33 2 55q-74 77 -89 77q-1 0 -23.5 -13.5t-38.5 -12.5q-4 27 91.5 125t127.5 95q5 -6 73 -65q42 -36 38 -72q47 53 122 103q88 59 142 59q57 0 127 -26q57 -22 73 -38 q62 -60 90 -99q41 -57 53 -122q6 -34 6 -55z" />
<glyph unicode="O" horiz-adv-x="854" d="M836 394q0 -3 -8 -20.5t-10 -24.5q-21 -91 -131 -207t-207 -151q-46 -17 -123 -17q-148 0 -228 95q-73 87 -73 226q0 61 2 73q1 4 26 100q14 56 146 190q140 142 208 142q157 0 270 -81q121 -87 125 -229zM657 238v76q0 108 -89 201q-92 98 -205 93q-16 0 -48 8t-31 8 q-26 0 -41 -77q-11 -53 -11 -87q0 -61 14 -102q23 -65 28 -88q108 -120 245 -120q56 0 102 17q6 2 21 33.5t15 37.5z" />
<glyph unicode="P" horiz-adv-x="736" d="M731 747q0 -116 -117 -247q-45 -50 -258 -238v-50q25 -21 72 -55q-1 -19 -65 -94q-68 -79 -102 -79q-3 0 -31 21q-39 30 -47 35v456q-4 17 -9 53q-92 61 -91 61q-4 0 -25 -14q-27 -16 -36 -21l-21 4q-9 36 96 124q102 85 142 85q13 0 53 -29t41 -29q160 154 231 154 q23 0 67 -17q60 -24 91 -63q9 -12 9 -57zM558 598q0 40 -62 79q-54 34 -90 34q-3 0 -50 -30v-343q58 59 124 110q51 38 62 56q16 28 16 94z" />
<glyph unicode="Q" horiz-adv-x="968" d="M960 175q-20 -62 -97.5 -126.5t-130.5 -64.5q-133 0 -210 111q-122 -103 -205 -103q-8 0 -58 7q-16 1 -46 10q-66 41 -100 78q-30 34 -50 83q-3 8 -15 51.5t-12 47.5q0 59 11 115q5 27 19 82q25 79 66 122q45 47 133 126q118 106 144 106q146 0 249 -94q105 -97 105 -242 q0 -21 -6 -43q-16 -56 -45 -115q-25 -51 -25 -49q0 -6 13 -20q7 -8 15 -16q27 -42 85 -66q47 -19 87 -19q17 0 57 23zM590 326q0 35 -12 86t-27 75q-33 56 -109 103q-83 51 -160 51q-35 0 -57 -90q-15 -64 -15 -105q0 -96 73 -185q80 -97 189 -97q40 0 74 29q10 8 27 67 q17 55 17 66z" />
<glyph unicode="R" horiz-adv-x="932" d="M959 209q-1 -40 -82.5 -114t-135.5 -84q-3 0 -14 -7t-15 -7h-119q-15 0 -58 35q-37 31 -51 48q-43 54 -118 156q-23 -10 -31 -28q-5 -13 -3 -41q11 -7 38 -34q32 -33 32 -43q0 -34 -77 -100q-72 -61 -91 -61q-73 67 -73 101q0 8 5 26.5t5 32.5v423q0 40 -17 56l-68 60 q-22 -15 -52 -31l-18 4q17 57 94.5 128t131.5 71q4 0 40 -29t51 -46q28 34 65 70q58 57 82 57q47 0 117 -34q75 -36 92 -75t17 -82q0 -65 -48 -137q-35 -52 -116 -134q103 -141 119 -157q65 -67 144 -67q45 0 59 5q40 21 80 41zM537 506q0 63 -59.5 116t-124.5 53h-13v-374 q25 25 85 67q57 41 78 63q34 36 34 75z" />
<glyph unicode="S" horiz-adv-x="800" d="M788 309q0 -75 -107 -196q-111 -125 -192 -125q-50 0 -155.5 38t-194.5 38q-47 0 -65 -13q-24 -18 -42 -22q-6 6 -6 8q0 36 76 108q71 68 95 70q6 0 28 6.5t69 6.5q84 0 133 -15q134 -45 195 -60q1 1 1 10q0 50 -52.5 100.5t-105.5 50.5h-78q-3 0 -9 4t-9 4h-73 q-15 0 -84 27q-56 22 -71 30q-19 9 -40 55q-19 43 -19 63q0 63 50 135q48 67 125 123q20 18 41 36q35 30 51 30q5 0 8 -3q9 -9 59.5 -33.5t61.5 -24.5q3 0 5 1t5 1q2 0 17.5 -8t22.5 -9q94 -16 136 -16q29 0 32.5 1.5t44.5 21.5l15 -4q-36 -78 -106.5 -130.5t-135.5 -52.5 q-87 0 -154 19q-97 28 -104 30q8 -19 16 -37q12 -24 27 -32q111 -58 188 -58q2 0 12.5 1t13.5 1t23 -5t23 -5h73q39 0 90.5 -43t56.5 -77q2 -11 5.5 -18.5t3.5 -31.5z" />
<glyph unicode="T" horiz-adv-x="877" d="M903 843q1 -21 -92 -110q-88 -85 -111 -96q19 -61 21 -80q1 -3 1 -54q0 -74 -15 -120q-28 -90 -178 -241q-152 -155 -223 -155q-56 0 -107 37q-60 43 -60 107q0 43 72 114q68 66 99 68q1 -20 11 -60q11 -23 47.5 -53.5t52.5 -30.5q3 0 4 1t4 1t15 -5t16 -5q19 0 49 41 q20 29 27 46q12 27 12 96q0 56 -2 62q-13 36 -23 79q-4 17 -16 40q-22 42 -71 87q-6 5 -33.5 10.5t-32.5 14.5h-234q-16 -17 -51 -47q-48 -42 -60 -42h-14v17q0 23 102 134t132 110h430q43 -7 71 -7q44 0 75 15q16 7 38 27q17 14 28 14h16v-15z" />
<glyph unicode="U" horiz-adv-x="1019" d="M1006 222q0 -33 -101 -136q-103 -107 -144 -104q-31 41 -63 82q-36 51 -34 104q-122 -111 -165 -134q-53 -27 -156 -27q-82 0 -111 6q-61 14 -124 69q-13 31 -25 62q-21 52 -21 74q0 49 3 80q2 26 38 136q22 67 37 96q14 25 50 68q-1 1 -87 1q-16 8 -46 20 q-2 29 71.5 103.5t106.5 74.5q2 0 20 -8.5t26 -8.5l155 -4q-10 -37 -76.5 -99.5t-68.5 -67.5q-45 -123 -45 -197q0 -224 264 -224q61 0 90 8q66 19 66 78q0 3 -4 28.5t-4 28.5v152l-4.5 33t-5.5 59q-19 16 -39 32q-35 30 -35 42q0 27 73 100t101 73q73 -52 81 -68 q1 -13 5.5 -43.5t4.5 -31.5v-170q0 -4 4 -13t4 -12v-184q0 -16 36 -62q30 -39 40 -48q19 14 38 29q23 16 41 19q4 -3 4 -16z" />
<glyph unicode="V" horiz-adv-x="886" d="M874 483l-20 -49q-46 -114 -100 -204q-15 -25 -116 -128q-116 -118 -149 -118q-8 0 -15 11q-16 -11 -27 -11t-108 68q-102 71 -140 109v343q0 2 3 12t3 17q-28 19 -91 65q-20 -16 -41 -32q-39 -29 -49 -29h-11q-4 4 -4 13q0 40 112.5 146.5t146.5 106.5q5 0 53 -33.5 t73 -54.5q2 -13 -2 -31q-5 -22 -5 -24v-314q37 -36 105 -83q123 -84 126 -86q15 24 40.5 78t25.5 59v112q0 7 -11 42q-11 40 -22 59q-53 91 -87 134q-19 24 -19 26q0 34 82 114t102 70q53 -55 91 -121q46 -79 51 -142q3 -35 3 -125z" />
<glyph unicode="W" horiz-adv-x="1089" d="M1084 562q0 -2 1 -34q1 -21 -1 -36q-3 -21 -12 -43q-42 -98 -152 -267q-22 -32 -93 -102q-81 -80 -106 -80h-14q-1 5 -5 14q-9 -6 -17 -6q-17 0 -100 74q-62 56 -97 92q-63 -61 -125 -121q-63 -53 -118 -53q-94 0 -150 83q-45 67 -51 160q-3 38 -3 88q0 79 117 254 q-2 2 -83 2q-5 0 -23 11q2 20 65 93q69 80 107 80q3 0 11.5 -4t13.5 -4l116 -4q0 -20 -31 -59q-27 -30 -54 -62t-44 -88q-16 -50 -16 -91q0 -91 37 -172q50 -111 145 -111q29 0 61 42q29 39 29 63v125q0 3 -4 9.5t-4 9.5v151l-36 28q-21 20 -21 35q0 39 79 109q74 64 94 64 q5 -16 23.5 -31t36.5 -30v-155q0 -3 5.5 -28t5.5 -32q0 -72 -5.5 -108.5t-5.5 -47.5q0 -38 69 -98q54 -43 109 -87q25 49 51 98q18 44 18 106q0 152 -130 256q-1 28 70.5 100.5t103.5 72.5q19 0 52 -49q62 -95 71 -118q10 -26 10 -99z" />
<glyph unicode="X" horiz-adv-x="1091" d="M1087 796q-33 -86 -121 -154.5t-166 -68.5q-26 0 -31.5 1.5t-41.5 20.5l-106 -138q83 -88 165 -176q83 -80 167 -80q59 0 69 10q19 18 55 28q3 -4 3 -11q0 -42 -99 -126q-95 -81 -132 -81q6 0 -11 0q-24 1 -101 2q-23 1 -57 30l-47 41q-31 18 -66 55q-46 51 -92 101 q-37 -66 -115 -148q-99 -103 -159 -103q1 0 -35 24.5t-71 24.5q-14 0 -47 -14.5t-46 -14.5q26 71 107.5 139t147.5 68q31 0 60 -11q26 -10 29 -19q24 33 75 102q-73 75 -147 150q-87 92 -120 163q-5 -2 -45 -31q-30 -21 -50 -19q19 64 114 146q89 77 149 93q26 -49 86 -140 q63 -62 163 -161q34 36 102 120q65 80 98 113q55 53 101 68q5 -9 0 -23q32 -7 57 -18q16 -8 33 -8q25 0 56 16q45 22 69 29z" />
<glyph unicode="Y" horiz-adv-x="880" d="M868 143q0 -55 -71 -140q-64 -75 -150 -136.5t-128 -61.5q-2 0 -60 17t-72 19q-95 16 -152 16q-131 0 -238 -52l-12 4q106 210 394 210q40 0 91 -7q29 -1 77 -9q98 -37 118 -37q13 0 27.5 10.5t14.5 20.5q0 9 -5.5 42t-10.5 42q-14 32 -55 55q-31 17 -63 35q1 26 -9 49 q-131 -154 -236 -154q-54 0 -126 35q-83 41 -128 102q-2 14 -16.5 61t-14.5 58q0 27 6.5 35.5t7.5 15.5q3 25 5 50q3 34 14 57q15 29 44 70q46 64 48 66q-2 2 -81 2q-9 2 -28 9q-9 19 60 89t98 70q3 0 16 -3.5t16 -3.5h124q3 -3 3 -9q0 -21 -59 -82q-69 -73 -79 -90t-14 -46 q-3 -23 -5 -45q-1 -6 -7.5 -20t-6.5 -19q0 -1 15.5 -46t14.5 -61q3 -3 29 -34q23 -28 45 -40q107 -60 166 -60q21 0 42 13q35 21 48 26v335q-41 32 -97 64q2 19 60 85q63 74 98 74q8 0 44 -28.5t54 -31.5q3 -10 3 -21q0 -12 -4 -27t-4 -17v-195q0 -3 4 -13t4 -14v-100 q0 -1 4 -19.5t4 -26.5q133 -47 133 -188z" />
<glyph unicode="Z" horiz-adv-x="999" d="M995 262q0 -34 -120 -146t-162 -123q-11 -3 -35 -17q-13 -7 -58 -7q-47 0 -172.5 45.5t-185.5 45.5q-51 0 -108 -17q-40 -12 -80 -32q-36 -17 -34 -17h-14q-4 3 -4 12q0 74 281 336q-3 2 -20 2q-28 0 -49 -10q-25 -12 -49 -23l-20 4q7 47 100.5 128t144.5 81h91l66 57 q-3 2 -11 -1t-10 -3h-239q-3 0 -37.5 14t-37.5 14q-119 -111 -137 -111h-17v15q0 25 129.5 158t163.5 133q4 0 55 -21t70 -21h202q12 0 69 19q52 17 65 23l28 -4q1 -31 -55 -86q-32 -32 -120 -104q-84 -69 -113 -99q47 -14 52.5 -15t35.5 -1q47 0 64 10q33 19 67 29 q4 -3 4 -10q0 -39 -89 -113q-63 -51 -100 -71.5t-61 -24.5h-49q-57 0 -88.5 11t-28.5 11q-4 0 -55.5 -46t-79.5 -75l68 16q59 13 113 13q70 0 200 -46t157 -46q51 0 91 39q59 58 118 86q4 -6 4 -12z" />
<glyph unicode="[" horiz-adv-x="439" d="M403 783q0 -39 -100 -106q-94 -62 -116 -60v-333q0 -3 -2.5 -7.5t-2.5 -7.5v-82q4 -3 36 -30q22 -18 25 -18q1 0 19 12.5t31 10.5q-7 -39 -73 -106.5t-99 -65.5q-4 8 -33 28t-38 34q-4 5 -4 53q0 3 2.5 31t2.5 32v485q0 31 69 87q65 53 90 53q-4 0 29 -18.5t62 -18.5 q22 0 54.5 19.5t36.5 19.5h11v-12z" />
<glyph unicode="\" horiz-adv-x="886" d="M825 140q-2 -33 -70.5 -97t-110.5 -64q-35 0 -80 50q-37 44 -74 89q-98 109 -195 270q-114 190 -153 241q-11 -7 -23.5 -15t-24.5 -7l-3 15q29 51 83 106q59 60 98 71q28 -37 76 -106q136 -219 190 -299q180 -265 238 -265q3 0 22 6.5t27 4.5z" />
<glyph unicode="]" d="M491 741q0 -7 -2.5 -22.5t-2.5 -18.5v-290q0 -3 -2.5 -6.5t-2.5 -6.5v-160q0 -23 -76 -131q-82 -117 -124 -117l-45.5 22.5t-56.5 22.5q-8 0 -30 -13q-17 -11 -33 -21h-15q5 38 83.5 105t118.5 67l40 -16q1 60 3 125l5 13v291q0 4 2.5 10.5t2.5 11.5q-6 4 -58.5 26 t-58.5 22q-3 0 -10 -5.5t-10 -5.5h-11q-6 7 -6 8q0 22 66 87t87 65q6 0 60 -25q58 -26 76 -38z" />
<glyph unicode="^" horiz-adv-x="736" d="M664 677q-16 -44 -89 -108q-76 -68 -120 -68q-36 0 -102 47t-87 85q-43 -45 -86 -89q-54 -53 -76 -52l-3 13q57 79 139 165q101 108 146 119q11 -31 78 -88q73 -63 115 -63q14 0 39 20t37 20q5 0 9 -1z" />
<glyph unicode="_" horiz-adv-x="686" d="M676 -4q0 -30 -76 -78q-66 -42 -84 -44q-13 -2 -78 -13q-37 -6 -75 -6q-117 0 -204 15q-11 2 -47.5 12t-38.5 10q1 0 -28 -20.5t-42 -20.5q-3 0 -5.5 1.5t-3.5 1.5q3 22 41 58q34 32 59 45q13 11 27 23q23 19 35 19q1 0 42 -11.5t58 -14.5q86 -12 200 -12q57 0 146 16 q25 14 74 30v-11z" />
<glyph unicode="`" horiz-adv-x="397" d="M289 615q-8 -29 -46 -64t-68 -35q-34 0 -56 41q-17 33 -17 63q0 56 37 100q31 36 102 79q5 -5 5 -6q0 -6 -23 -34t-23 -51q0 -27 16 -57q19 -36 48 -36h8h17z" />
<glyph unicode="a" horiz-adv-x="676" d="M649 138q-8 -23 -66 -88q-63 -72 -92 -72q-4 0 -48 41q-47 43 -49 59q-26 -34 -91 -67t-102 -33q-63 0 -106 57q-37 49 -37 102q0 130 117 267q104 122 197 148q3 1 14 7t15 6q-1 0 28.5 -20.5t64.5 -20.5q37 0 53 8q13 7 30 5q3 -24 -46 -71v-85q0 -4 3 -14t3 -13v-155 q26 -25 76 -71q27 12 36 10zM396 142v73q0 4 -3 14t-3 13v137q-2 1 -40 1q-18 0 -45 19l-38 28q-31 -16 -51 -73q-17 -48 -17 -89q0 -46 34 -92q39 -54 94 -54q22 0 69 23z" />
<glyph unicode="b" horiz-adv-x="581" d="M568 411q0 -31 -2 -41t-23 -64q-24 -61 -153 -191q-133 -134 -178 -134q-18 0 -92 69v104q0 3 2.5 5.5t2.5 5.5v432q-18 16 -37 33q-23 20 -31 20q-3 0 -23 -14t-30 -16q-4 4 -4 11q0 27 72.5 98t96.5 71q6 0 51.5 -32t43.5 -43l2 -252q33 34 76 63q54 35 89 35 q55 0 98 -58q39 -53 39 -102zM430 287q0 42 -37 91q-40 55 -87 55q-13 0 -21 -5q-19 -11 -21 -12v-134q0 -3 -3 -5.5t-3 -5.5v-88q67 -57 75 -57q6 0 34 27.5t31 32.5q32 51 32 101z" />
<glyph unicode="c" horiz-adv-x="545" d="M567 565q0 -38 -95 -108q-85 -62 -103 -63q-6 -1 -22 -2.5t-19 -1.5q-56 0 -107 52q-23 -34 -23 -112q0 -73 37 -127q46 -67 131 -67q29 0 64 18q53 27 78 36q-15 -61 -108 -127.5t-160 -66.5q-88 0 -138 64q-44 58 -44 145q0 1 7 72q5 49 73 148q15 21 80 86 q81 79 107 79q22 0 53.5 -30t75.5 -30q24 0 47 13q38 22 60 30q6 -6 6 -8z" />
<glyph unicode="d" horiz-adv-x="587" d="M540 372q0 2 1.5 -20t1.5 -38q-1 -22 -7 -32q-60 -104 -133 -182q-105 -113 -190 -113q-75 0 -118 74q-35 58 -35 123q0 87 76 195.5t160 147.5q9 -14 10 -15q9 -11 19 -11h69q4 6 2 19q-2 20 -2 19v64q0 8 -30 29q-34 24 -37 28q-10 -8 -21 -15q-14 -8 -31 -8 q0 31 73 96t97 65q4 0 44 -32.5t40 -38.5v-87q0 -2 3 -13.5t3 -14.5v-134l2.5 -45t2.5 -61zM404 266l-6 169q-14 -11 -51 -35q-50 -32 -62 -32h-81q-1 -8 -5 -25q-3 -12 -3 -44q0 -71 38 -123q46 -63 125 -56q35 35 43 72q2 13 2 74z" />
<glyph unicode="e" horiz-adv-x="543" d="M531 183q0 -36 -95 -107q-82 -61 -107 -68q-38 -11 -63 -11q-26 0 -86.5 18.5t-79.5 33.5q-60 47 -60 163q0 203 269 350q7 -13 39.5 -26t66.5 -13q19 0 28 7q13 9 30 14q4 -4 4 -9q0 -12 -28 -45q-84 -98 -152 -98q-19 0 -54 9q-38 10 -52 20q-7 -13 -17 -43l1 -68 q1 2 22.5 17.5t28.5 15.5q75 -15 81 -15q67 0 98 21q53 36 76 44l3 -10q-47 -76 -121 -128.5t-146 -59.5q10 -19 68 -43t99 -24q40 0 72 22q48 33 71 42q4 -4 4 -9z" />
<glyph unicode="f" horiz-adv-x="469" d="M507 568q0 -37 -81 -106t-120 -69q-65 0 -96 32q-9 -65 -11 -102q-7 -135 -88 -275q-85 -147 -220 -243q-7 7 -7 8q0 5 61 96q71 108 85 130q5 8 22 94q18 94 18 131v247q0 -5 -4 34q-3 34 0 52q2 15 31 48q26 30 52 59q84 99 146 128h12q2 -20 32 -34q25 -11 51 -11 q30 0 49 7l50 22h12v-12q0 -21 -59 -75q-54 -49 -72 -56q-61 -22 -103 -22q-33 0 -62 16q-2 -15 4 -54l2 -108q84 78 106 77q48 -50 89 -50q27 0 37 5q35 19 64 31z" />
<glyph unicode="g" horiz-adv-x="698" d="M661 163q0 -118 -112 -238q-106 -114 -196 -114q-92 0 -174 36.5t-143 36.5q-54 0 -68 -10t-29 -21q-21 -14 -34 -16v14q0 26 79 92q74 61 93 64q50 9 78 9q58 0 146.5 -36.5t168.5 -36.5q42 0 53 29q6 16 6 72q0 50 -25 84q-30 40 -85 40q-7 0 -58 -10q-1 9 -5 29 q-52 -42 -71 -49q-15 -6 -60 -6q-58 0 -105 30q-57 36 -57 101q0 90 96 198q89 101 195 147q28 -38 89 -38q20 0 98 28h11v-12q0 -9 -30 -43q-26 -30 -32 -35v-208q7 -3 24 -1l24 1q63 0 96 -46q27 -38 27 -91zM363 437h-76q-14 1 -58 32q-25 -46 -26 -48q-8 -17 -8 -39 q0 -36 38.5 -77t71.5 -41h53v152q0 3 2.5 11t2.5 10z" />
<glyph unicode="h" horiz-adv-x="754" d="M740 102q0 -28 -63 -83q-57 -49 -74 -53q-18 39 -73 39q-24 0 -73 -11l-39 4q23 39 57 83q27 36 35 53q12 27 12 69q0 64 -37 133q-47 90 -124 90q-19 0 -86 -66v-113q0 -3 -2.5 -6.5t-2.5 -6.5v-89l31 -23q24 -18 24 -25q0 -28 -63 -83q-56 -49 -75 -53q-6 7 -59 48v105 q0 4 3 6t3 6v154q0 3 -3 8.5t-3 9.5v295q-16 20 -59 57q-11 -6 -22 -13q-15 -9 -32 -11v14q0 24 81 93q78 67 95 67q8 0 43 -34.5t36 -41.5l4 -309q154 152 213 152q84 0 135 -92q41 -72 41 -144q0 -95 -72 -188q13 0 38 1.5t26 1.5q24 0 48 -7q37 -12 37 -37z" />
<glyph unicode="i" horiz-adv-x="328" d="M288 752q-17 -48 -78.5 -104t-96.5 -52q-16 21 -47 56q-30 -23 -42 -23q-4 4 -4 10q0 29 72.5 95t95.5 66q10 0 33 -25l30 -34q7 3 22 11h15zM291 217q0 -49 -67 -141.5t-105 -91.5h-12q7 21 27 57q15 26 15 47q0 3 -3 16.5t-3 17.5v153q0 34 -10 68q-14 46 -40 46 q-3 0 -14.5 -8.5t-15.5 -8.5h-18q13 46 86 110q68 60 92 58q19 -10 45 -34q18 -36 18 -96v-152q0 -2 2.5 -19.5t2.5 -21.5z" />
<glyph unicode="j" horiz-adv-x="392" d="M315 796q0 -30 -66 -88.5t-93 -58.5q-20 0 -44 34q-30 -16 -33 -16q-4 0 -7 1q-4 20 61 92t94 72q4 0 19 -18q20 -25 25 -30q14 9 40 21q4 -3 4 -9zM323 58q0 -44 -67 -141q-69 -101 -110 -101q-3 0 -3.5 2.5t-4.5 2.5q2 0 -11.5 -8t-35.5 -8q-26 0 -88 34.5t-99 34.5 q-35 0 -66.5 -29t-44.5 -29h-14q107 193 245 193q48 0 97.5 -29t51.5 -29h15v200q-1 3 -3.5 5.5t-2.5 5.5v132q0 3 -2.5 7t-2.5 7v111q-25 25 -39 41q-10 -5 -32 -13q-3 4 -3 9q0 21 62.5 87t86.5 66q4 0 25 -21q27 -29 35 -35v-118q0 -3 2.5 -6.5t2.5 -6.5v-133q0 -3 3 -5 t3 -5v-221z" />
<glyph unicode="k" horiz-adv-x="687" d="M691 123q0 -21 -59.5 -82.5t-81.5 -61.5q-2 0 -15.5 10t-21.5 10q-25 0 -71 -11q-4 4 -4 10q0 -6 20 49t20 89q0 40 -22 90q-28 65 -72 65q-40 0 -72 -23q-10 -7 -58 -52v-40q61 -36 61 -56q0 -25 -61 -81.5t-81 -56.5q-3 0 -27 19q-33 27 -39 31q-1 12 -4 37.5t-3 27.5 v241q0 4 -6 59t-6 58v136q0 6 -42 40q-13 -8 -28 -17t-27 -6q12 37 83.5 114t100.5 75q8 -9 38 -39q24 -22 24 -26v-135q0 -3 5.5 -56t5.5 -57v-211l131 179q-40 38 -40 44q0 22 61.5 81.5t80.5 59.5q7 0 31 -26.5t24 -28.5q0 -10 -52 -82q-56 -77 -59 -82q51 21 91 21 q56 0 87 -70q24 -50 24 -96q0 -53 -32 -129q8 -2 29.5 1l21.5 3q8 0 24 -6q21 -8 21 -19z" />
<glyph unicode="l" horiz-adv-x="395" d="M370 173q0 -40 -82 -118q-77 -72 -99 -75q-7 9 -45 39q-21 17 -21 40v296q0 2 3 15.5t3 17.5v216q-15 22 -28 34q-31 -21 -62 -35q-4 4 -4 13q0 32 77 108t110 76q9 0 33 -22t24 -32v-239q0 -3 -3 -11t-3 -12v-285q0 -9 15 -27t25 -18q2 0 21 12.5t32 16.5q4 -4 4 -10z " />
<glyph unicode="m" horiz-adv-x="896" d="M860 147q-6 -23 -60 -84q-60 -70 -94 -70q-11 0 -110 16q7 16 65 113q33 55 33 95t-13 95q-11 51 -21 65q-23 33 -95 70q-8 4 -24 20q-9 -3 -17 -11v-117q0 -4 3 -9t3 -9v-138q40 -32 40 -40q0 -24 -61 -85.5t-84 -61.5q-3 0 -23 15.5t-31 18.5q2 21 2 89q0 33 -3 61 t-3 30v158l-149 78q-21 -40 -25 -60q-1 -6 -1 -50q0 -52 23 -106q34 -77 95 -77q3 0 19 1.5t23 1.5q-25 -59 -77 -107q-55 -50 -100 -50q-69 0 -109 78q-31 59 -31 122q0 91 85.5 215.5t178.5 162.5q2 1 23 16q18 13 26 13q5 0 81.5 -39t96.5 -54q115 114 161 117 q5 -16 50 -41q51 -29 69.5 -55t31.5 -86q13 -56 13 -94q0 -47 -30 -100q-27 -46 -55 -93q4 -6 38 -9q46 -3 56 -5z" />
<glyph unicode="n" horiz-adv-x="710" d="M701 134q0 -26 -60.5 -83t-80.5 -57q1 0 -27 10t-50 10l-59 -5q-7 6 -7 10q94 141 94 249q0 75 1 36q-1 24 -14 56q-6 16 -13.5 32.5t-22.5 26.5q-27 19 -67 36q-46 21 -72 21q-20 0 -25 -4q-24 -20 -32 -25v-154q0 -37 -12 -122q7 -6 44 -32q29 -20 29 -24 q0 -22 -61.5 -81.5t-81.5 -59.5q-17 0 -49.5 30.5t-32.5 43.5q0 3 6 51t6 52v197q0 5 6 24q-14 9 -81 54q-32 -23 -43 -23q-3 0 -6 1q-1 32 69 103t104 71q9 0 52 -26q49 -29 58 -47q61 64 93 87q45 32 89 32q25 0 66 -13q57 -19 96 -54q18 -16 33 -70q13 -48 13 -81 q0 -101 -79 -241l66 -6q51 -7 51 -25z" />
<glyph unicode="o" horiz-adv-x="690" d="M658 382q0 -84 -98 -180q-98 -88 -195 -176q-11 -11 -47 -18q-32 -7 -58 -7q-70 0 -133 57q-66 60 -66 135q0 101 80 229q83 133 185 184q1 -2 0 -12q0 -8 4 -8q10 0 48.5 10t69.5 10q90 0 152 -71q58 -67 58 -153zM504 218v74q0 37 -52.5 94t-84.5 63q-42 7 -55 7 q-63 0 -83 -33q-14 -24 -14 -93q0 -68 59 -123t122 -55q35 0 49 9q10 6 59 57z" />
<glyph unicode="p" horiz-adv-x="560" d="M544 365q0 -50 -4 -64q-5 -25 -35 -81q-14 -28 -96 -107q-89 -86 -118 -86q-6 0 -52 37q-26 -97 -49 -139q-45 -79 -129 -115q60 134 60 189v83q-5 2 -24 2q-34 0 -66 -6q-10 -2 -28 -13q-21 -13 -30 -16q-3 3 -3 9q0 30 72 87q55 44 76 54q-1 39 -3 83q-4 7 -4 11v88 q-33 29 -48 44q-1 0 -28 -19q-15 -10 -26 -7q-2 22 60 94.5t94 72.5q4 0 36 -28q36 -30 40 -44q34 31 68 61q41 35 67 35q83 0 131 -81q39 -66 39 -144zM418 252q0 51 -12 84.5t-48 84.5q-3 4 -43 23.5t-50 19.5q-12 0 -20 -14.5t-8 -22.5q0 -3 2.5 -13t2.5 -13v-81 q0 -3 2.5 -5t2.5 -5v-100q89 4 155 -47q16 33 16 89z" />
<glyph unicode="q" horiz-adv-x="597" d="M599 20q-3 -23 -40 -64q-35 -37 -68 -58q-5 -4 -21 -4.5t-23 -2.5l-46.5 -45.5t-70.5 -49.5l-3 285q0 1 -7 68q-89 -82 -148 -82q-64 0 -103 50q-35 45 -35 105q0 91 84 199q81 103 190 163q61 -77 140 -77q-5 0 56 20q3 -3 3 -9q0 -18 -54 -72v-221q0 -1 6 -20l1 -234 q34 33 100 52zM323 206v169q-75 5 -128 65q-30 -47 -30 -100q0 -56 32 -97q35 -45 90 -45q26 0 36 8z" />
<glyph unicode="r" horiz-adv-x="615" d="M621 560q-21 -60 -91 -119t-128 -59q-42 0 -64 9q-27 12 -47 45q-18 -12 -33 -28v-246q6 -4 26 -30.5t20 -27.5q0 -33 -66 -89q-58 -49 -76 -53q-28 38 -51 60v248q0 4 -2.5 8t-2.5 7v106q-56 48 -59 48q-2 0 -41 -23l-14 4q7 24 70 93q72 79 110 79q7 0 38 -25 q20 -17 41 -33q0 -22 3 -69q82 85 170 133q19 -41 46 -57q23 -12 65 -12q16 0 31 7q19 12 39 24h16z" />
<glyph unicode="s" horiz-adv-x="599" d="M598 570q-76 -166 -249 -166q-18 0 -111 19q15 -40 96 -57q121 -27 137 -34q70 -31 70 -107q0 -46 -107 -143q-100 -91 -121 -91q4 0 -61 25.5t-114 25.5q-37 0 -83 -11l-46 -12q53 96 120 133q52 28 134 28q22 0 61 -10q46 -11 62 -13q-41 45 -126 63q-112 23 -125 29 q-56 26 -56 102q0 42 85.5 143.5t130.5 101.5q-2 0 59.5 -27t120.5 -27q34 0 67 11q43 15 56 17z" />
<glyph unicode="t" horiz-adv-x="527" d="M504 513q-5 -38 -68.5 -93.5t-109.5 -66.5v-124q0 -13 -12 -61q-24 -98 -49 -146q-49 -94 -136 -127q5 9 33 98q29 96 29 120v256q-26 15 -56 15q-26 0 -51 -11q-6 -2 -48 -26l-13 4q5 33 64 86q51 46 99 71v102q0 4 -22.5 25.5t-25.5 21.5q-2 0 -13 -6t-23 -4 q8 24 63 85q61 68 91 68q5 0 64 -59v-197q0 -39 28 -50q14 -6 55 -6q29 0 36 2t52 27z" />
<glyph unicode="u" horiz-adv-x="762" d="M762 143q4 -30 -69.5 -102t-98.5 -72q-7 0 -50 40.5t-38 56.5l-2 69q-118 -98 -143 -114q-56 -35 -125 -35t-120 37q-59 42 -59 116q0 127 140 289q-3 3 -11 3q-7 0 -23 -4t-19 -4q-13 0 -23 10q3 17 57 78q58 67 84 67q4 0 8 -3t7 -3q4 0 10.5 3t10.5 2h87q4 -3 4 -10 q0 -22 -47 -65q-66 -61 -89 -91q-47 -65 -47 -138q0 -66 52 -104q46 -34 112 -34q71 0 136 63v130q0 3 -3 10t-3 11v78q-7 4 -76 35v15q0 16 61.5 76t78.5 60q9 0 84 -42v-83q0 -3 3 -8t3 -8v-283q11 -8 39 -36q23 -24 27 -24q3 0 14 6.5t15 7.5h13z" />
<glyph unicode="v" horiz-adv-x="723" d="M688 519q0 -57 -10 -103q-20 -83 -112 -209q-30 -42 -106 -119q-101 -102 -138 -102q-14 0 -101.5 68.5t-87.5 84.5v153q0 3 -3 13.5t-2 14.5v86q-34 8 -94 30q4 24 58 88q58 69 87 69q3 0 12.5 -8t13.5 -10q13 -7 38 -11q33 -6 41 -8v-116q0 -3 3 -10t3 -11v-144 q4 -3 83 -71q57 -51 78 -55q57 79 71 127q10 33 10 107q0 54 -4 70q-11 50 -56 74l-18 12q-12 8 -19 8q-13 0 -40 -20t-37 -20q-5 0 -9 3q6 42 92 116.5t131 74.5q24 0 74 -34q42 -30 42 -148z" />
<glyph unicode="w" horiz-adv-x="1009" d="M978 475q0 -108 -121 -267q-124 -162 -252 -211q-48 36 -138 117q-34 -37 -86 -75q-69 -51 -107 -51q-80 0 -144 54q-70 60 -70 149q0 59 38 139.5t82 114.5q-24 4 -69 2q-7 7 -7 9q0 29 66 93.5t88 64.5q2 0 9 -7h99q-3 0 24 -10q-45 -76 -94 -120q-53 -47 -55 -50 q-17 -26 -17 -92q0 -81 54.5 -132.5t140.5 -51.5q7 0 20.5 5.5t13.5 10.5l-3 262q-3 15 -27 25q-36 17 -39 19q4 26 58 90q59 69 96 69q5 0 38.5 -20.5t37.5 -24.5v-277q0 -25 57 -81t79 -56q26 0 48 78q17 61 17 83q0 153 -135 160q13 48 71.5 102.5t102.5 54.5 q64 0 98 -68q26 -51 26 -108z" />
<glyph unicode="x" horiz-adv-x="952" d="M962 195q-32 -79 -118 -135q-82 -54 -155 -54q-165 0 -320 202q-44 -51 -89 -101q-92 -98 -118 -98q-67 34 -72 34q-3 0 -29 -15q-30 -18 -40 -22q-4 4 -4 11q0 46 92 116q86 65 119 65q3 0 28 -6t28 -6q5 0 57 60q-64 74 -185 215q-39 -34 -68 -40q-4 4 -4 11 q0 35 99 116q85 69 109 78l185 -214q48 57 97 114q96 106 133 106q3 0 15.5 -13t20.5 -17q14 -7 34 -8q17 0 21 -6q-23 -49 -74 -97q-56 -51 -95 -51q-22 0 -26.5 4.5t-18.5 7.5l-66 -84q155 -206 311 -206q21 0 69.5 15.5t63.5 17.5z" />
<glyph unicode="y" horiz-adv-x="770" d="M775 155q0 -74 -20 -106q-50 -77 -134 -157q-104 -99 -167 -99q-4 0 -131.5 29.5t-183.5 29.5q-55 0 -63 -10q-11 -16 -42 -22q-3 3 -3 9q0 31 79 96q76 62 103 64q15 1 50 1q62 0 186 -30t131 -30q58 0 58 101q0 42 -20 84q-29 61 -83 61q-23 0 -46 -8.5t-24 -8.5 q-3 0 -4.5 1.5t-4.5 1.5l-34 -27q-40 -32 -79 -51q-56 -27 -108 -27q-174 0 -174 168q0 53 28 110q19 39 74 120q-1 1 -80 1q-3 4 -3 9q0 28 60 79q52 45 70 49l132 -3q-25 -40 -103 -128q-41 -46 -41 -108q0 -160 161 -160q34 0 95 27v206q0 2 -2.5 14t-2.5 18 q-15 5 -54 27q2 20 51 78q52 62 81 62q-1 0 58 -36q4 -40 4 -94l2 -191l68 8q61 0 93 -62q23 -45 23 -96z" />
<glyph unicode="z" horiz-adv-x="812" d="M778 168q-75 -114 -146 -159q-65 -42 -157 -42q-81 0 -175.5 26.5t-134.5 26.5q-48 0 -123 -29q-4 3 -4 10q0 40 90 124q56 51 186 152q122 95 151 124q-13 0 -36 -1q-26 0 -25 0q-84 0 -174 38q-54 -38 -69 -38t-15 12q0 31 91 109q88 75 111 75q-8 0 56.5 -23.5 t134.5 -23.5q45 0 100 16q46 14 92 27q0 -12 -14.5 -37t-28.5 -38q-73 -65 -205 -171l-220 -176q1 -1 75 -1q67 -17 135 -34q78 -19 138 -19q55 0 82 13q71 34 85 39z" />
<glyph unicode="{" horiz-adv-x="586" d="M517 767q-18 -53 -69 -98q-54 -48 -104 -48q-24 0 -37 6q-4 -10 -1 -18l4 -10v-77q0 -14 -24.5 -64t-32.5 -57q24 -21 37 -98q15 -96 27 -123q26 -61 88 -61q16 0 48 27t50 26q-3 -51 -92 -124q-85 -70 -131 -70q-71 0 -101 73q-13 33 -27 135q-10 73 -32 73 q-3 0 -17.5 -4t-18.5 -4h-17v15q0 6 50.5 63.5t53.5 74.5q6 29 -3 75q-2 9 -2 21q0 66 23 110q22 41 83 108q73 79 110 79q-4 0 25 -17.5t60 -17.5q29 0 36 8z" />
<glyph unicode="|" horiz-adv-x="430" d="M345 122q-3 -19 -49 -74q-52 -61 -83 -61q-19 0 -41 27q-20 24 -20 34v84q0 3 -2.5 5.5t-2.5 5.5v173q0 3 -3 8.5t-3 8.5v303q-24 23 -24 31q0 21 57 76t76 55q4 0 17 -13.5t13 -17.5v-296q0 -3 2.5 -11.5t2.5 -12.5v-169q0 -3 3 -9t3 -9v-80q0 -17 17.5 -31t36.5 -27z " />
<glyph unicode="}" horiz-adv-x="546" d="M469 483q-3 -18 -34 -56t-31 -53q0 2 10 -37.5t10 -86.5q0 -57 -19 -87q-32 -50 -88 -99q-87 -75 -109 -75q-2 0 -37.5 30.5t-59.5 30.5q-4 0 -15 -3.5t-15 -3.5h-16q17 45 70 92.5t93 47.5q26 0 65 -33q1 2 1 12q0 4 -10 48t-10 47q0 21 10 50q8 21 15 42 q-45 33 -45 100q0 13 1.5 38.5t1.5 38.5q0 68 -41 107q-13 12 -39 24q-22 10 -28 10q3 0 -34 -17h-14q6 33 68 90t95 57q32 0 77 -33q48 -37 48 -72v-72q0 -2 -1 -19.5t-1 -30.5q0 -91 45 -91q-5 0 37 4z" />
<glyph unicode="~" horiz-adv-x="630" d="M565 770q0 -30 -78.5 -88.5t-103.5 -59.5q-5 0 -21.5 -1t-18.5 -1q-25 0 -94.5 21.5t-90.5 21.5q-24 0 -47 -18.5t-31 -18.5h-10v10q0 11 38 48q81 80 138 80q18 0 87.5 -21.5t102.5 -21.5q50 0 69 17q33 29 55 38q5 -5 5 -6z" />
<glyph unicode="&#xa3;" horiz-adv-x="959" d="M904 204q0 -39 -108 -121q-103 -79 -141 -82q-9 0 -32 -2.5t-26 -2.5q-56 0 -159.5 33t-188.5 33q-80 0 -137 -43l-13 3q-1 22 39 66q58 64 66 76q13 18 31 70q28 80 32 88q-11 12 -48 12q-45 0 -72 -14q-15 -8 -33 -26q-14 -14 -26 -14h-13q-3 3 -3 9q0 33 83 109 q65 58 98 78.5t53 20.5q4 0 8 -1h5q5 0 9 4q16 41 57 115q30 40 81 95q83 90 114 90q4 0 32 -20q34 -24 64 -37q45 -20 91 -20q59 0 95 18l15 -4q-74 -114 -123 -148.5t-137 -34.5q-64 0 -134 38q-22 -53 -37 -103q36 -10 73 -20q62 -18 102 -18q42 0 74 14q48 19 63 22 q3 -3 3 -9q0 -35 -88 -106q-73 -60 -103 -71q-35 -13 -62 -15q-34 -2 -39 -4l-94 13q-15 -23 -50 -70q58 6 75 6q86 0 193 -33t151 -33q42 0 76 14q21 8 45 25q19 14 25 14h14v-14z" />
<glyph unicode="&#xa5;" horiz-adv-x="1050" d="M1026 517q-44 -88 -114 -144q-73 -57 -148 -57q-3 0 -9.5 1.5t-9.5 1.5q-157 -175 -195 -175q-3 0 -12.5 5.5t-12.5 6.5q-52 11 -87 11q-11 -38 -35 -112q-12 -37 -23 -55q-8 -14 -59 -67q-61 -63 -83 -63h-10q-4 3 -4 9l50 154v62q0 3 2.5 8t2.5 8v188q-20 9 -44 27h-71 q-33 0 -69.5 -21.5t-73.5 -43.5q-6 6 -6 9q0 45 107 131q104 83 145 80q2 5 2 23q0 13 -16 43q-20 36 -39 36q-2 0 -17 -10t-19 -10h-16v13q0 28 85.5 106t109.5 78q8 0 68 -67q30 29 60 59q52 48 72 48q17 0 73 -26q43 -20 96 -70q61 -57 75 -105q8 -23 15.5 -46t6.5 -36 q25 -13 49 -27q20 -9 41 -9q34 0 56 13t44 27zM658 324v71q0 61 -83 142q-79 76 -138 85q0 -26 2 -78q2 -31 4 -63q2 -25 13 -29q-1 -14 -6.5 -21.5t-5.5 -8.5v-89q0 -8 -5 -32q62 30 128 30q28 0 91 -7z" />
<glyph unicode="&#xa9;" horiz-adv-x="937" d="M839 470q0 -173 -116 -318q-126 -158 -310 -158q-123 0 -227 95q-109 98 -109 225q0 192 139 342q134 144 290 144q161 0 247 -84.5t86 -245.5zM736 377q0 157 -83 238.5t-240 81.5q-127 0 -187 -95q-47 -74 -47 -196q0 -126 108 -220q102 -90 221 -90q56 0 78 8 q28 6 67 21q23 18 34.5 43.5t22.5 53.5q30 64 30 97q0 7 -2 25.5t-2 32.5zM642 590q-22 -49 -77.5 -87t-99.5 -38q-26 0 -50 11q-46 20 -51 22q-2 -3 -2 -21q0 -59 33 -112q39 -64 102 -64q21 0 51 18q25 14 49 29q-11 -44 -79 -96.5t-110 -52.5q-70 0 -113 67 q-35 57 -35 121q0 63 64.5 149t111.5 86q-5 0 39 -27.5t81 -27.5q21 0 28 3q21 10 58 20z" />
<glyph unicode="&#xad;" d="M502 452q-21 -62 -98 -117.5t-141 -55.5l-139 40l-47 -27h-14v11q0 22 69.5 87t90.5 65q3 0 79.5 -22t79.5 -22q40 0 74 20.5t33 20.5h13z" />
<glyph unicode="&#xae;" horiz-adv-x="914" d="M823 503q0 -120 -89 -253q-86 -128 -225 -226q-29 -21 -66 -27q-18 -2 -75 -2q6 0 -22 -2q-23 -1 -41 0q-24 2 -38 8q-105 50 -159 137q-49 79 -49 174q0 75 48 167q33 64 108 165q81 108 134 135q37 19 134 19q130 0 228 -72q112 -84 112 -223zM485 465q0 59 -48 59 q-10 0 -22 -6q0 -16 -3 -45.5t-3 -34.5v-88q76 69 76 115zM720 409q0 131 -107 213q-96 73 -222 73q-70 0 -85 -10q-71 -47 -111 -136q-32 -74 -32 -143q0 -196 199 -301q12 -6 36 -8q17 -1 40 0q28 1 23 1q59 0 79.5 9t50.5 45q63 79 89 108q-4 -4 -28 -13q-27 -11 -40 -11 q-76 0 -188 83q-6 -4 -10.5 -8t-4.5 -15q0 -12 6 -18q18 -17 19 -19q-11 -19 -41 -53q-40 -43 -60 -43q-5 0 -16 10l-17 17q0 2 2.5 7t2.5 9v143q0 4 3 8.5t3 7.5v102l-32 32q-18 -12 -24 -12q-7 0 -6 5q7 19 45 65q45 54 69 54q11 0 24 -17q15 -20 26 -25q13 12 49 34 q45 27 69 27q4 0 10.5 -5t8.5 -5q22 -4 29 -13q9 -12 9 -48q0 -38 -14 -65q-8 -15 -50 -72q36 -31 91 -57t88 -26q17 0 17 70z" />
<glyph unicode="&#x2000;" horiz-adv-x="442" />
<glyph unicode="&#x2001;" horiz-adv-x="884" />
<glyph unicode="&#x2002;" horiz-adv-x="442" />
<glyph unicode="&#x2003;" horiz-adv-x="884" />
<glyph unicode="&#x2004;" horiz-adv-x="294" />
<glyph unicode="&#x2005;" horiz-adv-x="221" />
<glyph unicode="&#x2006;" horiz-adv-x="147" />
<glyph unicode="&#x2007;" horiz-adv-x="147" />
<glyph unicode="&#x2008;" horiz-adv-x="110" />
<glyph unicode="&#x2009;" horiz-adv-x="176" />
<glyph unicode="&#x200a;" horiz-adv-x="49" />
<glyph unicode="&#x2010;" d="M502 452q-21 -62 -98 -117.5t-141 -55.5l-139 40l-47 -27h-14v11q0 22 69.5 87t90.5 65q3 0 79.5 -22t79.5 -22q40 0 74 20.5t33 20.5h13z" />
<glyph unicode="&#x2011;" d="M502 452q-21 -62 -98 -117.5t-141 -55.5l-139 40l-47 -27h-14v11q0 22 69.5 87t90.5 65q3 0 79.5 -22t79.5 -22q40 0 74 20.5t33 20.5h13z" />
<glyph unicode="&#x2012;" d="M502 452q-21 -62 -98 -117.5t-141 -55.5l-139 40l-47 -27h-14v11q0 22 69.5 87t90.5 65q3 0 79.5 -22t79.5 -22q40 0 74 20.5t33 20.5h13z" />
<glyph unicode="&#x2013;" horiz-adv-x="620" d="M563 452q-24 -62 -111.5 -117.5t-160.5 -55.5l-159 40l-53 -27h-16v11q0 22 79 87t103 65q4 0 91 -22t90 -22q46 0 84.5 20.5t37.5 20.5h15z" />
<glyph unicode="&#x2014;" horiz-adv-x="1120" d="M1063 452q-48 -62 -223.5 -117.5t-320.5 -55.5l-317 40l-107 -27h-32v11q0 22 158.5 87t205.5 65q7 0 181.5 -22t181.5 -22q91 0 168.5 20.5t74.5 20.5h30z" />
<glyph unicode="&#x202f;" horiz-adv-x="176" />
<glyph unicode="&#x205f;" horiz-adv-x="221" />
<glyph unicode="&#x2122;" horiz-adv-x="861" d="M755 565q0 -10 -29 -39t-38 -29l-12 9.5t-33 9.5q-17 0 -42 -13q-1 1 -4 5t-3 6q0 7 9 17q20 26 52 50q16 12 16 35q0 21 -16 56q-20 42 -43 42h-20q-5 -3 -3 -11q3 -16 3 -30q0 -41 -18 -78q-24 -50 -75 -75q1 4 14 37q9 22 9 52q0 34 -17 64q-21 37 -56 37 q-27 0 -33 -17q-4 -8 -4 -40q0 -75 46 -75q16 0 18 2q5 6 22 11q-12 -31 -43 -57.5t-57 -26.5q-57 0 -57 84q0 67 54.5 128.5t116.5 61.5q23 0 37 -12q7 -5 27 -30q32 28 44 35q17 11 41 11q38 0 61 -38q20 -31 20 -67q0 -24 -12 -43q-2 -4 -36 -49l36 -6q25 -6 25 -17z M347 795q-7 -21 -29.5 -44.5l-22.5 -23.5q0 -1 6 -9t7 -13q12 -42 12 -67q0 -38 -42 -90.5t-86 -71.5q-3 7 -22 19q-24 16 -41 16q-5 0 -16.5 -5t-20.5 -4q18 33 47 56t53 23q9 0 29.5 -8.5t26.5 -14.5q1 4 1 16q0 29 -12 66q-5 15 -14.5 24t-35.5 20q-75 30 -73 30 q4 0 -28 -19h-9q1 14 39 53.5t57 39.5q-1 0 26.5 -15t52.5 -15q23 0 49 15q19 12 37 25q4 0 9 -3z" />
<glyph unicode="&#xe000;" horiz-adv-x="630" d="M0 630h630v-630h-630v630z" />
</font>
</defs>
</svg>
