<?xml version="1.0" standalone="no"?>
<!DOCTYPE svg PUBLIC "-//W3C//DTD SVG 1.1//EN" "http://www.w3.org/Graphics/SVG/1.1/DTD/svg11.dtd" >
<svg xmlns="http://www.w3.org/2000/svg">
<metadata></metadata>
<defs>
<font id="herr_von_muellerhoffregular" horiz-adv-x="645" >
<font-face units-per-em="2048" ascent="1638" descent="-410" />
<missing-glyph horiz-adv-x="450" />
<glyph horiz-adv-x="2048" />
<glyph horiz-adv-x="2048" />
<glyph unicode="&#xd;" horiz-adv-x="2048" />
<glyph unicode=" "  horiz-adv-x="450" />
<glyph unicode="&#x09;" horiz-adv-x="450" />
<glyph unicode="&#xa0;" horiz-adv-x="450" />
<glyph unicode="!" d="M86 20q0 29 30 56.5t58 27.5q13 0 24 -12t11 -24q0 -18 -27.5 -49t-66.5 -31q-13 0 -21 9.5t-8 22.5zM256 240v8q224 278 478 606t317 418q29 41 45 41q20 0 20 -51q0 -50 -250.5 -365t-558.5 -668q-22 -22 -35 -22q-16 0 -16 33z" />
<glyph unicode="&#x22;" horiz-adv-x="598" d="M412 842q57 55 99 102t59.5 70.5t43 60.5t35.5 51q16 19 29 19q15 0 25 -16t10 -35q0 -4 -22 -26t-93.5 -89.5t-142.5 -136.5q-26 -23 -35 -23q-8 0 -8 23zM555 842q57 55 99 102.5t59.5 70.5t43.5 60.5t36 50.5q16 19 28 19q15 0 25 -16t10 -35q0 -4 -22 -26 t-93.5 -89.5t-142.5 -136.5q-26 -23 -35 -23q-8 0 -8 23z" />
<glyph unicode="#" horiz-adv-x="1058" d="M166 285q0 4 3.5 8t6.5 6l4 2l279 6q52 70 86 111h-29q-188 0 -278 2q-27 3 -27 12q0 4 3.5 8t7.5 6l3 3q303 8 350 8l160 213q15 22 25 22q12 0 12 -28q0 -29 -139 -205l139 6q98 124 154 205q15 22 26 22t11 -28q0 -25 -134 -197l199 8q33 0 33 -12q0 -9 -10 -19 q-20 -17 -260 -24q-2 -2 -33.5 -42t-50.5 -61q225 7 276 15h12q27 0 27 -13q0 -7 -16 -20q-25 -19 -334 -25q-34 -43 -164 -192q-15 -12 -21 -12q-10 0 -10 22l146 180h-144q-86 -103 -164 -190q-12 -12 -20 -12t-8 22q13 16 64.5 80.5t78.5 99.5h-237q-27 3 -27 13z M510 309l143 4l84 107q-45 -2 -139 -2q-39 -50 -88 -109z" />
<glyph unicode="$" d="M-35 -225q0 14 105 149q-72 20 -72 84q0 52 41 115.5t104.5 108t120.5 44.5q25 0 25 -20q0 -22 -25 -47t-53 -25q-8 0 -8 9q0 1 19.5 12t19.5 16q0 4 -17 4q-57 0 -118.5 -75.5t-61.5 -139.5q0 -71 88 -71q69 0 129.5 26.5t103 69t73 96t45 107t14.5 102.5 q0 98 -22.5 186.5t-45 163t-22.5 139.5q0 67 71 135.5t163.5 109t162.5 40.5h6q37 50 64 94.5t32 51.5q3 4 7 11t7 10.5t7 7t8 3.5q6 0 10 -12t4 -25q0 -15 -102 -147q41 -13 41 -55q0 -30 -30 -76t-74 -89t-100 -75.5t-103 -36.5q-29 0 -29 27q0 17 14 36.5t27 20.5 q7 0 9.5 -2t2.5 -12q0 -2 -4 -6.5t-4 -5.5q46 6 111 47t112 90t47 76q0 45 -65 45q-59 0 -134.5 -33t-134.5 -92.5t-59 -122.5q0 -80 53.5 -242.5t53.5 -232.5q0 -93 -42.5 -178.5t-108.5 -144t-147 -93.5t-159 -35h-21q-30 -39 -48.5 -66.5t-31.5 -52t-16 -28.5t-8.5 -14 t-10 -14.5t-9.5 -4.5q-6 0 -10.5 12t-4.5 25z" />
<glyph unicode="%" horiz-adv-x="1054" d="M80 -29q0 9 4 17q24 27 111.5 124.5t116.5 131.5t105 122t124 149.5t123.5 157.5t152.5 202t166 231q3 4 8.5 13.5t8.5 14t8 9t10 4.5q6 0 12 -11.5t6 -23.5q0 -8 -4 -14q-114 -170 -243.5 -338.5t-208 -261.5t-234.5 -271.5t-211 -242.5q-23 -35 -41 -35q-5 0 -9.5 7.5 t-4.5 14.5zM98 561q0 59 23 132.5t67.5 148t103 137t138 102t162.5 39.5q33 0 33 -37q0 -49 -60.5 -118.5t-120.5 -69.5q-18 0 -18 14q0 10 9.5 22.5t15.5 12.5t6 -8l-2 -10q34 3 90.5 64t56.5 95q0 19 -22 19q-70 0 -151.5 -66t-144.5 -157t-105 -188.5t-42 -160.5 q0 -71 56 -71q53 0 125.5 49t140.5 125.5t120.5 182.5t63.5 208q0 23 6 23t6 -13q2 -12 2 -39q0 -59 -22 -132t-65 -147t-99 -135.5t-132 -100t-157 -38.5q-42 0 -63 31.5t-21 85.5zM541 90q0 59 23 132.5t67.5 148t102.5 137t137.5 102t162.5 39.5q33 0 33 -37 q0 -49 -60 -118.5t-120 -69.5q-19 0 -19 14q0 10 9.5 22.5t15.5 12.5t6 -8l-2 -10q34 3 90.5 64t56.5 95q0 19 -22 19q-70 0 -151.5 -66t-144 -157t-104.5 -188.5t-42 -160.5q0 -71 55 -71q53 0 125.5 49t140.5 125.5t120.5 182.5t63.5 208q0 23 7 23q6 0 6 -13q2 -12 2 -39 q0 -59 -22 -132t-65 -147t-99 -135.5t-132 -100t-157 -38.5q-42 0 -63 31.5t-21 85.5z" />
<glyph unicode="&#x26;" horiz-adv-x="1042" d="M-20 45q0 94 67 218t193.5 248t279.5 200q-78 -19 -125 -19q-82 0 -122 31t-40 86q0 53 37.5 123t102.5 142.5t160 142.5t201.5 125t235.5 88.5t255 33.5q86 0 86 -43q0 -40 -69 -101t-162.5 -107t-157.5 -46q-13 0 -21 10t-8 21q0 32 43.5 68.5t56.5 36.5q8 0 8 -11 q0 -8 -19 -21t-19 -22q0 -8 8 -8q34 0 108 38t134.5 84.5t60.5 68.5q0 14 -27 14q-112 0 -232 -36.5t-221 -95t-192.5 -131.5t-155.5 -146.5t-101.5 -140.5t-37.5 -112q0 -69 84 -69q49 0 104 13.5t99.5 32t94 45t78.5 45t61.5 40.5t35.5 24q12 9 17 9q6 0 6 -17v-6 q0 -7 -52.5 -43t-105.5 -68l-53 -32q-119 -57 -238.5 -156t-206.5 -203t-141.5 -205.5t-54.5 -166.5q0 -86 92 -86q65 0 160 44.5t184.5 105.5t190 142t162.5 137t116 107q-7 6 -27 22.5t-29 23t-28 18.5t-34 17.5t-36.5 10t-44.5 4.5q-73 0 -146 -39t-121.5 -93t-78.5 -107 t-30 -84q0 -25 20 -25q57 0 140 88.5t116 165.5q9 19 14 19q13 0 13 -13q0 -10 -2 -14q-14 -39 -62 -103.5t-118 -121t-126 -56.5q-57 0 -57 52q0 43 41 106t107 122.5t163.5 101.5t196.5 42q18 0 36.5 -4t31 -8t31 -15t27 -17t30 -21.5t28.5 -20.5q137 117 250 117 q60 0 95.5 -32.5t35.5 -77.5q0 -55 -53.5 -94.5t-155.5 -39.5q-121 0 -200 58q-54 -52 -116.5 -109t-166 -141t-196 -147.5t-193 -109.5t-170.5 -46q-73 0 -109 37t-36 102zM1022 510q108 -74 215 -74q43 0 67.5 25.5t24.5 58.5q0 35 -25.5 60.5t-72.5 25.5q-88 0 -209 -96z " />
<glyph unicode="'" horiz-adv-x="454" d="M412 834v8q57 55 99 102t59.5 70.5t43 60.5t35.5 51q16 19 29 19q15 0 25 -16t10 -35q0 -4 -22 -26t-93.5 -89.5t-142.5 -136.5q-26 -23 -35 -23q-8 0 -8 15z" />
<glyph unicode="(" horiz-adv-x="518" d="M121 113q0 132 45.5 281t122 287.5t179.5 271.5t215.5 239.5t232 186.5t227.5 116q11 0 23 -4t12 -8t-11 -8q-154 -63 -305 -188t-271 -281t-213 -327.5t-143.5 -341t-50.5 -308.5q0 -94 23 -164q2 -4 2 -15q0 -20 -12 -20q-11 0 -21 18q-55 122 -55 265z" />
<glyph unicode=")" horiz-adv-x="876" d="M-8 -156q0 6 10 9q129 53 256.5 150t234 217t199 261t156.5 282t100.5 280t36.5 255q0 97 -22 164q-2 4 -2 15q0 20 12 20q10 0 20 -18q56 -124 56 -265q0 -132 -45.5 -281t-122 -287.5t-179.5 -271.5t-215.5 -239.5t-232 -186.5t-227.5 -116q-11 0 -23 4t-12 8z" />
<glyph unicode="*" horiz-adv-x="753" d="M252 518q0 25 27 38t143 48q79 23 131 39q-186 82 -186 115q0 26 39 30q22 0 51 -22t108 -107q51 145 77.5 192.5t49.5 49.5q31 0 31 -20q0 -12 -57 -101q-13 -21 -21.5 -34t-24 -38t-30.5 -49q254 123 276 123q27 0 27 -18q0 -25 -27 -38t-143 -48q-79 -23 -131 -39 q186 -82 186 -115q0 -26 -39 -30q-22 0 -51 22t-108 107q-51 -145 -77.5 -192.5t-49.5 -49.5q-31 0 -31 20q0 12 57 101q13 21 21.5 34t24 38t30.5 49q-254 -123 -276 -123q-27 0 -27 18z" />
<glyph unicode="+" horiz-adv-x="819" d="M221 492q0 16 27 20q1 0 10.5 0.5t26 1t32.5 0.5q5 0 64.5 2t114.5 6q54 107 110 223q8 13 17 13q24 -10 24 -35q0 -16 -6 -25q-74 -138 -94 -174q2 0 6 0.5t16.5 1.5t32.5 2.5t62.5 4.5t97.5 6q17 0 20 -13q0 -19 -14 -30t-31 -11q-80 -6 -217 -6l-121 -207 q-1 -6 -8.5 -11t-13.5 -5q-8 0 -8 12q0 7 4 19q22 44 33 61q3 5 26.5 48.5t42.5 82.5h-6l-221 2q-25 0 -27 11z" />
<glyph unicode="," horiz-adv-x="288" d="M-31 -139q0 4 15 10q25 3 83 39t58 74q-55 7 -55 41q0 33 24.5 57t55.5 24q15 0 25.5 -15t10.5 -38q0 -45 -20 -82t-49 -58t-58 -35.5t-49 -19.5l-20 -5q-21 0 -21 8z" />
<glyph unicode="-" horiz-adv-x="1024" d="M186 240q0 16 33 20q1 0 13.5 0.5t33 1t41.5 0.5q223 8 316 12l239 13q22 0 25 -13q0 -19 -17.5 -30t-38.5 -11q-120 -6 -335 -6l-277 2q-31 0 -33 11z" />
<glyph unicode="." horiz-adv-x="280" d="M66 20q0 29 30 56.5t58 27.5q13 0 23.5 -11.5t10.5 -24.5q0 -18 -27.5 -49t-66.5 -31q-13 0 -20.5 9.5t-7.5 22.5z" />
<glyph unicode="/" horiz-adv-x="628" d="M37 -43q105 116 272 329.5t309.5 406.5t318 438t238 334t128.5 184q29 41 45 41q20 0 20 -52q0 -17 -240 -348.5t-555.5 -744.5t-484.5 -606q-23 -23 -35 -23q-16 0 -16 33v8z" />
<glyph unicode="0" horiz-adv-x="827" d="M41 111q0 78 29 177.5t80.5 204t127 204.5t161.5 178t192.5 126t212.5 48q27 0 42 -16t15 -42q0 -51 -43.5 -124.5t-115 -131t-138.5 -57.5q-33 0 -33 24q0 18 14.5 38t24.5 20q15 0 15 -15l-4 -14q56 3 148.5 105.5t92.5 158.5q0 31 -35 31q-78 0 -166.5 -51t-167 -133 t-152 -186t-126.5 -208t-85 -202t-32 -166q0 -117 90 -117q70 0 162 51.5t186 143.5t177.5 206.5t142.5 255t74 273.5q0 43 12 43q14 0 14 -74q0 -95 -41.5 -218t-118 -245.5t-172 -226t-216 -168.5t-238.5 -65q-65 0 -97 46t-32 126z" />
<glyph unicode="1" horiz-adv-x="497" d="M66 -76q0 5 12.5 24.5t15.5 22.5q29 38 288 493t300 521q-42 -37 -97.5 -80t-131.5 -96.5t-152 -88t-127 -34.5q-12 0 -12 8q0 6 7.5 13.5t14.5 7.5q48 0 119.5 33.5t141 82.5t133.5 101t105.5 91.5t47.5 51.5q15 18 41 23q27 0 27 -21q0 -7 -13 -33q-49 -81 -194 -329.5 t-266 -445.5t-213 -324q-1 -1 -4.5 -5.5t-5 -6.5t-5 -5.5t-6 -5.5t-6.5 -3.5t-8 -2.5h-1q-2 1 -4 1.5t-4.5 2.5t-2.5 4zM78 -84z" />
<glyph unicode="2" horiz-adv-x="778" d="M-248 -82q0 24 41 70.5t103.5 94.5t150.5 84t170 36h4q248 197 424 414t176 364q0 32 -11 43.5t-42 11.5q-86 0 -186 -59.5t-174.5 -139t-124.5 -157.5t-50 -117q0 -26 25 -26q41 0 95.5 25.5t102.5 62.5t90.5 73.5t67.5 61.5l25 26q9 9 18 9q3 0 5.5 -0.5t4 -1.5t2.5 -4 t1 -7t-4 -12q-12 -14 -32.5 -35t-69.5 -63.5t-97 -76t-109.5 -59.5t-113.5 -26q-62 0 -62 63q0 43 30.5 105.5t87.5 128.5t127.5 123t161.5 94t179 37q50 0 78 -26t28 -99q0 -126 -171 -343.5t-408 -387.5q-6 -4 -15.5 -12t-11.5 -9q37 -17 91.5 -60t104 -72t99.5 -29 q66 0 135.5 25.5t114 51t49.5 25.5q12 0 12 -8q0 -5 -6 -11q-6 -5 -18 -13t-48.5 -28.5t-75 -36.5t-93.5 -29t-107 -13t-101.5 20t-82 45t-71 54t-62.5 40q-154 -103 -278 -173t-160 -70q-19 0 -19 16zM-221 -59q0 -9 8 -9q161 63 375 226q-74 -1 -168 -47.5t-154.5 -97.5 t-60.5 -72z" />
<glyph unicode="3" d="M-147 -16q0 40 69 108.5t157 121t138 52.5q7 0 13 -7t6 -15q0 -21 -31 -45.5t-41 -24.5q-8 0 -8 8q0 5 18.5 13t18.5 14t-15 6q-39 0 -166 -100t-127 -138q0 -14 23 -14q81 0 173 36t173.5 92t158 126t131 138.5t87.5 129t33 97.5q0 45 -50 45q-33 0 -66 -6t-57 -13.5 t-49.5 -19.5t-39 -20t-30 -19t-18.5 -12q-7 -7 -10 -7q-4 0 -4 15q0 5 20.5 20t41.5 27l20 12q146 84 270.5 219.5t124.5 208.5q0 47 -63 47q-71 0 -168 -51t-169 -108.5t-124 -112.5q-12 -12 -31 -12q-8 0 -8 6q0 4 2 6q285 293 512 293q104 0 104 -80q0 -76 -95 -185 t-257 -202q52 14 92 14q51 0 76 -22t25 -60q0 -46 -32.5 -110t-88 -132t-134 -136t-165 -121t-186.5 -86t-193 -33q-61 0 -61 37z" />
<glyph unicode="4" horiz-adv-x="821" d="M-59 238q0 21 28 54t78.5 64t102.5 39q137 148 296.5 353t180.5 256q-7 -7 -17 -7q-6 0 -10 2q0 12 36 41t50 29q21 0 21 -25q0 -43 -168.5 -260t-333.5 -385q70 -1 151 -22.5t129 -46.5q4 -4 7 -4q44 77 112 197.5t113.5 201.5t90.5 159t66 111q15 18 41 23q27 0 27 -21 q0 -8 -12 -32q-57 -94 -190 -321.5t-203 -342.5q106 -63 143 -63q34 0 68 16.5t57 39t37 45t14 36.5q0 10 -10 10q-22 0 -52 -31.5t-51.5 -62.5l-21.5 -31q-12 0 -12 10q0 32 53.5 88t93.5 56q9 0 15.5 -3.5t10 -9.5t3.5 -14q0 -21 -19.5 -51.5t-50.5 -60t-76 -50t-90 -20.5 q-34 0 -139 55q-106 -175 -207 -315q-1 -1 -4.5 -5.5t-5 -6.5t-5 -5.5t-6 -5.5t-6.5 -3.5t-8 -2.5h-1q-11 3 -11 8t13 24.5t16 22.5q50 75 182 312q-180 92 -287 92q-159 -156 -217 -156q-22 0 -22 19zM-43 252q0 -8 10 -8q34 0 158 127q-60 -14 -114 -56t-54 -63zM268 -84z " />
<glyph unicode="5" horiz-adv-x="624" d="M-162 -16q0 40 69 108.5t157.5 121t138.5 52.5q7 0 12.5 -7t5.5 -15q0 -21 -30.5 -45.5t-40.5 -24.5q-9 0 -9 8q0 5 18.5 13t18.5 14t-14 6q-39 0 -166 -100t-127 -138q0 -14 23 -14q81 0 170 35.5t165.5 91.5t147.5 125t121 137t80 128.5t30 97.5q0 71 -94 71 q-67 0 -152.5 -34.5t-138.5 -82.5q-10 0 -10 19q0 17 254 481q29 47 41 47q9 0 22.5 -12.5t20.5 -15.5q50 -23 117 -23q39 0 81.5 7t69.5 13l27 7q12 0 12 -8q0 -15 -14 -19q-92 -39 -217 -39q-68 0 -135 17l-211 -400q164 78 262 78q119 0 119 -117q0 -55 -41 -134.5 t-116.5 -163.5t-168.5 -156.5t-209 -119t-227 -46.5q-62 0 -62 37z" />
<glyph unicode="6" horiz-adv-x="700" d="M-14 49q0 84 69.5 217t186.5 279t290.5 296.5t362.5 256.5q6 4 16 4q7 0 7 -4q0 -6 -15 -15q-143 -89 -302 -238.5t-283 -301t-205.5 -292t-81.5 -214.5q0 -70 71 -70q75 0 161.5 47.5t160.5 121.5t136 157.5t98 162t36 128.5q0 63 -57 63q-23 0 -45.5 -6.5t-52.5 -27 t-50 -35t-62 -54.5t-63 -60.5t-77 -76.5q-14 -14 -29 -14q-4 0 -4 2q0 5 8 16l20 24q20 24 44.5 52t63 63.5t77.5 64t86 48t90 19.5q48 0 71 -28.5t23 -78.5q0 -61 -31.5 -140.5t-92 -161.5t-137.5 -151t-179 -113t-207 -44q-104 0 -104 104z" />
<glyph unicode="7" horiz-adv-x="778" d="M156 799q0 28 24.5 67.5t64.5 77.5t99.5 65t120.5 27q33 0 70.5 -15.5t73 -37.5t71 -44.5t75 -38.5t74.5 -17q203 213 275 213q18 0 27.5 -7t9.5 -18q0 -28 -41 -71.5t-110.5 -83.5t-137.5 -52q-160 -180 -344 -444l321 -19q31 0 33 -12q0 -18 -35 -18q-48 0 -148 3 t-202 3q-92 -133 -152.5 -233t-60.5 -119q18 12 21 12q4 0 10 -6q0 -14 -46.5 -50t-62.5 -36q-24 0 -24 30q0 26 71.5 139t182.5 263h-232q-22 0 -22 14q0 19 17.5 29t39.5 10q30 0 110 -3.5t122 -4.5q190 255 360 440h-2q-70 0 -125.5 21.5t-86.5 47t-77 47t-98 21.5 q-45 0 -89 -22.5t-73.5 -53.5t-48 -61.5t-18.5 -48.5q0 -14 12 -14q32 0 78.5 50t72.5 99q6 17 15 17q14 0 14 -13q0 -8 -2 -12q-13 -42 -77.5 -108t-115.5 -66q-34 0 -34 33zM870 887q52 11 109.5 47.5t93 73t35.5 53.5q0 6 -8 6q-64 0 -230 -180z" />
<glyph unicode="8" d="M-16 35q0 67 28 136t69.5 125t108 119t123.5 108t136 102q-41 121 -41 204q0 77 61.5 146t144.5 106t156 37q53 0 85 -23t32 -69q0 -32 -12.5 -64t-42.5 -67t-56.5 -61.5t-79.5 -66t-85 -62t-97 -66.5q4 -11 18.5 -54t19.5 -60.5t14 -50t12.5 -57t3.5 -48.5 q0 -93 -42.5 -178.5t-108.5 -144t-147 -93.5t-159 -35q-64 0 -102.5 29.5t-38.5 87.5zM37 49q0 -110 96 -110q69 0 129.5 26.5t103 69t73 96t45 107t14.5 102.5q0 115 -41 258q-73 -52 -126 -93.5t-112 -98.5t-96 -109.5t-61.5 -117t-24.5 -130.5zM475 844q0 -74 31 -176 q183 130 240 182q90 82 90 141q0 51 -26 76t-69 25q-86 0 -176 -77t-90 -171z" />
<glyph unicode="9" horiz-adv-x="653" d="M133 551q0 36 21 88t58 109.5t92.5 114t120 102.5t146 74t164.5 28q49 0 49 -41q0 -30 -30 -76t-74 -88.5t-100 -75t-103 -36.5q-28 0 -28 26q0 17 13.5 37t26.5 21q5 0 7 -1t4 -4t2 -10q0 -2 -4 -6.5t-4 -5.5q46 6 111 47t112 90t47 76q0 18 -31 18q-71 0 -153 -41 t-152 -103.5t-129 -131.5t-93 -131t-34 -96q0 -41 43 -41q40 0 98 24t115.5 61t116 81t104.5 84.5t77 70t36 39.5q15 18 41 23q26 0 26 -21q0 -9 -12 -33q-120 -198 -263 -404t-337 -474q-1 -1 -4.5 -5.5t-5 -6.5t-5 -5.5t-6 -5.5t-6.5 -3.5t-8 -2.5h-1q-11 3 -11 8t13 24.5 t16 22.5q37 48 233 352t281 441q-42 -37 -97.5 -80t-131.5 -96.5t-152 -88t-127 -34.5q-35 0 -53.5 23t-18.5 63zM182 -84z" />
<glyph unicode=":" horiz-adv-x="315" d="M66 20q0 29 30 56.5t58 27.5q13 0 23.5 -11.5t10.5 -24.5q0 -18 -27.5 -49t-66.5 -31q-13 0 -20.5 9.5t-7.5 22.5zM242 422q0 29 30 56.5t58 27.5q13 0 24 -12t11 -25q0 -18 -28 -49t-67 -31q-13 0 -20.5 10t-7.5 23z" />
<glyph unicode=";" horiz-adv-x="303" d="M-31 -139q0 4 15 10q25 3 83 39t58 74q-55 7 -55 41q0 33 24.5 57t55.5 24q15 0 25.5 -15t10.5 -38q0 -45 -20 -82t-49 -58t-58 -35.5t-49 -19.5l-20 -5q-21 0 -21 8zM262 422q0 29 30 56.5t58 27.5q13 0 24 -12t11 -25q0 -18 -27.5 -49t-66.5 -31q-13 0 -21 10t-8 23z " />
<glyph unicode="&#x3c;" horiz-adv-x="741" d="M221 553q0 29 66 45l415 61q6 0 10.5 -3.5t4.5 -6.5q0 -7 -12 -10l-396 -59q-33 -5 -33 -17q0 -5 13 -18l354 -170q10 -3 10 -19q0 -18 -30 -18l-314 149q-70 34 -80 45q-6 7 -6 13q-2 4 -2 8z" />
<glyph unicode="=" horiz-adv-x="856" d="M141 389q0 18 15.5 28.5t31.5 10.5q63 0 171 -4t185 -8l77 -4q63 0 63 -19t-74 -22q-90 4 -256 4h-194q-19 0 -19 14zM219 528q0 18 15.5 28.5t31.5 10.5q63 0 171 -4t185 -8l76 -4q64 0 64 -19t-74 -22q-90 4 -256 4h-194q-19 0 -19 14z" />
<glyph unicode="&#x3e;" horiz-adv-x="741" d="M209 350q0 7 12 10l395 60q33 5 33 16q0 7 -12 19l-354 170q-11 4 -11 18q0 19 31 19l313 -150q7 -3 16.5 -8t15 -7.5t13.5 -6.5t12 -6.5t9.5 -5.5t8.5 -5.5t6 -5.5t4 -6t1 -6q3 -5 3 -9q0 -29 -66 -45l-416 -61q-6 0 -10 3.5t-4 6.5z" />
<glyph unicode="?" horiz-adv-x="770" d="M147 20q0 29 30.5 56.5t58.5 27.5q13 0 23.5 -11.5t10.5 -24.5q0 -18 -27.5 -49t-66.5 -31q-13 0 -21 9.5t-8 22.5zM272 334q7 74 54 136.5t115 109t149 90t160.5 90t145 98.5t106 125t40.5 160q0 90 -42 133t-115 43q-98 0 -216 -66t-203 -173t-85 -210q0 -79 53 -79 q47 0 126 58.5t140 124.5t76 99q6 14 17 14q14 0 14 -14q0 -2 -4 -14q-26 -46 -91.5 -113.5t-148 -123.5t-135.5 -56q-76 0 -76 117q0 100 52 190t132.5 149.5t175.5 94.5t183 35q114 0 186 -59.5t72 -178.5q0 -63 -27.5 -117.5t-73.5 -96.5t-106 -79.5t-127 -71t-134 -66 t-129 -70t-110.5 -78t-79 -93.5t-34.5 -114q0 -83 28 -95q11 -7 11 -8q0 -8 -27 -8q-21 0 -46.5 31.5t-25.5 85.5z" />
<glyph unicode="@" horiz-adv-x="1136" d="M-16 35q0 89 37.5 183.5t118 187t193 165t276.5 117.5t354 45q124 0 184.5 -50t60.5 -134q0 -65 -35 -140.5t-100 -147.5t-149.5 -131.5t-193 -95.5t-220.5 -36q-12 0 -12 12q0 19 11 57.5t21 67.5l11 29q0 4 -4 4q-10 0 -65.5 -41t-116.5 -82t-85 -41q-34 3 -34 62 q0 63 31 131.5t90.5 132.5t138 115.5t183 82.5t216.5 31q10 0 17.5 -7t7.5 -15q0 -18 -96 -126t-192.5 -223.5t-96.5 -150.5q0 -8 8 -8q115 0 261.5 94t248.5 223.5t102 226.5q0 136 -213 136q-161 0 -306.5 -47.5t-249.5 -123.5t-181.5 -170t-115.5 -189t-38 -179 q0 -100 57 -160.5t168 -60.5q86 0 181.5 16.5t171 40.5t138.5 48t103 40.5t45 16.5q15 0 15 -11q0 -8 -8 -12q-15 -7 -40.5 -18t-103 -39.5t-152.5 -50.5t-174 -40t-182 -18q-138 0 -212 79t-74 204zM285 61q0 -12 12 -12q9 0 27 8.5t41.5 23.5t47 31.5t51.5 37.5t48 36.5 t43 33t29 22.5q35 27 135 141.5t100 132.5q0 8 -16 8q-71 0 -164.5 -53.5t-170 -127t-130 -153t-53.5 -129.5z" />
<glyph unicode="A" horiz-adv-x="1015" d="M-35 72q0 72 29 171.5t81 213.5t129 235.5t168.5 237.5t204.5 220t232.5 182t257 123.5t272.5 45.5q82 0 82 -61q0 -60 -76.5 -167t-178 -206t-205.5 -172.5t-154 -73.5q-27 0 -27 27q0 28 46.5 83.5t62.5 55.5q8 0 8 -12q0 -5 -25.5 -33t-25.5 -37q0 -8 12 -8 q42 0 168.5 108.5t238 243t111.5 195.5q0 39 -51 39q-102 0 -217 -49t-223.5 -131.5t-218 -191.5t-203.5 -229t-176 -244t-140 -235.5t-91 -205.5t-33 -152q0 -82 63 -82q57 0 185.5 86.5t273 213t284.5 264t234 245.5q106 120 188 225q52 64 82 64q9 0 18 -7t9 -16 q0 -17 -124 -175t-272.5 -341t-272.5 -357t-124 -220q0 -17 17 -17q15 0 43.5 13.5t80.5 46.5t92 60.5t124.5 85.5t132.5 91l137 86q13 8 31 8q16 0 16 -6q0 -3 -6 -6l-148 -90q-24 -17 -80 -55.5l-88 -60.5t-83 -56t-85 -54t-72 -41t-65.5 -30.5t-46.5 -9.5q-35 0 -35 37 q0 47 50.5 140.5t111.5 179.5t111.5 157.5t50.5 79.5q0 4 -4 4q-24 -23 -64.5 -62t-152.5 -138.5t-207.5 -175t-200.5 -138t-161 -62.5q-101 0 -101 140z" />
<glyph unicode="B" horiz-adv-x="1159" d="M-96 -35q0 108 79 267.5t207.5 330t302 341t353.5 305t370.5 218.5t344.5 84q141 0 141 -71q0 -73 -140 -206.5t-312.5 -251t-295.5 -175.5q0 -4 9 -4q90 12 151 12q197 0 197 -133q0 -61 -43 -143.5t-113.5 -166.5t-165 -166.5t-193 -146.5t-202.5 -103.5t-188 -39.5 q-121 0 -121 104q0 72 51.5 170t103.5 146q12 8 17 8q4 0 4 -2l-6 -8q-32 -36 -74.5 -135.5t-42.5 -169.5q0 -90 80 -90q81 0 222.5 89t273 209.5t228.5 253t97 211.5q0 93 -133 93q-68 0 -129.5 -10.5t-88.5 -21.5l-28 -11q-138 -56 -147 -56q-11 0 -11 4q0 7 17 17 q144 58 303.5 165t279.5 216t199.5 207.5t79.5 146.5q0 35 -45 35q-141 0 -322.5 -87t-355 -224t-343.5 -308t-296.5 -336.5t-205.5 -312.5t-79 -233q0 -23 13 -23q38 0 217.5 210t359 465.5t213.5 362.5q2 5 8.5 10t10.5 5q5 0 8 -8q0 -2 1 -7t1 -8q0 -48 -48.5 -147 t-125 -215.5t-172.5 -241t-188 -225t-174.5 -165.5t-129.5 -65q-24 0 -24 31z" />
<glyph unicode="C" horiz-adv-x="600" d="M-37 109q0 80 32 183t89 215t140.5 230t181.5 228.5t216.5 208t241 170t260 115t269.5 42.5q112 0 112 -86q0 -51 -39.5 -127.5t-102.5 -157t-145 -162t-163 -145t-160.5 -103.5t-134.5 -40q-18 0 -33.5 7t-15.5 22q0 20 44 66t70 46q9 0 9 -8q0 -7 -26 -30t-26 -33 q0 -5 4 -5q46 1 161 80t232.5 184.5t208.5 220.5t91 179q0 68 -103 68q-148 0 -312.5 -76t-308 -197t-276 -274t-227 -305.5t-151 -292.5t-56.5 -234q0 -127 92 -127q124 0 502 254l137 86q13 8 31 8q16 0 16 -6q0 -3 -6 -6l-147 -90q-28 -19 -96.5 -65t-106.5 -71t-100 -62 t-103.5 -57t-88 -35t-81.5 -15q-131 0 -131 197z" />
<glyph unicode="D" horiz-adv-x="1445" d="M-2 -178q0 100 32 243t76.5 248t77.5 105q15 0 15 -19q0 -17 -6.5 -41t-6.5 -45q0 -85 41 -159.5t113 -118.5l152 188q-121 52 -121 221q0 71 23 155t66.5 173.5t108.5 179.5t145 173t181 155.5t211.5 126t242 84.5t267.5 31q160 0 237.5 -72t77.5 -199 q0 -110 -57.5 -250t-155.5 -282t-237.5 -278t-295.5 -241.5t-339 -170t-357 -64.5q-69 0 -133 23q-146 -165 -231 -250q-41 -41 -72 -41q-55 0 -55 125zM53 -139q0 -111 43 -111q7 0 219 254q-74 38 -123 99t-61 128q-1 2 -2 9t-2.5 11.5t-3.5 4.5q-5 0 -22 -66 t-32.5 -163.5t-15.5 -165.5zM379 14q67 -24 129 -24q136 0 297 66t311 173t292 245t246.5 278.5t168 278.5t63.5 241q0 106 -71.5 165.5t-219.5 59.5q-150 0 -302.5 -56.5t-277 -148t-234.5 -208.5t-185.5 -237.5t-118.5 -235t-43 -201.5q0 -121 80 -160q241 302 474 600 t284 371q29 41 45 41q20 0 20 -52q0 -47 -227.5 -332t-538.5 -645h27q80 0 176.5 41t177 99t149.5 116t109 99l39 41q17 20 33 20q10 0 10 -8q0 -13 -16 -29q-8 -8 -22.5 -23t-61 -57t-93.5 -80t-114 -85t-129 -80.5t-133 -56.5t-131 -23q-29 0 -41 2q-31 -35 -88.5 -100.5 t-83.5 -94.5z" />
<glyph unicode="E" d="M-12 43q0 70 38.5 160.5t106 183t169.5 180t218 144.5q-78 -19 -125 -19q-145 0 -145 113q0 59 43.5 140t117 166.5t179.5 169.5t223 150t254.5 107t267.5 41q90 0 90 -51q0 -58 -100 -157t-225 -175t-191 -76q-13 0 -20.5 9.5t-7.5 21.5q0 32 43 68t57 36q8 0 8 -10 q0 -8 -19.5 -21t-19.5 -22q0 -8 8 -8q36 0 141.5 70t197.5 155t92 121q0 21 -31 21q-115 0 -243.5 -45t-240.5 -115.5t-216 -158t-178.5 -174t-118.5 -164t-44 -126.5q0 -63 74 -63q49 0 104 13.5t99.5 32t94 45t78.5 45t61.5 40.5t35.5 24q12 9 17 9q6 0 6 -17v-6 q0 -7 -52.5 -43t-105.5 -68l-53 -32q-139 -83 -288 -229t-247 -291t-98 -226q0 -71 84 -71q132 0 555 284l137 86q13 8 31 8q16 0 16 -6q0 -3 -6 -6l-147 -90q-25 -16 -97.5 -65t-109.5 -73t-102 -63t-106.5 -58.5t-89.5 -35.5t-83 -16q-68 0 -102.5 36.5t-34.5 100.5z" />
<glyph unicode="F" horiz-adv-x="808" d="M2 -152q0 53 126.5 240t324.5 434l-422 -2q-27 0 -27 15q0 25 26 39t60 14q156 0 406 -13q301 374 602 678q-82 1 -152 18.5t-115.5 42.5t-91.5 54t-82 53.5t-84 41t-100 16.5q-73 0 -146 -39t-121.5 -93t-79 -107.5t-30.5 -84.5q0 -25 21 -25q57 0 140 88.5t116 165.5 q9 19 14 19q12 0 12 -12q0 -11 -2 -15q-10 -28 -42 -73.5t-74 -92.5t-94.5 -80.5t-94.5 -33.5q-57 0 -57 51q0 43 41 106t107 123t163.5 102t196.5 42q44 0 99.5 -22.5t112 -55.5t114.5 -67t126 -62t129 -35q343 340 467 340q49 0 49 -37q0 -32 -37.5 -80.5t-97.5 -97.5 t-145 -89.5t-170 -53.5q-266 -285 -588 -689q226 -10 490 -30q38 0 43 -15q0 -16 -48 -16q-6 0 -237 6t-275 6h-12q-183 -231 -301.5 -399.5t-118.5 -200.5q0 -6 7 -6q11 0 30 13.5t21 13.5t2 -6q0 -22 -71 -73.5t-97 -51.5q-18 0 -25.5 8t-7.5 28zM1210 1282 q58 11 118.5 38.5t108.5 62t86.5 71t59.5 68t21 49.5t-21 18q-80 0 -373 -307z" />
<glyph unicode="G" horiz-adv-x="829" d="M-12 -111q0 89 17 199t38 182t35 72q9 0 14 -5t6 -10v-5q-10 -48 -10 -82q0 -107 64 -170.5t157 -69.5q184 229 467.5 588.5t372.5 474.5q-153 -106 -200 -136q-475 -306 -710 -318q-9 -1 -18 -1q-60 0 -90.5 32.5t-30.5 90.5q0 47 19.5 105t55.5 121.5t91.5 129 t123 127.5t154 116t181 94t208 63.5t230.5 23.5q92 0 92 -59q0 -47 -56.5 -117.5t-137.5 -135t-181 -111t-178 -46.5q-36 3 -36 33q0 26 25 55t48 29q9 0 9 -8q0 -3 -10.5 -13t-10.5 -18q0 -6 12 -6q76 0 195 63.5t207 144t88 126.5q0 39 -68 39q-122 0 -268.5 -61 t-275 -155t-237.5 -200t-173 -204.5t-64 -159.5q0 -72 93 -72q103 0 270 72.5t316 166.5t262 176.5t133 110.5q14 19 51 19q35 0 35 -23q0 -17 -23 -51q-381 -506 -913 -1106q86 10 218.5 65.5t286.5 159.5l138 86q13 8 30 8t17 -6q0 -3 -6 -6l-148 -90 q-139 -93 -297.5 -164t-267.5 -84l-215 -241q-30 -33 -53 -33q-82 0 -82 194zM33 -55q0 -191 63 -191q9 0 19 10q31 31 170 203q-84 6 -147.5 56.5t-86.5 119.5q-3 7 -4 7q-4 0 -4 -21q-10 -92 -10 -184z" />
<glyph unicode="H" horiz-adv-x="950" d="M0 -29q0 75 161.5 314.5t343 467t296.5 351.5l4 8q0 4 -6 4q-79 -52 -334 -164t-365 -112q-61 0 -61 41q0 12 18 33.5t27 21.5q8 0 12 -4t7 -9.5t19.5 -9.5t45.5 -4q99 0 276.5 66t370.5 178q66 40 119 86q33 31 88 89.5t65 68.5q27 26 75.5 78.5t76 80.5t65 52t66.5 24 q6 0 11 -4t5 -10q0 -37 -52.5 -95t-116 -107t-129.5 -99.5t-82 -67.5q-133 -145 -333.5 -394t-375.5 -501.5t-176 -324.5q0 -6 4 -6q7 0 16 8t13 8q6 0 6 -6q0 -16 -51.5 -53t-79.5 -37q-29 0 -29 28zM453 -193q0 131 266 498q-53 130 -53 365q0 80 25 133t67 53 q98 0 98 -205q0 -85 -18 -184q285 371 649 772t487 492q27 18 66 18q43 0 45 -16q0 -7 -9 -17t-32 -30.5t-39 -36.5q-719 -719 -1159 -1243l-25 -31q-1 -5 -9.5 -43t-14.5 -58q44 -73 110 -73q37 0 84 24q22 12 45.5 26.5t50.5 32.5t41 27q13 8 31 8q17 0 17 -6q0 -3 -7 -6 l-147 -90q-77 -49 -141 -49q-59 0 -105 43q-58 -183 -138 -305.5t-159 -122.5q-26 0 -26 24zM481 -174q0 -14 11 -19q60 0 126 131.5t115 323.5q-252 -349 -252 -436zM717 707q0 -210 41 -345q47 209 47 345q0 131 -47 131q-19 0 -30 -36.5t-11 -94.5z" />
<glyph unicode="I" horiz-adv-x="759" d="M-119 -274q0 7 21 24q147 122 327 290.5t372.5 373.5t350 398t259.5 372.5t102 288.5q0 59 -68 59q-94 0 -207.5 -50.5t-217.5 -130t-204 -179t-173 -196.5t-117.5 -184.5t-44.5 -140.5q0 -67 69 -67q101 0 268 101t324 267q11 11 19 11t8 -9q0 -4 -6 -10 q-11 -12 -47 -46.5t-107.5 -93.5t-146 -110t-163.5 -89t-159 -38q-52 0 -78 28t-26 77q0 63 40.5 153.5t109.5 188t168 194.5t208.5 174t239 124.5t251.5 47.5q101 0 101 -127q-17 -118 -73 -247.5t-137 -251.5t-194.5 -254.5t-231 -249.5t-260.5 -243.5t-270.5 -230.5 t-273.5 -216q-22 -15 -29 -15l-4 2v5z" />
<glyph unicode="J" horiz-adv-x="847" d="M-616 -958q0 111 77.5 247.5t198.5 266.5t284.5 268.5t319.5 251t318 215.5q333 418 549.5 739t216.5 422q0 30 -9.5 36.5t-44.5 6.5q-104 0 -241.5 -55t-271.5 -141.5t-266 -196t-231.5 -215.5t-161 -202t-61.5 -155q0 -75 103 -75q59 0 146 33.5t169 81.5t155.5 96.5 t117.5 81.5l45 34l18 -4q-16 -14 -45 -37.5t-113 -83t-162.5 -105t-177 -83t-172.5 -37.5q-120 0 -120 103q0 58 38.5 140.5t109.5 175t164 188.5t208.5 183t235.5 155t253 108.5t254 40.5q51 0 67.5 -20t16.5 -72q0 -135 -162.5 -407t-429.5 -613q45 28 146 82q9 6 16 6 q8 0 8 -6q0 -8 -8 -13q-51 -22 -192 -108q-257 -325 -547 -642t-511.5 -517.5t-287.5 -200.5q-20 0 -20 27zM-553 -932q0 -8 6 -8q59 0 386.5 358t701.5 824q-148 -99 -288.5 -204.5t-290.5 -236.5t-260.5 -252.5t-182 -249.5t-72.5 -231z" />
<glyph unicode="K" horiz-adv-x="1441" d="M2 862q0 27 32.5 49.5t49.5 22.5q5 0 10.5 -4t5.5 -10q0 -4 -4 -9t-4 -8q0 -16 37 -16q59 0 112 6.5t139 27t202.5 70t257.5 125.5q33 18 61.5 37t40.5 29l12 10q332 342 406 395q38 27 61 27q21 0 21 -17q0 -43 -151.5 -179.5t-235.5 -182.5q-24 -30 -149.5 -179 t-237.5 -287t-237.5 -298t-201 -278.5t-75.5 -161.5q0 -4 6 -4q24 8 33 8q8 0 8 -6q0 -20 -59.5 -54t-88.5 -34q-11 0 -14.5 7.5t-3.5 26.5q0 76 82.5 211.5t203.5 280.5t241.5 279.5t213.5 235.5t103 120q0 2 -5 2q-20 -12 -55.5 -31.5t-136.5 -70t-194 -89.5t-206 -70.5 t-194 -31.5q-36 0 -61 12.5t-25 38.5zM723 362q0 100 17.5 203t44 183t56.5 144.5t56.5 99t42.5 34.5q4 0 4 -4l-4 -8q-18 -21 -57 -162q23 -82 108 -82q70 0 177 53.5t219.5 137.5t219 178.5t189.5 183.5q1 1 53 63t88 98t52 36q21 0 43 -7t22 -24q0 -36 -79 -126 t-205.5 -197t-266.5 -207t-280.5 -167t-229.5 -67q-94 0 -123 74q-57 -248 -57 -467q0 -346 170 -346q146 0 502 239l137 86q13 8 31 8q16 0 16 -6q0 -3 -6 -6l-147 -90q-91 -60 -147 -94.5t-133.5 -77t-140 -62.5t-114.5 -20q-69 0 -120 31.5t-80.5 88t-43.5 126t-14 153.5 z" />
<glyph unicode="L" horiz-adv-x="1277" d="M-53 -328q0 95 25 197t61.5 181t75 143.5t67.5 99.5t37 35q6 0 6 -11l-2 -22q35 -157 162 -242q52 71 139 192t153 212.5t154.5 213t159 213t151 192.5t145.5 172.5t127.5 131.5t111.5 90.5t84 30.5q38 0 38 -63q0 -105 -89 -322.5t-206.5 -397t-185.5 -179.5 q-41 0 -41 69q0 62 30.5 157t70.5 165.5t65 70.5q6 0 10 -6t4 -12t-2 -10q-49 -61 -88 -168.5t-39 -173.5q0 -47 25 -47q46 0 146.5 178t182 385t81.5 287q0 34 -19 34q-41 0 -220 -221.5t-484.5 -625.5t-458.5 -594q123 -64 250 -64q141 0 290.5 25t228.5 50l79 25h6 q12 0 12 -8q0 -15 -14 -18q-44 -14 -115.5 -34.5t-244 -54.5t-287.5 -34q-142 0 -250 57q-323 -397 -397 -397q-35 0 -35 98zM12 -301q0 -49 15 -55q51 0 309 352q-124 81 -170 229q-81 -115 -117.5 -259t-36.5 -267z" />
<glyph unicode="M" horiz-adv-x="1452" d="M0 35q0 20 83.5 125t208.5 249.5t271 322t271 339t208.5 305t83.5 215.5q0 33 -18.5 49.5t-48.5 16.5q-95 0 -199.5 -43.5t-199.5 -116.5t-187 -165t-165.5 -190.5t-130 -191.5t-87.5 -171.5t-31 -125.5q0 -59 50 -59q43 0 121 47t159 114t155 134.5t122 114.5l47 47 q4 4 12 4q10 0 10 -6q0 -1 -4 -9q-18 -19 -50 -51t-120 -113.5t-165 -144t-164.5 -113.5t-139.5 -51q-36 0 -55 26t-19 71q0 68 38.5 169.5t105 215.5t164.5 227.5t209 204.5t247.5 148t270.5 57q40 0 79 -29.5t39 -89.5q0 -38 -16.5 -89.5t-52.5 -118t-72 -128.5 t-97 -147.5t-104 -145.5t-117 -153t-111.5 -140.5t-111.5 -136.5t-93.5 -112t-80.5 -95q2 -2 19 10q793 721 1096 989q2 2 11 12t14.5 15t16 10.5t21.5 5.5q29 0 29 -24q0 -48 -111.5 -215t-246 -340t-246 -317t-111.5 -152l2 -2q125 109 512.5 470.5t677.5 623.5t323 262 q23 0 23 -29q0 -56 -93.5 -197t-332.5 -444q-45 -56 -185 -223t-273.5 -329t-272 -337.5t-224 -306.5t-85.5 -178q0 -8 10 -8q17 0 106 46t146 95q12 12 18 12t6 -10q0 -8 -4 -12q-22 -29 -137.5 -94.5t-146.5 -65.5t-31 26q0 80 85 238t208.5 331t275.5 365.5t271.5 333.5 t211.5 242q63 71 228.5 274.5t165.5 220.5q0 5 -2 5q-11 0 -758 -685.5t-963 -891.5q-25 -25 -47 -25q-59 0 -59 14q0 15 31 54q26 32 304 371t467 578t189 263l-2 2l-8 -4q-4 -4 -239 -214.5t-443.5 -398t-427.5 -390t-279 -267.5q-24 0 -37.5 6t-15.5 12z" />
<glyph unicode="N" horiz-adv-x="1036" d="M0 614q0 99 48.5 215t129.5 224.5t190 210.5t225 177.5t240.5 121t231.5 45.5q51 0 70.5 -23t19.5 -74q0 -91 -88.5 -260.5t-223.5 -359t-261 -349.5t-234 -284q-6 -6 -6 -16q0 -4 4 -4t12 8q16 13 278 254.5t284 263.5q67 67 525.5 481t477.5 414q23 0 23 -23 q0 -52 -111 -212.5t-277 -364.5t-360.5 -441t-360.5 -442.5t-277 -369t-111 -220.5q0 -8 6 -8q11 0 46.5 22.5t39.5 22.5q16 0 16 -10q0 -5 -8 -10q-87 -56 -111 -56q-22 0 -22 27q0 92 109.5 281t274 405.5t356.5 453t356.5 428.5t274 326t109.5 150q0 2 -6 2 q-4 0 -309.5 -279t-637 -584t-349.5 -321q-96 -90 -199 -188t-162.5 -154t-144.5 -133q-14 -14 -22.5 -17t-32.5 -3q-21 0 -21 8q0 9 25 41q61 82 212 268.5t290.5 362t281 363t227 333t85.5 211.5q0 33 -16 46t-52 13q-106 0 -230.5 -57t-237 -146.5t-218.5 -200.5 t-183.5 -219t-124 -203.5t-46.5 -152.5q0 -67 63 -67q61 0 142 40.5t152.5 98.5t134 115.5t99.5 98.5l37 40q10 12 19 12q6 0 6 -8q0 -10 -10 -20q-7 -8 -19.5 -22.5t-52.5 -55.5t-80.5 -78.5t-98 -83t-110.5 -78.5t-113 -55.5t-110 -22.5q-84 0 -84 92z" />
<glyph unicode="O" horiz-adv-x="903" d="M-35 133q0 78 27 178.5t76.5 212.5t123.5 228.5t164 226.5t203.5 207t235.5 170t266.5 115t290.5 42q65 0 65 -59q0 -69 -76.5 -179t-195 -198.5t-219.5 -89.5q-37 7 -37 25q0 14 25.5 44.5t35.5 30.5q13 0 13 -10q0 -5 -8.5 -13t-8.5 -15q0 -5 8 -5q42 0 117 51 t144.5 118.5t121.5 138t52 106.5q0 31 -37 31q-138 0 -275 -45.5t-252.5 -122.5t-223 -179.5t-192.5 -217t-155.5 -233.5t-117 -230.5t-72 -207t-25.5 -163.5q0 -123 76 -123q79 0 197.5 53t249.5 142.5t269 216t255.5 264.5t209.5 297t131 305l8 32q11 43 14.5 54.5 t8.5 11.5q8 0 11.5 -3t3.5 -13q-17 -126 -81.5 -278t-162.5 -304.5t-229.5 -296.5t-274 -255t-305.5 -178.5t-316 -67.5q-139 0 -139 186z" />
<glyph unicode="P" horiz-adv-x="739" d="M0 0q0 81 51.5 194.5t139.5 238t208.5 259.5t254.5 260.5t281.5 239t286.5 198t272 134t235 49.5q172 0 172 -123q0 -65 -49 -156.5t-129 -187t-185.5 -190.5t-213.5 -168.5t-219 -119.5t-196 -46q-69 0 -69 82q0 37 14 87t28 81l13 32q9 21 18 21t9 -21 q0 -2 -13.5 -63.5t-13.5 -95.5q0 -87 66 -87q79 0 228 101t290.5 236.5t247.5 281.5t106 227q0 84 -113 84q-133 0 -317 -85t-369 -220.5t-368.5 -307.5t-324.5 -342t-228.5 -329.5t-87.5 -263.5q0 -16 14 -16q59 0 259.5 238t386.5 505t220 358q6 15 13 15q22 0 22 -64 q0 -48 -10 -63q-5 -15 -36.5 -73t-53.5 -93q-103 -162 -281 -366.5t-330 -344t-196 -139.5q-33 0 -33 43z" />
<glyph unicode="Q" horiz-adv-x="960" d="M-461 -350q0 44 72 114.5t176.5 136.5t233 114t229.5 48h18q158 116 302.5 233.5t288.5 255t248.5 262.5t170 252t65.5 228q0 53 -20.5 74t-73.5 21q-79 0 -184 -43t-210.5 -112.5t-209 -161.5t-183 -187t-128.5 -192.5t-49 -174.5q0 -57 59 -57q67 0 154 40.5 t163.5 98.5t144 116.5t106.5 99.5l40 40q8 8 19 8q12 0 12 -8q0 -6 -6 -12q-7 -8 -20.5 -23t-56.5 -57t-87 -80.5t-107 -85t-123 -80.5t-129 -57t-130 -23q-68 0 -68 92q0 101 44 209t118.5 204t174.5 182.5t209 148.5t226 98.5t221 36.5q74 0 115 -39t41 -147 q0 -92 -61 -210t-162 -238t-238.5 -250t-282 -246.5t-301.5 -227.5q65 -14 146.5 -48t143 -64t139 -54t143.5 -24q61 0 129 17.5t121 42t98 49t70 42.5l24 17q11 8 23 8q10 0 10 -8q0 -7 -8 -15q-10 -8 -28 -20.5t-75 -45.5t-115.5 -58t-144 -45.5t-166.5 -20.5 q-88 0 -170 22t-137 50t-131 59.5t-145 44.5q-244 -170 -444 -278.5t-269 -108.5q-15 0 -25 10t-10 27zM-412 -348q0 -8 9 -8q33 0 208.5 105.5t391.5 260.5q-12 2 -39 2q-88 0 -223.5 -58.5t-241 -145.5t-105.5 -156z" />
<glyph unicode="R" horiz-adv-x="1339" d="M-70 -61q0 107 89.5 269.5t233.5 335t331.5 347t376 311.5t376 223t322.5 86q172 0 172 -122q0 -65 -49 -156.5t-129 -187t-185.5 -190.5t-213 -169t-218.5 -120t-196 -46q-11 0 -17 2q20 -606 199 -606q61 0 156.5 38.5t161.5 77.5l65 38q17 10 25 10t8 -6q0 -9 -15 -21 q-10 -7 -27.5 -18.5t-69.5 -41t-101 -52.5t-111 -41.5t-110 -18.5q-56 0 -99.5 32t-69.5 82t-42.5 121t-22.5 140t-6 147q0 186 24 308q1 4 3.5 17t4 20t4.5 18.5t6 18.5t6.5 14t7.5 10.5t9 3.5t5 -10l-9 -219q20 -27 66 -27q79 0 228 101t290.5 236.5t247.5 281.5t106 227 q0 84 -112 84q-133 0 -317 -85t-369 -220.5t-369 -307.5t-325 -342t-228.5 -329.5t-87.5 -263.5q0 -17 14 -17q45 0 179 147t277 336.5t264.5 371t146.5 247.5q6 14 12 14q22 0 22 -63q0 -49 -10 -64q-6 -15 -37 -73t-53 -93q-103 -162 -281 -366t-330 -343.5t-196 -139.5 q-33 0 -33 43z" />
<glyph unicode="S" horiz-adv-x="1153" d="M-432 -160q0 9 14 15q133 68 269.5 158t255.5 181t249.5 206.5t233 214t225.5 224.5t208 217.5t199.5 214t182.5 193.5q13 13 20 13q9 0 9 -13q0 -37 -16 -122.5t-45 -205t-73 -258.5t-96.5 -280t-119 -271.5t-136.5 -231.5t-153.5 -161.5t-165.5 -60.5q-80 0 -126 82.5 t-46 202.5q0 149 65 262q17 29 29 29q5 0 8.5 -4.5t4.5 -8.5l1 -4q-20 -34 -36.5 -119.5t-16.5 -171.5q0 -68 11.5 -119t41.5 -86.5t78 -35.5q66 0 143 89.5t146 227.5t134.5 302.5t113 316.5t76 268t28.5 158q0 6 -4 6q-8 0 -33 -25q-79 -76 -184 -185.5t-193.5 -201.5 t-198.5 -202.5t-223.5 -211.5t-243 -205t-282 -206t-317.5 -193q-12 -6 -23 -6q-14 0 -14 8z" />
<glyph unicode="T" horiz-adv-x="638" d="M4 -221q0 62 172 307t432.5 555.5t491.5 542.5q-97 2 -176.5 25.5t-131.5 56.5t-99 65.5t-102 55t-116 22.5q-73 0 -146 -39t-121.5 -93t-79 -107.5t-30.5 -84.5q0 -24 21 -24q57 0 140 88.5t116 165.5q9 18 14 18q12 0 12 -12q0 -10 -2 -14q-14 -39 -61.5 -103 t-117.5 -121t-126 -57q-57 0 -57 51q0 43 41 106t107 123t163.5 102t196.5 42q44 0 99.5 -22.5t112 -55.5t114.5 -67t126 -62t129 -35q343 340 467 340q49 0 49 -37q0 -32 -37.5 -80.5t-97.5 -97.5t-145 -89.5t-170 -53.5q-207 -221 -458 -527.5t-420 -539t-169 -270.5 q0 -7 7 -7q11 0 30 13.5t21 13.5t2 -6q0 -22 -71 -73.5t-97 -51.5q-33 0 -33 37zM1212 1212q58 11 118.5 38.5t108.5 62t86.5 71t59.5 68t21 49.5q0 19 -21 19q-79 0 -373 -308z" />
<glyph unicode="U" horiz-adv-x="1419" d="M-4 561q0 67 43.5 167.5t116.5 210t175.5 219t213 196.5t237 141.5t240.5 54.5q68 0 98.5 -30.5t30.5 -77.5q0 -106 -53.5 -236.5t-139 -257.5t-189 -258t-207.5 -249t-189.5 -218t-139 -178t-53.5 -117q0 -10 10 -10q55 0 202 104t318.5 252.5t334.5 297t271 252.5 l109 104q105 105 201 212t153 174.5t68 78.5q15 22 25.5 30.5t28.5 8.5q19 0 39 -8t20 -15q0 -12 -141 -190.5t-309.5 -386.5t-176.5 -218q-16 -21 -84 -105t-130 -163t-129.5 -170.5t-108.5 -163.5t-41 -106q0 -21 18 -21q60 0 211 89.5t391 250.5l137 86q13 8 31 8 q17 0 17 -6q0 -3 -7 -6l-147 -90q-28 -18 -122.5 -82.5t-150 -99.5t-135 -82t-139 -69.5t-100.5 -22.5q-33 5 -33 49q0 64 65 189t156.5 257t183 255t152 201.5t55.5 78.5q-9 0 -119.5 -103t-269.5 -250t-326.5 -294t-315.5 -250t-212 -103q-13 0 -21.5 9.5t-8.5 23.5 q0 62 53.5 161.5t139.5 213t190 240.5t208 256.5t190 248t139.5 228t53.5 184.5q0 42 -26.5 55t-81.5 17q-95 -1 -209.5 -62.5t-219 -156.5t-204.5 -211.5t-172.5 -228t-117 -206t-44.5 -145.5q0 -47 39 -47q49 0 125 39.5t149 96.5t139.5 113.5t106.5 95.5l41 40 q12 12 23 12q6 0 6 -6q0 -4 -8 -12q-16 -16 -43.5 -42.5t-104.5 -94t-145.5 -119.5t-148.5 -94.5t-132 -42.5q-100 0 -100 104z" />
<glyph unicode="V" horiz-adv-x="833" d="M0 508q0 73 40.5 177.5t109 217.5t167.5 224.5t209 200t241 143.5t255 55q61 0 93 -40.5t32 -113.5q0 -84 -70.5 -236t-171 -311.5t-201 -307t-171 -248.5t-70.5 -109q17 18 47 50t125 129.5t191 192t234.5 223.5t267 239.5t276.5 223t274.5 192t249.5 129.5t213 50 q39 0 39 -16q0 -20 -114 -93t-124 -73q-2 0 -4 2.5t-2 3.5q0 6 15.5 22t15.5 21q0 4 -6 4q-93 0 -325 -147.5t-504.5 -369.5t-565 -503.5t-496.5 -529.5q-26 -31 -58 -42t-79 -11q-16 0 -16 6t14 20q35 30 147 177.5t168 236.5q12 18 138 201.5t215 320.5t184 322t115 299 q-2 30 -22 49.5t-58 19.5q-110 0 -283 -112.5t-328.5 -268.5t-268.5 -332t-113 -292q0 -60 51 -60q121 0 279 115.5t302 284.5q9 12 21 12q6 0 6 -6q0 -10 -10 -23q-40 -56 -113.5 -125t-159 -131.5t-177.5 -104.5t-158 -42q-35 0 -50.5 19t-15.5 65z" />
<glyph unicode="W" horiz-adv-x="1323" d="M0 545q0 67 42.5 167t115.5 209.5t178 219t222 197t257.5 142t274.5 54.5q141 0 141 -139q0 -99 -67.5 -252.5t-163 -302t-191.5 -282.5t-163 -217l-68 -83l921 897q7 7 17.5 17t15.5 14.5t11 10t10.5 7.5t7.5 2q6 0 10 -5t4 -11q0 -18 -39 -60q-347 -550 -578 -968 l-6 -23q34 39 116.5 127.5t214.5 223t279.5 277.5t311.5 288t309.5 259t274.5 185.5t206 71.5q13 0 22 -10t9 -23q0 -7 -16 -18q-11 -6 -80.5 -56.5t-134.5 -96.5t-72 -46q-4 0 -4 4l4 12q0 9 -10 9q-81 0 -313 -183t-489.5 -430t-493 -497t-336.5 -386q-18 -22 -33 -22 t-15 10q0 8 15 35l610 1063q0 6 -6 6q-66 -61 -169.5 -157.5t-320 -309t-311.5 -323.5q-30 -33 -142.5 -145.5t-135.5 -131.5q-9 -7 -18 -12t-19.5 -8t-15 -4t-17 -3t-14.5 -2q-13 0 -13 13q0 11 57.5 82t149 180.5t202.5 244.5t222.5 284.5t203 290t149 272t57.5 219.5 q0 41 -22.5 63.5t-65.5 22.5q-101 0 -224 -56.5t-236.5 -146t-222.5 -201.5t-189.5 -221.5t-129.5 -208t-49 -158.5q0 -30 20 -43.5t50 -13.5q65 0 154 45.5t169 110.5t150.5 130t112.5 111l42 45q11 7 13 7q8 0 8 -13q-17 -19 -45.5 -50t-113 -111t-163.5 -141t-178 -111 t-174 -50q-92 0 -92 103z" />
<glyph unicode="X" horiz-adv-x="1660" d="M-12 590q0 85 39.5 194.5t104 218t151.5 214t178 186.5t187.5 130.5t176.5 49.5q62 0 111 -30.5t87 -94.5t58.5 -173t20.5 -257q0 -127 -12 -385q318 309 757 799q19 22 43 22q15 0 26 -7.5t11 -20.5t-6 -19q-49 -58 -118.5 -131t-122.5 -126.5t-154.5 -150t-140 -133 t-160 -148.5t-138.5 -128q-16 -243 -16 -420q0 -31 1.5 -54t9.5 -54t21.5 -50.5t40 -34t62.5 -14.5q156 0 494 252l137 86q13 8 31 8q16 0 16 -6q0 -3 -6 -6l-147 -90q-210 -151 -339.5 -226t-220.5 -75q-90 0 -137 90t-47 293q0 65 4 213q-268 -248 -500.5 -444.5 t-308.5 -239.5q-26 -16 -35 -16q-6 0 -6 4q0 23 29 39q3 2 33.5 23.5t79 57.5t92.5 72q312 253 618 543q3 70 11 199t13 229t5 180q0 199 -48.5 291t-133.5 92q-82 0 -192 -78t-214 -198t-194.5 -253.5t-145.5 -257.5t-55 -196q0 -70 65 -70q77 0 207.5 89t258.5 223.5 t204 261.5q11 20 21 20q8 0 8 -16q0 -13 -6 -25q-18 -26 -53.5 -71t-93 -112.5t-125.5 -133.5t-140 -124.5t-147.5 -95t-137.5 -36.5q-112 0 -112 121z" />
<glyph unicode="Y" horiz-adv-x="1259" d="M-309 -981q0 85 64.5 193.5t167 216t246.5 228.5t285 224.5t302 210.5q392 495 663 873q-68 -46 -144 -94t-192 -116.5t-217 -111.5t-157 -43q-54 0 -54 55q0 51 44 143.5t88 163.5l44 72q0 4 -6 4q-20 -13 -56 -33.5t-142.5 -74t-208 -94t-234 -74t-239.5 -33.5 q-37 0 -37 23q0 34 59 61t86 27q15 0 15 -11q0 -4 -6.5 -9.5t-6.5 -8.5q0 -8 15 -8q109 0 234 32.5t224.5 78.5t183.5 92.5t130 79.5l47 32l25 26q24 26 58.5 62.5t79.5 82.5t86.5 88.5t80 79.5t59.5 54q67 56 100 56q12 0 23.5 -8.5t11.5 -18.5q0 -21 -78.5 -101.5 t-189 -186t-152.5 -154.5q-50 -55 -109.5 -130t-122.5 -175.5t-63 -147.5q0 -14 21 -14q57 0 150.5 39.5t179.5 90.5t189 121t154 108t99 75q172 229 244 307q59 66 111 110t79.5 59t42.5 15t25 -10t10 -22q0 -5 -14 -26t-56.5 -67t-101.5 -96q-17 -17 -206 -255t-230 -292 q-152 -208 -439 -565q298 189 480 289q12 6 18 6q10 0 10 -8q0 -13 -16 -23q-210 -105 -537 -321q-180 -222 -347.5 -415t-339 -375t-304.5 -288t-199 -106q-10 0 -20 13.5t-10 23.5zM-229 -948q0 -6 4 -6q144 3 925 977q-184 -127 -340 -251.5t-293.5 -255.5t-216.5 -252 t-79 -212z" />
<glyph unicode="Z" horiz-adv-x="1406" d="M0 -25q0 111 26 221.5t68 163.5q10 23 21 23q12 0 12 -23q0 -17 11.5 -54t34.5 -88t71 -107.5t110 -96.5q332 327 771.5 778.5t439.5 469.5q0 2 -2 2q-17 -9 -44.5 -23t-93.5 -37.5t-110 -23.5q-59 0 -109.5 20.5t-86 49.5t-68 58t-71 49.5t-81.5 20.5q-72 0 -142 -35.5 t-120.5 -89t-90 -114.5t-59.5 -114t-20 -85q0 -31 20 -31q25 0 88.5 42.5t135.5 118.5t104 151q9 20 19 20t10 -18q0 -9 -2 -13q-22 -57 -93 -136.5t-161 -140.5t-152 -61q-35 0 -35 50q0 42 25 103.5t75.5 130.5t117 128t159.5 98t193 39q42 0 83 -20t75 -48.5t69.5 -57 t81 -48.5t94.5 -20q58 0 142.5 44.5t133.5 81.5t64 52q10 10 21 10q14 0 36.5 -11.5t22.5 -23.5q0 -16 -12 -28q-855 -870 -1391 -1358q114 -60 262 -60q329 0 795 291l137 86q13 8 31 8q16 0 16 -6q0 -3 -6 -6l-147 -90q-518 -334 -875 -334q-151 0 -268 60 q-217 -195 -242 -195q-47 0 -70.5 64t-23.5 163zM49 57q0 -104 16.5 -185t49.5 -81q11 0 186 172q-137 79 -229 258q-9 0 -16 -49t-7 -115z" />
<glyph unicode="[" horiz-adv-x="1024" d="M164 -336q0 9 6 21l1260 1972q24 35 59 35h244q10 0 10 -9q0 -14 -22 -37.5t-35 -23.5h-191q-9 0 -16.5 -4t-10.5 -8l-4 -4l-1206 -1891q-4 -6 -4 -10q0 -8 12 -8h193q20 0 20 -12q0 -13 -18.5 -29t-36.5 -16h-234q-26 0 -26 24z" />
<glyph unicode="\" horiz-adv-x="532" d="M276 -258q0 340 24.5 860.5t51 886.5t35.5 379q26 26 41 26q18 0 18 -41q0 -30 -30.5 -407t-61 -853t-30.5 -747q0 -88 2 -125q-15 -22 -29 -22q-16 0 -21 43z" />
<glyph unicode="]" horiz-adv-x="686" d="M-336 -352q0 14 22 37.5t35 23.5h191q9 0 16.5 4.5t11.5 8.5l3 4l1206 1890q4 6 4 10q0 8 -12 8h-193q-20 0 -20 13t18.5 29t36.5 16h234q12 0 19 -7t7 -18q0 -8 -6 -20l-1260 -1973q-24 -34 -59 -34h-244q-10 0 -10 8z" />
<glyph unicode="_" horiz-adv-x="974" d="M51 -49q0 18 33 18h88q13 0 112 1t203 1h248q14 0 17 -10q0 -19 -17.5 -29t-38.5 -10h-53q-88 0 -228 4t-235 8l-96 5q-2 0 -8.5 1t-9 1.5t-6.5 1.5t-6 3t-3 5z" />
<glyph unicode="`" horiz-adv-x="727" d="M285 748q0 22 24 22q25 0 35 -10q181 -144 193 -150q14 -8 14 -12t-10 -4q-8 0 -70 27t-124 65.5t-62 61.5z" />
<glyph unicode="a" horiz-adv-x="604" d="M0 66q0 63 31 131.5t90.5 132.5t138 115.5t183 82.5t216.5 31q10 0 17.5 -7t7.5 -15q0 -18 -96 -126t-192.5 -223.5t-96.5 -150.5q0 -8 8 -8q16 0 108 53.5t175 107.5l84 54l2 -27q-37 -25 -94 -61t-166.5 -97t-141.5 -61q-12 0 -12 12q0 19 11 57.5t21 67.5l11 29 q0 4 -4 4q-10 0 -65.5 -41t-116 -82t-84.5 -41q-35 3 -35 62zM49 61q0 -12 12 -12q9 0 27 8.5t41.5 23.5t47 31.5t51.5 37.5t48 36.5t43 33t29 22.5q35 27 135.5 141.5t100.5 132.5q0 8 -17 8q-71 0 -164.5 -53.5t-170 -127t-130 -153t-53.5 -129.5z" />
<glyph unicode="b" horiz-adv-x="428" d="M-14 33q0 80 78.5 216t199.5 283.5t269 301t285 274t250.5 197.5t162.5 77q18 0 18 -22q0 -50 -119.5 -185t-286 -287.5t-342 -298t-290.5 -224.5q-188 -238 -188 -320q0 -14 14 -14q81 0 223 135q-6 15 -6 41q0 47 56 128t119.5 141.5t88.5 60.5q21 0 21 -21 q0 -41 -69.5 -140.5t-164.5 -195.5q7 -10 29 -10q53 0 168 76l10 -21q-140 -94 -201 -94q-27 0 -41 14q-162 -151 -260 -151q-24 0 -24 39zM252 416q103 76 323 269t420.5 397t200.5 257q0 5 -4 7q-34 0 -198.5 -148.5t-376.5 -371t-365 -410.5zM291 221q0 -16 2 -22 q83 85 149 176t66 117q0 6 -6 6q-25 0 -76 -52t-93 -119.5t-42 -105.5z" />
<glyph unicode="c" horiz-adv-x="415" d="M0 84q0 50 33 115t89 127.5t123 116.5t142 87t139 33q16 0 28.5 -7.5t12.5 -25.5q0 -30 -34.5 -76.5t-78 -81t-67.5 -34.5q-22 0 -22 22q0 13 10 32.5t20 19.5q4 0 9 -4t7 -7l3 -4q2 2 6.5 5.5t16 13.5t22.5 20t24 23.5t22.5 25.5t16 24t6.5 21q0 7 -10 7 q-49 0 -130.5 -57t-156.5 -134.5t-130.5 -163.5t-55.5 -139q0 -18 18 -18q86 0 411 212q2 1 3 2t2.5 2t3 1.5t2.5 1.5l2 -27q-5 -3 -39 -25t-52.5 -34t-57.5 -35.5t-65 -38t-63 -33t-64 -29.5t-55.5 -18.5t-49.5 -7.5q-41 0 -41 88z" />
<glyph unicode="d" horiz-adv-x="690" d="M0 45q0 73 36 142.5t94.5 123t131 99t146.5 75t140.5 46t113.5 16.5q412 453 643 751q26 34 50 48.5t56 15.5q19 0 19 -16q0 -14 -170.5 -210.5t-374.5 -427.5t-374.5 -440.5t-170.5 -247.5q0 -8 8 -8q12 0 83.5 35t129.5 70l201 127l2 -27q-95 -64 -193 -121 q-68 -40 -141.5 -74t-97.5 -34q-25 0 -25 28q0 27 13 55t39.5 70.5t41.5 73.5q1 2 2 5t2 4.5t1 2.5l-3 2q-35 -25 -88 -62.5t-156.5 -100t-135.5 -62.5q-23 0 -23 41zM41 45q0 -10 8 -10q31 0 142 69t244 184t198 216q0 14 -25 14q-42 0 -137 -53.5t-190 -126.5 t-167.5 -156.5t-72.5 -136.5z" />
<glyph unicode="e" horiz-adv-x="446" d="M0 68q0 79 46.5 157.5t115 136t145 103t140 69t96.5 23.5q17 0 32 -8.5t15 -22.5q0 -40 -57.5 -93.5t-137 -100t-157 -83t-125.5 -50.5q-70 -99 -70 -156q0 -27 20 -27q25 0 110.5 33.5t141.5 67.5l201 127l2 -27q-92 -62 -190 -119q-64 -38 -149.5 -70t-121.5 -32 q-57 0 -57 72zM133 225q67 22 160 86t158 127.5t65 87.5q0 6 -8 6q-55 0 -171 -96.5t-204 -210.5z" />
<glyph unicode="f" horiz-adv-x="409" d="M-539 -631q0 44 158 272.5t393 527.5t479.5 590t445.5 491t263 200q19 0 19 -16q0 -84 -115 -237.5t-279.5 -313t-316.5 -292t-256 -208.5l-131 -164q16 12 29 12q32 0 32 -43q0 -52 -43 -149q76 36 162 90l178 115l2 -27q-241 -160 -356 -205q-49 -102 -124.5 -215.5 t-163.5 -216.5t-183.5 -170t-169.5 -67q-23 0 -23 26zM-496 -621q0 -6 9 -6q54 0 131 62.5t155 161t147 202t124 201.5q-21 9 -21 49q0 64 43 135q-254 -318 -421 -544.5t-167 -260.5zM78 57q0 -21 6 -30q70 127 70 159q0 9 -4 9q-30 0 -51 -47.5t-21 -90.5zM332 481 q124 90 319.5 277.5t355.5 379t160 261.5q0 4 -6 4q-36 0 -271 -265t-558 -657z" />
<glyph unicode="g" horiz-adv-x="593" d="M-500 -723q0 48 21.5 99t62.5 101t85.5 95.5t107.5 95.5t110 85.5t110 81.5t93 69q46 57 98 119t83.5 98.5t35.5 42.5q0 4 -4 4q-10 0 -65.5 -41t-116 -82t-84.5 -41q-35 3 -35 62q0 63 31 131.5t90.5 132.5t138.5 115.5t183.5 82.5t216.5 31q10 0 16 -7t6 -17 q-367 -460 -395 -508q16 0 110 53.5t179 107.5l86 54l2 -25q-131 -90 -246 -151l-187 -97q-105 -141 -259 -313t-279 -290t-156 -118q-39 0 -39 29zM-446 -692q0 -13 6 -13q13 0 129.5 132.5t226.5 264.5l111 132q0 4 -4 4q-197 -144 -284 -225q-184 -172 -185 -295zM51 61 q0 -12 12 -12q9 0 27 8.5t41.5 23.5t47 31.5t51.5 37.5t48 36.5t43 33t29 22.5q35 27 135.5 141.5t100.5 132.5q0 8 -17 8q-95 0 -219.5 -82.5t-211.5 -193t-87 -187.5z" />
<glyph unicode="h" horiz-adv-x="659" d="M-150 6q0 8 29 47q147 181 475 562t371 423q6 6 52.5 53.5t82 83t92 88t99 87.5t85 60.5t66.5 25.5q13 0 24 -9t11 -20q0 -64 -175 -259.5t-400.5 -399t-374.5 -302.5l-33 -38q-22 -21 -101 -120.5t-106 -135.5q-12 -20 -12 -23q0 -2 2 -2q4 0 6 2q38 25 172 121t251 174 t198 119q12 4 16 4q22 0 22 -29q0 -47 -60 -126t-131.5 -147t-131.5 -128.5t-60 -75.5q0 -12 9 -12q113 36 200 88l201 127l2 -27q-92 -62 -190 -119q-64 -38 -149.5 -70t-121.5 -32q-24 0 -24 18q0 28 65 104.5t143 153t143 146t65 86.5q0 4 -7 4q-6 0 -8 -2 q-82 -41 -275.5 -172t-299.5 -211q-108 -80 -135 -107q-8 -8 -16.5 -12.5t-13.5 -5.5t-17.5 -2t-18.5 -2q-21 0 -21 12zM354 526q101 68 302.5 258.5t366.5 373.5t165 226q0 11 -12 11q-9 0 -21 -6q-69 -38 -160.5 -127t-163.5 -175q-9 -10 -85.5 -102.5t-94.5 -112.5z" />
<glyph unicode="i" horiz-adv-x="303" d="M-53 31q0 48 124 214t263 308q6 7 14 11t12 4l5 1q63 -1 63 -14q0 -7 -12 -23q-82 -82 -221 -241.5t-195 -241.5q-6 -8 -6 -14q0 -8 10 -8q16 0 108 54.5t176 108.5l83 54l2 -27q-37 -25 -94 -61t-166.5 -97t-141.5 -61q-24 0 -24 33zM477 717q0 29 31 57.5t59 28.5 q14 0 25.5 -12t11.5 -25q0 -20 -29 -52t-69 -32q-13 0 -21 10.5t-8 24.5z" />
<glyph unicode="j" horiz-adv-x="374" d="M-756 -803q0 62 40 136t102.5 144t151.5 148t175 142t185 131q35 43 80 101t73 93t43 53q26 30 119 156l-74 -43q-58 -34 -92 -57l-6 24q14 9 41 28.5t41 27.5q61 42 111 85.5t74.5 71t54.5 63.5t43 50q14 16 47 16q53 0 53 -20q0 -6 -6 -12q-2 -3 -13 -15.5t-37.5 -43.5 t-58.5 -70l-299 -381q77 45 354 219l3 -27q-80 -51 -168 -104l-238 -148q-54 -68 -148 -181.5t-226 -267t-241 -260t-143 -106.5q-19 0 -30 15t-11 32zM-719 -788q0 -12 5.5 -18.5t13.5 -6.5q12 0 61 52.5t144.5 169.5t155.5 191.5t181 227.5q-115 -83 -209.5 -160.5 t-177 -160t-128.5 -159t-46 -136.5zM522 717q0 19 14.5 39.5t36 33.5t39.5 13q14 0 25.5 -12t11.5 -25q0 -20 -29 -52t-69 -32q-7 0 -12.5 3t-9 8t-5.5 11t-2 13z" />
<glyph unicode="k" horiz-adv-x="679" d="M-127 -6q0 10 10 22q118 142 258.5 329t270.5 351t280 326q124 134 267 258.5t194 124.5q8 0 15.5 -7t7.5 -18q0 -74 -148 -251t-348.5 -362t-368.5 -306q-35 -47 -97.5 -137.5t-90.5 -128.5q73 62 180.5 136.5t243.5 145.5t221 80q15 0 25 -11t10 -28q0 -34 -46 -74 t-111.5 -73t-131.5 -61t-112 -44l-46 -16q0 -3 6 -6q48 -20 48 -54q0 -24 -28 -57t-55.5 -62.5t-27.5 -45.5q0 -11 16 -11q29 0 96 29.5t136 71.5l203 127l2 -25l-50 -33q-51 -34 -94.5 -60.5t-103.5 -59.5t-112 -52.5t-87 -19.5q-55 0 -55 55q0 19 54 88t54 80q0 10 -79 10 q-68 0 -84 -4q-7 -2 -48.5 -36.5t-80.5 -73.5q-21 -20 -43.5 -44.5t-39 -43.5t-20.5 -23q-18 -20 -49 -20q-41 0 -41 14zM233 256q0 -8 25 -8q76 10 163.5 50.5t150.5 86t105 84.5t42 51q0 4 -6 4q-46 0 -166 -67t-217 -134zM362 530q71 45 196 157t249.5 239t215.5 251.5 t91 184.5q0 4 -4 4q-7 0 -28 -15.5t-35 -29.5q-18 -14 -128.5 -133t-187.5 -207q-195 -218 -369 -451z" />
<glyph unicode="l" horiz-adv-x="370" d="M-31 35q0 80 78.5 216t199.5 283.5t269 301t285 274t250.5 197.5t162.5 77q10 0 14.5 -5t4.5 -17q0 -50 -134.5 -205.5t-318.5 -332t-377 -344t-307 -247.5q-44 -63 -67 -110t-23 -76q0 -18 8 -18q84 0 301 135l123 80l2 -27q-5 -3 -39 -25t-52.5 -34t-57.5 -35.5 t-65 -38t-63 -33t-64 -29.5t-55.5 -18.5t-49.5 -7.5q-25 0 -25 39zM129 281q47 36 143 120t213 191.5t240 227.5t224 225t166 186.5t65 109.5q0 5 -4 7q-29 0 -157.5 -113t-288 -272.5t-330 -351t-271.5 -330.5z" />
<glyph unicode="m" horiz-adv-x="1009" d="M-43 6q71 82 233 285l-143 -88l-6 22l86 60q37 26 68.5 48.5t53 38.5t42.5 35.5t31 28.5t26.5 28t20.5 24t20.5 26.5t20.5 26.5q4 -1 9 -3.5t14 -15t9 -30.5q-41 -61 -111.5 -146t-118.5 -140t-48 -61q0 -4 4 -4q2 0 8 6q48 37 172.5 123t228 156.5t109.5 75.5 q35 28 51 28q10 0 19.5 -9.5t9.5 -18.5q0 -22 -32.5 -73.5t-70.5 -99t-76.5 -94.5t-41.5 -51q-10 -15 -10 -20q0 -2 2 -2q4 0 8 4q118 76 446 317q75 52 96 52q19 0 19 -31q0 -49 -61.5 -128.5t-135 -147.5t-135 -127t-61.5 -72q0 -2 2 -2q16 0 107.5 54.5t175.5 108.5 l83 54l2 -27q-37 -25 -93.5 -61t-166 -97t-141.5 -61q-12 0 -12 12q0 48 39 108.5t94.5 114.5t111.5 103.5t95 89.5t39 59q0 4 -2 4q-5 0 -7 -2q-18 -10 -264 -183t-268 -191q-27 -19 -67.5 -54.5t-53.5 -48.5q-19 -16 -53 -16q-33 0 -43 1.5t-10 8.5q0 9 16 25 q26 26 174.5 185.5t169.5 182.5q64 73 66 78q0 6 -5 6t-14 -6q-94 -56 -311 -207q-49 -34 -104.5 -73t-91.5 -65.5t-67 -49t-32 -23.5q-8 -6 -25.5 -25t-33 -28.5t-33.5 -9.5q-5 0 -11 0.5t-8.5 0.5t-5.5 0.5t-4 1t-2.5 1.5t-1.5 3v5z" />
<glyph unicode="n" horiz-adv-x="671" d="M-68 6q3 4 50 53.5t103.5 112.5t96.5 113q-50 -29 -137 -84l-6 24l67 43q43 28 78 52.5t62.5 47.5t45.5 38.5t37 37.5t27.5 32t26 33.5t23.5 31.5q24 -8 24 -49q-40 -59 -109.5 -142.5t-115 -138t-45.5 -66.5q0 -4 2 -4q4 0 10 6q48 37 172.5 123t228 156.5t109.5 75.5 q5 3 13.5 9t12 8.5t9.5 6.5t10 5.5t9.5 2.5t11.5 1q18 0 18 -31q0 -49 -61.5 -128.5t-135 -147.5t-135 -127t-61.5 -72q0 -2 2 -2q16 0 107.5 54.5t175.5 108.5l83 54l2 -27q-37 -25 -93.5 -61t-166 -97t-141.5 -61q-12 0 -12 12q0 48 39 108.5t95 114.5t111.5 103.5 t94.5 89.5t39 59q0 4 -4 4l-5 -2q-7 -4 -54.5 -35t-127 -84.5t-145.5 -99.5q-49 -34 -104.5 -73t-91.5 -65.5t-67 -49t-32 -23.5q-8 -6 -25.5 -25t-33 -28.5t-33.5 -9.5q-7 0 -16.5 0.5t-15 0.5t-11.5 1t-8.5 3.5t-2.5 6.5z" />
<glyph unicode="o" horiz-adv-x="475" d="M-12 61q0 78 54.5 164t130 149t155 104.5t131.5 41.5q57 0 57 -51q0 -146 -156 -291q12 -4 25 -4q57 0 166 72l10 -21q-131 -88 -199 -88q-26 0 -38 10q-81 -64 -168.5 -105.5t-128.5 -41.5q-39 0 -39 61zM37 45q0 -12 14 -12q37 0 106.5 46.5t145.5 117.5v10 q0 63 63 156t113 120q-6 6 -16 6q-46 0 -149 -82t-190 -190.5t-87 -171.5zM340 233q65 67 106 128.5t41 99.5v2q-40 -20 -90 -97.5t-57 -132.5z" />
<glyph unicode="p" d="M-618 -557q0 11 22 39l1141 1311q10 12 33 12q12 0 27.5 -5t15.5 -12q0 -5 -11 -16l-465 -524q-10 -12 -10 -17q0 -4 2 -4q4 0 10 6q67 57 265.5 185.5t253.5 128.5q22 0 22 -29q0 -55 -60 -137.5t-131.5 -150.5t-131.5 -124.5t-60 -64.5q0 -12 8 -12q115 36 201 88 l201 127l2 -27q-93 -62 -191 -119q-64 -38 -149 -70t-121 -32q-25 0 -25 18q0 28 65 104.5t143 153t143 146t65 86.5q0 4 -6 4q-46 0 -204 -101t-224 -155q-40 -32 -83 -69.5t-70.5 -63.5t-53.5 -50.5t-29 -27.5q-29 -29 -244 -278t-249 -295q-30 -41 -66 -41q-36 2 -36 16z " />
<glyph unicode="q" horiz-adv-x="716" d="M-293 -694q0 34 95 169t228.5 301.5t215 265.5t116.5 140q11 15 11 17t-4 2q-2 0 -54.5 -35.5t-119.5 -80t-97 -60.5q-41 -21 -61 -21q-32 0 -39 45q7 85 46 159t97 126t126 93t138.5 65.5t130.5 36.5t105 12l45 -2q30 12 57 14q19 0 19 -14q0 -17 -10 -27 q-40 -50 -87 -104t-108 -123t-92 -105q27 -32 27 -90q0 -6 -5 -31q37 19 111 64.5t130 80.5l56 36l2 -23q-180 -121 -303 -182q-32 -129 -175 -310t-309 -312.5t-259 -131.5q-33 0 -33 25zM-252 -672q0 -10 23 -10q115 46 260 172t260.5 272t154.5 254q-40 -18 -61 -18 q-15 0 -26.5 13.5t-14.5 37.5q-132 -146 -212 -236.5t-188 -221.5t-188 -242q-8 -11 -8 -21zM55 49q0 -14 11 -14q30 0 209.5 127.5t250.5 197.5q24 23 57.5 60.5t56 64t22.5 27.5q0 8 -25 8q-71 0 -155 -36.5t-157.5 -93.5t-135.5 -121t-98 -123.5t-36 -96.5zM369 66 q0 -43 30 -43q22 0 54 16q10 33 10 55q0 24 -5.5 44t-11.5 20h-4l-73 -84v-8z" />
<glyph unicode="r" horiz-adv-x="522" d="M-59 -4q4 5 52.5 58.5t106.5 120t99 118.5l-60 -35q-95 -57 -137 -86l-8 23l129 81q70 45 120 93.5t68.5 80t33 52t26.5 20.5q14 0 39 -14q0 -21 -32.5 -71.5t-65.5 -90.5l-33 -41q0 -4 2 -4q6 0 14 8q7 6 68.5 57t106.5 85.5t103.5 68t92.5 33.5q18 0 18 -12 q0 -18 -100 -70q-22 -11 -68.5 -116.5t-46.5 -155.5q0 -4 4.5 -7.5t7.5 -3.5q23 0 84 37l127 80l17 -18q-105 -63 -138 -86q-74 -49 -106 -49q-45 0 -45 38q0 19 9 49t32 89.5t35 95.5l-7 6q-7 0 -18 -8q-31 -25 -144 -119.5t-141 -120.5q-40 -38 -153 -170q-2 -2 -6.5 -8 t-7.5 -8t-12.5 -4t-24.5 -2q-41 0 -41 6z" />
<glyph unicode="s" horiz-adv-x="528" d="M8 90q0 41 29.5 72t79.5 31q33 0 33 -33q0 -19 -14 -35t-36 -16q-17 0 -19 18t-11 18q-14 0 -23.5 -14.5t-9.5 -34.5q0 -34 24 -59t74 -25q41 0 81.5 33.5t55.5 58.5q12 22 59 136.5t99 179.5l4 8q0 2 -4 2q-8 0 -97.5 -53t-174.5 -107l-86 -53q-11 -6 -25 -16l-6 24 q106 68 214 133.5t163 97.5l55 31q32 24 68 55.5t54.5 46.5t29.5 15q8 0 8 -8q0 -11 -16.5 -31.5t-45.5 -50t-36 -37.5q-30 -31 -101.5 -196.5t-77.5 -176.5q0 -8 6 -8q5 0 7 2q47 28 104.5 64.5t90.5 59.5l34 22l2 -27q-24 -15 -64.5 -41t-63 -40t-58 -35.5t-57 -34 t-50.5 -28.5t-49 -24.5t-42 -17.5t-40 -12.5t-33 -3.5q-65 0 -100 32.5t-35 77.5z" />
<glyph unicode="t" horiz-adv-x="296" d="M-61 14q0 57 147.5 260.5t339.5 430.5q-196 4 -254 4q-33 0 -33 22q0 8 19 8l293 -6q108 128 185.5 210.5t90.5 82.5q55 0 55 -18q0 -10 -16 -29q-68 -84 -211 -248l344 -6q27 0 27 -8q0 -15 -176 -15h-35h-185q-123 -138 -192.5 -217.5t-162.5 -188t-137 -170t-44 -81.5 q0 -8 10 -8q21 0 109.5 48.5t132.5 80.5l123 76l2 -23q-51 -35 -117 -76q-103 -70 -180.5 -106.5t-112.5 -36.5q-22 0 -22 14z" />
<glyph unicode="u" horiz-adv-x="712" d="M41 225l70 43q76 49 122.5 82t77.5 64t43 46.5t39 53.5q15 21 33 21q7 0 15.5 -7.5t12.5 -15.5l5 -8q0 -28 -92.5 -135.5t-185.5 -210.5t-93 -119q0 -4 6 -4q19 0 150 83.5t217 153.5q78 63 152.5 132.5t103.5 101.5q51 47 86 47q43 -4 43 -12l-2 -4 q-89 -83 -262.5 -277.5t-173.5 -228.5q0 -8 8 -8q24 0 368 221l2 -25q-358 -233 -419 -233q-19 0 -19 18q0 22 50 119t73 123l-8 -3l-25 -16q-1 -1 -21 -15t-40.5 -28t-52 -35.5t-59.5 -40t-60.5 -38t-57.5 -33t-46.5 -22.5t-32.5 -9q-25 0 -25 25q0 31 22.5 75t42 70t59 73 t40.5 48l-160 -94z" />
<glyph unicode="v" horiz-adv-x="475" d="M-35 31q0 50 78.5 177t159.5 230t92 103q5 0 15.5 -0.5t17.5 -1t15.5 -2t12.5 -5t4 -8.5q0 -7 -16 -26q-2 -2 -33.5 -44l-63 -84t-74 -100.5t-74 -104.5t-54 -83.5t-22.5 -48.5q0 -2 4 -2q57 0 143.5 61t179.5 156q29 91 95.5 190t103.5 99q18 0 18 -19 q0 -32 -52.5 -106.5t-131.5 -157.5q-12 -35 -12 -57q0 -23 16 -23q57 0 166 72l10 -19q-49 -32 -74 -47t-58 -28t-60 -13q-33 0 -33 43q0 19 2 29q-95 -95 -187.5 -156t-156.5 -61q-31 0 -31 37zM403 303q59 65 97.5 118.5t38.5 70.5q0 6 -7 6q-18 0 -58 -62t-71 -133z" />
<glyph unicode="w" horiz-adv-x="825" d="M-51 43q0 38 58 126t129 171.5t132.5 148t69.5 64.5q5 0 15.5 -0.5t18 -1t15 -1.5t12 -4.5t4.5 -8.5q0 -8 -16 -27q-7 -10 -106 -119.5t-186 -213t-87 -124.5q0 -2 4 -2q32 0 175.5 100.5t215.5 163.5q21 18 51 47.5t51.5 52t52.5 55.5t38 40t17 19t15.5 17.5t18 11.5 t31.5 9q57 -5 57 -24q0 -12 -18 -33q-33 -33 -116 -121.5t-185.5 -210t-102.5 -149.5q0 -3 4 -6t7 -3q107 0 407 259q62 113 165 235.5t140 122.5q23 0 23 -19q0 -37 -83 -132t-206 -203q-43 -68 -43 -97q0 -18 21 -18q25 0 71 24t84 54l10 -19q-129 -96 -186 -96 q-35 0 -35 39q0 16 17 59q-126 -105 -239 -173.5t-173 -69.5q-41 0 -41 37q0 35 58.5 131t58.5 100t-2 4q-6 0 -21 -12q-51 -41 -177 -131t-165 -103q-18 -6 -28 -6q-31 0 -31 37zM813 352q92 86 152.5 154t60.5 86q0 6 -6 6q-17 0 -82 -78t-125 -168z" />
<glyph unicode="x" horiz-adv-x="636" d="M-78 -18q0 8 15.5 18t30.5 16l16 7q28 11 107.5 56t160.5 99l65 43q14 46 35 101.5t34 88t13 38.5q0 2 -4 2q-34 -33 -74 -66t-83 -62.5t-72 -49t-69 -44t-46 -28.5l-6 24q122 77 137 88q75 53 127 96.5t67 60.5l15 17q8 15 43 15q21 0 30 -9t9 -30q0 -34 -57 -172 q29 21 58.5 42.5t54 40.5t32.5 25q205 144 238 144q8 0 8 -11q0 -8 -17 -18.5t-83 -51t-146 -97.5l-162 -115q-54 -142 -67 -213q0 -8 8 -8q16 0 108 53.5t176 106.5l83 53l2 -25q-37 -25 -94 -61t-166.5 -97t-141.5 -61q-22 0 -22 59q0 50 20 125q-40 -28 -151.5 -97.5 t-137.5 -80.5q-59 -33 -79 -33q-9 0 -15 11z" />
<glyph unicode="y" horiz-adv-x="702" d="M-391 -723q0 42 20 90t49.5 91t78.5 95t91.5 91t104.5 89.5t102 81t99.5 75t81.5 61.5q19 23 272 321q2 6 -70 -45q-1 -1 -21 -15t-40.5 -28t-52 -35.5t-59.5 -40t-60.5 -38t-57.5 -33t-46.5 -22.5t-32.5 -9q-25 0 -25 25q0 31 24.5 77.5t47 76t64 78.5t42.5 50 l-174 -110l-6 22l78 54q147 100 189.5 137.5t84.5 97.5q15 21 33 21q7 0 15.5 -7.5t12.5 -15.5l5 -8q0 -28 -92.5 -135.5t-185.5 -210.5t-93 -119q0 -4 6 -4q19 0 150 83.5t217 153.5q53 43 100.5 92.5t84.5 95t38 46.5q51 47 86 47q43 -4 43 -12l-2 -4q-65 -74 -228 -273 t-186 -237q16 0 110 53.5t179 107.5l86 54l2 -25q-131 -90 -246 -151l-186 -97q-105 -141 -259 -313t-279 -290t-156 -118q-39 0 -39 29zM-338 -692q0 -13 6 -13q13 0 139 144t245 288l120 144q0 4 -4 4q-506 -369 -506 -567z" />
<glyph unicode="z" horiz-adv-x="677" d="M-489 -709q0 21 23 62t84 109t149 145t235 177t326 198q45 64 45 98q0 22 -27 22q-46 0 -128 -30t-124 -56q-24 -12 -37 -12q-10 0 -10 6q0 12 31 31q21 12 96 61t183 125.5t189 157.5t81 127q0 6 -9 6q-25 0 -73.5 -21t-114 -59t-122 -73t-129.5 -81.5t-105 -66.5 q-11 -6 -25 -16l-6 24q106 68 214 133.5t163 97.5l55 31q17 9 53.5 30.5t60 31.5t46.5 10q61 0 61 -59q0 -69 -60 -137.5t-131.5 -110.5t-131.5 -75.5t-60 -41.5t11 -8q21 0 35.5 -2t30.5 -9.5t24 -23.5t8 -41v-12q70 44 153 95t131 80l48 28l2 -23q-133 -85 -246 -153 q-27 -14 -94 -58q-25 -94 -146 -227t-264 -244t-278 -190.5t-191 -79.5q-26 0 -26 24zM-446 -688q0 -8 10 -8q42 0 138.5 67t205 164t216 208.5t173.5 197.5q-187 -104 -365.5 -243t-278 -244t-99.5 -142z" />
<glyph unicode="{" horiz-adv-x="694" d="M61 -127q0 51 52.5 143.5t115.5 178.5t115.5 179t52.5 146q0 84 -133 84q-20 0 -94 -8q-8 0 -8 8q0 13 15.5 30t31.5 17q104 9 185.5 44t135 85.5t97 113.5t79 130t72.5 133.5t85.5 126t110.5 105t155 72t212 26.5q19 0 19 -6q0 -4 -9 -11t-19 -12l-9 -4q-77 0 -143 -24 t-117 -66t-97 -96.5t-89 -117t-86.5 -126.5t-95.5 -126.5t-110 -114.5t-137 -93t-169 -61q147 0 147 -111q0 -58 -40.5 -151.5t-89.5 -175.5t-89.5 -166t-40.5 -125q0 -74 49 -74q42 0 109 37q12 6 16 6t4 -2q0 -9 -18 -21q-118 -63 -185 -63q-80 0 -80 90z" />
<glyph unicode="|" horiz-adv-x="561" d="M125 -219q95 230 229.5 664.5t207.5 697.5t110 407q12 51 28 56q14 0 25.5 -16t11.5 -27q0 -56 -211.5 -743t-347.5 -1039q-16 -33 -28 -33q-7 0 -13.5 8t-8.5 16z" />
<glyph unicode="}" horiz-adv-x="897" d="M-287 -256q0 4 9.5 11t18.5 11l9 5q97 0 178 39t140.5 103.5t114.5 143.5t114.5 163t125.5 158.5t162 133.5t210 84q-148 0 -148 111q0 58 40.5 151.5t89.5 175.5t89.5 166t40.5 125q0 74 -49 74q-41 0 -108 -37q-12 -6 -17 -6q-4 0 -4 2q0 7 19 20q119 64 184 64 q80 0 80 -90q0 -51 -52.5 -143.5t-115.5 -178.5t-115.5 -179t-52.5 -146q0 -84 133 -84q20 0 94 8q8 0 8 -8q0 -13 -15.5 -30.5t-31.5 -17.5q-104 -9 -185.5 -44t-135 -85.5t-97 -113t-79 -130t-72.5 -134t-85.5 -125.5t-110.5 -104.5t-155 -72t-212 -26.5q-19 0 -19 6z" />
<glyph unicode="~" horiz-adv-x="757" d="M166 252q0 6 8 14q47 47 127 47q37 0 127 -22.5t152 -22.5q92 0 122 35q2 4 9 4q10 0 10 -18q0 -4 -2 -6q-49 -60 -150 -60q-58 0 -145 26.5t-135 26.5q-66 0 -99 -30q-2 -2 -10 -2q-14 0 -14 8z" />
<glyph unicode="&#xa1;" horiz-adv-x="630" d="M-369 -604q0 50 249.5 364t559.5 668q23 23 35 23q17 0 17 -33v-8q-224 -278 -478 -606t-317 -418q-29 -41 -45 -41q-21 0 -21 51zM539 590q0 19 27.5 49.5t66.5 30.5q13 0 21 -10t8 -23q0 -27 -30.5 -55.5t-58.5 -28.5q-13 0 -23.5 12t-10.5 25z" />
<glyph unicode="&#xa2;" horiz-adv-x="475" d="M-88 -145q0 14 104 151q-16 18 -16 78q0 61 50 143t124 154t167.5 124t172.5 56q31 41 51.5 72t32.5 52t18 30q3 4 7 11t7 11t7 7.5t8 3.5q6 0 10 -12t4 -25q0 -17 -108 -154q16 -10 16 -27q0 -22 -21.5 -56t-50 -63.5t-59.5 -51t-49 -21.5q-22 0 -22 22q0 13 10 32.5 t20 19.5q4 0 9 -3.5t7 -7.5l3 -4q2 2 6.5 5.5t16 13.5t22.5 20t24 23.5t22.5 25.5t16 24t6.5 21q0 7 -10 7q-49 0 -130.5 -57t-156.5 -134.5t-130.5 -163.5t-55.5 -139q0 -18 18 -18q86 0 411 212l4.5 3t3.5 2t3 2l2 -27q-5 -3 -38.5 -24.5t-51.5 -33t-55.5 -34.5t-63 -37 t-61.5 -33t-62.5 -30t-54.5 -19.5t-49 -9.5q-37 -50 -64 -94.5t-32 -51.5q-3 -4 -7 -11t-7 -10.5t-7 -7t-8 -3.5q-6 0 -10 12t-4 25z" />
<glyph unicode="&#xa3;" horiz-adv-x="1277" d="M84 -199q0 81 21.5 168t52 154t63.5 121.5t57 84t31 29.5q6 0 6 -8l-2 -18q24 -120 123 -195l187 285h-172q-19 0 -19 12q0 17 14 26t29 9q108 0 176 -4l41 63h-186q-19 0 -19 15q0 16 14.5 25.5t28.5 9.5q20 0 86.5 -2.5t106.5 -2.5q78 116 140.5 205.5t134.5 183.5 t128 154.5t108.5 99.5t88.5 39q41 0 41 -67q0 -81 -51 -215.5t-124.5 -241t-127.5 -106.5q-35 0 -35 57q0 52 26 133.5t60 142t55 60.5q5 0 9 -5.5t4 -11.5q0 -4 -2 -8q-42 -53 -75.5 -144.5t-33.5 -146.5q0 -38 21 -38q37 0 95.5 103t102 229t43.5 190q0 41 -22 41 q-18 0 -63.5 -49t-125.5 -158t-143.5 -198.5t-177.5 -252.5l176 -6q41 0 41 -10q0 -8 -23 -17.5t-45 -9.5q-94 0 -178 2l-47 -65l203 -8q41 0 41 -11q0 -8 -24.5 -17t-49.5 -9q-7 0 -199 4l-221 -309q107 -64 229 -64q119 0 246 21.5t194 43.5l68 21h7q10 0 10 -8 q0 -10 -13 -14q-37 -12 -98 -29.5t-208 -46.5t-244 -29q-127 0 -228 55q-259 -344 -323 -344q-29 0 -29 82zM139 -176q0 -42 13 -45q24 0 84.5 77t164.5 230q-96 73 -131 186q-68 -96 -99.5 -219.5t-31.5 -228.5z" />
<glyph unicode="&#xa4;" horiz-adv-x="536" d="M145 223v6l76 86q-28 20 -28 64q0 67 57 127l-72 84v6q0 20 10 20q9 0 23 -14l61 -76q67 60 150 60q13 0 33 -4l71 86q14 14 23 14q10 0 10 -20v-7l-76 -86q33 -20 33 -63q0 -36 -22.5 -78t-59.5 -74l64 -71v-7q0 -20 -11 -20q-8 0 -22 14q-27 34 -55 66 q-56 -37 -123 -37q-27 0 -37 4l-72 -86q-14 -14 -22 -14q-11 0 -11 20zM246 377q0 -53 53 -53q54 0 105 65t51 121q0 53 -54 53t-104.5 -65t-50.5 -121z" />
<glyph unicode="&#xa5;" horiz-adv-x="833" d="M86 -63q111 129 238 309h-201q-19 0 -19 12q0 17 14 26t29 9q51 0 207 -4l29 41h-209q-18 0 -18 14q0 16 14.5 25.5t28.5 9.5q93 0 213 -6l49 78q3 5 120.5 176.5t198 316t97.5 238.5q-2 19 -14.5 32t-37.5 13q-84 0 -197.5 -84.5t-205.5 -195t-156.5 -218.5t-64.5 -156 q0 -28 22 -28q78 0 178.5 73.5t194.5 182.5q8 8 12 8q6 0 6 -6q0 -10 -8 -21q-55 -80 -184.5 -170t-212.5 -90q-33 0 -33 49q0 50 31.5 131t92.5 173.5t138.5 173.5t181 134.5t207.5 53.5q39 0 59.5 -26t20.5 -72q0 -62 -64.5 -186.5t-140 -235t-154 -221t-87.5 -125.5h4 q26 28 68 71t136 135t187.5 178t213 184t223 169.5t206.5 119.5t174 48q25 0 25 -8q0 -9 -38 -35.5t-75 -49t-39 -22.5q-4 0 -4 4q0 3 10.5 13t10.5 14q0 2 -7 2q-70 0 -251.5 -122t-402 -313.5t-404.5 -387.5l145 -6q41 0 41 -11q0 -8 -23 -17t-45 -9q-83 0 -157 2l-39 -45 l178 -6q41 0 41 -11q0 -8 -24.5 -17t-49.5 -9q-8 0 -180 4q-40 -53 -111.5 -154t-89.5 -125q-28 -33 -88 -33q-10 0 -10 3z" />
<glyph unicode="&#xa6;" horiz-adv-x="561" d="M125 -219l262 807q12 49 29 55q14 0 25.5 -16t11.5 -27l-275 -819q-16 -33 -28 -33q-7 0 -13.5 8t-8.5 16zM459 809l243 747q12 50 29 56q14 0 25.5 -16t11.5 -27l-256 -760q-16 -33 -29 -33q-7 0 -13 8t-8 16z" />
<glyph unicode="&#xa7;" horiz-adv-x="733" d="M-2 8q0 52 41 115.5t104.5 108t120.5 44.5q25 0 25 -20q0 -22 -25 -47t-53 -25q-8 0 -8 9q0 1 19.5 12t19.5 16q0 4 -17 4q-57 0 -118.5 -75.5t-61.5 -139.5q0 -71 88 -71q130 0 224 85.5t94 204.5q0 87 -22.5 164.5t-44.5 131t-22 83.5q0 65 45.5 106t141.5 83 q-27 69 -27 116q0 55 56.5 100t134.5 67t153 22q66 0 107 -19t41 -57q0 -41 -48.5 -104t-122.5 -114.5t-136 -57.5q-29 0 -29 26q0 17 14 37t27 21q7 0 9.5 -2.5t2.5 -12.5q0 -2 -4 -6.5t-4 -5.5q46 6 111 47t112 90t47 76q0 53 -108 53q-63 0 -131 -19t-118 -55.5 t-50 -78.5q0 -41 25.5 -100t56.5 -109t56.5 -107.5t25.5 -95.5q0 -125 -60 -201.5t-162 -111.5q-12 -59 -47.5 -108t-80.5 -79.5t-97.5 -51.5t-97 -29.5t-80.5 -8.5q-66 0 -96.5 24.5t-30.5 65.5zM430 623q0 -26 26 -76t52.5 -126t26.5 -163v-31q131 70 131 252 q0 39 -15.5 84.5t-48.5 114.5t-43 94q-74 -34 -101.5 -62t-27.5 -87z" />
<glyph unicode="&#xa8;" horiz-adv-x="747" d="M248 717q0 29 31 57.5t59 28.5q14 0 25.5 -12t11.5 -25q0 -20 -29.5 -52t-69.5 -32q-13 0 -20.5 10.5t-7.5 24.5zM412 717q0 29 31 57.5t59 28.5q14 0 25.5 -12t11.5 -25q0 -20 -29.5 -52t-69.5 -32q-13 0 -20.5 10.5t-7.5 24.5z" />
<glyph unicode="&#xa9;" horiz-adv-x="1024" d="M115 104q0 65 25.5 138.5t79 148t126.5 134t178 97t224 37.5q70 0 105.5 -41.5t35.5 -111.5q0 -64 -28 -139.5t-84.5 -150t-132 -136t-180 -99.5t-218.5 -38q-64 0 -97.5 44t-33.5 117zM188 86q0 -52 20.5 -82.5t59.5 -30.5q97 0 186 38.5t152 99.5t110 134t70 144 t23 129q0 52 -20.5 82.5t-59.5 30.5q-97 0 -186 -38.5t-152 -99.5t-110 -134t-70 -144t-23 -129zM254 127q0 44 40 112.5t100 133t142 111t156 46.5q33 0 33 -24q0 -37 -56.5 -96.5t-86.5 -59.5q-19 0 -19 19q0 11 9 26t16 15q4 0 7.5 -3t4.5 -5l2 -3q10 8 25.5 21t41 41.5 t25.5 44.5q0 4 -8 4q-53 0 -141.5 -69t-157 -160t-68.5 -148q0 -14 17 -14q37 0 100 26.5t125 65.5l98 65l3 -22q-259 -176 -357 -176q-51 0 -51 49z" />
<glyph unicode="&#xaa;" horiz-adv-x="616" d="M193 627q0 56 34.5 116.5t93.5 111.5t147.5 84.5t186.5 33.5q6 0 11.5 -5.5t5.5 -11.5q0 -12 -68 -88t-135.5 -157t-67.5 -105q0 -4 7 -4q12 0 76 37.5t122 74.5l58 38l2 -19q-232 -153 -281 -153q-8 0 -8 8q0 14 7.5 41t14.5 47l7 20q-1 2 -3 2q-6 0 -85 -57t-101 -57 q-24 3 -24 43zM227 625q0 -9 9 -9q20 0 86 47.5t114 86.5q25 20 95.5 100.5t70.5 91.5q0 6 -12 6q-66 0 -153.5 -61t-148.5 -138t-61 -124z" />
<glyph unicode="&#xab;" horiz-adv-x="962" d="M203 272q0 7 3.5 13.5t17.5 15t36 12.5l361 54q12 0 12 -9q0 -7 -10 -10l-344 -51q-29 -6 -29 -18q0 -7 12 -13l307 -147q11 -7 11 -15q0 -7 -8 -12.5t-21 -5.5l-272 131q-8 4 -19 9t-17 8t-13.5 7t-11.5 7t-8 7t-5.5 8t-1.5 9zM438 246q0 28 49 35l306 45q8 0 8 -4 l-6 -13l-293 -43q-23 -5 -23 -12q0 -4 8 -12l263 -127q2 -7 2 -13q0 -16 -17 -16q-259 125 -279 138q-18 12 -18 22z" />
<glyph unicode="&#xac;" horiz-adv-x="819" d="M221 492q0 16 27 20q1 0 10.5 0.5t26 1t32.5 0.5q165 7 254 12l191 13q17 0 20 -13l-120 -207q-1 -6 -9 -11t-14 -5q-8 0 -8 12q0 7 4 19q22 44 33 61l47 88q-63 -4 -246 -4l-221 2q-25 0 -27 11z" />
<glyph unicode="&#xad;" horiz-adv-x="1024" d="M186 240q0 16 33 20q1 0 13.5 0.5t33 1t41.5 0.5q223 8 316 12l239 13q22 0 25 -13q0 -19 -17.5 -30t-38.5 -11q-120 -6 -335 -6l-277 2q-31 0 -33 11z" />
<glyph unicode="&#xae;" horiz-adv-x="1024" d="M115 104q0 65 25.5 138.5t79 148t126.5 134t178 97t224 37.5q70 0 105.5 -41.5t35.5 -111.5q0 -64 -28 -139.5t-84.5 -150t-132 -136t-180 -99.5t-218.5 -38q-64 0 -97.5 44t-33.5 117zM188 86q0 -52 20.5 -82.5t59.5 -30.5q202 0 357 158q-55 -31 -93 -31q-69 0 -69 119 q0 61 12 115q0 12 2 20q-41 -76 -125.5 -163t-107.5 -87q-31 0 -31 31q0 39 48.5 110.5t119.5 142.5t165.5 124t174.5 53q70 0 70 -43q0 -39 -52.5 -96t-125.5 -100t-126 -43h-4q7 -168 58 -168q35 0 110 45q74 85 116 184t42 176q0 51 -20.5 81t-59.5 30q-97 0 -186 -38.5 t-152 -99.5t-110 -134t-70 -144t-23 -129zM248 119q0 -2 2 -2q25 0 124.5 131t112.5 172q0 4 5 4q6 0 6 -14q0 -19 -2 -23l-15 -29q4 4 6 4v-2l-2 -25q-2 -25 -2 -36h2q38 0 101 43.5t111 97.5t48 84q0 23 -32 23q-55 0 -137 -50t-153.5 -118.5t-123 -142t-51.5 -117.5z" />
<glyph unicode="&#xaf;" horiz-adv-x="604" d="M336 668q0 17 24 20q1 0 10.5 0.5t25 1t30.5 0.5q165 8 238 12l178 13q18 0 18 -13q0 -19 -13 -29.5t-28 -10.5q-103 -7 -252 -7l-207 2q-24 0 -24 11z" />
<glyph unicode="&#xb0;" horiz-adv-x="303" d="M225 750q0 59 64.5 118.5t124.5 59.5q31 0 52 -23.5t21 -52.5q0 -17 -14 -45t-38 -57.5t-64.5 -50.5t-85.5 -21q-26 0 -43 22t-17 50zM276 735q0 -30 23 -30q52 0 93.5 53t41.5 102q0 43 -39 43t-79 -61.5t-40 -106.5z" />
<glyph unicode="&#xb1;" horiz-adv-x="819" d="M150 229q0 17 26 21q1 0 11 0.5t26.5 1t32.5 0.5q165 7 254 12l190 12q18 0 21 -12q0 -19 -14 -30t-31 -11q-95 -6 -269 -6l-221 2q-24 0 -26 10zM248 543q0 16 26 20q1 0 11 0.5t26.5 1t32.5 0.5q5 0 64 2t114 6q73 147 111 224q7 12 16 12q25 -10 25 -35q0 -15 -6 -24 q-65 -121 -95 -175q2 0 6 0.5t16.5 1.5t32.5 2.5t62.5 4.5t97.5 6q18 0 21 -12q0 -19 -14 -30t-31 -11q-93 -7 -217 -7l-121 -206q-1 -6 -9 -11.5t-14 -5.5q-8 0 -8 12q0 7 4 19q22 44 33 61q4 7 27.5 49.5t42.5 81.5h-6l-222 2q-24 0 -26 11z" />
<glyph unicode="&#xb2;" horiz-adv-x="612" d="M29 324q0 26 52.5 70.5t134 81t149.5 36.5h4q159 126 266.5 262.5t107.5 233.5q0 20 -7 27t-27 7q-46 0 -108 -42.5t-111.5 -97.5t-84 -106t-34.5 -69q0 -8 6 -8q27 0 62.5 16.5t66.5 40.5t59 48t44 40l16 17q6 4 12 4q8 0 8 -6q0 -1 -1 -4.5t-1 -4.5q-9 -11 -32 -33 t-63 -55.5t-89 -57.5t-90 -24t-41 41q0 36 32 89.5t82.5 104.5t123 87.5t143.5 36.5q32 0 55.5 -23t23.5 -71q0 -82 -104.5 -218.5t-257.5 -246.5l-16 -13q24 -11 57 -36.5t62 -41.5t61 -16q39 0 82 14t66 28l24 14q1 0 4 1t4 1q8 0 8 -7q-3 -6 -29.5 -24.5t-82.5 -39 t-113 -20.5q-43 0 -79 17t-68.5 42t-49.5 32q-89 -58 -179 -102t-116 -44q-32 0 -32 19zM66 330q0 -4 6 -4q108 43 243 145q-48 0 -109 -30t-100.5 -63.5t-39.5 -47.5z" />
<glyph unicode="&#xb3;" horiz-adv-x="485" d="M33 344q0 41 93 111.5t146 70.5q17 0 17 -14q0 -15 -15.5 -30t-35.5 -15q-7 0 -7 4t12.5 9t12.5 9q0 5 -10 5q-20 0 -102.5 -66.5t-82.5 -89.5q0 -8 11 -8q67 0 154 52.5t156.5 121.5t118 137t48.5 100q0 19 -19 19q-25 0 -49.5 -4.5t-45 -13t-33.5 -15t-27 -16t-15 -9.5 q-2 -2 -6 -2q-8 0 -8 11q0 4 13 13.5t27 17.5l13 8q84 51 169 141t85 133q0 12 -7 17.5t-25 5.5q-67 0 -152 -56.5t-143 -116.5q-4 -4 -17 -4q-12 0 -12 9q188 188 334 188q67 0 67 -51q0 -49 -62 -120.5t-167 -131.5q31 10 59 10q33 0 49.5 -14.5t16.5 -38.5 q0 -45 -46.5 -113.5t-118 -132.5t-168 -110t-185.5 -46q-43 0 -43 25z" />
<glyph unicode="&#xb4;" horiz-adv-x="727" d="M233 623q0 7 15 12t46 23t82.5 47.5t100.5 54.5q27 10 43 10q25 0 25 -29q0 -28 -141 -75.5t-162 -47.5q-9 0 -9 5z" />
<glyph unicode="&#xb5;" horiz-adv-x="712" d="M-385 -399q0 10 23 39q189 221 335.5 389t206 234t112 127t101.5 124q18 21 45 21q16 0 43 -9q-69 -96 -171 -213.5t-162 -187t-60 -86.5q0 -4 6 -4q19 0 150 83.5t217 153.5q78 63 152.5 132.5t103.5 101.5q51 47 86 47q43 -4 43 -12l-2 -4q-89 -83 -262.5 -277.5 t-173.5 -228.5q0 -8 8 -8q24 0 368 221l2 -25q-358 -233 -419 -233q-19 0 -19 18q0 22 50 119t73 123l-8 -3l-25 -16q-1 -1 -21 -15t-40.5 -28t-52 -35.5t-59.5 -40t-60.5 -38t-57.5 -33t-46.5 -22.5t-32.5 -9q-16 0 -21 8q-292 -339 -330 -389q-30 -41 -65 -41 q-37 2 -37 17z" />
<glyph unicode="&#xb6;" horiz-adv-x="778" d="M-160 -295q0 48 166.5 263.5t333 416.5t166.5 213q0 2 -4 2q-7 0 -41.5 -31t-76.5 -67.5t-102 -67.5t-112 -31q-32 0 -39 46q7 85 46 159t97 126t126 93t138.5 65t130.5 36t105 12q27 0 52.5 -3t52.5 -9.5t43 -20.5t16 -33q0 -22 -27 -57q-26 -28 -71 -77t-170 -188 t-234 -264t-231 -273t-193 -248q67 18 76 18q10 0 10 -8q0 -5 -10 -13q-213 -77 -223 -77q-25 0 -25 18zM-119 -272q41 10 86 24q118 166 277.5 362t279 331t234.5 262.5t131 146.5q8 12 8 16q0 11 -12 11q-20 0 -49 -29q-529 -529 -947 -1104q-8 -11 -8 -20z" />
<glyph unicode="&#xb7;" horiz-adv-x="604" d="M569 678q0 29 30 56.5t58 27.5q13 0 24 -12t11 -25q0 -18 -27.5 -49t-66.5 -31q-13 0 -21 10t-8 23z" />
<glyph unicode="&#xb8;" horiz-adv-x="466" d="M102 -199q0 9 9 9q7 0 12 -5q25 -22 63 -22q46 0 87.5 30.5t41.5 65.5q0 23 -22.5 38.5t-67.5 16.5l43 74l23 -8l-31 -49q105 -3 105 -53q0 -43 -63 -86t-126 -43q-43 0 -70 24q-4 4 -4 8z" />
<glyph unicode="&#xb9;" horiz-adv-x="440" d="M162 293q0 3 8 16t10 15q15 19 96 160t170.5 299t114.5 198q-71 -63 -169.5 -129t-160.5 -66q-12 0 -12 15q0 4 2 4q50 0 136.5 54.5t149 109.5t71.5 71q10 10 26 15q49 0 49 -13q0 -6 -8 -22q-32 -53 -126 -214.5t-172.5 -290t-137.5 -210.5q-17 -17 -23 -18 q-24 2 -24 6z" />
<glyph unicode="&#xba;" horiz-adv-x="378" d="M174 651q0 55 38 115t91 104t109 72.5t92 28.5q39 0 39 -35q0 -64 -44 -128t-103 -106t-113.5 -68t-81.5 -26t-27 43zM207 639q0 -8 10 -8q36 0 110.5 57t135.5 130t61 114q0 18 -16 18q-33 0 -105.5 -57.5t-134 -133.5t-61.5 -120z" />
<glyph unicode="&#xbb;" horiz-adv-x="962" d="M186 162l7 12l292 43q23 5 23 12q0 5 -8 13l-262 127q-2 6 -2 12q0 16 16 16q260 -125 277 -136q20 -13 20 -23q0 -28 -49 -35l-305 -45q-9 0 -9 4zM354 125q0 6 11 10l344 51q28 6 28 19q0 6 -12 12l-307 148q-10 7 -10 14t7.5 12.5t20.5 5.5l273 -131q7 -4 18.5 -9 t17 -8t13.5 -7t11.5 -7t7.5 -7t5.5 -8t1.5 -9q0 -7 -3.5 -13.5t-17.5 -15t-36 -12.5l-360 -53q-13 0 -13 8z" />
<glyph unicode="&#xbc;" horiz-adv-x="1116" d="M63 -61q129 142 273 341.5t240.5 354.5t185 301t104.5 170q29 41 45 41q21 0 21 -51q0 -19 -123.5 -217.5t-325 -483t-368.5 -475.5q-22 -22 -35 -22q-17 0 -17 32v9zM162 293q0 3 8 16t10 15q15 19 96 160t170.5 299t114.5 198q-71 -63 -169.5 -129t-160.5 -66 q-12 0 -12 15q0 4 2 4q50 0 136.5 54.5t149 109.5t71.5 71q10 10 26 15q49 0 49 -13q0 -6 -8 -22q-32 -53 -126 -214.5t-172.5 -290t-137.5 -210.5q-17 -17 -23 -18q-24 2 -24 6zM485 197q0 -4 7 -4q24 0 102 81q-38 -10 -73.5 -37t-35.5 -40zM492 176q-24 0 -23 22 q1 33 51 64q39 25 98 37q89 94 187 220.5t113 164.5q-2 -2 -9 -2h-6q0 9 23 27t32 18q29 0 29 -14q0 -30 -106 -167.5t-213 -244.5q81 -2 168 -45l4 -2q39 67 93 164.5t92.5 166.5t55.5 95q11 14 27 14q8 0 18.5 -5t10.5 -13q0 -5 -3 -13t-4 -10q-42 -66 -125.5 -212.5 t-121.5 -209.5q59 -34 80 -34q43 0 74.5 28.5t31.5 50.5q0 7 -6 7q-15 0 -32.5 -16t-30 -32t-13.5 -16q-8 0 -8 6q0 20 32 48t58 28q23 0 23 -20q0 -32 -44.5 -72.5t-99.5 -40.5q-36 0 -92 29q-20 -34 -44 -69t-54 -76.5t-41 -57.5q-14 -19 -23 -19q-14 5 -14 9t7.5 15.5 t10.5 14.5q34 52 119 203q-89 46 -128 54q-23 5 -44 5q-40 -50 -83 -75t-70 -25z" />
<glyph unicode="&#xbd;" horiz-adv-x="1140" d="M63 -61q129 142 273 341.5t240.5 354.5t185 301t104.5 170q29 41 45 41q21 0 21 -51q0 -19 -123.5 -217.5t-325 -483t-368.5 -475.5q-22 -22 -35 -22q-17 0 -17 32v9zM162 293q0 3 8 16t10 15q15 19 96 160t170.5 299t114.5 198q-71 -63 -169.5 -129t-160.5 -66 q-12 0 -12 15q0 4 2 4q50 0 136.5 54.5t149 109.5t71.5 71q10 10 26 15q49 0 49 -13q0 -6 -8 -22q-32 -53 -126 -214.5t-172.5 -290t-137.5 -210.5q-17 -17 -23 -18q-24 2 -24 6zM342 -10q0 26 52.5 70.5t134 81t149.5 36.5h4q159 126 267 262.5t108 233.5q0 20 -7.5 27.5 t-27.5 7.5q-61 0 -144 -70t-138.5 -145t-55.5 -101q0 -8 6 -8q27 0 62.5 16.5t66.5 40.5t59 48t44 40l16 17q6 4 12 4q8 0 8 -6q0 -1 -1 -4t-1 -4q-9 -11 -32 -33t-63 -55.5t-89 -57.5t-90 -24t-41 41q0 36 32 89.5t82.5 104.5t123 87t143.5 36q32 0 56 -23t24 -71 q0 -82 -105 -218.5t-258 -246.5l-16 -12q24 -11 57 -37t62 -42t61 -16q39 0 82 14t67 28l23 14q1 0 4 1t4 1q9 0 9 -6q-4 -7 -30 -25t-82 -38.5t-114 -20.5q-43 0 -79 16.5t-68 41.5t-49 32q-89 -58 -179 -102t-116 -44q-33 0 -33 19zM379 -4q0 -4 6 -4q110 44 244 145 q-48 0 -109 -30t-101 -63.5t-40 -47.5z" />
<glyph unicode="&#xbe;" horiz-adv-x="1234" d="M33 344q0 41 93 111.5t146 70.5q17 0 17 -14q0 -15 -15.5 -30t-35.5 -15q-7 0 -7 4t12.5 9t12.5 9q0 5 -10 5q-20 0 -102.5 -66.5t-82.5 -89.5q0 -8 11 -8q67 0 154 52.5t156.5 121.5t118 137t48.5 100q0 19 -19 19q-25 0 -49.5 -4.5t-45 -13t-33.5 -15t-27 -16t-15 -9.5 q-2 -2 -6 -2q-8 0 -8 11q0 4 13 13.5t27 17.5l13 8q84 51 169 141t85 133q0 12 -7 17.5t-25 5.5q-67 0 -152 -56.5t-143 -116.5q-4 -4 -17 -4q-12 0 -12 9q188 188 334 188q67 0 67 -51q0 -49 -62 -120.5t-167 -131.5q31 10 59 10q33 0 49.5 -14.5t16.5 -38.5 q0 -45 -46.5 -113.5t-118 -132.5t-168 -110t-185.5 -46q-43 0 -43 25zM158 -61q129 142 273 341.5t240.5 354.5t185 301t104.5 170q29 41 45 41q20 0 20 -51q0 -19 -123.5 -217.5t-325 -483t-368.5 -475.5q-22 -22 -35 -22q-16 0 -16 32v9zM563 197q0 26 39 57t111 45 q88 94 185.5 220.5t113.5 164.5q-2 -2 -8 -2h-7q0 9 23.5 27t32.5 18q28 0 28 -14q0 -30 -106 -167.5t-213 -244.5q81 -2 168 -45l4 -2q39 67 93.5 165t93 166.5t55.5 94.5q11 14 26 14q8 0 18.5 -5t10.5 -13q0 -4 -1 -7.5t-2.5 -8l-2.5 -7.5q-42 -67 -126.5 -214 t-121.5 -208q59 -34 80 -34q43 0 74.5 28.5t31.5 50.5q0 7 -6 7q-15 0 -32.5 -16t-30 -32t-13.5 -16q-8 0 -8 6q0 20 32 48t58 28q23 0 23 -20q0 -32 -44.5 -72.5t-99.5 -40.5q-36 0 -92 29q-20 -34 -44 -69t-54 -76.5t-41 -57.5q-14 -19 -23 -19q-14 5 -14 9t8 15.5 t11 14.5q28 42 118 203q-89 46 -128 54q-23 5 -44 5q-40 -50 -83 -75t-70 -25q-23 0 -23 21zM580 197q0 -4 6 -4q24 0 102 81q-38 -10 -73 -36.5t-35 -40.5z" />
<glyph unicode="&#xbf;" horiz-adv-x="770" d="M-240 -461q0 80 44 147t115 115t156.5 92t172.5 87.5t160 91t121 112.5t53 142q0 81 -29 94q-10 7 -10 8q0 8 26 8q21 0 46.5 -31.5t25.5 -85.5q-7 -74 -54 -136.5t-115 -108.5t-149 -90t-160.5 -90t-145 -98t-106 -125t-40.5 -160q0 -90 42.5 -133.5t115.5 -43.5 q98 0 216 66t202.5 173t84.5 210q0 80 -53 80q-47 0 -126 -58.5t-140 -125t-76 -99.5q-6 -14 -16 -14q-15 0 -15 14q0 2 1 4t2 5t2 5q44 78 170 185.5t204 107.5q76 0 76 -116q0 -100 -52 -190t-132.5 -149.5t-175.5 -94.5t-183 -35q-115 0 -186.5 59t-71.5 178zM643 586 q0 19 27.5 49.5t66.5 30.5q13 0 21 -10t8 -23q0 -27 -30 -55.5t-58 -28.5q-13 0 -24 12t-11 25z" />
<glyph unicode="&#xc0;" horiz-adv-x="1015" d="M-35 72q0 72 29 171.5t81 213.5t129 235.5t168.5 237.5t204.5 220t232.5 182t257 123.5t272.5 45.5q82 0 82 -61q0 -60 -76.5 -167t-178 -206t-205.5 -172.5t-154 -73.5q-27 0 -27 27q0 28 46.5 83.5t62.5 55.5q8 0 8 -12q0 -5 -25.5 -33t-25.5 -37q0 -8 12 -8 q42 0 168.5 108.5t238 243t111.5 195.5q0 39 -51 39q-102 0 -217 -49t-223.5 -131.5t-218 -191.5t-203.5 -229t-176 -244t-140 -235.5t-91 -205.5t-33 -152q0 -82 63 -82q57 0 185.5 86.5t273 213t284.5 264t234 245.5q106 120 188 225q52 64 82 64q9 0 18 -7t9 -16 q0 -17 -124 -175t-272.5 -341t-272.5 -357t-124 -220q0 -17 17 -17q15 0 43.5 13.5t80.5 46.5t92 60.5t124.5 85.5t132.5 91l137 86q13 8 31 8q16 0 16 -6q0 -3 -6 -6l-148 -90q-24 -17 -80 -55.5l-88 -60.5t-83 -56t-85 -54t-72 -41t-65.5 -30.5t-46.5 -9.5q-35 0 -35 37 q0 47 50.5 140.5t111.5 179.5t111.5 157.5t50.5 79.5q0 4 -4 4q-24 -23 -64.5 -62t-152.5 -138.5t-207.5 -175t-200.5 -138t-161 -62.5q-101 0 -101 140zM1202 1704q0 22 25 22t35 -10q180 -143 192 -149q14 -8 14 -13q0 -4 -10 -4q-8 0 -70 27t-124 65.5t-62 61.5z" />
<glyph unicode="&#xc1;" horiz-adv-x="1015" d="M-35 72q0 72 29 171.5t81 213.5t129 235.5t168.5 237.5t204.5 220t232.5 182t257 123.5t272.5 45.5q82 0 82 -61q0 -60 -76.5 -167t-178 -206t-205.5 -172.5t-154 -73.5q-27 0 -27 27q0 28 46.5 83.5t62.5 55.5q8 0 8 -12q0 -5 -25.5 -33t-25.5 -37q0 -8 12 -8 q42 0 168.5 108.5t238 243t111.5 195.5q0 39 -51 39q-102 0 -217 -49t-223.5 -131.5t-218 -191.5t-203.5 -229t-176 -244t-140 -235.5t-91 -205.5t-33 -152q0 -82 63 -82q57 0 185.5 86.5t273 213t284.5 264t234 245.5q106 120 188 225q52 64 82 64q9 0 18 -7t9 -16 q0 -17 -124 -175t-272.5 -341t-272.5 -357t-124 -220q0 -17 17 -17q15 0 43.5 13.5t80.5 46.5t92 60.5t124.5 85.5t132.5 91l137 86q13 8 31 8q16 0 16 -6q0 -3 -6 -6l-148 -90q-24 -17 -80 -55.5l-88 -60.5t-83 -56t-85 -54t-72 -41t-65.5 -30.5t-46.5 -9.5q-35 0 -35 37 q0 47 50.5 140.5t111.5 179.5t111.5 157.5t50.5 79.5q0 4 -4 4q-24 -23 -64.5 -62t-152.5 -138.5t-207.5 -175t-200.5 -138t-161 -62.5q-101 0 -101 140zM1221 1559q0 7 14 12q15 5 46 23t82.5 47.5t100.5 54.5q27 10 43 10q25 0 25 -29q0 -28 -141 -75.5t-162 -47.5 q-8 0 -8 5z" />
<glyph unicode="&#xc2;" horiz-adv-x="1015" d="M-35 72q0 72 29 171.5t81 213.5t129 235.5t168.5 237.5t204.5 220t232.5 182t257 123.5t272.5 45.5q82 0 82 -61q0 -60 -76.5 -167t-178 -206t-205.5 -172.5t-154 -73.5q-27 0 -27 27q0 28 46.5 83.5t62.5 55.5q8 0 8 -12q0 -5 -25.5 -33t-25.5 -37q0 -8 12 -8 q42 0 168.5 108.5t238 243t111.5 195.5q0 39 -51 39q-102 0 -217 -49t-223.5 -131.5t-218 -191.5t-203.5 -229t-176 -244t-140 -235.5t-91 -205.5t-33 -152q0 -82 63 -82q57 0 185.5 86.5t273 213t284.5 264t234 245.5q106 120 188 225q52 64 82 64q9 0 18 -7t9 -16 q0 -17 -124 -175t-272.5 -341t-272.5 -357t-124 -220q0 -17 17 -17q15 0 43.5 13.5t80.5 46.5t92 60.5t124.5 85.5t132.5 91l137 86q13 8 31 8q16 0 16 -6q0 -3 -6 -6l-148 -90q-24 -17 -80 -55.5l-88 -60.5t-83 -56t-85 -54t-72 -41t-65.5 -30.5t-46.5 -9.5q-35 0 -35 37 q0 47 50.5 140.5t111.5 179.5t111.5 157.5t50.5 79.5q0 4 -4 4q-24 -23 -64.5 -62t-152.5 -138.5t-207.5 -175t-200.5 -138t-161 -62.5q-101 0 -101 140zM1100 1561q0 5 7.5 10.5t23.5 12t18 7.5q18 9 82.5 47t119.5 68.5t68 30.5q17 0 21 -19q4 -20 8.5 -51t7.5 -42.5 t11 -30t22 -38.5l2 -4q0 -6 -12 -6q-20 0 -43 37t-35 78l-65 -29q-65 -28 -135.5 -56t-84.5 -28q-7 0 -11 3t-5 7v3z" />
<glyph unicode="&#xc3;" horiz-adv-x="1015" d="M-35 72q0 72 29 171.5t81 213.5t129 235.5t168.5 237.5t204.5 220t232.5 182t257 123.5t272.5 45.5q82 0 82 -61q0 -60 -76.5 -167t-178 -206t-205.5 -172.5t-154 -73.5q-27 0 -27 27q0 28 46.5 83.5t62.5 55.5q8 0 8 -12q0 -5 -25.5 -33t-25.5 -37q0 -8 12 -8 q42 0 168.5 108.5t238 243t111.5 195.5q0 39 -51 39q-102 0 -217 -49t-223.5 -131.5t-218 -191.5t-203.5 -229t-176 -244t-140 -235.5t-91 -205.5t-33 -152q0 -82 63 -82q57 0 185.5 86.5t273 213t284.5 264t234 245.5q106 120 188 225q52 64 82 64q9 0 18 -7t9 -16 q0 -17 -124 -175t-272.5 -341t-272.5 -357t-124 -220q0 -17 17 -17q15 0 43.5 13.5t80.5 46.5t92 60.5t124.5 85.5t132.5 91l137 86q13 8 31 8q16 0 16 -6q0 -3 -6 -6l-148 -90q-24 -17 -80 -55.5l-88 -60.5t-83 -56t-85 -54t-72 -41t-65.5 -30.5t-46.5 -9.5q-35 0 -35 37 q0 47 50.5 140.5t111.5 179.5t111.5 157.5t50.5 79.5q0 4 -4 4q-24 -23 -64.5 -62t-152.5 -138.5t-207.5 -175t-200.5 -138t-161 -62.5q-101 0 -101 140zM1161 1585q0 6 8 14q46 46 93 46q30 0 78 -26t71 -26q35 0 72 43q2 4 8 4q10 0 10 -18q0 -4 -2 -6q-54 -64 -119 -64 q-33 0 -83.5 22.5t-69.5 22.5q-23 0 -41 -18q-2 -2 -10 -2q-15 0 -15 8z" />
<glyph unicode="&#xc4;" horiz-adv-x="1015" d="M-35 72q0 72 29 171.5t81 213.5t129 235.5t168.5 237.5t204.5 220t232.5 182t257 123.5t272.5 45.5q82 0 82 -61q0 -60 -76.5 -167t-178 -206t-205.5 -172.5t-154 -73.5q-27 0 -27 27q0 28 46.5 83.5t62.5 55.5q8 0 8 -12q0 -5 -25.5 -33t-25.5 -37q0 -8 12 -8 q42 0 168.5 108.5t238 243t111.5 195.5q0 39 -51 39q-102 0 -217 -49t-223.5 -131.5t-218 -191.5t-203.5 -229t-176 -244t-140 -235.5t-91 -205.5t-33 -152q0 -82 63 -82q57 0 185.5 86.5t273 213t284.5 264t234 245.5q106 120 188 225q52 64 82 64q9 0 18 -7t9 -16 q0 -17 -124 -175t-272.5 -341t-272.5 -357t-124 -220q0 -17 17 -17q15 0 43.5 13.5t80.5 46.5t92 60.5t124.5 85.5t132.5 91l137 86q13 8 31 8q16 0 16 -6q0 -3 -6 -6l-148 -90q-24 -17 -80 -55.5l-88 -60.5t-83 -56t-85 -54t-72 -41t-65.5 -30.5t-46.5 -9.5q-35 0 -35 37 q0 47 50.5 140.5t111.5 179.5t111.5 157.5t50.5 79.5q0 4 -4 4q-24 -23 -64.5 -62t-152.5 -138.5t-207.5 -175t-200.5 -138t-161 -62.5q-101 0 -101 140zM1163 1606q0 29 31 57.5t59 28.5q14 0 25.5 -12t11.5 -25q0 -20 -29 -52t-69 -32q-13 0 -21 10.5t-8 24.5zM1327 1606 q0 29 31 57.5t59 28.5q14 0 25.5 -12t11.5 -25q0 -20 -29 -52t-69 -32q-13 0 -21 10.5t-8 24.5z" />
<glyph unicode="&#xc5;" horiz-adv-x="1015" d="M-35 72q0 72 29 171.5t81 213.5t129 235.5t168.5 237.5t204.5 220t232.5 182t257 123.5t272.5 45.5q82 0 82 -61q0 -60 -76.5 -167t-178 -206t-205.5 -172.5t-154 -73.5q-27 0 -27 27q0 28 46.5 83.5t62.5 55.5q8 0 8 -12q0 -5 -25.5 -33t-25.5 -37q0 -8 12 -8 q42 0 168.5 108.5t238 243t111.5 195.5q0 39 -51 39q-102 0 -217 -49t-223.5 -131.5t-218 -191.5t-203.5 -229t-176 -244t-140 -235.5t-91 -205.5t-33 -152q0 -82 63 -82q57 0 185.5 86.5t273 213t284.5 264t234 245.5q106 120 188 225q52 64 82 64q9 0 18 -7t9 -16 q0 -17 -124 -175t-272.5 -341t-272.5 -357t-124 -220q0 -17 17 -17q15 0 43.5 13.5t80.5 46.5t92 60.5t124.5 85.5t132.5 91l137 86q13 8 31 8q16 0 16 -6q0 -3 -6 -6l-148 -90q-24 -17 -80 -55.5l-88 -60.5t-83 -56t-85 -54t-72 -41t-65.5 -30.5t-46.5 -9.5q-35 0 -35 37 q0 47 50.5 140.5t111.5 179.5t111.5 157.5t50.5 79.5q0 4 -4 4q-24 -23 -64.5 -62t-152.5 -138.5t-207.5 -175t-200.5 -138t-161 -62.5q-101 0 -101 140zM1264 1593q0 50 53.5 100t101.5 50q27 0 44.5 -19.5t17.5 -44.5q0 -37 -49 -91t-119 -54q-22 0 -35.5 18t-13.5 41z M1307 1581q0 -25 18 -25q42 0 77.5 45t35.5 85q0 36 -33 36t-65.5 -51t-32.5 -90z" />
<glyph unicode="&#xc6;" horiz-adv-x="1204" d="M-35 72q0 72 29 171.5t81 213.5t129 235.5t168.5 237.5t204.5 220t232.5 182t257 123.5t272.5 45.5q73 0 82 -45q244 123 473 123q91 0 91 -51q0 -58 -100 -157t-225.5 -175t-191.5 -76q-13 0 -20.5 9.5t-7.5 21.5q0 32 43 68t57 36q8 0 8 -10q0 -8 -19.5 -21t-19.5 -22 q0 -8 9 -8q36 0 141 70t197 155t92 121q0 21 -31 21q-115 0 -243.5 -45t-240.5 -115.5t-216 -158t-178 -174t-118 -164t-44 -126.5q0 -63 73 -63q49 0 104 13.5t99.5 32t94 45t78.5 45t61.5 40.5t35.5 24q12 9 17 9q6 0 6 -23q0 -7 -53 -43t-105 -68l-53 -32 q-139 -83 -288 -229t-247 -291t-98 -226q0 -71 84 -71q132 0 555 284l137 86q13 8 31 8q16 0 16 -6q0 -3 -6 -6l-147 -90q-25 -16 -97.5 -65t-109.5 -73t-102 -63t-106.5 -58.5t-89.5 -35.5t-83 -16q-68 0 -102.5 36.5t-34.5 100.5q0 118 96 270q-431 -381 -577 -381 q-101 0 -101 140zM23 45q0 -82 63 -82q81 0 281.5 156t410.5 368q151 151 301 224q-78 -19 -125 -19q-145 0 -145 113q0 79 73 191.5t204.5 231.5t287.5 204q-2 27 -11.5 39t-37.5 12q-102 0 -217 -49t-223.5 -131.5t-218 -191.5t-203.5 -229t-176 -244t-140 -235.5 t-91 -205.5t-33 -152z" />
<glyph unicode="&#xc7;" horiz-adv-x="600" d="M-92 -268q0 8 8 8t12 -4q26 -23 64 -23q46 0 87.5 31t41.5 66q0 23 -22.5 38.5t-67.5 16.5l28 51q-96 23 -96 193q0 80 32 183t89 215t140.5 230t181.5 228.5t216.5 208t241 170t260 115t269.5 42.5q112 0 112 -86q0 -51 -39.5 -127.5t-102.5 -157t-145 -162t-163 -145 t-160.5 -103.5t-134.5 -40q-18 0 -33.5 7t-15.5 22q0 20 44 66t70 46q9 0 9 -8q0 -7 -26 -30t-26 -33q0 -5 4 -5q46 1 161 80t232.5 184.5t208.5 220.5t91 179q0 68 -103 68q-148 0 -312.5 -76t-308 -197t-276 -274t-227 -305.5t-151 -292.5t-56.5 -234q0 -127 92 -127 q124 0 502 254l137 86q13 8 31 8q16 0 16 -6q0 -3 -6 -6l-147 -90q-28 -19 -96.5 -65t-106.5 -71t-100 -62t-103.5 -57t-88 -35t-81.5 -15h-10l-18 -31q104 -3 104 -53q0 -43 -62.5 -86t-125.5 -43q-42 0 -70 25q-4 4 -4 8z" />
<glyph unicode="&#xc8;" d="M-12 43q0 70 38.5 160.5t106 183t169.5 180t218 144.5q-78 -19 -125 -19q-145 0 -145 113q0 59 43.5 140t117 166.5t179.5 169.5t223 150t254.5 107t267.5 41q90 0 90 -51q0 -58 -100 -157t-225 -175t-191 -76q-13 0 -20.5 9.5t-7.5 21.5q0 32 43 68t57 36q8 0 8 -10 q0 -8 -19.5 -21t-19.5 -22q0 -8 8 -8q36 0 141.5 70t197.5 155t92 121q0 21 -31 21q-115 0 -243.5 -45t-240.5 -115.5t-216 -158t-178.5 -174t-118.5 -164t-44 -126.5q0 -63 74 -63q49 0 104 13.5t99.5 32t94 45t78.5 45t61.5 40.5t35.5 24q12 9 17 9q6 0 6 -17v-6 q0 -7 -52.5 -43t-105.5 -68l-53 -32q-139 -83 -288 -229t-247 -291t-98 -226q0 -71 84 -71q132 0 555 284l137 86q13 8 31 8q16 0 16 -6q0 -3 -6 -6l-147 -90q-25 -16 -97.5 -65t-109.5 -73t-102 -63t-106.5 -58.5t-89.5 -35.5t-83 -16q-68 0 -102.5 36.5t-34.5 100.5z M1188 1782q0 22 24 22q25 0 35 -10q181 -143 193 -149q14 -8 14 -13q0 -4 -10 -4q-8 0 -70 27t-124 65.5t-62 61.5z" />
<glyph unicode="&#xc9;" d="M-12 43q0 70 38.5 160.5t106 183t169.5 180t218 144.5q-78 -19 -125 -19q-145 0 -145 113q0 59 43.5 140t117 166.5t179.5 169.5t223 150t254.5 107t267.5 41q90 0 90 -51q0 -58 -100 -157t-225 -175t-191 -76q-13 0 -20.5 9.5t-7.5 21.5q0 32 43 68t57 36q8 0 8 -10 q0 -8 -19.5 -21t-19.5 -22q0 -8 8 -8q36 0 141.5 70t197.5 155t92 121q0 21 -31 21q-115 0 -243.5 -45t-240.5 -115.5t-216 -158t-178.5 -174t-118.5 -164t-44 -126.5q0 -63 74 -63q49 0 104 13.5t99.5 32t94 45t78.5 45t61.5 40.5t35.5 24q12 9 17 9q6 0 6 -17v-6 q0 -7 -52.5 -43t-105.5 -68l-53 -32q-139 -83 -288 -229t-247 -291t-98 -226q0 -71 84 -71q132 0 555 284l137 86q13 8 31 8q16 0 16 -6q0 -3 -6 -6l-147 -90q-25 -16 -97.5 -65t-109.5 -73t-102 -63t-106.5 -58.5t-89.5 -35.5t-83 -16q-68 0 -102.5 36.5t-34.5 100.5z M1155 1651q0 7 14 12q15 5 46 23t83 47.5t101 54.5q27 10 43 10q24 0 24 -29q0 -28 -141 -75t-162 -47q-8 0 -8 4z" />
<glyph unicode="&#xca;" d="M-12 43q0 70 38.5 160.5t106 183t169.5 180t218 144.5q-78 -19 -125 -19q-145 0 -145 113q0 59 43.5 140t117 166.5t179.5 169.5t223 150t254.5 107t267.5 41q90 0 90 -51q0 -58 -100 -157t-225 -175t-191 -76q-13 0 -20.5 9.5t-7.5 21.5q0 32 43 68t57 36q8 0 8 -10 q0 -8 -19.5 -21t-19.5 -22q0 -8 8 -8q36 0 141.5 70t197.5 155t92 121q0 21 -31 21q-115 0 -243.5 -45t-240.5 -115.5t-216 -158t-178.5 -174t-118.5 -164t-44 -126.5q0 -63 74 -63q49 0 104 13.5t99.5 32t94 45t78.5 45t61.5 40.5t35.5 24q12 9 17 9q6 0 6 -17v-6 q0 -7 -52.5 -43t-105.5 -68l-53 -32q-139 -83 -288 -229t-247 -291t-98 -226q0 -71 84 -71q132 0 555 284l137 86q13 8 31 8q16 0 16 -6q0 -3 -6 -6l-147 -90q-25 -16 -97.5 -65t-109.5 -73t-102 -63t-106.5 -58.5t-89.5 -35.5t-83 -16q-68 0 -102.5 36.5t-34.5 100.5z M1096 1622q0 5 7 10.5t24 13t18 7.5q18 9 82.5 47t119.5 68t68 30q17 0 21 -18q4 -20 8.5 -51t7.5 -42.5t11 -30t22 -38.5l2 -4q0 -6 -12 -6q-20 0 -43 37t-35 77l-65 -28q-65 -28 -135.5 -56t-84.5 -28q-7 0 -11 3t-5 6v3z" />
<glyph unicode="&#xcb;" d="M-12 43q0 70 38.5 160.5t106 183t169.5 180t218 144.5q-78 -19 -125 -19q-145 0 -145 113q0 59 43.5 140t117 166.5t179.5 169.5t223 150t254.5 107t267.5 41q90 0 90 -51q0 -58 -100 -157t-225 -175t-191 -76q-13 0 -20.5 9.5t-7.5 21.5q0 32 43 68t57 36q8 0 8 -10 q0 -8 -19.5 -21t-19.5 -22q0 -8 8 -8q36 0 141.5 70t197.5 155t92 121q0 21 -31 21q-115 0 -243.5 -45t-240.5 -115.5t-216 -158t-178.5 -174t-118.5 -164t-44 -126.5q0 -63 74 -63q49 0 104 13.5t99.5 32t94 45t78.5 45t61.5 40.5t35.5 24q12 9 17 9q6 0 6 -17v-6 q0 -7 -52.5 -43t-105.5 -68l-53 -32q-139 -83 -288 -229t-247 -291t-98 -226q0 -71 84 -71q132 0 555 284l137 86q13 8 31 8q16 0 16 -6q0 -3 -6 -6l-147 -90q-25 -16 -97.5 -65t-109.5 -73t-102 -63t-106.5 -58.5t-89.5 -35.5t-83 -16q-68 0 -102.5 36.5t-34.5 100.5z M1098 1665q0 29 31 57.5t59 28.5q14 0 25.5 -12t11.5 -25q0 -20 -29.5 -52t-69.5 -32q-13 0 -20.5 10.5t-7.5 24.5zM1262 1665q0 29 31 57.5t59 28.5q14 0 25.5 -12t11.5 -25q0 -20 -29.5 -52t-69.5 -32q-13 0 -20.5 10.5t-7.5 24.5z" />
<glyph unicode="&#xcc;" horiz-adv-x="880" d="M2 -274q0 7 21 24q147 122 327 290.5t372.5 373.5t350 398t259.5 372.5t102 288.5q0 59 -68 59q-94 0 -207.5 -50.5t-218 -130t-204 -179t-173 -196.5t-118 -184.5t-44.5 -140.5q0 -67 70 -67q101 0 268 101t324 267q11 11 18 11q3 0 6 -3t3 -6t-7 -10q-11 -12 -47 -46.5 t-107 -93.5t-145.5 -110t-163.5 -89t-159 -38q-52 0 -78.5 28t-26.5 77q0 63 40.5 153.5t109.5 188t168 194.5t208.5 174t239.5 124.5t252 47.5q101 0 101 -127q-17 -118 -73 -247.5t-137 -251.5t-194.5 -254.5t-231 -249.5t-260.5 -243.5t-270.5 -230.5t-273.5 -216 q-23 -15 -29 -15l-4 2v5zM1237 1745q0 22 25 22q24 0 34 -10q181 -143 193 -149q14 -8 14 -13q0 -4 -10 -4q-8 0 -70 27t-124 65.5t-62 61.5z" />
<glyph unicode="&#xcd;" horiz-adv-x="880" d="M2 -274q0 7 21 24q147 122 327 290.5t372.5 373.5t350 398t259.5 372.5t102 288.5q0 59 -68 59q-94 0 -207.5 -50.5t-218 -130t-204 -179t-173 -196.5t-118 -184.5t-44.5 -140.5q0 -67 70 -67q101 0 268 101t324 267q11 11 18 11q3 0 6 -3t3 -6t-7 -10q-11 -12 -47 -46.5 t-107 -93.5t-145.5 -110t-163.5 -89t-159 -38q-52 0 -78.5 28t-26.5 77q0 63 40.5 153.5t109.5 188t168 194.5t208.5 174t239.5 124.5t252 47.5q101 0 101 -127q-17 -118 -73 -247.5t-137 -251.5t-194.5 -254.5t-231 -249.5t-260.5 -243.5t-270.5 -230.5t-273.5 -216 q-23 -15 -29 -15l-4 2v5zM1214 1587q0 7 15 12t46 23t82.5 47.5t100.5 54.5q29 11 43 11q25 0 25 -29q0 -28 -141 -75.5t-162 -47.5q-9 0 -9 4z" />
<glyph unicode="&#xce;" horiz-adv-x="880" d="M2 -274q0 7 21 24q147 122 327 290.5t372.5 373.5t350 398t259.5 372.5t102 288.5q0 59 -68 59q-94 0 -207.5 -50.5t-218 -130t-204 -179t-173 -196.5t-118 -184.5t-44.5 -140.5q0 -67 70 -67q101 0 268 101t324 267q11 11 18 11q3 0 6 -3t3 -6t-7 -10q-11 -12 -47 -46.5 t-107 -93.5t-145.5 -110t-163.5 -89t-159 -38q-52 0 -78.5 28t-26.5 77q0 63 40.5 153.5t109.5 188t168 194.5t208.5 174t239.5 124.5t252 47.5q101 0 101 -127q-17 -118 -73 -247.5t-137 -251.5t-194.5 -254.5t-231 -249.5t-260.5 -243.5t-270.5 -230.5t-273.5 -216 q-23 -15 -29 -15l-4 2v5zM1161 1604q0 5 7.5 10.5t23.5 12t18 7.5q18 9 83 47t120 68.5t68 30.5q16 0 20 -19q4 -20 8.5 -51t7.5 -42.5t11 -30t22 -38.5l2 -4q0 -6 -12 -6q-20 0 -43 37t-35 78l-65 -28q-65 -28 -135 -56.5t-84 -28.5q-7 0 -11.5 3.5t-4.5 6.5z" />
<glyph unicode="&#xcf;" horiz-adv-x="880" d="M2 -274q0 7 21 24q147 122 327 290.5t372.5 373.5t350 398t259.5 372.5t102 288.5q0 59 -68 59q-94 0 -207.5 -50.5t-218 -130t-204 -179t-173 -196.5t-118 -184.5t-44.5 -140.5q0 -67 70 -67q101 0 268 101t324 267q11 11 18 11q3 0 6 -3t3 -6t-7 -10q-11 -12 -47 -46.5 t-107 -93.5t-145.5 -110t-163.5 -89t-159 -38q-52 0 -78.5 28t-26.5 77q0 63 40.5 153.5t109.5 188t168 194.5t208.5 174t239.5 124.5t252 47.5q101 0 101 -127q-17 -118 -73 -247.5t-137 -251.5t-194.5 -254.5t-231 -249.5t-260.5 -243.5t-270.5 -230.5t-273.5 -216 q-23 -15 -29 -15l-4 2v5zM1233 1655q0 29 31 57.5t59 28.5q14 0 25.5 -12t11.5 -25q0 -20 -29 -52t-69 -32q-13 0 -21 10.5t-8 24.5zM1397 1655q0 29 31 57.5t59 28.5q14 0 25.5 -12t11.5 -25q0 -20 -29.5 -52t-69.5 -32q-13 0 -20.5 10.5t-7.5 24.5z" />
<glyph unicode="&#xd0;" horiz-adv-x="1445" d="M-2 -178q0 100 32 243t76.5 248t77.5 105q15 0 15 -19q0 -17 -6.5 -41t-6.5 -45q0 -85 41 -159.5t113 -118.5l152 188q-121 52 -121 221q0 71 23 155t66.5 173.5t108.5 179.5t145 173t181 155.5t211.5 126t242 84.5t267.5 31q160 0 237.5 -72t77.5 -199 q0 -110 -57.5 -250t-155.5 -282t-237.5 -278t-295.5 -241.5t-339 -170t-357 -64.5q-69 0 -133 23q-146 -165 -231 -250q-41 -41 -72 -41q-55 0 -55 125zM53 -139q0 -111 43 -111q7 0 219 254q-74 38 -123 99t-61 128q-1 2 -2 9t-2.5 11.5t-3.5 4.5q-5 0 -22 -66 t-32.5 -163.5t-15.5 -165.5zM379 14q67 -24 129 -24q136 0 297 66t311 173t292 245t246.5 278.5t168 278.5t63.5 241q0 106 -71.5 165.5t-219.5 59.5q-150 0 -302.5 -56.5t-277 -148t-234.5 -208.5t-185.5 -237.5t-118.5 -235t-43 -201.5q0 -121 80 -160l299 377h-201 q-18 0 -18 14q0 18 15.5 28.5t31.5 10.5q95 0 209 -6q373 475 422 547q29 41 45 41q20 0 20 -52q0 -62 -397 -540l133 -6q64 0 64 -19t-74 -22q-2 0 -158 4q-206 -247 -334 -394h27q80 0 176.5 41t177 99t149.5 116t109 99l39 41q17 20 33 20q10 0 10 -8q0 -13 -16 -29 q-8 -8 -22.5 -23t-61 -57t-93.5 -80t-114 -85t-129 -80.5t-133 -56.5t-131 -23q-29 0 -41 2q-31 -35 -88.5 -100.5t-83.5 -94.5z" />
<glyph unicode="&#xd1;" horiz-adv-x="1036" d="M0 614q0 99 48.5 215t129.5 224.5t190 210.5t225 177.5t240.5 121t231.5 45.5q51 0 70.5 -23t19.5 -74q0 -91 -88.5 -260.5t-223.5 -359t-261 -349.5t-234 -284q-6 -6 -6 -16q0 -4 4 -4t12 8q16 13 278 254.5t284 263.5q67 67 525.5 481t477.5 414q23 0 23 -23 q0 -52 -111 -212.5t-277 -364.5t-360.5 -441t-360.5 -442.5t-277 -369t-111 -220.5q0 -8 6 -8q11 0 46.5 22.5t39.5 22.5q16 0 16 -10q0 -5 -8 -10q-87 -56 -111 -56q-22 0 -22 27q0 92 109.5 281t274 405.5t356.5 453t356.5 428.5t274 326t109.5 150q0 2 -6 2 q-4 0 -309.5 -279t-637 -584t-349.5 -321q-96 -90 -199 -188t-162.5 -154t-144.5 -133q-14 -14 -22.5 -17t-32.5 -3q-21 0 -21 8q0 9 25 41q61 82 212 268.5t290.5 362t281 363t227 333t85.5 211.5q0 33 -16 46t-52 13q-106 0 -230.5 -57t-237 -146.5t-218.5 -200.5 t-183.5 -219t-124 -203.5t-46.5 -152.5q0 -67 63 -67q61 0 142 40.5t152.5 98.5t134 115.5t99.5 98.5l37 40q10 12 19 12q6 0 6 -8q0 -10 -10 -20q-7 -8 -19.5 -22.5t-52.5 -55.5t-80.5 -78.5t-98 -83t-110.5 -78.5t-113 -55.5t-110 -22.5q-84 0 -84 92zM1376 1686q0 6 8 14 q45 45 93 45q29 0 77 -25.5t72 -25.5q35 0 72 43q2 4 8 4q10 0 10 -19q0 -4 -2 -6q-53 -63 -119 -63q-33 0 -83.5 22.5t-69.5 22.5q-22 0 -41 -19q-2 -2 -10 -2q-15 0 -15 9z" />
<glyph unicode="&#xd2;" horiz-adv-x="903" d="M-35 133q0 78 27 178.5t76.5 212.5t123.5 228.5t164 226.5t203.5 207t235.5 170t266.5 115t290.5 42q65 0 65 -59q0 -69 -76.5 -179t-195 -198.5t-219.5 -89.5q-37 7 -37 25q0 14 25.5 44.5t35.5 30.5q13 0 13 -10q0 -5 -8.5 -13t-8.5 -15q0 -5 8 -5q42 0 117 51 t144.5 118.5t121.5 138t52 106.5q0 31 -37 31q-138 0 -275 -45.5t-252.5 -122.5t-223 -179.5t-192.5 -217t-155.5 -233.5t-117 -230.5t-72 -207t-25.5 -163.5q0 -123 76 -123q79 0 197.5 53t249.5 142.5t269 216t255.5 264.5t209.5 297t131 305l8 32q11 43 14.5 54.5 t8.5 11.5q8 0 11.5 -3t3.5 -13q-17 -126 -81.5 -278t-162.5 -304.5t-229.5 -296.5t-274 -255t-305.5 -178.5t-316 -67.5q-139 0 -139 186zM1225 1720q0 23 24 23q25 0 35 -10q181 -144 193 -150q14 -8 14 -12t-10 -4q-8 0 -70 27t-124 65t-62 61z" />
<glyph unicode="&#xd3;" horiz-adv-x="903" d="M-35 133q0 78 27 178.5t76.5 212.5t123.5 228.5t164 226.5t203.5 207t235.5 170t266.5 115t290.5 42q65 0 65 -59q0 -69 -76.5 -179t-195 -198.5t-219.5 -89.5q-37 7 -37 25q0 14 25.5 44.5t35.5 30.5q13 0 13 -10q0 -5 -8.5 -13t-8.5 -15q0 -5 8 -5q42 0 117 51 t144.5 118.5t121.5 138t52 106.5q0 31 -37 31q-138 0 -275 -45.5t-252.5 -122.5t-223 -179.5t-192.5 -217t-155.5 -233.5t-117 -230.5t-72 -207t-25.5 -163.5q0 -123 76 -123q79 0 197.5 53t249.5 142.5t269 216t255.5 264.5t209.5 297t131 305l8 32q11 43 14.5 54.5 t8.5 11.5q8 0 11.5 -3t3.5 -13q-17 -126 -81.5 -278t-162.5 -304.5t-229.5 -296.5t-274 -255t-305.5 -178.5t-316 -67.5q-139 0 -139 186zM1231 1575q0 7 14 12q15 5 46 23t83 47.5t101 54.5q27 10 43 10q24 0 24 -28t-141 -75.5t-162 -47.5q-8 0 -8 4z" />
<glyph unicode="&#xd4;" horiz-adv-x="903" d="M-35 133q0 78 27 178.5t76.5 212.5t123.5 228.5t164 226.5t203.5 207t235.5 170t266.5 115t290.5 42q65 0 65 -59q0 -69 -76.5 -179t-195 -198.5t-219.5 -89.5q-37 7 -37 25q0 14 25.5 44.5t35.5 30.5q13 0 13 -10q0 -5 -8.5 -13t-8.5 -15q0 -5 8 -5q42 0 117 51 t144.5 118.5t121.5 138t52 106.5q0 31 -37 31q-138 0 -275 -45.5t-252.5 -122.5t-223 -179.5t-192.5 -217t-155.5 -233.5t-117 -230.5t-72 -207t-25.5 -163.5q0 -123 76 -123q79 0 197.5 53t249.5 142.5t269 216t255.5 264.5t209.5 297t131 305l8 32q11 43 14.5 54.5 t8.5 11.5q8 0 11.5 -3t3.5 -13q-17 -126 -81.5 -278t-162.5 -304.5t-229.5 -296.5t-274 -255t-305.5 -178.5t-316 -67.5q-139 0 -139 186zM1108 1556q0 5 7 10.5t24 13t18 7.5q18 9 82.5 47t119.5 68.5t68 30.5q17 0 21 -19q4 -20 8.5 -51t7.5 -42.5t11 -30t22 -38.5l2 -4 q0 -6 -12 -6q-20 0 -43 37t-35 78l-65 -29q-65 -28 -135.5 -56t-84.5 -28q-7 0 -11 3t-5 6v3z" />
<glyph unicode="&#xd5;" horiz-adv-x="903" d="M-35 133q0 78 27 178.5t76.5 212.5t123.5 228.5t164 226.5t203.5 207t235.5 170t266.5 115t290.5 42q65 0 65 -59q0 -69 -76.5 -179t-195 -198.5t-219.5 -89.5q-37 7 -37 25q0 14 25.5 44.5t35.5 30.5q13 0 13 -10q0 -5 -8.5 -13t-8.5 -15q0 -5 8 -5q42 0 117 51 t144.5 118.5t121.5 138t52 106.5q0 31 -37 31q-138 0 -275 -45.5t-252.5 -122.5t-223 -179.5t-192.5 -217t-155.5 -233.5t-117 -230.5t-72 -207t-25.5 -163.5q0 -123 76 -123q79 0 197.5 53t249.5 142.5t269 216t255.5 264.5t209.5 297t131 305l8 32q11 43 14.5 54.5 t8.5 11.5q8 0 11.5 -3t3.5 -13q-17 -126 -81.5 -278t-162.5 -304.5t-229.5 -296.5t-274 -255t-305.5 -178.5t-316 -67.5q-139 0 -139 186zM1182 1614q0 6 8 14q45 45 92 45q30 0 78 -25.5t72 -25.5q34 0 71 43q2 4 8 4q4 0 7.5 -6t3.5 -12q0 -4 -2 -6q-54 -64 -119 -64 q-33 0 -84 22.5t-70 22.5q-23 0 -41 -18q-2 -2 -10 -2q-14 0 -14 8z" />
<glyph unicode="&#xd6;" horiz-adv-x="903" d="M-35 133q0 78 27 178.5t76.5 212.5t123.5 228.5t164 226.5t203.5 207t235.5 170t266.5 115t290.5 42q65 0 65 -59q0 -69 -76.5 -179t-195 -198.5t-219.5 -89.5q-37 7 -37 25q0 14 25.5 44.5t35.5 30.5q13 0 13 -10q0 -5 -8.5 -13t-8.5 -15q0 -5 8 -5q42 0 117 51 t144.5 118.5t121.5 138t52 106.5q0 31 -37 31q-138 0 -275 -45.5t-252.5 -122.5t-223 -179.5t-192.5 -217t-155.5 -233.5t-117 -230.5t-72 -207t-25.5 -163.5q0 -123 76 -123q79 0 197.5 53t249.5 142.5t269 216t255.5 264.5t209.5 297t131 305l8 32q11 43 14.5 54.5 t8.5 11.5q8 0 11.5 -3t3.5 -13q-17 -126 -81.5 -278t-162.5 -304.5t-229.5 -296.5t-274 -255t-305.5 -178.5t-316 -67.5q-139 0 -139 186zM1225 1632q0 29 31 57.5t59 28.5q14 0 25.5 -12t11.5 -25q0 -20 -29.5 -52t-69.5 -32q-13 0 -20.5 10.5t-7.5 24.5zM1389 1632 q0 29 31 57.5t59 28.5q14 0 25.5 -12t11.5 -25q0 -20 -29.5 -52t-69.5 -32q-13 0 -20.5 10.5t-7.5 24.5z" />
<glyph unicode="&#xd7;" horiz-adv-x="780" d="M184 354q0 9 4 17l256 153l-120 113q-19 16 -19 31q0 14 21 20q38 -47 149 -143l230 143q28 17 40 17q17 0 17 -19l-2 -14l-252 -154q116 -97 143 -131q4 -4 4 -10q0 -8 -7 -15.5t-17 -7.5l-158 144q-196 -120 -246 -152q-13 -8 -24 -8q-19 0 -19 16z" />
<glyph unicode="&#xd8;" horiz-adv-x="903" d="M-35 133q0 88 33 203t97 243t151.5 257t204.5 247.5t247.5 211.5t288.5 151t320 65l98 138q29 41 45 41q20 0 20 -52q0 -8 -86 -131q33 -11 33 -53q0 -59 -59 -152t-155.5 -179.5t-190.5 -118.5q-472 -632 -787 -1016q111 34 253 120.5t289.5 214t280 275t235 318.5 t144.5 329l8 32q11 43 14.5 54.5t8.5 11.5q8 0 11.5 -3t3.5 -13q-16 -119 -75.5 -263t-149.5 -289t-211 -284.5t-253.5 -251t-285.5 -188.5t-299 -96q-71 -88 -140 -168q-23 -23 -34 -23q-17 0 -17 33v8q11 13 35 40.5t46 53.5t42 50q-17 -2 -27 -2q-139 0 -139 186zM39 90 q0 -123 76 -123q23 0 35 2q291 353 776 1018q-37 7 -37 25q0 14 25.5 44.5t35.5 30.5q13 0 13 -10q0 -5 -8.5 -13t-8.5 -15q0 -5 8 -5q9 0 15 3q263 361 319 440q-151 -11 -299 -76t-269 -164t-230 -222.5t-190 -255t-140.5 -259t-90 -236t-30.5 -184.5zM1090 1108 q105 75 202 186.5t97 163.5q0 23 -21 29q-76 -107 -278 -379z" />
<glyph unicode="&#xd9;" horiz-adv-x="1419" d="M-4 561q0 67 43.5 167.5t116.5 210t175.5 219t213 196.5t237 141.5t240.5 54.5q68 0 98.5 -30.5t30.5 -77.5q0 -106 -53.5 -236.5t-139 -257.5t-189 -258t-207.5 -249t-189.5 -218t-139 -178t-53.5 -117q0 -10 10 -10q55 0 202 104t318.5 252.5t334.5 297t271 252.5 l109 104q105 105 201 212t153 174.5t68 78.5q15 22 25.5 30.5t28.5 8.5q19 0 39 -8t20 -15q0 -12 -141 -190.5t-309.5 -386.5t-176.5 -218q-16 -21 -84 -105t-130 -163t-129.5 -170.5t-108.5 -163.5t-41 -106q0 -21 18 -21q60 0 211 89.5t391 250.5l137 86q13 8 31 8 q17 0 17 -6q0 -3 -7 -6l-147 -90q-28 -18 -122.5 -82.5t-150 -99.5t-135 -82t-139 -69.5t-100.5 -22.5q-33 5 -33 49q0 64 65 189t156.5 257t183 255t152 201.5t55.5 78.5q-9 0 -119.5 -103t-269.5 -250t-326.5 -294t-315.5 -250t-212 -103q-13 0 -21.5 9.5t-8.5 23.5 q0 62 53.5 161.5t139.5 213t190 240.5t208 256.5t190 248t139.5 228t53.5 184.5q0 42 -26.5 55t-81.5 17q-95 -1 -209.5 -62.5t-219 -156.5t-204.5 -211.5t-172.5 -228t-117 -206t-44.5 -145.5q0 -47 39 -47q49 0 125 39.5t149 96.5t139.5 113.5t106.5 95.5l41 40 q12 12 23 12q6 0 6 -6q0 -4 -8 -12q-16 -16 -43.5 -42.5t-104.5 -94t-145.5 -119.5t-148.5 -94.5t-132 -42.5q-100 0 -100 104zM1393 1679q0 23 24 23q25 0 35 -10q181 -144 193 -150q14 -8 14 -12t-10 -4q-8 0 -70 27t-124 65t-62 61z" />
<glyph unicode="&#xda;" horiz-adv-x="1419" d="M-4 561q0 67 43.5 167.5t116.5 210t175.5 219t213 196.5t237 141.5t240.5 54.5q68 0 98.5 -30.5t30.5 -77.5q0 -106 -53.5 -236.5t-139 -257.5t-189 -258t-207.5 -249t-189.5 -218t-139 -178t-53.5 -117q0 -10 10 -10q55 0 202 104t318.5 252.5t334.5 297t271 252.5 l109 104q105 105 201 212t153 174.5t68 78.5q15 22 25.5 30.5t28.5 8.5q19 0 39 -8t20 -15q0 -12 -141 -190.5t-309.5 -386.5t-176.5 -218q-16 -21 -84 -105t-130 -163t-129.5 -170.5t-108.5 -163.5t-41 -106q0 -21 18 -21q60 0 211 89.5t391 250.5l137 86q13 8 31 8 q17 0 17 -6q0 -3 -7 -6l-147 -90q-28 -18 -122.5 -82.5t-150 -99.5t-135 -82t-139 -69.5t-100.5 -22.5q-33 5 -33 49q0 64 65 189t156.5 257t183 255t152 201.5t55.5 78.5q-9 0 -119.5 -103t-269.5 -250t-326.5 -294t-315.5 -250t-212 -103q-13 0 -21.5 9.5t-8.5 23.5 q0 62 53.5 161.5t139.5 213t190 240.5t208 256.5t190 248t139.5 228t53.5 184.5q0 42 -26.5 55t-81.5 17q-95 -1 -209.5 -62.5t-219 -156.5t-204.5 -211.5t-172.5 -228t-117 -206t-44.5 -145.5q0 -47 39 -47q49 0 125 39.5t149 96.5t139.5 113.5t106.5 95.5l41 40 q12 12 23 12q6 0 6 -6q0 -4 -8 -12q-16 -16 -43.5 -42.5t-104.5 -94t-145.5 -119.5t-148.5 -94.5t-132 -42.5q-100 0 -100 104zM1446 1491q0 7 14 12q15 5 46 23t83 47.5t101 54.5q27 10 43 10q24 0 24 -28t-141 -75.5t-162 -47.5q-8 0 -8 4z" />
<glyph unicode="&#xdb;" horiz-adv-x="1419" d="M-4 561q0 67 43.5 167.5t116.5 210t175.5 219t213 196.5t237 141.5t240.5 54.5q68 0 98.5 -30.5t30.5 -77.5q0 -106 -53.5 -236.5t-139 -257.5t-189 -258t-207.5 -249t-189.5 -218t-139 -178t-53.5 -117q0 -10 10 -10q55 0 202 104t318.5 252.5t334.5 297t271 252.5 l109 104q105 105 201 212t153 174.5t68 78.5q15 22 25.5 30.5t28.5 8.5q19 0 39 -8t20 -15q0 -12 -141 -190.5t-309.5 -386.5t-176.5 -218q-16 -21 -84 -105t-130 -163t-129.5 -170.5t-108.5 -163.5t-41 -106q0 -21 18 -21q60 0 211 89.5t391 250.5l137 86q13 8 31 8 q17 0 17 -6q0 -3 -7 -6l-147 -90q-28 -18 -122.5 -82.5t-150 -99.5t-135 -82t-139 -69.5t-100.5 -22.5q-33 5 -33 49q0 64 65 189t156.5 257t183 255t152 201.5t55.5 78.5q-9 0 -119.5 -103t-269.5 -250t-326.5 -294t-315.5 -250t-212 -103q-13 0 -21.5 9.5t-8.5 23.5 q0 62 53.5 161.5t139.5 213t190 240.5t208 256.5t190 248t139.5 228t53.5 184.5q0 42 -26.5 55t-81.5 17q-95 -1 -209.5 -62.5t-219 -156.5t-204.5 -211.5t-172.5 -228t-117 -206t-44.5 -145.5q0 -47 39 -47q49 0 125 39.5t149 96.5t139.5 113.5t106.5 95.5l41 40 q12 12 23 12q6 0 6 -6q0 -4 -8 -12q-16 -16 -43.5 -42.5t-104.5 -94t-145.5 -119.5t-148.5 -94.5t-132 -42.5q-100 0 -100 104zM1372 1509q0 5 7 10.5t24 13t18 7.5q18 9 83 47t120 68.5t68 30.5q16 0 20 -19q4 -20 8.5 -51t7.5 -42.5t11 -30t22 -38.5l2 -4q0 -6 -12 -6 q-20 0 -43 37t-35 78l-65 -28q-65 -28 -135 -56.5t-84 -28.5q-7 0 -11.5 3t-5.5 6v3z" />
<glyph unicode="&#xdc;" horiz-adv-x="1419" d="M-4 561q0 67 43.5 167.5t116.5 210t175.5 219t213 196.5t237 141.5t240.5 54.5q68 0 98.5 -30.5t30.5 -77.5q0 -106 -53.5 -236.5t-139 -257.5t-189 -258t-207.5 -249t-189.5 -218t-139 -178t-53.5 -117q0 -10 10 -10q55 0 202 104t318.5 252.5t334.5 297t271 252.5 l109 104q105 105 201 212t153 174.5t68 78.5q15 22 25.5 30.5t28.5 8.5q19 0 39 -8t20 -15q0 -12 -141 -190.5t-309.5 -386.5t-176.5 -218q-16 -21 -84 -105t-130 -163t-129.5 -170.5t-108.5 -163.5t-41 -106q0 -21 18 -21q60 0 211 89.5t391 250.5l137 86q13 8 31 8 q17 0 17 -6q0 -3 -7 -6l-147 -90q-28 -18 -122.5 -82.5t-150 -99.5t-135 -82t-139 -69.5t-100.5 -22.5q-33 5 -33 49q0 64 65 189t156.5 257t183 255t152 201.5t55.5 78.5q-9 0 -119.5 -103t-269.5 -250t-326.5 -294t-315.5 -250t-212 -103q-13 0 -21.5 9.5t-8.5 23.5 q0 62 53.5 161.5t139.5 213t190 240.5t208 256.5t190 248t139.5 228t53.5 184.5q0 42 -26.5 55t-81.5 17q-95 -1 -209.5 -62.5t-219 -156.5t-204.5 -211.5t-172.5 -228t-117 -206t-44.5 -145.5q0 -47 39 -47q49 0 125 39.5t149 96.5t139.5 113.5t106.5 95.5l41 40 q12 12 23 12q6 0 6 -6q0 -4 -8 -12q-16 -16 -43.5 -42.5t-104.5 -94t-145.5 -119.5t-148.5 -94.5t-132 -42.5q-100 0 -100 104zM1432 1597q0 29 31 57.5t59 28.5q14 0 25.5 -11.5t11.5 -24.5q0 -20 -29.5 -52t-69.5 -32q-13 0 -20.5 10t-7.5 24zM1595 1597q0 29 31.5 57.5 t59.5 28.5q14 0 25 -11.5t11 -24.5q0 -20 -29 -52t-69 -32q-13 0 -21 10t-8 24z" />
<glyph unicode="&#xdd;" horiz-adv-x="1259" d="M-309 -981q0 85 64.5 193.5t167 216t246.5 228.5t285 224.5t302 210.5q392 495 663 873q-68 -46 -144 -94t-192 -116.5t-217 -111.5t-157 -43q-54 0 -54 55q0 51 44 143.5t88 163.5l44 72q0 4 -6 4q-20 -13 -56 -33.5t-142.5 -74t-208 -94t-234 -74t-239.5 -33.5 q-37 0 -37 23q0 34 59 61t86 27q15 0 15 -11q0 -4 -6.5 -9.5t-6.5 -8.5q0 -8 15 -8q109 0 234 32.5t224.5 78.5t183.5 92.5t130 79.5l47 32l25 26q24 26 58.5 62.5t79.5 82.5t86.5 88.5t80 79.5t59.5 54q67 56 100 56q12 0 23.5 -8.5t11.5 -18.5q0 -21 -78.5 -101.5 t-189 -186t-152.5 -154.5q-50 -55 -109.5 -130t-122.5 -175.5t-63 -147.5q0 -14 21 -14q57 0 150.5 39.5t179.5 90.5t189 121t154 108t99 75q172 229 244 307q59 66 111 110t79.5 59t42.5 15t25 -10t10 -22q0 -5 -14 -26t-56.5 -67t-101.5 -96q-17 -17 -206 -255t-230 -292 q-152 -208 -439 -565q298 189 480 289q12 6 18 6q10 0 10 -8q0 -13 -16 -23q-210 -105 -537 -321q-180 -222 -347.5 -415t-339 -375t-304.5 -288t-199 -106q-10 0 -20 13.5t-10 23.5zM-229 -948q0 -6 4 -6q144 3 925 977q-184 -127 -340 -251.5t-293.5 -255.5t-216.5 -252 t-79 -212zM1593 1610q0 7 15 12t46 23t82.5 47.5t100.5 54.5q27 10 43 10q25 0 25 -28t-141 -75.5t-162 -47.5q-9 0 -9 4z" />
<glyph unicode="&#xde;" horiz-adv-x="876" d="M0 0q0 142 130 344.5t336 402.5t437 353q233 352 271 446q6 15 12 15q22 0 22 -64q0 -48 -10 -63q-12 -33 -59.5 -115.5t-79.5 -124.5q296 166 508 166q172 0 172 -123q0 -77 -68 -191.5t-180 -230t-240.5 -217t-264.5 -165.5t-238 -64q-70 0 -70 82q0 37 14 87t28 82 l13 31q9 21 19 21q8 0 8 -21q0 -2 -13.5 -63.5t-13.5 -95.5q0 -86 66 -86q79 0 228 101t290.5 236t247.5 281t106 227q0 84 -112 84q-221 0 -525 -178q-144 -206 -362 -485t-409.5 -497t-229.5 -218q-33 0 -33 43zM25 0q0 -16 14 -16q40 0 185.5 175.5t315.5 413t334 484.5 q-164 -112 -318 -253t-271.5 -283t-188.5 -280.5t-71 -240.5z" />
<glyph unicode="&#xdf;" horiz-adv-x="614" d="M-539 -631q0 44 158 272.5t393 527.5t479.5 590t445.5 491t263 200q19 0 19 -16q0 -75 -41.5 -154.5t-108 -153.5t-146.5 -152.5t-160 -165.5t-146.5 -178t-108 -204.5t-41.5 -232.5q0 -68 -25 -93q0 -4 7 -4q6 0 8 2q47 28 104.5 64.5t90.5 59.5l34 22l2 -27 q-24 -15 -64.5 -41t-63 -40t-58 -35.5t-57 -34t-50.5 -28.5t-49 -24.5t-42 -17.5t-40 -12.5t-33 -3.5q-65 0 -100 32.5t-35 77.5q0 41 29.5 72t79.5 31q33 0 33 -33q0 -19 -14 -35t-36 -16q-17 0 -19 18t-11 18q-14 0 -23.5 -14.5t-9.5 -34.5q0 -34 24 -59t74 -25 q41 0 81.5 33.5t55.5 58.5q21 42 25 121q6 99 52.5 201t115.5 189.5t151.5 174t164 166.5t148.5 154t108.5 149t41.5 140q0 4 -6 4q-49 0 -461 -481.5t-804 -984.5t-392 -558q0 -7 7.5 -7.5t7.5 -2.5q0 -28 -21 -28q-12 0 -24.5 9t-12.5 19z" />
<glyph unicode="&#xe0;" horiz-adv-x="604" d="M-8 66q0 63 31 131.5t90.5 132.5t138 115.5t183 82.5t216.5 31q10 0 17.5 -7t7.5 -15q0 -18 -96 -126t-192.5 -223.5t-96.5 -150.5q0 -8 8 -8q16 0 108 53.5t175 107.5l84 54l2 -27q-37 -25 -94 -61t-166.5 -97t-141.5 -61q-12 0 -12 12q0 19 11 57.5t21 67.5l11 29 q0 4 -4 4q-10 0 -65.5 -41t-116 -82t-84.5 -41q-35 3 -35 62zM41 61q0 -12 12 -12q9 0 27 8.5t41.5 23.5t47 31.5t51.5 37.5t48 36.5t43 33t29 22.5q35 27 135 141.5t100 132.5q0 8 -16 8q-71 0 -164.5 -53.5t-170 -127t-130 -153t-53.5 -129.5zM426 764q0 22 25 22 q24 0 34 -10q181 -143 193 -149q14 -8 14 -13q0 -4 -10 -4q-8 0 -70 27t-124 65.5t-62 61.5z" />
<glyph unicode="&#xe1;" horiz-adv-x="604" d="M-8 66q0 63 31 131.5t90.5 132.5t138 115.5t183 82.5t216.5 31q10 0 17.5 -7t7.5 -15q0 -18 -96 -126t-192.5 -223.5t-96.5 -150.5q0 -8 8 -8q16 0 108 53.5t175 107.5l84 54l2 -27q-37 -25 -94 -61t-166.5 -97t-141.5 -61q-12 0 -12 12q0 19 11 57.5t21 67.5l11 29 q0 4 -4 4q-10 0 -65.5 -41t-116 -82t-84.5 -41q-35 3 -35 62zM41 61q0 -12 12 -12q9 0 27 8.5t41.5 23.5t47 31.5t51.5 37.5t48 36.5t43 33t29 22.5q35 27 135 141.5t100 132.5q0 8 -16 8q-71 0 -164.5 -53.5t-170 -127t-130 -153t-53.5 -129.5zM483 623q0 7 15 12t46 23 t82.5 47.5t100.5 54.5q27 10 43 10q25 0 25 -29q0 -28 -141 -75.5t-162 -47.5q-9 0 -9 5z" />
<glyph unicode="&#xe2;" horiz-adv-x="604" d="M-8 66q0 63 31 131.5t90.5 132.5t138 115.5t183 82.5t216.5 31q10 0 17.5 -7t7.5 -15q0 -18 -96 -126t-192.5 -223.5t-96.5 -150.5q0 -8 8 -8q16 0 108 53.5t175 107.5l84 54l2 -27q-37 -25 -94 -61t-166.5 -97t-141.5 -61q-12 0 -12 12q0 19 11 57.5t21 67.5l11 29 q0 4 -4 4q-10 0 -65.5 -41t-116 -82t-84.5 -41q-35 3 -35 62zM41 61q0 -12 12 -12q9 0 27 8.5t41.5 23.5t47 31.5t51.5 37.5t48 36.5t43 33t29 22.5q35 27 135 141.5t100 132.5q0 8 -16 8q-71 0 -164.5 -53.5t-170 -127t-130 -153t-53.5 -129.5zM383 623q0 5 7.5 10.5 t23.5 12t18 7.5q18 9 82.5 47t119.5 68.5t68 30.5q17 0 21 -19q4 -20 8.5 -51t7.5 -42.5t11 -30t22 -38.5l2 -4q0 -6 -12 -6q-20 0 -43 37t-35 78l-65 -29q-65 -28 -135.5 -56t-84.5 -28q-7 0 -11 3t-4 7z" />
<glyph unicode="&#xe3;" horiz-adv-x="604" d="M-8 66q0 63 31 131.5t90.5 132.5t138 115.5t183 82.5t216.5 31q10 0 17.5 -7t7.5 -15q0 -18 -96 -126t-192.5 -223.5t-96.5 -150.5q0 -8 8 -8q16 0 108 53.5t175 107.5l84 54l2 -27q-37 -25 -94 -61t-166.5 -97t-141.5 -61q-12 0 -12 12q0 19 11 57.5t21 67.5l11 29 q0 4 -4 4q-10 0 -65.5 -41t-116 -82t-84.5 -41q-35 3 -35 62zM41 61q0 -12 12 -12q9 0 27 8.5t41.5 23.5t47 31.5t51.5 37.5t48 36.5t43 33t29 22.5q35 27 135 141.5t100 132.5q0 8 -16 8q-71 0 -164.5 -53.5t-170 -127t-130 -153t-53.5 -129.5zM440 682q0 5 9 14 q45 45 92 45q29 0 77 -25.5t72 -25.5q35 0 72 43q2 4 8 4q10 0 10 -18q0 -4 -2 -6q-54 -64 -119 -64q-33 0 -83.5 22.5t-69.5 22.5q-23 0 -41 -18q-2 -2 -10 -2q-15 0 -15 8z" />
<glyph unicode="&#xe4;" horiz-adv-x="604" d="M-8 66q0 63 31 131.5t90.5 132.5t138 115.5t183 82.5t216.5 31q10 0 17.5 -7t7.5 -15q0 -18 -96 -126t-192.5 -223.5t-96.5 -150.5q0 -8 8 -8q16 0 108 53.5t175 107.5l84 54l2 -27q-37 -25 -94 -61t-166.5 -97t-141.5 -61q-12 0 -12 12q0 19 11 57.5t21 67.5l11 29 q0 4 -4 4q-10 0 -65.5 -41t-116 -82t-84.5 -41q-35 3 -35 62zM41 61q0 -12 12 -12q9 0 27 8.5t41.5 23.5t47 31.5t51.5 37.5t48 36.5t43 33t29 22.5q35 27 135 141.5t100 132.5q0 8 -16 8q-71 0 -164.5 -53.5t-170 -127t-130 -153t-53.5 -129.5zM473 664q0 29 31 57.5 t59 28.5q14 0 25.5 -12t11.5 -25q0 -20 -29 -52t-69 -32q-13 0 -21 10.5t-8 24.5zM637 664q0 29 31 57.5t59 28.5q14 0 25.5 -12t11.5 -25q0 -20 -29 -52t-69 -32q-13 0 -21 10.5t-8 24.5z" />
<glyph unicode="&#xe5;" horiz-adv-x="604" d="M-8 66q0 63 31 131.5t90.5 132.5t138 115.5t183 82.5t216.5 31q10 0 17.5 -7t7.5 -15q0 -18 -96 -126t-192.5 -223.5t-96.5 -150.5q0 -8 8 -8q16 0 108 53.5t175 107.5l84 54l2 -27q-37 -25 -94 -61t-166.5 -97t-141.5 -61q-12 0 -12 12q0 19 11 57.5t21 67.5l11 29 q0 4 -4 4q-10 0 -65.5 -41t-116 -82t-84.5 -41q-35 3 -35 62zM41 61q0 -12 12 -12q9 0 27 8.5t41.5 23.5t47 31.5t51.5 37.5t48 36.5t43 33t29 22.5q35 27 135 141.5t100 132.5q0 8 -16 8q-71 0 -164.5 -53.5t-170 -127t-130 -153t-53.5 -129.5zM530 655q0 50 54 100t102 50 q27 0 44.5 -19.5t17.5 -44.5q0 -37 -49 -91t-119 -54q-22 0 -36 18t-14 41zM573 643q0 -25 19 -25q42 0 77.5 45t35.5 85q0 36 -33 36t-66 -51t-33 -90z" />
<glyph unicode="&#xe6;" horiz-adv-x="765" d="M0 66q0 63 31 131.5t90.5 132.5t138 115.5t183 82.5t216.5 31q10 0 17.5 -7t7.5 -15q0 -14 -41 -62q67 37 128 59.5t91 22.5q17 0 32 -8.5t15 -22.5q0 -40 -57.5 -93.5t-137 -100t-157 -83t-125.5 -50.5q-70 -99 -70 -156q0 -12 6 -19.5t15 -7.5q25 0 110.5 33.5 t141.5 67.5l201 127l2 -27q-93 -62 -191 -119q-64 -38 -149 -70t-121 -32q-58 0 -58 72t35 137q-23 -9 -156.5 -105.5t-162.5 -95.5q-35 3 -35 62zM49 61q0 -12 12 -12q9 0 27 8.5t41.5 23.5t47 31.5t51.5 37.5t48 36.5t43 33t29 22.5q35 27 135.5 141.5t100.5 132.5 q0 8 -17 8q-71 0 -164.5 -53.5t-170 -127t-130 -153t-53.5 -129.5zM453 225q67 22 160 86t158 127.5t65 87.5q0 6 -9 6q-55 0 -170.5 -96.5t-203.5 -210.5z" />
<glyph unicode="&#xe7;" horiz-adv-x="415" d="M-123 -199q0 9 8 9t13 -5q25 -22 63 -22q30 0 60 14t49.5 36.5t19.5 45.5t-22.5 38.5t-67.5 16.5l35 62q-35 5 -35 88q0 62 51.5 146t128 157.5t172 124.5t174.5 51q16 0 28.5 -7.5t12.5 -25.5q0 -22 -21.5 -56t-50 -63.5t-59.5 -51t-49 -21.5q-22 0 -22 22q0 13 10 32.5 t20 19.5q4 0 9 -4t7 -7l3 -4q2 2 6.5 5.5t16 13.5t22.5 20t24 23.5t22.5 25.5t16 24t6.5 21q0 7 -10 7q-49 0 -130.5 -57t-156.5 -134.5t-130.5 -163.5t-55.5 -139q0 -18 18 -18q86 0 411 212l4.5 3t3.5 2t3 2l2 -27q-5 -3 -37.5 -24t-50 -32t-54 -33.5t-61 -36.5 t-59.5 -32.5t-61 -29.5t-53.5 -20t-47.5 -11l-28 -47q104 -3 104 -53q0 -43 -62.5 -86t-125.5 -43q-43 0 -70 24q-4 4 -4 8z" />
<glyph unicode="&#xe8;" horiz-adv-x="446" d="M0 68q0 79 46.5 157.5t115 136t145 103t140 69t96.5 23.5q17 0 32 -8.5t15 -22.5q0 -40 -57.5 -93.5t-137 -100t-157 -83t-125.5 -50.5q-70 -99 -70 -156q0 -27 20 -27q25 0 110.5 33.5t141.5 67.5l201 127l2 -27q-92 -62 -190 -119q-64 -38 -149.5 -70t-121.5 -32 q-57 0 -57 72zM133 225q67 22 160 86t158 127.5t65 87.5q0 6 -8 6q-55 0 -171 -96.5t-204 -210.5zM358 764q0 22 25 22t35 -10q180 -143 192 -149q15 -9 15 -13t-11 -4q-8 0 -70 27t-124 65.5t-62 61.5z" />
<glyph unicode="&#xe9;" horiz-adv-x="446" d="M0 68q0 79 46.5 157.5t115 136t145 103t140 69t96.5 23.5q17 0 32 -8.5t15 -22.5q0 -40 -57.5 -93.5t-137 -100t-157 -83t-125.5 -50.5q-70 -99 -70 -156q0 -27 20 -27q25 0 110.5 33.5t141.5 67.5l201 127l2 -27q-92 -62 -190 -119q-64 -38 -149.5 -70t-121.5 -32 q-57 0 -57 72zM133 225q67 22 160 86t158 127.5t65 87.5q0 6 -8 6q-55 0 -171 -96.5t-204 -210.5zM432 627q0 7 14 12q15 5 46 23t83 47.5t101 54.5q27 10 43 10q24 0 24 -29q0 -28 -141 -75t-162 -47q-8 0 -8 4z" />
<glyph unicode="&#xea;" horiz-adv-x="446" d="M0 68q0 79 46.5 157.5t115 136t145 103t140 69t96.5 23.5q17 0 32 -8.5t15 -22.5q0 -40 -57.5 -93.5t-137 -100t-157 -83t-125.5 -50.5q-70 -99 -70 -156q0 -27 20 -27q25 0 110.5 33.5t141.5 67.5l201 127l2 -27q-92 -62 -190 -119q-64 -38 -149.5 -70t-121.5 -32 q-57 0 -57 72zM133 225q67 22 160 86t158 127.5t65 87.5q0 6 -8 6q-55 0 -171 -96.5t-204 -210.5zM297 608q0 5 7 10.5t24 13t18 7.5q18 9 82.5 47t119.5 68t68 30q17 0 21 -18q4 -20 8.5 -51t7.5 -42.5t11 -30t22 -38.5l2 -4q0 -6 -12 -6q-20 0 -43 37t-35 78l-65 -29 q-65 -28 -135.5 -56t-84.5 -28q-7 0 -11 3t-4 6z" />
<glyph unicode="&#xeb;" horiz-adv-x="446" d="M0 68q0 79 46.5 157.5t115 136t145 103t140 69t96.5 23.5q17 0 32 -8.5t15 -22.5q0 -40 -57.5 -93.5t-137 -100t-157 -83t-125.5 -50.5q-70 -99 -70 -156q0 -27 20 -27q25 0 110.5 33.5t141.5 67.5l201 127l2 -27q-92 -62 -190 -119q-64 -38 -149.5 -70t-121.5 -32 q-57 0 -57 72zM133 225q67 22 160 86t158 127.5t65 87.5q0 6 -8 6q-55 0 -171 -96.5t-204 -210.5zM414 657q0 29 31 57.5t59 28.5q14 0 25.5 -11.5t11.5 -24.5q0 -20 -29.5 -52t-69.5 -32q-13 0 -20.5 10t-7.5 24zM578 657q0 29 31 57.5t59 28.5q14 0 25.5 -11.5t11.5 -24.5 q0 -20 -29.5 -52t-69.5 -32q-13 0 -20.5 10t-7.5 24z" />
<glyph unicode="&#xec;" horiz-adv-x="303" d="M-53 31q0 48 124 214t263 308q6 7 14 11t12 4l5 1q63 -1 63 -14q0 -7 -12 -23q-82 -82 -221 -241.5t-195 -241.5q-6 -8 -6 -14q0 -8 10 -8q16 0 108 54.5t176 108.5l83 54l2 -27q-37 -25 -94 -61t-166.5 -97t-141.5 -61q-24 0 -24 33zM231 768q0 23 25 23q24 0 35 -11 q180 -143 192 -149q15 -9 15 -13t-11 -4q-8 0 -70 27t-124 65.5t-62 61.5z" />
<glyph unicode="&#xed;" horiz-adv-x="303" d="M-53 31q0 48 124 214t263 308q6 7 14 11t12 4l5 1q63 -1 63 -14q0 -7 -12 -23q-82 -82 -221 -241.5t-195 -241.5q-6 -8 -6 -14q0 -8 10 -8q16 0 108 54.5t176 108.5l83 54l2 -27q-37 -25 -94 -61t-166.5 -97t-141.5 -61q-24 0 -24 33zM336 639q0 7 14 12q15 5 46 23 t83 47.5t101 54.5q27 10 43 10q24 0 24 -28t-141 -75.5t-162 -47.5q-8 0 -8 4z" />
<glyph unicode="&#xee;" horiz-adv-x="303" d="M-53 31q0 48 124 214t263 308q6 7 14 11t12 4l5 1q63 -1 63 -14q0 -7 -12 -23q-82 -82 -221 -241.5t-195 -241.5q-6 -8 -6 -14q0 -8 10 -8q16 0 108 54.5t176 108.5l83 54l2 -27q-37 -25 -94 -61t-166.5 -97t-141.5 -61q-24 0 -24 33zM188 629q0 5 8 10.5t23.5 12 t18.5 7.5q18 9 82.5 47t119.5 68.5t68 30.5q16 0 20 -19q3 -18 7 -42.5t6 -35.5t7 -26t12 -28t18 -29l2 -4q0 -7 -13 -7q-20 0 -43 37t-35 78l-65 -29q-65 -28 -135 -56t-84 -28q-7 0 -11.5 3t-5.5 7v3z" />
<glyph unicode="&#xef;" horiz-adv-x="303" d="M-53 31q0 48 124 214t263 308q6 7 14 11t12 4l5 1q63 -1 63 -14q0 -7 -12 -23q-82 -82 -221 -241.5t-195 -241.5q-6 -8 -6 -14q0 -8 10 -8q16 0 108 54.5t176 108.5l83 54l2 -27q-37 -25 -94 -61t-166.5 -97t-141.5 -61q-24 0 -24 33zM305 678q0 29 31 57.5t59 28.5 q14 0 25.5 -12t11.5 -25q0 -20 -29 -52t-69 -32q-13 0 -21 10.5t-8 24.5zM469 678q0 29 31 57.5t59 28.5q14 0 25.5 -12t11.5 -25q0 -20 -29 -52t-69 -32q-13 0 -21 10.5t-8 24.5z" />
<glyph unicode="&#xf0;" horiz-adv-x="690" d="M0 45q0 73 36 142.5t94.5 123t131 99t146.5 75t140.5 46t113.5 16.5q100 109 227 256h-127q-14 0 -14 14q0 18 11.5 28.5t24.5 10.5q121 -4 148 -4q247 283 373 446q26 34 50 48.5t56 15.5q19 0 19 -16q0 -6 -20 -32t-67 -81.5t-87 -101.5t-121 -138t-127 -145l122 -8 q52 0 52 -19t-60 -22q-3 0 -155 4q-291 -333 -459 -537.5t-168 -245.5q0 -8 8 -8q12 0 83.5 35t129.5 70l201 127l2 -27q-95 -64 -193 -121q-68 -40 -141.5 -74t-97.5 -34q-25 0 -25 28q0 27 13 55t39.5 70.5t41.5 73.5q1 2 2 5t2 4.5t1 2.5l-3 2q-35 -25 -88 -62.5 t-156.5 -100t-135.5 -62.5q-23 0 -23 41zM41 45q0 -10 8 -10q31 0 142 69t244 184t198 216q0 14 -25 14q-42 0 -137 -53.5t-190 -126.5t-167.5 -156.5t-72.5 -136.5z" />
<glyph unicode="&#xf1;" horiz-adv-x="671" d="M-68 6q3 4 50 53.5t103.5 112.5t96.5 113q-50 -29 -137 -84l-6 24l67 43q43 28 78 52.5t62.5 47.5t45.5 38.5t37 37.5t27.5 32t26 33.5t23.5 31.5q24 -8 24 -49q-40 -59 -109.5 -142.5t-115 -138t-45.5 -66.5q0 -4 2 -4q4 0 10 6q48 37 172.5 123t228 156.5t109.5 75.5 q5 3 13.5 9t12 8.5t9.5 6.5t10 5.5t9.5 2.5t11.5 1q18 0 18 -31q0 -49 -61.5 -128.5t-135 -147.5t-135 -127t-61.5 -72q0 -2 2 -2q16 0 107.5 54.5t175.5 108.5l83 54l2 -27q-37 -25 -93.5 -61t-166 -97t-141.5 -61q-12 0 -12 12q0 48 39 108.5t95 114.5t111.5 103.5 t94.5 89.5t39 59q0 4 -4 4l-5 -2q-7 -4 -54.5 -35t-127 -84.5t-145.5 -99.5q-49 -34 -104.5 -73t-91.5 -65.5t-67 -49t-32 -23.5q-8 -6 -25.5 -25t-33 -28.5t-33.5 -9.5q-7 0 -16.5 0.5t-15 0.5t-11.5 1t-8.5 3.5t-2.5 6.5zM469 637q0 6 8 14q45 45 92 45q29 0 77.5 -25.5 t72.5 -25.5q35 0 72 43q2 4 8 4q4 0 7 -6t3 -12q0 -4 -2 -6q-54 -64 -119 -64q-33 0 -83.5 22.5t-69.5 22.5q-23 0 -41 -18q-2 -2 -11 -2q-14 0 -14 8z" />
<glyph unicode="&#xf2;" horiz-adv-x="475" d="M-12 61q0 78 54.5 164t130 149t155 104.5t131.5 41.5q57 0 57 -51q0 -146 -156 -291q12 -4 25 -4q57 0 166 72l10 -21q-131 -88 -199 -88q-26 0 -38 10q-81 -64 -168.5 -105.5t-128.5 -41.5q-39 0 -39 61zM37 45q0 -12 14 -12q37 0 106.5 46.5t145.5 117.5v10 q0 63 63 156t113 120q-6 6 -16 6q-46 0 -149 -82t-190 -190.5t-87 -171.5zM328 719q0 22 24 22q25 0 35 -10q181 -143 193 -149q14 -8 14 -13q0 -4 -10 -4q-8 0 -70 27t-124 65.5t-62 61.5zM340 233q65 67 106 128.5t41 99.5v2q-40 -20 -90 -97.5t-57 -132.5z" />
<glyph unicode="&#xf3;" horiz-adv-x="475" d="M-12 61q0 78 54.5 164t130 149t155 104.5t131.5 41.5q57 0 57 -51q0 -146 -156 -291q12 -4 25 -4q57 0 166 72l10 -21q-131 -88 -199 -88q-26 0 -38 10q-81 -64 -168.5 -105.5t-128.5 -41.5q-39 0 -39 61zM37 45q0 -12 14 -12q37 0 106.5 46.5t145.5 117.5v10 q0 63 63 156t113 120q-6 6 -16 6q-46 0 -149 -82t-190 -190.5t-87 -171.5zM340 233q65 67 106 128.5t41 99.5v2q-40 -20 -90 -97.5t-57 -132.5zM442 590q0 7 15 12t46 23t82.5 47.5t100.5 54.5q27 10 43 10q25 0 25 -28t-141 -75.5t-162 -47.5q-9 0 -9 4z" />
<glyph unicode="&#xf4;" horiz-adv-x="475" d="M-12 61q0 78 54.5 164t130 149t155 104.5t131.5 41.5q57 0 57 -51q0 -146 -156 -291q12 -4 25 -4q57 0 166 72l10 -21q-131 -88 -199 -88q-26 0 -38 10q-81 -64 -168.5 -105.5t-128.5 -41.5q-39 0 -39 61zM37 45q0 -12 14 -12q37 0 106.5 46.5t145.5 117.5v10 q0 63 63 156t113 120q-6 6 -16 6q-46 0 -149 -82t-190 -190.5t-87 -171.5zM260 580q0 5 7.5 10.5t23.5 12t18 7.5q18 9 83 47t120 68.5t68 30.5q16 0 20 -19q4 -20 8.5 -51t7.5 -42.5t11 -30t22 -38.5l2 -4q0 -6 -12 -6q-20 0 -43 37t-35 78l-65 -28q-65 -28 -135.5 -56.5 t-84.5 -28.5q-7 0 -11 3.5t-5 6.5v3zM340 233q65 67 106 128.5t41 99.5v2q-40 -20 -90 -97.5t-57 -132.5z" />
<glyph unicode="&#xf5;" horiz-adv-x="475" d="M-12 61q0 78 54.5 164t130 149t155 104.5t131.5 41.5q57 0 57 -51q0 -146 -156 -291q12 -4 25 -4q57 0 166 72l10 -21q-131 -88 -199 -88q-26 0 -38 10q-81 -64 -168.5 -105.5t-128.5 -41.5q-39 0 -39 61zM37 45q0 -12 14 -12q37 0 106.5 46.5t145.5 117.5v10 q0 63 63 156t113 120q-6 6 -16 6q-46 0 -149 -82t-190 -190.5t-87 -171.5zM313 633q0 5 9 14q45 45 92 45q30 0 78 -25.5t71 -25.5q35 0 72 43q2 4 8 4q10 0 10 -18q0 -4 -2 -6q-54 -64 -119 -64q-33 0 -83.5 22.5t-69.5 22.5q-23 0 -41 -18q-2 -2 -10 -2q-15 0 -15 8z M340 233q65 67 106 128.5t41 99.5v2q-40 -20 -90 -97.5t-57 -132.5z" />
<glyph unicode="&#xf6;" horiz-adv-x="475" d="M-12 61q0 78 54.5 164t130 149t155 104.5t131.5 41.5q57 0 57 -51q0 -146 -156 -291q12 -4 25 -4q57 0 166 72l10 -21q-131 -88 -199 -88q-26 0 -38 10q-81 -64 -168.5 -105.5t-128.5 -41.5q-39 0 -39 61zM37 45q0 -12 14 -12q37 0 106.5 46.5t145.5 117.5v10 q0 63 63 156t113 120q-6 6 -16 6q-46 0 -149 -82t-190 -190.5t-87 -171.5zM340 233q65 67 106 128.5t41 99.5v2q-40 -20 -90 -97.5t-57 -132.5zM383 623q0 29 31 57.5t59 28.5q14 0 25.5 -12t11.5 -25q0 -20 -29 -52t-69 -32q-13 0 -21 10.5t-8 24.5zM547 623q0 29 31 57.5 t59 28.5q14 0 25.5 -12t11.5 -25q0 -20 -29.5 -52t-69.5 -32q-13 0 -20.5 10.5t-7.5 24.5z" />
<glyph unicode="&#xf7;" horiz-adv-x="819" d="M221 492q0 16 27 20q1 0 10.5 0.5t26 1t32.5 0.5q165 7 254 12l191 13q17 0 20 -13q0 -19 -14 -30t-31 -11q-95 -6 -268 -6l-221 2q-25 0 -27 11zM332 266q0 29 30 56.5t58 27.5q13 0 24 -12t11 -25q0 -18 -28 -49t-67 -31q-13 0 -20.5 10t-7.5 23zM508 668q0 29 30 56.5 t58 27.5q13 0 24 -12t11 -25q0 -18 -27.5 -49t-66.5 -31q-13 0 -21 10t-8 23z" />
<glyph unicode="&#xf8;" horiz-adv-x="475" d="M-49 -96q30 46 76 96q-39 0 -39 61q0 71 45.5 149.5t112.5 139.5t140.5 106t131.5 58q70 100 92 139q15 27 29 27t14 -33q0 -8 -84 -127q47 -6 47 -51q0 -146 -156 -291q12 -4 25 -4q57 0 166 72l10 -21q-131 -88 -199 -88q-26 0 -38 10q-119 -97 -250 -139l-90 -106 q-15 -15 -25 -15q-8 0 -8 17zM37 45q0 -12 14 -12h2q165 196 322 420q-109 -71 -223.5 -202t-114.5 -206zM109 49q68 35 194 148v10q0 63 63 156t113 120q-6 6 -16 6q-7 0 -19 -4q-184 -249 -335 -436zM340 233q65 67 106 128.5t41 99.5v2q-40 -20 -90 -97.5t-57 -132.5z " />
<glyph unicode="&#xf9;" horiz-adv-x="712" d="M41 225l70 43q76 49 122.5 82t77.5 64t43 46.5t39 53.5q15 21 33 21q7 0 15.5 -7.5t12.5 -15.5l5 -8q0 -28 -92.5 -135.5t-185.5 -210.5t-93 -119q0 -4 6 -4q19 0 150 83.5t217 153.5q78 63 152.5 132.5t103.5 101.5q51 47 86 47q43 -4 43 -12l-2 -4 q-89 -83 -262.5 -277.5t-173.5 -228.5q0 -8 8 -8q24 0 368 221l2 -25q-358 -233 -419 -233q-19 0 -19 18q0 22 50 119t73 123l-8 -3l-25 -16q-1 -1 -21 -15t-40.5 -28t-52 -35.5t-59.5 -40t-60.5 -38t-57.5 -33t-46.5 -22.5t-32.5 -9q-25 0 -25 25q0 31 22.5 75t42 70t59 73 t40.5 48l-160 -94zM455 768q0 23 24 23t35 -11q181 -143 193 -149q14 -8 14 -13q0 -4 -10 -4q-8 0 -70 27t-124 65.5t-62 61.5z" />
<glyph unicode="&#xfa;" horiz-adv-x="712" d="M41 225l70 43q76 49 122.5 82t77.5 64t43 46.5t39 53.5q15 21 33 21q7 0 15.5 -7.5t12.5 -15.5l5 -8q0 -28 -92.5 -135.5t-185.5 -210.5t-93 -119q0 -4 6 -4q19 0 150 83.5t217 153.5q78 63 152.5 132.5t103.5 101.5q51 47 86 47q43 -4 43 -12l-2 -4 q-89 -83 -262.5 -277.5t-173.5 -228.5q0 -8 8 -8q24 0 368 221l2 -25q-358 -233 -419 -233q-19 0 -19 18q0 22 50 119t73 123l-8 -3l-25 -16q-1 -1 -21 -15t-40.5 -28t-52 -35.5t-59.5 -40t-60.5 -38t-57.5 -33t-46.5 -22.5t-32.5 -9q-25 0 -25 25q0 31 22.5 75t42 70t59 73 t40.5 48l-160 -94zM586 612q0 8 14 13q15 5 46 23t82.5 47.5t100.5 54.5q27 10 43 10q25 0 25 -29q0 -28 -141 -75.5t-162 -47.5q-8 0 -8 4z" />
<glyph unicode="&#xfb;" horiz-adv-x="712" d="M41 225l70 43q76 49 122.5 82t77.5 64t43 46.5t39 53.5q15 21 33 21q7 0 15.5 -7.5t12.5 -15.5l5 -8q0 -28 -92.5 -135.5t-185.5 -210.5t-93 -119q0 -4 6 -4q19 0 150 83.5t217 153.5q78 63 152.5 132.5t103.5 101.5q51 47 86 47q43 -4 43 -12l-2 -4 q-89 -83 -262.5 -277.5t-173.5 -228.5q0 -8 8 -8q24 0 368 221l2 -25q-358 -233 -419 -233q-19 0 -19 18q0 22 50 119t73 123l-8 -3l-25 -16q-1 -1 -21 -15t-40.5 -28t-52 -35.5t-59.5 -40t-60.5 -38t-57.5 -33t-46.5 -22.5t-32.5 -9q-25 0 -25 25q0 31 22.5 75t42 70t59 73 t40.5 48l-160 -94zM440 629q0 5 7.5 10.5t23.5 12t18 7.5q18 9 83 47t120 68.5t68 30.5q16 0 20 -19q4 -20 9 -51t7.5 -42t10.5 -29.5t22 -38.5l2 -4q0 -7 -12 -7q-20 0 -43 37t-35 78l-65 -29q-65 -28 -135 -56t-84 -28q-7 0 -11.5 3t-5.5 7v3z" />
<glyph unicode="&#xfc;" horiz-adv-x="712" d="M41 225l70 43q76 49 122.5 82t77.5 64t43 46.5t39 53.5q15 21 33 21q7 0 15.5 -7.5t12.5 -15.5l5 -8q0 -28 -92.5 -135.5t-185.5 -210.5t-93 -119q0 -4 6 -4q19 0 150 83.5t217 153.5q78 63 152.5 132.5t103.5 101.5q51 47 86 47q43 -4 43 -12l-2 -4 q-89 -83 -262.5 -277.5t-173.5 -228.5q0 -8 8 -8q24 0 368 221l2 -25q-358 -233 -419 -233q-19 0 -19 18q0 22 50 119t73 123l-8 -3l-25 -16q-1 -1 -21 -15t-40.5 -28t-52 -35.5t-59.5 -40t-60.5 -38t-57.5 -33t-46.5 -22.5t-32.5 -9q-25 0 -25 25q0 31 22.5 75t42 70t59 73 t40.5 48l-160 -94zM526 662q0 29 31 57.5t59 28.5q14 0 25.5 -12t11.5 -25q0 -20 -29 -52t-69 -32q-13 0 -21 10.5t-8 24.5zM690 662q0 29 31 57.5t59 28.5q14 0 25.5 -12t11.5 -25q0 -20 -29 -52t-69 -32q-13 0 -21 10.5t-8 24.5z" />
<glyph unicode="&#xfd;" horiz-adv-x="702" d="M-391 -723q0 42 20 90t49.5 91t78.5 95t91.5 91t104.5 89.5t102 81t99.5 75t81.5 61.5q19 23 272 321q2 6 -70 -45q-1 -1 -21 -15t-40.5 -28t-52 -35.5t-59.5 -40t-60.5 -38t-57.5 -33t-46.5 -22.5t-32.5 -9q-25 0 -25 25q0 31 24.5 77.5t47 76t64 78.5t42.5 50 l-174 -110l-6 22l78 54q147 100 189.5 137.5t84.5 97.5q15 21 33 21q7 0 15.5 -7.5t12.5 -15.5l5 -8q0 -28 -92.5 -135.5t-185.5 -210.5t-93 -119q0 -4 6 -4q19 0 150 83.5t217 153.5q53 43 100.5 92.5t84.5 95t38 46.5q51 47 86 47q43 -4 43 -12l-2 -4q-65 -74 -228 -273 t-186 -237q16 0 110 53.5t179 107.5l86 54l2 -25q-131 -90 -246 -151l-186 -97q-105 -141 -259 -313t-279 -290t-156 -118q-39 0 -39 29zM-338 -692q0 -13 6 -13q13 0 139 144t245 288l120 144q0 4 -4 4q-506 -369 -506 -567zM543 590q0 7 14 12q15 5 46 23t82.5 47.5 t100.5 54.5q27 10 43 10q25 0 25 -28t-141 -75.5t-162 -47.5q-8 0 -8 4z" />
<glyph unicode="&#xfe;" d="M-618 -557q0 11 22 39l1489 1728q10 13 33 13q12 0 27.5 -5t15.5 -12q0 -5 -11 -16l-813 -942q-10 -12 -10 -17q0 -4 2 -4q4 0 10 6q67 57 265.5 185.5t253.5 128.5q22 0 22 -29q0 -55 -60 -137.5t-131.5 -150.5t-131.5 -124.5t-60 -64.5q0 -12 8 -12q115 36 201 88 l201 127l2 -27q-93 -62 -191 -119q-64 -38 -149 -70t-121 -32q-25 0 -25 18q0 28 65 104.5t143 153t143 146t65 86.5q0 4 -6 4q-46 0 -204 -101t-224 -155q-40 -32 -83 -69.5t-70.5 -63.5t-53.5 -50.5t-29 -27.5q-29 -29 -244 -278t-249 -295q-30 -41 -66 -41q-36 2 -36 16z " />
<glyph unicode="&#xff;" horiz-adv-x="702" d="M-391 -723q0 42 20 90t49.5 91t78.5 95t91.5 91t104.5 89.5t102 81t99.5 75t81.5 61.5q19 23 272 321q2 6 -70 -45q-1 -1 -21 -15t-40.5 -28t-52 -35.5t-59.5 -40t-60.5 -38t-57.5 -33t-46.5 -22.5t-32.5 -9q-25 0 -25 25q0 31 24.5 77.5t47 76t64 78.5t42.5 50 l-174 -110l-6 22l78 54q147 100 189.5 137.5t84.5 97.5q15 21 33 21q7 0 15.5 -7.5t12.5 -15.5l5 -8q0 -28 -92.5 -135.5t-185.5 -210.5t-93 -119q0 -4 6 -4q19 0 150 83.5t217 153.5q53 43 100.5 92.5t84.5 95t38 46.5q51 47 86 47q43 -4 43 -12l-2 -4q-65 -74 -228 -273 t-186 -237q16 0 110 53.5t179 107.5l86 54l2 -25q-131 -90 -246 -151l-186 -97q-105 -141 -259 -313t-279 -290t-156 -118q-39 0 -39 29zM-338 -692q0 -13 6 -13q13 0 139 144t245 288l120 144q0 4 -4 4q-506 -369 -506 -567zM504 645q0 29 31 57.5t59 28.5q14 0 25.5 -12 t11.5 -25q0 -20 -29.5 -52t-69.5 -32q-13 0 -20.5 10.5t-7.5 24.5zM668 645q0 29 31 57.5t59 28.5q14 0 25.5 -12t11.5 -25q0 -20 -29.5 -52t-69.5 -32q-13 0 -20.5 10.5t-7.5 24.5z" />
<glyph unicode="&#x152;" horiz-adv-x="1372" d="M-35 133q0 78 27 178.5t76.5 212.5t123.5 228.5t164 226.5t203.5 207t235.5 170t266.5 115t290.5 42q65 0 65 -59q0 -52 -49 -133q159 117 338.5 187.5t355.5 70.5q90 0 90 -51q0 -58 -100 -157t-225 -175t-191 -76q-13 0 -20.5 9.5t-7.5 21.5q0 32 43 68t57 36 q8 0 8 -10q0 -8 -19.5 -21t-19.5 -22q0 -8 9 -8q36 0 141 70t197 155t92 121q0 21 -31 21q-115 0 -243.5 -45t-240.5 -115.5t-216 -158t-178.5 -174t-118.5 -164t-44 -126.5q0 -63 74 -63q49 0 104 13.5t99.5 32t94 45t78.5 45t61.5 40.5t35.5 24q12 9 17 9q6 0 6 -17v-6 q0 -7 -53 -43t-105 -68l-53 -32q-139 -83 -288 -229t-247 -291t-98 -226q0 -71 84 -71q132 0 555 284l137 86q13 8 31 8q16 0 16 -6q0 -3 -6 -6l-147 -90q-25 -16 -97.5 -65t-109.5 -73t-102 -63t-106.5 -58.5t-89.5 -35.5t-83 -16q-68 0 -102.5 36.5t-34.5 100.5 q0 76 45 178q-114 -95 -300 -187.5t-317 -92.5q-178 0 -178 192zM39 88q0 -119 102 -119q92 0 254.5 94t307.5 210t247 219q141 144 297 219q-78 -19 -125 -19q-145 0 -145 113q0 90 96 225q-78 -43 -147 -43q-37 7 -37 25q0 14 25.5 44.5t35.5 30.5q13 0 13 -10 q0 -5 -8.5 -13t-8.5 -15q0 -5 8 -5q42 0 117 51t144.5 118.5t121.5 138t52 106.5q0 31 -37 31q-138 0 -275 -45.5t-252.5 -123t-223 -180t-192.5 -217.5t-155.5 -234.5t-117 -231t-72 -206.5t-25.5 -163z" />
<glyph unicode="&#x153;" horiz-adv-x="755" d="M-12 61q0 78 54.5 164t130 149t155 104.5t131.5 41.5q57 0 57 -51q0 -41 -12 -82q92 73 196.5 121.5t151.5 48.5q17 0 32 -8.5t15 -22.5q0 -40 -57.5 -93.5t-137 -100t-157 -83t-125.5 -50.5q-70 -99 -70 -156q0 -12 6 -19.5t15 -7.5q25 0 110.5 33.5t141.5 67.5l200 127 l2 -27q-92 -62 -190 -119q-64 -38 -149 -70t-121 -32q-58 0 -58 72q0 35 10 77q-80 -63 -166 -104t-126 -41q-39 0 -39 61zM37 45q0 -12 14 -12q43 0 128.5 61t166.5 146q-6 15 -6 39q0 52 35.5 107.5t105.5 94.5q-5 8 -18 8q-46 0 -149 -82t-190 -190.5t-87 -171.5z M367 260q120 134 120 201q-36 -23 -78 -88.5t-42 -108.5v-4zM442 225q67 22 160 86t158 127.5t65 87.5q0 6 -8 6q-55 0 -171 -96.5t-204 -210.5z" />
<glyph unicode="&#x178;" horiz-adv-x="1570" d="M2 -981q0 85 64.5 193.5t167 216t246.5 228.5t285 224.5t302 210.5q402 508 664 873q-67 -46 -144 -94.5t-192.5 -116.5t-217 -111t-157.5 -43q-53 0 -53 55q0 51 44 143.5t88 163.5l44 72q0 4 -6 4q-20 -13 -56 -33.5t-142.5 -74t-208 -94t-234.5 -74t-240 -33.5 q-37 0 -37 23q0 34 59.5 61t86.5 27q14 0 14 -11q0 -4 -6 -9.5t-6 -8.5q0 -8 14 -8q109 0 234 32.5t224.5 78.5t183.5 92.5t131 79.5l46 32l24 26q25 26 59.5 62.5t79.5 82.5t86.5 88.5t80 79.5t59.5 54q67 56 101 56q12 0 23 -8.5t11 -18.5q0 -21 -78.5 -101.5t-188.5 -186 t-152 -154.5q-50 -55 -109.5 -130t-122.5 -175.5t-63 -147.5q0 -14 20 -14q57 0 150.5 39.5t179.5 90.5t189 121t154 108t99 75q172 229 244 307q59 66 111 110t79.5 59t42.5 15t25 -10t10 -22q0 -5 -14 -26t-56.5 -67t-101.5 -96q-17 -17 -206 -255t-230 -292 q-162 -222 -438 -565q304 193 479 289q12 6 18 6q11 0 11 -8q0 -13 -17 -23q-206 -103 -536 -321q-180 -222 -347.5 -415t-339 -375t-304.5 -288t-199 -106q-10 0 -20.5 13.5t-10.5 23.5zM82 -948q0 -6 4 -6q145 3 926 977q-184 -128 -340 -252t-294 -255t-217 -252 t-79 -212zM1860 1651q0 29 31 57.5t59 28.5q14 0 25.5 -12t11.5 -25q0 -20 -29.5 -52t-69.5 -32q-13 0 -20.5 10.5t-7.5 24.5zM2023 1651q0 29 31.5 57.5t59.5 28.5q14 0 25 -12t11 -25q0 -20 -29 -52t-69 -32q-13 0 -21 10.5t-8 24.5z" />
<glyph unicode="&#x2c6;" horiz-adv-x="1024" d="M238 629q0 5 7.5 10.5t23.5 12t18 7.5q18 9 82.5 47t119.5 68.5t68 30.5q17 0 21 -19q4 -20 9 -51t7.5 -42t10.5 -29.5t22 -38.5l2 -4q0 -7 -13 -7q-20 0 -42.5 37t-34.5 78l-65 -29q-65 -28 -135.5 -56t-84.5 -28q-7 0 -11 3t-5 7v3z" />
<glyph unicode="&#x2dc;" horiz-adv-x="1024" d="M377 682q0 6 8 14q45 45 92 45q29 0 78 -25.5t72 -25.5q34 0 71 43q2 4 9 4q10 0 10 -18q0 -4 -2 -6q-54 -64 -119 -64q-33 0 -84 22.5t-70 22.5q-23 0 -41 -18q-2 -2 -10 -2q-14 0 -14 8z" />
<glyph unicode="&#x2000;" horiz-adv-x="947" />
<glyph unicode="&#x2001;" horiz-adv-x="1894" />
<glyph unicode="&#x2002;" horiz-adv-x="947" />
<glyph unicode="&#x2003;" horiz-adv-x="1894" />
<glyph unicode="&#x2004;" horiz-adv-x="631" />
<glyph unicode="&#x2005;" horiz-adv-x="473" />
<glyph unicode="&#x2006;" horiz-adv-x="315" />
<glyph unicode="&#x2007;" horiz-adv-x="315" />
<glyph unicode="&#x2008;" horiz-adv-x="236" />
<glyph unicode="&#x2009;" horiz-adv-x="378" />
<glyph unicode="&#x200a;" horiz-adv-x="105" />
<glyph unicode="&#x2010;" horiz-adv-x="1024" d="M186 240q0 16 33 20q1 0 13.5 0.5t33 1t41.5 0.5q223 8 316 12l239 13q22 0 25 -13q0 -19 -17.5 -30t-38.5 -11q-120 -6 -335 -6l-277 2q-31 0 -33 11z" />
<glyph unicode="&#x2011;" horiz-adv-x="1024" d="M186 240q0 16 33 20q1 0 13.5 0.5t33 1t41.5 0.5q223 8 316 12l239 13q22 0 25 -13q0 -19 -17.5 -30t-38.5 -11q-120 -6 -335 -6l-277 2q-31 0 -33 11z" />
<glyph unicode="&#x2012;" horiz-adv-x="1024" d="M186 240q0 16 33 20q1 0 13.5 0.5t33 1t41.5 0.5q223 8 316 12l239 13q22 0 25 -13q0 -19 -17.5 -30t-38.5 -11q-120 -6 -335 -6l-277 2q-31 0 -33 11z" />
<glyph unicode="&#x2013;" horiz-adv-x="849" d="M215 240q0 16 23 20q2 0 11 0.5t23.5 1t28.5 0.5q157 8 227 12l174 13q17 0 17 -13q0 -19 -12.5 -30t-26.5 -11l-442 -4q-23 0 -23 11z" />
<glyph unicode="&#x2014;" horiz-adv-x="1353" d="M215 240q0 17 47 20q3 0 21 0.5t47 1t59 0.5q314 8 453 12l346 13q32 0 35 -13q0 -19 -25 -30t-53 -11l-883 -4q-45 0 -47 11z" />
<glyph unicode="&#x2018;" horiz-adv-x="483" d="M446 915q0 45 20.5 82t49 58t57.5 36t49 20l21 5q21 0 21 -8q0 -4 -15 -10q-25 -3 -83 -39t-58 -74q55 -7 55 -41q0 -33 -24.5 -57.5t-55.5 -24.5q-15 0 -26 15t-11 38z" />
<glyph unicode="&#x2019;" horiz-adv-x="573" d="M406 870q0 5 14 11q25 3 83 38.5t58 73.5q-55 7 -55 41q0 33 24.5 57.5t55.5 24.5q15 0 26 -15t11 -38q0 -45 -20.5 -82t-49.5 -58t-57.5 -36t-49.5 -20l-20 -5q-20 0 -20 8z" />
<glyph unicode="&#x201a;" horiz-adv-x="288" d="M-31 -139q0 4 15 10q25 3 83 39t58 74q-55 7 -55 41q0 33 24.5 57t55.5 24q15 0 25.5 -15t10.5 -38q0 -45 -20 -82t-49 -58t-58 -35.5t-49 -19.5l-20 -5q-21 0 -21 8z" />
<glyph unicode="&#x201c;" horiz-adv-x="647" d="M446 915q0 45 20.5 82t49 58t57.5 36t49 20l21 5q21 0 21 -8q0 -4 -15 -10q-25 -3 -83 -39t-58 -74q55 -7 55 -41q0 -33 -24.5 -57.5t-55.5 -24.5q-15 0 -26 15t-11 38zM610 915q0 45 20.5 82t49 58t57.5 36t49 20l21 5q20 0 20 -8q0 -4 -14 -10q-25 -3 -83 -39t-58 -74 q55 -7 55 -41q0 -33 -24.5 -57.5t-55.5 -24.5q-15 0 -26 15t-11 38z" />
<glyph unicode="&#x201d;" horiz-adv-x="737" d="M406 870q0 5 14 11q25 3 83 38.5t58 73.5q-55 7 -55 41q0 33 24.5 57.5t55.5 24.5q15 0 26 -15t11 -38q0 -45 -20.5 -82t-49.5 -58t-57.5 -36t-49.5 -20l-20 -5q-20 0 -20 8zM569 870q0 5 15 11q25 3 83 38.5t58 73.5q-55 7 -55 41q0 33 24.5 57.5t55.5 24.5 q15 0 25.5 -15t10.5 -38q0 -45 -20 -82t-49 -58t-58 -36t-49 -20l-20 -5q-21 0 -21 8z" />
<glyph unicode="&#x201e;" horiz-adv-x="452" d="M-31 -139q0 4 15 10q25 3 83 39t58 74q-55 7 -55 41q0 33 24.5 57t55.5 24q15 0 25.5 -15t10.5 -38q0 -45 -20 -82t-49 -58t-58 -35.5t-49 -19.5l-20 -5q-21 0 -21 8zM133 -139q0 4 14 10q25 3 83.5 39t58.5 74q-56 7 -56 41q0 33 24.5 57t55.5 24q15 0 26 -15t11 -38 q0 -45 -20 -82t-49 -58t-58 -35.5t-49 -19.5l-20 -5q-21 0 -21 8z" />
<glyph unicode="&#x2022;" horiz-adv-x="714" d="M313 211q0 59 64.5 118.5t124.5 59.5q31 0 52 -23.5t21 -52.5q0 -17 -14 -45t-38 -57.5t-64.5 -50.5t-85.5 -21q-26 0 -43 22t-17 50z" />
<glyph unicode="&#x2026;" horiz-adv-x="591" d="M66 20q0 29 29 56.5t57 27.5q14 0 24 -11.5t10 -24.5q0 -18 -27.5 -49t-66.5 -31q-26 0 -26 32zM223 20q0 29 30 56.5t58 27.5q13 0 23 -11.5t10 -24.5q0 -18 -26.5 -49t-65.5 -31q-13 0 -21 9.5t-8 22.5zM377 20q0 29 30 56.5t58 27.5q13 0 24 -12t11 -24 q0 -18 -27.5 -49t-66.5 -31q-13 0 -21 9.5t-8 22.5z" />
<glyph unicode="&#x202f;" horiz-adv-x="378" />
<glyph unicode="&#x2039;" horiz-adv-x="790" d="M203 272q0 7 3.5 13.5t17.5 15t36 12.5l361 54q12 0 12 -9q0 -7 -10 -10l-344 -51q-29 -6 -29 -18q0 -7 12 -13l307 -147q11 -7 11 -15q0 -7 -8 -12.5t-21 -5.5l-272 131q-8 4 -19 9t-17 8t-13.5 7t-11.5 7t-8 7t-5.5 8t-1.5 9z" />
<glyph unicode="&#x203a;" horiz-adv-x="790" d="M205 125q0 7 10 10l344 51q13 3 21 8.5t8 10.5t-13 12l-307 148q-10 7 -10 14t8 12.5t21 5.5l272 -131q8 -4 19 -9t17 -8t13.5 -7t11.5 -7t8 -7t5.5 -8t1.5 -9q0 -7 -3.5 -13.5t-17.5 -15t-36 -12.5l-361 -53q-12 0 -12 8z" />
<glyph unicode="&#x205f;" horiz-adv-x="473" />
<glyph unicode="&#x20ac;" horiz-adv-x="964" d="M59 475q0 17 14 26t29 9q60 0 97 -2q10 17 41 61h-107q-18 0 -18 15q0 16 14.5 25t28.5 9t53 -1t63 -1q74 94 167 172.5t207.5 143t254.5 101t289 36.5q135 0 135 -59q0 -47 -82 -116t-194 -120t-191 -53q-18 0 -33.5 7t-15.5 22q0 20 44 57t71 37q8 0 8 -8 q0 -6 -25.5 -30t-25.5 -34q0 -4 4 -4q40 1 137 44t181.5 101t84.5 93q0 38 -114 38q-154 0 -309.5 -62t-276.5 -155t-223 -213l235 -10q41 0 41 -10q0 -8 -23 -17.5t-45 -9.5q-9 0 -92 1t-153 1q-7 -9 -45 -63l268 -10q41 0 41 -11q0 -8 -24.5 -17t-49.5 -9q-10 0 -100 2 t-166 2q-125 -198 -125 -340q0 -69 35 -107.5t106 -38.5q205 0 510 191q11 8 27 8q12 0 12 -6q0 -5 -8 -10q-146 -96 -305 -158.5t-266 -62.5q-85 0 -127.5 51.5t-42.5 142.5q0 148 102 330h-94q-19 0 -19 12z" />
<glyph unicode="&#x2122;" horiz-adv-x="1566" d="M285 539q0 37 147 220t291 324q-43 3 -78 20t-54.5 35t-46.5 33t-55 15q-56 0 -103.5 -49t-47.5 -80q0 -10 8 -10q23 0 57 35.5t46 64.5q4 8 6 8q6 0 6 -4t-2 -6q-10 -28 -49.5 -70.5t-71.5 -42.5q-25 0 -25 21q0 42 62.5 100.5t140.5 58.5q27 0 111 -53t118 -53 q142 135 191 135q20 0 20 -14q0 -31 -61.5 -83.5t-130.5 -60.5q-126 -134 -267 -315.5t-141 -204.5q0 -4 4 -4q3 1 7.5 4t8.5 5l3 3q2 0 2 -4q0 -8 -29 -28.5t-39 -20.5q-7 0 -17.5 7t-10.5 14zM784 1108q55 8 106.5 50.5t51.5 64.5q0 6 -8 6q-32 0 -150 -121zM788 635 q0 11 69 96t151.5 184t151.5 201t69 144q0 26 -17 26q-53 0 -112.5 -35t-108 -87t-89 -109t-63 -105.5t-22.5 -72.5q0 -17 12 -17q28 0 89 45.5t108 90.5l47 46q0 2 4 2t4 -4v-2q-7 -8 -20 -20.5t-48.5 -45.5t-66.5 -58t-66.5 -45.5t-56.5 -20.5q-28 0 -28 37q0 33 21 84.5 t60.5 107.5t89 105.5t114 81.5t128.5 32q16 0 31.5 -11t15.5 -36q0 -106 -315 -477l6 4q70 63 226.5 201t187.5 166q2 1 6 5.5t9 7.5t11 3q11 0 11 -10q0 -24 -64 -117t-128 -177t-64 -87l2 -2q48 42 196.5 181.5t256 237t120.5 97.5q10 0 10 -12q0 -43 -170 -256 q-16 -20 -74 -89t-110 -132t-108 -134.5t-89.5 -124t-33.5 -71.5q0 -4 2 -4q4 0 23.5 9t45 24.5t39.5 29.5q1 1 2.5 -1.5t1.5 -4.5q0 -11 -52.5 -39t-63.5 -28q-8 0 -17.5 3.5t-9.5 8.5q0 40 50 122.5t131 182.5t139 167.5t116 131.5q23 25 90.5 108t67.5 89q0 2 -2 2 q-4 0 -304.5 -276.5t-383.5 -356.5q-8 -8 -21 -8q-22 0 -22 6q0 5 12 20q9 12 65 79.5t102.5 125t100.5 124.5t85.5 109t31.5 48l2 6q-97 -86 -307.5 -277t-255.5 -239q-9 0 -14 2.5t-6 4.5z" />
<glyph unicode="&#xe000;" horiz-adv-x="542" d="M0 0v543h543v-543h-543z" />
<glyph unicode="&#xfb01;" horiz-adv-x="712" d="M-539 -631q0 44 158 272.5t393 527.5t479.5 590t445.5 491t263 200q19 0 19 -16q0 -84 -115 -237.5t-279.5 -313t-316.5 -292t-256 -208.5l-131 -164q16 12 29 12q32 0 32 -43q0 -52 -43 -149q76 36 162 90l178 115q119 161 264 309q6 7 14 11t13 4l4 1q64 -1 64 -14 q0 -6 -13 -23q-82 -82 -220.5 -241.5t-194.5 -241.5q-7 -8 -7 -14q0 -8 11 -8q16 0 107.5 54.5t174.5 108.5l84 54l2 -27q-37 -25 -93.5 -61t-166 -97t-141.5 -61q-25 0 -25 33q0 37 84 159q-228 -143 -315 -178q-49 -102 -124.5 -215.5t-163.5 -216.5t-183.5 -170 t-169.5 -67q-23 0 -23 26zM-496 -621q0 -6 9 -6q54 0 131 62.5t155 161t147 202t124 201.5q-21 9 -21 49q0 64 43 135q-254 -318 -421 -544.5t-167 -260.5zM78 57q0 -21 6 -30q70 127 70 159q0 9 -4 9q-30 0 -51 -47.5t-21 -90.5zM332 481q124 90 319.5 277.5t355.5 379 t160 261.5q0 4 -6 4q-36 0 -271 -265t-558 -657zM887 717q0 29 31 57.5t59 28.5q14 0 25.5 -12t11.5 -25q0 -20 -29.5 -52t-69.5 -32q-13 0 -20.5 10.5t-7.5 24.5z" />
<glyph unicode="&#xfb02;" horiz-adv-x="780" d="M-539 -631q0 25 52 111.5t142 213t208 282.5t251.5 323.5t270 332.5t267.5 312.5t240 260.5t191 179t117 66q19 0 19 -16q0 -68 -77.5 -184t-192.5 -238.5t-251.5 -250t-251 -223.5t-194.5 -155l-131 -164q16 12 29 12q32 0 32 -43q0 -52 -43 -149q76 36 162 90l137 86 q53 102 152.5 233.5t215 258.5t243 251t239.5 217.5t203 151t133 57.5q18 0 18 -22q0 -50 -134.5 -205.5t-318.5 -332t-376.5 -344t-306.5 -247.5q-44 -63 -67 -110t-23 -76q0 -18 8 -18q84 0 301 135l123 80l2 -27q-8 -5 -39.5 -25.5t-52 -33.5t-58 -35.5t-65 -37.5 t-63.5 -33.5t-64 -29.5t-56 -18.5t-49 -7.5q-24 0 -24 39q0 55 39 141q-198 -126 -293 -164q-49 -102 -124.5 -215.5t-163.5 -216.5t-183.5 -170t-169.5 -67q-23 0 -23 26zM-496 -621q0 -6 9 -6q44 0 103.5 42t119.5 108.5t123.5 151.5t115.5 166.5t95 158.5q-21 9 -21 49 q0 29 12 66.5t31 68.5q-254 -318 -421 -544.5t-167 -260.5zM78 57q0 -21 6 -30q70 127 70 159q0 9 -4 9q-30 0 -51 -47.5t-21 -90.5zM332 481q72 52 178.5 147t219.5 208.5t211.5 224t162 203t63.5 135.5q0 4 -6 4q-36 0 -271 -265t-558 -657zM539 281q73 56 243.5 210 t351.5 328t318 327t137 195q0 5 -4 7q-29 0 -157.5 -113t-288 -272.5t-329.5 -351t-271 -330.5z" />
</font>
</defs>
</svg>
