<?xml version="1.0" standalone="no"?>
<!DOCTYPE svg PUBLIC "-//W3C//DTD SVG 1.1//EN" "http://www.w3.org/Graphics/SVG/1.1/DTD/svg11.dtd" >
<svg xmlns="http://www.w3.org/2000/svg">
<metadata></metadata>
<defs>
<font id="cicle_semi_italicsemi_italic" horiz-adv-x="596" >
<font-face units-per-em="1000" ascent="800" descent="-200" />
<missing-glyph horiz-adv-x="257" />
<glyph horiz-adv-x="1000" />
<glyph horiz-adv-x="1000" />
<glyph unicode="&#xd;" horiz-adv-x="1000" />
<glyph unicode=" "  horiz-adv-x="257" />
<glyph unicode="&#x09;" horiz-adv-x="257" />
<glyph unicode="&#xa0;" horiz-adv-x="257" />
<glyph unicode="!" horiz-adv-x="176" d="M54 21q3 13 13 21.5t23 8.5t19 -8.5t4 -20.5v-1q-2 -12 -12.5 -21t-22.5 -9q-13 0 -19.5 9t-4.5 21zM76 96l125 590h48l-125 -590h-48z" />
<glyph unicode="&#x22;" horiz-adv-x="217" d="M156 543l20 143h59l-6 -69l-61 -89zM229 543l20 143h59l-6 -69l-61 -89z" />
<glyph unicode="#" horiz-adv-x="714" d="M68 215l58 56h100q32 54 74 126h-194l57 56h168q21 35 60 101t51 86h58l-108 -187h218q8 14 110 187h58l-108 -187h118l-57 -56h-92q-8 -14 -23.5 -39.5t-28 -46.5t-23.5 -40h186l-59 -56h-160q-19 -34 -61 -107.5t-61 -107.5h-60l124 215h-220q-21 -39 -65 -114.5 t-58 -100.5h-59l124 215h-127zM286 271h219q9 16 34.5 59t38.5 67h-218z" />
<glyph unicode="$" horiz-adv-x="466" d="M49 90l51 35q15 -31 45 -54t67 -25l57 269q-73 16 -109.5 67.5t-22.5 119.5q15 69 74 119.5t137 64.5l10 45h54l-9 -42q101 -3 155 -82l-52 -35q-37 60 -114 65l-59 -276q73 -17 111.5 -68t24.5 -118q-15 -69 -76 -119.5t-138 -61.5l-12 -58h-54l12 56h-5 q-51 5 -89.5 31.5t-57.5 66.5zM195 506q-10 -45 14.5 -83t72.5 -51l55 260q-52 -12 -92 -47t-50 -79zM267 49q52 8 93 42t51 81q11 48 -14.5 86.5t-74.5 49.5z" />
<glyph unicode="&#x26;" horiz-adv-x="597" d="M78 190q26 122 198 193q4 2 9.5 4t9.5 4q-2 2 -8 14q-37 50 -45 81t-1 62q12 57 65.5 99.5t122.5 42.5q65 0 98.5 -39.5t21.5 -96.5q-18 -88 -158 -157l-17 -8q23 -36 61 -102t49 -85q2 2 13 19q30 40 51 87l59 -13q-49 -92 -90 -138q0 -2 -6 -16q13 -30 21 -42.5 t29 -32.5l-14 -65q-36 25 -67 76q-4 8 -5 9l-9 15q-6 -6 -14 -12q-98 -91 -207 -89q-89 0 -136.5 56t-30.5 134zM144 195q-12 -55 19.5 -100.5t91.5 -45.5q42 -1 91 24.5t84 65.5v-1q3 6 8 9q-25 41 -124 211l-12 -7q-140 -72 -158 -156zM303 556q-8 -41 19 -80l34 -53l9 5 q62 32 88.5 59.5t34.5 65.5q8 40 -12 67t-61 27q-38 0 -71 -26.5t-41 -64.5z" />
<glyph unicode="'" horiz-adv-x="121" d="M131 546l47 68l6 67l61 5l-7 -70l-96 -84z" />
<glyph unicode="(" horiz-adv-x="260" d="M102 288q27 130 83.5 241t120.5 167l11 -61q-47 -46 -89 -140t-66 -207q-27 -126 -21.5 -223.5t39.5 -138.5l-43 -53q-44 54 -54 164.5t19 250.5z" />
<glyph unicode=")" horiz-adv-x="246" d="M34 -74q51 41 98.5 139.5t74.5 222.5q24 114 21.5 207.5t-30.5 139.5l36 61q41 -56 50.5 -165.5t-17.5 -242.5q-29 -136 -87 -248.5t-124 -166.5z" />
<glyph unicode="*" horiz-adv-x="471" d="M172 525l12 54h108l-61 77l46 39l61 -77l23 109h54l-23 -109l93 77l31 -38l-93 -77h109l-12 -55h-110q9 -12 31 -38.5t31 -39.5l-46 -37l-62 77l-23 -110h-54l23 108q-35 -27 -93 -75l-31 37l94 78h-108z" />
<glyph unicode="+" horiz-adv-x="452" d="M107 266l12 54h147l31 147h54l-31 -147h148l-12 -54h-148l-31 -148h-54l31 148h-147z" />
<glyph unicode="," horiz-adv-x="173" d="M19 -54l52 63l15 67h60l-16 -72l-104 -75z" />
<glyph unicode="-" horiz-adv-x="421" d="M93 266l12 54h349l-12 -54h-349z" />
<glyph unicode="." horiz-adv-x="145" d="M36 0l16 76h76l-16 -76h-76z" />
<glyph unicode="/" horiz-adv-x="378" d="M37 0l396 686h58l-395 -686h-59z" />
<glyph unicode="0" horiz-adv-x="586" d="M111 341q31 144 127.5 246.5t200.5 102.5q105 0 157 -102t21 -247t-126 -247.5t-200 -102.5q-104 0 -157.5 103t-22.5 247zM166 341q-26 -123 14 -209t122 -86q83 0 159 86t102 209q26 122 -13.5 208t-122.5 86q-82 0 -158.5 -86t-102.5 -208z" />
<glyph unicode="1" horiz-adv-x="263" d="M150 578l153 108h50l-145 -686h-55l130 613q-30 -22 -103 -72z" />
<glyph unicode="2" horiz-adv-x="475" d="M52 0l10 50l353 319q51 46 63 106q15 67 -23.5 113.5t-107.5 46.5q-65 0 -128 -50l-31 39q90 66 171 66q91 0 142 -63t31 -152q-18 -85 -89 -145l-303 -276h303l-11 -54h-380z" />
<glyph unicode="3" horiz-adv-x="431" d="M32 65l46 38q43 -60 118 -60q64 0 119 41.5t68 100.5q10 48 -25.5 87.5t-90.5 50.5h-96l12 54h97q62 4 112 41.5t61 87.5q12 54 -26 92t-102 38q-83 0 -145 -57l-30 40q82 71 186 71q88 0 139.5 -54t35.5 -130q-10 -49 -48.5 -91t-91.5 -66q41 -26 59.5 -69.5t7.5 -94.5 q-17 -82 -91.5 -139t-162.5 -57q-100 0 -152 76z" />
<glyph unicode="4" horiz-adv-x="473" d="M85 247l13 50l309 391l41 -26l-284 -360h180l31 149h55l-31 -149h96l-12 -55h-96l-52 -247h-55l52 247h-247z" />
<glyph unicode="5" horiz-adv-x="504" d="M86 103l48 39q15 -41 47 -64.5t75 -23.5q70 0 131 57t78 138t-20 137t-107 56q-48 0 -93.5 -27.5t-75.5 -72.5h-52l97 344h372l-11 -55h-319q-5 -14 -26 -82t-34 -108q68 54 154 54q93 0 142.5 -72t27.5 -174q-22 -103 -102 -176t-173 -73q-53 0 -95.5 28t-63.5 75z" />
<glyph unicode="6" horiz-adv-x="506" d="M95 195q6 51 25 135l4 21q19 91 47 160q30 75 99 126.5t146 53.5q112 0 164 -94l-59 -32q-17 33 -47.5 52t-67.5 19q-58 0 -112 -40t-76 -100q-30 -76 -46 -157l-2 -8q73 74 173 79q91 0 140.5 -60.5t29.5 -150.5q-19 -87 -92.5 -147t-161.5 -60q-83 0 -130.5 58.5 t-33.5 144.5zM149 196q-13 -62 23.5 -106.5t99.5 -44.5q64 0 119 45t68 107q15 67 -20.5 113t-102.5 46q-64 0 -118.5 -47.5t-68.5 -112.5z" />
<glyph unicode="7" horiz-adv-x="443" d="M36 0l428 631h-268l11 55h357l-465 -686h-63z" />
<glyph unicode="8" horiz-adv-x="459" d="M69 193q11 54 50 102t90 75q-70 49 -50 145q15 72 78.5 123.5t137.5 51.5q76 0 118 -51.5t27 -123.5q-20 -98 -112 -145q42 -27 59.5 -74t5.5 -103q-18 -84 -89.5 -143t-156.5 -59q-83 0 -129.5 59.5t-28.5 142.5zM124 193q-13 -59 21 -103t93 -44q62 0 115 43.5 t66 103.5q13 61 -21.5 104.5t-96.5 43.5q-59 0 -111.5 -43.5t-65.5 -104.5zM213 515q-10 -49 19 -84.5t80 -35.5q52 0 96.5 35t55.5 85q10 50 -19 85t-82 35q-51 0 -95.5 -35t-54.5 -85z" />
<glyph unicode="9" horiz-adv-x="489" d="M71 81l58 41q37 -73 114 -73q61 0 113.5 38.5t78.5 97.5q26 73 43 153l3 12q-82 -75 -181 -75q-83 0 -132 58.5t-33 141.5l2 7q18 86 92 147.5t161 61.5q83 0 131 -60.5t37 -145.5q-8 -54 -27 -137l-5 -26q-18 -85 -44 -150q-31 -79 -104 -129t-154 -50q-48 0 -88.5 24 t-64.5 64zM188 477q-10 -62 26 -105t97 -43q66 0 122 45t69 110q13 61 -24.5 106t-98.5 45q-66 0 -121.5 -47t-69.5 -111z" />
<glyph unicode=":" horiz-adv-x="182" d="M54 0l16 76h76l-16 -76h-76zM144 424l16 76h76l-16 -76h-76z" />
<glyph unicode=";" horiz-adv-x="169" d="M8 -54l52 63l15 67h61l-16 -72l-105 -75zM144 424l16 76h75l-16 -76h-75z" />
<glyph unicode="&#x3c;" horiz-adv-x="330" d="M73 248l299 249l32 -38l-254 -211q27 -33 83 -103t82 -103l-47 -40z" />
<glyph unicode="=" horiz-adv-x="440" d="M106 195l12 56h339l-12 -56h-339zM146 383l12 57h339l-12 -57h-339z" />
<glyph unicode="&#x3e;" horiz-adv-x="336" d="M39 42l253 206q-26 34 -81.5 105t-82.5 106l47 38l194 -249l-299 -246z" />
<glyph unicode="?" horiz-adv-x="410" d="M157 317l10 49h99q55 1 100 39.5t57 93.5q12 57 -18 97t-84 40q-72 0 -132 -75l-31 39q77 90 174 90q76 0 118.5 -56t25.5 -135q-17 -76 -81.5 -131.5t-139.5 -55.5h-43q4 -54 13.5 -162.5t12.5 -149.5h-58zM178 -87q3 14 15 23.5t25 9.5q32 0 25 -33q-3 -15 -13.5 -25 t-25.5 -10q-13 0 -21 10.5t-5 24.5z" />
<glyph unicode="@" horiz-adv-x="754" d="M114 324q33 158 152 262t274 104q125 0 197.5 -76t45.5 -204q-20 -95 -95.5 -178.5t-162.5 -94.5q-56 3 -69 25q-43 -28 -87 -28q-54 0 -83.5 39t-18.5 95q12 56 59.5 94t103.5 38h71q17 95 -19 95q-38 0 -67 -10l-14 -1l-2 57l13 1q35 11 83 11q81 -3 61 -141h2 q-18 -76 -33 -146q-1 -6 -6 -22.5t-6 -25t5.5 -16.5t24.5 -8q22 0 60.5 27.5t65.5 65.5q14 21 29.5 59.5t21.5 64.5q19 89 -35.5 152t-160.5 63q-121 0 -220 -84.5t-126 -211.5q-27 -125 35 -195t201 -70q82 0 151 30t111 77h75l-9 -15q-50 -66 -140.5 -111t-199.5 -45 q-161 0 -241 84t-47 239zM315 268q-7 -34 12 -57.5t53 -23.5q33 0 62 23.5t36 57.5l17 79h-77q-36 0 -66 -22.5t-37 -56.5z" />
<glyph unicode="A" d="M25 0l400 691h45l108 -691h-57l-46 281h-229q-31 -54 -92.5 -159t-71.5 -122h-57zM278 336h189q-7 43 -20.5 125t-20.5 129q-70 -119 -148 -254z" />
<glyph unicode="B" horiz-adv-x="512" d="M49 0l146 691h223q77 -1 120.5 -52.5t29.5 -120.5q-10 -47 -43 -86.5t-78 -64.5q42 -25 60 -70.5t7 -97.5q-17 -80 -87.5 -138t-154.5 -59l-17 -2h-206zM115 55h168q61 3 112.5 45t63.5 99q11 55 -22 96t-93 45h-168zM187 395h168q56 2 101.5 36.5t56.5 86.5 q10 47 -21 82t-85 38h-168z" />
<glyph unicode="C" horiz-adv-x="590" d="M98 345q30 141 144.5 245.5t244.5 104.5q61 0 113 -27t86 -74l-46 -37q-62 83 -164 83q-106 0 -201 -86.5t-121 -208.5q-26 -123 29.5 -210.5t165.5 -87.5q98 0 198 82l30 -37q-117 -101 -239 -101q-126 0 -198 105t-42 249z" />
<glyph unicode="D" horiz-adv-x="575" d="M33 0l146 691h257q101 -1 150.5 -101.5t19.5 -242.5t-121 -242.5t-193 -104.5h-259zM99 55q34 0 103 1t102 1q77 2 149.5 87t97.5 203q15 81 5.5 145t-45 103.5t-86.5 40.5h-202z" />
<glyph unicode="E" horiz-adv-x="485" d="M40 0l146 691h404l-11 -53h-349l-52 -243h298l-11 -55h-298l-61 -285h349l-11 -55h-404z" />
<glyph unicode="F" horiz-adv-x="487" d="M44 0l146 691h404l-11 -52h-349l-52 -244h298l-11 -55h-298l-72 -340h-55z" />
<glyph unicode="G" horiz-adv-x="604" d="M94 342q31 146 146 249.5t245 103.5q125 0 200 -101l-46 -38q-62 83 -166 83q-108 0 -203.5 -86.5t-121.5 -210.5q-26 -123 32.5 -210.5t166.5 -87.5q91 0 177 66l39 184h-187l11 53h242l-54 -254l-3 -8q-112 -94 -236 -94q-86 0 -148.5 47t-88 128t-5.5 176z" />
<glyph unicode="H" horiz-adv-x="558" d="M45 0l146 691h55l-63 -296h360l63 296h54l-146 -691h-54l72 340h-360l-72 -340h-55z" />
<glyph unicode="I" horiz-adv-x="138" d="M43 0l146 691h55l-146 -691h-55z" />
<glyph unicode="J" horiz-adv-x="305" d="M34 39l44 38q21 -31 46 -31q32 0 62 35.5t42 88.5l110 521h56l-110 -519q-16 -74 -66.5 -127.5t-104.5 -53.5q-46 0 -79 48z" />
<glyph unicode="K" horiz-adv-x="583" d="M40 0l146 691h55l-76 -357q128 119 382 357h73l-322 -301q228 -354 251 -390h-71l-225 348q-18 -16 -52.5 -48.5t-52.5 -49.5l-53 -250h-55z" />
<glyph unicode="L" horiz-adv-x="453" d="M40 0l146 691h54l-135 -636h331l-11 -55h-385z" />
<glyph unicode="M" horiz-adv-x="623" d="M30 0l146 691h52l143 -371l294 371h53l-146 -691h-56l122 578q-194 -243 -268 -338h-34l-129 338l-122 -578h-55z" />
<glyph unicode="N" horiz-adv-x="537" d="M43 0l146 691h51l218 -576l122 576h55l-146 -691h-52l-217 579l-123 -579h-54z" />
<glyph unicode="O" horiz-adv-x="690" d="M99 345q31 145 144.5 247.5t244.5 102.5q134 0 202.5 -101.5t37.5 -248.5q-33 -156 -151 -257q-110 -97 -238 -97q-129 0 -200.5 102.5t-39.5 251.5zM155 345q-26 -125 30 -211.5t165 -86.5q111 0 205 86.5t120 211.5q27 131 -37 216q-55 78 -162 78q-108 0 -201.5 -85.5 t-119.5 -208.5z" />
<glyph unicode="P" horiz-adv-x="480" d="M49 0l146 691h201q82 0 129.5 -51t32.5 -122q-17 -75 -85.5 -127t-150.5 -52h-147l-72 -339h-54zM186 394h147q59 0 109 35.5t61 88.5q10 49 -25 84.5t-95 35.5h-145z" />
<glyph unicode="Q" horiz-adv-x="665" d="M112 368q29 138 135 232.5t225 94.5q120 0 186.5 -95t37.5 -232q-30 -140 -143 -236q-78 -69 -174 -86q-1 -26 6 -43t19 -17q16 0 34 27l32 -34q-45 -45 -78 -45q-31 0 -49 31t-16 77q-115 7 -179 101t-36 225zM163 368q-24 -111 25 -191.5t145 -85.5q-6 29 -38 28l10 49 q37 1 60 -20t23 -53q88 20 161 96.5t94 176.5q26 121 -35 203q-54 75 -146 75q-99 0 -187 -81.5t-112 -196.5z" />
<glyph unicode="R" horiz-adv-x="474" d="M39 0l146 691h201q83 0 130.5 -50.5t31.5 -123.5q-15 -73 -84 -125t-152 -52h-83q40 -61 120 -179.5t108 -160.5h-71l-222 330l-70 -330h-55zM177 395h146q59 0 109.5 35.5t60.5 86.5q11 50 -24.5 86t-95.5 36h-144z" />
<glyph unicode="S" horiz-adv-x="485" d="M58 91l51 35q36 -80 135 -80q61 0 114 37t64 90q11 51 -22 91.5t-93 49.5q-83 10 -129 65t-31 128q17 80 91 133.5t164 53.5q112 0 169 -82l-53 -36q-39 66 -127 66q-62 0 -118 -38.5t-68 -92.5q-11 -55 23 -96.5t97 -46.5q82 -11 126 -66t29 -126q-16 -77 -89 -131 t-160 -54q-61 0 -106.5 27.5t-66.5 72.5z" />
<glyph unicode="T" horiz-adv-x="575" d="M173 638l11 53h497l-11 -53h-220l-135 -638h-55l135 638h-222z" />
<glyph unicode="U" horiz-adv-x="598" d="M76 176l109 515h58l-109 -515q-5 -52 45.5 -90.5t128.5 -38.5q75 0 141 38.5t84 90.5l109 515h55l-109 -515q-20 -76 -105.5 -130.5t-185.5 -54.5q-104 0 -168 54.5t-53 130.5z" />
<glyph unicode="V" horiz-adv-x="639" d="M183 691h57l96 -603q311 533 351 603h58l-401 -691h-53z" />
<glyph unicode="W" horiz-adv-x="915" d="M187 691h58l96 -604q26 44 78 134.5t77 135.5q-17 119 -51 334h57l43 -274q6 -38 24.5 -150.5t28.5 -178.5q230 394 350 603h59l-400 -691h-55l-44 274q-26 -45 -79 -137t-79 -137h-54z" />
<glyph unicode="X" horiz-adv-x="541" d="M29 0l281 353l-126 338h62l111 -288q38 47 116 143.5t116 144.5h63l-274 -344q87 -238 128 -347h-63l-114 298q-46 -59 -136.5 -171.5t-101.5 -126.5h-62z" />
<glyph unicode="Y" horiz-adv-x="681" d="M171 691h73l169 -326q51 54 155 163.5t155 162.5h72l-364 -380l-66 -311h-56l66 311q-181 336 -204 380z" />
<glyph unicode="Z" horiz-adv-x="548" d="M24 0l532 636h-362l11 55h460l-530 -636h355l-11 -55h-455z" />
<glyph unicode="[" horiz-adv-x="210" d="M105 325l11 54h27q15 0 28 11t16 26l48 225q7 20 30.5 32.5t50.5 12.5l-12 -56q-16 0 -16 3l-49 -230q-20 -34 -50 -37l-5 -27q31 -5 34 -36l-53 -250q0 1 17 1l-11 -54q-24 0 -45 15.5t-16 37.5l50 235q3 16 -5 26.5t-23 10.5h-27z" />
<glyph unicode="\" horiz-adv-x="371" d="M182 686h58l106 -686h-59z" />
<glyph unicode="]" horiz-adv-x="183" d="M23 0l11 54q13 0 19 2l53 246q15 35 47 37q1 6 7 27q-31 7 -33 37l48 227h-19l12 56q29 0 46 -13t17 -32v-6l-46 -219q-3 -16 3.5 -26.5t21.5 -10.5h27l-11 -54h-27q-15 0 -26.5 -10.5t-14.5 -26.5l-50 -235q-5 -22 -32 -37.5t-53 -15.5z" />
<glyph unicode="^" horiz-adv-x="551" d="M119 443l301 246l193 -247l-48 -39l-161 209q-42 -34 -128 -104.5t-128 -104.5z" />
<glyph unicode="_" horiz-adv-x="513" d="M37 0l11 54h423l-11 -54h-423z" />
<glyph unicode="`" horiz-adv-x="204" d="M149 636h87l52 -98h-37z" />
<glyph unicode="a" horiz-adv-x="406" d="M66 144q14 66 73.5 110.5t129.5 44.5h104l3 14q7 38 2.5 68.5t-23.5 49.5t-47 20q-63 0 -121 -16l-2 52q70 19 136 19q60 -1 92.5 -51.5t21.5 -121.5l-2 -10l-1 -3q-71 -296 -53 -320h-69l6 30q-57 -40 -120 -40q-67 0 -105 45t-25 109zM121 144q-9 -41 16.5 -69.5 t70.5 -28.5q46 0 84.5 28.5t47.5 69.5l22 101h-104q-48 0 -87.5 -28.5t-49.5 -72.5z" />
<glyph unicode="b" horiz-adv-x="523" d="M41 0q7 8 16 32.5t15 45.5l5 20l125 588h55l-45 -211q62 31 144 31q99 0 153.5 -76t31.5 -181q-22 -106 -108 -181.5t-187 -77.5q-89 5 -133 33l-4 -23h-68zM129 98q-4 -21 33.5 -36t95.5 -17q76 2 144 61.5t85 142.5q17 81 -25.5 141.5t-117.5 60.5q-52 0 -95.5 -14 t-54.5 -33z" />
<glyph unicode="c" horiz-adv-x="478" d="M72 248q22 106 109 182t185 76q101 0 159 -83l-47 -40q-43 68 -124 68q-77 0 -143.5 -59t-84.5 -144q-17 -83 24.5 -142.5t117.5 -59.5q78 0 149 65l32 -38q-97 -82 -192 -82q-98 0 -152.5 76t-32.5 181z" />
<glyph unicode="d" horiz-adv-x="534" d="M101 252q22 105 108.5 179t185.5 75q85 0 130 -32l45 212h54l-124 -586q-1 -3 -2 -9t-3 -20.5t-3 -27t0.5 -24.5t5.5 -16h-73l5 22q-61 -27 -144 -32q-99 2 -153 77.5t-32 181.5zM154 252q-17 -83 24.5 -142.5t120.5 -62.5q57 3 100 18.5t47 34.5l65 305q-2 19 -38 32.5 t-90 13.5q-78 -2 -145 -60.5t-84 -138.5z" />
<glyph unicode="e" horiz-adv-x="456" d="M74 231l3 18q23 107 98.5 182.5t157.5 75.5q84 0 125.5 -73t18.5 -180l-6 -30h-343q-11 -77 22.5 -127.5t95.5 -51.5q54 0 137 38l11 -48q-63 -31 -133 -43q-8 -1 -26 -1q-83 0 -130 69.5t-31 170.5zM140 277h289q10 75 -21 124.5t-87 49.5q-53 0 -104 -50t-77 -124z" />
<glyph unicode="f" horiz-adv-x="328" d="M106 0l92 434h-73l11 55h72l3 18l3 12q19 70 73 120.5t112 50.5q32 0 56 -3l-28 -55q-16 4 -39 4q-41 -2 -76.5 -39t-46.5 -89l-4 -19h128l-11 -55h-128l-92 -434h-52z" />
<glyph unicode="g" horiz-adv-x="551" d="M24 -32q9 42 44 79t83 58q-3 14 2 43q6 32 27 51q-58 50 -40 132q15 72 84.5 123.5t152.5 51.5q34 0 73 -11h182l-64 -54h-47q33 -50 20 -110q-16 -73 -85 -123t-153 -50q-16 0 -40.5 5.5t-36.5 5.5q-25 0 -30 -19q-5 -25 23 -25q1 0 5 0.5t5 0.5h5q8 2 25 2 q85 0 134 -46.5t35 -113.5t-84 -115t-154 -48q-82 0 -131 48t-35 115zM77 -32q-10 -44 27.5 -77t96.5 -33q63 0 114 32.5t61 77.5q9 44 -28 77t-100 33q-59 0 -110.5 -33t-60.5 -77zM194 331q-11 -50 24.5 -85.5t95.5 -35.5q63 0 113.5 35.5t61.5 85.5q11 52 -24.5 87 t-98.5 35q-60 0 -110.5 -35.5t-61.5 -86.5z" />
<glyph unicode="h" horiz-adv-x="455" d="M42 0l146 688h54l-52 -242q66 61 142 61q71 0 108.5 -53.5t22.5 -130.5l-65 -320h-54l68 320q10 55 -18.5 92.5t-78.5 37.5q-42 0 -84.5 -34.5t-63.5 -81.5l-71 -337h-54z" />
<glyph unicode="i" horiz-adv-x="177" d="M59 0l106 500h53l-106 -500h-53zM186 639q3 14 15 23.5t27 9.5q14 0 22.5 -10t5.5 -23q-2 -13 -15 -23t-27 -10q-15 0 -22.5 10t-5.5 23z" />
<glyph unicode="j" horiz-adv-x="354" d="M5 -189l16 52q11 0 23.5 -1.5t19.5 -1.5l1 3q42 0 79 36t48 87l109 515h54l-111 -524q-13 -46 -41 -84t-66.5 -61.5t-78.5 -24.5q-11 0 -26.5 2t-26.5 2zM321 634q8 33 41 33q12 0 20.5 -9.5t4.5 -23.5q-3 -13 -15 -23t-24 -10q-15 0 -22.5 9.5t-4.5 23.5z" />
<glyph unicode="k" horiz-adv-x="440" d="M42 0q17 15 25 51l135 635h54l-72 -340q23 16 96 68.5t112 79.5h84l-186 -131q116 -323 131 -363h-64l-117 327q-63 -47 -71 -52l-58 -275h-69z" />
<glyph unicode="l" horiz-adv-x="162" d="M59 0l145 686h54l-145 -686h-54z" />
<glyph unicode="m" horiz-adv-x="739" d="M39 0l94 446q3 15 2 32t-5 22h69l-12 -56q64 61 140 61q47 0 81.5 -27t48.5 -70q32 49 79 74t92 25q70 0 107.5 -53t23.5 -131l-66 -321h-55l68 321q10 54 -17 91.5t-76 37.5q-45 0 -87.5 -34t-61.5 -81l-71 -335h-54l68 319q10 55 -18 92t-79 37q-42 0 -84 -34t-62 -81 l-71 -335h-54z" />
<glyph unicode="n" horiz-adv-x="433" d="M35 0l95 448q7 34 -5 48h69l-11 -50q65 62 142 62q70 0 108 -53.5t24 -131.5l-66 -323h-55l68 323q11 55 -17 92.5t-78 37.5q-43 0 -85.5 -34t-63.5 -82l-71 -337h-54z" />
<glyph unicode="o" horiz-adv-x="513" d="M71 247q22 107 107.5 183t182.5 76t149 -76t29 -183q-23 -106 -107 -181.5t-181 -75.5t-150 75.5t-30 181.5zM126 247q-18 -83 22 -142.5t115 -59.5q73 0 138 59.5t83 142.5q18 85 -21.5 144.5t-113.5 59.5q-75 0 -140 -59.5t-83 -144.5z" />
<glyph unicode="p" horiz-adv-x="506" d="M-3 -190l125 594q2 9 3.5 21t4 42t-4.5 32h71l-5 -23q72 33 146 33q100 -2 154 -77t32 -180q-23 -108 -109.5 -184t-186.5 -76q-85 0 -131 32l-46 -214h-53zM109 93q1 -18 38.5 -31.5t90.5 -15.5q78 2 145.5 62t85.5 144q18 83 -24.5 142t-119.5 59q-58 0 -101.5 -14.5 t-48.5 -34.5z" />
<glyph unicode="q" horiz-adv-x="513" d="M88 258q22 102 106 175t179 73q85 0 129 -29l4 17h53l-146 -684h-53l49 232q-57 -32 -141 -32q-95 2 -148 74.5t-32 173.5zM141 258q-17 -80 23.5 -137t114.5 -59q51 0 92.5 14t52.5 33l62 295q5 20 -31.5 34.5t-92.5 14.5q-74 0 -139 -57t-82 -138z" />
<glyph unicode="r" horiz-adv-x="279" d="M40 0l94 446q4 15 1.5 32t-11.5 23h76l-12 -57q62 62 141 62q19 0 31 -5l-25 -54q-13 4 -23 4q-43 0 -85 -34t-62 -82l-71 -335h-54z" />
<glyph unicode="s" horiz-adv-x="417" d="M59 63l48 32q39 -49 109 -49q48 0 86 23t45 58q7 32 -20.5 61t-71.5 39q-64 10 -102 54t-27 94q12 57 69.5 93.5t127.5 36.5q46 0 85.5 -18.5t61.5 -49.5l-50 -32q-37 45 -113 45q-47 0 -83 -21.5t-43 -54.5t20 -61t75 -35q66 -10 101.5 -53.5t23.5 -97.5 q-13 -59 -68.5 -97t-124.5 -38q-47 0 -88 19t-61 52z" />
<glyph unicode="t" horiz-adv-x="340" d="M120 0l93 438h-74l11 55h72l41 193h55l-41 -193h131l-11 -55h-131l-93 -438h-53z" />
<glyph unicode="u" horiz-adv-x="450" d="M81 179l67 319h54l-67 -316v-5q-9 -53 19 -91.5t77 -38.5q44 0 85.5 34.5t60.5 81.5l72 337h54l-95 -446q-3 -17 -1.5 -33t5.5 -21h-69l11 53q-67 -62 -141 -62q-69 0 -106.5 53.5t-23.5 130.5z" />
<glyph unicode="v" horiz-adv-x="500" d="M124 500h57l82 -418q80 132 258 418h60l-310 -500h-52z" />
<glyph unicode="w" horiz-adv-x="705" d="M120 500h58l81 -417q19 31 55 89t52 84q-7 41 -23 124t-23 120h62l78 -417q197 318 258 417h60l-310 -500l-53 3l-33 179q-88 -139 -115 -182l-51 3z" />
<glyph unicode="x" horiz-adv-x="444" d="M22 0l213 259l-102 241h68l80 -194q11 14 165 194h67l-209 -249q42 -104 103 -251h-66l-85 203q-109 -130 -168 -203h-66z" />
<glyph unicode="y" horiz-adv-x="535" d="M7 -189l20 56q7 -8 36 -8q34 0 69 22.5t59 63.5q10 16 29 47t29 47q-8 40 -40.5 209t-50.5 258h58l74 -398q35 58 76 125t90.5 147.5t76.5 125.5h58l-288 -467q-7 -13 -31 -52.5t-36 -61.5q-33 -55 -85.5 -87.5t-101.5 -32.5q-23 0 -42 6z" />
<glyph unicode="z" horiz-adv-x="452" d="M41 0l11 52l379 393h-293l12 55h368l-11 -52l-380 -393h296l-11 -55h-371z" />
<glyph unicode="{" horiz-adv-x="223" d="M105 325l11 54h27q15 0 28 11t16 26l48 225q7 20 30.5 32.5t50.5 12.5l-12 -56q-16 0 -16 3l-49 -230q-20 -34 -50 -37l-5 -27q31 -5 34 -36l-53 -250q0 1 17 1l-11 -54q-24 0 -45 15.5t-16 37.5l50 235q3 16 -5 26.5t-23 10.5h-27z" />
<glyph unicode="|" horiz-adv-x="131" d="M50 1l151 710h39l-151 -710h-39z" />
<glyph unicode="}" horiz-adv-x="188" d="M23 0l11 54q13 0 19 2l53 246q15 35 47 37q1 6 7 27q-31 7 -33 37l48 227h-19l12 56q29 0 46 -13t17 -32v-6l-46 -219q-3 -16 3.5 -26.5t21.5 -10.5h27l-11 -54h-27q-15 0 -26.5 -10.5t-14.5 -26.5l-50 -235q-5 -22 -32 -37.5t-53 -15.5z" />
<glyph unicode="~" horiz-adv-x="347" d="M94 321q47 28 104 28q20 0 47.5 -9.5t45.5 -9.5q50 0 84 25l10 -43q-49 -29 -101 -29q-38 0 -60 15l1 -1q-18 6 -36 6q-47 0 -81 -25z" />
<glyph unicode="&#xa1;" horiz-adv-x="160" d="M56 0l124 586h48l-124 -586h-48zM191 659v1q2 12 12 21t23 9q12 0 19 -9t5 -21q-3 -13 -14 -21.5t-23 -8.5q-27 0 -22 29z" />
<glyph unicode="&#xa2;" horiz-adv-x="478" d="M72 248q21 97 97.5 170.5t167.5 84.5l15 67h59l-15 -67q79 -10 129 -80l-47 -40q-34 56 -93 65l-85 -400q55 8 118 63l31 -38q-84 -70 -161 -80l-14 -66h-59l14 67q-86 11 -131.5 84t-25.5 170zM126 248q-16 -75 17 -132t98 -68l85 400q-69 -11 -126.5 -68t-73.5 -132z " />
<glyph unicode="&#xa3;" horiz-adv-x="556" d="M84 293l11 54h117l72 339h54l-72 -339h178l-11 -54h-178l-51 -239h328l-11 -54h-382l62 293h-117z" />
<glyph unicode="&#xa5;" horiz-adv-x="681" d="M171 686h73l166 -324q44 46 149 156t160 168h72l-362 -378l-6 -28h142l-12 -56h-142l-5 -24h142l-12 -56h-142l-30 -144h-56l30 144h-142l12 56h142l5 24h-142l12 56h142l6 28q-37 70 -114 213.5t-88 164.5z" />
<glyph unicode="&#xa6;" horiz-adv-x="131" d="M50 1l73 347h39l-73 -347h-39zM134 399l67 312h39l-67 -312h-39z" />
<glyph unicode="&#xa7;" horiz-adv-x="356" d="M48 18l34 46q41 -19 73 -19q36 0 65 16.5t38 45.5q-29 -8 -54 -8q-51 0 -96 26l34 48q43 -20 75 -20q21 0 42 7q-11 39 -59 66q-74 41 -83.5 118.5t57.5 122.5q0 1 3 22q12 54 59.5 86.5t106.5 32.5q47 0 97 -25l-34 -51q-37 22 -77 22q-33 0 -60.5 -16t-35.5 -44 q22 6 49 6q45 0 98 -25l-34 -51q-40 22 -78 22q-20 0 -33 -4q14 -36 59 -63q46 -25 68 -67.5t12 -87.5q-10 -50 -58 -88q0 -9 -3 -19q-12 -57 -61 -91.5t-107 -34.5q-47 0 -97 27zM186 411q-25 -38 -11.5 -75.5t59.5 -63.5q56 -29 73 -76q24 37 9 75t-57 64q-54 25 -73 76z " />
<glyph unicode="&#xa8;" horiz-adv-x="263" d="M168 639q3 14 15.5 23.5t26.5 9.5t22.5 -10t5.5 -23q-2 -13 -15 -23t-27 -10t-22 10t-6 23zM298 639q3 14 15.5 23.5t26.5 9.5t22.5 -10t5.5 -23q-2 -13 -15 -23t-27 -10t-22 10t-6 23z" />
<glyph unicode="&#xaa;" horiz-adv-x="179" d="M99 372q5 26 28.5 43.5t53.5 17.5h27q2 13 -3 24t-14 11q-22 0 -52 -9l1 39q32 8 59 8q24 0 37.5 -21t7.5 -53q-6 -27 -12 -55q-4 -17 -2 -37.5t9 -28.5h-57v1q-12 -5 -30 -5q-28 0 -43.5 19t-9.5 46zM137 372q-2 -10 4.5 -18t18.5 -8q11 0 22 8t13 18l5 24h-29 q-12 0 -22 -7.5t-12 -16.5z" />
<glyph unicode="&#xab;" horiz-adv-x="532" d="M83 278l315 226l27 -42l-269 -191q134 -213 141 -224l-47 -36zM248 278l315 226l27 -42l-269 -191q94 -146 141 -224l-47 -36z" />
<glyph unicode="&#xac;" horiz-adv-x="662" d="M110 336l11 54h578l-49 -231h-54l38 177h-524z" />
<glyph unicode="&#xad;" horiz-adv-x="421" d="M93 266l12 54h349l-12 -54h-349z" />
<glyph unicode="&#xb0;" horiz-adv-x="250" d="M145 587q10 44 46 73.5t81 29.5q42 0 64.5 -29.5t12.5 -73.5q-8 -41 -43.5 -70.5t-76.5 -29.5q-45 0 -68.5 29t-15.5 71zM186 587q-5 -23 10.5 -42t40.5 -19q21 0 44 19t27 42q5 25 -9 45t-35 20q-25 0 -49 -20t-29 -45z" />
<glyph unicode="&#xb1;" horiz-adv-x="452" d="M81 150l12 54h349l-12 -54h-349zM146 447l11 55h147l31 147h54l-31 -147h148l-11 -55h-148l-32 -147h-54l32 147h-147z" />
<glyph unicode="&#xb2;" horiz-adv-x="280" d="M93 308l8 39l190 171q25 22 32 52q6 30 -13.5 53t-49.5 23q-31 0 -72 -33l-26 34q60 43 107 43q51 0 79.5 -35t17.5 -85q-10 -45 -50 -85l-149 -134h152l-9 -43h-217z" />
<glyph unicode="&#xb3;" horiz-adv-x="265" d="M84 351l32 26h13q22 -31 57 -31q28 0 54.5 19.5t32.5 45.5q5 25 -11.5 45t-42.5 23h-58l9 43h59q26 1 51 20t30 42t-13.5 41t-46.5 18q-38 0 -78 -36l-25 34q51 45 112 45q49 0 77.5 -29.5t19.5 -72.5q-12 -58 -65 -85q35 -37 25 -88q-10 -45 -50.5 -76t-88.5 -31 q-59 0 -93 47z" />
<glyph unicode="&#xb4;" horiz-adv-x="209" d="M145 538l95 98h86l-143 -98h-38z" />
<glyph unicode="&#xb6;" horiz-adv-x="382" d="M132 519q15 70 73.5 118.5t127.5 48.5h83l-145 -686h-90l74 352q-63 5 -100 54t-23 113zM186 523q-10 -46 10 -79t60 -34l48 226q-41 -1 -74.5 -33.5t-43.5 -79.5zM281 2l145 683h52l-145 -683h-52z" />
<glyph unicode="&#xb7;" horiz-adv-x="225" d="M122 312q5 21 26 38.5t44 17.5q24 0 38.5 -17.5t9.5 -38.5t-26.5 -37.5t-45.5 -16.5t-37.5 16.5t-8.5 37.5z" />
<glyph unicode="&#xb9;" horiz-adv-x="263" d="M150 578l153 108h50l-65 -306h-55l50 233q-30 -22 -103 -72z" />
<glyph unicode="&#xba;" horiz-adv-x="232" d="M106 402q10 45 43 74.5t74 29.5q38 0 58.5 -30t10.5 -74q-9 -41 -41.5 -70t-70.5 -29q-40 0 -61.5 29t-12.5 70zM144 402q-5 -23 8.5 -42t35.5 -19q19 0 39.5 19t25.5 42q5 25 -6.5 45.5t-31.5 20.5q-22 0 -44 -20.5t-27 -45.5z" />
<glyph unicode="&#xbb;" horiz-adv-x="524" d="M71 47l237 224q-57 59 -187 191l45 42l219 -226l-281 -267zM236 47l237 224q-57 59 -187 191l45 42l219 -226l-281 -267z" />
<glyph unicode="&#xbc;" horiz-adv-x="382" d="M122 448l81 58h29l-64 -299h-34l54 251q-7 -5 -15 -10.5t-18 -12t-15 -9.5zM177 124l6 29l157 198l27 -15l-142 -178h82l16 74h34l-16 -74h48l-7 -34h-48l-26 -124h-34l26 124h-123z" />
<glyph unicode="&#xbd;" horiz-adv-x="355" d="M110 449l81 58h29l-64 -300h-34l54 252q-7 -5 -15 -10.5t-18 -12t-15 -9.5zM129 0l6 29l178 161q24 22 30 50q7 33 -11.5 55t-51.5 22q-29 0 -65 -26l-19 24q47 36 91 36q47 0 73.5 -32.5t16.5 -78.5q-9 -39 -47 -75l-146 -132h149l-7 -33h-197z" />
<glyph unicode="&#xbe;" horiz-adv-x="458" d="M66 192l30 22q18 -30 57 -30q31 0 57.5 19.5t32.5 47.5q7 36 -25.5 54.5t-81.5 10.5l7 35h52q30 2 54 19t29 41q5 26 -13 44.5t-49 18.5q-39 0 -72 -30l-19 24q44 39 98 39q45 0 71.5 -28t18.5 -68q-11 -52 -67 -77q42 -29 31 -83q-9 -42 -47.5 -71.5t-84.5 -29.5 q-50 0 -79 42zM251 125l6 30l159 198l26 -15l-139 -178h79l15 74h35l-15 -74h48l-8 -35h-48l-26 -123h-35l26 123h-123z" />
<glyph unicode="&#xbf;" horiz-adv-x="432" d="M81 181q17 77 83 134t139 57h45q-5 58 -14.5 174t-11.5 140h57l26 -319l-11 -51h-103q-53 -2 -99 -41t-58 -94t18.5 -95t85.5 -40q72 0 134 74l31 -40q-80 -90 -177 -90q-76 0 -119 56.5t-26 134.5zM313 771q8 35 42 35q13 0 20.5 -10t3.5 -25q-3 -14 -14.5 -24 t-24.5 -10q-15 0 -22.5 9.5t-4.5 24.5z" />
<glyph unicode="&#xc0;" d="M25 0l400 691h45l108 -691h-57l-46 281h-229q-31 -54 -92.5 -159t-71.5 -122h-57zM278 336h189q-7 43 -20.5 125t-20.5 129q-70 -119 -148 -254zM349 827h87l52 -98h-37z" />
<glyph unicode="&#xc1;" d="M25 0l400 691h45l108 -691h-57l-46 281h-229q-31 -54 -92.5 -159t-71.5 -122h-57zM278 336h189q-7 43 -20.5 125t-20.5 129q-70 -119 -148 -254zM432 729l95 98h86l-143 -98h-38z" />
<glyph unicode="&#xc2;" d="M25 0l400 691h45l108 -691h-57l-46 281h-229q-31 -54 -92.5 -159t-71.5 -122h-57zM278 336h189q-7 43 -20.5 125t-20.5 129q-70 -119 -148 -254z" />
<glyph unicode="&#xc3;" d="M29 7l400 691h45l108 -691h-57l-46 281h-229q-31 -54 -92.5 -159t-71.5 -122h-57zM282 343h189q-7 43 -20.5 125t-20.5 129q-70 -119 -148 -254zM335 794q49 27 99 27q21 0 47 -8q27 -9 39 -9q49 0 80 22l12 -40q-44 -27 -99 -27q-32 0 -56 12l1 -1q-15 6 -34 6 q-40 0 -76 -22z" />
<glyph unicode="&#xc4;" d="M25 0l400 691h45l108 -691h-57l-46 281h-229q-31 -54 -92.5 -159t-71.5 -122h-57zM278 336h189q-7 43 -20.5 125t-20.5 129q-70 -119 -148 -254zM355 752q3 14 15.5 23.5t26.5 9.5t22.5 -10t5.5 -23q-2 -13 -15 -23t-27 -10t-22 10t-6 23zM485 752q3 14 15.5 23.5 t26.5 9.5t22.5 -10t5.5 -23q-2 -13 -15 -23t-27 -10t-22 10t-6 23z" />
<glyph unicode="&#xc6;" horiz-adv-x="1081" d="M26 0l401 691h644l-11 -53h-350l-52 -243h299l-11 -55h-299l-61 -285h350l-11 -55h-405l59 281h-331q-26 -45 -82 -140.5t-82 -140.5h-58zM280 336h311l73 302h-213q-29 -51 -85.5 -151t-85.5 -151z" />
<glyph unicode="&#xc7;" horiz-adv-x="634" d="M121 342q31 148 145.5 250.5t245.5 102.5q126 0 199 -102l-47 -36q-63 85 -163 85q-109 0 -204.5 -88.5t-121.5 -211.5q-26 -121 32 -209.5t167 -88.5q100 0 196 83l32 -37q-112 -97 -246 -99q-1 -1 -4 -5.5t-3 -5.5q15 -5 28 -22t9 -37q-9 -36 -70 -66l-45 39 q17 0 41.5 7t27.5 22q3 12 -10.5 17.5t-27.5 5.5h-15l12 52q-102 26 -153.5 122t-24.5 222z" />
<glyph unicode="&#xc8;" horiz-adv-x="485" d="M40 0l146 691h404l-11 -53h-349l-52 -243h298l-11 -55h-298l-61 -285h349l-11 -55h-404zM280 827h87l52 -98h-37z" />
<glyph unicode="&#xc9;" horiz-adv-x="485" d="M40 0l146 691h404l-11 -53h-349l-52 -243h298l-11 -55h-298l-61 -285h349l-11 -55h-404zM349 729l95 98h86l-143 -98h-38z" />
<glyph unicode="&#xcb;" horiz-adv-x="485" d="M40 0l146 691h404l-11 -53h-349l-52 -243h298l-11 -55h-298l-61 -285h349l-11 -55h-404zM299 753q3 14 15.5 23.5t26.5 9.5t22.5 -10t5.5 -23q-2 -13 -15 -23t-27 -10t-22 10t-6 23zM429 753q3 14 15.5 23.5t26.5 9.5t22.5 -10t5.5 -23q-2 -13 -15 -23t-27 -10t-22 10 t-6 23z" />
<glyph unicode="&#xcc;" horiz-adv-x="131" d="M51 0l146 691h55l-146 -691h-55zM133 827h87l52 -98h-37z" />
<glyph unicode="&#xcd;" horiz-adv-x="154" d="M43 0l146 691h55l-146 -691h-55zM203 729l95 98h86l-143 -98h-38z" />
<glyph unicode="&#xce;" horiz-adv-x="138" d="M43 0l146 691h55l-146 -691h-55z" />
<glyph unicode="&#xcf;" horiz-adv-x="138" d="M43 0l146 691h55l-146 -691h-55zM127 752q3 14 15.5 23.5t26.5 9.5t22.5 -10t5.5 -23q-2 -13 -15 -23t-27 -10t-22 10t-6 23zM257 752q3 14 15.5 23.5t26.5 9.5t22.5 -10t5.5 -23q-2 -13 -15 -23t-27 -10t-22 10t-6 23z" />
<glyph unicode="&#xd0;" horiz-adv-x="653" d="M97 269l11 54h66l78 368h257q101 -1 150.5 -101.5t19.5 -242.5t-121 -242.5t-193 -104.5h-259l57 269h-66zM172 55q34 0 103 1t102 1q77 2 149.5 87t97.5 203q15 81 5.5 145t-45 103.5t-86.5 40.5h-202l-67 -313h171l-11 -54h-171z" />
<glyph unicode="&#xd1;" horiz-adv-x="537" d="M43 0l146 691h51l218 -576l122 576h55l-146 -691h-52l-217 579l-123 -579h-54zM293 774q41 19 79 19q28 0 61 -14t57 -14q32 0 63 18l6 -43q-38 -20 -79 -20q-46 0 -72 20q-20 8 -45 8q-31 0 -63 -17z" />
<glyph unicode="&#xd2;" horiz-adv-x="690" d="M99 345q31 145 144.5 247.5t244.5 102.5q134 0 202.5 -101.5t37.5 -248.5q-33 -156 -151 -257q-110 -97 -238 -97q-129 0 -200.5 102.5t-39.5 251.5zM155 345q-26 -125 30 -211.5t165 -86.5q111 0 205 86.5t120 211.5q27 131 -37 216q-55 78 -162 78q-108 0 -201.5 -85.5 t-119.5 -208.5zM371 827h87l52 -98h-37z" />
<glyph unicode="&#xd3;" horiz-adv-x="690" d="M99 345q31 145 144.5 247.5t244.5 102.5q134 0 202.5 -101.5t37.5 -248.5q-33 -156 -151 -257q-110 -97 -238 -97q-129 0 -200.5 102.5t-39.5 251.5zM155 345q-26 -125 30 -211.5t165 -86.5q111 0 205 86.5t120 211.5q27 131 -37 216q-55 78 -162 78q-108 0 -201.5 -85.5 t-119.5 -208.5zM487 729l95 98h86l-143 -98h-38z" />
<glyph unicode="&#xd5;" horiz-adv-x="690" d="M99 345q31 145 144.5 247.5t244.5 102.5q134 0 202.5 -101.5t37.5 -248.5q-33 -156 -151 -257q-110 -97 -238 -97q-129 0 -200.5 102.5t-39.5 251.5zM155 345q-26 -125 30 -211.5t165 -86.5q111 0 205 86.5t120 211.5q27 131 -37 216q-55 78 -162 78q-108 0 -201.5 -85.5 t-119.5 -208.5zM369 775q41 19 79 19q28 0 61 -14t57 -14q32 0 63 18l6 -43q-38 -20 -79 -20q-46 0 -72 20q-20 8 -45 8q-31 0 -63 -17z" />
<glyph unicode="&#xd6;" horiz-adv-x="690" d="M99 345q31 145 144.5 247.5t244.5 102.5q134 0 202.5 -101.5t37.5 -248.5q-33 -156 -151 -257q-110 -97 -238 -97q-129 0 -200.5 102.5t-39.5 251.5zM155 345q-26 -125 30 -211.5t165 -86.5q111 0 205 86.5t120 211.5q27 131 -37 216q-55 78 -162 78q-108 0 -201.5 -85.5 t-119.5 -208.5zM402 753q3 14 15.5 23.5t26.5 9.5t22.5 -10t5.5 -23q-2 -13 -15 -23t-27 -10t-22 10t-6 23zM532 753q3 14 15.5 23.5t26.5 9.5t22.5 -10t5.5 -23q-2 -13 -15 -23t-27 -10t-22 10t-6 23z" />
<glyph unicode="&#xd7;" horiz-adv-x="367" d="M77 208l126 105l-81 103l45 39l83 -104l126 104l31 -38l-127 -104q13 -17 41.5 -52.5t41.5 -52.5l-46 -38l-83 104l-127 -104z" />
<glyph unicode="&#xd8;" horiz-adv-x="690" d="M99 345q31 145 144.5 247.5t244.5 102.5q46 0 91 -15l3 6t2 5h58l-18 -33q70 -47 98 -129.5t6 -183.5q-33 -156 -151 -257q-110 -97 -238 -97q-45 0 -91 16q-2 -4 -2 -7h-60l17 30q-67 42 -96.5 127t-7.5 188zM155 345q-18 -85 3 -155t74 -108q62 107 175 302t141 243 q-29 12 -72 12q-108 0 -201.5 -85.5t-119.5 -208.5zM278 59q31 -12 72 -12q111 0 205 86.5t120 211.5q27 131 -37 216q-24 30 -44 44q-25 -44 -139.5 -242t-176.5 -304z" />
<glyph unicode="&#xd9;" horiz-adv-x="598" d="M76 176l109 515h58l-109 -515q-5 -52 45.5 -90.5t128.5 -38.5q75 0 141 38.5t84 90.5l109 515h55l-109 -515q-20 -76 -105.5 -130.5t-185.5 -54.5q-104 0 -168 54.5t-53 130.5zM343 827h87l52 -98h-37z" />
<glyph unicode="&#xda;" horiz-adv-x="598" d="M76 176l109 515h58l-109 -515q-5 -52 45.5 -90.5t128.5 -38.5q75 0 141 38.5t84 90.5l109 515h55l-109 -515q-20 -76 -105.5 -130.5t-185.5 -54.5q-104 0 -168 54.5t-53 130.5zM428 729l95 98h86l-143 -98h-38z" />
<glyph unicode="&#xdc;" horiz-adv-x="598" d="M76 176l109 515h58l-109 -515q-5 -52 45.5 -90.5t128.5 -38.5q75 0 141 38.5t84 90.5l109 515h55l-109 -515q-20 -76 -105.5 -130.5t-185.5 -54.5q-104 0 -168 54.5t-53 130.5zM356 752q3 14 15.5 23.5t26.5 9.5t22.5 -10t5.5 -23q-2 -13 -15 -23t-27 -10t-22 10t-6 23z M486 752q3 14 15.5 23.5t26.5 9.5t22.5 -10t5.5 -23q-2 -13 -15 -23t-27 -10t-22 10t-6 23z" />
<glyph unicode="&#xdd;" horiz-adv-x="681" d="M171 691h73l169 -326q51 54 155 163.5t155 162.5h72l-364 -380l-66 -311h-56l66 311q-181 336 -204 380zM478 729l95 98h86l-143 -98h-38z" />
<glyph unicode="&#xde;" horiz-adv-x="535" d="M17 -192l188 884h55l-46 -214q66 34 145 34q101 -2 156 -77.5t32 -181.5q-23 -109 -110 -185.5t-188 -76.5q-64 0 -132 34l-46 -217h-54zM134 99q-7 -20 30.5 -35.5t95.5 -17.5q77 2 145 62t86 144q17 82 -25.5 143t-118.5 61q-52 0 -95.5 -14.5t-55.5 -33.5z" />
<glyph unicode="&#xdf;" horiz-adv-x="520" d="M13 -168l181 854h222q76 -1 119.5 -52t29.5 -120q-10 -47 -42.5 -86t-78.5 -64q42 -24 60 -69t7 -98q-17 -79 -86.5 -136.5t-153.5 -58.5h-86l-41 52h138q61 3 111.5 45t62.5 98t-24 96.5t-107 44.5h-150l-107 -506h-55zM187 392h167q55 2 100 36.5t56 85.5 q10 47 -20.5 81.5t-84.5 37.5h-167z" />
<glyph unicode="&#xe0;" horiz-adv-x="406" d="M66 144q14 66 73.5 110.5t129.5 44.5h104l3 14q7 38 2.5 68.5t-23.5 49.5t-47 20q-63 0 -121 -16l-2 52q70 19 136 19q60 -1 92.5 -51.5t21.5 -121.5l-2 -10l-1 -3q-71 -296 -53 -320h-69l6 30q-57 -40 -120 -40q-67 0 -105 45t-25 109zM121 144q-9 -41 16.5 -69.5 t70.5 -28.5q46 0 84.5 28.5t47.5 69.5l22 101h-104q-48 0 -87.5 -28.5t-49.5 -72.5zM209 636h87l52 -98h-37z" />
<glyph unicode="&#xe1;" horiz-adv-x="406" d="M66 144q14 66 73.5 110.5t129.5 44.5h104l3 14q7 38 2.5 68.5t-23.5 49.5t-47 20q-63 0 -121 -16l-2 52q70 19 136 19q60 -1 92.5 -51.5t21.5 -121.5l-2 -10l-1 -3q-71 -296 -53 -320h-69l6 30q-57 -40 -120 -40q-67 0 -105 45t-25 109zM121 144q-9 -41 16.5 -69.5 t70.5 -28.5q46 0 84.5 28.5t47.5 69.5l22 101h-104q-48 0 -87.5 -28.5t-49.5 -72.5zM280 538l95 98h86l-143 -98h-38z" />
<glyph unicode="&#xe2;" horiz-adv-x="406" d="M66 144q14 66 73.5 110.5t129.5 44.5h104l3 14q7 38 2.5 68.5t-23.5 49.5t-47 20q-63 0 -121 -16l-2 52q70 19 136 19q60 -1 92.5 -51.5t21.5 -121.5l-2 -10l-1 -3q-71 -296 -53 -320h-69l6 30q-57 -40 -120 -40q-67 0 -105 45t-25 109zM121 144q-9 -41 16.5 -69.5 t70.5 -28.5q46 0 84.5 28.5t47.5 69.5l22 101h-104q-48 0 -87.5 -28.5t-49.5 -72.5zM204 559l138 113l91 -114l-42 -34l-63 81l-98 -81z" />
<glyph unicode="&#xe3;" horiz-adv-x="406" d="M70 151q14 66 73.5 110.5t129.5 44.5h104l3 14q12 57 -6.5 97t-61.5 41q-63 0 -121 -16l-2 52q70 19 136 19q60 -1 92.5 -51.5t21.5 -121.5l-2 -10l-1 -3q-71 -296 -53 -320h-69l6 30q-57 -40 -120 -40q-67 0 -105 45t-25 109zM125 151q-9 -41 16.5 -69.5t70.5 -28.5 q46 0 84.5 28.5t47.5 69.5l22 101h-104q-48 0 -87.5 -28.5t-49.5 -72.5zM178 578q51 30 102 30q17 0 41 -8t38 -8q49 0 85 26l11 -39q-47 -31 -101 -31q-31 0 -53 11l1 -1q-15 5 -31 5q-45 0 -78 -25z" />
<glyph unicode="&#xe4;" horiz-adv-x="406" d="M70 151q14 66 73.5 110.5t129.5 44.5h104l3 14q12 57 -6.5 97t-61.5 41q-63 0 -121 -16l-2 52q70 19 136 19q60 -1 92.5 -51.5t21.5 -121.5l-2 -10l-1 -3q-71 -296 -53 -320h-69l6 30q-57 -40 -120 -40q-67 0 -105 45t-25 109zM125 151q-9 -41 16.5 -69.5t70.5 -28.5 q46 0 84.5 28.5t47.5 69.5l22 101h-104q-48 0 -87.5 -28.5t-49.5 -72.5zM245 639q3 14 15 23.5t27 9.5q14 0 22.5 -10t5.5 -23q-1 -6 -5.5 -12t-10 -10.5t-12.5 -7.5t-14 -3q-15 0 -22.5 10t-5.5 23zM375 639q2 9 8.5 16.5t15.5 12t18 4.5q14 0 22.5 -10t5.5 -23 q-1 -8 -7.5 -16t-16 -12.5t-18.5 -4.5q-14 0 -22 10t-6 23z" />
<glyph unicode="&#xe6;" horiz-adv-x="743" d="M68 144q13 64 71 109.5t126 45.5h105q1 3 11 26q10 53 -10.5 88.5t-60.5 37.5q-63 0 -120 -16l-3 52q71 19 136 19q42 -1 71.5 -27t40.5 -69q37 45 83.5 71t92.5 26q84 0 126 -73t19 -180l-6 -30h-338l-8 -36q3 -61 36 -102t84 -41q54 0 137 38l12 -48q-63 -31 -134 -43 q-8 -1 -26 -1q-90 0 -134 73q-8 -51 6 -64h-73l6 30q-57 -40 -119 -40q-68 0 -106 45t-25 109zM124 144q-9 -41 16 -69.5t71 -28.5q45 0 83.5 28.5t47.5 69.5l6 28q0 32 5 59l3 14h-102q-45 0 -83 -29.5t-47 -71.5zM424 277h283q10 75 -21 124.5t-87 49.5t-106.5 -49.5 t-68.5 -124.5z" />
<glyph unicode="&#xe7;" horiz-adv-x="493" d="M86 249q23 106 109.5 181.5t186.5 75.5q102 0 159 -84l-46 -38q-47 67 -125 67q-77 0 -144 -59t-85 -143q-18 -85 24 -144t119 -59q76 0 149 63l31 -38q-82 -71 -175 -80l-8 -14q15 -6 27.5 -23t8.5 -37q-7 -32 -69 -67l-40 38q19 2 39 9.5t22 17.5q3 15 -9 21.5t-27 6.5 q-1 0 -3 -1h-2h-11l13 53q-81 17 -122.5 88t-21.5 166z" />
<glyph unicode="&#xe8;" horiz-adv-x="456" d="M74 231l3 18q23 107 98.5 182.5t157.5 75.5q84 0 125.5 -73t18.5 -180l-6 -30h-343q-11 -77 22.5 -127.5t95.5 -51.5q54 0 137 38l11 -48q-63 -31 -133 -43q-8 -1 -26 -1q-83 0 -130 69.5t-31 170.5zM140 277h289q10 75 -21 124.5t-87 49.5q-53 0 -104 -50t-77 -124z M238 636h87l52 -98h-37z" />
<glyph unicode="&#xe9;" horiz-adv-x="456" d="M74 231l3 18q23 107 98.5 182.5t157.5 75.5q84 0 125.5 -73t18.5 -180l-6 -30h-343q-11 -77 22.5 -127.5t95.5 -51.5q54 0 137 38l11 -48q-63 -31 -133 -43q-8 -1 -26 -1q-83 0 -130 69.5t-31 170.5zM140 277h289q10 75 -21 124.5t-87 49.5q-53 0 -104 -50t-77 -124z M309 538l95 98h86l-143 -98h-38z" />
<glyph unicode="&#xea;" horiz-adv-x="456" d="M74 231l3 18q23 107 98.5 182.5t157.5 75.5q84 0 125.5 -73t18.5 -180l-6 -30h-343q-11 -77 22.5 -127.5t95.5 -51.5q54 0 137 38l11 -48q-63 -31 -133 -43q-8 -1 -26 -1q-83 0 -130 69.5t-31 170.5zM140 277h289q10 75 -21 124.5t-87 49.5q-53 0 -104 -50t-77 -124z M229 559l138 113l91 -114l-42 -34l-63 81l-98 -81z" />
<glyph unicode="&#xeb;" horiz-adv-x="456" d="M74 231l3 18q23 107 98.5 182.5t157.5 75.5q84 0 125.5 -73t18.5 -180l-6 -30h-343q-11 -77 22.5 -127.5t95.5 -51.5q54 0 137 38l11 -48q-63 -31 -133 -43q-8 -1 -26 -1q-83 0 -130 69.5t-31 170.5zM140 277h289q10 75 -21 124.5t-87 49.5q-53 0 -104 -50t-77 -124z M261 639q3 14 15.5 23.5t26.5 9.5t22.5 -10t5.5 -23q-2 -13 -15 -23t-27 -10t-22 10t-6 23zM391 639q3 14 15.5 23.5t26.5 9.5t22.5 -10t5.5 -23q-2 -13 -15 -23t-27 -10t-22 10t-6 23z" />
<glyph unicode="&#xec;" horiz-adv-x="211" d="M88 0l106 500h53l-106 -500h-53zM136 643h87l52 -98h-37z" />
<glyph unicode="&#xed;" horiz-adv-x="211" d="M59 0l106 500h54l-106 -500h-54zM155 545l95 98h86l-143 -98h-38z" />
<glyph unicode="&#xee;" horiz-adv-x="177" d="M59 0l106 500h53l-106 -500h-53zM95 566l138 113l91 -114l-42 -34l-63 81l-98 -81z" />
<glyph unicode="&#xef;" horiz-adv-x="177" d="M59 0l106 500h53l-106 -500h-53zM141 639q3 14 15.5 23.5t26.5 9.5t22.5 -10t5.5 -23q-2 -13 -15 -23t-27 -10t-22 10t-6 23zM233 639q3 14 15 23.5t27 9.5q14 0 22.5 -10t5.5 -23q-2 -13 -15 -23t-27 -10q-15 0 -22.5 10t-5.5 23z" />
<glyph unicode="&#xf0;" horiz-adv-x="489" d="M71 81l58 41q37 -73 114 -73q61 0 113.5 38.5t78.5 97.5q26 73 43 153l3 12q-82 -75 -181 -75q-83 0 -132 58.5t-33 141.5l2 7q18 86 92 147.5t161 61.5q83 0 131 -60.5t37 -145.5q-8 -54 -27 -137l-5 -26q-18 -85 -44 -150q-31 -79 -104 -129t-154 -50q-48 0 -88.5 24 t-64.5 64zM188 477q-10 -62 26 -105t97 -43q66 0 122 45t69 110q13 61 -24.5 106t-98.5 45q-66 0 -121.5 -47t-69.5 -111z" />
<glyph unicode="&#xf1;" horiz-adv-x="433" d="M39 7l95 448q7 34 -5 48h69l-11 -50q65 62 142 62q70 0 108 -53.5t24 -131.5l-66 -323h-55l68 323q11 55 -17 92.5t-78 37.5q-43 0 -85.5 -34t-63.5 -82l-71 -337h-54zM201 623q44 27 100 27q19 0 43 -8.5t41 -8.5q41 0 79 26l12 -42q-48 -28 -101 -28q-34 0 -53 12l1 -1 q-13 6 -35 6q-33 0 -77 -25z" />
<glyph unicode="&#xf2;" horiz-adv-x="527" d="M71 247q22 107 107.5 183t182.5 76t149 -76t29 -183q-23 -106 -107 -181.5t-181 -75.5t-150 75.5t-30 181.5zM126 247q-18 -83 22 -142.5t115 -59.5q73 0 138 59.5t83 142.5q18 85 -21.5 144.5t-113.5 59.5q-75 0 -140 -59.5t-83 -144.5zM274 636h87l52 -98h-37z" />
<glyph unicode="&#xf3;" horiz-adv-x="527" d="M71 247q22 107 107.5 183t182.5 76t149 -76t29 -183q-23 -106 -107 -181.5t-181 -75.5t-150 75.5t-30 181.5zM126 247q-18 -83 22 -142.5t115 -59.5q73 0 138 59.5t83 142.5q18 85 -21.5 144.5t-113.5 59.5q-75 0 -140 -59.5t-83 -144.5zM351 538l95 98h86l-143 -98h-38z " />
<glyph unicode="&#xf4;" horiz-adv-x="513" d="M71 247q22 107 107.5 183t182.5 76t149 -76t29 -183q-23 -106 -107 -181.5t-181 -75.5t-150 75.5t-30 181.5zM126 247q-18 -83 22 -142.5t115 -59.5q73 0 138 59.5t83 142.5q18 85 -21.5 144.5t-113.5 59.5q-75 0 -140 -59.5t-83 -144.5zM258 559l138 113l91 -114 l-42 -34l-63 81l-98 -81z" />
<glyph unicode="&#xf5;" horiz-adv-x="513" d="M71 247q22 107 107.5 183t182.5 76t149 -76t29 -183q-23 -106 -107 -181.5t-181 -75.5t-150 75.5t-30 181.5zM126 247q-18 -83 22 -142.5t115 -59.5q73 0 138 59.5t83 142.5q18 85 -21.5 144.5t-113.5 59.5q-75 0 -140 -59.5t-83 -144.5zM254 616q41 19 79 19 q28 0 61 -14t57 -14q32 0 63 18l6 -43q-38 -20 -79 -20q-46 0 -72 20q-20 8 -45 8q-31 0 -63 -17z" />
<glyph unicode="&#xf6;" horiz-adv-x="527" d="M71 247q22 107 107.5 183t182.5 76t149 -76t29 -183q-23 -106 -107 -181.5t-181 -75.5t-150 75.5t-30 181.5zM126 247q-18 -83 22 -142.5t115 -59.5q73 0 138 59.5t83 142.5q18 85 -21.5 144.5t-113.5 59.5q-75 0 -140 -59.5t-83 -144.5zM302 639q3 14 15.5 23.5 t26.5 9.5t22.5 -10t5.5 -23q-2 -13 -15 -23t-27 -10t-22 10t-6 23zM432 639q3 14 15.5 23.5t26.5 9.5t22.5 -10t5.5 -23q-2 -13 -15 -23t-27 -10t-22 10t-6 23z" />
<glyph unicode="&#xf7;" horiz-adv-x="425" d="M92 273l12 54h349l-12 -54h-349zM197 136l17 76h76l-17 -76h-76zM248 376l17 76h76l-17 -76h-76z" />
<glyph unicode="&#xf8;" horiz-adv-x="513" d="M71 247q22 107 107.5 183t182.5 76q98 0 154 -85l-50 -36q-42 66 -116 66q-75 0 -140 -59.5t-83 -144.5q-13 -59 2 -104l-49 -36q-22 70 -8 140zM89 87l48 36q41 -78 126 -78q73 0 138 59.5t83 142.5q13 63 -10 119l51 36q31 -76 14 -155q-23 -106 -107 -181.5 t-181 -75.5q-110 0 -162 97z" />
<glyph unicode="&#xf9;" horiz-adv-x="450" d="M81 179l67 319h54l-67 -316v-5q-9 -53 19 -91.5t77 -38.5q44 0 85.5 34.5t60.5 81.5l72 337h54l-95 -446q-3 -17 -1.5 -33t5.5 -21h-69l11 53q-67 -62 -141 -62q-69 0 -106.5 53.5t-23.5 130.5zM237 636h87l52 -98h-37z" />
<glyph unicode="&#xfa;" horiz-adv-x="450" d="M81 179l67 319h54l-67 -316v-5q-9 -53 19 -91.5t77 -38.5q44 0 85.5 34.5t60.5 81.5l72 337h54l-95 -446q-3 -17 -1.5 -33t5.5 -21h-69l11 53q-67 -62 -141 -62q-69 0 -106.5 53.5t-23.5 130.5zM298 538l95 98h86l-143 -98h-38z" />
<glyph unicode="&#xfb;" horiz-adv-x="450" d="M81 179l67 319h54l-67 -316v-5q-9 -53 19 -91.5t77 -38.5q44 0 85.5 34.5t60.5 81.5l72 337h54l-95 -446q-3 -17 -1.5 -33t5.5 -21h-69l11 53q-67 -62 -141 -62q-69 0 -106.5 53.5t-23.5 130.5zM226 559l138 113l91 -114l-42 -34l-63 81l-98 -81z" />
<glyph unicode="&#xfc;" horiz-adv-x="450" d="M81 179l67 319h54l-67 -316v-5q-9 -53 19 -91.5t77 -38.5q44 0 85.5 34.5t60.5 81.5l72 337h54l-95 -446q-3 -17 -1.5 -33t5.5 -21h-69l11 53q-67 -62 -141 -62q-69 0 -106.5 53.5t-23.5 130.5zM258 639q3 14 15.5 23.5t26.5 9.5t22.5 -10t5.5 -23q-2 -13 -15 -23 t-27 -10t-22 10t-6 23zM388 639q3 14 15.5 23.5t26.5 9.5t22.5 -10t5.5 -23q-2 -13 -15 -23t-27 -10t-22 10t-6 23z" />
<glyph unicode="&#xfd;" horiz-adv-x="535" d="M7 -189l20 56q7 -8 36 -8q34 0 69 22.5t59 63.5q10 16 29 47t29 47q-8 40 -40.5 209t-50.5 258h58l74 -398q35 58 76 125t90.5 147.5t76.5 125.5h58l-288 -467q-7 -13 -31 -52.5t-36 -61.5q-33 -55 -85.5 -87.5t-101.5 -32.5q-23 0 -42 6zM361 538l95 98h86l-143 -98h-38 z" />
<glyph unicode="&#xfe;" horiz-adv-x="517" d="M17 -191l187 878h55l-46 -212q68 33 144 33q101 -2 155 -77t32 -180q-23 -108 -109.5 -184t-186.5 -76q-63 0 -131 34l-46 -216h-54zM133 98q-6 -20 31.5 -35t94.5 -17q77 2 144.5 61.5t85.5 142.5q17 81 -25.5 141.5t-117.5 60.5q-52 0 -95.5 -14t-54.5 -33z" />
<glyph unicode="&#xff;" horiz-adv-x="535" d="M7 -189l20 56q7 -8 36 -8q34 0 69 22.5t59 63.5q10 16 29 47t29 47q-8 40 -40.5 209t-50.5 258h58l74 -398q35 58 76 125t90.5 147.5t76.5 125.5h58l-288 -467q-7 -13 -31 -52.5t-36 -61.5q-33 -55 -85.5 -87.5t-101.5 -32.5q-23 0 -42 6zM311 639q3 14 15.5 23.5 t26.5 9.5t22.5 -10t5.5 -23q-2 -13 -15 -23t-27 -10t-22 10t-6 23zM441 639q3 14 15.5 23.5t26.5 9.5t22.5 -10t5.5 -23q-2 -13 -15 -23t-27 -10t-22 10t-6 23z" />
<glyph unicode="&#x152;" horiz-adv-x="1056" d="M101 345q31 145 144.5 247.5t243.5 102.5q173 0 229 -150l31 146h405l-11 -53h-350l-52 -243h299l-11 -55h-299l-61 -285h350l-11 -55h-405l30 143q-28 -33 -54 -55q-110 -97 -239 -97q-128 0 -199.5 102.5t-39.5 251.5zM157 345q-26 -125 30 -211.5t164 -86.5 q103 0 193.5 79t125.5 193l11 51q16 115 -41 191q-55 78 -163 78q-107 0 -200.5 -85.5t-119.5 -208.5z" />
<glyph unicode="&#x153;" horiz-adv-x="880" d="M74 247q22 107 107.5 183t182.5 76q65 0 113 -38.5t65 -100.5q39 62 95.5 101t111.5 39q84 0 126 -73t19 -180l-6 -30h-344q-11 -77 22.5 -127.5t95.5 -51.5q54 0 137 38l12 -48q-63 -31 -134 -43q-8 -1 -26 -1q-60 0 -102.5 38t-56.5 101q-43 -62 -107.5 -101 t-130.5 -39q-97 0 -150 75.5t-30 181.5zM128 247q-18 -83 22.5 -142.5t115.5 -59.5q73 0 137.5 59.5t82.5 142.5q18 85 -21.5 144.5t-112.5 59.5q-75 0 -140.5 -59.5t-83.5 -144.5zM556 277h289q10 75 -21 124.5t-87 49.5q-53 0 -104 -50t-77 -124z" />
<glyph unicode="&#x178;" horiz-adv-x="681" d="M171 691h73l169 -326q51 54 155 163.5t155 162.5h72l-364 -380l-66 -311h-56l66 311q-181 336 -204 380zM394 742q3 14 15.5 23.5t26.5 9.5t22.5 -10t5.5 -23q-2 -13 -15 -23t-27 -10t-22 10t-6 23zM524 742q3 14 15.5 23.5t26.5 9.5t22.5 -10t5.5 -23q-2 -13 -15 -23 t-27 -10t-22 10t-6 23z" />
<glyph unicode="&#x2c6;" horiz-adv-x="268" d="M141 559l138 113l91 -114l-42 -34l-63 81l-98 -81z" />
<glyph unicode="&#x2dc;" horiz-adv-x="334" d="M157 616q41 19 79 19q28 0 61 -14t57 -14q32 0 63 18l6 -43q-38 -20 -79 -20q-46 0 -72 20q-20 8 -45 8q-31 0 -63 -17z" />
<glyph unicode="&#x2000;" horiz-adv-x="413" />
<glyph unicode="&#x2001;" horiz-adv-x="827" />
<glyph unicode="&#x2002;" horiz-adv-x="413" />
<glyph unicode="&#x2003;" horiz-adv-x="827" />
<glyph unicode="&#x2004;" horiz-adv-x="275" />
<glyph unicode="&#x2005;" horiz-adv-x="206" />
<glyph unicode="&#x2006;" horiz-adv-x="137" />
<glyph unicode="&#x2007;" horiz-adv-x="137" />
<glyph unicode="&#x2008;" horiz-adv-x="103" />
<glyph unicode="&#x2009;" horiz-adv-x="165" />
<glyph unicode="&#x200a;" horiz-adv-x="45" />
<glyph unicode="&#x2010;" horiz-adv-x="421" d="M93 266l12 54h349l-12 -54h-349z" />
<glyph unicode="&#x2011;" horiz-adv-x="421" d="M93 266l12 54h349l-12 -54h-349z" />
<glyph unicode="&#x2012;" horiz-adv-x="421" d="M93 266l12 54h349l-12 -54h-349z" />
<glyph unicode="&#x2013;" horiz-adv-x="416" d="M93 266l12 54h349l-12 -54h-349z" />
<glyph unicode="&#x2014;" horiz-adv-x="532" d="M94 266l12 54h460l-12 -54h-460z" />
<glyph unicode="&#x2018;" horiz-adv-x="150" d="M152 584l70 103l16 -9l-26 -76l15 -59l-59 -25z" />
<glyph unicode="&#x2019;" horiz-adv-x="159" d="M143 546l46 68l7 67l61 5l-7 -70l-96 -84z" />
<glyph unicode="&#x201a;" horiz-adv-x="172" d="M19 -54l52 63l15 67h60l-16 -72l-104 -75z" />
<glyph unicode="&#x201c;" horiz-adv-x="218" d="M159 616l23 70l59 -5l-22 -67q6 -24 18 -68l-16 -14zM230 616l23 70l59 -5l-22 -67q6 -24 18 -68l-16 -14z" />
<glyph unicode="&#x201d;" horiz-adv-x="237" d="M144 546l46 68l6 67l61 5l-7 -70l-96 -84zM215 546l46 68l6 67l61 5l-7 -70l-96 -84z" />
<glyph unicode="&#x201e;" horiz-adv-x="231" d="M10 -53l52 64l12 67h61l-15 -71l-102 -76zM82 -54l52 64l14 67h59l-15 -72l-104 -76z" />
<glyph unicode="&#x2022;" horiz-adv-x="209" d="M118 380q6 27 31 47.5t52 20.5q26 0 42.5 -20.5t10.5 -47.5q-5 -25 -30.5 -45t-51.5 -20q-27 0 -43 20t-11 45z" />
<glyph unicode="&#x2026;" horiz-adv-x="435" d="M38 0l16 76h76l-16 -76h-76zM179 0l16 76h76l-16 -76h-76zM320 0l16 76h76l-16 -76h-76z" />
<glyph unicode="&#x202f;" horiz-adv-x="165" />
<glyph unicode="&#x2039;" horiz-adv-x="352" d="M91 248l300 249l31 -38l-254 -211q27 -33 82.5 -103t82.5 -103l-46 -40z" />
<glyph unicode="&#x203a;" horiz-adv-x="343" d="M47 42l254 206q-7 9 -165 211l48 38l193 -249l-299 -246z" />
<glyph unicode="&#x205f;" horiz-adv-x="206" />
<glyph unicode="&#x20ac;" horiz-adv-x="745" d="M91 254l12 55h97q0 1 1 5t1 6q0 7 3 19q2 11 13 47v2h-98l12 55h109q54 109 155 178t210 69q138 0 223 -115l-48 -40q-70 99 -187 99q-86 0 -167.5 -53t-127.5 -138h330l-12 -55h-343q-10 -25 -14 -49q-3 -8 -3 -17q-1 -4 -1.5 -7.5t-0.5 -5.5h345l-12 -55h-333 q8 -89 67.5 -148t146.5 -59q119 0 230 103l30 -44q-132 -115 -271 -115q-115 0 -187.5 74t-74.5 189h-105z" />
<glyph unicode="&#x2122;" horiz-adv-x="417" d="M161 636l9 42h160l-9 -42h-57l-36 -169h-45l36 169h-58zM289 467l45 211h36l33 -85q24 33 41 53q4 5 13.5 16t13.5 16h35l-45 -211h-43l24 116q-7 -9 -17 -21t-16 -20t-9 -11h-24l-19 52l-24 -116h-44z" />
<glyph unicode="&#xe000;" horiz-adv-x="500" d="M0 0v500h500v-500h-500z" />
<glyph unicode="&#xfb01;" horiz-adv-x="505" d="M106 0l92 434h-73l11 55h72l3 18l3 12q19 70 73 120.5t112 50.5q32 0 56 -3l-28 -55q-16 4 -39 4q-41 -2 -76.5 -39t-46.5 -89l-4 -19h127l-103 -489h-53l92 434h-74l-92 -434h-52z" />
<glyph unicode="&#xfb02;" horiz-adv-x="490" d="M106 0l92 434h-74l11 55h73l3 18l3 12q19 71 72.5 120t112.5 51h54l-146 -690h-56l92 434h-93l-92 -434h-52zM261 489h93l32 147q-40 -3 -75 -39.5t-46 -88.5z" />
</font>
</defs>
</svg>
