<?xml version="1.0" standalone="no"?>
<!DOCTYPE svg PUBLIC "-//W3C//DTD SVG 1.1//EN" "http://www.w3.org/Graphics/SVG/1.1/DTD/svg11.dtd" >
<svg xmlns="http://www.w3.org/2000/svg">
<metadata></metadata>
<defs>
<font id="foglihtenblackpcsblackpcs" horiz-adv-x="1840" >
<font-face units-per-em="2288" ascent="1768" descent="-520" />
<missing-glyph horiz-adv-x="720" />
<glyph horiz-adv-x="2288" />
<glyph horiz-adv-x="2288" />
<glyph unicode="&#xd;" horiz-adv-x="666" />
<glyph unicode=" "  horiz-adv-x="720" />
<glyph unicode="&#x09;" horiz-adv-x="720" />
<glyph unicode="&#xa0;" horiz-adv-x="720" />
<glyph unicode="!" horiz-adv-x="740" d="M60 1110q0 8 121.5 14t188.5 6t188.5 -6t121.5 -14q0 -105 -30 -195t-72.5 -154t-85 -123.5t-72.5 -130t-30 -147.5h-40q0 76 -30 147t-72.5 130.5t-85 123.5t-72.5 154t-30 195zM228 100q0 65 38.5 104.5t105.5 39.5q65 0 104.5 -38.5t39.5 -105.5q0 -65 -38.5 -104.5 t-105.5 -39.5q-65 0 -104.5 38.5t-39.5 105.5z" />
<glyph unicode="&#x22;" horiz-adv-x="560" d="M70 813l16 321q95 -1 124.5 -15.5t29.5 -60.5q0 -3 -9 -104l-15 -149zM310 813l16 321q95 -1 124.5 -15.5t29.5 -60.5q0 -3 -9 -104l-15 -149z" />
<glyph unicode="#" horiz-adv-x="1040" d="M85 310v40h217l35 340h-212v40h216l34 322l40 -4l-33 -318h299l34 322l40 -4l-33 -318h233v-40h-238l-35 -340h233v-40h-237l-33 -322l-40 4l33 318h-300l-33 -322l-40 4l33 318h-213zM342 350h300l35 340h-300z" />
<glyph unicode="$" horiz-adv-x="1570" d="M80 662q0 166 166.5 254.5t483.5 93.5v150h40v-150q162 -1 259.5 -17t203.5 -54q28 -10 57.5 -26t46 -28.5t17.5 -15.5l6 2q-1 8 -4 67l-6 102l20 1l16 -308l-140 -3l-2 22q-9 100 -129 158.5t-345 59.5v-220q236 -21 292 -30q274 -40 376 -158q72 -84 72 -212 q0 -152 -189.5 -234t-550.5 -86v-150h-40v150q-126 1 -283.5 26t-218.5 58q-21 11 -56.5 35.5t-39.5 36.5l-8 -4q6 -17 8 -56l5 -96l-20 -1l-17 321l110 1q4 -60 55.5 -113.5t129 -89t166 -56.5t169.5 -22v222q-60 3 -102.5 6t-100.5 9.5t-100 15t-91.5 23.5t-84 33.5 t-69 46t-55.5 61t-34 78t-13 97.5zM450 887q0 -33 20 -56.5t61 -38.5t86.5 -23t112.5 -15v216q-127 -2 -203.5 -25t-76.5 -58zM770 70q175 2 281.5 28t106.5 67q0 26 -13 45.5t-41 32t-59 21t-80.5 13.5t-90 7.5t-102.5 5.5h-2v-220z" />
<glyph unicode="%" horiz-adv-x="1990" d="M40 800q0 122 120.5 186t349.5 64t349 -64t120 -186t-120 -186t-349 -64t-349.5 64t-120.5 186zM404 810q0 -107 27 -163.5t79 -56.5q51 0 78 51.5t27 148.5q0 107 -27 163.5t-79 56.5q-51 0 -78 -51.5t-27 -148.5zM511 50l885 911l30 -26l-885 -911zM1010 240 q0 122 120.5 186t349.5 64t349.5 -64t120.5 -186t-120.5 -186t-349.5 -64t-349.5 64t-120.5 186zM1375 250q0 -220 105 -220q51 0 78.5 51.5t27.5 148.5q0 107 -27.5 163.5t-79.5 56.5q-104 0 -104 -200z" />
<glyph unicode="&#x26;" horiz-adv-x="2060" d="M60 340q0 75 56.5 136t146.5 97.5t188 57t193 23.5v4q-69 6 -140 28.5t-127.5 69t-56.5 104.5q0 93 159 141.5t462 48.5q76 0 145 -19.5t123.5 -61t74.5 -98.5l256 279h40v-416q0 -26 -4 -37t-16 -23v-4h380v-40h-360v-360q0 -121 37.5 -180.5t122.5 -59.5 q101 0 176.5 59t104.5 165l39 -11q-32 -117 -118 -185t-202 -68q-179 0 -318.5 48t-222.5 135q-136 -183 -361 -183q-380 0 -579 89.5t-199 260.5zM700 340q0 -152 37.5 -231t109.5 -79q97 0 181 45t144 130q-72 93 -72 215v210h-184q-105 0 -160.5 -74.5t-55.5 -215.5z M820 860q0 -93 32 -141.5t94 -48.5h153l154 168q-18 76 -105.5 124t-206.5 48q-121 0 -121 -150z" />
<glyph unicode="'" horiz-adv-x="320" d="M70 813l16 321q95 -1 124.5 -15.5t29.5 -60.5q0 -3 -9 -104l-15 -149z" />
<glyph unicode="(" horiz-adv-x="960" d="M60 520q0 96 29 183.5t79.5 157.5t119.5 131t148 105.5t166.5 79t173 54.5t169.5 29l4 -19q-135 -14 -192 -195t-57 -526t57 -526.5t192 -195.5l-4 -19q-98 10 -198.5 37t-200.5 70t-187 106t-154 139.5t-106 177t-39 211.5z" />
<glyph unicode=")" horiz-adv-x="960" d="M11 -202q135 14 192 195.5t57 526.5t-57 526t-192 195l4 19q84 -9 169.5 -29t173 -54.5t166.5 -79t148 -105.5t119.5 -131t79.5 -157.5t29 -183.5q0 -111 -39 -211.5t-106 -177t-154 -139.5t-187 -106t-200.5 -70t-198.5 -37z" />
<glyph unicode="*" horiz-adv-x="863" d="M161 792l146 112v11l-146 112l33 58l171 -71l9 6l25 183h66l25 -183l8 -6l172 71l32 -58l-146 -112v-11l146 -112l-32 -58l-172 71l-8 -5l-25 -183h-66l-25 183l-9 5l-171 -71z" />
<glyph unicode="+" horiz-adv-x="900" d="M60 410l4 220h280v290l220 -4v-286h276l-4 -220h-272v-274l-220 4v270h-284z" />
<glyph unicode="," horiz-adv-x="408" d="M60 100q0 65 38.5 104.5t105.5 39.5q65 0 104.5 -38.5t39.5 -105.5q0 -127 -56 -205t-148 -78v40q44 0 78 24.5t40 59.5q3 18 10 28l-8 6q-5 -7 -22.5 -13t-37.5 -6q-65 0 -104.5 38.5t-39.5 105.5z" />
<glyph unicode="-" horiz-adv-x="600" d="M60 410l10 220h470l-10 -220h-470z" />
<glyph unicode="." horiz-adv-x="408" d="M60 100q0 65 38.5 104.5t105.5 39.5q65 0 104.5 -38.5t39.5 -105.5q0 -65 -38.5 -104.5t-105.5 -39.5q-65 0 -104.5 38.5t-39.5 105.5z" />
<glyph unicode="/" horiz-adv-x="1180" d="M26 -23q337 394 481 578l470 643l177 -131q-300 -346 -505 -609q-188 -241 -453 -621z" />
<glyph unicode="0" horiz-adv-x="1680" d="M60 520q0 238 214.5 384t565.5 146t565.5 -146t214.5 -384t-214.5 -384t-565.5 -146t-565.5 146t-214.5 384zM700 520q0 -244 36 -372t104 -128q69 0 105.5 128t36.5 372t-36.5 372t-105.5 128q-68 0 -104 -128t-36 -372z" />
<glyph unicode="1" horiz-adv-x="1040" d="M56 597q240 275 344 443h460v-880q0 -94 19.5 -117t100.5 -23h20v-20h-940v20h40q81 0 100.5 23t19.5 117v437q0 93 6 130l-10 3q-18 -29 -55 -72q-12 -16 -30.5 -38t-31.5 -36l-13 -13z" />
<glyph unicode="2" horiz-adv-x="1340" d="M40 0v109q6 1 14.5 5.5t25.5 17.5t32.5 26t51 42.5t65.5 53.5q20 19 71 64t87.5 78t84.5 84.5t78.5 95t52.5 97t22 102.5q0 114 -40 173t-116 59q-137 0 -213 -85t-76 -208v-24h-100v350h20v-62q0 -43 -3 -66l7 -2q65 72 179.5 106t239.5 34q346 0 524 -66.5t178 -193.5 q0 -47 -22 -91t-66 -82t-94 -70t-122 -66.5t-131.5 -60.5t-142.5 -61.5t-137 -60.5l-338 -158l5 -33l890 250q8 2 22 6q73 19 93 36q28 24 37 90h40l-16 -489h-1203z" />
<glyph unicode="3" horiz-adv-x="1380" d="M60 104v176h60v-46q14 -89 99 -142.5t219 -53.5q118 0 180 69.5t62 202.5q0 137 -52 208.5t-152 71.5h-60v40h60q83 0 128.5 49t45.5 141t-42.5 140t-121.5 48q-121 -1 -203.5 -55.5t-82.5 -128.5v-30h-100v225h20v-34q0 -26 -2 -34l5 -2q49 42 172 71.5t211 29.5 q704 0 704 -200q0 -48 -53.5 -93t-130 -75t-154 -49t-132.5 -22v-2q59 -3 132 -17.5t152.5 -42t145 -63t108 -87.5t42.5 -109q0 -146 -213.5 -223t-620.5 -77q-117 3 -242.5 32t-183.5 82z" />
<glyph unicode="4" horiz-adv-x="1700" d="M40 220v9q8 4 21 13t52.5 42t77.5 73t87 109.5t88.5 147.5t75.5 190t55 236h787l-829 -780h385v69l640 530v-599h102v-40h-102v-60q0 -94 23 -117t117 -23h40v-20h-1000v20h40q94 0 117 23t23 117v60h-800z" />
<glyph unicode="5" horiz-adv-x="1400" d="M60 104v176h60v-46q14 -91 90 -143.5t208 -52.5q137 0 209.5 80t72.5 232q0 161 -61.5 245.5t-178.5 84.5q-86 0 -189.5 -28.5t-160.5 -85.5l-34 7l39 410q6 57 24 57h1009q63 0 78.5 10.5t23.5 58.5h20l-18 -349l-998 160q-14 2 -19 2q-28 0 -47.5 -15t-30 -42.5 t-15.5 -51.5t-8 -58l-13 -126q61 46 160 68.5t179 22.5q429 0 654.5 -95t225.5 -275q0 -176 -225.5 -268t-655.5 -92q-117 0 -227.5 29.5t-171.5 84.5z" />
<glyph unicode="6" horiz-adv-x="1660" d="M60 520q0 157 108 277.5t305.5 186.5t455.5 66q153 0 298 -35.5t215 -95.5v-121h-100v33q-39 86 -132 129.5t-183 43.5q-131 0 -214 -74.5t-115 -218.5q64 19 150 19q367 0 559.5 -95t192.5 -275t-198 -275t-574 -95q-374 0 -571 136t-197 394zM680 522q0 -240 37.5 -366 t109.5 -126q84 0 113.5 78.5t29.5 251.5q0 87 -4.5 143t-17 101t-37.5 65.5t-64 20.5q-90 0 -157 -23q-10 -63 -10 -145z" />
<glyph unicode="7" horiz-adv-x="1340" d="M40 552l17 488h1263v-110q-42 -4 -89.5 -26t-104 -75.5t-101 -131t-74.5 -206.5t-31 -287v-204h-640v28q0 189 365 490q183 152 459 349l73 52l-7 13q-186 -56 -546.5 -157t-410.5 -115q-81 -23 -102 -39.5t-31 -68.5h-40z" />
<glyph unicode="8" horiz-adv-x="1680" d="M60 305q0 66 65 124t162 94t188.5 58t164.5 28v3q-53 5 -123.5 19.5t-152.5 39.5t-138 66t-56 88q0 101 184 163t486 62q303 0 488 -62t185 -163q0 -47 -56.5 -88t-139 -66.5t-154.5 -40t-123 -19.5v-2q57 -5 127 -19t151.5 -40.5t147.5 -60t110 -82t44 -102.5 q0 -94 -97 -165.5t-274 -110.5t-409 -39t-409 39t-274 110.5t-97 165.5zM700 305q0 -134 36 -204.5t104 -70.5t104 70.5t36 204.5t-36 204.5t-104 70.5t-104 -70.5t-36 -204.5zM730 825q0 -185 110 -185q52 0 79 47.5t27 137.5q0 185 -107 185q-53 0 -81 -47.5t-28 -137.5z " />
<glyph unicode="9" horiz-adv-x="1660" d="M60 680q0 180 198 275t574 95q374 0 571 -136t197 -394q0 -157 -108 -277.5t-305.5 -186.5t-455.5 -66q-153 0 -298 35.5t-215 95.5v121h100v-33q39 -86 132 -129.5t183 -43.5q131 0 214 74.5t115 218.5q-64 -19 -150 -19q-367 0 -559.5 95t-192.5 275zM690 680 q0 -87 4.5 -143t17 -101t37.5 -65.5t64 -20.5q90 0 157 23q10 63 10 145q0 240 -37.5 366t-109.5 126q-84 0 -113.5 -78.5t-29.5 -251.5z" />
<glyph unicode=":" horiz-adv-x="408" d="M60 100q0 65 38.5 104.5t105.5 39.5q65 0 104.5 -38.5t39.5 -105.5q0 -65 -38.5 -104.5t-105.5 -39.5q-65 0 -104.5 38.5t-39.5 105.5zM60 726q0 65 38.5 104.5t105.5 39.5q65 0 104.5 -38.5t39.5 -105.5q0 -65 -38.5 -104.5t-105.5 -39.5q-65 0 -104.5 38.5t-39.5 105.5 z" />
<glyph unicode=";" horiz-adv-x="408" d="M60 100q0 65 38.5 104.5t105.5 39.5q65 0 104.5 -38.5t39.5 -105.5q0 -127 -56 -205t-148 -78v40q44 0 78 24.5t40 59.5q3 18 10 28l-8 6q-5 -7 -22.5 -13t-37.5 -6q-65 0 -104.5 38.5t-39.5 105.5zM60 726q0 65 38.5 104.5t105.5 39.5q65 0 104.5 -38.5t39.5 -105.5 q0 -65 -38.5 -104.5t-105.5 -39.5q-65 0 -104.5 38.5t-39.5 105.5z" />
<glyph unicode="&#x3c;" horiz-adv-x="900" d="M20 517v6l668 533l137 -172l-523 -302q-105 -46 -156 -57v-10q51 -11 156 -57l523 -302l-137 -172z" />
<glyph unicode="=" horiz-adv-x="1010" d="M100 220l10 220h800l-10 -220h-800zM100 600l10 220h800l-10 -220h-800z" />
<glyph unicode="&#x3e;" horiz-adv-x="900" d="M75 156l523 302q105 46 156 57v10q-51 11 -156 57l-523 302l137 172l668 -533v-6l-668 -533z" />
<glyph unicode="?" horiz-adv-x="1280" d="M40 874v225h20v-34q0 -26 -2 -34l5 -2q37 46 146 73.5t206 27.5q392 0 598.5 -72t206.5 -208q0 -56 -54 -103t-135 -77t-176 -60t-176 -54.5t-135 -60t-54 -75.5v-40h-40v80q0 57 20.5 111.5t44.5 90.5t44.5 86.5t20.5 101.5q0 117 -45.5 178.5t-132.5 61.5 q-131 0 -211.5 -59.5t-80.5 -156.5h-70zM356 100q0 65 38.5 104.5t105.5 39.5q65 0 104.5 -38.5t39.5 -105.5q0 -65 -38.5 -104.5t-105.5 -39.5q-65 0 -104.5 38.5t-39.5 105.5z" />
<glyph unicode="@" horiz-adv-x="1880" d="M60 484q0 183 73.5 349t198.5 286.5t297 191.5t361 71q169 0 322.5 -60.5t264.5 -162.5t177 -243t66 -296q0 -157 -54 -291t-147.5 -211.5t-203.5 -77.5q-42 0 -84 11.5t-85 36t-75.5 71t-46.5 109.5h-9q-93 -236 -300 -236q-217 0 -330.5 109t-113.5 316 q0 263 158.5 401t459.5 138q52 0 119 -20.5t103 -43.5l202 98h31l-71 -724q-7 -68 -7 -108q0 -118 49 -118q99 0 183 72.5t133 196.5t49 271q0 196 -106 362.5t-288 263t-396 96.5q-181 0 -345.5 -68t-284 -183t-190 -273.5t-70.5 -333.5q0 -233 111.5 -430.5t303.5 -312.5 t418 -115q251 0 465 115l19 -35q-225 -120 -484 -120q-178 0 -339.5 71t-278.5 191.5t-186 286.5t-69 349zM691 395q0 -157 36.5 -239.5t106.5 -82.5q85 0 152.5 77t81.5 222l54 556l-4 2q-3 1 -8.5 2.5t-13 4t-18 4.5t-22 4t-26.5 3t-31 1q-150 0 -229 -142t-79 -412z" />
<glyph unicode="A" horiz-adv-x="1760" d="M20 0v20h15q62 0 117.5 67t109.5 174l391 779h599v-12q-2 -16 -2 -24q0 -42 25 -102l315 -742q5 -11 13.5 -32.5t11.5 -28.5t10.5 -22t11 -19.5t11 -14t13.5 -11.5t15.5 -6t20 -5t24.5 -1h19v-20h-911v20h152v4q-34 13 -73 105l-64 151h-528q-38 -76 -38 -142 q0 -52 23.5 -85t73.5 -33h24v-20h-379zM336 320h491l-201 470q-14 32 -14 66v10l1 6h-7q0 -20 -35 -84z" />
<glyph unicode="B" horiz-adv-x="1980" d="M40 0v20h60q81 0 100.5 19.5t19.5 100.5v760q0 81 -19.5 100.5t-100.5 19.5h-60v20h950q333 0 536.5 -62t203.5 -163q0 -48 -50 -89t-130.5 -67t-169 -42t-176.5 -22v-10q179 -7 338.5 -41.5t268.5 -101.5t109 -152q0 -130 -220 -210t-580 -80h-1080zM820 40h210 q118 0 184 65t66 185q0 136 -91.5 208t-258.5 72h-30v40h10q107 0 163.5 51t56.5 149q0 93 -54 141.5t-156 48.5h-100v-4q40 -40 40 -116v-720q0 -76 -40 -116v-4z" />
<glyph unicode="C" horiz-adv-x="1620" d="M60 520q0 258 244.5 394t709.5 136q94 0 230 -21t192 -58q45 -33 53 -57l8 2q-7 28 -8 56l-7 128l20 1l23 -390l-160 -2q-11 69 -32 118.5t-60 93.5t-106.5 66.5t-162.5 22.5q-148 0 -226 -125.5t-78 -364.5t87 -364.5t253 -125.5q87 0 184 27.5t184 83t127 125.5l35 -20 q-45 -80 -140 -140t-196.5 -88t-193.5 -28q-478 0 -729 136t-251 394z" />
<glyph unicode="D" horiz-adv-x="1960" d="M40 0v20h60q81 0 100.5 19.5t19.5 100.5v760q0 81 -19.5 100.5t-100.5 19.5h-60v20h1020q249 0 440 -64.5t295.5 -183t104.5 -272.5t-104.5 -272.5t-295.5 -183t-440 -64.5h-1020zM820 40h150q136 0 208 123t72 357t-72 357t-208 123h-150v-4q40 -40 40 -106v-740 q0 -66 -40 -106v-4z" />
<glyph unicode="E" horiz-adv-x="1640" d="M40 0v20h60q81 0 100.5 19.5t19.5 100.5v760q0 81 -19.5 100.5t-100.5 19.5h-60v20h1339q26 0 37 -4t23 -16h1l-6 112l20 1l26 -473l-100 -2q-10 160 -113 251t-267 91h-190v-4q50 -50 50 -116v-320h138q58 0 85 14t41 61t14 145h60v-480h-60q0 98 -14 145t-41 61t-85 14 h-138v-360q0 -66 -50 -116v-4h280q165 0 272.5 90.5t117.5 249.5h100l-26 -473l-20 1l6 112h-1q-12 -12 -23 -16t-37 -4h-1439z" />
<glyph unicode="F" horiz-adv-x="1640" d="M40 0v20h60q81 0 100.5 19.5t19.5 100.5v760q0 81 -19.5 100.5t-100.5 19.5h-60v20h1439q26 0 37 -4t23 -16h1l-6 112l20 1l26 -473h-100q-10 159 -117.5 249.5t-272.5 90.5h-280v-4q50 -50 50 -116v-380h218q58 0 85 14t41 61t14 145h60v-480h-60q0 98 -14 145t-41 61 t-85 14h-218v-320q0 -81 19.5 -100.5t100.5 -19.5h60v-20h-1000z" />
<glyph unicode="G" horiz-adv-x="1860" d="M60 514q0 261 249.5 398.5t724.5 137.5q94 0 230 -21t192 -58q45 -33 53 -57l8 2q-7 28 -8 56l-7 128l20 1l23 -370l-150 -2q-11 67 -33.5 115t-64 87.5t-109.5 59t-164 19.5q-158 0 -241 -119.5t-83 -346.5q0 -251 83 -382.5t241 -131.5q71 0 150 43l4 5q-8 21 -8 70 v192q0 81 -19.5 100.5t-100.5 19.5h-100v20h880v-20h-20q-81 0 -100.5 -19.5t-19.5 -100.5v-400h-18v95q0 53 -55.5 79t-123.5 26q-65 0 -119 -18t-118 -52q-4 -2 -26.5 -14t-28 -15t-26 -12.5t-29.5 -13t-28 -10t-32 -9t-31 -4.5t-35 -2q-468 0 -714 134t-246 390z" />
<glyph unicode="H" horiz-adv-x="2120" d="M40 0v20h60q81 0 100.5 19.5t19.5 100.5v760q0 81 -19.5 100.5t-100.5 19.5h-60v20h960v-20h-20q-81 0 -100.5 -19.5t-19.5 -100.5v-340h400v340q0 81 -19.5 100.5t-100.5 19.5h-20v20h960v-20h-60q-81 0 -100.5 -19.5t-19.5 -100.5v-760q0 -81 19.5 -100.5t100.5 -19.5 h60v-20h-960v20h20q81 0 100.5 19.5t19.5 100.5v380h-400v-380q0 -81 19.5 -100.5t100.5 -19.5h20v-20h-960z" />
<glyph unicode="I" horiz-adv-x="1080" d="M40 0v20h60q81 0 100.5 19.5t19.5 100.5v760q0 81 -19.5 100.5t-100.5 19.5h-60v20h1000v-20h-60q-81 0 -100.5 -19.5t-19.5 -100.5v-760q0 -81 19.5 -100.5t100.5 -19.5h60v-20h-1000z" />
<glyph unicode="J" horiz-adv-x="1160" d="M33 12l12 38q70 -20 136 -20q58 0 88.5 61.5t30.5 178.5v686q0 26 4 37t16 23v4h-280v20h1100v-20h-80q-120 0 -120 -120v-490q0 -205 -199 -312.5t-578 -107.5q-60 0 -130 22z" />
<glyph unicode="K" horiz-adv-x="1960" d="M40 0v20h60q120 0 120 120v760q0 81 -19.5 100.5t-100.5 19.5h-60v20h960v-20h-20q-81 0 -100.5 -19.5t-19.5 -100.5v-448q0 -48 -7 -67l7 -4q13 30 40 55l435 476q78 85 119 104v4h-135v20h455v-90h-112q-235 0 -349 -126l-104 -115q57 -5 124.5 -22t148.5 -58.5 t126 -96.5q47 -58 85.5 -152.5t59 -168t54.5 -129t78 -55.5q22 0 70 12l5 -19q-164 -40 -280 -40q-103 0 -176.5 5t-163.5 21.5t-155 55t-100 97.5q-95 160 -126 271l-99 -110v-236q0 -26 -4 -37t-16 -23v-4h150v-20h-950z" />
<glyph unicode="L" horiz-adv-x="1640" d="M40 0v20h60q81 0 100.5 19.5t19.5 100.5v760q0 81 -19.5 100.5t-100.5 19.5h-60v20h1020v-20h-80q-81 0 -100.5 -19.5t-19.5 -100.5v-740q0 -66 -50 -116v-4h204q111 0 213 39t172.5 118.5t74.5 182.5l6 93l100 -3l-32 -563l-20 1l8 112h-1q-12 -12 -23 -16t-37 -4h-1435 z" />
<glyph unicode="M" horiz-adv-x="2428" d="M60 0v20h6q136 0 161 250l62 630q3 22 3 40q0 43 -24 61.5t-90 18.5h-50v20h768l286 -608q30 -64 30 -102l14 -1q0 14 40 99l284 612h770v-20h-56q-74 0 -103.5 -27t-29.5 -86q0 -22 3 -49l81 -678q5 -38 7.5 -56.5t9 -41t15 -31t24 -17.5t36.5 -11.5t53 -2.5h8v-20h-973 v20h40q81 0 111 22t30 74q0 9 -2 31l-69 585q-3 18 -3 61v31h-13q-3 -25 -37 -91l-350 -753h-404l-344 735q-29 57 -29 91h-8q0 -20 -6 -92l-46 -473q-2 -22 -2 -31q0 -83 41 -136.5t101 -53.5h31v-20h-376z" />
<glyph unicode="N" horiz-adv-x="1730" d="M20 1020v20h904l495 -702q41 -60 41 -83h14q-4 48 -4 95v470q0 94 -39.5 147t-100.5 53h-40v20h410v-20h-30q-69 0 -104.5 -51.5t-35.5 -148.5v-830h-649l-546 775q-45 66 -45 88h-13q3 -37 3 -96v-537q0 -94 39.5 -147t100.5 -53h60v-20h-440v20h40q61 0 100.5 53 t39.5 147v680q0 78 -27.5 99t-112.5 21h-60z" />
<glyph unicode="O" d="M60 520q0 238 236.5 384t623.5 146t623.5 -146t236.5 -384t-236.5 -384t-623.5 -146t-623.5 146t-236.5 384zM700 600q0 -283 58.5 -431.5t169.5 -148.5q103 0 157.5 107.5t54.5 312.5q0 283 -58.5 431.5t-169.5 148.5q-103 0 -157.5 -107.5t-54.5 -312.5z" />
<glyph unicode="P" horiz-adv-x="1910" d="M40 0v20h60q81 0 100.5 19.5t19.5 100.5v760q0 81 -19.5 100.5t-100.5 19.5h-60v20h1060q223 0 393.5 -42t263.5 -119.5t93 -178.5t-93 -178.5t-263.5 -119.5t-393.5 -42h-240v-220q0 -81 19.5 -100.5t100.5 -19.5h60v-20h-1000zM820 996q40 -40 40 -116v-480h150 q98 0 149 77t51 223t-51 223t-149 77h-190v-4z" />
<glyph unicode="Q" d="M60 520q0 238 236.5 384t623.5 146t623.5 -146t236.5 -384q0 -86 -29.5 -159t-77 -123.5t-114.5 -93t-134.5 -68.5t-145 -48t-138.5 -34.5t-121.5 -25t-88.5 -21.5q-84 -26 -120.5 -38t-105 -40.5t-110.5 -56.5q76 0 364 -5.5t360 -5.5q141 0 215.5 35.5t74.5 102.5h40 q0 -206 -90.5 -332.5t-238.5 -126.5q-73 0 -235 65.5t-312.5 131t-194.5 65.5q-41 0 -65 -25.5t-24 -66.5q0 -33 18.5 -59t56.5 -32l-7 -39q-53 9 -80.5 47.5t-27.5 82.5q0 40 17.5 77t42.5 64.5t68 55t78.5 45t90.5 37.5t87 30.5t84 25.5q65 19 110 59.5t69 101.5t34 131 t10 163q-1 283 -59 431.5t-169 148.5q-103 0 -157.5 -107.5t-54.5 -312.5q0 -268 52.5 -415.5t152.5 -162.5l-47 -31q-361 12 -579.5 156.5t-218.5 372.5z" />
<glyph unicode="R" horiz-adv-x="2020" d="M40 0v20h60q81 0 100.5 19.5t19.5 100.5v760q0 81 -19.5 100.5t-100.5 19.5h-60v20h1020q342 0 551 -85.5t209 -224.5q0 -55 -39 -101t-97 -75.5t-135.5 -52t-144.5 -34t-133 -17.5v-12q20 -2 75 -6.5t93.5 -8.5t93 -14.5t92.5 -24.5t72.5 -39.5t49.5 -58.5 q50 -107 105.5 -181.5t105.5 -74.5q12 0 57 9l5 -19q-62 -18 -249.5 -29.5t-271.5 -11.5q-123 0 -211.5 50t-157.5 181q-9 18 -25.5 50.5t-25.5 49t-23 41.5t-25.5 37.5t-26 26.5t-30 19.5t-33.5 5.5h-26v40h85q88 0 134 64t46 186q0 132 -46 201t-134 69h-180v-4 q40 -40 40 -116v-740q0 -81 19.5 -100.5t100.5 -19.5h20v-20h-960z" />
<glyph unicode="S" horiz-adv-x="1570" d="M80 702q0 170 174.5 259t506.5 89q166 0 265 -16.5t207 -54.5q28 -10 57.5 -26t46 -28.5t17.5 -15.5l6 2q-1 8 -4 67l-6 102l20 1l16 -308l-140 -3l-2 22q-9 101 -131.5 159.5t-351.5 58.5q-140 0 -225.5 -23t-85.5 -60q0 -22 11.5 -39t38 -30t53.5 -22.5t74 -18.5 t82 -14t96 -14t99 -15q183 -29 316 -85t211.5 -147.5t78.5 -209.5q0 -167 -198.5 -254.5t-575.5 -87.5q-125 0 -285.5 25.5t-222.5 58.5q-21 11 -56.5 35.5t-39.5 36.5l-8 -4q6 -17 8 -56l5 -96l-20 -1l-17 321l110 1q5 -80 93 -146.5t205.5 -100.5t227.5 -34q190 0 306 26 t116 69q0 21 -11.5 37t-38 28t-53 20t-74.5 15t-82 11t-96.5 10.5t-98.5 10.5q-62 7 -112 15.5t-109.5 21.5t-106 30.5t-94.5 41.5t-83 56.5t-63 72.5t-42 92.5t-14 114.5z" />
<glyph unicode="T" horiz-adv-x="1720" d="M30 660l26 473l20 -1l-5 -92h1578l-5 92l20 1l26 -473h-100q-5 89 -17.5 145.5t-41 104t-80.5 69t-131 21.5h-140v-860q0 -81 19.5 -100.5t100.5 -19.5h80v-20h-1040v20h80q81 0 100.5 19.5t19.5 100.5v860h-120q-154 0 -217 -83t-73 -257h-100z" />
<glyph unicode="U" horiz-adv-x="1700" d="M30 1020v20h980v-20h-60q-81 0 -100.5 -19.5t-19.5 -100.5v-680q0 -86 55 -138t145 -52q198 0 319 91t121 239v460q0 94 -39.5 147t-100.5 53h-40v20h380v-20h-24q-59 0 -97.5 -53t-38.5 -147v-460q0 -166 -132 -268t-348 -102q-409 0 -624.5 95t-215.5 275v540 q0 81 -19.5 100.5t-100.5 19.5h-40z" />
<glyph unicode="V" horiz-adv-x="1670" d="M20 1020v20h928v-20h-151v-4q5 -2 10 -5.5t9.5 -8.5t8.5 -9.5t8.5 -13t7.5 -13t7.5 -14.5t6 -13.5t6.5 -14.5t6 -13l254 -581q21 -46 21 -82h26q0 26 26 84l210 478q16 37 16 74q0 57 -33.5 96.5t-96.5 39.5h-44v20h404v-20h-10q-103 0 -194 -211l-353 -809h-526 l-385 880q-6 14 -17.5 40.5t-15 34.5t-12.5 24t-15 20t-17 11t-23.5 8.5t-30.5 1.5h-31z" />
<glyph unicode="W" horiz-adv-x="2610" d="M20 1020v20h818v-20q0 -2 -0.5 -11.5t-0.5 -16.5q0 -49 12 -81l209 -581q21 -58 21 -82h15q0 12 26 84l154 397l-54 151q-32 90 -52.5 115t-78.5 25h-30v20h911v-20h-151v-4q38 -15 70 -105l209 -581q21 -58 21 -82h15q0 12 26 84l186 478q18 49 18 91q0 52 -26.5 85.5 t-85.5 33.5h-64v20h402v-20h-8q-57 0 -108 -60.5t-86 -150.5l-314 -809h-537l-242 672l-261 -672h-537l-317 880q-32 90 -52.5 115t-78.5 25h-29z" />
<glyph unicode="X" horiz-adv-x="1693" d="M20 0v20h13q65 0 108.5 35.5t122.5 140.5l236 312l-220 336q-70 107 -103 141.5t-78 34.5h-39v20h939v-20h-95v-4q38 -15 110 -124l158 -242l100 134q84 111 84 173q0 63 -89 63h-48v20h414v-20h-33q-66 0 -109 -35.5t-122 -139.5l-173 -230l274 -419q19 -30 42 -67.5 t32.5 -52t24 -31t29 -21t35.5 -4.5h40v-20h-1058v20h24q62 0 91.5 12.5t29.5 41.5q0 37 -50 114l-186 284l-162 -213q-84 -111 -84 -175t88 -64h24v-20h-370z" />
<glyph unicode="Y" horiz-adv-x="1720" d="M20 1020v20h948v-20h-134v-4q9 -3 17 -9.5t17.5 -21.5t14.5 -23.5t19 -33.5t20 -36l222 -402q28 -53 33 -71h23q3 11 38 70l141 239q23 39 40.5 89.5t17.5 85.5q0 52 -26 84.5t-79 32.5h-34v20h402v-20h-10q-92 0 -210 -200l-270 -457v-223q0 -81 19.5 -100.5 t100.5 -19.5h80v-20h-1040v20h80q81 0 100.5 19.5t19.5 100.5v65l-363 659q-6 10 -17.5 32t-16 30t-14.5 24t-15 22t-14 16.5t-16 14.5t-17 9t-20.5 6.5t-23.5 1.5h-33z" />
<glyph unicode="Z" horiz-adv-x="1625" d="M60 0v40q18 0 44 30.5t90 125.5l430 636q85 125 135 161v7h-219q-162 0 -248.5 -86.5t-95.5 -254.5l-100 2l20 460l20 -1l-4 -99q12 12 22.5 15.5t35.5 3.5h1355v-40q-19 0 -49 -33.5t-91 -122.5l-431 -636q-36 -53 -75.5 -98.5t-63.5 -62.5v-7h290q317 0 340 341l100 -2 l-20 -460l-20 1l4 100h-2q-12 -12 -22.5 -16t-36.5 -4h-1408z" />
<glyph unicode="[" horiz-adv-x="960" d="M90 -210l10 140v1180l-10 140h850v-40h-250v-4q50 -50 50 -116v-1140q0 -66 -50 -116v-4h250v-40h-850z" />
<glyph unicode="\" horiz-adv-x="1180" d="M26 1067l177 131l470 -643q144 -184 481 -578l-170 -140q-265 380 -453 621q-205 263 -505 609z" />
<glyph unicode="]" horiz-adv-x="960" d="M20 -170h250v4q-50 50 -50 116v1140q0 66 50 116v4h-250v40h850l-10 -140v-1180l10 -140h-850v40z" />
<glyph unicode="^" horiz-adv-x="910" d="M100 862l352 307h6l352 -307l-146 -149q-58 61 -122 185t-82 205h-10q-17 -80 -81.5 -204.5t-122.5 -185.5z" />
<glyph unicode="_" horiz-adv-x="720" d="M40 -300h640v-220h-640v220z" />
<glyph unicode="`" horiz-adv-x="582" d="M50 1042l144 116q16 11 35 11q24 0 41 -17l220 -269l-48 -41z" />
<glyph unicode="a" horiz-adv-x="1760" d="M20 0v20h15q62 0 117.5 67t109.5 174l391 779h599v-12q-2 -16 -2 -24q0 -42 25 -102l315 -742q5 -11 13.5 -32.5t11.5 -28.5t10.5 -22t11 -19.5t11 -14t13.5 -11.5t15.5 -6t20 -5t24.5 -1h19v-20h-911v20h152v4q-34 13 -73 105l-64 151h-528q-38 -76 -38 -142 q0 -52 23.5 -85t73.5 -33h24v-20h-379zM336 320h491l-201 470q-14 32 -14 66v10l1 6h-7q0 -20 -35 -84z" />
<glyph unicode="b" horiz-adv-x="1980" d="M40 0v20h60q81 0 100.5 19.5t19.5 100.5v760q0 81 -19.5 100.5t-100.5 19.5h-60v20h950q333 0 536.5 -62t203.5 -163q0 -48 -50 -89t-130.5 -67t-169 -42t-176.5 -22v-10q179 -7 338.5 -41.5t268.5 -101.5t109 -152q0 -130 -220 -210t-580 -80h-1080zM820 40h210 q118 0 184 65t66 185q0 136 -91.5 208t-258.5 72h-30v40h10q107 0 163.5 51t56.5 149q0 93 -54 141.5t-156 48.5h-100v-4q40 -40 40 -116v-720q0 -76 -40 -116v-4z" />
<glyph unicode="c" horiz-adv-x="1620" d="M60 520q0 258 244.5 394t709.5 136q94 0 230 -21t192 -58q45 -33 53 -57l8 2q-7 28 -8 56l-7 128l20 1l23 -390l-160 -2q-11 69 -32 118.5t-60 93.5t-106.5 66.5t-162.5 22.5q-148 0 -226 -125.5t-78 -364.5t87 -364.5t253 -125.5q87 0 184 27.5t184 83t127 125.5l35 -20 q-45 -80 -140 -140t-196.5 -88t-193.5 -28q-478 0 -729 136t-251 394z" />
<glyph unicode="d" horiz-adv-x="1960" d="M40 0v20h60q81 0 100.5 19.5t19.5 100.5v760q0 81 -19.5 100.5t-100.5 19.5h-60v20h1020q249 0 440 -64.5t295.5 -183t104.5 -272.5t-104.5 -272.5t-295.5 -183t-440 -64.5h-1020zM820 40h150q136 0 208 123t72 357t-72 357t-208 123h-150v-4q40 -40 40 -106v-740 q0 -66 -40 -106v-4z" />
<glyph unicode="e" horiz-adv-x="1640" d="M40 0v20h60q81 0 100.5 19.5t19.5 100.5v760q0 81 -19.5 100.5t-100.5 19.5h-60v20h1339q26 0 37 -4t23 -16h1l-6 112l20 1l26 -473l-100 -2q-10 160 -113 251t-267 91h-190v-4q50 -50 50 -116v-320h138q58 0 85 14t41 61t14 145h60v-480h-60q0 98 -14 145t-41 61t-85 14 h-138v-360q0 -66 -50 -116v-4h280q165 0 272.5 90.5t117.5 249.5h100l-26 -473l-20 1l6 112h-1q-12 -12 -23 -16t-37 -4h-1439z" />
<glyph unicode="f" horiz-adv-x="1640" d="M40 0v20h60q81 0 100.5 19.5t19.5 100.5v760q0 81 -19.5 100.5t-100.5 19.5h-60v20h1439q26 0 37 -4t23 -16h1l-6 112l20 1l26 -473h-100q-10 159 -117.5 249.5t-272.5 90.5h-280v-4q50 -50 50 -116v-380h218q58 0 85 14t41 61t14 145h60v-480h-60q0 98 -14 145t-41 61 t-85 14h-218v-320q0 -81 19.5 -100.5t100.5 -19.5h60v-20h-1000z" />
<glyph unicode="g" horiz-adv-x="1860" d="M60 514q0 261 249.5 398.5t724.5 137.5q94 0 230 -21t192 -58q45 -33 53 -57l8 2q-7 28 -8 56l-7 128l20 1l23 -370l-150 -2q-11 67 -33.5 115t-64 87.5t-109.5 59t-164 19.5q-158 0 -241 -119.5t-83 -346.5q0 -251 83 -382.5t241 -131.5q71 0 150 43l4 5q-8 21 -8 70 v192q0 81 -19.5 100.5t-100.5 19.5h-100v20h880v-20h-20q-81 0 -100.5 -19.5t-19.5 -100.5v-400h-18v95q0 53 -55.5 79t-123.5 26q-65 0 -119 -18t-118 -52q-4 -2 -26.5 -14t-28 -15t-26 -12.5t-29.5 -13t-28 -10t-32 -9t-31 -4.5t-35 -2q-468 0 -714 134t-246 390z" />
<glyph unicode="h" horiz-adv-x="2120" d="M40 0v20h60q81 0 100.5 19.5t19.5 100.5v760q0 81 -19.5 100.5t-100.5 19.5h-60v20h960v-20h-20q-81 0 -100.5 -19.5t-19.5 -100.5v-340h400v340q0 81 -19.5 100.5t-100.5 19.5h-20v20h960v-20h-60q-81 0 -100.5 -19.5t-19.5 -100.5v-760q0 -81 19.5 -100.5t100.5 -19.5 h60v-20h-960v20h20q81 0 100.5 19.5t19.5 100.5v380h-400v-380q0 -81 19.5 -100.5t100.5 -19.5h20v-20h-960z" />
<glyph unicode="i" horiz-adv-x="1080" d="M40 0v20h60q81 0 100.5 19.5t19.5 100.5v760q0 81 -19.5 100.5t-100.5 19.5h-60v20h1000v-20h-60q-81 0 -100.5 -19.5t-19.5 -100.5v-760q0 -81 19.5 -100.5t100.5 -19.5h60v-20h-1000z" />
<glyph unicode="j" horiz-adv-x="1160" d="M33 12l12 38q70 -20 136 -20q58 0 88.5 61.5t30.5 178.5v686q0 26 4 37t16 23v4h-280v20h1100v-20h-80q-120 0 -120 -120v-490q0 -205 -199 -312.5t-578 -107.5q-60 0 -130 22z" />
<glyph unicode="k" horiz-adv-x="1960" d="M40 0v20h60q120 0 120 120v760q0 81 -19.5 100.5t-100.5 19.5h-60v20h960v-20h-20q-81 0 -100.5 -19.5t-19.5 -100.5v-448q0 -48 -7 -67l7 -4q13 30 40 55l435 476q78 85 119 104v4h-135v20h455v-90h-112q-235 0 -349 -126l-104 -115q57 -5 124.5 -22t148.5 -58.5 t126 -96.5q47 -58 85.5 -152.5t59 -168t54.5 -129t78 -55.5q22 0 70 12l5 -19q-164 -40 -280 -40q-103 0 -176.5 5t-163.5 21.5t-155 55t-100 97.5q-95 160 -126 271l-99 -110v-236q0 -26 -4 -37t-16 -23v-4h150v-20h-950z" />
<glyph unicode="l" horiz-adv-x="1640" d="M40 0v20h60q81 0 100.5 19.5t19.5 100.5v760q0 81 -19.5 100.5t-100.5 19.5h-60v20h1020v-20h-80q-81 0 -100.5 -19.5t-19.5 -100.5v-740q0 -66 -50 -116v-4h204q111 0 213 39t172.5 118.5t74.5 182.5l6 93l100 -3l-32 -563l-20 1l8 112h-1q-12 -12 -23 -16t-37 -4h-1435 z" />
<glyph unicode="m" horiz-adv-x="2428" d="M60 0v20h6q136 0 161 250l62 630q3 22 3 40q0 43 -24 61.5t-90 18.5h-50v20h768l286 -608q30 -64 30 -102l14 -1q0 14 40 99l284 612h770v-20h-56q-74 0 -103.5 -27t-29.5 -86q0 -22 3 -49l81 -678q5 -38 7.5 -56.5t9 -41t15 -31t24 -17.5t36.5 -11.5t53 -2.5h8v-20h-973 v20h40q81 0 111 22t30 74q0 9 -2 31l-69 585q-3 18 -3 61v31h-13q-3 -25 -37 -91l-350 -753h-404l-344 735q-29 57 -29 91h-8q0 -20 -6 -92l-46 -473q-2 -22 -2 -31q0 -83 41 -136.5t101 -53.5h31v-20h-376z" />
<glyph unicode="n" horiz-adv-x="1730" d="M20 1020v20h904l495 -702q41 -60 41 -83h14q-4 48 -4 95v470q0 94 -39.5 147t-100.5 53h-40v20h410v-20h-30q-69 0 -104.5 -51.5t-35.5 -148.5v-830h-649l-546 775q-45 66 -45 88h-13q3 -37 3 -96v-537q0 -94 39.5 -147t100.5 -53h60v-20h-440v20h40q61 0 100.5 53 t39.5 147v680q0 78 -27.5 99t-112.5 21h-60z" />
<glyph unicode="o" d="M60 520q0 238 236.5 384t623.5 146t623.5 -146t236.5 -384t-236.5 -384t-623.5 -146t-623.5 146t-236.5 384zM700 600q0 -283 58.5 -431.5t169.5 -148.5q103 0 157.5 107.5t54.5 312.5q0 283 -58.5 431.5t-169.5 148.5q-103 0 -157.5 -107.5t-54.5 -312.5z" />
<glyph unicode="p" horiz-adv-x="1910" d="M40 0v20h60q81 0 100.5 19.5t19.5 100.5v760q0 81 -19.5 100.5t-100.5 19.5h-60v20h1060q223 0 393.5 -42t263.5 -119.5t93 -178.5t-93 -178.5t-263.5 -119.5t-393.5 -42h-240v-220q0 -81 19.5 -100.5t100.5 -19.5h60v-20h-1000zM820 996q40 -40 40 -116v-480h150 q98 0 149 77t51 223t-51 223t-149 77h-190v-4z" />
<glyph unicode="q" d="M60 520q0 238 236.5 384t623.5 146t623.5 -146t236.5 -384q0 -86 -29.5 -159t-77 -123.5t-114.5 -93t-134.5 -68.5t-145 -48t-138.5 -34.5t-121.5 -25t-88.5 -21.5q-75 -23 -117 -37t-106.5 -42t-107.5 -56q77 0 362.5 -6t356.5 -6q141 0 215.5 35.5t74.5 103.5h40 q0 -206 -90.5 -332.5t-238.5 -126.5q-73 0 -235 65.5t-312.5 131t-194.5 65.5q-41 0 -65 -25.5t-24 -66.5q0 -33 18.5 -59t56.5 -32l-7 -39q-53 9 -80.5 47.5t-27.5 82.5q0 40 17.5 77t42.5 64.5t68 55t78.5 45t90.5 37.5t87 30.5t84 25.5q65 19 110 59.5t69 101.5t34 131 t10 163q-1 283 -59 431.5t-169 148.5q-103 0 -157.5 -107.5t-54.5 -312.5q0 -516 186 -574l-63 -33q-348 19 -555.5 161.5t-207.5 365.5z" />
<glyph unicode="r" horiz-adv-x="2020" d="M40 0v20h60q81 0 100.5 19.5t19.5 100.5v760q0 81 -19.5 100.5t-100.5 19.5h-60v20h1020q342 0 551 -85.5t209 -224.5q0 -55 -39 -101t-97 -75.5t-135.5 -52t-144.5 -34t-133 -17.5v-12q20 -2 75 -6.5t93.5 -8.5t93 -14.5t92.5 -24.5t72.5 -39.5t49.5 -58.5 q50 -107 105.5 -181.5t105.5 -74.5q12 0 57 9l5 -19q-62 -18 -249.5 -29.5t-271.5 -11.5q-123 0 -211.5 50t-157.5 181q-9 18 -25.5 50.5t-25.5 49t-23 41.5t-25.5 37.5t-26 26.5t-30 19.5t-33.5 5.5h-26v40h85q88 0 134 64t46 186q0 132 -46 201t-134 69h-180v-4 q40 -40 40 -116v-740q0 -81 19.5 -100.5t100.5 -19.5h20v-20h-960z" />
<glyph unicode="s" horiz-adv-x="1570" d="M80 702q0 170 174.5 259t506.5 89q166 0 265 -16.5t207 -54.5q28 -10 57.5 -26t46 -28.5t17.5 -15.5l6 2q-1 8 -4 67l-6 102l20 1l16 -308l-140 -3l-2 22q-9 101 -131.5 159.5t-351.5 58.5q-140 0 -225.5 -23t-85.5 -60q0 -22 11.5 -39t38 -30t53.5 -22.5t74 -18.5 t82 -14t96 -14t99 -15q183 -29 316 -85t211.5 -147.5t78.5 -209.5q0 -167 -198.5 -254.5t-575.5 -87.5q-125 0 -285.5 25.5t-222.5 58.5q-21 11 -56.5 35.5t-39.5 36.5l-8 -4q6 -17 8 -56l5 -96l-20 -1l-17 321l110 1q5 -80 93 -146.5t205.5 -100.5t227.5 -34q190 0 306 26 t116 69q0 21 -11.5 37t-38 28t-53 20t-74.5 15t-82 11t-96.5 10.5t-98.5 10.5q-62 7 -112 15.5t-109.5 21.5t-106 30.5t-94.5 41.5t-83 56.5t-63 72.5t-42 92.5t-14 114.5z" />
<glyph unicode="t" horiz-adv-x="1720" d="M30 660l26 473l20 -1l-5 -92h1578l-5 92l20 1l26 -473h-100q-5 89 -17.5 145.5t-41 104t-80.5 69t-131 21.5h-140v-860q0 -81 19.5 -100.5t100.5 -19.5h80v-20h-1040v20h80q81 0 100.5 19.5t19.5 100.5v860h-120q-154 0 -217 -83t-73 -257h-100z" />
<glyph unicode="u" horiz-adv-x="1700" d="M30 1020v20h980v-20h-60q-81 0 -100.5 -19.5t-19.5 -100.5v-680q0 -86 55 -138t145 -52q198 0 319 91t121 239v460q0 94 -39.5 147t-100.5 53h-40v20h380v-20h-24q-59 0 -97.5 -53t-38.5 -147v-460q0 -166 -132 -268t-348 -102q-409 0 -624.5 95t-215.5 275v540 q0 81 -19.5 100.5t-100.5 19.5h-40z" />
<glyph unicode="v" horiz-adv-x="1670" d="M20 1020v20h928v-20h-151v-4q5 -2 10 -5.5t9.5 -8.5t8.5 -9.5t8.5 -13t7.5 -13t7.5 -14.5t6 -13.5t6.5 -14.5t6 -13l254 -581q21 -46 21 -82h26q0 26 26 84l210 478q16 37 16 74q0 57 -33.5 96.5t-96.5 39.5h-44v20h404v-20h-10q-103 0 -194 -211l-353 -809h-526 l-385 880q-6 14 -17.5 40.5t-15 34.5t-12.5 24t-15 20t-17 11t-23.5 8.5t-30.5 1.5h-31z" />
<glyph unicode="w" horiz-adv-x="2610" d="M20 1020v20h818v-20q0 -2 -0.5 -11.5t-0.5 -16.5q0 -49 12 -81l209 -581q21 -58 21 -82h15q0 12 26 84l154 397l-54 151q-32 90 -52.5 115t-78.5 25h-30v20h911v-20h-151v-4q38 -15 70 -105l209 -581q21 -58 21 -82h15q0 12 26 84l186 478q18 49 18 91q0 52 -26.5 85.5 t-85.5 33.5h-64v20h402v-20h-8q-57 0 -108 -60.5t-86 -150.5l-314 -809h-537l-242 672l-261 -672h-537l-317 880q-32 90 -52.5 115t-78.5 25h-29z" />
<glyph unicode="x" horiz-adv-x="1713" d="M30 0v20h13q65 0 108.5 35.5t122.5 140.5l236 312l-220 336q-70 107 -103 141.5t-78 34.5h-39v20h939v-20h-95v-4q38 -15 110 -124l158 -242l100 134q84 111 84 173q0 63 -89 63h-48v20h414v-20h-33q-66 0 -109 -35.5t-122 -139.5l-173 -230l274 -419q19 -30 42 -67.5 t32.5 -52t24 -31t29 -21t35.5 -4.5h40v-20h-1058v20h24q62 0 91.5 12.5t29.5 41.5q0 37 -50 114l-186 284l-162 -213q-84 -111 -84 -175t88 -64h24v-20h-370z" />
<glyph unicode="y" horiz-adv-x="1720" d="M20 1020v20h948v-20h-134v-4q9 -3 17 -9.5t17.5 -21.5t14.5 -23.5t19 -33.5t20 -36l222 -402q28 -53 33 -71h23q3 11 38 70l141 239q23 39 40.5 89.5t17.5 85.5q0 52 -26 84.5t-79 32.5h-34v20h402v-20h-10q-92 0 -210 -200l-270 -457v-223q0 -81 19.5 -100.5 t100.5 -19.5h80v-20h-1040v20h80q81 0 100.5 19.5t19.5 100.5v65l-363 659q-6 10 -17.5 32t-16 30t-14.5 24t-15 22t-14 16.5t-16 14.5t-17 9t-20.5 6.5t-23.5 1.5h-33z" />
<glyph unicode="z" horiz-adv-x="1625" d="M60 0v40q18 0 44 30.5t90 125.5l430 636q85 125 135 161v7h-219q-162 0 -248.5 -86.5t-95.5 -254.5l-100 2l20 460l20 -1l-4 -99q12 12 22.5 15.5t35.5 3.5h1355v-40q-19 0 -49 -33.5t-91 -122.5l-431 -636q-36 -53 -75.5 -98.5t-63.5 -62.5v-7h290q317 0 340 341l100 -2 l-20 -460l-20 1l4 100h-2q-12 -12 -22.5 -16t-36.5 -4h-1408z" />
<glyph unicode="{" horiz-adv-x="1020" d="M15 517v6q129 102 154 128q33 35 33 68q0 42 -35 145.5t-35 150.5q0 105 71.5 170t182.5 65h614v-20h-40q-90 0 -140.5 -43.5t-50.5 -109.5q0 -50 41 -173.5t41 -155.5t-122 -97.5t-282 -127.5v-6q404 -165 404 -226q0 -32 -41 -155t-41 -173q0 -66 50.5 -109.5 t140.5 -43.5h40v-20h-614q-111 0 -182.5 65t-71.5 170q0 47 35 150t35 145q0 35 -33 68.5t-135 113.5q-12 10 -19 15z" />
<glyph unicode="|" horiz-adv-x="840" d="M100 -290v1620h640v-1620h-640z" />
<glyph unicode="}" horiz-adv-x="1020" d="M20 -190h40q90 0 140.5 43.5t50.5 109.5q0 50 -41 173t-41 155q0 61 404 226v6q-160 62 -282 127.5t-122 97.5t41 155.5t41 173.5q0 66 -50.5 109.5t-140.5 43.5h-40v20h614q111 0 182.5 -65t71.5 -170q0 -47 -35 -150.5t-35 -145.5q0 -34 31.5 -66.5t129.5 -109.5 q17 -13 26 -20v-6q-129 -102 -155 -130q-32 -35 -32 -67q0 -42 35 -145t35 -150q0 -105 -71.5 -170t-182.5 -65h-614v20z" />
<glyph unicode="~" horiz-adv-x="1110" d="M40 301l63 262q29 118 83 174t122 56q59 0 176 -49.5t230.5 -98.5t163.5 -49q106 0 133 111l20 82l39 -9l-63 -262q-29 -118 -83 -174t-122 -56q-47 0 -131 31t-161 67.5t-157.5 67.5t-120.5 31q-106 0 -133 -111l-20 -82z" />
<glyph unicode="&#xa1;" horiz-adv-x="740" d="M60 -70q0 105 30 195t72.5 154t85 123.5t72.5 130.5t30 147h40q0 -76 30 -147t72.5 -130.5t85 -123.5t72.5 -154t30 -195q0 -8 -121.5 -14t-188.5 -6t-188.5 6t-121.5 14zM228 940q0 67 39.5 105.5t104.5 38.5q67 0 105.5 -39.5t38.5 -104.5q0 -67 -39.5 -105.5 t-104.5 -38.5q-67 0 -105.5 39.5t-38.5 104.5z" />
<glyph unicode="&#xa2;" horiz-adv-x="1600" d="M60 520q0 237 235.5 362.5t684.5 127.5v150h40v-150q103 -4 223.5 -24.5t172.5 -54.5q45 -33 53 -57l8 2q-7 28 -8 56l-7 128l20 1l23 -390l-160 -2q-7 42 -17.5 76.5t-27 69t-41 60t-57.5 46.5t-79 33t-103 15v-899q87 0 184 27.5t184 83t127 125.5l35 -20 q-45 -80 -140 -140t-196.5 -88t-193.5 -28v-150h-40v150q-449 5 -684.5 130.5t-235.5 359.5zM700 520q0 -205 71.5 -319.5t208.5 -128.5v898q-136 -1 -208 -116.5t-72 -333.5z" />
<glyph unicode="&#xa3;" horiz-adv-x="1520" d="M60 117q0 65 65.5 105t170.5 47q2 46 3 99t1 111.5v80.5v39h-200v40h200v74q0 164 174.5 250.5t505.5 86.5q117 0 207 -36t120 -75v-145h-91q0 97 -64.5 156.5t-171.5 59.5q-98 0 -149 -69t-51 -201v-101h320v-40h-348v-4q28 -16 28 -90q0 -141 -75 -261q368 -34 623 -34 q54 0 79.5 28.5t32.5 103.5l20 -2l-18 -188q-8 -82 -56.5 -122t-118.5 -40q-80 0 -176.5 31t-225.5 85.5t-204 78.5q-76 -91 -188 -143t-240 -52q-71 0 -122 37.5t-51 89.5zM100 117q0 -34 32 -59t74 -25q39 0 60 51t28 154q-86 -7 -140 -38.5t-54 -82.5z" />
<glyph unicode="&#xa4;" horiz-adv-x="800" d="M107 793l30 26l92 -92q83 59 168 59q51 0 91 -16.5t85 -48.5l94 93l26 -30l-92 -92q62 -87 62 -172t-59 -168l86 -86l-30 -26l-83 84l-8 -6q-74 -64 -172 -64q-85 0 -172 62l-86 -85l-26 30l83 83q-65 91 -65 176q0 52 17.5 93t52.5 87zM171 520q0 -62 31.5 -114 t83.5 -82t111 -30q94 0 160 67t66 159q0 93 -67.5 159.5t-158.5 66.5q-94 0 -160 -67t-66 -159z" />
<glyph unicode="&#xa5;" horiz-adv-x="1720" d="M20 1020v20h948v-20h-134v-4q9 -3 17 -9.5t17.5 -21.5t14.5 -23.5t19 -33.5t20 -36l222 -402q28 -53 33 -71h23q3 11 38 70l141 239q23 39 40.5 89.5t17.5 85.5q0 52 -26 84.5t-79 32.5h-34v20h402v-20h-10q-92 0 -210 -200l-248 -420h268v-40h-290v-120h290v-40h-290 v-60q0 -81 19.5 -100.5t100.5 -19.5h80v-20h-1040v20h80q81 0 100.5 19.5t19.5 100.5v60h-350v40h331l-66 120h-265v40h243l-256 464q-6 10 -17.5 32t-16 30t-14.5 24t-15 22t-14 16.5t-16 14.5t-17 9t-20.5 6.5t-23.5 1.5h-33z" />
<glyph unicode="&#xa6;" horiz-adv-x="840" d="M100 -290v630h640v-630h-640zM100 700v630h640v-630h-640z" />
<glyph unicode="&#xa7;" horiz-adv-x="1550" d="M40 442q0 138 179 387q-79 68 -79 173q0 368 621 368q164 0 252 -15.5t200 -55.5q28 -10 60 -28.5t50.5 -32.5t19.5 -18l6 2q-3 18 -3 76v163h20v-368l-140 -3l-2 22q-9 102 -122.5 160t-340.5 58q-129 0 -190 -30t-61 -73q0 -27 12.5 -49t40.5 -38.5t56 -28t78.5 -22.5 t86 -18t99.5 -17.5t101 -17.5q73 -14 129.5 -28.5t120.5 -37.5t110.5 -54.5t86 -74t59.5 -101t20 -130.5q0 -137 -199 -373q99 -73 99 -187q0 -368 -621 -368q-164 0 -252 15.5t-200 55.5q-28 10 -60 28.5t-50.5 32.5t-19.5 18l-6 -2q3 -18 3 -76v-163h-20v368l140 3l2 -22 q9 -102 122.5 -160t340.5 -58q129 0 190 30t61 73q0 40 -25 68t-89 48.5t-107.5 30t-146.5 26.5q-34 6 -52 9q-60 11 -104 20t-101.5 23.5t-99 32t-87.5 41.5t-77.5 54.5t-58 68.5t-39.5 87.5t-13 107.5zM221 650q0 -42 18 -76t56 -59t78.5 -43t106.5 -33t117.5 -24 t130.5 -21q11 -2 58.5 -8.5t61 -9t56.5 -9t60.5 -10l55 -11t57 -12.5t50.5 -13.5t51.5 -16t44 -17.5t43.5 -21q43 71 43 136q0 36 -15 66.5t-38 53t-62.5 42t-77.5 32.5t-95 25.5t-102 20t-111 17.5q-262 39 -359 65q-116 30 -186 73q-42 -81 -42 -147z" />
<glyph unicode="&#xa9;" horiz-adv-x="1260" d="M40 520q0 152 79.5 279.5t215.5 201t295 73.5q161 0 297 -74.5t214.5 -202t78.5 -277.5q0 -152 -79.5 -279.5t-215.5 -201t-295 -73.5q-161 0 -297 74.5t-214.5 202t-78.5 277.5zM80 520q0 -139 73 -257t199.5 -187.5t277.5 -69.5q149 0 275.5 68.5t200.5 187t74 258.5 q0 139 -73 257t-199.5 187.5t-277.5 69.5q-149 0 -275.5 -68.5t-200.5 -187t-74 -258.5zM243 520q0 133 123.5 203t358.5 70q47 0 114.5 -10.5t98.5 -30.5q15 -12 20 -17v5q-1 4 -1 9l-4 68l20 1l12 -195l-54 -1q-9 65 -62 103t-149 38q-72 0 -109.5 -62t-37.5 -181 q0 -115 42.5 -176t122.5 -61q66 0 140 32t103 83l26 -15q-34 -60 -114 -95t-155 -35q-239 0 -367 68t-128 199z" />
<glyph unicode="&#xaa;" horiz-adv-x="940" d="M30 590v20h10q51 0 110 118l196 392h320v-12q-1 -6 -1 -11q0 -21 12 -49l158 -371q3 -6 7.5 -17t6 -14.5t5 -10.5t5 -9t5 -6t6 -5t6.5 -2.5t9 -2t11 -0.5h14v-20h-466v20h68q-11 11 -28 48l-31 72h-257q-17 -30 -17 -66q0 -54 43 -54h18v-20h-210zM216 770h221l-94 218 q-1 1 -6 23q-6 -13 -12 -24z" />
<glyph unicode="&#xab;" horiz-adv-x="1110" d="M40 517v6l408 413l157 -155l-334 -199q-68 -41 -145 -57v-10q77 -16 145 -57l334 -199l-157 -155zM480 517v6l408 413l157 -155l-334 -199q-68 -41 -145 -57v-10q77 -16 145 -57l334 -199l-157 -155z" />
<glyph unicode="&#xac;" horiz-adv-x="960" d="M100 410l4 220h756v-494l-220 4v270h-540z" />
<glyph unicode="&#xad;" horiz-adv-x="540" d="M60 410l10 220h470l-10 -220h-470z" />
<glyph unicode="&#xae;" horiz-adv-x="1260" d="M40 520q0 152 79.5 279.5t215.5 201t295 73.5q161 0 297 -74.5t214.5 -202t78.5 -277.5q0 -152 -79.5 -279.5t-215.5 -201t-295 -73.5q-161 0 -297 74.5t-214.5 202t-78.5 277.5zM80 520q0 -139 73 -257t199.5 -187.5t277.5 -69.5q149 0 275.5 68.5t200.5 187t74 258.5 q0 139 -73 257t-199.5 187.5t-277.5 69.5q-149 0 -275.5 -68.5t-200.5 -187t-74 -258.5zM200 255v20h25q40 0 47.5 8t7.5 47v380q0 40 -8 47.5t-47 7.5h-25v20h445q169 0 257 -42.5t88 -117.5q0 -34 -26 -61t-69 -43t-82.5 -25t-81.5 -14q114 -10 156 -25q50 -18 66 -52 q24 -52 51.5 -88.5t49.5 -36.5q15 0 27 4l5 -19q-33 -10 -106.5 -15t-114.5 -5q-61 0 -102.5 26t-76.5 92l-10.5 21t-10 19.5t-9.5 17t-9.5 16t-9 13t-9.5 11t-9.5 7.5t-11 5.5t-11.5 1.5h-19v30h38q85 0 85 120q0 130 -85 130h-61q16 -21 16 -55v-370q0 -40 8 -47.5 t47 -7.5h15v-20h-440z" />
<glyph unicode="&#xb0;" horiz-adv-x="480" d="M60 940q0 74 52 127t128 53q74 0 127 -52t53 -128q0 -74 -52 -127t-128 -53q-74 0 -127 52t-53 128zM100 940q0 -59 41 -99.5t99 -40.5q59 0 99.5 41t40.5 99q0 59 -41 99.5t-99 40.5q-59 0 -99.5 -41t-40.5 -99z" />
<glyph unicode="&#xb1;" horiz-adv-x="860" d="M80 570l4 220h240v250l220 -4v-246h236l-4 -220h-232v-234l-220 4v230h-244zM100 0l10 220h650l-10 -220h-650z" />
<glyph unicode="&#xb6;" horiz-adv-x="1020" d="M50 818q0 146 105.5 249t254.5 103h570v-40q-58 0 -86.5 -3.5t-47 -20t-22.5 -41t-4 -75.5v-940q0 -51 4 -75.5t22.5 -41t47 -20t86.5 -3.5v-40h-200v1260h-280v-1260h-200v40q58 0 86.5 3.5t47 20t22.5 41t4 75.5v406h-50q-149 0 -254.5 106t-105.5 256z" />
<glyph unicode="&#xb7;" horiz-adv-x="408" d="M60 520q0 65 38.5 104.5t105.5 39.5q65 0 104.5 -38.5t39.5 -105.5q0 -65 -38.5 -104.5t-105.5 -39.5q-65 0 -104.5 38.5t-39.5 105.5z" />
<glyph unicode="&#xb8;" horiz-adv-x="1120" d="M450 -478l8 40q112 0 171 50.5t59 147.5q0 48 -20.5 77.5t-53.5 29.5q-63 0 -100 -23l-28 4l32 152h41l-23 -105q33 14 76 14q161 0 258.5 -47t97.5 -124q0 -97 -142.5 -156.5t-375.5 -59.5z" />
<glyph unicode="&#xba;" horiz-adv-x="990" d="M60 860q0 123 120.5 196.5t314.5 73.5q196 0 315.5 -74t119.5 -196q0 -123 -120.5 -196.5t-314.5 -73.5q-196 0 -315.5 74t-119.5 196zM390 900q0 -140 28.5 -210t80.5 -70q101 0 101 200q0 140 -28.5 210t-80.5 70q-101 0 -101 -200z" />
<glyph unicode="&#xbb;" horiz-adv-x="1110" d="M65 259l334 199q68 41 145 57v10q-77 16 -145 57l-334 199l157 155l408 -413v-6l-408 -413zM505 259l334 199q68 41 145 57v10q-77 16 -145 57l-334 199l157 155l408 -413v-6l-408 -413z" />
<glyph unicode="&#xbf;" horiz-adv-x="1240" d="M20 190q0 56 54 103t135 77t176 60t176 54.5t135 60t54 75.5v40h40v-80q0 -57 -20.5 -111.5t-44.5 -90.5t-44.5 -86.5t-20.5 -101.5q0 -117 45.5 -178.5t132.5 -61.5q131 0 211.5 59.5t80.5 156.5h70v-225h-20v34q0 26 2 34l-5 2q-37 -46 -146 -73.5t-206 -27.5 q-392 0 -598.5 72t-206.5 208zM596 940q0 65 38.5 104.5t105.5 39.5q65 0 104.5 -38.5t39.5 -105.5q0 -65 -38.5 -104.5t-105.5 -39.5q-65 0 -104.5 38.5t-39.5 105.5z" />
<glyph unicode="&#xc0;" horiz-adv-x="1760" d="M20 0v20h15q62 0 117.5 67t109.5 174l391 779h599v-12q-2 -16 -2 -24q0 -42 25 -102l315 -742q5 -11 13.5 -32.5t11.5 -28.5t10.5 -22t11 -19.5t11 -14t13.5 -11.5t15.5 -6t20 -5t24.5 -1h19v-20h-911v20h152v4q-34 13 -73 105l-64 151h-528q-38 -76 -38 -142 q0 -52 23.5 -85t73.5 -33h24v-20h-379zM336 320h491l-201 470q-14 32 -14 66v10l1 6h-7q0 -20 -35 -84zM656 1352l144 116q16 11 35 11q24 0 41 -17l220 -269l-48 -41z" />
<glyph unicode="&#xc1;" horiz-adv-x="1760" d="M20 0v20h15q62 0 117.5 67t109.5 174l391 779h599v-12q-2 -16 -2 -24q0 -42 25 -102l315 -742q5 -11 13.5 -32.5t11.5 -28.5t10.5 -22t11 -19.5t11 -14t13.5 -11.5t15.5 -6t20 -5t24.5 -1h19v-20h-911v20h152v4q-34 13 -73 105l-64 151h-528q-38 -76 -38 -142 q0 -52 23.5 -85t73.5 -33h24v-20h-379zM336 320h491l-201 470q-14 32 -14 66v10l1 6h-7q0 -20 -35 -84zM744 1193l220 269q17 17 41 17q19 0 35 -11l144 -116l-392 -200z" />
<glyph unicode="&#xc2;" horiz-adv-x="1760" d="M20 0v20h15q62 0 117.5 67t109.5 174l391 779h599v-12q-2 -16 -2 -24q0 -42 25 -102l315 -742q5 -11 13.5 -32.5t11.5 -28.5t10.5 -22t11 -19.5t11 -14t13.5 -11.5t15.5 -6t20 -5t24.5 -1h19v-20h-911v20h152v4q-34 13 -73 105l-64 151h-528q-38 -76 -38 -142 q0 -52 23.5 -85t73.5 -33h24v-20h-379zM336 320h491l-201 470q-14 32 -14 66v10l1 6h-7q0 -20 -35 -84zM595 1290l293 188h64l293 -188l-103 -134q-75 70 -142.5 155.5t-74.5 118.5h-10q-7 -33 -74.5 -118.5t-142.5 -155.5z" />
<glyph unicode="&#xc3;" horiz-adv-x="1760" d="M20 0v20h15q62 0 117.5 67t109.5 174l391 779h599v-12q-2 -16 -2 -24q0 -42 25 -102l315 -742q5 -11 13.5 -32.5t11.5 -28.5t10.5 -22t11 -19.5t11 -14t13.5 -11.5t15.5 -6t20 -5t24.5 -1h19v-20h-911v20h152v4q-34 13 -73 105l-64 151h-528q-38 -76 -38 -142 q0 -52 23.5 -85t73.5 -33h24v-20h-379zM336 320h491l-201 470q-14 32 -14 66v10l1 6h-7q0 -20 -35 -84zM555 1219l23 91q42 157 151 157q51 0 196 -56t206 -56q90 0 115 89l39 -10l-23 -88q-45 -171 -160 -171q-49 0 -196 56.5t-208 56.5q-84 0 -104 -79z" />
<glyph unicode="&#xc4;" horiz-adv-x="1760" d="M20 0v20h15q62 0 117.5 67t109.5 174l391 779h599v-12q-2 -16 -2 -24q0 -42 25 -102l315 -742q5 -11 13.5 -32.5t11.5 -28.5t10.5 -22t11 -19.5t11 -14t13.5 -11.5t15.5 -6t20 -5t24.5 -1h19v-20h-911v20h152v4q-34 13 -73 105l-64 151h-528q-38 -76 -38 -142 q0 -52 23.5 -85t73.5 -33h24v-20h-379zM336 320h491l-201 470q-14 32 -14 66v10l1 6h-7q0 -20 -35 -84zM530 1322q0 64 41 105t109 41q65 0 107.5 -39.5t42.5 -106.5q0 -64 -41 -105t-109 -41q-65 0 -107.5 39.5t-42.5 106.5zM1010 1322q0 64 41 105t109 41 q65 0 107.5 -39.5t42.5 -106.5q0 -64 -41 -105t-109 -41q-65 0 -107.5 39.5t-42.5 106.5z" />
<glyph unicode="&#xc5;" horiz-adv-x="1760" d="M20 0v20h15q62 0 117.5 67t109.5 174l391 779h228q-57 22 -93 73t-36 114q0 83 59 141.5t141 58.5t141 -58.5t59 -141.5q0 -63 -35.5 -114t-92.5 -73h228v-12q-2 -16 -2 -24q0 -42 25 -102l315 -742q5 -11 13.5 -32.5t11.5 -28.5t10.5 -22t11 -19.5t11 -14t13.5 -11.5 t15.5 -6t20 -5t24.5 -1h19v-20h-911v20h152v4q-34 13 -73 105l-64 151h-528q-38 -76 -38 -142q0 -52 23.5 -85t73.5 -33h24v-20h-379zM336 320h491l-201 470q-14 32 -14 66v10l1 6h-7q0 -20 -35 -84zM792 1227q0 -66 47 -113t113 -47t113 47t47 113t-47 113t-113 47 t-113 -47t-47 -113z" />
<glyph unicode="&#xc6;" horiz-adv-x="2210" d="M20 0v20h15q62 0 117.5 67t109.5 174l331 660q9 19 9 35q0 21 -14 32.5t-38 11.5h-120v40h1519q26 0 37 -4t23 -16h1l-6 112l20 1l26 -473l-100 -2q-10 160 -113 251t-267 91h-150v-4q50 -50 50 -116v-320h98q58 0 85 14t41 61t14 145h60v-480h-60q0 98 -14 145t-41 61 t-85 14h-98v-360q0 -66 -50 -116v-4h240q165 0 272.5 90.5t117.5 249.5h100l-26 -473l-20 1l6 112h-1q-12 -12 -23 -16t-37 -4h-1399v20h60q81 0 100.5 19.5t19.5 100.5v140h-514q-38 -76 -38 -142q0 -52 23.5 -85t73.5 -33h24v-20h-379zM336 320h494v560q0 81 -19.5 100.5 t-100.5 19.5h-32l-11.5 -23t-13.5 -26z" />
<glyph unicode="&#xc7;" horiz-adv-x="1620" d="M60 520q0 258 244.5 394t709.5 136q94 0 230 -21t192 -58q45 -33 53 -57l8 2q-7 28 -8 56l-7 128l20 1l23 -390l-160 -2q-11 69 -32 118.5t-60 93.5t-106.5 66.5t-162.5 22.5q-148 0 -226 -125.5t-78 -364.5t87 -364.5t253 -125.5q87 0 184 27.5t184 83t127 125.5l35 -20 q-45 -80 -140 -140t-196.5 -88t-193.5 -28q-83 0 -122 2l-21 -97q33 14 76 14q161 0 258.5 -47t97.5 -124q0 -97 -142.5 -156.5t-375.5 -59.5l8 40q112 0 171 50.5t59 147.5q0 48 -20.5 77.5t-53.5 29.5q-63 0 -100 -23l-28 4l31 146q-400 23 -609 157t-209 369z" />
<glyph unicode="&#xc8;" horiz-adv-x="1640" d="M40 0v20h60q81 0 100.5 19.5t19.5 100.5v760q0 81 -19.5 100.5t-100.5 19.5h-60v20h1339q26 0 37 -4t23 -16h1l-6 112l20 1l26 -473l-100 -2q-10 160 -113 251t-267 91h-190v-4q50 -50 50 -116v-320h138q58 0 85 14t41 61t14 145h60v-480h-60q0 98 -14 145t-41 61t-85 14 h-138v-360q0 -66 -50 -116v-4h280q165 0 272.5 90.5t117.5 249.5h100l-26 -473l-20 1l6 112h-1q-12 -12 -23 -16t-37 -4h-1439zM626 1352l144 116q16 11 35 11q24 0 41 -17l220 -269l-48 -41z" />
<glyph unicode="&#xc9;" horiz-adv-x="1640" d="M40 0v20h60q81 0 100.5 19.5t19.5 100.5v760q0 81 -19.5 100.5t-100.5 19.5h-60v20h1339q26 0 37 -4t23 -16h1l-6 112l20 1l26 -473l-100 -2q-10 160 -113 251t-267 91h-190v-4q50 -50 50 -116v-320h138q58 0 85 14t41 61t14 145h60v-480h-60q0 98 -14 145t-41 61t-85 14 h-138v-360q0 -66 -50 -116v-4h280q165 0 272.5 90.5t117.5 249.5h100l-26 -473l-20 1l6 112h-1q-12 -12 -23 -16t-37 -4h-1439zM714 1193l220 269q17 17 41 17q19 0 35 -11l144 -116l-392 -200z" />
<glyph unicode="&#xca;" horiz-adv-x="1640" d="M40 0v20h60q81 0 100.5 19.5t19.5 100.5v760q0 81 -19.5 100.5t-100.5 19.5h-60v20h1339q26 0 37 -4t23 -16h1l-6 112l20 1l26 -473l-100 -2q-10 160 -113 251t-267 91h-190v-4q50 -50 50 -116v-320h138q58 0 85 14t41 61t14 145h60v-480h-60q0 98 -14 145t-41 61t-85 14 h-138v-360q0 -66 -50 -116v-4h280q165 0 272.5 90.5t117.5 249.5h100l-26 -473l-20 1l6 112h-1q-12 -12 -23 -16t-37 -4h-1439zM565 1290l293 188h64l293 -188l-103 -134q-75 70 -142.5 155.5t-74.5 118.5h-10q-7 -33 -74.5 -118.5t-142.5 -155.5z" />
<glyph unicode="&#xcb;" horiz-adv-x="1640" d="M40 0v20h60q81 0 100.5 19.5t19.5 100.5v760q0 81 -19.5 100.5t-100.5 19.5h-60v20h1339q26 0 37 -4t23 -16h1l-6 112l20 1l26 -473l-100 -2q-10 160 -113 251t-267 91h-190v-4q50 -50 50 -116v-320h138q58 0 85 14t41 61t14 145h60v-480h-60q0 98 -14 145t-41 61t-85 14 h-138v-360q0 -66 -50 -116v-4h280q165 0 272.5 90.5t117.5 249.5h100l-26 -473l-20 1l6 112h-1q-12 -12 -23 -16t-37 -4h-1439zM500 1322q0 64 41 105t109 41q65 0 107.5 -39.5t42.5 -106.5q0 -64 -41 -105t-109 -41q-65 0 -107.5 39.5t-42.5 106.5zM980 1322q0 64 41 105 t109 41q65 0 107.5 -39.5t42.5 -106.5q0 -64 -41 -105t-109 -41q-65 0 -107.5 39.5t-42.5 106.5z" />
<glyph unicode="&#xcc;" horiz-adv-x="1080" d="M40 0v20h60q81 0 100.5 19.5t19.5 100.5v760q0 81 -19.5 100.5t-100.5 19.5h-60v20h1000v-20h-60q-81 0 -100.5 -19.5t-19.5 -100.5v-760q0 -81 19.5 -100.5t100.5 -19.5h60v-20h-1000zM276 1352l144 116q16 11 35 11q24 0 41 -17l220 -269l-48 -41z" />
<glyph unicode="&#xcd;" horiz-adv-x="1080" d="M40 0v20h60q81 0 100.5 19.5t19.5 100.5v760q0 81 -19.5 100.5t-100.5 19.5h-60v20h1000v-20h-60q-81 0 -100.5 -19.5t-19.5 -100.5v-760q0 -81 19.5 -100.5t100.5 -19.5h60v-20h-1000zM364 1193l220 269q17 17 41 17q19 0 35 -11l144 -116l-392 -200z" />
<glyph unicode="&#xce;" horiz-adv-x="1080" d="M40 0v20h60q81 0 100.5 19.5t19.5 100.5v760q0 81 -19.5 100.5t-100.5 19.5h-60v20h1000v-20h-60q-81 0 -100.5 -19.5t-19.5 -100.5v-760q0 -81 19.5 -100.5t100.5 -19.5h60v-20h-1000zM215 1290l293 188h64l293 -188l-103 -134q-75 70 -142.5 155.5t-74.5 118.5h-10 q-7 -33 -74.5 -118.5t-142.5 -155.5z" />
<glyph unicode="&#xcf;" horiz-adv-x="1080" d="M40 0v20h60q81 0 100.5 19.5t19.5 100.5v760q0 81 -19.5 100.5t-100.5 19.5h-60v20h1000v-20h-60q-81 0 -100.5 -19.5t-19.5 -100.5v-760q0 -81 19.5 -100.5t100.5 -19.5h60v-20h-1000zM150 1322q0 64 41 105t109 41q65 0 107.5 -39.5t42.5 -106.5q0 -64 -41 -105 t-109 -41q-65 0 -107.5 39.5t-42.5 106.5zM630 1322q0 64 41 105t109 41q65 0 107.5 -39.5t42.5 -106.5q0 -64 -41 -105t-109 -41q-65 0 -107.5 39.5t-42.5 106.5z" />
<glyph unicode="&#xd0;" horiz-adv-x="2000" d="M60 500l10 60h190v340q0 81 -19.5 100.5t-100.5 19.5h-60v20h1020q249 0 440 -64.5t295.5 -183t104.5 -272.5t-104.5 -272.5t-295.5 -183t-440 -64.5h-1020v20h60q81 0 100.5 19.5t19.5 100.5v360h-200zM860 40h150q136 0 208 123t72 357t-72 357t-208 123h-150v-4 q40 -40 40 -106v-330h170l-10 -60h-160v-350q0 -66 -40 -106v-4z" />
<glyph unicode="&#xd1;" horiz-adv-x="1730" d="M20 1020v20h904l495 -702q41 -60 41 -83h14q-4 48 -4 95v470q0 94 -39.5 147t-100.5 53h-40v20h410v-20h-30q-69 0 -104.5 -51.5t-35.5 -148.5v-830h-649l-546 775q-45 66 -45 88h-13q3 -37 3 -96v-537q0 -94 39.5 -147t100.5 -53h60v-20h-440v20h40q61 0 100.5 53 t39.5 147v680q0 78 -27.5 99t-112.5 21h-60zM590 1219l23 91q42 157 151 157q51 0 196 -56t206 -56q90 0 115 89l39 -10l-23 -88q-45 -171 -160 -171q-49 0 -196 56.5t-208 56.5q-84 0 -104 -79z" />
<glyph unicode="&#xd2;" d="M60 520q0 238 236.5 384t623.5 146t623.5 -146t236.5 -384t-236.5 -384t-623.5 -146t-623.5 146t-236.5 384zM656 1352l144 116q16 11 35 11q24 0 41 -17l220 -269l-48 -41zM700 600q0 -283 58.5 -431.5t169.5 -148.5q103 0 157.5 107.5t54.5 312.5q0 283 -58.5 431.5 t-169.5 148.5q-103 0 -157.5 -107.5t-54.5 -312.5z" />
<glyph unicode="&#xd3;" d="M60 520q0 238 236.5 384t623.5 146t623.5 -146t236.5 -384t-236.5 -384t-623.5 -146t-623.5 146t-236.5 384zM700 600q0 -283 58.5 -431.5t169.5 -148.5q103 0 157.5 107.5t54.5 312.5q0 283 -58.5 431.5t-169.5 148.5q-103 0 -157.5 -107.5t-54.5 -312.5zM744 1193 l220 269q17 17 41 17q19 0 35 -11l144 -116l-392 -200z" />
<glyph unicode="&#xd4;" d="M60 520q0 238 236.5 384t623.5 146t623.5 -146t236.5 -384t-236.5 -384t-623.5 -146t-623.5 146t-236.5 384zM595 1290l293 188h64l293 -188l-103 -134q-75 70 -142.5 155.5t-74.5 118.5h-10q-7 -33 -74.5 -118.5t-142.5 -155.5zM700 600q0 -283 58.5 -431.5 t169.5 -148.5q103 0 157.5 107.5t54.5 312.5q0 283 -58.5 431.5t-169.5 148.5q-103 0 -157.5 -107.5t-54.5 -312.5z" />
<glyph unicode="&#xd5;" d="M60 520q0 238 236.5 384t623.5 146t623.5 -146t236.5 -384t-236.5 -384t-623.5 -146t-623.5 146t-236.5 384zM555 1219l23 91q42 157 151 157q51 0 196 -56t206 -56q90 0 115 89l39 -10l-23 -88q-45 -171 -160 -171q-49 0 -196 56.5t-208 56.5q-84 0 -104 -79zM700 600 q0 -283 58.5 -431.5t169.5 -148.5q103 0 157.5 107.5t54.5 312.5q0 283 -58.5 431.5t-169.5 148.5q-103 0 -157.5 -107.5t-54.5 -312.5z" />
<glyph unicode="&#xd6;" d="M60 520q0 238 236.5 384t623.5 146t623.5 -146t236.5 -384t-236.5 -384t-623.5 -146t-623.5 146t-236.5 384zM530 1322q0 64 41 105t109 41q65 0 107.5 -39.5t42.5 -106.5q0 -64 -41 -105t-109 -41q-65 0 -107.5 39.5t-42.5 106.5zM700 600q0 -283 58.5 -431.5 t169.5 -148.5q103 0 157.5 107.5t54.5 312.5q0 283 -58.5 431.5t-169.5 148.5q-103 0 -157.5 -107.5t-54.5 -312.5zM1010 1322q0 64 41 105t109 41q65 0 107.5 -39.5t42.5 -106.5q0 -64 -41 -105t-109 -41q-65 0 -107.5 39.5t-42.5 106.5z" />
<glyph unicode="&#xd7;" horiz-adv-x="892" d="M90 731l156 155l205 -205l195 195l156 -155l-196 -195l191 -191l-155 -156l-191 191l-201 -201l-155 156l200 201z" />
<glyph unicode="&#xd8;" d="M60 520q0 238 236.5 384t623.5 146q234 0 417 -55l141 146l44 -42l-122 -126q181 -68 280.5 -185t99.5 -268q0 -238 -236.5 -384t-623.5 -146q-234 0 -417 55l-141 -146l-44 42l122 126q-181 68 -280.5 185t-99.5 268zM700 600q0 -141 15 -249l398 412q-53 257 -201 257 q-103 0 -157.5 -107.5t-54.5 -312.5zM727 277q53 -257 201 -257q103 0 157.5 107.5t54.5 312.5q0 141 -15 249z" />
<glyph unicode="&#xd9;" horiz-adv-x="1700" d="M30 1020v20h980v-20h-60q-81 0 -100.5 -19.5t-19.5 -100.5v-680q0 -86 55 -138t145 -52q198 0 319 91t121 239v460q0 94 -39.5 147t-100.5 53h-40v20h380v-20h-24q-59 0 -97.5 -53t-38.5 -147v-460q0 -166 -132 -268t-348 -102q-409 0 -624.5 95t-215.5 275v540 q0 81 -19.5 100.5t-100.5 19.5h-40zM686 1352l144 116q16 11 35 11q24 0 41 -17l220 -269l-48 -41z" />
<glyph unicode="&#xda;" horiz-adv-x="1700" d="M30 1020v20h980v-20h-60q-81 0 -100.5 -19.5t-19.5 -100.5v-680q0 -86 55 -138t145 -52q198 0 319 91t121 239v460q0 94 -39.5 147t-100.5 53h-40v20h380v-20h-24q-59 0 -97.5 -53t-38.5 -147v-460q0 -166 -132 -268t-348 -102q-409 0 -624.5 95t-215.5 275v540 q0 81 -19.5 100.5t-100.5 19.5h-40zM774 1193l220 269q17 17 41 17q19 0 35 -11l144 -116l-392 -200z" />
<glyph unicode="&#xdb;" horiz-adv-x="1700" d="M30 1020v20h980v-20h-60q-81 0 -100.5 -19.5t-19.5 -100.5v-680q0 -86 55 -138t145 -52q198 0 319 91t121 239v460q0 94 -39.5 147t-100.5 53h-40v20h380v-20h-24q-59 0 -97.5 -53t-38.5 -147v-460q0 -166 -132 -268t-348 -102q-409 0 -624.5 95t-215.5 275v540 q0 81 -19.5 100.5t-100.5 19.5h-40zM625 1290l293 188h64l293 -188l-103 -134q-75 70 -142.5 155.5t-74.5 118.5h-10q-7 -33 -74.5 -118.5t-142.5 -155.5z" />
<glyph unicode="&#xdc;" horiz-adv-x="1700" d="M30 1020v20h980v-20h-60q-81 0 -100.5 -19.5t-19.5 -100.5v-680q0 -86 55 -138t145 -52q198 0 319 91t121 239v460q0 94 -39.5 147t-100.5 53h-40v20h380v-20h-24q-59 0 -97.5 -53t-38.5 -147v-460q0 -166 -132 -268t-348 -102q-409 0 -624.5 95t-215.5 275v540 q0 81 -19.5 100.5t-100.5 19.5h-40zM560 1322q0 64 41 105t109 41q65 0 107.5 -39.5t42.5 -106.5q0 -64 -41 -105t-109 -41q-65 0 -107.5 39.5t-42.5 106.5zM1040 1322q0 64 41 105t109 41q65 0 107.5 -39.5t42.5 -106.5q0 -64 -41 -105t-109 -41q-65 0 -107.5 39.5 t-42.5 106.5z" />
<glyph unicode="&#xdd;" horiz-adv-x="1720" d="M20 1020v20h948v-20h-134v-4q9 -3 17 -9.5t17.5 -21.5t14.5 -23.5t19 -33.5t20 -36l222 -402q28 -53 33 -71h23q3 11 38 70l141 239q23 39 40.5 89.5t17.5 85.5q0 52 -26 84.5t-79 32.5h-34v20h402v-20h-10q-92 0 -210 -200l-270 -457v-223q0 -81 19.5 -100.5 t100.5 -19.5h80v-20h-1040v20h80q81 0 100.5 19.5t19.5 100.5v65l-363 659q-6 10 -17.5 32t-16 30t-14.5 24t-15 22t-14 16.5t-16 14.5t-17 9t-20.5 6.5t-23.5 1.5h-33zM794 1193l220 269q17 17 41 17q19 0 35 -11l144 -116l-392 -200z" />
<glyph unicode="&#xde;" horiz-adv-x="1870" d="M40 0v20h60q81 0 100.5 19.5t19.5 100.5v760q0 81 -19.5 100.5t-100.5 19.5h-60v20h1000v-20h-60q-81 0 -100.5 -19.5t-19.5 -100.5h200q229 0 395 -32t260.5 -100t94.5 -168t-94.5 -168t-260.5 -100t-395 -32h-200v-160q0 -81 19.5 -100.5t100.5 -19.5h60v-20h-1000z M860 340h110q102 0 151 59.5t49 200.5t-49 200.5t-151 59.5h-110v-520z" />
<glyph unicode="&#xdf;" horiz-adv-x="1990" d="M40 0v20h40q81 0 100.5 19.5t19.5 100.5v469h-140v40h140v21q0 185 205 282.5t595 97.5q263 0 441 -97l-173 -203l393 -176q130 -58 199.5 -135t69.5 -157q0 -142 -147.5 -217t-426.5 -75q-110 0 -171 17t-123 54q-16 9 -51 41t-39 44l-8 -4q6 -17 8 -56l5 -96l-20 -1 l-18 321l111 1q17 -281 306 -281q109 0 166 29.5t57 85.5q0 43 -40 88t-107 75l-424 190l338 405q-54 45 -148.5 76t-179.5 31q-80 0 -129 -38.5t-49 -101.5v-743q0 -32 10 -120v-17z" />
<glyph unicode="&#xe0;" horiz-adv-x="1760" d="M20 0v20h15q62 0 117.5 67t109.5 174l391 779h599v-12q-2 -16 -2 -24q0 -42 25 -102l315 -742q5 -11 13.5 -32.5t11.5 -28.5t10.5 -22t11 -19.5t11 -14t13.5 -11.5t15.5 -6t20 -5t24.5 -1h19v-20h-911v20h152v4q-34 13 -73 105l-64 151h-528q-38 -76 -38 -142 q0 -52 23.5 -85t73.5 -33h24v-20h-379zM336 320h491l-201 470q-14 32 -14 66v10l1 6h-7q0 -20 -35 -84zM656 1352l144 116q16 11 35 11q24 0 41 -17l220 -269l-48 -41z" />
<glyph unicode="&#xe1;" horiz-adv-x="1760" d="M20 0v20h15q62 0 117.5 67t109.5 174l391 779h599v-12q-2 -16 -2 -24q0 -42 25 -102l315 -742q5 -11 13.5 -32.5t11.5 -28.5t10.5 -22t11 -19.5t11 -14t13.5 -11.5t15.5 -6t20 -5t24.5 -1h19v-20h-911v20h152v4q-34 13 -73 105l-64 151h-528q-38 -76 -38 -142 q0 -52 23.5 -85t73.5 -33h24v-20h-379zM336 320h491l-201 470q-14 32 -14 66v10l1 6h-7q0 -20 -35 -84zM744 1193l220 269q17 17 41 17q19 0 35 -11l144 -116l-392 -200z" />
<glyph unicode="&#xe2;" horiz-adv-x="1760" d="M20 0v20h15q62 0 117.5 67t109.5 174l391 779h599v-12q-2 -16 -2 -24q0 -42 25 -102l315 -742q5 -11 13.5 -32.5t11.5 -28.5t10.5 -22t11 -19.5t11 -14t13.5 -11.5t15.5 -6t20 -5t24.5 -1h19v-20h-911v20h152v4q-34 13 -73 105l-64 151h-528q-38 -76 -38 -142 q0 -52 23.5 -85t73.5 -33h24v-20h-379zM336 320h491l-201 470q-14 32 -14 66v10l1 6h-7q0 -20 -35 -84zM595 1290l293 188h64l293 -188l-103 -134q-75 70 -142.5 155.5t-74.5 118.5h-10q-7 -33 -74.5 -118.5t-142.5 -155.5z" />
<glyph unicode="&#xe3;" horiz-adv-x="1760" d="M20 0v20h15q62 0 117.5 67t109.5 174l391 779h599v-12q-2 -16 -2 -24q0 -42 25 -102l315 -742q5 -11 13.5 -32.5t11.5 -28.5t10.5 -22t11 -19.5t11 -14t13.5 -11.5t15.5 -6t20 -5t24.5 -1h19v-20h-911v20h152v4q-34 13 -73 105l-64 151h-528q-38 -76 -38 -142 q0 -52 23.5 -85t73.5 -33h24v-20h-379zM336 320h491l-201 470q-14 32 -14 66v10l1 6h-7q0 -20 -35 -84zM555 1219l23 91q42 157 151 157q51 0 196 -56t206 -56q90 0 115 89l39 -10l-23 -88q-45 -171 -160 -171q-49 0 -196 56.5t-208 56.5q-84 0 -104 -79z" />
<glyph unicode="&#xe4;" horiz-adv-x="1760" d="M20 0v20h15q62 0 117.5 67t109.5 174l391 779h599v-12q-2 -16 -2 -24q0 -42 25 -102l315 -742q5 -11 13.5 -32.5t11.5 -28.5t10.5 -22t11 -19.5t11 -14t13.5 -11.5t15.5 -6t20 -5t24.5 -1h19v-20h-911v20h152v4q-34 13 -73 105l-64 151h-528q-38 -76 -38 -142 q0 -52 23.5 -85t73.5 -33h24v-20h-379zM336 320h491l-201 470q-14 32 -14 66v10l1 6h-7q0 -20 -35 -84zM530 1322q0 64 41 105t109 41q65 0 107.5 -39.5t42.5 -106.5q0 -64 -41 -105t-109 -41q-65 0 -107.5 39.5t-42.5 106.5zM1010 1322q0 64 41 105t109 41 q65 0 107.5 -39.5t42.5 -106.5q0 -64 -41 -105t-109 -41q-65 0 -107.5 39.5t-42.5 106.5z" />
<glyph unicode="&#xe5;" horiz-adv-x="1760" d="M20 0v20h15q62 0 117.5 67t109.5 174l391 779h228q-57 22 -93 73t-36 114q0 83 59 141.5t141 58.5t141 -58.5t59 -141.5q0 -63 -35.5 -114t-92.5 -73h228v-12q-2 -16 -2 -24q0 -42 25 -102l315 -742q5 -11 13.5 -32.5t11.5 -28.5t10.5 -22t11 -19.5t11 -14t13.5 -11.5 t15.5 -6t20 -5t24.5 -1h19v-20h-911v20h152v4q-34 13 -73 105l-64 151h-528q-38 -76 -38 -142q0 -52 23.5 -85t73.5 -33h24v-20h-379zM336 320h491l-201 470q-14 32 -14 66v10l1 6h-7q0 -20 -35 -84zM792 1227q0 -66 47 -113t113 -47t113 47t47 113t-47 113t-113 47 t-113 -47t-47 -113z" />
<glyph unicode="&#xe6;" horiz-adv-x="2210" d="M20 0v20h15q62 0 117.5 67t109.5 174l331 660q9 19 9 35q0 21 -14 32.5t-38 11.5h-120v40h1519q26 0 37 -4t23 -16h1l-6 112l20 1l26 -473l-100 -2q-10 160 -113 251t-267 91h-150v-4q50 -50 50 -116v-320h98q58 0 85 14t41 61t14 145h60v-480h-60q0 98 -14 145t-41 61 t-85 14h-98v-360q0 -66 -50 -116v-4h240q165 0 272.5 90.5t117.5 249.5h100l-26 -473l-20 1l6 112h-1q-12 -12 -23 -16t-37 -4h-1399v20h60q81 0 100.5 19.5t19.5 100.5v140h-514q-38 -76 -38 -142q0 -52 23.5 -85t73.5 -33h24v-20h-379zM336 320h494v560q0 81 -19.5 100.5 t-100.5 19.5h-32l-11.5 -23t-13.5 -26z" />
<glyph unicode="&#xe7;" horiz-adv-x="1620" d="M60 520q0 258 244.5 394t709.5 136q94 0 230 -21t192 -58q45 -33 53 -57l8 2q-7 28 -8 56l-7 128l20 1l23 -390l-160 -2q-11 69 -32 118.5t-60 93.5t-106.5 66.5t-162.5 22.5q-148 0 -226 -125.5t-78 -364.5t87 -364.5t253 -125.5q87 0 184 27.5t184 83t127 125.5l35 -20 q-45 -80 -140 -140t-196.5 -88t-193.5 -28q-83 0 -122 2l-21 -97q33 14 76 14q161 0 258.5 -47t97.5 -124q0 -97 -142.5 -156.5t-375.5 -59.5l8 40q112 0 171 50.5t59 147.5q0 48 -20.5 77.5t-53.5 29.5q-63 0 -100 -23l-28 4l31 146q-400 23 -609 157t-209 369z" />
<glyph unicode="&#xe8;" horiz-adv-x="1640" d="M40 0v20h60q81 0 100.5 19.5t19.5 100.5v760q0 81 -19.5 100.5t-100.5 19.5h-60v20h1339q26 0 37 -4t23 -16h1l-6 112l20 1l26 -473l-100 -2q-10 160 -113 251t-267 91h-190v-4q50 -50 50 -116v-320h138q58 0 85 14t41 61t14 145h60v-480h-60q0 98 -14 145t-41 61t-85 14 h-138v-360q0 -66 -50 -116v-4h280q165 0 272.5 90.5t117.5 249.5h100l-26 -473l-20 1l6 112h-1q-12 -12 -23 -16t-37 -4h-1439zM626 1352l144 116q16 11 35 11q24 0 41 -17l220 -269l-48 -41z" />
<glyph unicode="&#xe9;" horiz-adv-x="1640" d="M40 0v20h60q81 0 100.5 19.5t19.5 100.5v760q0 81 -19.5 100.5t-100.5 19.5h-60v20h1339q26 0 37 -4t23 -16h1l-6 112l20 1l26 -473l-100 -2q-10 160 -113 251t-267 91h-190v-4q50 -50 50 -116v-320h138q58 0 85 14t41 61t14 145h60v-480h-60q0 98 -14 145t-41 61t-85 14 h-138v-360q0 -66 -50 -116v-4h280q165 0 272.5 90.5t117.5 249.5h100l-26 -473l-20 1l6 112h-1q-12 -12 -23 -16t-37 -4h-1439zM714 1193l220 269q17 17 41 17q19 0 35 -11l144 -116l-392 -200z" />
<glyph unicode="&#xea;" horiz-adv-x="1640" d="M40 0v20h60q81 0 100.5 19.5t19.5 100.5v760q0 81 -19.5 100.5t-100.5 19.5h-60v20h1339q26 0 37 -4t23 -16h1l-6 112l20 1l26 -473l-100 -2q-10 160 -113 251t-267 91h-190v-4q50 -50 50 -116v-320h138q58 0 85 14t41 61t14 145h60v-480h-60q0 98 -14 145t-41 61t-85 14 h-138v-360q0 -66 -50 -116v-4h280q165 0 272.5 90.5t117.5 249.5h100l-26 -473l-20 1l6 112h-1q-12 -12 -23 -16t-37 -4h-1439zM565 1290l293 188h64l293 -188l-103 -134q-75 70 -142.5 155.5t-74.5 118.5h-10q-7 -33 -74.5 -118.5t-142.5 -155.5z" />
<glyph unicode="&#xeb;" horiz-adv-x="1640" d="M40 0v20h60q81 0 100.5 19.5t19.5 100.5v760q0 81 -19.5 100.5t-100.5 19.5h-60v20h1339q26 0 37 -4t23 -16h1l-6 112l20 1l26 -473l-100 -2q-10 160 -113 251t-267 91h-190v-4q50 -50 50 -116v-320h138q58 0 85 14t41 61t14 145h60v-480h-60q0 98 -14 145t-41 61t-85 14 h-138v-360q0 -66 -50 -116v-4h280q165 0 272.5 90.5t117.5 249.5h100l-26 -473l-20 1l6 112h-1q-12 -12 -23 -16t-37 -4h-1439zM500 1322q0 64 41 105t109 41q65 0 107.5 -39.5t42.5 -106.5q0 -64 -41 -105t-109 -41q-65 0 -107.5 39.5t-42.5 106.5zM980 1322q0 64 41 105 t109 41q65 0 107.5 -39.5t42.5 -106.5q0 -64 -41 -105t-109 -41q-65 0 -107.5 39.5t-42.5 106.5z" />
<glyph unicode="&#xec;" horiz-adv-x="1080" d="M40 0v20h60q81 0 100.5 19.5t19.5 100.5v760q0 81 -19.5 100.5t-100.5 19.5h-60v20h1000v-20h-60q-81 0 -100.5 -19.5t-19.5 -100.5v-760q0 -81 19.5 -100.5t100.5 -19.5h60v-20h-1000zM276 1352l144 116q16 11 35 11q24 0 41 -17l220 -269l-48 -41z" />
<glyph unicode="&#xed;" horiz-adv-x="1080" d="M40 0v20h60q81 0 100.5 19.5t19.5 100.5v760q0 81 -19.5 100.5t-100.5 19.5h-60v20h1000v-20h-60q-81 0 -100.5 -19.5t-19.5 -100.5v-760q0 -81 19.5 -100.5t100.5 -19.5h60v-20h-1000zM364 1193l220 269q17 17 41 17q19 0 35 -11l144 -116l-392 -200z" />
<glyph unicode="&#xee;" horiz-adv-x="1080" d="M40 0v20h60q81 0 100.5 19.5t19.5 100.5v760q0 81 -19.5 100.5t-100.5 19.5h-60v20h1000v-20h-60q-81 0 -100.5 -19.5t-19.5 -100.5v-760q0 -81 19.5 -100.5t100.5 -19.5h60v-20h-1000zM215 1290l293 188h64l293 -188l-103 -134q-75 70 -142.5 155.5t-74.5 118.5h-10 q-7 -33 -74.5 -118.5t-142.5 -155.5z" />
<glyph unicode="&#xef;" horiz-adv-x="1080" d="M40 0v20h60q81 0 100.5 19.5t19.5 100.5v760q0 81 -19.5 100.5t-100.5 19.5h-60v20h1000v-20h-60q-81 0 -100.5 -19.5t-19.5 -100.5v-760q0 -81 19.5 -100.5t100.5 -19.5h60v-20h-1000zM150 1322q0 64 41 105t109 41q65 0 107.5 -39.5t42.5 -106.5q0 -64 -41 -105 t-109 -41q-65 0 -107.5 39.5t-42.5 106.5zM630 1322q0 64 41 105t109 41q65 0 107.5 -39.5t42.5 -106.5q0 -64 -41 -105t-109 -41q-65 0 -107.5 39.5t-42.5 106.5z" />
<glyph unicode="&#xf0;" horiz-adv-x="2000" d="M60 500l10 60h190v340q0 81 -19.5 100.5t-100.5 19.5h-60v20h1020q249 0 440 -64.5t295.5 -183t104.5 -272.5t-104.5 -272.5t-295.5 -183t-440 -64.5h-1020v20h60q81 0 100.5 19.5t19.5 100.5v360h-200zM860 40h150q136 0 208 123t72 357t-72 357t-208 123h-150v-4 q40 -40 40 -106v-330h170l-10 -60h-160v-350q0 -66 -40 -106v-4z" />
<glyph unicode="&#xf1;" horiz-adv-x="1730" d="M20 1020v20h904l495 -702q41 -60 41 -83h14q-4 48 -4 95v470q0 94 -39.5 147t-100.5 53h-40v20h410v-20h-30q-69 0 -104.5 -51.5t-35.5 -148.5v-830h-649l-546 775q-45 66 -45 88h-13q3 -37 3 -96v-537q0 -94 39.5 -147t100.5 -53h60v-20h-440v20h40q61 0 100.5 53 t39.5 147v680q0 78 -27.5 99t-112.5 21h-60zM590 1219l23 91q42 157 151 157q51 0 196 -56t206 -56q90 0 115 89l39 -10l-23 -88q-45 -171 -160 -171q-49 0 -196 56.5t-208 56.5q-84 0 -104 -79z" />
<glyph unicode="&#xf2;" d="M60 520q0 238 236.5 384t623.5 146t623.5 -146t236.5 -384t-236.5 -384t-623.5 -146t-623.5 146t-236.5 384zM656 1352l144 116q16 11 35 11q24 0 41 -17l220 -269l-48 -41zM700 600q0 -283 58.5 -431.5t169.5 -148.5q103 0 157.5 107.5t54.5 312.5q0 283 -58.5 431.5 t-169.5 148.5q-103 0 -157.5 -107.5t-54.5 -312.5z" />
<glyph unicode="&#xf3;" d="M60 520q0 238 236.5 384t623.5 146t623.5 -146t236.5 -384t-236.5 -384t-623.5 -146t-623.5 146t-236.5 384zM700 600q0 -283 58.5 -431.5t169.5 -148.5q103 0 157.5 107.5t54.5 312.5q0 283 -58.5 431.5t-169.5 148.5q-103 0 -157.5 -107.5t-54.5 -312.5zM744 1193 l220 269q17 17 41 17q19 0 35 -11l144 -116l-392 -200z" />
<glyph unicode="&#xf4;" d="M60 520q0 238 236.5 384t623.5 146t623.5 -146t236.5 -384t-236.5 -384t-623.5 -146t-623.5 146t-236.5 384zM595 1290l293 188h64l293 -188l-103 -134q-75 70 -142.5 155.5t-74.5 118.5h-10q-7 -33 -74.5 -118.5t-142.5 -155.5zM700 600q0 -283 58.5 -431.5 t169.5 -148.5q103 0 157.5 107.5t54.5 312.5q0 283 -58.5 431.5t-169.5 148.5q-103 0 -157.5 -107.5t-54.5 -312.5z" />
<glyph unicode="&#xf5;" d="M60 520q0 238 236.5 384t623.5 146t623.5 -146t236.5 -384t-236.5 -384t-623.5 -146t-623.5 146t-236.5 384zM555 1219l23 91q42 157 151 157q51 0 196 -56t206 -56q90 0 115 89l39 -10l-23 -88q-45 -171 -160 -171q-49 0 -196 56.5t-208 56.5q-84 0 -104 -79zM700 600 q0 -283 58.5 -431.5t169.5 -148.5q103 0 157.5 107.5t54.5 312.5q0 283 -58.5 431.5t-169.5 148.5q-103 0 -157.5 -107.5t-54.5 -312.5z" />
<glyph unicode="&#xf6;" d="M60 520q0 238 236.5 384t623.5 146t623.5 -146t236.5 -384t-236.5 -384t-623.5 -146t-623.5 146t-236.5 384zM530 1322q0 64 41 105t109 41q65 0 107.5 -39.5t42.5 -106.5q0 -64 -41 -105t-109 -41q-65 0 -107.5 39.5t-42.5 106.5zM700 600q0 -283 58.5 -431.5 t169.5 -148.5q103 0 157.5 107.5t54.5 312.5q0 283 -58.5 431.5t-169.5 148.5q-103 0 -157.5 -107.5t-54.5 -312.5zM1010 1322q0 64 41 105t109 41q65 0 107.5 -39.5t42.5 -106.5q0 -64 -41 -105t-109 -41q-65 0 -107.5 39.5t-42.5 106.5z" />
<glyph unicode="&#xf7;" horiz-adv-x="1000" d="M60 410l10 220h870l-10 -220h-870zM366 164q0 65 38.5 104.5t105.5 39.5q65 0 104.5 -38.5t39.5 -105.5q0 -65 -38.5 -104.5t-105.5 -39.5q-65 0 -104.5 38.5t-39.5 105.5zM366 876q0 65 38.5 104.5t105.5 39.5q65 0 104.5 -38.5t39.5 -105.5q0 -65 -38.5 -104.5 t-105.5 -39.5q-65 0 -104.5 38.5t-39.5 105.5z" />
<glyph unicode="&#xf8;" d="M60 520q0 238 236.5 384t623.5 146q234 0 417 -55l141 146l44 -42l-122 -126q181 -68 280.5 -185t99.5 -268q0 -238 -236.5 -384t-623.5 -146q-234 0 -417 55l-141 -146l-44 42l122 126q-181 68 -280.5 185t-99.5 268zM700 600q0 -141 15 -249l398 412q-53 257 -201 257 q-103 0 -157.5 -107.5t-54.5 -312.5zM727 277q53 -257 201 -257q103 0 157.5 107.5t54.5 312.5q0 141 -15 249z" />
<glyph unicode="&#xf9;" horiz-adv-x="1700" d="M30 1020v20h980v-20h-60q-81 0 -100.5 -19.5t-19.5 -100.5v-680q0 -86 55 -138t145 -52q198 0 319 91t121 239v460q0 94 -39.5 147t-100.5 53h-40v20h380v-20h-24q-59 0 -97.5 -53t-38.5 -147v-460q0 -166 -132 -268t-348 -102q-409 0 -624.5 95t-215.5 275v540 q0 81 -19.5 100.5t-100.5 19.5h-40zM686 1352l144 116q16 11 35 11q24 0 41 -17l220 -269l-48 -41z" />
<glyph unicode="&#xfa;" horiz-adv-x="1700" d="M30 1020v20h980v-20h-60q-81 0 -100.5 -19.5t-19.5 -100.5v-680q0 -86 55 -138t145 -52q198 0 319 91t121 239v460q0 94 -39.5 147t-100.5 53h-40v20h380v-20h-24q-59 0 -97.5 -53t-38.5 -147v-460q0 -166 -132 -268t-348 -102q-409 0 -624.5 95t-215.5 275v540 q0 81 -19.5 100.5t-100.5 19.5h-40zM774 1193l220 269q17 17 41 17q19 0 35 -11l144 -116l-392 -200z" />
<glyph unicode="&#xfb;" horiz-adv-x="1700" d="M30 1020v20h980v-20h-60q-81 0 -100.5 -19.5t-19.5 -100.5v-680q0 -86 55 -138t145 -52q198 0 319 91t121 239v460q0 94 -39.5 147t-100.5 53h-40v20h380v-20h-24q-59 0 -97.5 -53t-38.5 -147v-460q0 -166 -132 -268t-348 -102q-409 0 -624.5 95t-215.5 275v540 q0 81 -19.5 100.5t-100.5 19.5h-40zM625 1290l293 188h64l293 -188l-103 -134q-75 70 -142.5 155.5t-74.5 118.5h-10q-7 -33 -74.5 -118.5t-142.5 -155.5z" />
<glyph unicode="&#xfc;" horiz-adv-x="1700" d="M30 1020v20h980v-20h-60q-81 0 -100.5 -19.5t-19.5 -100.5v-680q0 -86 55 -138t145 -52q198 0 319 91t121 239v460q0 94 -39.5 147t-100.5 53h-40v20h380v-20h-24q-59 0 -97.5 -53t-38.5 -147v-460q0 -166 -132 -268t-348 -102q-409 0 -624.5 95t-215.5 275v540 q0 81 -19.5 100.5t-100.5 19.5h-40zM560 1322q0 64 41 105t109 41q65 0 107.5 -39.5t42.5 -106.5q0 -64 -41 -105t-109 -41q-65 0 -107.5 39.5t-42.5 106.5zM1040 1322q0 64 41 105t109 41q65 0 107.5 -39.5t42.5 -106.5q0 -64 -41 -105t-109 -41q-65 0 -107.5 39.5 t-42.5 106.5z" />
<glyph unicode="&#xfd;" horiz-adv-x="1720" d="M20 1020v20h948v-20h-134v-4q9 -3 17 -9.5t17.5 -21.5t14.5 -23.5t19 -33.5t20 -36l222 -402q28 -53 33 -71h23q3 11 38 70l141 239q23 39 40.5 89.5t17.5 85.5q0 52 -26 84.5t-79 32.5h-34v20h402v-20h-10q-92 0 -210 -200l-270 -457v-223q0 -81 19.5 -100.5 t100.5 -19.5h80v-20h-1040v20h80q81 0 100.5 19.5t19.5 100.5v65l-363 659q-6 10 -17.5 32t-16 30t-14.5 24t-15 22t-14 16.5t-16 14.5t-17 9t-20.5 6.5t-23.5 1.5h-33zM794 1193l220 269q17 17 41 17q19 0 35 -11l144 -116l-392 -200z" />
<glyph unicode="&#xfe;" horiz-adv-x="1870" d="M40 0v20h60q81 0 100.5 19.5t19.5 100.5v760q0 81 -19.5 100.5t-100.5 19.5h-60v20h1000v-20h-60q-81 0 -100.5 -19.5t-19.5 -100.5h200q229 0 395 -32t260.5 -100t94.5 -168t-94.5 -168t-260.5 -100t-395 -32h-200v-160q0 -81 19.5 -100.5t100.5 -19.5h60v-20h-1000z M860 340h110q102 0 151 59.5t49 200.5t-49 200.5t-151 59.5h-110v-520z" />
<glyph unicode="&#xff;" horiz-adv-x="1720" d="M20 1020v20h948v-20h-134v-4q9 -3 17 -9.5t17.5 -21.5t14.5 -23.5t19 -33.5t20 -36l222 -402q28 -53 33 -71h23q3 11 38 70l141 239q23 39 40.5 89.5t17.5 85.5q0 52 -26 84.5t-79 32.5h-34v20h402v-20h-10q-92 0 -210 -200l-270 -457v-223q0 -81 19.5 -100.5 t100.5 -19.5h80v-20h-1040v20h80q81 0 100.5 19.5t19.5 100.5v65l-363 659q-6 10 -17.5 32t-16 30t-14.5 24t-15 22t-14 16.5t-16 14.5t-17 9t-20.5 6.5t-23.5 1.5h-33zM580 1322q0 64 41 105t109 41q65 0 107.5 -39.5t42.5 -106.5q0 -64 -41 -105t-109 -41 q-65 0 -107.5 39.5t-42.5 106.5zM1060 1322q0 64 41 105t109 41q65 0 107.5 -39.5t42.5 -106.5q0 -64 -41 -105t-109 -41q-65 0 -107.5 39.5t-42.5 106.5z" />
<glyph unicode="&#x152;" horiz-adv-x="2480" d="M60 520q0 238 237 384t623 146q20 0 111 -5t118 -5h1070q26 0 37 -4t23 -16h1l-6 112l20 1l26 -473l-100 -2q-10 160 -113 251t-267 91h-150v-4q50 -50 50 -116v-320h98q58 0 85 14t41 61t14 145h60v-480h-60q0 98 -14 145t-41 61t-85 14h-98v-360q0 -66 -50 -116v-4h240 q165 0 272.5 90.5t117.5 249.5h100l-26 -473l-20 1l6 112h-1q-12 -12 -23 -16t-37 -4h-1170q-27 0 -118 -5t-111 -5q-386 0 -623 146t-237 384zM700 600q0 -283 58.5 -431.5t169.5 -148.5q77 0 124.5 36.5t47.5 95.5v736q0 59 -51.5 95.5t-136.5 36.5q-103 0 -157.5 -108 t-54.5 -312z" />
<glyph unicode="&#x153;" horiz-adv-x="2480" d="M60 520q0 238 237 384t623 146q20 0 111 -5t118 -5h1070q26 0 37 -4t23 -16h1l-6 112l20 1l26 -473l-100 -2q-10 160 -113 251t-267 91h-150v-4q50 -50 50 -116v-320h98q58 0 85 14t41 61t14 145h60v-480h-60q0 98 -14 145t-41 61t-85 14h-98v-360q0 -66 -50 -116v-4h240 q165 0 272.5 90.5t117.5 249.5h100l-26 -473l-20 1l6 112h-1q-12 -12 -23 -16t-37 -4h-1170q-27 0 -118 -5t-111 -5q-386 0 -623 146t-237 384zM700 600q0 -283 58.5 -431.5t169.5 -148.5q77 0 124.5 36.5t47.5 95.5v736q0 59 -51.5 95.5t-136.5 36.5q-103 0 -157.5 -108 t-54.5 -312z" />
<glyph unicode="&#x178;" horiz-adv-x="1720" d="M20 1020v20h948v-20h-134v-4q9 -3 17 -9.5t17.5 -21.5t14.5 -23.5t19 -33.5t20 -36l222 -402q28 -53 33 -71h23q3 11 38 70l141 239q23 39 40.5 89.5t17.5 85.5q0 52 -26 84.5t-79 32.5h-34v20h402v-20h-10q-92 0 -210 -200l-270 -457v-223q0 -81 19.5 -100.5 t100.5 -19.5h80v-20h-1040v20h80q81 0 100.5 19.5t19.5 100.5v65l-363 659q-6 10 -17.5 32t-16 30t-14.5 24t-15 22t-14 16.5t-16 14.5t-17 9t-20.5 6.5t-23.5 1.5h-33zM580 1322q0 64 41 105t109 41q65 0 107.5 -39.5t42.5 -106.5q0 -64 -41 -105t-109 -41 q-65 0 -107.5 39.5t-42.5 106.5zM1060 1322q0 64 41 105t109 41q65 0 107.5 -39.5t42.5 -106.5q0 -64 -41 -105t-109 -41q-65 0 -107.5 39.5t-42.5 106.5z" />
<glyph unicode="&#x2000;" horiz-adv-x="762" />
<glyph unicode="&#x2001;" horiz-adv-x="1525" />
<glyph unicode="&#x2002;" horiz-adv-x="762" />
<glyph unicode="&#x2003;" horiz-adv-x="1525" />
<glyph unicode="&#x2004;" horiz-adv-x="508" />
<glyph unicode="&#x2005;" horiz-adv-x="381" />
<glyph unicode="&#x2006;" horiz-adv-x="254" />
<glyph unicode="&#x2007;" horiz-adv-x="254" />
<glyph unicode="&#x2008;" horiz-adv-x="190" />
<glyph unicode="&#x2009;" horiz-adv-x="305" />
<glyph unicode="&#x200a;" horiz-adv-x="84" />
<glyph unicode="&#x2010;" horiz-adv-x="600" d="M60 410l10 220h470l-10 -220h-470z" />
<glyph unicode="&#x2011;" horiz-adv-x="600" d="M60 410l10 220h470l-10 -220h-470z" />
<glyph unicode="&#x2012;" horiz-adv-x="600" d="M60 410l10 220h470l-10 -220h-470z" />
<glyph unicode="&#x2013;" horiz-adv-x="1144" d="M40 410v220h1064v-220h-1064z" />
<glyph unicode="&#x2014;" horiz-adv-x="2288" d="M40 410v220h2208v-220h-2208z" />
<glyph unicode="&#x2018;" horiz-adv-x="408" d="M60 914q0 127 56 205t148 78v-40q-44 0 -78 -24.5t-40 -59.5q-3 -18 -10 -28l8 -6q5 7 22.5 13t37.5 6q65 0 104.5 -38.5t39.5 -105.5q0 -65 -38.5 -104.5t-105.5 -39.5q-65 0 -104.5 38.5t-39.5 105.5z" />
<glyph unicode="&#x2019;" horiz-adv-x="408" d="M60 1053q0 65 38.5 104.5t105.5 39.5q65 0 104.5 -38.5t39.5 -105.5q0 -127 -56 -205t-148 -78v40q44 0 78 24.5t40 59.5q3 18 10 28l-8 6q-5 -7 -22.5 -13t-37.5 -6q-65 0 -104.5 38.5t-39.5 105.5z" />
<glyph unicode="&#x201a;" horiz-adv-x="408" d="M60 100q0 65 38.5 104.5t105.5 39.5q65 0 104.5 -38.5t39.5 -105.5q0 -127 -56 -205t-148 -78v40q44 0 78 24.5t40 59.5q3 18 10 28l-8 6q-5 -7 -22.5 -13t-37.5 -6q-65 0 -104.5 38.5t-39.5 105.5z" />
<glyph unicode="&#x201c;" horiz-adv-x="780" d="M60 914q0 127 56 205t148 78v-40q-44 0 -78 -24.5t-40 -59.5q-3 -18 -10 -28l8 -6q5 7 22.5 13t37.5 6q65 0 104.5 -38.5t39.5 -105.5q0 -65 -38.5 -104.5t-105.5 -39.5q-65 0 -104.5 38.5t-39.5 105.5zM432 914q0 127 56 205t148 78v-40q-44 0 -78 -24.5t-40 -59.5 q-3 -18 -10 -28l8 -6q5 7 22.5 13t37.5 6q65 0 104.5 -38.5t39.5 -105.5q0 -65 -38.5 -104.5t-105.5 -39.5q-65 0 -104.5 38.5t-39.5 105.5z" />
<glyph unicode="&#x201d;" horiz-adv-x="780" d="M60 1053q0 65 38.5 104.5t105.5 39.5q65 0 104.5 -38.5t39.5 -105.5q0 -127 -56 -205t-148 -78v40q44 0 78 24.5t40 59.5q3 18 10 28l-8 6q-5 -7 -22.5 -13t-37.5 -6q-65 0 -104.5 38.5t-39.5 105.5zM432 1053q0 65 38.5 104.5t105.5 39.5q65 0 104.5 -38.5t39.5 -105.5 q0 -127 -56 -205t-148 -78v40q44 0 78 24.5t40 59.5q3 18 10 28l-8 6q-5 -7 -22.5 -13t-37.5 -6q-65 0 -104.5 38.5t-39.5 105.5z" />
<glyph unicode="&#x201e;" horiz-adv-x="760" d="M60 100q0 65 38.5 104.5t105.5 39.5q65 0 104.5 -38.5t39.5 -105.5q0 -127 -56 -205t-148 -78v40q44 0 78 24.5t40 59.5q3 18 10 28l-8 6q-5 -7 -22.5 -13t-37.5 -6q-65 0 -104.5 38.5t-39.5 105.5zM412 100q0 65 38.5 104.5t105.5 39.5q65 0 104.5 -38.5t39.5 -105.5 q0 -127 -56 -205t-148 -78v40q44 0 78 24.5t40 59.5q3 18 10 28l-8 6q-5 -7 -22.5 -13t-37.5 -6q-65 0 -104.5 38.5t-39.5 105.5z" />
<glyph unicode="&#x2022;" horiz-adv-x="640" d="M60 520q0 108 76 184t184 76t184 -76t76 -184t-76 -184t-184 -76t-184 76t-76 184z" />
<glyph unicode="&#x2026;" horiz-adv-x="1150" d="M60 100q0 65 38.5 104.5t105.5 39.5q65 0 104.5 -38.5t39.5 -105.5q0 -65 -38.5 -104.5t-105.5 -39.5q-65 0 -104.5 38.5t-39.5 105.5zM430 100q0 65 38.5 104.5t105.5 39.5q65 0 104.5 -38.5t39.5 -105.5q0 -65 -38.5 -104.5t-105.5 -39.5q-65 0 -104.5 38.5 t-39.5 105.5zM802 100q0 65 38.5 104.5t105.5 39.5q65 0 104.5 -38.5t39.5 -105.5q0 -65 -38.5 -104.5t-105.5 -39.5q-65 0 -104.5 38.5t-39.5 105.5z" />
<glyph unicode="&#x202f;" horiz-adv-x="305" />
<glyph unicode="&#x2039;" horiz-adv-x="670" d="M40 517v6l408 413l157 -155l-334 -199q-68 -41 -145 -57v-10q77 -16 145 -57l334 -199l-157 -155z" />
<glyph unicode="&#x203a;" horiz-adv-x="670" d="M65 259l334 199q68 41 145 57v10q-77 16 -145 57l-334 199l157 155l408 -413v-6l-408 -413z" />
<glyph unicode="&#x205f;" horiz-adv-x="381" />
<glyph unicode="&#x20ac;" horiz-adv-x="1720" d="M40 400l8 40h119q-7 45 -7 80q0 70 18 130h-116l8 40h122q73 177 307 268.5t615 91.5q94 0 230 -21t192 -58q45 -33 53 -57l8 2q-7 28 -8 56l-7 128l20 1l23 -390l-160 -2q-9 54 -23 95.5t-41 81.5t-65 66t-97 42t-135 16q-119 0 -193 -81.5t-99 -238.5h438l-8 -40h-435 q-7 -70 -7 -130q0 -41 3 -80h405l-8 -40h-394q20 -181 105.5 -275.5t228.5 -94.5q87 0 184 27.5t184 83t127 125.5l35 -20q-45 -80 -140 -140t-196.5 -88t-193.5 -28q-418 0 -663.5 104.5t-300.5 305.5h-136z" />
<glyph unicode="&#x2122;" horiz-adv-x="2060" d="M31 938l13 236h20l-2 -46h768l-2 46h20l13 -236h-50q-5 89 -32 129.5t-103 40.5h-70v-430q0 -40 10 -50t50 -10h40v-20h-520v20h40q40 0 50 10t10 50v430h-60q-77 0 -108.5 -41.5t-36.5 -128.5h-50zM866 598v20h3q67 0 81 125l30 315q2 16 2 20q0 20 -10.5 25t-46.5 5 h-25v20h384l143 -304q15 -33 15 -51l7 -1q0 8 20 50l142 306h385v-20h-28q-39 0 -52.5 -9t-13.5 -37q0 -16 1 -25l41 -339q6 -52 17 -66t55 -14h4v-20h-486v20h20q41 0 55.5 11t14.5 37q0 2 -0.5 7.5t-0.5 8.5l-35 292q0 1 -0.5 13t-0.5 17v16h-7q0 -13 -18 -46l-175 -376 h-202l-172 368q-15 30 -15 45h-4q0 -7 -1 -25.5t-1 -20.5l-24 -237v-15q0 -42 20 -68.5t50 -26.5h16v-20h-188z" />
<glyph unicode="&#xe000;" horiz-adv-x="1040" d="M0 0v1040h1040v-1040h-1040z" />
</font>
</defs>
</svg>
