<?xml version="1.0" standalone="no"?>
<!DOCTYPE svg PUBLIC "-//W3C//DTD SVG 1.1//EN" "http://www.w3.org/Graphics/SVG/1.1/DTD/svg11.dtd" >
<svg xmlns="http://www.w3.org/2000/svg">
<metadata></metadata>
<defs>
<font id="simonettaitalic" horiz-adv-x="766" >
<font-face units-per-em="1000" ascent="800" descent="-200" />
<missing-glyph horiz-adv-x="218" />
<glyph unicode="&#xfb01;" horiz-adv-x="504" d="M-105 -255l1 75q89 -33 164 -33q28 75 34 208q0 1 12 397q-46 6 -87 15l1 21h87q1 38 4 76q11 140 60.5 197.5t136.5 57.5q47 0 97 -11l-3 -73q-88 31 -194 31q-31 -78 -35 -208l-2 -68q40 0 235 8l17 -17q-21 -166 -21 -383q46 9 83 26l10 -19q-30 -19 -82 -37t-72 -18 l-17 17q21 157 21 368l-175 10q-4 -73 -8 -225.5t-6 -170.5q-9 -130 -55.5 -192.5t-118.5 -62.5q-48 0 -87 11z" />
<glyph unicode="&#xfb02;" horiz-adv-x="533" d="M-105 -255l1 75q89 -33 164 -33q28 75 34 208q0 1 12 397q-46 6 -87 15l1 21h87q1 38 4 76q18 255 183 255q31 0 95 -11l54 11l17 -17q-27 -249 -27 -704q37 5 80 26l10 -19q-28 -19 -79.5 -37t-71.5 -18l-17 17q27 231 27 672q-86 30 -174 30q-31 -76 -35 -211l-2 -68 q90 2 123 5l-2 -61q-37 0 -122 9q-11 -359 -14 -394q-9 -130 -55.5 -192.5t-118.5 -62.5q-48 0 -87 11z" />
<glyph unicode="&#xfb03;" horiz-adv-x="743" d="M-105 -255l1 75q89 -33 164 -33q28 75 34 208q0 199 12 397v6l-16 2q-65 5 -71 7l2 22h86l3 43q6 139 59 197t151 58q45 0 104 -11q43 43 123 43q48 0 97 -11l-3 -73q-91 31 -194 31q-31 -77 -35 -208l-2 -67l67 2q130 3 168 5l17 -17q-21 -166 -21 -383q46 8 83 26 l10 -19q-19 -13 -51.5 -26t-61.5 -21t-41 -8l-17 17q21 157 21 368q-72 0 -152 4q-16 0 -24 1q0 -20 -2 -72q-5 -180 -8 -236q-4 -110 -25.5 -175t-66.5 -95.5t-120 -30.5q-54 0 -99 9q-43 -46 -105 -46q-48 0 -87 11zM127 -151q27 -10 48 -14q66 -15 124 -15q31 77 35 250 q1 23 4 110t4 134l2 69h-4l-92 6q-29 1 -78 5v-11l-3 -73q0 -193 -11 -321q-4 -66 -20 -116zM171 429h48q48 1 127 1l2 44q0 3 0.5 7t0.5 7v6t0.5 5.5t0.5 4.5q4 69 22 122q4 14 7 21q-24 9 -48 15q-66 15 -124 15q-31 -76 -35 -211l-1 -36v-1z" />
<glyph unicode="&#xfb04;" horiz-adv-x="771" d="M-105 -255l1 75q89 -33 164 -33q28 75 34 208q0 199 12 397v6l-21 2q-65 7 -66 7l2 21h86l3 44q6 139 59 197t151 58q45 0 104 -11q43 43 123 43q34 0 80 -11l54 11l17 -17q-27 -249 -27 -704q36 5 80 26l10 -19q-28 -19 -79.5 -37t-71.5 -18l-17 17q27 231 27 672 q-85 30 -173 30q-31 -78 -35 -211l-2 -67q18 1 48 1q16 0 40.5 1.5t35.5 1.5l-2 -61q-36 0 -59 1q-19 0 -65 2q0 -19 -2 -69q-5 -180 -8 -236q-4 -110 -25.5 -175t-66.5 -95.5t-120 -30.5q-54 0 -99 9q-43 -46 -105 -46q-48 0 -87 11zM127 -151q27 -10 48 -14 q66 -15 124 -15q31 77 35 250q1 23 4 110t4 134l2 66q-14 1 -77.5 6t-96.5 7v-10l-3 -73q0 -193 -11 -321q-4 -66 -20 -116zM171 428h13q47 1 123 1q14 1 39 1l2 44q0 3 0.5 7t0.5 7v6t0.5 5.5t0.5 4.5q4 69 22 122q4 14 7 21q-24 9 -48 15q-66 15 -124 15q-31 -76 -35 -211 l-1 -36v-2z" />
<glyph horiz-adv-x="1000" />
<glyph horiz-adv-x="1000" />
<glyph unicode="&#xd;" horiz-adv-x="1000" />
<glyph unicode=" "  horiz-adv-x="218" />
<glyph unicode="&#x09;" horiz-adv-x="218" />
<glyph unicode="&#xa0;" horiz-adv-x="218" />
<glyph unicode="!" horiz-adv-x="236" d="M61 8q1 7 5 57q0 13 1 18l71 15l18 -18q-3 -23 -6 -57q-1 -10 0 -17l-71 -16zM83 679q24 -2 47 -2q21 0 47 2q-10 -66 -37 -321q-10 -113 -13 -160h-28l-3 160q-8 257 -13 321z" />
<glyph unicode="&#x22;" horiz-adv-x="354" d="M55 679h94l-35 -218h-39zM230 679h95l-35 -218h-39z" />
<glyph unicode="#" horiz-adv-x="724" d="M32 180l2 50h154l40 224q-58 -1 -149 -8l2 50h154l33 183h65l-33 -183h178l32 183h65l-33 -183h156l-6 -34h-45q-12 0 -49 -0.5t-62 -0.5l-41 -231h156l-6 -34h-45q-12 0 -49.5 -0.5t-61.5 -0.5l-34 -195h-65l34 194l-177 -4l-34 -190h-65l33 188q-84 -1 -149 -8z M253 230h177l41 230l-178 -3z" />
<glyph unicode="$" horiz-adv-x="479" d="M35 13l12 155h30l8 -85q34 -34 99 -53q23 -5 42 -5l10 288l-21 18q-1 1 -22.5 17t-26 20t-23.5 19.5t-25 23.5t-19.5 24.5t-18.5 29t-9.5 29.5t-4.5 34q0 107 95 149q33 14 89 16l2 66h36l-3 -67q77 -4 138 -24l-11 -147h-28l-13 100q-42 30 -87 34l-9 -260 q18 -13 60 -46q102 -78 102 -169q0 -45 -24.5 -85.5t-64.5 -67t-88 -37.5l-3 -98h-35l3 94h-10q-99 0 -180 27zM145 556q0 -41 22 -71t62 -58q2 -2 6 -4.5t5 -3.5l8 238q-47 -4 -75 -29.5t-28 -71.5zM262 28q45 13 70.5 46.5t25.5 79.5q0 21 -7.5 40.5t-22.5 37.5t-26.5 29 t-30.5 27z" />
<glyph unicode="%" horiz-adv-x="656" d="M46 445q0 78 51 146t131 68q38 0 64 -26q29 -12 86 -12q96 0 162 33l27 37l28 -19l-490 -680l-28 23l437 603q-62 -31 -157 -31q-26 0 -41 1q11 -33 11 -79q0 -74 -48.5 -142.5t-125.5 -68.5q-55 0 -81 42t-26 105zM101 482q0 -85 48 -137h67q23 13 39.5 49.5t16.5 82.5 q0 85 -50 136h-66q-23 -16 -39 -51t-16 -80zM334 147q0 78 51 146t131 68q53 0 76 -43t23 -107q0 -74 -49 -142.5t-125 -68.5q-55 0 -81 42t-26 105zM388 183q0 -82 49 -136h67q23 13 40 49.5t17 82.5q0 85 -51 136h-66q-22 -16 -39 -52t-17 -80z" />
<glyph unicode="&#x26;" horiz-adv-x="506" d="M54 169q0 64 32 123t94 91q-58 51 -58 128q0 73 53 127.5t143 54.5q45 0 69 -22l-12 -120h-22l-5 72q-44 27 -106 27q-13 0 -20 -1q-49 -38 -49 -100q0 -42 23.5 -81t60.5 -54l-2 -25q-65 -13 -97.5 -64.5t-32.5 -120.5q0 -49 16.5 -93.5t44.5 -70.5h88q21 11 36.5 30 t24 36t15.5 45.5t9 41.5t6 41l-125 16l1 26q28 -3 82 -3q100 0 180 21l-3 -65h-60q-19 -93 -87 -166t-149 -73q-71 0 -110.5 52.5t-39.5 126.5z" />
<glyph unicode="'" horiz-adv-x="177" d="M55 679h94l-35 -218h-39z" />
<glyph unicode="(" horiz-adv-x="335" d="M29 243q0 152 82 283t226 207l13 -22q-117 -83 -184 -205.5t-67 -262.5q0 -122 54 -225t165 -199l-13 -22q-276 167 -276 446z" />
<glyph unicode=")" horiz-adv-x="335" d="M-15 -181q116 84 183.5 206.5t67.5 261.5q0 122 -54.5 224.5t-165.5 199.5l14 22q275 -169 275 -446q0 -153 -82 -283.5t-226 -206.5z" />
<glyph unicode="*" horiz-adv-x="467" d="M50 427l159 69l-154 69q22 32 36 58l134 -100l-13 170q22 -2 33 -2q28 0 36 2l-25 -172l143 101q22 -47 31 -60l-157 -65l151 -73l-37 -57l-133 104l11 -173h-11q-2 0 -10 0.5t-12 0.5q-21 0 -34 -1l27 172l-143 -102q-15 33 -32 59z" />
<glyph unicode="+" horiz-adv-x="529" d="M36 292v48h206v206h48v-206h206v-48h-206v-206h-48v206h-206z" />
<glyph unicode="," horiz-adv-x="198" d="M-3 -137q50 76 50 174q0 13 -2 45l75 16l19 -19q-7 -105 -127 -231z" />
<glyph unicode="-" horiz-adv-x="414" d="M66 210l2 56h276l-2 -56h-276z" />
<glyph unicode="." horiz-adv-x="197" d="M43 8q1 7 5 57q0 13 1 18l71 15l18 -18q-3 -23 -6 -57q-1 -10 0 -17l-71 -16z" />
<glyph unicode="/" horiz-adv-x="497" d="M6 -174l430 893h54l-430 -893h-54z" />
<glyph unicode="0" horiz-adv-x="566" d="M51 323q0 69 14 132t42 117.5t78 87.5t115 33q71 0 122.5 -46t75 -113.5t23.5 -144.5q0 -62 -13 -128t-39 -129.5t-74.5 -104.5t-111.5 -41q-60 0 -106 28.5t-73 77t-40 107t-13 124.5zM122 356q0 -42 4.5 -84t16 -88.5t29.5 -81.5t48 -57.5t68 -22.5q159 0 159 353 q0 76 -14 132t-32 84t-43 44t-40 19t-29 3q-51 0 -86.5 -31t-51.5 -81.5t-22.5 -95.5t-6.5 -93z" />
<glyph unicode="1" horiz-adv-x="328" d="M23 568q104 47 182 125h29l-21 -643l71 -22v-28l-26 3q-64 4 -74 4q-54 0 -121 -7v28q68 6 73 6l20 571q-13 -9 -35 -21q-60 -31 -86 -41z" />
<glyph unicode="2" horiz-adv-x="477" d="M6 19q25 27 72.5 76t77.5 80t68.5 78.5t60.5 85t38 84.5t16 91q0 60 -36.5 91.5t-91.5 31.5q-81 0 -136 -57l-18 19q33 46 84 70t105 24q73 0 123 -42.5t50 -120.5q0 -80 -72 -184.5t-253 -285.5l275 10l41 79l28 -4q-27 -104 -31 -145h-392z" />
<glyph unicode="3" horiz-adv-x="483" d="M13 27l43 67q68 -57 148 -57q69 0 115 48t46 142q0 60 -35.5 93t-99.5 33q-41 0 -74 -12l-8 29l25 8q63 20 108.5 63.5t45.5 112.5q0 40 -26 66.5t-74 26.5q-40 0 -73 -18.5t-71 -51.5l-19 22q31 29 53 45.5t62.5 32.5t85.5 16q65 0 101 -31.5t36 -83.5q0 -54 -40.5 -104 t-82.5 -73q78 0 120 -42t42 -106q0 -110 -94.5 -187.5t-205.5 -77.5q-76 0 -128 39z" />
<glyph unicode="4" horiz-adv-x="496" d="M7 222l1 30l345 441l29 -16l-13 -406q23 2 76 5l29 3l-23 -57h-84l-6 -172l71 -22v-28l-24 3q-64 4 -73 4q-53 0 -120 -7v28q68 6 73 6l7 188h-288zM59 260q106 0 237 7l12 311z" />
<glyph unicode="5" horiz-adv-x="467" d="M11 27l40 67q66 -55 145 -55q66 0 109.5 41t43.5 118q0 75 -39 115t-114 40q-47 0 -104 -11l-9 9l42 328h254l40 51l25 -10q-37 -84 -47 -109h-241l-27 -212q53 11 102 11q80 0 136 -42t56 -125q0 -105 -89.5 -179.5t-197.5 -74.5q-73 0 -125 38z" />
<glyph unicode="6" horiz-adv-x="511" d="M42 226q0 159 109 281t281 186l13 -25q-109 -52 -192 -131.5t-117 -181.5q69 50 163 50q73 0 124.5 -46t51.5 -137q0 -107 -69.5 -171.5t-158.5 -64.5q-92 0 -148.5 65t-56.5 175zM117 236q0 -106 42.5 -160t102.5 -54q56 0 98.5 44t42.5 139q0 70 -39 109t-108 39 q-63 0 -129 -34q-10 -40 -10 -83z" />
<glyph unicode="7" horiz-adv-x="435" d="M30 520q23 81 34 159h375l12 -16q-55 -113 -109.5 -233.5t-112.5 -252.5t-85 -191l-74 39q18 33 76 136.5t90 161t77.5 143.5t77.5 152l-286 -10l-48 -93z" />
<glyph unicode="8" horiz-adv-x="495" d="M40 142q0 65 42 119t113 110q-56 45 -84 80.5t-28 81.5q0 69 58 114.5t132 45.5q70 0 117 -36t47 -102q0 -89 -117 -190q58 -44 91 -86.5t33 -96.5q0 -86 -66.5 -141t-157.5 -55q-77 0 -128.5 41.5t-51.5 114.5zM107 166q0 -64 37 -104t98 -40q51 0 90.5 36.5t39.5 91.5 q0 30 -10.5 57.5t-33 52t-37 37t-40.5 32.5q-6 4 -8 6l-21 16q-115 -83 -115 -185zM151 564q0 -17 8 -36t15.5 -31.5t27 -32t27 -26t31 -26t24.5 -19.5l11 -9q80 65 80 141q0 55 -35.5 93.5t-86.5 38.5q-42 0 -72 -25t-30 -68z" />
<glyph unicode="9" horiz-adv-x="508" d="M42 467q0 106 67 166t156 60q92 0 148.5 -64.5t56.5 -175.5q0 -159 -109 -281t-281 -186l-13 25q111 53 196.5 136t115.5 188q-70 -51 -164 -51q-71 0 -122 46t-51 137zM113 484q0 -69 39 -108.5t106 -39.5q71 0 130 35q8 38 8 72q0 107 -42.5 160.5t-103.5 53.5 q-55 0 -96 -42t-41 -131z" />
<glyph unicode=":" horiz-adv-x="218" d="M54 8q1 3 5 57q1 7 1 18l71 15l18 -18q-5 -34 -5 -57q-1 -7 -1 -17l-71 -16zM65 348q1 7 5 57q0 13 1 18l71 15l18 -18q-3 -23 -6 -57q-1 -10 0 -17l-71 -16z" />
<glyph unicode=";" horiz-adv-x="234" d="M8 -137q51 72 51 174q0 13 -2 45l74 16l19 -19q-4 -104 -127 -231zM65 348q1 7 5 57q0 13 1 18l71 15l18 -18q-3 -23 -6 -57q-1 -10 0 -17l-71 -16z" />
<glyph unicode="&#x3c;" horiz-adv-x="545" d="M34 298v41l428 217l22 -43l-383 -195l383 -194l-22 -43z" />
<glyph unicode="=" horiz-adv-x="625" d="M83 222v48h460v-48h-460zM83 363v48h460v-48h-460z" />
<glyph unicode="&#x3e;" horiz-adv-x="545" d="M64 124l384 194l-384 195l22 43l429 -217v-41l-429 -217z" />
<glyph unicode="?" horiz-adv-x="361" d="M64 596l2 84q47 13 103 13q70 0 117 -33.5t47 -87.5q0 -43 -43.5 -96.5t-98.5 -105.5t-69 -78q6 -33 41 -86l-19 -16q-65 73 -65 112q0 29 40 77t96.5 106t77.5 89q-6 58 -95 58q-74 0 -134 -36zM94 8q1 7 5 57q0 13 1 18l71 15l17 -18q-2 -18 -5 -57q-1 -10 0 -17 l-71 -16z" />
<glyph unicode="@" horiz-adv-x="750" d="M42 180q0 163 109.5 271t274.5 108q131 0 210 -73t79 -195q0 -106 -73 -186.5t-174 -80.5l-15 15q8 44 15 167l-7 2q-35 -68 -88 -120t-104 -64l-44 15q-2 30 -2 41q0 131 67.5 229t152.5 98q42 0 90 -12q-14 -146 -14 -326q64 12 110.5 75.5t46.5 146.5q0 107 -67 169.5 t-179 62.5q-140 0 -234 -95t-94 -237q0 -138 83.5 -222t220.5 -84q106 0 221 62l12 -29q-135 -74 -258 -74q-145 0 -242 95t-97 241zM290 129q0 -30 1 -46q19 2 47 20t56 48t49 75.5t24 94.5l1 25q-32 10 -56 10q-60 0 -91 -61.5t-31 -165.5z" />
<glyph unicode="A" horiz-adv-x="618" d="M-26 0l1 28l26 3q6 0 21.5 1.5t20.5 1.5q130 272 257 659l39 11l202 -654l83 -22l-1 -28q-49 6 -113 6q-66 0 -122 -6l1 28l69 6l-56 203h-19q-97 0 -206 -10l-63 -177l80 -22l-1 -28q-61 7 -101 7q-39 0 -118 -7zM193 271h199l-82 300h-14z" />
<glyph unicode="B" horiz-adv-x="552" d="M30 0l1 28q68 6 73 6l20 595l-72 22l1 28l27 -4q48 -3 65 -3q26 0 69 6t82 6q84 0 125 -41t41 -103q0 -102 -104 -172q155 -43 155 -174q0 -90 -60.5 -145t-154.5 -55q-26 0 -78 6t-80 6q-44 0 -110 -6zM180 51q56 -29 112 -29q63 0 102 43t39 115q0 77 -47.5 124 t-142.5 47q-26 0 -53 -3zM191 383h27q50 0 91 -6q76 57 76 141q0 62 -32.5 98t-83.5 36q-18 0 -35.5 -1.5t-27.5 -1.5q-8 -99 -12 -184z" />
<glyph unicode="C" horiz-adv-x="689" d="M45 325q0 161 111.5 264.5t285.5 103.5q120 0 225 -28l-14 -163h-29l-13 108q-69 47 -162 47q-130 0 -221 -81.5t-91 -223.5q0 -63 19.5 -117.5t51.5 -92t74 -64t87 -39t90 -12.5q80 0 172 31l10 -28q-88 -44 -217 -44q-161 0 -270 96t-109 243z" />
<glyph unicode="D" horiz-adv-x="765" d="M31 0v28q64 6 73 6l20 595l-71 22v28l30 -4q60 -3 74 -3q34 0 109 6t120 6q149 0 242.5 -94.5t93.5 -246.5q0 -45 -10.5 -90.5t-38 -93t-68.5 -83.5t-107.5 -59t-150.5 -23q-30 0 -98.5 6t-103.5 6q-52 0 -114 -6zM180 50q74 -24 143 -24q36 0 70.5 5.5t79.5 24.5 t78 50.5t56 90t23 135.5q0 47 -8 88.5t-29.5 84.5t-55.5 73.5t-90.5 50t-130.5 19.5q-75 0 -115 -5z" />
<glyph unicode="E" horiz-adv-x="514" d="M30 0l1 28q64 6 73 6l20 595l-71 22v28q63 -7 147 -7h117q70 0 160 7l-16 -165h-29l-15 110l-213 15q-7 -77 -9 -157l-5 -110l208 11l-4 -62q-35 5 -75 8.5t-82.5 6t-48.5 2.5l-8 -300l220 8l50 103h30l-38 -159q-74 3 -176.5 9.5t-119.5 6.5q-58 0 -116 -6z" />
<glyph unicode="F" horiz-adv-x="484" d="M31 0v28q64 6 73 6l20 595l-71 22v28q63 -7 147 -7h117q70 0 160 7l-16 -165h-29l-15 110l-213 15q-7 -77 -9 -157l-5 -119l209 11l-4 -62q-170 17 -207 17l-7 -279l70 -22v-28l-25 3q-68 4 -75 4q-53 0 -120 -7z" />
<glyph unicode="G" horiz-adv-x="750" d="M46 334q0 163 109.5 261t282.5 98q120 0 225 -28l-14 -163h-30l-12 108q-72 47 -169 47q-132 0 -217 -88t-85 -235q0 -137 88.5 -222.5t218.5 -85.5q78 0 128 27l9 213l-72 22v28q49 -7 100 -7q54 0 121 7v-28q-13 -1 -36 -2.5t-37 -3.5l-9 -255q-44 -16 -111 -28.5 t-113 -12.5q-98 0 -183 40t-139.5 121t-54.5 187z" />
<glyph unicode="H" horiz-adv-x="799" d="M31 0v28q64 6 73 6l20 595l-71 22v28q49 -7 99 -7q54 0 121 7v-28q-13 -1 -36.5 -2.5t-35.5 -3.5l-10 -273h423l9 257l-71 22v28q49 -7 99 -7q54 0 121 7v-28q-13 -1 -36.5 -2.5t-35.5 -3.5l-20 -595l70 -22v-28l-25 3q-68 4 -75 4q-53 0 -120 -7v28q66 6 73 6l10 304 q-253 0 -424 -16l-9 -272l71 -22v-28l-25 3q-68 4 -75 4q-53 0 -120 -7z" />
<glyph unicode="I" horiz-adv-x="300" d="M31 0v28q64 6 73 6l20 595l-71 22v28q49 -7 99 -7q54 0 121 7v-28q-13 -1 -36.5 -2.5t-35.5 -3.5l-20 -595l70 -22v-28l-25 3q-68 4 -75 4q-53 0 -120 -7z" />
<glyph unicode="J" horiz-adv-x="289" d="M-42 -219q71 79 105 154t37 115l20 579l-71 22v28l25 -4q51 -3 74 -3q53 0 122 7v-28q-12 -1 -36 -2.5t-37 -3.5l-22 -595q0 -2 -1 -6q-2 -24 -7 -43t-22.5 -57.5t-60 -87t-106.5 -101.5z" />
<glyph unicode="K" horiz-adv-x="652" d="M31 0v28q64 6 73 6l20 595l-71 22v28q49 -7 99 -7q54 0 121 7v-28q-13 -1 -36.5 -2.5t-35.5 -3.5l-20 -595l70 -22v-28l-25 3q-68 4 -75 4q-53 0 -120 -7zM211 358q192 182 267 284q-6 0 -18.5 2t-18.5 3l-20 4v28q51 -7 102 -7q58 0 110 7v-28l-82 -22l-265 -243 l289 -336l85 -20v-30h-146z" />
<glyph unicode="L" horiz-adv-x="505" d="M30 0l1 28q64 6 73 6l20 595l-71 22v28q49 -7 100 -7q53 0 120 7v-28q-13 -1 -36.5 -2.5t-35.5 -3.5l-22 -607l233 8l55 111h31l-45 -167q-75 3 -182 9.5t-125 6.5q-58 0 -116 -6z" />
<glyph unicode="M" horiz-adv-x="864" d="M8 0v28q68 6 73 6l71 643l46 16l236 -545h7l257 534l49 10l16 -642l69 -22v-28l-26 3q-68 4 -74 4q-54 0 -121 -7v28q68 6 73 6l-2 501h-9l-249 -508h-23l-219 510h-8l-39 -487l75 -22v-28l-21 3q-52 4 -65 4q-49 0 -116 -7z" />
<glyph unicode="N" horiz-adv-x="789" d="M25 0v28q37 6 73 6l13 377q2 74 2 126q0 99 -4 142l40 15l479 -572l16 507l-71 22v28l31 -3q57 -3 69 -3q45 0 95 6v-28q-34 -4 -73 -6q-1 -35 -5.5 -144t-6.5 -194t-2 -177q0 -36 2 -130l-42 -14l-479 565l-13 -501l71 -22v-28l-30 3q-57 3 -70 3q-42 0 -95 -6z" />
<glyph unicode="O" d="M46 337q0 155 101.5 255.5t263.5 100.5q94 0 167.5 -50.5t109.5 -126.5t36 -161q0 -160 -97 -264.5t-234 -104.5q-84 0 -152 30t-109.5 80.5t-63.5 112t-22 128.5zM137 347q0 -133 69.5 -229t187.5 -96q113 0 175 84.5t62 215.5q0 143 -68 239t-174 96q-46 0 -87.5 -15 t-80 -48.5t-61.5 -97t-23 -149.5z" />
<glyph unicode="P" horiz-adv-x="531" d="M31 0v28q64 6 73 6l20 595l-71 22v28q63 -7 93 -7q20 0 65 6t83 6q106 0 160.5 -53.5t54.5 -135.5q0 -87 -64.5 -148t-153.5 -61q-30 0 -48 5l1 31q17 -3 32 -3q68 0 111.5 47t43.5 120q0 79 -44.5 122.5t-131.5 43.5q-28 0 -55 -5l-19 -597l70 -22v-28l-25 3 q-68 4 -75 4q-53 0 -120 -7z" />
<glyph unicode="Q" d="M46 337q0 155 101.5 255.5t263.5 100.5q94 0 167.5 -50.5t109.5 -126.5t36 -161q0 -160 -97 -264.5t-234 -104.5q-84 0 -152 30t-109.5 80.5t-63.5 112t-22 128.5zM137 347q0 -133 69.5 -229t187.5 -96q113 0 175 84.5t62 215.5q0 143 -68 239t-174 96q-46 0 -87.5 -15 t-80 -48.5t-61.5 -97t-23 -149.5zM159 -50q42 22 89 22q65 0 153 -52q108 -60 149.5 -81t64.5 -27q27 12 75 45l18 -16q-55 -67 -108 -92q-82 4 -183 79l-177 115l-73 -16z" />
<glyph unicode="R" horiz-adv-x="577" d="M31 0v28q64 6 73 6l20 595l-71 22v28q63 -7 93 -7q20 0 63.5 6t74.5 6q110 0 164 -49.5t54 -122.5q0 -42 -15 -75.5t-40 -55t-47.5 -34t-48.5 -21.5l159 -276l81 -22l-2 -28h-140l-177 312l-8 -1q-6 0 -28.5 -1t-47.5 -1l-8 -259l71 -22v-28l-25 3q-68 4 -75 4 q-53 0 -120 -7zM189 343h29q40 0 72 6.5t54 18t38.5 27t25.5 35t13 39t4 42.5q0 25 -8.5 48.5t-26 45t-50.5 34.5t-77 13q-34 0 -63 -5z" />
<glyph unicode="S" horiz-adv-x="487" d="M40 13l12 155h30l8 -85q21 -21 61.5 -39.5t79.5 -18.5q61 0 96.5 37.5t35.5 91.5q0 23 -8 43.5t-26.5 40.5t-32 32t-40.5 32.5t-36 28.5q-3 2 -25.5 19.5t-30 23.5t-26.5 23t-27 29t-19.5 29t-16 35.5t-4.5 37.5q0 30 8.5 56.5t28 52t58.5 41t93 15.5q86 0 169 -25 l-11 -147h-28l-14 100q-48 36 -117 36q-46 0 -77.5 -27t-31.5 -74q0 -23 6.5 -42.5t24 -38t27 -27t38 -28.5t34.5 -24q39 -28 62.5 -47.5t49.5 -47.5t38 -57.5t12 -63.5q0 -80 -67.5 -137t-153.5 -57q-99 0 -180 27z" />
<glyph unicode="T" horiz-adv-x="589" d="M19 521l20 164q90 -6 166 -6q301 0 389 7l-15 -165h-30l-14 107l-189 8l-19 -586l71 -22v-28l-26 3q-68 4 -74 4q-54 0 -121 -7v28q66 6 73 6l21 605l-188 9l-35 -127h-29z" />
<glyph unicode="U" horiz-adv-x="731" d="M38 651v28l25 -4q51 -3 75 -3q54 0 121 7v-28q-13 -1 -36.5 -2.5t-36.5 -3.5q-14 -401 -14 -415q0 -102 48.5 -152t150.5 -50q203 0 210 233l14 368l-72 22v28q49 -7 93 -7q51 0 118 7v-28q-13 -1 -36 -2.5t-37 -3.5l-33 -389q-23 -270 -264 -270q-127 0 -198.5 52.5 t-71.5 157.5q0 41 6 207t10 226z" />
<glyph unicode="V" horiz-adv-x="649" d="M0 651v28q49 -7 104 -7q54 0 121 7v-28q-13 -1 -36 -2.5t-37 -3.5l181 -554h6l202 538l-58 22v28l30 -3q51 -3 70 -3q59 0 101 6v-28q-13 -1 -36 -2.5t-37 -3.5l-276 -652l-39 -8l-226 644z" />
<glyph unicode="W" horiz-adv-x="919" d="M3 651v28l27 -4q51 -3 77 -3q55 0 122 7v-28q-13 -1 -36.5 -2.5t-36.5 -3.5l141 -520h6l161 470l29 9l144 -479h7l161 504l-58 22v28q35 -7 85 -7q48 0 115 7v-28q-13 -1 -36.5 -2.5t-35.5 -3.5l-237 -652l-38 -8l-142 470l-159 -462l-39 -8l-180 644z" />
<glyph unicode="X" horiz-adv-x="577" d="M-17 0v28q38 5 63 6l212 306l-154 289l-80 22v28q49 -7 106 -7q56 0 123 7v-28q-13 -1 -36 -2.5t-37 -3.5l126 -232l130 216l-68 22v28q42 -7 91 -7q70 0 118 7v-28q-27 -5 -63 -6l-188 -270l177 -325l74 -22v-28l-27 3q-76 4 -79 4q-56 0 -123 -7v28q68 6 73 6l-143 268 l-154 -252l68 -22v-28l-22 3q-60 4 -69 4q-49 0 -118 -7z" />
<glyph unicode="Y" horiz-adv-x="607" d="M-11 650v28q56 -7 108 -7q56 0 123 7v-28q-19 -3 -42 -4t-31 -2l172 -304h8l165 289l-73 21v28l24 -4q48 -3 72 -3q52 0 119 7v-28q-29 -4 -69 -6l-221 -347l-8 -247l71 -22v-28l-26 3q-64 4 -74 4q-54 0 -121 -7v28q68 6 73 6l6 262l-193 333z" />
<glyph unicode="Z" horiz-adv-x="629" d="M23 0l1 30l471 621l-358 -24l-56 -109h-31l33 161h500l-1 -32l-461 -619l386 22l58 126h33l-38 -176h-537z" />
<glyph unicode="[" horiz-adv-x="266" d="M65 -174l31 893h171l-1 -34h-111l-30 -825h112l-1 -34h-171z" />
<glyph unicode="\" horiz-adv-x="554" d="M36 719h54l430 -893h-54z" />
<glyph unicode="]" horiz-adv-x="266" d="M-1 -174l1 34h111l29 825h-111l1 34h171l-31 -893h-171z" />
<glyph unicode="^" horiz-adv-x="364" d="M34 449l147 230h35l148 -230h-56l-109 171l-109 -171h-56z" />
<glyph unicode="_" horiz-adv-x="802" d="M94 -196l2 48h580l-2 -48h-580z" />
<glyph unicode="`" horiz-adv-x="290" d="M50 705q38 29 58 49l132 -182l-24 -19z" />
<glyph unicode="a" horiz-adv-x="478" d="M30 55q0 153 79.5 268t178.5 115q38 0 105 -14q-17 -174 -17 -386q37 5 82 26l8 -19q-29 -19 -79.5 -37t-71.5 -18l-17 17q12 76 18 195l-7 2q-42 -80 -103.5 -139t-121.5 -75l-51 17q-3 16 -3 48zM102 106q0 -17 2 -55q23 3 57 25.5t69 59t61 92.5t29 117l3 32 q-48 12 -71 12q-73 0 -111.5 -77.5t-38.5 -205.5z" />
<glyph unicode="b" horiz-adv-x="444" d="M3 729l148 30l16 -17q-2 -2 -6.5 -70t-10.5 -175.5t-10 -201.5l8 -2q44 61 87.5 96.5t101.5 48.5l42 -17q28 -60 28 -128q0 -118 -75.5 -210.5t-167.5 -92.5q-53 0 -110 18q34 393 36 708l-29 -4l-56 -4zM129 51q34 -12 70 -12q65 0 105 59t40 143q0 76 -32 137 q-32 -2 -71 -27.5t-73 -80.5t-36 -124z" />
<glyph unicode="c" horiz-adv-x="357" d="M34 167q0 105 66 188t169 83q25 0 53 -6l-16 -60q-64 19 -141 19q-63 -48 -63 -176q0 -111 45 -164q66 9 164 83l12 -18q-100 -91 -195 -126l-37 17q-57 61 -57 160z" />
<glyph unicode="d" horiz-adv-x="478" d="M30 53q0 93 34 182t94 146t129 57q15 0 37 -2l1 280l-29 -4l-56 -4l-2 21l148 30l17 -17q-25 -240 -25 -704q36 5 80 26l10 -19q-28 -19 -79.5 -37t-71.5 -18l-17 17q3 24 6.5 69t5.5 62l4 64l-8 2q-39 -78 -101.5 -138t-122.5 -76l-52 17q-2 10 -2 46zM101 105 q0 -20 2 -54q58 8 133.5 93t83.5 201l2 32q-48 12 -70 12q-73 0 -112 -78t-39 -206z" />
<glyph unicode="e" horiz-adv-x="366" d="M34 167q0 105 65 188t163 83q45 0 70 -22l-1 -58q-22 -33 -54 -62q-72 -67 -175 -97q2 -94 45 -148q66 9 164 83l12 -18q-100 -91 -195 -126l-37 17q-57 61 -57 160zM102 225q92 41 138 93q22 26 33 48q-43 25 -92 25q-9 0 -14 -1q-30 -24 -47.5 -69t-17.5 -96z" />
<glyph unicode="f" horiz-adv-x="298" d="M-105 -255l1 75q89 -33 164 -33q28 75 34 208q0 1 12 397q-46 6 -87 15l1 21h87q1 38 4 76q9 130 55.5 192.5t118.5 62.5q44 0 88 -11l-3 -73q-75 31 -162 31q-31 -76 -35 -208l-2 -68q90 2 123 5l-2 -61q-37 0 -122 9q-11 -359 -14 -394q-9 -130 -55.5 -192.5 t-118.5 -62.5q-48 0 -87 11z" />
<glyph unicode="g" horiz-adv-x="456" d="M29 52q0 143 77.5 264.5t180.5 121.5q51 0 105 -14q-6 -54 -9.5 -116.5t-4.5 -100.5t-2 -109.5t-2 -93.5q-12 -270 -243 -270q-55 0 -91 11l2 75q87 -29 186 -29q14 0 32 2q16 14 27 47.5t16 86.5t7 91t3 103t2 81l-7 2q-42 -80 -103.5 -139t-121.5 -75l-51 17 q-3 15 -3 45zM101 104q0 -19 2 -53q23 3 57 25.5t69 59t61 92.5t29 117l3 32q-48 12 -71 12q-73 0 -111.5 -79t-38.5 -206z" />
<glyph unicode="h" horiz-adv-x="493" d="M-5 729l148 30l17 -17q-9 -86 -33 -463l8 -2q46 60 103.5 103.5t116.5 57.5l37 -17q12 -47 12 -114q0 -46 -7 -137.5t-7 -131.5q46 8 83 26l10 -19q-28 -19 -79.5 -37t-71.5 -18l-17 17q23 176 23 268q0 52 -8 102q-51 0 -124.5 -65.5t-73.5 -122.5v-189h-78 q17 139 21 285q7 221 7 431l-29 -4l-56 -4z" />
<glyph unicode="i" horiz-adv-x="257" d="M8 408l148 30l17 -17q-21 -165 -21 -383q46 8 83 26l10 -19q-28 -19 -80.5 -37t-73.5 -18l-17 17q21 150 21 388l-29 -3q-15 -3 -56 -5zM98 569q1 3 5 57q1 7 1 18l71 15l18 -18q-3 -23 -6 -57v-17l-71 -16z" />
<glyph unicode="j" horiz-adv-x="237" d="M-30 -250q30 44 72.5 127t45.5 124q4 62 6 137t3.5 151.5t2.5 105.5l-30 -3q-14 -3 -55 -5l-2 21l148 30l17 -17q-18 -143 -27 -420q-3 -42 -56.5 -123.5t-104.5 -143.5zM102 569q2 15 3 35.5t1 21.5q1 7 1 18l72 15l17 -18q-5 -45 -5 -57q-1 -7 -1 -17l-70 -16z" />
<glyph unicode="k" horiz-adv-x="451" d="M-4 729l148 30l17 -17q-19 -163 -26 -443l9 -2q78 112 199 141l37 -17q0 -74 -27 -131.5t-98 -100.5l103 -151q41 7 75 23l9 -19q-29 -19 -71 -35.5t-60 -16.5l-121 179q57 40 87 96.5t32 112.5q-44 -7 -109.5 -61t-65.5 -105q0 -18 -0.5 -96t-0.5 -116h-77 q27 249 27 716l-30 -4l-55 -4z" />
<glyph unicode="l" horiz-adv-x="237" d="M-1 729l148 30l17 -17q-27 -249 -27 -704q37 5 80 26l10 -19q-28 -19 -79.5 -37t-71.5 -18l-17 17q27 249 27 709l-29 -4l-56 -4z" />
<glyph unicode="m" horiz-adv-x="738" d="M3 408l148 30l16 -17q0 -16 -7 -72.5t-12 -69.5l8 -2q51 68 97 108t103 53l37 -17q10 -44 10 -91q0 -18 -2 -52q50 67 96.5 107.5t102.5 52.5l37 -17q12 -47 12 -114q0 -46 -7 -137.5t-7 -131.5q46 8 83 26l11 -19q-30 -19 -80.5 -37t-71.5 -18l-17 17q23 176 23 268 q0 66 -8 103q-50 0 -114 -71t-64 -130v-177h-78q21 127 21 285q0 43 -9 93q-50 0 -114 -71t-64 -130v-177h-78q21 127 21 285q0 72 -6 110l-29 -3q-15 -3 -56 -5z" />
<glyph unicode="n" horiz-adv-x="514" d="M3 408l148 30l16 -17q0 -16 -7 -72.5t-12 -69.5l8 -2q46 60 103.5 103.5t116.5 57.5l37 -17q12 -47 12 -114q0 -46 -7 -137.5t-7 -131.5q46 8 83 26l10 -19q-28 -19 -79 -37t-71 -18l-18 17q23 176 23 268q0 66 -8 103q-51 0 -124.5 -66t-73.5 -123v-189h-78 q21 127 21 285q0 72 -6 110l-29 -3q-15 -3 -56 -5z" />
<glyph unicode="o" horiz-adv-x="422" d="M34 173q0 60 26 120t79 102.5t120 42.5q123 0 123 -186q0 -57 -24 -115.5t-75 -102.5t-116 -44q-68 0 -100.5 52.5t-32.5 130.5zM97 215q0 -107 63 -175h89q29 21 50.5 67.5t21.5 104.5q0 106 -64 175h-88q-30 -21 -51 -67t-21 -105z" />
<glyph unicode="p" horiz-adv-x="461" d="M5 408l148 30l17 -17q0 -2 -4.5 -38t-7.5 -67l8 -2q78 94 187 124l42 -17q28 -59 28 -126q0 -117 -74 -211t-169 -94q-15 0 -37 2l-4 -215l29 3q15 3 56 5l2 -21l-148 -30l-17 17q31 331 31 644l-29 -3q-14 -3 -56 -5zM145 51q34 -12 70 -12q68 0 106 60.5t38 143.5 q0 77 -31 135q-50 0 -113 -58.5t-66 -136.5z" />
<glyph unicode="q" horiz-adv-x="451" d="M29 51q0 94 34 183t94.5 146.5t129.5 57.5q36 0 101 -14q-21 -176 -21 -647l29 3q17 3 56 5l2 -21l-148 -30l-17 17q3 17 13.5 222t12.5 229l-7 2q-42 -80 -103.5 -139t-121.5 -75l-51 17q0 5 -1 14t-1.5 16t-0.5 14zM101 106q0 -17 2 -55q23 3 57 25.5t69 59t61 92.5 t29 117l3 32q-48 12 -71 12q-73 0 -111.5 -77.5t-38.5 -205.5z" />
<glyph unicode="r" horiz-adv-x="341" d="M3 408l148 30l16 -17q0 -16 -7 -72.5t-12 -69.5l8 -2q22 34 36.5 54.5t39 49t50.5 43t53 14.5l-2 -86q-12 2 -19 2q-57 0 -109 -57.5t-52 -107.5v-189h-78q21 127 21 285q0 72 -6 110l-29 -3q-15 -3 -56 -5z" />
<glyph unicode="s" horiz-adv-x="354" d="M35 1l3 127h23l6 -61q47 -17 103 -17q83 0 107 35q-4 25 -39.5 52t-76 47.5t-74.5 53.5t-35 68l18 61q23 34 69 52.5t99 18.5q38 0 71 -10l-3 -125h-21l-9 62q-36 14 -86 14q-72 0 -101 -28q4 -24 39 -51.5t74 -49.5t71.5 -56.5t32.5 -72.5l-18 -61q-55 -70 -172 -70 q-42 0 -81 11z" />
<glyph unicode="t" horiz-adv-x="284" d="M34 407l1 21h59q3 120 3 131l78 21q-7 -44 -15 -151q55 1 106 6l-2 -56q-48 0 -107 8q-10 -121 -10 -226q0 -92 11 -121q36 10 85 33l10 -19q-61 -47 -123 -64l-37 17q-12 47 -12 112q0 26 2 65.5t5 100.5t5 111z" />
<glyph unicode="u" horiz-adv-x="518" d="M6 408l148 30l16 -17q-2 -26 -9 -83t-11 -102t-4 -84q0 -58 10 -102q33 0 79 27.5t82.5 73t36.5 88.5l3 156l-30 -3q-17 -3 -56 -5l-1 21l147 30l18 -17q-13 -94 -20 -278q-1 -24 -1 -76v-29q46 9 83 26l10 -19q-19 -13 -51 -26t-60 -21t-40 -8l-17 17q13 110 20 142 l-8 2q-46 -61 -103 -103.5t-117 -57.5l-37 17q-12 47 -12 111q0 37 6.5 121.5t6.5 120.5q0 17 -2 35l-30 -3q-14 -3 -55 -5z" />
<glyph unicode="v" horiz-adv-x="442" d="M-11 405l124 33l22 -9q12 -137 52 -246q25 -74 41 -112h9l47 100q54 117 54 205q0 22 -5 40l82 22q2 -18 2 -30q0 -40 -21.5 -95t-77.5 -156l-86 -156l-36 -11q-90 190 -131 402l-74 -8z" />
<glyph unicode="w" horiz-adv-x="668" d="M-8 405l124 33l22 -9q8 -137 39 -246q16 -62 33 -112h9l101 260q-11 61 -14 88l72 19q6 -113 49 -251q17 -57 39 -116h9q87 201 87 302q0 30 -4 43l82 22q5 -26 1 -54t-22 -72t-33.5 -77t-53 -108t-61.5 -126l-37 -11q-63 138 -98 271l-121 -260l-37 -11 q-68 143 -109 402l-26 -3q-7 0 -24 -2t-25 -3z" />
<glyph unicode="x" horiz-adv-x="449" d="M10 401l115 37l22 -10l89 -166l3 4q64 76 64 147v3l82 22v-9q0 -23 -10 -44.5t-21.5 -35t-35.5 -38.5t-37 -41l-30 -36l104 -194q39 6 79 27l9 -20q-49 -38 -125 -57l-22 10l-94 176l-3 -3q-45 -55 -61 -84.5t-16 -64.5v-13l-80 -21q-2 12 -2 16q0 26 17.5 52t52 61 t46.5 50l31 36l-99 185l-26 -3q-23 -4 -49 -6z" />
<glyph unicode="y" horiz-adv-x="441" d="M-12 405l124 33l22 -9q7 -128 50 -246q22 -66 43 -112h9l47 100q54 117 54 205q0 22 -5 40l82 22q2 -6 2 -30q0 -41 -21.5 -95t-77.5 -156l-85 -156q-5 -8 -24 -42t-26.5 -46.5t-25 -41.5t-28 -44t-26.5 -35.5t-30 -34t-29 -23.5l-46 67q61 35 108.5 78t89.5 111 q-99 211 -130 402l-75 -8z" />
<glyph unicode="z" horiz-adv-x="399" d="M12 14l277 363q-70 -8 -111 -8q-27 0 -83 2l-15 -69h-22l5 136q77 -8 156 -8q77 0 139 8l10 -20l-265 -349l207 -6l26 65h24q-9 -36 -16.5 -78t-11.5 -58l-269 27l-23 -29z" />
<glyph unicode="{" horiz-adv-x="274" d="M15 250l1 30l82 46q19 42 19 134v73q0 28 1.5 47t10 47t23 46.5t43.5 35.5t70 24l7 -25l-70 -32q-15 -36 -15 -86q0 -14 0.5 -42.5t0.5 -42.5q0 -39 -3.5 -68t-15.5 -64t-39 -62.5t-68 -44.5q110 -43 110 -189q0 -24 -4.5 -75t-4.5 -83q0 -12 11 -63l66 -34l-7 -25 q-43 7 -71.5 24t-42 42t-18 48t-4.5 52q0 21 3.5 64t3.5 67q0 74 -10 113z" />
<glyph unicode="|" horiz-adv-x="212" d="M82 -196v955h48v-955h-48z" />
<glyph unicode="}" horiz-adv-x="273" d="M0 -178l73 32q13 22 13 86q0 14 -1 42.5t-1 42.5q0 38 4 67t15.5 64.5t38.5 63t69 44.5q-58 23 -84 69.5t-26 119.5q0 25 4 75t4 83q0 23 -7 63l-70 34l8 25q42 -7 70.5 -24t42 -42t18 -48t4.5 -52q0 -21 -3.5 -64t-3.5 -67q0 -77 10 -113l79 -43l-1 -30l-82 -46 q-19 -42 -19 -134v-73q0 -28 -1.5 -47.5t-10 -47t-23 -46.5t-43.5 -35.5t-70 -23.5z" />
<glyph unicode="~" horiz-adv-x="428" d="M48 249l89 97h29q68 -42 142 -56l22 20q28 26 42 36l15 -15l-94 -101h-30q-61 19 -126 68l-27 -24q-35 -28 -48 -40z" />
<glyph unicode="&#xa1;" horiz-adv-x="206" d="M38 -266q7 47 13.5 104.5t13 124.5t10.5 99q10 116 13 168h29q0 -54 2 -168q0 -156 13 -328q-24 2 -47 2q-21 0 -47 -2zM60 348q2 15 3 35.5t1 21.5q1 7 1 18l72 15l17 -18q-5 -45 -5 -57q-1 -7 -1 -17l-70 -16z" />
<glyph unicode="&#xa2;" horiz-adv-x="374" d="M42 167q0 81 42.5 154t110.5 100l4 115h36l-4 -103q25 5 45 5q26 0 54 -6l-16 -60q-52 15 -81 16l-4 1l-11 -319l17 9q43 23 83 55l13 -18q-40 -37 -75 -62q-9 -7 -39 -26l-5 -137h-35l4 118q-17 -8 -45 -19l-37 17q-57 61 -57 160zM109 215q0 -111 46 -164q15 2 28 6 l11 334h-22q-63 -51 -63 -176z" />
<glyph unicode="&#xa3;" horiz-adv-x="479" d="M23 10q48 44 70.5 71.5t35 67.5t12.5 99q0 11 -0.5 22.5t-1.5 26t-1 23.5l-87 9l1 21q55 0 83 -1q-11 123 -11 133q0 66 72 133q83 78 152 78q19 0 35.5 -2.5t34.5 -7t25 -5.5l-17 -68q-82 37 -150 37q-38 -29 -54 -61t-16 -93q0 -13 2 -43l7 -101q124 0 170 8l-20 -45 q-27 -3 -59 -3q-12 0 -26.5 0.5t-32.5 1.5t-29 1v-14q0 -134 -83 -219l245 -18q18 29 31 81l21 -3q-2 -34 -18.5 -81.5t-29.5 -65.5l-23 -2l-274 36l-34 -36h-22z" />
<glyph unicode="&#xa4;" horiz-adv-x="724" d="M49 65l97 97q-63 77 -63 178q0 102 66 184l-100 101l34 34l101 -101q78 67 175 67q103 0 183 -67l101 101l34 -34l-102 -102q68 -85 68 -183q0 -99 -64 -177l98 -98l-34 -34l-98 97q-78 -70 -186 -70q-103 0 -180 69l-96 -96zM130 344q0 -97 68.5 -167t163.5 -70 q96 0 164.5 70t68.5 167q0 98 -68.5 168.5t-164.5 70.5q-95 0 -163.5 -70.5t-68.5 -168.5z" />
<glyph unicode="&#xa5;" horiz-adv-x="699" d="M39 650v28q56 -7 108 -7q56 0 123 7v-28q-13 -1 -36.5 -2.5t-36.5 -3.5l172 -304h8l165 289l-73 21v28l24 -4q48 -3 72 -3q50 0 119 7v-28q-29 -4 -69 -6l-149 -234h126l-1 -34q-13 -1 -43 -1q-62 0 -105 -1l-45 -70h191l-2 -34h-57l-137 -3l-7 -217l71 -22v-28l-26 3 q-68 4 -74 4q-54 0 -121 -7v28q68 6 73 6l5 231q-138 -6 -194 -11l2 50h188l-38 66q-101 -6 -148 -10l2 50h123l-127 219z" />
<glyph unicode="&#xa6;" horiz-adv-x="221" d="M86 144h49v-340h-49v340zM86 419v340h49v-340h-49z" />
<glyph unicode="&#xa7;" horiz-adv-x="449" d="M40 390q0 114 66.5 210.5t166.5 96.5q44 0 88 -11l-2 -75q-80 36 -168 36q-17 -19 -17 -54q0 -46 71 -141q54 -71 83.5 -115.5t54 -109.5t24.5 -129q0 -71 -29 -140.5t-88 -119.5t-133 -50q-49 0 -88 11l2 75q81 -36 168 -36q17 17 17 53q0 43 -20 84t-67 101 q-67 87 -98 156.5t-31 157.5zM87 434q0 -46 16 -95t32 -78t44 -73q10 -16 31.5 -47.5t30 -45t23 -37.5t20 -38t10.5 -32t5 -34q0 -33 -6 -61l10 -3q51 79 51 166q0 72 -24 124t-83 138q-5 7 -27.5 36t-31.5 43t-24 39.5t-21 49t-6 48.5q0 3 0.5 16t0.5 29l-10 3 q-41 -73 -41 -148z" />
<glyph unicode="&#xa8;" horiz-adv-x="342" d="M51 585q5 42 5 54q1 6 1 17l66 14l16 -17q-5 -31 -5 -53q-1 -7 -1 -17l-65 -14zM204 585q2 14 5 54v17l66 14l17 -17q-5 -31 -5 -53q-1 -7 -1 -17l-65 -14z" />
<glyph unicode="&#xa9;" horiz-adv-x="803" d="M45 340q0 148 105 253t254 105q148 0 253 -105t105 -253t-105 -253t-253 -105q-149 0 -254 105t-105 253zM80 340q0 -134 95 -229t229 -95q133 0 228.5 95.5t95.5 228.5t-95.5 228.5t-228.5 95.5q-134 0 -229 -95t-95 -229zM192 336q0 92 69 154.5t169 62.5q72 0 132 -17 l-7 -96h-31l-5 54q-49 27 -90 27q-71 0 -122.5 -46.5t-51.5 -121.5q0 -87 55.5 -133.5t127.5 -46.5q44 0 100 14l8 -28q-56 -26 -129 -26q-95 0 -160 57.5t-65 145.5z" />
<glyph unicode="&#xaa;" horiz-adv-x="426" d="M51 431q0 124 64 216.5t144 92.5q16 0 86 -11q-13 -129 -13 -308q25 3 64 21l9 -20q-22 -15 -65.5 -29.5t-61.5 -14.5l-15 14q7 65 13 157l-5 2q-33 -68 -77 -114.5t-91 -58.5l-49 14q0 4 -1 12t-1.5 14.5t-0.5 12.5zM112 475q0 -14 2 -48q40 7 100 81.5t65 153.5l2 26 q-34 9 -50 9q-58 0 -88.5 -60t-30.5 -162z" />
<glyph unicode="&#xab;" horiz-adv-x="461" d="M25 255l255 224l16 -15l-163 -209l148 -198l-16 -15zM214 255l193 185l11 -13l-102 -172l90 -173l-12 -11z" />
<glyph unicode="&#xac;" horiz-adv-x="582" d="M78 292v48h430v-172h-48v124h-382z" />
<glyph unicode="&#xad;" horiz-adv-x="414" d="M66 210l2 57h276l-2 -57h-276z" />
<glyph unicode="&#xae;" horiz-adv-x="545" d="M49 468q0 96 67 163t163 67q95 0 162.5 -67t67.5 -163t-67.5 -163t-162.5 -67q-96 0 -163 67t-67 163zM76 467q0 -83 59.5 -142.5t142.5 -59.5t142.5 59.5t59.5 142.5t-60 142.5t-142 59.5q-83 0 -142.5 -59.5t-59.5 -142.5zM171 339v22l27 2q1 28 5 113.5t4 102.5 l-27 10v21q3 -1 11 -1h30q7 0 25.5 1.5t33.5 1.5q40 0 61 -21t21 -51q0 -56 -55 -82l58 -91l35 -12l-2 -16h-62l-66 111q-14 -2 -29 -2q0 -16 -1.5 -46t-1.5 -32l27 -9v-22l-13 2q-14 2 -30 2q-19 0 -51 -4zM241 468h5q35 0 55.5 16.5t20.5 48.5q0 57 -57 57q-12 0 -20 -1z " />
<glyph unicode="&#xaf;" horiz-adv-x="577" d="M129 576l2 57h276l-2 -57h-276z" />
<glyph unicode="&#xb0;" horiz-adv-x="285" d="M47 594q0 45 30.5 75.5t75.5 30.5t75.5 -30.5t30.5 -75.5t-30.5 -75.5t-75.5 -30.5t-75.5 30.5t-30.5 75.5zM85 594q0 -29 19.5 -48.5t48.5 -19.5t48.5 20t19.5 48q0 29 -19.5 48.5t-48.5 19.5t-48.5 -19.5t-19.5 -48.5z" />
<glyph unicode="&#xb1;" horiz-adv-x="587" d="M62 76v48h460v-48h-460zM62 333v48h206v206h48v-206h206v-48h-206v-160h-48v160h-206z" />
<glyph unicode="&#xb2;" horiz-adv-x="293" d="M31 416q88 90 115 128q46 66 46 123q0 29 -14 44t-36 15q-38 0 -71 -31l-13 16q42 48 103 48q36 0 61.5 -22t25.5 -62q0 -42 -32 -91t-122 -137l101 3q19 2 27 10t16 35l18 -4q-12 -47 -19 -88h-200z" />
<glyph unicode="&#xb3;" horiz-adv-x="282" d="M34 419l28 44q29 -32 62 -32q35 0 57.5 21.5t22.5 64.5q0 64 -64 64q-14 0 -31 -6l-7 21l13 4q29 8 49.5 31t20.5 54q0 41 -44 41q-31 0 -67 -31l-14 16q42 48 102 48q34 0 54 -16.5t20 -46.5q0 -51 -62 -86q38 -2 60.5 -25t22.5 -55q0 -54 -51 -93t-109 -39 q-39 0 -63 21z" />
<glyph unicode="&#xb4;" horiz-adv-x="284" d="M50 569l123 185q23 -23 61 -43l-161 -158z" />
<glyph unicode="&#xb6;" horiz-adv-x="476" d="M37 548q0 57 40.5 94t103.5 37q9 0 57 -2t87 -2q57 0 121 4v-28q-13 -1 -37 -2.5t-36 -3.5l-32 -911h-47l31 895h-84l-32 -895h-47l24 693h-14q-70 0 -102.5 35t-32.5 86z" />
<glyph unicode="&#xb7;" horiz-adv-x="204" d="M57 311q1 4 5 57q0 13 1 18l71 15l18 -18q-3 -21 -6 -56v-18l-71 -16z" />
<glyph unicode="&#xb8;" horiz-adv-x="265" d="M48 -206l2 55q44 -23 82 -23q43 0 57 38q-21 27 -91 57l17 100h36l-10 -62q78 -32 78 -77q0 -41 -36 -69t-85 -28q-26 0 -50 9z" />
<glyph unicode="&#xb9;" horiz-adv-x="243" d="M42 681q64 30 109 78h20q-7 -232 -9 -281v-3q0 -29 7.5 -39t25.5 -12l14 -2v-19l-18 2q-22 2 -50 2q-38 0 -81 -4v19q13 1 28 2.5t21 1.5l9 274l-20 -13q-25 -14 -48 -23z" />
<glyph unicode="&#xba;" horiz-adv-x="355" d="M49 526q0 78 51 146t131 68q53 0 76 -42.5t23 -107.5q0 -73 -49 -142t-125 -69q-55 0 -81 42t-26 105zM103 562q0 -82 49 -136h67q23 15 39.5 51t16.5 81q0 83 -50 136h-66q-23 -15 -39.5 -51t-16.5 -81z" />
<glyph unicode="&#xbb;" horiz-adv-x="460" d="M42 82l102 173l-90 172l12 13l180 -185l-192 -184zM165 57l162 198l-147 209l15 15l240 -224l-254 -213z" />
<glyph unicode="&#xbc;" horiz-adv-x="598" d="M47 582q64 30 109 78h20q-7 -232 -9 -281v-3q0 -29 7.5 -39t25.5 -12l14 -2v-19l-18 2q-22 2 -50 2q-38 0 -81 -4v19q13 1 28 2.5t21 1.5l9 274l-20 -13q-25 -14 -48 -23zM49 15l490 676l28 -19l-490 -680zM308 113l1 18l179 225l18 -8l-7 -205q7 0 21 0.5t19 1.5l15 2 l-12 -34h-44v-20t-0.5 -11t-0.5 -5v-3q0 -18 2 -28.5t8 -15.5t9.5 -6t12.5 -3l16 -2v-19q-35 5 -71 5q-30 0 -78 -5v19q13 1 27.5 2.5t20.5 1.5l3 90h-139zM345 138q37 0 103 2l5 134z" />
<glyph unicode="&#xbd;" horiz-adv-x="629" d="M47 581q64 30 109 78h20q-7 -232 -9 -281v-3q0 -29 7.5 -39t25.5 -12l14 -2v-19l-18 2q-22 2 -50 2q-38 0 -81 -4v19q13 1 28 2.5t21 1.5l9 274l-20 -13q-25 -14 -48 -23zM49 15l490 676l28 -19l-490 -680zM362 13q88 90 115 128q46 66 46 123q0 29 -14 44t-36 15 q-38 0 -71 -31l-13 16q42 48 103 48q36 0 61.5 -22t25.5 -62q0 -42 -32 -91t-122 -137l101 3q19 2 27 10t16 35l18 -4q-12 -47 -19 -88h-200z" />
<glyph unicode="&#xbe;" horiz-adv-x="613" d="M38 319l28 44q29 -32 62 -32q35 0 57.5 21.5t22.5 64.5q0 64 -64 64q-14 0 -31 -6l-7 21l13 4q29 8 49.5 31t20.5 54q0 41 -44 41q-31 0 -67 -31l-14 16q42 48 102 48q34 0 54 -16.5t20 -46.5q0 -51 -62 -86q38 -2 60.5 -25t22.5 -55q0 -54 -51 -93t-109 -39 q-39 0 -63 21zM64 15l490 676l28 -19l-490 -680zM323 113l1 18l179 225l18 -8l-7 -205q7 0 21 0.5t19 1.5l15 2l-12 -34h-44v-20t-0.5 -11t-0.5 -5v-3q0 -18 2 -28.5t8 -15.5t9.5 -6t12.5 -3l16 -2v-19q-35 5 -71 5q-30 0 -78 -5v19q13 1 27.5 2.5t20.5 1.5l3 90h-139z M360 138q37 0 103 2l5 134z" />
<glyph unicode="&#xbf;" horiz-adv-x="353" d="M20 -145q0 33 27.5 75.5t61 75.5t71.5 71.5t51 58.5q-6 32 -41 86l19 16q65 -73 65 -112q0 -29 -40.5 -77.5t-97 -106.5t-77.5 -89q6 -58 95 -58q74 0 134 36l-2 -84q-37 -13 -103 -13q-70 0 -116.5 33.5t-46.5 87.5zM164 348q1 4 5 57q0 13 1 17l71 16l18 -18 q-3 -23 -6 -57q-1 -11 0 -18l-71 -15z" />
<glyph unicode="&#xc0;" horiz-adv-x="618" d="M-26 0l1 28l26 3q6 0 21.5 1.5t20.5 1.5q130 272 257 659l39 11l202 -654l83 -22l-1 -28q-49 6 -113 6q-66 0 -122 -6l1 28l69 6l-56 203h-19q-97 0 -206 -10l-63 -177l80 -22l-1 -28q-61 7 -101 7q-39 0 -118 -7zM136 859q23 29 42 62l175 -142l-19 -24zM193 271h199 l-82 300h-14z" />
<glyph unicode="&#xc1;" horiz-adv-x="618" d="M-26 0l1 28l26 3q6 0 21.5 1.5t20.5 1.5q130 272 257 659l39 11l202 -654l83 -22l-1 -28q-49 6 -113 6q-66 0 -122 -6l1 28l69 6l-56 203h-19q-97 0 -206 -10l-63 -177l80 -22l-1 -28q-61 7 -101 7q-39 0 -118 -7zM193 271h199l-82 300h-14zM297 777l167 147 q21 -36 48 -58l-197 -111z" />
<glyph unicode="&#xc2;" horiz-adv-x="618" d="M-26 0l1 28l26 3q6 0 21.5 1.5t20.5 1.5q130 272 257 659l39 11l202 -654l83 -22l-1 -28q-49 6 -113 6q-66 0 -122 -6l1 28l69 6l-56 203h-19q-97 0 -206 -10l-63 -177l80 -22l-1 -28q-61 7 -101 7q-39 0 -118 -7zM159 775l150 131h40l141 -131l-21 -20l-142 87l-149 -87 zM193 271h199l-82 300h-14z" />
<glyph unicode="&#xc3;" horiz-adv-x="618" d="M-26 0l1 28l26 3q6 0 21.5 1.5t20.5 1.5q130 272 257 659l39 11l202 -654l83 -22l-1 -28q-49 6 -113 6q-66 0 -122 -6l1 28l69 6l-56 203h-19q-97 0 -206 -10l-63 -177l80 -22l-1 -28q-61 7 -101 7q-39 0 -118 -7zM172 778l88 97h29q71 -43 142 -56l22 20l42 36l15 -15 l-93 -101h-31q-72 23 -126 68q-18 -16 -74 -64zM193 271h199l-82 300h-14z" />
<glyph unicode="&#xc4;" horiz-adv-x="618" d="M-26 0l1 28l26 3q6 0 21.5 1.5t20.5 1.5q130 272 257 659l39 11l202 -654l83 -22l-1 -28q-49 6 -113 6q-66 0 -122 -6l1 28l69 6l-56 203h-19q-97 0 -206 -10l-63 -177l80 -22l-1 -28q-61 7 -101 7q-39 0 -118 -7zM193 271h199l-82 300h-14zM204 772q5 42 5 54q1 6 1 17 l66 14l16 -17q-5 -31 -5 -53q-1 -7 -1 -16l-65 -15zM374 772q5 42 5 54q1 6 1 17l65 14l17 -17q-5 -31 -5 -53q-1 -7 -1 -16l-65 -15z" />
<glyph unicode="&#xc5;" horiz-adv-x="618" d="M-26 0l1 28l26 3q6 0 21.5 1.5t20.5 1.5q130 272 257 659l39 11l202 -654l83 -22l-1 -28q-49 6 -113 6q-66 0 -122 -6l1 28l69 6l-56 203h-19q-97 0 -206 -10l-63 -177l80 -22l-1 -28q-61 7 -101 7q-39 0 -118 -7zM193 271h199l-82 300h-14zM224 841q0 40 31 70t79 30 q44 0 67.5 -23.5t23.5 -58.5q0 -44 -32.5 -74t-76.5 -30q-47 0 -69.5 25t-22.5 61zM265 848q0 -24 15.5 -44t43.5 -20q27 0 42.5 17t15.5 47q0 23 -15.5 44t-43.5 21q-26 0 -42 -19t-16 -46z" />
<glyph unicode="&#xc6;" horiz-adv-x="826" d="M-48 1l1 28l26 3q5 0 20.5 1.5t21.5 1.5l364 594l-86 23l1 28q86 -10 235 -10q139 0 254 9l-16 -165h-29l-15 110l-213 15q-7 -77 -9 -157l-5 -110l208 11l-4 -62q-35 5 -75 8.5t-82.5 6t-48.5 2.5l-8 -300l220 8l50 103h30l-38 -159q-74 3 -176.5 9.5t-119.5 6.5 q-58 0 -116 -6l1 28q66 6 73 6l6 204q-96 0 -232 -11l-103 -177l84 -21l-1 -28q-61 7 -100 7t-118 -7zM213 272h210l12 367h-8z" />
<glyph unicode="&#xc7;" horiz-adv-x="689" d="M45 325q0 161 111.5 264.5t285.5 103.5q120 0 225 -28l-14 -163h-29l-13 108q-69 47 -162 47q-130 0 -221 -81.5t-91 -223.5q0 -63 19.5 -117.5t51.5 -92t74 -64t87 -39t90 -12.5q80 0 172 31l10 -28q-88 -44 -217 -44q-19 0 -28 1l-4 -28q78 -31 78 -77 q0 -40 -36.5 -68.5t-84.5 -28.5q-27 0 -51 9l2 55q48 -23 82 -23q43 0 57 38q-18 25 -90 57l11 69q-139 21 -227 112t-88 223z" />
<glyph unicode="&#xc8;" horiz-adv-x="514" d="M30 0l1 28q64 6 73 6l20 595l-71 22v28q63 -7 147 -7h117q70 0 160 7l-16 -165h-29l-15 110l-213 15q-7 -77 -9 -157l-5 -110l208 11l-4 -62q-35 5 -75 8.5t-82.5 6t-48.5 2.5l-8 -300l220 8l50 103h30l-38 -159q-74 3 -176.5 9.5t-119.5 6.5q-58 0 -116 -6zM157 859 q23 29 42 62l175 -142l-19 -24z" />
<glyph unicode="&#xc9;" horiz-adv-x="514" d="M30 0l1 28q64 6 73 6l20 595l-71 22v28q63 -7 147 -7h117q70 0 160 7l-16 -165h-29l-15 110l-213 15q-7 -77 -9 -157l-5 -110l208 11l-4 -62q-35 5 -75 8.5t-82.5 6t-48.5 2.5l-8 -300l220 8l50 103h30l-38 -159q-74 3 -176.5 9.5t-119.5 6.5q-58 0 -116 -6zM192 777 l167 147q21 -36 48 -58l-197 -111z" />
<glyph unicode="&#xca;" horiz-adv-x="514" d="M30 0l1 28q64 6 73 6l20 595l-71 22v28q63 -7 147 -7h117q70 0 160 7l-16 -165h-29l-15 110l-213 15q-7 -77 -9 -157l-5 -110l208 11l-4 -62q-35 5 -75 8.5t-82.5 6t-48.5 2.5l-8 -300l220 8l50 103h30l-38 -159q-74 3 -176.5 9.5t-119.5 6.5q-58 0 -116 -6zM125 775 l150 131h40l141 -131l-21 -20l-142 87l-149 -87z" />
<glyph unicode="&#xcb;" horiz-adv-x="514" d="M30 0l1 28q64 6 73 6l20 595l-71 22v28q63 -7 147 -7h117q70 0 160 7l-16 -165h-29l-15 110l-213 15q-7 -77 -9 -157l-5 -110l208 11l-4 -62q-35 5 -75 8.5t-82.5 6t-48.5 2.5l-8 -300l220 8l50 103h30l-38 -159q-74 3 -176.5 9.5t-119.5 6.5q-58 0 -116 -6zM175 772 q5 42 5 54q1 6 1 17l66 14l16 -17q-5 -31 -5 -53q-1 -7 -1 -16l-65 -15zM345 772q5 42 5 54q1 6 1 17l65 14l17 -17q-5 -31 -5 -53q-1 -7 -1 -16l-65 -15z" />
<glyph unicode="&#xcc;" horiz-adv-x="300" d="M-26 859q23 29 42 62l175 -142l-19 -24zM31 0v28q64 6 73 6l20 595l-71 22v28q49 -7 99 -7q54 0 121 7v-28q-13 -1 -36.5 -2.5t-35.5 -3.5l-20 -595l70 -22v-28l-25 3q-68 4 -75 4q-53 0 -120 -7z" />
<glyph unicode="&#xcd;" horiz-adv-x="300" d="M31 0v28q64 6 73 6l20 595l-71 22v28q49 -7 99 -7q54 0 121 7v-28q-13 -1 -36.5 -2.5t-35.5 -3.5l-20 -595l70 -22v-28l-25 3q-68 4 -75 4q-53 0 -120 -7zM123 777l167 147q21 -36 48 -58l-197 -111z" />
<glyph unicode="&#xce;" horiz-adv-x="300" d="M4 775l150 131h40l141 -131l-21 -20l-142 87l-149 -87zM31 0v28q64 6 73 6l20 595l-71 22v28q49 -7 99 -7q54 0 121 7v-28q-13 -1 -36.5 -2.5t-35.5 -3.5l-20 -595l70 -22v-28l-25 3q-68 4 -75 4q-53 0 -120 -7z" />
<glyph unicode="&#xcf;" horiz-adv-x="300" d="M31 0v28q64 6 73 6l20 595l-71 22v28q49 -7 99 -7q54 0 121 7v-28q-13 -1 -36.5 -2.5t-35.5 -3.5l-20 -595l70 -22v-28l-25 3q-68 4 -75 4q-53 0 -120 -7zM41 772q5 42 5 54q1 6 1 17l66 14l16 -17q-5 -31 -5 -53q-1 -7 -1 -16l-65 -15zM211 772q5 42 5 54q1 6 1 17 l65 14l17 -17q-5 -31 -5 -53q-1 -7 -1 -16l-65 -15z" />
<glyph unicode="&#xd0;" horiz-adv-x="800" d="M3 322l2 50h145l9 257l-71 22v28l31 -4q57 -3 73 -3q34 0 109.5 6t119.5 6q150 0 243 -94t93 -247q0 -45 -10.5 -90.5t-38 -93t-68.5 -83.5t-107.5 -59t-150.5 -23q-29 0 -98 6t-104 6q-52 0 -114 -6v28q68 6 73 6l9 298q-104 -6 -145 -10zM215 50q74 -24 143 -24 q36 0 70.5 5.5t79.5 24.5t78.5 50.5t56.5 90t23 135.5q0 47 -8 88.5t-30 84.5t-56 73.5t-90.5 50t-129.5 19.5q-76 0 -116 -5l-10 -271h179l-1 -34q-78 0 -179 -4z" />
<glyph unicode="&#xd1;" horiz-adv-x="789" d="M25 0v28q37 6 73 6l13 377q2 74 2 126q0 99 -4 142l40 15l479 -572l16 507l-71 22v28l31 -3q57 -3 69 -3q45 0 95 6v-28q-34 -4 -73 -6q-1 -35 -5.5 -144t-6.5 -194t-2 -177q0 -36 2 -130l-42 -14l-479 565l-13 -501l71 -22v-28l-30 3q-57 3 -70 3q-42 0 -95 -6zM259 778 l88 97h29q71 -43 142 -56l22 20l42 36l15 -15l-93 -101h-31q-72 23 -126 68q-18 -16 -74 -64z" />
<glyph unicode="&#xd2;" d="M46 337q0 155 101.5 255.5t263.5 100.5q94 0 167.5 -50.5t109.5 -126.5t36 -161q0 -160 -97 -264.5t-234 -104.5q-84 0 -152 30t-109.5 80.5t-63.5 112t-22 128.5zM137 347q0 -133 69.5 -229t187.5 -96q113 0 175 84.5t62 215.5q0 143 -68 239t-174 96q-46 0 -87.5 -15 t-80 -48.5t-61.5 -97t-23 -149.5zM246 859q23 29 42 62l175 -142l-19 -24z" />
<glyph unicode="&#xd3;" d="M46 337q0 155 101.5 255.5t263.5 100.5q94 0 167.5 -50.5t109.5 -126.5t36 -161q0 -160 -97 -264.5t-234 -104.5q-84 0 -152 30t-109.5 80.5t-63.5 112t-22 128.5zM137 347q0 -133 69.5 -229t187.5 -96q113 0 175 84.5t62 215.5q0 143 -68 239t-174 96q-46 0 -87.5 -15 t-80 -48.5t-61.5 -97t-23 -149.5zM338 777l167 147q21 -36 48 -58l-197 -111z" />
<glyph unicode="&#xd4;" d="M46 337q0 155 101.5 255.5t263.5 100.5q94 0 167.5 -50.5t109.5 -126.5t36 -161q0 -160 -97 -264.5t-234 -104.5q-84 0 -152 30t-109.5 80.5t-63.5 112t-22 128.5zM137 347q0 -133 69.5 -229t187.5 -96q113 0 175 84.5t62 215.5q0 143 -68 239t-174 96q-46 0 -87.5 -15 t-80 -48.5t-61.5 -97t-23 -149.5zM239 775l150 131h40l141 -131l-21 -20l-142 87l-149 -87z" />
<glyph unicode="&#xd5;" d="M46 337q0 155 101.5 255.5t263.5 100.5q94 0 167.5 -50.5t109.5 -126.5t36 -161q0 -160 -97 -264.5t-234 -104.5q-84 0 -152 30t-109.5 80.5t-63.5 112t-22 128.5zM137 347q0 -133 69.5 -229t187.5 -96q113 0 175 84.5t62 215.5q0 143 -68 239t-174 96q-46 0 -87.5 -15 t-80 -48.5t-61.5 -97t-23 -149.5zM244 778l88 97h29q71 -43 142 -56l22 20l42 36l15 -15l-93 -101h-31q-72 23 -126 68q-18 -16 -74 -64z" />
<glyph unicode="&#xd6;" d="M46 337q0 155 101.5 255.5t263.5 100.5q94 0 167.5 -50.5t109.5 -126.5t36 -161q0 -160 -97 -264.5t-234 -104.5q-84 0 -152 30t-109.5 80.5t-63.5 112t-22 128.5zM137 347q0 -133 69.5 -229t187.5 -96q113 0 175 84.5t62 215.5q0 143 -68 239t-174 96q-46 0 -87.5 -15 t-80 -48.5t-61.5 -97t-23 -149.5zM275 772q5 42 5 54q1 6 1 17l66 14l16 -17q-5 -31 -5 -53q-1 -7 -1 -16l-65 -15zM445 772q5 42 5 54q1 6 1 17l65 14l17 -17q-5 -31 -5 -53q-1 -7 -1 -16l-65 -15z" />
<glyph unicode="&#xd7;" horiz-adv-x="522" d="M62 149l167 167l-167 167l34 34l167 -167l167 167l34 -34l-167 -167l167 -167l-34 -34l-167 167l-167 -167z" />
<glyph unicode="&#xd8;" d="M46 337q0 155 101.5 255.5t263.5 100.5q91 0 165 -48l60 89l31 -22l-60 -90q56 -50 86.5 -120.5t30.5 -146.5q0 -160 -97 -264.5t-234 -104.5q-105 0 -181 45l-76 -114l-31 20l76 114q-65 48 -100 125t-35 161zM137 347q0 -148 80 -243l323 485q-63 68 -151 68 q-46 0 -87.5 -15t-80 -48.5t-61.5 -97t-23 -149.5zM243 78q62 -56 151 -56q113 0 175 84.5t62 215.5q0 143 -67 236z" />
<glyph unicode="&#xd9;" horiz-adv-x="731" d="M38 651v28l25 -4q51 -3 75 -3q54 0 121 7v-28q-13 -1 -36.5 -2.5t-36.5 -3.5q-14 -401 -14 -415q0 -102 48.5 -152t150.5 -50q203 0 210 233l14 368l-72 22v28q49 -7 93 -7q51 0 118 7v-28q-13 -1 -36 -2.5t-37 -3.5l-33 -389q-23 -270 -264 -270q-127 0 -198.5 52.5 t-71.5 157.5q0 41 6 207t10 226zM247 859q23 29 42 62l175 -142l-19 -24z" />
<glyph unicode="&#xda;" horiz-adv-x="731" d="M38 651v28l25 -4q51 -3 75 -3q54 0 121 7v-28q-13 -1 -36.5 -2.5t-36.5 -3.5q-14 -401 -14 -415q0 -102 48.5 -152t150.5 -50q203 0 210 233l14 368l-72 22v28q49 -7 93 -7q51 0 118 7v-28q-13 -1 -36 -2.5t-37 -3.5l-33 -389q-23 -270 -264 -270q-127 0 -198.5 52.5 t-71.5 157.5q0 41 6 207t10 226zM328 777l167 147q21 -36 48 -58l-197 -111z" />
<glyph unicode="&#xdb;" horiz-adv-x="731" d="M38 651v28l25 -4q51 -3 75 -3q54 0 121 7v-28q-13 -1 -36.5 -2.5t-36.5 -3.5q-14 -401 -14 -415q0 -102 48.5 -152t150.5 -50q203 0 210 233l14 368l-72 22v28q49 -7 93 -7q51 0 118 7v-28q-13 -1 -36 -2.5t-37 -3.5l-33 -389q-23 -270 -264 -270q-127 0 -198.5 52.5 t-71.5 157.5q0 41 6 207t10 226zM230 775l150 131h40l141 -131l-21 -20l-142 87l-149 -87z" />
<glyph unicode="&#xdc;" horiz-adv-x="731" d="M38 651v28l25 -4q51 -3 75 -3q54 0 121 7v-28q-13 -1 -36.5 -2.5t-36.5 -3.5q-14 -401 -14 -415q0 -102 48.5 -152t150.5 -50q203 0 210 233l14 368l-72 22v28q49 -7 93 -7q51 0 118 7v-28q-13 -1 -36 -2.5t-37 -3.5l-33 -389q-23 -270 -264 -270q-127 0 -198.5 52.5 t-71.5 157.5q0 41 6 207t10 226zM268 772q5 42 5 54q1 6 1 17l66 14l16 -17q-5 -31 -5 -53q-1 -7 -1 -16l-65 -15zM438 772q5 42 5 54q1 6 1 17l65 14l17 -17q-5 -31 -5 -53q-1 -7 -1 -16l-65 -15z" />
<glyph unicode="&#xdd;" horiz-adv-x="607" d="M-11 650v28q56 -7 108 -7q56 0 123 7v-28q-19 -3 -42 -4t-31 -2l172 -304h8l165 289l-73 21v28l24 -4q48 -3 72 -3q52 0 119 7v-28q-29 -4 -69 -6l-221 -347l-8 -247l71 -22v-28l-26 3q-64 4 -74 4q-54 0 -121 -7v28q68 6 73 6l6 262l-193 333zM246 777l167 147 q21 -36 48 -58l-197 -111z" />
<glyph unicode="&#xde;" horiz-adv-x="533" d="M31 0v28q68 6 73 6l21 595l-72 22v28q49 -7 100 -7q54 0 121 7v-28q-13 -1 -36 -2.5t-37 -3.5l-4 -103q1 0 34.5 2.5t59.5 2.5q105 0 159.5 -54t54.5 -135q0 -89 -63.5 -149t-154.5 -60q-30 0 -48 5l1 31q16 -3 33 -3q69 0 111.5 46.5t42.5 120.5q0 79 -44.5 122.5 t-130.5 43.5q-29 0 -56 -5l-15 -460l71 -22v-28l-25 3q-68 4 -75 4q-54 0 -121 -7z" />
<glyph unicode="&#xdf;" horiz-adv-x="531" d="M-100 -255l2 75q88 -33 163 -33q30 77 35 223q0 194 11 375q-15 -1 -44.5 -3t-44.5 -4l2 50h88q1 38 4 76q9 126 67 190.5t132 64.5q56 0 88 -31.5t32 -80.5q0 -71 -42.5 -135.5t-98.5 -108.5q74 -50 136.5 -129.5t62.5 -134.5q0 -75 -43 -112t-107 -37q-72 0 -123 34 l17 114h23v-54q50 -50 113 -50q38 0 54 19.5t17 64.5q-19 47 -56.5 96t-67 77.5t-76.5 70.5l2 30q123 152 123 276q-20 22 -56 35t-65 13q-64 -54 -70 -218q0 -52 -6.5 -252t-10.5 -242q-9 -131 -56.5 -200.5t-116.5 -69.5q-49 0 -88 11z" />
<glyph unicode="&#xe0;" horiz-adv-x="478" d="M30 55q0 153 79.5 268t178.5 115q38 0 105 -14q-17 -174 -17 -386q37 5 82 26l8 -19q-29 -19 -79.5 -37t-71.5 -18l-17 17q12 76 18 195l-7 2q-42 -80 -103.5 -139t-121.5 -75l-51 17q-3 16 -3 48zM102 106q0 -17 2 -55q23 3 57 25.5t69 59t61 92.5t29 117l3 32 q-48 12 -71 12q-73 0 -111.5 -77.5t-38.5 -205.5zM163 705q38 29 58 49l132 -182l-24 -19z" />
<glyph unicode="&#xe1;" horiz-adv-x="478" d="M30 55q0 153 79.5 268t178.5 115q38 0 105 -14q-17 -174 -17 -386q37 5 82 26l8 -19q-29 -19 -79.5 -37t-71.5 -18l-17 17q12 76 18 195l-7 2q-42 -80 -103.5 -139t-121.5 -75l-51 17q-3 16 -3 48zM102 106q0 -17 2 -55q23 3 57 25.5t69 59t61 92.5t29 117l3 32 q-48 12 -71 12q-73 0 -111.5 -77.5t-38.5 -205.5zM237 569l123 185q23 -23 61 -43l-161 -158z" />
<glyph unicode="&#xe2;" horiz-adv-x="478" d="M30 55q0 153 79.5 268t178.5 115q38 0 105 -14q-17 -174 -17 -386q37 5 82 26l8 -19q-29 -19 -79.5 -37t-71.5 -18l-17 17q12 76 18 195l-7 2q-42 -80 -103.5 -139t-121.5 -75l-51 17q-3 16 -3 48zM102 106q0 -17 2 -55q23 3 57 25.5t69 59t61 92.5t29 117l3 32 q-48 12 -71 12q-73 0 -111.5 -77.5t-38.5 -205.5zM136 573l131 156h40l120 -156l-21 -20l-121 119l-130 -119z" />
<glyph unicode="&#xe3;" horiz-adv-x="478" d="M30 55q0 153 79.5 268t178.5 115q38 0 105 -14q-17 -174 -17 -386q37 5 82 26l8 -19q-29 -19 -79.5 -37t-71.5 -18l-17 17q12 76 18 195l-7 2q-42 -80 -103.5 -139t-121.5 -75l-51 17q-3 16 -3 48zM102 106q0 -17 2 -55q23 3 57 25.5t69 59t61 92.5t29 117l3 32 q-48 12 -71 12q-73 0 -111.5 -77.5t-38.5 -205.5zM129 591l88 97h29q71 -43 142 -56q13 12 64 56l15 -15l-93 -101h-31q-68 23 -126 68q-18 -16 -74 -64z" />
<glyph unicode="&#xe4;" horiz-adv-x="478" d="M30 55q0 153 79.5 268t178.5 115q38 0 105 -14q-17 -174 -17 -386q37 5 82 26l8 -19q-29 -19 -79.5 -37t-71.5 -18l-17 17q12 76 18 195l-7 2q-42 -80 -103.5 -139t-121.5 -75l-51 17q-3 16 -3 48zM102 106q0 -17 2 -55q23 3 57 25.5t69 59t61 92.5t29 117l3 32 q-48 12 -71 12q-73 0 -111.5 -77.5t-38.5 -205.5zM150 585q5 42 5 54q1 6 1 17l66 14l16 -17q-5 -31 -5 -53q-1 -7 -1 -17l-65 -14zM303 585q2 14 5 54v17l66 14l17 -17q-5 -31 -5 -53q-1 -7 -1 -17l-65 -14z" />
<glyph unicode="&#xe5;" horiz-adv-x="478" d="M30 55q0 153 79.5 268t178.5 115q38 0 105 -14q-17 -174 -17 -386q37 5 82 26l8 -19q-29 -19 -79.5 -37t-71.5 -18l-17 17q12 76 18 195l-7 2q-42 -80 -103.5 -139t-121.5 -75l-51 17q-3 16 -3 48zM102 106q0 -17 2 -55q23 3 57 25.5t69 59t61 92.5t29 117l3 32 q-48 12 -71 12q-73 0 -111.5 -77.5t-38.5 -205.5zM167 639q0 40 30.5 70t79.5 30q45 0 68 -23.5t23 -58.5q0 -44 -32 -74t-77 -30q-47 0 -69.5 25t-22.5 61zM208 646q0 -25 15 -44.5t44 -19.5q27 0 42.5 17t15.5 47q0 24 -15.5 44.5t-43.5 20.5q-27 0 -42.5 -19t-15.5 -46z " />
<glyph unicode="&#xe6;" horiz-adv-x="568" d="M30 55q0 153 79.5 268t178.5 115q38 0 105 -14q36 14 72 14q47 0 69 -22l-1 -58q-22 -33 -54 -62q-71 -65 -175 -97q5 -100 47 -148q66 10 162 83l13 -18q-99 -91 -194 -126l-38 17q-37 38 -50 98q-79 -95 -160 -115l-52 17q-2 32 -2 48zM102 106q0 -17 2 -55 q24 2 61.5 28t72.5 66q-1 7 -1 22q0 57 23.5 113.5t61.5 96.5q-48 12 -70 12q-73 0 -111.5 -77.5t-38.5 -205.5zM304 224q92 42 139 94q21 24 34 48q-43 25 -93 25q-9 0 -13 -1q-62 -44 -67 -166z" />
<glyph unicode="&#xe7;" horiz-adv-x="357" d="M35 167q0 105 66 188t168 83q25 0 54 -6l-16 -60q-70 19 -142 19q-63 -49 -63 -176q0 -109 46 -164q67 10 163 83l13 -18q-72 -67 -130 -96l-27 -15l-7 -46q78 -31 78 -77q0 -40 -36.5 -68.5t-84.5 -28.5q-27 0 -51 9l2 55q48 -23 82 -23q42 0 58 38q-21 27 -91 57l11 70 l-36 16q-57 61 -57 160z" />
<glyph unicode="&#xe8;" horiz-adv-x="365" d="M34 167q0 105 65 188t163 83q45 0 70 -22l-1 -58q-22 -33 -54 -62q-72 -67 -175 -97q2 -94 45 -148q66 9 164 83l12 -18q-100 -91 -195 -126l-37 17q-57 61 -57 160zM102 225q92 41 138 93q22 26 33 48q-43 25 -92 25q-9 0 -14 -1q-30 -24 -47.5 -69t-17.5 -96zM109 705 q38 29 58 49l132 -182l-24 -19z" />
<glyph unicode="&#xe9;" horiz-adv-x="365" d="M34 167q0 105 65 188t163 83q45 0 70 -22l-1 -58q-22 -33 -54 -62q-72 -67 -175 -97q2 -94 45 -148q66 9 164 83l12 -18q-100 -91 -195 -126l-37 17q-57 61 -57 160zM102 225q92 41 138 93q22 26 33 48q-43 25 -92 25q-9 0 -14 -1q-30 -24 -47.5 -69t-17.5 -96zM203 569 l123 185q23 -23 61 -43l-161 -158z" />
<glyph unicode="&#xea;" horiz-adv-x="365" d="M34 167q0 105 65 188t163 83q45 0 70 -22l-1 -58q-22 -33 -54 -62q-72 -67 -175 -97q2 -94 45 -148q66 9 164 83l12 -18q-100 -91 -195 -126l-37 17q-57 61 -57 160zM102 225q92 41 138 93q22 26 33 48q-43 25 -92 25q-9 0 -14 -1q-30 -24 -47.5 -69t-17.5 -96zM104 573 l131 156h40l120 -156l-21 -20l-121 119l-130 -119z" />
<glyph unicode="&#xeb;" horiz-adv-x="366" d="M34 167q0 105 65 188t163 83q45 0 70 -22l-1 -58q-22 -33 -54 -62q-72 -67 -175 -97q2 -94 45 -148q66 9 164 83l12 -18q-100 -91 -195 -126l-37 17q-57 61 -57 160zM102 225q92 41 138 93q22 26 33 48q-43 25 -92 25q-9 0 -14 -1q-30 -24 -47.5 -69t-17.5 -96zM114 585 q5 42 5 54q1 6 1 17l66 14l16 -17q-5 -31 -5 -53q-1 -7 -1 -17l-65 -14zM267 585q2 14 5 54v17l66 14l17 -17q-5 -31 -5 -53q-1 -7 -1 -17l-65 -14z" />
<glyph unicode="&#xec;" horiz-adv-x="257" d="M-34 705q38 29 58 49l132 -182l-24 -19zM8 408l148 30l17 -17q-21 -165 -21 -383q46 8 83 26l11 -19q-31 -19 -82.5 -37t-72.5 -18l-17 17q21 150 21 388l-29 -3q-15 -3 -56 -5z" />
<glyph unicode="&#xed;" horiz-adv-x="257" d="M8 408l148 30l17 -17q-21 -165 -21 -383q46 8 83 26l11 -19q-31 -19 -82.5 -37t-72.5 -18l-17 17q21 150 21 388l-29 -3q-15 -3 -56 -5zM111 569l123 185q23 -23 61 -43l-161 -158z" />
<glyph unicode="&#xee;" horiz-adv-x="256" d="M-8 573l131 156h40l120 -156l-21 -20l-121 119l-130 -119zM8 408l148 30l17 -17q-21 -165 -21 -383q46 8 83 26l11 -19q-31 -19 -82.5 -37t-72.5 -18l-17 17q21 150 21 388l-29 -3q-15 -3 -56 -5z" />
<glyph unicode="&#xef;" horiz-adv-x="257" d="M8 408l148 30l17 -17q-21 -165 -21 -383q46 8 83 26l11 -19q-31 -19 -82.5 -37t-72.5 -18l-17 17q21 150 21 388l-29 -3q-15 -3 -56 -5zM17 585q5 42 5 54q1 6 1 17l66 14l16 -17q-5 -31 -5 -53q-1 -7 -1 -17l-65 -14zM170 585q2 14 5 54v17l66 14l17 -17q-5 -31 -5 -53 q-1 -7 -1 -17l-65 -14z" />
<glyph unicode="&#xf0;" horiz-adv-x="433" d="M34 173q0 57 26 117.5t77.5 104t113.5 43.5q35 0 63 -5q-16 100 -64 177q-60 -25 -118 -61l2 50q36 18 94 41q-46 57 -121 99l7 20q102 -28 169 -101q35 11 121 35l8 -19q-82 -30 -108 -41q88 -115 88 -302q0 -149 -58.5 -245t-167.5 -96q-67 0 -99.5 52.5t-32.5 130.5z M97 215q0 -105 63 -175h88q29 17 51 93t22 145v45q0 28 -1 45q-72 24 -122 24q-19 0 -29 -5q-30 -21 -51 -67t-21 -105z" />
<glyph unicode="&#xf1;" horiz-adv-x="513" d="M3 408l148 30l16 -17q0 -16 -7 -72.5t-12 -69.5l8 -2q46 60 103.5 103.5t116.5 57.5l37 -17q12 -47 12 -114q0 -46 -7 -137.5t-7 -131.5q46 8 83 26l10 -19q-28 -19 -79 -37t-71 -18l-18 17q23 176 23 268q0 66 -8 103q-51 0 -124.5 -66t-73.5 -123v-189h-78 q21 127 21 285q0 72 -6 110l-29 -3q-15 -3 -56 -5zM126 591l88 97h29q71 -43 142 -56q13 12 64 56l15 -15l-93 -101h-31q-68 23 -126 68q-18 -16 -74 -64z" />
<glyph unicode="&#xf2;" horiz-adv-x="422" d="M34 173q0 60 26 120t79 102.5t120 42.5q123 0 123 -186q0 -57 -24 -115.5t-75 -102.5t-116 -44q-68 0 -100.5 52.5t-32.5 130.5zM97 215q0 -107 63 -175h89q29 21 50.5 67.5t21.5 104.5q0 106 -64 175h-88q-30 -21 -51 -67t-21 -105zM112 705q38 29 58 49l132 -182 l-24 -19z" />
<glyph unicode="&#xf3;" horiz-adv-x="422" d="M34 173q0 60 26 120t79 102.5t120 42.5q123 0 123 -186q0 -57 -24 -115.5t-75 -102.5t-116 -44q-68 0 -100.5 52.5t-32.5 130.5zM97 215q0 -107 63 -175h89q29 21 50.5 67.5t21.5 104.5q0 106 -64 175h-88q-30 -21 -51 -67t-21 -105zM226 569l123 185q23 -23 61 -43 l-161 -158z" />
<glyph unicode="&#xf4;" horiz-adv-x="422" d="M34 173q0 60 26 120t79 102.5t120 42.5q123 0 123 -186q0 -57 -24 -115.5t-75 -102.5t-116 -44q-68 0 -100.5 52.5t-32.5 130.5zM97 215q0 -107 63 -175h89q29 21 50.5 67.5t21.5 104.5q0 106 -64 175h-88q-30 -21 -51 -67t-21 -105zM103 573l131 156h40l120 -156 l-21 -20l-121 119l-130 -119z" />
<glyph unicode="&#xf5;" horiz-adv-x="422" d="M34 173q0 60 26 120t79 102.5t120 42.5q123 0 123 -186q0 -57 -24 -115.5t-75 -102.5t-116 -44q-68 0 -100.5 52.5t-32.5 130.5zM86 591l88 97h29q71 -43 142 -56q13 12 64 56l15 -15l-93 -101h-31q-68 23 -126 68q-18 -16 -74 -64zM97 215q0 -107 63 -175h89 q29 21 50.5 67.5t21.5 104.5q0 106 -64 175h-88q-30 -21 -51 -67t-21 -105z" />
<glyph unicode="&#xf6;" horiz-adv-x="422" d="M34 173q0 60 26 120t79 102.5t120 42.5q123 0 123 -186q0 -57 -24 -115.5t-75 -102.5t-116 -44q-68 0 -100.5 52.5t-32.5 130.5zM97 215q0 -107 63 -175h89q29 21 50.5 67.5t21.5 104.5q0 106 -64 175h-88q-30 -21 -51 -67t-21 -105zM130 585q5 42 5 54q1 6 1 17l66 14 l16 -17q-5 -31 -5 -53q-1 -7 -1 -17l-65 -14zM283 585q2 14 5 54v17l66 14l17 -17q-5 -31 -5 -53q-1 -7 -1 -17l-65 -14z" />
<glyph unicode="&#xf7;" horiz-adv-x="579" d="M61 292v48h460v-48h-460zM236 104q1 9 5 57q0 13 1 18l71 15l18 -18q-3 -21 -6 -56q-1 -10 0 -18l-71 -16zM248 456q1 9 5 57q0 13 1 18l71 15l18 -18q-3 -21 -6 -56q-1 -10 0 -18l-71 -16z" />
<glyph unicode="&#xf8;" horiz-adv-x="465" d="M-22 -31l99 104q-17 41 -17 102q0 97 63 183t162 86q63 0 95 -55l80 83l24 -23l-90 -93q14 -48 14 -100q0 -42 -15 -88t-41 -86t-68.5 -66t-92.5 -26q-65 0 -98 52l-93 -96zM122 218q0 -47 11 -87l191 199q-13 32 -41 62h-88q-30 -19 -51.5 -66.5t-21.5 -107.5zM146 98 q11 -25 40 -57h87q30 19 51.5 66.5t21.5 107.5q0 40 -10 80z" />
<glyph unicode="&#xf9;" horiz-adv-x="518" d="M6 408l148 30l16 -17q-2 -26 -9 -83t-11 -102t-4 -84q0 -58 10 -102q33 0 79 27.5t82.5 73t36.5 88.5l3 156l-30 -3q-17 -3 -56 -5l-1 21l147 30l18 -17q-13 -94 -20 -278q-1 -24 -1 -76v-29q46 9 83 26l10 -19q-19 -13 -51 -26t-60 -21t-40 -8l-17 17q13 110 20 142 l-8 2q-46 -61 -103 -103.5t-117 -57.5l-37 17q-12 47 -12 111q0 37 6.5 121.5t6.5 120.5q0 17 -2 35l-30 -3q-14 -3 -55 -5zM135 705q38 29 58 49l132 -182l-24 -19z" />
<glyph unicode="&#xfa;" horiz-adv-x="518" d="M6 408l148 30l16 -17q-2 -26 -9 -83t-11 -102t-4 -84q0 -58 10 -102q33 0 79 27.5t82.5 73t36.5 88.5l3 156l-30 -3q-17 -3 -56 -5l-1 21l147 30l18 -17q-13 -94 -20 -278q-1 -24 -1 -76v-29q46 9 83 26l10 -19q-19 -13 -51 -26t-60 -21t-40 -8l-17 17q13 110 20 142 l-8 2q-46 -61 -103 -103.5t-117 -57.5l-37 17q-12 47 -12 111q0 37 6.5 121.5t6.5 120.5q0 17 -2 35l-30 -3q-14 -3 -55 -5zM240 569l123 185q23 -23 61 -43l-161 -158z" />
<glyph unicode="&#xfb;" horiz-adv-x="518" d="M6 408l148 30l16 -17q-2 -26 -9 -83t-11 -102t-4 -84q0 -58 10 -102q33 0 79 27.5t82.5 73t36.5 88.5l3 156l-30 -3q-17 -3 -56 -5l-1 21l147 30l18 -17q-13 -94 -20 -278q-1 -24 -1 -76v-29q46 9 83 26l10 -19q-19 -13 -51 -26t-60 -21t-40 -8l-17 17q13 110 20 142 l-8 2q-46 -61 -103 -103.5t-117 -57.5l-37 17q-12 47 -12 111q0 37 6.5 121.5t6.5 120.5q0 17 -2 35l-30 -3q-14 -3 -55 -5zM136 573l131 156h40l120 -156l-21 -20l-121 119l-130 -119z" />
<glyph unicode="&#xfc;" horiz-adv-x="518" d="M6 408l148 30l16 -17q-2 -26 -9 -83t-11 -102t-4 -84q0 -58 10 -102q33 0 79 27.5t82.5 73t36.5 88.5l3 156l-30 -3q-17 -3 -56 -5l-1 21l147 30l18 -17q-13 -94 -20 -278q-1 -24 -1 -76v-29q46 9 83 26l10 -19q-19 -13 -51 -26t-60 -21t-40 -8l-17 17q13 110 20 142 l-8 2q-46 -61 -103 -103.5t-117 -57.5l-37 17q-12 47 -12 111q0 37 6.5 121.5t6.5 120.5q0 17 -2 35l-30 -3q-14 -3 -55 -5zM159 585q5 42 5 54q1 6 1 17l66 14l16 -17q-5 -31 -5 -53q-1 -7 -1 -17l-65 -14zM312 585q2 14 5 54v17l66 14l17 -17q-5 -31 -5 -53q-1 -7 -1 -17 l-65 -14z" />
<glyph unicode="&#xfd;" horiz-adv-x="440" d="M-13 405l124 33l22 -9q7 -128 50 -246q22 -66 43 -112h9l47 100q54 117 54 205q0 22 -5 40l82 22q2 -6 2 -30q0 -41 -21.5 -95t-77.5 -156l-85 -156q-5 -8 -24 -42t-26.5 -46.5t-25 -41.5t-28 -44t-26.5 -35.5t-30 -34t-29 -23.5l-46 67q61 35 108.5 78t89.5 111 q-99 211 -130 402l-75 -8zM189 569l123 185q23 -23 61 -43l-161 -158z" />
<glyph unicode="&#xfe;" horiz-adv-x="440" d="M0 725l148 30l16 -17q-2 -2 -5.5 -57t-10 -176t-10.5 -189l8 -2q78 94 187 124l42 -17q28 -59 28 -126q0 -117 -74 -211t-169 -94q-19 0 -37 2l-5 -215l29 3q8 0 28 2t28 3l2 -21l-148 -30l-17 17q35 378 47 961l-29 -4l-56 -4zM125 51q34 -12 70 -12q68 0 106 60.5 t38 143.5q0 77 -31 135q-51 0 -113.5 -58.5t-65.5 -136.5z" />
<glyph unicode="&#xff;" horiz-adv-x="440" d="M-13 405l124 33l22 -9q7 -128 50 -246q22 -66 43 -112h9l47 100q54 117 54 205q0 22 -5 40l82 22q2 -6 2 -30q0 -41 -21.5 -95t-77.5 -156l-85 -156q-5 -8 -24 -42t-26.5 -46.5t-25 -41.5t-28 -44t-26.5 -35.5t-30 -34t-29 -23.5l-46 67q61 35 108.5 78t89.5 111 q-99 211 -130 402l-75 -8zM131 585q5 42 5 54q1 6 1 17l66 14l16 -17q-5 -31 -5 -53q-1 -7 -1 -17l-65 -14zM284 585q2 14 5 54v17l66 14l17 -17q-5 -31 -5 -53q-1 -7 -1 -17l-65 -14z" />
<glyph unicode="&#x152;" horiz-adv-x="1008" d="M47 336q0 156 92.5 256.5t239.5 100.5q77 0 138.5 -39.5t97.5 -104.5l5 124q78 0 142.5 -0.5t72.5 -0.5q71 0 136 7l-15 -165h-31l-13 110l-215 15q-3 -31 -5.5 -88.5t-3.5 -68.5l-4 -110l208 11l-5 -62q-25 4 -205 17l-9 -300l222 8l48 103h32l-38 -159q-56 2 -175 8.5 t-165 6.5l3 85q-91 -104 -223 -104q-82 0 -146.5 30t-103.5 80.5t-59.5 112t-20.5 127.5zM138 347q0 -84 26.5 -156.5t83 -120.5t133.5 -48q104 0 165 82.5t61 219.5q0 142 -65 237.5t-166 95.5q-42 0 -81 -14.5t-76 -47.5t-59 -96.5t-22 -151.5z" />
<glyph unicode="&#x153;" horiz-adv-x="558" d="M34 173q0 60 26 120t79 102.5t120 42.5q52 0 83 -37q51 37 113 37q47 0 69 -22l-1 -58q-21 -32 -53 -62q-74 -68 -176 -97q5 -101 46 -148q67 10 163 83l13 -18q-100 -91 -195 -126l-37 17l-14 16q-48 -33 -104 -33q-67 0 -99.5 52.5t-32.5 130.5zM97 215q0 -105 63 -175 h99q-32 51 -32 127q0 103 60 181q-11 20 -30 39h-88q-30 -21 -51 -67t-21 -105zM294 225q92 40 139 93q23 26 33 48q-43 25 -92 25q-10 0 -14 -1q-61 -49 -66 -165z" />
<glyph unicode="&#x178;" horiz-adv-x="607" d="M-11 650v28q56 -7 108 -7q56 0 123 7v-28q-19 -3 -42 -4t-31 -2l172 -304h8l165 289l-73 21v28l24 -4q48 -3 72 -3q52 0 119 7v-28q-29 -4 -69 -6l-221 -347l-8 -247l71 -22v-28l-26 3q-64 4 -74 4q-54 0 -121 -7v28q68 6 73 6l6 262l-193 333zM175 772q5 42 5 54 q1 6 1 17l66 14l16 -17q-5 -31 -5 -53q-1 -7 -1 -16l-65 -15zM345 772q5 42 5 54q1 6 1 17l65 14l17 -17q-5 -31 -5 -53q-1 -7 -1 -16l-65 -15z" />
<glyph unicode="&#x2c6;" horiz-adv-x="391" d="M50 573l131 156h40l120 -156l-21 -20l-121 119l-130 -119z" />
<glyph unicode="&#x2dc;" horiz-adv-x="438" d="M50 591l88 97h29q71 -43 142 -56q13 12 64 56l15 -15l-93 -101h-31q-68 23 -126 68q-18 -16 -74 -64z" />
<glyph unicode="&#x2000;" horiz-adv-x="470" />
<glyph unicode="&#x2001;" horiz-adv-x="941" />
<glyph unicode="&#x2002;" horiz-adv-x="470" />
<glyph unicode="&#x2003;" horiz-adv-x="941" />
<glyph unicode="&#x2004;" horiz-adv-x="313" />
<glyph unicode="&#x2005;" horiz-adv-x="235" />
<glyph unicode="&#x2006;" horiz-adv-x="156" />
<glyph unicode="&#x2007;" horiz-adv-x="156" />
<glyph unicode="&#x2008;" horiz-adv-x="117" />
<glyph unicode="&#x2009;" horiz-adv-x="188" />
<glyph unicode="&#x200a;" horiz-adv-x="52" />
<glyph unicode="&#x2010;" horiz-adv-x="414" d="M66 210l2 56h276l-2 -56h-276z" />
<glyph unicode="&#x2011;" horiz-adv-x="414" d="M66 210l2 56h276l-2 -56h-276z" />
<glyph unicode="&#x2012;" horiz-adv-x="414" d="M66 210l2 56h276l-2 -56h-276z" />
<glyph unicode="&#x2013;" horiz-adv-x="583" d="M66 210l2 56h446l-2 -56h-446z" />
<glyph unicode="&#x2014;" horiz-adv-x="750" d="M66 210l2 56h613l-2 -56h-613z" />
<glyph unicode="&#x2018;" horiz-adv-x="185" d="M50 528q4 104 127 231l15 -15q-51 -72 -51 -174q0 -13 2 -45l-74 -16z" />
<glyph unicode="&#x2019;" horiz-adv-x="177" d="M45 524q51 72 51 174q0 13 -2 45l74 16l19 -19q-4 -104 -127 -231z" />
<glyph unicode="&#x201a;" horiz-adv-x="198" d="M-3 -137q50 76 50 174q0 13 -2 45l75 16l19 -19q-7 -105 -127 -231z" />
<glyph unicode="&#x201c;" horiz-adv-x="333" d="M50 528q4 104 127 231l15 -15q-51 -72 -51 -174q0 -13 2 -45l-74 -16zM199 528q7 105 127 231l15 -15q-50 -77 -50 -174q0 -6 0.5 -21.5t0.5 -23.5l-74 -16z" />
<glyph unicode="&#x201d;" horiz-adv-x="325" d="M45 524q51 72 51 174q0 13 -2 45l74 16l19 -19q-4 -104 -127 -231zM194 524q51 77 51 174q0 13 -2 45l74 16l19 -19q-7 -105 -127 -231z" />
<glyph unicode="&#x201e;" horiz-adv-x="347" d="M-3 -137q50 76 50 174q0 13 -2 45l75 16l19 -19q-7 -105 -127 -231zM146 -137q50 76 50 174q0 13 -2 45l75 16l19 -19q-7 -105 -127 -231z" />
<glyph unicode="&#x2022;" horiz-adv-x="305" d="M70 340q0 35 24 59.5t60 24.5q35 0 59.5 -24.5t24.5 -59.5t-24.5 -59.5t-59.5 -24.5q-36 0 -60 24.5t-24 59.5z" />
<glyph unicode="&#x202f;" horiz-adv-x="188" />
<glyph unicode="&#x2039;" horiz-adv-x="326" d="M24 255l255 224l16 -15l-163 -209l148 -198l-15 -15z" />
<glyph unicode="&#x203a;" horiz-adv-x="325" d="M29 57l162 198l-147 209l16 15l239 -224l-254 -213z" />
<glyph unicode="&#x205f;" horiz-adv-x="235" />
<glyph unicode="&#x20ac;" horiz-adv-x="645" d="M33 254l2 50h96v18q0 12 2 44q-52 -1 -96 -6l2 50h100q23 129 112.5 206t198.5 77q81 0 156 -28l-13 -163h-31l-11 112q-43 43 -111 43q-78 0 -140 -67t-74 -180h330l-13 -34q-31 -1 -101 -1q-178 -3 -219 -5v-19q0 -32 1 -47h295l-13 -34h-86q-134 -3 -192 -5 q19 -124 82.5 -181t144.5 -57q57 0 125 31l9 -28q-67 -44 -158 -44q-119 0 -200 72.5t-96 202.5l-51 -3t-51 -4z" />
<glyph unicode="&#xe000;" horiz-adv-x="440" d="M0 0v440h440v-440h-440z" />
</font>
</defs>
</svg>
