<?xml version="1.0" standalone="no"?>
<!DOCTYPE svg PUBLIC "-//W3C//DTD SVG 1.1//EN" "http://www.w3.org/Graphics/SVG/1.1/DTD/svg11.dtd" >
<svg xmlns="http://www.w3.org/2000/svg">
<metadata></metadata>
<defs>
<font id="communistitalic" horiz-adv-x="578" >
<font-face units-per-em="1000" ascent="800" descent="-200" />
<missing-glyph horiz-adv-x="333" />
<glyph horiz-adv-x="1000" />
<glyph horiz-adv-x="1000" />
<glyph unicode="&#xd;" horiz-adv-x="333" />
<glyph unicode=" "  horiz-adv-x="333" />
<glyph unicode="&#x09;" horiz-adv-x="333" />
<glyph unicode="&#xa0;" horiz-adv-x="333" />
<glyph unicode="!" horiz-adv-x="362" d="M194 124q28 0 46 -19t16 -47t-22.5 -47.5t-48.5 -19.5t-46 19.5t-16 47.5t22.5 47t48.5 19zM298 658q-3 -34 -75 -431h-43q-17 397 -15 431q2 28 22.5 47t48.5 19t46 -19t16 -47z" />
<glyph unicode="&#x22;" horiz-adv-x="437" d="M239 747l-5 -74l-31 -122h-48l13 196h71zM386 747l-6 -74l-30 -122h-49l13 196h72z" />
<glyph unicode="$" horiz-adv-x="570" d="M338 276l-15 -218q37 11 61.5 41t27.5 70q5 68 -74 107zM297 452l15 211q-78 -19 -83 -103q-4 -68 68 -108zM262 -58l3 50q-109 6 -175 58l7 106h67l-4 -59q14 -11 30 -19q39 -20 80 -24l17 245q-86 36 -119 70q-55 56 -48 155q6 83 55.5 134.5t140.5 60.5l4 50h53 l-4 -49q108 -6 157 -53l-6 -89h-67l3 44q-8 11 -19 19q-28 21 -71 25l-17 -239q94 -41 125 -69q59 -53 53 -145q-7 -103 -72 -162q-55 -49 -136 -58l-4 -51h-53z" />
<glyph unicode="%" horiz-adv-x="833" d="M591 324q84 0 119 -57q25 -43 21 -109q-5 -72 -30 -109q-39 -58 -133 -58q-141 0 -141 137q0 13 1 30q4 66 37 109q43 57 126 57zM651 158q2 24 2 36q0 82 -65 82q-47 0 -65 -40q-11 -24 -15 -78q-2 -24 -2 -36q0 -82 65 -82q47 0 65 40q11 24 15 78zM260 -18l-47 22 l389 725l47 -22zM294 720q83 0 118 -58q25 -42 21 -109q-5 -72 -29 -109q-39 -57 -133 -57q-141 0 -141 134q0 14 1 32q5 67 37 109q42 58 126 58zM353 553q2 26 2 38q0 80 -65 80q-47 0 -65 -40q-10 -23 -14 -78q-2 -24 -2 -36q0 -81 65 -81q47 0 65 39q10 23 14 78z" />
<glyph unicode="'" horiz-adv-x="285" d="M239 747l-5 -74l-31 -122h-48l13 196h71z" />
<glyph unicode="(" horiz-adv-x="378" d="M114 267q13 193 76 318q68 135 167 135l-4 -53q-57 0 -88 -134q-21 -90 -33 -266q-8 -108 -8 -178q0 -222 73 -222l-4 -54q-88 0 -137 108q-45 100 -45 265q0 39 3 81z" />
<glyph unicode=")" horiz-adv-x="378" d="M59 -187l4 54q57 0 88 133q21 90 33 267q8 108 8 178q0 222 -73 222l4 53q88 0 137 -108q45 -100 45 -264q0 -40 -3 -81q-13 -193 -76 -319q-68 -135 -167 -135z" />
<glyph unicode="*" horiz-adv-x="506" d="M335 606l50 -97l-48 -26l-48 99l-61 -98l-45 27l63 95l-111 -2l4 56l111 -3l-51 96l50 27l47 -98l62 98l44 -27l-64 -96l112 2l-4 -55z" />
<glyph unicode="+" horiz-adv-x="466" d="M286 373h137l-3 -53h-138l-10 -138h-53l10 138h-138l4 53h137l10 138h53z" />
<glyph unicode="," horiz-adv-x="333" d="M152 -9q-26 0 -40 19t-12 48q2 28 22.5 47t48.5 19q34 0 54 -22q21 -25 18 -69q-7 -105 -116 -158l-22 36q23 13 39 28q40 34 42 70q-14 -18 -34 -18z" />
<glyph unicode="-" horiz-adv-x="385" d="M307 231h-196l5 71h196z" />
<glyph unicode="." horiz-adv-x="330" d="M178 124q28 0 46 -19t16 -47t-22.5 -47.5t-48.5 -19.5t-46 19.5t-16 47.5t23 47t48 19z" />
<glyph unicode="/" horiz-adv-x="382" d="M79 -188l-50 15l321 901l51 -15z" />
<glyph unicode="0" horiz-adv-x="666" d="M381 720q120 0 176 -65q60 -69 60 -226q0 -34 -3 -73q-14 -199 -85 -284q-66 -81 -199 -81q-120 0 -176 65q-60 69 -60 226q0 35 3 74q14 198 85 284q66 80 199 80zM492 356q4 58 4 103q0 109 -27.5 158.5t-91.5 49.5q-76 0 -112 -74q-33 -70 -45 -237q-4 -60 -4 -105 q0 -109 27 -158t91 -49q76 0 112 74q34 70 46 238z" />
<glyph unicode="1" horiz-adv-x="410" d="M271 53h80l-3 -53h-283l4 53h85l42 605h-85l4 53h202z" />
<glyph unicode="2" d="M432 102l4 54h66l-10 -156h-432l4 58q67 71 135 141q93 101 142 177q66 103 66 180q0 111 -93 111q-79 0 -119 -53l-5 -58h-66l7 105q62 59 204 59q113 0 163 -55q37 -41 33 -97q-8 -115 -98 -213q-127 -127 -254 -253h253z" />
<glyph unicode="3" horiz-adv-x="586" d="M402 529q10 138 -93 138q-78 0 -119 -53l-4 -58h-67l8 105q60 59 186 59q114 0 166 -45t45 -146q-9 -128 -111 -165q115 -24 105 -173q-7 -95 -77 -147.5t-179 -52.5q-126 0 -196 59l8 106h66l-4 -59q51 -53 130 -53q54 0 91 44q34 41 39 103q5 61 -27 104t-87 43h-56 l4 53h60q102 0 112 138z" />
<glyph unicode="4" horiz-adv-x="631" d="M334 249l21 296l-245 -296h224zM581 196h-133l-10 -143h67l-4 -53h-251l4 53h66l10 143h-292l3 53l390 471h54l-33 -471h133z" />
<glyph unicode="5" horiz-adv-x="612" d="M169 711h369l-11 -155h-66l3 53h-235l-14 -191h83q264 0 250 -202q-8 -112 -80 -170q-67 -55 -178 -55q-126 0 -196 59l8 106h66l-4 -59q51 -53 125 -53q58 0 95 44q35 40 40 103q5 72 -29 116t-102 44h-149z" />
<glyph unicode="6" horiz-adv-x="641" d="M210 218q3 -93 29.5 -133.5t86.5 -40.5q137 0 137 212q0 135 -113 135q-127 0 -140 -173zM583 218q-7 -110 -75 -168.5t-186 -58.5q-113 0 -169 64q-64 72 -64 232q0 33 3 69q14 199 92 286q70 78 207 78q110 0 189 -48l-8 -116h-66l4 65q-48 46 -131 46 q-76 0 -112.5 -65t-49.5 -217q52 59 137 59q121 0 177 -52q60 -55 52 -174z" />
<glyph unicode="7" horiz-adv-x="531" d="M131 9l302 600h-261l-4 -53h-66l10 155h429l-3 -53l-348 -676z" />
<glyph unicode="8" horiz-adv-x="600" d="M462 561q8 106 -101 106q-113 0 -120 -98q-3 -43 29 -77q23 -25 79 -55q109 64 113 124zM210 359q-91 68 -82 194q4 60 48 105q61 62 176 62q109 0 155 -53q36 -41 31 -107q-6 -85 -119 -160q68 -37 99 -75q42 -51 37 -121q-6 -83 -58 -140q-68 -73 -199 -73 q-233 0 -220 193q7 97 132 175zM153 180q-3 -45 17 -78q32 -49 112 -49q150 0 158 112q4 55 -48 93q-11 8 -114 60q-120 -70 -125 -138z" />
<glyph unicode="9" horiz-adv-x="641" d="M474 493q-2 92 -29 133t-87 41q-135 0 -135 -212q0 -135 111 -135q127 0 140 173zM102 493q8 110 75.5 168.5t184.5 58.5q113 0 169 -64q63 -73 63 -233q0 -32 -2 -67q-14 -200 -92 -287q-70 -78 -207 -78q-110 0 -189 48l8 117h67l-5 -66q49 -46 132 -46q76 0 112 65 t49 217q-51 -59 -137 -59q-229 0 -229 197q0 14 1 29z" />
<glyph unicode=":" horiz-adv-x="329" d="M175 124q28 0 46 -19t16 -47t-23 -47.5t-48 -19.5q-28 0 -46 19.5t-16 47.5t22.5 47t48.5 19zM204 542q28 0 46 -19.5t16 -46.5q-2 -28 -22.5 -47.5t-48.5 -19.5t-46 19.5t-16 47.5q2 27 22.5 46.5t48.5 19.5z" />
<glyph unicode=";" horiz-adv-x="329" d="M201 542q28 0 46 -19.5t16 -46.5q-2 -28 -22.5 -47.5t-48.5 -19.5t-46 19.5t-16 47.5q2 27 22.5 46.5t48.5 19.5zM152 -9q-26 0 -40 19t-12 48q2 28 22.5 47t48.5 19q34 0 54 -22q21 -25 18 -69q-7 -105 -116 -158l-22 36q23 13 39 28q40 34 42 70q-14 -18 -34 -18z" />
<glyph unicode="&#x3c;" horiz-adv-x="466" d="M180 109l-40 35l118 124l-100 125l44 35l117 -160z" />
<glyph unicode="=" horiz-adv-x="510" d="M432 236h-328l3 53h329zM444 404h-329l4 54h329z" />
<glyph unicode="?" horiz-adv-x="519" d="M220 124q28 0 46 -19t16 -47t-22.5 -47.5t-48.5 -19.5t-46 19.5t-16 47.5t22.5 47t48.5 19zM282 720q-103 0 -155 -52l-6 -90h67l4 66q24 18 86 18zM282 720q108 0 154 -40t46 -140q0 -20 -2 -42q-8 -107 -78 -165q-59 -49 -137 -49l-4 -53h-67l8 107h64q92 0 103 160 q2 30 2 51q0 63 -20 88t-73 25z" />
<glyph unicode="A" horiz-adv-x="676" d="M218 213l-56 -160h66l-4 -53h-195l4 53h66l218 605h-67l4 53h181l142 -658h67l-4 -53h-256l3 53h67l-34 160h-202zM408 267l-65 303l-106 -303h171z" />
<glyph unicode="B" horiz-adv-x="615" d="M67 0l3 53h67l43 605h-67l4 53h269q102 0 147 -41q49 -44 42 -141q-10 -132 -120 -165q39 -6 66 -25q64 -45 57 -148q-7 -91 -77 -141t-179 -50h-255zM279 391h66q98 0 108 138q9 129 -89 129h-66zM326 53q55 0 92 41q34 38 38 97q4 61 -29.5 104t-89.5 43h-62l-20 -285 h71z" />
<glyph unicode="C" horiz-adv-x="616" d="M389 720q125 0 201 -59l-7 -105h-67l4 58q-57 53 -135 53q-83 0 -124.5 -72.5t-53.5 -238.5q-3 -47 -3 -86q0 -120 32.5 -173t104.5 -53q78 0 143 53l4 59h67l-8 -106q-85 -59 -210 -59q-123 0 -185 65q-69 73 -69 236q0 30 2 64q14 197 97 286q73 78 207 78z" />
<glyph unicode="D" horiz-adv-x="676" d="M67 0l3 53h67l43 605h-67l4 53h273q124 0 185 -61q70 -71 70 -232q0 -29 -2 -62q-14 -197 -96 -282q-71 -74 -207 -74h-273zM344 53q84 0 124.5 68.5t52.5 234.5q3 47 3 85q0 117 -32.5 167t-105.5 50h-88l-43 -605h89z" />
<glyph unicode="E" horiz-adv-x="568" d="M255 53h167l5 80h67l-10 -133h-417l3 53h67l43 605h-67l4 53h413l-9 -133h-67l6 80h-162l-19 -267h124l4 53h67l-12 -160h-66l3 54h-124z" />
<glyph unicode="F" horiz-adv-x="532" d="M403 391l4 53h67l-12 -160h-66l3 54h-124l-20 -285h89l-4 -53h-273l3 53h67l43 605h-67l4 53h424l-9 -133h-67l6 80h-173l-19 -267h124z" />
<glyph unicode="G" horiz-adv-x="645" d="M389 720q125 0 201 -59l-7 -105h-67l4 58q-57 53 -135 53q-83 0 -124.5 -72.5t-53.5 -238.5q-3 -47 -3 -86q0 -120 32.5 -173t104.5 -53q71 0 113 40l14 205h-66l3 53h185l-21 -292q-107 -59 -232 -59q-123 0 -185 65q-69 73 -69 236q0 30 2 64q14 197 97 286 q73 78 207 78z" />
<glyph unicode="H" horiz-adv-x="780" d="M275 338l-20 -285h67l-4 -53h-251l3 53h67l43 605h-67l4 53h251l-4 -53h-66l-19 -267h278l18 267h-66l3 53h252l-4 -53h-67l-43 -605h67l-4 -53h-251l4 53h67l20 285h-278z" />
<glyph unicode="I" horiz-adv-x="398" d="M262 53h66l-4 -53h-251l4 53h67l42 605h-66l4 53h251l-4 -53h-67z" />
<glyph unicode="J" horiz-adv-x="398" d="M262 53q-7 -99 -66 -167q-64 -73 -163 -73l4 54q94 0 107 186l42 605h-66l4 53h251l-4 -53h-67z" />
<glyph unicode="K" horiz-adv-x="695" d="M601 53h67l-4 -53h-172l-170 336l-51 -54l-16 -229h67l-4 -53h-251l3 53h67l43 605h-67l4 53h251l-4 -53h-66l-21 -294l271 294h-66l4 53h204l-4 -53h-68l-208 -226z" />
<glyph unicode="L" horiz-adv-x="520" d="M398 658h-100l-43 -605h167l5 80h67l-10 -133h-417l3 53h67l43 605h-67l4 53h284z" />
<glyph unicode="M" horiz-adv-x="897" d="M662 711h218l-3 -53h-67l-43 -605h67l-4 -53h-250l4 53h66l40 570l-225 -623h-98l-136 627l-41 -575h67l-4 -53h-186l3 53h67l43 606h-67l4 53h216l126 -569z" />
<glyph unicode="N" horiz-adv-x="705" d="M473 0l-245 588l-38 -535h67l-4 -53h-186l3 53h67l43 605h-67l4 53h191l237 -570l37 517h-67l4 53h186l-3 -53h-67l-47 -658h-115z" />
<glyph unicode="O" horiz-adv-x="676" d="M389 720q254 0 254 -301q0 -30 -2 -63q-14 -198 -97 -287q-73 -78 -207 -78q-123 0 -185 65q-69 73 -69 236q0 30 2 64q14 197 97 286q73 78 207 78zM518 356q3 48 3 87q0 118 -32 171t-104 53q-83 0 -124.5 -72.5t-53.5 -238.5q-3 -47 -3 -86q0 -120 32.5 -173 t104.5 -53q83 0 124 72.5t53 239.5z" />
<glyph unicode="P" horiz-adv-x="592" d="M279 391h22q82 0 119 37q32 32 37 101q9 129 -93 129h-66zM293 338h-18l-20 -285h107l-4 -53h-291l3 53h67l43 605h-67l4 53h251q120 0 169.5 -41.5t42.5 -140.5q-7 -104 -73 -147.5t-214 -43.5z" />
<glyph unicode="Q" horiz-adv-x="676" d="M518 356q3 48 3 87q0 118 -32 171t-104 53q-83 0 -124.5 -72.5t-53.5 -238.5q-3 -47 -3 -86q0 -120 32.5 -173t104.5 -53q83 0 124 72.5t53 239.5zM402 -4q2 -129 82 -129l-4 -54q-83 0 -136 53q-50 50 -61 129q-200 27 -200 297q0 31 2 64q14 197 97 286q73 78 207 78 q123 0 184 -65q70 -74 70 -237q0 -29 -2 -62q-23 -324 -239 -360z" />
<glyph unicode="R" horiz-adv-x="676" d="M275 338l-20 -285h107l-4 -53h-291l3 53h67l43 605h-67l4 53h251q120 0 169.5 -41.5t42.5 -140.5q-5 -67 -50 -117q-42 -45 -96 -56q67 -27 99 -142l45 -161h66l-4 -53h-181l-48 216q-8 37 -26 66q-33 56 -87 56h-23zM279 391h22q82 0 119 37q32 32 37 101q9 129 -93 129 h-66z" />
<glyph unicode="S" horiz-adv-x="537" d="M321 720q137 0 178 -53l-7 -89h-66l3 44q-32 45 -113 45q-45 0 -74 -27q-32 -29 -36 -80q-5 -68 73 -111q73 -37 146 -75q77 -57 70 -161q-8 -113 -83 -173q-62 -49 -150 -49q-124 0 -200 59l7 106h67l-4 -59q57 -44 127 -44q50 0 83 32.5t37 83.5q4 64 -72 103 q-136 69 -143 75q-75 61 -67 177q6 91 60 141q58 55 164 55z" />
<glyph unicode="T" horiz-adv-x="629" d="M478 0h-318l4 53h100l42 605l-162 -2l-5 -78h-67l9 133h576l-10 -133h-66l5 80h-162l-42 -605h100z" />
<glyph unicode="U" horiz-adv-x="702" d="M617 222q-16 -231 -258 -231q-121 0 -179 63q-54 59 -46 168l31 436h-67l4 53h251l-3 -53h-67l-31 -436q-13 -178 143 -178q155 0 168 178l31 436h-67l4 53h187l-4 -53h-67z" />
<glyph unicode="V" horiz-adv-x="656" d="M370 142l181 516h-67l4 53h196l-4 -53h-67l-237 -658h-98l-143 658h-66l3 53h257l-4 -53h-67z" />
<glyph unicode="W" horiz-adv-x="1032" d="M747 142l-112 516zM747 142l181 516h-67l4 53h195l-3 -53h-67l-237 -658h-98l-103 492l-176 -492h-98l-143 658h-66l3 53h257l-4 -53h-67l112 -516l181 516h-67l4 53h218l-4 -53h-67z" />
<glyph unicode="X" horiz-adv-x="678" d="M304 360l-124 298h-76l4 53h260l-4 -53h-53l79 -189l105 189h-53l3 53h223l-4 -53h-110l-139 -250l148 -355h63l-4 -53h-261l4 53h67l-103 247l-138 -247h67l-4 -53h-192l4 53h66z" />
<glyph unicode="Y" horiz-adv-x="646" d="M208 0l3 53h63l20 282l-135 323h-63l4 53h261l-4 -53h-67l103 -246l138 246h-67l4 53h192l-3 -53h-67l-178 -318l-20 -287h68l-4 -53h-248z" />
<glyph unicode="Z" horiz-adv-x="564" d="M523 658l-325 -605h225l6 80h67l-10 -133h-423l3 53l325 605h-193l-6 -80h-66l9 133h392z" />
<glyph unicode="[" horiz-adv-x="334" d="M147 771h178l-4 -53h-125l-63 -902h125l-4 -53h-178z" />
<glyph unicode="\" horiz-adv-x="391" d="M286 -188l-195 901l52 15l196 -901z" />
<glyph unicode="]" horiz-adv-x="334" d="M216 -237h-177l3 53h125l63 902h-125l4 53h178z" />
<glyph unicode="^" horiz-adv-x="400" d="M399 636l-37 -41l-117 109l-132 -109l-32 41l168 128z" />
<glyph unicode="_" horiz-adv-x="478" d="M414 -293h-400l5 71h400z" />
<glyph unicode="`" horiz-adv-x="356" d="M107 704l40 63l195 -128l-30 -47z" />
<glyph unicode="a" d="M310 489q-110 0 -126 -222q-4 -61 -4 -103q0 -88 21 -88q14 0 41 24q43 36 73 106q42 94 54 238l2 23q-28 22 -61 22zM80 253q9 128 50 190q68 99 238 99q53 0 108 -26l-25 -365q-1 -15 -1 -28q0 -70 23 -70q21 0 50 14l11 -45q-87 -31 -143 -31q-49 0 -49 88q0 25 5 54 l12 67h-7q-64 -209 -188 -209q-45 0 -64 29q-24 37 -24 139q0 41 4 94z" />
<glyph unicode="b" d="M263 44q112 0 127 223q4 58 4 99q0 92 -22 92q-13 0 -41 -24q-42 -37 -72 -106q-42 -95 -55 -239l-2 -22q28 -23 61 -23zM493 280q-9 -128 -50 -189q-67 -100 -237 -100q-54 0 -110 27l39 542q7 98 -14 98t-49 -14l-11 45q78 31 134 31q47 0 47 -77q0 -25 -4 -65 l-24 -245h7q65 209 188 209q45 0 64 -29q24 -37 24 -139q0 -41 -4 -94z" />
<glyph unicode="c" horiz-adv-x="476" d="M185 267q-2 -26 -2 -49q0 -167 81 -167q68 0 130 53l18 -46q-79 -67 -231 -67q-110 0 -110 207q0 32 3 69q9 133 84 204t209 71q38 0 73 -20l-32 -83q-50 45 -112 45q-58 0 -84 -63q-20 -47 -27 -154z" />
<glyph unicode="d" d="M310 489q-111 0 -126 -222q-4 -58 -4 -99q0 -92 22 -92q14 0 41 24q43 36 73 106q41 94 54 238l2 23q-29 22 -62 22zM481 578l-29 -427q-1 -16 -1 -30q0 -68 23 -68q21 0 50 14l10 -45q-86 -31 -143 -31q-48 0 -48 87q0 25 5 55l12 67h-7q-65 -209 -189 -209 q-44 0 -63 29q-24 37 -24 139q0 41 4 94q9 128 47 189q63 100 219 100q20 0 29 -4l2 22q9 98 -13 98q-21 0 -49 -14l-11 45q76 31 133 31q26 0 36 -18.5t10 -61.5q0 -23 -3 -62z" />
<glyph unicode="e" horiz-adv-x="493" d="M345 542q92 0 84 -115q-9 -123 -131 -183q-51 -25 -121 -35q-5 -59 12 -103q21 -55 68 -55q68 0 143 48l12 -38q-110 -70 -217 -70q-66 0 -97 42.5t-31 149.5q0 359 278 359zM275 489q-58 0 -77 -74q-9 -33 -17 -153q40 3 69 15q70 29 75 96q4 54 4 56q0 60 -54 60z" />
<glyph unicode="f" horiz-adv-x="436" d="M373 636q-56 31 -71 31q-36 0 -47 -40q-6 -18 -11 -94h110v-57h-114l-26 -387q-11 -160 -51 -267l-70 9l44 645h-65v57h70q5 79 31 118q45 69 162 69q23 0 73 -7z" />
<glyph unicode="g" d="M329 489q-110 0 -126 -222q-4 -59 -4 -100q0 -91 21 -91q14 0 41 24q43 36 73 106q42 94 54 238l2 23q-28 22 -61 22zM366 133l12 67h-6q-65 -209 -189 -209q-45 0 -63 29q-24 37 -24 137q0 42 4 96q9 128 50 189q67 100 237 100q53 0 108 -26l-21 -316 q-17 -251 -113 -337q-55 -50 -165 -50q-54 0 -98 23q-48 25 -45 61q4 58 84 75l14 -26q-18 -15 -18 -32q0 -54 107 -54q44 0 64 38q29 53 62 235z" />
<glyph unicode="h" horiz-adv-x="587" d="M188 0h-103l39 560q7 98 -13 98q-21 0 -50 -14l-10 45q77 31 134 31q47 0 47 -77q0 -25 -4 -65l-24 -245h7q64 209 188 209q46 0 67 -25q25 -30 25 -101q0 -18 -1 -38l-16 -227q-1 -16 -1 -30q0 -68 23 -68q21 0 50 14l10 -45q-86 -31 -143 -31q-46 0 -46 81q0 24 3 61 l15 209q2 25 2 44q0 72 -25 72q-14 0 -43 -24q-43 -37 -74 -106q-41 -95 -51 -239z" />
<glyph unicode="i" horiz-adv-x="378" d="M207 756q28 0 47 -19.5t19 -47.5t-19 -47t-47 -19t-47.5 19t-19.5 47t19.5 47.5t47.5 19.5zM116 133l23 249q9 98 -14 98q-21 0 -49 -14l-11 46q82 30 139 30q45 0 45 -78q0 -24 -3 -64l-21 -249q-1 -17 -1 -32q0 -66 23 -66q21 0 50 14l11 -45q-92 -31 -148 -31 q-48 0 -48 79q0 25 4 63z" />
<glyph unicode="j" horiz-adv-x="378" d="M231 756q28 0 47.5 -19.5t19.5 -47.5t-19.5 -47t-47.5 -19t-47.5 19t-19.5 47t19.5 47.5t47.5 19.5zM239 53q-19 -240 -217 -240l4 54q48 0 72 32q30 42 38 154l24 329q7 98 -14 98t-50 -14l-10 46q82 30 138 30q46 0 46 -78q0 -24 -3 -64z" />
<glyph unicode="k" horiz-adv-x="573" d="M228 578l-17 -249l185 207h91l-187 -208q8 2 15 2q50 0 79 -98l30 -100q24 -80 54 -80q17 0 42 14l11 -44q-86 -31 -137 -31q-19 0 -29 9q-21 19 -38 80l-31 110q-23 80 -56 80q-6 0 -12 -2q-12 -5 -24 -21l-16 -247h-102l39 560q7 98 -13 98q-22 0 -50 -14l-11 45 q78 31 134 31q26 0 36 -18.5t10 -61.5q0 -23 -3 -62z" />
<glyph unicode="l" horiz-adv-x="382" d="M111 133l34 427q8 98 -13 98t-50 -14l-10 45q82 31 138 31q46 0 46 -79q0 -24 -3 -63l-34 -427q-1 -16 -1 -30q0 -68 23 -68q21 0 50 14l11 -45q-91 -31 -148 -31q-46 0 -46 78q0 24 3 64z" />
<glyph unicode="m" horiz-adv-x="871" d="M495 378l-11 -45h7q65 209 189 209q45 0 67 -25q24 -30 24 -101q0 -18 -1 -38l-16 -227q-1 -15 -1 -29q0 -69 23 -69q22 0 50 14l11 -45q-87 -31 -143 -31q-47 0 -47 82q0 23 3 60l15 209q2 25 2 44q0 72 -25 72q-14 0 -43 -24q-43 -37 -74 -106q-41 -95 -51 -239l-6 -89 h-102l24 342q2 25 2 44q0 72 -25 72q-14 0 -42 -24q-43 -37 -73 -106q-42 -95 -53 -239l-7 -89h-102l27 382q7 98 -13 98q-22 0 -50 -14l-11 46q78 30 134 30q50 0 50 -71q0 -28 -7 -71l-11 -67h7q64 209 188 209q100 0 100 -98q0 -29 -9 -66z" />
<glyph unicode="n" horiz-adv-x="587" d="M188 0h-102l26 382q7 98 -13 98q-21 0 -50 -14l-10 46q77 30 134 30q51 0 51 -71q0 -29 -8 -71l-12 -67h7q65 209 189 209q45 0 67 -25q24 -30 24 -101q0 -18 -1 -38l-16 -227q-1 -15 -1 -29q0 -69 23 -69q22 0 50 14l11 -45q-87 -31 -143 -31q-47 0 -47 82q0 23 3 60 l15 209q2 25 2 44q0 72 -25 72q-14 0 -43 -24q-43 -37 -74 -106q-41 -95 -51 -239z" />
<glyph unicode="o" horiz-adv-x="551" d="M369 542q60 0 95 -59q36 -62 36 -171q0 -23 -2 -48q-10 -141 -74 -205q-72 -72 -233 -72q-60 0 -95.5 60.5t-35.5 168.5q0 23 2 48q10 142 74 206q72 72 233 72zM388 296q3 96 -16 140q-24 53 -89 53q-59 0 -84 -65q-21 -56 -26 -186q-4 -100 15 -144q23 -54 88 -54 q60 0 86 66q21 56 26 190z" />
<glyph unicode="p" d="M271 44q112 0 127 223q4 58 4 99q0 92 -22 92q-13 0 -41 -24q-42 -37 -72 -106q-42 -95 -55 -239l-2 -22q28 -23 61 -23zM91 -178l39 560q7 98 -13 98q-21 0 -50 -14l-11 46q78 30 135 30q49 0 49 -71q0 -28 -7 -71l-11 -67h7q65 209 188 209q45 0 64 -29q24 -37 24 -139 q0 -41 -4 -94q-9 -128 -47 -189q-63 -100 -219 -100q-19 0 -29 4l-13 -173h-102z" />
<glyph unicode="q" d="M324 489q-111 0 -127 -222q-4 -59 -4 -100q0 -91 22 -91q14 0 41 24q43 36 73 106q41 94 54 238l2 23q-28 22 -61 22zM94 253q9 128 50 189q67 100 237 100q54 0 109 -26l-37 -534q-1 -17 -1 -31q0 -60 24 -60q23 0 46 16l14 -45q-15 -8 -128 -30q-19 -3 -74 -19l15 143 l24 244h-7q-64 -209 -188 -209q-45 0 -64 29q-24 37 -24 139q0 41 4 94z" />
<glyph unicode="r" horiz-adv-x="449" d="M410 428q-33 30 -45 30q-38 0 -75 -55q-56 -85 -69 -270l-9 -133h-102l26 382q1 16 1 30q0 68 -23 68q-21 0 -50 -14l-10 46q86 30 134 30q52 0 52 -91q0 -21 -4 -41l-5 -26h7q63 158 147 158q43 0 67 -22z" />
<glyph unicode="s" horiz-adv-x="468" d="M364 425q-69 59 -127 59q-28 0 -46.5 -23.5t-20.5 -49.5q-3 -40 61 -68q100 -44 117 -57q62 -48 56 -137q-4 -57 -54 -100q-66 -58 -192 -58q-45 0 -120 45l43 88q82 -75 153 -75q33 0 54 28q16 22 18 45q3 51 -58 80q-110 51 -114 54q-60 45 -54 137q4 57 51 100 q53 49 131 49q104 0 143 -23z" />
<glyph unicode="t" horiz-adv-x="391" d="M315 34q-74 -43 -157 -43q-33 0 -49 20q-18 24 -18 84q0 17 1 38l25 347h-64v53h68l8 116l104 22l-10 -138h124v-53h-127l-25 -347q-1 -14 -1 -26q0 -52 35 -52q31 0 67 22z" />
<glyph unicode="u" horiz-adv-x="587" d="M400 533h102l-27 -382q-1 -15 -1 -29q0 -69 23 -69q21 0 50 14l11 -45q-87 -31 -143 -31q-48 0 -48 86q0 25 5 56l11 67h-7q-64 -209 -188 -209q-46 0 -67 25q-25 30 -25 102q0 17 1 38l16 226q7 98 -13 98q-21 0 -50 -14l-10 46q77 30 134 30q46 0 46 -79q0 -24 -3 -63 l-15 -209q-2 -24 -2 -44q0 -71 25 -71q14 0 42 24q43 36 73 106q42 94 53 238z" />
<glyph unicode="v" horiz-adv-x="548" d="M496 556q1 -67 0 -92q-5 -164 -96 -317q-92 -156 -191 -156q-103 0 -97 165l8 226q3 98 -16 98q-22 0 -50 -14l-12 46q76 30 133 30q32 0 42 -33q9 -29 6 -109l-7 -209q-4 -115 27 -115q14 0 42 24q42 36 70 105q38 95 43 239q0 8 -6 89z" />
<glyph unicode="w" horiz-adv-x="822" d="M484 402q-1 -94 8 -183q13 -143 44 -143q37 0 78 71q50 85 54 209q3 103 -21 191l104 26q16 -64 13 -153q-6 -155 -94 -291q-91 -138 -192 -138q-63 0 -74 126l-7 83h-7q-12 -42 -67 -116q-68 -93 -121 -93q-32 0 -61 30q-39 41 -36 121l10 240q4 98 -17 98t-49 -14 l-12 46q76 30 133 30q28 0 38.5 -22t10.5 -75q0 -18 -1 -45l-9 -209q-5 -115 35 -115q13 0 44 40q38 46 62 107q31 77 31 157q0 35 -2 153h109q-2 -40 -4 -131z" />
<glyph unicode="x" horiz-adv-x="543" d="M492 542q11 0 33 -11l-22 -45q-6 7 -11.5 7t-13.5 2t-12 2q-19 0 -39 -31l-111 -171l84 -171q30 -62 54 -62q10 0 34 14l16 -40q-84 -43 -134 -43q-15 0 -29 18.5t-44 79.5l-56 115l-134 -206l-71 -2l170 266l-69 156q-33 74 -51 74q-15 0 -23 -4l-7 34q20 8 90 18 q27 1 45 -13q25 -20 47 -74l43 -107l78 118q30 46 57 62t76 14z" />
<glyph unicode="y" horiz-adv-x="587" d="M514 533l-23 -333q-17 -251 -113 -337q-56 -50 -165 -50q-53 0 -97 23q-48 25 -45 61q4 58 83 75l14 -26q-18 -15 -18 -32q0 -54 107 -54q44 0 65 38q29 53 62 235l12 67h-7q-65 -209 -189 -209q-45 0 -67 25q-24 30 -24 102q0 17 1 38l16 226q7 98 -14 98t-49 -14 l-11 46q78 30 134 30q26 0 36 -18.5t10 -61.5q0 -23 -3 -62l-14 -209q-2 -24 -2 -42q0 -73 25 -73q14 0 43 24q43 36 74 105q41 95 51 239l6 89h102z" />
<glyph unicode="z" horiz-adv-x="533" d="M326 424l-287 -415l52 -18q15 27 51 27q27 0 96.5 -53.5t106.5 -53.5q111 0 145 139l-39 14q-37 -60 -45 -60q-35 0 -102.5 57t-104.5 57q-7 0 -21 -2l285 407l-53 21q-21 -33 -50 -33q-19 0 -77 17.5t-81 17.5q-105 0 -105 -99q0 -23 6 -45l48 6q-6 15 -6 27q0 19 17 19 q15 0 69 -17.5t73 -17.5q9 0 22 5z" />
<glyph unicode="{" horiz-adv-x="378" d="M114 267q13 193 76 318q68 135 167 135l-4 -53q-57 0 -88 -134q-21 -90 -33 -266q-8 -108 -8 -178q0 -222 73 -222l-4 -54q-88 0 -137 108q-45 100 -45 265q0 39 3 81z" />
<glyph unicode="|" horiz-adv-x="329" d="M132 -191l64 915h53l-64 -915h-53z" />
<glyph unicode="}" horiz-adv-x="378" d="M59 -187l4 54q57 0 88 133q21 90 33 267q8 108 8 178q0 222 -73 222l4 53q88 0 137 -108q45 -100 45 -264q0 -40 -3 -81q-13 -193 -76 -319q-68 -135 -167 -135z" />
<glyph unicode="~" horiz-adv-x="444" d="M444 691q-26 -81 -112 -81q-32 0 -74 31t-73 31q-45 0 -52 -42l-35 9q26 81 112 81q32 0 74 -31t73 -31q45 0 52 42z" />
<glyph unicode="&#xa1;" horiz-adv-x="362" d="M227 591q-28 0 -46 19.5t-16 47.5t22.5 47t48.5 19t46 -19t16 -47t-22.5 -47.5t-48.5 -19.5zM123 58q2 34 75 431h42q19 -397 16 -431q-2 -28 -22.5 -47.5t-48.5 -19.5t-46 19.5t-16 47.5z" />
<glyph unicode="&#xa8;" horiz-adv-x="552" d="M185 756q28 0 46 -19.5t16 -47.5t-22.5 -47t-48.5 -19t-46 19t-16 47t22.5 47.5t48.5 19.5zM459 756q28 0 46 -19.5t16 -47.5t-23 -47t-49 -19t-46 19t-16 47t23 47.5t49 19.5z" />
<glyph unicode="&#xa9;" horiz-adv-x="565" d="M196 298q-2 -33 -2 -57q0 -114 62 -114q52 0 104 33l22 307q-29 22 -74 22q-98 0 -112 -191zM555 533l-4 -53h-66l-31 -444q-7 -97 -62.5 -155.5t-129.5 -58.5q-103 0 -166 45l5 66h67l-2 -31q34 -26 96 -26q85 0 95 142l7 100q-64 -65 -149 -65q-128 0 -128 176 q0 23 2 55q8 119 43 174q52 84 184 84q8 0 45 -4.5t70 -4.5h124z" />
<glyph unicode="&#xad;" horiz-adv-x="385" d="M307 231h-196l5 71h196z" />
<glyph unicode="&#xb0;" horiz-adv-x="311" d="M220 756q34 0 57 -24.5t21 -59.5q-2 -34 -28.5 -59t-61.5 -25q-34 0 -57 24.5t-21 59.5q2 34 28.5 59t61.5 25zM164 672q-1 -21 12.5 -35.5t34.5 -14.5q20 0 36 14.5t17 35.5t-12.5 35.5t-33.5 14.5q-21 0 -37 -14.5t-17 -35.5z" />
<glyph unicode="&#xb1;" horiz-adv-x="469" d="M397 0h-329l4 53h329zM286 373h137l-3 -53h-138l-10 -138h-53l10 138h-138l4 53h137l10 138h53z" />
<glyph unicode="&#xb4;" horiz-adv-x="356" d="M131 592l-23 47l212 128l32 -63z" />
<glyph unicode="&#xbf;" horiz-adv-x="533" d="M353 586q-27 0 -45.5 19.5t-16.5 46.5q2 28 23 47.5t49 19.5t46 -19.5t16 -47.5q-2 -27 -23 -46.5t-49 -19.5zM296 48q61 0 85 18l5 66h67l-7 -90q-51 -52 -154 -52q-108 0 -154 40t-46 140q0 20 2 42q8 107 78 165q59 49 137 49l4 53h66l-7 -107h-65q-91 0 -102 -160 q-2 -30 -2 -51q0 -63 20 -88t73 -25z" />
<glyph unicode="&#xd7;" horiz-adv-x="466" d="M260 384l104 98l35 -38l-104 -97l90 -98l-40 -37l-91 97l-104 -97l-35 37l104 98l-90 97l40 38z" />
<glyph unicode="&#xdd;" horiz-adv-x="646" d="M208 0l3 53h63l20 282l-136 323h-62l4 53h260l-3 -53h-67l103 -246l137 246h-66l4 53h192l-4 -53h-66l-178 -318l-20 -287h68l-4 -53h-248z" />
<glyph unicode="&#xe0;" horiz-adv-x="558" d="M120 704l36 63l203 -128l-27 -47zM310 489q-110 0 -126 -222q-4 -61 -4 -103q0 -88 21 -88q14 0 41 24q43 36 73 106q42 94 54 238l2 23q-28 22 -61 22zM80 253q9 128 50 190q68 99 238 99q53 0 108 -26l-25 -365q-1 -15 -1 -28q0 -70 23 -70q21 0 50 14l11 -45 q-87 -31 -143 -31q-49 0 -49 88q0 25 5 54l12 67h-7q-64 -209 -188 -209q-45 0 -64 29q-24 37 -24 139q0 41 4 94z" />
<glyph unicode="&#xe1;" horiz-adv-x="558" d="M209 592l-27 47l203 128l37 -63zM310 489q-110 0 -126 -222q-4 -61 -4 -103q0 -88 21 -88q14 0 41 24q43 36 73 106q42 94 54 238l2 23q-28 22 -61 22zM80 253q9 128 50 190q68 99 238 99q53 0 108 -26l-25 -365q-1 -15 -1 -28q0 -70 23 -70q21 0 50 14l11 -45 q-87 -31 -143 -31q-49 0 -49 88q0 25 5 54l12 67h-7q-64 -209 -188 -209q-45 0 -64 29q-24 37 -24 139q0 41 4 94z" />
<glyph unicode="&#xe2;" horiz-adv-x="558" d="M430 636l-34 -41l-125 109l-124 -109l-35 41l159 128zM310 489q-110 0 -126 -222q-4 -61 -4 -103q0 -88 21 -88q14 0 41 24q43 36 73 106q42 94 54 238l2 23q-28 22 -61 22zM80 253q9 128 50 190q68 99 238 99q53 0 108 -26l-25 -365q-1 -15 -1 -28q0 -70 23 -70 q21 0 50 14l11 -45q-87 -31 -143 -31q-49 0 -49 88q0 25 5 54l12 67h-7q-64 -209 -188 -209q-45 0 -64 29q-24 37 -24 139q0 41 4 94z" />
<glyph unicode="&#xe3;" horiz-adv-x="558" d="M430 639l-35 -9q-8 42 -49 42q-31 0 -75.5 -31t-75.5 -31q-87 0 -107 81l36 9q7 -42 48 -42q32 0 76.5 31t75.5 31q86 0 106 -81zM310 489q-110 0 -126 -222q-4 -61 -4 -103q0 -88 21 -88q14 0 41 24q43 36 73 106q42 94 54 238l2 23q-28 22 -61 22zM80 253q9 128 50 190 q68 99 238 99q53 0 108 -26l-25 -365q-1 -15 -1 -28q0 -70 23 -70q21 0 50 14l11 -45q-87 -31 -143 -31q-49 0 -49 88q0 25 5 54l12 67h-7q-64 -209 -188 -209q-45 0 -64 29q-24 37 -24 139q0 41 4 94z" />
<glyph unicode="&#xe4;" horiz-adv-x="558" d="M150 756q28 0 47.5 -19.5t19.5 -47.5t-19.5 -47t-47.5 -19t-47 19t-19 47t19 47.5t47 19.5zM387 756q28 0 47.5 -19.5t19.5 -47.5t-19.5 -47t-47.5 -19t-47.5 19t-19.5 47t19.5 47.5t47.5 19.5zM310 489q-110 0 -126 -222q-4 -61 -4 -103q0 -88 21 -88q14 0 41 24 q43 36 73 106q42 94 54 238l2 23q-28 22 -61 22zM80 253q9 128 50 190q68 99 238 99q53 0 108 -26l-25 -365q-1 -15 -1 -28q0 -70 23 -70q21 0 50 14l11 -45q-87 -31 -143 -31q-49 0 -49 88q0 25 5 54l12 67h-7q-64 -209 -188 -209q-45 0 -64 29q-24 37 -24 139q0 41 4 94z " />
<glyph unicode="&#xe5;" horiz-adv-x="558" d="M258 756q35 0 59.5 -24.5t24.5 -59.5q0 -34 -24.5 -59t-59.5 -25q-34 0 -59 25t-25 59q0 35 25 59.5t59 24.5zM208 672q0 -21 15 -35.5t35 -14.5q21 0 35.5 14.5t14.5 35.5t-14.5 35.5t-35.5 14.5q-20 0 -35 -14.5t-15 -35.5zM310 489q-110 0 -126 -222q-4 -61 -4 -103 q0 -88 21 -88q14 0 41 24q43 36 73 106q42 94 54 238l2 23q-28 22 -61 22zM80 253q9 128 50 190q68 99 238 99q53 0 108 -26l-25 -365q-1 -15 -1 -28q0 -70 23 -70q21 0 50 14l11 -45q-87 -31 -143 -31q-49 0 -49 88q0 25 5 54l12 67h-7q-64 -209 -188 -209q-45 0 -64 29 q-24 37 -24 139q0 41 4 94z" />
<glyph unicode="&#xe6;" horiz-adv-x="511" d="M445 300q36 -12 86 -12q64 0 71 97q6 106 -68 106q-78 0 -89 -191zM709 381q-5 -80 -59 -117q-41 -30 -104 -30q-51 0 -104 20l-1 -14q-1 -16 -1 -31q0 -70 20 -115q23 -50 65 -50q51 0 145 36l10 -44q-78 -45 -181 -45q-101 0 -149 92q-26 -33 -66 -59q-52 -33 -101 -33 q-60 0 -88.5 35t-28.5 113q0 18 2 39q7 100 58.5 143t167.5 43q13 0 53 -9l4 58q-2 24 -18 44q-22 27 -57 27q-62 0 -91 -22l-4 -53h-66l5 80q61 53 164 53q110 0 128 -49q15 21 50.5 35t73.5 14q96 0 137.5 -37t35.5 -124zM334 141q-6 37 -2 126l1 21q-26 23 -43 23 q-61 0 -83 -25.5t-28 -107.5q-1 -19 -1 -34q0 -52 17 -67q10 -10 43 -10q16 0 44 21t52 53z" />
<glyph unicode="&#xe7;" horiz-adv-x="484" d="M185 267q-2 -26 -2 -49q0 -167 81 -167q68 0 130 53l18 -46q-13 -12 -31 -22q-42 -24 -99 -35l-12 -50q107 0 107 -68q0 -79 -91 -79q-47 0 -104 20l1 44q57 -26 93 -26q40 0 40 35q0 28 -27 35q-13 3 -81 3l22 78q-30 -2 -49 -2q-110 0 -110 207q0 32 3 69q9 133 84 204 t209 71q38 0 73 -20l-32 -83q-50 45 -112 45q-58 0 -84 -63q-20 -47 -27 -154z" />
<glyph unicode="&#xe8;" horiz-adv-x="522" d="M124 704l36 63l204 -128l-27 -47zM345 542q92 0 84 -115q-9 -123 -131 -183q-51 -25 -121 -35q-5 -59 12 -103q21 -55 68 -55q68 0 143 48l12 -38q-110 -70 -217 -70q-66 0 -97 42.5t-31 149.5q0 359 278 359zM275 489q-58 0 -77 -74q-9 -33 -17 -153q40 3 69 15 q70 29 75 96q4 54 4 56q0 60 -54 60z" />
<glyph unicode="&#xe9;" horiz-adv-x="522" d="M212 592l-27 47l203 128l37 -63zM345 542q92 0 84 -115q-9 -123 -131 -183q-51 -25 -121 -35q-5 -59 12 -103q21 -55 68 -55q68 0 143 48l12 -38q-110 -70 -217 -70q-66 0 -97 42.5t-31 149.5q0 359 278 359zM275 489q-58 0 -77 -74q-9 -33 -17 -153q40 3 69 15 q70 29 75 96q4 54 4 56q0 60 -54 60z" />
<glyph unicode="&#xea;" horiz-adv-x="504" d="M430 636l-34 -41l-125 109l-124 -109l-35 41l159 128zM345 542q92 0 84 -115q-9 -123 -131 -183q-51 -25 -121 -35q-5 -59 12 -103q21 -55 68 -55q68 0 143 48l12 -38q-110 -70 -217 -70q-66 0 -97 42.5t-31 149.5q0 359 278 359zM275 489q-58 0 -77 -74q-9 -33 -17 -153 q40 3 69 15q70 29 75 96q4 54 4 56q0 60 -54 60z" />
<glyph unicode="&#xeb;" horiz-adv-x="504" d="M146 756q28 0 47 -19.5t19 -47.5t-19 -47t-47 -19t-47.5 19t-19.5 47t19.5 47.5t47.5 19.5zM394 756q28 0 47 -19.5t19 -47.5t-19 -47t-47 -19t-47.5 19t-19.5 47t19.5 47.5t47.5 19.5zM345 542q92 0 84 -115q-9 -123 -131 -183q-51 -25 -121 -35q-5 -59 12 -103 q21 -55 68 -55q68 0 143 48l12 -38q-110 -70 -217 -70q-66 0 -97 42.5t-31 149.5q0 359 278 359zM275 489q-58 0 -77 -74q-9 -33 -17 -153q40 3 69 15q70 29 75 96q4 54 4 56q0 60 -54 60z" />
<glyph unicode="&#xec;" horiz-adv-x="383" d="M9 704l37 63l203 -128l-27 -47zM116 133l23 249q9 98 -14 98q-21 0 -49 -14l-11 46q82 30 139 30q45 0 45 -78q0 -24 -3 -64l-21 -249q-1 -17 -1 -32q0 -66 23 -66q21 0 50 14l11 -45q-92 -31 -148 -31q-48 0 -48 79q0 25 4 63z" />
<glyph unicode="&#xed;" horiz-adv-x="383" d="M141 592l-26 47l203 128l36 -63zM116 133l23 249q9 98 -14 98q-21 0 -49 -14l-11 46q82 30 139 30q45 0 45 -78q0 -24 -3 -64l-21 -249q-1 -17 -1 -32q0 -66 23 -66q21 0 50 14l11 -45q-92 -31 -148 -31q-48 0 -48 79q0 25 4 63z" />
<glyph unicode="&#xee;" horiz-adv-x="383" d="M335 636l-35 -41l-124 109l-124 -109l-35 41l159 128zM116 133l23 249q9 98 -14 98q-21 0 -49 -14l-11 46q82 30 139 30q45 0 45 -78q0 -24 -3 -64l-21 -249q-1 -17 -1 -32q0 -66 23 -66q21 0 50 14l11 -45q-92 -31 -148 -31q-48 0 -48 79q0 25 4 63z" />
<glyph unicode="&#xef;" horiz-adv-x="383" d="M75 756q28 0 47 -19.5t19 -47.5q0 -27 -21.5 -46.5t-49.5 -19.5q-27 0 -44.5 19t-17.5 47t19.5 47.5t47.5 19.5zM289 756q28 0 47.5 -19.5t19.5 -47.5q0 -27 -21.5 -46.5t-49.5 -19.5q-27 0 -44.5 19t-17.5 47t19 47.5t47 19.5zM116 133l23 249q9 98 -14 98 q-21 0 -49 -14l-11 46q82 30 139 30q45 0 45 -78q0 -24 -3 -64l-21 -249q-1 -17 -1 -32q0 -66 23 -66q21 0 50 14l11 -45q-92 -31 -148 -31q-48 0 -48 79q0 25 4 63z" />
<glyph unicode="&#xf1;" horiz-adv-x="644" d="M480 691q-20 -81 -107 -81q-31 0 -75.5 31t-75.5 31q-41 0 -49 -42l-35 9q20 81 106 81q32 0 76.5 -31t75.5 -31q41 0 48 42zM188 0h-102l26 382q7 98 -13 98q-21 0 -50 -14l-10 46q77 30 134 30q51 0 51 -71q0 -29 -8 -71l-12 -67h7q65 209 189 209q45 0 67 -25 q24 -30 24 -101q0 -18 -1 -38l-16 -227q-1 -15 -1 -29q0 -69 23 -69q22 0 50 14l11 -45q-87 -31 -143 -31q-47 0 -47 82q0 23 3 60l15 209q2 25 2 44q0 72 -25 72q-14 0 -43 -24q-43 -37 -74 -106q-41 -95 -51 -239z" />
<glyph unicode="&#xf2;" horiz-adv-x="560" d="M132 704l36 63l203 -128l-27 -47zM369 542q60 0 95 -59q36 -62 36 -171q0 -23 -2 -48q-10 -141 -74 -205q-72 -72 -233 -72q-60 0 -95.5 60.5t-35.5 168.5q0 23 2 48q10 142 74 206q72 72 233 72zM388 296q3 96 -16 140q-24 53 -89 53q-59 0 -84 -65q-21 -56 -26 -186 q-4 -100 15 -144q23 -54 88 -54q60 0 86 66q21 56 26 190z" />
<glyph unicode="&#xf3;" horiz-adv-x="560" d="M220 592l-27 47l203 128l36 -63zM369 542q60 0 95 -59q36 -62 36 -171q0 -23 -2 -48q-10 -141 -74 -205q-72 -72 -233 -72q-60 0 -95.5 60.5t-35.5 168.5q0 23 2 48q10 142 74 206q72 72 233 72zM388 296q3 96 -16 140q-24 53 -89 53q-59 0 -84 -65q-21 -56 -26 -186 q-4 -100 15 -144q23 -54 88 -54q60 0 86 66q21 56 26 190z" />
<glyph unicode="&#xf4;" horiz-adv-x="560" d="M439 636l-35 -41l-124 109l-124 -109l-35 41l159 128zM369 542q60 0 95 -59q36 -62 36 -171q0 -23 -2 -48q-10 -141 -74 -205q-72 -72 -233 -72q-60 0 -95.5 60.5t-35.5 168.5q0 23 2 48q10 142 74 206q72 72 233 72zM388 296q3 96 -16 140q-24 53 -89 53q-59 0 -84 -65 q-21 -56 -26 -186q-4 -100 15 -144q23 -54 88 -54q60 0 86 66q21 56 26 190z" />
<glyph unicode="&#xf5;" horiz-adv-x="560" d="M453 691q-20 -81 -106 -81q-32 0 -76 31t-75 31q-42 0 -49 -42l-36 9q20 81 107 81q31 0 75.5 -31t75.5 -31q41 0 49 42zM369 542q60 0 95 -59q36 -62 36 -171q0 -23 -2 -48q-10 -141 -74 -205q-72 -72 -233 -72q-60 0 -95.5 60.5t-35.5 168.5q0 23 2 48q10 142 74 206 q72 72 233 72zM388 296q3 96 -16 140q-24 53 -89 53q-59 0 -84 -65q-21 -56 -26 -186q-4 -100 15 -144q23 -54 88 -54q60 0 86 66q21 56 26 190z" />
<glyph unicode="&#xf6;" horiz-adv-x="560" d="M151 756q28 0 47.5 -19.5t19.5 -47.5t-19.5 -47t-47.5 -19t-47.5 19t-19.5 47t19.5 47.5t47.5 19.5zM409 756q28 0 47.5 -19.5t19.5 -47.5t-19.5 -47t-47.5 -19t-47.5 19t-19.5 47t19.5 47.5t47.5 19.5zM369 542q60 0 95 -59q36 -62 36 -171q0 -23 -2 -48 q-10 -141 -74 -205q-72 -72 -233 -72q-60 0 -95.5 60.5t-35.5 168.5q0 23 2 48q10 142 74 206q72 72 233 72zM388 296q3 96 -16 140q-24 53 -89 53q-59 0 -84 -65q-21 -56 -26 -186q-4 -100 15 -144q23 -54 88 -54q60 0 86 66q21 56 26 190z" />
<glyph unicode="&#xf9;" horiz-adv-x="638" d="M137 704l37 63l203 -128l-27 -47zM400 533h102l-27 -382q-1 -15 -1 -29q0 -69 23 -69q21 0 50 14l11 -45q-87 -31 -143 -31q-48 0 -48 86q0 25 5 56l11 67h-7q-64 -209 -188 -209q-46 0 -67 25q-25 30 -25 102q0 17 1 38l16 226q7 98 -13 98q-21 0 -50 -14l-10 46 q77 30 134 30q46 0 46 -79q0 -24 -3 -63l-15 -209q-2 -24 -2 -44q0 -71 25 -71q14 0 42 24q43 36 73 106q42 94 53 238z" />
<glyph unicode="&#xfa;" horiz-adv-x="638" d="M275 592l-27 47l203 128l37 -63zM400 533h102l-27 -382q-1 -15 -1 -29q0 -69 23 -69q21 0 50 14l11 -45q-87 -31 -143 -31q-48 0 -48 86q0 25 5 56l11 67h-7q-64 -209 -188 -209q-46 0 -67 25q-25 30 -25 102q0 17 1 38l16 226q7 98 -13 98q-21 0 -50 -14l-10 46 q77 30 134 30q46 0 46 -79q0 -24 -3 -63l-15 -209q-2 -24 -2 -44q0 -71 25 -71q14 0 42 24q43 36 73 106q42 94 53 238z" />
<glyph unicode="&#xfb;" horiz-adv-x="638" d="M468 636l-35 -41l-125 109l-124 -109l-35 41l159 128zM400 533h102l-27 -382q-1 -15 -1 -29q0 -69 23 -69q21 0 50 14l11 -45q-87 -31 -143 -31q-48 0 -48 86q0 25 5 56l11 67h-7q-64 -209 -188 -209q-46 0 -67 25q-25 30 -25 102q0 17 1 38l16 226q7 98 -13 98 q-21 0 -50 -14l-10 46q77 30 134 30q46 0 46 -79q0 -24 -3 -63l-15 -209q-2 -24 -2 -44q0 -71 25 -71q14 0 42 24q43 36 73 106q42 94 53 238z" />
<glyph unicode="&#xfc;" horiz-adv-x="638" d="M177 756q28 0 47.5 -19.5t19.5 -47.5t-19.5 -47t-47.5 -19t-47.5 19t-19.5 47t19.5 47.5t47.5 19.5zM450 756q28 0 47.5 -19.5t19.5 -47.5t-19.5 -47t-47.5 -19t-47 19t-19 47t19 47.5t47 19.5zM400 533h102l-27 -382q-1 -15 -1 -29q0 -69 23 -69q21 0 50 14l11 -45 q-87 -31 -143 -31q-48 0 -48 86q0 25 5 56l11 67h-7q-64 -209 -188 -209q-46 0 -67 25q-25 30 -25 102q0 17 1 38l16 226q7 98 -13 98q-21 0 -50 -14l-10 46q77 30 134 30q46 0 46 -79q0 -24 -3 -63l-15 -209q-2 -24 -2 -44q0 -71 25 -71q14 0 42 24q43 36 73 106 q42 94 53 238z" />
<glyph unicode="&#xfd;" horiz-adv-x="539" d="M205 592l-27 47l203 128l37 -63zM514 533l-23 -333q-17 -251 -113 -337q-56 -50 -165 -50q-53 0 -97 23q-48 25 -45 61q4 58 83 75l14 -26q-18 -15 -18 -32q0 -54 107 -54q44 0 65 38q29 53 62 235l12 67h-7q-65 -209 -189 -209q-45 0 -67 25q-24 30 -24 102q0 17 1 38 l16 226q7 98 -14 98t-49 -14l-11 46q78 30 134 30q26 0 36 -18.5t10 -61.5q0 -23 -3 -62l-14 -209q-2 -24 -2 -42q0 -73 25 -73q14 0 43 24q43 36 74 105q41 95 51 239l6 89h102z" />
<glyph unicode="&#xff;" horiz-adv-x="539" d="M323 -7q-31 -109 -66 -147q-30 -33 -85 -33q-29 0 -47 3v51q50 -6 77 28q22 27 22 71q0 18 -4 34l-138 480h-49v53h195v-53h-40l108 -378l109 378h-55v53h156v-53h-45zM151 756q28 0 47.5 -19.5t19.5 -47.5t-19.5 -47t-47.5 -19t-47.5 19t-19.5 47t19.5 47.5t47.5 19.5z M409 756q28 0 47.5 -19.5t19.5 -47.5t-19.5 -47t-47.5 -19t-47.5 19t-19.5 47t19.5 47.5t47.5 19.5z" />
<glyph unicode="&#x2000;" horiz-adv-x="390" />
<glyph unicode="&#x2001;" horiz-adv-x="780" />
<glyph unicode="&#x2002;" horiz-adv-x="390" />
<glyph unicode="&#x2003;" horiz-adv-x="780" />
<glyph unicode="&#x2004;" horiz-adv-x="260" />
<glyph unicode="&#x2005;" horiz-adv-x="195" />
<glyph unicode="&#x2006;" horiz-adv-x="130" />
<glyph unicode="&#x2007;" horiz-adv-x="130" />
<glyph unicode="&#x2008;" horiz-adv-x="97" />
<glyph unicode="&#x2009;" horiz-adv-x="156" />
<glyph unicode="&#x200a;" horiz-adv-x="43" />
<glyph unicode="&#x2010;" horiz-adv-x="385" d="M307 231h-196l5 71h196z" />
<glyph unicode="&#x2011;" horiz-adv-x="385" d="M307 231h-196l5 71h196z" />
<glyph unicode="&#x2012;" horiz-adv-x="385" d="M307 231h-196l5 71h196z" />
<glyph unicode="&#x2013;" horiz-adv-x="482" d="M417 231h-333v71h333v-71z" />
<glyph unicode="&#x2014;" horiz-adv-x="620" d="M541 231h-457v71h457v-71z" />
<glyph unicode="&#x2018;" horiz-adv-x="333" d="M184 659q26 0 41.5 -19t15.5 -48q0 -27 -19 -46.5t-47 -19.5q-34 0 -56.5 23.5t-22.5 67.5q0 105 105 159l24 -37q-73 -45 -73 -98q12 18 32 18z" />
<glyph unicode="&#x2019;" horiz-adv-x="333" d="M148 622q-26 0 -41 19t-15 48q0 28 19 47.5t47 19.5q34 0 56 -23.5t22 -68.5q0 -105 -104 -158l-24 36q73 45 73 98q-12 -18 -33 -18z" />
<glyph unicode="&#x201c;" horiz-adv-x="511" d="M166 659q26 0 41.5 -19.5t15.5 -47.5q0 -27 -19.5 -46.5t-47.5 -19.5q-34 0 -56 23.5t-22 67.5q0 105 105 159l24 -37q-74 -45 -74 -98q13 18 33 18zM390 659q26 0 41.5 -19.5t15.5 -47.5q0 -27 -19.5 -46.5t-47.5 -19.5q-34 0 -56 23.5t-22 67.5q0 105 105 159l24 -37 q-74 -45 -74 -98q13 18 33 18z" />
<glyph unicode="&#x201d;" horiz-adv-x="511" d="M352 622q-26 0 -41 19t-15 48q0 28 19 47.5t47 19.5q34 0 56 -23.5t22 -68.5q0 -105 -104 -158l-24 36q73 45 73 98q-12 -18 -33 -18zM129 622q-26 0 -41.5 19.5t-15.5 47.5t19.5 47.5t47.5 19.5q34 0 56 -23.5t22 -68.5q0 -105 -105 -158l-24 36q74 45 74 98 q-13 -18 -33 -18z" />
<glyph unicode="&#x2022;" horiz-adv-x="508" d="M253 444q47 0 79 -32t32 -79q0 -46 -32.5 -78.5t-78.5 -32.5t-78.5 32.5t-32.5 78.5t32.5 78.5t78.5 32.5z" />
<glyph unicode="&#x202f;" horiz-adv-x="156" />
<glyph unicode="&#x205f;" horiz-adv-x="195" />
<glyph unicode="&#xe000;" horiz-adv-x="540" d="M0 540h540v-540h-540v540z" />
</font>
</defs>
</svg>
