<?xml version="1.0" standalone="no"?>
<!DOCTYPE svg PUBLIC "-//W3C//DTD SVG 1.1//EN" "http://www.w3.org/Graphics/SVG/1.1/DTD/svg11.dtd" >
<svg xmlns="http://www.w3.org/2000/svg">
<metadata></metadata>
<defs>
<font id="rosarivoregular" horiz-adv-x="589" >
<font-face units-per-em="1000" ascent="800" descent="-200" />
<missing-glyph horiz-adv-x="307" />
<glyph horiz-adv-x="1000" />
<glyph horiz-adv-x="1000" />
<glyph unicode="&#xd;" horiz-adv-x="1000" />
<glyph unicode=" "  horiz-adv-x="307" />
<glyph unicode="&#x09;" horiz-adv-x="307" />
<glyph unicode="&#xa0;" horiz-adv-x="307" />
<glyph unicode="!" horiz-adv-x="335" d="M80 55q37 38 77 57q41 -37 55 -76q-10 -14 -32.5 -31t-42.5 -25q-38 31 -57 75zM81 696l4 13q42 15 123 64q15 0 15 -9l-50 -569l-37 -4q0 33 -1.5 165t-1.5 151q0 168 -25 173l-24 4q0 1 -1 3.5t-1.5 4.5t-0.5 4z" />
<glyph unicode="&#x22;" horiz-adv-x="433" d="M100 840q17 7 40 7q14 0 35 -7l-31 -267q-5 -2 -17 -2q-10 0 -18 2zM267 840q17 7 40 7q13 0 34 -7l-30 -267q-6 -2 -18 -2q-9 0 -17 2z" />
<glyph unicode="#" horiz-adv-x="572" d="M47 135q9 23 13 44h100l9 138q-40 -1 -113 -8q-9 4 -9 15q9 23 13 44h113l10 125q38 8 49 14q5 0 9 -2.5t5 -4.5l2 -3q-14 -69 -20 -129h135l9 125q36 8 49 14q5 0 9 -2.5t6 -4.5l1 -3q-3 -15 -20 -128q62 4 99 8q9 -4 9 -16q-5 -9 -13 -45h-100l-9 -136q40 1 113 8 q9 -4 9 -16q-5 -9 -13 -45h-113l-11 -146q-26 -4 -48 -13q-5 0 -8.5 2t-5.5 4l-1 3q12 55 20 151h-136l-10 -147q-26 -4 -48 -13q-5 0 -8.5 2t-4.5 4l-2 3q12 55 20 150q-37 0 -100 -7q-9 4 -9 15zM212 179h137l10 138h-135z" />
<glyph unicode="$" horiz-adv-x="469" d="M61 128q12 7 20 7q7 0 10 -2q2 -4 8 -22.5t12 -32t14 -22.5q30 -30 84 -36v196l-41 20q-97 46 -97 133q0 63 43 97t103 41v72q17 3 34 10q4 0 6.5 -1.5t2.5 -3.5l1 -1q-4 -50 -4 -74q68 -3 127 -26q-7 -24 -16 -112q-5 -4 -16 -4q-7 0 -15 2q-3 34 -16 78q-19 19 -65 25 v-181l33 -16q115 -56 115 -147q0 -61 -45 -100t-111 -47v-72q-15 -3 -33 -10q-4 0 -6.5 1.5t-3.5 3.5l-1 1l4 75q-85 5 -128 23q-5 52 -19 125zM148 395q0 -25 18.5 -47.5t45.5 -35.5l5 -3v163q-32 -4 -50.5 -24t-18.5 -53zM248 20q34 4 55.5 25t21.5 58q0 58 -77 94v-177z " />
<glyph unicode="%" horiz-adv-x="661" d="M60 377q0 65 34 101t93 42q55 0 88 -41t33 -102q0 -127 -127 -142q-56 0 -88.5 40t-32.5 102zM101 387q0 -33 25.5 -57.5t65.5 -24.5q42 0 58.5 15t16.5 52q0 31 -25.5 54t-65.5 23q-42 0 -58.5 -13.5t-16.5 -48.5zM136 -12l165 244q23 33 89 138t91 153q3 1 8 1 q7 0 8 -3q12 -21 34 -45l-186 -272q-29 -42 -86 -131.5t-74 -127.5q-2 -1 -6 -1l-8 3q-12 16 -35 41zM353 87q0 64 34 100t93 42q55 0 88 -40.5t33 -101.5q0 -128 -126 -143q-57 0 -89.5 40.5t-32.5 102.5zM395 96q0 -32 25.5 -56.5t64.5 -24.5q42 0 58.5 14.5t16.5 51.5 q0 31 -25.5 54.5t-65.5 23.5q-42 0 -58 -14t-16 -49z" />
<glyph unicode="&#x26;" horiz-adv-x="831" d="M35 185q0 75 36.5 128.5t104.5 109.5q-57 93 -57 161t49.5 105.5t127.5 46.5q56 0 100 -34.5t44 -84.5q0 -17 -7.5 -33.5t-19.5 -28.5t-23 -21t-20.5 -15.5t-10.5 -7.5l-19 17q35 36 35 81q0 41 -28 70.5t-71 29.5q-32 0 -53.5 -25t-21.5 -69t26.5 -97.5t77 -112t85 -94 t89.5 -87.5l28 -27q71 140 94 284q-30 6 -72 6q-4 8 -4 17q0 5 4 13q28 0 69.5 -1t50.5 -1q84 0 116 5q6 -11 6 -17l-2 -8q-31 -3 -56.5 -19t-46.5 -47t-33 -54t-29.5 -64.5t-23.5 -53.5q-17 -34 -45 -89q122 -116 225 -133q23 -4 71 -4q2 -14 2 -19q0 -8 -1 -12 q-38 -2 -73.5 -7t-56 -9t-25.5 -4q-11 0 -33 8.5t-65.5 35.5t-91.5 67q-38 -50 -85 -76t-119 -35q-105 0 -176.5 56.5t-71.5 148.5zM136 228q0 -34 9 -67.5t27.5 -64.5t52.5 -50t80 -19q83 0 151 90q-176 162 -257 272q-36 -41 -49.5 -73t-13.5 -88z" />
<glyph unicode="'" horiz-adv-x="280" d="M100 840q21 7 37 7q17 0 38 -7l-31 -267q-14 -2 -17 -2q-6 0 -18 2z" />
<glyph unicode="(" horiz-adv-x="339" d="M80 365q0 176 50.5 299t141.5 240q11 0 18 -5t8 -9l1 -5q-135 -220 -135 -518q0 -301 135 -523q-4 -17 -27 -17q-91 117 -141.5 240t-50.5 298z" />
<glyph unicode=")" horiz-adv-x="339" d="M40 -156q135 222 135 523q0 298 -135 518q0 2 1 5t7.5 8.5t18.5 5.5q91 -117 141.5 -240t50.5 -299q0 -175 -50.5 -298t-141.5 -240q-10 0 -17 4.5t-8 8.5z" />
<glyph unicode="*" horiz-adv-x="403" d="M3 628q0 7 2 11q79 7 162 40l-134 77q13 31 20 67l11 4q49 -68 120 -119v156q41 5 68 16l8 -8q-33 -73 -43 -163l135 78q27 -36 48 -52l-3 -11q-91 -11 -164 -44l135 -80q-17 -36 -23 -67l-9 -2q-52 70 -119 121v-156q-41 -5 -68 -16l-8 8q30 67 44 164l-136 -76 q-24 34 -46 52z" />
<glyph unicode="+" horiz-adv-x="569" d="M59 244q7 20 13 48h183q0 97 -10 207q4 9 16 9q7 -4 15.5 -6t20 -4t16.5 -3v-203q97 0 188 9q10 -4 10 -16q-6 -12 -14 -48h-184q0 -117 8 -204q-4 -9 -14 -9q-9 3 -52 13v200q-96 0 -187 -8q-9 4 -9 15z" />
<glyph unicode="," horiz-adv-x="235" d="M53 55q39 42 78 57q18 -15 33.5 -37.5t19.5 -37.5q0 -35 -29 -87.5t-79 -100.5q-16 0 -21 15q52 75 52 120q-32 26 -54 71z" />
<glyph unicode="-" horiz-adv-x="380" d="M47 227q7 20 13 48h143q64 0 121 9q9 -4 9 -15q-7 -20 -13 -48h-143q-64 0 -121 -9q-9 4 -9 15z" />
<glyph unicode="." horiz-adv-x="236" d="M53 55q36 38 78 57q41 -39 54 -76q-9 -14 -32 -30.5t-42 -25.5q-39 33 -58 75z" />
<glyph unicode="/" horiz-adv-x="361" d="M13 -72l130 460q108 397 118 468q7 5 18 5q8 -7 49 -30l-129 -460q-108 -399 -119 -468q-7 -6 -17 -6q-12 10 -50 31z" />
<glyph unicode="0" horiz-adv-x="591" d="M55 251q0 127 64.5 193.5t176.5 79.5q108 0 171.5 -77.5t63.5 -195.5q0 -126 -65 -192t-178 -79q-109 0 -171 75.5t-62 195.5zM105 272q0 -80 59 -143.5t144 -63.5q87 0 128 41.5t41 126.5q0 80 -58 142t-143 62q-90 0 -130.5 -39t-40.5 -126z" />
<glyph unicode="1" horiz-adv-x="332" d="M12 8l1 9q98 22 108 50q12 29 12 205q0 95 -2 143l-107 -14q-7 10 -7 23q0 8 2 12q87 28 120 45q24 12 72 50q8 -3 13 -8.5t6 -9.5l2 -4q-17 -40 -20.5 -81.5t-3.5 -158.5q0 -236 9 -237q28 -3 83 -3q3 -15 3 -16q0 -3 -1.5 -8.5t-1.5 -7.5q-29 0 -68.5 1.5t-48.5 1.5 q-94 0 -166 -8q-5 5 -5 16z" />
<glyph unicode="2" horiz-adv-x="489" d="M25 16l120 116q3 3 25 23t36 33.5t36 38t35.5 45t23.5 46.5t10 49q0 42 -32 71t-76 29q-38 0 -94 -27q-12 -71 -14 -101q-8 -4 -15 -4q-8 0 -13 2q-2 32 -6.5 58.5t-8.5 39t-4 13.5q0 13 15 19q61 26 164 57q72 0 122 -33t50 -103q0 -72 -88 -155l-178 -169h106 q88 0 120.5 6.5t48.5 24.5q5 6 19 37q2 1 8 1q12 0 18 -6q-3 -18 -7 -38.5t-5.5 -31t-3 -23t-1.5 -25.5q-20 -12 -100 -12q-22 0 -89 1.5t-72 1.5q-100 0 -144 -5q-6 8 -6 21z" />
<glyph unicode="3" horiz-adv-x="477" d="M28 449q0 10 15 16q40 21 185 59q175 0 175 -119q0 -29 -19 -59.5t-85 -94.5l-38 -36q143 -92 143 -210q0 -103 -87 -171t-269 -133q-8 8 -8 26q140 63 208 119.5t68 129.5q0 64 -42.5 110t-117.5 89l81 74q79 71 79 131q0 85 -113 85q-42 0 -114 -26q-10 -62 -13 -102 q-8 -4 -17 -4l-12 3q-3 37 -7.5 64t-7.5 38z" />
<glyph unicode="4" horiz-adv-x="523" d="M-12 16q25 26 41 48l216 287q30 39 60.5 83t46.5 68l16 25q16 -2 28 -10q-13 -58 -13 -261v-193q71 0 84 18q13 24 20 44q5 2 10 2q9 0 16 -7q-4 -24 -11.5 -58.5t-8.5 -54.5q-16 -9 -110 -11q0 -35 5 -259q-32 -2 -75 -32q-11 0 -20 6q16 73 16 194v92q-102 3 -169 3 q-107 0 -147 -5q-5 6 -5 21zM79 60h230v308z" />
<glyph unicode="5" horiz-adv-x="473" d="M40 -284q127 75 190 139.5t63 148.5q0 73 -69 132.5t-173 99.5l44 276q117 -5 197 -5q86 0 103 17q5 5 11 16.5t9 16.5q14 0 24 -5q-14 -70 -15 -108q-22 -15 -95 -15q-92 0 -208 4l-17 -124q123 -49 202 -117t79 -152q0 -61 -23.5 -111t-73 -92.5t-102 -74t-134.5 -71.5 q-5 2 -8 8.5t-4 11.5v5z" />
<glyph unicode="6" horiz-adv-x="576" d="M67 271q0 93 49.5 192t144.5 161q96 63 210 92q8 -11 8 -25q-126 -52 -198 -114q-117 -102 -117 -304q0 -51 8 -94.5t25 -80.5t47.5 -58t71.5 -21q61 0 94 45t33 108q0 69 -39 126.5t-103 57.5q-36 0 -70 -19q-14 7 -14 26q53 32 122 32q80 0 135 -56t55 -130 q0 -101 -66 -157t-174 -72q-101 0 -161.5 81t-60.5 210z" />
<glyph unicode="7" horiz-adv-x="503" d="M13 377q23 128 23 139q75 -7 265 -7q138 0 198 6q4 -3 6.5 -7.5t2.5 -7.5l1 -4q-86 -113 -184 -305q-117 -234 -196 -482q-4 -2 -9 -2t-9 2q-12 12 -29 20.5t-28 10.5l-11 3q96 220 218 436q75 130 154 252q-91 8 -191 8q-148 0 -163 -24q-14 -26 -21 -43q-3 -1 -8 -1 q-10 0 -19 6z" />
<glyph unicode="8" horiz-adv-x="496" d="M36 144q0 65 45.5 113.5t126.5 95.5q-75 45 -115.5 84t-40.5 88q0 82 54 125.5t141 56.5q68 0 125 -43.5t57 -104.5q0 -53 -32 -90t-106 -88q78 -48 123 -95t45 -107q0 -88 -61.5 -136.5t-157.5 -62.5q-76 0 -140 47.5t-64 116.5zM119 169q0 -63 39 -108t97 -45 q57 0 90.5 37.5t33.5 93.5q0 54 -40 97t-111 89q-109 -79 -109 -164zM121 567q0 -72 150 -166q82 64 82 138q0 56 -35 96t-86 40q-50 0 -80.5 -34t-30.5 -74z" />
<glyph unicode="9" horiz-adv-x="576" d="M47 281q0 106 66.5 166t174.5 77q101 0 161 -87.5t60 -225.5q0 -98 -41.5 -204.5t-116.5 -178.5q-94 -89 -202 -127q-10 11 -10 26q65 36 106 67.5t80 82.5q87 112 87 332q0 75 -13.5 134.5t-49 100.5t-88.5 41q-61 0 -93.5 -48t-32.5 -116q0 -72 38 -133t102 -61 q31 0 72 18q13 -7 13 -25q-51 -32 -121 -32q-81 0 -136.5 58t-55.5 135z" />
<glyph unicode=":" horiz-adv-x="236" d="M53 55q36 38 78 57q41 -39 54 -76q-9 -14 -32 -30.5t-42 -25.5q-39 33 -58 75zM53 399q36 38 78 57q41 -39 54 -76q-9 -14 -32 -30.5t-42 -25.5q-39 33 -58 75z" />
<glyph unicode=";" horiz-adv-x="244" d="M53 55q39 42 78 57q18 -15 33.5 -37.5t19.5 -37.5q0 -35 -29 -87.5t-79 -100.5q-16 0 -21 15q52 75 52 120q-32 26 -54 71zM61 399q36 38 78 57q41 -39 54 -76q-9 -14 -32 -30.5t-42 -25.5q-39 33 -58 75z" />
<glyph unicode="&#x3c;" horiz-adv-x="495" d="M40 252v32l224 96q118 50 176 80q8 0 11 -11q0 -32 4 -53l-316 -128l316 -128q-4 -21 -4 -53q-1 -5 -4 -7.5t-5 -3.5h-2q-58 30 -176 80z" />
<glyph unicode="=" horiz-adv-x="559" d="M40 151q4 9 13 53h224q135 0 232 9q10 -4 10 -16q-3 -6 -14 -53h-226q-132 0 -230 -8q-9 4 -9 15zM40 329q4 9 13 54h224q135 0 232 9q10 -4 10 -16q-3 -6 -14 -53h-226q-132 0 -230 -8q-9 4 -9 14z" />
<glyph unicode="&#x3e;" horiz-adv-x="495" d="M40 140l316 128l-316 128q4 21 4 53q1 5 4 7.5t5 3.5h2q58 -30 176 -80l224 -96v-32l-224 -96q-138 -61 -176 -80q-8 0 -11 11q0 32 -4 53z" />
<glyph unicode="?" horiz-adv-x="416" d="M68 689q0 6 4.5 44.5t4.5 75.5q9 3 15 3q7 0 16 -4q0 -22 5 -36q21 -14 63.5 -29t56.5 -22q130 -63 130 -204q0 -12 -4 -48q-29 -68 -65.5 -101t-102.5 -48q-6 -17 -23 -124q-7 -4 -21 -4q-9 0 -18 3q-3 48 -7 85.5t-7 55.5t-3 23q0 2 0.5 3.5t2 2.5t3 1t5 0.5t6.5 1.5 q67 11 121.5 34.5t61.5 57.5q5 20 5 44q0 106 -146 145q-10 3 -30.5 8t-30 8t-21 7t-16.5 8t-5 9zM71 55q33 37 77 57q40 -38 55 -76q-10 -14 -33 -31t-42 -25q-38 31 -57 75z" />
<glyph unicode="@" horiz-adv-x="904" d="M64 184q0 117 62.5 219t167 161t222.5 59q151 0 244 -89t93 -238q0 -52 -11 -97.5t-35 -86.5t-67 -72t-101 -47q-31 0 -52 17t-31 51.5t-14.5 66.5t-6.5 81q-79 -160 -152 -197q-37 7 -66.5 45t-29.5 94q0 65 21.5 117.5t50 81.5t63 48.5t54.5 26t31 7.5q49 4 60 8l46 16 q9 0 11 -5q-11 -157 -11 -286q0 -51 16 -92.5t35 -41.5q32 0 68.5 79t36.5 187q0 137 -71.5 214t-204.5 77q-96 0 -174 -59.5t-119 -151t-41 -192.5q0 -154 80.5 -247t227.5 -93q91 0 169 24q11 -9 11 -30q-94 -32 -184 -32q-183 0 -291 99.5t-108 277.5zM371 177 q0 -38 11 -62t26 -24q37 0 83.5 80t52.5 158l5 67q-45 0 -77 -4q-35 -4 -68 -64t-33 -151z" />
<glyph unicode="A" horiz-adv-x="747" d="M-7 9l2 8q51 14 74.5 44t70.5 136l247 560h16l230 -588q1 -3 16 -37.5t28 -62.5t20 -38q28 -3 52 -3q3 -7 3 -16t-3 -15q-18 0 -65 1.5t-52 1.5q-76 0 -133 -8q-6 8 -6 17l2 8q39 9 54.5 20.5t15.5 29.5q0 10 -14 52l-59 150q-54 3 -129 3q-32 0 -77 -1.5t-66 -1.5 l-25 -64q-50 -124 -50 -176q23 -1 70 -1q2 -7 2 -15q0 -10 -2 -16q-22 0 -60.5 1.5t-45.5 1.5q-63 0 -110 -8q-6 7 -6 17zM235 308q3 0 50 -2t78 -2q69 0 116 3l-116 306z" />
<glyph unicode="B" horiz-adv-x="681" d="M35 9l1 8q26 6 43 15t25.5 22t11.5 23t5 27q12 91 12 245q0 159 -4 240q-5 95 -14 98q-19 5 -66 5q-2 7 -2 16t2 15q22 0 84 -1.5t68 -1.5h154q95 0 153.5 -42t58.5 -123q0 -65 -44 -110t-91 -57q82 -15 127.5 -64t45.5 -128q0 -92 -80.5 -144t-200.5 -52q-219 0 -284 -8 q-5 6 -5 17zM219 172q0 -94 6 -132q36 -4 84 -4q103 0 153.5 35t50.5 112q0 80 -50 132t-130 52h-42q-6 7 -6 17l6 20h29q160 0 160 139q0 69 -42 105.5t-119 36.5q-60 0 -88 -4q-2 -8 -7 -65q-5 -68 -5 -244v-200z" />
<glyph unicode="C" horiz-adv-x="760" d="M64 352q0 170 108 277t276 107q133 0 236 -33q5 -3 5 -10q0 -2 -3.5 -29t-8 -66.5t-5.5 -69.5q-15 -3 -17 -3q-10 0 -22 4q-9 69 -18 103q-26 28 -73 48t-107 20q-114 0 -188.5 -80t-74.5 -219q0 -98 32.5 -184t97 -141.5t146.5 -55.5q96 0 165 48q10 17 18.5 36t17 41 t11.5 30q24 0 37 -10q-14 -72 -21 -145q-1 -11 -13 -13q-96 -27 -228 -27q-172 0 -271.5 107.5t-99.5 264.5z" />
<glyph unicode="D" horiz-adv-x="824" d="M20 8l1 9q35 7 56.5 16.5t30.5 23t11 22t4 25.5q9 103 10 248v116q0 213 -17 219q-29 5 -69 5q-3 7 -3 16t3 15q25 0 64.5 -1.5t47.5 -1.5h96q1 0 24 1t52 2t45 1q187 0 285.5 -100.5t98.5 -254.5q0 -163 -108 -268t-276 -105q-34 0 -86 2t-62 2q-136 0 -203 -8 q-5 6 -5 16zM221 172q0 -89 4 -119q67 -17 140 -17q146 0 216.5 80.5t70.5 230.5q0 66 -19.5 125t-59 107.5t-108 77t-157.5 28.5q-48 0 -75 -4q-12 -44 -12 -194v-315z" />
<glyph unicode="E" horiz-adv-x="649" d="M35 9l1 8q26 6 43 15t25.5 22t11.5 23t5 27q12 91 12 245q0 159 -4 240q-5 95 -14 98q-19 5 -66 5q-2 7 -2 16t2 15q22 0 84 -1.5t68 -1.5h115q46 0 137 3.5t99 3.5q17 0 17 -11q0 -1 -3.5 -24t-7.5 -62t-6 -77q-12 -6 -23 -6q-8 0 -16 4q-12 91 -18 113q-91 21 -192 21 q-44 0 -72 -4q-12 -64 -12 -285q16 -4 84 -4q70 0 110 5q28 3 43.5 15t23.5 49q21 0 31 -6q-10 -57 -10 -84q0 -7 1 -36t1 -51q-7 -5 -18 -5l-14 2l-11 66q-54 9 -153 9q-45 0 -88 -5v-179q0 -94 6 -132q31 -4 71 -4q103 0 204 27q7 11 14 26t11 25.5t11 30t9 26.5q6 1 14 1 q12 0 24 -9q-15 -71 -22 -147q-1 -12 -13 -13q-44 -7 -117 -7q-39 0 -100 2t-71 2h-53q-116 0 -167 -8q-5 6 -5 17z" />
<glyph unicode="F" horiz-adv-x="631" d="M35 9l1 8q26 6 43 15t25.5 22t11.5 23t5 27q12 91 12 245q0 120 -4 240q-3 94 -14 98q-19 5 -66 5q-2 7 -2 16t2 15q22 0 84 -1.5t68 -1.5h128q46 0 137 3.5t99 3.5q18 0 18 -11q0 -1 -3.5 -24t-8 -62t-6.5 -77q-12 -6 -22 -6q-9 0 -16 4q-11 83 -19 113q-91 21 -192 21 q-52 0 -85 -4q-6 -23 -8 -64q-4 -80 -4 -232q24 -4 84 -4q62 0 110 6q28 2 44.5 14.5t22.5 50.5q19 0 31 -7q-10 -57 -10 -85q0 -7 1 -36t1 -51q-14 -4 -20 -4l-12 2l-11 65q-36 9 -153 9q-60 0 -88 -5v-116q0 -103 8 -187q46 -6 125 -6q4 -10 4 -19q0 -10 -4 -15 q-34 0 -97.5 1.5t-75.5 1.5q-76 0 -139 -8q-5 6 -5 17z" />
<glyph unicode="G" horiz-adv-x="817" d="M64 352q0 170 108 277t276 107q136 0 241 -29q7 -2 7 -11q0 -1 -0.5 -9t-2 -22.5t-2.5 -33t-1.5 -45t-0.5 -54.5q-7 -4 -21 -4q-10 0 -17 3q-18 81 -26 101q-79 68 -190 68q-114 0 -188.5 -80t-74.5 -219q0 -98 32.5 -184t97 -141.5t146.5 -55.5q89 0 167 36v61 q0 75 -6 136q-51 6 -114 6q-4 7 -4 16l4 17q30 0 89 -1.5t71 -1.5q47 0 92 8q4 -10 4 -17l-2 -12q-38 -16 -42 -65q-7 -68 -7 -192q-60 0 -139 -15.5t-126 -15.5q-172 0 -271.5 107.5t-99.5 264.5z" />
<glyph unicode="H" horiz-adv-x="839" d="M35 9l1 8q26 6 43 15t25.5 22t11.5 23t5 27q12 91 12 281v167q0 136 -12 137q-18 3 -68 3q-2 7 -2 16t2 15q22 0 59 -1.5t44 -1.5q93 0 143 8q4 -8 4 -25q-29 -7 -45 -22.5t-20 -28.5t-7 -36q-9 -72 -12 -220q100 -4 214 -4q44 0 108.5 2t78.5 2v156q0 136 -12 137 q-19 3 -68 3q-3 7 -3 16t3 15q22 0 59 -1.5t44 -1.5q93 0 142 8q4 -9 4 -25q-29 -8 -45 -23t-20.5 -28.5t-6.5 -35.5q-12 -106 -12 -236v-212q0 -136 12 -137q19 -3 74 -3q2 -7 2 -16t-2 -15q-22 0 -60 1.5t-44 1.5q-107 0 -174 -8q-5 6 -5 17l1 8q60 14 77.5 31t21.5 56 q11 102 12 248q-28 0 -88 2.5t-99 2.5q-84 0 -214 -5v-184q0 -136 12 -137q18 -3 68 -3q2 -7 2 -16t-2 -15q-22 0 -57 1.5t-42 1.5q-97 0 -160 -8q-5 6 -5 17z" />
<glyph unicode="I" horiz-adv-x="356" d="M23 9l1 8q32 7 51.5 14.5t28.5 19t12 20.5t5 28q12 78 12 253v112q0 223 -17 225q-23 3 -67 3q-2 7 -2 16t2 15q25 0 73.5 -1.5t56.5 -1.5t55.5 1.5t72.5 1.5q2 -6 2 -15l-2 -16q-44 0 -67 -3q-17 -2 -17 -225v-163q0 -95 4.5 -182t11.5 -88q26 -3 88 -3q2 -7 2 -16 t-2 -15q-28 0 -73 1.5t-54 1.5q-105 0 -172 -8q-5 5 -5 17z" />
<glyph unicode="J" horiz-adv-x="353" d="M-5 -253l56 57q58 59 73.5 140.5t15.5 222.5v266q0 254 -16 256q-27 3 -85 3q-3 7 -3 16t3 15q28 0 72 -1.5t53 -1.5q84 0 128 8q5 -6 5 -17l-1 -8q-44 -8 -57 -87q-10 -45 -10 -221v-311q0 -122 -20.5 -174t-95.5 -110l-100 -76q-18 4 -18 23z" />
<glyph unicode="K" horiz-adv-x="707" d="M20 9l1 8q60 14 77.5 31t22.5 56q12 115 12 248v116q0 219 -17 221q-23 3 -69 3q-3 7 -3 16t3 15q25 0 64.5 -1.5t47.5 -1.5q93 0 141 8q4 -5 4 -25q-35 -5 -49.5 -24.5t-21.5 -49.5q-10 -52 -10 -234v-184q0 -115 6 -178q27 -5 87 -5q3 -7 3 -16q0 -2 -1.5 -7.5 t-1.5 -7.5q-26 0 -75 1.5t-58 1.5q-99 0 -158 -8q-5 6 -5 17zM255 401l130 123q91 85 126 157q-18 10 -78 12q-1 4 -1 11l4 20q101 -4 133 -4q11 0 71 5q8 -7 8 -25q-60 -37 -104 -76l-204 -180q81 -129 140 -219q67 -103 104 -146t64 -46q17 -2 61 -2q3 -6 3 -19 q0 -9 -1 -12q-38 -2 -75 -7t-58.5 -9t-26.5 -4q-18 0 -80.5 89.5t-135 205t-80.5 126.5z" />
<glyph unicode="L" horiz-adv-x="596" d="M35 9l1 8q26 6 43 15t25.5 22t11.5 23t5 27q11 83 11 245v202q0 137 -13 138q-19 3 -60 3q-3 7 -3 16t3 15q21 0 55 -1.5t41 -1.5q92 0 142 8q6 -8 6 -16l-2 -9q-41 -11 -54 -27.5t-16 -47.5q-12 -123 -12 -267v-189q0 -94 6 -132q36 -4 84 -4q103 0 204 27 q10 14 17.5 31t16.5 43t12 34q5 1 13 1q12 0 24 -9q-4 -21 -21 -147q-1 -8 -3.5 -10t-10.5 -3q-42 -7 -117 -7q-39 0 -100 2t-71 2h-66q-113 0 -167 -8q-5 6 -5 17z" />
<glyph unicode="M" horiz-adv-x="1015" d="M37 713q0 10 3 16q40 0 94 2t66 2q7 0 21.5 -15t40.5 -53t57 -93q41 -74 88.5 -177t79.5 -178t36 -82q13 29 123 261.5t145 323.5q101 0 161 9q5 -9 5 -25q-50 -11 -67 -33t-19 -55q-2 -17 -2 -73q0 -321 27 -512q19 -3 80 -3q3 -7 3 -16t-3 -15q-22 0 -59.5 1.5 t-44.5 1.5q-108 0 -175 -8q-5 6 -5 17l1 8q60 14 76 30t19 57q3 63 3 95q0 81 -6 197l-8 164q-46 -85 -143.5 -289t-126.5 -291h-28q-195 441 -250 537l-42 72q-4 -124 -4 -334q0 -147 12 -224q22 -3 78 -3q3 -8 3 -17q0 -10 -3 -14q-25 0 -65 1.5t-48 1.5q-69 0 -116 -8 q-5 6 -5 17l1 8q49 11 65.5 32t21.5 55q24 171 28 539q-27 34 -59 48q-4 1 -56 8q0 1 -1.5 6t-1.5 8z" />
<glyph unicode="N" horiz-adv-x="860" d="M29 9l2 8q26 6 43 15t25.5 21.5t12 23.5t5.5 27q18 130 23 549q-25 27 -44 35t-61 11q-3 6 -3 16q0 9 3 14q40 0 97.5 2t66.5 2q30 0 202 -206q98 -116 287 -370q-3 78 -7 328q-3 151 -12 204q-22 3 -81 3q-4 8 -4 17q0 8 3 14q25 0 65 -1.5t48 -1.5q69 0 116 8 q5 -6 5 -17l-1 -8q-49 -11 -65 -31t-19 -56q-13 -208 -13 -631l-24 -10l-22 28q-191 252 -374 478q-72 88 -131 142q0 -135 1 -368q0 -139 12 -224q23 -3 79 -3q3 -8 3 -17q0 -7 -3 -14q-25 0 -65 1.5t-48 1.5q-69 0 -116 -8q-6 8 -6 17z" />
<glyph unicode="O" horiz-adv-x="843" d="M64 357q0 70 19.5 128.5t49 96.5t68.5 67.5t75 45.5t71 26t54 12.5t27 2.5q145 0 248 -110.5t103 -268.5q0 -70 -19.5 -128.5t-49 -96t-68.5 -67t-74.5 -45t-71 -25.5t-54 -12.5t-26.5 -2.5q-146 0 -249 108.5t-103 268.5zM165 412q0 -93 34.5 -179.5t100.5 -143.5 t147 -57q113 0 171.5 76.5t58.5 196.5q0 93 -33.5 179t-98.5 143.5t-146 57.5q-113 0 -173.5 -78.5t-60.5 -194.5z" />
<glyph unicode="P" horiz-adv-x="657" d="M35 9l1 8q26 6 43 15t25.5 22t11.5 23t5 27q12 91 12 245q0 155 -4 236q-5 99 -14 102q-19 5 -66 5q-2 7 -2 16t2 15q22 0 84 -1.5t68 -1.5h128q122 0 192 -52t70 -163q0 -110 -75 -166t-196 -56q-37 0 -56 1q-5 6 -5 17l5 20q13 -1 52 -1q80 0 133.5 47.5t53.5 124.5 q0 80 -47.5 136.5t-123.5 56.5q-64 0 -101 -4q-6 -17 -8 -65q-4 -68 -4 -321v-123q0 -82 5 -135q47 -6 128 -6q4 -10 4 -19q0 -10 -4 -15q-34 0 -97.5 1.5t-75.5 1.5q-76 0 -139 -8q-5 6 -5 17z" />
<glyph unicode="Q" horiz-adv-x="843" d="M64 357q0 70 19.5 128.5t49 96.5t68.5 67.5t75 45.5t71 26t54 12.5t27 2.5q145 0 248 -110.5t103 -268.5q0 -234 -206 -333q16 -21 48 -59q30 -34 53.5 -56.5t46 -36.5t37 -20.5t39.5 -16.5q27 0 79 12q11 -10 11 -30q-11 -3 -49.5 -16t-69.5 -22.5t-39 -9.5 q-55 0 -197 156q-19 20 -55 66q-45 -11 -61 -11q-146 0 -249 108.5t-103 268.5zM165 412q0 -93 34.5 -179.5t100.5 -143.5t147 -57q113 0 171.5 76.5t58.5 196.5q0 93 -33.5 179t-98.5 143.5t-146 57.5q-113 0 -173.5 -78.5t-60.5 -194.5z" />
<glyph unicode="R" horiz-adv-x="704" d="M35 9l1 8q26 6 43 15t25.5 22t11.5 23t5 27q12 91 12 245q0 157 -4 238q-5 97 -14 100q-19 5 -66 5q-4 7 -4 16q0 3 4 15q22 0 84 -1.5t68 -1.5h119q113 0 178 -48.5t65 -150.5q0 -77 -40.5 -126.5t-110.5 -69.5q35 -61 76 -121q64 -96 96.5 -132.5t59.5 -40.5 q17 -3 63 -3q2 -8 2 -16q0 -7 -2 -15q-38 -2 -74.5 -6t-58 -7.5t-26.5 -3.5q-10 0 -32.5 25.5t-52.5 71t-54.5 84.5t-55 89.5t-37.5 61.5q-64 0 -99 4v-149q0 -60 7 -132q31 -7 88 -7q3 -8 3 -17q0 -10 -3 -14q-26 0 -75 1.5t-58 1.5q-76 0 -139 -8q-5 6 -5 17zM217 352 q36 -3 91 -3q73 0 120.5 44t47.5 115q0 76 -41.5 128t-111.5 52q-68 0 -95 -4q-3 -12 -7 -60q-4 -49 -4 -272z" />
<glyph unicode="S" horiz-adv-x="639" d="M67 191q18 9 29 9q8 0 13 -1q28 -70 52 -106q21 -22 37 -35.5t52.5 -27.5t81.5 -14q59 0 101 36t42 92q0 20 -4 37.5t-16 32.5t-19.5 25t-28.5 23.5t-29 18.5t-34.5 19t-31.5 17q-36 20 -50 28t-43 25.5t-41 28t-31 28.5t-26.5 33.5t-14 36.5t-6.5 44q0 92 77 143.5 t186 51.5q45 0 100 -12t85 -25q-9 -35 -17 -146q-10 -5 -20 -5q-12 0 -20 4q-1 12 -12 54.5t-16 53.5q-67 43 -128 43q-63 0 -101 -34t-38 -92q0 -45 41 -83t132 -82q41 -20 71 -39t63 -47.5t51 -66t18 -80.5q0 -93 -78.5 -146t-184.5 -53q-57 0 -119 11t-89 22 q-10 78 -34 178z" />
<glyph unicode="T" horiz-adv-x="683" d="M7 561q4 26 8 79t8 76q0 11 17 11q7 0 74 -3.5t102 -3.5h245q39 0 112 3.5t80 3.5q18 0 18 -11q-16 -88 -16 -161q-8 -4 -22 -4q-10 0 -17 4q-18 99 -20 108q-50 22 -137 22q-39 0 -63 -5q-3 -9 -7 -64q-5 -93 -5 -209v-179q0 -111 16 -193q46 -7 104 -7q3 -8 3 -17 q0 -10 -3 -14q-34 0 -93 1.5t-71 1.5q-108 0 -179 -8q-5 6 -5 17l1 8q69 11 91 28.5t29 57.5q14 74 14 246q0 176 -6 267q-2 47 -8 64q-25 5 -61 5q-84 0 -131 -22l-44 -110q-23 0 -34 8z" />
<glyph unicode="U" horiz-adv-x="829" d="M47 708q0 9 2 15q22 0 56 -1.5t40 -1.5q106 0 160 8q6 -8 6 -17l-2 -8q-26 -6 -42.5 -13t-24.5 -17.5t-10.5 -19.5t-4.5 -25q-12 -117 -12 -332q0 -129 52 -201t162 -72q131 0 181.5 70.5t50.5 215.5v124q0 182 -10 256q-23 3 -86 3q-2 8 -2 17q0 10 2 14q25 0 67.5 -1.5 t50.5 -1.5q76 0 117 8q5 -6 5 -17l-1 -8q-77 -17 -84 -104q-11 -129 -11 -315q0 -147 -72.5 -225.5t-215.5 -78.5q-76 0 -132.5 19t-88 48t-50.5 71t-24.5 79.5t-5.5 81.5v153q0 81 -9 257q-19 3 -62 3q-2 7 -2 16z" />
<glyph unicode="V" horiz-adv-x="809" d="M3 712q0 7 5 16q64 -8 160 -8q72 0 135 3q2 -6 2 -15l-2 -16q-58 0 -82 -1q0 -38 24.5 -122.5t57.5 -164.5l122 -296l134 296q40 89 69 173.5t29 110.5q-18 4 -76 4q-2 7 -2 16t2 15q66 -3 104 -3q66 0 116 8q6 -6 6 -17l-2 -8q-39 -12 -62 -35q-8 -8 -17 -19.5 t-20 -30.5t-18.5 -33t-21 -43t-19.5 -42t-22.5 -49.5t-21.5 -46.5l-202 -443h-17l-216 519q-61 152 -96 192q-15 17 -68 31q-1 5 -1 9z" />
<glyph unicode="W" horiz-adv-x="1112" d="M0 711q0 12 5 17q64 -8 160 -8q52 0 134 3q2 -4 2 -14l-2 -17q-58 0 -82 -1q6 -86 83 -287l116 -296l135 272l-40 100q-2 5 -15 37t-23.5 56.5t-25 54.5t-24.5 45q-12 17 -47 26q-1 2 -1 8q0 10 4 17q48 -4 134 -4q5 0 45 -0.5t59 -0.5q22 0 59 0.5t39 0.5q50 0 88 4 q5 -6 5 -19l-1 -6q-24 -8 -36 -26q-20 -26 -138 -242l131 -323l117 296q84 211 95 284q-19 4 -76 4q-3 5 -3 15q0 9 3 16q66 -3 104 -3q53 0 103 8q5 -6 5 -17l-1 -8q-27 -10 -47 -30q-19 -20 -49 -76t-46 -93l-229 -543h-17l-152 371l-179 -371h-17l-210 519 q-59 150 -94 191q-16 18 -70 32q-1 4 -1 8zM540 689q4 -62 71 -220q83 186 89 220q-45 3 -81 3z" />
<glyph unicode="X" horiz-adv-x="743" d="M1 17q28 8 55 34q44 42 143 162l117 142q-12 21 -42.5 74t-50.5 87q-55 92 -100 139q-24 25 -43 33t-65 11q-3 6 -3 16q0 8 3 14q33 0 90.5 2t67.5 2q6 0 23.5 -17.5t46 -56.5t58.5 -88q17 -29 47 -81t41 -70l38 47q6 8 24.5 30.5t25 30.5t21 27t22 30.5t18.5 29.5t20 35 t18 37q-49 2 -93 2q-4 8 -4 18q0 8 4 13h102q70 0 138 8q5 -6 5 -16l-1 -11q-39 -11 -80 -49t-114 -125l-122 -146q40 -73 106 -180q100 -162 163 -169q17 -1 60 -1q3 -7 3 -18q0 -8 -2 -13q-35 -2 -72 -7t-60 -9t-28 -4q-15 0 -53.5 43t-88.5 124q-56 88 -102 169l-52 -68 q-101 -133 -137 -215q49 -2 87 -2q2 -8 2 -18q0 -9 -2 -13h-102q-58 0 -126 -8q-6 9 -6 25z" />
<glyph unicode="Y" horiz-adv-x="723" d="M0 715q0 11 3 14q33 0 92.5 2t69.5 2t51.5 -55t94 -148.5t80.5 -177.5q15 26 45 77.5t45.5 79t35.5 65t31 65t16 49.5q-21 4 -81 4q-3 7 -3 16t3 15q66 -3 130 -3q58 0 104 8q6 -10 6 -17l-2 -8q-27 -8 -62 -34q-45 -32 -134 -169t-102 -187q-8 -21 -8 -146 q0 -64 10 -132q41 -7 115 -7q3 -7 3 -16q0 -2 -1.5 -7.5t-1.5 -7.5q-31 0 -89 1.5t-70 1.5q-116 0 -192 -8q-5 6 -5 17l1 8q52 8 80 20t37 25t14 37q7 35 7 82q0 77 -14 132q-14 54 -81.5 168t-122.5 174q-22 25 -41.5 33.5t-60.5 10.5q-3 6 -3 16z" />
<glyph unicode="Z" horiz-adv-x="737" d="M41 16q32 33 55 65q256 345 415 600h-120q-159 0 -244 -24q-7 -24 -19 -102q-7 -4 -21 -4q-6 0 -18 2q-3 72 -17 163q0 11 17 11q9 0 114 -3.5t166 -3.5h62q127 0 226 13q8 -10 8 -26q-11 -8 -42 -48q-79 -105 -205.5 -289t-220.5 -330h100q75 0 169 13t131 26 q24 32 56 98q22 0 38 -8q-19 -76 -31 -153q-1 -12 -13 -13q-25 -4 -140 -4q-56 0 -113.5 0.5t-70.5 0.5q-183 0 -275 -12q-7 12 -7 28z" />
<glyph unicode="[" horiz-adv-x="409" d="M153 -188q11 97 11 443v168q0 345 -11 442q4 10 15 10q83 -33 179 -47q4 -7 4 -15q0 -4 -4 -12q-49 -4 -72 -6q-20 -2 -30 -13.5t-11.5 -24.5t-2.5 -41q-2 -53 -2 -277v-200q0 -222 3 -288q1 -23 3 -34.5t11.5 -21t28.5 -12.5l72 -7q4 -8 4 -13l-4 -14q-100 -14 -179 -46 q-5 0 -8.5 2.5t-5.5 4.5z" />
<glyph unicode="\" horiz-adv-x="357" d="M9 831q37 18 48 28q3 1 8 1l11 -5q18 -117 119 -468l129 -460l-48 -30q-3 -1 -7 -1l-12 5q-17 118 -118 468z" />
<glyph unicode="]" horiz-adv-x="409" d="M59 -137q0 8 4 13q49 3 72 7q19 3 28.5 13t11 20.5t2.5 34.5q3 66 3 288v200q0 223 -1 277q-1 27 -3 40t-11.5 24.5t-29.5 14.5l-72 6q-4 5 -4 12l4 15q95 14 178 47q5 0 8.5 -2.5t4.5 -4.5l2 -3q-11 -97 -11 -442v-168q0 -346 11 -443q-4 -9 -15 -9q-79 32 -178 46 q-4 6 -4 14z" />
<glyph unicode="^" horiz-adv-x="556" d="M40 365q158 360 223 491h30q65 -131 223 -491q-17 -17 -41 -17l-194 400l-200 -400q-24 0 -41 17z" />
<glyph unicode="_" horiz-adv-x="567" d="M1 -91q8 20 14 48h268q162 0 276 10q9 -4 9 -16q-3 -6 -13 -48h-271q-160 0 -273 -8q-10 4 -10 14z" />
<glyph unicode="`" d="M199 697q14 35 56 51q27 -39 61.5 -85t55.5 -73l21 -26q-4 -17 -22 -17z" />
<glyph unicode="a" horiz-adv-x="493" d="M47 115q0 29 13 52.5t31 32.5q74 37 220 65v95q0 55 -17.5 82t-46.5 27q-20 0 -48 -8.5t-38 -29.5q-13 -27 -13 -71q0 -4 -13.5 -8.5t-29.5 -4.5q-25 0 -32.5 9.5t-7.5 28.5q0 36 52 78q12 8 70.5 27t67.5 19q72 0 106 -42t34 -103q0 -3 -1.5 -100t-1.5 -144 q0 -73 47 -73q4 0 17 0.5t19 0.5q4 -5 4 -16l-2 -11q-77 -14 -110 -41q-22 6 -37.5 27.5t-17.5 45.5q-80 -49 -159 -73q-34 0 -70 38.5t-36 96.5zM136 120q0 -24 19 -52t45 -28q23 0 55 17t53 36q3 59 3 136q-84 -11 -148 -48q-27 -13 -27 -61z" />
<glyph unicode="b" d="M11 815l2 13q54 10 83 20q27 9 88 47q5 0 8.5 -2.5t5.5 -4.5l1 -3q-20 -117 -20 -466q122 71 181 90q75 -16 132 -91.5t57 -186.5q0 -67 -32.5 -119t-80 -79t-91.5 -40t-77 -13q-26 0 -137 24l-39 -24q-5 0 -8.5 2t-5.5 4l-1 3q15 55 19 130.5t4 319.5v236q0 66 -10 92.5 t-42 31.5l-35 4q-2 8 -2 12zM179 88q0 -24 64 -47q48 -18 70 -18q57 0 104.5 51t47.5 119q0 104 -47 175t-105 71q-55 0 -134 -63v-288z" />
<glyph unicode="c" horiz-adv-x="476" d="M40 240q0 66 24 117.5t56 79t70.5 45t62 22.5t35.5 5q97 0 160 -58q-1 -5 -4.5 -13.5t-18.5 -25t-37 -21.5q-32 38 -64 58t-75 20q-50 0 -88 -60.5t-38 -128.5q0 -61 16.5 -112t56.5 -86t97 -35q58 0 147 38q9 -5 9 -20l-97 -66q-3 -2 -14 -6t-30.5 -8.5t-36.5 -4.5 q-113 0 -172 74t-59 186z" />
<glyph unicode="d" horiz-adv-x="604" d="M40 245q0 64 25 114.5t59 77t74 44.5t64.5 23t36.5 5q4 0 116 -16v182q0 29 -1 44t-5 36t-15 31.5t-29 12.5l-36 4q-4 8 -4 12l4 13q43 8 83 21q40 15 87 46q6 0 10 -2.5t5 -4.5l1 -3q-20 -76 -20 -636q0 -93 2 -129q2 -25 4.5 -38t12.5 -24t27 -11q12 0 36 1q4 -7 4 -17 l-1 -10q-33 -6 -61 -16t-39 -17l-12 -8q-15 0 -35 28t-20 63q-78 -50 -186 -91q-73 15 -130 90.5t-57 174.5zM124 283q0 -91 46.5 -161.5t102.5 -70.5q59 0 142 62v287q0 28 -68 47.5t-95 19.5q-42 0 -85 -57.5t-43 -126.5z" />
<glyph unicode="e" horiz-adv-x="517" d="M47 240q0 117 63 183t150 86q32 0 65.5 -10t68.5 -40.5t49 -78.5q3 -12 28 -13q6 -7 6 -18q0 -4 -2 -12q-176 -41 -346 -57q0 -57 15 -106t55.5 -85.5t100.5 -36.5q82 0 145 44q14 -5 16 -21l-108 -76q-24 -19 -102 -19q-88 0 -146 74.5t-58 185.5zM133 321q54 0 130 12 q62 11 100 24q5 3 5 6q0 6 -12.5 29.5t-43.5 50t-69 26.5q-30 0 -46 -10q-56 -38 -64 -138z" />
<glyph unicode="f" horiz-adv-x="352" d="M13 459q5 10 11 34h96q1 16 7 98q5 67 30.5 119t56.5 78.5t67.5 43t57.5 20.5t33 4q57 0 133 -37q-1 -6 -3 -15.5t-15 -30t-34 -28.5q-84 68 -128 68q-35 0 -71 -57t-43 -128q-7 -64 -8 -135q76 0 132 7q6 -4 6 -13q-4 -8 -6.5 -20.5t-3.5 -15.5l-130 -2v-150 q0 -266 12 -267q41 -4 106 -4q4 -8 4 -17q0 -6 -4 -14q-31 0 -79.5 1.5t-58.5 1.5q-83 0 -152 -8q-5 6 -5 17l1 8q25 5 41.5 12.5t25 18.5t11.5 19.5t5 23.5q11 77 11 324v33l-99 -1q-7 4 -7 12z" />
<glyph unicode="g" horiz-adv-x="563" d="M25 -205q0 11 12 20l146 97q-94 34 -94 107q0 8 20 21q44 26 136 71q-90 6 -140 60.5t-50 125.5q0 56 24 99.5t59.5 66.5t70 34.5t62.5 11.5q43 0 77 -10.5t48 -10.5l141 24q12 -16 12 -39q0 -16 -6 -28q-40 2 -122 3q29 -26 45.5 -61.5t16.5 -69.5q-1 -67 -39.5 -111 t-131.5 -94l-101 -53q-35 -19 -35 -40q0 -16 19 -30.5t56 -17.5l146 -15q154 -15 154 -144q0 -74 -98 -133t-216 -59q-88 0 -150 49.5t-62 125.5zM116 -216q0 -37 43.5 -76.5t121.5 -39.5q88 0 139 36.5t51 94.5q0 83 -115 94q-65 6 -132 10l-76 -60q-32 -27 -32 -59z M141 337q0 -75 40.5 -134.5t97.5 -59.5q55 0 85.5 40.5t30.5 100.5q0 84 -37.5 138t-98.5 54q-56 0 -87 -40t-31 -99z" />
<glyph unicode="h" horiz-adv-x="625" d="M17 816q0 7 3 12q45 8 80 20q18 6 30 12t32.5 18.5t26.5 16.5q5 0 9 -2.5t6 -4.5l1 -3q-20 -125 -20 -469q127 70 203 93q65 0 98 -48t33 -129q0 -5 -1 -56t-1 -72q0 -171 15 -173q15 -3 59 -3q4 -7 4 -16q0 -3 -4 -15q-19 0 -52.5 1.5t-39.5 1.5q-83 0 -132 -8 q-6 8 -6 17l2 8q41 9 55 27t17 47q2 21 2 137q0 36 -0.5 54.5t-3 48t-9 45t-17 32.5t-28.5 24t-42 7q-15 0 -31 -4t-29 -9t-29 -13.5t-24.5 -14t-22.5 -15t-16 -10.5q-1 -50 -1 -106q0 -231 13 -235q12 -4 52 -4q3 -7 3 -16t-3 -15q-19 0 -48.5 1.5t-35.5 1.5q-78 0 -141 -8 q-5 6 -5 17l1 8q41 9 55.5 27.5t19.5 46.5q10 57 10 328v256q0 29 -1 44t-5 36t-15 31.5t-28 12.5l-36 4q-3 5 -3 13z" />
<glyph unicode="i" horiz-adv-x="317" d="M33 456l3 13q52 11 84 22q33 12 77 34q5 0 9 -3t5 -6l1 -3q-12 -68 -12 -324q0 -46 3.5 -101.5t9.5 -56.5q15 -3 56 -3q3 -7 3 -16t-3 -15q-19 0 -51.5 1.5t-38.5 1.5q-70 0 -132 -8q-6 8 -6 17l2 8q21 5 35.5 12.5t22.5 19t11 19.5t7 23q5 18 5 125v96q0 36 -1 53.5 t-5.5 37t-15.5 27.5t-29 10l-37 3q-3 4 -3 13zM124 705q12 14 32.5 29.5t35.5 21.5q38 -28 49 -67q-28 -36 -66 -50q-36 25 -51 66z" />
<glyph unicode="j" horiz-adv-x="293" d="M-12 -364l44 44q55 55 67 125t12 276v224q0 68 -9 96.5t-43 31.5l-38 3q-2 7 -2 15l2 12q40 7 84 21q65 25 84 35q7 0 10.5 -2.5t4.5 -4.5v-3q-13 -73 -13 -320v-245q0 -102 -20.5 -159t-82.5 -105l-84 -64q-16 5 -16 20zM116 705q12 14 32.5 29.5t35.5 21.5 q38 -28 49 -67q-28 -36 -66 -50q-36 25 -51 66z" />
<glyph unicode="k" horiz-adv-x="539" d="M17 816q0 7 3 12q45 8 80 20q18 6 30 12t32.5 18.5t26.5 16.5q5 0 9 -2.5t6 -4.5l1 -3q-21 -131 -21 -469v-117q0 -263 13 -267q12 -4 52 -4q3 -7 3 -16t-3 -15q-19 0 -48.5 1.5t-35.5 1.5q-78 0 -141 -8q-5 6 -5 17l1 8q41 9 55.5 27.5t19.5 46.5q10 57 10 328v256 q0 29 -1 44t-5 36t-15 31.5t-28 12.5l-36 4q-3 5 -3 13zM205 299l98 72q55 40 102 90q-33 7 -74 8q-3 6 -3 15l3 12q82 -3 110 -3q24 0 74 4q6 -8 6 -24l-233 -154q52 -82 96 -150q50 -77 77 -107t47 -33q5 -1 19 -1q10 0 20 1q4 -10 4 -18q0 -7 -2 -11q-28 -2 -56.5 -7 t-46.5 -9t-22 -4q-13 0 -59.5 67.5t-100 155t-59.5 96.5z" />
<glyph unicode="l" horiz-adv-x="299" d="M11 9l1 8q47 9 62.5 27t20.5 47q10 57 10 328v256q0 29 -1 44t-5 36t-15 31.5t-28 12.5l-36 4q-3 5 -3 13q0 7 3 12q45 8 80 20q18 6 30 12t32.5 18.5t26.5 16.5q5 0 9 -2.5t6 -4.5l1 -3q-21 -131 -21 -469v-117q0 -263 13 -267q18 -4 78 -4q2 -7 2 -16t-2 -15 q-25 0 -63.5 1.5t-46.5 1.5q-86 0 -149 -8q-5 6 -5 17z" />
<glyph unicode="m" horiz-adv-x="915" d="M25 463l2 12q39 5 68.5 13.5t43 14.5t16.5 6q9 0 22 -28t22 -62q106 60 194 90q74 0 100 -92q105 59 200 92q54 0 84.5 -48.5t30.5 -128.5q0 -5 -0.5 -58t-0.5 -74q0 -167 14 -169q15 -3 55 -3q3 -7 3 -16t-3 -15q-19 0 -52.5 1.5t-39.5 1.5q-69 0 -119 -8q-5 6 -5 17 l1 8q34 9 44.5 26.5t14.5 47.5q5 35 5 133v38.5t-1 37.5t-3 37.5t-5.5 32t-9 29t-13.5 21.5t-19 15.5t-25 4.5q-56 0 -148 -64q3 -20 3 -44q0 -5 -0.5 -58t-0.5 -74q0 -167 14 -169q15 -3 43 -3q3 -7 3 -16t-3 -15q-19 0 -44.5 1.5t-31.5 1.5q-76 0 -132 -8q-5 6 -5 16l1 9 q41 9 54.5 27t17.5 47q5 35 5 133v38.5t-1 37.5t-3 37.5t-5.5 32t-9 29t-13.5 21.5t-19 15.5t-25 4.5q-61 0 -148 -64q-4 -79 -4 -204q0 -140 12 -141q11 -3 36 -3q4 -8 4 -17t-4 -14q-16 0 -40 1.5t-29 1.5q-76 0 -132 -8q-5 6 -5 17l1 8q29 7 45 19.5t20.5 24t6.5 30.5 q5 44 5 230q0 22 -0.5 33.5t-1.5 29.5t-4 27t-8.5 19t-14 14.5t-20.5 4.5q-4 0 -18.5 -0.5t-20.5 -0.5q-4 4 -4 15z" />
<glyph unicode="n" horiz-adv-x="631" d="M25 461q0 8 2 14q39 5 68.5 13.5t43 14.5t16.5 6q9 0 22 -28t22 -62q101 57 197 90q61 0 94 -48.5t33 -128.5q0 -5 -1 -58t-1 -74q0 -167 15 -169q15 -3 56 -3q4 -7 4 -16q0 -7 -4 -15q-19 0 -52.5 1.5t-39.5 1.5q-83 0 -132 -8q-5 6 -5 17l1 8q29 7 45 19.5t20.5 24 t6.5 30.5q4 28 4 133v46.5t-2 42.5t-5 41.5t-9.5 33.5t-15.5 28.5t-23.5 16.5t-32.5 7q-28 0 -59 -12t-47 -22t-45 -30q-4 -79 -4 -204q0 -140 12 -141q15 -3 52 -3q4 -7 4 -16q0 -7 -4 -15q-19 0 -49 1.5t-36 1.5q-76 0 -132 -8q-5 6 -5 17l1 8q29 7 45 19.5t20.5 24 t6.5 30.5q5 44 5 230q0 22 -0.5 33.5t-1.5 29.5t-4 27t-8.5 19t-14 14.5t-20.5 4.5q-5 0 -20.5 -0.5t-18.5 -0.5q-4 5 -4 13z" />
<glyph unicode="o" d="M40 244q0 224 259 265q105 0 177.5 -77t72.5 -188q0 -222 -258 -264q-106 0 -178.5 75.5t-72.5 188.5zM132 283q0 -104 49 -182t132 -78q144 0 144 184q0 104 -48 182t-130 78q-76 0 -111.5 -50.5t-35.5 -133.5z" />
<glyph unicode="p" horiz-adv-x="596" d="M20 459l1 9q34 6 63 16t41 18l12 7q15 0 34 -25.5t21 -62.5q57 36 83.5 49t92.5 39q73 -14 130.5 -89.5t57.5 -175.5q0 -57 -18 -102.5t-48 -73t-62 -46.5t-66 -27.5t-54.5 -11.5t-32.5 -3q-28 0 -88 15v-56q0 -267 12 -268q30 -3 112 -3q2 -7 2 -16t-2 -15 q-31 0 -83 1.5t-61 1.5q-86 0 -140 -8q-6 6 -6 17l2 8q41 10 55.5 28t18.5 46q10 70 10 328v244q0 80 -9.5 110t-38.5 30q-5 0 -17 -1t-18 -1q-4 7 -4 18zM187 79q0 -15 57 -35.5t80 -20.5q64 0 106 54t42 130q0 91 -49 161.5t-106 70.5q-53 0 -128 -63q-2 -83 -2 -297z" />
<glyph unicode="q" horiz-adv-x="601" d="M40 232q0 75 29.5 131.5t77 86.5t98 44.5t102.5 14.5q11 0 118 -26q7 3 21.5 13t18.5 13q5 0 8.5 -2.5t4.5 -4.5l2 -2q-8 -20 -15.5 -82.5t-7.5 -106.5v-236q0 -274 10 -344q4 -28 19.5 -45t56.5 -22q1 -4 1 -8q0 -12 -5 -17q-55 1 -140 1q-61 0 -143 -3q-3 6 -3 16t3 15 q34 0 109 5q14 3 14 266v132q-54 -33 -86.5 -48.5t-100.5 -42.5q-73 15 -132.5 87.5t-59.5 164.5zM124 269q0 -85 49 -151.5t106 -66.5q60 0 140 62v288q0 25 -58.5 45.5t-85.5 20.5q-58 0 -104.5 -57t-46.5 -141z" />
<glyph unicode="r" horiz-adv-x="423" d="M23 463l2 12q39 5 68.5 13.5t43 14.5t16.5 6q11 0 25 -39.5t17 -78.5q75 78 136 118q40 0 66 -23.5t26 -58.5q0 -40 -71 -40q-15 53 -51 53q-24 0 -100 -83q-6 -76 -6 -242q0 -83 13 -84q23 -3 81 -3q3 -7 3 -16t-3 -15q-25 0 -64.5 1.5t-47.5 1.5q-82 0 -145 -8 q-5 6 -5 17l1 8q26 5 43 12.5t25 18.5t10.5 19.5t4.5 23.5q6 44 6 230q0 22 -0.5 33t-1.5 29t-4 27t-8.5 19.5t-14.5 15t-21 4.5q-5 0 -19 -0.5t-20 -0.5q-5 5 -5 15z" />
<glyph unicode="s" horiz-adv-x="463" d="M59 128q11 7 20 7q6 0 9 -2q1 -3 7.5 -22t13 -32.5t14.5 -22.5q11 -11 39 -24t62 -13q43 0 71 21t28 63q0 13 -4 25.5t-11 21.5t-14.5 16.5t-17 13.5t-16 9.5l-13 7t-7.5 3.5l-75 36q-97 46 -97 133q0 71 54 105.5t122 34.5q33 0 74.5 -8.5t62.5 -17.5q-7 -24 -16 -112 q-5 -4 -16 -4q-6 0 -14 2q-8 50 -16 78q-30 26 -87 26q-38 0 -62.5 -20t-24.5 -58q0 -25 18.5 -47.5t45.5 -35.5l78 -37q114 -55 114 -147q0 -68 -54 -108t-128 -40q-39 0 -81.5 7.5t-60.5 15.5q-3 45 -18 125z" />
<glyph unicode="t" horiz-adv-x="360" d="M16 457q5 10 9 36h71q8 0 8 35l-1 85q37 15 76 62q12 0 18 -6q-9 -105 -9 -176q73 0 144 7q7 -4 7 -12q-6 -10 -10 -37l-142 -2v-234q0 -166 57 -166q42 0 109 28q15 -5 15 -28q-73 -39 -168 -69q-47 0 -71.5 48t-24.5 129v232q0 59 -7 59l-74 -1q-7 2 -7 10z" />
<glyph unicode="u" horiz-adv-x="605" d="M16 476l3 12q17 3 77 13l71 15q4 -1 7.5 -4t5.5 -6l1 -2q-8 -55 -8 -289q0 -164 88 -164q31 0 62.5 11t47.5 21.5t41 29.5q3 66 3 95v121q0 37 -1 53.5t-5.5 36t-15 28t-28.5 12.5l-33 4q0 2 -1.5 6.5t-1.5 6.5l3 12q10 2 36.5 5t51.5 8q63 13 69 15q5 -1 8.5 -4t4.5 -6 l2 -2q-9 -68 -9 -224l1 -143q0 -90 45 -90q5 0 17.5 0.5t18.5 0.5q4 -7 4 -16l-1 -11q-18 -3 -34 -7.5t-26.5 -8t-20.5 -8.5l-15 -7.5t-10 -5.5l-5 -4q-22 8 -37 35.5t-17 55.5q-85 -53 -195 -91q-64 0 -95.5 47.5t-31.5 129.5v191q0 68 -6 86.5t-35 24.5l-33 4q-3 6 -3 13z " />
<glyph unicode="v" horiz-adv-x="496" d="M-21 484q0 12 6 19q69 -10 107 -10q7 0 20.5 0.5t32.5 1.5t31 1q3 -5 3 -15l-3 -16q-31 0 -44 -2q9 -71 47 -155l88 -193l69 185q36 97 45 160q-30 5 -64 5q-2 7 -2 16q0 10 2 15q40 -3 87 -3q48 0 84 6q7 -11 7 -26q-25 -11 -36 -22q-34 -34 -63 -107l-148 -364h-15 l-148 348q-41 99 -65 125q-13 16 -40 24q-1 3 -1 7z" />
<glyph unicode="w" horiz-adv-x="795" d="M-13 484q0 12 6 19q69 -10 107 -10q7 0 20.5 0.5t32.5 1.5t31 1q3 -5 3 -15l-3 -16q-31 0 -44 -2q7 -57 45 -155l74 -191l138 376h27l144 -376l71 182q35 87 46 161q-20 3 -64 5q-2 7 -2 16q0 10 2 15q19 0 49 -1.5t38 -1.5q36 0 84 7q7 -13 7 -25q-27 -12 -38 -23 q-34 -36 -69 -123l-140 -349h-15l-148 373l-145 -373h-15l-144 351q-45 108 -60 122q-16 17 -37 24q-1 3 -1 7z" />
<glyph unicode="x" horiz-adv-x="523" d="M8 13l1 7q26 7 46 27q36 37 82 98l76 100l-45 79q-47 83 -67.5 111t-40.5 28h-47q-2 12 -2 16q0 9 1 14q42 2 87 9t52 7q4 0 20 -29t46.5 -86t54.5 -97l60 74q41 51 57 89q-16 3 -57 3q-3 8 -3 17t3 13h81q38 0 83 7q7 -8 7 -25q-21 -8 -37 -20t-49 -46t-48 -52l-78 -92 l62 -98q65 -103 77 -116q19 -22 38 -22h39q2 -8 2 -14q0 -7 -2 -15q-30 0 -58 -2t-45 -4.5t-20 -2.5q-23 0 -101 137l-48 81l-22 -30q-73 -98 -89 -148q24 -3 60 -3q3 -7 3 -16t-3 -15q-43 3 -84 3q-53 0 -85 -5q-7 6 -7 18z" />
<glyph unicode="y" horiz-adv-x="535" d="M-12 477q0 18 5 26q66 -10 104 -10q7 0 21 0.5t33.5 1.5t31.5 1q2 -5 2 -15l-2 -16q-31 0 -44 -2q9 -61 48 -155l97 -240l87 223q44 113 50 168q-36 4 -74 4q-4 6 -4 17q0 5 2 13h98q46 0 84 6q8 -13 8 -26q-25 -11 -36 -22q-27 -29 -59 -103l-145 -348q-13 -31 -68 -176 q-3 -8 -14.5 -38t-21.5 -56.5t-22.5 -55t-24 -45.5t-19.5 -17q-5 0 -20.5 5.5t-43 13.5t-54.5 14q0 20 9 32q36 -6 39 -6q29 0 74.5 67.5t70.5 133.5l36 96l-163 400q-25 63 -46 85q-13 16 -39 24z" />
<glyph unicode="z" horiz-adv-x="501" d="M27 19q18 18 34 41q160 228 262 397h-84q-104 0 -147 -13l-12 -77q-5 -4 -16 -4q-7 0 -15 2q-3 29 -8.5 58.5t-8.5 45.5t-3 19q0 9 16 9q6 0 76.5 -2t109.5 -2h42q106 0 160 6q7 -8 7 -26q-21 -19 -36 -41l-257 -396h66q53 0 114 9t86 18l27 69q9 3 11 3q8 0 20 -6 q-15 -110 -15 -116q0 -8 -7 -10q-18 -6 -101 -6q-19 0 -79.5 1.5t-76.5 1.5q-103 0 -157 -5q-4 4 -6 10t-2 10v4z" />
<glyph unicode="{" horiz-adv-x="404" d="M107 359q28 27 45 64.5t22 63t13 82.5q30 213 48 295l124 39q10 -10 10 -28q-44 -26 -66 -46q-19 -17 -33 -152.5t-14 -244.5q-21 -33 -89 -73q30 -18 52.5 -38.5t29.5 -32.5l7 -12q0 -114 16 -263t35 -166q11 -10 27.5 -21t27.5 -17l11 -6q0 -9 -2.5 -16.5t-4.5 -10.5 l-3 -4l-127 41q-19 100 -49 335q-7 54 -13 83.5t-23 66.5t-44 61z" />
<glyph unicode="|" horiz-adv-x="284" d="M103 -415q10 98 10 483v772q30 7 54 16q4 0 7.5 -2t5.5 -4l1 -3q-10 -98 -10 -483v-772q-30 -7 -54 -16q-4 0 -7.5 2t-5.5 4z" />
<glyph unicode="}" horiz-adv-x="404" d="M31 -197q42 21 66 44q19 17 35 166t16 263q2 5 7.5 13t28.5 30t53 40q-30 18 -52.5 36t-29.5 27l-7 10q0 109 -14 244.5t-33 152.5q-10 9 -26.5 20.5t-28.5 18.5l-11 7q0 8 2.5 15t4.5 10l3 3l124 -39q18 -82 48 -295q8 -57 13 -82.5t22 -63t45 -64.5q-27 -24 -44 -61 t-23 -66.5t-13 -83.5q-30 -238 -49 -335l-127 -41q-10 11 -10 31z" />
<glyph unicode="~" horiz-adv-x="655" d="M40 356q26 15 62 38.5t56.5 36t29.5 12.5q41 0 159 -28q85 -20 154 -20q28 0 99 32q10 -6 15 -26q-26 -15 -61.5 -38t-56 -35.5t-29.5 -12.5q-33 0 -159 28q-92 20 -154 20q-9 0 -18 -1.5t-20.5 -5.5t-17.5 -6t-22 -9.5t-22 -9.5q-10 6 -15 25z" />
<glyph unicode="&#xa1;" horiz-adv-x="335" d="M112 -275l49 570l38 4q0 -34 1 -166t1 -150q0 -168 26 -174l24 -4q2 -4 2 -12l-4 -13q-44 -16 -122 -64q-15 0 -15 9zM123 453q10 14 32.5 31t41.5 25q39 -32 58 -74q-37 -39 -78 -58q-41 39 -54 76z" />
<glyph unicode="&#xa2;" horiz-adv-x="464" d="M40 247q0 63 19.5 113t52 80t61.5 47t60 26v102q16 3 38 10q7 0 10 -6q-4 -56 -4 -95q99 0 156 -59q-1 -5 -4 -13t-17.5 -24t-35.5 -21q-42 64 -100 73v-440h11q34 0 61 9t75 34q8 -6 9 -20l-89 -66q-27 -13 -67 -17v-101q-12 -3 -36 -11q-4 0 -7 2t-4 4l-1 1l4 108 q-92 12 -142 86.5t-50 177.5zM109 288q0 -82 32 -149t92 -90v432q-48 -4 -86 -65t-38 -128z" />
<glyph unicode="&#xa3;" horiz-adv-x="483" d="M40 10q39 29 55 81.5t16 153.5q-19 0 -52 -3q-8 3 -8 12q8 17 10 32h50q1 61 26 110.5t58 75.5t59 39.5t37 13.5q33 0 73 -9t61 -18q-8 -27 -16 -110q-8 -6 -14 -6q-2 0 -4 0.5t-3.5 1t-3.5 1.5t-3 1q-3 37 -16 76q-7 9 -30 18.5t-56 9.5q-35 0 -61 -55t-30 -149 q97 0 156 7q8 -3 8 -12q-7 -12 -11 -35h-153v-22q0 -105 -56 -174q36 -2 111 -2q71 0 121 18q17 39 33 86q4 1 11 1q10 0 21 -9q-11 -68 -17 -118q-3 -21 -8 -22q-24 -6 -108 -6q-23 0 -57 1t-35 1h-37q-79 0 -119 -10q-4 3 -6 8t-2 8v4z" />
<glyph unicode="&#xa4;" horiz-adv-x="559" d="M47 55l1 5q39 21 103 85q-36 44 -36 108q0 61 29 99l-81 76q15 21 33 53q1 2 4 2l5 -2q18 -35 75 -97q37 24 105 36q49 0 92 -28l75 91q22 -18 55 -31q1 -1 1 -4l-1 -5q-34 -21 -94 -83q38 -44 38 -107q0 -65 -34 -102l95 -82q-15 -18 -32 -56q-1 -1 -4 -1l-5 1 q-21 38 -90 107q-42 -25 -101 -33q-53 0 -93 26l-86 -94q-20 15 -53 32q-1 1 -1 4zM181 261q0 -54 27 -89.5t75 -35.5q100 0 100 109q0 55 -25.5 90.5t-74.5 35.5q-102 0 -102 -110z" />
<glyph unicode="&#xa5;" horiz-adv-x="577" d="M20 497q0 8 1 12q25 0 64.5 2t46.5 2q8 0 40.5 -36t73 -95t62.5 -111q18 26 53.5 76.5t53.5 79t26 50.5q-16 3 -65 3q-3 9 -3 19q0 1 3 13q11 0 27.5 -0.5t28.5 -1t25.5 -1t21.5 -0.5q40 0 74 6q4 -4 4 -16l-1 -10q-21 -5 -41 -21q-20 -15 -58.5 -61t-72.5 -95 q35 0 115 7q8 -3 8 -12q-3 -5 -11 -36q-38 0 -80 0.5t-60 0.5q-20 -33 -24 -47q-4 -8 -4 -30q87 0 155 6q8 -2 8 -12q-3 -5 -5 -10.5t-3.5 -14.5t-2.5 -11q-81 2 -152 2v-14q0 -55 7 -108q24 -5 76 -5q1 -8 1 -17q0 -10 -1 -14q-22 0 -62 1.5t-48 1.5q-76 0 -138 -8 q-4 5 -4 16l1 9q20 3 35.5 7t25.5 9.5t16.5 10.5t9.5 11.5t4 11.5t2 12q3 18 3 76q-85 0 -163 -7q-8 3 -8 12q8 15 11 35h156q-2 23 -7 37t-17 39q-22 0 -117 -7q-8 3 -8 12q7 16 10 35h90q-45 69 -110 142q-15 17 -27 22.5t-45 7.5q-1 6 -1 14z" />
<glyph unicode="&#xa6;" horiz-adv-x="284" d="M113 152q21 5 50 16q4 0 7.5 -2t5.5 -4l1 -3q-10 -98 -10 -483v-68l-54 -23v567zM113 300v540q30 7 54 16q4 0 7.5 -2t5.5 -4l1 -3q-10 -98 -10 -483v-41z" />
<glyph unicode="&#xa7;" horiz-adv-x="635" d="M45 -5q18 10 32 10q8 0 14 -1q4 -21 18 -72.5t20 -64.5q2 -6 10 -13.5t30 -16t51 -8.5q47 0 87.5 42t40.5 110q0 46 -30 93t-73 89t-86 85.5t-73 99t-30 112.5q0 116 99.5 196t227.5 80q84 0 165 -21q-6 -45 -13 -174q-5 -5 -23 -5q-15 0 -20 4q-1 16 -8.5 71t-11.5 69 q-21 15 -61 15q-60 0 -101 -38t-41 -100q0 -36 22 -72.5t54.5 -66t71 -67.5t71 -75t54.5 -91t22 -114q0 -121 -94.5 -204.5t-224.5 -83.5q-98 0 -177 28q-12 118 -23 184zM133 484q0 -51 30 -103.5t73 -97.5t86 -89t73 -94t30 -96q0 -80 -66 -153q56 23 94 75.5t38 118.5 q0 51 -16.5 95.5t-42.5 77.5t-57.5 63.5t-63 59t-57.5 57t-42.5 65t-16.5 76.5q0 60 48 121q-110 -64 -110 -176z" />
<glyph unicode="&#xa8;" horiz-adv-x="629" d="M148 657q12 14 32.5 29.5t35.5 21.5q38 -28 49 -67q-28 -36 -66 -50q-36 25 -51 66zM364 657q12 14 32.5 29.5t35.5 21.5q38 -28 49 -67q-28 -36 -66 -50q-36 25 -51 66z" />
<glyph unicode="&#xa9;" horiz-adv-x="869" d="M60 357q0 158 109.5 268.5t265.5 110.5t265 -110.5t109 -268.5q0 -157 -109 -267.5t-265 -110.5t-265.5 110.5t-109.5 267.5zM113 357q0 -138 95 -235.5t227 -97.5t226.5 97.5t94.5 235.5t-94.5 236t-226.5 98t-227 -98t-95 -236zM233 355q0 57 20.5 102t48.5 68.5 t61.5 39t54 19.5t30.5 4q61 0 139 -24q-6 -24 -15 -112q-12 -3 -13 -3q-7 0 -14 2q0 3 -14 72q-46 25 -108 25q-46 0 -79 -49.5t-33 -111.5q0 -80 35.5 -138t105.5 -58q45 0 128 34q7 -6 7 -17l-84 -60l-3 -2q-4 -1 -8.5 -3t-12 -4t-14.5 -4t-16 -3t-17 -1q-97 0 -148 64 t-51 160z" />
<glyph unicode="&#xaa;" horiz-adv-x="336" d="M53 521q0 33 24 47q38 19 119 35v52q0 58 -28 58q-9 0 -22 -6t-18 -19q-7 -17 -7 -44q0 -7 -29 -7q-13 0 -19.5 5t-7.5 10t-1 15q0 20 29 42q7 5 40.5 15.5t38.5 10.5q42 0 62.5 -23t20.5 -55q0 -2 -1 -55t-1 -78q0 -39 26 -39q2 0 8.5 1t9.5 1q3 -6 3 -22 q-56 -6 -71 -16q-28 9 -32 40q-42 -27 -84 -40q-19 0 -39.5 21t-20.5 51zM115 524q0 -10 8.5 -23t19.5 -13q24 0 53 29v60q-43 -6 -69 -24q-12 -7 -12 -29z" />
<glyph unicode="&#xab;" horiz-adv-x="515" d="M33 241v14q57 47 120 107.5t96 100.5q10 0 16.5 -5t8.5 -10l2 -5l-139 -195l139 -195q-5 -20 -27 -20q-81 96 -216 208zM228 241v14q145 121 216 208q9 0 16 -5t9 -10l2 -5l-139 -195l139 -195q-6 -20 -27 -20q-82 96 -216 208z" />
<glyph unicode="&#xac;" horiz-adv-x="537" d="M40 297q5 13 13 51h430v-52q0 -103 8 -157q-4 -10 -15 -10q-12 5 -53 14v148h-215q-72 0 -159 -8q-9 4 -9 14z" />
<glyph unicode="&#xad;" horiz-adv-x="380" d="M47 227q7 20 13 48h143q64 0 121 9q9 -4 9 -15q-7 -20 -13 -48h-143q-64 0 -121 -9q-9 4 -9 15z" />
<glyph unicode="&#xae;" horiz-adv-x="551" d="M33 499q0 105 71 177t175 72q103 0 174 -72t71 -177q0 -104 -71 -175.5t-174 -71.5t-174.5 71.5t-71.5 175.5zM81 499q0 -84 58.5 -145t139.5 -61t139.5 61t58.5 145q0 85 -58.5 146.5t-139.5 61.5t-139.5 -61.5t-58.5 -146.5zM168 385l1 10q22 6 26 28q2 17 2 78 q0 59 -1 82q0 29 -4 29q-4 3 -19 3q-1 4 -1 9q0 4 1 7h104q94 0 94 -70q0 -53 -56 -69q9 -26 18 -43q18 -29 27 -37.5t19 -8.5h16q4 -6 4 -12q0 -7 -2 -10q-16 -1 -31.5 -2.5t-24 -2.5t-10.5 -1q-4 0 -14.5 21.5t-24 53.5t-16.5 38h-7q-17 0 -28 1v-49q0 -27 2 -37 q8 -4 30 -4q2 -6 2 -12q0 -7 -2 -10h-102q-3 0 -3 8zM241 512q4 -1 26 -1q24 0 40 12.5t16 33.5q0 23 -11.5 37t-35.5 14q-21 0 -32 -1q-3 -26 -3 -95z" />
<glyph unicode="&#xaf;" horiz-adv-x="624" d="M148 607q7 18 13 45q215 0 310 7q9 -4 9 -16q-5 -10 -13 -44q-195 0 -310 -7q-9 4 -9 15z" />
<glyph unicode="&#xb0;" horiz-adv-x="455" d="M61 573q0 71 49 112t130 51q66 0 109.5 -44.5t43.5 -110.5q0 -72 -46.5 -112t-126.5 -50q-68 0 -113.5 43.5t-45.5 110.5zM137 595q0 -53 27 -90.5t73 -37.5q40 0 61 26t21 66q0 53 -25.5 91t-72.5 38q-42 0 -63 -26t-21 -67z" />
<glyph unicode="&#xb1;" horiz-adv-x="532" d="M40 7q4 10 13 50h211q121 0 219 10q9 -4 9 -16q-2 -4 -13 -51h-214q-118 0 -216 -8q-9 4 -9 15zM53 283q10 23 14 50h169q0 76 -9 167q4 9 16 9q22 -10 52 -13v-163q106 0 188 10q9 -4 9 -16q-9 -18 -13 -51h-184q0 -81 8 -161q-4 -10 -15 -10q-23 9 -52 14v157 q-92 0 -173 -8q-10 4 -10 15z" />
<glyph unicode="&#xb2;" horiz-adv-x="311" d="M15 321l102 116q79 91 79 143q0 27 -15 44t-41 17q-28 0 -68 -10l-9 -56q-4 -3 -14 -3q-7 0 -10 3q-8 60 -8 68q0 6 6 8l112 32q52 0 85.5 -22.5t33.5 -72.5q0 -25 -14 -49t-53 -70l-98 -117h58q81 0 84 13l14 40q16 0 25 -4q-6 -31 -8 -89q-18 -9 -64 -9q-5 0 -32.5 0.5 t-42.5 0.5h-117q-5 8 -5 17z" />
<glyph unicode="&#xb3;" horiz-adv-x="289" d="M7 316q5 29 32 53q62 -42 89 -42q31 0 47.5 27t16.5 61q0 64 -100 80l81 132h-56q-28 0 -56 -4l-6 -44q-6 -3 -14 -3t-13 3q-7 82 -7 92q0 5 6 5h134q46 0 83 5q8 -3 8 -13l-89 -133q100 -31 100 -106q0 -57 -45 -96.5t-106 -39.5q-59 0 -105 23z" />
<glyph unicode="&#xb4;" d="M192 564q77 97 139 184q40 -16 56 -51l-172 -150q-8 0 -14 4.5t-7 8.5z" />
<glyph unicode="&#xb5;" horiz-adv-x="608" d="M88 493l80 16l16 -12q-12 -72 -12 -277q0 -169 95 -169q30 0 61.5 11.5t46.5 21.5t42 29v167l-1 213l76 16l15 -12q-8 -61 -8 -218v-111q0 -127 36 -127q28 0 61 10q4 -4 6 -9.5t2 -9.5v-4q-103 -48 -127 -48q-15 0 -33.5 24.5t-23.5 66.5q-85 -54 -192 -91q-52 0 -79 45 q3 -89 24.5 -159t39.5 -89q17 -15 36 -18q3 -11 3 -24q-104 -14 -115 -16q-45 128 -45 518z" />
<glyph unicode="&#xb6;" horiz-adv-x="908" d="M80 432q0 130 66 210.5t207 80.5q14 0 37.5 -1.5t30.5 -1.5h28q4 -8 4 -19q0 -10 -4 -18h-17q-62 0 -93 -77t-31 -189q0 -253 100 -253h41q4 -7 4 -19l-4 -18h-29q-8 0 -31 -1.5t-36 -1.5q-126 0 -199.5 85t-73.5 223zM369 -255q0 6 2 11l64 31q25 12 42 38t25.5 52.5 t13 69t5 67t0.5 67.5v639h146q49 0 96.5 1.5t59.5 1.5q2 -7 2 -18l-2 -18q-29 0 -58 -6q-14 -3 -14 -208v-397q0 -226 -130 -275l-233 -88q-19 10 -19 32zM543 -179l26 12q106 49 106 235v345q0 175 -4 267q-47 0 -70 -3v-609q0 -66 -2 -96.5t-15 -70.5t-41 -80z" />
<glyph unicode="&#xb7;" horiz-adv-x="249" d="M67 288q36 40 77 57q41 -39 55 -76q-11 -14 -33.5 -31t-41.5 -25q-38 31 -57 75z" />
<glyph unicode="&#xb8;" horiz-adv-x="508" d="M200 -255l1 12q128 2 128 56q0 25 -23 41.5t-74 29.5q-5 2 -5 7l1 3q0 2 0.5 7t0.5 10l15 89h40l-7 -68q54 -22 77 -45t23 -64q0 -38 -17 -57t-47 -34h-110q-3 4 -3 13z" />
<glyph unicode="&#xb9;" horiz-adv-x="227" d="M17 623q65 27 124 62q10 -2 16.5 -5.5t8.5 -5.5l1 -3q-12 -44 -12 -171v-165q13 -3 49 -3q3 -7 3 -16q0 -5 -3 -12h-173q-2 11 -2 24q56 10 59 24q5 20 5 145v114l-65 -16q-11 8 -11 28z" />
<glyph unicode="&#xba;" horiz-adv-x="388" d="M49 592q0 122 147 144q60 0 101.5 -42t41.5 -102q0 -119 -148 -143q-59 0 -100.5 41.5t-41.5 101.5zM113 613q0 -55 25 -96t65 -41q70 0 70 96q0 56 -23.5 96.5t-64.5 40.5q-72 0 -72 -96z" />
<glyph unicode="&#xbb;" horiz-adv-x="515" d="M44 53l139 195l-139 195q5 20 27 20q33 -40 96 -100.5t120 -107.5v-14q-135 -112 -216 -208q-10 0 -16.5 5t-8.5 10zM239 53l138 195l-138 195q5 20 26 20q76 -91 216 -208v-14q-134 -112 -216 -208q-9 0 -15.5 5t-8.5 10z" />
<glyph unicode="&#xbc;" horiz-adv-x="624" d="M17 623q65 27 124 62q10 -2 16.5 -5.5t8.5 -5.5l1 -3q-12 -44 -12 -171v-165q13 -3 49 -3q3 -7 3 -16q0 -5 -3 -12h-173q-2 11 -2 24q56 10 59 24q5 20 5 145v114l-65 -16q-11 8 -11 28zM96 5l207 363q136 243 192 357q2 3 8 3q4 0 8 -3q4 -5 29 -30l-201 -354 q-20 -35 -100 -184t-95 -182q-2 -3 -8 -3q-4 0 -7 3q-4 5 -9.5 10t-12.5 11t-11 9zM308 108q27 28 35 39l174 246q13 0 26 -9q-7 -43 -7 -151v-98q25 0 32 18l11 27q13 0 21 -7q-4 -18 -8 -72q-16 -8 -56 -8v-62q13 -3 41 -3q3 -7 3 -16q0 -5 -3 -12h-154q-3 7 -3 24 q50 7 53 21q3 9 3 48l-91 2q-34 0 -70 -4q-7 6 -7 17zM383 135h93v141z" />
<glyph unicode="&#xbd;" horiz-adv-x="688" d="M17 623q65 27 124 62q10 -2 16.5 -5.5t8.5 -5.5l1 -3q-12 -44 -12 -171v-165q13 -3 49 -3q3 -7 3 -16q0 -5 -3 -12h-173q-2 11 -2 24q56 10 59 24q5 20 5 145v114l-65 -16q-11 8 -11 28zM96 5l207 363q136 243 192 357q2 3 8 3q4 0 8 -3q4 -5 29 -30l-201 -354 q-20 -35 -100 -184t-95 -182q-2 -3 -8 -3q-4 0 -7 3q-4 5 -9.5 10t-12.5 11t-11 9zM392 17l103 116q78 88 78 143q0 27 -15 44t-41 17q-28 0 -68 -10l-9 -56q-4 -3 -13 -3q-7 0 -11 3q-8 60 -8 68q0 6 7 8l112 32q51 0 84.5 -22.5t33.5 -72.5q0 -26 -14.5 -50.5t-51.5 -68.5 l-99 -117h59q80 0 84 13l13 40q16 0 25 -4q-3 -19 -8 -89q-18 -9 -64 -9q-5 0 -32.5 0.5t-41.5 0.5h-118q-5 8 -5 17z" />
<glyph unicode="&#xbe;" horiz-adv-x="649" d="M7 316q5 29 32 53q62 -42 89 -42q31 0 47.5 27t16.5 61q0 64 -100 80l81 132h-56q-28 0 -56 -4l-6 -44q-6 -3 -14 -3t-13 3q-7 82 -7 92q0 5 6 5h134q46 0 83 5q8 -3 8 -13l-89 -133q100 -31 100 -106q0 -57 -45 -96.5t-106 -39.5q-59 0 -105 23zM121 5l207 363 q116 204 192 357q3 3 8 3q4 0 8 -3q4 -5 29 -30l-201 -354q-16 -28 -98 -180t-97 -186q-1 -3 -8 -3q-4 0 -6 3q-6 7 -19 17.5t-15 12.5zM333 108q27 28 35 39l175 246q13 0 25 -9q-7 -43 -7 -151v-98q25 0 32 18l11 27q14 0 21 -7q-4 -18 -6 -44t-2 -28q-16 -8 -56 -8v-62 q14 -3 42 -3q2 -7 2 -16q0 -5 -2 -12h-155q-3 7 -3 24q50 7 54 21q2 12 2 48l-90 2q-35 0 -71 -4q-7 7 -7 17zM408 135h93v141z" />
<glyph unicode="&#xbf;" horiz-adv-x="416" d="M53 -28q0 23 4 48q29 68 65.5 101t102.5 48q6 17 23 124q7 4 21 4q6 0 18 -2q3 -48 7 -85.5t7 -55.5t3 -23q0 -7 -11 -9q-4 0 -6 -1q-67 -11 -121.5 -34.5t-61.5 -57.5q-5 -20 -5 -44q0 -54 36 -89t110 -56q10 -3 30.5 -8t30 -8t21 -7t16.5 -8t5 -9q0 -6 -4.5 -44.5 t-4.5 -75.5q-2 0 -7 -1.5t-8 -1.5q-2 0 -16 4q0 23 -5 36q-21 15 -63.5 29.5t-56.5 21.5q-130 63 -130 204zM213 453q11 14 33.5 31.5t41.5 24.5q37 -31 57 -74q-35 -39 -77 -58q-40 38 -55 76z" />
<glyph unicode="&#xc0;" horiz-adv-x="747" d="M-7 9l2 8q51 14 74.5 44t70.5 136l247 560h16l230 -588q1 -3 16 -37.5t28 -62.5t20 -38q28 -3 52 -3q3 -7 3 -16t-3 -15q-18 0 -65 1.5t-52 1.5q-76 0 -133 -8q-6 8 -6 17l2 8q39 9 54.5 20.5t15.5 29.5q0 10 -14 52l-59 150q-54 3 -129 3q-32 0 -77 -1.5t-66 -1.5 l-25 -64q-50 -124 -50 -176q23 -1 70 -1q2 -7 2 -15q0 -10 -2 -16q-22 0 -60.5 1.5t-45.5 1.5q-63 0 -110 -8q-6 7 -6 17zM235 308q3 0 50 -2t78 -2q69 0 116 3l-116 306zM256 895q10 34 48 58q32 -34 73 -74.5t66 -64.5l25 -23q-3 -19 -20 -20z" />
<glyph unicode="&#xc1;" horiz-adv-x="747" d="M-7 9l2 8q51 14 74.5 44t70.5 136l247 560h16l230 -588q1 -3 16 -37.5t28 -62.5t20 -38q28 -3 52 -3q3 -7 3 -16t-3 -15q-18 0 -65 1.5t-52 1.5q-76 0 -133 -8q-6 8 -6 17l2 8q39 9 54.5 20.5t15.5 29.5q0 10 -14 52l-59 150q-54 3 -129 3q-32 0 -77 -1.5t-66 -1.5 l-25 -64q-50 -124 -50 -176q23 -1 70 -1q2 -7 2 -15q0 -10 -2 -16q-22 0 -60.5 1.5t-45.5 1.5q-63 0 -110 -8q-6 7 -6 17zM235 308q3 0 50 -2t78 -2q69 0 116 3l-116 306zM323 791q90 85 164 162q38 -24 48 -58l-192 -124q-8 0 -13 5t-6 10z" />
<glyph unicode="&#xc2;" horiz-adv-x="747" d="M-7 9l2 8q51 14 74.5 44t70.5 136l247 560h16l230 -588q1 -3 16 -37.5t28 -62.5t20 -38q28 -3 52 -3q3 -7 3 -16t-3 -15q-18 0 -65 1.5t-52 1.5q-76 0 -133 -8q-6 8 -6 17l2 8q39 9 54.5 20.5t15.5 29.5q0 10 -14 52l-59 150q-54 3 -129 3q-32 0 -77 -1.5t-66 -1.5 l-25 -64q-50 -124 -50 -176q23 -1 70 -1q2 -7 2 -15q0 -10 -2 -16q-22 0 -60.5 1.5t-45.5 1.5q-63 0 -110 -8q-6 7 -6 17zM224 781q91 86 164 163h12q32 -34 73 -75t66 -65l25 -23q-3 -18 -20 -20l-149 96l-151 -96q-8 1 -13 6t-6 9zM235 308q3 0 50 -2t78 -2q69 0 116 3 l-116 306z" />
<glyph unicode="&#xc3;" horiz-adv-x="747" d="M-7 9l2 8q51 14 74.5 44t70.5 136l247 560h16l230 -588q1 -3 16 -37.5t28 -62.5t20 -38q28 -3 52 -3q3 -7 3 -16t-3 -15q-18 0 -65 1.5t-52 1.5q-76 0 -133 -8q-6 8 -6 17l2 8q39 9 54.5 20.5t15.5 29.5q0 10 -14 52l-59 150q-54 3 -129 3q-32 0 -77 -1.5t-66 -1.5 l-25 -64q-50 -124 -50 -176q23 -1 70 -1q2 -7 2 -15q0 -10 -2 -16q-22 0 -60.5 1.5t-45.5 1.5q-63 0 -110 -8q-6 7 -6 17zM235 308q3 0 50 -2t78 -2q69 0 116 3l-116 306zM239 837q16 13 34 28.5t23 19.5q28 23 45 23q22 0 46.5 -8t51 -15.5t53.5 -7.5q4 0 8.5 1t9.5 3 t8.5 3.5t9 5t8 5t9.5 6.5t8 6q13 -5 18 -23q-6 -4 -20.5 -16t-27.5 -23.5t-26.5 -20.5t-20.5 -9q-28 0 -77.5 15t-77.5 15q-26 0 -66 -28q-10 6 -16 20z" />
<glyph unicode="&#xc4;" horiz-adv-x="747" d="M-7 9l2 8q51 14 74.5 44t70.5 136l247 560h16l230 -588q1 -3 16 -37.5t28 -62.5t20 -38q28 -3 52 -3q3 -7 3 -16t-3 -15q-18 0 -65 1.5t-52 1.5q-76 0 -133 -8q-6 8 -6 17l2 8q39 9 54.5 20.5t15.5 29.5q0 10 -14 52l-59 150q-54 3 -129 3q-32 0 -77 -1.5t-66 -1.5 l-25 -64q-50 -124 -50 -176q23 -1 70 -1q2 -7 2 -15q0 -10 -2 -16q-22 0 -60.5 1.5t-45.5 1.5q-63 0 -110 -8q-6 7 -6 17zM227 869q12 14 32.5 29.5t35.5 21.5q37 -28 49 -67q-28 -36 -67 -50q-34 24 -50 66zM235 308q3 0 50 -2t78 -2q69 0 116 3l-116 306zM443 869 q12 14 32.5 29.5t35.5 21.5q37 -28 49 -67q-28 -36 -67 -50q-34 24 -50 66z" />
<glyph unicode="&#xc5;" horiz-adv-x="747" d="M-7 9l2 8q51 14 74.5 44t70.5 136l247 560h16l230 -588q1 -3 16 -37.5t28 -62.5t20 -38q28 -3 52 -3q3 -7 3 -16t-3 -15q-18 0 -65 1.5t-52 1.5q-76 0 -133 -8q-6 8 -6 17l2 8q39 9 54.5 20.5t15.5 29.5q0 10 -14 52l-59 150q-54 3 -129 3q-32 0 -77 -1.5t-66 -1.5 l-25 -64q-50 -124 -50 -176q23 -1 70 -1q2 -7 2 -15q0 -10 -2 -16q-22 0 -60.5 1.5t-45.5 1.5q-63 0 -110 -8q-6 7 -6 17zM235 308q3 0 50 -2t78 -2q69 0 116 3l-116 306zM285 879q0 83 108 100q43 0 72.5 -29.5t29.5 -70.5q0 -85 -107 -100q-43 0 -73 29t-30 71zM339 892 q0 -33 16 -58t42 -25q44 0 44 56q0 33 -15.5 58t-41.5 25q-45 0 -45 -56z" />
<glyph unicode="&#xc6;" horiz-adv-x="1043" d="M-7 8l2 9q52 14 80.5 44t91.5 136l296 494q-16 4 -58 4q-2 5 -2 13q0 7 2 15q22 0 84 -1.5t68 -1.5h152q46 0 137 3.5t99 3.5q18 0 18 -11q0 -1 -3.5 -24t-8 -62t-6.5 -77q-12 -6 -22 -6q-9 0 -16 4q-16 100 -19 113q-91 21 -192 21q-44 0 -72 -4q-2 -8 -7 -65 q-5 -100 -5 -220q16 -4 84 -4q71 0 111 5q27 3 43 15t23 49q23 0 31 -6q-9 -51 -9 -84q0 -7 0.5 -36t0.5 -51q-6 -5 -17 -5l-15 2l-11 66q-54 9 -153 9q-46 0 -88 -5v-179q0 -95 7 -132q29 -4 70 -4q103 0 204 27q10 14 17.5 31t16.5 43t12 34q5 1 13 1q12 0 24 -9 q-14 -72 -21 -147q-3 -12 -14 -13q-42 -7 -117 -7q-50 0 -123 2t-97 2q-126 0 -171 -8q-5 6 -5 17l1 8q35 7 54.5 22.5t24.5 29.5t7 36q9 69 10 164q-32 2 -116 2q-32 0 -77.5 -1t-66.5 -1l-34 -64q-71 -131 -78 -176q23 -1 70 -1q2 -7 2 -16q0 -3 -2 -15q-22 0 -63 1.5 t-48 1.5q-63 0 -113 -8q-6 11 -6 16zM287 308q108 -3 128 -3q81 0 112 2v42q0 176 -2 237q-3 94 -18 94q-4 0 -7 -4z" />
<glyph unicode="&#xc7;" horiz-adv-x="760" d="M69 352q0 169 108.5 276.5t275.5 107.5q133 0 236 -33q6 -3 6 -10q0 -2 -4 -29t-8.5 -66.5t-5.5 -69.5q-15 -3 -17 -3q-11 0 -21 4q-11 74 -19 103q-64 68 -180 68q-114 0 -188.5 -80t-74.5 -219q0 -152 77 -266.5t199 -114.5q97 0 166 48q10 16 18.5 35.5t16 41.5 t11.5 30q24 0 38 -10q-15 -71 -22 -145q-1 -11 -13 -13q-94 -27 -228 -27q-15 0 -23 1l-4 -49q54 -22 77 -45t23 -64q0 -38 -17 -57t-47 -34h-110q-3 4 -3 13l1 12q128 2 128 56q0 25 -23 41.5t-74 29.5q-5 2 -5 7l1 3q0 2 0.5 7t0.5 10l12 74q-144 20 -226 123t-82 244z " />
<glyph unicode="&#xc8;" horiz-adv-x="688" d="M59 9l1 8q26 6 43 15t25.5 22t11.5 23t5 27q12 91 12 245q0 159 -4 240q-5 95 -14 98q-19 5 -66 5q-2 7 -2 16t2 15q22 0 84 -1.5t68 -1.5h115q46 0 137 3.5t99 3.5q17 0 17 -11q0 -1 -3.5 -24t-7.5 -62t-6 -77q-12 -6 -23 -6q-8 0 -16 4q-12 91 -18 113q-91 21 -192 21 q-44 0 -72 -4q-12 -64 -12 -285q16 -4 84 -4q70 0 110 5q28 3 43.5 15t23.5 49q21 0 31 -6q-10 -57 -10 -84q0 -7 1 -36t1 -51q-7 -5 -18 -5l-14 2l-11 66q-54 9 -153 9q-45 0 -88 -5v-179q0 -94 6 -132q31 -4 71 -4q103 0 204 27q7 11 14 26t11 25.5t11 30t9 26.5q6 1 14 1 q12 0 24 -9q-15 -71 -22 -147q-1 -12 -13 -13q-44 -7 -117 -7q-39 0 -100 2t-71 2h-53q-116 0 -167 -8q-5 6 -5 17zM229 895q10 34 48 58q33 -34 74 -74.5t65 -64.5l25 -23q-2 -19 -20 -20z" />
<glyph unicode="&#xc9;" horiz-adv-x="688" d="M59 9l1 8q26 6 43 15t25.5 22t11.5 23t5 27q12 91 12 245q0 159 -4 240q-5 95 -14 98q-19 5 -66 5q-2 7 -2 16t2 15q22 0 84 -1.5t68 -1.5h115q46 0 137 3.5t99 3.5q17 0 17 -11q0 -1 -3.5 -24t-7.5 -62t-6 -77q-12 -6 -23 -6q-8 0 -16 4q-12 91 -18 113q-91 21 -192 21 q-44 0 -72 -4q-12 -64 -12 -285q16 -4 84 -4q70 0 110 5q28 3 43.5 15t23.5 49q21 0 31 -6q-10 -57 -10 -84q0 -7 1 -36t1 -51q-7 -5 -18 -5l-14 2l-11 66q-54 9 -153 9q-45 0 -88 -5v-179q0 -94 6 -132q31 -4 71 -4q103 0 204 27q7 11 14 26t11 25.5t11 30t9 26.5q6 1 14 1 q12 0 24 -9q-15 -71 -22 -147q-1 -12 -13 -13q-44 -7 -117 -7q-39 0 -100 2t-71 2h-53q-116 0 -167 -8q-5 6 -5 17zM255 791q90 85 164 162q38 -24 48 -58l-192 -124q-8 0 -13 5t-6 10z" />
<glyph unicode="&#xca;" horiz-adv-x="688" d="M59 9l1 8q26 6 43 15t25.5 22t11.5 23t5 27q12 91 12 245q0 159 -4 240q-5 95 -14 98q-19 5 -66 5q-2 7 -2 16t2 15q22 0 84 -1.5t68 -1.5h115q46 0 137 3.5t99 3.5q17 0 17 -11q0 -1 -3.5 -24t-7.5 -62t-6 -77q-12 -6 -23 -6q-8 0 -16 4q-12 91 -18 113q-91 21 -192 21 q-44 0 -72 -4q-12 -64 -12 -285q16 -4 84 -4q70 0 110 5q28 3 43.5 15t23.5 49q21 0 31 -6q-10 -57 -10 -84q0 -7 1 -36t1 -51q-7 -5 -18 -5l-14 2l-11 66q-54 9 -153 9q-45 0 -88 -5v-179q0 -94 6 -132q31 -4 71 -4q103 0 204 27q7 11 14 26t11 25.5t11 30t9 26.5q6 1 14 1 q12 0 24 -9q-15 -71 -22 -147q-1 -12 -13 -13q-44 -7 -117 -7q-39 0 -100 2t-71 2h-53q-116 0 -167 -8q-5 6 -5 17zM187 781q90 86 164 163h12q32 -34 73 -75t66 -65l25 -23q-3 -18 -20 -20l-150 96l-150 -96q-8 1 -13 6t-6 9z" />
<glyph unicode="&#xcb;" horiz-adv-x="688" d="M59 9l1 8q26 6 43 15t25.5 22t11.5 23t5 27q12 91 12 245q0 159 -4 240q-5 95 -14 98q-19 5 -66 5q-2 7 -2 16t2 15q22 0 84 -1.5t68 -1.5h115q46 0 137 3.5t99 3.5q17 0 17 -11q0 -1 -3.5 -24t-7.5 -62t-6 -77q-12 -6 -23 -6q-8 0 -16 4q-12 91 -18 113q-91 21 -192 21 q-44 0 -72 -4q-12 -64 -12 -285q16 -4 84 -4q70 0 110 5q28 3 43.5 15t23.5 49q21 0 31 -6q-10 -57 -10 -84q0 -7 1 -36t1 -51q-7 -5 -18 -5l-14 2l-11 66q-54 9 -153 9q-45 0 -88 -5v-179q0 -94 6 -132q31 -4 71 -4q103 0 204 27q7 11 14 26t11 25.5t11 30t9 26.5q6 1 14 1 q12 0 24 -9q-15 -71 -22 -147q-1 -12 -13 -13q-44 -7 -117 -7q-39 0 -100 2t-71 2h-53q-116 0 -167 -8q-5 6 -5 17zM185 869q12 14 32.5 29.5t35.5 21.5q38 -28 50 -67q-31 -37 -67 -50q-33 24 -51 66zM401 869q12 14 32.5 29.5t35.5 21.5q38 -28 50 -67q-31 -37 -67 -50 q-33 24 -51 66z" />
<glyph unicode="&#xcc;" horiz-adv-x="356" d="M23 9l1 8q32 7 51.5 14.5t28.5 19t12 20.5t5 28q12 78 12 253v112q0 223 -17 225q-23 3 -67 3q-2 7 -2 16t2 15q25 0 73.5 -1.5t56.5 -1.5t55.5 1.5t72.5 1.5q2 -6 2 -15l-2 -16q-44 0 -67 -3q-17 -2 -17 -225v-163q0 -95 4.5 -182t11.5 -88q26 -3 88 -3q2 -7 2 -16 t-2 -15q-28 0 -73 1.5t-54 1.5q-105 0 -172 -8q-5 5 -5 17zM67 895q8 35 48 58q32 -34 73 -74.5t66 -64.5l25 -23q-3 -19 -20 -20z" />
<glyph unicode="&#xcd;" horiz-adv-x="356" d="M23 9l1 8q32 7 51.5 14.5t28.5 19t12 20.5t5 28q12 78 12 253v112q0 223 -17 225q-23 3 -67 3q-2 7 -2 16t2 15q25 0 73.5 -1.5t56.5 -1.5t55.5 1.5t72.5 1.5q2 -6 2 -15l-2 -16q-44 0 -67 -3q-17 -2 -17 -225v-163q0 -95 4.5 -182t11.5 -88q26 -3 88 -3q2 -7 2 -16 t-2 -15q-28 0 -73 1.5t-54 1.5q-105 0 -172 -8q-5 5 -5 17zM123 791q90 85 164 162q38 -24 48 -58l-192 -124q-8 0 -13 5t-6 10z" />
<glyph unicode="&#xce;" horiz-adv-x="356" d="M23 9l1 8q32 7 51.5 14.5t28.5 19t12 20.5t5 28q12 78 12 253v112q0 223 -17 225q-23 3 -67 3q-2 7 -2 16t2 15q25 0 73.5 -1.5t56.5 -1.5t55.5 1.5t72.5 1.5q2 -6 2 -15l-2 -16q-44 0 -67 -3q-17 -2 -17 -225v-163q0 -95 4.5 -182t11.5 -88q26 -3 88 -3q2 -7 2 -16 t-2 -15q-28 0 -73 1.5t-54 1.5q-105 0 -172 -8q-5 5 -5 17zM27 781q90 86 164 163h12q32 -34 73 -75t66 -65l25 -23q-3 -18 -20 -20l-150 96l-150 -96q-8 1 -13 6t-6 9z" />
<glyph unicode="&#xcf;" horiz-adv-x="356" d="M11 869q12 14 32.5 29.5t35.5 21.5q37 -28 49 -67q-28 -36 -67 -50q-34 24 -50 66zM23 9l1 8q32 7 51.5 14.5t28.5 19t12 20.5t5 28q12 78 12 253v112q0 223 -17 225q-23 3 -67 3q-2 7 -2 16t2 15q25 0 73.5 -1.5t56.5 -1.5t55.5 1.5t72.5 1.5q2 -6 2 -15l-2 -16 q-44 0 -67 -3q-17 -2 -17 -225v-163q0 -95 4.5 -182t11.5 -88q26 -3 88 -3q2 -7 2 -16t-2 -15q-28 0 -73 1.5t-54 1.5q-105 0 -172 -8q-5 5 -5 17zM227 869q12 14 32.5 29.5t35.5 21.5q37 -28 49 -67q-28 -36 -67 -50q-34 24 -50 66z" />
<glyph unicode="&#xd0;" horiz-adv-x="848" d="M44 8l1 9q35 7 56.5 16.5t30.5 23t11 22t4 25.5q7 77 10 229q-18 0 -70 -4q-10 4 -10 15q11 18 14 40h66v84q0 213 -17 219q-29 5 -69 5q-3 7 -3 16t3 15q25 0 64.5 -1.5t47.5 -1.5h96q1 0 24 1t52 2t45 1q187 0 285.5 -100.5t98.5 -254.5q0 -163 -108 -268t-276 -105 q-34 0 -86 2t-62 2q-136 0 -203 -8q-5 6 -5 16zM245 172q0 -89 4 -119q67 -17 140 -17q146 0 216.5 80.5t70.5 230.5q0 66 -19.5 125t-59 107.5t-108 77t-157.5 28.5q-48 0 -75 -4q-12 -44 -12 -194v-103h28q107 0 188 8q10 -4 10 -16q-11 -18 -14 -40h-212v-164z" />
<glyph unicode="&#xd1;" horiz-adv-x="860" d="M29 9l2 8q26 6 43 15t25.5 21.5t12 23.5t5.5 27q18 130 23 549q-25 27 -44 35t-61 11q-3 6 -3 16q0 9 3 14q40 0 97.5 2t66.5 2q30 0 202 -206q98 -116 287 -370q-3 78 -7 328q-3 151 -12 204q-22 3 -81 3q-4 8 -4 17q0 8 3 14q25 0 65 -1.5t48 -1.5q69 0 116 8 q5 -6 5 -17l-1 -8q-49 -11 -65 -31t-19 -56q-13 -208 -13 -631l-24 -10l-22 28q-191 252 -374 478q-72 88 -131 142q0 -135 1 -368q0 -139 12 -224q23 -3 79 -3q3 -8 3 -17q0 -7 -3 -14q-25 0 -65 1.5t-48 1.5q-69 0 -116 -8q-6 8 -6 17zM272 837q29 23 57 47q30 24 46 24 q25 0 71 -15.5t79 -15.5q4 0 8.5 1t7.5 2t8 3t7.5 3.5t8 5t7.5 5t7.5 5.5t7.5 5q12 -4 17 -23q-7 -4 -21 -16.5t-26.5 -23.5t-26.5 -20t-21 -9q-28 0 -77 15t-77 15t-67 -28q-10 7 -16 20z" />
<glyph unicode="&#xd2;" horiz-adv-x="843" d="M64 357q0 70 19.5 128.5t49 96.5t68.5 67.5t75 45.5t71 26t54 12.5t27 2.5q145 0 248 -110.5t103 -268.5q0 -70 -19.5 -128.5t-49 -96t-68.5 -67t-74.5 -45t-71 -25.5t-54 -12.5t-26.5 -2.5q-146 0 -249 108.5t-103 268.5zM165 412q0 -93 34.5 -179.5t100.5 -143.5 t147 -57q113 0 171.5 76.5t58.5 196.5q0 93 -33.5 179t-98.5 143.5t-146 57.5q-113 0 -173.5 -78.5t-60.5 -194.5zM319 895q8 35 48 58q32 -34 73 -74.5t66 -64.5l25 -23q-3 -19 -20 -20z" />
<glyph unicode="&#xd3;" horiz-adv-x="843" d="M64 357q0 70 19.5 128.5t49 96.5t68.5 67.5t75 45.5t71 26t54 12.5t27 2.5q145 0 248 -110.5t103 -268.5q0 -70 -19.5 -128.5t-49 -96t-68.5 -67t-74.5 -45t-71 -25.5t-54 -12.5t-26.5 -2.5q-146 0 -249 108.5t-103 268.5zM165 412q0 -93 34.5 -179.5t100.5 -143.5 t147 -57q113 0 171.5 76.5t58.5 196.5q0 93 -33.5 179t-98.5 143.5t-146 57.5q-113 0 -173.5 -78.5t-60.5 -194.5zM333 791q91 85 164 162q40 -23 48 -58l-192 -124q-8 0 -13 5t-6 10z" />
<glyph unicode="&#xd4;" horiz-adv-x="843" d="M64 357q0 70 19.5 128.5t49 96.5t68.5 67.5t75 45.5t71 26t54 12.5t27 2.5q145 0 248 -110.5t103 -268.5q0 -70 -19.5 -128.5t-49 -96t-68.5 -67t-74.5 -45t-71 -25.5t-54 -12.5t-26.5 -2.5q-146 0 -249 108.5t-103 268.5zM165 412q0 -93 34.5 -179.5t100.5 -143.5 t147 -57q113 0 171.5 76.5t58.5 196.5q0 93 -33.5 179t-98.5 143.5t-146 57.5q-113 0 -173.5 -78.5t-60.5 -194.5zM251 781q90 86 164 163h12q32 -34 73 -75t66 -65l25 -23q-3 -18 -20 -20l-150 96l-150 -96q-8 1 -13 6t-6 9z" />
<glyph unicode="&#xd5;" horiz-adv-x="843" d="M64 357q0 70 19.5 128.5t49 96.5t68.5 67.5t75 45.5t71 26t54 12.5t27 2.5q145 0 248 -110.5t103 -268.5q0 -70 -19.5 -128.5t-49 -96t-68.5 -67t-74.5 -45t-71 -25.5t-54 -12.5t-26.5 -2.5q-146 0 -249 108.5t-103 268.5zM165 412q0 -93 34.5 -179.5t100.5 -143.5 t147 -57q113 0 171.5 76.5t58.5 196.5q0 93 -33.5 179t-98.5 143.5t-146 57.5q-113 0 -173.5 -78.5t-60.5 -194.5zM259 836q16 13 34 28.5t23 19.5q28 23 45 23q26 0 72 -15.5t79 -15.5q6 0 12 1.5t13.5 5.5t11 6t13 8.5t11.5 7.5q12 -3 18 -22q-20 -15 -34 -27 q-47 -43 -61 -43q-28 0 -77.5 15.5t-77.5 15.5q-21 0 -66 -28q-11 6 -16 20z" />
<glyph unicode="&#xd6;" horiz-adv-x="843" d="M64 357q0 70 19.5 128.5t49 96.5t68.5 67.5t75 45.5t71 26t54 12.5t27 2.5q145 0 248 -110.5t103 -268.5q0 -70 -19.5 -128.5t-49 -96t-68.5 -67t-74.5 -45t-71 -25.5t-54 -12.5t-26.5 -2.5q-146 0 -249 108.5t-103 268.5zM165 412q0 -93 34.5 -179.5t100.5 -143.5 t147 -57q113 0 171.5 76.5t58.5 196.5q0 93 -33.5 179t-98.5 143.5t-146 57.5q-113 0 -173.5 -78.5t-60.5 -194.5zM255 869q12 14 32.5 29.5t35.5 21.5q37 -28 49 -67q-28 -36 -67 -50q-34 24 -50 66zM471 869q12 14 32.5 29.5t35.5 21.5q37 -28 49 -67q-28 -36 -67 -50 q-34 24 -50 66z" />
<glyph unicode="&#xd7;" horiz-adv-x="459" d="M40 116l151 128q-71 73 -143 133q0 10 4 15q12 7 40 28l137 -143q82 71 150 142q9 0 14 -7q2 -6 26 -41l-151 -132q71 -73 144 -136q0 -11 -4 -16q-12 -7 -40 -28l-139 145q-83 -68 -149 -136q-9 0 -15 7q-3 9 -25 41z" />
<glyph unicode="&#xd8;" horiz-adv-x="843" d="M64 357q0 70 19.5 128.5t49 96.5t68.5 67.5t75 45.5t71 26t54 12.5t27 2.5q83 0 161 -43q36 63 54 106q4 1 8 1q5 0 9 -3q5 -8 17.5 -22.5t15.5 -18.5l-57 -93q67 -54 105 -133.5t38 -172.5q0 -70 -19.5 -128.5t-49 -96t-68.5 -67t-74.5 -45t-71 -25.5t-54 -12.5 t-26.5 -2.5q-87 0 -164 41q-20 -33 -52 -104q-3 -2 -7 -2q-5 0 -10 4q-20 26 -32 38l56 95q-67 51 -105 130.5t-38 174.5zM165 412q0 -159 91 -279l295 490q-70 62 -152 62q-113 0 -173.5 -78.5t-60.5 -194.5zM293 93q69 -61 154 -61q113 0 171.5 76.5t58.5 196.5 q0 75 -23.5 148t-65.5 128z" />
<glyph unicode="&#xd9;" horiz-adv-x="829" d="M47 708q0 9 2 15q22 0 56 -1.5t40 -1.5q106 0 160 8q6 -8 6 -17l-2 -8q-26 -6 -42.5 -13t-24.5 -17.5t-10.5 -19.5t-4.5 -25q-12 -117 -12 -332q0 -129 52 -201t162 -72q131 0 181.5 70.5t50.5 215.5v124q0 182 -10 256q-23 3 -86 3q-2 8 -2 17q0 10 2 14q25 0 67.5 -1.5 t50.5 -1.5q76 0 117 8q5 -6 5 -17l-1 -8q-77 -17 -84 -104q-11 -129 -11 -315q0 -147 -72.5 -225.5t-215.5 -78.5q-76 0 -132.5 19t-88 48t-50.5 71t-24.5 79.5t-5.5 81.5v153q0 81 -9 257q-19 3 -62 3q-2 7 -2 16zM356 895q10 34 48 58q32 -34 73 -74.5t66 -64.5l25 -23 q-3 -19 -20 -20z" />
<glyph unicode="&#xda;" horiz-adv-x="829" d="M47 708q0 9 2 15q22 0 56 -1.5t40 -1.5q106 0 160 8q6 -8 6 -17l-2 -8q-26 -6 -42.5 -13t-24.5 -17.5t-10.5 -19.5t-4.5 -25q-12 -117 -12 -332q0 -129 52 -201t162 -72q131 0 181.5 70.5t50.5 215.5v124q0 182 -10 256q-23 3 -86 3q-2 8 -2 17q0 10 2 14q25 0 67.5 -1.5 t50.5 -1.5q76 0 117 8q5 -6 5 -17l-1 -8q-77 -17 -84 -104q-11 -129 -11 -315q0 -147 -72.5 -225.5t-215.5 -78.5q-76 0 -132.5 19t-88 48t-50.5 71t-24.5 79.5t-5.5 81.5v153q0 81 -9 257q-19 3 -62 3q-2 7 -2 16zM355 791q90 85 164 162q38 -24 48 -58l-192 -124 q-8 0 -13 5t-6 10z" />
<glyph unicode="&#xdb;" horiz-adv-x="829" d="M47 708q0 9 2 15q22 0 56 -1.5t40 -1.5q106 0 160 8q6 -8 6 -17l-2 -8q-26 -6 -42.5 -13t-24.5 -17.5t-10.5 -19.5t-4.5 -25q-12 -117 -12 -332q0 -129 52 -201t162 -72q131 0 181.5 70.5t50.5 215.5v124q0 182 -10 256q-23 3 -86 3q-2 8 -2 17q0 10 2 14q25 0 67.5 -1.5 t50.5 -1.5q76 0 117 8q5 -6 5 -17l-1 -8q-77 -17 -84 -104q-11 -129 -11 -315q0 -147 -72.5 -225.5t-215.5 -78.5q-76 0 -132.5 19t-88 48t-50.5 71t-24.5 79.5t-5.5 81.5v153q0 81 -9 257q-19 3 -62 3q-2 7 -2 16zM285 781q91 86 164 163h12q33 -34 74 -75l65 -65l25 -23 q-2 -18 -20 -20l-149 96l-151 -96q-8 1 -13 6t-6 9z" />
<glyph unicode="&#xdc;" horiz-adv-x="829" d="M47 708q0 9 2 15q22 0 56 -1.5t40 -1.5q106 0 160 8q6 -8 6 -17l-2 -8q-26 -6 -42.5 -13t-24.5 -17.5t-10.5 -19.5t-4.5 -25q-12 -117 -12 -332q0 -129 52 -201t162 -72q131 0 181.5 70.5t50.5 215.5v124q0 182 -10 256q-23 3 -86 3q-2 8 -2 17q0 10 2 14q25 0 67.5 -1.5 t50.5 -1.5q76 0 117 8q5 -6 5 -17l-1 -8q-77 -17 -84 -104q-11 -129 -11 -315q0 -147 -72.5 -225.5t-215.5 -78.5q-76 0 -132.5 19t-88 48t-50.5 71t-24.5 79.5t-5.5 81.5v153q0 81 -9 257q-19 3 -62 3q-2 7 -2 16zM275 869q12 14 32.5 29.5t35.5 21.5q37 -28 49 -67 q-28 -36 -67 -50q-34 24 -50 66zM491 869q12 14 32.5 29.5t35.5 21.5q37 -28 49 -67q-28 -36 -67 -50q-34 24 -50 66z" />
<glyph unicode="&#xdd;" horiz-adv-x="723" d="M0 715q0 11 3 14q33 0 92.5 2t69.5 2t51.5 -55t94 -148.5t80.5 -177.5q15 26 45 77.5t45.5 79t35.5 65t31 65t16 49.5q-21 4 -81 4q-3 7 -3 16t3 15q66 -3 130 -3q58 0 104 8q6 -10 6 -17l-2 -8q-27 -8 -62 -34q-45 -32 -134 -169t-102 -187q-8 -21 -8 -146 q0 -64 10 -132q41 -7 115 -7q3 -7 3 -16q0 -2 -1.5 -7.5t-1.5 -7.5q-31 0 -89 1.5t-70 1.5q-116 0 -192 -8q-5 6 -5 17l1 8q52 8 80 20t37 25t14 37q7 35 7 82q0 75 -14 132q-13 53 -80.5 167.5t-123.5 174.5q-22 25 -41.5 33.5t-60.5 10.5q-3 6 -3 16zM273 791 q91 85 164 162q40 -23 48 -58l-192 -124q-8 0 -13 5t-6 10z" />
<glyph unicode="&#xde;" horiz-adv-x="628" d="M56 9l1 8q45 13 62.5 31.5t21.5 50.5q12 78 12 253v112q0 223 -17 225q-23 3 -67 3q-2 7 -2 16t2 15q25 0 73.5 -1.5t56.5 -1.5t55.5 1.5t72.5 1.5q2 -6 2 -15l-2 -16q-44 0 -67 -3q-10 -1 -16 -101h103q114 0 177.5 -59t63.5 -170q0 -100 -68.5 -154t-176.5 -54 q-39 0 -63 1q-5 6 -5 17l5 20q17 -1 59 -1q67 0 114 45t47 111q0 94 -45 151t-132 57q-52 0 -80 -3v-248q0 -95 4.5 -182t11.5 -88q34 -3 114 -3q3 -7 3 -16t-3 -15q-34 0 -88 1.5t-65 1.5q-96 0 -159 -8q-5 5 -5 17z" />
<glyph unicode="&#xdf;" horiz-adv-x="669" d="M13 459q5 10 11 34h96q1 16 7 98q5 67 30.5 119t56.5 78.5t67.5 43t57.5 20.5t33 4q70 0 128.5 -46.5t58.5 -110.5q0 -53 -20 -91.5t-48.5 -61.5t-57 -42.5t-48.5 -46.5t-20 -62q0 -25 18.5 -47.5t45.5 -35.5l78 -37q114 -55 114 -147q0 -68 -54 -108t-128 -40 q-39 0 -81.5 7.5t-60.5 15.5q-3 45 -18 125q11 7 20 7q6 0 9 -2q1 -3 7.5 -22t13 -32.5t14.5 -22.5q11 -11 39 -24t62 -13q43 0 71 21t28 63q0 13 -4 25.5t-11 21.5t-14.5 16.5t-17 13.5t-16 9.5l-13 7t-7.5 3.5l-75 36q-97 46 -97 133q0 34 15 63t37 47t48 38.5t48 38 t37 44.5t15 59q0 56 -53 105t-110 49q-35 0 -70 -56.5t-44 -128.5q-10 -78 -10 -135v-194q0 -192 12 -299q-113 0 -184 -8q-5 6 -5 17l1 8q25 5 41.5 12.5t25 18.5t11.5 19.5t5 23.5q11 77 11 324v33l-99 -1q-7 4 -7 12z" />
<glyph unicode="&#xe0;" horiz-adv-x="493" d="M47 115q0 29 13 52.5t31 32.5q74 37 220 65v95q0 55 -17.5 82t-46.5 27q-20 0 -48 -8.5t-38 -29.5q-13 -27 -13 -71q0 -4 -13.5 -8.5t-29.5 -4.5q-25 0 -32.5 9.5t-7.5 28.5q0 36 52 78q12 8 70.5 27t67.5 19q72 0 106 -42t34 -103q0 -3 -1.5 -100t-1.5 -144 q0 -73 47 -73q4 0 17 0.5t19 0.5q4 -5 4 -16l-2 -11q-77 -14 -110 -41q-22 6 -37.5 27.5t-17.5 45.5q-80 -49 -159 -73q-34 0 -70 38.5t-36 96.5zM125 697q16 35 56 51q28 -39 62.5 -85t55.5 -73l21 -26q-4 -17 -23 -17zM136 120q0 -24 19 -52t45 -28q23 0 55 17t53 36 q3 60 3 136q-84 -11 -148 -48q-27 -13 -27 -61z" />
<glyph unicode="&#xe1;" horiz-adv-x="493" d="M47 115q0 29 13 52.5t31 32.5q74 37 220 65v95q0 55 -17.5 82t-46.5 27q-20 0 -48 -8.5t-38 -29.5q-13 -27 -13 -71q0 -4 -13.5 -8.5t-29.5 -4.5q-25 0 -32.5 9.5t-7.5 28.5q0 36 52 78q12 8 70.5 27t67.5 19q72 0 106 -42t34 -103q0 -3 -1.5 -100t-1.5 -144 q0 -73 47 -73q4 0 17 0.5t19 0.5q4 -5 4 -16l-2 -11q-77 -14 -110 -41q-22 6 -37.5 27.5t-17.5 45.5q-80 -49 -159 -73q-34 0 -70 38.5t-36 96.5zM136 120q0 -24 19 -52t45 -28q23 0 55 17t53 36q3 74 3 136q-84 -11 -148 -48q-27 -13 -27 -61zM204 564q77 97 139 184 q40 -16 56 -51l-172 -150q-8 0 -14 4.5t-7 8.5z" />
<glyph unicode="&#xe2;" horiz-adv-x="493" d="M47 115q0 29 13 52.5t31 32.5q74 37 220 65v95q0 55 -17.5 82t-46.5 27q-20 0 -48 -8.5t-38 -29.5q-13 -27 -13 -71q0 -4 -13.5 -8.5t-29.5 -4.5q-25 0 -32.5 9.5t-7.5 28.5q0 36 52 78q12 8 70.5 27t67.5 19q72 0 106 -42t34 -103q0 -3 -1.5 -100t-1.5 -144 q0 -73 47 -73q4 0 17 0.5t19 0.5q4 -5 4 -16l-2 -11q-77 -14 -110 -41q-22 6 -37.5 27.5t-17.5 45.5q-80 -49 -159 -73q-34 0 -70 38.5t-36 96.5zM88 564q87 105 148 192h12q27 -39 64 -87t60 -77l24 -28q-4 -17 -23 -17l-130 122l-132 -122q-8 0 -13.5 4.5t-7.5 8.5z M136 120q0 -24 19 -52t45 -28q23 0 55 17t53 36q3 67 3 136q-84 -11 -148 -48q-27 -13 -27 -61z" />
<glyph unicode="&#xe3;" horiz-adv-x="493" d="M47 115q0 29 13 52.5t31 32.5q74 37 220 65v95q0 55 -17.5 82t-46.5 27q-20 0 -48 -8.5t-38 -29.5q-13 -27 -13 -71q0 -4 -13.5 -8.5t-29.5 -4.5q-25 0 -32.5 9.5t-7.5 28.5q0 36 52 78q12 8 70.5 27t67.5 19q72 0 106 -42t34 -103q0 -3 -1.5 -100t-1.5 -144 q0 -73 47 -73q4 0 17 0.5t19 0.5q4 -5 4 -16l-2 -11q-77 -14 -110 -41q-22 6 -37.5 27.5t-17.5 45.5q-80 -49 -159 -73q-34 0 -70 38.5t-36 96.5zM77 600q18 14 37 30t21 17q30 24 45 24q25 0 71.5 -15.5t79.5 -15.5q6 0 12 1.5t13.5 5.5t11 6t13 8.5t11.5 7.5q13 -3 17 -22 q-20 -15 -33 -27q-49 -43 -61 -43q-28 0 -77.5 15.5t-77.5 15.5q-20 0 -67 -28q-9 5 -16 20zM136 120q0 -24 19 -52t45 -28q23 0 55 17t53 36q3 72 3 136q-84 -11 -148 -48q-27 -13 -27 -61z" />
<glyph unicode="&#xe4;" horiz-adv-x="493" d="M47 115q0 29 13 52.5t31 32.5q74 37 220 65v95q0 55 -17.5 82t-46.5 27q-20 0 -48 -8.5t-38 -29.5q-13 -27 -13 -71q0 -4 -13.5 -8.5t-29.5 -4.5q-25 0 -32.5 9.5t-7.5 28.5q0 36 52 78q12 8 70.5 27t67.5 19q72 0 106 -42t34 -103q0 -3 -1.5 -100t-1.5 -144 q0 -73 47 -73q4 0 17 0.5t19 0.5q4 -5 4 -16l-2 -11q-77 -14 -110 -41q-22 6 -37.5 27.5t-17.5 45.5q-80 -49 -159 -73q-34 0 -70 38.5t-36 96.5zM84 659q31 35 68 50q38 -28 49 -66q-10 -14 -30 -29.5t-36 -21.5q-35 25 -51 67zM136 120q0 -24 19 -52t45 -28q23 0 55 17 t53 36q3 72 3 136q-84 -11 -148 -48q-27 -13 -27 -61zM300 659q31 35 68 50q38 -28 49 -66q-10 -14 -30 -29.5t-36 -21.5q-35 25 -51 67z" />
<glyph unicode="&#xe5;" horiz-adv-x="493" d="M47 115q0 29 13 52.5t31 32.5q74 37 220 65v95q0 55 -17.5 82t-46.5 27q-20 0 -48 -8.5t-38 -29.5q-13 -27 -13 -71q0 -4 -13.5 -8.5t-29.5 -4.5q-25 0 -32.5 9.5t-7.5 28.5q0 36 52 78q12 8 70.5 27t67.5 19q72 0 106 -42t34 -103q0 -3 -1.5 -100t-1.5 -144 q0 -73 47 -73q4 0 17 0.5t19 0.5q4 -5 4 -16l-2 -11q-77 -14 -110 -41q-22 6 -37.5 27.5t-17.5 45.5q-80 -49 -159 -73q-34 0 -70 38.5t-36 96.5zM133 653q0 84 108 100q43 0 72.5 -29t29.5 -71q0 -83 -107 -100q-43 0 -73 29t-30 71zM136 120q0 -24 19 -52t45 -28 q23 0 55 17t53 36q3 72 3 136q-84 -11 -148 -48q-27 -13 -27 -61zM187 667q0 -33 16 -58t42 -25q44 0 44 56q0 33 -15.5 58t-41.5 25q-45 0 -45 -56z" />
<glyph unicode="&#xe6;" horiz-adv-x="761" d="M47 115q0 31 13 55.5t31 34.5q73 43 220 72v83q0 55 -17.5 82t-46.5 27q-20 0 -48 -8.5t-38 -29.5q-13 -27 -13 -71q0 -4 -13.5 -8.5t-29.5 -4.5q-25 0 -32.5 9.5t-7.5 28.5q0 36 52 78q12 8 70.5 27t67.5 19q94 0 126 -76q50 54 134 76q51 0 102.5 -30t70.5 -99 q4 -12 27 -13q6 -7 6 -18q0 -4 -2 -12q-167 -49 -328 -68q0 -54 14 -100.5t52.5 -81.5t95.5 -35q78 0 138 44q13 -5 16 -21l-103 -76q-24 -19 -99 -19q-87 0 -144 83q-118 -66 -206 -83q-34 0 -71 38.5t-37 96.5zM137 120q0 -24 19 -52t45 -28q52 0 140 57q-29 68 -29 143 q-81 -13 -148 -53q-27 -17 -27 -67zM395 311q57 0 122 14q55 12 95 31q5 1 5 7t-11.5 29.5t-41 50t-65.5 26.5q-30 0 -46 -12q-49 -37 -58 -146z" />
<glyph unicode="&#xe7;" horiz-adv-x="476" d="M40 240q0 66 24 117.5t56 79t70.5 45t62 22.5t35.5 5q97 0 160 -58q-1 -5 -4.5 -13.5t-18.5 -25t-37 -21.5q-32 38 -64 58t-75 20q-50 0 -88 -60.5t-38 -128.5q0 -61 16.5 -112t56.5 -86t97 -35q58 0 147 38q9 -5 9 -20l-97 -66q-3 -2 -14 -6t-30.5 -8.5t-36.5 -4.5h-10 l-4 -48q54 -22 77 -45t23 -64q0 -38 -17 -57t-47 -34h-110q-3 4 -3 13l1 12q128 2 128 56q0 25 -23 41.5t-74 29.5q-5 2 -5 7l1 3q0 2 0.5 7t0.5 10l12 73q-89 17 -135 87.5t-46 168.5z" />
<glyph unicode="&#xe8;" horiz-adv-x="517" d="M47 240q0 117 63 183t150 86q32 0 65.5 -10t68.5 -40.5t49 -78.5q3 -12 28 -13q6 -7 6 -18q0 -4 -2 -12q-176 -41 -346 -57q0 -57 15 -106t55.5 -85.5t100.5 -36.5q82 0 145 44q14 -5 16 -21l-108 -76q-24 -19 -102 -19q-88 0 -146 74.5t-58 185.5zM133 321q54 0 130 12 q62 11 100 24q5 3 5 6q0 6 -12.5 29.5t-43.5 50t-69 26.5q-30 0 -46 -10q-56 -38 -64 -138zM144 697q16 35 56 51q27 -39 62 -85t56 -73l21 -26q-4 -17 -23 -17z" />
<glyph unicode="&#xe9;" horiz-adv-x="517" d="M47 240q0 117 63 183t150 86q32 0 65.5 -10t68.5 -40.5t49 -78.5q3 -12 28 -13q6 -7 6 -18q0 -4 -2 -12q-176 -41 -346 -57q0 -57 15 -106t55.5 -85.5t100.5 -36.5q82 0 145 44q14 -5 16 -21l-108 -76q-24 -19 -102 -19q-88 0 -146 74.5t-58 185.5zM133 321q54 0 130 12 q62 11 100 24q5 3 5 6q0 6 -12.5 29.5t-43.5 50t-69 26.5q-30 0 -46 -10q-56 -38 -64 -138zM177 564q78 97 139 184q40 -16 56 -51l-172 -150q-8 0 -14 4.5t-8 8.5z" />
<glyph unicode="&#xea;" horiz-adv-x="517" d="M47 240q0 117 63 183t150 86q32 0 65.5 -10t68.5 -40.5t49 -78.5q3 -12 28 -13q6 -7 6 -18q0 -4 -2 -12q-176 -41 -346 -57q0 -57 15 -106t55.5 -85.5t100.5 -36.5q82 0 145 44q14 -5 16 -21l-108 -76q-24 -19 -102 -19q-88 0 -146 74.5t-58 185.5zM104 564 q87 105 148 192h12q27 -39 64 -87t60 -77l24 -28q-4 -17 -23 -17l-130 122l-132 -122q-8 0 -13.5 4.5t-7.5 8.5zM133 321q54 0 130 12q62 11 100 24q5 3 5 6q0 6 -12.5 29.5t-43.5 50t-69 26.5q-30 0 -46 -10q-56 -38 -64 -138z" />
<glyph unicode="&#xeb;" horiz-adv-x="517" d="M47 240q0 117 63 183t150 86q32 0 65.5 -10t68.5 -40.5t49 -78.5q3 -12 28 -13q6 -7 6 -18q0 -4 -2 -12q-176 -41 -346 -57q0 -57 15 -106t55.5 -85.5t100.5 -36.5q82 0 145 44q14 -5 16 -21l-108 -76q-24 -19 -102 -19q-88 0 -146 74.5t-58 185.5zM92 657 q12 14 32.5 29.5t35.5 21.5q38 -28 49 -67q-28 -36 -66 -50q-36 25 -51 66zM133 321q54 0 130 12q62 11 100 24q5 3 5 6q0 6 -12.5 29.5t-43.5 50t-69 26.5q-30 0 -46 -10q-56 -38 -64 -138zM308 657q12 14 32.5 29.5t35.5 21.5q38 -28 49 -67q-28 -36 -66 -50 q-36 25 -51 66z" />
<glyph unicode="&#xec;" horiz-adv-x="317" d="M33 456l3 13q52 11 84 22q33 12 77 34q5 0 9 -3t5 -6l1 -3q-12 -68 -12 -324q0 -46 3.5 -101.5t9.5 -56.5q15 -3 56 -3q3 -7 3 -16t-3 -15q-19 0 -51.5 1.5t-38.5 1.5q-70 0 -132 -8q-6 8 -6 17l2 8q21 5 35.5 12.5t22.5 19t11 19.5t7 23q5 18 5 125v96q0 36 -1 53.5 t-5.5 37t-15.5 27.5t-29 10l-37 3q-3 4 -3 13zM40 697q16 35 56 51q27 -39 62 -85t56 -73l21 -26q-4 -17 -23 -17z" />
<glyph unicode="&#xed;" horiz-adv-x="317" d="M33 456l3 13q52 11 84 22q33 12 77 34q5 0 9 -3t5 -6l1 -3q-12 -68 -12 -324q0 -46 3.5 -101.5t9.5 -56.5q15 -3 56 -3q3 -7 3 -16t-3 -15q-19 0 -51.5 1.5t-38.5 1.5q-70 0 -132 -8q-6 8 -6 17l2 8q21 5 35.5 12.5t22.5 19t11 19.5t7 23q5 18 5 125v96q0 36 -1 53.5 t-5.5 37t-15.5 27.5t-29 10l-37 3q-3 4 -3 13zM92 564q77 97 139 184q40 -16 56 -51l-172 -150q-8 0 -14 4.5t-7 8.5z" />
<glyph unicode="&#xee;" horiz-adv-x="317" d="M-9 564q86 105 148 192h12q27 -39 64 -87t61 -77l23 -28q-4 -17 -23 -17l-131 122l-132 -122q-8 0 -13.5 4.5t-7.5 8.5zM33 456l3 13q52 11 84 22q33 12 77 34q5 0 9 -3t5 -6l1 -3q-12 -68 -12 -324q0 -46 3.5 -101.5t9.5 -56.5q15 -3 56 -3q3 -7 3 -16t-3 -15 q-19 0 -51.5 1.5t-38.5 1.5q-70 0 -132 -8q-6 8 -6 17l2 8q21 5 35.5 12.5t22.5 19t11 19.5t7 23q5 18 5 125v96q0 36 -1 53.5t-5.5 37t-15.5 27.5t-29 10l-37 3q-3 4 -3 13z" />
<glyph unicode="&#xef;" horiz-adv-x="317" d="M-1 656q12 14 32.5 29.5t35.5 21.5q37 -30 49 -67q-11 -14 -31 -29.5t-36 -21.5q-35 26 -50 67zM33 456l3 13q52 11 84 22q33 12 77 34q5 0 9 -3t5 -6l1 -3q-12 -68 -12 -324q0 -46 3.5 -101.5t9.5 -56.5q15 -3 56 -3q3 -7 3 -16t-3 -15q-19 0 -51.5 1.5t-38.5 1.5 q-70 0 -132 -8q-6 8 -6 17l2 8q21 5 35.5 12.5t22.5 19t11 19.5t7 23q5 18 5 125v96q0 36 -1 53.5t-5.5 37t-15.5 27.5t-29 10l-37 3q-3 4 -3 13zM188 656q12 14 32.5 29.5t35.5 21.5q38 -30 49 -67q-29 -37 -66 -51q-36 27 -51 67z" />
<glyph unicode="&#xf0;" horiz-adv-x="591" d="M40 244q0 223 252 265q64 0 125 -37q-14 42 -40 83.5t-50 65.5l-36 36l-131 -60q-9 5 -14 15.5t-6 18.5v8l113 48q-41 32 -128 80q1 12 7 22t12 14l5 4q74 -36 156 -92l139 61q9 -5 15 -15t7 -17l1 -8l-122 -51l7 -4q88 -68 141.5 -174.5t53.5 -209.5q0 -81 -17.5 -138.5 t-53.5 -93t-81.5 -54.5t-110.5 -31q-103 0 -173.5 75.5t-70.5 188.5zM139 283q0 -104 46 -182t122 -78q77 0 109 57.5t32 192.5q0 55 -9 118q-71 69 -167 69q-68 0 -100.5 -49t-32.5 -128z" />
<glyph unicode="&#xf1;" horiz-adv-x="631" d="M25 461q0 8 2 14q39 5 68.5 13.5t43 14.5t16.5 6q9 0 22 -28t22 -62q101 57 197 90q61 0 94 -48.5t33 -128.5q0 -5 -1 -58t-1 -74q0 -167 15 -169q15 -3 56 -3q4 -7 4 -16q0 -7 -4 -15q-19 0 -52.5 1.5t-39.5 1.5q-83 0 -132 -8q-5 6 -5 17l1 8q29 7 45 19.5t20.5 24 t6.5 30.5q4 28 4 133v46.5t-2 42.5t-5 41.5t-9.5 33.5t-15.5 28.5t-23.5 16.5t-32.5 7q-28 0 -59 -12t-47 -22t-45 -30q-4 -79 -4 -204q0 -140 12 -141q15 -3 52 -3q4 -7 4 -16q0 -7 -4 -15q-19 0 -49 1.5t-36 1.5q-76 0 -132 -8q-5 6 -5 17l1 8q29 7 45 19.5t20.5 24 t6.5 30.5q5 44 5 230q0 22 -0.5 33.5t-1.5 29.5t-4 27t-8.5 19t-14 14.5t-20.5 4.5q-5 0 -20.5 -0.5t-18.5 -0.5q-4 5 -4 13zM148 616q29 23 57 47q30 24 46 24q25 0 71 -15.5t79 -15.5q6 0 12.5 1.5t14 5.5t11 6t13 8.5t11.5 7.5q11 -3 17 -22q-5 -4 -27 -23.5t-40.5 -33 t-27.5 -13.5q-28 0 -77 15.5t-77 15.5q-22 0 -67 -28q-9 5 -16 20z" />
<glyph unicode="&#xf2;" d="M40 244q0 224 259 265q105 0 177.5 -77t72.5 -188q0 -222 -258 -264q-106 0 -178.5 75.5t-72.5 188.5zM132 283q0 -104 49 -182t132 -78q144 0 144 184q0 104 -48 182t-130 78q-76 0 -111.5 -50.5t-35.5 -133.5zM171 697q14 35 56 51q27 -39 61.5 -85t55.5 -73l21 -26 q-4 -17 -22 -17z" />
<glyph unicode="&#xf3;" d="M40 244q0 224 259 265q105 0 177.5 -77t72.5 -188q0 -222 -258 -264q-106 0 -178.5 75.5t-72.5 188.5zM132 283q0 -104 49 -182t132 -78q144 0 144 184q0 104 -48 182t-130 78q-76 0 -111.5 -50.5t-35.5 -133.5zM236 564q77 97 139 184q40 -16 56 -51l-172 -150 q-8 0 -14 4.5t-7 8.5z" />
<glyph unicode="&#xf4;" d="M40 244q0 224 259 265q105 0 177.5 -77t72.5 -188q0 -222 -258 -264q-106 0 -178.5 75.5t-72.5 188.5zM132 283q0 -104 49 -182t132 -78q144 0 144 184q0 104 -48 182t-130 78q-76 0 -111.5 -50.5t-35.5 -133.5zM141 564q87 105 148 192h12q28 -39 65 -87t60 -77l23 -28 q-4 -17 -22 -17l-131 122l-132 -122q-8 0 -13.5 4.5t-7.5 8.5z" />
<glyph unicode="&#xf5;" d="M40 244q0 224 259 265q105 0 177.5 -77t72.5 -188q0 -222 -258 -264q-106 0 -178.5 75.5t-72.5 188.5zM132 283q0 -104 49 -182t132 -78q144 0 144 184q0 104 -48 182t-130 78q-76 0 -111.5 -50.5t-35.5 -133.5zM136 616q29 23 57 47q30 24 46 24q25 0 71 -15.5t79 -15.5 q6 0 12.5 1.5t14 5.5t11 6t13 8.5t11.5 7.5q11 -3 17 -22q-5 -4 -27 -23.5t-40.5 -33t-27.5 -13.5q-28 0 -77 15.5t-77 15.5q-22 0 -67 -28q-9 5 -16 20z" />
<glyph unicode="&#xf6;" d="M40 244q0 224 259 265q105 0 177.5 -77t72.5 -188q0 -222 -258 -264q-106 0 -178.5 75.5t-72.5 188.5zM129 657q12 14 32.5 29.5t35.5 21.5q38 -28 50 -67q-31 -37 -67 -50q-33 24 -51 66zM132 283q0 -104 49 -182t132 -78q144 0 144 184q0 104 -48 182t-130 78 q-76 0 -111.5 -50.5t-35.5 -133.5zM345 657q12 14 32.5 29.5t35.5 21.5q38 -28 50 -67q-31 -37 -67 -50q-33 24 -51 66z" />
<glyph unicode="&#xf7;" horiz-adv-x="532" d="M40 229q4 9 13 54h211q121 0 219 9q9 -4 9 -16q-4 -7 -6 -16t-4 -20.5t-3 -16.5h-214q-118 0 -216 -8q-9 4 -9 14zM203 108q35 37 74 55q39 -39 52 -74q-24 -31 -72 -53q-34 31 -54 72zM203 399q40 40 74 54q39 -39 52 -73q-10 -13 -32 -29.5t-40 -23.5q-36 33 -54 72z " />
<glyph unicode="&#xf8;" d="M40 244q0 224 259 265q69 0 125 -36q43 70 53 88q3 2 7 2q7 0 11 -4q7 -13 25 -39l-55 -77q84 -78 84 -199q0 -222 -258 -264q-69 0 -127 33q-40 -61 -51 -84q-2 -1 -6 -1q-7 0 -11 4q0 1 -25 39l53 73q-84 78 -84 200zM132 283q0 -94 41 -170l115 162q52 71 99 142 q-45 50 -108 50q-76 0 -111.5 -50.5t-35.5 -133.5zM203 72q46 -49 110 -49q144 0 144 184q0 98 -40 168l-94 -132q-34 -46 -120 -171z" />
<glyph unicode="&#xf9;" horiz-adv-x="609" d="M20 476l3 12q17 3 77 13l71 15q4 -1 7.5 -4t5.5 -6l1 -2q-8 -55 -8 -289q0 -164 88 -164q31 0 62.5 11t47.5 21.5t41 29.5q3 66 3 95v121q0 37 -1 53.5t-5.5 36t-15 28t-28.5 12.5l-33 4q0 2 -1.5 6.5t-1.5 6.5l3 12q10 2 36.5 5t51.5 8q63 13 69 15q5 -1 8.5 -4t4.5 -6 l2 -2q-9 -68 -9 -224l1 -143q0 -90 45 -90q5 0 17.5 0.5t18.5 0.5q4 -7 4 -16l-1 -11q-18 -3 -34 -7.5t-26.5 -8t-20.5 -8.5l-15 -7.5t-10 -5.5l-5 -4q-22 8 -37 35.5t-17 55.5q-85 -53 -195 -91q-64 0 -95.5 47.5t-31.5 129.5v191q0 68 -6 86.5t-35 24.5l-33 4q-3 6 -3 13z M189 697q16 35 56 51q28 -39 62.5 -85t55.5 -73l21 -26q-4 -17 -23 -17z" />
<glyph unicode="&#xfa;" horiz-adv-x="609" d="M20 476l3 12q17 3 77 13l71 15q4 -1 7.5 -4t5.5 -6l1 -2q-8 -55 -8 -289q0 -164 88 -164q31 0 62.5 11t47.5 21.5t41 29.5q3 66 3 95v121q0 37 -1 53.5t-5.5 36t-15 28t-28.5 12.5l-33 4q0 2 -1.5 6.5t-1.5 6.5l3 12q10 2 36.5 5t51.5 8q63 13 69 15q5 -1 8.5 -4t4.5 -6 l2 -2q-9 -68 -9 -224l1 -143q0 -90 45 -90q5 0 17.5 0.5t18.5 0.5q4 -7 4 -16l-1 -11q-18 -3 -34 -7.5t-26.5 -8t-20.5 -8.5l-15 -7.5t-10 -5.5l-5 -4q-22 8 -37 35.5t-17 55.5q-85 -53 -195 -91q-64 0 -95.5 47.5t-31.5 129.5v191q0 68 -6 86.5t-35 24.5l-33 4q-3 6 -3 13z M235 564q77 97 138 184q42 -16 56 -51l-172 -150q-8 0 -13.5 4.5t-7.5 8.5z" />
<glyph unicode="&#xfb;" horiz-adv-x="609" d="M20 476l3 12q17 3 77 13l71 15q4 -1 7.5 -4t5.5 -6l1 -2q-8 -55 -8 -289q0 -164 88 -164q31 0 62.5 11t47.5 21.5t41 29.5q3 66 3 95v121q0 37 -1 53.5t-5.5 36t-15 28t-28.5 12.5l-33 4q0 2 -1.5 6.5t-1.5 6.5l3 12q10 2 36.5 5t51.5 8q63 13 69 15q5 -1 8.5 -4t4.5 -6 l2 -2q-9 -68 -9 -224l1 -143q0 -90 45 -90q5 0 17.5 0.5t18.5 0.5q4 -7 4 -16l-1 -11q-18 -3 -34 -7.5t-26.5 -8t-20.5 -8.5l-15 -7.5t-10 -5.5l-5 -4q-22 8 -37 35.5t-17 55.5q-85 -53 -195 -91q-64 0 -95.5 47.5t-31.5 129.5v191q0 68 -6 86.5t-35 24.5l-33 4q-3 6 -3 13z M139 564q86 105 148 192h12q27 -39 64 -87t61 -77l23 -28q-4 -17 -23 -17l-131 122l-132 -122q-8 0 -13.5 4.5t-7.5 8.5z" />
<glyph unicode="&#xfc;" horiz-adv-x="609" d="M20 476l3 12q17 3 77 13l71 15q4 -1 7.5 -4t5.5 -6l1 -2q-8 -55 -8 -289q0 -164 88 -164q31 0 62.5 11t47.5 21.5t41 29.5q3 66 3 95v121q0 37 -1 53.5t-5.5 36t-15 28t-28.5 12.5l-33 4q0 2 -1.5 6.5t-1.5 6.5l3 12q10 2 36.5 5t51.5 8q63 13 69 15q5 -1 8.5 -4t4.5 -6 l2 -2q-9 -68 -9 -224l1 -143q0 -90 45 -90q5 0 17.5 0.5t18.5 0.5q4 -7 4 -16l-1 -11q-18 -3 -34 -7.5t-26.5 -8t-20.5 -8.5l-15 -7.5t-10 -5.5l-5 -4q-22 8 -37 35.5t-17 55.5q-85 -53 -195 -91q-64 0 -95.5 47.5t-31.5 129.5v191q0 68 -6 86.5t-35 24.5l-33 4q-3 6 -3 13z M121 657q12 14 32.5 29.5t35.5 21.5q38 -28 50 -67q-31 -37 -67 -50q-33 24 -51 66zM337 657q12 14 32.5 29.5t35.5 21.5q38 -28 50 -67q-31 -37 -67 -50q-33 24 -51 66z" />
<glyph unicode="&#xfd;" horiz-adv-x="535" d="M-12 477q0 18 5 26q66 -10 104 -10q7 0 21 0.5t33.5 1.5t31.5 1q2 -5 2 -15l-2 -16q-31 0 -44 -2q9 -61 48 -155l97 -240l87 223q44 113 50 168q-36 4 -74 4q-4 6 -4 17q0 5 2 13h98q46 0 84 6q8 -13 8 -26q-25 -11 -36 -22q-27 -29 -59 -103l-145 -348q-13 -31 -68 -176 q-3 -8 -14.5 -38t-21.5 -56.5t-22.5 -55t-24 -45.5t-19.5 -17q-5 0 -20.5 5.5t-43 13.5t-54.5 14q0 20 9 32q36 -6 39 -6q29 0 74.5 67.5t70.5 133.5l36 96l-163 400q-25 63 -46 85q-13 16 -39 24zM216 564q77 97 139 184q40 -16 56 -51l-172 -150q-8 0 -14 4.5t-7 8.5z" />
<glyph unicode="&#xfe;" horiz-adv-x="593" d="M17 815l3 13q54 10 83 20q23 8 88 47q4 0 7.5 -2.5t5.5 -4.5l1 -3q-20 -124 -20 -466q128 73 182 90q75 -16 132 -91.5t57 -186.5q0 -67 -32.5 -119t-80 -79t-91.5 -40t-77 -13q-19 0 -90 15v-56q0 -267 12 -268q31 -3 112 -3q3 -7 3 -16t-3 -15q-30 0 -82 1.5t-62 1.5 q-85 0 -140 -8q-5 5 -5 17l1 8q41 10 56 28t19 46q11 77 11 328v616q0 66 -10 92.5t-42 31.5l-35 4q0 1 -1 3.5t-1.5 4.5t-0.5 4zM185 88q0 -24 64 -47q48 -18 71 -18q57 0 104.5 51t47.5 119q0 104 -47 175t-105 71q-53 0 -135 -63v-288z" />
<glyph unicode="&#xff;" horiz-adv-x="535" d="M-12 477q0 18 5 26q66 -10 104 -10q7 0 21 0.5t33.5 1.5t31.5 1q2 -5 2 -15l-2 -16q-31 0 -44 -2q9 -61 48 -155l97 -240l87 223q44 113 50 168q-36 4 -74 4q-4 6 -4 17q0 5 2 13h98q46 0 84 6q8 -13 8 -26q-25 -11 -36 -22q-27 -29 -59 -103l-145 -348q-13 -31 -68 -176 q-3 -8 -14.5 -38t-21.5 -56.5t-22.5 -55t-24 -45.5t-19.5 -17q-5 0 -20.5 5.5t-43 13.5t-54.5 14q0 20 9 32q36 -6 39 -6q29 0 74.5 67.5t70.5 133.5l36 96l-163 400q-25 63 -46 85q-13 16 -39 24zM108 657q12 14 32.5 29.5t35.5 21.5q38 -28 49 -67q-28 -36 -66 -50 q-36 25 -51 66zM324 657q12 14 32.5 29.5t35.5 21.5q38 -28 49 -67q-28 -36 -66 -50q-36 25 -51 66z" />
<glyph unicode="&#x152;" horiz-adv-x="1092" d="M64 357q0 69 19 126.5t48 94.5t67 66t73.5 44t70 25t53 12.5t26.5 2.5q53 0 126.5 -4t127.5 -4h84q45 0 136.5 3.5t99.5 3.5q17 0 17 -11q0 -1 -3.5 -24t-7.5 -62t-6 -77q-12 -6 -23 -6q-9 0 -16 4q-16 100 -19 113q-91 21 -192 21q-44 0 -72 -4q-12 -64 -12 -285 q16 -4 84 -4q71 0 111 5q28 3 43.5 15t23.5 49q21 0 30 -6q-9 -60 -9 -84q0 -7 0.5 -36t0.5 -51q-6 -5 -17 -5l-15 2l-10 66q-54 9 -154 9q-43 0 -88 -5v-179q0 -87 7 -132q31 -4 71 -4q101 0 204 27q7 11 14 26t11 25.5t11 30t9 26.5q5 1 13 1q12 0 24 -9q-14 -72 -21 -147 q-1 -12 -13 -13q-44 -7 -118 -7q-39 0 -99.5 2t-70.5 2h-54q-35 0 -103 -6t-137 -6q-144 0 -244.5 106t-100.5 263zM164 411q0 -91 34 -175.5t98.5 -140.5t143.5 -56q66 0 116 24q3 11 8 41q12 91 12 245q0 160 -4 240q-1 45 -5 76q-58 18 -170 18q-109 0 -171 -79.5 t-62 -192.5z" />
<glyph unicode="&#x153;" horiz-adv-x="923" d="M40 244q0 224 259 265q60 0 111.5 -29.5t85.5 -80.5q58 84 169 110q33 0 66 -10t68.5 -40.5t48.5 -78.5q4 -12 28 -13q7 -7 7 -18l-3 -12q-176 -41 -345 -57q0 -92 42 -160t128 -68q83 0 146 44q10 -3 16 -21l-108 -76q-27 -19 -103 -19q-51 0 -94.5 27.5t-70.5 75.5 q-62 -78 -200 -103q-106 0 -178.5 75.5t-72.5 188.5zM132 283q0 -103 50 -181.5t131 -78.5q74 0 109 50t35 134q0 103 -48.5 181.5t-129.5 78.5q-74 0 -110.5 -51.5t-36.5 -132.5zM539 321q55 0 129 12q62 11 100 24q5 3 5 6q0 6 -12.5 29.5t-43.5 50t-69 26.5 q-29 0 -45 -10q-55 -37 -64 -138z" />
<glyph unicode="&#x2c6;" horiz-adv-x="624" d="M156 564q87 105 148 192h12q27 -39 64 -87t60 -77l24 -28q-4 -17 -23 -17l-130 122l-132 -122q-8 0 -13.5 4.5t-7.5 8.5z" />
<glyph unicode="&#x2dc;" horiz-adv-x="636" d="M152 616q29 23 57 47q30 24 46 24q25 0 71 -15.5t79 -15.5q6 0 12.5 1.5t14 5.5t11 6t13 8.5t11.5 7.5q11 -3 17 -22q-5 -4 -27 -23.5t-40.5 -33t-27.5 -13.5q-28 0 -77 15.5t-77 15.5q-22 0 -67 -28q-9 5 -16 20z" />
<glyph unicode="&#x2000;" horiz-adv-x="489" />
<glyph unicode="&#x2001;" horiz-adv-x="979" />
<glyph unicode="&#x2002;" horiz-adv-x="489" />
<glyph unicode="&#x2003;" horiz-adv-x="979" />
<glyph unicode="&#x2004;" horiz-adv-x="326" />
<glyph unicode="&#x2005;" horiz-adv-x="244" />
<glyph unicode="&#x2006;" horiz-adv-x="163" />
<glyph unicode="&#x2007;" horiz-adv-x="163" />
<glyph unicode="&#x2008;" horiz-adv-x="122" />
<glyph unicode="&#x2009;" horiz-adv-x="195" />
<glyph unicode="&#x200a;" horiz-adv-x="54" />
<glyph unicode="&#x2010;" horiz-adv-x="380" d="M47 227q7 20 13 48h143q64 0 121 9q9 -4 9 -15q-7 -20 -13 -48h-143q-64 0 -121 -9q-9 4 -9 15z" />
<glyph unicode="&#x2011;" horiz-adv-x="380" d="M47 227q7 20 13 48h143q64 0 121 9q9 -4 9 -15q-7 -20 -13 -48h-143q-64 0 -121 -9q-9 4 -9 15z" />
<glyph unicode="&#x2012;" horiz-adv-x="380" d="M47 227q7 20 13 48h143q64 0 121 9q9 -4 9 -15q-7 -20 -13 -48h-143q-64 0 -121 -9q-9 4 -9 15z" />
<glyph unicode="&#x2013;" horiz-adv-x="665" d="M47 224q7 20 13 48h271q165 0 278 9q10 -4 10 -16q-6 -12 -14 -48h-273q-163 0 -276 -8q-9 4 -9 15z" />
<glyph unicode="&#x2014;" horiz-adv-x="1073" d="M47 224q7 20 13 48h475q289 0 482 8q10 -4 10 -16q-6 -13 -14 -47h-477q-287 0 -480 -8q-9 4 -9 15z" />
<glyph unicode="&#x2018;" horiz-adv-x="231" d="M67 667q0 35 29 87.5t79 100.5q16 0 21 -15q-52 -75 -52 -120q33 -27 53 -71q-37 -42 -77 -57q-18 15 -33.5 37.5t-19.5 37.5z" />
<glyph unicode="&#x2019;" horiz-adv-x="197" d="M33 797q38 41 78 58q18 -16 33.5 -38.5t19.5 -36.5q0 -35 -29 -87.5t-79 -100.5q-16 0 -21 15q52 74 52 120q-33 27 -54 70z" />
<glyph unicode="&#x201a;" horiz-adv-x="248" d="M67 55q37 42 77 57q18 -15 33.5 -37.5t19.5 -37.5q0 -35 -29 -87.5t-79 -100.5q-16 0 -21 15q52 75 52 120q-33 27 -53 71z" />
<glyph unicode="&#x201c;" horiz-adv-x="397" d="M67 667q0 35 29 87.5t79 100.5q16 0 21 -15q-52 -75 -52 -120q33 -27 53 -71q-37 -42 -77 -57q-18 15 -33.5 37.5t-19.5 37.5zM233 667q0 35 29 87.5t79 100.5q17 0 22 -15q-52 -73 -52 -120q33 -27 53 -71q-37 -42 -77 -57q-18 15 -33.5 37.5t-20.5 37.5z" />
<glyph unicode="&#x201d;" horiz-adv-x="397" d="M33 797q38 41 78 58q18 -16 33.5 -38.5t19.5 -36.5q0 -35 -29 -87.5t-79 -100.5q-16 0 -21 15q52 74 52 120q-33 27 -54 70zM200 797q36 41 77 58q39 -33 54 -75q0 -35 -29 -87.5t-79 -100.5q-17 0 -22 15q52 72 52 120q-33 28 -53 70z" />
<glyph unicode="&#x201e;" horiz-adv-x="415" d="M67 55q37 42 77 57q18 -15 33.5 -37.5t19.5 -37.5q0 -35 -29 -87.5t-79 -100.5q-16 0 -21 15q52 75 52 120q-33 27 -53 71zM233 55q39 42 78 57q18 -15 33.5 -37.5t19.5 -37.5q0 -35 -29 -87.5t-79 -100.5q-16 0 -21 15q52 75 52 120q-32 26 -54 71z" />
<glyph unicode="&#x2022;" horiz-adv-x="461" d="M100 299q28 32 73.5 66.5t78.5 46.5q38 -29 68 -70.5t41 -77.5q-23 -31 -67.5 -66t-80.5 -47q-77 55 -113 148z" />
<glyph unicode="&#x2026;" horiz-adv-x="755" d="M67 61q35 40 84 63q42 -37 60 -83q-11 -15 -36 -33.5t-46 -27.5q-40 33 -62 81zM299 61q35 40 84 63q42 -37 60 -83q-11 -15 -36 -33.5t-46 -27.5q-40 33 -62 81zM531 61q35 40 84 63q42 -37 60 -83q-11 -15 -36 -33.5t-46 -27.5q-40 33 -62 81z" />
<glyph unicode="&#x202f;" horiz-adv-x="195" />
<glyph unicode="&#x2039;" horiz-adv-x="320" d="M33 241v14q57 47 120 107.5t96 100.5q10 0 16.5 -5t8.5 -10l2 -5l-139 -195l139 -195q-5 -20 -27 -20q-81 96 -216 208z" />
<glyph unicode="&#x203a;" horiz-adv-x="320" d="M44 53l139 195l-139 195q5 20 27 20q33 -40 96 -100.5t120 -107.5v-14q-135 -112 -216 -208q-10 0 -16.5 5t-8.5 10z" />
<glyph unicode="&#x205f;" horiz-adv-x="244" />
<glyph unicode="&#x20ac;" horiz-adv-x="512" d="M20 172q8 17 11 35h154q91 0 170 6q8 -2 8 -12q-4 -7 -11 -34h-179q34 -120 135 -120q61 0 143 26q6 -8 6 -21l-102 -60q-18 -12 -67 -12q-83 0 -133.5 51t-67.5 134l-59 -5q-8 3 -8 12zM31 277q9 19 10 35h47q12 59 45 102t70.5 61.5t62.5 26t38 7.5q78 0 148 -26 q-4 -33 -7 -114q-8 -4 -14 -4q-2 0 -7 1.5t-7 1.5q-9 52 -21 79q-37 28 -104 28q-55 0 -89.5 -48.5t-42.5 -114.5h37q95 0 175 7q8 -3 8 -12q-5 -12 -11 -36h-170q-110 0 -160 -6q-8 3 -8 12z" />
<glyph unicode="&#xe000;" horiz-adv-x="510" d="M0 0v510h510v-510h-510z" />
<glyph unicode="&#xfb01;" horiz-adv-x="652" d="M13 459q5 10 11 34h96q1 16 7 98q5 67 30.5 119t56.5 78.5t67.5 43t57.5 20.5t33 4q48 0 104.5 -27t86.5 -76q-3 -5 -8 -13.5t-24.5 -22.5t-42.5 -14q-89 110 -163 110q-35 0 -71 -57t-43 -128q-7 -64 -8 -135q177 0 250 10q36 3 79 22q5 0 9 -3t5 -6l1 -3 q-12 -68 -12 -324q0 -46 3.5 -101.5t9.5 -56.5q15 -3 56 -3q3 -7 3 -16t-3 -15q-19 0 -52 1.5t-39 1.5q-69 0 -132 -8q-5 6 -5 17l1 8q21 5 35.5 12.5t22.5 19t11 19.5t7 23q6 18 6 125v107q0 64 -8 95t-34 31h-216v-150q0 -266 12 -267q41 -4 106 -4q4 -8 4 -17 q0 -6 -4 -14q-31 0 -79.5 1.5t-58.5 1.5q-83 0 -152 -8q-5 6 -5 17l1 8q25 5 41.5 12.5t25 18.5t11.5 19.5t5 23.5q11 77 11 324v33l-99 -1q-7 4 -7 12z" />
<glyph unicode="&#xfb02;" horiz-adv-x="645" d="M13 459q5 10 11 34h96q1 16 7 98q5 67 30.5 119t56.5 78.5t67.5 43t57.5 20.5t33 4q23 0 73 -16q50 25 92 55q8 0 15 -10q-21 -131 -21 -469v-117q0 -264 13 -267q23 -4 77 -4q3 -7 3 -16t-3 -15q-25 0 -63.5 1.5t-46.5 1.5q-79 0 -148 -8q-6 8 -6 17l2 8 q48 10 63.5 28.5t20.5 53.5q9 63 9 320v256q0 54 -5 77q-76 61 -122 61q-35 0 -71 -57t-43 -128q-7 -64 -8 -135q76 0 132 7q6 -4 6 -13q-4 -8 -6.5 -20.5t-3.5 -15.5l-130 -2v-150q0 -266 12 -267q41 -4 106 -4q4 -8 4 -17q0 -6 -4 -14q-31 0 -79.5 1.5t-58.5 1.5 q-83 0 -152 -8q-5 6 -5 17l1 8q25 5 41.5 12.5t25 18.5t11.5 19.5t5 23.5q11 77 11 324v33l-99 -1q-7 4 -7 12z" />
</font>
</defs>
</svg>
