<?xml version="1.0" standalone="no"?>
<!DOCTYPE svg PUBLIC "-//W3C//DTD SVG 1.1//EN" "http://www.w3.org/Graphics/SVG/1.1/DTD/svg11.dtd" >
<svg xmlns="http://www.w3.org/2000/svg">
<metadata></metadata>
<defs>
<font id="crimson_textitalic" horiz-adv-x="410" >
<font-face units-per-em="1024" ascent="717" descent="-307" />
<missing-glyph horiz-adv-x="228" />
<glyph horiz-adv-x="1024" />
<glyph horiz-adv-x="1024" />
<glyph unicode="&#xd;" horiz-adv-x="341" />
<glyph unicode=" "  horiz-adv-x="228" />
<glyph unicode="&#x09;" horiz-adv-x="228" />
<glyph unicode="&#xa0;" horiz-adv-x="228" />
<glyph unicode="!" horiz-adv-x="187" d="M70 36q0 28 19 47t47 19q18 0 30.5 -14t12.5 -32q0 -29 -18.5 -49.5t-46.5 -20.5q-19 0 -31.5 15t-12.5 35zM130 166q0 2 8.5 72t21.5 171t23 168q3 17 20 35.5t39 18.5q15 0 23 -13t8 -30q0 -12 -16.5 -73.5t-45.5 -167.5t-47 -177q-2 -9 -12.5 -15.5t-15.5 -6.5 q-6 0 -6 18z" />
<glyph unicode="&#x22;" horiz-adv-x="297" d="M45 447q4 40 4 75.5t-2 68t-2 45.5q3 17 23 39.5t44 22.5q23 0 28.5 -10.5t-0.5 -54.5q-6 -31 -28.5 -94t-30.5 -90q-2 -7 -8.5 -11t-12.5 -4t-11 3.5t-4 9.5zM195 447q4 40 4 75.5t-2 68t-2 45.5q3 17 23 39.5t44 22.5q23 0 28.5 -10.5t-0.5 -54.5q-6 -31 -28.5 -94 t-30.5 -90q-2 -7 -8.5 -11t-12.5 -4t-11 3.5t-4 9.5z" />
<glyph unicode="#" horiz-adv-x="419" d="M-2 181q0 13 8.5 31.5t16.5 18.5h77l29 86h-76q-7 0 -7 6q0 13 8.5 31.5t16.5 18.5h77l51 151q3 8 33 8q22 0 22 -6q-1 -1 -1 -2l-52 -151h87l51 151q3 8 33 8q22 0 22 -6q-1 -1 -1 -2l-52 -151h76q7 0 7 -5q0 -13 -8.5 -32t-16.5 -19h-77l-29 -86h76q7 0 7 -6 q0 -13 -8.5 -31.5t-16.5 -18.5h-77l-51 -151q-3 -8 -33 -8q-22 0 -22 5q1 2 1 3l52 151h-87l-51 -151q-3 -8 -33 -8q-22 0 -22 5q1 2 1 3l52 151h-76q-7 0 -7 6zM153 231h87l29 86h-87z" />
<glyph unicode="$" horiz-adv-x="430" d="M52 15q-9 65 3 151q2 8 18 8q14 0 19 -8q7 -135 121 -135q46 0 84 29t48 81q2 11 2 21.5t-0.5 19t-4.5 17t-6.5 14t-9.5 12.5t-10 10.5t-12.5 10t-11.5 8t-12.5 8t-11.5 7.5q-42 26 -65.5 44t-47.5 43t-31 53.5t0 63.5q14 73 76.5 122t133.5 49q21 0 47.5 -4.5t52 -11 t30.5 -7.5q-6 -86 -16 -137q-2 -8 -8 -8q-22 2 -22 11q2 35 -22.5 75t-74.5 40q-101 0 -120 -97q-9 -46 12.5 -75t72.5 -64q75 -53 91 -67q65 -59 51 -129q-15 -77 -81.5 -127.5t-143.5 -50.5q-36 0 -151 23zM125 -43l253 726q32 0 31 -7l-253 -728q-32 0 -31 9z" />
<glyph unicode="%" horiz-adv-x="618" d="M-14 -1l596 653q11 11 22 11q22 0 27 -13l-596 -650q-12 -12 -34 -12q-12 0 -15 11zM58 469q0 76 54 140t128 64q55 0 84 -38.5t29 -93.5q0 -75 -54 -139t-125 -64q-54 0 -85 38.5t-31 92.5zM121 478q0 -45 16 -78.5t49 -33.5q45 0 73.5 55t28.5 120q0 42 -13.5 73.5 t-44.5 31.5q-45 0 -77 -53t-32 -115zM270 123q0 76 54 140t128 64q55 0 84 -38.5t29 -93.5q0 -75 -54 -139t-125 -64q-54 0 -85 38.5t-31 92.5zM333 132q0 -45 16 -78.5t49 -33.5q45 0 73.5 55t28.5 120q0 42 -13.5 73.5t-44.5 31.5q-45 0 -77 -53t-32 -115z" />
<glyph unicode="&#x26;" horiz-adv-x="644" d="M78 196q0 61 39.5 114t86.5 71q-38 43 -38 98q0 66 58 111t124 45q46 0 80.5 -25t34.5 -67q0 -29 -21.5 -55t-38.5 -26q-9 0 -9 7q0 1 5 14.5t5 30.5q0 32 -23 54t-55 22q-46 0 -78 -34.5t-32 -81.5q0 -50 33 -79q25 7 39 7q28 0 51.5 -11t23.5 -31q0 -19 -20 -29.5 t-45 -10.5q-38 0 -62 21q-72 -61 -72 -137q0 -73 50 -124t124 -51q82 0 146.5 61.5t64.5 146.5q0 39 -23.5 68.5t-59.5 29.5q-28 0 -49 -15t-21 -40q0 -14 11 -21.5t23.5 -9.5t23.5 -10t11 -22q0 -17 -9.5 -30t-23.5 -17q-24 0 -50.5 25t-26.5 63q0 55 43 91.5t101 36.5 q15 0 38 -1t38 -1q35 0 61.5 15.5t26.5 44.5q0 15 -9 25.5t-23 10.5q-11 0 -26.5 -9t-26.5 -9q-12 0 -20.5 10t-8.5 23q0 23 26 43q56 0 90.5 -25t34.5 -69t-30.5 -71t-81.5 -27q-6 0 -26 2q55 -49 55 -124q0 -99 -88.5 -168.5t-202.5 -69.5q-99 0 -173.5 59t-74.5 151z" />
<glyph unicode="'" horiz-adv-x="147" d="M45 447q4 40 4 75.5t-2 68t-2 45.5q3 17 23 39.5t44 22.5q23 0 28.5 -10.5t-0.5 -54.5q-6 -31 -28.5 -94t-30.5 -90q-2 -7 -8.5 -11t-12.5 -4t-11 3.5t-4 9.5z" />
<glyph unicode="(" horiz-adv-x="292" d="M21 174q0 105 33 214t78 185.5t91.5 125.5t74.5 49q9 0 9 -20q0 -5 -2 -7q-40 -19 -91.5 -101t-92.5 -209.5t-41 -246.5q0 -97 22.5 -171.5t44.5 -87.5q1 0 1 -3q0 -6 -6.5 -14.5t-11.5 -8.5q-35 0 -72 87.5t-37 207.5z" />
<glyph unicode=")" horiz-adv-x="276" d="M-17 -103q0 7 3 8q14 7 39.5 36t57.5 82t60.5 118.5t47.5 155t19 180.5q0 93 -18.5 160.5t-46.5 83.5q-1 1 -1 2q0 5 6 15t11 10q39 0 73.5 -84t34.5 -207q0 -95 -23.5 -188.5t-58.5 -161t-74 -121t-71.5 -80.5t-49.5 -27q-9 0 -9 18z" />
<glyph unicode="*" horiz-adv-x="343" d="M9 456q0 9 3.5 17.5t18 17.5t39.5 9q16 0 42.5 -3.5t35.5 -3.5q25 0 25 17q0 10 -25.5 49.5t-25.5 63.5q0 18 10.5 29.5t23.5 11.5q11 0 18 -7t10 -20.5t4 -26t1 -30.5q0 -66 12 -66q8 0 22.5 18.5t29 41t34.5 41t37 18.5q23 0 23 -24q0 -19 -21 -38t-45.5 -30.5 t-45.5 -25.5t-21 -24q0 -9 19.5 -15.5t42.5 -10.5t42.5 -16t19.5 -30q0 -14 -11 -25t-26 -11q-18 0 -38 20.5t-36.5 41.5t-26.5 21t-13.5 -18t-6.5 -51.5t-10 -55.5q-6 -21 -17.5 -32t-23.5 -11q-10 0 -16.5 7.5t-6.5 20.5q0 22 32.5 74.5t32.5 63.5q0 9 -9 9 q-8 0 -55 -20.5t-68 -20.5q-30 0 -30 24z" />
<glyph unicode="+" horiz-adv-x="457" d="M-3 231q0 19 22 47h178q4 0 4 4q6 29 16 90.5t17 97.5q2 9 24 13.5t32 4.5q6 0 8.5 -2.5t1.5 -6.5q-23 -134 -35 -196q-2 -5 3 -5h181q4 0 4 -9q0 -24 -21 -47h-179q-4 0 -4 -4l-35 -188q-1 -8 -18 -13t-32 -5q-8 0 -12 3t-3 6q25 140 36 196q0 5 -4 5h-179q-5 0 -5 9z " />
<glyph unicode="," horiz-adv-x="209" d="M-5 -143q0 3 23.5 23.5t47.5 52.5t24 62q0 16 -6.5 41t-6.5 30q0 25 25 44t54 19q8 0 22 -4q3 -7 3 -23q0 -20 -11 -67q-8 -33 -26.5 -65.5t-40.5 -55.5t-42.5 -41t-34.5 -27l-13 -9q-4 0 -11 6.5t-7 13.5z" />
<glyph unicode="-" horiz-adv-x="295" d="M19 214q0 10 7 28t14 19l227 12q6 0 6 -12q0 -11 -8 -30.5t-15 -20.5l-226 -11q-5 0 -5 15z" />
<glyph unicode="." horiz-adv-x="169" d="M60 33q0 27 21 48t46 21q19 0 31 -12.5t12 -32.5q0 -27 -20.5 -49t-45.5 -22q-19 0 -31.5 13.5t-12.5 33.5z" />
<glyph unicode="/" horiz-adv-x="463" d="M-15 -28l425 767q13 22 44 22q12 0 24 -6l-424 -767q-13 -21 -51 -21q-13 0 -18 5z" />
<glyph unicode="0" d="M57.5 158.5q-8.5 71.5 7.5 160.5q17 88 54.5 160.5t93 117t117.5 44.5q47 0 81 -26t50 -70t19.5 -102.5t-10.5 -123.5q-18 -88 -55.5 -160.5t-93 -117t-116.5 -44.5q-62 0 -100.5 45t-47 116.5zM139.5 118.5q17.5 -83.5 68.5 -83.5q59 0 108 83t74 207q23 118 6 198 t-68 80q-58 0 -108 -81t-73 -202q-25 -118 -7.5 -201.5z" />
<glyph unicode="1" d="M103 -3q-3 4 0 16.5t6 12.5q13 0 39.5 6.5t29.5 13.5q8 17 16 57l70 360q6 29 7.5 44t-0.5 18.5t-7 3.5t-17 -6t-27.5 -15t-21.5 -12q-5 3 -8.5 11.5t-3.5 13.5q0 3 3 6q180 115 183 115h2q8 0 8 -19q-16 -33 -28 -94l-76 -394q-11 -61 -10 -89q1 -7 25 -13.5t33 -6.5 q3 0 0 -18q-1 -8 -3 -11q-92 5 -111 5q-14 0 -109 -5z" />
<glyph unicode="2" d="M32 33q123 111 217.5 227.5t110.5 198.5q10 54 -9 83.5t-60 29.5q-78 0 -140 -83q-5 0 -10 6.5t-4 9.5q5 12 21.5 32.5t42 45t64 42t77.5 17.5q42 0 68.5 -25.5t34 -61.5t-0.5 -76q-6 -32 -23.5 -67.5t-37 -65t-51.5 -66.5t-53.5 -60t-58 -57t-50 -46t-43.5 -38 q-7 -7 0 -7h171q11 0 20 1.5t17 7t12.5 8t11 13t8 13.5t8.5 17.5t9 17.5q6 10 15 10q14 0 16 -4q-6 -15 -24.5 -62.5t-28.5 -77.5q-6 -16 -22 -16h-305q-6 15 -3 33z" />
<glyph unicode="3" d="M42 38q-1 10 0 16q5 22 16.5 34.5t27.5 12.5q9 0 16 -7.5t15.5 -19.5t14.5 -18q23 -21 66 -21q18 0 37 7.5t38.5 23t35.5 45t24 69.5q12 59 -15.5 100t-74.5 41q-34 0 -62 -7q-6 10 -2 26q2 6 4 10q67 12 112 48t57 98q7 34 -12.5 60.5t-51.5 26.5q-20 0 -39 -7.5 t-29 -15.5t-20 -17.5t-12 -10.5q-4 0 -5.5 9.5t-0.5 16.5q33 40 69 62t86 22q40 0 69.5 -35.5t18.5 -92.5q-9 -44 -34.5 -74.5t-68.5 -60.5q20 -8 38 -21.5t34.5 -34.5t23.5 -51.5t0 -65.5q-18 -95 -91 -153t-166 -58q-79 0 -115 30q-3 3 -4 13z" />
<glyph unicode="4" d="M50 174q-4 8 0 31l365 428q11 12 24 12t10 -10l-79 -403h67q9 0 6 -7q-6 -33 -16 -51h-68l-34 -175q-4 -5 -40 -5q-18 0 -25.5 1.5t-7.5 6.5l34 172h-236zM123 241q-2 -9 5 -9h169l52 266q1 2 0 5.5t-3 3.5l-2 -2l-220 -261q-1 -1 -1 -3z" />
<glyph unicode="5" d="M42 38q-1 10 1 16q4 22 15.5 34.5t28.5 12.5q8 0 15.5 -7.5t16 -19.5t14.5 -18q23 -21 70 -21q39 0 77 35.5t53 109.5q6 23 3 48.5t-12 46.5t-35 34.5t-64 13.5q-48 0 -83 -11q-6 4 -14 14l102 297q184 6 221 14q3 -7 1 -21q-5 -27 -16 -55q-26 -8 -107.5 -11.5 l-81.5 -3.5q-5 -1 -8 -8q-8 -20 -58 -160q32 13 90 13q75 0 118 -55t29 -130q-18 -92 -89.5 -151.5t-162.5 -59.5q-83 0 -119 30q-4 3 -5 13z" />
<glyph unicode="6" d="M58 162q0 43 11.5 88.5t40 98.5t72 102t113.5 98t158 88q8 0 8 -25q-97 -41 -167 -102.5t-112 -159.5q-44 -104 -44 -198q0 -50 20 -84.5t61 -34.5q45 0 88 53t43 131q0 50 -23.5 81t-72.5 31q-8 0 -17 -2t-14 -4t-13 -5.5t-9 -3.5q-6 4 -6 14q0 17 34 30.5t55 13.5 q64 0 105 -42t41 -104q0 -56 -33 -110.5t-86 -88t-106 -33.5q-68 0 -107.5 43t-39.5 125z" />
<glyph unicode="7" d="M86 22l350 531h-224q-15 0 -30 -14t-24 -28t-20 -37q-2 -4 -14 -5t-18 2q4 11 26.5 67.5t31.5 82.5q5 12 17 12h269q14 0 38 1.5t25 1.5q6 0 4 -9q-1 -5 -5 -13t-8.5 -14.5t-13 -19.5t-13.5 -20l-354 -563q-3 -3 -10 -3q-10 0 -19 10.5t-8 17.5z" />
<glyph unicode="8" d="M60 154q5 29 21 54.5t41 46.5t40.5 32t40.5 26q6 3 9 5q6 4 2 6q-32 23 -53.5 64.5t-11.5 91.5q13 64 69 113.5t117 49.5q64 0 100 -41.5t23 -110.5q-15 -75 -133 -147q-6 -1 -1 -6q43 -30 70.5 -76t18.5 -95q-14 -74 -77.5 -125t-134.5 -51q-77 0 -116.5 45t-24.5 118z M134 157q-12 -58 12 -94t64 -36q46 0 79 30t43 81q4 23 -3 47.5t-18 41t-28.5 34t-24 23t-15.5 11.5q-4 2 -5 2q-3 0 -4 -1q-44 -27 -67.5 -59t-32.5 -80zM220 492q-13 -68 72 -128q4 -2 5 -2q3 0 6 2q71 45 87 122q9 47 -9 84.5t-58 37.5q-35 0 -64 -32t-39 -84z" />
<glyph unicode="9" d="M67 15q98 41 169 102.5t112 159.5q40 94 40 198q0 51 -19 85t-60 34q-44 0 -84 -52.5t-40 -130.5q0 -106 95 -106q10 0 17.5 0.5t12 1.5t6.5 1.5t6 2t5 2.5q6 -5 6 -14q0 -17 -32.5 -28t-55.5 -11q-63 0 -102 40t-39 102q0 87 68.5 159t150.5 72q68 0 107.5 -43 t39.5 -125q0 -44 -9.5 -89t-36.5 -99t-68.5 -102t-111.5 -96.5t-160 -84.5q-15 4 -17 21z" />
<glyph unicode=":" horiz-adv-x="180" d="M60 34q0 28 21 50t47 22q20 0 32.5 -13.5t12.5 -34.5q0 -28 -21 -50t-47 -22q-20 0 -32.5 13.5t-12.5 34.5zM124 367q0 28 21.5 49.5t47.5 21.5q20 0 32.5 -13.5t12.5 -33.5q0 -28 -21 -50.5t-47 -22.5q-20 0 -33 14t-13 35z" />
<glyph unicode=";" horiz-adv-x="239" d="M-15 -143q0 6 11.5 15t26.5 19.5t31 35.5t23 59q2 12 2 25q0 20 -5.5 34t-5.5 17q0 20 24.5 41t51.5 21q23 0 23 -34q0 -13 -8 -56q-12 -62 -44.5 -102t-108.5 -97q-4 -2 -7 -2q-14 0 -14 24zM125 367q0 28 21.5 49.5t47.5 21.5q20 0 32.5 -13.5t12.5 -33.5 q0 -28 -21 -50.5t-47 -22.5q-20 0 -33 14t-13 35z" />
<glyph unicode="&#x3c;" horiz-adv-x="406" d="M-1 203q0 26 23 38l381 187q2 1 4 1q7 0 7 -35q0 -18 -5 -20l-335 -165l274 -168q2 -1 2 -5q0 -9 -10.5 -29.5t-14.5 -20.5q-2 0 -4 1l-312 190q-10 7 -10 26z" />
<glyph unicode="=" horiz-adv-x="503" d="M15 123q0 5 8.5 27.5t14.5 22.5h416q6 0 6 -5q0 -2 -18 -45l-7 -6h-415q-5 0 -5 6zM44 265q0 4 8 27t14 23h415q6 0 6 -5t-17 -45q-1 -3 -3 -4.5t-3 -1.5h-2h-414q-4 0 -4 6z" />
<glyph unicode="&#x3e;" horiz-adv-x="419" d="M-9 33l5 8l341 168l-272 165q-2 1 -2 4q0 6 11 29t15 23l4 -2l307 -187q12 -7 12 -20q0 -32 -24 -44l-385 -190q-4 -2 -6 -2q-6 0 -6 48z" />
<glyph unicode="?" horiz-adv-x="294" d="M64 32q0 28 20 49t45 21q19 0 32 -13t13 -33q0 -27 -21.5 -48.5t-46.5 -21.5q-19 0 -30.5 13t-11.5 33zM91 279q0 54 42 83l119 84q47 33 47 71q0 29 -14.5 44.5t-39.5 15.5q-23 0 -41.5 -23.5t-36.5 -23.5q-34 0 -34 52q5 14 27 31.5t47 17.5q60 0 102.5 -40t42.5 -89 q0 -24 -4.5 -41.5t-10 -29.5t-21.5 -26t-28.5 -22t-42.5 -27.5t-52 -34.5q-33 -22 -33 -60q0 -19 13 -37t26 -27q0 -10 -10 -16q-24 0 -61 30.5t-37 67.5z" />
<glyph unicode="@" horiz-adv-x="723" d="M10 98.5q-5 43.5 5 86.5q23 120 91.5 210.5t162 136t198.5 45.5q54 0 98.5 -20.5t72.5 -55t46.5 -79t21 -93t-5.5 -96.5q-13 -69 -39 -119.5t-57 -76.5t-61 -38t-60 -12q-45 0 -68 35t-16 70q0 1 -2 0t-3 -2q-20 -27 -71 -62t-83 -35q-33 0 -52.5 23.5t-22 56t2.5 68.5 q10 51 36 98.5t65 86t93 61.5t114 23l81 -9q-16 -47 -18 -53l-65 -223q-30 -98 25 -98q33 0 61.5 21t46.5 53t29 60.5t15 52.5q17 84 -1.5 155t-71.5 115t-130 44q-84 0 -163 -39t-135.5 -109.5t-73.5 -156.5q-10 -60 -9 -112t19.5 -96t50.5 -75t84.5 -48.5t120.5 -17.5 q32 0 67 13v-9q-2 -14 -25 -27.5t-60 -18.5q-57 -2 -106.5 11t-85 38t-63 59.5t-41 74.5t-18.5 83.5zM240 143q-9 -47 4 -68.5t34 -21.5q36 0 85 46.5t56 70.5l43 152q0 1 2 6.5t2.5 8t0.5 6.5t-1.5 6t-4.5 3q-67 24 -132.5 -32.5t-88.5 -176.5z" />
<glyph unicode="A" horiz-adv-x="606" d="M2 5q0 19 7 19q11 0 30.5 6t27.5 15q22 24 61 94l276 496q15 27 39 27q4 0 8 -2l83 -528q10 -63 12 -72q3 -15 25.5 -25.5t32.5 -10.5q2 0 2 -5q0 -12 -5 -22q-93 5 -104 5q-19 0 -35.5 -1t-36.5 -2t-35 -2q-1 1 -1 6q0 21 7 21q10 0 28 6t23 14q7 15 7 47q0 17 -18 148 v2.5t-1.5 2t-4 2t-7 1t-12 1t-18 1t-25 0.5h-33.5q-21 0 -93 -5q-3 0 -27 -40t-47 -87t-23 -62q0 -11 14 -19t25.5 -10t15.5 -2q2 0 2 -6q0 -11 -5 -21q-93 5 -95 5q-19 0 -33.5 -1t-31.5 -2t-33 -2q-2 2 -2 8zM271 301q0 -2 1 -2q23 -1 76 -1q46 0 75 2q4 0 4 4 q0 5 -6.5 47t-15 98t-11.5 77q-123 -223 -123 -225z" />
<glyph unicode="B" horiz-adv-x="528" d="M24 6q0 20 7 20q12 0 36.5 7t28.5 16q14 29 26 93l72 372q11 57 11 93q0 7 -22.5 15.5t-33.5 8.5q-2 0 -2 4q0 16 7 23q46 -2 107 -2q47 0 77 0.5t54 0.5q28 0 55.5 -6.5t53 -20.5t41.5 -40.5t16 -61.5q0 -24 -7 -46.5t-18 -38.5t-25 -30t-27 -23.5t-24.5 -16t-18.5 -9.5 l-6 -3q30 -5 68 -47t38 -99q0 -82 -74.5 -148.5t-201.5 -66.5h-127l-110 -3q-1 1 -1 9zM192 68q0 -18 14 -22.5t46 -4.5q70 0 97 13q41 19 70 61t29 96q0 53 -33 86.5t-106 33.5q-71 0 -74 -15l-38 -200q-5 -30 -5 -48zM250 386q-1 -4 3.5 -6.5t13.5 -4t19 -2t23 -0.5 q32 0 55 4t51 17t43 44t15 78q0 100 -103 100q-73 0 -75 -13z" />
<glyph unicode="C" horiz-adv-x="580" d="M60 267q0 66 29.5 137t78.5 129.5t120.5 96t148.5 37.5q68 0 213 -45q-18 -114 -20 -124q-3 -15 -24 -15q-8 0 -11 3q0 15 -1 27t-10 35t-24.5 38t-48.5 27t-79 12q-103 0 -192 -110t-89 -256q0 -96 52 -159t147 -63q74 0 126 33q25 15 43.5 36t27 34t9.5 13 q3 0 12 -10.5t8 -14.5q-45 -86 -50 -91q-15 -17 -78 -30t-127 -13q-119 0 -190 81.5t-71 191.5z" />
<glyph unicode="D" horiz-adv-x="668" d="M24 5q0 19 5 19q11 0 37 8t30 17q14 29 26 93l72 372q11 62 11 86v7q-1 8 -23 16t-33 8q-2 0 -2 4q0 16 7 23q46 -2 107 -2q35 0 90 1t73 1q130 0 197 -72t67 -181q0 -51 -15 -106t-47.5 -109t-77.5 -97t-111 -69.5t-143 -26.5q-18 0 -71 2.5t-87 2.5l-111 -5q-1 1 -1 8z M199 96.5q0 -28.5 2 -33.5q9 -20 116 -20q84 0 150 54.5t99.5 138.5t33.5 178q0 88 -44 144t-134 56q-107 0 -120 -16q-16 -20 -27 -79l-73 -380q-3 -14 -3 -42.5z" />
<glyph unicode="E" horiz-adv-x="519" d="M24 5q0 19 5 19q11 0 37 8t30 17q14 29 26 93l72 372q11 62 11 86v7q-1 8 -23 16t-33 8q-2 0 -2 4q0 16 7 23q46 -2 107 -2q41 0 141 4t152 4q-1 -14 -1 -39q0 -17 1 -49t1 -48q-5 -5 -18 -5q-12 0 -12 7q-3 56 -26 71t-73 15h-54q-71 0 -76 -13q-11 -30 -18 -67 l-32 -175q0 -3 2.5 -4.5t8.5 -2l12 -1t14 -0.5h45q66 0 82 9.5t39 61.5q3 7 14 7q12 0 15 -5l-37 -192q-6 -4 -14 -4q-13 0 -14 8q-1 27 -4 40.5t-4.5 16t-6.5 6.5q-10 8 -97 8q-66 0 -68 -9l-29 -148q-11 -53 -11 -87q0 -15 8 -18t53 -3h45q87 0 121 17q16 8 37.5 35.5 t40.5 65.5q3 6 15 6q17 0 21 -6q-70 -130 -82 -166q-53 0 -164.5 3t-151.5 3l-111 -5q-1 1 -1 8z" />
<glyph unicode="F" horiz-adv-x="503" d="M24 5q0 19 5 19q11 0 37 8t30 17q14 29 26 93l72 372q11 62 11 86v7q-1 8 -23 16t-33 8q-2 0 -2 4q0 16 7 23q46 -2 107 -2q40 0 139 4t152 4q-1 -14 -1 -39q0 -17 1 -49t1 -48q-5 -5 -18 -5q-12 0 -12 7q-3 56 -26 71t-73 15h-54q-71 0 -76 -13q-11 -30 -18 -67 l-32 -175q0 -3 2.5 -4.5t8.5 -2l12 -1t14 -0.5h45q66 0 82 9.5t39 61.5q3 7 14 7q12 0 15 -5l-37 -192q-6 -4 -14 -4q-13 0 -14 8q-1 27 -4 40.5t-4.5 16t-6.5 6.5q-10 8 -97 8q-66 0 -68 -9l-34 -172q-8 -40 -8 -79q0 -8 17 -14.5t34 -8.5l17 -2q2 0 2 -8q0 -13 -6 -19 q-93 5 -117 5l-111 -5q-1 1 -1 8z" />
<glyph unicode="G" horiz-adv-x="616" d="M60 254q0 97 51 192.5t140 158t188 62.5q68 0 213 -45q-15 -99 -21 -130q-1 -9 -23 -9q-9 0 -11 5q0 15 -1 26.5t-10 34t-24.5 37.5t-48.5 27t-79 12q-73 0 -138.5 -54.5t-103 -136t-37.5 -161.5q0 -96 50 -166t138 -70q82 0 125 22q8 4 11 17l28 142l1 4q1 5 2 12.5 t1 13.5q0 9 -28 17.5t-41 8.5q-2 0 -2 5q0 14 8 22q108 -5 109 -5q14 0 109 5q0 -27 -6 -27q-17 0 -44 -9.5t-30 -28.5l-24 -139q0 -1 -0.5 -3.5t-0.5 -3.5q0 -7 1 -15.5t1 -11.5q0 -5 -1 -7.5t-6.5 -6.5t-15.5 -8q-2 -1 -19.5 -7.5t-22.5 -8.5t-22.5 -7.5t-27.5 -7.5 t-29 -6t-35 -5.5t-38.5 -3t-46.5 -1.5q-106 0 -172.5 74.5t-66.5 185.5z" />
<glyph unicode="H" horiz-adv-x="627" d="M24 5q0 19 7 19q12 0 36 6.5t28 15.5q15 34 26 96l71 370q11 55 11 92q0 11 -21.5 19t-34.5 8q-2 0 -2 5q0 14 8 22q12 -1 47.5 -3.5t60.5 -2.5q24 0 61.5 3t44.5 3v-3q0 -24 -7 -24q-8 0 -33.5 -8t-28.5 -15q-16 -37 -26 -93l-25 -141v-1q0 -5 26.5 -6.5t123.5 -1.5 q130 0 131 8l27 139q11 55 11 92q0 11 -21.5 19t-34.5 8q-2 0 -2 5q0 14 8 22q12 -1 47.5 -3.5t60.5 -2.5q24 0 62.5 3t44.5 3v-3q0 -24 -7 -24q-8 0 -33 -8t-28 -15q-15 -33 -26 -93l-73 -376q-11 -55 -11 -90q0 -8 13.5 -14.5t27.5 -8.5l13 -2q2 0 2 -4q0 -11 -6 -23 q-93 5 -104 5q-3 0 -110 -5q-2 2 -2 8q0 19 7 19q12 0 36 6.5t28 15.5q15 34 26 96l32 165v1q0 5 -23.5 6.5t-113.5 1.5q-144 0 -146 -12l-32 -165q-11 -55 -11 -90q0 -8 13.5 -14.5t26.5 -8.5l14 -2q2 0 2 -4q0 -11 -6 -23q-92 5 -104 5q-2 0 -110 -5q-2 2 -2 8z" />
<glyph unicode="I" horiz-adv-x="263" d="M24 5q0 19 7 19q12 0 36 6.5t28 15.5q15 34 26 96l71 370q11 55 11 92q0 11 -21.5 19t-34.5 8q-2 0 -2 5q0 14 8 22q12 -1 47.5 -3.5t60.5 -2.5q24 0 61.5 3t44.5 3v-3q0 -24 -7 -24q-8 0 -33.5 -8t-28.5 -15q-13 -28 -26 -93l-71 -376q-11 -55 -11 -90q0 -8 13.5 -14.5 t26.5 -8.5l14 -2q2 0 2 -4q0 -11 -6 -23q-92 5 -104 5q-2 0 -110 -5q-2 2 -2 8z" />
<glyph unicode="J" horiz-adv-x="254" d="M-80 -215l1 6q82 26 124 98t70 220l75 403q11 64 11 92q0 11 -25 19t-38 8q-2 0 -2 5q0 14 8 22q12 -1 47.5 -3.5t60.5 -2.5q24 0 61.5 3t44.5 3v-3q0 -24 -7 -24q-8 0 -30 -8t-25 -15q-16 -37 -26 -93l-75 -399q-14 -76 -39.5 -137.5t-54 -100t-61 -64.5t-60.5 -36.5 t-54 -10.5q-6 7 -6 18z" />
<glyph unicode="K" horiz-adv-x="642" d="M24 5q0 19 7 19q12 0 36 6.5t28 15.5q15 34 26 96l71 370q11 55 11 92q0 11 -21.5 19t-34.5 8q-2 0 -2 5q0 14 8 22q12 -1 47.5 -3.5t60.5 -2.5q24 0 61.5 3t44.5 3v-3q0 -24 -7 -24q-8 0 -33.5 -8t-28.5 -15q-13 -28 -26 -93l-71 -376q-11 -55 -11 -90q0 -8 13.5 -14.5 t26.5 -8.5l14 -2q2 0 2 -4q0 -11 -6 -23q-92 5 -104 5q-2 0 -110 -5q-2 2 -2 8zM237 326q46 28 123.5 101.5t147.5 150.5q1 1 7 7.5t10.5 11.5t8.5 11.5t4 9.5q0 9 -17.5 13t-30.5 4q-3 0 -3 6q0 9 5 17q12 -1 31.5 -2.5t35.5 -2.5t31 -1q24 0 62.5 3t44.5 3q0 -23 -6 -23 q-70 -8 -106 -44l-244 -244q-5 -5 -5 -12q0 -8 6 -16l204 -247q17 -21 54 -32.5t51 -11.5q2 0 2 -6q0 -11 -5 -21q-51 -3 -75 -3q-32 0 -59.5 10t-39 19t-17.5 17q-199 253 -220 282z" />
<glyph unicode="L" horiz-adv-x="498" d="M24 5q0 24 7 24q13 0 37 6t28 14q14 29 26 93l71 370q11 55 11 92q0 11 -21.5 19t-34.5 8q-2 0 -2 5q0 14 8 22q12 -1 47.5 -3.5t60.5 -2.5q24 0 61.5 3t44.5 3v-3q0 -24 -7 -24q-8 0 -33.5 -8t-28.5 -15q-13 -28 -26 -93l-71 -376q-10 -58 -10 -74q0 -15 8.5 -18 t53.5 -3h45q87 0 121 17q16 8 37.5 35.5t40.5 65.5q3 6 15 6q17 0 21 -6q-70 -130 -82 -166q-52 0 -164 3t-152 3l-111 -5q-1 1 -1 8z" />
<glyph unicode="M" horiz-adv-x="814" d="M12 7q0 17 7 17q12 0 42.5 8t34.5 16q18 34 33 89l109 391q2 11 5.5 25.5t5.5 26t2 24.5q0 11 -28.5 19t-39.5 8q-2 0 -2 7q0 16 6 20q74 -2 94 -2q57 0 95 2q9 -82 76 -495q0 -1 1 -1q3 0 3 2l178 359l63 135q27 -3 79 -3q35 0 87 4q1 -2 1 -6.5t-1 -10.5q-2 -12 -5 -12 q-13 0 -27.5 -7t-21.5 -17q-9 -12 -13.5 -29t-9.5 -60l-39 -382q-6 -52 -6 -79q0 -10 4 -17t11.5 -9.5t14 -3.5t16 -1.5t12.5 -0.5q2 0 2 -9q0 -12 -6 -18q-93 5 -109 5q-3 0 -105 -5q-2 4 -2 5q0 6 2.5 14t4.5 8q13 0 36 5t27 13q3 7 6 14.5t4.5 13t3.5 15t2.5 14t1.5 17 t2 16.5l40 390q3 30 3 39q0 6 -6 6q-1 0 -3 -4l-261 -532q-5 -9 -19 -21t-26 -12q-4 0 -8 2l-85 567q-1 2 -2 2q-3 0 -3 -2l-117 -431q-19 -68 -19 -83q0 -7 17 -14.5t33 -11t18 -3.5t2 -6q0 -11 -5 -21q-93 5 -104 5q-3 0 -110 -5q-2 2 -2 10z" />
<glyph unicode="N" horiz-adv-x="663" d="M24 5q0 19 7 19q12 0 42.5 8t34.5 16q11 22 27 96l77 372q9 44 9 90q0 12 -26 18.5t-42 6.5q-2 0 -2 7q0 15 7 20q78 -4 99 -4q18 0 94 4q15 -59 73 -196.5t119 -258.5q7 20 11 41l51 269q13 65 13 92q0 12 -27.5 19t-42.5 7q-2 0 -2 7q0 15 7 20q103 -5 105 -5 q14 0 109 5q0 -27 -6 -27q-10 0 -42.5 -7.5t-35.5 -14.5q-13 -32 -25 -93l-75 -380q-6 -31 -14 -80t-10 -60q-4 -4 -10 -4q-14 0 -26 23q-1 2 -246 566l-89 -440q-10 -49 -10 -89q0 -8 16 -15t32 -10l17 -3q2 0 2 -5q0 -12 -5 -22q-92 5 -104 5q-2 0 -110 -5q-2 2 -2 8z" />
<glyph unicode="O" horiz-adv-x="624" d="M60 259q0 104 55 199.5t141 152t176 56.5q101 0 169.5 -75.5t68.5 -182.5q0 -108 -51.5 -205t-138.5 -155.5t-184 -58.5q-107 0 -171.5 76.5t-64.5 192.5zM151 267q0 -102 44.5 -168t126.5 -66q104 0 180 113.5t76 248.5q0 100 -44 165t-125 65q-108 0 -183 -111.5 t-75 -246.5z" />
<glyph unicode="P" horiz-adv-x="505" d="M24 5q0 19 7 19q11 0 35.5 7t28.5 15q10 20 26 96l82 412q5 25 5 52q0 12 -19.5 18.5t-33.5 6.5q-2 0 -2 7q0 15 7 20q43 -3 104 -3q28 0 66 1.5t65 1.5q58 0 114 -43.5t56 -110.5q0 -86 -70.5 -147.5t-155.5 -61.5q-46 0 -70 9q-2 7 -2 10q0 10 6 16q14 -2 24 -2 q68 0 125.5 50t57.5 138q0 105 -108 105q-47 0 -62.5 -4.5t-17.5 -15.5l-93 -473q-9 -45 -9 -79q0 -8 16 -14.5t32 -8.5l17 -2q2 0 2 -8q0 -13 -6 -19q-93 5 -102 5q-3 0 -123 -5q-2 2 -2 8z" />
<glyph unicode="Q" horiz-adv-x="624" d="M60 259q0 104 55 199.5t141 152t176 56.5q101 0 169.5 -75.5t68.5 -182.5q0 -104 -49.5 -199t-130.5 -154q-93 -68 -214 -91q30 -4 140 -51t177 -47q37 0 80.5 21.5t65.5 40.5q23 -11 23 -24q-18 -24 -79.5 -57.5t-126.5 -33.5t-125.5 20.5t-143.5 56.5t-164 57 q0 4 6.5 13.5t11.5 11.5q15 1 106 22q-86 17 -136.5 90t-50.5 174zM151 267q0 -102 44.5 -168t126.5 -66q104 0 180 113.5t76 248.5q0 100 -44 165t-125 65q-108 0 -183 -111.5t-75 -246.5z" />
<glyph unicode="R" horiz-adv-x="593" d="M24 5q0 19 7 19q12 0 36 6.5t28 15.5q11 27 26 96l82 414q5 26 5 50q0 12 -20 18.5t-33 6.5q-2 0 -2 7q0 15 7 20q43 -3 104 -3q28 0 62.5 1.5t62.5 1.5t57 -6.5t57.5 -21t46.5 -42.5t18 -66q0 -31 -13.5 -61t-32 -50.5t-43 -39t-41.5 -28t-31 -16.5q-9 -3 -5 -12 q19 -66 49 -136t53 -105q5 -8 10 -14.5t10.5 -11t10 -8t10.5 -5.5t9 -3.5t9.5 -2t8.5 -0.5h9h9q4 -10 4 -18q0 -6 -3 -10q-25 -5 -58 -5q-66 0 -109 65t-98 236q-5 14 -44 14q-32 0 -41 -2.5t-11 -14.5l-29 -155q-11 -55 -11 -90q0 -8 13.5 -14.5t26.5 -8.5l14 -2q2 0 2 -4 q0 -11 -6 -23q-93 5 -104 5q-3 0 -110 -5q-2 2 -2 8zM245 367q0 -15 47 -15q46 0 88 17.5t72.5 59t30.5 98.5q0 94 -110 94q-51 0 -64.5 -3t-15.5 -16l-48 -233v-2z" />
<glyph unicode="S" horiz-adv-x="435" d="M49 18q4 64 4 81t-1 46t-1 31q0 7 19 7q9 0 19 -8q0 -21 4.5 -42t17 -45t40 -38.5t66.5 -14.5q53 0 95.5 36.5t42.5 100.5q0 30 -24 58.5t-58 52t-68.5 48t-58.5 57.5t-24 70q0 90 65.5 149t158.5 59q26 0 67 -11t62 -13q-7 -55 -13 -111q-3 -29 -4.5 -34t-4.5 -5 q-15 0 -23 6q-2 1 -2 12q0 47 -30.5 80t-70.5 33q-57 0 -92 -34.5t-35 -86.5q0 -53 49 -92q19 -15 65 -47t66.5 -49t40.5 -48.5t20 -66.5q0 -31 -15 -66t-43 -66.5t-74 -52t-101 -20.5q-54 0 -159 24z" />
<glyph unicode="T" horiz-adv-x="601" d="M116 528l44 143q38 -11 63 -11q39 0 101 -3t101 -3t103 3t103 3q22 0 66 11l-10 -143q-9 -7 -23 -7q-9 0 -9 5q0 54 -19.5 71.5t-66.5 17.5q-99 0 -106 -15q-14 -30 -28 -100l-70 -361q-11 -55 -11 -90q0 -8 13.5 -14.5t26.5 -8.5l14 -2q2 0 2 -4q0 -11 -6 -23 q-92 5 -104 5q-2 0 -110 -5q-2 2 -2 8q0 19 7 19q12 0 36 6.5t28 15.5q15 34 26 96l69 355q13 69 13 97q0 7 -2.5 10.5t-25.5 7t-71 3.5q-53 0 -75 -16.5t-47 -72.5q-2 -5 -10 -5q-13 0 -20 7z" />
<glyph unicode="U" horiz-adv-x="631" d="M120 206q0 37 14 106l39 200q11 57 11 92q0 11 -21.5 19t-34.5 8q-2 0 -2 5q0 14 8 22q12 -1 47.5 -3.5t60.5 -2.5q24 0 61.5 3t44.5 3v-3q0 -24 -7 -24q-8 0 -33.5 -8t-28.5 -15q-13 -28 -26 -93l-41 -217q-8 -44 -8 -85q0 -77 33 -120.5t98 -43.5q163 0 205 225l44 238 q12 70 12 90q0 12 -29 20.5t-46 8.5q-2 0 -2 6q0 16 7 21q12 -1 48 -3.5t60 -2.5q19 0 36.5 1t37.5 2.5t33 2.5q0 -27 -7 -27q-8 0 -39 -8t-36 -15q-8 -10 -27 -98l-45 -234q-31 -159 -96 -217.5t-187 -58.5q-87 0 -135.5 53t-48.5 153z" />
<glyph unicode="V" horiz-adv-x="640" d="M120 636q0 17 7 22q82 -4 105 -4q33 0 109 4v-3q0 -24 -7 -24q-35 0 -47.5 -8.5t-12.5 -28.5q0 -13 4 -32l77 -419l240 411q12 21 12 48q0 13 -17 21t-37 8q-2 0 -2 5q0 17 7 22q72 -4 93 -4q23 0 99 4v-6q-2 -21 -8 -21q-19 0 -43 -13t-39 -39l-326 -560 q-19 -33 -38 -33q-5 0 -9 6l-99 559q-6 34 -15 55q-5 11 -22.5 18t-28.5 7q-2 0 -2 5z" />
<glyph unicode="W" horiz-adv-x="973" d="M113 636q0 17 7 22q15 -1 44.5 -3.5t53.5 -2.5q18 0 36 1t38.5 2.5t33.5 2.5v-3q0 -24 -7 -24q-24 0 -38 -11t-14 -26q0 -9 7 -37l127 -445l121 183l-74 265q-8 28 -19 46q-6 10 -22.5 17.5t-26.5 7.5q-2 0 -2 5q0 16 8 22q13 -1 47 -3.5t59 -2.5q24 0 57 2.5t43 3.5v-3 q0 -7 -2.5 -15.5t-5.5 -8.5q-24 0 -37.5 -11t-13.5 -26q0 -13 6 -37l45 -161l85 138q25 41 25 59q0 19 -17.5 28.5t-28.5 9.5q-2 0 -2 5q0 17 7 22q87 -6 95 -6q28 0 59.5 3t40.5 3q0 -27 -7 -27q-16 0 -40.5 -12t-32.5 -21q-19 -21 -70 -100l-100 -154l68 -238l243 428 q25 44 25 59q0 19 -17.5 28.5t-28.5 9.5q-2 0 -2 5q0 17 7 22q87 -6 95 -6q28 0 59.5 3t40.5 3q0 -27 -7 -27q-16 0 -40.5 -12t-32.5 -21q-33 -38 -70 -100l-281 -479q-19 -32 -43 -32q-6 0 -8 5l-70 253l-146 -226q-21 -32 -42 -32q-5 0 -8 5l-142 518q-17 60 -35 96 q-5 10 -21.5 17.5t-26.5 7.5q-2 0 -2 5z" />
<glyph unicode="X" horiz-adv-x="656" d="M10 1q0 23 5 23q8 0 21.5 1.5t35.5 9t33 19.5q251 279 251 282l-78 184q-18 43 -27 58t-28 31q-9 8 -28 15t-28 7q-2 0 -2 5q0 17 7 22q12 -1 51 -3.5t66 -2.5q9 0 123 6v-4q0 -23 -6 -23q-8 0 -21 -3t-28 -13t-15 -24q0 -11 5 -24q74 -168 75 -168q2 0 44 45t84.5 95 t42.5 61q0 13 -19 22t-39 9q-2 0 -2 5q0 17 7 22q102 -6 111 -6q21 0 39.5 1t38.5 2.5t33 2.5v-3q0 -24 -7 -24q-12 0 -48 -9t-48 -22q-219 -243 -219 -245q0 -1 27 -65t58 -135.5t39 -85.5q14 -24 44.5 -34.5t45.5 -10.5q2 0 2 -5q0 -16 -3 -22q-93 5 -111 5q-2 0 -134 -5 q-2 2 -2 8q0 19 7 19q12 0 33.5 9t21.5 23q0 13 -2 18q-91 217 -92 217t-50 -55.5t-98.5 -114.5t-49.5 -67q0 -30 55 -30q4 0 4 -9q0 -13 -5 -18q-17 1 -103 1q-97 0 -116 -1q-1 1 -1 4z" />
<glyph unicode="Y" horiz-adv-x="593" d="M120 636q0 17 7 22q12 -1 51 -3.5t66 -2.5q10 0 124 6v-5q0 -22 -7 -22q-15 0 -39 -10.5t-24 -31.5q0 -10 4 -22l69 -212q13 17 45.5 59t50 65.5t39.5 53.5t32 46t10 21q-1 13 -21.5 22t-40.5 9q-2 0 -2 6q0 16 7 21q8 0 40 -3t52 -3q5 0 119 6q1 -2 1 -5q0 -22 -7 -22 q-10 0 -39.5 -9.5t-41.5 -21.5t-120.5 -158.5t-110.5 -156.5l-28 -146q-11 -55 -11 -90q0 -8 13.5 -14.5t27.5 -8.5l13 -2q2 0 2 -4q0 -11 -6 -23q-93 5 -104 5q-3 0 -111 -5q-1 1 -1 7q0 20 7 20q11 0 35 7t29 15q12 21 25 90l26 142q1 4 -20 70.5t-43 131.5l-21 65 q-15 46 -39 64q-10 7 -29 14.5t-27 7.5q-2 0 -2 5z" />
<glyph unicode="Z" horiz-adv-x="546" d="M36 17q0 16 8 26l466 565h-43h-37.5h-41.5t-38 -0.5t-29 -0.5h-12q-64 -1 -92 -27t-60 -96q-3 -4 -10 -4q-18 0 -27 9q13 35 56 176q9 -3 70 -6t77 -3q46 -1 108 -1q34 0 58 1t37 2t41.5 3.5t54.5 4.5q2 -2 3 -16q0 -7 0.5 -11.5t-0.5 -5.5q-1 -4 -115 -143t-228 -276 l-113 -138q-8 -9 -8 -17t10 -8h210q16 0 30.5 2t25.5 7.5t20 9.5t17 13t13 14t11 15.5t7.5 14t6.5 14t5 11.5q3 8 27 8q10 0 14 -6q-35 -86 -57 -154h-461q-4 7 -4 17z" />
<glyph unicode="[" horiz-adv-x="307" d="M-9 -79l154 796q0 2 2 6.5t7.5 10.5t13.5 6q45 0 98 4l52 5q5 0 5 -6q0 -5 -1.5 -10t-4 -9t-6 -7.5t-6 -5.5t-4.5 -3l-2 -2q-46 -11 -96 -11q-3 0 -5 -2t-2 -4l-1 -2l-144 -736q-1 -8 5 -8q22 0 44.5 -4.5t33.5 -8.5l12 -4l2 -1q2 -1 3 -2.5t2.5 -4.5t1.5 -7.5t-1 -12.5 q-1 -5 -3 -8t-3 -4h-2q-66 12 -142 12q-13 0 -13 17v6z" />
<glyph unicode="\" horiz-adv-x="212" d="M6 755q12 6 20 6q39 0 41 -22l126 -726q1 -3 1 -8q0 -16 -8.5 -29.5t-20.5 -14.5l-23 2z" />
<glyph unicode="]" horiz-adv-x="299" d="M-17 -105q0 11 20 31q49 17 96 17q3 0 5 2t3 4l1 2l143 736q1 8 -5 8q-22 0 -45 2.5t-35 5.5l-12 3q-12 12 -12 22q0 21 8 21l8 -1q9 -1 23 -2.5t32 -2.5t40.5 -2t44.5 -1q13 0 13 -15q0 -5 -1 -8l-154 -796q0 -2 -1.5 -6.5t-7 -10.5t-13.5 -6q-34 0 -70.5 -3t-56.5 -6 l-20 -3q-4 3 -4 9z" />
<glyph unicode="^" horiz-adv-x="303" d="M13 499q2 4 28 25.5t64 62.5t69 90l2.5 5l2 4t1.5 2t2.5 1.5t3.5 0.5q10 0 13 -6.5t12.5 -34.5t25.5 -61q6 -13 21 -34t26.5 -36.5t11.5 -17.5q-2 -8 -7 -16.5t-10 -8.5q-14 0 -52.5 46.5t-54.5 75.5q-33 -39 -87 -80.5t-64 -41.5q-8 0 -8 24z" />
<glyph unicode="_" horiz-adv-x="485" d="M9 -37q0 5 9.5 27.5t14.5 22.5h414q6 0 6 -4q0 -6 -18 -46l-6 -6h-415q-5 0 -5 6z" />
<glyph unicode="`" horiz-adv-x="162" d="M20 659q0 5 2.5 10.5t13 11.5t26.5 6q25 0 30 -9q12 -19 27 -53t24 -59l9 -24q0 -5 -4.5 -10t-9.5 -5q-11 0 -64.5 52.5t-53.5 79.5z" />
<glyph unicode="a" horiz-adv-x="440" d="M66 130q0 71 42.5 142.5t109.5 117t134 45.5q38 0 73 -13l-61 -316q-3 -12 -3 -25q0 -25 10 -25q6 0 14.5 5.5t17 13.5t15.5 15.5t13 13.5l6 7q2 0 7.5 -9.5t5.5 -13.5q-13 -22 -54 -58t-72 -36q-16 0 -25 14.5t-9 37.5q0 17 7 53q2 11 3.5 17.5t1.5 8.5 q-10 -18 -23 -36.5t-33 -41.5t-42.5 -37.5t-42.5 -14.5q-44 0 -69.5 39.5t-25.5 95.5zM140 151q0 -98 51 -98q36 0 80.5 73t59.5 148l20 102q-12 13 -41 13q-59 0 -114.5 -76.5t-55.5 -161.5z" />
<glyph unicode="b" horiz-adv-x="394" d="M77 104q0 15 3 33l83 422q9 41 9 53q0 19 -61 19q-3 0 -3 6q0 12 8 20q65 6 126 28q6 -3 6 -19q0 -12 -13 -75l-59 -288q32 53 67 85t54 39.5t32 7.5q44 0 66.5 -39t22.5 -92q0 -128 -78 -219t-164 -91q-38 0 -68.5 28.5t-30.5 81.5zM150 156q-5 -24 -5 -44q0 -25 8 -44 q14 -33 49 -33q38 0 71.5 38.5t52 95t18.5 111.5q0 19 -1 32t-4.5 31t-13.5 27.5t-25 9.5q-21 0 -53.5 -37.5t-60.5 -90.5t-36 -96z" />
<glyph unicode="c" horiz-adv-x="326" d="M68 146q0 96 73 192.5t149 96.5q47 0 87 -34q3 -12 3 -20q0 -19 -9.5 -31t-25.5 -12t-33 28t-34 28q-43 0 -89.5 -69.5t-46.5 -162.5q0 -106 66 -106q8 0 15.5 2t14.5 5t14 6.5t13 8.5t11.5 9t10 8.5t7 7.5t4.5 5l3 3q2 0 7.5 -9.5t5.5 -13.5q-14 -24 -56 -59t-83 -35 q-52 0 -79.5 40.5t-27.5 111.5z" />
<glyph unicode="d" horiz-adv-x="463" d="M73 130q0 108 92 206.5t192 98.5q25 0 5 0h8l28 149q3 14 3 28q0 19 -61 19q-3 0 -3 6q0 12 8 20q69 6 129 28q6 -4 6 -19l-15 -75l-94 -485q-3 -12 -3 -25q0 -25 10 -25q6 0 14.5 5.5t17 13.5t15.5 15.5t13 13.5l6 7q2 0 7.5 -9.5t5.5 -13.5q-13 -22 -54 -58t-72 -36 q-16 0 -25 14.5t-9 37.5q0 16 7 53q2 8 3 13.5t2 8t1 5.5q-13 -23 -30.5 -48t-50.5 -54t-60 -29q-46 0 -71 39.5t-25 95.5zM147 150q0 -97 51 -97q37 0 81 73.5t59 149.5l12 65q1 6 1 12q0 11 -5 21q-8 14 -27 15q-61 0 -116.5 -76.5t-55.5 -162.5z" />
<glyph unicode="e" horiz-adv-x="359" d="M70 146q0 96 73 192.5t149 96.5q46 0 66.5 -23.5t20.5 -51.5q0 -44 -45 -87t-98.5 -66.5t-86.5 -23.5q-4 0 -4 -35q0 -45 17.5 -68.5t47.5 -23.5q8 0 15.5 2t14.5 5t14 6.5t13 8.5t11.5 9t10 8.5t7 7.5t4.5 5l3 3q2 0 7.5 -9.5t5.5 -13.5q-14 -24 -56 -59t-83 -35 q-52 0 -79.5 40.5t-27.5 111.5zM152 222q0 -4 4 -4q36 0 93.5 48t57.5 98q0 30 -25 30q-47 0 -88.5 -67.5t-41.5 -104.5z" />
<glyph unicode="f" horiz-adv-x="304" d="M-120 -190q-1 23 11 41t30 18q9 0 17 -9.5t14 -21t17.5 -21t25.5 -9.5q19 0 38 23.5t32.5 59t23 67.5t13.5 57l60 339v2q0 5 -3 5h-65q-2 0 -2 3q0 9 16 26t32 17h29q4 0 6 9q20 123 86 203t142 80q64 0 82 -34q0 -65 -36 -65q-14 0 -26.5 15t-26 30.5t-29.5 15.5 q-32 0 -68 -65.5t-56 -182.5v-2q0 -4 3 -4h115q5 0 5 -12q0 -16 -11 -34h-117q-5 0 -6 -8l-55 -299q-24 -139 -84.5 -212t-131.5 -73q-35 0 -55 12.5t-26 28.5z" />
<glyph unicode="g" horiz-adv-x="438" d="M16 -135q0 24 13 46.5t37.5 40.5t45.5 30t48 24l-18 12q-25 17 -25 36q0 17 35.5 39t64.5 29q-19 0 -43.5 10t-47 36.5t-22.5 62.5q0 84 58.5 144.5t130.5 60.5q30 0 66 -13.5t70 -13.5h43q6 0 6 -8q0 -7 -3.5 -17t-7.5 -14h-56q-6 0 -6 -6q6 -36 6 -52 q0 -37 -10.5 -68.5t-28 -51.5t-29 -30t-23.5 -17q-10 -6 -40.5 -20.5t-47.5 -26t-17 -21.5q0 -9 19.5 -17.5t48 -18t56.5 -23.5t47.5 -39t19.5 -57q0 -71 -63.5 -113t-170.5 -42q-69 0 -112.5 26t-43.5 72zM90 -110q0 -80 131 -80q49 0 85 20.5t36 51.5q0 22 -12.5 40.5 t-36.5 32t-43.5 21t-47.5 16.5q-19 -8 -27.5 -12t-28.5 -15t-29.5 -20t-18 -24t-8.5 -31zM179 247q0 -39 16 -65t45 -26q42 0 69.5 44t27.5 94q0 40 -16 72t-44 32q-43 0 -70.5 -47.5t-27.5 -103.5z" />
<glyph unicode="h" horiz-adv-x="461" d="M66 0l108 559q9 44 9 53q0 19 -61 19q-3 0 -3 6q0 12 8 20q66 6 126 28q6 -3 6 -19q0 -8 -13 -75l-51 -261l-18 -92q10 18 43.5 62t82 89.5t78.5 45.5q50 0 50 -66q0 -45 -14 -109l-33 -154q-3 -12 -3 -25q0 -25 10 -25q6 0 14.5 5.5t17 13.5t15.5 15.5t13 13.5l6 7 q2 0 7.5 -9.5t5.5 -13.5q-13 -22 -54 -58t-72 -36q-16 0 -25 14.5t-9 37.5q0 16 7 53l35 165q7 33 7 54q0 43 -19 43q-33 0 -102.5 -90.5t-89.5 -192.5l-17 -78q-13 -4 -31 -4t-34 4z" />
<glyph unicode="i" horiz-adv-x="274" d="M93 349q12 20 50.5 53t64.5 33q16 0 25 -14.5t9 -37.5q0 -21 -6 -53l-44 -224q-3 -12 -3 -25q0 -25 10 -25q6 0 14.5 5.5t17 13.5t15.5 15.5t13 13.5l6 7q2 0 7.5 -9.5t5.5 -13.5q-13 -22 -54 -58t-72 -36q-16 0 -25 14.5t-9 37.5q0 16 7 53l41 209q5 31 5 40 q0 25 -10 25q-4 0 -11 -4.5t-14.5 -11.5t-13.5 -13t-11 -12l-5 -6q-2 0 -7.5 9.5t-5.5 13.5zM185 589q0 23 15 40t37 17q15 0 25.5 -12t10.5 -28q0 -24 -15.5 -42t-38.5 -18q-16 0 -25 12.5t-9 30.5z" />
<glyph unicode="j" horiz-adv-x="290" d="M-12 -215q50 29 88 91.5t54 145.5l57 286q5 36 5 40q0 25 -10 25q-4 0 -11 -4.5t-14.5 -11.5t-13.5 -13t-11 -12l-5 -6q-2 0 -7.5 9.5t-5.5 13.5q12 20 50.5 53t64.5 33q16 0 25 -14.5t9 -37.5q0 -20 -6 -53l-55 -285q-21 -108 -66 -169q-28 -38 -68 -68.5t-71 -42.5 q-9 7 -9 20zM206 589q0 23 15 40t37 17q15 0 25.5 -12t10.5 -28q0 -24 -15.5 -42t-38.5 -18q-16 0 -25 12.5t-9 30.5z" />
<glyph unicode="k" horiz-adv-x="485" d="M86 0l109 559q9 41 9 53q0 19 -61 19q-3 0 -3 6q0 12 8 20q65 6 126 28q6 -3 6 -19q0 -12 -13 -75l-52 -269l11 13q11 13 26.5 28.5t36 32.5t46 28t49.5 11q30 0 52.5 -19.5t22.5 -48.5q0 -65 -57.5 -107t-147.5 -57q60 -90 91.5 -119t53.5 -29q18 0 34.5 15t24.5 29 q3 0 9.5 -8t6.5 -12q-5 -17 -37 -50t-61 -33q-13 0 -25.5 4t-25 13t-23 17t-23 24t-20.5 25.5t-20.5 29.5l-17.5 28t-17 29t-15 25l-37 -191q-18 -5 -33 -5q-13 0 -33 5zM205 232q0 -2 2 -2q4 0 10.5 1t25 4.5t36 8.5t38 14.5t35.5 21t25.5 28.5t10.5 37q0 43 -40 43 q-32 0 -87.5 -67t-55.5 -89z" />
<glyph unicode="l" horiz-adv-x="248" d="M86 46q0 17 7 53l94 485q3 15 3 28q0 19 -61 19q-3 0 -3 6q0 12 8 20q68 6 128 28q6 -3 6 -19q0 -12 -13 -75l-95 -485q-3 -12 -3 -25q0 -25 10 -25q6 0 14.5 5.5t17.5 13.5t16 15.5t13 13.5l5 7q3 0 8 -9.5t5 -13.5q-13 -22 -54 -58t-72 -36q-15 0 -24.5 14.5t-9.5 37.5 z" />
<glyph unicode="m" horiz-adv-x="716" d="M87 349q12 20 50.5 53t64.5 33q16 0 25 -14.5t9 -37.5q0 -22 -6 -53l-18 -93q37 64 92.5 131t90.5 67q27 0 41.5 -16t17.5 -33.5t3 -45.5q0 -17 -14 -89q33 57 92.5 120.5t94.5 63.5q33 0 45 -16.5t12 -49.5q0 -45 -14 -109l-33 -154q-3 -12 -3 -25q0 -25 10 -25 q6 0 14.5 5.5t17 13.5t15.5 15.5t13 13.5l6 7q2 0 7.5 -9.5t5.5 -13.5q-13 -22 -54 -58t-72 -36q-16 0 -25 14.5t-9 37.5q0 16 7 53l35 165q7 33 7 54q0 15 -1 23t-5 14t-13 6q-34 0 -100.5 -87t-83.5 -179l-18 -95q-4 0 -15.5 -1.5t-19.5 -1.5t-18.5 1.5t-13.5 1.5l56 284 q4 21 4 38q0 39 -20 39q-35 0 -100 -95t-82 -178l-18 -88q-26 -4 -34 -4q-7 0 -33 4l60 308q5 36 5 40q0 25 -10 25q-4 0 -11 -4.5t-14.5 -11.5t-13.5 -13t-11 -12l-5 -6q-2 0 -7.5 9.5t-5.5 13.5z" />
<glyph unicode="n" horiz-adv-x="492" d="M85 349q12 20 50.5 53t64.5 33q16 0 25 -14.5t9 -37.5q0 -22 -6 -53l-18 -92q10 18 43.5 62t82 89.5t78.5 45.5q50 0 50 -66q0 -45 -14 -109l-33 -154q-3 -12 -3 -25q0 -25 10 -25q6 0 14.5 5.5t17 13.5t15.5 15.5t13 13.5l6 7q2 0 7.5 -9.5t5.5 -13.5q-13 -22 -54 -58 t-72 -36q-16 0 -25 14.5t-9 37.5q0 16 7 53l35 165q7 33 7 54q0 43 -19 43q-33 0 -102.5 -90.5t-89.5 -192.5l-17 -78q-13 -4 -31 -4t-34 4l59 308q5 36 5 40q0 25 -10 25q-4 0 -11 -4.5t-14.5 -11.5t-13.5 -13t-11 -12l-5 -6q-2 0 -7.5 9.5t-5.5 13.5z" />
<glyph unicode="o" horiz-adv-x="412" d="M68 145q0 104 72 197t148 93q59 0 91.5 -41t32.5 -113q0 -103 -72.5 -194.5t-148.5 -91.5q-60 0 -91.5 39t-31.5 111zM144 158q0 -58 18.5 -90t46.5 -32q50 0 88.5 78.5t38.5 158.5q0 59 -16 90t-44 31q-50 0 -91 -78.5t-41 -157.5z" />
<glyph unicode="p" horiz-adv-x="440" d="M0 -227q0 15 4 21q27 0 40 16q11 14 16 43l79 408l-48 -48q-6 7 -6 20q0 4 3 7l59 63l26 130q15 4 33 4t32 -7q-9 -42 -11 -56q20 18 32.5 28t39 21.5t54.5 11.5q46 0 71 -39.5t25 -95.5q0 -69 -44 -141.5t-104 -117.5t-107 -45q-25 0 -40 8l-28 -149q-3 -13 -3 -28 q0 -19 14 -23q13 -3 47 -3q2 0 2 -6q0 -15 -5 -22q-7 0 -18.5 0.5t-16.5 0.5q-68 0 -143 -9q-3 1 -3 8zM174 103q-1 -8 -1 -15q0 -14 5 -27q8 -19 35 -19q58 0 110 76t52 162q0 97 -62 97q-59 0 -96 -53z" />
<glyph unicode="q" horiz-adv-x="415" d="M79 130q0 71 43 142.5t110 117t134 45.5q45 0 80 -13l-61 -316l-45 -253q-2 -16 -2 -21q0 -9 2 -14.5t13 -10.5t31 -5q2 0 2 -6q0 -16 -5 -24q-7 0 -20.5 0.5t-19.5 0.5q-71 0 -145 -8q0 1 -0.5 5.5t-0.5 6.5q0 18 5 18q9 0 19.5 1.5t29 16t23.5 40.5l51 272 q-14 -24 -35 -50.5t-54 -53t-59 -26.5q-44 0 -70 39.5t-26 95.5zM153 159q0 -106 52 -106q37 0 84.5 73.5t62.5 147.5l20 102q-12 13 -49 13q-65 0 -117.5 -74.5t-52.5 -155.5z" />
<glyph unicode="r" horiz-adv-x="372" d="M92 349q12 20 50.5 53t64.5 33q16 0 25 -14.5t9 -37.5q0 -22 -6 -53l-16 -84q25 59 74.5 124t83.5 65t55 -32q0 -67 -37 -67q-8 0 -19 12.5t-23 12.5q-29 0 -86.5 -87t-72.5 -169l-19 -105q-17 -3 -33 -3q-19 0 -37 3l60 308q5 36 5 40q0 25 -10 25q-4 0 -11 -4.5 t-14.5 -11.5t-13.5 -13t-11 -12l-5 -6q-2 0 -7.5 9.5t-5.5 13.5z" />
<glyph unicode="s" horiz-adv-x="320" d="M67 51q0 18 9.5 32t24.5 14q14 0 25 -14.5t27.5 -29.5t43.5 -15q22 0 35.5 14.5t13.5 31.5q0 26 -19.5 55.5t-42.5 52.5t-42.5 56t-19.5 67q0 42 40 82.5t99 40.5q57 0 90 -38q5 -12 5 -21q0 -18 -9.5 -31t-24.5 -13q-14 0 -25 14.5t-27.5 29.5t-43.5 15q-21 0 -33 -14 t-12 -32q0 -26 19.5 -55.5t42.5 -52.5t42.5 -56t19.5 -67q0 -55 -40 -89t-103 -34q-57 0 -90 38q-5 8 -5 19z" />
<glyph unicode="t" horiz-adv-x="262" d="M91 389q0 13 12 31h70l24 122q3 10 49 10q12 0 18 -1l-25 -131h91q5 0 5 -13q0 -12 -9 -29h-95l-53 -272q-3 -12 -3 -25q0 -25 10 -25q6 0 14.5 5.5t17 13.5t15.5 15.5t13 13.5l6 7q2 0 7.5 -9.5t5.5 -13.5q-13 -22 -54 -58t-72 -36q-16 0 -25 14.5t-9 37.5q0 16 7 53 l54 279h-71q-3 0 -3 11z" />
<glyph unicode="u" horiz-adv-x="472" d="M75 349q12 20 50.5 53t64.5 33q16 0 25 -14.5t9 -37.5q0 -27 -6 -53l-35 -165q-7 -29 -7 -54q0 -43 19 -43q14 0 40 23.5t54.5 61t54 91.5t35.5 107l17 78q13 4 31 4t34 -4l-62 -323q-3 -12 -3 -25q0 -25 10 -25q6 0 14.5 5.5t17 13.5t15.5 15.5t13 13.5l6 7 q2 0 7.5 -9.5t5.5 -13.5q-13 -22 -54 -58t-72 -36q-16 0 -25 14.5t-9 37.5q0 16 7 53l18 92q-10 -19 -41 -62t-78 -89t-77 -46q-50 0 -50 66q0 46 14 109l30 139q5 36 5 40q0 25 -10 25q-4 0 -11 -4.5t-14.5 -11.5t-13.5 -13t-11 -12l-5 -6q-2 0 -7.5 9.5t-5.5 13.5z" />
<glyph unicode="v" horiz-adv-x="416" d="M79 349q12 20 50.5 53t64.5 33q16 0 25 -14.5t9 -37.5q0 -21 -6 -53l-30 -153q-8 -48 -8 -63q0 -28 9 -40t32 -12q46 0 107.5 91.5t61.5 155.5q0 21 -14.5 45t-14.5 36q0 18 12 31.5t29 13.5q19 0 32 -8q14 -26 14 -58q0 -83 -48.5 -172t-110.5 -143t-106 -54 q-34 0 -54 24.5t-20 63.5q0 28 4 44l34 176q6 21 6 40q0 25 -10 25q-4 0 -11 -4.5t-14.5 -11.5t-13.5 -13t-11 -12l-5 -6q-2 0 -7.5 9.5t-5.5 13.5z" />
<glyph unicode="w" horiz-adv-x="632" d="M79 349q12 20 50.5 53t64.5 33q16 0 25 -14.5t9 -37.5q0 -21 -6 -53l-30 -153q-8 -48 -8 -63q0 -28 9 -40t32 -12q22 0 51.5 26t56.5 66q24 197 33 231q13 50 40 50q38 0 38 -47q0 -65 -41 -177q-7 -50 -7 -64q0 -48 8.5 -66.5t32.5 -18.5q30 0 67.5 44.5t63 103 t25.5 99.5q0 21 -14.5 45t-14.5 36q0 18 12 31.5t29 13.5q19 0 32 -8q14 -26 14 -58q0 -63 -27 -131.5t-66 -119.5t-83 -84.5t-76 -33.5q-35 0 -54.5 24.5t-19.5 66.5q-79 -91 -138 -91q-34 0 -54 24.5t-20 63.5q0 28 4 44l34 176q6 21 6 40q0 25 -10 25q-4 0 -11 -4.5 t-14.5 -11.5t-13.5 -13t-11 -12l-5 -6q-2 0 -7.5 9.5t-5.5 13.5z" />
<glyph unicode="x" horiz-adv-x="476" d="M48 40q0 15 10.5 25.5t21.5 10.5q13 0 29.5 -15.5t30.5 -15.5q12 0 27 26l79 136l-41 134q-10 34 -27 34q-15 0 -32 -15.5t-24 -28.5q-4 0 -10 8t-6 12q3 17 37 50.5t65 33.5q42 0 68 -87l21 -71l59 101q33 57 84 57q34 0 58 -20q8 -16 8 -26q0 -15 -10.5 -25.5 t-21.5 -10.5q-13 0 -29.5 15.5t-30.5 15.5q-12 0 -27 -26l-75 -128l43 -141q10 -34 27 -34q15 0 32 15.5t24 28.5q4 0 10 -8t6 -12q-3 -17 -37 -50.5t-65 -33.5q-42 0 -68 87l-23 78l-63 -109q-33 -57 -84 -57q-34 0 -58 20q-8 14 -8 26z" />
<glyph unicode="y" horiz-adv-x="479" d="M-27 -192q0 32 23 44q22 -13 67 -13q83 0 144 89q23 34 23 134q0 49 -2.5 97.5t-9 99.5t-19 82.5t-29.5 31.5q-9 0 -27 -17t-28 -30q-2 0 -7.5 9.5t-5.5 13.5q6 15 47.5 50.5t66.5 35.5q30 0 49.5 -51t26.5 -133.5t9 -129t2 -93.5q39 48 78 122.5t39 134.5q0 59 -25 107 q13 43 50 43q44 0 44 -79q0 -110 -86 -252.5t-194.5 -239.5t-175.5 -97q-26 0 -43 12t-17 29z" />
<glyph unicode="z" horiz-adv-x="404" d="M50 26q0 7 74.5 89t149.5 162l74 80l-6 -5q-7 -4 -17 -9t-17 -5q-28 0 -70 18t-56 18q-8 0 -16.5 -6t-16 -15.5t-13 -18.5t-10.5 -18t-6 -10q-5 -5 -9 3t-5 17q8 26 38.5 67.5t60.5 41.5q10 0 64 -12.5t87 -12.5q14 0 33 12.5t33 12.5q12 0 12 -25q0 -6 -75 -88.5 t-149 -162.5l-75 -80q0 -1 7 3.5t17 9.5t17 5q28 0 70 -18t56 -18q8 0 16.5 6t16 15.5t13.5 18t11 18t6 10.5q4 5 8.5 -3t5.5 -16q-8 -26 -39 -68t-61 -42q-10 0 -64 13t-87 13q-14 0 -33 -13t-33 -13q-12 0 -12 26z" />
<glyph unicode="{" horiz-adv-x="275" d="M3 12q0 46 20.5 87t41 74t20.5 60q0 10 -3.5 17.5t-7.5 12.5t-13 10t-14 7t-17.5 6.5t-16.5 5.5v6q0 19 8 31q25 7 38.5 12t30 15.5t24 27.5t7.5 41q0 19 -8.5 60.5t-8.5 63.5q0 66 51 133.5t133 67.5q3 0 3 -4q0 -6 -5 -15t-10 -10q-8 -1 -24.5 -8t-38.5 -21.5t-38 -45 t-16 -69.5q0 -19 5.5 -55t5.5 -58q0 -70 -33 -112.5t-66 -43.5q23 -1 41 -25t18 -61q0 -41 -21.5 -79t-43 -73.5t-21.5 -69.5q0 -38 25 -66t48 -30q7 -2 7 -16q0 -13 -6 -13q-51 0 -83 38t-32 99z" />
<glyph unicode="|" horiz-adv-x="203" d="M-11 -115l169 872q16 16 44 16q6 0 11 -2t4 -5l-168 -872q-6 -6 -19 -11.5t-27 -5.5q-5 0 -10 2.5t-4 5.5z" />
<glyph unicode="}" horiz-adv-x="268" d="M-17 -121q0 6 5.5 15t10.5 10q29 2 73 42t44 101q0 20 -10 55t-10 59q0 62 35 104t69 43q-22 1 -38 24t-16 59q0 50 42 127t42 113q0 37 -25 62.5t-48 27.5q-7 2 -7 16q0 13 6 13q52 0 85.5 -33.5t33.5 -93.5q0 -38 -13.5 -74t-30 -58.5t-30 -50t-13.5 -50.5 q0 -19 12 -31.5t24 -17.5t35 -12q1 -2 1 -8q0 -15 -7 -29q-4 -1 -17.5 -5t-20 -6t-18.5 -7.5t-18 -11.5t-13.5 -14.5t-10.5 -21t-3 -27.5q0 -19 8.5 -59t8.5 -61q0 -68 -55 -136t-128 -68q-3 0 -3 4z" />
<glyph unicode="~" horiz-adv-x="473" d="M19 269q0 28 47.5 56.5t90.5 28.5q44 0 104 -26.5t104 -26.5q17 0 35 7.5t26.5 13.5t31.5 23q6 -6 6 -10q0 -25 -42.5 -55t-92.5 -30q-44 0 -105.5 26.5t-105.5 26.5q-17 0 -35 -7.5t-26.5 -13.5t-31.5 -23q-6 6 -6 10z" />
<glyph unicode="&#xa1;" horiz-adv-x="197" d="M-16 -223q0 16 33 143q44 172 86 336q2 10 7 17t9 5q17 -9 17 -21q-60 -456 -61 -463q-5 -26 -19.5 -44.5t-34.5 -18.5q-18 0 -27.5 13t-9.5 33zM92 369q0 28 20 49.5t45 21.5q19 0 31 -13.5t12 -33.5q0 -28 -20 -48.5t-45 -20.5q-19 0 -31 12.5t-12 32.5z" />
<glyph unicode="&#xa2;" horiz-adv-x="319" d="M57 152q0 104 75.5 193.5t152.5 89.5q22 0 45.5 -10t35.5 -24q2 -8 2 -22q0 -18 -11.5 -29.5t-28.5 -11.5q-16 0 -35 29t-33 29q-41 0 -85 -70.5t-44 -163.5q0 -23 4 -43.5t21 -41t46 -20.5q21 0 44.5 17.5t34.5 31t15 21.5q2 0 5.5 -8t4.5 -14q0 -22 -42.5 -65.5 t-85.5 -43.5q-45 0 -74 27.5t-38 60t-9 68.5zM117 -36l176 510q32 0 31 -8l-176 -511q-32 0 -31 9z" />
<glyph unicode="&#xa3;" horiz-adv-x="438" d="M44 10q12 17 31.5 40t26.5 32q23 36 47 167q2 9 12 83t13 91q18 94 77 153t134 59q49 0 64 -37q-3 -20 -13 -39.5t-26 -19.5q-19 0 -35 27t-35 27q-22 0 -39 -12.5t-28 -37t-17 -46.5t-12 -53q-4 -19 -16 -100t-13 -86q-20 -99 -76 -174q23 9 69 9q27 0 75.5 -16 t64.5 -16q14 0 28 9.5t21 17.5t19.5 26t13.5 20q9 0 9 -17q0 -5 -2 -9q-63 -116 -132 -116q-32 0 -90.5 18.5t-79.5 18.5q-32 0 -77 -38q-8 0 -11.5 6.5t-2.5 12.5zM98 292q3 16 11 27h248q5 0 3 -10q-3 -20 -20 -30h-240q-5 0 -2 13z" />
<glyph unicode="&#xa4;" horiz-adv-x="447" d="M2 154l60 51q-12 29 -12 63q0 87 62 155l-37 56q0 1 -0.5 1t-0.5 1q0 8 17 21.5t33 17.5l37 -55q48 31 101 31q58 0 96 -41l66 55q1 1 4 1q8 0 16.5 -14.5t9.5 -30.5l-67 -56q11 -30 11 -63q0 -80 -56 -148l39 -58q0 -1 0.5 -1t0.5 -1q0 -8 -17 -21.5t-33 -17.5l-37 55 q-51 -35 -106 -35q-60 0 -98 40l-59 -50q-1 -1 -4 -1q-8 0 -16.5 14.5t-9.5 30.5zM120 273q0 -53 23 -87t60 -34q50 0 88 59t38 130q0 53 -23 87.5t-59 34.5q-50 0 -88.5 -59.5t-38.5 -130.5z" />
<glyph unicode="&#xa5;" horiz-adv-x="611" d="M143 626q2 12 6 16q14 -1 47.5 -3.5t59.5 -2.5q7 0 118 6q1 -5 -2 -16t-6 -11q-16 0 -36.5 -8t-23.5 -24q-2 -7 4 -29l61 -206q5 -6 10 2q161 198 168 234q2 11 -13.5 21t-42.5 10q-2 1 -2 6t2 12t5 9q9 -1 37.5 -3.5t47.5 -2.5q18 0 129 6q0 -10 -1 -15q-2 -12 -6 -12 q-12 0 -46 -8.5t-46 -20.5q-51 -65 -136 -178t-88 -126l-5 -28h85q5 0 2 -13q-3 -15 -10 -25h-85l-7 -40h85q5 0 2 -13q-3 -15 -10 -25h-85q-12 -63 -11 -92q1 -7 21.5 -14.5t28.5 -7.5q4 0 2 -12q-2 -10 -5 -15q-90 5 -99 5q-4 0 -107 -5q-3 7 -2 13q2 14 7 14q11 0 34 7 t28 15q13 30 25 92h-86q-5 0 -2 13q2 14 11 25h84l8 40h-85q-5 0 -2 13q3 15 10 25h85q4 12 2 16q0 16 -80 262q-11 35 -28 62q-6 9 -25 15t-31 6q-3 0 -1 11z" />
<glyph unicode="&#xa6;" horiz-adv-x="203" d="M-11 -115l70 363q16 16 44 16q6 0 11 -2t4 -5l-69 -363q-6 -6 -19 -11.5t-27 -5.5q-5 0 -10 2.5t-4 5.5zM87 391l70 363q16 16 44 16q6 0 11 -2t4 -5l-69 -363q-15 -17 -45 -17q-5 0 -10.5 2.5t-4.5 5.5z" />
<glyph unicode="&#xa7;" horiz-adv-x="348" d="M9 -27q2 27 13 44t29 17q12 0 20 -15.5t18.5 -30.5t29.5 -15q30 0 52.5 27.5t22.5 64.5q0 29 -17.5 52.5t-42.5 40.5t-50 34.5t-42.5 44.5t-17.5 61q0 100 84 166q0 2 -0.5 7t-0.5 7q0 69 43 121.5t122 52.5q57 0 72 -37q-5 -60 -42 -60q-12 0 -20 14.5t-19 29.5t-30 15 q-30 0 -52.5 -26.5t-22.5 -64.5q0 -29 17.5 -52.5t42.5 -40.5t50 -34.5t42.5 -44.5t17.5 -61q0 -102 -83 -165q0 -2 0.5 -6.5t0.5 -7.5q0 -65 -40 -119.5t-124 -54.5q-59 0 -73 36zM76 354q0 -32 21 -58t47.5 -41t54.5 -40.5t39 -55.5q38 27 38 76q0 32 -21 57.5t-47 40.5 t-54 40.5t-39 55.5q-26 -20 -34 -40q-5 -16 -5 -35z" />
<glyph unicode="&#xa8;" horiz-adv-x="285" d="M19 521q0 23 14.5 39.5t36.5 16.5q15 0 26 -12t11 -28q0 -24 -15.5 -42t-38.5 -18q-16 0 -25 13t-9 31zM188 521q0 23 14.5 39.5t36.5 16.5q15 0 26 -12t11 -28q0 -24 -15.5 -42t-38.5 -18q-16 0 -25 13t-9 31z" />
<glyph unicode="&#xa9;" horiz-adv-x="547" d="M24 286q0 129 96 229t216 100q91 0 148.5 -61.5t57.5 -155.5q0 -129 -96.5 -229t-216.5 -100q-91 0 -148 61.5t-57 155.5zM54 292q0 -83 51 -137.5t131 -54.5q105 0 191 88.5t86 202.5q0 83 -51.5 138t-131.5 55q-105 0 -190.5 -89t-85.5 -203zM146 307q0 67 49 121.5 t114 54.5q58 0 100 -19q2 -4 2 -8q1 -14 1 -50q0 -12 -16 -12q-4 0 -6 2q0 6 -3 14t-10 17.5t-23.5 15.5t-39.5 6q-43 0 -78 -39.5t-35 -94.5q0 -42 23.5 -65t54.5 -23q21 0 37.5 4t25.5 11.5t14 13t9 14t5 9.5q2 1 4 1l14 -4q-3 -8 -15 -34t-16 -28q-47 -19 -102 -19 q-48 0 -78.5 31.5t-30.5 80.5z" />
<glyph unicode="&#xaa;" horiz-adv-x="319" d="M27 322q0 80 71.5 157t134.5 77q47 0 57 -10l-38 -201q-3 -16 -3 -29q0 -26 15 -26q8 0 26 26l18 25q4 0 7 -15q-7 -19 -29.5 -47.5t-45.5 -28.5q-39 0 -39 51q0 11 3 29l2 17l-1 2q-1 0 -1 -0.5v-1.5q-12 -26 -49.5 -62t-67.5 -36q-60 0 -60 73zM86 338q0 -48 30 -48 q22 0 58 51.5t45 100.5l13 71q0 1 0.5 4t0.5 4q0 9 -5 9q-45 0 -93.5 -68t-48.5 -124z" />
<glyph unicode="&#xab;" horiz-adv-x="416" d="M4 237q0 19 12 31q55 31 110.5 70t81.5 59.5t31 25.5q17 -5 17 -16q0 -5 -1.5 -7.5t-17 -17t-51.5 -44.5q-14 -12 -51.5 -47.5t-47.5 -43.5q24 -36 45 -65.5t32 -42.5t19 -23t10.5 -14.5t2.5 -9.5q0 -4 -4 -8t-9 -6t-9 -4l-5 -1q-11 17 -59 65t-102 89q-4 3 -4 10z M171 237q0 19 12 31q53 30 107.5 68t79 57.5t35.5 29.5q18 -6 18 -16q0 -5 -1.5 -7.5t-17 -17t-51.5 -44.5q-14 -12 -51.5 -47.5t-47.5 -43.5l63 -90q8 -11 18 -23.5t15 -19t8.5 -13t3.5 -10.5t-3.5 -7.5t-7.5 -5t-9 -3.5t-6 -2q-11 17 -59 65t-102 89q-4 3 -4 10z" />
<glyph unicode="&#xac;" horiz-adv-x="474" d="M19 382q0 13 7 25.5t14 12.5h414q11 0 9 -11l-47 -240q-9 -9 -42 -9q-6 0 -10.5 2t-3.5 6l37 186v1q0 9 -10 9h-365q-3 12 -3 18z" />
<glyph unicode="&#xad;" horiz-adv-x="295" d="M19 214q0 10 7 28t14 19l227 12q6 0 6 -12q0 -11 -8 -30.5t-15 -20.5l-226 -11q-5 0 -5 15z" />
<glyph unicode="&#xae;" horiz-adv-x="547" d="M34.5 407q21.5 113 111.5 193t195.5 80t164.5 -80t37.5 -193t-112 -193.5t-196 -80.5t-164 80.5t-37 193.5zM65.5 407q-19.5 -100 32.5 -171t144.5 -71t172.5 71t99.5 171t-33 170.5t-145 70.5t-172 -70.5t-99 -170.5zM145 280q0 1 1.5 2.5t1.5 2.5l18 3t9.5 5.5t4 6.5 t2.5 12.5t3 17.5l33 169q4 22 4 29q0 6 -7.5 9.5t-14.5 3.5q-2 0 -2 2t1.5 5.5t1.5 4.5q6 0 20 -1.5t23 -1.5q14 0 35.5 2t34.5 2q31 0 52.5 -16t21.5 -45q0 -50 -58 -79q-1 -1 -1 -3v-1q4 -22 32 -77q9 -17 14 -25.5t14 -15t19 -6.5q0 -7 -2 -11q-6 -3 -18 -3 q-42 0 -60.5 22t-50.5 104q-3 9 -17 9q-11 0 -13 -8l-17 -89v-11q0 -7 3 -8q12 -6 19 -6q1 0 1 -3q0 -2 -2 -10q-38 2 -50 2q-13 0 -55 -2q0 2 -0.5 4t-0.5 4zM254 440q0 -12 38 -12q23 0 36.5 19t13.5 44q0 38 -38 38q-32 0 -34 -10l-14 -75q0 -1 -1 -2.5z" />
<glyph unicode="&#xaf;" horiz-adv-x="261" d="M25 558q0 8 6 20.5t12 17.5h198q8 0 8 -18q0 -9 -6.5 -22.5t-11.5 -16.5h-201q-5 0 -5 19z" />
<glyph unicode="&#xb0;" horiz-adv-x="201" d="M14 517q0 47 35.5 82t76.5 35q33 0 54 -22.5t21 -56.5q0 -46 -35 -82t-77 -36q-33 0 -54 23t-21 57zM50 524q0 -21 12.5 -35.5t33.5 -14.5q26 0 47.5 22.5t21.5 51.5q0 21 -12.5 35t-33.5 14q-27 0 -48 -21.5t-21 -51.5z" />
<glyph unicode="&#xb1;" horiz-adv-x="497" d="M-8 45q0 19 22 47h430q4 0 4 -9q0 -24 -21 -47h-430q-5 0 -5 9zM50 342q0 19 22 47h178q4 0 4 4q6 29 16 90.5t17 97.5q2 9 24 13.5t32 4.5q6 0 8.5 -2.5t1.5 -6.5q-23 -134 -35 -196q-2 -5 3 -5h181q4 0 4 -9q0 -24 -21 -47h-179q-4 0 -4 -4l-35 -188q-1 -8 -18 -13 t-32 -5q-8 0 -12 3t-3 6q25 140 36 196q0 5 -4 5h-179q-5 0 -5 9z" />
<glyph unicode="&#xb2;" horiz-adv-x="302" d="M9 273q0 7 4 14q16 15 46.5 44.5t46 44t39 38.5t35.5 38.5t25 32.5t18.5 32t5.5 27q0 20 -11.5 35t-34.5 15q-13 0 -47.5 -21.5t-35.5 -21.5q-2 0 -5 8t-3 13q0 6 3 12q12 17 50.5 40t74.5 23q37 0 60 -24t23 -60q0 -43 -33 -89t-72 -77t-72 -56t-33 -30q0 -1 1 -1h127 q14 0 24.5 9t16.5 18.5t8 9.5q9 0 15 -4q-7 -13 -13 -27t-13 -33t-11 -29l-112 1l-122 -1q-5 2 -5 19z" />
<glyph unicode="&#xb3;" horiz-adv-x="279" d="M7 273q1 17 12 30.5t24 13.5t29 -17t32 -17q40 0 71 31.5t31 76.5q0 25 -14 39t-36 14q-4 0 -49 -6q-5 8 -5 14q0 13 11 16q57 12 80 41.5t23 52.5q0 15 -12 24.5t-28 9.5q-24 0 -49.5 -18.5t-27.5 -18.5q-4 0 -5 8.5t0 16.5v9q51 54 123 54q22 0 43 -17.5t21 -46.5 q0 -24 -14.5 -45t-26.5 -29.5t-34 -21.5q-3 -2 -5 -3q22 0 47.5 -23t25.5 -59q0 -57 -57 -106t-138 -49q-27 0 -48 8.5t-24 17.5z" />
<glyph unicode="&#xb4;" horiz-adv-x="207" d="M22 543q0 7 42.5 59.5t57.5 67.5q17 17 48 17q33 0 33 -21q0 -24 -79.5 -81.5t-91.5 -57.5q-3 0 -6.5 6t-3.5 10z" />
<glyph unicode="&#xb5;" horiz-adv-x="428" d="M4 -133q0 75 83 337q3 14 9.5 53t6.5 41q10 45 24 119q15 20 27 20q9 0 27 -14t16 -23q-6 -35 -54 -154l-9 -23q-14 -59 -11.5 -109t25.5 -50q75 0 162 158l54 203q2 12 15 12q9 0 27 -14t16 -23q-5 -31 -55 -154l-9 -23q-34 -156 21 -156q29 0 59 30q3 0 7 -10 q2 -6 0 -11q-16 -33 -45.5 -56.5t-57.5 -23.5q-30 1 -36 35.5t-1 96.5q-84 -137 -167 -137q-6 0 -11.5 1.5t-9.5 5.5l-7 7t-5.5 10t-4 11t-3 13t-2 12.5t-1.5 13t-1 11.5q0 -1 -8 -42t-13 -77t-2.5 -81.5t17.5 -69.5q-1 -10 -15.5 -18.5t-28.5 -8.5q-8 0 -16 8t-15.5 29 t-7.5 51z" />
<glyph unicode="&#xb6;" horiz-adv-x="414" d="M21 438q0 80 63 147t134 67q28 0 52 -2t52 -2l105 5q1 -1 1 -7q0 -22 -7 -22q-11 0 -33 -6t-27 -14q-4 -7 -16.5 -71t-23.5 -123.5t-11 -60.5q0 -3 2 -3h2l41 8q1 -3 1 -8q0 -23 -23 -30l-25 -7q-7 -3 -7 -5q-1 -4 -9 -46.5t-15 -81t-13.5 -78.5t-6.5 -51q0 -10 23.5 -17 t33.5 -7q2 0 2 -5q0 -17 -7 -22q-16 1 -66 3.5t-84 2.5q-19 0 -37.5 -1t-40 -2.5t-34.5 -2.5v2q0 7 2.5 16t5.5 9q8 0 33 7.5t28 14.5q7 15 19.5 74.5t22 111.5t9.5 55q0 5 -18 5q-63 0 -95.5 44.5t-32.5 102.5zM166 47q0 -11 20 -11q7 0 13.5 4.5t7.5 9.5q13 50 50 245 q0 4 -2 4q-1 0 -5 -1t-13 -2.5t-20 -2.5q-6 -1 -7 -7l-44 -237v-2zM219 337q0 -5 7 -5l36 6q4 0 6 6q1 4 13 69t23 124.5t11 63.5q0 3 -6 6.5t-13 3.5q-21 0 -23 -12q0 -2 -9 -43.5t-19 -88t-18 -87t-8 -43.5z" />
<glyph unicode="&#xb7;" horiz-adv-x="131" d="M10 252q0 27 21 48.5t46 21.5q19 0 31 -13t12 -33q0 -28 -20.5 -49.5t-45.5 -21.5q-19 0 -31.5 13.5t-12.5 33.5z" />
<glyph unicode="&#xb8;" horiz-adv-x="161" d="M8 -134q0 10 5.5 14.5t9.5 4.5q5 0 14.5 -6.5t17.5 -6.5q20 0 34 11.5t14 29.5q0 13 -7 19.5t-17 6.5q-7 0 -25 -7q-2 0 -4.5 4t-2.5 7q0 2 4.5 7.5t15 18.5t20.5 27h19l-20 -23h22q15 0 24 -11t9 -27q0 -31 -28.5 -59t-75.5 -28q-18 0 -29 9v9z" />
<glyph unicode="&#xb9;" horiz-adv-x="218" d="M7 258q0 20 7 20q9 0 30 5t24 9q8 9 15 48l33 173q6 42 6 44q0 12 -10 12q-6 0 -60 -18q-8 2 -8 15q0 10 7 13q29 13 70 33t63 30t26 10q6 0 6 -23q-17 -42 -24 -81l-40 -208q-4 -24 -4 -30q0 -12 4 -17q3 -5 19.5 -9.5t23.5 -4.5q2 0 2 -7q0 -13 -4 -19q-11 0 -40.5 1.5 t-50.5 1.5t-52 -1.5t-42 -1.5q-1 1 -1 5z" />
<glyph unicode="&#xba;" horiz-adv-x="312" d="M29 367q0 71 50 129t122 58q49 0 80 -35t31 -87q0 -71 -50 -128t-121 -57q-49 0 -80.5 34.5t-31.5 85.5zM95 364q0 -93 58 -93q27 0 46.5 16t29 42.5t13.5 53.5t4 58q0 88 -55 88q-35 0 -57.5 -26t-30.5 -61t-8 -78z" />
<glyph unicode="&#xbb;" horiz-adv-x="425" d="M-2 88q0 6 6 12.5t34 30.5q18 15 30 26l98 90l-64 91q-43 53 -43 64q0 6 3 10t6.5 5.5t8.5 3t6 2.5q15 -22 65 -72t97 -83q3 -6 3 -16q0 -21 -10 -25q-61 -36 -116.5 -74.5t-80.5 -58.5l-25 -21q-18 5 -18 15zM165 88q0 6 6 12.5t34 30.5q18 15 30 26l98 90l-64 91 q-44 54 -44 63q0 5 2 8.5t5.5 6t6.5 3.5t7 3l4 1q13 -20 63.5 -70.5t97.5 -84.5q4 -5 4 -14q0 -23 -11 -27q-58 -34 -113 -72.5t-81 -60.5l-27 -21q-18 5 -18 15z" />
<glyph unicode="&#xbc;" horiz-adv-x="563" d="M-1 258q0 20 7 20q9 0 30 5t24 9q8 9 15 48l33 173q6 42 6 44q0 12 -10 12q-6 0 -60 -18q-8 2 -8 15q0 10 7 13q29 13 70 33t63 30t26 10q6 0 6 -23q-17 -42 -24 -81l-40 -208q-4 -24 -4 -30q0 -10 5 -17q3 -5 19 -9.5t23 -4.5q2 0 2 -7q0 -13 -4 -19q-11 0 -40.5 1.5 t-50.5 1.5t-52 -1.5t-42 -1.5q-1 1 -1 5zM73 4q0 4 2 6l447 632q31 -8 31 -19q0 -4 -1 -5l-446 -632q-33 7 -33 18zM283 141l231 249q7 7 15 7q25 0 23 -7l-45 -228v-1q0 -3 4 -3h24q9 0 9 -7q0 -29 -11 -36h-32q-2 0 -4 -5l-22 -110q-10 -5 -27 -5q-13 0 -22 1.5t-12 3.5 t-2 4l20 108v1q0 2 -3 2h-139q-7 12 -7 26zM342 163q0 -5 3 -5h91q5 0 6 5l26 129q0 4 -2 4h-1l-122 -130q-1 -1 -1 -3z" />
<glyph unicode="&#xbd;" horiz-adv-x="609" d="M0 257q0 18 7 18q10 0 29 5t22 10q11 18 16 48l30 161q5 25 5 40q0 16 -10 16q-2 0 -47 -15q-10 8 -11 11v5t1 3t3.5 3t5.5 3t9 4.5t13.5 6t19.5 9t25.5 12.5t32.5 17.5t40 23.5h4q6 0 6 -24q-18 -41 -25 -80l-38 -196q-4 -24 -4 -30q0 -5 2 -17q1 -5 19.5 -10t25.5 -5 q2 0 2 -6q0 -13 -4 -19q-12 0 -39 1.5t-48 1.5t-49.5 -1.5t-40.5 -1.5q-2 2 -2 6zM59 4q0 4 2 6l447 632q32 -8 32 -19q0 -3 -2 -5l-446 -632q-33 7 -33 18zM300 17q0 9 6 16q13 12 43.5 41t45 43t39 38.5t36.5 40t26 34.5t20 33.5t6 27.5q0 20 -11.5 34.5t-34.5 14.5 q-17 0 -39 -11.5t-37 -28.5q-2 -2 -4 -2q-3 0 -6.5 8.5t-3.5 14.5l1 8q24 26 59.5 45t66.5 19q37 0 60 -24t23 -60q0 -43 -33 -89t-72 -76.5t-72 -55.5t-33 -31q0 -1 1 -1h127q17 0 26 5.5t10.5 12.5t6.5 12.5t15 5.5q6 0 7 -2q-2 -3 -37 -90h-234q-8 4 -8 17z" />
<glyph unicode="&#xbe;" horiz-adv-x="593" d="M1 273q1 17 11.5 30.5t23.5 13.5q14 0 30 -17t33 -17q40 0 70 31.5t30 77.5q0 52 -48 52q-4 0 -49 -6q-5 8 -5 14q0 13 11 16q56 12 79 41.5t23 52.5q0 16 -12 25t-29 9q-19 0 -46 -19t-29 -19q-8 0 -8 27q0 2 1 5l1 3q51 54 123 54q23 0 44 -17.5t21 -46.5 q0 -9 -1.5 -17.5t-5.5 -16t-7.5 -13.5t-10.5 -12.5t-10.5 -10t-12 -9.5t-11 -7.5t-11.5 -6.5l-10 -6q22 0 46.5 -22.5t24.5 -58.5q0 -60 -58 -108t-136 -48q-27 0 -48 8.5t-24 17.5zM94 4q0 4 2 6l447 632q31 -8 31 -19q0 -4 -1 -5l-446 -632q-33 7 -33 18zM315 138v3 l231 249q7 7 19 7q18 0 18 -6v-1l-44 -227v-1q0 -3 4 -3h25q8 0 8 -7q-1 -7 -2 -16q-2 -16 -6 -18q-2 -2 -4 -3l-32 -1q-2 0 -4 -5l-21 -109q-2 -5 -28 -5q-36 0 -36 9l21 108q0 3 -3 3h-139q-7 12 -7 23zM373 164q0 -6 4 -6h91q5 0 6 5l25 129q0 5 -2 5q-5 -5 -64.5 -68.5 t-59.5 -64.5z" />
<glyph unicode="&#xbf;" horiz-adv-x="277" d="M-15 -79q0 24 4.5 41.5t10 29.5t21.5 26t28.5 22t42.5 27.5t52 34.5q33 22 33 60q0 18 -19.5 41t-19.5 25q0 8 10 14q24 0 61 -30.5t37 -67.5q0 -50 -42 -83l-119 -84q-52 -36 -52 -69q0 -26 16 -44t46 -18q21 0 37.5 23.5t30.5 23.5q15 0 26 -13t14 -34q-6 -18 -24 -36 t-49 -18q-60 0 -102.5 40t-42.5 89zM163 367q0 27 21.5 48.5t46.5 21.5q19 0 30.5 -13t11.5 -33q0 -28 -20 -49t-45 -21q-19 0 -32 13t-13 33z" />
<glyph unicode="&#xc0;" horiz-adv-x="606" d="M2 5q0 19 7 19q11 0 30.5 6t27.5 15q22 24 61 94l276 496q15 27 39 27q4 0 8 -2l83 -528q10 -63 12 -72q3 -15 25.5 -25.5t32.5 -10.5q2 0 2 -5q0 -12 -5 -22q-93 5 -104 5q-19 0 -35.5 -1t-36.5 -2t-35 -2q-1 1 -1 6q0 21 7 21q10 0 28 6t23 14q7 15 7 47q0 17 -18 148 v2.5t-1.5 2t-4 2t-7 1t-12 1t-18 1t-25 0.5h-33.5q-21 0 -93 -5q-3 0 -27 -40t-47 -87t-23 -62q0 -11 14 -19t25.5 -10t15.5 -2q2 0 2 -6q0 -11 -5 -21q-93 5 -95 5q-19 0 -33.5 -1t-31.5 -2t-33 -2q-2 2 -2 8zM271 301q0 -2 1 -2q23 -1 76 -1q46 0 75 2q4 0 4 4 q0 5 -6.5 47t-15 98t-11.5 77q-123 -223 -123 -225zM290 784q0 9 15.5 16.5t42.5 7.5q11 0 17 -2q23 -15 61 -47.5t38 -38.5q0 -10 -13 -10q-19 0 -90 28.5t-71 45.5z" />
<glyph unicode="&#xc1;" horiz-adv-x="606" d="M2 5q0 19 7 19q11 0 30.5 6t27.5 15q22 24 61 94l276 496q15 27 39 27q4 0 8 -2l83 -528q10 -63 12 -72q3 -15 25.5 -25.5t32.5 -10.5q2 0 2 -5q0 -12 -5 -22q-93 5 -104 5q-19 0 -35.5 -1t-36.5 -2t-35 -2q-1 1 -1 6q0 21 7 21q10 0 28 6t23 14q7 15 7 47q0 17 -18 148 v2.5t-1.5 2t-4 2t-7 1t-12 1t-18 1t-25 0.5h-33.5q-21 0 -93 -5q-3 0 -27 -40t-47 -87t-23 -62q0 -11 14 -19t25.5 -10t15.5 -2q2 0 2 -6q0 -11 -5 -21q-93 5 -95 5q-19 0 -33.5 -1t-31.5 -2t-33 -2q-2 2 -2 8zM271 301q0 -2 1 -2q23 -1 76 -1q46 0 75 2q4 0 4 4 q0 5 -6.5 47t-15 98t-11.5 77q-123 -223 -123 -225zM408 721q0 6 38 38.5t61 47.5q6 2 17 2q27 0 42.5 -7.5t15.5 -16.5q0 -17 -71 -45.5t-90 -28.5q-13 0 -13 10z" />
<glyph unicode="&#xc2;" horiz-adv-x="606" d="M2 5q0 19 7 19q11 0 30.5 6t27.5 15q22 24 61 94l276 496q15 27 39 27q4 0 8 -2l83 -528q10 -63 12 -72q3 -15 25.5 -25.5t32.5 -10.5q2 0 2 -5q0 -12 -5 -22q-93 5 -104 5q-19 0 -35.5 -1t-36.5 -2t-35 -2q-1 1 -1 6q0 21 7 21q10 0 28 6t23 14q7 15 7 47q0 17 -18 148 v2.5t-1.5 2t-4 2t-7 1t-12 1t-18 1t-25 0.5h-33.5q-21 0 -93 -5q-3 0 -27 -40t-47 -87t-23 -62q0 -11 14 -19t25.5 -10t15.5 -2q2 0 2 -6q0 -11 -5 -21q-93 5 -95 5q-19 0 -33.5 -1t-31.5 -2t-33 -2q-2 2 -2 8zM271 301q0 -2 1 -2q23 -1 76 -1q46 0 75 2q4 0 4 4 q0 5 -6.5 47t-15 98t-11.5 77q-123 -223 -123 -225zM338 748q4 4 15.5 12t29.5 20.5t32 23.5q34 24 55 46q9 8 13 8q8 0 11 -8q18 -32 32 -48q11 -12 25 -25.5t22 -20.5t8 -8q-5 -20 -15 -20q-19 0 -99 58q-30 -18 -72 -38t-51 -20q-11 0 -6 20z" />
<glyph unicode="&#xc3;" horiz-adv-x="606" d="M2 5q0 19 7 19q11 0 30.5 6t27.5 15q22 24 61 94l276 496q15 27 39 27q4 0 8 -2l83 -528q10 -63 12 -72q3 -15 25.5 -25.5t32.5 -10.5q2 0 2 -5q0 -12 -5 -22q-93 5 -104 5q-19 0 -35.5 -1t-36.5 -2t-35 -2q-1 1 -1 6q0 21 7 21q10 0 28 6t23 14q7 15 7 47q0 17 -18 148 v2.5t-1.5 2t-4 2t-7 1t-12 1t-18 1t-25 0.5h-33.5q-21 0 -93 -5q-3 0 -27 -40t-47 -87t-23 -62q0 -11 14 -19t25.5 -10t15.5 -2q2 0 2 -6q0 -11 -5 -21q-93 5 -95 5q-19 0 -33.5 -1t-31.5 -2t-33 -2q-2 2 -2 8zM271 301q0 -2 1 -2q23 -1 76 -1q46 0 75 2q4 0 4 4 q0 5 -6.5 47t-15 98t-11.5 77q-123 -223 -123 -225zM292 754q3 16 23 38q39 40 80 40q31 0 75 -26.5t75 -26.5q11 0 27.5 11t28.5 22t13 11q7 0 3 -17q-3 -16 -23 -39q-36 -39 -78 -39q-32 0 -75.5 26.5t-75.5 26.5q-15 0 -42 -22t-28 -22q-7 0 -3 17z" />
<glyph unicode="&#xc4;" horiz-adv-x="606" d="M2 5q0 19 7 19q11 0 30.5 6t27.5 15q22 24 61 94l276 496q15 27 39 27q4 0 8 -2l83 -528q10 -63 12 -72q3 -15 25.5 -25.5t32.5 -10.5q2 0 2 -5q0 -12 -5 -22q-93 5 -104 5q-19 0 -35.5 -1t-36.5 -2t-35 -2q-1 1 -1 6q0 21 7 21q10 0 28 6t23 14q7 15 7 47q0 17 -18 148 v2.5t-1.5 2t-4 2t-7 1t-12 1t-18 1t-25 0.5h-33.5q-21 0 -93 -5q-3 0 -27 -40t-47 -87t-23 -62q0 -11 14 -19t25.5 -10t15.5 -2q2 0 2 -6q0 -11 -5 -21q-93 5 -95 5q-19 0 -33.5 -1t-31.5 -2t-33 -2q-2 2 -2 8zM271 301q0 -2 1 -2q23 -1 76 -1q46 0 75 2q4 0 4 4 q0 5 -6.5 47t-15 98t-11.5 77q-123 -223 -123 -225zM317 778q4 21 20 35.5t36 14.5q19 0 30 -14.5t7 -35.5t-20.5 -35.5t-36.5 -14.5q-19 0 -29.5 14.5t-6.5 35.5zM485 778q4 21 20 35.5t36 14.5q19 0 30 -14.5t7 -35.5t-20 -35.5t-36 -14.5q-19 0 -30 14.5t-7 35.5z" />
<glyph unicode="&#xc5;" horiz-adv-x="606" d="M2 5q0 19 7 19q11 0 30.5 6t27.5 15q22 24 61 94l276 496q15 27 39 27q4 0 8 -2l83 -528q10 -63 12 -72q3 -15 25.5 -25.5t32.5 -10.5q2 0 2 -5q0 -12 -5 -22q-93 5 -104 5q-19 0 -35.5 -1t-36.5 -2t-35 -2q-1 1 -1 6q0 21 7 21q10 0 28 6t23 14q7 15 7 47q0 17 -18 148 v2.5t-1.5 2t-4 2t-7 1t-12 1t-18 1t-25 0.5h-33.5q-21 0 -93 -5q-3 0 -27 -40t-47 -87t-23 -62q0 -11 14 -19t25.5 -10t15.5 -2q2 0 2 -6q0 -11 -5 -21q-93 5 -95 5q-19 0 -33.5 -1t-31.5 -2t-33 -2q-2 2 -2 8zM271 301q0 -2 1 -2q23 -1 76 -1q46 0 75 2q4 0 4 4 q0 5 -6.5 47t-15 98t-11.5 77q-123 -223 -123 -225zM364 749q7 37 37 63t64 26t52.5 -26t10.5 -63t-36.5 -63.5t-61.5 -26.5q-34 0 -53.5 26.5t-12.5 63.5zM395 749q-4 -23 8 -39.5t33 -16.5t38.5 16.5t22.5 39.5t-6.5 39t-32.5 16t-40 -16t-23 -39z" />
<glyph unicode="&#xc6;" horiz-adv-x="847" d="M63 3q0 6 3 13.5t6 7.5q10 0 30.5 6t29.5 15q39 35 79 94l312 447q5 7 5 15q0 24 -30 24q-3 0 -3 5q0 16 10 26h87q42 0 145 4t155 4q-1 -20 -4.5 -65t-4.5 -69q-5 -5 -17 -5t-12 7q-1 28 -9 46t-21.5 25.5t-25 10t-26.5 2.5h-59q-78 0 -82 -13q-7 -25 -15 -98l-15 -158 v-1q0 -6 31 -6h33q60 0 74.5 8.5t34.5 53.5q3 6 4 9q3 7 15 7t15 -5q-16 -62 -26 -192q-6 -4 -15 -4q-12 0 -13 7q-1 26 -4.5 40.5t-5 16.5t-7.5 7q-10 8 -100 8q-40 0 -41 -10l-12 -132l-4 -43q-5 -43 -5 -48q0 -6 3.5 -10t17.5 -6.5t40 -2.5h15q78 0 112 17q29 15 70 101 q3 6 15 6q17 0 21 -6q-51 -98 -74 -166q-53 0 -143 3t-130 3l-126 -5q-1 1 -1 6q0 8 3 18t6 10q11 0 40 6.5t33 12.5t8 17t7 27.5t5 31.5t4.5 38t4 39t3.5 42.5t3 39.5q0 8 -6 8l-68 1q-41 0 -67 -1q-3 0 -6 -3l-109 -159q-45 -64 -45 -81q0 -10 20 -18t31 -8q1 0 1 -2 q0 -10 -9 -25q-92 5 -94 5q-19 0 -33 -1t-30.5 -2t-32.5 -2q-1 1 -1 6zM399.5 341.5q0.5 -1.5 1.5 -1.5q19 -1 53 -1q39 0 59 2l6 5l21 201l-140 -203q-1 -1 -0.5 -2.5z" />
<glyph unicode="&#xc7;" horiz-adv-x="580" d="M60 267q0 66 29.5 137t78.5 129.5t120.5 96t148.5 37.5q68 0 213 -45q-18 -114 -20 -124q-3 -15 -24 -15q-8 0 -11 3q0 15 -1 27t-10 35t-24.5 38t-48.5 27t-79 12q-103 0 -192 -110t-89 -256q0 -96 52 -159t147 -63q74 0 126 33q25 15 43.5 36t27 34t9.5 13 q3 0 12 -10.5t8 -14.5q-45 -86 -50 -91q-15 -17 -78 -30t-127 -13q-119 0 -190 81.5t-71 191.5zM185 -147q2 6 7.5 11t10.5 5q6 0 17 -7.5t21 -7.5q22 0 37 11.5t18 27.5q3 19 -5.5 29.5t-20.5 10.5t-31 -8q-2 0 -6 6t-2 9q2 2 21 26t26 34h23l-25 -27h28q21 0 31.5 -17 t5.5 -41q-8 -40 -42.5 -64.5t-78.5 -24.5q-23 0 -35 10v17z" />
<glyph unicode="&#xc8;" horiz-adv-x="519" d="M24 5q0 19 5 19q11 0 37 8t30 17q14 29 26 93l72 372q13 71 11 93q-1 8 -23 16t-33 8q-2 0 -2 4q0 16 7 23q46 -2 107 -2q41 0 141 4t152 4q-1 -14 -1 -39q0 -17 1 -49t1 -48q-5 -5 -18 -5q-12 0 -12 7q-3 56 -26 71t-73 15h-54q-71 0 -76 -13q-11 -30 -18 -67l-32 -175 q0 -3 2.5 -4.5t8.5 -2l12 -1t14 -0.5h45q66 0 82 9.5t39 61.5q3 7 14 7q12 0 15 -5l-37 -192q-6 -4 -14 -4q-13 0 -14 8q-1 27 -4 40.5t-4.5 16t-6.5 6.5q-10 8 -97 8q-66 0 -68 -9l-29 -148q-11 -53 -11 -87q0 -15 8 -18t53 -3h45q87 0 121 17q16 8 37.5 35.5t40.5 65.5 q3 6 15 6q17 0 21 -6q-70 -130 -82 -166q-53 0 -164.5 3t-151.5 3l-111 -5q-1 1 -1 8zM268 784q0 9 15.5 16.5t42.5 7.5q11 0 17 -2q23 -15 61 -47.5t38 -38.5q0 -10 -13 -10q-19 0 -90 28.5t-71 45.5z" />
<glyph unicode="&#xc9;" horiz-adv-x="519" d="M24 5q0 19 5 19q11 0 37 8t30 17q14 29 26 93l72 372q13 71 11 93q-1 8 -23 16t-33 8q-2 0 -2 4q0 16 7 23q46 -2 107 -2q41 0 141 4t152 4q-1 -14 -1 -39q0 -17 1 -49t1 -48q-5 -5 -18 -5q-12 0 -12 7q-3 56 -26 71t-73 15h-54q-71 0 -76 -13q-11 -30 -18 -67l-32 -175 q0 -3 2.5 -4.5t8.5 -2l12 -1t14 -0.5h45q66 0 82 9.5t39 61.5q3 7 14 7q12 0 15 -5l-37 -192q-6 -4 -14 -4q-13 0 -14 8q-1 27 -4 40.5t-4.5 16t-6.5 6.5q-10 8 -97 8q-66 0 -68 -9l-29 -148q-11 -53 -11 -87q0 -15 8 -18t53 -3h45q87 0 121 17q16 8 37.5 35.5t40.5 65.5 q3 6 15 6q17 0 21 -6q-70 -130 -82 -166q-53 0 -164.5 3t-151.5 3l-111 -5q-1 1 -1 8zM320 721q0 6 38 38.5t61 47.5q6 2 17 2q27 0 42.5 -7.5t15.5 -16.5q0 -17 -71 -45.5t-90 -28.5q-13 0 -13 10z" />
<glyph unicode="&#xca;" horiz-adv-x="519" d="M24 5q0 19 5 19q11 0 37 8t30 17q14 29 26 93l72 372q13 71 11 93q-1 8 -23 16t-33 8q-2 0 -2 4q0 16 7 23q46 -2 107 -2q41 0 141 4t152 4q-1 -14 -1 -39q0 -17 1 -49t1 -48q-5 -5 -18 -5q-12 0 -12 7q-3 56 -26 71t-73 15h-54q-71 0 -76 -13q-11 -30 -18 -67l-32 -175 q0 -3 2.5 -4.5t8.5 -2l12 -1t14 -0.5h45q66 0 82 9.5t39 61.5q3 7 14 7q12 0 15 -5l-37 -192q-6 -4 -14 -4q-13 0 -14 8q-1 27 -4 40.5t-4.5 16t-6.5 6.5q-10 8 -97 8q-66 0 -68 -9l-29 -148q-11 -53 -11 -87q0 -15 8 -18t53 -3h45q87 0 121 17q16 8 37.5 35.5t40.5 65.5 q3 6 15 6q17 0 21 -6q-70 -130 -82 -166q-53 0 -164.5 3t-151.5 3l-111 -5q-1 1 -1 8zM269 748q4 4 15.5 12t29.5 20.5t32 23.5q34 24 55 46q9 8 13 8q8 0 11 -8q18 -32 32 -48q11 -12 25 -25.5t22 -20.5t8 -8q-5 -20 -15 -20q-19 0 -99 58q-30 -18 -72 -38t-51 -20 q-11 0 -6 20z" />
<glyph unicode="&#xcb;" horiz-adv-x="519" d="M24 5q0 19 5 19q11 0 37 8t30 17q14 29 26 93l72 372q13 71 11 93q-1 8 -23 16t-33 8q-2 0 -2 4q0 16 7 23q46 -2 107 -2q41 0 141 4t152 4q-1 -14 -1 -39q0 -17 1 -49t1 -48q-5 -5 -18 -5q-12 0 -12 7q-3 56 -26 71t-73 15h-54q-71 0 -76 -13q-11 -30 -18 -67l-32 -175 q0 -3 2.5 -4.5t8.5 -2l12 -1t14 -0.5h45q66 0 82 9.5t39 61.5q3 7 14 7q12 0 15 -5l-37 -192q-6 -4 -14 -4q-13 0 -14 8q-1 27 -4 40.5t-4.5 16t-6.5 6.5q-10 8 -97 8q-66 0 -68 -9l-29 -148q-11 -53 -11 -87q0 -15 8 -18t53 -3h45q87 0 121 17q16 8 37.5 35.5t40.5 65.5 q3 6 15 6q17 0 21 -6q-70 -130 -82 -166q-53 0 -164.5 3t-151.5 3l-111 -5q-1 1 -1 8zM248 778q4 21 20 35.5t36 14.5q19 0 30 -14.5t7 -35.5t-20.5 -35.5t-36.5 -14.5q-19 0 -29.5 14.5t-6.5 35.5zM416 778q4 21 20 35.5t36 14.5q19 0 30 -14.5t7 -35.5t-20 -35.5 t-36 -14.5q-19 0 -30 14.5t-7 35.5z" />
<glyph unicode="&#xcc;" horiz-adv-x="263" d="M24 5q0 19 7 19q12 0 36 6.5t28 15.5q15 34 26 96l71 370q11 55 11 92q0 11 -21.5 19t-34.5 8q-2 0 -2 5q0 14 8 22q12 -1 47.5 -3.5t60.5 -2.5q24 0 61.5 3t44.5 3v-3q0 -24 -7 -24q-8 0 -33.5 -8t-28.5 -15q-13 -28 -26 -93l-71 -376q-11 -55 -11 -90q0 -8 13.5 -14.5 t26.5 -8.5l14 -2q2 0 2 -4q0 -11 -6 -23q-92 5 -104 5q-2 0 -110 -5q-2 2 -2 8zM108 784q0 9 15.5 16.5t42.5 7.5q11 0 17 -2q23 -15 61 -47.5t38 -38.5q0 -10 -13 -10q-19 0 -90 28.5t-71 45.5z" />
<glyph unicode="&#xcd;" horiz-adv-x="263" d="M24 5q0 19 7 19q12 0 36 6.5t28 15.5q15 34 26 96l71 370q11 55 11 92q0 11 -21.5 19t-34.5 8q-2 0 -2 5q0 14 8 22q12 -1 47.5 -3.5t60.5 -2.5q24 0 61.5 3t44.5 3v-3q0 -24 -7 -24q-8 0 -33.5 -8t-28.5 -15q-13 -28 -26 -93l-71 -376q-11 -55 -11 -90q0 -8 13.5 -14.5 t26.5 -8.5l14 -2q2 0 2 -4q0 -11 -6 -23q-92 5 -104 5q-2 0 -110 -5q-2 2 -2 8zM214 721q0 6 38 38.5t61 47.5q6 2 17 2q27 0 42.5 -7.5t15.5 -16.5q0 -17 -71 -45.5t-90 -28.5q-13 0 -13 10z" />
<glyph unicode="&#xce;" horiz-adv-x="263" d="M24 5q0 19 7 19q12 0 36 6.5t28 15.5q15 34 26 96l71 370q11 55 11 92q0 11 -21.5 19t-34.5 8q-2 0 -2 5q0 14 8 22q12 -1 47.5 -3.5t60.5 -2.5q24 0 61.5 3t44.5 3v-3q0 -24 -7 -24q-8 0 -33.5 -8t-28.5 -15q-13 -28 -26 -93l-71 -376q-11 -55 -11 -90q0 -8 13.5 -14.5 t26.5 -8.5l14 -2q2 0 2 -4q0 -11 -6 -23q-92 5 -104 5q-2 0 -110 -5q-2 2 -2 8zM156 748q4 4 15.5 12t29.5 20.5t32 23.5q34 24 55 46q9 8 13 8q8 0 11 -8q18 -32 32 -48q11 -12 25 -25.5t22 -20.5t8 -8q-5 -20 -15 -20q-19 0 -99 58q-30 -18 -72 -38t-51 -20q-11 0 -6 20z " />
<glyph unicode="&#xcf;" horiz-adv-x="263" d="M24 5q0 19 7 19q12 0 36 6.5t28 15.5q15 34 26 96l71 370q11 55 11 92q0 11 -21.5 19t-34.5 8q-2 0 -2 5q0 14 8 22q12 -1 47.5 -3.5t60.5 -2.5q24 0 61.5 3t44.5 3v-3q0 -24 -7 -24q-8 0 -33.5 -8t-28.5 -15q-13 -28 -26 -93l-71 -376q-11 -55 -11 -90q0 -8 13.5 -14.5 t26.5 -8.5l14 -2q2 0 2 -4q0 -11 -6 -23q-92 5 -104 5q-2 0 -110 -5q-2 2 -2 8zM152 781q0 23 14.5 39.5t36.5 16.5q15 0 26 -12t11 -28q0 -24 -15.5 -42t-38.5 -18q-16 0 -25 13t-9 31zM321 781q0 23 14.5 39.5t36.5 16.5q15 0 26 -12t11 -28q0 -24 -15.5 -42t-38.5 -18 q-16 0 -25 13t-9 31z" />
<glyph unicode="&#xd0;" horiz-adv-x="659" d="M20 10q0 19 5 19q11 0 37 8.5t30 16.5q14 29 26 93l72 372q13 72 11 93q-1 8 -23 16t-33 8q-2 0 -2 4q0 16 7 23q46 -2 107 -2q35 0 90 1t73 1q67 0 118.5 -20.5t83 -56t47 -80t15.5 -96.5q0 -51 -15 -106t-47.5 -109t-77.5 -97t-111 -69.5t-143 -26.5q-18 0 -71 2.5 t-87 2.5q-27 0 -55 -1t-42 -3l-14 -1q-1 1 -1 8zM95 326q0 18 6 27h345q6 0 6 -10q0 -16 -6 -30h-346q-5 0 -5 13zM195 101.5q0 -28.5 2 -33.5q4 -8 31.5 -13t48.5 -6t36 -1q84 0 150 54.5t99.5 138.5t33.5 178q0 88 -44 144t-134 56q-10 0 -30 -0.5t-52.5 -4.5t-37.5 -11 q-8 -10 -14 -25t-7 -21.5t-6 -32.5l-73 -380q-3 -14 -3 -42.5z" />
<glyph unicode="&#xd1;" horiz-adv-x="663" d="M24 5q0 19 7 19q12 0 42.5 8t34.5 16q11 22 27 96l77 372q9 44 9 90q0 12 -26 18.5t-42 6.5q-2 0 -2 7q0 15 7 20q78 -4 99 -4q18 0 94 4q15 -59 73 -196.5t119 -258.5q7 20 11 41l51 269q13 65 13 92q0 12 -27.5 19t-42.5 7q-2 0 -2 7q0 15 7 20q103 -5 105 -5 q14 0 109 5q0 -27 -6 -27q-10 0 -42.5 -7.5t-35.5 -14.5q-13 -32 -25 -93l-75 -380q-6 -31 -14 -80t-10 -60q-4 -4 -10 -4q-14 0 -26 23q-1 2 -246 566l-89 -440q-10 -49 -10 -89q0 -8 16 -15t32 -10l17 -3q2 0 2 -5q0 -12 -5 -22q-92 5 -104 5q-2 0 -110 -5q-2 2 -2 8z M324 754q3 16 23 38q39 40 80 40q31 0 75 -26.5t75 -26.5q11 0 27.5 11t28.5 22t13 11q7 0 3 -17q-3 -16 -23 -39q-36 -39 -78 -39q-32 0 -75.5 26.5t-75.5 26.5q-15 0 -42 -22t-28 -22q-7 0 -3 17z" />
<glyph unicode="&#xd2;" horiz-adv-x="624" d="M60 259q0 104 55 199.5t141 152t176 56.5q101 0 169.5 -75.5t68.5 -182.5q0 -108 -51.5 -205t-138.5 -155.5t-184 -58.5q-107 0 -171.5 76.5t-64.5 192.5zM151 267q0 -102 44.5 -168t126.5 -66q104 0 180 113.5t76 248.5q0 100 -44 165t-125 65q-108 0 -183 -111.5 t-75 -246.5zM293 784q0 9 15.5 16.5t42.5 7.5q11 0 17 -2q23 -15 61 -47.5t38 -38.5q0 -10 -13 -10q-19 0 -90 28.5t-71 45.5z" />
<glyph unicode="&#xd3;" horiz-adv-x="624" d="M60 259q0 104 55 199.5t141 152t176 56.5q101 0 169.5 -75.5t68.5 -182.5q0 -108 -51.5 -205t-138.5 -155.5t-184 -58.5q-107 0 -171.5 76.5t-64.5 192.5zM151 267q0 -102 44.5 -168t126.5 -66q104 0 180 113.5t76 248.5q0 100 -44 165t-125 65q-108 0 -183 -111.5 t-75 -246.5zM375 721q0 6 38 38.5t61 47.5q6 2 17 2q27 0 42.5 -7.5t15.5 -16.5q0 -17 -71 -45.5t-90 -28.5q-13 0 -13 10z" />
<glyph unicode="&#xd4;" horiz-adv-x="624" d="M60 259q0 104 55 199.5t141 152t176 56.5q101 0 169.5 -75.5t68.5 -182.5q0 -108 -51.5 -205t-138.5 -155.5t-184 -58.5q-107 0 -171.5 76.5t-64.5 192.5zM151 267q0 -102 44.5 -168t126.5 -66q104 0 180 113.5t76 248.5q0 100 -44 165t-125 65q-108 0 -183 -111.5 t-75 -246.5zM326 748q4 4 15.5 12t29.5 20.5t32 23.5q34 24 55 46q9 8 13 8q8 0 11 -8q18 -32 32 -48q11 -12 25 -25.5t22 -20.5t8 -8q-5 -20 -15 -20q-19 0 -99 58q-30 -18 -72 -38t-51 -20q-11 0 -6 20z" />
<glyph unicode="&#xd5;" horiz-adv-x="624" d="M60 259q0 104 55 199.5t141 152t176 56.5q101 0 169.5 -75.5t68.5 -182.5q0 -108 -51.5 -205t-138.5 -155.5t-184 -58.5q-107 0 -171.5 76.5t-64.5 192.5zM151 267q0 -102 44.5 -168t126.5 -66q104 0 180 113.5t76 248.5q0 100 -44 165t-125 65q-108 0 -183 -111.5 t-75 -246.5zM292 754q3 16 23 38q39 40 80 40q31 0 75 -26.5t75 -26.5q11 0 27.5 11t28.5 22t13 11q7 0 3 -17q-3 -16 -23 -39q-36 -39 -78 -39q-32 0 -75.5 26.5t-75.5 26.5q-15 0 -42 -22t-28 -22q-7 0 -3 17z" />
<glyph unicode="&#xd6;" horiz-adv-x="624" d="M60 259q0 104 55 199.5t141 152t176 56.5q101 0 169.5 -75.5t68.5 -182.5q0 -108 -51.5 -205t-138.5 -155.5t-184 -58.5q-107 0 -171.5 76.5t-64.5 192.5zM151 267q0 -102 44.5 -168t126.5 -66q104 0 180 113.5t76 248.5q0 100 -44 165t-125 65q-108 0 -183 -111.5 t-75 -246.5zM323 778q4 21 20 35.5t36 14.5q19 0 30 -14.5t7 -35.5t-20.5 -35.5t-36.5 -14.5q-19 0 -29.5 14.5t-6.5 35.5zM491 778q4 21 20 35.5t36 14.5q19 0 30 -14.5t7 -35.5t-20 -35.5t-36 -14.5q-19 0 -30 14.5t-7 35.5z" />
<glyph unicode="&#xd7;" horiz-adv-x="394" d="M7 108l154 135q2 2 2 3q0 4 -1 5l-101 137q0 9 16.5 28t21.5 19l4 -4l104 -141q2 -2 4 -2q1 0 2 1l158 141q3 3 6 3q5 0 11 -17.5t6 -31.5l-153 -136l-2 -2q0 -1 1 -2l100 -136q0 -10 -13.5 -29t-19.5 -19q-5 0 -7 3l-103 140q-2 2 -3 2q-2 0 -4 -2l-161 -140 q-3 -3 -5 -3q-4 0 -10.5 18t-6.5 30z" />
<glyph unicode="&#xd8;" horiz-adv-x="646" d="M89 328q27 140 133.5 239.5t229.5 99.5t191 -99.5t41 -239.5t-134 -239t-230 -99t-190.5 99t-40.5 239zM115 10l516 657q7 -2 16.5 -10t6.5 -12l-517 -658q-7 3 -16 11t-6 12zM178 235q5 -57 21.5 -102t54 -72.5t89.5 -27.5q89 0 156.5 83t88.5 193q13 58 8 114.5 t-22 101.5t-54.5 72.5t-89.5 27.5q-88 0 -155.5 -83t-88.5 -192q-13 -58 -8 -115z" />
<glyph unicode="&#xd9;" horiz-adv-x="631" d="M120 206q0 37 14 106l39 200q11 57 11 92q0 11 -21.5 19t-34.5 8q-2 0 -2 5q0 14 8 22q12 -1 47.5 -3.5t60.5 -2.5q24 0 61.5 3t44.5 3v-3q0 -24 -7 -24q-8 0 -33.5 -8t-28.5 -15q-13 -28 -26 -93l-41 -217q-8 -44 -8 -85q0 -77 33 -120.5t98 -43.5q163 0 205 225l44 238 q12 70 12 90q0 12 -29 20.5t-46 8.5q-2 0 -2 6q0 16 7 21q12 -1 48 -3.5t60 -2.5q19 0 36.5 1t37.5 2.5t33 2.5q0 -27 -7 -27q-8 0 -39 -8t-36 -15q-8 -10 -27 -98l-45 -234q-31 -159 -96 -217.5t-187 -58.5q-87 0 -135.5 53t-48.5 153zM276 784q0 9 15.5 16.5t42.5 7.5 q11 0 17 -2q23 -15 61 -47.5t38 -38.5q0 -10 -13 -10q-19 0 -90 28.5t-71 45.5z" />
<glyph unicode="&#xda;" horiz-adv-x="631" d="M120 206q0 37 14 106l39 200q11 57 11 92q0 11 -21.5 19t-34.5 8q-2 0 -2 5q0 14 8 22q12 -1 47.5 -3.5t60.5 -2.5q24 0 61.5 3t44.5 3v-3q0 -24 -7 -24q-8 0 -33.5 -8t-28.5 -15q-13 -28 -26 -93l-41 -217q-8 -44 -8 -85q0 -77 33 -120.5t98 -43.5q163 0 205 225l44 238 q12 70 12 90q0 12 -29 20.5t-46 8.5q-2 0 -2 6q0 16 7 21q12 -1 48 -3.5t60 -2.5q19 0 36.5 1t37.5 2.5t33 2.5q0 -27 -7 -27q-8 0 -39 -8t-36 -15q-8 -10 -27 -98l-45 -234q-31 -159 -96 -217.5t-187 -58.5q-87 0 -135.5 53t-48.5 153zM399 721q0 6 38 38.5t61 47.5 q6 2 17 2q27 0 42.5 -7.5t15.5 -16.5q0 -17 -71 -45.5t-90 -28.5q-13 0 -13 10z" />
<glyph unicode="&#xdb;" horiz-adv-x="631" d="M120 206q0 37 14 106l39 200q11 57 11 92q0 11 -21.5 19t-34.5 8q-2 0 -2 5q0 14 8 22q12 -1 47.5 -3.5t60.5 -2.5q24 0 61.5 3t44.5 3v-3q0 -24 -7 -24q-8 0 -33.5 -8t-28.5 -15q-13 -28 -26 -93l-41 -217q-8 -44 -8 -85q0 -77 33 -120.5t98 -43.5q163 0 205 225l44 238 q12 70 12 90q0 12 -29 20.5t-46 8.5q-2 0 -2 6q0 16 7 21q12 -1 48 -3.5t60 -2.5q19 0 36.5 1t37.5 2.5t33 2.5q0 -27 -7 -27q-8 0 -39 -8t-36 -15q-8 -10 -27 -98l-45 -234q-31 -159 -96 -217.5t-187 -58.5q-87 0 -135.5 53t-48.5 153zM340 748q4 4 15.5 12t29.5 20.5 t32 23.5q34 24 55 46q9 8 13 8q8 0 11 -8q18 -32 32 -48q11 -12 25 -25.5t22 -20.5t8 -8q-5 -20 -15 -20q-19 0 -99 58q-30 -18 -72 -38t-51 -20q-11 0 -6 20z" />
<glyph unicode="&#xdc;" horiz-adv-x="631" d="M120 206q0 37 14 106l39 200q11 57 11 92q0 11 -21.5 19t-34.5 8q-2 0 -2 5q0 14 8 22q12 -1 47.5 -3.5t60.5 -2.5q24 0 61.5 3t44.5 3v-3q0 -24 -7 -24q-8 0 -33.5 -8t-28.5 -15q-13 -28 -26 -93l-41 -217q-8 -44 -8 -85q0 -77 33 -120.5t98 -43.5q163 0 205 225l44 238 q12 70 12 90q0 12 -29 20.5t-46 8.5q-2 0 -2 6q0 16 7 21q12 -1 48 -3.5t60 -2.5q19 0 36.5 1t37.5 2.5t33 2.5q0 -27 -7 -27q-8 0 -39 -8t-36 -15q-8 -10 -27 -98l-45 -234q-31 -159 -96 -217.5t-187 -58.5q-87 0 -135.5 53t-48.5 153zM322 778q4 21 20 35.5t36 14.5 q19 0 30 -14.5t7 -35.5t-20.5 -35.5t-36.5 -14.5q-19 0 -29.5 14.5t-6.5 35.5zM490 778q4 21 20 35.5t36 14.5q19 0 30 -14.5t7 -35.5t-20 -35.5t-36 -14.5q-19 0 -30 14.5t-7 35.5z" />
<glyph unicode="&#xdd;" horiz-adv-x="593" d="M120 636q0 17 7 22q12 -1 51 -3.5t66 -2.5q10 0 124 6v-5q0 -22 -7 -22q-15 0 -39 -10.5t-24 -31.5q0 -10 4 -22l69 -212q13 17 45.5 59t50 65.5t39.5 53.5t32 46t10 21q-1 13 -21.5 22t-40.5 9q-2 0 -2 6q0 16 7 21q8 0 40 -3t52 -3q5 0 119 6q1 -2 1 -5q0 -22 -7 -22 q-10 0 -39.5 -9.5t-41.5 -21.5t-120.5 -158.5t-110.5 -156.5l-28 -146q-11 -55 -11 -90q0 -8 13.5 -14.5t27.5 -8.5l13 -2q2 0 2 -4q0 -11 -6 -23q-93 5 -104 5q-3 0 -111 -5q-1 1 -1 7q0 20 7 20q11 0 35 7t29 15q12 21 25 90l26 142q1 4 -20 70.5t-43 131.5l-21 65 q-15 46 -39 64q-10 7 -29 14.5t-27 7.5q-2 0 -2 5zM414 721q0 6 38 38.5t61 47.5q6 2 17 2q27 0 42.5 -7.5t15.5 -16.5q0 -17 -71 -45.5t-90 -28.5q-13 0 -13 10z" />
<glyph unicode="&#xde;" horiz-adv-x="515" d="M48 12q2 14 6 14q12 0 36.5 6t29.5 14q15 34 24 89l76 388q11 66 10 89q-1 8 -23.5 14.5t-34.5 6.5q-3 0 -1 13q2 11 7 16q105 -5 111 -5q13 0 108 5q0 -10 -1 -15q-2 -14 -6 -14q-9 0 -35 -7t-29 -14q-14 -33 -25 -88q-1 -5 -2.5 -11.5t-1.5 -8.5q-1 -7 2 -7q2 0 13 3.5 t32 7t45 3.5q31 0 60.5 -10t55 -30t37 -57t1.5 -86q-13 -67 -77 -133.5t-152 -66.5q-53 0 -66 28q-4 7 2 23q1 4 3 3q26 -11 60 -11q46 0 88 42t53 100q29 154 -88 154q-46 0 -66 -7q-13 -4 -19 -37l-55 -284q-11 -58 -10 -93q1 -7 24 -13.5t32 -6.5q4 0 1 -15q-2 -9 -5 -14 q-92 5 -107 5q-5 0 -112 -5q-3 5 -1 15z" />
<glyph unicode="&#xdf;" horiz-adv-x="495" d="M-90 -191q7 58 39 58q9 0 15.5 -9.5t10 -21.5t13 -21.5t24.5 -9.5q14 0 27 18t21.5 47t16 61.5t13.5 65.5q1 8 2 12l65 345v2q0 5 -3 5h-65q-2 0 -2 3q0 9 16 26t32 17h29q4 0 10 29.5t17.5 71.5t30 84.5t56 72t87.5 29.5q61 0 108 -29t47 -84q0 -31 -12.5 -58t-36.5 -49 t-37 -31.5t-35 -23.5q-7 -4 -23.5 -13.5t-24 -14.5t-15 -15.5t-7.5 -23.5q0 -6 1.5 -11.5t5.5 -11t7 -9.5t10 -10.5t10.5 -9.5t12 -10t11.5 -10q6 -5 25 -21t24 -21t17 -18t15.5 -21.5t7.5 -22.5t4 -29q0 -60 -40.5 -103.5t-99.5 -43.5q-42 0 -75 14t-37 28q9 58 44 58 q10 0 17.5 -10.5t12 -23.5t15.5 -23.5t26 -10.5q27 0 44.5 19.5t22.5 38.5t5 35q0 13 -4 25.5t-14.5 24.5t-16.5 18.5t-21.5 19.5t-18.5 16q-5 4 -19.5 16t-19.5 17.5t-14 16t-12 21.5t-3 24q0 31 16.5 50t73.5 61q82 62 82 154q0 33 -23.5 50t-64.5 17q-32 0 -59.5 -45.5 t-38.5 -90.5l-11 -46l-82 -428q-28 -149 -69 -214.5t-103 -65.5q-36 0 -56.5 13.5t-26.5 29.5z" />
<glyph unicode="&#xe0;" horiz-adv-x="440" d="M66 130q0 71 42.5 142.5t109.5 117t134 45.5q38 0 73 -13l-61 -316q-3 -12 -3 -25q0 -25 10 -25q6 0 14.5 5.5t17 13.5t15.5 15.5t13 13.5l6 7q2 0 7.5 -9.5t5.5 -13.5q-13 -22 -54 -58t-72 -36q-16 0 -25 14.5t-9 37.5q0 17 7 53q2 11 3.5 17.5t1.5 8.5 q-10 -18 -23 -36.5t-33 -41.5t-42.5 -37.5t-42.5 -14.5q-44 0 -69.5 39.5t-25.5 95.5zM140 151q0 -98 51 -98q36 0 80.5 73t59.5 148l20 102q-12 13 -41 13q-59 0 -114.5 -76.5t-55.5 -161.5zM188 612q0 15 16.5 21.5t32.5 6.5q15 0 20 -5q2 -2 15.5 -16t28 -29.5 t29.5 -32.5t25 -29t10 -14q0 -6 -4.5 -12t-8.5 -6q-16 0 -90 47.5t-74 68.5z" />
<glyph unicode="&#xe1;" horiz-adv-x="440" d="M66 130q0 71 42.5 142.5t109.5 117t134 45.5q38 0 73 -13l-61 -316q-3 -12 -3 -25q0 -25 10 -25q6 0 14.5 5.5t17 13.5t15.5 15.5t13 13.5l6 7q2 0 7.5 -9.5t5.5 -13.5q-13 -22 -54 -58t-72 -36q-16 0 -25 14.5t-9 37.5q0 17 7 53q2 11 3.5 17.5t1.5 8.5 q-10 -18 -23 -36.5t-33 -41.5t-42.5 -37.5t-42.5 -14.5q-44 0 -69.5 39.5t-25.5 95.5zM140 151q0 -98 51 -98q36 0 80.5 73t59.5 148l20 102q-12 13 -41 13q-59 0 -114.5 -76.5t-55.5 -161.5zM261 508q0 7 42.5 55t72.5 71q8 5 26 5q39 0 39 -24q0 -22 -80.5 -70.5 t-92.5 -48.5q-2 0 -4.5 4t-2.5 8z" />
<glyph unicode="&#xe2;" horiz-adv-x="440" d="M66 130q0 71 42.5 142.5t109.5 117t134 45.5q38 0 73 -13l-61 -316q-3 -12 -3 -25q0 -25 10 -25q6 0 14.5 5.5t17 13.5t15.5 15.5t13 13.5l6 7q2 0 7.5 -9.5t5.5 -13.5q-13 -22 -54 -58t-72 -36q-16 0 -25 14.5t-9 37.5q0 17 7 53q2 11 3.5 17.5t1.5 8.5 q-10 -18 -23 -36.5t-33 -41.5t-42.5 -37.5t-42.5 -14.5q-44 0 -69.5 39.5t-25.5 95.5zM140 151q0 -98 51 -98q36 0 80.5 73t59.5 148l20 102q-12 13 -41 13q-59 0 -114.5 -76.5t-55.5 -161.5zM214 503.5q-1 7.5 0 12.5l62 51q37 30 54 51q9 9 11 9q3 0 9 -9q24 -39 28 -44 q9 -12 21.5 -26.5t19.5 -22.5t7 -9q-5 -20 -13 -20q-17 0 -86 58q-26 -18 -62.5 -38t-44.5 -20q-5 0 -6 7.5z" />
<glyph unicode="&#xe3;" horiz-adv-x="440" d="M66 130q0 71 42.5 142.5t109.5 117t134 45.5q38 0 73 -13l-61 -316q-3 -12 -3 -25q0 -25 10 -25q6 0 14.5 5.5t17 13.5t15.5 15.5t13 13.5l6 7q2 0 7.5 -9.5t5.5 -13.5q-13 -22 -54 -58t-72 -36q-16 0 -25 14.5t-9 37.5q0 17 7 53q2 11 3.5 17.5t1.5 8.5 q-10 -18 -23 -36.5t-33 -41.5t-42.5 -37.5t-42.5 -14.5q-44 0 -69.5 39.5t-25.5 95.5zM140 151q0 -98 51 -98q36 0 80.5 73t59.5 148l20 102q-12 13 -41 13q-59 0 -114.5 -76.5t-55.5 -161.5zM171 511q0 25 28.5 57t64.5 32q28 0 66 -26.5t66 -26.5q10 0 24 11t24.5 22 t11.5 11q4 0 4 -9q0 -23 -26.5 -54.5t-63.5 -31.5q-28 0 -66.5 26.5t-66.5 26.5q-14 0 -37 -22t-24 -22q-5 0 -5 6z" />
<glyph unicode="&#xe4;" horiz-adv-x="440" d="M66 130q0 71 42.5 142.5t109.5 117t134 45.5q38 0 73 -13l-61 -316q-3 -12 -3 -25q0 -25 10 -25q6 0 14.5 5.5t17 13.5t15.5 15.5t13 13.5l6 7q2 0 7.5 -9.5t5.5 -13.5q-13 -22 -54 -58t-72 -36q-16 0 -25 14.5t-9 37.5q0 17 7 53q2 11 3.5 17.5t1.5 8.5 q-10 -18 -23 -36.5t-33 -41.5t-42.5 -37.5t-42.5 -14.5q-44 0 -69.5 39.5t-25.5 95.5zM140 151q0 -98 51 -98q36 0 80.5 73t59.5 148l20 102q-12 13 -41 13q-59 0 -114.5 -76.5t-55.5 -161.5zM181 551q0 23 14.5 39.5t36.5 16.5q15 0 26 -12t11 -28q0 -24 -15.5 -42 t-38.5 -18q-16 0 -25 13t-9 31zM350 551q0 23 14.5 39.5t36.5 16.5q15 0 26 -12t11 -28q0 -24 -15.5 -42t-38.5 -18q-16 0 -25 13t-9 31z" />
<glyph unicode="&#xe5;" horiz-adv-x="440" d="M66 130q0 71 42.5 142.5t109.5 117t134 45.5q38 0 73 -13l-61 -316q-3 -12 -3 -25q0 -25 10 -25q6 0 14.5 5.5t17 13.5t15.5 15.5t13 13.5l6 7q2 0 7.5 -9.5t5.5 -13.5q-13 -22 -54 -58t-72 -36q-16 0 -25 14.5t-9 37.5q0 17 7 53q2 11 3.5 17.5t1.5 8.5 q-10 -18 -23 -36.5t-33 -41.5t-42.5 -37.5t-42.5 -14.5q-44 0 -69.5 39.5t-25.5 95.5zM140 151q0 -98 51 -98q36 0 80.5 73t59.5 148l20 102q-12 13 -41 13q-59 0 -114.5 -76.5t-55.5 -161.5zM243 586q7 37 36.5 63t63.5 26t52.5 -26t10.5 -63t-36.5 -63.5t-61.5 -26.5 q-34 0 -53 26.5t-12 63.5zM274 586q-4 -23 7.5 -39.5t32.5 -16.5t39.5 16.5t22.5 39.5t-7.5 39t-32.5 16t-39.5 -16t-22.5 -39z" />
<glyph unicode="&#xe6;" horiz-adv-x="560" d="M40 65q0 41 23.5 74.5t60.5 53.5t69 31t64 17q8 2 11 16l17 83q1 3 1 16q0 18 -14 30t-33 12q-26 0 -48 -23t-29 -59q-6 -34 -49 -34q-26 0 -26 13q0 38 63.5 89.5t125.5 51.5q72 0 78 -55q57 54 130 54q70 0 70 -79q0 -57 -80.5 -105t-136.5 -48q-11 0 -11 -19 q0 -65 22 -96.5t55 -31.5q20 0 42 17t36 34t15 17t3 -3.5t4.5 -9t2.5 -9.5q-8 -24 -50 -65t-82 -41q-31 0 -61.5 23t-43.5 56q-17 -33 -49.5 -57.5t-81.5 -24.5q-36 0 -67 19t-31 53zM119 90q0 -21 12 -35.5t31 -14.5q35 0 57 33.5t29 71.5l8 46q-45 -8 -75 -22.5t-42 -30.5 t-16 -26.5t-4 -21.5zM334 255q0 -6 7 -6q23 0 55 10.5t60.5 35.5t28.5 57q0 42 -25 42q-42 0 -84 -50t-42 -89z" />
<glyph unicode="&#xe7;" horiz-adv-x="326" d="M68 146q0 96 73 192.5t149 96.5q47 0 87 -34q3 -12 3 -20q0 -19 -9.5 -31t-25.5 -12t-33 28t-34 28q-43 0 -89.5 -69.5t-46.5 -162.5q0 -106 66 -106q8 0 15.5 2t14.5 5t14 6.5t13 8.5t11.5 9t10 8.5t7 7.5t4.5 5l3 3q2 0 7.5 -9.5t5.5 -13.5q-14 -24 -56 -59t-83 -35 q-52 0 -79.5 40.5t-27.5 111.5zM97 -129q0 10 5.5 14.5t9.5 4.5q5 0 14.5 -6.5t17.5 -6.5q20 0 34 11.5t14 29.5q0 13 -7 19.5t-17 6.5q-7 0 -25 -7q-2 0 -4.5 4t-2.5 7q0 2 4.5 7.5t15 18.5t20.5 27h19l-20 -23h22q15 0 24 -11t9 -27q0 -31 -28.5 -59t-75.5 -28 q-18 0 -29 9v9z" />
<glyph unicode="&#xe8;" horiz-adv-x="359" d="M70 146q0 96 73 192.5t149 96.5q46 0 66.5 -23.5t20.5 -51.5q0 -44 -45 -87t-98.5 -66.5t-86.5 -23.5q-4 0 -4 -35q0 -45 17.5 -68.5t47.5 -23.5q8 0 15.5 2t14.5 5t14 6.5t13 8.5t11.5 9t10 8.5t7 7.5t4.5 5l3 3q2 0 7.5 -9.5t5.5 -13.5q-14 -24 -56 -59t-83 -35 q-52 0 -79.5 40.5t-27.5 111.5zM145 612q0 15 16.5 21.5t32.5 6.5q15 0 20 -5q2 -2 15.5 -16t28 -29.5t29.5 -32.5t25 -29t10 -14q0 -6 -4.5 -12t-8.5 -6q-16 0 -90 47.5t-74 68.5zM152 222q0 -4 4 -4q36 0 93.5 48t57.5 98q0 30 -25 30q-47 0 -88.5 -67.5t-41.5 -104.5z " />
<glyph unicode="&#xe9;" horiz-adv-x="359" d="M70 146q0 96 73 192.5t149 96.5q46 0 66.5 -23.5t20.5 -51.5q0 -44 -45 -87t-98.5 -66.5t-86.5 -23.5q-4 0 -4 -35q0 -45 17.5 -68.5t47.5 -23.5q8 0 15.5 2t14.5 5t14 6.5t13 8.5t11.5 9t10 8.5t7 7.5t4.5 5l3 3q2 0 7.5 -9.5t5.5 -13.5q-14 -24 -56 -59t-83 -35 q-52 0 -79.5 40.5t-27.5 111.5zM152 222q0 -4 4 -4q36 0 93.5 48t57.5 98q0 30 -25 30q-47 0 -88.5 -67.5t-41.5 -104.5zM302 508q0 7 42.5 55t72.5 71q8 5 26 5q39 0 39 -24q0 -22 -80.5 -70.5t-92.5 -48.5q-2 0 -4.5 4t-2.5 8z" />
<glyph unicode="&#xea;" horiz-adv-x="359" d="M70 146q0 96 73 192.5t149 96.5q46 0 66.5 -23.5t20.5 -51.5q0 -44 -45 -87t-98.5 -66.5t-86.5 -23.5q-4 0 -4 -35q0 -45 17.5 -68.5t47.5 -23.5q8 0 15.5 2t14.5 5t14 6.5t13 8.5t11.5 9t10 8.5t7 7.5t4.5 5l3 3q2 0 7.5 -9.5t5.5 -13.5q-14 -24 -56 -59t-83 -35 q-52 0 -79.5 40.5t-27.5 111.5zM152 222q0 -4 4 -4q36 0 93.5 48t57.5 98q0 30 -25 30q-47 0 -88.5 -67.5t-41.5 -104.5zM207 503.5q-1 7.5 0 12.5l62 51q37 30 54 51q9 9 11 9q3 0 9 -9q24 -39 28 -44q9 -12 21.5 -26.5t19.5 -22.5t7 -9q-5 -20 -13 -20q-17 0 -86 58 q-26 -18 -62.5 -38t-44.5 -20q-5 0 -6 7.5z" />
<glyph unicode="&#xeb;" horiz-adv-x="359" d="M70 146q0 96 73 192.5t149 96.5q46 0 66.5 -23.5t20.5 -51.5q0 -44 -45 -87t-98.5 -66.5t-86.5 -23.5q-4 0 -4 -35q0 -45 17.5 -68.5t47.5 -23.5q8 0 15.5 2t14.5 5t14 6.5t13 8.5t11.5 9t10 8.5t7 7.5t4.5 5l3 3q2 0 7.5 -9.5t5.5 -13.5q-14 -24 -56 -59t-83 -35 q-52 0 -79.5 40.5t-27.5 111.5zM142 551q0 23 14.5 39.5t36.5 16.5q15 0 26 -12t11 -28q0 -24 -15.5 -42t-38.5 -18q-16 0 -25 13t-9 31zM152 222q0 -4 4 -4q36 0 93.5 48t57.5 98q0 30 -25 30q-47 0 -88.5 -67.5t-41.5 -104.5zM311 551q0 23 14.5 39.5t36.5 16.5 q15 0 26 -12t11 -28q0 -24 -15.5 -42t-38.5 -18q-16 0 -25 13t-9 31z" />
<glyph unicode="&#xec;" horiz-adv-x="216" d="M-2 326q9 26 43 67.5t67 41.5q57 0 57 -72q0 -25 -23 -143.5t-23 -130.5q0 -37 22 -37q9 0 24.5 18t27.5 36.5t13 18.5t3 -3.5t4.5 -9t2.5 -9.5q-9 -26 -43 -67.5t-67 -41.5q-56 0 -56 73q0 29 7 61l36 180q3 21 3 28q0 41 -28 41q-10 0 -34 -37l-25 -36q-1 0 -3 3.5 t-5 9t-3 9.5zM8 612q0 15 16.5 21.5t32.5 6.5q15 0 20 -5q2 -2 15.5 -16t28 -29.5t29.5 -32.5t25 -29t10 -14q0 -6 -4.5 -12t-8.5 -6q-16 0 -90 47.5t-74 68.5z" />
<glyph unicode="&#xed;" horiz-adv-x="216" d="M-2 326q9 26 43 67.5t67 41.5q57 0 57 -72q0 -25 -23 -143.5t-23 -130.5q0 -37 22 -37q9 0 24.5 18t27.5 36.5t13 18.5t3 -3.5t4.5 -9t2.5 -9.5q-9 -26 -43 -67.5t-67 -41.5q-56 0 -56 73q0 29 7 61l36 180q3 21 3 28q0 41 -28 41q-10 0 -34 -37l-25 -36q-1 0 -3 3.5 t-5 9t-3 9.5zM67 508q0 7 42.5 55t72.5 71q8 5 26 5q39 0 39 -24q0 -22 -80.5 -70.5t-92.5 -48.5q-2 0 -4.5 4t-2.5 8z" />
<glyph unicode="&#xee;" horiz-adv-x="216" d="M-2 326q9 26 43 67.5t67 41.5q57 0 57 -72q0 -25 -23 -143.5t-23 -130.5q0 -37 22 -37q9 0 24.5 18t27.5 36.5t13 18.5t3 -3.5t4.5 -9t2.5 -9.5q-9 -26 -43 -67.5t-67 -41.5q-56 0 -56 73q0 29 7 61l36 180q3 21 3 28q0 41 -28 41q-10 0 -34 -37l-25 -36q-1 0 -3 3.5 t-5 9t-3 9.5zM28 503.5q-1 7.5 0 12.5l62 51q37 30 54 51q9 9 11 9q3 0 9 -9q24 -39 28 -44q9 -12 21.5 -26.5t19.5 -22.5t7 -9q-5 -20 -13 -20q-17 0 -86 58q-26 -18 -62.5 -38t-44.5 -20q-5 0 -6 7.5z" />
<glyph unicode="&#xef;" horiz-adv-x="216" d="M-2 326q9 26 43 67.5t67 41.5q57 0 57 -72q0 -25 -23 -143.5t-23 -130.5q0 -37 22 -37q9 0 24.5 18t27.5 36.5t13 18.5t3 -3.5t4.5 -9t2.5 -9.5q-9 -26 -43 -67.5t-67 -41.5q-56 0 -56 73q0 29 7 61l36 180q3 21 3 28q0 41 -28 41q-10 0 -34 -37l-25 -36q-1 0 -3 3.5 t-5 9t-3 9.5zM43 551q0 23 14.5 39.5t36.5 16.5q15 0 26 -12t11 -28q0 -24 -15.5 -42t-38.5 -18q-16 0 -25 13t-9 31zM176 551q0 23 14.5 39.5t36.5 16.5q15 0 26 -12t11 -28q0 -24 -15.5 -42t-38.5 -18q-16 0 -25 13t-9 31z" />
<glyph unicode="&#xf0;" horiz-adv-x="384" d="M72 217q17 86 77 153.5t136 67.5q50 0 68 -31q4 165 -171 257q1 6 7 15t11 9q115 -32 181 -148.5t32 -289.5q-22 -112 -79 -184.5t-124 -72.5q-86 0 -120.5 67t-17.5 157zM150 224q-14 -74 4 -133t57 -59q87 0 123 185q15 74 2 115q-21 66 -69 66q-42 0 -72 -49t-45 -125 zM185 541l250 164q16 -25 10 -31l-251 -165q-15 26 -9 32z" />
<glyph unicode="&#xf1;" horiz-adv-x="492" d="M85 349q12 20 50.5 53t64.5 33q16 0 25 -14.5t9 -37.5q0 -22 -6 -53l-18 -92q10 18 43.5 62t82 89.5t78.5 45.5q50 0 50 -66q0 -45 -14 -109l-33 -154q-3 -12 -3 -25q0 -25 10 -25q6 0 14.5 5.5t17 13.5t15.5 15.5t13 13.5l6 7q2 0 7.5 -9.5t5.5 -13.5q-13 -22 -54 -58 t-72 -36q-16 0 -25 14.5t-9 37.5q0 16 7 53l35 165q7 33 7 54q0 43 -19 43q-33 0 -102.5 -90.5t-89.5 -192.5l-17 -78q-13 -4 -31 -4t-34 4l59 308q5 36 5 40q0 25 -10 25q-4 0 -11 -4.5t-14.5 -11.5t-13.5 -13t-11 -12l-5 -6q-2 0 -7.5 9.5t-5.5 13.5zM189 511 q0 25 28.5 57t64.5 32q28 0 66 -26.5t66 -26.5q10 0 24 11t24.5 22t11.5 11q4 0 4 -9q0 -23 -26.5 -54.5t-63.5 -31.5q-28 0 -66.5 26.5t-66.5 26.5q-14 0 -37 -22t-24 -22q-5 0 -5 6z" />
<glyph unicode="&#xf2;" horiz-adv-x="412" d="M68 145q0 104 72 197t148 93q59 0 91.5 -41t32.5 -113q0 -103 -72.5 -194.5t-148.5 -91.5q-60 0 -91.5 39t-31.5 111zM132 612q0 15 16.5 21.5t32.5 6.5q15 0 20 -5q2 -2 15.5 -16t28 -29.5t29.5 -32.5t25 -29t10 -14q0 -6 -4.5 -12t-8.5 -6q-16 0 -90 47.5t-74 68.5z M144 158q0 -58 18.5 -90t46.5 -32q50 0 88.5 78.5t38.5 158.5q0 59 -16 90t-44 31q-50 0 -91 -78.5t-41 -157.5z" />
<glyph unicode="&#xf3;" horiz-adv-x="412" d="M68 145q0 104 72 197t148 93q59 0 91.5 -41t32.5 -113q0 -103 -72.5 -194.5t-148.5 -91.5q-60 0 -91.5 39t-31.5 111zM144 158q0 -58 18.5 -90t46.5 -32q50 0 88.5 78.5t38.5 158.5q0 59 -16 90t-44 31q-50 0 -91 -78.5t-41 -157.5zM231 508q0 7 42.5 55t72.5 71 q8 5 26 5q39 0 39 -24q0 -22 -80.5 -70.5t-92.5 -48.5q-2 0 -4.5 4t-2.5 8z" />
<glyph unicode="&#xf4;" horiz-adv-x="412" d="M68 145q0 104 72 197t148 93q59 0 91.5 -41t32.5 -113q0 -103 -72.5 -194.5t-148.5 -91.5q-60 0 -91.5 39t-31.5 111zM144 158q0 -58 18.5 -90t46.5 -32q50 0 88.5 78.5t38.5 158.5q0 59 -16 90t-44 31q-50 0 -91 -78.5t-41 -157.5zM194 503.5q-1 7.5 0 12.5l62 51 q37 30 54 51q9 9 11 9q3 0 9 -9q24 -39 28 -44q9 -12 21.5 -26.5t19.5 -22.5t7 -9q-5 -20 -13 -20q-17 0 -86 58q-26 -18 -62.5 -38t-44.5 -20q-5 0 -6 7.5z" />
<glyph unicode="&#xf5;" horiz-adv-x="412" d="M68 145q0 104 72 197t148 93q59 0 91.5 -41t32.5 -113q0 -103 -72.5 -194.5t-148.5 -91.5q-60 0 -91.5 39t-31.5 111zM139 511q0 25 28.5 57t64.5 32q28 0 66 -26.5t66 -26.5q10 0 24 11t24.5 22t11.5 11q4 0 4 -9q0 -23 -26.5 -54.5t-63.5 -31.5q-28 0 -66.5 26.5 t-66.5 26.5q-14 0 -37 -22t-24 -22q-5 0 -5 6zM144 158q0 -58 18.5 -90t46.5 -32q50 0 88.5 78.5t38.5 158.5q0 59 -16 90t-44 31q-50 0 -91 -78.5t-41 -157.5z" />
<glyph unicode="&#xf6;" horiz-adv-x="412" d="M68 145q0 104 72 197t148 93q59 0 91.5 -41t32.5 -113q0 -103 -72.5 -194.5t-148.5 -91.5q-60 0 -91.5 39t-31.5 111zM144 158q0 -58 18.5 -90t46.5 -32q50 0 88.5 78.5t38.5 158.5q0 59 -16 90t-44 31q-50 0 -91 -78.5t-41 -157.5zM165 551q0 23 14.5 39.5t36.5 16.5 q15 0 26 -12t11 -28q0 -24 -15.5 -42t-38.5 -18q-16 0 -25 13t-9 31zM334 551q0 23 14.5 39.5t36.5 16.5q15 0 26 -12t11 -28q0 -24 -15.5 -42t-38.5 -18q-16 0 -25 13t-9 31z" />
<glyph unicode="&#xf7;" horiz-adv-x="458" d="M0 224q0 26 22 54h430q4 0 4 -9q0 -31 -21 -54h-430q-5 0 -5 9zM148 48q0 23 14.5 39.5t36.5 16.5q15 0 25.5 -12t10.5 -28q0 -24 -15 -42t-38 -18q-16 0 -25 13t-9 31zM222 434q0 23 14.5 39.5t36.5 16.5q15 0 26 -12t11 -28q0 -24 -15.5 -42t-38.5 -18q-16 0 -25 13 t-9 31z" />
<glyph unicode="&#xf8;" horiz-adv-x="391" d="M69 163q0 106 65.5 189t143.5 83q58 0 93.5 -47t35.5 -121q0 -106 -65 -189t-143 -83q-58 0 -94 47t-36 121zM78 20l308 399q24 -12 19 -19l-308 -400q-24 12 -19 20zM143 172q0 -61 19.5 -99.5t52.5 -38.5q50 0 84 73.5t34 151.5q0 60 -20 99t-52 39q-50 0 -84 -73.5 t-34 -151.5z" />
<glyph unicode="&#xf9;" horiz-adv-x="472" d="M75 349q12 20 50.5 53t64.5 33q16 0 25 -14.5t9 -37.5q0 -27 -6 -53l-35 -165q-7 -29 -7 -54q0 -43 19 -43q14 0 40 23.5t54.5 61t54 91.5t35.5 107l17 78q13 4 31 4t34 -4l-62 -323q-3 -12 -3 -25q0 -25 10 -25q6 0 14.5 5.5t17 13.5t15.5 15.5t13 13.5l6 7 q2 0 7.5 -9.5t5.5 -13.5q-13 -22 -54 -58t-72 -36q-16 0 -25 14.5t-9 37.5q0 16 7 53l18 92q-10 -19 -41 -62t-78 -89t-77 -46q-50 0 -50 66q0 46 14 109l30 139q5 36 5 40q0 25 -10 25q-4 0 -11 -4.5t-14.5 -11.5t-13.5 -13t-11 -12l-5 -6q-2 0 -7.5 9.5t-5.5 13.5z M147 612q0 15 16.5 21.5t32.5 6.5q15 0 20 -5q2 -2 15.5 -16t28 -29.5t29.5 -32.5t25 -29t10 -14q0 -6 -4.5 -12t-8.5 -6q-16 0 -90 47.5t-74 68.5z" />
<glyph unicode="&#xfa;" horiz-adv-x="472" d="M75 349q12 20 50.5 53t64.5 33q16 0 25 -14.5t9 -37.5q0 -27 -6 -53l-35 -165q-7 -29 -7 -54q0 -43 19 -43q14 0 40 23.5t54.5 61t54 91.5t35.5 107l17 78q13 4 31 4t34 -4l-62 -323q-3 -12 -3 -25q0 -25 10 -25q6 0 14.5 5.5t17 13.5t15.5 15.5t13 13.5l6 7 q2 0 7.5 -9.5t5.5 -13.5q-13 -22 -54 -58t-72 -36q-16 0 -25 14.5t-9 37.5q0 16 7 53l18 92q-10 -19 -41 -62t-78 -89t-77 -46q-50 0 -50 66q0 46 14 109l30 139q5 36 5 40q0 25 -10 25q-4 0 -11 -4.5t-14.5 -11.5t-13.5 -13t-11 -12l-5 -6q-2 0 -7.5 9.5t-5.5 13.5z M256 508q0 7 42.5 55t72.5 71q8 5 26 5q39 0 39 -24q0 -22 -80.5 -70.5t-92.5 -48.5q-2 0 -4.5 4t-2.5 8z" />
<glyph unicode="&#xfb;" horiz-adv-x="472" d="M75 349q12 20 50.5 53t64.5 33q16 0 25 -14.5t9 -37.5q0 -27 -6 -53l-35 -165q-7 -29 -7 -54q0 -43 19 -43q14 0 40 23.5t54.5 61t54 91.5t35.5 107l17 78q13 4 31 4t34 -4l-62 -323q-3 -12 -3 -25q0 -25 10 -25q6 0 14.5 5.5t17 13.5t15.5 15.5t13 13.5l6 7 q2 0 7.5 -9.5t5.5 -13.5q-13 -22 -54 -58t-72 -36q-16 0 -25 14.5t-9 37.5q0 16 7 53l18 92q-10 -19 -41 -62t-78 -89t-77 -46q-50 0 -50 66q0 46 14 109l30 139q5 36 5 40q0 25 -10 25q-4 0 -11 -4.5t-14.5 -11.5t-13.5 -13t-11 -12l-5 -6q-2 0 -7.5 9.5t-5.5 13.5z M167 503.5q-1 7.5 0 12.5l62 51q37 30 54 51q9 9 11 9q3 0 9 -9q24 -39 28 -44q9 -12 21.5 -26.5t19.5 -22.5t7 -9q-5 -20 -13 -20q-17 0 -86 58q-26 -18 -62.5 -38t-44.5 -20q-5 0 -6 7.5z" />
<glyph unicode="&#xfc;" horiz-adv-x="472" d="M75 349q12 20 50.5 53t64.5 33q16 0 25 -14.5t9 -37.5q0 -27 -6 -53l-35 -165q-7 -29 -7 -54q0 -43 19 -43q14 0 40 23.5t54.5 61t54 91.5t35.5 107l17 78q13 4 31 4t34 -4l-62 -323q-3 -12 -3 -25q0 -25 10 -25q6 0 14.5 5.5t17 13.5t15.5 15.5t13 13.5l6 7 q2 0 7.5 -9.5t5.5 -13.5q-13 -22 -54 -58t-72 -36q-16 0 -25 14.5t-9 37.5q0 16 7 53l18 92q-10 -19 -41 -62t-78 -89t-77 -46q-50 0 -50 66q0 46 14 109l30 139q5 36 5 40q0 25 -10 25q-4 0 -11 -4.5t-14.5 -11.5t-13.5 -13t-11 -12l-5 -6q-2 0 -7.5 9.5t-5.5 13.5z M184 551q0 23 14.5 39.5t36.5 16.5q15 0 26 -12t11 -28q0 -24 -15.5 -42t-38.5 -18q-16 0 -25 13t-9 31zM353 551q0 23 14.5 39.5t36.5 16.5q15 0 26 -12t11 -28q0 -24 -15.5 -42t-38.5 -18q-16 0 -25 13t-9 31z" />
<glyph unicode="&#xfd;" horiz-adv-x="479" d="M-27 -192q0 32 23 44q22 -13 67 -13q83 0 144 89q23 34 23 134q0 49 -2.5 97.5t-9 99.5t-19 82.5t-29.5 31.5q-9 0 -27 -17t-28 -30q-2 0 -7.5 9.5t-5.5 13.5q6 15 47.5 50.5t66.5 35.5q30 0 49.5 -51t26.5 -133.5t9 -129t2 -93.5q39 48 78 122.5t39 134.5q0 59 -25 107 q13 43 50 43q44 0 44 -79q0 -110 -86 -252.5t-194.5 -239.5t-175.5 -97q-26 0 -43 12t-17 29zM319 508q0 7 42.5 55t72.5 71q8 5 26 5q39 0 39 -24q0 -22 -80.5 -70.5t-92.5 -48.5q-2 0 -4.5 4t-2.5 8z" />
<glyph unicode="&#xfe;" horiz-adv-x="473" d="M-18 -227l5 28q9 0 29 7.5t23 14.5q15 36 26 90l121 626q10 55 10 77q-1 12 -27.5 14.5t-26.5 3.5q0 2 2 6q0 2 3 9t6 7q83 9 128 38h2q3 0 6 -6t3 -10q-18 -32 -28 -87l-37 -192l-1 -2v-3t1 -1q65 44 102 45q71 0 106 -41.5t35 -107.5q0 -106 -73.5 -205t-173.5 -99 q-43 0 -71 15q-2 -4 -4 -12l-15 -75q-13 -67 -13 -85v-5q0 -7 17 -14.5t25 -7.5q1 0 1 -4q0 -14 -5 -24q-11 1 -38 3.5t-47 2.5q-21 0 -50.5 -2.5t-40.5 -3.5zM166 79q0 -24 26.5 -38t59.5 -14q41 0 73 43t46.5 96.5t14.5 98.5q0 116 -108 116q-22 0 -41.5 -15.5 t-23.5 -39.5l-46 -239q-1 -3 -1 -8z" />
<glyph unicode="&#xff;" horiz-adv-x="479" d="M-27 -192q0 32 23 44q22 -13 67 -13q83 0 144 89q23 34 23 134q0 49 -2.5 97.5t-9 99.5t-19 82.5t-29.5 31.5q-9 0 -27 -17t-28 -30q-2 0 -7.5 9.5t-5.5 13.5q6 15 47.5 50.5t66.5 35.5q30 0 49.5 -51t26.5 -133.5t9 -129t2 -93.5q39 48 78 122.5t39 134.5q0 59 -25 107 q13 43 50 43q44 0 44 -79q0 -110 -86 -252.5t-194.5 -239.5t-175.5 -97q-26 0 -43 12t-17 29zM183 551q0 23 14.5 39.5t36.5 16.5q15 0 26 -12t11 -28q0 -24 -15.5 -42t-38.5 -18q-16 0 -25 13t-9 31zM352 551q0 23 14.5 39.5t36.5 16.5q15 0 26 -12t11 -28q0 -24 -15.5 -42 t-38.5 -18q-16 0 -25 13t-9 31z" />
<glyph unicode="&#x152;" horiz-adv-x="935" d="M32 259q0 104 55 199.5t141 152t176 56.5q38 0 130 -5.5t121 -5.5q41 0 141 4t152 4q-1 -14 -1 -39q0 -17 1 -49t1 -48q-5 -5 -18 -5q-12 0 -12 7q-3 56 -26 71t-73 15h-54q-71 0 -76 -13q-11 -30 -18 -67l-32 -175q0 -3 2.5 -4.5t8.5 -2l12 -1t14 -0.5h45q66 0 82 9.5 t39 61.5q3 7 14 7q12 0 15 -5l-37 -192q-6 -4 -14 -4q-13 0 -14 8q-1 27 -4 40.5t-4.5 16t-6.5 6.5q-10 8 -97 8q-66 0 -68 -9l-29 -148q-11 -53 -11 -87q0 -15 8 -18t53 -3h45q87 0 121 17q16 8 37.5 35.5t40.5 65.5q3 6 15 6q17 0 21 -6q-70 -130 -82 -166q-53 0 -165 3.5 t-152 3.5q-76 0 -107 -2q-22 -1 -56 -4t-58.5 -5t-39.5 -2q-107 0 -171.5 76.5t-64.5 192.5zM123 267q0 -102 44.5 -168t126.5 -66q64 0 102 10t78 47q7 6 13.5 16t12.5 25.5t11 28.5t10.5 35t9 35.5t9 39t7.5 36t7 36t6 30.5q0 2 4 22t5 25.5t4 24.5t3.5 27.5t2 25t0 26 t-3 22t-5.5 22t-10 17.5q-6 7 -13 13.5t-17 10.5t-19 7t-22 5t-21.5 3t-23.5 1.5t-21.5 0.5h-22h-19.5q-108 0 -183 -111.5t-75 -246.5z" />
<glyph unicode="&#x153;" horiz-adv-x="587" d="M27 158q0 102 69.5 189.5t154.5 87.5q77 0 105 -90q73 90 156 90q70 0 70 -79q0 -39 -43 -81t-95.5 -67t-84.5 -25q-4 0 -4 -9q0 -118 76 -118q20 0 42 17t36 34t15 17t3 -3.5t4.5 -9t2.5 -9.5q-8 -24 -50 -65t-82 -41q-33 0 -62 22t-45 61q-68 -84 -154 -84 q-56 0 -85 48t-29 115zM102 170q0 -135 65 -135q47 0 86 75.5t39 155.5q0 27 -1.5 45t-7 40t-18.5 33.5t-33 11.5q-51 0 -90.5 -74.5t-39.5 -151.5zM362 224q0 -6 7 -6q35 0 89.5 43.5t54.5 90.5q0 44 -21 44q-44 0 -87 -68t-43 -104z" />
<glyph unicode="&#x178;" horiz-adv-x="593" d="M120 636q0 17 7 22q12 -1 51 -3.5t66 -2.5q10 0 124 6v-5q0 -22 -7 -22q-15 0 -39 -10.5t-24 -31.5q0 -10 4 -22l69 -212q13 17 45.5 59t50 65.5t39.5 53.5t32 46t10 21q-1 13 -21.5 22t-40.5 9q-2 0 -2 6q0 16 7 21q8 0 40 -3t52 -3q5 0 119 6q1 -2 1 -5q0 -22 -7 -22 q-10 0 -39.5 -9.5t-41.5 -21.5t-120.5 -158.5t-110.5 -156.5l-28 -146q-11 -55 -11 -90q0 -8 13.5 -14.5t27.5 -8.5l13 -2q2 0 2 -4q0 -11 -6 -23q-93 5 -104 5q-3 0 -111 -5q-1 1 -1 7q0 20 7 20q11 0 35 7t29 15q12 21 25 90l26 142q1 4 -20 70.5t-43 131.5l-21 65 q-15 46 -39 64q-10 7 -29 14.5t-27 7.5q-2 0 -2 5zM308 778q4 21 20 35.5t36 14.5q19 0 30 -14.5t7 -35.5t-20.5 -35.5t-36.5 -14.5q-19 0 -29.5 14.5t-6.5 35.5zM476 778q4 21 20 35.5t36 14.5q19 0 30 -14.5t7 -35.5t-20 -35.5t-36 -14.5q-19 0 -30 14.5t-7 35.5z" />
<glyph unicode="&#x2c6;" horiz-adv-x="460" d="M698 713.5q-1 7.5 0 12.5l62 51q37 30 54 51q9 9 11 9q3 0 9 -9q24 -39 28 -44q9 -12 21.5 -26.5t19.5 -22.5t7 -9q-5 -20 -13 -20q-17 0 -86 58q-26 -18 -62.5 -38t-44.5 -20q-5 0 -6 7.5z" />
<glyph unicode="&#x2dc;" horiz-adv-x="460" d="M629 729q0 25 28.5 57t64.5 32q28 0 66 -26.5t66 -26.5q10 0 24 11t24.5 22t11.5 11q4 0 4 -9q0 -23 -26.5 -54.5t-63.5 -31.5q-28 0 -66.5 26.5t-66.5 26.5q-14 0 -37 -22t-24 -22q-5 0 -5 6z" />
<glyph unicode="&#x2000;" horiz-adv-x="429" />
<glyph unicode="&#x2001;" horiz-adv-x="858" />
<glyph unicode="&#x2002;" horiz-adv-x="429" />
<glyph unicode="&#x2003;" horiz-adv-x="858" />
<glyph unicode="&#x2004;" horiz-adv-x="286" />
<glyph unicode="&#x2005;" horiz-adv-x="214" />
<glyph unicode="&#x2006;" horiz-adv-x="143" />
<glyph unicode="&#x2007;" horiz-adv-x="143" />
<glyph unicode="&#x2008;" horiz-adv-x="107" />
<glyph unicode="&#x2009;" horiz-adv-x="171" />
<glyph unicode="&#x200a;" horiz-adv-x="47" />
<glyph unicode="&#x2010;" horiz-adv-x="295" d="M19 214q0 10 7 28t14 19l227 12q6 0 6 -12q0 -11 -8 -30.5t-15 -20.5l-226 -11q-5 0 -5 15z" />
<glyph unicode="&#x2011;" horiz-adv-x="295" d="M19 214q0 10 7 28t14 19l227 12q6 0 6 -12q0 -11 -8 -30.5t-15 -20.5l-226 -11q-5 0 -5 15z" />
<glyph unicode="&#x2012;" horiz-adv-x="295" d="M19 214q0 10 7 28t14 19l227 12q6 0 6 -12q0 -11 -8 -30.5t-15 -20.5l-226 -11q-5 0 -5 15z" />
<glyph unicode="&#x2013;" horiz-adv-x="486" d="M64 213q0 11 7 27.5t15 21.5h416q6 0 6 -13q0 -11 -7 -27.5t-15 -21.5h-416q-6 0 -6 13z" />
<glyph unicode="&#x2014;" horiz-adv-x="724" d="M64 213q0 11 7 27.5t15 21.5h652q6 0 6 -13q0 -11 -7 -27.5t-15 -21.5h-652q-6 0 -6 13z" />
<glyph unicode="&#x2018;" horiz-adv-x="148" d="M122 555q8 42 40 79.5t58.5 54.5t33.5 17q11 0 14 -18q-28 -16 -48.5 -37.5t-26.5 -33.5t-8 -20q-2 -13 13 -35.5t12 -36.5q-4 -18 -25 -30.5t-44 -12.5q-9 0 -18 3q-10 23 -1 70z" />
<glyph unicode="&#x2019;" horiz-adv-x="148" d="M114 502q28 16 48.5 37.5t27 34t8.5 19.5q2 13 -12.5 35.5t-11.5 36.5q4 18 24.5 30.5t43.5 12.5q9 0 18 -3q10 -21 0 -70q-8 -42 -40 -79.5t-58 -54.5t-33 -17q-12 0 -15 18z" />
<glyph unicode="&#x201a;" horiz-adv-x="148" d="M1 -80q28 16 48.5 37.5t27 34t8.5 19.5q2 13 -13 35.5t-12 36.5q4 18 25 30.5t44 12.5q9 0 18 -3q10 -21 0 -70q-8 -42 -40 -79.5t-58 -54t-33 -16.5q-12 0 -15 17z" />
<glyph unicode="&#x201c;" horiz-adv-x="286" d="M122 555q8 42 40 79.5t58.5 54.5t33.5 17q11 0 14 -18q-28 -16 -48.5 -37.5t-26.5 -33.5t-8 -20q-2 -13 13 -35.5t12 -36.5q-4 -18 -25 -30.5t-44 -12.5q-9 0 -18 3q-10 23 -1 70zM256 485q-10 21 0 70q8 42 40 79.5t58 54.5t33 17q12 0 15 -18q-28 -16 -48.5 -37.5 t-27 -34t-8.5 -19.5q-2 -13 13 -35.5t12 -36.5q-4 -18 -24.5 -30.5t-43.5 -12.5q-10 0 -19 3z" />
<glyph unicode="&#x201d;" horiz-adv-x="287" d="M114 502q28 16 48.5 37.5t27 34t8.5 19.5q2 13 -12.5 35.5t-11.5 36.5q4 18 24.5 30.5t43.5 12.5q9 0 18 -3q10 -21 0 -70q-8 -42 -40 -79.5t-58 -54.5t-33 -17q-12 0 -15 18zM248 502q28 16 48.5 37.5t26.5 33.5t8 20q2 13 -12.5 35.5t-11.5 36.5q4 18 24.5 30.5 t43.5 12.5q9 0 18 -3q10 -23 1 -70q-8 -42 -40 -79.5t-58.5 -54.5t-33.5 -17q-11 0 -14 18z" />
<glyph unicode="&#x201e;" horiz-adv-x="286" d="M1 -80q28 16 48.5 37.5t27 34t8.5 19.5q2 13 -13 35.5t-12 36.5q4 18 25 30.5t44 12.5q9 0 18 -3q10 -21 0 -70q-8 -42 -40 -79.5t-58 -54t-33 -16.5q-12 0 -15 17zM134 -82q28 16 48.5 37.5t26.5 33.5t8 20q2 13 -12.5 35.5t-11.5 36.5q4 18 25 30.5t44 12.5q9 0 18 -3 q10 -21 0 -70q-8 -42 -40 -79.5t-58 -54t-33 -16.5q-12 0 -15 17z" />
<glyph unicode="&#x2022;" horiz-adv-x="376" d="M138 263q8 44 44 76t77 32t64 -32t15 -76t-44 -76t-77 -32t-64 32t-15 76z" />
<glyph unicode="&#x2026;" horiz-adv-x="648" d="M45 32q0 28 19.5 49t44.5 21q19 0 31.5 -12.5t12.5 -32.5q0 -27 -20.5 -49t-45.5 -22q-19 0 -30.5 13t-11.5 33zM282 32q0 28 19.5 49t44.5 21q19 0 31.5 -12.5t12.5 -32.5q0 -27 -20.5 -49t-45.5 -22q-19 0 -30.5 13t-11.5 33zM517 32q0 28 20 49t45 21q19 0 31.5 -12.5 t12.5 -32.5q0 -27 -21 -49t-46 -22q-19 0 -30.5 13t-11.5 33z" />
<glyph unicode="&#x202f;" horiz-adv-x="171" />
<glyph unicode="&#x2039;" horiz-adv-x="298" d="M87 237q0 18 13 31q61 35 117 74.5t77.5 57.5t26.5 23q19 -6 19 -16q0 -3 -1 -5.5t-4.5 -6l-7 -7t-10 -9.5t-12.5 -11t-16.5 -13.5t-19.5 -16.5q-15 -13 -55.5 -50.5t-43.5 -40.5l63 -90q9 -13 18 -24t13 -16.5t7.5 -10t4.5 -7t1 -5.5q0 -5 -3.5 -9t-6 -5.5t-9.5 -3.5 l-6 -3q-2 3 -15 18.5t-53 54.5t-93 81q-4 3 -4 10z" />
<glyph unicode="&#x203a;" horiz-adv-x="298" d="M58 88q0 3 1 6t4 6.5l6 7t9.5 9t12.5 10.5t16 13.5t19 16.5l99 90q-5 7 -29.5 43t-34.5 48q-44 57 -44 62q0 12 26 23q2 -4 17.5 -23t55.5 -58t87 -74q5 -8 5 -16q0 -20 -12 -25q-159 -97 -220 -154q-18 6 -18 15z" />
<glyph unicode="&#x205f;" horiz-adv-x="214" />
<glyph unicode="&#x20ac;" horiz-adv-x="614" d="M7 250q0 9 5.5 21t11.5 16h45q3 31 14 66h-49q-5 0 -5 10q0 9 5.5 21t11.5 16h55q46 99 132.5 166t190.5 67q64 0 201 -43q-17 -108 -19 -117q-3 -14 -22 -14q-9 0 -11 2q0 14 -1 25.5t-9.5 33t-23 36t-46 26t-74.5 11.5q-67 0 -132.5 -54t-101.5 -139h196q4 0 4 -10 q0 -9 -5.5 -21t-11.5 -16h-200q-10 -37 -13 -66h204q4 0 4 -10q0 -9 -5.5 -21t-11.5 -16h-193q2 -90 47 -146.5t133 -56.5q46 0 84 10.5t60.5 25.5t38.5 30.5t25 26t12 10.5q4 0 11.5 -8.5t7.5 -14.5q-25 -45 -87 -85q-57 -36 -171 -36q-109 0 -175.5 72t-71.5 172h-55 q-5 0 -5 10z" />
<glyph unicode="&#xe000;" horiz-adv-x="435" d="M0 0v435h435v-435h-435z" />
</font>
</defs>
</svg>
