<?xml version="1.0" standalone="no"?>
<!DOCTYPE svg PUBLIC "-//W3C//DTD SVG 1.1//EN" "http://www.w3.org/Graphics/SVG/1.1/DTD/svg11.dtd" >
<svg xmlns="http://www.w3.org/2000/svg">
<metadata></metadata>
<defs>
<font id="wide_awake_blackregular" horiz-adv-x="420" >
<font-face units-per-em="1000" ascent="800" descent="-200" />
<missing-glyph horiz-adv-x="500" />
<glyph horiz-adv-x="1000" />
<glyph horiz-adv-x="1000" />
<glyph unicode="&#xd;" horiz-adv-x="1000" />
<glyph unicode="!" horiz-adv-x="210" d="M78 270h150l95 540h-150zM41 60h150l26 150h-150z" />
<glyph unicode="&#x22;" d="M173 810h150l-42 -240h-150zM383 810h150l-42 -240h-150z" />
<glyph unicode="#" horiz-adv-x="660" d="M104 420l-11 -60h92q1 -8 1 -15q0 -6 1 -13l-87 -35l15 -54l86 35q3 -7 8 -14l-75 -63l35 -42l74 63q3 -3 6.5 -5.5t6.5 -4.5l-50 -80l50 -24l50 80q14 -5 26 -6l-16 -92h60l16 92q8 2 15 3t14 3l21 -80l58 24l-21 80q8 4 16 10l52 -63l49 42l-51 63l12 15l74 -36l33 54 l-73 36q3 7 5.5 13.5t4.5 13.5h92l11 60h-92q0 8 -0.5 14.5t-0.5 13.5l86 35l-14 54l-86 -35q-2 4 -4 7.5t-4 6.5l74 63l-35 42l-74 -63q-6 5 -13 10l50 80l-50 24l-50 -80q-12 4 -26 6l17 92h-60l-17 -92q-8 -2 -14.5 -3t-14.5 -3l-21 80l-58 -24l21 -80q-4 -2 -8 -5t-8 -5 l-52 63l-49 -42l52 -63q-4 -4 -7 -7.5t-6 -7.5l-73 36l-34 -54l74 -36q-4 -7 -6.5 -13.5t-4.5 -13.5h-92zM249 390q5 31 21.5 58.5t40.5 47.5t53.5 32t60.5 12t56.5 -12t42 -32t23.5 -47.5t2 -58.5q-6 -31 -22.5 -58.5t-40.5 -47.5t-53.5 -32t-60.5 -12t-56.5 12t-42 32 t-23.5 47.5t-1 58.5z" />
<glyph unicode="$" d="M245 30h-60l21 120h-150l27 150h210l10 60h-210l64 360h150l21 120h60l-21 -120h150l-26 -150h-210l-11 -60h210l-64 -360h-150z" />
<glyph unicode="%" horiz-adv-x="660" d="M104 420l-11 -60h92q1 -8 1 -15q0 -6 1 -13l-87 -35l15 -54l86 35q3 -7 8 -14l-75 -63l35 -42l74 63q3 -3 6.5 -5.5t6.5 -4.5l-50 -80l50 -24l50 80q14 -5 26 -6l-16 -92h60l16 92q8 2 15 3t14 3l21 -80l58 24l-21 80q8 4 16 10l52 -63l49 42l-51 63l12 15l74 -36l33 54 l-73 36q3 7 5.5 13.5t4.5 13.5h92l11 60h-92q0 8 -0.5 14.5t-0.5 13.5l86 35l-14 54l-86 -35q-2 4 -4 7.5t-4 6.5l74 63l-35 42l-74 -63q-6 5 -13 10l50 80l-50 24l-50 -80q-12 4 -26 6l17 92h-60l-17 -92q-8 -2 -14.5 -3t-14.5 -3l-21 80l-58 -24l21 -80q-4 -2 -8 -5t-8 -5 l-52 63l-49 -42l52 -63q-4 -4 -7 -7.5t-6 -7.5l-73 36l-34 -54l74 -36q-4 -7 -6.5 -13.5t-4.5 -13.5h-92zM249 390q5 31 21.5 58.5t40.5 47.5t53.5 32t60.5 12t56.5 -12t42 -32t23.5 -47.5t2 -58.5q-6 -31 -22.5 -58.5t-40.5 -47.5t-53.5 -32t-60.5 -12t-56.5 12t-42 32 t-23.5 47.5t-1 58.5z" />
<glyph unicode="&#x26;" horiz-adv-x="660" d="M104 420l-11 -60h92q1 -8 1 -15q0 -6 1 -13l-87 -35l15 -54l86 35q3 -7 8 -14l-75 -63l35 -42l74 63q3 -3 6.5 -5.5t6.5 -4.5l-50 -80l50 -24l50 80q14 -5 26 -6l-16 -92h60l16 92q8 2 15 3t14 3l21 -80l58 24l-21 80q8 4 16 10l52 -63l49 42l-51 63l12 15l74 -36l33 54 l-73 36q3 7 5.5 13.5t4.5 13.5h92l11 60h-92q0 8 -0.5 14.5t-0.5 13.5l86 35l-14 54l-86 -35q-2 4 -4 7.5t-4 6.5l74 63l-35 42l-74 -63q-6 5 -13 10l50 80l-50 24l-50 -80q-12 4 -26 6l17 92h-60l-17 -92q-8 -2 -14.5 -3t-14.5 -3l-21 80l-58 -24l21 -80q-4 -2 -8 -5t-8 -5 l-52 63l-49 -42l52 -63q-4 -4 -7 -7.5t-6 -7.5l-73 36l-34 -54l74 -36q-4 -7 -6.5 -13.5t-4.5 -13.5h-92zM249 390q5 31 21.5 58.5t40.5 47.5t53.5 32t60.5 12t56.5 -12t42 -32t23.5 -47.5t2 -58.5q-6 -31 -22.5 -58.5t-40.5 -47.5t-53.5 -32t-60.5 -12t-56.5 12t-42 32 t-23.5 47.5t-1 58.5z" />
<glyph unicode="'" horiz-adv-x="210" d="M173 810h150l-42 -240h-150z" />
<glyph unicode="(" horiz-adv-x="273" d="M201 120h60l-10 -60h-210l148 840h210l-11 -60h-60z" />
<glyph unicode=")" horiz-adv-x="273" d="M111 120h-60l-10 -60h210l148 840h-210l-11 -60h60z" />
<glyph unicode="*" horiz-adv-x="510" d="M109 371l160 64l-137 64l174 148l38 -148l90 148l122 -148l-159 -64l136 -64l-174 -148l-38 148l-90 -148z" />
<glyph unicode="+" horiz-adv-x="450" d="M192 240l21 120h-120l27 150h120l21 120h150l-21 -120h120l-27 -150h-120l-21 -120h-150z" />
<glyph unicode="," horiz-adv-x="208" d="M67 210h150l-48 -270h-60l-68 120z" />
<glyph unicode="-" d="M120 510h360l-27 -150h-360z" />
<glyph unicode="." horiz-adv-x="208" d="M67 210h150l-26 -150h-150z" />
<glyph unicode="/" horiz-adv-x="450" d="M57 60l334 750h150l-334 -750h-150z" />
<glyph unicode="0" d="M173 810h360l-132 -750h-360zM356 660h-60l-79 -450h60z" />
<glyph unicode="1" horiz-adv-x="210" d="M41 60l132 750h150l-132 -750h-150z" />
<glyph unicode="2" d="M173 810l-42 -240h150l15 90h60l-26 -150h-210l-79 -450h360l42 240h-150l-16 -90h-60l26 150h210l80 450h-360z" />
<glyph unicode="3" d="M41 60l47 270h150l-21 -120h60l32 180h-210l26 150h211l27 150h-61l-16 -90h-150l37 210h360l-132 -750h-360z" />
<glyph unicode="4" d="M383 810h150l-132 -750h-150l15 90h-210l117 660h150l-90 -510h60z" />
<glyph unicode="5" d="M533 810l-42 -240h-150l15 90h-60l-26 -150h210l-79 -450h-360l42 240h150l-16 -90h60l26 150h-210l80 450h360z" />
<glyph unicode="6" d="M41 60l132 750h360l-42 -240h-150l15 90h-60l-26 -150h210l-79 -450h-360zM243 360l-26 -150h60l26 150h-60z" />
<glyph unicode="7" d="M356 660h-60l-53 -301h-150l80 451h360l-132 -750h-150l15 90h-210l27 150h210z" />
<glyph unicode="8" d="M173 810h360l-61 -346h-150l-11 -60h150l-60 -344h-360l60 344h150l11 60h-150zM286 600h60l10 60h-60zM217 210h60l11 60h-60z" />
<glyph unicode="9" d="M533 810l-132 -750h-360l42 240h150l-16 -90h60l26 150h-210l80 450h360zM330 510l26 150h-60l-26 -150h60z" />
<glyph unicode=":" horiz-adv-x="208" d="M67 210h150l-26 -150h-150zM104 420h150l-26 -150h-150z" />
<glyph unicode=";" horiz-adv-x="208" d="M67 210h150l-48 -270h-60l-68 120zM104 420h150l-26 -150h-150z" />
<glyph unicode="&#x3c;" horiz-adv-x="331" d="M154 535l263 129l-16 -90l-197 -97l-10 -60l162 -97l-16 -91l-217 130z" />
<glyph unicode="=" d="M136 600h360l-27 -150h-360zM459 390l-27 -150h-360l27 150h360z" />
<glyph unicode="&#x3e;" horiz-adv-x="331" d="M394 535l-217 129l-16 -90l163 -97l-10 -60l-198 -97l-16 -91l263 130z" />
<glyph unicode="?" d="M173 810h360l-80 -450h-210l-15 -90h-150l42 240h210l26 150h-60l-15 -90h-150zM41 60l26 150h150l-26 -150h-150z" />
<glyph unicode="@" horiz-adv-x="660" d="M104 420l-11 -60h92q1 -8 1 -15q0 -6 1 -13l-87 -35l15 -54l86 35q3 -7 8 -14l-75 -63l35 -42l74 63q3 -3 6.5 -5.5t6.5 -4.5l-50 -80l50 -24l50 80q14 -5 26 -6l-16 -92h60l16 92q8 2 15 3t14 3l21 -80l58 24l-21 80q8 4 16 10l52 -63l49 42l-51 63l12 15l74 -36l33 54 l-73 36q3 7 5.5 13.5t4.5 13.5h92l11 60h-92q0 8 -0.5 14.5t-0.5 13.5l86 35l-14 54l-86 -35q-2 4 -4 7.5t-4 6.5l74 63l-35 42l-74 -63q-6 5 -13 10l50 80l-50 24l-50 -80q-12 4 -26 6l17 92h-60l-17 -92q-8 -2 -14.5 -3t-14.5 -3l-21 80l-58 -24l21 -80q-4 -2 -8 -5t-8 -5 l-52 63l-49 -42l52 -63q-4 -4 -7 -7.5t-6 -7.5l-73 36l-34 -54l74 -36q-4 -7 -6.5 -13.5t-4.5 -13.5h-92zM249 390q5 31 21.5 58.5t40.5 47.5t53.5 32t60.5 12t56.5 -12t42 -32t23.5 -47.5t2 -58.5q-6 -31 -22.5 -58.5t-40.5 -47.5t-53.5 -32t-60.5 -12t-56.5 12t-42 32 t-23.5 47.5t-1 58.5z" />
<glyph unicode="A" d="M173 810h360l-132 -750h-360l95 540h210l10 60h-210zM217 210h60l42 240h-60z" />
<glyph unicode="B" d="M323 810h210l-132 -750h-360l148 840h150zM217 210h60l79 450h-60z" />
<glyph unicode="C" d="M217 210h60l37 211h150l-63 -361h-360l132 750h360l-58 -330h-150l31 180h-60z" />
<glyph unicode="D" d="M383 810h-210l-132 -750h360l148 840h-150zM277 210h-60l79 450h60z" />
<glyph unicode="E" d="M401 60h-360l132 750h360l-95 -540h-210l-11 -60h210zM356 660h-60l-42 -240h60z" />
<glyph unicode="F" d="M173 810h360l-27 -150h-210l-10 -60h210l-27 -150h-210l-68 -390h-150z" />
<glyph unicode="G" d="M25 -30h360l148 840h-360l-111 -630h210l-11 -60h-210zM296 660h60l-58 -330h-60z" />
<glyph unicode="H" d="M191 60h-150l148 840h150l-16 -90h210l-132 -750h-150l105 600h-60z" />
<glyph unicode="I" horiz-adv-x="210" d="M152 690h150l-111 -630h-150zM189 900h150l-27 -150h-150z" />
<glyph unicode="J" horiz-adv-x="210" d="M152 690h150l-127 -720h-150zM189 900h150l-27 -150h-150z" />
<glyph unicode="K" d="M469 450l-68 -390h-150l42 240h-60l-42 -240h-150l148 840h150l-43 -240h61l27 150h149l-53 -300h-210l-11 -60h210z" />
<glyph unicode="L" horiz-adv-x="210" d="M41 60l148 840h150l-148 -840h-150z" />
<glyph unicode="M" horiz-adv-x="630" d="M173 810h570l-132 -750h-150l105 600h-60l-105 -600h-150l105 600h-60l-105 -600h-150z" />
<glyph unicode="N" d="M173 810h360l-132 -750h-150l105 600h-60l-105 -600h-150z" />
<glyph unicode="O" d="M173 810h360l-132 -750h-360zM356 660h-60l-79 -450h60z" />
<glyph unicode="P" d="M191 60h210l132 750h-360l-148 -840h150zM296 660h60l-79 -450h-60z" />
<glyph unicode="Q" d="M251 60h-210l132 750h360l-148 -840h-150zM356 660h-60l-79 -450h60z" />
<glyph unicode="R" d="M464 420h-210l-11 -60h210l-52 -300h-149l26 150h-61l-26 -150h-150l132 750h360zM341 570l15 90h-60l-15 -90h60z" />
<glyph unicode="S" d="M533 810l-42 -240h-150l15 90h-60l-26 -150h210l-79 -450h-360l42 240h150l-16 -90h60l26 150h-210l80 450h360z" />
<glyph unicode="T" d="M217 210h60l69 391h150l-95 -541h-360l148 840h150l-16 -90h210l-27 -150h-210z" />
<glyph unicode="U" d="M173 810h150l-106 -600h60l106 600h150l-132 -750h-360z" />
<glyph unicode="V" d="M533 810l-99 -560l-136 -190h-154l-70 190l99 560h150l-106 -600h60l106 600h150z" />
<glyph unicode="W" horiz-adv-x="630" d="M41 60h570l132 750h-150l-106 -600h-60l106 600h-150l-106 -600h-60l106 600h-150z" />
<glyph unicode="X" d="M173 810h150l-27 -150h61l27 150h149l-53 -300h-104l-11 -60h104l-68 -390h-150l42 240h-60l-42 -240h-150l68 390h105l11 60h-105z" />
<glyph unicode="Y" d="M323 810l-85 -480h60l85 480h150l-148 -840h-360l26 150h210l11 60h-210l111 630h150z" />
<glyph unicode="Z" d="M173 810l-42 -240h150l15 90h60l-26 -150h-210l-79 -450h360l42 240h-150l-16 -90h-60l26 150h210l80 450h-360z" />
<glyph unicode="[" horiz-adv-x="273" d="M201 120h60l-10 -60h-210l148 840h210l-11 -60h-60z" />
<glyph unicode="\" horiz-adv-x="450" d="M409 60l-70 750h-150l70 -750h150z" />
<glyph unicode="]" horiz-adv-x="273" d="M111 120h-60l-10 -60h210l148 840h-210l-11 -60h60z" />
<glyph unicode="^" horiz-adv-x="660" d="M104 420l-11 -60h92q1 -8 1 -15q0 -6 1 -13l-87 -35l15 -54l86 35q3 -7 8 -14l-75 -63l35 -42l74 63q3 -3 6.5 -5.5t6.5 -4.5l-50 -80l50 -24l50 80q14 -5 26 -6l-16 -92h60l16 92q8 2 15 3t14 3l21 -80l58 24l-21 80q8 4 16 10l52 -63l49 42l-51 63l12 15l74 -36l33 54 l-73 36q3 7 5.5 13.5t4.5 13.5h92l11 60h-92q0 8 -0.5 14.5t-0.5 13.5l86 35l-14 54l-86 -35q-2 4 -4 7.5t-4 6.5l74 63l-35 42l-74 -63q-6 5 -13 10l50 80l-50 24l-50 -80q-12 4 -26 6l17 92h-60l-17 -92q-8 -2 -14.5 -3t-14.5 -3l-21 80l-58 -24l21 -80q-4 -2 -8 -5t-8 -5 l-52 63l-49 -42l52 -63q-4 -4 -7 -7.5t-6 -7.5l-73 36l-34 -54l74 -36q-4 -7 -6.5 -13.5t-4.5 -13.5h-92zM249 390q5 31 21.5 58.5t40.5 47.5t53.5 32t60.5 12t56.5 -12t42 -32t23.5 -47.5t2 -58.5q-6 -31 -22.5 -58.5t-40.5 -47.5t-53.5 -32t-60.5 -12t-56.5 12t-42 32 t-23.5 47.5t-1 58.5z" />
<glyph unicode="_" horiz-adv-x="660" d="M104 420l-11 -60h92q1 -8 1 -15q0 -6 1 -13l-87 -35l15 -54l86 35q3 -7 8 -14l-75 -63l35 -42l74 63q3 -3 6.5 -5.5t6.5 -4.5l-50 -80l50 -24l50 80q14 -5 26 -6l-16 -92h60l16 92q8 2 15 3t14 3l21 -80l58 24l-21 80q8 4 16 10l52 -63l49 42l-51 63l12 15l74 -36l33 54 l-73 36q3 7 5.5 13.5t4.5 13.5h92l11 60h-92q0 8 -0.5 14.5t-0.5 13.5l86 35l-14 54l-86 -35q-2 4 -4 7.5t-4 6.5l74 63l-35 42l-74 -63q-6 5 -13 10l50 80l-50 24l-50 -80q-12 4 -26 6l17 92h-60l-17 -92q-8 -2 -14.5 -3t-14.5 -3l-21 80l-58 -24l21 -80q-4 -2 -8 -5t-8 -5 l-52 63l-49 -42l52 -63q-4 -4 -7 -7.5t-6 -7.5l-73 36l-34 -54l74 -36q-4 -7 -6.5 -13.5t-4.5 -13.5h-92zM249 390q5 31 21.5 58.5t40.5 47.5t53.5 32t60.5 12t56.5 -12t42 -32t23.5 -47.5t2 -58.5q-6 -31 -22.5 -58.5t-40.5 -47.5t-53.5 -32t-60.5 -12t-56.5 12t-42 32 t-23.5 47.5t-1 58.5z" />
<glyph unicode="`" horiz-adv-x="660" d="M104 420l-11 -60h92q1 -8 1 -15q0 -6 1 -13l-87 -35l15 -54l86 35q3 -7 8 -14l-75 -63l35 -42l74 63q3 -3 6.5 -5.5t6.5 -4.5l-50 -80l50 -24l50 80q14 -5 26 -6l-16 -92h60l16 92q8 2 15 3t14 3l21 -80l58 24l-21 80q8 4 16 10l52 -63l49 42l-51 63l12 15l74 -36l33 54 l-73 36q3 7 5.5 13.5t4.5 13.5h92l11 60h-92q0 8 -0.5 14.5t-0.5 13.5l86 35l-14 54l-86 -35q-2 4 -4 7.5t-4 6.5l74 63l-35 42l-74 -63q-6 5 -13 10l50 80l-50 24l-50 -80q-12 4 -26 6l17 92h-60l-17 -92q-8 -2 -14.5 -3t-14.5 -3l-21 80l-58 -24l21 -80q-4 -2 -8 -5t-8 -5 l-52 63l-49 -42l52 -63q-4 -4 -7 -7.5t-6 -7.5l-73 36l-34 -54l74 -36q-4 -7 -6.5 -13.5t-4.5 -13.5h-92zM249 390q5 31 21.5 58.5t40.5 47.5t53.5 32t60.5 12t56.5 -12t42 -32t23.5 -47.5t2 -58.5q-6 -31 -22.5 -58.5t-40.5 -47.5t-53.5 -32t-60.5 -12t-56.5 12t-42 32 t-23.5 47.5t-1 58.5z" />
<glyph unicode="a" d="M173 810h360l-132 -750h-360l95 540h210l10 60h-210zM217 210h60l42 240h-60z" />
<glyph unicode="b" d="M323 810h210l-132 -750h-360l148 840h150zM217 210h60l79 450h-60z" />
<glyph unicode="c" d="M217 210h60l37 211h150l-63 -361h-360l132 750h360l-58 -330h-150l31 180h-60z" />
<glyph unicode="d" d="M383 810h-210l-132 -750h360l148 840h-150zM277 210h-60l79 450h60z" />
<glyph unicode="e" d="M401 60h-360l132 750h360l-95 -540h-210l-11 -60h210zM356 660h-60l-42 -240h60z" />
<glyph unicode="f" d="M173 810h360l-27 -150h-210l-10 -60h210l-27 -150h-210l-68 -390h-150z" />
<glyph unicode="g" d="M25 -30h360l148 840h-360l-111 -630h210l-11 -60h-210zM296 660h60l-58 -330h-60z" />
<glyph unicode="h" d="M191 60h-150l148 840h150l-16 -90h210l-132 -750h-150l105 600h-60z" />
<glyph unicode="i" horiz-adv-x="210" d="M152 690h150l-111 -630h-150zM189 900h150l-27 -150h-150z" />
<glyph unicode="j" horiz-adv-x="210" d="M152 690h150l-127 -720h-150zM189 900h150l-27 -150h-150z" />
<glyph unicode="k" d="M469 450l-68 -390h-150l42 240h-60l-42 -240h-150l148 840h150l-43 -240h61l27 150h149l-53 -300h-210l-11 -60h210z" />
<glyph unicode="l" horiz-adv-x="210" d="M41 60l148 840h150l-148 -840h-150z" />
<glyph unicode="m" horiz-adv-x="630" d="M173 810h570l-132 -750h-150l105 600h-60l-105 -600h-150l105 600h-60l-105 -600h-150z" />
<glyph unicode="n" d="M173 810h360l-132 -750h-150l105 600h-60l-105 -600h-150z" />
<glyph unicode="o" d="M173 810h360l-132 -750h-360zM356 660h-60l-79 -450h60z" />
<glyph unicode="p" d="M191 60h210l132 750h-360l-148 -840h150zM296 660h60l-79 -450h-60z" />
<glyph unicode="q" d="M251 60h-210l132 750h360l-148 -840h-150zM356 660h-60l-79 -450h60z" />
<glyph unicode="r" d="M464 420h-210l-11 -60h210l-52 -300h-149l26 150h-61l-26 -150h-150l132 750h360zM341 570l15 90h-60l-15 -90h60z" />
<glyph unicode="s" d="M533 810l-42 -240h-150l15 90h-60l-26 -150h210l-79 -450h-360l42 240h150l-16 -90h60l26 150h-210l80 450h360z" />
<glyph unicode="t" d="M217 210h60l69 391h150l-95 -541h-360l148 840h150l-16 -90h210l-27 -150h-210z" />
<glyph unicode="u" d="M173 810h150l-106 -600h60l106 600h150l-132 -750h-360z" />
<glyph unicode="v" d="M533 810l-99 -560l-136 -190h-154l-70 190l99 560h150l-106 -600h60l106 600h150z" />
<glyph unicode="w" horiz-adv-x="630" d="M41 60h570l132 750h-150l-106 -600h-60l106 600h-150l-106 -600h-60l106 600h-150z" />
<glyph unicode="x" d="M173 810h150l-27 -150h61l27 150h149l-53 -300h-104l-11 -60h104l-68 -390h-150l42 240h-60l-42 -240h-150l68 390h105l11 60h-105z" />
<glyph unicode="y" d="M323 810l-85 -480h60l85 480h150l-148 -840h-360l26 150h210l11 60h-210l111 630h150z" />
<glyph unicode="z" d="M173 810l-42 -240h150l15 90h60l-26 -150h-210l-79 -450h360l42 240h-150l-16 -90h-60l26 150h210l80 450h-360z" />
<glyph unicode="{" horiz-adv-x="273" d="M201 120h60l-10 -60h-210l148 840h210l-11 -60h-60z" />
<glyph unicode="|" horiz-adv-x="210" d="M173 810h150l-132 -750h-150z" />
<glyph unicode="}" horiz-adv-x="273" d="M111 120h-60l-10 -60h210l148 840h-210l-11 -60h60z" />
<glyph unicode="~" horiz-adv-x="660" d="M104 420l-11 -60h92q1 -8 1 -15q0 -6 1 -13l-87 -35l15 -54l86 35q3 -7 8 -14l-75 -63l35 -42l74 63q3 -3 6.5 -5.5t6.5 -4.5l-50 -80l50 -24l50 80q14 -5 26 -6l-16 -92h60l16 92q8 2 15 3t14 3l21 -80l58 24l-21 80q8 4 16 10l52 -63l49 42l-51 63l12 15l74 -36l33 54 l-73 36q3 7 5.5 13.5t4.5 13.5h92l11 60h-92q0 8 -0.5 14.5t-0.5 13.5l86 35l-14 54l-86 -35q-2 4 -4 7.5t-4 6.5l74 63l-35 42l-74 -63q-6 5 -13 10l50 80l-50 24l-50 -80q-12 4 -26 6l17 92h-60l-17 -92q-8 -2 -14.5 -3t-14.5 -3l-21 80l-58 -24l21 -80q-4 -2 -8 -5t-8 -5 l-52 63l-49 -42l52 -63q-4 -4 -7 -7.5t-6 -7.5l-73 36l-34 -54l74 -36q-4 -7 -6.5 -13.5t-4.5 -13.5h-92zM249 390q5 31 21.5 58.5t40.5 47.5t53.5 32t60.5 12t56.5 -12t42 -32t23.5 -47.5t2 -58.5q-6 -31 -22.5 -58.5t-40.5 -47.5t-53.5 -32t-60.5 -12t-56.5 12t-42 32 t-23.5 47.5t-1 58.5z" />
<glyph unicode="&#xad;" d="M120 510h360l-27 -150h-360z" />
<glyph unicode="&#xbf;" d="M401 60h-360l79 450h210l16 90h150l-43 -240h-210l-26 -150h60l16 90h150zM533 810l-27 -150h-150l27 150h150z" />
<glyph unicode="&#xc0;" horiz-adv-x="660" d="M104 420l-11 -60h92q1 -8 1 -15q0 -6 1 -13l-87 -35l15 -54l86 35q3 -7 8 -14l-75 -63l35 -42l74 63q3 -3 6.5 -5.5t6.5 -4.5l-50 -80l50 -24l50 80q14 -5 26 -6l-16 -92h60l16 92q8 2 15 3t14 3l21 -80l58 24l-21 80q8 4 16 10l52 -63l49 42l-51 63l12 15l74 -36l33 54 l-73 36q3 7 5.5 13.5t4.5 13.5h92l11 60h-92q0 8 -0.5 14.5t-0.5 13.5l86 35l-14 54l-86 -35q-2 4 -4 7.5t-4 6.5l74 63l-35 42l-74 -63q-6 5 -13 10l50 80l-50 24l-50 -80q-12 4 -26 6l17 92h-60l-17 -92q-8 -2 -14.5 -3t-14.5 -3l-21 80l-58 -24l21 -80q-4 -2 -8 -5t-8 -5 l-52 63l-49 -42l52 -63q-4 -4 -7 -7.5t-6 -7.5l-73 36l-34 -54l74 -36q-4 -7 -6.5 -13.5t-4.5 -13.5h-92zM249 390q5 31 21.5 58.5t40.5 47.5t53.5 32t60.5 12t56.5 -12t42 -32t23.5 -47.5t2 -58.5q-6 -31 -22.5 -58.5t-40.5 -47.5t-53.5 -32t-60.5 -12t-56.5 12t-42 32 t-23.5 47.5t-1 58.5z" />
<glyph unicode="&#xc1;" horiz-adv-x="660" d="M104 420l-11 -60h92q1 -8 1 -15q0 -6 1 -13l-87 -35l15 -54l86 35q3 -7 8 -14l-75 -63l35 -42l74 63q3 -3 6.5 -5.5t6.5 -4.5l-50 -80l50 -24l50 80q14 -5 26 -6l-16 -92h60l16 92q8 2 15 3t14 3l21 -80l58 24l-21 80q8 4 16 10l52 -63l49 42l-51 63l12 15l74 -36l33 54 l-73 36q3 7 5.5 13.5t4.5 13.5h92l11 60h-92q0 8 -0.5 14.5t-0.5 13.5l86 35l-14 54l-86 -35q-2 4 -4 7.5t-4 6.5l74 63l-35 42l-74 -63q-6 5 -13 10l50 80l-50 24l-50 -80q-12 4 -26 6l17 92h-60l-17 -92q-8 -2 -14.5 -3t-14.5 -3l-21 80l-58 -24l21 -80q-4 -2 -8 -5t-8 -5 l-52 63l-49 -42l52 -63q-4 -4 -7 -7.5t-6 -7.5l-73 36l-34 -54l74 -36q-4 -7 -6.5 -13.5t-4.5 -13.5h-92zM249 390q5 31 21.5 58.5t40.5 47.5t53.5 32t60.5 12t56.5 -12t42 -32t23.5 -47.5t2 -58.5q-6 -31 -22.5 -58.5t-40.5 -47.5t-53.5 -32t-60.5 -12t-56.5 12t-42 32 t-23.5 47.5t-1 58.5z" />
<glyph unicode="&#xc2;" horiz-adv-x="660" d="M104 420l-11 -60h92q1 -8 1 -15q0 -6 1 -13l-87 -35l15 -54l86 35q3 -7 8 -14l-75 -63l35 -42l74 63q3 -3 6.5 -5.5t6.5 -4.5l-50 -80l50 -24l50 80q14 -5 26 -6l-16 -92h60l16 92q8 2 15 3t14 3l21 -80l58 24l-21 80q8 4 16 10l52 -63l49 42l-51 63l12 15l74 -36l33 54 l-73 36q3 7 5.5 13.5t4.5 13.5h92l11 60h-92q0 8 -0.5 14.5t-0.5 13.5l86 35l-14 54l-86 -35q-2 4 -4 7.5t-4 6.5l74 63l-35 42l-74 -63q-6 5 -13 10l50 80l-50 24l-50 -80q-12 4 -26 6l17 92h-60l-17 -92q-8 -2 -14.5 -3t-14.5 -3l-21 80l-58 -24l21 -80q-4 -2 -8 -5t-8 -5 l-52 63l-49 -42l52 -63q-4 -4 -7 -7.5t-6 -7.5l-73 36l-34 -54l74 -36q-4 -7 -6.5 -13.5t-4.5 -13.5h-92zM249 390q5 31 21.5 58.5t40.5 47.5t53.5 32t60.5 12t56.5 -12t42 -32t23.5 -47.5t2 -58.5q-6 -31 -22.5 -58.5t-40.5 -47.5t-53.5 -32t-60.5 -12t-56.5 12t-42 32 t-23.5 47.5t-1 58.5z" />
<glyph unicode="&#xc3;" horiz-adv-x="660" d="M104 420l-11 -60h92q1 -8 1 -15q0 -6 1 -13l-87 -35l15 -54l86 35q3 -7 8 -14l-75 -63l35 -42l74 63q3 -3 6.5 -5.5t6.5 -4.5l-50 -80l50 -24l50 80q14 -5 26 -6l-16 -92h60l16 92q8 2 15 3t14 3l21 -80l58 24l-21 80q8 4 16 10l52 -63l49 42l-51 63l12 15l74 -36l33 54 l-73 36q3 7 5.5 13.5t4.5 13.5h92l11 60h-92q0 8 -0.5 14.5t-0.5 13.5l86 35l-14 54l-86 -35q-2 4 -4 7.5t-4 6.5l74 63l-35 42l-74 -63q-6 5 -13 10l50 80l-50 24l-50 -80q-12 4 -26 6l17 92h-60l-17 -92q-8 -2 -14.5 -3t-14.5 -3l-21 80l-58 -24l21 -80q-4 -2 -8 -5t-8 -5 l-52 63l-49 -42l52 -63q-4 -4 -7 -7.5t-6 -7.5l-73 36l-34 -54l74 -36q-4 -7 -6.5 -13.5t-4.5 -13.5h-92zM249 390q5 31 21.5 58.5t40.5 47.5t53.5 32t60.5 12t56.5 -12t42 -32t23.5 -47.5t2 -58.5q-6 -31 -22.5 -58.5t-40.5 -47.5t-53.5 -32t-60.5 -12t-56.5 12t-42 32 t-23.5 47.5t-1 58.5z" />
<glyph unicode="&#xc4;" horiz-adv-x="660" d="M104 420l-11 -60h92q1 -8 1 -15q0 -6 1 -13l-87 -35l15 -54l86 35q3 -7 8 -14l-75 -63l35 -42l74 63q3 -3 6.5 -5.5t6.5 -4.5l-50 -80l50 -24l50 80q14 -5 26 -6l-16 -92h60l16 92q8 2 15 3t14 3l21 -80l58 24l-21 80q8 4 16 10l52 -63l49 42l-51 63l12 15l74 -36l33 54 l-73 36q3 7 5.5 13.5t4.5 13.5h92l11 60h-92q0 8 -0.5 14.5t-0.5 13.5l86 35l-14 54l-86 -35q-2 4 -4 7.5t-4 6.5l74 63l-35 42l-74 -63q-6 5 -13 10l50 80l-50 24l-50 -80q-12 4 -26 6l17 92h-60l-17 -92q-8 -2 -14.5 -3t-14.5 -3l-21 80l-58 -24l21 -80q-4 -2 -8 -5t-8 -5 l-52 63l-49 -42l52 -63q-4 -4 -7 -7.5t-6 -7.5l-73 36l-34 -54l74 -36q-4 -7 -6.5 -13.5t-4.5 -13.5h-92zM249 390q5 31 21.5 58.5t40.5 47.5t53.5 32t60.5 12t56.5 -12t42 -32t23.5 -47.5t2 -58.5q-6 -31 -22.5 -58.5t-40.5 -47.5t-53.5 -32t-60.5 -12t-56.5 12t-42 32 t-23.5 47.5t-1 58.5z" />
<glyph unicode="&#xc5;" d="M173 810h360l-132 -750h-360l95 540h210l10 60h-210zM217 210h60l42 240h-60zM334 871l10 59h60l-10 -59h-60z" />
<glyph unicode="&#xc6;" horiz-adv-x="630" d="M743 810l-95 -540h-210l-11 -60h210l-26 -150h-570l95 540h210l10 60h-210l27 150h570zM319 450h-60l-42 -240h60zM524 420l42 240h-60l-42 -240h60z" />
<glyph unicode="&#xc7;" horiz-adv-x="660" d="M104 420l-11 -60h92q1 -8 1 -15q0 -6 1 -13l-87 -35l15 -54l86 35q3 -7 8 -14l-75 -63l35 -42l74 63q3 -3 6.5 -5.5t6.5 -4.5l-50 -80l50 -24l50 80q14 -5 26 -6l-16 -92h60l16 92q8 2 15 3t14 3l21 -80l58 24l-21 80q8 4 16 10l52 -63l49 42l-51 63l12 15l74 -36l33 54 l-73 36q3 7 5.5 13.5t4.5 13.5h92l11 60h-92q0 8 -0.5 14.5t-0.5 13.5l86 35l-14 54l-86 -35q-2 4 -4 7.5t-4 6.5l74 63l-35 42l-74 -63q-6 5 -13 10l50 80l-50 24l-50 -80q-12 4 -26 6l17 92h-60l-17 -92q-8 -2 -14.5 -3t-14.5 -3l-21 80l-58 -24l21 -80q-4 -2 -8 -5t-8 -5 l-52 63l-49 -42l52 -63q-4 -4 -7 -7.5t-6 -7.5l-73 36l-34 -54l74 -36q-4 -7 -6.5 -13.5t-4.5 -13.5h-92zM249 390q5 31 21.5 58.5t40.5 47.5t53.5 32t60.5 12t56.5 -12t42 -32t23.5 -47.5t2 -58.5q-6 -31 -22.5 -58.5t-40.5 -47.5t-53.5 -32t-60.5 -12t-56.5 12t-42 32 t-23.5 47.5t-1 58.5z" />
<glyph unicode="&#xc8;" horiz-adv-x="660" d="M104 420l-11 -60h92q1 -8 1 -15q0 -6 1 -13l-87 -35l15 -54l86 35q3 -7 8 -14l-75 -63l35 -42l74 63q3 -3 6.5 -5.5t6.5 -4.5l-50 -80l50 -24l50 80q14 -5 26 -6l-16 -92h60l16 92q8 2 15 3t14 3l21 -80l58 24l-21 80q8 4 16 10l52 -63l49 42l-51 63l12 15l74 -36l33 54 l-73 36q3 7 5.5 13.5t4.5 13.5h92l11 60h-92q0 8 -0.5 14.5t-0.5 13.5l86 35l-14 54l-86 -35q-2 4 -4 7.5t-4 6.5l74 63l-35 42l-74 -63q-6 5 -13 10l50 80l-50 24l-50 -80q-12 4 -26 6l17 92h-60l-17 -92q-8 -2 -14.5 -3t-14.5 -3l-21 80l-58 -24l21 -80q-4 -2 -8 -5t-8 -5 l-52 63l-49 -42l52 -63q-4 -4 -7 -7.5t-6 -7.5l-73 36l-34 -54l74 -36q-4 -7 -6.5 -13.5t-4.5 -13.5h-92zM249 390q5 31 21.5 58.5t40.5 47.5t53.5 32t60.5 12t56.5 -12t42 -32t23.5 -47.5t2 -58.5q-6 -31 -22.5 -58.5t-40.5 -47.5t-53.5 -32t-60.5 -12t-56.5 12t-42 32 t-23.5 47.5t-1 58.5z" />
<glyph unicode="&#xc9;" horiz-adv-x="660" d="M104 420l-11 -60h92q1 -8 1 -15q0 -6 1 -13l-87 -35l15 -54l86 35q3 -7 8 -14l-75 -63l35 -42l74 63q3 -3 6.5 -5.5t6.5 -4.5l-50 -80l50 -24l50 80q14 -5 26 -6l-16 -92h60l16 92q8 2 15 3t14 3l21 -80l58 24l-21 80q8 4 16 10l52 -63l49 42l-51 63l12 15l74 -36l33 54 l-73 36q3 7 5.5 13.5t4.5 13.5h92l11 60h-92q0 8 -0.5 14.5t-0.5 13.5l86 35l-14 54l-86 -35q-2 4 -4 7.5t-4 6.5l74 63l-35 42l-74 -63q-6 5 -13 10l50 80l-50 24l-50 -80q-12 4 -26 6l17 92h-60l-17 -92q-8 -2 -14.5 -3t-14.5 -3l-21 80l-58 -24l21 -80q-4 -2 -8 -5t-8 -5 l-52 63l-49 -42l52 -63q-4 -4 -7 -7.5t-6 -7.5l-73 36l-34 -54l74 -36q-4 -7 -6.5 -13.5t-4.5 -13.5h-92zM249 390q5 31 21.5 58.5t40.5 47.5t53.5 32t60.5 12t56.5 -12t42 -32t23.5 -47.5t2 -58.5q-6 -31 -22.5 -58.5t-40.5 -47.5t-53.5 -32t-60.5 -12t-56.5 12t-42 32 t-23.5 47.5t-1 58.5z" />
<glyph unicode="&#xca;" horiz-adv-x="660" d="M104 420l-11 -60h92q1 -8 1 -15q0 -6 1 -13l-87 -35l15 -54l86 35q3 -7 8 -14l-75 -63l35 -42l74 63q3 -3 6.5 -5.5t6.5 -4.5l-50 -80l50 -24l50 80q14 -5 26 -6l-16 -92h60l16 92q8 2 15 3t14 3l21 -80l58 24l-21 80q8 4 16 10l52 -63l49 42l-51 63l12 15l74 -36l33 54 l-73 36q3 7 5.5 13.5t4.5 13.5h92l11 60h-92q0 8 -0.5 14.5t-0.5 13.5l86 35l-14 54l-86 -35q-2 4 -4 7.5t-4 6.5l74 63l-35 42l-74 -63q-6 5 -13 10l50 80l-50 24l-50 -80q-12 4 -26 6l17 92h-60l-17 -92q-8 -2 -14.5 -3t-14.5 -3l-21 80l-58 -24l21 -80q-4 -2 -8 -5t-8 -5 l-52 63l-49 -42l52 -63q-4 -4 -7 -7.5t-6 -7.5l-73 36l-34 -54l74 -36q-4 -7 -6.5 -13.5t-4.5 -13.5h-92zM249 390q5 31 21.5 58.5t40.5 47.5t53.5 32t60.5 12t56.5 -12t42 -32t23.5 -47.5t2 -58.5q-6 -31 -22.5 -58.5t-40.5 -47.5t-53.5 -32t-60.5 -12t-56.5 12t-42 32 t-23.5 47.5t-1 58.5z" />
<glyph unicode="&#xcb;" horiz-adv-x="660" d="M104 420l-11 -60h92q1 -8 1 -15q0 -6 1 -13l-87 -35l15 -54l86 35q3 -7 8 -14l-75 -63l35 -42l74 63q3 -3 6.5 -5.5t6.5 -4.5l-50 -80l50 -24l50 80q14 -5 26 -6l-16 -92h60l16 92q8 2 15 3t14 3l21 -80l58 24l-21 80q8 4 16 10l52 -63l49 42l-51 63l12 15l74 -36l33 54 l-73 36q3 7 5.5 13.5t4.5 13.5h92l11 60h-92q0 8 -0.5 14.5t-0.5 13.5l86 35l-14 54l-86 -35q-2 4 -4 7.5t-4 6.5l74 63l-35 42l-74 -63q-6 5 -13 10l50 80l-50 24l-50 -80q-12 4 -26 6l17 92h-60l-17 -92q-8 -2 -14.5 -3t-14.5 -3l-21 80l-58 -24l21 -80q-4 -2 -8 -5t-8 -5 l-52 63l-49 -42l52 -63q-4 -4 -7 -7.5t-6 -7.5l-73 36l-34 -54l74 -36q-4 -7 -6.5 -13.5t-4.5 -13.5h-92zM249 390q5 31 21.5 58.5t40.5 47.5t53.5 32t60.5 12t56.5 -12t42 -32t23.5 -47.5t2 -58.5q-6 -31 -22.5 -58.5t-40.5 -47.5t-53.5 -32t-60.5 -12t-56.5 12t-42 32 t-23.5 47.5t-1 58.5z" />
<glyph unicode="&#xcc;" horiz-adv-x="660" d="M104 420l-11 -60h92q1 -8 1 -15q0 -6 1 -13l-87 -35l15 -54l86 35q3 -7 8 -14l-75 -63l35 -42l74 63q3 -3 6.5 -5.5t6.5 -4.5l-50 -80l50 -24l50 80q14 -5 26 -6l-16 -92h60l16 92q8 2 15 3t14 3l21 -80l58 24l-21 80q8 4 16 10l52 -63l49 42l-51 63l12 15l74 -36l33 54 l-73 36q3 7 5.5 13.5t4.5 13.5h92l11 60h-92q0 8 -0.5 14.5t-0.5 13.5l86 35l-14 54l-86 -35q-2 4 -4 7.5t-4 6.5l74 63l-35 42l-74 -63q-6 5 -13 10l50 80l-50 24l-50 -80q-12 4 -26 6l17 92h-60l-17 -92q-8 -2 -14.5 -3t-14.5 -3l-21 80l-58 -24l21 -80q-4 -2 -8 -5t-8 -5 l-52 63l-49 -42l52 -63q-4 -4 -7 -7.5t-6 -7.5l-73 36l-34 -54l74 -36q-4 -7 -6.5 -13.5t-4.5 -13.5h-92zM249 390q5 31 21.5 58.5t40.5 47.5t53.5 32t60.5 12t56.5 -12t42 -32t23.5 -47.5t2 -58.5q-6 -31 -22.5 -58.5t-40.5 -47.5t-53.5 -32t-60.5 -12t-56.5 12t-42 32 t-23.5 47.5t-1 58.5z" />
<glyph unicode="&#xcd;" horiz-adv-x="660" d="M104 420l-11 -60h92q1 -8 1 -15q0 -6 1 -13l-87 -35l15 -54l86 35q3 -7 8 -14l-75 -63l35 -42l74 63q3 -3 6.5 -5.5t6.5 -4.5l-50 -80l50 -24l50 80q14 -5 26 -6l-16 -92h60l16 92q8 2 15 3t14 3l21 -80l58 24l-21 80q8 4 16 10l52 -63l49 42l-51 63l12 15l74 -36l33 54 l-73 36q3 7 5.5 13.5t4.5 13.5h92l11 60h-92q0 8 -0.5 14.5t-0.5 13.5l86 35l-14 54l-86 -35q-2 4 -4 7.5t-4 6.5l74 63l-35 42l-74 -63q-6 5 -13 10l50 80l-50 24l-50 -80q-12 4 -26 6l17 92h-60l-17 -92q-8 -2 -14.5 -3t-14.5 -3l-21 80l-58 -24l21 -80q-4 -2 -8 -5t-8 -5 l-52 63l-49 -42l52 -63q-4 -4 -7 -7.5t-6 -7.5l-73 36l-34 -54l74 -36q-4 -7 -6.5 -13.5t-4.5 -13.5h-92zM249 390q5 31 21.5 58.5t40.5 47.5t53.5 32t60.5 12t56.5 -12t42 -32t23.5 -47.5t2 -58.5q-6 -31 -22.5 -58.5t-40.5 -47.5t-53.5 -32t-60.5 -12t-56.5 12t-42 32 t-23.5 47.5t-1 58.5z" />
<glyph unicode="&#xce;" horiz-adv-x="660" d="M104 420l-11 -60h92q1 -8 1 -15q0 -6 1 -13l-87 -35l15 -54l86 35q3 -7 8 -14l-75 -63l35 -42l74 63q3 -3 6.5 -5.5t6.5 -4.5l-50 -80l50 -24l50 80q14 -5 26 -6l-16 -92h60l16 92q8 2 15 3t14 3l21 -80l58 24l-21 80q8 4 16 10l52 -63l49 42l-51 63l12 15l74 -36l33 54 l-73 36q3 7 5.5 13.5t4.5 13.5h92l11 60h-92q0 8 -0.5 14.5t-0.5 13.5l86 35l-14 54l-86 -35q-2 4 -4 7.5t-4 6.5l74 63l-35 42l-74 -63q-6 5 -13 10l50 80l-50 24l-50 -80q-12 4 -26 6l17 92h-60l-17 -92q-8 -2 -14.5 -3t-14.5 -3l-21 80l-58 -24l21 -80q-4 -2 -8 -5t-8 -5 l-52 63l-49 -42l52 -63q-4 -4 -7 -7.5t-6 -7.5l-73 36l-34 -54l74 -36q-4 -7 -6.5 -13.5t-4.5 -13.5h-92zM249 390q5 31 21.5 58.5t40.5 47.5t53.5 32t60.5 12t56.5 -12t42 -32t23.5 -47.5t2 -58.5q-6 -31 -22.5 -58.5t-40.5 -47.5t-53.5 -32t-60.5 -12t-56.5 12t-42 32 t-23.5 47.5t-1 58.5z" />
<glyph unicode="&#xcf;" horiz-adv-x="660" d="M104 420l-11 -60h92q1 -8 1 -15q0 -6 1 -13l-87 -35l15 -54l86 35q3 -7 8 -14l-75 -63l35 -42l74 63q3 -3 6.5 -5.5t6.5 -4.5l-50 -80l50 -24l50 80q14 -5 26 -6l-16 -92h60l16 92q8 2 15 3t14 3l21 -80l58 24l-21 80q8 4 16 10l52 -63l49 42l-51 63l12 15l74 -36l33 54 l-73 36q3 7 5.5 13.5t4.5 13.5h92l11 60h-92q0 8 -0.5 14.5t-0.5 13.5l86 35l-14 54l-86 -35q-2 4 -4 7.5t-4 6.5l74 63l-35 42l-74 -63q-6 5 -13 10l50 80l-50 24l-50 -80q-12 4 -26 6l17 92h-60l-17 -92q-8 -2 -14.5 -3t-14.5 -3l-21 80l-58 -24l21 -80q-4 -2 -8 -5t-8 -5 l-52 63l-49 -42l52 -63q-4 -4 -7 -7.5t-6 -7.5l-73 36l-34 -54l74 -36q-4 -7 -6.5 -13.5t-4.5 -13.5h-92zM249 390q5 31 21.5 58.5t40.5 47.5t53.5 32t60.5 12t56.5 -12t42 -32t23.5 -47.5t2 -58.5q-6 -31 -22.5 -58.5t-40.5 -47.5t-53.5 -32t-60.5 -12t-56.5 12t-42 32 t-23.5 47.5t-1 58.5z" />
<glyph unicode="&#xd0;" horiz-adv-x="660" d="M104 420l-11 -60h92q1 -8 1 -15q0 -6 1 -13l-87 -35l15 -54l86 35q3 -7 8 -14l-75 -63l35 -42l74 63q3 -3 6.5 -5.5t6.5 -4.5l-50 -80l50 -24l50 80q14 -5 26 -6l-16 -92h60l16 92q8 2 15 3t14 3l21 -80l58 24l-21 80q8 4 16 10l52 -63l49 42l-51 63l12 15l74 -36l33 54 l-73 36q3 7 5.5 13.5t4.5 13.5h92l11 60h-92q0 8 -0.5 14.5t-0.5 13.5l86 35l-14 54l-86 -35q-2 4 -4 7.5t-4 6.5l74 63l-35 42l-74 -63q-6 5 -13 10l50 80l-50 24l-50 -80q-12 4 -26 6l17 92h-60l-17 -92q-8 -2 -14.5 -3t-14.5 -3l-21 80l-58 -24l21 -80q-4 -2 -8 -5t-8 -5 l-52 63l-49 -42l52 -63q-4 -4 -7 -7.5t-6 -7.5l-73 36l-34 -54l74 -36q-4 -7 -6.5 -13.5t-4.5 -13.5h-92zM249 390q5 31 21.5 58.5t40.5 47.5t53.5 32t60.5 12t56.5 -12t42 -32t23.5 -47.5t2 -58.5q-6 -31 -22.5 -58.5t-40.5 -47.5t-53.5 -32t-60.5 -12t-56.5 12t-42 32 t-23.5 47.5t-1 58.5z" />
<glyph unicode="&#xd1;" horiz-adv-x="660" d="M104 420l-11 -60h92q1 -8 1 -15q0 -6 1 -13l-87 -35l15 -54l86 35q3 -7 8 -14l-75 -63l35 -42l74 63q3 -3 6.5 -5.5t6.5 -4.5l-50 -80l50 -24l50 80q14 -5 26 -6l-16 -92h60l16 92q8 2 15 3t14 3l21 -80l58 24l-21 80q8 4 16 10l52 -63l49 42l-51 63l12 15l74 -36l33 54 l-73 36q3 7 5.5 13.5t4.5 13.5h92l11 60h-92q0 8 -0.5 14.5t-0.5 13.5l86 35l-14 54l-86 -35q-2 4 -4 7.5t-4 6.5l74 63l-35 42l-74 -63q-6 5 -13 10l50 80l-50 24l-50 -80q-12 4 -26 6l17 92h-60l-17 -92q-8 -2 -14.5 -3t-14.5 -3l-21 80l-58 -24l21 -80q-4 -2 -8 -5t-8 -5 l-52 63l-49 -42l52 -63q-4 -4 -7 -7.5t-6 -7.5l-73 36l-34 -54l74 -36q-4 -7 -6.5 -13.5t-4.5 -13.5h-92zM249 390q5 31 21.5 58.5t40.5 47.5t53.5 32t60.5 12t56.5 -12t42 -32t23.5 -47.5t2 -58.5q-6 -31 -22.5 -58.5t-40.5 -47.5t-53.5 -32t-60.5 -12t-56.5 12t-42 32 t-23.5 47.5t-1 58.5z" />
<glyph unicode="&#xd2;" horiz-adv-x="660" d="M104 420l-11 -60h92q1 -8 1 -15q0 -6 1 -13l-87 -35l15 -54l86 35q3 -7 8 -14l-75 -63l35 -42l74 63q3 -3 6.5 -5.5t6.5 -4.5l-50 -80l50 -24l50 80q14 -5 26 -6l-16 -92h60l16 92q8 2 15 3t14 3l21 -80l58 24l-21 80q8 4 16 10l52 -63l49 42l-51 63l12 15l74 -36l33 54 l-73 36q3 7 5.5 13.5t4.5 13.5h92l11 60h-92q0 8 -0.5 14.5t-0.5 13.5l86 35l-14 54l-86 -35q-2 4 -4 7.5t-4 6.5l74 63l-35 42l-74 -63q-6 5 -13 10l50 80l-50 24l-50 -80q-12 4 -26 6l17 92h-60l-17 -92q-8 -2 -14.5 -3t-14.5 -3l-21 80l-58 -24l21 -80q-4 -2 -8 -5t-8 -5 l-52 63l-49 -42l52 -63q-4 -4 -7 -7.5t-6 -7.5l-73 36l-34 -54l74 -36q-4 -7 -6.5 -13.5t-4.5 -13.5h-92zM249 390q5 31 21.5 58.5t40.5 47.5t53.5 32t60.5 12t56.5 -12t42 -32t23.5 -47.5t2 -58.5q-6 -31 -22.5 -58.5t-40.5 -47.5t-53.5 -32t-60.5 -12t-56.5 12t-42 32 t-23.5 47.5t-1 58.5z" />
<glyph unicode="&#xd3;" horiz-adv-x="660" d="M104 420l-11 -60h92q1 -8 1 -15q0 -6 1 -13l-87 -35l15 -54l86 35q3 -7 8 -14l-75 -63l35 -42l74 63q3 -3 6.5 -5.5t6.5 -4.5l-50 -80l50 -24l50 80q14 -5 26 -6l-16 -92h60l16 92q8 2 15 3t14 3l21 -80l58 24l-21 80q8 4 16 10l52 -63l49 42l-51 63l12 15l74 -36l33 54 l-73 36q3 7 5.5 13.5t4.5 13.5h92l11 60h-92q0 8 -0.5 14.5t-0.5 13.5l86 35l-14 54l-86 -35q-2 4 -4 7.5t-4 6.5l74 63l-35 42l-74 -63q-6 5 -13 10l50 80l-50 24l-50 -80q-12 4 -26 6l17 92h-60l-17 -92q-8 -2 -14.5 -3t-14.5 -3l-21 80l-58 -24l21 -80q-4 -2 -8 -5t-8 -5 l-52 63l-49 -42l52 -63q-4 -4 -7 -7.5t-6 -7.5l-73 36l-34 -54l74 -36q-4 -7 -6.5 -13.5t-4.5 -13.5h-92zM249 390q5 31 21.5 58.5t40.5 47.5t53.5 32t60.5 12t56.5 -12t42 -32t23.5 -47.5t2 -58.5q-6 -31 -22.5 -58.5t-40.5 -47.5t-53.5 -32t-60.5 -12t-56.5 12t-42 32 t-23.5 47.5t-1 58.5z" />
<glyph unicode="&#xd4;" horiz-adv-x="660" d="M104 420l-11 -60h92q1 -8 1 -15q0 -6 1 -13l-87 -35l15 -54l86 35q3 -7 8 -14l-75 -63l35 -42l74 63q3 -3 6.5 -5.5t6.5 -4.5l-50 -80l50 -24l50 80q14 -5 26 -6l-16 -92h60l16 92q8 2 15 3t14 3l21 -80l58 24l-21 80q8 4 16 10l52 -63l49 42l-51 63l12 15l74 -36l33 54 l-73 36q3 7 5.5 13.5t4.5 13.5h92l11 60h-92q0 8 -0.5 14.5t-0.5 13.5l86 35l-14 54l-86 -35q-2 4 -4 7.5t-4 6.5l74 63l-35 42l-74 -63q-6 5 -13 10l50 80l-50 24l-50 -80q-12 4 -26 6l17 92h-60l-17 -92q-8 -2 -14.5 -3t-14.5 -3l-21 80l-58 -24l21 -80q-4 -2 -8 -5t-8 -5 l-52 63l-49 -42l52 -63q-4 -4 -7 -7.5t-6 -7.5l-73 36l-34 -54l74 -36q-4 -7 -6.5 -13.5t-4.5 -13.5h-92zM249 390q5 31 21.5 58.5t40.5 47.5t53.5 32t60.5 12t56.5 -12t42 -32t23.5 -47.5t2 -58.5q-6 -31 -22.5 -58.5t-40.5 -47.5t-53.5 -32t-60.5 -12t-56.5 12t-42 32 t-23.5 47.5t-1 58.5z" />
<glyph unicode="&#xd5;" horiz-adv-x="660" d="M104 420l-11 -60h92q1 -8 1 -15q0 -6 1 -13l-87 -35l15 -54l86 35q3 -7 8 -14l-75 -63l35 -42l74 63q3 -3 6.5 -5.5t6.5 -4.5l-50 -80l50 -24l50 80q14 -5 26 -6l-16 -92h60l16 92q8 2 15 3t14 3l21 -80l58 24l-21 80q8 4 16 10l52 -63l49 42l-51 63l12 15l74 -36l33 54 l-73 36q3 7 5.5 13.5t4.5 13.5h92l11 60h-92q0 8 -0.5 14.5t-0.5 13.5l86 35l-14 54l-86 -35q-2 4 -4 7.5t-4 6.5l74 63l-35 42l-74 -63q-6 5 -13 10l50 80l-50 24l-50 -80q-12 4 -26 6l17 92h-60l-17 -92q-8 -2 -14.5 -3t-14.5 -3l-21 80l-58 -24l21 -80q-4 -2 -8 -5t-8 -5 l-52 63l-49 -42l52 -63q-4 -4 -7 -7.5t-6 -7.5l-73 36l-34 -54l74 -36q-4 -7 -6.5 -13.5t-4.5 -13.5h-92zM249 390q5 31 21.5 58.5t40.5 47.5t53.5 32t60.5 12t56.5 -12t42 -32t23.5 -47.5t2 -58.5q-6 -31 -22.5 -58.5t-40.5 -47.5t-53.5 -32t-60.5 -12t-56.5 12t-42 32 t-23.5 47.5t-1 58.5z" />
<glyph unicode="&#xd6;" horiz-adv-x="660" d="M104 420l-11 -60h92q1 -8 1 -15q0 -6 1 -13l-87 -35l15 -54l86 35q3 -7 8 -14l-75 -63l35 -42l74 63q3 -3 6.5 -5.5t6.5 -4.5l-50 -80l50 -24l50 80q14 -5 26 -6l-16 -92h60l16 92q8 2 15 3t14 3l21 -80l58 24l-21 80q8 4 16 10l52 -63l49 42l-51 63l12 15l74 -36l33 54 l-73 36q3 7 5.5 13.5t4.5 13.5h92l11 60h-92q0 8 -0.5 14.5t-0.5 13.5l86 35l-14 54l-86 -35q-2 4 -4 7.5t-4 6.5l74 63l-35 42l-74 -63q-6 5 -13 10l50 80l-50 24l-50 -80q-12 4 -26 6l17 92h-60l-17 -92q-8 -2 -14.5 -3t-14.5 -3l-21 80l-58 -24l21 -80q-4 -2 -8 -5t-8 -5 l-52 63l-49 -42l52 -63q-4 -4 -7 -7.5t-6 -7.5l-73 36l-34 -54l74 -36q-4 -7 -6.5 -13.5t-4.5 -13.5h-92zM249 390q5 31 21.5 58.5t40.5 47.5t53.5 32t60.5 12t56.5 -12t42 -32t23.5 -47.5t2 -58.5q-6 -31 -22.5 -58.5t-40.5 -47.5t-53.5 -32t-60.5 -12t-56.5 12t-42 32 t-23.5 47.5t-1 58.5z" />
<glyph unicode="&#xd7;" horiz-adv-x="660" d="M104 420l-11 -60h92q1 -8 1 -15q0 -6 1 -13l-87 -35l15 -54l86 35q3 -7 8 -14l-75 -63l35 -42l74 63q3 -3 6.5 -5.5t6.5 -4.5l-50 -80l50 -24l50 80q14 -5 26 -6l-16 -92h60l16 92q8 2 15 3t14 3l21 -80l58 24l-21 80q8 4 16 10l52 -63l49 42l-51 63l12 15l74 -36l33 54 l-73 36q3 7 5.5 13.5t4.5 13.5h92l11 60h-92q0 8 -0.5 14.5t-0.5 13.5l86 35l-14 54l-86 -35q-2 4 -4 7.5t-4 6.5l74 63l-35 42l-74 -63q-6 5 -13 10l50 80l-50 24l-50 -80q-12 4 -26 6l17 92h-60l-17 -92q-8 -2 -14.5 -3t-14.5 -3l-21 80l-58 -24l21 -80q-4 -2 -8 -5t-8 -5 l-52 63l-49 -42l52 -63q-4 -4 -7 -7.5t-6 -7.5l-73 36l-34 -54l74 -36q-4 -7 -6.5 -13.5t-4.5 -13.5h-92zM249 390q5 31 21.5 58.5t40.5 47.5t53.5 32t60.5 12t56.5 -12t42 -32t23.5 -47.5t2 -58.5q-6 -31 -22.5 -58.5t-40.5 -47.5t-53.5 -32t-60.5 -12t-56.5 12t-42 32 t-23.5 47.5t-1 58.5z" />
<glyph unicode="&#xd8;" d="M173 810h300l21 120h60l-153 -870h-300l-22 -120h-60zM356 660h-60l-79 -450h60z" />
<glyph unicode="&#xd9;" horiz-adv-x="660" d="M104 420l-11 -60h92q1 -8 1 -15q0 -6 1 -13l-87 -35l15 -54l86 35q3 -7 8 -14l-75 -63l35 -42l74 63q3 -3 6.5 -5.5t6.5 -4.5l-50 -80l50 -24l50 80q14 -5 26 -6l-16 -92h60l16 92q8 2 15 3t14 3l21 -80l58 24l-21 80q8 4 16 10l52 -63l49 42l-51 63l12 15l74 -36l33 54 l-73 36q3 7 5.5 13.5t4.5 13.5h92l11 60h-92q0 8 -0.5 14.5t-0.5 13.5l86 35l-14 54l-86 -35q-2 4 -4 7.5t-4 6.5l74 63l-35 42l-74 -63q-6 5 -13 10l50 80l-50 24l-50 -80q-12 4 -26 6l17 92h-60l-17 -92q-8 -2 -14.5 -3t-14.5 -3l-21 80l-58 -24l21 -80q-4 -2 -8 -5t-8 -5 l-52 63l-49 -42l52 -63q-4 -4 -7 -7.5t-6 -7.5l-73 36l-34 -54l74 -36q-4 -7 -6.5 -13.5t-4.5 -13.5h-92zM249 390q5 31 21.5 58.5t40.5 47.5t53.5 32t60.5 12t56.5 -12t42 -32t23.5 -47.5t2 -58.5q-6 -31 -22.5 -58.5t-40.5 -47.5t-53.5 -32t-60.5 -12t-56.5 12t-42 32 t-23.5 47.5t-1 58.5z" />
<glyph unicode="&#xda;" horiz-adv-x="660" d="M104 420l-11 -60h92q1 -8 1 -15q0 -6 1 -13l-87 -35l15 -54l86 35q3 -7 8 -14l-75 -63l35 -42l74 63q3 -3 6.5 -5.5t6.5 -4.5l-50 -80l50 -24l50 80q14 -5 26 -6l-16 -92h60l16 92q8 2 15 3t14 3l21 -80l58 24l-21 80q8 4 16 10l52 -63l49 42l-51 63l12 15l74 -36l33 54 l-73 36q3 7 5.5 13.5t4.5 13.5h92l11 60h-92q0 8 -0.5 14.5t-0.5 13.5l86 35l-14 54l-86 -35q-2 4 -4 7.5t-4 6.5l74 63l-35 42l-74 -63q-6 5 -13 10l50 80l-50 24l-50 -80q-12 4 -26 6l17 92h-60l-17 -92q-8 -2 -14.5 -3t-14.5 -3l-21 80l-58 -24l21 -80q-4 -2 -8 -5t-8 -5 l-52 63l-49 -42l52 -63q-4 -4 -7 -7.5t-6 -7.5l-73 36l-34 -54l74 -36q-4 -7 -6.5 -13.5t-4.5 -13.5h-92zM249 390q5 31 21.5 58.5t40.5 47.5t53.5 32t60.5 12t56.5 -12t42 -32t23.5 -47.5t2 -58.5q-6 -31 -22.5 -58.5t-40.5 -47.5t-53.5 -32t-60.5 -12t-56.5 12t-42 32 t-23.5 47.5t-1 58.5z" />
<glyph unicode="&#xdb;" horiz-adv-x="660" d="M104 420l-11 -60h92q1 -8 1 -15q0 -6 1 -13l-87 -35l15 -54l86 35q3 -7 8 -14l-75 -63l35 -42l74 63q3 -3 6.5 -5.5t6.5 -4.5l-50 -80l50 -24l50 80q14 -5 26 -6l-16 -92h60l16 92q8 2 15 3t14 3l21 -80l58 24l-21 80q8 4 16 10l52 -63l49 42l-51 63l12 15l74 -36l33 54 l-73 36q3 7 5.5 13.5t4.5 13.5h92l11 60h-92q0 8 -0.5 14.5t-0.5 13.5l86 35l-14 54l-86 -35q-2 4 -4 7.5t-4 6.5l74 63l-35 42l-74 -63q-6 5 -13 10l50 80l-50 24l-50 -80q-12 4 -26 6l17 92h-60l-17 -92q-8 -2 -14.5 -3t-14.5 -3l-21 80l-58 -24l21 -80q-4 -2 -8 -5t-8 -5 l-52 63l-49 -42l52 -63q-4 -4 -7 -7.5t-6 -7.5l-73 36l-34 -54l74 -36q-4 -7 -6.5 -13.5t-4.5 -13.5h-92zM249 390q5 31 21.5 58.5t40.5 47.5t53.5 32t60.5 12t56.5 -12t42 -32t23.5 -47.5t2 -58.5q-6 -31 -22.5 -58.5t-40.5 -47.5t-53.5 -32t-60.5 -12t-56.5 12t-42 32 t-23.5 47.5t-1 58.5z" />
<glyph unicode="&#xdc;" horiz-adv-x="660" d="M104 420l-11 -60h92q1 -8 1 -15q0 -6 1 -13l-87 -35l15 -54l86 35q3 -7 8 -14l-75 -63l35 -42l74 63q3 -3 6.5 -5.5t6.5 -4.5l-50 -80l50 -24l50 80q14 -5 26 -6l-16 -92h60l16 92q8 2 15 3t14 3l21 -80l58 24l-21 80q8 4 16 10l52 -63l49 42l-51 63l12 15l74 -36l33 54 l-73 36q3 7 5.5 13.5t4.5 13.5h92l11 60h-92q0 8 -0.5 14.5t-0.5 13.5l86 35l-14 54l-86 -35q-2 4 -4 7.5t-4 6.5l74 63l-35 42l-74 -63q-6 5 -13 10l50 80l-50 24l-50 -80q-12 4 -26 6l17 92h-60l-17 -92q-8 -2 -14.5 -3t-14.5 -3l-21 80l-58 -24l21 -80q-4 -2 -8 -5t-8 -5 l-52 63l-49 -42l52 -63q-4 -4 -7 -7.5t-6 -7.5l-73 36l-34 -54l74 -36q-4 -7 -6.5 -13.5t-4.5 -13.5h-92zM249 390q5 31 21.5 58.5t40.5 47.5t53.5 32t60.5 12t56.5 -12t42 -32t23.5 -47.5t2 -58.5q-6 -31 -22.5 -58.5t-40.5 -47.5t-53.5 -32t-60.5 -12t-56.5 12t-42 32 t-23.5 47.5t-1 58.5z" />
<glyph unicode="&#xdd;" horiz-adv-x="660" d="M104 420l-11 -60h92q1 -8 1 -15q0 -6 1 -13l-87 -35l15 -54l86 35q3 -7 8 -14l-75 -63l35 -42l74 63q3 -3 6.5 -5.5t6.5 -4.5l-50 -80l50 -24l50 80q14 -5 26 -6l-16 -92h60l16 92q8 2 15 3t14 3l21 -80l58 24l-21 80q8 4 16 10l52 -63l49 42l-51 63l12 15l74 -36l33 54 l-73 36q3 7 5.5 13.5t4.5 13.5h92l11 60h-92q0 8 -0.5 14.5t-0.5 13.5l86 35l-14 54l-86 -35q-2 4 -4 7.5t-4 6.5l74 63l-35 42l-74 -63q-6 5 -13 10l50 80l-50 24l-50 -80q-12 4 -26 6l17 92h-60l-17 -92q-8 -2 -14.5 -3t-14.5 -3l-21 80l-58 -24l21 -80q-4 -2 -8 -5t-8 -5 l-52 63l-49 -42l52 -63q-4 -4 -7 -7.5t-6 -7.5l-73 36l-34 -54l74 -36q-4 -7 -6.5 -13.5t-4.5 -13.5h-92zM249 390q5 31 21.5 58.5t40.5 47.5t53.5 32t60.5 12t56.5 -12t42 -32t23.5 -47.5t2 -58.5q-6 -31 -22.5 -58.5t-40.5 -47.5t-53.5 -32t-60.5 -12t-56.5 12t-42 32 t-23.5 47.5t-1 58.5z" />
<glyph unicode="&#xde;" horiz-adv-x="660" d="M104 420l-11 -60h92q1 -8 1 -15q0 -6 1 -13l-87 -35l15 -54l86 35q3 -7 8 -14l-75 -63l35 -42l74 63q3 -3 6.5 -5.5t6.5 -4.5l-50 -80l50 -24l50 80q14 -5 26 -6l-16 -92h60l16 92q8 2 15 3t14 3l21 -80l58 24l-21 80q8 4 16 10l52 -63l49 42l-51 63l12 15l74 -36l33 54 l-73 36q3 7 5.5 13.5t4.5 13.5h92l11 60h-92q0 8 -0.5 14.5t-0.5 13.5l86 35l-14 54l-86 -35q-2 4 -4 7.5t-4 6.5l74 63l-35 42l-74 -63q-6 5 -13 10l50 80l-50 24l-50 -80q-12 4 -26 6l17 92h-60l-17 -92q-8 -2 -14.5 -3t-14.5 -3l-21 80l-58 -24l21 -80q-4 -2 -8 -5t-8 -5 l-52 63l-49 -42l52 -63q-4 -4 -7 -7.5t-6 -7.5l-73 36l-34 -54l74 -36q-4 -7 -6.5 -13.5t-4.5 -13.5h-92zM249 390q5 31 21.5 58.5t40.5 47.5t53.5 32t60.5 12t56.5 -12t42 -32t23.5 -47.5t2 -58.5q-6 -31 -22.5 -58.5t-40.5 -47.5t-53.5 -32t-60.5 -12t-56.5 12t-42 32 t-23.5 47.5t-1 58.5z" />
<glyph unicode="&#xdf;" horiz-adv-x="660" d="M104 420l-11 -60h92q1 -8 1 -15q0 -6 1 -13l-87 -35l15 -54l86 35q3 -7 8 -14l-75 -63l35 -42l74 63q3 -3 6.5 -5.5t6.5 -4.5l-50 -80l50 -24l50 80q14 -5 26 -6l-16 -92h60l16 92q8 2 15 3t14 3l21 -80l58 24l-21 80q8 4 16 10l52 -63l49 42l-51 63l12 15l74 -36l33 54 l-73 36q3 7 5.5 13.5t4.5 13.5h92l11 60h-92q0 8 -0.5 14.5t-0.5 13.5l86 35l-14 54l-86 -35q-2 4 -4 7.5t-4 6.5l74 63l-35 42l-74 -63q-6 5 -13 10l50 80l-50 24l-50 -80q-12 4 -26 6l17 92h-60l-17 -92q-8 -2 -14.5 -3t-14.5 -3l-21 80l-58 -24l21 -80q-4 -2 -8 -5t-8 -5 l-52 63l-49 -42l52 -63q-4 -4 -7 -7.5t-6 -7.5l-73 36l-34 -54l74 -36q-4 -7 -6.5 -13.5t-4.5 -13.5h-92zM249 390q5 31 21.5 58.5t40.5 47.5t53.5 32t60.5 12t56.5 -12t42 -32t23.5 -47.5t2 -58.5q-6 -31 -22.5 -58.5t-40.5 -47.5t-53.5 -32t-60.5 -12t-56.5 12t-42 32 t-23.5 47.5t-1 58.5z" />
<glyph unicode="&#xe0;" horiz-adv-x="660" d="M104 420l-11 -60h92q1 -8 1 -15q0 -6 1 -13l-87 -35l15 -54l86 35q3 -7 8 -14l-75 -63l35 -42l74 63q3 -3 6.5 -5.5t6.5 -4.5l-50 -80l50 -24l50 80q14 -5 26 -6l-16 -92h60l16 92q8 2 15 3t14 3l21 -80l58 24l-21 80q8 4 16 10l52 -63l49 42l-51 63l12 15l74 -36l33 54 l-73 36q3 7 5.5 13.5t4.5 13.5h92l11 60h-92q0 8 -0.5 14.5t-0.5 13.5l86 35l-14 54l-86 -35q-2 4 -4 7.5t-4 6.5l74 63l-35 42l-74 -63q-6 5 -13 10l50 80l-50 24l-50 -80q-12 4 -26 6l17 92h-60l-17 -92q-8 -2 -14.5 -3t-14.5 -3l-21 80l-58 -24l21 -80q-4 -2 -8 -5t-8 -5 l-52 63l-49 -42l52 -63q-4 -4 -7 -7.5t-6 -7.5l-73 36l-34 -54l74 -36q-4 -7 -6.5 -13.5t-4.5 -13.5h-92zM249 390q5 31 21.5 58.5t40.5 47.5t53.5 32t60.5 12t56.5 -12t42 -32t23.5 -47.5t2 -58.5q-6 -31 -22.5 -58.5t-40.5 -47.5t-53.5 -32t-60.5 -12t-56.5 12t-42 32 t-23.5 47.5t-1 58.5z" />
<glyph unicode="&#xe1;" horiz-adv-x="660" d="M104 420l-11 -60h92q1 -8 1 -15q0 -6 1 -13l-87 -35l15 -54l86 35q3 -7 8 -14l-75 -63l35 -42l74 63q3 -3 6.5 -5.5t6.5 -4.5l-50 -80l50 -24l50 80q14 -5 26 -6l-16 -92h60l16 92q8 2 15 3t14 3l21 -80l58 24l-21 80q8 4 16 10l52 -63l49 42l-51 63l12 15l74 -36l33 54 l-73 36q3 7 5.5 13.5t4.5 13.5h92l11 60h-92q0 8 -0.5 14.5t-0.5 13.5l86 35l-14 54l-86 -35q-2 4 -4 7.5t-4 6.5l74 63l-35 42l-74 -63q-6 5 -13 10l50 80l-50 24l-50 -80q-12 4 -26 6l17 92h-60l-17 -92q-8 -2 -14.5 -3t-14.5 -3l-21 80l-58 -24l21 -80q-4 -2 -8 -5t-8 -5 l-52 63l-49 -42l52 -63q-4 -4 -7 -7.5t-6 -7.5l-73 36l-34 -54l74 -36q-4 -7 -6.5 -13.5t-4.5 -13.5h-92zM249 390q5 31 21.5 58.5t40.5 47.5t53.5 32t60.5 12t56.5 -12t42 -32t23.5 -47.5t2 -58.5q-6 -31 -22.5 -58.5t-40.5 -47.5t-53.5 -32t-60.5 -12t-56.5 12t-42 32 t-23.5 47.5t-1 58.5z" />
<glyph unicode="&#xe2;" horiz-adv-x="660" d="M104 420l-11 -60h92q1 -8 1 -15q0 -6 1 -13l-87 -35l15 -54l86 35q3 -7 8 -14l-75 -63l35 -42l74 63q3 -3 6.5 -5.5t6.5 -4.5l-50 -80l50 -24l50 80q14 -5 26 -6l-16 -92h60l16 92q8 2 15 3t14 3l21 -80l58 24l-21 80q8 4 16 10l52 -63l49 42l-51 63l12 15l74 -36l33 54 l-73 36q3 7 5.5 13.5t4.5 13.5h92l11 60h-92q0 8 -0.5 14.5t-0.5 13.5l86 35l-14 54l-86 -35q-2 4 -4 7.5t-4 6.5l74 63l-35 42l-74 -63q-6 5 -13 10l50 80l-50 24l-50 -80q-12 4 -26 6l17 92h-60l-17 -92q-8 -2 -14.5 -3t-14.5 -3l-21 80l-58 -24l21 -80q-4 -2 -8 -5t-8 -5 l-52 63l-49 -42l52 -63q-4 -4 -7 -7.5t-6 -7.5l-73 36l-34 -54l74 -36q-4 -7 -6.5 -13.5t-4.5 -13.5h-92zM249 390q5 31 21.5 58.5t40.5 47.5t53.5 32t60.5 12t56.5 -12t42 -32t23.5 -47.5t2 -58.5q-6 -31 -22.5 -58.5t-40.5 -47.5t-53.5 -32t-60.5 -12t-56.5 12t-42 32 t-23.5 47.5t-1 58.5z" />
<glyph unicode="&#xe3;" horiz-adv-x="660" d="M104 420l-11 -60h92q1 -8 1 -15q0 -6 1 -13l-87 -35l15 -54l86 35q3 -7 8 -14l-75 -63l35 -42l74 63q3 -3 6.5 -5.5t6.5 -4.5l-50 -80l50 -24l50 80q14 -5 26 -6l-16 -92h60l16 92q8 2 15 3t14 3l21 -80l58 24l-21 80q8 4 16 10l52 -63l49 42l-51 63l12 15l74 -36l33 54 l-73 36q3 7 5.5 13.5t4.5 13.5h92l11 60h-92q0 8 -0.5 14.5t-0.5 13.5l86 35l-14 54l-86 -35q-2 4 -4 7.5t-4 6.5l74 63l-35 42l-74 -63q-6 5 -13 10l50 80l-50 24l-50 -80q-12 4 -26 6l17 92h-60l-17 -92q-8 -2 -14.5 -3t-14.5 -3l-21 80l-58 -24l21 -80q-4 -2 -8 -5t-8 -5 l-52 63l-49 -42l52 -63q-4 -4 -7 -7.5t-6 -7.5l-73 36l-34 -54l74 -36q-4 -7 -6.5 -13.5t-4.5 -13.5h-92zM249 390q5 31 21.5 58.5t40.5 47.5t53.5 32t60.5 12t56.5 -12t42 -32t23.5 -47.5t2 -58.5q-6 -31 -22.5 -58.5t-40.5 -47.5t-53.5 -32t-60.5 -12t-56.5 12t-42 32 t-23.5 47.5t-1 58.5z" />
<glyph unicode="&#xe4;" horiz-adv-x="660" d="M104 420l-11 -60h92q1 -8 1 -15q0 -6 1 -13l-87 -35l15 -54l86 35q3 -7 8 -14l-75 -63l35 -42l74 63q3 -3 6.5 -5.5t6.5 -4.5l-50 -80l50 -24l50 80q14 -5 26 -6l-16 -92h60l16 92q8 2 15 3t14 3l21 -80l58 24l-21 80q8 4 16 10l52 -63l49 42l-51 63l12 15l74 -36l33 54 l-73 36q3 7 5.5 13.5t4.5 13.5h92l11 60h-92q0 8 -0.5 14.5t-0.5 13.5l86 35l-14 54l-86 -35q-2 4 -4 7.5t-4 6.5l74 63l-35 42l-74 -63q-6 5 -13 10l50 80l-50 24l-50 -80q-12 4 -26 6l17 92h-60l-17 -92q-8 -2 -14.5 -3t-14.5 -3l-21 80l-58 -24l21 -80q-4 -2 -8 -5t-8 -5 l-52 63l-49 -42l52 -63q-4 -4 -7 -7.5t-6 -7.5l-73 36l-34 -54l74 -36q-4 -7 -6.5 -13.5t-4.5 -13.5h-92zM249 390q5 31 21.5 58.5t40.5 47.5t53.5 32t60.5 12t56.5 -12t42 -32t23.5 -47.5t2 -58.5q-6 -31 -22.5 -58.5t-40.5 -47.5t-53.5 -32t-60.5 -12t-56.5 12t-42 32 t-23.5 47.5t-1 58.5z" />
<glyph unicode="&#xe5;" d="M173 810h360l-132 -750h-360l95 540h210l10 60h-210zM217 210h60l42 240h-60zM334 871l10 59h60l-10 -59h-60z" />
<glyph unicode="&#xe6;" horiz-adv-x="630" d="M743 810l-95 -540h-210l-11 -60h210l-26 -150h-570l95 540h210l10 60h-210l27 150h570zM319 450h-60l-42 -240h60zM524 420l42 240h-60l-42 -240h60z" />
<glyph unicode="&#xe7;" horiz-adv-x="660" d="M104 420l-11 -60h92q1 -8 1 -15q0 -6 1 -13l-87 -35l15 -54l86 35q3 -7 8 -14l-75 -63l35 -42l74 63q3 -3 6.5 -5.5t6.5 -4.5l-50 -80l50 -24l50 80q14 -5 26 -6l-16 -92h60l16 92q8 2 15 3t14 3l21 -80l58 24l-21 80q8 4 16 10l52 -63l49 42l-51 63l12 15l74 -36l33 54 l-73 36q3 7 5.5 13.5t4.5 13.5h92l11 60h-92q0 8 -0.5 14.5t-0.5 13.5l86 35l-14 54l-86 -35q-2 4 -4 7.5t-4 6.5l74 63l-35 42l-74 -63q-6 5 -13 10l50 80l-50 24l-50 -80q-12 4 -26 6l17 92h-60l-17 -92q-8 -2 -14.5 -3t-14.5 -3l-21 80l-58 -24l21 -80q-4 -2 -8 -5t-8 -5 l-52 63l-49 -42l52 -63q-4 -4 -7 -7.5t-6 -7.5l-73 36l-34 -54l74 -36q-4 -7 -6.5 -13.5t-4.5 -13.5h-92zM249 390q5 31 21.5 58.5t40.5 47.5t53.5 32t60.5 12t56.5 -12t42 -32t23.5 -47.5t2 -58.5q-6 -31 -22.5 -58.5t-40.5 -47.5t-53.5 -32t-60.5 -12t-56.5 12t-42 32 t-23.5 47.5t-1 58.5z" />
<glyph unicode="&#xe8;" horiz-adv-x="660" d="M104 420l-11 -60h92q1 -8 1 -15q0 -6 1 -13l-87 -35l15 -54l86 35q3 -7 8 -14l-75 -63l35 -42l74 63q3 -3 6.5 -5.5t6.5 -4.5l-50 -80l50 -24l50 80q14 -5 26 -6l-16 -92h60l16 92q8 2 15 3t14 3l21 -80l58 24l-21 80q8 4 16 10l52 -63l49 42l-51 63l12 15l74 -36l33 54 l-73 36q3 7 5.5 13.5t4.5 13.5h92l11 60h-92q0 8 -0.5 14.5t-0.5 13.5l86 35l-14 54l-86 -35q-2 4 -4 7.5t-4 6.5l74 63l-35 42l-74 -63q-6 5 -13 10l50 80l-50 24l-50 -80q-12 4 -26 6l17 92h-60l-17 -92q-8 -2 -14.5 -3t-14.5 -3l-21 80l-58 -24l21 -80q-4 -2 -8 -5t-8 -5 l-52 63l-49 -42l52 -63q-4 -4 -7 -7.5t-6 -7.5l-73 36l-34 -54l74 -36q-4 -7 -6.5 -13.5t-4.5 -13.5h-92zM249 390q5 31 21.5 58.5t40.5 47.5t53.5 32t60.5 12t56.5 -12t42 -32t23.5 -47.5t2 -58.5q-6 -31 -22.5 -58.5t-40.5 -47.5t-53.5 -32t-60.5 -12t-56.5 12t-42 32 t-23.5 47.5t-1 58.5z" />
<glyph unicode="&#xe9;" horiz-adv-x="660" d="M104 420l-11 -60h92q1 -8 1 -15q0 -6 1 -13l-87 -35l15 -54l86 35q3 -7 8 -14l-75 -63l35 -42l74 63q3 -3 6.5 -5.5t6.5 -4.5l-50 -80l50 -24l50 80q14 -5 26 -6l-16 -92h60l16 92q8 2 15 3t14 3l21 -80l58 24l-21 80q8 4 16 10l52 -63l49 42l-51 63l12 15l74 -36l33 54 l-73 36q3 7 5.5 13.5t4.5 13.5h92l11 60h-92q0 8 -0.5 14.5t-0.5 13.5l86 35l-14 54l-86 -35q-2 4 -4 7.5t-4 6.5l74 63l-35 42l-74 -63q-6 5 -13 10l50 80l-50 24l-50 -80q-12 4 -26 6l17 92h-60l-17 -92q-8 -2 -14.5 -3t-14.5 -3l-21 80l-58 -24l21 -80q-4 -2 -8 -5t-8 -5 l-52 63l-49 -42l52 -63q-4 -4 -7 -7.5t-6 -7.5l-73 36l-34 -54l74 -36q-4 -7 -6.5 -13.5t-4.5 -13.5h-92zM249 390q5 31 21.5 58.5t40.5 47.5t53.5 32t60.5 12t56.5 -12t42 -32t23.5 -47.5t2 -58.5q-6 -31 -22.5 -58.5t-40.5 -47.5t-53.5 -32t-60.5 -12t-56.5 12t-42 32 t-23.5 47.5t-1 58.5z" />
<glyph unicode="&#xea;" horiz-adv-x="660" d="M104 420l-11 -60h92q1 -8 1 -15q0 -6 1 -13l-87 -35l15 -54l86 35q3 -7 8 -14l-75 -63l35 -42l74 63q3 -3 6.5 -5.5t6.5 -4.5l-50 -80l50 -24l50 80q14 -5 26 -6l-16 -92h60l16 92q8 2 15 3t14 3l21 -80l58 24l-21 80q8 4 16 10l52 -63l49 42l-51 63l12 15l74 -36l33 54 l-73 36q3 7 5.5 13.5t4.5 13.5h92l11 60h-92q0 8 -0.5 14.5t-0.5 13.5l86 35l-14 54l-86 -35q-2 4 -4 7.5t-4 6.5l74 63l-35 42l-74 -63q-6 5 -13 10l50 80l-50 24l-50 -80q-12 4 -26 6l17 92h-60l-17 -92q-8 -2 -14.5 -3t-14.5 -3l-21 80l-58 -24l21 -80q-4 -2 -8 -5t-8 -5 l-52 63l-49 -42l52 -63q-4 -4 -7 -7.5t-6 -7.5l-73 36l-34 -54l74 -36q-4 -7 -6.5 -13.5t-4.5 -13.5h-92zM249 390q5 31 21.5 58.5t40.5 47.5t53.5 32t60.5 12t56.5 -12t42 -32t23.5 -47.5t2 -58.5q-6 -31 -22.5 -58.5t-40.5 -47.5t-53.5 -32t-60.5 -12t-56.5 12t-42 32 t-23.5 47.5t-1 58.5z" />
<glyph unicode="&#xeb;" horiz-adv-x="660" d="M104 420l-11 -60h92q1 -8 1 -15q0 -6 1 -13l-87 -35l15 -54l86 35q3 -7 8 -14l-75 -63l35 -42l74 63q3 -3 6.5 -5.5t6.5 -4.5l-50 -80l50 -24l50 80q14 -5 26 -6l-16 -92h60l16 92q8 2 15 3t14 3l21 -80l58 24l-21 80q8 4 16 10l52 -63l49 42l-51 63l12 15l74 -36l33 54 l-73 36q3 7 5.5 13.5t4.5 13.5h92l11 60h-92q0 8 -0.5 14.5t-0.5 13.5l86 35l-14 54l-86 -35q-2 4 -4 7.5t-4 6.5l74 63l-35 42l-74 -63q-6 5 -13 10l50 80l-50 24l-50 -80q-12 4 -26 6l17 92h-60l-17 -92q-8 -2 -14.5 -3t-14.5 -3l-21 80l-58 -24l21 -80q-4 -2 -8 -5t-8 -5 l-52 63l-49 -42l52 -63q-4 -4 -7 -7.5t-6 -7.5l-73 36l-34 -54l74 -36q-4 -7 -6.5 -13.5t-4.5 -13.5h-92zM249 390q5 31 21.5 58.5t40.5 47.5t53.5 32t60.5 12t56.5 -12t42 -32t23.5 -47.5t2 -58.5q-6 -31 -22.5 -58.5t-40.5 -47.5t-53.5 -32t-60.5 -12t-56.5 12t-42 32 t-23.5 47.5t-1 58.5z" />
<glyph unicode="&#xec;" horiz-adv-x="660" d="M104 420l-11 -60h92q1 -8 1 -15q0 -6 1 -13l-87 -35l15 -54l86 35q3 -7 8 -14l-75 -63l35 -42l74 63q3 -3 6.5 -5.5t6.5 -4.5l-50 -80l50 -24l50 80q14 -5 26 -6l-16 -92h60l16 92q8 2 15 3t14 3l21 -80l58 24l-21 80q8 4 16 10l52 -63l49 42l-51 63l12 15l74 -36l33 54 l-73 36q3 7 5.5 13.5t4.5 13.5h92l11 60h-92q0 8 -0.5 14.5t-0.5 13.5l86 35l-14 54l-86 -35q-2 4 -4 7.5t-4 6.5l74 63l-35 42l-74 -63q-6 5 -13 10l50 80l-50 24l-50 -80q-12 4 -26 6l17 92h-60l-17 -92q-8 -2 -14.5 -3t-14.5 -3l-21 80l-58 -24l21 -80q-4 -2 -8 -5t-8 -5 l-52 63l-49 -42l52 -63q-4 -4 -7 -7.5t-6 -7.5l-73 36l-34 -54l74 -36q-4 -7 -6.5 -13.5t-4.5 -13.5h-92zM249 390q5 31 21.5 58.5t40.5 47.5t53.5 32t60.5 12t56.5 -12t42 -32t23.5 -47.5t2 -58.5q-6 -31 -22.5 -58.5t-40.5 -47.5t-53.5 -32t-60.5 -12t-56.5 12t-42 32 t-23.5 47.5t-1 58.5z" />
<glyph unicode="&#xed;" horiz-adv-x="660" d="M104 420l-11 -60h92q1 -8 1 -15q0 -6 1 -13l-87 -35l15 -54l86 35q3 -7 8 -14l-75 -63l35 -42l74 63q3 -3 6.5 -5.5t6.5 -4.5l-50 -80l50 -24l50 80q14 -5 26 -6l-16 -92h60l16 92q8 2 15 3t14 3l21 -80l58 24l-21 80q8 4 16 10l52 -63l49 42l-51 63l12 15l74 -36l33 54 l-73 36q3 7 5.5 13.5t4.5 13.5h92l11 60h-92q0 8 -0.5 14.5t-0.5 13.5l86 35l-14 54l-86 -35q-2 4 -4 7.5t-4 6.5l74 63l-35 42l-74 -63q-6 5 -13 10l50 80l-50 24l-50 -80q-12 4 -26 6l17 92h-60l-17 -92q-8 -2 -14.5 -3t-14.5 -3l-21 80l-58 -24l21 -80q-4 -2 -8 -5t-8 -5 l-52 63l-49 -42l52 -63q-4 -4 -7 -7.5t-6 -7.5l-73 36l-34 -54l74 -36q-4 -7 -6.5 -13.5t-4.5 -13.5h-92zM249 390q5 31 21.5 58.5t40.5 47.5t53.5 32t60.5 12t56.5 -12t42 -32t23.5 -47.5t2 -58.5q-6 -31 -22.5 -58.5t-40.5 -47.5t-53.5 -32t-60.5 -12t-56.5 12t-42 32 t-23.5 47.5t-1 58.5z" />
<glyph unicode="&#xee;" horiz-adv-x="660" d="M104 420l-11 -60h92q1 -8 1 -15q0 -6 1 -13l-87 -35l15 -54l86 35q3 -7 8 -14l-75 -63l35 -42l74 63q3 -3 6.5 -5.5t6.5 -4.5l-50 -80l50 -24l50 80q14 -5 26 -6l-16 -92h60l16 92q8 2 15 3t14 3l21 -80l58 24l-21 80q8 4 16 10l52 -63l49 42l-51 63l12 15l74 -36l33 54 l-73 36q3 7 5.5 13.5t4.5 13.5h92l11 60h-92q0 8 -0.5 14.5t-0.5 13.5l86 35l-14 54l-86 -35q-2 4 -4 7.5t-4 6.5l74 63l-35 42l-74 -63q-6 5 -13 10l50 80l-50 24l-50 -80q-12 4 -26 6l17 92h-60l-17 -92q-8 -2 -14.5 -3t-14.5 -3l-21 80l-58 -24l21 -80q-4 -2 -8 -5t-8 -5 l-52 63l-49 -42l52 -63q-4 -4 -7 -7.5t-6 -7.5l-73 36l-34 -54l74 -36q-4 -7 -6.5 -13.5t-4.5 -13.5h-92zM249 390q5 31 21.5 58.5t40.5 47.5t53.5 32t60.5 12t56.5 -12t42 -32t23.5 -47.5t2 -58.5q-6 -31 -22.5 -58.5t-40.5 -47.5t-53.5 -32t-60.5 -12t-56.5 12t-42 32 t-23.5 47.5t-1 58.5z" />
<glyph unicode="&#xef;" horiz-adv-x="660" d="M104 420l-11 -60h92q1 -8 1 -15q0 -6 1 -13l-87 -35l15 -54l86 35q3 -7 8 -14l-75 -63l35 -42l74 63q3 -3 6.5 -5.5t6.5 -4.5l-50 -80l50 -24l50 80q14 -5 26 -6l-16 -92h60l16 92q8 2 15 3t14 3l21 -80l58 24l-21 80q8 4 16 10l52 -63l49 42l-51 63l12 15l74 -36l33 54 l-73 36q3 7 5.5 13.5t4.5 13.5h92l11 60h-92q0 8 -0.5 14.5t-0.5 13.5l86 35l-14 54l-86 -35q-2 4 -4 7.5t-4 6.5l74 63l-35 42l-74 -63q-6 5 -13 10l50 80l-50 24l-50 -80q-12 4 -26 6l17 92h-60l-17 -92q-8 -2 -14.5 -3t-14.5 -3l-21 80l-58 -24l21 -80q-4 -2 -8 -5t-8 -5 l-52 63l-49 -42l52 -63q-4 -4 -7 -7.5t-6 -7.5l-73 36l-34 -54l74 -36q-4 -7 -6.5 -13.5t-4.5 -13.5h-92zM249 390q5 31 21.5 58.5t40.5 47.5t53.5 32t60.5 12t56.5 -12t42 -32t23.5 -47.5t2 -58.5q-6 -31 -22.5 -58.5t-40.5 -47.5t-53.5 -32t-60.5 -12t-56.5 12t-42 32 t-23.5 47.5t-1 58.5z" />
<glyph unicode="&#xf0;" horiz-adv-x="660" d="M104 420l-11 -60h92q1 -8 1 -15q0 -6 1 -13l-87 -35l15 -54l86 35q3 -7 8 -14l-75 -63l35 -42l74 63q3 -3 6.5 -5.5t6.5 -4.5l-50 -80l50 -24l50 80q14 -5 26 -6l-16 -92h60l16 92q8 2 15 3t14 3l21 -80l58 24l-21 80q8 4 16 10l52 -63l49 42l-51 63l12 15l74 -36l33 54 l-73 36q3 7 5.5 13.5t4.5 13.5h92l11 60h-92q0 8 -0.5 14.5t-0.5 13.5l86 35l-14 54l-86 -35q-2 4 -4 7.5t-4 6.5l74 63l-35 42l-74 -63q-6 5 -13 10l50 80l-50 24l-50 -80q-12 4 -26 6l17 92h-60l-17 -92q-8 -2 -14.5 -3t-14.5 -3l-21 80l-58 -24l21 -80q-4 -2 -8 -5t-8 -5 l-52 63l-49 -42l52 -63q-4 -4 -7 -7.5t-6 -7.5l-73 36l-34 -54l74 -36q-4 -7 -6.5 -13.5t-4.5 -13.5h-92zM249 390q5 31 21.5 58.5t40.5 47.5t53.5 32t60.5 12t56.5 -12t42 -32t23.5 -47.5t2 -58.5q-6 -31 -22.5 -58.5t-40.5 -47.5t-53.5 -32t-60.5 -12t-56.5 12t-42 32 t-23.5 47.5t-1 58.5z" />
<glyph unicode="&#xf1;" horiz-adv-x="660" d="M104 420l-11 -60h92q1 -8 1 -15q0 -6 1 -13l-87 -35l15 -54l86 35q3 -7 8 -14l-75 -63l35 -42l74 63q3 -3 6.5 -5.5t6.5 -4.5l-50 -80l50 -24l50 80q14 -5 26 -6l-16 -92h60l16 92q8 2 15 3t14 3l21 -80l58 24l-21 80q8 4 16 10l52 -63l49 42l-51 63l12 15l74 -36l33 54 l-73 36q3 7 5.5 13.5t4.5 13.5h92l11 60h-92q0 8 -0.5 14.5t-0.5 13.5l86 35l-14 54l-86 -35q-2 4 -4 7.5t-4 6.5l74 63l-35 42l-74 -63q-6 5 -13 10l50 80l-50 24l-50 -80q-12 4 -26 6l17 92h-60l-17 -92q-8 -2 -14.5 -3t-14.5 -3l-21 80l-58 -24l21 -80q-4 -2 -8 -5t-8 -5 l-52 63l-49 -42l52 -63q-4 -4 -7 -7.5t-6 -7.5l-73 36l-34 -54l74 -36q-4 -7 -6.5 -13.5t-4.5 -13.5h-92zM249 390q5 31 21.5 58.5t40.5 47.5t53.5 32t60.5 12t56.5 -12t42 -32t23.5 -47.5t2 -58.5q-6 -31 -22.5 -58.5t-40.5 -47.5t-53.5 -32t-60.5 -12t-56.5 12t-42 32 t-23.5 47.5t-1 58.5z" />
<glyph unicode="&#xf2;" horiz-adv-x="660" d="M104 420l-11 -60h92q1 -8 1 -15q0 -6 1 -13l-87 -35l15 -54l86 35q3 -7 8 -14l-75 -63l35 -42l74 63q3 -3 6.5 -5.5t6.5 -4.5l-50 -80l50 -24l50 80q14 -5 26 -6l-16 -92h60l16 92q8 2 15 3t14 3l21 -80l58 24l-21 80q8 4 16 10l52 -63l49 42l-51 63l12 15l74 -36l33 54 l-73 36q3 7 5.5 13.5t4.5 13.5h92l11 60h-92q0 8 -0.5 14.5t-0.5 13.5l86 35l-14 54l-86 -35q-2 4 -4 7.5t-4 6.5l74 63l-35 42l-74 -63q-6 5 -13 10l50 80l-50 24l-50 -80q-12 4 -26 6l17 92h-60l-17 -92q-8 -2 -14.5 -3t-14.5 -3l-21 80l-58 -24l21 -80q-4 -2 -8 -5t-8 -5 l-52 63l-49 -42l52 -63q-4 -4 -7 -7.5t-6 -7.5l-73 36l-34 -54l74 -36q-4 -7 -6.5 -13.5t-4.5 -13.5h-92zM249 390q5 31 21.5 58.5t40.5 47.5t53.5 32t60.5 12t56.5 -12t42 -32t23.5 -47.5t2 -58.5q-6 -31 -22.5 -58.5t-40.5 -47.5t-53.5 -32t-60.5 -12t-56.5 12t-42 32 t-23.5 47.5t-1 58.5z" />
<glyph unicode="&#xf3;" horiz-adv-x="660" d="M104 420l-11 -60h92q1 -8 1 -15q0 -6 1 -13l-87 -35l15 -54l86 35q3 -7 8 -14l-75 -63l35 -42l74 63q3 -3 6.5 -5.5t6.5 -4.5l-50 -80l50 -24l50 80q14 -5 26 -6l-16 -92h60l16 92q8 2 15 3t14 3l21 -80l58 24l-21 80q8 4 16 10l52 -63l49 42l-51 63l12 15l74 -36l33 54 l-73 36q3 7 5.5 13.5t4.5 13.5h92l11 60h-92q0 8 -0.5 14.5t-0.5 13.5l86 35l-14 54l-86 -35q-2 4 -4 7.5t-4 6.5l74 63l-35 42l-74 -63q-6 5 -13 10l50 80l-50 24l-50 -80q-12 4 -26 6l17 92h-60l-17 -92q-8 -2 -14.5 -3t-14.5 -3l-21 80l-58 -24l21 -80q-4 -2 -8 -5t-8 -5 l-52 63l-49 -42l52 -63q-4 -4 -7 -7.5t-6 -7.5l-73 36l-34 -54l74 -36q-4 -7 -6.5 -13.5t-4.5 -13.5h-92zM249 390q5 31 21.5 58.5t40.5 47.5t53.5 32t60.5 12t56.5 -12t42 -32t23.5 -47.5t2 -58.5q-6 -31 -22.5 -58.5t-40.5 -47.5t-53.5 -32t-60.5 -12t-56.5 12t-42 32 t-23.5 47.5t-1 58.5z" />
<glyph unicode="&#xf4;" horiz-adv-x="660" d="M104 420l-11 -60h92q1 -8 1 -15q0 -6 1 -13l-87 -35l15 -54l86 35q3 -7 8 -14l-75 -63l35 -42l74 63q3 -3 6.5 -5.5t6.5 -4.5l-50 -80l50 -24l50 80q14 -5 26 -6l-16 -92h60l16 92q8 2 15 3t14 3l21 -80l58 24l-21 80q8 4 16 10l52 -63l49 42l-51 63l12 15l74 -36l33 54 l-73 36q3 7 5.5 13.5t4.5 13.5h92l11 60h-92q0 8 -0.5 14.5t-0.5 13.5l86 35l-14 54l-86 -35q-2 4 -4 7.5t-4 6.5l74 63l-35 42l-74 -63q-6 5 -13 10l50 80l-50 24l-50 -80q-12 4 -26 6l17 92h-60l-17 -92q-8 -2 -14.5 -3t-14.5 -3l-21 80l-58 -24l21 -80q-4 -2 -8 -5t-8 -5 l-52 63l-49 -42l52 -63q-4 -4 -7 -7.5t-6 -7.5l-73 36l-34 -54l74 -36q-4 -7 -6.5 -13.5t-4.5 -13.5h-92zM249 390q5 31 21.5 58.5t40.5 47.5t53.5 32t60.5 12t56.5 -12t42 -32t23.5 -47.5t2 -58.5q-6 -31 -22.5 -58.5t-40.5 -47.5t-53.5 -32t-60.5 -12t-56.5 12t-42 32 t-23.5 47.5t-1 58.5z" />
<glyph unicode="&#xf5;" horiz-adv-x="660" d="M104 420l-11 -60h92q1 -8 1 -15q0 -6 1 -13l-87 -35l15 -54l86 35q3 -7 8 -14l-75 -63l35 -42l74 63q3 -3 6.5 -5.5t6.5 -4.5l-50 -80l50 -24l50 80q14 -5 26 -6l-16 -92h60l16 92q8 2 15 3t14 3l21 -80l58 24l-21 80q8 4 16 10l52 -63l49 42l-51 63l12 15l74 -36l33 54 l-73 36q3 7 5.5 13.5t4.5 13.5h92l11 60h-92q0 8 -0.5 14.5t-0.5 13.5l86 35l-14 54l-86 -35q-2 4 -4 7.5t-4 6.5l74 63l-35 42l-74 -63q-6 5 -13 10l50 80l-50 24l-50 -80q-12 4 -26 6l17 92h-60l-17 -92q-8 -2 -14.5 -3t-14.5 -3l-21 80l-58 -24l21 -80q-4 -2 -8 -5t-8 -5 l-52 63l-49 -42l52 -63q-4 -4 -7 -7.5t-6 -7.5l-73 36l-34 -54l74 -36q-4 -7 -6.5 -13.5t-4.5 -13.5h-92zM249 390q5 31 21.5 58.5t40.5 47.5t53.5 32t60.5 12t56.5 -12t42 -32t23.5 -47.5t2 -58.5q-6 -31 -22.5 -58.5t-40.5 -47.5t-53.5 -32t-60.5 -12t-56.5 12t-42 32 t-23.5 47.5t-1 58.5z" />
<glyph unicode="&#xf6;" horiz-adv-x="660" d="M104 420l-11 -60h92q1 -8 1 -15q0 -6 1 -13l-87 -35l15 -54l86 35q3 -7 8 -14l-75 -63l35 -42l74 63q3 -3 6.5 -5.5t6.5 -4.5l-50 -80l50 -24l50 80q14 -5 26 -6l-16 -92h60l16 92q8 2 15 3t14 3l21 -80l58 24l-21 80q8 4 16 10l52 -63l49 42l-51 63l12 15l74 -36l33 54 l-73 36q3 7 5.5 13.5t4.5 13.5h92l11 60h-92q0 8 -0.5 14.5t-0.5 13.5l86 35l-14 54l-86 -35q-2 4 -4 7.5t-4 6.5l74 63l-35 42l-74 -63q-6 5 -13 10l50 80l-50 24l-50 -80q-12 4 -26 6l17 92h-60l-17 -92q-8 -2 -14.5 -3t-14.5 -3l-21 80l-58 -24l21 -80q-4 -2 -8 -5t-8 -5 l-52 63l-49 -42l52 -63q-4 -4 -7 -7.5t-6 -7.5l-73 36l-34 -54l74 -36q-4 -7 -6.5 -13.5t-4.5 -13.5h-92zM249 390q5 31 21.5 58.5t40.5 47.5t53.5 32t60.5 12t56.5 -12t42 -32t23.5 -47.5t2 -58.5q-6 -31 -22.5 -58.5t-40.5 -47.5t-53.5 -32t-60.5 -12t-56.5 12t-42 32 t-23.5 47.5t-1 58.5z" />
<glyph unicode="&#xf7;" horiz-adv-x="660" d="M104 420l-11 -60h92q1 -8 1 -15q0 -6 1 -13l-87 -35l15 -54l86 35q3 -7 8 -14l-75 -63l35 -42l74 63q3 -3 6.5 -5.5t6.5 -4.5l-50 -80l50 -24l50 80q14 -5 26 -6l-16 -92h60l16 92q8 2 15 3t14 3l21 -80l58 24l-21 80q8 4 16 10l52 -63l49 42l-51 63l12 15l74 -36l33 54 l-73 36q3 7 5.5 13.5t4.5 13.5h92l11 60h-92q0 8 -0.5 14.5t-0.5 13.5l86 35l-14 54l-86 -35q-2 4 -4 7.5t-4 6.5l74 63l-35 42l-74 -63q-6 5 -13 10l50 80l-50 24l-50 -80q-12 4 -26 6l17 92h-60l-17 -92q-8 -2 -14.5 -3t-14.5 -3l-21 80l-58 -24l21 -80q-4 -2 -8 -5t-8 -5 l-52 63l-49 -42l52 -63q-4 -4 -7 -7.5t-6 -7.5l-73 36l-34 -54l74 -36q-4 -7 -6.5 -13.5t-4.5 -13.5h-92zM249 390q5 31 21.5 58.5t40.5 47.5t53.5 32t60.5 12t56.5 -12t42 -32t23.5 -47.5t2 -58.5q-6 -31 -22.5 -58.5t-40.5 -47.5t-53.5 -32t-60.5 -12t-56.5 12t-42 32 t-23.5 47.5t-1 58.5z" />
<glyph unicode="&#xf8;" d="M173 810h300l21 120h60l-153 -870h-300l-22 -120h-60zM356 660h-60l-79 -450h60z" />
<glyph unicode="&#xf9;" horiz-adv-x="660" d="M104 420l-11 -60h92q1 -8 1 -15q0 -6 1 -13l-87 -35l15 -54l86 35q3 -7 8 -14l-75 -63l35 -42l74 63q3 -3 6.5 -5.5t6.5 -4.5l-50 -80l50 -24l50 80q14 -5 26 -6l-16 -92h60l16 92q8 2 15 3t14 3l21 -80l58 24l-21 80q8 4 16 10l52 -63l49 42l-51 63l12 15l74 -36l33 54 l-73 36q3 7 5.5 13.5t4.5 13.5h92l11 60h-92q0 8 -0.5 14.5t-0.5 13.5l86 35l-14 54l-86 -35q-2 4 -4 7.5t-4 6.5l74 63l-35 42l-74 -63q-6 5 -13 10l50 80l-50 24l-50 -80q-12 4 -26 6l17 92h-60l-17 -92q-8 -2 -14.5 -3t-14.5 -3l-21 80l-58 -24l21 -80q-4 -2 -8 -5t-8 -5 l-52 63l-49 -42l52 -63q-4 -4 -7 -7.5t-6 -7.5l-73 36l-34 -54l74 -36q-4 -7 -6.5 -13.5t-4.5 -13.5h-92zM249 390q5 31 21.5 58.5t40.5 47.5t53.5 32t60.5 12t56.5 -12t42 -32t23.5 -47.5t2 -58.5q-6 -31 -22.5 -58.5t-40.5 -47.5t-53.5 -32t-60.5 -12t-56.5 12t-42 32 t-23.5 47.5t-1 58.5z" />
<glyph unicode="&#xfa;" horiz-adv-x="660" d="M104 420l-11 -60h92q1 -8 1 -15q0 -6 1 -13l-87 -35l15 -54l86 35q3 -7 8 -14l-75 -63l35 -42l74 63q3 -3 6.5 -5.5t6.5 -4.5l-50 -80l50 -24l50 80q14 -5 26 -6l-16 -92h60l16 92q8 2 15 3t14 3l21 -80l58 24l-21 80q8 4 16 10l52 -63l49 42l-51 63l12 15l74 -36l33 54 l-73 36q3 7 5.5 13.5t4.5 13.5h92l11 60h-92q0 8 -0.5 14.5t-0.5 13.5l86 35l-14 54l-86 -35q-2 4 -4 7.5t-4 6.5l74 63l-35 42l-74 -63q-6 5 -13 10l50 80l-50 24l-50 -80q-12 4 -26 6l17 92h-60l-17 -92q-8 -2 -14.5 -3t-14.5 -3l-21 80l-58 -24l21 -80q-4 -2 -8 -5t-8 -5 l-52 63l-49 -42l52 -63q-4 -4 -7 -7.5t-6 -7.5l-73 36l-34 -54l74 -36q-4 -7 -6.5 -13.5t-4.5 -13.5h-92zM249 390q5 31 21.5 58.5t40.5 47.5t53.5 32t60.5 12t56.5 -12t42 -32t23.5 -47.5t2 -58.5q-6 -31 -22.5 -58.5t-40.5 -47.5t-53.5 -32t-60.5 -12t-56.5 12t-42 32 t-23.5 47.5t-1 58.5z" />
<glyph unicode="&#xfb;" horiz-adv-x="660" d="M104 420l-11 -60h92q1 -8 1 -15q0 -6 1 -13l-87 -35l15 -54l86 35q3 -7 8 -14l-75 -63l35 -42l74 63q3 -3 6.5 -5.5t6.5 -4.5l-50 -80l50 -24l50 80q14 -5 26 -6l-16 -92h60l16 92q8 2 15 3t14 3l21 -80l58 24l-21 80q8 4 16 10l52 -63l49 42l-51 63l12 15l74 -36l33 54 l-73 36q3 7 5.5 13.5t4.5 13.5h92l11 60h-92q0 8 -0.5 14.5t-0.5 13.5l86 35l-14 54l-86 -35q-2 4 -4 7.5t-4 6.5l74 63l-35 42l-74 -63q-6 5 -13 10l50 80l-50 24l-50 -80q-12 4 -26 6l17 92h-60l-17 -92q-8 -2 -14.5 -3t-14.5 -3l-21 80l-58 -24l21 -80q-4 -2 -8 -5t-8 -5 l-52 63l-49 -42l52 -63q-4 -4 -7 -7.5t-6 -7.5l-73 36l-34 -54l74 -36q-4 -7 -6.5 -13.5t-4.5 -13.5h-92zM249 390q5 31 21.5 58.5t40.5 47.5t53.5 32t60.5 12t56.5 -12t42 -32t23.5 -47.5t2 -58.5q-6 -31 -22.5 -58.5t-40.5 -47.5t-53.5 -32t-60.5 -12t-56.5 12t-42 32 t-23.5 47.5t-1 58.5z" />
<glyph unicode="&#xfc;" horiz-adv-x="660" d="M104 420l-11 -60h92q1 -8 1 -15q0 -6 1 -13l-87 -35l15 -54l86 35q3 -7 8 -14l-75 -63l35 -42l74 63q3 -3 6.5 -5.5t6.5 -4.5l-50 -80l50 -24l50 80q14 -5 26 -6l-16 -92h60l16 92q8 2 15 3t14 3l21 -80l58 24l-21 80q8 4 16 10l52 -63l49 42l-51 63l12 15l74 -36l33 54 l-73 36q3 7 5.5 13.5t4.5 13.5h92l11 60h-92q0 8 -0.5 14.5t-0.5 13.5l86 35l-14 54l-86 -35q-2 4 -4 7.5t-4 6.5l74 63l-35 42l-74 -63q-6 5 -13 10l50 80l-50 24l-50 -80q-12 4 -26 6l17 92h-60l-17 -92q-8 -2 -14.5 -3t-14.5 -3l-21 80l-58 -24l21 -80q-4 -2 -8 -5t-8 -5 l-52 63l-49 -42l52 -63q-4 -4 -7 -7.5t-6 -7.5l-73 36l-34 -54l74 -36q-4 -7 -6.5 -13.5t-4.5 -13.5h-92zM249 390q5 31 21.5 58.5t40.5 47.5t53.5 32t60.5 12t56.5 -12t42 -32t23.5 -47.5t2 -58.5q-6 -31 -22.5 -58.5t-40.5 -47.5t-53.5 -32t-60.5 -12t-56.5 12t-42 32 t-23.5 47.5t-1 58.5z" />
<glyph unicode="&#xfd;" horiz-adv-x="660" d="M104 420l-11 -60h92q1 -8 1 -15q0 -6 1 -13l-87 -35l15 -54l86 35q3 -7 8 -14l-75 -63l35 -42l74 63q3 -3 6.5 -5.5t6.5 -4.5l-50 -80l50 -24l50 80q14 -5 26 -6l-16 -92h60l16 92q8 2 15 3t14 3l21 -80l58 24l-21 80q8 4 16 10l52 -63l49 42l-51 63l12 15l74 -36l33 54 l-73 36q3 7 5.5 13.5t4.5 13.5h92l11 60h-92q0 8 -0.5 14.5t-0.5 13.5l86 35l-14 54l-86 -35q-2 4 -4 7.5t-4 6.5l74 63l-35 42l-74 -63q-6 5 -13 10l50 80l-50 24l-50 -80q-12 4 -26 6l17 92h-60l-17 -92q-8 -2 -14.5 -3t-14.5 -3l-21 80l-58 -24l21 -80q-4 -2 -8 -5t-8 -5 l-52 63l-49 -42l52 -63q-4 -4 -7 -7.5t-6 -7.5l-73 36l-34 -54l74 -36q-4 -7 -6.5 -13.5t-4.5 -13.5h-92zM249 390q5 31 21.5 58.5t40.5 47.5t53.5 32t60.5 12t56.5 -12t42 -32t23.5 -47.5t2 -58.5q-6 -31 -22.5 -58.5t-40.5 -47.5t-53.5 -32t-60.5 -12t-56.5 12t-42 32 t-23.5 47.5t-1 58.5z" />
<glyph unicode="&#xfe;" horiz-adv-x="660" d="M104 420l-11 -60h92q1 -8 1 -15q0 -6 1 -13l-87 -35l15 -54l86 35q3 -7 8 -14l-75 -63l35 -42l74 63q3 -3 6.5 -5.5t6.5 -4.5l-50 -80l50 -24l50 80q14 -5 26 -6l-16 -92h60l16 92q8 2 15 3t14 3l21 -80l58 24l-21 80q8 4 16 10l52 -63l49 42l-51 63l12 15l74 -36l33 54 l-73 36q3 7 5.5 13.5t4.5 13.5h92l11 60h-92q0 8 -0.5 14.5t-0.5 13.5l86 35l-14 54l-86 -35q-2 4 -4 7.5t-4 6.5l74 63l-35 42l-74 -63q-6 5 -13 10l50 80l-50 24l-50 -80q-12 4 -26 6l17 92h-60l-17 -92q-8 -2 -14.5 -3t-14.5 -3l-21 80l-58 -24l21 -80q-4 -2 -8 -5t-8 -5 l-52 63l-49 -42l52 -63q-4 -4 -7 -7.5t-6 -7.5l-73 36l-34 -54l74 -36q-4 -7 -6.5 -13.5t-4.5 -13.5h-92zM249 390q5 31 21.5 58.5t40.5 47.5t53.5 32t60.5 12t56.5 -12t42 -32t23.5 -47.5t2 -58.5q-6 -31 -22.5 -58.5t-40.5 -47.5t-53.5 -32t-60.5 -12t-56.5 12t-42 32 t-23.5 47.5t-1 58.5z" />
<glyph unicode="&#xff;" horiz-adv-x="660" d="M104 420l-11 -60h92q1 -8 1 -15q0 -6 1 -13l-87 -35l15 -54l86 35q3 -7 8 -14l-75 -63l35 -42l74 63q3 -3 6.5 -5.5t6.5 -4.5l-50 -80l50 -24l50 80q14 -5 26 -6l-16 -92h60l16 92q8 2 15 3t14 3l21 -80l58 24l-21 80q8 4 16 10l52 -63l49 42l-51 63l12 15l74 -36l33 54 l-73 36q3 7 5.5 13.5t4.5 13.5h92l11 60h-92q0 8 -0.5 14.5t-0.5 13.5l86 35l-14 54l-86 -35q-2 4 -4 7.5t-4 6.5l74 63l-35 42l-74 -63q-6 5 -13 10l50 80l-50 24l-50 -80q-12 4 -26 6l17 92h-60l-17 -92q-8 -2 -14.5 -3t-14.5 -3l-21 80l-58 -24l21 -80q-4 -2 -8 -5t-8 -5 l-52 63l-49 -42l52 -63q-4 -4 -7 -7.5t-6 -7.5l-73 36l-34 -54l74 -36q-4 -7 -6.5 -13.5t-4.5 -13.5h-92zM249 390q5 31 21.5 58.5t40.5 47.5t53.5 32t60.5 12t56.5 -12t42 -32t23.5 -47.5t2 -58.5q-6 -31 -22.5 -58.5t-40.5 -47.5t-53.5 -32t-60.5 -12t-56.5 12t-42 32 t-23.5 47.5t-1 58.5z" />
<glyph unicode="&#x2000;" horiz-adv-x="465" />
<glyph unicode="&#x2001;" horiz-adv-x="930" />
<glyph unicode="&#x2002;" horiz-adv-x="465" />
<glyph unicode="&#x2003;" horiz-adv-x="930" />
<glyph unicode="&#x2004;" horiz-adv-x="310" />
<glyph unicode="&#x2005;" horiz-adv-x="232" />
<glyph unicode="&#x2006;" horiz-adv-x="155" />
<glyph unicode="&#x2007;" horiz-adv-x="155" />
<glyph unicode="&#x2008;" horiz-adv-x="116" />
<glyph unicode="&#x2009;" horiz-adv-x="186" />
<glyph unicode="&#x200a;" horiz-adv-x="51" />
<glyph unicode="&#x2010;" d="M120 510h360l-27 -150h-360z" />
<glyph unicode="&#x2011;" d="M120 510h360l-27 -150h-360z" />
<glyph unicode="&#x2012;" d="M120 510h360l-27 -150h-360z" />
<glyph unicode="&#x2013;" horiz-adv-x="533" d="M128 510h465l-35 -150h-465z" />
<glyph unicode="&#x2014;" horiz-adv-x="1033" d="M163 510h930l-70 -150h-930z" />
<glyph unicode="&#x2018;" horiz-adv-x="210" d="M173 810h150l-42 -240h-150z" />
<glyph unicode="&#x2019;" horiz-adv-x="210" d="M173 810h150l-42 -240h-150z" />
<glyph unicode="&#x201c;" d="M173 810h150l-42 -240h-150zM383 810h150l-42 -240h-150z" />
<glyph unicode="&#x201d;" d="M173 810h150l-42 -240h-150zM383 810h150l-42 -240h-150z" />
<glyph unicode="&#x202f;" horiz-adv-x="186" />
<glyph unicode="&#x205f;" horiz-adv-x="232" />
<glyph unicode="&#xe000;" horiz-adv-x="810" d="M0 810h810v-810h-810v810z" />
</font>
</defs>
</svg>
