<?xml version="1.0" standalone="no"?>
<!DOCTYPE svg PUBLIC "-//W3C//DTD SVG 1.1//EN" "http://www.w3.org/Graphics/SVG/1.1/DTD/svg11.dtd" >
<svg xmlns="http://www.w3.org/2000/svg">
<metadata></metadata>
<defs>
<font id="noticenotice" horiz-adv-x="890" >
<font-face units-per-em="1000" ascent="800" descent="-200" />
<missing-glyph horiz-adv-x="500" />
<glyph horiz-adv-x="1000" />
<glyph horiz-adv-x="1000" />
<glyph unicode="&#xd;" horiz-adv-x="1000" />
<glyph unicode=" " />
<glyph unicode="!" d="M45 126v548q0 52 36.5 89t89.5 37h548q53 0 89.5 -37t36.5 -89v-548q0 -52 -36.5 -89t-89.5 -37h-548q-53 0 -89.5 37t-36.5 89zM185 165q0 -10 8 -17.5t22 -7.5h460q14 0 22 7.5t8 17.5t-8 17.5t-22 7.5h-460q-14 0 -22 -7.5t-8 -17.5zM185 255q0 -10 8 -17.5t22 -7.5 h460q14 0 22 7.5t8 17.5t-8 17.5t-22 7.5h-460q-14 0 -22 -7.5t-8 -17.5zM245 576h52v-246h73v328h-64q-10 -32 -61 -36v-46zM465 408q0 -37 23 -59t66 -22t67 22t24 59v170q0 38 -23.5 60.5t-67.5 22.5q-43 0 -66 -22.5t-23 -60.5v-170zM538 403v182q0 20 17 20 q18 0 18 -20v-182q0 -20 -19 -20q-16 0 -16 20z" />
<glyph unicode="&#x22;" d="M45 126v548q0 52 36.5 89t89.5 37h548q53 0 89.5 -37t36.5 -89v-548q0 -52 -36.5 -89t-89.5 -37h-548q-53 0 -89.5 37t-36.5 89zM198 400q0 -98 71 -167.5t172 -69.5q97 0 176 73q6 4 6 10q0 4 -3.5 8t-8.5 4t-9 -4q-70 -67 -161 -67q-86 0 -147 60q-6 6 -6 15v114 q0 13 14 13h372q12 0 12 13q0 95 -72.5 165t-172.5 70q-101 0 -172 -69.5t-71 -167.5zM288 426v114q0 9 6 15q64 58 147 58q80 0 148 -58q7 -6 7 -15v-114q0 -13 -13 -13h-281q-14 0 -14 13z" />
<glyph unicode="#" d="M45 126v548q0 52 36.5 89t89.5 37h548q53 0 89.5 -37t36.5 -89v-548q0 -52 -36.5 -89t-89.5 -37h-548q-53 0 -89.5 37t-36.5 89zM185 165q0 -10 8 -17.5t22 -7.5h460q14 0 22 7.5t8 17.5t-8 17.5t-22 7.5h-460q-14 0 -22 -7.5t-8 -17.5zM185 255q0 -10 8 -17.5t22 -7.5 h460q14 0 22 7.5t8 17.5t-8 17.5t-22 7.5h-460q-14 0 -22 -7.5t-8 -17.5zM360 413q0 -82 89 -82q51 0 71 25t20 77q0 63 -39 75q39 18 39 73q0 77 -91 77q-89 0 -89 -77v-21h69v21q0 23 18 23q17 0 17 -22v-25q0 -25 -30 -25h-13v-55h10q37 0 37 -32v-36q0 -11 -6 -17 t-14 -6q-19 0 -19 23v34h-69v-30z" />
<glyph unicode="$" d="M45 126v548q0 52 36.5 89t89.5 37h548q53 0 89.5 -37t36.5 -89v-548q0 -52 -36.5 -89t-89.5 -37h-548q-53 0 -89.5 37t-36.5 89zM185 165q0 -10 8 -17.5t22 -7.5h460q14 0 22 7.5t8 17.5t-8 17.5t-22 7.5h-460q-14 0 -22 -7.5t-8 -17.5zM185 255q0 -10 8 -17.5t22 -7.5 h460q14 0 22 7.5t8 17.5t-8 17.5t-22 7.5h-460q-14 0 -22 -7.5t-8 -17.5zM352 391h96v-61h73v61h24v61h-24v45h-73v-45h-22l51 207h-73l-52 -198v-70z" />
<glyph unicode="%" d="M45 126v548q0 52 36.5 89t89.5 37h548q53 0 89.5 -37t36.5 -89v-548q0 -52 -36.5 -89t-89.5 -37h-548q-53 0 -89.5 37t-36.5 89zM185 165q0 -10 8 -17.5t22 -7.5h460q14 0 22 7.5t8 17.5t-8 17.5t-22 7.5h-460q-14 0 -22 -7.5t-8 -17.5zM185 255q0 -10 8 -17.5t22 -7.5 h460q14 0 22 7.5t8 17.5t-8 17.5t-22 7.5h-460q-14 0 -22 -7.5t-8 -17.5zM359 413q0 -83 84 -83q52 0 72 22.5t20 74.5v55q0 78 -76 78q-21 0 -38 -12v48h103v62h-165v-177h62q0 24 20 24q8 0 14.5 -6.5t6.5 -17.5v-71q0 -11 -6.5 -17.5t-14.5 -6.5q-20 0 -20 24v31h-62v-28 z" />
<glyph unicode="&#x26;" d="M45 126v548q0 52 36.5 89t89.5 37h548q53 0 89.5 -37t36.5 -89v-548q0 -52 -36.5 -89t-89.5 -37h-548q-53 0 -89.5 37t-36.5 89zM185 165q0 -10 8 -17.5t22 -7.5h460q14 0 22 7.5t8 17.5t-8 17.5t-22 7.5h-460q-14 0 -22 -7.5t-8 -17.5zM185 255q0 -10 8 -17.5t22 -7.5 h460q14 0 22 7.5t8 17.5t-8 17.5t-22 7.5h-460q-14 0 -22 -7.5t-8 -17.5zM352 596h119q-82 -153 -82 -256v-10h79v8q0 45 18.5 126t56.5 138v56h-191v-62z" />
<glyph unicode="'" d="M45 126v548q0 52 36.5 89t89.5 37h548q53 0 89.5 -37t36.5 -89v-548q0 -52 -36.5 -89t-89.5 -37h-548q-53 0 -89.5 37t-36.5 89zM115 140q0 -29 20.5 -49.5t49.5 -20.5h520q29 0 49.5 20.5t20.5 49.5v520q0 29 -20.5 49.5t-49.5 20.5h-520q-29 0 -49.5 -20.5t-20.5 -49.5 v-520zM198 400q0 98 71 167.5t172 69.5q100 0 172.5 -70t72.5 -165q0 -13 -12 -13h-372q-14 0 -14 -13v-114q0 -9 6 -15q61 -60 147 -60q91 0 161 67q4 4 9 4t8.5 -4t3.5 -8q0 -6 -6 -10q-79 -73 -176 -73q-101 0 -172 69.5t-71 167.5zM288 426q0 -13 14 -13h281q13 0 13 13 v114q0 9 -7 15q-68 58 -148 58q-83 0 -147 -58q-6 -6 -6 -15v-114z" />
<glyph unicode="(" d="M45 126v548q0 52 36.5 89t89.5 37h548q53 0 89.5 -37t36.5 -89v-548q0 -52 -36.5 -89t-89.5 -37h-548q-53 0 -89.5 37t-36.5 89zM185 165q0 -10 8 -17.5t22 -7.5h460q14 0 22 7.5t8 17.5t-8 17.5t-22 7.5h-460q-14 0 -22 -7.5t-8 -17.5zM185 255q0 -10 8 -17.5t22 -7.5 h460q14 0 22 7.5t8 17.5t-8 17.5t-22 7.5h-460q-14 0 -22 -7.5t-8 -17.5zM352 514q0 -83 67 -83q28 0 41 18l1 -1v-36q0 -27 -20 -27q-19 0 -19 27h-65q0 -82 84 -82q43 0 66 22t23 59v166q0 38 -23.5 59.5t-65.5 21.5t-65.5 -21.5t-23.5 -59.5v-63zM424 506v76q0 21 17 21 q18 0 18 -21v-76q0 -20 -18 -20q-17 0 -17 20z" />
<glyph unicode=")" d="M45 126v548q0 52 36.5 89t89.5 37h548q53 0 89.5 -37t36.5 -89v-548q0 -52 -36.5 -89t-89.5 -37h-548q-53 0 -89.5 37t-36.5 89zM185 165q0 -10 8 -17.5t22 -7.5h460q14 0 22 7.5t8 17.5t-8 17.5t-22 7.5h-460q-14 0 -22 -7.5t-8 -17.5zM185 255q0 -10 8 -17.5t22 -7.5 h460q14 0 22 7.5t8 17.5t-8 17.5t-22 7.5h-460q-14 0 -22 -7.5t-8 -17.5z" />
<glyph unicode="*" d="M45 126v548q0 52 36.5 89t89.5 37h548q53 0 89.5 -37t36.5 -89v-548q0 -52 -36.5 -89t-89.5 -37h-548q-53 0 -89.5 37t-36.5 89zM185 165q0 -10 8 -17.5t22 -7.5h460q14 0 22 7.5t8 17.5t-8 17.5t-22 7.5h-460q-14 0 -22 -7.5t-8 -17.5zM185 255q0 -10 8 -17.5t22 -7.5 h460q14 0 22 7.5t8 17.5t-8 17.5t-22 7.5h-460q-14 0 -22 -7.5t-8 -17.5zM352 411q0 -37 23.5 -59t65.5 -22q43 0 66 22t23 59v27q0 29 -6.5 44t-30.5 25q35 14 35 49v22q0 13 -2 23t-9 25.5t-26.5 24t-49.5 8.5t-49.5 -8.5t-26.5 -24t-9 -25.5t-2 -23v-22q0 -36 35 -49 q-24 -10 -30.5 -25t-6.5 -44v-27zM425 406v52q0 20 16 20q17 0 17 -20v-52q0 -21 -17 -21q-16 0 -16 21zM425 554v29q0 21 16 21q17 0 17 -21v-29q0 -21 -17 -21q-16 0 -16 21z" />
<glyph unicode="+" d="M45 126v548q0 52 36.5 89t89.5 37h548q53 0 89.5 -37t36.5 -89v-548q0 -52 -36.5 -89t-89.5 -37h-548q-53 0 -89.5 37t-36.5 89zM235 211q0 -29 21 -50t50 -21t50 21t21 50q0 34 -26 55v344q0 24 -13.5 37t-31.5 13t-31.5 -13t-13.5 -37v-344q-26 -21 -26 -55zM240 211 q0 32 26 52v347q0 22 12 34t28 12t28 -12t12 -34v-347q26 -20 26 -52q0 -27 -19.5 -46.5t-46.5 -19.5t-46.5 19.5t-19.5 46.5zM245 211q0 -25 17.5 -43t43.5 -18t43.5 18t17.5 43q0 32 -26 50v349q0 19 -10.5 30t-24.5 11t-24.5 -11t-10.5 -30v-349q-26 -18 -26 -50z M276 261v349q0 17 9 26.5t21 9.5t21 -9.5t9 -26.5v-349h-60zM416 187q0 -16 11 -29t38 -13t38 13t11 29v24h-40v-27q0 -12 -9 -12t-9 12v75q0 13 9 13t9 -13v-18h40v16q0 42 -49 42q-27 0 -38 -13t-11 -29v-70zM416 557h40v30h-40v-30zM529 303q0 -10 7 -17t17 -7t17.5 7 t7.5 17t-7.5 17.5t-17.5 7.5t-17 -7.5t-7 -17.5zM542 303q0 11 11 11t11 -11t-11 -11t-11 11z" />
<glyph unicode="," d="M45 126v548q0 52 36.5 89t89.5 37h548q53 0 89.5 -37t36.5 -89v-548q0 -52 -36.5 -89t-89.5 -37h-548q-53 0 -89.5 37t-36.5 89zM115 140q0 -29 20 -49.5t50 -20.5h520q29 0 49.5 20.5t20.5 49.5v520q0 29 -20.5 49.5t-49.5 20.5h-520q-29 0 -49.5 -20.5t-20.5 -49.5 v-520zM207 291l66 38l-60 35l12 23l74 -43l97 56l-97 57l-74 -42l-12 22l60 35l-66 38l24 42l65 -38v69h26v-84l98 -55v111l-73 42l13 23l60 -35v76h49v-75l59 34l13 -23l-72 -41v-112l97 55v84h25v-70l67 39l25 -42l-66 -39l59 -34l-13 -22l-73 41l-96 -56l96 -56l72 43 l14 -23l-59 -35l66 -38l-24 -42l-68 39v-70h-25v85l-97 55v-113l72 -41l-12 -22l-60 33v-75h-49v76l-60 -34l-13 22l73 43v111l-98 -57v-83h-26v68l-65 -37z" />
<glyph unicode="-" d="M45 126v548q0 52 36.5 89t89.5 37h548q53 0 89.5 -37t36.5 -89v-548q0 -52 -36.5 -89t-89.5 -37h-548q-53 0 -89.5 37t-36.5 89zM115 140q0 -29 20.5 -49.5t49.5 -20.5h520q29 0 49.5 20.5t20.5 49.5v520q0 29 -20.5 49.5t-49.5 20.5h-520q-29 0 -49.5 -20.5t-20.5 -49.5 v-520zM235 211q0 34 26 55v344q0 24 13.5 37t31.5 13t31.5 -13t13.5 -37v-344q26 -21 26 -55q0 -29 -21 -50t-50 -21t-50 21t-21 50zM240 211q0 -27 19.5 -46.5t46.5 -19.5t46.5 19.5t19.5 46.5q0 32 -26 52v347q0 22 -12 34t-28 12t-28 -12t-12 -34v-347q-26 -20 -26 -52z M245 211q0 32 26 50v349q0 19 10.5 30t24.5 11t24.5 -11t10.5 -30v-349q26 -18 26 -50q0 -25 -17.5 -43t-43.5 -18t-43.5 18t-17.5 43zM276 527h60v83q0 17 -9 26.5t-21 9.5t-21 -9.5t-9 -26.5v-83zM416 187v70q0 16 11 29t38 13q49 0 49 -42v-16h-40v18q0 13 -9 13t-9 -13 v-75q0 -12 9 -12t9 12v27h40v-24q0 -16 -11 -29t-38 -13t-38 13t-11 29zM529 303q0 10 7 17.5t17 7.5t17.5 -7.5t7.5 -17.5t-7.5 -17t-17.5 -7t-17 7t-7 17zM542 303q0 -11 11 -11t11 11t-11 11t-11 -11z" />
<glyph unicode="." d="M45 126v548q0 52 36.5 89t89.5 37h548q53 0 89.5 -37t36.5 -89v-548q0 -52 -36.5 -89t-89.5 -37h-548q-53 0 -89.5 37t-36.5 89zM115 140q0 -29 20 -49.5t50 -20.5h520q29 0 49.5 20.5t20.5 49.5v520q0 29 -20.5 49.5t-49.5 20.5h-520q-29 0 -49.5 -20.5t-20.5 -49.5 v-520zM195 483v178h346v-178q0 -69 -37.5 -112.5t-100.5 -43.5v-50q0 -112 113 -112q12 0 12 -13q0 -12 -12 -12q-68 0 -103 36t-35 101v75h25q49 0 81 37t32 94v153h-296v-153q0 -57 32 -94t81 -37h25v-75q0 -65 -35 -101t-103 -36q-12 0 -12 12q0 13 12 13q113 0 113 112 v50q-63 0 -100.5 43.5t-37.5 112.5zM563 538v110q0 13 12 13q13 0 13 -13v-110q0 -14 -13 -14q-12 0 -12 14zM610 153v295q47 0 47 53v147q0 13 12 13q13 0 13 -13v-148q0 -58 -47 -70v-277q0 -13 -13 -13q-12 0 -12 13zM610 538v110q0 13 12 13q13 0 13 -13v-110 q0 -14 -13 -14q-12 0 -12 14z" />
<glyph unicode="/" d="M45 126v548q0 52 36.5 89t89.5 37h548q53 0 89.5 -37t36.5 -89v-548q0 -52 -36.5 -89t-89.5 -37h-548q-53 0 -89.5 37t-36.5 89zM115 140q0 -29 20 -49.5t50 -20.5h520q29 0 49.5 20.5t20.5 49.5v520q0 29 -20.5 49.5t-49.5 20.5h-520q-29 0 -49.5 -20.5t-20.5 -49.5 v-520zM170 421q0 69 38.5 115.5t95 66t126.5 19.5q68 0 116.5 -14.5t101.5 -46.5v-85q-73 40 -135 40q-45 0 -78.5 -28.5t-33.5 -75.5t33.5 -76.5t78.5 -29.5q76 0 135 36v-91q-49 -28 -98 -39t-120 -11q-107 0 -183.5 58t-76.5 162zM182 421q0 -92 73 -150t175 -58 q116 0 205 47v62q-45 -28 -122 -28q-50 0 -87 32t-37 86t37 85t87 31q73 0 122 -32v56q-92 58 -205 58q-105 0 -176.5 -49t-71.5 -140zM227 339v119q0 33 19.5 54.5t52.5 21.5q35 0 57 -21.5t22 -54.5t-22 -55t-57 -22q-8 0 -14 3v45q6 -3 14 -3q16 0 26 8.5t10 23.5 q0 14 -10 22.5t-26 8.5q-10 0 -19 -9t-9 -22v-159q-18 0 -31 12.5t-13 27.5zM574 417v43h144v-43h-34v-60h-77v60h-33zM585 429h34v-61h54v61h34v20h-122v-20z" />
<glyph unicode="0" d="M45 126v548q0 52 36.5 89t89.5 37h548q53 0 89.5 -37t36.5 -89v-548q0 -52 -36.5 -89t-89.5 -37h-548q-53 0 -89.5 37t-36.5 89zM115 140q0 -29 20.5 -49.5t49.5 -20.5h520q29 0 49.5 20.5t20.5 49.5v520q0 29 -20.5 49.5t-49.5 20.5h-520q-29 0 -49.5 -20.5t-20.5 -49.5 v-520zM185 165q0 10 8 17.5t22 7.5h460q14 0 22 -7.5t8 -17.5t-8 -17.5t-22 -7.5h-460q-14 0 -22 7.5t-8 17.5zM185 255q0 10 8 17.5t22 7.5h460q14 0 22 -7.5t8 -17.5t-8 -17.5t-22 -7.5h-460q-14 0 -22 7.5t-8 17.5z" />
<glyph unicode="1" d="M45 126v548q0 52 36.5 89t89.5 37h548q53 0 89.5 -37t36.5 -89v-548q0 -52 -36.5 -89t-89.5 -37h-548q-53 0 -89.5 37t-36.5 89zM115 140q0 -29 20.5 -49.5t49.5 -20.5h520q29 0 49.5 20.5t20.5 49.5v520q0 29 -20.5 49.5t-49.5 20.5h-520q-29 0 -49.5 -20.5t-20.5 -49.5 v-520zM185 165q0 10 8 17.5t22 7.5h460q14 0 22 -7.5t8 -17.5t-8 -17.5t-22 -7.5h-460q-14 0 -22 7.5t-8 17.5zM185 255q0 10 8 17.5t22 7.5h460q14 0 22 -7.5t8 -17.5t-8 -17.5t-22 -7.5h-460q-14 0 -22 7.5t-8 17.5zM245 576v46q51 4 61 36h64v-328h-73v246h-52zM465 408 v170q0 38 23 60.5t66 22.5q44 0 67.5 -22.5t23.5 -60.5v-170q0 -37 -24 -59t-67 -22t-66 22t-23 59zM538 403q0 -21 17 -21q7 0 12.5 6t5.5 15v182q0 10 -5.5 16t-12.5 6q-17 0 -17 -22v-182z" />
<glyph unicode="2" d="M45 126v548q0 52 36.5 89t89.5 37h548q53 0 89.5 -37t36.5 -89v-548q0 -52 -36.5 -89t-89.5 -37h-548q-53 0 -89.5 37t-36.5 89zM115 140q0 -29 20.5 -49.5t49.5 -20.5h520q29 0 49.5 20.5t20.5 49.5v520q0 29 -20.5 49.5t-49.5 20.5h-520q-29 0 -49.5 -20.5t-20.5 -49.5 v-520zM185 165q0 10 8 17.5t22 7.5h460q14 0 22 -7.5t8 -17.5t-8 -17.5t-22 -7.5h-460q-14 0 -22 7.5t-8 17.5zM185 255q0 10 8 17.5t22 7.5h460q14 0 22 -7.5t8 -17.5t-8 -17.5t-22 -7.5h-460q-14 0 -22 7.5t-8 17.5zM352 330v20q0 35 12 64t29 48t33.5 35t28.5 35t12 40 q0 14 -6 21.5t-14 7.5t-14.5 -8t-6.5 -21v-33h-67v26q0 93 93 93q88 0 88 -86q0 -33 -14 -58t-31.5 -38.5t-38 -36t-29.5 -49.5h113v-60h-188z" />
<glyph unicode="3" d="M45 126v548q0 52 36.5 89t89.5 37h548q53 0 89.5 -37t36.5 -89v-548q0 -52 -36.5 -89t-89.5 -37h-548q-53 0 -89.5 37t-36.5 89zM115 140q0 -29 20.5 -49.5t49.5 -20.5h520q29 0 49.5 20.5t20.5 49.5v520q0 29 -20.5 49.5t-49.5 20.5h-520q-29 0 -49.5 -20.5t-20.5 -49.5 v-520zM185 165q0 10 8 17.5t22 7.5h460q14 0 22 -7.5t8 -17.5t-8 -17.5t-22 -7.5h-460q-14 0 -22 7.5t-8 17.5zM185 255q0 10 8 17.5t22 7.5h460q14 0 22 -7.5t8 -17.5t-8 -17.5t-22 -7.5h-460q-14 0 -22 7.5t-8 17.5zM359 413v30h69v-34q0 -24 20 -24t20 24v36q0 32 -37 32 h-10v55h13q30 0 30 25v25q0 22 -16 22q-19 0 -19 -23v-21h-69v21q0 77 89 77q91 0 91 -79q0 -53 -39 -71q39 -12 39 -75q0 -52 -20 -77t-71 -25q-90 0 -90 82z" />
<glyph unicode="4" d="M45 126v548q0 52 36.5 89t89.5 37h548q53 0 89.5 -37t36.5 -89v-548q0 -52 -36.5 -89t-89.5 -37h-548q-53 0 -89.5 37t-36.5 89zM115 140q0 -29 20.5 -49.5t49.5 -20.5h520q29 0 49.5 20.5t20.5 49.5v520q0 29 -20.5 49.5t-49.5 20.5h-520q-29 0 -49.5 -20.5t-20.5 -49.5 v-520zM185 165q0 10 8 17.5t22 7.5h460q14 0 22 -7.5t8 -17.5t-8 -17.5t-22 -7.5h-460q-14 0 -22 7.5t-8 17.5zM185 255q0 10 8 17.5t22 7.5h460q14 0 22 -7.5t8 -17.5t-8 -17.5t-22 -7.5h-460q-14 0 -22 7.5t-8 17.5zM352 391v70l52 198h73l-51 -207h22v45h73v-45h24v-61 h-24v-61h-73v61h-96z" />
<glyph unicode="5" d="M45 126v548q0 52 36.5 89t89.5 37h548q53 0 89.5 -37t36.5 -89v-548q0 -52 -36.5 -89t-89.5 -37h-548q-53 0 -89.5 37t-36.5 89zM115 140q0 -29 20.5 -49.5t49.5 -20.5h520q29 0 49.5 20.5t20.5 49.5v520q0 29 -20.5 49.5t-49.5 20.5h-520q-29 0 -49.5 -20.5t-20.5 -49.5 v-520zM185 165q0 10 8 17.5t22 7.5h460q14 0 22 -7.5t8 -17.5t-8 -17.5t-22 -7.5h-460q-14 0 -22 7.5t-8 17.5zM185 255q0 10 8 17.5t22 7.5h460q14 0 22 -7.5t8 -17.5t-8 -17.5t-22 -7.5h-460q-14 0 -22 7.5t-8 17.5zM359 413v28h62v-31q0 -24 20 -24q8 0 14.5 6.5 t6.5 17.5v71q0 11 -6.5 17.5t-14.5 6.5q-20 0 -20 -24h-62v177h165v-62h-103v-48q17 12 38 12q76 0 76 -78v-55q0 -52 -20 -74.5t-72 -22.5q-84 0 -84 83z" />
<glyph unicode="6" d="M45 126v548q0 52 36.5 89t89.5 37h548q53 0 89.5 -37t36.5 -89v-548q0 -52 -36.5 -89t-89.5 -37h-548q-53 0 -89.5 37t-36.5 89zM115 140q0 -29 20.5 -49.5t49.5 -20.5h520q29 0 49.5 20.5t20.5 49.5v520q0 29 -20.5 49.5t-49.5 20.5h-520q-29 0 -49.5 -20.5t-20.5 -49.5 v-520zM185 165q0 10 8 17.5t22 7.5h460q14 0 22 -7.5t8 -17.5t-8 -17.5t-22 -7.5h-460q-14 0 -22 7.5t-8 17.5zM185 255q0 10 8 17.5t22 7.5h460q14 0 22 -7.5t8 -17.5t-8 -17.5t-22 -7.5h-460q-14 0 -22 7.5t-8 17.5zM352 411v166q0 38 23 59.5t66 21.5q83 0 83 -76v-6h-61 q0 13 -6.5 20t-15.5 7q-21 0 -21 -26v-37q12 18 43 18q66 0 66 -84v-63q0 -37 -23 -59t-65 -22q-43 0 -66 22t-23 59zM420 405q0 -20 22 -20q21 0 21 19v76q0 11 -6.5 17.5t-15.5 6.5q-21 0 -21 -23v-76z" />
<glyph unicode="7" d="M45 126v548q0 52 36.5 89t89.5 37h548q53 0 89.5 -37t36.5 -89v-548q0 -52 -36.5 -89t-89.5 -37h-548q-53 0 -89.5 37t-36.5 89zM115 140q0 -29 20.5 -49.5t49.5 -20.5h520q29 0 49.5 20.5t20.5 49.5v520q0 29 -20.5 49.5t-49.5 20.5h-520q-29 0 -49.5 -20.5t-20.5 -49.5 v-520zM185 165q0 10 8 17.5t22 7.5h460q14 0 22 -7.5t8 -17.5t-8 -17.5t-22 -7.5h-460q-14 0 -22 7.5t-8 17.5zM185 255q0 10 8 17.5t22 7.5h460q14 0 22 -7.5t8 -17.5t-8 -17.5t-22 -7.5h-460q-14 0 -22 7.5t-8 17.5zM352 596v62h191v-56q-32 -46 -53.5 -123t-21.5 -141v-8 h-79v10q0 52 24 122q21 65 58 134h-119z" />
<glyph unicode="8" d="M45 126v548q0 52 36.5 89t89.5 37h548q53 0 89.5 -37t36.5 -89v-548q0 -52 -36.5 -89t-89.5 -37h-548q-53 0 -89.5 37t-36.5 89zM115 140q0 -29 20.5 -49.5t49.5 -20.5h520q29 0 49.5 20.5t20.5 49.5v520q0 29 -20.5 49.5t-49.5 20.5h-520q-29 0 -49.5 -20.5t-20.5 -49.5 v-520zM185 165q0 10 8 17.5t22 7.5h460q14 0 22 -7.5t8 -17.5t-8 -17.5t-22 -7.5h-460q-14 0 -22 7.5t-8 17.5zM185 255q0 10 8 17.5t22 7.5h460q14 0 22 -7.5t8 -17.5t-8 -17.5t-22 -7.5h-460q-14 0 -22 7.5t-8 17.5zM352 411v27q0 54 37 69q-35 13 -35 49v22q0 81 87 81 t87 -81v-22q0 -35 -35 -49q24 -10 31 -25.5t7 -43.5v-27q0 -37 -23.5 -59t-66.5 -22q-42 0 -65.5 22t-23.5 59zM420 406q0 -22 21 -22q8 0 15 6t7 16v52q0 9 -7 14.5t-15 5.5q-21 0 -21 -20v-52zM422 554q0 -22 19 -22t19 22v29q0 10 -6 16t-13 6q-19 0 -19 -22v-29z" />
<glyph unicode="9" d="M45 126v548q0 52 36.5 89t89.5 37h548q53 0 89.5 -37t36.5 -89v-548q0 -52 -36.5 -89t-89.5 -37h-548q-53 0 -89.5 37t-36.5 89zM115 140q0 -29 20.5 -49.5t49.5 -20.5h520q29 0 49.5 20.5t20.5 49.5v520q0 29 -20.5 49.5t-49.5 20.5h-520q-29 0 -49.5 -20.5t-20.5 -49.5 v-520zM185 165q0 10 8 17.5t22 7.5h460q14 0 22 -7.5t8 -17.5t-8 -17.5t-22 -7.5h-460q-14 0 -22 7.5t-8 17.5zM185 255q0 10 8 17.5t22 7.5h460q14 0 22 -7.5t8 -17.5t-8 -17.5t-22 -7.5h-460q-14 0 -22 7.5t-8 17.5zM352 514v63q0 38 23.5 59.5t65.5 21.5t65.5 -21.5 t23.5 -59.5v-166q0 -37 -23 -59t-66 -22q-84 0 -84 82h64q0 -26 20 -26q8 0 14.5 6.5t6.5 19.5v37q-13 -18 -43 -18q-67 0 -67 83zM421 506q0 -21 20 -21q8 0 14.5 6t6.5 16v76q0 21 -20 21q-8 0 -14.5 -5.5t-6.5 -16.5v-76z" />
<glyph unicode=":" d="M45 126v548q0 52 36.5 89t89.5 37h548q53 0 89.5 -37t36.5 -89v-548q0 -52 -36.5 -89t-89.5 -37h-548q-53 0 -89.5 37t-36.5 89zM183 237l163 95l345 -103v23l-348 105l-160 -94v-26zM271 154h226v93h-226v-93zM277 430l7 -19l209 82l6 -6l-86 -123l16 -12l85 122 q10 -4 15 -5v-146h20v147q8 2 12 4l121 -170l16 12l-120 169q5 5 9 13l110 -34l6 19l-110 34v6q0 6 -1 9l107 42l-7 19l-107 -42q-3 4 -9 10l59 83l-16 12l-59 -84q-5 2 -11 4v85h-20v-85q-8 -2 -13 -4l-56 80l-16 -12l56 -80q-5 -4 -9 -12l-128 39l-6 -19l128 -39v-6 q0 -7 1 -11zM291 174v53h186v-53h-186zM505 523q0 14 10 24t24 10t24 -10t10 -24t-10 -24t-24 -10t-24 10t-10 24z" />
<glyph unicode=";" d="M45 126v548q0 52 36.5 89t89.5 37h548q53 0 89.5 -37t36.5 -89v-548q0 -52 -36.5 -89t-89.5 -37h-548q-53 0 -89.5 37t-36.5 89zM115 140q0 -29 20.5 -49.5t49.5 -20.5h520q29 0 49.5 20.5t20.5 49.5v520q0 29 -20.5 49.5t-49.5 20.5h-520q-29 0 -49.5 -20.5t-20.5 -49.5 v-520zM183 237v26l160 94l348 -105v-23l-345 103zM271 154v93h226v-93h-226zM277 430l209 82q-1 4 -1 11v6l-128 39l6 19l128 -39q4 8 9 12l-56 80l16 12l56 -80q5 2 13 4v85h20v-85q6 -2 11 -4l59 84l16 -12l-59 -83q6 -6 9 -10l107 42l7 -19l-107 -42q1 -3 1 -9v-6 l110 -34l-6 -19l-110 34q-4 -8 -9 -13l120 -169l-16 -12l-121 170q-4 -2 -12 -4v-147h-20v146q-5 1 -15 5l-85 -122l-16 12l86 123l-6 6l-209 -82zM291 174h186v53h-186v-53zM505 523q0 -14 10 -24t24 -10t24 10t10 24t-10 24t-24 10t-24 -10t-10 -24z" />
<glyph unicode="&#x3c;" d="M45 126v548q0 52 36.5 89t89.5 37h548q53 0 89.5 -37t36.5 -89v-548q0 -52 -36.5 -89t-89.5 -37h-548q-53 0 -89.5 37t-36.5 89zM207 291l24 -42l65 37v-68h26v83l98 57v-111l-73 -43l13 -22l60 34v-76h49v75l60 -33l12 22l-72 41v113l97 -55v-85h25v70l68 -39l24 42 l-66 38l59 35l-14 23l-72 -43l-96 56l96 56l73 -41l13 22l-59 34l66 39l-25 42l-67 -39v70h-25v-84l-97 -55v112l72 41l-13 23l-59 -34v75h-49v-76l-60 35l-13 -23l73 -42v-111l-98 55v84h-26v-69l-65 38l-24 -42l66 -38l-60 -35l12 -22l74 42l97 -57l-97 -56l-74 43 l-12 -23l60 -35z" />
<glyph unicode="=" d="M45 126v548q0 52 36.5 89t89.5 37h548q53 0 89.5 -37t36.5 -89v-548q0 -52 -36.5 -89t-89.5 -37h-548q-53 0 -89.5 37t-36.5 89zM115 140q0 -29 20 -49.5t50 -20.5h520q29 0 49.5 20.5t20.5 49.5v520q0 29 -20.5 49.5t-49.5 20.5h-520q-29 0 -49.5 -20.5t-20.5 -49.5 v-520zM235 211q0 34 26 55v344q0 24 13.5 37t31.5 13t31.5 -13t13.5 -37v-344q26 -21 26 -55q0 -29 -21 -50t-50 -21t-50 21t-21 50zM240 211q0 -27 19.5 -46.5t46.5 -19.5t46.5 19.5t19.5 46.5q0 32 -26 52v347q0 22 -12 34t-28 12t-28 -12t-12 -34v-347q-26 -20 -26 -52z M245 211q0 32 26 50v349q0 19 10.5 30t24.5 11t24.5 -11t10.5 -30v-349q26 -18 26 -50q0 -25 -17.5 -43t-43.5 -18t-43.5 18t-17.5 43zM276 261h60v349q0 17 -9 26.5t-21 9.5t-21 -9.5t-9 -26.5v-349zM416 187v70q0 16 11 29t38 13q49 0 49 -42v-16h-40v18q0 13 -9 13 t-9 -13v-75q0 -12 9 -12t9 12v27h40v-24q0 -16 -11 -29t-38 -13t-38 13t-11 29zM416 557v30h40v-30h-40zM529 303q0 10 7 17.5t17 7.5t17.5 -7.5t7.5 -17.5t-7.5 -17t-17.5 -7t-17 7t-7 17zM542 303q0 -11 11 -11t11 11t-11 11t-11 -11z" />
<glyph unicode="&#x3e;" d="M45 126v548q0 52 36.5 89t89.5 37h548q53 0 89.5 -37t36.5 -89v-548q0 -52 -36.5 -89t-89.5 -37h-548q-53 0 -89.5 37t-36.5 89zM195 483q0 -69 37.5 -112.5t100.5 -43.5v-50q0 -112 -113 -112q-12 0 -12 -13q0 -12 12 -12q68 0 103 36t35 101v75h-25q-49 0 -81 37 t-32 94v153h296v-153q0 -57 -32 -94t-81 -37h-25v-75q0 -65 35 -101t103 -36q12 0 12 12q0 13 -12 13q-113 0 -113 112v50q63 0 100.5 43.5t37.5 112.5v178h-346v-178zM610 153q0 -13 12 -13q13 0 13 13v277q47 12 47 70v148q0 13 -13 13q-12 0 -12 -13v-147q0 -53 -47 -53 v-295z" />
<glyph unicode="?" d="M45 126v548q0 52 36.5 89t89.5 37h548q53 0 89.5 -37t36.5 -89v-548q0 -52 -36.5 -89t-89.5 -37h-548q-53 0 -89.5 37t-36.5 89zM170 421q0 -104 76.5 -162t183.5 -58q71 0 120 11t98 39v91q-59 -36 -135 -36q-45 0 -78.5 29.5t-33.5 76.5t33.5 75.5t78.5 28.5 q62 0 135 -40v85q-53 32 -101.5 46.5t-116.5 14.5q-70 0 -126.5 -19.5t-95 -66t-38.5 -115.5zM182 421q0 91 71.5 140t176.5 49q113 0 205 -58v-56q-49 32 -122 32q-50 0 -87 -31t-37 -85t37 -86t87 -32q77 0 122 28v-62q-89 -47 -205 -47q-102 0 -175 58t-73 150zM227 339 q0 -15 13 -27.5t31 -12.5v159q0 13 9 22t19 9q16 0 26 -8.5t10 -22.5q0 -15 -10 -23.5t-26 -8.5q-8 0 -14 3v-45q6 -3 14 -3q35 0 57 22t22 55t-22 54.5t-57 21.5q-33 0 -52.5 -21.5t-19.5 -54.5v-119zM574 417h33v-60h77v60h34v43h-144v-43zM585 429v20h122v-20h-34v-61 h-54v61h-34z" />
<glyph unicode="@" d="M45 126v548q0 52 36.5 89t89.5 37h548q53 0 89.5 -37t36.5 -89v-548q0 -52 -36.5 -89t-89.5 -37h-548q-53 0 -89.5 37t-36.5 89zM185 165q0 -10 8 -17.5t22 -7.5h460q14 0 22 7.5t8 17.5t-8 17.5t-22 7.5h-460q-14 0 -22 -7.5t-8 -17.5zM185 255q0 -10 8 -17.5t22 -7.5 h460q14 0 22 7.5t8 17.5t-8 17.5t-22 7.5h-460q-14 0 -22 -7.5t-8 -17.5zM352 330h188v60h-113q9 27 29.5 49.5t38 36t31.5 38.5t14 58q0 86 -88 86q-93 0 -93 -93v-26h67v33q0 13 6.5 21t14.5 8t14 -7.5t6 -21.5q0 -21 -12 -40t-28.5 -35t-33.5 -35t-29 -48t-12 -64v-20z " />
<glyph unicode="A" d="M45 126v548q0 52 36.5 89t89.5 37h548q53 0 89.5 -37t36.5 -89v-548q0 -52 -36.5 -89t-89.5 -37h-548q-53 0 -89.5 37t-36.5 89zM185 165q0 -10 8 -17.5t22 -7.5h460q14 0 22 7.5t8 17.5t-8 17.5t-22 7.5h-460q-14 0 -22 -7.5t-8 -17.5zM285 240l127 22l114 310l79 55 l-25 33l-93 -68l-105 -283l-97 -28v-41zM447 270q0 -22 14.5 -36t35.5 -14t35.5 14.5t14.5 35.5t-15 35.5t-35 14.5q-21 0 -35.5 -14.5t-14.5 -35.5z" />
<glyph unicode="B" d="M45 126v548q0 52 36.5 89t89.5 37h548q53 0 89.5 -37t36.5 -89v-548q0 -52 -36.5 -89t-89.5 -37h-548q-53 0 -89.5 37t-36.5 89zM185 165q0 -10 8 -17.5t22 -7.5h460q14 0 22 7.5t8 17.5t-8 17.5t-22 7.5h-460q-14 0 -22 -7.5t-8 -17.5zM285 240l127 22l50 136l-9 7 l-48 -37l-23 -59l-97 -28v-41zM293 533l142 -107l-140 -106h38l120 92l123 -92h36l-140 106l141 107h-36l-124 -94l-125 94h-35zM438 458l15 -11l37 27l36 98l79 55l-25 33l-93 -68zM447 270q0 -22 14.5 -36t35.5 -14t35.5 14.5t14.5 35.5t-15 35.5t-35 14.5 q-21 0 -35.5 -14.5t-14.5 -35.5z" />
<glyph unicode="C" d="M45 126v548q0 52 36.5 89t89.5 37h548q53 0 89.5 -37t36.5 -89v-548q0 -52 -36.5 -89t-89.5 -37h-548q-53 0 -89.5 37t-36.5 89zM253 465q0 -73 48 -124t119 -51v-100h-119q-14 0 -22 -7.5t-8 -17.5t8 -17.5t22 -7.5h287q14 0 21.5 7.5t7.5 17.5t-7.5 17.5t-21.5 7.5 h-118v100q71 0 119 51t48 124l-20 195h-344z" />
<glyph unicode="D" d="M45 126v548q0 52 36.5 89t89.5 37h548q53 0 89.5 -37t36.5 -89v-548q0 -52 -36.5 -89t-89.5 -37h-548q-53 0 -89.5 37t-36.5 89zM253 465q0 -73 48 -124t119 -51v-100h-119q-14 0 -22 -7.5t-8 -17.5t8 -17.5t22 -7.5h287q14 0 22 7.5t8 17.5t-8 17.5t-22 7.5h-118v100 q71 0 119 51t48 124l-20 195h-91l85 -218l-3 -1l-50 121l-13 6l-41 92h-231z" />
<glyph unicode="E" d="M45 126v548q0 52 36.5 89t89.5 37h548q53 0 89.5 -37t36.5 -89v-548q0 -52 -36.5 -89t-89.5 -37h-548q-53 0 -89.5 37t-36.5 89zM185 165q0 -10 8 -17.5t22 -7.5h460q14 0 22 7.5t8 17.5t-8 17.5t-22 7.5h-460q-14 0 -22 -7.5t-8 -17.5zM185 539q0 -11 7 -18t17 -7 q12 0 23 11l53 53v-308q0 -14 7.5 -22t17.5 -8t17.5 8t7.5 22v308l53 -53q11 -11 23 -11q10 0 17 7t7 18q0 12 -10 22l-90 90q-9 9 -25 9t-25 -9l-90 -90q-10 -10 -10 -22zM454 539q0 -11 7 -18t17 -7q12 0 23 11l53 53v-308q0 -14 7.5 -22t17.5 -8t17.5 8t7.5 22v308 l53 -53q11 -11 23 -11q10 0 17 7t7 18q0 12 -10 22l-90 90q-8 8 -24 8q-18 0 -26 -8l-90 -90q-10 -10 -10 -22z" />
<glyph unicode="F" d="M45 126v548q0 52 36.5 89t89.5 37h548q53 0 89.5 -37t36.5 -89v-548q0 -52 -36.5 -89t-89.5 -37h-548q-53 0 -89.5 37t-36.5 89zM259 191q0 -24 15.5 -37.5t35.5 -13.5t34.5 13.5t14.5 37.5v169h186q23 0 36 15t13 35t-13 35t-36 15h-186v100h235q24 0 37 15t13 35 t-13 35t-37 15h-272q-26 0 -44.5 -19t-18.5 -45v-405z" />
<glyph unicode="G" d="M45 126v548q0 52 36.5 89t89.5 37h548q53 0 89.5 -37t36.5 -89v-548q0 -52 -36.5 -89t-89.5 -37h-548q-53 0 -89.5 37t-36.5 89zM185 635q0 -10 8 -17.5t22 -7.5h205v-165l25 -26q22 0 41 -11l33 37q-24 18 -49 18v147h205q14 0 22 7.5t8 17.5t-8 17.5t-22 7.5h-460 q-14 0 -22 -7.5t-8 -17.5zM301 190h37l119 135l119 -135h36l-136 155l136 156h-37l-118 -134l-119 134h-36l137 -155zM314 338q0 -48 35 -86l31 35q-16 16 -16 51h-50zM377 226q33 -19 68 -19q48 0 84 29l-34 38q-21 -17 -50 -17q-18 0 -34 8zM513 380q13 -20 13 -42 q0 -20 -7 -34l34 -39q23 31 23 73q0 44 -29 81z" />
<glyph unicode="H" d="M45 126v548q0 52 36.5 89t89.5 37h548q53 0 89.5 -37t36.5 -89v-548q0 -52 -36.5 -89t-89.5 -37h-548q-53 0 -89.5 37t-36.5 89zM135 405q0 -10 8 -17.5t22 -7.5h63l-53 -53q-11 -11 -11 -23q0 -10 7 -17t18 -7q12 0 22 10l89 89q10 10 10 26t-10 26l-89 89 q-10 10 -22 10q-11 0 -18 -7t-7 -17q0 -12 11 -23l53 -53h-63q-14 0 -22 -7.5t-8 -17.5zM291 252h37l118 135l119 -135h37l-137 156l137 155h-37l-119 -135l-119 135h-36l137 -155zM330 150q0 -10 10 -10t10 10v117l-20 -22v-95zM330 307l20 22v159l-20 19v-200zM330 569 l20 -23v104q0 10 -10 10t-10 -10v-81zM370 166q0 -10 8 -18t18 -8h100q10 0 18 8t8 18v123l-76 87l-76 -86v-124zM370 352l50 57l-50 56v-113zM370 524l76 -86l76 87v109q0 10 -8 18t-18 8h-100q-10 0 -18 -8t-8 -18v-110zM473 408l49 -56v111zM542 150q0 -10 10 -10t10 10 v96l-20 21v-117zM542 329l20 -23v202l-20 -22v-157zM542 547l20 23v80q0 10 -10 10t-10 -10v-103zM582 405q0 -16 10 -26l89 -89q10 -10 22 -10q11 0 18 7t7 17q0 12 -11 23l-53 53h63q14 0 22 7.5t8 17.5t-8 17.5t-22 7.5h-63l53 53q11 11 11 23q0 10 -7 17t-18 7 q-12 0 -22 -10l-89 -89q-10 -10 -10 -26z" />
<glyph unicode="I" d="M45 126v548q0 52 36.5 89t89.5 37h548q53 0 89.5 -37t36.5 -89v-548q0 -52 -36.5 -89t-89.5 -37h-548q-53 0 -89.5 37t-36.5 89zM185 445h3q30 26 64 26t63 -26h1q30 26 66 26q20 0 38 -9v-244q0 -12 -8.5 -20t-20.5 -8q-11 0 -19.5 8t-8.5 20q0 22 -25 22t-25 -22 q0 -33 23 -55.5t55 -22.5q33 0 56 22.5t23 55.5v242q19 11 41 11q28 0 63 -26h1q32 26 63 26t66 -26h1q0 89 -76 151.5t-184 62.5t-184 -62.5t-76 -151.5z" />
<glyph unicode="J" d="M45 126v548q0 52 36.5 89t89.5 37h548q53 0 89.5 -37t36.5 -89v-548q0 -52 -36.5 -89t-89.5 -37h-548q-53 0 -89.5 37t-36.5 89zM185 445h3q30 26 64 26t63 -26h1q30 26 66 26q20 0 38 -9v-244q0 -12 -8.5 -20t-20.5 -8q-11 0 -19.5 8t-8.5 20q0 22 -25 22t-25 -22 q0 -33 23 -55.5t55 -22.5q33 0 56 22.5t23 55.5v242q19 11 41 11q28 0 63 -26h1q32 26 63 26t66 -26h1q0 89 -76 151.5t-184 62.5t-184 -62.5t-76 -151.5zM218 640q5 -45 23 -45q8 0 13.5 5.5t5.5 13.5q0 17 -40 26h-2zM251 568h2q40 -9 40 -26q0 -8 -5.5 -13.5t-13.5 -5.5 q-18 0 -23 45zM303 610h2q40 -9 40 -26q0 -8 -5.5 -13.5t-13.5 -5.5q-18 0 -23 45z" />
<glyph unicode="K" d="M45 126v548q0 52 36.5 89t89.5 37h548q53 0 89.5 -37t36.5 -89v-548q0 -52 -36.5 -89t-89.5 -37h-548q-53 0 -89.5 37t-36.5 89zM186 607q0 -22 14.5 -37.5t34.5 -15.5v7q-17 0 -29.5 13.5t-12.5 32.5t12.5 32.5t29.5 13.5v7q-20 0 -34.5 -15.5t-14.5 -37.5zM218 607 q0 -13 8.5 -22t20.5 -9v4q-10 0 -17.5 8t-7.5 19t7.5 19t17.5 8v4q-12 0 -20.5 -9t-8.5 -22zM285 240q0 -47 47 -73.5t112 -26.5t112.5 26.5t47.5 73.5v420h-100v-370q0 -23 -18 -36.5t-42 -13.5t-41.5 13.5t-17.5 36.5v370h-100v-420zM444 150v80q25 0 47.5 15t22.5 45v360 h80v-410q0 -44 -47 -67t-103 -23zM644 576q12 0 20.5 9t8.5 22t-8.5 22t-20.5 9v-4q10 0 17.5 -8t7.5 -19t-7.5 -19t-17.5 -8v-4zM656 554q20 0 34.5 15.5t14.5 37.5t-14.5 37.5t-34.5 15.5v-7q17 0 29.5 -13.5t12.5 -32.5t-12.5 -32.5t-29.5 -13.5v-7z" />
<glyph unicode="L" d="M45 126v548q0 52 36.5 89t89.5 37h548q53 0 89.5 -37t36.5 -89v-548q0 -52 -36.5 -89t-89.5 -37h-548q-53 0 -89.5 37t-36.5 89zM245 251q0 -20 15.5 -35.5t35.5 -15.5q15 0 35 20l113 110l110 -110q20 -20 39 -20q20 0 36 16t16 36q0 19 -16 35l-115 113l112 112 q19 19 19 40q0 20 -14.5 34t-33.5 14q-20 0 -37 -17l-114 -114l-115 116q-15 15 -34 15q-20 0 -35.5 -16t-15.5 -36q0 -19 15 -34l114 -114l-114 -113q-16 -16 -16 -36z" />
<glyph unicode="M" d="M45 126v548q0 52 36.5 89t89.5 37h548q53 0 89.5 -37t36.5 -89v-548q0 -52 -36.5 -89t-89.5 -37h-548q-53 0 -89.5 37t-36.5 89zM257 250h37l120 92l120 -92h38l-139 106l139 106h-38l-120 -91l-120 91h-37l139 -106zM342 281q0 -32 6 -61t26.5 -54.5t52.5 -25.5 t56.5 21.5t24.5 51.5q0 17 -11 30.5t-25 22t-27.5 24.5t-17.5 37l-13 9zM342 320l48 36l-48 37v-73zM342 431l73 -55l14 11q8 41 41 54q35 13 56.5 39.5t21.5 51.5q0 43 -55 43q-18 0 -33 -4q-68 -17 -93 -51t-25 -89zM342 553q0 -18 20 -18q7 0 12 5.5t5 12.5q0 18 -22 18 q-15 0 -15 -18zM373 578q0 -15 26 -15q6 0 10.5 6.5t4.5 13.5q0 14 -25 14q-16 -3 -16 -19zM413 603q0 -21 21 -21q19 0 19 21q0 8 -5.5 14.5t-16.5 6.5q-18 0 -18 -21zM459 614q0 -10 6 -17t16 -7t16.5 8.5t6.5 18.5q0 22 -23 22q-10 0 -16 -7.5t-6 -17.5zM509 613 q0 -17 9 -25q7 -6 14 -6q19 0 31 24l6 18q0 36 -27 36q-21 0 -30 -26z" />
<glyph unicode="N" d="M45 126v548q0 52 36.5 89t89.5 37h548q53 0 89.5 -37t36.5 -89v-548q0 -52 -36.5 -89t-89.5 -37h-548q-53 0 -89.5 37t-36.5 89zM185 165q0 -10 8 -17.5t22 -7.5h460q14 0 22 7.5t8 17.5t-8 17.5t-22 7.5h-460q-14 0 -22 -7.5t-8 -17.5zM185 414q0 -61 49 -133t118 -83 h48q-80 46 -80 133q9 -15 27 -27.5t28 -12.5q26 0 41 15t15 43q0 14 -3 29q13 0 19.5 -12.5t7.5 -28t9.5 -28t24.5 -12.5q33 0 82 50q0 -48 -34 -89t-82 -60h49q77 16 119 58t42 85q0 23 -10.5 64t-10.5 75q0 39 29 88q-50 0 -88 -29.5t-45 -97.5h-3q0 114 -27.5 165.5 t-86.5 51.5q-39 0 -81 -29q28 -41 28 -80q0 -41 -24 -67.5t-46 -26.5q-13 0 -19 10t-6 20q0 3 6.5 14.5t12.5 37t6 60.5q-115 -67 -115 -183z" />
<glyph unicode="O" d="M45 126v548q0 52 36.5 89t89.5 37h548q53 0 89.5 -37t36.5 -89v-548q0 -52 -36.5 -89t-89.5 -37h-548q-53 0 -89.5 37t-36.5 89zM249 412l44 -272h105l44 272h-193zM277 520l6 -33v-33l7 -24l26 7l26 -2l-5 32l6 40l-17 18l-18 -18zM282 567l180 -82l21 -88h130l-24 171 h-307v-1zM447 134h1l99 169h2l62 -169h2v255h-130zM475 626q0 -22 16 -37.5t37 -15.5q22 0 37 15.5t15 37.5q0 23 -15 39t-37 16q-21 0 -37 -16t-16 -39z" />
<glyph unicode="P" d="M45 126v548q0 52 36.5 89t89.5 37h548q53 0 89.5 -37t36.5 -89v-548q0 -52 -36.5 -89t-89.5 -37h-548q-53 0 -89.5 37t-36.5 89zM185 140h522v5h-420l221 139l33 91h5l11 35l-80 56l-114 -81l-3 -10h5l-84 -230h-96v-5zM291 155l82 220h161l-31 -85zM299 375h42l136 97 l137 -97h43l-158 111l158 112h-43l-137 -96l-136 96h-42l158 -112zM383 441l66 45l-41 28zM420 549l57 -39l144 100l15 50h-179zM507 486l61 -42l35 110z" />
<glyph unicode="Q" d="M45 126v548q0 52 36.5 89t89.5 37h548q53 0 89.5 -37t36.5 -89v-548q0 -52 -36.5 -89t-89.5 -37h-548q-53 0 -89.5 37t-36.5 89zM209 397q0 -83 58.5 -141.5t141.5 -58.5v50q-62 0 -106 44t-44 106t44 106t106 44v50q-83 0 -141.5 -58.5t-58.5 -141.5zM457 397 q0 -83 58.5 -141.5t141.5 -58.5v50q-56 0 -97.5 35.5t-50.5 89.5h136v50h-136q9 54 50.5 89.5t97.5 35.5v50q-83 0 -141.5 -58.5t-58.5 -141.5z" />
<glyph unicode="R" d="M45 126v548q0 52 36.5 89t89.5 37h548q53 0 89.5 -37t36.5 -89v-548q0 -52 -36.5 -89t-89.5 -37h-548q-53 0 -89.5 37t-36.5 89zM186 369q0 -11 5 -21l46 -108q25 -63 69 -63h102v126h-125l55 87l41 -34l-50 128h-141l42 -31l-34 -51q-10 -16 -10 -33zM199 368 q0 14 11 28l39 60l-23 15h94l29 -72l-13 12l-66 -104q-20 -34 -20 -61l-47 108q-4 7 -4 14zM261 242q0 25 15 47h119v-100h-89q-22 0 -33.5 15.5t-11.5 37.5zM277 527l114 -56l42 103l59 -81l-45 -28h140l51 131l-43 -29l-35 51q-19 25 -46 25h-120q-69 0 -86 -40zM294 535 l27 62q10 29 46 29q30 0 56 -40l-38 -94zM403 630h109q22 0 36 -20l44 -61l19 12l-33 -82h-80l14 10l-81 113q-16 19 -28 28zM422 241l85 -119v55h54q38 0 53 23l66 97q25 37 25 62q0 15 -9 32l-56 86l-107 -67l70 -107h-96v49zM441 241l51 70v-22h133q17 0 36 3l-56 -84 q-16 -19 -44 -19h-69v-23zM553 405l84 53l47 -75q8 -14 8 -28q0 -20 -15.5 -36t-37.5 -16h-21z" />
<glyph unicode="S" d="M45 126v548q0 52 36.5 89t89.5 37h548q53 0 89.5 -37t36.5 -89v-548q0 -52 -36.5 -89t-89.5 -37h-548q-53 0 -89.5 37t-36.5 89zM200 398q0 -100 72 -172t172 -72q99 0 171 72t72 172q0 99 -72 171t-171 72q-100 0 -172 -72t-72 -171zM223 398q0 87 65.5 156.5 t155.5 69.5q89 0 142.5 -54t53.5 -126q0 -78 -58.5 -139t-137.5 -61v-62q-43 19 -78.5 57t-35.5 66q0 25 35.5 63t78.5 56v-62q58 15 97 54t39 73q0 33 -38.5 70.5t-97.5 58.5v-62q-64 0 -107 -35.5t-64 -88.5q-18 -46 -18 -89q0 -41 14 -75l-2 -2q-44 72 -44 132z" />
<glyph unicode="T" d="M45 126v548q0 52 36.5 89t89.5 37h548q53 0 89.5 -37t36.5 -89v-548q0 -52 -36.5 -89t-89.5 -37h-548q-53 0 -89.5 37t-36.5 89zM196 254q0 -27 18 -45.5t56 -18.5h172v42h-161q-41 0 -41 24q0 13 12 37l42 82l45 -23l-39 82l-86 -18l43 -20l-51 -100q-10 -20 -10 -42z M291 467l39 -19l74 137q15 28 36 28q19 0 37 -28l51 -84l-41 -30h88l29 81l-41 -29l-63 101q-20 32 -58 32q-43 0 -68 -43zM462 212l51 -71v49h104q39 0 59.5 20t20.5 49q0 26 -14 47l-81 147l-35 -21l77 -142q12 -19 12 -33q0 -25 -49 -25h-94v50z" />
<glyph unicode="U" d="M45 126v548q0 52 36.5 89t89.5 37h548q53 0 89.5 -37t36.5 -89v-548q0 -52 -36.5 -89t-89.5 -37h-548q-53 0 -89.5 37t-36.5 89zM205 414q0 -19 11 -39t59 -87q10 -13 10 -27v-121h110v132q0 41 -18 65l-89 122q-8 9 -18 9q-12 0 -23 -10t-11 -22q0 -4 3 -9l36 -58v-6 l-38 62q-3 4 -3 14q0 23 31 31v113q0 19 -9 29.5t-21 10.5t-21 -10.5t-9 -29.5v-169zM345 473l98 -58v119l-98 60v-121zM345 599l100 -61l100 61l-100 61zM447 415l98 60v119l-98 -60v-119zM494 140h110v121q0 14 10 27q48 67 59 87t11 39v169q0 19 -9 29.5t-21 10.5 t-21 -10.5t-9 -29.5v-113q12 -2 22 -10t10 -19q0 -8 -4 -16l-38 -62v6l36 58q3 6 3 14q0 11 -11.5 19t-22.5 8t-18 -9l-89 -122q-18 -24 -18 -65v-132z" />
<glyph unicode="V" d="M106 372q0 22 14 43l44 67l-56 41h186l64 -167l-53 42l-72 -113h164v-165h-134q-32 0 -51.5 21t-37.5 62l-62 141q-6 14 -6 28zM124 371q0 -10 4 -18l60 -141q0 34 28 78l87 137l16 -16l-38 95h-122l28 -20l-50 -79q-13 -21 -13 -36zM225 578l41 99q22 53 112 53h158 q36 0 58 -33l47 -66l56 37l-67 -170h-183l60 35l-78 107l-55 -134zM390 713q16 -10 36 -37l107 -148l-19 -12h104l44 108l-25 -17l-56 79q-19 27 -48 27h-143zM415 204l110 146v-65h125l-90 139l139 90l73 -114q12 -17 12 -40q0 -38 -32 -83l-87 -127q-20 -30 -70 -30h-70 v-71zM440 204l67 -98v31h89q24 0 35 5.5t23 19.5l73 109q-21 -4 -47 -4h-173v28z" />
<glyph unicode="W" d="M41 394q0 77 32 136t87 93.5t122 51.5t143 17q99 0 171 -22t148 -69v-125q-107 60 -198 60q-66 0 -115.5 -43t-49.5 -112q0 -70 49 -112.5t116 -42.5q113 0 198 52v-133q-71 -41 -142.5 -57.5t-176.5 -16.5q-101 0 -186.5 35.5t-141.5 110.5t-56 177zM124 274 q0 -23 20 -41.5t46 -18.5v235q0 20 13.5 33t28.5 13q23 0 37 -12.5t14 -33.5q0 -22 -14 -34.5t-37 -12.5q-13 0 -21 4v-66q8 -3 21 -3q51 0 84 32t33 80t-33 80t-84 32q-50 0 -79 -31.5t-29 -80.5v-175zM636 389v63h213v-63h-50v-88h-113v88h-50z" />
<glyph unicode="X" d="M104 192q0 29 13 55l71 136l-60 29l118 23l52 -111l-61 30l-56 -111q-16 -30 -16 -49q0 -33 56 -33h216v-57h-232q-52 0 -76.5 25t-24.5 63zM234 480l111 198q34 59 93 59q52 0 79 -44l86 -136l56 39l-39 -110h-120l56 41l-70 113q-22 37 -51 37q-27 0 -48 -37l-102 -186 zM467 134l69 94v-67h127q65 0 65 35q0 17 -15 44l-103 192l46 28l111 -199q19 -29 19 -63q0 -40 -28.5 -67t-81.5 -27h-140v-67z" />
<glyph unicode="Y" d="M106 192q0 30 13 54l229 432q32 60 92 60q56 0 86 -53l244 -425q15 -25 15 -57q0 -41 -28.5 -70t-86.5 -29h-461q-53 0 -78 25.5t-25 62.5zM171 202q0 -19 12 -31t33 -12h443q68 0 68 44q0 16 -11 36l-227 402q-21 39 -50 39t-50 -39l-207 -399q-11 -22 -11 -40zM404 533 q0 39 35 39q36 0 36 -39q0 -44 -12 -123.5t-14 -108.5h-19q-2 32 -14 110.5t-12 121.5zM409 234q0 11 9.5 21t20.5 10q12 0 21 -8.5t9 -22.5q0 -12 -8.5 -20.5t-21.5 -8.5t-21.5 8.5t-8.5 20.5z" />
<glyph unicode="Z" d="M81 32v768h422l306 -240v-560h-686v32h-42zM108 62h633v445h-225v38h-62v228h-346v-711zM185 110v16h59v365h-59v16h150v-381h59v-16h-209zM236 656q0 21 15.5 37.5t36.5 16.5q20 0 36 -15t16 -39q0 -21 -15.5 -35.5t-36.5 -14.5t-36.5 15t-15.5 35zM481 572h257 l-257 201v-201z" />
<glyph unicode="[" d="M45 126v548q0 52 36.5 89t89.5 37h548q53 0 89.5 -37t36.5 -89v-548q0 -52 -36.5 -89t-89.5 -37h-548q-53 0 -89.5 37t-36.5 89zM115 140q0 -29 20.5 -49.5t49.5 -20.5h520q29 0 49.5 20.5t20.5 49.5v520q0 29 -20.5 49.5t-49.5 20.5h-520q-29 0 -49.5 -20.5t-20.5 -49.5 v-520zM185 140v90h92v-90h-92zM185 240v30h520v-30h-520zM185 280v191h146q0 -47 32 -80.5t78 -33.5h8q46 0 78.5 33.5t32.5 80.5h145v-191h-520zM384 602v32q37 5 43 26h47v-235h-53v177h-37zM399 140v90h92v-90h-92zM613 140v90h92v-90h-92z" />
<glyph unicode="\" d="M45 126v548q0 52 36.5 89t89.5 37h548q53 0 89.5 -37t36.5 -89v-548q0 -52 -36.5 -89t-89.5 -37h-548q-53 0 -89.5 37t-36.5 89zM115 140q0 -29 20.5 -49.5t49.5 -20.5h520q29 0 49.5 20.5t20.5 49.5v520q0 29 -20.5 49.5t-49.5 20.5h-520q-29 0 -49.5 -20.5t-20.5 -49.5 v-520zM185 140v90h92v-90h-92zM185 240v30h520v-30h-520zM185 280v191h146q0 -47 32 -80.5t78 -33.5h8q46 0 78.5 33.5t32.5 80.5h145v-191h-520zM399 140v90h92v-90h-92zM613 140v90h92v-90h-92z" />
<glyph unicode="]" d="M45 0l269 269l-269 270l262 261l269 -269l270 269v-800h-801z" />
<glyph unicode="^" d="M45 126v548q0 52 36.5 89t89.5 37h548q53 0 89.5 -37t36.5 -89v-548q0 -52 -36.5 -89t-89.5 -37h-548q-53 0 -89.5 37t-36.5 89zM185 165q0 -10 8 -17.5t22 -7.5h460q14 0 22 7.5t8 17.5t-8 17.5t-22 7.5h-460q-14 0 -22 -7.5t-8 -17.5zM185 255q0 -10 8 -17.5t22 -7.5 h460q14 0 22 7.5t8 17.5t-8 17.5t-22 7.5h-460q-14 0 -22 -7.5t-8 -17.5zM352 411q0 -37 23 -59t66 -22q42 0 65 22t23 59v63q0 84 -66 84q-31 0 -43 -18v37q0 26 21 26q9 0 15.5 -7t6.5 -20h61v6q0 76 -83 76q-43 0 -66 -21.5t-23 -59.5v-166zM420 405v76q0 23 21 23 q9 0 15.5 -6.5t6.5 -17.5v-76q0 -19 -21 -19q-22 0 -22 20z" />
<glyph unicode="_" d="M45 126v548q0 52 36.5 89t89.5 37h548q53 0 89.5 -37t36.5 -89v-548q0 -52 -36.5 -89t-89.5 -37h-548q-53 0 -89.5 37t-36.5 89zM235 211q0 -29 21 -50t50 -21t50 21t21 50q0 34 -26 55v344q0 24 -13.5 37t-31.5 13t-31.5 -13t-13.5 -37v-344q-26 -21 -26 -55zM240 211 q0 32 26 52v347q0 22 12 34t28 12t28 -12t12 -34v-347q26 -20 26 -52q0 -27 -19.5 -46.5t-46.5 -19.5t-46.5 19.5t-19.5 46.5zM245 211q0 -25 17.5 -43t43.5 -18t43.5 18t17.5 43q0 32 -26 50v349q0 19 -10.5 30t-24.5 11t-24.5 -11t-10.5 -30v-349q-26 -18 -26 -50z M276 527v83q0 17 9 26.5t21 9.5t21 -9.5t9 -26.5v-83h-60zM416 187q0 -16 11 -29t38 -13t38 13t11 29v24h-40v-27q0 -12 -9 -12t-9 12v75q0 13 9 13t9 -13v-18h40v16q0 42 -49 42q-27 0 -38 -13t-11 -29v-70zM529 303q0 -10 7 -17t17 -7t17.5 7t7.5 17t-7.5 17.5t-17.5 7.5 t-17 -7.5t-7 -17.5zM542 303q0 11 11 11t11 -11t-11 -11t-11 11z" />
<glyph unicode="`" d="M45 126v548q0 52 36.5 89t89.5 37h548q53 0 89.5 -37t36.5 -89v-548q0 -52 -36.5 -89t-89.5 -37h-548q-53 0 -89.5 37t-36.5 89zM115 140q0 -29 20 -49.5t50 -20.5h520q29 0 49.5 20.5t20.5 49.5v520q0 29 -20.5 49.5t-49.5 20.5h-520q-29 0 -49.5 -20.5t-20.5 -49.5 v-520z" />
<glyph unicode="a" d="M45 126v548q0 52 36.5 89t89.5 37h548q53 0 89.5 -37t36.5 -89v-548q0 -52 -36.5 -89t-89.5 -37h-548q-53 0 -89.5 37t-36.5 89zM115 140q0 -29 20.5 -49.5t49.5 -20.5h520q29 0 49.5 20.5t20.5 49.5v520q0 29 -20.5 49.5t-49.5 20.5h-520q-29 0 -49.5 -20.5t-20.5 -49.5 v-520zM185 165q0 10 8 17.5t22 7.5h460q14 0 22 -7.5t8 -17.5t-8 -17.5t-22 -7.5h-460q-14 0 -22 7.5t-8 17.5zM285 240v41l97 28l105 283l93 68l25 -33l-79 -55l-114 -310zM447 270q0 21 14.5 35.5t35.5 14.5q20 0 35 -14.5t15 -35.5t-14.5 -35.5t-35.5 -14.5t-35.5 14 t-14.5 36z" />
<glyph unicode="b" d="M45 126v548q0 52 36.5 89t89.5 37h548q53 0 89.5 -37t36.5 -89v-548q0 -52 -36.5 -89t-89.5 -37h-548q-53 0 -89.5 37t-36.5 89zM115 140q0 -29 20.5 -49.5t49.5 -20.5h520q29 0 49.5 20.5t20.5 49.5v520q0 29 -20.5 49.5t-49.5 20.5h-520q-29 0 -49.5 -20.5t-20.5 -49.5 v-520zM185 165q0 10 8 17.5t22 7.5h460q14 0 22 -7.5t8 -17.5t-8 -17.5t-22 -7.5h-460q-14 0 -22 7.5t-8 17.5zM285 240v41l97 28l23 59l48 37l9 -7l-50 -136zM293 533h35l125 -94l124 94h36l-141 -107l140 -106h-36l-123 92l-120 -92h-38l140 106zM438 458l49 134l93 68 l25 -33l-79 -55l-36 -98l-37 -27zM447 270q0 21 14.5 35.5t35.5 14.5q20 0 35 -14.5t15 -35.5t-14.5 -35.5t-35.5 -14.5t-35.5 14t-14.5 36z" />
<glyph unicode="c" d="M45 126v548q0 52 36.5 89t89.5 37h548q53 0 89.5 -37t36.5 -89v-548q0 -52 -36.5 -89t-89.5 -37h-548q-53 0 -89.5 37t-36.5 89zM115 140q0 -29 20.5 -49.5t49.5 -20.5h520q29 0 49.5 20.5t20.5 49.5v520q0 29 -20.5 49.5t-49.5 20.5h-520q-29 0 -49.5 -20.5t-20.5 -49.5 v-520zM253 465l20 195h344l20 -195q0 -73 -48 -124t-119 -51v-100h118q14 0 21.5 -7.5t7.5 -17.5t-7.5 -17.5t-21.5 -7.5h-287q-14 0 -22 7.5t-8 17.5t8 17.5t22 7.5h119v100q-71 0 -119 51t-48 124z" />
<glyph unicode="d" d="M45 126v548q0 52 36.5 89t89.5 37h548q53 0 89.5 -37t36.5 -89v-548q0 -52 -36.5 -89t-89.5 -37h-548q-53 0 -89.5 37t-36.5 89zM115 140q0 -29 20.5 -49.5t49.5 -20.5h520q29 0 49.5 20.5t20.5 49.5v520q0 29 -20.5 49.5t-49.5 20.5h-520q-29 0 -49.5 -20.5t-20.5 -49.5 v-520zM253 465l20 195h231l41 -92l13 -6l50 -121l3 1l-85 218h91l20 -195q0 -73 -48 -124t-119 -51v-100h118q14 0 22 -7.5t8 -17.5t-8 -17.5t-22 -7.5h-287q-14 0 -22 7.5t-8 17.5t8 17.5t22 7.5h119v100q-71 0 -119 51t-48 124z" />
<glyph unicode="e" d="M45 126v548q0 52 36.5 89t89.5 37h548q53 0 89.5 -37t36.5 -89v-548q0 -52 -36.5 -89t-89.5 -37h-548q-53 0 -89.5 37t-36.5 89zM115 140q0 -29 20.5 -49.5t49.5 -20.5h520q29 0 49.5 20.5t20.5 49.5v520q0 29 -20.5 49.5t-49.5 20.5h-520q-29 0 -49.5 -20.5t-20.5 -49.5 v-520zM185 165q0 10 8 17.5t22 7.5h460q14 0 22 -7.5t8 -17.5t-8 -17.5t-22 -7.5h-460q-14 0 -22 7.5t-8 17.5zM185 539q0 12 10 22l90 90q9 9 25 9t25 -9l90 -90q10 -10 10 -22q0 -11 -7 -18t-17 -7q-12 0 -23 11l-53 53v-308q0 -14 -7.5 -22t-17.5 -8t-17.5 8t-7.5 22v308 l-53 -53q-11 -11 -23 -11q-10 0 -17 7t-7 18zM454 539q0 12 10 22l90 90q8 8 26 8q16 0 24 -8l90 -90q10 -10 10 -22q0 -11 -7 -18t-17 -7q-12 0 -23 11l-53 53v-308q0 -14 -7.5 -22t-17.5 -8t-17.5 8t-7.5 22v308l-53 -53q-11 -11 -23 -11q-10 0 -17 7t-7 18z" />
<glyph unicode="f" d="M45 126v548q0 52 36.5 89t89.5 37h548q53 0 89.5 -37t36.5 -89v-548q0 -52 -36.5 -89t-89.5 -37h-548q-53 0 -89.5 37t-36.5 89zM115 140q0 -29 20.5 -49.5t49.5 -20.5h518q31 0 51.5 20.5t20.5 49.5v520q0 29 -20.5 49.5t-49.5 20.5h-520q-29 0 -49.5 -20.5t-20.5 -49.5 v-520zM259 191v405q0 26 18.5 45t44.5 19h272q24 0 37 -15t13 -35t-13 -35t-37 -15h-235v-100h186q23 0 36 -15t13 -35t-13 -35t-36 -15h-186v-169q0 -24 -14.5 -37.5t-34.5 -13.5t-35.5 13.5t-15.5 37.5z" />
<glyph unicode="g" d="M45 126v548q0 52 36.5 89t89.5 37h548q53 0 89.5 -37t36.5 -89v-548q0 -52 -36.5 -89t-89.5 -37h-548q-53 0 -89.5 37t-36.5 89zM115 140q0 -29 20.5 -49.5t49.5 -20.5h520q29 0 49.5 20.5t20.5 49.5v520q0 29 -20.5 49.5t-49.5 20.5h-520q-29 0 -49.5 -20.5t-20.5 -49.5 v-520zM185 635q0 10 8 17.5t22 7.5h460q14 0 22 -7.5t8 -17.5t-8 -17.5t-22 -7.5h-205v-147q25 0 49 -18l-33 -37q-19 11 -41 11l-25 26v165h-205q-14 0 -22 7.5t-8 17.5zM301 190l138 156l-137 155h36l119 -134l118 134h37l-136 -156l136 -155h-36l-119 135l-119 -135h-37z M314 338h50q0 -35 16 -51l-31 -35q-35 38 -35 86zM377 226l34 39q16 -8 34 -8q29 0 50 17l34 -38q-36 -29 -84 -29q-35 0 -68 19zM513 380l34 39q29 -37 29 -81q0 -42 -23 -73l-34 39q7 14 7 34q0 22 -13 42z" />
<glyph unicode="h" d="M45 126v548q0 52 36.5 89t89.5 37h548q53 0 89.5 -37t36.5 -89v-548q0 -52 -36.5 -89t-89.5 -37h-548q-53 0 -89.5 37t-36.5 89zM115 140q0 -29 20.5 -49.5t49.5 -20.5h520q29 0 49.5 20.5t20.5 49.5v520q0 29 -20.5 49.5t-49.5 20.5h-520q-29 0 -49.5 -20.5t-20.5 -49.5 v-520zM135 405q0 10 8 17.5t22 7.5h63l-53 53q-11 11 -11 23q0 10 7 17t18 7q12 0 22 -10l89 -89q10 -10 10 -26t-10 -26l-89 -89q-10 -10 -22 -10q-11 0 -18 7t-7 17q0 12 11 23l53 53h-63q-14 0 -22 7.5t-8 17.5zM291 252l137 156l-137 155h36l119 -135l119 135h37 l-137 -155l137 -156h-37l-119 135l-118 -135h-37zM330 150v95l20 22v-117q0 -10 -10 -10t-10 10zM330 307v200l20 -19v-159zM330 569v81q0 10 10 10t10 -10v-104zM370 166v124l76 86l76 -87v-123q0 -10 -8 -18t-18 -8h-100q-10 0 -18 8t-8 18zM370 352v113l50 -56zM370 524 v110q0 10 8 18t18 8h100q10 0 18 -8t8 -18v-109l-76 -87zM473 408l49 55v-111zM542 150v117l20 -21v-96q0 -10 -10 -10t-10 10zM542 329v157l20 22v-202zM542 547v103q0 10 10 10t10 -10v-80zM582 405q0 16 10 26l89 89q10 10 22 10q11 0 18 -7t7 -17q0 -12 -11 -23l-53 -53 h63q14 0 22 -7.5t8 -17.5t-8 -17.5t-22 -7.5h-63l53 -53q11 -11 11 -23q0 -10 -7 -17t-18 -7q-12 0 -22 10l-89 89q-10 10 -10 26z" />
<glyph unicode="i" d="M45 126v548q0 52 36.5 89t89.5 37h548q53 0 89.5 -37t36.5 -89v-548q0 -52 -36.5 -89t-89.5 -37h-548q-53 0 -89.5 37t-36.5 89zM115 140q0 -29 20.5 -49.5t49.5 -20.5h520q29 0 49.5 20.5t20.5 49.5v520q0 29 -20.5 49.5t-49.5 20.5h-520q-29 0 -49.5 -20.5t-20.5 -49.5 v-520zM185 445q0 89 76 151.5t184 62.5t184 -62.5t76 -151.5h-1q-35 26 -66 26t-63 -26h-1q-35 26 -63 26q-22 0 -41 -11v-242q0 -33 -23 -55.5t-56 -22.5q-32 0 -55 22.5t-23 55.5q0 22 25 22t25 -22q0 -12 8.5 -20t19.5 -8q12 0 20.5 8t8.5 20v244q-18 9 -38 9 q-36 0 -66 -26h-1q-29 26 -63 26t-64 -26h-3z" />
<glyph unicode="j" d="M45 126v548q0 52 36.5 89t89.5 37h548q53 0 89.5 -37t36.5 -89v-548q0 -52 -36.5 -89t-89.5 -37h-548q-53 0 -89.5 37t-36.5 89zM115 140q0 -29 20.5 -49.5t49.5 -20.5h520q29 0 49.5 20.5t20.5 49.5v520q0 29 -20.5 49.5t-49.5 20.5h-520q-29 0 -49.5 -20.5t-20.5 -49.5 v-520zM185 445q0 89 76 151.5t184 62.5t184 -62.5t76 -151.5h-1q-35 26 -66 26t-63 -26h-1q-35 26 -63 26q-22 0 -41 -11v-242q0 -33 -23 -55.5t-56 -22.5q-32 0 -55 22.5t-23 55.5q0 22 25 22t25 -22q0 -12 8.5 -20t19.5 -8q12 0 20.5 8t8.5 20v244q-18 9 -38 9 q-36 0 -66 -26h-1q-29 26 -63 26t-64 -26h-3zM218 640h2q40 -9 40 -26q0 -8 -5.5 -13.5t-13.5 -5.5q-18 0 -23 45zM251 568q5 -45 23 -45q8 0 13.5 5.5t5.5 13.5q0 17 -40 26h-2zM303 610q5 -45 23 -45q8 0 13.5 5.5t5.5 13.5q0 17 -40 26h-2z" />
<glyph unicode="k" d="M45 126v548q0 52 36.5 89t89.5 37h548q53 0 89.5 -37t36.5 -89v-548q0 -52 -36.5 -89t-89.5 -37h-548q-53 0 -89.5 37t-36.5 89zM115 140q0 -29 20 -49.5t50 -20.5h520q29 0 49.5 20.5t20.5 49.5v520q0 29 -20.5 49.5t-49.5 20.5h-520q-29 0 -49.5 -20.5t-20.5 -49.5 v-520zM186 607q0 22 14.5 37.5t34.5 15.5v-7q-17 0 -29.5 -13.5t-12.5 -32.5t12.5 -32.5t29.5 -13.5v-7q-20 0 -34.5 15.5t-14.5 37.5zM218 607q0 13 8.5 22t20.5 9v-4q-10 0 -17.5 -8t-7.5 -19t7.5 -19t17.5 -8v-4q-12 0 -20.5 9t-8.5 22zM286 240v420h100v-370 q0 -23 18 -36.5t42 -13.5t41.5 13.5t17.5 36.5v370h100v-420q0 -47 -47 -73.5t-112 -26.5t-112.5 26.5t-47.5 73.5zM296 240q0 -44 47 -67t103 -23v80q-25 0 -47.5 15t-22.5 45v360h-80v-410zM644 576v4q10 0 17.5 8t7.5 19t-7.5 19t-17.5 8v4q12 0 20.5 -9t8.5 -22 t-8.5 -22t-20.5 -9zM656 554v7q17 0 29.5 13.5t12.5 32.5t-12.5 32.5t-29.5 13.5v7q20 0 34.5 -15.5t14.5 -37.5t-14.5 -37.5t-34.5 -15.5z" />
<glyph unicode="l" d="M45 126v548q0 52 36.5 89t89.5 37h548q53 0 89.5 -37t36.5 -89v-548q0 -52 -36.5 -89t-89.5 -37h-548q-53 0 -89.5 37t-36.5 89zM115 140q0 -30 20 -50t50 -20h520q29 0 49.5 20.5t20.5 49.5v520q0 29 -20.5 49.5t-49.5 20.5h-520q-29 0 -49.5 -20.5t-20.5 -49.5v-520z M245 251q0 20 16 36l114 113l-114 114q-15 15 -15 34q0 20 15.5 36t35.5 16q19 0 34 -15l115 -116l114 114q17 17 37 17q19 0 33.5 -14t14.5 -34q0 -21 -19 -40l-112 -112l115 -113q16 -16 16 -35q0 -20 -16 -36t-36 -16q-19 0 -39 20l-110 110l-113 -110q-20 -20 -35 -20 q-20 0 -35.5 15.5t-15.5 35.5z" />
<glyph unicode="m" d="M45 126v548q0 52 36.5 89t89.5 37h548q53 0 89.5 -37t36.5 -89v-548q0 -52 -36.5 -89t-89.5 -37h-548q-53 0 -89.5 37t-36.5 89zM115 140q0 -29 20 -49.5t50 -20.5h518q29 0 50.5 20.5t21.5 49.5v520q0 29 -20.5 49.5t-49.5 20.5h-520q-29 0 -49.5 -20.5t-20.5 -49.5 v-520zM257 250l139 106l-139 106h37l120 -91l120 91h38l-139 -106l139 -106h-38l-120 92l-120 -92h-37zM342 281l72 55l13 -9q4 -21 17.5 -37t27.5 -24.5t25 -22t11 -30.5q0 -30 -24.5 -51.5t-56.5 -21.5t-52.5 25.5t-26.5 54.5t-6 61zM342 320v73l48 -37zM342 431 q0 55 25 89t93 51q15 4 33 4q55 0 55 -43q0 -25 -21.5 -51.5t-56.5 -39.5q-33 -13 -41 -54l-14 -11zM342 553q0 18 15 18q22 0 22 -18q0 -7 -5 -12.5t-12 -5.5q-20 0 -20 18zM373 578q0 16 16 19q25 0 25 -14q0 -7 -4.5 -13.5t-10.5 -6.5q-26 0 -26 15zM413 603q0 21 18 21 q11 0 16.5 -6.5t5.5 -14.5q0 -21 -19 -21q-21 0 -21 21zM459 614q0 10 6 17.5t16 7.5q23 0 23 -22q0 -10 -6.5 -18.5t-16.5 -8.5t-16 7t-6 17zM509 613l3 21q9 26 30 26q27 0 27 -36l-6 -18q-12 -24 -31 -24q-7 0 -14 6q-9 8 -9 25z" />
<glyph unicode="n" d="M45 126v548q0 52 36.5 89t89.5 37h548q53 0 89.5 -37t36.5 -89v-548q0 -52 -36.5 -89t-89.5 -37h-548q-53 0 -89.5 37t-36.5 89zM115 140q0 -29 20.5 -49.5t49.5 -20.5h520q29 0 49.5 20.5t20.5 49.5v520q0 29 -20.5 49.5t-49.5 20.5h-520q-29 0 -49.5 -20.5t-20.5 -49.5 v-520zM185 165q0 10 8 17.5t22 7.5h460q14 0 22 -7.5t8 -17.5t-8 -17.5t-22 -7.5h-460q-14 0 -22 7.5t-8 17.5zM185 414q0 116 115 183q0 -35 -6 -60.5t-12.5 -37t-6.5 -14.5q0 -10 6 -20t19 -10q22 0 46 26.5t24 67.5q0 39 -28 80q42 29 81 29q59 0 86.5 -51.5t27.5 -165.5 h3q7 68 45 97.5t88 29.5q-29 -49 -29 -88q0 -34 10.5 -75t10.5 -64q0 -43 -42 -85t-119 -58h-49q48 19 82 60t34 89q-49 -50 -82 -50q-16 0 -24.5 12.5t-9.5 28t-7.5 28t-19.5 12.5q3 -15 3 -29q0 -28 -15 -43t-41 -15q-10 0 -28 12.5t-27 27.5q0 -87 80 -133h-48 q-69 11 -118 83t-49 133z" />
<glyph unicode="o" d="M45 126v548q0 52 36.5 89t89.5 37h548q53 0 89.5 -37t36.5 -89v-548q0 -52 -36.5 -89t-89.5 -37h-548q-53 0 -89.5 37t-36.5 89zM115 140q0 -29 20.5 -49.5t49.5 -20.5h520q29 0 49.5 20.5t20.5 49.5v520q0 29 -20.5 49.5t-49.5 20.5h-520q-29 0 -49.5 -20.5t-20.5 -49.5 v-520zM249 412h193l-44 -272h-105zM277 520l31 -13l18 18l17 -18l-6 -40l5 -32l-26 2l-26 -7l-7 24v33zM282 567v1h307l24 -171h-130l-21 88zM447 134l36 255h130v-255h-2l-62 169h-2l-99 -169h-1zM475 626q0 23 16 39t37 16q22 0 37 -16t15 -39q0 -22 -15 -37.5t-37 -15.5 q-21 0 -37 15.5t-16 37.5z" />
<glyph unicode="p" d="M45 126v548q0 52 36.5 89t89.5 37h548q53 0 89.5 -37t36.5 -89v-548q0 -52 -36.5 -89t-89.5 -37h-548q-53 0 -89.5 37t-36.5 89zM115 140q0 -29 20 -49.5t50 -20.5h520q29 0 49.5 20.5t20.5 49.5v520q0 29 -20.5 49.5t-49.5 20.5h-520q-29 0 -49.5 -20.5t-20.5 -49.5 v-520zM185 140v5h96l84 230h-5l3 10l114 81l80 -56l-11 -35h-5l-33 -91l-221 -139h420v-5h-522zM291 155l212 135l31 85h-161zM299 375l158 111l-158 112h42l136 -96l137 96h43l-158 -112l158 -111h-43l-137 97l-136 -97h-42zM383 441l25 73l41 -28zM420 549l37 111h179 l-15 -50l-144 -100zM507 486l96 68l-35 -110z" />
<glyph unicode="q" d="M45 126v548q0 52 36.5 89t89.5 37h548q53 0 89.5 -37t36.5 -89v-548q0 -52 -36.5 -89t-89.5 -37h-548q-53 0 -89.5 37t-36.5 89zM115 140q0 -29 20 -49.5t50 -20.5h518q29 0 50.5 20.5t21.5 49.5v520q0 29 -20.5 49.5t-49.5 20.5h-520q-29 0 -49.5 -20.5t-20.5 -49.5 v-520zM209 397q0 83 58.5 141.5t141.5 58.5v-50q-62 0 -106 -44t-44 -106t44 -106t106 -44v-50q-83 0 -141.5 58.5t-58.5 141.5zM457 397q0 83 58.5 141.5t141.5 58.5v-50q-56 0 -97.5 -35.5t-50.5 -89.5h136v-50h-136q9 -54 50.5 -89.5t97.5 -35.5v-50q-83 0 -141.5 58.5 t-58.5 141.5z" />
<glyph unicode="r" d="M45 126v548q0 52 36.5 89t89.5 37h548q53 0 89.5 -37t36.5 -89v-548q0 -52 -36.5 -89t-89.5 -37h-548q-53 0 -89.5 37t-36.5 89zM115 140q0 -29 20 -49.5t50 -20.5h520q29 0 49.5 20.5t20.5 49.5v520q0 29 -20.5 49.5t-49.5 20.5h-520q-29 0 -49.5 -20.5t-20.5 -49.5 v-520zM186 369q0 17 10 33l34 51l-42 31h141l50 -128l-41 34l-55 -87h125v-126h-102q-25 0 -40 16t-29 47l-46 108q-5 10 -5 21zM199 368q0 -7 4 -14l47 -108q0 27 20 61l66 104l13 -12l-29 72h-94l23 -15l-39 -60q-11 -14 -11 -28zM261 242q0 -22 11.5 -37.5t33.5 -15.5h89 v100h-119q-15 -22 -15 -47zM277 527l31 76q17 40 86 40h120q27 0 46 -25l35 -51l43 29l-51 -131h-140l45 28l-59 81l-42 -103zM294 535l91 -43l38 94q-26 40 -56 40q-36 0 -46 -29zM403 630q12 -9 28 -28l81 -113l-14 -10h80l33 82l-19 -12l-44 61q-14 20 -36 20h-109z M422 241l85 111v-49h96l-70 107l107 67l56 -86q9 -17 9 -32q0 -25 -25 -62l-66 -97q-15 -23 -53 -23h-54v-55zM441 241l51 -75v23h69q28 0 44 19l56 84q-20 -3 -36 -3h-133v22zM553 405l65 -102h21q22 0 37.5 16t15.5 36q0 14 -8 28l-47 75z" />
<glyph unicode="s" d="M45 126v548q0 52 36.5 89t89.5 37h548q53 0 89.5 -37t36.5 -89v-548q0 -52 -36.5 -89t-89.5 -37h-548q-53 0 -89.5 37t-36.5 89zM115 140q0 -29 20 -49.5t50 -20.5h520q29 0 49.5 20.5t20.5 49.5v520q0 29 -20.5 49.5t-49.5 20.5h-520q-29 0 -49.5 -20.5t-20.5 -49.5 v-520zM200 398q0 99 72 171t172 72q99 0 171 -72t72 -171q0 -100 -72 -172t-171 -72q-100 0 -172 72t-72 172zM223 398q0 -60 44 -132l2 2q-14 34 -14 75q0 43 18 89q21 53 64 88.5t107 35.5v62q59 -21 97.5 -58.5t38.5 -70.5q0 -34 -39 -73t-97 -54v62q-43 -18 -78.5 -56 t-35.5 -63q0 -28 35.5 -66t78.5 -57v62q79 0 137.5 61t58.5 139q0 72 -53.5 126t-142.5 54q-90 0 -155.5 -69.5t-65.5 -156.5z" />
<glyph unicode="t" d="M45 126v548q0 52 36.5 89t89.5 37h548q53 0 89.5 -37t36.5 -89v-548q0 -52 -36.5 -89t-89.5 -37h-548q-53 0 -89.5 37t-36.5 89zM115 140q0 -29 20 -49.5t50 -20.5h520q29 0 49.5 20.5t20.5 49.5v520q0 29 -20.5 49.5t-49.5 20.5h-520q-29 0 -49.5 -20.5t-20.5 -49.5 v-520zM196 254q0 22 10 42l51 100l-43 20l86 18l39 -82l-45 23l-42 -82q-12 -24 -12 -37q0 -24 41 -24h161v-42h-172q-38 0 -56 18.5t-18 45.5zM291 467l83 146q25 43 68 43q38 0 58 -32l63 -101l41 29l-29 -81h-88l41 30l-51 84q-18 28 -37 28q-21 0 -36 -28l-74 -137z M462 212l51 70v-50h94q49 0 49 25q0 14 -12 33l-77 142l35 21l81 -147q14 -25 14 -47q0 -29 -20.5 -49t-59.5 -20h-104v-49z" />
<glyph unicode="u" d="M45 126v548q0 52 36.5 89t89.5 37h548q53 0 89.5 -37t36.5 -89v-548q0 -52 -36.5 -89t-89.5 -37h-548q-53 0 -89.5 37t-36.5 89zM115 140q0 -29 20.5 -49.5t49.5 -20.5h520q29 0 49.5 20.5t20.5 49.5v520q0 29 -20.5 49.5t-49.5 20.5h-520q-29 0 -49.5 -20.5t-20.5 -49.5 v-520zM205 414v169q0 19 9 29.5t21 10.5t21 -10.5t9 -29.5v-113q-12 -2 -22 -10t-10 -19q0 -9 4 -16l38 -62v6l-36 58q-3 6 -3 13q0 11 11.5 19.5t22.5 8.5q10 0 18 -9l89 -122q18 -24 18 -65v-132h-110v121q0 14 -10 27q-48 67 -59 87t-11 39zM345 473v121l98 -60v-119z M345 599l100 61l100 -61l-100 -61zM447 415v119l98 60v-119zM494 140v132q0 41 18 65l89 122q7 9 18 9q12 0 23 -9t11 -21q0 -5 -3 -11l-36 -58v-6l38 62q4 5 4 13q0 12 -10 21t-22 11v113q0 19 9 29.5t21 10.5t21 -10.5t9 -29.5v-169q0 -19 -11 -39t-59 -87 q-10 -13 -10 -27v-121h-110z" />
<glyph unicode="v" d="M106 372q0 22 14 43l44 67l-56 41h186l64 -167l-53 42l-72 -113h164v-165h-134q-32 0 -51.5 21t-37.5 62l-62 141q-6 14 -6 28zM124 371q0 -10 4 -18l60 -141q0 34 28 78l87 137l16 -16l-38 95h-122l28 -20l-50 -79q-13 -21 -13 -36zM204 206q0 -29 15.5 -49t43.5 -20 h116v130h-155q-20 -26 -20 -61zM225 578l41 99q22 53 113 53h157q36 0 58 -33l47 -66l56 37l-67 -170h-183l60 35l-78 107l-55 -134zM248 588l118 -56l51 124q-35 52 -74 52q-20 0 -37 -11t-24 -27zM390 713q16 -10 36 -37l107 -148l-19 -12h104l44 108l-25 -17l-56 79 q-19 27 -48 27h-143zM415 204l110 146v-65h125l-90 139l139 90l73 -114q12 -17 12 -40q0 -38 -32 -83l-87 -127q-20 -30 -70 -30h-70v-71zM440 204l67 -98v31h89q24 0 35 5.5t23 19.5l73 109q-21 -4 -47 -4h-173v28zM586 418l85 -133h27q29 0 49 21.5t20 48.5q0 18 -10 35 l-62 99z" />
<glyph unicode="w" d="M41 414q0 77 32 136t87 93.5t122 51.5t143 17q99 0 171 -22t148 -69v-125q-107 60 -198 60q-66 0 -115.5 -43t-49.5 -112q0 -70 49 -112.5t116 -42.5q113 0 198 52v-133q-71 -41 -142.5 -57.5t-176.5 -16.5q-101 0 -186.5 35.5t-141.5 110.5t-56 177zM59 414 q0 -134 108 -219.5t258 -85.5q170 0 301 69v91q-69 -41 -180 -41q-74 0 -128.5 47t-54.5 126t54.5 126t128.5 47q108 0 180 -48v82q-137 86 -301 86q-100 0 -181 -30t-133 -95t-52 -155zM124 294v175q0 49 29 80.5t79 31.5q51 0 84 -32t33 -80t-33 -80t-84 -32q-13 0 -21 3 v66q8 -4 21 -4q23 0 37 12.5t14 34.5q0 21 -14 33.5t-37 12.5q-15 0 -28.5 -13t-13.5 -33v-235q-26 0 -46 18.5t-20 41.5zM636 409v63h213v-63h-50v-88h-113v88h-50zM653 426h50v-88h79v88h51v30h-180v-30z" />
<glyph unicode="x" d="M130 386q0 129 93 221.5t223 92.5q129 0 221.5 -92.5t92.5 -221.5q0 -130 -92.5 -223t-221.5 -93q-130 0 -223 93t-93 223zM160 386q0 -78 57 -171l3 3q-18 42 -18 96q0 62 23 117q66 159 221 159v82q78 -29 127.5 -77t49.5 -90q0 -44 -51 -95t-126 -70v80 q-55 -23 -101.5 -72t-46.5 -82q0 -36 46 -85.5t102 -74.5v81q102 0 178.5 79t76.5 180q0 94 -70 163.5t-185 69.5q-116 0 -201 -90t-85 -203z" />
<glyph unicode="y" d="M131 84v628h628v-628h-628zM181 134h530v530h-530v-530zM239 191v415h414v-415h-414zM289 241h314v315h-314v-315z" />
<glyph unicode="z" d="M113 371q0 120 85 207.5t203 87.5v-61q-90 0 -158 -69.5t-68 -164.5q0 -96 66 -164.5t160 -68.5v-62q-118 0 -203 87.5t-85 207.5zM488 371q0 119 87 207t202 88v-61q-82 0 -146 -58.5t-80 -144.5h207v-61h-207q15 -87 78 -145t148 -58v-62q-118 0 -203.5 87.5 t-85.5 207.5z" />
<glyph unicode="{" d="M45 126v548q0 52 36.5 89t89.5 37h548q53 0 89.5 -37t36.5 -89v-548q0 -52 -36.5 -89t-89.5 -37h-548q-53 0 -89.5 37t-36.5 89zM185 140h92v90h-92v-90zM185 240h520v30h-520v-30zM185 280h520v191h-145q0 -47 -32.5 -80.5t-78.5 -33.5h-8q-46 0 -78 33.5t-32 80.5h-146 v-191zM384 602h37v-177h53v235h-47q-6 -21 -43 -26v-32zM399 140h92v90h-92v-90zM613 140h92v90h-92v-90z" />
<glyph unicode="|" d="M45 126v548q0 52 36.5 89t89.5 37h548q53 0 89.5 -37t36.5 -89v-548q0 -52 -36.5 -89t-89.5 -37h-548q-53 0 -89.5 37t-36.5 89zM185 140h92v90h-92v-90zM185 240h520v30h-520v-30zM185 280h256v77q-46 0 -78 33.5t-32 80.5h-146v-191zM399 140h92v90h-92v-90zM449 280 h256v191h-145q0 -47 -32.5 -80.5t-78.5 -33.5v-77zM613 140h92v90h-92v-90z" />
<glyph unicode="}" d="M43 0v800l270 -269l269 269l262 -261l-269 -270l269 -269h-801z" />
<glyph unicode="~" d="M45 126v548q0 52 36.5 89t89.5 37h548q53 0 89.5 -37t36.5 -89v-548q0 -52 -36.5 -89t-89.5 -37h-548q-53 0 -89.5 37t-36.5 89z" />
<glyph unicode="&#xa0;" />
<glyph unicode="&#xa6;" d="M45 126v548q0 52 36.5 89t89.5 37h548q53 0 89.5 -37t36.5 -89v-548q0 -52 -36.5 -89t-89.5 -37h-548q-53 0 -89.5 37t-36.5 89zM185 140h92v90h-92v-90zM185 240h520v30h-520v-30zM185 280h256v77q-46 0 -78 33.5t-32 80.5h-146v-191zM399 140h92v90h-92v-90zM449 280 h256v191h-145q0 -47 -32.5 -80.5t-78.5 -33.5v-77zM613 140h92v90h-92v-90z" />
<glyph unicode="&#xad;" d="M45 126v548q0 52 36.5 89t89.5 37h548q53 0 89.5 -37t36.5 -89v-548q0 -52 -36.5 -89t-89.5 -37h-548q-53 0 -89.5 37t-36.5 89zM115 140q0 -29 20.5 -49.5t49.5 -20.5h520q29 0 49.5 20.5t20.5 49.5v520q0 29 -20.5 49.5t-49.5 20.5h-520q-29 0 -49.5 -20.5t-20.5 -49.5 v-520zM235 211q0 34 26 55v344q0 24 13.5 37t31.5 13t31.5 -13t13.5 -37v-344q26 -21 26 -55q0 -29 -21 -50t-50 -21t-50 21t-21 50zM240 211q0 -27 19.5 -46.5t46.5 -19.5t46.5 19.5t19.5 46.5q0 32 -26 52v347q0 22 -12 34t-28 12t-28 -12t-12 -34v-347q-26 -20 -26 -52z M245 211q0 32 26 50v349q0 19 10.5 30t24.5 11t24.5 -11t10.5 -30v-349q26 -18 26 -50q0 -25 -17.5 -43t-43.5 -18t-43.5 18t-17.5 43zM276 527h60v83q0 17 -9 26.5t-21 9.5t-21 -9.5t-9 -26.5v-83zM416 187v70q0 16 11 29t38 13q49 0 49 -42v-16h-40v18q0 13 -9 13t-9 -13 v-75q0 -12 9 -12t9 12v27h40v-24q0 -16 -11 -29t-38 -13t-38 13t-11 29zM529 303q0 10 7 17.5t17 7.5t17.5 -7.5t7.5 -17.5t-7.5 -17t-17.5 -7t-17 7t-7 17zM542 303q0 -11 11 -11t11 11t-11 11t-11 -11z" />
<glyph unicode="&#x2000;" horiz-adv-x="400" />
<glyph unicode="&#x2001;" horiz-adv-x="800" />
<glyph unicode="&#x2002;" horiz-adv-x="400" />
<glyph unicode="&#x2003;" horiz-adv-x="800" />
<glyph unicode="&#x2004;" horiz-adv-x="266" />
<glyph unicode="&#x2005;" horiz-adv-x="200" />
<glyph unicode="&#x2006;" horiz-adv-x="133" />
<glyph unicode="&#x2007;" horiz-adv-x="133" />
<glyph unicode="&#x2008;" horiz-adv-x="100" />
<glyph unicode="&#x2009;" horiz-adv-x="160" />
<glyph unicode="&#x200a;" horiz-adv-x="44" />
<glyph unicode="&#x2010;" d="M45 126v548q0 52 36.5 89t89.5 37h548q53 0 89.5 -37t36.5 -89v-548q0 -52 -36.5 -89t-89.5 -37h-548q-53 0 -89.5 37t-36.5 89zM115 140q0 -29 20.5 -49.5t49.5 -20.5h520q29 0 49.5 20.5t20.5 49.5v520q0 29 -20.5 49.5t-49.5 20.5h-520q-29 0 -49.5 -20.5t-20.5 -49.5 v-520zM235 211q0 34 26 55v344q0 24 13.5 37t31.5 13t31.5 -13t13.5 -37v-344q26 -21 26 -55q0 -29 -21 -50t-50 -21t-50 21t-21 50zM240 211q0 -27 19.5 -46.5t46.5 -19.5t46.5 19.5t19.5 46.5q0 32 -26 52v347q0 22 -12 34t-28 12t-28 -12t-12 -34v-347q-26 -20 -26 -52z M245 211q0 32 26 50v349q0 19 10.5 30t24.5 11t24.5 -11t10.5 -30v-349q26 -18 26 -50q0 -25 -17.5 -43t-43.5 -18t-43.5 18t-17.5 43zM276 527h60v83q0 17 -9 26.5t-21 9.5t-21 -9.5t-9 -26.5v-83zM416 187v70q0 16 11 29t38 13q49 0 49 -42v-16h-40v18q0 13 -9 13t-9 -13 v-75q0 -12 9 -12t9 12v27h40v-24q0 -16 -11 -29t-38 -13t-38 13t-11 29zM529 303q0 10 7 17.5t17 7.5t17.5 -7.5t7.5 -17.5t-7.5 -17t-17.5 -7t-17 7t-7 17zM542 303q0 -11 11 -11t11 11t-11 11t-11 -11z" />
<glyph unicode="&#x2011;" d="M45 126v548q0 52 36.5 89t89.5 37h548q53 0 89.5 -37t36.5 -89v-548q0 -52 -36.5 -89t-89.5 -37h-548q-53 0 -89.5 37t-36.5 89zM115 140q0 -29 20.5 -49.5t49.5 -20.5h520q29 0 49.5 20.5t20.5 49.5v520q0 29 -20.5 49.5t-49.5 20.5h-520q-29 0 -49.5 -20.5t-20.5 -49.5 v-520zM235 211q0 34 26 55v344q0 24 13.5 37t31.5 13t31.5 -13t13.5 -37v-344q26 -21 26 -55q0 -29 -21 -50t-50 -21t-50 21t-21 50zM240 211q0 -27 19.5 -46.5t46.5 -19.5t46.5 19.5t19.5 46.5q0 32 -26 52v347q0 22 -12 34t-28 12t-28 -12t-12 -34v-347q-26 -20 -26 -52z M245 211q0 32 26 50v349q0 19 10.5 30t24.5 11t24.5 -11t10.5 -30v-349q26 -18 26 -50q0 -25 -17.5 -43t-43.5 -18t-43.5 18t-17.5 43zM276 527h60v83q0 17 -9 26.5t-21 9.5t-21 -9.5t-9 -26.5v-83zM416 187v70q0 16 11 29t38 13q49 0 49 -42v-16h-40v18q0 13 -9 13t-9 -13 v-75q0 -12 9 -12t9 12v27h40v-24q0 -16 -11 -29t-38 -13t-38 13t-11 29zM529 303q0 10 7 17.5t17 7.5t17.5 -7.5t7.5 -17.5t-7.5 -17t-17.5 -7t-17 7t-7 17zM542 303q0 -11 11 -11t11 11t-11 11t-11 -11z" />
<glyph unicode="&#x2012;" d="M45 126v548q0 52 36.5 89t89.5 37h548q53 0 89.5 -37t36.5 -89v-548q0 -52 -36.5 -89t-89.5 -37h-548q-53 0 -89.5 37t-36.5 89zM115 140q0 -29 20.5 -49.5t49.5 -20.5h520q29 0 49.5 20.5t20.5 49.5v520q0 29 -20.5 49.5t-49.5 20.5h-520q-29 0 -49.5 -20.5t-20.5 -49.5 v-520zM235 211q0 34 26 55v344q0 24 13.5 37t31.5 13t31.5 -13t13.5 -37v-344q26 -21 26 -55q0 -29 -21 -50t-50 -21t-50 21t-21 50zM240 211q0 -27 19.5 -46.5t46.5 -19.5t46.5 19.5t19.5 46.5q0 32 -26 52v347q0 22 -12 34t-28 12t-28 -12t-12 -34v-347q-26 -20 -26 -52z M245 211q0 32 26 50v349q0 19 10.5 30t24.5 11t24.5 -11t10.5 -30v-349q26 -18 26 -50q0 -25 -17.5 -43t-43.5 -18t-43.5 18t-17.5 43zM276 527h60v83q0 17 -9 26.5t-21 9.5t-21 -9.5t-9 -26.5v-83zM416 187v70q0 16 11 29t38 13q49 0 49 -42v-16h-40v18q0 13 -9 13t-9 -13 v-75q0 -12 9 -12t9 12v27h40v-24q0 -16 -11 -29t-38 -13t-38 13t-11 29zM529 303q0 10 7 17.5t17 7.5t17.5 -7.5t7.5 -17.5t-7.5 -17t-17.5 -7t-17 7t-7 17zM542 303q0 -11 11 -11t11 11t-11 11t-11 -11z" />
<glyph unicode="&#x2013;" horiz-adv-x="590" d="M45 126v548q0 52 23 89t56 37h342q33 0 56 -37t23 -89v-548q0 -52 -23 -89t-56 -37h-342q-33 0 -56 37t-23 89zM89 140q0 -29 12.5 -49.5t30.5 -20.5h326q18 0 30.5 20.5t12.5 49.5v520q0 29 -12.5 49.5t-30.5 20.5h-326q-18 0 -30.5 -20.5t-12.5 -49.5v-520zM164 211 q0 34 16 55v344q0 24 8.5 37t19.5 13t19.5 -13t8.5 -37v-344q16 -21 16 -55q0 -29 -13 -50t-31 -21t-31 21t-13 50zM167 211q0 -27 12 -46.5t29 -19.5t29 19.5t12 46.5q0 32 -16 52v347q0 22 -7.5 34t-17.5 12t-17.5 -12t-7.5 -34v-347q-16 -20 -16 -52zM170 211q0 32 16 50 v349q0 19 6.5 30t15.5 11t15.5 -11t6.5 -30v-349q16 -18 16 -50q0 -25 -11 -43t-27 -18t-27 18t-11 43zM189 527h38v83q0 17 -5.5 26.5t-13 9.5t-13.5 -9.5t-6 -26.5v-83zM277 187v70q0 16 7 29t24 13q30 0 30 -42v-16h-25v18q0 13 -5.5 13t-5.5 -13v-75q0 -12 5.5 -12 t5.5 12v27h25v-24q0 -16 -7 -29t-23.5 -13t-23.5 13t-7 29zM348 303q0 10 4 17.5t10.5 7.5t11 -7.5t4.5 -17.5t-4.5 -17t-11 -7t-10.5 7t-4 17zM356 303q0 -11 6.5 -11t6.5 11t-6.5 11t-6.5 -11z" />
<glyph unicode="&#x2014;" horiz-adv-x="1090" d="M45 126v548q0 52 45.5 89t111.5 37h686q66 0 111.5 -37t45.5 -89v-548q0 -52 -45.5 -89t-111.5 -37h-686q-66 0 -111.5 37t-45.5 89zM132 140q0 -29 26 -49.5t62 -20.5h650q36 0 62 20.5t26 49.5v520q0 29 -26 49.5t-62 20.5h-650q-36 0 -62 -20.5t-26 -49.5v-520z M282 211q0 34 33 55v344q0 24 17 37t39.5 13t39.5 -13t17 -37v-344q32 -21 32 -55q0 -29 -26 -50t-62.5 -21t-63 21t-26.5 50zM289 211q0 -27 24.5 -46.5t58 -19.5t58 19.5t24.5 46.5q0 32 -33 52v347q0 22 -15 34t-35 12t-35 -12t-15 -34v-347q-32 -20 -32 -52zM295 211 q0 32 33 50v349q0 19 13 30t30.5 11t30.5 -11t13 -30v-349q33 -18 33 -50q0 -25 -22 -43t-54.5 -18t-54.5 18t-22 43zM334 527h75v83q0 17 -11.5 26.5t-26.5 9.5t-26 -9.5t-11 -26.5v-83zM509 187v70q0 16 13.5 29t47.5 13q61 0 61 -42v-16h-50v18q0 13 -11 13t-11 -13v-75 q0 -12 11 -12t11 12v27h50v-24q0 -16 -13.5 -29t-47.5 -13t-47.5 13t-13.5 29zM650 303q0 10 9 17.5t21 7.5t21.5 -7.5t9.5 -17.5t-9.5 -17t-21.5 -7t-21 7t-9 17zM666 303q0 -11 14 -11t14 11t-14 11t-14 -11z" />
<glyph unicode="&#x201a;" d="M45 126v548q0 52 36.5 89t89.5 37h548q53 0 89.5 -37t36.5 -89v-548q0 -52 -36.5 -89t-89.5 -37h-548q-53 0 -89.5 37t-36.5 89zM115 140q0 -29 20 -49.5t50 -20.5h520q29 0 49.5 20.5t20.5 49.5v520q0 29 -20.5 49.5t-49.5 20.5h-520q-29 0 -49.5 -20.5t-20.5 -49.5 v-520zM207 291l66 38l-60 35l12 23l74 -43l97 56l-97 57l-74 -42l-12 22l60 35l-66 38l24 42l65 -38v69h26v-84l98 -55v111l-73 42l13 23l60 -35v76h49v-75l59 34l13 -23l-72 -41v-112l97 55v84h25v-70l67 39l25 -42l-66 -39l59 -34l-13 -22l-73 41l-96 -56l96 -56l72 43 l14 -23l-59 -35l66 -38l-24 -42l-68 39v-70h-25v85l-97 55v-113l72 -41l-12 -22l-60 33v-75h-49v76l-60 -34l-13 22l73 43v111l-98 -57v-83h-26v68l-65 -37z" />
<glyph unicode="&#x202f;" horiz-adv-x="160" />
<glyph unicode="&#x205f;" horiz-adv-x="200" />
<glyph unicode="&#xe000;" horiz-adv-x="700" d="M0 0v700h700v-700h-700z" />
</font>
</defs>
</svg>
