<?xml version="1.0" standalone="no"?>
<!DOCTYPE svg PUBLIC "-//W3C//DTD SVG 1.1//EN" "http://www.w3.org/Graphics/SVG/1.1/DTD/svg11.dtd" >
<svg xmlns="http://www.w3.org/2000/svg">
<metadata></metadata>
<defs>
<font id="gondola_sd_-_swashregular" horiz-adv-x="603" >
<font-face units-per-em="1000" ascent="800" descent="-200" />
<missing-glyph horiz-adv-x="600" />
<glyph horiz-adv-x="1000" />
<glyph horiz-adv-x="1000" />
<glyph unicode="&#xd;" horiz-adv-x="600" />
<glyph unicode=" "  horiz-adv-x="600" />
<glyph unicode="&#x09;" horiz-adv-x="600" />
<glyph unicode="&#xa0;" horiz-adv-x="600" />
<glyph unicode="!" horiz-adv-x="283" d="M183 274q-33 -15 -97 -49h-24l-5 682q0 44 -27 44l-30 -7q44 30 76 40l13 -2q9 0 38 17h13q7 -21 7 -68q0 -90 -2 -299l-3 -299q0 -20 11.5 -38.5t29.5 -20.5zM174 83q0 -35 -24 -66t-57 -31q-50 0 -50 66q0 40 21 70.5t57 30.5q10 0 33 -8q20 -29 20 -62z" />
<glyph unicode="&#x22;" horiz-adv-x="357" d="M91 1011q7 -54 -18 -122q-28 -73 -73 -97q17 30 23.5 78.5t-3.5 82.5q20 5 71 58zM250 1011q7 -53 -19 -122q-29 -73 -72 -97q17 30 22.5 78.5t-3.5 81.5q21 6 72 59z" />
<glyph unicode="#" horiz-adv-x="782" d="M441 691q-48 -94 -100 -204q59 -18 114 -22q35 87 97 255l59 -29q-52 -103 -110 -226q67 5 181 35l-75 -75q-82 -21 -139 -28l-20 -44q-9 -19 -21 -45q26 -3 52 -3q70 0 203 35l-75 -75q-123 -32 -191 -32h-22q-39 -93 -96 -235l-48 20q47 95 104 220q-40 5 -80 19 q-16 5 -36 8q-43 -100 -110 -267l-48 20q52 105 117 249q-120 0 -197 -39l80 80q53 26 149 29q17 39 36 81l1 1q-28 8 -69 8q-120 0 -197 -39l80 80q61 30 179 30q21 0 38 -2q33 84 85 224zM337 329q26 -9 52 -15q17 39 35 79h-8q-56 0 -113 15q-12 -27 -25 -55l-8 -15 q42 -1 67 -9z" />
<glyph unicode="$" horiz-adv-x="602" d="M289 1032q-9 -48 -17 -97q24 3 44 3h8q4 51 9 110l76 -16l-18 -100q7 -1 13 -1h14q29 0 44 3q9 2 15 4q-32 -48 -43.5 -102.5t-6.5 -96.5h-9q0 28 -12 51t-32 41q-23 -143 -48 -296q34 -21 66 -44t56.5 -50t39 -58.5t14.5 -70.5q0 -61 -22.5 -103.5t-57 -70t-75.5 -42.5 t-79 -21q-6 -53 -12 -112l-62 7q8 49 16 100h-4h-31t-27 1q-6 -51 -12 -108l-62 7q8 52 17 106q-11 1 -21 1.5t-19 0.5q-8 0 -16.5 -2t-16.5 -4q-9 -3 -18 -5q20 18 31 50q9 27 10.5 70.5t-16.5 109.5h16q0 -29 18.5 -57.5t48.5 -53.5q23 148 47 311q-28 19 -52 40t-42 46 t-28 54.5t-10 64.5q0 48 15 84t40 62.5t57.5 44t66.5 28.5q5 59 11 127zM296 117q23 0 47 4t44 16t33 34.5t13 60.5q0 28 -10 52t-27 45t-40 39.5t-49 35.5q-14 -111 -34 -286q5 -1 11 -1h12zM220 128q22 143 45 301q-17 11 -34.5 20.5t-34.5 20.5q-15 -109 -39 -316 q32 -17 63 -26zM263 880q-23 -134 -46 -276q16 -11 33 -21.5t34 -21.5q2 18 5 36q11 79 28 268q-26 10 -54 15zM97 780q0 -45 21.5 -79.5t55.5 -63.5q11 85 25 247q-15 -2 -32.5 -8t-33 -18.5t-26 -31.5t-10.5 -46z" />
<glyph unicode="%" horiz-adv-x="974" d="M354 676q0 -96 -31 -188q-33 -95 -91 -154q-52 -53 -83 -53q-17 0 -51 23q-52 33 -78 134q-20 79 -20 172q0 138 43 250q54 137 154 137q90 0 127 -111q30 -82 30 -210zM298 610q0 116 -33 201q-41 114 -124 114q-49 0 -70 -106q-20 -75 -20 -156q0 -100 38 -188 q45 -107 115 -107q94 0 94 242zM874 389q0 -96 -32 -188q-32 -95 -90 -154q-51 -53 -83 -53q-17 0 -51 23q-51 33 -78 134q-21 79 -21 172q0 138 44 250q54 137 154 137q90 0 128 -111q29 -82 29 -210zM818 323q0 116 -33 201q-41 114 -124 114q-49 0 -70 -106 q-20 -75 -20 -156q0 -100 38 -188q45 -107 115 -107q94 0 94 242zM604 912q-74 -197 -162 -446q-46 -130 -147 -467l-48 26q77 209 183 527q35 106 116 398z" />
<glyph unicode="&#x26;" horiz-adv-x="959" d="M1223 1112q0 -75 -49.5 -151t-130 -148t-183 -138.5t-208.5 -123.5q0 -13 1 -50.5t6.5 -86.5t18 -102.5t35.5 -98t58.5 -73.5t87.5 -29q-18 -15 -36 -34t-37 -36t-40 -29t-43 -12q-26 0 -50 9.5t-43.5 27.5t-31 45t-11.5 62v20q-8 -9 -33.5 -36t-66 -55.5t-92.5 -50.5 t-112 -22q-53 0 -100.5 17.5t-83.5 51t-57.5 81.5t-21.5 109q0 54 17 95t45 71.5t62 52t69 35.5q53 23 88 32.5t58 9.5q28 0 52 -7t42.5 -17t32 -21t21.5 -19q16 6 33.5 15t34.5 18v35q0 251 -4.5 388t-18.5 165q34 0 69 16.5t72 41t75.5 53t79.5 53t84.5 41t90.5 16.5 q63 0 105.5 -18.5t68 -49t36 -70.5t10.5 -83zM703 1100q-8 -22 -14.5 -63t-11.5 -92t-9 -106t-6.5 -106t-4 -93t-1.5 -65q69 38 137 80t130 87t115.5 91t92.5 93t61.5 94t22.5 92q0 43 -10.5 81t-35.5 66t-65.5 44.5t-100.5 16.5q-65 0 -117 -25t-90 -59.5t-61.5 -72.5 t-31.5 -63zM212 491q-16 0 -30.5 -8.5t-25.5 -22.5t-17.5 -31.5t-6.5 -35.5q0 -16 0.5 -31.5t3.5 -30.5q6 6 27.5 12.5t52.5 20.5l111 51q-12 21 -29 38q-14 14 -35.5 26t-50.5 12zM567 164q-2 37 -4 71t-3.5 72.5t-3 86t-1.5 110.5q-14 -10 -29 -16.5t-31 -12.5h5l-9 -4 q-87 -42 -159 -73.5t-120 -50.5l-72 -30q9 -46 26.5 -82.5t46.5 -62t72.5 -39.5t103.5 -14q28 0 57.5 6.5t54 14.5t42.5 15t24 9z" />
<glyph unicode="'" horiz-adv-x="197" d="M90 1010q7 -54 -18 -121q-28 -73 -72 -97q17 29 23 77.5t-3 82.5q19 5 70 58z" />
<glyph unicode="(" horiz-adv-x="323" d="M12 485q-12 340 148 625q-75 -286 -75 -481q0 -35 3 -62q16 -181 135 -456l-97 -111q-32 87 -56 167q-54 192 -58 318z" />
<glyph unicode=")" horiz-adv-x="323" d="M211 515q12 -340 -148 -625q75 286 75 481q0 35 -3 62q-16 181 -135 456l97 111q32 -87 56 -167q54 -192 58 -318z" />
<glyph unicode="*" horiz-adv-x="438" d="M338 781l-100 -15l4 -101l-74 69l-76 -67l8 101l-100 17l83 58l-48 88l97 -29l39 93l38 -94l97 27l-50 -88z" />
<glyph unicode="+" horiz-adv-x="654" d="M554 306l-61 -72q-100 -31 -155 -31h-15v-106q1 -9 3 -19q1 -11 8 -17l19 -6q0 -2 -3 -5h-113l13 97l2 68q-15 5 -29 11q-24 10 -63 10q-97 0 -160 -38l65 77q50 29 145 29q25 0 43 -3l-1 68q0 6 -1 15q-1 18 -2 37.5t-20 33.5h42q26 0 45 3q17 2 17 3h5 q-11 -77 -14 -180v-2q33 -7 65 -7q57 0 165 34z" />
<glyph unicode="," horiz-adv-x="245" d="M145 40q-28 -21 -53 -46q-21 -21 -41.5 -47.5t-29.5 -54.5q7 20 14 38q6 15 12.5 30.5t12.5 23.5q-20 27 -40 42q-11 8 -20 14q13 10 25 21q11 10 23 23t22 28q11 -17 24 -30.5t24 -22.5q13 -11 27 -19z" />
<glyph unicode="-" horiz-adv-x="540" d="M415 351l-43 -75q-70 -32 -109 -32q-40 0 -81 24q-17 10 -44 10q-69 0 -113 -39l46 80q35 30 102 30q29 0 45 -9q42 -24 81 -24q40 0 116 35z" />
<glyph unicode="." horiz-adv-x="245" d="M145 41q-13 -10 -26 -21q-11 -10 -24.5 -23t-24.5 -27q-11 18 -23 31t-23 22q-12 11 -24 18q13 10 25 21q11 10 23 23t22 28q11 -17 24 -30.5t24 -22.5q13 -11 27 -19z" />
<glyph unicode="/" horiz-adv-x="541" d="M441 912q-92 -197 -200 -446q-57 -130 -182 -467l-59 26q95 209 226 527q43 106 143 398z" />
<glyph unicode="0" horiz-adv-x="684" d="M584 521q0 -128 -52 -250q-53 -127 -149 -205q-84 -71 -136 -71q-28 0 -84 31q-86 44 -128 178q-35 105 -35 229q0 184 72 334q90 183 254 183q147 0 210 -148q48 -110 48 -281zM492 433q0 155 -54 269q-68 151 -204 151q-80 0 -117 -141q-31 -100 -31 -208 q0 -133 62 -251q74 -142 190 -142q154 0 154 322z" />
<glyph unicode="1" horiz-adv-x="368" d="M268 54q-27 -41 -56 -57q-13 -6 -76 -37q20 192 20 278v466q0 152 -42 152q-3 0 -52 -24.5t-62 -27.5q47 54 268 176v-926z" />
<glyph unicode="2" horiz-adv-x="658" d="M558 115q-9 -28 -50 -71q-41 -50 -59 -50l-449 3q172 203 234 296q146 214 146 374q0 88 -43 143t-107 55q-55 0 -85 -33q-44 -46 -63 -57q32 78 105 140.5t133 62.5q68 0 109 -60t41 -157q0 -141 -70 -276q-32 -60 -139 -203q-81 -105 -93 -174z" />
<glyph unicode="3" horiz-adv-x="546" d="M446 295q0 -194 -215 -286q-81 -37 -104 -37q-16 0 -66 29t-61 45q38 46 79 55q116 -49 158 -49q36 0 79 55t43 102q0 186 -134 252q-6 2 -119 48l139 95q23 17 36 65q14 41 14 77q0 158 -136 158q-45 0 -70 -20q-56 -39 -60 -42q34 61 109 106q71 37 131 37 q48 0 86.5 -55t38.5 -123q0 -65 -36 -114q-21 -29 -69 -70q-39 -32 -41 -51q13 -11 59 -28q63 -29 101 -92.5t38 -156.5z" />
<glyph unicode="4" horiz-adv-x="759" d="M659 312q-47 -57 -97 -74q-33 -13 -111 -13v-72l1 -73q0 -57 -14 -73q-27 -20 -51 -38h-28v256q-151 0 -333 17q-10 0 -26 -19v32q12 54 64 138q26 43 74 124q44 92 136 276q84 160 184 199v-656q0 -27 13 -32q7 -3 33 -3q53 0 155 11zM359 319v483l-256 -463h7v-19 q13 13 22 13q13 0 45 -5q27 -6 46 -6z" />
<glyph unicode="5" horiz-adv-x="627" d="M527 948q-17 -26 -47.5 -48.5t-54.5 -22.5h-157q-20 20 -35 20q-5 0 -13 -3q-11 -36 -27 -123q-17 -94 -17 -120q0 -17 80 -39q97 -27 159 -92q77 -81 77 -203q0 -146 -158 -278q-69 -66 -114 -66h-129q-34 0 -91 66q36 18 87 57q69 -55 93 -52l117 19q58 16 83 64 q20 44 20 135q0 121 -66 188q-45 51 -141 79q-50 16 -111 42q30 61 40 163q1 52 9 178q66 64 130 64q37 0 107.5 -10t105.5 -10q28 0 53 23v-31z" />
<glyph unicode="6" horiz-adv-x="633" d="M533 306q0 -113 -92 -214.5t-199 -101.5q-110 0 -180 108q-62 95 -62 216q0 33 25 158q27 151 129 291t235 197l-100 -91q-194 -171 -194 -480q0 -127 56 -218q66 -105 181 -105q55 0 83 64q21 49 21 112q0 99 -56 170q-59 78 -149 78q-11 0 -118 -65q127 125 219 125 q93 0 150 -75q51 -68 51 -169z" />
<glyph unicode="7" horiz-adv-x="706" d="M606 961q-105 -206 -259 -476q-205 -368 -268 -434q-22 -25 -79 -56l256 438q140 242 234 448q-35 7 -209 7q-186 0 -223 -23v34q84 67 102 67h310q24 0 68.5 -2.5t67.5 -2.5z" />
<glyph unicode="8" horiz-adv-x="602" d="M502 281q0 -99 -93.5 -192.5t-189.5 -93.5q-97 0 -158 66t-61 167q0 81 66 151q62 66 137 90q-71 -62 -81 -76q-32 -42 -32 -103q0 -94 61 -159t149 -65q96 0 96 149q0 118 -92 196q-25 25 -83 68t-86 68q-89 78 -89 193q0 83 84.5 156.5t162.5 73.5q70 0 127 -58.5 t57 -133.5q0 -61 -56 -122q-48 -52 -109 -79q73 119 73 156q0 64 -54.5 117t-116.5 53q-72 0 -72 -117q0 -34 18 -75q17 -35 106 -112q114 -93 157 -140q79 -93 79 -178z" />
<glyph unicode="9" horiz-adv-x="611" d="M511 683q0 -182 -153 -404q-134 -197 -299 -311v29q187 150 315 410v19q-42 -24 -90 -50q-60 -31 -94 -31q-79 0 -138 99q-52 85 -52 172q0 129 81 237q88 114 208 114q110 0 168 -89q54 -76 54 -195zM409 623q0 98 -47 179q-60 89 -148 89q-60 0 -96 -68 q-31 -56 -31 -125q0 -94 64 -178q68 -92 149 -92q74 0 97 63q12 38 12 132z" />
<glyph unicode=":" horiz-adv-x="278" d="M178 373q0 -6 -27 -24q-9 -7 -23 -17q-31 -21 -52 -21q-19 0 -33.5 45t-19.5 46q-3 0 -7 -1.5t-7 -2.5q-9 0 -9 9q0 8 35 27q14 8 44 22q7 3 19 5q21 0 31.5 -41t22.5 -42q4 0 8 2l8 2q9 0 10 -9zM178 81q0 -6 -5 -9q-31 -22 -46 -32q-33 -20 -48 -21q-22 -1 -36.5 44.5 t-19.5 46.5q-3 0 -7 -1.5t-7 -2.5q-9 0 -9 8t35 28q12 7 44 22q8 6 23 6q16 0 28 -42q9 -42 18 -42q8 0 12 2l8 2q9 0 10 -9z" />
<glyph unicode=";" horiz-adv-x="283" d="M183 371q0 -5 -27 -23q-9 -7 -23 -17q-29 -20 -49 -22q-24 0 -37 45.5t-16 45.5q-5 1 -9.5 -1t-7.5 -3q-9 0 -9 9t35 28q14 8 44 22q7 3 19 5q21 0 31.5 -41t22.5 -42q4 0 8 2l8 2q9 0 10 -10zM177 79l-127 -154q24 63 24 96q0 32 -11 59q-14 33 -26 33q-13 0 -19 -3 l-9 -2q-9 0 -9 7q0 9 45 35q42 24 63 25q54 2 69 -96z" />
<glyph unicode="&#x3c;" horiz-adv-x="396" d="M91 358q72 -41 117 -120l67 -153l-80 -50q-73 150 -77 156q-68 68 -118 120q30 20 82 92q72 103 88 126l126 67q-6 -6 -93 -129q-57 -81 -112 -109z" />
<glyph unicode="=" horiz-adv-x="540" d="M415 421l-43 -75q-70 -32 -109 -32q-40 0 -81 24q-17 10 -44 10q-69 0 -113 -39l46 80q35 30 102 30q29 0 45 -9q42 -24 81 -24q40 0 116 35zM415 291l-43 -75q-70 -32 -109 -32q-40 0 -81 24q-17 10 -44 10q-69 0 -113 -39l46 80q35 30 102 30q29 0 45 -9q42 -24 81 -24 q40 0 116 35z" />
<glyph unicode="&#x3e;" horiz-adv-x="404" d="M205 263q-72 41 -117 120l-67 153l88 50q65 -150 69 -156q44 -78 126 -120q-38 -20 -90 -92q-72 -103 -88 -126l-126 -67q6 6 93 129q57 81 112 109z" />
<glyph unicode="?" horiz-adv-x="516" d="M416 713q0 -83 -42.5 -185.5t-97.5 -149.5q-12 -10 -28 -23q-17 -17 -21 -30q-9 -29 -9 -59v-17q0 -33 -82 -70q-2 9 -16 16l-2 76q0 107 57 182q12 17 103 126q54 84 54 202q0 73 -12 106q-19 49 -70 49q-76 0 -128 -67t-52 -163q0 -61 23 -103q14 -24 63 -74 q-57 20 -105 91q-51 75 -51 146q0 105 49.5 170t132.5 65q80 0 157 -93.5t77 -194.5zM215 83q0 -33 -19 -64.5t-44 -31.5q-38 0 -38 64q0 39 14 68q17 34 46 34q6 0 24 -8q17 -29 17 -62z" />
<glyph unicode="@" horiz-adv-x="843" d="M529 609q5 -14 17 -44.5t26.5 -67.5t30.5 -75.5t30 -67.5l4 4q55 87 55 201q0 163 -99 279q-85 99 -223 99q-137 0 -237 -93q-81 -122 -81 -303q0 -102 28 -194q29 -95 82 -159q42 -49 118 -84q82 -37 163 -37q96 0 163 54l-64 -75q-55 -45 -138 -45q-82 0 -167 40 q-81 36 -125 88q-54 64 -83 160q-29 94 -29 196q0 211 106 335l48 60q49 56 118 87.5t144 31.5q142 0 228 -103q46 -55 72.5 -140t26.5 -175q0 -177 -92 -249l-4 -4q12 -26 20 -28q-26 -17 -53 -40.5t-47 -49.5q-2 11 -12 39t-23.5 62t-27.5 68.5t-23 57.5 q-16 -19 -40 -44.5t-52 -48.5t-57.5 -39t-56.5 -16q-20 0 -40 6.5t-37 19t-27.5 30.5t-10.5 41q0 28 24 60t60 63.5t78 61.5t78 56q-26 39 -49 56.5t-51 17.5q-11 0 -28.5 -7.5t-35 -16.5t-30.5 -17t-16 -10q2 2 15.5 12.5t33.5 26t45 32.5t49 32t46 24.5t36 9.5 q21 0 39 -21.5t32 -50.5t25 -59t18 -47zM365 386q21 0 39.5 7t32.5 20t22 31t8 39q-8 13 -15.5 28.5t-13.5 29.5q-7 18 -13.5 34.5t-14.5 27.5q-18 -8 -44.5 -22.5t-51 -34t-42 -42.5t-17.5 -48q0 -14 8.5 -26.5t23.5 -22t35 -15.5t43 -6z" />
<glyph unicode="A" horiz-adv-x="776" d="M221 506h196l-107 396zM188 1001q18 -2 40 -3q19 -2 45 -2.5t58 -0.5t62.5 0.5t54.5 2.5q28 1 53 3v-6l-66 -11q47 -266 92 -475q19 -90 40 -176t41 -154t39 -111t35 -46q10 -2 18 -3.5t14 -3.5q7 -2 12 -4v-11q-17 2 -36 5q-17 2 -39 4t-47 2q-31 0 -52.5 -2t-35.5 -4 q-16 -3 -26 -5v11l32 11l-87 406h-225q0 2 -4 -27t-8.5 -73t-8 -96.5t-2.5 -98.5t7 -77.5t22 -34.5q20 -4 29 -6t12 -3q4 -1 1 -1v-11q-18 2 -39 5q-18 2 -41.5 4t-50.5 2q-25 0 -48 -2t-40 -4q-21 -3 -39 -5v11l49 11q82 267 139 477q24 90 45.5 176t34 154t14.5 110.5 t-13 44.5q-29 2 -45 4t-24 4q-10 2 -12 3v6z" />
<glyph unicode="B" horiz-adv-x="693" d="M0 1000q25 -2 50 -3q21 -1 43.5 -1.5t39.5 -0.5q18 0 40 1t45 1.5t46.5 1.5t43.5 1q38 0 72.5 -15.5t61 -44t42 -68t15.5 -87.5q0 -29 -8.5 -53t-22.5 -44t-32 -36t-36 -28q-43 -29 -98 -46q81 -11 145 -46q27 -15 53.5 -37t47 -52.5t33 -70.5t12.5 -92 q0 -60 -23.5 -111.5t-62.5 -89t-88.5 -58.5t-101.5 -21q-43 0 -73.5 2t-53 4t-39 4t-31.5 2q-25 0 -41.5 -2t-26.5 -4q-12 -3 -19 -6v12l33 9q6 47 11 116q4 59 7.5 148t3.5 214q0 40 -1.5 91t-4 104t-6 104.5t-8.5 92t-11 65.5t-13 26q-12 2 -20.5 4.5t-13.5 4.5 q-6 2 -10 4v5zM181 597q0 -57 1 -119.5t3 -126t5 -125.5t7 -118q14 -45 46 -66t70 -21q37 0 63.5 24t42.5 62.5t23.5 88t7.5 100.5q0 95 -24.5 150t-61 83t-78.5 35.5t-77 7.5q49 4 79.5 20.5t46.5 45t21.5 69t5.5 93.5q0 36 -12 72.5t-33.5 63.5t-52 41t-67.5 5 q-8 -78 -12 -172.5t-4 -212.5z" />
<glyph unicode="C" horiz-adv-x="604" d="M0 468q0 129 29.5 228.5t79.5 167t115.5 102t137.5 34.5l93 -6q27 0 36 3q5 1 8 3h5q-8 -21 -15 -42.5t-13 -45.5t-10 -52t-6 -63h-11q0 19 -9 46t-29 52t-54 42.5t-83 17.5q-83 0 -121 -99t-38 -289q0 -51 6.5 -107.5t20 -112t34 -106t48.5 -89t63.5 -61.5t79.5 -23 q37 0 60.5 10.5t37.5 24.5q16 16 23 36l11 -11q-17 -36 -47 -63q-26 -24 -66.5 -43.5t-100.5 -19.5q-27 0 -59 8t-63.5 28.5t-61 54.5t-52 86t-36 123t-13.5 166z" />
<glyph unicode="D" horiz-adv-x="791" d="M308 17q46 0 81.5 22.5t62.5 61t46 89t31 106.5t17.5 113.5t5.5 110.5q0 80 -22 162.5t-60 149.5t-89.5 109.5t-111.5 42.5q-26 0 -45.5 -5.5t-32.5 -19.5q-5 -33 -7.5 -73t-4.5 -88.5t-2.5 -107.5t-0.5 -131q0 -51 1.5 -111t3.5 -121.5t5 -121t5 -110.5q25 -78 117 -78z M81 617q0 67 -3 132.5t-7.5 117t-10 84t-11.5 33.5l-46 10v10q17 -3 36 -5q17 -2 37.5 -3.5t43.5 -1.5q18 0 36.5 1.5t39 3.5t44 3.5t53.5 1.5q86 0 159 -34.5t126 -97.5t83 -151.5t30 -196.5q0 -104 -18 -183t-48 -137.5t-69.5 -97t-81 -62t-83 -33.5t-76.5 -10 q-49 0 -101 4.5t-97 4.5q-26 0 -47 -2t-37 -4q-18 -3 -33 -6v12l52 7q8 65 14 155q5 77 10 188t5 257z" />
<glyph unicode="E" horiz-adv-x="634" d="M107 574q0 82 -7 155.5t-15 129.5q-10 65 -21 120l-64 6v14q24 -3 59 -5q29 -2 74 -3.5t105 -1.5q63 0 124 2.5t134 7.5q-17 -32 -30 -82t-15 -98q-10 40 -33.5 70t-56.5 49t-72.5 28.5t-80.5 9.5q-6 -62 -7.5 -134t-1.5 -135q0 -73 3 -146q44 1 89 7q38 5 82.5 16 t83.5 31q-5 -33 -6.5 -64t-1.5 -55q0 -28 2 -54l-10 4q1 31 -21 49t-57 27.5t-78 11.5t-83 1q-2 -30 -2.5 -65.5t0 -72t1.5 -73.5t3 -71q4 -80 8 -162q82 -8 149 -4q28 1 56.5 5t52 11.5t40 19t21.5 29.5l3 -6q-12 -31 -22 -59q-9 -24 -17 -48.5t-12 -37.5q-92 0 -173 6 t-165 6q-31 0 -53.5 -2t-37.5 -4q-18 -3 -31 -6v12l58 8q7 108 13 210q2 43 4.5 90t4.5 92t3 86.5t1 74.5z" />
<glyph unicode="F" horiz-adv-x="596" d="M106 572q0 84 -6.5 158t-14.5 130q-9 65 -20 120l-65 9v10q24 -2 59 -4q58 -3 180 -3q61 0 123 3t134 8q-15 -35 -28 -83.5t-15 -98.5q-9 42 -33 72t-56.5 49.5t-72 28.5t-80.5 9q-8 -63 -10 -135.5t-1 -136.5q1 -75 4 -149q44 1 89 7q38 5 83 17t84 34q-5 -33 -6.5 -64 t-1.5 -56q0 -29 1 -54l-9 3q1 31 -21.5 49.5t-57.5 28t-78 11.5t-83 1q-2 -30 -2.5 -68.5t0.5 -80.5t2 -85.5t3 -84.5q4 -96 10 -199l68 -9v-7q-15 1 -35 3q-18 2 -44.5 3t-62.5 1q-29 0 -52 -1.5t-38 -3.5q-18 -3 -31 -5v13l59 6q7 108 12 211q2 44 4.5 90.5t4.5 91.5 t3 86.5t1 74.5z" />
<glyph unicode="G" horiz-adv-x="751" d="M0 467q0 120 27 218.5t76.5 168.5t119 108.5t154.5 38.5q57 0 99 -6.5t71 -14.5q33 -9 56 -20l26 41l6 -3q-38 -58 -55 -126.5t-19 -155.5h-10q3 73 -18 130q-9 24 -24.5 47.5t-39.5 42t-58 29.5t-80 11q-43 0 -75 -23t-54.5 -60.5t-37 -87t-23 -102t-11.5 -105.5t-3 -98 q0 -94 18 -180.5t51 -152.5t79 -105.5t102 -39.5q48 0 78.5 26.5t47.5 63.5t23 75t6 62q0 51 -11.5 90.5t-30.5 66.5t-44 40.5t-53 13.5q-27 0 -47.5 -8t-34.5 -18q-17 -11 -28 -26q12 21 36 39q20 14 53.5 26.5t84.5 12.5q60 0 97.5 -20t59 -51t29.5 -68.5t8 -71.5 q0 -77 -25.5 -129.5t-66.5 -84.5t-92 -46.5t-101 -14.5q-111 0 -182 40.5t-112 106.5t-56.5 150t-15.5 170z" />
<glyph unicode="H" horiz-adv-x="815" d="M90 546q0 79 -5.5 156.5t-12.5 139.5q-8 72 -17 138l-49 9v10q12 -3 29 -5q14 -2 34 -3.5t44 -1.5q33 0 60 1.5t47 3.5q23 2 42 5v-10l-61 -9q-4 -22 -7 -75q-2 -45 -4 -126.5t-2 -215.5h346q0 106 -3 184t-7 130q-4 61 -10 103l-55 9v10q16 -3 35 -5q17 -2 40 -3.5 t52 -1.5q26 0 49 1.5t41 3.5q21 2 39 5v-10l-65 -9q-6 -57 -10 -128q-4 -61 -7 -145t-3 -186q0 -140 4 -235.5t9 -155.5q6 -70 14 -114l48 -6v-10q-14 2 -32 5q-16 2 -37.5 3.5t-49.5 1.5q-31 0 -54 -1.5t-40 -3.5q-19 -3 -33 -5v10l46 6q8 60 14 134q5 63 10 150.5t5 193.5 h-346q0 -103 2 -190.5t4 -151.5q3 -75 7 -136l64 -6v-10q-17 2 -38 5q-18 2 -42.5 3.5t-52.5 1.5q-29 0 -52.5 -1.5t-40.5 -3.5q-20 -3 -36 -5l-3 6l62 10q8 61 14 141q5 69 9.5 166.5t4.5 222.5z" />
<glyph unicode="I" horiz-adv-x="368" d="M85 576q0 77 -5 149.5t-10 129.5q-7 67 -15 126l-55 9v10q16 -3 36 -5q17 -2 40.5 -3.5t52.5 -1.5q32 0 55.5 1.5t39.5 3.5q18 2 31 5v-10l-51 -9q-6 -54 -10 -117q-4 -54 -6.5 -125t-2.5 -150q0 -101 4.5 -202t9.5 -183q6 -96 15 -184l54 -10v-9q-16 2 -37 4 q-18 2 -43.5 3.5t-58.5 1.5t-56.5 -1.5t-38.5 -3.5q-18 -2 -28 -4v10l43 6q10 67 18 153q7 74 12.5 176.5t5.5 229.5z" />
<glyph unicode="J" horiz-adv-x="428" d="M85 -113q18 32 30 80.5t19.5 106t11.5 120t6 123t2 114.5v94q0 118 -5.5 203t-12.5 142q-8 66 -18 110l-63 9v10q18 -3 39 -5q18 -2 41.5 -3.5t51.5 -1.5q38 0 64.5 1.5t43.5 3.5q20 2 33 5v-10l-37 -13q-10 -50 -17 -120q-7 -60 -12 -146t-5 -199q0 -27 -0.5 -68 t-1.5 -88.5t-1.5 -98.5t-0.5 -97.5t1 -86t3 -63.5q-20 -6 -47 -19t-54 -48q-24 -26 -52 -57t-62.5 -57t-77 -43.5t-95.5 -17.5q-23 0 -44.5 7.5t-38.5 16.5q-20 11 -38 24l6 8q17 -13 35 -23q16 -8 34.5 -15t38.5 -7q31 0 64 7t63 21t55 34.5t41 46.5z" />
<glyph unicode="K" horiz-adv-x="785" d="M479 311q40 -69 79 -135t76.5 -117t74 -82.5t71.5 -31.5l-3 -7q-9 -2 -23.5 3t-30.5 14t-32.5 20t-29.5 19q-14 11 -35.5 20.5t-45.5 20t-47 23.5t-40 30q-15 15 -37.5 47t-49.5 72.5t-56 86t-56 89t-50.5 80t-39.5 59.5q-2 -2 -5 -4.5t-8 -6.5v-28q0 -111 3 -197.5 t7 -146.5q4 -70 10 -123l62 -6v-10q-16 2 -37 5q-18 2 -43 3.5t-57 1.5q-33 0 -58.5 -1.5t-42.5 -3.5q-20 -3 -35 -5v7l62 9q9 68 17 153q7 73 12.5 172.5t5.5 220.5q0 98 -4 176t-9 132q-5 63 -12 112l-62 9v10q17 -3 37 -5q17 -2 40.5 -3.5t51.5 -1.5q32 0 57 1.5t44 3.5 q21 2 39 5v-10l-59 -9q-6 -59 -11 -129q-5 -60 -9 -140.5t-5 -171.5q22 17 48.5 46.5t55 66t57.5 79t55 86t48 85t37 77.5l-40 10v9q11 -3 26 -5q13 -2 32.5 -3t45.5 -1q32 0 54.5 1t37.5 3q18 2 30 5v-9l-49 -10q-38 -28 -78 -70t-82 -91.5t-85 -101.5t-87 -100 q42 -65 88 -144t90 -163z" />
<glyph unicode="L" horiz-adv-x="621" d="M78 507q0 142 -3 233.5t-6 144.5q-4 62 -8 94l-61 10v10q15 -3 33 -5q16 -2 39 -3.5t53 -1.5q37 0 66 1.5t49 3.5q24 2 41 5v-10l-54 -10q-12 -61 -21 -132q-8 -61 -14.5 -142t-6.5 -172q0 -130 2 -217t4 -141q3 -63 7 -100q64 0 121 4q24 1 49.5 3t48.5 5t42.5 6t32.5 8 l19 73l10 -3l-16 -62q-7 -26 -14 -56t-12 -54q-37 6 -76.5 7.5t-79 1.5t-78 -1.5t-73.5 -1.5q-47 0 -78 -1t-51 -2q-23 -2 -37 -3v6l43 10q8 32 14 96q5 55 10 150.5t5 245.5z" />
<glyph unicode="M" horiz-adv-x="927" d="M827 2l-30 5q-15 2 -37 3.5t-50 1.5q-29 0 -51 -1.5t-36 -3.5q-17 -3 -29 -5v10l39 6q0 111 -2 239q-2 110 -6 253t-11 303q-11 -53 -29.5 -134.5t-47 -185t-67 -224t-88.5 -251.5q-18 38 -38 94t-41.5 122.5t-43 140t-42 146.5t-40.5 142.5t-37 127.5 q-3 -58 -3.5 -122.5t0.5 -129.5t3 -129t4 -122q5 -136 14 -270l62 -6v-13q-16 3 -34 6q-15 2 -35 4.5t-41 2.5q-27 0 -47.5 -1.5t-34.5 -3.5q-17 -3 -28 -5v10l48 6q11 39 24 140q6 43 12 104t13 143.5t14 188t15 239.5q-23 66 -38.5 106t-25.5 43q-22 4 -27 7q-4 1 -5 2v9 q14 -3 29 -5q13 -2 28 -3t29 -1t33 1t36 3q19 2 39 5q6 -42 17.5 -99.5t27 -122t33 -133t34.5 -133.5q40 -153 88 -319q29 108 61 228q27 103 60 231t65 261q-2 23 -3 44.5t-4 42.5q6 -3 17 -5q9 -2 23.5 -3t34.5 -1q24 0 44.5 1t34.5 3q17 2 31 5v-9l-48 -9 q-6 -49 -7 -116.5t1 -144.5t6.5 -159t9.5 -160q12 -183 32 -384l45 -9v-7z" />
<glyph unicode="N" horiz-adv-x="884" d="M717 982q-8 -42 -13 -105.5t-9 -139.5t-6 -158.5t-3 -162.5q-3 -187 -2 -399q-79 105 -153.5 213.5t-141.5 211t-125.5 194t-104.5 161.5q2 -61 7 -140t10.5 -161.5t12.5 -163.5t14.5 -147.5t15.5 -111.5t15 -56l65 -10l3 -7q-18 2 -39 5q-18 2 -42 3.5t-52 1.5 q-32 0 -56 -1.5t-41 -3.5q-19 -3 -33 -5v10l52 7q9 14 15.5 64t11 122t7 159.5t3 176t-1 171.5t-3.5 146q-38 54 -62.5 85.5t-34.5 31.5h-22l-4 9q35 1 70 4q30 2 64 5.5t61 10.5q16 -41 44.5 -94.5t63 -113t73.5 -122t77 -121.5q89 -139 192 -288q-1 163 -7 306 q-3 61 -7 123t-9.5 117.5t-13.5 100.5t-18 72l-77 10l-3 10q19 -3 40 -5q18 -2 41 -3.5t48 -1.5q28 0 53.5 1.5t45.5 3.5q23 2 43 5l3 -10z" />
<glyph unicode="O" horiz-adv-x="792" d="M362 26q57 0 94 36t58.5 100t30 150.5t8.5 188.5q0 39 -5.5 89.5t-16.5 103t-29 103t-43.5 90t-58.5 64t-75 24.5q-49 0 -84.5 -40t-59 -106.5t-34.5 -153.5t-11 -180q0 -36 4.5 -85t15 -101t27.5 -103t42 -91t59 -64.5t78 -24.5zM0 476q0 111 29 207t77 166.5t110 110.5 t128 40q79 0 143.5 -38t110 -103t70 -152t24.5 -186q0 -131 -27.5 -228.5t-75 -162.5t-110 -97.5t-132.5 -32.5q-74 0 -128.5 21.5t-93 58t-63 84.5t-38.5 100.5t-19 107t-5 104.5z" />
<glyph unicode="P" horiz-adv-x="621" d="M97 535q0 79 -5 157.5t-12 141.5t-16 103t-16 41q-10 2 -18 3.5t-15 3.5q-8 2 -15 3v9q12 -3 28 -5q14 -2 33.5 -3t45.5 -1q56 0 108.5 4.5t110.5 4.5q40 0 83 -12.5t79 -43t59.5 -80.5t23.5 -125q0 -60 -14 -105.5t-36.5 -79t-51 -56t-58.5 -37.5q-70 -34 -159 -38 q51 -6 91 25q17 13 33.5 35t29.5 56.5t21 83.5t8 116q0 54 -14 99t-36.5 76.5t-52 49t-60.5 17.5q-20 0 -32.5 -4.5t-20.5 -15.5q-11 -65 -13 -174.5t-2 -277.5q0 -134 5 -226t12 -150q8 -68 18 -110l74 -14v-6q-19 1 -41 3q-19 1 -45 2t-56 1q-37 0 -64 -1t-46 -2 q-22 -2 -38 -3v6q7 1 16 4q8 2 17.5 4.5t20.5 5.5q10 1 14 45t5.5 116t1 164t-0.5 190z" />
<glyph unicode="Q" horiz-adv-x="791" d="M1044 -103q-27 -12 -59 -22q-27 -8 -61.5 -14.5t-72.5 -6.5q-34 0 -81.5 7t-106 24.5t-126.5 45.5t-142 70q-12 0 -25 -2t-27 -2q-73 0 -127 21.5t-92.5 58t-62.5 84.5t-37.5 101t-18.5 107.5t-5 103.5q0 111 28.5 207.5t76 168t108.5 112t127 40.5q80 0 145 -38.5 t110.5 -104t70 -152.5t24.5 -184q0 -89 -12.5 -162t-35.5 -132t-55 -103.5t-71 -74.5q25 0 64 -15q13 -4 37 -14.5t54.5 -24.5t64.5 -29t66.5 -29t61.5 -24t49 -13q24 -5 47 -6.5t42 -0.5q22 1 42 3zM132 497q0 -37 4.5 -87t15 -102t27.5 -103t42.5 -91t59.5 -64.5t78 -24.5 q57 0 94.5 36.5t59 100t30 150.5t8.5 188q0 38 -5 88t-16.5 102.5t-29.5 103t-43.5 90t-59 63.5t-76.5 24q-48 0 -83.5 -39.5t-59 -105.5t-35 -151.5t-11.5 -177.5z" />
<glyph unicode="R" horiz-adv-x="754" d="M203 462q-1 -3 5 -6q5 -2 17.5 -4t38.5 -2q64 0 101.5 25t57.5 63t26 84.5t6 88.5q0 70 -17 121t-43.5 83.5t-57.5 48t-58 15.5q-24 0 -37 -4t-20 -9q-8 -5 -9 -12q-4 -59 -6 -123t-3 -127.5t-1 -125v-116.5zM106 531q0 44 -2 93.5t-5 99t-7 95.5t-9 81t-10 56.5t-9 22.5 q-10 2 -20.5 3.5t-20.5 3.5q-11 2 -23 4v9q18 -3 39 -5q18 -2 41.5 -3t49.5 -1q25 0 45.5 1.5t42.5 3t49.5 3t66.5 1.5q61 0 110 -23.5t83.5 -61t52.5 -83t18 -90.5q0 -42 -10 -76.5t-26 -62t-37 -49t-42 -37.5q-51 -38 -115 -57q53 0 92.5 -33t70.5 -82.5t57.5 -108 t53 -109.5t57 -86.5t71.5 -39.5q-65 0 -110.5 9.5t-77 27t-53 42t-38.5 54t-33 63t-38 69.5q-35 58 -55 93t-39.5 53t-46.5 23.5t-76 5.5q0 -63 5 -137t11 -137q7 -74 17 -147l68 -9v-10l-40 5q-18 2 -42.5 3.5t-51.5 1.5q-36 0 -63 -1.5t-45 -3.5l-35 -5v7q9 2 19 4 q8 2 18 4t21 4q16 2 18.5 126t2.5 386z" />
<glyph unicode="S" horiz-adv-x="617" d="M23 727q0 79 31.5 131.5t77.5 83.5t99 44t95 13q34 0 55.5 -4.5t48.5 -4.5q15 0 26.5 1t19.5 3q9 2 15 5q-32 -56 -44.5 -118t-7.5 -111h-9q0 39 -17.5 70t-47 52.5t-68 33.5t-81.5 12q-14 0 -34 -6t-38 -20t-31 -37t-13 -57q0 -45 18 -81.5t47 -68t66.5 -58.5t77 -54 t77 -55.5t66.5 -61.5t47 -72t18 -88q0 -57 -16 -100t-41.5 -74t-58 -51t-66.5 -32t-66 -16.5t-56 -4.5q-30 0 -53.5 1.5t-42.5 3.5t-34.5 3.5t-30.5 1.5q-8 0 -17 -2.5t-17 -4.5q-10 -3 -18 -6q21 21 32 57q10 31 11.5 81.5t-17.5 125.5h16q0 -36 23 -72.5t60.5 -66.5 t84.5 -48.5t94 -18.5q24 0 49 4.5t45.5 18t33.5 39.5t13 70t-18 79.5t-48 65t-67.5 55.5t-77.5 52t-77.5 54t-67.5 62t-48 76t-18 95z" />
<glyph unicode="T" horiz-adv-x="635" d="M266 580q0 74 -2.5 131t-5.5 96q-4 46 -8 80q-63 0 -103 -1.5t-66 -9.5t-42.5 -25.5t-32.5 -50.5l-6 2q17 28 30 63t21 66q10 36 17 73l11 -3l-3 -16q138 0 238.5 -5t167.5 -6.5t102.5 4t44.5 26.5l6 -3q-12 -19 -23 -46q-10 -23 -21 -58.5t-21 -84.5h-7q4 22 0.5 37.5 t-23 24.5t-59 12.5t-108.5 0.5q-2 -45 -4 -98q-2 -45 -2.5 -103t-0.5 -121q0 -110 5 -209t11 -174q7 -88 17 -164l65 -9l3 -10q-16 1 -36 3q-17 1 -41 2t-53 1q-38 0 -67 -1t-49 -2q-23 -2 -40 -3v6l69 13q4 63 8 147q3 72 5.5 176t2.5 239z" />
<glyph unicode="U" horiz-adv-x="834" d="M734 9q-26 6 -54 7t-54 -1t-48.5 -6t-37.5 -9q2 18 4 42q2 20 3 49t2 64q-12 -21 -33 -47.5t-53 -50.5t-74.5 -40.5t-97.5 -16.5q-89 0 -131.5 34.5t-58 103t-13.5 171.5t2 240q0 93 -4 171t-9 136q-5 68 -12 123l-62 9l-3 11q17 -3 38 -6q18 -2 43.5 -3.5t57.5 -1.5 q33 0 57 1.5t40 3.5q18 3 32 6v-11l-54 -9q-10 -79 -17 -161q-3 -35 -6 -73.5t-5 -78t-3.5 -78.5t-1.5 -75q0 -55 -0.5 -107.5t4 -99.5t16.5 -86.5t36 -68.5t63 -45t98 -16q40 0 66 10.5t43 28t27.5 39.5t18.5 45q5 88 8.5 193.5t3.5 207.5q0 106 -5 176t-11 112 q-7 49 -15 77l-75 9v11q17 -3 36 -6q17 -2 39.5 -3.5t48.5 -1.5q35 0 58.5 1.5t37.5 3.5q17 3 26 6v-11l-29 -9q-9 -60 -15 -139q-6 -68 -10.5 -165.5t-4.5 -222.5q0 -75 -0.5 -143.5t1.5 -124.5t8 -96t18 -57l61 -12v-10z" />
<glyph unicode="V" horiz-adv-x="725" d="M0 991v9q12 -3 29 -5q14 -2 36 -3t51 -1q34 0 59.5 1t42.5 3q20 2 35 5v-9l-47 -10q-2 -15 2.5 -50.5t14 -84.5t23 -109t29 -123.5t33 -128t34.5 -123.5t33 -109t30 -84q17 50 36 120.5t36.5 149t33.5 160.5t27.5 155t18 132.5t5.5 94.5l-52 10v9q15 -3 33 -5 q15 -2 34 -3t39 -1q29 0 49 1t34 3q16 2 26 5v-9l-32 -10q-70 -222 -133 -416q-27 -83 -55 -168t-54.5 -161t-49 -138t-38.5 -99q-16 33 -36 91t-42.5 131t-46.5 156t-48 165t-46.5 158t-42 136t-34.5 99t-25 46z" />
<glyph unicode="W" horiz-adv-x="1029" d="M900 989q34 0 58 1.5t40 3.5q18 2 31 5v-10l-39 -10q-11 -24 -24.5 -70t-29 -106.5t-32.5 -132.5t-35 -147.5t-36.5 -151.5t-37 -145t-37 -127.5t-36.5 -99.5q-27 61 -54 146t-52.5 180.5t-48.5 193t-42 183.5q-10 -43 -25 -105.5t-32.5 -133.5t-36 -144t-35.5 -136.5 t-32.5 -111.5t-25.5 -69q-10 16 -24.5 61.5t-32.5 110.5t-38.5 144.5t-42 162t-43 163t-41.5 148.5t-37.5 118.5t-30.5 72.5l-48 6v10q14 -3 32 -5q16 -2 38.5 -3.5t51.5 -1.5q33 0 60 1.5t47 3.5q23 2 42 5v-10l-64 -10q0 -14 5 -47.5t14 -80t21 -103t25.5 -116t28 -119.5 t28 -113t26 -96t22.5 -70q8 11 19.5 47t24.5 86t26 108.5t25 115t21.5 104.5t15.5 78q-19 83 -34 138.5t-27 67.5l-38 10v10q11 -3 27 -5q14 -2 34 -3.5t48 -1.5q29 0 51.5 1.5t38.5 3.5q18 2 33 5v-10l-46 -10q-1 -30 4.5 -76.5t14.5 -102t21.5 -118t26.5 -124.5 t28.5 -120.5t28 -107t25 -83.5t19.5 -51q9 38 20.5 104.5t23.5 145t22.5 162.5t17.5 158t8 131t-5 82l-64 10v10q18 -3 37 -5q17 -2 36.5 -3.5t39.5 -1.5z" />
<glyph unicode="X" horiz-adv-x="876" d="M776 0q-14 2 -34 5q-17 2 -42.5 4t-59.5 2q-30 0 -56 -2t-45 -4q-23 -3 -41 -5v11l58 8q-32 70 -66 144q-29 63 -66 140t-72 150q-39 -76 -72 -153t-57 -140q-28 -73 -52 -141l66 -12v-7l-120 7l-117 -7v7l58 12q42 70 89 147q40 66 89.5 149t99.5 171q-5 11 -9.5 21.5 t-10.5 20.5l-147 294l-79 158l-61 11v9q17 -3 36 -5q17 -2 38.5 -3t45.5 -1q38 0 65 1t46 3q21 2 37 5v-9l-48 -11q12 -38 33 -93q18 -47 47 -116t71 -163q37 70 66 136.5t49 119.5q24 62 41 116l-75 11v9q18 -3 38 -5q17 -2 38 -3t41 -1q28 0 49.5 1t36.5 3q18 2 30 5v-7 l-44 -13q-41 -64 -83 -133q-36 -60 -80.5 -132.5t-86.5 -145.5q53 -109 107.5 -208.5t99.5 -175.5q53 -89 103 -166l46 -8v-11z" />
<glyph unicode="Y" horiz-adv-x="777" d="M328 488q-15 25 -34.5 60t-41.5 74.5t-45.5 81t-45.5 81.5q-52 93 -109 196l-52 10v9q15 -3 33 -5q16 -2 38 -3t49 -1q32 0 58 1t46 3q23 2 42 5v-9l-62 -10q38 -83 77 -162q16 -34 34.5 -70.5t37.5 -72.5t38 -70.5t37 -62.5q15 31 29 67t26.5 72.5t24 73t21.5 69.5 q23 77 42 156l-68 10v9q19 -3 37 -5q16 -2 34 -3t33 -1q32 0 54 1t37 3q17 2 29 5v-9l-39 -10q-33 -63 -71 -137q-32 -63 -74 -147.5t-89 -179.5q-8 -131 -6 -225.5t7 -156.5q5 -72 15 -121l65 -10v-6q-20 1 -43 3q-20 1 -46.5 2t-56.5 1q-27 0 -51.5 -1t-43.5 -2 q-22 -2 -41 -3v9l72 7q7 80 11 162q3 70 2.5 153t-10.5 159z" />
<glyph unicode="Z" horiz-adv-x="600" d="M268 542q28 66 51.5 128.5t40.5 111.5q20 57 36 108q-24 -2 -60.5 -2h-77.5t-82 -1t-75.5 -5t-57.5 -13t-27 -24l-3 -48h-13q4 41 8 80q2 32 3.5 66.5t-2.5 56.5q2 -5 35.5 -8.5t82.5 -5t108 -2t112.5 1t95 5t57.5 9.5q-14 -27 -36.5 -79.5t-50.5 -120t-59 -144.5 t-62 -153q-72 -179 -154 -389q76 -3 143 -3q28 0 57 1t54.5 3t46 5.5t32.5 9.5l6 45h9l-18 -174q-15 5 -45.5 7.5t-70 3t-85 0t-92 -1.5t-90 -3t-79.5 -3q46 55 108 189t154 349z" />
<glyph unicode="[" horiz-adv-x="416" d="M316 -13l-70 -57q-22 0 -64.5 5.5t-63.5 5.5q-24 0 -44 -6l-6 -13l-68 -53q13 99 13 243q0 93 -6.5 282t-6.5 282q0 60 1 178l1 179l65 52q43 -23 96 -23q34 0 53 11q10 7 48 39q-4 -7 -4 -12q0 -7 2.5 -5.5t2.5 -5.5q0 -2 -1 -2q-56 -50 -78 -62q-33 -20 -74 -20 q-18 0 -44 3v-46v-96v-143q0 -93 6.5 -283t6.5 -284q0 -119 -11 -207q38 30 54 38q22 11 57 11q23 0 68 -5.5t67 -5.5z" />
<glyph unicode="\" horiz-adv-x="564" d="M76 1000q105 -307 150 -419q138 -335 238 -555l-62 -27q-132 355 -192 492q-113 262 -210 469z" />
<glyph unicode="]" horiz-adv-x="416" d="M0 994l70 57q22 0 64.5 -5.5t63.5 -5.5q24 0 44 6l6 13l68 53q-13 -99 -13 -243q0 -93 6.5 -282t6.5 -282q0 -60 -1 -178l-1 -179l-65 -52q-43 23 -96 23q-34 0 -53 -11q-10 -7 -48 -39q4 7 4 12q0 7 -2.5 5.5t-2.5 5.5q0 2 1 2q56 50 78 62q33 20 74 20q18 0 44 -3v46 v96v143q0 93 -6.5 283t-6.5 284q0 119 11 207q-38 -30 -54 -38q-22 -11 -57 -11q-23 0 -68 5.5t-67 5.5z" />
<glyph unicode="^" horiz-adv-x="481" d="M159 705q-19 -34 -73 -70q-82 -54 -86 -58l45 79q15 10 84 55q48 32 68 71q28 -51 80 -79q4 -2 104 -43l-40 -70l-102 42q-53 28 -80 73z" />
<glyph unicode="_" horiz-adv-x="1075" d="M975 -10l-107 -75q-175 -32 -273 -32q-100 0 -202 24q-43 10 -110 10q-173 0 -283 -39l115 80q88 30 255 30q73 0 113 -9q105 -24 202 -24q100 0 290 35z" />
<glyph unicode="`" horiz-adv-x="300" d="M200 868q-49 -5 -115 40q-60 40 -85 88q72 -14 92 -7q12 -33 44.5 -69t63.5 -52z" />
<glyph unicode="a" horiz-adv-x="655" d="M441 320q8 -19 23 -56t31.5 -75t32.5 -67t27 -31q-30 -17 -62.5 -41t-56.5 -50q-5 22 -18 61.5t-35 86.5q-19 -19 -48 -44.5t-62 -48.5t-68.5 -39t-67.5 -16q-23 0 -47.5 6.5t-44.5 19t-32.5 30.5t-12.5 41q0 28 29 60t72 63.5t93 61.5t92 56q-31 39 -58.5 56.5 t-60.5 17.5q-14 0 -36.5 -8t-43.5 -18q-26 -11 -52 -25q56 38 108 69q22 13 45 25t44.5 22t40 16t31.5 6q25 0 46.5 -21.5t39 -51t30 -59.5t21.5 -47zM245 97q24 0 46 7t38.5 20t26.5 31t10 39q-8 13 -17 28.5t-17 29.5q-8 18 -16.5 34.5t-17.5 27.5q-22 -8 -53.5 -22.5 t-60.5 -34t-49.5 -42.5t-20.5 -48q0 -14 10.5 -26.5t28 -22t41.5 -15.5t51 -6z" />
<glyph unicode="b" horiz-adv-x="623" d="M139 387q36 33 73 59q32 22 68 40.5t68 18.5t63.5 -13.5t56.5 -39t40.5 -63t15.5 -84.5q0 -34 -15.5 -70t-42.5 -70t-62 -64.5t-74 -53t-79.5 -35.5t-77.5 -13q-56 0 -99 14.5t-63 32.5q4 8 6.5 45.5t4 95t2 129.5t0.5 150.5v158.5t-0.5 151.5t-1 131t-0.5 96.5 q0 75 -2 146t-5 135.5t-6.5 120t-7.5 98.5q30 0 62.5 15t67 37.5t70 48.5t72.5 48.5t74.5 37.5t75.5 15q57 0 97.5 -17.5t66 -45.5t37.5 -63.5t12 -72.5q0 -94 -31 -174t-81 -147t-114.5 -121.5t-131.5 -97.5q-158 -100 -358 -165q197 64 353 163q66 42 129.5 96.5t113 122 t80 148t30.5 175.5q0 37 -11 71t-35 60t-63 42t-94 16q-56 0 -102.5 -23.5t-81 -56t-57 -67t-29.5 -55.5q-12 -33 -18 -85.5t-9 -117.5t-3.5 -138.5t-0.5 -148.5q0 -38 0.5 -93t1 -120t1.5 -136t2.5 -140.5t2.5 -133.5t2 -115.5t2 -86t2 -45.5q76 -36 127.5 -42t83 9.5 t45.5 48.5t14 75q0 49 -15.5 85t-39.5 59t-54 34t-59 11q-21 0 -38.5 -4.5t-31.5 -9.5q-16 -6 -29 -13z" />
<glyph unicode="c" horiz-adv-x="587" d="M272 500q12 -14 33 -28t44 -25.5t45.5 -19t39.5 -7.5q-15 -10 -33.5 -20.5t-35 -20t-29 -16.5t-17.5 -11q-14 -2 -36 3t-45.5 14t-44.5 19t-32 18q-9 -6 -18.5 -17t-17.5 -26t-13 -33t-5 -38q0 -45 22.5 -79t55 -56.5t69 -34t65.5 -11.5q39 0 70 7.5t53 17.5q26 11 45 25 q-21 -19 -48.5 -46.5t-60 -53t-71 -43.5t-82.5 -18q-50 0 -91.5 18.5t-71 49t-46 69.5t-16.5 81q0 38 16.5 70t42 59t57 49.5t62 41.5t55.5 34t39 28z" />
<glyph unicode="d" horiz-adv-x="611" d="M256 999q83 0 146 -28t104 -68.5t59.5 -86t12.5 -79.5q0 43 -26 87t-70.5 80t-102 58.5t-120.5 22.5q-45 0 -98 -14.5t-98 -38t-75 -53.5t-30 -61q0 -27 17 -57t44 -60t61 -58.5t67.5 -52.5t64 -43t50.5 -29q29 -15 71 -32t81 -43t66.5 -66t27.5 -100q0 -33 -10 -60 t-26.5 -50.5t-38 -44t-44.5 -38.5q-48 -39 -91.5 -62t-89.5 -23q-39 0 -71 16t-55 41t-35.5 56t-12.5 61q0 43 10 72t26 49t36.5 34t41.5 27q20 15 41 27t44 20q-36 17 -69.5 35t-58.5 38q-28 19 -71 49t-84 66.5t-70.5 77.5t-29.5 82q0 30 21.5 60.5t56 58t79 51.5 t89.5 41.5t87 27.5t73 10zM397 217q0 30 -12.5 55.5t-33 47t-48 39.5t-57.5 33q-18 -3 -37 -13.5t-35 -27t-26 -39t-10 -48.5q0 -32 12 -62t34.5 -53t55.5 -37.5t76 -14.5q34 0 51 8.5t23.5 24t6.5 37.5v50z" />
<glyph unicode="e" horiz-adv-x="591" d="M351 108q29 0 54.5 7.5t44.5 17.5q22 11 41 25q-27 -45 -65 -80q-32 -30 -80.5 -54.5t-112.5 -24.5q-46 0 -88 16t-74.5 46t-51.5 73.5t-19 97.5q0 49 15.5 86.5t40.5 65.5t56 46.5t61 30.5q96 39 131 39q37 0 64.5 -12.5t47.5 -27.5q22 -18 39 -40l-330 -133 q7 -42 20 -75t38 -56t65 -35.5t103 -12.5zM189 442q-14 0 -27 -7.5t-23.5 -19.5t-16 -27t-4.5 -30q0 -16 0.5 -31t3.5 -30l168 77q-10 19 -25 34q-13 13 -32 23.5t-44 10.5z" />
<glyph unicode="f" horiz-adv-x="388" d="M-1240 -1656q8 40 22 81q12 35 33 78.5t53 86.5q28 27 80 53.5t118.5 47.5t145 34t159.5 13q150 0 268.5 -28.5t206 -67t143.5 -78t80 -60.5q6 19 9 78t4 143.5t0 189t-2.5 214.5t-4 219t-5 203.5t-4.5 168t-3 111.5q-20 0 -42 5t-41 12q-22 8 -43 18q22 -2 45 1 q20 2 41.5 7.5t39.5 18.5q-6 165 -10.5 296t-8.5 236.5t-7.5 188.5t-6 151t-4.5 124.5t-4 109.5q15 0 30.5 5.5t34.5 17.5t43.5 31t57.5 46q69 49 143 75t161 26q35 0 56 -7.5t34 -16.5q-17 -29 -29.5 -57.5t-20.5 -56.5q0 -106 -26 -197.5t-69 -168t-97 -139.5t-111 -112 q-134 -116 -303 -192q166 79 297 195q55 49 108.5 112t95.5 139.5t67.5 167t25.5 195.5q-14 12 -34 23q-18 8 -45.5 15.5t-68.5 7.5q-56 0 -94 -10.5t-61.5 -27t-35.5 -37t-17 -40.5q-6 -25 -10.5 -89.5t-7 -154t-3.5 -197.5t-2 -220t-1.5 -222t-1.5 -204q33 -14 72 -18.5 t72 -4.5q39 0 78 4q-37 -15 -75 -26q-33 -10 -72 -19t-75 -11q-1 -62 -2.5 -154.5t-3.5 -201.5t-5 -228.5t-7 -237t-10 -227t-14.5 -197.5t-19.5 -148.5t-25 -80.5q-31 34 -80.5 67t-110 63t-129.5 55t-139.5 43.5t-139 29t-128.5 10.5q-99 0 -176 -12t-135.5 -31.5 t-100 -45t-69.5 -51.5q-66 -62 -83 -140z" />
<glyph unicode="g" horiz-adv-x="606" d="M415 404q-10 -111 -1 -201t30 -164t52 -134t64.5 -112.5t66.5 -99.5t59.5 -94t43 -96.5t16.5 -107.5q0 -61 -22 -115t-57 -101t-77.5 -88t-83.5 -74.5t-75.5 -60.5t-53.5 -46q-25 26 -65 62t-91 75t-111.5 77t-127.5 69t-138.5 51t-144.5 23q-54 -63 -116.5 -126.5 t-125 -115t-121.5 -85.5t-106 -37q-21 -2 -34 6.5t-13 31.5q0 27 26 67t69.5 83.5t100.5 86.5t119 77t125.5 55.5t119.5 21.5q30 37 57 71t49 60q75 89 130.5 176t96 165t68 143t45.5 110q-4 -2 -9 -2.5t-12 -0.5q-30 0 -60 15.5t-54 41.5t-39.5 61.5t-15.5 75.5q0 36 11 64 t30 50.5t42.5 41t49.5 36.5q39 27 72.5 44t56.5 17q27 0 57.5 -10t64.5 -19t71.5 -11t78.5 15q-14 -14 -29 -22.5t-30 -15t-30 -14t-29 -20.5zM96 341q0 -56 22.5 -95.5t55 -63t69 -30t65.5 4.5q-2 21 -2.5 39.5t-0.5 39.5v48t1.5 39t5.5 34.5t12 34.5q-12 7 -32 14.5 t-44.5 12.5t-52.5 6t-55 -5q-24 -12 -34 -31t-10 -48zM-680 -990q37 -5 81.5 14.5t92 55.5t96 85t93.5 102q-81 0 -154 -25.5t-128.5 -61t-88 -73t-32.5 -60.5q0 -21 13 -29t27 -8zM468 -993q27 21 59 49t60 65t46.5 82t18.5 101q0 61 -23 114t-58.5 107.5t-77.5 114 t-80 133.5t-67 166t-38 212q-15 -13 -27 -26.5t-23 -25.5t-22 -21.5t-24 -13.5q-10 -27 -31.5 -73.5t-50.5 -103t-63.5 -118.5t-71 -121t-72.5 -110.5t-68 -86.5q-11 -14 -38 -46.5t-65 -72.5q72 -2 144.5 -21t142 -48t133.5 -64.5t119.5 -71t100.5 -67.5t76 -53z" />
<glyph unicode="h" horiz-adv-x="557" d="M615 1503q0 -94 -30 -173.5t-79.5 -146t-112.5 -120.5t-129 -96q-154 -99 -350 -162q193 63 345 162q64 42 126 96t111 120.5t78.5 146t29.5 173.5q0 37 -8.5 71t-30.5 60t-58.5 41.5t-93.5 15.5q-53 0 -98.5 -23.5t-80.5 -55.5t-58.5 -66t-30.5 -55q-12 -33 -18 -85.5 t-9 -117t-3.5 -137.5t-0.5 -147v-87.5t-0.5 -104.5t-0.5 -113v-113v-268q37 51 76 91q16 17 34.5 33.5t38 29.5t38.5 21t37 8t40 -10t41.5 -31t33 -53.5t13.5 -77.5q0 -65 -19 -124.5t-45.5 -110.5t-55 -91t-48.5 -66q-21 -27 -42.5 -50.5t-42 -43t-38 -35t-29.5 -25.5 q62 55 110 123q21 29 40.5 63t35 73t25 82t9.5 90q0 44 -12.5 79t-31.5 59t-41.5 36.5t-41.5 12.5q-39 0 -65 -26.5t-41 -72.5t-21.5 -108t-6.5 -134q-22 -13 -47.5 -29.5t-42.5 -31.5q2 21 3.5 67t2 109t0 138.5t-1 155l-1 159t-1.5 150.5t-1.5 129.5t-0.5 96.5 q0 74 -0.5 138.5t-2.5 124.5t-6 117t-12 116q30 0 62.5 15t66.5 37.5t70 48.5t72.5 48.5t73.5 37.5t75 15q57 0 95.5 -17t62 -44.5t34 -63.5t10.5 -74z" />
<glyph unicode="i" horiz-adv-x="361" d="M161 626q-13 -10 -26 -21q-11 -10 -24.5 -23t-24.5 -27q-11 18 -23 31t-23 22q-12 11 -24 18q13 10 25 21q11 10 23 23t22 28q11 -17 24 -30.5t24 -22.5q13 -11 27 -19zM0 420q24 10 45.5 17.5t41 16t38 19t36.5 26.5q8 -27 7 -65.5t-4.5 -81t-4.5 -85.5t7.5 -78 t30 -58.5t64.5 -27.5q-43 -28 -73.5 -53t-60.5 -51q-9 4 -20 9t-21 14.5t-17.5 24t-8.5 37.5q1 68 3 129.5t-2 108t-17.5 73t-43.5 25.5z" />
<glyph unicode="j" horiz-adv-x="337" d="M186 626l-26 -22q-11 -10 -23.5 -22t-23.5 -26q-11 17 -23.5 30.5t-23.5 22.5q-12 11 -25 17q13 10 26 21q11 10 23 22.5t23 26.5q11 -17 23.5 -30t23.5 -22q13 -11 26 -18zM4 410q28 6 58 18q26 10 57.5 27.5t63.5 44.5q-5 -22 -7 -68.5t-2.5 -109.5t0 -138t1 -154.5 t1.5 -158.5t0.5 -149.5t-2 -129t-5.5 -95.5q-5 -48 -20.5 -111.5t-40.5 -130t-59.5 -130.5t-78.5 -114.5t-96.5 -81.5t-113.5 -31q-38 0 -82 21t-77 68.5t-47.5 125t6.5 191.5q13 72 41.5 136t66 119.5t81 102t87.5 84.5q101 88 222 151q-118 -65 -217 -153 q-42 -38 -85 -84.5t-79.5 -101.5t-65 -118.5t-41.5 -134.5q-15 -77 -13 -136t15 -103t34.5 -74t47.5 -49t53.5 -27t52.5 -8q62 0 109.5 29.5t82 76.5t58.5 106t39.5 119t23 114.5t10.5 92.5q2 36 3 95t0.5 132t-2 153.5t-4 159.5t-5.5 151.5t-6.5 128.5t-7 90t-6.5 37 q-5 5 -14 8.5t-17 5.5q-10 2 -20 3z" />
<glyph unicode="k" horiz-adv-x="534" d="M280 269q27 -34 63 -72.5t72 -71t67 -53t48 -19.5q-17 -4 -35 -10.5t-36 -14t-34.5 -16t-29.5 -15.5q-21 13 -52.5 43t-66 66.5t-67.5 73.5t-56 64q-8 -3 -17.5 -1.5t-17.5 1.5q4 -42 4.5 -90t2.5 -85q-11 -6 -27.5 -14t-34 -17t-33.5 -19.5t-26 -20.5q1 14 1.5 56 t2 103.5t2.5 137t2 157l2 163t2 155t1.5 133.5t0.5 98q0 75 -0.5 151.5t-2.5 145t-5 122.5t-8 84q29 0 61.5 14.5t67 36.5t71 48t74 48t75.5 36.5t76 14.5q54 0 91.5 -17.5t61 -46t34.5 -64.5t11 -74q0 -94 -30.5 -174t-80 -146.5t-113 -121t-129.5 -96.5 q-155 -99 -352 -163q194 64 347 163q65 42 127.5 96.5t111 121t78.5 146.5t30 174q0 38 -9.5 72.5t-31.5 61t-58 42.5t-88 16q-54 0 -101.5 -24t-84 -56.5t-60.5 -66.5t-31 -54q-13 -35 -20 -88t-10.5 -117.5t-4 -137t-0.5 -147.5q0 -152 -1 -318t1 -349q21 22 51 47 t64.5 48.5t71.5 42t71 26.5q24 -5 42 -30.5t18 -66.5q0 -18 -12.5 -36t-33.5 -35.5t-48.5 -33t-58.5 -27.5zM118 259q55 -3 94 4.5t62.5 22t32 33.5t3.5 38q-2 9 -6.5 20t-10 20.5t-12.5 16t-15 8.5q-17 4 -37.5 -8.5t-41 -33t-39 -46.5t-30.5 -49v-26z" />
<glyph unicode="l" horiz-adv-x="316" d="M140 1488q-12 -33 -18.5 -85.5t-9.5 -117t-3.5 -138t-0.5 -148.5q0 -50 -1.5 -127.5t-3 -165t-2.5 -177t-0.5 -165t3 -129t8.5 -67.5q12 -27 32 -50.5t58 -26.5q-38 -28 -67 -51t-53 -47q-19 10 -34 25.5t-25.5 32.5t-17 33.5t-7.5 29.5q-1 25 -1 86.5t0.5 143t2 175.5 t2.5 184t1.5 168t0.5 128q0 112 0.5 193.5t-1 140.5t-5 98.5t-10.5 67.5q30 0 62 15t65.5 37t69 48t72.5 48t75 37t77 15q55 0 93.5 -17.5t62.5 -46t35 -65t11 -75.5q0 -94 -30 -173.5t-79.5 -145.5t-112.5 -119.5t-129 -95.5q-154 -98 -350 -159q193 62 345 160 q64 42 126 95.5t111 119.5t78.5 145.5t29.5 172.5q0 37 -9 72t-31 62t-59 43t-92 16q-57 0 -104.5 -23t-82 -55.5t-56 -66.5t-26.5 -55z" />
<glyph unicode="m" horiz-adv-x="952" d="M663 500q45 0 82 -18t64 -47.5t41.5 -67.5t14.5 -78q0 -68 -22.5 -135t-66.5 -120t-108 -86.5t-148 -33.5q-39 0 -62 3.5t-43 8t-44 8t-65 3.5q-17 0 -41.5 -10t-47.5 -28.5t-39.5 -46.5t-16.5 -64q0 -17 8 -30.5t21.5 -23.5t30.5 -17t35 -12q42 -11 96 -14 q-57 1 -101 12q-19 4 -37 11t-32 17.5t-22.5 24.5t-8.5 32q0 36 21 71t56 62.5t81 44.5t96 17q36 0 58.5 -2.5t43.5 -5.5t46.5 -5.5t68.5 -2.5q58 0 89 22t45 55t15.5 71t1.5 69q0 45 -18 88t-48.5 76t-70 53t-82.5 20q-23 0 -36.5 -4t-21.5 -8q18 -26 26.5 -58.5t8.5 -61.5 q0 -72 -23.5 -125.5t-51.5 -89.5q-33 -42 -75 -73q14 25 25 55q10 26 18 58.5t8 69.5q0 45 -17 88t-46 76t-67 53t-81 20q-22 0 -43 -5.5t-33 -19.5q0 -19 -1.5 -54t-1.5 -81.5t3 -101.5t12 -114q-35 0 -70.5 -13.5t-62.5 -30.5q3 18 6 55t5 81.5t2 92t-3.5 88t-11.5 69 t-21 34.5q-9 2 -17.5 2t-16.5 -1q-9 -1 -17 -3q34 22 65 40q26 15 53.5 28t42.5 13q13 0 20 -1t10 -8.5t3.5 -23.5t0.5 -46q39 38 89.5 58.5t95.5 20.5q48 0 89 -19.5t66 -53.5q43 34 89 53.5t89 19.5z" />
<glyph unicode="n" horiz-adv-x="629" d="M326 501q45 0 82 -18t63.5 -47.5t41 -68t14.5 -79.5q0 -71 -24 -138.5t-68.5 -119.5t-107 -83.5t-139.5 -31.5q-39 0 -61.5 3.5t-43 7.5t-45 7.5t-67.5 3.5q-18 0 -42 -8.5t-45.5 -26.5t-37 -45t-15.5 -63q0 -19 8 -33t21.5 -25t30.5 -18.5t35 -12.5q41 -12 95 -15 q-57 2 -101 13q-19 5 -37 12.5t-32 18.5t-22.5 25.5t-8.5 34.5q0 34 21 69t56 63t80.5 46t94.5 18q37 0 59 -4t42 -8.5t45 -8t68 -3.5q45 0 74 14t45.5 41.5t23 68t6.5 94.5q0 48 -18 91t-48.5 75.5t-70 51.5t-82.5 19q-26 0 -43 -5t-32 -19q0 -11 -2 -42t-2.5 -77t2.5 -105 t14 -126q-34 0 -69.5 -15t-62.5 -32q3 18 6 55t5 81.5t1.5 92.5t-3.5 88.5t-10.5 69t-20.5 34.5q-17 3 -30 1q-6 -1 -11 -3q32 23 60 41q24 15 49 28t41 13q11 0 17.5 -2.5t10 -11t4.5 -23t1 -38.5q48 35 95 55t90 20z" />
<glyph unicode="o" d="M87 310q0 -30 11.5 -66.5t38.5 -68t70.5 -53t106.5 -21.5q33 0 52 9t28 22.5t11.5 28.5t2.5 28q0 43 -16.5 85t-45.5 75t-68.5 53t-85.5 20q-30 0 -50 -11.5t-32.5 -29t-17.5 -37t-5 -34.5zM307 500q30 0 64.5 -13t64 -39t48.5 -66.5t19 -94.5q0 -31 -14.5 -64t-38 -65 t-54 -60.5t-63 -50t-65 -34.5t-59.5 -13q-41 0 -78.5 17t-66.5 46t-46.5 66.5t-17.5 79.5q0 57 31 109.5t77 93t99.5 64.5t99.5 24z" />
<glyph unicode="p" horiz-adv-x="576" d="M480 298q0 -53 -29 -101.5t-77.5 -88t-112.5 -68.5t-133 -42v-25t-0.5 -62.5t-0.5 -88.5t-0.5 -104.5t-0.5 -110v-104.5q0 -151 -7 -252t-9 -149q-42 -44 -73 -94.5t-66 -100.5q-38 51 -92 100t-118 87.5t-134.5 61.5t-141.5 23q-114 0 -199 -13.5t-141.5 -37 t-84.5 -55.5t-28 -68q0 -21 7.5 -40t17.5 -33q11 -17 26 -31q-17 13 -30 30q-11 14 -20.5 32.5t-9.5 41.5q0 39 24 65.5t53.5 47.5t53.5 40.5t24 43.5q69 34 142 47t165 13q112 0 201 -29t155.5 -70t110 -85t63.5 -73q7 24 10.5 76.5t4 121t0 146t-0.5 151.5v701q0 60 -5 97 t-12.5 58.5t-16 32t-16.5 17.5q-9 8 -22 11t-24 4q-14 1 -28 -1q29 10 56 22q23 11 49 25.5t46 31.5q23 -3 34.5 -13t19.5 -30q5 -11 9 -31t7 -49q15 14 33.5 30.5l37 33t36 31t32.5 24.5q35 2 73 -10.5t69.5 -38.5t52 -63.5t20.5 -84.5zM128 19q41 6 83.5 24t77 47t56 69.5 t21.5 91.5q0 38 -20 66t-47.5 46.5t-56.5 27.5t-48 9q-23 0 -39 -13.5t-29 -32.5q6 -60 4 -148.5t-2 -186.5z" />
<glyph unicode="q" horiz-adv-x="592" d="M479 -497q0 -149 -7 -251.5t-10 -150.5q-21 -21 -39 -45t-34.5 -49t-33.5 -49.5t-37 -47.5q-36 50 -90 98.5t-117.5 86t-134.5 60.5t-141 23q-114 0 -199 -13.5t-141.5 -37t-84 -55.5t-27.5 -68q0 -22 7.5 -40.5t17.5 -32.5q11 -17 25 -31q-17 12 -30 29q-11 14 -20.5 33 t-9.5 42q0 39 24 65.5t53 47.5t53 40.5t24 44.5q70 32 144 46t164 14q112 0 202 -29.5t156.5 -70.5t110.5 -85t64 -73q6 19 8.5 71t3 122t-0.5 149.5t-1 153.5v107.5t0.5 120t0.5 122v114v96t-1 67.5q-48 -41 -88.5 -75.5t-75.5 -51.5q-48 6 -87.5 26t-67.5 50t-43.5 69.5 t-15.5 84.5q0 34 9 58t25 43.5t36 36.5t43 37q51 40 105 67t100 27q38 0 80.5 -9t93.5 -32q-8 -141 -10.5 -280t-3.5 -264t0 -231t1 -180zM308 110q20 0 39 11t31 25q0 45 -0.5 84.5t-1 70t-1 51t-0.5 29.5q-15 13 -34 22t-39.5 14.5t-41 8t-39.5 2.5q-5 0 -25 -2.5t-42 -15 t-39.5 -39t-17.5 -74.5q0 -41 22.5 -75.5t55 -59.5t69 -38.5t64.5 -13.5z" />
<glyph unicode="r" horiz-adv-x="413" d="M303 496q15 0 32 -1t28 -6q-11 -15 -21 -38t-18 -44q-10 -26 -18 -52q-7 4 -18 8q-9 3 -22.5 6t-32.5 3q-30 0 -49.5 -16.5t-31.5 -43t-18.5 -58.5t-9.5 -62q0 -58 1.5 -90t1.5 -52q-13 -3 -28.5 -8.5t-31.5 -13t-31.5 -15t-27.5 -14.5q5 45 8.5 93t5 94t0 87.5t-6 73 t-11.5 51t-17 21.5q-5 1 -11 1h-12q-7 0 -14 -1q27 9 54 21q23 11 51 25.5t54 33.5q3 -13 5 -35.5t4 -51t3 -60.5t3 -63q15 34 35 70.5t43 67t49 50t52 19.5z" />
<glyph unicode="s" horiz-adv-x="518" d="M184 224q-19 0 -46.5 4t-53 16.5t-43.5 35.5t-18 61q0 30 15.5 53.5t39.5 41.5t54 30t58 20t51.5 11.5t35.5 3.5q9 0 22.5 -0.5t27 -2t26 -3t18.5 -4.5q-4 -13 -8.5 -29.5t-8.5 -34t-6.5 -35t-2.5 -32.5q-7 15 -19 32.5t-28.5 33t-37.5 25.5t-46 10q-19 0 -33.5 -6 t-25 -16t-16 -21.5t-5.5 -22.5q0 -23 11 -40.5t29 -29.5t41.5 -18t48.5 -6q41 0 70.5 -8t48 -21t27 -29.5t8.5 -32.5q0 -53 -29.5 -92.5t-72 -65.5t-89 -39t-80.5 -13q-51 0 -91 13t-56 27q11 17 19 48t11 72q13 -25 35 -45.5t49 -34.5t57.5 -22t62.5 -8q11 0 25 3t26 10 t20.5 19t8.5 31q0 18 -9 37.5t-26 36t-41 27t-54 10.5z" />
<glyph unicode="t" horiz-adv-x="448" d="M97 1002q0 228 -4 350.5t-16 148.5q30 0 61.5 14.5t64.5 36.5t68 48t71.5 48t76 36.5t81.5 14.5q56 0 94 -16.5t61 -44.5t32.5 -63.5t9.5 -73.5q0 -94 -30 -173.5t-79 -146t-112 -120.5t-128 -96q-153 -99 -348 -161q192 62 343 161q64 42 126 96t110.5 120.5t78 146 t29.5 173.5q0 38 -9 72t-30.5 60t-57.5 41t-90 15q-59 0 -106 -22.5t-81.5 -54t-56 -65t-28.5 -56.5q-11 -34 -17 -73t-9 -94.5t-3.5 -134t-0.5 -191.5v-104t0.5 -110.5t1 -106.5t1 -91t0.5 -65v-27q18 -6 38.5 -8.5t40.5 -2.5t38 1.5l30 2.5q-12 -14 -31.5 -23.5t-41 -16.5 t-42 -11.5t-35.5 -8.5q2 -37 -1 -74.5t-3 -72.5t6 -66t24.5 -55t53 -39.5t91.5 -18.5q-15 -13 -31.5 -30t-34.5 -32t-37 -25.5t-39 -10.5q-21 0 -42 8.5t-37.5 25.5t-27.5 41t-12 56q-3 81 -5 157t-2 139q-26 2 -43.5 4t-28.5 4q-13 3 -22 6q13 5 28 12q13 6 28 14.5 t30 20.5q1 4 1.5 29.5t1 66t1 92t0.5 107v111v105.5z" />
<glyph unicode="u" horiz-adv-x="660" d="M515 130q6 -10 12.5 -20.5t15.5 -18t22.5 -10t33.5 4.5q-45 -26 -88.5 -46.5t-77.5 -41.5q-27 13 -33.5 44.5t-6.5 84.5q-19 -15 -40 -36.5t-46 -41.5t-55 -34.5t-67 -14.5q-11 0 -26.5 4.5t-31.5 14t-30 25t-23 37.5q-2 12 -3 29t-2 34.5t-1.5 34.5t-0.5 29q0 42 1 76 t-1 60t-9 43t-23 25q-12 5 -24 7q-6 1 -11 2q22 7 47 18q21 9 46.5 23.5t51.5 34.5q19 -5 25.5 -27.5t6.5 -56t-3 -74t-3 -80.5q0 -32 5.5 -60.5t19 -50t37 -34.5t60.5 -13q30 0 56.5 14t43.5 29q3 23 3.5 44t0.5 44q0 38 1 69t-0.5 54t-6 37.5t-15.5 19.5q-6 3 -14.5 4 t-16.5 2q-10 1 -19 1q35 10 68 23q28 11 58.5 26t51.5 33q0 -12 -1 -41t-1.5 -67t-1 -80.5t1 -79.5t4.5 -65t9 -38z" />
<glyph unicode="v" horiz-adv-x="621" d="M234 1687q-98 0 -168 -27t-118 -72t-76.5 -103t-44 -120t-20 -123.5t-4.5 -112.5q0 -83 32 -174t83 -187.5t114.5 -197t126.5 -202.5q26 32 56.5 58t60.5 45t56 29t43 10q19 0 40 -6t40 -15t35.5 -20t27.5 -22q-2 -17 -16.5 -49.5t-37 -73.5t-50.5 -86.5t-56 -88t-53 -79 t-42 -59.5q-3 0 -4 -1l-2 -2q-1 -2 -1 -3q-18 54 -64.5 130t-105 165t-122 185.5t-116 191.5t-86.5 183.5t-34 160.5q0 77 10 157t33 155.5t61 141.5t94 115.5t132 78.5t176 29q57 0 100 -13t74.5 -34.5t52.5 -48.5t35 -55q31 -66 33 -150q-3 81 -35 145q-14 27 -35 53 t-52.5 46.5t-74 33t-98.5 12.5zM291 453q-13 0 -29.5 -10t-34 -25t-33.5 -31.5t-29 -29.5q35 -55 67.5 -113.5t74.5 -114.5q24 28 45 64t36 72t21.5 66.5t0.5 47.5q-14 30 -43.5 52t-75.5 22z" />
<glyph unicode="w" horiz-adv-x="795" d="M610 499q19 0 41 -6.5t41.5 -16.5t35.5 -22t25 -23q-17 -45 -46.5 -97t-65.5 -107t-75 -112.5t-76 -112.5q-26 38 -51 80t-46 86l-63 -73.5t-63 -86.5q0 -2 -1 -4l-2 -4l-2 -4q-14 22 -31 57.5t-38 74.5q-39 63 -88 136t-100.5 151.5t-101 159.5t-88 159.5t-62 150.5 t-23.5 134q0 77 10 157.5t33 156t61.5 142.5t95 116.5t133 78.5t176.5 29q57 0 100 -13t74.5 -35t52.5 -49.5t35 -56.5q32 -68 35 -154q-4 81 -37 145q-14 27 -35.5 53.5t-53 47t-74 33t-97.5 12.5q-100 0 -171.5 -26.5t-120.5 -71t-78.5 -102t-45 -119t-20.5 -123 t-5 -112.5q0 -43 15.5 -99t41.5 -118.5t58.5 -128t67.5 -126.5q80 -144 183 -300q6 9 24 28.5t40 41.5t45 42t40 31q13 -26 35.5 -67t44.5 -76q15 17 40.5 41.5t55.5 47t61.5 38.5t59.5 16zM313 99q36 36 69 85q-5 12 -14.5 32.5t-23 45t-28 49.5t-29 45t-27.5 33t-21 13 q-7 0 -15.5 -5.5t-17.5 -14t-18 -18.5t-18 -19q35 -57 71.5 -123.5t71.5 -122.5zM536 116q11 11 29.5 37.5t36 59.5t30.5 68.5t13 63.5q0 25 -14 43.5t-33.5 30.5t-39.5 17.5t-33 5.5t-32 -13t-38 -29.5t-34.5 -32.5t-22.5 -22q11 -21 29 -54t38 -66.5t39 -63.5t32 -45z" />
<glyph unicode="x" horiz-adv-x="694" d="M535 118q20 0 34.5 1t25.5 8q-14 -12 -34 -29t-41.5 -34.5t-42 -34t-34.5 -29.5q-30 19 -72 63.5t-98 110.5q-36 -91 -81 -170.5t-108.5 -154.5t-149.5 -149t-205 -153q-21 -14 -41 -24t-43 -16t-52.5 -7t-71.5 4q14 25 22.5 58.5t8.5 71.5q17 -5 39.5 -8.5t40.5 -3.5 q106 0 202.5 48.5t177.5 128t143.5 181.5t101.5 209q-3 7 -10 15.5t-15 17t-16 16.5t-12 14q-26 35 -51.5 64.5t-46.5 50.5t-36 33t-21 12h-20q-5 0 -11 1q24 12 50 24q22 11 47 24t48 27q13 -7 30.5 -23t38 -38t43.5 -48.5t47 -55.5q22 40 38.5 73t38.5 56t56.5 35.5 t92.5 12.5q-21 -33 -31 -71.5t-14 -68.5q-14 10 -32.5 16t-39.5 6q-24 0 -48 -18.5t-52 -55.5q2 -5 6.5 -8t6.5 -8q29 -35 55 -66.5t49.5 -55.5t45 -38t41.5 -14z" />
<glyph unicode="y" horiz-adv-x="676" d="M408 438q43 13 83 24q34 10 70.5 20t61.5 16q-19 -82 -58 -163t-91 -157.5t-113.5 -147t-127.5 -132t-132 -112.5t-127 -89q-34 -21 -74.5 -44.5t-81 -49t-78.5 -53.5t-67 -59t-46.5 -66t-17.5 -73q0 -34 20 -65t53.5 -57.5t79 -48t96 -36.5t104.5 -23t105 -8 q100 0 174.5 16.5t128.5 43.5t89 62t57 71q51 84 49 193q3 -112 -47 -199q-21 -38 -56.5 -73.5t-89.5 -63.5t-129 -45t-176 -17q-51 0 -107.5 9t-112 25t-105.5 39t-88.5 51t-61 59.5t-22.5 66.5q0 57 33 103t87 87.5t122 82t138 85.5q45 30 84 60t77 65t77.5 77t85.5 96 q-19 38 -42 83t-47.5 91t-49.5 89.5t-47 77t-40 53.5t-28 20q-7 0 -13 -0.5t-11 -0.5q-6 -1 -12 -1q10 18 29 32.5t40 25t40.5 16.5t29.5 6q22 0 82 -97t153 -278q38 58 65 111t40 94t11.5 67.5t-20.5 32.5q-8 2 -16 3.5t-15 2.5q-8 1 -15 2z" />
<glyph unicode="z" horiz-adv-x="449" d="M161 542q-8 -17 -3.5 -26.5t15 -14t25 -5t25.5 -0.5q28 4 57.5 2.5t63.5 2.5q-21 -23 -48 -50l-51.5 -51.5t-43.5 -44.5t-23 -30q39 -2 71 -12.5t54 -28.5t34 -42.5t12 -52.5q0 -49 -22 -84.5t-54.5 -59t-69 -35t-66.5 -11.5q-24 0 -50.5 7.5t-53.5 16t-54.5 16 t-53.5 7.5q-13 0 -27.5 -2.5t-26.5 -7t-20 -11t-8 -14.5q0 -7 5 -16t15 -16.5t24.5 -13t33.5 -5.5q25 0 50.5 8.5t48 23.5t40 35.5t28.5 43.5q-11 -34 -32.5 -56.5t-46 -35.5t-49 -18.5t-39.5 -5.5q-17 0 -33.5 3t-29 9t-20.5 15.5t-8 21.5q0 13 11 23t27.5 17t36.5 11t37 4 q37 0 81.5 -8.5t93.5 -8.5q27 0 49 9.5t38 24.5t24.5 33.5t8.5 36.5q0 20 -8.5 38.5t-23.5 32.5t-34.5 22.5t-40.5 8.5q-32 0 -55.5 -9t-39.5 -14q18 16 46.5 43t57 55.5t52 54.5t32.5 40q-18 1 -40.5 2t-47 1t-49 -1t-46.5 -2q38 35 68.5 64t52.5 60z" />
<glyph unicode="{" horiz-adv-x="258" d="M158 -56l-53 -29h-13q-40 0 -60 74q-17 57 -17 130q0 81 20.5 161t55.5 135q-61 25 -91 58q6 8 15 19l53 57q11 12 21 20q1 2 1 8q0 1 -17 55q-50 157 -50 289q0 96 38 118l64 40q1 -4 1 -8q0 -9 -2 -22q0 -4 -2 -11l-39 -33q-9 -15 -9 -49q0 -126 64 -297q5 -16 5 -31 q0 -34 -17 -53q-12 -17 -43 -49q-5 -1 -16 -8q25 -16 85 -45q-38 -52 -60.5 -136t-22.5 -166q0 -76 19 -137q11 -37 14 -42q10 -24 24 -24q13 0 32 24v-48z" />
<glyph unicode="|" horiz-adv-x="190" d="M90 1015q-14 -245 -25 -519q-6 -145 -3 -561h-62q14 285 21 634q3 114 -8 453z" />
<glyph unicode="}" horiz-adv-x="258" d="M0 1050l53 29h13q40 0 60 -74q17 -57 17 -130q0 -81 -20.5 -161t-55.5 -135q61 -25 91 -58q-6 -8 -15 -19l-53 -57q-11 -12 -21 -20q-1 -2 -1 -8q0 -1 17 -55q50 -157 50 -289q0 -96 -38 -118l-64 -40q-1 4 -1 8q0 9 2 22q0 4 2 11l39 33q9 15 9 49q0 126 -64 297 q-5 16 -5 31q0 34 17 53q12 17 43 49q5 1 16 8q-25 16 -85 45q38 52 60.5 136t22.5 166q0 76 -19 137q-11 37 -14 42q-10 24 -24 24q-13 0 -32 -24v48z" />
<glyph unicode="~" horiz-adv-x="490" d="M390 1001l-43 -75q-70 -32 -109 -32q-40 0 -81 24q-17 10 -44 10q-69 0 -113 -39l46 80q35 30 102 30q29 0 45 -9q42 -24 81 -24q40 0 116 35z" />
<glyph unicode="&#xa1;" horiz-adv-x="283" d="M0 711q33 15 97 49h24l5 -682q0 -44 27 -44l30 7q-44 -30 -76 -40l-13 2q-9 0 -38 -17h-13q-7 21 -7 68q0 90 2 299l3 299q0 20 -11.5 38.5t-29.5 20.5zM9 902q0 35 24 66t57 31q50 0 50 -66q0 -40 -21 -70.5t-57 -30.5q-10 0 -33 8q-20 29 -20 62z" />
<glyph unicode="&#xa2;" horiz-adv-x="585" d="M324 548q-9 -38 -17 -78q15 -10 32 -19t34 -16t33 -11t28 -4q-15 -10 -33.5 -20.5t-35 -20t-29 -16.5t-17.5 -11q-7 -2 -16 -0.5t-20 3.5q-10 -51 -19 -103q-8 -43 -18 -128q20 -7 38.5 -10t34.5 -3q35 0 64 6.5t50.5 15t34.5 16t17 10.5q-21 -18 -47 -44.5t-57.5 -51.5 t-68.5 -43t-79 -20q-4 -34 -7 -72l-69 7q7 35 14 71q-39 9 -70.5 29.5t-54 49t-34.5 63t-12 70.5q0 47 25 85.5t61.5 70t77 56t70.5 43.5q3 40 5 88zM107 292q0 -50 26 -85.5t63 -58.5q12 72 23 151q5 26 9 73q-21 8 -39 17.5t-28 16.5q-9 -6 -18.5 -17t-17.5 -26t-13 -33 t-5 -38z" />
<glyph unicode="&#xa3;" horiz-adv-x="731" d="M347 606q-29 -13 -52 -21v-52q0 -130 2 -217t4 -141q3 -63 7 -100q64 0 121 4q24 1 49.5 3t48.5 5t42.5 6t32.5 8l19 73l10 -3l-16 -62q-7 -26 -14 -56t-12 -54q-37 6 -76.5 7.5t-79 1.5t-78 -1.5t-73.5 -1.5q-47 0 -78 -1t-51 -2q-23 -2 -37 -3v6l43 10q8 32 14 96 q5 55 10 150.5t5 245.5v76q-16 6 -31 15q-17 10 -44 10q-69 0 -113 -39l46 80q35 30 102 30q24 0 39 -6q-2 90 -5 149t-5 94q-4 41 -6 63l-61 10v10q15 -3 33 -5q16 -2 39 -3.5t53 -1.5q37 0 66 1.5t49 3.5q24 2 41 5v-10l-54 -10q-8 -43 -16 -95q-7 -45 -13.5 -105 t-9.5 -131q36 7 92 33z" />
<glyph unicode="&#xa4;" d="M87 540q0 -30 11.5 -66.5t38.5 -68t70.5 -53t106.5 -21.5q33 0 52 9t28 22.5t11.5 28.5t2.5 28q0 43 -16.5 85t-45.5 75t-68.5 53t-85.5 20q-30 0 -50 -11.5t-32.5 -29t-17.5 -37t-5 -34.5zM307 730q30 0 64.5 -13t64 -39t48.5 -66.5t19 -94.5q0 -31 -14.5 -64t-38 -65 t-54 -60.5t-63 -50t-65 -34.5t-59.5 -13q-41 0 -78.5 17t-66.5 46t-46.5 66.5t-17.5 79.5q0 57 31 109.5t77 93t99.5 64.5t99.5 24z" />
<glyph unicode="&#xa5;" horiz-adv-x="827" d="M588 225q-88 -31 -137 -31q2 -47 5.5 -80t6.5 -56q4 -26 7 -44l65 -10v-6q-20 1 -43 3q-20 1 -46.5 2t-56.5 1q-27 0 -51.5 -1t-43.5 -2q-22 -2 -41 -3v9l72 7q2 27 5 60q2 28 4 65.5t4 81.5q-19 6 -46 6q-87 0 -142 -38l58 78q44 29 129 29h2q0 21 -0.5 42.5t-1.5 42.5 q-19 6 -45 6q-87 0 -142 -38l58 78q42 28 123 29q-1 8 -1.5 16t-1.5 16q-15 25 -34.5 60t-41.5 74.5t-45.5 81t-45.5 81.5q-52 93 -109 196l-52 10v9q15 -3 33 -5q16 -2 38 -3t49 -1q32 0 58 1t46 3q23 2 42 5v-9l-62 -10q38 -83 77 -162q16 -34 34.5 -70.5t37.5 -72.5 t38 -70.5t37 -62.5q15 31 29 67t26.5 72.5t24 73t21.5 69.5q23 77 42 156l-68 10v9q19 -3 37 -5q16 -2 34 -3t33 -1q32 0 54 1t37 3q17 2 29 5v-9l-39 -10q-33 -63 -71 -137q-32 -63 -74 -147.5t-89 -179.5q-2 -23 -2.5 -45.5t-1.5 -43.5q23 -4 45 -4q51 0 147 34l-54 -73 q-89 -31 -138 -31h-2v-85q24 -5 47 -5q51 0 147 34z" />
<glyph unicode="&#xa6;" horiz-adv-x="200" d="M100 996q-14 -104 -22 -233q-6 -69 -4 -216h-57q13 85 19 251q3 53 -8 202zM83 446q-12 -78 -23 -208q-6 -68 -3 -241h-57q14 110 19 276q2 53 -6 177z" />
<glyph unicode="&#xa7;" horiz-adv-x="621" d="M264 669q4 -2 7.5 -4.5t8.5 -4.5l86 -48t77.5 -51.5t56 -61t21.5 -76.5q0 -48 -7 -75.5t-19 -41.5q12 -19 19 -39.5t7 -43.5q0 -46 -16 -80t-42 -59t-59 -41t-67 -25.5t-66 -13.5t-56 -4q-31 0 -54.5 1t-42.5 2.5t-35 3t-31 1.5q-8 0 -17 -1.5t-17 -3.5q-10 -3 -18 -5 q21 17 32 46q10 25 12 65t-18 100h16q0 -29 23.5 -58.5t61 -53t84.5 -38.5t95 -15q24 0 49.5 3.5t46 14.5t33.5 32t13 56q0 36 -18.5 64t-48 51.5t-68 44.5t-78 41.5t-78 43t-68 50t-48 60.5t-18.5 76q0 36 8.5 60.5t22.5 41.5q-14 21 -22.5 45.5t-8.5 53.5q0 63 32 105 t78.5 66.5t99.5 35t96 10.5q34 0 55.5 -3.5t48.5 -3.5q32 0 47 3q9 2 15 4q-33 -45 -45.5 -94.5t-7.5 -88.5h-9q0 31 -17.5 55.5t-47 42t-68.5 27t-82 9.5q-15 0 -35 -5t-38 -16t-31 -29.5t-13 -45.5q0 -40 21 -71.5t56 -57.5zM103 633q5 -32 24.5 -58t48.5 -48.5t64 -43 t72 -40.5t72 -41t63 -45q-2 33 -19.5 59.5t-46 49t-64 42t-73 39t-74.5 40.5t-67 46z" />
<glyph unicode="&#xa8;" horiz-adv-x="497" d="M145 926q-13 -10 -26 -21q-11 -10 -24.5 -23t-24.5 -27q-11 18 -23 31t-23 22q-12 11 -24 18q13 10 25 21q11 10 23 23t22 28q11 -17 24 -30.5t24 -22.5q13 -11 27 -19zM397 925q-13 -10 -26 -21q-11 -10 -24.5 -23t-24.5 -27q-11 18 -23 31t-23 22q-12 11 -24 18 q13 10 25 21q11 10 23 23t22 28q11 -17 24 -30.5t24 -22.5q13 -11 27 -19z" />
<glyph unicode="&#xa9;" horiz-adv-x="613" d="M275 899q7 -9 19.5 -18.5t26 -17t27 -12t23.5 -4.5q-9 -6 -20 -13t-20.5 -13t-17 -10.5t-10.5 -6.5q-8 -2 -21.5 1.5t-27 9.5t-26 12t-19.5 11q-11 -8 -21.5 -27t-10.5 -45q0 -29 13 -51t32.5 -36.5t41 -21.5t39.5 -7q23 0 41 5t31 11q15 7 27 16q-12 -12 -28.5 -29.5 t-36 -34t-42.5 -28t-49 -11.5q-30 0 -54.5 11.5t-42 31t-27 44.5t-9.5 52q0 36 21 64.5t48 50.5t54 38t39 28zM268 508q43 0 70.5 18t43.5 50t22 76t6 95q0 30 -9 71t-29 78.5t-52.5 63.5t-78.5 26q-36 0 -62.5 -20t-44 -53.5t-25.5 -77.5t-8 -91q0 -27 8 -67.5t27 -78 t51 -64t81 -26.5zM0 735q0 56 21.5 104.5t57 84t81.5 55.5t95 20q59 0 106.5 -19t81.5 -52t52 -77t18 -94q0 -66 -20.5 -115.5t-55.5 -82t-81.5 -49t-98.5 -16.5q-82 0 -132.5 23.5t-78 59t-37 78t-9.5 80.5z" />
<glyph unicode="&#xaa;" horiz-adv-x="655" d="M441 821q8 -19 23 -56t31.5 -75t32.5 -67t27 -31q-30 -17 -62.5 -41t-56.5 -50q-5 22 -18 61.5t-35 86.5q-19 -19 -48 -44.5t-62 -48.5t-68.5 -39t-67.5 -16q-23 0 -47.5 6.5t-44.5 19t-32.5 30.5t-12.5 41q0 28 29 60t72 63.5t93 61.5t92 56q-31 39 -58.5 56.5 t-60.5 17.5q-14 0 -36.5 -8t-43.5 -18q-26 -11 -52 -25q56 38 108 69q22 13 45 25t44.5 22t40 16t31.5 6q25 0 46.5 -21.5t39 -51t30 -59.5t21.5 -47zM245 598q24 0 46 7t38.5 20t26.5 31t10 39q-8 13 -17 28.5t-17 29.5q-8 18 -16.5 34.5t-17.5 27.5q-22 -8 -53.5 -22.5 t-60.5 -34t-49.5 -42.5t-20.5 -48q0 -14 10.5 -26.5t28 -22t41.5 -15.5t51 -6z" />
<glyph unicode="&#xab;" horiz-adv-x="716" d="M91 358q72 -41 117 -120l67 -153l-80 -50q-73 150 -77 156q-68 68 -118 120q30 20 82 92q72 103 88 126l126 67q-6 -6 -93 -129q-57 -81 -112 -109zM411 358q72 -41 117 -120l67 -153l-80 -50q-73 150 -77 156q-68 68 -118 120q30 20 82 92q72 103 88 126l126 67 q-6 -6 -93 -129q-57 -81 -112 -109z" />
<glyph unicode="&#xac;" horiz-adv-x="1136" d="M1000 350l-107 -75q-175 -32 -273 -32q-100 0 -202 24q-43 10 -110 10q-173 0 -283 -39l115 80q88 30 255 30q73 0 113 -9q105 -24 202 -24q100 0 290 35zM908 365l73 -45q30 -71 29 -110q-1 -40 -27 -81q-10 -16 -11 -43q-2 -69 35 -114l-78 48q-29 36 -27 103 q1 29 10 45q26 41 27 80q1 40 -31 117z" />
<glyph unicode="&#xad;" horiz-adv-x="540" d="M415 351l-43 -75q-70 -32 -109 -32q-40 0 -81 24q-17 10 -44 10q-69 0 -113 -39l46 80q35 30 102 30q29 0 45 -9q42 -24 81 -24q40 0 116 35z" />
<glyph unicode="&#xae;" horiz-adv-x="573" d="M0 736q0 55 20 102.5t52.5 82.5t75 55t87.5 20q54 0 98 -19t75 -51.5t48 -75.5t17 -92q0 -65 -19 -114t-51 -81t-74.5 -48t-90.5 -16q-76 0 -122.5 23t-72 58.5t-34.5 77t-9 78.5zM248 512q39 0 64.5 18t40.5 49.5t20.5 75t5.5 93.5q0 29 -8.5 69.5t-27 77t-48 62.5 t-72.5 26q-34 0 -58.5 -20t-40.5 -53t-23.5 -76t-7.5 -89q0 -17 2.5 -39.5t9 -46.5t16.5 -48.5t25 -44.5q4 44 5 90t-0.5 84t-6 63t-12.5 27q-5 2 -11.5 1t-8.5 -1q1 0 9.5 4t21.5 10.5t28 16.5t29 22q1 -9 2.5 -24t2.5 -34t1.5 -40t1.5 -42q8 22 19.5 46.5t24 45t27 33.5 t28.5 13q8 0 18 -0.5t16 -4.5q-7 -10 -12 -25t-10 -29q-5 -17 -10 -35l-10 5q-5 2 -12.5 4t-17.5 2q-17 0 -27.5 -11t-17.5 -28.5t-10.5 -39t-5.5 -41.5q0 -39 1 -60.5t1 -34.5q-12 -3 -27 -11t-29 -17q17 -19 40.5 -31t53.5 -12z" />
<glyph unicode="&#xaf;" horiz-adv-x="490" d="M390 1001l-43 -75q-70 -32 -109 -32q-40 0 -81 24q-17 10 -44 10q-69 0 -113 -39l46 80q35 30 102 30q29 0 45 -9q42 -24 81 -24q40 0 116 35z" />
<glyph unicode="&#xb0;" d="M87 810q0 -30 11.5 -66.5t38.5 -68t70.5 -53t106.5 -21.5q33 0 52 9t28 22.5t11.5 28.5t2.5 28q0 43 -16.5 85t-45.5 75t-68.5 53t-85.5 20q-30 0 -50 -11.5t-32.5 -29t-17.5 -37t-5 -34.5zM307 1000q30 0 64.5 -13t64 -39t48.5 -66.5t19 -94.5q0 -31 -14.5 -64t-38 -65 t-54 -60.5t-63 -50t-65 -34.5t-59.5 -13q-41 0 -78.5 17t-66.5 46t-46.5 66.5t-17.5 79.5q0 57 31 109.5t77 93t99.5 64.5t99.5 24z" />
<glyph unicode="&#xb1;" horiz-adv-x="707" d="M582 168l-61 -67q-98 -28 -153 -28q-56 0 -114 21q-23 9 -62 9q-96 0 -158 -34l64 71q49 26 144 26q40 0 62 -8q60 -21 115 -21q56 0 163 31zM579 466l-61 -72q-100 -31 -155 -31h-15v-106q1 -9 3 -19q1 -11 8 -17l19 -6q0 -2 -3 -5h-113l13 97l2 68q-15 5 -29 11 q-24 10 -63 10q-97 0 -160 -38l65 77q50 29 145 29q25 0 43 -3l-1 68q0 6 -1 15q-1 18 -2 37.5t-20 33.5h42q26 0 45 3q17 2 17 3h5q-11 -77 -14 -180v-2q33 -7 65 -7q57 0 165 34z" />
<glyph unicode="&#xb2;" horiz-adv-x="446" d="M346 564q-4 -7 -12.5 -18t-20.5 -22q-24 -26 -36 -26l-277 2q52 51 88.5 88.5t54.5 63.5q47 56 68.5 103t21.5 86q0 45 -25 72t-66 27q-32 0 -48 -16q-15 -12 -26 -19.5t-18 -12.5q22 47 67 76q21 17 42 25t39 8q42 0 67.5 -30t25.5 -81q0 -36 -11 -71.5t-31 -69.5 q-19 -30 -86 -103q-23 -26 -36.5 -47t-18.5 -39z" />
<glyph unicode="&#xb3;" horiz-adv-x="364" d="M264 661q0 -95 -128 -143q-46 -17 -59 -17q-14 0 -41 14q-14 6 -22.5 12.5t-13.5 11.5q23 24 50 29q33 -12 55.5 -18.5t35.5 -6.5q19 0 45 26q24 27 24 50q0 89 -78 121l-2 1q-6 2 -25 8.5t-47 17.5l85 48q7 4 11.5 11.5t9.5 18.5q4 9 6.5 18.5t2.5 19.5q0 75 -78 75 q-24 0 -41 -10q-18 -12 -25 -15q-5 -3 -9 -5l-4 1q20 30 66 53q21 10 39.5 15t37.5 5q31 0 52 -29h-1q13 -14 18 -29t5 -31q0 -34 -21 -58h1q-12 -15 -41 -35q-19 -13 -25 -22q9 -5 36 -13q36 -14 58.5 -46.5t22.5 -77.5z" />
<glyph unicode="&#xb4;" horiz-adv-x="300" d="M0 871q31 15 63.5 51.5t44.5 68.5q20 -6 92 8q-25 -48 -85 -89q-66 -44 -115 -39z" />
<glyph unicode="&#xb5;" horiz-adv-x="699" d="M67 208q0 42 1 76t-1 60t-9 43t-23 25q-12 5 -22 7t-13 2q4 1 18 6t34 14t44.5 23t48.5 33q19 -5 25.5 -27.5t6.5 -56t-3 -74t-3 -80.5q0 -32 5.5 -60.5t19 -50t37 -34.5t60.5 -13q30 0 56.5 14t43.5 29q3 23 3.5 44t0.5 44q0 38 1 69t-0.5 54t-6 37.5t-15.5 19.5 q-6 3 -14.5 4t-16.5 2q-10 1 -19 1q35 10 68 23q28 11 58.5 26t51.5 33q0 -12 -1 -41t-1.5 -67t-1 -80.5t1 -79.5t4.5 -65t9 -38t12.5 -20.5t15.5 -18t22.5 -10t33.5 4.5q-45 -26 -88.5 -46.5t-77.5 -41.5q-27 13 -33.5 44.5t-6.5 84.5q-19 -15 -40 -36.5t-46 -41.5 t-55 -34.5t-67 -14.5q-9 0 -21 3q-2 -48 -5 -112.5t-6.5 -137t-7.5 -149t-7 -148.5q-8 -170 -16 -354q-13 212 -24 402q-5 81 -9 164.5t-7.5 160.5t-5.5 142.5t-2 109.5q-2 12 -3 29t-2 34.5t-1.5 34.5t-0.5 29z" />
<glyph unicode="&#xb6;" horiz-adv-x="870" d="M571 991q13 -1 28 -1.5t32 -0.5q32 0 55.5 1.5t39.5 3.5q18 2 31 5v-10l-51 -9q-6 -54 -10 -117q-4 -54 -6.5 -125t-2.5 -150q0 -101 4.5 -202t9.5 -183q6 -96 15 -184l54 -10v-9q-16 2 -37 4q-18 2 -43.5 3.5t-58.5 1.5q-55 0 -83 -3l-28 -4q-6 -1 -6.5 -0.5t-5.5 1.5 q-38 3 -108 3q-31 0 -56.5 -1t-44.5 -2q-22 -2 -41 -3v6l74 14q9 42 17 110q7 58 12.5 150t5.5 226q0 168 -2 277.5t-13 174.5q-8 11 -20.5 15.5t-32.5 4.5q-31 0 -60.5 -17.5t-52 -49t-36.5 -76.5t-14 -99q0 -85 12.5 -141.5t31.5 -91.5t41.5 -53t42.5 -25q-34 6 -79.5 22 t-86.5 51t-69.5 92t-28.5 146q0 75 23.5 125t59.5 80.5t79 43t83 12.5q58 0 110.5 -4.5t108.5 -4.5h20.5t18.5 1h-1l45 4zM587 575q0 77 -5 149.5t-10 129.5q-7 67 -15 126l-15 2q-5 -1 -9.5 -2t-9.5 -2q-8 -1 -16.5 -41t-15.5 -103t-12 -141.5t-5 -157.5q0 -98 -0.5 -190 t1 -164t5.5 -116t14 -45q8 -2 15 -4l14 -4l28 4q10 67 18 153q7 74 12.5 176.5t5.5 229.5zM319 420q-7 -1 -16 -1q-8 0 -18 1t-21 5q12 -2 21.5 -2.5t17.5 -1.5q9 -1 16 -1z" />
<glyph unicode="&#xb7;" horiz-adv-x="278" d="M178 291q0 -4 -5 -8q-29 -20 -45 -30q-31 -18 -49 -19q-24 -1 -37 41t-17 42q-5 0 -9 -1.5t-7 -2.5q-9 0 -9 8q0 9 61 37q9 4 26 11q3 1 11 2q21 0 31.5 -36.5t22.5 -38.5q4 0 8 1l8 2q9 0 10 -8z" />
<glyph unicode="&#xb8;" horiz-adv-x="282" d="M182 -182q-8 -15 -17 -27q-39 -48 -74 -35q-16 6 -53.5 43t-33.5 48q3 7 11 4q5 -3 9 -6.5t16 -7.5q12 -5 33.5 19t33.5 55q8 23 7 88l68 -181v0z" />
<glyph unicode="&#xb9;" horiz-adv-x="279" d="M179 537q-9 -10 -18 -17t-18 -12q-1 0 -5.5 -1.5t-6.5 -2.5q-6 -2 -17 -5.5t-22 -8.5q6 48 9.5 82t3.5 57v231q0 73 -26 73q1 0 -33 -13t-46 -13q39 33 179 91v-461z" />
<glyph unicode="&#xba;" horiz-adv-x="435" d="M335 776q0 -35 -7.5 -67.5t-21.5 -63.5q-33 -67 -87 -109q-46 -37 -78 -37q-15 0 -47 16q-51 23 -74 94q-7 23 -13.5 57t-6.5 63q0 48 10.5 92.5t30.5 82.5q26 42 64 69.5t82 27.5q42 0 72.5 -20.5t47.5 -58.5q13 -28 20.5 -64.5t7.5 -81.5zM278 729q0 40 -8 75t-21 65 q-42 77 -115 77q-42 0 -65 -72q-8 -26 -12 -53.5t-4 -54.5q0 -67 34 -130q46 -73 108 -73q83 0 83 166z" />
<glyph unicode="&#xbb;" horiz-adv-x="724" d="M205 263q-72 41 -117 120l-67 153l88 50q65 -150 69 -156q44 -78 126 -120q-38 -20 -90 -92q-72 -103 -88 -126l-126 -67q6 6 93 129q57 81 112 109zM525 263q-72 41 -117 120l-67 153l88 50q65 -150 69 -156q44 -78 126 -120q-38 -20 -90 -92q-72 -103 -88 -126 l-126 -67q6 6 93 129q57 81 112 109z" />
<glyph unicode="&#xbc;" horiz-adv-x="956" d="M206 304q-24 -35 -41 -45q-6 -1 -21.5 -8t-38.5 -18q15 138 15 207v345q0 108 -29 108l-37 -18q-17 -8 -29.5 -13.5t-24.5 -7.5q40 46 206 138v-688zM856 255q-33 -42 -74 -54q-12 -5 -31.5 -6.5t-46.5 -1.5v-105q0 -44 -12 -57q-19 -13 -38 -29h-22v191q-110 0 -245 12 q-2 -1 -7 -5.5t-13 -12.5v31q6 20 18.5 45.5t29.5 56.5q9 16 23 39.5t31 52.5q17 34 42 85.5t58 117.5q62 119 140 150v-488q0 -19 10 -21q4 -2 22 -2q19 0 47.5 1.5t66.5 5.5zM632 266v348q-47 -85 -91.5 -166t-91.5 -166h3v-13q9 7 15 7q13 0 33 -4q19 -4 34 -4zM541 960 q-38 -104 -79 -221.5t-86 -248.5q-23 -68 -60.5 -191t-89.5 -301l-51 31q38 109 85 247.5t100 306.5q17 56 47 162.5t70 255.5z" />
<glyph unicode="&#xbd;" horiz-adv-x="907" d="M206 304q-24 -35 -41 -45q-6 -1 -21.5 -8t-38.5 -18q15 138 15 207v345q0 108 -29 108l-37 -18q-17 -8 -29.5 -13.5t-24.5 -7.5q40 46 206 138v-688zM807 93q-5 -11 -14 -25.5t-26 -33.5q-15 -17 -25 -26.5t-18 -9.5l-337 1q68 81 112.5 137.5t65.5 85.5q50 76 78 146.5 t28 128.5q0 66 -30.5 104.5t-78.5 38.5q-17 0 -33.5 -6.5t-27.5 -17.5q-17 -17 -29.5 -28.5t-21.5 -16.5q13 31 33.5 59.5t45.5 51.5q27 23 51.5 35t48.5 12q51 0 81 -44.5t30 -116.5q0 -54 -12.5 -105.5t-38.5 -100.5q-11 -20 -38.5 -60.5t-64.5 -89.5q-23 -35 -43 -68.5 t-24 -56.5zM544 960q-38 -104 -79.5 -221.5t-84.5 -248.5q-23 -68 -61.5 -191t-89.5 -301l-53 31q40 109 86 247.5t100 306.5q18 56 47.5 162.5t70.5 255.5z" />
<glyph unicode="&#xbe;" horiz-adv-x="1065" d="M350 479q0 -144 -168 -216q-32 -12 -51 -18.5t-29 -6.5q-14 0 -53 21q-36 20 -49 38q29 32 65 41q45 -17 75 -26.5t46 -9.5q28 0 61 38q17 19 24.5 38t7.5 37q0 66 -26.5 112t-76.5 70q-4 2 -29 12.5t-67 27.5l112 74q9 5 15 16t12 28q10 29 10 57q0 113 -103 113 q-34 0 -54 -14q-21 -16 -33 -23.5t-14 -8.5l-3 3q28 50 87 80q54 30 103 30q18 0 35.5 -11.5t31.5 -31.5q31 -42 31 -92q0 -48 -29 -86q-8 -12 -21.5 -25.5t-30.5 -27.5q-14 -11 -22 -20t-11 -15q6 -3 17.5 -7.5t28.5 -10.5q51 -21 79.5 -69.5t28.5 -116.5zM965 255 q-38 -42 -76 -54q-14 -5 -35.5 -6.5t-49.5 -1.5v-52l1 -53q0 -43 -14 -57q-11 -7 -20 -14t-19 -15h-25v191q-115 0 -257 12q-5 -2 -21 -18v31q11 39 50 102q10 16 24 39t32 53q16 30 40.5 76t55.5 106q3 5 5 10.5t6 10.5q32 57 69.5 95.5t77.5 54.5v-488q0 -18 11 -21 q2 -2 21 -2q21 0 52 1.5t71 5.5zM727 266v348q-48 -85 -95 -166t-96 -166h3v-12q5 4 8 5t5 1q6 0 15 -1t20 -3t20.5 -3t16.5 -1zM650 960q-40 -104 -83 -221.5t-90 -248.5q-24 -68 -64 -191t-94 -301l-55 31q42 109 90.5 247.5t105.5 306.5q18 56 49 162.5t75 255.5z" />
<glyph unicode="&#xbf;" horiz-adv-x="516" d="M0 275q0 83 42.5 185.5t97.5 149.5q12 10 28 23q17 17 21 30q9 29 9 59v17q0 33 82 70q2 -9 16 -16l2 -76q0 -107 -57 -182q-12 -17 -103 -126q-54 -84 -54 -202q0 -73 12 -106q19 -49 70 -49q76 0 128 67t52 163q0 61 -23 103q-14 24 -63 74q57 -20 105 -91 q51 -75 51 -146q0 -105 -49.5 -170t-132.5 -65q-80 0 -157 93.5t-77 194.5zM201 905q0 33 19 64.5t44 31.5q38 0 38 -64q0 -39 -14 -68q-17 -34 -46 -34q-6 0 -24 8q-17 29 -17 62z" />
<glyph unicode="&#xc0;" horiz-adv-x="776" d="M310 902l107 -396h-196zM188 995q2 -1 12 -3q8 -2 24 -4t45 -4q15 -2 13 -44.5t-14.5 -110.5t-34 -154t-45.5 -176q-57 -210 -139 -477l-49 -11v-11q18 2 39 5q17 2 40 4t48 2q27 0 50.5 -2t41.5 -4q21 -3 39 -5v11q3 0 -1 1q-3 1 -12 3t-29 6q-16 3 -22 34.5t-7 77.5 t2.5 98.5t8 96.5t8.5 73t4 27h225l87 -406l-32 -11v-11q10 2 26 5q14 2 35.5 4t52.5 2q25 0 47 -2t39 -4q19 -3 36 -5v11q-5 2 -12 4q-6 2 -14 3.5t-18 3.5q-16 3 -35 46t-39 111t-41 154t-40 176q-45 209 -92 475l66 11v6q-25 -2 -53 -3q-24 -2 -54.5 -2.5t-62.5 -0.5 t-58 0.5t-45 2.5q-22 1 -40 3v-6zM436 1207q-49 -5 -115 40q-60 40 -85 88q72 -14 92 -7q12 -33 44.5 -69t63.5 -52z" />
<glyph unicode="&#xc1;" horiz-adv-x="776" d="M221 506h196l-107 396zM188 1001q18 -2 40 -3q19 -2 45 -2.5t58 -0.5t62.5 0.5t54.5 2.5q28 1 53 3v-6l-66 -11q47 -266 92 -475q19 -90 40 -176t41 -154t39 -111t35 -46q10 -2 18 -3.5t14 -3.5q7 -2 12 -4v-11q-17 2 -36 5q-17 2 -39 4t-47 2q-31 0 -52.5 -2t-35.5 -4 q-16 -3 -26 -5v11l32 11l-87 406h-225q0 2 -4 -27t-8.5 -73t-8 -96.5t-2.5 -98.5t7 -77.5t22 -34.5q20 -4 29 -6t12 -3q4 -1 1 -1v-11q-18 2 -39 5q-18 2 -41.5 4t-50.5 2q-25 0 -48 -2t-40 -4q-21 -3 -39 -5v11l49 11q82 267 139 477q24 90 45.5 176t34 154t14.5 110.5 t-13 44.5q-29 2 -45 4t-24 4q-10 2 -12 3v6zM235 1206q31 15 63.5 51.5t44.5 68.5q20 -6 92 8q-25 -48 -85 -89q-66 -44 -115 -39z" />
<glyph unicode="&#xc2;" horiz-adv-x="776" d="M310 902l107 -396h-196zM188 995q2 -1 12 -3q8 -2 24 -4t45 -4q15 -2 13 -44.5t-14.5 -110.5t-34 -154t-45.5 -176q-57 -210 -139 -477l-49 -11v-11q18 2 39 5q17 2 40 4t48 2q27 0 50.5 -2t41.5 -4q21 -3 39 -5v11q3 0 -1 1q-3 1 -12 3t-29 6q-16 3 -22 34.5t-7 77.5 t2.5 98.5t8 96.5t8.5 73t4 27h225l87 -406l-32 -11v-11q10 2 26 5q14 2 35.5 4t52.5 2q25 0 47 -2t39 -4q19 -3 36 -5v11q-5 2 -12 4q-6 2 -14 3.5t-18 3.5q-16 3 -35 46t-39 111t-41 154t-40 176q-45 209 -92 475l66 11v6q-25 -2 -53 -3q-24 -2 -54.5 -2.5t-62.5 -0.5 t-58 0.5t-45 2.5q-22 1 -40 3v-6zM322 1325q-19 -34 -73 -70q-82 -54 -86 -58l45 79q15 10 84 55q48 32 68 71q28 -51 80 -79q4 -2 104 -43l-40 -70l-102 42q-53 28 -80 73z" />
<glyph unicode="&#xc3;" horiz-adv-x="776" d="M310 902l107 -396h-196zM188 995q2 -1 12 -3q8 -2 24 -4t45 -4q15 -2 13 -44.5t-14.5 -110.5t-34 -154t-45.5 -176q-57 -210 -139 -477l-49 -11v-11q18 2 39 5q17 2 40 4t48 2q27 0 50.5 -2t41.5 -4q21 -3 39 -5v11q3 0 -1 1q-3 1 -12 3t-29 6q-16 3 -22 34.5t-7 77.5 t2.5 98.5t8 96.5t8.5 73t4 27h225l87 -406l-32 -11v-11q10 2 26 5q14 2 35.5 4t52.5 2q25 0 47 -2t39 -4q19 -3 36 -5v11q-5 2 -12 4q-6 2 -14 3.5t-18 3.5q-16 3 -35 46t-39 111t-41 154t-40 176q-45 209 -92 475l66 11v6q-25 -2 -53 -3q-24 -2 -54.5 -2.5t-62.5 -0.5 t-58 0.5t-45 2.5q-22 1 -40 3v-6zM547 1307l-43 -75q-70 -32 -109 -32q-40 0 -81 24q-17 10 -44 10q-69 0 -113 -39l46 80q35 30 102 30q29 0 45 -9q42 -24 81 -24q40 0 116 35z" />
<glyph unicode="&#xc4;" horiz-adv-x="776" d="M221 506h196l-107 396zM188 1001q18 -2 40 -3q19 -2 45 -2.5t58 -0.5t62.5 0.5t54.5 2.5q28 1 53 3v-6l-66 -11q47 -266 92 -475q19 -90 40 -176t41 -154t39 -111t35 -46q10 -2 18 -3.5t14 -3.5q7 -2 12 -4v-11q-17 2 -36 5q-17 2 -39 4t-47 2q-31 0 -52.5 -2t-35.5 -4 q-16 -3 -26 -5v11l32 11l-87 406h-225q0 2 -4 -27t-8.5 -73t-8 -96.5t-2.5 -98.5t7 -77.5t22 -34.5q20 -4 29 -6t12 -3q4 -1 1 -1v-11q-18 2 -39 5q-18 2 -41.5 4t-50.5 2q-25 0 -48 -2t-40 -4q-21 -3 -39 -5v11l49 11q82 267 139 477q24 90 45.5 176t34 154t14.5 110.5 t-13 44.5q-29 2 -45 4t-24 4q-10 2 -12 3v6zM292 1274q-13 -10 -26 -21q-11 -10 -24.5 -23t-24.5 -27q-11 18 -23 31t-23 22q-12 11 -24 18q13 10 25 21q11 10 23 23t22 28q11 -17 24 -30.5t24 -22.5q13 -11 27 -19zM544 1273q-13 -10 -26 -21q-11 -10 -24.5 -23t-24.5 -27 q-11 18 -23 31t-23 22q-12 11 -24 18q13 10 25 21q11 10 23 23t22 28q11 -17 24 -30.5t24 -22.5q13 -11 27 -19z" />
<glyph unicode="&#xc5;" horiz-adv-x="776" d="M225 1431q0 -23 9 -50t29 -50.5t52.5 -39.5t79.5 -16q25 0 39 6.5t21 16.5t9 21.5t2 21.5q0 32 -12.5 63.5t-34.5 56t-51.5 39.5t-63.5 15q-23 0 -38 -9t-24 -21.5t-13 -27t-4 -26.5zM390 1574q23 0 49 -9.5t47.5 -29.5t36 -50t14.5 -71q0 -34 -23 -72t-56.5 -69.5 t-72 -52.5t-68.5 -21t-58.5 12.5t-50.5 34.5t-35 50t-13 60q0 43 23 82.5t57.5 69.5t75 48t74.5 18zM221 506h196l-107 396zM188 1001q18 -2 40 -3q19 -2 45 -2.5t58 -0.5t62.5 0.5t54.5 2.5q28 1 53 3v-6l-66 -11q47 -266 92 -475q19 -90 40 -176t41 -154t39 -111t35 -46 q10 -2 18 -3.5t14 -3.5q7 -2 12 -4v-11q-17 2 -36 5q-17 2 -39 4t-47 2q-31 0 -52.5 -2t-35.5 -4q-16 -3 -26 -5v11l32 11l-87 406h-225q0 2 -4 -27t-8.5 -73t-8 -96.5t-2.5 -98.5t7 -77.5t22 -34.5q20 -4 29 -6t12 -3q4 -1 1 -1v-11q-18 2 -39 5q-18 2 -41.5 4t-50.5 2 q-25 0 -48 -2t-40 -4q-21 -3 -39 -5v11l49 11q82 267 139 477q24 90 45.5 176t34 154t14.5 110.5t-13 44.5q-29 2 -45 4t-24 4q-10 2 -12 3v6z" />
<glyph unicode="&#xc6;" horiz-adv-x="1082" d="M529 21q4 64 8 134q4 60 7.5 132t6.5 141h-237q1 2 -10 -27t-26.5 -73t-31.5 -96.5t-26.5 -98.5t-12 -77.5t13.5 -34.5q19 -4 27.5 -6t11.5 -3q4 -1 1 -1l-3 -11q-17 2 -37 5q-17 2 -40.5 4t-50.5 2q-25 0 -48.5 -2t-41.5 -4l-40 -5l3 11l51 11q127 228 227 422 q43 82 84 164.5t74 154t53.5 125t22.5 78.5q-2 8 -2 9q-1 2 -1 4l-64 6v14q24 -3 59 -5q29 -2 74 -3.5t105 -1.5q63 0 124 2.5t134 7.5q-17 -32 -30 -82t-15 -98q-10 40 -33.5 70t-56.5 49t-72.5 28.5t-80.5 9.5q-6 -62 -7.5 -134t-1.5 -135q0 -73 3 -146q44 1 89 7 q38 5 82.5 16t83.5 31q-5 -33 -6.5 -64t-1.5 -55q0 -28 2 -54l-10 4q1 31 -21 49t-57 27.5t-78 11.5t-83 1q-2 -30 -2.5 -65.5t0 -72t1.5 -73.5t3 -71q4 -80 8 -162q82 -8 149 -4q28 1 56.5 5t52 11.5t40 19t21.5 29.5l3 -6q-12 -31 -22 -59q-9 -24 -17 -48.5t-12 -37.5 q-92 0 -173 6t-165 6q-31 0 -53.5 -2t-37.5 -4q-18 -3 -31 -6v12zM529 885q0 4 -1 7t-1 6l-183 -392h196z" />
<glyph unicode="&#xc7;" horiz-adv-x="604" d="M0 468q0 129 29.5 228.5t79.5 167t115.5 102t137.5 34.5l93 -6q27 0 36 3q5 1 8 3h5q-8 -21 -15 -42.5t-13 -45.5t-10 -52t-6 -63h-11q0 19 -9 46t-29 52t-54 42.5t-83 17.5q-83 0 -121 -99t-38 -289q0 -51 6.5 -107.5t20 -112t34 -106t48.5 -89t63.5 -61.5t79.5 -23 q37 0 60.5 10.5t37.5 24.5q16 16 23 36l11 -11q-17 -36 -47 -63q-26 -24 -66.5 -43.5t-100.5 -19.5q-27 0 -59 8t-63.5 28.5t-61 54.5t-52 86t-36 123t-13.5 166zM447 -164q-8 -15 -17 -27q-39 -48 -74 -35q-16 6 -53.5 43t-33.5 48q3 7 11 4q5 -3 9 -6.5t16 -7.5 q12 -5 33.5 19t33.5 55q8 23 7 88z" />
<glyph unicode="&#xc8;" horiz-adv-x="634" d="M107 574q0 -33 -1 -74.5t-3 -86.5t-4.5 -92t-4.5 -90q-6 -102 -13 -210l-58 -8v-12q13 3 31 6q15 2 37.5 4t53.5 2q84 0 165 -6t173 -6q4 13 12 37.5t17 48.5q10 28 22 59l-3 6q-5 -18 -21.5 -29.5t-40 -19t-52 -11.5t-56.5 -5q-67 -4 -149 4q-4 82 -8 162q-2 34 -3 71 t-1.5 73.5t0 72t2.5 65.5q40 1 83 -1t78 -11.5t57 -27.5t21 -49l10 -4q-2 26 -2 54q0 24 1.5 55t6.5 64q-39 -20 -83.5 -31t-82.5 -16q-45 -6 -89 -7q-3 73 -3 146q0 63 1.5 135t7.5 134q41 0 80.5 -9.5t72.5 -28.5t56.5 -49t33.5 -70q2 48 15 98t30 82q-73 -5 -134 -7.5 t-124 -2.5q-60 0 -105 1.5t-74 3.5q-35 2 -59 5v-14l64 -6q11 -55 21 -120q8 -56 15 -129.5t7 -155.5zM350 1203q-49 -5 -115 40q-60 40 -85 88q72 -14 92 -7q12 -33 44.5 -69t63.5 -52z" />
<glyph unicode="&#xc9;" horiz-adv-x="634" d="M107 574q0 82 -7 155.5t-15 129.5q-10 65 -21 120l-64 6v14q24 -3 59 -5q29 -2 74 -3.5t105 -1.5q63 0 124 2.5t134 7.5q-17 -32 -30 -82t-15 -98q-10 40 -33.5 70t-56.5 49t-72.5 28.5t-80.5 9.5q-6 -62 -7.5 -134t-1.5 -135q0 -73 3 -146q44 1 89 7q38 5 82.5 16 t83.5 31q-5 -33 -6.5 -64t-1.5 -55q0 -28 2 -54l-10 4q1 31 -21 49t-57 27.5t-78 11.5t-83 1q-2 -30 -2.5 -65.5t0 -72t1.5 -73.5t3 -71q4 -80 8 -162q82 -8 149 -4q28 1 56.5 5t52 11.5t40 19t21.5 29.5l3 -6q-12 -31 -22 -59q-9 -24 -17 -48.5t-12 -37.5q-92 0 -173 6 t-165 6q-31 0 -53.5 -2t-37.5 -4q-18 -3 -31 -6v12l58 8q7 108 13 210q2 43 4.5 90t4.5 92t3 86.5t1 74.5zM151 1206q31 15 63.5 51.5t44.5 68.5q20 -6 92 8q-25 -48 -85 -89q-66 -44 -115 -39z" />
<glyph unicode="&#xca;" horiz-adv-x="634" d="M107 574q0 -33 -1 -74.5t-3 -86.5t-4.5 -92t-4.5 -90q-6 -102 -13 -210l-58 -8v-12q13 3 31 6q15 2 37.5 4t53.5 2q84 0 165 -6t173 -6q4 13 12 37.5t17 48.5q10 28 22 59l-3 6q-5 -18 -21.5 -29.5t-40 -19t-52 -11.5t-56.5 -5q-67 -4 -149 4q-4 82 -8 162q-2 34 -3 71 t-1.5 73.5t0 72t2.5 65.5q40 1 83 -1t78 -11.5t57 -27.5t21 -49l10 -4q-2 26 -2 54q0 24 1.5 55t6.5 64q-39 -20 -83.5 -31t-82.5 -16q-45 -6 -89 -7q-3 73 -3 146q0 63 1.5 135t7.5 134q41 0 80.5 -9.5t72.5 -28.5t56.5 -49t33.5 -70q2 48 15 98t30 82q-73 -5 -134 -7.5 t-124 -2.5q-60 0 -105 1.5t-74 3.5q-35 2 -59 5v-14l64 -6q11 -55 21 -120q8 -56 15 -129.5t7 -155.5zM213 1330q-19 -34 -73 -70q-82 -54 -86 -58l45 79q15 10 84 55q48 32 68 71q28 -51 80 -79q4 -2 104 -43l-40 -70l-102 42q-53 28 -80 73z" />
<glyph unicode="&#xcb;" horiz-adv-x="634" d="M107 574q0 82 -7 155.5t-15 129.5q-10 65 -21 120l-64 6v14q24 -3 59 -5q29 -2 74 -3.5t105 -1.5q63 0 124 2.5t134 7.5q-17 -32 -30 -82t-15 -98q-10 40 -33.5 70t-56.5 49t-72.5 28.5t-80.5 9.5q-6 -62 -7.5 -134t-1.5 -135q0 -73 3 -146q44 1 89 7q38 5 82.5 16 t83.5 31q-5 -33 -6.5 -64t-1.5 -55q0 -28 2 -54l-10 4q1 31 -21 49t-57 27.5t-78 11.5t-83 1q-2 -30 -2.5 -65.5t0 -72t1.5 -73.5t3 -71q4 -80 8 -162q82 -8 149 -4q28 1 56.5 5t52 11.5t40 19t21.5 29.5l3 -6q-12 -31 -22 -59q-9 -24 -17 -48.5t-12 -37.5q-92 0 -173 6 t-165 6q-31 0 -53.5 -2t-37.5 -4q-18 -3 -31 -6v12l58 8q7 108 13 210q2 43 4.5 90t4.5 92t3 86.5t1 74.5zM184 1272q-13 -10 -26 -21q-11 -10 -24.5 -23t-24.5 -27q-11 18 -23 31t-23 22q-12 11 -24 18q13 10 25 21q11 10 23 23t22 28q11 -17 24 -30.5t24 -22.5 q13 -11 27 -19zM436 1271q-13 -10 -26 -21q-11 -10 -24.5 -23t-24.5 -27q-11 18 -23 31t-23 22q-12 11 -24 18q13 10 25 21q11 10 23 23t22 28q11 -17 24 -30.5t24 -22.5q13 -11 27 -19z" />
<glyph unicode="&#xcc;" horiz-adv-x="362" d="M85 576q0 -127 -5.5 -229.5t-12.5 -176.5q-8 -86 -18 -153l-43 -6v-10q10 2 28 4q15 2 38.5 3.5t56.5 1.5t58.5 -1.5t43.5 -3.5q21 -2 37 -4v9l-54 10q-9 88 -15 184q-5 82 -9.5 183t-4.5 202q0 79 2.5 150t6.5 125q4 63 10 117l51 9v10q-13 -3 -31 -5q-16 -2 -39.5 -3.5 t-55.5 -1.5q-29 0 -52.5 1.5t-40.5 3.5q-20 2 -36 5v-10l55 -9q8 -59 15 -126q5 -57 10 -129.5t5 -149.5zM225 1207q-49 -5 -115 40q-60 40 -85 88q72 -14 92 -7q12 -33 44.5 -69t63.5 -52z" />
<glyph unicode="&#xcd;" horiz-adv-x="362" d="M85 576q0 77 -5 149.5t-10 129.5q-7 67 -15 126l-55 9v10q16 -3 36 -5q17 -2 40.5 -3.5t52.5 -1.5q32 0 55.5 1.5t39.5 3.5q18 2 31 5v-10l-51 -9q-6 -54 -10 -117q-4 -54 -6.5 -125t-2.5 -150q0 -101 4.5 -202t9.5 -183q6 -96 15 -184l54 -10v-9q-16 2 -37 4 q-18 2 -43.5 3.5t-58.5 1.5t-56.5 -1.5t-38.5 -3.5q-18 -2 -28 -4v10l43 6q10 67 18 153q7 74 12.5 176.5t5.5 229.5zM26 1204q31 15 63.5 51.5t44.5 68.5q20 -6 92 8q-25 -48 -85 -89q-66 -44 -115 -39z" />
<glyph unicode="&#xce;" horiz-adv-x="362" d="M93 576q0 -127 -5.5 -229.5t-12.5 -176.5q-8 -86 -18 -153l-43 -6v-10q10 2 28 4q15 2 38.5 3.5t56.5 1.5t58.5 -1.5t43.5 -3.5q21 -2 37 -4v9l-54 10q-9 88 -15 184q-5 82 -9.5 183t-4.5 202q0 79 2.5 150t6.5 125q4 63 10 117l51 9v10q-13 -3 -31 -5q-16 -2 -39.5 -3.5 t-55.5 -1.5q-29 0 -52.5 1.5t-40.5 3.5q-20 2 -36 5v-10l55 -9q8 -59 15 -126q5 -57 10 -129.5t5 -149.5zM113 1326q-19 -34 -73 -70q-82 -54 -86 -58l45 79q15 10 84 55q48 32 68 71q28 -51 80 -79q4 -2 104 -43l-40 -70l-102 42q-53 28 -80 73z" />
<glyph unicode="&#xcf;" horiz-adv-x="359" d="M90 576q0 77 -5 149.5t-10 129.5q-7 67 -15 126l-55 9v10q16 -3 36 -5q17 -2 40.5 -3.5t52.5 -1.5q32 0 55.5 1.5t39.5 3.5q18 2 31 5v-10l-51 -9q-6 -54 -10 -117q-4 -54 -6.5 -125t-2.5 -150q0 -101 4.5 -202t9.5 -183q6 -96 15 -184l54 -10v-9q-16 2 -37 4 q-18 2 -43.5 3.5t-58.5 1.5t-56.5 -1.5t-38.5 -3.5q-18 -2 -28 -4v10l43 6q10 67 18 153q7 74 12.5 176.5t5.5 229.5zM80 1275q-13 -10 -26 -21q-11 -10 -24.5 -23t-24.5 -27q-11 18 -23 31t-23 22q-12 11 -24 18q13 10 25 21q11 10 23 23t22 28q11 -17 24 -30.5t24 -22.5 q13 -11 27 -19zM332 1274q-13 -10 -26 -21q-11 -10 -24.5 -23t-24.5 -27q-11 18 -23 31t-23 22q-12 11 -24 18q13 10 25 21q11 10 23 23t22 28q11 -17 24 -30.5t24 -22.5q13 -11 27 -19z" />
<glyph unicode="&#xd0;" horiz-adv-x="797" d="M87 617q0 67 -3 132.5t-7.5 117t-10 84t-11.5 33.5l-46 10v10q17 -3 36 -5q17 -2 37.5 -3.5t43.5 -1.5q18 0 36.5 1.5t39 3.5t44 3.5t53.5 1.5q86 0 159 -34.5t126 -97.5t83 -151.5t30 -196.5q0 -104 -18 -183t-48 -137.5t-69.5 -97t-81 -62t-83 -33.5t-76.5 -10 q-49 0 -101 4.5t-97 4.5q-26 0 -47 -2t-37 -4q-18 -3 -33 -6v12l52 7q6 49 11 116q5 57 9.5 140.5t6.5 192.5q-11 5 -22 12q-17 10 -44 10q-69 0 -113 -39l46 80q35 30 102 30q19 0 33 -4v62zM253 486q-40 -19 -70 -27q1 -45 2.5 -92.5t3.5 -95t4 -92.5t4 -84 q25 -78 117 -78q45 0 81 22.5t63 61t46 89t31 106.5t17.5 113.5t5.5 110.5q0 80 -22 162.5t-60 149.5t-89.5 109.5t-111.5 42.5q-26 0 -45.5 -5.5t-32.5 -19.5q-5 -33 -7.5 -73t-4.5 -88.5t-2.5 -107.5t-0.5 -131v-33q40 1 114 35z" />
<glyph unicode="&#xd1;" horiz-adv-x="884" d="M784 992l-3 10q-20 -3 -43 -5q-20 -2 -45.5 -3.5t-53.5 -1.5q-25 0 -48 1.5t-41 3.5q-21 2 -40 5l3 -10l77 -10q10 -27 18 -72t13.5 -100.5t9.5 -117.5t7 -123q6 -143 7 -306q-103 149 -192 288q-38 59 -77 121.5t-73.5 122t-63 113t-44.5 94.5q-27 -7 -61 -10.5 t-64 -5.5q-35 -3 -70 -4l4 -9h22q10 0 34.5 -31.5t62.5 -85.5q2 -63 3.5 -146t1 -171.5t-3 -176t-7 -159.5t-11 -122t-15.5 -64l-52 -7v-10q14 2 33 5q17 2 41 3.5t56 1.5q28 0 52 -1.5t42 -3.5q21 -3 39 -5l-3 7l-65 10q-7 11 -15 56t-15.5 111.5t-14.5 147.5t-12.5 163.5 t-10.5 161.5t-7 140q46 -70 104.5 -161.5t125.5 -194t141.5 -211t153.5 -213.5q-1 212 2 399q1 80 3 162.5t6 158.5t9 139.5t13 105.5zM563 1313l-43 -75q-70 -32 -109 -32q-40 0 -81 24q-17 10 -44 10q-69 0 -113 -39l46 80q35 30 102 30q29 0 45 -9q42 -24 81 -24 q40 0 116 35z" />
<glyph unicode="&#xd2;" horiz-adv-x="792" d="M362 26q-44 0 -78 24.5t-59 64.5t-42 91t-27.5 103t-15 101t-4.5 85q0 93 11 180t34.5 153.5t59 106.5t84.5 40q42 0 75 -24.5t58.5 -64t43.5 -90t29 -103t16.5 -103t5.5 -89.5q0 -102 -8.5 -188.5t-30 -150.5t-58.5 -100t-94 -36zM0 476q0 -50 5 -104.5t19 -107 t38.5 -100.5t63 -84.5t93 -58t128.5 -21.5q70 0 132.5 32.5t110 97.5t75 162.5t27.5 228.5q0 99 -24.5 186t-70 152t-110 103t-143.5 38q-66 0 -128 -40t-110 -110.5t-77 -166.5t-29 -207zM410 1205q-49 -5 -115 40q-60 40 -85 88q72 -14 92 -7q12 -33 44.5 -69t63.5 -52z " />
<glyph unicode="&#xd3;" horiz-adv-x="792" d="M362 26q57 0 94 36t58.5 100t30 150.5t8.5 188.5q0 39 -5.5 89.5t-16.5 103t-29 103t-43.5 90t-58.5 64t-75 24.5q-49 0 -84.5 -40t-59 -106.5t-34.5 -153.5t-11 -180q0 -36 4.5 -85t15 -101t27.5 -103t42 -91t59 -64.5t78 -24.5zM0 476q0 111 29 207t77 166.5t110 110.5 t128 40q79 0 143.5 -38t110 -103t70 -152t24.5 -186q0 -131 -27.5 -228.5t-75 -162.5t-110 -97.5t-132.5 -32.5q-74 0 -128.5 21.5t-93 58t-63 84.5t-38.5 100.5t-19 107t-5 104.5zM209 1205q31 15 63.5 51.5t44.5 68.5q20 -6 92 8q-25 -48 -85 -89q-66 -44 -115 -39z" />
<glyph unicode="&#xd4;" horiz-adv-x="792" d="M362 26q-44 0 -78 24.5t-59 64.5t-42 91t-27.5 103t-15 101t-4.5 85q0 93 11 180t34.5 153.5t59 106.5t84.5 40q42 0 75 -24.5t58.5 -64t43.5 -90t29 -103t16.5 -103t5.5 -89.5q0 -102 -8.5 -188.5t-30 -150.5t-58.5 -100t-94 -36zM0 476q0 -50 5 -104.5t19 -107 t38.5 -100.5t63 -84.5t93 -58t128.5 -21.5q70 0 132.5 32.5t110 97.5t75 162.5t27.5 228.5q0 99 -24.5 186t-70 152t-110 103t-143.5 38q-66 0 -128 -40t-110 -110.5t-77 -166.5t-29 -207zM295 1330q-19 -34 -73 -70q-82 -54 -86 -58l45 79q15 10 84 55q48 32 68 71 q28 -51 80 -79q4 -2 104 -43l-40 -70l-102 42q-53 28 -80 73z" />
<glyph unicode="&#xd5;" horiz-adv-x="792" d="M362 26q-44 0 -78 24.5t-59 64.5t-42 91t-27.5 103t-15 101t-4.5 85q0 93 11 180t34.5 153.5t59 106.5t84.5 40q42 0 75 -24.5t58.5 -64t43.5 -90t29 -103t16.5 -103t5.5 -89.5q0 -102 -8.5 -188.5t-30 -150.5t-58.5 -100t-94 -36zM0 476q0 -50 5 -104.5t19 -107 t38.5 -100.5t63 -84.5t93 -58t128.5 -21.5q70 0 132.5 32.5t110 97.5t75 162.5t27.5 228.5q0 99 -24.5 186t-70 152t-110 103t-143.5 38q-66 0 -128 -40t-110 -110.5t-77 -166.5t-29 -207zM521 1311l-43 -75q-70 -32 -109 -32q-40 0 -81 24q-17 10 -44 10q-69 0 -113 -39 l46 80q35 30 102 30q29 0 45 -9q42 -24 81 -24q40 0 116 35z" />
<glyph unicode="&#xd6;" horiz-adv-x="792" d="M362 26q57 0 94 36t58.5 100t30 150.5t8.5 188.5q0 39 -5.5 89.5t-16.5 103t-29 103t-43.5 90t-58.5 64t-75 24.5q-49 0 -84.5 -40t-59 -106.5t-34.5 -153.5t-11 -180q0 -36 4.5 -85t15 -101t27.5 -103t42 -91t59 -64.5t78 -24.5zM0 476q0 111 29 207t77 166.5t110 110.5 t128 40q79 0 143.5 -38t110 -103t70 -152t24.5 -186q0 -131 -27.5 -228.5t-75 -162.5t-110 -97.5t-132.5 -32.5q-74 0 -128.5 21.5t-93 58t-63 84.5t-38.5 100.5t-19 107t-5 104.5zM271 1276q-13 -10 -26 -21q-11 -10 -24.5 -23t-24.5 -27q-11 18 -23 31t-23 22 q-12 11 -24 18q13 10 25 21q11 10 23 23t22 28q11 -17 24 -30.5t24 -22.5q13 -11 27 -19zM523 1275q-13 -10 -26 -21q-11 -10 -24.5 -23t-24.5 -27q-11 18 -23 31t-23 22q-12 11 -24 18q13 10 25 21q11 10 23 23t22 28q11 -17 24 -30.5t24 -22.5q13 -11 27 -19z" />
<glyph unicode="&#xd7;" horiz-adv-x="602" d="M400 90q-50 77 -86.5 128t-59.5 79h1q-2 2 -3.5 2.5t-3.5 3.5q-28 -36 -68 -88.5t-91 -124.5l-64 16q42 48 90.5 105.5t104.5 126.5q-53 65 -104 126.5t-91 106.5l64 14q52 -70 92 -123.5t68 -89.5q2 1 1 1t1 1l3 5q23 28 59.5 79.5t86.5 126.5l77 -19 q-47 -51 -96 -107.5t-103 -119.5q52 -61 102.5 -119t96.5 -109z" />
<glyph unicode="&#xd8;" horiz-adv-x="684" d="M549 995q-29 -57 -60 -117q28 -31 47 -76q48 -110 48 -281q0 -128 -52 -250q-53 -127 -149 -205q-84 -71 -136 -71q-28 0 -84 31q-26 13 -47 34q-12 -30 -25 -61l-71 28q23 46 48 97q-19 35 -33 80q-35 105 -35 229q0 184 72 334q90 183 254 183q54 0 97 -20 q19 50 40 106zM492 433q0 155 -54 269q-9 19 -18 35q-54 -109 -111 -229q-47 -98 -133 -303q67 -94 162 -94q154 0 154 322zM234 853q-80 0 -117 -141q-31 -100 -31 -208q0 -123 52 -233q71 149 153 331q29 66 81 197q-57 54 -138 54z" />
<glyph unicode="&#xd9;" horiz-adv-x="834" d="M734 19l-61 12q-12 17 -18 57t-8 96t-1.5 124.5t0.5 143.5q0 125 4.5 222.5t10.5 165.5q6 79 15 139l29 9v11q-9 -3 -26 -6q-14 -2 -37.5 -3.5t-58.5 -1.5q-26 0 -48.5 1.5t-39.5 3.5q-19 3 -36 6v-11l75 -9q8 -28 15 -77q6 -42 11 -112t5 -176q0 -102 -3.5 -207.5 t-8.5 -193.5q-8 -23 -18.5 -45t-27.5 -39.5t-43 -28t-66 -10.5q-59 0 -98 16t-63 45t-36 68.5t-16.5 86.5t-4 99.5t0.5 107.5q0 36 1.5 75t3.5 78.5t5 78t6 73.5q7 82 17 161l54 9v11q-14 -3 -32 -6q-16 -2 -40 -3.5t-57 -1.5q-32 0 -57.5 1.5t-43.5 3.5q-21 3 -38 6l3 -11 l62 -9q7 -55 12 -123q5 -58 9 -136t4 -171q0 -137 -2 -240t13.5 -171.5t58 -103t131.5 -34.5q55 0 97.5 16.5t74.5 40.5t53 50.5t33 47.5q-1 -35 -2 -64t-3 -49q-2 -24 -4 -42q15 5 37.5 9t48.5 6t54 1t54 -7v10zM456 1205q-49 -5 -115 40q-60 40 -85 88q72 -14 92 -7 q12 -33 44.5 -69t63.5 -52z" />
<glyph unicode="&#xda;" horiz-adv-x="834" d="M734 9q-26 6 -54 7t-54 -1t-48.5 -6t-37.5 -9q2 18 4 42q2 20 3 49t2 64q-12 -21 -33 -47.5t-53 -50.5t-74.5 -40.5t-97.5 -16.5q-89 0 -131.5 34.5t-58 103t-13.5 171.5t2 240q0 93 -4 171t-9 136q-5 68 -12 123l-62 9l-3 11q17 -3 38 -6q18 -2 43.5 -3.5t57.5 -1.5 q33 0 57 1.5t40 3.5q18 3 32 6v-11l-54 -9q-10 -79 -17 -161q-3 -35 -6 -73.5t-5 -78t-3.5 -78.5t-1.5 -75q0 -55 -0.5 -107.5t4 -99.5t16.5 -86.5t36 -68.5t63 -45t98 -16q40 0 66 10.5t43 28t27.5 39.5t18.5 45q5 88 8.5 193.5t3.5 207.5q0 106 -5 176t-11 112 q-7 49 -15 77l-75 9v11q17 -3 36 -6q17 -2 39.5 -3.5t48.5 -1.5q35 0 58.5 1.5t37.5 3.5q17 3 26 6v-11l-29 -9q-9 -60 -15 -139q-6 -68 -10.5 -165.5t-4.5 -222.5q0 -75 -0.5 -143.5t1.5 -124.5t8 -96t18 -57l61 -12v-10zM268 1203q31 15 63.5 51.5t44.5 68.5q20 -6 92 8 q-25 -48 -85 -89q-66 -44 -115 -39z" />
<glyph unicode="&#xdb;" horiz-adv-x="834" d="M734 19l-61 12q-12 17 -18 57t-8 96t-1.5 124.5t0.5 143.5q0 125 4.5 222.5t10.5 165.5q6 79 15 139l29 9v11q-9 -3 -26 -6q-14 -2 -37.5 -3.5t-58.5 -1.5q-26 0 -48.5 1.5t-39.5 3.5q-19 3 -36 6v-11l75 -9q8 -28 15 -77q6 -42 11 -112t5 -176q0 -102 -3.5 -207.5 t-8.5 -193.5q-8 -23 -18.5 -45t-27.5 -39.5t-43 -28t-66 -10.5q-59 0 -98 16t-63 45t-36 68.5t-16.5 86.5t-4 99.5t0.5 107.5q0 36 1.5 75t3.5 78.5t5 78t6 73.5q7 82 17 161l54 9v11q-14 -3 -32 -6q-16 -2 -40 -3.5t-57 -1.5q-32 0 -57.5 1.5t-43.5 3.5q-21 3 -38 6l3 -11 l62 -9q7 -55 12 -123q5 -58 9 -136t4 -171q0 -137 -2 -240t13.5 -171.5t58 -103t131.5 -34.5q55 0 97.5 16.5t74.5 40.5t53 50.5t33 47.5q-1 -35 -2 -64t-3 -49q-2 -24 -4 -42q15 5 37.5 9t48.5 6t54 1t54 -7v10zM325 1330q-19 -34 -73 -70q-82 -54 -86 -58l45 79 q15 10 84 55q48 32 68 71q28 -51 80 -79q4 -2 104 -43l-40 -70l-102 42q-53 28 -80 73z" />
<glyph unicode="&#xdc;" horiz-adv-x="834" d="M734 9q-26 6 -54 7t-54 -1t-48.5 -6t-37.5 -9q2 18 4 42q2 20 3 49t2 64q-12 -21 -33 -47.5t-53 -50.5t-74.5 -40.5t-97.5 -16.5q-89 0 -131.5 34.5t-58 103t-13.5 171.5t2 240q0 93 -4 171t-9 136q-5 68 -12 123l-62 9l-3 11q17 -3 38 -6q18 -2 43.5 -3.5t57.5 -1.5 q33 0 57 1.5t40 3.5q18 3 32 6v-11l-54 -9q-10 -79 -17 -161q-3 -35 -6 -73.5t-5 -78t-3.5 -78.5t-1.5 -75q0 -55 -0.5 -107.5t4 -99.5t16.5 -86.5t36 -68.5t63 -45t98 -16q40 0 66 10.5t43 28t27.5 39.5t18.5 45q5 88 8.5 193.5t3.5 207.5q0 106 -5 176t-11 112 q-7 49 -15 77l-75 9v11q17 -3 36 -6q17 -2 39.5 -3.5t48.5 -1.5q35 0 58.5 1.5t37.5 3.5q17 3 26 6v-11l-29 -9q-9 -60 -15 -139q-6 -68 -10.5 -165.5t-4.5 -222.5q0 -75 -0.5 -143.5t1.5 -124.5t8 -96t18 -57l61 -12v-10zM301 1274q-13 -10 -26 -21q-11 -10 -24.5 -23 t-24.5 -27q-11 18 -23 31t-23 22q-12 11 -24 18q13 10 25 21q11 10 23 23t22 28q11 -17 24 -30.5t24 -22.5q13 -11 27 -19zM553 1273q-13 -10 -26 -21q-11 -10 -24.5 -23t-24.5 -27q-11 18 -23 31t-23 22q-12 11 -24 18q13 10 25 21q11 10 23 23t22 28q11 -17 24 -30.5 t24 -22.5q13 -11 27 -19z" />
<glyph unicode="&#xdd;" horiz-adv-x="827" d="M328 488q-15 25 -34.5 60t-41.5 74.5t-45.5 81t-45.5 81.5q-52 93 -109 196l-52 10v9q15 -3 33 -5q16 -2 38 -3t49 -1q32 0 58 1t46 3q23 2 42 5v-9l-62 -10q38 -83 77 -162q16 -34 34.5 -70.5t37.5 -72.5t38 -70.5t37 -62.5q15 31 29 67t26.5 72.5t24 73t21.5 69.5 q23 77 42 156l-68 10v9q19 -3 37 -5q16 -2 34 -3t33 -1q32 0 54 1t37 3q17 2 29 5v-9l-39 -10q-33 -63 -71 -137q-32 -63 -74 -147.5t-89 -179.5q-8 -131 -6 -225.5t7 -156.5q5 -72 15 -121l65 -10v-6q-20 1 -43 3q-20 1 -46.5 2t-56.5 1q-27 0 -51.5 -1t-43.5 -2 q-22 -2 -41 -3v9l72 7q7 80 11 162q3 70 2.5 153t-10.5 159zM289 1206q31 15 63.5 51.5t44.5 68.5q20 -6 92 8q-25 -48 -85 -89q-66 -44 -115 -39z" />
<glyph unicode="&#xde;" horiz-adv-x="671" d="M80 750q-4 49 -8 91.5t-8 73.5q-4 36 -9 66l-55 9v10q16 -3 36 -5q17 -2 40.5 -3.5t52.5 -1.5q32 0 55.5 1.5t39.5 3.5q18 2 31 5v-10l-51 -9q-2 -23 -5 -52q-2 -25 -4.5 -58.5t-4.5 -75.5q33 2 67 2h69q40 0 83 -12.5t79 -43t59.5 -80.5t23.5 -125q0 -89 -28.5 -146 t-69.5 -92t-86.5 -51t-79.5 -22q20 7 42.5 25t41.5 53t31.5 91.5t12.5 141.5q0 54 -14 99t-36.5 76.5t-52 49t-60.5 17.5q-20 0 -32.5 -4.5t-20.5 -15.5q-6 -32 -7.5 -75.5t-2.5 -99t-1.5 -124.5t-3.5 -153q-2 -53 -1.5 -94t3 -71t5.5 -51t7 -34q9 -32 21 -36l74 -14v-6 q-19 1 -41 3q-19 1 -45 2t-56 1q-37 0 -64 -1t-46 -2q-22 -2 -38 -3v6q7 1 16 4q8 2 17.5 4.5t20.5 5.5q10 1 14 13.5t5.5 47t1 95.5t-0.5 159q0 63 -5 125.5t-5 131.5zM252 220q6 0 15 1q8 1 17.5 1.5t22.5 2.5q-12 -4 -21.5 -5t-17.5 -1q-9 0 -16 1z" />
<glyph unicode="&#xdf;" horiz-adv-x="753" d="M426 1000q10 0 23.5 -6t26.5 -15t25 -20t21 -22q1 -2 3 -2q0 -1 -1 -1q14 -18 22 -41.5t8 -56.5q0 -37 -9.5 -69.5t-27.5 -52.5l-30 -34t-32 -28q-21 -15 -33 -39.5t-12 -49.5q0 -33 9.5 -58t24.5 -42t35 -25.5t41 -8.5q36 0 61.5 -11.5t41 -30t23 -42t7.5 -46.5 q0 -76 -25.5 -133t-62 -94.5t-76.5 -56t-68 -18.5q-21 0 -41 5.5t-36.5 14t-29 18.5t-19.5 20q9 24 16 68.5t10 103.5q11 -36 29.5 -65t41.5 -50t49.5 -32t53.5 -11q9 0 21.5 4t23 14t18 27.5t7.5 44.5q0 25 -8 53.5t-23 51.5t-36 38.5t-46 15.5q-16 0 -39.5 6t-45 24 t-37 51t-15.5 88q0 37 9.5 69t27.5 53q15 17 28.5 31.5t33.5 29.5q20 16 32.5 40t12.5 49q0 39 -12.5 64.5t-32.5 42.5q-14 10 -33.5 17t-47.5 7q-43 0 -72 -14t-47.5 -36.5t-27.5 -51t-13 -56.5q-3 -23 -7.5 -78t-6.5 -127q-2 -95 2 -186t9 -163q6 -84 14 -160l48 -10v-9 q-15 2 -33 4q-16 2 -38.5 3.5t-51.5 1.5t-50 -1.5t-34 -3.5q-16 -2 -25 -4v10l38 6q10 64 18 148q7 71 11.5 170.5t2.5 222.5q-1 51 -3 99t-4 93q12 0 23.5 7t26 22t33.5 39t46 58q53 67 110.5 96.5t123.5 29.5z" />
<glyph unicode="&#xe0;" horiz-adv-x="655" d="M441 320q-9 17 -21.5 47t-30 59.5t-39 51t-46.5 21.5q-13 0 -31.5 -6t-40 -16t-44.5 -22t-45 -25q-52 -31 -108 -69q26 14 52 25q21 10 43.5 18t36.5 8q33 0 60.5 -17.5t58.5 -56.5q-42 -26 -92 -56t-93 -61.5t-72 -63.5t-29 -60q0 -23 12.5 -41t32.5 -30.5t44.5 -19 t47.5 -6.5q32 0 67.5 16t68.5 39t62 48.5t48 44.5q22 -47 35 -86.5t18 -61.5q24 26 56.5 50t62.5 41q-11 2 -27 31t-32.5 67t-31.5 75t-23 56zM245 97q-27 0 -51 6t-41.5 15.5t-28 22t-10.5 26.5q0 25 20.5 48t49.5 42.5t60.5 34t53.5 22.5q9 -11 17.5 -27.5t16.5 -34.5 q8 -14 17 -29.5t17 -28.5q0 -21 -10 -39t-26.5 -31t-38.5 -20t-46 -7zM297 705q-49 -5 -115 40q-60 40 -85 88q72 -14 92 -7q12 -33 44.5 -69t63.5 -52z" />
<glyph unicode="&#xe1;" horiz-adv-x="655" d="M441 320q8 -19 23 -56t31.5 -75t32.5 -67t27 -31q-30 -17 -62.5 -41t-56.5 -50q-5 22 -18 61.5t-35 86.5q-19 -19 -48 -44.5t-62 -48.5t-68.5 -39t-67.5 -16q-23 0 -47.5 6.5t-44.5 19t-32.5 30.5t-12.5 41q0 28 29 60t72 63.5t93 61.5t92 56q-31 39 -58.5 56.5 t-60.5 17.5q-14 0 -36.5 -8t-43.5 -18q-26 -11 -52 -25q56 38 108 69q22 13 45 25t44.5 22t40 16t31.5 6q25 0 46.5 -21.5t39 -51t30 -59.5t21.5 -47zM245 97q24 0 46 7t38.5 20t26.5 31t10 39q-8 13 -17 28.5t-17 29.5q-8 18 -16.5 34.5t-17.5 27.5q-22 -8 -53.5 -22.5 t-60.5 -34t-49.5 -42.5t-20.5 -48q0 -14 10.5 -26.5t28 -22t41.5 -15.5t51 -6zM123 704q31 15 63.5 51.5t44.5 68.5q20 -6 92 8q-25 -48 -85 -89q-66 -44 -115 -39z" />
<glyph unicode="&#xe2;" horiz-adv-x="655" d="M441 320q-9 17 -21.5 47t-30 59.5t-39 51t-46.5 21.5q-13 0 -31.5 -6t-40 -16t-44.5 -22t-45 -25q-52 -31 -108 -69q26 14 52 25q21 10 43.5 18t36.5 8q33 0 60.5 -17.5t58.5 -56.5q-42 -26 -92 -56t-93 -61.5t-72 -63.5t-29 -60q0 -23 12.5 -41t32.5 -30.5t44.5 -19 t47.5 -6.5q32 0 67.5 16t68.5 39t62 48.5t48 44.5q22 -47 35 -86.5t18 -61.5q24 26 56.5 50t62.5 41q-11 2 -27 31t-32.5 67t-31.5 75t-23 56zM245 97q-27 0 -51 6t-41.5 15.5t-28 22t-10.5 26.5q0 25 20.5 48t49.5 42.5t60.5 34t53.5 22.5q9 -11 17.5 -27.5t16.5 -34.5 q8 -14 17 -29.5t17 -28.5q0 -21 -10 -39t-26.5 -31t-38.5 -20t-46 -7zM195 828q-19 -34 -73 -70q-82 -54 -86 -58l45 79q15 10 84 55q48 32 68 71q28 -51 80 -79q4 -2 104 -43l-40 -70l-102 42q-53 28 -80 73z" />
<glyph unicode="&#xe3;" horiz-adv-x="655" d="M441 320q-9 17 -21.5 47t-30 59.5t-39 51t-46.5 21.5q-13 0 -31.5 -6t-40 -16t-44.5 -22t-45 -25q-52 -31 -108 -69q26 14 52 25q21 10 43.5 18t36.5 8q33 0 60.5 -17.5t58.5 -56.5q-42 -26 -92 -56t-93 -61.5t-72 -63.5t-29 -60q0 -23 12.5 -41t32.5 -30.5t44.5 -19 t47.5 -6.5q32 0 67.5 16t68.5 39t62 48.5t48 44.5q22 -47 35 -86.5t18 -61.5q24 26 56.5 50t62.5 41q-11 2 -27 31t-32.5 67t-31.5 75t-23 56zM245 97q-27 0 -51 6t-41.5 15.5t-28 22t-10.5 26.5q0 25 20.5 48t49.5 42.5t60.5 34t53.5 22.5q9 -11 17.5 -27.5t16.5 -34.5 q8 -14 17 -29.5t17 -28.5q0 -21 -10 -39t-26.5 -31t-38.5 -20t-46 -7zM409 813l-43 -75q-70 -32 -109 -32q-40 0 -81 24q-17 10 -44 10q-69 0 -113 -39l46 80q35 30 102 30q29 0 45 -9q42 -24 81 -24q40 0 116 35z" />
<glyph unicode="&#xe4;" horiz-adv-x="655" d="M441 320q8 -19 23 -56t31.5 -75t32.5 -67t27 -31q-30 -17 -62.5 -41t-56.5 -50q-5 22 -18 61.5t-35 86.5q-19 -19 -48 -44.5t-62 -48.5t-68.5 -39t-67.5 -16q-23 0 -47.5 6.5t-44.5 19t-32.5 30.5t-12.5 41q0 28 29 60t72 63.5t93 61.5t92 56q-31 39 -58.5 56.5 t-60.5 17.5q-14 0 -36.5 -8t-43.5 -18q-26 -11 -52 -25q56 38 108 69q22 13 45 25t44.5 22t40 16t31.5 6q25 0 46.5 -21.5t39 -51t30 -59.5t21.5 -47zM245 97q24 0 46 7t38.5 20t26.5 31t10 39q-8 13 -17 28.5t-17 29.5q-8 18 -16.5 34.5t-17.5 27.5q-22 -8 -53.5 -22.5 t-60.5 -34t-49.5 -42.5t-20.5 -48q0 -14 10.5 -26.5t28 -22t41.5 -15.5t51 -6zM196 775q-13 -10 -26 -21q-11 -10 -24.5 -23t-24.5 -27q-11 18 -23 31t-23 22q-12 11 -24 18q13 10 25 21q11 10 23 23t22 28q11 -17 24 -30.5t24 -22.5q13 -11 27 -19zM448 774 q-13 -10 -26 -21q-11 -10 -24.5 -23t-24.5 -27q-11 18 -23 31t-23 22q-12 11 -24 18q13 10 25 21q11 10 23 23t22 28q11 -17 24 -30.5t24 -22.5q13 -11 27 -19z" />
<glyph unicode="&#xe5;" horiz-adv-x="655" d="M165 931q0 -23 9 -50t29 -50.5t52.5 -39.5t79.5 -16q25 0 39 6.5t21 16.5t9 21.5t2 21.5q0 32 -12.5 63.5t-34.5 56t-51.5 39.5t-63.5 15q-23 0 -38 -9t-24 -21.5t-13 -27t-4 -26.5zM330 1074q23 0 49 -9.5t47.5 -29.5t36 -50t14.5 -71q0 -34 -23 -72t-56.5 -69.5 t-72 -52.5t-68.5 -21t-58.5 12.5t-50.5 34.5t-35 50t-13 60q0 43 23 82.5t57.5 69.5t75 48t74.5 18zM441 320q8 -19 23 -56t31.5 -75t32.5 -67t27 -31q-30 -17 -62.5 -41t-56.5 -50q-5 22 -18 61.5t-35 86.5q-19 -19 -48 -44.5t-62 -48.5t-68.5 -39t-67.5 -16 q-23 0 -47.5 6.5t-44.5 19t-32.5 30.5t-12.5 41q0 28 29 60t72 63.5t93 61.5t92 56q-31 39 -58.5 56.5t-60.5 17.5q-14 0 -36.5 -8t-43.5 -18q-26 -11 -52 -25q56 38 108 69q22 13 45 25t44.5 22t40 16t31.5 6q25 0 46.5 -21.5t39 -51t30 -59.5t21.5 -47zM245 97q24 0 46 7 t38.5 20t26.5 31t10 39q-8 13 -17 28.5t-17 29.5q-8 18 -16.5 34.5t-17.5 27.5q-22 -8 -53.5 -22.5t-60.5 -34t-49.5 -42.5t-20.5 -48q0 -14 10.5 -26.5t28 -22t41.5 -15.5t51 -6z" />
<glyph unicode="&#xe6;" horiz-adv-x="1006" d="M441 320q8 -19 23 -56t31.5 -75t32.5 -67t27 -31q-30 -17 -62.5 -41t-56.5 -50q-5 22 -18 61.5t-35 86.5q-19 -19 -48 -44.5t-62 -48.5t-68.5 -39t-67.5 -16q-23 0 -47.5 6.5t-44.5 19t-32.5 30.5t-12.5 41q0 28 29 60t72 63.5t93 61.5t92 56q-31 39 -58.5 56.5 t-60.5 17.5q-14 0 -36.5 -8t-43.5 -18q-26 -11 -52 -25q56 38 108 69q22 13 45 25t44.5 22t40 16t31.5 6q25 0 46.5 -21.5t39 -51t30 -59.5t21.5 -47zM245 97q24 0 46 7t38.5 20t26.5 31t10 39q-8 13 -17 28.5t-17 29.5q-8 18 -16.5 34.5t-17.5 27.5q-22 -8 -53.5 -22.5 t-60.5 -34t-49.5 -42.5t-20.5 -48q0 -14 10.5 -26.5t28 -22t41.5 -15.5t51 -6zM766 108q29 0 54.5 7.5t44.5 17.5q22 11 41 25q-27 -45 -65 -80q-32 -30 -80.5 -54.5t-112.5 -24.5q-46 0 -88 16t-74.5 46t-51.5 73.5t-19 97.5q0 49 15.5 86.5t40.5 65.5t56 46.5t61 30.5 q96 39 131 39q37 0 64.5 -12.5t47.5 -27.5q22 -18 39 -40l-330 -133q7 -42 20 -75t38 -56t65 -35.5t103 -12.5zM604 442q-14 0 -27 -7.5t-23.5 -19.5t-16 -27t-4.5 -30q0 -16 0.5 -31t3.5 -30l168 77q-10 19 -25 34q-13 13 -32 23.5t-44 10.5z" />
<glyph unicode="&#xe7;" horiz-adv-x="587" d="M272 500q12 -14 33 -28t44 -25.5t45.5 -19t39.5 -7.5q-15 -10 -33.5 -20.5t-35 -20t-29 -16.5t-17.5 -11q-14 -2 -36 3t-45.5 14t-44.5 19t-32 18q-9 -6 -18.5 -17t-17.5 -26t-13 -33t-5 -38q0 -45 22.5 -79t55 -56.5t69 -34t65.5 -11.5q39 0 70 7.5t53 17.5q26 11 45 25 q-21 -19 -48.5 -46.5t-60 -53t-71 -43.5t-82.5 -18q-50 0 -91.5 18.5t-71 49t-46 69.5t-16.5 81q0 38 16.5 70t42 59t57 49.5t62 41.5t55.5 34t39 28zM431 -124q-8 -15 -17 -27q-39 -48 -74 -35q-16 6 -53.5 43t-33.5 48q3 7 11 4q5 -3 9 -6.5t16 -7.5q12 -5 33.5 19 t33.5 55q8 23 7 88z" />
<glyph unicode="&#xe8;" horiz-adv-x="591" d="M351 108q-63 0 -103 12.5t-65 35.5t-38 56t-20 75l330 133q-17 22 -39 40q-20 15 -47.5 27.5t-64.5 12.5q-35 0 -131 -39q-30 -12 -61 -30.5t-56 -46.5t-40.5 -65.5t-15.5 -86.5q0 -54 19 -97.5t51.5 -73.5t74.5 -46t88 -16q64 0 112.5 24.5t80.5 54.5q38 35 65 80 q-19 -14 -41 -25q-19 -10 -44.5 -17.5t-54.5 -7.5zM189 442q25 0 44 -10.5t32 -23.5q15 -15 25 -34l-168 -77q-3 15 -3.5 30t-0.5 31q-1 15 4.5 30t16 27t23.5 19.5t27 7.5zM304 704q-49 -5 -115 40q-60 40 -85 88q72 -14 92 -7q12 -33 44.5 -69t63.5 -52z" />
<glyph unicode="&#xe9;" horiz-adv-x="591" d="M351 108q29 0 54.5 7.5t44.5 17.5q22 11 41 25q-27 -45 -65 -80q-32 -30 -80.5 -54.5t-112.5 -24.5q-46 0 -88 16t-74.5 46t-51.5 73.5t-19 97.5q0 49 15.5 86.5t40.5 65.5t56 46.5t61 30.5q96 39 131 39q37 0 64.5 -12.5t47.5 -27.5q22 -18 39 -40l-330 -133 q7 -42 20 -75t38 -56t65 -35.5t103 -12.5zM189 442q-14 0 -27 -7.5t-23.5 -19.5t-16 -27t-4.5 -30q0 -16 0.5 -31t3.5 -30l168 77q-10 19 -25 34q-13 13 -32 23.5t-44 10.5zM124 706q31 15 63.5 51.5t44.5 68.5q20 -6 92 8q-25 -48 -85 -89q-66 -44 -115 -39z" />
<glyph unicode="&#xea;" horiz-adv-x="591" d="M351 108q-63 0 -103 12.5t-65 35.5t-38 56t-20 75l330 133q-17 22 -39 40q-20 15 -47.5 27.5t-64.5 12.5q-35 0 -131 -39q-30 -12 -61 -30.5t-56 -46.5t-40.5 -65.5t-15.5 -86.5q0 -54 19 -97.5t51.5 -73.5t74.5 -46t88 -16q64 0 112.5 24.5t80.5 54.5q38 35 65 80 q-19 -14 -41 -25q-19 -10 -44.5 -17.5t-54.5 -7.5zM189 442q25 0 44 -10.5t32 -23.5q15 -15 25 -34l-168 -77q-3 15 -3.5 30t-0.5 31q-1 15 4.5 30t16 27t23.5 19.5t27 7.5zM203 827q-19 -34 -73 -70q-82 -54 -86 -58l45 79q15 10 84 55q48 32 68 71q28 -51 80 -79 q4 -2 104 -43l-40 -70l-102 42q-53 28 -80 73z" />
<glyph unicode="&#xeb;" horiz-adv-x="591" d="M351 108q29 0 54.5 7.5t44.5 17.5q22 11 41 25q-27 -45 -65 -80q-32 -30 -80.5 -54.5t-112.5 -24.5q-46 0 -88 16t-74.5 46t-51.5 73.5t-19 97.5q0 49 15.5 86.5t40.5 65.5t56 46.5t61 30.5q96 39 131 39q37 0 64.5 -12.5t47.5 -27.5q22 -18 39 -40l-330 -133 q7 -42 20 -75t38 -56t65 -35.5t103 -12.5zM189 442q-14 0 -27 -7.5t-23.5 -19.5t-16 -27t-4.5 -30q0 -16 0.5 -31t3.5 -30l168 77q-10 19 -25 34q-13 13 -32 23.5t-44 10.5zM177 772q-13 -10 -26 -21q-11 -10 -24.5 -23t-24.5 -27q-11 18 -23 31t-23 22q-12 11 -24 18 q13 10 25 21q11 10 23 23t22 28q11 -17 24 -30.5t24 -22.5q13 -11 27 -19zM429 771q-13 -10 -26 -21q-11 -10 -24.5 -23t-24.5 -27q-11 18 -23 31t-23 22q-12 11 -24 18q13 10 25 21q11 10 23 23t22 28q11 -17 24 -30.5t24 -22.5q13 -11 27 -19z" />
<glyph unicode="&#xec;" horiz-adv-x="366" d="M166 626q-14 8 -27 19q-11 9 -24 22.5t-24 30.5q-10 -15 -22 -28t-23 -23q-12 -11 -25 -21q12 -7 24 -18q11 -9 23 -22t23 -31q11 14 24.5 27t24.5 23q13 11 26 21zM5 420q30 1 43.5 -25.5t17.5 -73t2 -108t-3 -129.5q1 -23 8.5 -37.5t17.5 -24t21 -14.5t20 -9 q30 26 60.5 51t73.5 53q-43 4 -64.5 27.5t-30 58.5t-7.5 78t4.5 85.5t4.5 81t-7 65.5q-18 -16 -36.5 -26.5t-38 -19t-41 -16t-45.5 -17.5zM187 805q-49 -5 -115 40q-60 40 -85 88q72 -14 92 -7q12 -33 44.5 -69t63.5 -52z" />
<glyph unicode="&#xed;" horiz-adv-x="362" d="M162 626q-13 -10 -26 -21q-11 -10 -24.5 -23t-24.5 -27q-11 18 -23 31t-23 22q-12 11 -24 18q13 10 25 21q11 10 23 23t22 28q11 -17 24 -30.5t24 -22.5q13 -11 27 -19zM1 420q24 10 45.5 17.5t41 16t38 19t36.5 26.5q8 -27 7 -65.5t-4.5 -81t-4.5 -85.5t7.5 -78 t30 -58.5t64.5 -27.5q-43 -28 -73.5 -53t-60.5 -51q-9 4 -20 9t-21 14.5t-17.5 24t-8.5 37.5q1 68 3 129.5t-2 108t-17.5 73t-43.5 25.5zM0 806q31 15 63.5 51.5t44.5 68.5q20 -6 92 8q-25 -48 -85 -89q-66 -44 -115 -39z" />
<glyph unicode="&#xee;" horiz-adv-x="378" d="M165 626q-14 8 -27 19q-11 9 -24 22.5t-24 30.5q-10 -15 -22 -28t-23 -23q-12 -11 -25 -21q12 -7 24 -18q11 -9 23 -22t23 -31q11 14 24.5 27t24.5 23q13 11 26 21zM4 420q30 1 43.5 -25.5t17.5 -73t2 -108t-3 -129.5q1 -23 8.5 -37.5t17.5 -24t21 -14.5t20 -9 q30 26 60.5 51t73.5 53q-43 4 -64.5 27.5t-30 58.5t-7.5 78t4.5 85.5t4.5 81t-7 65.5q-18 -16 -36.5 -26.5t-38 -19t-41 -16t-45.5 -17.5zM56 880q-19 -34 -73 -70q-82 -54 -86 -58l45 79q15 10 84 55q48 32 68 71q28 -51 80 -79q4 -2 104 -43l-40 -70l-102 42 q-53 28 -80 73z" />
<glyph unicode="&#xef;" horiz-adv-x="372" d="M167 626q-13 -10 -26 -21q-11 -10 -24.5 -23t-24.5 -27q-11 18 -23 31t-23 22q-12 11 -24 18q13 10 25 21q11 10 23 23t22 28q11 -17 24 -30.5t24 -22.5q13 -11 27 -19zM6 420q24 10 45.5 17.5t41 16t38 19t36.5 26.5q8 -27 7 -65.5t-4.5 -81t-4.5 -85.5t7.5 -78 t30 -58.5t64.5 -27.5q-43 -28 -73.5 -53t-60.5 -51q-9 4 -20 9t-21 14.5t-17.5 24t-8.5 37.5q1 68 3 129.5t-2 108t-17.5 73t-43.5 25.5zM40 849q-13 -10 -26 -21q-11 -10 -24.5 -23t-24.5 -27q-11 18 -23 31t-23 22q-12 11 -24 18q13 10 25 21q11 10 23 23t22 28 q11 -17 24 -30.5t24 -22.5q13 -11 27 -19zM292 848q-13 -10 -26 -21q-11 -10 -24.5 -23t-24.5 -27q-11 18 -23 31t-23 22q-12 11 -24 18q13 10 25 21q11 10 23 23t22 28q11 -17 24 -30.5t24 -22.5q13 -11 27 -19z" />
<glyph unicode="&#xf0;" horiz-adv-x="587" d="M253 697q-86 -62 -143 -90q38 -28 71.5 -49t56.5 -32q20 -10 46 -20.5t53.5 -24t54.5 -31t48 -41.5t34 -55t13 -72q0 -33 -10 -61t-27 -52t-38.5 -44.5t-45.5 -39.5q-48 -38 -92 -62t-91 -24q-39 0 -72 16t-56 41.5t-36 57t-13 62.5q0 44 10 73.5t26.5 49.5t37.5 34 t43 27q20 16 40.5 28t44.5 20q-36 18 -70 36.5t-60 38.5q-22 15 -54 37t-66 48h-12q-31 -1 -76 -19q-111 -43 -169 -108l45 104q43 46 141 87q-30 31 -49 64t-19 66q0 36 28.5 71.5t73 67t98.5 56.5t104 40q-38 -12 -73 -31t-62 -41.5t-43.5 -47t-16.5 -47.5q0 -38 32 -81.5 t78 -83.5q43 8 81 23q65 25 176 106zM375 221q0 31 -12.5 56.5t-33.5 47t-49 39.5t-59 34q-18 -3 -37.5 -13.5t-35 -27.5t-26 -39.5t-10.5 -49.5q0 -32 12 -62.5t35 -54.5t56.5 -38.5t77.5 -14.5q34 0 51.5 8.5t24 24.5t6.5 39v51z" />
<glyph unicode="&#xf1;" horiz-adv-x="679" d="M376 501q-43 0 -90 -20t-95 -55q0 24 -1 38.5t-4.5 23t-10 11t-17.5 2.5q-16 0 -41 -13t-49 -28q-28 -18 -60 -41q5 2 11 3q13 2 30 -1q13 -6 20.5 -34.5t10.5 -69t3.5 -88.5t-1.5 -92.5t-5 -81.5t-6 -55q27 17 62.5 32t69.5 15q-11 67 -14 126t-2.5 105t2.5 77t2 42 q15 14 32 19t43 5q43 0 82.5 -19t70 -51.5t48.5 -75.5t18 -91q0 -54 -6.5 -94.5t-23 -68t-45.5 -41.5t-74 -14q-43 0 -68 3.5t-45 8t-42 8.5t-59 4q-49 0 -94.5 -18t-80.5 -46t-56 -63t-21 -69q0 -20 8.5 -34.5t22.5 -25.5t32 -18.5t37 -12.5q44 -11 101 -13q-54 3 -95 15 q-18 5 -35 12.5t-30.5 18.5t-21.5 25t-8 33q0 36 15.5 63t37 45t45.5 26.5t42 8.5q43 0 67.5 -3.5t45 -7.5t43 -7.5t61.5 -3.5q77 0 139.5 31.5t107 83.5t68.5 119.5t24 138.5q0 41 -14.5 79.5t-41 68t-63.5 47.5t-82 18zM491 812l-43 -75q-70 -32 -109 -32q-40 0 -81 24 q-17 10 -44 10q-69 0 -113 -39l46 80q35 30 102 30q29 0 45 -9q42 -24 81 -24q40 0 116 35z" />
<glyph unicode="&#xf2;" d="M87 310q0 15 5 34.5t17.5 37t32.5 29t50 11.5q46 0 85.5 -20t68.5 -53t45.5 -75t16.5 -85q0 -13 -2.5 -28t-11.5 -28.5t-28 -22.5t-52 -9q-63 0 -106.5 21.5t-70.5 53t-38.5 68t-11.5 66.5zM307 500q-46 0 -99.5 -24t-99.5 -64.5t-77 -93t-31 -109.5q0 -42 17.5 -79.5 t46.5 -66.5t66.5 -46t78.5 -17q27 0 59.5 13t65 34.5t63 50t54 60.5t38 65t14.5 64q0 54 -19 94.5t-48.5 66.5t-64 39t-64.5 13zM339 704q-49 -5 -115 40q-60 40 -85 88q72 -14 92 -7q12 -33 44.5 -69t63.5 -52z" />
<glyph unicode="&#xf3;" d="M87 310q0 -30 11.5 -66.5t38.5 -68t70.5 -53t106.5 -21.5q33 0 52 9t28 22.5t11.5 28.5t2.5 28q0 43 -16.5 85t-45.5 75t-68.5 53t-85.5 20q-30 0 -50 -11.5t-32.5 -29t-17.5 -37t-5 -34.5zM307 500q30 0 64.5 -13t64 -39t48.5 -66.5t19 -94.5q0 -31 -14.5 -64t-38 -65 t-54 -60.5t-63 -50t-65 -34.5t-59.5 -13q-41 0 -78.5 17t-66.5 46t-46.5 66.5t-17.5 79.5q0 57 31 109.5t77 93t99.5 64.5t99.5 24zM142 706q31 15 63.5 51.5t44.5 68.5q20 -6 92 8q-25 -48 -85 -89q-66 -44 -115 -39z" />
<glyph unicode="&#xf4;" d="M87 310q0 15 5 34.5t17.5 37t32.5 29t50 11.5q46 0 85.5 -20t68.5 -53t45.5 -75t16.5 -85q0 -13 -2.5 -28t-11.5 -28.5t-28 -22.5t-52 -9q-63 0 -106.5 21.5t-70.5 53t-38.5 68t-11.5 66.5zM307 500q-46 0 -99.5 -24t-99.5 -64.5t-77 -93t-31 -109.5q0 -42 17.5 -79.5 t46.5 -66.5t66.5 -46t78.5 -17q27 0 59.5 13t65 34.5t63 50t54 60.5t38 65t14.5 64q0 54 -19 94.5t-48.5 66.5t-64 39t-64.5 13zM203 828q-19 -34 -73 -70q-82 -54 -86 -58l45 79q15 10 84 55q48 32 68 71q28 -51 80 -79q4 -2 104 -43l-40 -70l-102 42q-53 28 -80 73z" />
<glyph unicode="&#xf5;" d="M87 310q0 15 5 34.5t17.5 37t32.5 29t50 11.5q46 0 85.5 -20t68.5 -53t45.5 -75t16.5 -85q0 -13 -2.5 -28t-11.5 -28.5t-28 -22.5t-52 -9q-63 0 -106.5 21.5t-70.5 53t-38.5 68t-11.5 66.5zM307 500q-46 0 -99.5 -24t-99.5 -64.5t-77 -93t-31 -109.5q0 -42 17.5 -79.5 t46.5 -66.5t66.5 -46t78.5 -17q27 0 59.5 13t65 34.5t63 50t54 60.5t38 65t14.5 64q0 54 -19 94.5t-48.5 66.5t-64 39t-64.5 13zM438 812l-43 -75q-70 -32 -109 -32q-40 0 -81 24q-17 10 -44 10q-69 0 -113 -39l46 80q35 30 102 30q29 0 45 -9q42 -24 81 -24q40 0 116 35z " />
<glyph unicode="&#xf6;" d="M87 310q0 -30 11.5 -66.5t38.5 -68t70.5 -53t106.5 -21.5q33 0 52 9t28 22.5t11.5 28.5t2.5 28q0 43 -16.5 85t-45.5 75t-68.5 53t-85.5 20q-30 0 -50 -11.5t-32.5 -29t-17.5 -37t-5 -34.5zM307 500q30 0 64.5 -13t64 -39t48.5 -66.5t19 -94.5q0 -31 -14.5 -64t-38 -65 t-54 -60.5t-63 -50t-65 -34.5t-59.5 -13q-41 0 -78.5 17t-66.5 46t-46.5 66.5t-17.5 79.5q0 57 31 109.5t77 93t99.5 64.5t99.5 24zM194 773q-13 -10 -26 -21q-11 -10 -24.5 -23t-24.5 -27q-11 18 -23 31t-23 22q-12 11 -24 18q13 10 25 21q11 10 23 23t22 28 q11 -17 24 -30.5t24 -22.5q13 -11 27 -19zM446 772q-13 -10 -26 -21q-11 -10 -24.5 -23t-24.5 -27q-11 18 -23 31t-23 22q-12 11 -24 18q13 10 25 21q11 10 23 23t22 28q11 -17 24 -30.5t24 -22.5q13 -11 27 -19z" />
<glyph unicode="&#xf7;" horiz-adv-x="832" d="M443 461q0 -4 -5 -8q-29 -20 -45 -30q-31 -18 -49 -19q-24 -1 -37 41t-17 42q-5 0 -9 -1.5t-7 -2.5q-9 0 -9 8q0 9 61 37q9 4 26 11q3 1 11 2q21 0 31.5 -36.5t22.5 -38.5q4 0 8 1l8 2q9 0 10 -8zM443 121q0 -4 -5 -8q-29 -20 -45 -30q-31 -18 -49 -19q-24 -1 -37 41 t-17 42q-5 0 -9 -1.5t-7 -2.5q-9 0 -9 8q0 9 61 37q9 4 26 11q3 1 11 2q21 0 31.5 -36.5t22.5 -38.5q4 0 8 1l8 2q9 0 10 -8zM707 351l-75 -75q-123 -32 -191 -32q-70 0 -142 24q-29 10 -77 10q-120 0 -197 -39l80 80q61 30 179 30q50 0 78 -9q74 -24 142 -24q70 0 203 35z " />
<glyph unicode="&#xf8;" d="M405 556q-19 -33 -39 -67q25 -9 50 -26t44 -42t31 -58.5t12 -75.5q0 -31 -14.5 -64t-38 -65t-54 -60.5t-63 -50t-65 -34.5t-59.5 -13q-46 0 -90 22q-19 -38 -39 -83l-50 18q24 42 51 90q-36 29 -58.5 71.5t-22.5 90.5q0 57 31 109.5t77 93t99.5 64.5t99.5 24h1 q17 38 36 82zM408 189q0 57 -27.5 109.5t-74.5 85.5q-34 -62 -71 -129q-23 -42 -60 -115q26 -18 60 -28.5t79 -10.5q33 0 52 9t28 22.5t11.5 28.5t2.5 28zM87 310q0 -32 13.5 -72t44.5 -72q36 68 77 147q17 33 44 93q-37 16 -74 16q-30 0 -50 -11.5t-32.5 -29t-17.5 -37 t-5 -34.5z" />
<glyph unicode="&#xf9;" horiz-adv-x="699" d="M515 130q-6 10 -9 38t-4.5 65t-1 79.5t1 80.5t1.5 67t1 41q-21 -18 -51.5 -33t-58.5 -26q-33 -13 -68 -23q9 0 19 -1q8 -1 16.5 -2t14.5 -4q11 -5 15.5 -19.5t6 -37.5t0.5 -54t-1 -69q0 -23 -0.5 -44t-3.5 -44q-17 -15 -43.5 -29t-56.5 -14q-37 0 -60.5 13t-37 34.5 t-19 50t-5.5 60.5q0 40 3 80.5t3 74t-6.5 56t-25.5 27.5q-26 -20 -51.5 -34.5t-46.5 -23.5q-25 -11 -47 -18q5 -1 11 -2q12 -2 24 -7q16 -8 23 -25t9 -43t1 -60t-1 -76q0 -12 0.5 -29t1.5 -34.5t2 -34.5t3 -29q9 -22 23 -37.5t30 -25t31.5 -14t26.5 -4.5q37 0 67 14.5 t55 34.5t46 41.5t40 36.5q0 -53 6.5 -84.5t33.5 -44.5q34 21 77.5 41.5t88.5 46.5q-20 -7 -33.5 -4.5t-22.5 10t-15.5 18t-12.5 20.5zM361 706q-49 -5 -115 40q-60 40 -85 88q72 -14 92 -7q12 -33 44.5 -69t63.5 -52z" />
<glyph unicode="&#xfa;" horiz-adv-x="699" d="M515 130q6 -10 12.5 -20.5t15.5 -18t22.5 -10t33.5 4.5q-45 -26 -88.5 -46.5t-77.5 -41.5q-27 13 -33.5 44.5t-6.5 84.5q-19 -15 -40 -36.5t-46 -41.5t-55 -34.5t-67 -14.5q-11 0 -26.5 4.5t-31.5 14t-30 25t-23 37.5q-2 12 -3 29t-2 34.5t-1.5 34.5t-0.5 29q0 42 1 76 t-1 60t-9 43t-23 25q-12 5 -24 7q-6 1 -11 2q22 7 47 18q21 9 46.5 23.5t51.5 34.5q19 -5 25.5 -27.5t6.5 -56t-3 -74t-3 -80.5q0 -32 5.5 -60.5t19 -50t37 -34.5t60.5 -13q30 0 56.5 14t43.5 29q3 23 3.5 44t0.5 44q0 38 1 69t-0.5 54t-6 37.5t-15.5 19.5q-6 3 -14.5 4 t-16.5 2q-10 1 -19 1q35 10 68 23q28 11 58.5 26t51.5 33q0 -12 -1 -41t-1.5 -67t-1 -80.5t1 -79.5t4.5 -65t9 -38zM173 704q31 15 63.5 51.5t44.5 68.5q20 -6 92 8q-25 -48 -85 -89q-66 -44 -115 -39z" />
<glyph unicode="&#xfb;" horiz-adv-x="699" d="M515 130q-6 10 -9 38t-4.5 65t-1 79.5t1 80.5t1.5 67t1 41q-21 -18 -51.5 -33t-58.5 -26q-33 -13 -68 -23q9 0 19 -1q8 -1 16.5 -2t14.5 -4q11 -5 15.5 -19.5t6 -37.5t0.5 -54t-1 -69q0 -23 -0.5 -44t-3.5 -44q-17 -15 -43.5 -29t-56.5 -14q-37 0 -60.5 13t-37 34.5 t-19 50t-5.5 60.5q0 40 3 80.5t3 74t-6.5 56t-25.5 27.5q-26 -20 -51.5 -34.5t-46.5 -23.5q-25 -11 -47 -18q5 -1 11 -2q12 -2 24 -7q16 -8 23 -25t9 -43t1 -60t-1 -76q0 -12 0.5 -29t1.5 -34.5t2 -34.5t3 -29q9 -22 23 -37.5t30 -25t31.5 -14t26.5 -4.5q37 0 67 14.5 t55 34.5t46 41.5t40 36.5q0 -53 6.5 -84.5t33.5 -44.5q34 21 77.5 41.5t88.5 46.5q-20 -7 -33.5 -4.5t-22.5 10t-15.5 18t-12.5 20.5zM239 830q-19 -34 -73 -70q-82 -54 -86 -58l45 79q15 10 84 55q48 32 68 71q28 -51 80 -79q4 -2 104 -43l-40 -70l-102 42q-53 28 -80 73z " />
<glyph unicode="&#xfc;" horiz-adv-x="699" d="M515 130q6 -10 12.5 -20.5t15.5 -18t22.5 -10t33.5 4.5q-45 -26 -88.5 -46.5t-77.5 -41.5q-27 13 -33.5 44.5t-6.5 84.5q-19 -15 -40 -36.5t-46 -41.5t-55 -34.5t-67 -14.5q-11 0 -26.5 4.5t-31.5 14t-30 25t-23 37.5q-2 12 -3 29t-2 34.5t-1.5 34.5t-0.5 29q0 42 1 76 t-1 60t-9 43t-23 25q-12 5 -24 7q-6 1 -11 2q22 7 47 18q21 9 46.5 23.5t51.5 34.5q19 -5 25.5 -27.5t6.5 -56t-3 -74t-3 -80.5q0 -32 5.5 -60.5t19 -50t37 -34.5t60.5 -13q30 0 56.5 14t43.5 29q3 23 3.5 44t0.5 44q0 38 1 69t-0.5 54t-6 37.5t-15.5 19.5q-6 3 -14.5 4 t-16.5 2q-10 1 -19 1q35 10 68 23q28 11 58.5 26t51.5 33q0 -12 -1 -41t-1.5 -67t-1 -80.5t1 -79.5t4.5 -65t9 -38zM211 774q-13 -10 -26 -21q-11 -10 -24.5 -23t-24.5 -27q-11 18 -23 31t-23 22q-12 11 -24 18q13 10 25 21q11 10 23 23t22 28q11 -17 24 -30.5t24 -22.5 q13 -11 27 -19zM463 773q-13 -10 -26 -21q-11 -10 -24.5 -23t-24.5 -27q-11 18 -23 31t-23 22q-12 11 -24 18q13 10 25 21q11 10 23 23t22 28q11 -17 24 -30.5t24 -22.5q13 -11 27 -19z" />
<glyph unicode="&#xfd;" horiz-adv-x="726" d="M408 438q43 13 83 24q34 10 70.5 20t61.5 16q-19 -82 -58 -163t-91 -157.5t-113.5 -147t-127.5 -132t-132 -112.5t-127 -89q-34 -21 -74.5 -44.5t-81 -49t-78.5 -53.5t-67 -59t-46.5 -66t-17.5 -73q0 -34 20 -65t53.5 -57.5t79 -48t96 -36.5t104.5 -23t105 -8 q100 0 174.5 16.5t128.5 43.5t89 62t57 71q51 84 49 193q3 -112 -47 -199q-21 -38 -56.5 -73.5t-89.5 -63.5t-129 -45t-176 -17q-51 0 -107.5 9t-112 25t-105.5 39t-88.5 51t-61 59.5t-22.5 66.5q0 57 33 103t87 87.5t122 82t138 85.5q45 30 84 60t77 65t77.5 77t85.5 96 q-19 38 -42 83t-47.5 91t-49.5 89.5t-47 77t-40 53.5t-28 20q-7 0 -13 -0.5t-11 -0.5q-6 -1 -12 -1q10 18 29 32.5t40 25t40.5 16.5t29.5 6q22 0 82 -97t153 -278q38 58 65 111t40 94t11.5 67.5t-20.5 32.5q-8 2 -16 3.5t-15 2.5q-8 1 -15 2zM217 711q31 15 63.5 51.5 t44.5 68.5q20 -6 92 8q-25 -48 -85 -89q-66 -44 -115 -39z" />
<glyph unicode="&#xfe;" horiz-adv-x="561" d="M251 499q32 2 69 -11.5t68.5 -40t52 -64.5t20.5 -85q0 -54 -29.5 -103t-79 -89t-113 -68.5t-132.5 -41.5q0 -1 -2 -40.5t-6 -102.5t-8.5 -143.5t-9.5 -164.5q-11 -197 -25 -446q-13 191 -23 363q-4 73 -8 150t-7 149t-5 134t-2 106v200q0 40 -2 106.5t-5 143.5t-7 156.5 t-9 144.5t-10 108t-9 47q-9 8 -21.5 11t-24.5 3q-14 0 -28 -4q28 10 55 23q23 11 48 26t45 33q41 0 58 -47q1 -2 1.5 -26t1 -62.5t0.5 -87t-0.5 -100t-1 -101.5t-1 -91t-0.5 -69.5v-35.5q15 13 34 29t39 32.5t39.5 32t37.5 26.5zM107 12q43 9 86 28.5t77.5 49.5t56 70.5 t21.5 92.5q0 39 -20.5 67t-49 46t-58.5 26.5t-49 8.5q-22 0 -38.5 -14t-25.5 -31q2 -30 2.5 -68t0 -82t-1.5 -93t-1 -101z" />
<glyph unicode="&#xff;" horiz-adv-x="726" d="M408 438q43 13 83 24q34 10 70.5 20t61.5 16q-19 -82 -58 -163t-91 -157.5t-113.5 -147t-127.5 -132t-132 -112.5t-127 -89q-34 -21 -74.5 -44.5t-81 -49t-78.5 -53.5t-67 -59t-46.5 -66t-17.5 -73q0 -34 20 -65t53.5 -57.5t79 -48t96 -36.5t104.5 -23t105 -8 q100 0 174.5 16.5t128.5 43.5t89 62t57 71q51 84 49 193q3 -112 -47 -199q-21 -38 -56.5 -73.5t-89.5 -63.5t-129 -45t-176 -17q-51 0 -107.5 9t-112 25t-105.5 39t-88.5 51t-61 59.5t-22.5 66.5q0 57 33 103t87 87.5t122 82t138 85.5q45 30 84 60t77 65t77.5 77t85.5 96 q-19 38 -42 83t-47.5 91t-49.5 89.5t-47 77t-40 53.5t-28 20q-7 0 -13 -0.5t-11 -0.5q-6 -1 -12 -1q10 18 29 32.5t40 25t40.5 16.5t29.5 6q22 0 82 -97t153 -278q38 58 65 111t40 94t11.5 67.5t-20.5 32.5q-8 2 -16 3.5t-15 2.5q-8 1 -15 2zM254 773q-13 -10 -26 -21 q-11 -10 -24.5 -23t-24.5 -27q-11 18 -23 31t-23 22q-12 11 -24 18q13 10 25 21q11 10 23 23t22 28q11 -17 24 -30.5t24 -22.5q13 -11 27 -19zM506 772q-13 -10 -26 -21q-11 -10 -24.5 -23t-24.5 -27q-11 18 -23 31t-23 22q-12 11 -24 18q13 10 25 21q11 10 23 23t22 28 q11 -17 24 -30.5t24 -22.5q13 -11 27 -19z" />
<glyph unicode="&#x152;" horiz-adv-x="942" d="M0 468q0 129 29.5 228.5t79.5 167t115.5 102t137.5 34.5l93 -6q9 -1 19.5 -2.5t16.5 -2.5h55q63 0 124 2.5t134 7.5q-17 -32 -30 -82t-15 -98q-10 40 -33.5 70t-56.5 49t-72.5 28.5t-80.5 9.5q-6 -62 -7.5 -134t-1.5 -135q0 -73 3 -146q44 1 89 7q38 5 82.5 16t83.5 31 q-5 -33 -6.5 -64t-1.5 -55q0 -28 2 -54l-10 4q1 31 -21 49t-57 27.5t-78 11.5t-83 1q-2 -30 -2.5 -65.5t0 -72t1.5 -73.5t3 -71q4 -80 8 -162q82 -8 149 -4q28 1 56.5 5t52 11.5t40 19t21.5 29.5l3 -6q-12 -31 -22 -59q-9 -24 -17 -48.5t-12 -37.5q-92 0 -173 6t-165 6 q-31 0 -53.5 -2t-37.5 -4q-18 -3 -31 -6v5q-20 -4 -46 -4q-27 0 -59 8t-63.5 28.5t-61 54.5t-52 86t-36 123t-13.5 166zM415 574q0 55 -3 106t-8 95.5t-10.5 81.5t-10.5 64q-20 15 -47 24.5t-62 9.5q-83 0 -121 -99t-38 -289q0 -51 6.5 -107.5t20 -112t34 -106t48.5 -89 t63.5 -61.5t79.5 -23h13t12 1q3 40 6.5 104.5t7.5 136.5t6.5 142t2.5 122zM389 21v2q-2 -1 -4 -1.5t-4 -1.5z" />
<glyph unicode="&#x153;" horiz-adv-x="998" d="M307 500q21 0 45 -6.5t46.5 -19t42.5 -32t35 -45.5q23 22 50 37.5t54 26.5q96 39 131 39q37 0 64.5 -12.5t47.5 -27.5q22 -18 39 -40l-330 -133q7 -42 20 -75t38 -56t65 -35.5t103 -12.5q29 0 54.5 7.5t44.5 17.5q22 11 41 25q-27 -45 -65 -80q-32 -30 -80.5 -54.5 t-112.5 -24.5q-68 0 -125.5 34t-86.5 97q-24 -27 -52 -50.5t-57.5 -41.5t-57.5 -28t-52 -10q-41 0 -78.5 17t-66.5 46t-46.5 66.5t-17.5 79.5q0 57 31 109.5t77 93t99.5 64.5t99.5 24zM87 310q0 -30 11.5 -66.5t38.5 -68t70.5 -53t106.5 -21.5q33 0 52 9t28 22.5t11.5 28.5 t2.5 28q0 43 -16.5 85t-45.5 75t-68.5 53t-85.5 20q-30 0 -50 -11.5t-32.5 -29t-17.5 -37t-5 -34.5zM596 442q-14 0 -27 -7.5t-23.5 -19.5t-16 -27t-4.5 -30q0 -16 0.5 -31t3.5 -30l168 77q-10 19 -25 34q-13 13 -32 23.5t-44 10.5z" />
<glyph unicode="&#x178;" horiz-adv-x="827" d="M328 488q-15 25 -34.5 60t-41.5 74.5t-45.5 81t-45.5 81.5q-52 93 -109 196l-52 10v9q15 -3 33 -5q16 -2 38 -3t49 -1q32 0 58 1t46 3q23 2 42 5v-9l-62 -10q38 -83 77 -162q16 -34 34.5 -70.5t37.5 -72.5t38 -70.5t37 -62.5q15 31 29 67t26.5 72.5t24 73t21.5 69.5 q23 77 42 156l-68 10v9q19 -3 37 -5q16 -2 34 -3t33 -1q32 0 54 1t37 3q17 2 29 5v-9l-39 -10q-33 -63 -71 -137q-32 -63 -74 -147.5t-89 -179.5q-8 -131 -6 -225.5t7 -156.5q5 -72 15 -121l65 -10v-6q-20 1 -43 3q-20 1 -46.5 2t-56.5 1q-27 0 -51.5 -1t-43.5 -2 q-22 -2 -41 -3v9l72 7q7 80 11 162q3 70 2.5 153t-10.5 159zM315 1277q-13 -10 -26 -21q-11 -10 -24.5 -23t-24.5 -27q-11 18 -23 31t-23 22q-12 11 -24 18q13 10 25 21q11 10 23 23t22 28q11 -17 24 -30.5t24 -22.5q13 -11 27 -19zM567 1276q-13 -10 -26 -21 q-11 -10 -24.5 -23t-24.5 -27q-11 18 -23 31t-23 22q-12 11 -24 18q13 10 25 21q11 10 23 23t22 28q11 -17 24 -30.5t24 -22.5q13 -11 27 -19z" />
<glyph unicode="&#x2c6;" horiz-adv-x="481" d="M159 925q-19 -34 -73 -70q-82 -54 -86 -58l45 79q15 10 84 55q48 32 68 71q28 -51 80 -79q4 -2 104 -43l-40 -70l-102 42q-53 28 -80 73z" />
<glyph unicode="&#x2dc;" horiz-adv-x="490" d="M390 1001l-43 -75q-70 -32 -109 -32q-40 0 -81 24q-17 10 -44 10q-69 0 -113 -39l46 80q35 30 102 30q29 0 45 -9q42 -24 81 -24q40 0 116 35z" />
<glyph unicode="&#x2000;" horiz-adv-x="853" />
<glyph unicode="&#x2001;" horiz-adv-x="1706" />
<glyph unicode="&#x2002;" horiz-adv-x="853" />
<glyph unicode="&#x2003;" horiz-adv-x="1706" />
<glyph unicode="&#x2004;" horiz-adv-x="568" />
<glyph unicode="&#x2005;" horiz-adv-x="426" />
<glyph unicode="&#x2006;" horiz-adv-x="284" />
<glyph unicode="&#x2007;" horiz-adv-x="284" />
<glyph unicode="&#x2008;" horiz-adv-x="213" />
<glyph unicode="&#x2009;" horiz-adv-x="341" />
<glyph unicode="&#x200a;" horiz-adv-x="94" />
<glyph unicode="&#x2010;" horiz-adv-x="540" d="M415 351l-43 -75q-70 -32 -109 -32q-40 0 -81 24q-17 10 -44 10q-69 0 -113 -39l46 80q35 30 102 30q29 0 45 -9q42 -24 81 -24q40 0 116 35z" />
<glyph unicode="&#x2011;" horiz-adv-x="540" d="M415 351l-43 -75q-70 -32 -109 -32q-40 0 -81 24q-17 10 -44 10q-69 0 -113 -39l46 80q35 30 102 30q29 0 45 -9q42 -24 81 -24q40 0 116 35z" />
<glyph unicode="&#x2012;" horiz-adv-x="540" d="M415 351l-43 -75q-70 -32 -109 -32q-40 0 -81 24q-17 10 -44 10q-69 0 -113 -39l46 80q35 30 102 30q29 0 45 -9q42 -24 81 -24q40 0 116 35z" />
<glyph unicode="&#x2013;" horiz-adv-x="832" d="M707 351l-75 -75q-123 -32 -191 -32q-70 0 -142 24q-29 10 -77 10q-120 0 -197 -39l80 80q61 30 179 30q50 0 78 -9q74 -24 142 -24q70 0 203 35z" />
<glyph unicode="&#x2014;" horiz-adv-x="1125" d="M1000 350l-107 -75q-175 -32 -273 -32q-100 0 -202 24q-43 10 -110 10q-173 0 -283 -39l115 80q88 30 255 30q73 0 113 -9q105 -24 202 -24q100 0 290 35z" />
<glyph unicode="&#x2018;" horiz-adv-x="250" d="M150 870q-31 -31 -36 -35q-24 -19 -45 -20q-29 -1 -49 31q-16 26 -20 59l127 145q-19 -44 -20 -113q0 -44 43 -67z" />
<glyph unicode="&#x2019;" horiz-adv-x="250" d="M23 760q21 47 20 90q-1 69 -43 90q15 17 36 35q24 21 45 20q30 -1 50 -32q16 -25 19 -58z" />
<glyph unicode="&#x201a;" horiz-adv-x="250" d="M23 -100q21 47 20 90q-1 69 -43 90q15 17 36 35q24 21 45 20q30 -1 50 -32q16 -25 19 -58z" />
<glyph unicode="&#x201c;" horiz-adv-x="392" d="M292 867q0 -6 -45 -31q-37 -21 -63 -23q-27 0 -48 27q-52 -27 -74 -27q-21 0 -43 31q-15 27 -19 59l127 145q-19 -48 -19 -78q-2 -46 7 -66l127 145q-24 -60 -24 -91q0 -23 9 -51q11 -36 29 -36q7 0 16.5 2.5t13.5 2.5q6 0 6 -9z" />
<glyph unicode="&#x201d;" horiz-adv-x="392" d="M165 763q24 59 23 98q0 28 -11 49l-127 -148q24 61 24 92q0 27 -10 53q-14 33 -37 33l-9 -2q-6 -3 -12 -3t-6 8q0 12 48 33.5t64 21.5q25 0 44 -27q54 27 67 27q29 -1 50 -31q16 -27 19 -59z" />
<glyph unicode="&#x201e;" horiz-adv-x="440" d="M23 -100q21 47 20 90q-1 69 -43 90q15 17 36 35q24 21 45 20q30 -1 50 -32q16 -25 19 -58zM213 -100q21 47 20 90q-1 69 -43 90q15 17 36 35q24 21 45 20q30 -1 50 -32q16 -25 19 -58z" />
<glyph unicode="&#x2022;" horiz-adv-x="367" d="M267 386q0 -6 -8 -12q-43 -30 -67 -45q-47 -27 -74 -28q-36 -2 -55.5 61t-25.5 63q-7 0 -13 -2t-11 -4q-13 0 -13 12q0 14 91 56q14 6 39 16q5 2 17 3q31 0 47 -54.5t34 -57.5q6 0 12 1l12 3q13 0 15 -12z" />
<glyph unicode="&#x2026;" horiz-adv-x="818" d="M178 31q0 -4 -5 -8q-29 -20 -45 -30q-31 -18 -49 -19q-24 -1 -37 41t-17 42q-5 0 -9 -1.5t-7 -2.5q-9 0 -9 8q0 9 61 37q9 4 26 11q3 1 11 2q21 0 31.5 -36.5t22.5 -38.5q4 0 8 1l8 2q9 0 10 -8zM448 31q0 -4 -5 -8q-29 -20 -45 -30q-31 -18 -49 -19q-24 -1 -37 41 t-17 42q-5 0 -9 -1.5t-7 -2.5q-9 0 -9 8q0 9 61 37q9 4 26 11q3 1 11 2q21 0 31.5 -36.5t22.5 -38.5q4 0 8 1l8 2q9 0 10 -8zM718 31q0 -4 -5 -8q-29 -20 -45 -30q-31 -18 -49 -19q-24 -1 -37 41t-17 42q-5 0 -9 -1.5t-7 -2.5q-9 0 -9 8q0 9 61 37q9 4 26 11q3 1 11 2 q21 0 31.5 -36.5t22.5 -38.5q4 0 8 1l8 2q9 0 10 -8z" />
<glyph unicode="&#x202f;" horiz-adv-x="341" />
<glyph unicode="&#x2039;" horiz-adv-x="396" d="M91 358q72 -41 117 -120l67 -153l-80 -50q-73 150 -77 156q-68 68 -118 120q30 20 82 92q72 103 88 126l126 67q-6 -6 -93 -129q-57 -81 -112 -109z" />
<glyph unicode="&#x203a;" horiz-adv-x="404" d="M205 263q-72 41 -117 120l-67 153l88 50q65 -150 69 -156q44 -78 126 -120q-38 -20 -90 -92q-72 -103 -88 -126l-126 -67q6 6 93 129q57 81 112 109z" />
<glyph unicode="&#x205f;" horiz-adv-x="426" />
<glyph unicode="&#x20ac;" horiz-adv-x="779" d="M347 410q-22 -10 -40 -17q12 -62 32 -120.5t49 -104t67.5 -73t86.5 -27.5q37 0 60.5 10.5t37.5 24.5q16 16 23 36l11 -11q-17 -36 -47 -63q-26 -24 -66.5 -43.5t-100.5 -19.5q-38 0 -84 16.5t-87 60t-72 119t-39 193.5q-10 5 -21 11q-17 10 -44 10q-69 0 -113 -39l46 80 q35 30 102 30q16 0 27 -3q0 14 0.5 26.5t1.5 24.5q-9 5 -20 11q-17 10 -44 10q-69 0 -113 -39l46 80q35 30 102 30q24 0 39 -6q15 93 49 164.5t80.5 120t103 73.5t117.5 25l93 -6q27 0 36 3q5 1 8 3h5q-8 -21 -15 -42.5t-13 -45.5t-10 -52t-6 -63h-11q0 19 -9 46t-29 52 t-54 42.5t-83 17.5q-81 0 -119 -93t-40 -271q38 5 100 34l-43 -75q-31 -14 -56 -22q1 -37 6 -76q37 7 93 33z" />
<glyph unicode="&#x2122;" horiz-adv-x="1135" d="M187 705q0 52 -2 92.5t-4 68.5q-3 33 -5 56q-44 0 -72.5 -1t-46.5 -7t-30 -18.5t-23 -35.5l-4 2q12 20 21 44.5t15 46.5q7 26 12 51l8 -2l-2 -11q97 0 167.5 -3.5t118 -4.5t72.5 2.5t31 18.5l4 -2q-8 -13 -16 -32q-7 -17 -14.5 -42t-14.5 -59h-5q3 15 0.5 26t-16.5 17.5 t-42 8.5t-76 1q-2 -33 -3 -70q-1 -32 -1.5 -72.5t-0.5 -84.5q0 -78 3 -147t8 -123q5 -62 12 -116l46 -6l2 -7q-11 1 -25 2q-12 1 -29.5 1.5t-37.5 0.5q-27 0 -47 -0.5t-34 -1.5q-16 -1 -28 -2v4l48 9q2 44 5 104q2 51 4 124t2 168zM1035 298l-21 3q-11 2 -26 3t-35 1t-35 -1 t-26 -3l-21 -3v7l28 4q0 77 -2 168q-2 78 -4.5 179t-7.5 213q-8 -37 -21 -94.5t-33 -130.5t-47 -158t-62 -177q-19 40 -41.5 107t-45 144t-44.5 154.5t-40 139.5q-2 -41 -2.5 -86t0 -91t2 -91t3.5 -86q4 -96 10 -191l44 -4v-9l-24 4q-11 2 -25 3.5t-29 1.5q-19 0 -28.5 -1 t-13.5 -3q-5 -2 -5 -3v7l3 4q8 28 17 99q4 30 8.5 73t9 101t10 133t10.5 169q-16 46 -27 74t-18 30q-8 2 -12.5 3t-6.5 2q-3 1 -3 2v6q9 -2 20 -3q18 -3 40 -3q11 0 23.5 0.5t24.5 2.5q13 1 28 3q4 -30 12.5 -70t19 -85.5t23 -93.5t24.5 -94q28 -107 62 -225q21 76 43 160 q19 72 42 162.5t46 184.5q-2 16 -2.5 31t-2.5 30q4 -2 12 -3q12 -3 41 -3q35 0 56 3q12 1 22 3v-6l-34 -7q-4 -35 -5 -82.5t0.5 -101.5t4.5 -112t7 -113q9 -129 23 -270l31 -6v-5z" />
<glyph unicode="&#xe000;" horiz-adv-x="500" d="M0 500h500v-500h-500v500z" />
</font>
</defs>
</svg>
