<?xml version="1.0" standalone="no"?>
<!DOCTYPE svg PUBLIC "-//W3C//DTD SVG 1.1//EN" "http://www.w3.org/Graphics/SVG/1.1/DTD/svg11.dtd" >
<svg xmlns="http://www.w3.org/2000/svg">
<metadata></metadata>
<defs>
<font id="benchnineregular" horiz-adv-x="796" >
<font-face units-per-em="2048" ascent="1638" descent="-410" />
<missing-glyph horiz-adv-x="283" />
<glyph unicode="&#xfb01;" horiz-adv-x="800" d="M49 917v50q0 39 24 39h51q7 0 7 33q0 169 23 259.5t65.5 121t118.5 30.5q61 0 81 -4q7 -1 10.5 -2.5t7 -9t3.5 -20.5v-50q0 -40 -13 -40h-58q-60 0 -81 -46.5t-21 -180.5v-85q0 -6 3 -6h411q24 0 24 -60v-885q0 -61 -24 -61h-87q-25 0 -25 61v820h-293q-9 0 -9 -28v-787 q0 -66 -25 -66h-85q-11 0 -18.5 17.5t-7.5 48.5v787q0 28 -7 28h-51q-12 0 -18 7t-6 29zM564 1218v104q0 30 6 41t18 11h99q23 0 23 -52v-104q0 -30 -5.5 -40.5t-17.5 -10.5h-99q-12 0 -18 10.5t-6 40.5z" />
<glyph unicode="&#xfb02;" horiz-adv-x="800" d="M49 917v50q0 39 24 39h51q7 0 7 33q0 169 23 259.5t65.5 121t118.5 30.5q61 0 81 -4q7 -1 10.5 -2.5t7 -9t3.5 -20.5v-50q0 -40 -13 -40h-58q-60 0 -81 -46.5t-21 -180.5v-85q0 -6 3 -6h141q12 0 17 -7t5 -28v-54q0 -21 -5 -28.5t-17 -7.5h-135q-9 0 -9 -28v-787 q0 -66 -25 -66h-85q-11 0 -18.5 17.5t-7.5 48.5v787q0 28 -7 28h-51q-12 0 -18 7t-6 29zM571 58v1334q0 63 25 63h87q24 0 24 -63v-1334q0 -58 -24 -58h-87q-25 0 -25 58z" />
<glyph unicode="&#xfb03;" horiz-adv-x="1262" d="M49 917v50q0 39 24 39h51q7 0 7 33q0 169 23 259.5t65.5 121t118.5 30.5q61 0 81 -4q7 -1 10.5 -2.5t7 -9t3.5 -20.5v-50q0 -40 -13 -40h-58q-60 0 -81 -46.5t-21 -180.5v-85q0 -6 3 -6h316q7 0 7 33q0 169 23 259.5t65.5 121t118.5 30.5q61 0 81 -4q7 -1 10.5 -2.5t7 -9 t3.5 -20.5v-50q0 -40 -13 -40h-58q-60 0 -81 -46.5t-21 -180.5v-85q0 -6 3 -6h411q24 0 24 -60v-885q0 -61 -24 -61h-87q-25 0 -25 61v820h-293q-9 0 -9 -28v-787q0 -66 -25 -66h-85q-11 0 -18.5 17.5t-7.5 48.5v787q0 28 -7 28h-310q-9 0 -9 -28v-787q0 -66 -25 -66h-85 q-11 0 -18.5 17.5t-7.5 48.5v787q0 28 -7 28h-51q-12 0 -18 7t-6 29zM1026 1218v104q0 30 6 41t18 11h99q23 0 23 -52v-104q0 -30 -5.5 -40.5t-17.5 -10.5h-99q-12 0 -18 10.5t-6 40.5z" />
<glyph horiz-adv-x="2048" />
<glyph horiz-adv-x="2048" />
<glyph unicode="&#xd;" horiz-adv-x="2048" />
<glyph unicode=" "  horiz-adv-x="283" />
<glyph unicode="&#x09;" horiz-adv-x="283" />
<glyph unicode="&#xa0;" horiz-adv-x="283" />
<glyph unicode="!" horiz-adv-x="366" d="M98 53v133q0 52 27 52h117q26 0 26 -52v-133q0 -53 -26 -53h-117q-27 0 -27 53zM108 1411v9q0 28 7.5 45t19.5 17h97q10 0 18.5 -17.5t8.5 -45.5v-8l-41 -907q-3 -72 -21 -72h-27q-17 0 -20 72z" />
<glyph unicode="&#x22;" horiz-adv-x="478" d="M67 1367v8q0 26 7.5 44.5t17.5 18.5h82q10 0 17 -19.5t7 -47.5v-5l-32 -392q-5 -66 -21 -66h-23q-18 0 -21 66zM280 1367v8q0 26 7.5 44.5t17.5 18.5h82q10 0 17 -19.5t7 -47.5v-5l-32 -392q-5 -66 -21 -66h-23q-18 0 -21 66z" />
<glyph unicode="#" horiz-adv-x="713" d="M92 374v27q0 28 4 37t16 9h75l33 419h-68q-24 0 -24 46v30q0 46 23 46h82l45 516q1 15 6 25t10 10h65q10 0 8 -35l-44 -516h144l45 516q3 35 16 35h63q11 0 7 -35l-44 -516h62q22 0 22 -46v-30q0 -27 -4.5 -36.5t-15.5 -9.5h-77l-32 -419h67q27 0 27 -46v-27 q0 -27 -5.5 -36.5t-18.5 -9.5h-83l-37 -466q-3 -35 -16 -35h-63q-10 0 -8 35l37 466h-144l-37 -466q-3 -35 -17 -35h-64q-4 0 -7 11t-1 24l36 466h-60q-23 0 -23 46zM277 447h144l32 419h-143z" />
<glyph unicode="$" horiz-adv-x="761" d="M43 189q0 28 24.5 60t46.5 32q9 0 16 -8q107 -149 244 -149q14 0 27 2v505l-121 81q-41 27 -71.5 55.5t-61 71t-47 101t-16.5 129.5q0 84 22.5 155.5t63 122t99.5 78.5t129 28h1h2v118q0 71 16 71h20q15 0 15 -71v-121q142 -18 229 -128q9 -12 9 -28q0 -30 -24.5 -60 t-42.5 -30q-6 0 -9 4q-73 90 -162 103v-510l53 -34q43 -28 77 -61t64.5 -78.5t47 -107.5t16.5 -135q0 -152 -69.5 -257.5t-188.5 -133.5v-122q0 -71 -15 -71h-20q-16 0 -16 71v115q-13 -1 -26 -1q-209 0 -327 183q-5 7 -5 20zM236 1090q0 -46 10.5 -84t31.5 -66t43 -47.5 t53 -40.5l27 -17v477q-74 -7 -119.5 -69.5t-45.5 -152.5zM452 142q51 26 78.5 85.5t27.5 139.5q0 81 -26.5 133.5t-79.5 94.5v-453z" />
<glyph unicode="%" horiz-adv-x="1017" d="M26 1044q0 198 43.5 301t128.5 103q84 0 127.5 -103t43.5 -301t-44 -300t-127 -102q-84 0 -128 102t-44 300zM112 1042q0 -141 21.5 -220t64.5 -79q85 0 85 299q0 304 -85 304q-86 0 -86 -304zM346 -32q0 6 2 20l223 1478q12 70 37 70h32q7 0 11.5 -14t4.5 -33 q0 -7 -2 -23l-222 -1478q-12 -70 -37 -70h-31q-7 0 -12.5 15t-5.5 35zM636 402q0 198 43.5 301t128.5 103q83 0 126.5 -103.5t43.5 -300.5q0 -198 -44 -300.5t-126 -102.5q-84 0 -128 102.5t-44 300.5zM722 400q0 -141 21.5 -220t64.5 -79q84 0 84 299q0 304 -84 304 q-86 0 -86 -304z" />
<glyph unicode="&#x26;" horiz-adv-x="1134" d="M117 1071q0 197 83 292.5t222 95.5q92 0 142 -26q30 -15 25 -47l-4 -61q-1 -20 -8 -26.5t-19 -0.5q-1 0 -10.5 4t-19 7.5t-29.5 6.5t-43 3q-73 0 -125 -55.5t-53 -184.5q0 -109 44.5 -181t125.5 -72h248q15 0 15 30l5 498q1 54 31 54h96q29 0 29 -54v-498q0 -30 14 -30 h149q31 0 31 -51v-34q0 -53 -31 -53h-149q-14 0 -14 -29v-310q0 -225 107 -225q42 0 86 32q11 8 20 -0.5t11 -30.5l3 -44v-9q0 -36 -21 -51q-63 -38 -124 -38q-65 0 -123.5 37t-79.5 107q-16 -21 -25 -32.5t-35.5 -36t-53 -38t-70.5 -25t-95 -11.5q-77 0 -138 22t-111 70 t-77 133t-27 202q0 130 58 223.5t129 115.5q-73 19 -131 100t-58 221zM280 407q0 -84 21 -144.5t55 -90.5t68 -43.5t68 -13.5q177 0 222 149q1 4 1 5l-4 391q0 28 -15 28h-238q-73 -1 -125.5 -77t-52.5 -204z" />
<glyph unicode="'" horiz-adv-x="265" d="M67 1367v8q0 26 7.5 44.5t17.5 18.5h82q10 0 17 -19.5t7 -47.5v-5l-32 -392q-5 -66 -21 -66h-23q-18 0 -21 66z" />
<glyph unicode="(" horiz-adv-x="425" d="M101 699q0 328 49.5 562.5t151.5 278.5h1q1 1 2 1q9 0 16 -22t7 -49v-55q0 -33 -4.5 -53.5t-8.5 -28t-18 -28.5q-79 -119 -79 -606q0 -491 80 -608q13 -19 17.5 -27.5t8.5 -28.5t4 -53v-55q0 -27 -7 -49t-16 -22h-1l-2 1q-69 30 -115.5 158t-66 300.5t-19.5 383.5z" />
<glyph unicode=")" horiz-adv-x="429" d="M98 -17q0 33 4.5 53.5t8 27.5t18.5 28q80 117 80 606q0 491 -80 608l-6 9t-5 8t-4.5 7.5t-4.5 8t-3 8t-3 10t-2 11t-1.5 13.5t-1 16t-0.5 19v54q0 27 7 49t16 22q1 0 3 -1q69 -30 116 -158t66.5 -301t19.5 -383q0 -328 -50 -562.5t-152 -278.5l-1 -1h-2q-9 0 -16 22 t-7 49v56z" />
<glyph unicode="*" horiz-adv-x="709" d="M99 813q0 26 11.5 45.5t30.5 19.5q13 0 53 -28t86 -64t56 -43q-3 25 -11 79.5t-12 95t-4 79.5q0 24 13 36.5t33 12.5q45 0 45 -45l-21 -258l158 100q10 5 18 5q20 0 34.5 -18t14.5 -40q0 -37 -40 -47l-176 -45q136 -150 161 -181q9 -11 9 -23q0 -18 -16.5 -32.5 t-35.5 -14.5q-21 0 -34 20l-119 200l-84 -236q-3 -9 -22 -9q-22 0 -42.5 10.5t-20.5 27.5q0 18 19 55.5t39 68t48 70.5t31 44l-186 55q-16 5 -26 21.5t-10 38.5z" />
<glyph unicode="+" horiz-adv-x="801" d="M118 593v25q0 17 4.5 26t10.5 11t16 2h183q8 0 11.5 4t3.5 18v196q0 28 8 36.5t25 8.5h55q16 0 23.5 -8.5t7.5 -36.5v-196q0 -14 4 -18t13 -4h180q10 0 15.5 -2t10.5 -11t5 -26v-25q0 -24 -8 -32t-23 -8h-180q-9 0 -13 -4t-4 -18v-203q0 -28 -7.5 -36.5t-23.5 -8.5h-55 q-17 0 -25 8.5t-8 36.5v203q0 14 -3.5 18t-11.5 4h-183q-15 0 -23 7.5t-8 32.5z" />
<glyph unicode="," horiz-adv-x="366" d="M81 55v126q0 30 9 45.5t21 15.5h98q12 0 19.5 -18.5t7.5 -49.5v-110q0 -159 -40.5 -251t-87.5 -114q-4 -2 -7 -2q-16 0 -16 41v15q0 10 0.5 17t1 11t3 9t3.5 6.5t6.5 8.5t7.5 10q20 28 31.5 75.5t11.5 82.5q0 27 -6 27h-42q-21 0 -21 55z" />
<glyph unicode="-" horiz-adv-x="474" d="M87 555v78q0 53 25 53h246q25 0 25 -53v-78q0 -52 -25 -52h-246q-25 0 -25 52z" />
<glyph unicode="." horiz-adv-x="344" d="M88 53v133q0 52 27 52h117q26 0 26 -52v-133q0 -53 -26 -53h-117q-27 0 -27 53z" />
<glyph unicode="/" horiz-adv-x="531" d="M81 -170l235 1782q3 35 17 35h112q9 0 9 -27v-8l-235 -1783q-5 -35 -16 -35l-114 1q-8 0 -8 27v8z" />
<glyph unicode="0" horiz-adv-x="860" d="M99 726q0 175 17.5 306t46.5 210.5t72.5 127.5t89.5 65.5t103 17.5q58 0 103.5 -17t89.5 -65t73.5 -127t47 -210.5t17.5 -307.5q0 -172 -17.5 -303t-47 -212.5t-73 -133t-90 -71.5t-103.5 -20q-47 0 -86.5 14.5t-77.5 46.5t-67.5 88.5t-51.5 136.5t-34 195t-12 259z M252 726q0 -332 41 -472t136 -140t135.5 139t40.5 473q0 325 -40.5 461.5t-136.5 136.5t-136 -136.5t-40 -461.5z" />
<glyph unicode="1" horiz-adv-x="499" d="M74 1260v77q0 32 23 37l228 60q10 2 13 2q20 0 20 -42v-1327q0 -67 -24 -67h-114q-23 0 -23 67v1150q0 15 -4 22t-10 5q-86 -22 -87 -22q-11 -2 -16.5 6.5t-5.5 31.5z" />
<glyph unicode="2" horiz-adv-x="739" d="M77 1348q0 27 8 37q125 68 283 68q50 0 94 -9t87 -32t73.5 -59t49 -94.5t18.5 -133.5q0 -71 -20 -138t-53.5 -123.5t-74 -113.5t-84 -119t-82 -127.5t-69 -150.5t-43.5 -178q-3 -7 0.5 -31t8.5 -24h353q18 0 18 -43v-36q0 -24 -4.5 -32.5t-14.5 -8.5h-506q-25 0 -25 58 q0 56 1 61q4 104 31 200.5t65.5 170t85 141.5t91.5 127.5t82 115.5t60 118t23 123q0 97 -45.5 151t-122.5 54q-42 0 -83.5 -7.5t-61.5 -14t-61 -22.5t-47 -18q-13 -13 -15 9q-20 53 -20 81z" />
<glyph unicode="3" horiz-adv-x="675" d="M56 1349q0 10 4.5 27.5t11.5 22.5q88 54 222 54q67 0 120.5 -20.5t96.5 -64.5t66 -121.5t23 -184.5q0 -278 -197 -330q206 -42 206 -366q0 -108 -27 -185t-75.5 -118t-104.5 -59t-124 -18q-138 0 -204 47q-6 5 -9.5 22.5t-3.5 26.5q0 12 3 38.5t6 26.5q1 12 3 17t8 0 q80 -47 180 -47q106 0 155.5 67.5t49.5 210.5q-1 263 -191 268q-7 1 -36 1q-15 0 -20 6.5t-5 24.5v83q0 24 25 24q28 0 34 1q94 3 137.5 65.5t43.5 186.5q0 144 -44.5 205t-133.5 61q-114 0 -200 -50q-7 -6 -9 9l-1 8q-3 0 -6.5 26t-3.5 35z" />
<glyph unicode="4" horiz-adv-x="853" d="M95 337q0 8 1 13l140 1021q6 36 13.5 51.5t24.5 15.5h62q32 0 32 -50q0 -11 -1 -17l-118 -939q-1 -9 3.5 -17.5t15.5 -8.5h269v974q0 58 37 58h70q36 0 36 -58v-974h125q26 0 37 -12t11 -40v-22q0 -27 -11 -38t-37 -11h-125v-227q0 -31 -8.5 -43.5t-27.5 -12.5h-70 q-19 0 -28 12.5t-9 43.5v227h-387q-23 0 -39 14.5t-16 39.5z" />
<glyph unicode="5" horiz-adv-x="858" d="M118 1370v13q0 32 13 43.5t45 11.5h527q24 0 24 -38l-1 -63q-3 -43 -15 -43h-429q-27 0 -34.5 -7.5t-7.5 -34.5l-1 -443q13 19 30 37t47 40t74 35.5t96 13.5q155 0 224 -122t69 -348q0 -140 -26 -236t-77.5 -148t-115.5 -73.5t-151 -21.5q-76 0 -155 18.5t-112 39.5 q-19 12 -19 51q0 24 4 54t14 30q3 0 9 -3q160 -57 258 -57q58 0 99 17t65 45t38 75.5t18.5 97t4.5 119.5q0 44 -2.5 79.5t-9 76.5t-20.5 71.5t-35 57t-53.5 40t-75.5 13.5q-53 0 -95 -21t-62 -46t-41.5 -46t-38.5 -21h-50q-15 0 -19 17t-5 51v12z" />
<glyph unicode="6" horiz-adv-x="822" d="M99 702q0 278 38 442.5t116 236.5t208 72q62 0 125 -20.5t92 -46.5q6 -5 10 -20t4 -22q1 -4 -2 -31.5t-5 -30.5q-3 -18 -8.5 -24.5t-14.5 0.5q-91 62 -175 62q-76 0 -124 -40.5t-74.5 -141t-26.5 -267.5v-31q120 47 188 47q298 0 298 -455q0 -107 -16.5 -186.5 t-44.5 -128.5t-70.5 -79t-88 -41t-104.5 -11q-176 0 -250.5 171t-74.5 545zM261 615q0 -184 16.5 -292t51.5 -156t94 -49h7q55 0 89 27t53.5 101t19.5 202q0 66 -6.5 116.5t-22 95.5t-46.5 69t-76 24q-75 0 -180 -46v-92z" />
<glyph unicode="7" horiz-adv-x="556" d="M89 1320v81q0 37 25 37h360q23 0 23 -45v-13l-161 -1321q-7 -59 -26 -59h-108q-24 0 -24 44q0 10 1 15l147 1200q2 21 -11 21h-201q-25 0 -25 40z" />
<glyph unicode="8" horiz-adv-x="832" d="M102 422q0 120 36 221t80 145q-88 82 -88 277q0 207 78.5 297.5t208.5 90.5q282 0 282 -400q0 -96 -27 -180.5t-61 -127.5q120 -92 120 -331q0 -101 -17 -177.5t-44.5 -123.5t-69 -76t-85.5 -40t-98 -11t-97.5 10.5t-85.5 40t-70 77t-45 126t-17 182.5zM240 440 q0 -165 45.5 -234t132.5 -69t130 64.5t43 229.5q0 72 -11.5 117t-47.5 75.5t-68 45t-108 41.5q-34 12 -53 19q-25 -43 -44 -132t-19 -157zM262 1058q0 -69 11.5 -111t44 -71t77 -45.5t125.5 -34.5q16 26 34 102.5t18 148.5q0 281 -154 281q-77 0 -116.5 -64t-39.5 -206z" />
<glyph unicode="9" horiz-adv-x="823" d="M99 997q0 130 23 221t67.5 141.5t98.5 72t125 21.5q116 0 183 -68.5t98.5 -225t31.5 -427.5q0 -222 -20 -368t-64 -229t-104.5 -116t-151.5 -33q-53 0 -122 25t-99 56q-11 10 -11 47l4 62q1 12 3 19.5t4 10t5.5 2t5.5 -1.5t6 -4q25 -22 81 -47t118 -25q98 0 139.5 92 t41.5 303v76q-82 -60 -165 -60q-154 0 -226 121.5t-72 334.5zM257 989q0 -151 34 -231.5t115 -80.5q89 0 159 58v166q0 234 -36.5 329.5t-118.5 95.5q-153 0 -153 -337z" />
<glyph unicode=":" horiz-adv-x="326" d="M100 68v185q0 31 7.5 49.5t18.5 18.5h76q26 0 26 -68v-185q0 -68 -26 -68h-76q-11 0 -18.5 18.5t-7.5 49.5zM100 778v185q0 31 7.5 49.5t18.5 18.5h76q26 0 26 -68v-185q0 -68 -26 -68h-76q-11 0 -18.5 18.5t-7.5 49.5z" />
<glyph unicode=";" horiz-adv-x="337" d="M100 55v195q0 61 21 61h104q11 0 18.5 -18.5t7.5 -49.5v-179q0 -161 -41 -261t-86 -122q-2 -1 -5 -1q-19 0 -19 46v14v20t1 14.5t1.5 10t3.5 8t4 6.5t5.5 7.5t6.5 8.5q20 28 31.5 75t11.5 83q0 27 -6 27h-38q-21 0 -21 55zM105 778v185q0 31 7 49.5t18 18.5h88 q26 0 26 -68v-185q0 -68 -26 -68h-88q-11 0 -18 18.5t-7 49.5z" />
<glyph unicode="&#x3c;" horiz-adv-x="895" d="M129 606v35q0 7 0.5 13t1 10.5t3 10.5t3.5 9t4.5 9t5 8t7 9t6.5 9t8 10.5t9 10.5l285 380q10 11 22 11q26 0 26 -43v-43q0 -22 -6.5 -39.5t-11.5 -24t-22 -28.5l-229 -314q-7 -8 -7 -17t7 -16l228 -295q3 -3 10 -11t9 -11t7 -9.5t6.5 -11t4.5 -11.5t3.5 -15t0.5 -17v-53 q0 -18 -7 -29t-19 -11q-6 0 -22 14l-286 360q-19 23 -27 34t-14 28t-6 38z" />
<glyph unicode="=" horiz-adv-x="520" d="M48 391v30q0 30 5 37.5t18 7.5h378q13 0 18 -7.5t5 -37.5v-30q0 -30 -5 -37t-18 -7h-378q-13 0 -18 7t-5 37zM48 666v30q0 30 5 37.5t18 7.5h378q13 0 18 -7.5t5 -37.5v-30q0 -30 -5 -37t-18 -7h-378q-13 0 -18 7t-5 37z" />
<glyph unicode="&#x3e;" horiz-adv-x="895" d="M129 175v43q0 22 6.5 39t12 24.5t22.5 28.5l229 314q6 8 6 17t-7 16l-228 295q-2 2 -8 8.5t-7.5 8.5t-6 7.5t-6 8t-4.5 8t-4 9.5l-2.5 10t-2 12.5t-0.5 13.5v53q0 17 7.5 28.5t18.5 11.5q6 0 22 -14l287 -360q19 -23 26.5 -33.5t13.5 -28t6 -38.5v-35q0 -7 -0.5 -13.5 t-2 -12.5t-2.5 -10.5t-5 -11t-5 -9t-6.5 -10t-7.5 -9.5t-9 -11t-9 -12l-285 -380q-11 -11 -22 -11q-12 0 -19.5 12t-7.5 31z" />
<glyph unicode="?" horiz-adv-x="755" d="M78 1334q0 32 27 46q126 79 251 79q149 0 242 -95.5t97 -283.5q0 -127 -75 -230t-190 -168q-47 -27 -73.5 -66t-54.5 -105q-13 -17 -23 -17q-9 0 -17 9q-25 40 -27 54q-13 19 6 45q36 84 69 121.5t109 88.5q71 47 107.5 116t36.5 149q-1 110 -60.5 176t-149.5 66 q-112 0 -217 -71q-16 -11 -29 18q-8 0 -18.5 28t-10.5 40zM204 60v86q0 29 11.5 44.5t29.5 15.5h83q41 0 41 -60v-86q0 -29 -11.5 -44.5t-29.5 -15.5h-83q-18 0 -29.5 16t-11.5 44z" />
<glyph unicode="@" horiz-adv-x="1326" d="M80 674q0 112 14.5 213t44 194t77.5 168t112.5 130.5t152 85.5t191.5 30q133 0 234.5 -41.5t166 -112.5t105 -174.5t57 -217t16.5 -250.5q0 -236 -56.5 -351t-143.5 -115q-129 0 -144 194q-4 37 -10 37q-4 0 -11 -30q-32 -107 -90.5 -162t-152.5 -55q-124 0 -202 112.5 t-78 330.5q0 213 77 325t199 112q90 0 150.5 -59t86.5 -164q1 -5 3.5 -11t4.5 -6q3 0 5 13l12 134q4 26 12.5 36.5t24.5 10.5h8q13 0 21 -14.5t8 -38.5v-503q0 -101 18.5 -137t56.5 -36q92 0 92 377q0 123 -13 222.5t-45.5 189t-84.5 150t-134 95.5t-190 35q-103 0 -186 -41 t-137 -109t-90 -162t-51.5 -195.5t-15.5 -213.5t14 -210.5t50 -193t91.5 -161.5t144 -108t202.5 -41q123 0 251 64h2q9 0 21 -27t12 -46q0 -11 -5 -14q-55 -31 -135 -52.5t-155 -21.5q-127 0 -229.5 42.5t-172 117t-116.5 178.5t-68.5 223t-21.5 254zM476 654 q0 -163 47 -249t136 -86q85 0 138.5 86t53.5 247q0 159 -53 247.5t-137 88.5q-90 0 -137.5 -86.5t-47.5 -247.5z" />
<glyph unicode="A" d="M55 30v14q0 10 1 16l235 1326q10 52 36 52h155q27 0 36 -52l227 -1326q0 -5 2.5 -15.5t2.5 -15.5q0 -29 -16 -29h-124q-27 0 -34 45l-41 269q-4 17 -9 17h-274q-4 0 -8 -18l-46 -268q-5 -27 -12 -36t-19 -9h-97q-15 0 -15 30zM269 451q0 -15 13 -15h233q5 0 5 14 q0 6 -2 7l-116 795l-2 6q-3 0 -3 -5l-127 -793q-1 -4 -1 -9z" />
<glyph unicode="B" horiz-adv-x="881" d="M112 42v1353q0 28 6.5 35.5t20.5 7.5h344q297 0 297 -396q0 -189 -100 -263q-9 -7 -9 -11q0 -6 10 -10q136 -92 136 -334q0 -121 -24 -204.5t-71 -131t-109.5 -68t-148.5 -20.5h-325q-9 0 -14 2t-9 11.5t-4 28.5zM273 141q0 -12 3 -15t10 -3h157q110 0 164 78t54 222 q0 124 -50 201t-127 77h-198q-13 0 -13 -23v-537zM273 840q0 -19 13 -19h205q63 0 101.5 57.5t38.5 159.5q0 273 -183 273h-162q-13 0 -13 -21v-450z" />
<glyph unicode="C" horiz-adv-x="699" d="M88 720q0 138 11.5 248.5t31 186.5t50 131.5t62 87t74.5 50t80 24t85 5.5q90 0 148 -26q1 -1 4 -3t5 -5.5t2 -9.5v-97q0 -12 -7 -12q-1 0 -8 2t-18.5 5t-26.5 6.5t-34.5 5.5t-37.5 2q-47 0 -81.5 -10.5t-70 -47t-58 -100.5t-36.5 -175.5t-14 -267.5q0 -158 12 -269.5 t31.5 -176t53 -100.5t66.5 -46.5t81 -10.5q73 0 127 19q1 0 4.5 -7.5t3.5 -9.5v-94q0 -2 -3.5 -9.5t-4.5 -8.5q-56 -21 -145 -21q-37 0 -65 2.5t-62.5 11.5t-60.5 24.5t-54 43t-48.5 65.5t-39.5 93.5t-31 125.5t-19 163t-7 205z" />
<glyph unicode="D" horiz-adv-x="919" d="M112 42v1360q0 22 6 29t18 7h326q72 0 127.5 -21t102 -71t77 -130.5t47 -203t16.5 -286.5q0 -137 -8 -242t-22.5 -182t-40 -130.5t-54.5 -87t-72 -52.5t-86.5 -25.5t-104.5 -6.5h-308q-12 0 -18 8t-6 34zM273 150q0 -22 12 -22h153q92 0 141 51.5t71 178.5t22 367 q0 217 -25 346t-74 184t-130 55h-159q-11 0 -11 -20v-1140z" />
<glyph unicode="E" horiz-adv-x="724" d="M112 39v1360q0 24 6 31.5t18 7.5h500q8 0 12.5 -1.5t8 -10t3.5 -24.5v-56q0 -17 -3.5 -25t-7.5 -9.5t-13 -1.5h-352q-11 0 -11 -31v-455q0 -7 3 -14.5t5 -7.5h293q12 0 18 -8t6 -31v-55q0 -24 -6 -32.5t-18 -8.5h-292q-3 0 -6 -9.5t-3 -16.5v-513h366q9 0 13 -1.5 t7.5 -9.5t3.5 -25v-56q0 -23 -5.5 -29.5t-18.5 -6.5h-503q-8 0 -12.5 2t-8 10.5t-3.5 26.5z" />
<glyph unicode="F" horiz-adv-x="661" d="M112 39v1360q0 24 6 31.5t18 7.5h471q8 0 12.5 -1.5t8 -10t3.5 -24.5v-56q0 -17 -3.5 -25t-7.5 -9.5t-13 -1.5h-323q-11 0 -11 -26v-481q0 -16 8 -16h271q13 0 18.5 -6t5.5 -29v-64q0 -17 -3.5 -25t-7.5 -9.5t-13 -1.5h-270q-3 0 -6 -8t-3 -15v-590q0 -25 -5.5 -32 t-18.5 -7h-113q-8 0 -12.5 2t-8 10.5t-3.5 26.5z" />
<glyph unicode="G" horiz-adv-x="882" d="M91 720q0 143 14 255.5t36.5 188.5t59 131t72 85t86 47t90.5 21.5t95 4.5q89 0 165 -31q1 -1 4.5 -3.5t5.5 -5.5t2 -9v-98q0 -12 -7 -12l-10 3q-11 3 -27.5 7t-36 7.5t-43 6.5t-43.5 3q-55 0 -93.5 -9.5t-80.5 -45.5t-68 -99t-43 -176t-17 -271q0 -150 13 -260.5 t34 -175.5t53 -104t64.5 -52t73.5 -13q52 0 86 31t52 93.5t24.5 135t6.5 175.5q0 55 -9 55h-140q-10 0 -15.5 2t-10 11.5t-4.5 26.5v60q0 25 7 32.5t21 7.5h268q26 0 26 -53v-646q0 -30 -8.5 -46t-20.5 -16q-33 0 -44 59q0 4 -10.5 81.5t-10.5 94.5q0 9 -3 9q-4 0 -6 -8 q-17 -112 -75.5 -173t-148.5 -61q-44 0 -80 6t-77 25t-72.5 51t-61.5 88t-49.5 131.5t-31.5 185.5t-12 247z" />
<glyph unicode="H" horiz-adv-x="918" d="M112 47v1344q0 30 6 38.5t19 8.5h110q9 0 14 -2.5t8.5 -13.5t3.5 -31v-557q0 -7 3 -13.5t5 -6.5h353q3 0 7 7.5t4 14.5v555q0 30 6 38.5t20 8.5h111q13 0 18.5 -8.5t5.5 -38.5v-1344q0 -30 -5.5 -38.5t-18.5 -8.5h-111q-14 0 -20.5 8.5t-6.5 38.5v617q0 6 -3.5 13t-5.5 7 h-353q-2 0 -5 -6.5t-3 -12.5v-618q0 -29 -6.5 -38t-19.5 -9h-111q-13 0 -19 8.5t-6 38.5z" />
<glyph unicode="I" horiz-adv-x="387" d="M115 47v1344q0 29 6 38t18 9h112q13 0 19 -8.5t6 -38.5v-1344q0 -30 -6 -38.5t-19 -8.5h-112q-8 0 -12.5 2.5t-8 13.5t-3.5 31z" />
<glyph unicode="J" horiz-adv-x="514" d="M37 -47q0 29 12 31q37 1 59 5.5t45 20t35 44t22.5 78.5t14.5 124t4 179v956q0 47 18 47h124q19 0 19 -47v-992q0 -157 -18.5 -263t-43.5 -162.5t-76 -85t-90.5 -33.5t-112.5 -5q-12 0 -12 28v75z" />
<glyph unicode="K" horiz-adv-x="768" d="M112 58v1322q0 58 24 58h111q26 0 26 -58v-647l272 651q22 54 43 54h120q17 0 17 -20q0 -18 -8 -35l-279 -640q-5 -25 -5 -29q0 -14 4 -23l296 -631q12 -25 12 -41q0 -19 -13 -19h-112q-13 0 -23.5 11.5t-24.5 42.5l-299 637v-636q0 -55 -26 -55h-111q-24 0 -24 58z" />
<glyph unicode="L" horiz-adv-x="617" d="M112 47v1344q0 29 6 38t18 9h113q8 0 12.5 -2.5t8 -13.5t3.5 -31v-1242q0 -21 13 -21h262q9 0 13 -1.5t8 -9t4 -23.5v-58q0 -23 -6 -29.5t-19 -6.5h-412q-8 0 -12.5 2.5t-8 13.5t-3.5 31z" />
<glyph unicode="M" horiz-adv-x="1080" d="M110 52v6l44 1320q0 60 23 60h124q31 0 41 -50l191 -1013q1 -5 5 -5t5 5l190 1008q12 55 39 55h129q23 0 23 -60l46 -1320v-6q0 -52 -24 -52h-84q-24 0 -25 58l-32 1095q-2 3 -6 3l-200 -1102q-10 -53 -36 -53q-1 0 -26.5 -0.5t-26.5 -0.5q-25 0 -35 54l-196 1095 q-1 4 -3 0q-1 -2 -1 -5l-34 -1086q0 -58 -22 -58h-86q-23 0 -23 52z" />
<glyph unicode="N" horiz-adv-x="930" d="M112 52v1335q0 30 6 40.5t19 10.5h111q18 0 31 -33l391 -1003q2 -4 5 5q2 4 2 8v972q0 30 6.5 40.5t19.5 10.5h91q24 0 24 -51v-1341q0 -20 -3.5 -30.5t-8 -13t-12.5 -2.5h-81q-8 0 -20 13t-18 29l-413 1036q-2 6 -6 -4q-1 -3 -1 -6v-1016q0 -30 -6.5 -41t-19.5 -11h-92 q-25 0 -25 52z" />
<glyph unicode="O" horiz-adv-x="900" d="M88 725q0 217 20 358t66 223t111 114.5t164 32.5q101 0 166 -31.5t111 -113.5t66 -223t20 -360q0 -184 -13 -312t-39 -212.5t-71 -131t-101.5 -65t-138.5 -18.5q-81 0 -137 19t-101 66t-70.5 131.5t-39 212t-13.5 310.5zM249 725q0 -249 20 -380t61 -180.5t119 -49.5 q79 0 120.5 48t61.5 179t20 383q0 240 -18.5 366t-60.5 178t-122 52q-79 0 -121.5 -54.5t-61 -181t-18.5 -360.5z" />
<glyph unicode="P" horiz-adv-x="835" d="M112 49v1343q0 29 6 37.5t18 8.5h267q36 0 62.5 -1.5t60 -7t58 -15t52 -26.5t47 -40.5t38 -59t30 -80t18.5 -104t7 -130.5q0 -87 -10 -155.5t-26.5 -116t-42.5 -81.5t-53.5 -54t-64.5 -31t-69.5 -14.5t-74.5 -3.5h-153q-9 0 -9 -17v-452q0 -49 -25 -49h-112q-24 0 -24 49 zM273 663q0 -16 8 -16h137q47 0 76 6.5t54.5 25t38.5 55t20.5 94.5t7.5 145q0 94 -11.5 158t-28 99t-48 53.5t-58.5 22.5t-73 4h-114q-9 0 -9 -17v-630z" />
<glyph unicode="Q" horiz-adv-x="944" d="M88 723q0 178 16 306t45.5 210t78 129.5t106 66t137.5 18.5q82 0 139.5 -18t106.5 -65t78 -129t45 -210t16 -308q0 -251 -27 -402.5t-78.5 -223t-138.5 -97.5q3 -18 22 -103t35 -160.5t16 -83.5q5 -20 3 -31.5t-18 -16.5q-48 -16 -72 -16t-35 48l-77 351q-28 -3 -46 -2 q-76 4 -128.5 23.5t-97.5 67t-71 129.5t-40.5 209.5t-14.5 307.5zM249 723q0 -154 9 -262t25.5 -175.5t45.5 -105.5t61.5 -51.5t80.5 -13.5q49 0 82 13t62 49.5t45 104t25.5 176t9.5 265.5q0 243 -24.5 374.5t-70.5 177.5t-128 46q-81 0 -127.5 -49t-71 -180.5t-24.5 -368.5 z" />
<glyph unicode="R" horiz-adv-x="901" d="M112 44v1348q0 20 3.5 30.5t8 13t12.5 2.5h304q47 0 81.5 -2.5t74 -12t67.5 -25.5t55 -43.5t43.5 -66.5t26.5 -95t10 -127q0 -98 -22 -164t-55 -97.5t-84 -52.5q-4 -4 -4 -7q0 -4 3 -4q30 -14 47.5 -24.5t41 -34.5t36.5 -53.5t23.5 -79.5t12.5 -116q2 -54 2 -381 q0 -52 -20 -52q-116 -1 -118 -1q-19 0 -19 49q-1 9 -4.5 224t-8.5 237q-7 164 -165 164h-181q-10 0 -10 -19v-610q0 -27 -6 -35.5t-19 -8.5h-112q-12 0 -18 8.5t-6 35.5zM273 821q0 -22 9 -22h149q108 0 157 63.5t49 198.5q0 75 -14.5 124.5t-46 76.5t-72.5 37.5t-103 10.5 h-119q-9 0 -9 -17v-472z" />
<glyph unicode="S" horiz-adv-x="761" d="M43 189q0 28 24.5 60t46.5 32q9 0 16 -8q107 -149 244 -149q86 0 135 67.5t49 175.5q0 95 -36 151t-110 106l-132 88q-41 27 -71.5 55.5t-61 71t-47 101t-16.5 129.5q0 171 86 277.5t228 106.5q180 0 283 -131q9 -12 9 -28q0 -30 -24.5 -60t-42.5 -30q-6 0 -9 4 q-85 105 -196 105q-81 0 -131.5 -64t-50.5 -159q0 -61 20.5 -108.5t47.5 -74.5t70 -55l131 -85q205 -133 205 -382q0 -176 -91.5 -287.5t-243.5 -111.5q-209 0 -327 183q-5 7 -5 20z" />
<glyph unicode="T" horiz-adv-x="634" d="M28 1341v56q0 26 5.5 33.5t19.5 7.5h532q13 0 18.5 -7.5t5.5 -33.5v-56q0 -16 -3.5 -24t-7.5 -9.5t-13 -1.5h-174q-11 0 -11 -25v-1234q0 -30 -5.5 -38.5t-18.5 -8.5h-113q-13 0 -18.5 8.5t-5.5 38.5v1234q0 25 -11 25h-175q-10 0 -14 1.5t-7.5 9.5t-3.5 24z" />
<glyph unicode="U" horiz-adv-x="937" d="M100 590v801q0 30 6 38.5t19 8.5h111q8 0 13 -2.5t8.5 -13.5t3.5 -31v-796q0 -128 9 -215t24 -139t43 -80t58.5 -36.5t77.5 -8.5q48 0 77 8t56 34t40.5 78.5t21.5 139.5t8 219v796q0 30 6 38.5t19 8.5h112q13 0 18.5 -8.5t5.5 -38.5v-801q0 -117 -9 -207.5t-24.5 -154 t-41.5 -108.5t-53.5 -70.5t-68 -40t-77.5 -19t-89 -4.5q-53 0 -91.5 4.5t-80 19t-70 41t-55.5 71.5t-42.5 108t-25 153.5t-9.5 206.5z" />
<glyph unicode="V" horiz-adv-x="775" d="M48 1401q0 37 15 37h113q24 0 36 -64l193 -1050l177 1050q11 64 35 64h95q15 0 15 -38q0 -19 -2 -29l-239 -1309q-10 -59 -35 -62h-113q-26 3 -37 62l-250 1309q-3 17 -3 30z" />
<glyph unicode="W" horiz-adv-x="1140" d="M55 1400q0 38 16 38h101q26 0 36 -69l129 -957l155 952q10 60 37 60h90q26 -2 37 -61l168 -976l126 983q10 68 34 68h89q15 0 15 -38q0 -14 -3 -30l-178 -1302q-9 -65 -34 -68h-96q-26 3 -37 69l-176 1033l-168 -1034q-10 -64 -31 -68h-87q-25 4 -34 68l-186 1302 q-3 16 -3 30z" />
<glyph unicode="X" d="M54 25q0 19 7 35l255 653l-239 663q-8 30 -8 38q0 24 11 24h122q29 0 46 -51l169 -494l180 496q20 49 48 49h81q14 0 14 -26q0 -14 -5 -27l-238 -607l249 -716q6 -19 6 -34q0 -28 -14 -28h-106q-28 0 -45 51l-177 530l-212 -532q-20 -49 -45 -49h-89q-10 0 -10 25z" />
<glyph unicode="Y" horiz-adv-x="693" d="M37 1411q0 27 18 27h103q30 0 42 -48l158 -661l156 660q5 22 16 35.5t23 13.5h87q18 0 18 -29q0 -14 -5 -30l-224 -870v-457q0 -30 -6 -41t-18 -11h-112q-12 0 -18 11t-6 41v453l-227 874q-5 17 -5 32z" />
<glyph unicode="Z" horiz-adv-x="684" d="M82 36v43q0 21 13 71l331 1120q4 16 4 22q0 18 -9 18h-307q-9 0 -13.5 1.5t-8 9.5t-3.5 25v56q0 23 6 29.5t19 6.5h480q8 0 12.5 -1.5t8 -10t3.5 -24.5v-33q0 -40 -15 -95l-329 -1112q-3 -11 -3 -20q0 -14 6 -14h328q17 0 20.5 -7t3.5 -24v-61q0 -23 -6 -29.5t-18 -6.5 h-499q-8 0 -12.5 1.5t-8 10t-3.5 24.5z" />
<glyph unicode="[" horiz-adv-x="537" d="M112 -41v1459q0 63 27 63h276q25 0 25 -52v-78q0 -52 -25 -52h-131q-11 0 -11 -32v-1164q0 -31 11 -31h131q25 0 25 -58v-66q0 -52 -25 -52h-276q-27 0 -27 63z" />
<glyph unicode="\" horiz-adv-x="558" d="M98 1623q0 24 8 24h114q11 0 16 -35l234 -1782q0 -2 0.5 -5t0.5 -4q0 -26 -8 -26l-114 -1q-12 0 -17 35l-233 1783q0 2 -0.5 6t-0.5 5z" />
<glyph unicode="]" horiz-adv-x="537" d="M112 26q0 52 25 52h131q11 0 11 32v1164q0 31 -11 31h-131q-25 0 -25 58v66q0 52 25 52h276q27 0 27 -63v-1459q0 -63 -27 -63h-276q-25 0 -25 52v78z" />
<glyph unicode="^" horiz-adv-x="1030" d="M94 334q0 17 8 38l311 872q14 36 30 51.5t49 15.5h43q32 0 46.5 -15t30.5 -53l317 -870q8 -24 8 -37q0 -31 -29 -31h-58q-20 0 -33.5 14.5t-26.5 54.5l-256 724q-6 19 -10 25t-11 6t-11 -6t-10 -25l-247 -724q-14 -42 -26.5 -55.5t-39.5 -13.5h-57q-28 0 -28 29z" />
<glyph unicode="_" horiz-adv-x="823" d="M54 -10q0 24 10 33.5t32 9.5h632q21 0 31.5 -9t10.5 -33v-35q0 -24 -10 -33.5t-32 -9.5h-632q-21 0 -31.5 9t-10.5 33v35z" />
<glyph unicode="`" horiz-adv-x="596" d="M354 1581q0 28 10 28h74q11 0 16.5 -11.5t8.5 -43.5l21 -319q1 -14 1 -35q0 -32 -15 -32h-30q-13 0 -20 39l-62 337q-4 24 -4 37z" />
<glyph unicode="a" horiz-adv-x="703" d="M76 238q0 88 27 155t68 102.5t91 59.5t93 31.5t78 14.5t42 12v55q0 116 -25.5 176.5t-95.5 60.5q-62 0 -91.5 -34.5t-51.5 -108.5q-6 -17 -12 -23t-15 -4q-14 3 -48.5 14t-35.5 16q-10 10 1 54q18 64 47 106t82.5 67.5t130.5 25.5q127 0 188.5 -91.5t61.5 -305.5v-572 q0 -49 -21 -49h-24q-16 0 -27 41q-29 122 -31 147q0 3 -2 4.5t-3.5 0t-2.5 -4.5q-25 -97 -76.5 -148.5t-141.5 -51.5q-101 0 -153.5 65t-52.5 185zM201 249q0 -154 108 -154q79 0 124 102t45 251q0 70 -7 70q-1 0 -21.5 -3t-22.5 -4q-121 -27 -173.5 -93t-52.5 -169z" />
<glyph unicode="b" horiz-adv-x="740" d="M101 59v1308q0 71 25 71h87q11 0 17.5 -19.5t6.5 -51.5v-500q0 -13 4 -13l5 5q29 79 76.5 119t102.5 40q48 0 88 -25.5t74.5 -82t54.5 -161t20 -248.5q0 -111 -14.5 -199.5t-39 -146t-57.5 -96t-67.5 -54.5t-71.5 -16q-155 0 -213 211q-2 5 -4 5q-4 0 -10.5 -51.5 t-17.5 -102.5t-26 -51h-20q-20 0 -20 59zM237 509q0 -174 42 -290.5t106 -116.5t100.5 99t36.5 308q0 197 -36.5 296.5t-98.5 99.5q-63 0 -106.5 -110t-43.5 -286z" />
<glyph unicode="c" horiz-adv-x="558" d="M81 508q0 129 17 224t43 149t65.5 86t75.5 41.5t82 9.5q67 0 126 -22q3 0 7 -5t4 -8v-86q0 -5 -4 -10t-7 -4q-58 18 -94 18q-30 0 -50 -5t-45 -27t-40 -62.5t-25.5 -116t-10.5 -182.5q0 -108 9.5 -184t24 -118t39 -65t46 -28.5t53.5 -5.5q40 0 93 17q3 -1 7.5 -7.5 t4.5 -10.5v-80q0 -4 -4.5 -10.5t-7.5 -7.5q-52 -19 -114 -19h-4q-33 0 -60 4.5t-58 18t-55 36t-47 62t-38 93t-24 131t-9 174.5z" />
<glyph unicode="d" horiz-adv-x="749" d="M79 502q0 126 14.5 220.5t37.5 150t57 89t67.5 45t75.5 11.5q115 0 171 -156q1 -2 7 -11q3 0 3 13v512q0 62 25 62h86q25 0 25 -62v-1309q0 -67 -22 -67h-22q-16 0 -28 58q-15 100 -20 146q-2 14 -4 16q-4 -5 -6 -14q-29 -126 -78 -171.5t-133 -45.5q-38 0 -71 12 t-68.5 46.5t-60 89.5t-40.5 148.5t-16 216.5zM224 509q0 -121 9.5 -203t29.5 -125.5t44.5 -61t58.5 -17.5q67 0 106 105t39 302q0 194 -40 295t-106 101q-32 0 -55.5 -16.5t-44 -58t-31 -122t-10.5 -199.5z" />
<glyph unicode="e" horiz-adv-x="704" d="M81 504q0 127 17.5 222.5t44.5 150t66 88t75.5 44t79.5 10.5q250 0 250 -474q0 -72 -30 -72h-354q-7 0 -7 -21q0 -99 15 -175t51.5 -125.5t90.5 -49.5q37 0 62.5 17.5t38 50.5t17 56.5t8.5 60.5q2 20 13 20h68q19 0 19 -41v-20q0 -111 -58.5 -184t-173.5 -73 q-293 0 -293 515zM224 616q0 -54 3 -54h266q2 0 2 18q-6 169 -37 247.5t-96 78.5q-121 0 -138 -290z" />
<glyph unicode="f" horiz-adv-x="462" d="M49 917v50q0 39 24 39h51q7 0 7 33q0 169 23 259.5t65.5 121t118.5 30.5q61 0 81 -4q7 -1 10.5 -2.5t7 -9t3.5 -20.5v-50q0 -40 -13 -40h-58q-60 0 -81 -46.5t-21 -180.5v-85q0 -6 3 -6h141q12 0 17 -7t5 -28v-54q0 -21 -5 -28.5t-17 -7.5h-135q-9 0 -9 -28v-787 q0 -66 -25 -66h-85q-11 0 -18.5 17.5t-7.5 48.5v787q0 28 -7 28h-51q-12 0 -18 7t-6 29z" />
<glyph unicode="g" horiz-adv-x="681" d="M68 675q0 100 26.5 175t89 121.5t155.5 46.5q25 0 67 -10q16 -4 17 15l17 253q1 28 8 35.5t22 7.5h67q7 0 11 -14t1 -27l-67 -281q-5 -24 14 -37q50 -37 85.5 -109.5t35.5 -174.5q0 -329 -257 -329q-70 0 -123 32q-19 -15 -33.5 -45.5t-14.5 -68.5q0 -39 26 -61.5 t76 -22.5h112q137 0 197.5 -51.5t60.5 -155.5q0 -77 -27.5 -132.5t-76 -85t-103 -43t-118.5 -13.5q-122 0 -186 44.5t-64 123.5q0 94 82 222q4 8 4 14q0 9 -7 13q-47 20 -68.5 42t-21.5 66q0 15 1.5 28.5t2.5 24t5 22t5.5 18.5t7.5 18t8 15t10 15t9 13t10.5 14t10.5 13 q7 10 7 18q0 10 -6 16q-78 98 -78 235zM210 682q0 -115 37 -177.5t109 -62.5q71 0 100.5 60t29.5 169t-37 180.5t-107 71.5q-68 0 -100 -67.5t-32 -173.5zM215 -100q0 -50 27.5 -79.5t99.5 -29.5q202 0 202 174q0 127 -139 127h-115q-19 0 -47 -65t-28 -127z" />
<glyph unicode="h" horiz-adv-x="728" d="M101 50v1334q0 54 24 54h87q25 0 25 -54v-523q0 -12 4 -12q3 0 6 5q31 85 84 124.5t108 39.5q66 0 108 -36.5t67 -135t25 -264.5v-532q0 -50 -25 -50h-87q-12 0 -18 10t-6 40v556q0 156 -27 227.5t-82 71.5q-64 0 -110.5 -91t-46.5 -219v-545q0 -30 -6 -40t-18 -10h-88 q-12 0 -18 10t-6 40z" />
<glyph unicode="i" horiz-adv-x="349" d="M103 1218v104q0 30 6 41t18 11h99q23 0 23 -52v-104q0 -30 -5.5 -40.5t-17.5 -10.5h-99q-12 0 -18 10.5t-6 40.5zM108 61v885q0 60 25 60h87q24 0 24 -60v-885q0 -61 -24 -61h-87q-25 0 -25 61z" />
<glyph unicode="j" horiz-adv-x="427" d="M35 -242q0 42 23 42h39q37 0 53.5 45t16.5 156v945q0 60 24 60h87q25 0 25 -60v-946q0 -86 -8.5 -145.5t-22 -93.5t-38 -53t-47.5 -24t-59 -5h-70q-23 0 -23 47v32zM161 1218v104q0 52 25 52h98q12 0 18 -11t6 -41v-104q0 -30 -6 -40.5t-18 -10.5h-98q-13 0 -19 10.5 t-6 40.5z" />
<glyph unicode="k" horiz-adv-x="683" d="M104 63v1312q0 63 24 63h88q24 0 24 -63v-853q0 -14 5 -14q2 1 3 3q30 70 69 142t90.5 160.5t76.5 134.5q32 58 50 58h94q10 0 10 -21q0 -16 -11 -36l-198 -365q-4 -10 -4 -16q0 -3 4 -15l214 -492q8 -19 8 -34q0 -27 -11 -27h-100q-16 0 -39 54l-181 431q-4 10 -8 10 q-3 0 -6 -7q-7 -9 -21.5 -42.5t-26.5 -62.5l-12 -29q-6 -15 -6 -40v-251q0 -63 -24 -63h-88q-24 0 -24 63z" />
<glyph unicode="l" horiz-adv-x="376" d="M140 58v1317q0 63 25 63h87q24 0 24 -63v-1317q0 -58 -24 -58h-87q-25 0 -25 58z" />
<glyph unicode="m" horiz-adv-x="1071" d="M101 63v872q0 71 23 71h26q24 0 30 -58l15 -143q2 -13 7 -13q2 0 6 14q51 212 192 212q64 0 108 -46t70 -155q3 -7 5 -7q4 0 6 7q26 102 79 151.5t111 49.5q38 0 66.5 -9.5t55 -36t43.5 -72t27 -120t10 -176.5v-541q0 -63 -25 -63h-87q-24 0 -24 63v570 q0 155 -22.5 213.5t-72.5 58.5q-59 0 -99.5 -83.5t-40.5 -223.5v-535q0 -63 -24 -63h-87q-25 0 -25 63v561q0 158 -24 219.5t-74 61.5q-44 0 -76 -46.5t-47.5 -116.5t-15.5 -151v-528q0 -63 -25 -63h-86q-25 0 -25 63z" />
<glyph unicode="n" horiz-adv-x="724" d="M101 50v894q0 62 24 62h19q14 0 21.5 -9t12.5 -40l16 -131q3 -11 7 -11t6 11q16 59 41.5 99t56 59t58 26.5t60.5 7.5q69 0 112.5 -34.5t68.5 -128t25 -252.5v-553q0 -30 -6 -40t-18 -10h-88q-12 0 -18 10t-6 40v574q0 146 -24 213.5t-75 67.5q-67 0 -112 -85.5 t-45 -206.5v-563q0 -30 -6 -40t-18 -10h-87q-25 0 -25 50z" />
<glyph unicode="o" horiz-adv-x="739" d="M81 505q0 98 9.5 176.5t25 131.5t39.5 91.5t47.5 60t55 34t56.5 16t57 3.5q31 0 56.5 -3.5t56.5 -16t54 -34t47 -60t39 -91.5t24.5 -131.5t9.5 -176.5q0 -135 -18.5 -233.5t-45.5 -151.5t-68 -84t-75.5 -39t-79.5 -8t-80 8t-77 39t-69 84t-45.5 151.5t-18.5 233.5z M226 505q0 -126 10 -209t31 -124t44.5 -55.5t58.5 -14.5q34 0 57.5 14.5t44.5 55.5t31.5 124t10.5 209q0 127 -10.5 210t-32 122.5t-44.5 53.5t-57 14t-57.5 -14t-44.5 -54t-31.5 -122.5t-10.5 -209.5z" />
<glyph unicode="p" horiz-adv-x="751" d="M101 -302v1244q0 66 21 66h20q23 0 33 -74q19 -133 19 -138q2 -11 5 -11t6 8q29 113 87.5 169t123.5 56q50 0 94 -29.5t80.5 -88t58 -159.5t21.5 -232q0 -139 -20 -242t-55.5 -162.5t-79.5 -87.5t-98 -28q-53 0 -98.5 41.5t-71.5 120.5q-2 5 -6 5t-4 -11v-447 q0 -67 -24 -67h-89q-23 0 -23 67zM237 502q0 -187 41.5 -293.5t105.5 -106.5q41 0 71.5 35.5t50.5 128t20 236.5q0 189 -39.5 296t-102.5 107q-65 0 -106 -111t-41 -292z" />
<glyph unicode="q" horiz-adv-x="743" d="M80 509q0 111 15 200t39.5 145.5t58.5 94.5t70.5 53.5t76.5 15.5q66 0 118.5 -58t81.5 -175q3 -8 6 -8t5 11q0 20 19 153q10 68 33 68h20q21 0 21 -60v-1263q0 -55 -23 -55h-89q-24 0 -24 55v459q0 11 -5 11q-3 0 -5 -5q-27 -80 -71 -121t-97 -41q-250 0 -250 520z M225 502q0 -400 138 -400q64 0 104.5 106t40.5 294q0 181 -40 292t-104 111q-63 0 -101 -106.5t-38 -296.5z" />
<glyph unicode="r" horiz-adv-x="466" d="M101 64v865q0 77 20 77h28q11 0 17 -14t12 -50l18 -138q4 -17 7 -17q4 0 6 17q27 99 68.5 154t86.5 56h16q21 0 29 -11t8 -37v-72q0 -24 -4 -31.5t-16 -7.5q-37 -2 -43 -4q-36 -8 -63.5 -62.5t-40.5 -122t-13 -130.5v-472q0 -64 -24 -64h-87q-25 0 -25 64z" />
<glyph unicode="s" horiz-adv-x="581" d="M40 116q0 18 22 50.5t35 32.5q3 0 5 -2q43 -50 84 -72.5t93 -22.5q63 0 96.5 45t33.5 111q0 63 -33.5 103.5t-110.5 91.5q-47 32 -75 55.5t-57 59.5t-42.5 82t-13.5 106q0 114 62.5 188t163.5 74q118 0 207 -94q4 -4 4 -12q0 -20 -18.5 -51.5t-28.5 -31.5q-2 0 -3 1 q-66 71 -152 71q-52 0 -81 -39.5t-29 -96.5q0 -63 31 -104.5t97 -82.5q47 -29 78 -55t62.5 -64t47 -89t15.5 -114q0 -122 -66 -194.5t-184 -72.5q-141 0 -241 120q-2 4 -2 7z" />
<glyph unicode="t" horiz-adv-x="554" d="M83 924v38q0 44 24 44h64q10 0 11 27l17 354q1 51 25 51h70q12 0 18 -10.5t6 -40.5v-354q0 -27 12 -27h129q12 0 18 -9t6 -35v-38q0 -26 -6 -35t-18 -9h-129q-7 0 -9.5 -3t-2.5 -15v-548q0 -84 14.5 -130t33 -57.5t47.5 -11.5h69q27 0 27 -30v-53q0 -34 -29 -34h-94 q-37 0 -65 6.5t-55.5 26.5t-45 54.5t-28 92t-10.5 136.5v548q0 18 -11 18h-64q-24 0 -24 44z" />
<glyph unicode="u" horiz-adv-x="756" d="M123 373v583q0 30 6 40t18 10h87q13 0 19 -10t6 -40v-619q0 -130 27.5 -182.5t81.5 -52.5q64 0 107 86.5t43 192.5v575q0 30 6 40t19 10h86q13 0 19 -10t6 -40v-893q0 -63 -23 -63h-20q-14 0 -21.5 9t-12.5 41l-18 141q-2 13 -7 13q-2 0 -6 -14q-26 -107 -81 -154 t-122 -47q-50 0 -87 15.5t-68.5 55t-48 118t-16.5 195.5z" />
<glyph unicode="v" horiz-adv-x="664" d="M72 972q0 34 14 34h92q23 0 33 -62l122 -724q3 -9 5 -9t4 9l124 724q10 62 35 62h80q14 0 14 -31q0 -7 -4 -33l-169 -875q-13 -66 -37 -66h-106q-21 0 -34 66l-170 874q-3 12 -3 31z" />
<glyph unicode="w" horiz-adv-x="916" d="M55 970q0 36 16 36h76q22 0 32 -64l106 -718q4 -10 5 -10q2 0 4 9l107 720q10 63 33 63h68q18 0 29 -63l116 -721q1 -7 4 -7t3 8l88 720q7 63 33 63h71q15 0 15 -33q0 -15 -4 -32l-128 -881q-10 -60 -36 -60h-85q-26 0 -36 61l-103 657q-1 7 -3 7q-3 0 -5 -7l-103 -657 q-10 -61 -36 -61h-78q-25 0 -34 60l-152 880q-3 16 -3 30z" />
<glyph unicode="x" horiz-adv-x="643" d="M49 978q0 28 10 28h95q11 0 18 -11.5t18 -38.5l127 -325q3 -7 6 -7q4 0 7 6l113 328q16 48 41 48h88q9 0 9 -25q0 -14 -4 -21q-14 -36 -89.5 -208t-87.5 -201q-4 -8 -4 -15t4 -17q147 -349 196 -471q4 -8 4 -20q0 -28 -9 -28h-79q-12 0 -24.5 14t-20.5 36 q-5 11 -30.5 71.5t-57.5 135.5t-46 108q-4 8 -8 8q-2 0 -9 -8q-16 -40 -65 -171.5t-55 -146.5q-23 -47 -45 -47h-91q-8 0 -8 26q0 15 2 20q82 201 182 427q2 6 2 14q0 6 -2 16q-65 153 -183 455q-4 10 -4 20z" />
<glyph unicode="y" horiz-adv-x="660" d="M66 969q0 37 15 37h95q27 0 35 -50l151 -684q4 -11 5 -11q4 0 4 11l124 681q7 53 33 53h68q17 0 17 -40q0 -2 -3 -23l-180 -929q-28 -155 -70.5 -214t-112.5 -62h-13q-80 0 -104 40q-5 9 -5 36q0 62 22 62q3 0 34 -9t43 -9q27 0 50.5 46t23.5 112q0 26 -20 110l-210 821 q-2 14 -2 22z" />
<glyph unicode="z" horiz-adv-x="540" d="M76 22v83q0 25 14 64l248 712h-249q-12 0 -12 25v76q0 24 12 24h369q6 0 11.5 -6t5.5 -18v-96q0 -27 -10 -57l-245 -713h254q12 0 12 -24v-69q0 -23 -12 -23h-381q-17 0 -17 22z" />
<glyph unicode="{" horiz-adv-x="518" d="M95 708v40q0 36 10 47t38 12q24 1 36.5 20.5t18 60t6.5 116.5v169q1 156 16 236.5t42.5 107t78.5 26.5h70q12 0 19.5 -14t7.5 -37v-24q0 -28 -9.5 -40t-34.5 -12q-36 0 -44 -40.5t-9 -217.5v-182q0 -115 -13.5 -172t-54.5 -70q-3 -1 -3.5 -6.5t3.5 -7.5q41 -13 53.5 -66 t12.5 -163v-181q1 -186 9 -230t46 -44q25 0 34.5 -12t9.5 -40v-24q0 -23 -7.5 -37t-19.5 -14h-70q-52 0 -79.5 30t-42 113t-15.5 239v162q-1 112 -13.5 150t-47.5 39q-28 0 -38 13t-10 53z" />
<glyph unicode="|" horiz-adv-x="313" d="M112 -84v1573q0 66 28 66h34q26 0 26 -66v-1573q0 -66 -26 -66h-34q-28 0 -28 66z" />
<glyph unicode="}" horiz-adv-x="518" d="M95 -16q0 28 9 40t34 12q37 0 44.5 39.5t8.5 218.5v182q1 116 14 172.5t54 69.5q4 1 4 6.5t-4 7.5q-40 13 -52.5 66t-13.5 163v181q0 185 -8.5 229.5t-46.5 44.5q-25 0 -34 12t-9 40v24q0 23 7.5 37t18.5 14h70q52 0 80 -30.5t42 -112.5t15 -239v-162q1 -112 14 -150 t48 -39q28 0 38 -13t10 -53v-40q0 -36 -10.5 -47t-37.5 -12q-35 -1 -47 -43t-14 -155q-1 -7 -1 -168q-1 -155 -16 -236t-42.5 -107.5t-78.5 -26.5h-70q-11 0 -18.5 14t-7.5 37v24z" />
<glyph unicode="~" horiz-adv-x="816" d="M48 610v9q0 13 15.5 25t29.5 12q5 0 8.5 -1t6.5 -4t4 -4.5t4 -6.5l2 -4q38 -60 63 -77t68 -17q38 0 163.5 57.5t170.5 57.5q34 0 58.5 -8t46.5 -31t34.5 -42.5t38.5 -63.5q7 -11 7 -27q0 -26 -7.5 -35.5t-33.5 -11.5q-18 -3 -31 20q-4 5 -16.5 22.5t-17.5 22.5t-16 15 t-22.5 13t-26.5 3q-38 0 -98 -29t-126.5 -58t-119.5 -29q-29 0 -52 5t-42.5 19.5t-31 24t-27 35t-20.5 35t-21 40.5q-11 17 -11 33z" />
<glyph unicode="&#xa1;" horiz-adv-x="366" d="M101 1296v133q0 53 26 53h117q27 0 27 -53v-133q0 -52 -27 -52h-117q-26 0 -26 52zM110 63v8l41 907q3 72 21 72h27q17 0 20 -72l42 -907v-9q0 -28 -7.5 -45t-19.5 -17h-97q-10 0 -18.5 17.5t-8.5 45.5z" />
<glyph unicode="&#xa2;" horiz-adv-x="558" d="M81 508q0 125 16 218t41.5 147.5t62.5 87.5t73 44.5t80 12.5v164q0 50 22 50h21q22 0 22 -50v-169q82 -10 82 -30v-86q0 -4 -3.5 -9t-6.5 -5q-5 1 -32 8t-40 8v-791q28 2 71 16q3 -1 7.5 -7.5t4.5 -10.5v-80q0 -6 -3 -10.5t-9.5 -8t-12 -5.5t-16 -4t-15 -3t-15.5 -2 t-12 -1v-126q0 -53 -22 -53h-21q-22 0 -22 53v123q-45 2 -80 13.5t-73 45t-63 88t-41 149.5t-16 223zM225 508q0 -149 18.5 -238t44.5 -120.5t66 -39.5v787q-28 -6 -48.5 -24.5t-40 -59t-30 -117.5t-10.5 -188z" />
<glyph unicode="&#xa3;" horiz-adv-x="926" d="M43 43v34q0 25 9.5 34.5t37.5 9.5h98q19 0 24 4t5 19v485q0 43 -29 43h-103q-42 0 -42 43v28q0 44 42 44h129q0 11 -0.5 74.5t-0.5 75.5q0 62 2.5 107.5t9 98t19 90.5t31.5 76.5t48.5 64.5t68.5 47t92 31t119 10q135 0 232 -55q22 -12 32.5 -21.5t10.5 -25.5q0 -7 -1 -11 l-11 -50q-6 -20 -16.5 -24t-30.5 3q-12 3 -43.5 17.5t-70.5 24t-90 9.5q-53 0 -89.5 -7.5t-63.5 -28.5t-43 -49.5t-25.5 -78.5t-12.5 -107.5t-3 -143.5v-127h303q40 0 40 -44v-28q0 -43 -40 -43h-305v-507q0 -29 5 -36.5t27 -7.5h428q20 0 28.5 -8t8.5 -30v-50 q0 -20 -8 -26.5t-29 -6.5h-746q-28 0 -37.5 9t-9.5 34z" />
<glyph unicode="&#xa4;" horiz-adv-x="1117" d="M107 1004q0 173 105 293l-24 23q-34 34 -34 50q0 11 11 21l28 28q12 12 26 12q16 0 48 -32l30 -29q60 38 120 57t141 19t142 -19t121 -57l28 28q33 33 50 33q12 0 24 -12l29 -28q10 -11 10 -21q0 -17 -33 -50l-24 -23q105 -120 105 -293q0 -170 -103 -288l22 -22 q33 -33 33 -49q0 -12 -13 -24l-28 -29q-11 -11 -21 -11q-18 0 -50 34l-27 28q-60 -39 -121 -58.5t-144 -19.5t-143.5 19t-120.5 59l-27 -28q-34 -34 -49 -34q-12 0 -22 11l-28 28q-12 12 -12 25q0 15 32 49l22 22q-103 117 -103 288zM211 1001q0 -63 19.5 -122t59 -110.5 t109 -82.5t159.5 -31t159.5 31t108.5 82.5t58.5 110.5t19.5 122q0 67 -19.5 127t-58.5 111.5t-108 82t-160 30.5t-160 -30.5t-108.5 -82t-59 -111.5t-19.5 -127z" />
<glyph unicode="&#xa5;" horiz-adv-x="693" d="M37 1411q0 27 18 27h99q30 0 42 -48l156 -649h10l156 648q4 22 15.5 35.5t23.5 13.5h83q18 0 18 -29q0 -14 -5 -30l-182 -684h94q12 0 17.5 -7.5t5.5 -29.5v-52q0 -22 -5.5 -29.5t-17.5 -7.5h-120l-9 -96h126q12 0 17 -7.5t5 -29.5v-52q0 -22 -5 -29.5t-17 -7.5h-133 v-295q0 -30 -6 -41t-18 -11h-112q-12 0 -18 11t-6 41v295h-141q-12 0 -17 7t-5 30v52q0 23 5 30t17 7h133l-9 96h-124q-12 0 -17 7t-5 30v52q0 23 5 30t17 7h98l-184 684q-5 17 -5 32z" />
<glyph unicode="&#xa6;" horiz-adv-x="406" d="M157 -52v577q0 56 24 56h43q25 0 25 -56v-577q0 -56 -25 -56h-43q-24 0 -24 56zM157 899v580q0 56 24 56h43q25 0 25 -56v-580q0 -56 -25 -56h-43q-24 0 -24 56z" />
<glyph unicode="&#xa7;" horiz-adv-x="789" d="M109 123l16 46q4 13 16 20.5t20 2.5q61 -51 117.5 -74.5t131.5 -23.5q80 0 121.5 50t41.5 127q0 74 -43 116t-133 73q-45 14 -71.5 24.5t-62 27.5t-56 37t-41 48.5t-29.5 67.5t-9 87q0 135 91 204q-91 81 -91 218q0 76 24 132t64.5 86.5t86.5 44.5t97 14q72 0 126.5 -18 t107.5 -61q4 -3 8.5 -13.5t4.5 -17.5l-19 -50q-4 -11 -16 -16t-19 0q-46 36 -82 51t-98 15q-164 0 -164 -153q0 -68 38 -103.5t130 -67.5q40 -13 64 -22t57 -24t52 -30t41 -38.5t33.5 -51t19 -65t7.5 -83.5q0 -123 -85 -203q85 -87 85 -220q0 -294 -292 -294 q-163 0 -279 103q-11 9 -11 34zM235 768q0 -63 44 -100.5t138 -72.5q33 -10 110 -38q23 13 42 56.5t19 84.5q0 74 -46 113t-145 70q-64 14 -97 27q-65 -41 -65 -140z" />
<glyph unicode="&#xa8;" horiz-adv-x="298" d="M40 57v57q0 27 7.5 42t19.5 15h55q12 0 19.5 -15t7.5 -42v-57q0 -27 -7.5 -42t-19.5 -15h-55q-12 0 -19.5 15t-7.5 42zM264 57v57q0 27 7.5 42t18.5 15h55q12 0 19.5 -15t7.5 -42v-57q0 -27 -7.5 -42t-19.5 -15h-55q-11 0 -18.5 15t-7.5 42z" />
<glyph unicode="&#xa9;" horiz-adv-x="1401" d="M93 720q0 118 22.5 225.5t71 201t119 162t171.5 108t223 39.5q123 0 224.5 -39.5t171.5 -108t118.5 -162t71 -201t22.5 -225.5t-22.5 -225.5t-71 -201t-118.5 -161.5t-171.5 -107.5t-224.5 -39.5q-122 0 -223 39.5t-171.5 107.5t-119 161.5t-71 201t-22.5 225.5zM199 716 q0 -95 16.5 -183t54.5 -171.5t95 -145.5t144 -99t194 -37t194 37t143.5 99t94.5 145.5t54.5 171.5t16.5 183q0 98 -16.5 188t-54.5 174t-94.5 145.5t-143.5 98.5t-194 37q-108 0 -194.5 -37t-143.5 -98.5t-95 -145.5t-54.5 -174t-16.5 -188zM413 728q0 101 26 178t69.5 121 t94 65.5t105.5 21.5q113 0 188 -63q9 -7 9 -28q0 -19 -9 -37.5t-20 -18.5q-2 0 -6 2q-80 53 -143 53q-97 0 -154.5 -76.5t-57.5 -218.5q0 -151 59.5 -223.5t151.5 -72.5q20 0 36 2t31 7t23.5 8.5t24.5 12t23 11.5q2 1 6 1q12 0 22.5 -18.5t10.5 -38.5q0 -23 -14 -30 q-50 -27 -84.5 -37.5t-87.5 -10.5q-130 0 -217 99t-87 291z" />
<glyph unicode="&#xaa;" horiz-adv-x="699" d="M130 814q0 61 16 109t42 77.5t57.5 50t65.5 30.5t61.5 15.5t49.5 9.5t27 8v44q0 93 -20.5 141.5t-76.5 48.5q-49 0 -72.5 -27.5t-41.5 -87.5q-8 -24 -22 -21q-64 16 -67 24q-8 8 1 43q22 78 69.5 118.5t138.5 40.5q101 0 150.5 -73.5t49.5 -244.5v-457q0 -39 -17 -39h-19 q-15 0 -22 32q-22 90 -25 118q-2 11 -6 0q-20 -78 -61.5 -119t-113.5 -41q-81 0 -122.5 52t-41.5 148zM230 823q0 -123 86 -123q63 0 99 81.5t36 200.5q0 56 -5 56q-1 0 -18 -2.5t-18 -3.5q-96 -22 -138 -74.5t-42 -134.5z" />
<glyph unicode="&#xab;" horiz-adv-x="778" d="M77 664q0 71 11 81q0 8 55.5 67.5t83.5 87.5q1 2 77 82t77 80h1l2 1q9 0 12 -17q6 0 6 -85q0 -41 -11 -58q0 -6 -8 -18t-21 -26t-24.5 -25.5t-24 -23t-13.5 -12.5q-4 -4 -68.5 -75t-64.5 -73q-2 -7 0 -14q0 -2 39 -39.5t41 -38.5q1 -2 37.5 -43t70 -83t33.5 -51 q14 -13 14 -105q0 -10 -2.5 -23t-4.5 -13q-1 -15 -6 -15q-1 0 -1 0.5t-1 0.5l-134 134q-162 182 -162 198q-14 14 -14 106zM387 664q0 71 10 81q0 8 55.5 67.5t83.5 87.5l39 41q39 41 77 81l39 40h1l2 1q8 0 11 -17q6 0 6 -85q0 -44 -11 -58q0 -8 -13 -25t-28 -32t-31 -30.5 t-18 -17.5q-2 -1 -68 -73.5t-66 -74.5q-2 -8 1 -14q0 -2 38.5 -39.5t40.5 -38.5q1 -1 25 -28t49 -56t46.5 -57.5t21.5 -35.5q13 -12 13 -105q0 -10 -2.5 -23t-4.5 -13q-1 -15 -7 -15h-1q-1 0 -14.5 13.5t-32.5 33.5t-38 39t-33 34l-15 15q-162 182 -162 198q-14 13 -14 106z " />
<glyph unicode="&#xac;" horiz-adv-x="1012" d="M131 621v44q0 48 45 48h660q52 0 52 -51v-342q0 -59 -45 -59h-66q-46 0 -46 59v225q0 29 -25 29h-530q-45 0 -45 47z" />
<glyph unicode="&#xad;" horiz-adv-x="783" d="M188 525v24q0 37 32 37h359q33 0 33 -36v-24q0 -37 -33 -37h-359q-32 0 -32 36z" />
<glyph unicode="&#xae;" horiz-adv-x="1401" d="M93 720q0 118 22.5 225.5t71 201t119 162t171.5 108t223 39.5q123 0 224.5 -39.5t171.5 -108t118.5 -162t71 -201t22.5 -225.5t-22.5 -225.5t-71 -201t-118.5 -161.5t-171.5 -107.5t-224.5 -39.5q-122 0 -223 39.5t-171.5 107.5t-119 161.5t-71 201t-22.5 225.5zM199 716 q0 -95 16.5 -183t54.5 -171.5t95 -145.5t144 -99t194 -37t194 37t143.5 99t94.5 145.5t54.5 171.5t16.5 183q0 98 -16.5 188t-54.5 174t-94.5 145.5t-143.5 98.5t-194 37q-108 0 -194.5 -37t-143.5 -98.5t-95 -145.5t-54.5 -174t-16.5 -188zM488 376v704q0 31 17 31h185 q46 0 74 -2.5t62.5 -13.5t53.5 -32t32.5 -60.5t13.5 -96.5q0 -152 -98 -175q-3 0 -3 -3l3 -2q97 -37 100 -188q2 -26 2 -163q0 -29 -12 -29h-61q-15 0 -16 35q0 34 -5.5 126t-8.5 98q-6 55 -33.5 72.5t-83.5 17.5h-124q-6 0 -6 -13v-306q0 -30 -16 -30h-59q-17 0 -17 30z M580 785q0 -11 5 -11h141q62 0 87 27.5t25 103.5q0 83 -32 106.5t-107 23.5h-113q-6 0 -6 -11v-239z" />
<glyph unicode="&#xaf;" horiz-adv-x="783" d="M188 525v24q0 37 32 37h359q33 0 33 -36v-24q0 -37 -33 -37h-359q-32 0 -32 36z" />
<glyph unicode="&#xb0;" horiz-adv-x="1061" d="M355 1256q0 52 17.5 89.5t46 56.5t58.5 27.5t62 8.5t61 -8.5t58 -27.5t46 -56.5t17 -89.5q0 -50 -18.5 -87t-47.5 -56.5t-58 -28.5t-58 -9t-59 9t-59 28t-47.5 56.5t-18.5 87.5zM430 1256q0 -61 32.5 -90t76.5 -29q43 0 75 29t32 90q0 65 -32 92t-75 27q-45 0 -77 -26.5 t-32 -92.5z" />
<glyph unicode="&#xb1;" horiz-adv-x="801" d="M118 165v25q0 25 8 32.5t23 7.5h513q10 0 15.5 -2t10.5 -11.5t5 -26.5v-25q0 -24 -8 -31.5t-23 -7.5h-513q-15 0 -23 7.5t-8 31.5zM118 678v25q0 25 8 32.5t23 7.5h183q8 0 11.5 4t3.5 18v195q0 28 8 36.5t25 8.5h55q16 0 23.5 -8.5t7.5 -36.5v-195q0 -14 4 -18t13 -4 h180q10 0 15.5 -2t10.5 -11.5t5 -26.5v-25q0 -24 -8 -31.5t-23 -7.5h-180q-9 0 -13 -4t-4 -18v-203q0 -28 -7.5 -36.5t-23.5 -8.5h-55q-17 0 -25 8.5t-8 36.5v203q0 14 -3.5 18t-11.5 4h-183q-15 0 -23 7.5t-8 31.5z" />
<glyph unicode="&#xb2;" horiz-adv-x="555" d="M37 1369q0 21 7 30q98 54 216 54q51 0 94 -12.5t81.5 -40.5t60.5 -81.5t22 -127.5q0 -77 -30 -149t-75 -135t-91.5 -128.5t-87 -156t-54.5 -191.5q-2 -5 1 -24.5t7 -19.5h279q14 0 14 -34v-29q0 -33 -15 -33h-395q-20 0 -20 46q0 45 1 49q5 114 42 216t86 174.5t97 138 t81.5 134t33.5 134.5q0 78 -36 121t-98 43q-33 0 -64 -6t-48.5 -12t-43.5 -17t-37 -15q-10 -10 -12 8q-16 41 -16 64z" />
<glyph unicode="&#xb3;" horiz-adv-x="521" d="M38 1383q0 31 13 40q71 43 178 43q245 0 245 -312q0 -222 -158 -264q165 -33 165 -293q0 -86 -22 -148t-60.5 -94.5t-83.5 -47t-99 -14.5q-111 0 -163 37q-11 9 -11 40q0 9 2.5 30.5t5.5 21.5q0 5 0.5 7.5t1.5 5.5t2.5 2t3.5 -2q61 -37 144 -37q85 0 124.5 54t39.5 168 q-1 119 -43.5 167t-137.5 48q-12 0 -16 5.5t-4 19.5v66q0 20 20 20h7.5h12h7.5q75 2 110 52.5t35 149.5q0 115 -36 164t-107 49q-92 0 -160 -40q-6 -5 -7 7l-1 6q-2 0 -5 21.5t-3 27.5z" />
<glyph unicode="&#xb4;" horiz-adv-x="596" d="M354 1200q0 21 1 35l21 319q2 32 8 43.5t18 11.5h73q10 0 10 -28q0 -13 -4 -37l-63 -337q-7 -39 -19 -39h-30q-15 0 -15 32z" />
<glyph unicode="&#xb6;" horiz-adv-x="1134" d="M154 1131q0 165 108 236t355 71q183 0 289 -24q21 -4 30.5 -15.5t11.5 -24t2 -38.5v-1265q0 -72 -49 -72h-25q-49 0 -49 72v729q0 9 -5.5 15t-13.5 6h-137v-750q0 -72 -48 -72h-30q-49 0 -49 72v750h-23q-68 0 -130 16.5t-116.5 51.5t-87.5 97.5t-33 144.5z" />
<glyph unicode="&#xb8;" horiz-adv-x="457" d="M115 -436q0 91 26 91h42q19 0 19 -33q0 -10 -2 -28.5t-2 -24.5q0 -41 16.5 -67.5t47.5 -26.5q63 0 63 146q0 58 -22.5 113.5t-46.5 55.5h-24h-2.5t-4.5 2.5t-3 7.5v55q0 17 10 17h51q50 0 87.5 -74t37.5 -160q0 -122 -35.5 -179t-115.5 -57q-62 0 -102 42t-40 120z" />
<glyph unicode="&#xb9;" horiz-adv-x="341" d="M47 1296v62q0 25 19 29l182 48q8 2 11 2q16 0 16 -34v-1061q0 -54 -20 -54h-91q-18 0 -18 54v920q0 12 -3 17.5t-8 3.5q-69 -17 -70 -17q-9 -2 -13.5 5t-4.5 25z" />
<glyph unicode="&#xba;" horiz-adv-x="739" d="M139 1028q0 108 15 187t36.5 121t55 66t61 30t64.5 6q36 0 63.5 -6t60.5 -30t54.5 -66t36 -121t14.5 -187t-14.5 -186.5t-36 -121t-54.5 -67.5t-60.5 -31.5t-63.5 -6.5q-30 0 -53.5 5t-52 18.5t-49.5 42.5t-39.5 73t-28 113.5t-9.5 160.5zM255 1028q0 -133 16 -206.5 t38.5 -95t60.5 -21.5q27 0 46 12t36 44.5t25 99t8 167.5q0 102 -8.5 168t-25.5 98t-35.5 43t-45.5 11t-45.5 -11t-35.5 -43t-25.5 -98.5t-8.5 -167.5z" />
<glyph unicode="&#xbb;" horiz-adv-x="778" d="M77 261v80q0 54 24 82l209 197q4 4 4 14t-4 14l-209 212q-24 27 -24 85v80q0 42 13 42q5 0 11 -8l276 -287q24 -26 24 -85l1 -103q0 -59 -25 -83l-277 -270q-10 -8 -11 -8q-12 0 -12 38zM387 261v80q0 55 24 82l208 197q4 4 4 14t-3 14l-210 212q-23 27 -23 85v80 q0 42 12 42q5 0 11 -8l277 -287q24 -26 24 -85v-103q0 -60 -24 -83l-277 -270q-10 -8 -12 -8q-11 0 -11 38z" />
<glyph unicode="&#xbc;" horiz-adv-x="1926" d="M258 1296v62q0 25 19 29l182 48q8 2 11 2q16 0 16 -34v-1061q0 -54 -20 -54h-91q-18 0 -18 54v920q0 12 -3 17.5t-8 3.5q-69 -17 -70 -17q-9 -2 -13.5 5t-4.5 25zM658 143q0 1 0.5 3.5t0.5 3.5l241 1429q3 27 15 27h59q7 0 7 -19q0 -1 -0.5 -4t-0.5 -4l-240 -1429 q-3 -27 -14 -27l-61 1q-7 0 -7 19zM1113 559q0 7 1 11l112 815q5 30 10.5 41.5t19.5 11.5h50q25 0 25 -39q0 -9 -1 -14l-84 -733q-3 -21 15 -21h205v761q0 46 30 46h56q29 0 29 -46v-761h115q21 0 29.5 -9t8.5 -31v-36q0 -22 -8.5 -30.5t-29.5 -8.5h-115v-183q0 -45 -29 -45 h-56q-30 0 -30 45v183h-309q-19 0 -31.5 11.5t-12.5 31.5z" />
<glyph unicode="&#xbd;" horiz-adv-x="1788" d="M239 1299v62q0 25 19 29l182 48q8 2 11 2q15 0 15 -34v-1061q0 -54 -19 -54h-91q-18 0 -18 54v920q0 11 -3.5 17t-8.5 4q-68 -17 -69 -17q-9 -2 -13.5 5t-4.5 25zM639 146q0 1 0.5 3.5t0.5 3.5l241 1429q3 27 15 27h59q7 0 7 -19q0 -1 -0.5 -3.5t-0.5 -4.5l-240 -1429 q-3 -27 -15 -27l-60 1q-7 0 -7 19zM1079 1369q0 21 7 30q98 54 216 54q51 0 94 -12.5t81.5 -40.5t60.5 -81.5t22 -127.5q0 -77 -30 -149t-75 -135t-91.5 -128.5t-87 -156t-54.5 -191.5q-2 -5 1 -24.5t7 -19.5h279q14 0 14 -34v-29q0 -33 -15 -33h-395q-20 0 -20 46 q0 45 1 49q5 114 42 216t86 174.5t97 138t81.5 134t33.5 134.5q0 78 -36 121t-98 43q-33 0 -64 -6t-48.5 -12t-43.5 -17t-37 -15q-10 -10 -12 8q-16 41 -16 64z" />
<glyph unicode="&#xbe;" horiz-adv-x="2102" d="M264 1383q0 31 13 40q71 43 178 43q245 0 245 -312q0 -222 -158 -264q165 -33 165 -293q0 -86 -22 -148t-60.5 -94.5t-83.5 -47t-99 -14.5q-111 0 -163 37q-11 9 -11 40q0 9 2.5 30.5t5.5 21.5q0 5 0.5 7.5t1.5 5.5t2.5 2t3.5 -2q61 -37 144 -37q85 0 124.5 54t39.5 168 q-1 119 -43.5 167t-137.5 48q-12 0 -16 5.5t-4 19.5v66q0 20 20 20h7.5h12h7.5q75 2 110 52.5t35 149.5q0 115 -36 164t-107 49q-92 0 -160 -40q-6 -5 -7 7l-1 6q-2 0 -5 21.5t-3 27.5zM846 143q0 1 0.5 3.5t0.5 3.5l241 1429q3 27 15 27h60q6 0 6 -17q0 -7 -1 -10 l-240 -1429q-3 -27 -14 -27l-61 1q-7 0 -7 19zM1270 559q0 7 1 11l112 815q5 30 10.5 41.5t19.5 11.5h50q26 0 26 -40q0 -9 -1 -13l-85 -733q-3 -21 15 -21h206v761q0 46 29 46h56q29 0 29 -46v-761h115q21 0 30 -9t9 -31v-36q0 -22 -9 -30.5t-30 -8.5h-115v-183 q0 -45 -29 -45h-56q-29 0 -29 45v183h-310q-19 0 -31.5 11.5t-12.5 31.5z" />
<glyph unicode="&#xbf;" horiz-adv-x="805" d="M108 71q0 127 75 230t190 168q47 27 73.5 66t54.5 105q13 17 23 17q9 0 17 -9q25 -40 27 -54q13 -19 -6 -45q-36 -84 -69 -121.5t-109 -88.5q-71 -47 -107.5 -116t-36.5 -149q1 -110 60.5 -176t149.5 -66q112 0 217 71q16 11 29 -18q8 0 18.5 -28t10.5 -40q0 -32 -27 -46 q-126 -79 -251 -79q-149 0 -242 95.5t-97 283.5zM434 1005v86q0 29 11.5 44.5t29.5 15.5h83q18 0 29.5 -16t11.5 -44v-86q0 -29 -11.5 -44.5t-29.5 -15.5h-83q-41 0 -41 60z" />
<glyph unicode="&#xc0;" d="M55 30v14q0 10 1 16l235 1326q10 52 36 52h155q27 0 36 -52l227 -1326q0 -5 2.5 -15.5t2.5 -15.5q0 -29 -16 -29h-124q-27 0 -34 45l-41 269q-4 17 -9 17h-274q-4 0 -8 -18l-46 -268q-5 -27 -12 -36t-19 -9h-97q-15 0 -15 30zM269 451q0 -15 13 -15h233q5 0 5 14 q0 6 -2 7l-116 795l-2 6q-3 0 -3 -5l-127 -793q-1 -4 -1 -9zM302 1988q0 28 10 28h74q11 0 16.5 -11.5t8.5 -43.5l21 -319q1 -14 1 -35q0 -32 -15 -32h-30q-13 0 -20 39l-62 337q-4 24 -4 37z" />
<glyph unicode="&#xc1;" d="M55 30v14q0 10 1 16l235 1326q10 52 36 52h155q27 0 36 -52l227 -1326q0 -5 2.5 -15.5t2.5 -15.5q0 -29 -16 -29h-124q-27 0 -34 45l-41 269q-4 17 -9 17h-274q-4 0 -8 -18l-46 -268q-5 -27 -12 -36t-19 -9h-97q-15 0 -15 30zM269 451q0 -15 13 -15h233q5 0 5 14 q0 6 -2 7l-116 795l-2 6q-3 0 -3 -5l-127 -793q-1 -4 -1 -9zM372 1607q0 21 1 35l21 319q2 32 8 43.5t18 11.5h73q10 0 10 -28q0 -13 -4 -37l-63 -337q-7 -39 -19 -39h-30q-15 0 -15 32z" />
<glyph unicode="&#xc2;" d="M55 30v14q0 10 1 16l235 1326q10 52 36 52h155q27 0 36 -52l227 -1326q0 -5 2.5 -15.5t2.5 -15.5q0 -29 -16 -29h-124q-27 0 -34 45l-41 269q-4 17 -9 17h-274q-4 0 -8 -18l-46 -268q-5 -27 -12 -36t-19 -9h-97q-15 0 -15 30zM269 451q0 -15 13 -15h233q5 0 5 14 q0 6 -2 7l-116 795l-2 6q-3 0 -3 -5l-127 -793q-1 -4 -1 -9zM269 1606q0 12 3 21l67 180q25 73 52 73h23q27 0 53 -73l66 -180q4 -14 4 -24q0 -15 -11 -16q0 -5 -12 -8.5t-20 -3.5q-18 0 -32 30l-49 115q-6 14 -11 14q-4 0 -10 -14l-49 -115q-14 -30 -31 -30q-9 0 -21 3.5 t-12 8.5q-10 1 -10 19z" />
<glyph unicode="&#xc3;" d="M55 30v14q0 10 1 16l235 1326q10 52 36 52h155q27 0 36 -52l227 -1326q0 -5 2.5 -15.5t2.5 -15.5q0 -29 -16 -29h-124q-27 0 -34 45l-41 269q-4 17 -9 17h-274q-4 0 -8 -18l-46 -268q-5 -27 -12 -36t-19 -9h-97q-15 0 -15 30zM181 1699q0 15 11 25.5t25 10.5q19 0 36 -27 q20 -47 50 -47q23 0 89 38.5t106 38.5q36 0 61 -24t51 -68q14 -21 14 -36q0 -14 -10 -23.5t-23 -9.5q-14 0 -26.5 11.5t-20 26t-18.5 26t-24 11.5q-18 0 -48.5 -19t-68.5 -38.5t-74 -19.5q-24 0 -43 8t-33.5 24.5t-22 27t-18.5 30.5q-13 19 -13 34zM269 451q0 -15 13 -15 h233q5 0 5 14q0 6 -2 7l-116 795l-2 6q-3 0 -3 -5l-127 -793q-1 -4 -1 -9z" />
<glyph unicode="&#xc4;" d="M55 30v14q0 10 1 16l235 1326q10 52 36 52h155q27 0 36 -52l227 -1326q0 -5 2.5 -15.5t2.5 -15.5q0 -29 -16 -29h-124q-27 0 -34 45l-41 269q-4 17 -9 17h-274q-4 0 -8 -18l-46 -268q-5 -27 -12 -36t-19 -9h-97q-15 0 -15 30zM236 1632v57q0 27 7.5 42t19.5 15h55 q12 0 19.5 -15t7.5 -42v-57q0 -27 -7.5 -42t-19.5 -15h-55q-12 0 -19.5 15t-7.5 42zM269 451q0 -15 13 -15h233q5 0 5 14q0 6 -2 7l-116 795l-2 6q-3 0 -3 -5l-127 -793q-1 -4 -1 -9zM460 1632v57q0 27 7.5 42t18.5 15h55q12 0 19.5 -15t7.5 -42v-57q0 -27 -7.5 -42 t-19.5 -15h-55q-11 0 -18.5 15t-7.5 42z" />
<glyph unicode="&#xc5;" d="M55 30v14q0 10 1 16l235 1326q10 52 36 52h155q27 0 36 -52l227 -1326q0 -5 2.5 -15.5t2.5 -15.5q0 -29 -16 -29h-124q-27 0 -34 45l-41 269q-4 17 -9 17h-274q-4 0 -8 -18l-46 -268q-5 -27 -12 -36t-19 -9h-97q-15 0 -15 30zM219 1622q0 52 17.5 89.5t46 56.5t58.5 27.5 t62 8.5t61 -8.5t58 -27.5t46 -56.5t17 -89.5q0 -50 -18.5 -87t-47.5 -56.5t-58 -28.5t-58 -9t-59 9t-59 28t-47.5 56.5t-18.5 87.5zM269 451q0 -15 13 -15h233q5 0 5 14q0 6 -2 7l-116 795l-2 6q-3 0 -3 -5l-127 -793q-1 -4 -1 -9zM294 1622q0 -61 32.5 -90t76.5 -29 q43 0 75 29t32 90q0 65 -32 92t-75 27q-45 0 -77 -26.5t-32 -92.5z" />
<glyph unicode="&#xc6;" horiz-adv-x="1011" d="M54 45q0 7 3 15l354 1326q12 52 40 52h454q8 0 12.5 -1.5t8 -10t3.5 -24.5v-56q0 -17 -3.5 -25t-7.5 -9.5t-13 -1.5h-207q-11 0 -11 -31v-455q0 -7 3 -14.5t5 -7.5h186q13 0 19 -8t6 -31v-55q0 -41 -25 -41h-185q-2 0 -5.5 -9.5t-3.5 -16.5v-513h242q9 0 13 -1.5 t7.5 -9.5t3.5 -25v-56q0 -23 -5.5 -29.5t-18.5 -6.5h-378q-9 0 -13.5 2t-8 10.5t-3.5 26.5v292h-240q-5 0 -9 -18l-71 -268q-5 -27 -13 -36t-21 -9h-103q-14 0 -14 30q0 2 -0.5 7t-0.5 8zM311 448q0 -12 13 -12h198q4 0 4 20v829l-1 13q-1 0 -5 -11l-207 -827q-2 -8 -2 -12z " />
<glyph unicode="&#xc7;" horiz-adv-x="699" d="M88 720q0 138 11.5 248.5t31 186.5t50 131.5t62 87t74.5 50t80 24t85 5.5q90 0 148 -26q1 -1 4 -3t5 -5.5t2 -9.5v-97q0 -12 -7 -12q-1 0 -8 2t-18.5 5t-26.5 6.5t-34.5 5.5t-37.5 2q-47 0 -81.5 -10.5t-70 -47t-58 -100.5t-36.5 -175.5t-14 -267.5q0 -158 12 -269.5 t31.5 -176t53 -100.5t66.5 -46.5t81 -10.5q73 0 127 19q1 0 4.5 -7.5t3.5 -9.5v-94q0 -2 -3.5 -9.5t-4.5 -8.5q-56 -21 -145 -21q-37 0 -65 2.5t-62.5 11.5t-60.5 24.5t-54 43t-48.5 65.5t-39.5 93.5t-31 125.5t-19 163t-7 205zM277 -396q0 91 26 91h42q19 0 19 -33 q0 -10 -2 -28.5t-2 -24.5q0 -41 16.5 -67.5t47.5 -26.5q63 0 63 146q0 58 -22.5 113.5t-46.5 55.5h-24h-2.5t-4.5 2.5t-3 7.5v55q0 17 10 17h51q50 0 87.5 -74t37.5 -160q0 -122 -35.5 -179t-115.5 -57q-62 0 -102 42t-40 120z" />
<glyph unicode="&#xc8;" horiz-adv-x="724" d="M112 39v1360q0 24 6 31.5t18 7.5h500q8 0 12.5 -1.5t8 -10t3.5 -24.5v-56q0 -17 -3.5 -25t-7.5 -9.5t-13 -1.5h-352q-11 0 -11 -31v-455q0 -7 3 -14.5t5 -7.5h293q12 0 18 -8t6 -31v-55q0 -24 -6 -32.5t-18 -8.5h-292q-3 0 -6 -9.5t-3 -16.5v-513h366q9 0 13 -1.5 t7.5 -9.5t3.5 -25v-56q0 -23 -5.5 -29.5t-18.5 -6.5h-503q-8 0 -12.5 2t-8 10.5t-3.5 26.5zM286 1988q0 28 10 28h74q11 0 16.5 -11.5t8.5 -43.5l21 -319q1 -14 1 -35q0 -32 -15 -32h-30q-13 0 -20 39l-62 337q-4 24 -4 37z" />
<glyph unicode="&#xc9;" horiz-adv-x="724" d="M112 39v1360q0 24 6 31.5t18 7.5h500q8 0 12.5 -1.5t8 -10t3.5 -24.5v-56q0 -17 -3.5 -25t-7.5 -9.5t-13 -1.5h-352q-11 0 -11 -31v-455q0 -7 3 -14.5t5 -7.5h293q12 0 18 -8t6 -31v-55q0 -24 -6 -32.5t-18 -8.5h-292q-3 0 -6 -9.5t-3 -16.5v-513h366q9 0 13 -1.5 t7.5 -9.5t3.5 -25v-56q0 -23 -5.5 -29.5t-18.5 -6.5h-503q-8 0 -12.5 2t-8 10.5t-3.5 26.5zM358 1607q0 21 1 35l21 319q2 32 8 43.5t18 11.5h73q10 0 10 -28q0 -13 -4 -37l-63 -337q-7 -39 -19 -39h-30q-15 0 -15 32z" />
<glyph unicode="&#xca;" horiz-adv-x="724" d="M112 39v1360q0 24 6 31.5t18 7.5h500q8 0 12.5 -1.5t8 -10t3.5 -24.5v-56q0 -17 -3.5 -25t-7.5 -9.5t-13 -1.5h-352q-11 0 -11 -31v-455q0 -7 3 -14.5t5 -7.5h293q12 0 18 -8t6 -31v-55q0 -24 -6 -32.5t-18 -8.5h-292q-3 0 -6 -9.5t-3 -16.5v-513h366q9 0 13 -1.5 t7.5 -9.5t3.5 -25v-56q0 -23 -5.5 -29.5t-18.5 -6.5h-503q-8 0 -12.5 2t-8 10.5t-3.5 26.5zM253 1606q0 12 3 21l67 180q25 73 52 73h23q27 0 53 -73l66 -180q4 -14 4 -24q0 -15 -11 -16q0 -5 -12 -8.5t-20 -3.5q-18 0 -32 30l-49 115q-6 14 -11 14q-4 0 -10 -14l-49 -115 q-14 -30 -31 -30q-9 0 -21 3.5t-12 8.5q-10 1 -10 19z" />
<glyph unicode="&#xcb;" horiz-adv-x="724" d="M112 39v1360q0 24 6 31.5t18 7.5h500q8 0 12.5 -1.5t8 -10t3.5 -24.5v-56q0 -17 -3.5 -25t-7.5 -9.5t-13 -1.5h-352q-11 0 -11 -31v-455q0 -7 3 -14.5t5 -7.5h293q12 0 18 -8t6 -31v-55q0 -24 -6 -32.5t-18 -8.5h-292q-3 0 -6 -9.5t-3 -16.5v-513h366q9 0 13 -1.5 t7.5 -9.5t3.5 -25v-56q0 -23 -5.5 -29.5t-18.5 -6.5h-503q-8 0 -12.5 2t-8 10.5t-3.5 26.5zM222 1632v57q0 27 7.5 42t19.5 15h55q12 0 19.5 -15t7.5 -42v-57q0 -27 -7.5 -42t-19.5 -15h-55q-12 0 -19.5 15t-7.5 42zM446 1632v57q0 27 7.5 42t18.5 15h55q12 0 19.5 -15 t7.5 -42v-57q0 -27 -7.5 -42t-19.5 -15h-55q-11 0 -18.5 15t-7.5 42z" />
<glyph unicode="&#xcc;" horiz-adv-x="387" d="M94 1988q0 28 10 28h74q11 0 16.5 -11.5t8.5 -43.5l21 -319q1 -14 1 -35q0 -32 -15 -32h-30q-13 0 -20 39l-62 337q-4 24 -4 37zM115 47v1344q0 29 6 38t18 9h112q13 0 19 -8.5t6 -38.5v-1344q0 -30 -6 -38.5t-19 -8.5h-112q-8 0 -12.5 2.5t-8 13.5t-3.5 31z" />
<glyph unicode="&#xcd;" horiz-adv-x="387" d="M115 47v1344q0 29 6 38t18 9h112q13 0 19 -8.5t6 -38.5v-1344q0 -30 -6 -38.5t-19 -8.5h-112q-8 0 -12.5 2.5t-8 13.5t-3.5 31zM166 1607q0 21 1 35l21 319q2 32 8 43.5t18 11.5h73q10 0 10 -28q0 -13 -4 -37l-63 -337q-7 -39 -19 -39h-30q-15 0 -15 32z" />
<glyph unicode="&#xce;" horiz-adv-x="387" d="M61 1606q0 12 3 21l67 180q25 73 52 73h23q27 0 53 -73l66 -180q4 -14 4 -24q0 -15 -11 -16q0 -5 -12 -8.5t-20 -3.5q-18 0 -32 30l-49 115q-6 14 -11 14q-4 0 -10 -14l-49 -115q-14 -30 -31 -30q-9 0 -21 3.5t-12 8.5q-10 1 -10 19zM115 47v1344q0 29 6 38t18 9h112 q13 0 19 -8.5t6 -38.5v-1344q0 -30 -6 -38.5t-19 -8.5h-112q-8 0 -12.5 2.5t-8 13.5t-3.5 31z" />
<glyph unicode="&#xcf;" horiz-adv-x="387" d="M30 1632v57q0 27 7.5 42t19.5 15h55q12 0 19.5 -15t7.5 -42v-57q0 -27 -7.5 -42t-19.5 -15h-55q-12 0 -19.5 15t-7.5 42zM115 47v1344q0 29 6 38t18 9h112q13 0 19 -8.5t6 -38.5v-1344q0 -30 -6 -38.5t-19 -8.5h-112q-8 0 -12.5 2.5t-8 13.5t-3.5 31zM254 1632v57 q0 27 7.5 42t18.5 15h55q12 0 19.5 -15t7.5 -42v-57q0 -27 -7.5 -42t-19.5 -15h-55q-11 0 -18.5 15t-7.5 42z" />
<glyph unicode="&#xd0;" horiz-adv-x="919" d="M12 710v32q0 24 9.5 32.5t31.5 8.5h59v619q0 22 6 29t18 7h326q72 0 127.5 -21t102 -71t77 -130.5t47 -203t16.5 -286.5q0 -137 -8 -242t-22.5 -182t-40 -130.5t-54.5 -87t-72 -52.5t-86.5 -25.5t-104.5 -6.5h-308q-12 0 -18 8t-6 34v627h-59q-22 0 -31.5 8.5t-9.5 32.5z M273 150q0 -22 12 -22h153q92 0 141 51.5t71 178.5t22 367q0 217 -25 346t-74 184t-130 55h-159q-11 0 -11 -20v-507h130q22 0 31.5 -8t9.5 -32v-40q-1 -19 -11 -26.5t-30 -7.5h-130v-519z" />
<glyph unicode="&#xd1;" horiz-adv-x="930" d="M112 52v1335q0 30 6 40.5t19 10.5h111q18 0 31 -33l391 -1003q2 -4 5 5q2 4 2 8v972q0 30 6.5 40.5t19.5 10.5h91q24 0 24 -51v-1341q0 -20 -3.5 -30.5t-8 -13t-12.5 -2.5h-81q-8 0 -20 13t-18 29l-413 1036q-2 6 -6 -4q-1 -3 -1 -6v-1016q0 -30 -6.5 -41t-19.5 -11h-92 q-25 0 -25 52zM244 1699q0 15 11 25.5t25 10.5q19 0 36 -27q20 -47 50 -47q23 0 89 38.5t106 38.5q36 0 61 -24t51 -68q14 -21 14 -36q0 -14 -10 -23.5t-23 -9.5q-14 0 -26.5 11.5t-20 26t-18.5 26t-24 11.5q-18 0 -48.5 -19t-68.5 -38.5t-74 -19.5q-24 0 -43 8t-33.5 24.5 t-22 27t-18.5 30.5q-13 19 -13 34z" />
<glyph unicode="&#xd2;" horiz-adv-x="900" d="M88 725q0 217 20 358t66 223t111 114.5t164 32.5q101 0 166 -31.5t111 -113.5t66 -223t20 -360q0 -184 -13 -312t-39 -212.5t-71 -131t-101.5 -65t-138.5 -18.5q-81 0 -137 19t-101 66t-70.5 131.5t-39 212t-13.5 310.5zM249 725q0 -249 20 -380t61 -180.5t119 -49.5 q79 0 120.5 48t61.5 179t20 383q0 240 -18.5 366t-60.5 178t-122 52q-79 0 -121.5 -54.5t-61 -181t-18.5 -360.5zM349 1988q0 28 10 28h74q11 0 16.5 -11.5t8.5 -43.5l21 -319q1 -14 1 -35q0 -32 -15 -32h-30q-13 0 -20 39l-62 337q-4 24 -4 37z" />
<glyph unicode="&#xd3;" horiz-adv-x="900" d="M88 725q0 217 20 358t66 223t111 114.5t164 32.5q101 0 166 -31.5t111 -113.5t66 -223t20 -360q0 -184 -13 -312t-39 -212.5t-71 -131t-101.5 -65t-138.5 -18.5q-81 0 -137 19t-101 66t-70.5 131.5t-39 212t-13.5 310.5zM249 725q0 -249 20 -380t61 -180.5t119 -49.5 q79 0 120.5 48t61.5 179t20 383q0 240 -18.5 366t-60.5 178t-122 52q-79 0 -121.5 -54.5t-61 -181t-18.5 -360.5zM420 1607q0 21 1 35l21 319q2 32 8 43.5t18 11.5h73q10 0 10 -28q0 -13 -4 -37l-63 -337q-7 -39 -19 -39h-30q-15 0 -15 32z" />
<glyph unicode="&#xd4;" horiz-adv-x="900" d="M88 725q0 217 20 358t66 223t111 114.5t164 32.5q101 0 166 -31.5t111 -113.5t66 -223t20 -360q0 -184 -13 -312t-39 -212.5t-71 -131t-101.5 -65t-138.5 -18.5q-81 0 -137 19t-101 66t-70.5 131.5t-39 212t-13.5 310.5zM249 725q0 -249 20 -380t61 -180.5t119 -49.5 q79 0 120.5 48t61.5 179t20 383q0 240 -18.5 366t-60.5 178t-122 52q-79 0 -121.5 -54.5t-61 -181t-18.5 -360.5zM316 1606q0 12 3 21l67 180q25 73 52 73h23q27 0 53 -73l66 -180q4 -14 4 -24q0 -15 -11 -16q0 -5 -12 -8.5t-20 -3.5q-18 0 -32 30l-49 115q-6 14 -11 14 q-4 0 -10 -14l-49 -115q-14 -30 -31 -30q-9 0 -21 3.5t-12 8.5q-10 1 -10 19z" />
<glyph unicode="&#xd5;" horiz-adv-x="900" d="M88 725q0 217 20 358t66 223t111 114.5t164 32.5q101 0 166 -31.5t111 -113.5t66 -223t20 -360q0 -184 -13 -312t-39 -212.5t-71 -131t-101.5 -65t-138.5 -18.5q-81 0 -137 19t-101 66t-70.5 131.5t-39 212t-13.5 310.5zM228 1699q0 15 11 25.5t25 10.5q19 0 36 -27 q20 -47 50 -47q23 0 89 38.5t106 38.5q36 0 61 -24t51 -68q14 -21 14 -36q0 -14 -10 -23.5t-23 -9.5q-14 0 -26.5 11.5t-20 26t-18.5 26t-24 11.5q-18 0 -48.5 -19t-68.5 -38.5t-74 -19.5q-24 0 -43 8t-33.5 24.5t-22 27t-18.5 30.5q-13 19 -13 34zM249 725q0 -249 20 -380 t61 -180.5t119 -49.5q79 0 120.5 48t61.5 179t20 383q0 240 -18.5 366t-60.5 178t-122 52q-79 0 -121.5 -54.5t-61 -181t-18.5 -360.5z" />
<glyph unicode="&#xd6;" horiz-adv-x="900" d="M88 725q0 217 20 358t66 223t111 114.5t164 32.5q101 0 166 -31.5t111 -113.5t66 -223t20 -360q0 -184 -13 -312t-39 -212.5t-71 -131t-101.5 -65t-138.5 -18.5q-81 0 -137 19t-101 66t-70.5 131.5t-39 212t-13.5 310.5zM249 725q0 -249 20 -380t61 -180.5t119 -49.5 q79 0 120.5 48t61.5 179t20 383q0 240 -18.5 366t-60.5 178t-122 52q-79 0 -121.5 -54.5t-61 -181t-18.5 -360.5zM284 1632v57q0 27 7.5 42t19.5 15h55q12 0 19.5 -15t7.5 -42v-57q0 -27 -7.5 -42t-19.5 -15h-55q-12 0 -19.5 15t-7.5 42zM508 1632v57q0 27 7.5 42t18.5 15 h55q12 0 19.5 -15t7.5 -42v-57q0 -27 -7.5 -42t-19.5 -15h-55q-11 0 -18.5 15t-7.5 42z" />
<glyph unicode="&#xd7;" horiz-adv-x="801" d="M151 415q0 14 21 35l151 151l-151 152q-21 21 -21 34q0 9 12 21l38 38q11 11 19 11q14 0 35 -21l152 -151l151 151q20 20 34 20q10 0 20 -10l38 -38q12 -12 12 -21q0 -13 -21 -34l-151 -152l151 -151q21 -21 21 -35q0 -8 -11 -19l-38 -38q-12 -12 -21 -12q-13 0 -34 21 l-151 151l-152 -152q-20 -20 -34 -20q-10 0 -21 11l-38 39q-11 11 -11 19z" />
<glyph unicode="&#xd8;" horiz-adv-x="900" d="M88 727q0 217 20 358t66 223.5t111 115t164 32.5q36 0 74 -5l23 163q3 33 15 33h63q4 0 6 -11t0 -22l-26 -184q111 -49 159.5 -210t48.5 -493q0 -185 -13 -313t-39 -213t-71 -132t-101.5 -65.5t-138.5 -18.5q-17 0 -49 2l-23 -160q-3 -33 -14 -33l-64 1q-3 0 -5.5 13.5 t-0.5 19.5l25 174q-83 26 -132.5 102.5t-73.5 226.5t-24 396zM249 727q0 -248 21.5 -374t71.5 -175l162 1140q-30 7 -54 7q-78 0 -121 -55t-61.5 -182.5t-18.5 -360.5zM419 118q20 -2 30 -2q79 0 120.5 48t61.5 179t20 384q0 212 -17 331.5t-58 175.5z" />
<glyph unicode="&#xd9;" horiz-adv-x="937" d="M100 590v801q0 30 6 38.5t19 8.5h111q8 0 13 -2.5t8.5 -13.5t3.5 -31v-796q0 -128 9 -215t24 -139t43 -80t58.5 -36.5t77.5 -8.5q48 0 77 8t56 34t40.5 78.5t21.5 139.5t8 219v796q0 30 6 38.5t19 8.5h112q13 0 18.5 -8.5t5.5 -38.5v-801q0 -117 -9 -207.5t-24.5 -154 t-41.5 -108.5t-53.5 -70.5t-68 -40t-77.5 -19t-89 -4.5q-53 0 -91.5 4.5t-80 19t-70 41t-55.5 71.5t-42.5 108t-25 153.5t-9.5 206.5zM368 1988q0 28 10 28h74q11 0 16.5 -11.5t8.5 -43.5l21 -319q1 -14 1 -35q0 -32 -15 -32h-30q-13 0 -20 39l-62 337q-4 24 -4 37z" />
<glyph unicode="&#xda;" horiz-adv-x="937" d="M100 590v801q0 30 6 38.5t19 8.5h111q8 0 13 -2.5t8.5 -13.5t3.5 -31v-796q0 -128 9 -215t24 -139t43 -80t58.5 -36.5t77.5 -8.5q48 0 77 8t56 34t40.5 78.5t21.5 139.5t8 219v796q0 30 6 38.5t19 8.5h112q13 0 18.5 -8.5t5.5 -38.5v-801q0 -117 -9 -207.5t-24.5 -154 t-41.5 -108.5t-53.5 -70.5t-68 -40t-77.5 -19t-89 -4.5q-53 0 -91.5 4.5t-80 19t-70 41t-55.5 71.5t-42.5 108t-25 153.5t-9.5 206.5zM438 1607q0 21 1 35l21 319q2 32 8 43.5t18 11.5h73q10 0 10 -28q0 -13 -4 -37l-63 -337q-7 -39 -19 -39h-30q-15 0 -15 32z" />
<glyph unicode="&#xdb;" horiz-adv-x="937" d="M100 590v801q0 30 6 38.5t19 8.5h111q8 0 13 -2.5t8.5 -13.5t3.5 -31v-796q0 -128 9 -215t24 -139t43 -80t58.5 -36.5t77.5 -8.5q48 0 77 8t56 34t40.5 78.5t21.5 139.5t8 219v796q0 30 6 38.5t19 8.5h112q13 0 18.5 -8.5t5.5 -38.5v-801q0 -117 -9 -207.5t-24.5 -154 t-41.5 -108.5t-53.5 -70.5t-68 -40t-77.5 -19t-89 -4.5q-53 0 -91.5 4.5t-80 19t-70 41t-55.5 71.5t-42.5 108t-25 153.5t-9.5 206.5zM335 1606q0 12 3 21l67 180q25 73 52 73h23q27 0 53 -73l66 -180q4 -14 4 -24q0 -15 -11 -16q0 -5 -12 -8.5t-20 -3.5q-18 0 -32 30 l-49 115q-6 14 -11 14q-4 0 -10 -14l-49 -115q-14 -30 -31 -30q-9 0 -21 3.5t-12 8.5q-10 1 -10 19z" />
<glyph unicode="&#xdc;" horiz-adv-x="937" d="M100 590v801q0 30 6 38.5t19 8.5h111q8 0 13 -2.5t8.5 -13.5t3.5 -31v-796q0 -128 9 -215t24 -139t43 -80t58.5 -36.5t77.5 -8.5q48 0 77 8t56 34t40.5 78.5t21.5 139.5t8 219v796q0 30 6 38.5t19 8.5h112q13 0 18.5 -8.5t5.5 -38.5v-801q0 -117 -9 -207.5t-24.5 -154 t-41.5 -108.5t-53.5 -70.5t-68 -40t-77.5 -19t-89 -4.5q-53 0 -91.5 4.5t-80 19t-70 41t-55.5 71.5t-42.5 108t-25 153.5t-9.5 206.5zM302 1632v57q0 27 7.5 42t19.5 15h55q12 0 19.5 -15t7.5 -42v-57q0 -27 -7.5 -42t-19.5 -15h-55q-12 0 -19.5 15t-7.5 42zM526 1632v57 q0 27 7.5 42t18.5 15h55q12 0 19.5 -15t7.5 -42v-57q0 -27 -7.5 -42t-19.5 -15h-55q-11 0 -18.5 15t-7.5 42z" />
<glyph unicode="&#xdd;" horiz-adv-x="693" d="M37 1411q0 27 18 27h103q30 0 42 -48l158 -661l156 660q5 22 16 35.5t23 13.5h87q18 0 18 -29q0 -14 -5 -30l-224 -870v-457q0 -30 -6 -41t-18 -11h-112q-12 0 -18 11t-6 41v453l-227 874q-5 17 -5 32zM318 1607q0 21 1 35l21 319q2 32 8 43.5t18 11.5h73q10 0 10 -28 q0 -13 -4 -37l-63 -337q-7 -39 -19 -39h-30q-15 0 -15 32z" />
<glyph unicode="&#xde;" horiz-adv-x="835" d="M112 49v1325q0 49 25 49h112q24 0 24 -49v-174h130q37 0 62.5 -1t59.5 -5.5t58 -13t52 -24t47 -37t38.5 -54t30.5 -73.5t18 -96.5t7 -122.5q0 -80 -10 -143.5t-26.5 -106.5t-43 -74t-53 -48.5t-64.5 -27t-69.5 -12.5t-74.5 -3h-153q-9 0 -9 -16v-293q0 -49 -25 -49h-112 q-24 0 -24 49zM273 503q0 -16 8 -16h137q39 0 64.5 3t50 13.5t38 29t24.5 50.5t15.5 78t4.5 111q0 54 -4 97t-13 73.5t-18.5 53t-26.5 36.5t-31 22.5t-38 12t-41.5 4.5t-46.5 1h-114q-9 0 -9 -17v-552z" />
<glyph unicode="&#xdf;" horiz-adv-x="848" d="M101 42v980q0 215 85.5 315.5t251.5 100.5q130 0 212.5 -90.5t82.5 -255.5q0 -109 -32.5 -178.5t-118.5 -103.5q-9 -4 -9 -10.5t10 -10.5q95 -33 140.5 -134.5t45.5 -223.5q0 -232 -93.5 -331.5t-285.5 -99.5v123q122 0 178.5 74.5t56.5 225.5q0 153 -60 231.5t-173 78.5 q-11 0 -17 18.5t-6 42.5q0 59 23 59q108 0 155.5 44.5t47.5 172.5t-40 184.5t-128 56.5q-90 0 -140 -79.5t-50 -211.5v-977q0 -43 -37 -43h-61q-10 0 -17 2t-14 12t-7 28z" />
<glyph unicode="&#xe0;" horiz-adv-x="703" d="M76 238q0 88 27 155t68 102.5t91 59.5t93 31.5t78 14.5t42 12v55q0 116 -25.5 176.5t-95.5 60.5q-62 0 -91.5 -34.5t-51.5 -108.5q-6 -17 -12 -23t-15 -4q-14 3 -48.5 14t-35.5 16q-10 10 1 54q18 64 47 106t82.5 67.5t130.5 25.5q127 0 188.5 -91.5t61.5 -305.5v-572 q0 -49 -21 -49h-24q-16 0 -27 41q-29 122 -31 147q0 3 -2 4.5t-3.5 0t-2.5 -4.5q-25 -97 -76.5 -148.5t-141.5 -51.5q-101 0 -153.5 65t-52.5 185zM201 249q0 -154 108 -154q79 0 124 102t45 251q0 70 -7 70q-1 0 -21.5 -3t-22.5 -4q-121 -27 -173.5 -93t-52.5 -169z M242 1553q0 28 10 28h74q11 0 16.5 -11.5t8.5 -43.5l21 -319q1 -14 1 -35q0 -32 -15 -32h-30q-13 0 -20 39l-62 337q-4 24 -4 37z" />
<glyph unicode="&#xe1;" horiz-adv-x="703" d="M76 238q0 88 27 155t68 102.5t91 59.5t93 31.5t78 14.5t42 12v55q0 116 -25.5 176.5t-95.5 60.5q-62 0 -91.5 -34.5t-51.5 -108.5q-6 -17 -12 -23t-15 -4q-14 3 -48.5 14t-35.5 16q-10 10 1 54q18 64 47 106t82.5 67.5t130.5 25.5q127 0 188.5 -91.5t61.5 -305.5v-572 q0 -49 -21 -49h-24q-16 0 -27 41q-29 122 -31 147q0 3 -2 4.5t-3.5 0t-2.5 -4.5q-25 -97 -76.5 -148.5t-141.5 -51.5q-101 0 -153.5 65t-52.5 185zM201 249q0 -154 108 -154q79 0 124 102t45 251q0 70 -7 70q-1 0 -21.5 -3t-22.5 -4q-121 -27 -173.5 -93t-52.5 -169z M314 1172q0 21 1 35l21 319q2 32 8 43.5t18 11.5h73q10 0 10 -28q0 -13 -4 -37l-63 -337q-7 -39 -19 -39h-30q-15 0 -15 32z" />
<glyph unicode="&#xe2;" horiz-adv-x="703" d="M76 238q0 88 27 155t68 102.5t91 59.5t93 31.5t78 14.5t42 12v55q0 116 -25.5 176.5t-95.5 60.5q-62 0 -91.5 -34.5t-51.5 -108.5q-6 -17 -12 -23t-15 -4q-14 3 -48.5 14t-35.5 16q-10 10 1 54q18 64 47 106t82.5 67.5t130.5 25.5q127 0 188.5 -91.5t61.5 -305.5v-572 q0 -49 -21 -49h-24q-16 0 -27 41q-29 122 -31 147q0 3 -2 4.5t-3.5 0t-2.5 -4.5q-25 -97 -76.5 -148.5t-141.5 -51.5q-101 0 -153.5 65t-52.5 185zM201 249q0 -154 108 -154q79 0 124 102t45 251q0 70 -7 70q-1 0 -21.5 -3t-22.5 -4q-121 -27 -173.5 -93t-52.5 -169z M209 1171q0 12 3 21l67 180q25 73 52 73h23q27 0 53 -73l66 -180q4 -14 4 -24q0 -15 -11 -16q0 -5 -12 -8.5t-20 -3.5q-18 0 -32 30l-49 115q-6 14 -11 14q-4 0 -10 -14l-49 -115q-14 -30 -31 -30q-9 0 -21 3.5t-12 8.5q-10 1 -10 19z" />
<glyph unicode="&#xe3;" horiz-adv-x="703" d="M76 238q0 88 27 155t68 102.5t91 59.5t93 31.5t78 14.5t42 12v55q0 116 -25.5 176.5t-95.5 60.5q-62 0 -91.5 -34.5t-51.5 -108.5q-6 -17 -12 -23t-15 -4q-14 3 -48.5 14t-35.5 16q-10 10 1 54q18 64 47 106t82.5 67.5t130.5 25.5q127 0 188.5 -91.5t61.5 -305.5v-572 q0 -49 -21 -49h-24q-16 0 -27 41q-29 122 -31 147q0 3 -2 4.5t-3.5 0t-2.5 -4.5q-25 -97 -76.5 -148.5t-141.5 -51.5q-101 0 -153.5 65t-52.5 185zM122 1264q0 15 11 25.5t25 10.5q19 0 36 -27q20 -47 50 -47q23 0 89 38.5t106 38.5q36 0 61 -24t51 -68q14 -21 14 -36 q0 -14 -10 -23.5t-23 -9.5q-18 0 -32.5 19t-27.5 37.5t-29 18.5q-18 0 -48.5 -19.5t-68.5 -38.5t-74 -19q-24 0 -43 8t-33.5 24.5t-22 27t-18.5 30.5q-13 20 -13 34zM201 249q0 -154 108 -154q79 0 124 102t45 251q0 70 -7 70q-1 0 -21.5 -3t-22.5 -4q-121 -27 -173.5 -93 t-52.5 -169z" />
<glyph unicode="&#xe4;" horiz-adv-x="703" d="M76 238q0 88 27 155t68 102.5t91 59.5t93 31.5t78 14.5t42 12v55q0 116 -25.5 176.5t-95.5 60.5q-62 0 -91.5 -34.5t-51.5 -108.5q-6 -17 -12 -23t-15 -4q-14 3 -48.5 14t-35.5 16q-10 10 1 54q18 64 47 106t82.5 67.5t130.5 25.5q127 0 188.5 -91.5t61.5 -305.5v-572 q0 -49 -21 -49h-24q-16 0 -27 41q-29 122 -31 147q0 3 -2 4.5t-3.5 0t-2.5 -4.5q-25 -97 -76.5 -148.5t-141.5 -51.5q-101 0 -153.5 65t-52.5 185zM178 1197v57q0 27 7.5 42t19.5 15h55q12 0 19.5 -15t7.5 -42v-57q0 -27 -7.5 -42t-19.5 -15h-55q-12 0 -19.5 15t-7.5 42z M201 249q0 -154 108 -154q79 0 124 102t45 251q0 70 -7 70q-1 0 -21.5 -3t-22.5 -4q-121 -27 -173.5 -93t-52.5 -169zM402 1197v57q0 27 7.5 42t18.5 15h55q12 0 19.5 -15t7.5 -42v-57q0 -27 -7.5 -42t-19.5 -15h-55q-11 0 -18.5 15t-7.5 42z" />
<glyph unicode="&#xe5;" horiz-adv-x="703" d="M76 238q0 88 27 155t68 102.5t91 59.5t93 31.5t78 14.5t42 12v55q0 116 -25.5 176.5t-95.5 60.5q-62 0 -91.5 -34.5t-51.5 -108.5q-6 -17 -12 -23t-15 -4q-14 3 -48.5 14t-35.5 16q-10 10 1 54q18 64 47 106t82.5 67.5t130.5 25.5q127 0 188.5 -91.5t61.5 -305.5v-572 q0 -49 -21 -49h-24q-16 0 -27 41q-29 122 -31 147q0 3 -2 4.5t-3.5 0t-2.5 -4.5q-25 -97 -76.5 -148.5t-141.5 -51.5q-101 0 -153.5 65t-52.5 185zM161 1321q0 52 17.5 89.5t46 56.5t58.5 27.5t62 8.5t61 -8.5t58 -27.5t46 -56.5t17 -89.5q0 -50 -18.5 -87t-47.5 -56.5 t-58 -28.5t-58 -9t-59 9t-59 28t-47.5 56.5t-18.5 87.5zM201 249q0 -154 108 -154q79 0 124 102t45 251q0 70 -7 70q-1 0 -21.5 -3t-22.5 -4q-121 -27 -173.5 -93t-52.5 -169zM236 1321q0 -61 32.5 -90t76.5 -29q43 0 75 29t32 90q0 65 -32 92t-75 27q-45 0 -77 -26.5 t-32 -92.5z" />
<glyph unicode="&#xe6;" horiz-adv-x="1057" d="M76 238q0 67 15 122t39.5 90.5t56.5 63t66 41.5t68 25t61.5 15t48.5 8.5t27 9.5v45q0 58 -4 98t-15.5 76.5t-35.5 54.5t-60 18q-99 0 -132 -143q-5 -17 -11.5 -23t-15.5 -4q-12 2 -46.5 13.5t-35.5 15.5q-13 11 -1 55q20 80 81.5 139.5t159.5 59.5q158 0 200 -175 q23 88 74.5 132t110.5 44q112 0 170.5 -106.5t63.5 -344.5q0 -11 -1.5 -29.5t-9 -42t-20.5 -23.5h-326q-7 0 -7 -21q0 -350 146 -350q36 0 59.5 15.5t35 48.5t15 52.5t6.5 59.5q1 6 1 9q3 20 13 20h60q16 0 16 -14q3 -15 3 -47q0 -114 -51 -185.5t-163 -71.5 q-76 0 -132.5 61t-83.5 175q-62 -237 -243 -237q-100 0 -151.5 64.5t-51.5 185.5zM199 246q1 -75 25 -114.5t79 -39.5q53 0 89.5 51t52.5 129t16 176q0 70 -7 70q-1 0 -21.5 -3t-22.5 -4q-211 -56 -211 -265zM598 616q0 -54 3 -54h246q2 0 2 18q-2 80 -9.5 137.5t-21.5 101 t-37 65.5t-56 22q-53 0 -87.5 -72t-39.5 -218z" />
<glyph unicode="&#xe7;" horiz-adv-x="558" d="M81 508q0 129 17 224t43 149t65.5 86t75.5 41.5t82 9.5q67 0 126 -22q3 0 7 -5t4 -8v-86q0 -5 -4 -10t-7 -4q-58 18 -94 18q-30 0 -50 -5t-45 -27t-40 -62.5t-25.5 -116t-10.5 -182.5q0 -108 9.5 -184t24 -118t39 -65t46 -28.5t53.5 -5.5q40 0 93 17q3 -1 7.5 -7.5 t4.5 -10.5v-80q0 -4 -4.5 -10.5t-7.5 -7.5q-52 -19 -114 -19h-4q-33 0 -60 4.5t-58 18t-55 36t-47 62t-38 93t-24 131t-9 174.5zM194 -373q0 91 26 91h42q19 0 19 -33q0 -10 -2 -28.5t-2 -24.5q0 -41 16.5 -67.5t47.5 -26.5q63 0 63 146q0 58 -22.5 113.5t-46.5 55.5h-24 h-2.5t-4.5 2.5t-3 7.5v55q0 17 10 17h51q50 0 87.5 -74t37.5 -160q0 -122 -35.5 -179t-115.5 -57q-62 0 -102 42t-40 120z" />
<glyph unicode="&#xe8;" horiz-adv-x="704" d="M81 504q0 127 17.5 222.5t44.5 150t66 88t75.5 44t79.5 10.5q250 0 250 -474q0 -72 -30 -72h-354q-7 0 -7 -21q0 -99 15 -175t51.5 -125.5t90.5 -49.5q37 0 62.5 17.5t38 50.5t17 56.5t8.5 60.5q2 20 13 20h68q19 0 19 -41v-20q0 -111 -58.5 -184t-173.5 -73 q-293 0 -293 515zM224 616q0 -54 3 -54h266q2 0 2 18q-6 169 -37 247.5t-96 78.5q-121 0 -138 -290zM246 1554q0 28 10 28h74q11 0 16.5 -11.5t8.5 -43.5l21 -319q1 -14 1 -35q0 -32 -15 -32h-30q-13 0 -20 39l-62 337q-4 24 -4 37z" />
<glyph unicode="&#xe9;" horiz-adv-x="704" d="M81 504q0 127 17.5 222.5t44.5 150t66 88t75.5 44t79.5 10.5q250 0 250 -474q0 -72 -30 -72h-354q-7 0 -7 -21q0 -99 15 -175t51.5 -125.5t90.5 -49.5q37 0 62.5 17.5t38 50.5t17 56.5t8.5 60.5q2 20 13 20h68q19 0 19 -41v-20q0 -111 -58.5 -184t-173.5 -73 q-293 0 -293 515zM224 616q0 -54 3 -54h266q2 0 2 18q-6 169 -37 247.5t-96 78.5q-121 0 -138 -290zM318 1173q0 21 1 35l21 319q2 32 8 43.5t18 11.5h73q10 0 10 -28q0 -13 -4 -37l-63 -337q-7 -39 -19 -39h-30q-15 0 -15 32z" />
<glyph unicode="&#xea;" horiz-adv-x="704" d="M81 504q0 127 17.5 222.5t44.5 150t66 88t75.5 44t79.5 10.5q250 0 250 -474q0 -72 -30 -72h-354q-7 0 -7 -21q0 -99 15 -175t51.5 -125.5t90.5 -49.5q37 0 62.5 17.5t38 50.5t17 56.5t8.5 60.5q2 20 13 20h68q19 0 19 -41v-20q0 -111 -58.5 -184t-173.5 -73 q-293 0 -293 515zM213 1172q0 12 3 21l67 180q25 73 52 73h23q27 0 53 -73l66 -180q4 -14 4 -24q0 -15 -11 -16q0 -5 -12 -8.5t-20 -3.5q-18 0 -32 30l-49 115q-6 14 -11 14q-4 0 -10 -14l-49 -115q-14 -30 -31 -30q-9 0 -21 3.5t-12 8.5q-10 1 -10 19zM224 616q0 -54 3 -54 h266q2 0 2 18q-6 169 -37 247.5t-96 78.5q-121 0 -138 -290z" />
<glyph unicode="&#xeb;" horiz-adv-x="704" d="M81 504q0 127 17.5 222.5t44.5 150t66 88t75.5 44t79.5 10.5q250 0 250 -474q0 -72 -30 -72h-354q-7 0 -7 -21q0 -99 15 -175t51.5 -125.5t90.5 -49.5q37 0 62.5 17.5t38 50.5t17 56.5t8.5 60.5q2 20 13 20h68q19 0 19 -41v-20q0 -111 -58.5 -184t-173.5 -73 q-293 0 -293 515zM182 1198v57q0 27 7.5 42t19.5 15h55q12 0 19.5 -15t7.5 -42v-57q0 -27 -7.5 -42t-19.5 -15h-55q-12 0 -19.5 15t-7.5 42zM224 616q0 -54 3 -54h266q2 0 2 18q-6 169 -37 247.5t-96 78.5q-121 0 -138 -290zM406 1198v57q0 27 7.5 42t18.5 15h55 q12 0 19.5 -15t7.5 -42v-57q0 -27 -7.5 -42t-19.5 -15h-55q-11 0 -18.5 15t-7.5 42z" />
<glyph unicode="&#xec;" horiz-adv-x="338" d="M74 1553q0 28 10 28h74q11 0 16.5 -11.5t8.5 -43.5l21 -319q1 -14 1 -35q0 -32 -15 -32h-30q-13 0 -20 39l-62 337q-4 24 -4 37zM107 61v885q0 60 25 60h87q24 0 24 -60v-885q0 -61 -24 -61h-87q-25 0 -25 61z" />
<glyph unicode="&#xed;" horiz-adv-x="338" d="M107 61v885q0 60 25 60h87q24 0 24 -60v-885q0 -61 -24 -61h-87q-25 0 -25 61zM145 1172q0 21 1 35l21 319q2 32 8 43.5t18 11.5h73q10 0 10 -28q0 -13 -4 -37l-63 -337q-7 -39 -19 -39h-30q-15 0 -15 32z" />
<glyph unicode="&#xee;" horiz-adv-x="338" d="M41 1171q0 12 3 21l67 180q25 73 52 73h23q27 0 53 -73l66 -180q4 -14 4 -24q0 -15 -11 -16q0 -5 -12 -8.5t-20 -3.5q-18 0 -32 30l-49 115q-6 14 -11 14q-4 0 -10 -14l-49 -115q-14 -30 -31 -30q-9 0 -21 3.5t-12 8.5q-10 1 -10 19zM107 61v885q0 60 25 60h87 q24 0 24 -60v-885q0 -61 -24 -61h-87q-25 0 -25 61z" />
<glyph unicode="&#xef;" horiz-adv-x="338" d="M9 1197v57q0 27 7.5 42t19.5 15h55q12 0 19.5 -15t7.5 -42v-57q0 -27 -7.5 -42t-19.5 -15h-55q-12 0 -19.5 15t-7.5 42zM107 61v885q0 60 25 60h87q24 0 24 -60v-885q0 -61 -24 -61h-87q-25 0 -25 61zM233 1197v57q0 27 7.5 42t18.5 15h55q12 0 19.5 -15t7.5 -42v-57 q0 -27 -7.5 -42t-19.5 -15h-55q-11 0 -18.5 15t-7.5 42z" />
<glyph unicode="&#xf0;" horiz-adv-x="784" d="M70 434q0 207 75 326t227 119q95 0 170 -65q-19 137 -124 283l-140 -83q-23 -15 -45 15q-17 20 -17 35t15 26l118 66q-81 67 -188 115q-14 3 -14 23q0 7 9 23.5t16 16.5q4 25 19 25h3q150 -55 243 -132l144 87q25 23 45 -14l14 -16q19 -27 -10 -48l-126 -72 q197 -246 197 -613q0 -305 -70.5 -436t-244.5 -131q-69 0 -122.5 20t-99 68.5t-70 139.5t-24.5 222zM208 448q0 -193 43.5 -273.5t134.5 -80.5q31 0 55.5 8.5t48.5 33.5t40 66.5t26 111.5t10 165q0 132 -47 211t-139 79q-50 0 -85 -25t-53 -71t-26 -100.5t-8 -124.5z" />
<glyph unicode="&#xf1;" horiz-adv-x="724" d="M101 50v894q0 62 24 62h19q14 0 21.5 -9t12.5 -40l16 -131q3 -11 7 -11t6 11q16 59 41.5 99t56 59t58 26.5t60.5 7.5q69 0 112.5 -34.5t68.5 -128t25 -252.5v-553q0 -30 -6 -40t-18 -10h-88q-12 0 -18 10t-6 40v574q0 146 -24 213.5t-75 67.5q-67 0 -112 -85.5 t-45 -206.5v-563q0 -30 -6 -40t-18 -10h-87q-25 0 -25 50zM144 1264q0 15 11 25.5t25 10.5q19 0 36 -27q20 -47 50 -47q23 0 89 38.5t106 38.5q36 0 61 -24t51 -68q14 -21 14 -36q0 -14 -10 -23.5t-23 -9.5q-18 0 -32.5 19t-27.5 37.5t-29 18.5q-18 0 -48.5 -19.5 t-68.5 -38.5t-74 -19q-24 0 -43 8t-33.5 24.5t-22 27t-18.5 30.5q-13 20 -13 34z" />
<glyph unicode="&#xf2;" horiz-adv-x="739" d="M81 505q0 98 9.5 176.5t25 131.5t39.5 91.5t47.5 60t55 34t56.5 16t57 3.5q31 0 56.5 -3.5t56.5 -16t54 -34t47 -60t39 -91.5t24.5 -131.5t9.5 -176.5q0 -135 -18.5 -233.5t-45.5 -151.5t-68 -84t-75.5 -39t-79.5 -8t-80 8t-77 39t-69 84t-45.5 151.5t-18.5 233.5z M226 505q0 -126 10 -209t31 -124t44.5 -55.5t58.5 -14.5q34 0 57.5 14.5t44.5 55.5t31.5 124t10.5 209q0 127 -10.5 210t-32 122.5t-44.5 53.5t-57 14t-57.5 -14t-44.5 -54t-31.5 -122.5t-10.5 -209.5zM268 1553q0 28 10 28h74q11 0 16.5 -11.5t8.5 -43.5l21 -319 q1 -14 1 -35q0 -32 -15 -32h-30q-13 0 -20 39l-62 337q-4 24 -4 37z" />
<glyph unicode="&#xf3;" horiz-adv-x="739" d="M81 505q0 98 9.5 176.5t25 131.5t39.5 91.5t47.5 60t55 34t56.5 16t57 3.5q31 0 56.5 -3.5t56.5 -16t54 -34t47 -60t39 -91.5t24.5 -131.5t9.5 -176.5q0 -135 -18.5 -233.5t-45.5 -151.5t-68 -84t-75.5 -39t-79.5 -8t-80 8t-77 39t-69 84t-45.5 151.5t-18.5 233.5z M226 505q0 -126 10 -209t31 -124t44.5 -55.5t58.5 -14.5q34 0 57.5 14.5t44.5 55.5t31.5 124t10.5 209q0 127 -10.5 210t-32 122.5t-44.5 53.5t-57 14t-57.5 -14t-44.5 -54t-31.5 -122.5t-10.5 -209.5zM340 1172q0 21 1 35l21 319q2 32 8 43.5t18 11.5h73q10 0 10 -28 q0 -13 -4 -37l-63 -337q-7 -39 -19 -39h-30q-15 0 -15 32z" />
<glyph unicode="&#xf4;" horiz-adv-x="739" d="M81 505q0 98 9.5 176.5t25 131.5t39.5 91.5t47.5 60t55 34t56.5 16t57 3.5q31 0 56.5 -3.5t56.5 -16t54 -34t47 -60t39 -91.5t24.5 -131.5t9.5 -176.5q0 -135 -18.5 -233.5t-45.5 -151.5t-68 -84t-75.5 -39t-79.5 -8t-80 8t-77 39t-69 84t-45.5 151.5t-18.5 233.5z M226 505q0 -126 10 -209t31 -124t44.5 -55.5t58.5 -14.5q34 0 57.5 14.5t44.5 55.5t31.5 124t10.5 209q0 127 -10.5 210t-32 122.5t-44.5 53.5t-57 14t-57.5 -14t-44.5 -54t-31.5 -122.5t-10.5 -209.5zM235 1171q0 12 3 21l67 180q25 73 52 73h23q27 0 53 -73l66 -180 q4 -14 4 -24q0 -15 -11 -16q0 -5 -12 -8.5t-20 -3.5q-18 0 -32 30l-49 115q-6 14 -11 14q-4 0 -10 -14l-49 -115q-14 -30 -31 -30q-9 0 -21 3.5t-12 8.5q-10 1 -10 19z" />
<glyph unicode="&#xf5;" horiz-adv-x="739" d="M81 505q0 98 9.5 176.5t25 131.5t39.5 91.5t47.5 60t55 34t56.5 16t57 3.5q31 0 56.5 -3.5t56.5 -16t54 -34t47 -60t39 -91.5t24.5 -131.5t9.5 -176.5q0 -135 -18.5 -233.5t-45.5 -151.5t-68 -84t-75.5 -39t-79.5 -8t-80 8t-77 39t-69 84t-45.5 151.5t-18.5 233.5z M148 1264q0 15 11 25.5t25 10.5q19 0 36 -27q20 -47 50 -47q23 0 89 38.5t106 38.5q36 0 61 -24t51 -68q14 -21 14 -36q0 -14 -10 -23.5t-23 -9.5q-18 0 -32.5 19t-27.5 37.5t-29 18.5q-18 0 -48.5 -19.5t-68.5 -38.5t-74 -19q-24 0 -43 8t-33.5 24.5t-22 27t-18.5 30.5 q-13 20 -13 34zM226 505q0 -126 10 -209t31 -124t44.5 -55.5t58.5 -14.5q34 0 57.5 14.5t44.5 55.5t31.5 124t10.5 209q0 127 -10.5 210t-32 122.5t-44.5 53.5t-57 14t-57.5 -14t-44.5 -54t-31.5 -122.5t-10.5 -209.5z" />
<glyph unicode="&#xf6;" horiz-adv-x="739" d="M81 505q0 98 9.5 176.5t25 131.5t39.5 91.5t47.5 60t55 34t56.5 16t57 3.5q31 0 56.5 -3.5t56.5 -16t54 -34t47 -60t39 -91.5t24.5 -131.5t9.5 -176.5q0 -135 -18.5 -233.5t-45.5 -151.5t-68 -84t-75.5 -39t-79.5 -8t-80 8t-77 39t-69 84t-45.5 151.5t-18.5 233.5z M204 1197v57q0 27 7.5 42t19.5 15h55q12 0 19.5 -15t7.5 -42v-57q0 -27 -7.5 -42t-19.5 -15h-55q-12 0 -19.5 15t-7.5 42zM226 505q0 -126 10 -209t31 -124t44.5 -55.5t58.5 -14.5q34 0 57.5 14.5t44.5 55.5t31.5 124t10.5 209q0 127 -10.5 210t-32 122.5t-44.5 53.5t-57 14 t-57.5 -14t-44.5 -54t-31.5 -122.5t-10.5 -209.5zM428 1197v57q0 27 7.5 42t18.5 15h55q12 0 19.5 -15t7.5 -42v-57q0 -27 -7.5 -42t-19.5 -15h-55q-11 0 -18.5 15t-7.5 42z" />
<glyph unicode="&#xf7;" d="M70 460v87q0 12 10 18t40 6h555q30 0 40.5 -6t10.5 -18v-87q0 -13 -10.5 -19t-40.5 -6h-555q-30 0 -40 6t-10 19zM342 126v104q0 30 6 41t18 11h99q23 0 23 -52v-104q0 -30 -5.5 -40.5t-17.5 -10.5h-99q-12 0 -18 10.5t-6 40.5zM342 774v104q0 30 6 41t18 11h99 q23 0 23 -52v-104q0 -30 -5.5 -40.5t-17.5 -10.5h-99q-12 0 -18 10.5t-6 40.5z" />
<glyph unicode="&#xf8;" horiz-adv-x="739" d="M81 505q0 98 9.5 176.5t25 131.5t39.5 91.5t47.5 60t55 34t56.5 16t57 3.5q102 0 160 -48l42 105q10 19 14 19h1l40 -14q2 0 2 -5q0 -7 -5 -17l-53 -133q86 -122 86 -420q0 -135 -18.5 -233.5t-45.5 -151.5t-68 -84t-75.5 -39t-79.5 -8q-95 0 -153 43l-37 -93 q-6 -19 -13 -19h-1l-41 16q-1 0 -1 3q0 5 4 19l46 116q-94 122 -94 431zM226 505q0 -164 18 -257l231 581q-12 30 -29.5 47.5t-35 23t-40.5 5.5q-27 0 -46.5 -8t-39 -32.5t-31.5 -67.5t-19.5 -116.5t-7.5 -175.5zM270 165q18 -36 42.5 -49.5t57.5 -13.5q27 0 46.5 8t39 33.5 t31.5 69t19.5 117t7.5 175.5q0 146 -15 235z" />
<glyph unicode="&#xf9;" horiz-adv-x="756" d="M123 373v583q0 30 6 40t18 10h87q13 0 19 -10t6 -40v-619q0 -130 27.5 -182.5t81.5 -52.5q64 0 107 86.5t43 192.5v575q0 30 6 40t19 10h86q13 0 19 -10t6 -40v-893q0 -63 -23 -63h-20q-14 0 -21.5 9t-12.5 41l-18 141q-2 13 -7 13q-2 0 -6 -14q-26 -107 -81 -154 t-122 -47q-50 0 -87 15.5t-68.5 55t-48 118t-16.5 195.5zM288 1553q0 28 10 28h74q11 0 16.5 -11.5t8.5 -43.5l21 -319q1 -14 1 -35q0 -32 -15 -32h-30q-13 0 -20 39l-62 337q-4 24 -4 37z" />
<glyph unicode="&#xfa;" horiz-adv-x="756" d="M123 373v583q0 30 6 40t18 10h87q13 0 19 -10t6 -40v-619q0 -130 27.5 -182.5t81.5 -52.5q64 0 107 86.5t43 192.5v575q0 30 6 40t19 10h86q13 0 19 -10t6 -40v-893q0 -63 -23 -63h-20q-14 0 -21.5 9t-12.5 41l-18 141q-2 13 -7 13q-2 0 -6 -14q-26 -107 -81 -154 t-122 -47q-50 0 -87 15.5t-68.5 55t-48 118t-16.5 195.5zM358 1172q0 21 1 35l21 319q2 32 8 43.5t18 11.5h73q10 0 10 -28q0 -13 -4 -37l-63 -337q-7 -39 -19 -39h-30q-15 0 -15 32z" />
<glyph unicode="&#xfb;" horiz-adv-x="756" d="M123 373v583q0 30 6 40t18 10h87q13 0 19 -10t6 -40v-619q0 -130 27.5 -182.5t81.5 -52.5q64 0 107 86.5t43 192.5v575q0 30 6 40t19 10h86q13 0 19 -10t6 -40v-893q0 -63 -23 -63h-20q-14 0 -21.5 9t-12.5 41l-18 141q-2 13 -7 13q-2 0 -6 -14q-26 -107 -81 -154 t-122 -47q-50 0 -87 15.5t-68.5 55t-48 118t-16.5 195.5zM255 1171q0 12 3 21l67 180q25 73 52 73h23q27 0 53 -73l66 -180q4 -14 4 -24q0 -15 -11 -16q0 -5 -12 -8.5t-20 -3.5q-18 0 -32 30l-49 115q-6 14 -11 14q-4 0 -10 -14l-49 -115q-14 -30 -31 -30q-9 0 -21 3.5 t-12 8.5q-10 1 -10 19z" />
<glyph unicode="&#xfc;" horiz-adv-x="756" d="M123 373v583q0 30 6 40t18 10h87q13 0 19 -10t6 -40v-619q0 -130 27.5 -182.5t81.5 -52.5q64 0 107 86.5t43 192.5v575q0 30 6 40t19 10h86q13 0 19 -10t6 -40v-893q0 -63 -23 -63h-20q-14 0 -21.5 9t-12.5 41l-18 141q-2 13 -7 13q-2 0 -6 -14q-26 -107 -81 -154 t-122 -47q-50 0 -87 15.5t-68.5 55t-48 118t-16.5 195.5zM222 1197v57q0 27 7.5 42t19.5 15h55q12 0 19.5 -15t7.5 -42v-57q0 -27 -7.5 -42t-19.5 -15h-55q-12 0 -19.5 15t-7.5 42zM446 1197v57q0 27 7.5 42t18.5 15h55q12 0 19.5 -15t7.5 -42v-57q0 -27 -7.5 -42t-19.5 -15 h-55q-11 0 -18.5 15t-7.5 42z" />
<glyph unicode="&#xfd;" horiz-adv-x="660" d="M66 969q0 37 15 37h95q27 0 35 -50l151 -684q4 -11 5 -11q4 0 4 11l124 681q7 53 33 53h68q17 0 17 -40q0 -2 -3 -23l-180 -929q-28 -155 -70.5 -214t-112.5 -62h-13q-80 0 -104 40q-5 9 -5 36q0 62 22 62q3 0 34 -9t43 -9q27 0 50.5 46t23.5 112q0 26 -20 110l-210 821 q-2 14 -2 22zM310 1172q0 21 1 35l21 319q2 32 8 43.5t18 11.5h73q10 0 10 -28q0 -13 -4 -37l-63 -337q-7 -39 -19 -39h-30q-15 0 -15 32z" />
<glyph unicode="&#xfe;" horiz-adv-x="740" d="M101 -345v1705q0 71 25 71h87q11 0 17.5 -19.5t6.5 -51.5v-493q0 -13 4 -13l5 5q29 79 76.5 119t102.5 40q48 0 88 -25.5t74.5 -82t54.5 -161t20 -248.5q0 -111 -14.5 -199.5t-39 -146t-57.5 -96t-67.5 -54.5t-71.5 -16q-52 0 -98.5 38.5t-76.5 117.5v-490q0 -71 -25 -71 h-87q-11 0 -17.5 19.5t-6.5 51.5zM237 509q0 -174 42 -290.5t106 -116.5t100.5 99t36.5 308q0 197 -36.5 296.5t-98.5 99.5q-63 0 -106.5 -110t-43.5 -286z" />
<glyph unicode="&#xff;" horiz-adv-x="660" d="M66 969q0 37 15 37h95q27 0 35 -50l151 -684q4 -11 5 -11q4 0 4 11l124 681q7 53 33 53h68q17 0 17 -40q0 -2 -3 -23l-180 -929q-28 -155 -70.5 -214t-112.5 -62h-13q-80 0 -104 40q-5 9 -5 36q0 62 22 62q3 0 34 -9t43 -9q27 0 50.5 46t23.5 112q0 26 -20 110l-210 821 q-2 14 -2 22zM174 1197v57q0 27 7.5 42t19.5 15h55q12 0 19.5 -15t7.5 -42v-57q0 -27 -7.5 -42t-19.5 -15h-55q-12 0 -19.5 15t-7.5 42zM398 1197v57q0 27 7.5 42t18.5 15h55q12 0 19.5 -15t7.5 -42v-57q0 -27 -7.5 -42t-19.5 -15h-55q-11 0 -18.5 15t-7.5 42z" />
<glyph unicode="&#x152;" horiz-adv-x="1103" d="M88 723q0 163 18.5 287t50.5 204.5t79.5 131t102.5 71.5t123 21h543q25 0 25 -49v-30q0 -49 -25 -49h-270q-11 0 -11 -31v-458q0 -7 3 -14t5 -7h239q25 0 25 -48v-30q0 -50 -25 -50h-238q-2 0 -5.5 -9.5t-3.5 -16.5v-493q0 -25 6 -25h288q24 0 24 -49v-29q0 -50 -24 -50 h-543q-72 0 -125 15.5t-105 61.5t-84.5 124.5t-52.5 210t-20 311.5zM249 723q0 -174 14 -291.5t43 -183.5t68 -93t94 -27h90q2 0 2 591t-2 591h-90q-112 -1 -165.5 -136t-53.5 -451z" />
<glyph unicode="&#x153;" horiz-adv-x="1079" d="M81 505q0 135 17 233t42.5 151t65 83.5t73.5 38t79 7.5q141 0 205 -173q69 174 204 174q112 0 172 -106.5t65 -344.5q0 -11 -1.5 -29.5t-9 -42t-20.5 -23.5h-334q-8 0 -8 -21q0 -74 8.5 -134.5t25.5 -110.5t47 -77.5t71 -27.5q17 0 32 4.5t25.5 10t19.5 18.5t14.5 20.5 t11 26t7.5 25.5t5 29t3.5 25.5t2.5 25.5q2 20 13 20h59q19 0 19 -36v-25q0 -111 -53.5 -184t-161.5 -73q-150 0 -214 190q-57 -190 -206 -190q-45 0 -79 8t-74 38.5t-65.5 84t-43 152t-17.5 233.5zM216 505q0 -127 9.5 -209t29 -123.5t42.5 -56t58 -14.5q34 0 56.5 14.5 t42.5 55.5t29.5 123.5t9.5 209.5q0 103 -7 176.5t-18.5 116.5t-30 67.5t-37 32t-45.5 7.5q-34 0 -56.5 -14t-43 -54t-30 -122.5t-9.5 -209.5zM632 616q0 -54 4 -54h254q2 0 2 18q-5 161 -34 243.5t-93 82.5q-116 0 -133 -290z" />
<glyph unicode="&#x178;" horiz-adv-x="693" d="M37 1411q0 27 18 27h103q30 0 42 -48l158 -661l156 660q5 22 16 35.5t23 13.5h87q18 0 18 -29q0 -14 -5 -30l-224 -870v-457q0 -30 -6 -41t-18 -11h-112q-12 0 -18 11t-6 41v453l-227 874q-5 17 -5 32zM182 1632v57q0 27 7.5 42t19.5 15h55q12 0 19.5 -15t7.5 -42v-57 q0 -27 -7.5 -42t-19.5 -15h-55q-12 0 -19.5 15t-7.5 42zM406 1632v57q0 27 7.5 42t18.5 15h55q12 0 19.5 -15t7.5 -42v-57q0 -27 -7.5 -42t-19.5 -15h-55q-11 0 -18.5 15t-7.5 42z" />
<glyph unicode="&#x2c6;" horiz-adv-x="307" d="M19 1261q0 12 3 21l67 180q25 73 52 73h23q27 0 53 -73l66 -180q4 -14 4 -24q0 -15 -11 -16q0 -5 -12 -8.5t-20 -3.5q-18 0 -32 30l-49 115q-6 14 -11 14q-4 0 -10 -14l-49 -115q-14 -30 -31 -30q-9 0 -21 3.5t-12 8.5q-10 1 -10 19z" />
<glyph unicode="&#x2dc;" horiz-adv-x="656" d="M92 935q0 15 11 25.5t25 10.5q19 0 36 -27q20 -47 50 -47q23 0 89 38.5t106 38.5q36 0 61 -24t51 -68q14 -21 14 -36q0 -14 -10 -23.5t-23 -9.5q-14 0 -26.5 11.5t-20 26t-18.5 26t-24 11.5q-18 0 -48.5 -19t-68.5 -38.5t-74 -19.5q-24 0 -43 8t-33.5 24.5t-22 27 t-18.5 30.5q-13 19 -13 34z" />
<glyph unicode="&#x2000;" horiz-adv-x="1008" />
<glyph unicode="&#x2001;" horiz-adv-x="2016" />
<glyph unicode="&#x2002;" horiz-adv-x="1008" />
<glyph unicode="&#x2003;" horiz-adv-x="2016" />
<glyph unicode="&#x2004;" horiz-adv-x="672" />
<glyph unicode="&#x2005;" horiz-adv-x="504" />
<glyph unicode="&#x2006;" horiz-adv-x="336" />
<glyph unicode="&#x2007;" horiz-adv-x="336" />
<glyph unicode="&#x2008;" horiz-adv-x="252" />
<glyph unicode="&#x2009;" horiz-adv-x="403" />
<glyph unicode="&#x200a;" horiz-adv-x="112" />
<glyph unicode="&#x2010;" horiz-adv-x="474" d="M87 555v78q0 53 25 53h246q25 0 25 -53v-78q0 -52 -25 -52h-246q-25 0 -25 52z" />
<glyph unicode="&#x2011;" horiz-adv-x="474" d="M87 555v78q0 53 25 53h246q25 0 25 -53v-78q0 -52 -25 -52h-246q-25 0 -25 52z" />
<glyph unicode="&#x2012;" horiz-adv-x="474" d="M87 555v78q0 53 25 53h246q25 0 25 -53v-78q0 -52 -25 -52h-246q-25 0 -25 52z" />
<glyph unicode="&#x2013;" horiz-adv-x="1024" d="M88 525v24q0 37 32 37h778q33 0 33 -36v-24q0 -37 -33 -37h-778q-32 0 -32 36z" />
<glyph unicode="&#x2014;" horiz-adv-x="2048" d="M88 525v24q0 37 32 37h1801q33 0 33 -36v-24q0 -37 -33 -37h-1801q-32 0 -32 36z" />
<glyph unicode="&#x2018;" horiz-adv-x="327" d="M88 942v179q0 160 41 260.5t86 122.5q2 1 5 1q19 0 19 -46v-15v-20t-1 -14.5t-1.5 -10t-3 -8t-4 -6t-5.5 -7t-7 -9.5q-20 -27 -32 -74t-12 -83q0 -27 6 -27h39q21 0 21 -55v-195q0 -61 -21 -61h-103q-27 0 -27 68z" />
<glyph unicode="&#x2019;" horiz-adv-x="322" d="M90 916v15v20t1 14.5t2 10t3.5 8t3.5 6t5.5 7t7.5 9.5q19 27 31 74.5t12 83.5q0 27 -6 27h-39q-21 0 -21 54v195q0 61 21 61h104q11 0 18.5 -18.5t7.5 -49.5v-179q0 -160 -41 -260.5t-86 -122.5q-2 -1 -5 -1q-19 0 -19 46z" />
<glyph unicode="&#x201a;" horiz-adv-x="265" d="M67 249v8q0 26 7.5 44.5t17.5 18.5h82q10 0 17 -19.5t7 -47.5v-5l-32 -392q-5 -66 -21 -66h-23q-18 0 -21 66z" />
<glyph unicode="&#x201c;" horiz-adv-x="575" d="M88 942v179q0 160 41 260.5t86 122.5q2 1 5 1q19 0 19 -46v-15v-20t-1 -14.5t-1.5 -10t-3 -8t-4 -6t-5.5 -7t-7 -9.5q-20 -27 -32 -74t-12 -83q0 -27 6 -27h39q21 0 21 -55v-195q0 -61 -21 -61h-103q-27 0 -27 68zM334 942v179q0 160 41 260.5t86 122.5q2 1 5 1 q19 0 19 -46v-15v-20t-1 -14.5t-1.5 -10t-3 -8t-4 -6t-5.5 -7t-7 -9.5q-20 -27 -32 -74t-12 -83q0 -27 6 -27h39q21 0 21 -55v-195q0 -61 -21 -61h-103q-27 0 -27 68z" />
<glyph unicode="&#x201d;" horiz-adv-x="574" d="M90 916v15v20t1 14.5t2 10t3.5 8t3.5 6t5.5 7t7.5 9.5q19 27 31 74.5t12 83.5q0 27 -6 27h-39q-21 0 -21 54v195q0 61 21 61h104q11 0 18.5 -18.5t7.5 -49.5v-179q0 -160 -41 -260.5t-86 -122.5q-2 -1 -5 -1q-19 0 -19 46zM333 916v15q0 16 0.5 25.5t3 17.5t3.5 10 t7.5 10.5t8.5 11.5q19 27 31 74.5t12 83.5q0 27 -6 27h-39q-21 0 -21 54v195q0 61 21 61h104q11 0 18.5 -18.5t7.5 -49.5v-179q0 -160 -41 -260.5t-86 -122.5q-2 -1 -5 -1q-19 0 -19 46z" />
<glyph unicode="&#x201e;" horiz-adv-x="512" d="M67 249v8q0 26 7.5 44.5t17.5 18.5h82q10 0 17 -19.5t7 -47.5v-5l-32 -392q-5 -66 -21 -66h-23q-18 0 -21 66zM314 249v8q0 26 7.5 44.5t17.5 18.5h82q10 0 17 -19.5t7 -47.5v-5l-32 -392q-5 -66 -21 -66h-23q-18 0 -21 66z" />
<glyph unicode="&#x2022;" horiz-adv-x="1117" d="M211 1001q0 67 19.5 127t59 111.5t108.5 82t160 30.5t160 -30.5t108 -82t58.5 -111.5t19.5 -127q0 -63 -19.5 -122t-58.5 -110.5t-108.5 -82.5t-159.5 -31t-159.5 31t-109 82.5t-59 110.5t-19.5 122z" />
<glyph unicode="&#x2026;" horiz-adv-x="1031" d="M88 53v133q0 52 27 52h117q26 0 26 -52v-133q0 -53 -26 -53h-117q-27 0 -27 53zM432 53v133q0 52 27 52h117q26 0 26 -52v-133q0 -53 -26 -53h-117q-27 0 -27 53zM776 53v133q0 52 27 52h117q26 0 26 -52v-133q0 -53 -26 -53h-117q-27 0 -27 53z" />
<glyph unicode="&#x202f;" horiz-adv-x="403" />
<glyph unicode="&#x2039;" horiz-adv-x="494" d="M77 664q0 71 11 81q0 8 55.5 67.5t83.5 87.5q1 2 77 82t77 80h1l2 1q9 0 12 -17q6 0 6 -85q0 -41 -11 -58q0 -6 -8 -18t-21 -26t-24.5 -25.5t-24 -23t-13.5 -12.5q-4 -4 -68.5 -75t-64.5 -73q-2 -7 0 -14q0 -2 39 -39.5t41 -38.5q1 -2 37.5 -43t70 -83t33.5 -51 q14 -13 14 -105q0 -10 -2.5 -23t-4.5 -13q-1 -15 -6 -15q-1 0 -1 0.5t-1 0.5l-134 134q-162 182 -162 198q-14 14 -14 106z" />
<glyph unicode="&#x203a;" horiz-adv-x="494" d="M77 261v80q0 54 24 82l209 197q4 4 4 14t-4 14l-209 212q-24 27 -24 85v80q0 42 13 42q5 0 11 -8l276 -287q24 -25 24 -85l1 -103q0 -59 -25 -83l-277 -270q-8 -8 -11 -8q-12 0 -12 38z" />
<glyph unicode="&#x205f;" horiz-adv-x="504" />
<glyph unicode="&#x20ac;" horiz-adv-x="699" d="M25 569v29q0 30 5 37.5t18 7.5h41q-1 25 -1 77q0 14 0.5 40.5t0.5 38.5h-41q-13 0 -18 7.5t-5 37.5v29q0 30 5 37.5t18 7.5h47q10 139 37.5 239.5t62.5 157t85.5 89t96 42t105.5 9.5q52 0 101 -10t58 -34v-96q0 -12 -7 -12q-1 0 -8 2t-18.5 5t-26.5 6t-34.5 5t-37.5 2 q-33 0 -59 -5.5t-54 -20.5t-49 -44t-40 -72t-31.5 -109.5t-19.5 -153.5h170q13 0 18 -7.5t5 -37.5v-29q0 -30 -5 -37.5t-18 -7.5h-176q-1 -25 -1 -79q0 -52 1 -77h176q13 0 18 -7.5t5 -37.5v-29q0 -30 -5 -37.5t-18 -7.5h-171q6 -106 21.5 -181t35.5 -119t50.5 -69t60 -32.5 t70.5 -7.5q68 0 127 19q8 0 8 -17v-94q0 -39 -153 -39q-43 0 -74.5 3.5t-70.5 16.5t-67.5 35.5t-58 63t-50 96.5t-36.5 138.5t-23 186.5h-47q-13 0 -18 7.5t-5 37.5z" />
<glyph unicode="&#x2122;" horiz-adv-x="1691" d="M184 1360v45q0 21 4.5 27t15.5 6h426q10 0 14.5 -6t4.5 -27v-45q0 -19 -4 -23.5t-15 -4.5h-139q-9 0 -9 -20v-987q0 -24 -4.5 -30.5t-14.5 -6.5h-91q-10 0 -14.5 6.5t-4.5 30.5v987q0 20 -9 20h-140q-11 0 -15.5 4.5t-4.5 23.5zM748 329v5l36 1056q0 48 18 48h99 q25 0 33 -40l153 -778q1 -4 4 -4t4 4l152 774q10 44 31 44h103q19 0 19 -48l36 -1056v-5q0 -41 -19 -41h-67q-19 0 -20 46l-26 852q0 2 -1.5 3t-2.5 -1l-160 -857q-9 -43 -29 -43h-43q-19 0 -28 43l-156 852q-2 2 -4 -4l-27 -845q0 -46 -17 -46h-69q-19 0 -19 41z" />
<glyph unicode="&#xe000;" horiz-adv-x="1004" d="M0 0v1005h1005v-1005h-1005z" />
</font>
</defs>
</svg>
