<?xml version="1.0" standalone="no"?>
<!DOCTYPE svg PUBLIC "-//W3C//DTD SVG 1.1//EN" "http://www.w3.org/Graphics/SVG/1.1/DTD/svg11.dtd" >
<svg xmlns="http://www.w3.org/2000/svg">
<metadata></metadata>
<defs>
<font id="komika_handbold" horiz-adv-x="589" >
<font-face units-per-em="1000" ascent="800" descent="-200" />
<missing-glyph horiz-adv-x="297" />
<glyph horiz-adv-x="1000" />
<glyph horiz-adv-x="1000" />
<glyph unicode="&#xd;" horiz-adv-x="500" />
<glyph unicode=" "  horiz-adv-x="297" />
<glyph unicode="&#x09;" horiz-adv-x="297" />
<glyph unicode="&#xa0;" horiz-adv-x="297" />
<glyph unicode="!" horiz-adv-x="350" d="M369 734q0 27 -20 50q-23 24 -45 24q-29 0 -47 -25l1 1q-3 -5 -8.5 -14t-11.5 -25q-6 -14 -9.5 -25.5t-7.5 -24.5q-2 -7 -4.5 -15t-5.5 -16q-3 -10 -5.5 -19.5t-4.5 -17.5v1q-8 -28 -13 -45t-10 -33l-45 -180v1q-24 -84 -24 -89q0 -28 15 -45t42 -17q20 0 34 10h-2 q22 13 41 74q12 42 20.5 76.5t15.5 60.5v-1q3 9 5 18t4 16q4 13 48 134q37 101 37 126zM232 107q0 82 -79 82q-39 0 -70 -21q-39 -27 -39 -74q0 -31 23 -59q24 -27 55 -27q41 0 74 26l-1 -1q37 27 37 74z" />
<glyph unicode="&#x22;" horiz-adv-x="310" d="M344 700q0 71 -60 71q-10 0 -29 -9h1q-19 -9 -25 -21q-9 -34 -13 -55.5t-6 -33.5q-1 -4 -1 -7q0 -2 -2 -5q-4 -8 -6.5 -17t-6.5 -16q2 9 3.5 16.5t3.5 14.5q2 15 4 24q5 20 6 30t1 12q0 72 -60 72q-7 0 -29 -10h1q-19 -7 -25 -21q-9 -34 -13 -55t-6 -34q0 -6 -3 -12 q-4 -9 -7 -19t-7 -16q-2 -2 -4 -5.5l-2 -3.5q-2 -3 -5 -8t-4 -8q-6 -12 -8 -22.5t-2 -20.5q0 -29 13 -42q18 -18 41 -18q37 0 70 48q1 2 2.5 4.5t3.5 4.5v-1q0 -30 13 -42q18 -18 41 -18q37 0 70 48q25 36 31 72v-1q5 22 8 38q2 15 4 24q5 20 6 30t1 12z" />
<glyph unicode="#" horiz-adv-x="572" d="M600 433q0 16 -15 39q-17 24 -37 24h-67q0 10 3 28q1 9 2 19t1 15q0 58 -52 58q-24 0 -36 -16q-12 -22 -14 -64q-1 -20 -3 -31t-4 -18l1 1q0 -1 -1 -1v-1v1q-2 -3 -22 -3h-72v56q0 19 -0.5 30t-0.5 16q-9 45 -46 45q-40 0 -44 -45l-3 -42q-2 -21 -3 -38t-1 -29h1 q-7 -7 -24 -7q-4 0 -14.5 1t-21.5 3h1q-11 1 -20.5 1.5t-16.5 0.5q-47 0 -47 -46q0 -12 4 -22t12 -20v1q4 -7 13 -13t19.5 -11t21 -8t18.5 -3h10t11 1q5 1 10 1.5t8 0.5q1 0 1.5 -0.5t1.5 -0.5q-1 -2 -1 -29q0 -5 -0.5 -7.5t-0.5 -4.5h-16q-7 1 -11 1t-9 1t-9 1.5t-11 0.5 q-21 0 -40 -12q-19 -14 -19 -39q0 -21 17 -41q16 -18 36 -20q17 -2 29 -3t22 -2h3q5 -18 7 -32.5t4 -26.5q7 -22 19 -36q19 -19 34 -19q29 0 40 37l-1 -1q5 11 6 21t1 22q0 6 -2 16q-1 5 -1 7v5q0 3 -1 3h-1q29 8 98 8q15 0 15 -13q0 -3 -0.5 -6.5t-0.5 -5.5v-12q0 -6 1 -15 t5 -21l-1 2q2 -10 5 -17t5 -12q1 -2 1 -3t1 -3q3 -4 8.5 -8.5t12 -9t13 -7.5t10.5 -3q7 0 15 5t15 12.5t11.5 16t4.5 16.5v66q0 2 -0.5 4.5t-0.5 4.5q-1 4 -1 9q0 4 12 4h23q20 4 42 28q22 28 22 47q0 14 -10 29t-27 15h-66q-8 0 -8 13q0 6 3 20l-1 -1q1 2 1 3t1 3 q21 5 38.5 6.5t33.5 3.5q2 0 3 0.5t3 0.5q10 2 17 8.5t14 15.5q13 16 13 31zM373 349q0 -17 -6 -29q0 -1 -65 -1q-2 0 -5.5 -0.5t-5.5 -0.5q-5 -1 -9 -1q1 0 1 2v35q0 4 -2 4q18 9 58 9q11 0 18.5 -1t12.5 -3q3 -2 3 -14zM284 477v2h1l-0.5 -0.5t-0.5 -1.5zM163 208l-1 1 q1 0 1 -3v2z" />
<glyph unicode="$" horiz-adv-x="451" d="M481 367q0 45 -20 77v-1q-19 32 -27 38q-39 34 -121 52q-20 0 -37.5 1t-36.5 3q-37 2 -37 4q0 6 14 18q17 16 29 17q42 8 67 10.5t36 2.5h6q28 0 42 5h-1q8 3 13 11t10 21l-1 -2q6 12 8 20t2 13q0 26 -20.5 38.5t-43.5 12.5h-8t-10 -1q-3 -1 -6 -1h-3q-3 -1 -8 -1h-35v4 q0 3 0.5 7t0.5 7q0 5 0.5 9.5t0.5 7.5v14q0 10 -2 14q-5 20 -22.5 33t-35.5 13q-14 0 -30.5 -12t-19.5 -26q-3 -9 -3 -18v-33q0 -5 0.5 -10.5t0.5 -10.5q0 -27 -9 -36l1 1q-14 -11 -25 -19t-19 -13q-68 -63 -68 -110q0 -43 30 -73q26 -31 107 -41q16 -3 31.5 -4.5t30.5 -3.5 t30 -4.5t32 -4.5l-3 1q46 -12 46 -29q0 -3 -5 -10q-9 -12 -18 -20.5t-18 -11.5q-18 -7 -29 -10.5t-19 -3.5q-23 0 -39.5 1t-30.5 6q-16 4 -30 9t-25 13q-8 4 -16 12q-14 13 -28 13q-24 0 -45 -26v1q-21 -23 -21 -47q0 -43 38 -70q16 -13 63 -32v1q26 -11 30 -18q1 -1 1 -2v0 q2 -5 2.5 -7.5l0.5 -2.5v-74q0 -16 19 -40q18 -25 38 -25q21 0 39 27l-1 -1q8 11 12 21.5t4 19.5v83q2 -3 29 9q26 10 38.5 14t13.5 4q106 65 106 147v1t1 3q1 4 2.5 9.5z" />
<glyph unicode="%" horiz-adv-x="673" d="M489 425q11 18 22.5 35.5t23.5 35.5l2.5 5t3.5 6q28 41 51.5 79t35.5 77q5 14 5 27v3q0 13 -8 21.5t-20.5 14t-29 8t-32.5 4.5q-23 0 -41.5 -7.5t-26.5 -28.5q-6 -28 -22.5 -58.5t-36.5 -62.5v1q-2 -2 -3 -5t-3 -6q-15 -23 -28 -47q-23 -40 -44.5 -76t-44.5 -73.5 t-50 -79.5t-61 -94q-14 -20 -29.5 -44.5t-33.5 -52.5q-7 -14 -7 -31q0 -26 21.5 -40t50.5 -28v2q12 -6 22 -6q27 0 53 36q20 42 37.5 75t36.5 67l12 22t14 25q14 28 30.5 53t36.5 51q4 6 6.5 9.5t5.5 7.5l-1 -1q9 12 18 25l18 26q3 6 7 12t9 13zM374 185q-8 -14 -11 -27 t-3 -24q0 -21 6 -38.5t14 -34.5q15 -29 42.5 -41.5t58.5 -12.5q21 0 40 4h-1q45 9 82.5 38.5t60.5 66.5q25 40 25 84q0 43 -30 78q-17 17 -37.5 24.5t-42.5 7.5q-35 0 -64 -10h2q-21 -6 -40.5 -14t-37.5 -21t-34 -32.5t-31 -48.5zM370 562q8 14 10.5 26.5t2.5 26.5 q0 20 -6 37t-14 34q-15 29 -41.5 41t-56.5 12q-10 0 -20 -1t-22 -4v1q-44 -8 -81.5 -38t-61.5 -67q-25 -44 -25 -84q0 -21 6.5 -40.5t22.5 -35.5q17 -19 38 -26.5t44 -7.5q17 0 33 2.5t31 8.5h-1q22 7 41 15.5t36.5 21t33 31t30.5 47.5zM504 159q7 10 18 13.5t19 3.5h2l6 -4 t3 -5v-1q0 -1 -1 -1v0v-1v-1q-5 -11 -18.5 -17t-24.5 -8q-2 -1 -8 -1q-7 0 -8 -1v1q0 5 3.5 11t8.5 11zM238 587q-7 -9 -17.5 -12.5t-18.5 -3.5q-2 0 -3 0.5t-3 0.5q-3 3 -3 7q0 -1 -1 -1v-1q0 2 1 3v-1v1q5 13 17 20t21 9h12h9q-1 -5 -5 -11t-9 -11zM253 614l-1 4 q0 -1 0.5 -1.5t0.5 -1.5v-1z" />
<glyph unicode="&#x26;" horiz-adv-x="721" d="M747 439q0 86 -58 86q-1 0 -2.5 -0.5t-3.5 -0.5h-8q-4 0 -9 -1q-16 -3 -29 -5t-23 -4q-13 -4 -19 -10l1 4q-3 0 -11.5 1t-16.5 3q-17 3 -31 3q-47 0 -64 -35l-7.5 -30t-5.5 -25v1v-4t-1 -4v1l-14 -42q-8 -25 -14.5 -40.5t-10.5 -23.5l2 2q-19 -28 -32 -47t-24 -33 q-48 -67 -144 -67q-23 0 -36.5 11.5t-13.5 31.5q0 28 21 70q20 35 45 62q14 14 24.5 25.5t18.5 22.5q21 18 56 40l1.5 1t3.5 2q8 5 25 13l13 6q6 4 11 6.5t11 7.5q23 20 23 36q0 84 -72 84q-4 0 -18.5 -5t-37.5 -16h1q-35 -16 -39 -16q-6 0 -6 14q0 34 58 84q54 47 95 47 q20 0 43 -30q43 -45 65 -45q17 0 31 9.5t14 30.5q0 41 -40 90q-24 21 -43.5 34t-33.5 16h1q-2 1 -6 1.5t-10 2.5q-16 4 -35.5 8t-23.5 4q-17 0 -71 -18q-18 -5 -33 -13t-26 -16q-4 -4 -7 -6q-6 -5 -16.5 -14t-24.5 -24q-64 -61 -64 -151q0 -41 11 -83q2 -4 2.5 -5.5 t4.5 -9.5q2 -4 2 -7q0 -6 -20 -34q-7 -7 -8 -11q-6 -8 -12.5 -16.5t-14.5 -17.5q-49 -79 -49 -163q0 -85 49 -139q52 -60 136 -60q145 0 223 77q9 9 24 27.5t30.5 39t29.5 40t21 32.5q11 27 18.5 48.5t14.5 45.5v-2q2 5 3 8t3 8l-1 -1q2 5 2.5 8t3.5 5q11 5 49 6 q51 0 75 18.5t24 50.5zM342 434q-1 0 -1.5 -0.5l-0.5 -0.5z" />
<glyph unicode="'" horiz-adv-x="172" d="M197 703q0 71 -54 71q-10 0 -26 -9t-22 -21q-8 -34 -11.5 -55.5t-5.5 -33.5q-1 -4 -1 -7q0 -2 -2 -5q-3 -9 -6 -19t-7 -16q-2 -3 -3 -6l-1 -3q-2 -3 -5 -8t-4 -8q-5 -12 -7 -22.5t-2 -20.5q0 -29 12 -42q16 -18 37 -18q33 0 63 48q11 18 18 35.5t10 36.5l-1 -1 q3 10 4.5 20t3.5 18q2 15 4 24q5 20 5.5 30t0.5 12z" />
<glyph unicode="(" horiz-adv-x="342" d="M375 766q0 61 -62 61q-29 0 -54 -21l-11 -9h1q-8 -7 -14.5 -13.5t-13.5 -14.5q-5 -5 -8 -8.5t-5 -6.5q-4 -7 -7 -9l1 1q-36 -33 -66 -90q-14 -29 -24.5 -54t-15.5 -49v1q-2 -7 -3.5 -15t-3.5 -14q-5 -20 -10 -41t-10 -41v1q-11 -38 -16 -66.5t-5 -48.5h36q0 -45 -2 -85.5 t-6 -55.5q22 -58 67 -107q10 -10 18 -17.5t13 -12.5q23 -20 56 -20q51 0 51 53q0 29 -30 67l1 -1q-20 26 -31.5 42.5t-15.5 23.5l1 -1q-23 46 -23 99q0 81 34 196l-1 -2q3 7 6.5 14t5.5 12l-1 -1q11 26 17 36q19 35 71 93h-1l24 24l11 12q26 32 26 68zM76 188 q-8 17 -12.5 35.5t-7.5 37.5q6 -57 10.5 -72t9.5 -1zM56 261q0 5 -1 8q1 -3 1 -8z" />
<glyph unicode=")" horiz-adv-x="339" d="M360 616l-4 22q-8 23 -19.5 46.5t-28.5 49.5q-13 18 -27.5 35.5t-29.5 31t-30.5 21.5t-30.5 8q-50 0 -50 -52q0 -26 11 -44t25 -33l-1 1q6 -8 9 -11q10 -11 16.5 -21t11.5 -20l-1 1q1 -3 3 -7q0 -5 3 -8l7 -22v2q3 -12 6 -21q2 -9 4 -15.5t2 -11.5q2 -8 2 -16v-16 q0 -20 -5 -51t-14 -75v1q-4 -14 -7.5 -29.5t-5.5 -23.5q0 -4 -2 -8l-24 -66l1 2q-6 -14 -16 -27.5t-22 -26.5q-96 -87 -96 -137q0 -62 62 -62q22 0 39 14q5 3 11 9.5t14 15.5q14 15 29 27q3 6 7.5 11t11.5 13q16 15 23 28q8 8 17 23t20 35q2 4 3 7l2 6q5 8 9.5 19t9.5 24v-2 q6 13 10 22.5t6 14.5v-1v1v0q1 0 1 1v1h2q8 34 15 62t12 45q4 17 6 34l4 34v-1q5 32 7 69t2 67q-5 -7 -5 -15q-2 6 -3 10t-2 9zM320 301l-4 2l5 -1z" />
<glyph unicode="*" horiz-adv-x="452" d="M483 726q0 69 -73 69q-4 0 -14 -1l-20 -2q-11 -1 -20 -1.5t-14 -0.5q-16 0 -20 2h1h-1v1q-2 7 -3 18.5t-3 28.5q-1 24 -3.5 39.5t-5.5 24.5q-14 39 -62 39q-27 -3 -44 -24t-17 -48v-6v-7q-3 4 -6 7.5t-5 6.5q-11 11 -25 15.5t-29 4.5q-23 0 -37.5 -15.5t-14.5 -36.5 q0 -24 28 -61l-1 1q9 -17 21 -30h-20q-20 -5 -35.5 -20t-15.5 -33q0 -39 31 -65q16 -14 32.5 -20.5t32.5 -6.5q6 0 16 2q5 1 9 1.5t5 0.5q8 0 10 -2t2 -17q0 -3 -0.5 -7t-0.5 -8q-1 -5 -1 -11v-11q0 -52 48 -83q12 -6 30 -6q40 0 50 55q1 14 3 24t4 17q5 -2 11 -4.5t14 -5.5 h-1q18 -8 28 -13t16 -5q21 0 36.5 18t15.5 39q0 28 -33 52q-3 2 -5 3.5t-4 3.5q1 0 1.5 0.5t1.5 0.5l-1 -1q16 1 37 9q51 15 51 69zM322 793v-1v1z" />
<glyph unicode="+" horiz-adv-x="483" d="M515 465q0 55 -50 66q-23 4 -43.5 5t-36.5 2q-29 1 -27 0q-10 10 -10 22q0 5 1 14t3 20q1 11 2 20.5t1 17.5q0 80 -69 80q-48 0 -63 -55q-3 -10 -4.5 -27.5t-3.5 -43.5q-2 -18 -3 -26t-1 -15q0 -6 -1 -12q-2 -8 -46 -8q-25 0 -42.5 -1t-28.5 -4q-51 -14 -51 -62 q0 -27 13 -47l-1 1q19 -36 78 -36q2 0 6.5 0.5t9.5 0.5q5 1 10 1h8q12 0 12 -5v-10q0 -4 -1 -12q0 -4 -0.5 -8t-0.5 -9v2q-1 -14 -1.5 -24t-0.5 -18q0 -92 69 -92q30 0 43 16q6 7 11.5 19.5t10.5 34.5v-1q10 29 11 43l-1 -2q1 3 1.5 7t1.5 6q4 24 18 41q11 17 30 17h75 q30 0 53 27q18 23 18 55z" />
<glyph unicode="," horiz-adv-x="170" d="M194 93q0 31 -27 51l1 -1q-21 17 -50 17q-19 0 -35.5 -15.5t-22.5 -36.5q-3 -19 -4.5 -36.5t-2.5 -33.5v1q0 -4 -2 -10t-2 -19q0 -39 37 -39q13 0 44 22q11 8 18.5 15t15.5 15q30 34 30 70z" />
<glyph unicode="." horiz-adv-x="176" d="M196 97q0 29 -28 48l1 -1q-22 16 -49 16q-48 0 -63 -31q-6 -11 -8 -20t-2 -17q0 -32 18 -53t51 -21q30 0 55 25t25 54z" />
<glyph unicode="/" horiz-adv-x="539" d="M576 735q0 36 -19 59t-54 23q-25 0 -44 -15q-10 -12 -18 -23t-12 -20l1 2l-42 -64q-5 -8 -9 -14t-8 -11q-4 -6 -7.5 -12.5t-3.5 -5.5l2 3q-30 -42 -62.5 -89t-67.5 -104q-2 -3 -11.5 -20t-27.5 -47v1q-14 -25 -33.5 -59t-45.5 -78q-3 -7 -7 -12.5t-7 -11.5 q-7 -11 -12.5 -21t-13.5 -21q-16 -28 -23 -46.5t-7 -28.5q0 -29 29 -58q27 -34 56 -34q23 0 41 27l2 3l-1 -1l3.5 7t3.5 5q30 54 52 93t39 65q9 18 16 33.5t12 26.5v-1l2 6v-1q13 25 30 51t37 56q5 8 10.5 18t12.5 19v-1l48 69l24 34t25 35q6 9 12.5 18.5t11.5 17.5 q8 13 14.5 23.5t13.5 18.5q6 10 10 16t6.5 10t5 7t5.5 8q11 17 11 44z" />
<glyph unicode="0" horiz-adv-x="869" d="M894 440q0 110 -49 204q-14 23 -26 38.5t-20 25.5l1 -3q-19 26 -42.5 45t-55.5 32q-27 11 -56.5 17t-64.5 6h-37q-118 0 -228 -74q-96 -67 -164 -175q-25 -40 -42.5 -71.5t-28.5 -57.5h1q-14 -34 -21.5 -72.5t-7.5 -84.5q0 -27 10 -54.5t30 -56.5q18 -28 37.5 -48.5 t41.5 -36.5q16 -14 34 -21t35 -12h-1q6 -2 10 -3.5t8 -3.5q22 -6 49 -7t59 -1q41 0 76.5 3.5t66.5 12.5l-2 -1q5 1 9 1.5t8 1.5q18 3 26 6h-1q39 14 79.5 36t84.5 54q11 7 18.5 12t12.5 8v-1q5 3 8.5 5t6.5 4q77 72 112 175q23 68 23 97zM738 469q0 -19 -12 -43 q-5 -11 -11 -23.5t-11 -22.5v-2q-10 -20 -25 -38.5t-35 -38.5q-37 -33 -85 -59l1 1q-20 -11 -36.5 -16t-28.5 -9q-38 -14 -73 -20t-70 -6q-53 0 -91 20q-42 22 -42 63q0 62 49 151h-1q25 42 49.5 72.5t50.5 51.5q48 36 88 50q15 9 20 10.5t9 2.5l10 2q30 8 54.5 12t45.5 4 q41 0 95 -37q19 -12 34 -54q15 -41 15 -71z" />
<glyph unicode="1" horiz-adv-x="287" d="M320 716q0 18 -4 33t-9 31q-18 43 -55 43q-19 0 -37 -12q-15 -15 -27 -24q-9 -9 -17 -16.5t-13 -13.5l1 1q-29 -28 -50 -48.5t-32 -32.5q-10 -12 -19 -32q-9 -24 -9 -36q0 -32 25 -50l-3 1q22 -22 47 -22q7 0 19 4h1l-55 -424q-1 -4 -1 -11q0 -32 18 -57l-1 1 q18 -27 51 -27q47 0 63 85q5 20 7 39t5 39q1 5 1 10q0 6 1 11v-1q10 54 18 93t13 65q7 32 12 55.5t10 43.5q1 12 5 24q6 31 10.5 57.5t6.5 47.5q2 13 4 28t4 25l4.5 33t3.5 20q1 6 1.5 10t0.5 7z" />
<glyph unicode="2" horiz-adv-x="642" d="M665 114q0 26 -18 56v-1q-17 29 -43 37q-17 3 -45 5t-68 2h-152v1q0 8 19 26q11 9 19.5 18t19.5 20q12 14 23 25t20 22q10 11 18 19.5t15 16.5q140 135 171 214q14 36 14 80q0 33 -9.5 60.5t-27.5 48t-44 31.5t-59 11q-58 0 -148 -24q-26 -7 -55 -17.5t-64 -24.5 q-81 -35 -129 -103q-19 -24 -27.5 -48.5t-8.5 -48.5q0 -37 11 -54q17 -28 56 -28t51 31l17 41q37 63 165 106q29 11 52 14q31 6 47 8t21 2q8 0 11 -1v-2q0 -33 -70 -110l1 1q-28 -29 -54.5 -56t-53.5 -56q-22 -23 -45.5 -48t-49.5 -52h1q-27 -29 -57 -60l-82 -84 q-32 -33 -48 -59t-16 -43q0 -30 28 -57q31 -26 56 -26q12 0 80 26h-1q48 16 85 24.5t68 8.5h155q12 0 42 -3h-1q15 -2 26 -3.5t21 -1.5q63 0 63 56z" />
<glyph unicode="3" horiz-adv-x="715" d="M743 331q0 21 -3.5 41t-12.5 40q-18 49 -52 71l-6 4t-7 4l-20 11l1 -1l-14 11l6 6.5t17 19.5l18 18q14 14 22 23.5t12 14.5l-1 -1q31 46 31 76q0 81 -79 125q-31 16 -65.5 25.5t-73.5 10.5h-35q-47 0 -89 -4t-78 -11q-48 -11 -90 -28t-80 -43v1q-9 -6 -19 -15.5 t-21 -25.5q-14 -16 -19 -29.5t-5 -23.5q0 -15 6.5 -28.5t17 -23.5t24.5 -16t28 -6q20 0 34 7q25 16 42 33q29 20 51.5 31t38.5 17q8 3 14 4.5t9 2.5q28 9 51 13t41 4h35q62 0 62 -29q0 -6 -38 -30h1q-8 -5 -15 -9l-14 -8h2q-10 -5 -19 -10.5t-19 -12.5l2 1l-20 -12 q-28 -16 -47 -27t-30 -19q-12 -8 -21 -13.5t-14 -8.5h1q-6 -4 -9 -6.5t-5 -3.5q-32 -27 -32 -62q0 -36 24.5 -59.5t60.5 -23.5q8 0 31 5q5 2 10 2.5t9 1.5q3 1 6.5 1.5t6.5 1.5l14 3q5 1 9.5 1.5t11.5 2.5l-2 -1l30 6q1 0 1.5 0.5l0.5 0.5h11t13 1q6 1 11.5 1.5t8.5 0.5 q71 0 71 -42q0 -32 -54 -71q-19 -15 -42 -29.5t-51 -27.5q-20 -8 -33 -12t-22 -5q-2 -1 -6 -1h-13q-27 0 -49 2t-40 6v-1l-10 4t-9 4q-6 3 -10 3q-45 19 -73 29t-40 10q-27 0 -60 -24q-22 -22 -22 -50q0 -50 55 -74q5 -2 9 -4.5t8 -4.5q3 -1 6.5 -2t1.5 -1q25 -14 31 -20 q13 -5 30.5 -11.5t38.5 -11.5q14 -4 27 -7.5t24 -5.5q7 -2 14 -3t12 -3q8 -1 12.5 -1.5t8.5 -1.5t7 -1h6q103 0 213 59q121 62 163 150q5 10 16 46q5 16 7 28t2 21z" />
<glyph unicode="4" horiz-adv-x="622" d="M647 416q0 7 -3.5 18.5t-8.5 28.5q-5 5 -7.5 9.5t-4.5 8.5q-2 16 -3 27.5t-1 20.5q-2 11 -2 20q0 10 -1 21t-1.5 22t-1.5 22q-4 59 -28 92v-1q-7 9 -23 22q-10 4 -16.5 6.5t-11.5 2.5q-17 0 -30.5 -8t-22.5 -25q-5 -12 -8.5 -23.5t-3.5 -27.5v-5l5 -154q-1 -11 -38 -20 q-26 -5 -46.5 -10t-37.5 -9q-5 -2 -10 -2q-4 0 -8 -1q-23 -5 -43 -10l-40 -10l1 1q-17 -3 -27 -4.5t-15 -2.5q2 4 16 31.5t40 77.5l69 134q8 19 12.5 34.5t4.5 30.5q0 13 -3.5 26.5t-11.5 27.5q-20 35 -50 35q-5 0 -11.5 -2t-17.5 -7q-17 -8 -40 -52q-2 -4 -3 -8t-3 -7l1 1 q-4 -9 -7.5 -17t-10.5 -19q-23 -44 -40.5 -78t-31.5 -61l1 1l-6 -12t-6 -11q-8 -14 -17 -28t-17 -28q-2 -5 -4.5 -8t-4.5 -8v1q-14 -26 -20.5 -47t-6.5 -39q0 -55 39 -91q37 -38 89 -38q29 0 70.5 7t98.5 22l-1 -1q15 3 27 6l-1 -1l31.5 7t24.5 5h8q8 1 14 3t14 4 q2 1 5.5 1.5t5.5 1.5l-5 -2q5 0 7 1q3 -3 3 -13v-5l-12 -143v-4q0 -5 1.5 -14.5t3.5 -23.5q2 -18 4 -28.5t5 -16.5q10 -17 29 -31t39 -14q19 0 37 16t23 35q2 29 3 51.5t1 36.5q1 27 1 47q0 21 1 35l-1 -1q2 5 2 12v23l8 49l-1 -1l3 12q1 2 1 4t1 4t2 4.5t3 4.5 q8 12 14.5 26t6.5 33z" />
<glyph unicode="5" horiz-adv-x="734" d="M763 729q0 26 -17 57v-1q-18 40 -50 40h-1h-5q-2 0 -7 -2h1h-2l-70 -12q-20 -3 -30 -3.5t-15 -0.5h-83q1 0 -8.5 -1t-15.5 -2t-12 -1.5t-9 -0.5q-9 -1 -23 -1.5t-32 -0.5h-27h-18q-9 0 -20 1q-9 0 -18 0.5t-17 0.5h-25q-21 0 -45 -18q-10 -11 -17.5 -20t-12.5 -17 q-1 -3 -2.5 -8t-2.5 -9l1 2q-3 -10 -4 -15.5t-2 -9.5q-4 -12 -7 -20.5t-6 -16.5q-1 -2 -1 -4q0 -1 -1 -2q-21 -57 -31 -92.5t-10 -51.5q0 -48 18.5 -66.5t66.5 -18.5h6q6 0 10.5 1t9.5 6l-12 -6h4l133 8l69 3q62 0 105 -20h-1q46 -22 46 -77q0 -66 -75 -111 q-34 -21 -69.5 -30.5t-75.5 -9.5q-48 0 -99 23h1l-33 18q-8 3 -12.5 5.5t-9.5 4.5q-21 13 -37 18.5t-26 5.5h-15q-9 0 -13 -2q-18 -3 -39 -29q-21 -23 -21 -42q0 -67 130 -125q108 -48 177 -48q68 0 130 17.5t118 53.5q132 81 132 218q0 39 -8 74t-24 70q-38 74 -104 108 l2 -1q-14 10 -35 17t-47 12q-4 0 -6 1q-4 1 -10.5 2.5t-13.5 4.5h1q-11 4 -20.5 5.5t-16.5 1.5h-136q1 22 35 22q5 0 12.5 -0.5t15.5 -1.5t15 -1h13q18 0 34.5 1.5t33.5 6.5v-2q5 0 9 0.5t9 0.5q18 1 33 1t23 2h-1q2 0 3.5 0.5t3.5 0.5q37 3 59 4t30 3q7 2 13 3.5t11 3.5 q15 5 25 7.5t24 7.5l9 10.5t7 5.5q2 2 3.5 3t3.5 3q21 21 21 36z" />
<glyph unicode="6" horiz-adv-x="710" d="M742 347q0 40 -25 84q-29 49 -61 66v-1q-73 44 -172 44q-14 0 -22.5 -2t-21.5 -4h2h-2h-1q-2 -1 -5 -1h-4q-7 -2 -11 -2h-8q-10 -1 -21.5 -3t-34.5 -10q19 32 41 58t51 51v-1q33 27 53 33q11 3 27.5 5t42.5 2q3 0 9 -0.5t13 -1.5q8 -1 15 -1.5t14 -0.5q56 0 56 62 q0 25 -9.5 45.5t-25.5 34t-38 21t-47 7.5q-32 0 -67 -8t-70 -26q-27 -12 -57 -38q-4 -4 -9.5 -8.5t-12.5 -11.5q-6 -5 -12.5 -11t-14.5 -13q-7 -7 -14.5 -14t-12.5 -12l-49 -50q-22 -22 -36.5 -44t-28.5 -46q-2 -6 -5.5 -11t-7.5 -11q-10 -17 -20.5 -37.5t-21.5 -45.5v1 q-7 -13 -11.5 -24.5t-7.5 -21.5l-3 -9v1q-46 -113 -46 -186t72 -127q63 -43 134 -44q-2 0 6 -1t12 -2l-1 1q7 -2 12 -2.5t10 -0.5q22 0 51.5 5.5t68.5 18.5q19 6 37 12.5t35 15.5h-1q5 2 13.5 6t19.5 10q8 4 15 8t16 8q29 14 58.5 38.5t61.5 57.5q72 79 72 137zM560 353 q0 -27 -68 -71q-22 -15 -48.5 -29.5t-57.5 -28.5v1q-44 -19 -56 -19q-26 -5 -38 -6.5t-14 -1.5q-58 0 -58 29q-2 4 -2 6l4 4q2 13 8.5 25t14.5 22t16.5 17.5t15.5 12.5q15 11 29 19t36 19q22 13 80 26l-4 -1q14 1 26 1h23h37q56 0 56 -25z" />
<glyph unicode="7" horiz-adv-x="694" d="M715 706q0 25 -17 57q-18 34 -43 43q-39 15 -67 15q-14 0 -27 -3q-3 -1 -8 -1q-5 -1 -11 -1t-22.5 -0.5t-44.5 -3.5h2q-45 -3 -71.5 -6.5t-40.5 -5.5q-9 -2 -20 -4.5t-17 -3.5q-9 -2 -18.5 -4t-11.5 -3q-4 -1 -11.5 -1.5t-18.5 -2.5h1q-5 -1 -12 -2t-15 -2q-16 -2 -29 -4 t-23 -4h2q-2 -1 -4 -1h-1q-31 -10 -52 -17.5t-32 -14.5q-27 -17 -39 -31q-11 -14 -15 -29t-4 -30q0 -31 21 -62q25 -34 56 -34q20 0 43 19q10 10 18 17t18 13q16 8 50.5 14.5t85.5 15.5q96 15 142 15q15 0 15 -4q0 -28 -148 -239l-24 -36q-3 -5 -4.5 -8t-3.5 -5q-4 -4 -6 -8 q-26 -51 -47 -89t-38 -64q-28 -43 -28 -71q0 -45 22 -71l-1 1q26 -32 67 -32q38 0 84 73q10 19 19 37.5t18 36.5q3 5 6.5 11.5t6.5 12.5l-1 -1q39 68 64 105q2 5 4.5 9t4.5 8q11 17 17.5 29.5t10.5 20.5q11 17 21 32.5t20 31.5q22 35 43 67.5t42 64.5h-1q73 107 73 150z" />
<glyph unicode="8" horiz-adv-x="608" d="M634 642q0 106 -82 150q-28 14 -69 22t-95 8q-134 0 -237 -83q-67 -55 -67 -119q0 -32 22 -70q19 -31 89 -80q-2 -3 -12 -12.5t-27 -24.5q-4 -4 -6 -5q-9 -8 -14 -14l1 1q-4 -5 -7.5 -9.5t-6.5 -8.5l-7 -9q-6 -6 -10 -11t-8 -8q-48 -65 -48 -127q0 -110 101 -187 q21 -16 59.5 -23t93.5 -7q20 0 45 4t56 13q87 22 144 66q80 59 80 140v7q0 9 3 20v-1q2 6 2 11v13q0 19 -6 43l1 -1q-9 43 -31 71q-13 19 -24.5 29t-18.5 15v-7q0 13 -30 33q-8 5 -10 5q2 2 7.5 6t13.5 10q23 18 38.5 31.5t24.5 25.5l-1 -2q36 40 36 85zM483 283 q0 -12 -11.5 -26.5t-23.5 -23.5l1 1q-32 -21 -81 -36q-28 -8 -51.5 -12t-42.5 -4q-25 0 -51 13q-25 12 -25 28q0 30 53 90q52 65 80 73q31 9 39 9q6 0 29 -13q15 -8 29 -19.5t28 -25.5h-1q28 -33 28 -54zM490 664q0 -11 -43 -44q-27 -22 -45 -33t-32 -16h1q-3 -2 -22 -5 q-3 0 -9 -2h-6q-8 0 -19 2.5t-25 7.5q-4 3 -7 6.5t-8 6.5q-12 9 -21 16t-9 11q0 2 1 4v-1q2 10 12 14q12 25 43 37q40 17 53 17q3 0 7 0.5t8 0.5q8 1 18 1q11 0 22 1q4 1 13 1q21 0 47 -6q21 -6 21 -19zM98 369q1 1 2 1.5t2 2.5q-7 0 -8 -1t-1 -9l1.5 2t3.5 4zM294 572 q-1 0 -2 1z" />
<glyph unicode="9" horiz-adv-x="600" d="M629 729q0 2 0.5 4.5t0.5 4.5q0 28 -16 49.5t-41 31.5q-20 8 -41 9.5t-42 2.5h-13q-76 0 -149 -22l-9 -3q-4 -2 -6.5 -3t-6.5 -3h1q-5 -2 -9.5 -3t-6.5 -2h-7t-8 -1q-13 -7 -21 -11l-10 -5q-8 -3 -16.5 -6.5t-16.5 -8.5h2q-24 -11 -46 -22.5t-41 -26.5l-8 -8 q-8 -8 -12.5 -13t-9.5 -11q-26 -25 -38.5 -58.5t-14.5 -67.5v1q-1 -8 -1 -18v-18q0 -24 3 -48t10.5 -46.5t20.5 -41.5t33 -34q33 -27 72.5 -43t84.5 -16h3q25 1 46 4t42 8l32 9v-1q1 -4 1 -14q0 -23 -3 -48q-1 -11 -2 -22.5t-1 -22.5q0 -8 -1 -16l-2 -16q-2 -12 -3 -23.5 t-1 -25.5q0 -20 4.5 -39.5t18.5 -37.5q15 -12 32.5 -16t34.5 -5q13 0 26.5 5t24.5 13.5t18.5 20.5t7.5 26v8v10t-1 9t-1.5 8t-0.5 5l1 3l3 46q1 11 1 21t1 21v12t1 13q0 6 0.5 12.5t1.5 12.5q1 5 1.5 10t0.5 11q0 1 0.5 4.5t1.5 8.5v6q1 10 2 19.5t2 20.5t1.5 22t1.5 22v-2 q2 9 4 19l4 20q3 15 5.5 31t7.5 30q1 5 1.5 9.5t1.5 9.5q2 9 3.5 17.5t3.5 15.5q10 27 13.5 51.5t7.5 48.5q2 13 3 28q2 2 2 5t1 7l1 8l1 3l-1 -4q6 11 7 17.5t1 14.5v4zM466 641q-5 -39 -17.5 -77.5t-40.5 -70.5h1q-20 -20 -46.5 -32.5t-54.5 -12.5h-9q-1 0 -1.5 0.5 l-0.5 0.5h2q-12 2 -24 3t-27 2q-12 2 -22 10t-19 17q-11 9 -17 23t-6 29q0 12 4.5 24.5t14.5 22.5h-1q23 24 50.5 39.5t59.5 28.5q29 11 56.5 19t56.5 8h12q13 0 26 -5q4 -5 4 -10v-10q0 -4 -1 -9z" />
<glyph unicode=":" horiz-adv-x="206" d="M231 453q0 41 -34 64q-27 21 -57 21q-21 0 -40 -8q-29 -11 -35 -33q-7 -15 -9.5 -28t-2.5 -24q0 -44 21 -69q20 -31 60 -31q37 0 67 33t30 75zM227 170q0 40 -32 63v-1q-28 23 -59 23q-10 0 -20 -1.5t-21 -7.5l2 1q-26 -11 -36 -33v1q-6 -15 -8 -28t-2 -25 q0 -44 21 -71.5t60 -27.5q36 0 65 33q30 31 30 74z" />
<glyph unicode=";" horiz-adv-x="208" d="M222 216q0 39 -21.5 59.5t-55.5 20.5q-69 0 -76 -99q-1 -3 -1 -7v-5v-18q-5 -30 -7.5 -50.5t-4.5 -34.5v-5q0 -8 4 -17t13 -18q17 -16 33 -16q45 0 84 75q32 64 32 115zM240 496q0 38 -33 64q-28 22 -59 22q-11 0 -19.5 -2t-19.5 -8q-28 -9 -36 -33l1 2q-6 -14 -9 -26.5 t-3 -27.5q0 -43 21.5 -72t59.5 -29q37 0 67 34t30 76z" />
<glyph unicode="&#x3c;" horiz-adv-x="376" d="M408 654q0 15 -6 28t-15.5 23t-21.5 16t-24 6q-27 0 -92 -65q-11 -13 -22 -24.5t-25 -23.5l-25 -27q-18 -14 -45 -32.5t-69 -47.5h11q-36 -39 -36 -69q0 -31 14 -58q8 -15 20 -34.5t28 -39.5v1q11 -14 18.5 -25.5t13.5 -20.5h-1q3 -4 4.5 -6.5t6.5 -9.5q2 -3 4 -6.5 t5 -8.5h1q32 -58 71 -102l11 -11l2 -1q2 -3 4.5 -6t7.5 -6l31 -40q32 -34 59 -34q53 0 53 71q0 25 -23 57q-2 4 -7 9t-13 15l1 -1q-6 8 -14.5 17.5t-18.5 20.5q-4 4 -7.5 8t-7.5 9q-21 23 -35.5 42.5t-22.5 35.5l-4 6q-1 1 -2 2.5t-3 3.5q-25 37 -38 56t-13 21q0 9 74 75 l51 45q4 4 8.5 8t8.5 7q8 8 17 15.5t17 15.5q49 48 49 85zM239 320q0 -1 1 -1.5l1 -0.5l-3 5z" />
<glyph unicode="=" horiz-adv-x="397" d="M420 411v13q-1 2 -1 5q0 35 -43 57q-27 10 -61 10q-39 0 -85 -4t-101 -13q-8 -1 -13 -2.5t-9 -2.5h-7q-17 -6 -30 -15l2 1q-23 -13 -23 -36q3 -22 15 -43.5t26 -31.5q8 -2 18.5 -4t24.5 -2h10q6 0 12 1h-1l162 9h4q3 0 5 1q5 1 10 1.5t12 2.5h-1q18 3 25 3q29 0 39 10.5 t10 39.5zM408 248q0 26 -8.5 41.5t-26.5 26.5q-28 13 -71 13q-2 0 -12 -0.5t-27 -2.5h1l-43 -2q-11 -1 -23 -1.5t-23 -2.5q-30 -5 -48 -6q-11 -2 -15 -1t-14 -4q-16 -4 -26.5 -19.5t-10.5 -31.5q0 -39 33 -63q26 -23 65 -23q4 0 46 3q40 2 74 4.5t63 5.5q9 1 14 1h8h4 q22 6 33 29q7 15 7 33z" />
<glyph unicode="&#x3e;" horiz-adv-x="375" d="M405 416q0 48 -66 89q-15 10 -32.5 23t-38.5 32q-11 13 -22 25t-23 24l-23 24q-62 62 -86 62q-13 0 -25 -6.5t-21 -16.5t-14.5 -23t-5.5 -26q0 -25 18 -52q8 -8 14 -15.5t12 -14.5q5 -6 10.5 -11.5t9.5 -10.5q30 -32 53.5 -54.5t42.5 -37.5l-1 1q10 -9 15 -13l7.5 -6 t3.5 -3t4 -3l9 -6q17 -19 17 -15q0 -5 -41 -66q-4 -4 -6 -5l2 2q-5 -6 -10 -14t-11 -18q-8 -13 -19.5 -28t-26.5 -33h1q-24 -26 -39.5 -44.5t-22.5 -27.5q-1 -2 -3.5 -5t-1.5 -1l3 4q-27 -33 -27 -56q0 -18 14 -40h-2q10 -17 20 -22q4 -5 7 -8.5t7 -7.5v10q3 -1 9 -1 q29 0 59 36l16 20q3 3 9 11q2 3 3.5 5.5t3.5 3.5q8 12 18 25t21 26l2 3q5 8 9.5 13t6.5 8l4 6l2 3q5 7 8.5 11.5t5.5 6.5l-1 -1l10 14t10 15v-1q7 9 13.5 18t12.5 17q7 10 12 16t8 11q13 19 19 28.5t10 16.5v-1q2 3 6 13v-2q21 32 21 73z" />
<glyph unicode="?" horiz-adv-x="657" d="M686 633q2 8 2.5 14.5t0.5 13.5q0 47 -38 93q-47 50 -104 62q-20 4 -47 5.5t-65 1.5q-29 0 -51.5 -1t-39.5 -5h1q-45 -7 -76.5 -12.5t-48.5 -11.5q-79 -23 -121 -52t-50 -65l1 2q-2 -5 -2 -9v-5q0 -22 14 -35.5t37 -13.5q26 0 65 16h-1q12 5 21.5 8.5t16.5 5.5q10 4 16 6 t8 4l-3 -1q32 9 98 18q32 5 55.5 7.5t41.5 2.5h1q123 0 123 -38q0 -3 -1 -7q-11 -50 -129 -92q-17 -5 -26.5 -8.5t-17.5 -5.5l2 1q-19 -3 -47.5 -9.5t-63.5 -14.5q-2 -1 -2.5 -0.5t-2.5 -0.5h1q-11 -2 -20 -3.5t-16 -3.5q-5 -1 -9 -2.5t-7 -2.5q-24 -7 -41.5 -28t-23.5 -47 v-38q0 -132 55 -132q45 0 75 86l5 13q2 3 5.5 5t8.5 4q-1 -1 10 1q4 1 7.5 1.5t8.5 1.5q32 5 69 16.5t82 31.5q89 40 139 83q13 12 26.5 29t28.5 42q0 2 4 8q9 18 15.5 33t10.5 29zM297 127q2 4 2 8v7q0 27 -27 50q-27 21 -58 21q-61 0 -85 -37h1q-8 -11 -11 -16t-7 -11 q-2 -13 -3.5 -23.5t-1.5 -19.5q0 -76 71 -76q20 0 38 8t37 23l-1 -1q37 29 46 69z" />
<glyph unicode="@" horiz-adv-x="831" d="M862 501v52q0 44 -21 78q-9 17 -15.5 26.5t-8.5 14.5l1 -2q-20 35 -53 62t-80 48q-42 17 -82.5 26t-84.5 9q-63 0 -144 -24h1q-86 -25 -131 -65q-21 -18 -40 -37.5t-37 -44.5q-115 -159 -115 -335q0 -75 26 -122v1q6 -12 14.5 -25.5t23.5 -29.5q28 -37 49 -49 q99 -60 241 -60q19 0 35.5 8t27.5 21t17.5 30.5t6.5 36.5q0 28 -28 45q-22 10 -43 10h-13q-7 0 -15 -1q-9 -1 -16.5 -1.5t-12.5 -0.5q-18 0 -40 4t-50 12q-46 13 -70 72q-17 38 -17 78q0 6 1 14.5t3 16.5v-1q62 297 304 300h36q17 0 31 -1.5t26 -3.5h-1q50 -10 70 -23 q46 -26 56 -39q11 -16 17.5 -39t6.5 -53q0 -10 -6 -44q-4 -43 -36 -85q-34 -44 -70 -44q-21 0 -21 48q0 23 1.5 44.5t7.5 44.5q1 4 2.5 11.5t5.5 21.5v-1q7 15 9.5 25.5t2.5 15.5q0 37 -47 58q-33 14 -66 14q-36 0 -79 -15q-8 -4 -15 -5q-16 -7 -30 -13t-28 -18h1 q-22 -15 -41 -36.5t-35 -51.5l1 1q-41 -73 -41 -135q0 -66 50 -110q44 -37 113 -37q11 0 27 3t38 8q20 5 33 8.5t20 3.5q9 0 21 -7q11 -5 22 -9t25 -4h10q4 -1 12 -1h7q53 0 89 24q68 42 106 121q35 72 35 156zM485 414q-3 -23 -5 -37t-4 -21q-3 -2 -10.5 -5.5t-15.5 -6.5 h-1q-14 -5 -21 -6.5t-9 -1.5q-14 0 -23.5 12.5t-9.5 27.5q0 30 39 66h-1q41 37 69 38q0 -9 -1.5 -25t-6.5 -41z" />
<glyph unicode="A" d="M619 82q0 16 -2 33t-8 36q-2 5 -3 10t-2 9q-4 12 -7 22.5t-6 21.5v-1q-7 23 -12.5 52t-8.5 44q-1 0 -1 3q5 7 7.5 10t7.5 7l7 8q12 19 12 48q0 10 -2 15q-7 16 -18 25t-27 14l2 -1q-20 9 -25 14q-3 12 -7 27t-8 33l-46 178l-3 12q-8 29 -12 45.5t-6 20.5q-23 50 -72 50 q-12 0 -29 -7h1q-11 -3 -17 -8t-11 -12l-8 -14t-7 -12l1 1q-3 -5 -5.5 -10l-4.5 -9q-23 -40 -40 -76t-30 -70q-36 -96 -65 -164q-21 -51 -37.5 -95.5t-27.5 -80.5v1q-5 -11 -8 -21t-7 -20t-7 -20.5t-7 -20.5v1q-23 -55 -23 -86q0 -33 27 -51l-2 1q20 -17 49 -17q36 0 50 23 q14 27 19 46v-1l29 85q5 18 8.5 27t5.5 11q4 11 22 19l-2 -1l3 0.5t8 1.5q6 2 14 4t17 5q18 6 35.5 12t34.5 11q34 11 57 14l2 -4q4 -11 6 -20t4 -16q1 -2 1.5 -5.5t1.5 -4.5q5 -20 8.5 -36t6.5 -30l5.5 -22l4.5 -18l10.5 -46.5t3.5 -17.5q16 -43 83 -43q60 0 60 60z M360 417h1l-45 -10l3 1h-15q2 7 10 29t20 59q6 17 11.5 30.5t10.5 23.5q2 -9 4.5 -21.5t6.5 -29.5q5 -21 8 -37t5 -27q0 -4 2 -10q-4 -2 -9 -4t-13 -4z" />
<glyph unicode="B" horiz-adv-x="644" d="M685 291q0 45 -31 98h1q-26 48 -62 80h1q-15 14 -22 21l-7 7l11 12q12 13 17.5 20.5t10.5 15.5q7 29 11 54t4 45q0 29 -6.5 51t-21.5 38v-1q-44 50 -105 65h1q-6 2 -26 6t-54 9t-54 7t-32 2q-77 0 -127 -8t-76 -37q-7 -7 -14 -17.5t-12 -27.5q-1 -3 -1 -9v-10 q0 -9 2.5 -17.5t6.5 -16.5q2 -4 3 -7q-2 -23 -3 -47t-1 -50v-109q0 -4 0.5 -9.5t0.5 -10.5q1 -6 1 -12v-10v-125v-32q0 -11 1 -17q1 -17 1.5 -27.5t0.5 -14.5v-3q0 -24 -15 -33q-31 -19 -31 -51q0 -54 85 -78h-1q60 -18 111 -18q31 0 62 4.5t70 12.5q57 14 104.5 33.5 t87.5 43.5q108 72 108 173zM499 254q-20 -16 -40.5 -27.5t-44.5 -19.5q-14 -5 -32.5 -9t-44.5 -9q-45 -9 -70 -9h-7q-5 30 -7 62t-2 68v16q0 5 -0.5 9.5t-0.5 7.5q0 5 -0.5 8.5t0.5 6.5q3 2 7.5 3.5t9.5 3.5l21 7l-2 -1q11 2 20.5 4.5t16.5 4.5t12 3t8 2l-2 -1q6 1 17.5 4 t30.5 11l14 6q20 8 31 13l11 5q4 0 62 -64v1q26 -29 26 -51q0 -24 -35 -56zM472 639q0 -24 -66 -76q-11 -10 -28.5 -17.5t-41.5 -14.5q-23 -7 -42 -10.5t-36 -3.5h-4q0 5 -0.5 9t-1.5 10v-1v6q-1 5 -1 9v9q0 50 2.5 78.5t9.5 36.5q5 3 10 4t9 2h1q15 1 23.5 2t14.5 1.5t11 1 t14 1.5q126 0 126 -47z" />
<glyph unicode="C" horiz-adv-x="635" d="M668 268q0 32 -19 51.5t-51 19.5q-16 0 -31 -6t-30 -17h1q-9 -6 -16 -11.5t-12 -10.5v1q-16 -13 -31.5 -25t-29.5 -21q-33 -21 -56 -35t-36 -19q-23 -11 -44.5 -17.5t-41.5 -6.5q-40 0 -62 25h1q-20 26 -20 69q0 40 21 85l3 4.5t3 6.5q5 10 15.5 29t27.5 48q44 82 93 140 q67 81 115 81q9 0 12 -12q1 -6 2.5 -13.5t5.5 -18.5q2 -5 2.5 -10.5t2.5 -10.5q7 -20 19.5 -30t29.5 -10q61 0 61 97q0 37 -5 64t-13 47q-30 59 -102 59q-59 0 -111 -35h1q-12 -7 -25 -18.5t-30 -28.5v1q-14 -13 -26.5 -26.5t-22.5 -24.5q-50 -60 -81 -103t-48 -72 q-17 -34 -30.5 -59.5t-22.5 -43.5l1 1q-17 -31 -27 -76q-10 -41 -10 -79q0 -68 17 -105v1q19 -44 70 -83q53 -44 156 -44q14 0 42 5.5t72 18.5q16 5 28 11t26 16q206 110 206 191z" />
<glyph unicode="D" horiz-adv-x="605" d="M642 465q0 117 -28 168q-19 29 -36 50t-33 35q-20 18 -43.5 30.5t-47.5 23.5q-11 3 -21.5 6t-20.5 6q-13 4 -25 7t-25 8h1q-7 2 -16.5 4t-21.5 3q-21 3 -31 7q-17 5 -41 8.5t-56 3.5q-85 0 -85 -63v-16q0 -10 0.5 -19t1.5 -17q1 -7 1 -12v-6q0 -14 -1 -29.5t-3 -37.5 q-2 -16 -2 -28q0 -11 -1 -20q-1 -6 -1.5 -10.5t-0.5 -10.5v-14t-1 -13q-2 -20 -3 -35.5t-3 -24.5q-2 -14 -5 -28.5t-5 -27.5l1 1q-1 -2 -1.5 -6t-1.5 -6q-4 -38 -7 -68.5t-5 -55.5q-2 -17 -3.5 -32t-3.5 -27l-7 -63q-3 -26 -3 -30q0 -57 25 -80.5t81 -23.5q13 0 28.5 4.5 t31.5 14.5l9.5 5t17.5 8q6 3 12 6.5t12 7.5l-3 -1q40 17 66.5 29t44.5 23v-1q259 142 259 347zM486 463q0 -2 -0.5 -2.5t-0.5 -1.5v3q-4 -26 -8 -36q-23 -62 -94 -125q-60 -48 -138 -82q-26 -10 -32 -10q1 0 1 5q0 6 3 38v-1q1 5 1 11q0 7 1 13q2 23 3 39t2 27q4 11 4 12v3 v1q0 2 1 4q3 29 4.5 50t2.5 38q1 5 1 10v11q2 21 4.5 43t7.5 45q2 8 2.5 16t1.5 14q0 3 1 8.5t1 6.5q2 6 2.5 9.5t0.5 6.5q2 10 2.5 13.5t0.5 4.5v2v3q0 2 0.5 4.5t0.5 4.5q1 2 1.5 4.5t1.5 4.5v1h1q104 0 158 -30q67 -40 67 -139q-3 -14 -3 -17q0 -2 -2 -9v-3zM261 650v-3 v3zM253 597q0 1 1 2z" />
<glyph unicode="E" horiz-adv-x="667" d="M697 145v9q0 27 -14 50.5t-41 34.5q-23 -4 -43 -6t-37 -2h-12q-13 -1 -25.5 -1.5t-26.5 -1.5q-11 -1 -23 -1q-11 0 -23 -1q-16 -3 -32 -6.5t-32 -7.5q-28 -5 -55 -10.5t-53 -8.5q-3 -1 -7 -1q-5 0 -10 -0.5t-9 -0.5q-5 0 -11 0.5t-14 1.5l3 -1q-18 5 -18 13v0q0 1 1 2 q2 4 2.5 7.5t0.5 8.5v17q0 16 1.5 33t3.5 34l3 34q0 9 3.5 19.5t12.5 12.5q11 1 18.5 2t14.5 3q8 2 15 3t16 3q8 2 16.5 3.5t16.5 2.5q21 5 41.5 8.5t40.5 3.5q5 0 9 -0.5t8 -0.5q17 0 35 -0.5t35 -2.5h5q21 0 41 12t21 38l-1 -1q2 4 2 7v7q0 24 -13 42t-33 26 q-13 3 -22.5 5t-18.5 2l2 -1q-20 5 -39.5 7t-36.5 2q-34 0 -66.5 -4t-64.5 -9h1q-11 -1 -20.5 -2.5t-20.5 -3.5v6q2 4 2 7v7q0 5 -1 8q0 9 0.5 17t1.5 18l2 6l1 13v4q8 1 14 3.5t12 6.5q16 7 33 10t34 5q14 3 30.5 4.5t34.5 2.5q23 5 43.5 6t40.5 1h9q26 0 52 2t58 16 q15 22 15 44q0 15 -5 30t-14 29t-21 25.5t-26 18.5l1 -1q-17 10 -40 10q-6 0 -11 -0.5t-10 -1.5q-7 -2 -12.5 -2.5t-11.5 -0.5q-15 0 -27 -3h3q-33 -2 -64.5 -6.5t-66.5 -14.5h1q-19 -4 -36.5 -7t-36.5 -6q-8 -3 -17 -5.5t-17 -4.5l1 1q-20 -4 -43 -12h-2q-16 0 -32 -4.5 t-28.5 -13.5t-20.5 -22.5t-8 -30.5v-14q1 -11 1.5 -21t0.5 -23v-120q1 -6 1 -12v-11v-26q0 -24 -3 -48q-2 -28 -5.5 -55t-8.5 -56v1q-5 -28 -8 -56t-6 -57v2q-3 -12 -3 -30q0 -25 7.5 -49t22.5 -43.5t37 -32t51 -13.5h-1q9 -1 19 -1.5t19 -0.5q29 0 55 6q69 15 135.5 27 t135.5 12h20q12 0 23 0.5t22 1.5h-1q4 0 12.5 0.5t15.5 1t9.5 1t-5.5 0.5q26 7 46.5 25.5t22.5 45.5zM242 525v1v-1z" />
<glyph unicode="F" horiz-adv-x="556" d="M591 755q0 70 -72 70q-43 0 -103 -7.5t-139 -25.5q-93 -20 -148 -40.5t-72 -39.5q-17 -23 -17 -61l12 -37q10 -6 17.5 -8t15.5 -3q10 -8 10 -14q0 -41 -0.5 -69t-1.5 -48q-3 -6 -7 -13t-12 -14q-7 -17 -10 -31t-3 -23q0 -16 10 -37q1 -3 1 -7t1 -7v1q1 -9 1.5 -15.5 t3.5 -14.5q0 -2 0.5 -4t0.5 -5t-0.5 -7t-0.5 -7v2q-3 -33 -3 -50v-110q-1 -5 -1 -12v-7q0 -19 1 -24q-1 -5 -1 -10v-7q0 -32 29 -41h-1q26 -10 53 -10q10 0 16 1t9 7q19 16 26 58q3 25 5 54t4 66q6 114 6 119q0 10 12 15q16 5 44 10.5t67 11.5q42 6 71.5 10.5t48.5 10.5 l-2 -1l53 12q39 16 39 61q0 69 -84 69q-5 0 -21.5 -1.5t-44.5 -6.5q-62 -7 -94 -13q-8 -2 -15 -2.5t-14 -1.5q-14 -4 -21 -7h-13v24q0 10 -0.5 18.5t-0.5 16.5q0 34 3.5 51t12.5 23h-1q7 5 20 8.5t33 8.5l20 4l20 4q8 2 14.5 3.5t10.5 2.5q54 12 92 19.5t65 12.5 q31 7 43 21.5t12 46.5z" />
<glyph unicode="G" horiz-adv-x="760" d="M768 434q0 60 -18 84l1 -1q-22 34 -83 34q-11 0 -32 -3.5t-50 -11.5q-41 -10 -76 -21.5t-65 -23.5q-107 -44 -107 -103q0 -28 20 -53q22 -27 50 -27q11 0 30.5 5.5t51.5 19.5l-1 -1q10 4 19 7.5t20 6.5q9 4 19 7.5t21 8.5l-1 -1q14 4 21.5 7t9.5 4q-5 -12 -48 -60v1 q-117 -124 -276 -124q-33 0 -54 33h1q-22 33 -22 69q0 37 33 109q14 30 46 69t83 88q106 100 155 100q19 0 36 -17q13 -14 23 -19.5t16 -5.5q46 0 46 74q0 57 -22 85l1 -1q-28 43 -78 43q-30 0 -57.5 -8t-52.5 -20t-48 -27.5t-44 -30.5v1q-5 -4 -11 -8.5t-11 -7.5 q-140 -103 -217 -270v1q-45 -92 -45 -155q0 -85 37 -147q44 -72 117 -101q17 -9 35.5 -11.5t38.5 -2.5h15q11 0 28 2q29 3 42 4t18 2q18 5 25 7.5t12 4.5q2 1 3.5 1.5t3.5 1.5l-2 -2q17 5 30 8q4 1 10.5 3t9.5 3q14 5 36.5 18t53.5 32q55 37 95 75.5t67 80.5q10 16 17 35.5 t14 43.5q5 26 7.5 45.5t2.5 39.5z" />
<glyph unicode="H" horiz-adv-x="545" d="M598 702v12q0 106 -84 106q-8 0 -16 -1t-14 -3q-8 -5 -16 -12t-15 -15q-11 -12 -17 -20t-6 -14l-4 -95q-1 -3 -1 -7v-5v-10q-1 -5 -1 -13v-14q0 -8 0.5 -14t0.5 -12t-0.5 -10.5t-0.5 -8.5q-2 -26 -7 -31q-1 -3 -47 -7q-14 -2 -25 -2.5t-22 -2.5q-20 -2 -35 -4t-23 -2 q-13 0 -17 1v1v3l8 169q0 17 -3.5 34.5t-13.5 33.5l1 -1h-1v1v1v-1q-20 42 -62 42q-80 0 -87 -161q-1 -17 -2 -59.5t-3 -109.5v-89q0 -33 -2 -66t-5 -68q-1 -13 -1.5 -26t-0.5 -24q0 -22 1 -41t5 -34q-2 -5 -2 -9v-9q0 -26 18 -50q33 -29 68 -29q68 0 75 124v-1q1 8 1 17v22 q0 8 -0.5 19t-1.5 24v8q-1 15 -1 28v25v19t1 16q1 31 7 32q18 3 28 3q13 2 21.5 3t15.5 2h4l98 9q6 -8 6 -32v-6l-1 -23v-5q0 -2 -1 -5v-19q-1 -5 -1 -11v-11v-12l-3 -42q0 -4 0.5 -7.5t0.5 -6.5q0 -4 -1 -6v-1v-1q-1 -5 -1 -12v-5q0 -15 -0.5 -28t-0.5 -24q0 -38 3 -54 q6 -27 32 -41q27 -13 45 -13q46 0 63 42q2 4 2.5 8t1.5 6t3 6.5l2 4.5zM245 520q2 -2 3 -2q-3 1 -3 2z" />
<glyph unicode="I" horiz-adv-x="637" d="M664 726q0 30 -39 75l-69 6q-22 -2 -42 -3t-36 -3q-71 -5 -82 -7h1q-13 -2 -24 -2.5t-22 -1.5l-34 -3h1q-14 -1 -27.5 -2.5t-25.5 -5.5l1 1q-13 -2 -27.5 -4.5t-28.5 -4.5q-6 -2 -12.5 -3t-11.5 -3l1 1q-59 -9 -88.5 -27t-29.5 -54q0 -77 99 -77q3 0 11 1t22 3q22 2 39 5 t28 5h-3q2 0 3 0.5t3 0.5q4 1 9 1h10t22 2v-32q0 -34 -3 -74.5t-8 -86.5v1l-20 -163v1q0 4 -0.5 1t-1 -8t-1 -11.5t-0.5 -10.5l-3 -26q-2 -14 -6 -22.5t-9 -13.5l2 1q-11 -8 -34 -12q-4 -1 -14.5 -3t-30.5 -5q-14 -3 -25.5 -5.5t-23.5 -5.5l1 1q-20 -3 -32.5 -6t-23.5 -8 q-36 -16 -36 -57q0 -3 -0.5 -6t-0.5 -5q0 -24 10.5 -40t30.5 -20q4 0 6 -1h-2q27 -6 44 -6t34.5 2.5t49.5 7.5q2 1 10 3l-1 -1q29 5 55 9.5t49 7.5q165 27 184 29q42 5 67.5 10t38.5 8h-1q5 1 11 1.5t8 0.5q23 40 23 68q0 45 -51 76q-29 -4 -52 -7.5t-34 -5.5q-6 -1 -11 -1 t-3 0q-6 -1 -15 -1.5t-20 -0.5q-27 0 -43 -6q-1 0 -1 6v4l31 299q1 4 1 11v7q0 82 13 111l32.5 5t48.5 8q4 1 7.5 2t8.5 2q93 0 93 68z" />
<glyph unicode="J" horiz-adv-x="785" d="M812 743q0 78 -131 78q-87 0 -143.5 -2t-98 -5t-75.5 -7.5t-77 -10.5q-30 -6 -51.5 -12t-33.5 -13q-51 -27 -51 -84q0 -33 32 -51l-2 1q19 -13 49 -13q8 0 31 3t64 10q32 5 63.5 8t62.5 3q25 0 34 -15q8 -11 25 -105q8 -46 11 -75t3 -44q0 -36 -1 -62.5t-4 -44.5 q-6 -55 -31 -77.5t-76 -22.5q-40 0 -91 21q-45 19 -84 50q-14 13 -27.5 26t-27.5 27h1q-41 36 -80 36q-29 0 -48 -33q-13 -23 -13 -49q0 -75 130 -155q106 -68 183 -87q29 -8 49.5 -11t32.5 -3q60 0 113 23q61 28 88 80h-1q7 10 12 25q-1 0 0 2t8 15q1 8 3 16.5t6 20.5 q9 41 14 92t5 113l-0.5 7t-1.5 14q-1 8 -1.5 16.5t-2.5 21.5q-3 9 -4.5 20t-3.5 23q-2 11 -3 21.5t-3 21.5v-1q-4 25 -6 45t-2 36v19q0 12 37 12h21q3 0 8 -0.5t10 -1.5h-1q8 -2 13.5 -2.5t9.5 -1.5l-1 1q6 -2 7 -2h3q13 0 20 10q14 13 21 30t7 43z" />
<glyph unicode="K" horiz-adv-x="620" d="M647 88q0 62 -51 145q-41 61 -78 110t-75 90q-4 4 -7 7.5t-6 6.5h1q-18 18 -18 28q0 6 12 15h-1q10 9 19 16t17 13q5 5 10 8.5t10 7.5q41 33 72 62.5t55 55.5q5 7 11 13.5t9 10.5q6 6 8 9q10 19 10 42q0 13 -5.5 27t-14.5 28q-25 36 -51 36q-29 0 -53 -24l1 1 q-25 -23 -44 -40.5t-31 -29.5h1q-32 -29 -71.5 -62.5t-90.5 -73.5q-5 -4 -9.5 -7.5t-9.5 -7.5t-10 -7.5t-10 -7.5q-23 -17 -30 -17q-5 0 -5 9q0 17 2.5 48.5t10.5 79.5q6 36 6 41q0 40 -30 72v-1q-29 33 -67 33q-20 0 -28.5 -7.5t-16.5 -18.5q-1 -1 -4 -4.5t-4 -4.5 q-1 -5 -2 -15t-2 -18q-3 -18 -6.5 -40.5t-7.5 -51.5q-2 -29 -3 -42q-1 -7 -1.5 -13l-0.5 -6v-307q0 -24 2 -51t4 -59q4 -41 9.5 -67.5t11.5 -42.5q4 -8 11 -16.5t18 -16.5q20 -14 40 -14q18 0 38 15h-1q12 8 18.5 14.5t9.5 11.5q5 14 8.5 29.5t3.5 32.5q0 4 -3 51l-7 96 q-1 11 -1.5 18.5t-0.5 12.5v8q0 16 11 27.5t26 11.5q14 0 100 -101l-1 1q13 -17 27 -34.5t28 -34.5l-1 1q14 -17 27.5 -34t27.5 -34q76 -92 123 -92q60 0 60 58z" />
<glyph unicode="L" horiz-adv-x="617" d="M651 230q0 31 -16 56q-22 33 -55 33q-16 0 -91 -34q-17 -8 -31 -14t-27 -11q-12 -5 -22.5 -9t-18.5 -8l1 1q-11 -5 -21 -8.5t-21 -6.5q-11 -4 -21 -8t-21 -8q-48 -14 -81 -14q1 0 -3 15l1 -1l-3 11l81 490l1 3v9q0 36 -24 65q-29 32 -66 32q-39 0 -57 -33 q-6 -8 -11.5 -21.5t-8.5 -32.5l1 1q-1 -3 -2 -7t-2 -6q-2 -11 -4 -20.5t-4 -20.5l1 2q-4 -18 -7.5 -35t-7.5 -32q-6 -31 -12 -59t-11 -47q-19 -109 -28.5 -185.5t-9.5 -132.5q0 -41 9 -71t26 -51q20 -23 50.5 -34t69.5 -11q17 0 40.5 3.5t57.5 11.5q16 5 35.5 11.5 t39.5 14.5q10 4 19 7.5t18 7.5q8 3 16.5 6.5t16.5 7.5q20 9 37 16t31 14q13 5 23 9.5t19 8.5q13 7 25.5 12.5t26.5 10.5q41 24 41 62z" />
<glyph unicode="M" horiz-adv-x="673" d="M696 99q0 2 -0.5 10t-1.5 22v-1q-2 20 -3 40l-2 40q-1 14 -1.5 26.5t-1.5 26.5q0 16 -0.5 31.5t-0.5 32.5q-1 30 -1.5 60.5t-0.5 60.5q-1 59 -2.5 105t-6.5 84q-1 7 -4.5 20t-8 27.5t-9 26.5t-7.5 18q-7 10 -16.5 19t-21.5 19q-31 22 -52 22q-31 0 -56 -43 q-11 -28 -18 -46.5t-12 -32.5q-70 -198 -82 -202q3 0 -1 19l1 -2q-1 4 -1.5 5.5l-1.5 4.5q-3 10 -6 18.5t-3 11.5q-4 14 -9 28.5t-9 25.5q-7 23 -12.5 40.5t-10.5 31.5q-17 47 -28 76t-20 42q-38 51 -96 51q-32 0 -48 -39q-13 -42 -13 -49q-9 -39 -14.5 -69t-9.5 -51 q0 -2 -0.5 -4.5t-0.5 -4.5q-2 -22 -3.5 -38t-3.5 -28q-12 -75 -20 -155t-16 -172q0 -11 -6 -41q-2 -14 -3.5 -25t-1.5 -21q0 -36 13 -62v1q16 -41 57 -41q3 0 10 1t21 8t21.5 11.5t11.5 11.5q5 30 7 57.5t3 56.5q5 29 8.5 64t7.5 79l5 86q2 22 3 33.5t1 15.5q1 -8 21 -52h-1 q18 -48 30.5 -78t22.5 -47l-1 1q39 -76 81 -76q29 0 48 31v-1q11 17 19 30t13 23q8 14 15.5 28t15.5 28q10 17 19 33t17 31q9 17 15 28.5t11 19.5v-11v-19q0 -10 0.5 -22.5t1.5 -23.5q1 -8 1 -14v-8v-151l-1 -2v-13q0 -145 86 -145q29 0 46 19t17 48z" />
<glyph unicode="N" horiz-adv-x="642" d="M659 283v34t-0.5 29.5t-1 41t-1.5 68.5q0 15 -0.5 25.5t-1.5 15.5q0 8 -0.5 15t-0.5 15q-1 15 -1 27v21q-2 57 -6.5 98t-10.5 68q-11 35 -37 54q-30 27 -59 27q-32 0 -49 -19t-17 -51v-9l21 -263v-10q0 -24 -3 -85q-1 -29 -2 -49.5t-3 -31.5q-7 6 -23 29t-44 63h1 q-9 14 -18 27t-18 27q-12 17 -24.5 35.5t-25.5 36.5v-1q-17 23 -35.5 62t-40.5 93l1 -1q-16 41 -26.5 63.5t-18.5 34.5q-27 38 -79 38q-63 0 -72 -80q0 -3 -1 -8q0 -2 -0.5 -4.5t-0.5 -4.5v1q-3 -12 -3 -24v-81q0 -3 -3 -49l-4 -86q-3 -38 -3 -42q0 -13 3 -65q2 -40 4.5 -72 t5.5 -57q0 -20 0.5 -38.5t1.5 -38.5q-3 -26 -3 -45q0 -20 3 -35q9 -29 48 -53q20 -2 36.5 -2.5t22.5 -0.5q31 0 48 33l-1 -1q12 18 12 40v5q0 4 -2 9l1 -1l-8 100q-1 13 -1.5 20t-1 11.5t-1 8.5t-0.5 10v99q1 5 1 12v29q0 6 -1 8q3 -3 6 -6.5t7 -8.5q2 -2 2 -5l-1 2 q1 -2 1 -3l2 -2l-1 -1q1 -2 1 -3t2 -3q0 -9 7 -9q2 -4 3 -4q15 -23 26.5 -40.5t19.5 -31.5q10 -12 18.5 -23t13.5 -16q7 -10 11.5 -18t9.5 -16l-1 1q4 -6 8.5 -13t9.5 -15q17 -23 41.5 -48.5t58.5 -54.5q84 -69 127 -69q34 0 52 32q9 19 15 116q2 36 3 64.5t1 48.5zM258 406 l-3 -2v3zM484 292q0 3 1 4q-1 -2 -1 -4z" />
<glyph unicode="O" horiz-adv-x="803" d="M815 481q0 23 -11 69q-1 2 -2 8t-3 14q-1 5 -3.5 13t-5.5 18l1 -2q-5 23 -13 42.5t-19 38.5q-19 32 -42.5 57.5t-55.5 45.5q-67 43 -135 43q-4 0 -13 -0.5t-15 -1.5q-14 -3 -16 -3q-82 0 -207 -88q-43 -30 -84 -82.5t-85 -133.5q-14 -26 -23 -52.5t-14 -53.5 q-5 -24 -6.5 -41t-1.5 -26q-5 -20 -5 -37q0 -31 14 -81q13 -38 26 -60.5t25 -30.5q8 -11 17.5 -20t21.5 -18q6 -4 56 -29q7 -3 13 -5.5t11 -4.5q12 -5 20.5 -8t16.5 -5v1q67 -18 94 -18q94 0 152 23q11 6 21 11.5t18 8.5q6 4 12.5 6.5t11.5 5.5q26 11 46.5 24t37.5 27 q69 60 107 157l-1 -1q21 49 30 95t9 94zM658 459q0 -77 -49 -150q-49 -76 -118 -103q-33 -17 -95 -17q-4 0 -14 1t-24 3l1 -1q-38 9 -64.5 20.5t-41.5 28.5q-35 35 -35 110q0 29 12.5 60.5t36.5 69.5q25 38 54 67.5t63 56.5q67 51 123 51q68 0 110 -62q41 -61 41 -135z" />
<glyph unicode="P" horiz-adv-x="566" d="M597 621q0 16 -1 30.5t-4 27.5q-8 31 -29 55l2 -2q-34 51 -137 73l1 -1q-35 8 -72.5 11.5t-78.5 3.5q-61 0 -128 -18q-102 -27 -102 -86q0 -13 4.5 -23t12.5 -20t12 -17.5t6.5 -15t3 -16.5t0.5 -21q0 -5 0.5 -9.5t0.5 -9.5v-14q0 -7 -1 -18q0 -3 -0.5 -6.5t-0.5 -7.5v3 q-2 -17 -3 -27.5t-1 -20.5l-9 -372v-7q0 -89 77 -89q49 0 59 60q2 19 2.5 37t1.5 35q0 5 1 13t3 23v-1q2 11 3 21.5t1 19.5q0 17 1 27t3 14q2 5 38 17h-1l28 9q7 2 14 4.5t15 4.5q21 8 45.5 20t52.5 30l14 9v-1q6 4 11.5 7t12.5 9q11 8 18.5 14.5t12.5 11.5q23 21 41.5 44.5 t33.5 51.5q36 64 36 117zM448 614q0 -23 -17.5 -49t-52.5 -54q-29 -21 -60.5 -40t-66.5 -33q-20 -9 -25 -9q-2 0 -2 16q0 174 10 198q16 15 110 15q104 0 104 -44zM234 642l-1 -1v0q0 1 1 1z" />
<glyph unicode="Q" horiz-adv-x="808" d="M674 188q0 1 22 31q5 5 8.5 10t6.5 10q5 5 9 11.5t9 12.5q27 37 45.5 73t29.5 78v-1q11 36 16 62t5 41v21q0 13 -1 25t-5 24v-1q-8 31 -12.5 48.5t-7.5 22.5h1q-10 18 -17 31t-14 22l1 -1q-20 31 -46.5 54.5t-59.5 41.5q-33 17 -65.5 26.5t-65.5 9.5q-54 0 -108 -19h1 q-67 -20 -101 -44h1q-54 -38 -101 -86t-85 -109q-89 -136 -89 -264q0 -52 9.5 -91t28.5 -68q42 -59 129 -94q25 -11 40 -14q2 -1 7.5 -2.5t13.5 -3.5q16 -3 24.5 -4t13.5 -2t9 -1q5 0 13 -1q45 0 95.5 11.5t107.5 34.5q2 -2 11.5 -12t26.5 -30q51 -55 89 -55q28 0 46.5 20 t18.5 48q0 40 -32 89q-28 40 -28 45zM671 538q0 -56 -14 -94q-6 -17 -27 -52q-7 -10 -11 -16l-6 -9v7q-3 25 -5.5 38.5t-9.5 24.5l1 -2q-18 40 -69 40h-15q-60 0 -60 -97q0 -16 3 -49v1q0 -2 0.5 -4t0.5 -3q3 -20 3.5 -31t0.5 -19v-22q-5 -15 -53 -30q-44 -15 -73 -15 q-56 0 -93 25q-40 28 -40 79q0 68 72 172q35 51 66 86t60 55q78 48 157 48q54 0 83 -36.5t29 -96.5z" />
<glyph unicode="R" horiz-adv-x="619" d="M647 650v3q0 58 -63 106l1 -1q-52 46 -108 54l2 -1q-23 5 -47.5 6.5t-56.5 1.5q-72 0 -134.5 -9.5t-117.5 -30.5q4 2 -4 -1t-12 -4h1q-8 -2 -13 -5.5t-10 -6.5l2 1q-35 -19 -35 -69q0 -28 17 -54q6 -8 10 -19q4 -6 6 -10t4 -6q7 -20 11 -66t4 -119q0 -155 -6 -212 q-2 -15 -12 -83v1q-4 -20 -4 -40q0 -24 7.5 -40.5t23.5 -22.5q12 -5 22.5 -8.5t20.5 -3.5q9 0 18 3l-1 -1q28 6 44.5 22.5t21.5 27.5q2 5 3.5 12.5t4.5 15.5q6 25 8.5 43.5t4.5 36.5q1 3 1 6t1 7q3 30 5 44.5t4 22.5q0 1 0.5 3.5t0.5 7.5q1 5 1 12q0 8 2 19q1 5 1 8t1 7 q2 16 1 15q4 6 12 6t16 -1.5t14 -3.5q11 -5 23.5 -21t26.5 -40q2 -3 7.5 -14.5t14.5 -30.5v1q4 -8 7.5 -17t8.5 -19q3 -6 7 -12q6 -12 11 -23t9 -15l-1 3q6 -15 11 -25l-1 1q2 -6 3.5 -9.5t2.5 -6.5q36 -76 98 -76q48 6 67 31l6 27q7 8 7 22q0 15 -10.5 49t-33.5 88 q-29 47 -48.5 77t-31.5 47q-8 11 -13 19t-8 14q-1 2 -2 2.5t-1 1.5q3 2 12 11t25 23l10 11q13 13 23 23.5t20.5 23.5t24 31.5t32.5 46.5zM346 520q-65 -27 -78 -27q-17 0 -17 99q0 42 5 52v-1q2 6 60 15q8 2 19.5 4t27.5 5q18 4 47 9h1q55 0 67 -37q-12 -81 -132 -119z M323 323l-3 1q1 -1 3 -1z" />
<glyph unicode="S" horiz-adv-x="632" d="M280 27q97 0 214 83q59 43 96.5 86.5t52.5 88.5v-1q6 14 7.5 33.5t1.5 44.5q0 123 -70 169q-50 35 -175 35q-28 0 -80 -6q-26 -2 -44.5 -3.5t-30.5 -1.5q-20 0 -20 2q0 14 52 48q22 14 41.5 24t39.5 18q8 3 14.5 5.5t14.5 5.5t16.5 6.5t16.5 6.5q17 8 29 10.5t23 2.5 q6 0 15 -15q13 -36 42 -36h5t8 2q16 6 18 6q20 0 33 16.5t13 38.5q0 38 -45 80q-43 43 -77 49h-13q-2 0 -4.5 0.5t-5.5 0.5h-18q-27 -1 -52.5 -5.5t-48.5 -11.5q-14 -5 -37 -15.5t-55 -26.5q-21 -11 -33 -18q-6 -2 -12.5 -6t-10.5 -6q-12 -9 -21.5 -16.5t-17.5 -13.5 q-5 -5 -9.5 -8.5t-9.5 -6.5q-20 -14 -35.5 -28.5t-29.5 -32.5q-37 -49 -37 -86q0 -36 22 -73q28 -47 92 -64q37 -10 105 -10q10 0 31 0.5t44 1.5t42 1h28q19 0 34.5 -2.5t29.5 -7.5h-1q30 -11 30 -30q0 -51 -114 -130l1 1q-1 -1 0 -0.5t-1 -0.5q-14 -9 -23 -14.5t-12 -7.5 q-28 -14 -69 -14q-7 0 -35 9q-13 5 -21.5 7.5t-12.5 4.5q-13 11 -19 15l-15 11q-25 19 -50 19q-13 0 -25.5 -5.5t-22.5 -15t-16 -22.5t-6 -27q0 -69 84 -121q71 -43 139 -43z" />
<glyph unicode="T" horiz-adv-x="688" d="M730 748q0 17 -6.5 34t-17.5 30.5t-26.5 22t-34.5 8.5h-7t-10 -2l2 1q-10 -2 -18.5 -2.5t-17.5 -1.5t-18.5 -2t-18.5 -2q-14 -1 -28.5 -4t-28.5 -8q-16 -5 -31.5 -8.5t-34.5 -3.5q-28 -5 -54.5 -8t-53.5 -5q-33 -3 -65.5 -6t-63.5 -9q-24 -9 -34 -11q-18 -4 -35 -9 t-35 -14q-23 -14 -36.5 -36.5t-14.5 -48.5q-2 -5 -2 -9v-6q0 -20 11.5 -28.5t24.5 -16.5l-2 1q2 -2 5 -3t4 -3q9 -2 14 -2h12q12 0 21.5 1t19.5 3q31 10 61.5 14.5t62.5 8.5q5 1 8.5 1.5t7.5 1.5v-5q1 -6 1 -11v-9q0 -16 -3 -31q-2 -48 -4.5 -95t-5.5 -95 q-5 -84 -8.5 -171.5t-3.5 -172.5q14 -15 33 -25.5t40 -10.5h10q13 3 25.5 7t20.5 18q17 11 21.5 26t4.5 32v25q0 6 1 10q-2 23 -3 45.5t-1 45.5q0 57 4.5 114.5t9.5 115.5q2 17 3 34t3 34q1 4 1 11v49q1 5 1 10v11q1 16 3 32.5t10 26.5q12 0 15 3h1l3 2q32 8 61 11t58 7 l45 6q5 1 9 1.5t6 0.5q7 0 19 -3h8q5 0 10 0.5t13 3.5q11 9 18.5 22t8.5 27q2 10 2 20zM458 651q-3 -3 -4 -3q1 1 2 1.5t2 1.5z" />
<glyph unicode="U" horiz-adv-x="706" d="M735 710q0 97 -72 97q-97 0 -97 -101v-17q1 -2 1 -3v0v-4q0 2 -0.5 -4t-1.5 -14q-1 -7 -2 -16.5t-2 -20.5q0 -5 -0.5 -12t-1.5 -17v1q-5 -45 -12 -142q-3 -53 -8.5 -94t-12.5 -70q-6 -23 -22 -31l1 1q-8 -4 -14.5 -7.5t-12.5 -5.5h1q-5 -2 -9.5 -3t-7.5 -3 q-78 -28 -131 -42.5t-85 -14.5q-30 0 -30 43q0 34 3.5 75.5t11.5 91.5v-1q4 22 7 43.5t7 42.5q4 20 7 40.5t7 40.5l-1 -2q1 3 2 6.5t2 5.5h-1q2 9 5.5 22t8.5 33q7 25 10 42.5t3 33.5q0 39 -31 64l2 -1q-29 30 -67 30q-32 0 -50 -39q0 1 -1.5 -5.5t-4 -16.5t-5.5 -20.5 t-5 -18.5l1 3q-1 -1 -2 -4t-2 -5q-15 -75 -28 -147.5t-24 -147.5q-9 -63 -14 -108.5t-5 -75.5q0 -53 10 -87q11 -42 42 -64l-1 1q52 -42 154 -42q23 0 67 9t107 29l57 18q16 5 25.5 8t14.5 5q11 -11 21.5 -22t20.5 -25q37 -18 59 -18q15 0 27 10q29 14 29 57q0 6 -1 14 t-3 17q-1 10 -2 18.5t-1 10.5l2 20q2 13 4.5 33t5.5 46q8 69 16 148.5t16 176.5q2 14 2.5 25.5t1.5 22.5t1.5 19.5t2.5 17.5q2 20 3.5 32.5t1.5 17.5z" />
<glyph unicode="V" horiz-adv-x="616" d="M647 731q0 93 -61 93q-69 0 -88 -112l1 2l-14 -56t-11 -39q-7 -29 -16.5 -60.5t-23.5 -72.5l-5 -12.5t-8 -21.5q-5 -17 -13.5 -40.5t-19.5 -55.5q-11 -29 -18 -47t-9 -23q-21 -44 -23 -44q-7 0 -28 75q-7 25 -13 45.5t-11 39.5q-4 12 -7 22.5t-6 21.5q-12 46 -21.5 76.5 t-15.5 47.5v-2q-15 61 -29 104.5t-27 72.5q-2 4 -5 8.5t-4 6.5q2 -2 2 0q-24 24 -51 24q-14 0 -27 -7t-23 -18t-16.5 -25.5t-6.5 -29.5q0 -11 19 -68q17 -53 29.5 -94t22.5 -72q2 -9 5 -17t5 -16v1q12 -44 20.5 -76t14.5 -54q28 -99 68 -184q46 -100 102 -100q6 0 13.5 2 t19.5 6t19.5 8.5l12.5 7.5q19 19 27 30q18 24 34 51t31 59q2 6 5.5 16t8.5 21q5 15 13 34.5t18 45.5l41 109q14 37 22.5 61.5t12.5 38.5q18 72 26 125.5t8 91.5z" />
<glyph unicode="W" horiz-adv-x="869" d="M675 43q53 0 101 94q8 14 17.5 39t23.5 61q2 6 4.5 13t5.5 14q9 28 16.5 47.5t13.5 34.5l2 4q11 42 18.5 76t12.5 62v-1q5 26 6.5 57t1.5 69q0 203 -97 203q-66 0 -66 -73q0 -10 1 -29t3 -39t3 -37.5t1 -27.5q0 -30 -6 -57l1 1q-5 -20 -6.5 -29.5t-3.5 -17.5 q-1 -5 -1.5 -8.5t-1.5 -7.5q-8 -37 -15 -69t-15 -63v1q-27 -90 -42 -90q-4 0 -23 28q-16 24 -24 49q-14 46 -23 78.5t-14 55.5q-8 19 -7.5 23t-1.5 12l-4 18l-4 18q-8 26 -14 44.5t-14 29.5q-23 32 -66 32q-36 0 -57 -38q-3 -7 -7 -13t-6 -12l1 1l-8 -20v1l-19 -37h3 q-16 -33 -28 -57.5t-21.5 -43t-17 -32.5t-14.5 -26q-2 -7 -6 -13.5t-7 -13.5v1q-5 -9 -9.5 -19t-9.5 -20q-21 -40 -25 -40q-3 0 -4 20l-3 54q-1 9 -1.5 15t-1.5 11v-3q0 2 -0.5 3t-0.5 3l-4 307q-3 16 -3 19q-19 79 -81 79q-71 0 -71 -119q0 -82 4 -161t12 -160 q25 -232 74 -291q13 -12 34.5 -22t39.5 -10q38 0 99 91h-1q21 32 37 59t31 53q54 106 59 108q-2 -5 30 -64q25 -47 44 -82.5t36 -58.5q59 -84 119 -84z" />
<glyph unicode="X" horiz-adv-x="677" d="M551 511l10 12l-1 1q14 17 25 30.5t23 24.5q5 6 10 11.5t9 7.5q82 79 82 128q0 13 -3.5 27t-11.5 28q-20 31 -53 31q-58 0 -245 -226q-7 -8 -13 -16t-11 -15q-6 -7 -10.5 -13t-7.5 -9q-8 -8 -7 -8q-20 0 -54 75q-8 15 -13.5 29.5t-12.5 30.5v-1q-5 14 -11.5 28.5 t-12.5 28.5q-20 43 -32 66.5t-16 29.5q-29 33 -56 33q-61 0 -61 -79q0 -17 10 -47.5t30 -73.5q14 -28 30 -59t30 -60q3 -2 18 -28q5 -8 10 -17t11 -19v1q29 -53 29 -56q0 -11 -54 -89v1q-22 -32 -40 -57t-35 -45q-12 -16 -20 -26.5t-13 -15.5l-7 -10q-26 -40 -26 -68 q0 -27 23 -50q22 -27 50 -27q36 0 81 59l52 77l-1 -1q83 113 100 118q30 -6 68 -50h-1q15 -18 32.5 -35t36.5 -34h-1q10 -9 20 -17t19 -18l-2 1q60 -74 111 -74q13 0 33 8q9 21 13 40t4 36q0 18 -16 50q-2 2 -5.5 7t-4.5 5q-10 17 -22 26q-8 14 -39 44q-15 10 -24.5 17.5 t-19.5 17.5l-89 88h1l-13 14q12 24 94 112z" />
<glyph unicode="Y" horiz-adv-x="674" d="M709 745q0 76 -70 76q-36 0 -115 -77v1q-22 -21 -46 -48.5t-50 -58.5q-2 -4 -4 -6.5t-5 -6.5q-8 -11 -17 -23t-17 -24l1 1q-31 -41 -32 -41q-9 0 -43 36q-15 16 -26.5 28.5t-21.5 26.5l1 -2q-8 15 -14 27t-11 20l-3 4q4 -5 2.5 -2t-5.5 9t-8 13t-5 10l2 -3q-2 5 -4 8 l-4 6l1 -3l-27 67q-23 42 -66 42q-35 0 -53.5 -24.5t-18.5 -59.5q0 -26 28 -90q10 -23 19.5 -43.5t20.5 -37.5q47 -81 120 -137q12 -12 24 -18q1 -3 6 -5h-1q14 -11 14 -18l-60 -268v-7q0 -19 5.5 -34t14.5 -27q27 -31 59 -31q19 0 35 11q17 14 37 71q8 24 13 42.5t7 31.5 q10 45 17 73t12 42q1 2 2 6.5t3 9.5v-1q3 14 12 40q8 32 18 53v-1q53 114 212 267q10 11 17 18t11 13q8 8 10.5 19t2.5 25z" />
<glyph unicode="Z" horiz-adv-x="669" d="M691 169q0 96 -77 96h-6l-330 -40q3 11 20 34q7 8 12 15t10 15l5 7.5t6 9.5q37 67 110 152q9 10 18 19t17 18q45 49 90 102q5 6 10 11.5t9 10.5q14 18 26 32.5t20 28.5v-1q28 44 28 64q0 54 -58 72q-12 5 -28.5 6.5t-38.5 1.5h-17l-183 -7q-6 -1 -11.5 -1.5t-10.5 -1.5h1 q-6 -1 -10 -0.5t-12 -2.5q-19 -2 -33 -3t-24 -3h1q-11 -2 -18.5 -2.5t-10.5 -1.5q-28 -5 -48.5 -10.5t-36.5 -12.5q-48 -26 -48 -83q0 -80 66 -80q5 0 19.5 4t37.5 12h-1q53 17 89 27t56 10l17 1q14 2 25.5 3.5t21.5 1.5q18 0 20 3q-1 -8 -70 -78q-40 -45 -77.5 -93.5 t-72.5 -100.5q-20 -32 -37 -59.5t-31 -50.5q-11 -19 -21 -34l-18 -27q-54 -83 -54 -117q0 -36 34 -63q31 -25 67 -25q1 0 21 5t61 16q8 2 16 3.5t16 3.5h-1q20 5 36 9.5t29 7.5l-1 -1q65 14 140 18q18 1 35.5 2t34.5 3q18 2 36 2.5t37 2.5q2 0 5 0.5t6 0.5q13 1 27 3t24.5 9 t17.5 20t7 36z" />
<glyph unicode="[" horiz-adv-x="338" d="M362 108q0 16 -7 30q-7 11 -16 19t-20 10q-7 3 -19 5t-32 4q-16 2 -26 2.5t-13 2.5h1q-2 1 -4 3.5t-2 3.5q0 5 1 15.5t3 21.5q3 16 3 29q2 42 3.5 85.5t1.5 88.5q0 24 -0.5 39t-1.5 23q-4 35 -6.5 60.5t-4.5 44.5q-1 2 -1 7q-2 6 -4 13.5t-5 18.5v-1q-1 2 -1.5 4t-1.5 4 q-2 10 -4 16l-3 9q11 2 19 3.5t15 1.5q5 1 10.5 2t11.5 2q15 2 31 4.5t30 11.5l-1 -1q44 23 44 61q0 29 -22 48q-12 9 -44 9h-115q-5 -1 -10 -1h-25q-98 0 -98 -90q0 -12 2 -26t10 -35l-1 1q5 -15 9.5 -28t9.5 -28q3 -10 6.5 -19t6.5 -17l-1 1q1 -5 2.5 -7.5t1.5 -3.5 q3 -23 5 -41.5t4 -32.5q2 -17 3 -26v1q1 -20 1.5 -31.5t0.5 -15.5t-0.5 -9.5t-0.5 -15.5q0 -9 -0.5 -20t-0.5 -25v-17v-21q0 -4 -1.5 -13.5t-3.5 -24.5q-2 -11 -3.5 -23.5t-3.5 -27.5q-5 -27 -7 -51t-3 -44v-7q0 -20 8.5 -35t26.5 -24q14 -6 30 -10t35 -8q15 -3 32 -3 q6 -1 14 -1.5t16 -1.5q14 -2 22 -3t12 -1q30 0 55 28v-1q26 28 26 58zM204 668l-1 -1v1h1z" />
<glyph unicode="\" horiz-adv-x="539" d="M580 109q0 31 -200 369q-14 21 -23.5 34.5t-17.5 23.5l1 -1q-26 36 -45.5 64t-33.5 45q-3 5 -8 13t-13 22q-5 7 -9.5 15t-10.5 17q-13 22 -24 39t-22 29q-22 26 -38 26q-88 0 -88 -83q0 -28 13 -49q6 -9 11.5 -16.5t10.5 -15.5h-1q11 -15 19.5 -28.5t15.5 -23.5v1 q35 -51 63 -91.5t49 -69.5v1q5 -7 9 -14t8 -12v1q31 -48 50 -78.5t27 -45.5q23 -45 42.5 -82t39.5 -69q14 -23 22 -36t10 -18q30 -60 59 -60q24 0 56 34q28 33 28 59z" />
<glyph unicode="]" horiz-adv-x="338" d="M382 715q0 51 -19.5 67t-67.5 16q-11 0 -29.5 1.5t-44.5 3.5h2h-11q-5 0 -10 1l-58 8q-7 0 -13 0.5t-9 0.5h-3q-15 0 -48 -27q0 -46 14 -72t47 -36h-1q11 -5 54 -8q31 0 39 -5h3l-7 -25v1q-5 -15 -7.5 -25.5t-3.5 -15.5l-8 -74q-6 -53 -6 -72q0 -96 2 -157t7 -93v2 q1 -7 1 -13q0 -5 1 -6v-1q0 -5 -8 -7q-22 -4 -39 -6.5t-31 -4.5q-5 -1 -9 -1.5t-7 -1.5q-15 -5 -29.5 -20.5t-14.5 -29.5q0 -36 22 -65q24 -30 60 -30v38q39 0 70.5 -2t44.5 -5.5t3 -8.5t-53 -12l52 8q22 5 35 9t21 12v-1q22 22 22 42q0 12 -1 17q-3 28 -5.5 52t-4.5 45 q-3 26 -5.5 48t-4.5 39q-1 3 -1 6v22q-3 57 -3 78q0 38 4 74t11 72q2 8 8.5 27.5t17.5 51.5q11 29 16 50.5t5 32.5z" />
<glyph unicode="^" horiz-adv-x="606" d="M593 743q-8 12 -17 17t-19 10q-4 2 -9.5 4.5l-5.5 2.5q-19 11 -29 15t-22 6h1q-7 2 -17 5t-30 11q-23 11 -54.5 23t-58.5 14h2h-17q-25 0 -42.5 -11t-26.5 -39q-2 -2 -5 -3q-3 -2 -7.5 -4t-11.5 -7l2 1q-16 -9 -25 -13t-16 -6q-8 -4 -17 -8t-27 -15q-19 -11 -32.5 -30.5 t-13.5 -42.5q0 -18 11 -32q11 -18 28.5 -27t38.5 -9q13 0 27 4t26 13q23 14 37 24t28 19q8 5 17.5 11t21.5 14q21 -2 37 -5t30 -7.5t28.5 -10.5t31.5 -14q10 -6 24 -12h-1q12 -5 23.5 -9t25.5 -4q20 0 46 12q18 8 25.5 23t7.5 32q0 11 -4 24t-11 24z" />
<glyph unicode="_" horiz-adv-x="477" d="M502 2q0 49 -71 58q-3 2 -11 2h-13l-129 -10q-16 -1 -25 -1.5t-15 -1t-10.5 -1t-12.5 -0.5h-115q-16 0 -34 -15q-15 -17 -15 -28q0 -42 27.5 -65t77.5 -23h78h23q53 3 95.5 5.5t74.5 5.5q22 2 27 3h-1q23 3 40 33q9 21 9 38z" />
<glyph unicode="`" horiz-adv-x="216" d="M243 490q0 42 -51 137l1 -1l-33 66q-32 54 -66 54q-25 0 -43 -19t-18 -45q0 -7 2 -16.5t8 -20.5q12 -22 22 -38.5t17 -27.5q2 -5 4 -8.5t4 -6.5v1q1 -6 5 -10q1 -5 2 -8t3 -6q0 -2 8 -15h-1q13 -25 22.5 -41t15.5 -25q20 -23 48 -23q50 0 50 53z" />
<glyph unicode="a" d="M619 82q0 16 -2 33t-8 36q-2 5 -3 10t-2 9q-4 12 -7 22.5t-6 21.5v-1q-7 23 -12.5 52t-8.5 44q-1 0 -1 3q5 7 7.5 10t7.5 7l7 8q12 19 12 48q0 10 -2 15q-7 16 -18 25t-27 14l2 -1q-20 9 -25 14q-3 12 -7 27t-8 33l-46 178l-3 12q-8 29 -12 45.5t-6 20.5q-23 50 -72 50 q-12 0 -29 -7h1q-11 -3 -17 -8t-11 -12l-8 -14t-7 -12l1 1q-3 -5 -5.5 -10l-4.5 -9q-23 -40 -40 -76t-30 -70q-36 -96 -65 -164q-21 -51 -37.5 -95.5t-27.5 -80.5v1q-5 -11 -8 -21t-7 -20t-7 -20.5t-7 -20.5v1q-23 -55 -23 -86q0 -33 27 -51l-2 1q20 -17 49 -17q36 0 50 23 q14 27 19 46v-1l29 85q5 18 8.5 27t5.5 11q4 11 22 19l-2 -1l3 0.5t8 1.5q6 2 14 4t17 5q18 6 35.5 12t34.5 11q34 11 57 14l2 -4q4 -11 6 -20t4 -16q1 -2 1.5 -5.5t1.5 -4.5q5 -20 8.5 -36t6.5 -30l5.5 -22l4.5 -18l10.5 -46.5t3.5 -17.5q16 -43 83 -43q60 0 60 60z M360 417h1l-45 -10l3 1h-15q2 7 10 29t20 59q6 17 11.5 30.5t10.5 23.5q2 -9 4.5 -21.5t6.5 -29.5q5 -21 8 -37t5 -27q0 -4 2 -10q-4 -2 -9 -4t-13 -4z" />
<glyph unicode="b" horiz-adv-x="644" d="M685 291q0 45 -31 98h1q-26 48 -62 80h1q-15 14 -22 21l-7 7l11 12q12 13 17.5 20.5t10.5 15.5q7 29 11 54t4 45q0 29 -6.5 51t-21.5 38v-1q-44 50 -105 65h1q-6 2 -26 6t-54 9t-54 7t-32 2q-77 0 -127 -8t-76 -37q-7 -7 -14 -17.5t-12 -27.5q-1 -3 -1 -9v-10 q0 -9 2.5 -17.5t6.5 -16.5q2 -4 3 -7q-2 -23 -3 -47t-1 -50v-109q0 -4 0.5 -9.5t0.5 -10.5q1 -6 1 -12v-10v-125v-32q0 -11 1 -17q1 -17 1.5 -27.5t0.5 -14.5v-3q0 -24 -15 -33q-31 -19 -31 -51q0 -54 85 -78h-1q60 -18 111 -18q31 0 62 4.5t70 12.5q57 14 104.5 33.5 t87.5 43.5q108 72 108 173zM499 254q-20 -16 -40.5 -27.5t-44.5 -19.5q-14 -5 -32.5 -9t-44.5 -9q-45 -9 -70 -9h-7q-5 30 -7 62t-2 68v16q0 5 -0.5 9.5t-0.5 7.5q0 5 -0.5 8.5t0.5 6.5q3 2 7.5 3.5t9.5 3.5l21 7l-2 -1q11 2 20.5 4.5t16.5 4.5t12 3t8 2l-2 -1q6 1 17.5 4 t30.5 11l14 6q20 8 31 13l11 5q4 0 62 -64v1q26 -29 26 -51q0 -24 -35 -56zM472 639q0 -24 -66 -76q-11 -10 -28.5 -17.5t-41.5 -14.5q-23 -7 -42 -10.5t-36 -3.5h-4q0 5 -0.5 9t-1.5 10v-1v6q-1 5 -1 9v9q0 50 2.5 78.5t9.5 36.5q5 3 10 4t9 2h1q15 1 23.5 2t14.5 1.5t11 1 t14 1.5q126 0 126 -47z" />
<glyph unicode="c" horiz-adv-x="635" d="M668 268q0 32 -19 51.5t-51 19.5q-16 0 -31 -6t-30 -17h1q-9 -6 -16 -11.5t-12 -10.5v1q-16 -13 -31.5 -25t-29.5 -21q-33 -21 -56 -35t-36 -19q-23 -11 -44.5 -17.5t-41.5 -6.5q-40 0 -62 25h1q-20 26 -20 69q0 40 21 85l3 4.5t3 6.5q5 10 15.5 29t27.5 48q44 82 93 140 q67 81 115 81q9 0 12 -12q1 -6 2.5 -13.5t5.5 -18.5q2 -5 2.5 -10.5t2.5 -10.5q7 -20 19.5 -30t29.5 -10q61 0 61 97q0 37 -5 64t-13 47q-30 59 -102 59q-59 0 -111 -35h1q-12 -7 -25 -18.5t-30 -28.5v1q-14 -13 -26.5 -26.5t-22.5 -24.5q-50 -60 -81 -103t-48 -72 q-17 -34 -30.5 -59.5t-22.5 -43.5l1 1q-17 -31 -27 -76q-10 -41 -10 -79q0 -68 17 -105v1q19 -44 70 -83q53 -44 156 -44q14 0 42 5.5t72 18.5q16 5 28 11t26 16q206 110 206 191z" />
<glyph unicode="d" horiz-adv-x="605" d="M642 465q0 117 -28 168q-19 29 -36 50t-33 35q-20 18 -43.5 30.5t-47.5 23.5q-11 3 -21.5 6t-20.5 6q-13 4 -25 7t-25 8h1q-7 2 -16.5 4t-21.5 3q-21 3 -31 7q-17 5 -41 8.5t-56 3.5q-85 0 -85 -63v-16q0 -10 0.5 -19t1.5 -17q1 -7 1 -12v-6q0 -14 -1 -29.5t-3 -37.5 q-2 -16 -2 -28q0 -11 -1 -20q-1 -6 -1.5 -10.5t-0.5 -10.5v-14t-1 -13q-2 -20 -3 -35.5t-3 -24.5q-2 -14 -5 -28.5t-5 -27.5l1 1q-1 -2 -1.5 -6t-1.5 -6q-4 -38 -7 -68.5t-5 -55.5q-2 -17 -3.5 -32t-3.5 -27l-7 -63q-3 -26 -3 -30q0 -57 25 -80.5t81 -23.5q13 0 28.5 4.5 t31.5 14.5l9.5 5t17.5 8q6 3 12 6.5t12 7.5l-3 -1q40 17 66.5 29t44.5 23v-1q259 142 259 347zM486 463q0 -2 -0.5 -2.5t-0.5 -1.5v3q-4 -26 -8 -36q-23 -62 -94 -125q-60 -48 -138 -82q-26 -10 -32 -10q1 0 1 5q0 6 3 38v-1q1 5 1 11q0 7 1 13q2 23 3 39t2 27q4 11 4 12v3 v1q0 2 1 4q3 29 4.5 50t2.5 38q1 5 1 10v11q2 21 4.5 43t7.5 45q2 8 2.5 16t1.5 14q0 3 1 8.5t1 6.5q2 6 2.5 9.5t0.5 6.5q2 10 2.5 13.5t0.5 4.5v2v3q0 2 0.5 4.5t0.5 4.5q1 2 1.5 4.5t1.5 4.5v1h1q104 0 158 -30q67 -40 67 -139q-3 -14 -3 -17q0 -2 -2 -9v-3zM261 650v-3 v3zM253 597q0 1 1 2z" />
<glyph unicode="e" horiz-adv-x="667" d="M697 145v9q0 27 -14 50.5t-41 34.5q-23 -4 -43 -6t-37 -2h-12q-13 -1 -25.5 -1.5t-26.5 -1.5q-11 -1 -23 -1q-11 0 -23 -1q-16 -3 -32 -6.5t-32 -7.5q-28 -5 -55 -10.5t-53 -8.5q-3 -1 -7 -1q-5 0 -10 -0.5t-9 -0.5q-5 0 -11 0.5t-14 1.5l3 -1q-18 5 -18 13v0q0 1 1 2 q2 4 2.5 7.5t0.5 8.5v17q0 16 1.5 33t3.5 34l3 34q0 9 3.5 19.5t12.5 12.5q11 1 18.5 2t14.5 3q8 2 15 3t16 3q8 2 16.5 3.5t16.5 2.5q21 5 41.5 8.5t40.5 3.5q5 0 9 -0.5t8 -0.5q17 0 35 -0.5t35 -2.5h5q21 0 41 12t21 38l-1 -1q2 4 2 7v7q0 24 -13 42t-33 26 q-13 3 -22.5 5t-18.5 2l2 -1q-20 5 -39.5 7t-36.5 2q-34 0 -66.5 -4t-64.5 -9h1q-11 -1 -20.5 -2.5t-20.5 -3.5v6q2 4 2 7v7q0 5 -1 8q0 9 0.5 17t1.5 18l2 6l1 13v4q8 1 14 3.5t12 6.5q16 7 33 10t34 5q14 3 30.5 4.5t34.5 2.5q23 5 43.5 6t40.5 1h9q26 0 52 2t58 16 q15 22 15 44q0 15 -5 30t-14 29t-21 25.5t-26 18.5l1 -1q-17 10 -40 10q-6 0 -11 -0.5t-10 -1.5q-7 -2 -12.5 -2.5t-11.5 -0.5q-15 0 -27 -3h3q-33 -2 -64.5 -6.5t-66.5 -14.5h1q-19 -4 -36.5 -7t-36.5 -6q-8 -3 -17 -5.5t-17 -4.5l1 1q-20 -4 -43 -12h-2q-16 0 -32 -4.5 t-28.5 -13.5t-20.5 -22.5t-8 -30.5v-14q1 -11 1.5 -21t0.5 -23v-120q1 -6 1 -12v-11v-26q0 -24 -3 -48q-2 -28 -5.5 -55t-8.5 -56v1q-5 -28 -8 -56t-6 -57v2q-3 -12 -3 -30q0 -25 7.5 -49t22.5 -43.5t37 -32t51 -13.5h-1q9 -1 19 -1.5t19 -0.5q29 0 55 6q69 15 135.5 27 t135.5 12h20q12 0 23 0.5t22 1.5h-1q4 0 12.5 0.5t15.5 1t9.5 1t-5.5 0.5q26 7 46.5 25.5t22.5 45.5zM242 525v1v-1z" />
<glyph unicode="f" horiz-adv-x="556" d="M591 755q0 70 -72 70q-43 0 -103 -7.5t-139 -25.5q-93 -20 -148 -40.5t-72 -39.5q-17 -23 -17 -61l12 -37q10 -6 17.5 -8t15.5 -3q10 -8 10 -14q0 -41 -0.5 -69t-1.5 -48q-3 -6 -7 -13t-12 -14q-7 -17 -10 -31t-3 -23q0 -16 10 -37q1 -3 1 -7t1 -7v1q1 -9 1.5 -15.5 t3.5 -14.5q0 -2 0.5 -4t0.5 -5t-0.5 -7t-0.5 -7v2q-3 -33 -3 -50v-110q-1 -5 -1 -12v-7q0 -19 1 -24q-1 -5 -1 -10v-7q0 -32 29 -41h-1q26 -10 53 -10q10 0 16 1t9 7q19 16 26 58q3 25 5 54t4 66q6 114 6 119q0 10 12 15q16 5 44 10.5t67 11.5q42 6 71.5 10.5t48.5 10.5 l-2 -1l53 12q39 16 39 61q0 69 -84 69q-5 0 -21.5 -1.5t-44.5 -6.5q-62 -7 -94 -13q-8 -2 -15 -2.5t-14 -1.5q-14 -4 -21 -7h-13v24q0 10 -0.5 18.5t-0.5 16.5q0 34 3.5 51t12.5 23h-1q7 5 20 8.5t33 8.5l20 4l20 4q8 2 14.5 3.5t10.5 2.5q54 12 92 19.5t65 12.5 q31 7 43 21.5t12 46.5z" />
<glyph unicode="g" horiz-adv-x="760" d="M768 434q0 60 -18 84l1 -1q-22 34 -83 34q-11 0 -32 -3.5t-50 -11.5q-41 -10 -76 -21.5t-65 -23.5q-107 -44 -107 -103q0 -28 20 -53q22 -27 50 -27q11 0 30.5 5.5t51.5 19.5l-1 -1q10 4 19 7.5t20 6.5q9 4 19 7.5t21 8.5l-1 -1q14 4 21.5 7t9.5 4q-5 -12 -48 -60v1 q-117 -124 -276 -124q-33 0 -54 33h1q-22 33 -22 69q0 37 33 109q14 30 46 69t83 88q106 100 155 100q19 0 36 -17q13 -14 23 -19.5t16 -5.5q46 0 46 74q0 57 -22 85l1 -1q-28 43 -78 43q-30 0 -57.5 -8t-52.5 -20t-48 -27.5t-44 -30.5v1q-5 -4 -11 -8.5t-11 -7.5 q-140 -103 -217 -270v1q-45 -92 -45 -155q0 -85 37 -147q44 -72 117 -101q17 -9 35.5 -11.5t38.5 -2.5h15q11 0 28 2q29 3 42 4t18 2q18 5 25 7.5t12 4.5q2 1 3.5 1.5t3.5 1.5l-2 -2q17 5 30 8q4 1 10.5 3t9.5 3q14 5 36.5 18t53.5 32q55 37 95 75.5t67 80.5q10 16 17 35.5 t14 43.5q5 26 7.5 45.5t2.5 39.5z" />
<glyph unicode="h" horiz-adv-x="543" d="M578 702q0 5 0.5 9.5t0.5 8.5q0 100 -84 100q-16 0 -30 -5q-8 -4 -15.5 -10.5t-16.5 -15.5h1q-10 -10 -15.5 -18.5t-7.5 -13.5l-7 -99v-20q-1 -5 -1 -13v-40q0 -9 -1 -14q-2 -30 -8 -36q-1 -3 -48 -7q-13 -2 -24.5 -2.5t-21.5 -2.5h1q-20 -2 -36 -4t-24 -2q-13 0 -17 1v4 l11 169v7q0 15 -3 30.5t-12 30.5l1 -1q-22 43 -63 43q-79 0 -89 -162q0 -5 -0.5 -13.5t-1.5 -19.5q-2 -23 -3.5 -56.5t-3.5 -78.5v-38v-31q-2 -75 -9 -153q-2 -19 -3 -35.5t-1 -32.5q0 -18 1 -32.5t3 -26.5q-1 -5 -1.5 -9t-0.5 -9q0 -26 15 -48q34 -30 71 -30q69 0 76 124v7 q1 10 1.5 21t0.5 24q0 8 -0.5 17t-1.5 20q0 11 -0.5 21.5t-0.5 18.5q0 28 3 46q1 32 8 34q18 3 28 3q11 2 18.5 2.5t14.5 1.5q2 0 4 0.5t4 0.5l99 9q4 -7 4 -26v-12l-1 -19v-3l2 8q-2 -5 -2 -9v-5t-1 -5v-19q-1 -5 -1 -11v-11q0 -9 -1 -12l-2 -42v-14q0 -4 -1 -7 q0 -2 -0.5 -6.5t-0.5 -6.5v-4q-3 -38 -3 -64q0 -11 0.5 -20.5t1.5 -16.5q7 -35 31 -48q21 -12 46 -12q44 0 63 41q1 5 2.5 10.5t2.5 8.5v0q0 1 3 4zM221 520l1 -1h-1v1z" />
<glyph unicode="i" horiz-adv-x="637" d="M664 726q0 30 -39 75l-69 6q-22 -2 -42 -3t-36 -3q-71 -5 -82 -7h1q-13 -2 -24 -2.5t-22 -1.5l-34 -3h1q-14 -1 -27.5 -2.5t-25.5 -5.5l1 1q-13 -2 -27.5 -4.5t-28.5 -4.5q-6 -2 -12.5 -3t-11.5 -3l1 1q-59 -9 -88.5 -27t-29.5 -54q0 -77 99 -77q3 0 11 1t22 3q22 2 39 5 t28 5h-3q2 0 3 0.5t3 0.5q4 1 9 1h10t22 2v-32q0 -34 -3 -74.5t-8 -86.5v1l-20 -163v1q0 4 -0.5 1t-1 -8t-1 -11.5t-0.5 -10.5l-3 -26q-2 -14 -6 -22.5t-9 -13.5l2 1q-11 -8 -34 -12q-4 -1 -14.5 -3t-30.5 -5q-14 -3 -25.5 -5.5t-23.5 -5.5l1 1q-20 -3 -32.5 -6t-23.5 -8 q-36 -16 -36 -57q0 -3 -0.5 -6t-0.5 -5q0 -24 10.5 -40t30.5 -20q4 0 6 -1h-2q27 -6 44 -6t34.5 2.5t49.5 7.5q2 1 10 3l-1 -1q29 5 55 9.5t49 7.5q165 27 184 29q42 5 67.5 10t38.5 8h-1q5 1 11 1.5t8 0.5q23 40 23 68q0 45 -51 76q-29 -4 -52 -7.5t-34 -5.5q-6 -1 -11 -1 t-3 0q-6 -1 -15 -1.5t-20 -0.5q-27 0 -43 -6q-1 0 -1 6v4l31 299q1 4 1 11v7q0 82 13 111l32.5 5t48.5 8q4 1 7.5 2t8.5 2q93 0 93 68z" />
<glyph unicode="j" horiz-adv-x="785" d="M812 743q0 78 -131 78h-16h-6q-2 0 -7 -2h-18l-176 -3q-14 -2 -24.5 -2.5t-18.5 -1.5h1q-3 0 -7.5 -0.5t-6.5 -0.5q-15 -2 -27 -2t-22 -1h1q-5 0 -11 -0.5t-9 -0.5q-27 -4 -47 -11q-30 -6 -51.5 -12t-33.5 -13q-51 -27 -51 -84q0 -33 32 -51l-2 1q19 -13 49 -13q8 0 31 3 t64 10q32 5 63.5 8t62.5 3q25 0 34 -15q8 -11 25 -105q8 -46 11 -75t3 -44q0 -36 -1 -62.5t-4 -44.5q-6 -55 -31 -77.5t-76 -22.5q-40 0 -91 21q-45 19 -84 50q-14 13 -27.5 26t-27.5 27h1q-41 36 -80 36q-29 0 -48 -33q-13 -23 -13 -49q0 -75 130 -155q106 -68 183 -87 q29 -8 49.5 -11t32.5 -3q60 0 113 23q61 28 88 80h-1q7 10 12 25v-1v1l0.5 0.5t2 4t5.5 12.5q1 8 3 16.5t6 20.5q9 41 14 92t5 113l-0.5 7t-1.5 14q-1 8 -1.5 16.5t-2.5 21.5q-3 9 -4.5 20t-3.5 23q-2 11 -3 21.5t-3 21.5v-1q-4 25 -6 45t-2 36v19q0 12 37 12h21q3 0 8 -0.5 t10 -1.5h-1q8 -2 13.5 -2.5t9.5 -1.5l-1 1q6 -2 7 -2h3q13 0 20 10q14 13 21 30t7 43z" />
<glyph unicode="k" horiz-adv-x="707" d="M685 109q0 25 -11 47t-24 42q-7 11 -12 18.5t-7 12.5q-47 43 -81.5 86.5t-69.5 93.5l1 -1q-2 5 -5 9.5t-6 9.5q-7 11 -12 19.5t-5 18.5v-3q1 4 3.5 7.5t4.5 6.5q2 2 4 3.5t4 3.5q8 6 15 11.5t14 10.5q8 6 16 12.5t17 13.5q3 2 6.5 5t6.5 5q37 29 73 58.5t71 64.5 q17 15 32 32t17 43v12q0 25 -17 47l1 -2q-1 1 -3 5q-11 12 -21 22t-29 10h-4q-32 -5 -57 -25q-20 -16 -39.5 -32.5t-38.5 -33.5q-5 -4 -8.5 -7t-7.5 -7q-47 -39 -92.5 -74t-95.5 -71l1 1l-17 -13l-14 -10t-13 -10l1 1q-20 -13 -39 -17h-1q-4 0 -4 6v4q2 33 7 65.5t12 62.5 v-1q2 5 2 8v6q0 1 2 7l4 22v7q0 19 -9 37t-23.5 32.5t-32.5 23.5t-37 9h-4q-37 0 -56 -35q-14 -25 -17 -55t-4 -60q-1 -20 -2.5 -38.5t-6.5 -35.5q0 -155 -15 -315v2q-2 -10 -2.5 -21.5t-0.5 -23.5q0 -13 -1 -28.5t-6 -32.5v-54q0 -15 2 -30t8 -30q4 -12 10.5 -18.5 t16.5 -11.5l-2 2q1 -1 2 -1.5t2 -1.5q9 -7 16.5 -9.5t15.5 -4.5q2 -1 4 -1t3 -1q1 0 5.5 0.5t5.5 0.5q11 2 19 4.5t18 9.5q8 5 15 10.5t17 12.5q7 10 9.5 20t4.5 21q1 5 2.5 11.5t3.5 12.5q1 6 1.5 12t0.5 13v12q0 8 1 12q0 17 0.5 33t1.5 32q0 8 0.5 14.5t0.5 14.5 q1 5 1 13v27q3 17 16.5 28.5t30.5 12.5q24 -12 42.5 -33t36.5 -42q5 -7 10.5 -13t10.5 -12q14 -19 28 -37l28 -36q13 -16 25 -31t24 -31q5 -5 9 -10.5t9 -11.5q20 -27 43 -51.5t49 -24.5q8 0 18 5q1 0 1.5 -0.5l0.5 -0.5q23 0 40.5 14.5t19.5 38.5q4 11 6.5 20.5t2.5 17.5z " />
<glyph unicode="l" horiz-adv-x="617" d="M651 230q0 31 -16 56q-22 33 -55 33q-16 0 -91 -34q-17 -8 -31 -14t-27 -11q-12 -5 -22.5 -9t-18.5 -8l1 1q-11 -5 -21 -8.5t-21 -6.5q-11 -4 -21 -8t-21 -8q-48 -14 -81 -14q1 0 -3 15l1 -1l-3 11l81 490l1 3v9q0 36 -24 65q-29 32 -66 32q-39 0 -57 -33 q-6 -8 -11.5 -21.5t-8.5 -32.5l1 1q-1 -3 -2 -7t-2 -6q-2 -11 -4 -20.5t-4 -20.5l1 2q-4 -18 -7.5 -35t-7.5 -32q-6 -31 -12 -59t-11 -47q-19 -109 -28.5 -185.5t-9.5 -132.5q0 -41 9 -71t26 -51q20 -23 50.5 -34t69.5 -11q17 0 40.5 3.5t57.5 11.5q16 5 35.5 11.5 t39.5 14.5q10 4 19 7.5t18 7.5q8 3 16.5 6.5t16.5 7.5q20 9 37 16t31 14q13 5 23 9.5t19 8.5q13 7 25.5 12.5t26.5 10.5q41 24 41 62z" />
<glyph unicode="m" horiz-adv-x="673" d="M696 99q0 2 -0.5 10t-1.5 22v-1q-2 20 -3 40l-2 40q-1 14 -1.5 26.5t-1.5 26.5q0 16 -0.5 31.5t-0.5 32.5q-1 30 -1.5 60.5t-0.5 60.5q-1 59 -2.5 105t-6.5 84q-1 7 -4.5 20t-8 27.5t-9 26.5t-7.5 18q-7 10 -16.5 19t-21.5 19q-31 22 -52 22q-31 0 -56 -43 q-11 -28 -18 -46.5t-12 -32.5q-70 -198 -82 -202q3 0 -1 19l1 -2q-1 4 -1.5 5.5l-1.5 4.5q-3 10 -6 18.5t-3 11.5q-4 14 -9 28.5t-9 25.5q-7 23 -12.5 40.5t-10.5 31.5q-17 47 -28 76t-20 42q-38 51 -96 51q-32 0 -48 -39q-13 -42 -13 -49q-9 -39 -14.5 -69t-9.5 -51 q0 -2 -0.5 -4.5t-0.5 -4.5q-2 -22 -3.5 -38t-3.5 -28q-12 -75 -20 -155t-16 -172q0 -11 -6 -41q-2 -14 -3.5 -25t-1.5 -21q0 -36 13 -62v1q16 -41 57 -41q3 0 10 1t21 8t21.5 11.5t11.5 11.5q5 30 7 57.5t3 56.5q5 29 8.5 64t7.5 79l5 86q2 22 3 33.5t1 15.5q1 -8 21 -52h-1 q18 -48 30.5 -78t22.5 -47l-1 1q39 -76 81 -76q29 0 48 31v-1q11 17 19 30t13 23q8 14 15.5 28t15.5 28q10 17 19 33t17 31q9 17 15 28.5t11 19.5v-11v-19q0 -10 0.5 -22.5t1.5 -23.5q1 -8 1 -14v-8v-151l-1 -2v-13q0 -145 86 -145q29 0 46 19t17 48z" />
<glyph unicode="n" horiz-adv-x="642" d="M659 283v34t-0.5 29.5t-1 41t-1.5 68.5q0 15 -0.5 25.5t-1.5 15.5q0 8 -0.5 15t-0.5 15q-1 15 -1 27v21q-2 57 -6.5 98t-10.5 68q-11 35 -37 54q-30 27 -59 27q-32 0 -49 -19t-17 -51v-9l21 -263v-10q0 -24 -3 -85q-1 -29 -2 -49.5t-3 -31.5q-7 6 -23 29t-44 63h1 q-9 14 -18 27t-18 27q-12 17 -24.5 35.5t-25.5 36.5v-1q-17 23 -35.5 62t-40.5 93l1 -1q-16 41 -26.5 63.5t-18.5 34.5q-27 38 -79 38q-63 0 -72 -80q0 -3 -1 -8q0 -2 -0.5 -4.5t-0.5 -4.5v1q-3 -12 -3 -24v-81q0 -3 -3 -49l-4 -86q-3 -38 -3 -42q0 -13 3 -65q2 -40 4.5 -72 t5.5 -57q0 -20 0.5 -38.5t1.5 -38.5q-3 -26 -3 -45q0 -20 3 -35q9 -29 48 -53q20 -2 36.5 -2.5t22.5 -0.5q31 0 48 33l-1 -1q12 18 12 40v5q0 4 -2 9l1 -1l-8 100q-1 13 -1.5 20t-1 11.5t-1 8.5t-0.5 10v99q1 5 1 12v29q0 6 -1 8q3 -3 6 -6.5t7 -8.5q2 -2 2 -5l-1 2 q1 -2 1 -3l2 -2l-1 -1q1 -2 1 -3t2 -3q0 -9 7 -9q2 -4 3 -4q15 -23 26.5 -40.5t19.5 -31.5q10 -12 18.5 -23t13.5 -16q7 -10 11.5 -18t9.5 -16l-1 1q4 -6 8.5 -13t9.5 -15q17 -23 41.5 -48.5t58.5 -54.5q84 -69 127 -69q34 0 52 32q9 19 15 116q2 36 3 64.5t1 48.5zM258 406 l-3 -2v3zM484 292q0 3 1 4q-1 -2 -1 -4z" />
<glyph unicode="o" horiz-adv-x="803" d="M815 481q0 23 -11 69q-1 2 -2 8t-3 14q-1 5 -3.5 13t-5.5 18l1 -2q-5 23 -13 42.5t-19 38.5q-19 32 -42.5 57.5t-55.5 45.5q-67 43 -135 43q-4 0 -13 -0.5t-15 -1.5q-14 -3 -16 -3q-82 0 -207 -88q-43 -30 -84 -82.5t-85 -133.5q-14 -26 -23 -52.5t-14 -53.5 q-5 -24 -6.5 -41t-1.5 -26q-5 -20 -5 -37q0 -31 14 -81q13 -38 26 -60.5t25 -30.5q8 -11 17.5 -20t21.5 -18q6 -4 56 -29q7 -3 13 -5.5t11 -4.5q12 -5 20.5 -8t16.5 -5v1q67 -18 94 -18q94 0 152 23q11 6 21 11.5t18 8.5q6 4 12.5 6.5t11.5 5.5q26 11 46.5 24t37.5 27 q69 60 107 157l-1 -1q21 49 30 95t9 94zM658 459q0 -77 -49 -150q-49 -76 -118 -103q-33 -17 -95 -17q-4 0 -14 1t-24 3l1 -1q-38 9 -64.5 20.5t-41.5 28.5q-35 35 -35 110q0 29 12.5 60.5t36.5 69.5q25 38 54 67.5t63 56.5q67 51 123 51q68 0 110 -62q41 -61 41 -135z" />
<glyph unicode="p" horiz-adv-x="566" d="M597 621q0 16 -1 30.5t-4 27.5q-8 31 -29 55l2 -2q-34 51 -137 73l1 -1q-35 8 -72.5 11.5t-78.5 3.5q-61 0 -128 -18q-102 -27 -102 -86q0 -13 4.5 -23t12.5 -20t12 -17.5t6.5 -15t3 -16.5t0.5 -21q0 -5 0.5 -9.5t0.5 -9.5v-14q0 -7 -1 -18q0 -3 -0.5 -6.5t-0.5 -7.5v3 q-2 -17 -3 -27.5t-1 -20.5l-9 -372v-7q0 -89 77 -89q49 0 59 60q2 19 2.5 37t1.5 35q0 5 1 13t3 23v-1q2 11 3 21.5t1 19.5q0 17 1 27t3 14q2 5 38 17h-1l28 9q7 2 14 4.5t15 4.5q21 8 45.5 20t52.5 30l14 9v-1q6 4 11.5 7t12.5 9q11 8 18.5 14.5t12.5 11.5q23 21 41.5 44.5 t33.5 51.5q36 64 36 117zM448 614q0 -23 -17.5 -49t-52.5 -54q-29 -21 -60.5 -40t-66.5 -33q-20 -9 -25 -9q-2 0 -2 16q0 174 10 198q16 15 110 15q104 0 104 -44zM234 642l-1 -1v0q0 1 1 1z" />
<glyph unicode="q" horiz-adv-x="809" d="M681 172q0 2 5.5 9t16.5 22q5 5 8.5 9.5t6.5 9.5q5 6 9 12t9 12q27 38 45.5 74.5t29.5 78.5v-1q12 37 17 63t5 41v22q0 24 -6 48q-8 25 -12 42q-3 13 -4 20.5t-3 9.5q-9 17 -16 28t-12 19v2q-43 64 -109 99l1 -1q-33 20 -66.5 28.5t-67.5 8.5q-26 0 -53 -4t-56 -15h1 q-33 -9 -58 -20t-43 -24q-108 -72 -188 -196q-89 -139 -89 -266q0 -53 9.5 -93t27.5 -69q42 -57 131 -93h-1q17 -8 33.5 -13t28.5 -7q16 -3 25 -4t15 -2t10 -1t12 -1q45 0 96.5 11.5t108.5 34.5q3 -5 39 -43v1q48 -57 88 -57q29 0 47.5 21t18.5 50q0 41 -32 88 q-28 42 -28 46zM678 525q0 -27 -3.5 -50.5t-12.5 -45.5q-3 -10 -9 -23t-17 -29q-5 -8 -9.5 -14t-6.5 -9v8q-2 7 -3 11.5t-1 9.5q-3 13 -5.5 22.5t-7.5 17.5l1 -2q-20 40 -69 40h-15q-60 0 -60 -97q0 -11 0.5 -24.5t2.5 -32.5q3 -18 4 -30t1 -20q0 -7 -0.5 -13t-1.5 -11 q-4 -16 -50 -29q-23 -7 -41.5 -10.5t-33.5 -3.5q-57 0 -94 25q-41 27 -41 80q0 64 74 173q67 104 126 143q76 48 158 48q56 0 85 -36.5t29 -97.5z" />
<glyph unicode="r" horiz-adv-x="619" d="M647 650v3q0 58 -63 106l1 -1q-52 46 -108 54l2 -1q-23 5 -47.5 6.5t-56.5 1.5q-72 0 -134.5 -9.5t-117.5 -30.5q4 2 -4 -1t-12 -4h1q-8 -2 -13 -5.5t-10 -6.5l2 1q-35 -19 -35 -69q0 -28 17 -54q6 -8 10 -19q4 -6 6 -10t4 -6q7 -20 11 -66t4 -119q0 -155 -6 -212 q-2 -15 -12 -83v1q-4 -20 -4 -40q0 -24 7.5 -40.5t23.5 -22.5q12 -5 22.5 -8.5t20.5 -3.5q9 0 18 3l-1 -1q28 6 44.5 22.5t21.5 27.5q2 5 3.5 12.5t4.5 15.5q6 25 8.5 43.5t4.5 36.5q1 3 1 6t1 7q3 30 5 44.5t4 22.5q0 1 0.5 3.5t0.5 7.5q1 5 1 12q0 8 2 19q1 5 1 8t1 7 q2 16 1 15q4 6 12 6t16 -1.5t14 -3.5q11 -5 23.5 -21t26.5 -40q2 -3 7.5 -14.5t14.5 -30.5v1q4 -8 7.5 -17t8.5 -19q3 -6 7 -12q6 -12 11 -23t9 -15l-1 3q6 -15 11 -25l-1 1q2 -6 3.5 -9.5t2.5 -6.5q36 -76 98 -76q48 6 67 31l6 27q7 8 7 22q0 15 -10.5 49t-33.5 88 q-29 47 -48.5 77t-31.5 47q-8 11 -13 19t-8 14q-1 2 -2 2.5t-1 1.5q3 2 12 11t25 23l10 11q13 13 23 23.5t20.5 23.5t24 31.5t32.5 46.5zM346 520q-65 -27 -78 -27q-17 0 -17 99q0 42 5 52v-1q2 6 60 15q8 2 19.5 4t27.5 5q18 4 47 9h1q55 0 67 -37q-12 -81 -132 -119z M323 323l-3 1q1 -1 3 -1z" />
<glyph unicode="s" horiz-adv-x="632" d="M280 27q97 0 214 83q59 43 96.5 86.5t52.5 88.5v-1q6 14 7.5 33.5t1.5 44.5q0 123 -70 169q-50 35 -175 35q-28 0 -80 -6q-26 -2 -44.5 -3.5t-30.5 -1.5q-20 0 -20 2q0 14 52 48q22 14 41.5 24t39.5 18q8 3 14.5 5.5t14.5 5.5t16.5 6.5t16.5 6.5q17 8 29 10.5t23 2.5 q6 0 15 -15q13 -36 42 -36h5t8 2q16 6 18 6q20 0 33 16.5t13 38.5q0 38 -45 80q-43 43 -77 49h-13q-2 0 -4.5 0.5t-5.5 0.5h-18q-27 -1 -52.5 -5.5t-48.5 -11.5q-14 -5 -37 -15.5t-55 -26.5q-21 -11 -33 -18q-6 -2 -12.5 -6t-10.5 -6q-12 -9 -21.5 -16.5t-17.5 -13.5 q-5 -5 -9.5 -8.5t-9.5 -6.5q-20 -14 -35.5 -28.5t-29.5 -32.5q-37 -49 -37 -86q0 -36 22 -73q28 -47 92 -64q37 -10 105 -10q10 0 31 0.5t44 1.5t42 1h28q19 0 34.5 -2.5t29.5 -7.5h-1q30 -11 30 -30q0 -51 -114 -130l1 1q-1 -1 0 -0.5t-1 -0.5q-14 -9 -23 -14.5t-12 -7.5 q-28 -14 -69 -14q-7 0 -35 9q-13 5 -21.5 7.5t-12.5 4.5q-13 11 -19 15l-15 11q-25 19 -50 19q-13 0 -25.5 -5.5t-22.5 -15t-16 -22.5t-6 -27q0 -69 84 -121q71 -43 139 -43z" />
<glyph unicode="t" horiz-adv-x="719" d="M715 695q1 4 1.5 7.5t0.5 10.5q0 19 -8.5 36.5t-22 31t-31 21.5t-36.5 8h-16t-16 1q-6 1 -13 1h-15h-10q-17 0 -27.5 -1.5t-21.5 -3.5t-22.5 -3t-22.5 -1h-11t-12 1q-22 -2 -42 -3t-40 -1q-17 0 -34 0.5t-34 1.5q-20 1 -41 1.5t-42 0.5q-8 -1 -14.5 -2t-13.5 -2 q-18 -2 -36.5 -4.5t-35.5 -8.5q-26 -14 -40 -36t-14 -50v-2q0 -2 -1 -3v3q-1 -4 -1 -9v-7q0 -13 6 -20t20 -18q3 -2 8.5 -6t8.5 -7q15 -2 27.5 -3t21.5 -1h15q21 4 44 5t45 1h49q2 0 2.5 -8t0.5 -19q0 -16 -5 -31q-2 -41 -3.5 -80t-3.5 -77q-5 -84 -8.5 -169.5t-3.5 -179.5 q14 -19 35.5 -32.5t41.5 -14.5q15 0 29 3.5t24 17.5q17 12 20 29.5t3 35.5v6v10q0 6 1 11q-3 43 -3 88q0 47 3 92t7 91q2 26 4 51l4 50l-1 -1q1 5 1 7v6v44q1 5 1 11v15q0 14 2.5 29t10.5 23l14 1h-1q52 6 86 6h37h20t20 1h2q1 0 9.5 -0.5t13.5 -1.5q2 0 3.5 -0.5t3.5 -0.5 q5 0 7.5 -0.5t4.5 -0.5q1 0 1.5 -0.5l0.5 -0.5q8 0 9 0.5l5 2.5q27 17 29 47z" />
<glyph unicode="u" horiz-adv-x="703" d="M717 693q0 96 -70 96q-94 0 -94 -100v-23q0 -5 -6 -53q0 -8 -0.5 -12l-1.5 -12q-2 -20 -4.5 -55t-6.5 -88v1q-5 -51 -10 -90.5t-13 -71.5q-5 -20 -20 -29l3 1q-15 -7 -24 -10.5t-17 -5.5q-75 -29 -128 -43.5t-84 -14.5q-28 0 -28 42q0 33 3 73.5t10 89.5v-1q4 21 7.5 43 t7.5 43q3 19 6 37.5t7 38.5l-1 -1q1 3 2 6.5t2 5.5h-1q2 9 5.5 22t8.5 33q13 43 13 72q0 41 -31 65l2 -1q-29 27 -64 27q-31 0 -49 -32q-8 -17 -10.5 -31t-5.5 -25q-1 -5 -2 -8.5t-2 -7.5q-15 -74 -27 -144t-23 -142q-9 -63 -14 -107t-5 -75q0 -46 10 -82q12 -45 40 -64 q55 -40 150 -40q44 0 169 36l10.5 3.5t10 3.5t13.5 4.5t21 7.5q3 1 6 2.5t6 2.5q9 3 15.5 4.5t10.5 2.5q21 -19 43 -46q39 -17 58 -17q8 0 15 2.5t12 6.5q27 13 27 56v13q0 7 -2 16q-3 10 -4 18t-1 12q0 -1 0.5 4l1.5 15q2 12 4.5 32t5.5 46q8 66 15.5 144t15.5 174 q1 10 1.5 18.5t1.5 17.5q1 13 1.5 24t2.5 22q2 20 3.5 31.5t1.5 16.5z" />
<glyph unicode="v" horiz-adv-x="616" d="M647 731q0 93 -61 93q-69 0 -88 -112l1 2l-14 -56t-11 -39q-7 -29 -16.5 -60.5t-23.5 -72.5l-5 -12.5t-8 -21.5q-5 -17 -13.5 -40.5t-19.5 -55.5q-11 -29 -18 -47t-9 -23q-21 -44 -23 -44q-7 0 -28 75q-7 25 -13 45.5t-11 39.5q-4 12 -7 22.5t-6 21.5q-12 46 -21.5 76.5 t-15.5 47.5v-2q-15 61 -29 104.5t-27 72.5q-2 4 -5 8.5t-4 6.5q2 -2 2 0q-24 24 -51 24q-14 0 -27 -7t-23 -18t-16.5 -25.5t-6.5 -29.5q0 -11 19 -68q17 -53 29.5 -94t22.5 -72q2 -9 5 -17t5 -16v1q12 -44 20.5 -76t14.5 -54q28 -99 68 -184q46 -100 102 -100q6 0 13.5 2 t19.5 6t19.5 8.5l12.5 7.5q19 19 27 30q18 24 34 51t31 59q2 6 5.5 16t8.5 21q5 15 13 34.5t18 45.5l41 109q14 37 22.5 61.5t12.5 38.5q18 72 26 125.5t8 91.5z" />
<glyph unicode="w" horiz-adv-x="869" d="M675 43q53 0 101 94q8 14 17.5 39t23.5 61q2 6 4.5 13t5.5 14q9 28 16.5 47.5t13.5 34.5l2 4q11 42 18.5 76t12.5 62v-1q5 26 6.5 57t1.5 69q0 203 -97 203q-66 0 -66 -73q0 -10 1 -29t3 -39t3 -37.5t1 -27.5q0 -30 -6 -57l1 1q-5 -20 -6.5 -29.5t-3.5 -17.5 q-1 -5 -1.5 -8.5t-1.5 -7.5q-8 -37 -15 -69t-15 -63v1q-27 -90 -42 -90q-4 0 -23 28q-16 24 -24 49q-14 46 -23 78.5t-14 55.5q-8 19 -7.5 23t-1.5 12l-4 18l-4 18q-8 26 -14 44.5t-14 29.5q-23 32 -66 32q-36 0 -57 -38q-3 -7 -7 -13t-6 -12l1 1l-8 -20v1l-19 -37h3 q-16 -33 -28 -57.5t-21.5 -43t-17 -32.5t-14.5 -26q-2 -7 -6 -13.5t-7 -13.5v1q-5 -9 -9.5 -19t-9.5 -20q-21 -40 -25 -40q-3 0 -4 20l-3 54q-1 9 -1.5 15t-1.5 11v-3q0 2 -0.5 3t-0.5 3l-4 307q-3 16 -3 19q-19 79 -81 79q-71 0 -71 -119q0 -82 4 -161t12 -160 q25 -232 74 -291q13 -12 34.5 -22t39.5 -10q38 0 99 91h-1q21 32 37 59t31 53q54 106 59 108q-2 -5 30 -64q25 -47 44 -82.5t36 -58.5q59 -84 119 -84z" />
<glyph unicode="x" horiz-adv-x="677" d="M551 511l10 12l-1 1q14 17 25 30.5t23 24.5q5 6 10 11.5t9 7.5q82 79 82 128q0 13 -3.5 27t-11.5 28q-20 31 -53 31q-58 0 -245 -226q-7 -8 -13 -16t-11 -15q-6 -7 -10.5 -13t-7.5 -9q-8 -8 -7 -8q-20 0 -54 75q-8 15 -13.5 29.5t-12.5 30.5v-1q-5 14 -11.5 28.5 t-12.5 28.5q-20 43 -32 66.5t-16 29.5q-29 33 -56 33q-61 0 -61 -79q0 -17 10 -47.5t30 -73.5q14 -28 30 -59t30 -60q3 -2 18 -28q5 -8 10 -17t11 -19v1q29 -53 29 -56q0 -11 -54 -89v1q-22 -32 -40 -57t-35 -45q-12 -16 -20 -26.5t-13 -15.5l-7 -10q-26 -40 -26 -68 q0 -27 23 -50q22 -27 50 -27q36 0 81 59l52 77l-1 -1q83 113 100 118q30 -6 68 -50h-1q15 -18 32.5 -35t36.5 -34h-1q10 -9 20 -17t19 -18l-2 1q60 -74 111 -74q13 0 33 8q9 21 13 40t4 36q0 18 -16 50q-2 2 -5.5 7t-4.5 5q-10 17 -22 26q-8 14 -39 44q-15 10 -24.5 17.5 t-19.5 17.5l-89 88h1l-13 14q12 24 94 112z" />
<glyph unicode="y" horiz-adv-x="674" d="M709 745q0 76 -70 76q-36 0 -115 -77v1q-22 -21 -46 -48.5t-50 -58.5q-2 -4 -4 -6.5t-5 -6.5q-8 -11 -17 -23t-17 -24l1 1q-31 -41 -32 -41q-9 0 -43 36q-15 16 -26.5 28.5t-21.5 26.5l1 -2q-8 15 -14 27t-11 20l-3 4q4 -5 2.5 -2t-5.5 9t-8 13t-5 10l2 -3q-2 5 -4 8 l-4 6l1 -3l-27 67q-23 42 -66 42q-35 0 -53.5 -24.5t-18.5 -59.5q0 -26 28 -90q10 -23 19.5 -43.5t20.5 -37.5q47 -81 120 -137q12 -12 24 -18q1 -3 6 -5h-1q14 -11 14 -18l-60 -268v-7q0 -19 5.5 -34t14.5 -27q27 -31 59 -31q19 0 35 11q17 14 37 71q8 24 13 42.5t7 31.5 q10 45 17 73t12 42q1 2 2 6.5t3 9.5v-1q3 14 12 40q8 32 18 53v-1q53 114 212 267q10 11 17 18t11 13q8 8 10.5 19t2.5 25z" />
<glyph unicode="z" horiz-adv-x="669" d="M691 169q0 96 -77 96h-6l-330 -40q3 11 20 34q7 8 12 15t10 15l5 7.5t6 9.5q37 67 110 152q9 10 18 19t17 18q45 49 90 102q5 6 10 11.5t9 10.5q14 18 26 32.5t20 28.5v-1q28 44 28 64q0 54 -58 72q-12 5 -28.5 6.5t-38.5 1.5h-17l-183 -7q-6 -1 -11.5 -1.5t-10.5 -1.5h1 q-6 -1 -10 -0.5t-12 -2.5q-19 -2 -33 -3t-24 -3h1q-11 -2 -18.5 -2.5t-10.5 -1.5q-28 -5 -48.5 -10.5t-36.5 -12.5q-48 -26 -48 -83q0 -80 66 -80q5 0 19.5 4t37.5 12h-1q53 17 89 27t56 10l17 1q14 2 25.5 3.5t21.5 1.5q18 0 20 3q-1 -8 -70 -78q-40 -45 -77.5 -93.5 t-72.5 -100.5q-20 -32 -37 -59.5t-31 -50.5q-11 -19 -21 -34l-18 -27q-54 -83 -54 -117q0 -36 34 -63q31 -25 67 -25q1 0 21 5t61 16q8 2 16 3.5t16 3.5h-1q20 5 36 9.5t29 7.5l-1 -1q65 14 140 18q18 1 35.5 2t34.5 3q18 2 36 2.5t37 2.5q2 0 5 0.5t6 0.5q13 1 27 3t24.5 9 t17.5 20t7 36z" />
<glyph unicode="{" horiz-adv-x="422" d="M404 10v9q0 26 -15 47t-42 21q-8 0 -14.5 -2t-14.5 -6q-19 -10 -28 -10q-3 0 -3 10v2q0 2 1 4q1 12 2.5 24l3.5 28q3 26 7 58t7 73q1 8 1 16v16q0 27 -5.5 51.5t-20.5 48.5q34 37 46 91t19 130q1 16 3.5 33t6.5 31.5t10.5 24t15.5 9.5h18q11 0 21.5 1.5t18.5 8.5t13.5 20 t7.5 36v10q0 42 -16.5 53.5t-45.5 11.5q-44 0 -78.5 -20.5t-59 -53.5t-39 -75t-18.5 -85l-2 -28v1q-2 -26 -4.5 -46t-8.5 -33.5t-17 -20.5t-30 -7q-20 0 -36 -8t-27 -21t-17 -29t-6 -31q0 -28 16.5 -49.5t51.5 -21.5q25 0 33.5 -6.5t8.5 -22.5v-10q0 -4 -1 -10v-9 q-2 -22 -5 -41.5t-6 -38.5q-1 -8 -1.5 -15t-1.5 -14q-5 -23 -7 -42.5t-3 -33.5v1q-1 -8 -1.5 -16t-0.5 -18q0 -65 26 -99t86 -34q4 0 8 0.5t8 0.5q-8 -11 -5 -13.5t12.5 0.5t23.5 10.5t29 15.5q2 1 7 1l-2 2q27 11 47.5 27.5t22.5 42.5z" />
<glyph unicode="|" horiz-adv-x="196" d="M194 2l3 56v-2q1 5 1.5 11.5t0.5 14.5l46 628q0 2 0.5 5t0.5 7q1 5 1 19q3 24 3 56q0 34 -9.5 58t-38.5 24h-3q-2 0 -2.5 -0.5t-2.5 -0.5q-22 -7 -34.5 -16t-18.5 -23.5t-8.5 -36t-4.5 -52.5l33 -2v5l-31 5q-2 -8 -2.5 -12.5t-0.5 -8.5q0 -3 -0.5 -6t-0.5 -5v2l-50 -673 v-7l32 -2v6l-31 3q-2 -10 -2.5 -16.5t-0.5 -10.5q0 -23 6.5 -38t16 -23.5t21 -12t21.5 -3.5q14 0 27.5 14.5t21.5 42.5z" />
<glyph unicode="}" horiz-adv-x="367" d="M329 498q-4 2 -7 6t-3 30q0 40 9 104t26 145l-10 -11q-2 25 -10.5 48t-24.5 41t-39 28.5t-53 10.5q-24 0 -42 -1.5t-41 -7.5q-29 -6 -42.5 -28.5t-13.5 -48.5t14.5 -47.5t52.5 -21.5v39q1 0 9.5 -1.5t22.5 -4.5t25 -6l-2 -18q-11 -4 -39 -7q3 0 5.5 0.5t4.5 0.5l25 3 q1 0 2 -0.5t3 -0.5q0 -2 -0.5 -2.5t-0.5 -2.5q-11 -57 -17.5 -112.5t-6.5 -104.5q0 -66 22 -103q-29 -29 -42 -69.5t-16 -89.5v1l-7 -94q-1 -7 -2 -15.5t-3.5 -16t-6.5 -12.5t-10 -6q-42 -5 -64.5 -29.5t-26.5 -53.5v-9q0 -21 6.5 -35.5t16.5 -23t22.5 -12t24.5 -3.5 q35 0 67 18t57 48t41.5 68.5t19.5 78.5l7 91q1 9 4 23.5t9 28t16.5 23.5t27.5 10q20 0 35.5 7.5t26 19t16 25.5t5.5 28q0 24 -16.5 44.5t-49.5 22.5l-19 2q-1 0 -1 1q-2 1 -3 1l-2 1l-12 -18zM205 755l1 16q11 -4 12.5 -7.5t-13.5 -8.5z" />
<glyph unicode="~" horiz-adv-x="497" d="M375 528q44 0 100 48q56 47 56 87q0 24 -25 40q-18 11 -41 11q-26 0 -53 -24q1 2 -0.5 -1t-3.5 -5l1 1q-8 -8 -17 -19.5l-9 -11.5h-1q-13 1 -25 7t-25 14q-10 5 -19 9l-18 8h1q-21 9 -40.5 14t-39.5 5q-17 0 -41 -10t-48 -24.5t-43.5 -31t-26.5 -29.5q-11 -20 -11 -36 q0 -50 60 -50q28 0 49 15q2 2 5 4.5t7 6.5q8 8 18 16t15 8q7 0 18.5 -2t22.5 -5t21 -7.5t15 -8.5q33 -29 98 -29z" />
<glyph unicode="&#xa1;" horiz-adv-x="350" d="M44 81q0 -26 19 -50q22 -23 46 -23q29 0 47 24l-1 -1q8 11 20 39q6 14 9.5 25.5t7.5 24.5q2 8 4.5 15t5.5 15q3 10 5.5 20t4.5 19v-1q8 27 13 44t10 33l45 180v-1q24 84 24 89q0 28 -15 45t-42 17q-20 0 -34 -10l2 1q-22 -15 -41 -75q-12 -42 -20.5 -76t-15.5 -61v1 q-3 -9 -5 -18t-4 -16q-2 -8 -48 -133q-37 -102 -37 -127zM181 709q0 -82 79 -82q19 0 36.5 5t33.5 16q39 27 39 73q0 30 -23 58q-24 29 -55 29q-41 0 -74 -27l1 1q-37 -27 -37 -73z" />
<glyph unicode="&#xa2;" horiz-adv-x="630" d="M362 52l4 56v-2q1 5 1.5 10.5t0.5 14.5l3 22q8 2 13 3q2 1 8.5 2t8.5 2q28 10 46 20h-1q182 78 182 141q0 2 0.5 2.5t0.5 2.5q0 12 -7.5 22t-18.5 17.5t-24 12t-25 4.5q-16 0 -27 -8l1 1q-5 -3 -9.5 -5.5t-10.5 -6.5l-33 -22t-36 -22.5t-34 -18.5t-27 -10 q-22 -8 -41.5 -13t-36.5 -5q-35 0 -54 17l2 -1q-8 8 -11.5 19.5t-3.5 25.5q0 11 2.5 18t9.5 18v-1q2 2 2.5 4t2.5 4q3 5 4 6.5l5 7.5q5 8 13 19t19 28q19 29 38.5 54t41.5 45q28 29 45 42t38 15h2q7 0 8 -5l2 -10q0 -9 1 -17t6 -15l-1 3q13 -29 45 -29q54 0 54 74 q0 48 -16 78t-45 44q2 12 3 25.5t1 28.5q0 34 -11 58t-44 24h-4q-2 0 -2.5 -0.5t-2.5 -0.5q-26 -7 -40 -16t-21 -23.5t-9.5 -36t-5.5 -52.5q-1 -5 -1 -8v-4q0 -3 -0.5 -6t-0.5 -6v3v-5l-3 -1q-7 -4 -19.5 -13t-26 -20t-25.5 -21t-19 -16q-42 -42 -68.5 -73t-40.5 -51 q-6 -11 -12.5 -21.5t-11.5 -18.5q-7 -11 -12.5 -20.5t-10.5 -19.5t-10.5 -21.5t-11.5 -26.5q-8 -18 -11 -34t-3 -30q0 -22 5 -41.5t13 -34.5q10 -15 25 -30t38 -30q23 -18 66 -27l-6 -42q-2 -10 -2.5 -16.5t-0.5 -11.5q0 -23 7.5 -37.5t18.5 -23t24 -12t24 -3.5 q17 0 32 14.5t25 42.5z" />
<glyph unicode="&#xa3;" horiz-adv-x="651" d="M492 355q0 26 -11.5 41t-35.5 25q-29 9 -90 9h-17q-13 0 -34 -2h1q-5 -1 -9 -1t-9 -1l2 15l85 4h5q4 0 8 1h-1q10 1 27 3h-1q12 2 20 2h15q36 0 48 10.5t12 37.5v12q-1 2 -1 5q0 35 -56 52q-37 10 -77 10h-30q-15 0 -31 -1l22 137l2 3v9q0 36 -24 65q-29 32 -67 32 q-39 0 -57 -33q-6 -8 -11.5 -21.5t-9.5 -32.5l1 1q-1 -3 -2 -7t-2 -6q-2 -11 -3.5 -20.5t-3.5 -20.5l1 1q-6 -26 -10.5 -47.5t-9.5 -41.5q-2 -9 -4 -17t-3 -15h-2q-17 -2 -27 -3q-6 -1 -11.5 -2t-7.5 -2l5 2q-9 -2 -17.5 -4.5t-16.5 -6.5q-30 -10 -30 -38q4 -20 21 -40 t37 -29q5 -1 10.5 -2t13.5 -2q-2 -5 -2.5 -10.5t-1.5 -10.5v-1q-5 -1 -9 -1.5t-7 -0.5l3 1q-20 -2 -34.5 -17t-14.5 -32q0 -39 44 -60l-1 1q2 -2 4 -3q-4 -31 -5 -58t-1 -50q0 -41 9 -71t26 -51q40 -45 121 -45q17 0 40.5 3.5t57.5 11.5q17 5 37 11.5t40 14.5l36 15 q8 3 16.5 6.5t16.5 7.5q21 9 38 16t31 14q13 5 23 9.5t20 8.5q13 7 25.5 12.5t25.5 10.5q42 24 42 62q0 29 -16 56q-22 33 -56 33q-16 0 -91 -34q-17 -8 -31.5 -14t-27.5 -11q-12 -5 -22.5 -9t-18.5 -8l1 1q-11 -5 -21 -8.5t-21 -6.5q-11 -4 -21 -8t-21 -8q-48 -14 -82 -14 q1 0 -3 15l1 -1l-3 11l11 64q41 1 77 3t68 5h-1q17 1 26 1h11q20 5 35 26v-1q12 15 12 33z" />
<glyph unicode="&#xa4;" horiz-adv-x="635" d="M436 348q0 28 -8.5 45.5t-27.5 28.5q-29 13 -75 13q-2 0 -12.5 -0.5t-27.5 -2.5q-8 -1 -15 -1t-13 -1q1 4 4 8q2 5 4 9t4 9l72 5h3q3 0 6 1l10 2t12 3q9 1 15 1.5t11 0.5q30 0 40.5 11t10.5 43v14q-1 2 -1 6q0 38 -44 59q-6 2 -12 3t-12 3q49 51 88 51q9 0 12 -12 q1 -6 2.5 -13.5t5.5 -18.5q2 -5 2.5 -10.5t2.5 -10.5q7 -20 19.5 -30t29.5 -10q61 0 61 97q0 37 -5 64t-13 47q-30 59 -102 59q-59 0 -111 -35h1q-12 -7 -25 -18.5t-30 -28.5v1q-14 -13 -26.5 -26.5t-22.5 -24.5q-20 -23 -37 -44.5t-31 -40.5q-8 -1 -14.5 -2t-14.5 -2 q-6 -1 -12.5 -2t-12.5 -2l-14 -3.5l-10 -2.5h-7q-17 -6 -32 -16l2 1q-23 -13 -23 -38q2 -23 15 -46.5t27 -33.5q1 -1 2 -1t2 -1l-22 -44l1 1q-17 -31 -27 -76q-10 -41 -10 -79q0 -68 17 -105v1q19 -44 70 -83q53 -44 156 -44q14 0 42 5.5t72 18.5q16 5 28 11t26 16 q206 110 206 191q0 32 -19 51.5t-51 19.5q-16 0 -31 -6t-30 -17h1q-9 -6 -16 -11.5t-12 -10.5v1q-16 -13 -31.5 -25t-29.5 -21q-33 -21 -56 -35t-36 -19q-23 -11 -44.5 -17.5t-41.5 -6.5q-40 0 -62 25h1q-20 26 -20 69v3q6 0 15 0.5t20 1.5q42 2 77 5t66 6q9 1 14.5 1.5 t7.5 0.5h4q23 6 35 30q3 9 5 17t2 18z" />
<glyph unicode="&#xa5;" horiz-adv-x="674" d="M573 225q0 27 -11.5 43.5t-36.5 26.5q-14 5 -36 7.5t-52 2.5h-13q0 2 1 3q1 4 3 14l28 2q7 0 8 0.5t6 1.5t11.5 1.5t13.5 2.5h-2q13 1 21 1.5t15 0.5q35 0 47.5 10.5t12.5 39.5v13q-1 2 -1 5q0 20 -14.5 33.5t-41.5 22.5q-11 2 -21 4t-21 4q29 45 73.5 96.5t104.5 109.5 q10 11 17 18t11 13q8 8 10.5 19t2.5 25q0 76 -70 76q-36 0 -115 -77v1q-22 -21 -46 -48.5t-50 -58.5q-2 -4 -4 -6.5t-5 -6.5q-8 -11 -17 -23t-17 -24l1 1q-31 -41 -32 -41q-9 0 -43 36q-15 16 -26.5 28.5t-21.5 26.5l1 -2q-8 15 -14 27t-11 20l-3 4q4 -5 2.5 -2t-5.5 9 t-8 13t-5 10l2 -3q-2 5 -4 8l-4 6l1 -3l-27 67q-23 42 -66 42q-35 0 -53.5 -24.5t-18.5 -59.5q0 -26 28 -90q10 -23 19.5 -43.5t20.5 -37.5q40 -68 97 -119q-2 0 -2.5 -0.5t-2.5 -0.5q-10 -1 -18 -2t-13 -2t-9 -1q-10 -2 -18.5 -5t-17.5 -8h1q-29 -13 -29 -38 q4 -23 19.5 -43.5t33.5 -29.5q11 -3 24.5 -5t29.5 -2h13q7 0 15 1h-1l23 1l-4 -22q-19 -2 -32.5 -3t-24.5 -1q-27 -2 -33 -3h1q-20 -3 -34 -19.5t-14 -34.5q0 -19 10.5 -35.5t32.5 -27.5q28 -17 62 -20l-6 -26v-7q0 -19 5.5 -34t14.5 -27q27 -31 59 -31q19 0 35 11 q17 14 37 71q5 14 8 25.5t5 21.5q17 1 33.5 2t31.5 3h-1q11 1 20 1q10 0 20 1l21 1.5t11 0.5h5q22 5 36 26q11 16 11 36z" />
<glyph unicode="&#xa8;" horiz-adv-x="420" d="M251 763v-6q0 -32 18 -50t44 -18h3q14 0 25 5.5t18.5 14t12 17.5t6.5 16v2q1 4 1.5 7.5t0.5 10.5q0 17 -10.5 34t-33.5 27q-7 3 -13 3.5t-11 0.5q-26 0 -42.5 -19.5t-18.5 -44.5zM98 764v-6q0 -31 18 -49.5t44 -18.5h3q27 0 42.5 18.5t18.5 33.5q2 4 2.5 9t0.5 11 q0 18 -10.5 35t-33.5 26h1q-10 5 -24 5q-27 0 -43.5 -19.5t-18.5 -44.5z" />
<glyph unicode="&#xa9;" horiz-adv-x="571" d="M601 497q0 6 -1.5 17.5t-3.5 28.5q-1 3 -1.5 8.5t-1.5 7.5l1 -2q-3 14 -5 22t-5 16q-17 34 -50 70h1q-37 39 -65 50q-2 1 -8 3t-8 3q-2 0 -2 1q-5 2 -12 4t-12 4h1q-18 7 -36 12.5t-41 5.5q-50 0 -83 -11h1l-16.5 -5.5t-14.5 -4.5q-32 -11 -40 -17l1 1q-10 -7 -16 -12 t-13 -10h1q-5 -3 -8 -5t-5 -4l1 1q-14 -8 -29 -22.5t-29 -36.5q-13 -20 -21 -38t-13 -35q-13 -48 -13 -67q0 -17 1 -32.5t3 -31.5q2 -13 7.5 -28t16.5 -33h-1q5 -10 8 -16.5t5 -8.5q33 -44 114 -76q45 -18 95 -18q26 0 46.5 3.5t37.5 8.5q35 13 65 30t56 37v-1q60 48 78 113 l-1 -4q1 2 1 4t1 4q5 16 9 31.5t4 32.5zM430 440q0 21 -13 36.5t-33 15.5q-14 0 -55 -19q-33 -17 -62 -17h-2q0 13 14 29q51 58 72 58q5 0 12 -6l20 -11q14 0 24.5 12.5t10.5 23.5q0 6 -2.5 11.5t-8.5 16.5q-16 33 -47 42q52 -3 87.5 -29.5t49.5 -77.5q0 -5 1 -8v1 q1 -4 1.5 -5.5l0.5 -1.5q0 -26 -27 -63q-11 -17 -23.5 -29.5t-26.5 -22.5q-44 -31 -63 -37h1q-19 -4 -35.5 -6.5t-32.5 -2.5t-41 6q-12 2 -21 5t-14 6h1q-20 11 -32.5 19.5t-15.5 13.5v-1q-17 34 -17 60q0 10 3 21.5t8 29.5q8 26 25.5 48.5t46.5 40.5q14 10 30.5 16.5 t33.5 10.5q-10 -4 -22 -13q-6 -3 -8.5 -4.5t-4.5 -2.5t-2.5 -2t-2.5 -2q-17 -14 -28.5 -27t-21.5 -27q-29 -40 -29 -72q0 -118 103 -118q19 0 39 5t43 14q64 24 64 63z" />
<glyph unicode="&#xaa;" horiz-adv-x="371" d="M69 434q0 -2 -0.5 -4t-0.5 -4v-5q0 -17 7.5 -35.5t20 -35t29.5 -27t36 -10.5q31 0 60.5 9t53.5 19q3 -9 12 -14t27 -5q34 0 48 17.5t14 53.5l13 189q0 30 -5.5 48t-16 28t-24.5 13.5t-31 3.5q-39 0 -82.5 -9.5t-79.5 -35.5l2 2q-2 -1 -3 -1l-2 -1q-15 -8 -25.5 -17.5 t-12.5 -35.5q0 -24 11 -30t30 -6q-33 -18 -54.5 -44t-26.5 -63zM337 187q34 0 51.5 16t17.5 39q0 22 -20 39.5t-64 17.5h-170q-7 0 -14 -0.5t-13 -1.5q-4 -1 -7 -1q-35 0 -52.5 -16.5t-17.5 -36.5q0 -23 18.5 -39t56.5 -16v-1h1t4 -0.5t5 -0.5zM179 415h-10l4 -1 q-7 2 -8 3.5t-1 9.5v1q2 20 33 32.5t85 23.5l1 -23q-4 -5 -14 -12.5t-23.5 -15t-30.5 -13t-36 -5.5zM200 562l-11 25l30 -12v-9q-5 -2 -10 -2q-4 0 -9 -2zM286 581v-4q-9 -1 -17 -1.5t-16 -2.5q8 2 16.5 4.5t16.5 3.5zM218 561q-2 -4 -12 -4q8 2 12 4zM286 577v4v-3v-1z M288 580v1h3q-1 0 -1.5 -0.5t-1.5 -0.5z" />
<glyph unicode="&#xab;" horiz-adv-x="432" d="M452 537h-5q-21 0 -40 -12l-110 -70l3 1q-5 -2 -9.5 -4t-8.5 -6q8 11 12 20t5 16q0 1 0.5 2.5t0.5 3.5q0 8 -5 15q-6 23 -15 30t-29 9h-4q-10 0 -20 -2.5t-21 -9.5l-109 -70l3 1q-18 -7 -33 -22t-20 -36q0 -2 -0.5 -5.5t-0.5 -5.5q0 -17 7 -26.5t16 -14.5l87 -101l2 -3 q5 -7 10 -12.5t13 -9.5l10 -9v6q3 -1 11 -3h9q16 0 29 9t24 37h-1q2 4 3 7t2 5q0 1 0.5 2.5t0.5 2.5v5q0 13 -6.5 25t-21.5 26l1 -1l-44 51l53 34l-1 -1q6 3 12 7q-5 -7 -8.5 -14t-5.5 -16q0 -3 -0.5 -6.5t-0.5 -5.5q0 -17 6.5 -26t16.5 -15l86 -100l2 -3l1 -1q5 -7 9.5 -12 t12.5 -9l10 -9v5q3 -1 11 -3h9q16 0 29 9t25 38h-1q2 3 2.5 6t1.5 5q0 1 0.5 3t0.5 3v5q0 12 -6 24.5t-21 26.5l1 -2l-45 52l54 34l-2 -1q26 13 37.5 31t12.5 29v7q0 8 -4 15q-6 22 -15.5 29.5t-28.5 9.5z" />
<glyph unicode="&#xac;" horiz-adv-x="950" d="M288 26q4 2 7 2q4 0 7 1q2 -2 4.5 -4t5.5 -4q2 -2 8 -6l11 -5q9 -5 12 -5.5t7 -2.5q9 -4 19 -4q12 0 18 5.5t13 17.5l5 14l10 20t11 21q19 5 45 9t53 6q0 -5 1 -8q2 -10 3 -20.5t2 -18.5q4 -20 11.5 -27.5t25.5 -12.5h-2q14 -5 26 -6t26 -1q24 0 31 7.5t7 26.5 q0 2 -0.5 4.5t-0.5 4.5q11 -9 21.5 -16t27.5 -14q9 -6 17 -9t19 -3t32 6q17 4 36.5 11t39 15.5t37 18.5t30.5 22h-1q16 14 25.5 29t9.5 35q0 6 -0.5 10t-1.5 7v-1q-2 14 -9.5 27.5t-19.5 24.5q7 5 12.5 8.5t10.5 8.5q19 15 32 34t13 42q0 10 -3 22v-1q-6 24 -18.5 41.5 t-29.5 31.5q-14 12 -33 18q19 7 19 25q0 7 -5 17l1 -3q-6 23 -16 40q-8 11 -16.5 15.5t-24.5 4.5h-10q-14 0 -27.5 -1t-26.5 -3q2 8 2 12q19 5 39.5 7.5t40.5 5.5l17 3q17 4 25 10t8 20q0 4 -5 16q-3 8 -6.5 16.5t-8.5 18.5q-8 13 -17.5 17.5t-24.5 4.5h-6h-14t-13 -1 q7 19 12 38q17 2 32.5 4t31.5 4l16 2l16 2q18 2 26 7.5t8 21.5v4q0 3 -1 7q-2 11 -5.5 19t-8.5 19q-14 26 -49 26q-50 -2 -99.5 -10.5t-87.5 -16.5l-14 -14q-3 5 -7.5 9.5t-13.5 9.5h1q-12 8 -26.5 14t-29.5 9q-7 1 -12.5 2t-6.5 1q-14 0 -20.5 -6t-11.5 -22v1 q-7 -23 -13.5 -50.5t-13.5 -56.5l-9 -38q-7 -1 -14 -1t-14 -1q2 7 3.5 14t3.5 15l-1 -1q5 17 8 31.5t11 34.5q0 2 0.5 6t0.5 6q0 11 -5 19.5t-20 16.5q-29 16 -56 24q-12 3 -20 3q-28 0 -34 -30q0 -1 -0.5 -1.5t-0.5 -1.5q-4 7 -7 12t-7 10q-9 8 -17.5 12t-27.5 4 q-24 -1 -55 -3t-63 -5t-63.5 -7t-55.5 -8q-13 -2 -20 -8t-7 -19l1 -6t3 -11q2 -3 6 -11q4 -7 9 -15.5t16 -18.5q15 -16 33 -16q7 0 10 0.5t6 1.5q4 1 14 1q-6 -27 -13 -57.5t-12.5 -59.5t-10 -55.5t-5.5 -45.5l1 4q-2 -4 -2 -8v-6q0 -18 10 -30q-18 -1 -29 -26 q-10 -29 -20.5 -68.5t-19.5 -81t-16.5 -79.5t-11.5 -64v-9q0 -14 5.5 -24t15.5 -21q2 -2 3.5 -3t5.5 -4q6 -5 11.5 -9.5t11.5 -8.5t13 -8t23 -4q13 0 26 5l-1 -1q28 6 59 12t61 12zM305 97q-2 3 -3 5.5t-2 4.5q-12 14 -20.5 18t-22.5 4h-7q-14 -1 -27.5 -1.5t-27.5 -2.5 q15 55 31 111.5t30 98.5q1 3 2 6.5t1 7.5q0 9 -4.5 15.5t-13.5 13.5q9 2 15 8t8 19q13 64 30.5 138.5t34.5 140.5q10 2 19 2q10 0 20 1q6 1 12 1t11 1h6q-2 -8 -3.5 -17t-3.5 -18q-9 -55 -19.5 -110.5t-20.5 -92.5q-2 -5 -2 -9v-5q0 -14 6 -22.5t20 -16.5l-1 1 q9 -7 20.5 -10t22.5 -6q4 -2 7 -2q3 -1 2 -1.5t14 -0.5q8 0 10 1q-17 -27 -36.5 -62.5t-39 -74t-37.5 -76.5t-31 -70zM353 241q6 7 13.5 17.5t14.5 22.5t13.5 24t10.5 23q0 1 0.5 5t0.5 6q1 5 1 7v2q0 5 -2.5 13t-9.5 16q-8 7 -16 13.5t-16 10.5l1 -1q-12 8 -25 8 q-21 0 -31 -21q-8 -17 -21 -41.5t-25 -46.5l-8 -16l-7 -14q-4 -10 -4 -16q0 -24 30 -30q1 0 3 -0.5t4 -0.5h-1q4 -1 9 -1h10q8 0 12 1q13 0 22 5t19 13zM666 375q-3 -38 -8.5 -81t-12.5 -85v-2q-1 24 -1.5 46.5t-0.5 42.5v26q0 13 1 24q0 14 -3 23t-14 16q7 5 9 21 q10 51 23 107.5t26 108.5l-28 -152v2q-1 -5 -1 -13q0 -14 5.5 -24.5t13.5 -18.5q7 -7 12.5 -11t10.5 -8l7 -6q-11 -3 -20.5 -7t-18.5 -9zM512 409h-7q-24 0 -37 -9q1 2 1 4t1 4l-1 -2q2 9 4.5 19.5t4.5 21.5q3 15 5.5 29.5t5.5 26.5q6 1 12 1t13 2l9 1q-3 -17 -4 -31.5 t-2 -28.5q-1 -4 -1 -11q0 -17 10 -28q-5 1 -14 1zM804 296q15 7 27.5 9.5t22.5 2.5h4q-5 -9 -21.5 -21t-41.5 -23q3 17 9 32zM799 153h15q-3 -7 -17.5 -16t-38.5 -17q1 8 4 16l3 12q22 5 34 5zM515 245q0 -11 0.5 -22t1.5 -22q-7 -1 -14 -1t-13 -1q6 11 12.5 22.5t12.5 23.5 zM861 314v-2l-1 5q0 -1 0.5 -1.5t0.5 -1.5zM449 380v-1v1zM405 34l1 1h-1v-1zM418 383h-2h2z" />
<glyph unicode="&#xad;" horiz-adv-x="454" d="M478 238q0 57 -72 57q-13 0 -18 -1h3l-125 -7q-16 -1 -25 -1.5t-15 -1t-11 -1t-13 -1.5h-104q-15 0 -32 -14q-15 -12 -15 -27q0 -40 25.5 -62t73.5 -22h43q10 1 16 1t28 2h-1l86 5h73q83 0 83 73z" />
<glyph unicode="&#xae;" horiz-adv-x="608" d="M637 562q0 91 -23 137q-29 60 -107 98q-66 30 -117 30q-1 0 -17 -1l-48 -3q-14 -1 -33.5 -5t-45.5 -12t-43.5 -15.5t-28.5 -14.5q-18 -12 -30.5 -21.5t-21.5 -15.5q-4 -3 -8 -5l-4 -2q-53 -48 -53 -84q0 -6 0.5 -9.5t1.5 -7.5l2 -9v-7q-1 0 -1.5 -2t-0.5 -4 q-4 -20 -5 -45.5t-1 -57.5q0 -30 10 -63q0 -3 1 -4q-1 -1 0.5 -6.5t3.5 -12.5q2 -6 5.5 -11t5.5 -8q2 -4 4 -6q5 -6 7.5 -10.5t4.5 -8.5q1 -2 2.5 -4t2.5 -4l-1 2q27 -41 60 -64t72 -27h-1q13 -2 22.5 -2.5t16.5 -1.5h6q11 -3 16 -3.5t7 -0.5h25q41 0 77 18q43 23 71 38 t42 27q20 17 37 33.5t34 36.5q14 17 25 41t20 54v-1q5 19 6.5 29t1.5 15zM523 581q0 -60 -51 -106q-1 5 -1.5 8t-1.5 6q-2 2 -9 8t-16 17q-3 3 -4.5 5t-3.5 4l4 4t6 7q11 15 17 32v-1q6 14 8.5 30t2.5 34q0 42 -47 65q-8 3 -17 6t-19 5q79 -5 117 -70q9 -18 9 -23 q4 -11 5 -18t1 -13zM197 625v-8t1 -9q1 -5 1.5 -8t0.5 -4v-117q0 -3 -0.5 -8.5t-1.5 -11.5t-1.5 -11.5t-0.5 -10.5q0 -11 6.5 -23.5t15.5 -20.5q-2 2 -5 3t-5 3q-33 20 -44 58q-2 4 -3 7.5t-3 6.5v-1q-1 2 -2 3.5t-1 3.5v-1q-5 20 -5 28q0 7 2 17.5t6 26.5q2 17 5 27t6 18 q12 27 30 48q-2 -3 -2 -7v-9zM295 433q2 14 2 20q0 7 -6 7q10 9 28 9q16 0 48 -20q4 -3 8.5 -6t8.5 -6q5 -3 9 -5.5t7 -5.5q-73 -49 -117 -49h-12t-12 2q28 6 36 54zM346 594q-8 -5 -24 -10q-6 -1 -11 -2.5t-9 -2.5q0 6 2 8q5 5 16.5 7.5t32.5 2.5q-1 0 -5 -2zM66 433l-1 2 q1 -1 1 -2v0z" />
<glyph unicode="&#xaf;" horiz-adv-x="371" d="M340 594q34 0 52 11.5t18 28.5q0 15 -20 28t-64 13h-171h-14q-7 0 -12 -1q-4 -1 -7 -1q-35 0 -52.5 -12t-17.5 -27q0 -16 18.5 -27.5t55.5 -11.5v-1h1q2 0 4.5 -0.5t4.5 -0.5z" />
<glyph unicode="&#xb0;" horiz-adv-x="255" d="M257 725q-23 13 -59 18h-8q-12 0 -26 -3.5t-24 -9.5q-36 -23 -55 -61t-19 -74q0 -30 14 -55l-1 1q5 -11 15 -18.5t21 -12.5h-1q11 -6 25 -8.5t27 -3.5q4 -1 8 -1h9q29 0 55 18q30 24 43.5 60.5t13.5 71.5q0 9 -1 18.5t-4 17.5q-5 13 -11.5 23t-20.5 18zM201 657 q0 -10 -2 -21t-5 -20q-6 -20 -13.5 -34t-14.5 -17q-3 4 -3 16q0 9 2 19t5 19q6 16 15.5 32.5t16.5 18.5q-1 -1 -1 -5v-8zM168 564h-1h1z" />
<glyph unicode="&#xb1;" horiz-adv-x="466" d="M537 530q0 56 -50 67q-23 4 -43.5 5.5t-37.5 2.5q-28 2 -26 0q-10 7 -10 21q0 12 3 35q2 11 3 21t1 18q0 81 -69 81q-49 0 -64 -55q-5 -19 -7 -72q-1 -15 -3 -28q-1 -8 -1 -14t-2 -13q-1 -7 -45 -7q-50 0 -71 -6q-52 -15 -52 -63q0 -14 3.5 -25.5t9.5 -22.5l-1 1 q20 -37 79 -37q2 0 6.5 0.5t8.5 0.5q6 1 10 1h9q12 0 12 -4v-10t-1 -13q0 -4 -0.5 -7.5t-0.5 -7.5q-3 -29 -3 -43q0 -94 69 -94q29 0 44 17q11 12 22 55v-1q4 14 6.5 24.5t4.5 18.5l-1 -2q1 3 1.5 7t1.5 6q4 25 17 42q13 18 31 18h75q30 0 53 27q8 11 13 25t5 31zM488 197 q0 70 -73 70q-13 0 -18 -1h3l-126 -10q-17 -2 -26 -2.5t-15 -1t-11 -1t-13 -0.5h-105q-17 0 -33 -18q-14 -14 -14 -33q0 -48 25.5 -75t73.5 -27h44q5 0 8.5 0.5t8 1t10.5 1t17 1.5h-1l87 6h74q42 0 63 23t21 66z" />
<glyph unicode="&#xb4;" horiz-adv-x="419" d="M169 839q0 -53 51 -53q27 0 48 23q6 8 15.5 24t20.5 39q1 4 3.5 9t3.5 8q2 3 3.5 6.5t3.5 9.5l-1 -2q3 3 6 10l-1 -1l4 8l4 8q15 22 39 66q7 11 8.5 20t1.5 17q0 26 -17.5 45t-42.5 19q-36 0 -67 -54l-32 -66l1 1q-52 -95 -52 -137z" />
<glyph unicode="&#xb6;" horiz-adv-x="470" d="M406 639q-51 0 -106 -20t-101.5 -58.5t-78.5 -94t-37 -125.5q-1 -5 -1 -13v-13q0 -78 36 -122t104 -44h10l-11 -195v-6q0 -26 9 -44t23 -26l-21 -22q14 3 25 7l22 8h2q4 0 8.5 0.5t9.5 2.5l-3 4q23 11 36.5 25t21.5 31q3 -17 11.5 -29.5t19.5 -19.5l-19 -20q13 4 23.5 7 t19.5 6h4q3 0 7 0.5t11 2.5l-3 5q40 19 54.5 49t19.5 83l33 539v4q0 25 -14.5 40t-35 23.5t-42.5 11.5t-37 3z" />
<glyph unicode="&#xb7;" horiz-adv-x="176" d="M211 375q0 29 -28 48v-1q-20 16 -48 16q-48 0 -63 -31q-6 -11 -8 -20t-2 -17q0 -32 18 -53t51 -21q29 0 55 24q25 27 25 55z" />
<glyph unicode="&#xb8;" horiz-adv-x="359" d="M183 86l-90 -64l-5 -3q-12 -6 -16.5 -11t-4.5 -22q0 -14 11 -16t29 -2h52q2 0 5 0.5t6 0.5q6 1 14 1h17h22t17 -2q-20 -12 -44.5 -14.5t-47.5 -3.5q-29 -1 -51 -5t-34 -25q-2 -2 -3 -4.5t-1 -7.5q0 -10 8.5 -17.5t22 -12.5t30.5 -7.5t35 -2.5q31 0 66 6t64.5 16.5 t49 25.5t19.5 33v9q0 23 -13.5 39t-32.5 28q-8 4 -15.5 7t-15.5 6l62 48h-156z" />
<glyph unicode="&#xba;" horiz-adv-x="453" d="M358 669q-19 5 -33.5 6.5t-28.5 1.5q-43 0 -77.5 -15t-62.5 -39.5t-49.5 -54.5t-37.5 -60q-14 -33 -14 -59q0 -35 15 -66t39 -51v1q25 -22 57.5 -31t67.5 -9q27 0 51 3q42 8 71 20.5t56 26.5l5 2q3 2 7 3.5t18 7.5l-1 1q42 21 58 59t16 81q0 28 -8 60q-7 28 -23 47 t-37 31t-44.5 19.5t-44.5 14.5zM81 176q11 -16 33 -21.5t53 -5.5h22q6 0 12.5 0.5t14.5 0.5h2q13 0 35 0.5t45 1.5t43 2.5t30 3.5h18q25 0 38.5 1.5t24.5 9.5q14 6 18.5 15t4.5 26q-1 1 -2.5 4.5t-1.5 5.5v-1q-6 11 -10.5 20t-12.5 14l2 -2q-27 26 -66.5 33t-84.5 7h-40 q-5 0 -11 -0.5t-11 -0.5q-5 -1 -9 -1h-7q-47 0 -72 -0.5t-38 -3.5q-23 -5 -36 -12t-13 -32v-3q0 -7 1 -11v-2q0 -3 0.5 -6t2.5 -8l-1 4q3 -9 6 -21t11 -20zM390 493q-9 -18 -29.5 -30t-44.5 -20t-48.5 -11.5t-42.5 -3.5q-20 0 -23 7v2q0 2 -0.5 5t-0.5 5q0 21 7.5 36.5 t19.5 27.5t26.5 21t28.5 17q3 2 7.5 4.5t8.5 4.5q-1 -1 5 -1q12 0 27 -4.5t28.5 -12.5t23 -18t9.5 -22v-4z" />
<glyph unicode="&#xbb;" horiz-adv-x="407" d="M70 218h5q20 0 40 12l110 70l-3 -1q4 2 8.5 4t8.5 5q-8 -10 -12 -19.5t-4 -15.5q0 -1 -0.5 -2.5t-0.5 -3.5q0 -10 5 -15q6 -23 15 -30t29 -9h4q22 0 41 12l109 70l-3 -1q18 8 33 22.5t20 35.5q0 2 0.5 5.5t0.5 5.5q0 17 -7 26t-16 15l-90 104l-12 15q-5 3 -9 6t-11 5v-39 l34 10q-4 5 -7 9.5t-7 8.5l-20 22v-11l-11 2h-9q-16 0 -29 -9t-24 -37h1q-4 -10 -5 -12q0 -1 -0.5 -2.5t-0.5 -2.5v-5q0 -12 6.5 -24.5t21.5 -26.5l-1 2l44 -52l-53 -34l2 1q-4 -2 -7.5 -3.5t-5.5 -3.5q5 7 8.5 14t5.5 16q0 3 0.5 6.5t0.5 5.5q0 17 -7 26t-16 15l-89 102 l2 -2q-8 12 -16.5 19.5t-28.5 12.5h-9q-16 0 -29 -9t-25 -38h1q-1 -3 -2 -6.5t-2 -4.5q0 -1 -0.5 -3t-0.5 -3v-5q0 -12 6 -24.5t21 -26.5v2l44 -52l-54 -34l2 1q-26 -13 -37.5 -31t-11.5 -29q0 -1 -0.5 -3t-0.5 -4q0 -8 4 -15q6 -23 15.5 -30t28.5 -9z" />
<glyph unicode="&#xbf;" horiz-adv-x="657" d="M51 220q-2 -8 -2.5 -14.5t-0.5 -13.5q0 -47 38 -94q46 -49 104 -61q20 -4 47 -5.5t65 -1.5q29 0 51.5 1t39.5 5h-1q45 7 76.5 12.5t48.5 11.5q79 23 121 52t50 65l-1 -2q2 5 2 8v6q0 22 -14 35.5t-37 13.5q-26 0 -65 -16h1q-12 -5 -21.5 -8.5t-16.5 -5.5q-10 -4 -16 -6 t-8 -4l3 1q-32 -9 -98 -18q-32 -5 -55.5 -7.5t-41.5 -2.5h-1q-123 0 -123 38v6q11 52 129 92q17 6 27 9.5t18 5.5l-1 -1q18 3 46.5 9.5t63.5 14.5q2 1 2.5 0.5t2.5 0.5h-1q11 2 20 3.5t16 3.5q5 1 9 2.5t7 2.5q24 7 41.5 28t23.5 47v38q0 132 -55 132q-45 0 -75 -86l-5 -13 q-6 -6 -15 -10q2 1 -1 1t-8 -1q-4 -1 -7.5 -1.5t-8.5 -1.5q-32 -5 -69 -16.5t-82 -31.5q-47 -20 -81.5 -41t-58.5 -42q-12 -11 -25 -28t-29 -43q-1 -2 -1.5 -4t-2.5 -4q-9 -18 -15.5 -33t-10.5 -29zM440 726q-2 -4 -2 -8v-7q0 -29 26 -51q24 -20 59 -20q61 0 85 37h-1 q8 11 11 16t7 11q2 13 3.5 23.5t1.5 19.5q0 76 -71 76q-20 0 -38 -8t-37 -23l1 1q-37 -29 -46 -69z" />
<glyph unicode="&#xc0;" d="M619 83q0 16 -2 33t-8 37q-2 5 -3 10l-2 10q-4 11 -7 22l-6 22v-1q-3 12 -6.5 25.5t-6 27t-5 25.5t-3.5 19q-1 1 -1 4l7.5 9t7.5 8l7 8q12 19 12 48q0 11 -2 16q-13 30 -45 39l2 -1q-19 9 -25 15q-3 12 -7 27.5t-8 33.5l-46 181l-3 11q-8 30 -12 46.5t-6 21.5 q-23 50 -72 50q-12 0 -29 -7h1q-11 -3 -17 -8t-11 -12q-4 -8 -8 -14.5t-7 -12.5l1 1q-3 -5 -5.5 -10t-4.5 -8q-23 -42 -40 -78.5t-30 -70.5q-36 -98 -65 -167q-21 -51 -37.5 -96t-27.5 -82v1q-5 -11 -8 -21t-7 -21t-7 -21t-7 -21v1q-23 -55 -23 -87q0 -33 27 -52l-2 1 q22 -17 49 -17q36 0 50 24q14 27 19 46v-1l29 86q5 19 8.5 28t5.5 11q4 13 22 19l-2 -1l3 0.5t8 1.5q6 2 14 4t17 5q18 7 35.5 12.5t34.5 11.5q34 11 57 14l2 -4q7 -23 10 -37q0 -4 2 -8q0 -1 0.5 -1.5l0.5 -0.5l-1 2q1 -1 1 -2v0q5 -20 8.5 -36.5t6.5 -30.5l5.5 -22 t4.5 -19v1q14 -65 14 -66q16 -43 83 -43q60 0 60 61zM467 905q0 45 -57 149l1 -1l-36 72q-36 59 -74 59q-28 0 -48 -20.5t-20 -49.5q0 -8 2 -18t10 -22q13 -24 24 -42t19 -31q3 -8 9 -16l-1 1q3 -8 6 -11q2 -5 2.5 -8.5t2.5 -5.5q1 -3 3 -6.5t7 -11.5l-1 1q14 -28 24 -45.5 t18 -26.5q22 -25 53 -25q56 0 56 58zM360 423h1l-45 -11l3 1h-15q2 8 10 30t20 60q6 17 11.5 31t10.5 24q2 -9 4.5 -22t6.5 -30q5 -21 8 -37t5 -28q0 -4 2 -10q-4 -2 -9 -4t-13 -4z" />
<glyph unicode="&#xc1;" d="M619 83q0 16 -2 33t-8 37q-2 5 -3 10l-2 10q-4 11 -7 22l-6 22v-1q-3 12 -6.5 25.5t-6 27t-5 25.5t-3.5 19q-1 1 -1 4q5 7 7.5 9.5l7.5 7.5l7 8q12 21 12 48q0 11 -2 16q-13 30 -45 39l2 -1q-19 9 -25 15q-3 12 -7 27.5t-8 33.5l-46 181l-3 11q-8 30 -12 46.5t-6 21.5 q-23 50 -72 50q-12 0 -29 -7h1q-11 -2 -17 -7.5t-11 -12.5l-8 -14t-7 -13l1 1q-3 -5 -5.5 -9.5t-4.5 -8.5q-23 -41 -40 -78t-30 -71q-36 -98 -65 -167q-21 -51 -37.5 -96t-27.5 -82v1q-5 -11 -8 -21t-7 -21t-7 -21t-7 -21v1q-23 -55 -23 -87q0 -33 27 -52l-2 1 q22 -17 49 -17q36 0 50 24q14 27 19 46v-1l29 86q5 19 8.5 28t5.5 11q4 13 22 19l-2 -1l3 0.5t8 1.5q6 2 14 4t17 5q38 14 70 24q34 11 57 14l2 -4q7 -23 10 -37q0 -4 2 -8v-1h1l-1 1l1 -1q5 -20 8.5 -37t6.5 -31l5.5 -22t4.5 -19v1q14 -65 14 -66q16 -43 83 -43q60 0 60 61 zM288 911q0 -59 56 -59q30 0 53 26q7 9 17 26t23 42q2 5 4.5 10.5t4.5 9.5q2 2 3 6t4 10l-1 -2q2 2 3.5 4.5t3.5 7.5l-1 -1l4 8t4 9q8 12 19 30t25 42q7 12 9 22t2 18q0 29 -20 49.5t-47 20.5q-40 0 -75 -59l-35 -72l1 1q-29 -52 -43 -89.5t-14 -59.5zM360 423h1l-45 -10 l3 1h-15q2 7 10 29t20 60q6 17 11.5 31t10.5 25l4.5 -22.5t6.5 -30.5q5 -21 8 -37t5 -27q0 -5 2 -11q-4 -2 -9 -4t-13 -4z" />
<glyph unicode="&#xc2;" d="M619 83q0 16 -2 33t-8 37q-2 5 -3 10t-2 9q-7 22 -13 45v-1q-3 12 -6.5 25.5t-6 27t-5 25t-3.5 18.5q-1 1 -1 4q5 7 7.5 10t7.5 7l7 8q12 21 12 48q0 11 -2 16q-13 30 -45 39l2 -1q-19 9 -25 15q-3 12 -7 27.5t-8 33.5l-46 180l-3 12q-8 29 -12 45.5t-6 21.5 q-23 50 -72 50q-12 0 -29 -7h1q-11 -2 -17 -7.5t-11 -12.5l-8 -14t-7 -13l1 1q-3 -5 -5.5 -9.5t-4.5 -8.5q-23 -41 -40 -77.5t-30 -71.5q-18 -49 -34 -90t-31 -76q-21 -51 -37.5 -96t-27.5 -82v1q-5 -11 -8 -21t-7 -21q-4 -10 -7 -20t-7 -21v1q-23 -57 -23 -87q0 -33 27 -52 l-2 1q22 -17 49 -17q36 0 50 24q14 27 19 46v-1l29 86q5 18 8.5 27.5t5.5 11.5q4 11 22 19l-2 -1l3 0.5t8 1.5q6 2 14 4t17 5q18 6 35.5 12t34.5 12q16 5 30 8t27 5l2 -4q4 -11 6 -20t4 -16q0 -4 2 -8q0 -1 0.5 -1.5l0.5 -0.5l-1 2q1 -1 1 -2v0q5 -20 8.5 -36.5t6.5 -31.5 q3 -11 5.5 -21t4.5 -19v1l10.5 -48t3.5 -18q16 -43 83 -43q60 0 60 61zM499 855q34 3 34 28q0 10 -6 19l1 -2q-7 13 -15.5 31t-17.5 37.5t-17.5 39.5t-14.5 39v-1q-5 14 -10.5 20.5t-13.5 13.5l-5 5q-10 5 -13.5 6t-6.5 3q-14 4 -24 9q-5 2 -10 3t-10 1q-10 0 -18.5 -4.5 t-16.5 -15.5l1 2q-17 -18 -34.5 -39t-33.5 -42t-30 -40t-23 -33v1q-8 -11 -8 -22q0 -19 15 -32q15 -14 29 -22q4 -4 5 -4q4 -3 11 -5l-4 1q8 -4 22 -4q9 2 14.5 7t9.5 10q14 18 29 38t34 42q3 -7 5.5 -12.5t5.5 -11.5q11 -26 19 -40q22 -26 47 -28q4 -1 8 -1h10q8 0 16 1z M360 422h1l-45 -10l3 1h-15q2 7 10 29t20 60q6 17 11.5 31t10.5 24q2 -9 4.5 -22t6.5 -30q5 -21 8 -37t5 -28q0 -4 2 -10q-4 -2 -9 -4t-13 -4z" />
<glyph unicode="&#xc3;" d="M619 82q0 17 -2 34t-8 37q-4 11 -5 19q-4 11 -7 22l-6 22v-1q-3 12 -6.5 25.5t-6 27t-5 25t-3.5 18.5q-1 1 -1 4q5 7 7.5 10t7.5 7l7 8q12 21 12 48q0 11 -2 16q-7 16 -18 25t-27 14l2 -1q-10 5 -16 8.5t-9 5.5q-3 13 -7 28t-8 33l-46 180l-3 11q-8 30 -12 46.5t-6 21.5 q-23 50 -72 50q-12 0 -29 -7h1q-11 -3 -17 -8.5t-11 -11.5q-4 -8 -8 -15t-7 -12l1 1q-3 -5 -5.5 -10l-4.5 -9q-23 -40 -40 -76.5t-30 -71.5q-18 -49 -34 -89.5t-31 -75.5q-21 -51 -37.5 -96t-27.5 -82v1q-5 -11 -8 -21t-7 -20q-4 -11 -7 -21t-7 -20q-23 -55 -23 -86 q0 -33 27 -52l-2 1q20 -17 49 -17q36 0 50 24q15 28 19 46v-1l29 85q5 19 8.5 28t5.5 11q4 11 22 19l-2 -1l3 0.5t8 1.5q6 2 14 4t17 5q18 6 35.5 12t34.5 12q29 10 57 13l2 -4q4 -11 6 -20t4 -16q0 -4 2 -8q0 -1 0.5 -1.5l0.5 -0.5l-1 2q1 -1 1 -2v0q5 -20 8.5 -36.5 t6.5 -30.5q3 -11 5.5 -21.5t4.5 -18.5v1l10.5 -48t3.5 -18q16 -43 83 -43q60 0 60 60zM432 852q35 0 75 41v-1q42 41 42 77q0 23 -22 39q-12 9 -31 9q-20 0 -39 -19q-2 -2 -4.5 -5t-4.5 -5l1 1q-4 -6 -9.5 -13.5t-2.5 -8.5q-8 1 -16.5 6.5t-17.5 10.5h1q-14 10 -28 16v-1 q-16 7 -30 11t-28 4q-13 0 -31.5 -8.5t-36.5 -20.5t-33 -26.5t-20 -26.5q-7 -15 -7 -32q0 -47 47 -47q25 0 40 15l-8 -4q4 2 8.5 5.5t8.5 7.5q5 5 11 11.5t8 6.5q11 0 28 -5.5t25 -12.5q24 -25 74 -25zM360 421h1l-45 -11l3 1h-15q2 8 10 30t20 60q6 17 11.5 30.5t10.5 23.5 q2 -9 4.5 -21.5t6.5 -29.5q5 -21 8 -37t5 -28q0 -6 2 -10q-4 -2 -9 -4t-13 -4z" />
<glyph unicode="&#xc4;" d="M619 82q0 17 -2 34t-8 37q-4 11 -5 19q-4 11 -7 22l-6 22v-1q-3 12 -6.5 25.5t-6 27t-5 25t-3.5 18.5q-1 1 -1 4q5 7 7.5 10t7.5 7l7 8q12 21 12 48q0 11 -2 16q-7 16 -18 25t-27 14l2 -1q-10 5 -16 8.5t-9 5.5q-3 13 -7 28t-8 33l-46 180l-3 11q-8 30 -12 46.5t-6 20.5 q-23 50 -72 50q-6 0 -13 -1t-16 -5h1q-11 -3 -17 -8.5t-11 -11.5q-4 -8 -8 -15t-7 -12l1 1q-3 -5 -5.5 -10l-4.5 -9q-23 -40 -40 -77t-30 -71q-18 -49 -34 -89.5t-31 -75.5q-21 -51 -37.5 -96t-27.5 -82v1q-5 -11 -8 -21t-7 -20q-4 -11 -7 -21t-7 -21v1q-23 -55 -23 -86 q0 -33 27 -52l-2 1q20 -17 49 -17q36 0 50 24q15 28 19 46v-1l29 85q5 18 8.5 27.5t5.5 11.5q4 11 22 19l-2 -1l3 0.5t8 1.5q6 2 14 4t17 5q18 6 35.5 12t34.5 12q16 5 30 8t27 5l2 -4q4 -11 6 -20t4 -16q0 -4 2 -8q0 -1 0.5 -1.5l0.5 -0.5l-1 2q1 -1 1 -2v0 q5 -20 8.5 -36.5t6.5 -30.5q3 -11 5.5 -21.5t4.5 -18.5v1l10.5 -48t3.5 -18q16 -43 83 -43q60 0 60 60zM386 931v-8q0 -38 19.5 -60.5t46.5 -22.5h3q15 0 26.5 7t20 17t13 21.5t6.5 19.5v3q1 5 1.5 9.5t0.5 12.5q0 22 -11.5 43t-35.5 32q-8 4 -13.5 5t-11.5 1q-29 0 -46 -24 t-19 -56zM222 932v-7q0 -38 19.5 -61t47.5 -23h2q15 0 26 6.5t19.5 16.5t13.5 21t7 20q4 9 4 25q0 23 -11.5 44t-36.5 32h1q-14 6 -25 6q-29 0 -46.5 -24.5t-20.5 -55.5zM360 421h1l-45 -11l3 1h-15q2 8 10 30t20 60q6 17 11.5 30.5t10.5 23.5q2 -9 4.5 -21.5t6.5 -30.5 q5 -20 8 -36.5l5 -27.5q0 -5 2 -11q-4 -1 -9 -3t-13 -4z" />
<glyph unicode="&#xc5;" d="M467 1081q-12 6 -28.5 11.5t-35.5 7.5h-10q-13 0 -28.5 -3.5t-26.5 -10.5q-20 -13 -34.5 -31t-25 -38t-15.5 -41.5t-5 -41.5q0 -17 3.5 -32t11.5 -29l-1 1q5 -11 16.5 -20t22.5 -14h-1q12 -7 26.5 -10t27.5 -4q-4 -1 -14 -5h1q-11 -3 -17 -8t-11 -12q-4 -8 -8 -14.5 t-7 -12.5l1 1q-3 -5 -5.5 -9.5t-4.5 -8.5q-23 -41 -40 -77.5t-30 -71.5q-18 -49 -34 -90t-31 -76q-21 -51 -37.5 -96t-27.5 -82v1q-5 -11 -8 -21t-7 -21q-4 -10 -7 -20.5t-7 -20.5v1q-23 -57 -23 -87q0 -33 27 -52l-2 1q20 -17 49 -17q36 0 50 24q14 27 19 46v-1l29 86 q5 18 8.5 27.5t5.5 11.5q4 11 22 19l-2 -1l3 0.5t8 1.5q6 2 14 4t17 4q18 7 35.5 13t34.5 12q16 5 30 8t27 5l2 -4q4 -11 6 -20t4 -16q1 -2 1.5 -5.5t1.5 -4.5q5 -20 8.5 -36.5t6.5 -31.5q3 -11 5.5 -21.5t4.5 -18.5v1l10.5 -48t3.5 -18q16 -43 83 -43q60 0 60 61 q0 16 -2 33t-8 37q-2 5 -3 10t-2 9q-7 22 -13 45v-1q-3 12 -6.5 25.5t-6 27t-5 25t-3.5 18.5q-1 1 -1 4q5 7 7.5 10t7.5 7l7 8q12 21 12 48q0 11 -2 16q-13 30 -45 39l2 -1q-19 9 -25 15q-3 12 -7 27t-8 34l-46 180l-3 11q-8 30 -12 46.5t-6 21.5q-18 39 -52 48 q14 2 25.5 6.5t22.5 12.5q32 27 46.5 68.5t14.5 79.5q0 10 -1 20.5t-3 19.5q-5 15 -12.5 26t-23.5 21zM360 422h1l-45 -11l3 1h-15q2 8 10 30t20 60q6 17 11.5 31t10.5 24q2 -9 4.5 -22t6.5 -30q5 -21 8 -37t5 -28q0 -4 2 -10q-4 -2 -9 -4t-13 -4zM405 1004q0 -11 -1.5 -23 t-5.5 -23q-6 -23 -15 -38.5t-16 -18.5q-3 4 -3 18q0 21 8 42q6 18 16.5 36.5t17.5 21.5q-1 -1 -1 -6v-9zM369 900h-1h1z" />
<glyph unicode="&#xc6;" horiz-adv-x="1120" d="M1156 134v10q0 26 -15 50t-42 35q-23 -4 -43.5 -6t-38.5 -2h-12q-14 -2 -27 -2.5t-27 -1.5q-11 -1 -23 -1t-23 -1q-17 -3 -33.5 -6t-33.5 -7q-29 -6 -56.5 -11t-53.5 -8q-3 -1 -8 -1t-9.5 -0.5t-9.5 -0.5t-11 0.5t-14 1.5l3 -1q-18 4 -18 12l2 6q0 29 2 52t4 43q1 7 1 13 t1 12q2 19 6.5 32t27.5 13q3 1 8 1.5t7 1.5l-2 -1q9 2 17.5 3.5t18.5 2.5q9 2 17.5 3.5t17.5 3.5q21 5 42.5 8.5t41.5 3.5q5 0 8.5 -0.5t8.5 -0.5q17 0 35.5 -0.5t36.5 -2.5h4q22 0 42.5 11.5t21.5 37.5l-1 -1q2 5 2 8v7q0 24 -13 41.5t-34 25.5q-14 4 -23.5 6t-18.5 2l2 -1 q-20 5 -40 6.5t-38 1.5q-36 0 -69 -3.5t-66 -8.5h1q-11 -2 -21 -3.5t-21 -3.5v1q2 8 2 16v19q0 5 0.5 12.5t1.5 15.5l7 24q8 1 13 3.5t10 5.5q16 7 33.5 10t35.5 5q26 5 66 7q24 5 45 5.5t41 0.5h10q26 0 52.5 2.5t59.5 15.5q15 24 15 45q0 15 -5.5 30t-14.5 29t-21 25.5 t-26 18.5l1 -1q-19 10 -41 10q-7 0 -12 -0.5t-10 -1.5q-7 -2 -12.5 -2.5t-11.5 -0.5q-15 0 -28 -3q-33 -2 -64.5 -7.5t-66.5 -13.5h1q-20 -5 -39.5 -8t-38.5 -5l-4 -2q-9 47 -60 47q-16 -4 -29 -9t-24.5 -13t-23 -19t-25.5 -26q-33 -38 -62.5 -73.5t-55.5 -72.5 q-35 -49 -65 -89t-57 -75q-37 -50 -69 -93.5t-55 -81.5q-8 -11 -14.5 -20.5t-13.5 -19.5q-8 -11 -14.5 -21t-13.5 -20q-41 -55 -52 -84q-3 -12 -3 -21q0 -23 15 -35q17 -17 48 -17q33 0 53 21q13 13 19.5 22.5t11.5 17.5q1 2 2 2.5t2 2.5l-2 -2l59 85q21 32 29 39 q11 14 32 21h-2q3 1 6 1t7 1q6 2 14.5 4t18.5 5q21 6 41 12l40 12q33 9 60 12v-24q3 -12 3 -23q0 -10 -1 -22.5t-3 -25.5q-2 -14 -3.5 -28.5t-1.5 -29.5q0 -32 12 -60.5t47 -48.5q4 -2 18.5 -3t27.5 -2q5 0 8 -1q10 -1 20 -1.5t19 -0.5q30 0 57 6q70 16 138.5 27.5 t138.5 11.5h21q25 0 45 3h-1q4 0 13 0.5t16.5 1t10 1t-6.5 0.5q27 6 48 24.5t24 45.5zM477 416l1 1l-49 -10h-4q8 11 22 32t36 53l-1 -1q12 16 22.5 29.5t18.5 24.5q0 -9 -1 -19t-3 -21q-2 -16 -3 -29t-3 -24q-2 -9 -3 -14t-1 -11q-6 -3 -13.5 -6t-18.5 -5zM416 393v1h1z " />
<glyph unicode="&#xc7;" horiz-adv-x="635" d="M109 -21q0 -16 11 -18.5t31 -2.5h55q2 0 5.5 0.5t6.5 0.5q7 1 15 1h18h23q12 0 19 -2q-21 -14 -47 -17t-51 -4q-30 -1 -54 -5.5t-37 -27.5q-2 -3 -3 -6.5t-1 -8.5q0 -11 9 -19.5t23.5 -14t32.5 -8.5t37 -3q33 0 70.5 7t69 20t52.5 32.5t21 44.5q-3 32 -15.5 55t-43.5 34 q11 2 23.5 5.5t29.5 8.5q16 6 28 12t25 15q206 111 206 193q0 32 -19 51.5t-51 19.5q-16 0 -31 -6t-30 -17h1q-19 -14 -28 -22v1q-16 -14 -31.5 -26t-29.5 -21q-33 -21 -56 -35t-36 -19q-45 -24 -86 -24t-62 25h1q-20 26 -20 69q0 41 21 86l3 4.5t3 6.5q5 10 15.5 29 t27.5 49q43 82 93 141q67 82 115 82q9 0 12 -12q1 -6 2.5 -13.5t5.5 -18.5q2 -5 2.5 -11t2.5 -11q7 -20 19.5 -30t29.5 -10q61 0 61 98q0 37 -5 64.5t-13 47.5q-30 59 -102 59q-61 0 -111 -34h1q-12 -8 -25 -19.5t-30 -28.5q-14 -13 -26.5 -26t-22.5 -24q-50 -60 -81 -104 t-48 -73q-17 -34 -30.5 -60t-22.5 -44l1 1q-9 -17 -15.5 -35.5t-11.5 -41.5q-10 -43 -10 -80q0 -68 17 -105v1q18 -44 70 -85q8 -7 16.5 -12.5t18.5 -10.5l-37 -28l-5 -3q-14 -7 -18 -12.5t-4 -24.5z" />
<glyph unicode="&#xc8;" horiz-adv-x="667" d="M697 147v9q0 27 -14 51t-41 35q-23 -4 -43 -5.5t-37 -1.5h-12q-13 -2 -25.5 -2.5t-26.5 -1.5q-11 -1 -23 -1q-11 0 -23 -1q-16 -3 -32 -6.5t-32 -7.5q-28 -5 -55 -10.5t-53 -8.5q-3 -1 -7 -1q-5 0 -10 -0.5t-9 -0.5q-5 0 -11 0.5t-14 1.5l3 -1q-18 5 -18 13l1 1 q2 5 2.5 8.5t0.5 8.5v17q0 17 1.5 34t3.5 34l3 35q0 10 3.5 20.5t13.5 12.5q11 1 18 2l14 2q8 2 15 3t16 3q8 2 16.5 3.5t16.5 3.5q21 5 41.5 8.5t40.5 3.5q5 0 9 -0.5t8 -0.5q17 0 35 -0.5t35 -2.5h5q21 0 41 12t21 38l-1 -1q2 5 2 8v7q0 24 -13 42t-33 26q-13 4 -22.5 6 t-18.5 2l2 -1q-20 5 -39.5 7t-36.5 2q-34 0 -66.5 -4t-64.5 -9h1q-11 -2 -20.5 -3.5t-20.5 -3.5v7q2 4 2 7v7q0 5 -1 8q0 9 0.5 17.5t1.5 17.5l2 7l1 12v5q8 1 14 3.5t12 6.5q16 8 33 10.5t34 4.5q14 3 30.5 4.5t34.5 2.5q23 5 43.5 6t40.5 1h9q26 0 52 2.5t58 15.5 q15 24 15 46q0 15 -5 30.5t-14 29.5t-21 25.5t-26 18.5l1 -1q-17 10 -40 10q-6 0 -11 -0.5t-10 -1.5q-7 -2 -12.5 -2.5t-11.5 -0.5q-15 0 -27 -3q-32 -2 -63 -7.5t-65 -13.5h1q-19 -5 -36.5 -8t-36.5 -6q-8 -3 -17 -5t-17 -4l1 1q-11 -2 -21.5 -5.5t-21.5 -7.5h-2 q-16 0 -32 -4.5t-28.5 -13.5t-20.5 -22.5t-8 -31.5v-14q1 -11 1.5 -21.5t0.5 -22.5v-122q1 -7 1 -13v-11v-27q0 -23 -3 -48q-2 -29 -5.5 -56.5t-8.5 -56.5v1q-5 -29 -8 -57t-6 -57v2q-3 -14 -3 -31q0 -26 7.5 -50t22.5 -43.5t37 -32t51 -14.5h-1q9 -1 19 -1.5t19 -0.5 q29 0 55 6q69 16 135.5 27.5t135.5 11.5h20q24 0 45 3h-1q4 0 12.5 0.5t15.5 1t9.5 1t-5.5 0.5q26 7 46.5 25.5t22.5 46.5zM456 904q0 46 -57 150l1 -1l-37 72q-36 59 -74 59q-28 0 -48 -20.5t-20 -49.5q0 -8 2 -18t9 -22l24.5 -42t18.5 -31q5 -9 10 -16l-1 1q3 -8 6 -11 q1 -9 5 -14q1 -3 3 -6.5t7 -11.5l-1 1q14 -28 24.5 -45.5t17.5 -26.5q23 -26 54 -26q56 0 56 58z" />
<glyph unicode="&#xc9;" horiz-adv-x="667" d="M697 147v9q0 27 -14 51t-41 35q-23 -3 -43 -5t-37 -2h-12q-13 -2 -25.5 -2.5t-26.5 -1.5q-11 -1 -23 -1q-11 0 -23 -1q-16 -3 -32 -6.5t-32 -7.5q-28 -5 -55 -10.5t-53 -8.5h2q-2 0 -4.5 -0.5t-4.5 -0.5q-5 0 -10 -0.5t-9 -0.5q-5 0 -11 0.5t-14 1.5l3 -1q-18 5 -18 13v0 q0 1 1 1q2 5 2.5 8.5t0.5 8.5v17q0 17 1.5 34t3.5 34l3 35q0 10 3.5 20.5t13.5 12.5q11 1 18 2l14 2q8 2 15 3t16 3q8 2 16.5 3.5t16.5 3.5q21 5 41.5 8.5t40.5 3.5q5 0 9 -0.5t8 -0.5q17 0 35 -0.5t35 -2.5h5q21 0 41 12t21 38l-1 -1q2 5 2 8v7q0 24 -13 42t-33 26 q-13 4 -22.5 6t-18.5 2l2 -1q-20 5 -39.5 7t-36.5 2q-34 0 -66.5 -4t-64.5 -9h1q-11 -2 -20.5 -3.5t-20.5 -3.5v7q2 4 2 7v7q0 5 -1 8q0 9 0.5 17.5t1.5 17.5l2 7l1 13v4q8 1 14 3.5t12 6.5q16 8 33 10.5t34 4.5q14 3 30.5 4.5t34.5 2.5q23 5 43.5 6t40.5 1h9q26 0 52 2.5 t58 15.5q15 24 15 46q0 15 -5 30.5t-14 29.5t-21 25.5t-26 18.5l1 -1q-17 10 -40 10q-6 0 -11 -0.5t-10 -1.5q-7 -2 -12.5 -2.5t-11.5 -0.5q-15 0 -27 -3h3q-33 -2 -64.5 -7t-66.5 -14h1q-19 -5 -36.5 -8t-36.5 -6q-8 -2 -17 -4.5t-17 -4.5l1 1q-11 -2 -21.5 -5.5 t-21.5 -7.5h-2q-16 0 -32 -4.5t-28.5 -13.5t-20.5 -22.5t-8 -31.5v-14q1 -11 1.5 -21.5t0.5 -22.5v-122q1 -7 1 -13v-11v-26q0 -24 -3 -49q-2 -29 -5.5 -56.5t-8.5 -56.5v1q-5 -29 -8 -57t-6 -57v2q-3 -14 -3 -31q0 -26 7.5 -50t22.5 -43.5t37 -32t51 -14.5h-1q9 -1 19 -1.5 t19 -0.5q29 0 55 6q69 16 135.5 27.5t135.5 11.5h20q24 0 45 3h-1q4 0 12.5 0.5t15.5 1t9.5 1t-5.5 0.5q26 7 46.5 25.5t22.5 46.5zM285 906q0 -58 56 -58q31 0 54 26q7 9 17.5 26t23.5 42q1 5 3.5 10.5t4.5 9.5q2 2 3.5 6t4.5 10l-1 -2q1 2 2.5 4.5t3.5 7.5l-1 -1 q2 4 4.5 8t4.5 9q8 12 19 30t25 42q7 12 9 22t2 18q0 29 -20 49.5t-48 20.5q-40 0 -75 -59l-36 -72l1 1q-57 -104 -57 -150z" />
<glyph unicode="&#xca;" horiz-adv-x="667" d="M697 146v10q0 27 -14 51t-41 35q-23 -4 -43 -6t-37 -2h-12q-13 -2 -25.5 -2.5t-26.5 -1.5q-11 -1 -23 -1q-11 0 -23 -1q-16 -2 -32 -5.5t-32 -7.5q-28 -6 -55 -11.5t-53 -7.5h2q-2 0 -4.5 -0.5t-4.5 -0.5q-5 0 -10 -0.5t-9 -0.5q-5 0 -11 0.5t-14 1.5l3 -1q-18 5 -18 12 v0q0 1 1 2q2 5 2.5 8.5t0.5 8.5v17q0 16 1.5 33t3.5 34l3 35q0 11 3.5 21t13.5 12q11 1 18 2t14 3q8 2 15 3t16 3l33 6q21 5 41.5 8.5t40.5 3.5q5 0 9 -0.5t8 -0.5q17 0 35 -0.5t35 -2.5h5q21 0 41 12t21 38l-1 -1q2 5 2 8v7q0 25 -13 42.5t-33 25.5q-13 4 -22.5 6t-18.5 2 l2 -1q-20 5 -39.5 7t-36.5 2q-34 0 -66.5 -4t-64.5 -9h1q-11 -2 -20.5 -3.5t-20.5 -3.5v7q2 4 2 7v7q0 6 -1 8q0 9 0.5 17.5t1.5 17.5l2 7l1 12v4l1 1q8 1 13.5 3.5t11.5 6.5q16 8 33 10.5t34 4.5q14 3 30.5 4.5t34.5 2.5q23 5 43.5 6t40.5 1h9q26 0 52 2.5t58 15.5 q15 24 15 46q0 29 -19 59.5t-47 44.5l1 -1q-9 5 -19 7t-21 2q-6 0 -11 -0.5t-10 -0.5q-7 -2 -12.5 -2.5t-11.5 -0.5q-15 0 -27 -3q-32 -2 -63 -7.5t-65 -13.5h1q-19 -5 -36.5 -8t-36.5 -6q-8 -3 -17 -5.5t-17 -4.5l1 1q-20 -4 -43 -12h-2q-16 0 -32 -4.5t-28.5 -14 t-20.5 -23t-8 -31.5v-13q1 -12 1.5 -22t0.5 -23v-121q1 -7 1 -13v-11v-26q0 -24 -3 -49q-2 -28 -5.5 -55.5t-8.5 -56.5v1q-5 -29 -8 -57.5t-6 -56.5v2q-3 -14 -3 -31q0 -26 7.5 -50t22.5 -43.5t37 -32t51 -14.5h-1q9 -1 19 -1.5t19 -0.5q29 0 55 6q69 16 135.5 27.5 t135.5 11.5h20q24 0 45 3h-1q4 0 12.5 0.5t15.5 1t9.5 1t-5.5 0.5q26 7 46.5 25.5t22.5 45.5zM505 875q34 3 34 28q0 10 -6 18l1 -2q-14 28 -33 69t-32 79v-1q-5 14 -10.5 20.5t-13.5 13.5l-5 5q-10 5 -14 6t-6 3q-14 4 -24 9q-9 4 -21 4q-10 0 -18.5 -4.5t-16.5 -15.5l1 2 q-18 -18 -35.5 -39t-33.5 -42t-30 -40t-23 -33v1q-8 -12 -8 -22q0 -19 15 -32q8 -8 15 -12.5t15 -9.5l4 -4q2 -2 6 -3t6 -2l-4 1q8 -4 22 -4q9 2 14 7l10 10q14 18 29.5 38t33.5 42q3 -7 6 -13t5 -11q6 -12 10.5 -22t8.5 -18q22 -26 48 -28q4 -1 8 -1h10q8 0 16 1z" />
<glyph unicode="&#xcb;" horiz-adv-x="667" d="M697 146v10q0 26 -14 50t-41 35q-23 -4 -43 -6t-37 -2h-12q-13 -2 -26 -2q-12 0 -26 -1q-11 -1 -23 -1q-11 0 -23 -1q-16 -3 -32 -6.5t-32 -7.5q-28 -6 -55 -11t-53 -8q-3 -1 -7 -1q-5 0 -10 -0.5t-9 -0.5q-5 0 -11 0.5t-14 1.5l3 -1q-18 5 -18 12v0q0 1 1 2q2 5 2.5 8.5 t0.5 8.5v17q0 16 1.5 33t3.5 34l3 35q0 9 3.5 20t12.5 13q11 1 18.5 2t14.5 2q8 2 15 3t16 3q8 2 16.5 3.5t16.5 3.5q21 5 41.5 8t40.5 3q5 0 9 -0.5t8 -0.5h35t35 -2h5q21 0 41 12t21 38l-1 -1q2 4 2 7v7q0 25 -13 42.5t-33 25.5q-13 4 -22.5 6t-18.5 2l2 -1q-20 5 -39.5 7 t-36.5 2q-34 0 -66.5 -4t-64.5 -9q-11 -2 -20 -3.5t-20 -3.5v7q2 4 2 7v7q0 5 -1 8q0 9 0.5 17t1.5 18l2 7l1 12v4l1 1q8 1 13.5 3.5t11.5 6.5q16 7 33 10t34 5q14 3 30.5 4.5t34.5 2.5q23 5 43.5 5.5t40.5 0.5h9q26 0 52 2.5t58 16.5q15 22 15 45q0 29 -19 59.5t-47 44.5 l1 -1q-18 9 -40 9q-6 0 -11 -0.5t-10 -1.5q-7 -2 -12.5 -2.5t-11.5 -0.5h-15q-6 0 -12 -2q-62 -4 -128 -22h1q-19 -4 -36.5 -7t-36.5 -6q-8 -3 -17 -5.5t-17 -4.5l1 1q-20 -4 -43 -12h-2q-16 0 -32 -4.5t-28.5 -13.5t-20.5 -22.5t-8 -31.5v-14q1 -11 1.5 -21.5t0.5 -22.5 v-121q1 -7 1 -13v-11v-26q0 -24 -3 -48q-2 -29 -5.5 -56.5t-8.5 -56.5v1q-5 -28 -8 -56.5t-6 -56.5v2q-3 -14 -3 -31q0 -25 7.5 -49t22.5 -43.5t37 -32t51 -14.5h-1q9 -1 19 -1.5t19 -0.5q29 0 55 6q69 16 135.5 27.5t135.5 11.5h20q24 0 45 3h-1q4 0 12.5 0.5t15.5 1t9.5 1 t-5.5 0.5q26 6 46.5 24.5t22.5 46.5zM375 935v-8q0 -38 19.5 -60.5t47.5 -22.5h3q15 0 26.5 7t20 17t13.5 21.5t7 19.5v3q1 5 1.5 9.5t0.5 12.5q0 22 -11.5 43t-35.5 32q-8 4 -14 5t-12 1q-29 0 -46.5 -24.5t-19.5 -55.5zM210 936v-7q0 -38 20 -61t47 -23h3q15 0 26 6.5 t19.5 16.5t13.5 21t7 20q4 9 4 25q0 23 -11.5 44t-36.5 32h1q-14 6 -26 6q-29 0 -46.5 -24.5t-20.5 -55.5z" />
<glyph unicode="&#xcc;" horiz-adv-x="637" d="M664 736q0 31 -39 77l-69 6q-22 -2 -42 -3t-36 -3q-71 -5 -82 -7h1q-13 -2 -24 -3l-22 -2l-34 -3q-14 -1 -27.5 -2.5t-24.5 -4.5l1 1q-13 -2 -27.5 -4.5t-28.5 -5.5q-6 -2 -12.5 -3t-11.5 -3l1 1q-59 -9 -88.5 -27.5t-29.5 -54.5q0 -78 99 -78q6 0 33 3q22 3 39 6t28 5 h-3q2 0 3 0.5t3 0.5q4 1 9 1h10t22 2v-32q0 -35 -3 -75.5t-8 -87.5v1l-20 -166v1q0 4 -0.5 1t-1 -8.5t-1 -12t-0.5 -10.5q-2 -12 -3 -27q-2 -14 -6 -22.5t-9 -13.5l2 1q-5 -3 -13 -6t-21 -6q-4 -1 -14.5 -3t-30.5 -5q-14 -3 -25.5 -5.5t-23.5 -5.5l1 1q-20 -3 -32.5 -6 t-23.5 -8q-36 -17 -36 -58q0 -3 -0.5 -6t-0.5 -5q0 -25 10.5 -41t30.5 -21q4 0 6 -1h-2l24.5 -3.5t19.5 -1.5q17 0 34.5 2t49.5 8q2 1 10 3l-1 -1q29 5 55 9.5t49 8.5q82 13 129 20.5t55 8.5q42 5 67.5 10t38.5 8h-1q5 1 11 1.5t8 0.5q23 40 23 69q0 46 -51 77 q-29 -4 -52 -7.5t-34 -5.5q-6 -1 -11 -1.5t-3 -0.5q-6 -1 -15 -1.5t-20 -0.5q-29 0 -43 -5q-1 0 -1 5v5l31 303q1 5 1 12v6q0 84 13 113l32.5 5t48.5 9l8 2t9 2q92 0 92 68zM482 891q0 46 -58 150l1 -1l-36 72q-37 59 -75 59q-27 0 -47 -20.5t-20 -49.5q0 -8 2 -18t9 -23 l24.5 -42t18.5 -30q2 -5 4.5 -9t5.5 -8l-1 1q2 -3 2.5 -5.5t2.5 -4.5q3 -9 6 -15q1 -3 3 -6t6 -11l-1 1q14 -28 24.5 -45.5t18.5 -27.5q23 -25 53 -25q57 0 57 58z" />
<glyph unicode="&#xcd;" horiz-adv-x="637" d="M664 737q0 30 -39 76l-69 6q-22 -2 -42 -3t-36 -3q-35 -2 -55 -3t-27 -3h1q-13 -2 -24 -3l-22 -2l-34 -3h1q-14 -1 -27.5 -2.5t-25.5 -5.5l1 1q-13 -2 -27.5 -4.5t-28.5 -5.5q-6 -2 -12.5 -2.5t-11.5 -2.5l1 1q-59 -10 -88.5 -28t-29.5 -55q0 -78 99 -78q3 0 11 1t22 3 q22 3 39 5.5t28 4.5h-3q2 0 3 0.5t3 0.5q4 1 9 1h10t22 2v-32q0 -35 -3 -75.5t-8 -87.5v1l-20 -166v1q0 4 -0.5 1t-1 -8.5t-1 -12t-0.5 -10.5q-2 -12 -3 -27q-4 -26 -15 -35h2q-5 -3 -13 -6t-21 -6q-4 -1 -14.5 -3t-30.5 -5q-14 -3 -25.5 -5.5t-23.5 -4.5h1q-20 -3 -32.5 -6 t-23.5 -8q-36 -17 -36 -58q0 -3 -0.5 -6t-0.5 -5q0 -25 10.5 -41t30.5 -21q4 0 6 -1h-2l24.5 -3.5t19.5 -1.5q17 0 34.5 2t49.5 8q2 1 10 3l-1 -1q29 5 55 9.5t49 8.5q82 13 129 20.5t55 8.5q42 5 67.5 10t38.5 8h-1q5 1 11 1.5t8 0.5q23 40 23 69q0 46 -51 77 q-29 -4 -52 -7.5t-34 -5.5q-6 -1 -11 -1t-3 0q-6 -1 -15 -1.5t-20 -0.5q-27 0 -43 -6q-1 0 -1 6v4l31 303q1 5 1 12v7q0 43 3.5 71t9.5 42l32.5 5t48.5 8q4 1 7.5 2t8.5 2q93 0 93 69zM301 915q0 -58 57 -58q30 0 53 25q17 21 41 69q1 5 3.5 10l4.5 9q2 3 3.5 7t4.5 10 l-1 -2q1 2 2.5 4t3.5 7l-1 -1q2 4 4.5 8.5t4.5 9.5q17 24 44 71q7 13 9 23t2 18q0 29 -20 49.5t-48 20.5q-39 0 -75 -59l-35 -72l1 1q-58 -104 -58 -150z" />
<glyph unicode="&#xce;" horiz-adv-x="637" d="M664 735q0 31 -39 77l-69 5q-22 -2 -42 -3t-36 -2h1q-35 -2 -55.5 -3.5t-27.5 -3.5h1q-13 -2 -24 -3l-22 -2l-34 -3q-14 -1 -27.5 -2.5t-24.5 -5.5l1 1q-13 -2 -27.5 -4t-28.5 -5q-6 -2 -12.5 -3t-11.5 -3l1 1q-59 -10 -88.5 -28t-29.5 -54q0 -78 99 -78q6 0 33 3 q22 3 39 6t28 5h-3q2 0 3 0.5t3 0.5q4 1 9 1h10t22 2v-32q0 -35 -3 -75.5t-8 -87.5v1l-20 -165v1q0 3 -0.5 0.5t-1 -8t-1 -12t-0.5 -10.5q-1 -7 -1.5 -13t-1.5 -14q-2 -14 -6 -22.5t-9 -13.5l2 1q-11 -8 -34 -12q-4 -1 -14.5 -3t-30.5 -5q-14 -3 -25.5 -5.5t-23.5 -5.5l1 1 l-32.5 -6.5t-23.5 -7.5q-36 -17 -36 -58q0 -3 -0.5 -6t-0.5 -5q0 -25 10.5 -41t30.5 -21q4 0 6 -1h-2l24.5 -3.5t19.5 -1.5q17 0 34.5 2.5t49.5 7.5q2 1 10 3l-1 -1q29 5 55 9.5t49 8.5q82 13 129 20.5t55 8.5q42 5 67.5 10t38.5 8h-1q5 1 11 1.5t8 0.5q23 40 23 68 q0 46 -51 78q-29 -4 -52 -7.5t-34 -5.5q-6 -1 -11 -1.5t-3 -0.5q-6 -1 -15 -1.5t-20 -0.5q-27 0 -43 -6q-1 0 -1 6v5l31 302q1 5 1 12v6q0 84 13 113l32.5 5t48.5 9l8 2t9 2q92 0 92 68zM523 864q34 3 34 28q0 9 -6 18l1 -2q-14 28 -33 69t-32 79v-1q-5 14 -10.5 20.5 t-13.5 13.5l-5 4q-10 5 -14 6.5t-7 3.5q-6 2 -12 4.5t-11 4.5q-9 4 -21 4q-10 0 -18 -4.5t-16 -16.5v2q-18 -18 -35.5 -39t-33.5 -42t-29.5 -40t-23.5 -32v1q-7 -13 -7 -22q0 -8 3.5 -17t11.5 -15q12 -14 29 -22q4 -4 5 -4q2 -2 5.5 -3t5.5 -2l-4 1q8 -4 22 -4q9 2 14.5 6.5 t9.5 9.5q14 18 29.5 38t33.5 42l6 -12t5 -12q6 -11 10.5 -21t8.5 -18q21 -26 48 -28q5 -1 18 -1q8 0 16 1z" />
<glyph unicode="&#xcf;" horiz-adv-x="637" d="M664 733q0 30 -39 76l-69 6q-22 -2 -42 -3t-36 -3h1q-35 -2 -55.5 -3.5t-27.5 -3.5h1q-13 -2 -24 -2.5t-22 -1.5l-34 -3h1q-14 -1 -27.5 -2.5t-25.5 -5.5l1 1q-13 -2 -27.5 -4.5t-28.5 -5.5q-6 -2 -12.5 -2.5t-11.5 -2.5l1 1q-59 -10 -88.5 -28t-29.5 -54q0 -78 99 -78 q3 0 11 1t22 3q22 3 39 5.5t28 4.5h-3q2 0 3 0.5t3 0.5q4 1 9 1h10t22 2v-32q0 -35 -3 -75.5t-8 -86.5v1l-20 -165v1q0 4 -0.5 1t-1 -8.5t-1 -12t-0.5 -10.5q-2 -12 -3 -27q-4 -26 -15 -35l2 1q-10 -7 -34 -13q-4 -1 -14.5 -3t-30.5 -5q-14 -2 -25.5 -4.5t-23.5 -5.5l1 1 q-20 -4 -32.5 -7t-23.5 -8q-36 -16 -36 -57q0 -3 -0.5 -6t-0.5 -5q0 -25 10.5 -41t30.5 -21q4 0 6 -1h-2l24.5 -3.5t19.5 -1.5q17 0 34.5 2.5t49.5 7.5q2 1 10 3l-1 -1q29 5 55 9.5t49 8.5q82 13 129 20t55 8q42 5 67.5 10.5t38.5 8.5h-1q5 1 11 1.5t8 0.5q23 40 23 68 q0 46 -51 77q-29 -4 -52 -7.5t-34 -5.5q-6 -1 -11 -1.5t-3 -0.5q-6 0 -15 -0.5t-20 -0.5q-27 0 -43 -6q-1 0 -1 6v4l31 302q1 4 1 11v7q0 83 13 112l32.5 5t48.5 9q4 1 7.5 2t8.5 2q93 0 93 68zM403 946v-8q0 -38 19.5 -61t46.5 -23h3q15 0 27 7t20 17.5t13 22t7 19.5v3 q1 5 1.5 9.5t0.5 12.5q0 22 -11.5 43t-35.5 32q-8 4 -14 5t-12 1q-29 0 -46 -24.5t-19 -55.5zM238 947v-7q0 -38 19.5 -61.5t47.5 -23.5h3q14 0 25.5 7t20 16.5t13.5 21t7 20.5q3 10 3 25q0 23 -11.5 44t-36.5 32h1q-12 6 -25 6q-29 0 -46.5 -24.5t-20.5 -55.5z" />
<glyph unicode="&#xd0;" horiz-adv-x="663" d="M700 465q0 119 -28 168q-19 29 -36 50t-33 35q-20 18 -44 30.5t-49 23.5q-11 3 -21.5 6t-20.5 6q-13 4 -25 7t-25 8h1q-6 2 -16 4t-22 3q-22 3 -32 7q-17 5 -40.5 8.5t-56.5 3.5q-86 0 -86 -63v-16q0 -10 0.5 -19t1.5 -17q1 -7 1 -12v-6q0 -14 -1 -29.5t-3 -37.5 q-1 -16 -1 -28q0 -11 -1 -20q-1 -7 -1.5 -11t-0.5 -11q-1 -7 -1 -13t-1 -11h-68q-15 0 -34 -19q-17 -23 -17 -34q0 -50 25 -78t72 -30q-2 -27 -4 -49t-4 -42q-2 -17 -3.5 -32t-3.5 -28l-8 -63q-1 -13 -1.5 -20.5t-0.5 -9.5q0 -57 25 -80.5t81 -23.5q14 0 29.5 4.5t31.5 14.5 l9.5 5t17.5 8q6 3 12.5 6.5t11.5 7.5l-2 -1q39 17 66 29t46 23v-1q260 143 260 347zM503 473q0 61 -72 72q-3 2 -11 2h-14l-106 -10q1 5 1.5 10.5t2.5 10.5q2 8 3 16t2 14q0 3 1 8.5t1 6.5q2 6 2 9v7q2 10 2.5 13.5t0.5 4.5v2v3q0 2 0.5 4.5t0.5 4.5q1 2 1.5 4.5t1.5 4.5v1 h1q105 0 159 -30q66 -40 68 -139l-1 -3q-1 -4 -1.5 -9t-2.5 -13v-8v3q-6 -29 -9 -36q-23 -62 -95 -125q-61 -49 -139 -82q-26 -10 -32 -10q1 0 1 5q0 6 3 38v-1q1 5 1 11q0 7 1 13q2 23 3.5 39t1.5 27q4 11 4 12v3v1q0 2 1 4v2v-2v2q0 6 1 9q39 2 72 5t60 6q2 0 3.5 0.5 t3.5 0.5q23 0 32 4q22 7 37 38q4 12 6.5 23.5t3.5 22.5v1zM309 597q0 1 1 2zM316 650v-3v3z" />
<glyph unicode="&#xd1;" horiz-adv-x="642" d="M659 285v34q0 14 -0.5 30.5t-1 41.5t-1.5 69q0 15 -0.5 25.5t-1.5 15.5q0 8 -0.5 15.5t-0.5 14.5q-1 15 -1 27v22q-2 58 -6.5 99t-10.5 68q-11 36 -37 55q-30 27 -59 27q-32 0 -49 -19t-17 -51v-10l21 -265v-11q0 -24 -3 -85q-1 -29 -2 -49.5t-3 -32.5q-7 7 -23 30 t-44 64h1q-9 14 -18 26.5t-18 26.5q-12 18 -24.5 36.5t-25.5 36.5v-1q-17 24 -35.5 63.5t-40.5 93.5l1 -1q-16 41 -26.5 64t-18.5 35q-27 38 -79 38q-63 0 -72 -80q0 -4 -1 -9q0 -2 -0.5 -4.5t-0.5 -4.5v1q-3 -12 -3 -24v-81q0 -4 -3 -50l-4 -87q-3 -39 -3 -42q0 -14 3 -66 q2 -40 4.5 -72t5.5 -58q0 -20 0.5 -39t1.5 -39q-3 -26 -3 -45q0 -20 3 -36q9 -29 48 -53q20 -2 36.5 -2.5t22.5 -0.5q31 0 48 33l-1 -1q12 19 12 41v5q0 4 -2 9l1 -1l-8 101q-1 13 -1.5 20t-1 11.5t-1 8.5t-0.5 10v100q1 5 1 12v29q0 6 -1 8q3 -3 6 -6.5t7 -7.5q2 -2 2 -6 l-1 3q1 -5 3 -6l-1 -1q1 -2 1 -3t2 -3q0 -8 7 -9q2 -4 3 -4q15 -23 26.5 -40.5t19.5 -31.5q10 -13 18.5 -24t13.5 -16q7 -10 11.5 -18t9.5 -16l-1 1q4 -6 8.5 -13.5t9.5 -14.5q17 -23 41.5 -49t58.5 -55q84 -70 127 -70q34 0 52 33q9 18 15 116q2 37 3 65.5t1 48.5zM405 837 q36 0 76 41v-1q42 41 42 77q0 23 -22 39q-13 9 -31 9q-11 0 -20.5 -5t-19.5 -14q-1 -2 -3.5 -5t-4.5 -5l1 1q-5 -6 -10 -13.5t-2 -8.5q-8 1 -17 6.5t-18 10.5h1q-7 5 -14 9t-14 7l1 -1q-17 7 -31 11t-28 4q-13 0 -31.5 -8.5t-36.5 -20.5t-33 -26.5t-20 -26.5q-8 -18 -8 -32 q0 -46 48 -46q11 0 21.5 3t18.5 11l-8 -4q3 2 8 5.5t9 7.5q5 5 11 11.5t8 6.5q11 0 28.5 -5.5t24.5 -12.5q24 -25 74 -25zM258 409l-3 -2v3zM484 295q0 3 1 4q-1 -2 -1 -4z" />
<glyph unicode="&#xd2;" horiz-adv-x="803" d="M815 488q0 24 -11 71q-1 1 -2 7.5t-3 14.5q-1 5 -3.5 13t-5.5 18l1 -2q-5 23 -13 43t-19 39q-19 32 -42.5 58t-55.5 46q-68 45 -135 45q-4 0 -13 -1t-15 -2q-14 -3 -16 -3q-82 0 -207 -89q-43 -30 -84 -83.5t-85 -135.5q-14 -27 -23 -53.5t-14 -54.5q-5 -25 -6.5 -42 t-1.5 -26q-5 -20 -5 -37q0 -32 14 -83q25 -74 51 -92q8 -12 17.5 -20.5t21.5 -18.5q3 -2 56 -30q7 -3 13 -5t11 -4q12 -5 20.5 -8.5t16.5 -5.5v1q34 -9 57 -13t37 -4q47 0 85 5.5t67 17.5q11 6 21 11l18 9q6 4 12.5 6.5t11.5 5.5q26 11 46.5 24.5t37.5 27.5q34 30 61 70 t46 89h-1q21 49 30 96t9 95zM658 466q0 -79 -49 -153q-50 -77 -118 -104q-35 -18 -95 -18q-4 0 -14 1.5t-24 3.5l1 -1q-38 9 -64.5 20.5t-41.5 28.5q-35 35 -35 112q0 29 12.5 61.5t36.5 70.5q25 38 54 68.5t63 57.5q69 52 123 52q68 0 110 -63q41 -62 41 -137zM575 919 q0 46 -58 150l1 -1l-37 72q-37 59 -75 59q-28 0 -48.5 -20.5t-20.5 -49.5q0 -8 2 -18t10 -23q14 -23 24.5 -41.5t18.5 -30.5q2 -5 4.5 -9t5.5 -8l-1 1q4 -8 6 -10q2 -5 2.5 -8.5t2.5 -6.5q1 -3 3 -6t7 -11l-1 1q14 -28 24.5 -45.5t18.5 -27.5q23 -25 54 -25q57 0 57 58z" />
<glyph unicode="&#xd3;" horiz-adv-x="803" d="M815 488q0 24 -11 71q-1 1 -2 7.5t-3 14.5q-1 5 -3.5 13t-5.5 18l1 -2q-5 23 -13 43t-19 39q-19 32 -42.5 58t-55.5 46q-68 45 -135 45q-4 0 -13 -1t-15 -2q-14 -3 -16 -3q-82 0 -207 -89q-43 -31 -84 -84t-85 -135q-14 -27 -23 -53.5t-14 -54.5q-5 -25 -6.5 -42 t-1.5 -26q-5 -20 -5 -37q0 -32 14 -83q25 -74 51 -92q8 -12 17.5 -20.5t21.5 -18.5q3 -2 56 -30q7 -3 13 -5t11 -4q12 -5 20.5 -8.5t16.5 -5.5v1q34 -9 57 -13t37 -4q47 0 85 5.5t67 17.5q11 6 21 11l18 9q6 4 12.5 6.5t11.5 5.5q26 11 46.5 24.5t37.5 27.5q34 30 61 70 t46 89h-1q21 49 30 96t9 95zM658 466q0 -79 -49 -153q-50 -77 -118 -104q-35 -18 -95 -18q-4 0 -14 1.5t-24 3.5l1 -1q-38 9 -64.5 20.5t-41.5 28.5q-35 35 -35 112q0 29 12.5 61.5t36.5 70.5q25 38 54 68.5t63 57.5q69 52 123 52q68 0 110 -63q41 -62 41 -137zM375 916 q0 -58 57 -58q31 0 54 25q17 21 41 69q2 5 4.5 10.5t4.5 8.5q2 5 7 17v-2q1 2 6 11l-1 -1q2 4 4.5 8.5t4.5 9.5q8 11 19 29.5t25 41.5q8 13 10 23t2 18q0 29 -20.5 49.5t-48.5 20.5q-40 0 -76 -59l-36 -72l1 1q-58 -104 -58 -150z" />
<glyph unicode="&#xd4;" horiz-adv-x="803" d="M815 487q0 23 -11 70q-1 2 -2 8.5t-3 14.5q-1 4 -3.5 12.5t-5.5 17.5l1 -2q-5 23 -13 43t-19 39q-19 33 -42.5 59t-55.5 46q-66 44 -135 44q-4 0 -13 -1t-15 -2q-14 -3 -16 -3q-82 0 -207 -89q-43 -30 -84 -83t-85 -135q-14 -27 -23 -53.5t-14 -54.5q-5 -24 -6.5 -41.5 t-1.5 -26.5q-5 -20 -5 -37q0 -32 14 -83q25 -75 51 -91q8 -12 17.5 -20.5t21.5 -18.5q3 -2 56 -30q13 -6 24 -9q12 -5 20.5 -8.5t16.5 -5.5v1q34 -9 57 -13t37 -4q47 0 85 5.5t67 17.5q11 5 21 10.5t18 9.5q6 4 12.5 6.5t11.5 5.5q49 22 84 52q34 29 61 69t46 90l-1 -1 q21 50 30 96.5t9 94.5zM658 465q0 -79 -49 -153q-50 -77 -118 -104q-36 -17 -95 -17q-4 0 -14 1.5t-24 3.5l1 -1q-77 17 -106 49q-35 35 -35 112q0 29 12.5 61t36.5 70q25 38 54 68.5t63 56.5q67 52 123 52q68 0 110 -62q41 -62 41 -137zM628 872q34 3 34 28q0 8 -5 18v-2 q-14 28 -33 69t-32 79v-1q-5 14 -10.5 20.5t-14.5 13.5l-5 4q-10 5 -14 6.5t-6 3.5q-7 2 -13 4.5t-11 4.5q-9 4 -21 4q-10 0 -18.5 -4.5t-16.5 -16.5l1 2q-18 -18 -36 -38.5t-34.5 -41.5t-30 -40t-23.5 -33v1q-7 -13 -7 -22q0 -8 3.5 -16.5t11.5 -15.5q12 -14 29 -22 q4 -4 5 -4q2 -2 5.5 -3t5.5 -2l-3 1q7 -4 21 -4q10 2 15 6.5t10 9.5q14 19 29.5 39t34.5 42q3 -7 5.5 -13t5.5 -12q6 -11 10.5 -21t8.5 -18q22 -26 49 -28q3 -1 8 -1h10q8 0 16 1z" />
<glyph unicode="&#xd5;" horiz-adv-x="803" d="M815 485q0 23 -11 70q-1 2 -2 8t-3 14q-1 5 -3.5 13.5t-5.5 17.5l1 -2q-5 23 -13 43t-19 39q-19 32 -42.5 58t-55.5 46q-68 44 -135 44q-4 0 -13 -1t-15 -2q-14 -3 -16 -3q-82 0 -207 -88q-43 -31 -84 -84t-85 -134q-14 -27 -23 -53.5t-14 -53.5q-5 -25 -6.5 -42 t-1.5 -26q-5 -20 -5 -37q0 -32 14 -83q25 -73 51 -91q8 -11 17.5 -20t21.5 -18q2 -2 16 -9.5t40 -20.5q7 -3 13 -5.5t11 -4.5q12 -4 20.5 -7.5t16.5 -5.5v1q34 -9 57 -13t37 -4q47 0 85 5.5t67 17.5q11 5 21 10.5t18 9.5q6 4 12.5 6t11.5 5q49 23 84 52q34 30 61 69.5 t46 89.5l-1 -1q21 49 30 95.5t9 94.5zM658 463q0 -78 -49 -152q-49 -75 -118 -104q-36 -17 -95 -17q-4 0 -14 1.5t-24 3.5l1 -1q-77 17 -106 49q-35 35 -35 111q0 29 12.5 61t36.5 70q25 38 54 68t63 57q67 52 123 52q68 0 110 -63q41 -61 41 -136zM557 848q35 0 77 42v-1 q42 41 42 77q0 22 -22 39q-13 9 -32 9q-20 0 -40 -20q-1 -2 -3.5 -4.5l-4.5 -4.5l1 1q-5 -6 -10 -13.5t-3 -8.5q-8 1 -16.5 6t-18.5 11h1q-7 5 -14 8.5t-14 6.5l1 -1q-17 8 -31.5 12t-28.5 4q-13 0 -31.5 -8.5t-37 -20.5t-33.5 -26.5t-21 -26.5q-3 -9 -5 -17t-2 -16 q0 -46 48 -46q11 0 22 3.5t19 11.5l-9 -4q4 2 9 5t9 7q5 6 11.5 12.5t8.5 6.5q11 0 28 -5.5t25 -13.5q25 -25 75 -25z" />
<glyph unicode="&#xd6;" horiz-adv-x="803" d="M815 485q0 24 -11 71q-1 1 -2 7.5t-3 14.5q-1 4 -3.5 12.5t-5.5 17.5l1 -2q-5 23 -13 43t-19 39q-19 32 -42.5 58t-55.5 46q-66 44 -135 44q-4 0 -13 -1t-15 -2q-7 -2 -11 -2h-5q-82 0 -207 -89q-43 -30 -84 -83.5t-85 -134.5q-14 -27 -23 -53t-14 -54q-5 -25 -6.5 -42 t-1.5 -26q-5 -20 -5 -37q0 -32 14 -82q25 -74 51 -92q8 -11 17.5 -20t21.5 -18q2 -2 16 -9.5t40 -20.5q7 -3 13 -5.5t11 -4.5q12 -4 20.5 -7.5t16.5 -5.5v1q34 -9 57 -13t37 -4q47 0 85 5.5t67 17.5q11 5 21 10.5t18 9.5q6 4 12.5 6.5t11.5 4.5q49 23 84 52q34 30 61 70 t46 89l-1 -1q21 49 30 95.5t9 94.5zM658 463q0 -78 -49 -152q-49 -75 -118 -104q-36 -17 -95 -17q-4 0 -14 1.5t-24 3.5l1 -1q-38 9 -64.5 20.5t-41.5 28.5q-35 35 -35 112q0 29 12.5 60.5t36.5 69.5q25 38 54 68.5t63 56.5q67 52 123 52q68 0 110 -62q41 -62 41 -137z M515 948v-8q0 -38 19.5 -61t47.5 -23h3q15 0 27 7t20.5 17.5t13.5 22t7 19.5v3q1 5 1.5 9.5t0.5 12.5q0 22 -12 42.5t-36 32.5q-8 4 -14 5t-12 1q-29 0 -46.5 -24.5t-19.5 -55.5zM349 949v-7q0 -38 19.5 -61.5t47.5 -23.5h3q15 0 26.5 7t20 16.5t13.5 21t7 20.5q3 10 3 25 q0 23 -11.5 43.5t-36.5 32.5h1q-14 6 -26 6q-29 0 -46.5 -24.5t-20.5 -55.5z" />
<glyph unicode="&#xd7;" horiz-adv-x="444" d="M442 235q21 21 21 45q0 16 -13 39q-9 12 -21.5 27.5t-24.5 29.5q-2 0 -4 4q-6 9 -10.5 16t-4.5 3v2q0 2 1.5 6.5t6.5 9.5q3 3 7 5.5t9 6.5q13 8 25 20q29 29 29 56q0 13 -5.5 24.5t-14.5 22.5v-1q-19 19 -44 19q-18 0 -39 -12q-8 -5 -12.5 -8t-12.5 -11q-3 -3 -6.5 -5.5 t-7.5 -6.5q-19 -14 -28 -22l-13 -10q-11 0 -38 27q-17 16 -30 27.5t-21 16.5q-20 13 -38 13q-21 0 -41 -18q-10 -7 -16 -18t-9 -22q-2 -5 -2 -9v-7q0 -32 30 -61q4 -7 10.5 -11.5t12.5 -10.5l3 -1.5l1 -0.5q5 -7 5 -9q0 -1 -2 -3q-3 -3 -9.5 -10t-12.5 -15 q-8 -10 -14.5 -17.5t-8.5 -9.5q-35 -32 -35 -67q0 -26 19 -45q22 -19 41 -19q17 0 54 22v-1q12 6 23 13t21 14q7 4 13 10q5 3 7.5 5.5t5.5 2.5q4 1 10 1q14 0 26 -10l50 -53q11 -11 25.5 -15t33.5 -4q13 2 25 8t23 16v1z" />
<glyph unicode="&#xd8;" horiz-adv-x="803" d="M685 803q0 42 -17 68t-49 26q-13 0 -24 -4.5t-19 -15.5q-9 -13 -14.5 -23.5t-9.5 -21.5q-6 1 -12 1.5t-14 0.5q-4 0 -13 -1t-15 -1q-14 -3 -16 -3q-82 0 -207 -89q-43 -30 -84 -83t-85 -134q-14 -27 -23 -53t-14 -54q-5 -24 -6.5 -41t-1.5 -27q-5 -18 -5 -36 q0 -32 14 -83q13 -38 26 -60.5t25 -30.5q8 -11 17.5 -20t21.5 -18q2 -2 16 -9.5t38 -19.5l0.5 -0.5t1.5 -0.5q-1 -2 -0.5 -4t0.5 -4q0 -31 24 -65l-1 1q27 -43 54 -43q23 0 38 29q2 5 3.5 10.5t3.5 9.5q2 3 3 7t3 7l5 14q6 -1 11 -1h11q47 0 85 5.5t67 17.5q11 5 21 10.5 t18 9.5q6 4 12.5 6t11.5 5q49 23 84 52q69 60 107 158l-1 -1q21 50 30 96t9 94q0 24 -11 70q-1 2 -2 8t-3 14q-1 5 -3.5 13.5t-5.5 17.5l1 -2q-5 23 -13 43t-19 39q-16 25 -34.5 47t-41.5 41q1 6 1.5 13t0.5 15zM658 462q0 -77 -49 -151q-50 -77 -118 -104q-26 -14 -76 -17 q1 4 4 7q8 20 13 36t9 29v-1q1 3 3 12q11 26 23.5 53t27.5 59q7 15 14 30.5t15 31.5l-1 -3q1 2 1.5 5t2.5 5q41 75 80 157q3 -4 5.5 -7t5.5 -7v1q40 -60 40 -136zM253 243q-35 35 -35 111q0 29 12.5 60.5t36.5 69.5q25 38 54 68t63 57q21 17 41.5 27.5t40.5 17.5 q-21 -42 -42.5 -87.5t-45.5 -98.5q0 -2 -13.5 -33t-38.5 -91q-10 -24 -23 -53.5t-27 -63.5q-1 -1 -1 -3q-13 8 -21 19h-1z" />
<glyph unicode="&#xd9;" horiz-adv-x="703" d="M717 704q0 97 -70 97q-94 0 -94 -101v-23q0 -8 -6 -54q0 -9 -0.5 -13l-1.5 -12q-2 -20 -4.5 -55.5t-6.5 -89.5v1q-5 -51 -10 -91.5t-13 -73.5q-4 -19 -20 -30l3 1q-15 -6 -24 -9.5t-17 -6.5q-75 -29 -128 -43.5t-84 -14.5q-28 0 -28 43q0 33 3 74t10 91v-1q4 22 7.5 44 t7.5 44l6 38t7 39l-1 -2q1 7 4 12h-1q2 10 5.5 23t8.5 33q13 43 13 74q0 41 -31 65h2q-29 27 -64 27q-31 0 -49 -32q-8 -17 -10.5 -31.5t-5.5 -25.5q-1 -5 -2 -9l-2 -8q-15 -75 -27 -146.5t-23 -143.5q-9 -63 -14 -108t-5 -77q0 -47 10 -84q12 -45 40 -64q56 -41 150 -41 q23 0 64.5 9.5t104.5 27.5q6 2 10.5 3t10 3t13.5 5t21 8q3 1 6 2.5t6 2.5q9 3 15.5 4.5t10.5 3.5q11 -11 21.5 -22.5t21.5 -25.5q19 -8 33.5 -12.5t24.5 -4.5q15 0 27 10q27 12 27 56v13q0 7 -2 16q-3 11 -4 19t-1 12q0 -1 0.5 4t1.5 16q2 12 4.5 32t5.5 47q8 67 15.5 146 t15.5 176q1 11 1.5 19.5t1.5 17.5q1 13 1.5 24.5t2.5 21.5q2 20 3.5 32.5t1.5 17.5zM527 862q0 46 -58 150l1 -1l-37 71q-35 59 -74 59q-28 0 -48 -20.5t-20 -49.5q0 -8 2 -18t9 -22q14 -24 25 -42t19 -30q3 -10 9 -17l-1 1q3 -8 6 -11q4 -10 5 -14q1 -3 3 -6.5t7 -10.5 l-1 1q14 -28 24.5 -45.5t17.5 -27.5q23 -25 54 -25q57 0 57 58z" />
<glyph unicode="&#xda;" horiz-adv-x="703" d="M717 704q0 97 -70 97q-94 0 -94 -101v-23q0 -8 -6 -54q0 -9 -0.5 -13l-1.5 -12q-2 -20 -4.5 -55.5t-6.5 -89.5v1q-5 -51 -10 -91.5t-13 -73.5q-4 -19 -20 -30l3 1q-15 -6 -24 -9.5t-17 -6.5q-75 -29 -128 -43.5t-84 -14.5q-28 0 -28 43q0 33 3 74t10 91v-1q4 22 7.5 44 t7.5 44l6 38t7 39l-1 -2q1 7 4 12h-1q2 10 5.5 23t8.5 33q13 43 13 74q0 41 -31 65h2q-29 27 -64 27q-31 0 -49 -32q-8 -17 -10.5 -31.5t-5.5 -25.5q-1 -5 -2 -9l-2 -8q-15 -75 -27 -146.5t-23 -143.5q-9 -63 -14 -108t-5 -77q0 -47 10 -84q12 -45 40 -64q56 -41 150 -41 q23 0 64.5 9.5t104.5 27.5q6 2 10.5 3t10 3t13.5 5t21 8q3 1 6 2.5t6 2.5q9 3 15.5 4.5t10.5 3.5q11 -11 21.5 -22.5t21.5 -25.5q19 -8 33.5 -12.5t24.5 -4.5q15 0 27 10q27 12 27 56v13q0 7 -2 16q-3 11 -4 19t-1 12q0 -1 0.5 4t1.5 16q2 12 4.5 32t5.5 47q8 67 15.5 146 t15.5 176q1 11 1.5 19.5t1.5 17.5q1 13 1.5 24.5t2.5 21.5q2 20 3.5 32.5t1.5 17.5zM345 862q0 -58 56 -58q31 0 54 25q7 10 17.5 27t23.5 42q1 4 3.5 9.5t4.5 9.5q2 3 3.5 7t4.5 9l-1 -2q2 2 3 4.5l3 7.5l-1 -1q2 4 4.5 8.5t4.5 8.5q8 12 19 30t25 42q8 12 9.5 22t1.5 18 q0 29 -20 49.5t-47 20.5q-41 0 -76 -59l-36 -71l1 1q-57 -105 -57 -150z" />
<glyph unicode="&#xdb;" horiz-adv-x="703" d="M717 702q0 97 -70 97q-94 0 -94 -101v-23q0 -6 -6 -54q0 -8 -0.5 -12l-1.5 -12q-2 -20 -4.5 -55.5t-6.5 -89.5v1q-5 -51 -10 -91.5t-13 -72.5q-4 -19 -20 -30l3 1q-15 -7 -24 -10.5t-17 -5.5q-75 -29 -128 -43.5t-84 -14.5q-28 0 -28 42q0 33 3 74t10 91v-1q4 22 7.5 44 t7.5 44l6 38t7 39l-1 -2q1 3 2 6.5t2 5.5h-1q2 10 5.5 23t8.5 33q13 43 13 73q0 41 -31 66l2 -1q-29 27 -64 27q-31 0 -49 -32q-8 -17 -10.5 -31t-5.5 -26q-1 -5 -2 -8.5t-2 -7.5q-15 -75 -27 -146.5t-23 -143.5q-9 -63 -14 -108t-5 -76q0 -47 10 -84q12 -45 40 -65 q55 -40 150 -40q23 0 64.5 9.5t104.5 27.5q6 2 10.5 3t10 3t13.5 5t21 8q3 1 6 2.5t6 2.5q9 3 15.5 4t10.5 3q11 -10 21.5 -21.5t21.5 -25.5q19 -8 33.5 -12.5t24.5 -4.5q8 0 15 2.5t12 6.5q27 13 27 57v13q0 7 -2 16q-3 11 -4 18.5t-1 12.5q0 -1 0.5 4l1.5 15q2 13 4.5 33 t5.5 46q8 67 15.5 146t15.5 176q1 11 1.5 19.5t1.5 17.5q1 13 1.5 24t2.5 22q2 20 3.5 32t1.5 17zM565 821q17 1 25.5 8.5t8.5 18.5q0 9 -5 19l1 -2q-7 13 -15.5 31t-17.5 37.5t-17.5 39.5t-14.5 39v-1q-5 14 -11 20.5t-14 13.5l-5 5q-10 5 -14 6.5t-6 2.5q-14 4 -24 9 q-9 4 -21 4q-10 0 -18.5 -4.5t-16.5 -15.5l1 2q-18 -18 -35.5 -39t-33.5 -42t-30 -40t-23 -32q-8 -11 -8 -22q0 -8 3.5 -16.5t11.5 -14.5q14 -14 29 -23q3 -3 5 -3q2 -2 5.5 -3t5.5 -2l-3 1q7 -4 21 -4q10 2 15 6.5t10 9.5q14 18 29.5 38t33.5 42q3 -7 6 -12.5t5 -11.5 q6 -11 10.5 -21t8.5 -18q21 -26 48 -28q4 -1 8 -1h10q8 0 16 1z" />
<glyph unicode="&#xdc;" horiz-adv-x="703" d="M717 700q0 97 -70 97q-94 0 -94 -101v-23q0 -7 -6 -53q0 -9 -0.5 -12.5t-1.5 -11.5q-2 -20 -4.5 -56t-6.5 -90v1q-5 -51 -10 -91t-13 -72q-4 -19 -20 -30l3 1q-15 -6 -24 -9.5t-17 -6.5q-75 -29 -128 -43.5t-84 -14.5q-28 0 -28 43q0 33 3 74t10 90v-1l15 87l6 38t7 39 l-1 -2q1 4 2 7.5t2 5.5h-1q2 9 5.5 22.5t8.5 32.5q13 43 13 73q0 41 -31 66l2 -1q-29 27 -64 27q-31 0 -49 -32q-8 -17 -10.5 -31t-5.5 -26l-2 -8l-2 -8q-15 -75 -27 -146t-23 -143q-9 -63 -14 -107.5t-5 -76.5q0 -46 10 -83q12 -45 40 -65q55 -40 150 -40q46 0 169 37 q6 2 10.5 3t10 3t13.5 5t21 8q3 1 6 2.5t6 2.5q9 2 15.5 3.5t10.5 3.5q11 -10 21.5 -21.5t21.5 -25.5q19 -8 33.5 -12.5t24.5 -4.5q8 0 15 2.5t12 6.5q27 13 27 57v13t-2 16q-3 10 -4 18t-1 13q0 -1 0.5 3.5t1.5 15.5q2 12 4.5 32t5.5 47q8 66 15.5 145t15.5 176q1 19 3 36 q1 13 1.5 24.5t2.5 21.5q2 20 3.5 32t1.5 17zM435 920v-7q0 -38 19.5 -61t47.5 -23h3q15 0 27 7t20 17t13 21.5t7 19.5v3q1 5 1.5 9.5t0.5 12.5q0 22 -11.5 43t-35.5 32q-8 4 -14 5t-12 1q-29 0 -46.5 -24t-19.5 -56zM270 921v-6q0 -38 19.5 -61.5t47.5 -23.5h3q15 0 26 6.5 t19.5 16.5t13.5 21t7 20q4 9 4 25q0 23 -11.5 44t-36.5 32h1q-14 6 -26 6q-29 0 -46.5 -24t-20.5 -56z" />
<glyph unicode="&#xdd;" horiz-adv-x="674" d="M709 756q0 77 -70 77q-37 0 -115 -78v1q-22 -21 -46 -49t-50 -59q-2 -6 -9 -14q-8 -11 -17 -23t-17 -24l1 1l-32 -42q-8 0 -43 37q-15 16 -26.5 28.5t-21.5 26.5l1 -2q-8 15 -14 27.5t-11 20.5l-3 4q4 -5 2.5 -2t-5.5 9t-8 13t-5 10l2 -3q-2 6 -4 9l-4 6l1 -3l-27 68 q-22 42 -66 42q-35 0 -53.5 -25t-18.5 -60q0 -26 28 -91q10 -23 19.5 -44t20.5 -39q23 -41 52.5 -75t67.5 -63q7 -8 12.5 -12t11.5 -7q1 -2 2.5 -3t3.5 -3l-1 1q14 -11 14 -18l-60 -273v-6q0 -20 5.5 -35t14.5 -27q26 -32 59 -32q19 0 35 11q17 14 37 72q8 25 13 43.5 t7 31.5q10 46 17 74.5t12 42.5q1 2 2 6.5t3 10.5v-1q2 8 4.5 17.5t7.5 23.5q8 32 18 53v-1q53 115 212 271q10 11 17 18.5t11 12.5q8 8 10.5 19.5t2.5 25.5zM291 916q0 -58 56 -58q31 0 54 26q16 19 41 68q2 5 4 10.5t4 8.5t3.5 7t4.5 10l-1 -2q2 2 3 4.5l3 7.5l-1 -1 q2 3 4.5 7.5t4.5 9.5q8 12 19 30t25 42q8 12 9.5 22t1.5 18q0 29 -20 49.5t-47 20.5q-40 0 -76 -59l-36 -72l1 1q-57 -104 -57 -150z" />
<glyph unicode="&#xde;" horiz-adv-x="565" d="M410 178q47 25 84.5 52.5t64 59t40.5 67.5t14 79q-6 64 -33 107t-85 76q-32 17 -82 31.5t-104 23.5q2 8 3.5 16.5t3.5 18.5t4 21.5t4 21.5q0 32 -19 58t-48 34l12 12h-46q-23 0 -43.5 -52t-41.5 -151t-43 -243t-48 -328q0 -8 3 -15h-16l23.5 -23.5t19.5 -16.5h-1l57 -29 h27q4 8 6.5 11t4.5 7q5 9 8.5 15t5.5 12t3.5 13.5t2.5 19.5q0 3 6 36h9q35 5 63.5 11.5t52.5 14.5t46 18t43 23zM273 520v-2q2 6 3 9.5l1 3.5q16 0 36.5 -2t42 -6t42 -11t36.5 -17q4 -10 14 -12h1q20 -26 20 -45q0 -24 -18.5 -46t-49 -43.5t-71 -42.5t-84.5 -41l-17 -5 q3 23 9 61t12.5 77.5t12.5 73t10 48.5zM236 823l2 1q0 -2 -1 -1.5z" />
<glyph unicode="&#xdf;" horiz-adv-x="1244" d="M874 26q49 0 104 20.5t116 63.5q123 85 154 174l-1 -1q7 14 8.5 33.5t1.5 44.5q0 124 -72 169q-53 35 -181 35q-28 0 -82 -6l-45.5 -3.5t-31.5 -1.5q-21 0 -21 2q0 13 53 48q45 27 84 42q8 3 15 5.5t15 5.5t17 6.5t17 6.5q17 8 30 10.5t24 2.5q6 0 15 -15q13 -36 44 -36 q7 0 12 2q18 6 19 6q20 0 34 16.5t14 38.5q0 38 -46 80q-44 43 -81 49h-12q-2 0 -5 0.5t-6 0.5h-18q-29 -1 -55 -5.5t-50 -11.5q-14 -5 -37.5 -15.5t-57.5 -26.5q-11 -5 -19 -9.5t-15 -7.5q-5 -3 -12 -7t-11 -6q-13 -9 -22.5 -16.5t-17.5 -13.5q-6 -5 -10.5 -8.5t-9.5 -6.5 q-20 -14 -36 -28.5t-32 -32.5q-37 -49 -37 -86q0 -22 10 -50q-7 12 -16.5 21t-20.5 16q-53 35 -181 35q-29 0 -83 -6l-45.5 -3.5t-31.5 -1.5q-21 0 -21 2q0 13 54 48q23 14 43 24t40 18q8 3 15 5.5t15 5.5q9 3 17.5 6.5t16.5 6.5q17 8 30 10.5t24 2.5q5 0 16 -15 q12 -36 43 -36h5t8 2q16 6 18 6q20 0 34.5 16.5t14.5 38.5q0 38 -47 80q-44 43 -80 49h-13q-2 0 -5 0.5t-6 0.5h-18q-29 -1 -55 -5.5t-49 -11.5q-15 -5 -38.5 -15.5t-56.5 -26.5q-11 -5 -19.5 -9.5t-14.5 -7.5t-13 -7t-10 -6q-14 -9 -23.5 -16.5t-17.5 -13.5 q-6 -5 -10.5 -8.5t-9.5 -6.5q-20 -14 -36 -28.5t-31 -32.5q-38 -50 -38 -86q0 -35 23 -73q30 -47 95 -64q37 -10 108 -10q10 0 32 0.5t45 1.5t43 1h30q19 0 35 -2.5t30 -7.5h-1q31 -10 31 -30q0 -51 -118 -130l2 1q-2 -1 -0.5 -0.5t-0.5 -0.5q-16 -10 -25.5 -15.5 t-11.5 -6.5q-27 -14 -70 -14q-7 0 -37 9q-13 5 -21.5 7.5t-13.5 4.5q-13 11 -19 15l-12 8t-4 3q-25 19 -51 19q-28 0 -50.5 -20.5t-22.5 -49.5q0 -69 88 -121q73 -43 143 -43q99 0 221 83q122 87 154 175l-1 -1q6 14 7.5 33.5t1.5 44.5q0 60 -17 103q28 -43 91 -58 q37 -10 107 -10q11 0 33 0.5t45 1.5t43 1h29q20 0 36 -2.5t30 -7.5h-1q31 -10 31 -30q0 -50 -118 -130l2 1q-2 -1 -0.5 -0.5t-0.5 -0.5q-16 -10 -25.5 -15t-12.5 -7q-25 -14 -69 -14q-7 0 -37 9q-14 5 -22 7.5t-13 4.5q-6 5 -11 9t-8 6l-12 8t-4 3q-25 19 -51 19 q-28 0 -50.5 -20.5t-22.5 -49.5q0 -69 87 -120q73 -44 144 -44z" />
<glyph unicode="&#xe0;" d="M619 83q0 16 -2 33t-8 37q-2 5 -3 10l-2 10q-4 11 -7 22l-6 22v-1q-3 12 -6.5 25.5t-6 27t-5 25.5t-3.5 19q-1 1 -1 4l7.5 9t7.5 8l7 8q12 19 12 48q0 11 -2 16q-13 30 -45 39l2 -1q-19 9 -25 15q-3 12 -7 27.5t-8 33.5l-46 181l-3 11q-8 30 -12 46.5t-6 21.5 q-23 50 -72 50q-12 0 -29 -7h1q-11 -3 -17 -8t-11 -12q-4 -8 -8 -14.5t-7 -12.5l1 1q-3 -5 -5.5 -10t-4.5 -8q-23 -42 -40 -78.5t-30 -70.5q-36 -98 -65 -167q-21 -51 -37.5 -96t-27.5 -82v1q-5 -11 -8 -21t-7 -21t-7 -21t-7 -21v1q-23 -55 -23 -87q0 -33 27 -52l-2 1 q22 -17 49 -17q36 0 50 24q14 27 19 46v-1l29 86q5 19 8.5 28t5.5 11q4 13 22 19l-2 -1l3 0.5t8 1.5q6 2 14 4t17 5q18 7 35.5 12.5t34.5 11.5q34 11 57 14l2 -4q7 -23 10 -37q0 -4 2 -8q0 -1 0.5 -1.5l0.5 -0.5l-1 2q1 -1 1 -2v0q5 -20 8.5 -36.5t6.5 -30.5l5.5 -22 t4.5 -19v1q14 -65 14 -66q16 -43 83 -43q60 0 60 61zM467 905q0 45 -57 149l1 -1l-36 72q-36 59 -74 59q-28 0 -48 -20.5t-20 -49.5q0 -8 2 -18t10 -22q13 -24 24 -42t19 -31q3 -8 9 -16l-1 1q3 -8 6 -11q2 -5 2.5 -8.5t2.5 -5.5q1 -3 3 -6.5t7 -11.5l-1 1q14 -28 24 -45.5 t18 -26.5q22 -25 53 -25q56 0 56 58zM360 423h1l-45 -11l3 1h-15q2 8 10 30t20 60q6 17 11.5 31t10.5 24q2 -9 4.5 -22t6.5 -30q5 -21 8 -37t5 -28q0 -4 2 -10q-4 -2 -9 -4t-13 -4z" />
<glyph unicode="&#xe1;" d="M619 83q0 16 -2 33t-8 37q-2 5 -3 10l-2 10q-4 11 -7 22l-6 22v-1q-3 12 -6.5 25.5t-6 27t-5 25.5t-3.5 19q-1 1 -1 4q5 7 7.5 9.5l7.5 7.5l7 8q12 21 12 48q0 11 -2 16q-13 30 -45 39l2 -1q-19 9 -25 15q-3 12 -7 27.5t-8 33.5l-46 181l-3 11q-8 30 -12 46.5t-6 21.5 q-23 50 -72 50q-12 0 -29 -7h1q-11 -2 -17 -7.5t-11 -12.5l-8 -14t-7 -13l1 1q-3 -5 -5.5 -9.5t-4.5 -8.5q-23 -41 -40 -78t-30 -71q-36 -98 -65 -167q-21 -51 -37.5 -96t-27.5 -82v1q-5 -11 -8 -21t-7 -21t-7 -21t-7 -21v1q-23 -55 -23 -87q0 -33 27 -52l-2 1 q22 -17 49 -17q36 0 50 24q14 27 19 46v-1l29 86q5 19 8.5 28t5.5 11q4 13 22 19l-2 -1l3 0.5t8 1.5q6 2 14 4t17 5q38 14 70 24q34 11 57 14l2 -4q7 -23 10 -37q0 -4 2 -8v-1h1l-1 1l1 -1q5 -20 8.5 -37t6.5 -31l5.5 -22t4.5 -19v1q14 -65 14 -66q16 -43 83 -43q60 0 60 61 zM288 911q0 -59 56 -59q30 0 53 26q7 9 17 26t23 42q2 5 4.5 10.5t4.5 9.5q2 2 3 6t4 10l-1 -2q2 2 3.5 4.5t3.5 7.5l-1 -1l4 8t4 9q8 12 19 30t25 42q7 12 9 22t2 18q0 29 -20 49.5t-47 20.5q-40 0 -75 -59l-35 -72l1 1q-29 -52 -43 -89.5t-14 -59.5zM360 423h1l-45 -10 l3 1h-15q2 7 10 29t20 60q6 17 11.5 31t10.5 25l4.5 -22.5t6.5 -30.5q5 -21 8 -37t5 -27q0 -5 2 -11q-4 -2 -9 -4t-13 -4z" />
<glyph unicode="&#xe2;" d="M619 83q0 16 -2 33t-8 37q-2 5 -3 10t-2 9q-7 22 -13 45v-1q-3 12 -6.5 25.5t-6 27t-5 25t-3.5 18.5q-1 1 -1 4q5 7 7.5 10t7.5 7l7 8q12 21 12 48q0 11 -2 16q-13 30 -45 39l2 -1q-19 9 -25 15q-3 12 -7 27.5t-8 33.5l-46 180l-3 12q-8 29 -12 45.5t-6 21.5 q-23 50 -72 50q-12 0 -29 -7h1q-11 -2 -17 -7.5t-11 -12.5l-8 -14t-7 -13l1 1q-3 -5 -5.5 -9.5t-4.5 -8.5q-23 -41 -40 -77.5t-30 -71.5q-18 -49 -34 -90t-31 -76q-21 -51 -37.5 -96t-27.5 -82v1q-5 -11 -8 -21t-7 -21q-4 -10 -7 -20t-7 -21v1q-23 -57 -23 -87q0 -33 27 -52 l-2 1q22 -17 49 -17q36 0 50 24q14 27 19 46v-1l29 86q5 18 8.5 27.5t5.5 11.5q4 11 22 19l-2 -1l3 0.5t8 1.5q6 2 14 4t17 5q18 6 35.5 12t34.5 12q16 5 30 8t27 5l2 -4q4 -11 6 -20t4 -16q0 -4 2 -8q0 -1 0.5 -1.5l0.5 -0.5l-1 2q1 -1 1 -2v0q5 -20 8.5 -36.5t6.5 -31.5 q3 -11 5.5 -21t4.5 -19v1l10.5 -48t3.5 -18q16 -43 83 -43q60 0 60 61zM499 855q34 3 34 28q0 10 -6 19l1 -2q-7 13 -15.5 31t-17.5 37.5t-17.5 39.5t-14.5 39v-1q-5 14 -10.5 20.5t-13.5 13.5l-5 5q-10 5 -13.5 6t-6.5 3q-14 4 -24 9q-5 2 -10 3t-10 1q-10 0 -18.5 -4.5 t-16.5 -15.5l1 2q-17 -18 -34.5 -39t-33.5 -42t-30 -40t-23 -33v1q-8 -11 -8 -22q0 -19 15 -32q15 -14 29 -22q4 -4 5 -4q4 -3 11 -5l-4 1q8 -4 22 -4q9 2 14.5 7t9.5 10q14 18 29 38t34 42q3 -7 5.5 -12.5t5.5 -11.5q11 -26 19 -40q22 -26 47 -28q4 -1 8 -1h10q8 0 16 1z M360 422h1l-45 -10l3 1h-15q2 7 10 29t20 60q6 17 11.5 31t10.5 24q2 -9 4.5 -22t6.5 -30q5 -21 8 -37t5 -28q0 -4 2 -10q-4 -2 -9 -4t-13 -4z" />
<glyph unicode="&#xe3;" d="M619 82q0 17 -2 34t-8 37q-4 11 -5 19q-4 11 -7 22l-6 22v-1q-3 12 -6.5 25.5t-6 27t-5 25t-3.5 18.5q-1 1 -1 4q5 7 7.5 10t7.5 7l7 8q12 21 12 48q0 11 -2 16q-7 16 -18 25t-27 14l2 -1q-10 5 -16 8.5t-9 5.5q-3 13 -7 28t-8 33l-46 180l-3 11q-8 30 -12 46.5t-6 21.5 q-23 50 -72 50q-12 0 -29 -7h1q-11 -3 -17 -8.5t-11 -11.5q-4 -8 -8 -15t-7 -12l1 1q-3 -5 -5.5 -10l-4.5 -9q-23 -40 -40 -76.5t-30 -71.5q-18 -49 -34 -89.5t-31 -75.5q-21 -51 -37.5 -96t-27.5 -82v1q-5 -11 -8 -21t-7 -20q-4 -11 -7 -21t-7 -20q-23 -55 -23 -86 q0 -33 27 -52l-2 1q20 -17 49 -17q36 0 50 24q15 28 19 46v-1l29 85q5 19 8.5 28t5.5 11q4 11 22 19l-2 -1l3 0.5t8 1.5q6 2 14 4t17 5q18 6 35.5 12t34.5 12q29 10 57 13l2 -4q4 -11 6 -20t4 -16q0 -4 2 -8q0 -1 0.5 -1.5l0.5 -0.5l-1 2q1 -1 1 -2v0q5 -20 8.5 -36.5 t6.5 -30.5q3 -11 5.5 -21.5t4.5 -18.5v1l10.5 -48t3.5 -18q16 -43 83 -43q60 0 60 60zM432 852q35 0 75 41v-1q42 41 42 77q0 23 -22 39q-12 9 -31 9q-20 0 -39 -19q-2 -2 -4.5 -5t-4.5 -5l1 1q-4 -6 -9.5 -13.5t-2.5 -8.5q-8 1 -16.5 6.5t-17.5 10.5h1q-14 10 -28 16v-1 q-16 7 -30 11t-28 4q-13 0 -31.5 -8.5t-36.5 -20.5t-33 -26.5t-20 -26.5q-7 -15 -7 -32q0 -47 47 -47q25 0 40 15l-8 -4q4 2 8.5 5.5t8.5 7.5q5 5 11 11.5t8 6.5q11 0 28 -5.5t25 -12.5q24 -25 74 -25zM360 421h1l-45 -11l3 1h-15q2 8 10 30t20 60q6 17 11.5 30.5t10.5 23.5 q2 -9 4.5 -21.5t6.5 -29.5q5 -21 8 -37t5 -28q0 -6 2 -10q-4 -2 -9 -4t-13 -4z" />
<glyph unicode="&#xe4;" d="M619 82q0 17 -2 34t-8 37q-4 11 -5 19q-4 11 -7 22l-6 22v-1q-3 12 -6.5 25.5t-6 27t-5 25t-3.5 18.5q-1 1 -1 4q5 7 7.5 10t7.5 7l7 8q12 21 12 48q0 11 -2 16q-7 16 -18 25t-27 14l2 -1q-10 5 -16 8.5t-9 5.5q-3 13 -7 28t-8 33l-46 180l-3 11q-8 30 -12 46.5t-6 20.5 q-23 50 -72 50q-6 0 -13 -1t-16 -5h1q-11 -3 -17 -8.5t-11 -11.5q-4 -8 -8 -15t-7 -12l1 1q-3 -5 -5.5 -10l-4.5 -9q-23 -40 -40 -77t-30 -71q-18 -49 -34 -89.5t-31 -75.5q-21 -51 -37.5 -96t-27.5 -82v1q-5 -11 -8 -21t-7 -20q-4 -11 -7 -21t-7 -21v1q-23 -55 -23 -86 q0 -33 27 -52l-2 1q20 -17 49 -17q36 0 50 24q15 28 19 46v-1l29 85q5 18 8.5 27.5t5.5 11.5q4 11 22 19l-2 -1l3 0.5t8 1.5q6 2 14 4t17 5q18 6 35.5 12t34.5 12q16 5 30 8t27 5l2 -4q4 -11 6 -20t4 -16q0 -4 2 -8q0 -1 0.5 -1.5l0.5 -0.5l-1 2q1 -1 1 -2v0 q5 -20 8.5 -36.5t6.5 -30.5q3 -11 5.5 -21.5t4.5 -18.5v1l10.5 -48t3.5 -18q16 -43 83 -43q60 0 60 60zM386 931v-8q0 -38 19.5 -60.5t46.5 -22.5h3q15 0 26.5 7t20 17t13 21.5t6.5 19.5v3q1 5 1.5 9.5t0.5 12.5q0 22 -11.5 43t-35.5 32q-8 4 -13.5 5t-11.5 1q-29 0 -46 -24 t-19 -56zM222 932v-7q0 -38 19.5 -61t47.5 -23h2q15 0 26 6.5t19.5 16.5t13.5 21t7 20q4 9 4 25q0 23 -11.5 44t-36.5 32h1q-14 6 -25 6q-29 0 -46.5 -24.5t-20.5 -55.5zM360 421h1l-45 -11l3 1h-15q2 8 10 30t20 60q6 17 11.5 30.5t10.5 23.5q2 -9 4.5 -21.5t6.5 -30.5 q5 -20 8 -36.5l5 -27.5q0 -5 2 -11q-4 -1 -9 -3t-13 -4z" />
<glyph unicode="&#xe5;" d="M467 1081q-12 6 -28.5 11.5t-35.5 7.5h-10q-13 0 -28.5 -3.5t-26.5 -10.5q-20 -13 -34.5 -31t-25 -38t-15.5 -41.5t-5 -41.5q0 -17 3.5 -32t11.5 -29l-1 1q5 -11 16.5 -20t22.5 -14h-1q12 -7 26.5 -10t27.5 -4q-4 -1 -14 -5h1q-11 -3 -17 -8t-11 -12q-4 -8 -8 -14.5 t-7 -12.5l1 1q-3 -5 -5.5 -9.5t-4.5 -8.5q-23 -41 -40 -77.5t-30 -71.5q-18 -49 -34 -90t-31 -76q-21 -51 -37.5 -96t-27.5 -82v1q-5 -11 -8 -21t-7 -21q-4 -10 -7 -20.5t-7 -20.5v1q-23 -57 -23 -87q0 -33 27 -52l-2 1q20 -17 49 -17q36 0 50 24q14 27 19 46v-1l29 86 q5 18 8.5 27.5t5.5 11.5q4 11 22 19l-2 -1l3 0.5t8 1.5q6 2 14 4t17 4q18 7 35.5 13t34.5 12q16 5 30 8t27 5l2 -4q4 -11 6 -20t4 -16q1 -2 1.5 -5.5t1.5 -4.5q5 -20 8.5 -36.5t6.5 -31.5q3 -11 5.5 -21.5t4.5 -18.5v1l10.5 -48t3.5 -18q16 -43 83 -43q60 0 60 61 q0 16 -2 33t-8 37q-2 5 -3 10t-2 9q-7 22 -13 45v-1q-3 12 -6.5 25.5t-6 27t-5 25t-3.5 18.5q-1 1 -1 4q5 7 7.5 10t7.5 7l7 8q12 21 12 48q0 11 -2 16q-13 30 -45 39l2 -1q-19 9 -25 15q-3 12 -7 27t-8 34l-46 180l-3 11q-8 30 -12 46.5t-6 21.5q-18 39 -52 48 q14 2 25.5 6.5t22.5 12.5q32 27 46.5 68.5t14.5 79.5q0 10 -1 20.5t-3 19.5q-5 15 -12.5 26t-23.5 21zM360 422h1l-45 -11l3 1h-15q2 8 10 30t20 60q6 17 11.5 31t10.5 24q2 -9 4.5 -22t6.5 -30q5 -21 8 -37t5 -28q0 -4 2 -10q-4 -2 -9 -4t-13 -4zM405 1004q0 -11 -1.5 -23 t-5.5 -23q-6 -23 -15 -38.5t-16 -18.5q-3 4 -3 18q0 21 8 42q6 18 16.5 36.5t17.5 21.5q-1 -1 -1 -6v-9zM369 900h-1h1z" />
<glyph unicode="&#xe6;" horiz-adv-x="1120" d="M1156 134v10q0 26 -15 50t-42 35q-23 -4 -43.5 -6t-38.5 -2h-12q-14 -2 -27 -2.5t-27 -1.5q-11 -1 -23 -1t-23 -1q-17 -3 -33.5 -6t-33.5 -7q-29 -6 -56.5 -11t-53.5 -8q-3 -1 -8 -1t-9.5 -0.5t-9.5 -0.5t-11 0.5t-14 1.5l3 -1q-18 4 -18 12l2 6q0 29 2 52t4 43q1 7 1 13 t1 12q2 19 6.5 32t27.5 13q3 1 8 1.5t7 1.5l-2 -1q9 2 17.5 3.5t18.5 2.5q9 2 17.5 3.5t17.5 3.5q21 5 42.5 8.5t41.5 3.5q5 0 8.5 -0.5t8.5 -0.5q17 0 35.5 -0.5t36.5 -2.5h4q22 0 42.5 11.5t21.5 37.5l-1 -1q2 5 2 8v7q0 24 -13 41.5t-34 25.5q-14 4 -23.5 6t-18.5 2l2 -1 q-20 5 -40 6.5t-38 1.5q-36 0 -69 -3.5t-66 -8.5h1q-11 -2 -21 -3.5t-21 -3.5v1q2 8 2 16v19q0 5 0.5 12.5t1.5 15.5l7 24q8 1 13 3.5t10 5.5q16 7 33.5 10t35.5 5q26 5 66 7q24 5 45 5.5t41 0.5h10q26 0 52.5 2.5t59.5 15.5q15 24 15 45q0 15 -5.5 30t-14.5 29t-21 25.5 t-26 18.5l1 -1q-19 10 -41 10q-7 0 -12 -0.5t-10 -1.5q-7 -2 -12.5 -2.5t-11.5 -0.5q-15 0 -28 -3q-33 -2 -64.5 -7.5t-66.5 -13.5h1q-20 -5 -39.5 -8t-38.5 -5l-4 -2q-9 47 -60 47q-16 -4 -29 -9t-24.5 -13t-23 -19t-25.5 -26q-33 -38 -62.5 -73.5t-55.5 -72.5 q-35 -49 -65 -89t-57 -75q-37 -50 -69 -93.5t-55 -81.5q-8 -11 -14.5 -20.5t-13.5 -19.5q-8 -11 -14.5 -21t-13.5 -20q-41 -55 -52 -84q-3 -12 -3 -21q0 -23 15 -35q17 -17 48 -17q33 0 53 21q13 13 19.5 22.5t11.5 17.5q1 2 2 2.5t2 2.5l-2 -2l59 85q21 32 29 39 q11 14 32 21h-2q3 1 6 1t7 1q6 2 14.5 4t18.5 5q21 6 41 12l40 12q33 9 60 12v-24q3 -12 3 -23q0 -10 -1 -22.5t-3 -25.5q-2 -14 -3.5 -28.5t-1.5 -29.5q0 -32 12 -60.5t47 -48.5q4 -2 18.5 -3t27.5 -2q5 0 8 -1q10 -1 20 -1.5t19 -0.5q30 0 57 6q70 16 138.5 27.5 t138.5 11.5h21q25 0 45 3h-1q4 0 13 0.5t16.5 1t10 1t-6.5 0.5q27 6 48 24.5t24 45.5zM477 416l1 1l-49 -10h-4q8 11 22 32t36 53l-1 -1q12 16 22.5 29.5t18.5 24.5q0 -9 -1 -19t-3 -21q-2 -16 -3 -29t-3 -24q-2 -9 -3 -14t-1 -11q-6 -3 -13.5 -6t-18.5 -5zM416 393v1h1z " />
<glyph unicode="&#xe7;" horiz-adv-x="635" d="M109 -21q0 -16 11 -18.5t31 -2.5h55q2 0 5.5 0.5t6.5 0.5q7 1 15 1h18h23q12 0 19 -2q-21 -14 -47 -17t-51 -4q-30 -1 -54 -5.5t-37 -27.5q-2 -3 -3 -6.5t-1 -8.5q0 -11 9 -19.5t23.5 -14t32.5 -8.5t37 -3q33 0 70.5 7t69 20t52.5 32.5t21 44.5q-3 32 -15.5 55t-43.5 34 q11 2 23.5 5.5t29.5 8.5q16 6 28 12t25 15q206 111 206 193q0 32 -19 51.5t-51 19.5q-16 0 -31 -6t-30 -17h1q-19 -14 -28 -22v1q-16 -14 -31.5 -26t-29.5 -21q-33 -21 -56 -35t-36 -19q-45 -24 -86 -24t-62 25h1q-20 26 -20 69q0 41 21 86l3 4.5t3 6.5q5 10 15.5 29 t27.5 49q43 82 93 141q67 82 115 82q9 0 12 -12q1 -6 2.5 -13.5t5.5 -18.5q2 -5 2.5 -11t2.5 -11q7 -20 19.5 -30t29.5 -10q61 0 61 98q0 37 -5 64.5t-13 47.5q-30 59 -102 59q-61 0 -111 -34h1q-12 -8 -25 -19.5t-30 -28.5q-14 -13 -26.5 -26t-22.5 -24q-50 -60 -81 -104 t-48 -73q-17 -34 -30.5 -60t-22.5 -44l1 1q-9 -17 -15.5 -35.5t-11.5 -41.5q-10 -43 -10 -80q0 -68 17 -105v1q18 -44 70 -85q8 -7 16.5 -12.5t18.5 -10.5l-37 -28l-5 -3q-14 -7 -18 -12.5t-4 -24.5z" />
<glyph unicode="&#xe8;" horiz-adv-x="667" d="M697 147v9q0 27 -14 51t-41 35q-23 -4 -43 -5.5t-37 -1.5h-12q-13 -2 -25.5 -2.5t-26.5 -1.5q-11 -1 -23 -1q-11 0 -23 -1q-16 -3 -32 -6.5t-32 -7.5q-28 -5 -55 -10.5t-53 -8.5q-3 -1 -7 -1q-5 0 -10 -0.5t-9 -0.5q-5 0 -11 0.5t-14 1.5l3 -1q-18 5 -18 13l1 1 q2 5 2.5 8.5t0.5 8.5v17q0 17 1.5 34t3.5 34l3 35q0 10 3.5 20.5t13.5 12.5q11 1 18 2l14 2q8 2 15 3t16 3q8 2 16.5 3.5t16.5 3.5q21 5 41.5 8.5t40.5 3.5q5 0 9 -0.5t8 -0.5q17 0 35 -0.5t35 -2.5h5q21 0 41 12t21 38l-1 -1q2 5 2 8v7q0 24 -13 42t-33 26q-13 4 -22.5 6 t-18.5 2l2 -1q-20 5 -39.5 7t-36.5 2q-34 0 -66.5 -4t-64.5 -9h1q-11 -2 -20.5 -3.5t-20.5 -3.5v7q2 4 2 7v7q0 5 -1 8q0 9 0.5 17.5t1.5 17.5l2 7l1 12v5q8 1 14 3.5t12 6.5q16 8 33 10.5t34 4.5q14 3 30.5 4.5t34.5 2.5q23 5 43.5 6t40.5 1h9q26 0 52 2.5t58 15.5 q15 24 15 46q0 15 -5 30.5t-14 29.5t-21 25.5t-26 18.5l1 -1q-17 10 -40 10q-6 0 -11 -0.5t-10 -1.5q-7 -2 -12.5 -2.5t-11.5 -0.5q-15 0 -27 -3q-32 -2 -63 -7.5t-65 -13.5h1q-19 -5 -36.5 -8t-36.5 -6q-8 -3 -17 -5t-17 -4l1 1q-11 -2 -21.5 -5.5t-21.5 -7.5h-2 q-16 0 -32 -4.5t-28.5 -13.5t-20.5 -22.5t-8 -31.5v-14q1 -11 1.5 -21.5t0.5 -22.5v-122q1 -7 1 -13v-11v-27q0 -23 -3 -48q-2 -29 -5.5 -56.5t-8.5 -56.5v1q-5 -29 -8 -57t-6 -57v2q-3 -14 -3 -31q0 -26 7.5 -50t22.5 -43.5t37 -32t51 -14.5h-1q9 -1 19 -1.5t19 -0.5 q29 0 55 6q69 16 135.5 27.5t135.5 11.5h20q24 0 45 3h-1q4 0 12.5 0.5t15.5 1t9.5 1t-5.5 0.5q26 7 46.5 25.5t22.5 46.5zM456 904q0 46 -57 150l1 -1l-37 72q-36 59 -74 59q-28 0 -48 -20.5t-20 -49.5q0 -8 2 -18t9 -22l24.5 -42t18.5 -31q5 -9 10 -16l-1 1q3 -8 6 -11 q1 -9 5 -14q1 -3 3 -6.5t7 -11.5l-1 1q14 -28 24.5 -45.5t17.5 -26.5q23 -26 54 -26q56 0 56 58z" />
<glyph unicode="&#xe9;" horiz-adv-x="667" d="M697 147v9q0 27 -14 51t-41 35q-23 -3 -43 -5t-37 -2h-12q-13 -2 -25.5 -2.5t-26.5 -1.5q-11 -1 -23 -1q-11 0 -23 -1q-16 -3 -32 -6.5t-32 -7.5q-28 -5 -55 -10.5t-53 -8.5h2q-2 0 -4.5 -0.5t-4.5 -0.5q-5 0 -10 -0.5t-9 -0.5q-5 0 -11 0.5t-14 1.5l3 -1q-18 5 -18 13v0 q0 1 1 1q2 5 2.5 8.5t0.5 8.5v17q0 17 1.5 34t3.5 34l3 35q0 10 3.5 20.5t13.5 12.5q11 1 18 2l14 2q8 2 15 3t16 3q8 2 16.5 3.5t16.5 3.5q21 5 41.5 8.5t40.5 3.5q5 0 9 -0.5t8 -0.5q17 0 35 -0.5t35 -2.5h5q21 0 41 12t21 38l-1 -1q2 5 2 8v7q0 24 -13 42t-33 26 q-13 4 -22.5 6t-18.5 2l2 -1q-20 5 -39.5 7t-36.5 2q-34 0 -66.5 -4t-64.5 -9h1q-11 -2 -20.5 -3.5t-20.5 -3.5v7q2 4 2 7v7q0 5 -1 8q0 9 0.5 17.5t1.5 17.5l2 7l1 13v4q8 1 14 3.5t12 6.5q16 8 33 10.5t34 4.5q14 3 30.5 4.5t34.5 2.5q23 5 43.5 6t40.5 1h9q26 0 52 2.5 t58 15.5q15 24 15 46q0 15 -5 30.5t-14 29.5t-21 25.5t-26 18.5l1 -1q-17 10 -40 10q-6 0 -11 -0.5t-10 -1.5q-7 -2 -12.5 -2.5t-11.5 -0.5q-15 0 -27 -3h3q-33 -2 -64.5 -7t-66.5 -14h1q-19 -5 -36.5 -8t-36.5 -6q-8 -2 -17 -4.5t-17 -4.5l1 1q-11 -2 -21.5 -5.5 t-21.5 -7.5h-2q-16 0 -32 -4.5t-28.5 -13.5t-20.5 -22.5t-8 -31.5v-14q1 -11 1.5 -21.5t0.5 -22.5v-122q1 -7 1 -13v-11v-26q0 -24 -3 -49q-2 -29 -5.5 -56.5t-8.5 -56.5v1q-5 -29 -8 -57t-6 -57v2q-3 -14 -3 -31q0 -26 7.5 -50t22.5 -43.5t37 -32t51 -14.5h-1q9 -1 19 -1.5 t19 -0.5q29 0 55 6q69 16 135.5 27.5t135.5 11.5h20q24 0 45 3h-1q4 0 12.5 0.5t15.5 1t9.5 1t-5.5 0.5q26 7 46.5 25.5t22.5 46.5zM285 906q0 -58 56 -58q31 0 54 26q7 9 17.5 26t23.5 42q1 5 3.5 10.5t4.5 9.5q2 2 3.5 6t4.5 10l-1 -2q1 2 2.5 4.5t3.5 7.5l-1 -1 q2 4 4.5 8t4.5 9q8 12 19 30t25 42q7 12 9 22t2 18q0 29 -20 49.5t-48 20.5q-40 0 -75 -59l-36 -72l1 1q-57 -104 -57 -150z" />
<glyph unicode="&#xea;" horiz-adv-x="667" d="M697 146v10q0 27 -14 51t-41 35q-23 -4 -43 -6t-37 -2h-12q-13 -2 -25.5 -2.5t-26.5 -1.5q-11 -1 -23 -1q-11 0 -23 -1q-16 -2 -32 -5.5t-32 -7.5q-28 -6 -55 -11.5t-53 -7.5h2q-2 0 -4.5 -0.5t-4.5 -0.5q-5 0 -10 -0.5t-9 -0.5q-5 0 -11 0.5t-14 1.5l3 -1q-18 5 -18 12 v0q0 1 1 2q2 5 2.5 8.5t0.5 8.5v17q0 16 1.5 33t3.5 34l3 35q0 11 3.5 21t13.5 12q11 1 18 2t14 3q8 2 15 3t16 3l33 6q21 5 41.5 8.5t40.5 3.5q5 0 9 -0.5t8 -0.5q17 0 35 -0.5t35 -2.5h5q21 0 41 12t21 38l-1 -1q2 5 2 8v7q0 25 -13 42.5t-33 25.5q-13 4 -22.5 6t-18.5 2 l2 -1q-20 5 -39.5 7t-36.5 2q-34 0 -66.5 -4t-64.5 -9h1q-11 -2 -20.5 -3.5t-20.5 -3.5v7q2 4 2 7v7q0 6 -1 8q0 9 0.5 17.5t1.5 17.5l2 7l1 12v4l1 1q8 1 13.5 3.5t11.5 6.5q16 8 33 10.5t34 4.5q14 3 30.5 4.5t34.5 2.5q23 5 43.5 6t40.5 1h9q26 0 52 2.5t58 15.5 q15 24 15 46q0 29 -19 59.5t-47 44.5l1 -1q-9 5 -19 7t-21 2q-6 0 -11 -0.5t-10 -0.5q-7 -2 -12.5 -2.5t-11.5 -0.5q-15 0 -27 -3q-32 -2 -63 -7.5t-65 -13.5h1q-19 -5 -36.5 -8t-36.5 -6q-8 -3 -17 -5.5t-17 -4.5l1 1q-20 -4 -43 -12h-2q-16 0 -32 -4.5t-28.5 -14 t-20.5 -23t-8 -31.5v-13q1 -12 1.5 -22t0.5 -23v-121q1 -7 1 -13v-11v-26q0 -24 -3 -49q-2 -28 -5.5 -55.5t-8.5 -56.5v1q-5 -29 -8 -57.5t-6 -56.5v2q-3 -14 -3 -31q0 -26 7.5 -50t22.5 -43.5t37 -32t51 -14.5h-1q9 -1 19 -1.5t19 -0.5q29 0 55 6q69 16 135.5 27.5 t135.5 11.5h20q24 0 45 3h-1q4 0 12.5 0.5t15.5 1t9.5 1t-5.5 0.5q26 7 46.5 25.5t22.5 45.5zM505 875q34 3 34 28q0 10 -6 18l1 -2q-14 28 -33 69t-32 79v-1q-5 14 -10.5 20.5t-13.5 13.5l-5 5q-10 5 -14 6t-6 3q-14 4 -24 9q-9 4 -21 4q-10 0 -18.5 -4.5t-16.5 -15.5l1 2 q-18 -18 -35.5 -39t-33.5 -42t-30 -40t-23 -33v1q-8 -12 -8 -22q0 -19 15 -32q8 -8 15 -12.5t15 -9.5l4 -4q2 -2 6 -3t6 -2l-4 1q8 -4 22 -4q9 2 14 7l10 10q14 18 29.5 38t33.5 42q3 -7 6 -13t5 -11q6 -12 10.5 -22t8.5 -18q22 -26 48 -28q4 -1 8 -1h10q8 0 16 1z" />
<glyph unicode="&#xeb;" horiz-adv-x="667" d="M697 146v10q0 26 -14 50t-41 35q-23 -4 -43 -6t-37 -2h-12q-13 -2 -26 -2q-12 0 -26 -1q-11 -1 -23 -1q-11 0 -23 -1q-16 -3 -32 -6.5t-32 -7.5q-28 -6 -55 -11t-53 -8q-3 -1 -7 -1q-5 0 -10 -0.5t-9 -0.5q-5 0 -11 0.5t-14 1.5l3 -1q-18 5 -18 12v0q0 1 1 2q2 5 2.5 8.5 t0.5 8.5v17q0 16 1.5 33t3.5 34l3 35q0 9 3.5 20t12.5 13q11 1 18.5 2t14.5 2q8 2 15 3t16 3q8 2 16.5 3.5t16.5 3.5q21 5 41.5 8t40.5 3q5 0 9 -0.5t8 -0.5h35t35 -2h5q21 0 41 12t21 38l-1 -1q2 4 2 7v7q0 25 -13 42.5t-33 25.5q-13 4 -22.5 6t-18.5 2l2 -1q-20 5 -39.5 7 t-36.5 2q-34 0 -66.5 -4t-64.5 -9q-11 -2 -20 -3.5t-20 -3.5v7q2 4 2 7v7q0 5 -1 8q0 9 0.5 17t1.5 18l2 7l1 12v4l1 1q8 1 13.5 3.5t11.5 6.5q16 7 33 10t34 5q14 3 30.5 4.5t34.5 2.5q23 5 43.5 5.5t40.5 0.5h9q26 0 52 2.5t58 16.5q15 22 15 45q0 29 -19 59.5t-47 44.5 l1 -1q-18 9 -40 9q-6 0 -11 -0.5t-10 -1.5q-7 -2 -12.5 -2.5t-11.5 -0.5h-15q-6 0 -12 -2q-62 -4 -128 -22h1q-19 -4 -36.5 -7t-36.5 -6q-8 -3 -17 -5.5t-17 -4.5l1 1q-20 -4 -43 -12h-2q-16 0 -32 -4.5t-28.5 -13.5t-20.5 -22.5t-8 -31.5v-14q1 -11 1.5 -21.5t0.5 -22.5 v-121q1 -7 1 -13v-11v-26q0 -24 -3 -48q-2 -29 -5.5 -56.5t-8.5 -56.5v1q-5 -28 -8 -56.5t-6 -56.5v2q-3 -14 -3 -31q0 -25 7.5 -49t22.5 -43.5t37 -32t51 -14.5h-1q9 -1 19 -1.5t19 -0.5q29 0 55 6q69 16 135.5 27.5t135.5 11.5h20q24 0 45 3h-1q4 0 12.5 0.5t15.5 1t9.5 1 t-5.5 0.5q26 6 46.5 24.5t22.5 46.5zM375 935v-8q0 -38 19.5 -60.5t47.5 -22.5h3q15 0 26.5 7t20 17t13.5 21.5t7 19.5v3q1 5 1.5 9.5t0.5 12.5q0 22 -11.5 43t-35.5 32q-8 4 -14 5t-12 1q-29 0 -46.5 -24.5t-19.5 -55.5zM210 936v-7q0 -38 20 -61t47 -23h3q15 0 26 6.5 t19.5 16.5t13.5 21t7 20q4 9 4 25q0 23 -11.5 44t-36.5 32h1q-14 6 -26 6q-29 0 -46.5 -24.5t-20.5 -55.5z" />
<glyph unicode="&#xec;" horiz-adv-x="637" d="M664 736q0 31 -39 77l-69 6q-22 -2 -42 -3t-36 -3q-71 -5 -82 -7h1q-13 -2 -24 -3l-22 -2l-34 -3q-14 -1 -27.5 -2.5t-24.5 -4.5l1 1q-13 -2 -27.5 -4.5t-28.5 -5.5q-6 -2 -12.5 -3t-11.5 -3l1 1q-59 -9 -88.5 -27.5t-29.5 -54.5q0 -78 99 -78q6 0 33 3q22 3 39 6t28 5 h-3q2 0 3 0.5t3 0.5q4 1 9 1h10t22 2v-32q0 -35 -3 -75.5t-8 -87.5v1l-20 -166v1q0 4 -0.5 1t-1 -8.5t-1 -12t-0.5 -10.5q-2 -12 -3 -27q-2 -14 -6 -22.5t-9 -13.5l2 1q-5 -3 -13 -6t-21 -6q-4 -1 -14.5 -3t-30.5 -5q-14 -3 -25.5 -5.5t-23.5 -5.5l1 1q-20 -3 -32.5 -6 t-23.5 -8q-36 -17 -36 -58q0 -3 -0.5 -6t-0.5 -5q0 -25 10.5 -41t30.5 -21q4 0 6 -1h-2l24.5 -3.5t19.5 -1.5q17 0 34.5 2t49.5 8q2 1 10 3l-1 -1q29 5 55 9.5t49 8.5q82 13 129 20.5t55 8.5q42 5 67.5 10t38.5 8h-1q5 1 11 1.5t8 0.5q23 40 23 69q0 46 -51 77 q-29 -4 -52 -7.5t-34 -5.5q-6 -1 -11 -1.5t-3 -0.5q-6 -1 -15 -1.5t-20 -0.5q-29 0 -43 -5q-1 0 -1 5v5l31 303q1 5 1 12v6q0 84 13 113l32.5 5t48.5 9l8 2t9 2q92 0 92 68zM482 891q0 46 -58 150l1 -1l-36 72q-37 59 -75 59q-27 0 -47 -20.5t-20 -49.5q0 -8 2 -18t9 -23 l24.5 -42t18.5 -30q2 -5 4.5 -9t5.5 -8l-1 1q2 -3 2.5 -5.5t2.5 -4.5q3 -9 6 -15q1 -3 3 -6t6 -11l-1 1q14 -28 24.5 -45.5t18.5 -27.5q23 -25 53 -25q57 0 57 58z" />
<glyph unicode="&#xed;" horiz-adv-x="637" d="M664 737q0 30 -39 76l-69 6q-22 -2 -42 -3t-36 -3q-35 -2 -55 -3t-27 -3h1q-13 -2 -24 -3l-22 -2l-34 -3h1q-14 -1 -27.5 -2.5t-25.5 -5.5l1 1q-13 -2 -27.5 -4.5t-28.5 -5.5q-6 -2 -12.5 -2.5t-11.5 -2.5l1 1q-59 -10 -88.5 -28t-29.5 -55q0 -78 99 -78q3 0 11 1t22 3 q22 3 39 5.5t28 4.5h-3q2 0 3 0.5t3 0.5q4 1 9 1h10t22 2v-32q0 -35 -3 -75.5t-8 -87.5v1l-20 -166v1q0 4 -0.5 1t-1 -8.5t-1 -12t-0.5 -10.5q-2 -12 -3 -27q-4 -26 -15 -35h2q-5 -3 -13 -6t-21 -6q-4 -1 -14.5 -3t-30.5 -5q-14 -3 -25.5 -5.5t-23.5 -4.5h1q-20 -3 -32.5 -6 t-23.5 -8q-36 -17 -36 -58q0 -3 -0.5 -6t-0.5 -5q0 -25 10.5 -41t30.5 -21q4 0 6 -1h-2l24.5 -3.5t19.5 -1.5q17 0 34.5 2t49.5 8q2 1 10 3l-1 -1q29 5 55 9.5t49 8.5q82 13 129 20.5t55 8.5q42 5 67.5 10t38.5 8h-1q5 1 11 1.5t8 0.5q23 40 23 69q0 46 -51 77 q-29 -4 -52 -7.5t-34 -5.5q-6 -1 -11 -1t-3 0q-6 -1 -15 -1.5t-20 -0.5q-27 0 -43 -6q-1 0 -1 6v4l31 303q1 5 1 12v7q0 43 3.5 71t9.5 42l32.5 5t48.5 8q4 1 7.5 2t8.5 2q93 0 93 69zM301 915q0 -58 57 -58q30 0 53 25q17 21 41 69q1 5 3.5 10l4.5 9q2 3 3.5 7t4.5 10 l-1 -2q1 2 2.5 4t3.5 7l-1 -1q2 4 4.5 8.5t4.5 9.5q17 24 44 71q7 13 9 23t2 18q0 29 -20 49.5t-48 20.5q-39 0 -75 -59l-35 -72l1 1q-58 -104 -58 -150z" />
<glyph unicode="&#xee;" horiz-adv-x="637" d="M664 735q0 31 -39 77l-69 5q-22 -2 -42 -3t-36 -2h1q-35 -2 -55.5 -3.5t-27.5 -3.5h1q-13 -2 -24 -3l-22 -2l-34 -3q-14 -1 -27.5 -2.5t-24.5 -5.5l1 1q-13 -2 -27.5 -4t-28.5 -5q-6 -2 -12.5 -3t-11.5 -3l1 1q-59 -10 -88.5 -28t-29.5 -54q0 -78 99 -78q6 0 33 3 q22 3 39 6t28 5h-3q2 0 3 0.5t3 0.5q4 1 9 1h10t22 2v-32q0 -35 -3 -75.5t-8 -87.5v1l-20 -165v1q0 3 -0.5 0.5t-1 -8t-1 -12t-0.5 -10.5q-1 -7 -1.5 -13t-1.5 -14q-2 -14 -6 -22.5t-9 -13.5l2 1q-11 -8 -34 -12q-4 -1 -14.5 -3t-30.5 -5q-14 -3 -25.5 -5.5t-23.5 -5.5l1 1 l-32.5 -6.5t-23.5 -7.5q-36 -17 -36 -58q0 -3 -0.5 -6t-0.5 -5q0 -25 10.5 -41t30.5 -21q4 0 6 -1h-2l24.5 -3.5t19.5 -1.5q17 0 34.5 2.5t49.5 7.5q2 1 10 3l-1 -1q29 5 55 9.5t49 8.5q82 13 129 20.5t55 8.5q42 5 67.5 10t38.5 8h-1q5 1 11 1.5t8 0.5q23 40 23 68 q0 46 -51 78q-29 -4 -52 -7.5t-34 -5.5q-6 -1 -11 -1.5t-3 -0.5q-6 -1 -15 -1.5t-20 -0.5q-27 0 -43 -6q-1 0 -1 6v5l31 302q1 5 1 12v6q0 84 13 113l32.5 5t48.5 9l8 2t9 2q92 0 92 68zM523 864q34 3 34 28q0 9 -6 18l1 -2q-14 28 -33 69t-32 79v-1q-5 14 -10.5 20.5 t-13.5 13.5l-5 4q-10 5 -14 6.5t-7 3.5q-6 2 -12 4.5t-11 4.5q-9 4 -21 4q-10 0 -18 -4.5t-16 -16.5v2q-18 -18 -35.5 -39t-33.5 -42t-29.5 -40t-23.5 -32v1q-7 -13 -7 -22q0 -8 3.5 -17t11.5 -15q12 -14 29 -22q4 -4 5 -4q2 -2 5.5 -3t5.5 -2l-4 1q8 -4 22 -4q9 2 14.5 6.5 t9.5 9.5q14 18 29.5 38t33.5 42l6 -12t5 -12q6 -11 10.5 -21t8.5 -18q21 -26 48 -28q5 -1 18 -1q8 0 16 1z" />
<glyph unicode="&#xef;" horiz-adv-x="637" d="M664 733q0 30 -39 76l-69 6q-22 -2 -42 -3t-36 -3h1q-35 -2 -55.5 -3.5t-27.5 -3.5h1q-13 -2 -24 -2.5t-22 -1.5l-34 -3h1q-14 -1 -27.5 -2.5t-25.5 -5.5l1 1q-13 -2 -27.5 -4.5t-28.5 -5.5q-6 -2 -12.5 -2.5t-11.5 -2.5l1 1q-59 -10 -88.5 -28t-29.5 -54q0 -78 99 -78 q3 0 11 1t22 3q22 3 39 5.5t28 4.5h-3q2 0 3 0.5t3 0.5q4 1 9 1h10t22 2v-32q0 -35 -3 -75.5t-8 -86.5v1l-20 -165v1q0 4 -0.5 1t-1 -8.5t-1 -12t-0.5 -10.5q-2 -12 -3 -27q-4 -26 -15 -35l2 1q-10 -7 -34 -13q-4 -1 -14.5 -3t-30.5 -5q-14 -2 -25.5 -4.5t-23.5 -5.5l1 1 q-20 -4 -32.5 -7t-23.5 -8q-36 -16 -36 -57q0 -3 -0.5 -6t-0.5 -5q0 -25 10.5 -41t30.5 -21q4 0 6 -1h-2l24.5 -3.5t19.5 -1.5q17 0 34.5 2.5t49.5 7.5q2 1 10 3l-1 -1q29 5 55 9.5t49 8.5q82 13 129 20t55 8q42 5 67.5 10.5t38.5 8.5h-1q5 1 11 1.5t8 0.5q23 40 23 68 q0 46 -51 77q-29 -4 -52 -7.5t-34 -5.5q-6 -1 -11 -1.5t-3 -0.5q-6 0 -15 -0.5t-20 -0.5q-27 0 -43 -6q-1 0 -1 6v4l31 302q1 4 1 11v7q0 83 13 112l32.5 5t48.5 9q4 1 7.5 2t8.5 2q93 0 93 68zM403 946v-8q0 -38 19.5 -61t46.5 -23h3q15 0 27 7t20 17.5t13 22t7 19.5v3 q1 5 1.5 9.5t0.5 12.5q0 22 -11.5 43t-35.5 32q-8 4 -14 5t-12 1q-29 0 -46 -24.5t-19 -55.5zM238 947v-7q0 -38 19.5 -61.5t47.5 -23.5h3q14 0 25.5 7t20 16.5t13.5 21t7 20.5q3 10 3 25q0 23 -11.5 44t-36.5 32h1q-12 6 -25 6q-29 0 -46.5 -24.5t-20.5 -55.5z" />
<glyph unicode="&#xf0;" horiz-adv-x="663" d="M700 465q0 119 -28 168q-19 29 -36 50t-33 35q-20 18 -44 30.5t-49 23.5q-11 3 -21.5 6t-20.5 6q-13 4 -25 7t-25 8h1q-6 2 -16 4t-22 3q-22 3 -32 7q-17 5 -40.5 8.5t-56.5 3.5q-86 0 -86 -63v-16q0 -10 0.5 -19t1.5 -17q1 -7 1 -12v-6q0 -14 -1 -29.5t-3 -37.5 q-1 -16 -1 -28q0 -11 -1 -20q-1 -7 -1.5 -11t-0.5 -11q-1 -7 -1 -13t-1 -11h-68q-15 0 -34 -19q-17 -23 -17 -34q0 -50 25 -78t72 -30q-2 -27 -4 -49t-4 -42q-2 -17 -3.5 -32t-3.5 -28l-8 -63q-1 -13 -1.5 -20.5t-0.5 -9.5q0 -57 25 -80.5t81 -23.5q14 0 29.5 4.5t31.5 14.5 l9.5 5t17.5 8q6 3 12.5 6.5t11.5 7.5l-2 -1q39 17 66 29t46 23v-1q260 143 260 347zM503 473q0 61 -72 72q-3 2 -11 2h-14l-106 -10q1 5 1.5 10.5t2.5 10.5q2 8 3 16t2 14q0 3 1 8.5t1 6.5q2 6 2 9v7q2 10 2.5 13.5t0.5 4.5v2v3q0 2 0.5 4.5t0.5 4.5q1 2 1.5 4.5t1.5 4.5v1 h1q105 0 159 -30q66 -40 68 -139l-1 -3q-1 -4 -1.5 -9t-2.5 -13v-8v3q-6 -29 -9 -36q-23 -62 -95 -125q-61 -49 -139 -82q-26 -10 -32 -10q1 0 1 5q0 6 3 38v-1q1 5 1 11q0 7 1 13q2 23 3.5 39t1.5 27q4 11 4 12v3v1q0 2 1 4v2v-2v2q0 6 1 9q39 2 72 5t60 6q2 0 3.5 0.5 t3.5 0.5q23 0 32 4q22 7 37 38q4 12 6.5 23.5t3.5 22.5v1zM309 597q0 1 1 2zM316 650v-3v3z" />
<glyph unicode="&#xf1;" horiz-adv-x="642" d="M659 285v34q0 14 -0.5 30.5t-1 41.5t-1.5 69q0 15 -0.5 25.5t-1.5 15.5q0 8 -0.5 15.5t-0.5 14.5q-1 15 -1 27v22q-2 58 -6.5 99t-10.5 68q-11 36 -37 55q-30 27 -59 27q-32 0 -49 -19t-17 -51v-10l21 -265v-11q0 -24 -3 -85q-1 -29 -2 -49.5t-3 -32.5q-7 7 -23 30 t-44 64h1q-9 14 -18 26.5t-18 26.5q-12 18 -24.5 36.5t-25.5 36.5v-1q-17 24 -35.5 63.5t-40.5 93.5l1 -1q-16 41 -26.5 64t-18.5 35q-27 38 -79 38q-63 0 -72 -80q0 -4 -1 -9q0 -2 -0.5 -4.5t-0.5 -4.5v1q-3 -12 -3 -24v-81q0 -4 -3 -50l-4 -87q-3 -39 -3 -42q0 -14 3 -66 q2 -40 4.5 -72t5.5 -58q0 -20 0.5 -39t1.5 -39q-3 -26 -3 -45q0 -20 3 -36q9 -29 48 -53q20 -2 36.5 -2.5t22.5 -0.5q31 0 48 33l-1 -1q12 19 12 41v5q0 4 -2 9l1 -1l-8 101q-1 13 -1.5 20t-1 11.5t-1 8.5t-0.5 10v100q1 5 1 12v29q0 6 -1 8q3 -3 6 -6.5t7 -7.5q2 -2 2 -6 l-1 3q1 -5 3 -6l-1 -1q1 -2 1 -3t2 -3q0 -8 7 -9q2 -4 3 -4q15 -23 26.5 -40.5t19.5 -31.5q10 -13 18.5 -24t13.5 -16q7 -10 11.5 -18t9.5 -16l-1 1q4 -6 8.5 -13.5t9.5 -14.5q17 -23 41.5 -49t58.5 -55q84 -70 127 -70q34 0 52 33q9 18 15 116q2 37 3 65.5t1 48.5zM405 837 q36 0 76 41v-1q42 41 42 77q0 23 -22 39q-13 9 -31 9q-11 0 -20.5 -5t-19.5 -14q-1 -2 -3.5 -5t-4.5 -5l1 1q-5 -6 -10 -13.5t-2 -8.5q-8 1 -17 6.5t-18 10.5h1q-7 5 -14 9t-14 7l1 -1q-17 7 -31 11t-28 4q-13 0 -31.5 -8.5t-36.5 -20.5t-33 -26.5t-20 -26.5q-8 -18 -8 -32 q0 -46 48 -46q11 0 21.5 3t18.5 11l-8 -4q3 2 8 5.5t9 7.5q5 5 11 11.5t8 6.5q11 0 28.5 -5.5t24.5 -12.5q24 -25 74 -25zM258 409l-3 -2v3zM484 295q0 3 1 4q-1 -2 -1 -4z" />
<glyph unicode="&#xf2;" horiz-adv-x="803" d="M815 488q0 24 -11 71q-1 1 -2 7.5t-3 14.5q-1 5 -3.5 13t-5.5 18l1 -2q-5 23 -13 43t-19 39q-19 32 -42.5 58t-55.5 46q-68 45 -135 45q-4 0 -13 -1t-15 -2q-14 -3 -16 -3q-82 0 -207 -89q-43 -30 -84 -83.5t-85 -135.5q-14 -27 -23 -53.5t-14 -54.5q-5 -25 -6.5 -42 t-1.5 -26q-5 -20 -5 -37q0 -32 14 -83q25 -74 51 -92q8 -12 17.5 -20.5t21.5 -18.5q3 -2 56 -30q7 -3 13 -5t11 -4q12 -5 20.5 -8.5t16.5 -5.5v1q34 -9 57 -13t37 -4q47 0 85 5.5t67 17.5q11 6 21 11l18 9q6 4 12.5 6.5t11.5 5.5q26 11 46.5 24.5t37.5 27.5q34 30 61 70 t46 89h-1q21 49 30 96t9 95zM658 466q0 -79 -49 -153q-50 -77 -118 -104q-35 -18 -95 -18q-4 0 -14 1.5t-24 3.5l1 -1q-38 9 -64.5 20.5t-41.5 28.5q-35 35 -35 112q0 29 12.5 61.5t36.5 70.5q25 38 54 68.5t63 57.5q69 52 123 52q68 0 110 -63q41 -62 41 -137zM575 919 q0 46 -58 150l1 -1l-37 72q-37 59 -75 59q-28 0 -48.5 -20.5t-20.5 -49.5q0 -8 2 -18t10 -23q14 -23 24.5 -41.5t18.5 -30.5q2 -5 4.5 -9t5.5 -8l-1 1q4 -8 6 -10q2 -5 2.5 -8.5t2.5 -6.5q1 -3 3 -6t7 -11l-1 1q14 -28 24.5 -45.5t18.5 -27.5q23 -25 54 -25q57 0 57 58z" />
<glyph unicode="&#xf3;" horiz-adv-x="803" d="M815 488q0 24 -11 71q-1 1 -2 7.5t-3 14.5q-1 5 -3.5 13t-5.5 18l1 -2q-5 23 -13 43t-19 39q-19 32 -42.5 58t-55.5 46q-68 45 -135 45q-4 0 -13 -1t-15 -2q-14 -3 -16 -3q-82 0 -207 -89q-43 -31 -84 -84t-85 -135q-14 -27 -23 -53.5t-14 -54.5q-5 -25 -6.5 -42 t-1.5 -26q-5 -20 -5 -37q0 -32 14 -83q25 -74 51 -92q8 -12 17.5 -20.5t21.5 -18.5q3 -2 56 -30q7 -3 13 -5t11 -4q12 -5 20.5 -8.5t16.5 -5.5v1q34 -9 57 -13t37 -4q47 0 85 5.5t67 17.5q11 6 21 11l18 9q6 4 12.5 6.5t11.5 5.5q26 11 46.5 24.5t37.5 27.5q34 30 61 70 t46 89h-1q21 49 30 96t9 95zM658 466q0 -79 -49 -153q-50 -77 -118 -104q-35 -18 -95 -18q-4 0 -14 1.5t-24 3.5l1 -1q-38 9 -64.5 20.5t-41.5 28.5q-35 35 -35 112q0 29 12.5 61.5t36.5 70.5q25 38 54 68.5t63 57.5q69 52 123 52q68 0 110 -63q41 -62 41 -137zM375 916 q0 -58 57 -58q31 0 54 25q17 21 41 69q2 5 4.5 10.5t4.5 8.5q2 5 7 17v-2q1 2 6 11l-1 -1q2 4 4.5 8.5t4.5 9.5q8 11 19 29.5t25 41.5q8 13 10 23t2 18q0 29 -20.5 49.5t-48.5 20.5q-40 0 -76 -59l-36 -72l1 1q-58 -104 -58 -150z" />
<glyph unicode="&#xf4;" horiz-adv-x="803" d="M815 487q0 23 -11 70q-1 2 -2 8.5t-3 14.5q-1 4 -3.5 12.5t-5.5 17.5l1 -2q-5 23 -13 43t-19 39q-19 33 -42.5 59t-55.5 46q-66 44 -135 44q-4 0 -13 -1t-15 -2q-14 -3 -16 -3q-82 0 -207 -89q-43 -30 -84 -83t-85 -135q-14 -27 -23 -53.5t-14 -54.5q-5 -24 -6.5 -41.5 t-1.5 -26.5q-5 -20 -5 -37q0 -32 14 -83q25 -75 51 -91q8 -12 17.5 -20.5t21.5 -18.5q3 -2 56 -30q13 -6 24 -9q12 -5 20.5 -8.5t16.5 -5.5v1q34 -9 57 -13t37 -4q47 0 85 5.5t67 17.5q11 5 21 10.5t18 9.5q6 4 12.5 6.5t11.5 5.5q49 22 84 52q34 29 61 69t46 90l-1 -1 q21 50 30 96.5t9 94.5zM658 465q0 -79 -49 -153q-50 -77 -118 -104q-36 -17 -95 -17q-4 0 -14 1.5t-24 3.5l1 -1q-77 17 -106 49q-35 35 -35 112q0 29 12.5 61t36.5 70q25 38 54 68.5t63 56.5q67 52 123 52q68 0 110 -62q41 -62 41 -137zM628 872q34 3 34 28q0 8 -5 18v-2 q-14 28 -33 69t-32 79v-1q-5 14 -10.5 20.5t-14.5 13.5l-5 4q-10 5 -14 6.5t-6 3.5q-7 2 -13 4.5t-11 4.5q-9 4 -21 4q-10 0 -18.5 -4.5t-16.5 -16.5l1 2q-18 -18 -36 -38.5t-34.5 -41.5t-30 -40t-23.5 -33v1q-7 -13 -7 -22q0 -8 3.5 -16.5t11.5 -15.5q12 -14 29 -22 q4 -4 5 -4q2 -2 5.5 -3t5.5 -2l-3 1q7 -4 21 -4q10 2 15 6.5t10 9.5q14 19 29.5 39t34.5 42q3 -7 5.5 -13t5.5 -12q6 -11 10.5 -21t8.5 -18q22 -26 49 -28q3 -1 8 -1h10q8 0 16 1z" />
<glyph unicode="&#xf5;" horiz-adv-x="803" d="M815 485q0 23 -11 70q-1 2 -2 8t-3 14q-1 5 -3.5 13.5t-5.5 17.5l1 -2q-5 23 -13 43t-19 39q-19 32 -42.5 58t-55.5 46q-68 44 -135 44q-4 0 -13 -1t-15 -2q-14 -3 -16 -3q-82 0 -207 -88q-43 -31 -84 -84t-85 -134q-14 -27 -23 -53.5t-14 -53.5q-5 -25 -6.5 -42 t-1.5 -26q-5 -20 -5 -37q0 -32 14 -83q25 -73 51 -91q8 -11 17.5 -20t21.5 -18q2 -2 16 -9.5t40 -20.5q7 -3 13 -5.5t11 -4.5q12 -4 20.5 -7.5t16.5 -5.5v1q34 -9 57 -13t37 -4q47 0 85 5.5t67 17.5q11 5 21 10.5t18 9.5q6 4 12.5 6t11.5 5q49 23 84 52q34 30 61 69.5 t46 89.5l-1 -1q21 49 30 95.5t9 94.5zM658 463q0 -78 -49 -152q-49 -75 -118 -104q-36 -17 -95 -17q-4 0 -14 1.5t-24 3.5l1 -1q-77 17 -106 49q-35 35 -35 111q0 29 12.5 61t36.5 70q25 38 54 68t63 57q67 52 123 52q68 0 110 -63q41 -61 41 -136zM557 848q35 0 77 42v-1 q42 41 42 77q0 22 -22 39q-13 9 -32 9q-20 0 -40 -20q-1 -2 -3.5 -4.5l-4.5 -4.5l1 1q-5 -6 -10 -13.5t-3 -8.5q-8 1 -16.5 6t-18.5 11h1q-7 5 -14 8.5t-14 6.5l1 -1q-17 8 -31.5 12t-28.5 4q-13 0 -31.5 -8.5t-37 -20.5t-33.5 -26.5t-21 -26.5q-3 -9 -5 -17t-2 -16 q0 -46 48 -46q11 0 22 3.5t19 11.5l-9 -4q4 2 9 5t9 7q5 6 11.5 12.5t8.5 6.5q11 0 28 -5.5t25 -13.5q25 -25 75 -25z" />
<glyph unicode="&#xf6;" horiz-adv-x="803" d="M815 485q0 24 -11 71q-1 1 -2 7.5t-3 14.5q-1 4 -3.5 12.5t-5.5 17.5l1 -2q-5 23 -13 43t-19 39q-19 32 -42.5 58t-55.5 46q-66 44 -135 44q-4 0 -13 -1t-15 -2q-7 -2 -11 -2h-5q-82 0 -207 -89q-43 -30 -84 -83.5t-85 -134.5q-14 -27 -23 -53t-14 -54q-5 -25 -6.5 -42 t-1.5 -26q-5 -20 -5 -37q0 -32 14 -82q25 -74 51 -92q8 -11 17.5 -20t21.5 -18q2 -2 16 -9.5t40 -20.5q7 -3 13 -5.5t11 -4.5q12 -4 20.5 -7.5t16.5 -5.5v1q34 -9 57 -13t37 -4q47 0 85 5.5t67 17.5q11 5 21 10.5t18 9.5q6 4 12.5 6.5t11.5 4.5q49 23 84 52q34 30 61 70 t46 89l-1 -1q21 49 30 95.5t9 94.5zM658 463q0 -78 -49 -152q-49 -75 -118 -104q-36 -17 -95 -17q-4 0 -14 1.5t-24 3.5l1 -1q-38 9 -64.5 20.5t-41.5 28.5q-35 35 -35 112q0 29 12.5 60.5t36.5 69.5q25 38 54 68.5t63 56.5q67 52 123 52q68 0 110 -62q41 -62 41 -137z M515 948v-8q0 -38 19.5 -61t47.5 -23h3q15 0 27 7t20.5 17.5t13.5 22t7 19.5v3q1 5 1.5 9.5t0.5 12.5q0 22 -12 42.5t-36 32.5q-8 4 -14 5t-12 1q-29 0 -46.5 -24.5t-19.5 -55.5zM349 949v-7q0 -38 19.5 -61.5t47.5 -23.5h3q15 0 26.5 7t20 16.5t13.5 21t7 20.5q3 10 3 25 q0 23 -11.5 43.5t-36.5 32.5h1q-14 6 -26 6q-29 0 -46.5 -24.5t-20.5 -55.5z" />
<glyph unicode="&#xf7;" horiz-adv-x="465" d="M486 434q0 69 -72 69h-10q-4 0 -7 -1h2l-125 -10q-16 -1 -25 -1.5t-15 -1t-11 -1t-13 -1.5h-104q-15 0 -32 -17q-15 -15 -15 -32q0 -48 25.5 -74.5t73.5 -26.5h43q5 0 8.5 0.5t8 1t10.5 1t17 1.5h-1l86 6h73q42 0 62.5 22.5t20.5 64.5zM344 246q0 34 -33 57l1 -1 q-28 20 -57 20q-55 0 -73 -37q-7 -14 -9 -24.5t-2 -20.5q0 -38 20.5 -62.5t58.5 -24.5q36 0 64 29q30 28 30 64zM373 595q0 33 -33 56l1 -1q-28 20 -57 20q-55 0 -73 -37q-11 -25 -11 -45q0 -38 20.5 -62.5t59.5 -24.5q35 0 64 29t29 65z" />
<glyph unicode="&#xf8;" horiz-adv-x="803" d="M685 803q0 42 -17 68t-49 26q-13 0 -24 -4.5t-19 -15.5q-9 -13 -14.5 -23.5t-9.5 -21.5q-6 1 -12 1.5t-14 0.5q-4 0 -13 -1t-15 -1q-14 -3 -16 -3q-82 0 -207 -89q-43 -30 -84 -83t-85 -134q-14 -27 -23 -53t-14 -54q-5 -24 -6.5 -41t-1.5 -27q-5 -18 -5 -36 q0 -32 14 -83q13 -38 26 -60.5t25 -30.5q8 -11 17.5 -20t21.5 -18q2 -2 16 -9.5t38 -19.5l0.5 -0.5t1.5 -0.5q-1 -2 -0.5 -4t0.5 -4q0 -31 24 -65l-1 1q27 -43 54 -43q23 0 38 29q2 5 3.5 10.5t3.5 9.5q2 3 3 7t3 7l5 14q6 -1 11 -1h11q47 0 85 5.5t67 17.5q11 5 21 10.5 t18 9.5q6 4 12.5 6t11.5 5q49 23 84 52q69 60 107 158l-1 -1q21 50 30 96t9 94q0 24 -11 70q-1 2 -2 8t-3 14q-1 5 -3.5 13.5t-5.5 17.5l1 -2q-5 23 -13 43t-19 39q-16 25 -34.5 47t-41.5 41q1 6 1.5 13t0.5 15zM658 462q0 -77 -49 -151q-50 -77 -118 -104q-26 -14 -76 -17 q1 4 4 7q8 20 13 36t9 29v-1q1 3 3 12q11 26 23.5 53t27.5 59q7 15 14 30.5t15 31.5l-1 -3q1 2 1.5 5t2.5 5q41 75 80 157q3 -4 5.5 -7t5.5 -7v1q40 -60 40 -136zM253 243q-35 35 -35 111q0 29 12.5 60.5t36.5 69.5q25 38 54 68t63 57q21 17 41.5 27.5t40.5 17.5 q-21 -42 -42.5 -87.5t-45.5 -98.5q0 -2 -13.5 -33t-38.5 -91q-10 -24 -23 -53.5t-27 -63.5q-1 -1 -1 -3q-13 8 -21 19h-1z" />
<glyph unicode="&#xf9;" horiz-adv-x="703" d="M717 704q0 97 -70 97q-94 0 -94 -101v-23q0 -8 -6 -54q0 -9 -0.5 -13l-1.5 -12q-2 -20 -4.5 -55.5t-6.5 -89.5v1q-5 -51 -10 -91.5t-13 -73.5q-4 -19 -20 -30l3 1q-15 -6 -24 -9.5t-17 -6.5q-75 -29 -128 -43.5t-84 -14.5q-28 0 -28 43q0 33 3 74t10 91v-1q4 22 7.5 44 t7.5 44l6 38t7 39l-1 -2q1 7 4 12h-1q2 10 5.5 23t8.5 33q13 43 13 74q0 41 -31 65h2q-29 27 -64 27q-31 0 -49 -32q-8 -17 -10.5 -31.5t-5.5 -25.5q-1 -5 -2 -9l-2 -8q-15 -75 -27 -146.5t-23 -143.5q-9 -63 -14 -108t-5 -77q0 -47 10 -84q12 -45 40 -64q56 -41 150 -41 q23 0 64.5 9.5t104.5 27.5q6 2 10.5 3t10 3t13.5 5t21 8q3 1 6 2.5t6 2.5q9 3 15.5 4.5t10.5 3.5q11 -11 21.5 -22.5t21.5 -25.5q19 -8 33.5 -12.5t24.5 -4.5q15 0 27 10q27 12 27 56v13q0 7 -2 16q-3 11 -4 19t-1 12q0 -1 0.5 4t1.5 16q2 12 4.5 32t5.5 47q8 67 15.5 146 t15.5 176q1 11 1.5 19.5t1.5 17.5q1 13 1.5 24.5t2.5 21.5q2 20 3.5 32.5t1.5 17.5zM527 862q0 46 -58 150l1 -1l-37 71q-35 59 -74 59q-28 0 -48 -20.5t-20 -49.5q0 -8 2 -18t9 -22q14 -24 25 -42t19 -30q3 -10 9 -17l-1 1q3 -8 6 -11q4 -10 5 -14q1 -3 3 -6.5t7 -10.5 l-1 1q14 -28 24.5 -45.5t17.5 -27.5q23 -25 54 -25q57 0 57 58z" />
<glyph unicode="&#xfa;" horiz-adv-x="703" d="M717 704q0 97 -70 97q-94 0 -94 -101v-23q0 -8 -6 -54q0 -9 -0.5 -13l-1.5 -12q-2 -20 -4.5 -55.5t-6.5 -89.5v1q-5 -51 -10 -91.5t-13 -73.5q-4 -19 -20 -30l3 1q-15 -6 -24 -9.5t-17 -6.5q-75 -29 -128 -43.5t-84 -14.5q-28 0 -28 43q0 33 3 74t10 91v-1q4 22 7.5 44 t7.5 44l6 38t7 39l-1 -2q1 7 4 12h-1q2 10 5.5 23t8.5 33q13 43 13 74q0 41 -31 65h2q-29 27 -64 27q-31 0 -49 -32q-8 -17 -10.5 -31.5t-5.5 -25.5q-1 -5 -2 -9l-2 -8q-15 -75 -27 -146.5t-23 -143.5q-9 -63 -14 -108t-5 -77q0 -47 10 -84q12 -45 40 -64q56 -41 150 -41 q23 0 64.5 9.5t104.5 27.5q6 2 10.5 3t10 3t13.5 5t21 8q3 1 6 2.5t6 2.5q9 3 15.5 4.5t10.5 3.5q11 -11 21.5 -22.5t21.5 -25.5q19 -8 33.5 -12.5t24.5 -4.5q15 0 27 10q27 12 27 56v13q0 7 -2 16q-3 11 -4 19t-1 12q0 -1 0.5 4t1.5 16q2 12 4.5 32t5.5 47q8 67 15.5 146 t15.5 176q1 11 1.5 19.5t1.5 17.5q1 13 1.5 24.5t2.5 21.5q2 20 3.5 32.5t1.5 17.5zM345 862q0 -58 56 -58q31 0 54 25q7 10 17.5 27t23.5 42q1 4 3.5 9.5t4.5 9.5q2 3 3.5 7t4.5 9l-1 -2q2 2 3 4.5l3 7.5l-1 -1q2 4 4.5 8.5t4.5 8.5q8 12 19 30t25 42q8 12 9.5 22t1.5 18 q0 29 -20 49.5t-47 20.5q-41 0 -76 -59l-36 -71l1 1q-57 -105 -57 -150z" />
<glyph unicode="&#xfb;" horiz-adv-x="703" d="M717 702q0 97 -70 97q-94 0 -94 -101v-23q0 -6 -6 -54q0 -8 -0.5 -12l-1.5 -12q-2 -20 -4.5 -55.5t-6.5 -89.5v1q-5 -51 -10 -91.5t-13 -72.5q-4 -19 -20 -30l3 1q-15 -7 -24 -10.5t-17 -5.5q-75 -29 -128 -43.5t-84 -14.5q-28 0 -28 42q0 33 3 74t10 91v-1q4 22 7.5 44 t7.5 44l6 38t7 39l-1 -2q1 3 2 6.5t2 5.5h-1q2 10 5.5 23t8.5 33q13 43 13 73q0 41 -31 66l2 -1q-29 27 -64 27q-31 0 -49 -32q-8 -17 -10.5 -31t-5.5 -26q-1 -5 -2 -8.5t-2 -7.5q-15 -75 -27 -146.5t-23 -143.5q-9 -63 -14 -108t-5 -76q0 -47 10 -84q12 -45 40 -65 q55 -40 150 -40q23 0 64.5 9.5t104.5 27.5q6 2 10.5 3t10 3t13.5 5t21 8q3 1 6 2.5t6 2.5q9 3 15.5 4t10.5 3q11 -10 21.5 -21.5t21.5 -25.5q19 -8 33.5 -12.5t24.5 -4.5q8 0 15 2.5t12 6.5q27 13 27 57v13q0 7 -2 16q-3 11 -4 18.5t-1 12.5q0 -1 0.5 4l1.5 15q2 13 4.5 33 t5.5 46q8 67 15.5 146t15.5 176q1 11 1.5 19.5t1.5 17.5q1 13 1.5 24t2.5 22q2 20 3.5 32t1.5 17zM565 821q17 1 25.5 8.5t8.5 18.5q0 9 -5 19l1 -2q-7 13 -15.5 31t-17.5 37.5t-17.5 39.5t-14.5 39v-1q-5 14 -11 20.5t-14 13.5l-5 5q-10 5 -14 6.5t-6 2.5q-14 4 -24 9 q-9 4 -21 4q-10 0 -18.5 -4.5t-16.5 -15.5l1 2q-18 -18 -35.5 -39t-33.5 -42t-30 -40t-23 -32q-8 -11 -8 -22q0 -8 3.5 -16.5t11.5 -14.5q14 -14 29 -23q3 -3 5 -3q2 -2 5.5 -3t5.5 -2l-3 1q7 -4 21 -4q10 2 15 6.5t10 9.5q14 18 29.5 38t33.5 42q3 -7 6 -12.5t5 -11.5 q6 -11 10.5 -21t8.5 -18q21 -26 48 -28q4 -1 8 -1h10q8 0 16 1z" />
<glyph unicode="&#xfc;" horiz-adv-x="703" d="M717 700q0 97 -70 97q-94 0 -94 -101v-23q0 -7 -6 -53q0 -9 -0.5 -12.5t-1.5 -11.5q-2 -20 -4.5 -56t-6.5 -90v1q-5 -51 -10 -91t-13 -72q-4 -19 -20 -30l3 1q-15 -6 -24 -9.5t-17 -6.5q-75 -29 -128 -43.5t-84 -14.5q-28 0 -28 43q0 33 3 74t10 90v-1l15 87l6 38t7 39 l-1 -2q1 4 2 7.5t2 5.5h-1q2 9 5.5 22.5t8.5 32.5q13 43 13 73q0 41 -31 66l2 -1q-29 27 -64 27q-31 0 -49 -32q-8 -17 -10.5 -31t-5.5 -26l-2 -8l-2 -8q-15 -75 -27 -146t-23 -143q-9 -63 -14 -107.5t-5 -76.5q0 -46 10 -83q12 -45 40 -65q55 -40 150 -40q46 0 169 37 q6 2 10.5 3t10 3t13.5 5t21 8q3 1 6 2.5t6 2.5q9 2 15.5 3.5t10.5 3.5q11 -10 21.5 -21.5t21.5 -25.5q19 -8 33.5 -12.5t24.5 -4.5q8 0 15 2.5t12 6.5q27 13 27 57v13t-2 16q-3 10 -4 18t-1 13q0 -1 0.5 3.5t1.5 15.5q2 12 4.5 32t5.5 47q8 66 15.5 145t15.5 176q1 19 3 36 q1 13 1.5 24.5t2.5 21.5q2 20 3.5 32t1.5 17zM435 920v-7q0 -38 19.5 -61t47.5 -23h3q15 0 27 7t20 17t13 21.5t7 19.5v3q1 5 1.5 9.5t0.5 12.5q0 22 -11.5 43t-35.5 32q-8 4 -14 5t-12 1q-29 0 -46.5 -24t-19.5 -56zM270 921v-6q0 -38 19.5 -61.5t47.5 -23.5h3q15 0 26 6.5 t19.5 16.5t13.5 21t7 20q4 9 4 25q0 23 -11.5 44t-36.5 32h1q-14 6 -26 6q-29 0 -46.5 -24t-20.5 -56z" />
<glyph unicode="&#xfd;" horiz-adv-x="674" d="M709 756q0 77 -70 77q-37 0 -115 -78v1q-22 -21 -46 -49t-50 -59q-2 -6 -9 -14q-8 -11 -17 -23t-17 -24l1 1l-32 -42q-8 0 -43 37q-15 16 -26.5 28.5t-21.5 26.5l1 -2q-8 15 -14 27.5t-11 20.5l-3 4q4 -5 2.5 -2t-5.5 9t-8 13t-5 10l2 -3q-2 6 -4 9l-4 6l1 -3l-27 68 q-22 42 -66 42q-35 0 -53.5 -25t-18.5 -60q0 -26 28 -91q10 -23 19.5 -44t20.5 -39q23 -41 52.5 -75t67.5 -63q7 -8 12.5 -12t11.5 -7q1 -2 2.5 -3t3.5 -3l-1 1q14 -11 14 -18l-60 -273v-6q0 -20 5.5 -35t14.5 -27q26 -32 59 -32q19 0 35 11q17 14 37 72q8 25 13 43.5 t7 31.5q10 46 17 74.5t12 42.5q1 2 2 6.5t3 10.5v-1q2 8 4.5 17.5t7.5 23.5q8 32 18 53v-1q53 115 212 271q10 11 17 18.5t11 12.5q8 8 10.5 19.5t2.5 25.5zM291 916q0 -58 56 -58q31 0 54 26q16 19 41 68q2 5 4 10.5t4 8.5t3.5 7t4.5 10l-1 -2q2 2 3 4.5l3 7.5l-1 -1 q2 3 4.5 7.5t4.5 9.5q8 12 19 30t25 42q8 12 9.5 22t1.5 18q0 29 -20 49.5t-47 20.5q-40 0 -76 -59l-36 -72l1 1q-57 -104 -57 -150z" />
<glyph unicode="&#xfe;" horiz-adv-x="565" d="M410 178q47 25 84.5 52.5t64 59t40.5 67.5t14 79q-6 64 -33 107t-85 76q-32 17 -82 31.5t-104 23.5q2 8 3.5 16.5t3.5 18.5t4 21.5t4 21.5q0 32 -19 58t-48 34l12 12h-46q-23 0 -43.5 -52t-41.5 -151t-43 -243t-48 -328q0 -8 3 -15h-16l23.5 -23.5t19.5 -16.5h-1l57 -29 h27q4 8 6.5 11t4.5 7q5 9 8.5 15t5.5 12t3.5 13.5t2.5 19.5q0 3 6 36h9q35 5 63.5 11.5t52.5 14.5t46 18t43 23zM273 520v-2q2 6 3 9.5l1 3.5q16 0 36.5 -2t42 -6t42 -11t36.5 -17q4 -10 14 -12h1q20 -26 20 -45q0 -24 -18.5 -46t-49 -43.5t-71 -42.5t-84.5 -41l-17 -5 q3 23 9 61t12.5 77.5t12.5 73t10 48.5zM236 823l2 1q0 -2 -1 -1.5z" />
<glyph unicode="&#xff;" horiz-adv-x="674" d="M709 752q0 77 -70 77q-37 0 -115 -78v1q-22 -21 -46 -49t-50 -59q-3 -7 -9 -13q-8 -12 -17 -23.5t-17 -23.5h1l-32 -41q-8 0 -43 37q-15 16 -26.5 28.5t-21.5 25.5l1 -1q-8 15 -14 27t-11 21l-3 3q4 -5 2.5 -1.5t-5.5 9.5t-8 12.5t-5 9.5l2 -3q-2 6 -4 9l-4 6l1 -3 l-27 67q-22 43 -66 43q-35 0 -53.5 -25t-18.5 -60q0 -26 28 -90q10 -23 19.5 -44t20.5 -39q46 -80 120 -138q12 -12 24 -18q1 -2 2.5 -3t3.5 -3l-1 1q14 -11 14 -18l-60 -271v-7q0 -19 5.5 -34t14.5 -27q26 -32 59 -32q19 0 35 11q17 14 37 72q8 24 13 42.5t7 32.5 q10 45 17 73.5t12 42.5q1 2 2 6.5t3 9.5v-1q2 8 4.5 17.5t7.5 23.5q8 32 18 53v-1q52 113 212 270q10 10 17 17.5t11 13.5q8 8 10.5 19t2.5 25zM397 946v-8q0 -38 19.5 -60.5t47.5 -22.5h3q15 0 27 7t20 17t13 21.5t7 19.5v3q1 5 1.5 9.5t0.5 12.5q0 22 -11.5 43t-35.5 32 q-8 4 -14 5t-12 1q-29 0 -46.5 -24.5t-19.5 -55.5zM232 947v-7q0 -38 19.5 -61t47.5 -23h3q15 0 26 6.5t19.5 16.5t13.5 21t7 20q4 9 4 25q0 23 -11.5 44t-36.5 32h1q-14 6 -26 6q-29 0 -46.5 -24.5t-20.5 -55.5z" />
<glyph unicode="&#x152;" horiz-adv-x="1271" d="M1300 144v9q0 27 -15 50.5t-43 34.5q-23 -4 -43.5 -5.5t-38.5 -1.5h-12q-14 -2 -27 -2.5t-27 -1.5q-11 -1 -23 -1t-23 -1q-17 -3 -33.5 -6.5t-33.5 -7.5q-29 -5 -57 -10.5t-54 -8.5q-3 -1 -7 -1h-20h-11t-14 1l3 -1q-18 4 -18 13v2q2 4 2.5 7.5t0.5 8.5v17q0 16 1.5 33 t3.5 34l3 34q0 9 4 20t14 13q11 0 18.5 1t14.5 3q8 2 15.5 3t15.5 3q9 2 18 3.5t17 3.5q21 4 43 7.5t42 3.5q4 0 8 -0.5t9 -0.5q17 0 35.5 -0.5t36.5 -2.5h5q22 0 42.5 12t21.5 38l-1 -1q2 5 2 8v6q0 25 -13.5 42.5t-34.5 25.5q-24 7 -42 7q-20 5 -39.5 6.5t-36.5 1.5 q-35 0 -68.5 -4t-66.5 -8h1q-11 -2 -21 -3.5t-20 -3.5v7q1 3 1 6v7q0 6 -1 9q0 8 0.5 16t1.5 18l2 7l1 12v5q15 1 27 9q17 8 34 10.5t35 4.5q15 3 31.5 4.5t35.5 2.5q24 5 45 6t41 1h10q26 0 53 2.5t59 15.5q16 22 16 45q0 29 -19.5 59t-48.5 44l1 -1q-20 9 -41 9 q-6 0 -11.5 -0.5t-10.5 -1.5q-7 -2 -12.5 -2.5t-11.5 -0.5q-8 0 -15 -0.5t-13 -1.5h3q-34 -2 -67 -7t-68 -14h1q-19 -5 -37 -8t-38 -6q-8 -3 -17.5 -5t-17.5 -4l1 1q-11 -2 -22 -5.5t-22 -7.5q-22 0 -44 -8q-21 20 -42 33q-69 44 -138 44q-5 0 -13.5 -1t-15.5 -2 q-14 -3 -16 -3q-43 0 -94.5 -21.5t-117.5 -66.5q-44 -30 -85.5 -82.5t-86.5 -133.5h1q-16 -26 -24.5 -52t-13.5 -54q-5 -24 -7 -41t-2 -26q-5 -20 -5 -36q0 -34 15 -82q13 -38 26 -60.5t25 -30.5q9 -11 18.5 -20t21.5 -18q2 -2 16.5 -9t40.5 -20q8 -3 14 -5.5t11 -4.5 q12 -5 21 -8t17 -5l-1 1q70 -18 96 -18q95 0 155 23q12 6 22 11.5t18 8.5q7 4 13.5 6.5t11.5 5.5q27 10 48 24q12 -35 40 -58.5t71 -25.5h-1q10 -1 20 -1.5t19 -0.5q31 0 57 6q71 16 139.5 27.5t138.5 11.5h21q13 0 24 0.5t22 1.5h-1q4 0 13 0.5t16.5 1t10 1t-6.5 0.5 q27 7 48 25.5t24 45.5zM620 309q-51 -77 -120 -103q-33 -17 -97 -17q-4 0 -14 1t-24 3l1 -1q-39 9 -66.5 20.5t-42.5 28.5q-36 36 -36 111q0 29 13 60t38 69t54.5 68t64.5 56q69 51 126 51q69 0 111 -62q18 -26 29 -54t13 -59v-19q0 -11 -0.5 -21.5t-1.5 -20.5v1 q-5 -29 -16.5 -56.5t-31.5 -55.5z" />
<glyph unicode="&#x153;" horiz-adv-x="1271" d="M1300 144v9q0 27 -15 50.5t-43 34.5q-23 -4 -43.5 -5.5t-38.5 -1.5h-12q-14 -2 -27 -2.5t-27 -1.5q-11 -1 -23 -1t-23 -1q-17 -3 -33.5 -6.5t-33.5 -7.5q-29 -5 -57 -10.5t-54 -8.5q-3 -1 -7 -1h-20h-11t-14 1l3 -1q-18 4 -18 13v2q2 4 2.5 7.5t0.5 8.5v17q0 16 1.5 33 t3.5 34l3 34q0 9 4 20t14 13q11 0 18.5 1t14.5 3q8 2 15.5 3t15.5 3q9 2 18 3.5t17 3.5q21 4 43 7.5t42 3.5q4 0 8 -0.5t9 -0.5q17 0 35.5 -0.5t36.5 -2.5h5q22 0 42.5 12t21.5 38l-1 -1q2 5 2 8v6q0 25 -13.5 42.5t-34.5 25.5q-24 7 -42 7q-20 5 -39.5 6.5t-36.5 1.5 q-35 0 -68.5 -4t-66.5 -8h1q-11 -2 -21 -3.5t-20 -3.5v7q1 3 1 6v7q0 6 -1 9q0 8 0.5 16t1.5 18l2 7l1 12v5q15 1 27 9q17 8 34 10.5t35 4.5q15 3 31.5 4.5t35.5 2.5q24 5 45 6t41 1h10q26 0 53 2.5t59 15.5q16 22 16 45q0 29 -19.5 59t-48.5 44l1 -1q-20 9 -41 9 q-6 0 -11.5 -0.5t-10.5 -1.5q-7 -2 -12.5 -2.5t-11.5 -0.5q-8 0 -15 -0.5t-13 -1.5h3q-34 -2 -67 -7t-68 -14h1q-19 -5 -37 -8t-38 -6q-8 -3 -17.5 -5t-17.5 -4l1 1q-11 -2 -22 -5.5t-22 -7.5q-22 0 -44 -8q-21 20 -42 33q-69 44 -138 44q-5 0 -13.5 -1t-15.5 -2 q-14 -3 -16 -3q-43 0 -94.5 -21.5t-117.5 -66.5q-44 -30 -85.5 -82.5t-86.5 -133.5h1q-16 -26 -24.5 -52t-13.5 -54q-5 -24 -7 -41t-2 -26q-5 -20 -5 -36q0 -34 15 -82q13 -38 26 -60.5t25 -30.5q9 -11 18.5 -20t21.5 -18q2 -2 16.5 -9t40.5 -20q8 -3 14 -5.5t11 -4.5 q12 -5 21 -8t17 -5l-1 1q70 -18 96 -18q95 0 155 23q12 6 22 11.5t18 8.5q7 4 13.5 6.5t11.5 5.5q27 10 48 24q12 -35 40 -58.5t71 -25.5h-1q10 -1 20 -1.5t19 -0.5q31 0 57 6q71 16 139.5 27.5t138.5 11.5h21q13 0 24 0.5t22 1.5h-1q4 0 13 0.5t16.5 1t10 1t-6.5 0.5 q27 7 48 25.5t24 45.5zM620 309q-51 -77 -120 -103q-33 -17 -97 -17q-4 0 -14 1t-24 3l1 -1q-39 9 -66.5 20.5t-42.5 28.5q-36 36 -36 111q0 29 13 60t38 69t54.5 68t64.5 56q69 51 126 51q69 0 111 -62q18 -26 29 -54t13 -59v-19q0 -11 -0.5 -21.5t-1.5 -20.5v1 q-5 -29 -16.5 -56.5t-31.5 -55.5z" />
<glyph unicode="&#x178;" horiz-adv-x="674" d="M709 752q0 77 -70 77q-37 0 -115 -78v1q-22 -21 -46 -49t-50 -59q-3 -7 -9 -13q-8 -12 -17 -23.5t-17 -23.5h1l-32 -41q-8 0 -43 37q-15 16 -26.5 28.5t-21.5 25.5l1 -1q-8 15 -14 27t-11 21l-3 3q4 -5 2.5 -1.5t-5.5 9.5t-8 12.5t-5 9.5l2 -3q-2 6 -4 9l-4 6l1 -3 l-27 67q-22 43 -66 43q-35 0 -53.5 -25t-18.5 -60q0 -26 28 -90q10 -23 19.5 -44t20.5 -39q46 -80 120 -138q12 -12 24 -18q1 -2 2.5 -3t3.5 -3l-1 1q14 -11 14 -18l-60 -271v-7q0 -19 5.5 -34t14.5 -27q26 -32 59 -32q19 0 35 11q17 14 37 72q8 24 13 42.5t7 32.5 q10 45 17 73.5t12 42.5q1 2 2 6.5t3 9.5v-1q2 8 4.5 17.5t7.5 23.5q8 32 18 53v-1q52 113 212 270q10 10 17 17.5t11 13.5q8 8 10.5 19t2.5 25zM397 946v-8q0 -38 19.5 -60.5t47.5 -22.5h3q15 0 27 7t20 17t13 21.5t7 19.5v3q1 5 1.5 9.5t0.5 12.5q0 22 -11.5 43t-35.5 32 q-8 4 -14 5t-12 1q-29 0 -46.5 -24.5t-19.5 -55.5zM232 947v-7q0 -38 19.5 -61t47.5 -23h3q15 0 26 6.5t19.5 16.5t13.5 21t7 20q4 9 4 25q0 23 -11.5 44t-36.5 32h1q-14 6 -26 6q-29 0 -46.5 -24.5t-20.5 -55.5z" />
<glyph unicode="&#x2c6;" horiz-adv-x="436" d="M387 778q32 3 32 25q0 8 -5 16l1 -2q-7 12 -15 27.5t-16.5 33t-16 35t-13.5 34.5v-1q-5 13 -10 19t-13 11l-5 4q-9 5 -13 6t-6 3l-12 4t-11 4q-9 3 -19 3q-9 0 -17 -3.5t-16 -14.5l1 2q-17 -16 -33.5 -34.5t-31.5 -37t-28 -35t-22 -28.5q-7 -10 -7 -19q0 -7 3 -15t11 -13 q7 -7 13.5 -11.5t13.5 -8.5q2 -1 3 -2t2 -1q6 -4 11 -4h-4q7 -3 20 -3q9 2 14 6t9 9q13 16 28 33.5t32 36.5q2 -6 5 -11t5 -10q5 -11 9.5 -19.5t8.5 -15.5q20 -23 45 -25q4 -1 8 -1h9q8 0 15 1t15 2z" />
<glyph unicode="&#x2dc;" horiz-adv-x="484" d="M359 674q34 0 73 33v-1q40 33 40 61q0 19 -22 32q-13 7 -29 7q-11 0 -20 -4t-18 -11l-8 -8l1 1q-4 -5 -9 -11t-3 -7q-7 1 -15.5 5t-17.5 9h1q-14 7 -27 12l1 -1q-15 6 -28.5 9.5t-27.5 3.5q-12 0 -30 -6.5t-35 -16.5t-31.5 -21.5t-19.5 -21.5q-3 -7 -5 -13t-2 -13 q0 -37 46 -37q23 0 38 12l-8 -3q10 4 16 10q5 5 11 9.5t8 4.5q10 0 26.5 -4.5t23.5 -9.5q12 -11 30 -15.5t41 -4.5z" />
<glyph unicode="&#x2000;" horiz-adv-x="599" />
<glyph unicode="&#x2001;" horiz-adv-x="1199" />
<glyph unicode="&#x2002;" horiz-adv-x="599" />
<glyph unicode="&#x2003;" horiz-adv-x="1199" />
<glyph unicode="&#x2004;" horiz-adv-x="399" />
<glyph unicode="&#x2005;" horiz-adv-x="299" />
<glyph unicode="&#x2006;" horiz-adv-x="199" />
<glyph unicode="&#x2007;" horiz-adv-x="199" />
<glyph unicode="&#x2008;" horiz-adv-x="149" />
<glyph unicode="&#x2009;" horiz-adv-x="239" />
<glyph unicode="&#x200a;" horiz-adv-x="66" />
<glyph unicode="&#x2013;" horiz-adv-x="543" d="M568 359q0 49 -71 58q-4 2 -11 2h-13l-131 -9q-17 -2 -26 -2.5t-15 -1t-11 -0.5h-12h-178q-15 0 -34 -16q-15 -15 -15 -27q0 -43 27.5 -66t78.5 -23h140q5 0 11 0.5t12 0.5q54 3 96.5 5.5t75.5 5.5q18 0 28 2h-1q23 3 40 33q9 21 9 38z" />
<glyph unicode="&#x2014;" horiz-adv-x="694" d="M721 359q0 49 -72 58q-4 2 -12 2h-13l-133 -9q-17 -2 -26 -2.5t-15 -1t-11 -0.5h-13h-325q-14 0 -35 -16q-15 -15 -15 -27q0 -43 28.5 -66t79.5 -23h287q5 0 11 0.5t12 0.5q54 3 98 5.5t77 5.5q20 0 28 2h-1q25 3 41 33q9 21 9 38z" />
<glyph unicode="&#x2018;" horiz-adv-x="184" d="M204 528q0 20 -6.5 36t-14.5 33q-5 11 -10 22.5t-7 22.5q-5 22 -8 39.5t-5 31.5l-2 13q-3 6 -9 13t-13 12t-14.5 8.5t-12.5 3.5q-26 0 -42 -25v1q-12 -17 -12 -48q0 -9 3 -31q1 -2 1.5 -5.5t1.5 -5.5l-1 1q7 -44 14.5 -72.5t14.5 -45.5q5 -11 12 -21.5t18 -19.5l-1 1 q23 -24 44 -24t36 18q13 12 13 42z" />
<glyph unicode="&#x2019;" horiz-adv-x="177" d="M196 771q-3 19 -20 31.5t-33 12.5q-36 0 -48 -34q-6 -21 -6 -54q-2 -32 -3 -39q-5 -20 -8.5 -32t-5.5 -17t-5 -13t-8 -19v1q-5 -10 -7.5 -19.5t-2.5 -20.5q0 -22 14 -40.5t33 -18.5q76 0 102 186q0 8 1 12.5t2 6.5q0 17 -1.5 30.5t-3.5 27.5v-1z" />
<glyph unicode="&#x201a;" horiz-adv-x="177" d="M196 139q-3 20 -20 32.5t-33 12.5q-35 0 -48 -35q-6 -20 -6 -54q-2 -30 -3 -39q-5 -20 -8.5 -31.5t-5.5 -16.5q-4 -8 -13 -32v1q-10 -23 -10 -40q0 -22 14 -40.5t33 -18.5q76 0 102 185q0 9 1 13.5t2 6.5q0 17 -1.5 30t-3.5 27v-1z" />
<glyph unicode="&#x201e;" horiz-adv-x="342" d="M215 164q-3 20 -22 32.5t-37 12.5q-40 0 -54 -35q-7 -20 -7 -55q-2 -32 -3 -39q-6 -20 -10 -32t-6 -17t-6 -12.5t-9 -19.5q-10 -19 -10 -40q0 -22 15.5 -41t36.5 -19q85 0 114 188q1 17 4 20q0 17 -1.5 30.5t-4.5 27.5v-1zM370 99q0 72 -61 72q-7 0 -29 -10h1 q-19 -7 -25 -21q-10 -35 -13.5 -56.5t-5.5 -34.5q-2 -8 -3 -11q-4 -10 -7 -20t-8 -16q-2 -2 -3.5 -5.5l-1.5 -3.5q-6 -8 -10 -16q-6 -13 -7.5 -23t-1.5 -21q0 -30 13 -43q17 -17 41 -17q37 0 70 48q12 18 20.5 36t11.5 37l-1 -1q3 11 4.5 21t3.5 18q2 7 2.5 13t2.5 11 q5 20 6 30.5t1 12.5z" />
<glyph unicode="&#x2022;" horiz-adv-x="307" d="M331 414q0 52 -52 85l1 -1q-44 32 -91 32q-90 0 -118 -56q-8 -20 -12.5 -37.5t-4.5 -34.5q0 -60 32.5 -98t94.5 -38q55 0 102 45q48 48 48 103z" />
<glyph unicode="&#x2026;" horiz-adv-x="594" d="M225 97q0 30 -34 48l1 -1q-28 17 -58 17q-56 0 -74 -32q-12 -19 -12 -37q0 -32 21 -53t61 -21q36 0 65 25q30 24 30 54zM420 97q0 29 -34 47l1 -1q-26 17 -58 17q-56 0 -74 -31q-7 -11 -9.5 -20.5t-2.5 -17.5q0 -32 21 -52.5t61 -20.5q37 0 65 24q30 24 30 55zM609 97 q0 30 -33 48l1 -1q-28 17 -58 17q-57 0 -75 -32q-11 -19 -11 -37q0 -32 21 -53t60 -21q37 0 66 25q29 24 29 54z" />
<glyph unicode="&#x202f;" horiz-adv-x="239" />
<glyph unicode="&#x2039;" horiz-adv-x="226" d="M237 541h-5q-9 0 -18 -2.5t-19 -9.5l-102 -69h3q-17 -7 -31 -22t-18 -35q0 -3 -0.5 -6.5t-0.5 -5.5q0 -17 6.5 -26.5t14.5 -14.5l81 -100l1 -3q5 -8 9.5 -13t12.5 -9l9 -9v5q6 -2 10 -3h9q15 0 27 9t23 38h-1q1 6 4 11q0 1 0.5 3t0.5 3v5q0 12 -6 24.5t-20 26.5l1 -2 l-41 51l50 34l-2 -1q24 13 34.5 31.5t11.5 29.5q0 1 0.5 2.5t0.5 3.5q0 7 -4 15q-6 23 -14.5 30t-26.5 9z" />
<glyph unicode="&#x203a;" horiz-adv-x="241" d="M100 216h4q9 0 18.5 2.5t19.5 9.5l102 70l-3 -1q17 8 31 22.5t18 35.5q0 2 0.5 5.5t0.5 5.5q0 17 -7 26t-15 15l-80 101l-3 1q-5 8 -9.5 13t-11.5 10l-9 9v-5l-10 3h-9q-14 0 -26 -9t-23 -38h1q-2 -3 -3 -6t-2 -5v-5v-6q0 -12 5.5 -24t19.5 -26l-1 1l41 -51l-49 -34l2 1 q-24 -13 -35 -31.5t-12 -29.5v-6q0 -10 4 -15q6 -23 14.5 -30t26.5 -9z" />
<glyph unicode="&#x205f;" horiz-adv-x="299" />
<glyph unicode="&#x2122;" horiz-adv-x="650" d="M620 439q43 15 46 55v4q0 1 0.5 1.5t0.5 2.5q0 4 -1 7.5t-1 7.5v-4v10q-5 27 -7.5 57.5t-2.5 62.5q0 24 1.5 48t6.5 49v6q0 13 -7 22t-18 15t-24 8.5t-24 2.5q-23 0 -44 -12q-7 -5 -15.5 -17t-16.5 -27q-6 18 -26 31t-43 13t-45.5 -13.5t-30.5 -46.5q-5 -8 -5 -12v1 q-4 -9 -7.5 -17t-7.5 -18q-20 -42 -36 -79.5t-30 -77.5q-2 -5 -3 -9.5t-1 -9.5q0 -2 -1 -2v-2q0 -1 -0.5 -2t-0.5 -2v-3q0 -20 10.5 -37t41.5 -20q1 0 2.5 -0.5t2.5 -0.5h11q21 0 36.5 9t27.5 23q1 6 3 9q12 -15 25.5 -21.5t30.5 -6.5q15 0 28.5 5t21.5 10q9 7 18 17 q5 -23 21.5 -32.5t35.5 -9.5q7 0 13.5 1t14.5 5zM303 659q23 8 34.5 26t14.5 32q1 3 2 6.5t1 8.5v2q1 0 1 2q0 14 -5.5 25.5t-22.5 25.5q-15 2 -25 2h-17q-24 0 -51 -3t-55 -8.5t-54 -12t-48 -12.5q-1 0 -1 -1h-1h1q-2 -1 -2.5 -1.5t-2.5 -1.5l-1 -1l1 1q-18 -11 -27 -20.5 t-11 -34.5q0 -5 3 -16t9.5 -22.5t18.5 -20.5t30 -9h3q1 0 3 0.5t4 0.5q3 2 7.5 3t3.5 1l-4 -2q3 0 4 1v-6q-3 -22 -4.5 -47t-3.5 -51q-1 -10 -1.5 -22t-1.5 -23q5 -27 20.5 -39t41.5 -12h6q31 3 44 21t20 40v20q0 20 3 44q2 25 6 51t8 48h3q12 0 22 0.5t22 4.5h2zM145 637 q-1 -1 -2 -1v0v0q1 0 2 1zM76 752q-1 0 -3 -2l1 1q1 0 2 1z" />
<glyph unicode="&#xe000;" horiz-adv-x="845" d="M0 845h845v-845h-845v845z" />
</font>
</defs>
</svg>
