<?xml version="1.0" standalone="no"?>
<!DOCTYPE svg PUBLIC "-//W3C//DTD SVG 1.1//EN" "http://www.w3.org/Graphics/SVG/1.1/DTD/svg11.dtd" >
<svg xmlns="http://www.w3.org/2000/svg">
<metadata></metadata>
<defs>
<font id="chanticleerromanregular" horiz-adv-x="500" >
<font-face units-per-em="1000" ascent="800" descent="-200" />
<missing-glyph horiz-adv-x="275" />
<glyph horiz-adv-x="1000" />
<glyph horiz-adv-x="1000" />
<glyph unicode="&#xd;" horiz-adv-x="1000" />
<glyph unicode=" "  horiz-adv-x="275" />
<glyph unicode="&#x09;" horiz-adv-x="275" />
<glyph unicode="&#xa0;" horiz-adv-x="275" />
<glyph unicode="!" horiz-adv-x="116" d="M114 39q0 -22 -15 -37t-38 -15q-22 0 -37 15t-15 37t15 37.5t37 15.5q23 0 38 -15.5t15 -37.5v0zM108 475q-1 -31 -3.5 -62.5t-5.5 -63.5q-5 -48 -12.5 -95t-16.5 -93h-21q-9 46 -16.5 93t-11.5 95q-3 32 -5.5 63.5t-3.5 62.5q-3 59 4 98t17 56q6 9 13 13.5t14 4.5 q2 0 3.5 -0.5t3.5 -0.5q5 -2 10 -6t9 -11q11 -17 17.5 -56t4.5 -98v0z" />
<glyph unicode="&#x22;" horiz-adv-x="208" d="M97 602l-13 -78h-35l-17 78q-1 5 -1.5 9.5t-0.5 8.5q0 22 10 32t23 10q14 0 25 -10t11 -33q0 -4 -0.5 -8t-1.5 -9v0zM180 602l-14 -78h-34l-18 78q-1 5 -1.5 9.5t-0.5 8.5q0 21 10.5 31.5t23.5 10.5h1.5h1.5q12 -1 22 -11.5t10 -32.5v-7.5t-1 -8.5v0z" />
<glyph unicode="#" />
<glyph unicode="$" horiz-adv-x="438" d="M390 248q11 -17 18 -36t9 -39q0 -5 0.5 -9.5t0.5 -9.5q0 -36 -15 -69.5t-44 -59.5q-26 -23 -59 -35.5t-68 -15.5v-81h-42v81q-20 3 -40 9t-38 17q-5 2 -10.5 3t-10.5 1q-10 0 -19 -5.5t-13 -17.5l-21 -1v152l21 1q3 -52 42.5 -83.5t88.5 -38.5v263q-20 10 -39.5 20 t-39.5 20q-48 26 -70 64.5t-21 79.5q0 64 47 118t123 61v63h42v-65q6 -1 13 -2l14 -2q4 -1 7.5 -1.5t6.5 -1.5q9 -1 18.5 -2t17.5 -1q13 0 23.5 3t16.5 10v11h21v-155h-20q-8 48 -42.5 76.5t-75.5 33.5v-251q9 -4 17.5 -7.5t15.5 -7.5q4 -2 8.5 -4t8.5 -4q32 -15 60 -32.5 t48 -49.5v0zM316 44q14 12 22 24.5t12 25.5q2 6 3 12.5t1 12.5q0 37 -26.5 69.5t-63.5 50.5q-7 4 -15.5 7.5t-16.5 7.5v-243q23 2 45 10.5t39 22.5v0zM190 372v231q-32 -5 -58.5 -27t-37.5 -62l-2 -14t-1 -13q0 -42 30.5 -69t68.5 -46v0z" />
<glyph unicode="%" />
<glyph unicode="&#x26;" horiz-adv-x="623" d="M595 362h-59q-1 -70 -25 -137t-69 -121l61 -69h82v-36h-155l-45 52q-33 -25 -70.5 -38t-76.5 -13q-46 0 -85 11t-68 33q-26 22 -41.5 53t-15.5 71q0 59 37.5 93.5t83.5 58.5q-10 12 -19.5 23.5t-20.5 22.5q-14 17 -22.5 35.5t-11.5 36.5q0 5 -0.5 9.5t-0.5 9.5 q0 58 44.5 104t110.5 46q62 0 105.5 -39.5t43.5 -103.5q0 -57 -31.5 -85.5t-75.5 -51.5q-4 -3 -8 -5l-8 -4l158 -181q27 44 41 102t11 123h-52v35h182v-35v0zM363 77l-179 203q-32 -21 -51 -48t-19 -68q0 -63 46 -98t105 -31q27 2 51.5 13t46.5 29v0zM306 446q2 8 3.5 17 t1.5 18q0 35 -20.5 63t-61.5 28q-13 0 -25.5 -5.5t-23.5 -14.5q-16 -14 -26 -34.5t-10 -42.5q0 -13 4.5 -26.5t14.5 -24.5l59 -67q29 15 51.5 35.5t32.5 53.5v0z" />
<glyph unicode="'" horiz-adv-x="83" d="M75 602l-13 -78h-35l-17 78q-1 5 -1.5 9.5t-0.5 8.5q0 22 10 32t23 10q14 0 25 -10t11 -33q0 -4 -0.5 -8t-1.5 -9v0z" />
<glyph unicode="(" horiz-adv-x="282" d="M270 -285l-16 -15q-114 92 -177.5 223.5t-63.5 276.5q0 146 63.5 277.5t177.5 222.5l16 -15q-61 -90 -94.5 -195t-42.5 -214q-2 -19 -2.5 -38t-0.5 -38t0.5 -38t2.5 -38q9 -109 42.5 -213.5t94.5 -194.5v-1z" />
<glyph unicode=")" horiz-adv-x="282" d="M12 -285q61 91 94.5 195.5t42.5 213.5q2 19 2.5 38t0.5 38t-0.5 38t-2.5 38q-9 109 -42.5 214t-94.5 195l16 15q114 -91 177.5 -222.5t63.5 -277.5q0 -145 -63.5 -276.5t-177.5 -222.5l-16 14v0z" />
<glyph unicode="*" horiz-adv-x="267" d="M255 492v-1.5v-1.5q0 -4 -1 -7.5t-3 -6.5q-2 -4 -5 -6.5t-7 -4.5q-2 -1 -5 -1.5t-6 -0.5q-7 0 -16.5 3.5t-20.5 10.5q-9 7 -18 14.5t-18 14.5q1 -6 2 -11.5t2 -11.5t2 -11.5t1 -11.5q2 -18 -2 -29.5t-11 -17.5q-4 -2 -7.5 -3.5t-8.5 -1.5q-4 0 -8.5 1.5t-7.5 3.5 q-7 6 -10.5 17.5t-2.5 29.5q1 11 2.5 22.5t4.5 22.5q-4 -4 -8.5 -7.5t-8.5 -6.5q-5 -4 -9 -7.5t-9 -6.5q-10 -7 -19.5 -10.5t-17.5 -3.5q-3 0 -5.5 0.5t-4.5 1.5q-4 2 -7.5 4.5t-5.5 6.5t-3 8.5t-1 8.5q1 4 3.5 8.5t6.5 9.5q4 4 10 8.5t14 8.5q11 5 21.5 8.5t21.5 7.5 q-11 4 -21.5 8t-20.5 8q-9 4 -16 9t-11 11q-3 4 -4.5 7.5t-2.5 7.5v1.5v1.5v0.5v1.5q0 3 1 6l2 6q2 4 5.5 7t7.5 4q2 1 5 1.5t6 0.5q8 0 17 -3t19 -11q5 -3 9 -6.5t9 -7.5q4 -3 8.5 -6.5t8.5 -7.5q-3 11 -4.5 22.5t-2.5 21.5q-1 18 2.5 30t10.5 17q3 3 7.5 4.5t8.5 1.5 q5 0 8.5 -1.5t7.5 -4.5q7 -5 11 -17t2 -30q-1 -11 -3 -22.5t-4 -22.5q9 8 18 15l18 14q11 8 20.5 11t16.5 3q3 0 5.5 -0.5t4.5 -1.5q5 -1 8 -4t5 -7q2 -3 2.5 -6t0.5 -7v-0.5v-1.5v-1.5v-0.5q-1 -3 -2.5 -6.5t-3.5 -7.5q-5 -5 -11.5 -10t-16.5 -10t-21 -9l-22 -8 q11 -4 22.5 -8t21.5 -9q9 -4 16 -9.5t11 -10.5q3 -4 4.5 -7.5t2.5 -6.5v0z" />
<glyph unicode="+" />
<glyph unicode="," horiz-adv-x="198" d="M189 27q1 -26 -9 -48.5t-27 -39.5q-19 -19 -42 -27.5t-47 -8.5q-13 0 -27 2.5t-28 7.5q2 6 4.5 12t4.5 11q5 -1 9.5 -1h8.5q11 0 21 3t20 11q11 9 18.5 21.5t11.5 26.5q-10 7 -16 17.5t-6 23.5q0 22 15 37t37 15q26 0 39 -19t13 -44v0z" />
<glyph unicode="-" horiz-adv-x="177" d="M151 306h-121v55h121v-55v0z" />
<glyph unicode="." horiz-adv-x="120" d="M112 39q0 -22 -15 -37t-38 -15q-22 0 -37 15t-15 37t15 37.5t37 15.5q23 0 38 -15.5t15 -37.5v0z" />
<glyph unicode="/" horiz-adv-x="374" d="M361 700l-294 -940h-80l295 940h79v0z" />
<glyph unicode="0" horiz-adv-x="436" d="M416 192q0 -82 -57 -143t-141 -61t-141 61t-57 143q0 83 57 144t141 61q83 0 140.5 -61t57.5 -144v0zM318 223q-2 10 -6.5 22t-9.5 24q-15 32 -41 59t-59 27q-5 -1 -10.5 -1.5t-10.5 -2.5q-33 -10 -49 -42.5t-20 -69.5q0 -6 -0.5 -12t-0.5 -12q0 -15 1.5 -29t4.5 -25 q2 -10 6.5 -22t9.5 -24q15 -32 41 -59t59 -27q3 0 5.5 0.5t5.5 1.5q3 0 5.5 0.5t5.5 1.5q34 10 49.5 43t18.5 70q1 6 1 11.5v10.5q0 15 -1.5 29t-4.5 26v0z" />
<glyph unicode="1" horiz-adv-x="250" d="M239 0h-228v21h15q18 0 33 16t22 35q2 6 3.5 12.5t1.5 12.5v216q0 16 -10 26.5t-25 10.5q-2 0 -5 -0.5t-6 -1.5l-23 -6l-5 20q38 10 76 19.5t76 19.5v-304q0 -6 1.5 -12.5t3.5 -12.5q7 -19 22 -35t33 -16h15v-21v0z" />
<glyph unicode="2" horiz-adv-x="347" d="M331 0h-303v29q16 14 33 26.5t34 24.5l14 10l14 10q39 28 72.5 60.5t39.5 66.5q1 5 1.5 10.5t0.5 10.5q-1 31 -15 56t-46 37q-6 3 -13.5 4.5t-14.5 2.5q-3 1 -6.5 1h-7.5h-3.5h-3.5q-26 -2 -50.5 -14.5t-40.5 -34.5l-20 10q20 41 59.5 64t84.5 23q62 0 110 -41.5 t48 -106.5q0 -64 -47.5 -107t-104.5 -74q-14 -8 -27.5 -14.5t-26.5 -13.5q-3 -1 -6 -2.5t-5 -3.5q-3 -1 -6 -2.5t-6 -3.5h74q9 0 17.5 0.5t17.5 1.5q38 5 70.5 22.5t41.5 57.5h21v-110v0z" />
<glyph unicode="3" horiz-adv-x="398" d="M379 -38q0 -76 -57.5 -126t-131.5 -50q-53 0 -100.5 27.5t-71.5 76.5l20 10q21 -25 52.5 -39.5t65.5 -16.5h3h4q14 0 27 2.5t26 7.5q36 14 53 43t17 64v7.5t-1 6.5q0 4 -0.5 7.5t-1.5 7.5q-10 54 -44 82t-87 28l-1 38h21q30 5 51 29.5t27 53.5q0 1 0.5 2.5t0.5 3.5 q0 3 0.5 6t0.5 6q1 2 1 5v6q0 30 -14.5 54.5t-45.5 36.5q-10 4 -20.5 6t-21.5 2q-28 -1 -54.5 -13.5t-44.5 -35.5l-20 10q20 41 59.5 64t84.5 23q62 0 110 -41.5t48 -106.5q0 -31 -12.5 -58t-33.5 -47q-6 -5 -12 -9.5t-13 -8.5q50 -20 83 -64t33 -99v-1z" />
<glyph unicode="4" horiz-adv-x="532" d="M508 0h-142v-212h-78v212h-264v57l295 327h47v-305h142v-79v0zM288 79v214l-191 -214h191v0z" />
<glyph unicode="5" horiz-adv-x="474" d="M452 397l-4 -34h-186l-40 -226q65 -9 113 -58t48 -116q0 -77 -57.5 -127t-131.5 -50q-54 0 -101.5 27.5t-70.5 76.5l20 10q23 -26 56 -41t68 -15q14 0 27 2.5t26 7.5q37 14 54 43t16 65v6.5v7.5t-0.5 7.5t-1.5 6.5q-11 61 -50 85.5t-98 24.5l53 297h260v0z" />
<glyph unicode="6" horiz-adv-x="431" d="M412 603q-3 0 -6 -0.5t-6 -0.5h-2.5h-2.5q-5 0 -9 -0.5t-9 -1.5q-97 -13 -162 -90t-91 -166q-2 -6 -3.5 -11.5t-2.5 -10.5q21 10 43.5 15t44.5 5h5.5h4.5q34 -2 66 -15t57 -37q28 -26 42 -58.5t14 -67.5v-5.5v-4.5q-2 -32 -16 -61.5t-40 -53.5q-25 -24 -60 -37.5 t-74 -13.5q-86 0 -134.5 63t-50.5 142q-3 89 23 163.5t75 130.5q58 66 133.5 99.5t160.5 43.5v-27v0zM300 86q5 14 8 28.5t3 29.5q0 4 -0.5 8.5t-0.5 9.5q-4 34 -20 65.5t-42 52.5q-7 6 -14.5 10t-14.5 7q-8 2 -15.5 3.5t-14.5 1.5q-25 0 -46 -15t-33 -44q-5 -13 -8 -27.5 t-3 -29.5v-6t1 -7q3 -35 19 -69t43 -55q7 -6 14.5 -10t15.5 -7q7 -2 14.5 -3.5t14.5 -1.5q25 0 46 15.5t33 43.5v0z" />
<glyph unicode="7" horiz-adv-x="399" d="M381 384q1 -18 0.5 -35.5t-1.5 -35.5q-5 -88 -28.5 -175t-66.5 -164q-46 -84 -111 -145.5t-156 -95.5v25q44 16 81.5 56.5t64.5 86.5q13 21 24 42t19 39q34 72 56 160.5t26 186.5h-260l12 55h340v0z" />
<glyph unicode="8" horiz-adv-x="434" d="M414 163q0 -79 -61.5 -127t-135.5 -48t-135.5 48t-61.5 127q0 63 42 100t96 64q-49 25 -80.5 66t-31.5 92q0 70 51 118t120 48q70 0 120.5 -47.5t50.5 -118.5q0 -55 -32.5 -92t-79.5 -60q53 -25 95.5 -68t42.5 -102v0zM315 189q-14 46 -45 71t-70 45q-43 -18 -68.5 -51 t-25.5 -76q0 -10 1.5 -20t4.5 -21q2 -7 5 -14t6 -15q16 -31 45 -56.5t64 -25.5q5 0 10.5 1t10.5 2q34 9 50.5 39t18.5 64v5.5v5.5q0 12 -2 24t-5 22v0zM307 510q-2 8 -5.5 17t-8.5 18q-14 26 -37.5 47.5t-51.5 21.5q-4 0 -8 -0.5t-9 -2.5q-28 -8 -41 -34.5t-16 -55.5 q-1 -5 -1 -9.5v-9.5l2 -22t3 -20q10 -37 35 -60.5t56 -40.5l7 3.5t6 2.5q35 17 54 48t19 67q0 8 -1 15.5t-3 14.5v0z" />
<glyph unicode="9" horiz-adv-x="431" d="M412 192q2 -89 -24 -163t-75 -130q-57 -66 -132.5 -99.5t-160.5 -43.5v26q2 1 3.5 1h3.5q1 1 3 1h4h5.5t4.5 1q2 0 4.5 0.5t5.5 0.5q97 13 162 90t92 165q2 6 3.5 11.5t2.5 10.5q-21 -10 -43 -15t-45 -5q-37 0 -71.5 13t-62.5 39t-42 59t-13 67v5.5v4.5q2 32 15.5 61.5 t39.5 53.5t60.5 38t73.5 14q86 0 134.5 -63t51.5 -143v0zM321 142q5 14 8 28.5t3 29.5v8.5t-1 9.5q-3 34 -19 65.5t-43 52.5q-7 6 -14.5 10t-14.5 7q-8 2 -15.5 3.5t-14.5 1.5q-25 0 -46 -15t-32 -44q-5 -13 -8 -28t-3 -30v-8.5t1 -9.5q3 -34 19 -65.5t42 -52.5 q10 -7 20 -12t20 -8q5 -1 10 -1.5t10 -0.5q25 0 46 15.5t32 43.5v0z" />
<glyph unicode=":" horiz-adv-x="120" d="M112 39q0 -22 -15 -37t-38 -15q-22 0 -37 15t-15 37t15 37.5t37 15.5q23 0 38 -15.5t15 -37.5v0zM112 189q0 -22 -15 -37.5t-38 -15.5q-22 0 -37 15.5t-15 37.5t15 37.5t37 15.5q23 0 38 -15.5t15 -37.5v0z" />
<glyph unicode=";" horiz-adv-x="198" d="M189 27q1 -26 -9 -48.5t-27 -39.5q-19 -19 -42 -27.5t-47 -8.5q-13 0 -27 2.5t-28 7.5q2 6 4.5 12t4.5 11q5 -1 9.5 -1h8.5q11 0 21 3t20 11q11 9 18.5 21.5t11.5 26.5q-10 7 -16 17.5t-6 23.5q0 22 15 37t37 15q26 0 39 -19t13 -44v0zM192 189q0 -22 -15 -37.5 t-38 -15.5q-22 0 -37 15.5t-15 37.5t15 37.5t37 15.5q23 0 38 -15.5t15 -37.5v0z" />
<glyph unicode="&#x3c;" horiz-adv-x="466" d="M445 71l-424 221l424 221v-67l-294 -154l294 -153v-68v0z" />
<glyph unicode="=" />
<glyph unicode="&#x3e;" horiz-adv-x="466" d="M21 71v68l294 153l-294 154v67l424 -221l-424 -221v0z" />
<glyph unicode="?" horiz-adv-x="321" d="M154 39q0 -22 -15 -37t-38 -15q-22 0 -37 15t-15 37t15 37.5t37 15.5q23 0 38 -15.5t15 -37.5v0zM297 482q0 -52 -28.5 -84.5t-63.5 -61.5l-2 -2l-2 -2q-2 -1 -3.5 -2.5l-2.5 -2.5q-31 -25 -57 -54t-30 -73q-1 -10 -0.5 -19.5t1.5 -18.5l-33 -7q-1 2 -1.5 4.5t-0.5 4.5 q-1 2 -1.5 4t-1.5 4q-3 11 -4 22t-1 21q0 7 0.5 13.5t1.5 12.5q6 36 26.5 62t43.5 49l3.5 3.5l3.5 3.5l6.5 6.5l6.5 6.5q19 20 34 41t19 47q0 3 0.5 6t0.5 6q1 2 1 5v6q0 29 -13.5 55t-42.5 37q-4 2 -8.5 3t-8.5 2q-4 0 -8.5 0.5t-8.5 0.5q-26 0 -49.5 -13t-39.5 -35l-20 10 q18 40 55 63.5t80 23.5q61 0 104.5 -43t43.5 -105v0z" />
<glyph unicode="@" horiz-adv-x="763" d="M668 53q-64 -47 -136.5 -66.5t-150.5 -19.5q-144 0 -250 97t-95 247q11 154 127 249.5t264 95.5q69 0 123.5 -21t93.5 -56q43 -39 63.5 -91t20.5 -107v-6.5v-7.5q-2 -44 -17.5 -87.5t-43.5 -79.5q-25 -33 -59.5 -53.5t-75.5 -20.5q-38 0 -59 24.5t-23 59.5 q-24 -30 -60 -54.5t-75 -24.5q-7 0 -14 1t-14 3q-17 5 -30.5 15.5t-22.5 25.5q-10 17 -15 36t-5 38q0 10 1.5 20.5t3.5 20.5q15 70 69.5 128.5t117.5 58.5q10 0 19 -1.5t18 -5.5q23 -5 35 -22.5t19 -37.5l4 14l4 14q2 6 4 13l4 14h18h19q9 0 18 -0.5t18 -0.5 q-19 -62 -37 -125l-36 -126q-1 -4 -1.5 -7.5t-0.5 -6.5q0 -10 4.5 -19t11.5 -17q8 -7 16 -10t16 -2q3 0 5.5 0.5t5.5 0.5q16 3 32.5 14.5t29.5 25.5q5 5 9.5 10t8.5 10q28 37 42.5 80.5t14.5 88.5q0 50 -19 97.5t-58 83.5q-43 39 -97.5 55.5t-111.5 15.5q-136 -1 -228 -94.5 t-102 -229.5q-9 -131 74 -226t215 -96q75 -1 144.5 18t130.5 64l13 -17v0zM477 348q1 3 1.5 6.5t0.5 7.5q1 4 1 7.5v6.5q0 23 -10 43.5t-33 31.5h-2h-1h-2h-2q-17 0 -33 -10.5t-29 -22.5q-2 -3 -4 -5l-4 -4q-22 -25 -38 -59t-23 -70q-1 -9 -2 -19t-1 -19q0 -6 0.5 -14 t2.5 -16q3 -16 11.5 -30t23.5 -18q3 -1 6 -1h5q8 0 16 2.5t15 5.5q26 17 47 41t31 53q7 20 13 41t10 42v0z" />
<glyph unicode="A" horiz-adv-x="687" d="M669 0h-237v21h15q10 0 19 4.5t14 11.5q3 3 4.5 6.5t1.5 7.5q1 2 1 3.5v3.5q0 3 -0.5 6t-1.5 6l-66 170h-226l-47 -139q-1 -3 -1.5 -5.5t-0.5 -5.5q-1 -3 -1 -5.5v-5.5q0 -17 9.5 -32t28.5 -22q6 -1 13.5 -2.5t15.5 -1.5v-21h-210v21h15q5 0 11 1.5t12 4.5q14 7 28 19.5 t24 26.5q5 7 8.5 14t5.5 13l182 543h64l210 -543q3 -6 7 -13.5t10 -14.5q10 -12 22.5 -23.5t26.5 -19.5q7 -3 14 -5.5t14 -2.5h15v-21v0zM401 286l-103 264l-89 -264h192v0z" />
<glyph unicode="B" horiz-adv-x="586" d="M519 173q0 -75 -58 -121t-128 -51q-4 -1 -8 -1h-8h-79.5h-78.5h-79.5h-79.5v21h29q17 0 31 15.5t21 33.5q3 7 4.5 14t1.5 13v467q0 23 -15.5 40t-37.5 17h-27v21h64.5h65.5q32 0 64.5 0.5t64.5 0.5q7 0 14 -0.5t14 -1.5q61 -8 113 -49.5t55 -107.5q3 -49 -25.5 -86.5 t-72.5 -56.5q61 -13 108 -57.5t47 -110.5v0zM428 174q0 60 -45.5 92.5t-99.5 38.5q-6 1 -13 1.5t-13 0.5h-88v-187v-1.5v-1.5q1 -28 22.5 -51t58.5 -23q8 0 16 0.5t16 1.5q55 6 100.5 37.5t45.5 91.5v0zM369 474q-1 55 -41.5 89t-88.5 38h-5.5h-5.5h-59v-250h58 q6 0 12.5 0.5t12.5 1.5q44 8 81 41t36 80v0z" />
<glyph unicode="C" horiz-adv-x="631" d="M576 66q-42 -34 -94.5 -55t-107.5 -24q-6 -1 -11.5 -1h-10.5q-134 1 -241.5 95.5t-107.5 239.5q0 146 108.5 241.5t248.5 95.5q35 0 70 -6.5t69 -20.5q3 -1 6 -1.5t6 -0.5q6 0 12 1.5t10 4.5t7 7.5t4 8.5l21 -3v-162h-23q-10 29 -28 49.5t-40 35.5q-21 13 -44.5 21 t-47.5 11q-7 1 -14 1.5t-14 0.5q-113 0 -182.5 -88.5t-69.5 -195.5v-1.5v-1.5q1 -105 70.5 -192.5t181.5 -87.5q65 0 116.5 29t82.5 85h23v-86v0z" />
<glyph unicode="D" horiz-adv-x="775" d="M718 321q0 -129 -90 -225t-221 -96h-385v21h25q23 0 40 17t17 40v468q0 6 -1.5 12.5t-3.5 13.5q-8 18 -22.5 33.5t-32.5 15.5h-46v22h409q131 0 221 -96.5t90 -225.5v0zM622 321q0 119 -85.5 202t-203.5 83h-148v-488q0 -30 17.5 -48t39.5 -24q5 -2 9.5 -2.5t9.5 -0.5 h19.5h16.5h16.5h19.5q118 0 203.5 80t85.5 198v0z" />
<glyph unicode="E" horiz-adv-x="508" d="M485 134l-34 -134h-451v21h15q18 0 33 16t22 35q2 6 3.5 12.5t1.5 12.5v467q0 24 -16.5 40.5t-40.5 16.5h-15v22h440v-113h-22q0 29 -20 49t-49 20h-195v-249h172q29 0 49 20.5t20 48.5h21v-182h-21q0 29 -20 49.5t-49 20.5h-172v-189q0 -4 0.5 -7.5t1.5 -7.5 q5 -23 24 -41.5t49 -18.5h119q39 0 72 30t42 66l20 -5v0z" />
<glyph unicode="F" horiz-adv-x="491" d="M442 530h-21v1q0 14 -5.5 26.5t-14.5 21.5q-10 10 -22.5 15t-26.5 5h-195v-249h172q14 0 26.5 5.5t22.5 14.5q10 10 15 23t5 26h21v-182h-21q-1 13 -4 23t-11 20q-1 1 -2 2.5t-3 3.5q-10 10 -22.5 15.5t-26.5 5.5h-172v-210q0 -6 1.5 -12.5t3.5 -12.5q7 -19 21.5 -35 t33.5 -16h40v-21h-128h-129v21h15q19 0 33.5 16t21.5 35q2 6 3.5 12.5t1.5 12.5v467q0 12 -4.5 22.5t-12.5 18.5q-7 8 -17.5 12t-22.5 4h-15v22h220h219v-113v0z" />
<glyph unicode="G" horiz-adv-x="695" d="M653 296h-14q-25 0 -43 -16t-18 -39v-253h-18q-11 8 -24 12t-27 4q-7 0 -13 -1t-12 -3q-13 -3 -29.5 -6t-34.5 -4q-16 -2 -32 -3t-29 -1q-140 0 -248 95.5t-108 239.5q0 145 108 241t248 96q7 0 14 -0.5t14 -0.5q29 -2 57 -8.5t54 -17.5q3 -1 6 -1.5t7 -0.5h3.5t3.5 1 q4 0 7.5 1.5t6.5 3.5q5 3 8 7.5t4 8.5l21 -3v-162h-23q-10 27 -27 48t-39 35q-24 17 -53 25t-61 8q-118 0 -192.5 -83t-74.5 -198q0 -112 74 -200t193 -88q13 0 29 1.5t32 4.5q21 3 40 9t34 14v179q0 23 -17.5 39t-43.5 16h-14v22h115.5h115.5v-22v0z" />
<glyph unicode="H" horiz-adv-x="745" d="M710 0h-58h-58h-58h-58v21h15q18 0 33 16t22 35q2 6 3.5 12.5t1.5 12.5v199h-394v-199q0 -6 1.5 -12.5t3.5 -12.5q7 -19 22 -35t33 -16h15v-21h-115.5h-116.5v21h15q18 0 33 16t22 35q2 6 3.5 12.5t1.5 12.5v467q0 23 -16.5 40t-39.5 17h-7.5h-8.5v22h113.5h112.5v-22 h-7.5h-7.5q-24 0 -40.5 -17t-16.5 -40v-221h394v221q0 23 -16.5 40t-39.5 17h-4h-4h-4h-4v22h56.5h56.5h56.5h56.5v-22h-7.5h-8.5q-23 0 -39.5 -17t-16.5 -40v-467q0 -6 1.5 -12.5t3.5 -12.5q7 -19 22 -35t33 -16h15v-21v0z" />
<glyph unicode="I" horiz-adv-x="263" d="M230 0h-115.5h-114.5l-1 21h14q18 0 33.5 16t22.5 35q2 6 3.5 12.5t1.5 12.5v467q0 23 -17 40t-40 17h-7.5h-7.5v22h112.5h112.5v-22h-7.5h-7.5q-23 0 -40 -17t-17 -40v-467q0 -6 1.5 -12.5t3.5 -12.5q7 -19 22 -35t34 -16h14v-21v0z" />
<glyph unicode="J" horiz-adv-x="407" d="M390 621h-8h-8q-23 0 -39.5 -17t-16.5 -40v-516v-2.5v-3.5q-2 -84 -58.5 -154.5t-147.5 -70.5q-31 0 -59 10.5t-53 27.5v51q5 -3 10.5 -6.5t10.5 -6.5q16 -10 32.5 -16t37.5 -6q64 0 103.5 50t41.5 109v3.5v2.5v528q0 23 -16.5 40t-40.5 17h-7.5h-7.5v22h112.5h113.5v-22 v0z" />
<glyph unicode="K" horiz-adv-x="683" d="M623 0h-309v21h24h2.5h2.5q9 1 17.5 6t13.5 13l2 4t1 4q1 2 1 4v4q0 6 -2 11.5t-6 9.5l-213 242v-222q0 -6 1.5 -12.5t3.5 -12.5q7 -19 21.5 -35t33.5 -16h15v-21h-58h-58h-58h-58v21h15q19 0 33.5 16t21.5 35q2 6 3.5 12.5t1.5 12.5v467q0 23 -17 40t-40 17h-15v22h56.5 h56.5h56.5h56.5v-22h-15q-23 0 -40 -16.5t-17 -40.5v-216l221 214q5 4 8.5 10.5t4.5 13.5v3.5v2.5v3v3q0 1 -0.5 2.5t-1.5 2.5q-4 9 -12.5 13t-18.5 5h-3.5h-3.5h-22v22h132.5h133.5v-22h-28q-41 0 -76 -21.5t-64 -47.5l-2.5 -2.5t-3.5 -2.5l-1 -1l-187 -183l234 -259 q5 -6 11 -12l12 -12q17 -15 37 -28.5t41 -22.5q10 -4 20 -6t20 -2h15v-21v0z" />
<glyph unicode="L" horiz-adv-x="519" d="M485 134l-34 -134h-451v21h15q18 0 32 15.5t22 34.5q3 7 4.5 15t1.5 14v464q0 23 -17 40t-40 17h-15v22h56.5h56.5h56.5h56.5v-22h-15q-23 0 -40 -16.5t-17 -40.5v-464v-2.5v-2.5q2 -22 19.5 -40.5t40.5 -18.5l134 -1q34 0 63 26t43 57q3 5 5 10.5t3 10.5l20 -5v0z" />
<glyph unicode="M" horiz-adv-x="856" d="M836 0h-236v21h15q18 0 30.5 15t17.5 32q2 5 2.5 10t0.5 10q-1 2 -1 4v3l-50 425l-193 -520h-28l-233 488l-36 -392q0 -6 0.5 -12.5t2.5 -13.5q6 -18 18.5 -33.5t31.5 -15.5h15v-21h-192v21h14q19 0 36 16.5t25 35.5q3 7 5 13t2 12l42 459q-22 30 -55.5 47t-70.5 17 l-1 22h185l244 -511l189 511h183v-22h-54h-1v0q-20 0 -34.5 -14.5t-13.5 -35.5v-2.5v-3.5l55 -466q1 -5 2 -10.5t4 -11.5q8 -21 25 -38.5t39 -17.5h15v-21v0z" />
<glyph unicode="N" horiz-adv-x="791" d="M773 621h-31q-19 0 -34.5 -16t-22.5 -35q-2 -6 -3.5 -12t-1.5 -12v-546h-32l-475 521v-424q0 -6 1.5 -12.5t3.5 -12.5q7 -19 22 -35t33 -16h37v-21h-56h-55h-56h-56v21h24q18 0 33 16t22 35q2 6 3.5 12.5t1.5 12.5v468q-27 26 -59.5 41t-70.5 15v22h185l454 -494v397 q0 6 -1 12t-4 12q-7 19 -22 35t-34 16h-36v22h230v-22v0z" />
<glyph unicode="O" horiz-adv-x="729" d="M670 321q0 -137 -98.5 -236t-236.5 -99q-137 0 -236 99t-99 236q0 138 99 237.5t236 99.5q138 0 236.5 -99.5t98.5 -237.5v0zM561 408q-28 80 -96.5 144t-154.5 64q-11 0 -23.5 -1.5t-24.5 -4.5l-12 -4l-12 -4q-76 -29 -111 -97.5t-37 -145.5v-4.5v-4.5q0 -30 5 -59.5 t14 -56.5q28 -79 97 -143.5t154 -64.5q18 0 36 3.5t36 10.5q76 29 111 97.5t37 145.5v4.5v4.5q0 30 -5 59.5t-14 56.5v0z" />
<glyph unicode="P" horiz-adv-x="545" d="M499 455q0 -80 -61 -129.5t-134 -57.5q-6 0 -12.5 -0.5t-12.5 -0.5q-26 0 -52 5.5t-50 16.5v-192q0 -6 1.5 -12.5t3.5 -12.5q7 -19 21.5 -35t33.5 -16h49v-21h-279v21h28q18 0 33 16t22 35q2 6 3.5 12.5t1.5 12.5v467q0 23 -17 40t-40 17h-35v22h276q83 0 151.5 -48 t68.5 -140v0zM406 451v8t-1 8q-4 51 -36 93.5t-88 42.5h-104v-275q14 -14 32.5 -20.5t38.5 -8.5q8 -1 16 -1.5t15 -0.5q55 0 87.5 42t38.5 92q0 5 0.5 10t0.5 10v0z" />
<glyph unicode="Q" horiz-adv-x="729" d="M958 -83q-14 -13 -30 -26t-33 -23q-43 -26 -82 -37.5t-76 -11.5q-65 0 -122.5 27.5t-113.5 60.5q-2 2 -4.5 3.5t-4.5 2.5q-3 1 -5.5 3t-4.5 3l-4 2t-4 3q-30 18 -61.5 34.5t-66.5 27.5h-2.5h-2.5h-2.5h-2.5q-138 0 -236.5 99t-98.5 236q0 138 98.5 237.5t236.5 99.5 t236.5 -99.5t98.5 -237.5q0 -100 -54 -181.5t-139 -122.5q18 -8 34.5 -16.5t33.5 -18.5q4 -2 7 -4t7 -4q5 -2 10 -5l10 -6q36 -21 70.5 -39.5t69.5 -29.5q18 -6 35.5 -9t34.5 -3q33 0 67.5 13.5t68.5 45.5l2 2t2 1l2 2l2 2l24 -31v0zM562 408q-28 80 -96.5 144t-154.5 64 q-18 0 -36 -3.5t-36 -10.5q-76 -29 -111 -97.5t-37 -145.5v-4.5v-4.5q0 -30 5 -59.5t14 -56.5q28 -79 96.5 -143.5t154.5 -64.5q12 0 24 1.5t24 4.5l12 4l12 4q76 29 111 97.5t37 145.5v4.5v4.5q0 30 -5 59.5t-14 56.5v0z" />
<glyph unicode="R" horiz-adv-x="660" d="M616 0h-158q-20 20 -38.5 49.5t-35.5 60.5q-2 4 -4 7.5t-4 6.5q-1 2 -2.5 4.5t-2.5 4.5q-30 55 -64.5 101t-84.5 49q-7 1 -15 1h-15h-5.5t-5.5 -1h-10h-10v-92.5v-93.5q0 -6 1.5 -12.5t3.5 -12.5q7 -19 22 -35t33 -16h7.5h7.5v-21h-231v21h6.5h7.5q19 0 34 16t22 35 q2 6 3.5 12.5t1.5 12.5v233v234q0 22 -15.5 39t-37.5 18q-4 1 -8.5 0.5t-9.5 -0.5h-4.5h-4.5v22h270q75 0 136.5 -50t61.5 -130q0 -57 -34.5 -101t-86.5 -64q21 -15 35.5 -35t28.5 -43q6 -10 12.5 -20t13.5 -20q2 -4 4.5 -7.5t5.5 -7.5q2 -2 3.5 -4.5t3.5 -5.5 q36 -52 74 -93t88 -41v-21v0zM337 365q21 20 30.5 44t9.5 49q0 52 -38.5 94t-99.5 42h-78v-268h6h6h6.5h7.5q41 -1 79.5 3.5t70.5 35.5v0z" />
<glyph unicode="S" horiz-adv-x="451" d="M370 260q14 -22 21 -45.5t7 -47.5q0 -36 -15 -69.5t-44 -59.5t-67 -39.5t-78 -13.5q-4 0 -8.5 0.5t-9.5 0.5q-22 2 -43.5 8t-40.5 17q-5 3 -10.5 4.5t-11.5 1.5q-10 0 -18.5 -6.5t-12.5 -17.5l-21 -1v153h21q4 -58 50.5 -90t102.5 -33h1.5h1.5q28 0 54.5 8.5t46.5 26.5 q20 17 29 36.5t9 38.5q0 36 -26.5 68.5t-63.5 50.5q-10 5 -19.5 9.5t-18.5 9.5q-4 1 -7 2.5t-6 3.5q-26 12 -51.5 25t-50.5 26q-48 26 -69.5 64t-21.5 79v1.5v1.5q2 67 53.5 122.5t134.5 55.5q8 0 19.5 -2t25.5 -4q5 -1 11 -2l12 -2q8 -1 16.5 -2t16.5 -1q13 0 23.5 2.5 t16.5 9.5v11h21v-154h-20q-9 50 -46.5 79t-80.5 32h-5.5h-4.5q-39 -1 -73 -23t-46 -69q-1 -7 -2.5 -14t-0.5 -14q0 -44 34.5 -71.5t76.5 -47.5q16 -8 32.5 -15t30.5 -14q4 -2 8.5 -4t8.5 -4q32 -15 60 -32.5t48 -49.5v0z" />
<glyph unicode="T" horiz-adv-x="664" d="M609 673l-24 -162v-1l-21 3v1.5t1 1.5v2v2q0 4 -0.5 8t-1.5 8q-6 20 -23 37t-38 17h-169v-493q0 -6 1.5 -12.5t3.5 -12.5q7 -19 21.5 -35t33.5 -16h15v-21h-232v21h15q18 0 33 16t22 35q2 6 3.5 12.5t1.5 12.5v493h-156h-2.5h-2.5q-21 -3 -39.5 -20.5t-25.5 -37.5 q-2 -5 -3 -10t-1 -10h-22v163l20 5q14 -23 33 -30t44 -7h410q27 0 47.5 8t36.5 30l19 -8v0z" />
<glyph unicode="U" horiz-adv-x="749" d="M730 621h-15q-19 0 -34 -16t-22 -35q-3 -6 -4 -12t-1 -12v-319q0 -107 -81 -169t-178 -71q-8 0 -15.5 -0.5t-15.5 -0.5t-15.5 0.5t-15.5 0.5q-97 9 -178 71t-81 169v319q0 6 -1 12t-4 12q-7 19 -22 35t-34 16h-14v22h58.5h59.5h58.5h58.5v-22h-19q-19 0 -33.5 -16 t-21.5 -35q-3 -6 -4 -12t-1 -12v-274q0 -99 51 -170t158 -71t158 71t51 170v274q0 6 -1 12t-4 12q-7 19 -21.5 35t-33.5 16h-20v22h118.5h118.5v-22v0z" />
<glyph unicode="V" horiz-adv-x="840" d="M819 621h-15h-1v0q-41 0 -72 -23.5t-47 -61.5l-235 -551h-33l-274 556q-2 3 -4 6.5t-4 7.5q-12 17 -31.5 32t-39.5 25q-10 4 -20 6.5t-19 2.5h-23v22h74h74h73h74v-22h-19h-5t-5 -1q-8 -1 -15 -4.5t-11 -10.5q-3 -4 -4 -8t-1 -9q0 -2 0.5 -4.5t0.5 -4.5q1 -5 3 -9.5 t4 -8.5l215 -438l167 389q3 7 4.5 14t2.5 14q1 3 1 7v7q0 9 -1.5 18t-6.5 16q-10 20 -29 26.5t-40 6.5h-11v22h273v-22v0z" />
<glyph unicode="W" horiz-adv-x="1076" d="M1050 621h-23q-37 0 -60.5 -26t-34.5 -58l-176 -537h-23l-207 489l-160 -489h-22l-230 542q-3 6 -7.5 13.5t-10.5 14.5q-11 13 -24.5 24.5t-27.5 19.5q-7 3 -14 5t-14 2h-15v22h125.5h124.5v-22h-14q-9 0 -17 -2.5t-13 -10.5q-3 -4 -4 -9t-1 -10v-4t1 -4q0 -5 2 -10.5 t4 -10.5l167 -390l118 361q2 7 3 14.5t1 14.5q0 9 -1.5 18t-6.5 16q-9 14 -23 20t-29 7h-2.5h-3.5h-18v22h123.5h123.5v-22h-10q-6 0 -11 -0.5t-10 -2.5q-13 -5 -19 -16.5t-7 -23.5v-3v-2q0 -9 2 -18t6 -18l154 -367l118 361q2 7 3 14t1 14v4.5t-1 4.5q0 7 -2.5 13.5 t-5.5 12.5q-9 16 -25 21.5t-33 5.5h-17v22h123.5h122.5v-22v0z" />
<glyph unicode="X" horiz-adv-x="736" d="M715 0h-288v21h31h2h2q6 1 12 4t9 9q1 2 1.5 3.5t0.5 3.5q1 1 1 3v3q0 8 -3.5 16t-8.5 15l-148 203l-137 -188q-5 -6 -7.5 -13.5t-2.5 -15.5q0 -5 1.5 -10.5t3.5 -10.5q5 -10 14 -16t20 -6h40v-21h-247v21h4q34 0 64 21.5t51 46.5q3 4 5.5 7.5t5.5 6.5l157 216l-174 239 q-19 27 -46.5 45t-62.5 18h-14v22h142.5h142.5v-22q0 -2 -1.5 -3t-4.5 -1q-2 0 -5 0.5t-6 1.5t-6 1.5t-5 0.5h-4h-5q-6 -1 -12 -4t-9 -10q-1 -2 -1.5 -5t-0.5 -6v-3.5t1 -3.5q1 -6 3.5 -12.5t6.5 -11.5l121 -165l120 165q4 5 6.5 11.5t3.5 12.5q1 2 1 3.5v3.5v6t-2 5 q-3 7 -10 10t-14 4h-3.5h-3.5h-27v22h125.5h124.5v-22h-4.5h-5.5h-2h-2h-7.5h-7.5q-40 0 -74 -21t-57 -52l-134 -185l189 -260q3 -3 5.5 -6.5t5.5 -7.5q21 -25 51 -46.5t64 -21.5h15v-21v0z" />
<glyph unicode="Y" horiz-adv-x="702" d="M687 621h-19q-30 0 -57.5 -17.5t-46.5 -39.5l-177 -213v-254q0 -6 1.5 -12.5t3.5 -12.5q7 -19 21.5 -35t33.5 -16h15v-21h-232v21h15q18 0 33 16t22 35q2 6 3.5 12.5t1.5 12.5v239l-189 228q-17 19 -41.5 34.5t-51.5 20.5q-5 1 -11 1.5t-11 0.5v22h290v-22h-47h-3.5h-3.5 q-5 -1 -9 -3t-6 -6q-1 -1 -1 -2.5v-3.5t0.5 -4.5t1.5 -4.5q1 -5 4 -10t6 -9q1 -1 2.5 -3t2.5 -3l141 -170l128 153q6 8 10 16t4 17q0 3 -0.5 6t-2.5 6q-4 10 -13.5 15.5t-20.5 5.5h-21v22h112.5h111.5v-22v0z" />
<glyph unicode="Z" horiz-adv-x="590" d="M549 643l-418 -610h217q10 0 20 1.5t20 3.5q39 10 71.5 37.5t32.5 69.5v34h35v-179h-532l418 610h-240h-2.5h-3.5q-43 -2 -79.5 -34.5t-36.5 -77.5v-23h-34v168h532v0z" />
<glyph unicode="[" />
<glyph unicode="\" horiz-adv-x="374" d="M-13 700h79l295 -940h-80l-294 940v0z" />
<glyph unicode="]" />
<glyph unicode="^" />
<glyph unicode="_" d="M0 0h500v-51q0 1 -37 1h-93h-58h-62h-172h-78v8v17v17.5v7.5v0z" />
<glyph unicode="`" horiz-adv-x="275" d="M162 703l-21 -26q-9 4 -18 8.5t-19 8.5q-3 1 -7 3t-8 3q-21 9 -41 19.5t-37 23.5q-9 7 -13 16.5t-3 19.5q0 8 2 14.5t6 12.5q7 9 16.5 13.5t19.5 3.5h4.5t4.5 -1q5 -1 9.5 -3t8.5 -5q17 -14 32 -32l30 -36q3 -4 5.5 -7.5t5.5 -7.5q6 -7 11.5 -14t11.5 -14v0z" />
<glyph unicode="a" horiz-adv-x="399" d="M368 28q-11 -19 -30.5 -29.5t-42.5 -10.5q-22 0 -41.5 10.5t-30.5 29.5q-16 -19 -39 -28.5t-47 -11.5h-4h-4h-4h-4q-40 2 -73.5 21.5t-33.5 65.5q0 47 37.5 73t82.5 38q21 6 41.5 9t36.5 4v40q0 39 -22 69t-64 30q-35 0 -63.5 -21.5t-36.5 -56.5l-21 2q0 61 47 98t104 37 t96.5 -37.5t39.5 -95.5v-176q0 -11 4.5 -21.5t13.5 -17.5q5 -3 10.5 -5t10.5 -3h4h4q5 0 9 0.5t8 1.5l12 -15v0zM212 79v87q-8 -1 -16.5 -2.5t-17.5 -3.5q-29 -9 -53.5 -28t-24.5 -51q0 -26 15.5 -40t41.5 -14q11 0 21.5 5t17.5 13q7 7 11.5 15.5t4.5 18.5v0z" />
<glyph unicode="b" horiz-adv-x="503" d="M458 192q0 -80 -55 -142t-138 -62q-79 0 -136 47.5t-57 129.5v384q0 23 -16.5 40t-39.5 17h-15v21h75h74v-270q25 19 54.5 29.5t60.5 10.5q83 0 138 -62.5t55 -142.5v0zM376 198q0 13 -2 28t-6 30q-11 39 -36 72t-67 33h-8.5t-9.5 -1q-26 -2 -51.5 -11t-45.5 -27v-237 q21 -26 45.5 -40t58.5 -14q42 0 70.5 34t41.5 74q5 16 7.5 31t2.5 28v0z" />
<glyph unicode="c" horiz-adv-x="436" d="M399 90q-29 -49 -80.5 -75.5t-108.5 -26.5q-85 0 -146 58t-61 146t61 146.5t146 58.5q43 0 81 -15t70 -43v-68h-19.5h-19.5l-5 34q-3 4 -6.5 7.5t-6.5 7.5q-19 21 -40 33t-53 12q-49 0 -77.5 -38t-36.5 -83q-2 -10 -3 -19.5t-1 -18.5q0 -67 45.5 -117t113.5 -50 q38 0 71 17.5t55 46.5h0.5t0.5 1h0.5h0.5l19 -14v0z" />
<glyph unicode="d" horiz-adv-x="523" d="M479 0l-154 -8v47q-25 -25 -58 -38t-70 -13q-83 0 -138 62t-55 142t55 142.5t138 62.5q37 0 70 -14t58 -38v207q0 24 -17 41t-40 17h-15v21h75.5h74.5v-555q0 -23 17 -37.5t37 -17.5q3 -1 5.5 -1h4.5h2t3 1h2h2l3 -21v0zM325 93v212q-19 25 -45.5 39.5t-57.5 14.5 q-57 0 -97.5 -47t-40.5 -113t40.5 -113t97.5 -47q31 0 57.5 14.5t45.5 39.5v0z" />
<glyph unicode="e" horiz-adv-x="427" d="M395 79q-31 -44 -79.5 -67.5t-101.5 -23.5q-85 0 -146.5 58t-61.5 146q0 87 55.5 146t141.5 59q71 0 117 -44t56 -113h-279q-1 -7 -1.5 -14.5t-0.5 -15.5q0 -6 0.5 -13t1.5 -13q6 -54 39 -99.5t95 -45.5q41 0 77.5 14t67.5 39l19 -13v0zM286 261q0 8 -2 17t-5 19 q-9 28 -29.5 51t-51.5 23q-30 0 -52 -24t-34 -52q-4 -9 -6.5 -17.5t-4.5 -16.5h185v0z" />
<glyph unicode="f" horiz-adv-x="399" d="M381 579q0 -7 -2 -14.5t-5 -12.5t-7.5 -8.5t-9.5 -4.5q-1 -1 -2.5 -1h-3.5q-6 0 -11.5 3t-10.5 9q-4 5 -6 10.5t-1 10.5v5.5t1 5.5v5v6q0 29 -18.5 50.5t-46.5 25.5q-1 0 -2.5 0.5t-2.5 0.5h-3h-3q-32 -1 -49.5 -25.5t-21.5 -53.5q0 -4 -0.5 -9t-0.5 -9v-189h97v-21h-97 v-266q0 -6 1.5 -12.5t3.5 -12.5q7 -19 22 -35t33 -16h15v-21h-114h-114v21h15q18 0 33 16t22 35q2 6 3.5 12.5t1.5 12.5v266h-98v21h98v147q0 65 43.5 112.5t109.5 47.5q6 0 12 -0.5t13 -1.5q39 -8 72.5 -37t33.5 -73v0z" />
<glyph unicode="g" horiz-adv-x="472" d="M433 339l-121 14q26 -22 41 -52t15 -64q0 -71 -56 -115.5t-124 -44.5q-17 0 -33.5 3t-32.5 8q-2 -1 -5 -2t-5 -2q-13 -6 -24 -16.5t-11 -25.5q0 -20 15.5 -30.5t33.5 -13.5q7 -2 13.5 -2.5t12.5 -0.5h4.5h4.5q7 0 14.5 0.5t15.5 0.5q34 0 67.5 -2.5t61.5 -12.5 q38 -13 62.5 -45t24.5 -87q0 -64 -56 -97t-123 -38q-6 -1 -12.5 -1h-12.5q-16 0 -35.5 2.5t-39.5 7.5q-47 13 -85.5 41.5t-38.5 77.5q0 34 20 57.5t49 37.5q-23 12 -38 33.5t-15 47.5q0 30 17.5 54t44.5 36q-32 22 -52.5 55.5t-20.5 73.5q0 70 55 114.5t121 45.5h1.5h1.5 q11 0 21.5 -1t20.5 -2q4 -1 7.5 -1.5t6.5 -0.5q18 -2 36 -3.5t35 -2.5q27 -1 54 -1.5t54 -0.5h10v-22.5v-22.5v0zM347 -160q0 17 -8 32.5t-29 26.5q-23 12 -65 18.5t-109 4.5h-13.5t-12.5 2q-21 -11 -33 -29.5t-12 -40.5v-6t1 -6q4 -33 32.5 -53t62.5 -29q15 -4 30 -6t28 -2 q9 0 19.5 1.5t21.5 3.5q32 8 59 28.5t28 55.5v-1zM271 259q-2 7 -5 14.5t-6 14.5q-13 27 -35.5 49.5t-51.5 21.5h-8t-9 -2q-27 -7 -40 -31t-15 -51q-1 -4 -1 -8v-8q0 -12 1.5 -23t4.5 -21q2 -7 4.5 -14.5t6.5 -14.5q13 -27 35.5 -49.5t51.5 -21.5q4 0 8.5 0.5t8.5 1.5 q27 7 39.5 31t14.5 51q1 4 1 8v8q0 12 -1.5 23t-3.5 21v0z" />
<glyph unicode="h" horiz-adv-x="558" d="M511 0h-114h-114v21h15q19 0 33.5 16t21.5 35q2 6 3.5 12.5t1.5 12.5v119q0 43 -29.5 75t-72.5 32q-41 0 -72 -29.5t-31 -70.5v-126q0 -6 1.5 -12.5t3.5 -12.5q7 -19 22 -35t33 -16h15v-21h-114h-113v21h14q19 0 34 16t22 35q2 6 3.5 12.5t1.5 12.5v455q0 24 -17 41 t-41 17h-14v21h74.5h74.5v-324q20 35 55.5 56t75.5 21q66 0 109 -49t43 -113v-125q0 -6 1.5 -12.5t3.5 -12.5q7 -19 22 -35t33 -16h15v-21v0z" />
<glyph unicode="i" horiz-adv-x="260" d="M226 0h-114h-113l-1 21h15q19 0 33.5 16t21.5 35q2 6 3.5 12.5t1.5 12.5v209q0 23 -17 40t-40 17h-15v21h75.5h74.5v-287q0 -6 1.5 -12.5t3.5 -12.5q7 -19 22 -35t33 -16h15v-21v0zM165 509q0 -24 -17 -41.5t-42 -17.5q-24 0 -41.5 17.5t-17.5 41.5t17.5 41.5t41.5 17.5 q25 0 42 -17.5t17 -41.5v0z" />
<glyph unicode="j" horiz-adv-x="216" d="M155 -107q0 -34 -8.5 -64t-25.5 -52q-15 -20 -37 -31t-52 -12q-13 -1 -25 2t-23 8l12 26q7 -7 16 -11t19 -4q13 1 21.5 8t13.5 18q6 13 8.5 31.5t2.5 39.5v435q0 6 -1.5 12.5t-3.5 12.5q-7 19 -22 35t-33 16h-15v21h153v-491v0zM156 509q0 -24 -17.5 -41.5t-41.5 -17.5 t-41.5 17.5t-17.5 41.5t17.5 41.5t41.5 17.5t41.5 -17.5t17.5 -41.5v0z" />
<glyph unicode="k" horiz-adv-x="518" d="M472 0h-112.5h-112.5v21q8 0 14.5 1.5t10.5 5.5q3 2 5 4t3 4t1.5 3.5t0.5 3.5q1 1 1 3v3q-1 9 -4.5 17.5t-8.5 15.5l-74 104l-42 -40v-49q0 -6 1.5 -12.5t3.5 -12.5q7 -19 22 -35t33 -16h15v-21h-114h-113v21h14q18 0 33.5 16t22.5 35q2 6 3.5 12.5t1.5 12.5v455 q0 24 -17 41t-41 17h-14v21h74.5h74.5v-446l133 127q4 4 5.5 8.5t1.5 8.5q0 2 -0.5 4.5t-1.5 4.5q-5 12 -16.5 18t-23.5 7h-4h-4h-12v21h197h0.5h1.5h1.5h0.5v-21q-8 0 -17 -2t-18 -5q-16 -6 -32 -15.5t-28 -20.5q-3 -2 -6 -4.5t-5 -4.5l-72 -69l107 -151q3 -4 7 -9l8 -10 q13 -14 29.5 -27t34.5 -19q6 -3 12 -4t12 -1h7v-21v0z" />
<glyph unicode="l" horiz-adv-x="270" d="M231 0h-114h-114v21h15q18 0 33 16t22 35q2 6 3.5 12.5t1.5 12.5v455q0 24 -16.5 41t-40.5 17h-15v21h75.5h74.5v-534q0 -6 1.5 -12.5t3.5 -12.5q7 -19 22 -35t33 -16h15v-21v0z" />
<glyph unicode="m" horiz-adv-x="814" d="M768 0h-114h-114v21h15q19 0 33.5 16t21.5 35q2 6 3.5 12.5t1.5 12.5v119q0 43 -26 75t-69 32q-33 0 -62.5 -19.5t-40.5 -48.5q1 -8 1.5 -16.5t0.5 -16.5l1 -125q0 -6 1.5 -12.5t3.5 -12.5q7 -19 21.5 -35t33.5 -16h15v-21h-114h-114v21h15q18 0 33 16t22 35 q2 6 3.5 12.5t1.5 12.5v119q0 43 -26 75t-70 32q-41 0 -68 -29.5t-27 -70.5v-126q0 -6 1.5 -12.5t3.5 -12.5q7 -19 22 -35t33 -16h15v-21h-114h-113l-1 21h15q19 0 34 16t22 35q2 6 3.5 12.5t1.5 12.5v209q0 23 -17 40t-41 17h-14v21h74.5h74.5v-77q20 35 51.5 56t72.5 21 q45 0 78.5 -24.5t50.5 -62.5q22 38 53.5 62.5t90.5 24.5q66 0 105.5 -49t39.5 -113v-125q0 -6 1.5 -12.5t3.5 -12.5q7 -19 21.5 -35t33.5 -16h15v-21v0z" />
<glyph unicode="n" horiz-adv-x="561" d="M514 0h-114h-114v21h15q19 0 33.5 16t21.5 35q2 6 3.5 12.5t1.5 12.5v119q0 43 -29.5 75t-72.5 32q-42 0 -72.5 -29.5t-30.5 -70.5v-126q0 -6 1.5 -12.5t3.5 -12.5q7 -19 22 -35t33 -16h15v-21h-114h-113v21h14q19 0 34 16t22 35q2 6 3.5 12.5t1.5 12.5v209q0 23 -17 40 t-41 17h-14v21h74.5h74.5v-77q20 35 55.5 56t75.5 21q66 0 109 -49t43 -113v-125q0 -6 1.5 -12.5t3.5 -12.5q7 -19 21.5 -35t33.5 -16h15v-21v0z" />
<glyph unicode="o" horiz-adv-x="494" d="M441 192q0 -89 -67 -146.5t-153 -57.5q-85 0 -152 57.5t-67 146.5t67 147t152 58q86 0 153 -58t67 -147v0zM345 223q-1 5 -3 9.5t-4 9.5q-17 42 -53 77.5t-83 34.5q-6 0 -12.5 -0.5t-13.5 -2.5q-44 -11 -64 -48t-22 -80v-3v-4q0 -14 2 -28t6 -27q1 -4 2 -7.5t3 -7.5 q16 -44 53 -80.5t85 -36.5h6t7 1q3 0 6 0.5t6 1.5q45 12 64.5 49.5t21.5 80.5v4v4v6.5v7.5q-1 10 -2.5 20t-4.5 19v0z" />
<glyph unicode="p" horiz-adv-x="523" d="M475 189q0 -80 -55 -142.5t-138 -62.5q-37 0 -69.5 13.5t-58.5 37.5v-213q0 -5 1.5 -11.5t3.5 -13.5q8 -18 22.5 -33.5t32.5 -15.5l15 -1v-21q-57 1 -114 1h-114v20h15q19 1 33.5 16.5t21.5 33.5q2 7 3.5 13.5t1.5 12.5v242.5v242.5q0 24 -18.5 39.5t-41.5 15.5h-13 l-3 21l154 22v-64q26 24 58.5 38t69.5 14q83 0 138 -62.5t55 -142.5v0zM395 196q0 66 -40.5 113t-97.5 47q-31 0 -57.5 -14.5t-45.5 -39.5v-212q19 -25 45.5 -39.5t57.5 -14.5q57 0 97.5 47t40.5 113v0z" />
<glyph unicode="q" horiz-adv-x="521" d="M474 -274q-57 1 -114 1h-114v20h15q19 1 33.5 16.5t21.5 33.5q2 7 3.5 13.5t1.5 12.5v212q-25 -24 -58 -37.5t-70 -13.5q-83 0 -138 62.5t-55 142.5t55 142.5t138 62.5q37 0 70 -14t58 -38v42h150v-21h-12q-22 0 -41 -15.5t-19 -39.5v-242.5v-242.5q0 -6 1.5 -12.5 t3.5 -13.5q7 -18 21.5 -33.5t33.5 -15.5l15 -1v-21v0zM321 90v212q-19 25 -45.5 39.5t-57.5 14.5q-57 0 -97.5 -47t-40.5 -113t40.5 -113t97.5 -47q31 0 57.5 14.5t45.5 39.5v0z" />
<glyph unicode="r" horiz-adv-x="367" d="M323 326q0 -22 -14.5 -39.5t-37.5 -17.5q-18 0 -31.5 13t-13.5 32q0 9 3.5 17t9.5 14q-4 2 -7.5 2h-8.5q-15 0 -28 -5.5t-23 -15.5q-7 -7 -12.5 -17t-7.5 -21v-192q0 -6 1.5 -12.5t3.5 -13.5q8 -18 22.5 -33.5t32.5 -15.5h15v-21h-114h-113l-1 21h15q18 0 32.5 15.5 t22.5 33.5q2 7 3.5 13.5t1.5 12.5v210q0 23 -17 40t-40 17h-15v21h150v-35q15 22 38 35t50 13h4h4q28 -3 51.5 -22t23.5 -49v0z" />
<glyph unicode="s" horiz-adv-x="329" d="M284 105q0 -26 -11.5 -48.5t-31.5 -38.5t-44 -22.5t-49 -8.5h-5.5h-5.5q-12 0 -23.5 1.5t-22.5 3.5q-10 2 -19.5 5t-18.5 8q-1 1 -3 2l-4 2q-1 1 -2.5 1.5t-2.5 1.5q-2 1 -4.5 1.5t-4.5 0.5h-2.5t-2.5 -2t-2 -4.5t-1 -5.5v-2v-2l-21 -1v118h21q0 -49 31.5 -75t79.5 -25 h4.5t5.5 1q25 3 45.5 21.5t20.5 45.5q0 24 -18.5 37.5t-43.5 25.5q-1 0 -2.5 0.5t-2.5 1.5q-6 3 -11.5 5.5t-11.5 5.5q-20 9 -39.5 20t-36.5 25q-18 16 -29.5 36t-11.5 45q0 24 10.5 44.5t29.5 35.5q20 17 44.5 24.5t49.5 7.5q20 0 39 -4.5t36 -14.5q1 0 2 -0.5t2 -1.5 q2 0 3.5 -0.5t3.5 -1.5q2 0 4 -0.5t4 -0.5q3 1 5 2t3 2q2 2 2 4.5v5.5h21v-88h-21q0 14 -8.5 25.5t-19.5 19.5q-14 11 -31.5 16.5t-35.5 5.5q-15 0 -29 -4.5t-25 -14.5q-10 -9 -16 -20.5t-6 -24.5q0 -12 7 -22t18 -18q9 -7 20 -13t23 -11q4 -2 7.5 -3.5t7.5 -3.5 q9 -4 19 -8.5t20 -8.5q34 -17 62.5 -43t28.5 -66v0z" />
<glyph unicode="t" horiz-adv-x="349" d="M306 103q0 -53 -35 -84t-88 -31h-5.5h-5.5q-41 4 -76 31.5t-35 72.5v271h-61v28l138 130v-137h141v-21h-141v-131.5v-130.5q0 -23 18.5 -39.5t40.5 -21.5q3 0 6.5 -0.5t6.5 -0.5q31 0 49 18.5t25 45.5h22v0z" />
<glyph unicode="u" horiz-adv-x="559" d="M510 0l-151 -7v69q-21 -36 -55.5 -55t-72.5 -20q-67 -2 -110.5 47t-43.5 114v33v36q-1 1 -1 1.5v1.5v34.5v32.5q0 6 -1.5 13t-4.5 14q-7 18 -21.5 33.5t-32.5 15.5h-15v21h153v-56.5v-58.5v-59.5v-56.5q0 -43 30 -74.5t73 -31.5q40 0 71 30t31 70v140q0 6 -1.5 13 t-4.5 14q-7 18 -21.5 33.5t-32.5 15.5h-15v21h153v-306q0 -22 16.5 -40.5t40.5 -17.5h2t5 1v0v0h4.5h2.5l2 -21v0z" />
<glyph unicode="v" horiz-adv-x="516" d="M470 363h-19q-21 0 -41 -16.5t-31 -35.5q-2 -4 -4 -7.5t-3 -7.5l-109 -296h-31l-34 74l-34 74q-17 36 -34 73l-34 74q-2 5 -5 10t-7 11q-12 17 -30 32t-38 15h-15v21h222v-11t0 1q0 1 0 0.5v-11.5q-4 0 -8 -1t-8 -3q-11 -5 -16.5 -16t-5.5 -23v-4.5t1 -4.5q0 -3 1 -5.5 t2 -4.5l86 -180q8 23 16.5 45t16.5 45q8 22 16.5 44.5t17.5 44.5q2 5 2.5 10t0.5 10q0 17 -9 30t-28 13h-22v21h184v-21v0z" />
<glyph unicode="w" horiz-adv-x="774" d="M728 363h-17q-21 0 -41 -16.5t-31 -35.5q-2 -4 -4 -7.5t-3 -7.5l-109 -296h-43l-119 302l-112 -302h-43q-14 37 -28.5 74t-28.5 74q-15 36 -29.5 73t-28.5 74l-4 8l-4 8q-12 20 -31 36t-41 16h-14v21h212v-21q-18 0 -27.5 -13t-9.5 -30q0 -5 1.5 -10t2.5 -10l76 -201 q19 50 37.5 100.5t37.5 100.5q1 3 2 5.5t1 5.5q1 3 1 5.5v5.5q0 17 -12 29t-34 12v21h198v-11t0 1q0 1 0 0.5v-11.5q-18 0 -27.5 -13t-9.5 -30q0 -5 1.5 -10t2.5 -10l76 -201q19 50 37.5 100.5t37.5 100.5q2 5 3 10t1 10q-1 17 -10 30t-28 13h-20v21h181v-21v0z" />
<glyph unicode="x" horiz-adv-x="517" d="M467 363h-8h-9q-10 0 -21 -3.5t-23 -9.5q-2 -2 -5 -3.5t-6 -3.5q-14 -8 -27.5 -19.5t-23.5 -22.5q-2 -2 -3.5 -4t-3.5 -4l-71 -88q2 -3 13.5 -20t25.5 -37q15 -21 27 -39l12 -18q4 -5 8 -10.5t10 -10.5q12 -13 27.5 -25t32.5 -18q6 -3 13 -4.5t13 -1.5h3.5h2.5v-21h-224 v21q19 -1 27 7.5t8 21.5q-1 8 -4 16t-8 16l-10 14t-10 15l-10 14l-10 14q-1 -1 -8 -10t-15 -19q-9 -11 -16 -20l-7 -9q-9 -11 -13.5 -22t-4.5 -19q0 -10 5 -14.5t15 -4.5h12h12v-21h-186v21h9.5h8.5q12 0 26 5.5t28 14.5q14 8 27.5 19.5t23.5 22.5q2 2 3.5 4t3.5 4 q8 9 15 18.5t15 18.5q7 9 14.5 18t14.5 18l-15 22.5t-29 41.5q-16 25 -30 45l-14 20q-10 14 -23.5 27.5t-29.5 23.5q-4 3 -8.5 5.5t-8.5 4.5q-9 4 -17.5 6.5t-16.5 2.5h-2.5h-3.5l-1 21h224v-21h-3.5h-3.5q-8 -1 -14.5 -4.5t-10.5 -10.5l-2 -6t-1 -6q0 -2 0.5 -3.5t0.5 -3.5 q2 -8 5 -15t7 -12q6 -9 12.5 -18t12.5 -18t12.5 -18t12.5 -18l14 18t15 19q7 9 14.5 18t15.5 18q1 2 3 4t3 4q3 5 5.5 10.5t4.5 10.5q1 4 1.5 7t0.5 6v2t-1 2q0 1 -0.5 2t-0.5 2q-2 6 -7.5 8t-11.5 2h-12h-11v21h185v-21v0z" />
<glyph unicode="y" horiz-adv-x="505" d="M460 363h-8.5h-9.5q-22 0 -41.5 -16.5t-30.5 -35.5q-2 -4 -4 -7.5t-3 -7.5l-68 -182t-68 -181q-28 -77 -75 -128.5t-124 -79.5v85q3 2 6 3t7 2q49 16 93.5 45.5t62.5 80.5l17 45q-29 77 -59 154.5t-60 154.5q-1 4 -3 8t-5 8q-11 20 -30 36t-41 16h-15v21h213v-21 q-19 0 -28.5 -13.5t-8.5 -30.5v-4.5t1 -4.5q0 -3 0.5 -5.5t1.5 -4.5l77 -201q18 50 36.5 100.5t37.5 100.5q2 5 3 10t1 10q-1 17 -10 30t-27 13h-8v21h170v-21v0z" />
<glyph unicode="z" horiz-adv-x="447" d="M389 0h-384l264 357h-127q-44 0 -72 -22t-34 -49q0 -3 -0.5 -6t-0.5 -6v-8v-9h-31v32v32v31v32h384l-264 -357h111q41 0 76.5 21.5t44.5 46.5q2 4 2.5 7.5t0.5 6.5v6v7v6v6h30v-67.5v-66.5v0z" />
<glyph unicode="{" />
<glyph unicode="|" />
<glyph unicode="}" />
<glyph unicode="~" />
<glyph unicode="&#xa1;" horiz-adv-x="116" d="M14 -63q2 32 4 63t5 63q5 48 12.5 95t16.5 93h21q9 -46 16.5 -93t11.5 -95q3 -32 5.5 -63t3.5 -62q3 -59 -3.5 -98t-17.5 -56q-6 -9 -12.5 -13.5t-14.5 -4.5q-2 0 -3.5 0.5t-3.5 0.5q-5 2 -10 6t-9 11q-11 17 -17.5 56t-4.5 98v-1zM8 373q0 22 15.5 37.5t37.5 15.5 t37 -15.5t15 -37.5t-15 -37.5t-37 -15.5t-37.5 15.5t-15.5 37.5v0z" />
<glyph unicode="&#xa2;" horiz-adv-x="436" d="M416 285q-26 -43 -69 -69.5t-92 -32.5v-184h-43v183q-79 5 -135.5 62.5t-56.5 141.5q0 85 56.5 142.5t135.5 62.5v63h43v-64q35 -4 65.5 -19t57.5 -38v-67h-19.5h-19.5l-5 33q-3 3 -5.5 6.5t-5.5 6.5q-15 17 -31 29t-37 16v-323h3.5h3.5q1 -1 3 -1h4q38 0 71 17.5 t55 46.5l0.5 0.5l0.5 0.5l0.5 0.5l0.5 0.5l19 -14v0zM212 244v314q-42 -6 -66.5 -42.5t-32.5 -78.5q-1 -9 -2 -18.5t-1 -18.5q0 -52 28 -95t74 -61v0z" />
<glyph unicode="&#xa3;" horiz-adv-x="495" d="M437 158q11 -15 20 -32t12 -35q2 -7 2.5 -13.5t0.5 -13.5q0 -24 -13 -44t-45 -28q-8 -2 -17 -3.5t-19 -1.5q-16 0 -33.5 3.5t-36.5 9.5l-71 26q-15 -16 -36 -24.5t-43 -11.5q-9 -2 -17.5 -2.5t-16.5 -0.5t-18 1t-20 3q-24 4 -44 16t-20 38v4.5t1 5.5q4 26 25.5 37.5 t46.5 12.5h2.5h3.5q11 0 21 -2t19 -4q10 -3 20 -6.5t20 -6.5t19.5 -6.5t19.5 -6.5q5 11 8 22.5t4 23.5q1 4 1 8v8q0 12 -2 24t-6 23q-7 23 -16.5 42.5t-20.5 38.5h-125v42h101q-20 36 -36 75.5t-20 93.5q-5 87 49 128t121 42h2.5h2.5q61 -1 110.5 -34t49.5 -93 q0 -22 -8.5 -47t-27.5 -54l-19 8q2 9 3 18t1 19v6v6q-4 52 -32 94t-71 38q-48 -4 -71.5 -35t-22.5 -72q0 -7 0.5 -14t1.5 -13q2 -7 3.5 -14t4.5 -14q4 -10 8 -19.5t8 -19.5q0 -2 1 -3.5t1 -3.5q10 -23 19 -45.5t16 -46.5h133v-42h-120q5 -17 7.5 -35t3.5 -37q2 -32 -3 -64.5 t-20 -65.5q25 -7 48 -11.5t43 -3.5q9 0 17.5 1t15.5 3q20 6 30.5 19t10.5 34q0 9 -2 19.5t-6 21.5l21 14v0zM199 40l-40 14q-6 2 -14 4t-16 2q-10 0 -19 -4.5t-11 -16.5v-0.5v-1.5v-1.5v-0.5q0 -9 9 -14.5t19 -6.5h16t16 2q11 3 21 8.5t19 15.5v0z" />
<glyph unicode="&#xa4;" horiz-adv-x="718" d="M685 -11l-21 -2q-3 12 -12.5 19t-20.5 7q-1 0 -2 -0.5t-2 -0.5q-2 0 -4 -0.5t-4 -1.5q-36 -15 -74 -23t-77 -7q-68 0 -133.5 24t-117.5 73q-42 40 -67.5 88t-33.5 100h-83l35 42h44v14.5t1 14.5h-76l36 42h45q10 48 34.5 93t64.5 82q52 49 117.5 72.5t134.5 23.5 q35 -1 70 -7t69 -17h1h3q2 -1 4 -1h5t6 0.5t6 0.5q6 2 12 6.5t9 13.5l20 -3v-165l-20 -3q-22 62 -74.5 93.5t-116.5 31.5q-96 0 -161 -66t-84 -155h341l-36 -42h-311v-5.5v-4.5q-1 -3 -1 -5.5v-5.5v-2v-2v-2v-2h288l-35 -42h-248q15 -92 81 -162.5t166 -70.5q67 0 119 30 t83 90l20 -5v-158v0z" />
<glyph unicode="&#xa5;" horiz-adv-x="755" d="M720 621h-19q-30 0 -57.5 -17.5t-46.5 -39.5l-155 -186h151v-42h-173v-29h173v-42h-173v-168q0 -6 1.5 -12.5t3.5 -12.5q7 -19 21.5 -35t33.5 -16h15v-21h-232v21h15q18 0 33 16t22 35q2 6 3.5 12.5t1.5 12.5v168h-176v42h176v29h-176v42h141l-154 186q-17 19 -41.5 34.5 t-51.5 20.5q-5 1 -11 1.5t-11 0.5v22h290v-22h-47h-3.5h-3.5q-5 -1 -9 -3t-6 -6q-1 -1 -1 -2.5v-3.5t0.5 -4.5t1.5 -4.5q1 -5 4 -10t6 -9q1 -1 2.5 -3t2.5 -3l141 -170l128 153q6 8 10 16t4 17q0 3 -0.5 6t-2.5 6q-4 10 -13.5 15.5t-20.5 5.5h-21v22h112.5h111.5v-22v0z" />
<glyph unicode="&#xa6;" />
<glyph unicode="&#xa7;" />
<glyph unicode="&#xa8;" horiz-adv-x="183" d="M8 694q0 14 9.5 23t22.5 9q14 0 23.5 -9t9.5 -23q0 -13 -9.5 -22.5t-23.5 -9.5q-13 0 -22.5 9.5t-9.5 22.5v0zM101 694q0 14 9.5 23t22.5 9t22.5 -9t9.5 -23q0 -13 -9.5 -22.5t-22.5 -9.5t-22.5 9.5t-9.5 22.5v0z" />
<glyph unicode="&#xa9;" />
<glyph unicode="&#xaa;" horiz-adv-x="200" d="M194 464q-5 -10 -15 -15.5t-21 -5.5t-21 6t-15 15q-8 -8 -18.5 -13.5t-21.5 -7.5h-3.5h-3.5h-2.5h-2.5q-20 1 -36.5 11.5t-16.5 33.5t18.5 36t41.5 19q10 3 20.5 4.5t18.5 2.5v20q0 20 -11 34.5t-32 14.5q-17 0 -31.5 -11t-18.5 -28l-10 1q0 31 23.5 49.5t51.5 18.5 q29 0 48.5 -19t19.5 -48v-88v-2v-2q1 -5 3 -9t6 -6q2 -1 3.5 -2t3.5 -1q2 -1 4 -1h3h4.5t4.5 1l6 -8v0zM116 490v43q-4 0 -8.5 -1t-8.5 -2q-15 -4 -27 -13.5t-12 -25.5q0 -13 8 -20t21 -7q5 0 10 2.5t9 6.5q4 3 6 7.5t2 9.5v0z" />
<glyph unicode="&#xab;" horiz-adv-x="241" d="M139 189l-15 -12l-114 125l113 125l16 -12l-58 -113l58 -113v0zM229 189l-15 -12l-114 125l113 125l16 -12l-58 -113l58 -113v0z" />
<glyph unicode="&#xac;" />
<glyph unicode="&#xad;" />
<glyph unicode="&#xae;" />
<glyph unicode="&#xaf;" horiz-adv-x="275" />
<glyph unicode="&#xb0;" />
<glyph unicode="&#xb1;" />
<glyph unicode="&#xb2;" />
<glyph unicode="&#xb3;" />
<glyph unicode="&#xb4;" horiz-adv-x="275" d="M191 806q5 -6 7.5 -13t1.5 -15q0 -10 -4.5 -19t-12.5 -16q-17 -13 -37 -23.5t-41 -19.5q-4 -1 -8 -3t-7 -3q-10 -4 -19 -8.5t-18 -8.5l-21 26q6 7 11.5 14t11.5 14q3 4 5.5 7.5t5.5 7.5l30 36t32 32q7 5 14.5 7.5t14.5 1.5q10 0 18.5 -4.5t15.5 -12.5v0z" />
<glyph unicode="&#xb5;" />
<glyph unicode="&#xb6;" />
<glyph unicode="&#xb7;" horiz-adv-x="275" />
<glyph unicode="&#xb8;" horiz-adv-x="275" d="M171 -93q-2 -28 -27.5 -43t-55.5 -21q-12 -2 -24 -3t-22 -1h-5h-5q-2 1 -4 1h-4l1 20q7 1 15 1t16 1q18 3 33.5 11.5t17.5 27.5q2 20 -11 29.5t-29 15.5q-3 0 -5.5 1t-5.5 2l60 81h1l17 -12l-30 -42q4 0 8.5 -2t9.5 -4q19 -9 35 -24t14 -38v-1z" />
<glyph unicode="&#xb9;" />
<glyph unicode="&#xba;" horiz-adv-x="247" d="M233 546q0 -44 -33.5 -73.5t-76.5 -29.5t-76.5 29.5t-33.5 73.5q0 45 33.5 74t76.5 29t76.5 -29t33.5 -74v0zM185 562q-1 2 -1.5 4.5t-1.5 5.5q-9 21 -27.5 38.5t-42.5 17.5q-3 0 -6 -0.5t-6 -1.5q-21 -6 -31 -23.5t-12 -37.5v-3.5v-3.5q0 -7 1.5 -14t2.5 -13l2 -6t2 -5 q9 -21 27 -38.5t41 -17.5q3 0 6 0.5t6 1.5q21 6 31 24t12 39v3.5v3.5q0 7 -0.5 13.5t-2.5 12.5v0z" />
<glyph unicode="&#xbb;" horiz-adv-x="241" d="M9 189l58 113l-58 113l16 12l113 -125l-114 -125l-15 12v0zM99 189l58 113l-58 113l16 12l113 -125l-114 -125l-15 12v0z" />
<glyph unicode="&#xbc;" />
<glyph unicode="&#xbd;" />
<glyph unicode="&#xbe;" />
<glyph unicode="&#xbf;" horiz-adv-x="321" d="M13 -96q0 53 28.5 85t63.5 61l2 2l2 2q2 1 3.5 2.5l2.5 2.5q31 25 57 54t30 73q1 10 1 19.5t-2 18.5l33 7q1 -2 1.5 -4.5t1.5 -4.5q0 -2 0.5 -4t1.5 -4q3 -11 4 -22t1 -21q0 -7 -0.5 -13.5t-1.5 -12.5q-6 -36 -26.5 -62t-43.5 -49l-3.5 -3.5l-3.5 -3.5l-6.5 -6.5 l-6.5 -6.5q-19 -19 -34 -40t-19 -47q0 -3 -0.5 -6t-0.5 -6q-1 -2 -1 -5v-6q0 -29 13.5 -55t42.5 -37q4 -2 8.5 -3t8.5 -2q4 0 8.5 -0.5t8.5 -0.5q26 0 49.5 13t39.5 35l20 -11q-18 -39 -54.5 -62.5t-80.5 -23.5q-61 0 -104.5 43t-43.5 105v-1zM156 347q0 22 15.5 37.5 t37.5 15.5t37 -15.5t15 -37.5t-15 -37.5t-37 -15.5t-37.5 15.5t-15.5 37.5v0z" />
<glyph unicode="&#xc0;" horiz-adv-x="687" d="M669 0h-237v21h15q10 0 19 4.5t14 11.5q3 3 4.5 6.5t1.5 7.5q1 2 1 3.5v3.5q0 3 -0.5 6t-1.5 6l-66 170h-226l-47 -139q-1 -3 -1.5 -5.5t-0.5 -5.5q-1 -3 -1 -5.5v-5.5q0 -17 9.5 -32t28.5 -22q6 -1 13.5 -2.5t15.5 -1.5v-21h-210v21h15q5 0 11 1.5t12 4.5q14 7 28 19.5 t24 26.5q5 7 8.5 14t5.5 13l182 543h64l210 -543q3 -6 7 -13.5t10 -14.5q10 -12 22.5 -23.5t26.5 -19.5q7 -3 14 -5.5t14 -2.5h15v-21v0zM401 286l-103 264l-89 -264h192v0zM338 693l-21 -26q-9 4 -18 8.5t-19 8.5q-3 1 -7 3t-8 3q-21 9 -41 19.5t-37 23.5q-9 7 -13.5 16.5 t-3.5 19.5q0 8 2.5 14.5t6.5 12.5q7 9 16.5 13.5t19.5 3.5h4.5t4.5 -1q5 -1 9.5 -3t8.5 -5q17 -14 32 -32l30 -36q3 -4 5.5 -7.5t5.5 -7.5q6 -7 11.5 -14t11.5 -14v0z" />
<glyph unicode="&#xc1;" horiz-adv-x="687" d="M669 0h-237v21h15q10 0 19 4.5t14 11.5q3 3 4.5 6.5t1.5 7.5q1 2 1 3.5v3.5q0 3 -0.5 6t-1.5 6l-66 170h-226l-47 -139q-1 -3 -1.5 -5.5t-0.5 -5.5q-1 -3 -1 -5.5v-5.5q0 -17 9.5 -32t28.5 -22q6 -1 13.5 -2.5t15.5 -1.5v-21h-210v21h15q5 0 11 1.5t12 4.5q14 7 28 19.5 t24 26.5q5 7 8.5 14t5.5 13l182 543h64l210 -543q3 -6 7 -13.5t10 -14.5q10 -12 22.5 -23.5t26.5 -19.5q7 -3 14 -5.5t14 -2.5h15v-21v0zM401 286l-103 264l-89 -264h192v0zM471 796q5 -6 7.5 -13t1.5 -15q0 -10 -4.5 -19t-12.5 -16q-17 -13 -37 -23.5t-41 -19.5 q-4 -1 -8 -3t-7 -3q-10 -4 -19 -8.5t-18 -8.5l-21 26q6 7 11.5 14t11.5 14q3 4 5.5 7.5t5.5 7.5l30 36t32 32q7 5 14.5 7.5t14.5 1.5q10 0 18.5 -4.5t15.5 -12.5v0z" />
<glyph unicode="&#xc2;" horiz-adv-x="687" d="M669 0h-237v21h15q10 0 19 4.5t14 11.5q3 3 4.5 6.5t1.5 7.5q1 2 1 3.5v3.5q0 3 -0.5 6t-1.5 6l-66 170h-226l-47 -139q-1 -3 -1.5 -5.5t-0.5 -5.5q-1 -3 -1 -5.5v-5.5q0 -17 9.5 -32t28.5 -22q6 -1 13.5 -2.5t15.5 -1.5v-21h-210v21h15q5 0 11 1.5t12 4.5q14 7 28 19.5 t24 26.5q5 7 8.5 14t5.5 13l182 543h64l210 -543q3 -6 7 -13.5t10 -14.5q10 -12 22.5 -23.5t26.5 -19.5q7 -3 14 -5.5t14 -2.5h15v-21v0zM401 286l-103 264l-89 -264h192v0zM446 656l-12 -15l-113 58l-113 -58l-12 16l125 113l125 -114v0z" />
<glyph unicode="&#xc3;" horiz-adv-x="687" d="M669 0h-237v21h15q10 0 19 4.5t14 11.5q3 3 4.5 6.5t1.5 7.5q1 2 1 3.5v3.5q0 3 -0.5 6t-1.5 6l-66 170h-226l-47 -139q-1 -3 -1.5 -5.5t-0.5 -5.5q-1 -3 -1 -5.5v-5.5q0 -17 9.5 -32t28.5 -22q6 -1 13.5 -2.5t15.5 -1.5v-21h-210v21h15q5 0 11 1.5t12 4.5q14 7 28 19.5 t24 26.5q5 7 8.5 14t5.5 13l182 543h64l210 -543q3 -6 7 -13.5t10 -14.5q10 -12 22.5 -23.5t26.5 -19.5q7 -3 14 -5.5t14 -2.5h15v-21v0zM401 286l-103 264l-89 -264h192v0zM427 736q-1 -5 -2 -11t-3 -12q-5 -22 -23 -36.5t-41 -14.5h-3.5t-3.5 1q-2 0 -3.5 0.5t-3.5 0.5 q-11 3 -22.5 5.5t-22.5 5.5q-12 2 -23.5 4.5t-22.5 5.5q-1 0 -2 0.5t-2 0.5h-2h-2q-10 -1 -15.5 -9t-7.5 -19l-21 5q2 5 3.5 11t2.5 12q5 23 23.5 37t40.5 14h3.5t3.5 -1q2 0 3.5 -0.5t3.5 -0.5q23 -5 45.5 -10.5t44.5 -10.5q2 -1 4.5 -1h3.5q11 0 16.5 9t7.5 19l20 -5v0z " />
<glyph unicode="&#xc4;" horiz-adv-x="687" d="M669 0h-237v21h15q10 0 19 4.5t14 11.5q3 3 4.5 6.5t1.5 7.5q1 2 1 3.5v3.5q0 3 -0.5 6t-1.5 6l-66 170h-226l-47 -139q-1 -3 -1.5 -5.5t-0.5 -5.5q-1 -3 -1 -5.5v-5.5q0 -17 9.5 -32t28.5 -22q6 -1 13.5 -2.5t15.5 -1.5v-21h-210v21h15q5 0 11 1.5t12 4.5q14 7 28 19.5 t24 26.5q5 7 8.5 14t5.5 13l182 543h64l210 -543q3 -6 7 -13.5t10 -14.5q10 -12 22.5 -23.5t26.5 -19.5q7 -3 14 -5.5t14 -2.5h15v-21v0zM401 286l-103 264l-89 -264h192v0zM239 691q0 14 9.5 23t22.5 9q14 0 23.5 -9t9.5 -23q0 -13 -9.5 -22.5t-23.5 -9.5q-13 0 -22.5 9.5 t-9.5 22.5v0zM332 691q0 14 9.5 23t22.5 9t22.5 -9t9.5 -23q0 -13 -9.5 -22.5t-22.5 -9.5t-22.5 9.5t-9.5 22.5v0z" />
<glyph unicode="&#xc5;" horiz-adv-x="687" d="M669 0h-237v21h15q10 0 19 4.5t14 11.5q3 3 4.5 6.5t1.5 7.5q1 2 1 3.5v3.5q0 3 -0.5 6t-1.5 6l-66 170h-226l-47 -139q-1 -3 -1.5 -5.5t-0.5 -5.5q-1 -3 -1 -5.5v-5.5q0 -17 9.5 -32t28.5 -22q6 -1 13.5 -2.5t15.5 -1.5v-21h-210v21h15q5 0 11 1.5t12 4.5q14 7 28 19.5 t24 26.5q5 7 8.5 14t5.5 13l182 543h64l210 -543q3 -6 7 -13.5t10 -14.5q10 -12 22.5 -23.5t26.5 -19.5q7 -3 14 -5.5t14 -2.5h15v-21v0zM401 286l-103 264l-89 -264h192v0zM405 736q0 -33 -23.5 -56t-55.5 -23q-33 0 -56.5 23t-23.5 56t23.5 56t56.5 23q32 0 55.5 -23 t23.5 -56v0zM378 736q0 22 -15 37.5t-37 15.5t-37.5 -15.5t-15.5 -37.5t15.5 -37.5t37.5 -15.5t37 15.5t15 37.5v0z" />
<glyph unicode="&#xc6;" horiz-adv-x="930" d="M879 134l-34 -134h-451v21h15q18 0 32.5 15.5t22.5 33.5q2 7 3.5 13.5t1.5 12.5v210h-170l-126 -207q-2 -3 -3.5 -6.5t-2.5 -6.5q-2 -7 -3.5 -13.5t-1.5 -12.5q0 -10 4 -18t12 -13q7 -4 15.5 -6t19.5 -2v-21h-209v21h15q9 0 20 4t22 11q13 7 25 17t22 21q8 7 13.5 14.5 t9.5 13.5l286 477q-1 8 -5 14t-9 11q-8 8 -18.5 12.5t-22.5 4.5h-14v21h488v-112h-21q0 29 -20 49t-49 20h-195v-249h172q29 0 49 20.5t20 48.5h21v-182h-21q0 29 -20 49t-49 20h-172v-188q0 -6 1.5 -12.5t3.5 -13.5q8 -18 22.5 -33.5t32.5 -15.5l134 -1q38 0 70.5 29.5 t42.5 64.5q0 1 0.5 1.5t0.5 1.5l20 -5v0zM469 350v239l-144 -239h144v0z" />
<glyph unicode="&#xc7;" horiz-adv-x="631" d="M381 -114q-2 -28 -27.5 -43t-55.5 -21q-12 -2 -24 -3t-22 -1h-5h-5q-2 1 -4 1h-4l1 20q7 1 15 1t16 1q18 3 33.5 11.5t17.5 27.5q2 20 -11 29.5t-29 15.5q-3 0 -5.5 1t-5.5 2l60 81h1l17 -12l-30 -42q4 0 8.5 -2t9.5 -4q19 -9 35 -24t14 -38v-1zM576 66 q-42 -34 -94.5 -55t-107.5 -24q-6 -1 -11.5 -1h-10.5q-134 1 -241.5 95.5t-107.5 239.5q0 146 108.5 241.5t248.5 95.5q35 0 70 -6.5t69 -20.5q3 -1 6 -1.5t6 -0.5q6 0 12 1.5t10 4.5t7 7.5t4 8.5l21 -3v-162h-23q-10 29 -28 49.5t-40 35.5q-21 13 -44.5 21t-47.5 11 q-7 1 -14 1.5t-14 0.5q-113 0 -182.5 -88.5t-69.5 -195.5v-1.5v-1.5q1 -105 70.5 -192.5t181.5 -87.5q65 0 116.5 29t82.5 85h23v-86v0z" />
<glyph unicode="&#xc8;" horiz-adv-x="533" d="M485 134l-34 -134h-451v21h15q18 0 33 16t22 35q2 6 3.5 12.5t1.5 12.5v467q0 24 -16.5 40.5t-40.5 16.5h-15v22h440v-113h-22q0 29 -20 49t-49 20h-195v-249h172q29 0 49 20.5t20 48.5h21v-182h-21q0 29 -20 49.5t-49 20.5h-172v-189q0 -4 0.5 -7.5t1.5 -7.5 q5 -23 24 -41.5t49 -18.5h119q39 0 72 30t42 66l20 -5v0zM282 691l-21 -26q-9 4 -18 8.5t-19 8.5q-3 1 -7 3t-8 3q-21 9 -41 19.5t-37 23.5q-9 7 -13.5 16.5t-3.5 19.5q0 8 2.5 14.5t6.5 12.5q7 9 16.5 13.5t19.5 3.5h4.5t4.5 -1q5 -1 9.5 -3t8.5 -5q17 -14 32 -32l30 -36 q3 -4 5.5 -7.5t5.5 -7.5q6 -7 11.5 -14t11.5 -14v0z" />
<glyph unicode="&#xc9;" horiz-adv-x="533" d="M485 134l-34 -134h-451v21h15q18 0 33 16t22 35q2 6 3.5 12.5t1.5 12.5v467q0 24 -16.5 40.5t-40.5 16.5h-15v22h440v-113h-22q0 29 -20 49t-49 20h-195v-249h172q29 0 49 20.5t20 48.5h21v-182h-21q0 29 -20 49.5t-49 20.5h-172v-189q0 -4 0.5 -7.5t1.5 -7.5 q5 -23 24 -41.5t49 -18.5h119q39 0 72 30t42 66l20 -5v0zM389 794q5 -6 7.5 -13t1.5 -15q0 -10 -4.5 -19t-12.5 -16q-17 -13 -37 -23.5t-41 -19.5q-4 -1 -8 -3t-7 -3q-10 -4 -19 -8.5t-18 -8.5l-21 26q6 7 11.5 14t11.5 14q3 4 5.5 7.5t5.5 7.5l30 36t32 32q7 5 14.5 7.5 t14.5 1.5q10 0 18.5 -4.5t15.5 -12.5v0z" />
<glyph unicode="&#xca;" horiz-adv-x="533" d="M485 134l-34 -134h-451v21h15q18 0 33 16t22 35q2 6 3.5 12.5t1.5 12.5v467q0 24 -16.5 40.5t-40.5 16.5h-15v22h440v-113h-22q0 29 -20 49t-49 20h-195v-249h172q29 0 49 20.5t20 48.5h21v-182h-21q0 29 -20 49.5t-49 20.5h-172v-189q0 -4 0.5 -7.5t1.5 -7.5 q5 -23 24 -41.5t49 -18.5h119q39 0 72 30t42 66l20 -5v0zM356 670l-12 -15l-113 58l-113 -58l-12 16l125 113l125 -114v0z" />
<glyph unicode="&#xcb;" horiz-adv-x="533" d="M485 134l-34 -134h-451v21h15q18 0 33 16t22 35q2 6 3.5 12.5t1.5 12.5v467q0 24 -16.5 40.5t-40.5 16.5h-15v22h440v-113h-22q0 29 -20 49t-49 20h-195v-249h172q29 0 49 20.5t20 48.5h21v-182h-21q0 29 -20 49.5t-49 20.5h-172v-189q0 -4 0.5 -7.5t1.5 -7.5 q5 -23 24 -41.5t49 -18.5h119q39 0 72 30t42 66l20 -5v0zM164 691q0 14 9.5 23t22.5 9q14 0 23.5 -9t9.5 -23q0 -13 -9.5 -22.5t-23.5 -9.5q-13 0 -22.5 9.5t-9.5 22.5v0zM257 691q0 14 9.5 23t22.5 9t22.5 -9t9.5 -23q0 -13 -9.5 -22.5t-22.5 -9.5t-22.5 9.5t-9.5 22.5v0z " />
<glyph unicode="&#xcc;" horiz-adv-x="263" d="M230 0h-115.5h-114.5l-1 21h14q18 0 33.5 16t22.5 35q2 6 3.5 12.5t1.5 12.5v467q0 23 -17 40t-40 17h-7.5h-7.5v22h112.5h112.5v-22h-7.5h-7.5q-23 0 -40 -17t-17 -40v-467q0 -6 1.5 -12.5t3.5 -12.5q7 -19 22 -35t34 -16h14v-21v0zM152 695l-21 -26q-9 4 -18 8.5 t-19 8.5q-3 1 -7 3t-8 3q-21 9 -41 19.5t-37 23.5q-8 7 -12.5 16.5t-3.5 19.5q0 8 2 14.5t7 12.5q6 9 15.5 13.5t19.5 3.5h4.5t4.5 -1q5 -1 9.5 -3t8.5 -5q17 -14 32 -32l30 -36q3 -4 5.5 -7.5t5.5 -7.5q6 -7 11.5 -14t11.5 -14v0z" />
<glyph unicode="&#xcd;" horiz-adv-x="263" d="M230 0h-115.5h-114.5l-1 21h14q18 0 33.5 16t22.5 35q2 6 3.5 12.5t1.5 12.5v467q0 23 -17 40t-40 17h-7.5h-7.5v22h112.5h112.5v-22h-7.5h-7.5q-23 0 -40 -17t-17 -40v-467q0 -6 1.5 -12.5t3.5 -12.5q7 -19 22 -35t34 -16h14v-21v0zM271 800q5 -6 7.5 -13t1.5 -15 q0 -10 -4.5 -19t-12.5 -16q-17 -13 -37 -23.5t-41 -19.5q-4 -1 -8 -3t-7 -3q-10 -4 -19 -8.5t-18 -8.5l-21 26q6 7 11.5 14t11.5 14q3 4 5.5 7.5t5.5 7.5l30 36t32 32q7 5 14.5 7.5t14.5 1.5q10 0 18.5 -4.5t15.5 -12.5v0z" />
<glyph unicode="&#xce;" horiz-adv-x="263" d="M230 0h-115.5h-114.5l-1 21h14q18 0 33.5 16t22.5 35q2 6 3.5 12.5t1.5 12.5v467q0 23 -17 40t-40 17h-7.5h-7.5v22h112.5h112.5v-22h-7.5h-7.5q-23 0 -40 -17t-17 -40v-467q0 -6 1.5 -12.5t3.5 -12.5q7 -19 22 -35t34 -16h14v-21v0zM240 672l-12 -15l-113 58l-113 -58 l-12 16l125 113l125 -114v0z" />
<glyph unicode="&#xcf;" horiz-adv-x="263" d="M230 0h-115.5h-114.5l-1 21h14q18 0 33.5 16t22.5 35q2 6 3.5 12.5t1.5 12.5v467q0 23 -17 40t-40 17h-7.5h-7.5v22h112.5h112.5v-22h-7.5h-7.5q-23 0 -40 -17t-17 -40v-467q0 -6 1.5 -12.5t3.5 -12.5q7 -19 22 -35t34 -16h14v-21v0zM38 694q0 14 9.5 23t22.5 9 q14 0 23.5 -9t9.5 -23q0 -13 -9.5 -22.5t-23.5 -9.5q-13 0 -22.5 9.5t-9.5 22.5v0zM131 694q0 14 9.5 23t22.5 9t22.5 -9t9.5 -23q0 -13 -9.5 -22.5t-22.5 -9.5t-22.5 9.5t-9.5 22.5v0z" />
<glyph unicode="&#xd0;" horiz-adv-x="775" d="M104 306h-104v55h104v185q0 6 -1.5 12.5t-3.5 13.5q-8 18 -22.5 33.5t-32.5 15.5h-46v22h409q131 0 221 -96.5t90 -225.5t-90 -225t-221 -96h-385v21h25q23 0 40 17t17 40v228v0zM185 361h136v-55h-136v-188q0 -30 17.5 -48t39.5 -24q5 -2 9.5 -2.5t9.5 -0.5h19.5h16.5 h16.5h19.5q118 0 203.5 80t85.5 198q0 119 -85.5 202t-203.5 83h-148v-245v0z" />
<glyph unicode="&#xd1;" horiz-adv-x="835" d="M773 621h-31q-19 0 -34.5 -16t-22.5 -35q-2 -6 -3.5 -12t-1.5 -12v-546h-32l-475 521v-424q0 -6 1.5 -12.5t3.5 -12.5q7 -19 22 -35t33 -16h37v-21h-56h-55h-56h-56v21h24q18 0 33 16t22 35q2 6 3.5 12.5t1.5 12.5v468q-27 26 -59.5 41t-70.5 15v22h185l454 -494v397 q0 6 -1 12t-4 12q-7 19 -22 35t-34 16h-36v22h230v-22v0zM511 715q-1 -5 -2 -11t-3 -12q-5 -22 -23 -36.5t-41 -14.5h-3.5t-3.5 1q-2 0 -3.5 0.5t-3.5 0.5q-11 3 -22.5 5.5t-22.5 5.5q-12 2 -23.5 4.5t-22.5 5.5q-1 0 -2 0.5t-2 0.5h-2h-2q-10 -1 -15.5 -9t-7.5 -19l-21 5 q2 5 3.5 11t2.5 12q5 23 23.5 37t40.5 14h3.5t3.5 -1q2 0 3.5 -0.5t3.5 -0.5q23 -5 45.5 -10.5t44.5 -10.5q2 -1 4.5 -1h3.5q11 0 16.5 9t7.5 19l20 -5v0z" />
<glyph unicode="&#xd2;" horiz-adv-x="275" />
<glyph unicode="&#xd3;" horiz-adv-x="729" d="M670 321q0 -137 -98.5 -236t-236.5 -99q-137 0 -236 99t-99 236q0 138 99 237.5t236 99.5q138 0 236.5 -99.5t98.5 -237.5v0zM561 408q-28 80 -96.5 144t-154.5 64q-11 0 -23.5 -1.5t-24.5 -4.5l-12 -4l-12 -4q-76 -29 -111 -97.5t-37 -145.5v-4.5v-4.5q0 -30 5 -59.5 t14 -56.5q28 -79 97 -143.5t154 -64.5q18 0 36 3.5t36 10.5q76 29 111 97.5t37 145.5v4.5v4.5q0 30 -5 59.5t-14 56.5v0zM471 810q5 -6 7.5 -13t1.5 -15q0 -10 -4.5 -19t-12.5 -16q-17 -13 -37 -23.5t-41 -19.5q-4 -1 -8 -3t-7 -3q-10 -4 -19 -8.5t-18 -8.5l-21 26 q6 7 11.5 14t11.5 14q3 4 5.5 7.5t5.5 7.5l30 36t32 32q7 5 14.5 7.5t14.5 1.5q10 0 18.5 -4.5t15.5 -12.5v0z" />
<glyph unicode="&#xd4;" horiz-adv-x="729" d="M670 321q0 -137 -98.5 -236t-236.5 -99q-137 0 -236 99t-99 236q0 138 99 237.5t236 99.5q138 0 236.5 -99.5t98.5 -237.5v0zM561 408q-28 80 -96.5 144t-154.5 64q-11 0 -23.5 -1.5t-24.5 -4.5l-12 -4l-12 -4q-76 -29 -111 -97.5t-37 -145.5v-4.5v-4.5q0 -30 5 -59.5 t14 -56.5q28 -79 97 -143.5t154 -64.5q18 0 36 3.5t36 10.5q76 29 111 97.5t37 145.5v4.5v4.5q0 30 -5 59.5t-14 56.5v0zM462 672l-12 -15l-113 58l-113 -58l-12 16l125 113l125 -114v0z" />
<glyph unicode="&#xd5;" horiz-adv-x="729" d="M670 321q0 -137 -98.5 -236t-236.5 -99q-137 0 -236 99t-99 236q0 138 99 237.5t236 99.5q138 0 236.5 -99.5t98.5 -237.5v0zM561 408q-28 80 -96.5 144t-154.5 64q-11 0 -23.5 -1.5t-24.5 -4.5l-12 -4l-12 -4q-76 -29 -111 -97.5t-37 -145.5v-4.5v-4.5q0 -30 5 -59.5 t14 -56.5q28 -79 97 -143.5t154 -64.5q18 0 36 3.5t36 10.5q76 29 111 97.5t37 145.5v4.5v4.5q0 30 -5 59.5t-14 56.5v0zM430 754q-1 -5 -2 -11t-3 -12q-5 -22 -23 -36.5t-41 -14.5h-3.5t-3.5 1q-2 0 -3.5 0.5t-3.5 0.5q-11 3 -22.5 5.5t-22.5 5.5q-12 2 -23.5 4.5 t-22.5 5.5q-1 0 -2 0.5t-2 0.5h-2h-2q-10 -1 -15.5 -9t-7.5 -19l-21 5q2 5 3.5 11t2.5 12q5 23 23.5 37t40.5 14h3.5t3.5 -1q2 0 3.5 -0.5t3.5 -0.5q23 -5 45.5 -10.5t44.5 -10.5q2 -1 4.5 -1h3.5q11 0 16.5 9t7.5 19l20 -5v0z" />
<glyph unicode="&#xd6;" horiz-adv-x="729" d="M670 321q0 -137 -98.5 -236t-236.5 -99q-137 0 -236 99t-99 236q0 138 99 237.5t236 99.5q138 0 236.5 -99.5t98.5 -237.5v0zM561 408q-28 80 -96.5 144t-154.5 64q-11 0 -23.5 -1.5t-24.5 -4.5l-12 -4l-12 -4q-76 -29 -111 -97.5t-37 -145.5v-4.5v-4.5q0 -30 5 -59.5 t14 -56.5q28 -79 97 -143.5t154 -64.5q18 0 36 3.5t36 10.5q76 29 111 97.5t37 145.5v4.5v4.5q0 30 -5 59.5t-14 56.5v0zM245 711q0 14 9.5 23t22.5 9q14 0 23.5 -9t9.5 -23q0 -13 -9.5 -22.5t-23.5 -9.5q-13 0 -22.5 9.5t-9.5 22.5v0zM338 711q0 14 9.5 23t22.5 9t22.5 -9 t9.5 -23q0 -13 -9.5 -22.5t-22.5 -9.5t-22.5 9.5t-9.5 22.5v0z" />
<glyph unicode="&#xd7;" />
<glyph unicode="&#xd8;" horiz-adv-x="726" d="M675 321q0 -137 -98.5 -236t-236.5 -99q-64 0 -120.5 22t-100.5 62l-84 -84l-30 30l83 84q-39 45 -61 101.5t-22 119.5q0 138 98.5 237.5t236.5 99.5q63 0 120 -23t101 -62l83 83l30 -31l-83 -83q39 -44 61.5 -101t22.5 -120v0zM565 408q-6 19 -15 37.5t-20 35.5 l-355 -355q37 -43 86 -71.5t104 -28.5q17 0 35 3.5t36 10.5q77 30 112.5 99.5t35.5 146.5v2.5v2.5q0 31 -5 60.5t-14 56.5v0zM504 516q-37 44 -85.5 72t-104.5 28q-17 0 -35 -3.5t-36 -10.5q-76 -29 -111 -97.5t-37 -145.5v-4.5v-4.5q0 -30 5 -59.5t14 -56.5q6 -19 15 -37.5 t20 -35.5l355 355v0z" />
<glyph unicode="&#xd9;" horiz-adv-x="782" d="M730 621h-15q-19 0 -34 -16t-22 -35q-3 -6 -4 -12t-1 -12v-319q0 -107 -81 -169t-178 -71q-8 0 -15.5 -0.5t-15.5 -0.5t-15.5 0.5t-15.5 0.5q-97 9 -178 71t-81 169v319q0 6 -1 12t-4 12q-7 19 -22 35t-34 16h-14v22h58.5h59.5h58.5h58.5v-22h-19q-19 0 -33.5 -16 t-21.5 -35q-3 -6 -4 -12t-1 -12v-274q0 -99 51 -170t158 -71t158 71t51 170v274q0 6 -1 12t-4 12q-7 19 -21.5 35t-33.5 16h-20v22h118.5h118.5v-22v0zM394 687l-21 -26q-9 4 -18 8.5t-19 8.5q-3 1 -7 3t-8 3q-21 9 -41 19.5t-37 23.5q-9 7 -13.5 16.5t-3.5 19.5 q0 8 2.5 14.5t6.5 12.5q7 9 16.5 13.5t19.5 3.5h4.5t4.5 -1q5 -1 9.5 -3t8.5 -5q17 -14 32 -32l30 -36q3 -4 5.5 -7.5t5.5 -7.5q6 -7 11.5 -14t11.5 -14v0z" />
<glyph unicode="&#xda;" horiz-adv-x="782" d="M730 621h-15q-19 0 -34 -16t-22 -35q-3 -6 -4 -12t-1 -12v-319q0 -107 -81 -169t-178 -71q-8 0 -15.5 -0.5t-15.5 -0.5t-15.5 0.5t-15.5 0.5q-97 9 -178 71t-81 169v319q0 6 -1 12t-4 12q-7 19 -22 35t-34 16h-14v22h58.5h59.5h58.5h58.5v-22h-19q-19 0 -33.5 -16 t-21.5 -35q-3 -6 -4 -12t-1 -12v-274q0 -99 51 -170t158 -71t158 71t51 170v274q0 6 -1 12t-4 12q-7 19 -21.5 35t-33.5 16h-20v22h118.5h118.5v-22v0zM509 796q5 -6 7.5 -13t1.5 -15q0 -10 -4.5 -19t-12.5 -16q-17 -13 -37 -23.5t-41 -19.5q-4 -1 -8 -3t-7 -3 q-10 -4 -19 -8.5t-18 -8.5l-21 26q6 7 11.5 14t11.5 14q3 4 5.5 7.5t5.5 7.5l30 36t32 32q7 5 14.5 7.5t14.5 1.5q10 0 18.5 -4.5t15.5 -12.5v0z" />
<glyph unicode="&#xdb;" horiz-adv-x="782" d="M730 621h-15q-19 0 -34 -16t-22 -35q-3 -6 -4 -12t-1 -12v-319q0 -107 -81 -169t-178 -71q-8 0 -15.5 -0.5t-15.5 -0.5t-15.5 0.5t-15.5 0.5q-97 9 -178 71t-81 169v319q0 6 -1 12t-4 12q-7 19 -22 35t-34 16h-14v22h58.5h59.5h58.5h58.5v-22h-19q-19 0 -33.5 -16 t-21.5 -35q-3 -6 -4 -12t-1 -12v-274q0 -99 51 -170t158 -71t158 71t51 170v274q0 6 -1 12t-4 12q-7 19 -21.5 35t-33.5 16h-20v22h118.5h118.5v-22v0zM490 660l-12 -15l-113 58l-113 -58l-12 16l125 113l125 -114v0z" />
<glyph unicode="&#xdc;" horiz-adv-x="782" d="M730 621h-15q-19 0 -34 -16t-22 -35q-3 -6 -4 -12t-1 -12v-319q0 -107 -81 -169t-178 -71q-8 0 -15.5 -0.5t-15.5 -0.5t-15.5 0.5t-15.5 0.5q-97 9 -178 71t-81 169v319q0 6 -1 12t-4 12q-7 19 -22 35t-34 16h-14v22h58.5h59.5h58.5h58.5v-22h-19q-19 0 -33.5 -16 t-21.5 -35q-3 -6 -4 -12t-1 -12v-274q0 -99 51 -170t158 -71t158 71t51 170v274q0 6 -1 12t-4 12q-7 19 -21.5 35t-33.5 16h-20v22h118.5h118.5v-22v0zM284 676q0 14 9.5 23t22.5 9q14 0 23.5 -9t9.5 -23q0 -13 -9.5 -22.5t-23.5 -9.5q-13 0 -22.5 9.5t-9.5 22.5v0zM377 676 q0 14 9.5 23t22.5 9t22.5 -9t9.5 -23q0 -13 -9.5 -22.5t-22.5 -9.5t-22.5 9.5t-9.5 22.5v0z" />
<glyph unicode="&#xdd;" horiz-adv-x="275" />
<glyph unicode="&#xde;" horiz-adv-x="535" d="M496 348q0 -80 -61 -129t-134 -57q-6 0 -12.5 -0.5t-12.5 -0.5q-26 0 -52 5.5t-50 15.5v-86q0 -6 1.5 -12.5t3.5 -13.5q8 -18 22.5 -33.5t32.5 -15.5h49v-21h-279v21h28q18 0 32.5 15.5t22.5 33.5q2 7 3.5 13.5t1.5 12.5v468q0 23 -17 40t-40 17h-35v21h136h136v-21h-41 q-23 0 -40 -17t-17 -40v-28h102q84 0 152 -47.5t68 -140.5v0zM403 344v8t-1 8q-4 51 -36 93.5t-88 42.5h-104v-275q14 -14 32.5 -20.5t38.5 -8.5q8 0 16 -0.5t15 -0.5q56 0 88.5 42.5t37.5 92.5q1 5 1 9.5v8.5v0z" />
<glyph unicode="&#xdf;" horiz-adv-x="534" d="M487 106q0 -27 -11.5 -49t-31.5 -39q-20 -16 -44 -22.5t-49 -8.5h-5.5h-5.5q-12 0 -23.5 1.5t-22.5 3.5q-10 2 -19.5 5t-18.5 8q-1 1 -3 2l-4 2q-1 1 -2 1.5l-1 0.5q-3 2 -6 3t-5 1q-4 0 -5.5 -3.5t-2.5 -7.5v-3v-3l-21 -1v118h21q0 -28 13 -49.5t34 -34.5 q14 -8 30 -12.5t34 -3.5h6t6 1q24 4 44.5 22.5t19.5 44.5q0 15 -8 26t-19 18l-131 91q-22 15 -31.5 33t-9.5 37q0 23 10.5 44.5t26.5 39.5l8 8q14 16 22.5 30.5t12.5 29.5q5 16 6 33t1 35v12.5t-1 12.5q-3 37 -20.5 67.5t-61.5 29.5q-27 -1 -40.5 -24.5t-18.5 -52.5 q-3 -16 -4 -31t-1 -26v-496h-153v21h7.5h7.5q18 0 33 16t22 35q2 6 3.5 12.5t1.5 12.5v132.5v133.5h-73v21h73v52.5v53.5q0 62 38 112t104 49q62 -1 101 -40.5t39 -98.5q0 -40 -18.5 -69.5t-43.5 -57.5l-4.5 -4.5t-4.5 -5.5q-10 -11 -15 -22.5t-5 -22.5q0 -13 7 -24.5 t19 -19.5l131 -88q25 -17 43.5 -38.5t18.5 -53.5v0z" />
<glyph unicode="&#xe0;" horiz-adv-x="399" d="M368 28q-11 -19 -30.5 -29.5t-42.5 -10.5q-22 0 -41.5 10.5t-30.5 29.5q-16 -19 -39 -28.5t-47 -11.5h-4h-4h-4h-4q-40 2 -73.5 21.5t-33.5 65.5q0 47 37.5 73t82.5 38q21 6 41.5 9t36.5 4v40q0 39 -22 69t-64 30q-35 0 -63.5 -21.5t-36.5 -56.5l-21 2q0 61 47 98t104 37 t96.5 -37.5t39.5 -95.5v-176q0 -11 4.5 -21.5t13.5 -17.5q5 -3 10.5 -5t10.5 -3h4h4q5 0 9 0.5t8 1.5l12 -15v0zM212 79v87q-8 -1 -16.5 -2.5t-17.5 -3.5q-29 -9 -53.5 -28t-24.5 -51q0 -26 15.5 -40t41.5 -14q11 0 21.5 5t17.5 13q7 7 11.5 15.5t4.5 18.5v0zM180 447 l-21 -26q-9 4 -18 8.5t-19 8.5q-3 1 -7 3t-8 3q-21 9 -41 19.5t-37 23.5q-9 7 -13.5 16.5t-3.5 19.5q0 8 2.5 14.5t6.5 12.5q7 9 16.5 13.5t19.5 3.5h4.5t4.5 -1q5 -1 9.5 -3t8.5 -5q17 -14 32 -32l30 -36q3 -4 5.5 -7.5t5.5 -7.5q6 -7 11.5 -14t11.5 -14v0z" />
<glyph unicode="&#xe1;" horiz-adv-x="399" d="M368 28q-11 -19 -30.5 -29.5t-42.5 -10.5q-22 0 -41.5 10.5t-30.5 29.5q-16 -19 -39 -28.5t-47 -11.5h-4h-4h-4h-4q-40 2 -73.5 21.5t-33.5 65.5q0 47 37.5 73t82.5 38q21 6 41.5 9t36.5 4v40q0 39 -22 69t-64 30q-35 0 -63.5 -21.5t-36.5 -56.5l-21 2q0 61 47 98t104 37 t96.5 -37.5t39.5 -95.5v-176q0 -11 4.5 -21.5t13.5 -17.5q5 -3 10.5 -5t10.5 -3h4h4q5 0 9 0.5t8 1.5l12 -15v0zM212 79v87q-8 -1 -16.5 -2.5t-17.5 -3.5q-29 -9 -53.5 -28t-24.5 -51q0 -26 15.5 -40t41.5 -14q11 0 21.5 5t17.5 13q7 7 11.5 15.5t4.5 18.5v0zM301 550 q5 -6 7.5 -13t1.5 -15q0 -10 -4.5 -19t-12.5 -16q-17 -13 -37 -23.5t-41 -19.5q-4 -1 -8 -3t-7 -3q-10 -4 -19 -8.5t-18 -8.5l-21 26q6 7 11.5 14t11.5 14q3 4 5.5 7.5t5.5 7.5l30 36t32 32q7 5 14.5 7.5t14.5 1.5q10 0 18.5 -4.5t15.5 -12.5v0z" />
<glyph unicode="&#xe2;" horiz-adv-x="399" d="M368 28q-11 -19 -30.5 -29.5t-42.5 -10.5q-22 0 -41.5 10.5t-30.5 29.5q-16 -19 -39 -28.5t-47 -11.5h-4h-4h-4h-4q-40 2 -73.5 21.5t-33.5 65.5q0 47 37.5 73t82.5 38q21 6 41.5 9t36.5 4v40q0 39 -22 69t-64 30q-35 0 -63.5 -21.5t-36.5 -56.5l-21 2q0 61 47 98t104 37 t96.5 -37.5t39.5 -95.5v-176q0 -11 4.5 -21.5t13.5 -17.5q5 -3 10.5 -5t10.5 -3h4h4q5 0 9 0.5t8 1.5l12 -15v0zM212 79v87q-8 -1 -16.5 -2.5t-17.5 -3.5q-29 -9 -53.5 -28t-24.5 -51q0 -26 15.5 -40t41.5 -14q11 0 21.5 5t17.5 13q7 7 11.5 15.5t4.5 18.5v0zM276 408 l-12 -15l-113 58l-113 -58l-12 16l125 113l125 -114v0z" />
<glyph unicode="&#xe3;" horiz-adv-x="399" d="M368 28q-11 -19 -30.5 -29.5t-42.5 -10.5q-22 0 -41.5 10.5t-30.5 29.5q-16 -19 -39 -28.5t-47 -11.5h-4h-4h-4h-4q-40 2 -73.5 21.5t-33.5 65.5q0 47 37.5 73t82.5 38q21 6 41.5 9t36.5 4v40q0 39 -22 69t-64 30q-35 0 -63.5 -21.5t-36.5 -56.5l-21 2q0 61 47 98t104 37 t96.5 -37.5t39.5 -95.5v-176q0 -11 4.5 -21.5t13.5 -17.5q5 -3 10.5 -5t10.5 -3h4h4q5 0 9 0.5t8 1.5l12 -15v0zM212 79v87q-8 -1 -16.5 -2.5t-17.5 -3.5q-29 -9 -53.5 -28t-24.5 -51q0 -26 15.5 -40t41.5 -14q11 0 21.5 5t17.5 13q7 7 11.5 15.5t4.5 18.5v0zM277 496 q-1 -5 -2 -11t-3 -12q-5 -22 -23 -36.5t-41 -14.5h-3.5t-3.5 1q-2 0 -3.5 0.5t-3.5 0.5q-11 3 -22.5 5.5t-22.5 5.5q-12 2 -23.5 4.5t-22.5 5.5q-1 0 -2 0.5t-2 0.5h-2h-2q-10 -1 -15.5 -9t-7.5 -19l-21 5q2 5 3.5 11t2.5 12q5 23 23.5 37t40.5 14h3.5t3.5 -1q2 0 3.5 -0.5 t3.5 -0.5q23 -5 45.5 -10.5t44.5 -10.5q2 -1 4.5 -1h3.5q11 0 16.5 9t7.5 19l20 -5v0z" />
<glyph unicode="&#xe4;" horiz-adv-x="399" d="M368 28q-11 -19 -30.5 -29.5t-42.5 -10.5q-22 0 -41.5 10.5t-30.5 29.5q-16 -19 -39 -28.5t-47 -11.5h-4h-4h-4h-4q-40 2 -73.5 21.5t-33.5 65.5q0 47 37.5 73t82.5 38q21 6 41.5 9t36.5 4v40q0 39 -22 69t-64 30q-35 0 -63.5 -21.5t-36.5 -56.5l-21 2q0 61 47 98t104 37 t96.5 -37.5t39.5 -95.5v-176q0 -11 4.5 -21.5t13.5 -17.5q5 -3 10.5 -5t10.5 -3h4h4q5 0 9 0.5t8 1.5l12 -15v0zM212 79v87q-8 -1 -16.5 -2.5t-17.5 -3.5q-29 -9 -53.5 -28t-24.5 -51q0 -26 15.5 -40t41.5 -14q11 0 21.5 5t17.5 13q7 7 11.5 15.5t4.5 18.5v0zM83 451 q0 14 9.5 23t22.5 9q14 0 23.5 -9t9.5 -23q0 -13 -9.5 -22.5t-23.5 -9.5q-13 0 -22.5 9.5t-9.5 22.5v0zM176 451q0 14 9.5 23t22.5 9t22.5 -9t9.5 -23q0 -13 -9.5 -22.5t-22.5 -9.5t-22.5 9.5t-9.5 22.5v0z" />
<glyph unicode="&#xe5;" horiz-adv-x="399" d="M368 28q-11 -19 -30.5 -29.5t-42.5 -10.5q-22 0 -41.5 10.5t-30.5 29.5q-16 -19 -39 -28.5t-47 -11.5h-4h-4h-4h-4q-40 2 -73.5 21.5t-33.5 65.5q0 47 37.5 73t82.5 38q21 6 41.5 9t36.5 4v40q0 39 -22 69t-64 30q-35 0 -63.5 -21.5t-36.5 -56.5l-21 2q0 61 47 98t104 37 t96.5 -37.5t39.5 -95.5v-176q0 -11 4.5 -21.5t13.5 -17.5q5 -3 10.5 -5t10.5 -3h4h4q5 0 9 0.5t8 1.5l12 -15v0zM212 79v87q-8 -1 -16.5 -2.5t-17.5 -3.5q-29 -9 -53.5 -28t-24.5 -51q0 -26 15.5 -40t41.5 -14q11 0 21.5 5t17.5 13q7 7 11.5 15.5t4.5 18.5v0zM243 499 q0 -33 -23.5 -56t-55.5 -23q-33 0 -56.5 23t-23.5 56t23.5 56t56.5 23q32 0 55.5 -23t23.5 -56v0zM216 499q0 22 -15 37.5t-37 15.5t-37.5 -15.5t-15.5 -37.5t15.5 -37.5t37.5 -15.5t37 15.5t15 37.5v0z" />
<glyph unicode="&#xe6;" horiz-adv-x="655" d="M610 79q-32 -46 -80.5 -68.5t-101.5 -22.5q-46 0 -89.5 17.5t-75.5 54.5q-20 -34 -54.5 -51.5t-72.5 -20.5h-5.5h-5.5h-4h-4q-40 2 -73.5 21t-33.5 66q0 46 37.5 72t81.5 38q22 6 42.5 9.5t37.5 4.5v5.5v4.5v9v8q0 23 -4.5 45.5t-20.5 40.5q-12 14 -28.5 20.5t-34.5 5.5 h-5.5t-5.5 -1q-14 -1 -27.5 -6.5t-24.5 -14.5q-13 -10 -22.5 -24.5t-13.5 -31.5l-21 2q0 61 47 97.5t103 37.5h1.5h1.5q26 0 51.5 -9t44.5 -28q4 -3 7 -7.5t6 -8.5q1 -2 3 -4t3 -4q27 28 65 43.5t78 17.5h4h4q31 0 60 -9.5t53 -29.5q23 -19 37.5 -46.5t18.5 -59.5 q0 -1 0.5 -2.5t0.5 -3.5q0 -1 0.5 -2.5t0.5 -3.5h-279q-1 -8 -1.5 -16.5t-0.5 -16.5q0 -32 9 -63t31 -57q19 -22 43.5 -35t52.5 -13q40 0 78 13.5t68 39.5l18 -13v0zM209 79v87l-16 -2t-16 -4q-30 -8 -55 -27t-25 -52q0 -27 15 -40.5t41 -13.5q23 0 37.5 16t18.5 36v0z M490 261q0 8 -1.5 17t-3.5 19q-7 28 -24 51t-48 23q-30 0 -51.5 -24t-34.5 -52q-3 -9 -6 -17.5t-5 -16.5h174v0z" />
<glyph unicode="&#xe7;" horiz-adv-x="436" d="M255 -111q-2 -28 -27.5 -43t-55.5 -21q-12 -2 -24 -3t-22 -1h-5h-5q-2 1 -4 1h-4l1 20q7 1 15 1t16 1q18 3 33.5 11.5t17.5 27.5q2 20 -11 29.5t-29 15.5q-3 0 -5.5 1t-5.5 2l60 81h1l17 -12l-30 -42q4 0 8.5 -2t9.5 -4q19 -9 35 -24t14 -38v-1zM399 90 q-29 -49 -80.5 -75.5t-108.5 -26.5q-85 0 -146 58t-61 146t61 146.5t146 58.5q43 0 81 -15t70 -43v-68h-19.5h-19.5l-5 34q-3 4 -6.5 7.5t-6.5 7.5q-19 21 -40 33t-53 12q-49 0 -77.5 -38t-36.5 -83q-2 -10 -3 -19.5t-1 -18.5q0 -67 45.5 -117t113.5 -50q38 0 71 17.5 t55 46.5h0.5t0.5 1h0.5h0.5l19 -14v0z" />
<glyph unicode="&#xe8;" horiz-adv-x="427" d="M395 79q-31 -44 -79.5 -67.5t-101.5 -23.5q-85 0 -146.5 58t-61.5 146q0 87 55.5 146t141.5 59q71 0 117 -44t56 -113h-279q-1 -7 -1.5 -14.5t-0.5 -15.5q0 -6 0.5 -13t1.5 -13q6 -54 39 -99.5t95 -45.5q41 0 77.5 14t67.5 39l19 -13v0zM286 261q0 8 -2 17t-5 19 q-9 28 -29.5 51t-51.5 23q-30 0 -52 -24t-34 -52q-4 -9 -6.5 -17.5t-4.5 -16.5h185v0zM240 449l-21 -26q-9 4 -18 8.5t-19 8.5q-3 1 -7 3t-8 3q-21 9 -41 19.5t-37 23.5q-9 7 -13.5 16.5t-3.5 19.5q0 8 2.5 14.5t6.5 12.5q7 9 16.5 13.5t19.5 3.5h4.5t4.5 -1q5 -1 9.5 -3 t8.5 -5q17 -14 32 -32l30 -36q3 -4 5.5 -7.5t5.5 -7.5q6 -7 11.5 -14t11.5 -14v0z" />
<glyph unicode="&#xe9;" horiz-adv-x="427" d="M395 79q-31 -44 -79.5 -67.5t-101.5 -23.5q-85 0 -146.5 58t-61.5 146q0 87 55.5 146t141.5 59q71 0 117 -44t56 -113h-279q-1 -7 -1.5 -14.5t-0.5 -15.5q0 -6 0.5 -13t1.5 -13q6 -54 39 -99.5t95 -45.5q41 0 77.5 14t67.5 39l19 -13v0zM286 261q0 8 -2 17t-5 19 q-9 28 -29.5 51t-51.5 23q-30 0 -52 -24t-34 -52q-4 -9 -6.5 -17.5t-4.5 -16.5h185v0zM339 550q5 -6 7.5 -13t1.5 -15q0 -10 -4.5 -19t-12.5 -16q-17 -13 -37 -23.5t-41 -19.5q-4 -1 -8 -3t-7 -3q-10 -4 -19 -8.5t-18 -8.5l-21 26q6 7 11.5 14t11.5 14q3 4 5.5 7.5t5.5 7.5 l30 36t32 32q7 5 14.5 7.5t14.5 1.5q10 0 18.5 -4.5t15.5 -12.5v0z" />
<glyph unicode="&#xea;" horiz-adv-x="427" d="M395 79q-31 -44 -79.5 -67.5t-101.5 -23.5q-85 0 -146.5 58t-61.5 146q0 87 55.5 146t141.5 59q71 0 117 -44t56 -113h-279q-1 -7 -1.5 -14.5t-0.5 -15.5q0 -6 0.5 -13t1.5 -13q6 -54 39 -99.5t95 -45.5q41 0 77.5 14t67.5 39l19 -13v0zM286 261q0 8 -2 17t-5 19 q-9 28 -29.5 51t-51.5 23q-30 0 -52 -24t-34 -52q-4 -9 -6.5 -17.5t-4.5 -16.5h185v0zM316 408l-12 -15l-113 58l-113 -58l-12 16l125 113l125 -114v0z" />
<glyph unicode="&#xeb;" horiz-adv-x="427" d="M395 79q-31 -44 -79.5 -67.5t-101.5 -23.5q-85 0 -146.5 58t-61.5 146q0 87 55.5 146t141.5 59q71 0 117 -44t56 -113h-279q-1 -7 -1.5 -14.5t-0.5 -15.5q0 -6 0.5 -13t1.5 -13q6 -54 39 -99.5t95 -45.5q41 0 77.5 14t67.5 39l19 -13v0zM286 261q0 8 -2 17t-5 19 q-9 28 -29.5 51t-51.5 23q-30 0 -52 -24t-34 -52q-4 -9 -6.5 -17.5t-4.5 -16.5h185v0zM122 445q0 14 9.5 23t22.5 9q14 0 23.5 -9t9.5 -23q0 -13 -9.5 -22.5t-23.5 -9.5q-13 0 -22.5 9.5t-9.5 22.5v0zM215 445q0 14 9.5 23t22.5 9t22.5 -9t9.5 -23q0 -13 -9.5 -22.5 t-22.5 -9.5t-22.5 9.5t-9.5 22.5v0z" />
<glyph unicode="&#xec;" horiz-adv-x="260" d="M226 0h-114h-113l-1 21h15q19 0 33.5 16t21.5 35q2 6 3.5 12.5t1.5 12.5v209q0 23 -17 40t-40 17h-15v21h75.5h74.5v-287q0 -6 1.5 -12.5t3.5 -12.5q7 -19 22 -35t33 -16h15v-21v0zM102 443l-21 -26q-9 4 -18 8.5t-19 8.5q-3 1 -7 3t-8 3q-21 9 -40.5 19.5t-36.5 23.5 q-9 7 -13.5 16.5t-3.5 19.5q0 8 2 14.5t7 12.5q7 9 16 13.5t20 3.5h4.5t4.5 -1q5 -1 9 -3t8 -5q17 -14 32 -32l30 -36q3 -4 5.5 -7.5t5.5 -7.5q6 -7 11.5 -14t11.5 -14v0z" />
<glyph unicode="&#xed;" horiz-adv-x="260" d="M226 0h-114h-113l-1 21h15q19 0 33.5 16t21.5 35q2 6 3.5 12.5t1.5 12.5v209q0 23 -17 40t-40 17h-15v21h75.5h74.5v-287q0 -6 1.5 -12.5t3.5 -12.5q7 -19 22 -35t33 -16h15v-21v0zM249 544q5 -6 7.5 -13t1.5 -15q0 -10 -4.5 -19t-12.5 -16q-17 -13 -37 -23.5t-41 -19.5 q-4 -1 -8 -3t-7 -3q-10 -4 -19 -8.5t-18 -8.5l-21 26q6 7 11.5 14t11.5 14q3 4 5.5 7.5t5.5 7.5l30 36t32 32q7 5 14.5 7.5t14.5 1.5q10 0 18.5 -4.5t15.5 -12.5v0z" />
<glyph unicode="&#xee;" horiz-adv-x="260" d="M226 0h-114h-113l-1 21h15q19 0 33.5 16t21.5 35q2 6 3.5 12.5t1.5 12.5v209q0 23 -17 40t-40 17h-15v21h75.5h74.5v-287q0 -6 1.5 -12.5t3.5 -12.5q7 -19 22 -35t33 -16h15v-21v0zM212 404l-12 -15l-113 58l-113 -58l-12 16l125 113l125 -114v0z" />
<glyph unicode="&#xef;" horiz-adv-x="260" d="M226 0h-114h-113l-1 21h15q19 0 33.5 16t21.5 35q2 6 3.5 12.5t1.5 12.5v209q0 23 -17 40t-40 17h-15v21h75.5h74.5v-287q0 -6 1.5 -12.5t3.5 -12.5q7 -19 22 -35t33 -16h15v-21v0zM11 445q0 14 9.5 23t22.5 9q14 0 23.5 -9t9.5 -23q0 -13 -9.5 -22.5t-23.5 -9.5 q-13 0 -22.5 9.5t-9.5 22.5v0zM104 445q0 14 9.5 23t22.5 9t22.5 -9t9.5 -23q0 -13 -9.5 -22.5t-22.5 -9.5t-22.5 9.5t-9.5 22.5v0z" />
<glyph unicode="&#xf0;" d="M431 350q5 -28 8.5 -57.5t3.5 -59.5q0 -40 -7.5 -79t-27.5 -72q-29 -52 -79.5 -73t-107.5 -21q-85 0 -152 57.5t-67 146.5q0 93 68.5 149t152.5 56q29 0 57 -7.5t54 -21.5l-2 6l-2 6q-1 2 -2 5l-2 6q-16 45 -35.5 82.5t-40.5 65.5l-66 -30l-11 24l59 26q-4 5 -8.5 9.5 t-8.5 7.5q-18 16 -35 24.5t-33 8.5q-4 0 -8.5 -0.5t-8.5 -2.5l-4 -2t-3 -2l-4 -2t-3 -2q-2 -1 -3.5 -2t-3.5 -2l-12 18q13 8 27.5 14.5t29.5 9.5q7 2 13.5 2h13.5q32 0 62 -12.5t58 -35.5l59 27l10 -24l-48 -22q1 0 1.5 -0.5t0.5 -1.5l1.5 -1.5l0.5 -0.5q38 -39 65.5 -94.5 t39.5 -122.5v0zM342 338q-12 6 -24.5 10.5t-24.5 7.5t-24.5 4.5t-24.5 1.5q-13 0 -25.5 -1.5t-24.5 -5.5q-53 -15 -79 -52.5t-25 -85.5q0 -13 2 -27.5t6 -28.5q1 -5 3 -9.5t3 -9.5q17 -43 54 -78t83 -35q5 0 9.5 0.5t9.5 1.5q5 0 9.5 1.5t9.5 3.5q44 18 60 70t16 112v7.5 v6.5q-1 28 -4.5 55.5t-8.5 50.5v0z" />
<glyph unicode="&#xf1;" horiz-adv-x="561" d="M514 0h-114h-114v21h15q19 0 33.5 16t21.5 35q2 6 3.5 12.5t1.5 12.5v119q0 43 -29.5 75t-72.5 32q-42 0 -72.5 -29.5t-30.5 -70.5v-126q0 -6 1.5 -12.5t3.5 -12.5q7 -19 22 -35t33 -16h15v-21h-114h-113v21h14q19 0 34 16t22 35q2 6 3.5 12.5t1.5 12.5v209q0 23 -17 40 t-41 17h-14v21h74.5h74.5v-77q20 35 55.5 56t75.5 21q66 0 109 -49t43 -113v-125q0 -6 1.5 -12.5t3.5 -12.5q7 -19 21.5 -35t33.5 -16h15v-21v0zM364 484q-1 -5 -2 -11t-3 -12q-5 -22 -23 -36.5t-41 -14.5h-3.5t-3.5 1q-2 0 -3.5 0.5t-3.5 0.5q-11 3 -22.5 5.5t-22.5 5.5 q-12 2 -23.5 4.5t-22.5 5.5q-1 0 -2 0.5t-2 0.5h-2h-2q-10 -1 -15.5 -9t-7.5 -19l-21 5q2 5 3.5 11t2.5 12q5 23 23.5 37t40.5 14h3.5t3.5 -1q2 0 3.5 -0.5t3.5 -0.5q23 -5 45.5 -10.5t44.5 -10.5q2 -1 4.5 -1h3.5q11 0 16.5 9t7.5 19l20 -5v0z" />
<glyph unicode="&#xf2;" horiz-adv-x="494" d="M441 192q0 -89 -67 -146.5t-153 -57.5q-85 0 -152 57.5t-67 146.5t67 147t152 58q86 0 153 -58t67 -147v0zM345 223q-1 5 -3 9.5t-4 9.5q-17 42 -53 77.5t-83 34.5q-6 0 -12.5 -0.5t-13.5 -2.5q-44 -11 -64 -48t-22 -80v-3v-4q0 -14 2 -28t6 -27q1 -4 2 -7.5t3 -7.5 q16 -44 53 -80.5t85 -36.5h6t7 1q3 0 6 0.5t6 1.5q45 12 64.5 49.5t21.5 80.5v4v4v6.5v7.5q-1 10 -2.5 20t-4.5 19v0zM252 445l-21 -26q-9 4 -18 8.5t-19 8.5q-3 1 -7 3t-8 3q-21 9 -41 19.5t-37 23.5q-9 7 -13.5 16.5t-3.5 19.5q0 8 2.5 14.5t6.5 12.5q7 9 16.5 13.5 t19.5 3.5h4.5t4.5 -1q5 -1 9.5 -3t8.5 -5q17 -14 32 -32l30 -36q3 -4 5.5 -7.5t5.5 -7.5q6 -7 11.5 -14t11.5 -14v0z" />
<glyph unicode="&#xf3;" horiz-adv-x="494" d="M441 192q0 -89 -67 -146.5t-153 -57.5q-85 0 -152 57.5t-67 146.5t67 147t152 58q86 0 153 -58t67 -147v0zM345 223q-1 5 -3 9.5t-4 9.5q-17 42 -53 77.5t-83 34.5q-6 0 -12.5 -0.5t-13.5 -2.5q-44 -11 -64 -48t-22 -80v-3v-4q0 -14 2 -28t6 -27q1 -4 2 -7.5t3 -7.5 q16 -44 53 -80.5t85 -36.5h6t7 1q3 0 6 0.5t6 1.5q45 12 64.5 49.5t21.5 80.5v4v4v6.5v7.5q-1 10 -2.5 20t-4.5 19v0zM361 552q5 -6 7.5 -13t1.5 -15q0 -10 -4.5 -19t-12.5 -16q-17 -13 -37 -23.5t-41 -19.5q-4 -1 -8 -3t-7 -3q-10 -4 -19 -8.5t-18 -8.5l-21 26q6 7 11.5 14 t11.5 14q3 4 5.5 7.5t5.5 7.5l30 36t32 32q7 5 14.5 7.5t14.5 1.5q10 0 18.5 -4.5t15.5 -12.5v0z" />
<glyph unicode="&#xf4;" horiz-adv-x="494" d="M441 192q0 -89 -67 -146.5t-153 -57.5q-85 0 -152 57.5t-67 146.5t67 147t152 58q86 0 153 -58t67 -147v0zM345 223q-1 5 -3 9.5t-4 9.5q-17 42 -53 77.5t-83 34.5q-6 0 -12.5 -0.5t-13.5 -2.5q-44 -11 -64 -48t-22 -80v-3v-4q0 -14 2 -28t6 -27q1 -4 2 -7.5t3 -7.5 q16 -44 53 -80.5t85 -36.5h6t7 1q3 0 6 0.5t6 1.5q45 12 64.5 49.5t21.5 80.5v4v4v6.5v7.5q-1 10 -2.5 20t-4.5 19v0zM348 404l-12 -15l-113 58l-113 -58l-12 16l125 113l125 -114v0z" />
<glyph unicode="&#xf5;" horiz-adv-x="494" d="M441 192q0 -89 -67 -146.5t-153 -57.5q-85 0 -152 57.5t-67 146.5t67 147t152 58q86 0 153 -58t67 -147v0zM345 223q-1 5 -3 9.5t-4 9.5q-17 42 -53 77.5t-83 34.5q-6 0 -12.5 -0.5t-13.5 -2.5q-44 -11 -64 -48t-22 -80v-3v-4q0 -14 2 -28t6 -27q1 -4 2 -7.5t3 -7.5 q16 -44 53 -80.5t85 -36.5h6t7 1q3 0 6 0.5t6 1.5q45 12 64.5 49.5t21.5 80.5v4v4v6.5v7.5q-1 10 -2.5 20t-4.5 19v0zM328 490q-1 -5 -2 -11t-3 -12q-5 -22 -23 -36.5t-41 -14.5h-3.5t-3.5 1q-2 0 -3.5 0.5t-3.5 0.5q-11 3 -22.5 5.5t-22.5 5.5q-12 2 -23.5 4.5t-22.5 5.5 q-1 0 -2 0.5t-2 0.5h-2h-2q-10 -1 -15.5 -9t-7.5 -19l-21 5q2 5 3.5 11t2.5 12q5 23 23.5 37t40.5 14h3.5t3.5 -1q2 0 3.5 -0.5t3.5 -0.5q23 -5 45.5 -10.5t44.5 -10.5q2 -1 4.5 -1h3.5q11 0 16.5 9t7.5 19l20 -5v0z" />
<glyph unicode="&#xf6;" horiz-adv-x="494" d="M441 192q0 -89 -67 -146.5t-153 -57.5q-85 0 -152 57.5t-67 146.5t67 147t152 58q86 0 153 -58t67 -147v0zM345 223q-1 5 -3 9.5t-4 9.5q-17 42 -53 77.5t-83 34.5q-6 0 -12.5 -0.5t-13.5 -2.5q-44 -11 -64 -48t-22 -80v-3v-4q0 -14 2 -28t6 -27q1 -4 2 -7.5t3 -7.5 q16 -44 53 -80.5t85 -36.5h6t7 1q3 0 6 0.5t6 1.5q45 12 64.5 49.5t21.5 80.5v4v4v6.5v7.5q-1 10 -2.5 20t-4.5 19v0zM137 454q0 14 9.5 23t22.5 9q14 0 23.5 -9t9.5 -23q0 -13 -9.5 -22.5t-23.5 -9.5q-13 0 -22.5 9.5t-9.5 22.5v0zM230 454q0 14 9.5 23t22.5 9t22.5 -9 t9.5 -23q0 -13 -9.5 -22.5t-22.5 -9.5t-22.5 9.5t-9.5 22.5v0z" />
<glyph unicode="&#xf7;" />
<glyph unicode="&#xf8;" horiz-adv-x="492" d="M447 192q0 -89 -66.5 -146.5t-152.5 -57.5q-37 0 -72.5 11t-64.5 33l-60 -60l-31 30l59 59q-23 26 -37 59.5t-14 71.5q0 89 67.5 147t152.5 58q35 0 67.5 -10t60.5 -29l54 53l30 -30l-50 -51q26 -26 41.5 -61.5t15.5 -76.5v0zM351 223l-2 8t-3 8q-3 8 -6.5 16.5 t-8.5 15.5l-187 -186q20 -25 46.5 -40.5t57.5 -15.5h6t7 1q3 0 6 0.5t6 1.5q44 11 64 48.5t22 79.5v4v4q0 14 -2 28t-6 27v0zM305 306q-19 22 -44 35t-53 13h-6.5t-6.5 -1q-3 0 -6.5 -0.5t-6.5 -1.5q-44 -11 -63.5 -48.5t-21.5 -81.5v-3v-4v-6.5v-7.5q1 -10 2.5 -20t4.5 -19 q1 -3 2 -6.5t2 -6.5q3 -7 6 -13.5t6 -12.5l185 184v0z" />
<glyph unicode="&#xf9;" horiz-adv-x="559" d="M510 0l-151 -7v69q-21 -36 -55.5 -55t-72.5 -20q-67 -2 -110.5 47t-43.5 114v33v36q-1 1 -1 1.5v1.5v34.5v32.5q0 6 -1.5 13t-4.5 14q-7 18 -21.5 33.5t-32.5 15.5h-15v21h153v-56.5v-58.5v-59.5v-56.5q0 -43 30 -74.5t73 -31.5q40 0 71 30t31 70v140q0 6 -1.5 13 t-4.5 14q-7 18 -21.5 33.5t-32.5 15.5h-15v21h153v-306q0 -22 16.5 -40.5t40.5 -17.5h2t5 1v0v0h4.5h2.5l2 -21v0zM272 433l-21 -26q-9 4 -18 8.5t-19 8.5q-3 1 -7 3t-8 3q-21 9 -41 19.5t-37 23.5q-9 7 -13.5 16.5t-3.5 19.5q0 8 2.5 14.5t6.5 12.5q7 9 16.5 13.5t19.5 3.5 h4.5t4.5 -1q5 -1 9.5 -3t8.5 -5q17 -14 32 -32l30 -36q3 -4 5.5 -7.5t5.5 -7.5q6 -7 11.5 -14t11.5 -14v0z" />
<glyph unicode="&#xfa;" horiz-adv-x="559" d="M510 0l-151 -7v69q-21 -36 -55.5 -55t-72.5 -20q-67 -2 -110.5 47t-43.5 114v33v36q-1 1 -1 1.5v1.5v34.5v32.5q0 6 -1.5 13t-4.5 14q-7 18 -21.5 33.5t-32.5 15.5h-15v21h153v-56.5v-58.5v-59.5v-56.5q0 -43 30 -74.5t73 -31.5q40 0 71 30t31 70v140q0 6 -1.5 13 t-4.5 14q-7 18 -21.5 33.5t-32.5 15.5h-15v21h153v-306q0 -22 16.5 -40.5t40.5 -17.5h2t5 1v0v0h4.5h2.5l2 -21v0zM387 538q5 -6 7.5 -13t1.5 -15q0 -10 -4.5 -19t-12.5 -16q-17 -13 -37 -23.5t-41 -19.5q-4 -1 -8 -3t-7 -3q-10 -4 -19 -8.5t-18 -8.5l-21 26q6 7 11.5 14 t11.5 14q3 4 5.5 7.5t5.5 7.5l30 36t32 32q7 5 14.5 7.5t14.5 1.5q10 0 18.5 -4.5t15.5 -12.5v0z" />
<glyph unicode="&#xfb;" horiz-adv-x="559" d="M510 0l-151 -7v69q-21 -36 -55.5 -55t-72.5 -20q-67 -2 -110.5 47t-43.5 114v33v36q-1 1 -1 1.5v1.5v34.5v32.5q0 6 -1.5 13t-4.5 14q-7 18 -21.5 33.5t-32.5 15.5h-15v21h153v-56.5v-58.5v-59.5v-56.5q0 -43 30 -74.5t73 -31.5q40 0 71 30t31 70v140q0 6 -1.5 13 t-4.5 14q-7 18 -21.5 33.5t-32.5 15.5h-15v21h153v-306q0 -22 16.5 -40.5t40.5 -17.5h2t5 1v0v0h4.5h2.5l2 -21v0zM348 416l-12 -15l-113 58l-113 -58l-12 16l125 113l125 -114v0z" />
<glyph unicode="&#xfc;" horiz-adv-x="559" d="M510 0l-151 -7v69q-21 -36 -55.5 -55t-72.5 -20q-67 -2 -110.5 47t-43.5 114v33v36q-1 1 -1 1.5v1.5v34.5v32.5q0 6 -1.5 13t-4.5 14q-7 18 -21.5 33.5t-32.5 15.5h-15v21h153v-56.5v-58.5v-59.5v-56.5q0 -43 30 -74.5t73 -31.5q40 0 71 30t31 70v140q0 6 -1.5 13 t-4.5 14q-7 18 -21.5 33.5t-32.5 15.5h-15v21h153v-306q0 -22 16.5 -40.5t40.5 -17.5h2t5 1v0v0h4.5h2.5l2 -21v0zM161 430q0 14 9.5 23t22.5 9q14 0 23.5 -9t9.5 -23q0 -13 -9.5 -22.5t-23.5 -9.5q-13 0 -22.5 9.5t-9.5 22.5v0zM254 430q0 14 9.5 23t22.5 9t22.5 -9 t9.5 -23q0 -13 -9.5 -22.5t-22.5 -9.5t-22.5 9.5t-9.5 22.5v0z" />
<glyph unicode="&#xfd;" horiz-adv-x="275" />
<glyph unicode="&#xfe;" horiz-adv-x="523" d="M481 189q0 -80 -55 -142.5t-138 -62.5q-37 0 -69.5 13.5t-58.5 37.5v-213q0 -5 1.5 -11.5t3.5 -13.5q8 -18 22.5 -33.5t32.5 -15.5l15 -1v-21q-57 1 -114 1h-114v20h15q19 1 33.5 16.5t21.5 33.5q2 7 3.5 13.5t1.5 12.5v719q0 24 -18.5 39.5t-41.5 15.5h-13l-3 21l154 22 v-298q26 24 58.5 38t69.5 14q83 0 138 -62.5t55 -142.5v0zM401 196q0 66 -40.5 113t-97.5 47q-31 0 -57.5 -14.5t-45.5 -39.5v-212q19 -25 45.5 -39.5t57.5 -14.5q57 0 97.5 47t40.5 113v0z" />
<glyph unicode="&#xff;" horiz-adv-x="505" d="M460 363h-8.5h-9.5q-22 0 -41.5 -16.5t-30.5 -35.5q-2 -4 -4 -7.5t-3 -7.5l-68 -182t-68 -181q-28 -77 -75 -128.5t-124 -79.5v85q3 2 6 3t7 2q49 16 93.5 45.5t62.5 80.5l17 45q-29 77 -59 154.5t-60 154.5q-1 4 -3 8t-5 8q-11 20 -30 36t-41 16h-15v21h213v-21 q-19 0 -28.5 -13.5t-8.5 -30.5v-4.5t1 -4.5q0 -3 0.5 -5.5t1.5 -4.5l77 -201q18 50 36.5 100.5t37.5 100.5q2 5 3 10t1 10q-1 17 -10 30t-27 13h-8v21h170v-21v0zM176 436q0 14 9.5 23t22.5 9q14 0 23.5 -9t9.5 -23q0 -13 -9.5 -22.5t-23.5 -9.5q-13 0 -22.5 9.5t-9.5 22.5 v0zM269 436q0 14 9.5 23t22.5 9t22.5 -9t9.5 -23q0 -13 -9.5 -22.5t-22.5 -9.5t-22.5 9.5t-9.5 22.5v0z" />
<glyph unicode="&#x152;" horiz-adv-x="905" d="M851 134l-33 -134h-381q-24 -7 -49 -10.5t-51 -3.5q-138 0 -236.5 98.5t-98.5 236.5t98.5 237.5t236.5 99.5q22 0 42.5 -3t39.5 -8q5 -1 9.5 -2t8.5 -3h372v-112h-21q0 29 -20.5 49t-49.5 20h-195v-249h172q29 0 49 20.5t20 48.5h22v-182h-22q0 29 -20 49t-49 20h-172 v-188q0 -6 1.5 -12.5t3.5 -13.5q7 -18 21.5 -33.5t32.5 -15.5l135 -1q38 0 70.5 29.5t42.5 64.5q0 1 0.5 1.5t0.5 1.5l20 -5v0zM441 96v468v4.5v4.5q-18 12 -37 21t-39 14q-13 4 -27 5.5t-28 1.5q-9 0 -17.5 -1t-17.5 -2q-9 -2 -17.5 -4.5t-17.5 -5.5q-76 -29 -111 -97.5 t-37 -145.5v-4.5v-4.5q0 -30 5 -59.5t14 -56.5q1 -1 1.5 -2.5t0.5 -3.5q28 -76 94.5 -140t148.5 -64q7 0 13.5 0.5t13.5 1.5q6 1 12.5 2.5t13.5 3.5q12 4 19 16t10 26q2 6 2.5 11.5t0.5 10.5v0z" />
<glyph unicode="&#x153;" horiz-adv-x="768" d="M717 79q-14 -21 -34.5 -38.5t-43.5 -29.5q-19 -10 -40 -15t-42 -7q-5 -1 -10.5 -1h-10.5h-5.5h-4.5q-40 2 -78.5 17.5t-68.5 45.5q-30 -30 -69.5 -45.5t-80.5 -17.5h-4.5h-5.5h-6h-6q-38 2 -75 16.5t-67 42.5q-29 28 -46.5 65t-17.5 80t17.5 80t46.5 65q30 28 68 43 t77 17h5.5h5.5q42 0 82.5 -15t72.5 -46q30 30 69 45.5t81 15.5q35 0 63.5 -10t50.5 -29q23 -19 37.5 -46.5t18.5 -59.5q1 -3 1.5 -6t0.5 -6h-278l-2 -18t-1 -18q0 -31 9.5 -61.5t30.5 -55.5q19 -22 43.5 -35t52.5 -13q20 0 38 3t35 9q20 7 38.5 17.5t34.5 23.5l18 -13v0z M340 104q-10 21 -16 43.5t-5 45.5q0 17 2.5 33.5t8.5 32.5q-18 37 -53 66t-77 29q-6 0 -12 -0.5t-13 -2.5q-25 -6 -44 -23.5t-30 -43.5q-7 -16 -10 -33t-3 -34q0 -4 0.5 -8.5t0.5 -9.5q4 -41 24 -80t53 -63q14 -10 29.5 -16.5t30.5 -9.5q4 0 8 -0.5t8 -0.5q6 0 12 1t11 2 q27 8 46 27.5t29 44.5v0zM597 261q-1 25 -7 45t-16 34q-10 15 -24 23t-30 8q-19 0 -38 -13t-33 -36q-8 -12 -14.5 -27.5t-11.5 -33.5h174v0z" />
<glyph unicode="&#x178;" horiz-adv-x="735" d="M687 621h-19q-30 0 -57.5 -17.5t-46.5 -39.5l-177 -213v-254q0 -6 1.5 -12.5t3.5 -12.5q7 -19 21.5 -35t33.5 -16h15v-21h-232v21h15q18 0 33 16t22 35q2 6 3.5 12.5t1.5 12.5v239l-189 228q-17 19 -41.5 34.5t-51.5 20.5q-5 1 -11 1.5t-11 0.5v22h290v-22h-47h-3.5h-3.5 q-5 -1 -9 -3t-6 -6q-1 -1 -1 -2.5v-3.5t0.5 -4.5t1.5 -4.5q1 -5 4 -10t6 -9q1 -1 2.5 -3t2.5 -3l141 -170l128 153q6 8 10 16t4 17q0 3 -0.5 6t-2.5 6q-4 10 -13.5 15.5t-20.5 5.5h-21v22h112.5h111.5v-22v0zM299 673q0 14 9.5 23t22.5 9q14 0 23.5 -9t9.5 -23 q0 -13 -9.5 -22.5t-23.5 -9.5q-13 0 -22.5 9.5t-9.5 22.5v0zM392 673q0 14 9.5 23t22.5 9t22.5 -9t9.5 -23q0 -13 -9.5 -22.5t-22.5 -9.5t-22.5 9.5t-9.5 22.5v0z" />
<glyph unicode="&#x2c6;" horiz-adv-x="275" d="M253 748q-1 -5 -2 -11t-3 -12q-5 -22 -23 -36.5t-41 -14.5h-3.5t-3.5 1q-2 0 -3.5 0.5t-3.5 0.5q-11 3 -22.5 5.5t-22.5 5.5q-12 2 -23.5 4.5t-22.5 5.5q-1 0 -2 0.5t-2 0.5h-2h-2q-10 -1 -15.5 -9t-7.5 -19l-21 5q2 5 3.5 11t2.5 12q5 23 23.5 37t40.5 14h3.5t3.5 -1 q2 0 3.5 -0.5t3.5 -0.5q23 -5 45.5 -10.5t44.5 -10.5q2 -1 4.5 -1h3.5q11 0 16.5 9t7.5 19l20 -5v0z" />
<glyph unicode="&#x2dc;" horiz-adv-x="275" d="M262 660l-12 -15l-113 58l-113 -58l-12 16l125 113l125 -114v0z" />
<glyph unicode="&#x2000;" horiz-adv-x="413" />
<glyph unicode="&#x2001;" horiz-adv-x="827" />
<glyph unicode="&#x2002;" horiz-adv-x="413" />
<glyph unicode="&#x2003;" horiz-adv-x="827" />
<glyph unicode="&#x2004;" horiz-adv-x="275" />
<glyph unicode="&#x2005;" horiz-adv-x="206" />
<glyph unicode="&#x2006;" horiz-adv-x="137" />
<glyph unicode="&#x2007;" horiz-adv-x="137" />
<glyph unicode="&#x2008;" horiz-adv-x="103" />
<glyph unicode="&#x2009;" horiz-adv-x="165" />
<glyph unicode="&#x200a;" horiz-adv-x="45" />
<glyph unicode="&#x2010;" horiz-adv-x="177" d="M151 306h-121v55h121v-55v0z" />
<glyph unicode="&#x2011;" horiz-adv-x="177" d="M151 306h-121v55h121v-55v0z" />
<glyph unicode="&#x2012;" horiz-adv-x="177" d="M151 306h-121v55h121v-55v0z" />
<glyph unicode="&#x2013;" d="M481 306h-451v55h451v-55v0z" />
<glyph unicode="&#x2014;" horiz-adv-x="1000" d="M971 306h-941v55h941v-55v0z" />
<glyph unicode="&#x2018;" horiz-adv-x="144" d="M22 543q0 28 9 46t23 35q3 4 6.5 7.5t6.5 7.5q0 1 0.5 1.5l1.5 1.5q2 3 5 6t7 8q1 1 2.5 2t2.5 2q1 0 2.5 0.5t2.5 0.5q5 0 9.5 -4t4.5 -10q0 -1 -1 -3.5t-3 -4.5l-1.5 -1.5l-1.5 -1.5q-6 -7 -10.5 -14.5t-5.5 -18.5q0 -6 1.5 -11.5t4.5 -10.5q1 -3 3 -5.5t4 -5.5 q6 -7 10.5 -16t3.5 -23q-1 -16 -13.5 -27t-29.5 -10q-19 1 -31.5 15.5t-12.5 33.5v0z" />
<glyph unicode="&#x2019;" horiz-adv-x="144" d="M110 611q0 -27 -9 -45.5t-23 -35.5q-3 -4 -6.5 -7.5t-6.5 -7.5q0 -1 -0.5 -1.5l-1.5 -1.5q-2 -3 -5 -6t-7 -8q-1 -1 -2.5 -2t-2.5 -2q-1 0 -2.5 -0.5t-2.5 -0.5q-5 0 -9.5 4t-4.5 10q0 2 1.5 4t2.5 4l1.5 1.5l1.5 1.5q6 7 10.5 14.5t5.5 18.5q1 6 -1 11.5t-5 10.5 q-1 3 -3 5.5t-4 5.5q-6 8 -10.5 17t-3.5 22q1 17 13.5 28t29.5 9q20 -1 32 -15.5t12 -33.5v0z" />
<glyph unicode="&#x201a;" horiz-adv-x="198" d="M189 27q1 -26 -9 -48.5t-27 -39.5q-19 -19 -42 -27.5t-47 -8.5q-13 0 -27 2.5t-28 7.5q2 6 4.5 12t4.5 11q5 -1 9.5 -1h8.5q11 0 21 3t20 11q11 9 18.5 21.5t11.5 26.5q-10 7 -16 17.5t-6 23.5q0 22 15 37t37 15q26 0 39 -19t13 -44v0z" />
<glyph unicode="&#x201c;" horiz-adv-x="221" d="M22 543q0 28 9 46t23 35q3 4 6.5 7.5t6.5 7.5q0 1 0.5 1.5l1.5 1.5q2 3 5 6t7 8q1 1 2.5 2t2.5 2q1 0 2.5 0.5t2.5 0.5q5 0 9.5 -4t4.5 -10q0 -1 -1 -3.5t-3 -4.5l-1.5 -1.5l-1.5 -1.5q-6 -7 -10.5 -14.5t-5.5 -18.5q0 -6 1.5 -11.5t4.5 -10.5q1 -3 3 -5.5t4 -5.5 q6 -7 10.5 -16t3.5 -23q-1 -16 -13.5 -27t-29.5 -10q-19 1 -31.5 15.5t-12.5 33.5v0zM122 543q0 28 9 46t23 35q3 4 6.5 7.5t6.5 7.5q0 1 0.5 1.5l1.5 1.5q2 3 5 6t7 8q1 1 2.5 2t2.5 2q1 0 2.5 0.5t2.5 0.5q5 0 9.5 -4t4.5 -10q0 -1 -1 -3.5t-3 -4.5l-1.5 -1.5l-1.5 -1.5 q-6 -7 -10.5 -14.5t-5.5 -18.5q0 -6 1.5 -11.5t4.5 -10.5q1 -3 3 -5.5t4 -5.5q6 -7 10.5 -16t3.5 -23q-1 -16 -13.5 -27t-29.5 -10q-19 1 -31.5 15.5t-12.5 33.5v0z" />
<glyph unicode="&#x201d;" horiz-adv-x="221" d="M110 611q0 -27 -9 -45.5t-23 -35.5q-3 -4 -6.5 -7.5t-6.5 -7.5q0 -1 -0.5 -1.5l-1.5 -1.5q-2 -3 -5 -6t-7 -8q-1 -1 -2.5 -2t-2.5 -2q-1 0 -2.5 -0.5t-2.5 -0.5q-5 0 -9.5 4t-4.5 10q0 2 1.5 4t2.5 4l1.5 1.5l1.5 1.5q6 7 10.5 14.5t5.5 18.5q1 6 -1 11.5t-5 10.5 q-1 3 -3 5.5t-4 5.5q-6 8 -10.5 17t-3.5 22q1 17 13.5 28t29.5 9q20 -1 32 -15.5t12 -33.5v0zM210 611q0 -27 -9 -45.5t-23 -35.5q-3 -4 -6.5 -7.5t-6.5 -7.5q0 -1 -0.5 -1.5l-1.5 -1.5q-2 -3 -5 -6t-7 -8q-1 -1 -2.5 -2t-2.5 -2q-1 0 -2.5 -0.5t-2.5 -0.5q-5 0 -9.5 4 t-4.5 10q0 2 1.5 4t2.5 4l1.5 1.5l1.5 1.5q6 7 10.5 14.5t5.5 18.5q1 6 -1 11.5t-5 10.5q-1 3 -3 5.5t-4 5.5q-6 8 -10.5 17t-3.5 22q1 17 13.5 28t29.5 9q20 -1 32 -15.5t12 -33.5v0z" />
<glyph unicode="&#x201e;" horiz-adv-x="338" d="M189 27q1 -26 -9 -48.5t-27 -39.5q-19 -19 -42 -27.5t-47 -8.5q-13 0 -27 2.5t-28 7.5q2 6 4.5 12t4.5 11q5 -1 9.5 -1h8.5q11 0 21 3t20 11q11 9 18.5 21.5t11.5 26.5q-10 7 -16 17.5t-6 23.5q0 22 15 37t37 15q26 0 39 -19t13 -44v0zM329 27q1 -26 -9 -48.5t-27 -39.5 q-19 -19 -42 -27.5t-47 -8.5q-13 0 -27 2.5t-28 7.5q2 6 4.5 12t4.5 11q5 -1 9.5 -1h8.5q11 0 21 3t20 11q11 9 18.5 21.5t11.5 26.5q-10 7 -16 17.5t-6 23.5q0 22 15 37t37 15q26 0 39 -19t13 -44v0z" />
<glyph unicode="&#x2022;" horiz-adv-x="260" d="M230 319q0 -38 -27.5 -66t-66.5 -28q-38 0 -66 28t-28 66t28 66t66 28q39 0 66.5 -28t27.5 -66v0z" />
<glyph unicode="&#x2026;" horiz-adv-x="485" d="M152 39q0 -22 -15 -37t-38 -15q-22 0 -37 15t-15 37t15 37.5t37 15.5q23 0 38 -15.5t15 -37.5v0zM302 39q0 -22 -15 -37t-38 -15q-22 0 -37 15t-15 37t15 37.5t37 15.5q23 0 38 -15.5t15 -37.5v0zM452 39q0 -22 -15 -37t-38 -15q-22 0 -37 15t-15 37t15 37.5t37 15.5 q23 0 38 -15.5t15 -37.5v0z" />
<glyph unicode="&#x202f;" horiz-adv-x="165" />
<glyph unicode="&#x2039;" horiz-adv-x="157" d="M139 189l-15 -12l-114 125l113 125l16 -12l-58 -113l58 -113v0z" />
<glyph unicode="&#x203a;" horiz-adv-x="157" d="M9 189l58 113l-58 113l16 12l113 -125l-114 -125l-15 12v0z" />
<glyph unicode="&#x205f;" horiz-adv-x="206" />
<glyph unicode="&#x2122;" />
<glyph unicode="&#xe000;" horiz-adv-x="385" d="M0 385h385v-385h-385v385z" />
</font>
</defs>
</svg>
