<?xml version="1.0" standalone="no"?>
<!DOCTYPE svg PUBLIC "-//W3C//DTD SVG 1.1//EN" "http://www.w3.org/Graphics/SVG/1.1/DTD/svg11.dtd" >
<svg xmlns="http://www.w3.org/2000/svg">
<metadata></metadata>
<defs>
<font id="judsonbold" horiz-adv-x="503" >
<font-face units-per-em="1000" ascent="800" descent="-200" />
<missing-glyph horiz-adv-x="240" />
<glyph horiz-adv-x="1000" />
<glyph horiz-adv-x="1000" />
<glyph unicode="&#xd;" horiz-adv-x="1000" />
<glyph unicode=" "  horiz-adv-x="240" />
<glyph unicode="&#x09;" horiz-adv-x="240" />
<glyph unicode="&#xa0;" horiz-adv-x="240" />
<glyph unicode="!" horiz-adv-x="235" d="M49 52q0 29 20.5 46.5t47.5 17.5q24 0 47 -16.5t23 -44.5q0 -29 -21 -47t-48 -18q-24 0 -46.5 17t-22.5 45zM51 562q0 34 20.5 51t45.5 17t45.5 -17t20.5 -51q0 -36 -11 -132.5t-15 -123.5q-14 -100 -40 -100t-40 100q-26 182 -26 256z" />
<glyph unicode="&#x22;" horiz-adv-x="355" d="M30 620q0 22 18.5 33.5t41.5 11.5t41.5 -11.5t18.5 -33.5q0 -48 -22.5 -147t-37.5 -99t-37.5 99t-22.5 147zM205 620q0 22 18.5 33.5t41.5 11.5t41.5 -11.5t18.5 -33.5q0 -48 -22.5 -147t-37.5 -99t-37.5 99t-22.5 147z" />
<glyph unicode="#" horiz-adv-x="500" d="M30 196v34h95l18 126h-98v34h103l27 195h60l-27 -195h105l27 195h60l-27 -195h97v-34h-102l-18 -126h105v-34h-110l-27 -196h-60l27 196h-105l-27 -196h-60l27 196h-90zM185 230h105l18 126h-105z" />
<glyph unicode="$" horiz-adv-x="443" d="M46 56v102h22q8 -53 49.5 -88.5t85.5 -43.5v213l-31 21q-125 86 -125 180q0 58 48 105.5t108 49.5v35h40v-38q29 -5 56 -17t40 -21l13 -10l8 -110h-22q-4 32 -33 67t-62 51v-191l29 -19q66 -43 103.5 -87.5t37.5 -106.5q0 -69 -51.5 -110.5t-118.5 -46.5v-33h-40v33 q-50 3 -89.5 19.5t-53.5 31.5zM126 472q0 -34 77 -85v174q-38 -2 -57.5 -30.5t-19.5 -58.5zM243 26q35 6 56.5 31.5t21.5 62.5q0 39 -78 93v-187z" />
<glyph unicode="%" horiz-adv-x="540" d="M29 466q0 49 39 85.5t83 36.5t83 -36.5t39 -85.5t-39 -85.5t-83 -36.5t-83 36.5t-39 85.5zM82 20l337 545h40l-337 -545h-40zM113 466q0 -35 10.5 -61.5t27.5 -26.5t27.5 26.5t10.5 61.5t-10.5 61.5t-27.5 26.5t-27.5 -26.5t-10.5 -61.5zM267 119q0 49 39 85.5t83 36.5 t83 -36.5t39 -85.5t-39 -85.5t-83 -36.5t-83 36.5t-39 85.5zM351 119q0 -35 10.5 -61.5t27.5 -26.5t27.5 26.5t10.5 61.5t-10.5 61.5t-27.5 26.5t-27.5 -26.5t-10.5 -61.5z" />
<glyph unicode="&#x26;" horiz-adv-x="607" d="M19 127q0 29 12 54.5t37.5 48.5t47.5 38t58 36q-44 105 -44 170q0 32 11 55.5t26 35.5t36 19t35.5 9t30.5 2q49 0 79.5 -34.5t30.5 -79.5q0 -53 -27 -90.5t-76 -73.5q46 -114 112 -200q54 80 83 188q-9 19 -63 19v21h172v-21q-57 0 -63 -20q-46 -143 -104 -217 q40 -43 69 -43q38 0 52.5 7t30.5 30l12 -10q-14 -38 -37 -59.5t-66 -21.5q-55 0 -114 44q-59 -44 -131 -44q-210 0 -210 137zM136 154q0 -59 39 -90.5t91 -31.5q34 0 67 25q-76 72 -139 201q-30 -25 -44 -47.5t-14 -56.5zM236 466q0 -42 24 -109q77 54 77 112q0 37 -12.5 64 t-35.5 27q-18 0 -35.5 -27t-17.5 -67z" />
<glyph unicode="'" horiz-adv-x="180" d="M30 620q0 22 18.5 33.5t41.5 11.5t41.5 -11.5t18.5 -33.5q0 -48 -22.5 -147t-37.5 -99t-37.5 99t-22.5 147z" />
<glyph unicode="(" horiz-adv-x="251" d="M30 315q0 136 99 290q48 75 73 75q9 0 9 -11q0 -1 -4 -7.5t-10 -19.5t-10 -27q-16 -51 -29.5 -136t-13.5 -164t13.5 -164t29.5 -136q4 -14 10 -27t10 -19.5t4 -7.5q0 -11 -9 -11q-26 0 -74 75q-98 152 -98 290z" />
<glyph unicode=")" horiz-adv-x="250" d="M39 -39q0 1 4 7.5t10 19.5t10 27q16 51 29.5 136t13.5 164t-13.5 164t-29.5 136q-4 14 -10 27t-10 19.5t-4 7.5q0 11 9 11q26 0 74 -75q98 -152 98 -290q0 -136 -99 -290q-48 -75 -73 -75q-9 0 -9 11z" />
<glyph unicode="*" horiz-adv-x="352" d="M40 505q0 20 12 36t28 16q2 0 10 -2q10 -3 33.5 -27.5t27.5 -35.5q7 13 22 15q-8 6 -25 37t-17 41q0 16 12.5 25.5t31.5 9.5t31.5 -9.5t12.5 -25.5q0 -10 -17 -41t-25 -37q16 -2 22 -16q2 9 27 35t35 29q8 2 11 2q15 0 27 -15.5t12 -35.5q0 -14 -8 -25t-23 -11 q-17 0 -45 6t-35 11q1 -2 1 -6q0 -10 -9 -19q11 0 43 -15.5t38 -23.5q6 -9 6 -18q0 -17 -17 -32t-36 -15q-16 0 -25 13q-5 6 -9 32t-4 45q0 9 1 11q-5 -4 -14 -4q-7 0 -13 3q1 -3 1 -12q0 -58 -13 -75q-10 -13 -26 -13q-18 0 -34.5 15t-16.5 31q0 10 6 19q6 8 37 23t42 16 q-9 8 -9 19q0 1 0.5 3t0.5 3q-8 -5 -35.5 -11t-43.5 -6q-15 0 -23 10.5t-8 24.5z" />
<glyph unicode="+" horiz-adv-x="404" d="M35 292v52h141v141h52v-141h141v-52h-141v-141h-52v141h-141z" />
<glyph unicode="," horiz-adv-x="224" d="M41 43q0 30 21 45.5t40 15.5q85 0 85 -110q0 -49 -41 -87t-91 -41v36q36 8 58 32.5t22 47.5q0 21 -8 21q-1 0 -5 -3.5t-11 -6.5t-15 -3q-25 0 -40 15t-15 38z" />
<glyph unicode="-" horiz-adv-x="372" d="M54 296v44h264v-44h-264z" />
<glyph unicode="." horiz-adv-x="220" d="M41 52q0 29 20.5 46.5t47.5 17.5q24 0 47 -16.5t23 -44.5q0 -29 -21 -47t-48 -18q-24 0 -46.5 17t-22.5 45z" />
<glyph unicode="/" horiz-adv-x="474" d="M18 -10l389 622l49 -18l-389 -622z" />
<glyph unicode="0" horiz-adv-x="520" d="M45 292q0 126 58.5 214.5t156.5 88.5t156.5 -88.5t58.5 -214.5t-58.5 -214t-156.5 -88t-156.5 88t-58.5 214zM174 292q0 -271 86 -271t86 271q0 272 -86 272t-86 -272z" />
<glyph unicode="1" horiz-adv-x="361" d="M23 0v21q41 0 74 9.5t33 30.5v374q-51 -33 -90 -63l-7 17l178 196h43v-524q0 -21 33 -30.5t74 -9.5v-21h-338z" />
<glyph unicode="2" horiz-adv-x="476" d="M26 0q0 17 27.5 53t67 79.5t78.5 91t66.5 99t27.5 91.5q0 44 -23 82.5t-58 38.5q-43 0 -77 -15t-49 -33t-26.5 -33t-15.5 -15q-8 0 -8 10q0 11 12.5 33t36 48t65 45.5t90.5 19.5q92 0 136 -43.5t44 -106.5q0 -38 -38 -94.5t-83 -103t-83 -89t-38 -56.5h181q12 0 23.5 9.5 t16.5 17l17 25.5h20l-26 -154h-384z" />
<glyph unicode="3" horiz-adv-x="466" d="M29 72q0 30 7.5 42t28.5 12q17 0 31.5 -16.5t24 -36t30.5 -36t50 -16.5q44 0 74 33.5t30 105.5q0 57 -21.5 92.5t-61.5 35.5h-29q-7 0 -13 4t-6 9q0 4 7 7q94 28 94 125q0 46 -23 74t-68 28q-32 0 -56 -12t-34 -27l-18 -27t-12 -12q-8 0 -8 10q0 11 9 30t26.5 42t50 39.5 t72.5 16.5q182 0 182 -149q0 -67 -91 -119q48 -13 83 -56t35 -91q0 -85 -45 -137.5t-161 -52.5q-41 0 -78 10t-60 24t-36.5 27.5t-13.5 20.5z" />
<glyph unicode="4" horiz-adv-x="435" d="M3 175l276 410h46v-380h81v-30h-81v-134q9 -20 63 -20v-21h-251v21q54 0 63 20v134h-197zM59 205h141v208z" />
<glyph unicode="5" horiz-adv-x="453" d="M23 72q0 30 7.5 42t28.5 12q12 0 24.5 -16.5t23.5 -36t38 -36t64 -16.5q90 0 90 151q0 36 -7 61t-28 50t-68 37.5t-119 12.5l33 252h279l-24 -86h-232l-15 -114q82 0 144 -20t93.5 -51t46.5 -62t15 -60q0 -202 -194 -202q-62 0 -111 17.5t-69 35.5t-20 29z" />
<glyph unicode="6" horiz-adv-x="482" d="M41 224q0 84 31.5 156.5t78.5 118t96 72.5t91 32l13 -34q-143 -36 -175 -215q34 16 74 16q205 0 205 -182q0 -91 -55.5 -144.5t-145.5 -53.5q-97 0 -155 66.5t-58 167.5zM166 224q0 -107 22 -154.5t66 -47.5q76 0 76 174q0 25 -0.5 38.5t-4.5 36t-11.5 34.5t-23.5 21.5 t-38 9.5q-53 0 -81 -14q-5 -37 -5 -98z" />
<glyph unicode="7" horiz-adv-x="393" d="M12 426l38 159h336q0 -15 -43 -122t-86 -239.5t-43 -207.5q0 -9 -12 -17.5t-32 -8.5t-31 8.5t-11 17.5q0 51 40 158t80.5 201t40.5 115h-198q-13 0 -31 -19t-28 -45h-20z" />
<glyph unicode="8" horiz-adv-x="494" d="M46 138q0 95 123 162q-112 86 -112 164q0 54 51 90t135 36q195 0 195 -120q0 -94 -107 -158q117 -89 117 -168q0 -58 -57.5 -106t-139.5 -48q-91 0 -148 42t-57 106zM128 130q0 -46 33.5 -74t70.5 -28q49 0 80 20.5t31 78.5q0 46 -120 132q-11 8 -16 12q-79 -43 -79 -141 zM162 481q0 -17 9.5 -34t32.5 -37.5t38 -32t50 -36.5q65 45 65 137q0 40 -30 62t-65 22q-100 0 -100 -81z" />
<glyph unicode="9" horiz-adv-x="482" d="M27 397q0 91 55.5 144.5t145.5 53.5q97 0 155 -66.5t58 -167.5q0 -84 -31.5 -156.5t-78.5 -118t-96 -72.5t-91 -32l-13 34q143 36 175 215q-34 -16 -74 -16q-205 0 -205 182zM152 389q0 -25 0.5 -38.5t4.5 -36t11.5 -34.5t23.5 -21.5t38 -9.5q53 0 81 14q5 37 5 98 q0 107 -22 154.5t-66 47.5q-76 0 -76 -174z" />
<glyph unicode=":" horiz-adv-x="246" d="M54 52q0 29 20.5 46.5t47.5 17.5q24 0 47 -16.5t23 -44.5q0 -29 -21 -47t-48 -18q-24 0 -46.5 17t-22.5 45zM54 382q0 29 20.5 46.5t47.5 17.5q24 0 47 -16.5t23 -44.5q0 -29 -21 -47t-48 -18q-24 0 -46.5 17t-22.5 45z" />
<glyph unicode=";" horiz-adv-x="257" d="M57 43q0 30 21 45.5t40 15.5q85 0 85 -110q0 -49 -41 -87t-91 -41v36q36 8 58 32.5t22 47.5q0 21 -8 21q-1 0 -5 -3.5t-11 -6.5t-15 -3q-25 0 -40 15t-15 38zM57 382q0 29 20.5 46.5t47.5 17.5q24 0 47 -16.5t23 -44.5q0 -29 -21 -47t-48 -18q-24 0 -46.5 17t-22.5 45z " />
<glyph unicode="&#x3c;" horiz-adv-x="470" d="M29 293v50l378 177v-51l-313 -151l313 -151v-51z" />
<glyph unicode="=" horiz-adv-x="486" d="M61 231v54h364v-54h-364zM61 351v54h364v-54h-364z" />
<glyph unicode="&#x3e;" horiz-adv-x="470" d="M63 116v51l313 151l-313 151v51l378 -177v-50z" />
<glyph unicode="?" horiz-adv-x="426" d="M28 496q0 50 45.5 92t122.5 42q98 0 149 -42t51 -113q0 -39 -19.5 -74.5t-47 -61.5t-55.5 -48.5t-47.5 -46t-19.5 -44.5q0 -5 -7 -9.5t-11 -4.5t-11 4.5t-7 9.5q0 37 15.5 69.5t34.5 54.5t34.5 63t15.5 93q0 53 -23 86.5t-62 33.5q-37 0 -55 -22t-18 -49q0 -12 7.5 -25.5 t7.5 -24.5q0 -17 -14 -30.5t-34 -13.5q-25 0 -38.5 16.5t-13.5 44.5zM123 52q0 29 20.5 46.5t47.5 17.5q24 0 47 -16.5t23 -44.5q0 -29 -21 -47t-48 -18q-24 0 -46.5 17t-22.5 45z" />
<glyph unicode="@" horiz-adv-x="619" d="M41 284q0 142 86 226.5t204 84.5q98 0 163 -64.5t65 -184.5q0 -27 -10.5 -59.5t-30 -65t-54 -54t-76.5 -21.5q-20 0 -40.5 12t-23.5 38q-39 -37 -79 -37q-38 0 -58.5 29t-20.5 71q0 66 45.5 122t95.5 56q44 0 66 -41l8 30h68l-59 -223q-3 -10 3 -15.5t19 -5.5 q33 0 59 33.5t36 67.5t10 55q0 66 -15.5 111.5t-44 66.5t-57 29t-65.5 8q-101 0 -176.5 -71t-75.5 -194q0 -79 42 -140.5t98 -90t112 -28.5q45 0 84.5 14t62.5 29.5t45.5 42.5t28.5 37.5t17 29.5l16 -8q-19 -43 -35.5 -70.5t-46 -56.5t-74 -43t-104.5 -14 q-109 0 -198.5 83.5t-89.5 210.5zM235 270q0 -68 26 -68q36 0 61 41t25 95q0 60 -36 60q-21 0 -48.5 -42.5t-27.5 -85.5z" />
<glyph unicode="A" horiz-adv-x="566" d="M-15 0v21q55 0 63 21l194 543h81l196 -543q7 -21 64 -21v-21h-254v21q46 0 58 12l-56 153h-192l-52 -147q10 -18 62 -18v-21h-164zM151 219h168l-85 233z" />
<glyph unicode="B" horiz-adv-x="599" d="M36 0v21q54 0 63 20v503q-9 20 -63 20v21h239q125 0 188.5 -41t63.5 -97q0 -106 -114 -141q74 -18 116 -56t42 -79q0 -76 -60.5 -123.5t-179.5 -47.5h-295zM226 34h70q140 0 140 136q0 47 -35 83.5t-117 36.5h-58v-256zM226 319h46q72 0 96 31t24 96q0 105 -152 105h-14 v-232z" />
<glyph unicode="C" horiz-adv-x="562" d="M36 284q0 139 94 225t219 86q29 0 72 -15t49 -15q12 0 12 20h23l8 -141h-22q-6 41 -52 79t-89 38q-84 0 -129.5 -69t-45.5 -186q0 -136 49 -209t130 -73q49 0 89.5 33.5t55.5 74.5l41 -12q-23 -55 -72.5 -92.5t-133.5 -37.5q-134 0 -216 87t-82 207z" />
<glyph unicode="D" horiz-adv-x="613" d="M36 -1v21q54 0 63 20v503q-9 20 -63 20v21h230q135 0 222.5 -81.5t87.5 -209.5q0 -129 -85.5 -211.5t-212.5 -82.5h-242zM226 33h52q68 0 115.5 64t47.5 195q0 132 -50 197.5t-125 65.5h-40v-522z" />
<glyph unicode="E" d="M36 0v21q54 0 63 20v503q-9 20 -63 20v21h413v-97h-21q0 54 -20 63h-182v-230h115q20 9 20 63h21v-160h-21q0 54 -20 63h-115v-253h203q25 11 45 63h20l-24 -97h-434z" />
<glyph unicode="F" horiz-adv-x="467" d="M36 0v21q54 0 63 20v503q-9 20 -63 20v21h413v-97h-21q0 54 -20 63h-182v-230h115q20 9 20 63h21v-160h-21q0 54 -20 63h-115v-246q9 -20 63 -20v-21h-253z" />
<glyph unicode="G" horiz-adv-x="623" d="M33 284q0 93 50 165.5t124 109t154 36.5q29 0 75 -15t51 -15q12 0 12 20h23l10 -145h-22q-6 41 -56 81t-92 40q-84 0 -137 -79.5t-53 -195.5q0 -135 51.5 -198.5t124.5 -63.5q42 0 76 9v215q-9 20 -63 20v21h253v-21q-54 0 -63 -20v-168q-17 -31 -71 -60.5t-134 -29.5 q-135 0 -224 88t-89 206z" />
<glyph unicode="H" horiz-adv-x="673" d="M36 0v21q54 0 63 20v503q-9 20 -63 20v21h253v-21q-54 0 -63 -20v-223h221v223q-9 20 -63 20v21h253v-21q-54 0 -63 -20v-503q9 -20 63 -20v-21h-253v21q54 0 63 20v246h-221v-246q9 -20 63 -20v-21h-253z" />
<glyph unicode="I" horiz-adv-x="325" d="M36 0v21q54 0 63 20v503q-9 20 -63 20v21h253v-21q-54 0 -63 -20v-503q9 -20 63 -20v-21h-253z" />
<glyph unicode="J" horiz-adv-x="424" d="M1 80q0 23 14.5 41.5t33.5 18.5q17 0 33.5 -13.5t16.5 -31.5q0 -34 -25 -42q1 -1 4.5 -5.5t7 -7t10.5 -6.5t18.5 -6t26.5 -2q44 0 59 53.5t15 174.5v290q-9 20 -63 20v21h253v-21q-54 0 -63 -20v-326q0 -116 -46.5 -172t-144.5 -56q-71 0 -110.5 28.5t-39.5 61.5z" />
<glyph unicode="K" horiz-adv-x="627" d="M36 0v21q54 0 63 20v503q-9 20 -63 20v21h251v-21q-54 0 -63 -20v-503q9 -20 63 -20v-21h-251zM229 314l245 243q-14 7 -51 7v21h157v-21q-9 0 -16 -0.5t-13 -2.5t-10 -3t-8 -4t-5.5 -4t-5.5 -5l-4 -4l-182 -179l251 -325q13 -16 63 -16v-21h-230v21q23 0 37 3z" />
<glyph unicode="L" horiz-adv-x="498" d="M36 0v21q54 0 63 20v503q-9 20 -63 20v21h253v-21q-54 0 -63 -20v-510h208q25 11 45 63h20l-24 -97h-439z" />
<glyph unicode="M" horiz-adv-x="862" d="M36 0v21q54 0 63 20v503q-9 20 -63 20v21h181l213 -465l213 465h183v-21q-54 0 -63 -20v-503q9 -20 63 -20v-21h-253v21q54 0 63 20v449l-224 -490h-50l-229 496v-455q9 -20 63 -20v-21h-160z" />
<glyph unicode="N" horiz-adv-x="623" d="M36 0v21q54 0 63 20v503q-9 20 -63 20v21h169l296 -405v364q-9 20 -63 20v21h160v-21q-54 0 -63 -20v-544h-44l-358 495v-454q9 -20 63 -20v-21h-160z" />
<glyph unicode="O" horiz-adv-x="664" d="M35 292q0 123 87 213t210 90t210 -90t87 -213t-87.5 -212.5t-209.5 -89.5q-124 0 -210.5 89.5t-86.5 212.5zM170 300q0 -68 14.5 -127t53.5 -104t98 -45q45 0 77 23.5t49 63.5t24.5 82.5t7.5 90.5q0 67 -15 127t-54 105t-97 45q-45 0 -77 -24t-49 -64t-24.5 -82.5 t-7.5 -90.5z" />
<glyph unicode="P" horiz-adv-x="565" d="M36 0v21q54 0 63 20v503q-9 20 -63 20v21h266q123 0 187.5 -47t64.5 -105q0 -75 -60 -121t-180 -46h-88v-225q9 -20 63 -20v-21h-253zM226 300h53q77 0 108.5 30.5t31.5 101.5q0 119 -152 119h-41v-251z" />
<glyph unicode="Q" horiz-adv-x="664" d="M35 292q0 123 87 213t210 90t210 -90t87 -213q0 -83 -42.5 -153.5t-112.5 -110.5l8 -20t8.5 -20.5l7.5 -16.5t9.5 -15.5t10.5 -11t13 -8.5t16 -2q24 0 44 11.5t28 22.5l8 12l15 -11q-1 -3 -3.5 -7.5t-11 -17t-18.5 -22t-27 -17t-35 -7.5q-67 0 -103 26t-59 71 q-28 -5 -53 -5q-124 0 -210.5 89.5t-86.5 212.5zM170 300q0 -115 41 -193q39 39 94 39q94 0 140 -64q49 70 49 202q0 67 -15 127t-54 105t-97 45q-45 0 -77 -24t-49 -64t-24.5 -82.5t-7.5 -90.5zM227 81q42 -57 109 -57q21 0 34 4q-9 21 -13.5 29.5t-13.5 21.5t-19.5 18 t-24.5 5q-40 0 -72 -21z" />
<glyph unicode="R" horiz-adv-x="589" d="M36 0v21q54 0 63 20v503q-9 20 -63 20v21h246q124 0 188 -45t64 -103q0 -55 -33 -96.5t-98 -60.5l133 -238q10 -21 66 -21v-21h-43q-79 0 -116.5 9t-56.5 43l-121 214h-39v-225q9 -20 63 -20v-21h-253zM226 300h33q68 0 104 30.5t36 105.5q0 58 -40.5 86.5t-111.5 28.5 h-21v-251z" />
<glyph unicode="S" horiz-adv-x="470" d="M46 0v158h22q11 -59 66 -96.5t104 -37.5q50 0 80.5 26.5t30.5 69.5q0 15 -9.5 29.5t-30 30t-36.5 26t-46.5 28.5t-43.5 26q-136 84 -136 180q0 59 54 107t121 48q30 0 73 -15t48 -15q12 0 12 20h23l10 -151h-22q-6 41 -54 84t-89 43q-45 0 -68 -28.5t-23 -60.5 q0 -13 9 -25.5t29 -27.5t35 -24.5t46 -27.5t43 -25q69 -42 108 -87t39 -107q0 -74 -60 -116t-137 -42q-49 0 -100 15t-53 15q-6 0 -14 -6t-8 -14h-23z" />
<glyph unicode="T" horiz-adv-x="543" d="M13 488v97h517v-97h-21q0 48 -35 63h-139v-510q9 -20 63 -20v-21h-253v21q54 0 63 20v510h-139q-35 -15 -35 -63h-21z" />
<glyph unicode="U" horiz-adv-x="604" d="M18 564v21h253v-21q-54 0 -63 -20v-310q0 -102 35 -156t103 -54q65 0 104 55t39 149v316q-9 20 -63 20v21h160v-21q-54 0 -63 -20v-296q0 -130 -57.5 -194t-144.5 -64q-240 0 -240 258v296q-9 20 -63 20z" />
<glyph unicode="V" horiz-adv-x="566" d="M-17 564v21h254v-21q-46 0 -58 -12l153 -419l147 413q-10 18 -62 18v21h164v-21q-55 0 -63 -21l-194 -543h-81l-196 543q-7 21 -64 21z" />
<glyph unicode="W" horiz-adv-x="897" d="M-17 564v21h254v-21q-46 0 -58 -12l153 -418l96 271l-49 138q-7 21 -64 21v21h254v-21q-46 0 -58 -12l153 -419l147 413q-10 18 -62 18v21h164v-21q-55 0 -63 -21l-194 -543h-83l-125 349l-124 -349h-83l-194 543q-7 21 -64 21z" />
<glyph unicode="X" horiz-adv-x="535" d="M-4 564v21h254v-21q-47 0 -58 -12l102 -179l120 176q-10 15 -60 15v21h164v-21q-51 0 -64 -20l-140 -205l170 -297q11 -21 64 -21v-21h-254v21q47 0 58 12l-112 197l-133 -195q11 -14 60 -14v-21h-164v21q52 0 64 19l153 224l-160 280q-12 20 -64 20z" />
<glyph unicode="Y" horiz-adv-x="584" d="M-16 564v21h254v-21q-47 0 -58 -12l155 -271l160 265q-11 18 -62 18v21h164v-21q-49 0 -57 -13l-180 -299v-211q9 -20 63 -20v-21h-253v21q54 0 63 20v179l-185 324q-12 20 -64 20z" />
<glyph unicode="Z" horiz-adv-x="492" d="M14 0l283 555h-193q-12 -5 -23.5 -29.5t-11.5 -53.5h-21v113h403l-283 -555h222q12 5 32 34t28 58h21l-25 -122h-432z" />
<glyph unicode="[" horiz-adv-x="277" d="M61 -156v771h196v-36h-81v-699h81v-36h-196z" />
<glyph unicode="\" horiz-adv-x="474" d="M18 594l49 18l389 -622l-49 -18z" />
<glyph unicode="]" horiz-adv-x="277" d="M20 -120h81v699h-81v36h196v-771h-196v36z" />
<glyph unicode="^" horiz-adv-x="456" d="M50 352l164 196h27l165 -196l-34 -44l-144 172l-144 -172z" />
<glyph unicode="_" horiz-adv-x="456" d="M46 -50h364v-44h-364v44z" />
<glyph unicode="`" horiz-adv-x="300" d="M60 662h126l54 -162h-46z" />
<glyph unicode="a" d="M25 112q0 25 17.5 45t53.5 34t64.5 22t78.5 18.5t68 15.5q0 94 -15.5 130.5t-70.5 36.5q-33 0 -59.5 -13.5t-31.5 -34.5q23 0 23 -41q0 -17 -17 -26t-36 -9q-20 0 -35.5 14t-15.5 36q0 51 50.5 80.5t131.5 29.5q95 0 148 -47.5t53 -120.5v-198q0 -32 10.5 -47t25.5 -15 q13 0 23.5 7t10.5 17h18q0 -54 -110 -54q-51 0 -79 36q-60 -38 -139 -38q-167 0 -167 122zM153 110q0 -46 19.5 -66t44.5 -20q44 0 100 28q-10 27 -10 60v113q-85 -26 -112 -43q-42 -28 -42 -72z" />
<glyph unicode="b" horiz-adv-x="553" d="M-6 564v23q19 0 92 21.5t96 21.5v-204q46 28 112 28q26 0 54 -6.5t60 -23t57 -42t41.5 -67t16.5 -93.5q0 -110 -73.5 -171t-177.5 -61q-67 0 -111 32q-80 -32 -104 -32v570q-54 4 -63 4zM182 42q34 -18 84 -18q54 0 90.5 51.5t36.5 146.5q0 90 -28.5 144t-80.5 54 q-61 0 -102 -26v-352z" />
<glyph unicode="c" horiz-adv-x="481" d="M31 242q0 86 66 147t167 61q81 0 130.5 -27.5t49.5 -78.5q0 -25 -12.5 -41t-37.5 -16q-24 0 -38.5 11.5t-14.5 30.5q0 21 10.5 31t24.5 10q-13 50 -102 50q-47 0 -80 -47.5t-33 -126.5q0 -89 36 -153.5t94 -64.5q84 0 127 72l37 -18q-29 -48 -75.5 -70t-122.5 -22 q-30 0 -59 6.5t-60 24.5t-54 45t-38 72.5t-15 103.5z" />
<glyph unicode="d" horiz-adv-x="577" d="M31 222q0 110 71 171t175 61q57 0 98 -24v130q-54 4 -63 4v23q19 0 92 21.5t96 21.5v-570q54 -4 63 -4v-23q-19 0 -92 -21.5t-96 -21.5v33q-48 -33 -120 -33q-26 0 -53.5 6.5t-59 23t-55.5 42t-40 67t-16 93.5zM161 222q0 -83 33 -140.5t71 -57.5q69 0 110 32v342 q-38 22 -92 22q-44 0 -83 -54t-39 -144z" />
<glyph unicode="e" horiz-adv-x="501" d="M31 242q0 87 61.5 147.5t159.5 60.5q107 0 166 -60.5t59 -148.5h-316q2 -87 39.5 -150t95.5 -63q87 0 140 66l24 -12q-29 -48 -75.5 -70t-122.5 -22q-39 0 -76 11.5t-73.5 38t-59 78.5t-22.5 124zM162 272h182q-6 71 -24.5 109.5t-59.5 38.5q-36 0 -64.5 -36.5 t-33.5 -111.5z" />
<glyph unicode="f" horiz-adv-x="301" d="M21 0v21q54 0 63 20v369h-50v30h50v34q0 82 41.5 119t109.5 37q59 0 89.5 -18t30.5 -41q0 -45 -40 -45q-24 0 -34 11.5t-9.5 25.5t-5 25.5t-21.5 11.5q-36 0 -36 -112v-48h77v-30h-77v-369q9 -20 63 -20v-21h-251z" />
<glyph unicode="g" horiz-adv-x="537" d="M32 218q0 111 69 171.5t172 60.5q64 0 108 -30q75 30 99 30v-421q0 -100 -58.5 -164.5t-155.5 -64.5q-92 0 -146 24t-54 64q0 64 54 64q20 0 33 -14t13 -33q0 -32 -25 -42q27 -27 115 -27q46 0 70 39.5t28 136.5q-42 -22 -103 -22q-33 0 -67.5 10.5t-70.5 34.5 t-58.5 71.5t-22.5 111.5zM162 218q0 -58 10.5 -99.5t27 -60.5t31.5 -26.5t30 -7.5q54 0 94 20v358q-31 14 -76 14q-117 0 -117 -198z" />
<glyph unicode="h" horiz-adv-x="596" d="M14 0v21q54 0 63 20v519q-54 4 -63 4v23q19 0 92 21.5t96 21.5v-219q60 39 119 39q99 0 150 -32t51 -106v-271q9 -20 63 -20v-21h-251v21q54 0 63 20v247q0 69 -20.5 98.5t-61.5 29.5q-60 0 -113 -36v-339q9 -20 63 -20v-21h-251z" />
<glyph unicode="i" horiz-adv-x="289" d="M24 0v21q54 0 63 20v339q-52 4 -63 4v23q19 0 92 21.5t96 21.5v-409q9 -20 63 -20v-21h-251zM74 573q0 21 22.5 39t47.5 18q24 0 48.5 -17.5t24.5 -42.5q0 -21 -22.5 -38.5t-47.5 -17.5q-24 0 -48.5 17.5t-24.5 41.5z" />
<glyph unicode="j" horiz-adv-x="258" d="M-88 -112q0 21 12.5 36.5t35.5 15.5q21 0 32.5 -15.5t11.5 -35.5q0 -14 -10 -24q0 -34 38 -34q19 0 31.5 29t12.5 83v438q-52 4 -63 4v23q19 0 92 21.5t96 21.5v-494q0 -80 -49 -118t-110 -38q-130 0 -130 87zM63 574q0 21 22 39t47 18q24 0 49 -18t25 -42 q0 -21 -23 -38.5t-48 -17.5q-24 0 -48 17.5t-24 41.5z" />
<glyph unicode="k" horiz-adv-x="550" d="M14 0v21q54 0 63 20v519q-54 4 -63 4v23q19 0 92 21.5t96 21.5v-589q9 -20 63 -20v-21h-251zM209 254l177 159q-15 6 -49 6v21h157v-21q-39 0 -54 -13l-121 -108l186 -258q14 -19 63 -19v-21h-230v21q24 0 38 3z" />
<glyph unicode="l" horiz-adv-x="279" d="M14 0v21q54 0 63 20v519q-54 4 -63 4v23q19 0 92 21.5t96 21.5v-589q9 -20 63 -20v-21h-251z" />
<glyph unicode="m" horiz-adv-x="876" d="M24 0v21q54 0 63 20v339q-54 4 -63 4v23q19 0 92 21.5t96 21.5v-35q41 35 103 35q133 0 175 -56q45 56 123 56q96 0 145.5 -51t49.5 -177v-181q9 -20 63 -20v-21h-251v21q54 0 63 20v194q0 93 -16.5 137t-59.5 44q-54 0 -102 -50q5 -14 5 -38v-287q9 -20 63 -20v-21h-251 v21q54 0 63 20v229q0 82 -18 114t-58 32q-42 0 -97 -48v-327q9 -20 63 -20v-21h-251z" />
<glyph unicode="n" horiz-adv-x="597" d="M24 0v21q54 0 63 20v339q-54 4 -63 4v23q19 0 92 21.5t96 21.5v-42q50 42 110 42q96 0 149 -35.5t53 -106.5v-267q9 -20 63 -20v-21h-251v21q54 0 63 20v274q0 45 -20.5 73t-62.5 28q-62 0 -104 -40v-335q9 -20 63 -20v-21h-251z" />
<glyph unicode="o" horiz-adv-x="545" d="M31 228q0 95 60.5 158.5t178.5 63.5q119 0 181.5 -63t62.5 -171q0 -96 -60 -161t-177 -65q-113 0 -179.5 66t-66.5 172zM162 248q0 -118 31.5 -173t96.5 -55q45 0 69 47.5t24 125.5q0 122 -28.5 174t-101.5 52q-43 0 -67 -50t-24 -121z" />
<glyph unicode="p" horiz-adv-x="573" d="M14 -171q54 0 63 20v530q-62 5 -63 5v23q19 0 92 21.5t96 21.5v-27q45 27 110 27q46 0 84 -11t72 -36t53.5 -72.5t19.5 -112.5q0 -113 -65.5 -170.5t-185.5 -57.5q-51 0 -88 17v-158q9 -20 63 -20v-21h-251v21zM202 39q36 -15 82 -15q54 0 90.5 50.5t36.5 143.5 q0 38 -12 82.5t-38 80t-59 35.5q-61 0 -100 -25v-352z" />
<glyph unicode="q" horiz-adv-x="548" d="M30 218q0 110 73.5 171t177.5 61q65 0 109 -30q75 30 101 30v-601q9 -20 63 -20v-21h-251v21q54 0 63 20v165q-43 -24 -107 -24q-33 0 -69 10.5t-74 34.5t-62 71.5t-24 111.5zM160 218q0 -90 28.5 -142t80.5 -52q57 0 97 22v355q-36 15 -79 15q-54 0 -90.5 -51.5 t-36.5 -146.5z" />
<glyph unicode="r" horiz-adv-x="436" d="M24 0v21q54 0 63 20v339q-54 4 -63 4v23q19 0 92 21.5t96 21.5v-42q52 42 99 42q124 0 124 -60q0 -24 -14.5 -38t-35.5 -14q-23 0 -35 12t-15 27t-11.5 27t-24.5 12q-38 0 -87 -42v-333q9 -20 63 -20v-21h-251z" />
<glyph unicode="s" horiz-adv-x="397" d="M38 153h22q10 -40 60.5 -81.5t85.5 -41.5q68 0 68 62q0 17 -24 33.5t-58 33t-68 37.5t-58 55.5t-24 77.5q0 56 42.5 88.5t101.5 32.5q34 0 70 -15t41 -15q12 0 12 20h23l10 -146h-22q-10 42 -51.5 82t-79.5 40q-71 0 -71 -52q0 -18 39 -41.5t85 -45.5t85 -63t39 -90 q0 -62 -47 -98t-121 -36q-36 0 -73 15t-41 15q-12 0 -12 -20h-24z" />
<glyph unicode="t" horiz-adv-x="354" d="M7 410v30q59 0 103 44.5t44 100.5h54v-145h86v-30h-86v-318q0 -31 11 -47.5t41 -16.5q18 0 36.5 17.5t25.5 48.5l24 -12q-21 -92 -120 -92q-78 0 -113.5 35.5t-35.5 116.5v268h-70z" />
<glyph unicode="u" horiz-adv-x="570" d="M10 419v21h188v-315q0 -21 0.5 -32.5t4.5 -26.5t11.5 -23t22 -13.5t35.5 -5.5q49 0 96 27v348q-9 20 -63 20v21h188v-380q54 -4 63 -4v-23q-19 0 -92 -21.5t-96 -21.5v29q-51 -29 -102 -29q-193 0 -193 142v267q-9 20 -63 20z" />
<glyph unicode="v" horiz-adv-x="504" d="M-12 419v21h229v-21q-29 0 -42 -4l119 -293l114 286q-14 11 -56 11v21h164v-21q-55 0 -63 -20l-159 -399h-84l-159 399q-9 20 -63 20z" />
<glyph unicode="w" horiz-adv-x="816" d="M-12 419v21h229v-21q-29 0 -42 -4l119 -293l90 225l-21 52q-9 20 -63 20v21h229v-21q-29 0 -42 -4l119 -293l114 286q-14 11 -56 11v21h164v-21q-51 0 -61 -16l-161 -403h-84l-114 286l-114 -286h-84l-159 399q-9 20 -63 20z" />
<glyph unicode="x" horiz-adv-x="485" d="M1 0v21q54 0 68 20l122 163l-125 201q-9 14 -58 14v21h229v-21q-24 0 -39 -3l69 -111l81 108q-14 6 -48 6v21h161v-21q-54 0 -67 -19l-102 -135l143 -230q9 -14 59 -14v-21h-229v21q25 0 38 3l-87 140l-102 -137q13 -6 48 -6v-21h-161z" />
<glyph unicode="y" horiz-adv-x="504" d="M-12 419v21h229v-21q-29 0 -42 -4l119 -293l114 286q-14 11 -56 11v21h164v-21q-54 0 -61 -16l-202 -505q-33 -82 -105 -82q-73 0 -73 48q0 18 11.5 29t32.5 11q16 0 28 -15t27 -15q21 0 28 18l26 64l-177 443q-9 20 -63 20z" />
<glyph unicode="z" horiz-adv-x="414" d="M12 0l232 410h-144q-13 -6 -24 -24t-11 -46h-21v100h346l-232 -410h168q13 5 24 24.5t11 48.5h21v-103h-370z" />
<glyph unicode="{" horiz-adv-x="275" d="M14 209v23q38 0 56.5 13t18.5 47q0 16 -4.5 100t-4.5 110q0 38 43 65t128 27v-23q-37 0 -52 -12.5t-15 -47.5q0 -16 5.5 -100t5.5 -110q0 -22 -28 -44t-67 -36q39 -14 67 -36t28 -44q0 -26 -5.5 -110.5t-5.5 -100.5q0 -35 15 -47t52 -12v-24q-85 0 -128 27t-43 65 q0 26 4.5 110.5t4.5 100.5q0 34 -18 46.5t-57 12.5z" />
<glyph unicode="|" horiz-adv-x="177" d="M63 -30v680h51v-680h-51z" />
<glyph unicode="}" horiz-adv-x="275" d="M24 -129q37 0 52 12t15 47q0 16 -5.5 100.5t-5.5 110.5q0 22 28 44t67 36q-39 14 -67 36t-28 44q0 26 5.5 110t5.5 100q0 35 -15 47.5t-52 12.5v23q85 0 128 -27t43 -65q0 -26 -4.5 -110t-4.5 -100q0 -34 18 -47t57 -13v-23q-39 0 -57 -12.5t-18 -46.5q0 -16 4.5 -100.5 t4.5 -110.5q0 -38 -43 -65t-128 -27v24z" />
<glyph unicode="~" horiz-adv-x="529" d="M52 208q0 132 102 132q29 0 123 -29.5t112 -29.5q39 0 52.5 12.5t13.5 46.5h26q0 -132 -103 -132q-29 0 -122.5 29.5t-111.5 29.5q-39 0 -52.5 -12.5t-13.5 -46.5h-26z" />
<glyph unicode="&#xa1;" horiz-adv-x="235" d="M48 465q0 29 21 47t48 18q24 0 46.5 -17t22.5 -45q0 -29 -20.5 -46.5t-47.5 -17.5q-24 0 -47 16.5t-23 44.5zM52 -42q0 36 11 132.5t15 123.5q14 100 40 100t40 -100q26 -182 26 -256q0 -34 -20.5 -51t-45.5 -17t-45.5 17t-20.5 51z" />
<glyph unicode="&#xa2;" horiz-adv-x="472" d="M31 242q0 87 61.5 147.5t161.5 60.5h15l22 125l46 -9l-21 -121q103 -19 103 -101q0 -23 -12 -36.5t-31 -13.5q-18 0 -31.5 9t-13.5 26q0 21 10.5 31t24.5 10q-10 36 -55 46l-67 -380q18 -8 37 -8q87 0 140 66l24 -12q-29 -48 -75.5 -70t-122.5 -22h-11l-21 -118l-47 9 l21 116q-68 16 -113 75t-45 170zM151 246q0 -111 51 -176l62 350q-113 0 -113 -174z" />
<glyph unicode="&#xa3;" horiz-adv-x="531" d="M28 82q0 28 27.5 54t56.5 26q23 0 50 -9q0 30 -7.5 90t-8.5 102h-58v44h59q8 206 152 206q66 0 108 -23t42 -64q0 -18 -13.5 -29t-29.5 -11t-27.5 11t-11.5 28q0 14 10 24q0 16 -18 25t-39 9q-28 0 -38 -37t-11 -139h81v-44h-80q1 -24 5 -77.5t4 -89.5q0 -40 -14 -77 q37 -14 75 -14q44 0 75.5 6.5t44 15t21 15t10.5 6.5q10 0 10 -12q0 -5 -4.5 -17.5t-17 -31.5t-29 -36t-45 -29t-61.5 -12q-61 0 -117 47q-44 -49 -101 -49q-49 0 -74.5 27t-25.5 65zM62 81q0 -25 17.5 -41t44.5 -16q32 0 37 80q-27 24 -49 24q-19 0 -34.5 -14t-15.5 -33z " />
<glyph unicode="&#xa4;" d="M49 94l54 53q-39 52 -39 115q0 65 41 117l-56 55l32 32l55 -56q51 40 116 40q63 0 115 -39l54 55l32 -32l-54 -54q41 -50 41 -118q0 -65 -40 -116l53 -52l-32 -32l-52 53q-52 -41 -117 -41q-68 0 -118 41l-53 -53zM109 262q0 -59 42 -101t101 -42t101 42t42 101t-42 101 t-101 42t-101 -42t-42 -101z" />
<glyph unicode="&#xa5;" horiz-adv-x="559" d="M22 564v21h229v-21q-29 0 -42 -4l112 -275l106 268q-14 11 -56 11v21h164v-21q-55 0 -62 -19l-130 -325h79v-44h-85v-56h85v-44h-85v-35q9 -20 63 -20v-21h-218v21q54 0 63 20v35h-87v44h87v23l-13 33h-74v44h56l-129 324q-9 20 -63 20z" />
<glyph unicode="&#xa6;" horiz-adv-x="183" d="M66 -30v288h51v-288h-51zM66 362v288h51v-288h-51z" />
<glyph unicode="&#xa7;" horiz-adv-x="402" d="M36 210q0 119 93 154q-67 74 -67 128q0 50 43.5 77t113.5 27q45 0 83 -35.5t38 -62.5q0 -16 -9 -28t-25 -12q-14 0 -25 11t-11 25q0 30 -16 56t-43 26q-31 0 -44.5 -12t-13.5 -48q0 -20 33.5 -61t73 -81.5t73 -90t33.5 -85.5q0 -119 -93 -154q67 -74 67 -128 q0 -50 -43.5 -77t-113.5 -27q-45 0 -83 35.5t-38 62.5q0 16 9 28t25 12q14 0 25 -11t11 -25q0 -30 16 -56t43 -26q31 0 44.5 12t13.5 48q0 20 -33.5 61t-73 81.5t-73 90t-33.5 85.5zM121 268q0 -32 19 -67t38.5 -57t55.5 -59l11 -11q36 20 36 66q0 32 -19 67t-38.5 57 t-55.5 59q-3 2 -4 3.5t-3 3.5l-4 4q-36 -20 -36 -66z" />
<glyph unicode="&#xa8;" horiz-adv-x="402" d="M47 559q0 24 17.5 41.5t41.5 17.5t41 -17.5t17 -41.5t-17 -41.5t-41 -17.5t-41.5 17.5t-17.5 41.5zM238 559q0 24 17 41.5t41 17.5t41.5 -17.5t17.5 -41.5t-17.5 -41.5t-41.5 -17.5t-41 17.5t-17 41.5z" />
<glyph unicode="&#xa9;" horiz-adv-x="636" d="M42 268q0 114 81 195t195 81t195 -81t81 -195t-81 -195t-195 -81t-195 81t-81 195zM69 268q0 -103 73 -176t176 -73t176 73t73 176t-73 176t-176 73t-176 -73t-73 -176zM171 268q0 83 49 122t117 39q13 0 25.5 -3.5t20.5 -7.5t9 -4t1 10h22l6 -85h-20q-5 17 -10.5 27.5 t-19 19.5t-33.5 9q-41 0 -63 -30.5t-22 -85.5q0 -66 24 -97.5t62 -31.5q49 0 69 52l31 -13q-28 -73 -110 -73q-73 0 -115.5 41.5t-42.5 110.5z" />
<glyph unicode="&#xaa;" horiz-adv-x="402" d="M56 129v26h297v-26h-297zM56 277q0 14 10.5 25t32 18.5t39 12t47.5 10t41 8.5q0 51 -9.5 71.5t-42.5 20.5q-48 0 -55 -26q14 0 14 -23q0 -19 -32 -19q-12 0 -21 7.5t-9 19.5q0 28 30.5 44.5t78.5 16.5q57 0 89 -26t32 -66v-109q0 -34 21 -34t21 13h10q0 -30 -66 -30 q-30 0 -47 20q-38 -21 -83 -21q-101 0 -101 67zM133 276q0 -25 12 -36t27 -11q28 0 60 15q-6 14 -6 33v62q-62 -17 -78 -31q-15 -14 -15 -32z" />
<glyph unicode="&#xab;" horiz-adv-x="439" d="M33 299q0 22 17 32l174 110v-42l-100 -100l100 -100v-42l-174 110q-17 11 -17 32zM193 299q0 22 17 32l174 110v-42l-100 -100l100 -100v-42l-174 110q-17 11 -17 32z" />
<glyph unicode="&#xac;" horiz-adv-x="416" d="M61 296v44h292v-132h-42v88h-250z" />
<glyph unicode="&#xad;" horiz-adv-x="372" d="M54 296v44h264v-44h-264z" />
<glyph unicode="&#xae;" horiz-adv-x="636" d="M42 268q0 114 81 195t195 81t195 -81t81 -195t-81 -195t-195 -81t-195 81t-81 195zM69 268q0 -103 73 -176t176 -73t176 73t73 176t-73 176t-176 73t-176 -73t-73 -176zM178 122v20q26 0 31 7v249q-3 6 -31 6v20h126q65 0 101.5 -24t36.5 -54q0 -60 -63 -82l64 -114 q3 -8 25 -8v-20h-26q-37 0 -53 5.5t-26 23.5l-59 104h-23v-106q3 -7 31 -7v-20h-134zM281 282h21q64 0 64 63q0 24 -19 38.5t-51 14.5h-15v-116z" />
<glyph unicode="&#xaf;" horiz-adv-x="384" d="M60 514v54h264v-54h-264z" />
<glyph unicode="&#xb0;" horiz-adv-x="296" d="M34 516q0 46 34 80t80 34t80 -34t34 -80t-33.5 -79.5t-80.5 -33.5t-80.5 33.5t-33.5 79.5zM75 516q0 -30 21.5 -51t51.5 -21t51.5 21t21.5 51t-21.5 51.5t-51.5 21.5t-51.5 -21.5t-21.5 -51.5z" />
<glyph unicode="&#xb1;" horiz-adv-x="408" d="M61 134v44h286v-44h-286zM61 348v44h121v101h44v-101h121v-44h-121v-101h-44v101h-121z" />
<glyph unicode="&#xb2;" horiz-adv-x="352" d="M32 280v5q0 12 28.5 41.5t63 61.5t63 77t28.5 83q0 27 -14 44.5t-39 17.5q-35 0 -57.5 -10t-29.5 -22t-13.5 -22t-12.5 -10q-10 0 -10 11q0 26 34.5 64.5t96.5 38.5q67 0 98.5 -27.5t31.5 -75.5q0 -27 -23 -62t-50.5 -61.5t-56.5 -53t-35 -34.5h124q30 12 38 33h22 l-28 -99h-259z" />
<glyph unicode="&#xb3;" horiz-adv-x="346" d="M33 336q0 23 6 32t22 9q11 0 18.5 -11t12.5 -24.5t22 -24.5t46 -11q34 0 53 26t19 56q0 25 -14.5 50.5t-36.5 25.5q-8 0 -17.5 -2t-15.5 -2q-7 0 -12.5 4t-5.5 9q0 9 8 9q20 6 29 9.5t22 11.5t18 20.5t5 30.5q0 26 -15 41t-43 15q-29 0 -47 -8.5t-23.5 -18t-11 -18 t-11.5 -8.5q-10 0 -10 12q0 24 29.5 57.5t81.5 33.5q127 0 127 -97q0 -43 -49 -72q30 -12 48.5 -36t18.5 -53q0 -58 -31.5 -92t-111.5 -34q-37 0 -69 12t-47 25.5t-15 22.5z" />
<glyph unicode="&#xb4;" horiz-adv-x="300" d="M29 500l54 162h126l-134 -162h-46z" />
<glyph unicode="&#xb5;" horiz-adv-x="611" d="M74 -134v574h125v-315q0 -101 92 -101q49 0 88 45q-4 16 -4 42v329h125v-357q0 -32 10.5 -47.5t25.5 -15.5q13 0 23.5 7.5t10.5 17.5h18q0 -55 -109 -55q-63 0 -89 51q-45 -51 -113 -51q-107 0 -161 47v-70q0 -29 10.5 -47t22.5 -24.5t22.5 -19t10.5 -31.5 q0 -22 -15 -33.5t-35 -11.5q-21 0 -39.5 15.5t-18.5 50.5z" />
<glyph unicode="&#xb6;" horiz-adv-x="531" d="M29 426q0 27 11.5 53.5t35.5 51t68.5 39.5t102.5 15h240v-21q-54 0 -63 -20v-503q9 -20 63 -20v-21h-155v551h-51v-551h-155v21q54 0 63 20v227q-76 7 -118 50t-42 108z" />
<glyph unicode="&#xb7;" horiz-adv-x="230" d="M46 302q0 29 20.5 46.5t47.5 17.5q24 0 47 -16.5t23 -44.5q0 -29 -21 -47t-48 -18q-24 0 -46.5 17t-22.5 45z" />
<glyph unicode="&#xb8;" horiz-adv-x="304" d="M60 -175q18 -2 25 -2q67 0 67 47q0 44 -61 44l28 98h48l-18 -67q19 0 41 -5.5t43 -22t21 -39.5q0 -30 -29 -53.5t-91 -23.5q-33 0 -74 7v17z" />
<glyph unicode="&#xb9;" horiz-adv-x="243" d="M35 508q85 147 106 147h23v-342q5 -10 43 -10v-23h-166v23q36 0 42 10v217q-7 -4 -31 -31z" />
<glyph unicode="&#xba;" horiz-adv-x="398" d="M54 129v26h290v-26h-290zM54 341q0 53 36.5 87.5t107.5 34.5t108.5 -35t37.5 -94q0 -53 -36 -88.5t-106 -35.5q-68 0 -108 36t-40 95zM133 352q0 -126 77 -126q27 0 41.5 26.5t14.5 69.5q0 67 -17 95.5t-61 28.5q-26 0 -40.5 -27.5t-14.5 -66.5z" />
<glyph unicode="&#xbb;" horiz-adv-x="439" d="M55 157v42l100 100l-100 100v42l174 -110q17 -11 17 -32q0 -22 -17 -32zM215 157v42l100 100l-100 100v42l174 -110q17 -11 17 -32q0 -22 -17 -32z" />
<glyph unicode="&#xbc;" horiz-adv-x="652" d="M30 508q85 147 106 147h23v-342q5 -10 43 -10v-23h-166v23q36 0 42 10v217q-7 -4 -31 -31zM97 -10l389 622l49 -18l-389 -622zM336 105l189 270h52v-241h45v-29h-45v-72q6 -10 42 -10v-23h-164v23q37 0 42 10v72h-161zM392 134h105v150z" />
<glyph unicode="&#xbd;" horiz-adv-x="679" d="M33 508q85 147 106 147h23v-342q5 -10 43 -10v-23h-166v23q36 0 42 10v217q-7 -4 -31 -31zM76 -10l389 622l49 -18l-389 -622zM364 0v5q0 12 28.5 41.5t63 61.5t63 77t28.5 83q0 27 -14 44.5t-39 17.5q-35 0 -57.5 -10t-29.5 -22t-13.5 -22t-12.5 -10q-10 0 -10 11 q0 26 34.5 64.5t96.5 38.5q67 0 98.5 -27.5t31.5 -75.5q0 -27 -23 -62t-50.5 -61.5t-56.5 -53t-35 -34.5h124q30 12 38 33h22l-28 -99h-259z" />
<glyph unicode="&#xbe;" horiz-adv-x="690" d="M28 336q0 23 6 32t22 9q11 0 18.5 -11t12.5 -24.5t22 -24.5t46 -11q34 0 53 26t19 56q0 25 -14.5 50.5t-36.5 25.5q-8 0 -17.5 -2t-15.5 -2q-7 0 -12.5 4t-5.5 9q0 9 8 9q20 6 29 9.5t22 11.5t18 20.5t5 30.5q0 26 -15 41t-43 15q-29 0 -47 -8.5t-23.5 -18t-11 -18 t-11.5 -8.5q-10 0 -10 12q0 24 29.5 57.5t81.5 33.5q127 0 127 -97q0 -43 -49 -72q30 -12 48.5 -36t18.5 -53q0 -58 -31.5 -92t-111.5 -34q-37 0 -69 12t-47 25.5t-15 22.5zM141 -10l389 622l49 -18l-389 -622zM370 105l189 270h52v-241h45v-29h-45v-72q6 -10 42 -10v-23 h-164v23q37 0 42 10v72h-161zM426 134h105v150z" />
<glyph unicode="&#xbf;" horiz-adv-x="426" d="M30 45q0 39 19.5 74.5t47.5 61.5t55.5 48.5t47 46t19.5 44.5q0 5 7 9.5t11 4.5t11 -4.5t7 -9.5q0 -37 -15.5 -69.5t-34.5 -54.5t-34.5 -63t-15.5 -93q0 -53 23 -86.5t62 -33.5q37 0 55 22t18 49q0 12 -7.5 25.5t-7.5 24.5q0 17 14 30.5t34 13.5q25 0 38.5 -16.5 t13.5 -44.5q0 -50 -45.5 -92t-122.5 -42q-98 0 -149 42t-51 113zM165 465q0 29 21 47t48 18q24 0 46.5 -17t22.5 -45q0 -29 -20.5 -46.5t-47.5 -17.5q-24 0 -47 16.5t-23 44.5z" />
<glyph unicode="&#xc0;" horiz-adv-x="566" d="M-15 0v21q55 0 63 21l194 543h81l196 -543q7 -21 64 -21v-21h-254v21q46 0 58 12l-56 153h-192l-52 -147q10 -18 62 -18v-21h-164zM130 782h126l54 -162h-46zM151 219h168l-85 233z" />
<glyph unicode="&#xc1;" horiz-adv-x="566" d="M-15 0v21q55 0 63 21l194 543h81l196 -543q7 -21 64 -21v-21h-254v21q46 0 58 12l-56 153h-192l-52 -147q10 -18 62 -18v-21h-164zM151 219h168l-85 233zM240 620l54 162h126l-134 -162h-46z" />
<glyph unicode="&#xc2;" horiz-adv-x="566" d="M-15 0v21q55 0 63 21l194 543h81l196 -543q7 -21 64 -21v-21h-254v21q46 0 58 12l-56 153h-192l-52 -147q10 -18 62 -18v-21h-164zM151 219h168l-85 233zM165 620l94 162h50l94 -162h-36l-83 67l-83 -67h-36z" />
<glyph unicode="&#xc3;" horiz-adv-x="566" d="M-15 0v21q55 0 63 21l194 543h81l196 -543q7 -21 64 -21v-21h-254v21q46 0 58 12l-56 153h-192l-52 -147q10 -18 62 -18v-21h-164zM135 620q0 65 21.5 93.5t54.5 28.5q22 0 82 -29.5t74 -29.5q30 0 40 10.5t10 38.5h19q0 -65 -22 -93.5t-55 -28.5q-22 0 -81.5 29.5 t-73.5 29.5q-30 0 -40 -10.5t-10 -38.5h-19zM151 219h168l-85 233z" />
<glyph unicode="&#xc4;" horiz-adv-x="566" d="M-15 0v21q55 0 63 21l194 543h81l196 -543q7 -21 64 -21v-21h-254v21q46 0 58 12l-56 153h-192l-52 -147q10 -18 62 -18v-21h-164zM130 679q0 24 17.5 41.5t41.5 17.5t41 -17.5t17 -41.5t-17 -41.5t-41 -17.5t-41.5 17.5t-17.5 41.5zM151 219h168l-85 233zM321 679 q0 24 17 41.5t41 17.5t41.5 -17.5t17.5 -41.5t-17.5 -41.5t-41.5 -17.5t-41 17.5t-17 41.5z" />
<glyph unicode="&#xc5;" horiz-adv-x="566" d="M-15 0v21q55 0 63 21l194 543h81l196 -543q7 -21 64 -21v-21h-254v21q46 0 58 12l-56 153h-192l-52 -147q10 -18 62 -18v-21h-164zM151 219h168l-85 233zM210 689q0 31 21 52.5t53 21.5t53 -21.5t21 -52.5t-21 -52.5t-53 -21.5t-53 21.5t-21 52.5zM242 689 q0 -17 12.5 -29.5t29.5 -12.5t29.5 12.5t12.5 29.5t-12.5 29.5t-29.5 12.5t-29.5 -12.5t-12.5 -29.5z" />
<glyph unicode="&#xc6;" horiz-adv-x="742" d="M-29 0v21q54 0 63 21v-1l287 512q-12 11 -57 11v21h424v-97h-21q0 54 -20 63h-172v-230h105q20 9 20 63h21v-160h-21q0 54 -20 63h-105v-253h193q25 11 45 63h20l-24 -97h-424v21q54 0 63 20v145h-193l-82 -147q10 -18 62 -18v-21h-76q5 17 10 32l-18 -32h-80zM174 219 h174v311z" />
<glyph unicode="&#xc7;" horiz-adv-x="562" d="M36 284q0 139 94 225t219 86q29 0 72 -15t49 -15q12 0 12 20h23l8 -141h-22q-6 41 -52 79t-89 38v-1q-84 0 -129.5 -69t-45.5 -186q0 -136 49 -209t130 -73q49 0 89.5 33.5t55.5 74.5l41 -12q-21 -49 -64 -85t-113 -43l-12 -46q19 0 41 -5.5t43 -22t21 -39.5 q0 -30 -29 -53.5t-91 -23.5q-33 0 -74 7v17q18 -2 25 -2q67 0 67 47q0 44 -61 44l22 77q-127 7 -203 92.5t-76 200.5z" />
<glyph unicode="&#xc8;" d="M36 0v21q54 0 63 20v503q-9 20 -63 20v21h413v-97h-21q0 54 -20 63h-182v-230h115q20 9 20 63h21v-160h-21q0 54 -20 63h-115v-253h203q25 11 45 63h20l-24 -97h-434zM123 782h126l54 -162h-46z" />
<glyph unicode="&#xc9;" d="M36 0v21q54 0 63 20v503q-9 20 -63 20v21h413v-97h-21q0 54 -20 63h-182v-230h115q20 9 20 63h21v-160h-21q0 54 -20 63h-115v-253h203q25 11 45 63h20l-24 -97h-434zM233 620l54 162h126l-134 -162h-46z" />
<glyph unicode="&#xca;" d="M36 0v21q54 0 63 20v503q-9 20 -63 20v21h413v-97h-21q0 54 -20 63h-182v-230h115q20 9 20 63h21v-160h-21q0 54 -20 63h-115v-253h203q25 11 45 63h20l-24 -97h-434zM158 620l94 162h50l94 -162h-36l-83 67l-83 -67h-36z" />
<glyph unicode="&#xcb;" d="M36 0v21q54 0 63 20v503q-9 20 -63 20v21h413v-97h-21q0 54 -20 63h-182v-230h115q20 9 20 63h21v-160h-21q0 54 -20 63h-115v-253h203q25 11 45 63h20l-24 -97h-434zM123 679q0 24 17.5 41.5t41.5 17.5t41 -17.5t17 -41.5t-17 -41.5t-41 -17.5t-41.5 17.5t-17.5 41.5z M314 679q0 24 17 41.5t41 17.5t41.5 -17.5t17.5 -41.5t-17.5 -41.5t-41.5 -17.5t-41 17.5t-17 41.5z" />
<glyph unicode="&#xcc;" horiz-adv-x="325" d="M13 782h126l54 -162h-46zM36 0v21q54 0 63 20v503q-9 20 -63 20v21h253v-21q-54 0 -63 -20v-503q9 -20 63 -20v-21h-253z" />
<glyph unicode="&#xcd;" horiz-adv-x="325" d="M36 0v21q54 0 63 20v503q-9 20 -63 20v21h253v-21q-54 0 -63 -20v-503q9 -20 63 -20v-21h-253zM123 620l54 162h126l-134 -162h-46z" />
<glyph unicode="&#xce;" horiz-adv-x="325" d="M36 0v21q54 0 63 20v503q-9 20 -63 20v21h253v-21q-54 0 -63 -20v-503q9 -20 63 -20v-21h-253zM48 620l94 162h50l94 -162h-36l-83 67l-83 -67h-36z" />
<glyph unicode="&#xcf;" horiz-adv-x="325" d="M13 679q0 24 17.5 41.5t41.5 17.5t41 -17.5t17 -41.5t-17 -41.5t-41 -17.5t-41.5 17.5t-17.5 41.5zM36 0v21q54 0 63 20v503q-9 20 -63 20v21h253v-21q-54 0 -63 -20v-503q9 -20 63 -20v-21h-253zM204 679q0 24 17 41.5t41 17.5t41.5 -17.5t17.5 -41.5t-17.5 -41.5 t-41.5 -17.5t-41 17.5t-17 41.5z" />
<glyph unicode="&#xd0;" horiz-adv-x="596" d="M9 477v108h139v70h40v-70h75q133 0 214 -81t81 -211t-79 -212t-204 -82h-242v21q54 0 63 20v114q0 131 69 208t227 92q-48 101 -147 101h-57v-85h-40v85h-83q-12 -5 -23.5 -27t-11.5 -51h-21zM223 33h34q68 0 117 64t49 195q0 78 -18 132q-55 -8 -92 -29t-56 -53.5 t-26.5 -68t-7.5 -81.5v-159z" />
<glyph unicode="&#xd1;" horiz-adv-x="623" d="M36 0v21q54 0 63 20v503q-9 20 -63 20v21h169l296 -405v364q-9 20 -63 20v21h160v-21q-54 0 -63 -20v-544h-44l-358 495v-454q9 -20 63 -20v-21h-160zM163 620q0 65 21.5 93.5t54.5 28.5q22 0 82 -29.5t74 -29.5q30 0 40 10.5t10 38.5h19q0 -65 -22 -93.5t-55 -28.5 q-22 0 -81.5 29.5t-73.5 29.5q-30 0 -40 -10.5t-10 -38.5h-19z" />
<glyph unicode="&#xd2;" horiz-adv-x="664" d="M35 292q0 123 87 213t210 90t210 -90t87 -213t-87.5 -212.5t-209.5 -89.5q-124 0 -210.5 89.5t-86.5 212.5zM170 300q0 -68 14.5 -127t53.5 -104t98 -45q45 0 77 23.5t49 63.5t24.5 82.5t7.5 90.5q0 67 -15 127t-54 105t-97 45q-45 0 -77 -24t-49 -64t-24.5 -82.5 t-7.5 -90.5zM182 782h126l54 -162h-46z" />
<glyph unicode="&#xd3;" horiz-adv-x="664" d="M35 292q0 123 87 213t210 90t210 -90t87 -213t-87.5 -212.5t-209.5 -89.5q-124 0 -210.5 89.5t-86.5 212.5zM170 300q0 -68 14.5 -127t53.5 -104t98 -45q45 0 77 23.5t49 63.5t24.5 82.5t7.5 90.5q0 67 -15 127t-54 105t-97 45q-45 0 -77 -24t-49 -64t-24.5 -82.5 t-7.5 -90.5zM292 620l54 162h126l-134 -162h-46z" />
<glyph unicode="&#xd4;" horiz-adv-x="664" d="M35 292q0 123 87 213t210 90t210 -90t87 -213t-87.5 -212.5t-209.5 -89.5q-124 0 -210.5 89.5t-86.5 212.5zM170 300q0 -68 14.5 -127t53.5 -104t98 -45q45 0 77 23.5t49 63.5t24.5 82.5t7.5 90.5q0 67 -15 127t-54 105t-97 45q-45 0 -77 -24t-49 -64t-24.5 -82.5 t-7.5 -90.5zM217 620l94 162h50l94 -162h-36l-83 67l-83 -67h-36z" />
<glyph unicode="&#xd5;" horiz-adv-x="664" d="M35 292q0 123 87 213t210 90t210 -90t87 -213t-87.5 -212.5t-209.5 -89.5q-124 0 -210.5 89.5t-86.5 212.5zM170 300q0 -68 14.5 -127t53.5 -104t98 -45q45 0 77 23.5t49 63.5t24.5 82.5t7.5 90.5q0 67 -15 127t-54 105t-97 45q-45 0 -77 -24t-49 -64t-24.5 -82.5 t-7.5 -90.5zM187 620q0 65 21.5 93.5t54.5 28.5q22 0 82 -29.5t74 -29.5q30 0 40 10.5t10 38.5h19q0 -65 -22 -93.5t-55 -28.5q-22 0 -81.5 29.5t-73.5 29.5q-30 0 -40 -10.5t-10 -38.5h-19z" />
<glyph unicode="&#xd6;" horiz-adv-x="664" d="M35 292q0 123 87 213t210 90t210 -90t87 -213t-87.5 -212.5t-209.5 -89.5q-124 0 -210.5 89.5t-86.5 212.5zM170 300q0 -68 14.5 -127t53.5 -104t98 -45q45 0 77 23.5t49 63.5t24.5 82.5t7.5 90.5q0 67 -15 127t-54 105t-97 45q-45 0 -77 -24t-49 -64t-24.5 -82.5 t-7.5 -90.5zM182 679q0 24 17.5 41.5t41.5 17.5t41 -17.5t17 -41.5t-17 -41.5t-41 -17.5t-41.5 17.5t-17.5 41.5zM373 679q0 24 17 41.5t41 17.5t41.5 -17.5t17.5 -41.5t-17.5 -41.5t-41.5 -17.5t-41 17.5t-17 41.5z" />
<glyph unicode="&#xd7;" horiz-adv-x="412" d="M47 190l128 128l-128 128l31 31l128 -128l128 128l31 -31l-128 -128l128 -128l-31 -31l-128 128l-128 -128z" />
<glyph unicode="&#xd8;" horiz-adv-x="664" d="M35 292q0 123 87 213t210 90q81 0 151 -43l38 60l29 -18l-38 -62q55 -42 86 -105.5t31 -134.5q0 -123 -87.5 -212.5t-209.5 -89.5q-73 0 -138 35l-33 -53l-29 18l33 52q-60 42 -95 108t-35 142zM170 300q0 -112 38 -188l237 379q-43 70 -117 70q-45 0 -77 -24t-49 -64 t-24.5 -82.5t-7.5 -90.5zM228 79q42 -55 108 -55q45 0 77 23.5t49 63.5t24.5 82.5t7.5 90.5q0 98 -31 171z" />
<glyph unicode="&#xd9;" horiz-adv-x="604" d="M18 564v21h253v-21q-54 0 -63 -20v-310q0 -102 35 -156t103 -54q65 0 104 55t39 149v316q-9 20 -63 20v21h160v-21q-54 0 -63 -20v-296q0 -130 -57.5 -194t-144.5 -64q-240 0 -240 258v296q-9 20 -63 20zM197 782h126l54 -162h-46z" />
<glyph unicode="&#xda;" horiz-adv-x="604" d="M18 564v21h253v-21q-54 0 -63 -20v-310q0 -102 35 -156t103 -54q65 0 104 55t39 149v316q-9 20 -63 20v21h160v-21q-54 0 -63 -20v-296q0 -130 -57.5 -194t-144.5 -64q-240 0 -240 258v296q-9 20 -63 20zM307 620l54 162h126l-134 -162h-46z" />
<glyph unicode="&#xdb;" horiz-adv-x="604" d="M18 564v21h253v-21q-54 0 -63 -20v-310q0 -102 35 -156t103 -54q65 0 104 55t39 149v316q-9 20 -63 20v21h160v-21q-54 0 -63 -20v-296q0 -130 -57.5 -194t-144.5 -64q-240 0 -240 258v296q-9 20 -63 20zM232 620l94 162h50l94 -162h-36l-83 67l-83 -67h-36z" />
<glyph unicode="&#xdc;" horiz-adv-x="604" d="M18 564v21h253v-21q-54 0 -63 -20v-310q0 -102 35 -156t103 -54q65 0 104 55t39 149v316q-9 20 -63 20v21h160v-21q-54 0 -63 -20v-296q0 -130 -57.5 -194t-144.5 -64q-240 0 -240 258v296q-9 20 -63 20zM197 679q0 24 17.5 41.5t41.5 17.5t41 -17.5t17 -41.5t-17 -41.5 t-41 -17.5t-41.5 17.5t-17.5 41.5zM388 679q0 24 17 41.5t41 17.5t41.5 -17.5t17.5 -41.5t-17.5 -41.5t-41.5 -17.5t-41 17.5t-17 41.5z" />
<glyph unicode="&#xdd;" horiz-adv-x="584" d="M-16 564v21h254v-21q-47 0 -58 -12l155 -271l160 265q-11 18 -62 18v21h164v-21q-49 0 -57 -13l-180 -299v-211q9 -20 63 -20v-21h-253v21q54 0 63 20v179l-185 324q-12 20 -64 20zM298 620l54 162h126l-134 -162h-46z" />
<glyph unicode="&#xde;" horiz-adv-x="528" d="M36 0v21q54 0 63 20v503q-9 20 -63 20v21h253v-21q-54 0 -63 -20v-69h17q126 0 199 -50.5t73 -116.5q0 -75 -70 -128.5t-190 -53.5h-29v-85q9 -20 63 -20v-21h-253zM226 160q82 0 118 35t36 112q0 62 -34 98t-120 36v-281z" />
<glyph unicode="&#xdf;" horiz-adv-x="539" d="M14 0v21q54 0 63 20v433q0 41 17.5 73t45.5 49t56.5 25.5t56.5 8.5q95 0 141 -34.5t46 -95.5q0 -42 -33.5 -82t-81.5 -60q76 -14 134.5 -64t58.5 -104q0 -90 -47 -145t-125 -55q-60 0 -90 29.5t-30 52.5q0 30 7.5 42t28.5 12q17 0 25.5 -16.5t10.5 -36.5t12.5 -36.5 t29.5 -16.5q60 0 60 150q0 65 -38.5 119.5t-99.5 54.5h-2q-16 0 -16 10q0 9 16 14q26 10 45.5 50.5t19.5 80.5q0 101 -58 101q-26 0 -45.5 -29t-19.5 -83v-488h-188z" />
<glyph unicode="&#xe0;" d="M25 112q0 25 17.5 45t53.5 34t64.5 22t78.5 18.5t68 15.5q0 94 -15.5 130.5t-70.5 36.5q-33 0 -59.5 -13.5t-31.5 -34.5q23 0 23 -41q0 -17 -17 -26t-36 -9q-20 0 -35.5 14t-15.5 36q0 51 50.5 80.5t131.5 29.5q95 0 148 -47.5t53 -120.5v-198q0 -32 10.5 -47t25.5 -15 q13 0 23.5 7t10.5 17h18q0 -54 -110 -54q-51 0 -79 36q-60 -38 -139 -38q-167 0 -167 122zM78 677h126l54 -162h-46zM153 110q0 -46 19.5 -66t44.5 -20q44 0 100 28q-10 27 -10 60v113q-85 -26 -112 -43q-42 -28 -42 -72z" />
<glyph unicode="&#xe1;" d="M25 112q0 25 17.5 45t53.5 34t64.5 22t78.5 18.5t68 15.5q0 94 -15.5 130.5t-70.5 36.5q-33 0 -59.5 -13.5t-31.5 -34.5q23 0 23 -41q0 -17 -17 -26t-36 -9q-20 0 -35.5 14t-15.5 36q0 51 50.5 80.5t131.5 29.5q95 0 148 -47.5t53 -120.5v-198q0 -32 10.5 -47t25.5 -15 q13 0 23.5 7t10.5 17h18q0 -54 -110 -54q-51 0 -79 36q-60 -38 -139 -38q-167 0 -167 122zM153 110q0 -46 19.5 -66t44.5 -20q44 0 100 28q-10 27 -10 60v113q-85 -26 -112 -43q-42 -28 -42 -72zM188 515l54 162h126l-134 -162h-46z" />
<glyph unicode="&#xe2;" d="M25 112q0 25 17.5 45t53.5 34t64.5 22t78.5 18.5t68 15.5q0 94 -15.5 130.5t-70.5 36.5q-33 0 -59.5 -13.5t-31.5 -34.5q23 0 23 -41q0 -17 -17 -26t-36 -9q-20 0 -35.5 14t-15.5 36q0 51 50.5 80.5t131.5 29.5q95 0 148 -47.5t53 -120.5v-198q0 -32 10.5 -47t25.5 -15 q13 0 23.5 7t10.5 17h18q0 -54 -110 -54q-51 0 -79 36q-60 -38 -139 -38q-167 0 -167 122zM113 515l94 162h50l94 -162h-36l-83 67l-83 -67h-36zM153 110q0 -46 19.5 -66t44.5 -20q44 0 100 28q-10 27 -10 60v113q-85 -26 -112 -43q-42 -28 -42 -72z" />
<glyph unicode="&#xe3;" d="M25 112q0 25 17.5 45t53.5 34t64.5 22t78.5 18.5t68 15.5q0 94 -15.5 130.5t-70.5 36.5q-33 0 -59.5 -13.5t-31.5 -34.5q23 0 23 -41q0 -17 -17 -26t-36 -9q-20 0 -35.5 14t-15.5 36q0 51 50.5 80.5t131.5 29.5q95 0 148 -47.5t53 -120.5v-198q0 -32 10.5 -47t25.5 -15 q13 0 23.5 7t10.5 17h18q0 -54 -110 -54q-51 0 -79 36q-60 -38 -139 -38q-167 0 -167 122zM83 515q0 65 21.5 93.5t54.5 28.5q22 0 82 -29.5t74 -29.5q30 0 40 10.5t10 38.5h19q0 -65 -22 -93.5t-55 -28.5q-22 0 -81.5 29.5t-73.5 29.5q-30 0 -40 -10.5t-10 -38.5h-19z M153 110q0 -46 19.5 -66t44.5 -20q44 0 100 28q-10 27 -10 60v113q-85 -26 -112 -43q-42 -28 -42 -72z" />
<glyph unicode="&#xe4;" d="M25 112q0 25 17.5 45t53.5 34t64.5 22t78.5 18.5t68 15.5q0 94 -15.5 130.5t-70.5 36.5q-33 0 -59.5 -13.5t-31.5 -34.5q23 0 23 -41q0 -17 -17 -26t-36 -9q-20 0 -35.5 14t-15.5 36q0 51 50.5 80.5t131.5 29.5q95 0 148 -47.5t53 -120.5v-198q0 -32 10.5 -47t25.5 -15 q13 0 23.5 7t10.5 17h18q0 -54 -110 -54q-51 0 -79 36q-60 -38 -139 -38q-167 0 -167 122zM78 574q0 24 17.5 41.5t41.5 17.5t41 -17.5t17 -41.5t-17 -41.5t-41 -17.5t-41.5 17.5t-17.5 41.5zM153 110q0 -46 19.5 -66t44.5 -20q44 0 100 28q-10 27 -10 60v113 q-85 -26 -112 -43q-42 -28 -42 -72zM269 574q0 24 17 41.5t41 17.5t41.5 -17.5t17.5 -41.5t-17.5 -41.5t-41.5 -17.5t-41 17.5t-17 41.5z" />
<glyph unicode="&#xe5;" d="M25 112q0 25 17.5 45t53.5 34t64.5 22t78.5 18.5t68 15.5q0 94 -15.5 130.5t-70.5 36.5q-33 0 -59.5 -13.5t-31.5 -34.5q23 0 23 -41q0 -17 -17 -26t-36 -9q-20 0 -35.5 14t-15.5 36q0 51 50.5 80.5t131.5 29.5q95 0 148 -47.5t53 -120.5v-198q0 -32 10.5 -47t25.5 -15 q13 0 23.5 7t10.5 17h18q0 -54 -110 -54q-51 0 -79 36q-60 -38 -139 -38q-167 0 -167 122zM153 110q0 -46 19.5 -66t44.5 -20q44 0 100 28q-10 27 -10 60v113q-85 -26 -112 -43q-42 -28 -42 -72zM158 584q0 32 21 53t53 21t53 -21t21 -53t-21 -53t-53 -21t-53 21t-21 53z M190 584q0 -17 12.5 -29.5t29.5 -12.5t29.5 12.5t12.5 29.5t-12.5 29.5t-29.5 12.5t-29.5 -12.5t-12.5 -29.5z" />
<glyph unicode="&#xe6;" horiz-adv-x="776" d="M25 112q0 21 14.5 39t34 29t53 22.5t59 17t64 14t56.5 13.5q0 95 -15 131t-70 36q-33 0 -59.5 -13.5t-31.5 -34.5q23 0 23 -41q0 -17 -17 -26t-36 -9q-20 0 -35.5 14t-15.5 36q0 51 50.5 80.5t131.5 29.5q94 0 150 -49q60 49 146 49q107 0 166 -60.5t59 -148.5h-316 q2 -87 39.5 -150t95.5 -63q87 0 140 66l24 -12q-29 -48 -75.5 -70t-122.5 -22q-106 0 -170 69q-21 -26 -65 -47.5t-110 -21.5q-167 0 -167 122zM153 110q0 -46 19.5 -66t44.5 -20q30 0 74.5 16.5t60.5 36.5q-42 56 -46 147q-84 -25 -109 -41q-43 -29 -44 -73zM437 272h182 q-6 71 -24.5 109.5t-59.5 38.5q-36 0 -64.5 -36.5t-33.5 -111.5z" />
<glyph unicode="&#xe7;" horiz-adv-x="482" d="M32 242q0 86 66 147t167 61q81 0 130.5 -27.5t49.5 -78.5q0 -25 -12.5 -41t-37.5 -16q-24 0 -38.5 11.5t-14.5 30.5q0 21 10.5 31t24.5 10q-13 50 -102 50q-47 0 -80 -47.5t-33 -126.5q0 -89 36 -153.5t94 -64.5q84 0 127 72l37 -18q-51 -84 -169 -91l-12 -46 q19 0 41 -5.5t43 -22t21 -39.5q0 -30 -29 -53.5t-91 -23.5q-33 0 -74 7v17q18 -2 25 -2q67 0 67 47q0 44 -61 44l22 77q-37 3 -71 16.5t-66 40.5t-51 77t-19 117z" />
<glyph unicode="&#xe8;" horiz-adv-x="501" d="M31 242q0 87 61.5 147.5t159.5 60.5q107 0 166 -60.5t59 -148.5h-316q2 -87 39.5 -150t95.5 -63q87 0 140 66l24 -12q-29 -48 -75.5 -70t-122.5 -22q-39 0 -76 11.5t-73.5 38t-59 78.5t-22.5 124zM97 677h126l54 -162h-46zM162 272h182q-6 71 -24.5 109.5t-59.5 38.5 q-36 0 -64.5 -36.5t-33.5 -111.5z" />
<glyph unicode="&#xe9;" horiz-adv-x="501" d="M31 242q0 87 61.5 147.5t159.5 60.5q107 0 166 -60.5t59 -148.5h-316q2 -87 39.5 -150t95.5 -63q87 0 140 66l24 -12q-29 -48 -75.5 -70t-122.5 -22q-39 0 -76 11.5t-73.5 38t-59 78.5t-22.5 124zM162 272h182q-6 71 -24.5 109.5t-59.5 38.5q-36 0 -64.5 -36.5 t-33.5 -111.5zM207 515l54 162h126l-134 -162h-46z" />
<glyph unicode="&#xea;" horiz-adv-x="501" d="M31 242q0 87 61.5 147.5t159.5 60.5q107 0 166 -60.5t59 -148.5h-316q2 -87 39.5 -150t95.5 -63q87 0 140 66l24 -12q-29 -48 -75.5 -70t-122.5 -22q-39 0 -76 11.5t-73.5 38t-59 78.5t-22.5 124zM132 515l94 162h50l94 -162h-36l-83 67l-83 -67h-36zM162 272h182 q-6 71 -24.5 109.5t-59.5 38.5q-36 0 -64.5 -36.5t-33.5 -111.5z" />
<glyph unicode="&#xeb;" horiz-adv-x="501" d="M31 242q0 87 61.5 147.5t159.5 60.5q107 0 166 -60.5t59 -148.5h-316q2 -87 39.5 -150t95.5 -63q87 0 140 66l24 -12q-29 -48 -75.5 -70t-122.5 -22q-39 0 -76 11.5t-73.5 38t-59 78.5t-22.5 124zM97 574q0 24 17.5 41.5t41.5 17.5t41 -17.5t17 -41.5t-17 -41.5 t-41 -17.5t-41.5 17.5t-17.5 41.5zM162 272h182q-6 71 -24.5 109.5t-59.5 38.5q-36 0 -64.5 -36.5t-33.5 -111.5zM288 574q0 24 17 41.5t41 17.5t41.5 -17.5t17.5 -41.5t-17.5 -41.5t-41.5 -17.5t-41 17.5t-17 41.5z" />
<glyph unicode="&#xec;" horiz-adv-x="289" d="M-3 677h126l54 -162h-46zM24 0v21q54 0 63 20v339q-52 4 -63 4v23q19 0 92 21.5t96 21.5v-409q9 -20 63 -20v-21h-251z" />
<glyph unicode="&#xed;" horiz-adv-x="289" d="M24 0v21q54 0 63 20v339q-52 4 -63 4v23q19 0 92 21.5t96 21.5v-409q9 -20 63 -20v-21h-251zM107 515l54 162h126l-134 -162h-46z" />
<glyph unicode="&#xee;" horiz-adv-x="289" d="M24 0v21q54 0 63 20v339q-52 4 -63 4v23q19 0 92 21.5t96 21.5v-409q9 -20 63 -20v-21h-251zM32 515l94 162h50l94 -162h-36l-83 67l-83 -67h-36z" />
<glyph unicode="&#xef;" horiz-adv-x="289" d="M-3 574q0 24 17.5 41.5t41.5 17.5t41 -17.5t17 -41.5t-17 -41.5t-41 -17.5t-41.5 17.5t-17.5 41.5zM24 0v21q54 0 63 20v339q-52 4 -63 4v23q19 0 92 21.5t96 21.5v-409q9 -20 63 -20v-21h-251zM188 574q0 24 17 41.5t41 17.5t41.5 -17.5t17.5 -41.5t-17.5 -41.5 t-41.5 -17.5t-41 17.5t-17 41.5z" />
<glyph unicode="&#xf0;" horiz-adv-x="541" d="M31 228q0 96 59 159t177 63q26 0 50 -3q-28 47 -60 82l-79 -45l-17 29l71 41q-18 17 -37 31.5t-29 20.5l-9 6l11 18q48 -16 107 -51l85 49l17 -29l-70 -41q201 -137 201 -342q0 -96 -58.5 -161t-175.5 -65q-113 0 -178 65.5t-65 172.5zM162 248q0 -114 35 -171t90 -57 q41 0 65.5 48.5t24.5 124.5q0 118 -31 172t-96 54q-36 0 -62 -52t-26 -119z" />
<glyph unicode="&#xf1;" horiz-adv-x="597" d="M24 0v21q54 0 63 20v339q-54 4 -63 4v23q19 0 92 21.5t96 21.5v-42q50 42 110 42q96 0 149 -35.5t53 -106.5v-267q9 -20 63 -20v-21h-251v21q54 0 63 20v274q0 45 -20.5 73t-62.5 28q-62 0 -104 -40v-335q9 -20 63 -20v-21h-251zM163 516q0 65 21.5 93.5t54.5 28.5 q22 0 82 -29.5t74 -29.5q30 0 40 10.5t10 38.5h19q0 -65 -22 -93.5t-55 -28.5q-22 0 -81.5 29.5t-73.5 29.5q-30 0 -40 -10.5t-10 -38.5h-19z" />
<glyph unicode="&#xf2;" horiz-adv-x="545" d="M31 228q0 95 60.5 158.5t178.5 63.5q119 0 181.5 -63t62.5 -171q0 -96 -60 -161t-177 -65q-113 0 -179.5 66t-66.5 172zM120 677h126l54 -162h-46zM162 248q0 -118 31.5 -173t96.5 -55q45 0 69 47.5t24 125.5q0 122 -28.5 174t-101.5 52q-43 0 -67 -50t-24 -121z" />
<glyph unicode="&#xf3;" horiz-adv-x="545" d="M31 228q0 95 60.5 158.5t178.5 63.5q119 0 181.5 -63t62.5 -171q0 -96 -60 -161t-177 -65q-113 0 -179.5 66t-66.5 172zM162 248q0 -118 31.5 -173t96.5 -55q45 0 69 47.5t24 125.5q0 122 -28.5 174t-101.5 52q-43 0 -67 -50t-24 -121zM230 515l54 162h126l-134 -162h-46 z" />
<glyph unicode="&#xf4;" horiz-adv-x="545" d="M31 228q0 95 60.5 158.5t178.5 63.5q119 0 181.5 -63t62.5 -171q0 -96 -60 -161t-177 -65q-113 0 -179.5 66t-66.5 172zM155 515l94 162h50l94 -162h-36l-83 67l-83 -67h-36zM162 248q0 -118 31.5 -173t96.5 -55q45 0 69 47.5t24 125.5q0 122 -28.5 174t-101.5 52 q-43 0 -67 -50t-24 -121z" />
<glyph unicode="&#xf5;" horiz-adv-x="545" d="M31 228q0 95 60.5 158.5t178.5 63.5q119 0 181.5 -63t62.5 -171q0 -96 -60 -161t-177 -65q-113 0 -179.5 66t-66.5 172zM125 515q0 65 21.5 93.5t54.5 28.5q22 0 82 -29.5t74 -29.5q30 0 40 10.5t10 38.5h19q0 -65 -22 -93.5t-55 -28.5q-22 0 -81.5 29.5t-73.5 29.5 q-30 0 -40 -10.5t-10 -38.5h-19zM162 248q0 -118 31.5 -173t96.5 -55q45 0 69 47.5t24 125.5q0 122 -28.5 174t-101.5 52q-43 0 -67 -50t-24 -121z" />
<glyph unicode="&#xf6;" horiz-adv-x="545" d="M31 228q0 95 60.5 158.5t178.5 63.5q119 0 181.5 -63t62.5 -171q0 -96 -60 -161t-177 -65q-113 0 -179.5 66t-66.5 172zM120 574q0 24 17.5 41.5t41.5 17.5t41 -17.5t17 -41.5t-17 -41.5t-41 -17.5t-41.5 17.5t-17.5 41.5zM162 248q0 -118 31.5 -173t96.5 -55 q45 0 69 47.5t24 125.5q0 122 -28.5 174t-101.5 52q-43 0 -67 -50t-24 -121zM311 574q0 24 17 41.5t41 17.5t41.5 -17.5t17.5 -41.5t-17.5 -41.5t-41.5 -17.5t-41 17.5t-17 41.5z" />
<glyph unicode="&#xf7;" horiz-adv-x="474" d="M40 296v44h394v-44h-394zM180 177q0 23 15.5 41.5t40.5 18.5q22 0 40 -17t18 -40t-16 -42t-41 -19q-21 0 -39 17.5t-18 40.5zM180 457q0 23 15.5 41.5t40.5 18.5q22 0 40 -17t18 -40t-16 -42t-41 -19q-21 0 -39 17.5t-18 40.5z" />
<glyph unicode="&#xf8;" horiz-adv-x="545" d="M31 228q0 95 60.5 158.5t178.5 63.5q74 0 130 -27l36 52l27 -20l-34 -49q85 -61 85 -190q0 -96 -60 -161t-177 -65q-69 0 -122 25l-35 -50l-27 20l33 47q-95 65 -95 196zM162 248q0 -86 17 -140l178 254q-29 57 -104 57q-43 0 -67 -50t-24 -121zM195 72q30 -52 95 -52 q45 0 69 47.5t24 125.5q0 80 -12 131z" />
<glyph unicode="&#xf9;" horiz-adv-x="570" d="M10 419v21h188v-315q0 -21 0.5 -32.5t4.5 -26.5t11.5 -23t22 -13.5t35.5 -5.5q49 0 96 27v348q-9 20 -63 20v21h188v-380q54 -4 63 -4v-23q-19 0 -92 -21.5t-96 -21.5v29q-51 -29 -102 -29q-193 0 -193 142v267q-9 20 -63 20zM127 677h126l54 -162h-46z" />
<glyph unicode="&#xfa;" horiz-adv-x="570" d="M10 419v21h188v-315q0 -21 0.5 -32.5t4.5 -26.5t11.5 -23t22 -13.5t35.5 -5.5q49 0 96 27v348q-9 20 -63 20v21h188v-380q54 -4 63 -4v-23q-19 0 -92 -21.5t-96 -21.5v29q-51 -29 -102 -29q-193 0 -193 142v267q-9 20 -63 20zM237 515l54 162h126l-134 -162h-46z" />
<glyph unicode="&#xfb;" horiz-adv-x="570" d="M10 419v21h188v-315q0 -21 0.5 -32.5t4.5 -26.5t11.5 -23t22 -13.5t35.5 -5.5q49 0 96 27v348q-9 20 -63 20v21h188v-380q54 -4 63 -4v-23q-19 0 -92 -21.5t-96 -21.5v29q-51 -29 -102 -29q-193 0 -193 142v267q-9 20 -63 20zM162 515l94 162h50l94 -162h-36l-83 67 l-83 -67h-36z" />
<glyph unicode="&#xfc;" horiz-adv-x="570" d="M10 419v21h188v-315q0 -21 0.5 -32.5t4.5 -26.5t11.5 -23t22 -13.5t35.5 -5.5q49 0 96 27v348q-9 20 -63 20v21h188v-380q54 -4 63 -4v-23q-19 0 -92 -21.5t-96 -21.5v29q-51 -29 -102 -29q-193 0 -193 142v267q-9 20 -63 20zM127 574q0 24 17.5 41.5t41.5 17.5t41 -17.5 t17 -41.5t-17 -41.5t-41 -17.5t-41.5 17.5t-17.5 41.5zM318 574q0 24 17 41.5t41 17.5t41.5 -17.5t17.5 -41.5t-17.5 -41.5t-41.5 -17.5t-41 17.5t-17 41.5z" />
<glyph unicode="&#xfd;" horiz-adv-x="504" d="M-12 419v21h229v-21q-29 0 -42 -4l119 -293l114 286q-14 11 -56 11v21h164v-21q-54 0 -61 -16l-202 -505q-33 -82 -105 -82q-73 0 -73 48q0 18 11.5 29t32.5 11q16 0 28 -15t27 -15q21 0 28 18l26 64l-177 443q-9 20 -63 20zM244 515l54 162h126l-134 -162h-46z" />
<glyph unicode="&#xfe;" horiz-adv-x="518" d="M-6 -171q54 0 63 20v711q-54 4 -63 4v23q19 0 92 21.5t96 21.5v-210q46 30 103 30q90 0 147 -56.5t57 -126.5q0 -132 -82.5 -201t-224.5 -77v-140q9 -20 63 -20v-21h-251v21zM182 19q177 18 177 223q0 174 -84 174q-54 0 -93 -29v-368z" />
<glyph unicode="&#xff;" horiz-adv-x="504" d="M-12 419v21h229v-21q-29 0 -42 -4l119 -293l114 286q-14 11 -56 11v21h164v-21q-54 0 -61 -16l-202 -505q-33 -82 -105 -82q-73 0 -73 48q0 18 11.5 29t32.5 11q16 0 28 -15t27 -15q21 0 28 18l26 64l-177 443q-9 20 -63 20zM134 574q0 24 17.5 41.5t41.5 17.5t41 -17.5 t17 -41.5t-17 -41.5t-41 -17.5t-41.5 17.5t-17.5 41.5zM325 574q0 24 17 41.5t41 17.5t41.5 -17.5t17.5 -41.5t-17.5 -41.5t-41.5 -17.5t-41 17.5t-17 41.5z" />
<glyph unicode="&#x152;" horiz-adv-x="800" d="M35 292q0 123 87 213t210 90q41 0 75 -10h339v-97h-21q0 54 -20 63h-167v-230h100q20 9 20 63h21v-160h-21q0 54 -20 63h-100v-253h188q25 11 45 63h20l-24 -97h-360q-34 -10 -75 -10q-124 0 -210.5 89.5t-86.5 212.5zM170 300q0 -68 14.5 -127t53.5 -104t98 -45 q42 0 75 23v484q-35 30 -83 30q-45 0 -77 -24t-49 -64t-24.5 -82.5t-7.5 -90.5z" />
<glyph unicode="&#x153;" horiz-adv-x="854" d="M31 228q0 95 60.5 158.5t178.5 63.5q113 0 177 -59q62 59 158 59q107 0 166 -60.5t59 -148.5h-316q2 -87 39.5 -150t95.5 -63q87 0 140 66l24 -12q-29 -48 -75.5 -70t-122.5 -22q-100 0 -164 63q-65 -63 -174 -63q-113 0 -179.5 66t-66.5 172zM162 248q0 -118 31.5 -173 t96.5 -55q45 0 69 47.5t24 125.5q0 122 -28.5 174t-101.5 52q-43 0 -67 -50t-24 -121zM515 272h182q-6 71 -24.5 109.5t-59.5 38.5q-36 0 -64.5 -36.5t-33.5 -111.5z" />
<glyph unicode="&#x178;" horiz-adv-x="584" d="M-16 564v21h254v-21q-47 0 -58 -12l155 -271l160 265q-11 18 -62 18v21h164v-21q-49 0 -57 -13l-180 -299v-211q9 -20 63 -20v-21h-253v21q54 0 63 20v179l-185 324q-12 20 -64 20zM188 679q0 24 17.5 41.5t41.5 17.5t41 -17.5t17 -41.5t-17 -41.5t-41 -17.5t-41.5 17.5 t-17.5 41.5zM379 679q0 24 17 41.5t41 17.5t41.5 -17.5t17.5 -41.5t-17.5 -41.5t-41.5 -17.5t-41 17.5t-17 41.5z" />
<glyph unicode="&#x2c6;" horiz-adv-x="358" d="M60 500l94 162h50l94 -162h-36l-83 67l-83 -67h-36z" />
<glyph unicode="&#x2dc;" horiz-adv-x="421" d="M60 500q0 65 21.5 93.5t54.5 28.5q22 0 82 -29.5t74 -29.5q30 0 40 10.5t10 38.5h19q0 -65 -22 -93.5t-55 -28.5q-22 0 -81.5 29.5t-73.5 29.5q-30 0 -40 -10.5t-10 -38.5h-19z" />
<glyph unicode="&#x2000;" horiz-adv-x="391" />
<glyph unicode="&#x2001;" horiz-adv-x="782" />
<glyph unicode="&#x2002;" horiz-adv-x="391" />
<glyph unicode="&#x2003;" horiz-adv-x="782" />
<glyph unicode="&#x2004;" horiz-adv-x="260" />
<glyph unicode="&#x2005;" horiz-adv-x="195" />
<glyph unicode="&#x2006;" horiz-adv-x="130" />
<glyph unicode="&#x2007;" horiz-adv-x="130" />
<glyph unicode="&#x2008;" horiz-adv-x="97" />
<glyph unicode="&#x2009;" horiz-adv-x="156" />
<glyph unicode="&#x200a;" horiz-adv-x="43" />
<glyph unicode="&#x2010;" horiz-adv-x="372" d="M54 296v44h264v-44h-264z" />
<glyph unicode="&#x2011;" horiz-adv-x="372" d="M54 296v44h264v-44h-264z" />
<glyph unicode="&#x2012;" horiz-adv-x="372" d="M54 296v44h264v-44h-264z" />
<glyph unicode="&#x2013;" horiz-adv-x="502" d="M54 296v44h394v-44h-394z" />
<glyph unicode="&#x2014;" horiz-adv-x="672" d="M54 296v44h564v-44h-564z" />
<glyph unicode="&#x2018;" horiz-adv-x="218" d="M34 542q0 89 134 130v-39q-27 -3 -52.5 -26.5t-25.5 -52.5q0 -20 5 -20l5 3q4 3 11 6.5t15 3.5q25 0 40.5 -13t15.5 -36q0 -21 -12.5 -33t-21.5 -13.5t-17 -1.5q-41 0 -69 25.5t-28 66.5z" />
<glyph unicode="&#x2019;" horiz-adv-x="201" d="M30 624q0 21 12.5 33t21.5 13.5t17 1.5q41 0 69 -25.5t28 -66.5q0 -89 -134 -130v39q27 3 52.5 26.5t25.5 52.5q0 20 -5 20l-5 -3q-4 -3 -11 -6.5t-15 -3.5q-25 0 -40.5 13t-15.5 36z" />
<glyph unicode="&#x201a;" horiz-adv-x="225" d="M44 38q0 21 12.5 33t21.5 13.5t17 1.5q41 0 69 -25.5t28 -66.5q0 -89 -134 -130v39q27 3 52.5 26.5t25.5 52.5q0 20 -5 20l-5 -3q-4 -3 -11 -6.5t-15 -3.5q-25 0 -40.5 13t-15.5 36z" />
<glyph unicode="&#x201c;" horiz-adv-x="398" d="M34 542q0 89 134 130v-39q-27 -3 -52.5 -26.5t-25.5 -52.5q0 -20 5 -20l5 3q4 3 11 6.5t15 3.5q25 0 40.5 -13t15.5 -36q0 -21 -12.5 -33t-21.5 -13.5t-17 -1.5q-41 0 -69 25.5t-28 66.5zM214 542q0 89 134 130v-39q-27 -3 -52.5 -26.5t-25.5 -52.5q0 -20 5 -20l5 3 q4 3 11 6.5t15 3.5q25 0 40.5 -13t15.5 -36q0 -21 -12.5 -33t-21.5 -13.5t-17 -1.5q-41 0 -69 25.5t-28 66.5z" />
<glyph unicode="&#x201d;" horiz-adv-x="383" d="M32 622q0 21 12.5 33t21.5 13.5t17 1.5q41 0 69 -25.5t28 -66.5q0 -89 -134 -130v39q27 3 52.5 26.5t25.5 52.5q0 20 -5 20l-5 -3q-4 -3 -11 -6.5t-15 -3.5q-25 0 -40.5 13t-15.5 36zM212 622q0 21 12.5 33t21.5 13.5t17 1.5q41 0 69 -25.5t28 -66.5q0 -89 -134 -130v39 q27 3 52.5 26.5t25.5 52.5q0 20 -5 20l-5 -3q-4 -3 -11 -6.5t-15 -3.5q-25 0 -40.5 13t-15.5 36z" />
<glyph unicode="&#x201e;" horiz-adv-x="405" d="M44 38q0 21 12.5 33t21.5 13.5t17 1.5q41 0 69 -25.5t28 -66.5q0 -89 -134 -130v39q27 3 52.5 26.5t25.5 52.5q0 20 -5 20l-5 -3q-4 -3 -11 -6.5t-15 -3.5q-25 0 -40.5 13t-15.5 36zM224 38q0 21 12.5 33t21.5 13.5t17 1.5q41 0 69 -25.5t28 -66.5q0 -89 -134 -130v39 q27 3 52.5 26.5t25.5 52.5q0 20 -5 20l-5 -3q-4 -3 -11 -6.5t-15 -3.5q-25 0 -40.5 13t-15.5 36z" />
<glyph unicode="&#x2022;" horiz-adv-x="318" d="M37 300q0 45 33.5 81.5t86.5 36.5q47 0 85.5 -33.5t38.5 -78.5t-34.5 -82.5t-87.5 -37.5q-47 0 -84.5 34t-37.5 80z" />
<glyph unicode="&#x2026;" horiz-adv-x="660" d="M41 52q0 29 20.5 46.5t47.5 17.5q24 0 47 -16.5t23 -44.5q0 -29 -21 -47t-48 -18q-24 0 -46.5 17t-22.5 45zM261 52q0 29 20.5 46.5t47.5 17.5q24 0 47 -16.5t23 -44.5q0 -29 -21 -47t-48 -18q-24 0 -46.5 17t-22.5 45zM481 52q0 29 20.5 46.5t47.5 17.5q24 0 47 -16.5 t23 -44.5q0 -29 -21 -47t-48 -18q-24 0 -46.5 17t-22.5 45z" />
<glyph unicode="&#x202f;" horiz-adv-x="156" />
<glyph unicode="&#x2039;" horiz-adv-x="279" d="M33 299q0 22 17 32l174 110v-42l-100 -100l100 -100v-42l-174 110q-17 11 -17 32z" />
<glyph unicode="&#x203a;" horiz-adv-x="279" d="M55 157v42l100 100l-100 100v42l174 -110q17 -11 17 -32q0 -22 -17 -32z" />
<glyph unicode="&#x205f;" horiz-adv-x="195" />
<glyph unicode="&#x20ac;" horiz-adv-x="556" d="M28 220l16 44h38v20q0 29 3 56h-41l16 44h32q23 108 93 159.5t158 51.5q31 0 58.5 -5.5t45 -13.5t30 -16.5t17.5 -13.5l6 -6v-82h-22q-7 45 -39.5 74t-94.5 29q-104 0 -120 -177h189l-16 -44h-175q0 -5 -0.5 -16.5t-0.5 -17.5q0 -29 1 -42h173l-16 -44h-154 q18 -196 122 -196q95 0 144 84l30 -16q-18 -28 -28 -40.5t-31.5 -30t-53 -24.5t-77.5 -7q-100 0 -165 60t-80 170h-58z" />
<glyph unicode="&#x2122;" horiz-adv-x="903" d="M50 542v53h310v-53h-13q0 27 -21 35h-83v-281q5 -11 38 -11v-11h-152v11q33 0 38 11v281h-84q-21 -8 -21 -35h-12zM373 274v11q33 0 38 11v277q-5 11 -38 11v11h109l128 -255l128 255h109v-11q-31 0 -37 -11v-277q6 -11 37 -11v-11h-151v11q32 0 37 11v247l-134 -269h-30 l-137 272v-250q6 -11 37 -11v-11h-96z" />
<glyph unicode="&#xe000;" horiz-adv-x="440" d="M0 0v440h440v-440h-440z" />
<glyph unicode="&#xfb01;" horiz-adv-x="605" d="M21 0v21q54 0 63 20v369h-50v30h50v34q0 82 41.5 119t109.5 37q59 0 89.5 -18t30.5 -41q0 -45 -40 -45q-24 0 -34 11.5t-9.5 25.5t-5 25.5t-21.5 11.5q-36 0 -36 -112v-48h77v-30h-77v-369q9 -20 63 -20v-21h-251zM340 0v21q54 0 63 20v339q-52 4 -63 4v23q19 0 92 21.5 t96 21.5v-409q9 -20 63 -20v-21h-251zM390 573q0 21 22.5 39t47.5 18q24 0 48.5 -17.5t24.5 -42.5q0 -21 -22.5 -38.5t-47.5 -17.5q-24 0 -48.5 17.5t-24.5 41.5z" />
<glyph unicode="&#xfb02;" horiz-adv-x="605" d="M21 0v21q54 0 63 20v369h-50v30h50v8q0 100 52.5 141t148.5 41q84 0 136 -25q83 25 107 25v-589q9 -20 63 -20v-21h-251v21q54 0 63 20v486q-18 3 -31 15t-19 24.5t-20.5 23t-37.5 10.5q-38 0 -62 -34t-24 -104v-22h77v-30h-77v-369q9 -20 63 -20v-21h-251z" />
<glyph unicode="&#xfb03;" horiz-adv-x="924" d="M21 0v21q54 0 63 20v369h-50v30h50v34q0 82 41.5 119t109.5 37q59 0 89.5 -18t30.5 -41q0 -45 -40 -45q-24 0 -34 11.5t-9.5 25.5t-5 25.5t-21.5 11.5q-36 0 -36 -112v-48h77v-30h-77v-369q9 -20 63 -20v-21h-251zM340 0v21q54 0 63 20v369h-50v30h50v34q0 82 41.5 119 t109.5 37q59 0 89.5 -18t30.5 -41q0 -45 -40 -45q-24 0 -34 11.5t-9.5 25.5t-5 25.5t-21.5 11.5q-36 0 -36 -112v-48h77v-30h-77v-369q9 -20 63 -20v-21h-251zM659 0v21q54 0 63 20v339q-52 4 -63 4v23q19 0 92 21.5t96 21.5v-409q9 -20 63 -20v-21h-251zM709 573 q0 21 22.5 39t47.5 18q24 0 48.5 -17.5t24.5 -42.5q0 -21 -22.5 -38.5t-47.5 -17.5q-24 0 -48.5 17.5t-24.5 41.5z" />
<glyph unicode="&#xfb04;" horiz-adv-x="924" d="M21 0v21q54 0 63 20v369h-50v30h50v34q0 82 41.5 119t109.5 37q59 0 89.5 -18t30.5 -41q0 -45 -40 -45q-24 0 -34 11.5t-9.5 25.5t-5 25.5t-21.5 11.5q-36 0 -36 -112v-48h77v-30h-77v-369q9 -20 63 -20v-21h-251zM340 0v21q54 0 63 20v369h-50v30h50v8q0 100 52.5 141 t148.5 41q84 0 136 -25q83 25 107 25v-589q9 -20 63 -20v-21h-251v21q54 0 63 20v486q-18 3 -31 15t-19 24.5t-20.5 23t-37.5 10.5q-38 0 -62 -34t-24 -104v-22h77v-30h-77v-369q9 -20 63 -20v-21h-251z" />
</font>
</defs>
</svg>
