<?xml version="1.0" standalone="no"?>
<!DOCTYPE svg PUBLIC "-//W3C//DTD SVG 1.1//EN" "http://www.w3.org/Graphics/SVG/1.1/DTD/svg11.dtd" >
<svg xmlns="http://www.w3.org/2000/svg">
<metadata></metadata>
<defs>
<font id="sf_shai_fontai_distressedRg" horiz-adv-x="802" >
<font-face units-per-em="2048" ascent="1638" descent="-410" />
<missing-glyph horiz-adv-x="768" />
<glyph horiz-adv-x="2048" />
<glyph horiz-adv-x="2048" />
<glyph unicode="&#xd;" horiz-adv-x="2048" />
<glyph unicode=" "  horiz-adv-x="768" />
<glyph unicode="&#x09;" horiz-adv-x="768" />
<glyph unicode="&#xa0;" horiz-adv-x="768" />
<glyph unicode="!" horiz-adv-x="515" d="M374 932q-14 -53 -12 -297q-17 -160 -22 -232t0 -58q-8 -23 -50 -53q-42 -31 -89 -26q-5 -3 -5 2q0 -14 5 14q1 7 5 47.5t11 115.5q39 258 19 413q13 142 1 272q-43 176 -40 173q4 -2 59 17q57 22 79 45q13 -10 1 -177q10 -102 19 -165.5t19 -90.5zM375 102 q9 -37 -53 -61t-66 -43q-12 0 -75 20q-60 21 -53 33q0 11 58 54q58 45 75 30q24 -2 114 -33z" />
<glyph unicode="&#x22;" horiz-adv-x="633" d="M509 1089q-3 -11 -5 -20.5t-4 -17.5q-3 -15 -62 -56t-73 -24q-3 1 -1 19q-1 13 1 31t7 43q10 48 -7 61v104q1 63 -5 53q1 22 62 51q29 10 49 17t31 12q-5 -35 -9 -117q-3 -84 16 -156zM275 1143q-2 -29 -4 -50.5t-3 -34.5q-11 -26 -68 -65q-28 0 -62 -27q-5 17 -9 36.5 t-5.5 39.5t0 40t7.5 38q0 24 6 71q6 46 -11 69q1 19 4 22q0 20 54 56q55 36 84 31q-4 -18 -2 -42t9 -55q15 -60 0 -129z" />
<glyph unicode="#" horiz-adv-x="1239" d="M1111 1075q-13 -17 -43 -39q-60 -51 -220 -67l-12 -18q4 -36 -3 -135q233 32 240 8q9 -2 16.5 -4t14.5 -4q-8 -14 -42 -39q-45 -26 -102.5 -38t-114.5 -24q15 -120 -10 -169q5 -30 -53 -74q-59 -44 -77 -25q-2 6 -11.5 78.5t-26.5 213.5l-150 -77l5 -48q17 -74 8 -85 q-8 -11 -72 -52q-62 -41 -69 -33q-1 5 0 17t5 32q-4 18 -6 42.5t-1 56.5t3 53.5t4 32.5q-137 -2 -249 6q-12 -18 -12 -17q0 7 38 36q58 45 112 43q55 -2 108 12q2 23 5 72.5t8 125.5q-202 -45 -293 -5q12 -4 60 22q46 55 88 51q19 -3 132 0q-5 94 41 215q-10 47 35 79 q46 32 86 20q-2 1 -12 -102q-5 -70 -9.5 -120t-9.5 -80q51 2 94.5 0.5t81.5 -5.5q0 111 -3 275q36 2 78 22q22 11 43 20t41 17q0 -2 1.5 -31t3.5 -86q-24 -101 -33 -195q41 1 92.5 6.5t114.5 15.5q20 -8 78 4zM695 783q-17 108 8 176q-23 0 -62 1t-95 3q-10 -65 2 -222 q40 24 147 42z" />
<glyph unicode="$" horiz-adv-x="829" d="M705 457q-11 -78 -20.5 -131.5t-17.5 -83.5q-24 -44 -133 -80q-36 39 -63 51q-5 -46 -7 -78.5t-1 -52.5q-11 -21 -71 -53q-29 -16 -47 -23.5t-24 -8.5q1 10 2.5 24.5t2.5 29.5t1.5 30t0.5 27q-2 15 -1 41.5t-6 53.5q-2 19 0 21v1q-10 -1 -20 -1h-19q-20 -15 -70 -49 q-48 -33 -60 -15q4 14 5 48t5 43q0 32 -19 80q7 19 58 53q56 34 81 31q22 -19 18 -77q4 -26 -5 -53q179 56 212 26q10 0 22.5 -1t28.5 -3q3 19 3 53v227q-29 5 -74 13.5t-105 20.5q-57 -3 -143 -32q-34 10 -87 10q41 167 14 254q-13 106 -21 168t-10 80q-5 24 41 65 q46 40 80 27q26 2 36 -85l41 6l-2 28q-11 75 0 104q0 6 -4 21q-3 16 1 20q-1 15 52 46q54 30 81 32q5 -2 5 -14v-18q0 -10 1 -24t2.5 -26.5t4.5 -22.5q1 -23 1.5 -51.5t0.5 -63.5q31 11 77 23.5t109 26.5q11 -5 26 -2l3 -3q-16 -26 -28 -44.5t-20 -29.5q-9 -26 -17.5 -47 t-16.5 -36q-4 -17 -15 -55q-4 -22 -82 -46q-31 -32 -51 -34q-5 0 -5 5q-4 70 42 131q1 49 43 72q-88 2 -244 -43q4 -38 8.5 -72t11.5 -63q-27 -133 -30 -268q80 26 230 50q107 -3 184 -46l-8 -12q1 -14 2 -40t3 -64q2 -37 3.5 -60t3.5 -31z" />
<glyph unicode="%" horiz-adv-x="1323" d="M1196 85q-10 -15 -64 -49q-26 -17 -45.5 -26.5t-30.5 -11.5q-15 1 -18 21q-30 16 -91 31.5t-155 29.5l-44 -19q-13 -3 -36 -9t-55 -16q0 2 0.5 7t1.5 12q-1 -11 5 14.5t20 87.5q-2 30 1 72t10 97q1 112 -41 282q-25 -61 -58 -161.5t-75 -241.5q-7 -10 -17 -37t-23 -72 q-20 -38 -72 -77q-52 -37 -71 -16l-2 -1v3q0 4 12 46q46 182 258 517q-154 49 -294 62q-126 -2 -126 -19q-6 -2 -14.5 -5t-19.5 -5q-5 17 15 118q9 107 -10 191q12 67 3 198q-2 21 -8 42t-14 43q-10 30 -10 27q-2 17 53 60t80 19q11 2 82 25l215 17q9 13 68 24 q5 -33 6.5 -56t-2.5 -36q-5 21 24 -258q-41 -119 -9 -220q80 156 114 352q10 22 26 57.5t39 85.5q13 20 55 56q42 35 85 19v-3v-2q-3 -15 -12 -70q-63 -164 -266 -515q34 -14 54 -22t26 -9q32 -7 280 43q20 -4 87 17l16 -24q0 -20 1.5 -52t5.5 -77t1.5 -82t-12.5 -69 q16 -143 25 -245t13 -168zM515 695q-10 61 -13.5 126t0.5 136l-7 108q34 186 15 213q-21 -4 -81.5 -11t-162.5 -18q33 -91 69 -247q-32 -106 -43 -323q66 26 124 17h42t57 -1zM1024 133q-48 118 -22 270q1 262 12 321q-40 -5 -88.5 -8.5t-106.5 -7.5q-4 -57 -2 -120.5 t9 -136.5q-5 -61 -10 -134t-10 -158q75 -29 138 -21q22 0 42 -1.5t38 -3.5z" />
<glyph unicode="&#x26;" horiz-adv-x="848" d="M763 650q-9 -20 -57 -48q-47 -29 -75 -39q1 -53 0 -159q10 -61 12.5 -111.5t-1.5 -92.5q-4 -41 -3.5 -70t4.5 -48q-3 -21 -65 -53q-31 -16 -49 -23.5t-24 -8.5q-32 86 -160 75q-40 12 -103 -5q-8 -10 -21.5 -22t-32.5 -28q-35 -31 -79 -14l2 -1q0 15 -1.5 68.5 t-3.5 146.5q42 282 2 454q5 62 1.5 171t-15.5 267q32 32 2 108q-21 61 -11 68q0 14 70 47t63 33q21 1 28 -99q300 116 413 111q3 -15 -10 -25q-35 -32 -52 -86q-4 -9 -7.5 -32t-5.5 -60q3 -48 -14 -77q-12 -31 -61 -47q-34 -23 -87 -29q3 211 107 256q-114 0 -271 -33 q59 -425 -2 -595q18 -3 41 -7.5t51 -11.5q56 -12 68 3q48 2 86 -3l-7 41q2 19 5 31.5t5 20.5q4 15 53 58q48 42 82 26q3 -4 -5 -143q71 0 133 -14h-5zM476 551q-84 -1 -136 -1h-72q13 -135 -15 -402q161 36 250 19q-8 38 -6 65l8 166q-16 46 -29 153z" />
<glyph unicode="'" horiz-adv-x="401" d="M276 1143q-5 -32 -7.5 -54t-3.5 -36q-8 -24 -58 -51q-17 -7 -34 -15t-36 -16l-9 2q3 31 -4 82q-6 53 6 68q1 12 2.5 32t4.5 48q6 57 -9 77q1 23 60 52t80 30q1 -19 0 -43t-1.5 -52t1.5 -59.5t8 -64.5z" />
<glyph unicode="(" horiz-adv-x="606" d="M478 1364q0 -2 -14 -16q-23 -27 -66 -121q-124 -232 -81 -529q-61 -181 57 -403q-19 -124 19 -193q13 -14 13 -17q0 -19 -49 -41q-59 -40 -82 -47q-91 217 -171 677q9 145 68 268q44 235 178 369q49 58 118 44z" />
<glyph unicode=")" horiz-adv-x="575" d="M463 742q-26 -146 -60.5 -285t-78.5 -273q-24 -47 -54 -105q-13 -12 -28.5 -25t-32.5 -27q-35 -27 -81 -24q13 26 24 55q123 250 171 575q18 278 -70 456q-22 125 -64 164q-5 10 -8 16.5t-5 10.5q0 19 53 60q55 13 80 25q73 -74 80 -266q22 -109 40.5 -198t33.5 -159z " />
<glyph unicode="*" horiz-adv-x="957" d="M829 683q0 -12 -56 -47q-54 -34 -75 -37q-18 1 -154 130l11 -87q-20 -63 -21 -88t-75 -52q-11 -11 -27 -22.5t-38 -22.5q0 14 0.5 29t1.5 31q8 50 3 56q7 30 14 75t15 105q-70 -17 -109 -65q-44 -68 -99 -80q-14 -7 -26 -12t-23 -7l-2 2q4 24 295 226l-60 48 q-95 63 -163.5 108t-112.5 73v29q0 11 56 55q57 44 75 29q28 -1 142 -82h5q-3 31 4 89q-4 45 -9 73q1 17 3 29t4 19q4 14 58 54q53 41 82 21q3 -61 -19 -195q-8 -107 14 -160q60 50 95 133q92 80 162 70l-3 -3q-11 -25 -198 -326q8 8 102 -94q28 -24 52 -46.5t46 -42.5 q30 -14 30 -15z" />
<glyph unicode="+" horiz-adv-x="913" d="M785 727q-5 -15 -57 -46q-53 -32 -71 -36q-23 1 -72 3q-25 1 -43 1q-17 0 -28 1q-9 -42 10 -147q-19 -29 -84 -64q-65 -33 -73 -35v28q0 19 -2 25q2 17 11.5 57t26.5 104q-59 25 -210 12q-12 -26 -65 -28q3 11 26 23q70 73 254 66q-29 74 -44 198q19 31 73 60 q26 14 47 23.5t37 13.5q5 -12 5 -51q-2 -46 -2.5 -96.5t0.5 -106.5q28 4 77 9t119 12q33 -14 65 -21v-5z" />
<glyph unicode="," horiz-adv-x="399" d="M276 -22q-5 -24 -7.5 -42.5t-3.5 -31.5q-6 -22 -56 -51q-50 -30 -81 -29q1 11 1.5 28.5t-0.5 42.5q-2 50 6 62q-2 10 -5 23.5t-6 31.5q-5 38 4 58q1 8 1.5 15t0.5 12q0 10 60 51q60 40 71 23q4 0 4 -7v-58q0 -39 6 -70z" />
<glyph unicode="-" horiz-adv-x="836" d="M708 727q-2 -16 -54 -44q-54 -30 -77 -38q-64 -10 -191 -12q-60 1 -110 2t-92 3q-15 -11 -58 -12q2 0 2 2q2 17 58 44q56 38 73 35q20 1 104 -6.5t234 -21.5q113 83 111 53v-5z" />
<glyph unicode="." horiz-adv-x="517" d="M401 65q-17 8 -71 -24q-54 -31 -71 -36q-8 1 -25.5 6.5t-46.5 15.5q-56 21 -59 31q0 13 70 56q71 45 63 28q21 -1 140 -77z" />
<glyph unicode="/" horiz-adv-x="715" d="M672 1360q-41 -101 -78.5 -210t-72.5 -227q-57 -131 -100.5 -242t-74.5 -205q-54 -87 -90 -280q-47 -37 -61 -111q-32 -35 -82 -60q-49 -25 -70 -30q2 10 6.5 25.5t10.5 37.5q38 99 79 197.5t86 200.5q105 164 200 365q12 215 77 456q24 -16 31 10q7 27 63 60 q34 18 70 13h6z" />
<glyph unicode="0" horiz-adv-x="780" d="M696 84q-17 -19 -71 -52q-53 -30 -82 -35q-6 4 -7 27q-69 66 -261 94q-34 -20 -106 -28q-19 -14 -33.5 -22t-24.5 -12q4 40 12 180q22 140 26.5 258.5t-6.5 217.5q33 258 -20 385q-15 17 -29 46q-9 16 -9 33q0 16 53 60t86 20q126 59 469 79l-48 18q-78 -594 -8 -551 q-26 -412 92 -696zM519 167q-14 147 -22 294t-12 298q46 502 27 526q-53 -14 -312 -48q55 -59 63 -186q-39 -303 7 -331q3 -112 -5.5 -240t-28.5 -275q116 -48 179 -24q41 -13 104 -14z" />
<glyph unicode="1" horiz-adv-x="340" d="M282 788q-38 -47 -29 -343q-37 -398 -24 -358q-8 -13 -21 -27t-32 -28q-36 -29 -87 -27q-4 0 -4 4q0 -6 1.5 -1.5t3.5 19.5q5 23 18 226q25 185 29 309t-12 191q12 126 15 319q-40 76 -50 155q-1 22 -1 37v23q0 19 53 54q52 9 83 29q75 -293 57 -582z" />
<glyph unicode="2" horiz-adv-x="773" d="M705 1097q-23 -41 -25 -180q-1 -69 -3.5 -125t-7.5 -101q2 -6 4 -20t3 -36q2 -44 3 -65q-3 -18 -47 -41q-22 -11 -44 -21t-45 -18q2 -2 -4 0q-71 77 -278 63q11 -34 14.5 -80t-0.5 -104q5 -66 6 -130.5t-1 -130.5q135 87 198 63q24 -9 54 -12q4 58 -8 97q-12 38 -3 34 q-2 20 68 42t68 43l3 -5q12 -45 4 -204q19 -55 0 -82q-4 -16 -59 -42t-71 -42q-5 7 -12 18t-17 26q-50 44 -140 57q-63 -21 -133 -33q-73 -58 -121 -70q0 5 12 79.5t17 216.5q-20 89 -36.5 156t-30.5 115q80 68 126 71q47 4 124 24q148 11 218 -23q-6 33 -11.5 84t-10.5 120 q48 116 27 215q-19 149 -7 212q-17 9 -321 -78q12 -2 12 -23q0 -11 0.5 -19.5t1.5 -15.5q0 -47 -11 -71q-5 -11 -17 -25t-30 -31q-36 -34 -89 -36v4q-1 24 9 67q10 42 -4 85q-2 27 6 86q7 58 -9 72q0 17 61 51q63 35 76 31q-1 -10 0 -25t5 -35q8 -41 1 -59q78 23 184 63 t241 97q4 -21 5.5 -31.5t1.5 -9.5q5 0 10 -15q17 -62 33 -253z" />
<glyph unicode="3" horiz-adv-x="797" d="M713 82q-12 -17 -64 -48q-51 -31 -79 -37q-48 52 -242 49q-72 3 -116 0q-29 -20 -115 -39q9 15 15 53q8 39 9 73q-2 10 -3.5 25t-3.5 37q-3 45 -13 52q2 14 70 33q70 19 66 48q16 -40 21 -127q-2 -14 -3 -37.5t-1 -55.5q88 39 210 5q39 27 79 15q-51 241 -69 461l31 31 q-30 -1 -68 -5t-84 -11t-93.5 -10t-97.5 -3q7 7 18.5 16.5t27.5 23.5q60 34 91 41q1 -1 170 41q49 76 53 229q4 154 -24 244q12 64 21 89q-103 -5 -289 -103q0 13 0 11t-1 -19q0 -21 3 -36q1 -60 -9 -75q-10 -14 -58 -36q-46 -19 -76 -46l-4 2q-3 24 9 66t-2 86 q-2 13 -1.5 31.5t0 39t-2 43t-6.5 43.5q3 18 61 39q49 49 77 46q9 -8 9 -111q72 41 235 53q32 10 79 23.5t109 32.5l3 -13q12 -103 3 -265q-4 -81 -8 -147.5t-8 -120.5q43 -189 62.5 -361t17.5 -333z" />
<glyph unicode="4" horiz-adv-x="739" d="M654 80q-2 -17 -59 -47q-55 -30 -80 -36q-13 49 -23 358q-99 62 -181 73q-58 0 -157 -12q-27 -26 -87 -61q1 19 2.5 57.5t5.5 96.5q38 234 17 315q1 22 7.5 86.5t18.5 173.5q-57 129 -51 123q-3 16 -10 35t-18 41q7 21 55 55q53 12 80 31l5 -5q21 -34 16 -180 q13 -251 27 -271q27 -145 -39 -421q147 34 286 25q9 46 2 154q5 39 -0.5 99.5t-21.5 142.5q-32 164 37 217q-8 2 -13 31q2 33 3 46q-2 61 5 73q7 15 63 54q56 40 70 28l7 2q-2 -38 -1 -110.5t5 -180.5q8 -214 -28 -252q13 -121 27 -247t30 -258q-23 -51 -28 -166 q18 -40 25 -57.5t3 -12.5z" />
<glyph unicode="5" horiz-adv-x="748" d="M678 350q-20 -99 -32.5 -163.5t-17.5 -96.5q-15 -31 -60 -62q-43 -31 -80 -28q-31 91 -164 111q-19 -13 -80 -21q2 -24 -50 -64q-53 -41 -76 -26q-4 22 6 76q11 56 -1 66q2 18 -1.5 50.5t-17.5 66.5q0 15 62 35q51 39 80 42q12 -42 12 -124q1 -8 2.5 -27t5.5 -48 q129 61 190 35q30 1 58 0q18 69 1 149q2 31 0 90t-8 147q-33 25 -147 33q-60 2 -188 -9q-33 -33 -63 -46q-3 41 9 130q8 51 10 115t-2 144q2 48 0 114.5t-10 153.5q-9 -2 -46 106q8 1 26.5 7t49.5 19q62 26 71 42q30 2 49 -109q225 109 362 106q19 -1 7 -12 q-65 -47 -56 -139q-14 -46 -22 -75t-10 -42q-5 -25 -59 -62q-30 0 -82 -15q4 181 99 283q-95 -24 -215 -90q-43 -142 -24 -214q-4 -67 -0.5 -162.5t14.5 -222.5q62 59 184 66q148 -2 193 -41q24 -137 21 -288z" />
<glyph unicode="6" horiz-adv-x="761" d="M679 358q-14 -114 -23.5 -183t-13.5 -95q-7 -11 -21.5 -23.5t-37.5 -26.5q-43 -28 -76 -30q-4 7 -11 18.5t-18 27.5q-25 43 -147 46q-26 -6 -55.5 -15t-63.5 -22q-71 -47 -127 -57q5 29 9 92q107 383 104 750q-64 111 -74 210q-11 102 6 119q0 13 -1 30t-3 37 q-3 41 -8 49q1 13 54 60q72 12 84 24q2 -16 3.5 -47.5t3.5 -80.5q261 109 420 124q-70 -74 -91 -167q-4 -22 -8.5 -48t-10.5 -58q-12 -27 -61 -46q-17 -10 -36 -17t-41 -12q4 169 67 261q-68 -7 -229 -66q-2 -101 3 -258q4 -45 -8 -132.5t-38 -220.5q106 64 267 77 q29 -16 53 -24.5t44 -10.5q14 -5 33.5 -10.5t43.5 -12.5q-4 -20 -7 -52t-7 -77q-7 -85 22 -133zM544 295q-7 60 -15 121.5t-19 124.5q-21 21 -150 31q-20 -2 -45 -6t-54 -11q-12 -57 -34.5 -156.5t-55.5 -244.5q78 7 153 14t150 15q26 -15 58 -23q-8 64 12 135z" />
<glyph unicode="7" horiz-adv-x="671" d="M713 1359q-6 -64 -266 -710q27 -12 82 6q28 7 53.5 11t48.5 5q-7 0 -1 -2q-9 -11 -33 -27q-52 -49 -87 -50q-10 -2 -33.5 -5t-61.5 -5q-54 -128 -110 -393q-36 -23 -90 -95q-8 -39 -54 -73q-47 -35 -74 -21q-2 2 -2 7l11 58q110 177 160 520q-41 -65 -171 -102l7 27 q67 67 207 108q118 289 148 322q46 94 75 178t43 159q-42 -8 -122 -23.5t-199 -38.5q37 -32 39 -54q-2 -21 0 -33q0 -55 -9 -74q-8 -16 -59 -58q-50 -41 -78 -21q-2 9 -4 28t-4 48q-4 57 13 74q0 20 -13 71q-14 52 4 70q0 7 4 14q2 20 65 42t71 45q4 -4 5 -12t1.5 -32 t0.5 -62l2 -39q29 23 178 106t250 39q3 -2 3 -8z" />
<glyph unicode="8" horiz-adv-x="816" d="M732 87q-3 -14 -59 -49q-57 -34 -81 -41q-130 61 -257 63q-41 3 -111 0q-60 -43 -116 -57q4 6 17 77q27 111 13 195q28 268 -51 283q35 22 63 39t50 31q-2 107 -3.5 186t-0.5 131q4 216 -39 342l7 -2q0 12 52 34t76 48q32 -3 29 -89q34 2 89 7.5t131 14.5q56 46 169 65 q-11 -45 -18 -107.5t-11 -144.5q-8 -164 0 -292q16 -198 23.5 -357.5t8.5 -284.5q23 -70 19 -92zM480 1324q10 -46 -140 -102q-16 -128 1 -186q4 -41 -20 -254q5 -31 7.5 -52.5t2.5 -33.5q-11 -47 -24 -53q97 55 248 55q-38 209 -75 626zM575 142q0 106 -13.5 237t-39.5 292 q-90 -34 -242 -120q-5 -29 -9.5 -71.5t-9.5 -98.5q22 -108 -37 -273q125 32 257 8q42 31 94 26z" />
<glyph unicode="9" horiz-adv-x="768" d="M695 968q-26 -102 -20 -323q3 -112 0 -203t-13 -164q9 -16 12 -91q2 -37 3 -63t2 -42q-4 -15 -50 -39q-23 -12 -44.5 -22.5t-43.5 -18.5l-41 27q-66 46 -138 61q-90 -6 -144 -35q-26 -14 -53.5 -28t-56.5 -27q25 97 11 133q-1 12 -4 28.5t-9 36.5q-12 40 -7 51 q0 17 64 59t76 21q15 -39 10 -99q16 -69 -7 -122q117 47 231 44q26 19 59 14q-8 85 -8 184t7 213q-105 33 -164 22q-61 3 -104 3q-42 0 -68 -4q-35 -16 -56 -25t-28 -13q-1 8 -3 36.5t-6 76.5q11 87 19 149.5t12 104.5q-13 317 -48 352v20q0 12 46 55t86 27q29 -3 15 -119 q117 38 278 61q-5 5 65 29q99 15 91 27q1 0 1 -20q-3 -24 4 -60q2 -29 3.5 -44t1.5 -17q-8 -54 -3 -117.5t22 -138.5zM544 908q-2 213 -42 384q-47 -48 -273 -114q37 -71 34 -173q24 -158 -12 -341q32 4 82 7t119 7l45 -9q24 -9 46 -7q-1 90 -1 151t2 95z" />
<glyph unicode=":" horiz-adv-x="524" d="M386 584q-5 -14 -58 -46q-26 -16 -44 -24.5t-26 -10.5q-8 1 -26 6.5t-46 15.5q-57 21 -58 31q0 12 70 55t60 27q16 -2 70 -31q56 -31 58 -23zM415 90q-11 -8 -28.5 -18.5t-40.5 -22.5q-23 -11 -43 -21.5t-37 -20.5q-15 -2 -60 10q-47 12 -71 41q0 12 58 36q58 25 77 46 q22 2 145 -50z" />
<glyph unicode=";" horiz-adv-x="517" d="M389 592q-4 -13 -60 -46q-54 -31 -71 -36q-8 1 -26 6.5t-46 15.5q-57 21 -58 31q0 13 67 56q69 46 59 28q4 -2 66 -36q61 -34 69 -19zM321 -12q-4 -30 -6 -50t-4 -30q-9 -23 -54 -64q-44 -40 -83 -23q-2 13 -3 31t-2 42q-2 49 5 57v28t1 40q1 46 -6 54q1 6 1.5 12.5 t0.5 13.5q0 15 64 37t67 38q5 -3 5 -10q0 -23 10 -64q11 -42 -3 -62z" />
<glyph unicode="&#x3c;" horiz-adv-x="826" d="M720 205q-31 24 -83 -10q-53 -33 -70 -36q-4 3 -7 7q-11 11 -45.5 53.5t-94.5 115.5q-20 29 -72.5 82t-137.5 129q-16 23 -79 84l-3 20q28 32 71 80.5t101 114.5q60 52 96.5 86t50.5 50q23 23 49 66.5t55 109.5q13 1 30.5 6t39.5 13q23 8 40.5 17t31.5 17l5 -3 q-8 -14 -37 -54t-79 -107q-89 -41 -142 -167q-187 -108 -169 -155q2 -6 33 -40q31 -23 69 -67t86 -108q48 -47 113 -122.5t148 -181.5z" />
<glyph unicode="=" horiz-adv-x="908" d="M759 720q-11 -21 -60 -49q-25 -14 -43 -23t-30 -11q-19 2 -48 2q-28 0 -66 -1q-34 1 -63.5 3.5t-55.5 7.5q-77 6 -176 -6q-10 -5 -27 -10t-43 -10l-5 10q6 12 49 43q49 29 87 32q67 4 169 36q28 -8 67.5 -17t91.5 -20q48 9 86 15t69 8zM780 515q-56 -74 -138 -63 q-106 -63 -468 -7l-56 -49l10 14q0 13 69 46q68 34 62 34q221 29 349 27q32 -2 74 1t95 13z" />
<glyph unicode="&#x3e;" horiz-adv-x="826" d="M707 710q-78 -61 -159 -160q-140 -170 -159 -180q-22 -25 -48.5 -60t-58.5 -81q-96 -49 -140 -60l-14 -5q4 11 123 112q61 75 139.5 162.5t176.5 189.5q-52 103 -169 200q-111 95 -168 172q-56 70 -81.5 102t-20.5 26q0 15 53 50q59 37 78 34l7 -4q54 -76 246 -268 q54 -57 102.5 -113.5t92.5 -116.5z" />
<glyph unicode="?" horiz-adv-x="889" d="M778 1101q-23 -40 -25 -180q0 -70 -3 -126.5t-8 -101.5q6 -12 9 -57q2 -22 3 -38t2 -26q-3 -17 -50 -40q-23 -11 -46 -21t-46 -18q-2 -2 -45 27q-43 28 -202 55q-24 -32 -17 -72q-1 -75 -6 -122t-13 -67q-11 -18 -73 -32q-29 -21 -72 -48q0 11 12 67q12 57 -7 153 q7 37 0 72q-1 1 -5 4t-12 10q-15 13 -12 18q0 4 14 15q40 26 69.5 44t48.5 26q22 7 56 12t82 7q58 -2 101.5 -7t72.5 -12q4 36 -0.5 91t-15.5 130q-22 150 38 201q-2 124 -36 212q-46 -10 -116 -32t-165 -57q-5 -52 -8.5 -85.5t-5.5 -48.5q-2 -30 -52 -50q-25 -10 -46.5 -19 t-39.5 -19l1 7q0 27 6 69q6 41 -2 81q2 14 3 33t2 44q3 52 -10 80q0 20 68 43q44 47 67 44q3 -24 0 -64q-2 -41 11 -61q136 4 378 156q51 -32 54 -33q5 0 9 -13q25 -54 32 -251zM372 72q10 -4 -50 -39q-59 -33 -64 -35q-8 1 -28 9t-51 22t-43.5 20t-7.5 2q1 16 72 36 q71 21 66 44q38 -18 106 -59z" />
<glyph unicode="@" horiz-adv-x="1244" d="M1135 742q-35 -105 -108 -184q-143 -155 -254 -131q-89 2 -104 70q-50 -19 -86.5 -30t-61.5 -13q-73 -3 -117 32q-43 36 -29 89q21 157 224 253q87 75 128 61q66 -11 97 -61l-10 8q0 -13 -58 -56q-28 -8 -46.5 -13t-26.5 -8l-5 -1q-39 42 -99 61q-25 -46 -43.5 -82.5 t-30.5 -64.5q0 -74 36 -117t94 -28q8 17 15 43q7 11 22.5 24t38.5 29q49 32 83 22q-7 -31 -3 -74q4 -42 103 -42q93 73 89 167q-31 163 -119 308q-104 110 -277 138q-57 -20 -100.5 -38t-75.5 -32q-173 -162 -181 -318q29 -209 202 -409q101 -87 360 -77q85 -36 116 -24 q-2 -6 -8 -13.5l-14 -17.5q-102 -47 -244 -47q-186 -45 -388 124q-136 126 -131 311q-22 287 124 433q243 175 470 198q147 0 322 -164q50 -135 96 -326z" />
<glyph unicode="A" d="M719 79q-4 -16 -61 -47q-28 -15 -48 -23.5t-31 -10.5q-6 1 -6 7q0 4 2 9t2 8q0 -3 -33 138q2 57 10.5 153.5t24.5 234.5q-131 -63 -292 -108q-17 -100 -26.5 -198.5t-11.5 -198.5q-34 6 -89 -9q-52 -13 -76 -32q12 34 12 309q78 420 23 614q21 66 14 188q24 141 -7 174 q0 15 57 36q52 36 88 42q0 -123 11 -148q15 4 40.5 9t61.5 13q34 10 159 87q70 46 138 46q3 -26 2 -37q1 28 3 -180q1 -208 -15 -334q4 -259 17 -419.5t36 -227.5q-14 -85 -5 -95zM543 1282q-87 -32 -249 -142q-18 -41 -2 -143q24 -259 -46 -514q34 -12 46 -12q52 5 215 120 q37 58 22 133q4 38 5 90t0 119t-1.5 138t-0.5 146q1 38 11 65z" />
<glyph unicode="B" horiz-adv-x="848" d="M773 594q-16 -33 -32 -331q-6 -42 -10.5 -87t-8.5 -94q-8 -10 -23 -22.5t-36 -29.5q-42 -32 -86 -27q4 -2 -20 6t-76 25q-54 7 -95.5 9t-73.5 -2q-83 14 -170 -27q-16 -1 -55 -14l-2 3q0 6 3.5 15t3.5 13l9 182q-5 294 36 596q-41 152 -33 212q-38 330 -10 261 q-4 21 49 44q59 25 86 39q25 -92 12 -150q21 11 51 25t70 33q60 11 223 82q36 1 86 17q1 -18 -5 -45.5t-17 -65.5q-50 -104 -38 -206q4 -55 9 -113t13 -119q26 -32 65 -24t50 -9q2 -31 8 -79.5t17 -116.5zM532 1302q-90 -86 -324 -111q28 -94 44 -182t21 -173 q-17 -36 -48 -220q180 74 265 155q-31 115 -7 183q-38 209 49 348zM620 551q3 20 -5 65q-7 43 -1 51q1 22 0 26q-3 10 -14 17t-33 5q-12 2 -65 -10q-73 -32 -132 -43q-66 -35 -105 -70q-4 -48 -2 -127t10 -192q-26 -39 -48 -174q90 37 244 38q55 3 123 -9q46 398 28 423z " />
<glyph unicode="C" horiz-adv-x="763" d="M681 181q-12 -72 -21 -102q-10 -25 -58 -54q-46 -27 -81 -25q-41 77 -175 96q-15 -6 -45.5 -13t-76.5 -15q-71 -65 -113 -75q-5 12 -5 14q0 -7 3 13q1 5 12.5 47.5t33.5 123.5q-43 394 -36 533q11 152 0 295q9 75 -29 213q4 13 -8 58q4 9 55 51q52 13 81 21 q23 -9 47 -106q120 73 387 142l12 -36q0 -2 -14 -14q-38 -31 -61 -80q4 -19 3 -101q-10 -41 -24 -73q-12 -26 -65 -44q-26 -26 -73 -33q-27 150 68 287q-35 -12 -94 -39t-143 -70q-48 -257 15 -432q14 -158 1.5 -314t-50.5 -314q162 24 275 15q13 14 32 10q2 24 -34 116 q-2 69 0 110q-2 25 48 63q32 10 54 17t36 12q2 -5 8.5 -27.5t17.5 -63.5q-14 -17 0 -97q5 -32 9 -59t8 -50z" />
<glyph unicode="D" horiz-adv-x="807" d="M756 935q-48 -62 -44 -286q2 -112 -1 -204t-13 -165q9 -16 12 -91q2 -37 3 -63t2 -42q-5 -17 -50 -40q-42 -22 -92 -42q-11 13 -26 29.5t-35 36.5q-41 63 -218 51l-38 16l-3 -22q3 -26 -4 -33q-10 -19 -64 -40q-55 -22 -74 -43q-5 7 -5 10q0 -9 3 12q2 7 13.5 53 t32.5 133q-26 171 -40.5 310.5t-18.5 250.5q7 149 8 260.5t-3 186.5q-4 72 -16 69q0 20 57 58q62 24 83 27q31 -43 4 -186q169 63 411 147q43 37 63 37q10 -29 23 -136t30 -294zM577 928q2 75 1.5 165t-5.5 197q-17 -20 -372 -107q59 -281 75 -451q-15 -39 -3 -457 q62 -62 131 -60q82 -3 169 -32q-7 72 -16 171t-22 228q-25 256 42 346z" />
<glyph unicode="E" horiz-adv-x="763" d="M678 186q-9 -77 -18 -109q-11 -23 -59 -51q-46 -28 -77 -26q-40 78 -176 97q-28 -16 -124 -29q-69 -66 -113 -77q14 86 12 224q51 348 15 432q4 38 14 128.5t27 234.5q-63 115 -82 221q-2 16 -13 51q2 19 53 56q27 7 47 15t34 16q28 -22 23 -103q78 22 159.5 37t169.5 25 q47 35 65 37h29q-2 -5 -14 -17q-48 -40 -53 -83q-13 -48 -3 -94q-8 -48 -29 -79q-9 -23 -58 -51q-12 -4 -30.5 -13.5t-44.5 -23.5q12 214 73 266q-44 5 -108 -0.5t-150 -21.5q40 -354 -11 -494q51 -20 86 -26t45 -6q16 0 46 -1t75 -3q89 -3 106 24q-7 -10 -16.5 -22.5 t-22.5 -26.5q-59 -26 -96 -36q-64 -24 -203 -2q-35 -233 -12 -525q167 51 230 42q19 -5 34 -9t26 -8q0 25 -24 120q2 32 0 62t-7 59q0 18 70 55q71 39 69 25q0 -10 17 -83q12 -186 19 -207z" />
<glyph unicode="F" horiz-adv-x="705" d="M664 1362q-5 -3 -15 -15q-44 -53 -51 -80q-4 -14 -5.5 -36t-2.5 -52q-2 -60 -13 -87q-12 -26 -65 -43q-54 -15 -77 -34q-27 197 74 268q-75 -31 -227 -59q-1 -180 2 -300.5t11 -184.5q66 4 156.5 -4t207.5 -27l-28 38q-11 -17 -66 -42t-67 -42q-49 4 -103.5 6t-116.5 4 q-83 -514 -67 -573q16 -60 -33 -70q-48 -11 -67 -32q2 61 1 113.5t-3 97.5q5 37 7 91t0 126q-3 143 27 230q-17 76 -35 453q7 15 3 117q-28 74 -26 60q-1 21 67 62q48 15 68 18q24 -31 33 -112q182 114 382 75q10 34 29 34z" />
<glyph unicode="G" horiz-adv-x="800" d="M737 457q-36 19 -58 6q2 -66 5.5 -114t8.5 -79q-2 -145 -24 -185q-22 -18 -58.5 -41.5t-84.5 -41.5q-1 1 -7.5 7t-18.5 18q-35 62 -145 53q-37 12 -118 -13q-66 -79 -119 -76q-10 19 -10 24q0 -16 3 64q10 57 -2 162q-3 237 12 428q24 53 -7 207q-17 138 2 187 q0 55 9 159q-24 21 -40 68q8 20 61 48q56 29 78 29q23 -33 13 -106q300 157 418 101q2 4 7 -3q-1 -2 -13 -14q-58 -75 -53 -142q-10 -23 -5 -34q3 -97 -101 -121q-16 -14 -30 -24t-28 -17q-17 189 71 275q-57 -32 -257 -46q-14 -260 42 -528q-66 -264 -46 -582 q171 17 232 53q39 -5 76 -15v39q-8 41 3 112q11 72 -24 113q-22 11 -63 27.5t-104 37.5q12 8 30 21t41 30q46 36 67 31q17 0 237 -118z" />
<glyph unicode="H" horiz-adv-x="806" d="M720 80q-1 -18 -57 -47q-57 -29 -83 -36l-8 160q-23 139 12 384q-70 -12 -141 -34.5t-146 -54.5q-70 -180 -85 -379q0 -15 -10 -27.5t-27.5 -22.5t-40.5 -16t-49 -9q8 26 19.5 103t26.5 208q72 312 62 567q-26 118 -40 192t-16 106q-8 87 -6 111q0 21 53 56q51 9 82 29 q60 -233 5 -368q-12 -278 -24 -570q34 48 45 48q52 2 242 126q-27 755 14 677q48 76 148 94l-3 -15q-2 -17 -3.5 -60t-0.5 -114q-13 -61 -18 -178q-4 -113 8 -201q-6 -115 -2 -247t18 -284q6 -7 -2 -143q8 -19 15 -33t12 -22z" />
<glyph unicode="I" horiz-adv-x="340" d="M282 788q-38 -47 -29 -343q-37 -398 -24 -358q-8 -13 -21 -27t-32 -28q-36 -29 -87 -27q-4 0 -4 4q0 -6 1.5 -1.5t3.5 19.5q5 23 18 226q25 185 29 309t-12 191q12 126 15 319q-40 76 -50 155q-1 22 -1 37v23q0 19 53 54q52 9 83 29q75 -293 57 -582z" />
<glyph unicode="J" horiz-adv-x="730" d="M666 1065q-36 -105 -29 -365q8 -260 -12 -427q9 -17 10 -88q2 -36 3 -62t2 -43q-4 -13 -53 -36q-24 -11 -48 -21.5t-47 -20.5q-136 164 -267 145q-15 24 -30 20l3 -27q-3 -46 -7 -60q-4 -24 -65 -39q-23 -14 -41 -26t-32 -20q0 22 3 72q-5 36 -1 49q-4 53 8 134 q12 79 -24 151q1 9 60 32q58 40 87 43q1 -43 0 -239q99 36 169 24q66 4 143 -29q-25 105 29 374q-11 176 -39 293q12 181 12 263q-17 135 -12 123q0 17 48 37q25 11 47 22t42 23q19 -57 41 -302z" />
<glyph unicode="K" horiz-adv-x="777" d="M765 -48q-67 0 -166 -24q-15 13 -55 154q-103 285 -233 461q-57 -187 -23 -429q-95 -92 -187 -116q8 34 19 91.5t25 140.5q-14 156 3 345q-17 69 1 215q18 145 -14 295q-23 112 -33 142q-17 54 -17 58q0 21 52 55q49 7 81 30q41 -35 18 -221q8 -69 13 -159t7 -202 q146 306 196 357q116 227 244 234q1 -19 -13 -32q-80 -64 -214 -345q-75 -109 -85 -164q-46 -89 -87 -118q151 -101 276 -336q52 -90 192 -432z" />
<glyph unicode="L" horiz-adv-x="766" d="M730 239q-11 -72 -17.5 -111.5t-7.5 -49.5q-1 -18 -53 -54q-51 -36 -73 -24q-13 19 -35 58q-99 132 -256 178l-39 -84q2 -53 -3 -76t-47 -46q-43 -23 -90 -32q91 578 29 647q2 57 45 355q-69 122 -87 232q-5 23 -8 35.5t-3 14.5q0 20 47 56t85 24q28 -13 78 -256 q-58 -271 -30 -374q-3 -100 -9 -209.5t-14 -232.5q239 14 330 -61l8 150q2 1 18 10.5t46 26.5q62 35 73 28q1 0 5 -2q15 -101 8 -203z" />
<glyph unicode="M" horiz-adv-x="1058" d="M975 79q-4 -17 -60 -46q-57 -29 -80 -36l-6 162q-11 106 -2.5 247t37.5 321q-67 105 -35 296q33 190 -34 235q9 7 12 20q-26 -18 -75 -46.5t-121 -67.5q31 -234 -5 -357q16 -165 28.5 -297t22.5 -235q-41 -50 -35 -108t15 -88q0 -18 -54 -36q-52 -16 -88 -41l-26 131 q-30 320 52 562q-63 99 -74 201q-10 99 17 177q1 34 12 81q10 45 -7 70q1 30 0 54q-29 -18 -80 -41.5t-123 -52.5q21 -111 -3 -194q16 -72 16 -274t-14 -539q-39 -36 -43 -92q-8 -28 -59 -47q-53 -20 -78 -43q12 91 -10 278q0 454 55 667q15 93 -21 231q7 70 9.5 99t0.5 17 q0 19 50 48q63 16 89 34q-2 -50 18 -164q14 20 64 32q40 4 119 82q79 51 145 46q9 -2 9 -12q3 -20 -8 -71q-11 -48 3 -62q22 7 78 12q35 23 116 87q113 53 143 50q1 -6 1.5 -12.5t0.5 -13.5q-2 -83 -36 -257q-34 -172 34 -269q5 -121 13 -239.5t18 -237.5q-13 -113 -1 -190 q14 -76 0 -71z" />
<glyph unicode="N" horiz-adv-x="799" d="M715 80q-3 -15 -58 -46q-51 -33 -75 -34q-12 16 -7 70q-62 499 -3 693q-50 67 -60 240q-10 171 34 260q-73 -24 -259 -111q7 -50 3 -174q15 -182 21 -449q-96 -216 -86 -353q7 -45 -5 -94q-3 -20 -65 -46q-41 -39 -73 -31q4 10 3 319q8 126 17 263t19 287 q8 85 15.5 143.5t13.5 91.5q-39 195 -25 178q0 20 63 53q46 25 78 30q-1 -32 4 -66.5t15 -72.5q25 -9 82 5q41 13 167 63q100 73 140 56h7l-90 -628q11 -267 105 -532q10 -51 14.5 -79.5t4.5 -35.5z" />
<glyph unicode="O" horiz-adv-x="780" d="M696 84q-17 -19 -71 -52q-53 -30 -82 -35q-6 4 -7 27q-69 66 -261 94q-34 -20 -106 -28q-19 -14 -33.5 -22t-24.5 -12q4 40 12 180q22 140 26.5 258.5t-6.5 217.5q33 258 -20 385q-15 17 -29 46q-9 16 -9 33q0 16 53 60t86 20q126 59 469 79l-48 18q-78 -594 -8 -551 q-26 -412 92 -696zM519 167q-14 147 -22 294t-12 298q46 502 27 526q-53 -14 -312 -48q55 -59 63 -186q-39 -303 7 -331q3 -112 -5.5 -240t-28.5 -275q116 -48 179 -24q41 -13 104 -14z" />
<glyph unicode="P" horiz-adv-x="763" d="M732 1155q-10 -32 -15 -86.5t-4 -132.5q2 -156 -12 -257q8 -11 9 -56q1 -46 3 -67q-3 -18 -51 -42q-34 -14 -56.5 -23.5t-33.5 -14.5q-93 64 -265 89l-37 -7q2 -20 1 -72.5t-3 -137.5q2 -75 3 -128t-1 -87q-16 -26 -25 -49q-7 -20 -58 -60q-50 -39 -78 -24 q2 25 -0.5 81.5t-9.5 147.5q5 114 10 229.5t10 234.5q58 183 0 334q0 46 -18 157q-21 111 -14 99q-2 17 54 58q57 41 81 26q18 -1 29 -119q7 -7 20 -1q13 8 241 102t184 16q5 0 11 -17q7 -26 13 -74.5t12 -118.5zM579 1063q2 43 -1 100t-10 129q-125 -57 -348 -67 q17 -196 31.5 -347t26.5 -260q67 34 154 34q44 -5 76.5 -10.5t54.5 -11.5q-7 64 31 189q-16 178 -15 244z" />
<glyph unicode="Q" horiz-adv-x="780" d="M696 84q-19 -24 -70 -53t-85 -36q-4 5 -5 27q-36 36 -103 60q-11 -143 -105 -234q-8 -33 -48 -64q-41 -33 -70 -21l-7 1v2q19 35 46 82.5t62 107.5q-4 29 -3.5 65t4.5 80q-84 -1 -136 -26q-44 -11 -63 -12q-2 19 -3.5 57.5t-1.5 96.5q3 303 52 394q-20 82 -37.5 168.5 t-33.5 177.5q22 76 -12 212l8 9q0 13 61 56t78 24q75 18 176.5 50.5t230.5 80.5q14 -155 -27 -310q34 -66 41 -280q-44 -266 -2 -340q10 -106 16 -190.5t10 -147.5zM522 159q-7 295 -71 536q-41 621 59 594q-83 -45 -302 -57q45 -54 63 -182q-24 -286 -5 -333 q34 -246 -30 -516q91 -23 180 -39q50 12 106 -3z" />
<glyph unicode="R" horiz-adv-x="763" d="M734 1142q-22 -56 -22 -211q1 -155 -9 -252q2 -5 4 -19.5t3 -37.5q2 -48 3 -67q-3 -16 -48 -40q-23 -11 -44.5 -21.5t-43.5 -19.5q0 -2 -5 0q-68 76 -219 72q20 -48 52.5 -118t77.5 -165q184 -312 222 -319q-7 7 -7 5q0 -16 -62 -46q-31 -16 -48.5 -25t-22.5 -11l-7 2 q-224 181 -322 503q42 -171 1 -275q-3 -44 -54 -78q-11 -1 -27.5 -6t-36.5 -13q-11 42 -5 229q2 141 9.5 247t19.5 179q-7 45 -5.5 159t9.5 300q-39 7 -31 123q-9 9 -15.5 18t-11 15.5t-6 10.5t1.5 2q0 17 55 57q56 41 82 24q19 3 12 -145q74 54 217 108q146 54 230 23 q12 16 15 15q5 0 11 -17q6 -55 27 -206zM592 1036q-8 73 -19 136t-25 117q-78 -55 -326 -91q16 -229 27.5 -377t18.5 -217q97 50 154 41q80 -5 143 -12q-10 70 36 196q-41 132 -9 207z" />
<glyph unicode="S" horiz-adv-x="744" d="M662 357q-14 -117 -23.5 -187t-13.5 -95q-13 -23 -61 -51q-47 -27 -79 -24q-28 79 -162 97q-13 -7 -32 -11.5t-45 -8.5q-1 -23 -53 -58q-49 -33 -77 -19q-3 19 6 69q9 49 -1 59q2 19 -1.5 51.5t-17.5 66.5q0 14 60 34q25 19 45 29.5t35 14.5q12 -42 12 -128q5 -14 9 -70 q117 57 188 31q16 2 30.5 2.5t28.5 -0.5q19 68 2 150q2 52 0.5 110t-5.5 122q-34 26 -150 34q-35 2 -80 -0.5t-101 -9.5q-30 -27 -68 -43v2q0 12 2.5 41t7.5 75q2 80 5 140.5t5 103.5q9 209 -26 259q9 25 -6 84q-10 31 -14 58q3 15 66 46q32 17 48.5 25t18.5 9q25 0 53 -124 q252 158 346 133q28 -10 31 -12q-2 -5 -14 -17q-63 -39 -73 -118q9 -105 -7 -133q-17 -27 -53 -55q-19 -7 -40.5 -14t-46.5 -15q-11 185 111 260q-51 1 -120.5 -7t-160.5 -24q56 -156 34 -234q7 -77 5.5 -168t-9.5 -197q66 15 185 14q137 0 198 -26q0 -47 6 -120 q3 -37 3.5 -74.5t-1.5 -76.5z" />
<glyph unicode="T" horiz-adv-x="659" d="M701 1343q-14 -18 -42 -37q-58 -48 -122 -55q-32 -4 -66.5 -6t-72.5 -4q31 -138 3 -243q32 -165 -44 -401q-9 -233 3 -462q-2 0 -17 -58q-5 -14 -55 -46q-49 -31 -78 -34q-3 6 3 339q24 323 48 517q-5 116 -4.5 214.5t6.5 181.5q-213 -27 -285 -61q-13 18 -19 19 q4 26 60 46q27 10 51 19t44 17h2q42 3 131 15q11 4 28 12.5t41 21.5q47 32 65 29q7 -1 15 -49q71 -4 198 11q26 6 52 10t54 6z" />
<glyph unicode="U" d="M717 1362q0 10 -7 -22q-2 -32 -3 -84q-11 -62 -2 -177q-68 -290 -5 -589q-69 -184 -50 -275q10 -13 24 -65q0 -46 4 -66q-5 -23 -57 -65q-50 -24 -90 -16q-8 51 -67 64q-53 34 -102 42q-50 -8 -111 -34q-7 -4 -20 -15t-32 -31q-38 -39 -83 -26q-4 60 -5 135.5t0 168.5 q-13 306 -6 533t35 379q-58 52 -55 68q0 19 63 51q51 30 77 31q-26 -297 84 -654q-19 -118 -45.5 -262t-60.5 -318q235 68 318 44q-13 138 -9 193q6 128 -1.5 281t-29.5 335q29 90 51 169.5t38 151.5q15 -3 55 34q42 37 87 27q5 -5 5 -8z" />
<glyph unicode="V" horiz-adv-x="749" d="M707 1360q-1 -11 -3.5 -25.5t-7.5 -32.5q-17 -60 -17 -56q-20 -113 -30 -333q-88 -142 -94 -466q-83 -143 -132 -339q-15 -110 -114 -105q-23 29 -27 596q-52 118 -86 218.5t-51 187.5q-35 129 -78 212q-29 73 -24 68q0 19 63 61q63 43 75 21l5 -10q11 -34 31.5 -87.5 t50.5 -127.5q7 -90 17 -284.5t24 -499.5l155 535q29 90 55 165t49 138q-20 39 -7 98q12 15 67 45q55 31 72 28q7 -1 7 -7z" />
<glyph unicode="W" horiz-adv-x="1063" d="M978 1362q0 -5 -3.5 -13.5t-3.5 -12.5l-2 -59q-35 -518 6 -814q-60 -126 -31 -233q-23 -140 -5 -146q0 -16 -47 -48q-46 -31 -85 -36q-30 65 -59 70q-30 20 -79 19q-46 13 -82 5q-15 -31 -67 -59q-26 -14 -43 -22t-25 -10q-8 37 -61 56q-53 21 -84 49q-18 -7 -54 -7 q-1 -28 -62 -75q-51 -23 -72 -26l-8 55q1 46 0.5 114.5t-2.5 160.5q-3 182 17 230q-10 227 -13.5 399t0.5 292q-39 26 -26 34q-1 15 48 46q62 34 89 34q15 -29 27 -408q24 -165 -9 -339q2 -28 1 -127.5t-6 -273.5q146 -41 203 -22q11 111 20.5 201t17.5 162 q-28 219 -49 380.5t-35 269.5q36 53 29 75q-1 15 65 38q40 41 72 44q5 -16 1 -66q-54 -429 30 -657q3 -91 -67 -442q90 -14 151 -21.5t95 -9.5q4 60 5.5 114.5t-0.5 105.5q19 103 26.5 245t5.5 325q0 73 51 261q-27 14 -15 58q0 28 51 61q52 33 75 26q9 0 9 -3z" />
<glyph unicode="X" horiz-adv-x="729" d="M686 1360q-39 -102 -96.5 -256t-133.5 -363q12 -108 50 -244t102 -304q15 -121 12 -113q0 -17 -48 -39q-48 -23 -96 -39q-2 -2 -2 13l-11 111q-23 58 -43 161t-36 254q-71 -132 -118 -357q-29 -30 -78 -90q-10 -39 -59 -75q-46 -36 -74 -19q11 103 174 722 q-29 106 -66.5 231.5t-85.5 271.5q-17 47 -34 57q-1 15 53 37q45 35 85 46l2 -3q57 -84 107.5 -195t95.5 -254q99 148 114 246q20 52 31 140q34 16 81 39q46 22 69 27z" />
<glyph unicode="Y" horiz-adv-x="782" d="M696 1364q-4 -29 -6 -64.5t-4 -77.5q-24 -150 -19 -143q-23 -330 33 -686q-72 -167 -31 -282q-13 -31 -12 -31q0 -17 -49 -47q-48 -30 -87 -33q-6 0 -4 17q-35 62 -147 58q-62 26 -123 17q-5 -32 -61 -59q-56 -26 -72 -30q-3 24 -1.5 64.5t8.5 91.5q9 31 -5 54 q-15 35 -13 46q3 11 57 41q67 31 81 36q20 -20 17 -102q4 -55 0 -89q193 63 234 39q10 88 12.5 153.5t-2.5 111.5q-16 4 -71 34q-56 31 -105 20q-67 9 -147 -23q-43 -6 -112 -38q-2 75 3 209q4 133 17 146q-39 239 -15 352q-4 -7 -24 58q-12 45 -2 70q-3 23 46 59 q69 17 84 29q20 -28 29 -266q-2 -51 -1.5 -101.5t3.5 -101.5q5 -55 6.5 -131t-1.5 -176q45 10 106 8.5t139 -12.5q-1 4 41 2q-1 109 84 422q-47 150 -36 290q13 5 32.5 15t45.5 25q51 31 72 23v2z" />
<glyph unicode="Z" horiz-adv-x="756" d="M722 164q-37 -56 -38 -84q-8 -24 -56 -53t-80 -27q-47 143 -244 171q-23 -24 -55 -44q-34 -21 -54 -50q-8 -26 -49 -50q-43 -25 -86 -29q3 18 15 58q38 70 99.5 176t148.5 251q-131 51 -267 36q29 19 82.5 41t134.5 48q233 507 241 679q-77 -62 -277 -56q19 -47 19 -70 q-1 -14 -0.5 -25t2.5 -18q-4 -46 -6 -68q-1 -19 -63 -46q-31 -13 -50.5 -21t-27.5 -10q0 12 1.5 30.5t5.5 44.5q7 51 0 73q1 27 -14 87q-13 58 9 77q-2 18 47 46q64 35 89 34q1 -20 3 -59.5t4 -97.5q108 73 205 72l27 20q37 10 111 18q19 29 87 58v-14q-7 -79 -394 -751 q164 20 201 43q51 15 98 5q6 5 11 3q-6 -13 -29 -22q-31 -16 -54 -29t-39 -24q-8 -2 -36.5 -4t-79.5 -6q-37 -260 -181 -461q170 113 271 113q29 -2 54.5 -7t47.5 -12q-4 102 12 160q-8 14 63 34q19 25 64 41z" />
<glyph unicode="[" horiz-adv-x="730" d="M602 1362q-32 -47 -138 -87q-89 -41 -162 -60q10 -137 22 -257t28 -226q-48 -179 6 -549q17 -7 40 -13.5t54 -12.5q82 -10 130 -51q3 -23 3 -27q0 -20 -49 -60q-49 -41 -87 -22q-46 88 -130 85q-8 -13 -31 -14q-14 -16 -69 -35q-56 -20 -69 -36q0 -15 53 186 q-25 123 -40 230.5t-21 202.5q24 118 -2 423q29 65 3 169q-16 109 -15 77q0 16 55 53q56 40 82 29q10 0 42 -99q246 87 284 96z" />
<glyph unicode="\" horiz-adv-x="717" d="M674 80q-1 -18 -58 -49q-28 -14 -48.5 -23t-33.5 -11q-10 3 -12 23v14t-1 15l-6 13t-17 39q-14 39 -32 87.5t-39 108.5q-29 119 -91.5 272.5t-159.5 345.5q-35 145 -111 319q-8 18 -14 30.5t-8 20.5q0 21 52 57q52 37 88 20q16 -74 47 -144t77 -139q23 -109 75 -294.5 t132 -448.5q63 5 181 -230q-24 -12 -21 -26z" />
<glyph unicode="]" horiz-adv-x="713" d="M585 1364q-12 -15 -30 -28q-40 -129 -9 -520q-8 -153 -1 -284.5t30 -243.5q46 -223 -31 -206q1 -15 -65 -40q-65 -25 -73 -42q-35 72 -111 87q-39 -3 -82.5 -9t-82.5 -23l-2 5q37 32 116 92q80 20 152 5q-40 331 -3 526q-76 534 18 571q-64 17 -160 -59q-89 -11 -94 -19 q-1 0 -7 2q12 34 181 122q195 89 246 70q4 -2 5.5 -3.5z" />
<glyph unicode="^" horiz-adv-x="828" d="M700 746q-2 -17 -58 -49q-54 -31 -81 -37l-1 6q-10 11 -34 220q-61 146 -89.5 210.5t-23.5 50.5l-135 -242q21 -77 -10 -168q-5 -4 -20.5 -13.5t-41.5 -25.5q-51 -31 -73 -20q-5 -5 -5 -2q0 2 9 22q5 13 16 38t28 63q28 130 138 396q-7 10 34 75q16 36 77 58q62 23 62 41 q10 -44 51 -198q20 -46 58.5 -121.5t96.5 -182.5q-9 -123 2 -121z" />
<glyph unicode="_" horiz-adv-x="768" d="M777 -15l-867 -17l92 119l720 -121z" />
<glyph unicode="`" horiz-adv-x="544" d="M416 1531q-3 -15 -59 -47q-57 -32 -75 -35q-4 1 -36 70q-12 42 -43 109t-82 162l7 -24q-2 23 53 42q28 10 48.5 19.5t33.5 17.5q16 0 101 -121q54 -190 52 -193z" />
<glyph unicode="a" d="M719 79q-4 -16 -61 -47q-28 -15 -48 -23.5t-31 -10.5q-6 1 -6 7q0 4 2 9t2 8q0 -3 -33 138q2 57 10.5 153.5t24.5 234.5q-131 -63 -292 -108q-17 -100 -26.5 -198.5t-11.5 -198.5q-34 6 -89 -9q-52 -13 -76 -32q12 34 12 309q78 420 23 614q21 66 14 188q24 141 -7 174 q0 15 57 36q52 36 88 42q0 -123 11 -148q15 4 40.5 9t61.5 13q34 10 159 87q70 46 138 46q3 -26 2 -37q1 28 3 -180q1 -208 -15 -334q4 -259 17 -419.5t36 -227.5q-14 -85 -5 -95zM543 1282q-87 -32 -249 -142q-18 -41 -2 -143q24 -259 -46 -514q34 -12 46 -12q52 5 215 120 q37 58 22 133q4 38 5 90t0 119t-1.5 138t-0.5 146q1 38 11 65z" />
<glyph unicode="b" horiz-adv-x="848" d="M773 594q-16 -33 -32 -331q-6 -42 -10.5 -87t-8.5 -94q-8 -10 -23 -22.5t-36 -29.5q-42 -32 -86 -27q4 -2 -20 6t-76 25q-54 7 -95.5 9t-73.5 -2q-83 14 -170 -27q-16 -1 -55 -14l-2 3q0 6 3.5 15t3.5 13l9 182q-5 294 36 596q-41 152 -33 212q-38 330 -10 261 q-4 21 49 44q59 25 86 39q25 -92 12 -150q21 11 51 25t70 33q60 11 223 82q36 1 86 17q1 -18 -5 -45.5t-17 -65.5q-50 -104 -38 -206q4 -55 9 -113t13 -119q26 -32 65 -24t50 -9q2 -31 8 -79.5t17 -116.5zM532 1302q-90 -86 -324 -111q28 -94 44 -182t21 -173 q-17 -36 -48 -220q180 74 265 155q-31 115 -7 183q-38 209 49 348zM620 551q3 20 -5 65q-7 43 -1 51q1 22 0 26q-3 10 -14 17t-33 5q-12 2 -65 -10q-73 -32 -132 -43q-66 -35 -105 -70q-4 -48 -2 -127t10 -192q-26 -39 -48 -174q90 37 244 38q55 3 123 -9q46 398 28 423z " />
<glyph unicode="c" horiz-adv-x="763" d="M681 181q-12 -72 -21 -102q-10 -25 -58 -54q-46 -27 -81 -25q-41 77 -175 96q-15 -6 -45.5 -13t-76.5 -15q-71 -65 -113 -75q-5 12 -5 14q0 -7 3 13q1 5 12.5 47.5t33.5 123.5q-43 394 -36 533q11 152 0 295q9 75 -29 213q4 13 -8 58q4 9 55 51q52 13 81 21 q23 -9 47 -106q120 73 387 142l12 -36q0 -2 -14 -14q-38 -31 -61 -80q4 -19 3 -101q-10 -41 -24 -73q-12 -26 -65 -44q-26 -26 -73 -33q-27 150 68 287q-35 -12 -94 -39t-143 -70q-48 -257 15 -432q14 -158 1.5 -314t-50.5 -314q162 24 275 15q13 14 32 10q2 24 -34 116 q-2 69 0 110q-2 25 48 63q32 10 54 17t36 12q2 -5 8.5 -27.5t17.5 -63.5q-14 -17 0 -97q5 -32 9 -59t8 -50z" />
<glyph unicode="d" horiz-adv-x="807" d="M756 935q-48 -62 -44 -286q2 -112 -1 -204t-13 -165q9 -16 12 -91q2 -37 3 -63t2 -42q-5 -17 -50 -40q-42 -22 -92 -42q-11 13 -26 29.5t-35 36.5q-41 63 -218 51l-38 16l-3 -22q3 -26 -4 -33q-10 -19 -64 -40q-55 -22 -74 -43q-5 7 -5 10q0 -9 3 12q2 7 13.5 53 t32.5 133q-26 171 -40.5 310.5t-18.5 250.5q7 149 8 260.5t-3 186.5q-4 72 -16 69q0 20 57 58q62 24 83 27q31 -43 4 -186q169 63 411 147q43 37 63 37q10 -29 23 -136t30 -294zM577 928q2 75 1.5 165t-5.5 197q-17 -20 -372 -107q59 -281 75 -451q-15 -39 -3 -457 q62 -62 131 -60q82 -3 169 -32q-7 72 -16 171t-22 228q-25 256 42 346z" />
<glyph unicode="e" horiz-adv-x="763" d="M678 186q-9 -77 -18 -109q-11 -23 -59 -51q-46 -28 -77 -26q-40 78 -176 97q-28 -16 -124 -29q-69 -66 -113 -77q14 86 12 224q51 348 15 432q4 38 14 128.5t27 234.5q-63 115 -82 221q-2 16 -13 51q2 19 53 56q27 7 47 15t34 16q28 -22 23 -103q78 22 159.5 37t169.5 25 q47 35 65 37h29q-2 -5 -14 -17q-48 -40 -53 -83q-13 -48 -3 -94q-8 -48 -29 -79q-9 -23 -58 -51q-12 -4 -30.5 -13.5t-44.5 -23.5q12 214 73 266q-44 5 -108 -0.5t-150 -21.5q40 -354 -11 -494q51 -20 86 -26t45 -6q16 0 46 -1t75 -3q89 -3 106 24q-7 -10 -16.5 -22.5 t-22.5 -26.5q-59 -26 -96 -36q-64 -24 -203 -2q-35 -233 -12 -525q167 51 230 42q19 -5 34 -9t26 -8q0 25 -24 120q2 32 0 62t-7 59q0 18 70 55q71 39 69 25q0 -10 17 -83q12 -186 19 -207z" />
<glyph unicode="f" horiz-adv-x="705" d="M664 1362q-5 -3 -15 -15q-44 -53 -51 -80q-4 -14 -5.5 -36t-2.5 -52q-2 -60 -13 -87q-12 -26 -65 -43q-54 -15 -77 -34q-27 197 74 268q-75 -31 -227 -59q-1 -180 2 -300.5t11 -184.5q66 4 156.5 -4t207.5 -27l-28 38q-11 -17 -66 -42t-67 -42q-49 4 -103.5 6t-116.5 4 q-83 -514 -67 -573q16 -60 -33 -70q-48 -11 -67 -32q2 61 1 113.5t-3 97.5q5 37 7 91t0 126q-3 143 27 230q-17 76 -35 453q7 15 3 117q-28 74 -26 60q-1 21 67 62q48 15 68 18q24 -31 33 -112q182 114 382 75q10 34 29 34z" />
<glyph unicode="g" horiz-adv-x="800" d="M737 457q-36 19 -58 6q2 -66 5.5 -114t8.5 -79q-2 -145 -24 -185q-22 -18 -58.5 -41.5t-84.5 -41.5q-1 1 -7.5 7t-18.5 18q-35 62 -145 53q-37 12 -118 -13q-66 -79 -119 -76q-10 19 -10 24q0 -16 3 64q10 57 -2 162q-3 237 12 428q24 53 -7 207q-17 138 2 187 q0 55 9 159q-24 21 -40 68q8 20 61 48q56 29 78 29q23 -33 13 -106q300 157 418 101q2 4 7 -3q-1 -2 -13 -14q-58 -75 -53 -142q-10 -23 -5 -34q3 -97 -101 -121q-16 -14 -30 -24t-28 -17q-17 189 71 275q-57 -32 -257 -46q-14 -260 42 -528q-66 -264 -46 -582 q171 17 232 53q39 -5 76 -15v39q-8 41 3 112q11 72 -24 113q-22 11 -63 27.5t-104 37.5q12 8 30 21t41 30q46 36 67 31q17 0 237 -118z" />
<glyph unicode="h" horiz-adv-x="806" d="M720 80q-1 -18 -57 -47q-57 -29 -83 -36l-8 160q-23 139 12 384q-70 -12 -141 -34.5t-146 -54.5q-70 -180 -85 -379q0 -15 -10 -27.5t-27.5 -22.5t-40.5 -16t-49 -9q8 26 19.5 103t26.5 208q72 312 62 567q-26 118 -40 192t-16 106q-8 87 -6 111q0 21 53 56q51 9 82 29 q60 -233 5 -368q-12 -278 -24 -570q34 48 45 48q52 2 242 126q-27 755 14 677q48 76 148 94l-3 -15q-2 -17 -3.5 -60t-0.5 -114q-13 -61 -18 -178q-4 -113 8 -201q-6 -115 -2 -247t18 -284q6 -7 -2 -143q8 -19 15 -33t12 -22z" />
<glyph unicode="i" horiz-adv-x="340" d="M282 788q-38 -47 -29 -343q-37 -398 -24 -358q-8 -13 -21 -27t-32 -28q-36 -29 -87 -27q-4 0 -4 4q0 -6 1.5 -1.5t3.5 19.5q5 23 18 226q25 185 29 309t-12 191q12 126 15 319q-40 76 -50 155q-1 22 -1 37v23q0 19 53 54q52 9 83 29q75 -293 57 -582z" />
<glyph unicode="j" horiz-adv-x="730" d="M666 1065q-36 -105 -29 -365q8 -260 -12 -427q9 -17 10 -88q2 -36 3 -62t2 -43q-4 -13 -53 -36q-24 -11 -48 -21.5t-47 -20.5q-136 164 -267 145q-15 24 -30 20l3 -27q-3 -46 -7 -60q-4 -24 -65 -39q-23 -14 -41 -26t-32 -20q0 22 3 72q-5 36 -1 49q-4 53 8 134 q12 79 -24 151q1 9 60 32q58 40 87 43q1 -43 0 -239q99 36 169 24q66 4 143 -29q-25 105 29 374q-11 176 -39 293q12 181 12 263q-17 135 -12 123q0 17 48 37q25 11 47 22t42 23q19 -57 41 -302z" />
<glyph unicode="k" horiz-adv-x="777" d="M765 -48q-67 0 -166 -24q-15 13 -55 154q-103 285 -233 461q-57 -187 -23 -429q-95 -92 -187 -116q8 34 19 91.5t25 140.5q-14 156 3 345q-17 69 1 215q18 145 -14 295q-23 112 -33 142q-17 54 -17 58q0 21 52 55q49 7 81 30q41 -35 18 -221q8 -69 13 -159t7 -202 q146 306 196 357q116 227 244 234q1 -19 -13 -32q-80 -64 -214 -345q-75 -109 -85 -164q-46 -89 -87 -118q151 -101 276 -336q52 -90 192 -432z" />
<glyph unicode="l" horiz-adv-x="766" d="M730 239q-11 -72 -17.5 -111.5t-7.5 -49.5q-1 -18 -53 -54q-51 -36 -73 -24q-13 19 -35 58q-99 132 -256 178l-39 -84q2 -53 -3 -76t-47 -46q-43 -23 -90 -32q91 578 29 647q2 57 45 355q-69 122 -87 232q-5 23 -8 35.5t-3 14.5q0 20 47 56t85 24q28 -13 78 -256 q-58 -271 -30 -374q-3 -100 -9 -209.5t-14 -232.5q239 14 330 -61l8 150q2 1 18 10.5t46 26.5q62 35 73 28q1 0 5 -2q15 -101 8 -203z" />
<glyph unicode="m" horiz-adv-x="1058" d="M975 79q-4 -17 -60 -46q-57 -29 -80 -36l-6 162q-11 106 -2.5 247t37.5 321q-67 105 -35 296q33 190 -34 235q9 7 12 20q-26 -18 -75 -46.5t-121 -67.5q31 -234 -5 -357q16 -165 28.5 -297t22.5 -235q-41 -50 -35 -108t15 -88q0 -18 -54 -36q-52 -16 -88 -41l-26 131 q-30 320 52 562q-63 99 -74 201q-10 99 17 177q1 34 12 81q10 45 -7 70q1 30 0 54q-29 -18 -80 -41.5t-123 -52.5q21 -111 -3 -194q16 -72 16 -274t-14 -539q-39 -36 -43 -92q-8 -28 -59 -47q-53 -20 -78 -43q12 91 -10 278q0 454 55 667q15 93 -21 231q7 70 9.5 99t0.5 17 q0 19 50 48q63 16 89 34q-2 -50 18 -164q14 20 64 32q40 4 119 82q79 51 145 46q9 -2 9 -12q3 -20 -8 -71q-11 -48 3 -62q22 7 78 12q35 23 116 87q113 53 143 50q1 -6 1.5 -12.5t0.5 -13.5q-2 -83 -36 -257q-34 -172 34 -269q5 -121 13 -239.5t18 -237.5q-13 -113 -1 -190 q14 -76 0 -71z" />
<glyph unicode="n" horiz-adv-x="799" d="M715 80q-3 -15 -58 -46q-51 -33 -75 -34q-12 16 -7 70q-62 499 -3 693q-50 67 -60 240q-10 171 34 260q-73 -24 -259 -111q7 -50 3 -174q15 -182 21 -449q-96 -216 -86 -353q7 -45 -5 -94q-3 -20 -65 -46q-41 -39 -73 -31q4 10 3 319q8 126 17 263t19 287 q8 85 15.5 143.5t13.5 91.5q-39 195 -25 178q0 20 63 53q46 25 78 30q-1 -32 4 -66.5t15 -72.5q25 -9 82 5q41 13 167 63q100 73 140 56h7l-90 -628q11 -267 105 -532q10 -51 14.5 -79.5t4.5 -35.5z" />
<glyph unicode="o" horiz-adv-x="780" d="M696 84q-17 -19 -71 -52q-53 -30 -82 -35q-6 4 -7 27q-69 66 -261 94q-34 -20 -106 -28q-19 -14 -33.5 -22t-24.5 -12q4 40 12 180q22 140 26.5 258.5t-6.5 217.5q33 258 -20 385q-15 17 -29 46q-9 16 -9 33q0 16 53 60t86 20q126 59 469 79l-48 18q-78 -594 -8 -551 q-26 -412 92 -696zM519 167q-14 147 -22 294t-12 298q46 502 27 526q-53 -14 -312 -48q55 -59 63 -186q-39 -303 7 -331q3 -112 -5.5 -240t-28.5 -275q116 -48 179 -24q41 -13 104 -14z" />
<glyph unicode="p" horiz-adv-x="763" d="M732 1155q-10 -32 -15 -86.5t-4 -132.5q2 -156 -12 -257q8 -11 9 -56q1 -46 3 -67q-3 -18 -51 -42q-34 -14 -56.5 -23.5t-33.5 -14.5q-93 64 -265 89l-37 -7q2 -20 1 -72.5t-3 -137.5q2 -75 3 -128t-1 -87q-16 -26 -25 -49q-7 -20 -58 -60q-50 -39 -78 -24 q2 25 -0.5 81.5t-9.5 147.5q5 114 10 229.5t10 234.5q58 183 0 334q0 46 -18 157q-21 111 -14 99q-2 17 54 58q57 41 81 26q18 -1 29 -119q7 -7 20 -1q13 8 241 102t184 16q5 0 11 -17q7 -26 13 -74.5t12 -118.5zM579 1063q2 43 -1 100t-10 129q-125 -57 -348 -67 q17 -196 31.5 -347t26.5 -260q67 34 154 34q44 -5 76.5 -10.5t54.5 -11.5q-7 64 31 189q-16 178 -15 244z" />
<glyph unicode="q" horiz-adv-x="780" d="M696 84q-19 -24 -70 -53t-85 -36q-4 5 -5 27q-36 36 -103 60q-11 -143 -105 -234q-8 -33 -48 -64q-41 -33 -70 -21l-7 1v2q19 35 46 82.5t62 107.5q-4 29 -3.5 65t4.5 80q-84 -1 -136 -26q-44 -11 -63 -12q-2 19 -3.5 57.5t-1.5 96.5q3 303 52 394q-20 82 -37.5 168.5 t-33.5 177.5q22 76 -12 212l8 9q0 13 61 56t78 24q75 18 176.5 50.5t230.5 80.5q14 -155 -27 -310q34 -66 41 -280q-44 -266 -2 -340q10 -106 16 -190.5t10 -147.5zM522 159q-7 295 -71 536q-41 621 59 594q-83 -45 -302 -57q45 -54 63 -182q-24 -286 -5 -333 q34 -246 -30 -516q91 -23 180 -39q50 12 106 -3z" />
<glyph unicode="r" horiz-adv-x="763" d="M734 1142q-22 -56 -22 -211q1 -155 -9 -252q2 -5 4 -19.5t3 -37.5q2 -48 3 -67q-3 -16 -48 -40q-23 -11 -44.5 -21.5t-43.5 -19.5q0 -2 -5 0q-68 76 -219 72q20 -48 52.5 -118t77.5 -165q184 -312 222 -319q-7 7 -7 5q0 -16 -62 -46q-31 -16 -48.5 -25t-22.5 -11l-7 2 q-224 181 -322 503q42 -171 1 -275q-3 -44 -54 -78q-11 -1 -27.5 -6t-36.5 -13q-11 42 -5 229q2 141 9.5 247t19.5 179q-7 45 -5.5 159t9.5 300q-39 7 -31 123q-9 9 -15.5 18t-11 15.5t-6 10.5t1.5 2q0 17 55 57q56 41 82 24q19 3 12 -145q74 54 217 108q146 54 230 23 q12 16 15 15q5 0 11 -17q6 -55 27 -206zM592 1036q-8 73 -19 136t-25 117q-78 -55 -326 -91q16 -229 27.5 -377t18.5 -217q97 50 154 41q80 -5 143 -12q-10 70 36 196q-41 132 -9 207z" />
<glyph unicode="s" horiz-adv-x="744" d="M662 357q-14 -117 -23.5 -187t-13.5 -95q-13 -23 -61 -51q-47 -27 -79 -24q-28 79 -162 97q-13 -7 -32 -11.5t-45 -8.5q-1 -23 -53 -58q-49 -33 -77 -19q-3 19 6 69q9 49 -1 59q2 19 -1.5 51.5t-17.5 66.5q0 14 60 34q25 19 45 29.5t35 14.5q12 -42 12 -128q5 -14 9 -70 q117 57 188 31q16 2 30.5 2.5t28.5 -0.5q19 68 2 150q2 52 0.5 110t-5.5 122q-34 26 -150 34q-35 2 -80 -0.5t-101 -9.5q-30 -27 -68 -43v2q0 12 2.5 41t7.5 75q2 80 5 140.5t5 103.5q9 209 -26 259q9 25 -6 84q-10 31 -14 58q3 15 66 46q32 17 48.5 25t18.5 9q25 0 53 -124 q252 158 346 133q28 -10 31 -12q-2 -5 -14 -17q-63 -39 -73 -118q9 -105 -7 -133q-17 -27 -53 -55q-19 -7 -40.5 -14t-46.5 -15q-11 185 111 260q-51 1 -120.5 -7t-160.5 -24q56 -156 34 -234q7 -77 5.5 -168t-9.5 -197q66 15 185 14q137 0 198 -26q0 -47 6 -120 q3 -37 3.5 -74.5t-1.5 -76.5z" />
<glyph unicode="t" horiz-adv-x="659" d="M701 1343q-14 -18 -42 -37q-58 -48 -122 -55q-32 -4 -66.5 -6t-72.5 -4q31 -138 3 -243q32 -165 -44 -401q-9 -233 3 -462q-2 0 -17 -58q-5 -14 -55 -46q-49 -31 -78 -34q-3 6 3 339q24 323 48 517q-5 116 -4.5 214.5t6.5 181.5q-213 -27 -285 -61q-13 18 -19 19 q4 26 60 46q27 10 51 19t44 17h2q42 3 131 15q11 4 28 12.5t41 21.5q47 32 65 29q7 -1 15 -49q71 -4 198 11q26 6 52 10t54 6z" />
<glyph unicode="u" d="M717 1362q0 10 -7 -22q-2 -32 -3 -84q-11 -62 -2 -177q-68 -290 -5 -589q-69 -184 -50 -275q10 -13 24 -65q0 -46 4 -66q-5 -23 -57 -65q-50 -24 -90 -16q-8 51 -67 64q-53 34 -102 42q-50 -8 -111 -34q-7 -4 -20 -15t-32 -31q-38 -39 -83 -26q-4 60 -5 135.5t0 168.5 q-13 306 -6 533t35 379q-58 52 -55 68q0 19 63 51q51 30 77 31q-26 -297 84 -654q-19 -118 -45.5 -262t-60.5 -318q235 68 318 44q-13 138 -9 193q6 128 -1.5 281t-29.5 335q29 90 51 169.5t38 151.5q15 -3 55 34q42 37 87 27q5 -5 5 -8z" />
<glyph unicode="v" horiz-adv-x="749" d="M707 1360q-1 -11 -3.5 -25.5t-7.5 -32.5q-17 -60 -17 -56q-20 -113 -30 -333q-88 -142 -94 -466q-83 -143 -132 -339q-15 -110 -114 -105q-23 29 -27 596q-52 118 -86 218.5t-51 187.5q-35 129 -78 212q-29 73 -24 68q0 19 63 61q63 43 75 21l5 -10q11 -34 31.5 -87.5 t50.5 -127.5q7 -90 17 -284.5t24 -499.5l155 535q29 90 55 165t49 138q-20 39 -7 98q12 15 67 45q55 31 72 28q7 -1 7 -7z" />
<glyph unicode="w" horiz-adv-x="1063" d="M978 1362q0 -5 -3.5 -13.5t-3.5 -12.5l-2 -59q-35 -518 6 -814q-60 -126 -31 -233q-23 -140 -5 -146q0 -16 -47 -48q-46 -31 -85 -36q-30 65 -59 70q-30 20 -79 19q-46 13 -82 5q-15 -31 -67 -59q-26 -14 -43 -22t-25 -10q-8 37 -61 56q-53 21 -84 49q-18 -7 -54 -7 q-1 -28 -62 -75q-51 -23 -72 -26l-8 55q1 46 0.5 114.5t-2.5 160.5q-3 182 17 230q-10 227 -13.5 399t0.5 292q-39 26 -26 34q-1 15 48 46q62 34 89 34q15 -29 27 -408q24 -165 -9 -339q2 -28 1 -127.5t-6 -273.5q146 -41 203 -22q11 111 20.5 201t17.5 162 q-28 219 -49 380.5t-35 269.5q36 53 29 75q-1 15 65 38q40 41 72 44q5 -16 1 -66q-54 -429 30 -657q3 -91 -67 -442q90 -14 151 -21.5t95 -9.5q4 60 5.5 114.5t-0.5 105.5q19 103 26.5 245t5.5 325q0 73 51 261q-27 14 -15 58q0 28 51 61q52 33 75 26q9 0 9 -3z" />
<glyph unicode="x" horiz-adv-x="729" d="M686 1360q-39 -102 -96.5 -256t-133.5 -363q12 -108 50 -244t102 -304q15 -121 12 -113q0 -17 -48 -39q-48 -23 -96 -39q-2 -2 -2 13l-11 111q-23 58 -43 161t-36 254q-71 -132 -118 -357q-29 -30 -78 -90q-10 -39 -59 -75q-46 -36 -74 -19q11 103 174 722 q-29 106 -66.5 231.5t-85.5 271.5q-17 47 -34 57q-1 15 53 37q45 35 85 46l2 -3q57 -84 107.5 -195t95.5 -254q99 148 114 246q20 52 31 140q34 16 81 39q46 22 69 27z" />
<glyph unicode="y" horiz-adv-x="782" d="M696 1364q-4 -29 -6 -64.5t-4 -77.5q-24 -150 -19 -143q-23 -330 33 -686q-72 -167 -31 -282q-13 -31 -12 -31q0 -17 -49 -47q-48 -30 -87 -33q-6 0 -4 17q-35 62 -147 58q-62 26 -123 17q-5 -32 -61 -59q-56 -26 -72 -30q-3 24 -1.5 64.5t8.5 91.5q9 31 -5 54 q-15 35 -13 46q3 11 57 41q67 31 81 36q20 -20 17 -102q4 -55 0 -89q193 63 234 39q10 88 12.5 153.5t-2.5 111.5q-16 4 -71 34q-56 31 -105 20q-67 9 -147 -23q-43 -6 -112 -38q-2 75 3 209q4 133 17 146q-39 239 -15 352q-4 -7 -24 58q-12 45 -2 70q-3 23 46 59 q69 17 84 29q20 -28 29 -266q-2 -51 -1.5 -101.5t3.5 -101.5q5 -55 6.5 -131t-1.5 -176q45 10 106 8.5t139 -12.5q-1 4 41 2q-1 109 84 422q-47 150 -36 290q13 5 32.5 15t45.5 25q51 31 72 23v2z" />
<glyph unicode="z" horiz-adv-x="756" d="M722 164q-37 -56 -38 -84q-8 -24 -56 -53t-80 -27q-47 143 -244 171q-23 -24 -55 -44q-34 -21 -54 -50q-8 -26 -49 -50q-43 -25 -86 -29q3 18 15 58q38 70 99.5 176t148.5 251q-131 51 -267 36q29 19 82.5 41t134.5 48q233 507 241 679q-77 -62 -277 -56q19 -47 19 -70 q-1 -14 -0.5 -25t2.5 -18q-4 -46 -6 -68q-1 -19 -63 -46q-31 -13 -50.5 -21t-27.5 -10q0 12 1.5 30.5t5.5 44.5q7 51 0 73q1 27 -14 87q-13 58 9 77q-2 18 47 46q64 35 89 34q1 -20 3 -59.5t4 -97.5q108 73 205 72l27 20q37 10 111 18q19 29 87 58v-14q-7 -79 -394 -751 q164 20 201 43q51 15 98 5q6 5 11 3q-6 -13 -29 -22q-31 -16 -54 -29t-39 -24q-8 -2 -36.5 -4t-79.5 -6q-37 -260 -181 -461q170 113 271 113q29 -2 54.5 -7t47.5 -12q-4 102 12 160q-8 14 63 34q19 25 64 41z" />
<glyph unicode="{" horiz-adv-x="794" d="M678 63q-19 0 -74 -31t-78 -35q-108 0 -185 59q-62 62 -85 195q7 22 18.5 53t27.5 73q32 82 53 109q3 26 -10 57q-38 45 -90.5 65t-124.5 10q8 18 68 41q60 24 56 46q15 0 47 -9q32 -8 47 0q11 1 19.5 2t16.5 2q7 14 7 29q13 65 -97 203q-109 138 -87 148q0 86 129 190 q162 96 229 100q45 -2 66 -10l2 -5q-8 -15 -54 -39q-48 -25 -76 -41q-5 -1 -13 0.5t-17.5 3.5t-18.5 4t-15 2q-12 0 -35 -5q-54 -49 -51 -130q1 -35 66 -174q65 -141 96 -160q10 -74 -90 -159q55 -7 70 -80q3 -60 -53 -137q-55 -76 -48 -136q22 -125 84 -156q62 -58 200 -85 z" />
<glyph unicode="|" horiz-adv-x="425" d="M324 788q-37 -45 -29 -343q-37 -398 -24 -358q-16 -28 -52 -55q-36 -28 -88 -27q-3 0 -3 4q0 -6 1.5 -1.5t3.5 19.5q2 11 6 67t11 159q50 368 17 500q6 63 10 142.5t6 176.5q-20 38 -32.5 76.5t-17.5 78.5q-1 22 -1.5 37t-0.5 23q0 19 53 54q51 9 84 29q75 -294 56 -582z " />
<glyph unicode="}" horiz-adv-x="792" d="M664 742q-9 -15 -59 -47q-25 -16 -42 -24.5t-27 -10.5q-15 2 -46 3q-32 1 -45 3q-23 3 -39 0q-2 -6 -3 -14t-2 -19q3 -84 114 -187t65 -173q12 -79 -128 -189q-113 -113 -215 -101q-32 12 -51 19.5t-27 11.5q4 12 52 47q47 35 74 33q10 -1 36 -11q25 -8 39 1q21 -2 27 1 q42 51 50 106q0 57 -62 176q-31 60 -59.5 108t-56.5 86q4 79 111 147q-68 20 -75 94q4 48 32 137q28 88 69 129q0 97 -101 156q-59 65 -165 53q3 24 59 44q55 19 79 46q96 -17 171 -48q88 -61 97 -201q-7 -18 -21 -43.5t-34 -59.5q-41 -66 -42 -139q-6 -29 10 -55 q41 -50 99 -50q25 -6 54 -15t64 -20z" />
<glyph unicode="~" horiz-adv-x="1077" d="M949 1201q-16 -157 -135 -256q-128 -116 -203 -95q-71 0 -94 68q-37 73 -49 137q-52 66 -116 58q-19 -31 -33.5 -64.5t-24.5 -70.5q-18 -16 -24 -41q-11 -21 -56 -62q-44 -40 -79 -20q-7 1 -7 7q0 5 10 41q68 171 166 242q57 14 102.5 29.5t81.5 32.5q88 -20 101 -69 q22 -75 48 -141q30 -59 114 -60q14 32 26.5 69.5t22.5 82.5q4 4 12 32q4 18 63 59t67 25z" />
<glyph unicode="&#xa1;" horiz-adv-x="515" d="M387 1143q0 -11 -58 -45q-60 -35 -75 -38q-22 1 -124 51q8 20 56 61q50 44 73 24q13 0 64 -25q26 -12 42 -19t22 -9zM319 927q0 4 -1.5 -0.5t-3.5 -18.5q-1 -5 -2 -48t-3 -124q11 -273 12 -436q-45 -112 -29 -242q10 -81 15.5 -117t6.5 -28q0 -15 -63 -39 q-64 -24 -74 -46q-11 21 11 182q-53 187 -50 232q2 31 3.5 109t0.5 204q76 284 34 295q11 26 59 59q50 36 81 23q3 0 3 -5z" />
<glyph unicode="&#xa2;" horiz-adv-x="838" d="M710 1195q-32 -53 -27 -58q-14 -38 -12 -66q3 -27 -9 -85q-3 -15 -61 -36q-55 -19 -70 -37q-7 -1 -7 5q0 -4 10 26q-1 21 1 44.5t6.5 47t12 45t18.5 39.5q-31 -11 -76 -25.5t-105 -34.5q-40 20 -94 13q15 -165 12 -215q14 -105 -43 -319q127 -19 280 24q17 -20 9 17 q-7 35 -4 45q1 14 55 45q53 31 85 40l4 -2q6 -28 1 -141q7 -58 3 -76q-5 -18 -51 -40q-23 -11 -44 -21.5t-39 -18.5q0 -1 -7 0q-41 27 -73 38l1 -46q-1 -46 -6 -82q-7 -15 -70 -56q-64 -40 -70 -21h3q0 14 -2 39t-6 63q16 61 18 87l-3 18q-56 -5 -111 -21q-29 -6 -51 -10.5 t-38 -8.5h4q0 4 6 111q14 125 6 260q-20 146 -30 229.5t-10 106.5q5 16 51 59q47 45 88 24q19 -2 29 -87q11 4 27 7t37 7q-5 21 -6 51q8 34 5 46q1 11 -0.5 21.5t-3.5 19.5q-3 33 -3 21q0 16 60 57q61 40 76 23q2 -2 0 -14q0 -17 6 -47q6 -27 1 -48q0 -17 -2 -38.5t-6 -47.5 q199 31 232 28z" />
<glyph unicode="&#xa3;" horiz-adv-x="949" d="M828 236q-11 -57 -19 -96t-15 -61q-10 -22 -58 -51q-46 -28 -76 -28q-47 53 -76 65q-28 19 -110 22q-23 -4 -48 -10t-51 -16q-8 -4 -23.5 -13.5t-39.5 -23.5q-48 -29 -68 -22q-2 5 36 170q36 266 -26 506q5 -25 7 -7t0 80q-54 13 -86.5 22.5t-43.5 14.5h-3q4 15 53 59 q48 43 82 18q-6 38 -13.5 82.5t-17.5 98.5q12 58 -5 169q2 74 -10 67q0 15 54 57q56 42 79 26q20 0 43 -99q216 135 418 123q-13 -24 -31 -39q-31 -25 -34 -63q-2 -6 -2 -82q2 -16 -7 -36q-7 -15 -64 -36q-54 -19 -74 -44q0 7 0.5 18t1.5 26q2 24 0 38q-12 73 59 109 q-125 -4 -296 -53q54 -276 18 -367q37 -2 83 -5.5t102 -8.5q111 -11 167 36q9 -7 12 -8q-10 -15 -51 -34q-34 -42 -87 -50q-34 0 -87 -2.5t-128 -7.5q43 -293 -9 -621q153 24 246 13q27 -4 54 -17q-3 124 -13 123q-2 17 66 50q56 39 75 32q5 -17 9.5 -48t6.5 -76z" />
<glyph unicode="&#xa4;" horiz-adv-x="847" d="M722 273q-5 -12 -62 -44q-58 -40 -76 -34q-11 13 0 153q-136 73 -261 77q-29 -50 -38 -106q0 -20 -45 -48q-44 -26 -90 -34q5 43 9.5 100.5t9.5 130.5q13 64 18 119.5t1 103.5q-11 82 -21 144t-19 104q-23 106 -20 109q0 15 49 54q50 41 82 24q28 6 77 -211q39 47 190 51 l15 106q8 37 79 68q39 31 66 36q-1 -29 0 -74.5t4 -108.5q6 -125 -12 -198q11 -97 9 -182t-16 -159q27 -27 39 -96q1 -49 12 -85zM544 481q-3 103 -6 179l1 91l-5.5 38.5t-16.5 116.5q-31 19 -217 7q16 -107 -1 -167q8 -50 13 -116.5t7 -151.5q23 4 46.5 6t47.5 1 q44 -5 76.5 -6.5t54.5 2.5z" />
<glyph unicode="&#xa5;" horiz-adv-x="908" d="M782 1362q-2 2 -26 -159q-50 -239 -27 -372q-9 -88 8 -145q-1 -66 2 -75q-1 -13 -64 -48q-61 -34 -71 -36q-19 48 -109 52q3 -36 -3 -140q306 -34 245 15v2q-8 -15 -44 -46q-29 -14 -53 -21t-44 -8q-58 -6 -111 -23q0 -41 27 -131q151 44 203 17l5 2q-8 -17 -36 -39 q-59 -33 -87 -36q-23 0 -44 -1.5t-41 -3.5q14 -78 15 -89q-2 -14 -52 -33q-48 -18 -84 -44q-24 44 -36 157q-18 -10 -61 -5q-131 -31 -163 8h-3q1 16 54 60q52 43 74 19q17 3 49 2q34 0 48 -11q-5 35 -8 66.5t-5 60.5q-40 -12 -58 -4q-60 5 -92 7.5t-36 3.5q0 19 52 50 q54 34 74 35q12 3 33.5 0.5t38.5 -9.5q0 41 -6 82q19 48 19 62q-22 -1 -45.5 -3t-49.5 -4q-26 -24 -87 -36q-5 52 21 168q25 115 -6 146q24 140 -12 302q-14 4 -36 63q5 43 2 70q1 16 62 57q61 40 81 15q0 2 0 -1q0 -2 -1 -8l11 -73q31 -154 21 -305q7 -40 15.5 -115.5 t18.5 -188.5q67 10 201 3q8 28 14 48t10 34q-12 174 40 396q-2 31 1.5 64t11.5 69q7 21 68 49q60 28 76 28z" />
<glyph unicode="&#xa6;" horiz-adv-x="411" d="M300 1157q-22 -23 -20 -128q2 -52 1 -94.5t-5 -74.5q4 -18 -1 -37q-5 -17 -48 -48q-44 -32 -89 -27q-1 3 -3 23q-4 46 6 130q5 42 8 82.5t3 79.5q-2 46 -3.5 85.5t-0.5 71.5q-7 67 -11 62q1 13 53 59q53 47 81 26q13 -17 29 -210zM259 374q21 -69 -5 -207q14 -43 5 -78 q1 -29 -60 -51q-61 -21 -74 -40v136q0 95 20 153q-10 36 -15 110q-2 37 -3.5 60.5t-0.5 34.5q2 11 56 50q55 40 81 31q10 -14 -4 -199z" />
<glyph unicode="&#xa8;" horiz-adv-x="823" d="M695 1531q0 -11 -58 -45q-56 -34 -74 -37q-4 1 -17.5 9.5t-36.5 24.5q-11 10 -29.5 22t-44.5 28q5 5 52 46q46 40 78 27q14 -1 82 -33q67 -30 48 -42zM365 1531q0 -12 -56 -47t-79 -35q-26 11 -109 92q109 84 140 65q7 1 60 -24q53 -26 44 -51z" />
<glyph unicode="&#xa9;" horiz-adv-x="1524" d="M1422 572q-45 -135 -140 -270q-121 -159 -298 -238q-177 -78 -375 -69q-166 1 -341 133q-108 111 -164 297q4 158 171 328q284 382 517 350q272 56 420 -115q216 -182 210 -416zM1277 517q-37 299 -239 427q-159 60 -425 102q-138 -50 -263 -194q-126 -144 -99 -400 q-5 -119 189 -285q85 -64 268 -107q211 -16 345 92q118 60 145 176q28 56 47.5 103t31.5 86zM998 314q4 -46 -25 -72q-14 -13 -77 -35q-4 -16 -44 -28q-52 35 -156 46q-91 -13 -124 -15q-21 -18 -69 -26q-3 24 -3 104q17 92 27 190q-23 129 -34 212t-10 121q2 0 52 35 q51 35 76 31q22 -1 31 -48q228 70 348 35l2 10q-18 -23 -86 -159q-7 9 -67 -14q-59 -23 -62 -37q10 32 21 66.5t23 71.5q-37 -19 -191 -46q27 -94 25 -177q19 -120 -12 -282q91 15 227 15q-34 45 -37 57q-2 18 58 54q23 13 43.5 20t38.5 8q34 -92 25 -137z" />
<glyph unicode="&#xab;" horiz-adv-x="949" d="M845 46q-29 24 -81 -6q-26 -15 -45 -24.5t-31 -13.5l-5 5q-36 63 -82 155t-103 217q-27 65 116 247q-8 36 55 142q25 19 84 51q58 31 66 28l2 -4q-1 -12 -23 -69.5t-65 -162.5q-86 -209 -139 -143q-2 -13 44 -82q32 -63 83.5 -147.5t123.5 -192.5zM490 92q8 -20 -53 -45 q-60 -26 -70 -44l-3 6q-49 111 -267 418l31 -34q5 10 34.5 59t86.5 137q53 54 75 124q8 11 17.5 27.5t20.5 39.5q14 14 61 46q46 31 75 27l4 -8q0 -20 -107 -196q-106 -175 -127 -178q1 -4 16.5 -28.5t44.5 -70.5q9 -8 60 -114q42 -37 101 -166z" />
<glyph unicode="&#xad;" horiz-adv-x="836" d="M708 727q-2 -16 -54 -44q-54 -30 -77 -38q-64 -10 -191 -12q-60 1 -110 2t-92 3q-15 -11 -58 -12q2 0 2 2q2 17 58 44q56 38 73 35q20 1 104 -6.5t234 -21.5q113 83 111 53v-5z" />
<glyph unicode="&#xae;" horiz-adv-x="1521" d="M1418 572q-47 -144 -136 -270q-122 -160 -296 -225q-197 -82 -349 -80q-239 35 -335 128q-198 110 -194 274q27 169 192 398q175 260 439 355q3 -30 48 -38q283 -34 397 -83q187 -150 234 -459zM1254 519q-18 267 -181 442q-218 101 -464 32q-162 4 -222 -180 q-58 -182 -141 -301q-5 -233 150 -360q136 -77 372 -68q150 11 288 92q86 47 154 152q22 55 32.5 102t11.5 89zM1029 790q-15 -51 -11 -110q4 -58 -11 -124q0 -12 1.5 -31.5t3.5 -34.5q0 -17 -56 -62q-55 -43 -77 -18q-2 -2 -7 0q-48 23 -136 23q38 -76 204 -167 q21 -44 60 -80l4 -2q0 -10 -64 -38q-62 -27 -73 -42q-18 -2 -142 97q-70 74 -97 106q-1 -9 -12 -49q2 -25 -53 -47q-27 -11 -47 -19.5t-33 -15.5q12 47 -2 145q-14 97 21 174q-8 121 -14.5 197t-11.5 107q-5 26 43 66q50 41 78 29q20 0 40 -78q33 18 116 37l203 46 q66 -18 73 -109zM882 700q5 69 -13 117q-59 -34 -227 -61q15 -102 -2 -217q28 -4 55.5 -3.5t55.5 5.5l32 -10q55 3 89 0q-16 200 10 169z" />
<glyph unicode="&#xb0;" horiz-adv-x="744" d="M626 959l-163 -77q3 36 -101 21q-19 14 -74 13q-22 0 -41.5 1t-36.5 3q-4 -4 -72 -7q12 115 28 160q18 147 -38 173q111 106 138 87q4 0 28 -1t70 -3q41 28 153 43q32 -13 72 -7q5 -61 -10 -158q0 -165 47 -248zM452 1007q5 45 -10 135l2 25q0 72 10 113q-2 0 -44.5 -1.5 t-124.5 -5.5q19 -39 17 -99q2 -26 -2.5 -68.5t-17.5 -100.5q143 16 170 2z" />
<glyph unicode="&#xb1;" horiz-adv-x="920" d="M792 727q-5 -15 -57 -46q-53 -32 -71 -36q-23 1 -72 3q-25 1 -43 1q-17 0 -28 1q-9 -42 10 -147q-19 -29 -84 -64q-65 -33 -73 -35v28q0 19 -2 25q3 31 38 161q-59 25 -210 12q-12 -26 -65 -28q3 11 25 23q70 73 255 66q-29 72 -45 198q21 31 74 60q26 14 47 23.5 t36 13.5q5 -12 5 -51q-2 -46 -2 -97q0 -50 1 -106q28 4 77 9t119 12q33 -14 65 -21v-5zM712 119q-8 -17 -61 -41q-52 -22 -72 -35q-72 -5 -195 -36q-132 37 -205 8q-11 7 -48 7l-3 -2q10 25 57 57q48 32 80 22q42 9 250 15q228 -16 195 11z" />
<glyph unicode="&#xb4;" horiz-adv-x="594" d="M466 1843q-17 -27 -39 -75q-17 -37 -31.5 -68.5t-25.5 -59.5q-43 -82 -68 -114q-24 -28 -104 -48q-27 -22 -68 -24q-2 -4 -2 -2q0 3 16 28q8 14 30.5 54.5t59.5 109.5q7 30 75 105q3 36 61 79q57 43 89 20q6 -2 7 -5z" />
<glyph unicode="&#xb6;" horiz-adv-x="1374" d="M1253 1271q-11 -4 -66 -35q-26 -14 -45 -23t-31 -12q-31 1 -71 3.5t-91 7.5q15 -141 -17 -285q60 -303 -16 -714q45 -396 82 -387q2 -18 -56 -53q-22 -8 -41 -15.5t-36 -15.5q-7 9 4 91q-123 885 -89 1014q8 78 12.5 174t6.5 211q-44 12 -191 33q13 -34 -7 -156 q78 -508 -2 -491q-16 -152 -21.5 -303t-1.5 -306q9 -309 50 -186q2 -19 -61 -44q-32 -13 -51.5 -21.5t-27.5 -13.5q-39 454 7 833q-78 -12 -126 -9q-65 -2 -96 -10q-65 -68 -143 -78q10 40 12 63q-3 97 -7.5 232t-1.5 298q-32 159 -9 203q22 44 74 76q51 31 84 12l61 -21 q67 -23 180 -66q0 30 40 58q42 29 91 25l-7 -13q12 -2 68 -15.5t156 -39.5q43 70 90 73l-7 -68q195 14 301 -26zM469 1178q4 -16 -6 -16q-3 0 -156 62q-52 -69 -42 -91q-6 -75 22 -241q29 -168 -11 -196q-5 -60 4 -99q94 52 203 31q-14 63 -15 411q2 16 2.5 50.5t-1.5 88.5z " />
<glyph unicode="&#xb7;" horiz-adv-x="517" d="M401 678q-17 8 -71 -25q-55 -32 -71 -35q-8 1 -25.5 6.5t-46.5 15.5q-56 20 -59 31q0 13 70 56t63 27q22 -2 140 -76z" />
<glyph unicode="&#xbb;" horiz-adv-x="951" d="M824 461q-35 -43 -74 -106t-83 -147q-15 -26 -34 -58t-42 -70q-12 -10 -27 -21.5t-32 -25.5q-35 -26 -80 -23l-3 -1q22 50 48.5 98.5t58.5 97.5q32 30 87 107q35 58 35 81q-1 17 -89 145q-87 129 -137 227q-3 22 50 60q52 37 87 20q2 -5 7 -13.5t12 -19.5 q10 -35 102 -225q94 -78 114 -126zM514 459l-203 -217q1 -86 -52 -179q-7 -2 -19 -10t-29 -21q-35 -26 -81 -27l-2 4q53 116 200 310q28 57 29 70q-2 14 -25.5 69.5t-69.5 155.5q-90 198 -134 151q-2 19 53 54q56 36 84 29l8 -16t14 -33q34 -50 87 -185q77 -79 140 -155z " />
<glyph unicode="&#xbf;" horiz-adv-x="889" d="M761 1143q-1 -13 -58 -45q-55 -31 -80 -36q-36 22 -118 51q4 14 56 58q53 44 74 25q13 0 63 -25q26 -12 41.5 -19t21.5 -9zM729 -87q2 -17 -54 -52q-54 -34 -79 -27q-2 19 -3 45t1 60q-125 -41 -444 -48q4 -58 2 -60q-5 0 -10 17q-19 51 -24 143q3 118 42 251 q40 135 -23 260q3 9 -2 46t0 75q3 20 56 55q58 31 85 27q98 -72 267 -65q5 14 -5 63q22 160 27 171q8 25 61 53q27 7 75 32q2 -14 -4 -52q-3 -20 -9.5 -62.5t-16.5 -108.5q4 -37 25 -62q1 -4 16 -17q15 -11 15 -20q0 -6 -15 -16q-57 -66 -121 -63q-22 -6 -54 -13.5 t-76 -17.5q-63 8 -108 15.5t-73 12.5q0 -38 -6 -86t-17 -105q-23 -115 -1 -216q9 -144 27 -220q85 33 340 60q-40 21 -41 46q-2 28 2 38q-2 54 3 75q4 22 73 54q45 25 70 21h-1q0 -24 -12 -73q-12 -48 7 -76q-2 -24 6 -71q9 -47 -1 -89z" />
<glyph unicode="&#xc0;" d="M84 0zM719 79q-4 -16 -61 -47q-28 -15 -48 -23.5t-31 -10.5q-6 1 -6 7q0 4 2 9t2 8q0 -3 -33 138q2 57 10.5 153.5t24.5 234.5q-131 -63 -292 -108q-17 -100 -26.5 -198.5t-11.5 -198.5q-34 6 -89 -9q-52 -13 -76 -32q12 34 12 309q78 420 23 614q21 66 14 188 q24 141 -7 174q0 15 57 36q52 36 88 42q0 -123 11 -148q15 4 40.5 9t61.5 13q34 10 159 87q70 46 138 46q3 -26 2 -37q1 28 3 -180q1 -208 -15 -334q4 -259 17 -419.5t36 -227.5q-14 -85 -5 -95zM543 1282q-87 -32 -249 -142q-18 -41 -2 -143q24 -259 -46 -514 q34 -12 46 -12q52 5 215 120q37 58 22 133q4 38 5 90t0 119t-1.5 138t-0.5 146q1 38 11 65zM476 1531q-3 -15 -59 -47q-57 -32 -75 -35q-4 1 -36 70q-12 42 -43 109t-82 162l7 -24q-2 23 53 42q28 10 48.5 19.5t33.5 17.5q16 0 101 -121q54 -190 52 -193z" />
<glyph unicode="&#xc1;" d="M84 0zM719 79q-4 -16 -61 -47q-28 -15 -48 -23.5t-31 -10.5q-6 1 -6 7q0 4 2 9t2 8q0 -3 -33 138q2 57 10.5 153.5t24.5 234.5q-131 -63 -292 -108q-17 -100 -26.5 -198.5t-11.5 -198.5q-34 6 -89 -9q-52 -13 -76 -32q12 34 12 309q78 420 23 614q21 66 14 188 q24 141 -7 174q0 15 57 36q52 36 88 42q0 -123 11 -148q15 4 40.5 9t61.5 13q34 10 159 87q70 46 138 46q3 -26 2 -37q1 28 3 -180q1 -208 -15 -334q4 -259 17 -419.5t36 -227.5q-14 -85 -5 -95zM543 1282q-87 -32 -249 -142q-18 -41 -2 -143q24 -259 -46 -514 q34 -12 46 -12q52 5 215 120q37 58 22 133q4 38 5 90t0 119t-1.5 138t-0.5 146q1 38 11 65zM707 1843q-17 -27 -39 -75q-17 -37 -31.5 -68.5t-25.5 -59.5q-43 -82 -68 -114q-24 -28 -104 -48q-27 -22 -68 -24q-2 -4 -2 -2q0 3 16 28q8 14 30.5 54.5t59.5 109.5q7 30 75 105 q3 36 61 79q57 43 89 20q6 -2 7 -5z" />
<glyph unicode="&#xc2;" d="M84 0zM719 79q-4 -16 -61 -47q-28 -15 -48 -23.5t-31 -10.5q-6 1 -6 7q0 4 2 9t2 8q0 -3 -33 138q2 57 10.5 153.5t24.5 234.5q-131 -63 -292 -108q-17 -100 -26.5 -198.5t-11.5 -198.5q-34 6 -89 -9q-52 -13 -76 -32q12 34 12 309q78 420 23 614q21 66 14 188 q24 141 -7 174q0 15 57 36q52 36 88 42q0 -123 11 -148q15 4 40.5 9t61.5 13q34 10 159 87q70 46 138 46q3 -26 2 -37q1 28 3 -180q1 -208 -15 -334q4 -259 17 -419.5t36 -227.5q-14 -85 -5 -95zM543 1282q-87 -32 -249 -142q-18 -41 -2 -143q24 -259 -46 -514 q34 -12 46 -12q52 5 215 120q37 58 22 133q4 38 5 90t0 119t-1.5 138t-0.5 146q1 38 11 65zM694 1529q0 -12 -56 -45q-57 -32 -73 -35q-21 1 -171 258q-20 -30 -59.5 -69t-97.5 -88q-44 -81 -137 -93q11 -2 70 60q23 34 51.5 74t61.5 88q21 49 62 110q16 19 70 38 q56 21 56 45q21 -34 136 -256q23 -8 87 -61v-26z" />
<glyph unicode="&#xc3;" d="M84 0zM719 79q-4 -16 -61 -47q-28 -15 -48 -23.5t-31 -10.5q-6 1 -6 7q0 4 2 9t2 8q0 -3 -33 138q2 57 10.5 153.5t24.5 234.5q-131 -63 -292 -108q-17 -100 -26.5 -198.5t-11.5 -198.5q-34 6 -89 -9q-52 -13 -76 -32q12 34 12 309q78 420 23 614q21 66 14 188 q24 141 -7 174q0 15 57 36q52 36 88 42q0 -123 11 -148q15 4 40.5 9t61.5 13q34 10 159 87q70 46 138 46q3 -26 2 -37q1 28 3 -180q1 -208 -15 -334q4 -259 17 -419.5t36 -227.5q-14 -85 -5 -95zM543 1282q-87 -32 -249 -142q-18 -41 -2 -143q24 -259 -46 -514 q34 -12 46 -12q52 5 215 120q37 58 22 133q4 38 5 90t0 119t-1.5 138t-0.5 146q1 38 11 65zM717 1698q-11 -83 -101 -162q-93 -81 -185 -97q-56 10 -84 87q-29 77 -75 89q-20 -25 -41 -77q-23 -27 -76 -56q-51 -28 -66 -31l-3 5v1q0 10 14 38q43 54 149 109q106 56 132 104 q60 -4 90 -98t74 -74q13 34 24 90q7 6 22.5 19.5t38.5 34.5q48 42 87 18z" />
<glyph unicode="&#xc4;" d="M84 0zM719 79q-4 -16 -61 -47q-28 -15 -48 -23.5t-31 -10.5q-6 1 -6 7q0 4 2 9t2 8q0 -3 -33 138q2 57 10.5 153.5t24.5 234.5q-131 -63 -292 -108q-17 -100 -26.5 -198.5t-11.5 -198.5q-34 6 -89 -9q-52 -13 -76 -32q12 34 12 309q78 420 23 614q21 66 14 188 q24 141 -7 174q0 15 57 36q52 36 88 42q0 -123 11 -148q15 4 40.5 9t61.5 13q34 10 159 87q70 46 138 46q3 -26 2 -37q1 28 3 -180q1 -208 -15 -334q4 -259 17 -419.5t36 -227.5q-14 -85 -5 -95zM543 1282q-87 -32 -249 -142q-18 -41 -2 -143q24 -259 -46 -514 q34 -12 46 -12q52 5 215 120q37 58 22 133q4 38 5 90t0 119t-1.5 138t-0.5 146q1 38 11 65zM686 1531q0 -11 -58 -45q-56 -34 -74 -37q-4 1 -17.5 9.5t-36.5 24.5q-11 10 -29.5 22t-44.5 28q5 5 52 46q46 40 78 27q14 -1 82 -33q67 -30 48 -42zM356 1531q0 -12 -56 -47 t-79 -35q-26 11 -109 92q109 84 140 65q7 1 60 -24q53 -26 44 -51z" />
<glyph unicode="&#xc5;" d="M84 0zM719 79q-4 -16 -61 -47q-28 -15 -48 -23.5t-31 -10.5q-6 1 -6 7q0 4 2 9t2 8q0 -3 -33 138q2 57 10.5 153.5t24.5 234.5q-131 -63 -292 -108q-17 -100 -26.5 -198.5t-11.5 -198.5q-34 6 -89 -9q-52 -13 -76 -32q12 34 12 309q78 420 23 614q21 66 14 188 q24 141 -7 174q0 15 57 36q52 36 88 42q0 -123 11 -148q15 4 40.5 9t61.5 13q34 10 159 87q70 46 138 46q3 -26 2 -37q1 28 3 -180q1 -208 -15 -334q4 -259 17 -419.5t36 -227.5q-14 -85 -5 -95zM543 1282q-87 -32 -249 -142q-18 -41 -2 -143q24 -259 -46 -514 q34 -12 46 -12q52 5 215 120q37 58 22 133q4 38 5 90t0 119t-1.5 138t-0.5 146q1 38 11 65zM655 1521l-163 -77q3 37 -101 20q-18 16 -74 14q-44 0 -78 3q-5 -3 -72 -6q12 115 28 160q18 146 -38 172q111 106 138 87q6 0 98 -3q41 26 153 43q35 -14 72 -7q5 -62 -10 -159 q0 -164 47 -247zM481 1568q5 45 -10 135l2 26q0 72 10 112q-6 0 -169 -6q19 -39 17 -99q2 -26 -2.5 -68.5t-17.5 -100.5q144 15 170 1z" />
<glyph unicode="&#xc6;" horiz-adv-x="1215" d="M1130 183q-8 -72 -19 -110q-12 -30 -56 -53t-82 -20q-31 71 -174 94q-30 -17 -101 -26q-14 -21 -53 -49q-22 -8 -38.5 -13t-29.5 -6q-4 28 -12 137q2 82 4 173.5t6 194.5q-135 7 -336 -65q8 -116 -21 -257q16 -33 -1 -98q1 -26 -60 -42q-61 -17 -68 -45q-2 14 -3.5 34.5 t-1.5 47.5l13 167q24 393 91 647q-57 207 -60 360q-2 19 -2.5 25t0.5 -1q0 17 61 60q62 44 71 29q23 -12 27 -160q11 4 33.5 11t56.5 18q31 3 157 87q124 16 144 44l3 -3l-5 -103q101 5 200 72q180 58 247 32q-6 -2 -7 -3q-6 -5 -15 -12q-50 -32 -51 -102q-9 -6 -21 -103 q2 -22 -8 -48q-7 -22 -61 -50q-26 -14 -45.5 -22t-30.5 -10q-29 215 115 267q-70 -14 -151 -34t-175 -45q-17 -248 24 -420l-21 -53q8 -2 21 -2.5t32 -1.5q39 -2 46 -7q40 -8 120 6q81 14 102 11l2 -4q-9 -13 -43 -34q-46 -33 -90 -41q-92 -39 -186 -29q13 -117 19 -235 t6 -241q190 4 231 15q27 -7 61 -12q-4 32 -38 116q-12 81 2 116q-8 17 53 46q50 45 77 38l3 -3q5 -28 2 -86q32 -203 36 -199zM544 1273v5q-45 -15 -103 -36.5t-130 -50.5q-29 -121 -19 -213q-2 -114 -7 -229.5t-12 -234.5q0 -43 15 -43q56 1 229 60q40 196 14 196 q10 54 17 117.5t12 139.5t1 148t-17 141z" />
<glyph unicode="&#xc8;" horiz-adv-x="763" d="M84 0zM678 186q-9 -77 -18 -109q-11 -23 -59 -51q-46 -28 -77 -26q-40 78 -176 97q-28 -16 -124 -29q-69 -66 -113 -77q14 86 12 224q51 348 15 432q4 38 14 128.5t27 234.5q-63 115 -82 221q-2 16 -13 51q2 19 53 56q27 7 47 15t34 16q28 -22 23 -103q78 22 159.5 37 t169.5 25q47 35 65 37h29q-2 -5 -14 -17q-48 -40 -53 -83q-13 -48 -3 -94q-8 -48 -29 -79q-9 -23 -58 -51q-12 -4 -30.5 -13.5t-44.5 -23.5q12 214 73 266q-44 5 -108 -0.5t-150 -21.5q40 -354 -11 -494q51 -20 86 -26t45 -6q16 0 46 -1t75 -3q89 -3 106 24 q-7 -10 -16.5 -22.5t-22.5 -26.5q-59 -26 -96 -36q-64 -24 -203 -2q-35 -233 -12 -525q167 51 230 42q19 -5 34 -9t26 -8q0 25 -24 120q2 32 0 62t-7 59q0 18 70 55q71 39 69 25q0 -10 17 -83q12 -186 19 -207zM455 1531q-3 -15 -59 -47q-57 -32 -75 -35q-4 1 -36 70 q-12 42 -43 109t-82 162l7 -24q-2 23 53 42q28 10 48.5 19.5t33.5 17.5q16 0 101 -121q54 -190 52 -193z" />
<glyph unicode="&#xc9;" horiz-adv-x="763" d="M84 0zM678 186q-9 -77 -18 -109q-11 -23 -59 -51q-46 -28 -77 -26q-40 78 -176 97q-28 -16 -124 -29q-69 -66 -113 -77q14 86 12 224q51 348 15 432q4 38 14 128.5t27 234.5q-63 115 -82 221q-2 16 -13 51q2 19 53 56q27 7 47 15t34 16q28 -22 23 -103q78 22 159.5 37 t169.5 25q47 35 65 37h29q-2 -5 -14 -17q-48 -40 -53 -83q-13 -48 -3 -94q-8 -48 -29 -79q-9 -23 -58 -51q-12 -4 -30.5 -13.5t-44.5 -23.5q12 214 73 266q-44 5 -108 -0.5t-150 -21.5q40 -354 -11 -494q51 -20 86 -26t45 -6q16 0 46 -1t75 -3q89 -3 106 24 q-7 -10 -16.5 -22.5t-22.5 -26.5q-59 -26 -96 -36q-64 -24 -203 -2q-35 -233 -12 -525q167 51 230 42q19 -5 34 -9t26 -8q0 25 -24 120q2 32 0 62t-7 59q0 18 70 55q71 39 69 25q0 -10 17 -83q12 -186 19 -207zM686 1843q-17 -27 -39 -75q-17 -37 -31.5 -68.5t-25.5 -59.5 q-43 -82 -68 -114q-24 -28 -104 -48q-27 -22 -68 -24q-2 -4 -2 -2q0 3 16 28q8 14 30.5 54.5t59.5 109.5q7 30 75 105q3 36 61 79q57 43 89 20q6 -2 7 -5z" />
<glyph unicode="&#xca;" horiz-adv-x="763" d="M81 0zM678 186q-9 -77 -18 -109q-11 -23 -59 -51q-46 -28 -77 -26q-40 78 -176 97q-28 -16 -124 -29q-69 -66 -113 -77q14 86 12 224q51 348 15 432q4 38 14 128.5t27 234.5q-63 115 -82 221q-2 16 -13 51q2 19 53 56q27 7 47 15t34 16q28 -22 23 -103q78 22 159.5 37 t169.5 25q47 35 65 37h29q-2 -5 -14 -17q-48 -40 -53 -83q-13 -48 -3 -94q-8 -48 -29 -79q-9 -23 -58 -51q-12 -4 -30.5 -13.5t-44.5 -23.5q12 214 73 266q-44 5 -108 -0.5t-150 -21.5q40 -354 -11 -494q51 -20 86 -26t45 -6q16 0 46 -1t75 -3q89 -3 106 24 q-7 -10 -16.5 -22.5t-22.5 -26.5q-59 -26 -96 -36q-64 -24 -203 -2q-35 -233 -12 -525q167 51 230 42q19 -5 34 -9t26 -8q0 25 -24 120q2 32 0 62t-7 59q0 18 70 55q71 39 69 25q0 -10 17 -83q12 -186 19 -207zM675 1529q0 -12 -56 -45q-57 -32 -73 -35q-21 1 -171 258 q-20 -30 -59.5 -69t-97.5 -88q-44 -81 -137 -93q11 -2 70 60q23 34 51.5 74t61.5 88q21 49 62 110q16 19 70 38q56 21 56 45q21 -34 136 -256q23 -8 87 -61v-26z" />
<glyph unicode="&#xcb;" horiz-adv-x="763" d="M84 0zM678 186q-9 -77 -18 -109q-11 -23 -59 -51q-46 -28 -77 -26q-40 78 -176 97q-28 -16 -124 -29q-69 -66 -113 -77q14 86 12 224q51 348 15 432q4 38 14 128.5t27 234.5q-63 115 -82 221q-2 16 -13 51q2 19 53 56q27 7 47 15t34 16q28 -22 23 -103q78 22 159.5 37 t169.5 25q47 35 65 37h29q-2 -5 -14 -17q-48 -40 -53 -83q-13 -48 -3 -94q-8 -48 -29 -79q-9 -23 -58 -51q-12 -4 -30.5 -13.5t-44.5 -23.5q12 214 73 266q-44 5 -108 -0.5t-150 -21.5q40 -354 -11 -494q51 -20 86 -26t45 -6q16 0 46 -1t75 -3q89 -3 106 24 q-7 -10 -16.5 -22.5t-22.5 -26.5q-59 -26 -96 -36q-64 -24 -203 -2q-35 -233 -12 -525q167 51 230 42q19 -5 34 -9t26 -8q0 25 -24 120q2 32 0 62t-7 59q0 18 70 55q71 39 69 25q0 -10 17 -83q12 -186 19 -207zM667 1531q0 -11 -58 -45q-56 -34 -74 -37q-4 1 -17.5 9.5 t-36.5 24.5q-11 10 -29.5 22t-44.5 28q5 5 52 46q46 40 78 27q14 -1 82 -33q67 -30 48 -42zM337 1531q0 -12 -56 -47t-79 -35q-26 11 -109 92q109 84 140 65q7 1 60 -24q53 -26 44 -51z" />
<glyph unicode="&#xcc;" horiz-adv-x="340" d="M0 5zM282 788q-38 -47 -29 -343q-37 -398 -24 -358q-8 -13 -21 -27t-32 -28q-36 -29 -87 -27q-4 0 -4 4q0 -6 1.5 -1.5t3.5 19.5q5 23 18 226q25 185 29 309t-12 191q12 126 15 319q-40 76 -50 155q-1 22 -1 37v23q0 19 53 54q52 9 83 29q75 -293 57 -582zM246 1531 q-3 -15 -59 -47q-57 -32 -75 -35q-4 1 -36 70q-12 42 -43 109t-82 162l7 -24q-2 23 53 42q28 10 48.5 19.5t33.5 17.5q16 0 101 -121q54 -190 52 -193z" />
<glyph unicode="&#xcd;" horiz-adv-x="340" d="M85 5zM282 788q-38 -47 -29 -343q-37 -398 -24 -358q-8 -13 -21 -27t-32 -28q-36 -29 -87 -27q-4 0 -4 4q0 -6 1.5 -1.5t3.5 19.5q5 23 18 226q25 185 29 309t-12 191q12 126 15 319q-40 76 -50 155q-1 22 -1 37v23q0 19 53 54q52 9 83 29q75 -293 57 -582zM441 1843 q-17 -27 -39 -75q-17 -37 -31.5 -68.5t-25.5 -59.5q-43 -82 -68 -114q-24 -28 -104 -48q-27 -22 -68 -24q-2 -4 -2 -2q0 3 16 28q8 14 30.5 54.5t59.5 109.5q7 30 75 105q3 36 61 79q57 43 89 20q6 -2 7 -5z" />
<glyph unicode="&#xce;" horiz-adv-x="340" d="M0 5zM282 788q-38 -47 -29 -343q-37 -398 -24 -358q-8 -13 -21 -27t-32 -28q-36 -29 -87 -27q-4 0 -4 4q0 -6 1.5 -1.5t3.5 19.5q5 23 18 226q25 185 29 309t-12 191q12 126 15 319q-40 76 -50 155q-1 22 -1 37v23q0 19 53 54q52 9 83 29q75 -293 57 -582zM463 1529 q0 -12 -56 -45q-57 -32 -73 -35q-21 1 -171 258q-20 -30 -59.5 -69t-97.5 -88q-44 -81 -137 -93q11 -2 70 60q23 34 51.5 74t61.5 88q21 49 62 110q16 19 70 38q56 21 56 45q21 -34 136 -256q23 -8 87 -61v-26z" />
<glyph unicode="&#xcf;" horiz-adv-x="340" d="M0 5zM282 788q-38 -47 -29 -343q-37 -398 -24 -358q-8 -13 -21 -27t-32 -28q-36 -29 -87 -27q-4 0 -4 4q0 -6 1.5 -1.5t3.5 19.5q5 23 18 226q25 185 29 309t-12 191q12 126 15 319q-40 76 -50 155q-1 22 -1 37v23q0 19 53 54q52 9 83 29q75 -293 57 -582zM455 1531 q0 -11 -58 -45q-56 -34 -74 -37q-4 1 -17.5 9.5t-36.5 24.5q-11 10 -29.5 22t-44.5 28q5 5 52 46q46 40 78 27q14 -1 82 -33q67 -30 48 -42zM125 1531q0 -12 -56 -47t-79 -35q-26 11 -109 92q109 84 140 65q7 1 60 -24q53 -26 44 -51z" />
<glyph unicode="&#xd1;" horiz-adv-x="799" d="M82 0zM715 80q-3 -15 -58 -46q-51 -33 -75 -34q-12 16 -7 70q-62 499 -3 693q-50 67 -60 240q-10 171 34 260q-73 -24 -259 -111q7 -50 3 -174q15 -182 21 -449q-96 -216 -86 -353q7 -45 -5 -94q-3 -20 -65 -46q-41 -39 -73 -31q4 10 3 319q8 126 17 263t19 287 q8 85 15.5 143.5t13.5 91.5q-39 195 -25 178q0 20 63 53q46 25 78 30q-1 -32 4 -66.5t15 -72.5q25 -9 82 5q41 13 167 63q100 73 140 56h7l-90 -628q11 -267 105 -532q10 -51 14.5 -79.5t4.5 -35.5zM716 1698q-11 -83 -101 -162q-93 -81 -185 -97q-56 10 -84 87 q-29 77 -75 89q-20 -25 -41 -77q-23 -27 -76 -56q-51 -28 -66 -31l-3 5v1q0 10 14 38q43 54 149 109q106 56 132 104q60 -4 90 -98t74 -74q13 34 24 90q7 6 22.5 19.5t38.5 34.5q48 42 87 18z" />
<glyph unicode="&#xd2;" horiz-adv-x="780" d="M85 0zM696 84q-17 -19 -71 -52q-53 -30 -82 -35q-6 4 -7 27q-69 66 -261 94q-34 -20 -106 -28q-19 -14 -33.5 -22t-24.5 -12q4 40 12 180q22 140 26.5 258.5t-6.5 217.5q33 258 -20 385q-15 17 -29 46q-9 16 -9 33q0 16 53 60t86 20q126 59 469 79l-48 18 q-78 -594 -8 -551q-26 -412 92 -696zM519 167q-14 147 -22 294t-12 298q46 502 27 526q-53 -14 -312 -48q55 -59 63 -186q-39 -303 7 -331q3 -112 -5.5 -240t-28.5 -275q116 -48 179 -24q41 -13 104 -14zM464 1531q-3 -15 -59 -47q-57 -32 -75 -35q-4 1 -36 70 q-12 42 -43 109t-82 162l7 -24q-2 23 53 42q28 10 48.5 19.5t33.5 17.5q16 0 101 -121q54 -190 52 -193z" />
<glyph unicode="&#xd3;" horiz-adv-x="780" d="M85 0zM696 84q-17 -19 -71 -52q-53 -30 -82 -35q-6 4 -7 27q-69 66 -261 94q-34 -20 -106 -28q-19 -14 -33.5 -22t-24.5 -12q4 40 12 180q22 140 26.5 258.5t-6.5 217.5q33 258 -20 385q-15 17 -29 46q-9 16 -9 33q0 16 53 60t86 20q126 59 469 79l-48 18 q-78 -594 -8 -551q-26 -412 92 -696zM519 167q-14 147 -22 294t-12 298q46 502 27 526q-53 -14 -312 -48q55 -59 63 -186q-39 -303 7 -331q3 -112 -5.5 -240t-28.5 -275q116 -48 179 -24q41 -13 104 -14zM695 1843q-17 -27 -39 -75q-17 -37 -31.5 -68.5t-25.5 -59.5 q-43 -82 -68 -114q-24 -28 -104 -48q-27 -22 -68 -24q-2 -4 -2 -2q0 3 16 28q8 14 30.5 54.5t59.5 109.5q7 30 75 105q3 36 61 79q57 43 89 20q6 -2 7 -5z" />
<glyph unicode="&#xd4;" horiz-adv-x="780" d="M85 0zM696 84q-17 -19 -71 -52q-53 -30 -82 -35q-6 4 -7 27q-69 66 -261 94q-34 -20 -106 -28q-19 -14 -33.5 -22t-24.5 -12q4 40 12 180q22 140 26.5 258.5t-6.5 217.5q33 258 -20 385q-15 17 -29 46q-9 16 -9 33q0 16 53 60t86 20q126 59 469 79l-48 18 q-78 -594 -8 -551q-26 -412 92 -696zM519 167q-14 147 -22 294t-12 298q46 502 27 526q-53 -14 -312 -48q55 -59 63 -186q-39 -303 7 -331q3 -112 -5.5 -240t-28.5 -275q116 -48 179 -24q41 -13 104 -14zM683 1529q0 -12 -56 -45q-57 -32 -73 -35q-21 1 -171 258 q-20 -30 -59.5 -69t-97.5 -88q-44 -81 -137 -93q11 -2 70 60q23 34 51.5 74t61.5 88q21 49 62 110q16 19 70 38q56 21 56 45q21 -34 136 -256q23 -8 87 -61v-26z" />
<glyph unicode="&#xd5;" horiz-adv-x="780" d="M76 0zM696 84q-17 -19 -71 -52q-53 -30 -82 -35q-6 4 -7 27q-69 66 -261 94q-34 -20 -106 -28q-19 -14 -33.5 -22t-24.5 -12q4 40 12 180q22 140 26.5 258.5t-6.5 217.5q33 258 -20 385q-15 17 -29 46q-9 16 -9 33q0 16 53 60t86 20q126 59 469 79l-48 18 q-78 -594 -8 -551q-26 -412 92 -696zM519 167q-14 147 -22 294t-12 298q46 502 27 526q-53 -14 -312 -48q55 -59 63 -186q-39 -303 7 -331q3 -112 -5.5 -240t-28.5 -275q116 -48 179 -24q41 -13 104 -14zM707 1698q-11 -83 -101 -162q-93 -81 -185 -97q-56 10 -84 87 q-29 77 -75 89q-20 -25 -41 -77q-23 -27 -76 -56q-51 -28 -66 -31l-3 5v1q0 10 14 38q43 54 149 109q106 56 132 104q60 -4 90 -98t74 -74q13 34 24 90q7 6 22.5 19.5t38.5 34.5q48 42 87 18z" />
<glyph unicode="&#xd6;" horiz-adv-x="780" d="M85 0zM696 84q-17 -19 -71 -52q-53 -30 -82 -35q-6 4 -7 27q-69 66 -261 94q-34 -20 -106 -28q-19 -14 -33.5 -22t-24.5 -12q4 40 12 180q22 140 26.5 258.5t-6.5 217.5q33 258 -20 385q-15 17 -29 46q-9 16 -9 33q0 16 53 60t86 20q126 59 469 79l-48 18 q-78 -594 -8 -551q-26 -412 92 -696zM519 167q-14 147 -22 294t-12 298q46 502 27 526q-53 -14 -312 -48q55 -59 63 -186q-39 -303 7 -331q3 -112 -5.5 -240t-28.5 -275q116 -48 179 -24q41 -13 104 -14zM676 1531q0 -11 -58 -45q-56 -34 -74 -37q-4 1 -17.5 9.5t-36.5 24.5 q-11 10 -29.5 22t-44.5 28q5 5 52 46q46 40 78 27q14 -1 82 -33q67 -30 48 -42zM346 1531q0 -12 -56 -47t-79 -35q-26 11 -109 92q109 84 140 65q7 1 60 -24q53 -26 44 -51z" />
<glyph unicode="&#xd7;" horiz-adv-x="857" d="M729 853q-58 -43 -118.5 -91t-124.5 -103q93 -111 173 -137q13 -11 60 -30q1 -1 1 -4q0 -13 -66 -50q-65 -38 -67 -35q-35 2 -210 133q-42 -21 -88 -70t-100 -84q-27 -2 -42 0l-4 2q11 25 176 205q-25 48 -145 140q-8 -2 -51 48l5 -4q0 10 50 36q51 25 81 39q1 1 9 0 q55 -54 183 -150q45 32 80 53.5t61 31.5q95 82 135 79z" />
<glyph unicode="&#xd8;" horiz-adv-x="780" d="M696 84q-25 -23 -74 -53q-25 -14 -44.5 -23t-34.5 -11q-6 4 -7 27q-69 66 -261 94q-34 -20 -106 -28q-30 -24 -58 -34q4 40 12 180q20 139 26 267.5t-4 249.5q26 240 -5 318q-32 80 -55 105q0 17 61 41q63 26 78 41q76 28 171 62t211 76l41 -46q-63 -428 -9 -548 q-42 -336 -3 -734zM500 1248q-51 10 -222 -35q-29 -42 -24 -146q5 -308 24 -470q27 87 125 290q35 247 97 361zM529 176q-20 253 -102 689q58 -12 -86 -399q-42 -39 -82 -178q0 18 -30 -145q103 46 181 43q51 -15 119 -10z" />
<glyph unicode="&#xd9;" d="M85 3zM717 1362q0 10 -7 -22q-2 -32 -3 -84q-11 -62 -2 -177q-68 -290 -5 -589q-69 -184 -50 -275q10 -13 24 -65q0 -46 4 -66q-5 -23 -57 -65q-50 -24 -90 -16q-8 51 -67 64q-53 34 -102 42q-50 -8 -111 -34q-7 -4 -20 -15t-32 -31q-38 -39 -83 -26q-4 60 -5 135.5 t0 168.5q-13 306 -6 533t35 379q-58 52 -55 68q0 19 63 51q51 30 77 31q-26 -297 84 -654q-19 -118 -45.5 -262t-60.5 -318q235 68 318 44q-13 138 -9 193q6 128 -1.5 281t-29.5 335q29 90 51 169.5t38 151.5q15 -3 55 34q42 37 87 27q5 -5 5 -8zM476 1531q-3 -15 -59 -47 q-57 -32 -75 -35q-4 1 -36 70q-12 42 -43 109t-82 162l7 -24q-2 23 53 42q28 10 48.5 19.5t33.5 17.5q16 0 101 -121q54 -190 52 -193z" />
<glyph unicode="&#xda;" d="M85 3zM717 1362q0 10 -7 -22q-2 -32 -3 -84q-11 -62 -2 -177q-68 -290 -5 -589q-69 -184 -50 -275q10 -13 24 -65q0 -46 4 -66q-5 -23 -57 -65q-50 -24 -90 -16q-8 51 -67 64q-53 34 -102 42q-50 -8 -111 -34q-7 -4 -20 -15t-32 -31q-38 -39 -83 -26q-4 60 -5 135.5 t0 168.5q-13 306 -6 533t35 379q-58 52 -55 68q0 19 63 51q51 30 77 31q-26 -297 84 -654q-19 -118 -45.5 -262t-60.5 -318q235 68 318 44q-13 138 -9 193q6 128 -1.5 281t-29.5 335q29 90 51 169.5t38 151.5q15 -3 55 34q42 37 87 27q5 -5 5 -8zM707 1843q-17 -27 -39 -75 q-17 -37 -31.5 -68.5t-25.5 -59.5q-43 -82 -68 -114q-24 -28 -104 -48q-27 -22 -68 -24q-2 -4 -2 -2q0 3 16 28q8 14 30.5 54.5t59.5 109.5q7 30 75 105q3 36 61 79q57 43 89 20q6 -2 7 -5z" />
<glyph unicode="&#xdb;" d="M85 3zM717 1362q0 10 -7 -22q-2 -32 -3 -84q-11 -62 -2 -177q-68 -290 -5 -589q-69 -184 -50 -275q10 -13 24 -65q0 -46 4 -66q-5 -23 -57 -65q-50 -24 -90 -16q-8 51 -67 64q-53 34 -102 42q-50 -8 -111 -34q-7 -4 -20 -15t-32 -31q-38 -39 -83 -26q-4 60 -5 135.5 t0 168.5q-13 306 -6 533t35 379q-58 52 -55 68q0 19 63 51q51 30 77 31q-26 -297 84 -654q-19 -118 -45.5 -262t-60.5 -318q235 68 318 44q-13 138 -9 193q6 128 -1.5 281t-29.5 335q29 90 51 169.5t38 151.5q15 -3 55 34q42 37 87 27q5 -5 5 -8zM694 1529q0 -12 -56 -45 q-57 -32 -73 -35q-21 1 -171 258q-20 -30 -59.5 -69t-97.5 -88q-44 -81 -137 -93q11 -2 70 60q23 34 51.5 74t61.5 88q21 49 62 110q16 19 70 38q56 21 56 45q21 -34 136 -256q23 -8 87 -61v-26z" />
<glyph unicode="&#xdc;" d="M85 3zM717 1362q0 10 -7 -22q-2 -32 -3 -84q-11 -62 -2 -177q-68 -290 -5 -589q-69 -184 -50 -275q10 -13 24 -65q0 -46 4 -66q-5 -23 -57 -65q-50 -24 -90 -16q-8 51 -67 64q-53 34 -102 42q-50 -8 -111 -34q-7 -4 -20 -15t-32 -31q-38 -39 -83 -26q-4 60 -5 135.5 t0 168.5q-13 306 -6 533t35 379q-58 52 -55 68q0 19 63 51q51 30 77 31q-26 -297 84 -654q-19 -118 -45.5 -262t-60.5 -318q235 68 318 44q-13 138 -9 193q6 128 -1.5 281t-29.5 335q29 90 51 169.5t38 151.5q15 -3 55 34q42 37 87 27q5 -5 5 -8zM686 1531q0 -11 -58 -45 q-56 -34 -74 -37q-4 1 -17.5 9.5t-36.5 24.5q-11 10 -29.5 22t-44.5 28q5 5 52 46q46 40 78 27q14 -1 82 -33q67 -30 48 -42zM356 1531q0 -12 -56 -47t-79 -35q-26 11 -109 92q109 84 140 65q7 1 60 -24q53 -26 44 -51z" />
<glyph unicode="&#xdd;" horiz-adv-x="782" d="M46 0zM696 1364q-4 -29 -6 -64.5t-4 -77.5q-24 -150 -19 -143q-23 -330 33 -686q-72 -167 -31 -282q-13 -31 -12 -31q0 -17 -49 -47q-48 -30 -87 -33q-6 0 -4 17q-35 62 -147 58q-62 26 -123 17q-5 -32 -61 -59q-56 -26 -72 -30q-3 24 -1.5 64.5t8.5 91.5q9 31 -5 54 q-15 35 -13 46q3 11 57 41q67 31 81 36q20 -20 17 -102q4 -55 0 -89q193 63 234 39q10 88 12.5 153.5t-2.5 111.5q-16 4 -71 34q-56 31 -105 20q-67 9 -147 -23q-43 -6 -112 -38q-2 75 3 209q4 133 17 146q-39 239 -15 352q-4 -7 -24 58q-12 45 -2 70q-3 23 46 59 q69 17 84 29q20 -28 29 -266q-2 -51 -1.5 -101.5t3.5 -101.5q5 -55 6.5 -131t-1.5 -176q45 10 106 8.5t139 -12.5q-1 4 41 2q-1 109 84 422q-47 150 -36 290q13 5 32.5 15t45.5 25q51 31 72 23v2zM696 1843q-17 -27 -39 -75q-17 -37 -31.5 -68.5t-25.5 -59.5 q-43 -82 -68 -114q-24 -28 -104 -48q-27 -22 -68 -24q-2 -4 -2 -2q0 3 16 28q8 14 30.5 54.5t59.5 109.5q7 30 75 105q3 36 61 79q57 43 89 20q6 -2 7 -5z" />
<glyph unicode="&#xde;" horiz-adv-x="780" d="M720 903q-19 -82 -16 -268q4 -183 -9 -300q4 -4 -49 -38t-76 -31q-1 0 -9 2q-114 97 -291 78q11 3 7.5 3.5t-21.5 -1.5q-5 -106 -6.5 -165.5t-0.5 -74.5q-4 -11 -5.5 -18.5t-2.5 -9.5q-5 -25 -64 -41q-57 -16 -78 -37q2 2 -5 213q46 273 5 457q1 205 -9 473q28 36 0 99 q-10 48 -5 39q0 24 67 52q69 29 70 30q24 -30 24 -146q12 -98 7 -186q149 53 358 150q37 -14 56.5 -21t23.5 -8q5 0 9 -46q7 -52 11.5 -103t8.5 -102zM568 847q2 49 0 106.5t-8 125.5q-99 -50 -343 -65q41 -123 51 -292q-39 -142 -9 -280q115 -10 157 -9q69 0 147 -22 q-4 42 -9 99t-10 132q37 102 24 205z" />
<glyph unicode="&#xdf;" horiz-adv-x="843" d="M768 577q-17 -53 -24 -321q-11 -71 -12 -172q-6 -7 -19.5 -19.5t-35.5 -30.5q-43 -36 -83 -32q-2 -2 -60 27q-58 28 -65 20q-5 1 -14 1.5t-23 0.5q-14 -1 -26.5 -1.5t-23.5 -0.5q-64 -49 -94 -52l-8 6q1 6 14 19q125 83 257 115q13 -1 23 -2t18 -2q-1 134 3.5 244 t13.5 198q22 60 0 96q-14 32 -97 20q-11 17 -37 21q-28 5 -45 5q-10 0 -37 3t-72 10q1 19 83 48q59 28 101 28q-28 112 -3 172q0 81 2.5 155t7.5 144q-9 -12 -32 -23q-84 -23 -241 -124q20 -134 -31 -452q-4 -97 -5 -271t0 -431q24 -129 10 -177q5 -23 -44 -54 q-49 -32 -85 -32q-4 33 47 255q-38 436 -63 696q60 188 0 416q29 14 21 86q-5 43 -7.5 73.5t-2.5 50.5q6 13 63 50q58 39 78 27q7 -15 -10 -174q67 15 160 55q89 18 149 64q26 14 68.5 30.5t101.5 36.5q-17 -15 -17 -24q0 -1 -5.5 -24.5t-16.5 -69.5q-36 -110 -8 -210 q-5 -87 24 -237q18 -20 92 -56q2 -32 4 -76.5t6 -104.5z" />
<glyph unicode="&#xe0;" d="M84 0zM719 79q-4 -16 -61 -47q-28 -15 -48 -23.5t-31 -10.5q-6 1 -6 7q0 4 2 9t2 8q0 -3 -33 138q2 57 10.5 153.5t24.5 234.5q-131 -63 -292 -108q-17 -100 -26.5 -198.5t-11.5 -198.5q-34 6 -89 -9q-52 -13 -76 -32q12 34 12 309q78 420 23 614q21 66 14 188 q24 141 -7 174q0 15 57 36q52 36 88 42q0 -123 11 -148q15 4 40.5 9t61.5 13q34 10 159 87q70 46 138 46q3 -26 2 -37q1 28 3 -180q1 -208 -15 -334q4 -259 17 -419.5t36 -227.5q-14 -85 -5 -95zM543 1282q-87 -32 -249 -142q-18 -41 -2 -143q24 -259 -46 -514 q34 -12 46 -12q52 5 215 120q37 58 22 133q4 38 5 90t0 119t-1.5 138t-0.5 146q1 38 11 65zM476 1531q-3 -15 -59 -47q-57 -32 -75 -35q-4 1 -36 70q-12 42 -43 109t-82 162l7 -24q-2 23 53 42q28 10 48.5 19.5t33.5 17.5q16 0 101 -121q54 -190 52 -193z" />
<glyph unicode="&#xe1;" d="M84 0zM719 79q-4 -16 -61 -47q-28 -15 -48 -23.5t-31 -10.5q-6 1 -6 7q0 4 2 9t2 8q0 -3 -33 138q2 57 10.5 153.5t24.5 234.5q-131 -63 -292 -108q-17 -100 -26.5 -198.5t-11.5 -198.5q-34 6 -89 -9q-52 -13 -76 -32q12 34 12 309q78 420 23 614q21 66 14 188 q24 141 -7 174q0 15 57 36q52 36 88 42q0 -123 11 -148q15 4 40.5 9t61.5 13q34 10 159 87q70 46 138 46q3 -26 2 -37q1 28 3 -180q1 -208 -15 -334q4 -259 17 -419.5t36 -227.5q-14 -85 -5 -95zM543 1282q-87 -32 -249 -142q-18 -41 -2 -143q24 -259 -46 -514 q34 -12 46 -12q52 5 215 120q37 58 22 133q4 38 5 90t0 119t-1.5 138t-0.5 146q1 38 11 65zM707 1843q-17 -27 -39 -75q-17 -37 -31.5 -68.5t-25.5 -59.5q-43 -82 -68 -114q-24 -28 -104 -48q-27 -22 -68 -24q-2 -4 -2 -2q0 3 16 28q8 14 30.5 54.5t59.5 109.5q7 30 75 105 q3 36 61 79q57 43 89 20q6 -2 7 -5z" />
<glyph unicode="&#xe2;" d="M84 0zM719 79q-4 -16 -61 -47q-28 -15 -48 -23.5t-31 -10.5q-6 1 -6 7q0 4 2 9t2 8q0 -3 -33 138q2 57 10.5 153.5t24.5 234.5q-131 -63 -292 -108q-17 -100 -26.5 -198.5t-11.5 -198.5q-34 6 -89 -9q-52 -13 -76 -32q12 34 12 309q78 420 23 614q21 66 14 188 q24 141 -7 174q0 15 57 36q52 36 88 42q0 -123 11 -148q15 4 40.5 9t61.5 13q34 10 159 87q70 46 138 46q3 -26 2 -37q1 28 3 -180q1 -208 -15 -334q4 -259 17 -419.5t36 -227.5q-14 -85 -5 -95zM543 1282q-87 -32 -249 -142q-18 -41 -2 -143q24 -259 -46 -514 q34 -12 46 -12q52 5 215 120q37 58 22 133q4 38 5 90t0 119t-1.5 138t-0.5 146q1 38 11 65zM694 1529q0 -12 -56 -45q-57 -32 -73 -35q-21 1 -171 258q-20 -30 -59.5 -69t-97.5 -88q-44 -81 -137 -93q11 -2 70 60q23 34 51.5 74t61.5 88q21 49 62 110q16 19 70 38 q56 21 56 45q21 -34 136 -256q23 -8 87 -61v-26z" />
<glyph unicode="&#xe3;" d="M84 0zM719 79q-4 -16 -61 -47q-28 -15 -48 -23.5t-31 -10.5q-6 1 -6 7q0 4 2 9t2 8q0 -3 -33 138q2 57 10.5 153.5t24.5 234.5q-131 -63 -292 -108q-17 -100 -26.5 -198.5t-11.5 -198.5q-34 6 -89 -9q-52 -13 -76 -32q12 34 12 309q78 420 23 614q21 66 14 188 q24 141 -7 174q0 15 57 36q52 36 88 42q0 -123 11 -148q15 4 40.5 9t61.5 13q34 10 159 87q70 46 138 46q3 -26 2 -37q1 28 3 -180q1 -208 -15 -334q4 -259 17 -419.5t36 -227.5q-14 -85 -5 -95zM543 1282q-87 -32 -249 -142q-18 -41 -2 -143q24 -259 -46 -514 q34 -12 46 -12q52 5 215 120q37 58 22 133q4 38 5 90t0 119t-1.5 138t-0.5 146q1 38 11 65zM717 1698q-11 -83 -101 -162q-93 -81 -185 -97q-56 10 -84 87q-29 77 -75 89q-20 -25 -41 -77q-23 -27 -76 -56q-51 -28 -66 -31l-3 5v1q0 10 14 38q43 54 149 109q106 56 132 104 q60 -4 90 -98t74 -74q13 34 24 90q7 6 22.5 19.5t38.5 34.5q48 42 87 18z" />
<glyph unicode="&#xe4;" d="M84 0zM719 79q-4 -16 -61 -47q-28 -15 -48 -23.5t-31 -10.5q-6 1 -6 7q0 4 2 9t2 8q0 -3 -33 138q2 57 10.5 153.5t24.5 234.5q-131 -63 -292 -108q-17 -100 -26.5 -198.5t-11.5 -198.5q-34 6 -89 -9q-52 -13 -76 -32q12 34 12 309q78 420 23 614q21 66 14 188 q24 141 -7 174q0 15 57 36q52 36 88 42q0 -123 11 -148q15 4 40.5 9t61.5 13q34 10 159 87q70 46 138 46q3 -26 2 -37q1 28 3 -180q1 -208 -15 -334q4 -259 17 -419.5t36 -227.5q-14 -85 -5 -95zM543 1282q-87 -32 -249 -142q-18 -41 -2 -143q24 -259 -46 -514 q34 -12 46 -12q52 5 215 120q37 58 22 133q4 38 5 90t0 119t-1.5 138t-0.5 146q1 38 11 65zM686 1531q0 -11 -58 -45q-56 -34 -74 -37q-4 1 -17.5 9.5t-36.5 24.5q-11 10 -29.5 22t-44.5 28q5 5 52 46q46 40 78 27q14 -1 82 -33q67 -30 48 -42zM356 1531q0 -12 -56 -47 t-79 -35q-26 11 -109 92q109 84 140 65q7 1 60 -24q53 -26 44 -51z" />
<glyph unicode="&#xe5;" d="M84 0zM719 79q-4 -16 -61 -47q-28 -15 -48 -23.5t-31 -10.5q-6 1 -6 7q0 4 2 9t2 8q0 -3 -33 138q2 57 10.5 153.5t24.5 234.5q-131 -63 -292 -108q-17 -100 -26.5 -198.5t-11.5 -198.5q-34 6 -89 -9q-52 -13 -76 -32q12 34 12 309q78 420 23 614q21 66 14 188 q24 141 -7 174q0 15 57 36q52 36 88 42q0 -123 11 -148q15 4 40.5 9t61.5 13q34 10 159 87q70 46 138 46q3 -26 2 -37q1 28 3 -180q1 -208 -15 -334q4 -259 17 -419.5t36 -227.5q-14 -85 -5 -95zM543 1282q-87 -32 -249 -142q-18 -41 -2 -143q24 -259 -46 -514 q34 -12 46 -12q52 5 215 120q37 58 22 133q4 38 5 90t0 119t-1.5 138t-0.5 146q1 38 11 65zM655 1521l-163 -77q3 37 -101 20q-18 16 -74 14q-44 0 -78 3q-5 -3 -72 -6q12 115 28 160q18 146 -38 172q111 106 138 87q6 0 98 -3q41 26 153 43q35 -14 72 -7q5 -62 -10 -159 q0 -164 47 -247zM481 1568q5 45 -10 135l2 26q0 72 10 112q-6 0 -169 -6q19 -39 17 -99q2 -26 -2.5 -68.5t-17.5 -100.5q144 15 170 1z" />
<glyph unicode="&#xe6;" horiz-adv-x="1215" d="M1130 183q-8 -72 -19 -110q-12 -30 -56 -53t-82 -20q-31 71 -174 94q-30 -17 -101 -26q-14 -21 -53 -49q-22 -8 -38.5 -13t-29.5 -6q-4 28 -12 137q2 82 4 173.5t6 194.5q-135 7 -336 -65q8 -116 -21 -257q16 -33 -1 -98q1 -26 -60 -42q-61 -17 -68 -45q-2 14 -3.5 34.5 t-1.5 47.5l13 167q24 393 91 647q-57 207 -60 360q-2 19 -2.5 25t0.5 -1q0 17 61 60q62 44 71 29q23 -12 27 -160q11 4 33.5 11t56.5 18q31 3 157 87q124 16 144 44l3 -3l-5 -103q101 5 200 72q180 58 247 32q-6 -2 -7 -3q-6 -5 -15 -12q-50 -32 -51 -102q-9 -6 -21 -103 q2 -22 -8 -48q-7 -22 -61 -50q-26 -14 -45.5 -22t-30.5 -10q-29 215 115 267q-70 -14 -151 -34t-175 -45q-17 -248 24 -420l-21 -53q8 -2 21 -2.5t32 -1.5q39 -2 46 -7q40 -8 120 6q81 14 102 11l2 -4q-9 -13 -43 -34q-46 -33 -90 -41q-92 -39 -186 -29q13 -117 19 -235 t6 -241q190 4 231 15q27 -7 61 -12q-4 32 -38 116q-12 81 2 116q-8 17 53 46q50 45 77 38l3 -3q5 -28 2 -86q32 -203 36 -199zM544 1273v5q-45 -15 -103 -36.5t-130 -50.5q-29 -121 -19 -213q-2 -114 -7 -229.5t-12 -234.5q0 -43 15 -43q56 1 229 60q40 196 14 196 q10 54 17 117.5t12 139.5t1 148t-17 141z" />
<glyph unicode="&#xe8;" horiz-adv-x="763" d="M84 0zM678 186q-9 -77 -18 -109q-11 -23 -59 -51q-46 -28 -77 -26q-40 78 -176 97q-28 -16 -124 -29q-69 -66 -113 -77q14 86 12 224q51 348 15 432q4 38 14 128.5t27 234.5q-63 115 -82 221q-2 16 -13 51q2 19 53 56q27 7 47 15t34 16q28 -22 23 -103q78 22 159.5 37 t169.5 25q47 35 65 37h29q-2 -5 -14 -17q-48 -40 -53 -83q-13 -48 -3 -94q-8 -48 -29 -79q-9 -23 -58 -51q-12 -4 -30.5 -13.5t-44.5 -23.5q12 214 73 266q-44 5 -108 -0.5t-150 -21.5q40 -354 -11 -494q51 -20 86 -26t45 -6q16 0 46 -1t75 -3q89 -3 106 24 q-7 -10 -16.5 -22.5t-22.5 -26.5q-59 -26 -96 -36q-64 -24 -203 -2q-35 -233 -12 -525q167 51 230 42q19 -5 34 -9t26 -8q0 25 -24 120q2 32 0 62t-7 59q0 18 70 55q71 39 69 25q0 -10 17 -83q12 -186 19 -207zM455 1531q-3 -15 -59 -47q-57 -32 -75 -35q-4 1 -36 70 q-12 42 -43 109t-82 162l7 -24q-2 23 53 42q28 10 48.5 19.5t33.5 17.5q16 0 101 -121q54 -190 52 -193z" />
<glyph unicode="&#xe9;" horiz-adv-x="763" d="M84 0zM678 186q-9 -77 -18 -109q-11 -23 -59 -51q-46 -28 -77 -26q-40 78 -176 97q-28 -16 -124 -29q-69 -66 -113 -77q14 86 12 224q51 348 15 432q4 38 14 128.5t27 234.5q-63 115 -82 221q-2 16 -13 51q2 19 53 56q27 7 47 15t34 16q28 -22 23 -103q78 22 159.5 37 t169.5 25q47 35 65 37h29q-2 -5 -14 -17q-48 -40 -53 -83q-13 -48 -3 -94q-8 -48 -29 -79q-9 -23 -58 -51q-12 -4 -30.5 -13.5t-44.5 -23.5q12 214 73 266q-44 5 -108 -0.5t-150 -21.5q40 -354 -11 -494q51 -20 86 -26t45 -6q16 0 46 -1t75 -3q89 -3 106 24 q-7 -10 -16.5 -22.5t-22.5 -26.5q-59 -26 -96 -36q-64 -24 -203 -2q-35 -233 -12 -525q167 51 230 42q19 -5 34 -9t26 -8q0 25 -24 120q2 32 0 62t-7 59q0 18 70 55q71 39 69 25q0 -10 17 -83q12 -186 19 -207zM686 1843q-17 -27 -39 -75q-17 -37 -31.5 -68.5t-25.5 -59.5 q-43 -82 -68 -114q-24 -28 -104 -48q-27 -22 -68 -24q-2 -4 -2 -2q0 3 16 28q8 14 30.5 54.5t59.5 109.5q7 30 75 105q3 36 61 79q57 43 89 20q6 -2 7 -5z" />
<glyph unicode="&#xea;" horiz-adv-x="763" d="M81 0zM678 186q-9 -77 -18 -109q-11 -23 -59 -51q-46 -28 -77 -26q-40 78 -176 97q-28 -16 -124 -29q-69 -66 -113 -77q14 86 12 224q51 348 15 432q4 38 14 128.5t27 234.5q-63 115 -82 221q-2 16 -13 51q2 19 53 56q27 7 47 15t34 16q28 -22 23 -103q78 22 159.5 37 t169.5 25q47 35 65 37h29q-2 -5 -14 -17q-48 -40 -53 -83q-13 -48 -3 -94q-8 -48 -29 -79q-9 -23 -58 -51q-12 -4 -30.5 -13.5t-44.5 -23.5q12 214 73 266q-44 5 -108 -0.5t-150 -21.5q40 -354 -11 -494q51 -20 86 -26t45 -6q16 0 46 -1t75 -3q89 -3 106 24 q-7 -10 -16.5 -22.5t-22.5 -26.5q-59 -26 -96 -36q-64 -24 -203 -2q-35 -233 -12 -525q167 51 230 42q19 -5 34 -9t26 -8q0 25 -24 120q2 32 0 62t-7 59q0 18 70 55q71 39 69 25q0 -10 17 -83q12 -186 19 -207zM675 1529q0 -12 -56 -45q-57 -32 -73 -35q-21 1 -171 258 q-20 -30 -59.5 -69t-97.5 -88q-44 -81 -137 -93q11 -2 70 60q23 34 51.5 74t61.5 88q21 49 62 110q16 19 70 38q56 21 56 45q21 -34 136 -256q23 -8 87 -61v-26z" />
<glyph unicode="&#xeb;" horiz-adv-x="763" d="M84 0zM678 186q-9 -77 -18 -109q-11 -23 -59 -51q-46 -28 -77 -26q-40 78 -176 97q-28 -16 -124 -29q-69 -66 -113 -77q14 86 12 224q51 348 15 432q4 38 14 128.5t27 234.5q-63 115 -82 221q-2 16 -13 51q2 19 53 56q27 7 47 15t34 16q28 -22 23 -103q78 22 159.5 37 t169.5 25q47 35 65 37h29q-2 -5 -14 -17q-48 -40 -53 -83q-13 -48 -3 -94q-8 -48 -29 -79q-9 -23 -58 -51q-12 -4 -30.5 -13.5t-44.5 -23.5q12 214 73 266q-44 5 -108 -0.5t-150 -21.5q40 -354 -11 -494q51 -20 86 -26t45 -6q16 0 46 -1t75 -3q89 -3 106 24 q-7 -10 -16.5 -22.5t-22.5 -26.5q-59 -26 -96 -36q-64 -24 -203 -2q-35 -233 -12 -525q167 51 230 42q19 -5 34 -9t26 -8q0 25 -24 120q2 32 0 62t-7 59q0 18 70 55q71 39 69 25q0 -10 17 -83q12 -186 19 -207zM667 1531q0 -11 -58 -45q-56 -34 -74 -37q-4 1 -17.5 9.5 t-36.5 24.5q-11 10 -29.5 22t-44.5 28q5 5 52 46q46 40 78 27q14 -1 82 -33q67 -30 48 -42zM337 1531q0 -12 -56 -47t-79 -35q-26 11 -109 92q109 84 140 65q7 1 60 -24q53 -26 44 -51z" />
<glyph unicode="&#xec;" horiz-adv-x="340" d="M0 5zM282 788q-38 -47 -29 -343q-37 -398 -24 -358q-8 -13 -21 -27t-32 -28q-36 -29 -87 -27q-4 0 -4 4q0 -6 1.5 -1.5t3.5 19.5q5 23 18 226q25 185 29 309t-12 191q12 126 15 319q-40 76 -50 155q-1 22 -1 37v23q0 19 53 54q52 9 83 29q75 -293 57 -582zM246 1531 q-3 -15 -59 -47q-57 -32 -75 -35q-4 1 -36 70q-12 42 -43 109t-82 162l7 -24q-2 23 53 42q28 10 48.5 19.5t33.5 17.5q16 0 101 -121q54 -190 52 -193z" />
<glyph unicode="&#xed;" horiz-adv-x="340" d="M85 5zM282 788q-38 -47 -29 -343q-37 -398 -24 -358q-8 -13 -21 -27t-32 -28q-36 -29 -87 -27q-4 0 -4 4q0 -6 1.5 -1.5t3.5 19.5q5 23 18 226q25 185 29 309t-12 191q12 126 15 319q-40 76 -50 155q-1 22 -1 37v23q0 19 53 54q52 9 83 29q75 -293 57 -582zM441 1843 q-17 -27 -39 -75q-17 -37 -31.5 -68.5t-25.5 -59.5q-43 -82 -68 -114q-24 -28 -104 -48q-27 -22 -68 -24q-2 -4 -2 -2q0 3 16 28q8 14 30.5 54.5t59.5 109.5q7 30 75 105q3 36 61 79q57 43 89 20q6 -2 7 -5z" />
<glyph unicode="&#xee;" horiz-adv-x="340" d="M0 5zM282 788q-38 -47 -29 -343q-37 -398 -24 -358q-8 -13 -21 -27t-32 -28q-36 -29 -87 -27q-4 0 -4 4q0 -6 1.5 -1.5t3.5 19.5q5 23 18 226q25 185 29 309t-12 191q12 126 15 319q-40 76 -50 155q-1 22 -1 37v23q0 19 53 54q52 9 83 29q75 -293 57 -582zM463 1529 q0 -12 -56 -45q-57 -32 -73 -35q-21 1 -171 258q-20 -30 -59.5 -69t-97.5 -88q-44 -81 -137 -93q11 -2 70 60q23 34 51.5 74t61.5 88q21 49 62 110q16 19 70 38q56 21 56 45q21 -34 136 -256q23 -8 87 -61v-26z" />
<glyph unicode="&#xef;" horiz-adv-x="340" d="M0 5zM282 788q-38 -47 -29 -343q-37 -398 -24 -358q-8 -13 -21 -27t-32 -28q-36 -29 -87 -27q-4 0 -4 4q0 -6 1.5 -1.5t3.5 19.5q5 23 18 226q25 185 29 309t-12 191q12 126 15 319q-40 76 -50 155q-1 22 -1 37v23q0 19 53 54q52 9 83 29q75 -293 57 -582zM455 1531 q0 -11 -58 -45q-56 -34 -74 -37q-4 1 -17.5 9.5t-36.5 24.5q-11 10 -29.5 22t-44.5 28q5 5 52 46q46 40 78 27q14 -1 82 -33q67 -30 48 -42zM125 1531q0 -12 -56 -47t-79 -35q-26 11 -109 92q109 84 140 65q7 1 60 -24q53 -26 44 -51z" />
<glyph unicode="&#xf1;" horiz-adv-x="799" d="M82 0zM715 80q-3 -15 -58 -46q-51 -33 -75 -34q-12 16 -7 70q-62 499 -3 693q-50 67 -60 240q-10 171 34 260q-73 -24 -259 -111q7 -50 3 -174q15 -182 21 -449q-96 -216 -86 -353q7 -45 -5 -94q-3 -20 -65 -46q-41 -39 -73 -31q4 10 3 319q8 126 17 263t19 287 q8 85 15.5 143.5t13.5 91.5q-39 195 -25 178q0 20 63 53q46 25 78 30q-1 -32 4 -66.5t15 -72.5q25 -9 82 5q41 13 167 63q100 73 140 56h7l-90 -628q11 -267 105 -532q10 -51 14.5 -79.5t4.5 -35.5zM716 1698q-11 -83 -101 -162q-93 -81 -185 -97q-56 10 -84 87 q-29 77 -75 89q-20 -25 -41 -77q-23 -27 -76 -56q-51 -28 -66 -31l-3 5v1q0 10 14 38q43 54 149 109q106 56 132 104q60 -4 90 -98t74 -74q13 34 24 90q7 6 22.5 19.5t38.5 34.5q48 42 87 18z" />
<glyph unicode="&#xf2;" horiz-adv-x="780" d="M85 0zM696 84q-17 -19 -71 -52q-53 -30 -82 -35q-6 4 -7 27q-69 66 -261 94q-34 -20 -106 -28q-19 -14 -33.5 -22t-24.5 -12q4 40 12 180q22 140 26.5 258.5t-6.5 217.5q33 258 -20 385q-15 17 -29 46q-9 16 -9 33q0 16 53 60t86 20q126 59 469 79l-48 18 q-78 -594 -8 -551q-26 -412 92 -696zM519 167q-14 147 -22 294t-12 298q46 502 27 526q-53 -14 -312 -48q55 -59 63 -186q-39 -303 7 -331q3 -112 -5.5 -240t-28.5 -275q116 -48 179 -24q41 -13 104 -14zM464 1531q-3 -15 -59 -47q-57 -32 -75 -35q-4 1 -36 70 q-12 42 -43 109t-82 162l7 -24q-2 23 53 42q28 10 48.5 19.5t33.5 17.5q16 0 101 -121q54 -190 52 -193z" />
<glyph unicode="&#xf3;" horiz-adv-x="780" d="M85 0zM696 84q-17 -19 -71 -52q-53 -30 -82 -35q-6 4 -7 27q-69 66 -261 94q-34 -20 -106 -28q-19 -14 -33.5 -22t-24.5 -12q4 40 12 180q22 140 26.5 258.5t-6.5 217.5q33 258 -20 385q-15 17 -29 46q-9 16 -9 33q0 16 53 60t86 20q126 59 469 79l-48 18 q-78 -594 -8 -551q-26 -412 92 -696zM519 167q-14 147 -22 294t-12 298q46 502 27 526q-53 -14 -312 -48q55 -59 63 -186q-39 -303 7 -331q3 -112 -5.5 -240t-28.5 -275q116 -48 179 -24q41 -13 104 -14zM695 1843q-17 -27 -39 -75q-17 -37 -31.5 -68.5t-25.5 -59.5 q-43 -82 -68 -114q-24 -28 -104 -48q-27 -22 -68 -24q-2 -4 -2 -2q0 3 16 28q8 14 30.5 54.5t59.5 109.5q7 30 75 105q3 36 61 79q57 43 89 20q6 -2 7 -5z" />
<glyph unicode="&#xf4;" horiz-adv-x="780" d="M85 0zM696 84q-17 -19 -71 -52q-53 -30 -82 -35q-6 4 -7 27q-69 66 -261 94q-34 -20 -106 -28q-19 -14 -33.5 -22t-24.5 -12q4 40 12 180q22 140 26.5 258.5t-6.5 217.5q33 258 -20 385q-15 17 -29 46q-9 16 -9 33q0 16 53 60t86 20q126 59 469 79l-48 18 q-78 -594 -8 -551q-26 -412 92 -696zM519 167q-14 147 -22 294t-12 298q46 502 27 526q-53 -14 -312 -48q55 -59 63 -186q-39 -303 7 -331q3 -112 -5.5 -240t-28.5 -275q116 -48 179 -24q41 -13 104 -14zM683 1529q0 -12 -56 -45q-57 -32 -73 -35q-21 1 -171 258 q-20 -30 -59.5 -69t-97.5 -88q-44 -81 -137 -93q11 -2 70 60q23 34 51.5 74t61.5 88q21 49 62 110q16 19 70 38q56 21 56 45q21 -34 136 -256q23 -8 87 -61v-26z" />
<glyph unicode="&#xf5;" horiz-adv-x="780" d="M76 0zM696 84q-17 -19 -71 -52q-53 -30 -82 -35q-6 4 -7 27q-69 66 -261 94q-34 -20 -106 -28q-19 -14 -33.5 -22t-24.5 -12q4 40 12 180q22 140 26.5 258.5t-6.5 217.5q33 258 -20 385q-15 17 -29 46q-9 16 -9 33q0 16 53 60t86 20q126 59 469 79l-48 18 q-78 -594 -8 -551q-26 -412 92 -696zM519 167q-14 147 -22 294t-12 298q46 502 27 526q-53 -14 -312 -48q55 -59 63 -186q-39 -303 7 -331q3 -112 -5.5 -240t-28.5 -275q116 -48 179 -24q41 -13 104 -14zM707 1698q-11 -83 -101 -162q-93 -81 -185 -97q-56 10 -84 87 q-29 77 -75 89q-20 -25 -41 -77q-23 -27 -76 -56q-51 -28 -66 -31l-3 5v1q0 10 14 38q43 54 149 109q106 56 132 104q60 -4 90 -98t74 -74q13 34 24 90q7 6 22.5 19.5t38.5 34.5q48 42 87 18z" />
<glyph unicode="&#xf6;" horiz-adv-x="780" d="M85 0zM696 84q-17 -19 -71 -52q-53 -30 -82 -35q-6 4 -7 27q-69 66 -261 94q-34 -20 -106 -28q-19 -14 -33.5 -22t-24.5 -12q4 40 12 180q22 140 26.5 258.5t-6.5 217.5q33 258 -20 385q-15 17 -29 46q-9 16 -9 33q0 16 53 60t86 20q126 59 469 79l-48 18 q-78 -594 -8 -551q-26 -412 92 -696zM519 167q-14 147 -22 294t-12 298q46 502 27 526q-53 -14 -312 -48q55 -59 63 -186q-39 -303 7 -331q3 -112 -5.5 -240t-28.5 -275q116 -48 179 -24q41 -13 104 -14zM676 1531q0 -11 -58 -45q-56 -34 -74 -37q-4 1 -17.5 9.5t-36.5 24.5 q-11 10 -29.5 22t-44.5 28q5 5 52 46q46 40 78 27q14 -1 82 -33q67 -30 48 -42zM346 1531q0 -12 -56 -47t-79 -35q-26 11 -109 92q109 84 140 65q7 1 60 -24q53 -26 44 -51z" />
<glyph unicode="&#xf7;" horiz-adv-x="891" d="M563 783q-8 -6 -60 -39q-53 -32 -71 -36q-8 1 -27 9t-50 22q-59 28 -75 44l-2 4q0 10 51 52q52 42 81 28q-2 0 87 -39q22 -17 66 -45zM768 654q-10 -25 -55 -67q-47 -44 -82 -22q-3 1 -86 18q-82 16 -152 -15q-110 17 -175 12q-102 -19 -81 -29q-8 0 -9 4q4 13 24 25 q107 57 362 69q31 6 64.5 8t66 1.5t64 -2.5t59.5 -2zM543 432q1 -28 -53 -60q-51 -30 -77 -37q-15 1 -69 48q-55 47 -30 50q-2 13 48 45q63 37 85 36z" />
<glyph unicode="&#xf8;" horiz-adv-x="780" d="M696 84q-25 -23 -74 -53q-25 -14 -44.5 -23t-34.5 -11q-6 4 -7 27q-69 66 -261 94q-34 -20 -106 -28q-30 -24 -58 -34q4 40 12 180q20 139 26 267.5t-4 249.5q26 240 -5 318q-32 80 -55 105q0 17 61 41q63 26 78 41q76 28 171 62t211 76l41 -46q-63 -428 -9 -548 q-42 -336 -3 -734zM500 1248q-51 10 -222 -35q-29 -42 -24 -146q5 -308 24 -470q27 87 125 290q35 247 97 361zM529 176q-20 253 -102 689q58 -12 -86 -399q-42 -39 -82 -178q0 18 -30 -145q103 46 181 43q51 -15 119 -10z" />
<glyph unicode="&#xf9;" d="M85 3zM717 1362q0 10 -7 -22q-2 -32 -3 -84q-11 -62 -2 -177q-68 -290 -5 -589q-69 -184 -50 -275q10 -13 24 -65q0 -46 4 -66q-5 -23 -57 -65q-50 -24 -90 -16q-8 51 -67 64q-53 34 -102 42q-50 -8 -111 -34q-7 -4 -20 -15t-32 -31q-38 -39 -83 -26q-4 60 -5 135.5 t0 168.5q-13 306 -6 533t35 379q-58 52 -55 68q0 19 63 51q51 30 77 31q-26 -297 84 -654q-19 -118 -45.5 -262t-60.5 -318q235 68 318 44q-13 138 -9 193q6 128 -1.5 281t-29.5 335q29 90 51 169.5t38 151.5q15 -3 55 34q42 37 87 27q5 -5 5 -8zM476 1531q-3 -15 -59 -47 q-57 -32 -75 -35q-4 1 -36 70q-12 42 -43 109t-82 162l7 -24q-2 23 53 42q28 10 48.5 19.5t33.5 17.5q16 0 101 -121q54 -190 52 -193z" />
<glyph unicode="&#xfa;" d="M85 3zM717 1362q0 10 -7 -22q-2 -32 -3 -84q-11 -62 -2 -177q-68 -290 -5 -589q-69 -184 -50 -275q10 -13 24 -65q0 -46 4 -66q-5 -23 -57 -65q-50 -24 -90 -16q-8 51 -67 64q-53 34 -102 42q-50 -8 -111 -34q-7 -4 -20 -15t-32 -31q-38 -39 -83 -26q-4 60 -5 135.5 t0 168.5q-13 306 -6 533t35 379q-58 52 -55 68q0 19 63 51q51 30 77 31q-26 -297 84 -654q-19 -118 -45.5 -262t-60.5 -318q235 68 318 44q-13 138 -9 193q6 128 -1.5 281t-29.5 335q29 90 51 169.5t38 151.5q15 -3 55 34q42 37 87 27q5 -5 5 -8zM707 1843q-17 -27 -39 -75 q-17 -37 -31.5 -68.5t-25.5 -59.5q-43 -82 -68 -114q-24 -28 -104 -48q-27 -22 -68 -24q-2 -4 -2 -2q0 3 16 28q8 14 30.5 54.5t59.5 109.5q7 30 75 105q3 36 61 79q57 43 89 20q6 -2 7 -5z" />
<glyph unicode="&#xfb;" d="M85 3zM717 1362q0 10 -7 -22q-2 -32 -3 -84q-11 -62 -2 -177q-68 -290 -5 -589q-69 -184 -50 -275q10 -13 24 -65q0 -46 4 -66q-5 -23 -57 -65q-50 -24 -90 -16q-8 51 -67 64q-53 34 -102 42q-50 -8 -111 -34q-7 -4 -20 -15t-32 -31q-38 -39 -83 -26q-4 60 -5 135.5 t0 168.5q-13 306 -6 533t35 379q-58 52 -55 68q0 19 63 51q51 30 77 31q-26 -297 84 -654q-19 -118 -45.5 -262t-60.5 -318q235 68 318 44q-13 138 -9 193q6 128 -1.5 281t-29.5 335q29 90 51 169.5t38 151.5q15 -3 55 34q42 37 87 27q5 -5 5 -8zM694 1529q0 -12 -56 -45 q-57 -32 -73 -35q-21 1 -171 258q-20 -30 -59.5 -69t-97.5 -88q-44 -81 -137 -93q11 -2 70 60q23 34 51.5 74t61.5 88q21 49 62 110q16 19 70 38q56 21 56 45q21 -34 136 -256q23 -8 87 -61v-26z" />
<glyph unicode="&#xfc;" d="M85 3zM717 1362q0 10 -7 -22q-2 -32 -3 -84q-11 -62 -2 -177q-68 -290 -5 -589q-69 -184 -50 -275q10 -13 24 -65q0 -46 4 -66q-5 -23 -57 -65q-50 -24 -90 -16q-8 51 -67 64q-53 34 -102 42q-50 -8 -111 -34q-7 -4 -20 -15t-32 -31q-38 -39 -83 -26q-4 60 -5 135.5 t0 168.5q-13 306 -6 533t35 379q-58 52 -55 68q0 19 63 51q51 30 77 31q-26 -297 84 -654q-19 -118 -45.5 -262t-60.5 -318q235 68 318 44q-13 138 -9 193q6 128 -1.5 281t-29.5 335q29 90 51 169.5t38 151.5q15 -3 55 34q42 37 87 27q5 -5 5 -8zM686 1531q0 -11 -58 -45 q-56 -34 -74 -37q-4 1 -17.5 9.5t-36.5 24.5q-11 10 -29.5 22t-44.5 28q5 5 52 46q46 40 78 27q14 -1 82 -33q67 -30 48 -42zM356 1531q0 -12 -56 -47t-79 -35q-26 11 -109 92q109 84 140 65q7 1 60 -24q53 -26 44 -51z" />
<glyph unicode="&#xfd;" horiz-adv-x="782" d="M46 0zM696 1364q-4 -29 -6 -64.5t-4 -77.5q-24 -150 -19 -143q-23 -330 33 -686q-72 -167 -31 -282q-13 -31 -12 -31q0 -17 -49 -47q-48 -30 -87 -33q-6 0 -4 17q-35 62 -147 58q-62 26 -123 17q-5 -32 -61 -59q-56 -26 -72 -30q-3 24 -1.5 64.5t8.5 91.5q9 31 -5 54 q-15 35 -13 46q3 11 57 41q67 31 81 36q20 -20 17 -102q4 -55 0 -89q193 63 234 39q10 88 12.5 153.5t-2.5 111.5q-16 4 -71 34q-56 31 -105 20q-67 9 -147 -23q-43 -6 -112 -38q-2 75 3 209q4 133 17 146q-39 239 -15 352q-4 -7 -24 58q-12 45 -2 70q-3 23 46 59 q69 17 84 29q20 -28 29 -266q-2 -51 -1.5 -101.5t3.5 -101.5q5 -55 6.5 -131t-1.5 -176q45 10 106 8.5t139 -12.5q-1 4 41 2q-1 109 84 422q-47 150 -36 290q13 5 32.5 15t45.5 25q51 31 72 23v2zM696 1843q-17 -27 -39 -75q-17 -37 -31.5 -68.5t-25.5 -59.5 q-43 -82 -68 -114q-24 -28 -104 -48q-27 -22 -68 -24q-2 -4 -2 -2q0 3 16 28q8 14 30.5 54.5t59.5 109.5q7 30 75 105q3 36 61 79q57 43 89 20q6 -2 7 -5z" />
<glyph unicode="&#xfe;" horiz-adv-x="780" d="M720 903q-19 -82 -16 -268q4 -183 -9 -300q4 -4 -49 -38t-76 -31q-1 0 -9 2q-114 97 -291 78q11 3 7.5 3.5t-21.5 -1.5q-5 -106 -6.5 -165.5t-0.5 -74.5q-4 -11 -5.5 -18.5t-2.5 -9.5q-5 -25 -64 -41q-57 -16 -78 -37q2 2 -5 213q46 273 5 457q1 205 -9 473q28 36 0 99 q-10 48 -5 39q0 24 67 52q69 29 70 30q24 -30 24 -146q12 -98 7 -186q149 53 358 150q37 -14 56.5 -21t23.5 -8q5 0 9 -46q7 -52 11.5 -103t8.5 -102zM568 847q2 49 0 106.5t-8 125.5q-99 -50 -343 -65q41 -123 51 -292q-39 -142 -9 -280q115 -10 157 -9q69 0 147 -22 q-4 42 -9 99t-10 132q37 102 24 205z" />
<glyph unicode="&#xff;" horiz-adv-x="782" d="M46 0zM696 1364q-4 -29 -6 -64.5t-4 -77.5q-24 -150 -19 -143q-23 -330 33 -686q-72 -167 -31 -282q-13 -31 -12 -31q0 -17 -49 -47q-48 -30 -87 -33q-6 0 -4 17q-35 62 -147 58q-62 26 -123 17q-5 -32 -61 -59q-56 -26 -72 -30q-3 24 -1.5 64.5t8.5 91.5q9 31 -5 54 q-15 35 -13 46q3 11 57 41q67 31 81 36q20 -20 17 -102q4 -55 0 -89q193 63 234 39q10 88 12.5 153.5t-2.5 111.5q-16 4 -71 34q-56 31 -105 20q-67 9 -147 -23q-43 -6 -112 -38q-2 75 3 209q4 133 17 146q-39 239 -15 352q-4 -7 -24 58q-12 45 -2 70q-3 23 46 59 q69 17 84 29q20 -28 29 -266q-2 -51 -1.5 -101.5t3.5 -101.5q5 -55 6.5 -131t-1.5 -176q45 10 106 8.5t139 -12.5q-1 4 41 2q-1 109 84 422q-47 150 -36 290q13 5 32.5 15t45.5 25q51 31 72 23v2zM676 1531q0 -11 -58 -45q-56 -34 -74 -37q-4 1 -17.5 9.5t-36.5 24.5 q-11 10 -29.5 22t-44.5 28q5 5 52 46q46 40 78 27q14 -1 82 -33q67 -30 48 -42zM346 1531q0 -12 -56 -47t-79 -35q-26 11 -109 92q109 84 140 65q7 1 60 -24q53 -26 44 -51z" />
<glyph unicode="&#x152;" horiz-adv-x="1181" d="M1099 179q-6 -38 -10.5 -64t-8.5 -42q-11 -25 -59 -50q-46 -25 -81 -23q-31 73 -175 96q-35 -17 -99 -24q-54 -49 -125 -84q-5 13 -5 29v5q-83 65 -256 31q-38 14 -65 22t-41 12q-11 -6 -27.5 -14.5t-38.5 -19.5q0 -5 6.5 51.5t19.5 174.5q26 237 -25 366q12 88 -13 381 q30 20 12 58q-6 20 -12.5 41t-13.5 42l3 12q4 36 227 123q239 84 326 74q2 -14 3 -33.5t1 -42.5q5 -42 -2 -68q86 45 230 75q135 53 210 62l2 -7q-1 -3 -14 -17q-58 -55 -92 -215q16 1 12 -31q-7 -27 -70 -49q-62 -21 -70 -33q23 177 82 273q-212 -59 -273 -111 q-16 -101 -26 -191t-15 -171l26 -98q93 0 87 -2q39 -5 103 17t117 5l7 -7q-7 -10 -51 -31q-13 -24 -93 -56q-10 1 -56 -1t-130 -7q56 -335 45 -497q163 40 249 27q7 -2 16.5 -5.5t22.5 -7.5q-2 16 -8.5 47t-16.5 77q-24 70 -9 115q-3 16 60 54q64 38 71 29q4 -7 16 -92 q-2 -12 12 -87q14 -71 15 -118zM519 172q8 114 16 258.5t15 323.5q-16 85 -40.5 219.5t-58.5 321.5q-35 -17 -80 -39t-101 -48q-19 -34 -11 -162q-12 -215 11 -329q-8 -78 -2.5 -217t24.5 -343q8 2 37.5 4t80.5 6q32 2 59 3t50 2z" />
<glyph unicode="&#x153;" horiz-adv-x="1181" d="M1099 179q-6 -38 -10.5 -64t-8.5 -42q-11 -25 -59 -50q-46 -25 -81 -23q-31 73 -175 96q-35 -17 -99 -24q-54 -49 -125 -84q-5 13 -5 29v5q-83 65 -256 31q-38 14 -65 22t-41 12q-11 -6 -27.5 -14.5t-38.5 -19.5q0 -5 6.5 51.5t19.5 174.5q26 237 -25 366q12 88 -13 381 q30 20 12 58q-6 20 -12.5 41t-13.5 42l3 12q4 36 227 123q239 84 326 74q2 -14 3 -33.5t1 -42.5q5 -42 -2 -68q86 45 230 75q135 53 210 62l2 -7q-1 -3 -14 -17q-58 -55 -92 -215q16 1 12 -31q-7 -27 -70 -49q-62 -21 -70 -33q23 177 82 273q-212 -59 -273 -111 q-16 -101 -26 -191t-15 -171l26 -98q93 0 87 -2q39 -5 103 17t117 5l7 -7q-7 -10 -51 -31q-13 -24 -93 -56q-10 1 -56 -1t-130 -7q56 -335 45 -497q163 40 249 27q7 -2 16.5 -5.5t22.5 -7.5q-2 16 -8.5 47t-16.5 77q-24 70 -9 115q-3 16 60 54q64 38 71 29q4 -7 16 -92 q-2 -12 12 -87q14 -71 15 -118zM519 172q8 114 16 258.5t15 323.5q-16 85 -40.5 219.5t-58.5 321.5q-35 -17 -80 -39t-101 -48q-19 -34 -11 -162q-12 -215 11 -329q-8 -78 -2.5 -217t24.5 -343q8 2 37.5 4t80.5 6q32 2 59 3t50 2z" />
<glyph unicode="&#x178;" horiz-adv-x="782" d="M46 0zM696 1364q-4 -29 -6 -64.5t-4 -77.5q-24 -150 -19 -143q-23 -330 33 -686q-72 -167 -31 -282q-13 -31 -12 -31q0 -17 -49 -47q-48 -30 -87 -33q-6 0 -4 17q-35 62 -147 58q-62 26 -123 17q-5 -32 -61 -59q-56 -26 -72 -30q-3 24 -1.5 64.5t8.5 91.5q9 31 -5 54 q-15 35 -13 46q3 11 57 41q67 31 81 36q20 -20 17 -102q4 -55 0 -89q193 63 234 39q10 88 12.5 153.5t-2.5 111.5q-16 4 -71 34q-56 31 -105 20q-67 9 -147 -23q-43 -6 -112 -38q-2 75 3 209q4 133 17 146q-39 239 -15 352q-4 -7 -24 58q-12 45 -2 70q-3 23 46 59 q69 17 84 29q20 -28 29 -266q-2 -51 -1.5 -101.5t3.5 -101.5q5 -55 6.5 -131t-1.5 -176q45 10 106 8.5t139 -12.5q-1 4 41 2q-1 109 84 422q-47 150 -36 290q13 5 32.5 15t45.5 25q51 31 72 23v2zM676 1531q0 -11 -58 -45q-56 -34 -74 -37q-4 1 -17.5 9.5t-36.5 24.5 q-11 10 -29.5 22t-44.5 28q5 5 52 46q46 40 78 27q14 -1 82 -33q67 -30 48 -42zM346 1531q0 -12 -56 -47t-79 -35q-26 11 -109 92q109 84 140 65q7 1 60 -24q53 -26 44 -51z" />
<glyph unicode="&#x2c6;" horiz-adv-x="841" d="M713 1529q0 -12 -56 -45q-57 -32 -73 -35q-21 1 -171 258q-20 -30 -59.5 -69t-97.5 -88q-44 -81 -137 -93q11 -2 70 60q23 34 51.5 74t61.5 88q21 49 62 110q16 19 70 38q56 21 56 45q21 -34 136 -256q23 -8 87 -61v-26z" />
<glyph unicode="&#x2da;" horiz-adv-x="744" d="M626 1521l-163 -77q3 37 -101 20q-18 16 -74 14q-44 0 -78 3q-5 -3 -72 -6q12 115 28 160q18 146 -38 172q111 106 138 87q6 0 98 -3q41 26 153 43q35 -14 72 -7q5 -62 -10 -159q0 -164 47 -247zM452 1568q5 45 -10 135l2 26q0 72 10 112q-6 0 -169 -6q19 -39 17 -99 q2 -26 -2.5 -68.5t-17.5 -100.5q144 15 170 1z" />
<glyph unicode="&#x2dc;" horiz-adv-x="886" d="M759 1698q-11 -83 -101 -162q-93 -81 -185 -97q-56 10 -84 87q-29 77 -75 89q-20 -25 -41 -77q-23 -27 -76 -56q-51 -28 -66 -31l-3 5v1q0 10 14 38q43 54 149 109q106 56 132 104q60 -4 90 -98t74 -74q13 34 24 90q7 6 22.5 19.5t38.5 34.5q48 42 87 18z" />
<glyph unicode="&#x2000;" horiz-adv-x="967" />
<glyph unicode="&#x2001;" horiz-adv-x="1934" />
<glyph unicode="&#x2002;" horiz-adv-x="967" />
<glyph unicode="&#x2003;" horiz-adv-x="1934" />
<glyph unicode="&#x2004;" horiz-adv-x="644" />
<glyph unicode="&#x2005;" horiz-adv-x="483" />
<glyph unicode="&#x2006;" horiz-adv-x="322" />
<glyph unicode="&#x2007;" horiz-adv-x="322" />
<glyph unicode="&#x2008;" horiz-adv-x="241" />
<glyph unicode="&#x2009;" horiz-adv-x="386" />
<glyph unicode="&#x200a;" horiz-adv-x="107" />
<glyph unicode="&#x2010;" horiz-adv-x="836" d="M708 727q-2 -16 -54 -44q-54 -30 -77 -38q-64 -10 -191 -12q-60 1 -110 2t-92 3q-15 -11 -58 -12q2 0 2 2q2 17 58 44q56 38 73 35q20 1 104 -6.5t234 -21.5q113 83 111 53v-5z" />
<glyph unicode="&#x2011;" horiz-adv-x="836" d="M708 727q-2 -16 -54 -44q-54 -30 -77 -38q-64 -10 -191 -12q-60 1 -110 2t-92 3q-15 -11 -58 -12q2 0 2 2q2 17 58 44q56 38 73 35q20 1 104 -6.5t234 -21.5q113 83 111 53v-5z" />
<glyph unicode="&#x2012;" horiz-adv-x="836" d="M708 727q-2 -16 -54 -44q-54 -30 -77 -38q-64 -10 -191 -12q-60 1 -110 2t-92 3q-15 -11 -58 -12q2 0 2 2q2 17 58 44q56 38 73 35q20 1 104 -6.5t234 -21.5q113 83 111 53v-5z" />
<glyph unicode="&#x2013;" horiz-adv-x="836" d="M708 727q-2 -16 -54 -44q-54 -30 -77 -38q-64 -10 -191 -12q-60 1 -110 2t-92 3q-15 -11 -58 -12q2 0 2 2q2 17 58 44q56 38 73 35q20 1 104 -6.5t234 -21.5q113 83 111 53v-5z" />
<glyph unicode="&#x2014;" horiz-adv-x="836" d="M708 727q-2 -16 -54 -44q-54 -30 -77 -38q-64 -10 -191 -12q-60 1 -110 2t-92 3q-15 -11 -58 -12q2 0 2 2q2 17 58 44q56 38 73 35q20 1 104 -6.5t234 -21.5q113 83 111 53v-5z" />
<glyph unicode="&#x2018;" horiz-adv-x="521" d="M393 1120q-1 -16 -57 -46q-54 -30 -77 -36q-47 142 -128 242q4 19 54 63q51 43 76 24q3 -1 12 -8q21 -27 157 -229z" />
<glyph unicode="&#x2019;" horiz-adv-x="553" d="M425 1364q-41 -71 -63 -133q-53 -113 -74 -122q-9 -8 -25.5 -17.5t-39.5 -22.5q-47 -26 -92 -21q-3 -2 -3 3q0 -4 32 36q22 37 48 102q25 64 48 108q10 12 56 22q31 12 61 36t45 10q4 0 7 -1z" />
<glyph unicode="&#x201a;" horiz-adv-x="553" d="M425 143q-41 -71 -63 -133q-53 -111 -74 -119q-16 -15 -65 -40q-46 -25 -92 -22q-3 -2 -3 4q0 -5 32 36q23 39 48 100q25 63 48 108q10 12 56 22q31 12 61 36t45 10q1 0 7 -2z" />
<glyph unicode="&#x201c;" horiz-adv-x="814" d="M686 1121q-2 -17 -56 -47q-53 -30 -79 -38l-5 5q-61 121 -94 191q-29 29 -41 55q-5 12 47 43q54 33 83 34q2 2 7 0q21 -19 82 -128q71 -126 56 -115zM445 1097q-37 12 -94 -11q-56 -23 -71 -45l-7 7q-126 281 -137 266q-11 -16 45 4q51 49 85 42h2q36 -88 177 -263z" />
<glyph unicode="&#x201d;" horiz-adv-x="823" d="M695 1365q-8 -17 -63 -120q-56 -105 -74 -124q-20 -20 -78 -47q-58 -25 -89 -24q31 74 102 170q-5 22 26 70q11 11 34 23.5t58 26.5q70 30 82 27zM444 1362q0 -1 -5 -9q-29 -90 -152 -191q-4 -51 -68 -90q-63 -38 -91 -19v5q19 39 87 135q23 53 65 92q4 27 59 45 q28 9 52 17t44 15l5 3q4 0 4 -3z" />
<glyph unicode="&#x201e;" horiz-adv-x="823" d="M695 150q-8 -17 -63 -120q-28 -51 -46 -81.5t-28 -40.5q-20 -22 -78 -47q-57 -27 -89 -25q31 76 102 171q-5 20 26 68q11 11 34 23.5t58 26.5q70 30 82 27zM444 147q0 -1 -5 -9q-29 -90 -152 -191q-4 -49 -68 -87q-62 -40 -91 -20v5q19 37 87 133q24 54 65 92q7 26 60 46 q27 10 51 17.5t44 13.5l5 3q4 0 4 -3z" />
<glyph unicode="&#x2026;" horiz-adv-x="1321" d="M1205 70q-17 9 -71 -24q-54 -31 -71 -36q-8 1 -25.5 6.5t-46.5 15.5q-56 21 -59 31q0 13 70 56q71 45 63 28q19 -1 140 -77zM782 70q-4 3 -60 -35q-55 -37 -72 -26q-8 -1 -25 1t-42 7q-50 11 -66 41q0 11 53 55q54 44 82 25q22 2 130 -68zM398 108q-13 -32 -74 -79 q-58 -46 -66 -20q-12 -5 -77 27q-63 31 -53 22q0 11 54 43q56 32 83 39q16 0 133 -32z" />
<glyph unicode="&#x202f;" horiz-adv-x="386" />
<glyph unicode="&#x2039;" horiz-adv-x="696" d="M584 239q-23 14 -73 -18q-51 -32 -72 -38q-23 15 -104 109q-53 79 -216 264q18 -13 93 98q34 23 68.5 47t69.5 50q16 23 36.5 50t46.5 59q21 32 64 54q44 23 71 23h-1q-6 -20 -166 -144t-125 -187q0 -14 65 -58q4 -14 20 -43.5t45 -76.5q50 -28 178 -189z" />
<glyph unicode="&#x203a;" horiz-adv-x="695" d="M572 594q-9 3 -63 -58q-26 -32 -60.5 -74.5t-76.5 -94.5q-41 -36 -96 -114q-85 -46 -134 -58l-14 -7q10 17 99 95q39 49 90 106t115 123q-9 16 -159 183q-119 115 -143 165q-1 21 49 58q55 12 79 26l8 -2q36 -62 135 -198q112 -62 171 -150z" />
<glyph unicode="&#x205f;" horiz-adv-x="483" />
<glyph unicode="&#x20ac;" horiz-adv-x="978" d="M858 196q-17 -66 -39 -117q-11 -23 -56 -51q-46 -28 -77 -28q-5 8 -14 21t-23 32q-22 34 -140 37q-23 -5 -49.5 -13t-56.5 -19l-24 -12t-39 -22q-45 -27 -65 -21q-7 1 -5 16q1 -14 -0.5 28t-3.5 142q5 51 10 117.5t11 150.5q-141 37 -157 53q3 11 51 31q48 19 75 46 q19 -3 34 -3l-7 59q4 23 4 54t-2 71q-38 2 -71 6t-62 11h2q4 21 61 53q56 32 72 29q7 124 -29 229q27 181 -12 189q2 17 55 54t78 26q19 1 32 -133q289 166 391 113q-11 -17 -36 -99q4 -37 -7 -72q-2 -21 -48 -52t-88 -31l-5 47q10 42 24.5 81t33.5 76q-50 -11 -112 -37.5 t-137 -69.5q-26 -91 -7 -340q65 -3 164 27q99 31 175 7l12 -10q-8 -12 -49 -32q-36 -46 -89 -52q-33 0 -86 -2.5t-127 -7.5q32 -177 10 -199q11 1 46 5.5t96 14.5q61 0 112 -14l-22.5 -12.5t-30.5 -17.5q-61 -35 -95 -43q-55 1 -104 -3q-1 -82 0 -185.5t5 -231.5 q171 58 210 75q33 0 63 -10q-8 79 -11 109t-1 12q2 17 67 55q40 25 68 29l3 -5q6 -25 11.5 -65t10.5 -96z" />
<glyph unicode="&#x2122;" horiz-adv-x="1232" d="M1106 515q-1 -10 -41 -30q-35 -23 -51 -21q-17 227 22 480q-46 70 -25 196q22 125 -23 154q4 13 -15 -2q-10 -8 -33 -20.5t-61 -29.5q-14 -209 -12 -237q2 -151 10 -268t22 -203q-12 -1 -17 -15q0 -14 -38 -40t-54 -15q-2 156 -14 282t-35 223q24 23 18 155 q-6 131 23 142q-12 45 -35 28q-11 -8 -39 -27t-73 -48q2 -32 7 -59t12 -49q-6 -30 -18.5 -145t-31.5 -316q11 -87 9 -131q-5 -9 -15 -15.5t-23 -12.5t-28 -12t-30 -13q8 33 14.5 82.5t11.5 115.5q-14 125 -13 225t18 179q4 -17 -0.5 49t-16.5 218q-9 -42 -109 -41 q-12 -116 -12 -173q5 -51 7 -124.5t1 -173.5q-73 -204 -29 -248q1 -11 -1 -25.5t-7 -32.5q-6 -14 -35 -39q-17 -4 -31 -7t-25 -7q1 8 -1 55.5t-7 135.5q41 214 44 369q-11 174 -21 258q-53 -11 -93 -15t-69 -2q-4 -7 -15 -4q8 30 101 55l3 -2q35 -3 87 7q51 53 92 48 q0 -2 1.5 -13.5t3.5 -32.5q34 5 76.5 13t94.5 19q17 0 48 10q3 -25 12 -88q6 -4 44 -2q23 12 89 56q47 36 82 34q5 -2 5 -8q2 -16 2.5 -42t-7.5 -45q16 4 54 12q23 12 82 41q48 47 86 42q3 -5 3 -15q-10 -67 -9 -187q1 -60 1.5 -100.5t2.5 -62.5q2 -125 5 -227t5 -186 q16 -46 14 -72z" />
<glyph unicode="&#xe000;" horiz-adv-x="1365" d="M0 1365h1365v-1365h-1365v1365z" />
<glyph horiz-adv-x="1365" d="M0 0z" />
</font>
</defs>
</svg>
