<?xml version="1.0" standalone="no"?>
<!DOCTYPE svg PUBLIC "-//W3C//DTD SVG 1.1//EN" "http://www.w3.org/Graphics/SVG/1.1/DTD/svg11.dtd" >
<svg xmlns="http://www.w3.org/2000/svg">
<metadata></metadata>
<defs>
<font id="maven_probold" horiz-adv-x="704" >
<font-face units-per-em="1000" ascent="800" descent="-200" />
<missing-glyph horiz-adv-x="338" />
<glyph horiz-adv-x="0" />
<glyph unicode="&#xd;" horiz-adv-x="1000" />
<glyph horiz-adv-x="0" />
<glyph horiz-adv-x="0" />
<glyph unicode=" "  horiz-adv-x="338" />
<glyph unicode="&#x09;" horiz-adv-x="338" />
<glyph unicode="&#xa0;" horiz-adv-x="338" />
<glyph unicode="!" horiz-adv-x="403" d="M138 667h137l-22 -475h-93zM148 0v111h117v-111h-117z" />
<glyph unicode="&#x22;" horiz-adv-x="403" d="M81 676h100l-17 -201h-65zM225 676h100l-17 -201h-65z" />
<glyph unicode="#" horiz-adv-x="594" d="M74 125v74h88l25 143h-85v74h98l18 106h79l-19 -106h113l19 106h78l-19 -106h65v-74h-77l-25 -143h75v-74h-87l-19 -106h-79l19 106h-113l-18 -106h-79l19 106h-76zM241 199h113l24 143h-112z" />
<glyph unicode="$" horiz-adv-x="577" d="M73 482q0 85 54.5 133.5t141.5 58.5v102h58v-101q82 -3 163 -45v-117q-78 50 -163 51v-166q36 -11 58.5 -19t53.5 -26t49 -39.5t31 -56.5t13 -80q0 -75 -59 -125.5t-146 -57.5v-102h-58v102q-107 7 -187 56v122q85 -63 187 -64v185q-37 11 -57 18t-51 23t-47 34 t-28.5 47.5t-12.5 66.5zM193 485q0 -26 19 -41.5t57 -28.5v143q-76 -16 -76 -73zM327 112q85 13 85 73q0 59 -85 90v-163z" />
<glyph unicode="%" horiz-adv-x="868" d="M71 480q0 184 141 184q142 0 142 -184t-142 -184q-141 0 -141 184zM149 480q0 -65 17.5 -87.5t45.5 -22.5t45.5 22.5t17.5 87.5q0 66 -17.5 88t-45.5 22t-45.5 -22t-17.5 -88zM186 0l419 667h85l-419 -667h-85zM520 187q0 184 141 184q142 0 142 -184t-142 -184 q-141 0 -141 184zM598 187q0 -65 17.5 -87.5t45.5 -22.5t45.5 22.5t17.5 87.5q0 66 -17.5 88t-45.5 22t-45.5 -22t-17.5 -88z" />
<glyph unicode="&#x26;" horiz-adv-x="640" d="M55 190q0 26 3.5 46t15.5 47t38.5 53t67.5 50q-61 64 -61 122q0 67 41.5 115t117.5 48q68 0 113.5 -45t45.5 -111q0 -51 -24.5 -85t-84.5 -74q107 -128 112 -134q6 16 11.5 35t7.5 30l2 11h98q-14 -88 -53 -156l119 -142h-128l-51 63q-74 -71 -178 -71q-55 0 -98 20 t-67 50.5t-36 63.5t-12 64zM150 187q0 -19 8.5 -40.5t37.5 -42.5t74 -21q66 0 118 52q-90 106 -147 176q-32 -17 -52.5 -35t-28 -35.5t-9 -27.5t-1.5 -26zM214 517q0 -7 2.5 -15.5t5 -14t9 -15.5t9.5 -13.5t12 -14.5t11 -13q47 28 63.5 47.5t16.5 42.5q0 26 -18.5 44 t-45.5 18t-46 -19t-19 -47z" />
<glyph unicode="'" horiz-adv-x="261" d="M81 676h100l-17 -201h-65z" />
<glyph unicode="(" horiz-adv-x="367" d="M93 306q0 215 103 418h104q-103 -203 -103 -418q0 -213 103 -419h-104q-103 206 -103 419z" />
<glyph unicode=")" horiz-adv-x="367" d="M65 -113q103 201 103 419q0 219 -103 418h104q103 -203 103 -418q0 -213 -103 -419h-104z" />
<glyph unicode="*" horiz-adv-x="413" d="M84 553l81 28l-81 28l38 68l60 -51l-12 76h78l-12 -76l60 51l38 -68l-81 -28l81 -28l-38 -68l-60 51l12 -76h-78l12 76l-60 -51z" />
<glyph unicode="+" horiz-adv-x="551" d="M97 254v89h133v134h89v-134h133v-89h-133v-132h-89v132h-133z" />
<glyph unicode="," horiz-adv-x="331" d="M74 -112l74 196h105l-89 -196h-90z" />
<glyph unicode="-" horiz-adv-x="464" d="M79 251v94h305v-94h-305z" />
<glyph unicode="." horiz-adv-x="371" d="M127 0v111h117v-111h-117z" />
<glyph unicode="/" horiz-adv-x="438" d="M-14 -98l367 854h100l-368 -854h-99z" />
<glyph unicode="0" horiz-adv-x="657" d="M65 331q0 342 263 342t263 -342t-263 -342t-263 342zM185 331q0 -76 12 -127t35 -74.5t45 -31.5t51 -8t51 8t45 31.5t35 74.5t12 127q0 61 -8.5 106.5t-22 70.5t-33.5 40t-38 19.5t-41 4.5t-41 -4.5t-38 -19.5t-33.5 -40t-22 -70.5t-8.5 -106.5z" />
<glyph unicode="1" horiz-adv-x="485" d="M103 457v128l130 82h109v-667h-120v530z" />
<glyph unicode="2" horiz-adv-x="599" d="M77 0v98q46 34 94 75.5t100 94.5t85 108.5t33 99.5q0 34 -27.5 57t-90.5 23q-49 0 -100.5 -16.5t-87.5 -41.5v119q96 59 193 59q118 0 175 -59t57 -141q0 -89 -67 -182.5t-164 -174.5h241v-119h-441z" />
<glyph unicode="3" horiz-adv-x="600" d="M81 41v122q88 -52 182 -52q142 0 142 92q0 44 -33.5 72.5t-112.5 28.5h-85v99h88q56 0 83.5 23t27.5 57q0 40 -35.5 56.5t-82.5 16.5q-87 0 -160 -44v123q87 41 167 41q100 0 165.5 -45t65.5 -144q0 -82 -82 -127q51 -18 82 -59t31 -100q0 -47 -16 -84t-41.5 -60t-60 -38 t-67.5 -21t-68 -6q-99 0 -190 49z" />
<glyph unicode="4" horiz-adv-x="603" d="M38 188v99l304 380h114v-372h87v-107h-87v-188h-120v188h-298zM178 295h158v205z" />
<glyph unicode="5" horiz-adv-x="608" d="M83 346l36 321h367v-119h-265q-2 -25 -6 -62t-6 -60q47 9 90 9t79 -9.5t71.5 -32.5t55.5 -69t20 -111q0 -66 -20 -112t-54 -68.5t-70 -32t-79 -9.5q-111 0 -203 47v121q93 -59 196 -59q116 0 111 113q-5 107 -109 109q-40 1 -77 -8t-54 -18l-16 -10z" />
<glyph unicode="6" horiz-adv-x="597" d="M64 307q0 95 24 166t57 108.5t79 60t79.5 28.5t68.5 6q49 0 115 -19v-106q-40 13 -108 13q-23 0 -48 -6t-55.5 -20.5t-54.5 -47t-32 -78.5q44 34 122 34q108 0 167 -59t59 -162q0 -42 -13 -81.5t-39.5 -74.5t-74 -56t-109.5 -21q-237 0 -237 315zM185 304q-2 -62 9 -106 t31.5 -64t38.5 -28t37 -8q37 0 62.5 15.5t35.5 39.5t13.5 41t3.5 32q0 51 -30 81.5t-85 30.5q-65 0 -116 -34z" />
<glyph unicode="7" horiz-adv-x="587" d="M69 547v120h471v-95l-275 -572h-142l266 547h-320z" />
<glyph unicode="8" horiz-adv-x="604" d="M63 199q0 36 12.5 65.5t30.5 46t35.5 28t30.5 15.5l12 4q-4 1 -10.5 3.5t-23.5 13t-30 24t-23.5 39.5t-10.5 58q0 84 58 132t159 48t159 -48t58 -132q0 -32 -10 -57.5t-24 -40t-28.5 -24t-24.5 -12.5l-10 -4q5 -1 13 -4t28.5 -15t36.5 -28.5t29 -46t13 -65.5 q0 -97 -63 -152t-177 -55t-177 55t-63 152zM183 203q0 -54 30 -85.5t90 -31.5t90 31t30 86q0 40 -31 69t-89 29t-89 -29t-31 -69zM206 493q0 -48 29 -68.5t68 -20.5t68 20.5t29 68.5q0 36 -25 60.5t-72 24.5t-72 -24.5t-25 -60.5z" />
<glyph unicode="9" horiz-adv-x="603" d="M57 443q0 42 13 81.5t39.5 74.5t74 56t109.5 21q237 0 237 -315q0 -95 -24 -166t-57 -108.5t-79 -60t-79.5 -28.5t-68.5 -6q-49 0 -115 19v106q40 -13 108 -13q23 0 48 6t55.5 20.5t54.5 47t32 78.5q-44 -34 -122 -34q-108 0 -167 59t-59 162zM178 442q0 -51 30 -81.5 t85 -30.5q65 0 116 34q2 62 -9 106t-31.5 64t-38.5 28t-37 8q-37 0 -62.5 -15.5t-35.5 -39.5t-13.5 -41t-3.5 -32z" />
<glyph unicode=":" horiz-adv-x="397" d="M143 38v109h115v-109h-115zM143 353v109h115v-109h-115z" />
<glyph unicode=";" horiz-adv-x="419" d="M89 -112l74 196h105l-89 -196h-90zM157 353v109h115v-109h-115z" />
<glyph unicode="&#x3c;" horiz-adv-x="660" d="M120 233v72l415 185v-103l-301 -118l301 -118v-103z" />
<glyph unicode="=" horiz-adv-x="638" d="M127 170v86h385v-86h-385zM127 341v86h385v-86h-385z" />
<glyph unicode="&#x3e;" horiz-adv-x="649" d="M132 48v103l301 118l-301 118v103l415 -185v-72z" />
<glyph unicode="?" horiz-adv-x="509" d="M80 517v111q73 47 157 47q56 0 97.5 -16.5t64.5 -45t34 -61.5t11 -71q0 -34 -11 -61.5t-27.5 -45t-35.5 -36t-35.5 -35.5t-27.5 -43t-11 -58v-10h-106v13q0 51 15 90t37 62t43.5 42t36.5 39.5t15 43.5q0 89 -108 89q-88 0 -149 -54zM185 0v111h117v-111h-117z" />
<glyph unicode="@" horiz-adv-x="913" d="M83 181q0 90 38.5 170.5t100 135t138 86t151.5 31.5q41 0 85 -11t89.5 -36.5t81 -62t58 -93.5t22.5 -126q0 -101 -45 -177t-130 -76q-40 0 -62 26.5t-25 47.5q-13 -32 -49.5 -53t-90.5 -21q-75 0 -118.5 34t-43.5 93q0 26 8.5 48.5t30.5 46t69.5 37.5t116.5 14 q22 0 56 -2q0 37 -16.5 55.5t-68.5 18.5q-81 0 -136 -21q2 14 6.5 40t6.5 40q77 25 132 25q81 0 123 -37.5t42 -110.5q0 -25 -8 -76t-8 -79q0 -65 45 -65q36 0 72 50.5t36 141.5q0 62 -26 114.5t-67 85.5t-90.5 51.5t-98.5 18.5q-144 0 -255 -109.5t-111 -257.5 q0 -63 22.5 -114t54.5 -79.5t71 -47.5t69 -25.5t52 -6.5q128 0 227 48l-10 -64q-92 -41 -216 -41q-52 0 -106 18.5t-105.5 55.5t-84.5 104.5t-33 154.5zM372 151q0 -39 73 -39q58 0 80.5 24.5t26.5 85.5q-13 1 -44 1q-136 0 -136 -72z" />
<glyph unicode="A" d="M21 0l265 667h132l265 -667h-129l-61 160h-282l-61 -160h-129zM252 269h199l-99 262z" />
<glyph unicode="B" horiz-adv-x="646" d="M87 0v667h240q46 0 85 -9.5t73 -30t53.5 -58.5t19.5 -90q0 -88 -79 -129q116 -42 116 -154q0 -27 -4.5 -50.5t-20.5 -51.5t-41.5 -47.5t-71 -33t-106.5 -13.5h-264zM207 105h138q130 0 130 97q0 87 -134 87h-134v-184zM207 395h127q104 0 104 80q0 88 -113 88h-118v-168z " />
<glyph unicode="C" horiz-adv-x="628" d="M61 334q0 82 19 144t49 99t72.5 60t83 31t87.5 8q102 0 202 -40v-112q-95 44 -191 44q-45 0 -77 -8t-62.5 -31t-46.5 -72t-16 -123t16 -123t46.5 -72t62.5 -31t77 -8q96 0 191 44v-112q-100 -40 -202 -40q-47 0 -87.5 8t-83 31t-72.5 60t-49 99t-19 144z" />
<glyph unicode="D" horiz-adv-x="693" d="M87 0v667h230q155 0 235 -85t80 -249q0 -163 -80 -248t-235 -85h-230zM207 109h110q104 0 149.5 52.5t45.5 171.5q0 120 -45.5 172.5t-149.5 52.5h-110v-449z" />
<glyph unicode="E" horiz-adv-x="588" d="M87 0v667h444v-108h-324v-169h281v-113h-281v-169h324v-108h-444z" />
<glyph unicode="F" horiz-adv-x="558" d="M87 0v667h431v-108h-311v-169h269v-113h-269v-277h-120z" />
<glyph unicode="G" horiz-adv-x="687" d="M61 333q0 82 19 144t49 99t72.5 60t83 31t87.5 8q106 0 220 -45v-110q-108 48 -208 48q-35 0 -62 -4.5t-54.5 -19t-45.5 -39.5t-29.5 -68.5t-11.5 -102.5q0 -60 11.5 -103.5t29.5 -68.5t45.5 -39.5t54.5 -19t62 -4.5q55 0 118 17v160h-157v106h268v-333 q-117 -57 -241 -57q-47 0 -87.5 8t-83 31t-72.5 59.5t-49 99t-19 143.5z" />
<glyph unicode="H" horiz-adv-x="698" d="M87 0v667h120v-277h283v277h120v-667h-120v277h-283v-277h-120z" />
<glyph unicode="I" horiz-adv-x="293" d="M87 0v667h120v-667h-120z" />
<glyph unicode="J" horiz-adv-x="490" d="M29 35v119q61 -50 137 -50q56 0 82.5 23.5t26.5 91.5v448h120v-444q0 -71 -21.5 -120t-57 -71.5t-68 -31t-68.5 -8.5q-82 0 -151 43z" />
<glyph unicode="K" horiz-adv-x="691" d="M87 0v667h120v-282l252 282h161l-269 -293l297 -374h-150l-224 289l-67 -73v-216h-120z" />
<glyph unicode="L" horiz-adv-x="549" d="M87 0v667h120v-553h321v-114h-441z" />
<glyph unicode="M" horiz-adv-x="828" d="M87 0v667h133l193 -279l193 279h133v-667h-120v493l-206 -295l-206 295v-493h-120z" />
<glyph unicode="N" horiz-adv-x="775" d="M87 0v667h136l343 -494v494h120v-667h-134l-345 498v-498h-120z" />
<glyph unicode="O" horiz-adv-x="751" d="M61 333q0 82 19 144t49 99t72.5 60t83 31t87.5 8t87.5 -8t83 -31t73 -60t49.5 -99t19 -144q0 -81 -19 -143.5t-49.5 -99t-73 -59.5t-83 -31t-87.5 -8t-87.5 8t-83 31t-72.5 59.5t-49 99t-19 143.5zM181 334q0 -75 15 -124.5t44 -72.5t59.5 -31.5t72.5 -8.5q34 0 59 4.5 t51.5 19t43 40t27.5 69.5t11 104q0 74 -15 123.5t-44.5 72.5t-59.5 31t-73 8q-33 0 -58 -4.5t-51.5 -19t-43 -39.5t-27.5 -68.5t-11 -103.5z" />
<glyph unicode="P" horiz-adv-x="624" d="M86 0v667h249q118 0 182.5 -58.5t64.5 -165.5t-64.5 -165.5t-182.5 -58.5h-129v-219h-120zM206 328h120q79 0 108 29t29 86q0 56 -29 84.5t-108 28.5h-120v-228z" />
<glyph unicode="Q" horiz-adv-x="747" d="M61 333q0 82 19 144t49 99t72.5 60t83.5 31t88 8t87.5 -8t83 -31t73 -60t49.5 -99t19 -144q0 -74 -15.5 -131.5t-41 -94.5t-61.5 -62t-72.5 -36.5t-78.5 -15.5q0 -46 34 -66.5t81 -20.5v-92q-214 0 -214 180q-52 7 -94.5 26t-80.5 56.5t-59.5 103t-21.5 153.5zM181 333 q0 -75 15 -124t44.5 -72.5t59.5 -31.5t73 -8q42 0 72.5 8t60 31.5t44.5 72.5t15 124t-15 124t-44.5 72.5t-60 31.5t-72.5 8q-43 0 -73 -8t-59.5 -31.5t-44.5 -72.5t-15 -124z" />
<glyph unicode="R" horiz-adv-x="653" d="M87 0v667h256q117 0 182 -55.5t65 -158.5q0 -153 -146 -198l175 -255h-145l-159 235h-108v-235h-120zM207 345h133q61 0 95.5 22t34.5 83q0 62 -34.5 83.5t-95.5 21.5h-133v-210z" />
<glyph unicode="S" horiz-adv-x="581" d="M61 481q0 96 68 145t170 49q90 0 179 -46v-117q-77 51 -165 51q-55 0 -93.5 -19t-38.5 -60q0 -33 35 -52t84.5 -32t99.5 -32.5t85 -67.5t35 -124q0 -81 -67 -132.5t-163 -51.5q-127 0 -220 57v122q86 -64 192 -64q138 0 138 77q0 40 -35 64.5t-84.5 38t-99.5 31t-85 58 t-35 105.5z" />
<glyph unicode="T" horiz-adv-x="571" d="M12 547v120h547v-120h-214v-547h-120v547h-213z" />
<glyph unicode="U" horiz-adv-x="738" d="M87 282v385h120v-395q0 -88 38 -129t121 -41t121.5 41t38.5 129v395h120v-385q0 -138 -73.5 -214t-206.5 -76t-206 76t-73 214z" />
<glyph unicode="V" horiz-adv-x="658" d="M12 667h128l189 -518l189 518h128l-255 -667h-123z" />
<glyph unicode="W" horiz-adv-x="999" d="M12 667h126l150 -493l159 493h105l159 -493l151 493h125l-214 -667h-124l-149 465l-150 -465h-124z" />
<glyph unicode="X" horiz-adv-x="649" d="M12 0l237 337l-231 330h146l159 -225l158 225h141l-229 -325l240 -342h-146l-168 238l-168 -238h-139z" />
<glyph unicode="Y" horiz-adv-x="668" d="M12 667h145l177 -271l176 271h145l-261 -381v-286h-120v286z" />
<glyph unicode="Z" horiz-adv-x="621" d="M64 0v110l334 437h-330v120h479v-107l-336 -440h336v-120h-483z" />
<glyph unicode="[" horiz-adv-x="395" d="M119 -116v812h193v-93h-101v-626h101v-93h-193z" />
<glyph unicode="\" horiz-adv-x="405" d="M-37 756h100l367 -854h-99z" />
<glyph unicode="]" horiz-adv-x="395" d="M84 -23h101v626h-101v93h193v-812h-193v93z" />
<glyph unicode="^" horiz-adv-x="560" d="M129 473l109 217h55l110 -217h-83l-54 127l-54 -127h-83z" />
<glyph unicode="_" horiz-adv-x="546" d="M0 -24h546v-69h-546v69z" />
<glyph unicode="`" horiz-adv-x="255" d="M45 681h98l62 -117h-67z" />
<glyph unicode="a" horiz-adv-x="542" d="M56 163q0 15 3 31t15.5 40t34 42t63.5 31t99 13q41 0 88 -7q0 94 -106 94q-84 0 -146 -25v97q69 28 153 28q107 0 163.5 -54.5t56.5 -157.5v-135q0 -69 -51.5 -118.5t-158.5 -49.5q-110 0 -162 50t-52 121zM175 178q0 -80 94 -80q91 0 91 76v63q-42 6 -72 6 q-113 0 -113 -65z" />
<glyph unicode="b" horiz-adv-x="577" d="M83 160v530h120v-191q43 8 82 8q112 0 172 -65t60 -187q0 -67 -17.5 -118t-41.5 -77.5t-57.5 -43t-58 -20.5t-49.5 -4q-107 0 -158.5 49.5t-51.5 118.5zM203 149q0 -54 90 -54q57 0 80 39t23 127q0 84 -29.5 117.5t-85.5 33.5q-44 0 -78 -8v-255z" />
<glyph unicode="c" horiz-adv-x="472" d="M58 249q0 125 61 191.5t175 66.5q73 0 144 -28v-100q-59 24 -124 24q-69 0 -102.5 -31.5t-33.5 -122.5q0 -90 33.5 -122t102.5 -32q62 0 124 25v-100q-71 -28 -144 -28q-114 0 -175 66.5t-61 190.5z" />
<glyph unicode="d" horiz-adv-x="570" d="M63 255q0 122 59.5 187t171.5 65q40 0 83 -8v191h120v-530q0 -69 -52 -118.5t-159 -49.5q-25 0 -49.5 4t-57.5 20.5t-57.5 43t-41.5 77.5t-17 118zM183 261q0 -88 23 -127t80 -39q91 0 91 54v255q-35 8 -79 8q-56 0 -85.5 -33.5t-29.5 -117.5z" />
<glyph unicode="e" horiz-adv-x="559" d="M63 244q0 120 53.5 192t169.5 72q110 0 166.5 -70t56.5 -172q0 -42 -2 -62h-321q5 -65 39 -87t88 -22q88 0 170 39v-97q-83 -45 -188 -45q-33 0 -62.5 5.5t-61.5 22.5t-55 43.5t-38 73t-15 107.5zM186 287h201q-5 52 -30.5 87.5t-70.5 35.5t-70 -29t-30 -94z" />
<glyph unicode="f" horiz-adv-x="357" d="M40 396v103h85q1 207 186 207q24 0 49 -5v-94q-18 2 -27 2q-47 0 -67.5 -22.5t-20.5 -87.5h115v-103h-115v-396h-120v396h-85z" />
<glyph unicode="g" horiz-adv-x="548" d="M60 251q0 66 17 115t40.5 75t55.5 42t56 20t48 4q105 0 154.5 -48t49.5 -116v-355q0 -24 -4.5 -45.5t-18.5 -48t-37.5 -45t-66 -31.5t-98.5 -13q-79 0 -144 20v107q60 -20 130 -20q42 0 68.5 6.5t36 20t12 23t2.5 26.5v27q-40 -8 -76 -8q-109 0 -167 63t-58 181zM180 249 q0 -84 27 -114t82 -30q37 0 72 7v232q0 56 -84 56q-48 0 -72.5 -35t-24.5 -116z" />
<glyph unicode="h" horiz-adv-x="600" d="M94 0v689h120v-199q43 17 100 17q104 0 162.5 -54.5t58.5 -152.5v-300h-119v310q0 20 -3.5 33.5t-15 28t-37.5 22t-66 7.5q-47 0 -80 -15v-386h-120z" />
<glyph unicode="i" horiz-adv-x="312" d="M94 567v110h123v-110h-123zM96 0v499h120v-499h-120z" />
<glyph unicode="j" horiz-adv-x="290" d="M3 -100q34 2 54.5 8.5t28 20.5t9 24t1.5 32v514h120v-506q0 -32 -3.5 -55t-16.5 -48.5t-35.5 -41.5t-62.5 -27.5t-95 -13.5v93zM94 567v110h123v-110h-123z" />
<glyph unicode="k" horiz-adv-x="599" d="M92 0v686h120v-370l168 183h159l-217 -222l240 -277h-152l-165 197l-33 -34v-163h-120z" />
<glyph unicode="l" horiz-adv-x="322" d="M101 0v689h120v-689h-120z" />
<glyph unicode="m" horiz-adv-x="932" d="M94 0v451q112 56 220 56q81 0 135 -37q93 37 180 37q101 0 157.5 -55t56.5 -152v-300h-120v308q0 48 -24 72.5t-90 24.5q-52 0 -102 -12q21 -24 21 -93v-300h-119v311q0 46 -23.5 69t-88.5 23q-43 0 -83 -8v-395h-120z" />
<glyph unicode="n" horiz-adv-x="622" d="M82 0v452q110 55 229 55q104 0 162.5 -54.5t58.5 -152.5v-300h-119v310q0 20 -3.5 33.5t-14.5 28t-36 22t-64 7.5q-44 0 -93 -9v-392h-120z" />
<glyph unicode="o" horiz-adv-x="566" d="M49 249q0 124 61 190.5t175 66.5t175 -66.5t61 -190.5t-61 -190.5t-175 -66.5t-175 66.5t-61 190.5zM169 249q0 -93 28.5 -125.5t87.5 -32.5t87.5 32.5t28.5 125.5t-28.5 125.5t-87.5 32.5t-87.5 -32.5t-28.5 -125.5z" />
<glyph unicode="p" horiz-adv-x="574" d="M82 -185v523q0 69 51.5 118.5t158.5 49.5q25 0 49.5 -4t58 -20.5t57.5 -43t41.5 -77.5t17.5 -118q0 -122 -60 -187.5t-172 -65.5q-42 0 -82 9v-184h-120zM202 89q42 -6 74 -6q58 0 88.5 34t30.5 120q0 88 -23 127t-80 39q-90 0 -90 -54v-260z" />
<glyph unicode="q" horiz-adv-x="572" d="M56 243q0 67 17 118t41.5 77.5t57.5 43t57.5 20.5t49.5 4q107 0 159 -49.5t52 -118.5v-523h-120v184q-40 -9 -83 -9q-112 0 -171.5 65.5t-59.5 187.5zM176 237q0 -86 30.5 -120t88.5 -34q33 0 75 6v260q0 54 -91 54q-57 0 -80 -39t-23 -127z" />
<glyph unicode="r" horiz-adv-x="362" d="M81 0v454q12 6 33.5 14t86.5 23t129 16v-104q-75 -1 -129 -17v-386h-120z" />
<glyph unicode="s" horiz-adv-x="451" d="M49 351q0 75 53 115.5t132 40.5q74 0 136 -36v-91q-51 24 -115 24q-86 0 -86 -42q0 -21 24.5 -33t59.5 -21t70 -24.5t59.5 -52t24.5 -93.5q0 -63 -51 -104.5t-135 -41.5q-86 0 -158 41v107q66 -44 141 -44q52 0 67.5 12t15.5 36q0 22 -24.5 35.5t-59.5 23.5t-70 23.5 t-59.5 45t-24.5 79.5z" />
<glyph unicode="t" horiz-adv-x="388" d="M24 396v103h84v148h120v-148h118v-103h-118v-246q0 -32 13.5 -43.5t47.5 -11.5q32 0 57 11v-99q-36 -15 -79 -15q-74 0 -116.5 44t-42.5 121v239h-84z" />
<glyph unicode="u" horiz-adv-x="615" d="M82 226v273h121v-289q0 -60 24.5 -86.5t79.5 -26.5q56 0 80.5 26.5t24.5 86.5v289h121v-273q0 -110 -60 -172t-166 -62t-165.5 62t-59.5 172z" />
<glyph unicode="v" horiz-adv-x="571" d="M32 499h128l125 -377l125 377h129l-191 -499h-125z" />
<glyph unicode="w" horiz-adv-x="835" d="M38 499h127l106 -360l95 360h103l95 -360l106 360h127l-177 -499h-120l-82 287l-83 -287h-120z" />
<glyph unicode="x" horiz-adv-x="558" d="M28 0l177 252l-173 247h147l100 -142l100 142h133l-167 -236l185 -263h-147l-112 159l-113 -159h-130z" />
<glyph unicode="y" horiz-adv-x="541" d="M31 499h127l112 -348l110 348h127l-190 -511q-40 -109 -87 -147t-97 -38q-37 0 -76 14v100q29 -12 57 -12q52 0 96 121z" />
<glyph unicode="z" horiz-adv-x="488" d="M45 0v112l230 278h-225v109h379v-111l-233 -279h233v-109h-384z" />
<glyph unicode="{" horiz-adv-x="383" d="M91 247v95q6 1 14 3.5t22 16.5t14 35v143q0 71 39.5 115t118.5 44h20v-90h-12q-21 0 -34 -5.5t-18 -17t-6.5 -20t-1.5 -23.5v-141q0 -42 -25.5 -69.5t-57.5 -38.5q32 -10 57.5 -37.5t25.5 -69.5v-141q0 -15 1.5 -23.5t6.5 -20t18 -17t34 -5.5h12v-90h-20q-79 0 -118.5 44 t-39.5 115v143q0 20 -12.5 34t-24.5 18z" />
<glyph unicode="|" horiz-adv-x="466" d="M185 -99v766h107v-766h-107z" />
<glyph unicode="}" horiz-adv-x="383" d="M76 -20h11q21 0 34 5.5t18 17t6.5 20t1.5 23.5v141q0 42 25.5 69.5t57.5 37.5q-32 11 -57.5 38.5t-25.5 69.5v141q0 15 -1.5 23.5t-6.5 20t-18 17t-34 5.5h-11v90h19q80 0 119.5 -43.5t39.5 -115.5v-143q0 -21 12.5 -34.5t25.5 -16.5l12 -4v-95q-2 0 -5.5 -1t-12 -5 t-15 -9.5t-12 -16t-5.5 -23.5v-143q0 -72 -39.5 -115.5t-119.5 -43.5h-19v90z" />
<glyph unicode="~" horiz-adv-x="523" d="M98 223v82q28 33 63 36t68 -12t66 -29.5t67.5 -11.5t62.5 36v-82q-28 -33 -62.5 -36t-67.5 11.5t-66 29.5t-68 12t-63 -36z" />
<glyph unicode="&#xa1;" horiz-adv-x="403" d="M138 -168l22 475h93l22 -475h-137zM148 388v111h117v-111h-117z" />
<glyph unicode="&#xa2;" horiz-adv-x="477" d="M57 333q0 120 56.5 186.5t163.5 71.5v76h58v-78q48 -5 102 -26v-100q-48 20 -102 23v-306q51 3 102 24v-100q-54 -21 -102 -26v-78h-58v76q-107 5 -163.5 71t-56.5 186zM177 333q0 -77 25 -111.5t75 -40.5v304q-50 -6 -75 -40t-25 -112z" />
<glyph unicode="&#xa3;" horiz-adv-x="563" d="M49 -15v102q25 19 85 33v156h-85v95h85v115q0 78 51.5 133.5t159.5 55.5q82 0 162 -46v-103q-73 55 -153 55q-57 0 -87 -27.5t-30 -74.5v-108h184v-95h-184v-159q3 -1 36.5 -10t41.5 -10.5t36.5 -7t41.5 -4.5t36 2t41.5 7.5t36.5 17.5v-105q-43 -22 -91 -21.5t-91 12.5 t-86.5 22.5t-93 3.5t-96.5 -39z" />
<glyph unicode="&#xa5;" horiz-adv-x="682" d="M18 667h145l177 -271l176 271h145l-200 -292h79v-90h-140v-78h140v-90h-140v-117h-120v117h-141v90h141v78h-141v90h79z" />
<glyph unicode="&#xa7;" horiz-adv-x="609" d="M67 346q0 48 38.5 74.5t85.5 28.5q-23 10 -38.5 34t-15.5 50q0 52 33 85.5t77.5 45.5t99.5 12q90 0 168 -45v-103q-80 38 -153 38q-36 0 -66 -10.5t-30 -35.5q0 -13 20.5 -24.5t51.5 -20t66.5 -22.5t66.5 -30t51.5 -44t20.5 -64q0 -42 -32 -67t-79 -30q41 -25 41 -82 q0 -65 -57 -104.5t-154 -39.5q-103 0 -192 59v112q80 -65 180 -65q40 0 69 11t29 34q0 17 -29 29.5t-70 24.5t-82.5 27.5t-70.5 46.5t-29 75zM196 351q0 -21 33 -36.5t124 -45.5q30 3 45.5 16.5t15.5 26.5q0 18 -27 32.5t-72 28t-52 16.5q-22 -2 -44.5 -12t-22.5 -26z" />
<glyph unicode="&#xa8;" horiz-adv-x="418" d="M79 564v95h101v-95h-101zM239 564v95h101v-95h-101z" />
<glyph unicode="&#xa9;" horiz-adv-x="778" d="M48 333q0 142 100 242t241 100q142 0 242 -100t100 -242q0 -141 -100 -241t-242 -100q-141 0 -241 100t-100 241zM99 333q0 -120 85 -205t205 -85q121 0 206 85t85 205q0 121 -85 206t-206 85q-120 0 -205 -85t-85 -206zM215 333q0 59 16 100.5t44 62t57 29t64 8.5 q61 0 118 -23v-66q-57 26 -112 26t-86 -27.5t-31 -109.5t31 -109t86 -27q58 0 112 26v-66q-57 -23 -118 -23q-35 0 -64 8.5t-57 28.5t-44 61.5t-16 100.5z" />
<glyph unicode="&#xaa;" horiz-adv-x="395" d="M75 483q0 12 3.5 23.5t14 28t36.5 26.5t65 10q19 0 49 -4q0 52 -59 52q-48 0 -81 -14v54q38 16 85 16q59 0 91 -30.5t32 -87.5v-75q0 -39 -28.5 -66.5t-88.5 -27.5q-61 0 -90 28t-29 67zM141 492q0 -45 52 -45q51 0 51 43v35q-36 3 -40 3q-63 0 -63 -36z" />
<glyph unicode="&#xab;" horiz-adv-x="609" d="M32 255l169 190h140l-182 -190l182 -191h-140zM255 255l169 190h140l-182 -190l182 -191h-140z" />
<glyph unicode="&#xac;" horiz-adv-x="622" d="M97 240v94h428v-190h-86v96h-342z" />
<glyph unicode="&#xad;" horiz-adv-x="464" d="M79 251v94h305v-94h-305z" />
<glyph unicode="&#xae;" horiz-adv-x="778" d="M49 333q0 142 100 242t241 100q142 0 242 -100t100 -242q0 -141 -100 -241t-242 -100q-141 0 -241 100t-100 241zM100 333q0 -120 85 -205t205 -85q121 0 206 85t85 205q0 121 -85 206t-206 85q-120 0 -205 -85t-85 -206zM258 139v389h149q68 0 106 -32.5t38 -92.5 q0 -90 -85 -115l102 -149h-85l-92 137h-63v-137h-70zM328 340h77q35 0 55.5 12.5t20.5 48.5t-20.5 49t-55.5 13h-77v-123z" />
<glyph unicode="&#xaf;" horiz-adv-x="403" d="M86 576v71h234v-71h-234z" />
<glyph unicode="&#xb0;" horiz-adv-x="387" d="M82 558q0 54 28 82.5t81 28.5t81 -28.5t28 -82.5q0 -53 -28 -81.5t-81 -28.5t-81 28.5t-28 81.5zM135 559q0 -33 13.5 -47.5t42.5 -14.5t42 14.5t13 47.5q0 32 -13 46.5t-42 14.5t-42.5 -14.5t-13.5 -46.5z" />
<glyph unicode="&#xb1;" horiz-adv-x="585" d="M118 30v81h355v-81h-355zM118 295v89h133v134h89v-134h133v-89h-133v-132h-89v132h-133z" />
<glyph unicode="&#xb2;" horiz-adv-x="340" d="M53 463v53q61 45 114.5 102.5t53.5 101.5q0 43 -63 43q-58 0 -102 -32v65q52 31 104 31q64 0 94.5 -31.5t30.5 -75.5q0 -88 -124 -193h130v-64h-238z" />
<glyph unicode="&#xb3;" horiz-adv-x="335" d="M54 485v66q47 -28 98 -28q77 0 77 49q0 55 -79 55h-46v53h48q30 0 44.5 12.5t14.5 30.5q0 39 -63 39q-49 0 -86 -23v66q48 22 90 22q53 0 88.5 -24t35.5 -78q0 -44 -44 -68q61 -21 61 -86q0 -59 -41.5 -85.5t-95.5 -26.5q-53 0 -102 26z" />
<glyph unicode="&#xb4;" horiz-adv-x="258" d="M59 564l62 117h98l-93 -117h-67z" />
<glyph unicode="&#xb5;" horiz-adv-x="646" d="M99 -210v709h119v-310q0 -20 3.5 -33.5t14.5 -28t36 -22t64 -7.5q44 0 93 9v392h120v-452q-110 -55 -229 -55q-62 0 -102 25v-227h-119z" />
<glyph unicode="&#xb6;" horiz-adv-x="445" d="M38 462q0 99 59 152t171 53h146v-667h-113v256h-33q-112 0 -171 53t-59 153z" />
<glyph unicode="&#xb7;" horiz-adv-x="324" d="M103 217v111h117v-111h-117z" />
<glyph unicode="&#xb8;" horiz-adv-x="275" d="M58 -125l87 120h78l-62 -120h-103z" />
<glyph unicode="&#xb9;" horiz-adv-x="250" d="M53 709v69l70 44h59v-359h-65v286z" />
<glyph unicode="&#xba;" horiz-adv-x="417" d="M74 533q0 69 34 106t98 37t98 -37t34 -106q0 -70 -34 -107t-98 -37t-98 37t-34 107zM141 533q0 -52 16 -70.5t49 -18.5q32 0 48.5 18.5t16.5 70.5q0 51 -16.5 69.5t-48.5 18.5q-33 0 -49 -18.5t-16 -69.5z" />
<glyph unicode="&#xbb;" horiz-adv-x="624" d="M52 64l182 190l-182 191h140l169 -191l-169 -190h-140zM275 64l182 190l-182 191h140l169 -191l-169 -190h-140z" />
<glyph unicode="&#xbc;" horiz-adv-x="721" d="M53 561v69l70 44h59v-359h-65v286zM82 -22l437 707h80l-437 -707h-80zM403 102v53l164 204h61v-200h47v-57h-47v-102h-64v102h-161zM479 159h85v111z" />
<glyph unicode="&#xbd;" horiz-adv-x="746" d="M53 561v69l70 44h59v-359h-65v286zM82 -22l437 707h80l-437 -707h-80zM457 0v53q61 45 114.5 102.5t53.5 101.5q0 43 -63 43q-58 0 -102 -32v65q52 31 104 31q64 0 94.5 -31.5t30.5 -75.5q0 -88 -124 -193h130v-64h-238z" />
<glyph unicode="&#xbe;" horiz-adv-x="826" d="M66 336v66q47 -28 98 -28q77 0 77 49q0 55 -79 55h-46v53h48q30 0 44.5 12.5t14.5 30.5q0 39 -63 39q-49 0 -86 -23v66q48 22 90 22q53 0 88.5 -24t35.5 -78q0 -44 -44 -68q61 -21 61 -86q0 -59 -41.5 -85.5t-95.5 -26.5q-53 0 -102 26zM180 -22l437 707h80l-437 -707 h-80zM504 102v53l164 204h61v-200h47v-57h-47v-102h-64v102h-161zM580 159h85v111z" />
<glyph unicode="&#xbf;" horiz-adv-x="509" d="M76 18q0 34 11 61.5t27.5 45t35.5 36t35.5 35.5t27.5 43t11 58v10h106v-13q0 -51 -15 -90t-37 -62t-43.5 -42t-36.5 -39.5t-15 -43.5q0 -89 108 -89q88 0 149 54v-111q-73 -47 -157 -47q-56 0 -97.5 16.5t-64.5 45t-34 61.5t-11 71zM218 388v111h117v-111h-117z" />
<glyph unicode="&#xc0;" d="M21 0l265 667h132l265 -667h-129l-61 160h-282l-61 -160h-129zM224 841h98l62 -117h-67zM252 269h199l-99 262z" />
<glyph unicode="&#xc1;" d="M21 0l265 667h132l265 -667h-129l-61 160h-282l-61 -160h-129zM252 269h199l-99 262zM320 724l62 117h98l-93 -117h-67z" />
<glyph unicode="&#xc2;" d="M21 0l265 667h132l265 -667h-129l-61 160h-282l-61 -160h-129zM237 724l91 122h48l92 -122h-80l-36 56l-36 -56h-79zM252 269h199l-99 262z" />
<glyph unicode="&#xc3;" d="M21 0l265 667h132l265 -667h-129l-61 160h-282l-61 -160h-129zM200 723v76q28 33 60.5 36t62 -12t59.5 -29.5t62 -11.5t60 36v-76q-28 -33 -60 -36t-62 11.5t-59.5 29.5t-62 12t-60.5 -36zM252 269h199l-99 262z" />
<glyph unicode="&#xc4;" d="M21 0l265 667h132l265 -667h-129l-61 160h-282l-61 -160h-129zM222 724v95h101v-95h-101zM252 269h199l-99 262zM382 724v95h101v-95h-101z" />
<glyph unicode="&#xc5;" d="M21 0l265 667h132l265 -667h-129l-61 160h-282l-61 -160h-129zM252 269h199l-99 262zM265 781q0 41 23 63.5t64 22.5q42 0 64.5 -22.5t22.5 -63.5t-22.5 -63.5t-64.5 -22.5q-41 0 -64 22.5t-23 63.5zM318 781q0 -24 7.5 -33.5t26.5 -9.5t26.5 9.5t7.5 33.5t-7.5 33.5 t-26.5 9.5t-26.5 -9.5t-7.5 -33.5z" />
<glyph unicode="&#xc6;" horiz-adv-x="996" d="M25 0l422 667h489v-108h-324v-169h281v-113h-281v-169h324v-108h-444v150h-233l-92 -150h-142zM320 250h172v282z" />
<glyph unicode="&#xc7;" horiz-adv-x="628" d="M61 334q0 82 19 144t49 99t72.5 60t83 31t87.5 8q103 0 201 -40v-112q-93 44 -190 44q-45 0 -77 -8t-62.5 -31t-46.5 -72t-16 -123t16 -123t46.5 -72t62.5 -31t77 -8q97 0 190 44v-112q-83 -35 -170 -39l-60 -118h-104l86 119q-53 6 -96.5 24.5t-83.5 55.5t-62 103.5 t-22 156.5z" />
<glyph unicode="&#xc8;" horiz-adv-x="588" d="M87 0v667h444v-108h-324v-169h281v-113h-281v-169h324v-108h-444zM194 841h98l62 -117h-67z" />
<glyph unicode="&#xc9;" horiz-adv-x="588" d="M87 0v667h444v-108h-324v-169h281v-113h-281v-169h324v-108h-444zM271 724l62 117h98l-93 -117h-67z" />
<glyph unicode="&#xca;" horiz-adv-x="588" d="M87 0v667h444v-108h-324v-169h281v-113h-281v-169h324v-108h-444zM202 724l91 122h48l92 -122h-80l-36 56l-36 -56h-79z" />
<glyph unicode="&#xcb;" horiz-adv-x="588" d="M87 0v667h444v-108h-324v-169h281v-113h-281v-169h324v-108h-444zM190 724v95h101v-95h-101zM350 724v95h101v-95h-101z" />
<glyph unicode="&#xcc;" horiz-adv-x="293" d="M17 841h98l62 -117h-67zM87 0v667h120v-667h-120z" />
<glyph unicode="&#xcd;" horiz-adv-x="293" d="M87 0v667h120v-667h-120zM117 724l62 117h98l-93 -117h-67z" />
<glyph unicode="&#xce;" horiz-adv-x="293" d="M31 724l91 122h48l92 -122h-80l-36 56l-36 -56h-79zM87 0v667h120v-667h-120z" />
<glyph unicode="&#xcf;" horiz-adv-x="293" d="M16 724v95h101v-95h-101zM87 0v667h120v-667h-120zM176 724v95h101v-95h-101z" />
<glyph unicode="&#xd0;" horiz-adv-x="737" d="M52 292v82h79v293h230q155 0 235 -85t80 -249q0 -163 -80 -248t-235 -85h-230v292h-79zM251 109h110q104 0 149.5 52.5t45.5 171.5q0 120 -45.5 172.5t-149.5 52.5h-110v-184h118v-82h-118v-183z" />
<glyph unicode="&#xd1;" horiz-adv-x="775" d="M87 0v667h136l343 -494v494h120v-667h-134l-345 498v-498h-120zM235 723v76q28 33 60.5 36t62 -12t59.5 -29.5t62 -11.5t60 36v-76q-28 -33 -60 -36t-62 11.5t-59.5 29.5t-62 12t-60.5 -36z" />
<glyph unicode="&#xd2;" horiz-adv-x="751" d="M61 333q0 82 19 144t49 99t72.5 60t83 31t87.5 8t87.5 -8t83 -31t73 -60t49.5 -99t19 -144q0 -81 -19 -143.5t-49.5 -99t-73 -59.5t-83 -31t-87.5 -8t-87.5 8t-83 31t-72.5 59.5t-49 99t-19 143.5zM181 334q0 -75 15 -124.5t44 -72.5t59.5 -31.5t72.5 -8.5q34 0 59 4.5 t51.5 19t43 40t27.5 69.5t11 104q0 74 -15 123.5t-44.5 72.5t-59.5 31t-73 8q-33 0 -58 -4.5t-51.5 -19t-43 -39.5t-27.5 -68.5t-11 -103.5zM253 841h98l62 -117h-67z" />
<glyph unicode="&#xd3;" horiz-adv-x="751" d="M61 333q0 82 19 144t49 99t72.5 60t83 31t87.5 8t87.5 -8t83 -31t73 -60t49.5 -99t19 -144q0 -81 -19 -143.5t-49.5 -99t-73 -59.5t-83 -31t-87.5 -8t-87.5 8t-83 31t-72.5 59.5t-49 99t-19 143.5zM181 334q0 -75 15 -124.5t44 -72.5t59.5 -31.5t72.5 -8.5q34 0 59 4.5 t51.5 19t43 40t27.5 69.5t11 104q0 74 -15 123.5t-44.5 72.5t-59.5 31t-73 8q-33 0 -58 -4.5t-51.5 -19t-43 -39.5t-27.5 -68.5t-11 -103.5zM332 724l62 117h98l-93 -117h-67z" />
<glyph unicode="&#xd4;" horiz-adv-x="751" d="M61 333q0 82 19 144t49 99t72.5 60t83 31t87.5 8t87.5 -8t83 -31t73 -60t49.5 -99t19 -144q0 -81 -19 -143.5t-49.5 -99t-73 -59.5t-83 -31t-87.5 -8t-87.5 8t-83 31t-72.5 59.5t-49 99t-19 143.5zM181 334q0 -75 15 -124.5t44 -72.5t59.5 -31.5t72.5 -8.5q34 0 59 4.5 t51.5 19t43 40t27.5 69.5t11 104q0 74 -15 123.5t-44.5 72.5t-59.5 31t-73 8q-33 0 -58 -4.5t-51.5 -19t-43 -39.5t-27.5 -68.5t-11 -103.5zM257 724l91 122h48l92 -122h-80l-36 56l-36 -56h-79z" />
<glyph unicode="&#xd5;" horiz-adv-x="751" d="M61 333q0 82 19 144t49 99t72.5 60t83 31t87.5 8t87.5 -8t83 -31t73 -60t49.5 -99t19 -144q0 -81 -19 -143.5t-49.5 -99t-73 -59.5t-83 -31t-87.5 -8t-87.5 8t-83 31t-72.5 59.5t-49 99t-19 143.5zM181 334q0 -75 15 -124.5t44 -72.5t59.5 -31.5t72.5 -8.5q34 0 59 4.5 t51.5 19t43 40t27.5 69.5t11 104q0 74 -15 123.5t-44.5 72.5t-59.5 31t-73 8q-33 0 -58 -4.5t-51.5 -19t-43 -39.5t-27.5 -68.5t-11 -103.5zM220 723v76q28 33 60.5 36t62 -12t59.5 -29.5t62 -11.5t60 36v-76q-28 -33 -60 -36t-62 11.5t-59.5 29.5t-62 12t-60.5 -36z" />
<glyph unicode="&#xd6;" horiz-adv-x="751" d="M61 333q0 82 19 144t49 99t72.5 60t83 31t87.5 8t87.5 -8t83 -31t73 -60t49.5 -99t19 -144q0 -81 -19 -143.5t-49.5 -99t-73 -59.5t-83 -31t-87.5 -8t-87.5 8t-83 31t-72.5 59.5t-49 99t-19 143.5zM181 334q0 -75 15 -124.5t44 -72.5t59.5 -31.5t72.5 -8.5q34 0 59 4.5 t51.5 19t43 40t27.5 69.5t11 104q0 74 -15 123.5t-44.5 72.5t-59.5 31t-73 8q-33 0 -58 -4.5t-51.5 -19t-43 -39.5t-27.5 -68.5t-11 -103.5zM242 724v95h101v-95h-101zM402 724v95h101v-95h-101z" />
<glyph unicode="&#xd7;" horiz-adv-x="519" d="M76 78l138 178l-138 178h90l93 -120l94 120h89l-137 -178l137 -178h-89l-94 119l-93 -119h-90z" />
<glyph unicode="&#xd8;" horiz-adv-x="747" d="M33 0l87 103q-59 85 -59 230q0 82 19 144t49 99t72.5 60t83 31t87.5 8q114 0 188 -50l36 42h116l-88 -104q60 -87 60 -230q0 -81 -19 -143.5t-49.5 -99t-73 -59.5t-83 -31t-87.5 -8q-114 0 -189 49l-34 -41h-116zM181 334q0 -82 19 -136l290 343q-41 28 -118 28 q-33 0 -58 -4.5t-51.5 -19t-43 -39.5t-27.5 -68.5t-11 -103.5zM254 125q41 -28 118 -28q34 0 59 4.5t51.5 19t43 40t27.5 69.5t11 104q0 79 -20 134z" />
<glyph unicode="&#xd9;" horiz-adv-x="738" d="M87 282v385h120v-395q0 -88 38 -129t121 -41t121.5 41t38.5 129v395h120v-385q0 -138 -73.5 -214t-206.5 -76t-206 76t-73 214zM247 841h98l62 -117h-67z" />
<glyph unicode="&#xda;" horiz-adv-x="738" d="M87 282v385h120v-395q0 -88 38 -129t121 -41t121.5 41t38.5 129v395h120v-385q0 -138 -73.5 -214t-206.5 -76t-206 76t-73 214zM326 724l62 117h98l-93 -117h-67z" />
<glyph unicode="&#xdb;" horiz-adv-x="738" d="M87 282v385h120v-395q0 -88 38 -129t121 -41t121.5 41t38.5 129v395h120v-385q0 -138 -73.5 -214t-206.5 -76t-206 76t-73 214zM251 724l91 122h48l92 -122h-80l-36 56l-36 -56h-79z" />
<glyph unicode="&#xdc;" horiz-adv-x="738" d="M87 282v385h120v-395q0 -88 38 -129t121 -41t121.5 41t38.5 129v395h120v-385q0 -138 -73.5 -214t-206.5 -76t-206 76t-73 214zM236 724v95h101v-95h-101zM396 724v95h101v-95h-101z" />
<glyph unicode="&#xdd;" horiz-adv-x="668" d="M12 667h145l177 -271l176 271h145l-261 -381v-286h-120v286zM290 724l62 117h98l-93 -117h-67z" />
<glyph unicode="&#xde;" horiz-adv-x="612" d="M86 0v667h120v-84h102q118 0 182.5 -58.5t64.5 -165.5t-64.5 -165.5t-182.5 -58.5h-102v-135h-120zM206 244h93q79 0 108 29t29 86q0 56 -29 84.5t-108 28.5h-93v-228z" />
<glyph unicode="&#xdf;" horiz-adv-x="613" d="M88 0v418q0 76 19.5 129.5t53 79.5t68.5 37t76 11q109 0 168 -55.5t59 -129.5q0 -53 -31 -91t-65 -51q18 -5 34.5 -13.5t40 -25t37.5 -45.5t14 -66q0 -98 -78 -151t-202 -47v97q169 -2 169 105q0 94 -169 100v88q32 0 60.5 5.5t55.5 28.5t27 62q0 104 -107 104 q-25 0 -43.5 -6.5t-37 -23.5t-28.5 -53.5t-10 -91.5v-415h-111z" />
<glyph unicode="&#xe0;" horiz-adv-x="542" d="M56 163q0 15 3 31t15.5 40t34 42t63.5 31t99 13q41 0 88 -7q0 94 -106 94q-84 0 -146 -25v97q69 28 153 28q107 0 163.5 -54.5t56.5 -157.5v-135q0 -69 -51.5 -118.5t-158.5 -49.5q-110 0 -162 50t-52 121zM153 681h98l62 -117h-67zM175 178q0 -80 94 -80q91 0 91 76v63 q-42 6 -72 6q-113 0 -113 -65z" />
<glyph unicode="&#xe1;" horiz-adv-x="542" d="M56 163q0 15 3 31t15.5 40t34 42t63.5 31t99 13q41 0 88 -7q0 94 -106 94q-84 0 -146 -25v97q69 28 153 28q107 0 163.5 -54.5t56.5 -157.5v-135q0 -69 -51.5 -118.5t-158.5 -49.5q-110 0 -162 50t-52 121zM175 178q0 -80 94 -80q91 0 91 76v63q-42 6 -72 6 q-113 0 -113 -65zM224 564l62 117h98l-93 -117h-67z" />
<glyph unicode="&#xe2;" horiz-adv-x="542" d="M56 163q0 15 3 31t15.5 40t34 42t63.5 31t99 13q41 0 88 -7q0 94 -106 94q-84 0 -146 -25v97q69 28 153 28q107 0 163.5 -54.5t56.5 -157.5v-135q0 -69 -51.5 -118.5t-158.5 -49.5q-110 0 -162 50t-52 121zM165 564l91 122h48l92 -122h-80l-36 56l-36 -56h-79zM175 178 q0 -80 94 -80q91 0 91 76v63q-42 6 -72 6q-113 0 -113 -65z" />
<glyph unicode="&#xe3;" horiz-adv-x="542" d="M56 163q0 15 3 31t15.5 40t34 42t63.5 31t99 13q41 0 88 -7q0 94 -106 94q-84 0 -146 -25v97q69 28 153 28q107 0 163.5 -54.5t56.5 -157.5v-135q0 -69 -51.5 -118.5t-158.5 -49.5q-110 0 -162 50t-52 121zM126 563v76q28 33 60.5 36t62 -12t59.5 -29.5t62 -11.5t60 36 v-76q-28 -33 -60 -36t-62 11.5t-59.5 29.5t-62 12t-60.5 -36zM175 178q0 -80 94 -80q91 0 91 76v63q-42 6 -72 6q-113 0 -113 -65z" />
<glyph unicode="&#xe4;" horiz-adv-x="542" d="M56 163q0 15 3 31t15.5 40t34 42t63.5 31t99 13q41 0 88 -7q0 94 -106 94q-84 0 -146 -25v97q69 28 153 28q107 0 163.5 -54.5t56.5 -157.5v-135q0 -69 -51.5 -118.5t-158.5 -49.5q-110 0 -162 50t-52 121zM140 564v95h101v-95h-101zM175 178q0 -80 94 -80q91 0 91 76v63 q-42 6 -72 6q-113 0 -113 -65zM300 564v95h101v-95h-101z" />
<glyph unicode="&#xe5;" horiz-adv-x="542" d="M56 163q0 15 3 31t15.5 40t34 42t63.5 31t99 13q41 0 88 -7q0 94 -106 94q-84 0 -146 -25v97q69 28 153 28q107 0 163.5 -54.5t56.5 -157.5v-135q0 -69 -51.5 -118.5t-158.5 -49.5q-110 0 -162 50t-52 121zM175 178q0 -80 94 -80q91 0 91 76v63q-42 6 -72 6 q-113 0 -113 -65zM190 621q0 41 23 63.5t64 22.5q42 0 64.5 -22.5t22.5 -63.5t-22.5 -63.5t-64.5 -22.5q-41 0 -64 22.5t-23 63.5zM243 621q0 -24 7.5 -33.5t26.5 -9.5t26.5 9.5t7.5 33.5t-7.5 33.5t-26.5 9.5t-26.5 -9.5t-7.5 -33.5z" />
<glyph unicode="&#xe6;" horiz-adv-x="875" d="M53 163q0 15 3 31t15.5 40t34 42t63.5 31t99 13q41 0 88 -7q0 94 -106 94q-84 0 -146 -25v97q69 28 153 28q115 0 165 -70q17 28 59 49.5t97 21.5q110 0 166.5 -70t56.5 -172q0 -42 -2 -62h-321q5 -65 39 -87t88 -22q88 0 170 39v-97q-83 -45 -188 -45q-51 0 -94.5 21 t-65.5 50q-52 -71 -160 -71q-110 0 -162 50t-52 121zM172 178q0 -80 94 -80q91 0 91 76v63q-42 6 -72 6q-113 0 -113 -65zM478 287h201q-5 52 -30.5 87.5t-70.5 35.5t-70 -29t-30 -94z" />
<glyph unicode="&#xe7;" horiz-adv-x="472" d="M58 249q0 125 61 191.5t175 66.5q73 0 144 -28v-100q-59 24 -124 24q-69 0 -102.5 -31.5t-33.5 -122.5q0 -90 33.5 -122t102.5 -32q62 0 124 25v-100q-52 -22 -111 -26l-60 -119h-104l86 120q-93 12 -142 77t-49 177z" />
<glyph unicode="&#xe8;" horiz-adv-x="559" d="M63 244q0 120 53.5 192t169.5 72q110 0 166.5 -70t56.5 -172q0 -42 -2 -62h-321q5 -65 39 -87t88 -22q88 0 170 39v-97q-83 -45 -188 -45q-33 0 -62.5 5.5t-61.5 22.5t-55 43.5t-38 73t-15 107.5zM163 681h98l62 -117h-67zM186 287h201q-5 52 -30.5 87.5t-70.5 35.5 t-70 -29t-30 -94z" />
<glyph unicode="&#xe9;" horiz-adv-x="559" d="M63 244q0 120 53.5 192t169.5 72q110 0 166.5 -70t56.5 -172q0 -42 -2 -62h-321q5 -65 39 -87t88 -22q88 0 170 39v-97q-83 -45 -188 -45q-33 0 -62.5 5.5t-61.5 22.5t-55 43.5t-38 73t-15 107.5zM186 287h201q-5 52 -30.5 87.5t-70.5 35.5t-70 -29t-30 -94zM242 564 l62 117h98l-93 -117h-67z" />
<glyph unicode="&#xea;" horiz-adv-x="559" d="M63 244q0 120 53.5 192t169.5 72q110 0 166.5 -70t56.5 -172q0 -42 -2 -62h-321q5 -65 39 -87t88 -22q88 0 170 39v-97q-83 -45 -188 -45q-33 0 -62.5 5.5t-61.5 22.5t-55 43.5t-38 73t-15 107.5zM169 564l91 122h48l92 -122h-80l-36 56l-36 -56h-79zM186 287h201 q-5 52 -30.5 87.5t-70.5 35.5t-70 -29t-30 -94z" />
<glyph unicode="&#xeb;" horiz-adv-x="559" d="M63 244q0 120 53.5 192t169.5 72q110 0 166.5 -70t56.5 -172q0 -42 -2 -62h-321q5 -65 39 -87t88 -22q88 0 170 39v-97q-83 -45 -188 -45q-33 0 -62.5 5.5t-61.5 22.5t-55 43.5t-38 73t-15 107.5zM151 564v95h101v-95h-101zM186 287h201q-5 52 -30.5 87.5t-70.5 35.5 t-70 -29t-30 -94zM311 564v95h101v-95h-101z" />
<glyph unicode="&#xec;" horiz-adv-x="312" d="M31 681h98l62 -117h-67zM96 0v499h120v-499h-120z" />
<glyph unicode="&#xed;" horiz-adv-x="312" d="M96 0v499h120v-499h-120zM121 564l62 117h98l-93 -117h-67z" />
<glyph unicode="&#xee;" horiz-adv-x="312" d="M41 564l91 122h48l92 -122h-80l-36 56l-36 -56h-79zM96 0v499h120v-499h-120z" />
<glyph unicode="&#xef;" horiz-adv-x="312" d="M26 564v95h101v-95h-101zM96 0v499h120v-499h-120zM186 564v95h101v-95h-101z" />
<glyph unicode="&#xf0;" horiz-adv-x="602" d="M57 225q0 103 59 162t167 59q78 0 122 -34q-13 74 -71 116l-88 -60l-38 55l51 36q-20 5 -44 5q-40 0 -71 -5v107q45 10 78 10q87 0 154 -37l79 55l38 -56l-60 -41q97 -95 97 -290q0 -315 -237 -315q-62 0 -109.5 21t-74 56t-39.5 74.5t-13 81.5zM178 226q0 -15 3.5 -32 t13.5 -41t35.5 -39.5t62.5 -15.5q19 0 37 8t38.5 28t31.5 64t9 106q-51 34 -116 34q-55 0 -85 -30.5t-30 -81.5z" />
<glyph unicode="&#xf1;" horiz-adv-x="622" d="M82 0v452q110 55 229 55q104 0 162.5 -54.5t58.5 -152.5v-300h-119v310q0 20 -3.5 33.5t-14.5 28t-36 22t-64 7.5q-44 0 -93 -9v-392h-120zM159 563v76q28 33 60.5 36t62 -12t59.5 -29.5t62 -11.5t60 36v-76q-28 -33 -60 -36t-62 11.5t-59.5 29.5t-62 12t-60.5 -36z" />
<glyph unicode="&#xf2;" horiz-adv-x="566" d="M49 249q0 124 61 190.5t175 66.5t175 -66.5t61 -190.5t-61 -190.5t-175 -66.5t-175 66.5t-61 190.5zM159 681h98l62 -117h-67zM169 249q0 -93 28.5 -125.5t87.5 -32.5t87.5 32.5t28.5 125.5t-28.5 125.5t-87.5 32.5t-87.5 -32.5t-28.5 -125.5z" />
<glyph unicode="&#xf3;" horiz-adv-x="566" d="M49 249q0 124 61 190.5t175 66.5t175 -66.5t61 -190.5t-61 -190.5t-175 -66.5t-175 66.5t-61 190.5zM169 249q0 -93 28.5 -125.5t87.5 -32.5t87.5 32.5t28.5 125.5t-28.5 125.5t-87.5 32.5t-87.5 -32.5t-28.5 -125.5zM251 564l62 117h98l-93 -117h-67z" />
<glyph unicode="&#xf4;" horiz-adv-x="566" d="M49 249q0 124 61 190.5t175 66.5t175 -66.5t61 -190.5t-61 -190.5t-175 -66.5t-175 66.5t-61 190.5zM169 249q0 -93 28.5 -125.5t87.5 -32.5t87.5 32.5t28.5 125.5t-28.5 125.5t-87.5 32.5t-87.5 -32.5t-28.5 -125.5zM170 564l91 122h48l92 -122h-80l-36 56l-36 -56h-79z " />
<glyph unicode="&#xf5;" horiz-adv-x="566" d="M49 249q0 124 61 190.5t175 66.5t175 -66.5t61 -190.5t-61 -190.5t-175 -66.5t-175 66.5t-61 190.5zM133 563v76q28 33 60.5 36t62 -12t59.5 -29.5t62 -11.5t60 36v-76q-28 -33 -60 -36t-62 11.5t-59.5 29.5t-62 12t-60.5 -36zM169 249q0 -93 28.5 -125.5t87.5 -32.5 t87.5 32.5t28.5 125.5t-28.5 125.5t-87.5 32.5t-87.5 -32.5t-28.5 -125.5z" />
<glyph unicode="&#xf6;" horiz-adv-x="566" d="M49 249q0 124 61 190.5t175 66.5t175 -66.5t61 -190.5t-61 -190.5t-175 -66.5t-175 66.5t-61 190.5zM155 564v95h101v-95h-101zM169 249q0 -93 28.5 -125.5t87.5 -32.5t87.5 32.5t28.5 125.5t-28.5 125.5t-87.5 32.5t-87.5 -32.5t-28.5 -125.5zM315 564v95h101v-95h-101z " />
<glyph unicode="&#xf7;" horiz-adv-x="628" d="M103 218v80h423v-80h-423zM264 63v94h101v-94h-101zM264 360v94h101v-94h-101z" />
<glyph unicode="&#xf8;" horiz-adv-x="574" d="M19 0l72 86q-40 65 -40 163q0 124 61 190.5t175 66.5q80 0 132 -31l21 24h116l-73 -86q40 -62 40 -164q0 -124 -61 -190.5t-175 -66.5q-77 0 -132 32l-20 -24h-116zM171 249q0 -33 5 -63l176 208q-23 13 -65 13q-59 0 -87.5 -32.5t-28.5 -125.5zM223 105q25 -14 64 -14 q59 0 87.5 32.5t28.5 125.5q0 40 -4 64z" />
<glyph unicode="&#xf9;" horiz-adv-x="615" d="M82 226v273h121v-289q0 -60 24.5 -86.5t79.5 -26.5q56 0 80.5 26.5t24.5 86.5v289h121v-273q0 -110 -60 -172t-166 -62t-165.5 62t-59.5 172zM186 681h98l62 -117h-67z" />
<glyph unicode="&#xfa;" horiz-adv-x="615" d="M82 226v273h121v-289q0 -60 24.5 -86.5t79.5 -26.5q56 0 80.5 26.5t24.5 86.5v289h121v-273q0 -110 -60 -172t-166 -62t-165.5 62t-59.5 172zM269 564l62 117h98l-93 -117h-67z" />
<glyph unicode="&#xfb;" horiz-adv-x="615" d="M82 226v273h121v-289q0 -60 24.5 -86.5t79.5 -26.5q56 0 80.5 26.5t24.5 86.5v289h121v-273q0 -110 -60 -172t-166 -62t-165.5 62t-59.5 172zM192 564l91 122h48l92 -122h-80l-36 56l-36 -56h-79z" />
<glyph unicode="&#xfc;" horiz-adv-x="615" d="M82 226v273h121v-289q0 -60 24.5 -86.5t79.5 -26.5q56 0 80.5 26.5t24.5 86.5v289h121v-273q0 -110 -60 -172t-166 -62t-165.5 62t-59.5 172zM177 564v95h101v-95h-101zM337 564v95h101v-95h-101z" />
<glyph unicode="&#xfd;" horiz-adv-x="541" d="M31 499h127l112 -348l110 348h127l-190 -511q-40 -109 -87 -147t-97 -38q-37 0 -76 14v100q29 -12 57 -12q52 0 96 121zM231 564l62 117h98l-93 -117h-67z" />
<glyph unicode="&#xfe;" horiz-adv-x="565" d="M83 -184v868h120v-190q43 8 82 8q112 0 172 -65t60 -187t-60 -187t-172 -65q-39 0 -82 8v-190h-120zM203 101q34 -8 78 -8q56 0 85.5 34.5t29.5 122.5t-29.5 122.5t-85.5 34.5q-44 0 -78 -8v-298z" />
<glyph unicode="&#xff;" horiz-adv-x="541" d="M31 499h127l112 -348l110 348h127l-190 -511q-40 -109 -87 -147t-97 -38q-37 0 -76 14v100q29 -12 57 -12q52 0 96 121zM139 564v95h101v-95h-101zM299 564v95h101v-95h-101z" />
<glyph unicode="&#x152;" horiz-adv-x="1013" d="M60 333q0 82 19 144t49 99t72.5 60t83 31t87.5 8q72 0 132 -21v13h444v-108h-324v-169h281v-113h-281v-169h324v-108h-444v13q-56 -21 -132 -21q-47 0 -87.5 8t-83 31t-72.5 59.5t-49 99t-19 143.5zM180 334q0 -75 16.5 -124.5t48 -72.5t64 -31.5t78.5 -8.5q71 0 116 18 v432q-54 22 -116 22q-46 0 -78.5 -8t-64 -31t-48 -72.5t-16.5 -123.5z" />
<glyph unicode="&#x153;" horiz-adv-x="905" d="M48 250q0 124 61 190.5t175 66.5q112 0 174 -65q58 66 165 66q110 0 166.5 -70t56.5 -172q0 -42 -2 -62h-321q5 -65 39 -87t88 -22q88 0 170 39v-97q-83 -45 -188 -45q-114 0 -174 66q-60 -65 -174 -65t-175 66.5t-61 190.5zM168 250q0 -93 28.5 -125.5t87.5 -32.5 t87.5 32.5t28.5 125.5t-28.5 125.5t-87.5 32.5t-87.5 -32.5t-28.5 -125.5zM523 287h201q-5 52 -30.5 87.5t-70.5 35.5t-70 -29t-30 -94z" />
<glyph unicode="&#x178;" horiz-adv-x="668" d="M12 667h145l177 -271l176 271h145l-261 -381v-286h-120v286zM204 724v95h101v-95h-101zM364 724v95h101v-95h-101z" />
<glyph unicode="&#x2c6;" horiz-adv-x="427" d="M98 564l91 122h48l92 -122h-80l-36 56l-36 -56h-79z" />
<glyph unicode="&#x2dc;" horiz-adv-x="517" d="M105 563v76q28 33 60.5 36t62 -12t59.5 -29.5t62 -11.5t60 36v-76q-28 -33 -60 -36t-62 11.5t-59.5 29.5t-62 12t-60.5 -36z" />
<glyph unicode="&#x2000;" horiz-adv-x="433" />
<glyph unicode="&#x2001;" horiz-adv-x="867" />
<glyph unicode="&#x2002;" horiz-adv-x="433" />
<glyph unicode="&#x2003;" horiz-adv-x="867" />
<glyph unicode="&#x2004;" horiz-adv-x="289" />
<glyph unicode="&#x2005;" horiz-adv-x="216" />
<glyph unicode="&#x2006;" horiz-adv-x="144" />
<glyph unicode="&#x2007;" horiz-adv-x="144" />
<glyph unicode="&#x2008;" horiz-adv-x="108" />
<glyph unicode="&#x2009;" horiz-adv-x="173" />
<glyph unicode="&#x200a;" horiz-adv-x="48" />
<glyph unicode="&#x2010;" horiz-adv-x="464" d="M79 251v94h305v-94h-305z" />
<glyph unicode="&#x2011;" horiz-adv-x="464" d="M79 251v94h305v-94h-305z" />
<glyph unicode="&#x2012;" horiz-adv-x="464" d="M79 251v94h305v-94h-305z" />
<glyph unicode="&#x2013;" horiz-adv-x="560" d="M69 244v94h420v-94h-420z" />
<glyph unicode="&#x2014;" horiz-adv-x="891" d="M79 244v94h733v-94h-733z" />
<glyph unicode="&#x2018;" horiz-adv-x="270" d="M47 676h105l74 -196h-90z" />
<glyph unicode="&#x2019;" horiz-adv-x="270" d="M47 480l74 196h105l-89 -196h-90z" />
<glyph unicode="&#x201a;" horiz-adv-x="318" d="M72 -112l74 196h105l-89 -196h-90z" />
<glyph unicode="&#x201c;" horiz-adv-x="419" d="M47 676h105l74 -196h-90zM199 676h105l74 -196h-90z" />
<glyph unicode="&#x201d;" horiz-adv-x="419" d="M47 480l74 196h105l-89 -196h-90zM199 480l74 196h105l-89 -196h-90z" />
<glyph unicode="&#x201e;" horiz-adv-x="463" d="M72 -112l74 196h105l-89 -196h-90zM224 -112l74 196h105l-89 -196h-90z" />
<glyph unicode="&#x2022;" horiz-adv-x="435" d="M84 323q0 55 39 94t95 39q55 0 93.5 -39t38.5 -94t-38.5 -94t-93.5 -39q-56 0 -95 39t-39 94z" />
<glyph unicode="&#x2026;" horiz-adv-x="843" d="M107 0v111h117v-111h-117zM363 0v111h117v-111h-117zM618 0v111h117v-111h-117z" />
<glyph unicode="&#x202f;" horiz-adv-x="173" />
<glyph unicode="&#x2039;" horiz-adv-x="376" d="M31 255l169 190h140l-182 -190l182 -191h-140z" />
<glyph unicode="&#x203a;" horiz-adv-x="398" d="M54 64l182 190l-182 191h140l169 -191l-169 -190h-140z" />
<glyph unicode="&#x205f;" horiz-adv-x="216" />
<glyph unicode="&#x20ac;" d="M50 201v87h79q-2 28 -2 46t2 46h-79v87h93q56 209 295 209q102 0 202 -40v-112q-95 44 -191 44q-67 0 -113 -21t-69 -80h259v-87h-277q-2 -28 -2 -46t2 -46h277v-87h-259q23 -59 69 -80t113 -21q96 0 191 44v-112q-100 -40 -202 -40q-240 0 -295 209h-93z" />
<glyph unicode="&#x2122;" horiz-adv-x="768" d="M49 608v59h273v-59h-107v-274h-59v274h-107zM372 334v333h67l96 -139l96 139h67v-333h-60v247l-103 -148l-103 148v-247h-60z" />
<glyph unicode="&#xe000;" horiz-adv-x="500" d="M0 0v500h500v-500h-500z" />
<glyph unicode="&#xfb01;" horiz-adv-x="651" d="M40 396v103h85q1 207 186 207q24 0 49 -5v-94q-18 2 -27 2q-47 0 -67.5 -22.5t-20.5 -87.5h115v-103h-115v-396h-120v396h-85zM464 567v110h123v-110h-123zM466 0v499h120v-499h-120z" />
<glyph unicode="&#xfb02;" horiz-adv-x="651" d="M40 396v103h85q1 207 186 207q24 0 49 -5v-94q-18 2 -27 2q-47 0 -67.5 -22.5t-20.5 -87.5h115v-103h-115v-396h-120v396h-85zM468 0v689h120v-689h-120z" />
</font>
</defs>
</svg>
