<?xml version="1.0" standalone="no"?>
<!DOCTYPE svg PUBLIC "-//W3C//DTD SVG 1.1//EN" "http://www.w3.org/Graphics/SVG/1.1/DTD/svg11.dtd" >
<svg xmlns="http://www.w3.org/2000/svg">
<metadata></metadata>
<defs>
<font id="gothic_ultra_otregular" horiz-adv-x="521" >
<font-face units-per-em="1000" ascent="750" descent="-250" />
<missing-glyph horiz-adv-x="176" />
<glyph unicode="&#xfb01;" horiz-adv-x="402" d="M-28 -260q22 18 39 46q1 2 5 6.5t5.5 8.5t0.5 9q-1 4 4 11t4 15q-1 7 0.5 11t3.5 7.5t3 6.5q21 81 30 242q0 5 4 14t4 14t-6 15q-4 4 -2 12t4.5 14t-1.5 13q-4 5 -4 12t2 16t2 14v78q-17 1 -76 6q5 1 21 19q20 20 30 19l28 -2q2 24 4 36l6 30q0 1 6 9.5t2 19.5q-2 4 0 9 t6 11.5t5 9.5q31 69 85 101q15 10 19 8q20 -23 23 -27l9 -14q-3 -8 -2 -10t6.5 -4t6.5 -5q11 -24 11 -47q0 -17 -5 -28q-3 -8 -19 -18l-3 -2l-18 -8q7 18 4 40q-1 3 -5.5 6.5t-5.5 6.5t2 14q2 4 0 7.5t-6.5 8t-5.5 6.5q-11 16 -25 34q-44 -69 -46 -178q0 -3 -0.5 -9t-0.5 -8 h61q53 0 77 13q7 4 8 2.5t-5 -6.5q-35 -29 -62 -38q-2 -1 -9 5t-13 -5q-8 -7 -25 -10t-32 -3q-3 -164 -14 -286q0 -1 -5.5 -10t-0.5 -13q4 -4 5 -7t-1.5 -9.5t-2.5 -9.5q-26 -170 -132 -233q-7 -4 -8 -2t5 6zM280 94q0 6 4 70l5 43q0 2 4 6.5t2 7.5q-4 5 -4.5 11t2 14 t2.5 11q6 7 6.5 11.5t-1.5 9t-2 7.5q1 10 4 43q2 20 0 28q-2 5 26.5 22.5t29.5 16.5q5 -6 3 -28q0 -4 -6.5 -12.5t0.5 -11.5q6 -6 -1 -47q-3 -23 -8 -52t-7.5 -49t-3.5 -50q0 -2 0.5 -4.5t1 -4t-1 -4.5t-4.5 -5q-3 -3 -2 -5.5t3.5 -7.5t2.5 -8q2 -38 13 -60t40 -20 q-1 0 -24 -19t-35 -19q-14 0 -26 12q-1 1 -4 4.5t-5 5.5t-4 6t-3 9q-1 3 3.5 11t-0.5 9q-5 3 -7 5.5t-2 8v6.5q-1 9 -1 29zM298 504q-1 2 1.5 5t7.5 6.5t10.5 7t12 7t11.5 6.5t8 4l3 2q0 -1 -1 -4.5t0 -6.5t6 -3q3 0 4 -3t1 -7.5t1 -6.5l5 -10q0 -4 -13.5 -13.5t-26.5 -17.5 t-14 -7q0 1 -1.5 2.5l-3 3t-2 3.5t1.5 3q7 8 5.5 10t-10.5 2q-2 0 -3 3.5t-2 8t-1 5.5z" />
<glyph unicode="&#xfb02;" horiz-adv-x="427" d="M-28 -260q22 18 39 46q1 2 5 6.5t5.5 8.5t0.5 9q-1 4 4 11t4 15q-1 7 0.5 11t3.5 7.5t3 6.5q21 81 30 242q0 5 4 14t4 14t-6 15q-4 4 -2 12t4.5 14t-1.5 13q-4 5 -4 12t2 16t2 14v78q-17 1 -76 6q5 1 21 19q20 20 30 19l28 -2q2 24 4 36l6 30q0 1 6 9.5t2 19.5q-2 4 0 9 t6 11.5t5 9.5q31 69 85 101q15 10 19 8q20 -23 23 -27l9 -14q-3 -8 -2 -10t6.5 -4t6.5 -5q11 -24 11 -47q0 -17 -5 -28q-3 -8 -19 -18l-3 -2l-18 -8q7 18 4 40q-1 3 -5.5 6.5t-5.5 6.5t2 14q2 4 0 7.5t-6.5 8t-5.5 6.5q-11 16 -25 34q-44 -69 -46 -178q0 -3 -0.5 -9t-0.5 -8 h61q53 0 77 13q7 4 8 2.5t-5 -6.5q-35 -29 -62 -38q-2 -1 -9 5t-13 -5q-8 -7 -25 -10t-32 -3q-3 -164 -14 -286q0 -1 -5.5 -10t-0.5 -13q4 -4 5 -7t-1.5 -9.5t-2.5 -9.5q-26 -170 -132 -233q-7 -4 -8 -2t5 6zM303 100q3 5 3 8t-1.5 6t-1.5 5q0 5 0.5 15.5t0.5 15.5 q0 15 6 20q5 5 4 7.5t-4 6t-3 6.5l7 68q2 23 5 55t6 65t5 57q0 2 3.5 7t4 7t-3.5 7q-4 3 -4.5 7.5t1 12t1.5 10.5q-3 48 -18 56q-1 1 11 11.5t26 19.5t17 7q8 -7 12 -32q1 -2 -2.5 -6t-3.5 -5q0 -2 4.5 -4.5t6.5 -6.5q3 -2 1 -16l-2 -14q0 -11 -5 -84l-2 -29q-4 -5 -4.5 -9 t1 -8t1.5 -7t-4.5 -9.5t-1.5 -9.5t3.5 -8.5t0 -9.5t-1.5 -10t-1 -7q-1 -8 -4.5 -39t-6 -60.5t-2.5 -55.5q0 -14 2 -38q0 -19 -1 -20q-3 -3 -2 -5.5t2.5 -4t4 -3.5t3.5 -4q7 -23 19 -35t34 -10l-5 -5l-7 -7t-7 -6.5t-8 -6.5t-8.5 -6t-9.5 -5t-9.5 -2.5t-10 -1t-9.5 2.5t-10 6 q-24 19 -31 84q-2 15 -1 17z" />
<glyph horiz-adv-x="1000" />
<glyph horiz-adv-x="1000" />
<glyph unicode="&#xd;" horiz-adv-x="1000" />
<glyph unicode=" "  horiz-adv-x="176" />
<glyph unicode="&#x09;" horiz-adv-x="176" />
<glyph unicode="&#xa0;" horiz-adv-x="176" />
<glyph unicode="!" horiz-adv-x="196" d="M48 31q-1 1 2 5l4 3l19 14q11 -9 14 9q14 8 15 7l11 -27q0 -1 -7 -8l-18 -14l-8 -5q-7 -5 -14 -8.5t-7 -2.5zM70 130q0 4 0.5 12t0.5 12q1 44 18 224q0 2 3.5 9.5t2.5 10.5q-11 30 2 47q6 5 2 10t-4 8q2 38 2 56q1 9 26 20.5t28 15.5q-1 -62 -19 -256q0 -4 -4 -9t-5 -7.5 t3 -7.5q4 -3 1 -44q0 -7 -1 -20.5t-1.5 -24t-0.5 -20.5t-29 -22q-25 -12 -25 -14z" />
<glyph unicode="&#x22;" horiz-adv-x="250" d="M57 355v21q0 1 3 15t-2 20q4 7 4 11t-1.5 7t-1.5 6q3 53 3 105q0 10 26 21t28 15q0 -34 -1 -51q0 -2 -2 -6.5t-2.5 -7t3.5 -7.5q0 -5 -0.5 -15.5t-0.5 -15.5q-2 -54 -2 -81q0 -11 -28 -23q-26 -13 -26 -14zM155 369q0 2 0.5 6.5t0.5 7.5l2 7q2 7 -2 7q-2 2 1 9.5t2 9.5 q-2 5 -2 20q2 38 4 118q0 9 25 21q5 3 12 6t11.5 5t5.5 4q0 -13 -0.5 -27.5t-1.5 -32.5t-1 -28q0 -2 -2.5 -5t-3 -4.5t2.5 -4.5q3 -1 3.5 -4.5t-0.5 -9t-1 -7.5l-2 -61q0 -10 -28 -22q-25 -13 -26 -15z" />
<glyph unicode="#" horiz-adv-x="367" d="M25 354q4 1 23 19.5t28 18.5q3 0 10 0.5t11 0.5q2 12 4 17q0 1 0.5 5.5t2.5 7.5t7 6q2 2 1 4t-2 5.5t-1 5.5l3 11q-24 0 -72 -2q1 0 2.5 1.5t4 3.5t4.5 4.5t5 5.5t6 5q20 18 29 18q20 0 30 1l8 37q3 4 27 17t27 20q-11 -43 -17 -73l63 2q2 11 8 33q3 6 29 20q21 11 24 15 q-2 -7 -7 -28q0 -2 -4.5 -6.5t-2.5 -7.5q4 -1 1 -12.5t-3 -12.5l68 3q-4 -2 -22 -20t-27 -18q-10 -1 -28 -1l-14 -63l76 3q-2 -1 -7 -6l-8 -8q-23 -23 -34 -24q-24 -2 -36 -2l-10 -43q-2 -10 -27 -21t-27 -16q1 2 2.5 6t2.5 8t1 8q0 2 3 6.5t3 6.5q1 3 0 7t1 11l6 25l-63 -2 l-9 -39q-2 -9 -27.5 -20t-27.5 -16q2 10 18 74h-15q-3 0 -5 2.5t-5 2.5q-2 0 -8 -2.5t-9 -2.5q-4 0 -11 -0.5t-10 -0.5zM143 394l63 2l14 62q-11 0 -32 -0.5t-31 -0.5z" />
<glyph unicode="$" horiz-adv-x="254" d="M11 54q0 8 22 17.5t24 13.5q-1 -33 40 -49l12 133q-48 32 -64 49q-21 22 -21 49q0 34 31.5 63.5t73.5 40.5l6 69q0 5 13 10.5t14 7.5q-6 -52 -8 -82q19 1 37 -3q2 0 3.5 -4t3 -7t4.5 -1q8 5 17 -4q9 -8 14 -19q1 -2 -5 -7t-18 -13l-19 -11q-2 -5 -4 -17q-2 -10 -4 -3 q-2 3 -1 7q0 1 0.5 3.5t1.5 5.5t1 5q-11 18 -35 28l-3 -38q-7 -6 -8 -10.5t2.5 -9.5t3.5 -7q-3 -3 -3.5 -6t0.5 -7t1 -6q-2 -12 -4 -38q25 -17 38.5 -27.5t28.5 -28t20 -34.5q11 -42 -22.5 -74t-84.5 -44l-8 -86q0 -4 -13.5 -10t-13.5 -7l4 37q0 3 3 5.5t3 4t-5 7.5l4 45 h-12q-27 0 -45 9q-4 2 -2 6.5t0 7.5t-10 1q-6 -1 -10 8.5t-3 19.5zM65 273q7 1 14 -9q12 -16 36 -33l11 111q-14 3 -28 1q-20 -4 -27.5 -20t-2.5 -36q0 -2 -4 -7q-5 -7 -2 -7h3zM122 30h10q24 0 39 12t12 36q-1 4 -0.5 7.5t-0.5 7.5t-4 5q-2 1 -1.5 7t-0.5 9q-1 2 -5.5 3.5 t-5.5 3.5l-10 11q-10 10 -22 19z" />
<glyph unicode="%" horiz-adv-x="448" d="M30 246q-11 50 32 96q52 50 94 50q18 0 32 -10q24 -5 60 -5q77 0 144 28l1 -1l-2 -2q-134 -185 -199 -282q-6 2 -9 -2.5t1 -11.5q-5 -7 -62 -92q-6 -9 -28 -19.5t-24 -13.5q75 117 210 305q6 -1 7.5 1t4.5 15q1 2 6 3.5t7 7.5q5 14 8 18q4 5 13.5 20t15.5 22 q-61 -24 -124 -25q13 -26 13 -52q0 -45 -32 -76q-52 -50 -91 -50q-19 0 -36 13l-16 15l-2 10q-1 9 -12 8q-3 0 -3.5 8t-4.5 9q2 5 1 6.5t-3 3.5t-2 3zM68 290q0 -25 11 -42q28 -41 54 -48q23 -5 33 2q27 17 27 63q0 15 -5 32q-1 2 1.5 8.5t2.5 10t-7 1.5q-3 -1 -5 1t-4 6 t-3 5q-13 17 -24 24l-2 1q-1 0 -1 1q-30 15 -44 8q-34 -20 -34 -73zM232 82q0 41 34 78q24 22 46 35q12 7 18 4q7 -4 10.5 2.5t5.5 6.5q4 -4 9 -1t6 3q32 0 53 -31t21 -65q0 -46 -32 -75q-31 -29 -53 -40q-4 -1 -9 0.5t-7 0.5t-2 -9q-8 -3 -17 -3q-20 -2 -39 13 q-44 35 -44 81zM268 128q2 -2 2 -16q0 -26 13 -46q28 -41 54 -48q21 -4 32 3q28 19 28 64q0 15 -5 30q-13 41 -42 58q-25 11 -44 3.5t-28 -29.5q-1 -2 -6 -6t-6 -6t2 -7z" />
<glyph unicode="&#x26;" horiz-adv-x="541" d="M27 130q0 25 7 46q26 81 145 153q-20 49 -21 93q-6 88 76 144q46 32 86 32q32 0 53 -25q18 -21 18 -47q0 -74 -150 -166q1 -2 5 -9.5t6 -10.5q1 -2 0 -6t-2.5 -7t0 -5.5t8.5 -3.5q3 0 5 -2t3.5 -5.5t2.5 -5.5t1.5 -12t5.5 -16t18 -4q53 -79 126 -145q26 57 26 111 q-1 42 -23 70.5t-57 28.5q-20 0 -41 -10l-4 -1l11 11q44 40 96 37q7 -12 12.5 -13.5t15.5 7.5q21 -10 31 -31q13 -29 13 -62q0 -39 -17 -83q-18 -47 -43 -82q8 -8 13 -11q57 -49 91 -63q14 -6 29 -6q28 0 48 24q7 9 13 8q5 -1 -2 -11q-42 -60 -117 -60q-8 0 -17 2.5t-19 8 t-17.5 9.5t-18.5 13t-15.5 12.5t-16 13.5t-12.5 11q-59 -60 -136 -88q-35 -13 -73 -13q-64 0 -106 42q-57 59 -57 127zM81 163q0 -63 51 -114q2 -2 3.5 -8.5t3.5 -10t5 -2.5q16 4 21 2.5t10.5 -9t8.5 -8.5q35 -15 67 -15q84 0 137 74q-14 12 -20 18q-1 3 -2.5 6t-3.5 5 t-4 3.5t-4 2.5l-4 2t-4 2.5t-3 2.5q-116 107 -160 206l-1 -0.5t-2 -0.5q-21 -10 -39 -27t-31.5 -37t-21 -44t-7.5 -48zM226 538q-34 -71 12 -172q71 44 93 94q1 3 3.5 7.5t4.5 8t3.5 7.5t0.5 6.5t-5 3.5q-7 2 -7 12.5t-1 12.5q-1 3 2.5 10.5t1.5 10.5q-1 2 -11 2.5t-12 1.5 q-10 9 -29 14q-22 6 -35 2.5t-21 -21.5z" />
<glyph unicode="'" horiz-adv-x="156" d="M57 355q0 24 2 74q0 3 3 7.5t3 7.5t-5 10q-2 4 -2 6.5t1.5 8t1.5 7.5q1 21 1 64q0 8 25.5 20.5t28.5 15.5q0 -31 -2.5 -92.5t-2.5 -91.5q0 -9 -26.5 -22t-27.5 -15z" />
<glyph unicode="(" horiz-adv-x="307" d="M29 197q0 125 50 240t139 184q4 3 14 3q8 0 22 -2.5t16 -2.5h1q-28 -22 -40 -35q-4 -4 -8.5 -12t-9.5 -13.5t-11 -6.5q-9 -1 -12 -5t-3 -9.5t-2 -7.5q-101 -142 -101 -333q0 -120 47.5 -222.5t141.5 -160.5h-3q-3 0 -17 -2.5t-21 -2.5q-8 0 -12 3q-64 41 -109 103 q-1 2 -7 21.5t-21 24.5q-3 1 -1.5 14t-12.5 15q-5 1 -7 6t-3 13.5t-2 12.5q-28 81 -28 175z" />
<glyph unicode=")" horiz-adv-x="303" d="M29 -200q94 58 141.5 160.5t47.5 222.5q0 53 -9 104q-1 6 5 18.5t6 17.5q0 13 -25 24q-7 3 -9 10.5t-3 19t-3 16.5q-51 136 -149 212h1q2 0 16 2.5t22 2.5q10 0 14 -3q89 -69 139 -184t50 -240q0 -85 -24 -163q-1 -2 -12 -19t-8 -32q2 -9 -2.5 -18t-12.5 -12 q-17 -6 -24 -27.5t-9 -23.5q-41 -52 -99 -90q-4 -3 -12 -3q-7 0 -21 2.5t-17 2.5h-3z" />
<glyph unicode="*" horiz-adv-x="466" d="M64 440q1 4 2.5 10.5t8.5 15t16 4.5l131 -62q-8 38 -15 76q-1 3 2 9t3.5 9.5t-5.5 6.5q-5 1 -8 8.5t-3.5 14.5t-1 16t-0.5 10q-1 11 8.5 14.5t19.5 1.5l10 -2q36 0 36 -19l-24 -145q20 13 46 27q3 2 10.5 1.5t11.5 5.5q2 3 11.5 8t11.5 9q2 3 4 5t4 2h5t4 1q22 10 29 10 q9 -1 14.5 -8t6.5 -13l1 -7q12 -27 -2 -41q-5 -4 -35 -9q-1 0 -19 3t-21 -5q-3 -3 -5.5 -4t-4.5 -1h-7l-58 -5q86 -82 111 -104q3 -7 -1.5 -15.5t-10.5 -13.5l-6 -6q-2 -3 -6 -6t-16 -9t-19 1q-9 7 -26.5 42t-30.5 66l-13 32q-15 -31 -31 -65q-1 -3 -3 -5t-3 -2.5t-1.5 -3 t-0.5 -5.5q1 -6 -2 -13t-9 -16l-6 -8q-9 -18 -12 -22q-6 -4 -15.5 -3t-17.5 5l-9 3q-1 1 -3 2t-7 5.5t-7.5 8.5t-3.5 10t4 11q8 10 35.5 38t50.5 50l23 23q-34 1 -69 3q-14 0 -21 1q-2 0 -10.5 4.5t-12.5 1.5q-8 -6 -29 1q-12 4 -14 14.5t1 19.5z" />
<glyph unicode="+" horiz-adv-x="406" d="M50 143q6 1 24 19.5t28 18.5l69 -3l2 24q0 3 3.5 7.5t1.5 7.5q-3 4 -3 13l2 31q1 10 26.5 21t28.5 16l-3 -46q0 -3 -3 -8t-3 -7.5t4 -8.5q2 -3 1.5 -4.5t-1.5 -5t-1 -5.5l-3 -35h28q70 0 100 15q1 0 2 0.5t2 0.5l-11 -11q-12 -11 -24 -18q-14 -8 -16 -8q-9 1 -15 -3.5 t-8 -4.5q-23 -7 -60 -9q-4 -56 -5 -83q0 -9 -26.5 -21.5t-27.5 -16.5q4 83 7 121h-21q-8 0 -13 2q-3 1 -10.5 -0.5t-8.5 -1.5q-10 0 -21 0.5t-24.5 1.5t-20.5 1z" />
<glyph unicode="," horiz-adv-x="190" d="M52 -83q13 9 23 21t12 35q0 25 -20 83q0 4 13.5 13.5t27.5 16.5l13 7l6 -16v-3.5t-0.5 -4.5t1 -3.5t4.5 -1.5q2 0 3 -2.5t1 -6.5v-5t-2 -4q-3 -5 0 -6q7 -3 7 -23q0 -43 -40 -74q-28 -23 -43 -31q-8 -4 -10 -1t4 6z" />
<glyph unicode="-" horiz-adv-x="379" d="M54 198q6 1 21 22q17 21 28 21q6 0 48 -2q3 0 11 -5t11 -2q6 5 12 6.5t14 0t10 -1.5q26 0 36 1q7 1 18.5 1.5t17.5 1t14 2t14 3.5t12 5q5 3 7 3h1q0 -2 -6 -7q-61 -55 -157 -55q-37 0 -44 6q-2 5 -12.5 1.5t-14.5 -3.5q-30 2 -41 2z" />
<glyph unicode="." horiz-adv-x="182" d="M50 40q0 4 23.5 21t29.5 17q2 0 7 -7q1 -1 0 -5.5t1 -4.5q10 -4 10 -9t2 -9.5t5 -6.5l4 -3q0 -4 -24 -21t-30 -17q-1 0 -6 8q-1 1 0 6.5t0 6.5t-5.5 2.5t-5.5 2.5q-10 18 -11 19z" />
<glyph unicode="/" horiz-adv-x="167" d="M-18 -17q-8 -5 -3 6q2 5 10 20q5 11 7 15l144 363q1 1 6 11t7 22q0 2 6.5 9t3.5 17q-1 3 0.5 7t4.5 8.5t4 6.5l32 81q3 9 26 20q3 1 7.5 3.5t7.5 4t5.5 2.5t4.5 1t3 -2q2 -4 -1 -10.5t-9 -15t-8 -14.5q-27 -68 -77.5 -193t-70.5 -176q-1 -2 -4.5 -3t-4.5 -7 q-2 -16 -3 -19q-12 -30 -25 -65q-1 -2 -4.5 -6t-4 -6t0.5 -7l-15 -39q-4 -9 -23 -18q-12 -6 -27 -16z" />
<glyph unicode="0" horiz-adv-x="400" d="M26 177q0 69 52 128q86 82 154 82q21 0 42 -9q2 -1 5 -4t6 -4.5t6 -0.5q5 1 8.5 -1.5t7 -8t5.5 -7.5q62 -62 62 -147q0 -75 -53 -127q-82 -80 -145 -80q-36 0 -66 24q-3 2 -1 8t0 8t-14.5 5t-14.5 6q-54 57 -54 128zM76 199q5 -5 3 -15t1 -12q9 -6 13.5 -22.5t6.5 -19.5 q20 -35 56.5 -65.5t71.5 -30.5q27 0 48 21q26 27 37.5 66t6.5 78q0 3 -5 14t-2 16q4 6 1 14t-12 12q-4 2 -6.5 9t-2.5 8q-26 43 -60 61q-28 15 -57 15t-46 -17q-47 -49 -53 -105q0 -2 -2 -9t-1.5 -9.5t2.5 -8.5z" />
<glyph unicode="1" horiz-adv-x="271" d="M53 304l6 7q18 15 39 27l56 33q8 7 15 8q7 4 8 3q0 -1 -2 -3q12 -6 10 -53q0 -4 -4 -11t-5 -11.5t4 -12.5q4 -4 4 -10t-2 -16t-2 -13q-16 -154 -12 -193q3 -29 11 -32q-4 -2 -23 -21t-29 -17q-12 4 -14 42q0 3 2 6.5t2 8.5t-4 13q-2 5 3.5 18t1.5 19q-5 7 -5.5 13.5t2 15 t2.5 12.5q13 161 13 169q0 33 -8 36q-8 -5 -28.5 -16.5t-31.5 -18.5z" />
<glyph unicode="2" horiz-adv-x="364" d="M4 -1q31 26 38 30q124 76 178 157q28 40 28 79q0 26 -16 45q-1 1 -3 3.5t-3 3.5l-3.5 3.5t-4 3.5t-4 1.5t-5 0.5t-5.5 -1q-14 -5 -37 2q-9 2 -11.5 1t-5 -4.5t-4.5 -4.5q-30 -9 -57 -25t-34 -26q-8 -13 -15 -8q-5 3 1 9q29 28 50 46t54.5 37t62.5 23q46 6 73 -20.5 t27 -67.5q0 -20 -8 -41q-11 -30 -28.5 -58t-36.5 -36q-8 -3 -12 -7t-7.5 -9t-6.5 -8q-1 -1 -22 -11t-22 -15q-3 -10 -3 -11l-7 -5q-39 -28 -68 -46h30t30 -0.5t30 -0.5q90 0 135 37q8 7 3 -5q-1 -3 -3 -7q-27 -54 -96 -63q-2 0 -16.5 3.5t-18.5 -5.5q-2 5 -7 5.5t-12 -2 t-10 -2.5q-11 0 -43 2t-49 2q-35 0 -56 -5z" />
<glyph unicode="3" horiz-adv-x="365" d="M-35 -176q69 -2 158 56t104 131q3 14 5 42q0 1 5.5 8t5.5 8q0 3 -6 6.5t-6 6.5q-7 45 -40 59q-30 13 -65 13q-14 0 -24 -3q-7 -4 -11.5 -6.5t-11 -6t-10 -4.5t-3.5 0q-1 2 10.5 10.5t14.5 10.5q1 0 1 0.5t1 0.5l5 4l4 2q27 21 53 48.5t56.5 64t47.5 54.5q-8 -1 -31 -1 q-15 0 -50 1t-52 1q-56 0 -68 -9q-4 -3 -4 -1q1 10 28 36q21 20 35 23q21 3 55 3q3 0 8.5 -2.5t10.5 -2.5t11 5q4 0 19.5 -6t21.5 1q8 4 17 4.5t21.5 -0.5t16.5 -1h36q-20 -21 -58.5 -65t-58.5 -65q-1 -1 -8.5 -3t-6.5 -10l-8 -10q-25 -25 -48 -44q24 8 46 8 q50 0 78.5 -33.5t28.5 -79.5q0 -41 -22 -79q-44 -75 -131.5 -130.5t-178.5 -53.5q-15 0 -15 5q1 4 13 4z" />
<glyph unicode="4" horiz-adv-x="323" d="M-22 0q44 64 95 155l21 37q1 2 9 5t9 16q1 14 18 43q27 47 57 89v1l1 1q3 5 27.5 19t25.5 16v-1q-3 -44 -8 -198q0 -4 -2.5 -11t-2.5 -11t4 -13q0 -4 -3 -11.5t-3.5 -11t4.5 -10.5q3 -6 3 -9.5t-2.5 -12t-2.5 -11.5q-1 -14 -5 -42q48 6 68 20q5 3 4 0q-1 -6 -11 -14 q-39 -33 -65 -40q-15 -98 -40 -148q-16 -31 -45 -57t-57 -33q-15 -4 -17 0q0 3 5 5q42 16 65 59q6 10 8 16q1 3 3.5 4.5t3.5 6t1 15.5q-1 7 3.5 20t5.5 17q8 42 15 90h-10q-90 -3 -181 -3q-2 0 -1 2zM27 38q9 0 39.5 -1t46.5 0h60q5 37 7 80t2.5 97.5t1.5 82.5 q-49 -76 -157 -259z" />
<glyph unicode="5" horiz-adv-x="343" d="M19 -226q-9 -5 -5 0q16 16 41 31q67 37 131.5 115.5t64.5 152.5q0 28 -10 51q-28 62 -112 62q-47 0 -102 -20h-2l6 71q1 7 8 12.5t7 6.5q0 3 -13 11l5 71q1 8 23.5 23.5t31.5 14.5q12 -1 44.5 -4t50.5 -4q3 0 14.5 -0.5t18.5 -0.5q2 0 6 -2t8 -2t9 4q4 4 9.5 4.5t13 -0.5 t11.5 -1q32 4 42 14q4 5 6 1q1 -4 -2 -10q-7 -14 -28.5 -26t-42.5 -15q-36 -6 -71 -6q-41 0 -91 5q-2 -119 -11 -128q58 20 106 20q69 0 97 -42q22 -32 12 -44q-6 -7 0.5 -19t6.5 -17q-4 -62 -60 -141q-77 -107 -223 -188z" />
<glyph unicode="6" horiz-adv-x="392" d="M28 168q-5 43 5 78q31 117 154 211q2 1 5.5 5t6.5 6t6 2q7 -1 10 1t4.5 6t3.5 5q42 26 67 37q15 6 15 3q-1 -7 -28 -25q-2 -1 -3 -2q-113 -66 -166 -159q6 6 12 9q43 30 85 38q3 1 9 -1.5t8 -2.5q3 0 8.5 3t8.5 3q25 -2 41 -14q39 -26 63.5 -71.5t24.5 -94.5 q0 -21 -6 -44q-14 -55 -62 -105.5t-102 -59.5q-86 -14 -138 75q-3 6 -0.5 11t-0.5 11t-15 10q-7 19 -11 34q6 12 5.5 15.5t-5.5 8t-5 7.5zM79 229q1 -58 31 -115t81 -75q17 -6 32 -6q45 0 69.5 46t21.5 100q7 11 6.5 14.5t-6.5 11t-7 11.5t1.5 15t1 18t-11.5 6q-5 0 -9 4 t-8.5 12.5t-5.5 10.5q-45 66 -102 66q-31 0 -62 -21q-6 -5 -12 -7q-21 -48 -20 -91z" />
<glyph unicode="7" horiz-adv-x="364" d="M-43 -215q14 7 33 18.5t49 39t49 58.5q40 66 80 167q2 4 6.5 9t7 11.5t0.5 16.5q-1 8 2 17t9 19t8 16q8 5 10 11t1 10.5t1 10.5q30 84 46 125q6 15 7 21q-99 11 -145 11q-65 0 -87 -22q-5 -6 -7 -3q-2 2 2 7q28 37 62 48q26 9 64 7q29 0 36 -6q9 -7 13 -6.5t10.5 3.5 t10.5 3q72 -8 115 -8q-75 -215 -128 -322q-65 -128 -155 -207q-15 -14 -49.5 -35.5t-46.5 -25.5q-8 -3 -8 2q0 2 4 4z" />
<glyph unicode="8" horiz-adv-x="396" d="M37 108q0 44 35.5 86t86.5 72q-21 14 -30 20.5t-25 21.5t-22 30.5t-4 32.5q1 4 6.5 5.5t7.5 2.5t-1 11q-5 12 14 31q33 34 87.5 52t90.5 8q32 -8 49.5 -27.5t17.5 -44.5q0 -36 -33 -65q-35 -31 -76 -55q16 -10 27.5 -18t26 -18.5t24.5 -20t21 -20.5t17.5 -22t10.5 -23 t4 -25t-5 -26q-19 -53 -76 -89t-118 -36q-51 0 -88 28q-2 2 1 6.5t1.5 8.5t-15.5 4q-13 0 -28 34q-7 17 -7 36zM92 147q0 -44 27 -71q18 -19 54.5 -34t68.5 -15q49 0 64 35q10 21 10 41q0 19 -9 37q-1 2 -2 6.5t-2 7t-4 6t-9 6.5q0 9 -3 12.5t-8.5 5t-7.5 3.5 q-16 15 -102 73l-19 -11q-27 -12 -42.5 -40.5t-15.5 -61.5zM129 410q-3 -31 24 -58q14 -15 78 -57q11 6 16 8.5t15.5 9.5t15.5 11.5t11.5 12.5t8.5 15.5t1.5 17t-4.5 20.5q-1 3 -2 13q-2 15 -4 16q-1 0 -2 -1q-6 -5 -15.5 2.5t-10.5 13.5q-1 5 -5.5 7t-13.5 1.5t-13 0.5 q-22 4 -40 4q-56 0 -60 -37z" />
<glyph unicode="9" horiz-adv-x="390" d="M23 168q0 32 10 61q18 57 73 106.5t110 49.5q48 0 85 -37t51 -83q10 -33 10 -69q0 -49 -17 -98q-44 -133 -212 -247q-34 -23 -56 -36q-18 -10 -17 -5q0 7 15 19l3 2l35 23l10 4q10 4 13 13q5 0 9.5 3.5t9 9t6.5 7.5q84 75 119 151q-62 -44 -115 -44q-43 0 -81 31 q-1 1 -8.5 5t-11 8t-1.5 10q4 9 1.5 14.5t-17.5 8.5q-5 1 -7.5 6t-4 14t-2.5 12q-10 27 -10 61zM73 210q5 -5 7 -10t1 -9t0 -10q10 -48 41 -93t71 -58q10 -3 25.5 -0.5t33 9.5t34.5 17q12 28 17 63l2.5 12.5t3 12.5t2 12t0.5 13q-1 5 -5 17.5t-5 16.5q0 2 3 4.5t6.5 5.5 t3.5 5q1 4 -4.5 6.5t-13.5 2.5q-18 63 -68 97q-33 21 -59 21q-34 0 -56.5 -28t-31.5 -69q-1 -4 -5 -13t-5 -14t2 -11z" />
<glyph unicode=":" horiz-adv-x="183" d="M50 307q0 4 23.5 21t29.5 17q2 0 8.5 -9.5t13 -22t7.5 -13.5q0 -5 -32 -26q-2 -1 -5 -1.5t-5.5 -0.5t-4 -1.5t-0.5 -5.5q-5 -3 -7 -3q-1 0 -8 11q-19 33 -20 34zM51 39q0 4 23.5 21t29.5 17q1 0 13 -18q0 -6 2 -9.5t5 -6t4 -3.5l5 -8q0 -4 -24 -21t-30 -17q-1 0 -7 9.5 t-13 21.5t-8 14z" />
<glyph unicode=";" horiz-adv-x="191" d="M50 307q0 4 23.5 21t29.5 17q2 0 7 -7q1 -1 1 -6.5t1.5 -8t6.5 0.5q1 1 1.5 -2.5t1.5 -3.5q2 -1 5.5 -9t4.5 -9q0 -4 -24 -21t-30 -17q-1 0 -7 9.5t-13 21.5t-8 14zM52 -83q13 9 23 21t12 35q0 2 -2.5 19.5t-0.5 23.5q3 9 2 10t-5 1.5t-5 3.5l-9 25q0 5 54 37 q20 -50 20 -76q0 -43 -40 -74q-28 -23 -43 -31q-8 -4 -10 -1t4 6z" />
<glyph unicode="&#x3c;" horiz-adv-x="330" d="M50 152q0 4 146 136q17 17 41 35q4 3 7 1q2 -1 -2 -5q-12 -12 -36.5 -35.5t-36.5 -34.5l-65 -59l47 -25q2 -1 7 -9t14 -5q2 1 9 -5t14 -4l85 -45q-1 0 -11 -9.5t-22 -19.5t-18 -10q-2 0 -3 1q-12 6 -31.5 18t-37.5 21.5t-38 17.5q-3 1 -11.5 7t-18.5 8q-3 1 -21 11z" />
<glyph unicode="=" horiz-adv-x="373" d="M52 114q8 1 24.5 19.5t27.5 18.5q47 -3 137 -3q53 0 74 13q6 3 7 3t1 -1t-5 -6q-59 -50 -155 -50q-12 -1 -32 1q-2 0 -4.5 -0.5t-4 0t-4.5 2t-6 5.5q-2 2 -4.5 0.5t-7 -3.5t-6.5 -2q-3 0 -18.5 1.5t-23.5 1.5zM52 213q7 1 24 19.5t28 18.5q47 -3 137 -3q53 0 74 13 q6 3 7 3t1 -1t-5 -6q-26 -22 -57 -35q-1 -1 -9 -1.5t-13 -5.5q-2 0 -6.5 3t-6.5 1q-3 -3 -6.5 -4.5t-6.5 -3t-7.5 -2.5t-7 -1.5t-8 -0.5h-8h-9.5h-10q-22 -1 -60 2.5t-51 3.5z" />
<glyph unicode="&#x3e;" horiz-adv-x="330" d="M55 53q42 34 162 93q-4 3 -36 33t-49 46q-3 3 -1 6.5t0 7t-10 4.5q-10 2 -19 9l-20 19q43 38 52 38h2l143 -132q1 -1 -5.5 -6.5t-15 -11t-15.5 -10.5t-9 -6l-176 -94q-5 -3 -7 -2q-1 1 4 6z" />
<glyph unicode="?" horiz-adv-x="371" d="M50 487l5 5q96 86 171 86q28 0 49 -10l1 -4q2 -5 11 -3q8 -5 17 -16q8 -7 8.5 -19.5t6.5 -16.5q3 -2 3.5 -5.5t-0.5 -8t-1 -6.5q0 -38 -20.5 -83t-45 -79.5t-45 -82.5t-20.5 -92v-12q0 -8 -26.5 -21t-27.5 -17v11q0 31 10 64q1 3 4.5 8.5t5.5 11.5t1 14q-1 4 3 7t5 6 q17 33 39 70q21 36 31.5 55.5t21 50t10.5 56.5q0 38 -31.5 61.5t-69.5 23.5q-39 0 -70 -26q-5 -4 -23.5 -16t-21.5 -12h-1zM135 19q0 -1 3 2.5t7.5 9.5t10.5 12t15 10.5t18 4.5l3 -6q2 -5 5 -12t4 -9q0 -1 -3 -5l-4 -3q-1 -1 -5.5 -5t-9 -7.5t-10.5 -8t-12 -7t-10 -2.5 q-1 0 -6 10.5t-6 15.5z" />
<glyph unicode="@" horiz-adv-x="625" d="M18 95q0 145 87 271q49 72 137.5 128t172.5 56q39 0 46 -11q3 -10 16 -7t16 1q3 -1 20 -11q43 -27 69 -75t26 -111q0 -100 -53.5 -182.5t-141.5 -129.5q-35 -19 -49 -19q-26 0 -26 46v22q-24 -32 -62 -57q-24 -16 -40 -16q-23 0 -35 42t-12 79q0 173 121 247q38 23 69 23 q44 0 53 -41q7 -34 -16.5 -124.5t-23.5 -129.5q0 -53 25 -53t58 39q78 95 78 215q0 51 -16 93q-1 3 -1.5 10.5t-3.5 12.5t-11 9q-1 3 -0.5 6.5t1.5 6.5t-1.5 6t-9.5 5t-26 18q-51 45 -138 45q-81 0 -145.5 -59.5t-97.5 -146t-33 -177.5q0 -64 21 -116.5t58 -82.5 q2 -2 2.5 -5t1.5 -5t4 -2q9 1 12 0t7 -4.5t6 -4.5q30 -14 61 -14q44 0 92 27q4 3 5 2t-3 -6q-29 -27 -71.5 -43t-79.5 -16q-46 0 -83.5 27.5t-57.5 72.5q-2 4 -0.5 8t-0.5 8t-9 8q-4 2 -5 6t-1.5 11t-1.5 9q-10 39 -10 89zM239 94q2 -13 8 -15q5 -2 7.5 -5t3.5 -9l1 -6 q13 -31 28 -21q14 9 34 52.5t34 91.5q8 36 13 53q0 2 10 30.5t10 40.5q0 19 -20.5 32.5t-40.5 13.5q-28 0 -48.5 -31.5t-28 -70t-8.5 -76.5q0 -27 3 -54q1 -4 -3 -13t-3 -13z" />
<glyph unicode="A" d="M21 -45q-1 56 14.5 110t44.5 122q10 24 16 36l-1 1q1 0 1 1q37 84 114 227q1 2 3.5 4t4 4.5t0.5 6.5q5 4 7 8t3 8t2 7l34 62l5 11q0 7 7 10q2 2 14 8.5t22.5 13t10.5 8.5l9 -62q0 -2 3 -11.5t1 -14.5q-4 -11 -3 -14.5t4.5 -8.5t4.5 -9q-1 -11 3 -22t4 -13q16 -82 28 -133 q4 -20 7 -30q6 3 11 8l-10 -11q10 -36 16 -54q1 -3 1 -13q0 -7 7 -13q8 -7 10 -22q0 -5 2 -13q15 -41 29 -68q18 -36 38 -56q7 -7 18 -9.5t27 6.5q5 4 6 1q1 -2 -2 -6q-28 -39 -64 -39q-21 0 -40 16q-23 19 -20 38q1 9 -4 13.5t-12.5 7t-8.5 5.5q-2 5 -1 9t-1 9t-10 9 q-4 2 -6 7t-3.5 12.5t-2.5 10.5q-18 48 -34 105q-53 -28 -125 -28q-42 0 -87 8q-21 -58 -28 -80l-6 -21q-7 -4 -8.5 -8.5t0.5 -10.5t1 -9q-4 -18 -8 -52q0 -3 -3 -9.5t-3 -9.5t4 -10q2 -2 2 -5.5t-1 -8.5t-1 -7q1 -44 27 -79.5t70 -27.5q-3 -1 -18.5 -16t-24.5 -16 q-44 -8 -71 26.5t-29 80.5zM133 259q11 6 19 5q94 -24 171 -9q2 0 3 1q-34 130 -54 277q-100 -180 -139 -274z" />
<glyph unicode="B" horiz-adv-x="490" d="M54 491q66 57 171 89q39 11 63 15q3 0 8 -3.5t9.5 -6.5t6.5 0q12 15 34 13q3 0 14.5 -5.5t18.5 -2.5q3 3 8.5 0t8 -5t7.5 -7l7 -7q43 -40 30 -88q0 -1 -4 -7t-3 -13q0 -3 -1.5 -6t-5 -7t-4.5 -6q-32 -45 -95 -81l20 -5q6 -2 19.5 -9.5t23.5 -9.5q7 -1 16 -11t18 -14 q3 -1 7 -6.5t5 -6.5q39 -45 39 -101q0 -50 -36 -97q-3 -4 -11.5 -9t-12.5 -9q-3 -3 -7.5 -12t-8.5 -12q-41 -35 -90 -57q-45 -21 -95 -21t-89 23q-3 2 -9.5 4.5t-10.5 4.5t-8 7t-5 11q-1 2 -5 17t-16 17q-5 1 -7 6.5t-2.5 17t-0.5 14.5q-6 42 -6 85q0 49 5.5 98t19 127 t16.5 95v2q-17 -12 -35 -26q-7 -6 -10 -2q-2 3 3 7zM113 299q-16 -164 37 -231q21 -26 33 -29q11 -3 24.5 -9t22.5 -8q16 -3 33 -3q57 0 103.5 30.5t53.5 84.5q10 70 -33 121l-6.5 6.5t-8 8.5t-4 10t-0.5 14q0 3 -3.5 1.5t-9 -3.5t-7.5 0q-41 30 -91 36q-2 0 -6 0.5t-5 0.5 l-2 -1q0 1 1 1q-13 0 -27.5 -2.5t-21.5 -4.5t-26.5 -8.5t-24.5 -8.5q4 2 22.5 18.5t28.5 19.5q7 2 24 8t25.5 8t21 5t23.5 3l8 3q39 8 65 34t20 64q-3 35 -28 58q-17 17 -27 20q-2 1 -12 2t-13 3q-6 4 -10.5 4.5t-10 0t-8.5 -0.5q-64 5 -126 -18q-3 -20 -12 -71.5t-13 -79.5 l-3 -23q-1 -4 -5 -9.5t-4 -9.5t5 -16q2 -6 1.5 -9t-2.5 -10t-2 -10z" />
<glyph unicode="C" horiz-adv-x="500" d="M26 281q0 9 2 31q1 7 11 12t7 12q-2 4 -4 9.5t-3 7t-1 4t0.5 5t2.5 7.5q18 47 56.5 92t88.5 78q3 2 10 7.5t13 9t13 5.5q5 2 23 7t28 15q4 4 9 5.5t12.5 2.5t10.5 2q35 8 66 8q84 0 143 -55q1 0 -3 -3.5t-11 -9.5t-14 -11q-18 -15 -28 -18q-6 -32 -7 -40t-3 -10 q-1 -1 -3 3l-1 14q7 34 8 36l-24 18q-19 11 -25 24q-1 3 -5 4t-8 -0.5t-8.5 -2t-8.5 0.5q-30 8 -58 8q-92 0 -160.5 -64.5t-68.5 -166.5q0 -42 12 -82v-15q0 -6 9 -10q-4 -14 -3 -17t8 -6.5t10 -7.5q39 -72 118 -115q2 -1 7 -9t20 -8q6 0 17.5 -3.5t13.5 -3.5q21 -6 45 -6 q30 0 45.5 7t42.5 29q1 1 18.5 13.5t22.5 16.5q9 7 13.5 2t-8.5 -16q-111 -94 -200 -94q-47 0 -92 26q-4 2 -17.5 14.5t-26.5 16.5q-8 2 -14 8t-13.5 15.5t-10.5 13.5q-55 62 -71 131q-6 24 -6 53z" />
<glyph unicode="D" horiz-adv-x="506" d="M40 512q31 28 91 48l3 3v-2q54 17 106 17q40 0 81 -12q3 -1 8.5 -4.5t10 -5t8.5 -0.5q8 3 13.5 0t12 -10.5t9.5 -9.5q26 -18 44 -40q31 -38 47 -81q7 -19 0 -27q-7 -12 -4.5 -16t10.5 -10.5t8 -11.5q5 -92 -57.5 -180t-158.5 -150q-75 -49 -131 -49q-26 0 -48 13 q-42 25 -44 135q0 3 4 6.5t4 7.5t-8 10q-3 2 -3 6.5t1.5 10t1.5 8.5q1 69 10 167q0 1 5.5 19t-1.5 26q-2 5 2.5 16.5t0.5 20.5q-5 1 -0.5 19.5t4.5 19.5l6 64q0 4 3 7q-14 -6 -34 -18q-14 -7 -13 -5q0 2 8 8zM105 168q0 -4 2 -13.5t2.5 -14.5t-3.5 -12q-6 -7 -7 -12 t1.5 -7.5l5.5 -5.5t4 -6q15 -84 81 -79q20 2 50 13q4 1 11 0.5t11 2.5q2 1 8.5 8.5t9.5 8.5q28 11 55 40q46 49 70 119q1 4 6 14.5t6.5 18.5t0.5 18t1 27.5t2 25.5q-5 84 -53 138q-33 37 -74 61q-3 2 -8.5 7t-12 8t-18.5 4q-8 1 -22.5 6t-19.5 6q-19 4 -41 4 q-7 0 -20.5 -1.5t-20.5 -1.5l-13 -143q-1 -5 0 -9.5t-1 -11t-7 -12.5q-4 -2 -0.5 -9.5t3.5 -11.5q-5 -53 -6 -106q-3 -60 -3 -74z" />
<glyph unicode="E" horiz-adv-x="445" d="M25 81q-23 31 -22 67.5t24 68.5q2 3 5.5 4.5t6.5 2.5t6 5.5t4 13.5q5 5 12 9.5t14.5 10t13.5 13.5q5 5 10.5 9t17 9.5t12.5 5.5q27 14 59 27q-49 14 -80 41t-21 67q17 66 107 121q52 31 114 31q28 0 55 -6q3 -1 6 -4.5t6 -4.5t12 2q16 -3 27 -10t15 -8t7.5 -2.5t5.5 -3.5 t3.5 -3t3.5 -3t4 -3q-2 -1 -15 -13.5t-26 -22t-17 -6.5q-26 17 -62 32q-2 1 -4.5 3t-4.5 3.5t-6 2t-9 -0.5t-8.5 6.5t-7.5 8.5q-3 0 -15.5 -3t-15.5 -3q-29 3 -59 -5q-26 -7 -41.5 -30t-15.5 -49q0 -31 22 -52q3 -3 7 -9t9 -9.5t15 -4.5q4 0 8 -3l8 -6t8 -3q14 0 36.5 -8.5 t32.5 -9.5q-6 -2 -25.5 -23t-30.5 -19h-2q-7 -5 -12 -5q-36 -6 -70 -19t-63 -39.5t-29 -59.5q0 -38 36 -81q1 -18 7 -26t14 -3q8 3 10.5 2.5t7.5 -7t7 -7.5q29 -19 57 -29q4 -1 10.5 -2.5t10.5 -3t9 -6.5q6 -6 15 -7.5t19 0t14 0.5q88 -11 142 42q13 13 17 8.5t-18 -24.5 q-45 -37 -80 -53.5t-79 -16.5q-68 0 -136 29q-2 1 -11.5 8t-20.5 8q-6 0 -12 3.5t-9.5 6.5t-10 9.5l-8.5 8.5q-3 10 -13.5 17.5t-12.5 10.5z" />
<glyph unicode="F" horiz-adv-x="531" d="M16 86q-1 10 1 19t4 14.5t9 13.5t9.5 11t11.5 11t11 9q11 10 14 6q2 -3 -10 -15q-16 -15 4 -44q2 -3 3 -7.5t2 -7t5.5 -6.5t12.5 -7q-1 -8 7 -9t9 -4q4 -13 10 -16.5t14.5 -3.5t13.5 -2q51 -24 100 -24q47 0 74 23q49 41 76 124q1 3 4.5 10.5t5.5 15t2 19.5q0 8 3 21 t4 17q3 22 7 68q-60 6 -111 6q-26 0 -51 -3q-69 -13 -90 -29q-6 -5 -7 -1l4 6q82 65 212 65q8 0 23 -0.5t22 -0.5v27q0 61 -5 119q-46 -21 -130 -1q-4 1 -10.5 4t-10 4t-13.5 -1q-7 -1 -11 -0.5t-11.5 3t-11.5 3.5q-2 0 -12.5 5.5t-17.5 4.5q-10 -2 -31 -2q-52 4 -77 -15 q-8 -6 -10.5 -3.5t6.5 9.5q68 48 141 48q22 0 34 -2q36 -3 43 -12q7 -13 22.5 -6.5t18.5 4.5q6 -4 10 -5t9 -1t10 -1q51 -7 61 -7q19 0 49 17l-6 -7q8 5 8 7q5 -50 5 -94q0 -5 -6.5 -23t0.5 -29q4 -11 4 -28q0 -3 -0.5 -11t-0.5 -11q40 -2 58 -2q-2 -1 -23 -21.5t-31 -20.5 h-10q-24 -150 -99 -238q-75 -86 -173 -88q-4 0 -13.5 -1t-16.5 -0.5t-16 5.5q-19 10 -44 11q-2 0 -27 10q-67 29 -71 70z" />
<glyph unicode="G" horiz-adv-x="583" d="M36 270q0 43 15 80q25 62 77 114q2 2 13 9.5t18 18.5q5 8 12.5 13.5t20 13t16.5 9.5q9 -2 18.5 7t10.5 10q85 45 168 45q50 0 91 -17q4 -2 8.5 -9t9.5 -6q11 1 28 -11l14 -12l-24 -20q-24 -20 -31 -22q-17 -43 -18 -50q-3 -13 -9 -4l-2 7q0 2 4.5 12t9.5 22t7 17 q-22 18 -52 33q-3 2 -8 8t-9 6.5t-17 -3.5q-4 1 -17.5 1t-21.5 5q-6 3 -35 1q-95 -5 -166 -68.5t-71 -164.5q0 -42 14 -82q1 -4 1 -13.5t2 -13.5q1 -3 8 -8.5t9 -8.5q4 -7 2 -11t-1.5 -6.5t6.5 -3.5q17 -3 36 -28l19 -26q95 -82 189 -82q56 0 78 19q-4 15 -3 18q6 17 -3 31 q-5 8 1.5 23t4.5 18q-7 8 -5 26q6 55 20 117l2 13q-34 4 -80 15q-18 4 -32 4q-28 0 -40 -11q-7 -6 -8 -2l5 7q15 14 24.5 21.5t27 14.5t37.5 7q2 0 14.5 -4.5t18.5 3.5q9 2 11.5 1.5t6 -2.5t6.5 -2l69 -10q46 -5 67 15q3 2 5 1t-1 -4q-37 -42 -79 -52q-6 -30 -8 -45l-8 -11 q-7 -11 1 -14q4 -4 4.5 -10.5t-2 -15.5t-2.5 -13q-3 -57 7 -98q1 -4 -12 -15q-88 -86 -193 -86q-45 0 -87 19l-22 11q-9 5 -22 22q-6 8 -16.5 9t-13.5 3q-54 42 -86 98t-32 117z" />
<glyph unicode="H" d="M30 252q-3 -3 -4 1q-2 4 8 12q33 27 71 42q1 17 5 51q0 4 3.5 10t3.5 9.5t-4 13.5q-3 4 1.5 17t3.5 17q-4 3 -4 24l1 21q-2 42 -9 56q-3 6 -11.5 9.5t-17.5 0.5t-31 -22q-5 -5 -6 -1q0 2 3 6q93 93 118 55q17 -27 17 -77q0 -25 -8 -94l-10 -79l20 4q49 8 115 8h29 q1 0 19 -3.5t27 0.5q4 1 36 1q4 0 11.5 -0.5t11.5 -0.5l5 51q3 49 5 55q4 22 3.5 24.5t-7.5 20.5q-3 8 -5 22t-4 19q-8 18 -23 18q1 1 6.5 7t10 10.5t11.5 10t13 9t11 3.5q37 0 37 -95q0 -39 -7 -107q-1 -8 -2 -23.5t-2 -23.5q3 0 9 0.5t8 0.5q-4 -2 -19 -17l-3 -16 q-3 -9 -3.5 -25.5t-5.5 -26.5q-7 -7 -4 -20t3 -16q-7 -73 -7 -112q0 -75 23 -75q-7 -2 -23.5 -20.5t-27.5 -17.5q-28 3 -25 91q7 9 7.5 11t-6.5 12q3 51 4 55q2 7 4 40q6 66 10 95q-41 -4 -62 -1q-5 1 -13.5 3.5t-17.5 3.5t-20 0q-11 -2 -17.5 -3.5t-10.5 -1.5h-32 q-17 0 -20 2q-8 3 -11 3t-8.5 -3t-8.5 -3l-48 -3q-6 -46 -8 -78q0 -5 -4 -14.5t-4.5 -14.5t4.5 -15q4 -9 4 -13.5t-3 -14.5t-3 -14q0 -5 -0.5 -15t-0.5 -14q0 -65 15 -62q-5 -3 -14.5 -12.5t-17.5 -16.5t-17 -11.5t-15.5 2.5t-9.5 26q-2 11 -2 37q0 27 3 64t6.5 63.5 t7.5 54.5t4 29q0 2 0.5 5.5t0.5 5.5q-45 -11 -72 -30zM498 335q1 1 3 1h-1z" />
<glyph unicode="I" horiz-adv-x="177" d="M28 519q94 94 118 55q17 -27 17 -77q0 -25 -8 -94q-10 -66 -19 -163l-4 -47q0 -5 -3 -15t-3.5 -15t3.5 -16q2 -4 2.5 -9t-0.5 -9t-2 -9.5t-1 -8.5q-5 -13 -5 -18.5t3 -15t3 -12.5q3 -31 12 -30q-5 -3 -15.5 -13.5t-20.5 -19t-18 -9.5q-22 -4 -22 68q0 27 3 63.5t6.5 63.5 t7.5 54.5t4 28.5q1 6 3.5 17.5t3.5 17.5t-1 19q-1 7 -0.5 11t2 11t1.5 11q1 5 3.5 15t3 15t-2.5 18q-5 5 -2 31.5t3 32.5q-2 42 -9 56q-3 6 -11.5 9.5t-17.5 0.5t-31 -22q-5 -5 -6 -1q0 2 3 6z" />
<glyph unicode="J" horiz-adv-x="152" d="M-112 -235q55 48 91 123l15 34q3 4 6.5 11t9.5 23.5t4 26.5l11 46l19 148q7 80 12 178q0 7 3 20.5t3.5 19.5t-4.5 16l3 14q3 14 -1 17q-4 13 -4.5 18t2.5 14.5t3 14.5q2 51 0 61q-4 -2 -21.5 -11.5t-24.5 -12.5q-5 -5 -9 -1q-1 2 4 6q100 65 109 57q2 -11 1.5 -27 t-1.5 -47.5t-1 -40.5q0 -50 -6 -155q-1 -7 0.5 -19t1.5 -17q0 -15 -6 -31q-19 -18 -2 -36q4 -1 1 -11t-3 -11q-4 -39 -7 -61q-31 -223 -165 -339q-17 -15 -41 -31q-5 -3 -7 -4l-2 1q1 2 6 6z" />
<glyph unicode="K" horiz-adv-x="469" d="M28 518q93 93 118 55q1 -2 5 -7.5t5 -8t3.5 -8.5t-0.5 -9q-2 -7 1 -16.5t3 -11.5q1 -16 -1 -50q-5 0 -4.5 -24t0.5 -27l-7 -48q20 29 42 56q2 3 10.5 10.5t14.5 17.5q4 6 15 14t15 17q5 10 10.5 15.5t13 9.5t11.5 7q90 78 147 63q2 0 8.5 -6.5t15.5 -4.5q2 0 4 -1.5 t4.5 -5t3.5 -4.5q11 -14 16 -22q1 -3 -13.5 -13.5t-30 -19.5t-16.5 -8q-16 27 -37 36q-28 12 -61.5 -5t-68.5 -58t-55 -68.5t-46 -67.5q-2 -3 -3 -5q35 20 61 20q52 0 86 -42q-1 -7 2 -11t7.5 -7t6.5 -6q8 -14 13 -27q2 -5 10.5 -36.5t21.5 -69.5t26 -65q1 -2 4.5 -12.5 t7 -15t9.5 -5.5q5 -1 12 -8.5t10 -8.5q13 -5 25 3q20 13 21 8q1 -4 -12 -13q-57 -40 -82 -27q-32 16 -51 67q-2 5 -1 9t-0.5 8.5t-7.5 8.5q-5 4 -7.5 10.5t-4 17.5t-2.5 15q1 8 -0.5 13t-4.5 9t-4 7q-11 39 -27 69q-17 30 -46.5 55t-59.5 25q-10 0 -20 -3q-17 -142 -17 -208 q0 -68 16 -66q-2 -2 -10 -11t-14 -14.5t-15 -11t-17 -5.5q-18 1 -21 42q0 1 2 13t-3 13q6 10 0 29q-6 6 -1 23l4 18q7 75 18 140q16 150 14 199q-2 42 -9 56q-3 6 -11.5 9.5t-17.5 0.5t-31 -22q-5 -5 -6 -1q0 2 3 6z" />
<glyph unicode="L" horiz-adv-x="417" d="M11 -4q-11 -8 -11 -2q0 3 12 14q12 10 24 18q9 11 19 35q21 60 24 172q1 6 0 18t-1 16q0 2 1.5 9.5t1.5 13.5t-4 9q9 14 9 16.5t-5 12.5q-2 4 1 30q3 44 14 76q23 68 97 121t144 47h1l2 -1q5 -3 14 -12q2 -2 3.5 -7.5t4.5 -6.5q5 -1 7.5 -3.5t5.5 -7.5t3 -6q2 -3 0.5 -8 t0.5 -9.5t10 -4.5q3 0 3.5 -2.5t0.5 -6t1 -5.5q8 -21 12 -45q0 -2 2 -7.5t2.5 -8t-1.5 -6.5q-6 -5 -2.5 -14t3.5 -10q-2 -50 -28 -75q-16 -14 -40 -30l-16 -7q-1 1 3 4q26 24 21 91q0 4 0.5 15t-1 17.5t-6.5 11.5t-7.5 19t-3.5 16q-23 55 -49 68h-3q-63 6 -97 -40 q-2 -3 -9.5 -9t-10 -12.5t-0.5 -17.5q1 -5 -0.5 -10t-4.5 -11t-4 -10q2 -10 -3 -31t-6 -27q-3 -30 -4 -93.5t-5 -102.5q0 -4 -2.5 -6t-4.5 -4.5t-3 -6.5q-1 -5 0 -21.5t-1 -20.5q-19 -67 -59 -99q16 5 42 5q9 0 33 -2q2 0 17 -5t20 0q12 4 25 -10q2 -3 9 0t9 3 q77 -13 109 -15q2 0 7 -1.5t6 -1.5q5 3 9 4t9 1.5t7 0t8 -1.5t8 -1q21 -3 41 14q7 6 8 0q0 -4 -5 -9q-18 -20 -39.5 -31t-46 -14t-59.5 -1q-5 0 -9 4t-9 4t-19.5 -1t-19.5 0q-25 4 -53 8t-62.5 9.5t-54.5 8.5q-26 4 -45 -11z" />
<glyph unicode="M" horiz-adv-x="626" d="M-26 537q24 31 48.5 43.5t56.5 9.5q51 -4 93 -67q1 -2 0.5 -5.5t-1.5 -6.5t0.5 -5.5t7.5 -4.5q7 -2 19 -23l25 -50q21 -47 26 -65q7 -24 19 -42q2 -3 3.5 -6.5t2.5 -7t2 -6.5t2 -7t2 -7q22 -68 30 -114l16 46q1 3 4.5 6t4.5 5.5t0 13.5q-1 4 0.5 8t4.5 8.5t4 7.5 q3 9 20 47q70 154 154 231l25 20q3 2 5 1t5 1t7 10q2 5 22 13q25 13 69 15q17 0 20 -4l-3 -3q-2 -3 -6 -5q-5 -2 -7 -5t-2.5 -6.5t-2.5 -5.5q-15 -20 -29 -20q-31 0 -36 -1q-12 -33 -20 -79q-1 -5 -2.5 -21t-4.5 -26q-1 -4 -1 -15t-3 -15q-9 -8 -6 -19l3 -11q-8 -74 -8 -183 q0 -60 2 -89q3 -30 8 -41.5t15 -19.5q8 -7 27 -2.5t27 15.5q4 5 4 2q0 -5 -6 -14q-10 -15 -32 -30.5t-42 -15.5q-18 0 -29.5 11t-17 32t-7.5 40t-3 45q0 6 3.5 16.5t4 17t-7.5 18.5q-4 4 0 14t1 14q-1 11 -1 15t2.5 21.5t2.5 22.5q7 68 35 217q7 43 14 58q-47 -35 -93 -119 q-11 -20 -23 -32q-5 -5 -6.5 -11.5t-2.5 -15t-3 -13.5q-56 -119 -92 -267q0 -2 0.5 -4t0.5 -3q0 -5 -7.5 -10t-18 -10.5t-14.5 -9.5q-3 62 -21 135q-1 4 0.5 7.5t0.5 6t-7 5.5q-4 5 -6.5 14t-4.5 20.5t-3 15.5q0 1 -0.5 10t-7.5 15q-3 3 -4.5 7t-2.5 10t-2 9q-4 10 -8.5 21 t-10 24.5t-8.5 20.5q-34 83 -69 139l-4 5q1 -12 1 -34q-2 -62 -6 -129q0 -4 -2 -13.5t-2 -14t2 -12.5q5 -3 2 -13l-3 -10q-4 -6 -4.5 -10t1 -7.5t1.5 -6.5q-7 -128 -5 -164q4 -44 25 -60.5t51 8.5q10 8 9 3q0 -4 -11 -15q-38 -38 -73 -38q-47 0 -58 66q0 1 1 11t-3 11 q-1 4 -0.5 22t1.5 30q0 3 2.5 7.5t2.5 7t-3 10.5q-2 8 -2 12t2.5 13t2.5 13q4 36 13 104.5t13 99.5q10 80 10 109q0 22 -3 38q-10 9 -28 19q-14 8 -38 0.5t-42 -28.5q-8 -10 -12 -6q-3 2 3 10zM84 560l1 -5q0 -3 2 -1z" />
<glyph unicode="N" horiz-adv-x="490" d="M-3 572q48 56 97 32q18 -10 26 -20l8 -7q8 -7 9 -12q1 -7 4 -10.5t6.5 -5t5.5 -3.5q35 -46 70 -102q2 -3 9 -20.5t16 -21.5q4 -2 6 -5t3.5 -8t2.5 -7q57 -102 138 -266q-1 20 -1 61q0 107 10 201q3 58 13 107q1 4 3.5 11.5t4 14t1.5 13.5q0 11 17 43q0 1 5 5.5t6 12.5 q7 1 9.5 4.5t3.5 9t3 7.5q44 46 86 45q-4 -1 -16 -14.5t-21 -12.5q-10 0 -20 -9t-15 -20q-35 -75 -44 -225q0 -4 -2.5 -13.5t-2.5 -13.5t3 -12q5 -1 2 -13.5t-3 -13.5q-3 -3 -3 -6.5t1 -7.5t1 -6q-1 -30 -1 -89q0 -4 -3 -9t-2.5 -7.5t6.5 -6.5q0 -5 -3.5 -15.5t-4.5 -17 t4 -15.5q5 -6 5 -40l4 -60q0 -4 -10 -11.5t-20 -12.5l-10 -6l-37 75q-2 4 -2.5 11t-3.5 12.5t-11 10.5q-6 4 -9 19t-11 21q-3 2 -5 6t-4 9t-3 8q-30 58 -68 128q-1 2 -4 4.5t-4.5 6t-0.5 9.5q1 8 -1 10.5t-5 2.5t-4 2q-40 70 -71 118l-18 29l-13 19v-24q0 -14 -2 -48 q0 -2 -2.5 -10t-0.5 -12q3 -11 3 -15.5t-2 -16t-2 -16.5q-3 -43 -8 -97l-6 -59q-3 -28 -2 -31q2 -6 2 -13t-1 -15.5t-1 -13.5q0 -4 2 -11t2 -10t-2 -10q-2 -6 -2 -8.5t3 -9t3 -8.5q3 -16 12.5 -33.5t22.5 -22.5q14 -7 38 13q11 9 10 4q0 -4 -12 -16q-36 -36 -73 -36 q-58 0 -58 100q0 11 3 65q0 3 2.5 9.5t2.5 10.5t-2 13q-2 4 4.5 15t2.5 18q-4 11 -4 15t2.5 17t3.5 18q18 128 20 147q12 100 12 113q0 10 -1 15q-3 4 -24 25q-32 28 -51 25q-13 -3 -21 -11q-7 -8 -8 -3z" />
<glyph unicode="O" horiz-adv-x="594" d="M36 262q0 24 4 44q16 85 73 154q2 2 7 3t8 4.5t4 14.5q0 2 6 3.5t9 10.5q5 5 15 13q70 59 126 77q25 8 55 8q71 0 132 -50q3 -2 4.5 -8t4.5 -8q19 -11 29 -22q21 -26 32 -47q2 -3 3.5 -10.5t3.5 -12t6 -3.5q3 1 5 -4.5t1 -9.5q-2 -9 4.5 -21t6.5 -13q13 -47 13 -90 q0 -124 -83 -207q-76 -75 -139 -101q-34 -14 -71 -14q-79 0 -145 63q-2 2 -6 4t-7 5.5t-6 9.5q-7 18 -23 26q-8 4 -11.5 8.5t-5.5 11t-4 9.5q-51 74 -51 152zM96 301q0 -30 5 -51t2 -29q-3 -7 14 -22q3 -3 5.5 -10t4.5 -9q34 -56 74 -94q3 -2 5.5 -7.5t6.5 -9t12 -4.5 q5 -1 13 -9l9 -7q3 -6 7 -8.5t9.5 -3.5t7.5 -2q44 -23 83 -23q54 0 98 44q3 3 8.5 7.5t9.5 9.5t8 14q1 2 8 7.5t9 20.5q1 6 7 16.5t7 14.5q27 70 21 139q0 4 2 10t1 12t-8 13q-3 4 -2.5 16.5t-7.5 19.5q-2 2 -4 9l-2 7q2 8 0.5 11t-7 8t-7.5 8q-40 70 -102 114q-1 1 -5 9 t-15 8q-8 -1 -20 6t-17 16q-4 4 -8 3.5t-11.5 -2t-11.5 -0.5q-59 10 -109 -32.5t-75 -103.5t-25 -116z" />
<glyph unicode="P" horiz-adv-x="459" d="M50 512q26 23 87 54q69 35 131 38q29 1 57.5 -5.5t53.5 -20.5t44 -33q2 -2 2 -5.5t3 -7t11 -6.5q4 -1 6 -4.5t3.5 -8.5t2.5 -7q17 -32 17 -72q0 -11 -4 -35q0 -1 -5.5 -9.5t-1.5 -14.5v-7.5t-4 -9t-5 -8.5q-22 -48 -62.5 -85t-91 -57t-103.5 -20q-41 0 -78 12 q-2 -42 -2 -72q0 -103 24 -98q-3 -2 -23 -19.5t-30 -20.5q-11 -4 -18.5 8.5t-9.5 33t-3 42.5t0 36q0 1 2.5 12.5t-1.5 16.5q-5 15 2 24q4 5 4.5 14t-0.5 17.5t-1 9.5q1 17 13.5 133.5t12.5 178.5v9q-14 -7 -30 -19q-3 -3 -6 -1t3 7zM118 268h1q9 -7 22 -13q2 -1 4.5 -4 t5.5 -4t9 0q3 1 5.5 -3.5t4.5 -8.5t5 -3q6 3 12 3.5t10 0t10.5 -2t9.5 -1.5q19 -3 39 -3q31 0 55 7q46 12 72.5 59t24.5 100q-1 15 -3.5 29.5t-7 27t-11 24t-14.5 21t-17 17.5t-19 15t-21 12q-3 1 -7.5 2t-9 3.5t-9.5 9.5q-3 4 -8.5 4t-12.5 -1t-11 0q-4 7 -9 7.5t-13 -2 t-12 -2.5q-44 0 -80 -11q0 -19 -2 -57q-3 -22 -2 -25q2 -5 1.5 -12t-1 -11.5t-2 -11.5t-2.5 -11q0 -5 -2.5 -13t-3 -12.5t1.5 -13.5l-2 -15q-8 -68 -11 -101z" />
<glyph unicode="Q" horiz-adv-x="604" d="M36 285q12 118 95 208q83 81 157 104q30 8 55 8q63 0 121 -42q3 -2 5.5 -10.5t7.5 -9.5q14 -2 19.5 -8t9.5 -8q11 -4 17.5 -12t12 -21t7.5 -16v-6t-0.5 -5.5t-0.5 -5v-4.5t0.5 -3.5t1.5 -3t2.5 -2.5t3.5 -2q5 -2 8.5 -4.5t4 -4.5t1.5 -5.5t1 -4.5q23 -60 23 -122 q0 -73 -30 -133q-1 -3 -4.5 -11.5t-7 -13.5t-8.5 -9q-13 -9 -21.5 -22.5t-11.5 -16.5q-55 -53 -96 -79q-12 -8 -33.5 -24.5t-29.5 -21.5q-2 -2 -6.5 -3t-8 -2.5t-5.5 -4.5q-8 -12 -20 -20q-8 2 -11 -0.5t-4 -7t-3 -5.5l-40 -26q10 2 30 2q22 0 34 -2q92 -11 101 -14 q2 -1 6 -3.5t7 -4t8 -1t11 5.5q3 2 7 2t9 -1t7 -1q25 2 39 13q10 8 13 5q3 -2 -4 -8q-60 -57 -128 -52q-3 0 -9 -1t-10 0t-8 7q-3 4 -15.5 1t-16.5 0q-6 5 -10.5 6t-10 -0.5t-8.5 -1.5q-60 10 -88 10q-31 0 -58 -17q-10 -6 -11 -2q2 3 14 13t14 11q16 13 43 25q36 24 121 86 l10 8q-24 -7 -50 -7q-79 0 -145 63q-66 62 -93 128q6 12 -3.5 26.5t-10.5 17.5t-1 15t-5 20q-3 5 -1 31zM95 311q0 -43 15 -83q1 -4 3 -13.5t5 -15t9 -8.5q12 -6 17.5 -21t7.5 -18q14 -20 43 -49q2 -2 5.5 -6t6 -6.5t6 -5.5t6.5 -4q19 -7 27.5 -13t15.5 -17q3 -5 10 -9 t12.5 -5.5t15.5 -4l14 -3.5q22 -5 39 -5q38 0 78 25l1 1q2 2 3 2l16 15q38 38 59 93t21 113q0 46 -16 94q-1 4 -1.5 11.5t-1 12.5t-5 11t-13.5 10q-3 1 -5 6.5t-4 11.5t-4 8q-6 5 -9.5 9.5l-7 9t-7.5 9.5q-57 69 -120 93q-3 1 -7 6t-7 5.5t-14 -3.5q-2 -4 -15.5 -0.5 t-16.5 3.5q-53 -2 -94.5 -47t-65.5 -102q-12 -14 -9 -28q2 -12 -3.5 -23.5t-5.5 -14.5q-4 -30 -4 -44z" />
<glyph unicode="R" horiz-adv-x="500" d="M52 110q5 7 5.5 11.5t-2 9t-2.5 7.5q1 27 5 73q1 28 9.5 127t8.5 155l-1 12l-16 -10q-4 -2 -6 -1t-2 3.5t3 4.5q23 17 32 21q7 4 27.5 15.5t29 15.5t27.5 13t33.5 13.5t36.5 9.5t45 8q18 2 29 2q60 0 103 -21q2 -1 2 -4t1.5 -6t8.5 -3q2 -2 6.5 -3t8 -2.5t5.5 -3.5 q25 -25 25 -62q0 -46 -46 -88l-6 -6t-7.5 -7t-7.5 -5q-8 -4 -16 -11t-10 -8q-3 -2 -7.5 -2.5t-8 -1t-4.5 -3.5q-5 -10 -25 -19q-24 -12 -48 -21q41 -24 79 -106q1 -3 1 -7.5t2 -7t8 -5.5q2 -4 4 -9.5t3.5 -11.5t3.5 -11.5l4 -11t3 -9.5q0 -1 1 -3q5 -12 2 -16l-4 -12 q-2 -7 8 -11t12 -8q20 -36 50 -51.5t60 -7.5q-4 -5 -11 -11.5t-16 -12.5t-17 -9q-29 -10 -39 -6q-3 1 -7.5 2t-8.5 2t-7 3q-2 1 -3 3.5t-2.5 5t-3.5 3.5l-9 4.5t-10 6.5q-22 27 -42 86.5t-31 82.5q-1 2 -1 3.5t-0.5 3.5t-0.5 3.5t-1 3t-2.5 3.5t-4.5 3q1 9 -3 14t-8.5 7.5 t-4.5 5.5q-1 16 -6 22.5t-13.5 8.5t-11.5 5q-25 20 -50 25q-30 -5 -68 -7q3 1 23.5 21t32.5 21q7 0 28.5 1t30 1.5t27 3t30 7t27.5 12t30 18.5q41 31 41 79q0 20 -10 39q-29 55 -112 62q-3 0 -8 1t-9.5 2t-9 1.5t-7 -0.5t-2.5 -4q-2 0 -7 -1.5t-8.5 -2t-8.5 0t-8 2.5 q-6 2 -9 1t-9 -4.5t-10 -4.5q-32 -8 -59 -18q-1 -65 -8 -145q0 -4 -6 -12t-2 -15t4.5 -15.5t-1.5 -22t-2 -16.5l-4 -55q-5 -75 -5 -104q0 -51 8 -79q6 -21 26 -30q-12 -8 -26 -21q-23 -23 -34 -21q-14 2 -24 24.5t-2 41.5q3 8 -2.5 23.5t-5.5 22.5z" />
<glyph unicode="S" horiz-adv-x="416" d="M2 65q0 1 1 2.5t3.5 2.5t6.5 1q7 -1 17 9q11 10 16 13.5t10.5 4t9 -4t8.5 -15.5q1 -2 7 -2.5t8 -1.5q31 -21 71.5 -34.5t77.5 -13.5q3 0 7 -3t6.5 -3.5t6.5 2.5q2 3 6.5 5t10.5 3.5t8 2.5q5 -1 8.5 1t7 5.5t5.5 4.5q33 23 40 72q8 54 -42 104q-1 1 -6 7t-9.5 9.5 t-11.5 6.5q-4 2 -8 4.5t-8.5 6.5t-7.5 6q-20 14 -59.5 37.5t-54.5 33.5q-3 2 -6 9t-9 11t-18 4q-3 2 -4.5 5t-2.5 6t-5.5 5t-13.5 3q-4 0 -6.5 11t-6.5 11q-14 0 -21 32q-11 49 55 101q62 49 145 49q55 0 85 -18q3 -2 6.5 -8t8.5 -5q7 0 11.5 -1.5t9.5 -7.5l5 -5 q10 -8 15 -17q1 -3 0 -3.5t-6 -0.5t-8 -1q-9 -2 -34 -24q-17 -43 -17 -46q0 -11 -6 -10q-5 1 -5 8q0 6 18 45q-38 39 -113 50q-6 1 -10.5 0t-10.5 0.5t-11 5.5q-12 10 -24 -6q-6 2 -8 1.5t-3.5 -3t-3.5 -3.5q-47 -18 -47 -57q0 -13 6 -28q8 -19 30 -39.5t39.5 -31.5 t54.5 -34q1 -1 6 -4t7 -4.5t5 -4.5t3 -6q0 -7 4.5 -8t9 1t7.5 0l22 -15q89 -62 99 -121q1 -5 -3 -8t-4 -7q0 -3 3 -11t4 -13t-1 -9q-8 -2 -6 -9l1 -6q-23 -58 -100 -102q-40 -22 -97 -22q-11 0 -35 2q-3 0 -7 4t-8 5q-9 1 -17 0q-12 -1 -33 7q-37 14 -65 37q-11 11 -12 11 q-7 3 -7 9z" />
<glyph unicode="T" horiz-adv-x="344" d="M5 509q17 32 69 47q2 1 6 0t7.5 -0.5t8.5 5.5q3 3 7.5 3.5t8.5 0t8 0.5q18 2 52 2q42 0 63 -1q5 0 11.5 -2t10.5 -2q6 -4 8.5 -3.5t6.5 3.5t6 3q12 0 39.5 -1.5t36.5 -1.5q15 0 25.5 1.5t13.5 2.5t9 5l7 4q6 3 8 0q1 -1 -2 -4q-29 -29 -63 -40q-19 -6 -23 -2q-7 5 -8.5 4 t-4.5 -5.5t-6 -4.5q-9 -1 -58 -1h-11q0 -13 -2 -37q0 -2 -6.5 -6.5t-2.5 -9.5q7 -9 7 -16l-6 -65q0 -3 -2 -8t-2 -8t2 -10q4 -10 -2 -20q-5 -2 -3.5 -13t1.5 -12l-7 -84l-4 -44q0 -3 -4.5 -6t-5.5 -4t4 -5q4 -2 4 -20q0 -3 -1.5 -9.5t-1.5 -12t3 -9.5v-10q3 -76 35 -79 q-7 -2 -26 -22t-30 -19q-23 0 -32 34q-1 3 1.5 9t3 9.5t-4.5 6.5q-7 2 -7 26q-2 45 6 113q4 53 7 82q0 3 4 9t4.5 9t-5.5 10q0 2 6.5 11.5t-0.5 15.5q-4 7 -1 29q9 91 10 158v9q-46 2 -68 2q-92 -5 -104 -21q-7 -9 -8 -3q0 2 2 7z" />
<glyph unicode="U" horiz-adv-x="542" d="M57 539q8 7 19 14.5t27 15.5t28.5 9t22.5 -6q10 -10 12.5 -28t-4.5 -36q-2 -6 1.5 -8.5t3.5 -4.5t-0.5 -5.5t-0.5 -6.5v-5q-2 -20 -11 -101t-10 -125q-2 -65 9 -109v-6v-5.5t1.5 -6.5t6.5 -8q1 -1 -3.5 -11t7.5 -12q4 -1 7 -3t4 -3t4 -5t4 -5q24 -28 61 -37q30 -7 57 2.5 t47 31t34 46t25 54.5q1 10 11 69q0 2 1 4t2 3t2 2.5t1 3.5q0 1 -1 9t-1 18.5t4 19.5q1 3 2 7t1 7.5v8.5v8l3 21q0 3 2.5 9t3.5 10t-1 9q-5 7 -5.5 12t1.5 10.5t2 7.5q8 99 5 111q-2 6 -5.5 10.5t-8 6t-8.5 -1.5q8 12 23.5 25.5t27.5 16.5q33 9 33 -82q0 -2 -3.5 -7t-4 -8 t3.5 -9q2 -1 2 -4.5t-0.5 -8.5t-0.5 -7q-4 -56 -14 -116l-12 -82q-1 -4 -4 -11.5t-3.5 -12t1.5 -13.5q2 -8 1.5 -12.5t-3 -13.5t-3.5 -13q-2 -16 -2 -33t1.5 -32.5t6.5 -33.5t13.5 -27t22 -12.5t32.5 9.5q9 6 9 2l-6 -7q-10 -8 -42 -29q-94 -57 -94 84v16q-43 -61 -111 -99 q-45 -24 -84 -24q-53 0 -85 43q-18 24 -31 63q-1 2 0 6.5t0 8.5t-5 7q4 5 4.5 9.5t-1.5 7.5l-5 7.5t-3 7.5q-2 26 -2 39q0 23 2.5 49.5t5 47.5t6 47.5t5.5 44.5q0 2 2.5 6.5t4 9t0.5 5.5q-4 4 -4.5 6t1 5.5t1.5 5.5q3 4 4 7.5t0 5.5t-1.5 5t-0.5 5q1 11 1 32q0 17 -1.5 29 t-6.5 23.5t-14.5 11.5t-24.5 -7q-8 -5 -9 -1q-1 2 4 6z" />
<glyph unicode="V" horiz-adv-x="459" d="M-1 527q-11 -1 8 14q9 7 20 13q31 17 43 8q13 -10 23 -30q1 -1 0 -4.5t-2 -6.5t0.5 -6t6.5 -4q4 -1 11 -23q21 -66 30 -102q0 -1 -1.5 -12t4.5 -16q7 -8 11 -24l24 -92q1 -2 -1 -5.5t-1.5 -6.5t6.5 -7q2 -1 3 -4t1.5 -7.5t1.5 -6.5q22 -71 32 -99q15 -42 26 -56 q8 -11 14 -13q43 55 63 97q1 2 8 12t7 16q0 13 2.5 21.5t7.5 16.5t6 11q51 130 51 203q0 31 -7 58q-1 2 0.5 5.5t2 6t-1.5 5.5t-9 5q-2 0 -3.5 3t-2.5 7t-2 6q-12 18 -29 25q-17 6 -39.5 -1t-29.5 -14q-4 -4 -6.5 -3t3.5 7q12 13 28 25t38.5 21.5t40.5 6.5q29 -4 48 -28 q-4 -13 -2 -15t11 0q14 -31 14 -76q0 -36 -7 -67q-7 -41 -23 -88q0 -1 -4.5 -7t-4.5 -16q-14 -4 -11 -26q1 -10 0.5 -12t-3.5 -4t-4 -5q-22 -51 -55 -107q-56 -92 -114 -123q-26 -14 -56 51q-1 2 1.5 8t1.5 8q-1 4 -9 11t-10 10q-24 62 -46 151q-1 2 -4 8.5t-3 10t3 12.5 q2 3 -7 12q-4 4 -5 8.5t-1.5 10.5t-1.5 9q-29 104 -37 128q-27 88 -59 86z" />
<glyph unicode="W" horiz-adv-x="680" d="M2 529q4 2 23 18t28 20q28 9 50 -21q1 -2 3.5 -12t11.5 -16q-3 -9 -2 -11.5t5.5 -7t5.5 -7.5l12 -40l9 -38q1 -2 3.5 -6t2 -9t-4.5 -15q-1 -3 1 -6t5 -6.5t3 -6.5q8 -42 13 -63l5 -24q1 -3 -0.5 -9t-0.5 -10.5t7 -8.5q6 -3 6 -13t-4 -17q-3 -5 -2 -11t4 -9.5t6.5 -9.5 t4.5 -11q20 -79 37 -109q13 -22 23 -28q9 -6 21 8q76 110 82 243q-1 8 -5 44l-6 54q0 4 3.5 12t0.5 11q-10 9 -12 23q-3 15 -5 23.5t-7 21.5t-12 19t-16 5q3 2 13 11.5t20 17t18 8.5q19 3 33 -31q1 -2 0 -5.5t-2 -6t1 -6t8 -5.5q4 -2 5.5 -7.5t1 -11.5t0.5 -12l3 -23 q6 -49 11.5 -113.5t7.5 -86.5q0 -3 1 -8.5t1.5 -8.5t-0.5 -8.5t-4 -11.5q-2 -3 4 -11.5t5 -11.5q-2 -12 -2 -15t2.5 -6t3.5 -5q10 -48 28 -85q7 -11 9.5 -15t9 -10.5t13.5 -4.5t16 11q23 26 38 53q2 3 5.5 6t6 8t4.5 16q2 13 8.5 22t6.5 10q25 61 40 124q0 1 5.5 8.5 t1.5 23.5q-2 6 1.5 17.5t3.5 13.5q6 47 3 85q-4 60 -34 89q-1 1 -1 7t-2 7q-3 2 -9 0t-9 -1q-32 8 -43 -7q-5 -7 -10 -2q-3 2 -1 5q15 24 43 39.5t56 7.5q41 -12 55 -65q0 -1 -1.5 -11.5t6.5 -15.5q12 -15 -3 -34q-3 -3 1 -11.5t4 -11.5q-2 -28 -4 -40q0 -1 -4.5 -12 t-4.5 -17q0 -19 -4 -35q-9 -43 -31 -98q-1 -2 -4 -5t-4.5 -6.5t-0.5 -10.5q1 -5 -1 -10.5t-7 -12t-6 -9.5q-56 -121 -134 -172q-35 -24 -59 4q-1 2 -6.5 5.5t-8 8.5t-2.5 13q3 10 2 15t-3 6t-5 3t-4 5q-16 53 -24 138q-26 -81 -68 -150q-16 -25 -38.5 -38.5t-43.5 -11.5 q-30 4 -51 60q-8 19 -17 52q0 1 -1.5 16t-9.5 24q-3 4 -4.5 8.5t-1.5 11t-1 9.5q-9 40 -26 133q0 1 1 13t-6 14q0 2 1.5 8t2.5 9.5t-1 6.5q-5 3 -7.5 5.5t-3 4.5t-1 7t-1.5 9q-19 92 -46 125q-20 23 -44 15z" />
<glyph unicode="X" horiz-adv-x="430" d="M12 548q46 42 75 42q23 0 43 -20q38 -37 73 -103q1 -1 2.5 -9.5t7.5 -11.5q3 -2 2.5 -14.5t12.5 -15.5q4 -1 6.5 -4t3.5 -7l2 -8t2 -9t3 -8q10 -24 16 -36q43 50 72 89q18 25 27.5 39t19 39.5t6.5 46.5q-1 4 8.5 11t21 12.5t21 10.5t9.5 7q3 -20 -5.5 -44t-17.5 -38 t-26 -37q0 -1 -12 -10.5t-13 -22.5t-23 -22q-10 -4 -10.5 -12.5t-1.5 -9.5q-6 -7 -67 -78l-1 -1l32 -73q2 -5 7.5 -13t9 -15t2.5 -14q-1 -10 11 -25t11 -23t1.5 -14t7.5 -11.5t7 -8.5q1 -2 4 -9q38 -81 61 -79q6 1 11 6q9 10 12 4q1 -5 -2 -10q-10 -18 -27 -30.5t-34 -12.5 q-21 0 -33 18q-12 16 -28 44q-1 2 -0.5 8.5t1 10t-2.5 5.5q-9 3 -12.5 5t-4.5 6.5t-2 5.5q-2 3 -6.5 11t-7.5 14t-3 12q-1 7 -2.5 11.5t-3 6.5t-3.5 4.5t-3 5.5q-1 2 -3.5 15.5t-5.5 15.5q-8 5 -10 8.5t-2 7.5t-2 8q-12 23 -25 55l-22 -26q-14 -19 -26 -24 q-10 -5 -12.5 -10.5t-3.5 -12.5t-4 -11q-2 -3 -4 -8.5t-4.5 -8.5t-7.5 -4t-8 -4.5t-4.5 -7.5t-3 -9t-2.5 -7q-45 -69 -43 -116q0 -10 -29.5 -24t-30.5 -16q-1 28 13 62q1 2 4 6t4.5 7.5t1.5 6.5q0 7 12 17.5t15 23.5q2 9 13 24q14 20 30.5 40.5t26.5 32.5t33 37.5t31 34.5 l13 15l-14 33q-2 4 -6 11t-7 12.5t-3 11.5q0 8 -2 12.5t-6 8.5t-6 7q-31 65 -64 111q-8 11 -10 19q-2 7 -5.5 10t-8 3.5t-6.5 1.5q0 8 -1.5 9.5t-4.5 0t-5 -0.5q-20 14 -48 0q-7 -4 -10 -1q-2 2 3 7zM446 599z" />
<glyph unicode="Y" horiz-adv-x="434" d="M-9 537q33 36 60 36q23 0 45 -25q46 -52 91 -146q1 -2 2.5 -3.5t2 -3t1 -5t0.5 -11.5q0 -17 12 -24q5 -3 7.5 -6.5t3.5 -7.5t2 -6q4 -9 12 -24.5t13.5 -28t8.5 -24.5q57 53 86 95q2 2 6 4t6.5 5.5t1.5 11.5q0 4 2 8t6 8.5t6 7.5q16 32 20 57q1 4 -2 17.5t1 16.5 q7 10 -1 14q-4 2 -5 4q-9 25 -39 41.5t-52 1.5l-8 -5.5t-15.5 -9.5t-8.5 -3q-1 3 11.5 13.5t15.5 12.5q51 35 80 38q18 3 24 -6q5 -8 8 -8t5 3t5 2q29 -16 38 -58q-5 -4 -2 -20.5t2 -21.5q-3 -19 -10 -34q-28 -59 -80 -120q-3 -4 -6.5 -1.5t-7 1t-4.5 -10.5q0 -3 -1.5 -6.5 t-4.5 -7.5t-5 -7t-6.5 -7t-6.5 -6t-6.5 -6t-5.5 -5q-36 -34 -44 -42v-8q-5 -73 -4 -94q0 -1 2.5 -11.5t-1.5 -15.5q-2 -4 1.5 -12t3.5 -10q-4 -9 -5 -11.5t3 -9t5 -7.5q10 -32 32 -35q-6 -8 -21 -20.5t-25 -11.5q-13 1 -21 13q-2 2 -4.5 11t-6.5 12t-5.5 7.5t-1 12.5t0.5 11 q-3 26 -3 53q0 18 3.5 62t-0.5 54q0 4 -6 16t-4 20q0 1 1.5 4t1.5 4.5t-2.5 4t-7.5 4.5q-5 11 -61 115q-10 16 -10 28q-1 15 -10 18t-10 5q1 8 -2.5 14t-10.5 12.5t-9 10.5q-14 22 -32 40q-30 30 -51 12q-3 -2 -5 -0.5t1 4.5z" />
<glyph unicode="Z" horiz-adv-x="417" d="M-33 -3q21 25 36 37q19 56 92 161q2 2 4.5 4t4.5 3.5t4.5 5.5t4.5 12q1 4 4 8.5t7.5 9.5t6.5 7q3 4 8 11t9.5 13t8.5 11q-37 0 -91 4q3 2 13 12.5t21 18t20 6.5q44 -2 69 -2l71 80q1 2 4.5 3.5t5.5 2.5t4 4.5t2 8.5q3 3 9.5 8t11 10t6.5 13q1 6 4 9.5t6.5 5.5t5.5 4 l40 49q-8 -1 -27 -1q-27 1 -86.5 9.5t-96.5 4t-75 -29.5q-4 -3 -5.5 -2t2.5 5q54 54 118 65q1 0 9 -3t11 5q8 -9 13 -4l6 5q43 0 110 -9q45 -5 53 -5q36 0 57 21q7 7 9 3l-2 -6q-14 -20 -31 -33q-16 -19 -105 -124q-3 -3 -11 -6t-13 -7.5t-3 -11.5q1 -4 -0.5 -7.5t-3 -5.5 t-5.5 -6l-6 -6l-22 -26q-6 -8 -20 -24q6 0 18.5 -0.5t19.5 -0.5q43 0 65 14q5 3 7 3q0 -3 -6 -8l-7.5 -7.5t-7.5 -7t-7.5 -6t-9.5 -5.5q-35 -16 -103 -20q-55 -67 -95 -127q-2 -4 -9 -6t-11 -3.5t-1 -4.5q4 -5 4 -12q0 -6 -3.5 -12.5t-8.5 -13.5t-6 -9q-6 -11 -10 -26 q30 10 66 10q9 0 29 -2q3 0 9.5 -0.5t9.5 -1.5t7.5 -4.5t9.5 -10.5q1 -6 16 0t18 5q2 -1 8 -3.5t16 -4.5q51 -12 67 -11q48 2 68 27q4 6 6 4.5t0 -7.5q-22 -46 -81 -61q-2 0 -12.5 3t-18.5 -4q-6 6 -9.5 6t-8.5 -3.5t-7 -3.5q-20 0 -33 2q-24 5 -45 11t-47 11 q-2 0 -26.5 4.5t-27.5 4t-27 -1.5l-17 -5q-38 -28 -37 -17v1q-17 -10 -25 -18q-6 -6 -7 -3z" />
<glyph unicode="[" horiz-adv-x="255" d="M47 -151q-3 5 0.5 15t3.5 16l4 172q2 2 3.5 5.5t3 12t-5.5 12.5q7 11 7 30q0 18 -5 28q-4 9 -3.5 20.5t2.5 21.5l2 9l7 261l2 98q7 5 11 10t-1 10l-9 11q0 4 2 21.5t1 26.5q0 4 -2 8.5t-3 7.5t0 5q5 8 22 0q5 -2 13 -2.5t21.5 0.5t21.5 1q4 0 16.5 -4.5t20.5 0.5 q5 2 11.5 2t13.5 -1t10 -1q23 0 23 -4t-59 -4q-9 0 -28 0.5t-27 0.5l-3 -122q-1 -1 -1.5 -2.5t-1.5 -9t2 -18.5q3 -7 -2 -34.5t-2 -43.5q3 -8 3 -23t-1 -26l-2 -11l-7 -263q-2 -3 -3.5 -8t-3.5 -20.5t4 -26.5q3 -7 3 -21t-1 -25l-2 -10l-3 -112q69 8 105 8q4 0 6 -1.5t2 -3 v-3.5l-1 -2q0 -1 -28.5 -3t-64.5 -5.5t-51 -8.5q-9 -3 -17.5 -0.5t-8.5 6.5z" />
<glyph unicode="\" horiz-adv-x="202" d="M-63 588q2 1 3 1t4 -2.5t5 -3.5q4 -2 15 -7t18.5 -10t9.5 -11l12 -30q0 -1 3.5 -6t3.5 -12q0 -3 4.5 -9.5t3.5 -10.5q-1 -6 -1 -8.5t1 -3.5t2 -1t2 -0.5t2 -1.5l42 -108q2 -5 6.5 -9.5t7 -11.5t3.5 -21q1 -16 8.5 -27t7.5 -12l39 -98q2 -4 7.5 -15.5t8 -20t2.5 -16.5 q-1 -14 9.5 -28.5t11.5 -17.5q15 -39 19 -49q2 -5 5 -11.5t5 -10t3 -6.5t0 -5q-4 -10 -22 -1q-20 9 -24 19q-6 16 -24 60.5t-28 69.5q-1 3 -1 7t-1.5 8t-6.5 8q-5 3 -5.5 13.5t-1.5 13.5t-7.5 10.5t-5.5 12.5q1 13 0 15.5t-4.5 3.5t-4.5 4l-111 278q-1 3 -1 6.5t0.5 6.5 t-0.5 5.5t-4 2.5q-4 1 -9 14l-6 15l-3.5 3.5t-3 3.5t0.5 4z" />
<glyph unicode="]" horiz-adv-x="218" d="M6 624q0 4 23 4q9 0 37 2t44 2h29q17 0 36 -5q3 -1 3.5 -14.5t-1 -36t-1.5 -30.5q0 -2 -5.5 -5.5t-7 -5.5t5.5 -8q10 -11 9 -29t-9 -35q-9 -12 -1.5 -23t7.5 -15l-6 -218q0 -5 1 -15t-0.5 -19.5t-7.5 -24.5q-5 -8 -0.5 -22t4.5 -17q-1 -23 0 -71t1 -62q0 -48 -3 -63 q-5 -9 -2 -19l2 -11q0 -5 2.5 -14t2.5 -15.5t-5 -11.5q-13 -11 -27 -11q-17 0 -48 2t-54.5 4t-23.5 3q0 13 52 13q27 0 48 -3q-1 24 1 66.5t2 57.5q0 22 -3 42q-4 32 -1 37q8 7 4 20l-4 13q4 10 4.5 17.5t-1.5 14.5t-2 11l3 113q0 8 7.5 29.5t1.5 34.5q-8 19 -8 35 q0 7 1.5 18.5t1.5 17.5q2 98 2 148q0 61 -1 92q-36 -1 -74.5 1.5t-38.5 5.5z" />
<glyph unicode="^" horiz-adv-x="373" d="M51 346q-2 3 2 8t10.5 12t8.5 12q5 16 20 23q3 2 3.5 8t1.5 8q4 6 14 21.5t19 29.5t14 23q4 6 4.5 11.5t3.5 7.5q41 33 53 33h1q10 -12 10 -19q-1 -8 7.5 -11t9.5 -4l41 -51q1 -2 1.5 -4.5t2.5 -5t8 -5.5q17 -7 16 -20q0 -7 2 -10t6 -3.5t5 -2.5t5.5 -4.5t6.5 -6t2 -9.5 q0 -2 -1 -4t-3 -4t-4 -3.5t-6 -4t-7 -4.5q-1 0 -5.5 -4.5t-8.5 -7.5t-9.5 -5.5t-7.5 0.5q-1 5 -3.5 8t-5.5 5t-5 4l-36 46q-3 3 -3.5 11.5t-5.5 10.5q-12 4 -21 15l-27 33l-30 -48q-1 -2 -5 -2.5t-5.5 -2t0.5 -10.5q-6 -1 -8.5 -4.5t-3 -9t-1.5 -7.5l-14 -22 q-4 -7 -26.5 -20.5t-25.5 -10.5z" />
<glyph unicode="_" horiz-adv-x="243" d="M0 -37h40q35 2 41 -2q5 -1 9 -0.5t6 1.5l1 1h146v-23h-29q0 3 -18.5 0.5t-20.5 -0.5h-94q-19 0 -31 4q-3 1 -6.5 0t-5.5 -2l-3 -2h-35v23z" />
<glyph unicode="`" horiz-adv-x="249" d="M49 529l3 3q4 2 10.5 6.5t11.5 8.5q3 2 8 6.5t7.5 7t6.5 4t6 -1.5q22 -22 46 -40q10 -7 14 -16q2 -5 5.5 -7t7.5 -2.5t6 -1.5q3 -1 7.5 -4.5t6.5 -4.5l-4 -4q-4 -4 -9 -8.5t-6 -4.5t-4 -3t-5 -4.5t-6.5 -3.5t-9.5 -2q-17 1 -38 15q-1 1 -4 2.5t-4.5 2.5t-4 3t-4 3.5 t-2.5 4t-1 5.5q-1 9 -5.5 10.5t-9 -0.5t-7.5 1q-23 20 -22 25z" />
<glyph unicode="a" horiz-adv-x="287" d="M21 143q9 116 75 191l4.5 2.5t6.5 9.5q1 3 3.5 4t6.5 3t7 7q4 5 19 12q18 9 39.5 13.5t43 0t31.5 -20.5q1 -1 -1 -9.5t4 -10.5q9 -6 5 -38q0 -1 -13 -74q-1 -3 -4 -10.5t-3.5 -11t2.5 -12.5q2 -5 1.5 -7.5t-2.5 -8t-2 -8.5q-4 -38 -4 -56q0 -79 35 -79q-3 -1 -21.5 -19.5 t-28.5 -18.5q-15 0 -25 15q-9 11 -7 13q7 3 1 12t-6 10q-2 11 -2 34q-23 -36 -62 -70t-63 -18q-22 14 -32 51q0 1 2 9.5t-6 9.5q-3 1 -3.5 4t0 7.5t0.5 6.5q-3 30 -1 57zM72 143q4 -5 5.5 -12t1.5 -16v-11q-3 -8 -2.5 -11t3.5 -8.5t4 -7.5q6 -22 15 -35t16 -9q20 11 42 50.5 t36 86.5q8 39 13 82q0 3 2 6.5t3 6.5t1 7.5t-3 9.5q-2 4 0.5 14.5t-0.5 12.5q-5 3 -4 11.5t1 9.5q-9 22 -38 22q-30 0 -49 -23q-31 -35 -39 -126q-2 -14 -2 -21q0 -6 -4.5 -14t-5.5 -12t4 -13z" />
<glyph unicode="b" horiz-adv-x="280" d="M16 559q3 2 21.5 19t28.5 19q33 9 41 -67q0 -2 -1.5 -7t-1.5 -9t5 -7q2 -1 2 -4t-1 -6.5t-1 -5.5q1 -65 -11 -179q27 25 67 47q33 17 58 2q1 0 2 -7t11 -3q2 1 3.5 -1t3 -6t2.5 -5q16 -28 14 -66q-2 -101 -36 -162q-1 -2 -12 -5t-10 -13q1 -12 -13 -26q-102 -89 -135 -57 q-30 29 -30 82q0 16 4 50l3 25q0 4 4 10.5t5 10.5t-5 14q-2 4 -1.5 6.5t2.5 8t2 7.5l3 12t2.5 12t-0.5 15q-1 12 -0.5 18t3 18t3.5 18q11 83 9 147q0 22 -2 28q-1 2 2 12t-5 12q-4 2 -4.5 11t-1.5 11q-10 25 -30 21zM77 117q1 -10 5 -23q1 -3 0 -6.5t-1.5 -6.5t2 -5t9.5 -3 q3 -1 6 -7t4 -7q13 -16 28 -16q23 0 43 40q22 50 30 96q0 2 2 6.5t2.5 6.5t-1.5 8q-4 1 -1.5 15t2.5 15q0 2 2.5 6.5t2 7.5t-5.5 6q-7 4 -8 9.5t0.5 12.5t0.5 10q-12 41 -34 48q-35 9 -71 -54l-9 -70q-1 -6 -3.5 -21.5t-3.5 -22.5t-2 -23t1 -22z" />
<glyph unicode="c" horiz-adv-x="230" d="M20 134q0 2 4.5 12t-0.5 13q-3 5 -3.5 11t0.5 11t2.5 12t2.5 10q8 51 28.5 85.5t61.5 63.5q36 25 66 25q25 0 39 -20q3 -5 6 -19.5t8 -24.5q1 -3 2 -5t-2.5 -4.5t-6.5 -3.5t-8 -3.5t-8 -3.5l-26 -13l-16 -44q-2 -6 -4.5 -7t-3.5 2t0 7q5 21 18 42q-5 16 -10 28 q-1 1 1 3.5t3.5 5t-0.5 4.5t-8 3q-4 1 -12 9q-12 15 -24 15q-24 0 -43 -69q-1 -3 -0.5 -6t0 -5.5t-2.5 -3.5q-7 -3 -7.5 -6.5t1.5 -8t2 -6.5q-4 -32 -4 -49q0 -57 14 -99q1 -2 -1 -8t-0.5 -9t9.5 -3q4 0 6 -3.5t3.5 -9t3.5 -7.5q17 -20 39 -20q21 0 49 19q19 13 20 8 q0 -6 -18 -19q-62 -46 -106 -46q-51 0 -69 80q-6 22 -6 57z" />
<glyph unicode="d" horiz-adv-x="302" d="M21 129q-5 60 12 114.5t59 88.5q58 47 101 47q11 0 26 -5q3 41 3 82q0 1 2 11.5t1 18t-6 10.5q-4 2 -4.5 7t0.5 11t0 9q-5 20 -12 20q-6 0 17 20q26 22 37 18q21 -7 21 -62q0 -19 -2 -33q0 -40 -3 -79q0 -3 -3.5 -9t-3.5 -8.5t5 -9.5q2 -4 2 -6.5t-2 -8t-2 -8.5l-4 -54 q0 -3 -2 -17.5t-4 -31.5t-4.5 -38t-4 -44t-2.5 -43q0 -3 -2 -7t-2 -8t4 -8q2 -2 2 -4t-1 -5t-1 -5q0 -58 22 -61q-4 -2 -14.5 -13.5t-20.5 -19t-19 -5.5q-23 5 -23 74q-10 -12 -27 -26q-52 -43 -77 -41q-33 3 -51 53q-1 2 0 4.5t2 4.5t-0.5 5t-7.5 6q-4 2 -2.5 12.5 t-4.5 16.5q-3 3 -4 7.5t-0.5 10.5t0.5 9zM74 190q3 -2 3 -5.5t-1 -9t-1 -8.5q4 -35 11 -57q3 -8 6.5 -17.5t9 -20t12.5 -18t14 -12t15.5 -1t16.5 14.5q24 34 36 76q6 41 4 50q-1 7 -0.5 9.5t2 7t1.5 6.5q0 3 2.5 8.5t3 8t-2.5 7.5q-5 8 -4.5 13t4.5 13.5t4 9.5l3 38 q-2 0 -2 1q-23 25 -46 33q-15 4 -26 4.5t-19.5 -5.5t-14 -15t-11.5 -24q-15 -43 -19 -82q0 -2 -3.5 -8t-3.5 -8.5t6 -8.5z" />
<glyph unicode="e" horiz-adv-x="251" d="M21 139q0 27 5 59q1 4 5 10t5 9.5t-3 11.5q-2 8 -1 11.5t7 12.5t7 12q29 70 107 107q14 7 30 7q27 0 42 -19.5t8 -50.5q-5 -16 -12 -19q-8 -2 -4.5 -10t2.5 -9q-24 -49 -77 -87q-2 -1 -6.5 -5.5t-8.5 -7t-8 -2.5q-8 -1 -13 -6t-6 -5l-30 -15q3 -7 8 -9q15 -8 6 -30 q-1 -6 -1 -7.5t3 -4.5t4 -5q20 -46 55 -46q17 0 33 11q10 7 42 34q7 4 9 1l-3 -5q-109 -105 -161 -74q-1 1 -4 9t-13 9q-4 0 -6 4.5t-4 11.5t-3 10q-14 36 -14 87zM70 157l6 3q52 22 80 57q2 2 6.5 5.5t7 6t1.5 5.5q-3 8 2.5 21t5.5 17q5 47 -20 63q-15 7 -26.5 6t-20.5 -15 t-14.5 -29t-10 -36t-6.5 -36.5t-3 -30.5q0 -16 -1 -18q-5 -8 -7 -19z" />
<glyph unicode="f" horiz-adv-x="261" d="M-28 -260q22 18 39 46q1 2 5 6.5t5.5 8.5t0.5 9q-1 4 4 11t4 15q-1 7 0.5 11t3.5 7.5t3 6.5q21 81 30 242q0 5 4 14t4 14t-6 15q-4 4 -2 12t4.5 14t-1.5 13q-4 5 -4 12t2 16t2 14v78q-17 1 -76 6q5 1 21 19q20 20 30 19l28 -2q2 24 4 36l6 30q0 1 6 9.5t2 19.5q-2 4 0 9 t6 11.5t5 9.5q31 69 85 101q15 10 19 8q20 -23 23 -27l9 -14q-3 -8 -2 -10t6.5 -4t6.5 -5q11 -24 11 -47q0 -17 -5 -28q-3 -8 -19 -18l-3 -2l-18 -8q7 18 4 40q-1 3 -5.5 6.5t-5.5 6.5t2 14q2 4 0 7.5t-6.5 8t-5.5 6.5q-11 16 -25 34q-44 -69 -46 -178q0 -3 -0.5 -9t-0.5 -8 h61q53 0 77 13q7 4 8 2.5t-5 -6.5q-35 -29 -62 -38q-2 -1 -9 5t-13 -5q-8 -7 -25 -10t-32 -3q-3 -164 -14 -286q0 -1 -5.5 -10t-0.5 -13q4 -4 5 -7t-1.5 -9.5t-2.5 -9.5q-26 -170 -132 -233q-7 -4 -8 -2t5 6z" />
<glyph unicode="g" horiz-adv-x="293" d="M21 135q0 3 3 8.5t3.5 8.5t-5.5 10q-2 4 -2 6t2 7t2 7q10 74 45 117q34 41 77 70.5t80 15.5q35 -13 35 -137q0 -35 -1 -53q0 -23 -3 -27q-7 -4 -3.5 -16t3.5 -13q-3 -46 -6 -69q0 -2 1 -8.5t0.5 -11t-3.5 -7.5q-7 -8 -7.5 -13t1.5 -10t2 -9q-8 -69 -14 -102 q-3 -19 -11 -39q-1 -3 -4.5 -9.5t-4.5 -9.5q-2 -8 -4.5 -11.5t-5.5 -5.5t-5 -4q-27 -34 -65.5 -54t-61.5 -21q-17 -1 -21 6q-3 4 5 5q3 1 8 1q27 -2 56 23q2 2 5.5 2t6 3t5.5 12q1 2 10 6.5t7 17.5q-1 5 5 12.5t7 9.5q15 30 26 104q5 58 6 91q0 17 4 59q-34 -59 -72 -89 q-40 -30 -61 -22q-25 9 -37 63q0 2 0.5 22.5t-7.5 23.5q-3 4 -3.5 8.5t1 11.5t1.5 10zM76 181q0 -53 2 -70q0 -3 4 -12.5t2 -13.5q-4 -7 3.5 -15t7.5 -11q0 -6 2 -9t5.5 -5t4.5 -3q28 -26 62 51t41 119l3 14q3 32 3 57q-2 57 -44 64q-40 7 -66 -35q-1 -2 -3.5 -10t-6.5 -10 q-8 -4 -9.5 -8t0 -10t0.5 -9q-9 -32 -11 -84z" />
<glyph unicode="h" horiz-adv-x="293" d="M33 55q0 7 0.5 18t0.5 14q1 55 10 128q0 5 3 13.5t3.5 12.5t-2.5 11q-2 5 -2 8.5t2.5 10t2.5 9.5q0 2 2.5 5.5t2.5 5.5t-2 7q-3 7 -2.5 11.5t3.5 13t3 12.5q15 113 15 170q0 3 2.5 8t2.5 9t-6 7q-1 1 -1.5 2.5t-0.5 3v3.5v3q-3 19 -10 24q-1 0 1.5 3.5t7.5 8.5t11 10 q27 21 34 16q7 -3 11 -12.5t4.5 -23.5t-0.5 -25t-2.5 -25.5t-1.5 -16.5q-1 -17 -5 -56q0 -2 0.5 -11.5t-1 -15t-6.5 -6.5q-7 -3 -6.5 -5t4 -7t3.5 -8l-7 -56q9 9 18 16.5t24.5 18.5t29 15.5t30.5 7t30 -6.5l4.5 -2t6 -3.5t1.5 -3.5q-2 -9 4 -12t6 -4q6 -18 5 -41 q0 -6 -9 -65.5t-11 -98.5q0 -3 0.5 -7t0.5 -7.5t-1.5 -7t-4.5 -6.5q-2 -1 -2 -4.5t1.5 -6t3 -6t1.5 -6.5q1 -31 9.5 -53t28.5 -24q-2 -1 -13.5 -13t-22 -19.5t-18.5 -5.5q-17 4 -24.5 20t-11.5 44q0 1 2 11.5t-4 13.5q-2 6 -2.5 9t1.5 10.5t2 10.5q2 41 9 84.5t9 63.5 q0 3 3.5 10.5t4 11t-5.5 8.5q-4 2 -4.5 7.5t1 12.5t0.5 10q-5 23 -24.5 34.5t-43.5 -1.5q-1 -1 -4 -1t-4.5 -1.5t-1.5 -5.5q1 -3 -4 -6l-4 -4q-12 -18 -22 -47q-11 -90 -12 -139q0 -3 -3 -9.5t-3 -10t5 -9.5q2 -3 1.5 -5t-1.5 -7t-1 -8q0 -2 -1 -6.5t-0.5 -8t2.5 -7.5 q3 -5 3.5 -16t2.5 -15q5 -14 15 -18q-2 -1 -22.5 -20.5t-30.5 -17.5q-23 6 -23 67z" />
<glyph unicode="i" horiz-adv-x="156" d="M34 94q0 6 4 70l5 43q0 2 4 6.5t2 7.5q-4 5 -4.5 11t2 14t2.5 11q6 7 6.5 11.5t-1.5 9t-2 7.5q1 10 4 43q2 20 0 28q-2 5 26.5 22.5t29.5 16.5q5 -6 3 -28q0 -4 -6.5 -12.5t0.5 -11.5q6 -6 -1 -47q-3 -23 -8 -52t-7.5 -49t-3.5 -50q0 -1 1 -5t0.5 -7t-5.5 -6 q-3 -3 -2 -5.5t3.5 -7.5t2.5 -8q2 -38 13 -60t40 -20q-1 0 -24 -19t-35 -19q-14 0 -26 12q-14 17 -16 25q-1 3 3.5 11t-0.5 9q-5 3 -7 5.5t-2 8v6.5q-1 9 -1 29zM52 504q-1 2 4 7t13 10t16.5 10t14.5 8l6 3q0 -1 -1 -4.5t0 -6.5t6 -3q3 0 4 -3t1 -7.5t1 -6.5l5 -10 q0 -4 -13.5 -13.5t-26.5 -17.5t-14 -7q0 1 -1.5 2.5l-3 3t-2 3.5t1.5 3q7 8 5.5 10t-10.5 2q-2 0 -3 3.5t-2 8t-1 5.5z" />
<glyph unicode="j" horiz-adv-x="147" d="M-84 -219q20 -2 45.5 14.5t44.5 49.5q27 46 33 111q0 3 3 8t3.5 7t-1.5 6q-4 3 -4.5 7.5t1 10t1.5 7.5q0 5 1.5 20t1.5 23q10 133 13 202q0 4 5.5 15.5t2.5 15.5q-4 5 -6 9t-2 6.5t0.5 7t0.5 6.5q0 42 -7 47q4 2 27 23q16 14 29 19q3 -8 3 -36v-31q0 -55 -3 -126 q0 -4 -2.5 -10.5t-2.5 -10t3 -12.5q0 -3 -2.5 -10t-2.5 -10.5t3 -9.5t3 -10t-2.5 -12.5t-2.5 -11.5q-8 -130 -16 -183q-5 -33 -24 -63l-6 -4q-6 -3 -5 -11q-1 -2 -3 -5.5t-4 -6t-5 -2.5q-9 -1 -11.5 -3.5t-1 -5t-1.5 -4.5q-26 -22 -55 -35t-46 -14t-21 6q-3 4 5 5q3 1 8 1z M38 501q-2 4 11.5 13.5t28.5 17.5l14 7l4 -10q0 -2 -2.5 -6.5t-1.5 -6.5t6.5 -3.5t5.5 -3.5q1 -2 4 -11q0 -4 -13.5 -13.5t-26.5 -17.5t-14 -7q-11 26 -16 41z" />
<glyph unicode="k" horiz-adv-x="292" d="M32 47q0 26 4 33q9 16 9 27q0 9 -7 16q-3 6 -3 9t2.5 10t2.5 10l3 34q2 29 8 85l4 57q0 5 3.5 9t4 5.5t-3.5 7.5q-2 2 -2.5 5t0 5.5t1.5 6.5t1 6q4 60 5 90q0 5 0.5 17.5t0.5 19.5q0 50 -17 57q3 1 14.5 12.5t23 20t16.5 5.5q20 -10 17 -78q0 -4 -4.5 -7.5t-6 -4.5 t2.5 -5q9 -6 6 -44l-4 -53q0 -1 -1.5 -6.5t0.5 -9.5q1 -3 -2 -22q0 -2 -4.5 -15t-1.5 -21q2 -5 0 -31q-2 -14 -4 -46q38 52 81 83q1 1 9 3.5t10 9.5q2 1 9.5 4t9.5 6q4 4 7.5 5.5t8.5 1.5t7 1q37 7 54 -22q1 -1 -5 -7t-15 -12l-19 -12q-4 -2 -7.5 -7.5t-6.5 -5.5 q-5 0 -5.5 8.5t-1.5 9.5q-13 18 -38 9q-24 -10 -48 -41q-6 -7 -16 -19q-3 0 -5.5 -1.5t-3.5 -3.5t-1.5 -4t-0.5 -3v-1l-26 -32l-0.5 -1t-0.5 -2q25 14 48 14q34 0 52 -38q7 -13 5 -18q-2 -6 4 -11t7 -6l26 -60q5 -11 5 -12q-1 -7 1 -11.5t6 -4.5q3 0 5 -2t2.5 -4.5t1 -5.5 t1.5 -5q6 -13 11.5 -19t13.5 -9t17 6q14 12 15 5q-2 -5 -9 -12q-9 -8 -17 -14t-19.5 -11t-21.5 -6q-25 -2 -47 52q-1 1 0 10t-3 9q-6 3 -12 15q-15 36 -30 77q-22 65 -63 51l-3 -49q-1 -5 -0.5 -9.5t-0.5 -9.5t-4 -8q-5 -1 -1.5 -12t3.5 -12t-1 -16t-1 -26q0 -41 13 -44 q-1 -1 -6 -6.5t-8.5 -8.5t-9.5 -8t-10.5 -8t-9.5 -4.5t-9 -0.5q-15 4 -15 60z" />
<glyph unicode="l" horiz-adv-x="166" d="M42 100q3 5 3 8t-1.5 6t-1.5 5q0 5 0.5 15.5t0.5 15.5q0 15 6 20q5 5 4 7.5t-4 6t-3 6.5l7 68q2 23 5 55t6 65t5 57q0 2 3.5 7t4 7t-3.5 7q-4 3 -4.5 7.5t1 12t1.5 10.5q-3 48 -18 56l4.5 4.5t12 10.5l15 12t14 9t8.5 2q8 -7 12 -32q0 -1 -1.5 -3t-3 -4.5t-1.5 -3.5 q0 -2 4.5 -4.5t6.5 -6.5q3 -2 1 -16l-2 -14q0 -11 -5 -84l-2 -29q-4 -5 -4.5 -9t1 -8t1.5 -7t-4.5 -9.5t-1.5 -9.5t3.5 -8.5t0 -9.5t-1.5 -10t-1 -7q-1 -8 -4.5 -39t-6 -60.5t-2.5 -55.5q0 -14 2 -38q0 -19 -1 -20q-3 -5 -1.5 -7t5 -5t4.5 -5q7 -23 19 -35t34 -10l-5 -5 l-7 -7t-7 -6.5t-8 -6.5t-8.5 -6t-9.5 -5t-9.5 -2.5t-10 -1t-9.5 2.5t-10 6q-24 19 -31 84q-2 15 -1 17z" />
<glyph unicode="m" horiz-adv-x="451" d="M29 46q0 26 3 58q0 4 4.5 18t3.5 21q-4 22 -4 25t5 11t3 12q-6 9 -4 26q6 70 6 92q0 4 2.5 9t2.5 7q0 1 -3 5t-3 6q-2 18 -9 17q4 2 14 11t20 17t18 10q12 2 13 -30t-2 -53q87 78 128 78q25 0 33 -28q4 -21 6 -45q53 47 95 65l13 4q10 2 14 2q36 2 37 -50q1 -8 -5 -47 q0 -1 -3.5 -5.5t-4 -7.5t3.5 -9l-3 -19v-6t-0.5 -7t-1.5 -6.5t-3 -4.5q-8 -6 -8.5 -10t3 -8.5t3.5 -7.5q-6 -50 -6 -73q0 -13 2 -31q0 -3 -0.5 -8t-1.5 -8.5t-0.5 -6t3.5 -3.5q7 -1 12 -10.5l5 -9.5q10 -10 21 -11q-2 -1 -14 -13t-22.5 -19.5t-17.5 -5.5q-39 11 -39 91 q0 29 6 75q0 4 6.5 13t4.5 13q-3 5 -4 10t-0.5 7.5t1.5 7t1 5.5q9 52 9 69q0 35 -21 51q-26 18 -73 -32q-3 -3 -8 -9l-4 -4q-1 -22 -6.5 -60t-6.5 -51q0 -2 -3 -11.5t-3.5 -14.5t2.5 -13q4 -1 1 -11t-3 -13q-2 -54 20 -76l-16 -16q-26 -26 -32 -22t-10 13q-1 2 0.5 8t1.5 8 t-4.5 3t-5.5 4q-8 34 -4 65q1 37 9 111q0 3 6.5 9t4.5 10q-3 8 -4.5 15.5t-1.5 12.5t0.5 15t0.5 17q6 7 6.5 12t-1.5 7t-6 5t-5 5q-7 13 -18 17q-14 6 -33 -4.5t-29.5 -21.5t-27.5 -31q-1 -17 -6.5 -71.5t-7.5 -81.5q0 -4 -4 -11t-5.5 -10.5t1.5 -7.5q3 -2 4.5 -6t2 -7t0 -9 t-0.5 -7q0 -40 15 -43l-10 -10t-15.5 -14.5t-16 -11.5t-14.5 -1.5t-9 16.5t-3 35z" />
<glyph unicode="n" horiz-adv-x="290" d="M28 53q0 28 6 100q0 2 10 17q4 7 -2 8q-4 1 -5.5 4t-1 8.5t1.5 10.5t2.5 11t1.5 9q5 52 5 81q0 39 -10 40q5 6 13 13.5t19 15t19 9.5q4 1 6.5 -2t4.5 -9q4 -14 0 -18q-8 -5 -3 -7.5t5 -4.5q0 -14 -1 -21q5 4 19.5 17t23.5 19q2 1 9 1t11 9q4 10 22 16.5t32 6.5 q15 0 26 -7t17 -22.5t5 -38.5l-5 -35v-6t0.5 -7.5t-0.5 -6.5t-4 -4q-9 -3 -9.5 -7t2.5 -9t3 -8q-12 -76 -12 -121q0 -86 40 -86q-2 -1 -22.5 -20t-30.5 -17q-26 6 -35 47q0 2 3 7t4.5 8t-1.5 5q-10 3 -10 18q0 24 6 70q0 4 4.5 10t5 9.5t-5.5 12.5q-3 6 -2.5 9.5t3.5 10 t3 8.5q0 3 3.5 7t3.5 6.5t-4 8.5q-2 4 -2 6t2 7t2 7q3 27 3 43q0 23 -9.5 37t-26.5 14q-32 0 -75 -49q-1 -10 -6.5 -69t-7.5 -88q0 -2 1 -6.5t0.5 -8t-2.5 -5.5q-6 -6 -6 -9.5t2.5 -6t2.5 -4.5t1 -7t1 -8.5t-2 -5.5q-5 -7 -5 -10t3.5 -6.5t3.5 -5.5q3 -23 11 -26 q-4 -1 -8.5 -5t-11.5 -12q-9 -9 -14 -13t-12 -7.5t-11.5 2t-6.5 19.5q-3 16 -3 41z" />
<glyph unicode="o" horiz-adv-x="278" d="M21 175q11 145 118 206q21 12 37 12q17 0 30.5 -10.5t13.5 -27.5q0 -8 2.5 -9.5t6 0.5t5.5 -2q25 -55 23 -131q-11 -145 -118 -206q-19 -11 -37 -11q-36 0 -58 46q-1 2 -0.5 7t-2.5 13q-1 3 -5.5 9t-5.5 10q-1 3 2.5 7.5t4 7.5t-6.5 7q-5 2 -6.5 5.5t-1.5 12v9.5 q-3 24 -1 45zM68 232q1 -7 4 -12t3 -7q-7 -87 23 -142q1 -2 0.5 -7.5t0.5 -6.5t7 -3t7 -3q10 -10 16 -14q13 -8 27 3.5t24 33.5q19 46 23 101v1q2 35 0 58q0 2 3 6t2.5 7.5t-8.5 8.5q-3 2 -4 6.5t-0.5 8.5t-0.5 8q-1 2 0 5t1.5 5t-1 4.5t-6.5 3.5q-4 1 -5.5 4.5t-3 9 t-2.5 7.5q-13 20 -30 29q-18 10 -30 1t-17 -22q-16 -40 -21 -73q0 -2 -6.5 -8t-5.5 -13z" />
<glyph unicode="p" horiz-adv-x="285" d="M10 351l22 20q13 11 23 16q24 12 36 -6.5t16 -49.5q11 11 22 20.5t27.5 19.5t31 14t29.5 -0.5t25 -19.5q5 -8 2 -19q-2 -6 5 -7.5t8 -8.5q3 -26 5 -30q3 -5 3.5 -10t-0.5 -11.5t-1 -9.5q2 -57 -14 -113.5t-49 -95.5q0 -1 -8 -3.5t-9 -13.5q0 -4 -3 -6.5t-8.5 -5.5 t-7.5 -4q-41 -32 -73 -32h-5q-6 -57 -24 -201q-1 -13 -13 7q-15 25 -15 55q0 35 6 45q3 4 0 12.5t-3 12.5q0 3 0.5 8t0.5 8t1.5 7t3.5 6q3 3 3.5 5.5t0.5 4t-3 5t-4 4.5q-2 5 -2 7.5t2 7.5t2 8l5 93q0 4 1.5 9t1.5 7.5t-2 10.5q0 1 2 9.5t0 13.5q-1 4 -1 7t1 9.5t1 9.5 q2 34 2 56q0 39 -4 67q0 3 1.5 7.5l2.5 7.5t-1 6.5t-8 6.5q-4 2 -6.5 11t-2.5 10q-10 16 -26 13zM92 40q17 -13 34 -13q31 0 51 43t28 103q0 3 6 15.5t0 16.5q-3 7 -3 33q0 31 -5 49q-15 53 -41 63q-16 6 -53 -38q2 -28 2 -40q0 -1 -7.5 -8.5t0.5 -14.5q5 -6 5 -21 q-6 -82 -10 -121q0 -2 -3 -6t-3 -6t4 -9q2 -4 1.5 -6.5t-2 -7.5t-1.5 -7z" />
<glyph unicode="q" horiz-adv-x="288" d="M22 121q0 106 46 175q1 1 8.5 6.5t7.5 14.5q0 4 3 7t8 6.5t7 5.5q71 69 123 47q29 -11 36 -62q0 -4 -5.5 -18t0.5 -15q4 -3 5.5 -7t1.5 -6.5t-0.5 -7t-0.5 -6.5q0 -20 -14 -139l-13 -133q0 -4 -3 -10.5t-3.5 -10t3.5 -12.5q2 -6 2 -8.5t-2 -8.5t-2 -9l-11 -128 q-1 -21 -16 -4t-17 38q-2 20 -2 27q0 1 2.5 4t2.5 6t-5 5q-2 1 -2 4.5t1 9.5t1 9q0 1 5.5 12t-0.5 14q-3 4 -4 9.5t-0.5 10t2 14t1.5 13.5l7 120q-30 -44 -70 -77q-37 -31 -59 -23q-19 6 -31 39q-1 3 2 8.5t3.5 9t-6.5 8.5q-8 4 -10 28q-2 22 -2 34zM75 144q0 -1 1.5 -10 t-0.5 -9q-4 -11 -4 -14.5t3.5 -8t3.5 -6.5q5 -22 20 -45q14 -20 24 -17t24 26q40 68 54 125q2 30 4 47q0 3 2.5 8.5t2 8t-3.5 10.5q-2 4 0.5 14.5t2.5 12.5q0 31 -4 42q-10 22 -33 22q-15 0 -35 -11q-23 -14 -38.5 -49t-19.5 -71q0 -1 2 -10.5t-4 -11.5q-3 -3 -3.5 -6.5 t0.5 -9.5t1 -8v-29z" />
<glyph unicode="r" horiz-adv-x="223" d="M35 54q0 2 2 6t2 6t-3 5q-3 2 -3 5.5t1 8.5t1 7q2 35 6.5 68t6.5 55l2.5 9.5t0.5 17.5v3v3.5t0.5 3.5t0.5 3q2 16 2 25q0 3 2 8t2 9.5t-4 8.5q-2 0 -2 7.5v8.5q-3 18 -13 23q2 1 13.5 12t22.5 19.5t17 6.5q3 -1 5.5 -3.5t4 -6.5t2.5 -7t2 -9t1.5 -9.5t0.5 -10.5v-10v-11 v-10q13 25 36 40q22 15 49.5 18t29.5 -4q3 -4 -7.5 -18t-23 -24.5t-12.5 -6.5q-2 20 -13 9q-3 -4 -9 -2.5t-7 0.5q-13 -5 -23 -15q-21 -20 -27 -56q2 -11 -5 -20q-4 -4 -4 -9.5t2 -9.5l2 -4q0 -1 -2 -19q-4 -25 -5 -54q0 -8 -3 -15q-2 -5 0.5 -7.5t2.5 -3.5q3 -70 32 -73 q-5 -3 -15.5 -13t-18 -16t-19.5 -8.5t-20 10.5q-11 16 -13 49z" />
<glyph unicode="s" horiz-adv-x="252" d="M3 51q1 12 17 19q3 1 11.5 6t11 5.5t8.5 -2.5q3 -3 3 -9.5t2 -10.5l5 -5q5 -6 4 -10q-1 -5 2 -6.5t8 -1.5t7 -1q16 -9 38 -10t39.5 12t15.5 38q-2 17 -7 31q-1 2 0 5.5t2.5 6.5t0.5 5.5t-6 2.5q-8 1 -20 13q-16 19 -51 48.5t-46 40.5q-22 25 -22 52q0 40 41.5 72.5 t88.5 34.5h14q19 0 21 -6q2 -7 7.5 -6.5t9.5 -0.5q20 -13 23 -22q1 -2 -4 -5.5t-11.5 -8t-8.5 -9.5q-4 -11 -13 -16q-8 -27 -9 -29q-5 -14 -11 -10q-2 2 0 7q1 3 5.5 13t6.5 16h-1q-7 22 -41 35q-2 1 -4 1q-4 2 -8 6q-5 4 -7.5 4t-7 -2.5t-6.5 -2.5q-21 0 -33.5 -11 t-12.5 -29q0 -20 14 -37q1 -1 7 -6t7 -9q1 -8 3.5 -10t6.5 -2t6 -2q1 -1 9 -4t11 -13q1 -3 3.5 -5t6 -4t5.5 -3q70 -55 80 -94q10 -36 -11.5 -66t-57.5 -45t-74 -15q-33 0 -55.5 13.5t-22.5 41.5z" />
<glyph unicode="t" horiz-adv-x="187" d="M-7 322q2 1 9.5 9.5t13.5 13.5q17 15 29 14l35 -2q3 62 -12 77q-1 1 11.5 11.5t26.5 19.5t16 7q8 -8 11 -28q0 -1 1 -4.5t1.5 -5.5t-1.5 -4q-4 -5 -4 -7t2.5 -5t2.5 -5l-5 -7q-4 -8 4 -11q2 -3 2 -5t-2 -7t-2 -7l-2 -19q5 0 15 -0.5t14 -0.5q35 0 60 14q9 5 10.5 3.5 t-4.5 -7.5q-46 -38 -100 -49l-6 -39v-5.5v-5.5t-1.5 -5t-5.5 -5q-2 -2 -1.5 -5t2 -8t1.5 -7q-9 -67 -9 -105q0 -13 2 -33q2 -10 -3 -18q-1 -2 1.5 -4t5.5 -5t4 -5q14 -34 51 -29l-19 -19q-20 -18 -31 -19q-29 -4 -45 13t-19 42t-1 63q0 2 -1 9t-0.5 11t3.5 7q6 5 6.5 9.5 t-1.5 10t-2 8.5t2.5 9.5t3 9.5t-1.5 8q-2 6 -1.5 9.5t3 10.5t2.5 10q1 9 5.5 39t6.5 45q-2 0 -5.5 0.5t-4.5 0.5q-4 0 -9 3t-9 3q-3 0 -13 -1.5t-14 -0.5z" />
<glyph unicode="u" horiz-adv-x="313" d="M24 350l20 19t31 19q29 0 35 -53q0 -2 -2 -6.5t-2 -8t5 -6.5q2 -1 2.5 -4t-0.5 -6t-2 -6.5t-1 -5.5q-2 -38 -6 -67q0 -3 -3 -7t-4.5 -7.5t-0.5 -5.5q5 -7 2 -22q-1 -5 -4 -22.5t-4.5 -31.5t-1.5 -27q0 -25 8 -40q14 -27 32 -27q21 0 43 37q1 1 6.5 2t7.5 9q1 3 1 10t2 10 q19 41 30 79q11 57 15 86q0 3 3 7.5t3 7t-4 7.5q-3 3 -2.5 5.5t2 7.5t1.5 7q0 32 -12 39q6 10 25.5 27t28.5 11q8 -4 11 -21q4 -19 0 -52t-10.5 -66t-7.5 -39q-7 -60 -8 -75q0 -1 -1.5 -3t-3 -3.5t-0.5 -4t5 -5.5q3 0 2 -9t-1 -10l3 -19q0 -2 -2 -6t-1.5 -6.5t7.5 -4.5 q9 -18 34 -22l-18 -17q-22 -20 -36 -20q-43 4 -43 80v1q-25 -33 -56 -54q-43 -31 -77 -31q-40 0 -39 58q0 26 4 34q2 3 4 27q0 2 7 14.5t3 20.5q-3 7 -1 29q5 45 5 79q0 88 -34 88z" />
<glyph unicode="v" horiz-adv-x="323" d="M2 337q22 20 48 31q16 7 36 -22l0.5 -6.5t8.5 -8.5q3 0 4.5 -3t2.5 -8t2 -7q24 -56 51 -163q1 -2 0 -4t-1.5 -4l-1 -4t1.5 -4.5t6 -4.5q2 -1 2.5 -3.5t1 -4.5t0.5 -5v-4q4 -17 8.5 -41.5t6.5 -32.5q62 102 77 186q0 3 -0.5 8.5t0 9t3.5 6.5q6 6 6 10t-3 8t-3 7 q0 62 -41 70q-12 2 -25 -2t-18 -10t-7 -2q-2 2 2 6q7 9 17.5 17.5t24 17t27 12.5t26.5 1t23 -14q11 -11 9 -15q-2 -5 2.5 -11t4.5 -8q1 -2 0 -11t3 -14q1 -3 1 -6t-0.5 -7t-0.5 -6q-3 -59 -32 -122q-1 -2 -2.5 -6t-2 -7t-2.5 -6t-5 -5q-12 -7 -13 -16t-1 -10q-1 -1 -4 -9 t-7 -10q-7 -3 -9 -6.5t-2 -7.5t-1 -6q-18 -27 -43 -61q-3 -6 -31 -20q-17 -8 -17 -9q0 4 -2 10.5t-5 18.5t-5 22q0 2 -2.5 8.5t-2.5 9.5t1 14q1 5 -3.5 13.5t-5.5 11.5q-1 4 -1.5 12.5t-2 14.5t-5.5 10q-5 4 -6.5 10t-0.5 10t-1 10q-5 20 -17 58q0 1 4.5 10t-2.5 11 q-10 5 -13 12q-25 73 -43 80q-8 3 -15 -3q-6 -5 -8 -1q0 2 3 5z" />
<glyph unicode="w" horiz-adv-x="457" d="M10 346l10 10q5 5 11 9l17 11q27 13 65 -108q1 -3 1.5 -10.5t2 -12.5t5.5 -7q5 -3 6.5 -8.5t1.5 -13t1 -11.5q1 -3 -0.5 -8.5t-2 -8t2.5 -5.5q5 -2 7 -5.5t3 -11.5l1 -7q3 -14 11.5 -52.5t11.5 -53.5l15 40q1 2 4 4t3.5 4t-0.5 9q4 2 5.5 6.5t2.5 11.5t2 11l13 39 q1 2 4.5 6.5t4.5 7t-2 9.5q-1 5 -1 7t2.5 7.5t3.5 7.5q8 38 8 43q-3 12 -10 30t-8 22q0 1 1 3t2.5 4.5t2.5 3.5l-2 4h-1q-1 0 -1 0.5t-1 0.5q-6 0 -14.5 11t-12.5 9l35 28l3 2q15 8 32 -29l1 -1l3 -7q1 -1 3.5 -4t3 -4.5t-0.5 -4.5q-3 -8 -2 -10.5t5 -5.5t5 -6 q11 -32 25 -91q1 -4 -2 -16t3 -12q5 -3 8 -8t3.5 -9.5t1.5 -11.5t1 -9q7 -31 16 -84l4 -24q17 27 32 57q1 2 4 4t4.5 5t0.5 10q0 3 6.5 12t4.5 15q-1 7 0 9.5t5 7.5t5 9q17 47 17 99q0 45 -18 63q-1 1 -2 6.5t-3 6.5t-9 0t-9 -1q-12 2 -25 -2t-18 -10t-7 -2q-2 2 2 6 q33 38 74 48q24 5 39.5 -10.5t20.5 -37t3 -44.5q0 -4 -3 -11t-3.5 -10.5t2.5 -9.5q2 -6 2 -9t-3.5 -11.5t-3.5 -10.5q-1 -5 -4 -10.5t-4 -8.5t-7.5 -7.5t-4.5 -12.5t0.5 -14.5t-8 -16.5t-6.5 -11q-28 -57 -78 -125l-2 -3q0 -7 -33 -23q-14 -7 -14 -9q0 1 -1.5 11t-3.5 18 q0 1 2.5 13t-6.5 16q-2 1 -7 25q-1 3 -1 11.5t-1 14.5t-5 9q-4 4 -5.5 10t-1.5 14t-1 12l-14 59q-20 -64 -76 -181q1 -3 -6 -8.5t-16 -9.5t-16 -8t-7 -5l-5 21q-6 32 -15 68q-1 2 0 6t1.5 7t-1 6t-6.5 5q-4 1 -5 5t-0.5 10t-0.5 9q-1 4 -1 11.5t-1.5 13t-6.5 9.5q-3 2 -4 10 t-1 9q-16 57 -27 86q-2 4 -0.5 8.5t0 9t-7.5 5.5q-4 1 -6 5t-3 10.5t-2 8.5q-7 15 -12.5 21.5t-10.5 5.5zM291 -5z" />
<glyph unicode="x" horiz-adv-x="302" d="M-1 -9q-11 9 11 45q1 1 3.5 7t6 10t9.5 6q3 1 2.5 4.5t1.5 6.5q20 26 53 59q2 2 8 5t8 5q2 1 3 6t2 6l25 27q-17 54 -35 93q-1 2 0.5 8t0.5 11t-8 7q-7 3 -14 13q-35 54 -70 34q-2 -1 -3 2q4 5 18.5 15.5t21.5 13.5q17 8 35 3.5t24 -19.5q2 -6 8.5 -9t7.5 -4l12 -20 q2 -3 1 -10.5t3 -9.5q13 -11 19 -30q3 -7 18 -53l33 40q32 42 38 62q3 12 2 22q-1 5 8 11t24 13q4 2 9.5 5.5t9.5 5.5t9 2q3 -1 2 -4t-5 -9.5t-5 -9.5q-4 -17 -18 -40q-1 -2 -6 -4t-7.5 -5.5t-0.5 -11.5q-1 -1 -5 -6.5t-6 -7.5q-3 -3 -6 -2t-6 -0.5t-3 -8.5q0 -6 -12 -18 q-18 -18 -38 -40q-2 -2 -5 -6t-5 -6l12 -33q5 -12 5 -19q0 -6 1.5 -8.5t4 -4.5t3.5 -5q18 -47 22 -54q1 -3 0 -10.5t1 -11.5q2 -3 9.5 -7t8.5 -6q21 -27 41 -9q9 8 8.5 1.5t-6.5 -11.5q-38 -32 -59 -32q-16 0 -26 14q-17 24 -29 52q-1 2 -0.5 9t-1.5 8q-4 3 -6.5 5t-3 3.5 t-1 4t-0.5 3.5q-17 44 -24 67q-5 -6 -14.5 -17t-17 -20t-13.5 -17q-45 -56 -42 -86q1 -5 -10.5 -13t-24.5 -13.5t-16 -3.5z" />
<glyph unicode="y" horiz-adv-x="312" d="M19 348q3 12 20.5 25.5t30.5 12.5q25 0 31 -42q0 -2 1.5 -6t2.5 -7t1 -6.5t-2 -6.5q-4 -8 -4 -13t2 -9.5t2 -7.5q-1 -23 -9 -95q0 -3 -3 -8.5t-3.5 -9t2.5 -11.5q2 -5 2 -7t-2 -8t-2 -10q-9 -73 -3 -95q5 -18 24.5 -21.5t31.5 8.5q16 12 33 43q1 2 3 3.5t3.5 2.5t2.5 4.5 t1 8.5q0 3 8 19q14 35 22 63l2 24q0 3 3.5 8.5t4.5 8.5t-2 7q-5 4 -6 9t0.5 11t1.5 8q2 61 0 78q0 4 -3.5 14t0.5 12q2 4 4.5 6.5t5 4t7 4.5t8.5 6l6.5 6.5l7 7t7.5 5t7 -0.5q3 -2 3.5 -4.5t0 -7t-0.5 -8.5q1 -15 1 -61q0 -1 -5.5 -11t0.5 -13q4 -5 4 -22l-6 -127 q0 -2 -2.5 -5.5t-2.5 -6t4 -10.5q3 0 1 -12t-2 -13q0 -2 -2.5 -5.5t-2.5 -6t4 -9.5q2 -5 2 -7.5t-2 -8.5t-2 -8q-4 -54 -7 -79q0 -3 -3 -7.5t-3 -6.5t3 -10q2 -2 1.5 -6t-1.5 -6.5t-2.5 -6t-1.5 -5.5q-6 -36 -27 -67t-47.5 -48.5t-49.5 -27.5t-38 -11q-17 -1 -21 6q-3 4 5 5 q3 1 8 1q9 -1 20.5 2.5t23.5 11t24 20.5t22 30q1 2 4 4t5 3.5t3 5t-1 8.5q-1 2 0 4.5t2 4.5l2.5 5l2.5 5q16 50 18 117q0 5 0.5 11.5t1 14.5l1 16t1 18.5t1.5 19.5q-29 -42 -62 -65q-39 -30 -73 -30q-45 0 -42 61q0 1 -1 5.5t-0.5 8.5t3.5 8q6 7 6 11t-2 7.5t-2 6.5 q7 68 9 105q0 3 2.5 6t4 5.5t1 6.5t-5.5 9q-2 3 -2.5 7t0.5 8t2 9t1 8q0 19 -0.5 31.5t-3 28.5t-8.5 24t-16 7z" />
<glyph unicode="z" horiz-adv-x="307" d="M-28 -1q10 13 14 16q18 26 29 38l7.5 1.5t8.5 12.5q1 7 10 18l72 83l-21 2q-2 0 -5.5 5t-9.5 2q-9 -5 -22 -4.5t-21 4.5q-5 1 7 9q8 6 11 9q20 18 32 17q40 -2 61 -2q15 19 33 47q0 1 8 4.5t7 13.5q-1 5 5 15q25 44 28 52h-15q-19 0 -29 1q-2 0 -7 -0.5t-8.5 0t-5.5 2.5 q-5 6 -9 6t-7.5 -2t-5.5 -2q-22 2 -33 2q-37 0 -62 -15q-12 -8 -13 -4t7 11q18 16 28.5 23.5t31 13.5t49.5 6q19 0 30 -1t39.5 -6.5t43.5 -5.5q24 0 40 12q7 5 7.5 2t-1.5 -5q-9 -9 -14 -12q-25 -58 -111 -158h2q4 0 15 -0.5t17 -0.5q2 0 5.5 0.5t6 0.5t5 -1t3.5 -3 q5 -5 7.5 -4.5t7.5 4.5t7 4q30 3 46 13q8 4 9 2.5t-6 -6.5q-22 -18 -38 -27q-44 -24 -124 -24q-1 -1 -5 -6.5t-6 -7.5q-1 -2 -5.5 -2t-7 -3t-0.5 -11q0 -3 -1.5 -5t-5 -4.5t-4.5 -4.5l-17 -22q-1 -1 -2.5 -4.5t-3 -5.5t-3.5 -2q-8 -1 -9.5 -3.5t0 -5.5t0.5 -4l-13 -19 q14 3 28 3q34 0 44 -12q4 -8 11.5 -3.5t9.5 3.5q68 -17 91 -17q24 0 37 9q7 4 7 0.5t-6 -8.5q-26 -26 -65 -35q-2 0 -7 -1.5t-8.5 -2t-8 1t-7.5 6.5q-3 3 -4.5 1.5t-5.5 -4t-7 -2.5q-19 2 -54 11t-47 11q-17 3 -46.5 -3t-41.5 -18q-8 -8 -10 -3q-1 1 1 4z" />
<glyph unicode="{" horiz-adv-x="277" d="M16 257q1 1 2 1l-2 2q0 2 18 2q75 2 75 149q0 22 -2 68q0 5 5 14t4.5 16.5t-11.5 15.5q-4 3 -4 8.5t1.5 13t1.5 10.5q0 66 34 90t96 24q32 0 62 -5q10 -3 1 -5q-5 -1 -9 0q-22 2 -51 2q-57 0 -73 -64q-1 -3 -6 -12t-5 -13t5 -16q3 -6 2.5 -9.5t-2 -11t-1.5 -10.5 q0 -31 2 -73t2 -63q0 -3 -4 -9.5t-4 -10t7 -10.5q2 -3 2 -5.5t-2.5 -8t-2.5 -7.5q-5 -34 -20 -53q-17 -22 -55 -29q51 -10 63 -38q1 -3 4 -9t5 -10.5t4 -10t1.5 -9.5t-2.5 -7q-7 -12 -6 -18.5t5 -18t4 -17.5q0 -22 -2 -62q0 -3 -3.5 -9.5t-3.5 -10.5t6 -14q3 -4 3 -9 t-1.5 -12.5t-1.5 -12.5q0 -61 16.5 -98.5t63.5 -37.5q29 0 56 3q10 1 10 -3q0 -1 -2 -2q-12 -6 -65 -6q-115 0 -128 67q-6 36 -6 74q0 7 5 14.5t5.5 11t-7.5 13.5q-5 5 -5 17t2.5 27.5t2.5 20.5v12q0 30 -1 48t-7 46t-22 42t-41 15q-18 0 -18 3z" />
<glyph unicode="|" horiz-adv-x="176" d="M49 -218q0 34 1 51q0 4 3.5 12t4 12.5t-4.5 14.5q-4 4 -4 10t2 14.5t2 12.5l5 162q0 3 1.5 21.5t-0.5 21.5q-2 15 -2 21.5t2 22t2 22.5q0 2 2.5 17.5t-1.5 26.5q-2 7 1 51l4 126q0 4 2.5 13t2.5 13t-4 14q-5 0 -2 18t3 20q1 17 1 50q0 2 1 9t-1 14q0 6 14 10.5t28 3 t14 -8.5q-2 -9 -2.5 -14t0.5 -9t1 -8q0 -31 -1 -47q-1 -32 -2 -69t-2 -81.5t-2 -69.5q0 -3 -3 -15t1 -13q5 -7 5 -14.5t-2.5 -17t-2.5 -14.5q0 -31 -2 -89.5t-2 -76.5q0 -2 -2 -19.5t1 -20.5q2 -12 2 -17.5t-2 -17.5t-2 -18q0 -5 1 -15.5t0.5 -19t-2.5 -15.5q-5 -7 -3.5 -30 t1.5 -25q0 -34 1 -39q0 -2 -2 -3.5t-6.5 -2t-9.5 -1t-11 -0.5q-29 0 -29 7z" />
<glyph unicode="}" horiz-adv-x="290" d="M-10 -147q-4 2 2 5q4 1 9 1q2 0 22.5 -2t30.5 -2q54 0 71 55q1 3 6 9t5 9.5t-4 17.5q-5 1 -1.5 21.5t3.5 23.5q0 4 3.5 9t3.5 11t-7 17q-2 4 -2.5 8.5t0.5 10.5t1 8q-2 44 -2 66q0 6 6 10.5t8 8t-5 17.5q-12 17 6 64q12 28 62 38q-37 7 -54 29q-24 31 -24 104q0 5 7 16.5 t1 24.5q-7 16 -5 58q0 4 3 14t3.5 16.5t-3.5 16.5q-6 9 -5.5 22t-0.5 24q-12 80 -76 80q-25 0 -55 -3q-8 -1 -9 2q-1 2 3 3q1 1 2 1q30 5 62 5q114 0 128 -82q2 -10 2 -32q0 -3 1.5 -11t1 -13.5t-3.5 -9.5q-7 -9 -7.5 -14.5t3 -10t3.5 -8.5q-3 -78 -3 -79q0 -37 4 -64 q4 -24 1 -34q-3 -11 0 -14t9 -3t7 -2q18 -31 54 -32q18 0 18 -2q0 -1 -3 -2l3 -1q0 -3 -18 -3q-25 -1 -41 -15t-22 -42t-7 -46t-1 -48v-12q0 -40 -6 -53q-7 -16 1 -31t8 -20q0 -40 -14 -48q-3 -3 -1 -6.5t6 -9.5t3 -10q-13 -67 -128 -67q-53 0 -65 6z" />
<glyph unicode="~" horiz-adv-x="413" d="M67 198q13 18 43 35t60 17q34 0 41 -7q3 -6 8 -3.5t6 2.5q48 -11 76 -11q23 0 33 15q4 6 6.5 3.5t0.5 -7.5q-9 -20 -40.5 -33t-62.5 -13q-19 0 -59 8q-1 0 -7.5 5t-10.5 0q-3 -2 -17 1q-20 2 -31 2q-22 0 -39 -19q-6 -6 -8 -1q-1 3 1 6z" />
<glyph unicode="&#xa1;" horiz-adv-x="195" d="M36 -178q1 58 17 256q0 4 4 9t5 7.5t-3 7.5q-4 3 -1 44q2 44 2 65q0 9 26 20t28 16q0 -4 -0.5 -12.5t-0.5 -11.5q0 -29 -16 -224q0 -2 -3.5 -9.5t-2.5 -10.5q11 -30 -2 -47q-6 -5 -1.5 -10t4.5 -8q-2 -38 -2 -56q-1 -9 -28 -22q-25 -10 -26 -14zM70 335q0 1 7 8l18 14 l7 5q8 5 15 8.5t7 2.5l11 -27l-1 -2l-4 -4l-1 -2l-19 -14q-11 9 -14 -9q-14 -8 -14 -7q-2 4 -4 8.5t-4.5 10t-3.5 8.5z" />
<glyph unicode="&#xa2;" horiz-adv-x="230" d="M16 169q0 11 2 29q5 41 24 70t61 58q3 2 22 13l10 101q0 5 13 10.5t14 7.5q-1 -5 -3 -24.5t-4 -41.5t-4 -43q9 3 19 3q18 0 31 -12q8 -6 5 -21q0 -1 2.5 -3t6 -4t3.5 -4q2 -7 4 -21q0 -8 -16 -17q-5 -3 -12.5 -8.5t-12 -8.5t-7.5 -3t-3 5.5t1 11.5t-1 11q-10 29 -23 41 q-17 -169 -17 -174q-7 -6 -8 -10.5t2.5 -9.5t3.5 -7q-3 -3 -3.5 -6t0.5 -7t1 -6l-3 -27h4q28 0 65 25q18 12 22.5 9t-17.5 -19q-47 -34 -77 -45q-5 -65 -10 -122q0 -4 -13.5 -10t-13.5 -7l10 101q0 3 3 5.5t3 4t-5 7.5q0 3 0.5 8t0.5 7h-8q-38 0 -58 51q-1 3 5 10.5t-2 13.5 q-13 12 -15 27q-2 20 -2 31zM66 216q-8 -4 -3 -15t5 -12q0 -87 33 -109l23 245q-20 -7 -34 -32t-18 -51q-1 -3 -1 -8.5t-1 -10t-4 -7.5z" />
<glyph unicode="&#xa3;" horiz-adv-x="417" d="M11 -4q-11 -8 -11 -2q0 3 12 14t24 18q9 11 19 35q17 49 24 160h-3q-3 0 -8 -1t-9 -1t-6 2q-4 4 -8 5t-6 -0.5t-4.5 -3t-4.5 -1.5h-13q-5 1 -4 6.5t5 14.5q10 18 17 18h43v7q0 2 1.5 9.5t1.5 13.5t-4 9q9 14 9 16.5t-5 12.5q-1 7 -1.5 9t1 11t1.5 10q3 44 14 76 q23 68 97 121t144 47q1 0 2 -0.5l1 -0.5q5 -3 14 -12q2 -2 3.5 -7.5t4.5 -6.5t6 -3t4 -4t3 -5.5t3 -4.5q2 -3 0.5 -8t0.5 -9.5t10 -4.5q2 0 3 -1.5t1 -3.5v-4.5t1 -4.5q8 -21 12 -45q0 -2 1.5 -5.5t2 -6t1 -5.5t-1.5 -5q-3 -5 -3.5 -8.5t1 -5.5t2.5 -5t1 -5q-2 -50 -28 -75 q-16 -14 -40 -30l-16 -7q-1 1 3 4q26 24 21 91q0 4 0.5 15t-1 17.5t-6.5 11.5t-7.5 19t-3.5 16q-23 55 -49 68h-3q-63 6 -97 -40q-2 -3 -9.5 -9t-10 -12.5t-0.5 -17.5q1 -2 0.5 -5t-1 -5.5t-2 -5t-2.5 -5t-2 -5.5t-2 -5q2 -10 -3 -31t-6 -27q-5 -58 -5 -133q7 0 19.5 0.5 t18.5 0.5q2 0 3.5 -1l3 -2t5.5 -3.5t9 -4.5q2 -1 3.5 2t2.5 6.5t3 3.5q12 0 15 1q7 1 8 -6t-3 -16q-8 -20 -18 -20h-72q0 -8 -2 -24q0 -4 -2.5 -6t-4.5 -4.5t-3 -6.5q-1 -5 0 -21.5t-1 -20.5q-19 -67 -59 -99q16 5 42 5q9 0 33 -2q2 0 17 -5t20 0q12 4 25 -10q2 -3 9 0t9 3 q77 -13 109 -15q2 0 7 -1.5t6 -1.5q5 3 9 4t9 1.5t7 0t8 -1.5t8 -1q21 -3 41 14q7 6 8 0q0 -4 -5 -9q-18 -20 -39.5 -31t-46 -14t-59.5 -1q-5 0 -9 4t-9 4t-19.5 -1t-19.5 0q-25 4 -53 8t-62.5 9.5t-54.5 8.5q-26 4 -45 -11z" />
<glyph unicode="&#xa4;" horiz-adv-x="500" d="M-23 251q8 1 23 19t26 19q0 7 2 23q1 7 11 12t7 12l-4 9q-60 5 -65 5q10 1 23 20q16 18 28 18l20 -2q43 91 138 153q3 2 10 7.5t13 9t13 5.5q5 2 23 7t28 15q4 4 9 5.5t12.5 2.5t10.5 2q35 8 66 8q84 0 143 -55q1 0 -3 -3.5t-11 -9.5t-14 -11q-18 -15 -28 -18 q-6 -32 -7 -40t-3 -10q-1 -1 -3 3l-1 14q7 34 8 36l-24 18q-19 11 -25 24q-1 3 -5 4t-8 -0.5t-8.5 -2t-8.5 0.5q-30 8 -58 8q-50 0 -96.5 -21.5t-80.5 -61.5t-46 -91h73q53 0 74 13q6 3 7 3t1 -1t-5 -6q-26 -22 -57 -35q-1 -1 -9 -1.5t-13 -5.5q-2 0 -4.5 1.5t-4.5 2.5t-4 0 q-4 -3 -7.5 -5t-8 -3.5t-7 -2t-9.5 -1t-9 -0.5h-11h-11h-1v-16q0 -21 3 -42h76q53 0 74 13q6 3 7 3t1 -1t-5 -6q-32 -27 -65.5 -38t-78.5 -12v-14q0 -6 9 -10q-4 -14 -3 -17t8 -6.5t10 -7.5q39 -72 118 -115q2 -1 7 -9t20 -8q6 0 17.5 -3.5t13.5 -3.5q21 -6 45 -6 q30 0 45.5 7t42.5 29q1 1 18.5 13.5t22.5 16.5q9 7 13.5 2t-8.5 -16q-111 -94 -200 -94q-47 0 -92 26q-4 2 -17.5 14.5t-26.5 16.5q-8 2 -14 8t-13.5 15.5t-10.5 13.5q-55 62 -71 131q-4 11 -5 23l-9 -3q-4 0 -18.5 1.5t-22.5 1.5z" />
<glyph unicode="&#xa5;" horiz-adv-x="434" d="M-9 537q33 36 60 36q23 0 45 -25q46 -52 91 -146q1 -2 2.5 -3.5t2 -3t1 -5t0.5 -11.5q0 -17 12 -24q4 -2 6.5 -5t3 -5t1.5 -5t2 -5q4 -9 12 -24.5t13.5 -28t8.5 -24.5q57 53 86 95q2 2 6 4t6.5 5.5t1.5 11.5q0 4 2 8t6 8.5t6 7.5q16 32 20 57q1 4 -2.5 17.5t1.5 16.5 q7 10 -1 14q-4 2 -5 4q-9 25 -39 41.5t-52 1.5l-8 -5.5t-15.5 -9.5t-8.5 -3q-1 3 11.5 13.5t15.5 12.5q51 35 80 38q18 3 24 -6q5 -8 8 -8t5 3t5 2q29 -16 38 -58q-5 -4 -2 -20.5t2 -21.5q-3 -19 -10 -34q-28 -59 -80 -120q-3 -4 -6.5 -1.5t-7 1t-4.5 -10.5q0 -3 -1.5 -6.5 t-4.5 -7.5t-5 -7t-6.5 -7t-6.5 -6t-6.5 -6t-5.5 -5l-29 -28h26q53 0 74 13q6 3 7 3t1 -1t-5 -6q-26 -22 -57 -35q-3 -1 -7 -1t-7.5 -1t-7.5 -5q-2 0 -6.5 3t-6.5 1q-11 -8 -20 -10q-2 0 -4.5 -0.5t-3.5 -0.5q-2 -28 -2 -52h35q53 0 74 13q6 3 7 3t1 -1t-5 -6 q-47 -40 -109 -48q1 -4 -2 -12q-2 -4 1.5 -12t3.5 -10q-4 -5 -4.5 -9.5t0.5 -7t3.5 -6t3.5 -5.5q10 -32 32 -35q-6 -8 -21 -20.5t-25 -11.5q-13 1 -21 13q-2 2 -4.5 11t-6.5 12t-5.5 7.5t-1 12.5t0.5 11q-3 26 -3 53v6q-11 0 -29 2q-2 0 -4.5 -0.5t-4 0t-4.5 2t-6 5.5 q-2 2 -4.5 0.5t-7 -3.5t-6.5 -2q-3 0 -18.5 1.5t-23.5 1.5q7 1 23 19.5t29 18.5q9 -1 18.5 -1.5t21 -1t17.5 -0.5l2 14q0 8 0.5 20t0.5 16q-19 0 -53.5 3.5t-48.5 3.5q7 1 23 19.5t29 18.5q26 -2 39 -2q-1 5 0 9t2.5 7.5t-0.5 6.5t-9 5q-5 11 -61 115q-10 16 -10 28 q-1 15 -10 18t-10 5q1 8 -2.5 14t-10.5 12.5t-9 10.5q-14 22 -32 40q-30 30 -51 12q-3 -2 -5 -0.5t1 4.5z" />
<glyph unicode="&#xa6;" horiz-adv-x="176" d="M49 -218q0 34 1 51q0 4 3.5 12t4 12.5t-4.5 14.5q-4 4 -4 10t2 14.5t2 12.5l5 162q0 3 1.5 21.5t-0.5 21.5q-2 15 -2 21.5t2 22t2 22.5q0 2 2.5 17.5t-1.5 26.5q-2 7 1 51l4 126q0 4 2.5 13t2.5 13t-4 14q-5 0 -2 18t3 20q1 17 1 50q0 2 1 9t-1 14q0 6 14 10.5t28 3 t14 -8.5q-2 -9 -2.5 -14t0.5 -9t1 -8q0 -31 -1 -47q-1 -32 -2 -69t-2 -81.5t-2 -69.5q0 -3 -3 -15t1 -13q5 -7 5 -14.5t-2.5 -17t-2.5 -14.5q0 -31 -2 -89.5t-2 -76.5q0 -2 -2 -19.5t1 -20.5q2 -12 2 -17.5t-2 -17.5t-2 -18q0 -5 1 -15.5t0.5 -19t-2.5 -15.5q-5 -7 -3.5 -30 t1.5 -25q0 -34 1 -39q0 -2 -2 -3.5t-6.5 -2t-9.5 -1t-11 -0.5q-29 0 -29 7z" />
<glyph unicode="&#xa7;" horiz-adv-x="416" d="M16 -179q0 1 0.5 2t1.5 2t3 2t5 1q6 -1 17 10q24 24 29 20q9 -9 15 -19q1 -2 7 -2t8 -1q32 -19 73.5 -30t78.5 -9q3 0 7 -2.5t6.5 -3t6.5 2.5q2 3 6.5 5t10 4.5t7.5 3.5q5 -1 8.5 1t7 6t5.5 5q31 24 35 74q4 54 -48 101q-2 1 -7 6.5t-10 9t-12 6.5q-6 2 -13.5 7.5 t-11.5 7.5q-22 13 -63 34t-55 30q-3 2 -14 7t-23.5 13t-23.5 19q-2 2 -4 8t-4.5 10t-6.5 4q-13 -1 -23 30q-13 49 49 104q22 22 57 37l-4 4q-3 2 -6 9t-9 11t-18 4q-3 2 -4.5 5t-2.5 6t-5.5 5t-13.5 3q-4 0 -6.5 11t-6.5 11q-14 0 -21 32q-11 49 55 101q62 49 145 49 q55 0 85 -18q3 -2 6.5 -8t8.5 -5q7 0 11.5 -1.5t9.5 -7.5l5 -5q10 -8 15 -17q1 -3 0 -3.5t-6 -0.5t-8 -1q-9 -2 -34 -24q-17 -43 -17 -46q0 -11 -6 -10q-5 1 -5 8q0 6 18 45q-38 39 -113 50q-6 1 -10.5 0t-10.5 0.5t-11 5.5q-12 10 -24 -6q-6 2 -8 1.5t-3.5 -3t-3.5 -3.5 q-47 -18 -47 -57q0 -13 6 -28q8 -19 30 -39.5t39.5 -31.5t54.5 -34q1 -1 6 -4t7 -4.5t5 -4.5t3 -6q0 -7 4.5 -8t9 1t7.5 0l22 -15q89 -62 99 -121q1 -5 -3 -8t-4 -7q0 -3 3 -11t4 -13t-1 -9q-8 -2 -6 -9l1 -6q-9 -26 -55 -69l26 -22q34 -32 41 -66q5 -14 4 -21 q1 -5 -2.5 -14t-7.5 -12q-7 -4 -1 -9.5t5 -6.5q-19 -61 -93 -108q-52 -33 -131 -28q-4 0 -8 4t-7 4q-12 0 -17 -1q-14 -2 -34 5q-35 10 -67 32q-10 10 -13 11q-7 2 -7 8zM84 236q0 -12 8 -30q8 -14 20.5 -27t33 -26t35 -21.5t42.5 -22.5q2 -1 6.5 -3.5t7 -4t5 -4.5t3.5 -6 q1 -7 4.5 -7.5t9 1t7.5 0.5l23 -13l27 -18q22 22 28 62q8 54 -42 104q-3 3 -3.5 11.5t-2.5 14t-9 2.5q-5 -4 -12 -2.5t-9.5 3t-7.5 6t-7 5.5l-66 41q-13 0 -19 5q-12 10 -23 -7q-7 2 -8.5 1t-3 -3.5t-3.5 -3.5q-44 -20 -44 -57z" />
<glyph unicode="&#xa8;" horiz-adv-x="156" d="M27 549q0 2 12.5 11t15.5 9l4 -4q1 -1 0 -3t0 -2q6 -2 6 -5t1 -5l2 -4l2 -1q0 -2 -12.5 -11t-15.5 -9q-2 0 -2.5 2.5t0 5t-0.5 3.5t-3 1.5t-3 1.5zM85 549q0 2 12.5 11t15.5 9l1.5 -2t3 -4.5t2.5 -3.5t0 -3v-2q6 -2 6 -5q0 -4 2 -4h1q0 -2 -13 -11t-16 -9l-10 15v-1z" />
<glyph unicode="&#xa9;" horiz-adv-x="633" d="M36 263q0 66 34 131q12 25 17 28q9 6 16.5 18t9.5 14l13 14q1 1 9.5 5.5t12.5 14.5q2 4 6 7.5t10.5 6.5t9.5 5q76 50 160 50q49 0 95 -17q4 -2 7.5 -5.5t6.5 -4.5q3 -2 11.5 -4t11.5 -3q34 -18 65 -51q14 -14 13 -22q-2 -12 7.5 -14.5t10.5 -3.5q51 -95 28.5 -188.5 t-97.5 -157.5q-12 -11 -21 -12q-3 -1 -8 -7.5t-7 -7.5q-75 -47 -154 -47q-27 0 -62 7h-7t-8 1t-5 4q-7 9 -11.5 10.5t-8 -0.5t-6.5 -1q-78 33 -122 102q-1 1 -3 13t-13 16q-4 1 -5.5 5.5t-2.5 11.5t-2 10q-11 36 -11 72zM77 306q0 -28 4 -49q7 -36 5 -52q-1 -7 9.5 -15.5 t12.5 -12.5q1 -2 5 -12t7.5 -15.5t9.5 -7.5q9 -4 14 -13.5t7 -11.5q49 -51 115 -68q2 -1 5.5 -1t5.5 -0.5t6 -2.5t7 -7q4 -3 6.5 -2.5t8.5 2.5t9 2q9 -1 26 -1q96 0 155 66.5t62 164.5q0 5 2 17t1 20.5t-9 13.5q-6 4 -8 19.5t-3 18.5q-3 7 -1.5 11.5t-1.5 11t-13 12.5 q-6 4 -11.5 16.5t-7.5 14.5q-39 54 -96 80q-1 1 -12 3.5t-15 7.5q-6 8 -10 9t-8.5 -1t-7.5 -1q-33 7 -62 7q-47 0 -90 -20.5t-71 -57.5q-56 -74 -56 -146zM204 270q0 46 49.5 93t106.5 47q14 0 21 -2q3 -1 5.5 -5t5.5 -5q1 -1 7.5 -1t8.5 -1l10 -8q0 -3 -17.5 -16.5 t-22.5 -13.5q-23 23 -57 23q-32 0 -54 -21.5t-22 -59.5q0 -19 8 -41q1 -3 4 -5.5t4 -6.5t0 -14q-1 -7 2 -9.5t7.5 -2.5t5.5 -1q32 -37 74 -37q19 0 53 30q4 3 5 1t-2 -5q-14 -17 -48 -35t-53 -18q-20 0 -25 9q-5 8 -14.5 9t-11.5 3q-2 1 -3.5 11t-9.5 11q-16 2 -26.5 26.5 t-10.5 44.5z" />
<glyph unicode="&#xaa;" horiz-adv-x="194" d="M24 205v34q1 59 41 110q1 1 4 2t4 4q0 2 4 3.5t7 5.5q1 2 9 5q17 13 40 9q21 0 25 -12q1 -1 0 -5t2 -6q3 -1 4 -4.5t0 -9.5t-1 -8q0 -3 -3 -17.5t-4 -23.5q0 -1 -4 -11t1 -11q1 -2 -0.5 -7t-1.5 -7q-3 -16 -3 -31q0 -24 7 -35t13 -11q-2 -1 -7 -6.5t-10.5 -9.5t-9.5 -4 q-9 0 -14 8q-3 0 -4.5 2.5t0.5 4.5q1 3 0.5 4t-2.5 4t-3 5q-1 6 -1 19q-12 -20 -34 -40t-36 -12q-15 13 -20 31q0 1 1.5 3t1 3.5t-4.5 3.5q-1 1 -1 10zM51 239q4 -4 5 -13t1 -10q-2 -5 -2 -6t3 -4l3 -4q2 -13 7 -20.5t10 -5.5q24 13 45 79q0 2 7 46q0 1 3 7.5t-1 9.5 q-3 2 -1.5 9t1.5 8q-2 1 -2 12q-1 1 -2.5 3t-2.5 2q-23 18 -46 -7q-14 -16 -22 -72q0 -1 -1 -5.5t-1 -6.5q0 -3 -3 -10t-1 -12z" />
<glyph unicode="&#xab;" horiz-adv-x="282" d="M26 173q0 1 0.5 1t0.5 1l15 34q1 2 4 4.5t4 8.5t15 37q1 2 5 7t6 16q0 3 11 27l24 52q2 6 16.5 12.5t16.5 9.5q-10 -28 -12 -31q-6 -18 -10 -20q-7 -3 -7.5 -5.5t1 -5.5t0.5 -5l-24 -54q-1 -2 -5.5 -7.5t-6.5 -8.5q-1 -2 -1 -5.5v-5.5l-5 -10q-11 -22 -11 -25v-1l20 -46 q7 -12 8 -17q0 -5 1.5 -8.5t4 -6.5t3.5 -5q13 -32 13 -33q1 -9 7.5 -17t7.5 -10q10 -25 19 -43q0 -2 -9 -8.5t-18 -12t-9 -4.5l-6 13q-1 1 1 8t-3 7q-6 2 -10 11l-31 68q0 1 -0.5 11.5t-7.5 15.5q-4 2 -7 6t-4 6.5t-3.5 9t-3.5 8.5l-5 9q-5 9 -5 12zM134 178v1l14 31 q1 1 3.5 2t4.5 4t1 11q-1 2 6 15q8 17 22 51q1 3 7.5 9.5t7.5 16.5q2 10 10 28l8 19q4 6 17 13q14 5 18 9l-8 -18l-6 -16q-5 -10 -10 -14q-4 -4 -4 -9.5t-1 -7.5l-12 -27q-8 -18 -13 -22q-8 -4 -6 -11t1 -8q-3 -5 -7 -14t-5 -11q-11 -22 -11 -26l21 -47q5 -19 5 -23 q-1 -6 4 -8.5t6 -3.5q18 -38 22 -46q6 -21 6 -26q0 -3 4.5 -5.5t5.5 -5.5q6 -14 10 -21q0 -4 -37 -26q-6 14 -18 39.5t-15 31.5q-1 3 -2 9t-3 11t-7 9q-4 3 -6.5 11t-3.5 10t-1 6t-1.5 7t-5.5 7q-4 3 -11 24q-10 15 -10 21zM253 388l1 1z" />
<glyph unicode="&#xac;" horiz-adv-x="466" d="M64 370q1 4 2.5 10.5t8.5 15t16 4.5l131 -62q-8 38 -15 76q-1 3 2 9t3.5 9.5t-5.5 6.5q-5 1 -8 8.5t-3.5 14.5t-1 16t-0.5 10q-1 11 8.5 14.5t19.5 1.5l10 -2q36 0 36 -19l-24 -145q20 13 46 27q3 2 10.5 1.5t11.5 5.5q2 3 11.5 8t11.5 9q2 3 4 5t4 2h5t4 1q22 10 29 10 q9 -1 14.5 -8t6.5 -13l1 -7q12 -27 -2 -41q-5 -4 -35 -9q-1 0 -19 3t-21 -5q-3 -3 -5.5 -4t-4.5 -1h-7l-58 -5q86 -82 111 -104q3 -7 -1.5 -15.5t-10.5 -13.5l-6 -6q-2 -3 -6 -6t-16 -9t-19 1q-9 7 -26.5 42t-30.5 66l-13 32q-15 -31 -31 -65q-1 -3 -3 -5t-3 -2.5t-1.5 -3 t-0.5 -5.5q1 -6 -2 -13t-9 -16l-6 -8q-9 -18 -12 -22q-6 -4 -15.5 -3t-17.5 5l-9 3q-1 1 -3 2t-7 5.5t-7.5 8.5t-3.5 10t4 11q8 10 35.5 38t50.5 50l23 23q-34 1 -69 3q-14 0 -21 1q-2 0 -10.5 4.5t-12.5 1.5q-8 -6 -29 1q-12 4 -14 14.5t1 19.5z" />
<glyph unicode="&#xad;" horiz-adv-x="379" d="M54 198q6 1 21 22q17 21 28 21q6 0 48 -2q3 0 11 -5t11 -2q6 5 12 6.5t14 0t10 -1.5q26 0 36 1q7 1 18.5 1.5t17.5 1t14 2t14 3.5t12 5q5 3 7 3h1q0 -2 -6 -7q-61 -55 -157 -55q-37 0 -44 6q-2 5 -12.5 1.5t-14.5 -3.5q-30 2 -41 2z" />
<glyph unicode="&#xae;" horiz-adv-x="605" d="M24 266q0 116 89 205t207 89q46 0 84 -13q15 -5 16 -7q4 -7 14.5 -8.5t11.5 -2.5q98 -52 129 -163q3 -10 1 -14q-1 -2 2 -5.5t3 -5.5q2 -14 4 -40q-4 -114 -91.5 -200.5t-203.5 -86.5q-20 0 -40 3q-11 0 -13 2q-2 6 -8 5l-6 -2q-46 12 -86 38q-2 1 -6.5 3t-7 4t-3.5 5 q-2 6 -10.5 11t-9.5 6l-2 5q-3 5 -10 7q-3 1 -5 3.5t-4 6t-3 5.5q-17 22 -29 47v7.5t-8 10.5q-2 1 -5 15q-10 31 -10 70zM64 305q0 -24 5 -52q0 -1 2.5 -6t2 -7l-2.5 -10q-3 -7 3.5 -12.5t6.5 -6.5q16 -45 49 -83q1 -2 3.5 -3.5t4 -3t3.5 -5t4 -9.5q1 -4 8.5 -6.5t8.5 -3.5 q70 -56 165 -56q92 0 153 64q2 2 4.5 3t4.5 3.5t4 8.5q1 3 5.5 8t5.5 7t3.5 4.5l4 4t3 5t2.5 8.5t5 12.5t5 10.5q15 43 17 93q0 1 3.5 7t-1.5 8q-4 4 -4 12q-8 57 -32 98q-1 2 -1 5t-1.5 5.5t-6.5 4.5q-3 1 -5 4t-4 7l-3 6l-18 22q-2 2 -1 3.5t-0.5 3t-6.5 2.5 q-2 1 -4.5 3.5l-3.5 3.5q-17 15 -36 27q-1 1 -6.5 2.5t-6.5 4.5q-3 5 -6 7t-5.5 1t-5.5 0l-12 5q-1 0 -8.5 2t-10.5 4q-4 4 -8.5 5t-9.5 0.5t-8 0.5q-27 5 -51 5q-51 0 -92 -19q-3 -2 -10.5 -3.5t-12.5 -4.5t-7 -9q-2 -5 -10 -9.5t-10 -6.5l-15 -15q-5 -2 -7 -5t-3.5 -6.5 t-3.5 -5.5q-46 -62 -46 -143zM201 374q11 8 26 18.5t45 24.5t51 14q31 0 54 -9q1 0 5 -5.5t9 -2.5q3 1 6 -4t5.5 -12t2.5 -11q0 -19 -12 -34q-1 -1 -4 -5t-5 -5q-6 -1 -8 -5.5t-3 -4.5q-16 -12 -51 -26q2 -2 7 -3.5t9.5 -5t8.5 -10.5q6 -11 5 -17q-2 -9 3.5 -12.5t5.5 -4.5 q2 -5 5 -14.5t5 -16t5.5 -15t7 -13t8 -7.5t10.5 -2t13 7q4 4 5 0q1 -2 -2 -5q-31 -31 -53 -31q-21 0 -35 37q-1 3 0 5.5t-0.5 6t-5.5 7.5q-2 2 -3 5t-1.5 7t-1.5 6v8t-5 8q-2 1 -3 3t-1 3.5t-0.5 4t-1.5 3.5q-15 30 -41 30h-3q-7 0 -12 -1q1 5 13.5 16.5t21.5 11.5l24 2 q21 2 39 11t18 23q0 15 -13 28q-6 6 -6 9q-1 7 -7 4q-3 -2 -4 -1q-19 9 -39 9q-14 0 -40 -6q-12 -132 -12 -147q0 -17 -3 -22q-2 -3 2 -6.5t4 -5.5l3 -13q5 -12 9 -13q-3 -1 -16 -15t-20 -14q-20 0 -20 62q0 14 2 44q0 1 1.5 6.5t-0.5 9.5q-1 2 2 24q0 2 2.5 6t3 6.5 t-1.5 6.5q-2 2 1 21q3 21 3 31v1l-15 -10q-9 0 -2 5z" />
<glyph unicode="&#xaf;" horiz-adv-x="279" d="M35 532q0 6 22 22t30 16h22q3 0 9 -3t9.5 -4t10.5 4q4 3 30 3q69 0 69 -1q0 -3 -21 -20q-19 -17 -30 -17q-16 -4 -28 0q-6 3 -12.5 3t-9.5 -1l-3 -2h-98z" />
<glyph unicode="&#xb0;" horiz-adv-x="269" d="M34 453q0 42 34 76q50 50 94 50q39 0 62 -46q7 -11 4 -22q-1 -5 0.5 -6.5t4 -1.5t2.5 -2q2 -12 2 -19q0 -40 -39.5 -82t-83.5 -42q-33 0 -35 11q-2 10 -9 12.5t-8 3.5q-1 2 -1 5t-2 6t-8 5q-3 1 -8 14q-9 21 -9 38zM73 478q0 -37 26 -69q1 -1 0.5 -9.5t6.5 -5.5 q6 0 9 -0.5t6 -3.5t4 -3q30 -15 50 7t23 56q3 26 -10 54v4t0.5 4t-0.5 4t-4 3q-4 1 -14 12q-21 22 -45 21q-52 -3 -52 -74z" />
<glyph unicode="&#xb1;" horiz-adv-x="406" d="M36 15q6 1 24 19.5t28 18.5q18 0 55 -1.5t55 -1.5q2 0 8.5 -4t9.5 -4t10 4t11 4q70 0 100 15q1 0 2 0.5t2 0.5l-11 -11q-12 -11 -24 -18q-1 -1 -8 -2.5t-8 -5.5q-2 -4 -7 -6.5t-14 -4.5l-9 -1q-18 -6 -44 -6q-5 0 -17.5 0.5t-19.5 0.5t-16 2.5t-17 2.5q-2 0 -12 -4.5 t-15 -2.5t-17 2zM50 221q6 1 24 19.5t28 18.5t21.5 -0.5t25.5 -1.5t22 -1l2 24q0 3 3.5 7.5t1.5 7.5q-3 4 -3 13l2 31q1 10 26.5 21t28.5 16l-3 -46q0 -3 -3 -8t-3 -7.5t4 -8.5q2 -3 1.5 -4.5t-1.5 -5t-1 -5.5l-3 -35h28q70 0 100 15q1 0 2 0.5t2 0.5l-11 -11 q-12 -11 -24 -18q-14 -8 -16 -8q-9 1 -15 -3.5t-8 -4.5q-23 -7 -60 -9q-4 -56 -5 -83q0 -9 -26.5 -21.5t-27.5 -16.5q4 83 7 121h-21q-8 0 -13 2q-3 1 -10.5 -0.5t-8.5 -1.5q-10 0 -21 0.5t-24.5 1.5t-20.5 1z" />
<glyph unicode="&#xb2;" horiz-adv-x="364" d="M4 200q31 26 38 30q124 76 178 157q28 40 28 79q0 26 -16 45l-3 3t-3 3.5t-2.5 3t-3 2.5t-3.5 2.5t-4 1.5h-4.5t-4.5 -1q-14 -5 -37 2q-6 2 -9.5 1t-5 -2.5t-3 -3.5t-3.5 -3q-30 -9 -57 -25t-34 -26q-8 -13 -15 -8q-5 3 1 9q29 28 50 46t54.5 37t62.5 23q46 6 73 -20.5 t27 -67.5q0 -20 -8 -41q-11 -30 -28.5 -58t-36.5 -36q-8 -3 -12 -7t-7.5 -9t-6.5 -8q-1 -1 -22 -11t-22 -15q-1 -3 -1 -7q0 -3 -5 -6q-3 -2 -4 -3q-39 -28 -68 -46q17 1 48.5 0t41.5 -1q90 0 135 37q8 7 3 -5q-1 -3 -3 -7q-27 -54 -96 -63q-2 0 -16.5 3.5t-18.5 -5.5 q-2 5 -7 5.5t-12 -2t-10 -2.5q-11 0 -43 2t-49 2q-35 0 -56 -5z" />
<glyph unicode="&#xb3;" horiz-adv-x="365" d="M4 16q69 -2 158 56t104 131q3 14 5 42q0 1 5.5 8t5.5 8q0 3 -6 6.5t-6 6.5q-7 45 -40 59q-30 13 -65 13q-13 0 -24 -3q-7 -4 -11.5 -6.5t-11 -6t-10 -4.5t-3.5 0q-1 2 10.5 10.5t14.5 10.5l1 1h1l5 4l4 2q27 21 53 48.5t56.5 64t47.5 54.5q-8 -1 -31 -1q-15 0 -50 1 t-52 1q-56 0 -68 -9q-4 -3 -4 -1q1 10 28 36q21 21 35 23q21 3 55 3q3 0 8.5 -2.5t10.5 -2.5t11 5q4 0 19.5 -6t21.5 1q8 4 17 4.5t21.5 -0.5t16.5 -1h36q-20 -21 -58.5 -65t-58.5 -65q-1 -1 -8.5 -3t-6.5 -10l-8 -10q-25 -25 -48 -44q24 8 46 8q50 0 78.5 -33.5t28.5 -79.5 q0 -41 -22 -79q-44 -75 -131.5 -130.5t-178.5 -53.5q-15 0 -15 5q1 4 13 4z" />
<glyph unicode="&#xb4;" horiz-adv-x="231" d="M39 490q30 12 66 45q2 2 4.5 2h4.5t3.5 1.5t1.5 5.5q0 2 11 13q1 1 2 2.5t2.5 2.5t2.5 2q3 0 9.5 -4t13.5 -9.5l14 -11t11 -9.5l4 -4q-28 -25 -29 -26q-2 -2 -5.5 -0.5t-6.5 1t-3 -5.5q0 -10 -21 -17q-5 -2 -9 -5.5t-5 -4.5l-25 -11q-4 0 -15.5 8.5t-21.5 16.5z" />
<glyph unicode="&#xb5;" horiz-adv-x="329" d="M39 -163q0 35 6 45q3 4 0 12.5t-3 12.5q0 3 0.5 8t0.5 8t1.5 7t3.5 6q3 3 3.5 5.5t0.5 4t-3 5t-4 4.5q-2 5 -2 7.5t2 7.5t2 8q2 29 4 85q-2 16 5 29q2 3 4 27q0 2 7 14.5t3 20.5q-3 7 -1 29q5 45 5 79q0 88 -34 88l20 19t31 19q29 0 35 -53q0 -2 -2 -6.5t-2 -8t5 -6.5 q2 -1 2.5 -4t-0.5 -6t-2 -6.5t-1 -5.5q-2 -38 -6 -67q0 -3 -3 -7t-4.5 -7.5t-0.5 -5.5q5 -7 2 -22q-1 -5 -4 -22.5t-4.5 -31.5t-1.5 -27q0 -25 8 -40q14 -27 32 -27q21 0 43 37q1 1 6.5 2t7.5 9q1 3 1 10t2 10q20 41 30 79q11 57 15 86q0 3 3 7.5t3 7t-4 7.5q-3 3 -2.5 5.5 t2 7.5t1.5 7q0 32 -12 39q6 10 25.5 27t28.5 11q8 -4 11 -21q4 -19 0 -52t-10.5 -66t-7.5 -39q-7 -60 -8 -75q0 -1 -1.5 -3t-3 -3.5t-0.5 -4t5 -5.5q3 0 2 -9t-1 -10l3 -19q0 -2 -2 -6t-1.5 -6.5t7.5 -4.5q9 -18 34 -22l-18 -17q-22 -20 -36 -20q-43 4 -43 80v1 q-25 -33 -56 -54q-39 -28 -72 -31q-5 -46 -15.5 -121.5t-13.5 -103.5q-1 -13 -13 7q-15 25 -15 55z" />
<glyph unicode="&#xb6;" horiz-adv-x="426" d="M31 422q17 66 107 121q52 31 114 31q28 0 55 -6q3 -1 6 -4.5t6 -4.5t12 2q16 -3 27 -10t15 -8q7 -2 11 -4.5t7.5 -6t5.5 -4.5q-2 -1 -15 -13.5t-26 -22t-17 -6.5l-25 15v-7t-0.5 -8t-0.5 -7q-1 -32 -2 -69t-2 -81.5t-2 -69.5q0 -3 -3 -15t1 -13q5 -7 5 -14.5t-2.5 -17 t-2.5 -14.5q0 -31 -2 -89.5t-2 -76.5q0 -2 -2 -19.5t1 -20.5q2 -12 2 -17.5t-2 -17.5t-2 -18q0 -5 1 -15.5t0.5 -19t-2.5 -15.5q-5 -7 -3.5 -30t1.5 -25q0 -34 1 -39q1 -7 -29 -7q-29 0 -29 7q0 34 1 51q0 4 3.5 12t4 12.5t-4.5 14.5q-4 4 -4 10t2 14.5t2 12.5l5 162 q0 3 1.5 21.5t-0.5 21.5q-2 15 -2 21.5t2 22t2 22.5q0 2 3 17.5t-2 26.5q-2 13 -2 17t1.5 17t1.5 17l4 126q0 4 2.5 13t2.5 13t-4 14q-2 4 -2.5 9t0.5 9t2 10t1 10q1 16 1 47h-6q-5 -1 -8.5 6.5t-7.5 8.5q-3 1 -15.5 -2.5t-15.5 -3.5q-29 3 -59 -5q-17 -5 -30 -17.5 t-20 -28.5t-7 -33q0 -31 22 -52q3 -3 7 -9t9 -9.5t15 -4.5q4 0 11.5 -6t12.5 -6q14 0 36 -8.5t32 -9.5q-6 -2 -16 -14t-20.5 -21t-18.5 -7q-34 4 -68 15.5t-62 39t-19 63.5z" />
<glyph unicode="&#xb7;" horiz-adv-x="182" d="M45 222q0 4 23.5 21t29.5 17q2 0 7 -7q1 -1 0 -5.5t1 -4.5q10 -4 10 -9t2 -9.5t6 -6.5l3 -3q0 -4 -24 -21t-30 -17q-1 0 -6 8q-1 1 0 6t0 7t-5.5 3t-5.5 2q-10 18 -11 19z" />
<glyph unicode="&#xb8;" horiz-adv-x="236" d="M60 -200q4 3 31 23t43.5 38t16.5 34q0 29 -44 32q-18 0 -26 -8q-2 -2 -4.5 -2t-3 1.5t0.5 4.5q21 29 70 33q19 2 33 -5.5t14 -23.5q0 -29 -35 -64q-1 -1 -3 -5t-4.5 -6t-7.5 -3q-6 -1 -7.5 -3t-2 -4.5t-2.5 -3.5q-9 -7 -67 -46q-6 -3 -6 0.5t4 7.5z" />
<glyph unicode="&#xb9;" horiz-adv-x="271" d="M44 503l6 7q18 15 39 27l56 33q8 7 15 8q7 4 8 3q0 -1 -2 -3q12 -6 10 -53q0 -4 -4 -11t-5 -11.5t4 -12.5q4 -4 4 -10t-2 -16t-2 -13q-16 -154 -12 -193q3 -29 11 -32q-4 -2 -23 -21t-29 -17q-12 4 -14 42q0 3 2 6.5t2 8.5t-4 13q-2 5 3.5 18t1.5 19q-5 7 -5.5 13.5t2 15 t2.5 12.5q13 161 13 169q0 33 -8 36q-8 -5 -28.5 -16.5t-31.5 -18.5z" />
<glyph unicode="&#xba;" horiz-adv-x="208" d="M35 263q5 82 67 119q16 9 31 4.5t15 -20.5q0 -5 2 -5.5t4 0.5t3 -1q13 -31 13 -75q-7 -84 -68 -118q-36 -20 -54 20q-1 1 -0.5 4t-1.5 7q0 1 -2.5 4.5t-3.5 6.5q-1 1 2.5 6.5t-2.5 6.5q-10 3 -5 41zM62 296q0 -4 1.5 -7t1.5 -4q-2 -54 13 -81q1 -2 1 -5v-3q1 -1 4 -2 t4 -2q6 -6 10 -8q6 -5 14.5 2t14.5 19q10 27 13 58v1q2 13 0 33q0 1 2 3q1 2 1 4t-5 5t-2.5 13.5t-3.5 10.5q-3 1 -6 12q-9 13 -18 16q-11 0 -16.5 1.5t-11 -13t-7 -20t-3.5 -19.5q-1 -2 -1 -3t-3.5 -4.5t-2.5 -6.5z" />
<glyph unicode="&#xbb;" horiz-adv-x="286" d="M48 -4q3 4 7 16.5t9 18.5q4 5 6 9t2.5 6t1.5 5l2 6l7.5 10t6.5 17q0 4 0.5 6.5t3 6t3.5 5.5q14 32 23 50q0 1 5.5 12t5.5 13v1q-2 3 -4.5 9t-3.5 8q0 1 -1.5 7.5t-6.5 9.5q-2 1 -3.5 3.5t-2 6.5t-1.5 5q-1 2 0.5 6t1.5 6.5t-4 3.5q-6 2 -14 20l-19 43q-7 14 -5 20t-4 9.5 t-7 5.5l-9 20q0 3 9 9.5t17.5 11.5t9.5 4l8 -19q1 -2 2.5 -3.5l2.5 -2.5t2 -4t1 -8q0 -7 11 -22t9 -23q-1 -6 0 -9t2.5 -4t3.5 -2.5t3 -3.5q4 -11 14 -31t14 -30q10 -15 10 -21v-2q-6 -11 -10 -21q-1 -1 -3 -8t-5 -9q-6 -4 -7.5 -8t-1.5 -8t-1 -7l-7 -17q-5 -10 -12 -17 q-8 -8 -7.5 -14.5t-0.5 -10.5q-1 -2 -4.5 -9.5t-5.5 -12.5q-1 -2 -5.5 -6t-5.5 -6t-0.5 -6t-0.5 -7l-7 -16q-2 -6 -18 -13.5t-17 -8.5zM160 -3l10 22q1 1 3 2t3 3.5t1 7.5q0 2 1 4.5t2.5 5.5l2.5 5q24 52 27 59q1 2 3.5 5t4 7t2.5 11q0 4 2 7.5t5 8t4 7.5q11 22 11 25v1 q-1 4 -5 12q-1 2 -1 5.5t-1.5 6.5t-5.5 7q-2 2 -4 7t-3 7l-14 30q0 2 -0.5 4.5l-1 5t-0.5 3.5q-1 2 -4 4.5t-4 4.5l-12 27q-1 2 -0.5 8t-4.5 9q-3 2 -12 21q-2 3 -3.5 6.5t-3 8t-2.5 6.5q0 2 9 8.5t17.5 12t8.5 4.5l10 -20q1 -3 4.5 -9t3.5 -10q0 -6 2 -9.5t4.5 -6.5t3.5 -5 q2 -4 4 -9t4.5 -10.5t4.5 -8.5q8 -21 7 -28q-1 -8 4.5 -10t6.5 -4q12 -26 14 -32q10 -15 10 -21v-2l-16 -35q0 -1 -2.5 -8.5t-6.5 -10.5t-5 -6t-1 -5.5t-1 -3.5q-11 -28 -15 -34q-1 -3 -6 -6.5t-4 -9.5q0 -3 -1 -7.5t-3.5 -10t-3.5 -7.5l-18 -39q-3 -7 -16 -12 q-3 -2 -7.5 -3.5t-7.5 -3t-4 -2.5z" />
<glyph unicode="&#xbc;" horiz-adv-x="697" d="M13 486l6 7q18 15 39 27l56 33q8 7 15 8q7 4 8 3q0 -1 -2 -3q12 -6 10 -53q0 -4 -4 -11t-5 -11.5t4 -12.5q4 -4 4 -10t-2 -16t-2 -13q-16 -154 -12 -193q3 -29 11 -32q-4 -2 -23 -21t-29 -17q-12 4 -14 42q0 3 2 6.5t2 8.5t-4 13q-2 5 3.5 18t1.5 19q-5 7 -5.5 13.5t2 15 t2.5 12.5q13 161 13 169q0 33 -8 36q-8 -5 -28.5 -16.5t-31.5 -18.5zM189 -17q-8 -5 -3 6q2 5 10 20l7 15l144 363q1 1 6 11t7 22q0 2 6.5 9t3.5 17q-1 3 0.5 7t4.5 8.5t4 6.5l32 81q3 9 26 20q3 1 7.5 3.5t7.5 4t5.5 2.5t4.5 1t3 -2q2 -4 -1 -10.5t-9 -15t-8 -14.5 q-27 -68 -77.5 -193t-70.5 -176q-1 -2 -4.5 -3t-4.5 -7q-2 -16 -3 -19q-12 -30 -25 -65q-1 -2 -4.5 -6t-4 -6t0.5 -7q0 -4 -2.5 -10.5t-6.5 -15.5t-6 -13q-4 -9 -23 -18q-12 -6 -27 -16zM352 0q44 64 95 155l21 37q1 2 9 5t9 16q1 14 18 43q27 47 57 89v1l1 1q3 5 27.5 19 t25.5 16v-1q-3 -44 -8 -198q0 -4 -2.5 -11t-2.5 -11t4 -13q0 -4 -3 -11.5t-3.5 -11t4.5 -10.5q3 -6 3 -9.5t-2.5 -12t-2.5 -11.5q-1 -14 -5 -42q48 6 68 20q5 3 4 0q-2 -6 -11 -14q-39 -33 -65 -40q-15 -98 -40 -148q-16 -31 -45 -57t-57 -33q-15 -4 -17 0q0 3 5 5 q42 16 65 59q6 10 8 16q1 3 3.5 4.5t3.5 6t1 15.5q-1 7 3.5 20t5.5 17q8 42 15 90h-10q-90 -3 -181 -3q-2 0 -1 2zM401 38q9 0 39.5 -1t46.5 0h60q5 37 7 80t2.5 97.5t1.5 82.5q-49 -76 -157 -259z" />
<glyph unicode="&#xbd;" horiz-adv-x="696" d="M18 485l6 7q18 15 39 27l56 33q8 7 15 8q7 4 8 3q0 -1 -2 -3q12 -6 10 -53q0 -4 -4 -11t-5 -11.5t4 -12.5q4 -4 4 -10t-2 -16t-2 -13q-16 -154 -12 -193q3 -29 11 -32q-4 -2 -23 -21t-29 -17q-12 4 -14 42q0 3 2 6.5t2 8.5t-4 13q-2 5 3.5 18t1.5 19q-5 7 -5.5 13.5t2 15 t2.5 12.5q13 161 13 169q0 33 -8 36q-8 -5 -28.5 -16.5t-31.5 -18.5zM164 -17q-8 -5 -3 6q2 5 10 20l7 15l144 363q1 1 6 11t7 22q0 2 6.5 9t3.5 17q-1 3 0.5 7t4.5 8.5t4 6.5l32 81q3 9 26 20q3 1 7.5 3.5t7.5 4t5.5 2.5t4.5 1t3 -2q2 -4 -1 -10.5t-9 -15t-8 -14.5 q-27 -68 -77.5 -193t-70.5 -176q-1 -2 -4.5 -3t-4.5 -7q-2 -16 -3 -19q-12 -30 -25 -65q-1 -2 -4.5 -6t-4 -6t0.5 -7q0 -4 -2.5 -10.5t-6.5 -15.5t-6 -13q-4 -9 -23 -18q-12 -6 -27 -16zM353 -1q31 26 38 30q124 76 178 157q28 40 28 79q0 26 -16 45q-1 1 -3 3.5t-3 3.5 l-3.5 3.5t-4 3.5t-4 1.5t-5 0.5t-5.5 -1q-14 -5 -37 2q-9 2 -11.5 1t-5 -4.5t-4.5 -4.5q-30 -9 -57 -25t-34 -26q-8 -13 -15 -8q-5 3 1 9q29 28 50 46t54.5 37t62.5 23q46 6 73 -20.5t27 -67.5q0 -20 -8 -41q-7 -19 -16 -37t-22.5 -34.5t-26.5 -22.5q-5 -2 -8.5 -4.5 t-5.5 -5t-3.5 -4.5t-4 -5t-4.5 -5t-13 -7t-20.5 -10t-10.5 -9q-3 -10 -3 -11l-7 -5q-39 -28 -68 -46h30t30 -0.5t30 -0.5q90 0 135 37q8 7 3 -5q-1 -3 -3 -7q-14 -27 -38 -42.5t-58 -20.5q-2 0 -16.5 3.5t-18.5 -5.5q-2 5 -7 5.5t-12 -2t-10 -2.5q-11 0 -43 2t-49 2 q-35 0 -56 -5z" />
<glyph unicode="&#xbe;" horiz-adv-x="847" d="M31 16q69 -2 158 56t104 131q3 14 5 42q0 1 5.5 8t5.5 8q0 3 -6 6.5t-6 6.5q-7 45 -40 59q-30 13 -65 13q-14 0 -24 -3q-7 -4 -11.5 -6.5t-11 -6t-10 -4.5t-3.5 0q-1 2 10.5 10.5t14.5 10.5q1 0 1 0.5t1 0.5l5 4l4 2q27 21 53 48.5t56.5 64t47.5 54.5q-8 -1 -31 -1 q-15 0 -50 1t-52 1q-56 0 -68 -9q-4 -3 -4 -1q1 10 28 36q21 21 35 23q21 3 55 3q3 0 8.5 -2.5t10.5 -2.5t11 5q4 0 19.5 -6t21.5 1q8 4 17 4.5t21.5 -0.5t16.5 -1h36q-20 -21 -58.5 -65t-58.5 -65q-1 -1 -8.5 -3t-6.5 -10l-8 -10q-25 -25 -48 -44q24 8 46 8 q50 0 78.5 -33.5t28.5 -79.5q0 -41 -22 -79q-44 -75 -131.5 -130.5t-178.5 -53.5q-15 0 -15 5q1 4 13 4zM339 -17q-8 -5 -3 6q2 5 10 20l7 15l144 363q1 1 6 11t7 22q0 2 6.5 9t3.5 17q-1 3 0.5 7t4.5 8.5t4 6.5l32 81q3 9 26 20q3 1 7.5 3.5t7.5 4t5.5 2.5t4.5 1t3 -2 q2 -4 -1 -10.5t-9 -15t-8 -14.5q-27 -68 -77.5 -193t-70.5 -176q-1 -2 -4.5 -3t-4.5 -7q-2 -16 -3 -19q-12 -30 -25 -65q-1 -2 -4.5 -6t-4 -6t0.5 -7q0 -4 -2.5 -10.5t-6.5 -15.5t-6 -13q-4 -9 -23 -18q-12 -6 -27 -16zM502 0q44 64 95 155l21 37q1 2 9 5t9 16q1 14 18 43 q27 47 57 89v1l1 1q3 5 27.5 19t25.5 16v-1q-3 -44 -8 -198q0 -4 -2.5 -11t-2.5 -11t4 -13q0 -4 -3 -11.5t-3.5 -11t4.5 -10.5q3 -6 3 -9.5t-2.5 -12t-2.5 -11.5q-1 -14 -5 -42q48 6 68 20q5 3 4 0q-2 -6 -11 -14q-39 -33 -65 -40q-15 -98 -40 -148q-16 -31 -45 -57t-57 -33 q-15 -4 -17 0q0 3 5 5q42 16 65 59q6 10 8 16q1 3 3.5 4.5t3.5 6t1 15.5q-1 7 3.5 20t5.5 17q8 42 15 90h-10q-90 -3 -181 -3q-2 0 -1 2zM551 38q9 0 39.5 -1t46.5 0h60q5 37 7 80t2.5 97.5t1.5 82.5q-49 -76 -157 -259z" />
<glyph unicode="&#xbf;" horiz-adv-x="325" d="M24 -106q1 39 23 83t47.5 78t47.5 81t23 91v12q1 9 25 19q5 3 12.5 6l12.5 5t6 4q0 -1 -0.5 -4t-0.5 -5q0 -29 -12 -63q-1 -3 -4.5 -8.5t-5.5 -11.5t-2 -14q1 -4 -3 -7t-5 -6q-18 -32 -41 -68q-22 -34 -33.5 -54t-22.5 -50t-12 -56q-1 -38 29.5 -62.5t68.5 -25.5 q39 -2 71 23q5 4 24 15.5t22 11.5h1l-5 -5q-101 -82 -174 -81q-26 1 -49 12l-1 4q-1 5 -10 3q-9 8 -17 17q-8 7 -8 19.5t-6 16.5q-3 3 -3.5 6t1 7.5t1.5 6.5zM158 348q0 1 3.5 4.5l3.5 3.5l4 3.5t7.5 6t8.5 6.5t9.5 6.5t9.5 4.5t9 2l2 -5t5 -12t4 -10q0 1 -3 -2.5t-8 -9.5 t-11 -11.5t-15 -9.5t-18 -4l-2.5 5.5t-5 12.5t-3.5 9z" />
<glyph unicode="&#xc0;" d="M21 -45q-1 56 14.5 110t44.5 122q10 24 16 36l-1 1q1 0 1 1q37 84 114 227q1 2 3.5 4t4 4.5t0.5 6.5q5 4 7 8t3 8t2 7l34 62l5 11q0 6 6 9q2 2 14.5 9t23 13.5t10.5 8.5l9 -62q0 -2 3 -11.5t1 -14.5q-4 -11 -3 -14.5t4.5 -8.5t4.5 -9q-1 -11 3 -22t4 -13q16 -82 28 -133 q4 -20 7 -30q6 3 11 8l-10 -11q10 -36 16 -54q1 -3 1 -13q0 -7 7 -13q8 -7 10 -22q0 -5 2 -13q15 -41 29 -68q18 -36 38 -56q7 -7 18 -9.5t27 6.5q5 4 6 1q1 -2 -2 -6q-28 -39 -64 -39q-21 0 -40 16q-23 19 -20 38q1 9 -4 13.5t-12.5 7t-8.5 5.5q-2 5 -1 9t-1 9t-10 9 q-4 2 -6 7t-3.5 12.5t-2.5 10.5q-18 48 -34 105q-53 -28 -125 -28q-42 0 -87 8q-21 -58 -28 -80l-6 -21q-7 -4 -8.5 -8.5t0.5 -10.5t1 -9q-4 -18 -8 -52q0 -3 -3 -9.5t-3 -9.5t4 -10q2 -2 2 -5.5t-1 -8.5t-1 -7q1 -44 27 -79.5t70 -27.5q-3 -1 -18.5 -16t-24.5 -16 q-44 -8 -71 26.5t-29 80.5zM133 259q11 6 19 5q94 -24 171 -9q2 0 3 1q-34 130 -54 277q-100 -180 -139 -274zM198 705l3.5 2.5t10 7t11.5 8.5q3 2 8 6.5t7.5 7t6.5 4t6 -1.5q22 -22 46 -40q10 -7 14 -16q2 -5 5.5 -7t7.5 -2.5t6 -1.5t6.5 -4.5t7.5 -4.5l-4 -4t-9 -8.5 t-6 -4.5q-1 -1 -3 -2.5t-3.5 -3t-4.5 -3t-6.5 -3t-7.5 -1.5q-17 1 -38 15q-1 1 -4 2.5t-4.5 2.5t-4 3t-4 3.5t-2.5 4t-1 5.5q-1 9 -5.5 10.5t-9 -0.5t-7.5 1q-1 1 -5 4.5t-6.5 5.5t-5.5 5t-4 5.5t-1 4.5z" />
<glyph unicode="&#xc1;" d="M21 -45q-1 56 14.5 110t44.5 122q10 24 16 36l-1 1q1 0 1 1q37 84 114 227q1 2 3.5 4t4 4.5t0.5 6.5q5 4 7 8t3 8t2 7l34 62l5 11q0 6 6 9q2 2 14.5 9t23 13.5t10.5 8.5l9 -62q0 -2 3 -11.5t1 -14.5q-4 -11 -3 -14.5t4.5 -8.5t4.5 -9q-1 -11 3 -22t4 -13q16 -82 28 -133 q4 -20 7 -30q6 3 11 8l-10 -11q10 -36 16 -54q1 -3 1 -13q0 -7 7 -13q8 -7 10 -22q0 -5 2 -13q15 -41 29 -68q18 -36 38 -56q7 -7 18 -9.5t27 6.5q5 4 6 1q1 -2 -2 -6q-28 -39 -64 -39q-21 0 -40 16q-23 19 -20 38q1 9 -4 13.5t-12.5 7t-8.5 5.5q-2 5 -1 9t-1 9t-10 9 q-4 2 -6 7t-3.5 12.5t-2.5 10.5q-18 48 -34 105q-53 -28 -125 -28q-42 0 -87 8q-21 -58 -28 -80l-6 -21q-7 -4 -8.5 -8.5t0.5 -10.5t1 -9q-4 -18 -8 -52q0 -3 -3 -9.5t-3 -9.5t4 -10q2 -2 2 -5.5t-1 -8.5t-1 -7q1 -44 27 -79.5t70 -27.5q-3 -1 -18.5 -16t-24.5 -16 q-44 -8 -71 26.5t-29 80.5zM133 259q11 6 19 5q94 -24 171 -9q2 0 3 1q-34 130 -54 277q-100 -180 -139 -274zM228 656q30 12 66 45q2 2 8 2t6 7q0 2 11 13l7 7q5 0 18 -9.5t24 -18.5t10 -10q-28 -25 -29 -26q-2 -2 -5.5 -0.5t-6.5 1t-3 -5.5q0 -10 -21 -17q-5 -2 -9 -5.5 t-5 -4.5l-25 -11q-4 0 -15.5 8.5t-21.5 16.5z" />
<glyph unicode="&#xc2;" d="M21 -45q-1 56 14.5 110t44.5 122q10 24 16 36l-1 1q1 0 1 1q37 84 114 227q1 2 3.5 4t4 4.5t0.5 6.5q5 4 7 8t3 8t2 7l34 62l5 11q0 7 7 10q2 2 14 8.5t22.5 13t10.5 8.5l9 -62q0 -2 3 -11.5t1 -14.5q-4 -11 -3 -14.5t4.5 -8.5t4.5 -9q-1 -11 3 -22t4 -13q16 -82 28 -133 q4 -20 7 -30q6 3 11 8l-10 -11q10 -36 16 -54q1 -3 1 -13q0 -7 7 -13q8 -7 10 -22q0 -5 2 -13q15 -41 29 -68q18 -36 38 -56q7 -7 18 -9.5t27 6.5q5 4 6 1q1 -2 -2 -6q-28 -39 -64 -39q-21 0 -40 16q-23 19 -20 38q1 9 -4 13.5t-12.5 7t-8.5 5.5q-2 5 -1 9t-1 9t-10 9 q-4 2 -6 7t-3.5 12.5t-2.5 10.5q-18 48 -34 105q-53 -28 -125 -28q-42 0 -87 8q-21 -58 -28 -80l-6 -21q-7 -4 -8.5 -8.5t0.5 -10.5t1 -9q-4 -18 -8 -52q0 -3 -3 -9.5t-3 -9.5t4 -10q2 -2 2 -5.5t-1 -8.5t-1 -7q1 -44 27 -79.5t70 -27.5q-3 -1 -18.5 -16t-24.5 -16 q-44 -8 -71 26.5t-29 80.5zM133 259q11 6 19 5q94 -24 171 -9q2 0 3 1q-34 130 -54 277q-100 -180 -139 -274zM220 652q12 15 20 26q1 1 4 2.5t4.5 3.5t1.5 7q0 3 2 5.5t6 5.5t5 5q2 2 6 6.5t7 8t6 7.5t23 4t24 -4l25 -32l1 -3t5 -5q2 -1 9 -10q1 -1 3 -6t7 -7 q2 -1 3.5 -2.5t3 -4.5t2.5 -4q-18 -4 -26 1q-10 6 -49 60l-8 -11l-2.5 0.5t-5 -2t-2.5 -6.5q0 -2 -1.5 -5t-3.5 -5l-1 -2l-22 -28q-6 -9 -13 -9q-3 0 -6.5 0.5t-4.5 0.5q-2 0 -13 1t-10 2z" />
<glyph unicode="&#xc3;" d="M21 -45q-1 56 14.5 110t44.5 122q10 24 16 36l-1 1q1 0 1 1q37 84 114 227q1 2 3.5 4t4 4.5t0.5 6.5q5 4 7 8t3 8t2 7l34 62l5 11q0 7 7 10q2 2 14 8.5t22.5 13t10.5 8.5l9 -62q0 -2 3 -11.5t1 -14.5q-4 -11 -3 -14.5t4.5 -8.5t4.5 -9q-1 -11 3 -22t4 -13q16 -82 28 -133 q4 -20 7 -30q6 3 11 8l-10 -11q10 -36 16 -54q1 -3 1 -13q0 -7 7 -13q8 -7 10 -22q0 -5 2 -13q15 -41 29 -68q18 -36 38 -56q7 -7 18 -9.5t27 6.5q5 4 6 1q1 -2 -2 -6q-28 -39 -64 -39q-21 0 -40 16q-23 19 -20 38q1 9 -4 13.5t-12.5 7t-8.5 5.5q-2 5 -1 9t-1 9t-10 9 q-4 2 -6 7t-3.5 12.5t-2.5 10.5q-18 48 -34 105q-53 -28 -125 -28q-42 0 -87 8q-21 -58 -28 -80l-6 -21q-7 -4 -8.5 -8.5t0.5 -10.5t1 -9q-4 -18 -8 -52q0 -3 -3 -9.5t-3 -9.5t4 -10q2 -2 2 -5.5t-1 -8.5t-1 -7q1 -44 27 -79.5t70 -27.5q-3 -1 -18.5 -16t-24.5 -16 q-44 -8 -71 26.5t-29 80.5zM133 259q11 6 19 5q94 -24 171 -9q2 0 3 1q-34 130 -54 277q-100 -180 -139 -274zM198 661q14 19 39 35.5t46 16.5q7 0 43 -9q14 -5 16 -7t4 -2.5t4 0t4.5 1.5t3.5 1q24 -2 37 13q5 5 6.5 2.5t-1.5 -7.5q-8 -13 -36 -29.5t-43 -16.5t-35 5 q-10 2 -14 8q-1 3 -7.5 1.5t-7.5 -1.5q-12 3 -22 3q-17 0 -29 -15q-5 -6 -9 -4q-2 1 1 5z" />
<glyph unicode="&#xc4;" d="M21 -45q-1 56 14.5 110t44.5 122q10 24 16 36l-1 1q1 0 1 1q37 84 114 227q1 2 3.5 4t4 4.5t0.5 6.5q5 4 7 8t3 8t2 7l34 62l5 11q0 7 7 10q2 2 14 8.5t22.5 13t10.5 8.5l9 -62q0 -2 3 -11.5t1 -14.5q-4 -11 -3 -14.5t4.5 -8.5t4.5 -9q-1 -11 3 -22t4 -13q16 -82 28 -133 q4 -20 7 -30q6 3 11 8l-10 -11q10 -36 16 -54q1 -3 1 -13q0 -7 7 -13q8 -7 10 -22q0 -5 2 -13q15 -41 29 -68q18 -36 38 -56q7 -7 18 -9.5t27 6.5q5 4 6 1q1 -2 -2 -6q-28 -39 -64 -39q-21 0 -40 16q-23 19 -20 38q1 9 -4 13.5t-12.5 7t-8.5 5.5q-2 5 -1 9t-1 9t-10 9 q-4 2 -6 7t-3.5 12.5t-2.5 10.5q-18 48 -34 105q-53 -28 -125 -28q-42 0 -87 8q-21 -58 -28 -80l-6 -21q-7 -4 -8.5 -8.5t0.5 -10.5t1 -9q-4 -18 -8 -52q0 -3 -3 -9.5t-3 -9.5t4 -10q2 -2 2 -5.5t-1 -8.5t-1 -7q1 -44 27 -79.5t70 -27.5q-3 -1 -18.5 -16t-24.5 -16 q-44 -8 -71 26.5t-29 80.5zM133 259q11 6 19 5q94 -24 171 -9q2 0 3 1q-34 130 -54 277q-100 -180 -139 -274zM258 682q0 1 2.5 3.5t6 5t7.5 5t7.5 4.5t4.5 2l4 -4l-0.5 -2t0.5 -3q6 -2 6 -5t1 -5t2.5 -3.5l1.5 -1.5q0 -2 -12.5 -11t-15.5 -9q-2 0 -2.5 2.5t0 5t-0.5 3.5 t-3.5 1.5t-2.5 1.5zM316 682q0 2 12.5 11t15.5 9l1 -1.5l2 -3l2 -3t2 -2.5t0 -3v-2q6 -2 6 -5q0 -4 2 -4h1q0 -2 -13 -11t-16 -9l-10 15v-1zM321 672q1 -1 1 0h-1z" />
<glyph unicode="&#xc5;" d="M21 -45q-1 56 14.5 110t44.5 122q10 24 16 36l-1 1q1 0 1 1q37 84 114 227l3 3l3 3t2 3.5t0 5.5q5 4 7 8t3 8t2 7l23 43q-11 2 -12 7q-2 10 -9 12.5t-8 3.5l-1.5 6.5t-9.5 9.5q-3 1 -8 14q-9 21 -9 38q0 42 34 76q50 50 94 50q39 0 62 -46q7 -11 4 -22q-1 -4 0 -5.5 t2 -1.5t3 -0.5t2 -2.5q2 -12 2 -19q0 -17 -9 -37t-24.5 -38.5t-34.5 -30.5q0 -4 4 -15.5t1 -16.5q-4 -11 -3 -14.5t4.5 -8.5t4.5 -9q-1 -11 3 -22t4 -13q16 -82 28 -133q4 -20 7 -30q6 3 11 8l-10 -11q10 -36 16 -54q1 -3 1 -13q0 -7 7 -13q8 -7 10 -22q0 -5 2 -13 q15 -41 29 -68q18 -36 38 -56q7 -7 18 -9.5t27 6.5q5 4 6 1q1 -2 -2 -6q-28 -39 -64 -39q-21 0 -40 16q-23 19 -20 38q1 9 -4 13.5t-12.5 7t-8.5 5.5q-2 5 -1 9t-1 9t-10 9q-4 2 -6 7t-3.5 12.5t-2.5 10.5q-18 48 -34 105q-53 -28 -125 -28q-42 0 -87 8q-21 -58 -28 -80 l-6 -21q-7 -4 -8.5 -8.5t0.5 -10.5t1 -9q-4 -18 -8 -52q0 -3 -3 -9.5t-3 -9.5t4 -10q2 -2 2 -5.5t-1 -8.5t-1 -7q1 -44 27 -79.5t70 -27.5q-3 -1 -18.5 -16t-24.5 -16q-44 -8 -71 26.5t-29 80.5zM133 259q11 6 19 5q94 -24 171 -9q2 0 3 1q-33 125 -54 273h-2 q-100 -181 -137 -270zM235 649q0 -37 26 -69q1 -1 0.5 -9.5t6.5 -5.5h1q6 9 31 23q23 13 23 15l6 -44q23 14 29 50.5t-8 65.5v4t0.5 4t-0.5 4t-4 3q-4 1 -14 12q-21 22 -45 21q-16 -1 -27.5 -9.5t-16.5 -21t-6.5 -22.5t-1.5 -21z" />
<glyph unicode="&#xc6;" horiz-adv-x="813" d="M21 -45q-1 56 14.5 110t44.5 122q10 24 16 36l-1 1q1 0 1 1q37 84 114 227q1 2 3.5 4t4 4.5t0.5 6.5q4 3 6 6.5t2.5 5.5t1.5 5.5t2 5.5l34 62l5 11q0 7 7 10q2 2 14 8.5t22.5 13t10.5 8.5l9 -62q0 -2 3 -11.5t1 -14.5q-4 -11 -3 -14.5t4.5 -8.5t4.5 -9q-1 -11 3 -22 t4 -13q16 -82 28 -133q4 -20 7 -30q6 3 11 8q-6 -8 -10 -12l15 -51q2 4 4 13q4 4 18 13.5t22 19.5q3 3 6.5 6t8 5.5t8 4.5t9 4t8.5 4q27 14 59 27q-49 14 -80 41t-21 67q17 66 107 121q52 31 114 31q28 0 55 -6q3 -1 6 -4.5t6 -4.5t12 2q16 -3 27 -10t15 -8q7 -2 11 -4.5 t7.5 -6t5.5 -4.5q-2 -1 -15 -13.5t-26 -22t-17 -6.5q-26 17 -62 32q-3 1 -6 4t-7 4t-11 0q-5 -1 -8.5 6.5t-7.5 8.5q-3 1 -15.5 -2.5t-15.5 -3.5q-29 3 -59 -5q-26 -7 -41.5 -30t-15.5 -49q0 -31 22 -52q3 -3 7 -9t9 -9.5t15 -4.5q4 0 8 -3l8 -6t8 -3q14 0 36 -8.5t32 -9.5 q-5 -2 -24.5 -23t-30.5 -19h-2q-7 -5 -12 -5q-60 -11 -110.5 -40.5t-51.5 -76.5q2 -5 4 -15q0 -13 10 -36q9 -17 22 -31q1 -18 7 -26t14 -3q8 3 10.5 2.5t7.5 -7t7 -7.5q29 -19 57 -29q3 -1 8 -2t8 -1.5t7 -3t7 -5.5q6 -6 15 -7.5t19 0t14 0.5q88 -11 142 42q13 13 17 8.5 t-18 -24.5q-45 -37 -80 -53.5t-79 -16.5q-68 0 -136 29q-2 1 -11.5 8t-20.5 8q-7 0 -12 7q-10 6 -11 10q-5 11 -16 18.5t-12 10.5q-1 2 -2.5 9.5t-5 13t-11.5 9.5q-6 3 -10 21q-8 4 -8 12q-1 5 -1 14q-11 33 -17 55q-4 11 -10 33q-55 -29 -124 -29q-40 0 -88 10 q-23 -66 -28 -81l-6 -21q-7 -4 -8.5 -8.5t0.5 -10.5t1 -9q-4 -18 -8 -52q0 -3 -3 -9.5t-3 -9.5t4 -10q2 -2 2 -5.5t-1 -8.5t-1 -7q1 -44 27 -79.5t70 -27.5q-3 -1 -18.5 -16t-24.5 -16q-44 -8 -71 26.5t-29 80.5zM133 259q11 6 19 5q94 -24 171 -9q2 0 3 1q-34 130 -54 277 q-100 -180 -139 -274z" />
<glyph unicode="&#xc7;" horiz-adv-x="500" d="M26 281q0 9 2 31q1 7 11 12t7 12q-2 4 -4 9.5t-3 7t-1 4t0.5 5t2.5 7.5q18 47 56.5 92t88.5 78q3 2 10 7.5t13 9t13 5.5q5 2 23 7t28 15q4 4 9 5.5t12.5 2.5t10.5 2q35 8 66 8q84 0 143 -55q1 0 -3 -3.5t-11 -9.5t-14 -11q-18 -15 -28 -18q-6 -32 -7 -40t-3 -10 q-1 -1 -3 3l-1 14q7 34 8 36l-24 18q-19 11 -25 24q-1 3 -5 4t-8 -0.5t-8.5 -2t-8.5 0.5q-30 8 -58 8q-92 0 -160.5 -64.5t-68.5 -166.5q0 -42 12 -82v-15q0 -6 9 -10q-4 -14 -3 -17t8 -6.5t10 -7.5q39 -72 118 -115q2 -1 7 -9t20 -8q6 0 17.5 -3.5t13.5 -3.5q21 -6 45 -6 q30 0 45.5 7t42.5 29q1 1 18.5 13.5t22.5 16.5q9 7 13.5 2t-8.5 -16q-111 -94 -200 -94q-47 0 -92 26q-4 2 -17.5 14.5t-26.5 16.5q-8 2 -14 8t-13.5 15.5t-10.5 13.5q-55 62 -71 131q-6 24 -6 53zM187 -200q4 3 31 23t43.5 38t16.5 34q0 29 -44 32q-18 0 -26 -8 q-2 -2 -4.5 -2t-3 1.5t0.5 4.5q7 10 25 20.5t45 12.5q19 2 33 -5.5t14 -23.5q0 -29 -35 -64q-1 -1 -2.5 -4t-2.5 -4.5t-4 -3t-6 -2.5q-8 -2 -9.5 -6t-2.5 -5q-12 -10 -26 -19.5t-27.5 -18l-13.5 -8.5q-5 -3 -5 0.5t3 7.5z" />
<glyph unicode="&#xc8;" horiz-adv-x="459" d="M25 81q-23 31 -22 67.5t24 68.5q2 3 5.5 4.5t6.5 2.5t6 5.5t4 13.5q5 5 12 9.5t14.5 10t13.5 13.5q5 5 10.5 9t17 9.5t12.5 5.5q27 14 59 27q-49 14 -80 41t-21 67q17 66 107 121q52 31 114 31q28 0 55 -6q3 -1 6 -4.5t6 -4.5t12 2q16 -3 27 -10t15 -8t7.5 -2.5t5.5 -3.5 t3.5 -3t3.5 -3t4 -3q-2 -1 -15 -13.5t-26 -22t-17 -6.5q-26 17 -62 32q-2 1 -4.5 3t-4.5 3.5t-6 2t-9 -0.5t-8.5 6.5t-7.5 8.5q-3 0 -15.5 -3t-15.5 -3q-29 3 -59 -5q-26 -7 -41.5 -30t-15.5 -49q0 -31 22 -52q3 -3 7 -9t9 -9.5t15 -4.5q4 0 8 -3l8 -6t8 -3q14 0 36.5 -8.5 t32.5 -9.5q-6 -2 -25.5 -23t-30.5 -19h-2q-7 -5 -12 -5q-36 -6 -70 -19t-63 -39.5t-29 -59.5q0 -38 36 -81q1 -18 7 -26t14 -3q8 3 10.5 2.5t7.5 -7t7 -7.5q29 -19 57 -29q4 -1 10.5 -2.5t10.5 -3t9 -6.5q6 -6 15 -7.5t19 0t14 0.5q88 -11 142 42q13 13 17 8.5t-18 -24.5 q-45 -37 -80 -53.5t-79 -16.5q-68 0 -136 29q-2 1 -11.5 8t-20.5 8q-6 0 -12 3.5t-9.5 6.5t-10 9.5l-8.5 8.5q-3 10 -13.5 17.5t-12.5 10.5zM232 705l3.5 2.5t10 7t11.5 8.5q3 2 8 6.5t7.5 7t6.5 4t6 -1.5q22 -22 46 -40q10 -7 14 -16q2 -5 5.5 -7t7.5 -2.5t6 -1.5t6.5 -4.5 t7.5 -4.5l-4 -4t-9 -8.5t-6 -4.5t-4 -3t-5 -4.5t-6.5 -3.5t-9.5 -2q-17 1 -38 15q-1 1 -5 3t-5.5 3t-4 3.5t-4 5.5t-1.5 6q-1 7 -3.5 9.5t-6 1.5t-7 -1t-5.5 1q-1 1 -5 4.5t-6.5 5.5t-5.5 5t-4 5.5t-1 4.5z" />
<glyph unicode="&#xc9;" horiz-adv-x="459" d="M25 81q-23 31 -22 67.5t24 68.5q2 3 5.5 4.5t6.5 2.5t6 5.5t4 13.5q5 5 12 9.5t14.5 10t13.5 13.5q5 5 10.5 9t17 9.5t12.5 5.5q27 14 59 27q-49 14 -80 41t-21 67q17 66 107 121q52 31 114 31q28 0 55 -6q3 -1 6 -4.5t6 -4.5t12 2q16 -3 27 -10t15 -8t7.5 -2.5t5.5 -3.5 t3.5 -3t3.5 -3t4 -3q-2 -1 -15 -13.5t-26 -22t-17 -6.5q-26 17 -62 32q-2 1 -4.5 3t-4.5 3.5t-6 2t-9 -0.5t-8.5 6.5t-7.5 8.5q-3 0 -15.5 -3t-15.5 -3q-29 3 -59 -5q-26 -7 -41.5 -30t-15.5 -49q0 -31 22 -52q3 -3 7 -9t9 -9.5t15 -4.5q4 0 8 -3l8 -6t8 -3q14 0 36.5 -8.5 t32.5 -9.5q-6 -2 -25.5 -23t-30.5 -19h-2q-7 -5 -12 -5q-36 -6 -70 -19t-63 -39.5t-29 -59.5q0 -38 36 -81q1 -18 7 -26t14 -3q8 3 10.5 2.5t7.5 -7t7 -7.5q29 -19 57 -29q4 -1 10.5 -2.5t10.5 -3t9 -6.5q6 -6 15 -7.5t19 0t14 0.5q88 -11 142 42q13 13 17 8.5t-18 -24.5 q-45 -37 -80 -53.5t-79 -16.5q-68 0 -136 29q-2 1 -11.5 8t-20.5 8q-6 0 -12 3.5t-9.5 6.5t-10 9.5l-8.5 8.5q-3 10 -13.5 17.5t-12.5 10.5zM224 656q30 12 66 45q2 2 8 2t6 7q0 2 11 13l7 7q5 0 18 -9.5t24 -18.5t10 -10q-28 -25 -29 -26q-2 -2 -5.5 -0.5t-6.5 1t-3 -5.5 q0 -10 -21 -17q-5 -2 -9 -5.5t-5 -4.5l-25 -11q-4 0 -15.5 8.5t-21.5 16.5z" />
<glyph unicode="&#xca;" horiz-adv-x="459" d="M25 81q-23 31 -22 67.5t24 68.5q2 3 5.5 4.5t6.5 2.5t6 5.5t4 13.5q5 5 12 9.5t14.5 10t13.5 13.5q5 5 10.5 9t17 9.5t12.5 5.5q27 14 59 27q-49 14 -80 41t-21 67q17 66 107 121q52 31 114 31q28 0 55 -6q3 -1 6 -4.5t6 -4.5t12 2q16 -3 27 -10t15 -8t7.5 -2.5t5.5 -3.5 t3.5 -3t3.5 -3t4 -3q-2 -1 -15 -13.5t-26 -22t-17 -6.5q-26 17 -62 32q-2 1 -4.5 3t-4.5 3.5t-6 2t-9 -0.5t-8.5 6.5t-7.5 8.5q-3 0 -15.5 -3t-15.5 -3q-29 3 -59 -5q-26 -7 -41.5 -30t-15.5 -49q0 -31 22 -52q3 -3 7 -9t9 -9.5t15 -4.5q4 0 8 -3l8 -6t8 -3q14 0 36.5 -8.5 t32.5 -9.5q-6 -2 -25.5 -23t-30.5 -19h-2q-7 -5 -12 -5q-36 -6 -70 -19t-63 -39.5t-29 -59.5q0 -38 36 -81q1 -18 7 -26t14 -3q8 3 10.5 2.5t7.5 -7t7 -7.5q29 -19 57 -29q4 -1 10.5 -2.5t10.5 -3t9 -6.5q6 -6 15 -7.5t19 0t14 0.5q88 -11 142 42q13 13 17 8.5t-18 -24.5 q-45 -37 -80 -53.5t-79 -16.5q-68 0 -136 29q-2 1 -11.5 8t-20.5 8q-6 0 -12 3.5t-9.5 6.5t-10 9.5l-8.5 8.5q-3 10 -13.5 17.5t-12.5 10.5zM232 636q12 15 20 26q1 1 3 2t3.5 2t2.5 3t1 6q0 3 2 5.5t6 5.5t5 5q1 1 8 9t11 13q3 4 23 4t24 -4l25 -32l1 -3t5 -5q2 -1 9 -10 q1 -1 3 -6t7 -7q2 -1 3.5 -2.5t3 -4.5t2.5 -4q-18 -4 -26 1q-10 6 -49 60l-8 -11l-2.5 0.5t-5 -2t-2.5 -6.5q0 -2 -1.5 -5t-3.5 -5l-1 -2l-22 -28q-6 -9 -13 -9q-3 0 -6.5 0.5t-4.5 0.5q-2 0 -13 1t-10 2z" />
<glyph unicode="&#xcb;" horiz-adv-x="459" d="M25 81q-23 31 -22 67.5t24 68.5q2 3 5.5 4.5t6.5 2.5t6 5.5t4 13.5q5 5 12 9.5t14.5 10t13.5 13.5q5 5 10.5 9t17 9.5t12.5 5.5q27 14 59 27q-49 14 -80 41t-21 67q17 66 107 121q52 31 114 31q28 0 55 -6q3 -1 6 -4.5t6 -4.5t12 2q16 -3 27 -10t15 -8t7.5 -2.5t5.5 -3.5 t3.5 -3t3.5 -3t4 -3q-2 -1 -15 -13.5t-26 -22t-17 -6.5q-26 17 -62 32q-2 1 -4.5 3t-4.5 3.5t-6 2t-9 -0.5t-8.5 6.5t-7.5 8.5q-3 0 -15.5 -3t-15.5 -3q-29 3 -59 -5q-26 -7 -41.5 -30t-15.5 -49q0 -31 22 -52q3 -3 7 -9t9 -9.5t15 -4.5q4 0 8 -3l8 -6t8 -3q14 0 36.5 -8.5 t32.5 -9.5q-6 -2 -25.5 -23t-30.5 -19h-2q-7 -5 -12 -5q-36 -6 -70 -19t-63 -39.5t-29 -59.5q0 -38 36 -81q1 -18 7 -26t14 -3q8 3 10.5 2.5t7.5 -7t7 -7.5q29 -19 57 -29q4 -1 10.5 -2.5t10.5 -3t9 -6.5q6 -6 15 -7.5t19 0t14 0.5q88 -11 142 42q13 13 17 8.5t-18 -24.5 q-45 -37 -80 -53.5t-79 -16.5q-68 0 -136 29q-2 1 -11.5 8t-20.5 8q-6 0 -12 3.5t-9.5 6.5t-10 9.5l-8.5 8.5q-3 10 -13.5 17.5t-12.5 10.5zM254 683q0 1 2.5 3.5t6 5t7.5 5t7.5 4.5t4.5 2l4 -4q0 -1 -0.5 -3t0.5 -2q6 -2 6 -5t1 -5t2.5 -3.5l1.5 -1.5q0 -2 -12.5 -11 t-15.5 -9q-2 0 -2.5 2.5t0 5t-0.5 3.5t-3.5 1.5t-2.5 1.5zM312 683q0 2 12.5 11t15.5 9l1 -1.5l2 -3l2 -3t2 -2.5t0 -3v-2q6 -2 6 -5q0 -4 2 -4h1q0 -2 -13 -11t-16 -9l-10 15v-1zM317 673q1 -1 1 0h-1z" />
<glyph unicode="&#xcc;" horiz-adv-x="177" d="M16 695l4 3q3 2 9.5 6.5t11.5 8.5q3 2 8 6.5t7.5 7t6.5 4t6 -1.5q22 -22 46 -40q10 -7 14 -16q2 -5 5.5 -7t7.5 -2.5t6 -1.5t7 -4.5t7 -4.5l-4 -4q-4 -4 -9 -8.5t-6 -4.5t-4 -3t-5 -4.5t-6.5 -3.5t-9.5 -2q-17 1 -38 15q-1 1 -4 2.5t-4.5 2.5t-4 3t-4 3.5t-2.5 4t-1 5.5 q-1 9 -5.5 10.5t-9 -0.5t-7.5 1q-23 20 -22 25zM28 519q94 94 118 55q17 -27 17 -77q0 -25 -8 -94q-10 -66 -19 -163l-4 -47q0 -5 -3 -15t-3.5 -15t3.5 -16q2 -4 2.5 -9t-0.5 -9t-2 -9.5t-1 -8.5q-5 -13 -5 -18.5t3 -15t3 -12.5q3 -31 12 -30q-5 -3 -15.5 -13.5t-20.5 -19 t-18 -9.5q-22 -4 -22 68q0 27 3 63.5t6.5 63.5t7.5 54.5t4 28.5q1 6 3.5 17.5t3.5 17.5t-1 19q-1 7 -0.5 11t2 11t1.5 11q1 5 3.5 15t3 15t-2.5 18q-5 5 -2 31.5t3 32.5q-2 42 -9 56q-3 6 -11.5 9.5t-17.5 0.5t-31 -22q-5 -5 -6 -1q0 2 3 6z" />
<glyph unicode="&#xcd;" horiz-adv-x="177" d="M27 670q30 12 66 45q2 2 4.5 2h4.5t3.5 1.5t1.5 5.5q0 2 11 13l7 7q3 0 9.5 -4t13.5 -9.5l14 -11t11 -9.5l4 -4q-28 -25 -29 -26q-2 -2 -5.5 -0.5t-6.5 1t-3 -5.5q0 -10 -21 -17q-5 -2 -9 -5.5t-5 -4.5l-25 -11q-4 0 -15.5 8.5t-21.5 16.5zM28 519q94 94 118 55 q17 -27 17 -77q0 -25 -8 -94q-10 -66 -19 -163l-4 -47q0 -5 -3 -15t-3.5 -15t3.5 -16q2 -4 2.5 -9t-0.5 -9t-2 -9.5t-1 -8.5q-5 -13 -5 -18.5t3 -15t3 -12.5q3 -31 12 -30q-5 -3 -15.5 -13.5t-20.5 -19t-18 -9.5q-22 -4 -22 68q0 27 3 63.5t6.5 63.5t7.5 54.5t4 28.5 q1 6 3.5 17.5t3.5 17.5t-1 19q-1 7 -0.5 11t2 11t1.5 11q1 5 3.5 15t3 15t-2.5 18q-5 5 -2 31.5t3 32.5q-2 42 -9 56q-3 6 -11.5 9.5t-17.5 0.5t-31 -22q-5 -5 -6 -1q0 2 3 6z" />
<glyph unicode="&#xce;" horiz-adv-x="177" d="M5 647q12 15 20 26q1 1 3 2t3.5 2t2.5 3t1 6q0 3 2 5.5t6 5.5t5 5q1 1 8 9t11 13q3 4 23 4t24 -4l25 -32l1 -3q1 -3 5 -5q2 -1 9 -10q1 -1 3 -6t7 -7q1 0 9 -11q-18 -4 -26 1q-10 6 -49 60l-8 -11h-2q-3 1 -5.5 -1.5t-2.5 -6.5l-6 -12l-22 -28q-6 -9 -13 -9 q-3 0 -6.5 0.5t-4.5 0.5zM28 519q94 94 118 55q17 -27 17 -77q0 -25 -8 -94q-10 -66 -19 -163l-4 -47q0 -5 -3 -15t-3.5 -15t3.5 -16q2 -4 2.5 -9t-0.5 -9t-2 -9.5t-1 -8.5q-5 -13 -5 -18.5t3 -15t3 -12.5q3 -31 12 -30q-3 -2 -23.5 -21.5t-30.5 -20.5q-22 -4 -22 68 q0 27 3 63.5t6.5 63.5t7.5 54.5t4 28.5l4.5 20.5t1.5 33.5q-1 7 -0.5 11t2 11t1.5 11q1 5 2.5 11.5t3 11t1 11.5t-2.5 14q-5 5 -2 31.5t3 32.5q-2 42 -9 56q-3 6 -11.5 9.5t-17.5 0.5t-31 -22q-5 -5 -6 -1q0 2 3 6z" />
<glyph unicode="&#xcf;" horiz-adv-x="177" d="M28 519q94 94 118 55q17 -27 17 -77q0 -25 -8 -94q-10 -66 -19 -163l-4 -47q0 -5 -3 -15t-3.5 -15t3.5 -16q2 -4 2.5 -9t-0.5 -9t-2 -9.5t-1 -8.5q-5 -13 -5 -18.5t3 -15t3 -12.5q3 -31 12 -30q-5 -3 -15.5 -13.5t-20.5 -19t-18 -9.5q-22 -4 -22 68q0 27 3 63.5t6.5 63.5 t7.5 54.5t4 28.5q1 6 3.5 17.5t3.5 17.5t-1 19q-1 7 -0.5 11t2 11t1.5 11q1 5 3.5 15t3 15t-2.5 18q-5 5 -2 31.5t3 32.5q-2 42 -9 56q-3 6 -11.5 9.5t-17.5 0.5t-31 -22q-5 -5 -6 -1q0 2 3 6zM42 671q0 2 12.5 11t15.5 9l4 -4v-3v-2q6 -2 6 -5t1 -5t3 -4l1 -1 q0 -2 -12.5 -11t-15.5 -9q-2 0 -2.5 2.5t0 5t-0.5 3.5q0 1 -3 1.5t-3 1.5zM100 671q0 2 12.5 11t15.5 9l1.5 -2t3 -4.5t2.5 -3.5t0 -3v-2q6 -2 6 -5q0 -4 2 -4h1q0 -2 -13 -11t-16 -9l-10 15v-1zM105 661q1 -1 1 0h-1z" />
<glyph unicode="&#xd0;" horiz-adv-x="506" d="M-20 264q7 1 20 22q17 21 28 21q2 0 11.5 -0.5t16.5 -0.5l3 29q0 1 5.5 19t-1.5 26q-2 5 2.5 16.5t0.5 20.5q-5 1 -0.5 19.5t4.5 19.5l6 64q0 4 3 7q-14 -6 -34 -18q-14 -7 -13 -5q0 2 8 8q31 28 91 48l3 3v-2q54 17 106 17q40 0 81 -12q3 -1 8.5 -4.5t10 -5t8.5 -0.5 q8 3 13.5 0t12 -10.5t9.5 -9.5q26 -18 44 -40q31 -38 47 -81q7 -19 0 -27q-7 -12 -4.5 -16t10.5 -10.5t8 -11.5q5 -92 -57.5 -180t-158.5 -150q-75 -49 -131 -49q-26 0 -48 13q-42 25 -44 135q-1 59 4 141q-5 2 -6 4q-2 5 -12.5 1.5t-14.5 -3.5q-30 2 -40 2zM105 168 q0 -4 2 -13.5t2.5 -14.5t-3.5 -12q-6 -7 -7 -12t1.5 -7.5l5.5 -5.5t4 -6q15 -84 81 -79q20 2 50 13q4 1 11 0.5t11 2.5q2 1 8.5 8.5t9.5 8.5q28 11 55 40q46 49 70 119q1 4 6 14.5t6.5 18.5t0.5 18t1 27.5t2 25.5q-5 84 -53 138q-33 37 -74 61q-3 2 -8.5 7t-12 8t-18.5 4 q-8 1 -22.5 6t-19.5 6q-19 4 -41 4q-7 0 -20.5 -1.5t-20.5 -1.5q-21 -238 -21 -241q2 2 11.5 0.5t11.5 -1.5q26 0 36 1q7 1 18.5 1.5t17.5 1t14 2t14 3.5t12 5q4 3 7 3h1q0 -2 -6 -7q-55 -50 -140 -55v-16q-3 -60 -3 -74z" />
<glyph unicode="&#xd1;" horiz-adv-x="490" d="M-3 572q48 56 97 32q18 -10 26 -20l8 -7q8 -7 9 -12q1 -7 4 -10.5t6.5 -5t5.5 -3.5q35 -46 70 -102q2 -3 9 -20.5t16 -21.5q4 -2 6 -5t3.5 -8t2.5 -7q57 -102 138 -266q-1 20 -1 61q0 107 10 201q3 58 13 107q1 4 3.5 11.5t4 14t1.5 13.5q0 11 17 43q0 1 5 5.5t6 12.5 q7 1 9.5 4.5t3.5 9t3 7.5q44 46 86 45q-4 -1 -16 -14.5t-21 -12.5q-10 0 -20 -9t-15 -20q-35 -75 -44 -225q0 -4 -2.5 -13.5t-2.5 -13.5t3 -12q5 -1 2 -13.5t-3 -13.5q-3 -3 -3 -6.5t1 -7.5t1 -6q-1 -30 -1 -89q0 -4 -3 -9t-2.5 -7.5t6.5 -6.5q0 -5 -3.5 -15.5t-4.5 -17 t4 -15.5q5 -6 5 -40l4 -60q0 -4 -10 -11.5t-20 -12.5l-10 -6l-37 75q-2 4 -2.5 11t-3.5 12.5t-11 10.5q-6 4 -9 19t-11 21q-3 2 -5 6t-4 9t-3 8q-30 58 -68 128q-1 2 -4 4.5t-4.5 6t-0.5 9.5q1 8 -1 10.5t-5 2.5t-4 2q-40 70 -71 118l-18 29l-13 19v-24q0 -14 -2 -48 q0 -2 -2.5 -10t-0.5 -12q3 -11 3 -15.5t-2 -16t-2 -16.5q-3 -43 -8 -97l-6 -59q-3 -28 -2 -31q2 -6 2 -13t-1 -15.5t-1 -13.5q0 -4 2 -11t2 -10t-2 -10q-2 -6 -2 -8.5t3 -9t3 -8.5q3 -16 12.5 -33.5t22.5 -22.5q14 -7 38 13q11 9 10 4q0 -4 -12 -16q-36 -36 -73 -36 q-58 0 -58 100q0 11 3 65q0 3 2.5 9.5t2.5 10.5t-2 13q-2 4 4.5 15t2.5 18q-4 11 -4 15t2.5 17t3.5 18q18 128 20 147q12 100 12 113q0 10 -1 15q-3 4 -24 25q-32 28 -51 25q-13 -3 -21 -11q-7 -8 -8 -3zM182 667q14 19 39 35.5t46 16.5q7 0 43 -9q14 -5 16 -7q2 -3 5 -3 t6.5 1.5t4.5 1.5q24 -2 37 13q5 5 6.5 2.5t-1.5 -7.5q-8 -13 -36 -29.5t-43 -16.5t-35 5q-10 2 -14 8q-1 3 -7.5 1.5t-7.5 -1.5q-12 3 -22 3q-17 0 -29 -15q-5 -6 -9 -4q-2 1 1 5z" />
<glyph unicode="&#xd2;" horiz-adv-x="594" d="M36 262q0 24 4 44q16 85 73 154q2 2 7 3t8 4.5t4 14.5q0 2 6 3.5t9 10.5q5 5 15 13q70 59 126 77q25 8 55 8q71 0 132 -50q3 -2 4.5 -8t4.5 -8q19 -11 29 -22q21 -26 32 -47q2 -3 3.5 -10.5t3.5 -12t6 -3.5q3 1 5 -4.5t1 -9.5q-2 -9 4.5 -21t6.5 -13q13 -47 13 -90 q0 -124 -83 -207q-76 -75 -139 -101q-34 -14 -71 -14q-79 0 -145 63q-2 2 -6 4t-7 5.5t-6 9.5q-7 18 -23 26q-8 4 -11.5 8.5t-5.5 11t-4 9.5q-51 74 -51 152zM96 301q0 -30 5 -51t2 -29q-3 -7 14 -22q3 -3 5.5 -10t4.5 -9q34 -56 74 -94q3 -2 5.5 -7.5t6.5 -9t12 -4.5 q5 -1 13 -9l9 -7q3 -6 7 -8.5t9.5 -3.5t7.5 -2q44 -23 83 -23q54 0 98 44q3 3 8.5 7.5t9.5 9.5t8 14q1 2 8 7.5t9 20.5q1 6 7 16.5t7 14.5q27 70 21 139q0 4 2 10t1 12t-8 13q-3 4 -2.5 16.5t-7.5 19.5q-2 2 -4 9l-2 7q2 8 0.5 11t-7 8t-7.5 8q-40 70 -102 114q-1 1 -5 9 t-15 8q-8 -1 -20 6t-17 16q-4 4 -8 3.5t-11.5 -2t-11.5 -0.5q-59 10 -109 -32.5t-75 -103.5t-25 -116zM229 700l3 2q4 3 10.5 7.5t11.5 8.5q3 2 8 6.5t7.5 7t6.5 4t6 -1.5q22 -22 46 -40q10 -7 14 -16q2 -5 5.5 -7t7.5 -2.5t6 -1.5q3 -1 7 -4.5t7 -4.5l-4 -4q-4 -4 -9 -8.5 t-6 -4.5t-4 -3t-5 -4.5t-6.5 -3.5t-9.5 -2q-17 1 -38 15q-1 1 -4 2.5t-4.5 2.5t-4 3t-4 3.5t-2.5 4t-1 5.5q-1 9 -5.5 10.5t-9 -0.5t-7.5 1q-23 20 -22 25z" />
<glyph unicode="&#xd3;" horiz-adv-x="594" d="M36 262q0 24 4 44q16 85 73 154q2 2 7 3t8 4.5t4 14.5q0 2 6 3.5t9 10.5q5 5 15 13q70 59 126 77q25 8 55 8q71 0 132 -50q3 -2 4.5 -8t4.5 -8q19 -11 29 -22q21 -26 32 -47q2 -3 3.5 -10.5t3.5 -12t6 -3.5q3 1 5 -4.5t1 -9.5q-2 -9 4.5 -21t6.5 -13q13 -47 13 -90 q0 -124 -83 -207q-76 -75 -139 -101q-34 -14 -71 -14q-79 0 -145 63q-2 2 -6 4t-7 5.5t-6 9.5q-7 18 -23 26q-8 4 -11.5 8.5t-5.5 11t-4 9.5q-51 74 -51 152zM96 301q0 -30 5 -51t2 -29q-3 -7 14 -22q3 -3 5.5 -10t4.5 -9q34 -56 74 -94q3 -2 5.5 -7.5t6.5 -9t12 -4.5 q5 -1 13 -9l9 -7q3 -6 7 -8.5t9.5 -3.5t7.5 -2q44 -23 83 -23q54 0 98 44q3 3 8.5 7.5t9.5 9.5t8 14q1 2 8 7.5t9 20.5q1 6 7 16.5t7 14.5q27 70 21 139q0 4 2 10t1 12t-8 13q-3 4 -2.5 16.5t-7.5 19.5q-2 2 -4 9l-2 7q2 8 0.5 11t-7 8t-7.5 8q-40 70 -102 114q-1 1 -5 9 t-15 8q-8 -1 -20 6t-17 16q-4 4 -8 3.5t-11.5 -2t-11.5 -0.5q-59 10 -109 -32.5t-75 -103.5t-25 -116zM249 655q30 12 66 45q2 2 4.5 2h4.5t3.5 1.5t1.5 5.5q0 2 11 13l7 7q3 0 9.5 -4t13.5 -9.5l14 -11t11 -9.5l4 -4q-28 -25 -29 -26q-2 -2 -5.5 -0.5t-6.5 1t-3 -5.5 q0 -10 -21 -17q-5 -2 -9 -5.5t-5 -4.5l-25 -11q-4 0 -15.5 8t-21.5 16z" />
<glyph unicode="&#xd4;" horiz-adv-x="594" d="M36 262q0 24 4 44q16 85 73 154q2 2 7 3t8 4.5t4 14.5q0 2 6 3.5t9 10.5q5 5 15 13q70 59 126 77q25 8 55 8q71 0 132 -50q3 -2 4.5 -8t4.5 -8q19 -11 29 -22q21 -26 32 -47q2 -3 3.5 -10.5t3.5 -12t6 -3.5q3 1 5 -4.5t1 -9.5q-2 -9 4.5 -21t6.5 -13q13 -47 13 -90 q0 -124 -83 -207q-76 -75 -139 -101q-34 -14 -71 -14q-79 0 -145 63q-2 2 -6 4t-7 5.5t-6 9.5q-7 18 -23 26q-8 4 -11.5 8.5t-5.5 11t-4 9.5q-51 74 -51 152zM96 301q0 -30 5 -51t2 -29q-3 -7 14 -22q3 -3 5.5 -10t4.5 -9q34 -56 74 -94q3 -2 5.5 -7.5t6.5 -9t12 -4.5 q5 -1 13 -9l9 -7q3 -6 7 -8.5t9.5 -3.5t7.5 -2q44 -23 83 -23q54 0 98 44q3 3 8.5 7.5t9.5 9.5t8 14q1 2 8 7.5t9 20.5q1 6 7 16.5t7 14.5q27 70 21 139q0 4 2 10t1 12t-8 13q-3 4 -2.5 16.5t-7.5 19.5q-2 2 -4 9l-2 7q2 8 0.5 11t-7 8t-7.5 8q-40 70 -102 114q-1 1 -5 9 t-15 8q-8 -1 -20 6t-17 16q-4 4 -8 3.5t-11.5 -2t-11.5 -0.5q-59 10 -109 -32.5t-75 -103.5t-25 -116zM229 652q12 15 20 26q1 1 3 2t3.5 2t2.5 3t1 6q0 3 2 5.5t6 5.5t5 5q1 1 8 9t11 13q3 4 23 4t24 -4l25 -32l1 -3q1 -3 5 -5q2 -1 9 -10q1 -1 3 -6t7 -7q1 0 9 -11 q-18 -4 -26 1q-10 6 -49 60l-8 -11l-2 1q-3 0 -5.5 -2.5t-2.5 -6.5l-6 -12l-22 -28q-6 -9 -13 -9q-3 0 -6.5 0.5t-4.5 0.5z" />
<glyph unicode="&#xd5;" horiz-adv-x="594" d="M36 262q0 24 4 44q16 85 73 154q2 2 7 3t8 4.5t4 14.5q0 2 6 3.5t9 10.5q5 5 15 13q70 59 126 77q25 8 55 8q71 0 132 -50q3 -2 4.5 -8t4.5 -8q19 -11 29 -22q21 -26 32 -47q2 -3 3.5 -10.5t3.5 -12t6 -3.5q3 1 5 -4.5t1 -9.5q-2 -9 4.5 -21t6.5 -13q13 -47 13 -90 q0 -124 -83 -207q-76 -75 -139 -101q-34 -14 -71 -14q-79 0 -145 63q-2 2 -6 4t-7 5.5t-6 9.5q-7 18 -23 26q-8 4 -11.5 8.5t-5.5 11t-4 9.5q-51 74 -51 152zM96 301q0 -30 5 -51t2 -29q-3 -7 14 -22q3 -3 5.5 -10t4.5 -9q34 -56 74 -94q3 -2 5.5 -7.5t6.5 -9t12 -4.5 q5 -1 13 -9l9 -7q3 -6 7 -8.5t9.5 -3.5t7.5 -2q44 -23 83 -23q54 0 98 44q3 3 8.5 7.5t9.5 9.5t8 14q1 2 8 7.5t9 20.5q1 6 7 16.5t7 14.5q27 70 21 139q0 4 2 10t1 12t-8 13q-3 4 -2.5 16.5t-7.5 19.5q-2 2 -4 9l-2 7q2 8 0.5 11t-7 8t-7.5 8q-40 70 -102 114q-1 1 -5 9 t-15 8q-8 -1 -20 6t-17 16q-4 4 -8 3.5t-11.5 -2t-11.5 -0.5q-59 10 -109 -32.5t-75 -103.5t-25 -116zM223 661q14 19 39 35.5t46 16.5q7 0 43 -9q14 -5 16 -7q2 -3 5 -3t6.5 1.5t4.5 1.5q24 -2 37 13q6 6 7 1l-2 -6q-8 -13 -36 -29.5t-43 -16.5t-35 5q-10 2 -14 8 q-1 3 -7.5 1.5t-7.5 -1.5q-12 3 -22 3q-17 0 -29 -15q-5 -6 -9 -4q-2 1 1 5z" />
<glyph unicode="&#xd6;" horiz-adv-x="594" d="M36 262q0 24 4 44q16 85 73 154q2 2 7 3t8 4.5t4 14.5q0 2 6 3.5t9 10.5q5 5 15 13q70 59 126 77q25 8 55 8q71 0 132 -50q3 -2 4.5 -8t4.5 -8q19 -11 29 -22q21 -26 32 -47q2 -3 3.5 -10.5t3.5 -12t6 -3.5q3 1 5 -4.5t1 -9.5q-2 -9 4.5 -21t6.5 -13q13 -47 13 -90 q0 -124 -83 -207q-76 -75 -139 -101q-34 -14 -71 -14q-79 0 -145 63q-2 2 -6 4t-7 5.5t-6 9.5q-7 18 -23 26q-8 4 -11.5 8.5t-5.5 11t-4 9.5q-51 74 -51 152zM96 301q0 -30 5 -51t2 -29q-3 -7 14 -22q3 -3 5.5 -10t4.5 -9q34 -56 74 -94q3 -2 5.5 -7.5t6.5 -9t12 -4.5 q5 -1 13 -9l9 -7q3 -6 7 -8.5t9.5 -3.5t7.5 -2q44 -23 83 -23q54 0 98 44q3 3 8.5 7.5t9.5 9.5t8 14q1 2 8 7.5t9 20.5q1 6 7 16.5t7 14.5q27 70 21 139q0 4 2 10t1 12t-8 13q-3 4 -2.5 16.5t-7.5 19.5q-2 2 -4 9l-2 7q2 8 0.5 11t-7 8t-7.5 8q-40 70 -102 114q-1 1 -5 9 t-15 8q-8 -1 -20 6t-17 16q-4 4 -8 3.5t-11.5 -2t-11.5 -0.5q-59 10 -109 -32.5t-75 -103.5t-25 -116zM290 671q0 2 12.5 11t15.5 9l4 -4v-3v-2q6 -2 6 -5t1 -5t3 -4l1 -1q0 -2 -12.5 -11t-15.5 -9q-2 0 -2.5 2.5t0 5t-0.5 3.5q0 1 -3 1.5t-3 1.5zM348 671q0 2 12.5 11 t15.5 9l1 -1.5l2 -3l2 -3t2 -2.5t0 -3v-2q6 -2 6 -5q0 -4 2 -4h1q0 -2 -13 -11t-16 -9l-10 15v-1zM353 661q1 -1 1 0h-1z" />
<glyph unicode="&#xd7;" horiz-adv-x="325" d="M46 87q27 33 42 50q2 3 6.5 5.5t8 6.5t6.5 12q1 3 3 5.5t5.5 5t5.5 4.5l6 7l-21 25q-2 2 -3 5.5t-2 6t-4.5 6t-9.5 5.5q-3 1 -5.5 4t-4.5 7t-4 6l-18 21q-1 1 10 10t24.5 18.5t18.5 9.5h1l9 -11q1 -2 4.5 -5t6 -5.5t2.5 -5.5q1 -5 3 -8t3.5 -3.5t3.5 -2t3 -2.5l10 -15 q2 -2 4.5 -4t3.5 -3l9 -11l38 43q8 11 25 20q24 11 28 15l-31 -36q-13 -15 -22 -19q-7 -3 -10.5 -12.5t-5.5 -11.5l-11 -12l36 -43q1 -1 6 -5.5t6 -8.5q1 -5 3 -8t4 -4.5t4.5 -3t3.5 -3.5l18 -22q2 -3 -23 -21t-30 -18q-2 2 -3 4.5t-2.5 5t-2.5 4.5l-10 8q-1 1 -4 6.5 t-6 9.5t-6 4q-4 0 -6.5 3t-4 7.5t-4.5 7.5l-23 28l-40 -46q-6 -7 -16 -14q-6 -4 -20.5 -11t-17.5 -11z" />
<glyph unicode="&#xd8;" horiz-adv-x="594" d="M36 262q0 24 4 44q16 85 73 154q2 2 7 3t8 4.5t4 14.5q0 2 6 3.5t9 10.5q5 5 15 13q70 59 126 77q25 8 55 8q49 0 94 -25q24 12 26 9q2 -6 -7 -21q11 -6 19 -13q3 -2 4.5 -8t4.5 -8q19 -11 29 -22q21 -26 32 -47q2 -3 3.5 -10.5t3.5 -12t6 -3.5q3 1 5 -4.5t1 -9.5 q-2 -9 4.5 -21t6.5 -13q13 -47 13 -90q0 -124 -83 -207q-76 -75 -139 -101q-34 -14 -71 -14q-45 0 -89 22q-5 -3 -11.5 -7t-7.5 -5q-12 -7 4 21q-23 13 -41 32q-2 2 -6 4t-7 5.5t-6 9.5q-7 18 -23 26q-8 4 -11.5 8.5t-5.5 11t-4 9.5q-51 74 -51 152zM96 301q0 -30 5 -51 t2 -29q-3 -7 14 -22q3 -3 5.5 -10t4.5 -9q34 -56 74 -94q2 -2 6.5 -9.5t10.5 -9.5l127 320q1 1 6 11t7 22q0 2 6.5 9t3.5 17q-1 3 0.5 7t4.5 8.5t4 6.5q11 24 17 44q-1 0 -1 1q-1 1 -5 9t-15 8q-8 -1 -20 6t-17 16q-4 4 -8 3.5t-11.5 -2t-11.5 -0.5q-59 10 -109 -32.5 t-75 -103.5t-25 -116zM249 44q3 -4 6.5 -5.5t8.5 -2t7 -1.5q44 -23 83 -23q54 0 98 44q3 3 8.5 7.5t9.5 9.5t8 14q1 2 8 7.5t9 20.5q1 6 7 16.5t7 14.5q27 70 21 139q0 4 2 10t1 12t-8 13q-3 4 -2.5 16.5t-7.5 19.5q-2 2 -4 9l-2 7q2 8 0.5 11t-7 8t-7.5 8q-29 50 -70 88 q-9 -22 -56 -139t-72 -179q-1 -2 -4.5 -3t-4.5 -7q-2 -16 -3 -19q-12 -30 -25 -65q-1 -2 -4.5 -6t-4 -6t0.5 -7q0 -4 -3 -12z" />
<glyph unicode="&#xd9;" horiz-adv-x="542" d="M57 539q8 7 19 14.5t27 15.5t28.5 9t22.5 -6q10 -10 12.5 -28t-4.5 -36q-2 -6 1.5 -8.5t3.5 -4.5t-0.5 -5.5t-0.5 -6.5v-5q-2 -20 -11 -101t-10 -125q-2 -65 9 -109v-6v-5.5t1.5 -6.5t6.5 -8q1 -1 -3.5 -11t7.5 -12q4 -1 7 -3t4 -3t4 -5t4 -5q24 -28 61 -37q30 -7 57 2.5 t47 31t34 46t25 54.5q1 10 11 69q0 2 1 4t2 3t2 2.5t1 3.5q0 1 -1 9t-1 18.5t4 19.5q1 3 2 7t1 7.5v8.5v8l3 21q0 3 2.5 9t3.5 10t-1 9q-5 7 -5.5 12t1.5 10.5t2 7.5q8 99 5 111q-2 6 -5.5 10.5t-8 6t-8.5 -1.5q8 12 23.5 25.5t27.5 16.5q33 9 33 -82q0 -2 -3.5 -7t-4 -8 t3.5 -9q2 -1 2 -4.5t-0.5 -8.5t-0.5 -7q-4 -56 -14 -116l-12 -82q-1 -4 -4 -11.5t-3.5 -12t1.5 -13.5q2 -8 1.5 -12.5t-3 -13.5t-3.5 -13q-2 -16 -2 -33t1.5 -32.5t6.5 -33.5t13.5 -27t22 -12.5t32.5 9.5q9 6 9 2l-6 -7q-10 -8 -42 -29q-94 -57 -94 84v16q-43 -61 -111 -99 q-45 -24 -84 -24q-53 0 -85 43q-18 24 -31 63q-1 2 0 6.5t0 8.5t-5 7q4 5 4.5 9.5t-1.5 7.5l-5 7.5t-3 7.5q-2 26 -2 39q0 23 2.5 49.5t5 47.5t6 47.5t5.5 44.5q0 2 2.5 6.5t4 9t0.5 5.5q-4 4 -4.5 6t1 5.5t1.5 5.5q3 4 4 7.5t0 5.5t-1.5 5t-0.5 5q1 11 1 32q0 17 -1.5 29 t-6.5 23.5t-14.5 11.5t-24.5 -7q-8 -5 -9 -1q-1 2 4 6zM214 705l1.5 1t4 3l5 4t6.5 4.5t8 5.5q3 2 8 6.5t7.5 7t6.5 4t6 -1.5q22 -22 46 -40q10 -7 14 -16q2 -5 5.5 -7t7.5 -2.5t6 -1.5q3 -1 7.5 -4.5t6.5 -4.5l-4 -4t-9 -8.5t-6 -4.5t-4 -3t-5 -4.5t-6.5 -3.5t-9.5 -2 q-17 1 -38 15q-1 1 -4 2.5t-4.5 2.5t-4 3t-4 3.5t-2.5 4t-1 5.5q-1 9 -5.5 10.5t-9 -0.5t-7.5 1q-1 1 -5 4.5t-6.5 5.5t-5.5 5t-4 5.5t-1 4.5z" />
<glyph unicode="&#xda;" horiz-adv-x="542" d="M57 539q8 7 19 14.5t27 15.5t28.5 9t22.5 -6q10 -10 12.5 -28t-4.5 -36q-2 -6 1.5 -8.5t3.5 -4.5t-0.5 -5.5t-0.5 -6.5v-5q-2 -20 -11 -101t-10 -125q-2 -65 9 -109v-6v-5.5t1.5 -6.5t6.5 -8q1 -1 -3.5 -11t7.5 -12q4 -1 7 -3t4 -3t4 -5t4 -5q24 -28 61 -37q30 -7 57 2.5 t47 31t34 46t25 54.5q1 10 11 69q0 2 1 4t2 3t2 2.5t1 3.5q0 1 -1 9t-1 18.5t4 19.5q1 3 2 7t1 7.5v8.5v8l3 21q0 3 2.5 9t3.5 10t-1 9q-5 7 -5.5 12t1.5 10.5t2 7.5q8 99 5 111q-2 6 -5.5 10.5t-8 6t-8.5 -1.5q8 12 23.5 25.5t27.5 16.5q33 9 33 -82q0 -2 -3.5 -7t-4 -8 t3.5 -9q2 -1 2 -4.5t-0.5 -8.5t-0.5 -7q-4 -56 -14 -116l-12 -82q-1 -4 -4 -11.5t-3.5 -12t1.5 -13.5q2 -8 1.5 -12.5t-3 -13.5t-3.5 -13q-2 -16 -2 -33t1.5 -32.5t6.5 -33.5t13.5 -27t22 -12.5t32.5 9.5q9 6 9 2l-6 -7q-10 -8 -42 -29q-94 -57 -94 84v16q-43 -61 -111 -99 q-45 -24 -84 -24q-53 0 -85 43q-18 24 -31 63q-1 2 0 6.5t0 8.5t-5 7q4 5 4.5 9.5t-1.5 7.5l-5 7.5t-3 7.5q-2 26 -2 39q0 23 2.5 49.5t5 47.5t6 47.5t5.5 44.5q0 2 2.5 6.5t4 9t0.5 5.5q-4 4 -4.5 6t1 5.5t1.5 5.5q3 4 4 7.5t0 5.5t-1.5 5t-0.5 5q1 11 1 32q0 17 -1.5 29 t-6.5 23.5t-14.5 11.5t-24.5 -7q-8 -5 -9 -1q-1 2 4 6zM218 666q30 12 66 45q2 2 8 2t6 7q0 2 11 13q1 1 2 2.5t2.5 2.5t2.5 2q5 0 18 -9.5t24 -18.5t10 -10q-28 -25 -29 -26q-2 -2 -5.5 -0.5t-6.5 1t-3 -5.5q0 -10 -21 -17q-5 -2 -9 -5.5t-5 -4.5l-25 -11q-4 0 -15.5 8 t-21.5 17z" />
<glyph unicode="&#xdb;" horiz-adv-x="542" d="M57 539q8 7 19 14.5t27 15.5t28.5 9t22.5 -6q10 -10 12.5 -28t-4.5 -36q-2 -6 1.5 -8.5t3.5 -4.5t-0.5 -5.5t-0.5 -6.5v-5q-2 -20 -11 -101t-10 -125q-2 -65 9 -109v-6v-5.5t1.5 -6.5t6.5 -8q1 -1 -3.5 -11t7.5 -12q4 -1 7 -3t4 -3t4 -5t4 -5q24 -28 61 -37q30 -7 57 2.5 t47 31t34 46t25 54.5q1 10 11 69q0 2 1 4t2 3t2 2.5t1 3.5q0 1 -1 9t-1 18.5t4 19.5q1 3 2 7t1 7.5v8.5v8l3 21q0 3 2.5 9t3.5 10t-1 9q-5 7 -5.5 12t1.5 10.5t2 7.5q8 99 5 111q-2 6 -5.5 10.5t-8 6t-8.5 -1.5q8 12 23.5 25.5t27.5 16.5q33 9 33 -82q0 -2 -3.5 -7t-4 -8 t3.5 -9q2 -1 2 -4.5t-0.5 -8.5t-0.5 -7q-4 -56 -14 -116l-12 -82q-1 -4 -4 -11.5t-3.5 -12t1.5 -13.5q2 -8 1.5 -12.5t-3 -13.5t-3.5 -13q-2 -16 -2 -33t1.5 -32.5t6.5 -33.5t13.5 -27t22 -12.5t32.5 9.5q9 6 9 2l-6 -7q-10 -8 -42 -29q-94 -57 -94 84v16q-43 -61 -111 -99 q-45 -24 -84 -24q-53 0 -85 43q-18 24 -31 63q-1 2 0 6.5t0 8.5t-5 7q4 5 4.5 9.5t-1.5 7.5l-5 7.5t-3 7.5q-2 26 -2 39q0 23 2.5 49.5t5 47.5t6 47.5t5.5 44.5q0 2 2.5 6.5t4 9t0.5 5.5q-4 4 -4.5 6t1 5.5t1.5 5.5q3 4 4 7.5t0 5.5t-1.5 5t-0.5 5q1 11 1 32q0 17 -1.5 29 t-6.5 23.5t-14.5 11.5t-24.5 -7q-8 -5 -9 -1q-1 2 4 6zM214 652q12 15 20 26q1 1 4 2.5t4.5 3.5t1.5 7q0 3 2 5.5t6 5.5t5 5q1 1 8 9t11 13q3 4 23 4t24 -4l25 -32l1 -3t5 -5q2 -1 9 -10q1 -1 2 -3t1.5 -4t2 -3.5t4.5 -2.5q2 -1 3.5 -2.5t3 -4.5t2.5 -4q-18 -4 -26 1 q-10 6 -49 60l-8 -11l-2.5 0.5t-5 -2t-2.5 -6.5q0 -2 -1.5 -5l-2.5 -5l-2 -2l-22 -28q-6 -9 -13 -9h-4.5t-4 0.5t-2.5 0.5q-2 0 -13 1t-10 2z" />
<glyph unicode="&#xdc;" horiz-adv-x="542" d="M57 539q8 7 19 14.5t27 15.5t28.5 9t22.5 -6q10 -10 12.5 -28t-4.5 -36q-2 -6 1.5 -8.5t3.5 -4.5t-0.5 -5.5t-0.5 -6.5v-5q-2 -20 -11 -101t-10 -125q-2 -65 9 -109v-6v-5.5t1.5 -6.5t6.5 -8q1 -1 -3.5 -11t7.5 -12q4 -1 7 -3t4 -3t4 -5t4 -5q24 -28 61 -37q30 -7 57 2.5 t47 31t34 46t25 54.5q1 10 11 69q0 2 1 4t2 3t2 2.5t1 3.5q0 1 -1 9t-1 18.5t4 19.5q1 3 2 7t1 7.5v8.5v8l3 21q0 3 2.5 9t3.5 10t-1 9q-5 7 -5.5 12t1.5 10.5t2 7.5q8 99 5 111q-2 6 -5.5 10.5t-8 6t-8.5 -1.5q8 12 23.5 25.5t27.5 16.5q33 9 33 -82q0 -2 -3.5 -7t-4 -8 t3.5 -9q2 -1 2 -4.5t-0.5 -8.5t-0.5 -7q-4 -56 -14 -116l-12 -82q-1 -4 -4 -11.5t-3.5 -12t1.5 -13.5q2 -8 1.5 -12.5t-3 -13.5t-3.5 -13q-2 -16 -2 -33t1.5 -32.5t6.5 -33.5t13.5 -27t22 -12.5t32.5 9.5q9 6 9 2l-6 -7q-10 -8 -42 -29q-94 -57 -94 84v16q-43 -61 -111 -99 q-45 -24 -84 -24q-53 0 -85 43q-18 24 -31 63q-1 2 0 6.5t0 8.5t-5 7q4 5 4.5 9.5t-1.5 7.5l-5 7.5t-3 7.5q-2 26 -2 39q0 23 2.5 49.5t5 47.5t6 47.5t5.5 44.5q0 2 2.5 6.5t4 9t0.5 5.5q-4 4 -4.5 6t1 5.5t1.5 5.5q3 4 4 7.5t0 5.5t-1.5 5t-0.5 5q1 11 1 32q0 17 -1.5 29 t-6.5 23.5t-14.5 11.5t-24.5 -7q-8 -5 -9 -1q-1 2 4 6zM252 677q0 1 2.5 3.5t6 5t7.5 5t7.5 4.5t4.5 2l4 -4q1 -1 0.5 -3l-0.5 -2q6 -2 6 -5t1 -5t2.5 -3.5l1.5 -1.5q0 -2 -12.5 -11t-15.5 -9q-2 0 -2.5 2.5t0 5t-0.5 3.5q0 1 -2.5 1.5t-3.5 1.5zM310 677q0 2 12.5 11 t15.5 9l1.5 -2t3 -4.5t2.5 -3.5t0 -3v-2q6 -2 6 -5q0 -4 2 -4h1q0 -2 -13 -11t-16 -9l-10 15v-1zM315 667q1 -1 1 0h-1z" />
<glyph unicode="&#xdd;" horiz-adv-x="434" d="M-9 537q33 36 60 36q23 0 45 -25q46 -52 91 -146q1 -2 2.5 -3.5t2 -3t1 -5t0.5 -11.5q0 -17 12 -24q5 -3 7.5 -6.5t3.5 -7.5t2 -6q4 -9 12 -24.5t13.5 -28t8.5 -24.5q57 53 86 95q2 2 6 4t6.5 5.5t1.5 11.5q0 4 2 8t6 8.5t6 7.5q16 32 20 57q1 4 -2 17.5t1 16.5 q7 10 -1 14q-4 2 -5 4q-9 25 -39 41.5t-52 1.5l-8 -5.5t-15.5 -9.5t-8.5 -3q-1 3 11.5 13.5t15.5 12.5q51 35 80 38q18 3 24 -6q5 -8 8 -8t5 3t5 2q29 -16 38 -58q-5 -4 -2 -20.5t2 -21.5q-3 -19 -10 -34q-28 -59 -80 -120q-3 -4 -6.5 -1.5t-7 1t-4.5 -10.5q0 -3 -1.5 -6.5 t-4.5 -7.5t-5 -7t-6.5 -7t-6.5 -6t-6.5 -6t-5.5 -5q-36 -34 -44 -42v-8q-5 -73 -4 -94q0 -1 2.5 -11.5t-1.5 -15.5q-2 -4 1.5 -12t3.5 -10q-4 -9 -5 -11.5t3 -9t5 -7.5q10 -32 32 -35q-6 -8 -21 -20.5t-25 -11.5q-13 1 -21 13q-2 2 -4.5 11t-6.5 12t-5.5 7.5t-1 12.5t0.5 11 q-3 26 -3 53q0 18 3.5 62t-0.5 54q0 4 -6 16t-4 20q0 1 1.5 4t1.5 4.5t-2.5 4t-7.5 4.5q-5 11 -61 115q-10 16 -10 28q-1 15 -10 18t-10 5q1 8 -2.5 14t-10.5 12.5t-9 10.5q-14 22 -32 40q-30 30 -51 12q-3 -2 -5 -0.5t1 4.5zM158 661q30 12 66 45q2 2 8 2t6 7q0 2 11 13 l7 7q5 0 18 -9.5t24 -18.5t10 -10q-28 -25 -29 -26q-2 -2 -5.5 -0.5t-6.5 1t-3 -5.5q0 -10 -21 -17q-5 -2 -9 -5.5t-5 -4.5l-25 -11q-4 0 -15.5 8.5t-21.5 16.5z" />
<glyph unicode="&#xde;" horiz-adv-x="501" d="M28 530q94 94 118 55q15 -25 17 -72q51 23 105 26q29 1 57.5 -5.5t53.5 -20.5t44 -33q2 -2 2 -5.5t3 -7t11 -6.5q2 -1 3.5 -2t2.5 -2.5t1.5 -4t1 -4t1.5 -3.5l2 -4q17 -32 17 -72q0 -11 -4 -35q0 -1 -5.5 -9.5t-1.5 -14.5v-7.5t-4 -9t-5 -8.5q-33 -73 -101.5 -117.5 t-146.5 -44.5q-38 0 -71 10q-1 -4 -1 -11q-5 -13 -5 -18.5t3 -15t3 -12.5q3 -31 12 -30q-3 -2 -23.5 -21.5t-30.5 -20.5q-22 -4 -22 68q0 27 3 63.5t6.5 63.5t7.5 54.5t4 28.5q1 6 3.5 17.5t3.5 17.5t-1 19q-1 7 -0.5 11t2 11t1.5 11q1 5 3.5 15t3 15t-2.5 18q-5 5 -2 31.5 t3 32.5q-2 42 -9 56q-3 6 -11.5 9.5t-17.5 0.5t-31 -22q-5 -5 -6 -1q0 2 3 6zM130 195l11 -5q2 -1 4.5 -4t5.5 -4t9 0q2 1 4 -1.5t3.5 -6t3.5 -6t4 -1.5q6 3 12 3.5t10 0t10.5 -2t9.5 -1.5q19 -3 39 -3q31 0 55 7q46 12 72.5 59t24.5 100q-4 102 -93 146q-3 1 -6.5 1.5 t-5.5 1.5t-6 3.5t-8 8.5q-3 4 -8.5 4t-12.5 -1t-11 0q-4 7 -9 7.5t-13 -2t-12 -2.5q-36 0 -60 -6q-1 -17 -4.5 -46t-3.5 -31q-10 -66 -19 -163l-4 -47q0 -3 -2 -9z" />
<glyph unicode="&#xdf;" horiz-adv-x="383" d="M4 -229q15 13 22 31q19 48 19 126q0 22 -2 66.5t-2 65.5v118q0 3 3 7t3 8.5t-6 10.5q-4 5 -4 12.5t2 17t2 14.5q0 9 0.5 26.5t0.5 26.5q0 6 3.5 16t4 15.5t-4.5 18.5q-2 8 -2 12t2.5 13.5t2.5 13.5q1 10 3 38t3 39.5t3.5 35t6 38.5t10 34.5t14.5 37.5q23 50 73.5 91 t101.5 41q46 0 74.5 -41t28.5 -86q0 -62 -44 -119q-11 -15 -37.5 -37t-41.5 -42.5t-15 -46.5q0 -61 60 -132q1 -1 9 -5.5t10 -15.5q1 -6 5.5 -11t11.5 -10.5t10 -9.5q3 -3 10.5 -10t11 -13t2.5 -15q-1 -7 4 -18.5t5 -17.5q0 -45 -46 -86.5t-91 -41.5q-14 0 -31 5 q-2 1 -6.5 2t-7 1.5t-6 2t-5 3t-1.5 4.5q-1 12 -12.5 17t-12.5 7q-18 26 -18 56q0 9 25 21q6 3 12 8t9 8t5 3q3 0 3 -7.5t3 -21.5t13 -26q36 -43 75 -43q37 0 37 40q0 33 -22 66q-5 8 -50 62l-1 13q-1 12 -19 18q-10 3 -22 24q-27 44 -27 79q0 26 14 48t39 48t42.5 43.5 t31.5 48.5t14 68q0 33 -15 60q-1 2 -1.5 9.5t-4.5 12.5t-16 5q-6 0 -15 10t-11 12q-25 17 -46 17q-46 0 -76 -101q-2 -5 -2.5 -13t-3 -14.5t-11.5 -15.5q-6 -1 -3.5 -19.5t1.5 -21.5q-15 -87 -15 -244q0 -7 -2 -19.5t-2 -23t4 -18.5q3 -7 3 -15.5t-1.5 -19t-1.5 -16.5 q0 -5 -2 -12.5t-2 -15t4 -16.5q2 -4 2 -8.5t-1 -10t-1 -8.5v-79q0 -7 -2.5 -20t-2.5 -24t6 -23q3 -6 3.5 -13.5t-1.5 -18t-2 -14.5q-5 -84 -52 -122q-19 -16 -30 -20t-10 3q0 1 2 3z" />
<glyph unicode="&#xe0;" horiz-adv-x="287" d="M21 143q9 116 75 191l4.5 2.5t6.5 9.5q1 3 3.5 4t6.5 3t7 7q4 5 19 12q18 9 39.5 13.5t43 0t31.5 -20.5q1 -1 -1 -9.5t4 -10.5q9 -6 5 -38q0 -1 -13 -74q-1 -3 -4 -10.5t-3.5 -11t2.5 -12.5q2 -5 1.5 -7.5t-2.5 -8t-2 -8.5q-4 -38 -4 -56q0 -79 35 -79q-3 -1 -21.5 -19.5 t-28.5 -18.5q-15 0 -25 15q-9 11 -7 13q7 3 1 12t-6 10q-2 11 -2 34q-23 -36 -62 -70t-63 -18q-22 14 -32 51q0 1 2 9.5t-6 9.5q-3 1 -3.5 4t0 7.5t0.5 6.5q-3 30 -1 57zM72 143q4 -5 5.5 -12t1.5 -16v-11q-3 -8 -2.5 -11t3.5 -8.5t4 -7.5q6 -22 15 -35t16 -9q20 11 42 50.5 t36 86.5q8 39 13 82q0 3 2 6.5t3 6.5t1 7.5t-3 9.5q-2 4 0.5 14.5t-0.5 12.5q-5 3 -4 11.5t1 9.5q-9 22 -38 22q-30 0 -49 -23q-31 -35 -39 -126q-2 -14 -2 -21q0 -6 -4.5 -14t-5.5 -12t4 -13zM108 507l1.5 1t4 3l5 4t6.5 4.5t8 5.5q3 2 8 6.5t7.5 7t6.5 4t6 -1.5 q22 -22 46 -40q10 -7 14 -16q2 -5 5.5 -7t7.5 -2.5t6 -1.5q3 -1 7.5 -4.5t6.5 -4.5l-4 -4t-9 -8.5t-6 -4.5t-4 -3t-5 -4.5t-6.5 -3.5t-9.5 -2q-17 1 -38 15q-1 1 -4 2.5t-4.5 2.5t-4 3t-4 3.5t-2.5 4t-1 5.5q-1 9 -5.5 10.5t-9 -0.5t-7.5 1q-1 1 -5 4.5t-6.5 5.5t-5.5 5 t-4 5.5t-1 4.5z" />
<glyph unicode="&#xe1;" horiz-adv-x="287" d="M21 143q9 116 75 191l4.5 2.5t6.5 9.5q1 3 3.5 4t6.5 3t7 7q4 5 19 12q18 9 39.5 13.5t43 0t31.5 -20.5q1 -1 -1 -9.5t4 -10.5q9 -6 5 -38q0 -1 -13 -74q-1 -3 -4 -10.5t-3.5 -11t2.5 -12.5q2 -5 1.5 -7.5t-2.5 -8t-2 -8.5q-4 -38 -4 -56q0 -79 35 -79q-3 -1 -21.5 -19.5 t-28.5 -18.5q-15 0 -25 15q-9 11 -7 13q7 3 1 12t-6 10q-2 11 -2 34q-23 -36 -62 -70t-63 -18q-22 14 -32 51q0 1 2 9.5t-6 9.5q-3 1 -3.5 4t0 7.5t0.5 6.5q-3 30 -1 57zM72 143q4 -5 5.5 -12t1.5 -16v-11q-3 -8 -2.5 -11t3.5 -8.5t4 -7.5q6 -22 15 -35t16 -9q10 5 21.5 19 t21.5 32.5t19 40.5t16 44q8 44 13 83q0 3 2 6.5t3 6.5t1 7.5t-3 9.5q-2 4 0.5 14.5t-0.5 12.5q-5 3 -4 11.5t1 9.5q-9 22 -38 22q-30 0 -49 -23q-31 -35 -39 -126q-2 -14 -2 -21q0 -6 -4.5 -14t-5.5 -12t4 -13zM100 469q30 12 66 45q2 2 4.5 2h4.5t3.5 1.5t1.5 5.5 q0 2 11 13l2 2q3 4 5 5q5 0 18 -9.5t24 -18.5t10 -10q-28 -25 -29 -26t-3.5 -0.5l-5 1t-4.5 -0.5t-2 -5q0 -10 -21 -17q-5 -2 -9 -5.5t-5 -4.5l-25 -11q-4 0 -15.5 8.5t-21.5 16.5z" />
<glyph unicode="&#xe2;" horiz-adv-x="287" d="M21 143q9 116 75 191l4.5 2.5t6.5 9.5q1 3 3.5 4t6.5 3t7 7q4 5 19 12q18 9 39.5 13.5t43 0t31.5 -20.5q1 -1 -1 -9.5t4 -10.5q9 -6 5 -38q0 -1 -13 -74q-1 -3 -4 -10.5t-3.5 -11t2.5 -12.5q2 -5 1.5 -7.5t-2.5 -8t-2 -8.5q-4 -38 -4 -56q0 -79 35 -79q-3 -1 -21.5 -19.5 t-28.5 -18.5q-15 0 -25 15q-9 11 -7 13q7 3 1 12t-6 10q-2 11 -2 34q-23 -36 -62 -70t-63 -18q-22 14 -32 51q0 1 2 9.5t-6 9.5q-3 1 -3.5 4t0 7.5t0.5 6.5q-3 30 -1 57zM72 143q4 -5 5.5 -12t1.5 -16v-11q-3 -8 -2.5 -11t3.5 -8.5t4 -7.5q6 -22 15 -35t16 -9q20 11 42 50.5 t36 86.5q8 39 13 82q0 3 2 6.5t3 6.5t1 7.5t-3 9.5q-2 4 0.5 14.5t-0.5 12.5q-5 3 -4 11.5t1 9.5q-9 22 -38 22q-30 0 -49 -23q-31 -35 -39 -126q-2 -14 -2 -21q0 -6 -4.5 -14t-5.5 -12t4 -13zM109 438q12 15 20 26q1 1 4 2.5t4.5 3.5t1.5 7q0 3 2 5.5t6 5.5t5 5q1 1 8 9 t11 13q3 4 23 4t24 -4l25 -32q1 -1 1 -2.5t1 -3t4 -2.5q2 -1 9 -10q1 -1 3 -6t7 -7q3 -1 7 -7q1 -3 2 -4q-18 -4 -26 1q-10 6 -49 60l-8 -11l-8 -2l-2 -6q0 -2 -1.5 -5l-2.5 -5l-2 -2l-22 -28q-6 -9 -13 -9q-3 0 -6.5 0.5t-4.5 0.5t-6.5 0.5t-11 1.5z" />
<glyph unicode="&#xe3;" horiz-adv-x="287" d="M21 143q9 116 75 191l4.5 2.5t6.5 9.5q1 3 3.5 4t6.5 3t7 7q4 5 19 12q18 9 39.5 13.5t43 0t31.5 -20.5q1 -1 -1 -9.5t4 -10.5q9 -6 5 -38q0 -1 -13 -74q-1 -3 -4 -10.5t-3.5 -11t2.5 -12.5q2 -5 1.5 -7.5t-2.5 -8t-2 -8.5q-4 -38 -4 -56q0 -79 35 -79q-3 -1 -21.5 -19.5 t-28.5 -18.5q-15 0 -25 15q-9 11 -7 13q7 3 1 12t-6 10q-2 11 -2 34q-23 -36 -62 -70t-63 -18q-22 14 -32 51q0 1 2 9.5t-6 9.5q-3 1 -3.5 4t0 7.5t0.5 6.5q-3 30 -1 57zM72 143q4 -5 5.5 -12t1.5 -16v-11q-3 -8 -2.5 -11t3.5 -8.5t4 -7.5q6 -22 15 -35t16 -9q20 11 42 50.5 t36 86.5q8 39 13 82q0 3 2 6.5t3 6.5t1 7.5t-3 9.5q-2 4 0.5 14.5t-0.5 12.5q-5 3 -4 11.5t1 9.5q-9 22 -38 22q-30 0 -49 -23q-31 -35 -39 -126q-2 -14 -2 -21q0 -6 -4.5 -14t-5.5 -12t4 -13zM87 442q9 12 22.5 23.5t31 20t31.5 8.5q7 0 43 -9q14 -5 16 -7q2 -3 5 -3 t6.5 1.5t4.5 1.5q24 -2 37 13q5 5 6.5 2.5t-1.5 -7.5q-8 -13 -36 -29.5t-43 -16.5t-35 5q-10 2 -14 8q-1 3 -7.5 1.5t-7.5 -1.5q-12 3 -22 3q-17 0 -29 -15q-5 -6 -9 -4q-2 1 1 5z" />
<glyph unicode="&#xe4;" horiz-adv-x="287" d="M21 143q9 116 75 191l4.5 2.5t6.5 9.5q1 3 3.5 4t6.5 3t7 7q4 5 19 12q18 9 39.5 13.5t43 0t31.5 -20.5q1 -1 -1 -9.5t4 -10.5q9 -6 5 -38q0 -1 -13 -74q-1 -3 -4 -10.5t-3.5 -11t2.5 -12.5q2 -5 1.5 -7.5t-2.5 -8t-2 -8.5q-4 -38 -4 -56q0 -79 35 -79q-3 -1 -21.5 -19.5 t-28.5 -18.5q-15 0 -25 15q-9 11 -7 13q7 3 1 12t-6 10q-2 11 -2 34q-23 -36 -62 -70t-63 -18q-22 14 -32 51q0 1 2 9.5t-6 9.5q-3 1 -3.5 4t0 7.5t0.5 6.5q-3 30 -1 57zM72 143q4 -5 5.5 -12t1.5 -16v-11q-3 -8 -2.5 -11t3.5 -8.5t4 -7.5q6 -22 15 -35t16 -9q20 11 42 50.5 t36 86.5q8 39 13 82q0 3 2 6.5t3 6.5t1 7.5t-3 9.5q-2 4 0.5 14.5t-0.5 12.5q-5 3 -4 11.5t1 9.5q-9 22 -38 22q-30 0 -49 -23q-31 -35 -39 -126q-2 -14 -2 -21q0 -6 -4.5 -14t-5.5 -12t4 -13zM151 468q0 2 12.5 11t15.5 9l4 -4q1 0 0.5 -2t-0.5 -3q6 -2 6 -5t1 -5t2.5 -3.5 l1.5 -1.5q0 -2 -12.5 -11t-15.5 -9q-2 0 -2.5 2.5t0 5t-0.5 3.5q0 1 -2.5 1.5t-3.5 1.5zM209 468q0 1 6 6t13 9.5t9 4.5l1 -1.5l2 -3l2 -3t2 -2.5t0 -3v-2q6 -2 6 -5q0 -4 2 -4h1q0 -2 -13 -11t-16 -9l-10 15v-1zM214 458q1 -1 1 0h-1z" />
<glyph unicode="&#xe5;" horiz-adv-x="287" d="M21 143q9 116 75 191l4 2q5 3 7 10q1 3 7 5.5t10 8.5q2 3 12 9q-6 2 -6 6q-2 10 -9 12.5t-8 3.5q-1 2 -1 5t-2 6t-8 5q-3 1 -8 14q-9 21 -9 38q0 42 34 76q50 50 94 50q39 0 62 -46q7 -11 4 -22q-1 -5 0.5 -6.5t4 -1.5t2.5 -2q2 -12 2 -19q0 -25 -18.5 -54t-45.5 -49 q22 -5 33 -20q1 -1 -1 -9.5t4 -10.5q9 -6 5 -38q0 -1 -13 -74q-1 -3 -4 -10.5t-3.5 -11t2.5 -12.5q2 -5 1.5 -7.5t-2.5 -8t-2 -8.5q-4 -38 -4 -56q0 -79 35 -79q-3 -1 -21.5 -19.5t-28.5 -18.5q-15 0 -25 15q-9 11 -7 13q7 3 1 12t-6 10q-2 11 -2 34q-23 -36 -62 -70 t-63 -18q-22 14 -32 51q0 1 2 9.5t-6 9.5q-3 1 -3.5 4t0 7.5t0.5 6.5q-3 30 -1 57zM72 143q4 -5 5.5 -12t1.5 -16v-11q-3 -8 -2.5 -11t3.5 -8.5t4 -7.5q6 -22 15 -35t16 -9q10 5 21.5 19t21.5 32.5t19 40.5t16 44q8 44 13 83q0 3 2 6.5t3 6.5t1 7.5t-3 9.5q-2 4 0.5 14.5 t-0.5 12.5q-5 3 -4 11.5t1 9.5q-9 22 -38 22q-30 0 -49 -23q-31 -35 -39 -126q-2 -14 -2 -21q0 -6 -4.5 -14t-5.5 -12t4 -13zM124 484q0 -37 26 -69q1 -1 0.5 -9.5t6.5 -5.5q6 0 9 -0.5t6 -3.5t4 -3q30 -15 50 7t23 56q3 26 -10 54v4t0.5 4t-0.5 4t-4 3t-14 12 q-21 22 -45 21q-16 -1 -27.5 -9.5t-16.5 -21t-6.5 -22.5t-1.5 -21z" />
<glyph unicode="&#xe6;" horiz-adv-x="422" d="M21 143q9 116 75 191l4.5 2.5t6.5 9.5q1 3 3.5 4t6.5 3t7 7q4 5 19 12q18 9 39.5 13.5t43 0t31.5 -20.5q1 -1 -1 -9.5t4 -10.5q5 -4 7 -12q24 22 57 39q14 7 30 7q27 0 42 -19.5t8 -50.5q-5 -16 -12 -19q-8 -2 -4.5 -10t2.5 -9q-24 -49 -77 -87q-2 -1 -6.5 -5.5t-8.5 -7 t-8 -2.5q-8 -1 -13 -6t-6 -5l-30 -15q3 -7 8 -9q15 -8 6 -30q-1 -6 -1 -7.5t3 -4.5t4 -5q20 -46 55 -46q16 0 33 11q11 7 42 34q7 4 9 1l-3 -5q-109 -105 -161 -74q-1 1 -4 9t-13 9q-4 0 -7 6t-5.5 15t-3.5 11v2q-6 10 -9 35v5q-22 -37 -45 -60q-60 -60 -88 -42 q-22 14 -32 51q0 1 2 9.5t-6 9.5q-3 1 -3.5 4t0 7.5t0.5 6.5q-3 30 -1 57zM72 143q4 -5 5.5 -12t1.5 -16v-11q-3 -8 -2.5 -11t3.5 -8.5t4 -7.5q6 -22 15 -35t16 -9q20 11 41.5 49.5t36.5 85.5q2 20 4 30q0 3 2 7q2 9 4 25q-3 6 2 15v1q1 2 1 6q0 3 2 6.5t3 6.5t1 7.5t-3 9.5 q-2 4 0.5 14.5t-0.5 12.5q-5 3 -4 11.5t1 9.5q-9 22 -38 22q-30 0 -49 -23q-31 -35 -39 -126q-2 -14 -2 -21q0 -6 -4.5 -14t-5.5 -12t4 -13zM242 157l5 3q52 22 80 57q2 2 6.5 5.5t7 6t1.5 5.5q-3 8 2.5 21t5.5 17q5 47 -20 63q-11 6 -20.5 6.5t-17 -6t-13.5 -15.5 t-10.5 -23t-8 -27t-6 -28t-3.5 -26l-2 -22q0 -16 -1 -18q-4 -5 -5 -11l-1 -1v-7zM252 18l1 1z" />
<glyph unicode="&#xe7;" horiz-adv-x="230" d="M20 134q0 2 4.5 12t-0.5 13q-3 5 -3.5 11t0.5 11t2.5 12t2.5 10q8 51 28.5 85.5t61.5 63.5q36 25 66 25q25 0 39 -20q3 -5 6 -19.5t8 -24.5q1 -3 2 -5t-2.5 -4.5t-6.5 -3.5t-8 -3.5t-8 -3.5l-26 -13l-16 -44q-2 -6 -4.5 -7t-3.5 2t0 7q5 21 18 42q-5 16 -10 28 q-1 1 1 3.5t3.5 5t-0.5 4.5t-8 3q-4 1 -12 9q-12 15 -24 15q-24 0 -43 -69q-1 -3 -0.5 -6t0 -5.5t-2.5 -3.5q-7 -3 -7.5 -6.5t1.5 -8t2 -6.5q-4 -32 -4 -49q0 -57 14 -99q1 -2 -1 -8t-0.5 -9t9.5 -3q4 0 6 -3.5t3.5 -9t3.5 -7.5q17 -20 39 -20q21 0 49 19q19 13 20 8 q0 -6 -18 -19q-62 -46 -106 -46q-51 0 -69 80q-6 22 -6 57zM53 -200q4 3 31 23t43.5 38t16.5 34q0 29 -44 32q-18 0 -26 -8q-2 -2 -4.5 -2t-3 1.5t0.5 4.5q7 10 25 20.5t45 12.5q19 2 33 -5.5t14 -23.5q0 -29 -35 -64q-1 -1 -2.5 -4t-2.5 -4.5t-4 -3t-6 -2.5q-8 -2 -9.5 -6 t-2.5 -5q-12 -10 -26 -19.5t-27.5 -18l-13.5 -8.5q-5 -3 -5 0.5t3 7.5z" />
<glyph unicode="&#xe8;" horiz-adv-x="251" d="M21 139q0 27 5 59q1 4 5 10t5 9.5t-3 11.5q-2 8 -1 11.5t7 12.5t7 12q29 70 107 107q14 7 30 7q27 0 42 -19.5t8 -50.5q-5 -16 -12 -19q-8 -2 -4.5 -10t2.5 -9q-24 -49 -77 -87q-2 -1 -6.5 -5.5t-8.5 -7t-8 -2.5q-8 -1 -13 -6t-6 -5l-30 -15q3 -7 8 -9q15 -8 6 -30 q-1 -6 -1 -7.5t3 -4.5t4 -5q20 -46 55 -46q17 0 33 11q10 7 42 34q7 4 9 1l-3 -5q-109 -105 -161 -74q-1 1 -4 9t-13 9q-4 0 -6 4.5t-4 11.5t-3 10q-14 36 -14 87zM70 157l6 3q52 22 80 57q2 2 6.5 5.5t7 6t1.5 5.5q-3 8 2.5 21t5.5 17q5 47 -20 63q-15 7 -26.5 6t-20.5 -15 t-14.5 -29t-10 -36t-6.5 -36.5t-3 -30.5q0 -16 -1 -18q-5 -8 -7 -19zM85 491l3 3q4 2 10.5 6.5t11.5 8.5q3 2 8 6.5t7.5 7t6.5 4t6 -1.5q22 -22 46 -40q10 -7 14 -16q2 -5 5.5 -7t7.5 -2.5t6 -1.5q3 -1 7.5 -4.5t6.5 -4.5l-4 -4q-4 -4 -9 -8.5t-6 -4.5t-4 -3t-5 -4.5 t-6.5 -3.5t-9.5 -2q-17 1 -38 15q-1 1 -4 2.5t-4.5 2.5t-4 3t-4 3.5t-2.5 4t-1 5.5q-1 9 -5.5 10.5t-9 -0.5t-7.5 1q-23 20 -22 25z" />
<glyph unicode="&#xe9;" horiz-adv-x="251" d="M21 139q0 27 5 59q1 4 5 10t5 9.5t-3 11.5q-2 8 -1 11.5t7 12.5t7 12q29 70 107 107q14 7 30 7q27 0 42 -19.5t8 -50.5q-5 -16 -12 -19q-8 -2 -4.5 -10t2.5 -9q-24 -49 -77 -87q-2 -1 -6.5 -5.5t-8.5 -7t-8 -2.5q-8 -1 -13 -6t-6 -5l-30 -15q3 -7 8 -9q15 -8 6 -30 q-1 -6 -1 -7.5t3 -4.5t4 -5q20 -46 55 -46q17 0 33 11q10 7 42 34q7 4 9 1l-3 -5q-109 -105 -161 -74q-1 1 -4 9t-13 9q-4 0 -6 4.5t-4 11.5t-3 10q-14 36 -14 87zM70 157l6 3q52 22 80 57q2 2 6.5 5.5t7 6t1.5 5.5q-3 8 2.5 21t5.5 17q5 47 -20 63q-15 7 -26.5 6t-20.5 -15 t-14.5 -29t-10 -36t-6.5 -36.5t-3 -30.5q0 -16 -1 -18q-5 -8 -7 -19zM88 457q30 12 66 45q2 2 4.5 2h4.5t3.5 1.5t1.5 5.5q0 2 11 13l7 7q3 0 9.5 -4t13.5 -9.5l14 -11t11 -9.5l4 -4q-28 -25 -29 -26q-2 -2 -5.5 -0.5t-6.5 1t-3 -5.5q0 -10 -21 -17q-5 -2 -9 -5.5t-5 -4.5 l-25 -11q-4 0 -15.5 8t-20.5 16z" />
<glyph unicode="&#xea;" horiz-adv-x="251" d="M21 139q0 27 5 59q1 4 5 10t5 9.5t-3 11.5q-2 8 -1 11.5t7 12.5t7 12q29 70 107 107q14 7 30 7q27 0 42 -19.5t8 -50.5q-5 -16 -12 -19q-8 -2 -4.5 -10t2.5 -9q-24 -49 -77 -87q-2 -1 -6.5 -5.5t-8.5 -7t-8 -2.5q-8 -1 -13 -6t-6 -5l-30 -15q3 -7 8 -9q15 -8 6 -30 q-1 -6 -1 -7.5t3 -4.5t4 -5q20 -46 55 -46q17 0 33 11q10 7 42 34q7 4 9 1l-3 -5q-109 -105 -161 -74q-1 1 -4 9t-13 9q-4 0 -6 4.5t-4 11.5t-3 10q-14 36 -14 87zM69 421q12 15 20 26q1 1 3 2t3.5 2t2.5 3t1 6q0 3 2 5.5t6 5.5t5 5q1 1 8 9t11 13q3 4 23 4t24 -4l25 -32 l1 -3q1 -3 5 -5q2 -1 9 -10q1 -1 3 -6t7 -7q1 0 9 -11q-18 -4 -26 1q-10 6 -49 60l-8 -11h-2q-3 1 -5.5 -1.5t-2.5 -6.5l-6 -12l-22 -28q-6 -9 -13 -9q-3 0 -6.5 0.5t-4.5 0.5zM70 157l6 3q52 22 80 57q2 2 5 4.5t5.5 4t4 4t0.5 4.5q-3 8 2.5 21t5.5 17q5 47 -20 63 q-11 6 -20.5 6.5t-17 -6t-13.5 -15.5t-10.5 -23t-8 -27t-6 -28t-3.5 -26l-2 -22q0 -16 -1 -18q-5 -8 -7 -19z" />
<glyph unicode="&#xeb;" horiz-adv-x="251" d="M21 139q0 27 5 59q1 4 5 10t5 9.5t-3 11.5q-2 8 -1 11.5t7 12.5t7 12q29 70 107 107q14 7 30 7q27 0 42 -19.5t8 -50.5q-5 -16 -12 -19q-8 -2 -4.5 -10t2.5 -9q-24 -49 -77 -87q-2 -1 -6.5 -5.5t-8.5 -7t-8 -2.5q-8 -1 -13 -6t-6 -5l-30 -15q3 -7 8 -9q15 -8 6 -30 q-1 -6 -1 -7.5t3 -4.5t4 -5q20 -46 55 -46q17 0 33 11q10 7 42 34q7 4 9 1l-3 -5q-109 -105 -161 -74q-1 1 -4 9t-13 9q-4 0 -6 4.5t-4 11.5t-3 10q-14 36 -14 87zM70 157l6 3q52 22 80 57q2 2 6.5 5.5t7 6t1.5 5.5q-3 8 2.5 21t5.5 17q5 47 -20 63q-15 7 -26.5 6t-20.5 -15 t-14.5 -29t-10 -36t-6.5 -36.5t-3 -30.5q0 -16 -1 -18q-5 -8 -7 -19zM117 452q0 2 12.5 11t15.5 9l4 -4q1 0 0 -2t0 -3q6 -2 6 -5t1 -5t2 -3l2 -2q0 -2 -12.5 -11t-15.5 -9q-2 0 -2.5 2.5t0 5t-0.5 3.5t-3 1.5t-3 1.5zM175 452q0 1 6 6t13 9.5t9 4.5l1.5 -2t3 -4.5t2.5 -3.5 t0 -3v-2q6 -2 6 -5q0 -4 2 -4h1q0 -2 -13 -11t-16 -9l-10 15v-1zM180 442q1 -1 1 0h-1z" />
<glyph unicode="&#xec;" horiz-adv-x="156" d="M5 529l3 3q4 2 10.5 6.5t11.5 8.5q3 2 8 6.5t7.5 7t6.5 4t6 -1.5q22 -22 46 -40q10 -7 14 -16q2 -5 5.5 -7t7.5 -2.5t6 -1.5q3 -1 7.5 -4.5t6.5 -4.5l-4 -4q-4 -4 -9 -8.5t-6 -4.5t-4 -3t-5 -4.5t-6.5 -3.5t-9.5 -2q-17 1 -38 15q-1 1 -4 2.5t-4.5 2.5t-4 3t-4 3.5 t-2.5 4t-1 5.5q-1 9 -5.5 10.5t-9 -0.5t-7.5 1q-23 20 -22 25zM34 94q0 6 4 70l5 43q0 2 4 6.5t2 7.5q-4 5 -4.5 11t2 14t2.5 11q6 7 6.5 11.5t-1.5 9t-2 7.5q1 10 4 43q2 20 0 28q-2 5 26.5 22.5t29.5 16.5q5 -6 3 -28q0 -4 -6.5 -12.5t0.5 -11.5q6 -6 -1 -47 q-3 -23 -8 -52t-7.5 -49t-3.5 -50q0 -1 1 -5t0.5 -7t-5.5 -6q-3 -3 -2 -5.5t3.5 -7.5t2.5 -8q2 -38 13 -60t40 -20q-1 0 -24 -19t-35 -19q-14 0 -26 12q-14 17 -16 25q-1 3 3.5 11t-0.5 9q-5 3 -7 5.5t-2 8v6.5q-1 9 -1 29z" />
<glyph unicode="&#xed;" horiz-adv-x="156" d="M25 485q30 12 66 45q2 2 4.5 2h4.5t3.5 1.5t1.5 5.5q0 2 11 13l7 7q3 0 9.5 -4t13.5 -9.5l14 -11t11 -9.5l4 -4q-28 -25 -29 -26q-2 -2 -5.5 -0.5t-6.5 1t-3 -5.5q0 -10 -21 -17q-5 -2 -9 -5.5t-5 -4.5l-25 -11q-4 0 -15.5 8t-21.5 16zM34 94q0 6 4 70l5 43q0 2 4 6.5 t2 7.5q-4 5 -4.5 11t2 14t2.5 11q6 7 6.5 11.5t-1.5 9t-2 7.5q1 10 4 43q2 20 0 28q-2 5 26.5 22.5t29.5 16.5q5 -6 3 -28q0 -4 -6.5 -12.5t0.5 -11.5q6 -6 -1 -47q-3 -23 -8 -52t-7.5 -49t-3.5 -50q0 -1 1 -5t0.5 -7t-5.5 -6q-3 -3 -2 -5.5t3.5 -7.5t2.5 -8q2 -38 13 -60 t40 -20q-1 0 -24 -19t-35 -19q-14 0 -26 12q-14 17 -16 25q-1 3 3.5 11t-0.5 9q-5 3 -7 5.5t-2 8v6.5q-1 9 -1 29z" />
<glyph unicode="&#xee;" horiz-adv-x="156" d="M22 454l9 14l7 12l4 3q4 3 4 10q0 3 2 5.5t4.5 5.5t3.5 5q2 3 7 10t7 11q3 4 18 4q16 0 19 -4l19 -31q1 -1 1.5 -3.5t3.5 -4.5q4 -3 7 -12t8 -11q2 -1 4 -5.5t3 -5.5q-14 -4 -21 1q-8 6 -38 60l-6 -11l-2 1q-2 0 -4 -2.5t-2 -6.5l-4 -12l-17 -28q-5 -9 -10 -9 q-2 0 -5 0.5t-4 0.5q-18 0 -18 3zM34 94q0 6 4 70l5 43q0 2 4 6.5t2 7.5q-4 5 -4.5 11t2 14t2.5 11q6 7 6.5 11.5t-1.5 9t-2 7.5q1 10 4 43q2 20 0 28q-2 5 26.5 22.5t29.5 16.5q5 -6 3 -28q0 -4 -6.5 -12.5t0.5 -11.5q6 -6 -1 -47q-3 -23 -8 -52t-7.5 -49t-3.5 -50 q0 -1 1 -5t0.5 -7t-5.5 -6q-3 -3 -2 -5.5t3.5 -7.5t2.5 -8q2 -38 13 -60t40 -20q-1 0 -24 -19t-35 -19q-14 0 -26 12q-14 17 -16 25q-1 3 3.5 11t-0.5 9q-5 3 -7 5.5t-2 8v6.5q-1 9 -1 29z" />
<glyph unicode="&#xef;" horiz-adv-x="156" d="M34 94q0 6 4 70l5 43q0 2 4 6.5t2 7.5q-4 5 -4.5 11t2 14t2.5 11q6 7 6.5 11.5t-1.5 9t-2 7.5q1 10 4 43q2 20 0 28q-2 5 26.5 22.5t29.5 16.5q5 -6 3 -28q0 -4 -6.5 -12.5t0.5 -11.5q6 -6 -1 -47q-3 -23 -8 -52t-7.5 -49t-3.5 -50q0 -1 1 -5t0.5 -7t-5.5 -6 q-3 -3 -2 -5.5t3.5 -7.5t2.5 -8q2 -38 13 -60t40 -20q-1 0 -24 -19t-35 -19q-14 0 -26 12q-14 17 -16 25q-1 3 3.5 11t-0.5 9q-5 3 -7 5.5t-2 8v6.5q-1 9 -1 29zM38 528q0 2 12.5 11t15.5 9l4 -4v-2v-3q6 -2 6 -5t1 -5t3 -3l1 -2q0 -2 -12.5 -11t-15.5 -9q-2 0 -2.5 2.5t0 5 t-0.5 3.5t-3.5 1.5t-2.5 1.5zM96 528q0 2 12.5 11t15.5 9l1.5 -2t3 -4.5t2.5 -3.5t0 -3v-2q6 -2 6 -5q0 -4 2 -4h1q0 -2 -13 -11t-16 -9l-10 15v-1zM101 518q1 -1 1 0h-1z" />
<glyph unicode="&#xf0;" horiz-adv-x="278" d="M21 175q5 67 31 118q1 2 9.5 9t8.5 19q0 4 2.5 7t6.5 6t6 5q22 24 54 42l14 7q-3 8 -10.5 31t-10.5 33l-46 -63q-18 2 -22 2l21 28l18 13v11l21 29q-1 4 -4.5 12t-4.5 12q-1 3 -0.5 5.5l1 5t-1.5 5t-7 3.5q-2 0 -3 2.5t-1.5 6.5t-1.5 5q-4 9 -12 21q-2 3 -2 7.5t2 8.5 t4.5 7.5t6 4.5t6.5 -1q27 -20 24 -34q-1 -5 5 -6t7 -2l13 -20l44 59l20 -1q-3 -5 -9 -13q-1 -1 -6 -4.5t-6 -6.5q-1 -5 -5 -12l-28 -39l15 -27l12 -24q6 -15 4 -19q-4 -7 4.5 -13.5l8.5 -6.5q19 -45 27 -68q23 -56 21 -127q-5 -72 -36 -126q-1 -2 -8.5 -4t-5.5 -12 q1 -4 -10 -17q-25 -29 -58 -47q-19 -11 -37 -11q-36 0 -58 46q-13 33 -14 39q0 2 -2.5 9t-2.5 13t-1.5 15.5t-1.5 11.5q-3 24 -1 45zM72 143q4 -3 6 -9.5t3.5 -16t2.5 -12.5q0 -1 2 -3.5t2.5 -3.5t-0.5 -4q-5 -6 -4.5 -10t3 -5.5t6.5 -3.5t5 -4t3 -7t3 -7l5 -2.5t4 -3.5 q10 -10 16 -14q13 -8 27 3.5t24 33.5q19 46 23 101v1q2 35 0 58q-5 34 -8 45q-1 2 0 5t1.5 5t-1 4.5t-6.5 3.5q-4 1 -5.5 4.5t-3 9t-2.5 7.5q-13 20 -30 29q-18 10 -30 1t-17 -22q-16 -40 -21 -73q0 -2 -2.5 -7t-1.5 -12v-7.5v-5.5t-0.5 -4t-0.5 -4q-2 -20 0 -46 q0 -3 -2.5 -8.5t-3 -8t2.5 -7.5z" />
<glyph unicode="&#xf1;" horiz-adv-x="290" d="M28 53q0 28 6 100q0 2 10 17q4 7 -2 8q-4 1 -5.5 4t-1 8.5t1.5 10.5t2.5 11t1.5 9q5 52 5 81q0 39 -10 40q5 6 13 13.5t19 15t19 9.5q4 1 6.5 -2t4.5 -9q4 -14 0 -18q-8 -5 -3 -7.5t5 -4.5q0 -14 -1 -21q5 4 19.5 17t23.5 19q2 1 9 1t11 9q4 10 22 16.5t32 6.5 q15 0 26 -7t17 -22.5t5 -38.5l-5 -35v-6t0.5 -7.5t-0.5 -6.5t-4 -4q-9 -3 -9.5 -7t2.5 -9t3 -8q-12 -76 -12 -121q0 -86 40 -86q-2 -1 -22.5 -20t-30.5 -17q-26 6 -35 47q0 2 3 7t4.5 8t-1.5 5q-10 3 -10 18q0 24 6 70q0 4 4.5 10t5 9.5t-5.5 12.5q-3 6 -2.5 9.5t3.5 10 t3 8.5q0 3 3.5 7t3.5 6.5t-4 8.5q-2 4 -2 6t2 7t2 7q3 27 3 43q0 23 -9.5 37t-26.5 14q-32 0 -75 -49q-1 -10 -6.5 -69t-7.5 -88q0 -2 1 -6.5t0.5 -8t-2.5 -5.5q-6 -6 -6 -9.5t2.5 -6t2.5 -4.5t1 -7t1 -8.5t-2 -5.5q-5 -7 -5 -10t3.5 -6.5t3.5 -5.5q3 -23 11 -26 q-4 -1 -8.5 -5t-11.5 -12q-9 -9 -14 -13t-12 -7.5t-11.5 2t-6.5 19.5q-3 16 -3 41zM50 442q9 12 22.5 23.5t31 20t31.5 8.5q7 0 43 -9q14 -5 16 -7q2 -3 5 -3t6.5 1.5t4.5 1.5q24 -2 37 13q6 6 7 1l-2 -6q-8 -13 -36 -29.5t-43 -16.5t-35 5q-10 2 -14 8q-1 3 -7.5 1.5 t-7.5 -1.5q-12 3 -22 3q-17 0 -29 -15q-5 -6 -9 -4q-2 1 1 5z" />
<glyph unicode="&#xf2;" horiz-adv-x="278" d="M21 175q11 145 118 206q21 12 37 12q17 0 30.5 -10.5t13.5 -27.5q0 -8 2.5 -9.5t6 0.5t5.5 -2q25 -55 23 -131q-11 -145 -118 -206q-19 -11 -37 -11q-36 0 -58 46q-1 2 -0.5 7t-2.5 13q-1 3 -5.5 9t-5.5 10q-1 3 2.5 7.5t4 7.5t-6.5 7q-5 2 -6.5 5.5t-1.5 12v9.5 q-3 24 -1 45zM68 232q1 -7 4 -12t3 -7q-7 -87 23 -142q1 -2 0.5 -7.5t0.5 -6.5t7 -3t7 -3q10 -10 16 -14q13 -8 27 3.5t24 33.5q19 46 23 101v1q2 35 0 58q0 2 3 6t2.5 7.5t-8.5 8.5q-3 2 -4 6.5t-0.5 8.5t-0.5 8q-1 2 0 5t1.5 5t-1 4.5t-6.5 3.5q-4 1 -5.5 4.5t-3 9 t-2.5 7.5q-13 20 -30 29q-18 10 -30 1t-17 -22q-16 -40 -21 -73q0 -2 -6.5 -8t-5.5 -13zM82 502l4 2q3 3 9.5 7.5t11.5 8.5q3 2 8 6.5t7.5 7t6.5 4t6 -1.5q22 -22 46 -40q10 -7 14 -16q2 -5 5.5 -7t7.5 -2.5t6 -1.5t6.5 -4.5t7.5 -4.5l-4 -4q-4 -4 -9 -8.5t-6 -4.5t-4 -3 t-5 -4.5t-6.5 -3.5t-9.5 -2q-17 1 -38 15q-1 1 -4 2.5t-4.5 2.5t-4 3t-4 3.5t-2.5 4t-1 5.5q-1 9 -5.5 10.5t-9 -0.5t-7.5 1q-23 20 -22 25z" />
<glyph unicode="&#xf3;" horiz-adv-x="278" d="M21 175q11 145 118 206q21 12 37 12q17 0 30.5 -10.5t13.5 -27.5q0 -8 2.5 -9.5t6 0.5t5.5 -2q25 -55 23 -131q-11 -145 -118 -206q-19 -11 -37 -11q-36 0 -58 46q-1 2 -0.5 7t-2.5 13q-1 3 -5.5 9t-5.5 10q-1 3 2.5 7.5t4 7.5t-6.5 7q-5 2 -6.5 5.5t-1.5 12v9.5 q-3 24 -1 45zM68 232q1 -7 4 -12t3 -7q-7 -87 23 -142q1 -2 0.5 -7.5t0.5 -6.5t7 -3t7 -3q10 -10 16 -14q13 -8 27 3.5t24 33.5q19 46 23 101v1q2 35 0 58q0 2 3 6t2.5 7.5t-8.5 8.5q-3 2 -4 6.5t-0.5 8.5t-0.5 8q-1 2 0 5t1.5 5t-1 4.5t-6.5 3.5q-4 1 -5.5 4.5t-3 9 t-2.5 7.5q-13 20 -30 29q-18 10 -30 1t-17 -22q-16 -40 -21 -73q0 -2 -6.5 -8t-5.5 -13zM75 468q30 12 66 45q2 2 4.5 2h4.5t3.5 1.5t1.5 5.5q0 2 11 13q1 1 2 2.5t2.5 2.5t2.5 2q3 0 9.5 -4t13.5 -9.5l14 -11t11 -9.5l4 -4q-28 -25 -29 -26q-2 -2 -5.5 -0.5t-6.5 1t-3 -5.5 q0 -10 -21 -17q-5 -2 -9 -5.5t-5 -4.5l-25 -11q-4 0 -15.5 8.5t-21.5 16.5z" />
<glyph unicode="&#xf4;" horiz-adv-x="278" d="M21 175q11 145 118 206q21 12 37 12q17 0 30.5 -10.5t13.5 -27.5q0 -8 2.5 -9.5t6 0.5t5.5 -2q25 -55 23 -131q-11 -145 -118 -206q-19 -11 -37 -11q-36 0 -58 46q-1 2 -0.5 7t-2.5 13q-1 3 -5.5 9t-5.5 10q-1 3 2.5 7.5t4 7.5t-6.5 7q-5 2 -6.5 5.5t-1.5 12v9.5 q-3 24 -1 45zM68 232q1 -7 4 -12t3 -7q-7 -87 23 -142q1 -2 0.5 -7.5t0.5 -6.5t7 -3t7 -3q10 -10 16 -14q13 -8 27 3.5t24 33.5q19 46 23 101v1q2 35 0 58q0 2 3 6t2.5 7.5t-8.5 8.5q-3 2 -4 6.5t-0.5 8.5t-0.5 8q-1 2 0 5t1.5 5t-1 4.5t-6.5 3.5q-4 1 -5.5 4.5t-3 9 t-2.5 7.5q-13 20 -30 29q-18 10 -30 1t-17 -22q-16 -40 -21 -73q0 -2 -6.5 -8t-5.5 -13zM77 438q12 15 20 26q1 1 3 2t3.5 2t2.5 3t1 6q0 3 2 5.5t6 5.5t5 5q1 1 8 9t11 13q3 4 23 4t24 -4l25 -32l1 -3q1 -3 5 -5q2 -1 9 -10q1 -1 3 -6t7 -7q1 0 9 -11q-18 -4 -26 1 q-10 6 -49 60l-8 -11l-2 1q-3 0 -5.5 -2.5t-2.5 -6.5l-6 -12l-22 -28q-6 -9 -13 -9q-3 0 -6.5 0.5t-4.5 0.5z" />
<glyph unicode="&#xf5;" horiz-adv-x="278" d="M21 175q11 145 118 206q21 12 37 12q17 0 30.5 -10.5t13.5 -27.5q0 -8 2.5 -9.5t6 0.5t5.5 -2q25 -55 23 -131q-11 -145 -118 -206q-19 -11 -37 -11q-36 0 -58 46q-1 2 -0.5 7t-2.5 13q-1 3 -5.5 9t-5.5 10q-1 3 2.5 7.5t4 7.5t-6.5 7q-5 2 -6.5 5.5t-1.5 12v9.5 q-3 24 -1 45zM68 232q1 -7 4 -12t3 -7q-7 -87 23 -142q1 -2 0.5 -7.5t0.5 -6.5t7 -3t7 -3q10 -10 16 -14q13 -8 27 3.5t24 33.5q19 46 23 101v1q2 35 0 58q0 2 3 6t2.5 7.5t-8.5 8.5q-3 2 -4 6.5t-0.5 8.5t-0.5 8q-1 2 0 5t1.5 5t-1 4.5t-6.5 3.5q-4 1 -5.5 4.5t-3 9 t-2.5 7.5q-13 20 -30 29q-18 10 -30 1t-17 -22q-16 -40 -21 -73q0 -2 -6.5 -8t-5.5 -13zM75 436q14 19 39 35.5t46 16.5q7 0 43 -9q14 -5 16 -7q2 -3 5 -3t6.5 1.5t4.5 1.5q24 -2 37 13q5 5 6.5 2.5t-1.5 -7.5q-8 -13 -36 -29.5t-43 -16.5t-35 5q-10 2 -14 8q-1 3 -7.5 1.5 t-7.5 -1.5q-12 3 -22 3q-17 0 -29 -15q-5 -6 -9 -4q-2 1 1 5z" />
<glyph unicode="&#xf6;" horiz-adv-x="278" d="M21 175q11 145 118 206q21 12 37 12q17 0 30.5 -10.5t13.5 -27.5q0 -8 2.5 -9.5t6 0.5t5.5 -2q25 -55 23 -131q-11 -145 -118 -206q-19 -11 -37 -11q-36 0 -58 46q-1 2 -0.5 7t-2.5 13q-1 3 -5.5 9t-5.5 10q-1 3 2.5 7.5t4 7.5t-6.5 7q-5 2 -6.5 5.5t-1.5 12v9.5 q-3 24 -1 45zM68 232q1 -7 4 -12t3 -7q-7 -87 23 -142q1 -2 0.5 -7.5t0.5 -6.5t7 -3t7 -3q10 -10 16 -14q13 -8 27 3.5t24 33.5q19 46 23 101v1q2 35 0 58q0 2 3 6t2.5 7.5t-8.5 8.5q-3 2 -4 6.5t-0.5 8.5t-0.5 8q-1 2 0 5t1.5 5t-1 4.5t-6.5 3.5q-4 1 -5.5 4.5t-3 9 t-2.5 7.5q-13 20 -30 29q-18 10 -30 1t-17 -22q-16 -40 -21 -73q0 -2 -6.5 -8t-5.5 -13zM120 473q0 2 12.5 11t15.5 9l4 -4v-3v-2q6 -2 6 -5t1 -5t3 -4l1 -1q0 -2 -12.5 -11t-15.5 -9q-2 0 -2.5 2.5t0 5t-0.5 3.5q0 1 -3 1.5t-3 1.5zM178 473q0 1 6 6t13 9.5t9 4.5l1 -1.5 l2 -3l2 -3t2 -2.5t0 -3v-2q6 -2 6 -5q0 -4 2 -4h1q0 -2 -13 -11t-16 -9l-10 15v-1zM183 463q1 -1 1 0h-1z" />
<glyph unicode="&#xf7;" horiz-adv-x="344" d="M20 171q6 1 24 19.5t28 18.5q18 0 55 -1.5t55 -1.5h39q70 0 100 15q1 0 2 0.5t2 0.5l-11 -11q-12 -11 -24 -18q-14 -8 -16 -8q-9 1 -15 -3.5t-8 -4.5q-30 -9 -88 -9h-45q-8 0 -13 2q-3 1 -10.5 -0.5t-8.5 -1.5zM127 103q0 4 23.5 21t29.5 17q1 0 13 -18q0 -6 2 -9.5t5 -6 t4 -3.5l5 -8q0 -4 -24 -21t-30 -17q-1 0 -7 9.5t-13 21.5t-8 14zM135 278q0 4 23.5 21t29.5 17q2 0 8.5 -9.5t13 -22t7.5 -13.5q0 -5 -32 -26q-2 -1 -5 -1.5t-5.5 -0.5t-4 -1.5t-0.5 -5.5q-4 -3 -7 -3q-1 0 -8 11q-19 33 -20 34z" />
<glyph unicode="&#xf8;" horiz-adv-x="278" d="M21 175q11 145 118 206q21 12 37 12t28 -9q4 1 14 6.5t14.5 7t8.5 -0.5q1 -3 -0.5 -8t-4.5 -9.5t-7 -11t-6 -11.5l-3 -8q1 -5 6.5 -4t7.5 -1q25 -55 23 -131q-11 -145 -118 -206q-19 -11 -37 -11q-11 0 -25 6l-15 -8q-12 -6 -27 -16q-7 -5 -3 6q2 6 11 24q7 15 9 19 q-4 6 -8 15q-1 2 -0.5 7t-2.5 13q-1 3 -5.5 9t-5.5 10q-1 3 2.5 7.5t4 7.5t-6.5 7q-5 2 -6.5 5.5t-1.5 12v9.5q-3 24 -1 45zM68 232q0 -5 2 -8.5t3.5 -6t1.5 -4.5q-4 -58 9 -106q10 26 39 99q1 1 6 11t7 22q0 3 2.5 5.5t4.5 4t3.5 6t-0.5 10.5q-1 3 0.5 7t4.5 8.5t4 6.5 q12 32 16 40q-12 14 -23 20q-18 10 -30 1t-17 -22q-16 -40 -21 -73q0 -2 -6.5 -8t-5.5 -13zM99 57q1 -2 7 -3.5t7 -2.5q10 -10 16 -14q13 -8 27 3.5t24 33.5q19 46 23 101v1q2 35 0 58q0 2 1.5 5t3 5t0 5t-7.5 7q-4 2 -5 7.5t0 15.5t1 11q-6 -17 -18.5 -46.5t-32.5 -79.5 q-1 -2 -4.5 -3t-4.5 -7q-2 -16 -3 -19q-12 -30 -25 -65q-1 -2 -4.5 -6t-4.5 -7z" />
<glyph unicode="&#xf9;" horiz-adv-x="329" d="M40 350l20 19t31 19q29 0 35 -53q0 -2 -2 -6.5t-2 -8t5 -6.5q2 -1 2.5 -4t-0.5 -6t-2 -6.5t-1 -5.5q-2 -38 -6 -67q0 -3 -3 -7t-4.5 -7.5t-0.5 -5.5q5 -7 2 -22q-1 -5 -4 -22.5t-4.5 -31.5t-1.5 -27q0 -25 8 -40q14 -27 32 -27q21 0 43 37q1 1 6.5 2t7.5 9q1 3 1 10t2 10 q20 41 30 79q11 57 15 86q0 3 3 7.5t3 7t-4 7.5q-3 3 -2.5 5.5t2 7.5t1.5 7q0 32 -12 39q6 10 25.5 27t28.5 11q8 -4 11 -21q4 -19 0 -52t-10.5 -66t-7.5 -39q-7 -60 -8 -75q0 -1 -1.5 -3t-3 -3.5t-0.5 -4t5 -5.5q3 0 2 -9t-1 -10l3 -19q0 -2 -2 -6t-1.5 -6.5t7.5 -4.5 q9 -18 34 -22l-18 -17q-22 -20 -36 -20q-43 4 -43 80v1q-25 -33 -56 -54q-43 -31 -77 -31q-40 0 -39 58q0 26 4 34q2 3 4 27q0 2 7 14.5t3 20.5q-3 7 -1 29q5 45 5 79q0 88 -34 88zM118 507l3.5 2.5t10 7t11.5 8.5q3 2 8 6.5t7.5 7t6.5 4t6 -1.5q22 -22 46 -40q10 -7 14 -16 q2 -5 5.5 -7t7.5 -2.5t6 -1.5t6.5 -4.5t7.5 -4.5l-4 -4t-9 -8.5t-6 -4.5t-4 -3t-5 -4.5t-6.5 -3.5t-9.5 -2q-17 1 -38 15q-1 1 -4 2.5t-4.5 2.5t-4 3t-4 3.5t-2.5 4t-1 5.5q-1 9 -5.5 10.5t-9 -0.5t-7.5 1q-1 1 -5 4.5t-6.5 5.5t-5.5 5t-4 5.5t-1 4.5z" />
<glyph unicode="&#xfa;" horiz-adv-x="329" d="M40 350l20 19t31 19q29 0 35 -53q0 -2 -2 -6.5t-2 -8t5 -6.5q2 -1 2.5 -4t-0.5 -6t-2 -6.5t-1 -5.5q-2 -38 -6 -67q0 -3 -3 -7t-4.5 -7.5t-0.5 -5.5q5 -7 2 -22q-1 -5 -4 -22.5t-4.5 -31.5t-1.5 -27q0 -25 8 -40q14 -27 32 -27q21 0 43 37q1 1 6.5 2t7.5 9q1 3 1 10t2 10 q20 41 30 79q11 57 15 86q0 3 3 7.5t3 7t-4 7.5q-3 3 -2.5 5.5t2 7.5t1.5 7q0 32 -12 39q6 10 25.5 27t28.5 11q8 -4 11 -21q4 -19 0 -52t-10.5 -66t-7.5 -39q-7 -60 -8 -75q0 -1 -1.5 -3t-3 -3.5t-0.5 -4t5 -5.5q3 0 2 -9t-1 -10l3 -19q0 -2 -2 -6t-1.5 -6.5t7.5 -4.5 q9 -18 34 -22l-18 -17q-22 -20 -36 -20q-43 4 -43 80v1q-25 -33 -56 -54q-43 -31 -77 -31q-40 0 -39 58q0 26 4 34q2 3 4 27q0 2 7 14.5t3 20.5q-3 7 -1 29q5 45 5 79q0 88 -34 88zM111 469q30 12 66 45q2 2 4.5 2h4.5t3.5 1.5t1.5 5.5q0 2 11 13l2 2q3 4 5 5q5 0 18 -9.5 t24 -18.5t10 -10q-28 -25 -29 -26t-3.5 -0.5l-5 1t-4.5 -0.5t-2 -5q0 -10 -21 -17q-3 -1 -6 -3t-5 -4l-3 -3l-25 -11q-4 0 -15.5 8.5t-21.5 16.5z" />
<glyph unicode="&#xfb;" horiz-adv-x="329" d="M40 350l20 19t31 19q29 0 35 -53q0 -2 -2 -6.5t-2 -8t5 -6.5q2 -1 2.5 -4t-0.5 -6t-2 -6.5t-1 -5.5q-2 -38 -6 -67q0 -3 -3 -7t-4.5 -7.5t-0.5 -5.5q5 -7 2 -22q-1 -5 -4 -22.5t-4.5 -31.5t-1.5 -27q0 -25 8 -40q14 -27 32 -27q21 0 43 37q1 1 6.5 2t7.5 9q1 3 1 10t2 10 q20 41 30 79q11 57 15 86q0 3 3 7.5t3 7t-4 7.5q-3 3 -2.5 5.5t2 7.5t1.5 7q0 32 -12 39q6 10 25.5 27t28.5 11q8 -4 11 -21q4 -19 0 -52t-10.5 -66t-7.5 -39q-7 -60 -8 -75q0 -1 -1.5 -3t-3 -3.5t-0.5 -4t5 -5.5q3 0 2 -9t-1 -10l3 -19q0 -2 -2 -6t-1.5 -6.5t7.5 -4.5 q9 -18 34 -22l-18 -17q-22 -20 -36 -20q-43 4 -43 80v1q-25 -33 -56 -54q-43 -31 -77 -31q-40 0 -39 58q0 26 4 34q2 3 4 27q0 2 7 14.5t3 20.5q-3 7 -1 29q5 45 5 79q0 88 -34 88zM97 448q12 15 20 26q1 1 3 2t3.5 2t2.5 3t1 6q0 3 2 5.5t6 5.5t5 5q2 2 6 6.5t7 8t6 7.5 t23 4t24 -4l25 -32q1 -1 1 -2q3 -4 5 -6q2 -1 9 -10q1 -1 3 -6t7 -7q2 -1 3.5 -2.5t3 -4.5t2.5 -4q-18 -4 -26 1q-10 6 -49 60l-8 -11l-8 -2l-2 -6q0 -2 -1.5 -5l-2.5 -5l-2 -2l-22 -28q-6 -9 -13 -9q-3 0 -6.5 0.5t-4.5 0.5t-6.5 0.5t-11 1.5z" />
<glyph unicode="&#xfc;" horiz-adv-x="329" d="M40 350l20 19t31 19q29 0 35 -53q0 -2 -2 -6.5t-2 -8t5 -6.5q2 -1 2.5 -4t-0.5 -6t-2 -6.5t-1 -5.5q-2 -38 -6 -67q0 -3 -3 -7t-4.5 -7.5t-0.5 -5.5q5 -7 2 -22q-1 -5 -4 -22.5t-4.5 -31.5t-1.5 -27q0 -25 8 -40q14 -27 32 -27q21 0 43 37q1 1 6.5 2t7.5 9q1 3 1 10t2 10 q20 41 30 79q11 57 15 86q0 3 3 7.5t3 7t-4 7.5q-3 3 -2.5 5.5t2 7.5t1.5 7q0 32 -12 39q6 10 25.5 27t28.5 11q8 -4 11 -21q4 -19 0 -52t-10.5 -66t-7.5 -39q-7 -60 -8 -75q0 -1 -1.5 -3t-3 -3.5t-0.5 -4t5 -5.5q3 0 2 -9t-1 -10l3 -19q0 -2 -2 -6t-1.5 -6.5t7.5 -4.5 q9 -18 34 -22l-18 -17q-22 -20 -36 -20q-43 4 -43 80v1q-25 -33 -56 -54q-43 -31 -77 -31q-40 0 -39 58q0 26 4 34q2 3 4 27q0 2 7 14.5t3 20.5q-3 7 -1 29q5 45 5 79q0 88 -34 88zM140 495q0 2 12.5 11t15.5 9l4 -4v-2v-3q6 -2 6 -5q-1 -4 4 -9l1 -1q0 -2 -12.5 -11 t-15.5 -9q-2 0 -2.5 2.5t0 5t-0.5 3.5q0 1 -3 1.5t-3 1.5zM198 495q0 1 6 6t13 9.5t9 4.5l1.5 -2t3 -4.5t2.5 -3.5t0 -3v-2q6 -2 6 -5q0 -4 2 -4h1q0 -2 -13 -11t-16 -9l-10 15v-1zM203 485q1 -1 1 0h-1z" />
<glyph unicode="&#xfd;" horiz-adv-x="312" d="M19 348q3 12 20.5 25.5t30.5 12.5q25 0 31 -42q0 -2 1.5 -6t2.5 -7t1 -6.5t-2 -6.5q-4 -8 -4 -13t2 -9.5t2 -7.5q-1 -23 -9 -95q0 -3 -3 -8.5t-3.5 -9t2.5 -11.5q2 -5 2 -7t-2 -8t-2 -10q-9 -73 -3 -95q5 -18 24.5 -21.5t31.5 8.5q16 12 33 43q1 2 3 3.5t3.5 2.5t2.5 4.5 t1 8.5q0 3 8 19q14 35 22 63l2 24q0 3 3.5 8.5t4.5 8.5t-2 7q-5 4 -6 9t0.5 11t1.5 8q2 61 0 78q0 4 -3.5 14t0.5 12q2 4 4.5 6.5t5 4t7 4.5t8.5 6l6.5 6.5l7 7t7.5 5t7 -0.5q3 -2 3.5 -4.5t0 -7t-0.5 -8.5q1 -15 1 -61q0 -1 -5.5 -11t0.5 -13q4 -5 4 -22l-6 -127 q0 -2 -2.5 -5.5t-2.5 -6t4 -10.5q3 0 1 -12t-2 -13q0 -2 -2.5 -5.5t-2.5 -6t4 -9.5q2 -5 2 -7.5t-2 -8.5t-2 -8q-4 -54 -7 -79q0 -3 -3 -7.5t-3 -6.5t3 -10q2 -2 1.5 -6t-1.5 -6.5t-2.5 -6t-1.5 -5.5q-6 -36 -27 -67t-47.5 -48.5t-49.5 -27.5t-38 -11q-17 -1 -21 6q-3 4 5 5 q3 1 8 1q9 -1 20.5 2.5t23.5 11t24 20.5t22 30q1 2 4 4t5 3.5t3 5t-1 8.5q-1 2 0 4.5t2 4.5l2.5 5l2.5 5q16 50 18 117q0 5 0.5 11.5t1 14.5l1 16t1 18.5t1.5 19.5q-29 -42 -62 -65q-39 -30 -73 -30q-45 0 -42 61q0 1 -1 5.5t-0.5 8.5t3.5 8q6 7 6 11t-2 7.5t-2 6.5 q7 68 9 105q0 3 2.5 6t4 5.5t1 6.5t-5.5 9q-2 3 -2.5 7t0.5 8t2 9t1 8q0 19 -0.5 31.5t-3 28.5t-8.5 24t-16 7zM81 478q30 12 66 45q2 2 4.5 2h4.5t3.5 1.5t1.5 5.5q0 2 11 13l2 2q3 4 5 5q5 0 18 -9.5t24 -18.5t10 -10q-28 -25 -29 -26t-3.5 -0.5l-5 1t-4.5 -0.5t-2 -5 q0 -10 -21 -17q-3 -1 -6 -3t-5 -4l-3 -3l-25 -11q-4 0 -15.5 8t-21.5 17z" />
<glyph unicode="&#xfe;" horiz-adv-x="285" d="M17 558l22 20q13 11 23 16q28 13 45 -25q8 -18 10 -111q0 -8 -6 -18q-2 -4 2 -7.5t4 -4.5q0 -35 -2 -89q14 13 28.5 23.5t33 19t36 5t29.5 -21.5q5 -8 2 -19q-2 -6 5 -7.5t8 -8.5q3 -26 5 -30q3 -5 3.5 -10t-0.5 -11.5t-1 -9.5q2 -57 -14 -113.5t-49 -95.5q0 -1 -8 -3.5 t-9 -13.5q0 -4 -3 -6.5t-8.5 -5.5t-7.5 -4q-41 -32 -73 -32h-5q-6 -57 -24 -201q-1 -13 -13 7q-15 25 -15 55q0 35 6 45q3 4 0 12.5t-3 12.5q0 3 0.5 8t0.5 8t1.5 7t3.5 6q3 3 3.5 5.5t0.5 4t-3 5t-4 4.5q-2 5 -2 7.5t2 7.5t2 8l5 93q0 4 1.5 9t1.5 7.5t-2 10.5q0 1 2 9.5 t0 13.5q-1 4 -1 7t1 9.5t1 9.5l4 94l3 10q3 10 -2 13q-4 1 -1.5 13.5t2.5 13.5t3.5 11t-2.5 12q-3 5 -2.5 8t2 9t1.5 9q0 12 0.5 35.5t0.5 33.5q0 51 -4 68q-1 3 1.5 9t2 10.5t-8.5 8.5q-4 2 -6.5 11t-2.5 10q-10 16 -26 13zM92 40q17 -13 34 -13q31 0 51 43t28 103 q0 3 6 15.5t0 16.5q-3 7 -3 33q0 31 -5 49q-15 53 -41 63q-16 6 -48 -32l-3 -46q0 -1 -8 -9t1 -14q5 -6 5 -21q-6 -82 -10 -121q0 -2 -3 -6t-3 -6t4 -9q2 -4 1.5 -6.5t-2 -7.5t-1.5 -7z" />
<glyph unicode="&#xff;" horiz-adv-x="312" d="M19 348q3 12 20.5 25.5t30.5 12.5q25 0 31 -42q0 -2 1.5 -6t2.5 -7t1 -6.5t-2 -6.5q-4 -8 -4 -13t2 -9.5t2 -7.5q-1 -23 -9 -95q0 -3 -3 -8.5t-3.5 -9t2.5 -11.5q2 -5 2 -7t-2 -8t-2 -10q-9 -73 -3 -95q5 -18 24.5 -21.5t31.5 8.5q16 12 33 43q1 2 3 3.5t3.5 2.5t2.5 4.5 t1 8.5q0 3 8 19q14 35 22 63l2 24q0 3 3.5 8.5t4.5 8.5t-2 7q-5 4 -6 9t0.5 11t1.5 8q2 61 0 78q0 4 -3.5 14t0.5 12q2 4 4.5 6.5t5 4t7 4.5t8.5 6l6.5 6.5l7 7t7.5 5t7 -0.5q3 -2 3.5 -4.5t0 -7t-0.5 -8.5q1 -15 1 -61q0 -1 -5.5 -11t0.5 -13q4 -5 4 -22l-6 -127 q0 -2 -2.5 -5.5t-2.5 -6t4 -10.5q3 0 1 -12t-2 -13q0 -2 -2.5 -5.5t-2.5 -6t4 -9.5q2 -5 2 -7.5t-2 -8.5t-2 -8q-4 -54 -7 -79q0 -3 -3 -7.5t-3 -6.5t3 -10q2 -2 1.5 -6t-1.5 -6.5t-2.5 -6t-1.5 -5.5q-6 -36 -27 -67t-47.5 -48.5t-49.5 -27.5t-38 -11q-17 -1 -21 6q-3 4 5 5 q3 1 8 1q9 -1 20.5 2.5t23.5 11t24 20.5t22 30q1 2 4 4t5 3.5t3 5t-1 8.5q-1 2 0 4.5t2 4.5l2.5 5l2.5 5q16 50 18 117q0 5 0.5 11.5t1 14.5l1 16t1 18.5t1.5 19.5q-29 -42 -62 -65q-39 -30 -73 -30q-45 0 -42 61q0 1 -1 5.5t-0.5 8.5t3.5 8q6 7 6 11t-2 7.5t-2 6.5 q7 68 9 105q0 3 2.5 6t4 5.5t1 6.5t-5.5 9q-2 3 -2.5 7t0.5 8t2 9t1 8q0 19 -0.5 31.5t-3 28.5t-8.5 24t-16 7zM116 489q0 2 12.5 11t15.5 9l4 -4v-3v-2q6 -2 6 -5q-1 -4 4 -9l1 -1q0 -2 -12.5 -11t-15.5 -9q-2 0 -2.5 2.5t0 5t-0.5 3.5q0 1 -3 1.5t-3 1.5zM174 489q0 1 6 6 t13 9.5t9 4.5l1.5 -2t3 -4.5t2.5 -3.5t0 -3v-2q6 -2 6 -5q0 -4 2 -4h1q0 -2 -13 -11t-16 -9l-10 15v-1zM179 479q1 -1 1 0h-1z" />
<glyph unicode="&#x152;" horiz-adv-x="975" d="M36 262q0 24 4 44q16 85 73 154q2 2 5.5 3t6 1.5t4.5 5t3 12.5q0 2 6 3.5t9 10.5q5 5 15 13q70 59 126 77q25 8 55 8q71 0 132 -50q3 -2 4.5 -8t4.5 -8q19 -11 29 -22q21 -26 32 -47q2 -3 3.5 -10.5t3.5 -12t6 -3.5q3 1 5 -4.5t1 -9.5q-1 -6 0 -11t3 -8t4.5 -7.5 t3.5 -7.5q13 -47 13 -90q0 -13 -2 -37q8 5 19 18q5 5 10.5 9t17 9.5t12.5 5.5q27 14 59 27q-49 14 -80 41t-21 67q17 66 107 121q52 31 114 31q28 0 55 -6q3 -1 6 -4.5t6 -4.5t12 2q16 -3 27 -10t15 -8t7.5 -2.5t5.5 -3.5t3.5 -3t3.5 -3t4 -3q-2 -1 -15 -13.5t-26 -22 t-17 -6.5q-26 17 -62 32q-3 1 -6 4t-7 4t-11 0q-5 -1 -8.5 6.5t-7.5 8.5q-3 0 -15.5 -3t-15.5 -3q-29 3 -59 -5q-26 -7 -41.5 -30t-15.5 -49q0 -31 22 -52q3 -3 7 -9t9 -9.5t15 -4.5q4 0 8 -3l8 -6t8 -3q14 0 36.5 -8.5t32.5 -9.5q-6 -2 -25.5 -23t-30.5 -19h-2 q-7 -5 -12 -5q-36 -6 -70 -19t-63 -39.5t-29 -59.5q0 -38 36 -81q1 -18 7 -26t14 -3q8 3 10.5 2.5t7.5 -7t7 -7.5q29 -19 57 -29q3 -1 8 -2t8 -1.5t7 -3t7 -5.5q6 -6 15 -7.5t19 0t14 0.5q88 -11 142 42q13 13 17 8.5t-18 -24.5q-45 -37 -80 -53.5t-79 -16.5q-68 0 -136 29 q-2 1 -11.5 8t-20.5 8q-6 0 -12 3.5t-9.5 6.5t-10 9.5l-8.5 8.5q-3 10 -13.5 17.5t-12.5 10.5q-9 12 -16 29q-6 -8 -20 -22q-76 -75 -139 -101q-34 -14 -71 -14q-79 0 -145 63q-2 2 -6 4t-7 5.5t-6 9.5q-7 18 -23 26q-8 4 -11.5 8.5t-5.5 11t-4 9.5q-51 74 -51 152zM96 301 q0 -30 5 -51t2 -29q-3 -7 10 -19q3 -2 4 -3q3 -3 5.5 -10t4.5 -9q34 -56 74 -94q3 -2 5.5 -7.5t6.5 -9t12 -4.5q3 -1 6 -3t5.5 -4t5.5 -4.5t5 -4.5q3 -6 7 -8.5t9.5 -3.5t7.5 -2q44 -23 83 -23q54 0 98 44q3 3 8.5 7.5t9.5 9.5t8 14q1 2 8 7.5t9 20.5q0 3 1.5 6.5t3 6.5 t3 5.5t3.5 6t3 6.5q27 70 21 139q0 4 2 10t1 12t-8 13q-3 4 -2.5 16.5t-7.5 19.5q-2 2 -4 9l-2 7q2 8 0.5 11t-7 8t-7.5 8q-40 70 -102 114q-2 2 -3.5 6.5t-5 7.5t-11.5 3q-8 -1 -20 6t-17 16q-4 4 -8 3.5t-11.5 -2t-11.5 -0.5q-36 6 -70 -8t-58.5 -41.5t-43 -63t-28 -72 t-9.5 -67.5z" />
<glyph unicode="&#x153;" horiz-adv-x="434" d="M21 175q11 145 118 206q21 12 37 12q17 0 30.5 -10.5t13.5 -27.5q0 -8 2.5 -9.5t6 0.5t5.5 -2q10 -23 14 -45q35 47 88 73q14 7 30 7q27 0 42 -19.5t8 -50.5q-5 -16 -12 -19q-8 -2 -4.5 -10t2.5 -9q-24 -49 -77 -87q-2 -1 -6.5 -5.5t-8.5 -7t-8 -2.5q-8 -1 -13 -6t-6 -5 l-30 -15q3 -7 8 -9q15 -8 6 -30q-1 -6 -1 -7.5t3 -4.5t4 -5q20 -46 55 -46q16 0 33 11q11 7 42 34q7 4 9 1l-3 -5q-109 -105 -161 -74q-1 1 -4 9t-13 9q-4 0 -6 4.5t-4 11.5t-3 10q-3 6 -7 20q-28 -41 -72 -65q-19 -11 -37 -11q-36 0 -58 46q-1 2 -0.5 7t-2.5 13 q-1 3 -5.5 9t-5.5 10q-1 3 2.5 7.5t4 7.5t-6.5 7q-5 2 -6.5 5.5t-1.5 12v9.5q-3 24 -1 45zM68 232q1 -7 4 -12t3 -7q-7 -87 23 -142q1 -2 0.5 -7.5t0.5 -6.5t7 -3t7 -3q10 -10 16 -14q13 -8 27 3.5t24 33.5q19 46 23 101v1q2 35 0 58q0 2 3 6t2.5 7.5t-8.5 8.5q-3 2 -4 6.5 t-0.5 8.5t-0.5 8q-1 2 0 5t1.5 5t-1 4.5t-6.5 3.5q-4 1 -5.5 4.5t-3 9t-2.5 7.5q-13 20 -30 29q-18 10 -30 1t-17 -22q-16 -40 -21 -73q0 -2 -6.5 -8t-5.5 -13zM253 157l6 3q52 22 80 57q2 2 6.5 5.5t7 6t1.5 5.5q-3 8 2.5 21t5.5 17q5 47 -20 63q-15 7 -26.5 6t-20.5 -15 t-14.5 -29t-10 -36t-6.5 -36.5t-3 -30.5q0 -16 -1 -18q-5 -8 -7 -19z" />
<glyph unicode="&#x178;" horiz-adv-x="434" d="M-9 537q33 36 60 36q23 0 45 -25q46 -52 91 -146q1 -2 2.5 -3.5t2 -3t1 -5t0.5 -11.5q0 -17 12 -24q5 -3 7.5 -6.5t3.5 -7.5t2 -6q4 -9 12 -24.5t13.5 -28t8.5 -24.5q57 53 86 95q2 2 6 4t6.5 5.5t1.5 11.5q0 4 2 8t6 8.5t6 7.5q16 32 20 57q1 4 -2 17.5t1 16.5 q7 10 -1 14q-4 2 -5 4q-9 25 -39 41.5t-52 1.5l-8 -5.5t-15.5 -9.5t-8.5 -3q-1 3 11.5 13.5t15.5 12.5q51 35 80 38q18 3 24 -6q5 -8 8 -8t5 3t5 2q29 -16 38 -58q-5 -4 -2 -20.5t2 -21.5q-3 -19 -10 -34q-28 -59 -80 -120q-3 -4 -6.5 -1.5t-7 1t-4.5 -10.5q0 -3 -1.5 -6.5 t-4.5 -7.5t-5 -7t-6.5 -7t-6.5 -6t-6.5 -6t-5.5 -5q-36 -34 -44 -42v-8q-5 -73 -4 -94q0 -1 2.5 -11.5t-1.5 -15.5q-2 -4 1.5 -12t3.5 -10q-4 -9 -5 -11.5t3 -9t5 -7.5q10 -32 32 -35q-6 -8 -21 -20.5t-25 -11.5q-13 1 -21 13q-2 2 -4.5 11t-6.5 12t-5.5 7.5t-1 12.5t0.5 11 q-3 26 -3 53q0 18 3.5 62t-0.5 54q0 4 -6 16t-4 20q0 1 1.5 4t1.5 4.5t-2.5 4t-7.5 4.5q-5 11 -61 115q-10 16 -10 28q-1 15 -10 18t-10 5q1 8 -2.5 14t-10.5 12.5t-9 10.5q-14 22 -32 40q-30 30 -51 12q-3 -2 -5 -0.5t1 4.5zM177 672q0 2 12.5 11t15.5 9l4 -4l-0.5 -2 t0.5 -3q6 -2 6 -5q-1 -4 4 -9l1 -1q0 -1 -4 -4.5t-8.5 -7t-9.5 -6t-6 -2.5q-2 0 -2.5 2.5t0 5t-0.5 3.5t-3.5 1.5t-2.5 1.5zM235 672q0 2 12.5 11t15.5 9l1.5 -2t3 -4.5t2.5 -3.5t0 -3v-2q6 -2 6 -5q0 -4 2 -4h1q0 -2 -13 -11t-16 -9l-10 15v-1zM240 662q1 -1 1 0h-1z" />
<glyph unicode="&#x2c6;" horiz-adv-x="233" d="M34 481q12 15 20 26q1 1 3 2t3.5 2t2.5 3t1 6q0 3 2 5.5t6 5.5t5 5q1 1 8 9t11 13q3 4 23 4t24 -4l25 -32l1 -3q1 -3 5 -5q2 -1 9 -10q1 -1 3 -6t7 -7q1 0 9 -11q-18 -4 -26 1q-10 6 -49 60l-8 -11h-3q-2 1 -4.5 -1.5t-2.5 -6.5l-6 -12l-22 -28q-6 -9 -13 -9 q-3 0 -6.5 0.5t-4.5 0.5z" />
<glyph unicode="&#x2dc;" horiz-adv-x="273" d="M27 501q14 19 39 35.5t46 16.5q7 0 43 -9q14 -5 16 -7q2 -3 5 -3t6.5 1.5t4.5 1.5q24 -2 37 13q6 6 7 1l-2 -6q-8 -13 -36 -29.5t-43 -16.5t-35 5q-10 2 -14 8q-1 3 -7.5 1.5t-7.5 -1.5q-12 3 -22 3q-17 0 -29 -15q-5 -6 -9 -4q-2 1 1 5z" />
<glyph unicode="&#x2000;" horiz-adv-x="375" />
<glyph unicode="&#x2001;" horiz-adv-x="750" />
<glyph unicode="&#x2002;" horiz-adv-x="375" />
<glyph unicode="&#x2003;" horiz-adv-x="750" />
<glyph unicode="&#x2004;" horiz-adv-x="250" />
<glyph unicode="&#x2005;" horiz-adv-x="187" />
<glyph unicode="&#x2006;" horiz-adv-x="125" />
<glyph unicode="&#x2007;" horiz-adv-x="125" />
<glyph unicode="&#x2008;" horiz-adv-x="93" />
<glyph unicode="&#x2009;" horiz-adv-x="150" />
<glyph unicode="&#x200a;" horiz-adv-x="41" />
<glyph unicode="&#x2010;" horiz-adv-x="379" d="M54 198q6 1 21 22q17 21 28 21q6 0 48 -2q3 0 11 -5t11 -2q6 5 12 6.5t14 0t10 -1.5q26 0 36 1q7 1 18.5 1.5t17.5 1t14 2t14 3.5t12 5q5 3 7 3h1q0 -2 -6 -7q-61 -55 -157 -55q-37 0 -44 6q-2 5 -12.5 1.5t-14.5 -3.5q-30 2 -41 2z" />
<glyph unicode="&#x2011;" horiz-adv-x="379" d="M54 198q6 1 21 22q17 21 28 21q6 0 48 -2q3 0 11 -5t11 -2q6 5 12 6.5t14 0t10 -1.5q26 0 36 1q7 1 18.5 1.5t17.5 1t14 2t14 3.5t12 5q5 3 7 3h1q0 -2 -6 -7q-61 -55 -157 -55q-37 0 -44 6q-2 5 -12.5 1.5t-14.5 -3.5q-30 2 -41 2z" />
<glyph unicode="&#x2012;" horiz-adv-x="379" d="M54 198q6 1 21 22q17 21 28 21q6 0 48 -2q3 0 11 -5t11 -2q6 5 12 6.5t14 0t10 -1.5q26 0 36 1q7 1 18.5 1.5t17.5 1t14 2t14 3.5t12 5q5 3 7 3h1q0 -2 -6 -7q-61 -55 -157 -55q-37 0 -44 6q-2 5 -12.5 1.5t-14.5 -3.5q-30 2 -41 2z" />
<glyph unicode="&#x2013;" horiz-adv-x="440" d="M56 196q4 3 12 15.5t17 21t18 8.5q26 0 89 -3q3 0 11 -5t11 -2q6 5 12.5 6.5t16 0.5t10.5 -1q26 0 36 1q7 1 18.5 1.5t17.5 1t14 2t14 3.5t12 5q5 3 7 3h1q0 -2 -6 -7q-40 -37 -90 -47q-43 -8 -111 -8q-41 0 -48 6q-2 5 -12.5 1.5t-14.5 -3.5q-6 0 -22 -2q-15 -3 -15 -1 q0 1 2 3z" />
<glyph unicode="&#x2014;" horiz-adv-x="486" d="M56 196q4 3 12 15.5t17 21t18 8.5q73 0 136 -3q3 0 11 -5t11 -2q6 5 12.5 6.5t16 0.5t10.5 -1q26 0 36 1q7 1 18.5 1.5t17.5 1t14 2t14 3.5t12 5q4 3 7 3h1q0 -2 -6 -7q-40 -37 -90 -47q-43 -8 -111 -8q-88 0 -95 6q-2 5 -12.5 1.5t-14.5 -3.5q-6 0 -22 -2q-15 -3 -15 -1 q0 1 2 3z" />
<glyph unicode="&#x2018;" horiz-adv-x="190" d="M61 474q0 2 2 4l3 3t-1 3q-7 3 -4 24q5 42 49 68q36 21 47 25q8 4 9.5 0t-4.5 -6q-14 -7 -25 -18q-11 -9 -17 -33q-3 -24 9 -85q0 -4 -14.5 -11.5t-28.5 -12.5l-15 -5q-2 4 -4 16q-1 2 0.5 5.5t1 5.5t-4.5 3q-2 1 -2.5 3.5t0 5t-0.5 5.5z" />
<glyph unicode="&#x2019;" horiz-adv-x="190" d="M43 406q13 9 23 21t12 35q0 25 -20 83q0 4 13.5 13.5t26.5 16.5l14 7l6 -16v-3.5t-0.5 -4.5t1 -3.5t4.5 -1.5q2 0 3 -2.5t1 -6.5v-5t-2 -4q-3 -5 0 -6q7 -3 7 -23q0 -43 -40 -74q-28 -23 -43 -31q-8 -4 -10 -1t4 6z" />
<glyph unicode="&#x201a;" horiz-adv-x="190" d="M52 -83q13 9 23 21t12 35q0 25 -20 83q0 4 13.5 13.5t27.5 16.5l13 7l6 -16v-3.5t-0.5 -4.5t1 -3.5t4.5 -1.5q2 0 3 -2.5t1 -6.5v-5t-2 -4q-3 -5 0 -6q7 -3 7 -23q0 -43 -40 -74q-28 -23 -43 -31q-8 -4 -10 -1t4 6z" />
<glyph unicode="&#x201c;" horiz-adv-x="325" d="M44 473q-2 1 1 15q0 1 3.5 4t1.5 5q-5 4 0 24q15 42 61 57q31 13 51 16q8 2 10 -2q-2 -3 -6 -4q-16 -5 -28 -13q-14 -9 -23 -29q-7 -23 -7 -86q-1 -4 -17 -8.5t-31 -7.5l-15 -2v17q0 2 1.5 5t1.5 5t-4 4zM168 473q-2 1 1 15q0 1 3.5 4t1.5 5q-5 4 0 24q15 42 61 57 q31 13 51 16q8 2 10 -2q-2 -3 -6 -4q-16 -5 -28 -13q-14 -9 -23 -29q-7 -23 -7 -86q-1 -4 -17 -8.5t-31 -7.5l-15 -2v17q0 2 1.5 5t1.5 5t-4 4z" />
<glyph unicode="&#x201d;" horiz-adv-x="308" d="M41 424q13 9 23 21t12 35q2 25 1.5 32t-9.5 25t-12 26q0 4 13.5 13.5t26.5 16.5l14 7l6 -16v-3.5t-0.5 -4.5t1 -3.5t4.5 -1.5q2 0 3 -2.5t1 -6.5v-5t-2 -4q-3 -5 0 -6q7 -3 7 -23q0 -43 -40 -74q-28 -23 -43 -31q-8 -4 -10 -1t4 6zM165 440q13 9 23 21t12 35q2 25 1.5 32 t-9.5 25t-12 26q0 4 13.5 13.5t26.5 16.5l14 7l6 -16v-3.5t-0.5 -4.5t1 -3.5t4.5 -1.5q2 0 3 -2.5t1 -6.5v-5t-2 -4q-3 -5 0 -6q7 -3 7 -23q0 -43 -40 -74q-28 -23 -43 -31q-8 -4 -10 -1t4 6z" />
<glyph unicode="&#x201e;" horiz-adv-x="301" d="M52 -83q13 9 23 21t12 35q0 25 -20 83q0 4 13.5 13.5t27.5 16.5l13 7l6 -16v-3.5t-0.5 -4.5t1 -3.5t4.5 -1.5q2 0 3 -2.5t1 -6.5v-5t-2 -4q-3 -5 0 -6q7 -3 7 -23q0 -43 -40 -74q-28 -23 -43 -31q-8 -4 -10 -1t4 6zM153 -71q13 9 23 21t12 35q0 25 -20 83q0 4 13.5 13.5 t26.5 16.5l14 7l6 -16v-3.5t-0.5 -4.5t1 -3.5t4.5 -1.5q2 0 3 -2.5t1 -6.5v-5t-2 -4q-3 -5 0 -6q7 -3 7 -23q0 -43 -40 -74q-28 -23 -43 -31q-8 -4 -10 -1t4 6z" />
<glyph unicode="&#x2022;" horiz-adv-x="269" d="M34 315q0 30 20 59q1 1 8 5t6 12q1 1 5 6t6.5 7.5t7.5 5t11 1.5q5 -1 8.5 6t6.5 9q25 15 49 15q39 0 62 -46q7 -11 4 -22q-1 -5 0.5 -6.5t4 -1.5t2.5 -2q2 -12 2 -19q0 -40 -39.5 -82t-83.5 -42q-33 0 -35 11q-2 10 -9 12.5t-8 3.5q-1 2 -1 5t-2 6t-8 5q-3 1 -8 14 q-9 21 -9 38z" />
<glyph unicode="&#x2026;" horiz-adv-x="546" d="M50 40q0 4 23.5 21t29.5 17q2 0 7 -7q1 -1 0 -5.5t1 -4.5q10 -4 10 -9t2 -9.5t5 -6.5l4 -3q0 -4 -24 -21t-30 -17q-1 0 -6 8q-1 1 0 6.5t0 6.5t-5.5 2.5t-5.5 2.5q-10 18 -11 19zM232 40q0 4 23.5 21t29.5 17q2 0 7 -7q1 -1 0 -5.5t1 -4.5q10 -4 10 -9t2 -9.5t5 -6.5 l4 -3q0 -4 -24 -21t-30 -17q-1 0 -6 8q-1 1 0 6.5t0 6.5t-5.5 2.5t-5.5 2.5q-10 18 -11 19zM414 40q0 4 23.5 21t29.5 17q2 0 7 -7q1 -1 0 -5.5t1 -4.5q10 -4 10 -9t2 -9.5t5 -6.5l4 -3q0 -4 -24 -21t-30 -17q-1 0 -6 8q-1 1 0 6.5t0 6.5t-5.5 2.5t-5.5 2.5q-10 18 -11 19z " />
<glyph unicode="&#x202f;" horiz-adv-x="150" />
<glyph unicode="&#x2039;" horiz-adv-x="172" d="M26 177q1 0 1 1l15 34q1 2 4 4.5t4 8.5q0 5 2.5 11t6.5 13.5t5 10.5t3.5 5t4 6t3.5 12q1 5 11 26l23 52q2 5 17 11.5t17 10.5q-2 -5 -6 -16t-7 -16q-6 -17 -10 -19q-6 -3 -7 -5.5t0.5 -5.5t0.5 -5l-23 -52q-2 -3 -6.5 -8.5t-5.5 -7.5t-1 -5.5v-5.5l-5 -10 q-11 -21 -11 -25l20 -45q7 -12 7 -17q1 -4 10 -20q1 -2 6 -14t6 -18q1 -8 7 -15.5t8 -11.5l19 -41q0 -2 -9 -8.5t-18 -12t-9 -4.5l-6 13q-1 1 1.5 7.5t-3.5 6.5q-5 2 -9 11q-26 57 -30 67q-1 1 -1 11.5t-8 14.5q-4 2 -6.5 5.5t-4 7t-3.5 9t-3 8.5l-5 8q-5 9 -5 13z" />
<glyph unicode="&#x203a;" horiz-adv-x="172" d="M48 -3l10 21q1 1 3 2t3 3.5t0 7.5q0 3 7 15q3 7 12.5 27.5t13.5 30.5q1 2 3.5 5t4 6.5t2.5 10.5q0 1 11 23q0 2 5.5 12t5.5 12v1l-5 12q0 1 -1.5 7t-6.5 11q-2 3 -7 15q-3 5 -7.5 15t-6.5 14q-1 1 -1 6.5t-1 6.5q-1 2 -4 4.5t-4 3.5l-11 26q-1 1 -1 7t-5 10q-1 1 -11 21 q-2 4 -5 11t-4 9v1q0 3 17 14t18 10l9 -19q1 -3 4.5 -9t3.5 -10q1 -8 5.5 -14t4.5 -7l12 -27q9 -18 8 -28q-2 -8 4 -9.5t7 -3.5l13 -32q10 -15 10 -20v-2q-13 -28 -16 -34q-1 -2 -2 -6.5t-2.5 -7.5t-4.5 -5q-4 -3 -5 -5.5t-0.5 -5t-0.5 -4.5l-15 -33q-1 -3 -6 -6.5t-4 -9.5 l-8 -24l-18 -38q-2 -6 -16 -13q-3 -2 -9.5 -4t-8.5 -4z" />
<glyph unicode="&#x205f;" horiz-adv-x="187" />
<glyph unicode="&#x20ac;" horiz-adv-x="500" d="M-23 251q8 1 23 19t26 19q0 7 2 23q1 7 11 12t7 12l-4 9q-60 5 -65 5q10 1 23 20q16 18 28 18l20 -2q43 91 138 153q3 2 10 7.5t13 9t13 5.5q5 2 23 7t28 15q4 4 9 5.5t12.5 2.5t10.5 2q35 8 66 8q84 0 143 -55q1 0 -3 -3.5t-11 -9.5t-14 -11q-18 -15 -28 -18 q-6 -32 -7 -40t-3 -10q-1 -1 -3 3l-1 14q7 34 8 36l-24 18q-19 11 -25 24q-1 3 -5 4t-8 -0.5t-8.5 -2t-8.5 0.5q-30 8 -58 8q-50 0 -96.5 -21.5t-80.5 -61.5t-46 -91h73q53 0 74 13q6 3 7 3t1 -1t-5 -6q-26 -22 -57 -35q-1 -1 -9 -1.5t-13 -5.5q-2 0 -4.5 1.5t-4.5 2.5t-4 0 q-4 -3 -7.5 -5t-8 -3.5t-7 -2t-9.5 -1t-9 -0.5h-11h-11h-1v-16q0 -21 3 -42h76q53 0 74 13q6 3 7 3t1 -1t-5 -6q-32 -27 -65.5 -38t-78.5 -12v-14q0 -6 9 -10q-4 -14 -3 -17t8 -6.5t10 -7.5q39 -72 118 -115q2 -1 7 -9t20 -8q6 0 17.5 -3.5t13.5 -3.5q21 -6 45 -6 q30 0 45.5 7t42.5 29q1 1 18.5 13.5t22.5 16.5q9 7 13.5 2t-8.5 -16q-111 -94 -200 -94q-47 0 -92 26q-4 2 -17.5 14.5t-26.5 16.5q-8 2 -14 8t-13.5 15.5t-10.5 13.5q-55 62 -71 131q-4 11 -5 23l-9 -3q-4 0 -18.5 1.5t-22.5 1.5z" />
<glyph unicode="&#x2122;" horiz-adv-x="229" d="M27 557v11h74v-11h-31v-60h-11v60h-32zM109 497v68q0 4 4 6q1 0 4 -2.5t6.5 -7t7.5 -9.5t9.5 -12t10.5 -12q37 43 42 43q3 -1 3 -6v-68h-11v54q-32 -37 -35 -37q-5 0 -30 36v-53h-11z" />
<glyph unicode="&#xe000;" horiz-adv-x="385" d="M0 0v385h385v-385h-385z" />
</font>
</defs>
</svg>
