<?xml version="1.0" standalone="no"?>
<!DOCTYPE svg PUBLIC "-//W3C//DTD SVG 1.1//EN" "http://www.w3.org/Graphics/SVG/1.1/DTD/svg11.dtd" >
<svg xmlns="http://www.w3.org/2000/svg">
<metadata></metadata>
<defs>
<font id="action_manbold" horiz-adv-x="998" >
<font-face units-per-em="2048" ascent="1638" descent="-410" />
<missing-glyph horiz-adv-x="768" />
<glyph horiz-adv-x="2048" />
<glyph horiz-adv-x="2048" />
<glyph unicode="&#xd;" horiz-adv-x="2048" />
<glyph unicode=" "  horiz-adv-x="768" />
<glyph unicode="&#x09;" horiz-adv-x="768" />
<glyph unicode="&#xa0;" horiz-adv-x="768" />
<glyph unicode="!" horiz-adv-x="534" d="M555 1157q-12 -107 -43 -211t-63 -209q-20 -46 -35.5 -97t-35 -100t-46 -92.5t-67.5 -75.5q-31 2 -48.5 26t-21.5 53q-5 28 -8 55.5t-1 56.5q7 62 16.5 123t21.5 123q10 32 15.5 65t9.5 66q4 34 6 66t4 66q5 49 16.5 97t28.5 96q13 29 31.5 52.5t40 38.5t45 20.5 t48.5 -0.5q16 -5 28 -15t21 -23.5t15 -29t11 -30.5q7 -29 9.5 -59.5t1.5 -61.5zM382 116q-3 -29 -19 -55t-39.5 -44.5t-52.5 -27.5t-58 -6q-33 4 -59 22t-44 44t-27 58t-8 64q-1 31 14.5 55.5t39.5 41.5t53.5 25t56.5 6q35 -2 67.5 -15t51.5 -42q18 -26 23 -59.5t1 -66.5z " />
<glyph unicode="&#x22;" horiz-adv-x="761" d="M742 1087q-5 -37 -11 -77.5t-18 -79t-33.5 -72.5t-56.5 -58q-4 -1 -8.5 -3t-8.5 -3l-17 -4h-5q-19 -1 -32 7t-21.5 20.5t-14 28.5t-9.5 30q-8 35 -9.5 71t0.5 72l4 39q5 23 5 43q4 45 8.5 89.5t13.5 89.5q4 19 13.5 38.5t24 34t33.5 22.5t42 4q43 -13 64.5 -45.5 t29.5 -74.5t7.5 -87.5t-1.5 -84.5zM456 1097q-6 -36 -9.5 -78t-12.5 -82t-28 -74.5t-56 -56.5q-9 -5 -18 -5.5t-20 -0.5q-22 4 -38 17.5t-27 31.5t-18 39t-12 40q-13 43 -14.5 87t2.5 89q2 38 12.5 76.5t21.5 75.5q9 16 17.5 34t19 35t24 31t31.5 23q9 4 19 8t20 4 q21 2 36 -7t24.5 -23.5t15 -32.5t8.5 -34q7 -58 6.5 -105t-4.5 -92z" />
<glyph unicode="#" horiz-adv-x="1055" d="M1053 1017q1 -18 -7.5 -35t-22.5 -29.5t-31.5 -20.5t-35.5 -9h-57l-8 -99q20 -5 44 -9t45 -13t35 -24t14 -41q-2 -26 -15.5 -46t-28.5 -41q-20 -15 -39 -28.5t-43 -15.5l-19 -2h-17h-3q-2 -11 -4.5 -22t-2.5 -22q-3 -12 -5 -24.5t-7 -23.5q-13 -32 -43 -52t-63 -27 q-32 0 -51 16t-29 41t-12 53.5t0 53.5q-27 0 -54 2.5t-54 1.5l-5 -60q-2 -23 -16.5 -42.5t-32.5 -30.5q-18 -16 -41 -24.5t-46 -8.5q-28 6 -44.5 25t-25.5 43.5t-12 52.5t-5 52q-20 1 -39 0.5t-38 4.5q-18 1 -34.5 9.5t-29 21.5t-20 30t-7.5 36q1 33 20 54t46 33.5t58 18 t56 7.5q4 24 6.5 49t5.5 50q-16 -2 -33 -3t-32 1q-25 -2 -41.5 11.5t-30.5 29.5q-11 18 -17 39t-2 44q8 30 29 48t48 28.5t56.5 15.5t54.5 11q4 25 14.5 53t27.5 51.5t40.5 38.5t53.5 14q18 1 34.5 -6t29 -20t19 -29.5t3.5 -35.5l-5 -63l52 -2t52 -1q6 22 12 47.5t16.5 48.5 t28 39.5t45.5 19.5q23 -2 44 -12.5t38 -24.5q36 -29 41 -75l-2 -19v-17v-16q24 -4 50 -12.5t46.5 -23t33.5 -35.5t12 -50zM662 826q2 24 3.5 48.5t1.5 48.5h-104l-8 -100q27 1 53 1q27 0 54 2z" />
<glyph unicode="$" horiz-adv-x="957" d="M981 923q0 -20 -10.5 -33t-26 -20t-33.5 -9t-34 1q-24 2 -48 2.5t-46 5.5q-24 2 -47.5 7.5t-47.5 3.5q-9 1 -17 2t-17 3l-12 -12q4 -14 13.5 -23t21 -16t23.5 -13.5t22 -14.5q38 -20 75 -44t70 -51q33 -26 53.5 -63.5t18.5 -81.5q-9 -53 -42.5 -95.5t-75.5 -73.5 q-45 -31 -94 -54.5t-102 -36.5q-3 -24 -3.5 -48.5t-0.5 -48.5q-1 -25 -1 -49t-2 -48q-5 -32 -11.5 -64.5t-24.5 -62.5q-10 -20 -26 -33.5t-35 -22t-40 -11.5t-41 -3q-29 0 -55 14t-37 43q-2 13 -2 26q0 12 2 25q2 35 8.5 67.5t10.5 67.5q8 35 14.5 69t11.5 69 q-93 13 -170 63.5t-122 131.5q-8 14 -12 30.5t-2 33.5q-2 16 4.5 29t18 22t26.5 13t30 3q24 -2 47 -8.5t46 -15.5q23 -11 47.5 -18t46.5 -18q34 -8 69 -15t71 -7q10 1 21.5 2t21.5 4t17.5 9.5t9.5 18.5q3 25 -7 45.5t-27 35.5t-38.5 25.5t-41.5 16.5q-54 17 -108.5 31.5 t-108.5 29.5q-22 8 -42 22t-35 32.5t-22 41t-3 48.5q6 27 22 48t37.5 38t45.5 30.5t47 24.5q50 25 102 42.5t108 27.5q13 53 22.5 107t23.5 107q7 22 18 46.5t27 44.5t37.5 33t48.5 12q26 -2 53 -9.5t43 -27.5q22 -16 31.5 -41t7.5 -53q-3 -27 -7.5 -54.5t-14.5 -53.5 q-11 -26 -18.5 -52.5t-12.5 -52.5q42 -7 78.5 -26.5t71.5 -42.5q31 -22 56 -54.5t24 -73.5z" />
<glyph unicode="%" horiz-adv-x="1299" d="M1244 1374q-9 -43 -27 -83t-40.5 -78.5t-48 -76t-48.5 -74.5q-60 -91 -122 -178t-122 -177q-104 -154 -207 -305t-202 -306q-25 -35 -44.5 -72.5t-39.5 -74.5q-11 -22 -32.5 -33.5t-44.5 -9.5q-27 2 -49 14.5t-37 32t-22.5 44.5t-5.5 52q5 38 24 70.5t39 64.5 q94 149 190.5 296.5t190.5 296.5q-40 -31 -88 -46.5t-97 -13.5q-60 -2 -113.5 27t-82.5 80q-29 48 -36.5 105.5t0.5 114.5q9 57 27.5 112.5t56.5 104.5q35 51 87 83t113 37q71 13 126 -12t89.5 -74t47 -112.5t-1.5 -126.5q-3 -26 -7 -54t-12 -55q78 122 155.5 242.5 t161.5 238.5q9 13 18.5 26.5t20.5 25t24 20t29 10.5q27 -2 52 -12.5t43.5 -28.5t28 -42t6.5 -53zM1236 338q-8 -60 -32 -117.5t-62 -107.5q-40 -51 -95.5 -85t-118.5 -38q-68 -12 -117.5 13.5t-80 73t-40 108.5t2.5 119q-3 66 22 131t70 115.5t106.5 78.5t132.5 20 q57 2 107.5 -24.5t75.5 -76.5q26 -47 31.5 -101.5t-2.5 -108.5zM502 1073q1 17 3 33.5t0 33.5q-5 14 -18.5 22t-29.5 5q-12 0 -21.5 -6.5t-16 -16t-11 -20.5t-7.5 -21q-6 -23 -7.5 -46.5t-6.5 -47.5q-1 -9 0 -19t5 -18.5t11 -13t19 -2.5q22 0 36.5 12t23.5 29.5t13.5 38 t6.5 37.5zM1017 299l4 18l1 18v1q3 13 3.5 28.5t-3 29t-12.5 22.5t-25 9q-15 1 -27.5 -5.5t-21 -17t-13 -24t-5.5 -26.5q-8 -46 -5 -89q2 -22 17.5 -35.5t38.5 -10.5q14 -2 25 7.5t16 22.5q3 14 5 26.5t2 25.5z" />
<glyph unicode="&#x26;" horiz-adv-x="1125" d="M1097 802q-11 -128 -36.5 -251.5t-53.5 -250.5q-9 -32 -20 -65t-25.5 -64.5t-34 -60t-45.5 -52.5q-28 -22 -59.5 -36t-64.5 -23t-66.5 -13t-66.5 -6q-51 -2 -100 9t-93 32t-83.5 51t-72.5 65q-33 34 -60.5 74.5t-46 85t-27.5 93.5t-5 100q0 45 16.5 87.5t43.5 79.5 t63.5 67t77.5 51q-24 27 -47.5 58t-40.5 65t-25 71.5t0 78.5q3 37 17 71.5t35 66t48 58.5t57 50q62 45 132.5 69.5t144.5 24.5q55 1 109 -8.5t102 -27.5q23 -9 47 -20.5t43.5 -28t32.5 -37t14 -47.5q0 -27 -13.5 -50.5t-29.5 -45.5q-17 -20 -36 -38t-46 -18q-35 1 -69 9 t-67 15q-36 6 -72 11.5t-72 6.5q-21 -1 -44 -12q-9 -5 -19.5 -11t-12.5 -18q-4 -33 5 -68t37 -55q31 -19 68 -27.5t72 -16.5q36 -6 71 -13t73 -9q6 19 18.5 35t29 27.5t35.5 17t38 2.5q32 1 57.5 -12.5t42 -36t23 -51.5t1.5 -59zM795 582q-23 5 -47 7.5t-48 4.5 q-37 -3 -82 -4t-87 -11t-75 -33t-46 -70q-5 -50 23.5 -88t69.5 -60q42 -25 89 -37.5t97 -12.5l19 2l19 2l17 1q13 75 25.5 149.5t25.5 149.5z" />
<glyph unicode="'" horiz-adv-x="456" d="M461 1094q-5 -40 -13 -79.5t-23 -77.5q-8 -19 -16 -38.5t-18.5 -37.5t-24.5 -33t-33 -24q-9 -5 -19 -7t-20 -2q-47 13 -69 48.5t-29.5 81t-6 94.5t3.5 90q4 38 12.5 75.5t19.5 73.5q7 17 15 35.5t17.5 35.5t22 32t29.5 25q20 10 44 10q22 -3 37.5 -16t26 -31.5t17 -40 t10.5 -40.5q11 -42 16 -85.5t1 -88.5z" />
<glyph unicode="(" horiz-adv-x="903" d="M794 3q-4 -28 -18 -52.5t-34 -43.5t-45.5 -31.5t-53.5 -15.5q-57 -8 -108.5 8.5t-95.5 46.5q-88 53 -149.5 131.5t-105.5 168.5q-40 89 -57.5 186.5t-8.5 197.5q8 112 38.5 222.5t79.5 214.5q51 107 122.5 202.5t168.5 167.5q44 32 94 53.5t104 15.5q31 -3 55.5 -18.5 t40 -39t22.5 -52.5t4 -59q-4 -14 -13 -23.5t-20 -17t-23 -13t-23 -11.5q-86 -38 -156 -105t-114 -151q-47 -89 -67 -184.5t-30 -191.5q-3 -38 -3.5 -77t2.5 -77.5t11.5 -75t25.5 -70.5q35 -64 91 -111.5t119 -83.5q29 -17 59.5 -30.5t59.5 -27.5q14 -6 21.5 -21t6.5 -32z " />
<glyph unicode=")" horiz-adv-x="901" d="M899 737q-13 -137 -64 -266.5t-123 -252.5q-33 -54 -73.5 -114t-90 -108.5t-109 -78.5t-130.5 -25q-26 4 -51 16t-44.5 31t-31 43.5t-11.5 53.5q0 14 6 29t19 24q14 6 29.5 13.5t30.5 10.5q47 17 87 46.5t73 66.5t60 79t48 86q49 95 75.5 195.5t35.5 203.5q6 85 -15 168 t-72 146q-49 60 -113.5 102.5t-139.5 68.5q-11 6 -23.5 12t-23 15t-17 20.5t-6.5 27.5q3 30 19.5 53.5t40 40.5t51.5 27.5t55 13.5q69 12 130 -4.5t112.5 -52.5t92 -86t68.5 -105q62 -112 89.5 -239.5t15.5 -260.5z" />
<glyph unicode="*" horiz-adv-x="852" d="M867 1067q-2 -22 -11.5 -45t-31.5 -34q-42 -23 -83.5 -48t-81.5 -51q32 -23 65 -45.5t66 -44.5q20 -13 25.5 -37t0.5 -47q-5 -20 -12.5 -41.5t-21.5 -38.5q-16 -18 -35.5 -31t-41.5 -15q-32 0 -57.5 16t-48.5 33q0 -6 -0.5 -13t-2.5 -14q-2 -24 -18.5 -44.5t-36.5 -34.5 q-42 -31 -94 -34q-31 3 -48 21t-24.5 43.5t-8 55t0.5 53.5q-12 -7 -24.5 -15.5t-25.5 -16t-26.5 -12t-27.5 -2.5q-26 -2 -47 8.5t-40 23.5q-18 13 -30.5 32.5t-12.5 44.5q9 30 28.5 53.5t44 42.5t52 35.5t51.5 33.5q-21 17 -43.5 34.5t-41.5 37.5t-32 44t-16 53q5 22 17 42 t29 35.5t38 25t44 10.5q18 1 32.5 -5.5t27.5 -17t24 -22.5t22 -23l1 12q4 31 12.5 61t23.5 58q16 27 42 46t57 17q20 0 38 -8t32 -21.5t22 -31t7 -38.5q-2 -22 -5 -42.5t-5 -42.5q27 23 59.5 40.5t68.5 19.5q21 -3 39.5 -13.5t32.5 -26t22.5 -35t9.5 -41.5z" />
<glyph unicode="+" horiz-adv-x="817" d="M838 678q-3 -21 -13.5 -40t-26 -34t-35.5 -24t-41 -10q-35 0 -69 -2.5t-69 -2.5q-4 -29 -5.5 -59.5t-6.5 -60.5q-4 -26 -19.5 -46t-35.5 -35q-20 -17 -44.5 -27.5t-50.5 -10.5q-38 8 -57 34.5t-26.5 61.5t-8 73t-1.5 70q-29 0 -58.5 -0.5t-60.5 2.5q-26 1 -47 13.5 t-35 32.5q-14 19 -23.5 42.5t-5.5 49.5q13 39 42.5 60t66.5 31t77 13t73 7l2 19q3 32 11.5 70t25.5 70.5t45 54.5t70 21q21 0 39 -8.5t32 -22.5t22 -32t8 -39q-4 -36 -4 -70t-5 -70q5 0 11 -1t11 -1q33 1 71 -3.5t70 -19t53 -40t18 -66.5z" />
<glyph unicode="," horiz-adv-x="485" d="M428 159q-5 -36 -18 -69.5t-32 -65t-42.5 -60.5t-47.5 -56q-13 -14 -27 -29.5t-29.5 -28.5t-33 -21.5t-38.5 -9.5q-8 2 -15 2t-15 2q-20 2 -33.5 12t-22 24.5t-12 32.5t-2.5 35q2 31 11 60.5t22 58t29 56t33 53.5q18 23 37.5 49.5t42 49t48.5 38t58 17.5q27 -3 48.5 -16 t30.5 -39q5 -23 8 -47t0 -48z" />
<glyph unicode="-" horiz-adv-x="961" d="M911 678q-5 -22 -17.5 -40t-30.5 -32t-39.5 -22.5t-43.5 -10.5q-121 -8 -240.5 -7t-240.5 2q-53 8 -87 45q-17 18 -30.5 41.5t-9.5 50.5q15 38 45 59t67 30.5t76 12.5t73 5q23 -1 45 -1t44 -2q23 0 46 -1.5t46 -1.5q45 0 90.5 -3t90.5 -8q21 -5 42.5 -14t38.5 -23.5 t27 -34.5t8 -45z" />
<glyph unicode="." horiz-adv-x="509" d="M430 167q-2 -36 -17 -69.5t-39 -61.5q-23 -29 -56 -47t-69 -18q-39 -3 -68 14t-47.5 44.5t-25 62.5t-0.5 70q5 31 21 59.5t40 49.5t54 33t62 12q32 3 60 -8t48 -32t30 -49.5t7 -59.5z" />
<glyph unicode="/" horiz-adv-x="843" d="M916 1341q-1 -35 -13.5 -67t-25.5 -64q-17 -33 -32.5 -67t-33.5 -68q-118 -247 -243.5 -489t-272.5 -477q-15 -22 -32.5 -47t-39.5 -45t-47 -32t-55 -7q-35 6 -53 33t-15 61q2 57 24 112t48 108q31 58 60.5 116t60.5 116q36 69 68.5 139t67.5 139q63 121 132 237.5 t141 231.5q16 24 35 51t41.5 49t49.5 35t60 9q13 -3 27 -8.5t25.5 -15t17.5 -22t5 -28.5z" />
<glyph unicode="0" horiz-adv-x="1089" d="M1051 640q-11 -111 -43 -220t-97 -207q-29 -49 -69.5 -92t-88.5 -75t-102 -49.5t-112 -15.5q-59 0 -108.5 21.5t-89.5 57t-70 81t-51 93.5q-44 98 -64.5 205.5t-8.5 219.5q10 115 42.5 227t90.5 217q25 49 58.5 99t76.5 90.5t94 67t111 28.5q94 0 165.5 -33.5t122.5 -91 t83.5 -133t49 -159t18.5 -169t-8 -162.5zM790 725q1 35 2.5 76.5t-0.5 83.5t-10 81.5t-26 71.5t-47.5 53.5t-75.5 26.5q-35 -2 -60.5 -21t-44 -47t-31.5 -60t-23 -60q-29 -95 -40.5 -179.5t-18.5 -166.5q-2 -28 -3.5 -61.5t0.5 -67t9 -65t22 -56.5t39 -41.5t61 -19.5 q33 -2 61.5 11t52 34.5t41.5 49.5t31 55q28 84 41.5 157t19.5 145z" />
<glyph unicode="1" horiz-adv-x="555" d="M539 1026q-6 -89 -17.5 -176t-24.5 -176q-12 -89 -26.5 -177.5t-23.5 -177.5q0 -22 -2.5 -42.5t-2.5 -42.5q0 -20 -2.5 -41t-4.5 -41q-2 -26 -10.5 -51t-20.5 -48q-11 -25 -33 -44t-48 -24q-39 -7 -73 10t-52 49q-10 22 -14 47t-4.5 50.5t1.5 51.5t3 51q7 78 17 157 t21 157q11 81 23 162t20 162q1 22 3 46t2.5 47t-2.5 45.5t-12 42.5q-15 14 -31 29.5t-28.5 32.5t-19 37.5t-3.5 44.5q3 31 15.5 60.5t32.5 54.5t47 42t60 22q17 -4 31 -11t29 -15q36 -21 65 -52t48.5 -68.5t29.5 -80t9 -86.5q-2 -11 -2 -24v-23z" />
<glyph unicode="2" horiz-adv-x="1125" d="M1062 189q-31 -33 -69 -55t-79.5 -37.5t-84.5 -28t-83 -25.5q-94 -25 -190.5 -41t-193.5 -12q-33 0 -58 16.5t-40.5 41.5t-21.5 56.5t-3 61.5q3 39 13.5 77t26.5 74.5t36.5 71.5t41.5 68q55 81 109.5 160.5t110.5 160.5q22 34 44 70t39.5 73t30 75.5t17.5 78.5 q2 13 -0.5 25.5t-8.5 22t-16.5 15.5t-25.5 5q-31 -1 -61.5 -8t-59.5 -19q-27 -10 -54 -22.5t-47 -37.5l-8 -18l-7 -17l-5 -16q-6 -20 -19.5 -37.5t-30.5 -30t-37.5 -19.5t-40.5 -7q-29 -2 -54 12t-33 43q-13 23 -14.5 51t2.5 55q7 45 31.5 82.5t58.5 68t74 54t80 41.5 q84 37 172.5 53t177.5 13q60 -2 100.5 -39.5t61.5 -88.5q24 -50 33.5 -106t7.5 -114q-4 -71 -30.5 -137t-63.5 -128q-47 -66 -92.5 -130.5t-93.5 -128.5q-44 -62 -83.5 -126.5t-60.5 -136.5q98 16 194.5 38t193.5 34q27 2 47.5 -11.5t34.5 -33.5q15 -17 24 -39t7 -48z" />
<glyph unicode="3" horiz-adv-x="1104" d="M1077 555q-5 -59 -25.5 -114.5t-51.5 -107t-71.5 -97.5t-85.5 -84q-45 -41 -96 -73.5t-105.5 -54.5t-112.5 -32.5t-116 -6.5q-36 4 -65.5 21.5t-47.5 46.5q-23 27 -34 61.5t-8 71.5q1 17 6.5 35t22.5 26t35 10t35 4q32 3 62 5t59 9q57 13 109 35t101 57q23 16 44 36 t37.5 43t27.5 49t14 55q2 10 2 22t-4 22.5t-11.5 17.5t-20.5 8q-79 0 -157.5 -15t-153.5 -52q-26 -13 -50 -26.5t-51 -21.5q-28 3 -50.5 19.5t-38.5 36.5q-19 20 -29.5 44t-10.5 52q4 46 36 81t69 59q48 29 94 56.5t94 56.5q40 29 73.5 69t37.5 91q2 8 5 16.5t5 16.5l-8 8 q-52 -9 -97.5 -35.5t-90.5 -53.5l-76 -48t-79 -42q-14 -1 -25.5 3t-22.5 10.5t-20.5 14.5t-18.5 16q-14 18 -28 37t-12 45q11 39 34.5 70t53.5 57.5t63.5 49.5t65.5 45q34 18 70 37t72.5 34t75 24.5t77.5 10.5q56 0 104 -23t86 -59q36 -36 59 -83.5t21 -102.5 q-5 -60 -33.5 -116t-62.5 -108q61 -6 107.5 -37.5t75.5 -79t38.5 -105.5t-2.5 -117z" />
<glyph unicode="4" horiz-adv-x="1029" d="M985 602q-8 -37 -29 -71t-58 -50q-4 -14 -6 -29t-5 -29q-2 -32 -4 -64.5t-4 -64.5q0 -32 -3 -62.5t-6 -62.5q-3 -28 -12.5 -57.5t-26.5 -54.5t-41 -42.5t-56 -21.5q-42 -6 -77.5 12t-47.5 58q-15 38 -13 82.5t5 86.5q5 49 12 94q5 23 8 47t7 47q-2 13 0.5 24.5t1.5 24.5 q-18 3 -35 3.5t-35 0.5q-65 0 -129 5.5t-124 23.5q-28 7 -57 16.5t-56 22t-50.5 30.5t-39.5 42q-11 20 -12.5 44.5t0.5 49.5q7 60 25.5 118t42.5 115q26 60 56 116t66 110q17 28 37.5 54.5t42.5 50.5q19 23 41 45t51 32q29 2 53.5 -11.5t43.5 -30.5q18 -20 32.5 -45 t12.5 -54q-12 -52 -38.5 -98.5t-52.5 -93.5q-31 -54 -58 -107.5t-49 -110.5q59 -11 119 -17.5t120 -14.5q9 42 12.5 83.5t7.5 83.5q4 41 6 82.5t6 82.5q4 45 11 90.5t21 90.5q5 21 17 39.5t29 32t37 20.5t42 4q30 -3 53 -17.5t39 -36t24 -48.5t7 -55q-2 -53 -6 -106t-9 -106 q-5 -54 -10.5 -107.5t-10.5 -107.5q-2 -15 -1 -29.5t-1 -30.5q35 -17 57 -51t17 -77z" />
<glyph unicode="5" horiz-adv-x="1116" d="M1106 626q-6 -67 -32 -128.5t-64 -117t-85.5 -105t-98.5 -92.5q-50 -42 -106.5 -79.5t-117 -64.5t-124.5 -40t-128 -6q-34 4 -61.5 22t-44.5 45q-18 27 -26 59t-8 65q2 31 18.5 59.5t49.5 34.5q29 5 56.5 8.5t56.5 1.5q27 0 54.5 1t54.5 8q27 8 52 23.5t47.5 34.5t43 40 t40.5 42q19 22 38 45t35.5 48t28.5 51.5t17 55.5l2 18q2 14 -2.5 28.5t-21.5 16.5q-27 -3 -51.5 -13t-47 -24t-44 -30t-43.5 -31q-44 -35 -86 -69.5t-86 -68.5q-27 -22 -61 -36.5t-67 -14.5q-39 2 -65.5 26t-40.5 56q-13 33 -21 68.5t-3 73.5q5 63 12.5 125t18.5 125 q13 61 22 122t20 121q8 48 34 94t69 75q42 29 90 45t96 25q59 13 119 15.5t120 -0.5q33 -2 66.5 -6.5t59.5 -24.5q29 -19 41 -52.5t7 -68.5q0 -20 -8.5 -39.5t-27.5 -30.5q-20 -9 -41 -8.5t-41 -1.5q-40 -2 -79.5 -5t-79.5 -5q-40 -7 -79 -14t-76 -24q-14 -67 -24.5 -132.5 t-21.5 -131.5q34 36 75 65.5t86 49.5t93 30t96 8q69 -2 133 -28.5t104 -82.5q21 -26 34 -56.5t19.5 -63.5t7.5 -67.5t-3 -68.5z" />
<glyph unicode="6" horiz-adv-x="1044" d="M1039 526q-10 -102 -56.5 -195.5t-115.5 -171.5q-34 -39 -74.5 -72t-86.5 -57.5t-95.5 -37.5t-100.5 -11q-45 0 -86.5 14t-77.5 37.5t-66.5 55t-52.5 67.5q-47 70 -75.5 152.5t-20.5 172.5q11 114 44.5 226t75.5 221q22 52 43 105t45 105t53.5 101t68.5 93q26 25 57.5 39 t65.5 16q22 5 40 -0.5t31.5 -18t21.5 -30t9 -37.5q2 -17 2.5 -33t0.5 -33q-24 -58 -53.5 -112.5t-58.5 -109.5q-22 -44 -43.5 -86.5t-38.5 -89.5q58 30 121 41.5t125 9.5q71 0 135.5 -28t106.5 -82q38 -53 51 -119t5 -132zM778 505q2 19 0 40t-10 38t-22.5 28t-37.5 9 q-38 1 -73 -15t-68 -37q-34 -19 -63 -46.5t-48 -62.5q-17 -31 -31 -62t-15 -64q-3 -23 7.5 -38.5t28 -24.5t38.5 -12.5t40 -3.5q49 -2 96 16t83 56q34 37 52.5 84t22.5 95z" />
<glyph unicode="7" horiz-adv-x="1027" d="M1056 1191q-24 -98 -66.5 -193.5t-83.5 -190.5q-53 -117 -106.5 -231t-110.5 -230q-24 -54 -37.5 -109t-30.5 -112q-8 -27 -17.5 -55.5t-24.5 -52.5q-20 -22 -47.5 -28t-53.5 -8q-35 -3 -63 11t-46.5 38t-26 55.5t-2.5 64.5q5 63 27 122t46 119q80 173 156.5 343.5 t154.5 344.5q4 13 8.5 24.5t9.5 24.5q-29 2 -57.5 4.5t-58.5 2.5q-59 1 -118 -17t-102 -65q-18 -22 -41.5 -38t-50.5 -20q-29 -2 -57 4t-50 22q-23 11 -33 36t-5 51q5 42 25 78.5t50 66t66.5 52t75.5 36.5q80 30 162.5 38t164.5 5q57 -2 111.5 -9.5t107.5 -24.5 q25 -10 48 -25t40.5 -35t27 -44.5t8.5 -54.5z" />
<glyph unicode="8" horiz-adv-x="1062" d="M1043 990q0 -49 -16 -95.5t-44 -87t-66 -73.5t-82 -55q36 -20 66 -49t50 -65t29 -77.5t3 -86.5q-11 -84 -54.5 -158t-105.5 -134q-63 -60 -141.5 -96t-162.5 -33q-78 0 -147.5 28.5t-122.5 80.5q-54 51 -86 121t-28 148q0 49 17 94.5t46 84.5t67 71t81 54q-39 18 -72 46 t-55.5 64t-32.5 78.5t-2 88.5q11 88 59 165t114 138q32 31 68.5 58t76.5 46t82.5 29t86.5 9q80 0 146 -35.5t115 -90.5q51 -53 83 -122t28 -146zM744 1026q1 18 -4.5 36.5t-16 33t-26 23.5t-35.5 9q-29 0 -56.5 -14.5t-50.5 -34.5t-38 -46.5t-19 -54.5q-2 -21 3.5 -40.5 t18 -34.5t30.5 -24t41 -9q29 0 54.5 15t45.5 35q20 23 35.5 49.5t17.5 56.5zM684 357q2 22 -5.5 42t-21.5 35.5t-33.5 24.5t-41.5 9q-29 0 -54 -12t-48 -29q-20 -17 -37 -39t-20 -48q-3 -24 8 -40t28.5 -25t39 -12.5t40.5 -3.5q23 -2 48.5 3t47 17t35.5 31.5t14 46.5z" />
<glyph unicode="9" horiz-adv-x="1039" d="M1027 889q-6 -65 -21.5 -129.5t-36 -128t-45.5 -126t-50 -123.5q-28 -53 -54 -113t-57.5 -115.5t-73 -101.5t-100.5 -71q-21 -3 -39.5 3.5t-31 20t-18.5 32.5t-2 40v14t2 15q2 6 2.5 12.5t2.5 12.5q9 60 34.5 113.5t52.5 107.5q29 59 58.5 115.5t57.5 116.5 q-63 -48 -137 -76t-151 -27q-71 0 -134.5 28.5t-106.5 82.5q-38 53 -50.5 119.5t-5.5 135.5q11 72 34 141t63 132q42 66 97 120t122 91q46 27 98.5 42t104.5 13q93 0 170.5 -46t126.5 -120q48 -72 70.5 -156t17.5 -175zM742 1033q0 19 -10 31t-25 18.5t-32.5 8.5t-32.5 3 q-52 5 -99 -14.5t-82.5 -55.5t-57 -83.5t-22.5 -97.5q-3 -17 -2.5 -36.5t6.5 -36.5t18.5 -28.5t33.5 -11.5q29 0 56.5 9t52.5 24t48 34t43 39q39 42 70 91t35 106z" />
<glyph unicode=":" horiz-adv-x="497" d="M451 754q0 -29 -7.5 -61.5t-24 -59.5t-43 -44t-62.5 -14q-31 2 -60.5 16t-46.5 40q-18 23 -21 53.5t-2 59.5q5 29 14.5 59.5t30.5 56.5q18 26 44.5 44t57.5 18q31 -3 58 -15.5t41 -41.5q17 -24 19 -53t2 -58zM411 186q-11 -73 -53 -135q-11 -15 -25 -28.5t-30 -23.5 t-33.5 -16t-35.5 -5q-40 0 -67.5 19t-44 49t-22.5 66.5t-3 70.5q2 32 18.5 57t41.5 42.5t55 26t59 7.5q30 4 58.5 -3.5t49 -25t30.5 -43t2 -58.5z" />
<glyph unicode=";" horiz-adv-x="527" d="M521 713q0 -59 -45 -107q-24 -23 -53 -35.5t-61 -10.5q-29 0 -57 7.5t-51 24.5q-16 18 -24.5 36t-12 35.5t-3.5 34.5t1 34q3 31 16 64t34.5 58.5t51 41t64.5 12.5t62 -22t45 -46.5t26.5 -60.5t6.5 -66zM440 171q-6 -37 -20 -71.5t-33.5 -66.5t-42 -62.5t-45.5 -59.5 q-14 -14 -28 -29t-30 -27.5t-33.5 -20t-38.5 -5.5q-7 2 -14 3t-13 2q-39 12 -53.5 46.5t-11.5 71.5q4 57 31 108t58 99q18 25 38 51t43.5 48.5t50.5 38.5t59 20q26 0 50 -10.5t32 -36.5q6 -23 4.5 -49t-3.5 -50z" />
<glyph unicode="&#x3c;" horiz-adv-x="821" d="M732 447q-3 -21 -12.5 -40.5t-24 -35.5t-33.5 -26t-41 -12q-44 0 -82.5 15t-74.5 34q-41 25 -81 49t-83 47q-29 20 -62.5 39.5t-64 42t-54 50.5t-32.5 66q5 27 19.5 49.5t34 42t42 36t42.5 32.5q52 30 100.5 61t99.5 62q27 18 55.5 35.5t57.5 34.5q26 16 55.5 25.5 t58.5 7.5q21 -2 40 -12t33 -25.5t22 -35t7 -40.5q-1 -22 -9 -44t-30 -33q-71 -45 -141 -90.5t-139 -92.5q66 -35 130.5 -69t129.5 -69q15 -6 24 -17.5t12.5 -25.5t3.5 -30t-3 -31z" />
<glyph unicode="=" horiz-adv-x="983" d="M934 833q3 -26 -7.5 -45.5t-29 -33t-41.5 -19.5t-45 -3h-514q-24 -1 -44.5 9t-34 27t-18.5 39t0 46q4 21 16 36t28 26.5t34.5 20t35.5 15.5q38 14 76 20t76 9h40q21 0 40 -2q40 -3 82 -3q13 1 25.5 -0.5t25.5 -1.5q13 2 26 2q14 0 27 -2q33 0 68.5 -7.5t65 -24 t48.5 -43.5t20 -65zM896 517q-7 -24 -23 -44t-36.5 -34.5t-44.5 -23t-48 -9.5q-115 -8 -227.5 -7t-224.5 9q-26 2 -48 13t-38.5 28t-27 40t-11.5 49q-1 20 8.5 35t24.5 25.5t32.5 17.5t33.5 12q40 11 80.5 16.5t80.5 5.5q22 0 42.5 -1t42.5 -4q43 -3 89 -3h49q12 2 23.5 1.5 t24.5 1.5q20 0 44.5 -1.5t48 -6.5t45 -13.5t37 -22.5t22 -35t1.5 -49z" />
<glyph unicode="&#x3e;" horiz-adv-x="821" d="M852 686q-6 -29 -22 -53.5t-37 -45.5t-45.5 -40t-47.5 -37q-47 -32 -93.5 -62.5t-94.5 -61.5q-29 -17 -56 -36t-57 -34q-26 -16 -55.5 -25.5t-58.5 -7.5q-44 7 -72 39.5t-32 75.5q2 23 10.5 43.5t30.5 34.5q73 48 143 98t142 100q-67 38 -131.5 77t-133.5 77 q-14 7 -22 19t-11.5 26t-3.5 29q0 16 3 30q3 20 12 39.5t23 34.5t32 25t39 12q33 -3 64 -14t60 -25t57.5 -30t57.5 -30q63 -38 124 -77t117 -87q19 -20 37.5 -41.5t20.5 -52.5z" />
<glyph unicode="?" horiz-adv-x="1044" d="M1070 1050q-16 -76 -63 -134t-108.5 -104t-130.5 -84.5t-130 -75.5q30 -2 59.5 -3.5t58.5 -1.5q29 -4 55.5 -7.5t53.5 -9.5q5 -18 10.5 -37.5t3.5 -39.5q-1 -21 -9 -39.5t-20.5 -34.5t-28.5 -29.5t-33 -24.5q-19 -2 -37 -2.5t-38 -2.5q-19 -2 -38 -2h-37 q-66 -2 -128.5 10t-120.5 35q-26 11 -52 27t-46 37.5t-31 48t-6 59.5q3 31 18 57t36 48.5t46 41.5t50 34q66 35 132 70.5t133 67.5q20 12 42 23.5t42.5 25.5t36 32t21.5 42q-3 25 -18.5 38.5t-38 20t-47 8t-45.5 3.5q-48 2 -96 -9t-92 -35q-29 -23 -48 -52t-39 -58 q-17 -32 -48.5 -55t-68.5 -25q-24 -1 -44 8.5t-33.5 26t-20 38.5t-3.5 45q6 45 26.5 84.5t50 73.5t66 61.5t75.5 48.5q80 45 167.5 66.5t175.5 16.5q68 -2 135 -21t115 -64q50 -46 72 -112t18 -135zM649 164q-3 -34 -17 -67.5t-37.5 -60t-55 -42.5t-68.5 -14q-42 2 -80 13.5 t-70 35.5t-49 61t-14 79q-2 38 16 71t47 56t64.5 35.5t70.5 9.5q38 3 76 -9t66.5 -35t43 -57t7.5 -76z" />
<glyph unicode="@" horiz-adv-x="1510" d="M1498 768q-2 -50 -12 -100.5t-28 -99t-45 -93.5t-63 -84q-35 -42 -78.5 -73.5t-92 -53.5t-100.5 -33t-103 -11q-86 -2 -169 14.5t-160 47.5q-35 15 -71 34.5t-64.5 46.5t-46.5 61.5t-16 78.5q1 37 14.5 71.5t36.5 64.5t53 54t63 41q69 36 144.5 50.5t150.5 12.5 q-6 31 -25 58t-50 36q-26 5 -50.5 12.5t-51.5 9.5q-26 11 -34.5 37.5t-6.5 53.5q3 27 17 51.5t35 42t47 27t53 8.5q39 1 77 -7t72 -24.5t62 -41.5t47 -58q41 -65 52.5 -141t3.5 -154q-7 -63 -23 -126.5t-47 -121.5q49 11 82 42.5t53.5 73t30 89t11.5 89.5q14 78 -3.5 154 t-61.5 134.5t-111 91.5t-151 26q-48 0 -97 -5t-96.5 -17.5t-92.5 -33.5t-85 -53q-47 -42 -80 -89t-54 -97t-32 -101t-15 -101q-17 -89 3 -174.5t70 -151t126.5 -102t172.5 -27.5q20 3 38.5 -3t32 -19t19.5 -31.5t1 -39.5q-3 -27 -17 -51.5t-35 -42.5t-47 -28.5t-53 -10.5 q-63 0 -124 14t-115.5 40t-101 64.5t-82.5 88.5q-76 95 -105.5 214.5t-19.5 246.5q5 75 24.5 149t52.5 143.5t79.5 132t106.5 114.5q59 52 127 90.5t140.5 63t148.5 35t151 7.5q59 0 116 -12t109 -35.5t96.5 -58.5t77.5 -80q72 -88 101 -200.5t18 -229.5zM928 577 q-14 2 -28 6t-30 6q-26 -3 -56.5 -2.5t-60 -4t-55 -17t-41.5 -39.5q11 -25 36 -36.5t48 -20.5q24 -10 52 -17t57 -7q29 26 47 61t31 71z" />
<glyph unicode="A" horiz-adv-x="1205" d="M1116 108q-8 -39 -37.5 -67t-68.5 -34q-32 -5 -65.5 0.5t-55.5 30.5q-17 29 -22.5 63.5t-9.5 67.5l-8 64t-11 64q-16 6 -33 10t-35 2q-48 0 -94 -6t-92 -15q-44 -10 -88 -21t-81 -40q-20 -17 -26.5 -40t-11.5 -45l-8 -52t-17 -49q-14 -26 -41.5 -34t-52.5 -5 q-36 6 -64 28.5t-47 51.5q-18 29 -28 62.5t-10 68.5q3 62 22 121.5t45 117.5q28 65 57 126.5t57 124.5q32 102 69 201.5t73 199.5q20 40 41.5 86.5t49.5 87t65 71t88 39.5q46 0 88 -19t74 -48q35 -29 58.5 -68.5t40.5 -83.5q11 -42 19 -83t19 -82q33 -164 64.5 -327 t57.5 -329q8 -28 11 -57.5t10 -58.5q4 -29 3.5 -58.5t-5.5 -59.5v-6zM751 642q1 48 -5.5 95t-17 93t-23 91.5t-24.5 90.5q-32 -44 -55.5 -91.5t-43.5 -97.5q-18 -49 -32.5 -100t-18.5 -102l-2 -19v-17v4q26 -2 53 -2t53 -2h29q13 0 28 2.5t28 9.5t22 18t9 27z" />
<glyph unicode="B" horiz-adv-x="1219" d="M1193 515q-8 -65 -40 -119.5t-77.5 -100t-100 -82.5t-108.5 -66q-64 -34 -130 -60t-133 -48l-62 -18t-62.5 -15.5t-63.5 -9t-63 0.5q-34 2 -60.5 17.5t-46.5 39t-35 52t-25 56.5q-20 60 -25.5 122.5t-3.5 126.5q4 58 12.5 115.5t19.5 115.5q14 59 26.5 118.5t20.5 120.5 q5 35 5 69t1 69q4 35 5 68t7 68q6 33 24 60t42 49t52.5 39t55.5 30q61 26 125.5 38.5t127.5 14.5q67 2 132 -11.5t122 -45.5q28 -13 54 -32.5t45.5 -44.5t30 -55t8.5 -64q-1 -60 -23.5 -116.5t-59.5 -106.5q55 -25 94.5 -70.5t65.5 -98.5q26 -52 37.5 -108.5t5.5 -117.5z M765 1055q2 20 -7.5 33.5t-24.5 21t-34 10t-35 1.5q-21 1 -44 -3t-43 -14.5t-35.5 -28t-19.5 -41.5q-10 -53 -15 -109v-53q40 11 78.5 27t73.5 38q16 10 33.5 22t32.5 26.5t26 31.5t14 38zM877 575q3 31 -8.5 59t-32.5 49l-3 6q-69 0 -136.5 -14t-129.5 -54 q-30 -18 -53.5 -44t-39 -56t-24.5 -62.5t-11 -65.5q-3 -16 0.5 -32.5t11.5 -29t22 -20t32 -6.5q62 -1 120.5 21t111.5 58q52 32 92 80.5t48 110.5z" />
<glyph unicode="C" horiz-adv-x="1159" d="M1142 937q0 -27 -11.5 -49t-31 -37t-43.5 -21.5t-49 -1.5q-40 0 -73 21t-48 56q-11 35 -24.5 67t-25.5 67q-10 25 -28 47.5t-47 24.5q-42 0 -78 -18t-65.5 -46.5t-52.5 -64.5t-39 -71q-40 -75 -63 -156.5t-31 -165.5q-4 -58 6.5 -113.5t42.5 -101.5q29 -51 79.5 -78.5 t110.5 -25.5q51 1 98 22t89 53q26 23 55.5 43.5t62.5 31.5q23 2 42.5 -12t25.5 -36q12 -18 14.5 -40.5t-0.5 -44.5q-11 -62 -47.5 -114.5t-87.5 -92.5q-48 -41 -105.5 -68t-117.5 -29q-64 -5 -124 9t-113.5 42t-99 68t-81.5 87q-37 48 -66.5 101.5t-48 111.5t-26 120 t-1.5 125q11 125 56.5 244.5t119.5 226.5q34 51 76.5 100t93.5 87t109.5 60.5t123.5 20.5q45 0 86.5 -11t79 -30.5t71 -46t61.5 -57.5q56 -60 91.5 -138t33.5 -166z" />
<glyph unicode="D" horiz-adv-x="1196" d="M1191 836q-4 -80 -25.5 -158t-58 -152t-85 -142t-106.5 -128q-53 -60 -117.5 -112t-137 -88.5t-150 -53.5t-156.5 -7q-45 3 -82 23.5t-63.5 52.5t-41 73t-13.5 85q2 23 3.5 47t5.5 47q2 24 7.5 48t7.5 49q3 28 5 55t4 56q4 42 6 85t6 85q4 43 8.5 86.5t9.5 86.5 q10 57 18 116t19 117.5t29 114t49 106.5q41 15 83.5 23.5t85.5 13.5q50 9 98.5 14.5t97.5 8.5q76 5 144.5 -13.5t126 -55.5t102.5 -90t74.5 -116t41.5 -133.5t4 -143.5zM923 891q0 20 1 41.5t0 42.5t-6 41t-17 37q-13 16 -30.5 26t-37.5 15t-41 7t-41 3q-24 -1 -50 -1 t-52 -2q-25 -3 -49 -3.5t-49 -1.5q-10 -6 -15.5 -15.5t-9 -20t-6 -21.5t-5.5 -20q-2 -25 -5 -49t-8 -48q-16 -85 -24.5 -170t-14.5 -172q-7 -63 -8.5 -125t9.5 -124q47 8 88 30t77.5 52.5t68.5 66t61 71.5q29 38 56.5 78t49.5 83t37.5 87.5t20.5 91.5z" />
<glyph unicode="E" horiz-adv-x="1155" d="M1103 364q-7 -29 -18.5 -55t-31.5 -48q-34 -34 -73 -60t-81.5 -48t-86.5 -40.5t-87 -37.5q-43 -15 -86.5 -30.5t-87.5 -28t-88 -19.5t-89 -6q-36 7 -71.5 18.5t-58.5 39.5q-27 27 -40 62t-25 70q-17 81 -16.5 165t3.5 169q11 102 20.5 207t27.5 208t50 202.5t89 191.5 q69 25 139 34.5t141 13.5q81 9 160 8.5t156 -6.5q32 -1 60.5 -14t48.5 -35t30 -51t6 -62q3 -44 -22 -77q-8 -20 -27.5 -29.5t-39.5 -9.5q-113 9 -226 11.5t-228 -1.5q-13 -32 -24 -65t-13 -68v-14q54 4 108 7t108 7t106 5.5t106 -0.5q33 2 64.5 -9t54 -32.5t33.5 -51.5 t5 -66q-1 -31 -18 -52.5t-42 -35t-53.5 -20.5t-53.5 -10q-78 -8 -156 -14.5t-156 -17.5q-35 -6 -68 -23.5t-58.5 -43.5t-41 -59t-15.5 -70q-5 -45 3 -87t19 -84q71 8 136.5 37.5t129.5 63.5q66 36 136.5 62.5t143.5 32.5q29 4 50 -7t33.5 -31t16.5 -45.5t-2 -50.5z" />
<glyph unicode="F" horiz-adv-x="1012" d="M1053 763q-3 -24 -15.5 -42.5t-30.5 -32.5t-39.5 -23.5t-42.5 -15.5q-62 -21 -125 -29.5t-126 -15.5q-54 -8 -106.5 -14t-103.5 -27q-2 -29 -2 -58t-3 -58q-2 -40 -2.5 -80t-2.5 -80q-5 -48 -13 -95.5t-28 -92.5q-6 -19 -17.5 -38.5t-26.5 -34.5t-34 -23t-41 -5 q-27 4 -50 18t-34 39q-23 70 -27.5 145.5t-11.5 149.5q-3 81 -3.5 160.5t4.5 160.5q12 130 41 257.5t77 252.5q16 42 45.5 78t70.5 59q49 13 98 25t100 17q54 12 107.5 15t107.5 6q39 -2 77 -14.5t67.5 -36t46 -56.5t12.5 -76q1 -22 -9 -39t-26 -30t-35.5 -22t-38.5 -13 q-45 -11 -90.5 -15t-90.5 -2q-33 2 -66.5 2.5t-66.5 2.5h-14q-7 0 -13 -2q-23 -35 -30.5 -76.5t-12.5 -83.5l-2 -22q44 2 86.5 5.5t87.5 7.5q43 3 85 7t84 2q30 1 58 -7t52 -23.5t41 -38t25 -51.5q3 -9 6 -17.5t1 -19.5z" />
<glyph unicode="G" horiz-adv-x="1249" d="M1215 660q-2 -26 -6.5 -51t-8.5 -49q-20 -104 -69 -200.5t-121 -180.5q-34 -41 -74.5 -77.5t-86.5 -63.5t-96.5 -43t-103.5 -15q-66 -2 -123.5 20t-105.5 59.5t-86.5 86.5t-67.5 101q-64 105 -95.5 226.5t-18.5 250.5q11 117 60 225.5t123 204.5q34 46 77 88.5t92 75 t104 51.5t114 19q98 1 187 -31.5t164 -85.5q15 -13 32.5 -26.5t32 -29t24 -34t9.5 -41.5q-3 -18 -14 -33t-22 -28q-13 -14 -29 -25t-36 -13q-35 2 -67 16t-63 28q-29 14 -58 27.5t-63 15.5q-41 3 -81.5 -6t-77.5 -27.5t-69.5 -46t-56.5 -62.5q-53 -68 -80 -149t-32 -163 q-5 -71 -0.5 -141t35.5 -132q12 -32 32.5 -59.5t47.5 -47t60 -30t69 -8.5q27 -1 53 7.5t49.5 23.5t43.5 34.5t35 42.5q30 46 47 97t22 104q3 17 1.5 32.5t-1.5 32.5q-33 -7 -66 -16.5t-67 -16.5q-35 -9 -68 -14.5t-68 -5.5q-29 0 -55.5 14t-41.5 39q-16 23 -21 51.5t-3 57.5 q2 14 5.5 28.5t14.5 26.5q26 20 56 33.5t61 23.5t62.5 18.5t61.5 17.5q66 17 129.5 32.5t129.5 19.5q54 0 90 -26t56 -67t25 -90.5t-2 -95.5z" />
<glyph unicode="H" horiz-adv-x="1178" d="M1072 234q-7 -31 -15.5 -61t-25.5 -59q-14 -28 -35.5 -54t-55.5 -33q-38 -9 -71.5 10.5t-47.5 52.5q-20 35 -27 75.5t-9 81.5q0 32 1 64t-1 64q3 66 -14 132q-23 0 -45 1t-45 1q-31 -5 -62.5 -6t-62.5 -5q-50 -1 -102 -6q5 -71 9 -141.5t1 -142.5q-4 -35 -9.5 -69.5 t-22.5 -66.5q-5 -15 -14.5 -30t-21.5 -26t-27 -16.5t-31 -2.5q-38 5 -68.5 25t-51.5 50q-43 58 -51 135q-2 37 -2.5 73t1.5 73q2 74 8 144.5t14 144.5q9 75 18.5 150t17.5 150q5 29 8 56.5t5 56.5q4 28 7.5 55t6.5 56q6 29 15.5 59t23.5 57q13 28 33 51.5t52 30.5 q45 8 85 -13t61 -59q26 -38 36.5 -85t2.5 -96q-4 -37 -13 -74l-18 -74q-8 -39 -17.5 -76.5t-11.5 -75.5q73 0 146 2t146 -1q3 18 3 36q4 47 4 92q0 46 -2 91t-1.5 88.5t3.5 88.5q2 27 8 55t19 53q11 26 34 42.5t50 13.5q36 -5 62 -23t45 -44.5t32.5 -57.5t23.5 -61 q17 -64 26.5 -131.5t4.5 -136.5q0 -28 -4 -54t-6 -55l-9 -113q-2 -59 -3.5 -118t0.5 -119q2 -57 0 -112.5t-10 -112.5z" />
<glyph unicode="I" horiz-adv-x="1130" d="M1012 90q-5 -26 -21 -50t-46 -28q-132 -24 -263 -29.5t-264 3.5q-32 2 -65 9t-62.5 21.5t-52.5 37t-35 54.5q-8 13 -10 27.5t-2 28.5q1 16 10 27.5t21 19.5t26.5 12t27.5 6q32 0 65 3t65 5q2 5 3 10.5t-1 10.5q9 85 18.5 169t22.5 169q11 88 23 174.5t20 174.5 q4 36 5.5 73t-2.5 73l-16 -4t-16 -2l-19 -3l-17 -3h-7q-35 0 -70.5 1t-67.5 14q-15 3 -28.5 11t-23 20t-13.5 27t0 32q15 35 41.5 59.5t59 41.5t67.5 30t67 25q74 22 148.5 34.5t150.5 9.5q40 0 78 -9t74 -20q36 -14 67 -36t45 -58q-8 -35 -29 -67t-56 -47q-40 -8 -78.5 -15 t-78.5 -16q-5 -33 -7.5 -65.5t-9.5 -65.5q-4 -35 -8.5 -69t-6.5 -69q-3 -42 -5.5 -81.5t-5.5 -81.5q-2 -40 -4.5 -80t-6.5 -80q-2 -36 -5.5 -73.5t-6.5 -75t-2.5 -74.5t7.5 -72l17 -2l13 2q14 -2 29 -0.5t29 1.5q14 3 29 3.5t29 2.5q31 2 63 -2t59 -17q31 -30 34 -63.5 t-2 -63.5z" />
<glyph unicode="J" horiz-adv-x="1142" d="M1145 1178q-3 -23 -16.5 -34.5t-32 -16.5t-39 -5.5t-36.5 -1.5q-9 -1 -20 -0.5t-21.5 -2t-18.5 -8t-10 -18.5q-2 -12 -0.5 -22.5t3.5 -22.5q11 -121 11.5 -242.5t-13.5 -245.5q-8 -61 -16.5 -124t-24 -124.5t-40 -120t-62.5 -110.5q-20 -26 -46 -44.5t-55 -30.5t-60 -18 t-61 -6q-57 0 -104.5 21t-87 55t-71.5 76.5t-58 85.5q-54 93 -90.5 193t-59.5 207q-2 15 -5 30.5t-2 30.5q0 22 10 39t26 29t36 17.5t39 3.5q31 1 56.5 -9t46.5 -27.5t36 -41.5t25 -50q15 -62 34 -121t36 -120q7 -21 17 -43t24.5 -40.5t33 -31t44.5 -13.5q22 5 35 19.5 t21.5 33.5t14 39.5t11.5 37.5q14 66 20.5 119t10.5 105q11 126 13.5 251t-20.5 247q-4 4 -6 8.5t-7 6.5q-36 0 -70 3.5t-69 13.5q-32 12 -47 42.5t-9 63.5q1 25 12.5 48t30 40.5t42 27.5t48.5 9q103 4 204.5 -2t203.5 -20q45 -11 77 -45t48 -77q5 -15 6.5 -31t1.5 -33z" />
<glyph unicode="K" horiz-adv-x="1137" d="M1029 125q-3 -18 -11 -36t-20.5 -32.5t-29 -24t-36.5 -10.5q-47 -10 -87.5 11t-64.5 54q-23 40 -47 78.5t-47 78.5q-53 81 -106 159.5t-106 157.5q-2 -44 -3 -86t-3 -86t-3.5 -87t-3.5 -85q-4 -38 -13.5 -76.5t-31.5 -72.5q-18 -23 -38.5 -36.5t-41 -19.5t-41.5 -7t-41 2 q-25 8 -39 26t-21.5 40.5t-10.5 47.5t-6 48q-1 38 -0.5 76t2.5 76q2 26 2 51t2 51q2 27 1.5 53t1.5 53q2 24 4 49.5t5 49.5q4 26 7.5 53t7.5 53q5 46 6.5 90t5.5 91q2 45 5.5 89.5t9.5 89.5q8 35 15.5 75.5t21.5 78.5t37.5 69t63.5 47q24 4 47.5 1t43 -14t32.5 -29t17 -42 q5 -51 5.5 -101.5t0.5 -101.5q50 48 100.5 94t102.5 94q25 18 52.5 35t56.5 28.5t59.5 16.5t61.5 0q27 0 48.5 -11.5t36.5 -30.5t22 -43.5t4 -49.5q-2 -48 -30 -87t-64 -68q-45 -31 -89 -61t-88 -64q-16 -12 -33 -24.5t-32 -27t-26 -31t-15 -36.5q3 -29 12.5 -55.5t23 -51.5 t29 -48.5t29.5 -47.5q45 -65 89.5 -127.5t89.5 -127.5q15 -26 29 -52.5t24.5 -55t15 -58.5t-0.5 -62z" />
<glyph unicode="L" horiz-adv-x="1114" d="M1101 201q-3 -17 -14 -28.5t-24 -20.5q-36 -25 -74 -43t-78 -31.5t-81 -25t-81 -23.5q-81 -20 -162.5 -32.5t-163.5 -8.5q-41 3 -75 21t-61 45t-47 61.5t-32 70.5q-28 72 -36.5 149.5t-4.5 157.5q0 25 3.5 50.5t1.5 50.5q8 94 21 186.5t32 185.5q22 118 67 224 q10 24 21 51.5t25 52.5t34 45t48 30q27 6 48.5 -2.5t35.5 -25.5t20 -40.5t3 -47.5q-2 -63 -7 -124.5t-13 -124.5q-4 -56 -12.5 -110.5t-13.5 -110.5q-8 -55 -12 -110.5t-8 -111.5q-2 -37 -4 -75.5t-0.5 -76t10 -73.5t28.5 -68q57 6 113 19.5t114 24.5q54 13 108.5 24 t108.5 16q33 1 63 -13.5t53 -34.5q22 -17 37 -44.5t9 -58.5z" />
<glyph unicode="M" horiz-adv-x="1584" d="M1451 96q-9 -21 -23.5 -36.5t-33 -26.5t-40 -17.5t-42.5 -8.5q-26 -2 -52 -2.5t-50 7.5q-22 17 -31.5 42.5t-17.5 51.5q-36 143 -40.5 292t2.5 300q4 42 3.5 81.5t1.5 80.5q-76 -117 -134 -240.5t-105 -254.5q-14 -32 -27 -66t-24 -67q-7 -14 -15.5 -29t-19.5 -28 t-25 -22t-32 -10q-31 -3 -58.5 5t-50.5 24t-40.5 38.5t-28.5 48.5q-19 47 -30.5 94t-20.5 98q-6 50 -14.5 100t-17.5 101v-14q-4 -22 -5 -44t-6 -44q-1 -22 -3 -43t-2 -43q-2 -28 -4 -57t-1 -57q0 -25 3.5 -49t5.5 -48q2 -25 4.5 -49t0.5 -49q1 -26 -5.5 -55t-21.5 -53 t-38 -37t-56 -7q-45 5 -82 28t-55 61q-37 79 -37 164q-9 100 -7.5 201.5t10.5 202.5q7 93 23 184t40 182q14 50 31.5 99t43.5 95q12 22 25.5 45.5t30 44t37 35.5t47.5 20q40 6 72 -7.5t56 -39t40.5 -58t24.5 -65.5q16 -80 30.5 -158t32.5 -156q4 -20 12.5 -39t13.5 -38 q50 86 101 171t104 170q25 33 49.5 70.5t53 71t62.5 59t77 33.5q55 -5 96 -28t70 -59t46.5 -81.5t26.5 -95t11 -100.5t-1 -97q0 -32 -4 -63t-8 -63q-6 -32 -10 -64t-7 -64q-6 -76 1 -149t16 -146q9 -69 16 -136.5t5 -136.5z" />
<glyph unicode="N" horiz-adv-x="1222" d="M1099 239q-5 -35 -18 -68.5t-33 -64.5t-47.5 -57.5t-63.5 -33.5q-54 0 -94.5 24t-73 60.5t-59 79t-50.5 80.5q-48 102 -94.5 203.5t-94.5 203.5q-11 -29 -16.5 -58t-7.5 -58q-2 -47 -4.5 -92.5t-2.5 -92.5q0 -45 -0.5 -89.5t-2.5 -89.5q-3 -26 -7 -58.5t-14.5 -61.5 t-31 -48.5t-56.5 -19.5q-27 2 -50 14t-42 29q-14 22 -24.5 44t-15.5 48q-27 95 -28.5 195.5t3.5 200.5q2 35 5 69t8 69q11 100 31.5 196t47.5 193q15 39 26.5 82.5t27 85.5t38 79t58.5 64q43 -7 75.5 -27t57.5 -49.5t44.5 -66t35.5 -75t31 -77t31 -72.5q20 -55 38.5 -110.5 t38.5 -111.5q19 -55 42 -109.5t51 -105.5q5 14 5.5 30t1.5 30q5 64 6.5 128t-1.5 128q0 63 -1 126.5t3 126.5q4 37 11 75t25 73q5 16 15 31t23.5 25.5t30 16t33.5 2.5q46 -5 77 -29.5t49.5 -60.5t25 -79t4.5 -83q-3 -49 -4.5 -98.5t-6.5 -98.5q-2 -49 -5.5 -97t-7.5 -99 q-4 -60 -9.5 -120t-9.5 -121q-4 -57 -9.5 -114.5t-14.5 -115.5z" />
<glyph unicode="O" horiz-adv-x="1167" d="M1135 768q-11 -128 -46 -253t-104 -240q-32 -56 -74.5 -109.5t-93.5 -95t-111 -66.5t-127 -23q-65 -1 -119.5 22t-98.5 62t-77 89.5t-55 103.5q-47 109 -62.5 229t-4.5 243q11 114 48.5 225t106.5 209q33 49 76.5 90.5t94.5 71.5t107.5 46t114.5 14q56 2 108 -12.5 t97 -41.5t81 -66t60 -87q26 -45 43 -95t26.5 -102.5t11.5 -106t-2 -107.5zM841 858q3 38 2 83.5t-12.5 85.5t-37.5 67.5t-74 30.5q-55 -2 -95.5 -24t-70 -57t-49.5 -80t-33 -93t-20 -96t-11 -89q-5 -57 -6.5 -114.5t6.5 -112.5q4 -29 10.5 -58.5t18.5 -53.5t30.5 -40 t48.5 -19q45 1 80 23t62 56t46.5 74t33.5 76q31 84 48 169.5t23 171.5z" />
<glyph unicode="P" horiz-adv-x="1036" d="M1075 959q0 -49 -15.5 -96t-42 -89.5t-62 -79.5t-76.5 -66q-89 -64 -189.5 -100t-206.5 -54q-2 -11 -2.5 -23.5t-2.5 -23.5q-2 -35 -3 -70t1 -70q0 -35 1.5 -69.5t-1.5 -69.5q2 -38 -15.5 -69.5t-46 -52t-63.5 -28t-69 3.5q-28 3 -47.5 18t-31.5 37.5t-17.5 49t-4.5 52.5 q6 38 9 76.5t11 76.5q12 66 19.5 130t9.5 130q8 75 6 147.5t0 145.5q-2 69 -1.5 138.5t11.5 138.5v10q0 47 20 89t53.5 72.5t76.5 48.5t89 17q46 2 90 5.5t91 3.5q86 1 165.5 -29.5t136.5 -92.5q57 -59 85.5 -140t21.5 -167zM817 995q3 26 -5 49.5t-17 46.5q-5 10 -11 21 t-14 20.5t-18 15.5t-23 6q-38 5 -80 -3.5t-78 -29.5t-60 -54.5t-25 -78.5q-5 -53 0 -104t14 -102q51 6 100.5 25t94.5 46q19 12 39.5 26.5t38 31.5t30 38t14.5 46z" />
<glyph unicode="Q" horiz-adv-x="1128" d="M1015 44q-4 -21 -15 -40t-26.5 -34t-35 -25.5t-40.5 -14.5q-21 -3 -43 -3q-23 44 -52 82.5t-64 74.5q-35 -51 -88.5 -79.5t-112.5 -26.5q-57 0 -105.5 20.5t-88 54.5t-70 78t-52.5 91q-47 94 -65.5 199t-9.5 214q10 121 44 239t94 229q28 52 66.5 103t86.5 91.5t104.5 65 t119.5 23.5q58 3 107 -18t88 -57.5t67 -83.5t44 -97q37 -103 48 -214t3 -223q-5 -51 -14 -102t-23.5 -101.5t-36 -98.5t-52.5 -91q19 -32 40 -63t42 -63q19 -28 33 -60t7 -70zM741 763q4 50 6 100.5t-3 99.5q-3 30 -7 60t-13.5 54t-26 40.5t-43.5 19.5q-45 -6 -75 -33.5 t-51 -64.5t-35.5 -78.5t-28.5 -76.5q-27 -86 -43.5 -174.5t-24.5 -177.5q-1 -36 -2.5 -80t5.5 -84t28 -70.5t65 -39.5q24 -3 42 15.5t26 38.5q-17 27 -35.5 52.5t-38.5 51.5q-17 26 -28 55.5t-9 62.5q-1 21 8.5 39.5t25.5 31.5t35.5 19.5t39.5 3.5q47 0 85.5 -20.5 t69.5 -51.5q12 52 18 104t10 103z" />
<glyph unicode="R" horiz-adv-x="1275" d="M1169 116q-2 -17 -8.5 -35t-17.5 -33t-26.5 -25t-34.5 -13q-55 -11 -103 11.5t-80 62.5q-31 45 -62.5 88t-63.5 87q-63 66 -133 126t-142 117q-5 -21 -8.5 -41.5t-3.5 -40.5q-2 -34 -3.5 -66t-2.5 -66q-5 -45 -9.5 -88t-18.5 -87q-10 -26 -24 -48t-31 -37.5t-36.5 -23 t-41.5 -2.5q-36 3 -62 20t-43 43.5t-25 58.5t-6 65q1 74 10.5 147.5t18.5 146.5q13 77 23.5 153.5t22.5 153.5q1 51 -0.5 98.5t-8.5 96.5q-2 48 -0.5 94.5t5.5 94.5q4 31 16.5 63.5t33 59t48.5 44.5t63 21q97 13 192 16.5t192 3.5q36 1 70 -8t64 -25.5t56 -39t47 -49.5 q42 -56 62.5 -122t15.5 -138q-2 -64 -34.5 -121.5t-77.5 -105.5q-49 -50 -106 -90.5t-121 -64.5q63 -47 121.5 -96.5t113.5 -103.5q23 -24 47.5 -48.5t46 -50t39.5 -53.5t29 -61q2 -22 2 -45q0 -22 -5 -44zM847 1031q3 15 0.5 30t-10 27.5t-20 20.5t-29.5 7q-61 0 -122 -1.5 t-123 -3.5l-4 -3q2 -3 2 -7q0 -3 2 -5q-5 -14 -5.5 -28.5t-5.5 -28.5q-5 -54 -7.5 -107t2.5 -106q51 8 98 27t92 43q20 12 41 25t39.5 29t31.5 36t18 45z" />
<glyph unicode="S" horiz-adv-x="1169" d="M1106 442q-7 -54 -30 -103.5t-57 -92.5t-76.5 -79.5t-87.5 -65.5q-93 -60 -196 -91.5t-210 -24.5q-66 6 -128 28.5t-120 53.5q-13 45 -22.5 89.5t-11.5 92.5q-1 20 14.5 34t35.5 16q26 -3 49.5 -11t47.5 -13q24 -8 48.5 -15.5t50.5 -10.5q37 -2 81 -0.5t88.5 9.5t86.5 23 t76 40t57 60.5t29 84.5q4 13 6.5 24.5t3.5 24.5l-1 16l-9 5q-38 -2 -77.5 -4t-77.5 -5q-38 -2 -77 -3.5t-77 -1.5q-36 1 -72.5 4.5t-71.5 12.5t-67.5 24t-59.5 38q-27 22 -42.5 51.5t-23 63t-7.5 68.5t5 69q10 103 60.5 197.5t128.5 169.5q73 76 168.5 122t198.5 44 q64 1 128 -14t118.5 -46t95.5 -78t59 -111q5 -11 7 -23t2 -23q2 -18 -6.5 -30t-22 -18.5t-29.5 -8.5t-29 0q-72 10 -134 38q-31 14 -65 23t-69 13q-53 1 -106 -14t-99 -44q-23 -14 -44 -32.5t-37.5 -40.5t-27 -46.5t-11.5 -51.5q-2 -14 1 -28t11 -24.5t20.5 -16.5t27.5 -3 q32 0 63.5 6t62.5 11q34 5 65 11t63 5q78 1 149.5 -29.5t115.5 -91.5q22 -29 35 -62t19 -69t6.5 -73t-2.5 -73z" />
<glyph unicode="T" horiz-adv-x="1195" d="M1224 1210q2 -24 -8.5 -43t-28 -33t-39 -23t-42.5 -12q-69 -13 -125.5 -13.5t-111.5 1.5q-27 -212 -60 -421t-68 -420q-9 -42 -22 -82t-31 -79q-8 -17 -18.5 -34.5t-24 -32.5t-30 -25.5t-36.5 -11.5q-32 -2 -62.5 8.5t-53.5 30.5t-35.5 48t-7.5 63q4 48 10 95t17 93 q17 91 36.5 181t30.5 183q9 103 11.5 205t-8.5 204q-66 -1 -131 -4.5t-132 -7.5q-11 2 -18 9t-12 16t-9 19.5t-8 18.5q-17 45 -14 91q4 22 17.5 38t31 26.5t38 16.5t39.5 8q109 11 215 21.5t215 17.5q82 8 164 7t164 -4q28 -8 53.5 -21.5t43.5 -36.5q18 -20 34.5 -44 t15.5 -53z" />
<glyph unicode="U" horiz-adv-x="1109" d="M1092 1201q-2 -11 -6 -23t-9 -23q-11 -13 -17.5 -28.5t-15.5 -29.5q-6 -28 -9.5 -55t-1.5 -56q-5 -35 -5 -71t-2 -72q-3 -36 -3 -70t-4 -70q-9 -98 -27 -195t-55 -192q-26 -67 -62 -128.5t-82.5 -108t-102.5 -74t-120 -25.5q-48 -2 -93 10.5t-84 35.5t-71.5 56t-55.5 72 q-50 75 -68.5 165t-11.5 184q4 62 10 122.5t14 122.5q9 61 17.5 122t16.5 123q2 29 3 57.5t-3 57.5q2 28 0 56t2 56q5 31 23.5 57.5t44.5 46.5q27 18 56.5 31.5t61.5 18.5q47 -17 71.5 -53.5t34 -82t9 -95t-3.5 -92.5q-7 -71 -17 -141.5t-19 -141.5q-9 -72 -17.5 -143.5 t-15.5 -143.5q0 -29 -2 -64t2.5 -67.5t19.5 -57.5t49 -34q26 0 47 12t37.5 30.5t28 41.5t18.5 45q17 49 24 98.5t14 99.5q8 52 12.5 102t9.5 101q6 49 10 98.5t10 98.5q8 49 16.5 96t19.5 95q8 29 20.5 62t31.5 60.5t45.5 44t63.5 12.5q29 -4 52.5 -21t40.5 -37 q20 -20 34 -43t14 -53z" />
<glyph unicode="V" horiz-adv-x="1114" d="M1133 1159q-1 -31 -11.5 -60t-25.5 -56l-32 -54t-31 -54q-29 -57 -50.5 -114.5t-43.5 -117.5q-22 -62 -42.5 -123t-44.5 -123q-25 -72 -58 -140.5t-69 -137.5q-20 -35 -45.5 -71t-57 -64.5t-69.5 -45.5t-82 -15q-29 2 -53 17t-36 39q-10 26 -18 53.5t-11 55.5 q-11 60 -20.5 118.5t-13.5 120.5q-6 62 -13.5 123t-11.5 123q-14 144 -37.5 286t-48.5 284q-1 13 0 24q4 26 21.5 44.5t36.5 34.5q22 15 47.5 23.5t50.5 13.5q30 1 50 -13.5t33.5 -37.5t21.5 -50t14 -51q15 -86 20.5 -161.5t6.5 -150.5q2 -81 4 -161t7 -160q2 -15 3.5 -31.5 t4.5 -32.5t9 -30t18 -24q10 10 17 22t11.5 25t8.5 26.5t9 25.5q9 31 18 61l18 60q23 79 47 155.5t51 153.5q22 61 50 119.5t59 116.5q15 22 28.5 47t29.5 48t36 41t47 26q35 -8 59 -30.5t42 -51.5q17 -29 31 -59.5t15 -66.5z" />
<glyph unicode="W" horiz-adv-x="1389" d="M1345 1097q-2 -31 -4.5 -61.5t-7.5 -60.5q-7 -47 -12.5 -93.5t-9.5 -94.5q0 -22 -2 -44.5t-2 -44.5q-1 -23 -2.5 -44.5t-4.5 -44.5q-10 -91 -33.5 -180.5t-65.5 -174.5q-18 -40 -42.5 -81.5t-56 -77t-71 -59.5t-87.5 -29q-50 -3 -90 16.5t-71 52t-53 73.5t-37 81 q-19 -39 -43.5 -82t-56.5 -78.5t-72 -58t-89 -20.5q-41 3 -76.5 19t-64.5 41t-51 57t-35 68q-15 59 -20.5 119.5t-6 122t3 123t6.5 123.5q9 102 29.5 202t55.5 199q16 42 33.5 89.5t41.5 91t57.5 77.5t82.5 49q39 4 62 -13t34 -45.5t12 -62.5t-4 -63q-6 -45 -15.5 -88.5 t-23.5 -87.5q-4 -17 -10.5 -33.5t-11.5 -33.5q-27 -90 -50.5 -181t-31.5 -184q-4 -33 -3 -67t8 -66q31 58 53.5 119t40.5 123.5t33.5 125.5t32.5 125q11 39 18.5 77t22.5 75q16 36 49 60.5t73 23.5q39 2 73 -18.5t49 -56.5q20 -45 25 -93.5t8 -97.5q0 -52 1 -104t-1 -103 q0 -67 6 -131.5t21 -127.5q41 144 56 292q9 73 17 145.5t14 145.5q4 47 11.5 93.5t15.5 92.5q9 26 16.5 53t18 48.5t26.5 36t40 16.5q47 -6 81 -33.5t54 -67.5q20 -38 27 -81.5t9 -87.5z" />
<glyph unicode="X" horiz-adv-x="1161" d="M1044 116q-6 -23 -21 -40.5t-35 -31.5q-19 -14 -40.5 -25t-44.5 -16q-29 -1 -51.5 10.5t-41.5 29.5t-35 39.5t-31 40.5q-50 78 -87.5 151t-69.5 146q-32 -64 -62 -128.5t-66 -127.5q-16 -24 -33 -52t-37.5 -51.5t-45.5 -40t-58 -17.5q-29 7 -56.5 19.5t-40.5 40.5 q-14 25 -15.5 54.5t-3.5 58.5q2 32 11 62.5t22.5 60.5t30 59t32.5 57q42 60 82.5 122t82.5 123q11 14 18 28.5t16 28.5q-26 77 -58 150t-61 148q-12 30 -24.5 60t-22 61t-15.5 63.5t-5 65.5q2 22 13.5 39.5t28.5 30.5t37.5 20.5t40.5 9.5q19 3 39 4t37 -5q16 -8 26 -22 t19 -30q42 -66 72.5 -137.5t62.5 -143.5q28 43 54.5 92t56 95t64.5 86.5t81 67.5q30 -3 56.5 -17t46 -35.5t30.5 -49.5t10 -58q-10 -73 -39 -140.5t-68.5 -131t-85.5 -124.5t-89 -121q39 -83 80 -163.5t83 -161.5q31 -63 62 -124t48 -130z" />
<glyph unicode="Y" horiz-adv-x="1041" d="M1082 1205q-3 -36 -14 -71t-26.5 -68t-35 -64.5t-38.5 -62.5q-47 -71 -93.5 -141.5t-87.5 -143.5q-44 -92 -85 -182.5t-76 -184.5q-18 -45 -35 -89.5t-36 -89.5q-11 -19 -22.5 -40t-26 -39t-32.5 -30.5t-42 -13.5q-38 -2 -69 13.5t-52 42t-30 61t-3 70.5q4 52 19.5 102 t37 99t47 96t51.5 94q-45 12 -79.5 38.5t-59.5 62.5t-42 78t-28 84q-22 84 -23.5 170.5t12.5 174.5q3 29 14 57.5t30.5 52t45.5 38.5t59 17q25 4 43.5 -5.5t31.5 -27t20.5 -40t10.5 -43.5q0 -62 1 -123.5t4 -123.5q2 -19 5 -42t11 -42.5t22.5 -33.5t38.5 -15q17 4 29 14.5 t21 24t17 28t18 27.5q15 31 29.5 62t30.5 62q20 38 37.5 77t35.5 78q20 34 38 70t49 62q18 13 40 20t44 2q29 -5 55 -19t45 -35.5t30.5 -49t12.5 -58.5z" />
<glyph unicode="Z" horiz-adv-x="1152" d="M1056 217q-5 -36 -27 -66.5t-54 -48.5q-97 -40 -198.5 -61t-203.5 -38q-54 -8 -108.5 -11t-107.5 1q-32 4 -57 20t-46 36q-20 20 -35.5 45t-17.5 54q9 66 33.5 127t57.5 119t70 114.5t71 112.5q83 129 172.5 251.5t177.5 247.5q-26 1 -49.5 3.5t-49.5 1.5 q-20 0 -41.5 -0.5t-43.5 -3.5q-20 0 -40 -0.5t-40 -0.5q-45 0 -90 1t-88 14q-17 3 -35 9t-32.5 16.5t-23 25.5t-4.5 36q6 25 22.5 43.5t37.5 32.5t44.5 24.5t45.5 18.5q97 37 198 40l40 2t40 3q20 0 41 1t41 -1q52 0 109 -11.5t104.5 -38t77 -69.5t28.5 -105 q-4 -75 -35.5 -145t-70.5 -136q-53 -88 -110.5 -170.5t-117.5 -164.5q-52 -73 -105 -143.5t-97 -148.5q88 7 174 23t171 40l32 6q25 4 52.5 -0.5t49.5 -18t33.5 -35t4.5 -52.5z" />
<glyph unicode="[" horiz-adv-x="881" d="M754 143q-2 -26 -13 -50t-28.5 -43.5t-40.5 -33.5t-49 -18q-51 -10 -102.5 -17t-102.5 -7q-45 2 -90 12t-82 33q-41 36 -57 89t-12 109q2 75 6 149.5t8 150.5q3 78 6.5 156t14.5 156q7 61 14.5 123.5t18 124.5t26.5 123t41 119q9 14 19 28t27 20q92 18 183.5 20 t182.5 -15q25 -4 46 -17t35 -32.5t22 -43t8 -47.5q0 -22 -14 -40t-29 -33q-20 -12 -41 -23t-44 -6q-44 5 -86.5 6.5t-86.5 1.5q-2 -11 -5.5 -22.5t-6.5 -23.5q-6 -72 -12.5 -142.5t-14.5 -142.5q-8 -73 -14.5 -145t-11.5 -145q-2 -26 -4.5 -52t-7.5 -52q-4 -26 -5.5 -49.5 t-4.5 -49.5q-2 -18 -3.5 -35t0.5 -35q32 -2 65.5 -2.5t67.5 0.5q18 3 34 2t34 2q22 0 43 -6.5t37 -20t24.5 -33t4.5 -43.5z" />
<glyph unicode="\" horiz-adv-x="848" d="M804 67q-7 -34 -28.5 -61.5t-56.5 -34.5q-38 1 -64 21t-45.5 48.5t-33.5 62t-28 61.5q-93 224 -175 452t-151 463q-9 35 -20.5 67t-20.5 67q-8 32 -14 64.5t-1 67.5q2 15 10 28t20 22.5t27 15.5t30 7q37 7 69.5 -12.5t49.5 -50.5q18 -35 35.5 -70.5t31.5 -71.5 q46 -100 87.5 -201.5t77.5 -207.5q20 -72 43.5 -141.5t45.5 -140.5q20 -59 40.5 -116.5t39.5 -117.5q16 -54 27.5 -108t3.5 -113z" />
<glyph unicode="]" horiz-adv-x="886" d="M792 539q-8 -62 -15.5 -124t-18.5 -123.5t-27 -122.5t-40 -121q-10 -14 -20.5 -29t-28.5 -19q-93 -20 -185 -20.5t-182 15.5q-26 4 -46.5 17t-34.5 32t-22 42.5t-8 48.5q2 20 15 40t31 32q17 17 39 23.5t45 6.5q44 -4 87 -6t87 -2q4 11 6.5 23.5t5.5 23.5q12 141 27 282 q8 73 13.5 145t11.5 145q2 26 6 51.5t6 51.5q3 26 5.5 51t5.5 51q0 18 2.5 35t2.5 35q-34 2 -67 2.5t-68 0.5q-17 -1 -34 -1t-34 -2q-22 -1 -43 6.5t-37 21.5t-24.5 33.5t-3.5 42.5q2 25 13 49t28.5 43t40.5 32t48 16q50 13 101 18.5t102 7.5q45 -3 90 -11.5t81 -33.5 q42 -35 56.5 -88t13.5 -108l-11 -302q-4 -77 -7.5 -155t-12.5 -156z" />
<glyph unicode="^" horiz-adv-x="816" d="M788 748q-3 -22 -14.5 -40t-28.5 -31t-37 -20.5t-41 -7.5q-23 -3 -43 3.5t-36.5 19.5t-28.5 31t-18 38q-15 45 -28 90.5t-28 90.5q-27 -57 -52.5 -113t-51.5 -113q-6 -14 -16.5 -22.5t-23.5 -13t-26 -5.5t-25 0q-26 2 -48.5 11.5t-40.5 24.5q-20 13 -31.5 33.5 t-15.5 45.5q6 41 21.5 79t35 75t42 72.5t42.5 71.5q24 31 46.5 66.5t47.5 68t54 60t66 44.5q40 -11 69 -37.5t51.5 -61t41 -72t37.5 -71.5q15 -38 31 -76t28.5 -77.5t18.5 -80t2 -83.5z" />
<glyph unicode="_" horiz-adv-x="1241" d="M1108 48q-6 -18 -18.5 -31t-28 -22t-33.5 -13.5t-35 -5.5q-189 -8 -375.5 -7t-375.5 5q-22 5 -41.5 14t-33.5 26q-30 32 -30 76q4 25 20 42.5t37.5 29.5t45.5 20t45 14q64 13 115 17.5t102 6.5q28 2 56 -0.5t55 -2.5q29 -2 57 -3t57 -1q32 0 64 -0.5t64 -2.5 q64 -3 126 -3q23 -11 49 -25t46 -33t30 -44t2 -57z" />
<glyph unicode="`" horiz-adv-x="440" d="M481 1500q-3 -14 -8.5 -27t-14.5 -24t-21 -18.5t-27 -8.5q-46 1 -77.5 24.5t-51.5 59t-32 77t-19 78.5q3 14 -0.5 26t0.5 26q2 19 10.5 36.5t22 31t31 20.5t37.5 6q24 -1 42.5 -13t32 -30t24 -39.5t19.5 -40.5q18 -44 27.5 -89.5t4.5 -94.5z" />
<glyph unicode="a" horiz-adv-x="1150" d="M1062 169q-4 -27 -15.5 -54t-29.5 -48.5t-42 -36.5t-53 -18q-35 -5 -68.5 1t-53.5 35q-19 24 -25.5 55.5t-8.5 63.5q0 36 -2.5 73t-4.5 72q-22 -1 -42.5 -0.5t-42.5 0.5t-43.5 2t-43.5 0q-36 0 -71 -2t-71 -8q-17 -48 -32 -94t-32 -94q-8 -18 -18.5 -39t-25 -38 t-32.5 -27.5t-42 -8.5q-35 3 -64 20t-47 45q-11 29 -16.5 62t-4.5 65q7 117 35 230.5t59 226.5q35 112 72.5 222t86.5 217q24 46 52.5 97t65.5 94t83 72.5t104 33.5q52 0 92.5 -22.5t69.5 -59t47.5 -82t28.5 -89.5q22 -89 33.5 -180t19.5 -184q6 -91 14.5 -179.5 t27.5 -176.5q10 -30 19.5 -59.5t16 -60.5t8.5 -62t-4 -64zM749 570q-2 66 -6.5 130.5t-8.5 130.5q-7 62 -16.5 123.5t-36.5 117.5q-41 -56 -68.5 -117.5t-47.5 -125.5t-34 -129.5t-26 -129.5q62 0 122 -1t122 1z" />
<glyph unicode="b" horiz-adv-x="1231" d="M1167 447q-6 -65 -36 -122.5t-74 -105.5t-99.5 -86t-112.5 -63q-118 -54 -243 -71.5t-249 -1.5q-49 6 -86 37t-54 75q-23 42 -30 89.5t-7 95.5q1 41 10 81.5t17 81.5q11 56 20 109.5t14 109.5q11 133 15 263.5t4 261.5q42 57 100.5 96.5t124.5 57.5q66 20 130.5 26.5 t130.5 6.5q70 -2 139.5 -14t128.5 -48q30 -18 52.5 -44t37 -57t21 -65.5t4.5 -70.5q-3 -69 -35 -132.5t-75 -120.5q47 -31 79 -76t49 -98q20 -50 26 -104.5t-2 -110.5zM831 1055q3 12 1 24.5t-8 22.5t-16 16t-23 5h-41q-42 -2 -82.5 -5.5t-77.5 -23.5q-36 -20 -56 -56.5 t-25 -76.5q-2 -31 -2.5 -62.5t-2.5 -62.5q45 15 98 30.5t101.5 39t85 59t48.5 90.5zM867 509q5 24 1 48t-16 43.5t-32 31t-47 8.5q-44 -2 -86.5 -16.5t-84.5 -34.5q-38 -21 -74 -47.5t-65 -60.5q-5 -32 -8.5 -64t-5.5 -64q-3 -22 -1.5 -43.5t1.5 -43.5q40 -3 85 0t90 13 t87 28t75.5 46t55 66.5t25.5 89.5z" />
<glyph unicode="c" horiz-adv-x="1145" d="M1132 954q2 -24 -6 -49.5t-24 -46t-39 -31.5t-51 -6q-40 -3 -71 18.5t-48 54.5q-17 32 -29.5 64.5t-25.5 65.5q-13 29 -40.5 50.5t-63.5 22.5q-45 -1 -80 -23t-61 -56t-45.5 -74t-32.5 -77q-29 -86 -43.5 -173.5t-22.5 -176.5q-1 -33 -3.5 -73t3 -77t23 -65t57.5 -37 q60 -5 121.5 8.5t114.5 50.5q22 20 44.5 36.5t47.5 33.5q18 8 36.5 11t36.5 3q28 4 46.5 -6.5t28 -30t11.5 -43.5t-4 -46q0 -9 -2.5 -20t-4.5 -20q-26 -63 -78.5 -108t-112.5 -76q-57 -33 -119 -54t-127 -23q-56 -2 -107 15t-94 47.5t-77 71.5t-58 88q-49 93 -67 197 t-10 213q11 130 52.5 255.5t116.5 237.5q33 55 77.5 107t98.5 91t116 62t128 20q84 -2 153 -44t120 -101q25 -30 47 -63t38 -69t24 -74.5t6 -80.5z" />
<glyph unicode="d" horiz-adv-x="1130" d="M1103 785q-4 -73 -21 -145t-45 -141.5t-67.5 -134t-88.5 -122.5q-46 -58 -104 -108.5t-124 -85t-137.5 -50.5t-143.5 -5q-55 5 -96 37.5t-61 78.5q-24 44 -35 94.5t-9 101.5q4 72 12 144.5t15 144.5q14 76 25.5 151t20.5 151q5 32 7 64t3 64q4 32 6.5 63t9.5 63 q3 39 18 78t40.5 71t61 52.5t78.5 22.5q64 7 131 6.5t131 -12t123 -36.5t108 -66q49 -44 78.5 -100t45 -119t19 -130t-0.5 -132zM836 836q2 17 2 34v35q-1 22 -2 44.5t-4.5 44t-11.5 41.5t-23 37q-17 15 -38 22.5t-43.5 10.5t-45.5 4t-45 2q-22 0 -43.5 -2.5t-43.5 -0.5 q-22 -63 -35 -127.5t-21 -129.5t-13.5 -130.5t-12.5 -129.5q-4 -63 -4 -126t11 -125q42 1 82 15t75 38t64 56t50 68q48 72 71 154.5t31 164.5z" />
<glyph unicode="e" horiz-adv-x="1176" d="M1145 398q-27 -50 -69 -86t-90 -65.5t-99.5 -55.5t-98.5 -54q-51 -24 -102.5 -49t-104 -45.5t-106.5 -33.5t-110 -14q-35 4 -67 16.5t-52 41.5q-23 27 -33.5 61.5t-19.5 68.5q-17 69 -21 140t-1 143q9 126 32.5 249.5t50.5 248.5q14 62 30 123t33 123q22 36 54 59.5 t69.5 39t77.5 26t76 20.5q86 18 171.5 24.5t171.5 -0.5q26 -2 50 -13t42 -29t28.5 -42.5t9.5 -52.5q0 -19 -7 -36t-19.5 -30.5t-29 -22t-35.5 -11.5q-42 -4 -83.5 -4.5t-83.5 0.5q-40 0 -79.5 -5t-77.5 -19q-38 -15 -71 -40t-43 -65q-5 -18 -8.5 -35t-5.5 -35v-11 q54 5 107.5 16.5t107.5 23.5q53 10 106 17.5t107 6.5q28 1 54 -8t44.5 -26.5t28 -42t3.5 -53.5q0 -26 -11.5 -47.5t-30 -38t-41.5 -27.5t-47 -15q-53 -7 -105 -12.5t-105 -9.5q-50 -7 -100.5 -16t-97.5 -37q-22 -15 -38.5 -35t-27.5 -43.5t-17 -48.5t-7 -49 q-2 -48 -0.5 -94.5t12.5 -91.5q68 22 130.5 54t125.5 64q64 33 132 58.5t138 29.5q24 1 47.5 -3.5t43.5 -16t36 -28.5t24 -39l4 -13z" />
<glyph unicode="f" horiz-adv-x="971" d="M1029 1186q-1 -19 -12 -31.5t-27 -20.5t-34.5 -11.5t-33.5 -4.5q-54 0 -108.5 -4.5t-108.5 -10.5q-24 -3 -49 -10.5t-47.5 -19.5t-41.5 -29.5t-31 -41.5q-13 -35 -22 -71.5t-11 -72.5q26 5 52.5 6t53.5 5q26 2 52 3.5t52 -0.5q42 -2 84 -6.5t75 -29.5q33 -24 44 -64.5 t6 -82.5q0 -16 -6.5 -30.5t-17.5 -26t-25.5 -19.5t-29.5 -11q-33 -4 -65.5 -4.5t-65.5 -0.5q-30 -2 -62 -2q-31 0 -61.5 -3t-60.5 -11t-57 -26q-13 -72 -18.5 -143.5t-12.5 -145.5q-1 -44 -7 -87t-17 -87q-5 -19 -15 -38t-24 -33t-32.5 -21t-39.5 -2q-42 5 -70 28.5 t-44 56.5t-22.5 72.5t-4.5 76.5q2 26 5.5 50.5t6.5 50.5q6 50 13.5 99.5t10.5 99.5q5 74 8.5 147.5t9.5 146.5q7 72 14.5 142.5t18.5 142.5q4 11 4 23q0 13 3 25q14 48 51 82.5t82 52.5q46 13 93 25t95 21q35 9 73.5 15.5t74.5 13.5q36 2 71.5 6t70.5 -3q35 -6 61.5 -24.5 t45.5 -45.5q21 -24 37 -52.5t16 -63.5z" />
<glyph unicode="g" horiz-adv-x="1172" d="M1135 710q-4 -55 -15.5 -109t-22.5 -108q-22 -91 -61.5 -177.5t-103.5 -160.5q-29 -38 -65.5 -70t-78 -55.5t-87 -37t-92.5 -12.5q-61 -3 -116 14t-102 48.5t-85 75t-64 94.5q-56 97 -76 211.5t-9 230.5q9 137 60 270t145 242q45 55 102 97.5t121 71t132.5 40.5t135.5 6 q31 0 63 -8.5t57.5 -26t41 -43.5t12.5 -61q1 -17 -3.5 -36t-14.5 -34.5t-25.5 -24t-36.5 -5.5l-13 1l-12 2q-51 4 -103 -4.5t-100 -29t-90 -53t-73 -77.5q-34 -44 -57 -92.5t-38.5 -99.5t-24.5 -104t-14 -105q-5 -50 -3 -109t18.5 -110.5t52.5 -86t101 -35.5q66 -1 110.5 34 t72 87.5t40 113t15.5 111.5q2 14 3 28.5t1 28.5q-22 -4 -44.5 -8.5t-44.5 -10.5q-49 -11 -94 -14q-26 -3 -49 5.5t-39 26t-23 41t-1 50.5q1 21 10.5 39.5t24 34t32.5 27.5t37 20q39 17 79 34.5t80.5 31.5t81.5 23.5t83 11.5q33 -2 61 -15.5t50 -35t36.5 -49.5t19.5 -59 q6 -43 2 -85z" />
<glyph unicode="h" horiz-adv-x="1184" d="M1053 123q-5 -22 -18.5 -40t-31.5 -32t-38.5 -23.5t-41.5 -12.5q-25 -6 -44.5 2t-34 23.5t-24 36t-14.5 41.5q-14 67 -16 123.5t0 110.5q4 39 2 78.5t0 79.5q-51 -4 -103 -5.5t-105 -1.5q-31 0 -60 0.5t-60 3.5q-8 -44 -14.5 -87t-9.5 -87q-2 -32 -1 -62.5t0 -62.5 q2 -29 1 -59.5t-3 -61.5q1 -23 -9.5 -42t-27.5 -31.5t-38 -16.5t-41 3q-50 8 -80 39t-45.5 74t-20 91t-3.5 91q4 51 9.5 101t14.5 101q11 53 20 105t13 105q4 48 7 97.5t3 98.5t4.5 96.5t9.5 96.5q8 37 18 74t28 72q7 17 16.5 35.5t22 34.5t28 27.5t35.5 13.5 q54 10 86 -12.5t48.5 -62.5t18.5 -87.5t-4 -86.5q-9 -86 -20.5 -172t-22.5 -173q32 -4 64 -3.5t64 0.5q40 0 79.5 3t79.5 6q1 9 0.5 17.5t0.5 17.5q2 17 3.5 33.5t1.5 33.5q5 17 6 33.5t3 33.5q2 35 1 68t1 68q-2 35 -0.5 69t3.5 69q0 26 7 57.5t22 57t39 41t58 10.5 q43 -2 73.5 -23.5t48.5 -54.5t25.5 -73t4.5 -78q-2 -40 -4 -79.5t-6 -79.5q-2 -41 -5 -82t-5 -83q-13 -171 -14.5 -340.5t-2.5 -340.5z" />
<glyph unicode="i" horiz-adv-x="551" d="M445 241q-2 -40 -13.5 -78t-28.5 -76q-7 -18 -18 -36.5t-25.5 -33.5t-32.5 -25t-39 -12q-16 -1 -29 4t-24.5 14t-20.5 21t-16 24q-11 27 -16.5 56t-9.5 58q-6 57 -6.5 114t3.5 115q6 97 14.5 192t17.5 192q11 97 21.5 191t21.5 191q7 33 13.5 66.5t22.5 64.5 q6 16 14.5 32.5t19.5 30.5t25.5 24.5t32.5 15.5q42 6 75.5 -18.5t49.5 -60.5q13 -35 17 -73.5t0 -76.5q-4 -55 -9 -110t-13 -110q-7 -57 -14 -113.5t-12 -113.5q-5 -62 -5.5 -122t-3.5 -120q-2 -57 -3 -113.5t-9 -113.5z" />
<glyph unicode="j" horiz-adv-x="1149" d="M1147 1232q-1 -43 -24.5 -66.5t-57.5 -35t-72 -14t-68 -2.5q-5 -97 -4 -194t-1 -195q0 -194 -21 -390q-5 -58 -24.5 -121.5t-55 -116t-87.5 -86t-121 -31.5q-66 -2 -121.5 21.5t-101.5 62.5t-82 88.5t-64 101.5q-29 52 -51.5 108.5t-37 116t-19 121.5t2.5 125 q1 23 17.5 39.5t36.5 25.5t41.5 15t43.5 6q26 -6 43 -23.5t27.5 -40.5t17.5 -49t13 -48q11 -38 17.5 -76t16.5 -76q9 -42 24 -82t38 -75q19 -31 51.5 -52t72.5 -21q2 4 4 8.5t5 8.5v17l2 3q4 27 8 53t5 53q2 26 3.5 51.5t1.5 51.5q3 26 4 51t3 51q11 130 14.5 258.5 t-7.5 257.5q-32 2 -66 8t-64 19.5t-53.5 35t-33.5 54.5q-5 16 -6.5 32t-0.5 31q0 30 22.5 48.5t49.5 20.5q146 10 289 4.5t286 -28.5q20 -3 34 -17t24 -29q12 -17 19 -37t7 -42z" />
<glyph unicode="k" horiz-adv-x="1196" d="M1073 125q-4 -24 -16 -46t-29.5 -39t-40 -27.5t-47.5 -12.5q-28 0 -49 12t-38.5 30.5t-31.5 40t-29 40.5q-40 67 -81 131.5t-81 131.5q-18 22 -35.5 46.5t-37.5 46t-43.5 39t-52.5 26.5q-4 -26 -8 -53t-9 -54q-2 -27 -6.5 -53t-5.5 -53q-3 -29 -2.5 -58t0.5 -58 q3 -58 0 -114q2 -20 -5 -40.5t-21 -36t-33.5 -23t-41.5 -1.5q-50 8 -80.5 39t-47 73t-21 90.5t-3.5 91.5q2 54 4.5 107.5t6.5 107.5q5 57 10.5 110.5t9.5 110.5q3 25 6 48.5t3 47.5q4 24 6.5 47.5t5.5 48.5q6 57 17.5 111.5t23.5 111.5q9 32 20.5 63t25.5 60q8 13 16 28 t17.5 28.5t22 24t29.5 15.5q35 4 66 -9t47 -44q17 -32 20 -68t-2 -74q-1 -20 -7.5 -40t-9.5 -40q-6 -20 -10.5 -40t-6.5 -40q-2 -14 -3.5 -28.5t-1.5 -28.5q66 57 125.5 116.5t122.5 119.5q27 22 53.5 47.5t55 47.5t60.5 38t68 20q31 -3 57 -19t44.5 -40.5t28.5 -54.5 t10 -61q-1 -15 -7.5 -28t-17 -23.5t-23.5 -18.5t-26 -14q-26 -17 -55 -30.5t-57 -30.5q-78 -52 -143.5 -118t-124.5 -138q27 -36 54.5 -70t56.5 -69q43 -58 92.5 -114.5t93 -116.5t75 -126.5t37.5 -143.5z" />
<glyph unicode="l" horiz-adv-x="973" d="M978 302q-13 -44 -41 -78.5t-64 -62t-76.5 -49.5t-77.5 -42q-41 -19 -83.5 -35.5t-86 -28t-87.5 -16.5t-88 0q-47 6 -91.5 24.5t-70.5 58.5q-20 42 -27 87.5t-9 92.5q-4 22 -4 43v44q3 57 11.5 111.5t17.5 111.5q11 58 20.5 116.5t17.5 117.5q4 51 5.5 100t2.5 100 q2 49 7.5 97t10.5 97q2 29 12 58.5t27.5 54.5t42.5 42.5t57 22.5q52 7 82 -17t44 -63t15.5 -85.5t-4.5 -83.5q-9 -85 -25 -168.5t-33 -168.5q-17 -86 -30 -170.5t-21 -170.5q-4 -44 -3.5 -88t4.5 -88q76 9 148 40t143 64q32 16 64 31.5t67 20.5q27 5 53 -2t44.5 -23 t26.5 -40.5t-1 -54.5z" />
<glyph unicode="m" horiz-adv-x="1408" d="M1271 179q-5 -26 -15 -50t-20 -49q-13 -22 -31 -43.5t-44 -26.5q-27 -5 -51.5 2.5t-44.5 22.5t-34 37t-19 46q-4 29 -2.5 59.5t4.5 61.5q4 63 8.5 126.5t6.5 126.5q7 130 -3 261q-37 -83 -69.5 -172t-70 -175t-83.5 -166.5t-110 -147.5q-26 0 -46.5 11t-36 28.5t-26 39.5 t-17.5 44q-20 58 -32 117.5t-23 119.5q-11 62 -20.5 122t-23.5 121q-11 -63 -16.5 -125.5t-9.5 -125.5q-4 -35 -2 -69.5t4 -69.5q1 -33 3 -66t0 -68q-2 -31 -5.5 -62t-16.5 -60q-8 -14 -20 -22t-25.5 -12t-28 -4.5t-27.5 1.5q-46 5 -75 38.5t-42 74.5q-23 81 -26.5 167 t0.5 172q6 137 25.5 273t54.5 272q9 55 26 106.5t39 104.5q11 24 25 49t32.5 46t41.5 36t51 19q27 4 49 -4.5t38.5 -24.5t28 -37.5t17.5 -43.5q40 -145 72 -290t49 -296q43 102 84 202.5t84 202.5q21 37 40.5 81t43.5 84.5t55.5 73t76.5 46.5q36 -5 63.5 -23t48 -45 t34.5 -59t23 -63q22 -66 29.5 -135.5t3.5 -140.5q0 -35 -5.5 -69.5t-8.5 -69.5q-5 -35 -9 -69t-8 -69q-2 -38 1 -77.5t1 -77.5q2 -72 0 -143.5t-16 -143.5z" />
<glyph unicode="n" horiz-adv-x="1155" d="M1029 189q-4 -30 -14 -61t-28 -57.5t-43.5 -45.5t-59.5 -25q-49 4 -83.5 30.5t-61.5 63t-49 78.5t-45 77q-46 97 -89 193.5t-83 195.5q-4 -75 -7 -147.5t-7 -147.5q-5 -49 -11.5 -97.5t-19.5 -97.5q-8 -29 -19 -57t-26 -49t-35.5 -33t-45.5 -7q-27 4 -51 18.5t-42 35 t-29.5 46.5t-13.5 53q4 40 8 79.5t12 79.5q9 40 16 79.5t10 80.5q2 71 5 142t3 142q4 69 8 139t14 139q5 45 18.5 89t27.5 88q10 19 18.5 40.5t19 41.5t25 35.5t36.5 22.5q22 4 41 -1.5t35 -17.5t28 -28t21 -33q23 -37 37 -78l28 -82q23 -66 44.5 -132.5t45.5 -132.5 q53 -132 123 -256q0 47 -1 91.5t-1 91.5q-1 85 -1 169q0 85 7 170q4 34 9 78t18 83.5t39.5 67t74.5 29.5q23 -2 39.5 -13t28.5 -27t20 -35t16 -37q13 -39 20.5 -79.5t5.5 -83.5q-2 -24 -4 -47t-6 -46l-9 -99q-4 -109 -4.5 -216.5t-2.5 -215.5q3 -71 0.5 -142t-10.5 -142z " />
<glyph unicode="o" horiz-adv-x="1208" d="M1166 689q-8 -123 -53.5 -240.5t-120.5 -221.5q-37 -51 -83.5 -96.5t-100 -79.5t-113 -53.5t-123.5 -16.5q-60 0 -111 22t-92.5 58t-73.5 82t-56 94q-47 100 -68.5 211t-10.5 226q11 124 55 242.5t121 221.5q35 52 81 98t99.5 80t113.5 53t123 17q60 0 111 -21.5 t93 -57.5t74.5 -82t55.5 -95q49 -100 69 -212.5t10 -228.5zM877 749q4 58 6 115t-9 114q-6 27 -20 51.5t-34.5 42.5t-46 28t-54.5 8q-36 1 -69 -11.5t-61 -34t-50 -49.5t-37 -59q-31 -64 -48 -133t-24 -138q-6 -67 -6 -133t13 -130q5 -31 18 -60.5t33.5 -52.5t48 -36.5 t62.5 -11.5q33 -2 64 9.5t57 32t46.5 47.5t33.5 56q20 46 33 90t21.5 87t13.5 84.5t9 83.5z" />
<glyph unicode="p" horiz-adv-x="997" d="M1043 993q-3 -50 -21.5 -96t-47 -88t-65 -79t-74.5 -68q-85 -71 -180.5 -122t-198.5 -86q0 -77 -0.5 -154t-8.5 -155q1 -25 -6.5 -54t-23 -52t-39 -36t-54.5 -6q-37 2 -66.5 23t-49.5 50q-18 29 -26 64t-6 71q2 113 15 225t33 225q4 18 5 35t3 35q5 58 7 116.5t0 115.5 q2 56 4.5 111.5t10.5 110.5q11 56 46.5 95t83 63.5t101.5 35.5t102 13q88 4 175.5 -13.5t159.5 -66.5q34 -27 58 -62.5t38.5 -76.5t20.5 -85.5t4 -88.5zM806 1017q2 17 -4 30.5t-16.5 24t-23.5 18.5t-26 14q-31 13 -62 19.5t-65 6.5q-28 2 -57 -12t-43 -41q-9 -29 -13.5 -59 t-7.5 -59q-4 -49 -8 -99t-4 -99q54 14 103.5 41.5t94.5 59.5q20 15 41.5 31t40 34.5t32.5 40.5t18 49z" />
<glyph unicode="q" horiz-adv-x="1152" d="M1019 80q-6 -20 -18 -38t-28.5 -32t-36 -23.5t-40.5 -13.5l-14 -2l-17 2l-13 3l-14 5l-12 12q-8 17 -19 32.5t-19 32.5q-37 -36 -86 -57t-100 -21q-59 -3 -114 13t-102.5 46t-86 72t-63.5 92q-54 98 -70 210t-7 227q9 124 41.5 245t94.5 235q31 54 74.5 104t95.5 87.5 t111.5 58.5t123.5 18q58 1 107.5 -19t90 -54.5t70.5 -80t49 -94.5q44 -98 58 -206t7 -217q-11 -115 -43 -227.5t-94 -214.5q7 -26 20 -47.5t30 -41.5q14 -23 22 -50t2 -56zM829 707q5 57 6 115t-6 115q-6 31 -15 59.5t-23.5 50.5t-34.5 35t-48 14q-37 3 -72.5 -8.5t-66 -33 t-54 -51.5t-37.5 -64q-29 -71 -39.5 -146t-16.5 -148q-2 -33 -4 -72t0 -79t9 -77.5t24 -68t45 -51t71 -26.5q17 0 33 6t30 17q-15 19 -31.5 39t-30 42t-22 46t-5.5 52q3 20 12.5 40t24.5 36t34 26.5t40 11.5q20 -4 38.5 -15.5t31.5 -28.5t26.5 -33.5t24.5 -33.5 q29 56 40 113.5t16 117.5z" />
<glyph unicode="r" horiz-adv-x="1256" d="M1159 130q-5 -24 -18.5 -43.5t-32.5 -33t-41.5 -21.5t-44.5 -10q-42 -6 -81.5 1t-75.5 24.5t-67.5 42t-56.5 53.5q-53 70 -108 137t-111 136q-18 17 -34.5 34.5t-38.5 29.5q-3 -23 -6 -45.5t-4 -45.5q-2 -32 -2 -64t-2 -64q0 -32 1 -63t-1 -63q1 -21 -3.5 -46t-15 -46 t-29 -33.5t-46.5 -9.5q-26 3 -46.5 15t-36 29t-27.5 38t-19 43q-18 45 -23.5 92.5t-5.5 96.5q2 48 6 94.5t12 94.5q7 51 15.5 100.5t12.5 99.5q5 60 6.5 119t3.5 118q6 58 9 114.5t15 114.5q3 23 10.5 47t20.5 45.5t30.5 39t40.5 28.5q21 13 44.5 20.5t47.5 12t48 7.5t48 8 q32 4 65 6.5t65 2.5q40 1 81.5 -1t81.5 -9t78 -19.5t71 -33.5q33 -24 54.5 -57t34.5 -71.5t17 -79.5t2 -82q-3 -35 -14.5 -68.5t-30 -65t-41.5 -60.5t-48 -54q-53 -57 -114.5 -103t-132.5 -74q29 -40 57.5 -81.5t56.5 -81.5q27 -39 62.5 -73.5t77.5 -57.5q31 -20 63.5 -35 t61.5 -37q28 -17 46 -47t12 -65zM828 1075q2 14 -3.5 23.5t-15.5 15.5t-22 8t-24 1q-32 2 -64 -1.5t-64 -3.5q-29 -3 -59.5 -6t-61.5 -3q-17 -2 -22.5 -16.5t-6.5 -27.5q1 -11 0.5 -23.5t-2.5 -24.5q-5 -51 -8 -102.5t8 -100.5q58 4 115.5 20.5t108.5 51.5q51 29 83.5 80 t37.5 109z" />
<glyph unicode="s" horiz-adv-x="1172" d="M1114 498q-11 -97 -51 -187.5t-109 -163.5q-33 -39 -74 -70t-86 -53t-93 -33.5t-97 -10.5q-73 0 -141 20.5t-130 55.5q-29 17 -58 38t-52 46.5t-37.5 56.5t-14.5 68q-2 17 5 34.5t19 30.5t28.5 19.5t34.5 3.5q27 -2 51 -9.5t46 -22.5q24 -12 46.5 -24.5t45.5 -25.5 q75 -30 157 -30q47 0 95 9t88 38q24 22 38.5 44.5t22.5 46t12 46t7 44.5q4 29 3 58.5t-10 56.5q-8 4 -15 6t-16 2q-45 0 -88 -12t-87 -25q-43 -13 -86 -24.5t-88 -9.5q-44 -2 -83.5 10t-72 35.5t-57 56t-37.5 70.5q-28 75 -32 156.5t10 162.5q5 43 23 82.5t44 74.5 t59.5 65.5t69.5 54.5q75 51 159 74t169 23q57 -2 111 -14t102 -41q23 -14 44.5 -31.5t38 -39t26 -47t8.5 -54.5q2 -28 -11 -46t-33 -28t-44.5 -13t-45.5 0q-32 2 -61.5 12.5t-59.5 21.5q-29 11 -59 20t-62 9q-42 2 -82.5 -12.5t-76.5 -40.5q-33 -24 -56.5 -60.5t-28.5 -77.5 q0 -45 19 -86l10 -18t11.5 -17t15.5 -13t21 -6q36 5 70 18t66 26q42 18 84.5 31.5t84.5 13.5q37 0 71 -10t63.5 -28t54.5 -42.5t43 -53.5q36 -57 51 -123.5t7 -137.5z" />
<glyph unicode="t" horiz-adv-x="1147" d="M1169 1227q-6 -32 -27 -59.5t-57 -32.5q-35 -8 -72 -5t-73 3q-28 2 -56.5 1t-55.5 -14q-3 -27 -6.5 -55t-7.5 -55q-17 -119 -31 -237.5t-27 -238.5q-4 -45 -8 -88.5t-9 -88.5q-2 -44 -7 -88l-10 -88q-4 -28 -10 -61.5t-19 -63t-35.5 -51t-58.5 -25.5q-63 8 -95 48.5 t-44 95.5t-11 115.5t3 110.5q5 54 15 106.5t21 106.5q11 56 21 109.5t18 109.5q5 75 3.5 148.5t-11.5 146.5q-23 -4 -47 -6.5t-49 -10.5q-23 -2 -44 -6t-44 -6q-34 -3 -66 2.5t-61 21.5q-27 13 -39 40.5t-5 58.5q7 29 26 48.5t44 33t53 22t53 15.5q35 8 68 14.5t68 13.5 q75 17 150.5 29.5t150.5 21.5q42 4 84.5 5.5t83.5 -0.5q35 -4 71 -13.5t66.5 -26.5t53.5 -43.5t33 -63.5z" />
<glyph unicode="u" horiz-adv-x="1167" d="M1111 679q-9 -113 -46 -224t-97 -211q-30 -48 -67.5 -95.5t-83 -85t-98 -61t-111.5 -22.5q-66 -3 -126 16.5t-109.5 56t-86.5 87t-57 109.5q-21 58 -32 118.5t-14 122t-0.5 124.5t8.5 125q8 69 16 139t19.5 139.5t28 138t42.5 134.5q20 36 54 57.5t74 22.5 q21 4 38.5 -1.5t31 -17.5t22 -29.5t10.5 -36.5q9 -45 9.5 -90.5t-4.5 -91.5q-10 -78 -21.5 -154t-24.5 -154q-14 -78 -25.5 -156t-16.5 -158q-3 -36 -2.5 -72.5t15.5 -67.5q9 -17 22.5 -26t30 -14.5t35 -7.5t35.5 -3q68 -3 114 31.5t75 87t43 114t17 114.5q9 101 10 202.5 t-10 201.5q-4 42 -4.5 83t-0.5 83q0 24 6 52t20 50.5t36 35.5t53 8q28 -3 50.5 -16t40 -32.5t29.5 -43.5t20 -48q35 -128 39 -262.5t-7 -271.5z" />
<glyph unicode="v" horiz-adv-x="1005" d="M1009 1190q-4 -53 -12.5 -104.5t-25.5 -102.5q-17 -53 -35 -104t-35 -104q-29 -111 -63.5 -219.5t-67.5 -217.5q-19 -47 -37.5 -103t-44.5 -107t-63 -91.5t-93 -56.5q-18 0 -37.5 1.5t-38 5.5t-35.5 11.5t-30 20.5q-25 28 -40.5 62.5t-24.5 70.5q-23 77 -37 156.5 t-23 159.5q-11 81 -15.5 161t-9.5 161q-12 85 -21 168.5t-12 169.5l-2 40t4 40q3 22 10 45t19 42.5t30 33.5t43 18q22 5 41 0t34 -17t25 -29t15 -36q8 -43 12 -85t6 -84q7 -81 14 -161.5t15 -161.5q9 -82 25.5 -162.5t34.5 -159.5q23 57 39.5 116t32.5 119q15 60 31 119.5 t30 119.5q18 67 38.5 133t43.5 130q13 29 25.5 59.5t27.5 55.5t35 42.5t49 21.5q33 -4 57 -21t39 -41.5t22 -54.5t5 -60z" />
<glyph unicode="w" horiz-adv-x="1456" d="M1399 889q-5 -102 -23.5 -203t-44.5 -201q-27 -96 -57.5 -192.5t-82.5 -184.5q-14 -20 -29.5 -39.5t-33.5 -35.5t-39.5 -26.5t-45.5 -13.5q-24 -1 -43.5 8t-34.5 24.5t-25.5 35t-17.5 38.5q-44 118 -78.5 240t-56.5 248q-35 -82 -70 -162.5t-77 -159.5q-26 -42 -49 -86.5 t-48 -82.5t-56 -65.5t-74 -35.5q-37 4 -65 22t-49 44t-35.5 58t-24.5 64q-20 66 -26.5 135.5t-4.5 140.5q0 38 5 73.5t9 73.5q6 38 13 76t9 76q7 58 5 116t0 116q-2 55 2.5 110.5t13.5 111.5q8 20 13 43t22 40q14 17 31.5 34.5t40.5 17.5q27 3 51.5 -5t44.5 -24t34 -37.5 t19 -46.5q4 -29 1.5 -59.5t-5.5 -61.5q-11 -137 -20 -271.5t-14 -271.5q33 93 73 182t82 178q20 39 38.5 78.5t39 78.5t44 75.5t52.5 69.5q13 9 26 10.5t27 3.5q25 2 47 -7.5t39 -26.5q11 -21 20 -42t14 -44q19 -78 35.5 -156t29.5 -159q5 -51 11.5 -99.5t11.5 -98.5 q23 146 40 291.5t22 291.5q2 20 3 38t4 37q4 21 8.5 41.5t21.5 35.5q30 13 49.5 14.5t36.5 -0.5q20 -4 41 -10.5t34 -23.5q31 -46 45 -99.5t18.5 -110.5t3 -115t-0.5 -114z" />
<glyph unicode="x" horiz-adv-x="1198" d="M1070 111q-5 -24 -18.5 -43t-32.5 -33t-42 -22.5t-45 -10.5q-38 0 -65 18.5t-48 45.5t-38 59t-33 59q-30 75 -61 148t-62 148q-35 -43 -63.5 -89t-54.5 -94q-25 -45 -46.5 -91.5t-45.5 -91.5q-10 -16 -20.5 -34.5t-23.5 -35t-29 -28.5t-37 -14q-35 3 -62 19.5t-45 42.5 t-27 58.5t-7 65.5q4 32 15.5 61.5t27.5 58t35 55.5t38 53q46 63 90.5 125t88.5 126q11 17 20 34.5t19 34.5q-32 70 -65 139.5t-64 139.5q-12 30 -25 61.5t-22.5 63.5t-14.5 65t-2 68q3 22 14.5 39.5t29 29.5t38 18.5t40.5 8.5q31 6 61 -3t50 -31q17 -26 28 -53.5t23 -56.5 q20 -60 42 -118.5t41 -118.5q26 34 48.5 70t42.5 74q19 35 37 70.5t40 70.5q9 13 18.5 29.5t20 30.5t24.5 24.5t32 12.5q32 -2 59 -16.5t46.5 -37t30.5 -51.5t11 -60q-12 -69 -43.5 -130.5t-73 -118.5t-88.5 -111t-89 -108q60 -118 119 -235.5t119 -235.5q18 -36 33 -73.5 t11 -81.5z" />
<glyph unicode="y" horiz-adv-x="1044" d="M1087 1200q-6 -38 -27 -73t-43 -69q-26 -37 -53 -73t-53 -74q-59 -86 -112.5 -176t-98 -184.5t-78.5 -192.5t-55 -198q-7 -31 -15 -63.5t-28 -58.5q-17 -30 -48.5 -42.5t-62.5 -10.5q-27 0 -47.5 12t-33 31.5t-18 43.5t-2.5 49q3 97 26 191.5t61 185.5q-33 38 -57 81.5 t-42 90.5t-31 96.5t-25 98.5q-18 93 -26 187.5t9 191.5q2 19 9 38t19 35t29 27t39 13q23 6 44 2t38.5 -16t29.5 -30t17 -40q5 -49 10.5 -96t10.5 -95q14 -77 32 -152.5t46 -147.5q48 91 101.5 179t108.5 176q26 46 54 91t59 90q17 23 42 37t53 9q31 -3 53.5 -18t37.5 -38.5 t21.5 -51.5t5.5 -56z" />
<glyph unicode="z" horiz-adv-x="1188" d="M1176 1208q-28 -63 -64.5 -122.5t-77 -116.5t-82 -113.5t-80.5 -114.5q-46 -63 -90 -125.5t-89 -125.5q-42 -60 -80 -120t-67 -126q29 23 63.5 37.5t69.5 27.5q35 14 69 26.5t69 28.5q34 14 68.5 24.5t71.5 12.5q57 3 101 -29q20 -15 30.5 -39t5.5 -50 q-4 -31 -22.5 -56.5t-44.5 -43.5t-55 -30t-56 -25q-71 -27 -143.5 -53t-146.5 -45.5t-148.5 -29.5t-148.5 -5q-29 4 -50 23t-35 42q-13 24 -22.5 52t-8.5 57q11 64 38 123.5t61.5 116t72.5 111.5t72 111q89 128 178.5 253t178.5 253q-57 -2 -112.5 -9t-112.5 -19l-112 -22 t-112 -14q-24 -3 -52 -1t-51.5 11.5t-37 29t-7.5 51.5q24 46 63 75t85.5 48t96 31t94.5 25q103 23 207.5 31.5t205.5 -2.5q36 -4 69.5 -17.5t62.5 -33.5q26 -22 48.5 -48.5t26.5 -64.5z" />
<glyph unicode="{" horiz-adv-x="817" d="M681 87q-5 -24 -16 -48t-27.5 -43.5t-38 -33.5t-46.5 -20q-67 -11 -131 6t-115 55q-27 17 -51 40.5t-41 51.5t-25.5 60t-6.5 67q2 44 16.5 86t37 81t51.5 74.5t60 67.5q-13 0 -28.5 -1.5t-24.5 1.5q-28 -2 -60 3.5t-58 20t-42.5 37.5t-13.5 58q3 40 25.5 66t54.5 41.5 t68.5 21.5t68.5 6q-26 28 -48.5 60.5t-38 68.5t-22.5 75t-2 81q9 71 40 138t85 120q25 27 55 47.5t63.5 34t68.5 18.5t70 -1q34 -4 64 -19.5t52 -38.5q25 -23 40 -53t13 -65q0 -22 -11 -39.5t-27.5 -29t-37 -16t-38.5 0.5q-18 4 -35.5 8t-34.5 6q-22 4 -44 -1.5t-40 -19 t-29 -33t-10 -43.5q4 -24 16 -45t27.5 -39.5t33 -36t32.5 -35.5q17 -18 35 -38t32.5 -42t24.5 -46.5t12 -52.5q-1 -24 -14 -46.5t-30 -40.5q18 -15 31 -36t12 -47q-12 -49 -45.5 -89.5t-69.5 -76.5q-37 -42 -75 -83.5t-61 -92.5q35 -20 71.5 -37.5t80.5 -13.5q22 5 42 -1.5 t34.5 -20.5t20.5 -34.5t0 -42.5z" />
<glyph unicode="|" horiz-adv-x="522" d="M461 742q-4 -37 -7.5 -73t-8.5 -73q-5 -35 -8.5 -71t-8.5 -71l-8 -97q2 -25 -2 -48t-7 -48q-1 -38 -7 -76t-11 -76l-16 -66t-22 -65q-6 -15 -13 -31.5t-16.5 -31.5t-22.5 -26.5t-30 -16.5q-27 -1 -44 11.5t-27.5 32.5t-16.5 43t-11 43q-5 45 -6.5 90.5t-3.5 90.5 q4 143 10.5 284t20.5 284q5 64 12.5 127t14.5 127q8 62 15 124t12 124q7 31 11 65.5t12 68t23 63.5t45 52q29 9 51 -0.5t37.5 -29t24.5 -44.5t13 -47q5 -51 6 -101t2 -101q3 -109 0 -217.5t-13 -219.5z" />
<glyph unicode="}" horiz-adv-x="816" d="M811 712q-3 -40 -25 -66.5t-54 -42.5t-69 -22.5t-69 -5.5q26 -28 49 -60t38.5 -68t23 -74.5t2.5 -80.5q-9 -72 -40.5 -139t-82.5 -121q-26 -27 -57 -47t-64.5 -33t-69 -18t-69.5 -1q-35 5 -65 21t-52 41q-23 23 -39.5 52.5t-12.5 65.5q-2 22 9 39t28 27.5t38 14.5t40 1 q18 -5 35 -8.5t35 -7.5q22 -4 44.5 2.5t40.5 20t29 33t10 43.5q-5 24 -17 45t-28 39.5t-33.5 35.5t-32.5 34q-17 18 -35 38t-33 42.5t-25.5 47t-12.5 51.5q3 24 16.5 45.5t31.5 39.5q-18 17 -32.5 37t-11.5 47q6 25 18 47.5t28 43.5t34.5 40t35.5 38q37 41 75 83.5t61 93.5 q-17 10 -34.5 19.5t-36.5 17t-38.5 11.5t-41.5 2q-22 -5 -42 1.5t-34.5 21t-21 34t-1.5 42.5q4 24 15.5 47.5t28 43t38 33.5t46.5 19q66 13 131 -3.5t116 -54.5q26 -18 49.5 -41.5t40 -52t25.5 -61t6 -67.5q-3 -44 -16.5 -86t-35.5 -81t-50.5 -75t-59.5 -67q11 -1 27.5 0.5 t25.5 -0.5q27 0 58.5 -5.5t57.5 -18.5t42.5 -35.5t12.5 -57.5z" />
<glyph unicode="~" horiz-adv-x="1157" d="M1135 840q1 -21 -8 -38.5t-23.5 -31.5t-33 -24.5t-36.5 -16.5q-20 -9 -43 -19.5t-44 -23.5q-53 -22 -106.5 -41.5t-110.5 -21.5q-35 0 -65.5 14t-56.5 34q-22 15 -44.5 30t-51.5 19q-27 -2 -52.5 -12.5t-49 -26.5t-44 -36t-37.5 -41q-5 0 -9 1t-9 1q-26 2 -46.5 14 t-37.5 30q-20 17 -31 39t-13 48q1 30 14 53.5t33 43t44 35.5t47 30q25 12 51 24.5t52.5 22.5t53.5 16t54 6q34 2 61.5 -13.5t53.5 -32.5q22 -16 46 -30t53 -16q31 4 60.5 15t55.5 29q29 15 61.5 28t66.5 11q26 -1 51 -10t45 -24t33 -36.5t16 -48.5z" />
<glyph unicode="&#xa1;" horiz-adv-x="553" d="M591 1198q0 -31 -15 -56.5t-38.5 -43t-52.5 -26t-57 -4.5q-35 3 -68 15t-53 42q-19 27 -22.5 60.5t-1.5 67.5q4 28 19.5 53.5t38.5 43.5q25 18 52.5 28t57.5 6q33 -5 59 -22.5t44.5 -43t28 -57t8.5 -63.5zM480 802q-7 -62 -17 -123.5t-24 -123.5q-8 -32 -13 -64.5 t-10 -65.5q-1 -32 -4.5 -64t-5.5 -64q-6 -46 -14.5 -93.5t-26.5 -92.5q-14 -31 -32 -56t-39.5 -41.5t-46 -23t-49.5 0.5q-33 9 -51 38t-24 60q-15 58 -12 123q5 53 16.5 105t26 104t31 103.5t32.5 103.5q19 46 35 97t35.5 100t46.5 93t69 77q16 -1 27.5 -8.5t19.5 -19 t12.5 -25t6.5 -27.5q7 -27 10 -55.5t1 -57.5z" />
<glyph unicode="&#xa2;" horiz-adv-x="942" d="M957 865q0 -21 -7 -41.5t-20 -36.5t-31.5 -25.5t-41.5 -7.5q-32 0 -58.5 16.5t-40.5 43.5q-21 58 -45 114q-4 -46 -5.5 -91t-6.5 -91q-4 -53 -10.5 -104t-11.5 -104q29 23 61.5 39t70.5 20q23 2 38 -8.5t23 -27.5t10.5 -38t-0.5 -40q-8 -41 -31 -72t-55 -55t-69 -42 t-72 -31q-2 -14 -3.5 -29t-2.5 -29q-7 -40 -15.5 -79.5t-25.5 -77.5q-6 -17 -14 -35t-18.5 -34t-25 -28.5t-33.5 -16.5q-17 -1 -33 3.5t-29.5 13.5t-23 22.5t-13.5 30.5q-5 33 -4 67t1 68q0 28 0.5 55t0.5 56q-72 22 -129.5 67t-98.5 105q-42 57 -62 125t-13 141 q8 78 40.5 151t78.5 138q24 33 52 63t60 55t68.5 42.5t77.5 23.5q2 23 5 45t5 45q4 23 9 46t17 45q9 20 20.5 41t35.5 25q20 1 40 -3.5t37 -14t29 -24.5t17 -36q11 -38 10.5 -76.5t-0.5 -78.5q54 -17 98.5 -51t75.5 -81q32 -41 51.5 -91.5t16.5 -106.5zM464 898 q-19 -25 -38 -51.5t-34 -54t-25.5 -57.5t-13.5 -61q-1 -23 5 -43t16.5 -38t24.5 -34t29 -30q8 93 17.5 184.5t18.5 184.5z" />
<glyph unicode="&#xa3;" horiz-adv-x="1329" d="M1294 401q-30 -49 -72.5 -85.5t-91 -66t-100 -55.5t-98.5 -54q-52 -24 -104 -50t-105.5 -48t-108 -37.5t-111.5 -19.5q-35 2 -68.5 13t-55.5 38t-30.5 60.5t-19.5 67.5q-13 72 -18 145t0 148q2 54 9.5 107.5t15.5 107.5q-23 0 -46 -0.5t-46 0.5q-23 2 -45 13t-33 32 q-14 19 -22 42.5t-6 49.5q13 38 41.5 59t64 31t73 13t69.5 6q9 78 30 155t43 154q22 36 55 58.5t71 36.5t78 22t76 16q85 16 168.5 19t167.5 -5q27 -2 51 -13t42.5 -29t29 -42t10.5 -51q1 -19 -6 -36.5t-20 -31t-30 -22.5t-36 -11q-40 -5 -80 -5t-82 2q-36 2 -77.5 -1.5 t-79 -17t-67.5 -39t-44 -67.5q-9 -23 -12.5 -46t-11.5 -46q33 1 72.5 -3t72.5 -18.5t53.5 -41t16.5 -70.5q0 -20 -8 -38t-21.5 -32.5t-31 -23.5t-36.5 -12q-40 -4 -78.5 -4.5t-80.5 -2.5q-6 -48 -11 -95.5t-9 -95.5q-5 -48 -2 -94.5t14 -92.5q68 24 131 56.5t126 65.5 q63 35 130 60t137 29q24 2 49 -3t46 -16t36.5 -29t21.5 -42q2 -4 2 -7t2 -7z" />
<glyph unicode="&#xa4;" horiz-adv-x="1603" d="M1533 1133q-14 -36 -37 -65.5t-51.5 -56.5t-58.5 -52.5t-57 -52.5q23 -53 34 -110.5t4 -117.5q-4 -72 -31 -142t-73 -130q19 -26 42 -51t43 -52.5t33.5 -58t12.5 -65.5q-9 -32 -39 -55t-63 -25q-38 4 -71 20.5t-62.5 39t-57 48t-55.5 47.5q-60 -23 -122 -33.5t-124 -8.5 q-61 0 -120 15t-110 44q-32 -22 -63.5 -46.5t-64.5 -46t-68.5 -36.5t-74.5 -19q-16 1 -31.5 6t-28 14t-19.5 22.5t-7 32.5q7 38 27 70.5t46.5 61.5t56.5 56t56 54q-26 51 -39 106t-7 114q5 63 21 125t44 120q-23 26 -48.5 51.5t-48.5 53t-41 57.5t-26 66q7 18 20.5 30.5 t30.5 20.5q16 11 33.5 19t35.5 10q32 3 60.5 -8t51.5 -29q27 -17 51 -38t47 -41q81 52 172 72.5t183 18.5q72 2 135.5 -24t116.5 -68q28 18 56 38.5t57 38t60 29t64 11.5q18 -4 35 -10.5t30 -18.5q14 -8 26 -20.5t14 -30.5zM1080 649q5 48 -1.5 95t-32.5 85q-27 39 -71 58.5 t-93 17.5q-43 6 -88 -5.5t-82.5 -37.5t-61.5 -64.5t-24 -87.5q-6 -42 6 -82t37.5 -70t61.5 -47t80 -14h17q42 1 83 2t82 18q20 7 36 21t27.5 32t17.5 38.5t6 40.5z" />
<glyph unicode="&#xa5;" horiz-adv-x="1096" d="M1109 1200q-6 -38 -27 -73t-43 -69q-26 -37 -52.5 -73t-52.5 -74q-36 -51 -70 -103.5t-64 -107.5q28 -2 55.5 -11t48.5 -25.5t32.5 -41t5.5 -57.5q-1 -26 -13.5 -47.5t-32 -36.5t-44 -22.5t-48.5 -6.5q-64 0 -125 -3q-9 -20 -17.5 -41.5t-16.5 -42.5h48q31 1 69.5 -2.5 t70.5 -17t51 -38.5t12 -68q-3 -26 -17.5 -46t-35.5 -34.5t-45.5 -23t-48.5 -10.5q-42 -2 -84 -3t-85 -1q-5 -26 -17 -51t-30.5 -45t-43 -31.5t-54.5 -8.5q-29 0 -49.5 13.5t-33 34.5t-16.5 46.5t-1 51.5q-14 0 -27.5 3t-27.5 3q-26 3 -47 15.5t-36 31t-23.5 42t-9.5 49.5 q7 36 31 55t55.5 28t66 11.5t62.5 4.5q6 20 13 39.5t12 38.5q-28 2 -56.5 3.5t-55.5 3.5q-25 1 -45.5 12.5t-35 29.5t-21.5 41t-6 47q3 24 16 42t32 30.5t41 20.5t43 13q-23 68 -39.5 137.5t-27.5 140.5q-8 67 -10.5 135t10.5 136q2 19 9 38t19 35t29 27t39 13q24 6 45 1.5 t38 -16.5t29 -30.5t17 -40.5q5 -48 10.5 -95.5t10.5 -95.5q15 -75 31 -151t47 -147q31 59 65 115.5t69 114.5q35 54 67 108.5t64 108.5q17 23 29.5 48t30.5 47q18 20 42.5 32.5t51.5 7.5q30 -3 53 -18t37.5 -38.5t21 -51.5t5.5 -56z" />
<glyph unicode="&#xa6;" horiz-adv-x="522" d="M452 876q-1 -26 -14.5 -47t-34 -35t-45 -21.5t-47.5 -6.5q-21 -1 -36 7.5t-26.5 22.5t-19 31.5t-11.5 34.5q-8 36 -9 72.5t1 74.5q2 19 5.5 38.5t6.5 39.5q2 20 5 39t7 40q2 13 3 25.5t-1 25.5q0 13 3 24.5t3 24.5q3 33 12 73t26 75t45.5 59.5t70.5 28.5 q27 -5 45.5 -21.5t29 -39t14 -49t0.5 -51.5q-7 -117 -16 -232.5t-17 -232.5zM379 43q-5 -26 -16 -54.5t-28.5 -52t-41.5 -39.5t-54 -18q-23 3 -37 16t-23 31.5t-14.5 39.5t-9.5 39q-9 38 -11 77.5t-1 79.5q3 20 4.5 38t4.5 37q2 20 4.5 38.5t3.5 38.5q3 11 2.5 23t-0.5 23 l5 44q0 33 9.5 70.5t29.5 68.5t50.5 50t71.5 16q24 0 43.5 -11t32.5 -29t18.5 -40.5t2.5 -45.5q-13 -111 -23 -220.5t-23 -219.5z" />
<glyph unicode="&#xa8;" horiz-adv-x="869" d="M872 1548q-3 -26 -15.5 -49t-32 -40t-44 -26.5t-50.5 -9.5t-49.5 11.5t-37.5 31.5q-15 23 -24 50.5t-5 57.5q3 31 16 58.5t32 51.5q18 21 41 37.5t50 12.5q33 0 58 -20t39 -47q17 -26 22 -57t0 -62zM521 1553q0 -25 -10 -49t-27 -42t-40.5 -27.5t-50.5 -4.5 q-30 3 -55.5 16t-42.5 35q-19 22 -28.5 50.5t-7.5 57.5q5 29 22.5 54.5t39.5 46.5q20 17 44.5 33t52.5 18q32 4 53.5 -15t31.5 -45q11 -31 16.5 -63t1.5 -65z" />
<glyph unicode="&#xa9;" horiz-adv-x="1495" d="M1428 485q-6 -56 -26.5 -109t-51.5 -100.5t-71.5 -88.5t-87.5 -74q-95 -67 -202 -100t-218 -33q-117 -3 -224.5 32.5t-198.5 101.5q-45 31 -84.5 72t-68 89.5t-43 103.5t-9.5 114q7 142 69.5 274t166.5 238q48 54 106 100t123 79t134.5 50.5t141.5 14.5q70 1 134 -17.5 t120 -53t102 -82t79 -103.5q72 -109 99 -240t10 -268zM1195 478q10 94 -1 186t-49 174q-17 41 -44.5 76t-64 60t-79.5 39t-90 13q-49 1 -97.5 -12t-92.5 -37t-83 -57.5t-70 -72.5q-67 -76 -104.5 -170t-42.5 -191q-3 -37 8 -69.5t31.5 -59.5t47.5 -48t57 -36 q61 -35 130 -50.5t143 -15.5q66 0 130.5 14t125.5 49q60 31 100 86.5t45 121.5zM1055 835q-2 -24 -13.5 -46t-29.5 -39t-40 -27t-45 -10q-17 2 -32.5 7.5t-32.5 9.5q-34 -4 -60.5 -24.5t-52.5 -43.5q-23 -24 -45.5 -51.5t-29.5 -59.5q-3 -17 3.5 -29t17.5 -19.5t25.5 -10.5 t28.5 -2q20 2 38.5 4.5t38.5 10.5q18 7 37 10.5t38 5.5q24 0 44.5 -9.5t35 -26t22 -38.5t4.5 -46q-4 -41 -33.5 -71t-67.5 -42q-44 -14 -87.5 -24t-88.5 -10q-63 0 -119.5 21t-101.5 63q-43 40 -62.5 96.5t-14.5 118.5q3 41 17 79t36.5 73.5t50.5 67t58 58.5 q30 28 64.5 52.5t72 43t77.5 29t81 10.5q64 0 115 -32q24 -16 38.5 -42t12.5 -57z" />
<glyph unicode="&#xab;" horiz-adv-x="1063" d="M932 109q-12 -44 -48 -75t-80 -37q-33 4 -57.5 21t-44.5 40.5t-37 49.5t-35 49q-18 29 -37.5 58t-35.5 59t-26.5 63t-11.5 69q7 35 24.5 66.5t39.5 61t47 57t48 54.5q22 21 44.5 45.5t47 45.5t52 36t60.5 18q44 -2 67.5 -34t23.5 -73q-2 -27 -14.5 -53t-31.5 -46 q-40 -47 -81.5 -91.5t-80.5 -91.5q37 -55 74 -109t72 -111q13 -14 18 -33t3 -39zM599 724q-2 -22 -14.5 -42t-26.5 -37q-53 -58 -103.5 -116t-101.5 -118q35 -49 71 -95t71 -94q18 -22 30 -49.5t7 -56.5q1 -21 -7 -41t-22.5 -35.5t-33.5 -24t-41 -5.5q-33 8 -59 25.5 t-48.5 40.5t-43 48t-41.5 48q-18 27 -38.5 54t-38.5 55.5t-30 59t-13 65.5q8 36 25.5 69t39.5 63.5t47 59t48 57.5q25 24 49.5 51.5t51 52t56.5 43.5t65 26q22 1 41.5 -7t33 -22.5t20.5 -34t6 -40.5z" />
<glyph unicode="&#xad;" horiz-adv-x="993" d="M927 678q-5 -22 -18 -40t-31 -32t-39.5 -22.5t-43.5 -10.5q-121 -8 -240.5 -7t-240.5 2q-53 8 -87 45q-17 18 -30 41.5t-9 50.5q15 38 45 59t66.5 30.5t76 12.5t73.5 5q23 -1 45 -1t44 -2q23 0 46 -1.5t46 -1.5q45 0 90.5 -3t90.5 -8q21 -5 42.5 -14t38.5 -23.5t27 -34.5 t8 -45z" />
<glyph unicode="&#xae;" horiz-adv-x="1563" d="M1504 579q-6 -63 -29 -123.5t-58.5 -115t-81.5 -102.5t-98 -86q12 -14 17 -32t0 -38q-2 -20 -13 -35.5t-27 -26t-34.5 -16.5t-36.5 -7q-35 1 -69.5 5.5t-63.5 24.5q-63 -23 -129 -35t-132 -12q-63 0 -124.5 11t-119 33.5t-108.5 56t-92 79.5q-43 42 -73.5 94t-49 110 t-25.5 120t-2 124q4 72 25 141t55.5 133.5t80.5 123t100 108.5q52 52 113.5 95t128.5 73.5t138 46.5t143 14q70 1 135 -16.5t123 -51t106 -80t83 -101.5q77 -111 104.5 -243.5t13.5 -271.5zM1270 577q8 93 -0.5 185.5t-45.5 174.5q-18 40 -47 74.5t-65.5 59t-80 38 t-91.5 11.5q-70 2 -139 -22t-132 -62q57 11 112 12.5t112 1.5q32 -2 64.5 -3.5t64 -7t61.5 -15t57 -26.5t45 -42.5t27.5 -56t12.5 -63.5t0 -65q-4 -55 -34.5 -102.5t-67.5 -89.5q-42 -40 -86.5 -76.5t-97.5 -58.5q27 -43 56 -82.5t58 -79.5q43 22 80.5 53t67 69t47.5 82 t22 91zM997 800q0 14 -11 21.5t-25 6.5q-26 0 -50.5 -2t-50.5 -3q-48 -6 -99 -6l-15 -10v-5q0 -11 1.5 -22t1.5 -22q-5 -38 -3.5 -74.5t3.5 -74.5q43 4 85 16t79 35q36 23 58.5 61t25.5 79zM541 519q4 46 3 92.5t-1 93.5q1 46 3 92t9 92q1 17 4 33.5t9 31.5 q-75 -68 -123 -159t-56 -191q-3 -46 1 -93t17.5 -90.5t38 -81t63.5 -63.5q5 31 8 60t7 60q6 31 10.5 61.5t6.5 61.5zM836 212q-24 33 -50 65.5t-61 55.5q-2 -11 -2.5 -21t-2.5 -20l-1 -17q-2 -17 -1 -32.5t-1 -32.5q13 -2 26 -2h27q17 0 33 1t33 3z" />
<glyph unicode="&#xb0;" horiz-adv-x="814" d="M807 1082q-4 -62 -37.5 -114.5t-81.5 -93.5q-51 -42 -109 -67t-120 -25q-58 0 -106.5 26t-84.5 66q-35 42 -56 94.5t-14 111.5q5 62 35.5 118.5t78.5 100.5q47 45 105.5 70t120.5 25q60 0 110.5 -28.5t85.5 -73.5q36 -42 57 -96t16 -114zM611 1092q2 25 -9.5 45.5 t-28.5 34.5q-17 17 -39 28.5t-48 11.5q-20 -2 -37.5 -13t-30.5 -27t-21.5 -36t-9.5 -39q-4 -22 -0.5 -44t14.5 -40t29 -28.5t43 -8.5q25 -3 50 5t44.5 23.5t32 38t11.5 49.5z" />
<glyph unicode="&#xb1;" horiz-adv-x="905" d="M876 669q-1 -21 -10.5 -39.5t-24.5 -33t-34 -22.5t-39 -7q-35 1 -70 -0.5t-70 0.5q-2 -31 -3 -62.5t-5 -62.5q-3 -26 -20.5 -47t-38.5 -38q-22 -17 -47.5 -28.5t-52.5 -9.5q-40 8 -59 35t-26.5 63t-6.5 75.5t1 72.5q-31 2 -60.5 0t-60.5 -2q-24 2 -44.5 12.5t-33.5 30.5 q-13 19 -21.5 41.5t-4.5 48.5q14 39 43.5 60.5t65.5 32.5t75.5 15t73.5 8l1 19v2q3 32 11 69.5t25.5 70t45 54t69.5 21.5q19 1 36 -6t29.5 -19t20.5 -28.5t9 -35.5q3 -38 0 -76.5t-5 -76.5q5 0 11 -1t11 -1q33 -1 70 -7t68.5 -21.5t52 -41t18.5 -65.5zM814 109 q-11 -40 -42.5 -73t-73.5 -39q-121 -20 -241.5 -18.5t-238.5 14.5q-24 5 -43 19t-33 34t-25 43t-9 49q-1 17 7 30t20 22t27 15t29 8q48 9 83.5 8t68.5 -3q49 0 97 -3q25 0 48 -2.5t48 -0.5q46 0 92.5 2t93.5 -2q20 -1 39 -8.5t32.5 -20.5t20 -32t0.5 -42z" />
<glyph unicode="&#xb4;" horiz-adv-x="440" d="M507 1712q0 -14 -5 -26.5t-7 -26.5q-13 -36 -31 -77.5t-44 -76.5t-61 -58t-81 -22q-28 2 -44.5 24.5t-15.5 48.5q2 14 2.5 25.5t3.5 24.5q9 42 28.5 81.5t42.5 77.5q12 16 25 34t29 32t34 23.5t40 9.5q19 0 35 -7.5t27 -20.5t17 -30.5t5 -35.5z" />
<glyph unicode="&#xb6;" horiz-adv-x="1744" d="M1710 1222q-2 -23 -10 -45.5t-19 -43.5q-5 -9 -10 -19.5t-11.5 -19.5t-15 -16t-19.5 -10q-32 2 -64 4.5t-63 4.5q-24 -98 -33 -196.5t-18 -197.5q-10 -131 -15.5 -261t-8.5 -262q-1 -45 -4 -89.5t-9 -89.5q-6 -34 -24.5 -62.5t-44.5 -49.5t-57.5 -33.5t-64.5 -12.5 q-20 0 -33.5 10t-22.5 25t-15 33t-10 34q-10 37 -10 76t-2 79q5 126 11.5 251t12.5 251q5 128 9 252.5t2 252.5q-31 -2 -63.5 -1.5t-63.5 3.5q-14 -64 -26 -129t-25 -129q-15 -66 -25 -131t-18 -132q-5 -63 -9 -126l-8 -126q-2 -49 -3 -96.5t-4 -96.5q2 -42 2 -82v-80 q-1 -26 -9.5 -53t-24.5 -49t-39 -35.5t-53 -11.5q-38 -4 -73 8t-60.5 35t-38.5 56.5t-7 73.5l10 108t12 108q5 57 13 113t12 113q2 11 2 23v24q-98 20 -191 56t-171 98q-36 27 -65 63.5t-47 79t-23 89.5t6 96q14 86 57.5 164.5t114.5 135.5q68 58 152 87.5t171 33.5 q46 3 91.5 5t92.5 2q84 -2 164.5 -10t163.5 -17q106 -13 209 -24t209 -22q19 -2 39 -8t36 -17t27 -27t12 -37z" />
<glyph unicode="&#xb7;" horiz-adv-x="538" d="M497 771q-6 -72 -57 -129q-24 -29 -57 -49t-69 -18q-38 -3 -67 14t-47 45.5t-25 63.5t-1 70q5 31 22 59t41 49t53.5 33t61.5 11q32 3 60 -8t48 -31.5t30.5 -49t6.5 -60.5z" />
<glyph unicode="&#xbb;" horiz-adv-x="1065" d="M1017 408q-7 -36 -24 -68.5t-38.5 -63t-46.5 -59.5t-48 -57q-26 -24 -50.5 -51.5t-51.5 -52.5t-57 -44t-66 -26q-22 -2 -41 6.5t-32.5 23.5t-20.5 35t-5 41q2 22 13.5 41t27.5 36q51 58 102 115.5t103 116.5q-35 49 -71.5 96t-72.5 95q-17 23 -27.5 50t-8.5 58 q0 20 8 40.5t22.5 35.5t33.5 23.5t41 4.5q33 -7 59 -25t48.5 -41.5t43 -49t41.5 -48.5q17 -27 37.5 -53.5t38 -54.5t29.5 -58.5t13 -65.5zM616 408q-8 -36 -25.5 -67.5t-40 -61t-47 -57t-46.5 -55.5q-23 -21 -45.5 -45t-47.5 -45t-52 -36t-59 -19q-22 1 -39 11t-29 25 t-18.5 34t-6.5 39q3 27 14.5 53t32.5 46q41 47 81.5 91t80.5 90q-38 56 -74.5 111.5t-74.5 110.5q-9 16 -14 34t-3 38q4 22 16 41t29 33t37.5 23.5t42.5 13.5q32 -4 57 -20t45.5 -38.5t38 -48.5t34.5 -49q18 -29 37.5 -58t36 -60t27.5 -64t12 -70z" />
<glyph unicode="&#xbf;" horiz-adv-x="1062" d="M913 1195q0 -37 -18 -70t-46.5 -56.5t-64 -36t-71.5 -8.5q-38 -3 -75 9t-65.5 35t-43.5 57t-7 76q2 33 16 66.5t38 60.5t55.5 43t68.5 15q41 -4 78.5 -14.5t68.5 -36.5q33 -25 50.5 -61.5t15.5 -78.5zM1004 338q-7 -45 -28 -85.5t-51 -75t-67.5 -62.5t-77.5 -48 q-78 -47 -165.5 -67.5t-175.5 -16.5q-70 2 -135.5 21.5t-114.5 65.5q-50 45 -73 111t-19 135q17 76 64 133t109 103t131 84t130 76q-29 1 -58 3t-58 2q-29 2 -56.5 6.5t-54.5 12.5q-7 17 -10.5 36t-1.5 39q2 41 29.5 74t60.5 55q20 -1 38 1t37 4q20 2 39 2h36q66 2 129 -9.5 t121 -36.5q27 -10 52.5 -26.5t44.5 -38t29.5 -48.5t7.5 -59q-4 -31 -18.5 -57t-35.5 -48.5t-46 -41.5t-50 -34q-66 -36 -131.5 -71t-132.5 -67q-20 -11 -42.5 -22.5t-43 -25.5t-36.5 -32.5t-22 -42.5q3 -25 19 -38.5t38.5 -19.5t47.5 -8t46 -3q48 -2 95 9.5t92 33.5 q29 23 49 51.5t38 59.5q20 31 51 54.5t67 25.5q23 2 43 -7t34.5 -25t21.5 -37.5t4 -44.5z" />
<glyph unicode="&#xc0;" d="M109 2zM1116 108q-8 -39 -37.5 -67t-68.5 -34q-32 -5 -65.5 0.5t-55.5 30.5q-17 29 -22.5 63.5t-9.5 67.5l-8 64t-11 64q-16 6 -33 10t-35 2q-48 0 -94 -6t-92 -15q-44 -10 -88 -21t-81 -40q-20 -17 -26.5 -40t-11.5 -45l-8 -52t-17 -49q-14 -26 -41.5 -34t-52.5 -5 q-36 6 -64 28.5t-47 51.5q-18 29 -28 62.5t-10 68.5q3 62 22 121.5t45 117.5q28 65 57 126.5t57 124.5q32 102 69 201.5t73 199.5q20 40 41.5 86.5t49.5 87t65 71t88 39.5q46 0 88 -19t74 -48q35 -29 58.5 -68.5t40.5 -83.5q11 -42 19 -83t19 -82q33 -164 64.5 -327 t57.5 -329q8 -28 11 -57.5t10 -58.5q4 -29 3.5 -58.5t-5.5 -59.5v-6zM751 642q1 48 -5.5 95t-17 93t-23 91.5t-24.5 90.5q-32 -44 -55.5 -91.5t-43.5 -97.5q-18 -49 -32.5 -100t-18.5 -102l-2 -19v-17v4q26 -2 53 -2t53 -2h29q13 0 28 2.5t28 9.5t22 18t9 27zM699 1503 q-3 -14 -8.5 -27t-14.5 -24t-21 -18.5t-27 -8.5q-46 1 -77.5 24.5t-51.5 59t-32 77t-19 78.5q3 14 -0.5 26t0.5 26q2 19 10.5 36.5t22 31t31 20.5t37.5 6q24 -1 42.5 -13t32 -30t24 -39.5t19.5 -40.5q18 -44 27.5 -89.5t4.5 -94.5z" />
<glyph unicode="&#xc1;" d="M109 2zM1116 108q-8 -39 -37.5 -67t-68.5 -34q-32 -5 -65.5 0.5t-55.5 30.5q-17 29 -22.5 63.5t-9.5 67.5l-8 64t-11 64q-16 6 -33 10t-35 2q-48 0 -94 -6t-92 -15q-44 -10 -88 -21t-81 -40q-20 -17 -26.5 -40t-11.5 -45l-8 -52t-17 -49q-14 -26 -41.5 -34t-52.5 -5 q-36 6 -64 28.5t-47 51.5q-18 29 -28 62.5t-10 68.5q3 62 22 121.5t45 117.5q28 65 57 126.5t57 124.5q32 102 69 201.5t73 199.5q20 40 41.5 86.5t49.5 87t65 71t88 39.5q46 0 88 -19t74 -48q35 -29 58.5 -68.5t40.5 -83.5q11 -42 19 -83t19 -82q33 -164 64.5 -327 t57.5 -329q8 -28 11 -57.5t10 -58.5q4 -29 3.5 -58.5t-5.5 -59.5v-6zM751 642q1 48 -5.5 95t-17 93t-23 91.5t-24.5 90.5q-32 -44 -55.5 -91.5t-43.5 -97.5q-18 -49 -32.5 -100t-18.5 -102l-2 -19v-17v4q26 -2 53 -2t53 -2h29q13 0 28 2.5t28 9.5t22 18t9 27zM842 1721 q0 -14 -5 -26.5t-7 -26.5q-13 -36 -31 -77.5t-44 -76.5t-61 -58t-81 -22q-28 2 -44.5 24.5t-15.5 48.5q2 14 2.5 25.5t3.5 24.5q9 42 28.5 81.5t42.5 77.5q12 16 25 34t29 32t34 23.5t40 9.5q19 0 35 -7.5t27 -20.5t17 -30.5t5 -35.5z" />
<glyph unicode="&#xc2;" d="M109 2zM1116 108q-8 -39 -37.5 -67t-68.5 -34q-32 -5 -65.5 0.5t-55.5 30.5q-17 29 -22.5 63.5t-9.5 67.5l-8 64t-11 64q-16 6 -33 10t-35 2q-48 0 -94 -6t-92 -15q-44 -10 -88 -21t-81 -40q-20 -17 -26.5 -40t-11.5 -45l-8 -52t-17 -49q-14 -26 -41.5 -34t-52.5 -5 q-36 6 -64 28.5t-47 51.5q-18 29 -28 62.5t-10 68.5q3 62 22 121.5t45 117.5q28 65 57 126.5t57 124.5q32 102 69 201.5t73 199.5q20 40 41.5 86.5t49.5 87t65 71t88 39.5q46 0 88 -19t74 -48q35 -29 58.5 -68.5t40.5 -83.5q11 -42 19 -83t19 -82q33 -164 64.5 -327 t57.5 -329q8 -28 11 -57.5t10 -58.5q4 -29 3.5 -58.5t-5.5 -59.5v-6zM751 642q1 48 -5.5 95t-17 93t-23 91.5t-24.5 90.5q-32 -44 -55.5 -91.5t-43.5 -97.5q-18 -49 -32.5 -100t-18.5 -102l-2 -19v-17v4q26 -2 53 -2t53 -2h29q13 0 28 2.5t28 9.5t22 18t9 27zM939 1519 q-8 -35 -36 -58.5t-63 -23.5q-36 -1 -60 21t-36 51q-10 33 -23 65.5t-24 65.5q-21 -35 -42.5 -68t-43.5 -68q-10 -14 -22.5 -28t-27 -25t-31 -17t-35.5 -4q-23 1 -39 12t-26.5 27t-15.5 36t-4 40q1 29 11 56t25.5 52t34.5 48.5t38 46.5q20 21 41.5 43t45 41t50 32t56.5 15 q30 0 55 -11.5t46 -29t38.5 -39.5t32.5 -44q30 -45 48.5 -98.5t9.5 -111.5q0 -7 -1.5 -13t-1.5 -13z" />
<glyph unicode="&#xc3;" d="M109 2zM1116 108q-8 -39 -37.5 -67t-68.5 -34q-32 -5 -65.5 0.5t-55.5 30.5q-17 29 -22.5 63.5t-9.5 67.5l-8 64t-11 64q-16 6 -33 10t-35 2q-48 0 -94 -6t-92 -15q-44 -10 -88 -21t-81 -40q-20 -17 -26.5 -40t-11.5 -45l-8 -52t-17 -49q-14 -26 -41.5 -34t-52.5 -5 q-36 6 -64 28.5t-47 51.5q-18 29 -28 62.5t-10 68.5q3 62 22 121.5t45 117.5q28 65 57 126.5t57 124.5q32 102 69 201.5t73 199.5q20 40 41.5 86.5t49.5 87t65 71t88 39.5q46 0 88 -19t74 -48q35 -29 58.5 -68.5t40.5 -83.5q11 -42 19 -83t19 -82q33 -164 64.5 -327 t57.5 -329q8 -28 11 -57.5t10 -58.5q4 -29 3.5 -58.5t-5.5 -59.5v-6zM751 642q1 48 -5.5 95t-17 93t-23 91.5t-24.5 90.5q-32 -44 -55.5 -91.5t-43.5 -97.5q-18 -49 -32.5 -100t-18.5 -102l-2 -19v-17v4q26 -2 53 -2t53 -2h29q13 0 28 2.5t28 9.5t22 18t9 27zM1086 1625 q0 -19 -6.5 -37t-18 -34t-27.5 -28.5t-34 -19.5q-59 -27 -118.5 -51t-121.5 -26q-27 0 -52 10t-42 29q-13 14 -29.5 25.5t-37.5 13.5q-26 2 -49.5 -11t-44.5 -30q-13 -10 -25 -21.5t-29 -15.5q-25 2 -45 14t-37 30q-16 20 -29 41t-10 48q0 24 9.5 46t25.5 40t35.5 32.5 t40.5 24.5q41 23 85.5 37.5t89.5 14.5q26 2 49.5 -8t41.5 -27q13 -14 29.5 -24.5t36.5 -12.5q22 0 44.5 2.5t44.5 11.5q16 11 34.5 19.5t33.5 22.5q9 7 19 8t21 1q23 -3 43 -14.5t36 -28t25.5 -38t11.5 -44.5z" />
<glyph unicode="&#xc4;" d="M109 2zM1116 108q-8 -39 -37.5 -67t-68.5 -34q-32 -5 -65.5 0.5t-55.5 30.5q-17 29 -22.5 63.5t-9.5 67.5l-8 64t-11 64q-16 6 -33 10t-35 2q-48 0 -94 -6t-92 -15q-44 -10 -88 -21t-81 -40q-20 -17 -26.5 -40t-11.5 -45l-8 -52t-17 -49q-14 -26 -41.5 -34t-52.5 -5 q-36 6 -64 28.5t-47 51.5q-18 29 -28 62.5t-10 68.5q3 62 22 121.5t45 117.5q28 65 57 126.5t57 124.5q32 102 69 201.5t73 199.5q20 40 41.5 86.5t49.5 87t65 71t88 39.5q46 0 88 -19t74 -48q35 -29 58.5 -68.5t40.5 -83.5q11 -42 19 -83t19 -82q33 -164 64.5 -327 t57.5 -329q8 -28 11 -57.5t10 -58.5q4 -29 3.5 -58.5t-5.5 -59.5v-6zM751 642q1 48 -5.5 95t-17 93t-23 91.5t-24.5 90.5q-32 -44 -55.5 -91.5t-43.5 -97.5q-18 -49 -32.5 -100t-18.5 -102l-2 -19v-17v4q26 -2 53 -2t53 -2h29q13 0 28 2.5t28 9.5t22 18t9 27zM997 1553 q-3 -26 -15.5 -49t-32 -40t-44 -26.5t-50.5 -9.5t-49.5 11.5t-37.5 31.5q-15 23 -24 50.5t-5 57.5q3 31 16 58.5t32 51.5q18 21 41 37.5t50 12.5q33 0 58 -20t39 -47q17 -26 22 -57t0 -62zM646 1558q0 -25 -10 -49t-27 -42t-40.5 -27.5t-50.5 -4.5q-30 3 -55.5 16t-42.5 35 q-19 22 -28.5 50.5t-7.5 57.5q5 29 22.5 54.5t39.5 46.5q20 17 44.5 33t52.5 18q32 4 53.5 -15t31.5 -45q11 -31 16.5 -63t1.5 -65z" />
<glyph unicode="&#xc5;" d="M109 2zM1116 108q-8 -39 -37.5 -67t-68.5 -34q-32 -5 -65.5 0.5t-55.5 30.5q-17 29 -22.5 63.5t-9.5 67.5l-8 64t-11 64q-16 6 -33 10t-35 2q-48 0 -94 -6t-92 -15q-44 -10 -88 -21t-81 -40q-20 -17 -26.5 -40t-11.5 -45l-8 -52t-17 -49q-14 -26 -41.5 -34t-52.5 -5 q-36 6 -64 28.5t-47 51.5q-18 29 -28 62.5t-10 68.5q3 62 22 121.5t45 117.5q28 65 57 126.5t57 124.5q32 102 69 201.5t73 199.5q20 40 41.5 86.5t49.5 87t65 71t88 39.5q46 0 88 -19t74 -48q35 -29 58.5 -68.5t40.5 -83.5q11 -42 19 -83t19 -82q33 -164 64.5 -327 t57.5 -329q8 -28 11 -57.5t10 -58.5q4 -29 3.5 -58.5t-5.5 -59.5v-6zM751 642q1 48 -5.5 95t-17 93t-23 91.5t-24.5 90.5q-32 -44 -55.5 -91.5t-43.5 -97.5q-18 -49 -32.5 -100t-18.5 -102l-2 -19v-17v4q26 -2 53 -2t53 -2h29q13 0 28 2.5t28 9.5t22 18t9 27zM942 1705 q-5 -54 -34.5 -102.5t-73.5 -83.5q-45 -36 -97 -59t-107 -21q-52 0 -95 23t-74 60q-32 36 -48 83.5t-14 97.5q4 56 31.5 106.5t69.5 88.5q42 40 95 62.5t108 21.5q53 -2 97 -25.5t75 -63.5q35 -38 53.5 -86t13.5 -102zM778 1715q3 25 -8.5 46t-28.5 36q-18 16 -39.5 26 t-47.5 10q-21 -1 -39 -11.5t-31 -26.5t-21 -36t-10 -39q-4 -22 0 -44t15 -40t29 -28.5t43 -8.5q25 -3 50.5 5t45.5 23.5t31.5 38t10.5 49.5z" />
<glyph unicode="&#xc6;" horiz-adv-x="1826" d="M1734 364q-5 -29 -17.5 -53t-32.5 -46q-36 -33 -76.5 -58.5t-83.5 -46.5t-88 -39.5t-88 -36.5q-44 -16 -87.5 -33t-88 -32t-89.5 -25.5t-90 -13.5q-26 0 -53.5 2.5t-53 9t-48 19.5t-38.5 35q-23 48 -25 101t3 107q2 14 1 29t-6 28q-18 0 -36 2.5t-37 0.5q-42 3 -84 3 q-36 0 -72.5 -1t-72.5 -7q-20 -47 -40.5 -92.5t-39.5 -91.5q-10 -18 -21 -38t-25.5 -37t-32.5 -28t-42 -10t-47 10t-40.5 24t-28 35.5t-9.5 46.5q-2 66 11 131.5t33 129.5q25 69 52 133.5t56 131.5q51 113 104.5 224t119.5 218q31 46 67 95t78.5 90t92.5 70t110 35 q33 0 64.5 -8t56.5 -30q63 12 124 16t123 6q83 -1 164.5 0.5t163.5 -6.5q31 -1 59.5 -13t49.5 -33t33 -49t10 -61q2 -20 -2 -40t-17 -38q-9 -18 -26.5 -30t-38.5 -9q-112 6 -221.5 9.5t-221.5 5.5q-14 -32 -21.5 -65t-11.5 -66v-16q103 3 212 9q51 4 103 5.5t105 1.5 q33 2 64 -9t54.5 -32t35 -50.5t5.5 -64.5q-1 -31 -18 -52t-41.5 -34.5t-53.5 -21t-53 -10.5q-77 -9 -152.5 -15t-151.5 -17q-36 -6 -68.5 -24.5t-58 -45t-41 -60t-16.5 -70.5q-4 -44 1 -85.5t16 -83.5q35 4 69 15t67 25.5t65.5 31t64.5 32.5q65 36 134.5 63.5t142.5 32.5 q28 4 49 -7.5t33.5 -32t15 -46t-5.5 -50.5zM802 570l21 220q4 71 6.5 142t-15.5 138q-48 -53 -85 -113t-67 -124t-54.5 -130t-46.5 -131q61 -2 121 -2h120z" />
<glyph unicode="&#xc8;" horiz-adv-x="1062" d="M162 0zM1103 364q-7 -29 -18.5 -55t-31.5 -48q-34 -34 -73 -60t-81.5 -48t-86.5 -40.5t-87 -37.5q-43 -15 -86.5 -30.5t-87.5 -28t-88 -19.5t-89 -6q-36 7 -71.5 18.5t-58.5 39.5q-27 27 -40 62t-25 70q-17 81 -16.5 165t3.5 169q11 102 20.5 207t27.5 208t50 202.5 t89 191.5q69 25 139 34.5t141 13.5q81 9 160 8.5t156 -6.5q32 -1 60.5 -14t48.5 -35t30 -51t6 -62q3 -44 -22 -77q-8 -20 -27.5 -29.5t-39.5 -9.5q-113 9 -226 11.5t-228 -1.5q-13 -32 -24 -65t-13 -68v-14q54 4 108 7t108 7t106 5.5t106 -0.5q33 2 64.5 -9t54 -32.5 t33.5 -51.5t5 -66q-1 -31 -18 -52.5t-42 -35t-53.5 -20.5t-53.5 -10q-78 -8 -156 -14.5t-156 -17.5q-35 -6 -68 -23.5t-58.5 -43.5t-41 -59t-15.5 -70q-5 -45 3 -87t19 -84q71 8 136.5 37.5t129.5 63.5q66 36 136.5 62.5t143.5 32.5q29 4 50 -7t33.5 -31t16.5 -45.5 t-2 -50.5zM768 1510q-3 -14 -8.5 -27t-14.5 -24t-21 -18.5t-27 -8.5q-46 1 -77.5 24.5t-51.5 59t-32 77t-19 78.5q3 14 -0.5 26t0.5 26q2 19 10.5 36.5t22 31t31 20.5t37.5 6q24 -1 42.5 -13t32 -30t24 -39.5t19.5 -40.5q18 -44 27.5 -89.5t4.5 -94.5z" />
<glyph unicode="&#xc9;" horiz-adv-x="1062" d="M162 0zM1103 364q-7 -29 -18.5 -55t-31.5 -48q-34 -34 -73 -60t-81.5 -48t-86.5 -40.5t-87 -37.5q-43 -15 -86.5 -30.5t-87.5 -28t-88 -19.5t-89 -6q-36 7 -71.5 18.5t-58.5 39.5q-27 27 -40 62t-25 70q-17 81 -16.5 165t3.5 169q11 102 20.5 207t27.5 208t50 202.5 t89 191.5q69 25 139 34.5t141 13.5q81 9 160 8.5t156 -6.5q32 -1 60.5 -14t48.5 -35t30 -51t6 -62q3 -44 -22 -77q-8 -20 -27.5 -29.5t-39.5 -9.5q-113 9 -226 11.5t-228 -1.5q-13 -32 -24 -65t-13 -68v-14q54 4 108 7t108 7t106 5.5t106 -0.5q33 2 64.5 -9t54 -32.5 t33.5 -51.5t5 -66q-1 -31 -18 -52.5t-42 -35t-53.5 -20.5t-53.5 -10q-78 -8 -156 -14.5t-156 -17.5q-35 -6 -68 -23.5t-58.5 -43.5t-41 -59t-15.5 -70q-5 -45 3 -87t19 -84q71 8 136.5 37.5t129.5 63.5q66 36 136.5 62.5t143.5 32.5q29 4 50 -7t33.5 -31t16.5 -45.5 t-2 -50.5zM847 1732q0 -14 -5 -26.5t-7 -26.5q-13 -36 -31 -77.5t-44 -76.5t-61 -58t-81 -22q-28 2 -44.5 24.5t-15.5 48.5q2 14 2.5 25.5t3.5 24.5q9 42 28.5 81.5t42.5 77.5q12 16 25 34t29 32t34 23.5t40 9.5q19 0 35 -7.5t27 -20.5t17 -30.5t5 -35.5z" />
<glyph unicode="&#xca;" horiz-adv-x="1062" d="M162 0zM1103 364q-7 -29 -18.5 -55t-31.5 -48q-34 -34 -73 -60t-81.5 -48t-86.5 -40.5t-87 -37.5q-43 -15 -86.5 -30.5t-87.5 -28t-88 -19.5t-89 -6q-36 7 -71.5 18.5t-58.5 39.5q-27 27 -40 62t-25 70q-17 81 -16.5 165t3.5 169q11 102 20.5 207t27.5 208t50 202.5 t89 191.5q69 25 139 34.5t141 13.5q81 9 160 8.5t156 -6.5q32 -1 60.5 -14t48.5 -35t30 -51t6 -62q3 -44 -22 -77q-8 -20 -27.5 -29.5t-39.5 -9.5q-113 9 -226 11.5t-228 -1.5q-13 -32 -24 -65t-13 -68v-14q54 4 108 7t108 7t106 5.5t106 -0.5q33 2 64.5 -9t54 -32.5 t33.5 -51.5t5 -66q-1 -31 -18 -52.5t-42 -35t-53.5 -20.5t-53.5 -10q-78 -8 -156 -14.5t-156 -17.5q-35 -6 -68 -23.5t-58.5 -43.5t-41 -59t-15.5 -70q-5 -45 3 -87t19 -84q71 8 136.5 37.5t129.5 63.5q66 36 136.5 62.5t143.5 32.5q29 4 50 -7t33.5 -31t16.5 -45.5 t-2 -50.5zM949 1522q-8 -35 -36 -58.5t-63 -23.5q-36 -1 -60 21t-36 51q-10 33 -23 65.5t-24 65.5q-21 -35 -42.5 -68t-43.5 -68q-10 -14 -22.5 -28t-27 -25t-31 -17t-35.5 -4q-23 1 -39 12t-26.5 27t-15.5 36t-4 40q1 29 11 56t25.5 52t34.5 48.5t38 46.5q20 21 41.5 43 t45 41t50 32t56.5 15q30 0 55 -11.5t46 -29t38.5 -39.5t32.5 -44q30 -45 48.5 -98.5t9.5 -111.5q0 -7 -1.5 -13t-1.5 -13z" />
<glyph unicode="&#xcb;" horiz-adv-x="1062" d="M162 0zM1103 364q-7 -29 -18.5 -55t-31.5 -48q-34 -34 -73 -60t-81.5 -48t-86.5 -40.5t-87 -37.5q-43 -15 -86.5 -30.5t-87.5 -28t-88 -19.5t-89 -6q-36 7 -71.5 18.5t-58.5 39.5q-27 27 -40 62t-25 70q-17 81 -16.5 165t3.5 169q11 102 20.5 207t27.5 208t50 202.5 t89 191.5q69 25 139 34.5t141 13.5q81 9 160 8.5t156 -6.5q32 -1 60.5 -14t48.5 -35t30 -51t6 -62q3 -44 -22 -77q-8 -20 -27.5 -29.5t-39.5 -9.5q-113 9 -226 11.5t-228 -1.5q-13 -32 -24 -65t-13 -68v-14q54 4 108 7t108 7t106 5.5t106 -0.5q33 2 64.5 -9t54 -32.5 t33.5 -51.5t5 -66q-1 -31 -18 -52.5t-42 -35t-53.5 -20.5t-53.5 -10q-78 -8 -156 -14.5t-156 -17.5q-35 -6 -68 -23.5t-58.5 -43.5t-41 -59t-15.5 -70q-5 -45 3 -87t19 -84q71 8 136.5 37.5t129.5 63.5q66 36 136.5 62.5t143.5 32.5q29 4 50 -7t33.5 -31t16.5 -45.5 t-2 -50.5zM1007 1546q-3 -26 -15.5 -49t-32 -40t-44 -26.5t-50.5 -9.5t-49.5 11.5t-37.5 31.5q-15 23 -24 50.5t-5 57.5q3 31 16 58.5t32 51.5q18 21 41 37.5t50 12.5q33 0 58 -20t39 -47q17 -26 22 -57t0 -62zM656 1551q0 -25 -10 -49t-27 -42t-40.5 -27.5t-50.5 -4.5 q-30 3 -55.5 16t-42.5 35q-19 22 -28.5 50.5t-7.5 57.5q5 29 22.5 54.5t39.5 46.5q20 17 44.5 33t52.5 18q32 4 53.5 -15t31.5 -45q11 -31 16.5 -63t1.5 -65z" />
<glyph unicode="&#xcc;" horiz-adv-x="959" d="M191 0zM1012 90q-5 -26 -21 -50t-46 -28q-132 -24 -263 -29.5t-264 3.5q-32 2 -65 9t-62.5 21.5t-52.5 37t-35 54.5q-8 13 -10 27.5t-2 28.5q1 16 10 27.5t21 19.5t26.5 12t27.5 6q32 0 65 3t65 5q2 5 3 10.5t-1 10.5q9 85 18.5 169t22.5 169q11 88 23 174.5t20 174.5 q4 36 5.5 73t-2.5 73l-16 -4t-16 -2l-19 -3l-17 -3h-7q-35 0 -70.5 1t-67.5 14q-15 3 -28.5 11t-23 20t-13.5 27t0 32q15 35 41.5 59.5t59 41.5t67.5 30t67 25q74 22 148.5 34.5t150.5 9.5q40 0 78 -9t74 -20q36 -14 67 -36t45 -58q-8 -35 -29 -67t-56 -47q-40 -8 -78.5 -15 t-78.5 -16q-5 -33 -7.5 -65.5t-9.5 -65.5q-4 -35 -8.5 -69t-6.5 -69q-3 -42 -5.5 -81.5t-5.5 -81.5q-2 -40 -4.5 -80t-6.5 -80q-2 -36 -5.5 -73.5t-6.5 -75t-2.5 -74.5t7.5 -72l17 -2l13 2q14 -2 29 -0.5t29 1.5q14 3 29 3.5t29 2.5q31 2 63 -2t59 -17q31 -30 34 -63.5 t-2 -63.5zM686 1509q-3 -14 -8.5 -27t-14.5 -24t-21 -18.5t-27 -8.5q-46 1 -77.5 24.5t-51.5 59t-32 77t-19 78.5q3 14 -0.5 26t0.5 26q2 19 10.5 36.5t22 31t31 20.5t37.5 6q24 -1 42.5 -13t32 -30t24 -39.5t19.5 -40.5q18 -44 27.5 -89.5t4.5 -94.5z" />
<glyph unicode="&#xcd;" horiz-adv-x="959" d="M191 0zM1012 90q-5 -26 -21 -50t-46 -28q-132 -24 -263 -29.5t-264 3.5q-32 2 -65 9t-62.5 21.5t-52.5 37t-35 54.5q-8 13 -10 27.5t-2 28.5q1 16 10 27.5t21 19.5t26.5 12t27.5 6q32 0 65 3t65 5q2 5 3 10.5t-1 10.5q9 85 18.5 169t22.5 169q11 88 23 174.5t20 174.5 q4 36 5.5 73t-2.5 73l-16 -4t-16 -2l-19 -3l-17 -3h-7q-35 0 -70.5 1t-67.5 14q-15 3 -28.5 11t-23 20t-13.5 27t0 32q15 35 41.5 59.5t59 41.5t67.5 30t67 25q74 22 148.5 34.5t150.5 9.5q40 0 78 -9t74 -20q36 -14 67 -36t45 -58q-8 -35 -29 -67t-56 -47q-40 -8 -78.5 -15 t-78.5 -16q-5 -33 -7.5 -65.5t-9.5 -65.5q-4 -35 -8.5 -69t-6.5 -69q-3 -42 -5.5 -81.5t-5.5 -81.5q-2 -40 -4.5 -80t-6.5 -80q-2 -36 -5.5 -73.5t-6.5 -75t-2.5 -74.5t7.5 -72l17 -2l13 2q14 -2 29 -0.5t29 1.5q14 3 29 3.5t29 2.5q31 2 63 -2t59 -17q31 -30 34 -63.5 t-2 -63.5zM792 1729q0 -14 -5 -26.5t-7 -26.5q-13 -36 -31 -77.5t-44 -76.5t-61 -58t-81 -22q-28 2 -44.5 24.5t-15.5 48.5q2 14 2.5 25.5t3.5 24.5q9 42 28.5 81.5t42.5 77.5q12 16 25 34t29 32t34 23.5t40 9.5q19 0 35 -7.5t27 -20.5t17 -30.5t5 -35.5z" />
<glyph unicode="&#xce;" horiz-adv-x="959" d="M191 0zM1012 90q-5 -26 -21 -50t-46 -28q-132 -24 -263 -29.5t-264 3.5q-32 2 -65 9t-62.5 21.5t-52.5 37t-35 54.5q-8 13 -10 27.5t-2 28.5q1 16 10 27.5t21 19.5t26.5 12t27.5 6q32 0 65 3t65 5q2 5 3 10.5t-1 10.5q9 85 18.5 169t22.5 169q11 88 23 174.5t20 174.5 q4 36 5.5 73t-2.5 73l-16 -4t-16 -2l-19 -3l-17 -3h-7q-35 0 -70.5 1t-67.5 14q-15 3 -28.5 11t-23 20t-13.5 27t0 32q15 35 41.5 59.5t59 41.5t67.5 30t67 25q74 22 148.5 34.5t150.5 9.5q40 0 78 -9t74 -20q36 -14 67 -36t45 -58q-8 -35 -29 -67t-56 -47q-40 -8 -78.5 -15 t-78.5 -16q-5 -33 -7.5 -65.5t-9.5 -65.5q-4 -35 -8.5 -69t-6.5 -69q-3 -42 -5.5 -81.5t-5.5 -81.5q-2 -40 -4.5 -80t-6.5 -80q-2 -36 -5.5 -73.5t-6.5 -75t-2.5 -74.5t7.5 -72l17 -2l13 2q14 -2 29 -0.5t29 1.5q14 3 29 3.5t29 2.5q31 2 63 -2t59 -17q31 -30 34 -63.5 t-2 -63.5zM884 1519q-8 -35 -36 -58.5t-63 -23.5q-36 -1 -60 21t-36 51q-10 33 -23 65.5t-24 65.5q-21 -35 -42.5 -68t-43.5 -68q-10 -14 -22.5 -28t-27 -25t-31 -17t-35.5 -4q-23 1 -39 12t-26.5 27t-15.5 36t-4 40q1 29 11 56t25.5 52t34.5 48.5t38 46.5q20 21 41.5 43 t45 41t50 32t56.5 15q30 0 55 -11.5t46 -29t38.5 -39.5t32.5 -44q30 -45 48.5 -98.5t9.5 -111.5q0 -7 -1.5 -13t-1.5 -13z" />
<glyph unicode="&#xcf;" horiz-adv-x="959" d="M191 0zM1012 90q-5 -26 -21 -50t-46 -28q-132 -24 -263 -29.5t-264 3.5q-32 2 -65 9t-62.5 21.5t-52.5 37t-35 54.5q-8 13 -10 27.5t-2 28.5q1 16 10 27.5t21 19.5t26.5 12t27.5 6q32 0 65 3t65 5q2 5 3 10.5t-1 10.5q9 85 18.5 169t22.5 169q11 88 23 174.5t20 174.5 q4 36 5.5 73t-2.5 73l-16 -4t-16 -2l-19 -3l-17 -3h-7q-35 0 -70.5 1t-67.5 14q-15 3 -28.5 11t-23 20t-13.5 27t0 32q15 35 41.5 59.5t59 41.5t67.5 30t67 25q74 22 148.5 34.5t150.5 9.5q40 0 78 -9t74 -20q36 -14 67 -36t45 -58q-8 -35 -29 -67t-56 -47q-40 -8 -78.5 -15 t-78.5 -16q-5 -33 -7.5 -65.5t-9.5 -65.5q-4 -35 -8.5 -69t-6.5 -69q-3 -42 -5.5 -81.5t-5.5 -81.5q-2 -40 -4.5 -80t-6.5 -80q-2 -36 -5.5 -73.5t-6.5 -75t-2.5 -74.5t7.5 -72l17 -2l13 2q14 -2 29 -0.5t29 1.5q14 3 29 3.5t29 2.5q31 2 63 -2t59 -17q31 -30 34 -63.5 t-2 -63.5zM918 1548q-3 -26 -15.5 -49t-32 -40t-44 -26.5t-50.5 -9.5t-49.5 11.5t-37.5 31.5q-15 23 -24 50.5t-5 57.5q3 31 16 58.5t32 51.5q18 21 41 37.5t50 12.5q33 0 58 -20t39 -47q17 -26 22 -57t0 -62zM567 1553q0 -25 -10 -49t-27 -42t-40.5 -27.5t-50.5 -4.5 q-30 3 -55.5 16t-42.5 35q-19 22 -28.5 50.5t-7.5 57.5q5 29 22.5 54.5t39.5 46.5q20 17 44.5 33t52.5 18q32 4 53.5 -15t31.5 -45q11 -31 16.5 -63t1.5 -65z" />
<glyph unicode="&#xd1;" horiz-adv-x="1073" d="M167 0zM1099 239q-5 -35 -18 -68.5t-33 -64.5t-47.5 -57.5t-63.5 -33.5q-54 0 -94.5 24t-73 60.5t-59 79t-50.5 80.5q-48 102 -94.5 203.5t-94.5 203.5q-11 -29 -16.5 -58t-7.5 -58q-2 -47 -4.5 -92.5t-2.5 -92.5q0 -45 -0.5 -89.5t-2.5 -89.5q-3 -26 -7 -58.5 t-14.5 -61.5t-31 -48.5t-56.5 -19.5q-27 2 -50 14t-42 29q-14 22 -24.5 44t-15.5 48q-27 95 -28.5 195.5t3.5 200.5q2 35 5 69t8 69q11 100 31.5 196t47.5 193q15 39 26.5 82.5t27 85.5t38 79t58.5 64q43 -7 75.5 -27t57.5 -49.5t44.5 -66t35.5 -75t31 -77t31 -72.5 q20 -55 38.5 -110.5t38.5 -111.5q19 -55 42 -109.5t51 -105.5q5 14 5.5 30t1.5 30q5 64 6.5 128t-1.5 128q0 63 -1 126.5t3 126.5q4 37 11 75t25 73q5 16 15 31t23.5 25.5t30 16t33.5 2.5q46 -5 77 -29.5t49.5 -60.5t25 -79t4.5 -83q-3 -49 -4.5 -98.5t-6.5 -98.5 q-2 -49 -5.5 -97t-7.5 -99q-4 -60 -9.5 -120t-9.5 -121q-4 -57 -9.5 -114.5t-14.5 -115.5zM1130 1626q0 -19 -6.5 -37t-18 -34t-27.5 -28.5t-34 -19.5q-59 -27 -118.5 -51t-121.5 -26q-27 0 -52 10t-42 29q-13 14 -29.5 25.5t-37.5 13.5q-26 2 -49.5 -11t-44.5 -30 q-13 -10 -25 -21.5t-29 -15.5q-25 2 -45 14t-37 30q-16 20 -29 41t-10 48q0 24 9.5 46t25.5 40t35.5 32.5t40.5 24.5q41 23 85.5 37.5t89.5 14.5q26 2 49.5 -8t41.5 -27q13 -14 29.5 -24.5t36.5 -12.5q22 0 44.5 2.5t44.5 11.5q16 11 34.5 19.5t33.5 22.5q9 7 19 8t21 1 q23 -3 43 -14.5t36 -28t25.5 -38t11.5 -44.5z" />
<glyph unicode="&#xd2;" horiz-adv-x="988" d="M162 0zM1135 768q-11 -128 -46 -253t-104 -240q-32 -56 -74.5 -109.5t-93.5 -95t-111 -66.5t-127 -23q-65 -1 -119.5 22t-98.5 62t-77 89.5t-55 103.5q-47 109 -62.5 229t-4.5 243q11 114 48.5 225t106.5 209q33 49 76.5 90.5t94.5 71.5t107.5 46t114.5 14 q56 2 108 -12.5t97 -41.5t81 -66t60 -87q26 -45 43 -95t26.5 -102.5t11.5 -106t-2 -107.5zM841 858q3 38 2 83.5t-12.5 85.5t-37.5 67.5t-74 30.5q-55 -2 -95.5 -24t-70 -57t-49.5 -80t-33 -93t-20 -96t-11 -89q-5 -57 -6.5 -114.5t6.5 -112.5q4 -29 10.5 -58.5t18.5 -53.5 t30.5 -40t48.5 -19q45 1 80 23t62 56t46.5 74t33.5 76q31 84 48 169.5t23 171.5zM728 1492q-3 -14 -8.5 -27t-14.5 -24t-21 -18.5t-27 -8.5q-46 1 -77.5 24.5t-51.5 59t-32 77t-19 78.5q3 14 -0.5 26t0.5 26q2 19 10.5 36.5t22 31t31 20.5t37.5 6q24 -1 42.5 -13t32 -30 t24 -39.5t19.5 -40.5q18 -44 27.5 -89.5t4.5 -94.5z" />
<glyph unicode="&#xd3;" horiz-adv-x="988" d="M162 0zM1135 768q-11 -128 -46 -253t-104 -240q-32 -56 -74.5 -109.5t-93.5 -95t-111 -66.5t-127 -23q-65 -1 -119.5 22t-98.5 62t-77 89.5t-55 103.5q-47 109 -62.5 229t-4.5 243q11 114 48.5 225t106.5 209q33 49 76.5 90.5t94.5 71.5t107.5 46t114.5 14 q56 2 108 -12.5t97 -41.5t81 -66t60 -87q26 -45 43 -95t26.5 -102.5t11.5 -106t-2 -107.5zM841 858q3 38 2 83.5t-12.5 85.5t-37.5 67.5t-74 30.5q-55 -2 -95.5 -24t-70 -57t-49.5 -80t-33 -93t-20 -96t-11 -89q-5 -57 -6.5 -114.5t6.5 -112.5q4 -29 10.5 -58.5t18.5 -53.5 t30.5 -40t48.5 -19q45 1 80 23t62 56t46.5 74t33.5 76q31 84 48 169.5t23 171.5zM823 1724q0 -14 -5 -26.5t-7 -26.5q-13 -36 -31 -77.5t-44 -76.5t-61 -58t-81 -22q-28 2 -44.5 24.5t-15.5 48.5q2 14 2.5 25.5t3.5 24.5q9 42 28.5 81.5t42.5 77.5q12 16 25 34t29 32 t34 23.5t40 9.5q19 0 35 -7.5t27 -20.5t17 -30.5t5 -35.5z" />
<glyph unicode="&#xd4;" horiz-adv-x="988" d="M162 0zM1135 768q-11 -128 -46 -253t-104 -240q-32 -56 -74.5 -109.5t-93.5 -95t-111 -66.5t-127 -23q-65 -1 -119.5 22t-98.5 62t-77 89.5t-55 103.5q-47 109 -62.5 229t-4.5 243q11 114 48.5 225t106.5 209q33 49 76.5 90.5t94.5 71.5t107.5 46t114.5 14 q56 2 108 -12.5t97 -41.5t81 -66t60 -87q26 -45 43 -95t26.5 -102.5t11.5 -106t-2 -107.5zM841 858q3 38 2 83.5t-12.5 85.5t-37.5 67.5t-74 30.5q-55 -2 -95.5 -24t-70 -57t-49.5 -80t-33 -93t-20 -96t-11 -89q-5 -57 -6.5 -114.5t6.5 -112.5q4 -29 10.5 -58.5t18.5 -53.5 t30.5 -40t48.5 -19q45 1 80 23t62 56t46.5 74t33.5 76q31 84 48 169.5t23 171.5zM920 1524q-8 -35 -36 -58.5t-63 -23.5q-36 -1 -60 21t-36 51q-10 33 -23 65.5t-24 65.5q-21 -35 -42.5 -68t-43.5 -68q-10 -14 -22.5 -28t-27 -25t-31 -17t-35.5 -4q-23 1 -39 12t-26.5 27 t-15.5 36t-4 40q1 29 11 56t25.5 52t34.5 48.5t38 46.5q20 21 41.5 43t45 41t50 32t56.5 15q30 0 55 -11.5t46 -29t38.5 -39.5t32.5 -44q30 -45 48.5 -98.5t9.5 -111.5q0 -7 -1.5 -13t-1.5 -13z" />
<glyph unicode="&#xd5;" horiz-adv-x="988" d="M162 0zM1135 768q-11 -128 -46 -253t-104 -240q-32 -56 -74.5 -109.5t-93.5 -95t-111 -66.5t-127 -23q-65 -1 -119.5 22t-98.5 62t-77 89.5t-55 103.5q-47 109 -62.5 229t-4.5 243q11 114 48.5 225t106.5 209q33 49 76.5 90.5t94.5 71.5t107.5 46t114.5 14 q56 2 108 -12.5t97 -41.5t81 -66t60 -87q26 -45 43 -95t26.5 -102.5t11.5 -106t-2 -107.5zM841 858q3 38 2 83.5t-12.5 85.5t-37.5 67.5t-74 30.5q-55 -2 -95.5 -24t-70 -57t-49.5 -80t-33 -93t-20 -96t-11 -89q-5 -57 -6.5 -114.5t6.5 -112.5q4 -29 10.5 -58.5t18.5 -53.5 t30.5 -40t48.5 -19q45 1 80 23t62 56t46.5 74t33.5 76q31 84 48 169.5t23 171.5zM1130 1625q0 -19 -6.5 -37t-18 -34t-27.5 -28.5t-34 -19.5q-59 -27 -118.5 -51t-121.5 -26q-27 0 -52 10t-42 29q-13 14 -29.5 25.5t-37.5 13.5q-26 2 -49.5 -11t-44.5 -30q-13 -10 -25 -21.5 t-29 -15.5q-25 2 -45 14t-37 30q-16 20 -29 41t-10 48q0 24 9.5 46t25.5 40t35.5 32.5t40.5 24.5q41 23 85.5 37.5t89.5 14.5q26 2 49.5 -8t41.5 -27q13 -14 29.5 -24.5t36.5 -12.5q22 0 44.5 2.5t44.5 11.5q16 11 34.5 19.5t33.5 22.5q9 7 19 8t21 1q23 -3 43 -14.5t36 -28 t25.5 -38t11.5 -44.5z" />
<glyph unicode="&#xd6;" horiz-adv-x="988" d="M162 0zM1135 768q-11 -128 -46 -253t-104 -240q-32 -56 -74.5 -109.5t-93.5 -95t-111 -66.5t-127 -23q-65 -1 -119.5 22t-98.5 62t-77 89.5t-55 103.5q-47 109 -62.5 229t-4.5 243q11 114 48.5 225t106.5 209q33 49 76.5 90.5t94.5 71.5t107.5 46t114.5 14 q56 2 108 -12.5t97 -41.5t81 -66t60 -87q26 -45 43 -95t26.5 -102.5t11.5 -106t-2 -107.5zM841 858q3 38 2 83.5t-12.5 85.5t-37.5 67.5t-74 30.5q-55 -2 -95.5 -24t-70 -57t-49.5 -80t-33 -93t-20 -96t-11 -89q-5 -57 -6.5 -114.5t6.5 -112.5q4 -29 10.5 -58.5t18.5 -53.5 t30.5 -40t48.5 -19q45 1 80 23t62 56t46.5 74t33.5 76q31 84 48 169.5t23 171.5zM1015 1548q-3 -26 -15.5 -49t-32 -40t-44 -26.5t-50.5 -9.5t-49.5 11.5t-37.5 31.5q-15 23 -24 50.5t-5 57.5q3 31 16 58.5t32 51.5q18 21 41 37.5t50 12.5q33 0 58 -20t39 -47q17 -26 22 -57 t0 -62zM664 1553q0 -25 -10 -49t-27 -42t-40.5 -27.5t-50.5 -4.5q-30 3 -55.5 16t-42.5 35q-19 22 -28.5 50.5t-7.5 57.5q5 29 22.5 54.5t39.5 46.5q20 17 44.5 33t52.5 18q32 4 53.5 -15t31.5 -45q11 -31 16.5 -63t1.5 -65z" />
<glyph unicode="&#xd7;" horiz-adv-x="843" d="M790 850q-4 -18 -9 -37t-23 -30q-29 -23 -57 -48.5t-58 -48.5q20 -17 39 -32.5t38 -32.5q18 -15 27 -38t2 -47q-1 -23 -13 -42t-26 -38q-13 -18 -30.5 -31.5t-39.5 -18.5q-30 4 -53.5 18t-44 33.5t-38 42t-35.5 43.5q-19 -22 -36 -45.5t-37 -45.5q-18 -20 -43.5 -32.5 t-52.5 -9.5q-23 0 -42.5 8.5t-37.5 21.5q-18 12 -31 29t-13 40q5 29 20.5 54t36 47t44 42t44.5 39q-17 19 -36 39t-34 42t-24.5 46.5t-6.5 53.5q5 21 17 39.5t28.5 33t36.5 23.5t41 12q29 -2 52 -16t38 -37q17 -23 32 -48t33 -48q21 19 43 40.5t45.5 40t49.5 32.5t55 17 q43 -7 69 -38t30 -73z" />
<glyph unicode="&#xd8;" horiz-adv-x="1220" d="M1212 1348q-12 -54 -40 -102t-58 -96q40 -88 53 -185.5t5 -196.5q-10 -129 -46.5 -253.5t-104.5 -239.5q-32 -56 -74.5 -110t-94 -96t-111.5 -66.5t-128 -22.5q-66 -2 -124 23t-103 67q-13 -26 -28.5 -51t-26.5 -51q-6 -11 -14.5 -22t-18 -20t-21.5 -14.5t-26 -3.5 q-26 5 -49.5 18t-41.5 32.5t-28 44t-9 52.5q9 31 23.5 60.5t32 57.5t35.5 56t35 56q-40 106 -52.5 218t-3.5 227q11 114 47.5 227.5t107.5 211.5q33 51 77 93t95.5 71.5t108.5 45t115 12.5q51 0 101 -11.5t92 -36.5q15 19 28.5 40t28.5 41.5t32.5 37.5t40.5 28 q56 -14 95 -48q21 -18 35.5 -41.5t14.5 -52.5zM788 1120q-8 1 -16.5 3t-17.5 3q-55 -2 -96 -23.5t-70.5 -56.5t-49 -80t-32 -93.5t-19.5 -97t-11 -89.5q-3 -30 -3 -60q78 127 157 248.5t158 245.5zM867 787q-84 -120 -165.5 -239.5t-162.5 -240.5q9 -6 20.5 -11.5t24.5 -7.5 q40 0 72 18.5t56.5 47.5t43.5 64t34 67q31 73 48.5 148.5t28.5 153.5z" />
<glyph unicode="&#xd9;" horiz-adv-x="961" d="M186 0zM1092 1201q-2 -11 -6 -23t-9 -23q-11 -13 -17.5 -28.5t-15.5 -29.5q-6 -28 -9.5 -55t-1.5 -56q-5 -35 -5 -71t-2 -72q-3 -36 -3 -70t-4 -70q-9 -98 -27 -195t-55 -192q-26 -67 -62 -128.5t-82.5 -108t-102.5 -74t-120 -25.5q-48 -2 -93 10.5t-84 35.5t-71.5 56 t-55.5 72q-50 75 -68.5 165t-11.5 184q4 62 10 122.5t14 122.5q9 61 17.5 122t16.5 123q2 29 3 57.5t-3 57.5q2 28 0 56t2 56q5 31 23.5 57.5t44.5 46.5q27 18 56.5 31.5t61.5 18.5q47 -17 71.5 -53.5t34 -82t9 -95t-3.5 -92.5q-7 -71 -17 -141.5t-19 -141.5 q-9 -72 -17.5 -143.5t-15.5 -143.5q0 -29 -2 -64t2.5 -67.5t19.5 -57.5t49 -34q26 0 47 12t37.5 30.5t28 41.5t18.5 45q17 49 24 98.5t14 99.5q8 52 12.5 102t9.5 101q6 49 10 98.5t10 98.5q8 49 16.5 96t19.5 95q8 29 20.5 62t31.5 60.5t45.5 44t63.5 12.5q29 -4 52.5 -21 t40.5 -37q20 -20 34 -43t14 -53zM739 1510q-3 -14 -8.5 -27t-14.5 -24t-21 -18.5t-27 -8.5q-46 1 -77.5 24.5t-51.5 59t-32 77t-19 78.5q3 14 -0.5 26t0.5 26q2 19 10.5 36.5t22 31t31 20.5t37.5 6q24 -1 42.5 -13t32 -30t24 -39.5t19.5 -40.5q18 -44 27.5 -89.5t4.5 -94.5z " />
<glyph unicode="&#xda;" horiz-adv-x="961" d="M186 0zM1092 1201q-2 -11 -6 -23t-9 -23q-11 -13 -17.5 -28.5t-15.5 -29.5q-6 -28 -9.5 -55t-1.5 -56q-5 -35 -5 -71t-2 -72q-3 -36 -3 -70t-4 -70q-9 -98 -27 -195t-55 -192q-26 -67 -62 -128.5t-82.5 -108t-102.5 -74t-120 -25.5q-48 -2 -93 10.5t-84 35.5t-71.5 56 t-55.5 72q-50 75 -68.5 165t-11.5 184q4 62 10 122.5t14 122.5q9 61 17.5 122t16.5 123q2 29 3 57.5t-3 57.5q2 28 0 56t2 56q5 31 23.5 57.5t44.5 46.5q27 18 56.5 31.5t61.5 18.5q47 -17 71.5 -53.5t34 -82t9 -95t-3.5 -92.5q-7 -71 -17 -141.5t-19 -141.5 q-9 -72 -17.5 -143.5t-15.5 -143.5q0 -29 -2 -64t2.5 -67.5t19.5 -57.5t49 -34q26 0 47 12t37.5 30.5t28 41.5t18.5 45q17 49 24 98.5t14 99.5q8 52 12.5 102t9.5 101q6 49 10 98.5t10 98.5q8 49 16.5 96t19.5 95q8 29 20.5 62t31.5 60.5t45.5 44t63.5 12.5q29 -4 52.5 -21 t40.5 -37q20 -20 34 -43t14 -53zM823 1721q0 -14 -5 -26.5t-7 -26.5q-13 -36 -31 -77.5t-44 -76.5t-61 -58t-81 -22q-28 2 -44.5 24.5t-15.5 48.5q2 14 2.5 25.5t3.5 24.5q9 42 28.5 81.5t42.5 77.5q12 16 25 34t29 32t34 23.5t40 9.5q19 0 35 -7.5t27 -20.5t17 -30.5 t5 -35.5z" />
<glyph unicode="&#xdb;" horiz-adv-x="961" d="M186 0zM1092 1201q-2 -11 -6 -23t-9 -23q-11 -13 -17.5 -28.5t-15.5 -29.5q-6 -28 -9.5 -55t-1.5 -56q-5 -35 -5 -71t-2 -72q-3 -36 -3 -70t-4 -70q-9 -98 -27 -195t-55 -192q-26 -67 -62 -128.5t-82.5 -108t-102.5 -74t-120 -25.5q-48 -2 -93 10.5t-84 35.5t-71.5 56 t-55.5 72q-50 75 -68.5 165t-11.5 184q4 62 10 122.5t14 122.5q9 61 17.5 122t16.5 123q2 29 3 57.5t-3 57.5q2 28 0 56t2 56q5 31 23.5 57.5t44.5 46.5q27 18 56.5 31.5t61.5 18.5q47 -17 71.5 -53.5t34 -82t9 -95t-3.5 -92.5q-7 -71 -17 -141.5t-19 -141.5 q-9 -72 -17.5 -143.5t-15.5 -143.5q0 -29 -2 -64t2.5 -67.5t19.5 -57.5t49 -34q26 0 47 12t37.5 30.5t28 41.5t18.5 45q17 49 24 98.5t14 99.5q8 52 12.5 102t9.5 101q6 49 10 98.5t10 98.5q8 49 16.5 96t19.5 95q8 29 20.5 62t31.5 60.5t45.5 44t63.5 12.5q29 -4 52.5 -21 t40.5 -37q20 -20 34 -43t14 -53zM918 1522q-8 -35 -36 -58.5t-63 -23.5q-36 -1 -60 21t-36 51q-10 33 -23 65.5t-24 65.5q-21 -35 -42.5 -68t-43.5 -68q-10 -14 -22.5 -28t-27 -25t-31 -17t-35.5 -4q-23 1 -39 12t-26.5 27t-15.5 36t-4 40q1 29 11 56t25.5 52t34.5 48.5 t38 46.5q20 21 41.5 43t45 41t50 32t56.5 15q30 0 55 -11.5t46 -29t38.5 -39.5t32.5 -44q30 -45 48.5 -98.5t9.5 -111.5q0 -7 -1.5 -13t-1.5 -13z" />
<glyph unicode="&#xdc;" horiz-adv-x="961" d="M186 0zM1092 1201q-2 -11 -6 -23t-9 -23q-11 -13 -17.5 -28.5t-15.5 -29.5q-6 -28 -9.5 -55t-1.5 -56q-5 -35 -5 -71t-2 -72q-3 -36 -3 -70t-4 -70q-9 -98 -27 -195t-55 -192q-26 -67 -62 -128.5t-82.5 -108t-102.5 -74t-120 -25.5q-48 -2 -93 10.5t-84 35.5t-71.5 56 t-55.5 72q-50 75 -68.5 165t-11.5 184q4 62 10 122.5t14 122.5q9 61 17.5 122t16.5 123q2 29 3 57.5t-3 57.5q2 28 0 56t2 56q5 31 23.5 57.5t44.5 46.5q27 18 56.5 31.5t61.5 18.5q47 -17 71.5 -53.5t34 -82t9 -95t-3.5 -92.5q-7 -71 -17 -141.5t-19 -141.5 q-9 -72 -17.5 -143.5t-15.5 -143.5q0 -29 -2 -64t2.5 -67.5t19.5 -57.5t49 -34q26 0 47 12t37.5 30.5t28 41.5t18.5 45q17 49 24 98.5t14 99.5q8 52 12.5 102t9.5 101q6 49 10 98.5t10 98.5q8 49 16.5 96t19.5 95q8 29 20.5 62t31.5 60.5t45.5 44t63.5 12.5q29 -4 52.5 -21 t40.5 -37q20 -20 34 -43t14 -53zM985 1550q-3 -26 -15.5 -49t-32 -40t-44 -26.5t-50.5 -9.5t-49.5 11.5t-37.5 31.5q-15 23 -24 50.5t-5 57.5q3 31 16 58.5t32 51.5q18 21 41 37.5t50 12.5q33 0 58 -20t39 -47q17 -26 22 -57t0 -62zM634 1555q0 -25 -10 -49t-27 -42 t-40.5 -27.5t-50.5 -4.5q-30 3 -55.5 16t-42.5 35q-19 22 -28.5 50.5t-7.5 57.5q5 29 22.5 54.5t39.5 46.5q20 17 44.5 33t52.5 18q32 4 53.5 -15t31.5 -45q11 -31 16.5 -63t1.5 -65z" />
<glyph unicode="&#xdd;" horiz-adv-x="906" d="M200 0zM1082 1205q-3 -36 -14 -71t-26.5 -68t-35 -64.5t-38.5 -62.5q-47 -71 -93.5 -141.5t-87.5 -143.5q-44 -92 -85 -182.5t-76 -184.5q-18 -45 -35 -89.5t-36 -89.5q-11 -19 -22.5 -40t-26 -39t-32.5 -30.5t-42 -13.5q-38 -2 -69 13.5t-52 42t-30 61t-3 70.5 q4 52 19.5 102t37 99t47 96t51.5 94q-45 12 -79.5 38.5t-59.5 62.5t-42 78t-28 84q-22 84 -23.5 170.5t12.5 174.5q3 29 14 57.5t30.5 52t45.5 38.5t59 17q25 4 43.5 -5.5t31.5 -27t20.5 -40t10.5 -43.5q0 -62 1 -123.5t4 -123.5q2 -19 5 -42t11 -42.5t22.5 -33.5t38.5 -15 q17 4 29 14.5t21 24t17 28t18 27.5q15 31 29.5 62t30.5 62q20 38 37.5 77t35.5 78q20 34 38 70t49 62q18 13 40 20t44 2q29 -5 55 -19t45 -35.5t30.5 -49t12.5 -58.5zM772 1721q0 -14 -5 -26.5t-7 -26.5q-13 -36 -31 -77.5t-44 -76.5t-61 -58t-81 -22q-28 2 -44.5 24.5 t-15.5 48.5q2 14 2.5 25.5t3.5 24.5q9 42 28.5 81.5t42.5 77.5q12 16 25 34t29 32t34 23.5t40 9.5q19 0 35 -7.5t27 -20.5t17 -30.5t5 -35.5z" />
<glyph unicode="&#xde;" d="M1043 748q-3 -51 -20 -99.5t-44.5 -92.5t-64 -81.5t-79.5 -66.5q-88 -66 -187.5 -101.5t-202.5 -50.5l-2 -18t-3 -18q-2 -28 1 -55t3 -56q-3 -28 -7 -56.5t-22 -52.5q-17 -17 -35 -25t-35.5 -11t-34.5 -2t-32 4q-27 5 -46.5 21t-31.5 38.5t-17 48.5t-4 52q2 27 3.5 54 t3.5 54q4 28 6.5 57t3.5 57q3 26 1.5 51.5t0.5 51.5q4 185 20 367t45 368q4 33 13.5 70t27 70t44.5 57.5t67 33.5q22 0 43 -3.5t37 -17.5q17 -11 26 -27.5t6 -37.5q-5 -45 -9.5 -90.5t-7.5 -90.5q35 16 72.5 18t72.5 4q39 -1 76.5 -5.5t72.5 -16.5q64 -17 112.5 -57.5 t79.5 -95.5t43 -119.5t4 -129.5zM778 773q2 26 -6.5 48t-17.5 44q-19 43 -68 48q-37 0 -75 -3.5t-73 -18.5q-18 -9 -29.5 -23.5t-18.5 -31.5t-10.5 -35.5t-6.5 -35.5q-2 -16 -3.5 -31t-3.5 -29l-5 -56q-3 -48 0 -94q50 9 99 27t94 44q21 12 42 27.5t38 33.5t29 39.5t15 46.5 z" />
<glyph unicode="&#xdf;" horiz-adv-x="1200" d="M1162 440q-5 -86 -45 -162t-103 -135t-141.5 -99.5t-159.5 -55.5q-20 -5 -40.5 -10t-42.5 -4q-26 -2 -49.5 5.5t-41 23t-25.5 37.5t-2 49q-1 25 8.5 49t25.5 43.5t38 34t47 21.5q18 4 36 11.5t36 12.5q34 12 67.5 31t60.5 45.5t44.5 59t20.5 71.5q2 32 -7 61.5t-27 52.5 q-17 24 -41 42t-56 16q-20 -2 -39.5 -6t-37.5 -8q-18 -5 -37 -9t-38 -4q-23 -2 -40.5 8t-29.5 26.5t-17 37t-2 40.5q1 26 11 51.5t26.5 46.5t39 36.5t49.5 22.5q31 12 62.5 24.5t55.5 35.5q29 20 39.5 50t13.5 59q0 17 -3.5 33t-17.5 25q-15 8 -30.5 9.5t-32.5 1.5 q-37 0 -74.5 -2t-73.5 -14q-19 -7 -33 -20t-24.5 -29t-18 -34t-11.5 -36q-9 -44 -13.5 -87t-10.5 -87q-13 -115 -25 -227t-20 -227q-5 -78 -6.5 -154t5.5 -152q0 -24 0.5 -46.5t0.5 -47.5q-2 -24 -7.5 -48.5t-19.5 -46.5q-9 -23 -30.5 -36.5t-46.5 -11.5q-50 7 -84 40.5 t-54 77.5q-20 42 -28.5 88t-7.5 94q3 47 6.5 93.5t7.5 94.5q8 38 10.5 76t11.5 76q11 54 21.5 108.5t14.5 109.5q7 48 8.5 95t5.5 95t9 93.5t11 92.5q8 42 18.5 85t34.5 80q34 52 83.5 85t106 52t116 26t114.5 8q34 -1 69.5 -3.5t69.5 -9.5t66 -19.5t61 -32.5 q30 -18 52.5 -44t37 -56.5t20.5 -65.5t3 -71q0 -35 -9 -67.5t-24 -63.5t-34.5 -60.5t-40.5 -57.5q47 -31 79 -78t53 -98q17 -51 23.5 -105.5t1.5 -111.5z" />
<glyph unicode="&#xe0;" horiz-adv-x="906" d="M131 3zM1062 169q-4 -27 -15.5 -54t-29.5 -48.5t-42 -36.5t-53 -18q-35 -5 -68.5 1t-53.5 35q-19 24 -25.5 55.5t-8.5 63.5q0 36 -2.5 73t-4.5 72q-22 -1 -42.5 -0.5t-42.5 0.5t-43.5 2t-43.5 0q-36 0 -71 -2t-71 -8q-17 -48 -32 -94t-32 -94q-8 -18 -18.5 -39t-25 -38 t-32.5 -27.5t-42 -8.5q-35 3 -64 20t-47 45q-11 29 -16.5 62t-4.5 65q7 117 35 230.5t59 226.5q35 112 72.5 222t86.5 217q24 46 52.5 97t65.5 94t83 72.5t104 33.5q52 0 92.5 -22.5t69.5 -59t47.5 -82t28.5 -89.5q22 -89 33.5 -180t19.5 -184q6 -91 14.5 -179.5 t27.5 -176.5q10 -30 19.5 -59.5t16 -60.5t8.5 -62t-4 -64zM749 570q-2 66 -6.5 130.5t-8.5 130.5q-7 62 -16.5 123.5t-36.5 117.5q-41 -56 -68.5 -117.5t-47.5 -125.5t-34 -129.5t-26 -129.5q62 0 122 -1t122 1zM677 1510q-3 -14 -8.5 -27t-14.5 -24t-21 -18.5t-27 -8.5 q-46 1 -77.5 24.5t-51.5 59t-32 77t-19 78.5q3 14 -0.5 26t0.5 26q2 19 10.5 36.5t22 31t31 20.5t37.5 6q24 -1 42.5 -13t32 -30t24 -39.5t19.5 -40.5q18 -44 27.5 -89.5t4.5 -94.5z" />
<glyph unicode="&#xe1;" horiz-adv-x="906" d="M131 3zM1062 169q-4 -27 -15.5 -54t-29.5 -48.5t-42 -36.5t-53 -18q-35 -5 -68.5 1t-53.5 35q-19 24 -25.5 55.5t-8.5 63.5q0 36 -2.5 73t-4.5 72q-22 -1 -42.5 -0.5t-42.5 0.5t-43.5 2t-43.5 0q-36 0 -71 -2t-71 -8q-17 -48 -32 -94t-32 -94q-8 -18 -18.5 -39t-25 -38 t-32.5 -27.5t-42 -8.5q-35 3 -64 20t-47 45q-11 29 -16.5 62t-4.5 65q7 117 35 230.5t59 226.5q35 112 72.5 222t86.5 217q24 46 52.5 97t65.5 94t83 72.5t104 33.5q52 0 92.5 -22.5t69.5 -59t47.5 -82t28.5 -89.5q22 -89 33.5 -180t19.5 -184q6 -91 14.5 -179.5 t27.5 -176.5q10 -30 19.5 -59.5t16 -60.5t8.5 -62t-4 -64zM749 570q-2 66 -6.5 130.5t-8.5 130.5q-7 62 -16.5 123.5t-36.5 117.5q-41 -56 -68.5 -117.5t-47.5 -125.5t-34 -129.5t-26 -129.5q62 0 122 -1t122 1zM802 1727q0 -14 -5 -26.5t-7 -26.5q-13 -36 -31 -77.5 t-44 -76.5t-61 -58t-81 -22q-28 2 -44.5 24.5t-15.5 48.5q2 14 2.5 25.5t3.5 24.5q9 42 28.5 81.5t42.5 77.5q12 16 25 34t29 32t34 23.5t40 9.5q19 0 35 -7.5t27 -20.5t17 -30.5t5 -35.5z" />
<glyph unicode="&#xe2;" horiz-adv-x="906" d="M131 3zM1062 169q-4 -27 -15.5 -54t-29.5 -48.5t-42 -36.5t-53 -18q-35 -5 -68.5 1t-53.5 35q-19 24 -25.5 55.5t-8.5 63.5q0 36 -2.5 73t-4.5 72q-22 -1 -42.5 -0.5t-42.5 0.5t-43.5 2t-43.5 0q-36 0 -71 -2t-71 -8q-17 -48 -32 -94t-32 -94q-8 -18 -18.5 -39t-25 -38 t-32.5 -27.5t-42 -8.5q-35 3 -64 20t-47 45q-11 29 -16.5 62t-4.5 65q7 117 35 230.5t59 226.5q35 112 72.5 222t86.5 217q24 46 52.5 97t65.5 94t83 72.5t104 33.5q52 0 92.5 -22.5t69.5 -59t47.5 -82t28.5 -89.5q22 -89 33.5 -180t19.5 -184q6 -91 14.5 -179.5 t27.5 -176.5q10 -30 19.5 -59.5t16 -60.5t8.5 -62t-4 -64zM749 570q-2 66 -6.5 130.5t-8.5 130.5q-7 62 -16.5 123.5t-36.5 117.5q-41 -56 -68.5 -117.5t-47.5 -125.5t-34 -129.5t-26 -129.5q62 0 122 -1t122 1zM898 1517q-8 -35 -36 -58.5t-63 -23.5q-36 -1 -60 21t-36 51 q-10 33 -23 65.5t-24 65.5q-21 -35 -42.5 -68t-43.5 -68q-10 -14 -22.5 -28t-27 -25t-31 -17t-35.5 -4q-23 1 -39 12t-26.5 27t-15.5 36t-4 40q1 29 11 56t25.5 52t34.5 48.5t38 46.5q20 21 41.5 43t45 41t50 32t56.5 15q30 0 55 -11.5t46 -29t38.5 -39.5t32.5 -44 q30 -45 48.5 -98.5t9.5 -111.5q0 -7 -1.5 -13t-1.5 -13z" />
<glyph unicode="&#xe3;" horiz-adv-x="906" d="M131 3zM1062 169q-4 -27 -15.5 -54t-29.5 -48.5t-42 -36.5t-53 -18q-35 -5 -68.5 1t-53.5 35q-19 24 -25.5 55.5t-8.5 63.5q0 36 -2.5 73t-4.5 72q-22 -1 -42.5 -0.5t-42.5 0.5t-43.5 2t-43.5 0q-36 0 -71 -2t-71 -8q-17 -48 -32 -94t-32 -94q-8 -18 -18.5 -39t-25 -38 t-32.5 -27.5t-42 -8.5q-35 3 -64 20t-47 45q-11 29 -16.5 62t-4.5 65q7 117 35 230.5t59 226.5q35 112 72.5 222t86.5 217q24 46 52.5 97t65.5 94t83 72.5t104 33.5q52 0 92.5 -22.5t69.5 -59t47.5 -82t28.5 -89.5q22 -89 33.5 -180t19.5 -184q6 -91 14.5 -179.5 t27.5 -176.5q10 -30 19.5 -59.5t16 -60.5t8.5 -62t-4 -64zM749 570q-2 66 -6.5 130.5t-8.5 130.5q-7 62 -16.5 123.5t-36.5 117.5q-41 -56 -68.5 -117.5t-47.5 -125.5t-34 -129.5t-26 -129.5q62 0 122 -1t122 1zM1057 1619q0 -19 -6.5 -37t-18 -34t-27.5 -28.5t-34 -19.5 q-59 -27 -118.5 -51t-121.5 -26q-27 0 -52 10t-42 29q-13 14 -29.5 25.5t-37.5 13.5q-26 2 -49.5 -11t-44.5 -30q-13 -10 -25 -21.5t-29 -15.5q-25 2 -45 14t-37 30q-16 20 -29 41t-10 48q0 24 9.5 46t25.5 40t35.5 32.5t40.5 24.5q41 23 85.5 37.5t89.5 14.5q26 2 49.5 -8 t41.5 -27q13 -14 29.5 -24.5t36.5 -12.5q22 0 44.5 2.5t44.5 11.5q16 11 34.5 19.5t33.5 22.5q9 7 19 8t21 1q23 -3 43 -14.5t36 -28t25.5 -38t11.5 -44.5z" />
<glyph unicode="&#xe4;" horiz-adv-x="906" d="M131 3zM1062 169q-4 -27 -15.5 -54t-29.5 -48.5t-42 -36.5t-53 -18q-35 -5 -68.5 1t-53.5 35q-19 24 -25.5 55.5t-8.5 63.5q0 36 -2.5 73t-4.5 72q-22 -1 -42.5 -0.5t-42.5 0.5t-43.5 2t-43.5 0q-36 0 -71 -2t-71 -8q-17 -48 -32 -94t-32 -94q-8 -18 -18.5 -39t-25 -38 t-32.5 -27.5t-42 -8.5q-35 3 -64 20t-47 45q-11 29 -16.5 62t-4.5 65q7 117 35 230.5t59 226.5q35 112 72.5 222t86.5 217q24 46 52.5 97t65.5 94t83 72.5t104 33.5q52 0 92.5 -22.5t69.5 -59t47.5 -82t28.5 -89.5q22 -89 33.5 -180t19.5 -184q6 -91 14.5 -179.5 t27.5 -176.5q10 -30 19.5 -59.5t16 -60.5t8.5 -62t-4 -64zM749 570q-2 66 -6.5 130.5t-8.5 130.5q-7 62 -16.5 123.5t-36.5 117.5q-41 -56 -68.5 -117.5t-47.5 -125.5t-34 -129.5t-26 -129.5q62 0 122 -1t122 1zM945 1551q-3 -26 -15.5 -49t-32 -40t-44 -26.5t-50.5 -9.5 t-49.5 11.5t-37.5 31.5q-15 23 -24 50.5t-5 57.5q3 31 16 58.5t32 51.5q18 21 41 37.5t50 12.5q33 0 58 -20t39 -47q17 -26 22 -57t0 -62zM594 1556q0 -25 -10 -49t-27 -42t-40.5 -27.5t-50.5 -4.5q-30 3 -55.5 16t-42.5 35q-19 22 -28.5 50.5t-7.5 57.5q5 29 22.5 54.5 t39.5 46.5q20 17 44.5 33t52.5 18q32 4 53.5 -15t31.5 -45q11 -31 16.5 -63t1.5 -65z" />
<glyph unicode="&#xe5;" horiz-adv-x="906" d="M131 3zM1062 169q-4 -27 -15.5 -54t-29.5 -48.5t-42 -36.5t-53 -18q-35 -5 -68.5 1t-53.5 35q-19 24 -25.5 55.5t-8.5 63.5q0 36 -2.5 73t-4.5 72q-22 -1 -42.5 -0.5t-42.5 0.5t-43.5 2t-43.5 0q-36 0 -71 -2t-71 -8q-17 -48 -32 -94t-32 -94q-8 -18 -18.5 -39t-25 -38 t-32.5 -27.5t-42 -8.5q-35 3 -64 20t-47 45q-11 29 -16.5 62t-4.5 65q7 117 35 230.5t59 226.5q35 112 72.5 222t86.5 217q24 46 52.5 97t65.5 94t83 72.5t104 33.5q52 0 92.5 -22.5t69.5 -59t47.5 -82t28.5 -89.5q22 -89 33.5 -180t19.5 -184q6 -91 14.5 -179.5 t27.5 -176.5q10 -30 19.5 -59.5t16 -60.5t8.5 -62t-4 -64zM749 570q-2 66 -6.5 130.5t-8.5 130.5q-7 62 -16.5 123.5t-36.5 117.5q-41 -56 -68.5 -117.5t-47.5 -125.5t-34 -129.5t-26 -129.5q62 0 122 -1t122 1zM899 1708q-5 -54 -34.5 -102.5t-73.5 -83.5q-45 -36 -97 -59 t-107 -21q-52 0 -95 23t-74 60q-32 36 -48 83.5t-14 97.5q4 56 31.5 106.5t69.5 88.5q42 40 95 62.5t108 21.5q53 -2 97 -25.5t75 -63.5q35 -38 53.5 -86t13.5 -102zM735 1718q3 25 -8.5 46t-28.5 36q-18 16 -39.5 26t-47.5 10q-21 -1 -39 -11.5t-31 -26.5t-21 -36t-10 -39 q-4 -22 0 -44t15 -40t29 -28.5t43 -8.5q25 -3 50.5 5t45.5 23.5t31.5 38t10.5 49.5z" />
<glyph unicode="&#xe6;" horiz-adv-x="1826" d="M1734 364q-5 -29 -17.5 -53t-32.5 -46q-36 -33 -76.5 -58.5t-83.5 -46.5t-88 -39.5t-88 -36.5q-44 -16 -87.5 -33t-88 -32t-89.5 -25.5t-90 -13.5q-26 0 -53.5 2.5t-53 9t-48 19.5t-38.5 35q-23 48 -25 101t3 107q2 14 1 29t-6 28q-18 0 -36 2.5t-37 0.5q-42 3 -84 3 q-36 0 -72.5 -1t-72.5 -7q-20 -47 -40.5 -92.5t-39.5 -91.5q-10 -18 -21 -38t-25.5 -37t-32.5 -28t-42 -10t-47 10t-40.5 24t-28 35.5t-9.5 46.5q-2 66 11 131.5t33 129.5q25 69 52 133.5t56 131.5q51 113 104.5 224t119.5 218q31 46 67 95t78.5 90t92.5 70t110 35 q33 0 64.5 -8t56.5 -30q63 12 124 16t123 6q83 -1 164.5 0.5t163.5 -6.5q31 -1 59.5 -13t49.5 -33t33 -49t10 -61q2 -20 -2 -40t-17 -38q-9 -18 -26.5 -30t-38.5 -9q-112 6 -221.5 9.5t-221.5 5.5q-14 -32 -21.5 -65t-11.5 -66v-16q103 3 212 9q51 4 103 5.5t105 1.5 q33 2 64 -9t54.5 -32t35 -50.5t5.5 -64.5q-1 -31 -18 -52t-41.5 -34.5t-53.5 -21t-53 -10.5q-77 -9 -152.5 -15t-151.5 -17q-36 -6 -68.5 -24.5t-58 -45t-41 -60t-16.5 -70.5q-4 -44 1 -85.5t16 -83.5q35 4 69 15t67 25.5t65.5 31t64.5 32.5q65 36 134.5 63.5t142.5 32.5 q28 4 49 -7.5t33.5 -32t15 -46t-5.5 -50.5zM802 570l21 220q4 71 6.5 142t-15.5 138q-48 -53 -85 -113t-67 -124t-54.5 -130t-46.5 -131q61 -2 121 -2h120z" />
<glyph unicode="&#xe8;" horiz-adv-x="1092" d="M171 0zM1145 398q-27 -50 -69 -86t-90 -65.5t-99.5 -55.5t-98.5 -54q-51 -24 -102.5 -49t-104 -45.5t-106.5 -33.5t-110 -14q-35 4 -67 16.5t-52 41.5q-23 27 -33.5 61.5t-19.5 68.5q-17 69 -21 140t-1 143q9 126 32.5 249.5t50.5 248.5q14 62 30 123t33 123 q22 36 54 59.5t69.5 39t77.5 26t76 20.5q86 18 171.5 24.5t171.5 -0.5q26 -2 50 -13t42 -29t28.5 -42.5t9.5 -52.5q0 -19 -7 -36t-19.5 -30.5t-29 -22t-35.5 -11.5q-42 -4 -83.5 -4.5t-83.5 0.5q-40 0 -79.5 -5t-77.5 -19q-38 -15 -71 -40t-43 -65q-5 -18 -8.5 -35t-5.5 -35 v-11q54 5 107.5 16.5t107.5 23.5q53 10 106 17.5t107 6.5q28 1 54 -8t44.5 -26.5t28 -42t3.5 -53.5q0 -26 -11.5 -47.5t-30 -38t-41.5 -27.5t-47 -15q-53 -7 -105 -12.5t-105 -9.5q-50 -7 -100.5 -16t-97.5 -37q-22 -15 -38.5 -35t-27.5 -43.5t-17 -48.5t-7 -49 q-2 -48 -0.5 -94.5t12.5 -91.5q68 22 130.5 54t125.5 64q64 33 132 58.5t138 29.5q24 1 47.5 -3.5t43.5 -16t36 -28.5t24 -39l4 -13zM771 1500q-3 -14 -8.5 -27t-14.5 -24t-21 -18.5t-27 -8.5q-46 1 -77.5 24.5t-51.5 59t-32 77t-19 78.5q3 14 -0.5 26t0.5 26 q2 19 10.5 36.5t22 31t31 20.5t37.5 6q24 -1 42.5 -13t32 -30t24 -39.5t19.5 -40.5q18 -44 27.5 -89.5t4.5 -94.5z" />
<glyph unicode="&#xe9;" horiz-adv-x="1092" d="M171 0zM1145 398q-27 -50 -69 -86t-90 -65.5t-99.5 -55.5t-98.5 -54q-51 -24 -102.5 -49t-104 -45.5t-106.5 -33.5t-110 -14q-35 4 -67 16.5t-52 41.5q-23 27 -33.5 61.5t-19.5 68.5q-17 69 -21 140t-1 143q9 126 32.5 249.5t50.5 248.5q14 62 30 123t33 123 q22 36 54 59.5t69.5 39t77.5 26t76 20.5q86 18 171.5 24.5t171.5 -0.5q26 -2 50 -13t42 -29t28.5 -42.5t9.5 -52.5q0 -19 -7 -36t-19.5 -30.5t-29 -22t-35.5 -11.5q-42 -4 -83.5 -4.5t-83.5 0.5q-40 0 -79.5 -5t-77.5 -19q-38 -15 -71 -40t-43 -65q-5 -18 -8.5 -35t-5.5 -35 v-11q54 5 107.5 16.5t107.5 23.5q53 10 106 17.5t107 6.5q28 1 54 -8t44.5 -26.5t28 -42t3.5 -53.5q0 -26 -11.5 -47.5t-30 -38t-41.5 -27.5t-47 -15q-53 -7 -105 -12.5t-105 -9.5q-50 -7 -100.5 -16t-97.5 -37q-22 -15 -38.5 -35t-27.5 -43.5t-17 -48.5t-7 -49 q-2 -48 -0.5 -94.5t12.5 -91.5q68 22 130.5 54t125.5 64q64 33 132 58.5t138 29.5q24 1 47.5 -3.5t43.5 -16t36 -28.5t24 -39l4 -13zM857 1731q0 -14 -5 -26.5t-7 -26.5q-13 -36 -31 -77.5t-44 -76.5t-61 -58t-81 -22q-28 2 -44.5 24.5t-15.5 48.5q2 14 2.5 25.5t3.5 24.5 q9 42 28.5 81.5t42.5 77.5q12 16 25 34t29 32t34 23.5t40 9.5q19 0 35 -7.5t27 -20.5t17 -30.5t5 -35.5z" />
<glyph unicode="&#xea;" horiz-adv-x="1092" d="M171 0zM1145 398q-27 -50 -69 -86t-90 -65.5t-99.5 -55.5t-98.5 -54q-51 -24 -102.5 -49t-104 -45.5t-106.5 -33.5t-110 -14q-35 4 -67 16.5t-52 41.5q-23 27 -33.5 61.5t-19.5 68.5q-17 69 -21 140t-1 143q9 126 32.5 249.5t50.5 248.5q14 62 30 123t33 123 q22 36 54 59.5t69.5 39t77.5 26t76 20.5q86 18 171.5 24.5t171.5 -0.5q26 -2 50 -13t42 -29t28.5 -42.5t9.5 -52.5q0 -19 -7 -36t-19.5 -30.5t-29 -22t-35.5 -11.5q-42 -4 -83.5 -4.5t-83.5 0.5q-40 0 -79.5 -5t-77.5 -19q-38 -15 -71 -40t-43 -65q-5 -18 -8.5 -35t-5.5 -35 v-11q54 5 107.5 16.5t107.5 23.5q53 10 106 17.5t107 6.5q28 1 54 -8t44.5 -26.5t28 -42t3.5 -53.5q0 -26 -11.5 -47.5t-30 -38t-41.5 -27.5t-47 -15q-53 -7 -105 -12.5t-105 -9.5q-50 -7 -100.5 -16t-97.5 -37q-22 -15 -38.5 -35t-27.5 -43.5t-17 -48.5t-7 -49 q-2 -48 -0.5 -94.5t12.5 -91.5q68 22 130.5 54t125.5 64q64 33 132 58.5t138 29.5q24 1 47.5 -3.5t43.5 -16t36 -28.5t24 -39l4 -13zM958 1517q-8 -35 -36 -58.5t-63 -23.5q-36 -1 -60 21t-36 51q-10 33 -23 65.5t-24 65.5q-21 -35 -42.5 -68t-43.5 -68q-10 -14 -22.5 -28 t-27 -25t-31 -17t-35.5 -4q-23 1 -39 12t-26.5 27t-15.5 36t-4 40q1 29 11 56t25.5 52t34.5 48.5t38 46.5q20 21 41.5 43t45 41t50 32t56.5 15q30 0 55 -11.5t46 -29t38.5 -39.5t32.5 -44q30 -45 48.5 -98.5t9.5 -111.5q0 -7 -1.5 -13t-1.5 -13z" />
<glyph unicode="&#xeb;" horiz-adv-x="1092" d="M171 0zM1145 398q-27 -50 -69 -86t-90 -65.5t-99.5 -55.5t-98.5 -54q-51 -24 -102.5 -49t-104 -45.5t-106.5 -33.5t-110 -14q-35 4 -67 16.5t-52 41.5q-23 27 -33.5 61.5t-19.5 68.5q-17 69 -21 140t-1 143q9 126 32.5 249.5t50.5 248.5q14 62 30 123t33 123 q22 36 54 59.5t69.5 39t77.5 26t76 20.5q86 18 171.5 24.5t171.5 -0.5q26 -2 50 -13t42 -29t28.5 -42.5t9.5 -52.5q0 -19 -7 -36t-19.5 -30.5t-29 -22t-35.5 -11.5q-42 -4 -83.5 -4.5t-83.5 0.5q-40 0 -79.5 -5t-77.5 -19q-38 -15 -71 -40t-43 -65q-5 -18 -8.5 -35t-5.5 -35 v-11q54 5 107.5 16.5t107.5 23.5q53 10 106 17.5t107 6.5q28 1 54 -8t44.5 -26.5t28 -42t3.5 -53.5q0 -26 -11.5 -47.5t-30 -38t-41.5 -27.5t-47 -15q-53 -7 -105 -12.5t-105 -9.5q-50 -7 -100.5 -16t-97.5 -37q-22 -15 -38.5 -35t-27.5 -43.5t-17 -48.5t-7 -49 q-2 -48 -0.5 -94.5t12.5 -91.5q68 22 130.5 54t125.5 64q64 33 132 58.5t138 29.5q24 1 47.5 -3.5t43.5 -16t36 -28.5t24 -39l4 -13zM1020 1548q-3 -26 -15.5 -49t-32 -40t-44 -26.5t-50.5 -9.5t-49.5 11.5t-37.5 31.5q-15 23 -24 50.5t-5 57.5q3 31 16 58.5t32 51.5 q18 21 41 37.5t50 12.5q33 0 58 -20t39 -47q17 -26 22 -57t0 -62zM669 1553q0 -25 -10 -49t-27 -42t-40.5 -27.5t-50.5 -4.5q-30 3 -55.5 16t-42.5 35q-19 22 -28.5 50.5t-7.5 57.5q5 29 22.5 54.5t39.5 46.5q20 17 44.5 33t52.5 18q32 4 53.5 -15t31.5 -45q11 -31 16.5 -63 t1.5 -65z" />
<glyph unicode="&#xec;" horiz-adv-x="399" d="M162 0zM445 241q-2 -40 -13.5 -78t-28.5 -76q-7 -18 -18 -36.5t-25.5 -33.5t-32.5 -25t-39 -12q-16 -1 -29 4t-24.5 14t-20.5 21t-16 24q-11 27 -16.5 56t-9.5 58q-6 57 -6.5 114t3.5 115q6 97 14.5 192t17.5 192q11 97 21.5 191t21.5 191q7 33 13.5 66.5t22.5 64.5 q6 16 14.5 32.5t19.5 30.5t25.5 24.5t32.5 15.5q42 6 75.5 -18.5t49.5 -60.5q13 -35 17 -73.5t0 -76.5q-4 -55 -9 -110t-13 -110q-7 -57 -14 -113.5t-12 -113.5q-5 -62 -5.5 -122t-3.5 -120q-2 -57 -3 -113.5t-9 -113.5zM414 1500q-3 -14 -8.5 -27t-14.5 -24t-21 -18.5 t-27 -8.5q-46 1 -77.5 24.5t-51.5 59t-32 77t-19 78.5q3 14 -0.5 26t0.5 26q2 19 10.5 36.5t22 31t31 20.5t37.5 6q24 -1 42.5 -13t32 -30t24 -39.5t19.5 -40.5q18 -44 27.5 -89.5t4.5 -94.5z" />
<glyph unicode="&#xed;" horiz-adv-x="399" d="M165 0zM445 241q-2 -40 -13.5 -78t-28.5 -76q-7 -18 -18 -36.5t-25.5 -33.5t-32.5 -25t-39 -12q-16 -1 -29 4t-24.5 14t-20.5 21t-16 24q-11 27 -16.5 56t-9.5 58q-6 57 -6.5 114t3.5 115q6 97 14.5 192t17.5 192q11 97 21.5 191t21.5 191q7 33 13.5 66.5t22.5 64.5 q6 16 14.5 32.5t19.5 30.5t25.5 24.5t32.5 15.5q42 6 75.5 -18.5t49.5 -60.5q13 -35 17 -73.5t0 -76.5q-4 -55 -9 -110t-13 -110q-7 -57 -14 -113.5t-12 -113.5q-5 -62 -5.5 -122t-3.5 -120q-2 -57 -3 -113.5t-9 -113.5zM507 1712q0 -14 -5 -26.5t-7 -26.5 q-13 -36 -31 -77.5t-44 -76.5t-61 -58t-81 -22q-28 2 -44.5 24.5t-15.5 48.5q2 14 2.5 25.5t3.5 24.5q9 42 28.5 81.5t42.5 77.5q12 16 25 34t29 32t34 23.5t40 9.5q19 0 35 -7.5t27 -20.5t17 -30.5t5 -35.5z" />
<glyph unicode="&#xee;" horiz-adv-x="399" d="M88 0zM445 241q-2 -40 -13.5 -78t-28.5 -76q-7 -18 -18 -36.5t-25.5 -33.5t-32.5 -25t-39 -12q-16 -1 -29 4t-24.5 14t-20.5 21t-16 24q-11 27 -16.5 56t-9.5 58q-6 57 -6.5 114t3.5 115q6 97 14.5 192t17.5 192q11 97 21.5 191t21.5 191q7 33 13.5 66.5t22.5 64.5 q6 16 14.5 32.5t19.5 30.5t25.5 24.5t32.5 15.5q42 6 75.5 -18.5t49.5 -60.5q13 -35 17 -73.5t0 -76.5q-4 -55 -9 -110t-13 -110q-7 -57 -14 -113.5t-12 -113.5q-5 -62 -5.5 -122t-3.5 -120q-2 -57 -3 -113.5t-9 -113.5zM617 1517q-8 -35 -36 -58.5t-63 -23.5q-36 -1 -60 21 t-36 51q-10 33 -23 65.5t-24 65.5q-21 -35 -42.5 -68t-43.5 -68q-10 -14 -22.5 -28t-27 -25t-31 -17t-35.5 -4q-23 1 -39 12t-26.5 27t-15.5 36t-4 40q1 29 11 56t25.5 52t34.5 48.5t38 46.5q20 21 41.5 43t45 41t50 32t56.5 15q30 0 55 -11.5t46 -29t38.5 -39.5t32.5 -44 q30 -45 48.5 -98.5t9.5 -111.5q0 -7 -1.5 -13t-1.5 -13z" />
<glyph unicode="&#xef;" horiz-adv-x="399" d="M88 0zM445 241q-2 -40 -13.5 -78t-28.5 -76q-7 -18 -18 -36.5t-25.5 -33.5t-32.5 -25t-39 -12q-16 -1 -29 4t-24.5 14t-20.5 21t-16 24q-11 27 -16.5 56t-9.5 58q-6 57 -6.5 114t3.5 115q6 97 14.5 192t17.5 192q11 97 21.5 191t21.5 191q7 33 13.5 66.5t22.5 64.5 q6 16 14.5 32.5t19.5 30.5t25.5 24.5t32.5 15.5q42 6 75.5 -18.5t49.5 -60.5q13 -35 17 -73.5t0 -76.5q-4 -55 -9 -110t-13 -110q-7 -57 -14 -113.5t-12 -113.5q-5 -62 -5.5 -122t-3.5 -120q-2 -57 -3 -113.5t-9 -113.5zM701 1553q-3 -26 -15.5 -49t-32 -40t-44 -26.5 t-50.5 -9.5t-49.5 11.5t-37.5 31.5q-15 23 -24 50.5t-5 57.5q3 31 16 58.5t32 51.5q18 21 41 37.5t50 12.5q33 0 58 -20t39 -47q17 -26 22 -57t0 -62zM350 1558q0 -25 -10 -49t-27 -42t-40.5 -27.5t-50.5 -4.5q-30 3 -55.5 16t-42.5 35q-19 22 -28.5 50.5t-7.5 57.5 q5 29 22.5 54.5t39.5 46.5q20 17 44.5 33t52.5 18q32 4 53.5 -15t31.5 -45q11 -31 16.5 -63t1.5 -65z" />
<glyph unicode="&#xf1;" horiz-adv-x="1000" d="M166 0zM1029 189q-4 -30 -14 -61t-28 -57.5t-43.5 -45.5t-59.5 -25q-49 4 -83.5 30.5t-61.5 63t-49 78.5t-45 77q-46 97 -89 193.5t-83 195.5q-4 -75 -7 -147.5t-7 -147.5q-5 -49 -11.5 -97.5t-19.5 -97.5q-8 -29 -19 -57t-26 -49t-35.5 -33t-45.5 -7q-27 4 -51 18.5 t-42 35t-29.5 46.5t-13.5 53q4 40 8 79.5t12 79.5q9 40 16 79.5t10 80.5q2 71 5 142t3 142q4 69 8 139t14 139q5 45 18.5 89t27.5 88q10 19 18.5 40.5t19 41.5t25 35.5t36.5 22.5q22 4 41 -1.5t35 -17.5t28 -28t21 -33q23 -37 37 -78l28 -82q23 -66 44.5 -132.5t45.5 -132.5 q53 -132 123 -256q0 47 -1 91.5t-1 91.5q-1 85 -1 169q0 85 7 170q4 34 9 78t18 83.5t39.5 67t74.5 29.5q23 -2 39.5 -13t28.5 -27t20 -35t16 -37q13 -39 20.5 -79.5t5.5 -83.5q-2 -24 -4 -47t-6 -46l-9 -99q-4 -109 -4.5 -216.5t-2.5 -215.5q3 -71 0.5 -142t-10.5 -142z M1063 1616q0 -19 -6.5 -37t-18 -34t-27.5 -28.5t-34 -19.5q-59 -27 -118.5 -51t-121.5 -26q-27 0 -52 10t-42 29q-13 14 -29.5 25.5t-37.5 13.5q-26 2 -49.5 -11t-44.5 -30q-13 -10 -25 -21.5t-29 -15.5q-25 2 -45 14t-37 30q-16 20 -29 41t-10 48q0 24 9.5 46t25.5 40 t35.5 32.5t40.5 24.5q41 23 85.5 37.5t89.5 14.5q26 2 49.5 -8t41.5 -27q13 -14 29.5 -24.5t36.5 -12.5q22 0 44.5 2.5t44.5 11.5q16 11 34.5 19.5t33.5 22.5q9 7 19 8t21 1q23 -3 43 -14.5t36 -28t25.5 -38t11.5 -44.5z" />
<glyph unicode="&#xf2;" horiz-adv-x="1021" d="M160 0zM1166 689q-8 -123 -53.5 -240.5t-120.5 -221.5q-37 -51 -83.5 -96.5t-100 -79.5t-113 -53.5t-123.5 -16.5q-60 0 -111 22t-92.5 58t-73.5 82t-56 94q-47 100 -68.5 211t-10.5 226q11 124 55 242.5t121 221.5q35 52 81 98t99.5 80t113.5 53t123 17q60 0 111 -21.5 t93 -57.5t74.5 -82t55.5 -95q49 -100 69 -212.5t10 -228.5zM877 749q4 58 6 115t-9 114q-6 27 -20 51.5t-34.5 42.5t-46 28t-54.5 8q-36 1 -69 -11.5t-61 -34t-50 -49.5t-37 -59q-31 -64 -48 -133t-24 -138q-6 -67 -6 -133t13 -130q5 -31 18 -60.5t33.5 -52.5t48 -36.5 t62.5 -11.5q33 -2 64 9.5t57 32t46.5 47.5t33.5 56q20 46 33 90t21.5 87t13.5 84.5t9 83.5zM786 1510q-3 -14 -8.5 -27t-14.5 -24t-21 -18.5t-27 -8.5q-46 1 -77.5 24.5t-51.5 59t-32 77t-19 78.5q3 14 -0.5 26t0.5 26q2 19 10.5 36.5t22 31t31 20.5t37.5 6q24 -1 42.5 -13 t32 -30t24 -39.5t19.5 -40.5q18 -44 27.5 -89.5t4.5 -94.5z" />
<glyph unicode="&#xf3;" horiz-adv-x="1021" d="M160 0zM1166 689q-8 -123 -53.5 -240.5t-120.5 -221.5q-37 -51 -83.5 -96.5t-100 -79.5t-113 -53.5t-123.5 -16.5q-60 0 -111 22t-92.5 58t-73.5 82t-56 94q-47 100 -68.5 211t-10.5 226q11 124 55 242.5t121 221.5q35 52 81 98t99.5 80t113.5 53t123 17q60 0 111 -21.5 t93 -57.5t74.5 -82t55.5 -95q49 -100 69 -212.5t10 -228.5zM877 749q4 58 6 115t-9 114q-6 27 -20 51.5t-34.5 42.5t-46 28t-54.5 8q-36 1 -69 -11.5t-61 -34t-50 -49.5t-37 -59q-31 -64 -48 -133t-24 -138q-6 -67 -6 -133t13 -130q5 -31 18 -60.5t33.5 -52.5t48 -36.5 t62.5 -11.5q33 -2 64 9.5t57 32t46.5 47.5t33.5 56q20 46 33 90t21.5 87t13.5 84.5t9 83.5zM871 1731q0 -14 -5 -26.5t-7 -26.5q-13 -36 -31 -77.5t-44 -76.5t-61 -58t-81 -22q-28 2 -44.5 24.5t-15.5 48.5q2 14 2.5 25.5t3.5 24.5q9 42 28.5 81.5t42.5 77.5q12 16 25 34 t29 32t34 23.5t40 9.5q19 0 35 -7.5t27 -20.5t17 -30.5t5 -35.5z" />
<glyph unicode="&#xf4;" horiz-adv-x="1021" d="M160 0zM1166 689q-8 -123 -53.5 -240.5t-120.5 -221.5q-37 -51 -83.5 -96.5t-100 -79.5t-113 -53.5t-123.5 -16.5q-60 0 -111 22t-92.5 58t-73.5 82t-56 94q-47 100 -68.5 211t-10.5 226q11 124 55 242.5t121 221.5q35 52 81 98t99.5 80t113.5 53t123 17q60 0 111 -21.5 t93 -57.5t74.5 -82t55.5 -95q49 -100 69 -212.5t10 -228.5zM877 749q4 58 6 115t-9 114q-6 27 -20 51.5t-34.5 42.5t-46 28t-54.5 8q-36 1 -69 -11.5t-61 -34t-50 -49.5t-37 -59q-31 -64 -48 -133t-24 -138q-6 -67 -6 -133t13 -130q5 -31 18 -60.5t33.5 -52.5t48 -36.5 t62.5 -11.5q33 -2 64 9.5t57 32t46.5 47.5t33.5 56q20 46 33 90t21.5 87t13.5 84.5t9 83.5zM940 1524q-8 -35 -36 -58.5t-63 -23.5q-36 -1 -60 21t-36 51q-10 33 -23 65.5t-24 65.5q-21 -35 -42.5 -68t-43.5 -68q-10 -14 -22.5 -28t-27 -25t-31 -17t-35.5 -4q-23 1 -39 12 t-26.5 27t-15.5 36t-4 40q1 29 11 56t25.5 52t34.5 48.5t38 46.5q20 21 41.5 43t45 41t50 32t56.5 15q30 0 55 -11.5t46 -29t38.5 -39.5t32.5 -44q30 -45 48.5 -98.5t9.5 -111.5q0 -7 -1.5 -13t-1.5 -13z" />
<glyph unicode="&#xf5;" horiz-adv-x="1021" d="M160 0zM1166 689q-8 -123 -53.5 -240.5t-120.5 -221.5q-37 -51 -83.5 -96.5t-100 -79.5t-113 -53.5t-123.5 -16.5q-60 0 -111 22t-92.5 58t-73.5 82t-56 94q-47 100 -68.5 211t-10.5 226q11 124 55 242.5t121 221.5q35 52 81 98t99.5 80t113.5 53t123 17q60 0 111 -21.5 t93 -57.5t74.5 -82t55.5 -95q49 -100 69 -212.5t10 -228.5zM877 749q4 58 6 115t-9 114q-6 27 -20 51.5t-34.5 42.5t-46 28t-54.5 8q-36 1 -69 -11.5t-61 -34t-50 -49.5t-37 -59q-31 -64 -48 -133t-24 -138q-6 -67 -6 -133t13 -130q5 -31 18 -60.5t33.5 -52.5t48 -36.5 t62.5 -11.5q33 -2 64 9.5t57 32t46.5 47.5t33.5 56q20 46 33 90t21.5 87t13.5 84.5t9 83.5zM1098 1619q0 -19 -6.5 -37t-18 -34t-27.5 -28.5t-34 -19.5q-59 -27 -118.5 -51t-121.5 -26q-27 0 -52 10t-42 29q-13 14 -29.5 25.5t-37.5 13.5q-26 2 -49.5 -11t-44.5 -30 q-13 -10 -25 -21.5t-29 -15.5q-25 2 -45 14t-37 30q-16 20 -29 41t-10 48q0 24 9.5 46t25.5 40t35.5 32.5t40.5 24.5q41 23 85.5 37.5t89.5 14.5q26 2 49.5 -8t41.5 -27q13 -14 29.5 -24.5t36.5 -12.5q22 0 44.5 2.5t44.5 11.5q16 11 34.5 19.5t33.5 22.5q9 7 19 8t21 1 q23 -3 43 -14.5t36 -28t25.5 -38t11.5 -44.5z" />
<glyph unicode="&#xf6;" horiz-adv-x="1021" d="M160 0zM1166 689q-8 -123 -53.5 -240.5t-120.5 -221.5q-37 -51 -83.5 -96.5t-100 -79.5t-113 -53.5t-123.5 -16.5q-60 0 -111 22t-92.5 58t-73.5 82t-56 94q-47 100 -68.5 211t-10.5 226q11 124 55 242.5t121 221.5q35 52 81 98t99.5 80t113.5 53t123 17q60 0 111 -21.5 t93 -57.5t74.5 -82t55.5 -95q49 -100 69 -212.5t10 -228.5zM877 749q4 58 6 115t-9 114q-6 27 -20 51.5t-34.5 42.5t-46 28t-54.5 8q-36 1 -69 -11.5t-61 -34t-50 -49.5t-37 -59q-31 -64 -48 -133t-24 -138q-6 -67 -6 -133t13 -130q5 -31 18 -60.5t33.5 -52.5t48 -36.5 t62.5 -11.5q33 -2 64 9.5t57 32t46.5 47.5t33.5 56q20 46 33 90t21.5 87t13.5 84.5t9 83.5zM1022 1546q-3 -26 -15.5 -49t-32 -40t-44 -26.5t-50.5 -9.5t-49.5 11.5t-37.5 31.5q-15 23 -24 50.5t-5 57.5q3 31 16 58.5t32 51.5q18 21 41 37.5t50 12.5q33 0 58 -20t39 -47 q17 -26 22 -57t0 -62zM671 1551q0 -25 -10 -49t-27 -42t-40.5 -27.5t-50.5 -4.5q-30 3 -55.5 16t-42.5 35q-19 22 -28.5 50.5t-7.5 57.5q5 29 22.5 54.5t39.5 46.5q20 17 44.5 33t52.5 18q32 4 53.5 -15t31.5 -45q11 -31 16.5 -63t1.5 -65z" />
<glyph unicode="&#xf7;" horiz-adv-x="829" d="M676 1089q-3 -35 -14 -69t-36 -61q-24 -29 -58 -47t-71 -16q-40 -5 -69.5 11.5t-47 44t-22.5 63t4 70.5q4 31 19.5 59t39.5 49t53 32.5t60 10.5q32 2 60.5 -8.5t48.5 -31t29.5 -48t3.5 -59.5zM847 676q-2 -21 -12.5 -40t-26.5 -33.5t-35.5 -24t-40.5 -10.5 q-130 -6 -257.5 -5t-257.5 4q-25 1 -45.5 14.5t-34.5 31.5q-14 19 -23 42.5t-6 49.5q10 41 38.5 62.5t65 31t76 11.5t72.5 4h49t48 -2q25 0 49 -1.5t49 -1.5q48 0 94.5 -2.5t94.5 -9.5q22 -4 42 -14t34.5 -25.5t22 -36t4.5 -45.5zM592 362q-4 -36 -18.5 -70t-37.5 -63 q-25 -29 -58 -47.5t-68 -15.5q-39 -3 -67 14.5t-45 46t-23.5 64t-1.5 69.5q1 32 17 59.5t40.5 47t55 30t61.5 8.5q31 4 60.5 -5.5t50.5 -29t31 -47.5t3 -61z" />
<glyph unicode="&#xf8;" horiz-adv-x="1232" d="M1188 689q-9 -122 -53.5 -239.5t-119.5 -220.5q-35 -53 -81 -99t-100 -80.5t-114.5 -53.5t-123.5 -16q-63 0 -120 22.5t-101 64.5q-13 -26 -27.5 -51t-23.5 -52q-7 -9 -15.5 -19.5t-18 -19t-20.5 -13t-24 -2.5q-26 4 -49.5 17t-41.5 32t-28 43.5t-9 52.5q18 60 53 114 t68 109q-32 94 -48.5 192.5t-7.5 201.5q11 125 54.5 246t120.5 225q35 53 81.5 99.5t101 80.5t114.5 52.5t123 15.5q84 -3 154 -44q16 18 30 39t28.5 41t31.5 37t40 28q26 -8 51 -18.5t44 -29.5q20 -17 34 -40.5t16 -51.5q-6 -28 -17.5 -54.5t-25.5 -52t-29 -50.5t-29 -50 q53 -103 73 -219.5t9 -236.5zM773 1106q-15 3 -32 3q-35 2 -67.5 -10t-60.5 -34t-50 -51t-36 -60q-33 -64 -48 -133t-23 -138q-2 -22 -3.5 -43t-1.5 -41q77 129 157.5 254t164.5 253zM901 748q4 26 4.5 52t2.5 53q-98 -140 -191.5 -279t-190.5 -279q19 -18 44.5 -27t52.5 -9 q33 -1 64 10.5t57 32t46.5 47.5t32.5 57q40 91 56 175t22 167z" />
<glyph unicode="&#xf9;" horiz-adv-x="993" d="M182 0zM1111 679q-9 -113 -46 -224t-97 -211q-30 -48 -67.5 -95.5t-83 -85t-98 -61t-111.5 -22.5q-66 -3 -126 16.5t-109.5 56t-86.5 87t-57 109.5q-21 58 -32 118.5t-14 122t-0.5 124.5t8.5 125q8 69 16 139t19.5 139.5t28 138t42.5 134.5q20 36 54 57.5t74 22.5 q21 4 38.5 -1.5t31 -17.5t22 -29.5t10.5 -36.5q9 -45 9.5 -90.5t-4.5 -91.5q-10 -78 -21.5 -154t-24.5 -154q-14 -78 -25.5 -156t-16.5 -158q-3 -36 -2.5 -72.5t15.5 -67.5q9 -17 22.5 -26t30 -14.5t35 -7.5t35.5 -3q68 -3 114 31.5t75 87t43 114t17 114.5q9 101 10 202.5 t-10 201.5q-4 42 -4.5 83t-0.5 83q0 24 6 52t20 50.5t36 35.5t53 8q28 -3 50.5 -16t40 -32.5t29.5 -43.5t20 -48q35 -128 39 -262.5t-7 -271.5zM717 1499q-3 -14 -8.5 -27t-14.5 -24t-21 -18.5t-27 -8.5q-46 1 -77.5 24.5t-51.5 59t-32 77t-19 78.5q3 14 -0.5 26t0.5 26 q2 19 10.5 36.5t22 31t31 20.5t37.5 6q24 -1 42.5 -13t32 -30t24 -39.5t19.5 -40.5q18 -44 27.5 -89.5t4.5 -94.5z" />
<glyph unicode="&#xfa;" horiz-adv-x="993" d="M182 0zM1111 679q-9 -113 -46 -224t-97 -211q-30 -48 -67.5 -95.5t-83 -85t-98 -61t-111.5 -22.5q-66 -3 -126 16.5t-109.5 56t-86.5 87t-57 109.5q-21 58 -32 118.5t-14 122t-0.5 124.5t8.5 125q8 69 16 139t19.5 139.5t28 138t42.5 134.5q20 36 54 57.5t74 22.5 q21 4 38.5 -1.5t31 -17.5t22 -29.5t10.5 -36.5q9 -45 9.5 -90.5t-4.5 -91.5q-10 -78 -21.5 -154t-24.5 -154q-14 -78 -25.5 -156t-16.5 -158q-3 -36 -2.5 -72.5t15.5 -67.5q9 -17 22.5 -26t30 -14.5t35 -7.5t35.5 -3q68 -3 114 31.5t75 87t43 114t17 114.5q9 101 10 202.5 t-10 201.5q-4 42 -4.5 83t-0.5 83q0 24 6 52t20 50.5t36 35.5t53 8q28 -3 50.5 -16t40 -32.5t29.5 -43.5t20 -48q35 -128 39 -262.5t-7 -271.5zM828 1722q0 -14 -5 -26.5t-7 -26.5q-13 -36 -31 -77.5t-44 -76.5t-61 -58t-81 -22q-28 2 -44.5 24.5t-15.5 48.5q2 14 2.5 25.5 t3.5 24.5q9 42 28.5 81.5t42.5 77.5q12 16 25 34t29 32t34 23.5t40 9.5q19 0 35 -7.5t27 -20.5t17 -30.5t5 -35.5z" />
<glyph unicode="&#xfb;" horiz-adv-x="993" d="M182 0zM1111 679q-9 -113 -46 -224t-97 -211q-30 -48 -67.5 -95.5t-83 -85t-98 -61t-111.5 -22.5q-66 -3 -126 16.5t-109.5 56t-86.5 87t-57 109.5q-21 58 -32 118.5t-14 122t-0.5 124.5t8.5 125q8 69 16 139t19.5 139.5t28 138t42.5 134.5q20 36 54 57.5t74 22.5 q21 4 38.5 -1.5t31 -17.5t22 -29.5t10.5 -36.5q9 -45 9.5 -90.5t-4.5 -91.5q-10 -78 -21.5 -154t-24.5 -154q-14 -78 -25.5 -156t-16.5 -158q-3 -36 -2.5 -72.5t15.5 -67.5q9 -17 22.5 -26t30 -14.5t35 -7.5t35.5 -3q68 -3 114 31.5t75 87t43 114t17 114.5q9 101 10 202.5 t-10 201.5q-4 42 -4.5 83t-0.5 83q0 24 6 52t20 50.5t36 35.5t53 8q28 -3 50.5 -16t40 -32.5t29.5 -43.5t20 -48q35 -128 39 -262.5t-7 -271.5zM923 1520q-8 -35 -36 -58.5t-63 -23.5q-36 -1 -60 21t-36 51q-10 33 -23 65.5t-24 65.5q-21 -35 -42.5 -68t-43.5 -68 q-10 -14 -22.5 -28t-27 -25t-31 -17t-35.5 -4q-23 1 -39 12t-26.5 27t-15.5 36t-4 40q1 29 11 56t25.5 52t34.5 48.5t38 46.5q20 21 41.5 43t45 41t50 32t56.5 15q30 0 55 -11.5t46 -29t38.5 -39.5t32.5 -44q30 -45 48.5 -98.5t9.5 -111.5q0 -7 -1.5 -13t-1.5 -13z" />
<glyph unicode="&#xfc;" horiz-adv-x="993" d="M182 0zM1111 679q-9 -113 -46 -224t-97 -211q-30 -48 -67.5 -95.5t-83 -85t-98 -61t-111.5 -22.5q-66 -3 -126 16.5t-109.5 56t-86.5 87t-57 109.5q-21 58 -32 118.5t-14 122t-0.5 124.5t8.5 125q8 69 16 139t19.5 139.5t28 138t42.5 134.5q20 36 54 57.5t74 22.5 q21 4 38.5 -1.5t31 -17.5t22 -29.5t10.5 -36.5q9 -45 9.5 -90.5t-4.5 -91.5q-10 -78 -21.5 -154t-24.5 -154q-14 -78 -25.5 -156t-16.5 -158q-3 -36 -2.5 -72.5t15.5 -67.5q9 -17 22.5 -26t30 -14.5t35 -7.5t35.5 -3q68 -3 114 31.5t75 87t43 114t17 114.5q9 101 10 202.5 t-10 201.5q-4 42 -4.5 83t-0.5 83q0 24 6 52t20 50.5t36 35.5t53 8q28 -3 50.5 -16t40 -32.5t29.5 -43.5t20 -48q35 -128 39 -262.5t-7 -271.5zM1010 1551q-3 -26 -15.5 -49t-32 -40t-44 -26.5t-50.5 -9.5t-49.5 11.5t-37.5 31.5q-15 23 -24 50.5t-5 57.5q3 31 16 58.5 t32 51.5q18 21 41 37.5t50 12.5q33 0 58 -20t39 -47q17 -26 22 -57t0 -62zM659 1556q0 -25 -10 -49t-27 -42t-40.5 -27.5t-50.5 -4.5q-30 3 -55.5 16t-42.5 35q-19 22 -28.5 50.5t-7.5 57.5q5 29 22.5 54.5t39.5 46.5q20 17 44.5 33t52.5 18q32 4 53.5 -15t31.5 -45 q11 -31 16.5 -63t1.5 -65z" />
<glyph unicode="&#xfd;" horiz-adv-x="843" d="M218 0zM1087 1200q-6 -38 -27 -73t-43 -69q-26 -37 -53 -73t-53 -74q-59 -86 -112.5 -176t-98 -184.5t-78.5 -192.5t-55 -198q-7 -31 -15 -63.5t-28 -58.5q-17 -30 -48.5 -42.5t-62.5 -10.5q-27 0 -47.5 12t-33 31.5t-18 43.5t-2.5 49q3 97 26 191.5t61 185.5 q-33 38 -57 81.5t-42 90.5t-31 96.5t-25 98.5q-18 93 -26 187.5t9 191.5q2 19 9 38t19 35t29 27t39 13q23 6 44 2t38.5 -16t29.5 -30t17 -40q5 -49 10.5 -96t10.5 -95q14 -77 32 -152.5t46 -147.5q48 91 101.5 179t108.5 176q26 46 54 91t59 90q17 23 42 37t53 9 q31 -3 53.5 -18t37.5 -38.5t21.5 -51.5t5.5 -56zM744 1722q0 -14 -5 -26.5t-7 -26.5q-13 -36 -31 -77.5t-44 -76.5t-61 -58t-81 -22q-28 2 -44.5 24.5t-15.5 48.5q2 14 2.5 25.5t3.5 24.5q9 42 28.5 81.5t42.5 77.5q12 16 25 34t29 32t34 23.5t40 9.5q19 0 35 -7.5t27 -20.5 t17 -30.5t5 -35.5z" />
<glyph unicode="&#xfe;" d="M1043 748q-3 -51 -20 -99.5t-44.5 -92.5t-64 -81.5t-79.5 -66.5q-88 -66 -187.5 -101.5t-202.5 -50.5l-2 -18t-3 -18q-2 -28 1 -55t3 -56q-3 -28 -7 -56.5t-22 -52.5q-17 -17 -35 -25t-35.5 -11t-34.5 -2t-32 4q-27 5 -46.5 21t-31.5 38.5t-17 48.5t-4 52q2 27 3.5 54 t3.5 54q4 28 6.5 57t3.5 57q3 26 1.5 51.5t0.5 51.5q4 185 20 367t45 368q4 33 13.5 70t27 70t44.5 57.5t67 33.5q22 0 43 -3.5t37 -17.5q17 -11 26 -27.5t6 -37.5q-5 -45 -9.5 -90.5t-7.5 -90.5q35 16 72.5 18t72.5 4q39 -1 76.5 -5.5t72.5 -16.5q64 -17 112.5 -57.5 t79.5 -95.5t43 -119.5t4 -129.5zM778 773q2 26 -6.5 48t-17.5 44q-19 43 -68 48q-37 0 -75 -3.5t-73 -18.5q-18 -9 -29.5 -23.5t-18.5 -31.5t-10.5 -35.5t-6.5 -35.5q-2 -16 -3.5 -31t-3.5 -29l-5 -56q-3 -48 0 -94q50 9 99 27t94 44q21 12 42 27.5t38 33.5t29 39.5t15 46.5 z" />
<glyph unicode="&#xff;" horiz-adv-x="843" d="M218 0zM1087 1200q-6 -38 -27 -73t-43 -69q-26 -37 -53 -73t-53 -74q-59 -86 -112.5 -176t-98 -184.5t-78.5 -192.5t-55 -198q-7 -31 -15 -63.5t-28 -58.5q-17 -30 -48.5 -42.5t-62.5 -10.5q-27 0 -47.5 12t-33 31.5t-18 43.5t-2.5 49q3 97 26 191.5t61 185.5 q-33 38 -57 81.5t-42 90.5t-31 96.5t-25 98.5q-18 93 -26 187.5t9 191.5q2 19 9 38t19 35t29 27t39 13q23 6 44 2t38.5 -16t29.5 -30t17 -40q5 -49 10.5 -96t10.5 -95q14 -77 32 -152.5t46 -147.5q48 91 101.5 179t108.5 176q26 46 54 91t59 90q17 23 42 37t53 9 q31 -3 53.5 -18t37.5 -38.5t21.5 -51.5t5.5 -56zM935 1548q-3 -26 -15.5 -49t-32 -40t-44 -26.5t-50.5 -9.5t-49.5 11.5t-37.5 31.5q-15 23 -24 50.5t-5 57.5q3 31 16 58.5t32 51.5q18 21 41 37.5t50 12.5q33 0 58 -20t39 -47q17 -26 22 -57t0 -62zM584 1553q0 -25 -10 -49 t-27 -42t-40.5 -27.5t-50.5 -4.5q-30 3 -55.5 16t-42.5 35q-19 22 -28.5 50.5t-7.5 57.5q5 29 22.5 54.5t39.5 46.5q20 17 44.5 33t52.5 18q32 4 53.5 -15t31.5 -45q11 -31 16.5 -63t1.5 -65z" />
<glyph unicode="&#x152;" horiz-adv-x="1884" d="M1818 401q-30 -49 -73.5 -84.5t-92.5 -64.5t-100.5 -54.5t-99.5 -52.5q-52 -24 -104.5 -50.5t-106 -49.5t-108.5 -40.5t-112 -24.5q-25 -2 -49.5 4t-45 18.5t-36.5 31.5t-23 43q-53 -44 -117.5 -68t-131.5 -19q-63 2 -117 25.5t-99 61t-80.5 86t-60.5 100.5 q-51 106 -70.5 225t-6.5 242q12 115 54 226t115 205q37 46 82 86t95.5 69.5t106 46.5t112.5 18q76 2 149 -18.5t126 -72.5q66 37 136.5 55t142.5 24t144 3.5t142 -5.5q27 -1 51.5 -11t43 -27.5t29.5 -40.5t11 -51q3 -19 -3 -36.5t-18 -31t-29 -22.5t-36 -12q-40 -5 -79 -5 t-79 2q-35 2 -76 -1.5t-78.5 -16.5t-66.5 -38t-40 -67q-7 -17 -9 -34.5t-2 -34.5q0 -2 -0.5 -4.5t-0.5 -5.5q53 3 105.5 13t104.5 21q51 9 103 16.5t103 7.5q27 1 53 -8t45 -25.5t28.5 -40.5t4.5 -54q1 -26 -9.5 -47t-28.5 -37.5t-41.5 -27t-46.5 -14.5q-51 -7 -101.5 -12.5 t-101.5 -9.5q-49 -5 -100 -15.5t-96 -39.5q-23 -15 -39 -35t-27.5 -43.5t-17.5 -48.5t-8 -49q-5 -48 -2 -94.5t8 -92.5q69 22 131 56.5t125 67.5q63 34 130.5 59.5t136.5 29.5q49 5 91.5 -20.5t58.5 -71.5zM855 860q3 36 5 81t-7.5 84.5t-34.5 67t-74 28.5q-53 -3 -93.5 -25 t-70.5 -56.5t-51 -78.5t-35 -91.5t-21.5 -95t-11.5 -88.5q-5 -57 -5 -112q0 -54 8 -110q4 -30 11.5 -59t19.5 -53t31 -39.5t47 -18.5q44 0 77.5 21.5t58.5 54t42.5 71.5t30.5 74q31 85 47.5 171t25.5 174z" />
<glyph unicode="&#x153;" horiz-adv-x="1884" d="M1818 401q-30 -49 -73.5 -84.5t-92.5 -64.5t-100.5 -54.5t-99.5 -52.5q-52 -24 -104.5 -50.5t-106 -49.5t-108.5 -40.5t-112 -24.5q-25 -2 -49.5 4t-45 18.5t-36.5 31.5t-23 43q-53 -44 -117.5 -68t-131.5 -19q-63 2 -117 25.5t-99 61t-80.5 86t-60.5 100.5 q-51 106 -70.5 225t-6.5 242q12 115 54 226t115 205q36 46 81 86t96 69.5t106.5 46.5t112.5 18q76 2 149 -18.5t126 -72.5q66 37 136.5 55t142.5 24t144 3.5t142 -5.5q27 -1 51.5 -11t43 -27.5t29.5 -40.5t11 -51q3 -19 -3 -36.5t-18 -31t-29 -22.5t-36 -12q-40 -5 -79 -5 t-79 2q-35 2 -76 -1.5t-78.5 -16.5t-66.5 -38t-40 -67q-7 -17 -9 -34.5t-2 -34.5q0 -2 -0.5 -4.5t-0.5 -5.5q53 3 105.5 13t104.5 21q51 9 103 16.5t103 7.5q27 1 53 -8t45 -25.5t28.5 -40.5t4.5 -54q1 -26 -9.5 -47t-28.5 -37.5t-41.5 -27t-46.5 -14.5q-51 -7 -101.5 -12.5 t-101.5 -9.5q-49 -5 -100 -15.5t-96 -39.5q-23 -15 -39 -35t-27.5 -43.5t-17.5 -48.5t-8 -49q-5 -48 -2 -94.5t8 -92.5q69 22 131 56.5t125 67.5q63 34 130.5 59.5t136.5 29.5q49 5 91.5 -20.5t58.5 -71.5zM855 860q3 36 5 81t-7.5 84.5t-34.5 67t-74 28.5q-53 -3 -93.5 -25 t-70.5 -56.5t-51 -78.5t-35 -91.5t-21.5 -95t-11.5 -88.5q-5 -57 -5 -112q0 -54 8 -110q4 -30 11.5 -59t19.5 -53t31 -39.5t47 -18.5q44 0 77.5 21.5t58.5 54t42.5 71.5t30.5 74q31 85 47.5 171t25.5 174z" />
<glyph unicode="&#x178;" horiz-adv-x="906" d="M200 0zM1082 1205q-3 -36 -14 -71t-26.5 -68t-35 -64.5t-38.5 -62.5q-47 -71 -93.5 -141.5t-87.5 -143.5q-44 -92 -85 -182.5t-76 -184.5q-18 -45 -35 -89.5t-36 -89.5q-11 -19 -22.5 -40t-26 -39t-32.5 -30.5t-42 -13.5q-38 -2 -69 13.5t-52 42t-30 61t-3 70.5 q4 52 19.5 102t37 99t47 96t51.5 94q-45 12 -79.5 38.5t-59.5 62.5t-42 78t-28 84q-22 84 -23.5 170.5t12.5 174.5q3 29 14 57.5t30.5 52t45.5 38.5t59 17q25 4 43.5 -5.5t31.5 -27t20.5 -40t10.5 -43.5q0 -62 1 -123.5t4 -123.5q2 -19 5 -42t11 -42.5t22.5 -33.5t38.5 -15 q17 4 29 14.5t21 24t17 28t18 27.5q15 31 29.5 62t30.5 62q20 38 37.5 77t35.5 78q20 34 38 70t49 62q18 13 40 20t44 2q29 -5 55 -19t45 -35.5t30.5 -49t12.5 -58.5zM935 1553q-3 -26 -15.5 -49t-32 -40t-44 -26.5t-50.5 -9.5t-49.5 11.5t-37.5 31.5q-15 23 -24 50.5 t-5 57.5q3 31 16 58.5t32 51.5q18 21 41 37.5t50 12.5q33 0 58 -20t39 -47q17 -26 22 -57t0 -62zM584 1558q0 -25 -10 -49t-27 -42t-40.5 -27.5t-50.5 -4.5q-30 3 -55.5 16t-42.5 35q-19 22 -28.5 50.5t-7.5 57.5q5 29 22.5 54.5t39.5 46.5q20 17 44.5 33t52.5 18 q32 4 53.5 -15t31.5 -45q11 -31 16.5 -63t1.5 -65z" />
<glyph unicode="&#x2c6;" horiz-adv-x="737" d="M763 1517q-8 -35 -36 -58.5t-63 -23.5q-36 -1 -60 21t-36 51q-10 33 -23 65.5t-24 65.5q-21 -35 -42.5 -68t-43.5 -68q-10 -14 -22.5 -28t-27 -25t-31 -17t-35.5 -4q-23 1 -39 12t-26.5 27t-15.5 36t-4 40q1 29 11 56t25.5 52t34.5 48.5t38 46.5q20 21 41.5 43t45 41 t50 32t56.5 15q30 0 55 -11.5t46 -29t38.5 -39.5t32.5 -44q30 -45 48.5 -98.5t9.5 -111.5q0 -7 -1.5 -13t-1.5 -13z" />
<glyph unicode="&#x2da;" horiz-adv-x="744" d="M739 1082q-5 -54 -34.5 -102.5t-73.5 -83.5q-45 -36 -97 -59t-107 -21q-52 0 -95 23t-74 60q-32 36 -48 83.5t-14 97.5q4 56 31.5 106.5t69.5 88.5q42 40 95 62.5t108 21.5q53 -2 97 -25.5t75 -63.5q35 -38 53.5 -86t13.5 -102zM575 1092q3 25 -8.5 46t-28.5 36 q-18 16 -39.5 26t-47.5 10q-21 -1 -39 -11.5t-31 -26.5t-21 -36t-10 -39q-4 -22 0 -44t15 -40t29 -28.5t43 -8.5q25 -3 50.5 5t45.5 23.5t31.5 38t10.5 49.5z" />
<glyph unicode="&#x2dc;" horiz-adv-x="985" d="M1014 1616q0 -19 -6.5 -37t-18 -34t-27.5 -28.5t-34 -19.5q-59 -27 -118.5 -51t-121.5 -26q-27 0 -52 10t-42 29q-13 14 -29.5 25.5t-37.5 13.5q-26 2 -49.5 -11t-44.5 -30q-13 -10 -25 -21.5t-29 -15.5q-25 2 -45 14t-37 30q-16 20 -29 41t-10 48q0 24 9.5 46t25.5 40 t35.5 32.5t40.5 24.5q41 23 85.5 37.5t89.5 14.5q26 2 49.5 -8t41.5 -27q13 -14 29.5 -24.5t36.5 -12.5q22 0 44.5 2.5t44.5 11.5q16 11 34.5 19.5t33.5 22.5q9 7 19 8t21 1q23 -3 43 -14.5t36 -28t25.5 -38t11.5 -44.5z" />
<glyph unicode="&#x2000;" horiz-adv-x="992" />
<glyph unicode="&#x2001;" horiz-adv-x="1985" />
<glyph unicode="&#x2002;" horiz-adv-x="992" />
<glyph unicode="&#x2003;" horiz-adv-x="1985" />
<glyph unicode="&#x2004;" horiz-adv-x="661" />
<glyph unicode="&#x2005;" horiz-adv-x="496" />
<glyph unicode="&#x2006;" horiz-adv-x="330" />
<glyph unicode="&#x2007;" horiz-adv-x="330" />
<glyph unicode="&#x2008;" horiz-adv-x="248" />
<glyph unicode="&#x2009;" horiz-adv-x="397" />
<glyph unicode="&#x200a;" horiz-adv-x="110" />
<glyph unicode="&#x2010;" horiz-adv-x="961" d="M911 678q-5 -22 -17.5 -40t-30.5 -32t-39.5 -22.5t-43.5 -10.5q-121 -8 -240.5 -7t-240.5 2q-53 8 -87 45q-17 18 -30.5 41.5t-9.5 50.5q15 38 45 59t67 30.5t76 12.5t73 5q23 -1 45 -1t44 -2q23 0 46 -1.5t46 -1.5q45 0 90.5 -3t90.5 -8q21 -5 42.5 -14t38.5 -23.5 t27 -34.5t8 -45z" />
<glyph unicode="&#x2011;" horiz-adv-x="961" d="M911 678q-5 -22 -17.5 -40t-30.5 -32t-39.5 -22.5t-43.5 -10.5q-121 -8 -240.5 -7t-240.5 2q-53 8 -87 45q-17 18 -30.5 41.5t-9.5 50.5q15 38 45 59t67 30.5t76 12.5t73 5q23 -1 45 -1t44 -2q23 0 46 -1.5t46 -1.5q45 0 90.5 -3t90.5 -8q21 -5 42.5 -14t38.5 -23.5 t27 -34.5t8 -45z" />
<glyph unicode="&#x2012;" horiz-adv-x="961" d="M911 678q-5 -22 -17.5 -40t-30.5 -32t-39.5 -22.5t-43.5 -10.5q-121 -8 -240.5 -7t-240.5 2q-53 8 -87 45q-17 18 -30.5 41.5t-9.5 50.5q15 38 45 59t67 30.5t76 12.5t73 5q23 -1 45 -1t44 -2q23 0 46 -1.5t46 -1.5q45 0 90.5 -3t90.5 -8q21 -5 42.5 -14t38.5 -23.5 t27 -34.5t8 -45z" />
<glyph unicode="&#x2013;" horiz-adv-x="826" d="M765 679q-5 -21 -17.5 -39t-29.5 -32t-37 -22.5t-41 -10.5q-85 -4 -170 -6.5t-170 -0.5q-26 2 -47.5 13t-35.5 32q-17 17 -28 41t-8 51q13 38 41.5 58.5t64 30t74 12t71.5 5.5q27 -2 54.5 -3t56.5 -1q33 0 71.5 -4.5t72 -18t56 -38.5t22.5 -67z" />
<glyph unicode="&#x2014;" horiz-adv-x="1219" d="M1155 681q-2 -23 -14 -41t-30 -31t-39.5 -21t-42.5 -11q-40 -2 -79.5 -6t-77.5 -6q-93 -8 -183.5 -13.5t-181.5 -7.5q-47 -1 -92 5.5t-89 17.5q-30 9 -57 21t-46.5 28.5t-29 38t-4.5 48.5q17 38 47.5 58.5t67 30t75.5 13t73 6.5q60 0 119 1t118 -1q60 0 117.5 -0.5 t115.5 -3.5q34 -1 73 -5.5t73.5 -17.5t58.5 -37.5t28 -65.5z" />
<glyph unicode="&#x2018;" horiz-adv-x="500" d="M510 930q-3 -20 -13 -38.5t-25.5 -32.5t-35 -22.5t-40.5 -8.5q-33 11 -56 34.5t-40 53.5t-31 62t-27 61q-13 32 -25.5 65.5t-21.5 68t-14 70t-2 71.5q4 22 17 37t31 24.5t39 14t39 4.5q31 -12 52.5 -35t38 -51.5t29 -60t24.5 -59.5q24 -62 44 -125.5t17 -132.5z" />
<glyph unicode="&#x2019;" horiz-adv-x="492" d="M515 1248q-5 -83 -36.5 -161.5t-80.5 -149.5q-14 -19 -27.5 -39t-30 -37.5t-36 -29.5t-43.5 -15q-27 1 -47 14t-32.5 33t-18 44.5t-3.5 48.5q5 65 32.5 127t56.5 122q17 25 32.5 54.5t34 56.5t41.5 47.5t56 27.5q28 0 48 -13.5t32.5 -34t17.5 -46t4 -49.5z" />
<glyph unicode="&#x201a;" horiz-adv-x="503" d="M437 159q-5 -36 -18 -69.5t-32 -65t-42.5 -60.5t-47.5 -56q-14 -14 -27.5 -29.5t-29 -28.5t-33 -21.5t-38.5 -9.5q-8 2 -16 2q-7 0 -15 2q-20 2 -33.5 12t-22 24.5t-11.5 32.5t-3 35q4 62 33 118.5t63 109.5q18 23 37.5 49.5t42 49t48.5 38t58 17.5q27 -3 48 -16t30 -39 q5 -23 8 -47t1 -48z" />
<glyph unicode="&#x201c;" horiz-adv-x="843" d="M828 930q-3 -21 -14 -39t-27 -30.5t-35.5 -20t-39.5 -7.5q-33 9 -54.5 32t-37.5 52t-28.5 61t-26.5 60q-13 34 -26.5 69t-24.5 70.5t-18 72t-6 74.5q3 22 16.5 36.5t32.5 22.5t40.5 10t38.5 1q31 -13 52.5 -36.5t38 -52.5t29.5 -60t27 -59q12 -30 24 -61t21.5 -63 t14.5 -65t3 -67zM543 879q-1 -22 -11 -39.5t-25.5 -30t-35.5 -18.5t-41 -4q-33 13 -56.5 37t-41.5 53t-32.5 61.5t-29.5 61.5q-13 32 -25.5 65t-22 67t-14 69.5t-0.5 71.5q4 22 18 36.5t32.5 23.5t39.5 13t40 6q30 -12 50 -35.5t34 -52t25.5 -58.5t25.5 -57 q22 -65 45 -131.5t25 -138.5z" />
<glyph unicode="&#x201d;" horiz-adv-x="816" d="M823 1169q-5 -84 -37 -162.5t-83 -148.5q-15 -18 -29.5 -38t-31.5 -37.5t-36 -31t-43 -17.5q-20 -1 -40.5 5.5t-36 19.5t-25 31t-7.5 41q-2 13 4.5 25.5t14.5 24.5q14 23 24.5 47t21.5 48q18 51 39 100t39 100q10 19 21.5 41t25.5 41.5t32.5 33.5t42.5 17 q27 0 47.5 -12.5t33.5 -32.5t19 -45t4 -50zM531 1258q-8 -87 -39.5 -168t-81.5 -155q-13 -18 -27 -37.5t-30 -36.5t-35 -28.5t-42 -13.5q-27 -1 -47 10.5t-33.5 30.5t-19 43.5t-2.5 48.5q4 66 32 128t60 121q16 26 32 55.5t35.5 56t43 47.5t55.5 31q29 4 49.5 -7t33 -31 t16.5 -45.5t0 -49.5z" />
<glyph unicode="&#x201e;" horiz-adv-x="812" d="M725 87q-2 -84 -35.5 -162t-81.5 -147q-15 -18 -30 -38.5t-31.5 -38.5t-36.5 -31.5t-44 -17.5q-21 -1 -41 5.5t-36 19.5t-25 31t-7 41q1 13 6.5 26.5t13.5 24.5q14 22 24.5 46.5t21.5 49.5q18 50 38.5 98.5t40.5 99.5q9 19 19.5 41t24.5 41.5t32.5 33t44.5 15.5 q27 0 47.5 -12t33.5 -31.5t18.5 -44.5t2.5 -50zM435 176q-8 -85 -39 -166.5t-82 -154.5q-13 -18 -26.5 -38t-29.5 -37t-35 -29t-42 -14q-27 0 -47.5 11.5t-34 30.5t-19.5 43t-3 48q3 33 11.5 65t21.5 63t28.5 61.5t30.5 59.5q16 26 32.5 55.5t35.5 56.5t43 48t56 32 q28 4 48.5 -7.5t33 -32t17 -46t0.5 -49.5z" />
<glyph unicode="&#x2022;" horiz-adv-x="727" d="M693 794q-4 -69 -28 -135t-69 -121q-43 -57 -106.5 -90.5t-132.5 -31.5q-57 4 -94.5 34.5t-58 75.5t-26 98.5t0.5 102.5q1 58 25 114t65 99.5t95 68.5t116 20q46 0 85 -21.5t68 -53.5q29 -33 46.5 -73.5t13.5 -86.5z" />
<glyph unicode="&#x2026;" horiz-adv-x="1256" d="M1130 114q-4 -31 -20.5 -56.5t-41 -43.5t-54 -28t-58.5 -10q-29 -2 -53.5 10.5t-38.5 37.5q-17 27 -21.5 59.5t-2.5 64.5q1 32 16.5 61.5t36.5 55.5q15 22 39 37.5t53 11.5q37 0 67.5 -20t50.5 -48q19 -27 25.5 -62t1.5 -70zM785 121q1 -30 -12.5 -57t-35.5 -46.5 t-50.5 -30t-58.5 -6.5q-32 -2 -59 13.5t-47 37.5q-22 25 -32.5 55t-6.5 63q2 35 20 65.5t40 57.5q23 23 51 39.5t60 16.5q35 0 64.5 -18t40.5 -50q17 -31 25 -66.5t1 -73.5zM433 113q-4 -23 -6.5 -47t-16.5 -44q-29 -31 -55.5 -39.5t-50.5 -6.5q-34 2 -64 16t-52 37 q-25 22 -37.5 53t-10.5 66q2 34 24.5 61.5t47.5 49.5q24 23 53 38.5t61 18.5q32 2 58 -17t34 -48q13 -32 14 -67.5t1 -70.5z" />
<glyph unicode="&#x202f;" horiz-adv-x="397" />
<glyph unicode="&#x2039;" horiz-adv-x="671" d="M570 498q-2 -21 -10.5 -41t-22.5 -36t-33 -26t-41 -11q-55 5 -100.5 28.5t-85.5 56.5t-76.5 71t-72.5 73q-14 10 -20.5 27.5t-6.5 35.5q8 34 26.5 63t42 55t50 50.5t50.5 48.5q27 21 53.5 44t55 42.5t60 33t66.5 16.5q42 -8 70.5 -39t30.5 -75q0 -34 -13.5 -67t-39.5 -58 q-27 -27 -56.5 -51.5t-57.5 -50.5q24 -21 46.5 -42.5t48.5 -41.5q20 -22 30.5 -48.5t5.5 -57.5z" />
<glyph unicode="&#x203a;" horiz-adv-x="671" d="M693 737q-8 -34 -26.5 -63.5t-42 -56t-50.5 -50.5t-52 -48q-26 -21 -53.5 -43.5t-56.5 -42t-60 -33t-65 -16.5q-43 8 -71 40t-30 76q2 33 15 66.5t40 56.5q28 27 56 51.5t56 50.5q-23 21 -47 42.5t-48 41.5q-20 20 -30.5 49t-5.5 58q2 21 10.5 40.5t23 35.5t33 26 t40.5 11q54 -5 100 -28t86 -55.5t76.5 -71t72.5 -72.5q13 -13 20 -30t9 -35z" />
<glyph unicode="&#x205f;" horiz-adv-x="496" />
<glyph unicode="&#x20ac;" horiz-adv-x="1295" d="M1273 954q1 -24 -6.5 -50t-23.5 -46t-38.5 -31t-50.5 -6q-38 -3 -71 18.5t-49 54.5q-18 31 -29.5 63.5t-26.5 64.5q-11 31 -38.5 51.5t-62.5 22.5q-33 0 -59.5 -14t-48.5 -36.5t-39.5 -50t-31.5 -53.5h10q36 3 76 -3t72.5 -23.5t52 -47t14.5 -73.5q1 -29 -13.5 -49.5 t-36.5 -34t-49 -19.5t-51 -4q-40 1 -79.5 0.5t-79.5 -0.5q-2 -18 -5.5 -35t-6.5 -35q11 -2 21 -2h22q34 1 74 -4t72.5 -20.5t52 -44t13.5 -73.5q0 -20 -8.5 -37t-23 -30t-32.5 -21.5t-37 -11.5q-38 -8 -77.5 -6.5t-79.5 -0.5q2 -16 6.5 -34t12.5 -33.5t21 -25.5t32 -11 q59 0 120.5 12.5t113.5 50.5q19 15 37.5 31t40.5 27q20 15 42.5 19t44.5 7q27 4 45.5 -7t28 -30.5t11 -44t-5.5 -46.5q1 -11 -1.5 -20t-4.5 -18q-12 -32 -33 -58.5t-47 -49t-55 -41t-57 -34.5q-58 -32 -119 -54.5t-125 -26.5q-79 -2 -151 28.5t-121 88.5q-50 58 -83 128.5 t-47 148.5q-19 2 -38 2t-38 3q-26 0 -48.5 11t-38.5 29t-24.5 41.5t-6.5 49.5q4 32 23 52t46 32t57.5 17.5t56.5 8.5q1 17 3.5 34t2.5 34q-10 -2 -21 -0.5t-21 0.5q-25 0 -46 11t-35.5 29t-20.5 41t-2 47q7 36 31.5 58.5t56 35.5t66.5 19t64 10q33 85 81.5 163.5 t114.5 145.5q30 32 67 58t77.5 44t83.5 26.5t86 5.5q42 -1 79.5 -13t71.5 -31.5t63.5 -45t55.5 -55.5q25 -29 48 -61t39.5 -68t25.5 -74.5t8 -79.5z" />
<glyph unicode="&#x2122;" horiz-adv-x="1348" d="M1256 768q-2 -17 -11 -32t-18 -29q-11 -14 -24 -24.5t-31 -15.5q-32 -6 -53.5 16t-22.5 53q-3 28 -0.5 56.5t7.5 57.5q4 33 5.5 65.5t4.5 65.5q-17 -35 -34 -71.5t-36 -72t-42 -68.5t-52 -59q-29 0 -46 21.5t-22 48.5q-8 32 -13.5 65t-10.5 65l-2 -12q-2 -18 -2 -35v-35 q-1 -17 -1 -34q0 -16 -2 -33q-1 -18 -7 -37.5t-17.5 -35.5t-28.5 -26t-38 -8q-20 -1 -34.5 7.5t-24.5 22.5t-15 31t-7 34q0 38 1 77t5 77q7 84 17 166.5t29 164.5q-35 -13 -69 -19.5t-69 -4.5q-18 -102 -34 -203t-27 -203q0 -9 -2 -17t-3 -16q-8 -22 -12 -34.5t-9 -21.5 q-9 -17 -23.5 -35t-36.5 -18q-20 -1 -38.5 5.5t-32 19t-21 30t-7.5 37.5q2 32 4.5 66t7.5 66q8 35 13 69t10 69q5 46 8.5 92t1.5 92q-29 0 -58 -0.5t-58 -0.5q-13 4 -20 14t-9 23q-5 13 -7.5 27.5t-1.5 28.5q7 30 34 43.5t53 13.5q53 4 104.5 9t103.5 13q42 2 83 6.5t83 7.5 q24 0 44.5 -11.5t32.5 -31.5q11 17 29 27.5t37 10.5q32 0 55 -22.5t32 -51.5q23 -57 37 -114.5t25 -117.5q17 40 33.5 80.5t36.5 78.5q12 22 21 44t19 40t23 30.5t32 14.5q21 0 37 -9t28 -22.5t21.5 -30.5t16.5 -33q14 -35 23 -72.5t9 -76.5l-7 -68q-2 -18 -5 -35t-5 -35 q-2 -19 0 -36.5t2 -36.5q-5 -38 -5.5 -74.5t-13.5 -72.5z" />
<glyph unicode="&#xe000;" horiz-adv-x="1370" d="M0 1370h1370v-1370h-1370v1370z" />
<glyph horiz-adv-x="1370" d="M0 0z" />
</font>
</defs>
</svg>
