<?xml version="1.0" standalone="no"?>
<!DOCTYPE svg PUBLIC "-//W3C//DTD SVG 1.1//EN" "http://www.w3.org/Graphics/SVG/1.1/DTD/svg11.dtd" >
<svg xmlns="http://www.w3.org/2000/svg">
<metadata></metadata>
<defs>
<font id="oxygen_monoregular" horiz-adv-x="1229" >
<font-face units-per-em="2048" ascent="1638" descent="-410" />
<missing-glyph horiz-adv-x="500" />
<glyph />
<glyph />
<glyph unicode="&#xd;" />
<glyph />
<glyph />
<glyph />
<glyph />
<glyph />
<glyph />
<glyph />
<glyph />
<glyph unicode="&#x9;" />
<glyph unicode="&#xa;" />
<glyph />
<glyph />
<glyph />
<glyph />
<glyph />
<glyph />
<glyph />
<glyph />
<glyph />
<glyph />
<glyph />
<glyph />
<glyph />
<glyph />
<glyph />
<glyph />
<glyph />
<glyph />
<glyph />
<glyph />
<glyph unicode=" " />
<glyph unicode="!" d="M487 0v276h290v-276h-290zM487 1614h290l-89 -1125h-112z" />
<glyph unicode="&#x22;" d="M285 1568h233l-51 -532h-143zM654 1568h231l-51 -532h-141z" />
<glyph unicode="#" d="M45 437l13 136h229l80 423h-225l14 134h236l86 438h163l-85 -438h250l84 438h162l-86 -438h175l-17 -133h-184l-85 -424h187l-15 -136h-195l-91 -462h-162l88 462h-247l-90 -462h-163l94 462h-216zM446 573h250l84 424h-251z" />
<glyph unicode="$" d="M182 111l76 176q115 -94 282 -121l65 572q-161 66 -229 111q-162 106 -181 282q-3 25 -3 53q0 197 134 306t345 109q20 0 31 -1l21 186h127l-23 -198q150 -28 254 -109l-73 -160q-85 63 -201 87l-59 -513l30 -12q64 -29 110.5 -54.5t98.5 -66t84 -86t53 -111t21 -144.5 q0 -214 -133 -328t-358 -114h-10l-18 -161h-126l19 170q-187 27 -337 127zM410 1180q0 -88 58 -143t159 -98l54 478q-3 0 -10 0.5t-11 0.5q-116 0 -182 -62t-68 -176zM665 157q125 1 191 70.5t66 199.5q0 95 -52.5 156t-144.5 105z" />
<glyph unicode="%" d="M0 1155q0 81 16.5 153t49 132t89 95.5t130.5 35.5q72 0 126.5 -34.5t85.5 -94.5t45.5 -130.5t14.5 -151.5q0 -113 -32 -206.5t-97 -151t-152 -57.5q-72 0 -127 35t-86.5 95t-47 130.5t-15.5 149.5zM105 -6l898 1565h145l-900 -1565h-143zM135 1156q0 -54 6 -99.5 t20.5 -91t45 -72t73.5 -26.5q42 0 72 27.5t45 74t21.5 93.5t6.5 98q0 53 -6 98.5t-20.5 91.5t-44.5 72.5t-73 26.5t-73.5 -27.5t-45.5 -73.5t-21 -92.5t-6 -99.5zM696 381q0 177 76.5 297t207.5 120q72 0 127 -35t85.5 -94.5t45.5 -130t15 -151.5q0 -114 -32.5 -207.5 t-97.5 -151.5t-152 -58q-72 0 -126.5 35t-86 95t-47 130.5t-15.5 150.5zM831 380q0 -53 6 -98.5t20.5 -91t45 -71.5t73.5 -26t73 27.5t44.5 74t20.5 93t6 99.5q0 288 -144 288q-43 0 -73.5 -27.5t-45 -74.5t-20.5 -93.5t-6 -99.5z" />
<glyph unicode="&#x26;" d="M61 413q0 279 285 468l-22 29q-13 16 -48.5 58t-52.5 66t-40.5 64.5t-34 84.5t-10.5 94q0 77 33 139t89 100t124.5 58t144.5 20q78 0 149.5 -20.5t129.5 -60t92.5 -102.5t34.5 -141q0 -64 -20.5 -122.5t-51.5 -101.5t-78 -84t-88 -68t-93 -56l361 -472q77 91 104 171 l153 -98q-51 -119 -146 -219l117 -152l-155 -92l-100 130q-198 -131 -420 -131q-213 0 -335 114t-122 324zM283 424q0 -134 65 -207.5t193 -73.5q152 0 292 100l-384 503q-166 -126 -166 -322zM341 1278q0 -45 17.5 -91.5t32.5 -69.5t53 -71.5t44 -56.5l21 -28 q48 27 82 51.5t69.5 60.5t54 83.5t18.5 103.5q0 84 -64 133.5t-147 49.5q-75 0 -128 -43t-53 -122z" />
<glyph unicode="'" d="M496 1580h259l-55 -611h-142z" />
<glyph unicode="(" d="M295 772q0 516 302 933h214q-284 -448 -284 -924q0 -267 74.5 -491t211.5 -442h-213q-305 407 -305 924z" />
<glyph unicode=")" d="M297 -152q137 218 211.5 442t74.5 491q0 476 -284 924h214q302 -417 302 -933q0 -517 -305 -924h-213z" />
<glyph unicode="*" d="M49 899l94 180l413 -213l-36 464h202l-31 -464l409 213l96 -180l-457 -147l327 -378l-185 -104l-261 403l-256 -403l-187 104l327 378z" />
<glyph unicode="+" d="M152 676v151h500v459h162v-459h497v-151h-498v-459h-165v459h-496z" />
<glyph unicode="," d="M440 -313l51 599h297l-206 -599h-142z" />
<glyph unicode="-" d="M323 672v155h670v-155h-670z" />
<glyph unicode="." d="M463 0v301h301v-301h-301z" />
<glyph unicode="/" d="M211 -224l703 1809h197l-709 -1809h-191z" />
<glyph unicode="0" d="M123 747q0 83 7.5 161.5t25 156t43.5 143.5t65.5 123.5t89 98t116 63.5t144.5 23t144.5 -23t116 -63.5t89 -98t65.5 -123.5t43.5 -143.5t25 -156t7.5 -161.5q0 -125 -18 -238t-57.5 -211t-96 -169.5t-138.5 -112.5t-181 -41t-181 41t-138.5 112.5t-96 169.5t-57.5 211 t-18 238zM319 746q0 -267 72 -433l358 997q-59 53 -135 53q-95 0 -163 -83.5t-100 -220.5t-32 -313zM487 176q57 -46 127 -46q95 0 163 83t100 220t32 313q0 259 -68 424z" />
<glyph unicode="1" d="M225 1106v181q206 85 376 205h188v-1492h-187v1290q-220 -124 -377 -184z" />
<glyph unicode="2" d="M186 1385q166 131 410 131q218 0 350 -123t132 -315q0 -56 -14.5 -110t-31 -91.5t-53 -87t-56.5 -72.5t-66 -72t-59 -63l-396 -436h661v-146h-867v191l460 542q5 5 41.5 47t47.5 56t39 52.5t39 63t21.5 61t10.5 70.5q0 123 -68 190.5t-189 67.5q-194 0 -341 -122z" />
<glyph unicode="3" d="M161 113l70 160q52 -45 148.5 -80.5t197.5 -35.5q97 0 167.5 30.5t110.5 93t40 151.5q0 38 -9 71t-26 59t-40 47.5t-52 37t-61.5 27t-70 18t-75 10t-78.5 3.5h-110v178l110 2q81 1 141 12t112.5 36.5t80 74.5t27.5 120q0 106 -70.5 163.5t-200.5 57.5q-197 0 -341 -128 l-69 161q158 134 434 134q206 0 337 -101t131 -272q0 -74 -26.5 -133.5t-74 -99t-103 -65.5t-122.5 -42q59 -10 112 -30t103 -53t86 -76t58 -102.5t22 -128.5q0 -89 -28.5 -160.5t-78.5 -120t-120 -81.5t-151.5 -48t-174.5 -15q-120 0 -225.5 34.5t-180.5 90.5z" />
<glyph unicode="4" d="M61 398v143l606 951h230v-954h242v-140h-242v-398h-187v398h-649zM250 538h460v744z" />
<glyph unicode="5" d="M168 121l74 154q180 -145 373 -145q70 0 127.5 31.5t93 84t54.5 116.5t19 132q0 62 -16 117.5t-46.5 100t-80.5 71t-112 26.5q-25 0 -48 -6t-40.5 -16t-33 -21.5t-26 -23t-18 -21.5t-10.5 -16l-4 -6h-210v793h723v-146h-535v-466q4 4 11.5 10.5t31.5 23t48.5 29t60.5 23 t70 10.5q85 0 157 -26.5t122.5 -72.5t86 -107.5t53 -131t17.5 -143.5q0 -78 -19 -152.5t-58 -140.5t-94.5 -116t-134.5 -79.5t-171 -29.5q-151 0 -259.5 36t-205.5 108z" />
<glyph unicode="6" d="M154 472q0 255 164 466l454 554h242l-540 -640q40 25 99.5 42t116.5 17q193 0 308.5 -130.5t115.5 -331.5q0 -109 -39.5 -200t-105.5 -150.5t-151 -92t-178 -32.5q-229 0 -357.5 133.5t-128.5 364.5zM352 437q0 -133 79 -221t209 -87q126 1 204 91t78 225t-73.5 227.5 t-198.5 92.5q-142 0 -220 -93.5t-78 -234.5z" />
<glyph unicode="7" d="M143 1323v169h885v-145l-424 -1347h-232l418 1323h-647z" />
<glyph unicode="8" d="M181 406q0 98 45.5 176.5t112.5 124t152 71.5q-280 98 -280 364q0 174 117 274t298 100t298.5 -100t117.5 -274q0 -266 -280 -364q63 -19 116.5 -50t97.5 -76.5t69 -108.5t25 -137q0 -204 -118.5 -317t-325.5 -113t-326 113t-119 317zM396 378q0 -117 59.5 -182.5 t170.5 -65.5t171 65.5t60 182.5q0 231 -231 300q-230 -70 -230 -300zM404 1150q0 -118 58 -182.5t164 -93.5q106 29 164.5 93.5t58.5 182.5q0 97 -62.5 155t-160.5 58q-97 0 -159.5 -58.5t-62.5 -154.5z" />
<glyph unicode="9" d="M193 1052q0 144 67.5 252t173.5 160.5t231 52.5q230 0 359 -129.5t129 -358.5q0 -234 -164 -446l-450 -583h-242l534 669q-40 -25 -99.5 -42t-116.5 -17q-194 0 -308 121.5t-114 320.5zM383 1056q0 -134 73 -220t199 -86q143 0 220.5 87.5t77.5 226.5q0 132 -78 215.5 t-208 83.5q-126 0 -205 -86.5t-79 -220.5z" />
<glyph unicode=":" d="M487 144v301h301v-301h-301zM487 830v300h301v-300h-301z" />
<glyph unicode=";" d="M410 -313l76 599h272l-168 -599h-180zM479 838v301h299v-301h-299z" />
<glyph unicode="&#x3c;" d="M152 689v118l1026 514v-179l-783 -393l779 -382v-177z" />
<glyph unicode="=" d="M34 898v150h1160v-150h-1160zM35 457v148h1160v-148h-1160z" />
<glyph unicode="&#x3e;" d="M152 213v167l781 373l-775 402v166l1020 -527v-95z" />
<glyph unicode="?" d="M168 1377v158q150 71 279 71q86 0 160 -12t140 -40t112 -70.5t73 -107t27 -145.5q0 -73 -30.5 -132t-82.5 -120q-30 -35 -94 -97.5t-109.5 -107.5t-82.5 -106t-37 -112q0 -57 19 -156h-182q-11 86 -11 169l-1 1q0 62 21 116t59 96.5t75 74.5t85.5 71t74.5 65 q52 53 81 105.5t29 123.5q0 61 -26.5 107t-73.5 71.5t-103.5 38t-122.5 12.5q-142 0 -279 -74zM328 -12v228h242v-228h-242z" />
<glyph unicode="@" d="M31 643q0 202 60.5 377.5t164.5 298t247 192.5t304 70q105 0 190.5 -35.5t144 -97t98.5 -147t58.5 -183.5t18.5 -208q0 -183 -56 -339.5t-153 -241.5q-59 -52 -120 -52q-79 0 -123 51.5t-54 135.5q-113 -195 -224 -195q-61 0 -106 32t-70 87.5t-36.5 120.5t-11.5 141 q0 143 40 273.5t116 215.5t169 85q62 0 104.5 -47.5t68.5 -114.5l21 127h135q-10 -80 -36 -206t-43.5 -240t-17.5 -220q0 -47 22 -92t57 -45q47 0 84 63t56.5 155t29.5 176t10 144q0 148 -43 266t-130.5 189.5t-206.5 71.5q-251 0 -423 -227q-82 -109 -129.5 -258.5 t-47.5 -324.5q0 -182 52 -325t158.5 -229t253.5 -86q237 0 443 172l88 -76q-239 -228 -542 -228q-107 0 -199 32.5t-158.5 89.5t-118 132t-83 162.5t-47 177t-15.5 180.5zM516 620q0 -226 98 -226q61 0 123 148q65 156 65 348q0 191 -104 191q-50 0 -88 -50t-57 -126.5 t-28 -148.5t-9 -136z" />
<glyph unicode="A" d="M40 0l460 1491h228l461 -1491h-205l-151 473h-439l-150 -473h-204zM433 636h362l-178 590z" />
<glyph unicode="B" d="M135 0v1491h248q72 0 133.5 -4t127 -14.5t118 -27.5t101 -45.5t80.5 -66t51 -90.5t19 -118q0 -122 -69.5 -203.5t-187.5 -113.5q144 -29 238.5 -121.5t94.5 -228.5q0 -103 -30 -182t-82.5 -131t-130 -85t-166.5 -46.5t-198 -13.5h-347zM322 146h129q77 0 139.5 8 t120 28.5t97 53t62.5 84.5t23 120q0 64 -19 111.5t-52 77.5t-83.5 48t-107 24.5t-129.5 6.5h-180v-562zM322 874h144q351 0 351 216q0 50 -14.5 89.5t-37 66t-61 45.5t-76 29.5t-93.5 16t-101.5 7t-111.5 1.5v-471z" />
<glyph unicode="C" d="M129 750q0 225 75 399t214 270.5t321 96.5q264 0 420 -127l-70 -131q-144 105 -330 105q-91 0 -164.5 -33t-123 -89.5t-83 -135.5t-48.5 -168t-15 -189q0 -130 27 -241t79 -196t136 -133t191 -48q184 0 333 114l69 -141q-156 -128 -421 -128q-193 0 -333 104.5 t-208.5 277.5t-68.5 393z" />
<glyph unicode="D" d="M135 0v1491h207q359 0 550 -194.5t191 -550.5q0 -361 -193.5 -553.5t-566.5 -192.5h-188zM322 146q565 0 565 601q0 598 -565 598v-1199z" />
<glyph unicode="E" d="M217 0v1491h891l-16 -146h-688v-502h655v-159h-655v-538h737l-15 -146h-909z" />
<glyph unicode="F" d="M244 0v1491h865l-18 -146h-660v-499h634v-163h-634v-683h-187z" />
<glyph unicode="G" d="M117 750q0 222 67.5 394.5t200 272.5t311.5 100q279 0 430 -129l-70 -161q-149 136 -342 136q-107 0 -187 -52t-125.5 -141t-67 -195t-21.5 -227q0 -125 24.5 -234.5t72 -196.5t125.5 -137t179 -50q142 0 287 87v408h-347v153h520v-646q-113 -72 -227.5 -114.5 t-250.5 -42.5q-142 0 -254.5 61.5t-182.5 168.5t-106 245.5t-36 299.5z" />
<glyph unicode="H" d="M140 0v1491h187v-636h575v636h187v-1491h-187v702h-575v-702h-187z" />
<glyph unicode="I" d="M194 0v146h323v1199h-323v146h841v-146h-331v-1199h331v-146h-841z" />
<glyph unicode="J" d="M137 -26v160h213q128 0 176 59t48 198v954h-345v146h831v-146h-299v-902q0 -125 -18.5 -210t-63 -144.5t-120 -87t-188.5 -27.5h-234z" />
<glyph unicode="K" d="M211 0v1491h187v-718l530 718h233l-500 -668l583 -823h-238l-489 700l-119 -139v-561h-187z" />
<glyph unicode="L" d="M233 0v1491h187v-1345h709v-146h-896z" />
<glyph unicode="M" d="M149 0v1491h255l213 -689l213 689h249v-1491h-181v1230l-177 -584h-209l-177 584v-1230h-186z" />
<glyph unicode="N" d="M150 0v1491h215l546 -1202v1202h167v-1491h-220l-538 1206v-1206h-170z" />
<glyph unicode="O" d="M123 747q0 118 15 225t51 208t91 174.5t140.5 117.5t193.5 44t193.5 -44t140.5 -117.5t91 -174.5t51 -208t15 -225q0 -157 -29.5 -294t-88 -245t-154.5 -170.5t-219 -62.5t-219 62.5t-154.5 170.5t-88 245t-29.5 294zM319 746q0 -176 32 -313t100 -220t163 -83t163 83 t100 220t32 313t-32 313t-100 220.5t-163 83.5t-163 -83.5t-100 -220.5t-32 -313z" />
<glyph unicode="P" d="M176 0v1491h412q101 0 187.5 -13t164.5 -44.5t132.5 -80t86.5 -122.5t32 -169q0 -70 -14 -128t-36.5 -101.5t-61.5 -78t-80 -58t-101 -40.5t-114 -26t-130.5 -14.5t-139.5 -7t-151 -1.5v-607h-187zM363 769h289q146 0 244.5 73.5t98.5 210.5q0 75 -26.5 132t-73.5 91.5 t-106.5 51.5t-129.5 17h-296v-576z" />
<glyph unicode="Q" d="M84 747q0 83 7.5 161.5t25 156t43.5 143.5t65.5 123.5t89 98t116 63.5t144.5 23t144.5 -23t116 -63.5t89 -98t65.5 -123.5t43.5 -143.5t25 -156t7.5 -161.5q0 -124 -18.5 -235.5t-54.5 -208t-94.5 -170t-134.5 -113.5q93 -187 276 -350l-124 -128q-213 206 -327 433h-14 q-123 0 -219 62.5t-154.5 170.5t-88 245t-29.5 294zM280 746q0 -176 32 -313t100 -220t163 -83t163 83t100 220t32 313t-32 313t-100 220.5t-163 83.5t-163 -83.5t-100 -220.5t-32 -313z" />
<glyph unicode="R" d="M186 0v1491h290q94 0 168 -5.5t150.5 -20.5t131.5 -43.5t99.5 -71.5t67 -108t22.5 -149q0 -158 -90.5 -255.5t-240.5 -130.5q53 -49 99.5 -112.5t89 -144.5t70.5 -142t71 -161t64 -147l-217 -1q-23 50 -74.5 169.5t-81.5 184.5t-83.5 152t-110.5 148q-53 9 -151 9h-87 v-662h-187zM373 824h144q390 0 390 267q0 68 -27 118.5t-75.5 79.5t-108.5 42.5t-133 13.5h-190v-521z" />
<glyph unicode="S" d="M141 94l71 167q160 -131 381 -131q120 0 185 73.5t65 200.5q0 37 -9.5 69t-23.5 56t-39.5 47t-46.5 37.5t-55.5 31.5t-57 26l-60 24t-55.5 23q-62 26 -103.5 46.5t-91.5 56.5t-80 75t-50.5 97.5t-20.5 129.5q0 187 127 290.5t327 103.5q252 0 393 -111l-70 -144 q-60 47 -140.5 74t-172.5 27q-118 0 -187.5 -64.5t-69.5 -177.5q0 -44 18 -81.5t43 -62t66.5 -48.5t72.5 -36.5t79 -31t70 -28.5q60 -27 103 -49.5t92.5 -60t80.5 -78.5t51.5 -100.5t20.5 -129.5q0 -215 -124.5 -327.5t-340.5 -112.5q-269 0 -448 119z" />
<glyph unicode="T" d="M30 1345v146h1169v-146h-494v-1345h-187v1345h-488z" />
<glyph unicode="U" d="M129 542v949h187v-943q0 -75 8 -135t28 -114.5t53 -90.5t86 -57t123 -21t123 21t86 57t53 90.5t28 114.5t8 135v943h187v-949q0 -567 -485 -567t-485 567z" />
<glyph unicode="V" d="M57 1491h205l355 -1268l350 1268h205l-450 -1491h-217z" />
<glyph unicode="W" d="M13 1491h198l119 -1278l192 667h213l189 -670l97 1281h195l-158 -1490h-249l-181 702l-203 -702h-246z" />
<glyph unicode="X" d="M52 0l447 762l-407 729h248l289 -599l312 599h228l-420 -728l428 -763h-244l-322 632l-325 -632h-234z" />
<glyph unicode="Y" d="M49 1491h226l335 -703l339 703h231l-465 -898v-593h-212v593z" />
<glyph unicode="Z" d="M102 0v143l647 1202h-612v146h867v-127l-661 -1218h652v-146h-893z" />
<glyph unicode="[" d="M387 -131v1856q1 4 5 5h514q4 -1 5 -5v-132q-1 -4 -5 -5h-330v-1582h331q4 -1 5 -5v-132q-1 -4 -5 -5h-515q-4 1 -5 5z" />
<glyph unicode="\" d="M211 1761h184l705 -1809h-180z" />
<glyph unicode="]" d="M172 1q1 4 5 5h331v1582h-330q-4 1 -5 5v132q1 4 5 5h514q4 -1 5 -5v-1856q-1 -4 -5 -5h-515q-4 1 -5 5v132z" />
<glyph unicode="^" d="M111 597l533 957h113l539 -957h-171l-427 771l-414 -771h-173z" />
<glyph unicode="_" d="M4 -157h1072v-139h-1072v139z" />
<glyph unicode="`" d="M418 1705h236l283 -437h-139z" />
<glyph unicode="a" d="M177 280q0 57 16 102.5t42 76.5t68 54t86 36.5t104 21t114 10t123 2.5h146v173q0 242 -240 242q-198 0 -364 -84l-44 141q178 75 427 75q183 0 293 -83t110 -256v-791h-159l-24 84q-184 -109 -339 -109q-156 0 -257.5 80.5t-101.5 224.5zM355 289q0 -84 50 -132.5 t137 -48.5q133 0 334 79v281h-149q-49 0 -83.5 -1.5t-82.5 -6.5t-80.5 -17t-63.5 -31t-46.5 -50.5t-15.5 -72.5z" />
<glyph unicode="b" d="M128 0v1565h182v-619q58 90 138 137t204 47q113 0 201.5 -44t144 -121t84.5 -178t29 -219q0 -123 -27.5 -228t-81.5 -188t-143.5 -130t-205.5 -47q-118 0 -198.5 45.5t-144.5 129.5l-2 -150h-180zM310 555q0 -93 17 -169t53 -138.5t100 -97t151 -34.5q67 0 119 25.5 t85 67t54.5 100t30 118.5t8.5 128q0 435 -297 435q-321 0 -321 -435z" />
<glyph unicode="c" d="M118 556q0 262 151 418t411 156q235 0 387 -110l-69 -147q-132 117 -307 117q-182 0 -271.5 -115t-89.5 -318q0 -207 90 -324.5t274 -117.5q174 0 304 95l69 -125q-147 -110 -387 -110q-265 0 -413.5 156t-148.5 425z" />
<glyph unicode="d" d="M118 568q0 118 29 219t84.5 178t144 121t201.5 44q124 0 204 -47t138 -137v619h182v-1565h-180l-2 150q-64 -84 -144.5 -129.5t-198.5 -45.5q-116 0 -205.5 47t-143.5 130t-81.5 188t-27.5 228zM301 555q0 -68 8.5 -128.5t30 -118.5t54.5 -100t85 -67.5t119 -25.5 q87 0 151 35t100 97.5t53 138.5t17 169q0 435 -321 435q-297 0 -297 -435z" />
<glyph unicode="e" d="M143 555q0 96 21 183t63 158.5t100.5 123.5t137 81t169.5 29q85 0 154 -29.5t116 -80t79 -120.5t46.5 -150t14.5 -169l-1 -61h-716q2 -55 10.5 -104t24.5 -95t40.5 -83t56.5 -65t76 -43t97 -15q182 0 310 134l80 -124q-83 -75 -176 -112.5t-227 -37.5q-79 0 -147 20.5 t-120 58.5t-92 90.5t-65.5 117.5t-38.5 138.5t-13 154.5zM333 653h537q-20 337 -236 337q-72 0 -127.5 -27t-90 -75.5t-55 -106.5t-28.5 -128z" />
<glyph unicode="f" d="M156 957v140h343q0 79 3.5 133.5t14.5 110t32 90.5t55 67t84 49.5t118.5 27.5t159.5 10h174v-161h-198q-75 0 -121 -8.5t-79.5 -33t-47 -68t-13.5 -114.5v-103h459v-140h-459v-817h355v-140h-856v140h319v817h-343z" />
<glyph unicode="g" d="M118 556q0 166 49 293t154.5 204t257.5 77q208 0 319 -182l6 149h185q-9 -245 -9 -651v-294q0 -180 -36 -294.5t-126.5 -187.5t-233 -102t-367.5 -29v140q112 0 190.5 7t147.5 26t112 51t74 83.5t44 122.5t13 168v73q-33 -85 -123 -147.5t-200 -62.5q-112 0 -200.5 44 t-143.5 120.5t-84 176.5t-29 215zM301 550q0 -75 16 -141.5t49 -123t91 -90t134 -33.5q84 0 146 33.5t96 91.5t49.5 124.5t15.5 144.5q0 434 -299 434q-298 0 -298 -440z" />
<glyph unicode="h" d="M160 0v1565h182v-614q33 43 60 70.5t67 55t92.5 40.5t118.5 13q92 0 159 -34t106.5 -97.5t58 -147t18.5 -189.5v-662h-182v639q0 62 -4 108t-16.5 94.5t-34 79t-59.5 50t-90 19.5q-63 0 -120.5 -29.5t-94 -71.5t-58 -84.5t-21.5 -71.5v-733h-182z" />
<glyph unicode="i" d="M197 0v140h409v817h-340v140h522v-957h397v-140h-988zM576 1386v99q0 36 40 63.5t81 27.5t81 -27.5t40 -63.5v-99q0 -36 -40 -63.5t-81 -27.5t-81 27.5t-40 63.5z" />
<glyph unicode="j" d="M135 -220h275q49 0 80.5 4t56.5 17t38.5 31.5t22 54t11 77t2.5 107.5v886h-485v140h667v-970q0 -82 -2 -131t-10 -107.5t-24 -91t-44 -67.5t-70 -51.5t-102 -27.5t-140 -11h-276v140zM589 1386v99q0 36 40 63.5t81 27.5t81 -27.5t40 -63.5v-99q0 -36 -40 -63.5t-81 -27.5 t-81 27.5t-40 63.5z" />
<glyph unicode="k" d="M200 0v1565h182v-917l542 449h240l-540 -456l542 -641h-228l-444 546l-112 -95v-451h-182z" />
<glyph unicode="l" d="M125 0v140h481v1285h-411v140h593v-1425h471v-140h-1134z" />
<glyph unicode="m" d="M48 0v1097h152l13 -165q13 34 33 66.5t47.5 63.5t64 49.5t75.5 18.5q52 0 92 -17t65.5 -49.5t40.5 -65.5t27 -78q24 41 36.5 60.5t41.5 53.5t55.5 51t68.5 31t91 14q60 0 105.5 -25t72 -64t43 -97t22 -115t5.5 -126v-703h-176v602q0 46 -1 79t-4.5 83.5t-12.5 85.5 t-22.5 69.5t-36.5 52.5t-53 18q-46 0 -81 -21t-55 -53t-33 -75t-17 -81.5t-4 -79.5v-680h-170v638q0 352 -139 352q-53 0 -93 -44t-58.5 -104t-18.5 -121v-721h-176z" />
<glyph unicode="n" d="M217 0v1097h167l10 -139q57 79 132 125.5t189 46.5q341 0 341 -432v-698h-182v640v13v58t-2 53.5t-6 53t-11.5 46.5t-18.5 43t-28 33.5t-39 27.5t-51.5 15.5t-66.5 6.5q-106 0 -179 -71.5t-73 -186.5v-732h-182z" />
<glyph unicode="o" d="M118 551q0 260 136 419.5t358 159.5q160 0 274 -76t169 -203.5t55 -292.5q0 -261 -137.5 -422t-360.5 -161q-118 0 -213 45t-155.5 123.5t-93 182.5t-32.5 225zM302 550q0 -84 17 -158.5t52 -138t97 -101t144 -37.5q85 0 148 37t98.5 101t52.5 139t17 161q0 68 -10 129 t-33.5 118t-59 98.5t-90.5 66.5t-123 25q-82 0 -144 -38t-97 -102.5t-52 -140t-17 -159.5z" />
<glyph unicode="p" d="M128 -441v1538h182v-151q58 90 138 137t204 47q113 0 201.5 -44t144 -121t84.5 -178t29 -219q0 -123 -27.5 -228t-81.5 -188t-143.5 -130t-205.5 -47q-118 0 -198.5 45.5t-144.5 129.5l-2 -591h-180zM310 555q0 -93 17 -169t53 -138.5t100 -97.5t151 -35q67 0 119 25.5 t85 67.5t54.5 100t30 118.5t8.5 128.5q0 435 -297 435q-321 0 -321 -435z" />
<glyph unicode="q" d="M118 568q0 118 29 219t84.5 178t144 121t201.5 44q124 0 204 -47t138 -137v151h182v-1538h-180l-2 591q-64 -84 -144.5 -129.5t-198.5 -45.5q-116 0 -205.5 47t-143.5 130t-81.5 188t-27.5 228zM301 555q0 -68 8.5 -128.5t30 -118.5t54.5 -100t85 -67.5t119 -25.5 q87 0 151 35t100 97.5t53 138.5t17 169q0 435 -321 435q-297 0 -297 -435z" />
<glyph unicode="r" d="M140 0v140h340v817h-224v140h373l15 -203q137 236 408 236h137v-169h-163q-173 0 -268.5 -87t-95.5 -264v-470h389v-140h-911z" />
<glyph unicode="s" d="M203 76l58 155q134 -95 360 -95q57 0 100.5 7t82.5 24.5t59.5 52t20.5 84.5q0 34 -17.5 62t-42 44.5t-65 32t-70 22.5t-75 16.5t-64.5 14.5q-57 15 -100 30t-89.5 41.5t-76 59t-49 82t-19.5 110.5q0 78 34 139t92 97.5t131 55.5t155 19q253 0 403 -69l-58 -147 q-137 76 -336 76q-90 0 -150 -39.5t-60 -125.5q0 -35 17.5 -63.5t41.5 -45.5t64 -32t70 -22t75.5 -17t65.5 -15q60 -16 100 -29.5t88.5 -39t77 -55.5t48.5 -78.5t20 -108.5q0 -88 -37.5 -155.5t-102 -108t-145.5 -60.5t-174 -20q-293 0 -433 101z" />
<glyph unicode="t" d="M209 957v140h290v378l182 54v-432h490v-140h-490v-515q0 -87 17.5 -145t57 -93t97 -49.5t142.5 -14.5h187v-140h-180q-149 0 -244.5 25t-154 86t-81.5 152.5t-23 234.5v459h-290z" />
<glyph unicode="u" d="M190 404v693h182v-709q0 -124 61 -198.5t181 -74.5t181 74.5t61 198.5v709h182v-693q0 -200 -112.5 -314.5t-311.5 -114.5t-311.5 114.5t-112.5 314.5z" />
<glyph unicode="v" d="M87 1097h210l321 -908q87 237 321 908h202l-427 -1097h-203z" />
<glyph unicode="w" d="M24 1097h183l139 -877l175 877h217l159 -874l135 874h172l-221 -1097h-192l-163 883l-196 -883h-186z" />
<glyph unicode="x" d="M140 0l360 560l-342 537h208l261 -422l261 422h189l-337 -532l349 -565h-202l-268 437l-279 -437h-200z" />
<glyph unicode="y" d="M94 1097h218l340 -892l331 892h201q-341 -841 -431 -1080q-3 -6 -23 -75q-26 -93 -78 -159.5t-128 -107.5t-163 -63.5t-201 -34.5v156q73 8 121.5 16.5t102 28.5t85.5 50t54.5 79.5t25.5 116.5q-139 319 -252.5 587t-158.5 377z" />
<glyph unicode="z" d="M193 0v142l559 815h-539v140h767v-138l-578 -819h615v-140h-824z" />
<glyph unicode="{" d="M225 709v135q129 8 209 72t80 181v233q0 197 82.5 287t276.5 89l228 -1v-136h-228q-32 0 -55.5 -8t-38 -25.5t-23.5 -36.5t-13.5 -50t-5.5 -55.5t-1 -63.5v-241q0 -58 -12 -103.5t-31 -76t-53 -56t-66.5 -41.5t-83.5 -36q51 -20 83.5 -36t66.5 -41.5t53 -55.5t31 -75.5 t12 -103.5v-241q0 -47 1.5 -76t9 -64t22 -54t40.5 -32.5t64 -13.5h228v-135l-228 -1q-194 -1 -276.5 89t-82.5 287v232q0 117 -80.5 181.5t-208.5 72.5z" />
<glyph unicode="|" d="M530 -441v2026h161v-2026h-161z" />
<glyph unicode="}" d="M227 -17h229q38 0 64 13.5t40.5 32.5t22 54t9 64t1.5 76v241q0 72 16 123.5t52 86.5t74.5 56t102.5 46q-51 20 -83.5 36t-66.5 41.5t-52.5 56t-30.5 76t-12 103.5v241q0 39 -1 63.5t-5.5 55.5t-13.5 50t-23.5 36.5t-38 25.5t-55.5 8h-229v136l229 1q194 1 276.5 -89 t82.5 -287v-233q0 -117 80 -181t209 -72v-135q-128 -8 -208.5 -72.5t-80.5 -181.5v-232q0 -197 -82.5 -287t-276.5 -89l-229 1v135z" />
<glyph unicode="~" d="M152 844q12 58 31 108t50.5 97t79.5 74t107 27q46 0 103 -14.5t83 -24t92 -36.5q7 -3 47.5 -19.5l54 -22t48.5 -19t55.5 -20.5t50 -16t54.5 -15q14 -4 23 -4q23 0 41.5 12.5t29.5 29t20.5 44.5t13.5 46.5t10 47.5q1 7 2 11l184 -42q-8 -36 -12 -54.5t-13 -51.5 t-16.5 -51.5t-20 -45t-25.5 -42t-32 -33.5t-40 -27t-49 -15.5t-60 -6.5q-24 0 -49 4t-54 13t-47.5 15t-53 19.5t-45.5 17.5q-279 103 -332 119q-15 5 -28 5q-93 0 -121 -190z" />
<glyph />
<glyph />
<glyph />
<glyph />
<glyph />
<glyph />
<glyph unicode="&#x85;" />
<glyph />
<glyph />
<glyph />
<glyph />
<glyph />
<glyph />
<glyph />
<glyph />
<glyph />
<glyph />
<glyph />
<glyph />
<glyph />
<glyph />
<glyph />
<glyph />
<glyph />
<glyph />
<glyph />
<glyph />
<glyph />
<glyph />
<glyph />
<glyph />
<glyph />
<glyph />
<glyph unicode="&#xa0;" />
<glyph unicode="&#xa1;" d="M487 959v225h236v-225h-236zM542 -417v1170h173v-1170h-173z" />
<glyph unicode="&#xa2;" d="M172 545q0 132 41.5 242t113 184.5t167 118t205.5 49.5l15 229h143l-16 -235q194 -26 287 -149l-82 -116q-76 94 -213 120l-54 -871q173 9 306 127l51 -150q-145 -112 -369 -118l-15 -253h-126v259q-210 30 -332 179.5t-122 383.5zM364 553q0 -167 69.5 -278.5 t201.5 -143.5l55 857q-150 -23 -238 -142.5t-88 -292.5z" />
<glyph unicode="&#xa3;" d="M119 150q64 36 105.5 74.5t69 103.5t27.5 150v271h-202v154h201q-7 59 -7 123q0 162 52 283t164 192t275 71q239 0 364 -99l-58 -130q-122 75 -304 75q-302 0 -302 -390l4 -125h366v-154h-363q0 -23 0.5 -71t0.5 -73q0 -110 -6 -185t-32 -152.5t-73 -114.5h787v-153 h-1068z" />
<glyph unicode="&#xa4;" d="M174 712q0 136 53.5 233t149.5 148l-167 302l44 17l166 -302q68 31 156 31q79 0 152 -19l114 290l46 -17l-115 -289q229 -101 229 -386l1 -1q0 -120 -46.5 -212.5t-126.5 -143.5l166 -303l-38 -18l-166 300q-102 -46 -186 -46q-94 0 -143 14l-106 -268l-41 18l103 266 q-114 44 -179.5 142.5t-65.5 243.5zM276 715q0 -152 84.5 -247t230.5 -95t228 95.5t82 247.5q0 156 -82 251t-232 95q-145 0 -228 -97.5t-83 -249.5z" />
<glyph unicode="&#xa5;" d="M78 1541h227q41 -67 129 -210.5t154.5 -253.5t126.5 -213l412 677h207l-504 -763h402v-155h-432v-164h436v-152h-433v-307h-192v307h-440l-12 152h451v164h-447v155h408z" />
<glyph unicode="&#xa6;" d="M539 427h172v-960h-172v960zM539 735v942h172v-942h-172z" />
<glyph unicode="&#xa7;" d="M244 793q0 51 18 94t50.5 75t64.5 54t74 44q-77 45 -122.5 105t-45.5 150q0 82 33.5 142.5t93.5 95.5t134 51.5t162 16.5q100 0 253 -45l1 -160q-131 57 -249 57q-238 0 -238 -143q0 -27 8.5 -51.5t20.5 -43t33.5 -36t40 -29t46.5 -25t47 -21t48 -18.5t43 -17 q123 -52 170 -83q116 -80 117 -206q0 -50 -18 -94t-51.5 -78.5t-64 -57.5t-71.5 -48q179 -91 179 -248q0 -82 -38 -146t-102.5 -102.5t-143 -58t-165.5 -19.5q-163 0 -299 57l-1 161q149 -69 294 -69q50 0 94.5 8.5t83.5 27t62 52.5t23 79q0 32 -15.5 60t-37.5 47t-57 37 t-62 28.5t-65.5 24t-55.5 20.5q-51 21 -83 36t-76.5 43.5t-69.5 58t-44 75t-19 99.5zM439 806q0 -23 8 -44t18.5 -36.5t30.5 -32t35.5 -26.5t42 -23t41 -19t41.5 -16.5t36 -14.5q32 19 52.5 33.5t48 39t42 55t14.5 64.5q0 35 -18.5 64t-51.5 50t-64 35.5t-71.5 30.5 t-57.5 25q-147 -77 -147 -185z" />
<glyph unicode="&#xa8;" d="M330 1448q86 0 184 10q0 -86 11 -179q-90 0 -184 -11q0 87 -11 180zM765 1279q9 104 9 179q98 -10 184 -10q-12 -86 -12 -180q-96 11 -181 11z" />
<glyph unicode="&#xa9;" d="M6 788q0 128 35.5 241.5t98.5 201t140 153t169 115.5q207 111 449 111q262 0 457.5 -111t313.5 -294q123 -192 123 -418h1q0 -128 -35 -241.5t-97.5 -201t-139 -153.5t-168.5 -115q-208 -110 -449 -110q-263 0 -461 110.5t-314 292.5q-123 192 -123 419zM146 813 q0 -135 41 -252.5t111.5 -202t163.5 -145.5t198.5 -91t215.5 -30q173 0 319 53.5t245.5 146.5t154.5 220.5t55 273.5q0 134 -45 249.5t-120 196.5t-173 138.5t-204 85t-212 27.5q-214 0 -386.5 -90t-268 -243t-95.5 -337zM400 792q0 123 45 223.5t121.5 164t173.5 97.5 t204 34q191 0 325 -111l-35 -131q-121 104 -297 104q-167 0 -268 -104.5t-101 -273.5h2q0 -173 104 -277.5t277 -104.5q175 0 278 86l44 -131q-139 -98 -341 -98q-122 0 -224.5 44t-168.5 117.5t-102.5 167t-36.5 193.5z" />
<glyph unicode="&#xaa;" d="M276 1058q0 45 14 81t35.5 60t57.5 42t70 28t82.5 17.5t86 11t90 8.5t85.5 9q0 96 -35 133.5t-129 37.5q-165 0 -232 -102l-74 82q82 138 314 138q143 0 223.5 -65.5t80.5 -198.5q0 -43 -2 -127.5t-2 -126.5q0 -123 10 -233h-145l-7 80q-79 -99 -244 -99 q-119 0 -199 58.5t-80 165.5zM429 1061q0 -116 151 -116q102 0 160 64t58 169v27q-26 -5 -71 -8.5t-82 -6t-79 -11t-70.5 -21t-47.5 -37.5t-19 -60z" />
<glyph unicode="&#xab;" d="M197 588l305 404h177l-293 -404l282 -403h-173zM607 588l303 404h176l-292 -404l283 -403h-173z" />
<glyph unicode="&#xac;" d="M152 715v151h1159v-608h-165v457h-994z" />
<glyph unicode="&#xad;" />
<glyph unicode="&#xae;" d="M6 786q0 128 35.5 242t99 201t140 152.5t168.5 115.5q207 111 449 111q262 0 458 -111t313 -294q123 -193 123 -418h1q0 -128 -35 -241.5t-97.5 -201t-139 -153.5t-168.5 -115q-210 -111 -449 -111q-263 0 -461 110.5t-314 292.5q-123 192 -123 420zM146 788 q0 -137 45.5 -253.5t122 -197t177.5 -137.5t212 -83.5t225 -26.5q161 0 299 57t229 151.5t142.5 214.5t51.5 248q0 135 -41 252t-111.5 202t-163.5 146t-198 91t-214 30q-174 0 -320.5 -53.5t-245.5 -146.5t-154.5 -220.5t-55.5 -273.5zM554 296v998h301l-1 -1 q98 0 175.5 -11.5t149.5 -40t112 -86t40 -141.5q0 -121 -83 -190t-210 -84q45 -43 93.5 -105.5t72.5 -98.5t81.5 -129.5t67.5 -110.5h-186q-17 30 -49.5 88t-55.5 97.5t-54.5 87.5t-66.5 86.5t-72 65.5h-151v-425h-164zM715 848h138h14q42 0 64 0.5t58.5 3t56 8t45 16.5 t38 27t22 40t9.5 56q0 163 -206 163h-239v-314z" />
<glyph unicode="&#xaf;" d="M326 1499v140h947v-140h-947z" />
<glyph unicode="&#xb0;" d="M299 1248q0 139 104.5 229t249.5 90q102 0 184.5 -47.5t125.5 -120t43 -151.5q0 -138 -104.5 -228.5t-248.5 -90.5q-152 0 -253 99t-101 220zM438 1250q0 -85 62.5 -140.5t152.5 -55.5t152.5 55.5t62.5 140.5t-63 138.5t-152 53.5t-152 -54t-63 -138z" />
<glyph unicode="&#xb1;" d="M152 0v150h1160v-150h-1160zM152 645v150h492v406h166v-406h499v-150h-496v-403h-166v403h-495z" />
<glyph unicode="&#xb2;" d="M312 656v120q25 23 75 67t81.5 72.5t76.5 72t77 79t66 80t59 86.5q27 47 27 82h1q0 60 -43.5 90.5t-110.5 30.5q-139 0 -207 -142l-95 84q36 80 111 133t174 53q138 0 225 -62t87 -185q0 -85 -40 -156t-104 -141q-18 -20 -41 -42.5t-40 -39t-47 -42.5t-42.5 -37 t-46.5 -40t-41 -35h401v-128h-603z" />
<glyph unicode="&#xb3;" d="M313 741l66 105q93 -85 201 -85v-1q83 0 138 37t55 110q0 146 -238 146l-62 -2v130q36 0 56.5 0.5t53.5 3t52.5 7t43 14t36.5 23.5t22 35t9 48q0 122 -156 122q-104 0 -213 -84l-64 104q119 110 280 110q130 0 215 -68.5t85 -189.5q0 -122 -119 -186q142 -62 142 -215 q0 -125 -96 -197t-234 -72q-165 0 -273 105z" />
<glyph unicode="&#xb4;" d="M418 1268l261 437h232l-351 -437h-142z" />
<glyph unicode="&#xb5;" />
<glyph unicode="&#xb6;" d="M66 1227q0 83 32.5 146t85 100.5t129 61t154 32t170.5 8.5h428v-134h-96v-1601h-144v1601h-230v-1601h-157v1013q-163 2 -267.5 107t-104.5 267z" />
<glyph unicode="&#xb7;" d="M487 557v228h241v-228h-241z" />
<glyph unicode="&#xb8;" d="M428 -405l9 92q111 -26 167 -26q127 0 127 78t-122 78q-7 0 -75 -5l35 207h108l-20 -117l9 1q99 0 160.5 -39t61.5 -124q0 -168 -271 -168q-76 0 -189 23z" />
<glyph unicode="&#xb9;" d="M396 1306l1 141q95 32 185 86l116 16v-768h135v-125h-403v129h134v596q-80 -41 -168 -75z" />
<glyph unicode="&#xba;" d="M281 1220q0 175 110.5 278.5t290.5 103.5q184 0 291 -102.5t107 -282.5q0 -175 -108.5 -279.5t-287.5 -104.5q-185 0 -294 103t-109 284zM437 1218q0 -122 64.5 -195t182.5 -73q112 0 177.5 73.5t65.5 190.5q0 125 -63 198.5t-183 73.5q-116 0 -180 -73.5t-64 -194.5z " />
<glyph unicode="&#xbb;" d="M197 185l292 404l-286 403h177l298 -403l-305 -404h-176zM636 185l290 404l-281 403h172l299 -403l-307 -404h-173z" />
<glyph unicode="&#xbc;" d="M23 1306l1 141q92 30 185 86l117 16v-768h135v-125h-404v129h134v596q-91 -48 -168 -75zM242 1l1002 1559h164l-999 -1559h-167zM936 245v100l404 561h150v-545h120l11 -116h-134v-244l-133 40v204h-418zM1091 361h262q0 35 -0.5 104.5t-0.5 104.5q0 51 2 155z" />
<glyph unicode="&#xbd;" d="M2 1306l1 141q100 34 185 86l116 16v-768h136v-125h-404v129h135v596q-76 -39 -169 -75zM157 1l1003 1559h163l-1000 -1559h-166zM914 -26v120q28 25 90 80t100 90t88.5 85.5t89.5 100t69 100.5q27 47 27 82h2q0 61 -44 91.5t-112 30.5q-136 0 -207 -142l-93 85 q36 79 110 131.5t173 52.5q140 0 227 -61t87 -185q0 -85 -40 -156.5t-104 -141.5q-21 -24 -46 -48.5t-56 -52t-51 -45t-57.5 -48.5t-49.5 -42h403v-127h-606z" />
<glyph unicode="&#xbe;" d="M20 741l66 105q95 -85 201 -85v-1q83 0 138 37t55 110q0 146 -237 146l-62 -2v130q36 0 56.5 0.5t53.5 3t52 7t43 14t36.5 23.5t21.5 35t9 48q0 122 -155 122q-104 0 -213 -84l-65 104q117 110 280 110q130 0 215 -68.5t85 -189.5q0 -124 -119 -186q143 -61 143 -215 q0 -125 -96.5 -197t-235.5 -72q-162 0 -272 105zM290 -1l1003 1559h164l-1000 -1559h-167zM965 248v98l403 563h150v-546h121l11 -115h-134v-249l-133 45v204h-418zM1119 363h262v146q0 145 2 217z" />
<glyph unicode="&#xbf;" d="M168 361q0 73 30.5 132.5t82.5 120.5q30 36 94 97.5t109.5 106.5t82.5 106t37 113q0 62 -18 156h181q11 -90 11 -169l1 -1q0 -62 -21 -115.5t-59 -96.5t-74.5 -75t-85 -71t-74.5 -65q-51 -51 -80.5 -104.5t-29.5 -124.5q0 -62 26 -108t72.5 -71.5t103 -37.5t123.5 -12 q142 0 279 74v-158q-148 -71 -279 -71q-108 0 -197.5 20t-161.5 62.5t-112.5 117t-40.5 174.5zM557 1376v228h242v-228h-242z" />
<glyph unicode="&#xc0;" d="M40 0l460 1491h228l461 -1491h-205l-151 473h-439l-150 -473h-204zM164 2075h236l284 -437h-140zM433 636h362l-178 590z" />
<glyph unicode="&#xc1;" d="M40 0l460 1491h228l461 -1491h-205l-151 473h-439l-150 -473h-204zM433 636h362l-178 590zM543 1638l261 437h232l-351 -437h-142z" />
<glyph unicode="&#xc2;" d="M40 0l460 1491h228l461 -1491h-205l-151 473h-439l-150 -473h-204zM272 1638l258 349h168l258 -349h-142l-204 235l-202 -235h-136zM433 636h362l-178 590z" />
<glyph unicode="&#xc3;" d="M40 0l460 1491h228l461 -1491h-205l-151 473h-439l-150 -473h-204zM222 1652q3 114 63 179.5t171 65.5q49 0 93.5 -18.5t73.5 -40t73 -40t90 -18.5q74 0 82 105h138q-6 -111 -62 -179t-162 -68q-47 0 -91.5 18t-74.5 40t-74 40t-90 18t-68.5 -27.5t-23.5 -74.5h-138z M433 636h362l-178 590z" />
<glyph unicode="&#xc4;" d="M40 0l460 1491h228l461 -1491h-205l-151 473h-439l-150 -473h-204zM300 1818q86 0 184 10q0 -86 11 -179q-90 0 -184 -11q0 87 -11 180zM433 636h362l-178 590zM735 1649q9 104 9 179q98 -10 184 -10q-12 -86 -12 -180q-96 11 -181 11z" />
<glyph unicode="&#xc5;" d="M40 0l460 1491h228l461 -1491h-205l-151 473h-439l-150 -473h-204zM382 1710q0 92 67.5 149t166.5 57q95 0 162.5 -57.5t67.5 -148.5q0 -89 -68 -148.5t-162 -59.5q-63 0 -116.5 25.5t-85.5 73.5t-32 109zM433 636h362l-178 590zM492 1709q0 -47 30 -80.5t76 -33.5 q60 0 100 30.5t40 85.5q0 45 -33 78.5t-79 33.5q-58 0 -96 -30t-38 -84z" />
<glyph unicode="&#xc6;" d="M0 0l919 1581h1154v-161h-796l41 -530h709v-161h-687l45 -569h713v-160h-881l-36 432h-714l-251 -432h-216zM555 592h605l-66 828h-54z" />
<glyph unicode="&#xc7;" d="M129 750q0 225 75 399t214 270.5t321 96.5q264 0 420 -127l-70 -131q-144 105 -330 105q-91 0 -164.5 -33t-123 -89.5t-83 -135.5t-48.5 -168t-15 -189q0 -104 16.5 -195.5t51.5 -169.5t85.5 -134t122 -87.5t157.5 -31.5q184 0 333 114l69 -141q-139 -115 -369 -127 l-18 -103l9 1q47 0 86 -8.5t70 -27t48.5 -51t17.5 -76.5q0 -168 -271 -168q-76 0 -189 23l9 92q111 -26 167 -26q127 0 127 78t-122 78q-7 0 -75 -5l33 194q-67 6 -127.5 25.5t-111.5 50.5t-95 73.5t-78.5 94t-61.5 112t-44.5 127.5t-26.5 140t-9 150z" />
<glyph unicode="&#xc8;" d="M213 2075h236l283 -437h-139zM217 0v1491h891l-16 -146h-688v-502h655v-159h-655v-538h737l-15 -146h-909z" />
<glyph unicode="&#xc9;" d="M217 0v1491h891l-16 -146h-688v-502h655v-159h-655v-538h737l-15 -146h-909zM592 1638l260 437h232l-350 -437h-142z" />
<glyph unicode="&#xca;" d="M217 0v1491h891l-16 -146h-688v-502h655v-159h-655v-538h737l-15 -146h-909zM320 1638l259 349h167l259 -349h-143l-204 235l-202 -235h-136z" />
<glyph unicode="&#xcb;" d="M217 0v1491h891l-16 -146h-688v-502h655v-159h-655v-538h737l-15 -146h-909zM348 1818q86 0 184 10q0 -86 12 -179q-90 0 -184 -11q0 87 -12 180zM784 1649q8 104 8 179q99 -10 184 -10q-12 -86 -12 -180q-95 11 -180 11z" />
<glyph unicode="&#xcc;" d="M165 2075h236l283 -437h-139zM194 0v146h323v1199h-323v146h841v-146h-331v-1199h331v-146h-841z" />
<glyph unicode="&#xcd;" d="M194 0v146h323v1199h-323v146h841v-146h-331v-1199h331v-146h-841zM544 1638l260 437h232l-350 -437h-142z" />
<glyph unicode="&#xce;" d="M194 0v146h323v1199h-323v146h841v-146h-331v-1199h331v-146h-841zM272 1638l259 349h167l259 -349h-143l-204 235l-202 -235h-136z" />
<glyph unicode="&#xcf;" d="M194 0v146h323v1199h-323v146h841v-146h-331v-1199h331v-146h-841zM300 1818q86 0 184 10q0 -86 12 -179q-90 0 -184 -11q0 87 -12 180zM736 1649q8 104 8 179q99 -10 184 -10q-12 -86 -12 -180q-95 11 -180 11z" />
<glyph unicode="&#xd0;" d="M0 714v149h215v718h348q188 0 339 -24.5t280.5 -81.5t216.5 -147.5t136 -227t49 -314.5q0 -193 -67.5 -344t-189.5 -247t-286.5 -145.5t-364.5 -49.5h-461v714h-215zM405 160h289q321 0 504 158.5t183 463.5q0 146 -36 255.5t-101.5 182t-165.5 117.5t-219 64t-272 19 h-182v-557h228v-149h-228v-554z" />
<glyph unicode="&#xd1;" d="M150 0v1491h215l546 -1202v1202h167v-1491h-220l-538 1206v-1206h-170zM222 1652q3 114 63 179.5t171 65.5q49 0 93.5 -18.5t73.5 -40t73 -40t90 -18.5q74 0 82 105h138q-6 -111 -62 -179t-162 -68q-47 0 -91.5 18t-74.5 40t-74 40t-90 18t-68.5 -27.5t-23.5 -74.5h-138z " />
<glyph unicode="&#xd2;" d="M123 747q0 118 15 225t51 208t91 174.5t140.5 117.5t193.5 44t193.5 -44t140.5 -117.5t91 -174.5t51 -208t15 -225q0 -157 -29.5 -294t-88 -245t-154.5 -170.5t-219 -62.5t-219 62.5t-154.5 170.5t-88 245t-29.5 294zM164 2075h236l284 -437h-140zM319 746 q0 -176 32 -313t100 -220t163 -83t163 83t100 220t32 313t-32 313t-100 220.5t-163 83.5t-163 -83.5t-100 -220.5t-32 -313z" />
<glyph unicode="&#xd3;" d="M123 747q0 118 15 225t51 208t91 174.5t140.5 117.5t193.5 44t193.5 -44t140.5 -117.5t91 -174.5t51 -208t15 -225q0 -157 -29.5 -294t-88 -245t-154.5 -170.5t-219 -62.5t-219 62.5t-154.5 170.5t-88 245t-29.5 294zM319 746q0 -176 32 -313t100 -220t163 -83t163 83 t100 220t32 313t-32 313t-100 220.5t-163 83.5t-163 -83.5t-100 -220.5t-32 -313zM543 1638l261 437h232l-351 -437h-142z" />
<glyph unicode="&#xd4;" d="M123 747q0 118 15 225t51 208t91 174.5t140.5 117.5t193.5 44t193.5 -44t140.5 -117.5t91 -174.5t51 -208t15 -225q0 -157 -29.5 -294t-88 -245t-154.5 -170.5t-219 -62.5t-219 62.5t-154.5 170.5t-88 245t-29.5 294zM272 1638l258 349h168l258 -349h-142l-204 235 l-202 -235h-136zM319 746q0 -176 32 -313t100 -220t163 -83t163 83t100 220t32 313t-32 313t-100 220.5t-163 83.5t-163 -83.5t-100 -220.5t-32 -313z" />
<glyph unicode="&#xd5;" d="M123 747q0 118 15 225t51 208t91 174.5t140.5 117.5t193.5 44t193.5 -44t140.5 -117.5t91 -174.5t51 -208t15 -225q0 -157 -29.5 -294t-88 -245t-154.5 -170.5t-219 -62.5t-219 62.5t-154.5 170.5t-88 245t-29.5 294zM222 1652q3 114 63 179.5t171 65.5q49 0 93.5 -18.5 t73.5 -40t73 -40t90 -18.5q74 0 82 105h138q-6 -111 -62 -179t-162 -68q-47 0 -91.5 18t-74.5 40t-74 40t-90 18t-68.5 -27.5t-23.5 -74.5h-138zM319 746q0 -176 32 -313t100 -220t163 -83t163 83t100 220t32 313t-32 313t-100 220.5t-163 83.5t-163 -83.5t-100 -220.5 t-32 -313z" />
<glyph unicode="&#xd6;" d="M123 747q0 118 15 225t51 208t91 174.5t140.5 117.5t193.5 44t193.5 -44t140.5 -117.5t91 -174.5t51 -208t15 -225q0 -157 -29.5 -294t-88 -245t-154.5 -170.5t-219 -62.5t-219 62.5t-154.5 170.5t-88 245t-29.5 294zM300 1818q86 0 184 10q0 -86 11 -179q-90 0 -184 -11 q0 87 -11 180zM319 746q0 -176 32 -313t100 -220t163 -83t163 83t100 220t32 313t-32 313t-100 220.5t-163 83.5t-163 -83.5t-100 -220.5t-32 -313zM735 1649q9 104 9 179q98 -10 184 -10q-12 -86 -12 -180q-96 11 -181 11z" />
<glyph unicode="&#xd7;" d="M190 278l328 324l-328 322l115 112l328 -323l328 323l116 -113l-330 -321l330 -322l-116 -112l-328 321l-328 -321z" />
<glyph unicode="&#xd8;" d="M123 747q0 83 7.5 161.5t25 156t43.5 143.5t65.5 123.5t89 98t116 63.5t144.5 23q130 0 228 -63l113 264l140 -42l-141 -329q78 -106 114.5 -263t36.5 -336q0 -125 -18 -238t-57.5 -211t-96 -169.5t-138.5 -112.5t-181 -41q-124 0 -221 64l-112 -261l-135 51l136 316 q-79 106 -119 262.5t-40 339.5zM319 746q0 -229 55 -386l396 924q-66 72 -156 72q-96 0 -163.5 -81.5t-99.5 -217t-32 -311.5zM463 203q65 -67 151 -67q72 0 128.5 46.5t92.5 129.5t55 193t19 241q0 223 -51 376z" />
<glyph unicode="&#xd9;" d="M129 542v949h187v-943q0 -75 8 -135t28 -114.5t53 -90.5t86 -57t123 -21t123 21t86 57t53 90.5t28 114.5t8 135v943h187v-949q0 -567 -485 -567t-485 567zM164 2075h236l284 -437h-140z" />
<glyph unicode="&#xda;" d="M129 542v949h187v-943q0 -75 8 -135t28 -114.5t53 -90.5t86 -57t123 -21t123 21t86 57t53 90.5t28 114.5t8 135v943h187v-949q0 -567 -485 -567t-485 567zM543 1638l261 437h232l-351 -437h-142z" />
<glyph unicode="&#xdb;" d="M129 542v949h187v-943q0 -75 8 -135t28 -114.5t53 -90.5t86 -57t123 -21t123 21t86 57t53 90.5t28 114.5t8 135v943h187v-949q0 -567 -485 -567t-485 567zM272 1638l258 349h168l258 -349h-142l-204 235l-202 -235h-136z" />
<glyph unicode="&#xdc;" d="M129 542v949h187v-943q0 -75 8 -135t28 -114.5t53 -90.5t86 -57t123 -21t123 21t86 57t53 90.5t28 114.5t8 135v943h187v-949q0 -567 -485 -567t-485 567zM300 1818q86 0 184 10q0 -86 11 -179q-90 0 -184 -11q0 87 -11 180zM735 1649q9 104 9 179q98 -10 184 -10 q-12 -86 -12 -180q-96 11 -181 11z" />
<glyph unicode="&#xdd;" d="M49 1491h226l335 -703l339 703h231l-465 -898v-593h-212v593zM544 1638l260 437h232l-350 -437h-142z" />
<glyph unicode="&#xde;" d="M176 0v1581h190v-157q98 0 155 -1t147 -5t143.5 -12.5t126 -25t115.5 -40t91.5 -59.5t74.5 -82t43 -109t17 -139q0 -73 -17.5 -134t-45.5 -106t-75 -80.5t-94.5 -59.5t-116 -41t-128 -26.5t-141.5 -14.5t-145 -6.5t-150 -1.5v-481h-190zM366 643h289q420 0 420 313 q0 76 -25 132t-66 89t-104 53t-128 27t-149 7h-237v-621z" />
<glyph unicode="&#xdf;" d="M164 0v1116q0 233 131.5 358t368.5 125q77 0 145 -11.5t129.5 -38t106 -65.5t70.5 -97.5t26 -130.5q0 -42 -10 -81t-32.5 -73t-43.5 -60t-57.5 -56t-57.5 -46t-62 -44t-55 -38q37 -23 105.5 -59t118.5 -62.5t110 -69t98.5 -83t65 -98.5t26.5 -123q0 -189 -119 -289 t-320 -100q-110 0 -207 26.5t-160 75.5l71 149q150 -86 280 -86q99 0 159 56t60 152q0 22 -4.5 43t-11.5 38.5t-20 35t-23 30.5t-29 28.5t-30.5 24.5t-33.5 23t-33 20.5t-33.5 19.5t-30.5 17q-12 7 -59 32.5t-70 40.5t-56.5 40t-48.5 50t-15 51q0 21 8.5 41.5t18.5 35 t30.5 33t32 27t35.5 25t30 20.5q33 24 54.5 42t47.5 47.5t39 65t13 76.5q0 65 -38 108.5t-95 61.5t-129 18q-141 0 -209.5 -94.5t-68.5 -251.5v-1096h-218z" />
<glyph unicode="&#xe0;" d="M177 280q0 57 16 102.5t42 76.5t68 54t86 36.5t104 21t114 10t123 2.5h146v173q0 242 -240 242q-198 0 -364 -84l-44 141q178 75 427 75q183 0 293 -83t110 -256v-791h-159l-24 84q-184 -109 -339 -109q-156 0 -257.5 80.5t-101.5 224.5zM206 1689h236l282 -437h-138z M355 289q0 -84 50 -132.5t137 -48.5q133 0 334 79v281h-149q-49 0 -83.5 -1.5t-82.5 -6.5t-80.5 -17t-63.5 -31t-46.5 -50.5t-15.5 -72.5z" />
<glyph unicode="&#xe1;" d="M177 280q0 57 16 102.5t42 76.5t68 54t86 36.5t104 21t114 10t123 2.5h146v173q0 242 -240 242q-198 0 -364 -84l-44 141q178 75 427 75q183 0 293 -83t110 -256v-791h-159l-24 84q-184 -109 -339 -109q-156 0 -257.5 80.5t-101.5 224.5zM355 289q0 -84 50 -132.5 t137 -48.5q133 0 334 79v281h-149q-49 0 -83.5 -1.5t-82.5 -6.5t-80.5 -17t-63.5 -31t-46.5 -50.5t-15.5 -72.5zM584 1252l261 437h232l-351 -437h-142z" />
<glyph unicode="&#xe2;" d="M177 280q0 57 16 102.5t42 76.5t68 54t86 36.5t104 21t114 10t123 2.5h146v173q0 242 -240 242q-198 0 -364 -84l-44 141q178 75 427 75q183 0 293 -83t110 -256v-791h-159l-24 84q-184 -109 -339 -109q-156 0 -257.5 80.5t-101.5 224.5zM312 1252l260 349h166l260 -349 h-144l-204 235l-202 -235h-136zM355 289q0 -84 50 -132.5t137 -48.5q133 0 334 79v281h-149q-49 0 -83.5 -1.5t-82.5 -6.5t-80.5 -17t-63.5 -31t-46.5 -50.5t-15.5 -72.5z" />
<glyph unicode="&#xe3;" d="M177 280q0 57 16 102.5t42 76.5t68 54t86 36.5t104 21t114 10t123 2.5h146v173q0 242 -240 242q-198 0 -364 -84l-44 141q178 75 427 75q183 0 293 -83t110 -256v-791h-159l-24 84q-184 -109 -339 -109q-156 0 -257.5 80.5t-101.5 224.5zM264 1266q2 114 62 179.5 t172 65.5q48 0 92.5 -18.5t73.5 -40t73 -40t91 -18.5q73 0 80 105h138q-5 -111 -61 -179t-161 -68q-48 0 -92.5 18t-74.5 40t-74 40t-91 18q-45 0 -67.5 -27.5t-24.5 -74.5h-136zM355 289q0 -84 50 -132.5t137 -48.5q133 0 334 79v281h-149q-49 0 -83.5 -1.5t-82.5 -6.5 t-80.5 -17t-63.5 -31t-46.5 -50.5t-15.5 -72.5z" />
<glyph unicode="&#xe4;" d="M177 280q0 57 16 102.5t42 76.5t68 54t86 36.5t104 21t114 10t123 2.5h146v173q0 242 -240 242q-198 0 -364 -84l-44 141q178 75 427 75q183 0 293 -83t110 -256v-791h-159l-24 84q-184 -109 -339 -109q-156 0 -257.5 80.5t-101.5 224.5zM341 1432q86 0 184 10 q0 -86 11 -179q-90 0 -184 -11q0 87 -11 180zM355 289q0 -84 50 -132.5t137 -48.5q133 0 334 79v281h-149q-49 0 -83.5 -1.5t-82.5 -6.5t-80.5 -17t-63.5 -31t-46.5 -50.5t-15.5 -72.5zM776 1263q9 104 9 179q98 -10 184 -10q-12 -86 -12 -180q-96 11 -181 11z" />
<glyph unicode="&#xe5;" d="M177 280q0 57 16 102.5t42 76.5t68 54t86 36.5t104 21t114 10t123 2.5h146v173q0 242 -240 242q-198 0 -364 -84l-44 141q178 75 427 75q183 0 293 -83t110 -256v-791h-159l-24 84q-184 -109 -339 -109q-156 0 -257.5 80.5t-101.5 224.5zM355 289q0 -84 50 -132.5 t137 -48.5q133 0 334 79v281h-149q-49 0 -83.5 -1.5t-82.5 -6.5t-80.5 -17t-63.5 -31t-46.5 -50.5t-15.5 -72.5zM422 1460q0 92 68 149t166 57q96 0 164 -57.5t68 -148.5q0 -90 -68.5 -149t-161.5 -59q-64 0 -117.5 25.5t-86 73.5t-32.5 109zM532 1459q0 -47 30.5 -80.5 t75.5 -33.5q61 0 100.5 30.5t39.5 85.5q0 45 -32.5 78.5t-77.5 33.5q-39 0 -69 -12.5t-48.5 -39t-18.5 -62.5z" />
<glyph unicode="&#xe6;" d="M55 280q0 59 13 106t35 79.5t57.5 56.5t72.5 37.5t87.5 21.5t96.5 10.5t105 2.5h15v192q0 94 -41 138.5t-127 44.5q-136 0 -224 -75l-44 159q113 77 277 77q196 0 266 -142q94 142 236 142q92 0 159 -75.5t99 -198t32 -275.5l-1 -61h-466q3 -84 15 -153.5t33 -123.5 t53.5 -84t73.5 -30q106 0 190 93l80 -124q-115 -123 -283 -123q-128 0 -212 119q-64 -37 -103.5 -57.5t-104.5 -41t-123 -20.5q-115 0 -191 83.5t-76 221.5zM232 297q0 -168 118 -168q47 0 94.5 14t71 25.5t77.5 41.5q-37 101 -50 242h-44q-42 0 -71.5 -1.5t-70 -10.5 t-65 -24.5t-42.5 -46t-18 -72.5zM709 653h317q-17 324 -146 324q-78 0 -121 -92t-50 -232z" />
<glyph unicode="&#xe7;" d="M118 556q0 173 67.5 302.5t195 200.5t299.5 71q235 0 387 -110l-69 -147q-132 117 -307 117q-92 0 -161.5 -31t-113 -88t-65 -136t-21.5 -178q0 -101 21.5 -181.5t65 -139t114 -90t163.5 -31.5q174 0 304 95l69 -125q-131 -98 -335 -109l-18 -103l9 1q47 0 86 -8.5 t70 -27t48.5 -51t17.5 -76.5q0 -168 -271 -168q-76 0 -189 23l9 92q111 -26 167 -26q127 0 127 78t-122 78q-8 0 -75 -5l33 194q-160 11 -274 85t-173 200t-59 294z" />
<glyph unicode="&#xe8;" d="M143 555q0 121 33.5 225.5t95.5 182.5t155 122.5t207 44.5q105 0 185.5 -44.5t128.5 -121.5t72 -174t24 -209l-1 -61h-716q4 -83 22 -153t52.5 -128t93.5 -91t137 -33q182 0 310 134l80 -124q-83 -75 -176 -112.5t-227 -37.5q-118 0 -210 45t-149.5 124.5t-87 183.5 t-29.5 227zM184 1689h236l284 -437h-140zM333 653h537q-20 337 -236 337q-72 0 -127.5 -27t-90 -75.5t-55 -106.5t-28.5 -128z" />
<glyph unicode="&#xe9;" d="M143 555q0 121 33.5 225.5t95.5 182.5t155 122.5t207 44.5q105 0 185.5 -44.5t128.5 -121.5t72 -174t24 -209l-1 -61h-716q4 -83 22 -153t52.5 -128t93.5 -91t137 -33q182 0 310 134l80 -124q-83 -75 -176 -112.5t-227 -37.5q-118 0 -210 45t-149.5 124.5t-87 183.5 t-29.5 227zM333 653h537q-20 337 -236 337q-72 0 -127.5 -27t-90 -75.5t-55 -106.5t-28.5 -128zM563 1252l261 437h232l-351 -437h-142z" />
<glyph unicode="&#xea;" d="M143 555q0 121 33.5 225.5t95.5 182.5t155 122.5t207 44.5q105 0 185.5 -44.5t128.5 -121.5t72 -174t24 -209l-1 -61h-716q4 -83 22 -153t52.5 -128t93.5 -91t137 -33q182 0 310 134l80 -124q-83 -75 -176 -112.5t-227 -37.5q-118 0 -210 45t-149.5 124.5t-87 183.5 t-29.5 227zM292 1252l258 349h168l258 -349h-142l-204 235l-202 -235h-136zM333 653h537q-20 337 -236 337q-72 0 -127.5 -27t-90 -75.5t-55 -106.5t-28.5 -128z" />
<glyph unicode="&#xeb;" d="M143 555q0 121 33.5 225.5t95.5 182.5t155 122.5t207 44.5q105 0 185.5 -44.5t128.5 -121.5t72 -174t24 -209l-1 -61h-716q4 -83 22 -153t52.5 -128t93.5 -91t137 -33q182 0 310 134l80 -124q-83 -75 -176 -112.5t-227 -37.5q-118 0 -210 45t-149.5 124.5t-87 183.5 t-29.5 227zM320 1432q86 0 184 10q0 -86 11 -179q-90 0 -184 -11q0 87 -11 180zM333 653h537q-20 337 -236 337q-72 0 -127.5 -27t-90 -75.5t-55 -106.5t-28.5 -128zM755 1263q9 104 9 179q98 -10 184 -10q-12 -86 -12 -180q-96 11 -181 11z" />
<glyph unicode="&#xec;" d="M197 0v144h409v809h-340v144h522v-953h397v-144h-988zM248 1689h236l282 -437h-138z" />
<glyph unicode="&#xed;" d="M197 0v144h409v809h-340v144h522v-953h397v-144h-988zM626 1252l261 437h232l-351 -437h-142z" />
<glyph unicode="&#xee;" d="M197 0v144h409v809h-340v144h522v-953h397v-144h-988zM354 1252l260 349h166l260 -349h-144l-204 235l-202 -235h-136z" />
<glyph unicode="&#xef;" d="M197 0v144h409v809h-340v144h522v-953h397v-144h-988zM383 1432q86 0 184 10q0 -86 11 -179q-90 0 -184 -11q0 87 -11 180zM818 1263q9 104 9 179q98 -10 184 -10q-12 -86 -12 -180q-96 11 -181 11z" />
<glyph unicode="&#xf0;" d="M135 484l1 1q0 225 138 357.5t367 132.5q292 0 413 -189q0 191 -40 329h-290v149h227q-89 161 -278 263l87 92q125 -47 220.5 -139.5t156.5 -215.5h218v-149h-162q54 -166 54 -372q0 -131 -18 -242.5t-59.5 -210t-105.5 -167t-161.5 -108.5t-221.5 -40 q-125 0 -228.5 39.5t-172.5 108.5t-107 162t-38 199zM331 480q0 -156 93.5 -253.5t248.5 -97.5q94 0 165.5 34.5t115 97t65 143.5t21.5 179q0 72 -64.5 129t-149 83.5t-164.5 26.5q-157 0 -244 -92t-87 -250z" />
<glyph unicode="&#xf1;" d="M217 0v1097h167l10 -139q57 79 132 125.5t189 46.5q341 0 341 -432v-698h-182v640v13v58t-2 53.5t-6 53t-11.5 46.5t-18.5 43t-28 33.5t-39 27.5t-51.5 15.5t-66.5 6.5q-106 0 -179 -71.5t-73 -186.5v-732h-182zM245 1266q2 114 62 179.5t172 65.5q48 0 92.5 -18.5 t74 -40t73 -40t90.5 -18.5q73 0 81 105h138q-6 -111 -62 -179t-161 -68q-47 0 -92 18t-75 40t-74 40t-90 18q-45 0 -67.5 -27.5t-24.5 -74.5h-137z" />
<glyph unicode="&#xf2;" d="M118 551q0 260 136 419.5t358 159.5q160 0 274 -76t169 -203.5t55 -292.5q0 -261 -137.5 -422t-360.5 -161q-118 0 -213 45t-155.5 123.5t-93 182.5t-32.5 225zM162 1689h236l284 -437h-140zM302 550q0 -84 17 -158.5t52 -138t97 -101t144 -37.5q85 0 148 37t98.5 101 t52.5 139t17 161q0 68 -10 129t-33.5 118t-59 98.5t-90.5 66.5t-123 25q-82 0 -144 -38t-97 -102.5t-52 -140t-17 -159.5z" />
<glyph unicode="&#xf3;" d="M118 551q0 260 136 419.5t358 159.5q160 0 274 -76t169 -203.5t55 -292.5q0 -261 -137.5 -422t-360.5 -161q-118 0 -213 45t-155.5 123.5t-93 182.5t-32.5 225zM302 550q0 -84 17 -158.5t52 -138t97 -101t144 -37.5q85 0 148 37t98.5 101t52.5 139t17 161q0 68 -10 129 t-33.5 118t-59 98.5t-90.5 66.5t-123 25q-82 0 -144 -38t-97 -102.5t-52 -140t-17 -159.5zM541 1252l261 437h232l-351 -437h-142z" />
<glyph unicode="&#xf4;" d="M118 551q0 260 136 419.5t358 159.5q160 0 274 -76t169 -203.5t55 -292.5q0 -261 -137.5 -422t-360.5 -161q-118 0 -213 45t-155.5 123.5t-93 182.5t-32.5 225zM270 1252l258 349h168l258 -349h-142l-204 235l-202 -235h-136zM302 550q0 -84 17 -158.5t52 -138t97 -101 t144 -37.5q85 0 148 37t98.5 101t52.5 139t17 161q0 68 -10 129t-33.5 118t-59 98.5t-90.5 66.5t-123 25q-82 0 -144 -38t-97 -102.5t-52 -140t-17 -159.5z" />
<glyph unicode="&#xf5;" d="M118 551q0 260 136 419.5t358 159.5q160 0 274 -76t169 -203.5t55 -292.5q0 -261 -137.5 -422t-360.5 -161q-118 0 -213 45t-155.5 123.5t-93 182.5t-32.5 225zM220 1266q3 114 63 179.5t171 65.5q49 0 93.5 -18.5t73.5 -40t73 -40t90 -18.5q74 0 82 105h138 q-4 -72 -28 -126t-74 -87.5t-122 -33.5q-47 0 -91.5 18t-74.5 40t-74 40t-90 18t-68.5 -27.5t-23.5 -74.5h-138zM302 550q0 -84 17 -158.5t52 -138t97 -101t144 -37.5q85 0 148 37t98.5 101t52.5 139t17 161q0 68 -10 129t-33.5 118t-59 98.5t-90.5 66.5t-123 25 q-82 0 -144 -38t-97 -102.5t-52 -140t-17 -159.5z" />
<glyph unicode="&#xf6;" d="M118 551q0 260 136 419.5t358 159.5q160 0 274 -76t169 -203.5t55 -292.5q0 -261 -137.5 -422t-360.5 -161q-118 0 -213 45t-155.5 123.5t-93 182.5t-32.5 225zM298 1432q86 0 184 10q0 -86 11 -179q-90 0 -184 -11q0 87 -11 180zM302 550q0 -84 17 -158.5t52 -138 t97 -101t144 -37.5q85 0 148 37t98.5 101t52.5 139t17 161q0 68 -10 129t-33.5 118t-59 98.5t-90.5 66.5t-123 25q-82 0 -144 -38t-97 -102.5t-52 -140t-17 -159.5zM733 1263q9 104 9 179q98 -10 184 -10q-12 -86 -12 -180q-96 11 -181 11z" />
<glyph unicode="&#xf7;" d="M152 526v151h1159v-151h-1159zM619 22v229h239v-229h-239zM619 948v227h239v-227h-239z" />
<glyph unicode="&#xf8;" d="M118 551q0 171 62 303t175 204t260 72q98 0 181 -29l124 285l112 -35l-132 -304q103 -73 156.5 -200.5t53.5 -288.5q0 -172 -63.5 -305t-177.5 -205.5t-262 -72.5q-87 0 -162 25l-123 -283l-112 41l128 294q-107 74 -163.5 205t-56.5 294zM301 550q0 -101 26.5 -189.5 t81.5 -147.5l323 742q-53 22 -119 22q-55 0 -102 -17t-80.5 -47.5t-59 -71t-40.5 -89t-22.5 -99t-7.5 -103.5zM509 147q47 -18 104 -18q68 0 122.5 24t90 64t58.5 95.5t33 115t10 125.5q0 218 -98 331z" />
<glyph unicode="&#xf9;" d="M164 1689h236l284 -437h-140zM190 404v693h182v-709q0 -124 61 -198.5t181 -74.5t181 74.5t61 198.5v709h182v-693q0 -200 -112.5 -314.5t-311.5 -114.5t-311.5 114.5t-112.5 314.5z" />
<glyph unicode="&#xfa;" d="M190 404v693h182v-709q0 -124 61 -198.5t181 -74.5t181 74.5t61 198.5v709h182v-693q0 -200 -112.5 -314.5t-311.5 -114.5t-311.5 114.5t-112.5 314.5zM543 1252l261 437h232l-351 -437h-142z" />
<glyph unicode="&#xfb;" d="M190 404v693h182v-709q0 -124 61 -198.5t181 -74.5t181 74.5t61 198.5v709h182v-693q0 -200 -112.5 -314.5t-311.5 -114.5t-311.5 114.5t-112.5 314.5zM272 1252l258 349h168l258 -349h-142l-204 235l-202 -235h-136z" />
<glyph unicode="&#xfc;" d="M190 404v693h182v-709q0 -124 61 -198.5t181 -74.5t181 74.5t61 198.5v709h182v-693q0 -200 -112.5 -314.5t-311.5 -114.5t-311.5 114.5t-112.5 314.5zM300 1432q86 0 184 10q0 -86 11 -179q-90 0 -184 -11q0 87 -11 180zM735 1263q9 104 9 179q98 -10 184 -10 q-12 -86 -12 -180q-96 11 -181 11z" />
<glyph unicode="&#xfd;" d="M94 1097h218l340 -892l331 892h201q-341 -841 -431 -1080q-3 -6 -23 -75q-26 -93 -78 -159.5t-128 -107.5t-163 -63.5t-201 -34.5v156q73 8 121.5 16.5t102 28.5t85.5 50t54.5 79.5t25.5 116.5q-139 319 -252.5 587t-158.5 377zM568 1252l261 437h232l-351 -437h-142z " />
<glyph unicode="&#xfe;" d="M158 -464v2044h184v-623q141 184 381 184q249 0 386 -155.5t137 -413.5h-1q0 -266 -145 -431.5t-372 -165.5q-244 0 -387 171v-610h-183zM340 536q0 -186 91 -302t264 -116q90 0 158.5 35t110.5 97t63 141.5t21 173.5q0 97 -19 173.5t-59.5 135.5t-109 90.5t-161.5 31.5 q-97 0 -167.5 -34.5t-111.5 -98t-60.5 -144.5t-19.5 -183z" />
<glyph unicode="&#xff;" d="M94 1097h218l340 -892l331 892h201q-341 -841 -431 -1080q-3 -6 -23 -75q-26 -93 -78 -159.5t-128 -107.5t-163 -63.5t-201 -34.5v156q73 8 121.5 16.5t102 28.5t85.5 50t54.5 79.5t25.5 116.5q-139 319 -252.5 587t-158.5 377zM325 1432q86 0 184 10q0 -86 11 -179 q-90 0 -184 -11q0 87 -11 180zM760 1263q9 104 9 179q98 -10 184 -10q-12 -86 -12 -180q-96 11 -181 11z" />
<glyph unicode="&#x152;" d="M20 789q0 162 31.5 300t93 246.5t162.5 170.5t232 62h558l-16 -171h-275v-508h241v-172h-241v-546h327l-17 -171h-577q-114 0 -204 44.5t-148 118.5t-96.5 177.5t-54.5 214t-16 234.5zM243 791q0 -96 8 -181.5t28.5 -170t53 -144.5t85.5 -97.5t121 -37.5h44v1229h-44 q-296 0 -296 -598z" />
<glyph unicode="&#x153;" d="M70 551q0 259 99 419t258 160q150 0 234 -179q83 179 229 179q88 0 153 -75.5t96 -198.5t31 -275l-1 -61h-436q6 -176 44.5 -283.5t110.5 -107.5q100 0 180 93l80 -124q-110 -123 -273 -123q-145 0 -221 181q-87 -181 -235 -181q-110 0 -190.5 78t-119.5 207t-39 291z M253 550q0 -82 9 -154t28 -133.5t54 -97.5t81 -36q44 0 77 35.5t51 97t27 136t9 161.5q0 82 -9.5 154.5t-28 133t-51 95.5t-75.5 35q-46 0 -81 -37t-54 -100t-28 -135.5t-9 -154.5zM739 653h287q-3 91 -16 160t-43.5 116.5t-76.5 47.5q-69 0 -106.5 -91.5t-44.5 -232.5z" />
<glyph unicode="&#x178;" d="M49 1491h226l335 -703l339 703h231l-465 -898v-593h-212v593zM300 1818q86 0 184 10q0 -86 12 -179q-90 0 -184 -11q0 87 -12 180zM736 1649q8 104 8 179q99 -10 184 -10q-12 -86 -12 -180q-95 11 -180 11z" />
<glyph unicode="&#x2c6;" d="M283 1266l259 349h167l259 -349h-143l-204 235l-202 -235h-136z" />
<glyph unicode="&#x2dc;" d="M254 1303q2 114 62 179.5t172 65.5q48 0 92.5 -18.5t74 -40t73 -40t90.5 -18.5q73 0 81 105h138q-6 -111 -62 -179t-161 -68q-47 0 -92 18t-74.5 40t-74 40t-90.5 18q-45 0 -67.5 -27.5t-24.5 -74.5h-137z" />
<glyph unicode="&#x2000;" horiz-adv-x="1037" />
<glyph unicode="&#x2001;" horiz-adv-x="2075" />
<glyph unicode="&#x2002;" horiz-adv-x="1037" />
<glyph unicode="&#x2003;" horiz-adv-x="2075" />
<glyph unicode="&#x2004;" horiz-adv-x="691" />
<glyph unicode="&#x2005;" horiz-adv-x="518" />
<glyph unicode="&#x2006;" horiz-adv-x="345" />
<glyph unicode="&#x2007;" horiz-adv-x="345" />
<glyph unicode="&#x2008;" horiz-adv-x="259" />
<glyph unicode="&#x2009;" horiz-adv-x="415" />
<glyph unicode="&#x200a;" horiz-adv-x="115" />
<glyph unicode="&#x2010;" d="M323 672v155h670v-155h-670z" />
<glyph unicode="&#x2011;" d="M323 672v155h670v-155h-670z" />
<glyph unicode="&#x2012;" d="M323 672v155h670v-155h-670z" />
<glyph unicode="&#x2013;" d="M184 531v149h1207v-149h-1207z" />
<glyph unicode="&#x2014;" d="M-6 531v149h2396v-149h-2396z" />
<glyph unicode="&#x2018;" d="M446 1110l171 478h145l-115 -478h-201z" />
<glyph unicode="&#x2019;" d="M446 1110l117 478h198l-169 -478h-146z" />
<glyph unicode="&#x201a;" d="M457 -258l117 476h199l-169 -476h-147z" />
<glyph unicode="&#x201c;" d="M233 1110l171 478h147l-116 -478h-202zM620 1110l170 478h148l-116 -478h-202z" />
<glyph unicode="&#x201d;" d="M233 1110l116 478h201l-170 -478h-147zM595 1110l117 478h201l-171 -478h-147z" />
<glyph unicode="&#x201e;" d="M244 -258l116 476h201l-170 -476h-147zM641 -258l114 476h203l-171 -476h-146z" />
<glyph unicode="&#x2022;" d="M379 753q0 66 24.5 123t64.5 96.5t90 68t101 42t98 13.5q81 0 151.5 -29.5t117.5 -77t73.5 -107.5t26.5 -122q0 -150 -110 -246t-267 -96q-161 0 -265.5 102t-104.5 233z" />
<glyph unicode="&#x2026;" d="M78 -12v228h241v-228h-241zM675 -12v228h241v-228h-241zM1274 -12v228h240v-228h-240z" />
<glyph unicode="&#x202f;" horiz-adv-x="415" />
<glyph unicode="&#x2039;" d="M401 588l303 404h177l-292 -404l282 -403h-173z" />
<glyph unicode="&#x203a;" d="M401 185l290 404l-282 403h173l299 -403l-306 -404h-174z" />
<glyph unicode="&#x205f;" horiz-adv-x="518" />
<glyph unicode="&#x20ac;" d="M96 851l26 150h133q23 122 74 225t126 181t180 121.5t229 43.5q239 0 373 -128l-39 -205q-123 176 -326 176q-93 0 -167.5 -34t-124 -94.5t-81 -130.5t-49.5 -155h656l-24 -150h-652l-3 -44q0 -56 4 -97h636l-21 -150h-600q58 -424 417 -424q173 0 350 139l-1 -194 q-154 -103 -367 -103q-138 0 -245.5 43.5t-178 123.5t-112.5 183t-60 232h-149l22 150h113q-3 39 -3 82q0 21 2 59h-138z" />
<glyph unicode="&#x2122;" d="M0 1466v109h605v-109h-239v-721h-135v721h-231zM728 745v830h186l148 -374l162 374h174v-830h-136v646l-151 -375h-89l-159 374v-645h-135z" />
<glyph unicode="&#xe000;" horiz-adv-x="1095" d="M0 0v1095h1095v-1095h-1095z" />
<glyph unicode="&#xfb01;" d="M67 997v117h222q1 57 3 96.5t6.5 89t11.5 84t19.5 73t29.5 64.5t42 51t56 39.5t72.5 23.5t91.5 9q43 0 149 -23l2 -140q-44 16 -111 16q-51 0 -86.5 -14t-56 -35.5t-31.5 -59t-14 -72.5t-3 -87q0 -17 0.5 -56t0.5 -59h690v-1114h-181v997h-509v-997h-182v997h-222z M987 1418v169h171v-169h-171z" />
<glyph unicode="&#xfb02;" d="M57 994v113h200q0 95 6 159t24.5 125.5t55 102t94.5 65.5q59 25 132 37.5t184 22.5v-166q-48 -4 -76.5 -7.5t-63 -11.5t-53.5 -20t-38.5 -31.5t-29.5 -48t-16 -68t-6 -91.5v-68h280v-113h-280v-994h-213v994h-200zM957 0v1620h214v-1620h-214z" />
</font>
</defs>
</svg>
