<?xml version="1.0" standalone="no"?>
<!DOCTYPE svg PUBLIC "-//W3C//DTD SVG 1.1//EN" "http://www.w3.org/Graphics/SVG/1.1/DTD/svg11.dtd" >
<svg xmlns="http://www.w3.org/2000/svg">
<metadata></metadata>
<defs>
<font id="tuffyregular" horiz-adv-x="1136" >
<font-face units-per-em="2048" ascent="1597" descent="-451" />
<missing-glyph horiz-adv-x="616" />
<glyph horiz-adv-x="2048" />
<glyph horiz-adv-x="2048" />
<glyph unicode="&#xd;" horiz-adv-x="682" />
<glyph unicode=" "  horiz-adv-x="616" />
<glyph unicode="&#x09;" horiz-adv-x="616" />
<glyph unicode="&#xa0;" horiz-adv-x="616" />
<glyph unicode="!" horiz-adv-x="421" d="M281 440q0 -25 -17.5 -42t-40.5 -17q-25 1 -42 17.5t-17 41.5l-41 949q0 39 29.5 66.5t68.5 27.5q40 0 70.5 -27.5t30.5 -64.5zM103 94q0 45 32 76.5t76 31.5q39 0 68 -24.5t37 -60.5q2 -8 2 -23q0 -44 -31.5 -75.5t-75.5 -31.5q-39 0 -68 24t-37 61q-3 10 -3 22z" />
<glyph unicode="&#x22;" horiz-adv-x="690" d="M442 1092l-20 374q0 36 21.5 56t50.5 20h4q26 0 45.5 -14.5t25.5 -41.5q2 -6 2 -20l-20 -374q-1 -22 -18 -35t-37 -13q-19 0 -33.5 10t-18.5 29q0 1 -1 4t-1 5zM150 1092l-21 374q0 36 21.5 56t50.5 20h4q25 0 45.5 -14.5t26.5 -41.5q2 -12 2 -20l-21 -374 q-1 -22 -18 -35t-37 -13q-19 0 -33.5 10t-18.5 29q-1 3 -1 9z" />
<glyph unicode="#" horiz-adv-x="1589" d="M969 547v338h-342v-338h342zM1118 406v-353h-149v353h-342v-353h-150v353h-348v141h348v338h-348v139h348v379h150v-379h342v379h149v-379h361v-139h-361v-338h361v-141h-361z" />
<glyph unicode="$" horiz-adv-x="1017" d="M453 1537h129v-126q208 -16 354 -243l-125 -80q-35 65 -94.5 115.5t-134.5 60.5v-489q58 -24 113.5 -42t106 -47.5t88.5 -66t60.5 -97t22.5 -139.5q0 -164 -105.5 -277t-285.5 -132v-129h-127v129q-81 7 -144 28t-114 61t-89 86t-83 117l135 80q27 -42 43 -65t45.5 -57 t56 -52t66 -34t84.5 -21v555q-83 20 -145 47t-115.5 70.5t-82 109.5t-28.5 152q0 155 106 252t263 106v128zM455 817v453q-93 -12 -151 -70.5t-58 -148.5q0 -57 15 -97.5t45 -66.5t64.5 -41.5t84.5 -28.5zM582 630v-511q108 18 168.5 88t60.5 176q0 84 -57 148t-172 99z" />
<glyph unicode="%" horiz-adv-x="1402" d="M891 373q0 -23 4 -39q11 -51 47.5 -83t89.5 -32q61 0 104.5 44t43.5 110q0 18 -4 31q-11 51 -50.5 84.5t-93.5 33.5q-58 0 -99.5 -44.5t-41.5 -104.5zM762 373q0 112 79.5 191t192.5 79q98 0 173.5 -61t95.5 -153q6 -27 6 -56q0 -112 -80.5 -190.5t-194.5 -78.5 q-98 0 -172 60t-94 152q-6 28 -6 57zM231 1077q0 -14 4 -38q12 -51 49 -83t91 -32q61 0 104 43.5t43 109.5q0 15 -3 32q-11 50 -51 84t-93 34q-58 0 -101 -45t-43 -105zM104 1077q0 113 79.5 192t193.5 79q98 0 173 -61t95 -154q6 -27 6 -56q0 -112 -80.5 -190t-193.5 -78 q-98 0 -172.5 60t-94.5 152q-6 27 -6 56zM424 137h-150l721 1182h144z" />
<glyph unicode="&#x26;" horiz-adv-x="1241" d="M811 1200q-39 76 -94 114t-150 38q-99 0 -168 -64.5t-69 -167.5q0 -105 73 -174t164 -69h101v-142h-97q-143 0 -228 -79t-85 -226q0 -144 92 -230.5t211 -86.5q124 0 207.5 88.5t83.5 206.5h-195v139h502v-141h-141q0 -52 -16.5 -109.5t-53.5 -116t-88.5 -105 t-129.5 -75.5t-169 -29q-90 0 -174 36t-147.5 96.5t-101.5 146.5t-38 180q0 80 27 151t68 117.5t85.5 76t84.5 38.5q-82 35 -137.5 112.5t-55.5 194.5q0 96 47.5 180.5t139.5 138.5t208 54q131 0 229.5 -64t149.5 -163z" />
<glyph unicode="'" horiz-adv-x="382" d="M150 1092l-21 374q0 36 21.5 56t50.5 20h4q25 0 45.5 -14.5t26.5 -41.5q2 -12 2 -20l-21 -374q-1 -22 -18 -35t-37 -13q-19 0 -33.5 10t-18.5 29q-1 3 -1 9z" />
<glyph unicode="(" horiz-adv-x="548" d="M279 -84q-110 169 -174 381t-64 442q0 200 61.5 415.5t176.5 395.5h178q-264 -382 -264 -821q0 -216 73.5 -429.5t190.5 -383.5h-178z" />
<glyph unicode=")" horiz-adv-x="536" d="M266 -84h-176q127 187 195.5 399.5t68.5 411.5q0 208 -74 430.5t-190 392.5h176q106 -166 173 -385t67 -438q0 -210 -60.5 -419.5t-179.5 -391.5z" />
<glyph unicode="*" horiz-adv-x="913" d="M462 518l-113 -224q-8 -16 -24.5 -28t-37.5 -12t-42 12q-38 22 -38 62q0 21 12 41l135 207l-245 -14q-28 0 -52 17.5t-24 58.5q0 33 21 53.5t55 20.5l248 -14l-136 208q-12 21 -12 42q0 39 40 61q19 12 40 12q42 0 62 -40l111 -219l109 217q20 40 62 40q21 0 40 -12 q40 -22 40 -61q0 -21 -12 -42l-135 -206l247 14q34 0 55 -20.5t21 -53.5q0 -41 -24 -58.5t-52 -17.5l-244 14l134 -205q12 -20 12 -41q0 -40 -38 -62q-21 -12 -42 -12t-37.5 12t-24.5 28z" />
<glyph unicode="+" horiz-adv-x="894" d="M78 711h307v311h141v-311h308v-142h-308v-311h-141v311h-307v142z" />
<glyph unicode="," horiz-adv-x="399" d="M318 94q0 -44 -9.5 -88t-28 -82.5t-31.5 -62t-33 -53.5l-21 -29l-56 31q72 103 72 178q-39 0 -68 23.5t-37 60.5q-3 10 -3 22q0 45 32 76.5t76 31.5q39 0 68 -24.5t37 -60.5q2 -8 2 -23z" />
<glyph unicode="-" horiz-adv-x="866" d="M109 705h677v-142h-677v142z" />
<glyph unicode="." horiz-adv-x="405" d="M103 94q0 45 32 76.5t76 31.5q39 0 68 -24.5t37 -60.5q2 -8 2 -23q0 -44 -31.5 -75.5t-75.5 -31.5q-39 0 -68 24t-37 61q-3 10 -3 22z" />
<glyph unicode="/" horiz-adv-x="808" d="M135 0h-158l717 1544h158z" />
<glyph unicode="0" d="M100 727q0 154 33 292.5t93.5 244t152.5 167.5t203 62q165 0 278.5 -132t159.5 -350q29 -136 29 -284q0 -207 -54.5 -376.5t-164.5 -274.5t-257 -105q-168 0 -283.5 132.5t-161.5 350.5q-28 132 -28 273zM258 727q0 -135 26 -255q34 -160 107 -259.5t182 -99.5 q80 0 143.5 56t100 147.5t55.5 196.5t19 214q0 142 -28 272q-33 157 -103.5 255t-177.5 98q-80 0 -144 -57.5t-102 -150.5t-58 -200.5t-20 -216.5z" />
<glyph unicode="1" d="M582 1206h-158l223 250h92v-1456h-157v1206z" />
<glyph unicode="2" d="M262 1110l-139 55q39 138 167 234t279 96q65 0 125 -16t114 -51.5t94 -86t63.5 -125t23.5 -163.5q0 -51 -13.5 -100t-34.5 -88.5t-53 -79t-61 -67.5t-67.5 -59t-64 -48.5t-59 -39.5t-44.5 -30q-42 -30 -91 -76t-97 -101t-79.5 -115.5t-31.5 -107.5h723v-141h-907 q0 94 26 181.5t66 154.5t100.5 132.5t116.5 111.5t127 96q11 8 42.5 29t48.5 33t47.5 36t48 42.5t40 47t34.5 55.5t21 62t9 72q0 139 -80 220t-187 81q-100 0 -185 -63.5t-122 -180.5z" />
<glyph unicode="3" horiz-adv-x="1126" d="M113 252l155 47q38 -82 117 -134t162 -52q139 0 235.5 85t96.5 226q0 73 -28.5 132.5t-76 97t-105 57.5t-118.5 20h-78v125h98q97 0 168.5 74t71.5 186q0 100 -73.5 171t-168.5 71h-6q-80 0 -140.5 -42.5t-92.5 -115.5l-137 64q53 105 153 169t223 64q101 0 192 -47 t149.5 -136t58.5 -198q0 -82 -33 -153t-72 -109.5t-78 -58.5q38 -11 80 -43t80.5 -78.5t64 -112.5t25.5 -137q0 -196 -141 -324.5t-348 -128.5q-125 0 -252 76.5t-182 204.5z" />
<glyph unicode="4" d="M864 1445v-908h189v-140h-189v-397h-157v397h-619l606 1059h13h157v-11zM711 1221l-387 -682h387v682z" />
<glyph unicode="5" d="M604 807q-33 0 -62.5 -3.5t-54 -11.5t-43 -15t-36.5 -18.5t-26.5 -17.5t-22 -17.5t-15.5 -12.5l-145 75l94 670h672v-141h-541l-66 -428q91 55 246 55q163 0 280 -97t152 -261q13 -63 13 -125q0 -130 -53.5 -240.5t-158 -179t-239.5 -68.5q-170 0 -293.5 98.5 t-169.5 260.5l156 28q84 -245 307 -245q132 0 213.5 96.5t81.5 251.5q0 44 -9 83q-24 114 -103.5 188.5t-176.5 74.5z" />
<glyph unicode="6" d="M879 408q0 26 -7 63q-22 103 -104 170.5t-195 67.5q-128 0 -211 -90t-83 -207q0 -33 6 -63q22 -102 103.5 -165t186.5 -63q133 0 218.5 87.5t85.5 199.5zM436 827q73 31 137 31q162 0 287 -100.5t158 -255.5q10 -43 10 -94q0 -78 -33 -155.5t-90.5 -140.5t-145 -102 t-188.5 -39q-166 0 -283.5 102.5t-149.5 249.5q-9 42 -9 87q0 58 11.5 115.5t35 112.5t40.5 89t46.5 84t34.5 59l334 584h155z" />
<glyph unicode="7" d="M1079 1456l-555 -1456h-182l516 1307h-747v149h968z" />
<glyph unicode="8" d="M582 113q137 0 234 93.5t97 225.5q0 34 -6 66q-23 110 -114.5 175.5t-206.5 65.5q-140 0 -232 -82.5t-92 -224.5q0 -30 7 -68q24 -111 112 -181t201 -70zM332 1124q0 -30 6 -59q18 -86 85 -135t163 -49q111 0 181.5 65t70.5 178q0 28 -6 54q-17 81 -82 129.5t-166 48.5 q-119 0 -185.5 -66t-66.5 -166zM584 1497q153 0 264 -82.5t139 -213.5q8 -32 8 -77q0 -207 -188 -317q85 -39 159 -113t97 -182q8 -40 8 -80q0 -129 -67.5 -235.5t-179.5 -166t-242 -59.5q-171 0 -302 102.5t-166 262.5q-10 52 -10 96q0 78 25.5 145t67 111.5t82 73 t81.5 45.5q-147 86 -177 230q-9 39 -9 87q0 159 117 266t293 107z" />
<glyph unicode="9" d="M293 1053q0 -35 7 -64q22 -102 103.5 -169.5t194.5 -67.5q129 0 212 89.5t83 207.5q0 34 -7 62q-22 102 -103.5 166t-186.5 64q-132 0 -217.5 -88t-85.5 -200zM735 633q-73 -31 -137 -31q-162 0 -287 100.5t-158 255.5q-10 50 -10 95q0 62 20.5 125t60.5 119t94.5 99.5 t127.5 69t154 25.5q166 0 284 -103t149 -250q9 -44 9 -87q0 -58 -11 -115t-35.5 -114t-39.5 -88t-47.5 -85.5t-34.5 -58.5l-324 -590h-168z" />
<glyph unicode=":" horiz-adv-x="423" d="M113 0zM113 823q0 45 32 76.5t76 31.5q39 0 68 -24.5t37 -60.5q2 -8 2 -23q0 -44 -31.5 -75.5t-75.5 -31.5q-39 0 -68 24t-37 61q-3 10 -3 22zM113 94q0 45 32 76.5t76 31.5q39 0 68 -24.5t37 -60.5q2 -8 2 -23q0 -44 -31.5 -75.5t-75.5 -31.5q-39 0 -68 24t-37 61 q-3 10 -3 22z" />
<glyph unicode=";" horiz-adv-x="423" d="M113 0zM328 94q0 -44 -9.5 -88t-28 -82.5t-31.5 -62t-33 -53.5l-21 -29l-56 31q72 103 72 178q-39 0 -68 23.5t-37 60.5q-3 10 -3 22q0 45 32 76.5t76 31.5q39 0 68 -24.5t37 -60.5q2 -8 2 -23zM113 823q0 45 32 76.5t76 31.5q39 0 68 -24.5t37 -60.5q2 -8 2 -23 q0 -44 -31.5 -75.5t-75.5 -31.5q-39 0 -68 24t-37 61q-3 10 -3 22z" />
<glyph unicode="&#x3c;" horiz-adv-x="843" d="M592 23l-508 612l508 600h199l-510 -602l510 -610h-199z" />
<glyph unicode="=" horiz-adv-x="907" d="M66 500h800v-142h-800v142zM66 866h800v-141h-800v141z" />
<glyph unicode="&#x3e;" horiz-adv-x="856" d="M291 20h-199l508 613l-508 602h199l506 -600z" />
<glyph unicode="?" horiz-adv-x="985" d="M573 501v-141h-157v145q0 45 11 85t25.5 67t41.5 57.5t47 47.5t54.5 45.5t52.5 44.5l20 18t19.5 18t18 18.5t16.5 19t15 20.5t12.5 22.5t10 25.5t8 29t5 33t1.5 38q0 125 -77 193.5t-201 68.5q-82 0 -151.5 -45t-105.5 -107t-36 -119l-146 25q19 164 141 275.5t291 111.5 q86 0 164 -25t141 -73t100.5 -126t37.5 -175t-37 -170.5t-99 -136.5q-26 -25 -62.5 -52.5t-61.5 -47t-49.5 -45.5t-37 -61.5t-12.5 -83.5zM396 94q0 45 32 76.5t76 31.5q39 0 68 -24.5t37 -60.5q2 -8 2 -23q0 -44 -31.5 -75.5t-75.5 -31.5q-39 0 -68 24t-37 61q-3 10 -3 22z " />
<glyph unicode="@" horiz-adv-x="1624" d="M1176 213l77 -102q-199 -146 -448 -146q-274 0 -483 171.5t-264 432.5q-17 82 -17 162q0 208 102 383.5t278 278t384 102.5q136 0 263.5 -46.5t224 -125.5t165 -185t93.5 -225q14 -67 14 -131q0 -75 -27 -144.5t-69 -116.5t-91 -75t-94 -28q-55 0 -115 28.5t-100 71.5 q-44 -60 -114.5 -94.5t-149.5 -34.5q-122 0 -216 77t-119 194q-7 32 -7 71q0 140 100 240t242 100q118 0 205 -76.5t111 -189.5q7 -34 7 -74q0 -16 5 -38q12 -58 53 -102t92 -44q56 0 107 71.5t51 163.5q0 49 -11 102q-20 95 -75.5 182.5t-135.5 154.5t-187 107t-222 40 q-132 0 -250.5 -52t-203 -139t-134 -205t-49.5 -245q0 -65 14 -130q46 -216 219.5 -360.5t403.5 -144.5q93 0 194.5 34t176.5 87zM592 731q0 -22 5 -47q16 -75 74.5 -121.5t133.5 -46.5q90 0 144.5 62t54.5 153q0 19 -5 41q-15 71 -71.5 122.5t-122.5 51.5 q-84 0 -148.5 -63.5t-64.5 -151.5z" />
<glyph unicode="A" horiz-adv-x="1302" d="M659 1214l-204 -593h415zM907 485h-497l-162 -485h-176l524 1456h127l524 -1456h-180z" />
<glyph unicode="B" horiz-adv-x="1179" d="M279 705v-564h319q70 0 126.5 16.5t94 44t63.5 65t37 78.5t11 85q0 35 -7 64q-19 94 -100 152.5t-225 58.5h-319zM279 1317v-473h237q83 0 145.5 16.5t97.5 40.5t56.5 57.5t28 62t6.5 58.5q0 29 -5 51q-8 35 -26.5 65t-54.5 58.5t-99.5 45t-148.5 16.5q-15 0 -116.5 1 t-120.5 1zM121 1456h395q118 0 209 -26t146.5 -70.5t87 -95t43.5 -108.5q8 -42 8 -77q0 -117 -83.5 -207t-170.5 -90q72 0 131 -26.5t96.5 -70.5t60 -91t33.5 -98q8 -36 8 -72q0 -34 -4 -67t-16.5 -76.5t-33.5 -81t-58.5 -75.5t-87 -64.5t-123.5 -43t-164 -16.5h-477v1456z " />
<glyph unicode="C" horiz-adv-x="1220" d="M1167 293q-24 -64 -62 -118.5t-94 -102t-136 -74.5t-175 -27q-119 0 -219 41t-169.5 112.5t-118 167.5t-71 205.5t-22.5 227.5q0 119 23 229.5t71.5 209.5t118.5 172t170 116t219 43q76 0 143.5 -18.5t116.5 -48.5t88 -70.5t63.5 -81t39.5 -82.5l-149 -41 q-29 91 -113.5 146t-188.5 55h-2q-104 0 -188.5 -54t-137 -144t-80.5 -201t-28 -230q0 -121 30 -231.5t84.5 -196t137.5 -136t182 -50.5q106 0 197 65.5t123 157.5z" />
<glyph unicode="D" horiz-adv-x="1220" d="M987 727q0 65 -10 130t-31 132.5t-58 125t-86.5 103t-121 71.5t-156.5 26h-245v-1174h245q127 0 218.5 42t144 122t76.5 183.5t24 238.5zM1153 727q0 -154 -39.5 -286t-112.5 -230.5t-185.5 -154.5t-250.5 -56h-444v1456h444q137 0 250 -61t186 -163t112.5 -232.5 t39.5 -272.5z" />
<glyph unicode="E" horiz-adv-x="1142" d="M121 1456h921v-141h-763v-498h720v-141h-720v-535h763v-141h-921v1456z" />
<glyph unicode="F" horiz-adv-x="1146" d="M121 1456h921v-141h-763v-498h720v-141h-720v-676h-158v1456z" />
<glyph unicode="G" horiz-adv-x="1363" d="M700 -29q-141 0 -256.5 63.5t-189.5 170t-114 242t-40 284.5q0 105 22.5 210.5t71.5 205.5t118 177t170 124t220 47q159 0 260.5 -60t174.5 -175l-138 -68q-58 81 -124.5 121.5t-172.5 40.5q-103 0 -188.5 -58.5t-138 -151t-81 -200.5t-28.5 -213q0 -112 28.5 -220.5 t81 -198.5t137 -145.5t187.5 -55.5q70 0 129 21t99 57.5t70 81t46.5 96t24.5 98t8 90.5h-393v141h549v-86q0 -75 -13.5 -149t-40 -146t-70.5 -134t-100.5 -109t-134 -74t-168.5 -27h-3h-3z" />
<glyph unicode="H" horiz-adv-x="1198" d="M121 1456h158v-641h661v641h158v-1456h-158v674h-661v-674h-158v1456z" />
<glyph unicode="I" horiz-adv-x="444" d="M154 0v1456h157v-1456h-157z" />
<glyph unicode="J" horiz-adv-x="1140" d="M113 535h141q0 -52 11 -105q27 -129 108 -219t192 -90q92 0 163.5 62.5t106.5 155.5t35 196v921h158v-921q0 -246 -129 -405t-334 -159q-165 0 -281.5 113.5t-154.5 293.5q-16 71 -16 157z" />
<glyph unicode="K" horiz-adv-x="1239" d="M121 1456h158v-754l747 754h193l-648 -653l664 -803h-207l-561 702l-188 -186v-516h-158v1456z" />
<glyph unicode="L" horiz-adv-x="1105" d="M121 1456h158v-1315h765v-141h-923v1456z" />
<glyph unicode="M" horiz-adv-x="1562" d="M121 0v1456h215l459 -1247l460 1247h207v-1456h-153v1204l-428 -1188h-179l-428 1188v-1204h-153z" />
<glyph unicode="N" horiz-adv-x="1271" d="M121 0v1456h153l740 -1161v1161h157v-1456h-145l-747 1190v-1190h-158z" />
<glyph unicode="O" horiz-adv-x="1333" d="M1096 725q0 118 -23 227q-18 83 -48.5 152t-77.5 127t-116 90.5t-155 32.5q-93 0 -167 -40t-120 -103.5t-76.5 -148t-42.5 -168t-12 -169.5q0 -111 22 -218q17 -82 47.5 -149.5t77.5 -124t116.5 -88.5t154.5 -32q93 0 167 38.5t120 99.5t77 143t43.5 164t12.5 167z M92 725q0 101 19 204t64 206t110 182t166.5 128.5t224.5 49.5q121 0 220 -46t166 -125.5t110 -172.5t66 -201q24 -116 24 -225q0 -100 -19.5 -201t-64.5 -202t-110.5 -178t-167 -125t-224.5 -48q-120 0 -219 45t-166 123t-110 170t-66 199q-23 106 -23 217z" />
<glyph unicode="P" horiz-adv-x="1099" d="M279 774h206q385 0 385 273q0 35 -6 60q-9 41 -31 75.5t-63.5 66t-114 49t-170.5 17.5h-206v-541zM121 1456h158h206q230 0 368.5 -88t170.5 -236q8 -45 8 -85q0 -87 -33 -161t-98 -131.5t-171.5 -90.5t-244.5 -33h-206v-631h-158v1456z" />
<glyph unicode="Q" horiz-adv-x="1370" d="M1104 725q0 114 -22 220q-18 86 -50.5 156.5t-81 129t-119.5 91t-157 32.5q-100 0 -181 -52.5t-131.5 -141.5t-77 -200.5t-26.5 -234.5q0 -109 22 -209q17 -82 47.5 -150t79 -127t121.5 -92.5t164 -33.5q54 0 115.5 20.5t95.5 54.5l-188 142l88 116l198 -149 q103 144 103 428zM92 725q0 101 20 204t65.5 206t111 182t166 128.5t221.5 49.5q98 0 183.5 -31.5t147.5 -83.5t111 -124t79.5 -149.5t48.5 -163.5q24 -111 24 -218q0 -156 -42.5 -296t-105.5 -222l166 -121l-90 -117l-172 127q-76 -60 -152 -92.5t-186 -32.5 q-100 0 -185.5 30t-148 80.5t-111.5 121t-79.5 146t-48.5 160.5q-23 105 -23 216z" />
<glyph unicode="R" horiz-adv-x="1101" d="M279 774h206q94 0 165 17t112 43.5t66 64.5t33.5 73t8.5 75q0 124 -93 196t-292 72h-206v-541zM923 0l-429 631h-215v-631h-158v1456h158h206q242 0 395.5 -108.5t153.5 -300.5q0 -149 -99 -259t-265 -140l434 -648h-181z" />
<glyph unicode="S" horiz-adv-x="1079" d="M45 327l170 31q21 -87 115 -166t209 -79q141 0 241.5 72t100.5 186q0 41 -14.5 79t-36.5 67t-57.5 57.5t-66 48t-75.5 40.5t-72.5 32.5t-69 27.5t-55.5 22q-37 15 -63.5 27.5t-62.5 33t-61 41t-52 51t-43.5 64t-27 78.5t-10.5 96q0 164 122 261.5t303 97.5q172 0 293 -85 t162 -216l-152 -25q-23 72 -107 128.5t-196 56.5q-115 0 -189 -62t-74 -156q0 -36 9 -67t23 -54t39 -44.5t47.5 -36t58 -31t61.5 -26.5t67.5 -26.5t66.5 -26.5q40 -17 72 -32.5t74 -40t73.5 -50t64.5 -61.5t54 -75t34.5 -90t13.5 -107q0 -130 -68.5 -221.5t-178 -133.5 t-248.5 -42q-191 0 -313.5 98t-180.5 258z" />
<glyph unicode="T" horiz-adv-x="1243" d="M88 1456h1092v-141h-457v-1315h-158v1315h-477v141z" />
<glyph unicode="U" horiz-adv-x="1265" d="M1004 1456h161v-811q0 -317 -138 -495.5t-384 -178.5q-196 0 -325.5 115.5t-174.5 327.5q-22 103 -22 231v811h162v-811q0 -114 19 -200q35 -166 127 -249t214 -83q75 0 139 31.5t114.5 94.5t79 167t28.5 239v811z" />
<glyph unicode="V" horiz-adv-x="1245" d="M1022 1456h164l-441 -1456h-219l-446 1456h170l385 -1288z" />
<glyph unicode="W" horiz-adv-x="1576" d="M84 1456h160l184 -1274l274 1237h195l274 -1237l185 1274h160l-230 -1456h-219l-266 1229l-266 -1229h-224z" />
<glyph unicode="X" horiz-adv-x="1214" d="M74 1456h182l362 -606l355 606h182l-453 -727l459 -729h-190l-353 586l-360 -586h-178l455 729z" />
<glyph unicode="Y" horiz-adv-x="1179" d="M76 1456h168l356 -600l356 600h168l-446 -708v-748h-158v748z" />
<glyph unicode="Z" horiz-adv-x="1325" d="M129 1456h1104l-864 -1315h876v-141h-1145l873 1315h-844v141z" />
<glyph unicode="[" horiz-adv-x="626" d="M526 -96h-395v1626h395v-141h-245v-1346h245v-139z" />
<glyph unicode="\" horiz-adv-x="811" d="M690 0l-719 1544h172l717 -1544h-170z" />
<glyph unicode="]" horiz-adv-x="638" d="M129 -96v141h246v1344h-246v141h395v-1626h-395z" />
<glyph unicode="^" horiz-adv-x="927" d="M821 1149h-188l-156 213l-158 -211h-186l277 342h131z" />
<glyph unicode="_" horiz-adv-x="1241" d="M88 -231v141h1090v-141h-1090z" />
<glyph unicode="`" horiz-adv-x="516" d="M355 1160l-242 287q-12 17 -15 33q-2 7 -2 15q0 36 32 58q21 16 46 16q34 0 59 -32l209 -311q6 -12 7 -17q1 -4 1 -9q0 -29 -24 -45q-15 -12 -34 -12q-21 0 -37 17z" />
<glyph unicode="a" horiz-adv-x="993" d="M489 582q-111 0 -181 -69.5t-70 -168.5q0 -103 71.5 -170.5t179.5 -67.5q96 0 167 69.5t71 168.5q0 102 -73.5 170t-164.5 68zM457 717q104 0 180 -54.5t88 -103.5v96q0 142 -63.5 220.5t-180.5 78.5q-69 0 -130 -21.5t-95 -55.5l-78 104q134 109 303 109 q166 0 275.5 -115t109.5 -320v-123v-532h-139v156v2q-2 -20 -23.5 -50.5t-55.5 -61.5t-86 -53t-106 -22q-162 0 -267 103t-105 270q0 160 108.5 266.5t264.5 106.5z" />
<glyph unicode="b" horiz-adv-x="1044" d="M281 1454v-568q19 45 43 80.5t59 68t85 50t112 17.5q101 0 179 -46.5t124 -127t69 -179t23 -210.5q0 -111 -23 -209.5t-69 -180.5t-124.5 -130t-180.5 -48q-62 0 -112 17.5t-85 49.5t-57.5 66.5t-42.5 79.5v-184h-152v1454h152zM821 539q0 200 -76.5 313.5t-192.5 113.5 t-196 -115t-80 -314q0 -198 80 -314.5t196 -116.5q115 0 192 116.5t77 316.5z" />
<glyph unicode="c" horiz-adv-x="921" d="M745 809q-18 50 -78 99.5t-130 49.5q-127 0 -217.5 -119.5t-90.5 -301.5q0 -194 88 -312.5t218 -118.5q43 0 82.5 17.5t66.5 44.5t43.5 51t26.5 45l122 -77q-24 -41 -56 -77t-74.5 -68.5t-97 -51.5t-113.5 -19q-131 0 -236.5 76t-164 205.5t-58.5 284.5q0 86 20 167.5 t60 152t94.5 123.5t128.5 83.5t158 30.5q114 0 199.5 -61t139.5 -158z" />
<glyph unicode="d" horiz-adv-x="1044" d="M767 1454h152v-1454h-152v184q-20 -45 -43 -79.5t-57.5 -66.5t-84.5 -49.5t-113 -17.5q-82 0 -149 32t-112 86t-76 127.5t-45 154t-14 168.5q0 112 23 210.5t69 179t124 127t179 46.5q62 0 112 -17.5t85 -50t59 -68t43 -80.5v568zM227 539q0 -200 77 -316.5t192 -116.5 q116 0 196 116.5t80 314.5q0 199 -80 314t-196 115t-192.5 -113.5t-76.5 -313.5z" />
<glyph unicode="e" horiz-adv-x="1013" d="M257 604h522q-9 145 -79 249.5t-182 104.5q-76 0 -135.5 -54t-89.5 -132.5t-36 -167.5zM257 469q8 -96 38 -176t88.5 -133.5t134.5 -53.5q72 0 142.5 38.5t102.5 98.5l133 -55q-51 -99 -155.5 -158t-222.5 -59q-130 0 -226.5 76.5t-145 203.5t-48.5 286t49 284t145 199 t226 74q97 0 176 -45.5t128.5 -121t75.5 -168.5t26 -194q0 -11 0.5 -47.5t0.5 -48.5h-668z" />
<glyph unicode="f" horiz-adv-x="716" d="M416 938v-938h-152v938h-139v135h138v135q0 60 29.5 113t73.5 87t92 53.5t87 19.5q58 0 96.5 -20.5t81.5 -61.5l-109 -105q-14 18 -23 27t-29 17t-48 8q-40 0 -68.5 -26t-28.5 -71v-176h195v-135h-196z" />
<glyph unicode="g" horiz-adv-x="1021" d="M919 -18q0 -99 -35 -182t-92.5 -136.5t-129.5 -83t-149 -29.5q-91 0 -169.5 32.5t-129 84t-80.5 109.5t-37 114h143q14 -87 93 -145.5t171 -58.5q104 0 183.5 73t79.5 207v33v184q-20 -45 -42.5 -79.5t-57.5 -66.5t-85 -49.5t-112 -17.5q-82 0 -149.5 32t-112.5 86 t-76 127.5t-45 154t-14 168.5q0 112 23 210.5t69 179t124 127t179 46.5q62 0 112 -17.5t85 -50t59 -68t43 -80.5v187h152v-1073v-18zM227 539q0 -200 77 -316.5t192 -116.5q116 0 196 116.5t80 314.5q0 199 -80 314t-196 115t-192.5 -113.5t-76.5 -313.5z" />
<glyph unicode="h" horiz-adv-x="1064" d="M281 0h-152v1456h152v-564q28 89 109.5 149.5t195.5 60.5q82 0 148.5 -33t116.5 -100t77.5 -175.5t27.5 -252.5v-541h-151v541q0 90 -14.5 165t-44.5 134t-81 92t-119 33t-119.5 -34t-83 -93.5t-47 -134.5t-15.5 -163v-540z" />
<glyph unicode="i" horiz-adv-x="430" d="M131 1333q0 38 28 66t66 28q34 0 59.5 -21.5t32.5 -53.5q2 -6 2 -19q0 -38 -28 -66t-66 -28q-33 0 -59 21.5t-33 53.5q-2 12 -2 19zM150 1073h151v-1073h-151v1073z" />
<glyph unicode="j" horiz-adv-x="468" d="M170 1333q0 38 28 66t66 28q37 0 65.5 -27.5t28.5 -66.5q0 -38 -28 -66t-66 -28q-37 0 -65.5 27.5t-28.5 66.5zM-119 -346l107 102q8 -7 15 -13.5t16 -13t18.5 -11.5t22 -8t26.5 -3q102 0 102 123v170v1073h152v-1073v-139q0 -63 -23 -114.5t-57 -83t-74.5 -53t-73.5 -30 t-57 -8.5q-42 0 -78 15t-52 27.5t-44 39.5z" />
<glyph unicode="k" horiz-adv-x="944" d="M479 616l461 -616h-174l-379 512l-106 -133v-379h-152v1454h152v-872l409 491h174z" />
<glyph unicode="l" horiz-adv-x="430" d="M301 207q0 -17 3 -30q16 -75 116 -75v-131q-113 0 -178.5 37t-84.5 126q-7 37 -7 69v1251h151v-1247z" />
<glyph unicode="m" horiz-adv-x="1533" d="M854 0h-152v547q0 72 -4 127t-17 112t-34.5 94.5t-59 61t-88.5 23.5q-218 0 -218 -415v-550h-152v1073h152v-182q18 38 30.5 61.5t36 55.5t48 50t62.5 31t84 13q116 0 190.5 -68.5t101.5 -173.5q26 104 101 173t184 69q159 0 233.5 -119.5t74.5 -329.5v-653h-151v543 q0 59 -3 106t-10 97t-21.5 86t-36 66t-54 45t-75.5 15q-222 0 -222 -409v-549z" />
<glyph unicode="n" horiz-adv-x="1064" d="M281 0h-152v1073h152v-181q28 89 109.5 149.5t195.5 60.5q82 0 148.5 -33t116.5 -100t77.5 -175.5t27.5 -252.5v-541h-151v541q0 90 -14.5 165t-44.5 134t-81 92t-119 33t-119.5 -34t-83 -93.5t-47 -134.5t-15.5 -163v-540z" />
<glyph unicode="o" horiz-adv-x="1054" d="M102 537q0 119 28.5 220t82 176.5t137.5 118t189 42.5q138 0 238.5 -75t149 -199t48.5 -283q0 -161 -47.5 -287t-148 -202.5t-240.5 -76.5q-139 0 -239.5 77t-149 203t-48.5 286zM256 537q0 -90 16 -166t49 -136.5t88.5 -94.5t129.5 -34q73 0 128.5 34t88.5 94.5 t49 136.5t16 166q0 121 -27.5 212.5t-92.5 150t-162 58.5q-98 0 -163 -58.5t-92.5 -150t-27.5 -212.5z" />
<glyph unicode="p" horiz-adv-x="1044" d="M281 1073v-187q19 45 43 80.5t59 68t85 50t112 17.5q101 0 179 -46.5t124 -127t69 -179t23 -210.5q0 -111 -23 -209.5t-69 -180.5t-124.5 -130t-180.5 -48q-62 0 -112 17.5t-85 49.5t-57.5 66.5t-42.5 79.5v-612h-152v1501h152zM821 539q0 200 -76.5 313.5t-192.5 113.5 t-196 -115t-80 -314q0 -198 80 -314.5t196 -116.5q115 0 192 116.5t77 316.5z" />
<glyph unicode="q" horiz-adv-x="1048" d="M919 -199q0 -61 26 -87.5t92 -26.5v-136q-132 0 -201 58.5t-69 185.5v205v184q-53 -121 -127 -167t-174 -46t-178 48.5t-123.5 130t-68.5 180.5t-23 209q0 112 23 210.5t69 179t124 127t179 46.5q62 0 112 -17.5t85 -50t59 -68t43 -80.5v187h152v-1073v-199zM227 539 q0 -200 77 -316.5t192 -116.5q116 0 196 116.5t80 314.5q0 199 -80 314t-196 115t-192.5 -113.5t-76.5 -313.5z" />
<glyph unicode="r" horiz-adv-x="686" d="M737 1066l-80 -131q-49 30 -111 30q-89 0 -150.5 -60t-88 -153t-26.5 -212v-540h-152v1073h152v-181q28 89 110 149.5t195 60.5q82 0 151 -36z" />
<glyph unicode="s" horiz-adv-x="921" d="M469 477q-60 20 -101 36t-91.5 45t-81.5 61.5t-52.5 81.5t-21.5 108q0 137 100 212t248 77q81 0 146.5 -22.5t106.5 -59.5t65 -72.5t36 -72.5l-146 -30q-54 122 -206 122q-80 0 -138.5 -39.5t-58.5 -110.5q0 -36 14.5 -66t37 -48t49 -33.5t51.5 -22.5t45 -16 q12 -4 43.5 -15.5t48.5 -17.5t48.5 -19t50 -23t45.5 -27t43.5 -33t35.5 -39t29.5 -47t17.5 -54.5t7 -64.5q0 -137 -108 -226.5t-259 -89.5q-152 0 -245.5 67t-131.5 179l147 28q30 -67 82 -103t144 -36q101 0 159 48t58 133q0 40 -19 72t-54.5 54.5t-67 36t-76.5 27.5z" />
<glyph unicode="t" horiz-adv-x="696" d="M244 938h-142v135h142v250h151v-250h197v-135h-197v-723q0 -117 117 -117h70v-127h-70q-148 0 -208 55.5t-60 184.5v727z" />
<glyph unicode="u" horiz-adv-x="1064" d="M795 1073h152v-1073h-152v181q-28 -89 -109.5 -149.5t-195.5 -60.5q-82 0 -148.5 33t-116.5 100t-77.5 175.5t-27.5 252.5v541h151v-541q0 -90 14.5 -165t44.5 -134t81 -92t119 -33t119.5 34t83 93.5t47 134.5t15.5 163v540z" />
<glyph unicode="v" horiz-adv-x="1024" d="M446 0l-364 1073h160l280 -878l287 878h158l-369 -1073h-152z" />
<glyph unicode="w" horiz-adv-x="1374" d="M698 862l-227 -862h-117l-286 1073h153l193 -823l209 815h151l209 -815l193 823h153l-287 -1073h-122z" />
<glyph unicode="x" horiz-adv-x="901" d="M870 0h-170l-241 440l-230 -440h-176l314 539l-312 534h170l234 -434l233 434h170l-311 -530z" />
<glyph unicode="y" horiz-adv-x="1064" d="M947 -18q0 -98 -38 -181.5t-99.5 -137t-137 -83t-152.5 -29.5q-213 0 -363 174l106 85q103 -123 257 -123q49 0 96 17.5t88 50t66 88t25 124.5v214q-28 -89 -109.5 -149.5t-195.5 -60.5q-82 0 -148.5 33t-116.5 100t-77.5 175.5t-27.5 252.5v541h151v-541 q0 -90 14.5 -165t44.5 -134t81 -92t119 -33t119.5 34t83 93.5t47 134.5t15.5 163v540h152v-1091z" />
<glyph unicode="z" horiz-adv-x="962" d="M342 141h535v-141h-787l565 932h-524v141h776z" />
<glyph unicode="{" horiz-adv-x="747" d="M90 729q64 20 106 71t58.5 113.5t24.5 137.5t7 139.5t3 124t16 86.5q10 20 24 37t26 29t34 22t33.5 16t40 10.5t38.5 7t45 4t42.5 2t46.5 1.5v-135q-28 4 -43 4q-43 0 -88 -16t-64 -44q-12 -22 -12 -102v-45q0 -77 -9.5 -166.5t-39.5 -183.5t-76 -113q60 -23 94 -182 q31 -142 31 -309v-43q0 -62 6 -87q2 -13 6 -20q19 -27 63.5 -43t88.5 -16q15 0 43 4v-135q-39 1 -46.5 1.5t-42.5 2t-45 4t-39 7t-40 10.5t-33 16t-34 22t-26 29t-24 37q-5 12 -8 26q-8 39 -11 199t-22 247q-40 190 -174 230z" />
<glyph unicode="|" horiz-adv-x="368" d="M125 0v1454h143v-1454h-143z" />
<glyph unicode="}" horiz-adv-x="747" d="M678 729q-64 -19 -106 -71.5t-58.5 -117.5t-24.5 -143t-7 -145.5t-3 -129.5t-16 -89q-10 -20 -24 -37t-26 -29t-34 -22t-33 -16t-40 -10.5t-39 -7t-45 -4t-42.5 -2t-46.5 -1.5v135q28 -4 43 -4q44 0 88.5 16t63.5 43q12 23 12 107v43q0 81 9.5 176t39.5 193.5t76 115.5 q-63 25 -97 186q-28 133 -28 277v45q0 57 -5 82q-4 14 -7 20q-19 28 -64 44t-88 16q-15 0 -43 -4v135q39 -1 46.5 -1.5t42.5 -2t45 -4t38.5 -7t40 -10.5t33.5 -16t34 -22t26 -29t24 -37q6 -15 8 -28q8 -37 11 -185t21 -230q39 -185 175 -229z" />
<glyph unicode="~" horiz-adv-x="735" d="M63 764q26 20 50.5 41.5t60.5 38t72 16.5q27 0 55 -15.5t52 -38t48 -44.5t53 -37.5t58 -15.5q32 0 66 15.5t61.5 37t60.5 45.5v-145q-33 -25 -59.5 -47t-60.5 -37t-68 -15q-32 0 -63.5 15.5t-57.5 38t-50 45t-49.5 38t-47.5 15.5q-36 0 -69 -15t-57.5 -36.5t-54.5 -45.5 v146z" />
<glyph unicode="&#xa1;" horiz-adv-x="309" d="M28 0zM69 1013.98q0 25 17.5 42.002q17.5 17.001 40.5 17.002q25 -0.998047 42 -17.4971t17 -41.499l41 -948.998q0 -39 -29.5 -66.502q-29.5 -27.501 -68.5 -27.5039q-40 -0.00195312 -70.5 27.4961t-30.5 64.498zM247 1359.99q0 -45 -32 -76.502t-76 -31.5049 q-39 -0.00292969 -68 24.4961q-29 24.498 -37 60.4971q-2 8 -2 23q0 44 31.5 75.502t75.5 31.5049q39 0.00195312 68 -23.9961t37 -60.998q3 -9.99902 3 -21.999z" />
<glyph unicode="&#xa2;" horiz-adv-x="808" d="M381 279q-107 13 -186 85.5t-105 191.5q-10 44 -10 101q0 76 28 138t74.5 100.5t94.5 61.5t100 36v215h135v-215q99 -25 199 -112l-90 -95q-80 80 -187 80q-85 0 -148 -61t-63 -152q0 -33 7 -71q18 -83 74 -129.5t136 -46.5q127 0 209 106l90 -90q-60 -96 -223 -148v-196 h-135v201z" />
<glyph unicode="&#xa3;" horiz-adv-x="1120" d="M311 596h-227v135h238q0 363 65 549t209 186q222 0 328 -297l-144 -6q-17 70 -64 120t-120 50q-31 0 -60 -67t-45 -159t-16 -173v-125v-78h359v-135h-365q-13 -185 -107 -461h504q22 1 35 4t36 19.5t46 48.5l80 -115q-11 -17 -26 -31t-31 -22.5t-35 -15t-38 -10t-39 -7.5 t-40 -6h-709q10 42 52 155t75 229.5t39 211.5z" />
<glyph unicode="&#xa4;" horiz-adv-x="856" d="M260 764q0 -22 4 -38q13 -62 62.5 -102.5t114.5 -40.5q75 0 127.5 53t52.5 128q0 22 -4 38q-13 62 -62 102.5t-114 40.5q-76 0 -128.5 -53t-52.5 -128zM616 504q-80 -55 -178 -55t-178 55v-129h-197v196h127q-43 57 -58 127q-7 28 -7 64q0 103 59 184h-121v197h197v-123 q80 55 178 55t178 -55v123h197v-197h-121q38 -52 53 -118q7 -37 7 -66q0 -104 -66 -191h127v-196h-197v129z" />
<glyph unicode="&#xa5;" horiz-adv-x="1110" d="M471 682h-311v135h258l-344 580h155l324 -566l344 566h156l-373 -580h248v-135h-305v-215h305v-135h-305v-332h-152v332h-311v135h311v215z" />
<glyph unicode="&#xa6;" horiz-adv-x="305" d="M233 645v-645h-143v645h143zM90 788v646h143v-646h-143z" />
<glyph unicode="&#xa7;" horiz-adv-x="686" d="M186 958q28 9 66 9q138 0 256 -97.5t150 -247.5q10 -48 10 -92q0 -169 -94 -297.5t-224 -128.5q-93 0 -166.5 43.5t-132.5 143.5l150 10q18 -26 59.5 -43.5t73.5 -17.5h4q71 0 119.5 56t64.5 144v2q0 3 -5 3t-27.5 -6.5t-32.5 -6.5q-140 0 -254.5 85.5t-148.5 241.5 q-11 55 -11 113q0 110 39 206t112 156t164 60q97 0 156 -36t129 -128l-154 -16q-17 19 -52 32t-62 13h-4q-140 0 -185 -201zM506 582q0 20 -5 43q-18 83 -87.5 144.5t-163.5 61.5q-33 0 -55 -14q0 -18 3 -36q17 -81 94.5 -147.5t158.5 -66.5h18q37 0 37 15z" />
<glyph unicode="&#xa8;" horiz-adv-x="794" d="M547 838q0 38 28 66t66 28q33 0 59 -21.5t33 -53.5q2 -7 2 -19q0 -39 -28 -67t-66 -28q-33 0 -59 21.5t-33 54.5q-2 12 -2 19zM76 836q0 38 28 66t66 28q33 0 59 -21.5t33 -53.5q2 -7 2 -19q0 -39 -28 -67t-66 -28q-33 0 -59 21.5t-33 54.5q-2 6 -2 19z" />
<glyph unicode="&#xa9;" horiz-adv-x="942" d="M629 610q-67 -67 -150 -67q-74 0 -130.5 46t-71.5 117q-5 23 -5 44q0 85 60.5 145.5t146.5 60.5q91 0 150 -59l-78 -82q-34 29 -72 29t-66 -28t-28 -66q0 -7 2 -19q7 -32 33 -54t59 -22q46 0 76 27zM158 750q0 -37 7 -68q24 -111 111.5 -183.5t202.5 -72.5 q133 0 227.5 95t94.5 229q0 30 -7 68q-24 110 -112 182.5t-203 72.5q-133 0 -227 -94.5t-94 -228.5zM41 750q0 181 128.5 309.5t309.5 128.5q157 0 277 -98.5t152 -248.5q10 -50 10 -91q0 -182 -129 -310.5t-310 -128.5q-156 0 -276 98.5t-152 248.5q-10 43 -10 92z" />
<glyph unicode="&#xab;" horiz-adv-x="872" d="M653 1118h135l-192 -291l192 -290h-135l-192 290zM252 1118h135l-192 -291l192 -290h-135l-193 290z" />
<glyph unicode="&#xac;" horiz-adv-x="1026" d="M920 545h-136v205h-630v143h766v-348z" />
<glyph unicode="&#xad;" horiz-adv-x="950" d="M109 735zM109 877h677v-142h-677v142z" />
<glyph unicode="&#xae;" horiz-adv-x="1189" d="M211 750q0 -50 9 -94q16 -74 56.5 -132.5t94.5 -94t113 -53.5t118 -18q68 0 136.5 26.5t126.5 75t94 124.5t36 166q0 46 -9 86q-16 75 -59 136t-99 97t-114.5 55t-111.5 19q-69 0 -136.5 -24.5t-125.5 -71.5t-93.5 -124.5t-35.5 -172.5zM94 750q0 102 31.5 188t83 144 t118.5 99t136.5 60t138.5 19q181 0 321 -111.5t178 -287.5q11 -57 11 -111q0 -146 -74.5 -264.5t-190.5 -181t-245 -62.5q-107 0 -208 42.5t-181.5 133.5t-106.5 214q-12 56 -12 118zM508 801h51q34 0 57.5 2t47.5 8t36.5 20t12.5 35q0 2 -0.5 6t-0.5 5q-7 34 -53.5 44.5 t-121.5 10.5h-29v-131zM426 1010h82q113 0 191 -29t91 -91q3 -10 3 -24q0 -29 -9 -51t-20.5 -34t-34 -22t-36 -14t-40.5 -10l162 -239h-100l-142 227l-65 -2v-225h-82v514z" />
<glyph unicode="&#xaf;" horiz-adv-x="706" d="M63 1130h605v-135h-605v135z" />
<glyph unicode="&#xb0;" horiz-adv-x="598" d="M167 1178q0 -18 3 -34q11 -51 50 -83.5t91 -32.5q61 0 102.5 43.5t41.5 106.5q0 16 -3 33q-11 51 -50 84t-91 33q-61 0 -102.5 -44t-41.5 -106zM49 1174q0 107 76.5 182.5t185.5 75.5q94 0 166 -58t91 -147q5 -21 5 -53q0 -108 -76.5 -183.5t-185.5 -75.5 q-94 0 -165.5 58t-90.5 147q-6 26 -6 54z" />
<glyph unicode="&#xb1;" horiz-adv-x="983" d="M150 274zM150 998h307v311h141v-311h308v-142h-308v-311h-141v311h-307v142zM189 416h677v-142h-677v142z" />
<glyph unicode="&#xb4;" horiz-adv-x="550" d="M105 1232l206 314q24 33 60 33q26 0 46 -17q23 -16 29 -44q1 -7 1 -13q0 -24 -16 -47l-238 -290q-14 -17 -37 -17q-20 0 -36 11q-18 14 -22 34q-1 5 -1 10q0 13 8 26z" />
<glyph unicode="&#xb5;" horiz-adv-x="1003" d="M297 74v-469h-143v1267h145v-458q0 -76 12 -132q36 -171 185 -171q46 0 85 19.5t65.5 51.5t45 72.5t27 81t8.5 78.5v458h143v-872h-143v98q-46 -57 -104.5 -91t-116.5 -34q-44 0 -78.5 9.5t-55.5 24t-41 32.5t-34 35z" />
<glyph unicode="&#xb6;" horiz-adv-x="1150" d="M645 1260v-512q17 0 107.5 -4.5t109.5 -4.5v533q-17 0 -107.5 -6t-109.5 -6zM502 1227q-48 -16 -83.5 -32.5t-74 -43.5t-59.5 -66.5t-21 -89.5q0 -24 5 -49q7 -33 25 -59.5t38.5 -43t53 -31t56 -22t60.5 -16.5v453zM645 135h217v477q-18 0 -108 5.5t-109 5.5v-488zM502 0 v643q-61 13 -108 27.5t-94 36.5t-79.5 49.5t-56.5 67t-35 88.5q-8 42 -8 83q0 98 57.5 176.5t156 126.5t221.5 73.5t261 25.5h197v-1397h-512z" />
<glyph unicode="&#xb7;" horiz-adv-x="438" d="M142 622zM142 729q0 45 32 76.5t76 31.5q39 0 68 -24.5t37 -60.5q2 -8 2 -23q0 -44 -31.5 -75.5t-75.5 -31.5q-39 0 -68 24t-37 61q-3 10 -3 22z" />
<glyph unicode="&#xb8;" horiz-adv-x="473" d="M117 -190q20 15 28.5 21.5t28 23.5t28.5 31.5t9 27.5q0 5 -2 15q-3 17 -18 40t-35 49l129 56q64 -62 80 -134q4 -24 4 -38q0 -32 -13.5 -60t-41.5 -52.5t-49 -39.5t-58 -37t-47 -28z" />
<glyph unicode="&#xbb;" horiz-adv-x="933" d="M233 1118l193 -291l-193 -290h-135l193 290l-193 291h135zM635 1118l192 -291l-192 -290h-135l192 290l-192 291h135z" />
<glyph unicode="&#xbf;" horiz-adv-x="954" d="M18 0zM377 902v141h157v-145q0 -45 -11 -85t-25.5 -67t-41.5 -57.5t-47 -47.5t-54.5 -45.5t-52.5 -44.5l-20 -18t-19.5 -18t-18 -18.5t-16.5 -19t-15 -20.5t-12.5 -22.5t-10 -25.5t-8 -29t-5 -33t-1.5 -38q0 -125 77 -193.5t201 -68.5q82 0 151.5 45t105.5 107t36 119 l146 -25q-19 -164 -141 -275.5t-291 -111.5q-86 0 -164 25t-141 73t-100.5 126t-37.5 175t37 170.5t99 136.5q26 25 62.5 52.5t61.5 47t49.5 45.5t37 61.5t12.5 83.5zM554 1309q0 -45 -32 -76.5t-76 -31.5q-39 0 -68 24.5t-37 60.5q-2 8 -2 23q0 44 31.5 75.5t75.5 31.5 q39 0 68 -24t37 -61q3 -10 3 -22z" />
<glyph unicode="&#xc0;" horiz-adv-x="1292" d="M82 0zM650 1508l-242 287q-12 17 -15 33q-2 7 -2 15q0 36 32 58q21 16 46 16q34 0 59 -32l209 -311q6 -12 7 -17q1 -4 1 -9q0 -29 -24 -45q-15 -12 -34 -12q-21 0 -37 17zM669 1214l-204 -593h415zM917 485h-497l-162 -485h-176l524 1456h127l524 -1456h-180z" />
<glyph unicode="&#xc1;" horiz-adv-x="1292" d="M82 0zM586 1576l206 314q24 33 60 33q26 0 46 -17q23 -16 29 -44q1 -7 1 -13q0 -24 -16 -47l-238 -290q-14 -17 -37 -17q-20 0 -36 11q-18 14 -22 34q-1 5 -1 10q0 13 8 26zM669 1214l-204 -593h415zM917 485h-497l-162 -485h-176l524 1456h127l524 -1456h-180z" />
<glyph unicode="&#xc2;" horiz-adv-x="1292" d="M82 0zM1009 1561h-188l-156 213l-158 -211h-186l277 342h131zM669 1214l-204 -593h415zM917 485h-497l-162 -485h-176l524 1456h127l524 -1456h-180z" />
<glyph unicode="&#xc3;" horiz-adv-x="1292" d="M82 0zM346 1770q26 20 50.5 41.5t60.5 38t72 16.5q27 0 55 -15.5t52 -38t48 -44.5t53 -37.5t58 -15.5q32 0 66 15.5t61.5 37t60.5 45.5v-145q-33 -25 -59.5 -47t-60.5 -37t-68 -15q-32 0 -63.5 15.5t-57.5 38t-50 45t-49.5 38t-47.5 15.5q-36 0 -69 -15t-57.5 -36.5 t-54.5 -45.5v146zM669 1214l-204 -593h415zM917 485h-497l-162 -485h-176l524 1456h127l524 -1456h-180z" />
<glyph unicode="&#xc4;" horiz-adv-x="1292" d="M82 0zM805 1653q0 38 28 66t66 28q33 0 59 -21.5t33 -53.5q2 -7 2 -19q0 -39 -28 -67t-66 -28q-33 0 -59 21.5t-33 54.5q-2 12 -2 19zM334 1651q0 38 28 66t66 28q33 0 59 -21.5t33 -53.5q2 -7 2 -19q0 -39 -28 -67t-66 -28q-33 0 -59 21.5t-33 54.5q-2 6 -2 19z M669 1214l-204 -593h415zM917 485h-497l-162 -485h-176l524 1456h127l524 -1456h-180z" />
<glyph unicode="&#xc5;" horiz-adv-x="1292" d="M82 0zM525 1739q0 -18 3 -34q11 -51 50 -83.5t91 -32.5q61 0 102.5 43.5t41.5 106.5q0 16 -3 33q-11 51 -50 84t-91 33q-61 0 -102.5 -44t-41.5 -106zM407 1735q0 107 76.5 182.5t185.5 75.5q94 0 166 -58t91 -147q5 -21 5 -53q0 -108 -76.5 -183.5t-185.5 -75.5 q-94 0 -165.5 58t-90.5 147q-6 26 -6 54zM669 1214l-204 -593h415zM917 485h-497l-162 -485h-176l524 1456h127l524 -1456h-180z" />
<glyph unicode="&#xc6;" horiz-adv-x="1388" d="M785 645h-264l-259 -645h-179l591 1456h709v-149h-442v-519h442v-147h-442v-494h442v-147h-598v645zM783 1237v74l-202 -523h204z" />
<glyph unicode="&#xc7;" horiz-adv-x="1220" d="M120 0zM574 -299q20 15 28.5 21.5t28 23.5t28.5 31.5t9 27.5q0 5 -2 15q-3 17 -18 40t-35 49l129 56q64 -62 80 -134q4 -24 4 -38q0 -32 -13.5 -60t-41.5 -52.5t-49 -39.5t-58 -37t-47 -28zM1187 293q-24 -64 -62 -118.5t-94 -102t-136 -74.5t-175 -27q-119 0 -219 41 t-169.5 112.5t-118 167.5t-71 205.5t-22.5 227.5q0 119 23 229.5t71.5 209.5t118.5 172t170 116t219 43q76 0 143.5 -18.5t116.5 -48.5t88 -70.5t63.5 -81t39.5 -82.5l-149 -41q-29 91 -113.5 146t-188.5 55h-2q-104 0 -188.5 -54t-137 -144t-80.5 -201t-28 -230 q0 -121 30 -231.5t84.5 -196t137.5 -136t182 -50.5q106 0 197 65.5t123 157.5z" />
<glyph unicode="&#xc8;" horiz-adv-x="1146" d="M131 0zM586 1510l-242 287q-12 17 -15 33q-2 7 -2 15q0 36 32 58q21 16 46 16q34 0 59 -32l209 -311q6 -12 7 -17q1 -4 1 -9q0 -29 -24 -45q-15 -12 -34 -12q-21 0 -37 17zM131 1456h921v-141h-763v-498h720v-141h-720v-535h763v-141h-921v1456z" />
<glyph unicode="&#xc9;" horiz-adv-x="1146" d="M131 0zM457 1582l206 314q24 33 60 33q26 0 46 -17q23 -16 29 -44q1 -7 1 -13q0 -24 -16 -47l-238 -290q-14 -17 -37 -17q-20 0 -36 11q-18 14 -22 34q-1 5 -1 10q0 13 8 26zM131 1456h921v-141h-763v-498h720v-141h-720v-535h763v-141h-921v1456z" />
<glyph unicode="&#xca;" horiz-adv-x="1146" d="M131 0zM950 1538h-188l-156 213l-158 -211h-186l277 342h131zM131 1456h921v-141h-763v-498h720v-141h-720v-535h763v-141h-921v1456z" />
<glyph unicode="&#xcb;" horiz-adv-x="1146" d="M131 0zM737 1655q0 38 28 66t66 28q33 0 59 -21.5t33 -53.5q2 -7 2 -19q0 -39 -28 -67t-66 -28q-33 0 -59 21.5t-33 54.5q-2 12 -2 19zM266 1653q0 38 28 66t66 28q33 0 59 -21.5t33 -53.5q2 -7 2 -19q0 -39 -28 -67t-66 -28q-33 0 -59 21.5t-33 54.5q-2 6 -2 19z M131 1456h921v-141h-763v-498h720v-141h-720v-535h763v-141h-921v1456z" />
<glyph unicode="&#xcc;" horiz-adv-x="440" d="M0 0zM205 1531l-242 287q-12 17 -15 33q-2 7 -2 15q0 36 32 58q21 16 46 16q34 0 59 -32l209 -311q6 -12 7 -17q1 -4 1 -9q0 -29 -24 -45q-15 -12 -34 -12q-21 0 -37 17zM164 0v1456h157v-1456h-157z" />
<glyph unicode="&#xcd;" horiz-adv-x="440" d="M164 0zM193 1617l206 314q24 33 60 33q26 0 46 -17q23 -16 29 -44q1 -7 1 -13q0 -24 -16 -47l-238 -290q-14 -17 -37 -17q-20 0 -36 11q-18 14 -22 34q-1 5 -1 10q0 13 8 26zM164 0v1456h157v-1456h-157z" />
<glyph unicode="&#xce;" horiz-adv-x="440" d="M0 0zM585 1550h-188l-156 213l-158 -211h-186l277 342h131zM164 0v1456h157v-1456h-157z" />
<glyph unicode="&#xcf;" horiz-adv-x="440" d="M0 0zM381 1639q0 38 28 66t66 28q33 0 59 -21.5t33 -53.5q2 -7 2 -19q0 -39 -28 -67t-66 -28q-33 0 -59 21.5t-33 54.5q-2 12 -2 19zM-90 1637q0 38 28 66t66 28q33 0 59 -21.5t33 -53.5q2 -7 2 -19q0 -39 -28 -67t-66 -28q-33 0 -59 21.5t-33 54.5q-2 6 -2 19zM164 0 v1456h157v-1456h-157z" />
<glyph unicode="&#xd0;" horiz-adv-x="3969" d="M326 662h-182v141h182v653h381q222 0 378 -146t206 -382q20 -98 20 -202q0 -203 -75 -368t-214 -261.5t-315 -96.5h-226h-155v662zM483 662v-519h224q194 0 320.5 162.5t126.5 420.5q0 94 -18 177q-40 187 -155.5 298t-273.5 111h-224v-509h300v-141h-300z" />
<glyph unicode="&#xd1;" horiz-adv-x="1292" d="M131 0zM362 1749q26 20 50.5 41.5t60.5 38t72 16.5q27 0 55 -15.5t52 -38t48 -44.5t53 -37.5t58 -15.5q32 0 66 15.5t61.5 37t60.5 45.5v-145q-33 -25 -59.5 -47t-60.5 -37t-68 -15q-32 0 -63.5 15.5t-57.5 38t-50 45t-49.5 38t-47.5 15.5q-36 0 -69 -15t-57.5 -36.5 t-54.5 -45.5v146zM131 0v1456h153l740 -1161v1161h157v-1456h-145l-747 1190v-1190h-158z" />
<glyph unicode="&#xd2;" horiz-adv-x="1329" d="M102 0zM691 1576l-242 287q-12 17 -15 33q-2 7 -2 15q0 36 32 58q21 16 46 16q34 0 59 -32l209 -311q6 -12 7 -17q1 -4 1 -9q0 -29 -24 -45q-15 -12 -34 -12q-21 0 -37 17zM1106 725q0 118 -23 227q-18 83 -48.5 152t-77.5 127t-116 90.5t-155 32.5q-93 0 -167 -40 t-120 -103.5t-76.5 -148t-42.5 -168t-12 -169.5q0 -111 22 -218q17 -82 47.5 -149.5t77.5 -124t116.5 -88.5t154.5 -32q93 0 167 38.5t120 99.5t77 143t43.5 164t12.5 167zM102 725q0 101 19 204t64 206t110 182t166.5 128.5t224.5 49.5q121 0 220 -46t166 -125.5 t110 -172.5t66 -201q24 -116 24 -225q0 -100 -19.5 -201t-64.5 -202t-110.5 -178t-167 -125t-224.5 -48q-120 0 -219 45t-166 123t-110 170t-66 199q-23 106 -23 217z" />
<glyph unicode="&#xd3;" horiz-adv-x="1329" d="M102 0zM627 1635l206 314q24 33 60 33q26 0 46 -17q23 -16 29 -44q1 -7 1 -13q0 -24 -16 -47l-238 -290q-14 -17 -37 -17q-20 0 -36 11q-18 14 -22 34q-1 5 -1 10q0 13 8 26zM1106 725q0 118 -23 227q-18 83 -48.5 152t-77.5 127t-116 90.5t-155 32.5q-93 0 -167 -40 t-120 -103.5t-76.5 -148t-42.5 -168t-12 -169.5q0 -111 22 -218q17 -82 47.5 -149.5t77.5 -124t116.5 -88.5t154.5 -32q93 0 167 38.5t120 99.5t77 143t43.5 164t12.5 167zM102 725q0 101 19 204t64 206t110 182t166.5 128.5t224.5 49.5q121 0 220 -46t166 -125.5 t110 -172.5t66 -201q24 -116 24 -225q0 -100 -19.5 -201t-64.5 -202t-110.5 -178t-167 -125t-224.5 -48q-120 0 -219 45t-166 123t-110 170t-66 199q-23 106 -23 217z" />
<glyph unicode="&#xd4;" horiz-adv-x="1329" d="M102 0zM1030 1563h-188l-156 213l-158 -211h-186l277 342h131zM1106 725q0 118 -23 227q-18 83 -48.5 152t-77.5 127t-116 90.5t-155 32.5q-93 0 -167 -40t-120 -103.5t-76.5 -148t-42.5 -168t-12 -169.5q0 -111 22 -218q17 -82 47.5 -149.5t77.5 -124t116.5 -88.5 t154.5 -32q93 0 167 38.5t120 99.5t77 143t43.5 164t12.5 167zM102 725q0 101 19 204t64 206t110 182t166.5 128.5t224.5 49.5q121 0 220 -46t166 -125.5t110 -172.5t66 -201q24 -116 24 -225q0 -100 -19.5 -201t-64.5 -202t-110.5 -178t-167 -125t-224.5 -48 q-120 0 -219 45t-166 123t-110 170t-66 199q-23 106 -23 217z" />
<glyph unicode="&#xd5;" horiz-adv-x="1329" d="M102 0zM370 1770q26 20 50.5 41.5t60.5 38t72 16.5q27 0 55 -15.5t52 -38t48 -44.5t53 -37.5t58 -15.5q32 0 66 15.5t61.5 37t60.5 45.5v-145q-33 -25 -59.5 -47t-60.5 -37t-68 -15q-32 0 -63.5 15.5t-57.5 38t-50 45t-49.5 38t-47.5 15.5q-36 0 -69 -15t-57.5 -36.5 t-54.5 -45.5v146zM1106 725q0 118 -23 227q-18 83 -48.5 152t-77.5 127t-116 90.5t-155 32.5q-93 0 -167 -40t-120 -103.5t-76.5 -148t-42.5 -168t-12 -169.5q0 -111 22 -218q17 -82 47.5 -149.5t77.5 -124t116.5 -88.5t154.5 -32q93 0 167 38.5t120 99.5t77 143t43.5 164 t12.5 167zM102 725q0 101 19 204t64 206t110 182t166.5 128.5t224.5 49.5q121 0 220 -46t166 -125.5t110 -172.5t66 -201q24 -116 24 -225q0 -100 -19.5 -201t-64.5 -202t-110.5 -178t-167 -125t-224.5 -48q-120 0 -219 45t-166 123t-110 170t-66 199q-23 106 -23 217z" />
<glyph unicode="&#xd6;" horiz-adv-x="1329" d="M102 0zM811 1672q0 38 28 66t66 28q33 0 59 -21.5t33 -53.5q2 -7 2 -19q0 -39 -28 -67t-66 -28q-33 0 -59 21.5t-33 54.5q-2 12 -2 19zM340 1670q0 38 28 66t66 28q33 0 59 -21.5t33 -53.5q2 -7 2 -19q0 -39 -28 -67t-66 -28q-33 0 -59 21.5t-33 54.5q-2 6 -2 19z M1106 725q0 118 -23 227q-18 83 -48.5 152t-77.5 127t-116 90.5t-155 32.5q-93 0 -167 -40t-120 -103.5t-76.5 -148t-42.5 -168t-12 -169.5q0 -111 22 -218q17 -82 47.5 -149.5t77.5 -124t116.5 -88.5t154.5 -32q93 0 167 38.5t120 99.5t77 143t43.5 164t12.5 167zM102 725 q0 101 19 204t64 206t110 182t166.5 128.5t224.5 49.5q121 0 220 -46t166 -125.5t110 -172.5t66 -201q24 -116 24 -225q0 -100 -19.5 -201t-64.5 -202t-110.5 -178t-167 -125t-224.5 -48q-120 0 -219 45t-166 123t-110 170t-66 199q-23 106 -23 217z" />
<glyph unicode="&#xd7;" horiz-adv-x="833" d="M108 330zM114.98 430.337l215.354 218.782l-221.652 218.159l98.9082 100.483l221.652 -218.159l216.055 219.495l101.204 -99.6104l-216.055 -219.495l221.652 -218.159l-98.9082 -100.483l-221.652 218.16l-215.354 -218.783z" />
<glyph unicode="&#xd8;" horiz-adv-x="2416" d="M400 41l-31 -70h-152l74 163q-124 139 -171 366q-24 111 -24 218q0 82 13 166t40 170.5t72.5 161.5t105.5 134t144.5 93t183.5 34q122 0 219 -50l31 69h152l-69 -151q149 -145 202 -402q24 -109 24 -225q0 -82 -13.5 -165.5t-40 -168.5t-72.5 -158.5t-105.5 -131 t-144 -90.5t-183.5 -33q-144 0 -255 70zM458 170q86 -59 197 -59q89 0 160.5 38t116.5 99t75.5 142t43 162.5t12.5 165.5q0 116 -23 227q-35 162 -114 262zM356 279l460 1021q-73 38 -161 38q-89 0 -160.5 -39.5t-116.5 -102t-75 -146t-42.5 -166t-12.5 -166.5 q0 -120 22 -220q29 -133 86 -219z" />
<glyph unicode="&#xd9;" horiz-adv-x="1298" d="M131 0zM672 1531l-242 287q-12 17 -15 33q-2 7 -2 15q0 36 32 58q21 16 46 16q34 0 59 -32l209 -311q6 -12 7 -17q1 -4 1 -9q0 -29 -24 -45q-15 -12 -34 -12q-21 0 -37 17zM1014 1456h161v-811q0 -317 -138 -495.5t-384 -178.5q-196 0 -325.5 115.5t-174.5 327.5 q-22 103 -22 231v811h162v-811q0 -114 19 -200q35 -166 127 -249t214 -83q75 0 139 31.5t114.5 94.5t79 167t28.5 239v811z" />
<glyph unicode="&#xda;" horiz-adv-x="1298" d="M131 0zM549 1603l206 314q24 33 60 33q26 0 46 -17q23 -16 29 -44q1 -7 1 -13q0 -24 -16 -47l-238 -290q-14 -17 -37 -17q-20 0 -36 11q-18 14 -22 34q-1 5 -1 10q0 13 8 26zM1014 1456h161v-811q0 -317 -138 -495.5t-384 -178.5q-196 0 -325.5 115.5t-174.5 327.5 q-22 103 -22 231v811h162v-811q0 -114 19 -200q35 -166 127 -249t214 -83q75 0 139 31.5t114.5 94.5t79 167t28.5 239v811z" />
<glyph unicode="&#xdb;" horiz-adv-x="1298" d="M131 0zM985 1567h-188l-156 213l-158 -211h-186l277 342h131zM1014 1456h161v-811q0 -317 -138 -495.5t-384 -178.5q-196 0 -325.5 115.5t-174.5 327.5q-22 103 -22 231v811h162v-811q0 -114 19 -200q35 -166 127 -249t214 -83q75 0 139 31.5t114.5 94.5t79 167t28.5 239 v811z" />
<glyph unicode="&#xdc;" horiz-adv-x="1298" d="M131 0zM789 1672q0 38 28 66t66 28q33 0 59 -21.5t33 -53.5q2 -7 2 -19q0 -39 -28 -67t-66 -28q-33 0 -59 21.5t-33 54.5q-2 12 -2 19zM318 1670q0 38 28 66t66 28q33 0 59 -21.5t33 -53.5q2 -7 2 -19q0 -39 -28 -67t-66 -28q-33 0 -59 21.5t-33 54.5q-2 6 -2 19z M1014 1456h161v-811q0 -317 -138 -495.5t-384 -178.5q-196 0 -325.5 115.5t-174.5 327.5q-22 103 -22 231v811h162v-811q0 -114 19 -200q35 -166 127 -249t214 -83q75 0 139 31.5t114.5 94.5t79 167t28.5 239v811z" />
<glyph unicode="&#xdd;" horiz-adv-x="1179" d="M86 0zM578 1582l206 314q24 33 60 33q26 0 46 -17q23 -16 29 -44q1 -7 1 -13q0 -24 -16 -47l-238 -290q-14 -17 -37 -17q-20 0 -36 11q-18 14 -22 34q-1 5 -1 10q0 13 8 26zM86 1456h168l356 -600l356 600h168l-446 -708v-748h-158v748z" />
<glyph unicode="&#xde;" horiz-adv-x="1329" d="M303 477q87 0 163 7t152.5 26t130.5 48.5t87.5 78.5t33.5 113q0 21 -5 44q-46 216 -562 216v-533zM145 1456h158v-306q647 0 716 -322q8 -38 8 -78q0 -83 -27.5 -149.5t-79 -110.5t-116.5 -75t-150 -47.5t-168.5 -23.5t-182.5 -7v-337h-158v1456z" />
<glyph unicode="&#xdf;" horiz-adv-x="1212" d="M174 1152q55 146 177.5 236.5t303.5 90.5q165 0 286 -81.5t151 -223.5q8 -42 8 -87v-13q0 -56 -22 -105.5t-56 -84.5t-78 -64t-84.5 -46t-79.5 -27q43 -11 90 -33t97.5 -57.5t89.5 -90.5t53 -120q7 -29 7 -68q0 -408 -506 -408q-80 0 -186 53l91 123q11 -4 31 -14 t35.5 -16t28.5 -6q63 0 113 6.5t97.5 24.5t79 47.5t50.5 77.5t19 112q0 20 -5 45q-24 111 -148 183.5t-265 72.5h-36q-25 0 -42 -6v152q15 -4 36 -4h42q89 0 179 29.5t155 89.5t65 134q0 39 -8 76q-41 192 -288 192q-74 0 -131.5 -17.5t-97 -51t-65 -73.5t-45.5 -95 q-33 -98 -47 -293t-19 -459t-10 -353h-148q12 130 18 391t18.5 461.5t45.5 299.5z" />
<glyph unicode="&#xe0;" horiz-adv-x="1036" d="M94 0zM529 1162l-242 287q-12 17 -15 33q-2 7 -2 15q0 36 32 58q21 16 46 16q34 0 59 -32l209 -311q6 -12 7 -17q1 -4 1 -9q0 -29 -24 -45q-15 -12 -34 -12q-21 0 -37 17zM499 582q-111 0 -181 -69.5t-70 -168.5q0 -103 71.5 -170.5t179.5 -67.5q96 0 167 69.5t71 168.5 q0 102 -73.5 170t-164.5 68zM467 717q104 0 180 -54.5t88 -103.5v96q0 142 -63.5 220.5t-180.5 78.5q-69 0 -130 -21.5t-95 -55.5l-78 104q134 109 303 109q166 0 275.5 -115t109.5 -320v-123v-532h-139v156v2q-2 -20 -23.5 -50.5t-55.5 -61.5t-86 -53t-106 -22 q-162 0 -267 103t-105 270q0 160 108.5 266.5t264.5 106.5z" />
<glyph unicode="&#xe1;" horiz-adv-x="1036" d="M94 0zM420 1218l206 314q24 33 60 33q26 0 46 -17q23 -16 29 -44q1 -7 1 -13q0 -24 -16 -47l-238 -290q-14 -17 -37 -17q-20 0 -36 11q-18 14 -22 34q-1 5 -1 10q0 13 8 26zM499 582q-111 0 -181 -69.5t-70 -168.5q0 -103 71.5 -170.5t179.5 -67.5q96 0 167 69.5 t71 168.5q0 102 -73.5 170t-164.5 68zM467 717q104 0 180 -54.5t88 -103.5v96q0 142 -63.5 220.5t-180.5 78.5q-69 0 -130 -21.5t-95 -55.5l-78 104q134 109 303 109q166 0 275.5 -115t109.5 -320v-123v-532h-139v156v2q-2 -20 -23.5 -50.5t-55.5 -61.5t-86 -53t-106 -22 q-162 0 -267 103t-105 270q0 160 108.5 266.5t264.5 106.5z" />
<glyph unicode="&#xe2;" horiz-adv-x="1036" d="M94 0zM835 1139h-188l-156 213l-158 -211h-186l277 342h131zM499 582q-111 0 -181 -69.5t-70 -168.5q0 -103 71.5 -170.5t179.5 -67.5q96 0 167 69.5t71 168.5q0 102 -73.5 170t-164.5 68zM467 717q104 0 180 -54.5t88 -103.5v96q0 142 -63.5 220.5t-180.5 78.5 q-69 0 -130 -21.5t-95 -55.5l-78 104q134 109 303 109q166 0 275.5 -115t109.5 -320v-123v-532h-139v156v2q-2 -20 -23.5 -50.5t-55.5 -61.5t-86 -53t-106 -22q-162 0 -267 103t-105 270q0 160 108.5 266.5t264.5 106.5z" />
<glyph unicode="&#xe3;" horiz-adv-x="1036" d="M94 0zM184 1352q26 20 50.5 41.5t60.5 38t72 16.5q27 0 55 -15.5t52 -38t48 -44.5t53 -37.5t58 -15.5q32 0 66 15.5t61.5 37t60.5 45.5v-145q-33 -25 -59.5 -47t-60.5 -37t-68 -15q-32 0 -63.5 15.5t-57.5 38t-50 45t-49.5 38t-47.5 15.5q-36 0 -69 -15t-57.5 -36.5 t-54.5 -45.5v146zM499 582q-111 0 -181 -69.5t-70 -168.5q0 -103 71.5 -170.5t179.5 -67.5q96 0 167 69.5t71 168.5q0 102 -73.5 170t-164.5 68zM467 717q104 0 180 -54.5t88 -103.5v96q0 142 -63.5 220.5t-180.5 78.5q-69 0 -130 -21.5t-95 -55.5l-78 104q134 109 303 109 q166 0 275.5 -115t109.5 -320v-123v-532h-139v156v2q-2 -20 -23.5 -50.5t-55.5 -61.5t-86 -53t-106 -22q-162 0 -267 103t-105 270q0 160 108.5 266.5t264.5 106.5z" />
<glyph unicode="&#xe4;" horiz-adv-x="1036" d="M94 0zM641 1280q0 38 28 66t66 28q33 0 59 -21.5t33 -53.5q2 -7 2 -19q0 -39 -28 -67t-66 -28q-33 0 -59 21.5t-33 54.5q-2 12 -2 19zM170 1278q0 38 28 66t66 28q33 0 59 -21.5t33 -53.5q2 -7 2 -19q0 -39 -28 -67t-66 -28q-33 0 -59 21.5t-33 54.5q-2 6 -2 19zM499 582 q-111 0 -181 -69.5t-70 -168.5q0 -103 71.5 -170.5t179.5 -67.5q96 0 167 69.5t71 168.5q0 102 -73.5 170t-164.5 68zM467 717q104 0 180 -54.5t88 -103.5v96q0 142 -63.5 220.5t-180.5 78.5q-69 0 -130 -21.5t-95 -55.5l-78 104q134 109 303 109q166 0 275.5 -115 t109.5 -320v-123v-532h-139v156v2q-2 -20 -23.5 -50.5t-55.5 -61.5t-86 -53t-106 -22q-162 0 -267 103t-105 270q0 160 108.5 266.5t264.5 106.5z" />
<glyph unicode="&#xe5;" horiz-adv-x="1036" d="M94 0zM364 1368q0 -18 3 -34q11 -51 50 -83.5t91 -32.5q61 0 102.5 43.5t41.5 106.5q0 16 -3 33q-11 51 -50 84t-91 33q-61 0 -102.5 -44t-41.5 -106zM246 1364q0 107 76.5 182.5t185.5 75.5q94 0 166 -58t91 -147q5 -21 5 -53q0 -108 -76.5 -183.5t-185.5 -75.5 q-94 0 -165.5 58t-90.5 147q-6 26 -6 54zM499 582q-111 0 -181 -69.5t-70 -168.5q0 -103 71.5 -170.5t179.5 -67.5q96 0 167 69.5t71 168.5q0 102 -73.5 170t-164.5 68zM467 717q104 0 180 -54.5t88 -103.5v96q0 142 -63.5 220.5t-180.5 78.5q-69 0 -130 -21.5t-95 -55.5 l-78 104q134 109 303 109q166 0 275.5 -115t109.5 -320v-123v-532h-139v156v2q-2 -20 -23.5 -50.5t-55.5 -61.5t-86 -53t-106 -22q-162 0 -267 103t-105 270q0 160 108.5 266.5t264.5 106.5z" />
<glyph unicode="&#xe6;" horiz-adv-x="1486" d="M436 602q-105 0 -152.5 -70t-47.5 -178q0 -49 8 -85q34 -163 192 -163q92 0 146.5 72t54.5 176q0 31 -7 71q-17 79 -68 128t-126 49zM721 910q58 95 119 139.5t161 44.5q144 0 232.5 -90t121.5 -248q21 -94 21 -219q0 -11 -1.5 -33.5t-1.5 -34.5h-590q0 -73 15 -144 q20 -93 68.5 -156t134.5 -63q18 0 32.5 2.5t27 7.5t22.5 12t19 16t17 20t15 23.5t14.5 26.5t15.5 29l133 -55q-56 -110 -121.5 -163.5t-174.5 -53.5q-39 0 -71 6t-58.5 21t-44.5 27.5t-40 41t-33 44.5t-35 53q-18 -29 -31.5 -56.5t-35.5 -52t-48.5 -43.5t-69 -30t-98.5 -11 q-136 0 -225.5 76.5t-116.5 203.5q-10 55 -10 103q0 163 100 273t252 110q87 0 128 -25.5t77 -78.5q1 7 -1 29t0 30q0 54 -10 97q-34 165 -190 165q-65 0 -105 -19t-79 -58l-78 102q24 21 50.5 41t53 35.5t67 25t91.5 9.5q94 0 160.5 -44.5t120.5 -135.5zM783 604h438 q-6 71 -19 128q-47 226 -201 226q-58 0 -102 -33t-67.5 -87.5t-35.5 -113t-13 -120.5z" />
<glyph unicode="&#xe7;" horiz-adv-x="1011" d="M86 0zM385 -294q20 15 28.5 21.5t28 23.5t28.5 31.5t9 27.5q0 5 -2 15q-3 17 -18 40t-35 49l129 56q64 -62 80 -134q4 -24 4 -38q0 -32 -13.5 -60t-41.5 -52.5t-49 -39.5t-58 -37t-47 -28zM755 809q-18 50 -78 99.5t-130 49.5q-127 0 -217.5 -119.5t-90.5 -301.5 q0 -194 88 -312.5t218 -118.5q43 0 82.5 17.5t66.5 44.5t43.5 51t26.5 45l122 -77q-24 -41 -56 -77t-74.5 -68.5t-97 -51.5t-113.5 -19q-131 0 -236.5 76t-164 205.5t-58.5 284.5q0 86 20 167.5t60 152t94.5 123.5t128.5 83.5t158 30.5q114 0 199.5 -61t139.5 -158z" />
<glyph unicode="&#xe8;" horiz-adv-x="1046" d="M108 0zM535 1170l-242 287q-12 17 -15 33q-2 7 -2 15q0 36 32 58q21 16 46 16q34 0 59 -32l209 -311q6 -12 7 -17q1 -4 1 -9q0 -29 -24 -45q-15 -12 -34 -12q-21 0 -37 17zM267 604h522q-9 145 -79 249.5t-182 104.5q-76 0 -135.5 -54t-89.5 -132.5t-36 -167.5zM267 469 q8 -96 38 -176t88.5 -133.5t134.5 -53.5q72 0 142.5 38.5t102.5 98.5l133 -55q-51 -99 -155.5 -158t-222.5 -59q-130 0 -226.5 76.5t-145 203.5t-48.5 286t49 284t145 199t226 74q97 0 176 -45.5t128.5 -121t75.5 -168.5t26 -194q0 -11 0.5 -47.5t0.5 -48.5h-668z" />
<glyph unicode="&#xe9;" horiz-adv-x="1046" d="M108 0zM418 1242l206 314q24 33 60 33q26 0 46 -17q23 -16 29 -44q1 -7 1 -13q0 -24 -16 -47l-238 -290q-14 -17 -37 -17q-20 0 -36 11q-18 14 -22 34q-1 5 -1 10q0 13 8 26zM267 604h522q-9 145 -79 249.5t-182 104.5q-76 0 -135.5 -54t-89.5 -132.5t-36 -167.5z M267 469q8 -96 38 -176t88.5 -133.5t134.5 -53.5q72 0 142.5 38.5t102.5 98.5l133 -55q-51 -99 -155.5 -158t-222.5 -59q-130 0 -226.5 76.5t-145 203.5t-48.5 286t49 284t145 199t226 74q97 0 176 -45.5t128.5 -121t75.5 -168.5t26 -194q0 -11 0.5 -47.5t0.5 -48.5h-668z " />
<glyph unicode="&#xea;" horiz-adv-x="1046" d="M108 0zM874 1153h-188l-156 213l-158 -211h-186l277 342h131zM267 604h522q-9 145 -79 249.5t-182 104.5q-76 0 -135.5 -54t-89.5 -132.5t-36 -167.5zM267 469q8 -96 38 -176t88.5 -133.5t134.5 -53.5q72 0 142.5 38.5t102.5 98.5l133 -55q-51 -99 -155.5 -158 t-222.5 -59q-130 0 -226.5 76.5t-145 203.5t-48.5 286t49 284t145 199t226 74q97 0 176 -45.5t128.5 -121t75.5 -168.5t26 -194q0 -11 0.5 -47.5t0.5 -48.5h-668z" />
<glyph unicode="&#xeb;" horiz-adv-x="1046" d="M108 0zM674 1282q0 38 28 66t66 28q33 0 59 -21.5t33 -53.5q2 -7 2 -19q0 -39 -28 -67t-66 -28q-33 0 -59 21.5t-33 54.5q-2 12 -2 19zM203 1280q0 38 28 66t66 28q33 0 59 -21.5t33 -53.5q2 -7 2 -19q0 -39 -28 -67t-66 -28q-33 0 -59 21.5t-33 54.5q-2 6 -2 19z M267 604h522q-9 145 -79 249.5t-182 104.5q-76 0 -135.5 -54t-89.5 -132.5t-36 -167.5zM267 469q8 -96 38 -176t88.5 -133.5t134.5 -53.5q72 0 142.5 38.5t102.5 98.5l133 -55q-51 -99 -155.5 -158t-222.5 -59q-130 0 -226.5 76.5t-145 203.5t-48.5 286t49 284t145 199 t226 74q97 0 176 -45.5t128.5 -121t75.5 -168.5t26 -194q0 -11 0.5 -47.5t0.5 -48.5h-668z" />
<glyph unicode="&#xec;" horiz-adv-x="428" d="M150 1073h151v-1073h-151v1073zM183 1174l-242 287q-12 17 -15 33q-2 7 -2 15q0 36 32 58q21 16 46 16q34 0 59 -32l209 -311q6 -12 7 -17q1 -4 1 -9q0 -29 -24 -45q-15 -12 -34 -12q-21 0 -37 17z" />
<glyph unicode="&#xed;" horiz-adv-x="421" d="M150 1073h151v-1073h-151v1073zM181 1224l206 314q24 33 60 33q26 0 46 -17q23 -16 29 -44q1 -7 1 -13q0 -24 -16 -47l-238 -290q-14 -17 -37 -17q-20 0 -36 11q-18 14 -22 34q-1 5 -1 10q0 13 8 26z" />
<glyph unicode="&#xee;" horiz-adv-x="888" d="M391 1073h152v-1073h-152v1073zM803 1118h-188l-156 213l-158 -211h-186l277 342h131z" />
<glyph unicode="&#xef;" horiz-adv-x="667" d="M272 1073h152v-1073h-152v1073zM479 1268q0 38 28 66t66 28q33 0 59 -21.5t33 -53.5q2 -7 2 -19q0 -39 -28 -67t-66 -28q-33 0 -59 21.5t-33 54.5q-2 12 -2 19zM8 1266q0 38 28 66t66 28q33 0 59 -21.5t33 -53.5q2 -7 2 -19q0 -39 -28 -67t-66 -28q-33 0 -59 21.5 t-33 54.5q-2 6 -2 19z" />
<glyph unicode="&#xf0;" horiz-adv-x="1030" d="M233 455q0 -46 10 -96q25 -117 100.5 -185t148.5 -68q113 0 198.5 107.5t85.5 241.5q0 37 -7 66q-24 115 -118.5 192.5t-197.5 77.5q-59 0 -111 -53t-80.5 -130.5t-28.5 -152.5zM684 1290q67 -77 132.5 -193t89.5 -227q8 -36 9 -69q5 -56 9 -125.5t4 -135.5v-38 q0 -229 -123.5 -380t-302.5 -151q-172 0 -272.5 92t-132.5 244q-15 72 -15 152q0 194 110.5 330.5t270.5 136.5q41 0 76.5 -7t59 -15.5t49 -26.5t39 -30t37.5 -35t36 -34q0 32 -9 73q-20 94 -72 199t-108 154l-153 -143l-99 100l136 129q-71 25 -160 25q-41 0 -115 -8 l-14 147q27 2 82 2q192 0 327 -70l156 140l96 -109z" />
<glyph unicode="&#xf1;" horiz-adv-x="1044" d="M139 0zM202 1364q26 20 50.5 41.5t60.5 38t72 16.5q27 0 55 -15.5t52 -38t48 -44.5t53 -37.5t58 -15.5q32 0 66 15.5t61.5 37t60.5 45.5v-145q-33 -25 -59.5 -47t-60.5 -37t-68 -15q-32 0 -63.5 15.5t-57.5 38t-50 45t-49.5 38t-47.5 15.5q-36 0 -69 -15t-57.5 -36.5 t-54.5 -45.5v146zM291 0h-152v1073h152v-181q28 89 109.5 149.5t195.5 60.5q82 0 148.5 -33t116.5 -100t77.5 -175.5t27.5 -252.5v-541h-151v541q0 90 -14.5 165t-44.5 134t-81 92t-119 33t-119.5 -34t-83 -93.5t-47 -134.5t-15.5 -163v-540z" />
<glyph unicode="&#xf2;" horiz-adv-x="1060" d="M112 0zM523 1166l-242 287q-12 17 -15 33q-2 7 -2 15q0 36 32 58q21 16 46 16q34 0 59 -32l209 -311q6 -12 7 -17q1 -4 1 -9q0 -29 -24 -45q-15 -12 -34 -12q-21 0 -37 17zM112 537q0 119 28.5 220t82 176.5t137.5 118t189 42.5q138 0 238.5 -75t149 -199t48.5 -283 q0 -161 -47.5 -287t-148 -202.5t-240.5 -76.5q-139 0 -239.5 77t-149 203t-48.5 286zM266 537q0 -90 16 -166t49 -136.5t88.5 -94.5t129.5 -34q73 0 128.5 34t88.5 94.5t49 136.5t16 166q0 121 -27.5 212.5t-92.5 150t-162 58.5q-98 0 -163 -58.5t-92.5 -150t-27.5 -212.5z " />
<glyph unicode="&#xf3;" horiz-adv-x="1062" d="M112 0zM465 1238l206 314q24 33 60 33q26 0 46 -17q23 -16 29 -44q1 -7 1 -13q0 -24 -16 -47l-238 -290q-14 -17 -37 -17q-20 0 -36 11q-18 14 -22 34q-1 5 -1 10q0 13 8 26zM112 537q0 119 28.5 220t82 176.5t137.5 118t189 42.5q138 0 238.5 -75t149 -199t48.5 -283 q0 -161 -47.5 -287t-148 -202.5t-240.5 -76.5q-139 0 -239.5 77t-149 203t-48.5 286zM266 537q0 -90 16 -166t49 -136.5t88.5 -94.5t129.5 -34q73 0 128.5 34t88.5 94.5t49 136.5t16 166q0 121 -27.5 212.5t-92.5 150t-162 58.5q-98 0 -163 -58.5t-92.5 -150t-27.5 -212.5z " />
<glyph unicode="&#xf4;" horiz-adv-x="1062" d="M112 0zM872 1122h-188l-156 213l-158 -211h-186l277 342h131zM112 537q0 119 28.5 220t82 176.5t137.5 118t189 42.5q138 0 238.5 -75t149 -199t48.5 -283q0 -161 -47.5 -287t-148 -202.5t-240.5 -76.5q-139 0 -239.5 77t-149 203t-48.5 286zM266 537q0 -90 16 -166 t49 -136.5t88.5 -94.5t129.5 -34q73 0 128.5 34t88.5 94.5t49 136.5t16 166q0 121 -27.5 212.5t-92.5 150t-162 58.5q-98 0 -163 -58.5t-92.5 -150t-27.5 -212.5z" />
<glyph unicode="&#xf5;" horiz-adv-x="1062" d="M112 0zM227 1323q26 20 50.5 41.5t60.5 38t72 16.5q27 0 55 -15.5t52 -38t48 -44.5t53 -37.5t58 -15.5q32 0 66 15.5t61.5 37t60.5 45.5v-145q-33 -25 -59.5 -47t-60.5 -37t-68 -15q-32 0 -63.5 15.5t-57.5 38t-50 45t-49.5 38t-47.5 15.5q-36 0 -69 -15t-57.5 -36.5 t-54.5 -45.5v146zM112 537q0 119 28.5 220t82 176.5t137.5 118t189 42.5q138 0 238.5 -75t149 -199t48.5 -283q0 -161 -47.5 -287t-148 -202.5t-240.5 -76.5q-139 0 -239.5 77t-149 203t-48.5 286zM266 537q0 -90 16 -166t49 -136.5t88.5 -94.5t129.5 -34q73 0 128.5 34 t88.5 94.5t49 136.5t16 166q0 121 -27.5 212.5t-92.5 150t-162 58.5q-98 0 -163 -58.5t-92.5 -150t-27.5 -212.5z" />
<glyph unicode="&#xf6;" horiz-adv-x="1060" d="M112 0zM658 1276q0 38 28 66t66 28q33 0 59 -21.5t33 -53.5q2 -7 2 -19q0 -39 -28 -67t-66 -28q-33 0 -59 21.5t-33 54.5q-2 12 -2 19zM187 1274q0 38 28 66t66 28q33 0 59 -21.5t33 -53.5q2 -7 2 -19q0 -39 -28 -67t-66 -28q-33 0 -59 21.5t-33 54.5q-2 6 -2 19z M112 537q0 119 28.5 220t82 176.5t137.5 118t189 42.5q138 0 238.5 -75t149 -199t48.5 -283q0 -161 -47.5 -287t-148 -202.5t-240.5 -76.5q-139 0 -239.5 77t-149 203t-48.5 286zM266 537q0 -90 16 -166t49 -136.5t88.5 -94.5t129.5 -34q73 0 128.5 34t88.5 94.5t49 136.5 t16 166q0 121 -27.5 212.5t-92.5 150t-162 58.5q-98 0 -163 -58.5t-92.5 -150t-27.5 -212.5z" />
<glyph unicode="&#xf7;" horiz-adv-x="911" d="M119 171zM119 705h677v-142h-677v142zM344 184zM344 1007q0 45 32 76.5t76 31.5q39 0 68 -24.5t37 -60.5q2 -8 2 -23q0 -44 -31.5 -75.5t-75.5 -31.5q-39 0 -68 24t-37 61q-3 10 -3 22zM344 278q0 45 32 76.5t76 31.5q39 0 68 -24.5t37 -60.5q2 -8 2 -23 q0 -44 -31.5 -75.5t-75.5 -31.5q-39 0 -68 24t-37 61q-3 10 -3 22z" />
<glyph unicode="&#xf8;" horiz-adv-x="1024" d="M743 771l-374 -597q65 -68 149 -68q69 0 122 39t83 103.5t44.5 137.5t14.5 151q0 86 -15 154q-11 50 -24 80zM666 895q-65 63 -148 63q-65 0 -117 -38t-83 -99.5t-47.5 -134.5t-16.5 -149q0 -87 15 -158q9 -43 24 -80zM86 -29l115 182q-55 89 -81 208q-18 90 -18 176 q0 159 47.5 284t143 199t225.5 74q131 0 226 -75l49 79h155l-113 -181q57 -90 81 -207q18 -81 18 -173q0 -160 -47.5 -287t-143.5 -203t-225 -76q-128 0 -227 78l-48 -78h-157z" />
<glyph unicode="&#xf9;" horiz-adv-x="1032" d="M130 0zM541 1135l-242 287q-12 17 -15 33q-2 7 -2 15q0 36 32 58q21 16 46 16q34 0 59 -32l209 -311q6 -12 7 -17q1 -4 1 -9q0 -29 -24 -45q-15 -12 -34 -12q-21 0 -37 17zM805 1073h152v-1073h-152v181q-28 -89 -109.5 -149.5t-195.5 -60.5q-82 0 -148.5 33t-116.5 100 t-77.5 175.5t-27.5 252.5v541h151v-541q0 -90 14.5 -165t44.5 -134t81 -92t119 -33t119.5 34t83 93.5t47 134.5t15.5 163v540z" />
<glyph unicode="&#xfa;" horiz-adv-x="1064" d="M130 0zM432 1218l206 314q24 33 60 33q26 0 46 -17q23 -16 29 -44q1 -7 1 -13q0 -24 -16 -47l-238 -290q-14 -17 -37 -17q-20 0 -36 11q-18 14 -22 34q-1 5 -1 10q0 13 8 26zM805 1073h152v-1073h-152v181q-28 -89 -109.5 -149.5t-195.5 -60.5q-82 0 -148.5 33 t-116.5 100t-77.5 175.5t-27.5 252.5v541h151v-541q0 -90 14.5 -165t44.5 -134t81 -92t119 -33t119.5 34t83 93.5t47 134.5t15.5 163v540z" />
<glyph unicode="&#xfb;" horiz-adv-x="1064" d="M130 0zM870 1196h-188l-156 213l-158 -211h-186l277 342h131zM805 1073h152v-1073h-152v181q-28 -89 -109.5 -149.5t-195.5 -60.5q-82 0 -148.5 33t-116.5 100t-77.5 175.5t-27.5 252.5v541h151v-541q0 -90 14.5 -165t44.5 -134t81 -92t119 -33t119.5 34t83 93.5 t47 134.5t15.5 163v540z" />
<glyph unicode="&#xfc;" horiz-adv-x="1064" d="M130 0zM664 1284q0 38 28 66t66 28q33 0 59 -21.5t33 -53.5q2 -7 2 -19q0 -39 -28 -67t-66 -28q-33 0 -59 21.5t-33 54.5q-2 12 -2 19zM193 1282q0 38 28 66t66 28q33 0 59 -21.5t33 -53.5q2 -7 2 -19q0 -39 -28 -67t-66 -28q-33 0 -59 21.5t-33 54.5q-2 6 -2 19z M805 1073h152v-1073h-152v181q-28 -89 -109.5 -149.5t-195.5 -60.5q-82 0 -148.5 33t-116.5 100t-77.5 175.5t-27.5 252.5v541h151v-541q0 -90 14.5 -165t44.5 -134t81 -92t119 -33t119.5 34t83 93.5t47 134.5t15.5 163v540z" />
<glyph unicode="&#xfd;" horiz-adv-x="1064" d="M130 0zM436 1205l206 314q24 33 60 33q26 0 46 -17q23 -16 29 -44q1 -7 1 -13q0 -24 -16 -47l-238 -290q-14 -17 -37 -17q-20 0 -36 11q-18 14 -22 34q-1 5 -1 10q0 13 8 26zM957 -18q0 -98 -38 -181.5t-99.5 -137t-137 -83t-152.5 -29.5q-213 0 -363 174l106 85 q103 -123 257 -123q49 0 96 17.5t88 50t66 88t25 124.5v214q-28 -89 -109.5 -149.5t-195.5 -60.5q-82 0 -148.5 33t-116.5 100t-77.5 175.5t-27.5 252.5v541h151v-541q0 -90 14.5 -165t44.5 -134t81 -92t119 -33t119.5 34t83 93.5t47 134.5t15.5 163v540h152v-1091z" />
<glyph unicode="&#xfe;" horiz-adv-x="1003" d="M281 0h-152v1454h152v-342q28 41 51.5 67.5t57.5 52.5t76.5 39t94.5 13q139 0 229.5 -100t124.5 -262q19 -88 19 -189q0 -90 -11.5 -168t-40.5 -153.5t-74.5 -129t-118.5 -86t-167 -32.5q-56 0 -106 23t-77 50.5t-43 50.5l-15 23v-311zM782 729q0 93 -17 175 q-24 112 -75 178.5t-119 66.5q-53 0 -105 -30t-94.5 -82.5t-69 -133.5t-26.5 -174q0 -81 16 -153q28 -132 97 -204.5t143 -72.5q114 0 182 113.5t68 316.5z" />
<glyph unicode="&#xff;" horiz-adv-x="1064" d="M130 0zM664 1313q0 38 28 66t66 28q33 0 59 -21.5t33 -53.5q2 -7 2 -19q0 -39 -28 -67t-66 -28q-33 0 -59 21.5t-33 54.5q-2 12 -2 19zM193 1311q0 38 28 66t66 28q33 0 59 -21.5t33 -53.5q2 -7 2 -19q0 -39 -28 -67t-66 -28q-33 0 -59 21.5t-33 54.5q-2 6 -2 19z M957 -18q0 -98 -38 -181.5t-99.5 -137t-137 -83t-152.5 -29.5q-213 0 -363 174l106 85q103 -123 257 -123q49 0 96 17.5t88 50t66 88t25 124.5v214q-28 -89 -109.5 -149.5t-195.5 -60.5q-82 0 -148.5 33t-116.5 100t-77.5 175.5t-27.5 252.5v541h151v-541q0 -90 14.5 -165 t44.5 -134t81 -92t119 -33t119.5 34t83 93.5t47 134.5t15.5 163v540h152v-1091z" />
<glyph unicode="&#x2000;" horiz-adv-x="996" />
<glyph unicode="&#x2001;" horiz-adv-x="1993" />
<glyph unicode="&#x2002;" horiz-adv-x="996" />
<glyph unicode="&#x2003;" horiz-adv-x="1993" />
<glyph unicode="&#x2004;" horiz-adv-x="664" />
<glyph unicode="&#x2005;" horiz-adv-x="498" />
<glyph unicode="&#x2006;" horiz-adv-x="332" />
<glyph unicode="&#x2007;" horiz-adv-x="332" />
<glyph unicode="&#x2008;" horiz-adv-x="249" />
<glyph unicode="&#x2009;" horiz-adv-x="398" />
<glyph unicode="&#x200a;" horiz-adv-x="110" />
<glyph unicode="&#x2010;" horiz-adv-x="866" d="M109 705h677v-142h-677v142z" />
<glyph unicode="&#x2011;" horiz-adv-x="866" d="M109 705h677v-142h-677v142z" />
<glyph unicode="&#x2012;" horiz-adv-x="866" d="M109 705h677v-142h-677v142z" />
<glyph unicode="&#x2013;" horiz-adv-x="1001" d="M170 676h686v-135h-686v135z" />
<glyph unicode="&#x2014;" horiz-adv-x="1290" d="M150 676h1009v-135h-1009v135z" />
<glyph unicode="&#x2018;" horiz-adv-x="385" d="M83 1092zM83 1200q0 44 9.5 88t28 82.5t31.5 62t33 53.5l21 29l56 -31q-72 -103 -72 -178q39 0 68 -23.5t37 -60.5q3 -10 3 -22q0 -45 -32 -76.5t-76 -31.5q-39 0 -68 24.5t-37 60.5q-2 8 -2 23z" />
<glyph unicode="&#x2019;" horiz-adv-x="385" d="M95 1086zM310 1401q0 -44 -9.5 -88t-28 -82.5t-31.5 -62t-33 -53.5l-21 -29l-56 31q72 103 72 178q-39 0 -68 23.5t-37 60.5q-3 10 -3 22q0 45 32 76.5t76 31.5q39 0 68 -24.5t37 -60.5q2 -8 2 -23z" />
<glyph unicode="&#x201a;" horiz-adv-x="385" d="M99 0zM99 -204zM314 111q0 -44 -9.5 -88t-28 -82.5t-31.5 -62t-33 -53.5l-21 -29l-56 31q72 103 72 178q-39 0 -68 23.5t-37 60.5q-3 10 -3 22q0 45 32 76.5t76 31.5q39 0 68 -24.5t37 -60.5q2 -8 2 -23z" />
<glyph unicode="&#x201c;" horiz-adv-x="677" d="M81 1092zM411 1092zM411 1200q0 44 9.5 88t28 82.5t31.5 62t33 53.5l21 29l56 -31q-72 -103 -72 -178q39 0 68 -23.5t37 -60.5q3 -10 3 -22q0 -45 -32 -76.5t-76 -31.5q-39 0 -68 24.5t-37 60.5q-2 8 -2 23zM81 1094zM81 1202q0 44 9.5 88t28 82.5t31.5 62t33 53.5l21 29 l56 -31q-72 -103 -72 -178q39 0 68 -23.5t37 -60.5q3 -10 3 -22q0 -45 -32 -76.5t-76 -31.5q-39 0 -68 24.5t-37 60.5q-2 8 -2 23z" />
<glyph unicode="&#x201d;" horiz-adv-x="677" d="M97 1086zM425 1086zM640 1401q0 -44 -9.5 -88t-28 -82.5t-31.5 -62t-33 -53.5l-21 -29l-56 31q72 103 72 178q-39 0 -68 23.5t-37 60.5q-3 10 -3 22q0 45 32 76.5t76 31.5q39 0 68 -24.5t37 -60.5q2 -8 2 -23zM97 1088zM312 1403q0 -44 -9.5 -88t-28 -82.5t-31.5 -62 t-33 -53.5l-21 -29l-56 31q72 103 72 178q-39 0 -68 23.5t-37 60.5q-3 10 -3 22q0 45 32 76.5t76 31.5q39 0 68 -24.5t37 -60.5q2 -8 2 -23z" />
<glyph unicode="&#x201e;" horiz-adv-x="688" d="M113 0zM113 -206zM441 -206zM656 109q0 -44 -9.5 -88t-28 -82.5t-31.5 -62t-33 -53.5l-21 -29l-56 31q72 103 72 178q-39 0 -68 23.5t-37 60.5q-3 10 -3 22q0 45 32 76.5t76 31.5q39 0 68 -24.5t37 -60.5q2 -8 2 -23zM113 -204zM328 111q0 -44 -9.5 -88t-28 -82.5 t-31.5 -62t-33 -53.5l-21 -29l-56 31q72 103 72 178q-39 0 -68 23.5t-37 60.5q-3 10 -3 22q0 45 32 76.5t76 31.5q39 0 68 -24.5t37 -60.5q2 -8 2 -23z" />
<glyph unicode="&#x202f;" horiz-adv-x="398" />
<glyph unicode="&#x205f;" horiz-adv-x="498" />
<glyph unicode="&#x20ac;" horiz-adv-x="1089" d="M270 762h-129v135h153q39 134 128.5 216.5t214.5 82.5q113 0 175.5 -29t139.5 -104l-96 -96q-50 51 -94 72.5t-125 21.5q-60 0 -107.5 -45t-78.5 -119h270v-135h-306q-3 -28 -3 -55q0 -32 3 -62h300v-135h-265q34 -77 86.5 -120.5t100.5 -43.5q69 0 115 21.5t108 89.5 l96 -97q-27 -31 -41.5 -46t-44.5 -38.5t-58.5 -35t-74 -20.5t-100.5 -9q-132 0 -218.5 82t-124.5 217h-159v135h136q-3 33 -3 66q0 17 2 51z" />
<glyph unicode="&#xe000;" horiz-adv-x="1075" d="M0 1075h1075v-1075h-1075v1075z" />
<glyph horiz-adv-x="1075" d="M0 0z" />
</font>
</defs>
</svg>
