<?xml version="1.0" standalone="no"?>
<!DOCTYPE svg PUBLIC "-//W3C//DTD SVG 1.1//EN" "http://www.w3.org/Graphics/SVG/1.1/DTD/svg11.dtd" >
<svg xmlns="http://www.w3.org/2000/svg">
<metadata></metadata>
<defs>
<font id="fearlessregular" horiz-adv-x="464" >
<font-face units-per-em="1000" ascent="800" descent="-200" />
<missing-glyph horiz-adv-x="500" />
<glyph horiz-adv-x="1000" />
<glyph horiz-adv-x="1000" />
<glyph unicode="&#xd;" horiz-adv-x="500" />
<glyph unicode=" "  horiz-adv-x="500" />
<glyph unicode="&#x09;" horiz-adv-x="500" />
<glyph unicode="&#xa0;" horiz-adv-x="500" />
<glyph unicode="!" horiz-adv-x="238" d="M241 484q0 7 -7.5 28.5t-12.5 25t-30 6.5q-10 6 -28 15q-29 0 -62 -15q-39 -17 -39 -43q2 -6 23 -44q15 -27 15 -46q0 -5 -1.5 -15t-1.5 -15q0 -8 5 -25l15 45l-6 -69q10 -21 34 -60l-11 -120q0 -17 -7 -20q13 -35 25 -35l13 110v-103q11 10 24 42l2 91l14 -45q8 30 8 80 q0 2 5.5 15.5t5.5 17.5q1 13 13 136zM234 -3q0 22 -25.5 43t-47.5 21q-34 0 -65 -18q-36 -20 -36 -52q0 -4 6 -16l6 35l-1 -45q22 -33 28 -32l2 70l10 -72q16 -3 25 -3q3 0 7.5 1t7.5 1l3 112l4 -112q21 2 33 7l9 50l4 -41q14 12 30 51z" />
<glyph unicode="&#x22;" horiz-adv-x="262" d="M281 495q0 37 -39 37q-63 0 -63 -38q0 -12 8.5 -49.5t8.5 -65.5q0 -18 -10 -50t-10 -47q6 -1 18 -5l6 49l7 -53q13 0 23 36l14 49q37 74 37 137zM136 479q0 46 -27 46q-14 0 -42 -14q-31 -15 -31 -26q0 -5 5 -15t5 -15q2 -36 2 -145q0 -10 10 -23l5 115l1 -123 q4 -6 10 -6q5 0 11 6v64l11 -50q14 23 20 66q3 24 8 71q1 7 6.5 23.5t5.5 25.5z" />
<glyph unicode="#" horiz-adv-x="479" d="M495 368q0 34 -22 34q-8 0 -23.5 -2t-23.5 -2l-8 4q-9 0 -9 6q0 11 2.5 32t2.5 32q0 29 -9 77q-8 5 -14 5l-60 -12q-8 -6 -8 -13q0 -4 2.5 -12t2.5 -12q0 -26 -20 -107q-26 -6 -53 -13q-18 0 -25 3q6 33 20 98q-10 37 -17 37q-6 0 -39 -12.5t-39 -17.5q0 -3 2.5 -8.5 t2.5 -7.5q0 -42 -13 -60v-56q0 -5 3 -10q-41 -9 -53 -13q-24 -8 -48 -25q2 -9 13 -28t17 -19q2 0 9 2l3 49l6 -46q18 -9 20 -9q13 0 24 4q2 -4 2 -7q0 -10 -7 -35t-14 -25q-3 0 -8 2.5t-8 2.5t-8.5 -2.5t-8.5 -2.5q-10 0 -14 7h-10q-7 -17 -7 -32q0 -20 4.5 -27t23.5 -12 l4 45l4 -47q16 -3 38 -11q-33 -89 -33 -93q0 -16 3 -25l-6 -18q9 -2 14 -4l13 69v-72l10 -4q7 1 15 4l3 112l3 -110q6 1 19 -1q6 28 4 48q10 30 26 92q1 9 8 24q5 -3 17 -7l8 67l5 -67l30 5l3 31l8 -29q33 6 35 6q7 0 16 -10q-27 -125 -27 -153q0 -8 5.5 -28t5.5 -31l10 106 l1 -112q8 8 35 21l3 70l7 -66q9 5 13 35q3 21 5 42q7 34 7 51q0 7 -1.5 21.5t-1.5 21.5q0 61 35 55l3 -1l3 35l5 -37q5 -4 31 -9q6 1 10 3q2 8 2 20q0 35 -6.5 41t-41.5 6q-12 0 -21 6l-4 59q0 26 1 31q4 17 20 14l6 36l2 -37q13 -2 35 -4q20 19 20 32zM319 317v-4 q0 -6 -4 -18.5t-4 -18.5t1.5 -17.5t1.5 -17.5v-19q-28 4 -50 4t-38 -4v5q0 23 13 81q6 1 17 5l5 54l7 -51q9 1 26 4l7 31l-2 -31z" />
<glyph unicode="$" horiz-adv-x="410" d="M440 419q0 21 -15 21q-9 0 -29.5 -8.5t-30.5 -8.5q-31 0 -41 10q7 15 17 44q3 18 16 47q-11 28 -29 28q-2 0 -29.5 -11t-36.5 -12q-12 -26 -12 -120q-84 -18 -111 -30q-65 -29 -65 -83q0 -8 9 -27v-1l12 58l-3 -75l2 -2q9 -3 28 -9q6 -13 10 -31q16 -14 26 -18l6 114 l6 -127q10 -2 31 -8l7 56l12 -63q10 -2 31 -7q8 -6 8 -10q0 -20 -16.5 -33.5t-36.5 -13.5q-3 0 -8.5 2t-8.5 2q-4 0 -14 -3t-15 -3q-7 0 -21 1t-21 1q-47 30 -67 32q-6 -2 -13 -22.5t-7 -29.5q0 -26 26 -41l1 65l5 -69q2 -1 34 -12l1 37l4 -39q14 -4 41 -12q-17 -50 -46 -90 q4 -3 12 -3q5 0 12 1l7 39l3 -37q5 1 13 1q4 0 19 -3l4 90l4 -91h1l29 9l1 28l5 -27q5 1 16 4l-8 58q0 32 31 35l6 65v-64q13 0 18 -1l3 42l3 -43h10q15 0 19 1l12 98v-95l2 1q19 22 24 37q5 3 11 8q0 7 2.5 22t2.5 22q0 17 -15 51q-16 38 -19 53q-4 5 -33 22q-23 13 -23 24 q-18 13 -53 41q8 15 24 19l12 42l3 -38q3 1 28 4l2 63l18 -61q11 2 23 2q14 0 29 -3l3 52l5 -53q21 -3 35 -11q5 -4 8 -4q11 0 23 44q11 39 11 57z" />
<glyph unicode="%" horiz-adv-x="503" d="M511 160v63q-16 24 -48.5 72.5t-61.5 48.5q-15 0 -55 -9v10q11 21 26 43l-3 67l12 -55q14 18 41 54l1 53l7 -44q6 4 18 24t12 26q0 5 -3 8h-1q-10 0 -42 20q-17 -9 -34 -17q-24 -71 -64 -106q-7 19 -27 47q-23 33 -37 33q-3 0 -11 -2t-12 -2q-27 2 -19 2q-12 0 -29 -15 q-20 -7 -35 -10q-49 -34 -62 -76q-4 -4 -16 -28t-12 -28q0 -9 7 -37t11 -37q4 -1 11 -3l3 94l11 -98q11 -4 31 -14l10 46l9 -53h6q21 0 44 14q-4 -18 -25 -43l-42 -50q-23 -27 -37 -54q-9 -26 -29 -75q-35 -60 -35 -80q0 -6 11 -16t18 -12q7 6 16 17l4 83l8 -67q1 2 46 64 l4 101l10 -77q19 34 49 70q0 -58 13 -74l14 82v-93q11 -9 17 -31q4 -15 36 -23l5 94l2 -97l9 -2q20 2 57 10l3 75l7 -72q22 10 43 22l7 44l6 -35q14 10 42 26l9 138l5 -106q39 68 39 90zM413 209q0 -5 -4.5 -18t-4.5 -19l1.5 -24t0.5 -4q0 -44 -20.5 -60t-66.5 -16 q-31 22 -31 36q0 7 3 22t3 22t-1 12q-7 10 -7 16q0 33 22 55v62l8 -54q20 14 44 15l4 51l7 -50q42 -2 42 -46zM239 392q0 -19 -19 -56q-73 3 -73 31q0 6 21 29v58l13 -44l9 12l24 -6l-2 35l7 -36q20 -6 20 -23z" />
<glyph unicode="&#x26;" horiz-adv-x="564" d="M605 73q0 21 -68 33q-82 15 -87 18q-25 16 -44 39q6 11 14 28l2 53l6 -36l22 50q16 37 16 49q0 13 -16 13q-6 0 -23 -26q-19 -30 -25 -34q-61 -44 -60 -74q-5 2 -14 7l-8 -2q-11 9 -30 23v1q-1 7 7 19l1 72l16 -50q10 12 38 52l4 66l1 -59q34 34 34 53q0 23 -41 71 q-57 31 -110 38q-8 5 -22 13q-10 -7 -33 -19t-44 -23q-8 -4 -34.5 -37.5t-26.5 -40.5q0 -16 8 -80q26 -24 41 -62q-29 -17 -32 -21q-8 -9 -11 -35q-26 -38 -29 -44q-10 -20 -10 -50q0 -2 5.5 -11t6.5 -13t3 -11l4 53l3 -83q6 -15 27 -32t36 -17l9 68l-1 -67q6 1 34 2t33 0 l3 51l6 -53l5 -1q22 0 55 22v59l4 -55q5 4 38 15l9 101l2 -96q7 4 24.5 35.5t23.5 31.5l20 -13l2 82l10 -90q19 -11 38 -11q-7 0 20 3l1 47l7 -48q23 -2 68 -9l4 52l9 -53q13 2 31 13.5t18 22.5zM277 101q-16 -17 -25 -39q-8 -8 -51 -8q-63 0 -63 33q0 7 4.5 19.5t4.5 18.5 l-1 82l11 -60q11 22 22 26l-1 85l8 -83q7 0 23 -13l6 42l8 -52q27 -21 54 -51zM310 360q0 -7 -22 -19q-8 -16 -27 -41.5t-25 -37.5q-24 19 -24 34q0 9 5.5 23.5t5.5 17.5q0 6 -13.5 13t-13.5 14q0 8 16 19l1 63l6 -59q30 20 47 20q10 0 25 -17l-1 48l8 -56q12 -17 12 -22z " />
<glyph unicode="'" horiz-adv-x="132" d="M136 479q0 46 -27 46q-14 0 -42 -14q-31 -15 -31 -26q0 -4 5 -15t5 -15q1 -68 3 -149l15 100l-4 -123q6 -10 14 -10q6 0 13 8l6 54l4 -41q9 14 11 27q4 30 16 109q1 6 6.5 23t5.5 26z" />
<glyph unicode="(" horiz-adv-x="352" d="M377 427q-2 12 -12 36q-12 29 -18 29q-2 0 -31 -15q-54 -28 -98 -86q-11 -14 -40 -26q-37 -15 -44 -19q-11 -7 -54.5 -53t-43.5 -53q0 -4 14 -29l18 -32l7 92l8 -110q7 -4 21 -14l2 49l10 -56q9 -3 48 -33l6 61l6 -71q32 -28 49 -56l9 95l6 -110q14 -10 36 -23 q16 24 30 44l2 56l7 -43q18 28 31 52q-5 5 -7 11q-63 9 -85 42q-33 13 -42 18q-18 10 -34 30q-19 24 -33 32v11q8 6 23 19l2 63l5 -58q24 19 70 58l2 40l2 -37q21 17 29 21q17 10 34 11l9 86l7 -76q16 15 49 44z" />
<glyph unicode=")" horiz-adv-x="352" d="M36 427q10 -10 26 -24l2 56l4 -62q10 -8 29 -23q9 -2 24 -6l-1 62l10 -65l9 -3l49 -42l3 34l7 -42q7 -5 21 -17l7 31l2 -38q18 -16 40 -32v-11q-13 -7 -33.5 -31.5t-36.5 -32.5q-8 -4 -39 -16q-23 -33 -85 -42q-2 -6 -7 -11q12 -25 21 -37l7 36l-1 -45q27 -42 43 -63l5 3 l14 105l-3 -98q10 7 31 22q1 4 4 7l9 83l-1 -70h1q8 15 47 48l8 48l5 -38q12 10 66 44l3 82l9 -74l3 2q5 10 22 39t17 34q0 4 -41 50q-21 24 -58 56q-6 3 -44 19q-29 12 -39 26q-39 53 -99 86q-27 15 -30 15q-7 0 -18 -27t-12 -38z" />
<glyph unicode="*" horiz-adv-x="367" d="M377 404q0 10 -3 12q-16 0 -42.5 4.5t-34.5 4.5q-3 0 -7.5 -1t-7.5 -1q-36 0 -44 122q-14 9 -20 9q-14 0 -38 -19t-24 -32q0 -17 10 -40.5t10 -28.5q0 -4 -1 -7q-38 -7 -79 -7q-4 0 -11 2.5t-10 2.5q-8 -1 -24 -5q4 -32 4 -53q0 -12 -3 -36t-3 -36q0 -5 19 -12l6 65 l1 -68q15 -5 48 -19q-8 -13 -40 -35l-47 -32v-9q7 -14 20 -43l3 62l5 -77q4 -1 9 -1q6 0 36 11v65l9 -61q8 4 13 6q30 41 52 51l5 52l5 -49q3 1 6 1q11 0 31 -28l4 54l4 -66q10 -19 25 -27q5 -12 5 -38q-7 0 31 -2q2 0 5 2l10 83l4 -77l41 16l2 13q-19 39 -57 96 q-16 24 -16 30h18l5 112l9 -112h13q8 -1 12 -1q6 0 11 9t5 16q0 -4 -8 25v0q1 2 3 7l9 27q12 36 12 63z" />
<glyph unicode="+" horiz-adv-x="436" d="M460 262q0 8 -5.5 27.5t-9.5 23.5q-10 -4 -49.5 -9.5t-52.5 -5.5q-42 0 -42 14q0 9 6.5 28.5t7.5 25.5q4 22 4 49q0 7 -5 12q-45 -8 -47 -9q-28 -8 -37 -28q-1 -17 -2 -54q0 -18 -6 -42q-6 -10 -22 -12q-138 -21 -138 -38q0 -2 9 -17q4 -32 14 -45q7 0 13 2l8 60l3 -58 q51 7 54 7l1 30l9 -31q10 -1 30 -8l-24 -95l5 -8h9l3 34l8 -34q33 -2 27 -2l21 131l-9 -129q29 6 35 40q5 30 9 59q9 38 32 43l3 53l6 -52q7 0 22 -2t22 -2q8 0 25 4l7 39l1 -37l21 5q24 6 25 7q9 5 9 24z" />
<glyph unicode="," horiz-adv-x="238" d="M241 -1q0 -3 -3 38q-4 50 -12.5 64.5t-50.5 37.5q-16 9 -22 9q-27 0 -65 -30q-41 -31 -41 -57q0 -18 16 -31l9 42l-3 -46q14 -14 44 -21l12 59l-4 -59q4 0 12 1t12 1q15 0 15 -24l-1 -5q-39 -23 -39 -59q0 -9 24 -9l12 52l-3 -52h12q20 0 40 21l3 103l4 -95q29 27 29 60z " />
<glyph unicode="-" horiz-adv-x="426" d="M420 342q0 25 -15 25t-50.5 -11.5t-51.5 -11.5q-5 0 -14 2.5t-14 2.5q-14 0 -42 1t-42 1q-52 0 -64 -5q-8 -6 -25 -13q-2 0 -6 2.5t-6 2.5q-5 0 -18 -7v-57q5 -5 9 -8q11 0 22 4l1 44l2 -44q10 5 39 8t43 2l12 55l4 -54l89 14q5 0 22 -3l4 38l4 -39q3 0 7.5 -1t7.5 -1 q9 0 29 3l5 29l1 -28h1l1 1q27 6 39 6q6 25 6 42z" />
<glyph unicode="." horiz-adv-x="247" d="M228 57q0 33 -26.5 63.5t-59.5 24.5q-5 8 -10 8q-37 0 -65.5 -28.5t-28.5 -65.5q0 -17 6.5 -24t24.5 -15l6 79l6 -84q15 -5 46 -16l6 123l9 -126q19 2 38 11l1 1v43l11 -38q36 19 36 44z" />
<glyph unicode="/" horiz-adv-x="268" d="M223 570q-15 0 -20 -51q-6 -61 -13 -74q-3 -4 -7 -11l-85 -237q-4 -7 -11 -22q-9 -30 -28 -89q-24 -74 -34 -79q-1 -3 0 -7v-12l40 -14l4 87l5 -91l5 -2q10 5 23 43l-1 82l14 -48q8 20 32 77q7 34 21 79l2 89l6 -63q24 74 25 83l4 64l7 -27q11 36 14 62q0 3 3 74l7 -60 q9 15 25 49q2 4 15 75q-36 23 -53 23z" />
<glyph unicode="0" horiz-adv-x="375" d="M384 326q-25 38 -25 43q0 9 4.5 26t4.5 26q0 7 -25.5 39.5t-26.5 41.5q-68 46 -170 59l-21 -42q10 -8 27 -18v-8q-35 -51 -60 -76q-24 -58 -47 -93v-10q0 -15 2 -22q-5 -42 -5 -107q0 -2 -4.5 -12.5t-4.5 -13.5q0 -9 5 -27.5t5 -27.5q8 -12 14 -20l4 112l6 -157h1 q10 -12 18 -18l6 -11l12 72l2 -93q10 -12 14 -13q-6 1 18 1q5 0 12 -4l7 45l2 -50q22 -11 34 -11q9 0 22 7v111l13 -102q11 8 48 45l3 73l4 -65l22 26q8 12 12 32q12 16 18 29l2 79l9 -60q26 53 26 94q0 26 -3 41q7 21 15 59zM301 207q-8 -11 -22 -34q-14 -35 -19 -45 q-13 -23 -34 -35q-17 -10 -22 -10q-27 0 -56 43q-28 40 -28 68q0 37 31 142q4 12 6 26l-1 63l15 -43q4 7 12 18l1 65l6 -54q12 25 29 34l-1 65l10 -61q16 0 35 -17l3 47l1 -52q4 -4 6 -8q5 -44 6 -80q3 -4 10 -11q2 -4 2 -8q0 -2 -1.5 -7t-1.5 -7v-59q4 -10 13 -40z" />
<glyph unicode="1" horiz-adv-x="323" d="M346 -24q0 13 -12.5 40t-23.5 25t-9 -2q-15 0 -40 8q-28 9 -36 18q4 47 14 142q6 25 13 79q0 69 7 160q3 9 19 29q2 16 3 26t1.5 13.5t0.5 0.5q0 -2 -4 10q-26 -6 -48 -12q-37 -10 -45 -18q-23 -23 -61 -54q-18 -9 -36 -17q-27 -15 -27 -25q0 -20 12 -38q14 -2 40 -8 l5 59l5 -61h1q16 0 19 2l2 62l1 -60q9 7 25 21l2 -8q-16 -57 -16 -76l6 -23q6 -24 6 -39q0 -45 -22 -67v-5q-1 -6 1.5 -20t2.5 -19q0 -24 -4 -33q-6 -14 -28 -14q-7 0 -19.5 2.5t-19.5 2.5q-5 0 -24 -12.5t-19 -16.5q0 -7 11 -45l-2 -10q5 0 13 -2l4 65l7 -66l24 -6 q5 0 14 2l2 44l6 -43q16 1 49 4l-2 78l9 -78q15 0 33 -6l7 44l10 -51q8 -4 25 -12q5 3 16 7q9 -3 21 -13l4 64l14 -67q32 8 36 8z" />
<glyph unicode="2" horiz-adv-x="304" d="M326 459q0 16 -13 46q-14 34 -27 34q-8 0 -26 -9q-14 26 -58 26q-25 0 -52 -22q-25 -15 -72 -49q-8 -7 -12 -43q-7 -8 -21 -21q-7 -10 -18 -38q12 -16 52 -47l8 83l6 -82l8 3q8 22 15 43q7 16 25 41l-1 60l11 -48q9 11 29 28v57l5 -55q6 3 10 3q9 0 17 -3l3 58l7 -63 q17 -14 17 -46q0 3 -10 -24q-25 -67 -33 -110q-19 -24 -48 -67q-22 -45 -36 -104q-14 -4 -53 -68t-39 -80q0 -10 6 -20q3 0 9 -1h9l15 61l-2 -62h13q8 -1 12 -1l3 125l4 -125q7 0 19.5 -3t19.5 -3q3 0 15 4l8 63l3 -65q24 -8 44 -12l-2 55l10 -56l7 -1q11 -10 35 -29l9 53 l3 -56q48 17 48 28q0 16 -19 35q-16 16 -33 23q-8 8 -25 24q-44 16 -66 26q16 16 32 75l3 5l4 46l2 -38q5 6 14 17q3 40 8 112l5 -62q5 8 16 23q21 27 22 77v79l6 -57q11 16 23.5 51t12.5 53v65l5 -44q4 15 8 32z" />
<glyph unicode="3" horiz-adv-x="366" d="M384 116q0 8 -6 20q-4 7 -6.5 28t-6.5 26q-11 9 -32 26q-8 9 -26 25q-22 15 -52 18q-10 1 -54 1q-6 0 -9 5q11 16 20 35l1 42l5 -31q19 42 22 61l4 83l7 -65q11 31 37 84l2 57l3 -50q22 28 22 63q0 5 -3 10q-18 -4 -55 -10q-26 -21 -97 -42q-4 -1 -27 -17 q-34 -23 -45 -33q-22 -19 -37 -42l6 -7l13 6l18 -27v-1l5 60l-2 -64q6 -6 12 -6q11 7 27 21l10 60l1 -50q18 17 54 50q3 -6 8 -8q-7 -16 -24 -47q-1 -17 -8 -42q-37 -48 -43 -59q-22 -33 -30 -66q-9 -38 -9 -47q0 -6 26 -26l2 69l9 -73q12 0 40 19l1 36l9 -31q15 7 33 7 q11 0 25 -3l2 48l5 -50q28 -6 47 -15l7 43v-47q15 -9 15 -21q0 -4 -7 -41q-34 -25 -55 -50q-15 -18 -20 -18q-2 1 -19 4q-9 -6 -27 -15h-15q-17 0 -67 22q-4 -2 -6 -2q-3 0 -19.5 8.5t-20.5 9.5q-5 -3 -18 -10q4 -24 12 -71q4 -4 12 -10l7 63l3 -71q14 -11 37 -12v62l10 -63 q-7 0 19 -1h19h10l3 62l10 -60q22 3 56 14l7 30l4 -27q22 7 40 15l12 96l-5 -93q16 8 51 55v70l12 -58q9 7 18 9q11 9 11 59z" />
<glyph unicode="4" horiz-adv-x="370" d="M379 543q3 11 -13 11q-55 0 -80 -14q-5 -21 -17 -63q1 -26 5 -78q-3 -16 -14 -47v-28q-17 -44 -19 -47q-14 -22 -42 -22q-9 0 -63 17q17 47 34 97l10 83l3 -57q18 63 18 66q0 4 -5 10q-25 -8 -75 -23q-7 -23 -24 -69q-45 -84 -45 -108q0 -6 1 -10q-8 -5 -28.5 -52 t-20.5 -58q0 -16 22 -16q7 0 15 1l10 79l3 -78h5q18 -8 31 -18l6 56l10 -56q14 4 44 15l12 81l1 -76q26 7 31 7q10 0 14 -2q0 -10 -1 -30.5t-1 -30.5q0 -16 7.5 -46t7.5 -46q0 -9 -1.5 -26t-1.5 -26q0 -20 5 -30l16 117l-2 -113q11 9 16 18q0 1 1 2l4 59l7 -44q12 17 12 34 q0 7 -2 21t-2 21q0 9 3 15h11q4 5 4 9q0 2 -2.5 9.5t-2.5 11.5q0 28 8 62q11 45 27 50l6 43l1 -40q7 4 24 3l2 23l4 -22q17 5 17 24q0 13 -52 31q11 53 28 160q5 13 13 39q-3 8 -9 25z" />
<glyph unicode="5" horiz-adv-x="300" d="M308 542q0 3 -3 10h-10q-6 -4 -66 -34q-3 -1 -54 -34q-37 -23 -51 -23q-3 0 -8 1t-8 1q-5 0 -16 -8.5t-13 -12.5q-9 -20 -26 -87q-17 -70 -17 -88q12 -28 30 -43l10 3l9 118v-115q16 7 48 18l7 49v-51q13 -5 49 -15l5 66l-1 -69q5 -8 17.5 -40t12.5 -38q0 -45 -48 -67 q-9 -17 -27 -39q-49 -19 -105 -44v-3l-10 -30l2 -5l1 -2q-7 0 14 -3q6 2 9 5q3 -4 9 -10l3 43l5 -47h1q39 16 46 16l4 41l7 -42q3 0 6 -1h5q12 0 60 36l3 79l4 -73q14 11 45 61l4 123l8 -105q6 8 22 21q15 49 15 88q0 45 -16 74q-6 10 -45 60q-16 4 -25 3q-41 11 -88 21 q12 1 20 20l10 30q10 2 17 2l1 55l16 -53q10 1 31 3l-1 32l7 -31h17q11 1 16 1l2 72l6 -72h5q2 20 16 66q13 42 13 67z" />
<glyph unicode="6" horiz-adv-x="314" d="M319 523q0 12 -10 16q-6 -4 -34.5 -8.5t-39.5 -10.5q-32 -17 -76 -78q-9 -13 -12 -31q-5 -4 -15 -10q-8 -16 -10 -26q-13 -13 -38 -42q-7 -12 -23 -34q-4 -23 -4 -38q-5 -11 -12 -20q-2 -18 -1 -25q-13 -49 -13 -72v-109q4 -3 12 -8l7 149l4 -156q5 -3 10 -5 q10 -16 25 -37l-1 113l15 -125q8 -4 12 -4q3 0 8.5 2t8.5 2q4 0 17 -5l2 66l11 -67q22 4 60 42l9 96l3 -83q9 11 29 33l2 42l6 -33q2 2 26 30q1 8 11 58q7 34 7 56q0 26 -42 159q-20 8 -48 28q3 18 24 39l1 75l10 -67q10 9 31 26q2 17 28 62zM237 191q0 -8 -10 -31.5 t-10 -38.5q0 -29 -34 -29q-1 0 -12 11.5t-23 11.5q-7 0 -14 -2q1 6 2 18q-6 9 -16 27q0 2 3 9.5t3 10.5q0 11 -3 29l5 11l5 61l4 -44q3 8 7 13l-1 102l11 -79q4 20 16 47q4 -1 11 -1l10 42l-2 -43q22 -5 26 -19v-41q7 -14 16 -22q6 -12 6 -43z" />
<glyph unicode="7" horiz-adv-x="302" d="M324 567q-7 5 -15 5q-10 0 -39 -14.5t-35 -22.5q-23 -1 -88 -32.5t-104 -31.5q-10 0 -18 -9q-1 -16 -1 -47q0 -2 -4 -9.5t-4 -9.5q0 -9 4 -20q5 -14 12 -14q6 0 16 2l2 80l4 -79h5q6 0 17 9q7 7 15 14h1l3 55l7 -49q13 8 39 23l7 37l2 -31q13 6 38 18q0 -9 2 -26.5 t2 -26.5q0 -7 -12 -45t-17 -45q-13 -4 -37 -16q-15 0 -37 -8q-5 -5 -13.5 -31.5t-8.5 -35.5q0 -14 13 -14q7 0 22 4l2 61l6 -58q12 3 27 9q0 -12 2 -34.5t2 -34.5v-146q-4 -4 -11 -26t-7 -29q0 -11 10 -11l7 46l8 -36q4 3 13 9q-5 4 -5 9q0 17 16 49l-2 9l3 158l8 -144 q11 35 17 69q3 27 11 81q8 18 25 55q12 5 36 16l1 51l5 -47q36 18 36 36q0 9 -12 17.5t-22 8.5q-3 0 -10 -2t-10 -2q-6 0 -10 6q6 11 19 33l-2 11q10 31 11 63q0 -16 -2 65l11 -63q14 47 39 141z" />
<glyph unicode="8" horiz-adv-x="358" d="M370 446q0 25 -29 33q-11 3 -47 9q-2 0 -6 3t-6 3q-11 0 -18 -7q-26 23 -36 23q-17 0 -39 -18q-2 0 -6.5 1t-6.5 1q-47 0 -63 -7q-11 -5 -48 -38q3 -11 3 -19q0 -11 -10.5 -23.5t-10.5 -30.5q0 -53 22 -61l6 70l5 -74q25 -7 34 -15q-19 -40 -52 -66q-30 -62 -30 -68 q0 -12 6 -26q-5 -12 -11 -36q0 -26 -7 -33q5 -5 5 -47q0 -19 5 -29l20 147l-9 -149q11 -4 33 -32v80l11 -96q3 0 9 -1t9 -1q2 1 20 7l7 43v-40l54 9q5 4 15 11l3 61l9 -49l3 1l9 -2q9 0 21 6q17 8 20 9l4 117l9 -112q26 11 33 51q3 21 9 64q6 4 11 5v74l15 -69q10 12 10 47 q0 51 -15 60q0 14 -4 40q-23 25 -37 33q10 5 23 18l7 60l2 -49q24 29 24 83q6 9 15 29zM277 186q-4 -13 -15 -33q-27 -116 -105 -116q-23 15 -41 15q-2 15 -2 12q0 5 6 19t6 20q0 21 -3 35q3 22 16 50q12 12 21 20l8 98l7 -85q10 13 11 21l27 -3l3 46l1 -46h17q5 -17 15 -28 l11 47l2 -60q6 -6 15 -12zM279 373q0 -5 -12 -15t-18 -11l-24 6l-7 -4q-14 0 -37 13.5t-23 25.5q0 17 22 25l4 65l5 -65q5 -3 15 -15q24 2 21 2l6 51v-52q10 -3 30 -7l4 25v-27q14 -8 14 -17z" />
<glyph unicode="9" horiz-adv-x="328" d="M337 410q-21 30 -30 30q-11 0 -37 -11q-33 9 -81 9q-13 0 -39.5 -24.5t-45.5 -20.5q-23 -20 -51 -53q-1 -8 -4.5 -26t-12.5 -24q3 -29 3 -39q0 -5 -10.5 -32.5t-10.5 -39.5q0 -14 30 -23l3 85l3 -87q6 -4 18 -18q7 -8 23 -8q7 0 17 2l7 66l3 -67q12 -3 19 -3q3 0 8 2 l2 44l10 -42q15 4 33 8q-3 -16 -19.5 -48.5t-27.5 -42.5q3 -11 4 -18q-13 -21 -41 -63q-4 -6 -23.5 -17t-21.5 -18q3 -3 11 -7q14 9 43 23l21 39l-3 -33q10 3 31 9q7 11 19 28l9 84l2 -69q11 15 32 45l-1 114l10 -101l30 42l2 47l12 -27q4 10 24 73q4 12 1 31q9 14 20 43 q-8 23 -11 42zM257 333q0 -7 -3.5 -23t-2.5 -29q-37 -55 -69 -55h-20q-12 0 -24.5 21.5t-12.5 34.5q0 41 42 69l6 48l1 -44q11 5 33 11l1 56l1 -55q6 1 18 4q0 -3 -2 -6q32 -19 32 -32z" />
<glyph unicode=":" horiz-adv-x="247" d="M245 337q0 24 -16 40t-40 15q-9 15 -28 15t-40 -7q-26 -8 -31 -22q-2 -5 -6 -16l-15 -30q0 -58 30 -82v112l9 -117q17 -10 45 -10l5 2l14 72l5 -61q11 7 33 23l5 48l3 -42q27 27 27 60zM228 83q0 33 -26.5 63.5t-59.5 24.5q-5 8 -10 8q-37 0 -65.5 -28.5t-28.5 -65.5 q0 -23 9 -28l14 58l-8 -61q26 -13 43 -19l-3 111l12 -114q29 -12 37 -11l9 61l6 -59q13 4 32 15l3 95l15 -84q21 15 21 34z" />
<glyph unicode=";" horiz-adv-x="238" d="M241 3q0 -2 -3 39q-4 50 -12.5 64.5t-50.5 37.5q-16 9 -22 9q-27 0 -65 -30q-41 -31 -41 -57q0 -19 19 -34l11 58l3 -67q20 -13 37 -13l11 73l1 -73q10 2 16 2q15 0 15 -24l-1 -5q-39 -23 -39 -59q0 -9 19 -9l4 35l14 -35h8q9 0 20 6l12 79l1 -70q14 8 28.5 32.5 t14.5 40.5zM241 290q0 13 -6.5 31.5t-16.5 20.5l-15 3q-8 4 -26 11q-7 -2 -20 -5q-2 0 -8.5 3.5t-7.5 3.5q-58 0 -87 -59q0 -3 16 -35l10 31v-46q5 -7 35 -19l12 97l-6 -99q10 -5 32 -11q7 4 22 11q3 0 6 1l10 40l7 -38h4q15 7 27 25t12 34z" />
<glyph unicode="&#x3c;" horiz-adv-x="352" d="M377 427q-2 12 -12 36q-12 29 -18 29q-2 0 -31 -15q-54 -28 -98 -86q-11 -14 -40 -26q-37 -15 -44 -19q-11 -7 -54.5 -53t-43.5 -53q3 -7 21 -43l9 63l4 -85q3 -4 4 -8q7 -5 28 -18l2 50l13 -59q15 -11 46 -32l10 30v-39q23 -20 50 -54l8 91l4 -106q13 -10 41 -27 q14 19 23 33l2 65l5 -55q19 29 40 66q-5 5 -7 11q-63 9 -85 42q-33 13 -42 18q-18 10 -34 30q-19 24 -33 32v11l19 15l3 56l10 -45q20 17 70 57v73l8 -66q6 5 19 16q10 4 31 10l4 43l8 -41q26 22 41 35v34l5 -29q5 4 14 13z" />
<glyph unicode="=" horiz-adv-x="426" d="M422 204q0 16 -16 16q-5 0 -16 -2.5t-16 -2.5q-4 0 -12 2.5t-12 2.5q-28 -8 -83 -23l-7 2q-42 -8 -44 -8q-9 0 -64 11q-4 -2 -13 -5q-27 5 -20 5q-11 0 -54 -5v-3q0 -11 -9 -31t-9 -31q0 -12 7 -15h14l6 51l6 -51h66l2 32l13 -28q42 11 40 11q2 0 7 -1t7 -1l1 42l11 -41 q21 7 47 4l7 46l14 -50q31 -7 42 -7q6 0 37 3l12 21l3 -20q13 2 28 3q5 65 5 73zM420 342q0 25 -15 25t-50.5 -11.5t-51.5 -11.5q-5 0 -14 2.5t-14 2.5q-14 0 -42 1t-42 1q-52 0 -64 -5q-8 -6 -25 -13q-2 0 -6 2.5t-6 2.5q-5 0 -18 -7v-57q5 -5 9 -8q16 0 31 6l2 45l14 -41 q30 1 90 7l8 28l7 -26q50 10 60 10q8 0 22.5 -3t22.5 -3q9 0 29 3l5 56l11 -52q19 4 31 4q6 25 6 42z" />
<glyph unicode="&#x3e;" horiz-adv-x="352" d="M36 427q13 -14 36 -33l2 66l4 -71l19 -15q15 -2 42 -12q9 -9 21 -18l7 47l2 -55q20 -16 46 -38l6 36l4 -44q14 -11 43 -34v-11q-15 -8 -26 -22q-22 -28 -36 -37q-9 -6 -47 -21q-23 -33 -85 -42q-2 -6 -7 -11q8 -18 24 -43l4 46l2 -55q13 -19 40 -57q9 6 28 18l2 83l8 -76 q9 6 21.5 26t21.5 26l13 48l1 -35q12 9 35 28l7 100l7 -91q12 8 37 24l6 35l6 -27q6 3 30 44q17 29 17 34q0 4 -41 50q-21 24 -58 56q-3 2 -44 19q-29 12 -39 26q-38 52 -99 86q-27 15 -30 15q-7 0 -18 -27t-12 -38z" />
<glyph unicode="?" horiz-adv-x="454" d="M486 459q-16 29 -39 87q-46 26 -54 26q-3 0 -9.5 -1t-9.5 -1q-6 0 -18.5 3.5t-18.5 3.5q-13 0 -47 -17q-37 -19 -48 -21q-35 -4 -106 -13q-65 -9 -94 -39v-59q0 -15 8 -58q6 -7 13 -23q4 0 12 -2l6 10l7 91l5 -76q10 10 20 8q0 11 3 34q13 5 40 16l-2 45l14 -41 q24 11 72 31l9 31l2 -27q10 1 32 -5t31 -6q3 0 8 1t8 1l2 37l3 -37q21 -3 31 -21q-6 -5 -14.5 -24t-11.5 -24q-15 -7 -23 -8q-17 -15 -70 -30q-103 -29 -115 -29q2 -27 2 -48q0 -43 -5 -56l-26 -48q5 -7 9.5 -14.5t4.5 -15.5q0 -5 -1.5 -14.5t-1.5 -14.5q19 -10 33 -14 l10 103l2 -107q5 -1 18 -1q12 0 22 2v37l12 -35q4 3 4 15q0 7 -2.5 20t-2.5 20q0 8 4.5 24.5t4.5 24.5t-3 16q7 5 24 12l4 89l2 -87q21 4 48 14l22 57l-1 -36q42 17 53 25l6 63l-4 -62q17 10 71 68l3 84l8 -71q24 29 34 87zM241 -5q0 27 -22.5 46.5t-50.5 19.5 q-11 0 -31.5 -6.5t-30.5 -6.5q-6 -3 -17 -9h4q16 0 16 -25q0 -17 -9 -45q7 -3 21 -10l7 62v-65q16 -8 48 -20l13 58l11 -48q41 41 41 49z" />
<glyph unicode="@" horiz-adv-x="789" d="M332 404q0 9 -7 13q-34 26 -102 64l-49 17l-25 10q-8 3 -46 3q-21 0 -49 -2v-10q12 -3 36 -10q28 -23 32 -21q25 -22 76 -67q60 -52 71 -52q8 0 35.5 23.5t27.5 31.5zM241 183q-43 43 -55 43q-31 0 -50 -24l-30 -48l-51 -66q-30 -45 -30 -77q0 -2 11 -22h12q41 54 79 97 q25 29 114 97zM819 205q0 6 -26 38.5t-42 27.5q-9 4 -40 22l-7 -2q-10 5 -31 12q-55 8 -76 8q-15 0 -43 -5v-71q28 7 33 7q29 0 118 -23l102 -26q12 0 12 12zM665 -10q0 7 -12 43q-6 18 -43 79t-45 61l-8 -5q-2 0 -6.5 2.5t-6.5 2.5q-12 0 -40 -16t-31 -26q26 -17 58 -41 q39 -47 95 -119q0 -11 11 -25q9 2 18.5 18t9.5 26zM464 259q0 52 -56 62q-3 1 -11 5.5t-12 4.5q-9 0 -28.5 -8.5t-23.5 -14.5q-34 -50 -34 -62q0 -21 23 -34q3 -2 42 -17q3 1 8 1q7 0 25 -3q7 2 18 11q6 5 22 5q27 16 27 50zM752 529q-10 10 -15 10q-1 0 -5.5 -2.5 t-6.5 -2.5q-4 0 -11.5 1t-11.5 1q-46 0 -120 -58q-70 -54 -93 -100q3 0 21 -21t24 -21q11 0 30 28q8 12 25 37q27 35 82 77q28 14 81 51zM232 315q0 16 -27 26q-23 9 -41 8q-2 0 -7 -1t-7 -1q-10 0 -28.5 4.5t-28.5 4.5q-25 0 -52 -8q-35 -10 -40 -27q64 -24 206 -50 q25 31 25 44z" />
<glyph unicode="A" d="M482 -11q-14 45 -14 65q0 11 2 24q-2 6 -23 39q-16 25 -16 37q0 5 1.5 15t1.5 15q0 19 -21 24q1 26 3 40q-22 42 -38 62l-1 12q-1 10 4 24q-1 4 -16 31q-7 21 -21 54q-14 25 -14 34q0 6 5.5 19t5.5 19q0 11 -4.5 32t-4.5 32q-27 -3 -53 -5q-17 -4 -36.5 -28.5 t-19.5 -41.5q22 -28 22 -52q0 -16 -45.5 -93.5t-45.5 -95.5q0 -13 7 -21q-9 -4 -25 -19q6 -3 6 -8q0 -14 -21 -18q2 -6 2 -10q0 -15 -20 -39q-3 -13 -10 -40l-12 -6q-14 -27 -30 -61q-33 -44 -33 -58q0 -10 11 -19.5t21 -9.5q4 0 12 1l10 87v-87q20 0 31 41q19 6 48 23 q8 0 24 2l5 57l5 -56q81 7 74 7l11 57l4 -52q5 3 16 8q8 -2 24 -5q8 3 23 8l1 47l6 -45q2 1 7 2q6 -2 18 -5q28 9 30 9q6 0 14 -10l7 89l6 -109q18 -40 24 -40q2 0 14.5 8.5t17.5 9.5zM343 133q-18 0 -60 -19t-58 -19q-3 0 -28 2q-15 1 -29 0q11 37 30 67l9 78l6 -52 q19 52 22 65q2 9 6 91l4 -64q7 21 33 69q9 -22 21 -68q1 -16 5 -22q1 -2 6 -5l11 95v-103q20 -13 20 -21q0 -5 -4.5 -16.5t-4.5 -16.5q0 -6 11 -61z" />
<glyph unicode="B" horiz-adv-x="483" d="M495 149q0 5 -32 41q-22 13 -63 44q-12 11 -17 10q-13 -2 -10 -2q-6 0 -54 19l18 11l5 87l4 -81h1q37 25 56 55l12 57l2 -46q40 29 40 40q0 9 -8.5 30t-8.5 31q0 11 11 64q-13 16 -125 16q-124 0 -164 -20q-2 2 -10 27q-7 22 -17 22q-3 0 -9 -2t-9 -2q-4 0 -11 2t-11 2 q-8 0 -15 -47q-3 -3 -25 -11q-18 -8 -22 -19q1 -9 1 -17q0 -33 -9 -68q15 -5 21 -5l7 60l3 -58q7 4 12 5q3 -1 6 -4q0 -30 6 -67q0 -4 -4.5 -16t-4.5 -17q10 -47 10 -81q0 -15 8 -45.5t8 -45.5v-40q3 -14 7 -25l7 109v-130q0 -7 4.5 -24t3.5 -26l2 -2l14 50l-4 -55 q8 -2 12 -2t8 2q0 138 1 169q23 0 28 -3q5 2 13 3l3 56l2 -55q17 2 52 6v70l5 -70q26 3 35 1l8 36l1 -38q20 -4 43 -19l6 63l4 -72q12 -8 25 -26q-21 -25 -80 -70q-4 -3 -34.5 -13.5t-30.5 -14.5q0 8 4 -17q-8 -12 -8 -14q0 -7 35 -51l7 84v-93q3 -4 10 -12q9 3 25 17 q5 2 17 5l8 59l4 -56h5q20 22 63 62l8 108v-102q24 22 36 35l4 67l3 -59q34 43 34 91q0 5 4 14t4 13zM319 400l-6 -24q-23 -10 -56 -34q-38 -27 -44 -44q-4 -12 -23 -24q-8 -5 -31 -19v147q7 7 24 7l1 34l12 -34q35 0 61 -2l14 42v-42q17 -1 48 -7z" />
<glyph unicode="C" horiz-adv-x="448" d="M469 438q0 34 -5 69q-8 56 -24 56h-4q-13 -17 -31 -23q-5 -8 -7 -33t-9 -33q-5 0 -16 -1t-16 -1q-7 0 -20 2t-20 2q-22 0 -57 -28q-16 -2 -25 -2q-12 -7 -53 -14q-28 -5 -105 -63q-4 -12 -4 -23q-26 -52 -26 -64q0 -28 12 -140q0 -4 20 -14l11 121v-127q12 -11 22 -69 q3 -3 9 -7l7 74l5 -82l7 -3q5 -7 13 -22q9 -7 30 -25l9 79l-1 -85q25 -21 42 -29l1 77l4 -79q7 -3 13 -3q2 0 13 2q6 1 14 0l11 88l8 -92q22 -5 39 -7q12 5 30 15l14 86l6 -76q6 3 19 10q7 3 10 49q2 29 4 60q-7 7 -11 7q-13 0 -30 -18t-23 -18h-24q-65 0 -168 112 q-4 19 -3 34q-11 13 -33 38q0 25 23 44l9 80l12 -67q34 19 63 19q8 0 11 -3l2 61l2 -61q27 4 80 16l24 100l-13 -99q1 1 4 1q16 0 35 -4l3 37q0 -23 9 -77q3 -5 8 -15q-4 -12 -11 -35q12 -36 16 -36t9 3l6 120l6 -102q25 52 31 170q0 9 6.5 27.5t6.5 20.5z" />
<glyph unicode="D" horiz-adv-x="557" d="M578 319q-20 38 -39 75q-26 40 -65 51q-25 7 -74 28q-31 2 -47 4q-9 8 -27 19q-27 -9 -24 -9q-8 0 -17 7q-12 8 -16 9q-13 -2 -11 -2q-10 0 -19.5 9t-15.5 9q-9 0 -30 -8t-30 -8q-5 0 -14 2t-14 2t-15.5 -3t-15.5 -3q-12 0 -38 11q-6 -1 -10 -3q-6 -15 -18 -44 q12 -22 28 -71q2 -13 11 -16l26 10l6 75l5 -71l32 12q0 -18 6 -54.5t6 -54.5q0 -7 -8 -47q-2 -13 -3 -21q7 -9 18 -28q-2 -5 -11 -20.5t-9 -23.5q2 -11 11 -72q-60 -23 -60 -30q0 -23 25 -68l9 75l4 -91q4 -3 8 -3q34 16 53 15l7 59l4 -57q15 1 45 4q0 1 1 1l6 139l10 -129 q21 13 33 24q7 2 20 7l9 91v-87q17 6 34 11q12 7 20 26q3 7 10 18l5 53l4 -47l24 6q24 24 34 47q6 20 7 23q5 14 12 19v74l3 -72q27 16 45 49l1 66l6 -53q13 31 11 60q17 -4 27 -4q0 5 5 10zM484 327q0 -19 -15 -37q-2 -3 -29 -30q-13 -19 -39 -55q-24 -8 -38 -8 q-1 -1 -12 -14q-6 -9 -15 -9q-4 0 -11 1q-23 -10 -69 -25q-6 -11 -11 -21q-8 -12 -19 -12q-4 0 -11.5 1.5t-11.5 1.5q25 65 25 105q0 12 -3 35.5t-3 35.5q0 -4 -4 23v40q0 6 -4 19t-4 19q0 17 20 17l1 43l11 -48q3 0 7.5 1t7.5 1q5 0 14.5 -3t13.5 -3q33 11 28 11v33l10 -37 q27 -12 79 -41l-1 60l6 -64q3 0 9 1t9 1q6 0 30 -18l7 35v-39q6 -4 17 -8q5 -8 5 -12z" />
<glyph unicode="E" horiz-adv-x="562" d="M600 3v13q-11 12 -16 34q-4 18 -7 37q-8 25 -31 59l-28 -7q-3 -11 -46.5 -38t-56.5 -27q5 0 -26 7q-23 -17 -38 -13q-28 -7 -31 -7t-42 11q-10 -3 -29 -9q-10 6 -31 18q-28 -7 -29 -7q-16 0 -30 18l-18 32l43 22v45l8 -41q21 9 63 24l5 49v-47h3q23 9 56 28l3 85l3 -79 q5 1 57 10l11 45l8 -41q11 3 34 7q4 3 7 22q2 15 12 14q6 4 6 9q-12 30 -12 44q-34 6 -85 7q-8 5 -20 11q-2 0 -7 -2.5t-7 -2.5q-51 0 -95 25q-12 15 -16 28q-8 5 -20 16q11 -2 47 8l8 55l8 -51l50 11q6 -2 14 -2q-4 0 24 6l5 33l3 -31q8 0 24 -3t24 -3q5 0 11 1l-2 60 l10 -60q7 0 17 3q32 9 25 9q7 0 22 -6l-2 68l15 -73q4 -2 14 -6q1 8 9 33q7 20 7 35q-9 5 -25 17q-17 6 -36 6q-12 0 -36.5 -3.5t-36.5 -3.5q-2 0 -7 1t-7 1q-5 0 -18.5 -5.5t-18.5 -5.5q-4 0 -11 1t-11 1q-7 0 -21.5 -3t-21.5 -3q-8 0 -25 1t-25 1q-14 0 -44.5 -16 t-48.5 -17q-6 -5 -19 -14q-29 5 -22 5q-4 0 -14 -5q-1 -17 -9 -49q-5 -10 -5 -12q0 -15 36 -57l4 69l3 -79q7 -9 18 -28q8 -2 25 -7l7 50l9 -54q34 -15 50 -31q0 -9 -62 -30q-4 -2 -24 -17l-39 -6q-3 -40 -46 -38q-12 -33 -12 -42q0 -5 4.5 -17.5t4.5 -18.5q0 -5 -1.5 -13.5 t-1.5 -13.5q0 -3 1 -7q5 -7 12 -10l12 92l3 -99q8 -12 27 -35q9 -3 27 -10l5 83l7 -86q15 -11 47 -28l12 58l2 -60q10 2 19 2q15 0 37 -13l3 95l8 -94q20 5 30 9q22 0 27 -1q12 2 35 6l1 40l7 -38q15 2 45 7l16 91l1 -88q31 4 49 11l12 52l-2 -49q25 8 36 6l11 116l5 -121h1 q12 9 39 23q4 0 10.5 -1t10.5 -1zM260 231h1l-1 -8v8z" />
<glyph unicode="F" horiz-adv-x="516" d="M553 399q-18 15 -53 44q-28 22 -66 22q-2 0 -15 -4l-16 -5q-7 8 -25 20q-6 -4 -19 -9q-6 1 -54 18q-32 11 -56 11q-4 0 -13 -2t-13 -2t-15 3t-15 3q-13 -2 -11 -2q-4 0 -8 14.5t-11 14.5q-13 0 -23.5 -15t-10.5 -29q0 -5 2 -8q-64 -28 -83 -27q-6 -5 -6 -15q0 -3 6.5 -17 t6.5 -23q0 -7 -3 -22t-3 -22q0 -11 3 -18q7 -2 10 -2q-3 0 25 8l11 95l4 -94h1q11 7 36 22q8 -13 8 -21q0 -7 -4 -27q-3 -16 -1 -32q-2 -4 -6 -13q4 -14 11 -41q-6 -13 -49.5 -31t-43.5 -24q15 -37 32 -65q3 -1 8 -3h7l10 71l-2 -72h10q6 -1 9 -1h1l2 42l2 -42q6 2 17 4 q1 0 4 -3v-15q0 -16 -9 -50.5t-9 -51.5q0 -32 23 -32l3 100l4 -100h1q3 0 23 5l2 65l11 -60h1q6 0 18 6t12 11q-8 13 -22 41q2 7 11 34q-11 53 -11 61q0 14 20 14q9 0 20 -2l3 58l5 -61q9 -4 26 -6q7 2 17 5l5 53l5 -49q9 4 13 4q4 -1 14 -4l14 -5q8 2 24 7l2 79l6 -76l3 1 q10 -3 31 -6q26 6 26 15q-1 3 -3.5 25.5t-7.5 66.5q-4 0 -11 2t-11 2q-8 0 -23 -4q-21 -6 -24 -7q-6 3 -17 7q-15 -6 -46 -16q-9 2 -26 5q-7 -3 -21 -8q-11 8 -36 19q-8 12 -8 27q0 6 4 43q1 8 -2.5 21.5t-3.5 19.5q0 23 1 27q10 -1 29 -4l5 50l8 -51q10 0 33 -4.5t36 -3.5 q7 -4 22 -11l-2 47l12 -50q24 -3 74 -14l15 36v-40q11 -4 31 -7v-1l2 25l7 -37q23 -20 29 -20q9 0 21.5 18.5t13.5 28.5v34q0 18 6 32z" />
<glyph unicode="G" horiz-adv-x="541" d="M562 523q0 4 -7 11q-11 0 -33 3.5t-33 3.5q-18 0 -18 -65q-3 -2 -29 -11q-9 -3 -28 -2q-33 2 -28 2q-9 0 -26 -2t-26 -2q-6 0 -16 2q-13 4 -17 4q-11 -5 -32 -13q-23 -2 -65 -10q-40 -13 -105 -53q0 -13 -2 -38q-10 -15 -23 -28q-5 -14 -14 -41q-6 -8 -15 -25v-3 q0 -29 -23 -83q0 9 20 -82q2 -9 7 -32l10 137l1 -150q14 -12 32 -20l4 59l5 -62q16 -9 45 -9q7 0 16 -13l8 114l1 -128q9 -12 18 -12q2 0 6.5 2.5t6.5 2.5l9 -3l4 47l4 -52l20 -10q10 8 47 9l11 106l2 -107q16 -8 37 -8q22 0 50 25l7 50l4 -45q32 0 45 5l9 122l5 -117 q14 8 38 34l5 89l6 -75q26 35 26 52q0 50 -14 65q-31 34 -63 47q-21 9 -77 20q-8 1 -47 15q-32 11 -43 9q-53 11 -68 11q-29 0 -47 -21q11 -35 14 -66q13 -4 38 -9q3 0 10 1t10 1q6 0 22 -5q13 -4 24 -2q20 -8 61 -24q4 0 12 1t12 1q33 0 33 -22q0 -29 -68 -29 q-7 0 -22.5 6.5t-21.5 6.5q-2 0 -6.5 -2.5t-6.5 -2.5q-92 0 -158 87q-5 7 -5 40q0 19 13 36l15 103l-2 -88q12 12 39 30l7 56v-52q19 12 49 20l16 45l3 -42q4 0 11.5 -1t11.5 -1q6 0 18.5 5.5t18.5 5.5q15 0 33 -7l9 37l4 -38l33 -3q16 0 34 3l2 96l5 -95h3q4 0 12 3.5 t12 3.5q16 0 16 -24q0 -8 -2.5 -23.5t-2.5 -23.5q9 -27 9 -49q5 -4 10 -3l2 82l7 -80q11 4 15 26q0 3 15 76q11 53 11 72q0 6 -4.5 18t-4.5 14q3 15 13 54z" />
<glyph unicode="H" horiz-adv-x="511" d="M518 186q0 98 -25 98q-5 0 -13.5 -2t-13.5 -2q-9 0 -20 4v22q0 3 5 15.5t6 16.5q-12 39 -12 95q0 3 1.5 9t1.5 9v0q-7 14 -22 41q-36 -10 -46 -16q-23 -13 -23 -38q0 -12 8 -34t8 -26q0 -39 -3 -50q-1 -3 -6 -12t-5 -12q0 -5 4 -15t4 -15q0 -8 -7 -12q-18 1 -54 2 q-10 5 -29 11q-65 -20 -76 -20q-55 0 -55 105q0 12 1.5 35.5t1.5 35.5q0 26 -14 36q-19 -10 -30 -10q-9 -5 -19 -19t-10 -23q0 -3 4 -8.5t4 -7.5q8 -63 8 -55q0 -6 -2 -18t-2 -18q0 -25 11 -58q-6 0 -44 1q-8 2 -23 6q-5 -1 -9 -4q0 -4 -1.5 -11.5t-1.5 -11.5t4 -11.5 t4 -11.5q1 -19 4 -56q5 -44 24 -39l4 1l11 105l3 -103q2 1 29 6l3 47l4 -45q4 0 9 1q33 -65 33 -133l4 1l9 91l2 -88q5 1 11 2l2 61l10 -59q3 1 7 1q8 46 8 51q0 6 -4.5 18t-4.5 18q0 21 7 27q5 2 16 4l5 98l4 -96q24 4 37 6l-4 63l17 -61q13 1 40 6l3 49l6 -48q18 2 33 2 l9 89l6 -90q10 -1 16 -5q-3 -11 -3 -20q0 -7 4.5 -19.5t4.5 -13.5q0 -13 -3.5 -38t-3.5 -38q0 -6 1 -11q5 0 13 -2l13 110l-2 -114q7 -4 21 -3l2 60l16 -58q14 3 26 10q-16 84 -16 110q0 10 2.5 29.5t2.5 28.5q49 17 49 24z" />
<glyph unicode="I" horiz-adv-x="217" d="M223 381q-4 15 -22 22q-5 1 -32 7q-6 1 -20.5 9t-28.5 8q-31 0 -73 -12v-27q0 -15 18 -64t18 -77q0 -45 7 -65q2 -5 9.5 -20.5t7.5 -24.5q0 -23 -11 -70t-11 -70q0 -5 2.5 -16t2.5 -16q4 -4 7 -6l17 71l-2 -84q12 -9 16 -9t12 3q1 25 3 167l10 -142q5 8 13 24 q19 54 19 100q0 15 -9 42z" />
<glyph unicode="J" horiz-adv-x="509" d="M540 378l-10 48q-17 10 -51 28q-6 -3 -19 -7q-22 7 -26 7q-8 0 -23 -3.5t-23 -3.5q-17 0 -49 10t-49 10q7 0 -20 -4q-22 8 -66 19q-28 -1 -82 4q-13 3 -18 9q-22 2 -29 2q-5 0 -10 -1q-7 -13 -7 -30q0 -8 3 -22.5t3 -22.5q0 -9 -1.5 -25.5t-1.5 -25.5q0 -8 16 -21l6 73 l3 -80q4 -3 13 -6q4 3 20 17q11 10 22 7l3 55l19 -62l8 -2q11 0 28 6q21 7 28 8l6 20l5 -20q16 0 43 -4l8 70l8 -75q15 -4 44 -11q7 -12 10 -69q7 -28 7 -29q0 -8 1.5 -24.5t1.5 -24.5v-91q-15 -30 -39 -30l-8 -3q-20 17 -50 40q-25 14 -34 27q-4 5 -7 18q-16 -2 -27 -2 q-9 0 -39.5 26.5t-37.5 37.5t-14 29q-7 5 -15 5q-4 0 -18.5 -14.5t-15.5 -19.5q-16 -87 -36 -136q0 -4 3 -10q13 3 28 1l8 92l1 -95q22 -8 51 -47l4 141l10 -152q6 -1 16 -2q7 0 14 -7l5 65l13 -82q9 -2 28 -6q7 -5 15 -10l5 141l6 -149q12 -9 36 -25l11 63v-68q34 0 46 -5 h8q4 0 9 1l3 133l4 -131q11 2 33 7q9 30 19 39v144l14 -135l4 1q21 23 32 37q-1 3 -9 14q-6 8 -6 20q0 4 7 18t7 18q0 8 -3 25t-3 25q0 5 3 8h4q0 131 -18 184h8q6 -1 9 -1q5 0 10 1l7 53l5 -52q4 0 11 1h17q4 -2 21 -7l4 36l6 -36q14 11 14 45z" />
<glyph unicode="K" horiz-adv-x="521" d="M529 83q0 11 -1.5 34t-1.5 34q0 4 -6 12q-5 39 -20 47q0 5 3 14.5t3 14.5q0 9 -11.5 14t-75.5 47q-3 2 -11.5 14.5t-13.5 12.5t-33 -7q-6 4 -20 11q-27 -7 -20 -7q-13 0 -38 13q10 7 29 21l9 69l-2 -64q13 8 37 25l11 63l4 -54q27 18 57 35q3 7 3 10q0 12 -9 40 q-10 32 -18 32q-56 -41 -75 -41q-38 -33 -56 -33q-4 0 -13 3.5t-13 3.5q-8 0 -17.5 -20t-13 -21.5t-42.5 -12.5q-25 -7 -38 -19q-7 35 -7 128q0 -2 -13 25h-12q-11 0 -36.5 -20t-25.5 -30q0 -14 7 -42.5t7 -42.5q0 -19 -5 -39q-6 -5 -20 -11q0 6 -2 -24q3 -11 9 -35 q0 -10 -4 -29q-1 11 -1 -60q0 -12 20 -12l5 57l7 -55q13 0 27 -65l9 115l-5 -140q0 -3 1.5 -8t1.5 -8q1 -43 3 -59q4 -41 13 -54l5 65l15 -76q17 6 17 95q0 7 13 75q-9 40 -9 48q0 19 34 21l10 83l4 -87q17 -7 27 -10q10 7 32 18l8 -2q5 1 9 3l5 57l5 -53q17 3 51 -31l4 47 l5 -51q6 -1 19 -4q7 -13 26 -36l14 118v-131q26 -16 32 -38q8 -25 10 -27l6 94l3 -103q11 -12 16 -36q7 -31 11 -40l5 83l15 -105h2q17 34 18 50v64q0 5 1 13.5t1 13.5z" />
<glyph unicode="L" horiz-adv-x="452" d="M484 120q0 66 -38 66q-19 0 -198 -54q-10 -4 -29 -11q-12 5 -37 16q-10 -8 -31 -19q-2 28 -2 44q0 7 -2 21.5t-2 21.5v72q0 9 7.5 29.5t7.5 30.5q0 11 -2.5 32t-2.5 32q0 -5 12 42q-2 16 -5 48q-6 10 -10 10q-15 0 -59 -17.5t-44 -28.5q0 -3 22 -60q-1 -2 -6 -12.5 t-5 -12.5q0 -4 6 -16.5t7 -16.5q13 -83 23 -245q-38 -12 -47 -26.5t-9 -56.5q0 -4 3 -9t3 -8q0 -12 2 -35.5t17 -23.5q3 0 8 3l6 130v-125l21 12q32 -9 28 -9l-1 94l12 -90q6 4 24 28q13 17 34 17q4 0 11.5 -2.5t11.5 -2.5q5 0 15 5l6 86l5 -80l3 2q18 11 36 11q13 0 37 14 l8 57l5 -49q15 9 25 14l8 -3q10 7 31 20l10 55l4 -53q23 -10 32 -10q8 0 12 7q3 22 27 56z" />
<glyph unicode="M" horiz-adv-x="613" d="M645 92v11q-34 23 -45 37q-16 20 -22 54q0 16 -3 47q-2 9 -23 33t-23 31q-1 3 -19 97q-6 32 -33 87q-7 14 -20 41q-4 18 -18 42l-54 -12q-32 -63 -32 -99q0 -8 1 -17q-30 -77 -54 -109l-4 -22q-3 -14 -9 -20q-18 16 -44 75q-23 52 -53 70q-6 18 -6 28q-1 3 -4 14 q-16 15 -51 43q-13 0 -28.5 -29.5t-15.5 -44.5q18 -33 18 -45q-4 -13 -5 -22q-6 -26 -8 -68q-4 -72 -13 -120q-6 -30 -6 -67q0 -21 -42 -97q11 -12 28 -37l2 74l11 -103q9 -6 22 -18l9 142l1 -149q15 -9 23 -9q3 0 9 3q0 16 3 47t3 47v19q-1 25 -1 18q0 5 2.5 13.5t2.5 13.5 q0 8 -3.5 25t-3.5 25q0 10 7 27l-9 85l14 -70q6 15 8 36q3 26 5 35q2 16 9 21q1 -1 20 -31l8 82l6 -110q25 -50 25 -66q0 2 -11 -64q3 -11 14 -33q4 -8 4 -43q5 -4 16 -10l10 148l1 -152l21 -9l4 88l12 -93l6 -2q12 69 12 73v76q0 4 -3 12.5t-3 12.5q0 7 10 26q19 37 27 75 q0 44 1 99l9 -70q4 16 14.5 48t19.5 39q12 -41 18 -66l10 48l-3 -75q0 -8 7.5 -43t11.5 -41l9 64l-1 -78q19 -32 20 -33q0 -3 -2 -8.5t-2 -7.5q0 -15 5 -58q4 -36 2 -58q1 -4 4 -10l13 120l1 -135q4 -3 7 -4q12 8 30 17l7 82l8 -75l9 2q8 -2 14 -2q12 0 19 6l-2 127l9 -122 q5 5 20 38q10 23 37 33z" />
<glyph unicode="N" horiz-adv-x="520" d="M499 143q0 7 2 21t2 21q0 15 -7 44l-10 43v36q0 7 -3 20.5t-3 20.5q0 21 12 65t12 61q0 15 -10 15q-15 0 -48.5 -12t-50.5 -21q27 -53 27 -88q0 -10 -8 -25t-8 -17q0 -19 30 -79q-1 -15 -1 -47q0 -6 3.5 -18t3.5 -18q0 -3 -1 -6q-20 16 -54 46l-2 1q-10 10 -37 35 q-32 23 -82 38q-14 4 -29.5 21.5t-25.5 21t-22 7.5l-3 2q-13 11 -26 19q-19 12 -41 27q-9 9 -26 43q-64 -31 -64 -49q0 -2 2.5 -8t2.5 -9t-2 -12q-1 -8 0 -12v-3q21 -15 24 -29q2 -6 2 -41q0 -8 -5 -26.5t-4 -28.5l9 -102q0 -5 -1.5 -15t-1.5 -15q0 -11 -5 -33t-5 -33 q0 -4 12 -9l15 120l-3 -125q15 -6 19 -6q6 0 16 5l2 83l9 -78q24 15 34 16q-22 62 -22 134q0 7 6 69l7 -4l9 68l5 -74q23 -9 43 -25l3 90l3 -93q25 -20 67 -50l-1 64l10 -69l3 -1q3 0 9.5 1t9.5 1q5 0 29 -24l4 57l2 -63q6 -10 25 -24t28 -13q9 -11 28 -33l10 119l6 -137 q25 -27 42 -42l6 90l11 -104q5 -3 14 -8q9 30 23 61z" />
<glyph unicode="O" horiz-adv-x="549" d="M567 266q0 53 -24 63q-5 2 -37 7q-152 107 -170 107q-22 0 -67 -14q-48 -15 -68.5 -17t-25.5 -8l-10 -20q-27 -18 -48 -29q-5 -10 -13 -31q-40 -19 -42 -20q-19 -13 -22 -38q-4 -30 -4 -40q0 -3 4 -10t4 -9q3 -15 3 -47q0 -10 7 -35t13 -28l5 136l5 -139q9 -2 21 -8 q9 -11 20 -20l4 83l6 -91q41 -35 68 -42l1 103l8 -102l5 2q22 -11 58 -26l11 65l6 -67q22 0 54 19l3 97l6 -91q9 6 13 9q6 0 17.5 -2t17.5 -2q15 0 32 10l3 112l7 -107q14 10 33 23l-1 68l16 -52q20 23 25 49l7 10l2 76l10 -59q28 38 32.5 52.5t4.5 62.5zM486 228 q0 -20 -48 -52q-60 -40 -66 -48q-7 0 -61 20q-15 -8 -42 -24q-16 0 -63 41q-7 2 -18 4q-54 41 -54 76q0 23 23 40l3 63l7 -56q21 13 82 30l3 74l3 -72q7 1 21 5q8 -14 14 -14l24 4l2 34l10 -33q15 -2 34 -12l32 -16l6 58l1 -61q10 -4 21 -9t16 -14l7 63l7 -82q4 -4 8 -5 q3 0 8 1t8 1q12 0 12 -16z" />
<glyph unicode="P" horiz-adv-x="469" d="M486 322q0 9 -2.5 27.5t-2.5 27.5q0 4 1.5 12.5t1.5 12.5q0 23 -26.5 44t-50.5 21q-6 0 -20.5 -6.5t-20.5 -6.5q-3 0 -8.5 1t-8.5 1q-5 0 -19 -5t-18 -6q-2 0 -7 2t-7 2q-7 0 -24.5 -4.5t-27.5 -2.5q-16 -9 -49 -24q-10 0 -17 27q-9 38 -13 44q-15 -1 -43 -17.5 t-28 -29.5q0 -8 6.5 -23.5t6.5 -22.5q0 -4 -1 -7q-83 0 -95 -21q21 -50 21 -106q6 -4 10 -4l14 4l9 65l3 -61q11 2 31 7l2 -46q-3 -8 -3 -20q0 -11 18 -102q-1 5 -1 -56q0 -32 24 -80l7 118l3 -128h1l11 1l2 43l7 -41q9 3 18 9l-9 102q0 11 10 20t21 9l4 60l7 -58q12 2 22 2 q9 5 27 12l4 38l10 -32q19 6 57 16q1 1 2 1l1 85l10 -81l18 9q9 1 27 4l8 8v107l9 -98q13 14 38 43l-2 72l12 -52q20 50 20 84zM399 296q0 -37 -156 -92l-10 2q-38 -13 -43 -13q-5 15 -5 22q0 10 5.5 28.5t5.5 28.5l-13 26q0 15 26 15l3 78l4 -80h3q11 0 61 17l4 49l4 -47 q3 1 15 6q7 0 21.5 -7t21.5 -7q4 0 8 1l2 62l6 -59l7 1q9 0 19.5 -11t10.5 -20z" />
<glyph unicode="Q" horiz-adv-x="535" d="M553 282q0 25 -30 54l-47 46q-27 -29 -27 -50l7 -14q4 -6 4 -16t-19 -29q-9 -9 -9 -50q-29 -32 -42 -50q-4 -4 -27 -10q-9 -3 -16 -3q-5 0 -9 1q-8 -4 -24 -11q-13 35 -33 107q-23 0 -53.5 -18t-35.5 -39q13 -28 14 -46q-12 2 -36 7q-9 3 -30.5 32t-21.5 38q0 11 5 31.5 t5 31.5q3 5 11 12l10 69v-63l42 15l3 29l6 -26q22 6 37 6q6 0 20 -7q18 7 29 15l6 79l6 -79q29 -22 54 -22l10 64l2 -62l5 7q5 -5 8 -7q38 40 38 67q0 24 -10 31q-10 1 -34 12t-27 11q-2 0 -6.5 -1t-6.5 -1q-7 0 -20.5 3t-20.5 3q-12 0 -51.5 -16.5t-47.5 -14.5l-9 2 q-67 0 -99 -29q-27 -25 -49 -93q-12 -37 -12 -46q0 -72 24 -114q0 -10 3 -19l4 138l2 -157q4 -5 9 -5t14.5 1t14.5 1l5 71q1 -24 5 -70q3 -19 9 -30q8 -4 27 -11l1 39q4 -19 8 -39q8 -23 26 -23l8 3l23 -5l2 69l8 -72q27 -5 37 -5l9 119l4 -119q34 0 46 -3l2 86l9 -88 q8 -1 35 -23l4 81l9 -91l39 -29l1 46l10 -54q16 -10 41 -40h1l3 62l7 -66q12 -3 36 -10q4 6 10 30t6 33q0 10 -17 19l-25 10q-13 6 -36 28t-31 36q16 6 33 15l-1 102l15 -93q23 15 39 38l6 84l5 -62q6 23 24 82q17 50 17 65z" />
<glyph unicode="R" horiz-adv-x="483" d="M502 101q0 7 -26 44q-7 9 -18 11q-16 2 -19 4q-50 24 -102 63q15 3 44 11q9 3 31 26q20 20 34 20q5 20 5 34q0 3 7.5 23t7.5 30q0 58 -48 74q-24 8 -97 8q-13 0 -38.5 -5.5t-38.5 -5.5q-5 0 -15.5 4.5t-15.5 4.5q-9 0 -37 -25v2q0 8 -7 32.5t-11 24.5q-9 0 -64 -46 q1 -8 1 -14v-10q-19 -11 -49 -21q-2 -3 -5 -6l-3 -42v-56q0 -13 15 -13l10 86l4 -73q16 23 27 23v-39q0 -6 -6 -18q-2 -30 -2 -44q-21 -21 -21 -38v-17q16 -8 28 -16q3 -11 3 -32q0 -14 -9 -90q3 -2 13 -7l4 79l7 -84q15 -6 24 -8l5 68l9 -72h4q10 0 13 5q-3 18 -3 32 q0 79 10 89q7 0 22 -2l5 71v-72q17 -3 53 -13l10 61l4 -67q9 -5 40 -8t38 -8l5 77l5 -81q8 -4 25 -19.5t30 -17.5l2 65l11 -82q9 -9 20 -29q7 -6 13 -6q9 0 12 5q2 19 1 28zM332 329q-52 -32 -83 -45q-14 -14 -38 -30q-28 -19 -41 -19q-4 2 -4 26t4 72q10 0 22 2v56l8 -54 l58 6l11 51l-6 -50q21 3 23 3q7 -1 44 -5q1 -4 2 -13z" />
<glyph unicode="S" horiz-adv-x="511" d="M542 433q0 9 -6.5 24t-13.5 15q-3 0 -7.5 -1.5t-7.5 -1.5t-16.5 6.5t-17.5 7.5q-17 -9 -50 -22q-12 -1 -41 -6q-11 -2 -81 -22q-57 -16 -75 -16q-4 -3 -8 -16.5t-8 -15.5q-64 -28 -92 -30q-10 -11 -31 -33q-16 -9 -42 -32q-34 -47 -34 -60q0 -4 11 -16q1 -3 1 -6 q0 -6 -1.5 -16.5t-1.5 -16.5q0 4 8 -53l20 -12l7 110l1 -114q32 -16 54 -16l13 59l1 -59q10 2 15 2q8 -1 49 -8l4 80l10 -82q5 -1 12 -1q11 0 21 2l4 39l7 -41q10 -3 28 -17q-8 -6 -21 -20q-48 -19 -73 -19q-6 0 -18.5 3.5t-18.5 3.5q-9 0 -28 -9.5t-19 -16.5q29 -42 46 -42 q1 0 3 1l1 59l8 -56q13 5 18 5q3 0 15 -5l4 45v-47q29 -13 65 -13q4 0 28 8l9 89l4 -85q18 5 36 5q10 0 19 -1q2 1 14 9v78l13 -69l6 5q10 3 29 8q1 7 9 28.5t8 24.5q0 27 -35 56q-27 23 -60 38q-15 7 -44 11q-21 13 -41 27q-28 16 -46 12q-9 -2 -6 -2q-15 0 -54 15 q4 15 17 40q6 2 21 8l8 34l8 -29q6 1 17 4l18 18l3 76l5 -66l5 6q10 2 31 10l6 61l4 -56q9 6 28 17l9 -4q5 0 15 5l3 81l14 -72q20 10 29 10q5 0 9 -1q-2 -16 -14.5 -65.5t-12.5 -60.5q0 -24 18 -24q3 0 8 3l5 84l7 -77q11 8 26 24q3 17 12 44l-3 87l12 -69q26 39 50 63 l2 54l5 -43q20 29 32 61z" />
<glyph unicode="T" horiz-adv-x="498" d="M533 410q-4 34 -12 75q-3 -3 -43 -3q-8 0 -51 -16.5t-62 -16.5q7 0 -18 5q-3 -1 -11 -5t-14 -4q-21 2 -17 2q-69 0 -99 -38q-7 5 -21 16q-4 0 -17 -11q-17 6 -20 6q-60 0 -85 -12q-1 -19 -8 -28q-3 -4 -21 -21q-2 -13 -16 -67q7 -3 12 -3q14 0 41 10l1 81l9 -78 q13 4 30 12l9 34l9 -31h11l38 9l5 35l6 -32q20 4 31 4q3 -1 5 -3q-13 -19 -25 -86q-12 -71 -25 -95q2 -4 2 -7q0 -16 -10.5 -48t-10.5 -47q0 -17 18 -23l14 74v-79q22 -9 42 -15l4 148l7 -152q10 -2 29 -7l1 44l7 -48q9 -4 14 -7q6 0 9 3q-27 76 -27 81v91q0 4 16 75 q13 57 12 93q8 11 17 22q8 8 24 11l2 61l15 -58q8 1 67 4v52l12 -52q29 0 51 -11l2 45l3 -47l1 -1q4 0 10 3q2 40 27 56z" />
<glyph unicode="U" horiz-adv-x="504" d="M61 237l8 -134q9 -9 17 -12q8 -13 24 -40l4 100l10 -114q8 -5 34 -18l4 55l8 -65q52 -18 54 -18l4 124l12 -115q13 8 20 8q6 0 17 -1.5t16 -1.5l5 86l9 -86q29 1 64 22l3 47l3 -43l33 20q-2 10 -2 17q0 12 24 34l1 79l9 -69q17 17 39 35q1 4 25 96q-2 5 1 63 q-6 19 -14 66q-7 43 -16 66h-12q-37 -27 -37 -38q0 -10 7 -30t7 -30q0 -22 -6 -57q-7 -42 -16 -51q-2 -14 -18 -38q-33 -50 -88 -50q-11 0 -33 1t-33 1q-5 0 -35.5 21.5t-33.5 26.5q-14 26 -14 38q0 22 14 52l2 51l4 -41q5 10 18 27l7 65l1 -54q13 17 34 35v63l10 -55 q4 4 12 10q1 4 1 8q-3 7 -3 11q0 1 1 4l4 3q0 21 -7 28q-4 4 -27 13t-30 9q-4 0 -12 -3.5t-12 -3.5q-3 0 -30 2l-9 -3q-15 -25 -17 -31q-9 -16 -11 -33q-6 -6 -18 -17l1 -3q0 -6 -12.5 -25.5t-9.5 -33.5q-36 -78 -36 -87v-57q0 -15 16 -46z" />
<glyph unicode="V" horiz-adv-x="509" d="M523 417q0 37 -4 56v1q0 2 -2 3q-26 -6 -77 -19q1 -12 1 -23q0 -108 -7 -143q-2 -11 -15 -29.5t-16 -28.5q-3 -21 -15 -51q-6 -6 -45 -32q-32 -21 -36 -30q-58 58 -113 83q-28 31 -68 94q-14 20 -14 46q0 8 2.5 24t2.5 24q0 6 -9 10q-24 -5 -49 -40q-3 -4 -10 -25 q-5 -15 -19 -22q0 -7 -1.5 -21.5t-1.5 -21.5q0 -20 23 -58l8 91v-103q3 -3 9.5 -26t12 -27t24.5 -16l5 66l2 -69q4 -3 11 -6q14 -18 22 -31q3 -4 11 -10l10 45l2 -55q12 -10 37 -30l6 55q1 -30 11 -91q10 -32 16 -32q4 0 34 15l5 103l7 -98q26 6 40 27q10 4 19 15l1 67 l8 -57l18 26q17 25 35 35l-2 43l15 -35q13 9 36 49l2 108l11 -64q14 26 35 38q9 16 10 35l-1 -1v2l-1 6v25q0 12 6 32.5t7 30.5q1 14 1 40z" />
<glyph unicode="W" horiz-adv-x="612" d="M620 292q0 4 -17 29q0 31 -1 54l-4 82q-9 50 -42 64q-24 -6 -47 -27q0 -26 11 -76t11 -76q0 -11 -5.5 -31.5t-5.5 -31.5q0 -8 5.5 -20t5.5 -14q0 -7 -4.5 -20t-4.5 -20t2 -15q-11 -54 -13 -59q-12 -43 -31 -43q-11 0 -42 48q-2 14 -7 36q-26 6 -31 9q-10 6 -15 27l-21 18 q-14 36 -14 53q0 6 4.5 18t4.5 17q0 12 -21 21q-17 7 -32 7q-17 0 -69 -44q-4 -23 -12 -37l-12 -6q-4 -25 -22 -56q-22 -38 -40 -38q-4 0 -4 2q-13 64 -13 88q0 10 1.5 30.5t1.5 30.5q0 -7 -8 18q6 9 10 20q8 21 15 112q-7 3 -10 3q-8 0 -21 -20q-36 -13 -60 -17 q-8 -11 -8 -56q-3 -8 -8 -21q3 -22 11 -43q-6 -14 -18 -43q25 -68 25 -139q0 -16 -29 -89q17 -10 40 -55l6 1l16 124v-119q28 12 64 49l5 64l3 -56q19 22 57 65l6 114l6 -101q16 17 48 43q8 -15 20 -44q3 -3 9 -7v114l10 -121q12 -7 26 -13q8 -26 10 -45l3 -4l7 97l4 -111 q24 -29 40 -40l6 69l2 -75q59 -44 67 -44q2 0 5 2l12 123l7 -103q14 22 46 62q4 11 8 27l2 141l6 -96q28 48 28 80q0 6 -2 18t-2 18q0 13 9.5 40t9.5 38z" />
<glyph unicode="X" horiz-adv-x="482" d="M511 98q-15 8 -36 49q-41 20 -81 40q-56 28 -73 45q9 14 23 33l6 62l7 -47q24 25 51 44l6 85l4 -78l5 3q12 25 12 26q9 15 21 19l-1 56l3 -55q12 3 26 13q-6 31 -5 49q-25 10 -38 27q-14 -4 -41 -13q-6 -19 -24 -39.5t-36 -27.5q-30 -37 -89 -112q-25 6 -31 10 q-25 16 -71 68q-13 15 -49 54h-10q-15 -22 -43 -65q0 -5 11 -21l6 28l1 -38q23 -21 51 -55l2 -1l-1 83l15 -87q6 -1 17 -18.5t25 -20.5q3 -3 5 -7q-13 -8 -40 -24q-5 -9 -7 -17q-12 -14 -55 -33q-46 -21 -61 -34q0 -18 10 -36l9 40l1 -58q5 -8 24.5 -21t24.5 -18l8 105 l2 -111q4 -2 16 -2q-1 39 41 60l5 96l7 -89h1l1 1q11 11 28 37.5t28 37.5l2 106l9 -95q2 3 11 9q14 -12 40 -20l-2 79l14 -83q22 -6 66 -25l5 66l7 -72q18 -2 24 -1q12 -5 36 -13l1 -1l8 57l4 -64q24 -18 36 -18q17 0 28 32z" />
<glyph unicode="Y" horiz-adv-x="508" d="M536 420q0 9 -11 30t-18 22q-8 -7 -24 -19q-5 -60 -4 -72q-4 -9 -14 -24q-4 -11 -10 -33q-15 -17 -48 -48q-19 -41 -32 -41q-24 0 -67 20q-15 7 -65 32q-15 5 -41 18q-7 5 -20 21q-9 3 -26 8q-6 20 -10 25t-23 18q-4 17 -17 43q-6 -1 -29 -26.5t-30 -36.5q7 -11 17 -32 q1 -6 3 -19l12 48v-77l27 -11q14 -6 18 -14q4 -1 13 -5l7 77l3 -82q30 -12 47 -25l15 3l4 -1l3 47l3 -49q10 -12 30 -35l1 52l13 -53q30 -15 56 -15q-54 -34 -71 -34l-7 3q-21 -19 -28.5 -22t-35.5 -3q-4 0 -77 -24q-11 7 -32 22l-36 -21q0 -8 -2.5 -22t-2.5 -21 q7 -18 23 -55q13 4 27 6l6 69l-1 -68q5 1 20 1q6 0 11 -1l2 81l3 -82q10 -4 24 -4q5 0 41 11v86l12 -82q15 4 33 12l33 16l2 62l8 -64h1q4 3 49 48q11 3 33 14l7 106l7 -92q9 9 26 27v41l9 -30q17 17 50 44l-2 91l10 -87h2l47 112q26 69 26 114z" />
<glyph unicode="Z" horiz-adv-x="565" d="M582 89q-8 35 -31 35q-10 0 -29 -2.5t-29 -2.5q-1 0 -37 9q-21 -7 -26 -7q-7 0 -24 8l-26 12q-31 -8 -93 -22q-4 0 -11.5 2.5t-11.5 2.5q8 0 -22 -5q-44 14 -48 21q15 11 44 33l6 68v-64q19 12 58 35l19 56v-2l-9 -50q11 3 22 7q4 1 16.5 17.5t18.5 17.5l5 37l3 -34 q5 1 15 4q8 10 23 30q2 1 5 2v96l7 -92q24 12 43 31l1 22l3 -18q10 17 30 27q-2 24 -16 64q-85 -13 -89 -13q-13 0 -39 1t-39 1q-7 0 -60 -16q-2 0 -7 2.5t-7 2.5q-5 0 -16 -4.5t-17 -4.5q-3 0 -25 12l-27 15q-2 -1 -13.5 -6.5t-13.5 -5.5q-3 0 -26 14q-9 0 -16 -41 q-6 -34 -6 -53q0 -6 25 -10l11 69v-71q20 -4 29 -4q-2 0 35 7l10 60l1 -58q10 3 31 7q6 -4 18 -11l8 4l2 38l8 -33q11 6 18 9q31 -2 23 -2q3 0 8 2l8 29l1 -27q14 4 41 9l4 -3q-30 -26 -84 -64q-6 -3 -31 -8l-54 -48q-34 -27 -62 -34q-15 -12 -45 -37q-16 -5 -46 -13 q-11 -31 -24 -92q21 -12 33 -18q5 5 16 15l4 73l7 -72q23 -3 43 -18l18 58l-3 -69q88 -11 93 -11h1l2 77l8 -75q10 2 13 2q4 0 12 -2t12 -2q7 0 22.5 3.5t24.5 2.5l21 9l7 76l2 -74q23 -9 29 -9t18.5 2.5t18.5 2.5l4 2l5 46l9 -40q22 9 65 28l8 42l3 -38q6 2 17 5 q0 9 21.5 14t25.5 9z" />
<glyph unicode="[" horiz-adv-x="352" d="M377 427q-2 12 -12 36q-12 29 -18 29q-2 0 -31 -15q-54 -28 -98 -86q-11 -14 -40 -26q-37 -15 -44 -19q-11 -7 -54.5 -53t-43.5 -53q0 -4 14 -29l18 -32l7 92l8 -110q7 -4 21 -14l2 49l10 -56q9 -3 48 -33l6 61l6 -71q32 -28 49 -56l9 95l6 -110q14 -10 36 -23 q16 24 30 44l2 56l7 -43q18 28 31 52q-5 5 -7 11q-63 9 -85 42q-33 13 -42 18q-18 10 -34 30q-19 24 -33 32v11q8 6 23 19l2 63l5 -58q24 19 70 58l2 40l2 -37q21 17 29 21q17 10 34 11l9 86l7 -76q16 15 49 44z" />
<glyph unicode="\" horiz-adv-x="268" d="M77 570q15 0 20 -51q6 -61 14 -74q2 -4 6 -11l85 -237q4 -7 11 -22q9 -30 28 -89q24 -74 34 -79q1 -4 1 -7l-1 -12l-40 -14l-4 87l-5 -91l-5 -2q-10 5 -23 43l1 82l-14 -48q-8 20 -32 77q-4 19 -13 55q-4 11 -8 24l-2 89l-6 -63q-24 74 -25 83l-4 64l-7 -27 q-11 36 -14 62q0 3 -3 74l-7 -60q-10 19 -25 49q-6 12 -15 75q36 23 53 23z" />
<glyph unicode="]" horiz-adv-x="352" d="M36 427q10 -10 26 -24l2 56l4 -62q10 -8 29 -23q9 -2 24 -6l-1 62l10 -65l9 -3l49 -42l3 34l7 -42q7 -5 21 -17l7 31l2 -38q18 -16 40 -32v-11q-13 -7 -33.5 -31.5t-36.5 -32.5q-8 -4 -39 -16q-23 -33 -85 -42q-2 -6 -7 -11q12 -25 21 -37l7 36l-1 -45q27 -42 43 -63l5 3 l14 105l-3 -98q10 7 31 22q1 4 4 7l9 83l-1 -70h1q8 15 47 48l8 48l5 -38q12 10 66 44l3 82l9 -74l3 2q5 10 22 39t17 34q0 4 -41 50q-21 24 -58 56q-6 3 -44 19q-29 12 -39 26q-39 53 -99 86q-27 15 -30 15q-7 0 -18 -27t-12 -38z" />
<glyph unicode="^" horiz-adv-x="327" d="M16 409l15 -15l8 27v-35l23 -21l5 98l2 -104l11 -10q1 14 39 97v95l9 -70q22 55 44 81h11l5 49l8 -56q16 -10 31 -68l6 58v-69q1 -39 14 -67q7 -9 17 -38l8 -8l12 98l9 -107q17 8 28 15v32l11 -25q6 6 6 10q0 24 -30.5 96.5t-30.5 90.5q-12 20 -38 60h-2q-5 0 -49 38 q-6 0 -34.5 -27t-34.5 -36q-11 -21 -40 -75q-18 -32 -63 -114z" />
<glyph unicode="_" horiz-adv-x="426" d="M382 47q0 23 -13 23q-17 0 -51.5 -6t-51.5 -6q-5 0 -14.5 4t-13 4t-63.5 8q-38 5 -63 5q-11 0 -47 -12q-16 7 -14 7q-4 0 -16 -5l-6 -57q7 -9 22 -10l8 3l6 43l-3 -44q10 4 26 4q-6 0 19 -1h20q17 0 18 -1l18 53l-2 -54q40 6 89 6q4 -1 22 -6l8 38v-40q6 1 15 -4h29l8 29 l-2 -28h1l1 1q14 2 39 2q11 27 11 44z" />
<glyph unicode="`" horiz-adv-x="169" d="M145 410l-1 -2v-3q0 -7 6 -23t6 -25q0 -20 -10 -20q-11 0 -38 27l-20 99l-3 -67q-13 21 -41 59q-11 9 -30 30q-1 2 -1 5q0 10 19 22.5t30 12.5q28 0 49 -36q3 -5 27 -59q3 -6 7 -20z" />
<glyph unicode="a" d="M482 -11q-14 45 -14 65q0 11 2 24q-2 6 -23 39q-16 25 -16 37q0 5 1.5 15t1.5 15q0 19 -21 24q1 26 3 40q-22 42 -38 62l-1 12q-1 10 4 24q-1 4 -16 31q-7 21 -21 54q-14 25 -14 34q0 6 5.5 19t5.5 19q0 11 -4.5 32t-4.5 32q-27 -3 -53 -5q-17 -4 -36.5 -28.5 t-19.5 -41.5q22 -28 22 -52q0 -16 -45.5 -93.5t-45.5 -95.5q0 -13 7 -21q-9 -4 -25 -19q6 -3 6 -8q0 -14 -21 -18q2 -6 2 -10q0 -15 -20 -39q-3 -13 -10 -40l-12 -6q-14 -27 -30 -61q-33 -44 -33 -58q0 -12 17 -24l7 40l3 -45h5q4 0 12 1l7 75l8 -75q15 0 26 41l3 2l5 74 l8 -68l16 6l6 52l4 -48l6 5q10 1 29 3v50l6 -49q16 1 30 3v28l6 -28q19 1 59 11l6 65l6 -61q7 -2 21 -4q5 2 16 5v50l5 -48l16 5q26 -5 21 -5l5 118l8 -114q12 5 14 5q12 0 26 -29l8 78l3 -100q4 -9 14 -19v43l9 -38q9 6 23 13zM196 271l7 -101l2 2q31 69 31 80v57l8 -33 q7 23 34 75q4 -16 16 -46l4 104l6 -148q8 -5 21 -16l4 52v-54q12 -9 12 -16q0 -5 -4.5 -16.5t-4.5 -16.5q0 -6 11 -61q-18 0 -60 -19t-58 -19q-3 0 -28 2q-15 1 -29 0q4 19 22 54z" />
<glyph unicode="b" horiz-adv-x="483" d="M495 149q0 5 -32 41q-22 13 -63 44q-12 11 -17 10q-13 -2 -10 -2q-15 0 -54 19q13 7 24 15l2 48l14 -38q10 5 24 24l-3 73l12 -63q7 9 26 25l-1 94l12 -86q1 3 16 13q12 8 12 18q0 9 -8.5 30t-8.5 31q0 11 11 64q-13 16 -125 16q-124 0 -164 -20q-2 2 -10 27 q-7 22 -17 22q-3 0 -9 -2t-9 -2q-4 0 -11 2t-11 2q-8 0 -15 -47q-3 -3 -25 -11q-18 -8 -22 -19q1 -9 1 -17q0 -33 -9 -68q17 -5 23 -5q2 0 7 2l6 52l2 -48l5 1q3 -1 6 -4q0 -30 6 -67q0 -4 -4.5 -16t-4.5 -17q10 -47 10 -81q0 -15 8 -45.5t8 -45.5v-40q0 -9 8.5 -29.5 t8.5 -29.5l6 77l8 -119l4 -2l4 67l10 -68q2 0 5 1q0 138 1 169h8l4 68v-68q6 0 16 -3q4 2 42 7l-1 64l12 -63q28 3 59 3l3 36l12 -39q24 -8 47 -28l10 39l1 -50q4 -5 12 -14q-21 -25 -80 -70q-4 -3 -34.5 -13.5t-30.5 -14.5q0 8 4 -17q-8 -12 -8 -14q0 -4 16 -26l6 49l5 -64 l18 -22l4 36l3 -45q7 2 25 17l9 3l5 101l8 -98q8 2 12 2l23 23l10 47l1 -36q15 19 26 26l2 97l6 -91q18 15 33 30l-2 98l9 -90q12 14 19 26l-1 40l9 -28q5 11 12 45q0 7 4.5 21.5t4.5 20.5zM319 400l-6 -24q-23 -10 -56 -34q-38 -27 -44 -44q-4 -12 -23 -24q-8 -5 -31 -19 v147q5 5 12 7l4 88l6 -88q-7 0 19 -1h19l4 38l5 -38q26 0 48 -2l8 41l2 -42q20 -1 33 -5z" />
<glyph unicode="c" horiz-adv-x="448" d="M146 279l16 103v-92q21 13 52 20l7 41l5 -39q9 2 21 -1l49 9l5 50l10 -47q39 8 53 5l8 34l-1 -35l11 -2q8 -24 9 -40q3 -5 8 -15q-4 -12 -11 -35q12 -36 16 -36q8 0 15 10l3 117l6 -100q23 59 28 164q0 9 6.5 27.5t6.5 20.5q0 31 -5 69q-7 56 -24 56h-4q-13 -17 -31 -23 q-5 -8 -7 -33t-9 -33q-5 0 -16 -1t-16 -1q-7 0 -20 2t-20 2q-22 0 -57 -28q-16 -2 -25 -2q-12 -7 -53 -14q-28 -5 -105 -63q-4 -12 -4 -23q-26 -52 -26 -64q0 -18 5 -77q6 -65 9 -70l5 99l3 -102q11 -3 23 -12l4 60l5 -74q5 -23 11 -53q5 -5 17 -13l6 80l4 -85h1l12 -21 l5 46l5 -54q5 -5 19 -16l7 92l2 -100q7 -5 22 -16l4 55l6 -62q16 -9 28 -11l3 36l3 -35q10 2 13 2q5 0 20 -3l11 82v-84q14 -3 32 -6l6 50l3 -49l24 12l9 39v-34q10 5 31 16q7 4 10 50q2 28 4 59q-7 7 -11 7q-13 0 -30 -18t-23 -18h-24q-65 0 -168 112q-4 19 -3 34 q-11 13 -33 38q0 23 19 41z" />
<glyph unicode="d" horiz-adv-x="557" d="M578 319q-20 38 -39 75q-26 40 -65 51q-25 7 -74 28q-31 2 -47 4q-9 8 -27 19q-27 -9 -24 -9q-8 0 -17 7q-12 8 -16 9q-13 -2 -11 -2q-10 0 -19.5 9t-15.5 9q-9 0 -30 -8t-30 -8q-5 0 -14 2t-14 2t-15.5 -3t-15.5 -3q-12 0 -38 11q-6 -1 -10 -3q-6 -15 -18 -44 q12 -22 28 -71q2 -13 11 -16l2 98l12 -93l32 12l2 35l2 -33l19 7q0 -18 6 -54.5t6 -54.5q0 -7 -8 -47q-2 -13 -3 -21q7 -9 18 -28q-2 -5 -11 -20.5t-9 -23.5q2 -11 11 -72q-60 -23 -60 -30q0 -9 8 -28q10 -24 11 -28l5 46v-54q12 -23 22 -23q14 7 30 11l8 113v-111l48 6 l3 55l2 -54h9q6 1 9 1l13 8l6 47l4 -40q19 12 27 20l8 3l5 95l2 -93q11 5 35 13l2 39l4 -37q2 1 11 4q5 2 17 25.5t19 22.5l2 56l3 -54q6 1 18 4q13 13 20 24l3 36l3 -28l15 37q7 19 23 27l3 81l3 -76q13 12 24 27l2 81l6 -68q18 35 17 72q17 -4 27 -4q0 5 5 10zM484 327 q0 -19 -15 -37q-2 -3 -29 -30q-13 -19 -39 -55q-24 -8 -38 -8q-1 -1 -12 -14q-6 -9 -15 -9q-4 0 -11 1q-23 -10 -69 -25q-6 -11 -11 -21q-8 -12 -19 -12q-4 0 -11.5 1.5t-11.5 1.5q25 65 25 105q0 12 -3 35.5t-3 35.5q0 -4 -4 23v40q0 6 -4 19t-4 19q0 17 20 17 q3 0 8.5 -2.5t8.5 -2.5l2 61l9 -59q30 -6 27 -6q4 0 13.5 5.5t13.5 5.5q5 0 35 -15l6 43l3 -49q16 -8 48 -25v60l16 -62l5 1q13 0 28 -17l6 33l6 -40q9 -6 14 -6q5 -8 5 -12z" />
<glyph unicode="e" horiz-adv-x="562" d="M600 3v13q-11 12 -16 34q-4 18 -7 37q-8 25 -31 59l-28 -7q-3 -11 -46.5 -38t-56.5 -27q5 0 -26 7q-23 -17 -38 -13q-28 -7 -31 -7t-42 11q-10 -3 -29 -9q-10 6 -31 18q-28 -7 -29 -7q-16 0 -30 18l-18 32q23 12 35 19l2 59l6 -56q15 6 45 19l2 58l10 -53q39 14 41 15 q23 9 38 21l14 97l1 -92q23 4 69 14l2 57l10 -54q6 1 19 3q4 3 7 22q2 15 12 14q6 4 6 9q-12 30 -12 44q-35 6 -85 7q-8 5 -20 11q-2 0 -7 -2.5t-7 -2.5q-51 0 -95 25q-12 15 -16 28q-8 5 -20 16q6 -1 61 11l4 52l10 -49l38 9q6 -2 13 -2l8 24l3 -22q21 6 25 6q10 0 34 -6 l5 70l5 -70q23 0 56 11l3 48l11 -47q11 -3 41 -16q1 8 9 33q7 20 7 35q-9 5 -25 17q-17 6 -36 6q-11 0 -35.5 -4t-37.5 -3q-2 0 -7 1t-7 1q-5 0 -18.5 -5.5t-18.5 -5.5q-4 0 -11 1t-11 1q-7 0 -21.5 -3t-21.5 -3q-8 0 -25 1t-25 1q-13 0 -44 -16t-49 -17q-6 -5 -19 -14 q-29 5 -22 5q-4 0 -14 -5q-1 -17 -9 -49q-5 -10 -5 -12q0 -9 26 -44l9 83l6 -102q8 -10 20 -32q7 -2 20 -6l4 49l11 -52q35 -12 56 -33q0 -9 -62 -30q-4 -2 -24 -17l-39 -6q-3 -40 -46 -38q-12 -33 -12 -42q0 -5 4.5 -17.5t4.5 -18.5q0 -5 -1.5 -13.5t-1.5 -13.5q0 -3 1 -7 q6 -7 14 -11l8 98v-101h3q9 -13 29 -38l5 86l4 -89q17 -7 26 -8l13 -8l5 70l6 -77q21 -15 34 -17l10 91l4 -90q4 1 12 1q12 0 24 -6l2 39l4 -42l8 -5q8 2 25 7l16 84l-2 -80q23 0 28 -1q8 2 12 2l5 68l4 -66q48 9 74 12l5 80l8 -78q9 1 26 4q9 3 28 9l7 54l5 -50q15 4 21 4 q-7 0 22 -6q3 2 8 5l5 92l6 -84q12 7 20 10q4 0 10.5 -1t10.5 -1z" />
<glyph unicode="f" horiz-adv-x="516" d="M553 399q-18 15 -53 44q-28 22 -66 22q-3 0 -15 -4l-16 -5q-7 8 -25 20q-6 -4 -19 -9q-6 1 -54 18q-32 11 -56 11q-4 0 -13 -2t-13 -2t-15 3t-15 3q-13 -2 -11 -2q-4 0 -8 14.5t-11 14.5q-13 0 -23.5 -15t-10.5 -29q0 -5 2 -8q-64 -28 -83 -27q-6 -5 -6 -15q0 -3 6.5 -17 t6.5 -23q0 -7 -3 -22t-3 -22q0 -11 3 -18q7 -2 10 -2q4 0 17 5l8 101l3 -97l6 2l7 -2q11 7 36 22q8 -13 8 -21q0 -7 -4 -27q-3 -16 -1 -32q-2 -4 -6 -13q4 -14 11 -41q-6 -13 -49.5 -31t-43.5 -24q15 -37 32 -65l4 -2l6 68l-1 -69q4 0 13 -1t13 -1l7 47l2 -47q7 2 20 4 q1 0 4 -3v-15q0 -16 -9 -50.5t-9 -51.5q0 -19 9 -28l12 90l-1 -94h11q4 0 21 5l3 91l4 -89q39 13 39 20q-8 13 -22 41q2 7 11 34q-11 53 -11 61q0 14 29 14l3 68l3 -69q13 -4 39 -10l6 39l4 -37q10 4 30 11q3 -1 16 -6l1 64l8 -67h3q12 3 35 11q3 -2 9 -3v39l12 -41 q5 -1 10 -1q6 0 16 5t10 10q-1 3 -3.5 25.5t-7.5 66.5q-4 0 -11 2t-11 2q-8 0 -23 -4q-21 -6 -24 -7q-6 3 -17 7q-15 -6 -46 -16q-9 2 -26 5q-7 -3 -21 -8q-11 8 -36 19q-8 12 -8 27q0 6 4 43q1 8 -2.5 21.5t-3.5 19.5q0 23 1 27q11 -1 34 -4l8 43l4 -44h12q7 0 22.5 -4.5 t23.5 -4.5q-4 0 7 1l5 -2l5 83v-85q15 -9 66 -15q3 -2 13 -4l8 53l9 -58q15 -4 46 -11q5 -8 15 -19l10 62l2 -73q6 -3 11 -3q9 0 21 18.5t14 28.5v34q0 18 6 32z" />
<glyph unicode="g" horiz-adv-x="541" d="M562 523q0 4 -7 11q-11 0 -33 3.5t-33 3.5q-18 0 -18 -65q-4 -2 -29 -11q-9 -3 -28 -2q-33 2 -28 2q-9 0 -26 -2t-26 -2q-6 0 -16 2q-13 4 -17 4q-11 -5 -32 -13q-23 -2 -65 -10q-40 -13 -105 -53q0 -13 -2 -38q-10 -15 -23 -28q-5 -14 -14 -41q-6 -8 -15 -25v-3 q0 -29 -23 -83q0 -23 17 -74l8 69l6 -115q11 -13 24 -19v56l7 -60q20 -8 32 -14l4 50l3 -52h23q5 0 11 -7l7 97l6 -115q9 -14 19 -14q2 0 7.5 3t9.5 1l2 43l5 -46q12 -7 26 -14q7 4 20 6l4 101l9 -99q5 1 23 1q2 0 7 -3q2 -1 25 -5l7 82l3 -83q23 2 46 22l2 61l10 -54 q17 2 33 4q21 2 31 9l1 121l9 -114q19 15 40 45l-2 84l15 -65q9 16 9 27q0 50 -14 65q-31 34 -63 47q-21 9 -77 20q-8 1 -47 15q-32 11 -43 9q-53 11 -68 11q-29 0 -47 -21q11 -35 14 -66q10 -1 18 -4v71l16 -76q4 0 12 1t12 1q4 -1 17 -5l12 40l-4 -42q3 -1 9 -1q5 0 12 1 q11 -4 29 -11l2 67l11 -73q17 -7 19 -7h9q6 1 9 1l5 44l6 -43q28 -2 28 -22q0 -29 -68 -29q-7 0 -22.5 6.5t-21.5 6.5q-2 0 -6.5 -2.5t-6.5 -2.5q-92 0 -158 87q-5 7 -5 40q0 24 22 47l7 109l4 -99q22 22 58 38l9 50l10 -43q12 4 53 4l10 2l5 66l5 -62q13 5 17 5q10 0 51 -9 l12 106l5 -107q3 0 6 -1h5q6 0 18.5 1.5t18.5 1.5l5 44l9 -42q15 6 17 6q16 0 16 -24q0 -8 -2.5 -23.5t-2.5 -23.5q9 -27 9 -49q2 -2 8 -3l10 106l7 -100q6 5 9 22q4 21 15 76t11 72q0 6 -4.5 18t-4.5 14q3 15 13 54z" />
<glyph unicode="h" horiz-adv-x="511" d="M518 186q0 98 -25 98q-5 0 -13.5 -2t-13.5 -2q-9 0 -20 4v22q0 3 5 15.5t6 16.5q-12 39 -12 95q0 3 1.5 9t1.5 9v0q-7 14 -22 41q-36 -10 -46 -16q-23 -13 -23 -38q0 -12 8 -34t8 -26q0 -39 -3 -50q-1 -3 -6 -12t-5 -12q0 -5 4 -15t4 -15q0 -8 -7 -12q-18 1 -54 2 q-10 5 -29 11q-65 -20 -76 -20q-55 0 -55 105q0 12 1.5 35.5t1.5 35.5q0 26 -14 36q-19 -10 -30 -10q-9 -5 -19 -19t-10 -23q0 -3 4 -8.5t4 -7.5q8 -63 8 -55q0 -6 -2 -18t-2 -18q0 -25 11 -58q-8 1 -44 1q-8 2 -23 6q-5 -1 -9 -4q0 -4 -1.5 -11.5t-1.5 -11.5t4 -11.5 t4 -11.5q1 -18 4.5 -56t21.5 -39l5 87l6 -86q11 2 32 7l2 48l10 -46l10 2q33 -65 33 -133q2 1 19 5l7 68l6 -66q7 1 13 2q8 46 8 51q0 6 -4.5 18t-4.5 18q0 18 4 23.5t21 8.5l2 37l11 -35q15 2 42 7v80l7 -79l31 4l3 29l8 -27q20 2 35 2l7 67l6 -68q13 -1 18 -5 q-3 -11 -3 -20q0 -7 4.5 -19.5t4.5 -13.5q0 -13 -3.5 -38t-3.5 -38q0 -6 1 -11q5 0 13 -2l2 72l3 -73q15 -6 23 -6q4 0 9 1v97l15 -95q15 3 24 9q-16 84 -16 110q0 10 2.5 29.5t2.5 28.5q6 3 16 7l2 67l6 -64q25 8 25 14z" />
<glyph unicode="i" horiz-adv-x="217" d="M223 381q-4 15 -22 22q-18 3 -32 7q-6 2 -23 10q-13 7 -26 7q-31 0 -73 -12v-27q0 -15 18 -64t18 -77q0 -45 7 -65q2 -4 9.5 -20.5t7.5 -24.5q0 -23 -11 -70t-11 -70q0 8 6 -31q0 -3 3 -5l9 79v-86q20 -17 27 -17l3 140l16 -118q7 10 17 30q19 55 19 100q0 15 -9 42z" />
<glyph unicode="j" horiz-adv-x="509" d="M540 378l-10 48q-17 10 -51 28q-6 -3 -19 -7q-22 7 -26 7q-8 0 -23 -3.5t-23 -3.5q-17 0 -49 10t-49 10q7 0 -20 -4l-53 14q-29 7 -59 8h-29q-19 2 -25 10q-22 2 -29 2q-5 0 -10 -1q-7 -13 -7 -30q0 -8 3 -22.5t3 -22.5q0 -9 -1.5 -25.5t-1.5 -25.5q0 -6 12.5 -17.5 t19.5 -14.5l2 114l10 -113q23 23 27 23q3 0 12 -3l8 50l12 -57q4 -1 7 -1q12 0 35 7t35 7l1 74l5 -74q16 -1 49 -8l9 68l6 -72l30 -8q7 -12 10 -69q7 -28 7 -29q0 -8 1.5 -24.5t1.5 -24.5v-91q-15 -30 -39 -30l-8 -3q-20 17 -50 40q-25 14 -34 27q-4 5 -7 18q-16 -2 -27 -2 q-9 0 -39.5 26.5t-37.5 37.5t-14 29q-7 5 -15 5q-4 0 -18.5 -14.5t-15.5 -19.5q-16 -87 -36 -136q0 -4 3 -10q10 2 17 2q5 0 13 -2l13 84v-88q13 -7 47 -47l6 79l8 -89q20 0 31 -11l6 42l7 -55q7 -4 30 -7q10 -6 25 -17l8 106v-112q21 -25 49 -25l6 57l3 -57q10 -1 28 -5 q12 0 34 4l4 116l9 -113l10 3q11 39 37 49q2 3 7 8l2 50l4 -44q13 14 19 23q-2 4 -10 16q-5 7 -5 18q0 4 7 18t7 18q0 8 -3 25t-3 25q0 5 3 8h4q0 131 -18 184h9q6 -1 9 -1q5 0 10 1l4 69l10 -68q12 1 18 1h7q3 -2 9 -3l8 46l3 -50q4 -2 6 -2q19 0 19 47z" />
<glyph unicode="k" horiz-adv-x="521" d="M529 83q0 11 -1.5 34t-1.5 34q0 4 -6 12q-5 39 -20 47q0 5 3 14.5t3 14.5q0 9 -11.5 14t-75.5 47q-3 2 -11.5 14.5t-13.5 12.5t-33 -7q-6 4 -20 11q-27 -7 -20 -7q-13 0 -38 13l23 16l-1 75l9 -69q17 11 51 35l4 45l13 -35q15 9 46 28q3 7 3 10q0 12 -9 40q-10 32 -18 32 q-56 -41 -75 -41q-38 -33 -56 -33q-4 0 -13 3.5t-13 3.5q-8 0 -17.5 -20t-13 -21.5t-42.5 -12.5q-25 -7 -38 -19q-7 35 -7 128q0 -2 -13 25h-12q-11 0 -36.5 -20t-25.5 -30q0 -14 7 -42.5t7 -42.5q0 -19 -5 -39q-6 -5 -20 -11q0 6 -2 -24q3 -11 9 -35q0 -10 -4 -29 q-1 11 -1 -60q0 -12 11 -12h9q6 1 9 1l5 86l4 -87q20 -16 31 -157l10 70l-3 -118q0 -8 7 -16t15 -8l4 1l-2 80l10 -73q9 29 9 88q0 7 13 75q-9 40 -9 48q0 17 24 20l3 105l4 -104q2 0 44 -14q7 2 14 7v58l12 -50q3 2 6 3l8 -2q7 3 21 7q14 -5 21 -10l8 84l4 -92q7 -6 19 -15 q8 -2 25 -6l7 -10l7 65v-76q6 -13 32 -32l13 47l-4 -54q14 -13 18.5 -31.5t8.5 -22.5l11 95l-3 -103q9 -10 13 -17q6 -45 19 -70l4 117l9 -129h5q17 34 18 50v64q0 5 1 13.5t1 13.5z" />
<glyph unicode="l" horiz-adv-x="452" d="M484 120q0 66 -38 66q-19 0 -198 -54q-10 -4 -29 -11q-12 5 -37 16q-10 -8 -31 -19q-2 28 -2 44q0 7 -2 21.5t-2 21.5v72q0 9 7.5 29.5t7.5 30.5q0 11 -2.5 32t-2.5 32q0 -5 12 42q-2 16 -5 48q-6 10 -10 10q-15 0 -59 -17.5t-44 -28.5q0 -3 22 -60q-1 -2 -6 -12.5 t-5 -12.5q0 -4 6 -16.5t7 -16.5q13 -83 23 -245q-38 -12 -47 -26.5t-9 -56.5q0 -4 3 -9t3 -8q1 -28 2 -32q3 -23 11 -26l7 100l1 -100q11 7 33 19q33 -9 29 -9l2 58l5 -56q6 3 25 27q16 20 33 20q5 0 10 -1v99l5 -100q8 -3 11 -3q9 0 21 8.5t16 9.5l3 50l2 -47q5 3 11 5 l12 -2q11 0 34 12l10 96l3 -88q9 5 28 16l8 -3q2 1 11 8l11 54l5 -44q8 5 16 5q1 0 10.5 -4t11.5 -4l6 60l11 -63q8 20 27 51q7 8 7 12z" />
<glyph unicode="m" horiz-adv-x="613" d="M645 92v11q-36 25 -45 36q-15 19 -22 55q0 17 -3 47q-1 8 -22.5 33t-23.5 32q-3 17 -19 96q-6 32 -33 87q-7 14 -20 41q-4 18 -18 42l-54 -12q-32 -63 -32 -99q0 -8 1 -17q-30 -77 -54 -109l-4 -22q-3 -14 -9 -20q-21 19 -45 76q-22 51 -52 69q-6 18 -6 28q-1 3 -4 14 q-16 15 -51 43q-13 0 -28.5 -29.5t-15.5 -44.5q18 -33 18 -45q-4 -13 -5 -22q-6 -26 -8 -68q-4 -73 -13 -120q-6 -30 -6 -67q0 -21 -42 -97q2 -5 24 -29v-1l8 45l2 -67q0 -12 26 -29l4 104l9 -113q14 -10 23 -10q3 0 9 3q0 16 3 47t3 47v19q-1 25 -1 18q0 5 2.5 13.5 t2.5 13.5q0 8 -3.5 25t-3.5 25q0 10 7 27l2 108l6 -86q3 11 8 47q5 33 11 38q4 -5 12 -16l8 97l-2 -109q12 -18 24 -48l2 96l5 -110q10 -23 10 -35q0 2 -11 -64q3 -11 14 -33q4 -8 4 -43l15 -9l3 106l6 -110q6 -3 18 -8l5 49l8 -53q5 -1 15 -5q12 69 12 73v76q0 4 -3 12 t-3 12q0 6 15 36l6 104l10 -58q6 21 21 63l1 72l4 -54q5 15 9 30q7 19 15 25q4 -16 8 -28l7 23l-1 -43q0 7 8 -29q5 -38 16 -87l15 122l-1 -148q10 -16 20 -34q0 -3 -2 -8.5t-2 -7.5q0 -19 3.5 -58t3.5 -58q0 -4 5 -11l12 142v-155q4 -3 8 -5q14 9 42 23v90l9 -87q2 0 6 -1 t6 -1q13 0 21 4l6 89l12 -69q14 29 18 35q11 16 31 23z" />
<glyph unicode="n" horiz-adv-x="520" d="M499 143q0 7 2 21t2 21q0 16 -7 44q-10 40 -10 43v36q0 7 -3 20.5t-3 20.5q0 21 12 65t12 61q0 15 -10 15q-15 0 -48.5 -12t-50.5 -21q27 -53 27 -88q0 -10 -8 -25t-8 -17q0 -19 30 -79q-1 -15 -1 -47q0 -6 3.5 -18t3.5 -18q0 -3 -1 -6q-20 16 -54 46l-2 1q-10 10 -37 35 q-32 23 -82 38q-14 4 -29.5 21.5t-25.5 21t-22 7.5q-8 6 -29 21q-19 12 -41 27q-9 9 -26 43q-64 -31 -64 -49q0 -3 2.5 -9t2.5 -9q0 -4 -1 -11.5t-1 -11.5v-3q21 -15 24 -29q2 -6 2 -41q0 -8 -5 -26.5t-4 -28.5l9 -102q0 -5 -1.5 -15.5t-1.5 -15.5q0 -11 -5 -32.5t-5 -32.5 q0 -3 15 -10l19 97l-3 -103q8 -4 12 -4q6 0 16 5l3 64l8 -59q21 14 34 16q-22 62 -22 134q0 7 6 69q5 -3 16 -8l2 72l5 -75q6 -3 19 -8q9 -6 26 -19l3 51l6 -57q17 -12 50 -37l5 43l8 -51q4 -3 9 -5q6 1 19 2q7 -3 14 -9l2 100l9 -111q16 -17 50 -44l7 73l7 -78 q29 -33 49 -55l8 125l5 -139q16 -16 28 -26l3 61l7 -70q5 -3 16 -9q9 30 23 61z" />
<glyph unicode="o" horiz-adv-x="549" d="M567 266q0 52 -25 64q-5 1 -36 6q-152 107 -170 107q-22 0 -67 -14q-48 -15 -68.5 -17t-25.5 -8l-10 -20q-27 -18 -48 -29q-5 -10 -13 -31q-40 -19 -42 -20q-19 -13 -22 -38q-4 -30 -4 -40q0 -3 4 -10t4 -9q3 -15 3 -47q0 -7 8 -39l8 132l5 -156q9 -2 26 -9l9 69l7 -84 q13 -9 35 -28l12 38l1 -48q11 -7 35 -18l7 106l5 -106l5 2q17 -9 46 -22l10 69l2 -73q10 -2 17 -2q13 0 32 8l2 100l7 -97q12 7 35 23q7 0 21 -2t21 -2l3 82l11 -78q32 13 64 44l2 62l8 -51q16 21 20 44l6 9l3 103l5 -92q31 41 36 54q6 17 6 68zM486 228q0 -20 -48 -52 q-60 -40 -66 -48q-7 0 -61 20q-16 -8 -42 -24q-16 0 -63 41q-7 2 -18 4q-54 41 -54 76q0 27 33 47v72l4 -70q14 10 101 34l1 81l8 -88q4 -6 9 -6t14.5 2.5t14.5 2.5q24 0 44 -14l7 47l1 -52q23 -7 57 -26l3 51l12 -72q7 -10 14 -11q-5 1 17 1q12 0 12 -16z" />
<glyph unicode="p" horiz-adv-x="469" d="M486 322q0 9 -2.5 27.5t-2.5 27.5q0 4 1.5 12.5t1.5 12.5q0 23 -26.5 44t-50.5 21q-6 0 -20.5 -6.5t-20.5 -6.5q-3 0 -8.5 1t-8.5 1q-5 0 -19 -5t-18 -6q-2 0 -7 2t-7 2q-7 0 -21.5 -4t-21.5 -4q-5 0 -9 1q-16 -9 -49 -24q-10 0 -17 27q-9 38 -13 44q-15 -1 -43 -17.5 t-28 -29.5q0 -8 6.5 -23.5t6.5 -22.5q0 -4 -1 -7q-83 0 -95 -21q21 -50 21 -106q6 -4 10 -4q5 2 12 4l5 67l4 -65l15 4l2 35l6 -33l13 3l2 -46q-3 -8 -3 -20q0 -11 18 -102q-1 5 -1 -56q0 -30 9 -50l7 107l1 -125q11 -22 24 -22l4 76l17 -70q4 2 11 6l-9 102q0 11 9.5 20 t20.5 9l7 54l8 -51q5 1 19 1l8 3l5 75l2 -71q22 10 42 16l-2 47l7 -45q11 3 34 8l10 94l2 -89q7 4 21 10q9 1 27 4l4 4l7 75l5 -63q13 14 38 43l-1 107l10 -92q22 55 22 90zM399 296q0 -37 -156 -92l-10 2q-38 -13 -43 -13q-5 15 -5 22q0 10 5.5 28.5t5.5 28.5l-13 26 q0 12 17 15l4 86l9 -87q3 -1 6 -1q9 0 48 13l4 66l10 -62q20 8 22 8q5 -1 26 -9v101l13 -106h4q4 0 11.5 2.5t11.5 2.5q5 0 14 -7l5 34l1 -40q10 -10 10 -18z" />
<glyph unicode="q" horiz-adv-x="535" d="M553 282q0 25 -30 54l-47 46q-27 -29 -27 -50l7 -14q4 -6 4 -16t-19 -29q-9 -9 -9 -50q-29 -32 -42 -50q-4 -3 -27 -10q-15 -5 -25 -2q-8 -4 -24 -11q-13 35 -33 107q-23 0 -53.5 -18t-35.5 -39q13 -28 14 -46q-12 2 -36 7q-9 3 -30.5 32t-21.5 38q0 11 5 31.5t5 31.5 q8 14 39 25l5 74l3 -71q25 9 41 12l12 44l3 -42q-6 0 26 -7l36 18q3 -3 8 -5l2 78l4 -82q28 -16 50 -16l7 72l7 -66q3 -3 6 -4q38 40 38 67q0 24 -10 31q-10 1 -34 12t-27 11q-2 0 -6.5 -1t-6.5 -1q-7 0 -20.5 3t-20.5 3q-12 0 -51.5 -16.5t-47.5 -14.5l-9 2q-67 0 -99 -29 q-27 -25 -49 -93q-12 -37 -12 -46q0 -72 24 -114l1 -12l9 79v-106q3 -5 14 -4q23 2 15 2q20 0 22 -13q3 -16 8 -18l2 85l5 -87q18 -6 33 -21l5 48l8 -57h6l8 3q11 -2 27 -6q1 -1 2 -1l5 100l5 -102q8 -2 54 -5l1 68l8 -68q32 0 47 -7l-1 58l9 -64q14 -11 42 -32l5 41l3 -47 q15 -13 40 -29l4 41l7 -52q8 -7 21 -23l18 -6l2 46l4 -48q15 -3 23 -6q4 6 10 30.5t6 32.5q0 10 -17 19l-25 10q-13 6 -36 28t-31 36q12 4 24 10l4 80l7 -73q19 11 41 33v112l11 -98q7 9 29 82t22 85z" />
<glyph unicode="r" horiz-adv-x="483" d="M370 231l4 91l7 -88q10 7 31 26l2 69l15 -55q9 6 17 6q5 20 5 34q0 3 7.5 23t7.5 30q0 59 -48 75q-21 7 -97 7q-13 0 -38.5 -5.5t-38.5 -5.5q-5 0 -15.5 4.5t-15.5 4.5q-9 0 -37 -25v2q0 8 -7 32.5t-11 24.5q-9 0 -64 -46q1 -8 1 -14v-10q-19 -11 -49 -21q-2 -3 -5 -6 l-3 -42v-56q0 -13 13 -13q5 0 14 10l4 63l10 -45q8 8 15 8v-39q0 -6 -6 -18q-2 -30 -2 -44q-21 -21 -21 -38v-17q16 -8 28 -16q3 -11 3 -32q0 -14 -9 -90q7 -5 23 -12l10 109v-112q12 -5 28 -8l1 46l5 -47q9 0 12 5q-3 18 -3 32q0 79 10 89q6 0 17 -2l6 71l6 -72 q10 -1 31 -5q0 -1 1 -1l2 40l3 -42q14 -7 41 -15l12 122l1 -125q11 -2 35 -5l4 47l12 -50q18 -7 29.5 -20t17.5 -16l5 102l5 -106q6 -2 10 -2l27 -36v93l13 -108l5 -1q9 0 12 5q2 19 1 28l33 82q0 7 -26 44q-7 9 -18 11q-16 2 -19 4q-50 24 -102 63q17 3 33 8zM332 329 q-52 -32 -83 -45q-14 -14 -38 -30q-28 -19 -41 -19q-4 2 -4 26t4 72q14 0 30 4l2 80l4 -79h3q9 0 26 2.5t26 2.5l8 37l4 -35q10 2 13 2q7 -1 44 -5q1 -4 2 -13z" />
<glyph unicode="s" horiz-adv-x="511" d="M542 433q0 9 -6.5 24t-13.5 15q-3 0 -7.5 -1.5t-7.5 -1.5t-16.5 6.5t-17.5 7.5q-17 -9 -50 -22q-12 -1 -41 -6q-11 -2 -80 -22q-58 -16 -76 -16q-4 -3 -8 -16.5t-8 -15.5q-64 -28 -92 -30q-10 -11 -31 -33q-16 -9 -42 -32q-34 -47 -34 -60q0 -4 11 -16q1 -3 1 -6 q0 -6 -1.5 -16.5t-1.5 -16.5q0 4 8 -53l15 -9l8 92l-1 -96q32 -19 59 -19l19 43v-43q10 2 11 2q7 -1 35 -6l9 89l4 -91q8 -1 50 -1q14 0 37 -19q-8 -6 -21 -20q-48 -19 -73 -19q-6 0 -18.5 3.5t-18.5 3.5q-9 0 -28 -9.5t-19 -16.5q7 -10 30 -32l9 37l2 -45l4 -2q28 9 31 9 l28 -10l5 43l5 -46q21 -7 46 -7q4 0 13 3l4 78l4 -75q12 3 35 9q8 0 23 2l10 107v-107l7 -1q9 5 26 17l4 46l7 -38q8 2 25 6q1 7 9 28.5t8 24.5q0 27 -35 56q-27 23 -60 38q-15 7 -44 11q-21 13 -41 27q-28 16 -46 12q-9 -2 -6 -2q-15 0 -54 15q4 15 17 40l3 1l7 92l3 -88 q24 10 41 12l6 6l-1 64l9 -56q8 8 17 20q10 2 30 9l2 89l11 -82q8 6 26 16l9 -4q4 0 34 15l2 49l4 -46q10 6 21 6q5 0 9 -1q-2 -16 -14.5 -65.5t-12.5 -60.5q0 -24 18 -24q4 0 12 5l1 104l9 -97q24 18 29 37q8 33 14 43v67l5 -59q12 18 36 45l2 70l6 -60q22 29 27 49 q6 9 15 27z" />
<glyph unicode="t" horiz-adv-x="498" d="M533 410q-4 34 -12 75q-3 -3 -43 -3q-8 0 -51 -16.5t-62 -16.5q7 0 -18 5q-3 -1 -11 -5t-14 -4q-21 2 -17 2q-69 0 -99 -38q-7 5 -21 16q-4 0 -17 -11q-17 6 -20 6q-60 0 -85 -12q-1 -19 -8 -28q-3 -4 -21 -21q-2 -13 -16 -67q7 -3 12 -3q9 0 32 6l4 69l8 -64q15 6 44 17 h3l2 69l4 -69h13q-6 0 48 11l4 46l4 -44q16 3 24 3q3 -1 5 -3q-13 -19 -25 -86q-12 -71 -25 -95q2 -4 2 -7q0 -16 -10.5 -48t-10.5 -47q0 -13 8 -19q2 -1 19 -8l9 113l3 -117q9 -4 28 -10l5 85l6 -89q6 -1 17 -4l1 74l9 -77q19 -6 31 -13q6 0 9 3q-27 76 -27 81v91 q0 4 16 75q13 57 12 93q2 3 21 26q3 2 8 4l3 52l8 -49q21 4 60 6v43l8 -43q17 2 31 2t23 -2l6 87l3 -90q9 -3 23 -10q4 0 10 3q2 40 27 56z" />
<glyph unicode="u" horiz-adv-x="504" d="M507 306q-6 19 -14 66q-7 43 -16 66h-12q-37 -28 -37 -38t7 -30t7 -30q0 -22 -6 -57q-7 -42 -16 -51q-2 -14 -18 -38q-33 -50 -88 -50q-11 0 -33 1t-33 1q-5 0 -35.5 21.5t-33.5 26.5q-14 26 -14 38q0 28 19 60l7 94l4 -76q14 20 27 35l9 85l5 -71q10 9 31 26q1 4 1 8 q-3 7 -3 11q0 1 1 4l4 3q0 21 -7 28q-4 4 -27 13t-30 9q-4 0 -12 -3.5t-12 -3.5q3 0 -30 2l-9 -3q-15 -25 -17 -31q-9 -16 -11 -33q-6 -6 -18 -17q1 -1 1 -3q0 -6 -12.5 -25.5t-9.5 -33.5q-36 -78 -36 -87v-56q0 -16 13 -42l10 117v-133q14 -14 23 -18l12 -21l3 103l5 -116 q2 -4 8 -13q25 -16 38 -21l4 67l4 -73q4 -3 6 -6q16 -7 48 -18l4 60l4 -62h1q5 0 17.5 8t25.5 8q6 0 14 -1l5 109l3 -110h5q43 0 71 17l5 65l3 -60q18 12 38 24q-2 10 -2 17q0 5 23 33l2 83l7 -73q11 9 32 29l-1 117l9 -111l1 1q1 4 25 96q-2 5 1 63z" />
<glyph unicode="v" horiz-adv-x="509" d="M523 417q0 37 -4 56v1q0 2 -2 3q-26 -6 -77 -19q1 -12 1 -23q0 -108 -7 -143q-2 -11 -15 -29.5t-16 -28.5q-3 -21 -15 -51q-6 -6 -45 -32q-32 -21 -36 -30q-58 58 -113 83q-28 31 -68 94q-14 20 -14 46q0 8 2.5 24t2.5 24q0 5 -9 10q-24 -4 -49 -40q-3 -5 -10 -25 q-5 -15 -19 -22q0 -7 -1.5 -21.5t-1.5 -21.5q0 -19 25 -61l3 98l6 -113q5 -21 18 -47q10 -6 31 -19l4 62l3 -66l5 -2q10 -14 34 -42l4 35l3 -41q22 -18 40 -32l2 83l5 -88h1q18 -64 26 -64q-2 0 48 20l5 106l4 -103q22 14 29 24q9 5 16 11l4 49l3 -41l29 40q15 20 34 30v72 l8 -66l6 3q30 38 36 58q0 12 8 33l6 103l4 -87l1 2q14 13 23 18q9 16 10 35l-1 -1q0 3 -1 7v26q0 11 6.5 32t6.5 31q1 29 1 40z" />
<glyph unicode="w" horiz-adv-x="612" d="M620 292q0 4 -17 29q0 31 -1 54l-4 82q-9 50 -42 64q-24 -6 -47 -27q0 -26 11 -76t11 -76q0 -11 -5.5 -31.5t-5.5 -31.5q0 -8 5.5 -20t5.5 -14q0 -7 -4.5 -20t-4.5 -20t2 -15q-11 -54 -13 -59q-12 -43 -31 -43q-11 0 -42 48q-2 14 -7 36q-26 6 -31 9q-10 6 -15 27l-21 18 q-14 36 -14 53q0 6 4.5 18t4.5 17q0 12 -21 21q-17 7 -32 7q-17 0 -69 -44q-4 -23 -12 -37l-12 -6q-4 -25 -22 -56q-22 -38 -40 -38q-4 0 -4 2q-13 64 -13 88q0 10 1.5 30.5t1.5 30.5q0 -7 -8 18q6 9 10 20q8 21 15 112q-7 3 -10 3q-8 0 -21 -20q-36 -13 -60 -17 q-8 -11 -8 -56q-3 -8 -8 -21q3 -22 11 -43q-6 -14 -18 -43q25 -68 25 -139q0 -16 -29 -89q10 -6 17 -15l8 44v-57l15 -27q23 5 42 18l12 130v-123q20 16 55 55l4 71l8 -57q37 44 65 70l7 133l5 -123q7 7 13 10q8 -15 20 -44q12 -9 21 -15l4 100l2 -104q6 -3 18 -8 q8 -26 10 -45q6 -8 19 -24l5 96l3 -105l5 -4q6 -10 31 -28l13 55l-3 -63q9 -3 26 -17.5t28 -17.5l13 108l3 -97q17 26 56 73v136l10 -104q2 4 6 11q2 13 -1 26q5 8 14 23q15 38 15 60q0 6 -2 18t-2 18q0 13 9.5 40t9.5 38z" />
<glyph unicode="x" horiz-adv-x="482" d="M511 98q-15 8 -36 49q-41 20 -81 40q-56 28 -73 45q15 23 29 41l3 91l4 -85q8 9 34 32l2 59l8 -52q4 3 22 16q5 14 19 36l1 61l7 -54q16 4 34 16q-6 31 -5 49q-25 10 -38 27q-14 -4 -41 -13q-6 -19 -24 -39.5t-36 -27.5q-30 -37 -89 -112q-25 6 -31 10q-25 16 -71 68 q-13 15 -49 54h-10q-15 -22 -43 -65q0 -17 44 -61l10 84l4 -96q8 -8 11 -13q13 -5 21 -6q0 -1 1 -1l8 66l2 -81q10 -19 26 -22q3 -3 5 -7q-13 -8 -40 -24q-5 -9 -7 -17q-12 -14 -55 -33q-46 -21 -61 -34q1 -11 9.5 -33t15.5 -28l14 68l-2 -76q15 -11 47 -32h6l5 114l5 -88 q14 27 50 42l3 3l4 103l4 -93q16 25 53 70l1 74l7 -66l6 4q14 -13 38 -20l2 61l3 -63q36 -9 57 -18l4 31l2 -33q7 -3 23 -13q18 -2 25 -1q6 -2 17 -6l4 58l8 -63q14 -5 40 -24v49l8 -52q4 -1 8 -1q17 0 28 32z" />
<glyph unicode="y" horiz-adv-x="508" d="M536 420q0 9 -11 30t-18 22q-8 -7 -24 -19q-5 -60 -4 -72q-4 -9 -14 -24q-4 -11 -10 -33q-15 -17 -48 -48q-19 -41 -32 -41q-24 0 -67 20q-15 7 -65 32q-15 5 -41 18q-7 5 -20 21q-9 3 -26 8q-6 20 -10 25t-23 18q-4 17 -17 43q-6 -1 -29 -26.5t-30 -36.5q7 -10 17 -32 q1 -11 4 -33l15 78l-5 -92q5 -3 25 -11q17 -7 21 -15l21 -9l4 70l5 -74q24 -9 40 -22q22 3 15 3q8 0 18 -10l7 64l8 -85q4 -5 7 -7l8 2q6 -2 16 -7l8 30l-3 -32q21 -9 41 -9q-54 -34 -71 -34l-7 3q-21 -19 -28.5 -22t-35.5 -3q-4 0 -77 -24q-11 7 -32 22l-36 -21 q0 -8 -2.5 -22t-2.5 -21q7 -18 23 -55q3 1 7 2l10 76v-74q17 4 35 4q7 0 20 -3t20 -3q-2 0 6 1l8 42l2 -39q23 7 68 23l10 81l2 -75l23 10l11 -2q4 3 49 48q6 2 17 6l2 79l8 -76q10 9 46 46l-4 49l12 -39q16 17 54 47l-2 76l11 -70q11 27 33 80l1 52l6 -34q8 6 19.5 57 t11.5 67z" />
<glyph unicode="z" horiz-adv-x="565" d="M582 89q-8 35 -31 35q-10 0 -29 -2.5t-29 -2.5q-1 0 -37 9q-21 -7 -26 -7q-7 0 -24 8l-26 12q-31 -8 -93 -22q-4 0 -11.5 2.5t-11.5 2.5q8 0 -22 -5q-44 14 -48 21q12 9 35 27l2 67l2 -64q19 13 57 37l3 51l12 -45q14 4 36 16l18 22q8 8 26 12v69l11 -62q6 8 19 25 q33 15 34 16l5 75l4 -66q16 18 46 43q-2 24 -16 64q-85 -13 -89 -13q-13 0 -39 1t-39 1q-7 0 -60 -16q-2 0 -7 2.5t-7 2.5q-5 0 -16 -4.5t-17 -4.5q-3 0 -25 12l-27 15q-2 -1 -13.5 -6.5t-13.5 -5.5q-3 0 -26 14q-9 0 -16 -41q-6 -34 -6 -53q0 -2 47 -14l4 66l4 -68h10 l60 12l4 45l8 -42l5 1q6 -4 18 -11l36 18q6 -1 17 -2l3 36l5 -35q20 6 56 12l4 -3q-30 -26 -84 -64q-6 -3 -31 -8l-54 -48q-34 -27 -62 -34q-15 -12 -45 -37q-16 -5 -46 -13q-11 -31 -24 -92q7 -5 22 -13l12 94v-99q5 6 18 16q21 0 53 -19v74l6 -79l6 -5q17 -2 51 -7l6 73 l4 -74q25 -3 33 -3q5 1 21 4l1 41l7 -42q15 -3 19 -3q13 0 28 6l7 97l4 -96l8 -1q9 4 28 11q4 0 15.5 -4.5t15.5 -4.5q12 0 21 3l7 82l7 -80q9 2 38 16l7 48l5 -42q19 8 59 22l5 42l4 -32q19 5 42 14z" />
<glyph unicode="{" horiz-adv-x="352" d="M377 427q-2 12 -12 36q-12 29 -18 29q-2 0 -31 -15q-54 -28 -98 -86q-11 -14 -40 -26q-37 -15 -44 -19q-11 -7 -54.5 -53t-43.5 -53q0 -4 14 -29l18 -32l7 92l8 -110q7 -4 21 -14l2 49l10 -56q9 -3 48 -33l6 61l6 -71q32 -28 49 -56l9 95l6 -110q14 -10 36 -23 q16 24 30 44l2 56l7 -43q18 28 31 52q-5 5 -7 11q-63 9 -85 42q-33 13 -42 18q-18 10 -34 30q-19 24 -33 32v11q8 6 23 19l2 63l5 -58q24 19 70 58l2 40l2 -37q21 17 29 21q17 10 34 11l9 86l7 -76q16 15 49 44z" />
<glyph unicode="|" horiz-adv-x="131" d="M49 580q-25 0 -25 -14q0 -17 10 -51t10 -51q0 -15 -5 -28l-5 -252q0 -7 -2 -21.5t-2 -22.5q0 -6 1.5 -18t1.5 -18q0 -117 -8 -123q0 -5 6 -18h11l8 112l-2 -112l30 -1l2 76l5 -77h4q4 4 7 10q0 27 4 81t4 81q-2 7 -4 43l-4 138q-3 104 -3 138q0 14 8 45q-6 48 -10 76 q-28 7 -42 7z" />
<glyph unicode="}" horiz-adv-x="352" d="M36 427q10 -10 26 -24l2 56l4 -62q10 -8 29 -23q9 -2 24 -6l-1 62l10 -65l9 -3l49 -42l3 34l7 -42q7 -5 21 -17l7 31l2 -38q18 -16 40 -32v-11q-13 -7 -33.5 -31.5t-36.5 -32.5q-8 -4 -39 -16q-23 -33 -85 -42q-2 -6 -7 -11q12 -25 21 -37l7 36l-1 -45q27 -42 43 -63l5 3 l14 105l-3 -98q10 7 31 22q1 4 4 7l9 83l-1 -70h1q8 15 47 48l8 48l5 -38q12 10 66 44l3 82l9 -74l3 2q5 10 22 39t17 34q0 4 -41 50q-21 24 -58 56q-6 3 -44 19q-29 12 -39 26q-39 53 -99 86q-27 15 -30 15q-7 0 -18 -27t-12 -38z" />
<glyph unicode="~" horiz-adv-x="426" d="M416 316q0 22 -8 30q-5 4 -9 8q0 23 -8 23q-24 -1 -75 -5q-7 -1 -23 -9q-11 -6 -23 -12q-68 -25 -139 -25q-15 0 -31.5 12t-19.5 12q-6 6 -8 10l-4 2h-6v-58q2 -4 4 -13l9 -6h6v11q-1 6 0 16q1 11 1 17q31 -83 54 -83q7 0 14 7l30 4l15 60q1 -18 4 -55q21 10 52 29 q8 5 25 5q3 0 9.5 2t9.5 2t6.5 -6.5t7.5 -6.5l6 24q0 -4 2 -4l13 12q1 0 5.5 -2t7.5 -2.5t7 -1.5t4 -9q0 -11 6 -11q7 9 18 29l3 -28q8 -2 15 -15q7 -16 13 -19q7 27 7 56z" />
<glyph unicode="&#xa1;" horiz-adv-x="238" d="M59 2q0 -16 9 -34q10 -22 23 -24l8 171l3 -173q9 0 18 -5q16 -9 17 -10h2l9 129l11 -126q5 1 39 12l4 68l5 -64q31 16 31 39q-2 6 -23 44q-15 27 -15 46q0 5 1.5 15t1.5 15q0 19 -18 57q-16 35 -30 52l11 120q0 17 7 20q-14 35 -23 35q-20 0 -43 -58q-20 -51 -20 -79v-38 q0 -2 -5.5 -15.5t-5.5 -17.5q-6 -71 -12 -135q-3 -34 -5 -44zM66 489q0 -19 22 -40l10 67l2 -77q20 -14 50 -14l7 101l4 -99q22 5 34 11l9 51l-1 -47q37 22 37 53q0 6 -15 32q-12 21 -23 26t-38 5q-43 0 -62.5 -14t-35.5 -55z" />
<glyph unicode="&#xa7;" horiz-adv-x="789" d="M332 404q0 9 -7 13q-32 25 -102 64l-49 17l-25 10q-8 3 -46 3q-21 0 -49 -2v-10q15 -3 44 -16l6 17v-23q12 -12 18 -9l49 -43l9 55v-63q22 -22 50 -42l10 75v-83q22 -18 29 -18q8 0 35.5 23.5t27.5 31.5zM819 205q0 10 -27 40t-41 26q-8 4 -40 22l-7 -2q-10 5 -31 12 q-57 8 -76 8q-15 0 -43 -5v-71q5 1 11 2l5 44l8 -41q8 2 9 2q22 0 63 -10l10 31v-33q15 -4 45 -11q1 -1 2 -1l23 35l-6 -39q79 -21 83 -21q12 0 12 12zM665 -10q0 5 -12 43q-6 18 -43 79t-45 61l-8 -5q-2 0 -6.5 2.5t-6.5 2.5q-12 0 -40 -16t-31 -26l33 -23l4 36v-38 q18 -13 40 -40l6 54l5 -68q3 -5 33 -41l6 55l3 -66q8 -10 17 -19q5 -16 17 -35q9 2 18.5 18t9.5 26zM241 183q-43 43 -55 43q-31 0 -50 -24l-30 -48l-51 -66q-30 -45 -30 -77q0 -2 11 -22h12l36 42l6 80l6 -66q15 20 49 58l5 47v-43q8 7 25 22l5 81l11 -67q28 24 50 40z M464 259q0 52 -56 62q-3 1 -11 5.5t-12 4.5q-9 0 -28.5 -8.5t-23.5 -14.5q-34 -50 -34 -62q0 -26 25 -36l6 10v64l5 -78q12 -6 27 -11l10 94l-2 -93l27 -3q8 5 23 14v63l10 -61h7q27 16 27 50zM752 529q-10 10 -15 10q-1 0 -5.5 -2.5t-6.5 -2.5q-4 0 -11.5 1t-11.5 1 q-46 0 -120 -58q-70 -54 -93 -100q8 -5 17 -16l12 28l1 -44q9 -10 15 -10q9 0 27 24l9 90v-78q6 11 19 29q9 13 63 60l2 49l5 -42q33 18 93 61zM232 315q0 16 -27 26q-23 9 -41 8q-2 0 -7 -1t-7 -1q-10 0 -28.5 4.5t-28.5 4.5q-25 0 -52 -8q-35 -10 -40 -27q20 -8 44 -16 l3 25l8 -28q22 -8 45 -12l5 40l10 -44q8 -1 52 -8l4 52l6 -54q11 -3 29 -5q25 31 25 44z" />
<glyph unicode="&#xa8;" horiz-adv-x="284" d="M69 554q-30 0 -28 -29q-7 -4 -7 -14t6.5 -22.5t14.5 -15.5l6 51l3 -56q5 -3 7 -3q48 0 48 42q0 15 -17.5 31t-32.5 16zM225 545q-16 0 -30.5 -13.5t-12.5 -29.5q-1 -2 -5 -5q0 -27 24 -40l6 55l4 -60q5 -2 14 -2h6l8 65l7 -47q11 22 11 33t-11 27.5t-21 16.5z" />
<glyph unicode="&#xab;" horiz-adv-x="563" d="M350 261l9 -112l20 -12q8 0 33 -30l3 76l2 -83q7 -10 21 -19l5 2q15 23 39 35l4 41v-38q20 10 23 12q13 7 19 17q-25 17 -30 24q-38 6 -63 35q-34 38 -45 44v11q5 4 16 13l-2 45l15 -35q9 6 26 20l-2 36l12 -29q10 6 30 24l9 3l5 28l4 -25l24 6l-60 64q-28 -10 -76 -51 q-41 -35 -69 -65q-41 -45 -41 -50t17 -34q19 -32 21 -39l24 -16zM222 406q-28 -10 -76 -51q-41 -35 -69 -65q-41 -45 -41 -50q4 -5 25 -48l3 63l4 -77l6 -11q16 -11 39 -25l6 95v-99l15 -9q9 0 22 -17v44l10 -56q23 -27 28 -27q2 0 3 1l2 69l14 -50q7 7 37 22q26 14 33 27 q-25 17 -30 24q-38 6 -63 35q-34 38 -45 44v11q12 10 19 15l3 69l6 -62q14 11 43 32l10 65v-57q4 5 14 12q15 8 42 12z" />
<glyph unicode="&#xad;" horiz-adv-x="426" d="M420 342q0 25 -15 25t-50.5 -11.5t-51.5 -11.5q-5 0 -14 2.5t-14 2.5q-14 0 -42 1t-42 1q-52 0 -64 -5q-8 -6 -25 -13q-2 0 -6 2.5t-6 2.5q-5 0 -18 -7v-57q5 -5 9 -8q11 0 22 4l1 44l2 -44q10 5 39 8t43 2l12 55l4 -54l89 14q5 0 22 -3l4 38l4 -39q3 0 7.5 -1t7.5 -1 q9 0 29 3l5 29l1 -28h1l1 1q27 6 39 6q6 25 6 42z" />
<glyph unicode="&#xb4;" horiz-adv-x="169" d="M25 410l1 -2v-3q0 -7 -6 -23t-6 -25q0 -20 10 -20q11 0 38 27l20 99l3 -67q27 43 71 89q1 2 1 5q0 10 -19 22.5t-30 12.5q-28 0 -49 -36q-2 -3 -27 -59q-3 -6 -7 -20z" />
<glyph unicode="&#xb6;" horiz-adv-x="375" d="M324 526q-17 11 -25 11q-16 0 -29 -16q-18 -2 -40 -2h-32q-1 4 -1 9q0 10 5 30t5 30q0 16 -20.5 37t-36.5 24q-11 -32 -12 -67q-6 4 -19 11q-5 -1 -14 -3q-11 6 -33 17q-23 0 -41 -28q-15 -23 -19 -49q1 6 1 -40q0 -23 -1 -43q0 -7 -4.5 -21.5t-4.5 -21.5q0 -4 13 -22 q1 -4 5 -6q5 -1 14 2l4 -2l10 68l-2 -94q7 -15 31 -56l7 128v-139l6 -11l22 -5q4 -4 13 -12l2 -42q6 -1 12 -3q1 -5 1 -15q0 -94 -9 -220q8 -8 14 -11l6 53l2 -56q8 -1 9 -1l3 166l5 -153q16 41 19 84v90l12 -9q4 0 18 -3l-29 23q4 14 12 107l-7 4h8q0 -1 -1 -4h1q3 0 7 3 l-7 1q-1 25 -9 172q12 -2 35 -9l2 79l8 -84l9 -4q-4 -50 -4 -152q-1 -114 -2 -152q0 -13 -4 -70q-3 -49 -3 -69q0 -17 12 -17q3 0 9 1l3 142l13 -142q7 -1 14 -1t14 1l7 216l9 -188q5 33 13 98q15 22 15 84q0 47 -7.5 141.5t-7.5 141.5q23 -13 40 -16v77q-16 10 -46 8z M179 168l-8 6l6 29zM200 574q-1 -1 -4 -1t-7 1h11zM236 -35z" />
<glyph unicode="&#xb7;" horiz-adv-x="247" d="M228 367q0 33 -26.5 63.5t-59.5 24.5q-5 8 -10 8q-37 0 -65.5 -28.5t-28.5 -65.5q0 -17 6.5 -24t24.5 -15l6 79l6 -84q15 -5 46 -16l6 123l9 -126q19 2 38 11l1 1v43l11 -38q36 19 36 44z" />
<glyph unicode="&#xb8;" horiz-adv-x="271" d="M63 22q0 -7 -3 -22t-3 -22q0 -4 1.5 -11.5t1.5 -11.5l1 1q1 -1 1 -5q0 -2 2 0q3 0 8 -1h8l13 68l5 -68q22 2 40 2l7 19l7 -20q28 -3 36 -23v-13q0 -4 -2 -5v-4l-2 -1q-4 -8 -37 -18h-2v-3q-11 -1 -20 -1q-40 0 -84 33q-35 -27 -35 -35q0 -2 4.5 -1.5t37.5 -13.5v24 l13 -29q17 -6 26 -4q2 -4 7.5 -3t8 -0.5t10.5 -2.5h11l6 18v-19q12 -1 24 -1q29 0 66 17v70l8 -66q16 9 16 17q0 3 -3 6q-1 -6 -1 8q0 3 4 2q5 4 5 11q0 16 -26 44q-21 24 -34 24q-3 0 -5 -1q-23 6 -52 6q-8 0 -13 5q0 48 -16 58h-8l-5 2q-13 0 -16 2h-10q-1 -14 -1 -32z " />
<glyph unicode="&#xbb;" horiz-adv-x="530" d="M96 406l-60 -64q14 -1 41 -12l5 36l4 -44q16 -12 48 -35l6 56v-61q11 -9 33 -26v-11q-12 -6 -45 -44q-25 -29 -63 -35q-12 -9 -30 -24q4 -8 42 -30l6 47l3 -52q12 -8 34 -32q1 -1 4 -1q4 0 40 42l6 78l9 -66l5 1q12 7 37 23l3 77l8 -70q4 2 12 8q2 7 21 39q17 29 17 34 t-41 50q-81 90 -145 116zM324 406l-60 -64q14 -2 39 -11l8 36l4 -46q14 -10 41 -30l13 52v-62q7 -5 32 -25v-11q-11 -6 -45 -44q-25 -29 -63 -35q-12 -9 -30 -24q8 -14 47 -32l1 39l1 -41q19 -10 36 -33q2 -2 4 -2t5 2l-7 60l11 -57q12 17 40 46l5 89l3 -85q5 2 21 12v54 l7 -49l31 19l3 107l9 -87q30 51 30 56t-41 50q-81 90 -145 116z" />
<glyph unicode="&#xbf;" horiz-adv-x="454" d="M42 51q7 -13 19 -40l21 101l-6 -134q2 -4 5 -13q17 -11 52 -26l3 90l11 -88l8 1q8 0 28 -5l6 61l9 -62q24 11 72 30l7 44l7 -38q19 5 71 10l11 74v-73q12 2 36 4l18 79v-75q29 6 46 17l1 58l2 -56q7 4 17 14v58q0 13 -7 58q-6 7 -13 23l-12 3q-22 -38 -38 -34 q-2 -23 -4 -34q-16 -7 -71 -30q-61 -25 -65 -25q-10 0 -30.5 5.5t-30.5 5.5q-3 0 -8.5 -1t-8.5 -1q-23 0 -35 21q5 5 17 34q8 19 32 22l5 4l3 79l2 -76q25 14 56 22l11 34l2 -31q12 4 36 10l7 98l11 -94q10 2 28 8l5 37l1 -36q6 1 18 5q-2 30 -2 53q0 37 7 54l24 44 q0 2 -7 11.5t-7 18.5q0 5 1.5 15t1.5 15q-38 18 -64 18q-37 0 -37 -14q0 -7 2.5 -22t2.5 -22q0 -9 -5 -25t-5 -25t3 -15q-13 -11 -68 -25q-6 -1 -8 -2q-12 -11 -19 -21q-30 -16 -61 -33q-27 -16 -56 -48q-43 -48 -50 -81q-4 -19 -8 -34zM288 516q0 -37 38 -58l-2 84l11 -88 q13 -5 35 -5q6 0 11 2l9 65l5 -62q12 4 29 9l3 2q5 2 13 6h-4q-16 0 -16 25q0 17 8 47q-75 34 -81 34q-10 0 -34.5 -25.5t-24.5 -35.5z" />
<glyph unicode="&#xc0;" d="M482 -11q-14 45 -14 65q0 11 2 24q-2 6 -23 39q-16 25 -16 37q0 5 1.5 15t1.5 15q0 19 -21 24q1 26 3 40q-22 42 -38 62l-1 12q-1 10 4 24q-1 4 -16 31q-7 21 -21 54q-14 25 -14 34q0 6 5.5 19t5.5 19q0 11 -4.5 32t-4.5 32q-27 -3 -53 -5q-17 -4 -36.5 -28.5 t-19.5 -41.5q22 -28 22 -52q0 -16 -45.5 -93.5t-45.5 -95.5q0 -13 7 -21q-9 -4 -25 -19q6 -3 6 -8q0 -14 -21 -18q2 -6 2 -10q0 -15 -20 -39q-3 -13 -10 -40l-12 -6q-14 -27 -30 -61q-33 -44 -33 -58q0 -10 11 -19.5t21 -9.5q4 0 12 1l10 87v-87q20 0 31 41q19 6 48 23 q8 0 24 2l5 57l5 -56q81 7 74 7l11 57l4 -52q5 3 16 8q8 -2 24 -5q8 3 23 8l1 47l6 -45q2 1 7 2q6 -2 18 -5q28 9 30 9q6 0 14 -10l7 89l6 -109q18 -40 24 -40q2 0 14.5 8.5t17.5 9.5zM343 133q-18 0 -60 -19t-58 -19q-3 0 -28 2q-15 1 -29 0q11 37 30 67l9 78l6 -52 q19 52 22 65q2 9 6 91l4 -64q7 21 33 69q9 -22 21 -68q1 -16 5 -22q1 -2 6 -5l11 95v-103q20 -13 20 -21q0 -5 -4.5 -16.5t-4.5 -16.5q0 -6 11 -61zM290 673l-1 -2v-3q0 -7 6 -23t6 -25q0 -20 -10 -20q-11 0 -38 27l-20 99l-3 -67q-13 21 -41 59q-11 9 -30 30q-1 2 -1 5 q0 10 19 22.5t30 12.5q28 0 49 -36q3 -5 27 -59q3 -6 7 -20z" />
<glyph unicode="&#xc1;" d="M482 -11q-14 45 -14 65q0 11 2 24q-2 6 -23 39q-16 25 -16 37q0 5 1.5 15t1.5 15q0 19 -21 24q1 26 3 40q-22 42 -38 62l-1 12q-1 10 4 24q-1 4 -16 31q-7 21 -21 54q-14 25 -14 34q0 6 5.5 19t5.5 19q0 11 -4.5 32t-4.5 32q-27 -3 -53 -5q-17 -4 -36.5 -28.5 t-19.5 -41.5q22 -28 22 -52q0 -16 -45.5 -93.5t-45.5 -95.5q0 -13 7 -21q-9 -4 -25 -19q6 -3 6 -8q0 -14 -21 -18q2 -6 2 -10q0 -15 -20 -39q-3 -13 -10 -40l-12 -6q-14 -27 -30 -61q-33 -44 -33 -58q0 -10 11 -19.5t21 -9.5q4 0 12 1l10 87v-87q20 0 31 41q19 6 48 23 q8 0 24 2l5 57l5 -56q81 7 74 7l11 57l4 -52q5 3 16 8q8 -2 24 -5q8 3 23 8l1 47l6 -45q2 1 7 2q6 -2 18 -5q28 9 30 9q6 0 14 -10l7 89l6 -109q18 -40 24 -40q2 0 14.5 8.5t17.5 9.5zM343 133q-18 0 -60 -19t-58 -19q-3 0 -28 2q-15 1 -29 0q11 37 30 67l9 78l6 -52 q19 52 22 65q2 9 6 91l4 -64q7 21 33 69q9 -22 21 -68q1 -16 5 -22q1 -2 6 -5l11 95v-103q20 -13 20 -21q0 -5 -4.5 -16.5t-4.5 -16.5q0 -6 11 -61zM258 673l1 -2v-3q0 -7 -6 -23t-6 -25q0 -20 10 -20q11 0 38 27l20 99l3 -67q27 43 71 89q1 2 1 5q0 10 -19 22.5t-30 12.5 q-28 0 -49 -36q-2 -3 -27 -59q-3 -6 -7 -20z" />
<glyph unicode="&#xc2;" d="M482 -11q-14 45 -14 65q0 11 2 24q-2 6 -23 39q-16 25 -16 37q0 5 1.5 15t1.5 15q0 19 -21 24q1 26 3 40q-22 42 -38 62l-1 12q-1 10 4 24q-1 4 -16 31q-7 21 -21 54q-14 25 -14 34q0 6 5.5 19t5.5 19q0 11 -4.5 32t-4.5 32q-27 -3 -53 -5q-17 -4 -36.5 -28.5 t-19.5 -41.5q22 -28 22 -52q0 -16 -45.5 -93.5t-45.5 -95.5q0 -13 7 -21q-9 -4 -25 -19q6 -3 6 -8q0 -14 -21 -18q2 -6 2 -10q0 -15 -20 -39q-3 -13 -10 -40l-12 -6q-14 -27 -30 -61q-33 -44 -33 -58q0 -10 11 -19.5t21 -9.5q4 0 12 1l10 87v-87q20 0 31 41q19 6 48 23 q8 0 24 2l5 57l5 -56q81 7 74 7l11 57l4 -52q5 3 16 8q8 -2 24 -5q8 3 23 8l1 47l6 -45q2 1 7 2q6 -2 18 -5q28 9 30 9q6 0 14 -10l7 89l6 -109q18 -40 24 -40q2 0 14.5 8.5t17.5 9.5zM343 133q-18 0 -60 -19t-58 -19q-3 0 -28 2q-15 1 -29 0q11 37 30 67l9 78l6 -52 q19 52 22 65q2 9 6 91l4 -64q7 21 33 69q9 -22 21 -68q1 -16 5 -22q1 -2 6 -5l11 95v-103q20 -13 20 -21q0 -5 -4.5 -16.5t-4.5 -16.5q0 -6 11 -61zM159 616l26 -26l13 51v-63l11 -10q3 31 20 43l5 77l10 -56q21 28 35 45h9q1 -2 17 -21q4 -2 12 -8l6 29v-35q22 -22 28 -52 q7 -9 18 -24l6 4l8 68l2 -55q13 23 17 29q11 10 24 25q0 3 -22.5 22.5t-22.5 25.5q-10 16 -31 49q-18 11 -57 30q-4 0 -41 -33q-75 -67 -93 -115z" />
<glyph unicode="&#xc3;" d="M482 -11q-14 45 -14 65q0 11 2 24q-2 6 -23 39q-16 25 -16 37q0 5 1.5 15t1.5 15q0 19 -21 24q1 26 3 40q-22 42 -38 62l-1 12q-1 10 4 24q-1 4 -16 31q-7 21 -21 54q-14 25 -14 34q0 6 5.5 19t5.5 19q0 11 -4.5 32t-4.5 32q-27 -3 -53 -5q-17 -4 -36.5 -28.5 t-19.5 -41.5q22 -28 22 -52q0 -16 -45.5 -93.5t-45.5 -95.5q0 -13 7 -21q-9 -4 -25 -19q6 -3 6 -8q0 -14 -21 -18q2 -6 2 -10q0 -15 -20 -39q-3 -13 -10 -40l-12 -6q-14 -27 -30 -61q-33 -44 -33 -58q0 -10 11 -19.5t21 -9.5q4 0 12 1l10 87v-87q20 0 31 41q19 6 48 23 q8 0 24 2l5 57l5 -56q81 7 74 7l11 57l4 -52q5 3 16 8q8 -2 24 -5q8 3 23 8l1 47l6 -45q2 1 7 2q6 -2 18 -5q28 9 30 9q6 0 14 -10l7 89l6 -109q18 -40 24 -40q2 0 14.5 8.5t17.5 9.5zM343 133q-18 0 -60 -19t-58 -19q-3 0 -28 2q-15 1 -29 0q11 37 30 67l9 78l6 -52 q19 52 22 65q2 9 6 91l4 -64q7 21 33 69q9 -22 21 -68q1 -16 5 -22q1 -2 6 -5l11 95v-103q20 -13 20 -21q0 -5 -4.5 -16.5t-4.5 -16.5q0 -6 11 -61zM112 631l3 -12q14 -3 22 -6l8 54l6 -59q15 -7 29 -8q5 4 10 34q4 25 20 25q3 0 8 -1l1 -2h4q2 -1 5 -1l1 -2l6 -2v29l7 -31 q8 -3 10 -6q8 -2 37 -28l6 35l3 -42q17 -11 28 -9q4 -4 14.5 -5t12.5 -2q4 0 9 1l10 65l12 -61q7 1 22 10l3 1l2 2l4 70l5 -60q16 24 16 63q0 19 -6 36q-7 2 -17 2q-8 0 -25 -1t-25 -1q-4 0 -5 -6q-1 -5 0 -13q1 -7 1 -11q0 -32 -38 -32q-29 0 -58 19l-5 1l-2 4l-3 1v3 q-32 43 -67 37q-3 1 -6 1q-15 0 -43 -36.5t-28 -52.5z" />
<glyph unicode="&#xc4;" d="M482 -11q-14 45 -14 65q0 11 2 24q-2 6 -23 39q-16 25 -16 37q0 5 1.5 15t1.5 15q0 19 -21 24q1 26 3 40q-22 42 -38 62l-1 12q-1 10 4 24q-1 4 -16 31q-7 21 -21 54q-14 25 -14 34q0 6 5.5 19t5.5 19q0 11 -4.5 32t-4.5 32q-27 -3 -53 -5q-17 -4 -36.5 -28.5 t-19.5 -41.5q22 -28 22 -52q0 -16 -45.5 -93.5t-45.5 -95.5q0 -13 7 -21q-9 -4 -25 -19q6 -3 6 -8q0 -14 -21 -18q2 -6 2 -10q0 -15 -20 -39q-3 -13 -10 -40l-12 -6q-14 -27 -30 -61q-33 -44 -33 -58q0 -10 11 -19.5t21 -9.5q4 0 12 1l10 87v-87q20 0 31 41q19 6 48 23 q8 0 24 2l5 57l5 -56q81 7 74 7l11 57l4 -52q5 3 16 8q8 -2 24 -5q8 3 23 8l1 47l6 -45q2 1 7 2q6 -2 18 -5q28 9 30 9q6 0 14 -10l7 89l6 -109q18 -40 24 -40q2 0 14.5 8.5t17.5 9.5zM343 133q-18 0 -60 -19t-58 -19q-3 0 -28 2q-15 1 -29 0q11 37 30 67l9 78l6 -52 q19 52 22 65q2 9 6 91l4 -64q7 21 33 69q9 -22 21 -68q1 -16 5 -22q1 -2 6 -5l11 95v-103q20 -13 20 -21q0 -5 -4.5 -16.5t-4.5 -16.5q0 -6 11 -61zM215 699q-30 0 -28 -29q-7 -4 -7 -14t6.5 -22.5t14.5 -15.5l6 51l3 -56q5 -3 7 -3q48 0 48 42q0 15 -17.5 31t-32.5 16z M371 690q-16 0 -30.5 -13.5t-12.5 -29.5q-1 -2 -5 -5q0 -27 24 -40l6 55l4 -60q5 -2 14 -2h6l8 65l7 -47q11 22 11 33t-11 27.5t-21 16.5z" />
<glyph unicode="&#xc5;" horiz-adv-x="603" d="M634 -2q0 13 -14 45l-20 46q-17 50 -37 69q-88 81 -100 120q-7 7 -36.5 36t-29.5 32q0 12 8 18l18 3l8 34l5 -31q36 6 53 20l-5 75l10 -71q25 21 22 45q1 3 7 11.5t6 11.5q0 11 -30 49q-7 4 -61 38q-49 32 -51 32q7 0 -53 -18q-5 2 -16 5q-36 -12 -32 -12q-3 0 -9.5 2.5 t-8.5 2.5q-4 0 -23.5 -13t-28.5 -15q-21 -4 -37 -11q-2 -12 -22.5 -51.5t-20.5 -50.5q0 -40 32 -61l10 82l4 -89q13 -4 39 -13l3 35l6 -38q12 -4 36 -11q-6 -17 -51 -72.5t-58 -61.5v-4q0 -17 -67 -84q-1 -25 -35 -68l-35 -44q0 -7 7 -25t12 -18q8 0 28 12l7 83v-80 q36 24 38 26q20 16 28 36l15 4l2 120l2 -120q31 6 55 13l6 46l10 -41q38 12 85 22l-1 32l3 -32q-3 -1 21 -1q4 1 31 8l9 36l4 -37l5 -1q10 0 19 5q4 2 64 16q1 0 4 -3l12 97l5 -111q38 -34 60 -73l9 77l3 -92q12 -13 26 -13zM424 152q-15 3 -25 3q-3 -1 -36 -13 q-17 -6 -46 -7q-45 -1 -80 -12q-20 -6 -34 -6q35 22 42 49l-3 55l11 -41q4 8 14 23l-2 63l9 -53q7 8 20 25l3 70l5 -61q6 9 20 26q22 -18 46 -44l4 77l10 -93q10 -8 25.5 -30t16.5 -31zM252 478l6 61l5 -53q20 9 39 9q8 0 17 -2l5 54l6 -56q5 -3 15 -8q25 7 18 7 q12 0 36 -10l3 76l5 -80q11 -3 25 -13t14 -19q0 -19 -24 -19q-5 0 -8 2q-1 -2 -1 -6q-32 -3 -86 -3q-22 11 -25 11q-7 0 -18.5 -10t-13.5 -10t-20 9t-22 10q8 34 24 50z" />
<glyph unicode="&#xc6;" horiz-adv-x="704" d="M745 90q-7 0 -19.5 2.5t-19.5 2.5q-9 0 -26 -1.5t-26 -1.5q-12 0 -35 2.5t-35 2.5q-11 0 -31.5 -4.5t-31.5 -4.5q-51 0 -57 6q0 9 -2 26t-2 26q0 18 16 22v61l4 -59q7 3 45 12l9 71l1 -66q18 10 24 18l40 3l-1 52l12 -52q20 0 46 -2q-5 41 -5 45q0 14 5 24q-14 0 -46 -4 q-9 -1 -27 4t-25 5q-14 0 -49 -14q-40 -15 -53 -18q-3 -1 -35 -13q-7 16 -13 32q-10 17 -25 20q-7 6 -8 22q-1 20 -3 24q-28 26 -31 30q-16 19 -18 38l6 6q4 -1 15 -1l4 35l5 -34q22 3 53 12l52 15l4 44l7 -41q27 6 44 6q10 0 26 -4l8 52l-2 -53q23 -6 38 -12q5 -6 15 -15 l5 43l1 -45q4 2 7 3q0 6 2.5 18t2.5 18t-5 22.5t-6 20.5q4 10 11 32q-2 5 -5 13q-110 -42 -123 -42q-3 0 -39 9q-50 -11 -53 -11q-5 0 -15 3t-15 3q-7 0 -20 -3.5t-20 -3.5q-5 0 -10 1q-23 -11 -63 -31q-32 4 -24 4q-8 0 -16 -16t-8 -26q0 -12 8 -37t8 -38q0 -8 -13.5 -20.5 t-14.5 -14.5q-31 -56 -49 -109q-7 -20 -22 -32q2 -7 4 -16q-21 -26 -47 -62q-4 -15 -57 -88q8 -24 8 -28q0 -16 4 -19q14 3 43 9l14 104l4 -101h1q14 0 24 16t11 31q31 4 51 12l14 63v-57q36 16 62 26l3 37l4 -34q20 9 53 21l22 82l5 -66q25 15 30 15q3 0 7 -4q0 -5 2.5 -16 t2.5 -17q0 -10 -5 -37q9 -23 9 -30q0 -6 -2.5 -19t-2.5 -19l12 -4l21 42l2 -46q4 -1 12 -1l8 3l11 98l4 -91q6 4 53 24q5 -1 14 -3l36 9l7 52l11 -46l9 2l8 -2q22 10 66 24l10 33l8 -33q10 -2 15 -2q6 0 18 3.5t18 3.5q2 0 6.5 -2t6.5 -2q11 0 12 13q-4 12 -9 40zM344 191 q-12 -9 -39 -24l-67 -22q-12 -10 -34 -26h-23q13 16 36 51l6 88l6 -41q6 8 17 23l4 73l7 -59l1 1q2 16 13 43q13 -8 22 -22l8 27q1 -41 2 -44q4 -29 24 -34q4 -5 17 -34zM122 172v1l-1 -2z" />
<glyph unicode="&#xc7;" horiz-adv-x="448" d="M469 438q0 125 -30 125h-3q-13 -17 -31 -23q-5 -8 -7 -33t-9 -33q-5 0 -16 -1t-16 -1q-7 0 -20 2t-20 2q-22 0 -57 -28q-16 -2 -25 -2q-12 -7 -53 -14q-28 -5 -105 -63q-4 -12 -4 -23q-26 -52 -26 -64q0 -23 12 -140q0 -4 20 -14l11 121v-127q12 -11 22 -69q3 -3 9 -7 l7 74l5 -82l7 -3q5 -7 13 -22q9 -7 30 -25l9 79l-1 -85q12 -10 37 -27q-5 -33 -5 -37t2 -11.5t2 -11.5q1 1 2 1v-5q0 -1 2 0q3 0 8 -1h8l11 59q2 0 2 1l5 -60q22 2 40 2l7 19l7 -20q28 -3 36 -23v-13q0 -4 -2 -5v-4l-2 -1q-4 -8 -37 -18h-2v-3q-11 -1 -20 -1q-40 0 -84 33 q-35 -27 -35 -36q1 -1 5 0q13 -5 37 -14v24l13 -29q17 -6 26 -4q2 -3 7 -4h8q3 -1 11 -2h11l6 18v-19q12 -1 24 -1q29 0 66 17v70l8 -66q16 9 16 17q0 3 -3 6q-1 -6 -1 8q0 3 4 2q5 4 5 11q0 15 -26 44q-22 24 -34 24q-3 0 -5 -1q-23 6 -52 6q-8 0 -13 5q0 27 -5 42l8 64 l8 -92q22 -5 39 -7q12 5 30 15l14 86l6 -76q6 3 19 10q7 3 10 49q2 29 4 60q-7 7 -11 7q-13 0 -30 -18t-23 -18h-24q-65 0 -168 112q-4 19 -3 34q-11 13 -33 38q0 25 23 44l9 80l12 -67q34 19 63 19q8 0 11 -3l2 61l2 -61q27 4 80 16l24 100l-13 -99q1 1 4 1q16 0 35 -4 l3 37q0 -23 9 -77q3 -5 8 -15q-4 -12 -11 -35q12 -36 16 -36t9 3l6 120l6 -102q25 52 31 170q0 9 6.5 27.5t6.5 20.5z" />
<glyph unicode="&#xc8;" horiz-adv-x="562" d="M600 3v13q-11 12 -16 34q-4 18 -7 37q-8 25 -31 59l-28 -7q-3 -11 -46.5 -38t-56.5 -27q5 0 -26 7q-23 -17 -38 -13q-28 -7 -31 -7t-42 11q-10 -3 -29 -9q-10 6 -31 18q-28 -7 -29 -7q-16 0 -30 18l-18 32l43 22v45l8 -41q21 9 63 24l5 49v-47h3q23 9 56 28l3 85l3 -79 q5 1 57 10l11 45l8 -41q11 3 34 7q4 3 7 22q2 15 12 14q6 4 6 9q-12 30 -12 44q-34 6 -85 7q-8 5 -20 11q-2 0 -7 -2.5t-7 -2.5q-51 0 -95 25q-12 15 -16 28q-8 5 -20 16q11 -2 47 8l8 55l8 -51l50 11q6 -2 14 -2q-4 0 24 6l5 33l3 -31q8 0 24 -3t24 -3q5 0 11 1l-2 60 l10 -60q7 0 17 3q32 9 25 9q7 0 22 -6l-2 68l15 -73q4 -2 14 -6q1 8 9 33q7 20 7 35q-9 5 -25 17q-17 6 -36 6q-12 0 -36.5 -3.5t-36.5 -3.5q-2 0 -7 1t-7 1q-5 0 -18.5 -5.5t-18.5 -5.5q-4 0 -11 1t-11 1q-7 0 -21.5 -3t-21.5 -3q-8 0 -25 1t-25 1q-14 0 -44.5 -16 t-48.5 -17q-6 -5 -19 -14q-29 5 -22 5q-4 0 -14 -5q-1 -17 -9 -49q-5 -10 -5 -12q0 -15 36 -57l4 69l3 -79q7 -9 18 -28q8 -2 25 -7l7 50l9 -54q34 -15 50 -31q0 -9 -62 -30q-4 -2 -24 -17l-39 -6q-3 -40 -46 -38q-12 -33 -12 -42q0 -5 4.5 -17.5t4.5 -18.5q0 -5 -1.5 -13.5 t-1.5 -13.5q0 -3 1 -7q5 -7 12 -10l12 92l3 -99q8 -12 27 -35q9 -3 27 -10l5 83l7 -86q15 -11 47 -28l12 58l2 -60q10 2 19 2q15 0 37 -13l3 95l8 -94q20 5 30 9q22 0 27 -1q12 2 35 6l1 40l7 -38q15 2 45 7l16 91l1 -88q31 4 49 11l12 52l-2 -49q25 8 36 6l11 116l5 -121h1 q12 9 39 23q4 0 10.5 -1t10.5 -1zM260 231h1l-1 -8v8zM329 613l-1 -2v-3q0 -7 6 -23t6 -25q0 -20 -10 -20q-11 0 -38 27l-20 99l-3 -67q-13 21 -41 59q-11 9 -30 30q-1 2 -1 5q0 10 19 22.5t30 12.5q28 0 49 -36q3 -5 27 -59q3 -6 7 -20z" />
<glyph unicode="&#xc9;" horiz-adv-x="562" d="M600 3v13q-11 12 -16 34q-4 18 -7 37q-8 25 -31 59l-28 -7q-3 -11 -46.5 -38t-56.5 -27q5 0 -26 7q-23 -17 -38 -13q-28 -7 -31 -7t-42 11q-10 -3 -29 -9q-10 6 -31 18q-28 -7 -29 -7q-16 0 -30 18l-18 32l43 22v45l8 -41q21 9 63 24l5 49v-47h3q23 9 56 28l3 85l3 -79 q5 1 57 10l11 45l8 -41q11 3 34 7q4 3 7 22q2 15 12 14q6 4 6 9q-12 30 -12 44q-34 6 -85 7q-8 5 -20 11q-2 0 -7 -2.5t-7 -2.5q-51 0 -95 25q-12 15 -16 28q-8 5 -20 16q11 -2 47 8l8 55l8 -51l50 11q6 -2 14 -2q-4 0 24 6l5 33l3 -31q8 0 24 -3t24 -3q5 0 11 1l-2 60 l10 -60q7 0 17 3q32 9 25 9q7 0 22 -6l-2 68l15 -73q4 -2 14 -6q1 8 9 33q7 20 7 35q-9 5 -25 17q-17 6 -36 6q-12 0 -36.5 -3.5t-36.5 -3.5q-2 0 -7 1t-7 1q-5 0 -18.5 -5.5t-18.5 -5.5q-4 0 -11 1t-11 1q-7 0 -21.5 -3t-21.5 -3q-8 0 -25 1t-25 1q-14 0 -44.5 -16 t-48.5 -17q-6 -5 -19 -14q-29 5 -22 5q-4 0 -14 -5q-1 -17 -9 -49q-5 -10 -5 -12q0 -15 36 -57l4 69l3 -79q7 -9 18 -28q8 -2 25 -7l7 50l9 -54q34 -15 50 -31q0 -9 -62 -30q-4 -2 -24 -17l-39 -6q-3 -40 -46 -38q-12 -33 -12 -42q0 -5 4.5 -17.5t4.5 -18.5q0 -5 -1.5 -13.5 t-1.5 -13.5q0 -3 1 -7q5 -7 12 -10l12 92l3 -99q8 -12 27 -35q9 -3 27 -10l5 83l7 -86q15 -11 47 -28l12 58l2 -60q10 2 19 2q15 0 37 -13l3 95l8 -94q20 5 30 9q22 0 27 -1q12 2 35 6l1 40l7 -38q15 2 45 7l16 91l1 -88q31 4 49 11l12 52l-2 -49q25 8 36 6l11 116l5 -121h1 q12 9 39 23q4 0 10.5 -1t10.5 -1zM260 231h1l-1 -8v8zM301 631l1 -2v-3q0 -7 -6 -23t-6 -25q0 -20 10 -20q11 0 38 27l20 99l3 -67q27 43 71 89q1 2 1 5q0 10 -19 22.5t-30 12.5q-28 0 -49 -36q-2 -3 -27 -59q-3 -6 -7 -20z" />
<glyph unicode="&#xca;" horiz-adv-x="562" d="M600 3v13q-11 12 -16 34q-4 18 -7 37q-8 25 -31 59l-28 -7q-3 -11 -46.5 -38t-56.5 -27q5 0 -26 7q-23 -17 -38 -13q-28 -7 -31 -7t-42 11q-10 -3 -29 -9q-10 6 -31 18q-28 -7 -29 -7q-16 0 -30 18l-18 32l43 22v45l8 -41q21 9 63 24l5 49v-47h3q23 9 56 28l3 85l3 -79 q5 1 57 10l11 45l8 -41q11 3 34 7q4 3 7 22q2 15 12 14q6 4 6 9q-12 30 -12 44q-34 6 -85 7q-8 5 -20 11q-2 0 -7 -2.5t-7 -2.5q-51 0 -95 25q-12 15 -16 28q-8 5 -20 16q11 -2 47 8l8 55l8 -51l50 11q6 -2 14 -2q-4 0 24 6l5 33l3 -31q8 0 24 -3t24 -3q5 0 11 1l-2 60 l10 -60q7 0 17 3q32 9 25 9q7 0 22 -6l-2 68l15 -73q4 -2 14 -6q1 8 9 33q7 20 7 35q-9 5 -25 17q-17 6 -36 6q-12 0 -36.5 -3.5t-36.5 -3.5q-2 0 -7 1t-7 1q-5 0 -18.5 -5.5t-18.5 -5.5q-4 0 -11 1t-11 1q-7 0 -21.5 -3t-21.5 -3q-8 0 -25 1t-25 1q-14 0 -44.5 -16 t-48.5 -17q-6 -5 -19 -14q-29 5 -22 5q-4 0 -14 -5q-1 -17 -9 -49q-5 -10 -5 -12q0 -15 36 -57l4 69l3 -79q7 -9 18 -28q8 -2 25 -7l7 50l9 -54q34 -15 50 -31q0 -9 -62 -30q-4 -2 -24 -17l-39 -6q-3 -40 -46 -38q-12 -33 -12 -42q0 -5 4.5 -17.5t4.5 -18.5q0 -5 -1.5 -13.5 t-1.5 -13.5q0 -3 1 -7q5 -7 12 -10l12 92l3 -99q8 -12 27 -35q9 -3 27 -10l5 83l7 -86q15 -11 47 -28l12 58l2 -60q10 2 19 2q15 0 37 -13l3 95l8 -94q20 5 30 9q22 0 27 -1q12 2 35 6l1 40l7 -38q15 2 45 7l16 91l1 -88q31 4 49 11l12 52l-2 -49q25 8 36 6l11 116l5 -121h1 q12 9 39 23q4 0 10.5 -1t10.5 -1zM260 231h1l-1 -8v8zM171 608l26 -26l13 51v-63l11 -10q3 31 20 43l5 77l10 -56q21 28 35 45h9q1 -2 17 -21q4 -2 12 -8l6 29v-35q22 -22 28 -52q7 -9 18 -24l6 4l8 68l2 -55q13 23 17 29q11 10 24 25q0 3 -22.5 22.5t-22.5 25.5 q-10 16 -31 49q-18 11 -57 30q-4 0 -41 -33q-75 -67 -93 -115z" />
<glyph unicode="&#xcb;" horiz-adv-x="562" d="M600 3v13q-11 12 -16 34q-4 18 -7 37q-8 25 -31 59l-28 -7q-3 -11 -46.5 -38t-56.5 -27q5 0 -26 7q-23 -17 -38 -13q-28 -7 -31 -7t-42 11q-10 -3 -29 -9q-10 6 -31 18q-28 -7 -29 -7q-16 0 -30 18l-18 32l43 22v45l8 -41q21 9 63 24l5 49v-47h3q23 9 56 28l3 85l3 -79 q5 1 57 10l11 45l8 -41q11 3 34 7q4 3 7 22q2 15 12 14q6 4 6 9q-12 30 -12 44q-34 6 -85 7q-8 5 -20 11q-2 0 -7 -2.5t-7 -2.5q-51 0 -95 25q-12 15 -16 28q-8 5 -20 16q11 -2 47 8l8 55l8 -51l50 11q6 -2 14 -2q-4 0 24 6l5 33l3 -31q8 0 24 -3t24 -3q5 0 11 1l-2 60 l10 -60q7 0 17 3q32 9 25 9q7 0 22 -6l-2 68l15 -73q4 -2 14 -6q1 8 9 33q7 20 7 35q-9 5 -25 17q-17 6 -36 6q-12 0 -36.5 -3.5t-36.5 -3.5q-2 0 -7 1t-7 1q-5 0 -18.5 -5.5t-18.5 -5.5q-4 0 -11 1t-11 1q-7 0 -21.5 -3t-21.5 -3q-8 0 -25 1t-25 1q-14 0 -44.5 -16 t-48.5 -17q-6 -5 -19 -14q-29 5 -22 5q-4 0 -14 -5q-1 -17 -9 -49q-5 -10 -5 -12q0 -15 36 -57l4 69l3 -79q7 -9 18 -28q8 -2 25 -7l7 50l9 -54q34 -15 50 -31q0 -9 -62 -30q-4 -2 -24 -17l-39 -6q-3 -40 -46 -38q-12 -33 -12 -42q0 -5 4.5 -17.5t4.5 -18.5q0 -5 -1.5 -13.5 t-1.5 -13.5q0 -3 1 -7q5 -7 12 -10l12 92l3 -99q8 -12 27 -35q9 -3 27 -10l5 83l7 -86q15 -11 47 -28l12 58l2 -60q10 2 19 2q15 0 37 -13l3 95l8 -94q20 5 30 9q22 0 27 -1q12 2 35 6l1 40l7 -38q15 2 45 7l16 91l1 -88q31 4 49 11l12 52l-2 -49q25 8 36 6l11 116l5 -121h1 q12 9 39 23q4 0 10.5 -1t10.5 -1zM260 231h1l-1 -8v8zM224 644q-30 0 -28 -29q-7 -4 -7 -14t6.5 -22.5t14.5 -15.5l6 51l3 -56q5 -3 7 -3q48 0 48 42q0 15 -17.5 31t-32.5 16zM380 635q-16 0 -30.5 -13.5t-12.5 -29.5q-1 -2 -5 -5q0 -27 24 -40l6 55l4 -60q5 -2 14 -2h6 l8 65l7 -47q11 22 11 33t-11 27.5t-21 16.5z" />
<glyph unicode="&#xcc;" horiz-adv-x="217" d="M223 381q-4 15 -22 22q-5 1 -32 7q-6 1 -20.5 9t-28.5 8q-31 0 -73 -12v-27q0 -15 18 -64t18 -77q0 -45 7 -65q2 -5 9.5 -20.5t7.5 -24.5q0 -23 -11 -70t-11 -70q0 -5 2.5 -16t2.5 -16q4 -4 7 -6l17 71l-2 -84q12 -9 16 -9t12 3q1 25 3 167l10 -142q5 8 13 24 q19 54 19 100q0 15 -9 42zM149 538l-1 -2v-3q0 -7 6 -23t6 -25q0 -20 -10 -20q-11 0 -38 27l-20 99l-3 -67q-13 21 -41 59q-11 9 -30 30q-1 2 -1 5q0 10 19 22.5t30 12.5q28 0 49 -36q3 -5 27 -59q3 -6 7 -20z" />
<glyph unicode="&#xcd;" horiz-adv-x="217" d="M223 381q-4 15 -22 22q-5 1 -32 7q-6 1 -20.5 9t-28.5 8q-31 0 -73 -12v-27q0 -15 18 -64t18 -77q0 -45 7 -65q2 -5 9.5 -20.5t7.5 -24.5q0 -23 -11 -70t-11 -70q0 -5 2.5 -16t2.5 -16q4 -4 7 -6l17 71l-2 -84q12 -9 16 -9t12 3q1 25 3 167l10 -142q5 8 13 24 q19 54 19 100q0 15 -9 42zM105 571l1 -2v-3q0 -7 -6 -23t-6 -25q0 -20 10 -20q11 0 38 27l20 99l3 -67q27 43 71 89q1 2 1 5q0 10 -19 22.5t-30 12.5q-28 0 -49 -36q-2 -3 -27 -59q-3 -6 -7 -20z" />
<glyph unicode="&#xce;" horiz-adv-x="217" d="M223 381q-4 15 -22 22q-5 1 -32 7q-6 1 -20.5 9t-28.5 8q-31 0 -73 -12v-27q0 -15 18 -64t18 -77q0 -45 7 -65q2 -5 9.5 -20.5t7.5 -24.5q0 -23 -11 -70t-11 -70q0 -5 2.5 -16t2.5 -16q4 -4 7 -6l17 71l-2 -84q12 -9 16 -9t12 3q1 25 3 167l10 -142q5 8 13 24 q19 54 19 100q0 15 -9 42zM0 509l26 -26l13 51v-63l11 -10q3 31 20 43l5 77l10 -56q21 28 35 45h9q1 -2 17 -21q4 -2 12 -8l6 29v-35q22 -22 28 -52q7 -9 18 -24l6 4l8 68l2 -55q13 23 17 29q11 10 24 25q0 3 -22.5 22.5t-22.5 25.5q-10 16 -31 49q-18 11 -57 30 q-4 0 -41 -33q-75 -67 -93 -115z" />
<glyph unicode="&#xcf;" horiz-adv-x="217" d="M223 381q-4 15 -22 22q-5 1 -32 7q-6 1 -20.5 9t-28.5 8q-31 0 -73 -12v-27q0 -15 18 -64t18 -77q0 -45 7 -65q2 -5 9.5 -20.5t7.5 -24.5q0 -23 -11 -70t-11 -70q0 -5 2.5 -16t2.5 -16q4 -4 7 -6l17 71l-2 -84q12 -9 16 -9t12 3q1 25 3 167l10 -142q5 8 13 24 q19 54 19 100q0 15 -9 42zM51 559q-30 0 -28 -29q-7 -4 -7 -14t6.5 -22.5t14.5 -15.5l6 51l3 -56q5 -3 7 -3q48 0 48 42q0 15 -17.5 31t-32.5 16zM207 550q-16 0 -30.5 -13.5t-12.5 -29.5q-1 -2 -5 -5q0 -27 24 -40l6 55l4 -60q5 -2 14 -2h6l8 65l7 -47q11 22 11 33 t-11 27.5t-21 16.5z" />
<glyph unicode="&#xd0;" horiz-adv-x="557" d="M578 334q-19 44 -37 88q-26 49 -67 64q-19 7 -40 14.5t-34 18.5l-46 5q-9 9 -28 23l-12 -6t-12 -5q-9 0 -19 9t-14 10q-5 -1 -11 -3q-7 0 -19 11t-16 11q-8 0 -30 -9.5t-30 -9.5q-5 0 -14 2.5t-14 2.5t-15.5 -4t-15.5 -4q-17 0 -22 3q-8 6 -16 11q-6 -1 -10 -3 q-1 -7 -9.5 -27t-8.5 -26q0 -4 24 -61q1 -3 4 -24q2 -15 11 -20l31 14l-1 96l10 -92l29 13l12 -129q-4 0 -11 1t-11 1q-50 0 -62 -5q-8 -6 -25 -13q-2 0 -6 2.5t-6 2.5q-4 0 -18 -8v-56q5 -5 9 -8q8 0 22 4l17 4l2 39l15 -37q22 1 65 5q-2 -9 -2 -15q7 -11 18 -33 q-2 -6 -12 -27q-8 -17 -8 -27q2 -11 11 -86q-12 -4 -36 -14.5t-24 -20.5q0 -15 16 -57t26 -47l10 93l-4 -92q27 14 79 18l10 135l3 -134q19 4 51 34l5 53l5 -43l4 4q29 13 67 27l3 3l-2 128l15 -101q8 22 26.5 29.5t18.5 8.5l6 71l12 -47q7 11 17 47q8 27 20 35v96l13 -85 q53 53 49 136q19 -6 25 -5h2q0 4 5 11zM484 344q0 -22 -14 -44q-4 -5 -30 -36q-12 -25 -40 -68q-15 -2 -39 -10q-4 -2 -10 -14t-16 -12q-4 0 -10 1q-26 -14 -69 -30q-5 -12 -11 -24q-8 -15 -19 -15q-4 0 -11.5 1.5t-11.5 1.5q25 88 25 127q0 5 -3 29q13 2 15 2l21 -3l4 32 l2 -33q3 0 9 -1t9 -1q9 0 29 3l8 42l4 -39q29 5 35 5q6 25 6 42q0 25 -15 25t-50.5 -11.5t-51.5 -11.5q-3 1 -27 5q-6 31 -6 55q0 11 1 20q-8 32 -8 46q0 7 6.5 13.5t13.5 6.5q3 0 9 -2.5t10 -2.5l4 54l7 -53q13 -5 25 -7q7 4 23 12l6 48l4 -48q16 -8 64 -40l1 62l9 -68 q6 -4 17 -11q5 1 16 2q7 -3 14 -8l5 44l6 -53h1q11 -9 28 -19q5 -10 5 -14z" />
<glyph unicode="&#xd1;" horiz-adv-x="520" d="M499 143q0 7 2 21t2 21q0 15 -7 44l-10 43v36q0 7 -3 20.5t-3 20.5q0 21 12 65t12 61q0 15 -10 15q-15 0 -48.5 -12t-50.5 -21q27 -53 27 -88q0 -10 -8 -25t-8 -17q0 -19 30 -79q-1 -15 -1 -47q0 -6 3.5 -18t3.5 -18q0 -3 -1 -6q-20 16 -54 46l-2 1q-10 10 -37 35 q-32 23 -82 38q-14 4 -29.5 21.5t-25.5 21t-22 7.5l-3 2q-13 11 -26 19q-19 12 -41 27q-9 9 -26 43q-64 -31 -64 -49q0 -2 2.5 -8t2.5 -9t-2 -12q-1 -8 0 -12v-3q21 -15 24 -29q2 -6 2 -41q0 -8 -5 -26.5t-4 -28.5l9 -102q0 -5 -1.5 -15t-1.5 -15q0 -11 -5 -33t-5 -33 q0 -4 12 -9l15 120l-3 -125q15 -6 19 -6q6 0 16 5l2 83l9 -78q24 15 34 16q-22 62 -22 134q0 7 6 69l7 -4l9 68l5 -74q23 -9 43 -25l3 90l3 -93q25 -20 67 -50l-1 64l10 -69l3 -1q3 0 9.5 1t9.5 1q5 0 29 -24l4 57l2 -63q6 -10 25 -24t28 -13q9 -11 28 -33l10 119l6 -137 q25 -27 42 -42l6 90l11 -104q5 -3 14 -8q9 30 23 61zM93 533l3 -12q14 -3 22 -6l8 54l6 -59q15 -7 29 -8q5 4 10 34q4 25 20 25q3 0 8 -1l1 -2h4q2 -1 5 -1l1 -2l6 -2v29l7 -31q8 -3 10 -6q8 -2 37 -28l6 35l3 -42q17 -11 28 -9q4 -4 14.5 -5t12.5 -2q4 0 9 1l10 65l12 -61 q7 1 22 10l3 1l2 2l4 70l5 -60q16 24 16 63q0 19 -6 36q-7 2 -17 2q-8 0 -25 -1t-25 -1q-4 0 -5 -6q-1 -5 0 -13q1 -7 1 -11q0 -32 -38 -32q-29 0 -58 19l-5 1l-2 4l-3 1v3q-32 43 -67 37q-3 1 -6 1q-15 0 -43 -36.5t-28 -52.5z" />
<glyph unicode="&#xd2;" horiz-adv-x="549" d="M567 266q0 53 -24 63q-5 2 -37 7q-152 107 -170 107q-22 0 -67 -14q-48 -15 -68.5 -17t-25.5 -8l-10 -20q-27 -18 -48 -29q-5 -10 -13 -31q-40 -19 -42 -20q-19 -13 -22 -38q-4 -30 -4 -40q0 -3 4 -10t4 -9q3 -15 3 -47q0 -10 7 -35t13 -28l5 136l5 -139q9 -2 21 -8 q9 -11 20 -20l4 83l6 -91q41 -35 68 -42l1 103l8 -102l5 2q22 -11 58 -26l11 65l6 -67q22 0 54 19l3 97l6 -91q9 6 13 9q6 0 17.5 -2t17.5 -2q15 0 32 10l3 112l7 -107q14 10 33 23l-1 68l16 -52q20 23 25 49l7 10l2 76l10 -59q28 38 32.5 52.5t4.5 62.5zM486 228 q0 -20 -48 -52q-60 -40 -66 -48q-7 0 -61 20q-15 -8 -42 -24q-16 0 -63 41q-7 2 -18 4q-54 41 -54 76q0 23 23 40l3 63l7 -56q21 13 82 30l3 74l3 -72q7 1 21 5q8 -14 14 -14l24 4l2 34l10 -33q15 -2 34 -12l32 -16l6 58l1 -61q10 -4 21 -9t16 -14l7 63l7 -82q4 -4 8 -5 q3 0 8 1t8 1q12 0 12 -16zM292 546l-1 -2v-3q0 -7 6 -23t6 -25q0 -20 -10 -20q-11 0 -38 27l-20 99l-3 -67q-13 21 -41 59q-11 9 -30 30q-1 2 -1 5q0 10 19 22.5t30 12.5q28 0 49 -36q3 -5 27 -59q3 -6 7 -20z" />
<glyph unicode="&#xd3;" horiz-adv-x="549" d="M567 266q0 53 -24 63q-5 2 -37 7q-152 107 -170 107q-22 0 -67 -14q-48 -15 -68.5 -17t-25.5 -8l-10 -20q-27 -18 -48 -29q-5 -10 -13 -31q-40 -19 -42 -20q-19 -13 -22 -38q-4 -30 -4 -40q0 -3 4 -10t4 -9q3 -15 3 -47q0 -10 7 -35t13 -28l5 136l5 -139q9 -2 21 -8 q9 -11 20 -20l4 83l6 -91q41 -35 68 -42l1 103l8 -102l5 2q22 -11 58 -26l11 65l6 -67q22 0 54 19l3 97l6 -91q9 6 13 9q6 0 17.5 -2t17.5 -2q15 0 32 10l3 112l7 -107q14 10 33 23l-1 68l16 -52q20 23 25 49l7 10l2 76l10 -59q28 38 32.5 52.5t4.5 62.5zM486 228 q0 -20 -48 -52q-60 -40 -66 -48q-7 0 -61 20q-15 -8 -42 -24q-16 0 -63 41q-7 2 -18 4q-54 41 -54 76q0 23 23 40l3 63l7 -56q21 13 82 30l3 74l3 -72q7 1 21 5q8 -14 14 -14l24 4l2 34l10 -33q15 -2 34 -12l32 -16l6 58l1 -61q10 -4 21 -9t16 -14l7 63l7 -82q4 -4 8 -5 q3 0 8 1t8 1q12 0 12 -16zM271 553l1 -2v-3q0 -7 -6 -23t-6 -25q0 -20 10 -20q11 0 38 27l20 99l3 -67q27 43 71 89q1 2 1 5q0 10 -19 22.5t-30 12.5q-28 0 -49 -36q-2 -3 -27 -59q-3 -6 -7 -20z" />
<glyph unicode="&#xd4;" horiz-adv-x="549" d="M567 266q0 53 -24 63q-5 2 -37 7q-152 107 -170 107q-22 0 -67 -14q-48 -15 -68.5 -17t-25.5 -8l-10 -20q-27 -18 -48 -29q-5 -10 -13 -31q-40 -19 -42 -20q-19 -13 -22 -38q-4 -30 -4 -40q0 -3 4 -10t4 -9q3 -15 3 -47q0 -10 7 -35t13 -28l5 136l5 -139q9 -2 21 -8 q9 -11 20 -20l4 83l6 -91q41 -35 68 -42l1 103l8 -102l5 2q22 -11 58 -26l11 65l6 -67q22 0 54 19l3 97l6 -91q9 6 13 9q6 0 17.5 -2t17.5 -2q15 0 32 10l3 112l7 -107q14 10 33 23l-1 68l16 -52q20 23 25 49l7 10l2 76l10 -59q28 38 32.5 52.5t4.5 62.5zM486 228 q0 -20 -48 -52q-60 -40 -66 -48q-7 0 -61 20q-15 -8 -42 -24q-16 0 -63 41q-7 2 -18 4q-54 41 -54 76q0 23 23 40l3 63l7 -56q21 13 82 30l3 74l3 -72q7 1 21 5q8 -14 14 -14l24 4l2 34l10 -33q15 -2 34 -12l32 -16l6 58l1 -61q10 -4 21 -9t16 -14l7 63l7 -82q4 -4 8 -5 q3 0 8 1t8 1q12 0 12 -16zM180 517l26 -26l13 51v-63l11 -10q3 31 20 43l5 77l10 -56q21 28 35 45h9q1 -2 17 -21q4 -2 12 -8l6 29v-35q22 -22 28 -52q7 -9 18 -24l6 4l8 68l2 -55q13 23 17 29q11 10 24 25q0 3 -22.5 22.5t-22.5 25.5q-10 16 -31 49q-18 11 -57 30 q-4 0 -41 -33q-75 -67 -93 -115z" />
<glyph unicode="&#xd5;" horiz-adv-x="549" d="M567 266q0 53 -24 63q-5 2 -37 7q-152 107 -170 107q-22 0 -67 -14q-48 -15 -68.5 -17t-25.5 -8l-10 -20q-27 -18 -48 -29q-5 -10 -13 -31q-40 -19 -42 -20q-19 -13 -22 -38q-4 -30 -4 -40q0 -3 4 -10t4 -9q3 -15 3 -47q0 -10 7 -35t13 -28l5 136l5 -139q9 -2 21 -8 q9 -11 20 -20l4 83l6 -91q41 -35 68 -42l1 103l8 -102l5 2q22 -11 58 -26l11 65l6 -67q22 0 54 19l3 97l6 -91q9 6 13 9q6 0 17.5 -2t17.5 -2q15 0 32 10l3 112l7 -107q14 10 33 23l-1 68l16 -52q20 23 25 49l7 10l2 76l10 -59q28 38 32.5 52.5t4.5 62.5zM486 228 q0 -20 -48 -52q-60 -40 -66 -48q-7 0 -61 20q-15 -8 -42 -24q-16 0 -63 41q-7 2 -18 4q-54 41 -54 76q0 23 23 40l3 63l7 -56q21 13 82 30l3 74l3 -72q7 1 21 5q8 -14 14 -14l24 4l2 34l10 -33q15 -2 34 -12l32 -16l6 58l1 -61q10 -4 21 -9t16 -14l7 63l7 -82q4 -4 8 -5 q3 0 8 1t8 1q12 0 12 -16zM135 512l3 -12q14 -3 22 -6l8 54l6 -59q15 -7 29 -8q5 4 10 34q4 25 20 25q3 0 8 -1l1 -2h4q2 -1 5 -1l1 -2l6 -2v29l7 -31q8 -3 10 -6q8 -2 37 -28l6 35l3 -42q17 -11 28 -9q4 -4 14.5 -5t12.5 -2q4 0 9 1l10 65l12 -61q7 1 22 10l3 1l2 2l4 70 l5 -60q16 24 16 63q0 19 -6 36q-7 2 -17 2q-8 0 -25 -1t-25 -1q-4 0 -5 -6q-1 -5 0 -13q1 -7 1 -11q0 -32 -38 -32q-29 0 -58 19l-5 1l-2 4l-3 1v3q-32 43 -67 37q-3 1 -6 1q-15 0 -43 -36.5t-28 -52.5z" />
<glyph unicode="&#xd6;" horiz-adv-x="549" d="M567 266q0 53 -24 63q-5 2 -37 7q-152 107 -170 107q-22 0 -67 -14q-48 -15 -68.5 -17t-25.5 -8l-10 -20q-27 -18 -48 -29q-5 -10 -13 -31q-40 -19 -42 -20q-19 -13 -22 -38q-4 -30 -4 -40q0 -3 4 -10t4 -9q3 -15 3 -47q0 -10 7 -35t13 -28l5 136l5 -139q9 -2 21 -8 q9 -11 20 -20l4 83l6 -91q41 -35 68 -42l1 103l8 -102l5 2q22 -11 58 -26l11 65l6 -67q22 0 54 19l3 97l6 -91q9 6 13 9q6 0 17.5 -2t17.5 -2q15 0 32 10l3 112l7 -107q14 10 33 23l-1 68l16 -52q20 23 25 49l7 10l2 76l10 -59q28 38 32.5 52.5t4.5 62.5zM486 228 q0 -20 -48 -52q-60 -40 -66 -48q-7 0 -61 20q-15 -8 -42 -24q-16 0 -63 41q-7 2 -18 4q-54 41 -54 76q0 23 23 40l3 63l7 -56q21 13 82 30l3 74l3 -72q7 1 21 5q8 -14 14 -14l24 4l2 34l10 -33q15 -2 34 -12l32 -16l6 58l1 -61q10 -4 21 -9t16 -14l7 63l7 -82q4 -4 8 -5 q3 0 8 1t8 1q12 0 12 -16zM264 566q-30 0 -28 -29q-7 -4 -7 -14t6.5 -22.5t14.5 -15.5l6 51l3 -56q5 -3 7 -3q48 0 48 42q0 15 -17.5 31t-32.5 16zM420 557q-16 0 -30.5 -13.5t-12.5 -29.5q-1 -2 -5 -5q0 -27 24 -40l6 55l4 -60q5 -2 14 -2h6l8 65l7 -47q11 22 11 33 t-11 27.5t-21 16.5z" />
<glyph unicode="&#xd8;" horiz-adv-x="648" d="M669 214q0 3 -16.5 38t-12.5 63q-9 30 -34 42q-44 21 -59 21q-3 0 -7.5 -1t-7.5 -1q-8 0 -12 10q4 16 35 28v64l10 -52q17 22 31 44q-14 69 -69 69q-20 0 -48 -43q-13 -21 -39 -62l-64 29q-4 0 -14.5 -2.5t-15.5 -2.5t-14 2.5t-14 2.5q-3 0 -9.5 -2.5t-8.5 -2.5 q-27 9 -99 9q-9 0 -26 -15q-13 -3 -45 -13q-14 -4 -28 -18.5t-13 -27.5q-26 -32 -41 -47q-1 -10 -10 -34q-7 -11 -7 -17q0 -5 5.5 -16t5.5 -16q0 -10 -2.5 -31t-2.5 -31q0 -31 12 -45l14 64l-8 -70l7 -6q3 -17 3 -24q18 -29 37 -39l5 59l10 -64q31 -8 53 -22q-3 -11 -3 -16 q-12 -15 -19 -22q-9 -30 -12 -38q-8 -22 -20 -36.5t-12 -20.5v-1q12 -5 18 -5q10 0 21 9l2 26l-3 2l3 7h1l3 30l5 -54q10 14 31 40q5 3 16 10q12 16 37 34l-1 90l12 -90q28 -1 50 -16l23 50l-1 -55q9 0 27.5 1t27.5 1l4 91l5 -91h4q3 0 9 3q2 0 7 -1.5t8 -1.5q6 0 20.5 10 t19.5 12l2 82l2 -81q13 -3 38 -7l4 34l12 -30q8 2 48 17q1 15 36 50l3 107l12 -95q10 8 16 12q3 19 2 31q3 8 23 33q18 20 18 39zM316 242q-29 -10 -42 -35q-4 -7 -18 -54q-8 -6 -25 -18q-30 15 -74 32q-19 18 -19 58q0 12 2 26q-6 12 -10 19q9 22 20 80q8 4 23 9l10 77 l-4 -74q18 7 30 11l10 -2l10 46l1 -48q8 -2 19 -2q5 0 16.5 7t14.5 8q6 -1 11 -4l7 68l6 -73q11 -4 16 -4l10 2l3 -1l1 23l6 -25q17 -5 51 -16q-8 -3 -12 -19q-5 -19 -12 -26q-27 -21 -33 -27q-16 -17 -18 -38zM576 253q0 -55 -71 -97q-12 -7 -68 -24q-4 -1 -15.5 -9 t-16.5 -8q-14 0 -44 7t-46 6v10q0 14 23 48l5 72l5 -60q24 30 60 66l4 49l3 -42q15 15 45 44v-3q0 -5 10 -5l2 19l-1 2h1l4 49l1 -48q16 4 22 4q4 0 23.5 -10t20.5 -13t4 -13q29 -24 29 -44z" />
<glyph unicode="&#xd9;" horiz-adv-x="504" d="M61 237l8 -134q9 -9 17 -12q8 -13 24 -40l4 100l10 -114q8 -5 34 -18l4 55l8 -65q52 -18 54 -18l4 124l12 -115q13 8 20 8q6 0 17 -1.5t16 -1.5l5 86l9 -86q29 1 64 22l3 47l3 -43l33 20q-2 10 -2 17q0 12 24 34l1 79l9 -69q17 17 39 35q1 4 25 96q-2 5 1 63 q-6 19 -14 66q-7 43 -16 66h-12q-37 -27 -37 -38q0 -10 7 -30t7 -30q0 -22 -6 -57q-7 -42 -16 -51q-2 -14 -18 -38q-33 -50 -88 -50q-11 0 -33 1t-33 1q-5 0 -35.5 21.5t-33.5 26.5q-14 26 -14 38q0 22 14 52l2 51l4 -41q5 10 18 27l7 65l1 -54q13 17 34 35v63l10 -55 q4 4 12 10q1 4 1 8q-3 7 -3 11q0 1 1 4l4 3q0 21 -7 28q-4 4 -27 13t-30 9q-4 0 -12 -3.5t-12 -3.5q-3 0 -30 2l-9 -3q-15 -25 -17 -31q-9 -16 -11 -33q-6 -6 -18 -17l1 -3q0 -6 -12.5 -25.5t-9.5 -33.5q-36 -78 -36 -87v-57q0 -15 16 -46zM384 535l-1 -2v-3q0 -7 6 -23 t6 -25q0 -20 -10 -20q-11 0 -38 27l-20 99l-3 -67q-13 21 -41 59q-11 9 -30 30q-1 2 -1 5q0 10 19 22.5t30 12.5q28 0 49 -36q3 -5 27 -59q3 -6 7 -20z" />
<glyph unicode="&#xda;" horiz-adv-x="504" d="M61 237l8 -134q9 -9 17 -12q8 -13 24 -40l4 100l10 -114q8 -5 34 -18l4 55l8 -65q52 -18 54 -18l4 124l12 -115q13 8 20 8q6 0 17 -1.5t16 -1.5l5 86l9 -86q29 1 64 22l3 47l3 -43l33 20q-2 10 -2 17q0 12 24 34l1 79l9 -69q17 17 39 35q1 4 25 96q-2 5 1 63 q-6 19 -14 66q-7 43 -16 66h-12q-37 -27 -37 -38q0 -10 7 -30t7 -30q0 -22 -6 -57q-7 -42 -16 -51q-2 -14 -18 -38q-33 -50 -88 -50q-11 0 -33 1t-33 1q-5 0 -35.5 21.5t-33.5 26.5q-14 26 -14 38q0 22 14 52l2 51l4 -41q5 10 18 27l7 65l1 -54q13 17 34 35v63l10 -55 q4 4 12 10q1 4 1 8q-3 7 -3 11q0 1 1 4l4 3q0 21 -7 28q-4 4 -27 13t-30 9q-4 0 -12 -3.5t-12 -3.5q-3 0 -30 2l-9 -3q-15 -25 -17 -31q-9 -16 -11 -33q-6 -6 -18 -17l1 -3q0 -6 -12.5 -25.5t-9.5 -33.5q-36 -78 -36 -87v-57q0 -15 16 -46zM313 553l1 -2v-3q0 -7 -6 -23 t-6 -25q0 -20 10 -20q11 0 38 27l20 99l3 -67q27 43 71 89q1 2 1 5q0 10 -19 22.5t-30 12.5q-28 0 -49 -36q-2 -3 -27 -59q-3 -6 -7 -20z" />
<glyph unicode="&#xdb;" horiz-adv-x="504" d="M61 237l8 -134q9 -9 17 -12q8 -13 24 -40l4 100l10 -114q8 -5 34 -18l4 55l8 -65q52 -18 54 -18l4 124l12 -115q13 8 20 8q6 0 17 -1.5t16 -1.5l5 86l9 -86q29 1 64 22l3 47l3 -43l33 20q-2 10 -2 17q0 12 24 34l1 79l9 -69q17 17 39 35q1 4 25 96q-2 5 1 63 q-6 19 -14 66q-7 43 -16 66h-12q-37 -27 -37 -38q0 -10 7 -30t7 -30q0 -22 -6 -57q-7 -42 -16 -51q-2 -14 -18 -38q-33 -50 -88 -50q-11 0 -33 1t-33 1q-5 0 -35.5 21.5t-33.5 26.5q-14 26 -14 38q0 22 14 52l2 51l4 -41q5 10 18 27l7 65l1 -54q13 17 34 35v63l10 -55 q4 4 12 10q1 4 1 8q-3 7 -3 11q0 1 1 4l4 3q0 21 -7 28q-4 4 -27 13t-30 9q-4 0 -12 -3.5t-12 -3.5q-3 0 -30 2l-9 -3q-15 -25 -17 -31q-9 -16 -11 -33q-6 -6 -18 -17l1 -3q0 -6 -12.5 -25.5t-9.5 -33.5q-36 -78 -36 -87v-57q0 -15 16 -46zM199 539l26 -26l13 51v-63l11 -10 q3 31 20 43l5 77l10 -56q21 28 35 45h9q1 -2 17 -21q4 -2 12 -8l6 29v-35q22 -22 28 -52q7 -9 18 -24l6 4l8 68l2 -55q13 23 17 29q11 10 24 25q0 3 -22.5 22.5t-22.5 25.5q-10 16 -31 49q-18 11 -57 30q-4 0 -41 -33q-75 -67 -93 -115z" />
<glyph unicode="&#xdc;" horiz-adv-x="504" d="M61 237l8 -134q9 -9 17 -12q8 -13 24 -40l4 100l10 -114q8 -5 34 -18l4 55l8 -65q52 -18 54 -18l4 124l12 -115q13 8 20 8q6 0 17 -1.5t16 -1.5l5 86l9 -86q29 1 64 22l3 47l3 -43l33 20q-2 10 -2 17q0 12 24 34l1 79l9 -69q17 17 39 35q1 4 25 96q-2 5 1 63 q-6 19 -14 66q-7 43 -16 66h-12q-37 -27 -37 -38q0 -10 7 -30t7 -30q0 -22 -6 -57q-7 -42 -16 -51q-2 -14 -18 -38q-33 -50 -88 -50q-11 0 -33 1t-33 1q-5 0 -35.5 21.5t-33.5 26.5q-14 26 -14 38q0 22 14 52l2 51l4 -41q5 10 18 27l7 65l1 -54q13 17 34 35v63l10 -55 q4 4 12 10q1 4 1 8q-3 7 -3 11q0 1 1 4l4 3q0 21 -7 28q-4 4 -27 13t-30 9q-4 0 -12 -3.5t-12 -3.5q-3 0 -30 2l-9 -3q-15 -25 -17 -31q-9 -16 -11 -33q-6 -6 -18 -17l1 -3q0 -6 -12.5 -25.5t-9.5 -33.5q-36 -78 -36 -87v-57q0 -15 16 -46zM264 584q-30 0 -28 -29 q-7 -4 -7 -14t6.5 -22.5t14.5 -15.5l6 51l3 -56q5 -3 7 -3q48 0 48 42q0 15 -17.5 31t-32.5 16zM420 575q-16 0 -30.5 -13.5t-12.5 -29.5q-1 -2 -5 -5q0 -27 24 -40l6 55l4 -60q5 -2 14 -2h6l8 65l7 -47q11 22 11 33t-11 27.5t-21 16.5z" />
<glyph unicode="&#xdd;" horiz-adv-x="508" d="M536 420q0 9 -11 30t-18 22q-8 -7 -24 -19q-5 -60 -4 -72q-4 -9 -14 -24q-4 -11 -10 -33q-15 -17 -48 -48q-19 -41 -32 -41q-24 0 -67 20q-15 7 -65 32q-15 5 -41 18q-7 5 -20 21q-9 3 -26 8q-6 20 -10 25t-23 18q-4 17 -17 43q-6 -1 -29 -26.5t-30 -36.5q7 -11 17 -32 q1 -6 3 -19l12 48v-77l27 -11q14 -6 18 -14q4 -1 13 -5l7 77l3 -82q30 -12 47 -25l15 3l4 -1l3 47l3 -49q10 -12 30 -35l1 52l13 -53q30 -15 56 -15q-54 -34 -71 -34l-7 3q-21 -19 -28.5 -22t-35.5 -3q-4 0 -77 -24q-11 7 -32 22l-36 -21q0 -8 -2.5 -22t-2.5 -21 q7 -18 23 -55q13 4 27 6l6 69l-1 -68q5 1 20 1q6 0 11 -1l2 81l3 -82q10 -4 24 -4q5 0 41 11v86l12 -82q15 4 33 12l33 16l2 62l8 -64h1q4 3 49 48q11 3 33 14l7 106l7 -92q9 9 26 27v41l9 -30q17 17 50 44l-2 91l10 -87h2l47 112q26 69 26 114zM322 493l1 -2v-3 q0 -7 -6 -23t-6 -25q0 -20 10 -20q11 0 38 27l20 99l3 -67q27 43 71 89q1 2 1 5q0 10 -19 22.5t-30 12.5q-28 0 -49 -36q-2 -3 -27 -59q-3 -6 -7 -20z" />
<glyph unicode="&#xe0;" d="M482 -11q-14 45 -14 65q0 11 2 24q-2 6 -23 39q-16 25 -16 37q0 5 1.5 15t1.5 15q0 19 -21 24q1 26 3 40q-22 42 -38 62l-1 12q-1 10 4 24q-1 4 -16 31q-7 21 -21 54q-14 25 -14 34q0 6 5.5 19t5.5 19q0 11 -4.5 32t-4.5 32q-27 -3 -53 -5q-17 -4 -36.5 -28.5 t-19.5 -41.5q22 -28 22 -52q0 -16 -45.5 -93.5t-45.5 -95.5q0 -13 7 -21q-9 -4 -25 -19q6 -3 6 -8q0 -14 -21 -18q2 -6 2 -10q0 -15 -20 -39q-3 -13 -10 -40l-12 -6q-14 -27 -30 -61q-33 -44 -33 -58q0 -12 17 -24l7 40l3 -45h5q4 0 12 1l7 75l8 -75q15 0 26 41l3 2l5 74 l8 -68l16 6l6 52l4 -48l6 5q10 1 29 3v50l6 -49q16 1 30 3v28l6 -28q19 1 59 11l6 65l6 -61q7 -2 21 -4q5 2 16 5v50l5 -48l16 5q26 -5 21 -5l5 118l8 -114q12 5 14 5q12 0 26 -29l8 78l3 -100q4 -9 14 -19v43l9 -38q9 6 23 13zM196 271l7 -101l2 2q31 69 31 80v57l8 -33 q7 23 34 75q4 -16 16 -46l4 104l6 -148q8 -5 21 -16l4 52v-54q12 -9 12 -16q0 -5 -4.5 -16.5t-4.5 -16.5q0 -6 11 -61q-18 0 -60 -19t-58 -19q-3 0 -28 2q-15 1 -29 0q4 19 22 54zM299 677l-1 -2v-3q0 -7 6 -23t6 -25q0 -20 -10 -20q-11 0 -38 27l-20 99l-3 -67 q-13 21 -41 59q-11 9 -30 30q-1 2 -1 5q0 10 19 22.5t30 12.5q28 0 49 -36q3 -5 27 -59q3 -6 7 -20z" />
<glyph unicode="&#xe1;" d="M482 -11q-14 45 -14 65q0 11 2 24q-2 6 -23 39q-16 25 -16 37q0 5 1.5 15t1.5 15q0 19 -21 24q1 26 3 40q-22 42 -38 62l-1 12q-1 10 4 24q-1 4 -16 31q-7 21 -21 54q-14 25 -14 34q0 6 5.5 19t5.5 19q0 11 -4.5 32t-4.5 32q-27 -3 -53 -5q-17 -4 -36.5 -28.5 t-19.5 -41.5q22 -28 22 -52q0 -16 -45.5 -93.5t-45.5 -95.5q0 -13 7 -21q-9 -4 -25 -19q6 -3 6 -8q0 -14 -21 -18q2 -6 2 -10q0 -15 -20 -39q-3 -13 -10 -40l-12 -6q-14 -27 -30 -61q-33 -44 -33 -58q0 -12 17 -24l7 40l3 -45h5q4 0 12 1l7 75l8 -75q15 0 26 41l3 2l5 74 l8 -68l16 6l6 52l4 -48l6 5q10 1 29 3v50l6 -49q16 1 30 3v28l6 -28q19 1 59 11l6 65l6 -61q7 -2 21 -4q5 2 16 5v50l5 -48l16 5q26 -5 21 -5l5 118l8 -114q12 5 14 5q12 0 26 -29l8 78l3 -100q4 -9 14 -19v43l9 -38q9 6 23 13zM196 271l7 -101l2 2q31 69 31 80v57l8 -33 q7 23 34 75q4 -16 16 -46l4 104l6 -148q8 -5 21 -16l4 52v-54q12 -9 12 -16q0 -5 -4.5 -16.5t-4.5 -16.5q0 -6 11 -61q-18 0 -60 -19t-58 -19q-3 0 -28 2q-15 1 -29 0q4 19 22 54zM239 677l1 -2v-3q0 -7 -6 -23t-6 -25q0 -20 10 -20q11 0 38 27l20 99l3 -67q27 43 71 89 q1 2 1 5q0 10 -19 22.5t-30 12.5q-28 0 -49 -36q-2 -3 -27 -59q-3 -6 -7 -20z" />
<glyph unicode="&#xe2;" d="M482 -11q-14 45 -14 65q0 11 2 24q-2 6 -23 39q-16 25 -16 37q0 5 1.5 15t1.5 15q0 19 -21 24q1 26 3 40q-22 42 -38 62l-1 12q-1 10 4 24q-1 4 -16 31q-7 21 -21 54q-14 25 -14 34q0 6 5.5 19t5.5 19q0 11 -4.5 32t-4.5 32q-27 -3 -53 -5q-17 -4 -36.5 -28.5 t-19.5 -41.5q22 -28 22 -52q0 -16 -45.5 -93.5t-45.5 -95.5q0 -13 7 -21q-9 -4 -25 -19q6 -3 6 -8q0 -14 -21 -18q2 -6 2 -10q0 -15 -20 -39q-3 -13 -10 -40l-12 -6q-14 -27 -30 -61q-33 -44 -33 -58q0 -12 17 -24l7 40l3 -45h5q4 0 12 1l7 75l8 -75q15 0 26 41l3 2l5 74 l8 -68l16 6l6 52l4 -48l6 5q10 1 29 3v50l6 -49q16 1 30 3v28l6 -28q19 1 59 11l6 65l6 -61q7 -2 21 -4q5 2 16 5v50l5 -48l16 5q26 -5 21 -5l5 118l8 -114q12 5 14 5q12 0 26 -29l8 78l3 -100q4 -9 14 -19v43l9 -38q9 6 23 13zM196 271l7 -101l2 2q31 69 31 80v57l8 -33 q7 23 34 75q4 -16 16 -46l4 104l6 -148q8 -5 21 -16l4 52v-54q12 -9 12 -16q0 -5 -4.5 -16.5t-4.5 -16.5q0 -6 11 -61q-18 0 -60 -19t-58 -19q-3 0 -28 2q-15 1 -29 0q4 19 22 54zM167 629l26 -26l13 51v-63l11 -10q3 31 20 43l5 77l10 -56q21 28 35 45h9q1 -2 17 -21 q4 -2 12 -8l6 29v-35q22 -22 28 -52q7 -9 18 -24l6 4l8 68l2 -55q13 23 17 29q11 10 24 25q0 3 -22.5 22.5t-22.5 25.5q-10 16 -31 49q-18 11 -57 30q-4 0 -41 -33q-75 -67 -93 -115z" />
<glyph unicode="&#xe3;" d="M482 -11q-14 45 -14 65q0 11 2 24q-2 6 -23 39q-16 25 -16 37q0 5 1.5 15t1.5 15q0 19 -21 24q1 26 3 40q-22 42 -38 62l-1 12q-1 10 4 24q-1 4 -16 31q-7 21 -21 54q-14 25 -14 34q0 6 5.5 19t5.5 19q0 11 -4.5 32t-4.5 32q-27 -3 -53 -5q-17 -4 -36.5 -28.5 t-19.5 -41.5q22 -28 22 -52q0 -16 -45.5 -93.5t-45.5 -95.5q0 -13 7 -21q-9 -4 -25 -19q6 -3 6 -8q0 -14 -21 -18q2 -6 2 -10q0 -15 -20 -39q-3 -13 -10 -40l-12 -6q-14 -27 -30 -61q-33 -44 -33 -58q0 -12 17 -24l7 40l3 -45h5q4 0 12 1l7 75l8 -75q15 0 26 41l3 2l5 74 l8 -68l16 6l6 52l4 -48l6 5q10 1 29 3v50l6 -49q16 1 30 3v28l6 -28q19 1 59 11l6 65l6 -61q7 -2 21 -4q5 2 16 5v50l5 -48l16 5q26 -5 21 -5l5 118l8 -114q12 5 14 5q12 0 26 -29l8 78l3 -100q4 -9 14 -19v43l9 -38q9 6 23 13zM196 271l7 -101l2 2q31 69 31 80v57l8 -33 q7 23 34 75q4 -16 16 -46l4 104l6 -148q8 -5 21 -16l4 52v-54q12 -9 12 -16q0 -5 -4.5 -16.5t-4.5 -16.5q0 -6 11 -61q-18 0 -60 -19t-58 -19q-3 0 -28 2q-15 1 -29 0q4 19 22 54zM123 628l3 -12q14 -3 22 -6l8 54l6 -59q15 -7 29 -8q5 4 10 34q4 25 20 25q3 0 8 -1l1 -2h4 q2 -1 5 -1l1 -2l6 -2v29l7 -31q8 -3 10 -6q8 -2 37 -28l6 35l3 -42q17 -11 28 -9q4 -4 14.5 -5t12.5 -2q4 0 9 1l10 65l12 -61q7 1 22 10l3 1l2 2l4 70l5 -60q16 24 16 63q0 19 -6 36q-7 2 -17 2q-8 0 -25 -1t-25 -1q-4 0 -5 -6q-1 -5 0 -13q1 -7 1 -11q0 -32 -38 -32 q-29 0 -58 19l-5 1l-2 4l-3 1v3q-32 43 -67 37q-3 1 -6 1q-15 0 -43 -36.5t-28 -52.5z" />
<glyph unicode="&#xe4;" d="M482 -11q-14 45 -14 65q0 11 2 24q-2 6 -23 39q-16 25 -16 37q0 5 1.5 15t1.5 15q0 19 -21 24q1 26 3 40q-22 42 -38 62l-1 12q-1 10 4 24q-1 4 -16 31q-7 21 -21 54q-14 25 -14 34q0 6 5.5 19t5.5 19q0 11 -4.5 32t-4.5 32q-27 -3 -53 -5q-17 -4 -36.5 -28.5 t-19.5 -41.5q22 -28 22 -52q0 -16 -45.5 -93.5t-45.5 -95.5q0 -13 7 -21q-9 -4 -25 -19q6 -3 6 -8q0 -14 -21 -18q2 -6 2 -10q0 -15 -20 -39q-3 -13 -10 -40l-12 -6q-14 -27 -30 -61q-33 -44 -33 -58q0 -12 17 -24l7 40l3 -45h5q4 0 12 1l7 75l8 -75q15 0 26 41l3 2l5 74 l8 -68l16 6l6 52l4 -48l6 5q10 1 29 3v50l6 -49q16 1 30 3v28l6 -28q19 1 59 11l6 65l6 -61q7 -2 21 -4q5 2 16 5v50l5 -48l16 5q26 -5 21 -5l5 118l8 -114q12 5 14 5q12 0 26 -29l8 78l3 -100q4 -9 14 -19v43l9 -38q9 6 23 13zM196 271l7 -101l2 2q31 69 31 80v57l8 -33 q7 23 34 75q4 -16 16 -46l4 104l6 -148q8 -5 21 -16l4 52v-54q12 -9 12 -16q0 -5 -4.5 -16.5t-4.5 -16.5q0 -6 11 -61q-18 0 -60 -19t-58 -19q-3 0 -28 2q-15 1 -29 0q4 19 22 54zM198 705q-30 0 -28 -29q-7 -4 -7 -14t6.5 -22.5t14.5 -15.5l6 51l3 -56q5 -3 7 -3 q48 0 48 42q0 15 -17.5 31t-32.5 16zM354 696q-16 0 -30.5 -13.5t-12.5 -29.5q-1 -2 -5 -5q0 -27 24 -40l6 55l4 -60q5 -2 14 -2h6l8 65l7 -47q11 22 11 33t-11 27.5t-21 16.5z" />
<glyph unicode="&#xe5;" horiz-adv-x="603" d="M634 -2q0 13 -14 45l-20 46q-17 50 -37 69q-88 81 -100 120q-7 7 -36.5 36t-29.5 32q0 12 8 18q5 1 16 3l6 37l2 -36q23 5 33 8q16 5 30 15l2 100l4 -94q21 21 18 42q1 3 7 11.5t6 11.5q0 11 -30 49q-7 4 -61 38q-49 32 -51 32q7 0 -53 -18q-5 2 -16 5q-36 -12 -32 -12 q-3 0 -9.5 2.5t-8.5 2.5q-5 0 -24 -13t-31 -16q-16 -4 -34 -10q-2 -12 -22.5 -51.5t-20.5 -50.5q0 -45 41 -66l9 84l3 -89q3 -1 21 -6l2 37l4 -39q17 -5 50 -16q-6 -17 -51 -72.5t-58 -61.5v-4q0 -17 -67 -84q-1 -25 -35 -68l-35 -44q0 -7 7 -25t12 -18q4 0 10 3l12 65 l5 -57q19 10 53 35l1 97l5 -90q10 12 15 24q22 6 33 5q12 4 45 13l6 50l2 -47q83 24 112 22l5 31l5 -29q9 3 28 7q5 -1 11 -3q8 0 21.5 5.5t18.5 6.5l4 54l3 -53q5 1 36 8q9 -6 22 -18l13 95l5 -113q22 -22 44 -59l15 75l6 -94q8 -4 14 -4zM424 152q-15 3 -25 3 q-3 -1 -36 -13q-17 -6 -46 -7q-45 -1 -80 -12q-20 -6 -34 -6q13 9 31.5 31t20.5 35l8 64l3 -46q4 8 26 34l1 66l7 -56l22 28q16 -14 32 -30l10 31l1 -42q12 -12 26 -30l15 82l3 -104q7 -10 15 -28zM446 444q0 -19 -24 -19q-5 0 -8 2q-1 -2 -1 -6q-32 -3 -86 -3 q-22 11 -25 11q-7 0 -18.5 -10t-13.5 -10t-20 9t-22 10q9 42 32 56l11 55l-2 -51q16 6 47 6l1 34l8 -36q6 -3 20 -9q25 7 18 7q14 0 37 -10l2 60l10 -66q34 -17 34 -30z" />
<glyph unicode="&#xe6;" horiz-adv-x="704" d="M745 90q-7 0 -19.5 2.5t-19.5 2.5q-9 0 -26 -1.5t-26 -1.5q-12 0 -35 2.5t-35 2.5q-11 0 -31.5 -4.5t-31.5 -4.5q-51 0 -57 6q0 9 -2 26t-2 26q0 13 3 16t16 7l4 67l4 -64q11 4 33 9l9 39l9 -32q14 9 21 17q11 1 32 3l4 36l5 -36q24 0 56 -2q-5 41 -5 45q0 14 5 24 q-14 0 -46 -4q-9 -1 -27 4t-25 5q-14 0 -49 -14q-40 -15 -53 -18q-3 -1 -35 -13q-7 16 -13 32q-10 17 -25 20q-7 6 -8 22q-1 20 -3 24q-28 26 -31 30q-16 19 -18 38l6 6q6 -1 14 -1t17 1l4 31v-30q41 7 54 15l5 61l5 -58q27 8 46 12l-1 24l7 -23q17 4 33 4q11 0 39 -7l11 66 l2 -70q18 -6 22 -10q9 -10 14 -13q4 0 10 3q0 6 2.5 18t2.5 18t-5 22.5t-6 20.5q4 10 11 32q-2 5 -5 13q-110 -42 -123 -42q-3 0 -39 9q-50 -11 -53 -11q-5 0 -15 3t-15 3q-7 0 -20 -3.5t-20 -3.5q-5 0 -10 1q-23 -11 -63 -31q-32 4 -24 4q-8 0 -16 -16t-8 -26q0 -12 8 -37 t8 -38q0 -8 -13.5 -20.5t-14.5 -14.5q-31 -56 -49 -109q-7 -20 -22 -32q2 -7 4 -16q-21 -26 -47 -62q-4 -15 -57 -88q8 -24 8 -28q0 -16 4 -19q15 3 44 9l2 75l7 -73q42 5 44 48q32 5 48 11l-1 61l18 -55q26 11 77 33l4 46l7 -41q12 4 34 13q54 32 60 30l10 73 q-1 -32 -1 -111q0 -7 -1.5 -20.5t-1.5 -20.5q0 -4 3.5 -12t3.5 -12q0 -6 -2.5 -19t-2.5 -19q20 -7 34 -8l11 73l3 -74q23 12 70 33l8 31l8 -32l3 -1q17 4 50 14l12 42l4 -40l5 -1q64 25 72 25l7 48l6 -50q5 -1 14 -1q6 0 18 3.5t18 3.5q2 0 6.5 -2t6.5 -2q11 0 12 13 q-4 12 -9 40zM344 191q-12 -10 -39 -24l-67 -22q-12 -10 -34 -26h-23q13 18 39 56v101l8 -61q6 9 18 25l4 69l5 -58l3 4q2 16 13 43q21 -13 35 -54l3 99l4 -109q6 -8 14 -9q4 -5 17 -34zM122 172v1l-1 -2z" />
<glyph unicode="&#xe7;" horiz-adv-x="448" d="M146 279l16 103v-92q21 13 52 20l7 41l5 -39q9 2 21 -1l49 9l5 50l10 -47q39 8 53 5l8 34l-1 -35l11 -2q8 -24 9 -40q3 -5 8 -15q-4 -12 -11 -35q12 -36 16 -36q8 0 15 10l3 117l6 -100q23 59 28 164q0 9 6.5 27.5t6.5 20.5q0 125 -30 125h-3q-13 -17 -31 -23 q-5 -8 -7 -33t-9 -33q-5 0 -16 -1t-16 -1q-7 0 -20 2t-20 2q-22 0 -57 -28q-16 -2 -25 -2q-12 -7 -53 -14q-28 -5 -105 -63q-4 -12 -4 -23q-26 -52 -26 -64q0 -18 5 -77q6 -65 9 -70l5 99l3 -102q11 -3 23 -12l4 60l5 -74q5 -23 11 -53q5 -5 17 -13l6 80l4 -85h1l12 -21 l5 46l5 -54q5 -5 19 -16l7 92l2 -100q7 -5 22 -16l4 55l6 -62l7 -4q0 -7 -2.5 -22t-2.5 -22q0 -4 1.5 -11.5t1.5 -11.5q1 1 2 1v-5q0 -1 2 0q3 0 8 -1h8l13 67l5 -67q22 2 40 2l7 19l7 -20q28 -3 36 -23v-13q0 -4 -2 -5v-4l-2 -1q-4 -8 -37 -18h-2v-3q-11 -1 -20 -1 q-40 0 -84 33q-35 -27 -35 -36q1 -1 5 0q13 -5 37 -14v24l13 -29q17 -6 26 -4q2 -3 7 -4h8q3 -1 11 -2h11l6 18v-19q12 -1 24 -1q29 0 66 17v70l8 -66q16 9 16 17q0 3 -3 6q-1 -6 -1 8q0 3 4 2q5 4 5 11q0 16 -26 44q-21 24 -34 24q-3 0 -5 -1q-23 6 -52 6q-8 0 -13 5 q0 18 -1 24q1 -1 4 -1l11 82v-84q14 -3 32 -6l6 50l3 -49l24 12l9 39v-34q8 3 31 16q7 4 10 49q2 28 4 60q-7 7 -11 7q-13 0 -30 -18t-23 -18h-24q-65 0 -168 112q-4 19 -3 34q-11 13 -33 38q0 23 19 41z" />
<glyph unicode="&#xe8;" horiz-adv-x="562" d="M600 3v13q-11 12 -16 34q-4 18 -7 37q-8 25 -31 59l-28 -7q-3 -11 -46.5 -38t-56.5 -27q5 0 -26 7q-23 -17 -38 -13q-28 -7 -31 -7t-42 11q-10 -3 -29 -9q-10 6 -31 18q-28 -7 -29 -7q-16 0 -30 18l-18 32q23 12 35 19l2 59l6 -56q15 6 45 19l2 58l10 -53q39 14 41 15 q23 9 38 21l14 97l1 -92q23 4 69 14l2 57l10 -54q6 1 19 3q4 3 7 22q2 15 12 14q6 4 6 9q-12 30 -12 44q-35 6 -85 7q-8 5 -20 11q-2 0 -7 -2.5t-7 -2.5q-51 0 -95 25q-12 15 -16 28q-8 5 -20 16q6 -1 61 11l4 52l10 -49l38 9q6 -2 13 -2l8 24l3 -22q21 6 25 6q10 0 34 -6 l5 70l5 -70q23 0 56 11l3 48l11 -47q11 -3 41 -16q1 8 9 33q7 20 7 35q-9 5 -25 17q-17 6 -36 6q-11 0 -35.5 -4t-37.5 -3q-2 0 -7 1t-7 1q-5 0 -18.5 -5.5t-18.5 -5.5q-4 0 -11 1t-11 1q-7 0 -21.5 -3t-21.5 -3q-8 0 -25 1t-25 1q-13 0 -44 -16t-49 -17q-6 -5 -19 -14 q-29 5 -22 5q-4 0 -14 -5q-1 -17 -9 -49q-5 -10 -5 -12q0 -9 26 -44l9 83l6 -102q8 -10 20 -32q7 -2 20 -6l4 49l11 -52q35 -12 56 -33q0 -9 -62 -30q-4 -2 -24 -17l-39 -6q-3 -40 -46 -38q-12 -33 -12 -42q0 -5 4.5 -17.5t4.5 -18.5q0 -5 -1.5 -13.5t-1.5 -13.5q0 -3 1 -7 q6 -7 14 -11l8 98v-101h3q9 -13 29 -38l5 86l4 -89q17 -7 26 -8l13 -8l5 70l6 -77q21 -15 34 -17l10 91l4 -90q4 1 12 1q12 0 24 -6l2 39l4 -42l8 -5q8 2 25 7l16 84l-2 -80q23 0 28 -1q8 2 12 2l5 68l4 -66q48 9 74 12l5 80l8 -78q9 1 26 4q9 3 28 9l7 54l5 -50q15 4 21 4 q-7 0 22 -6q3 2 8 5l5 92l6 -84q12 7 20 10q4 0 10.5 -1t10.5 -1zM305 617l-1 -2v-3q0 -7 6 -23t6 -25q0 -20 -10 -20q-11 0 -38 27l-20 99l-3 -67q-13 21 -41 59q-11 9 -30 30q-1 2 -1 5q0 10 19 22.5t30 12.5q28 0 49 -36q3 -5 27 -59q3 -6 7 -20z" />
<glyph unicode="&#xe9;" horiz-adv-x="562" d="M600 3v13q-11 12 -16 34q-4 18 -7 37q-8 25 -31 59l-28 -7q-3 -11 -46.5 -38t-56.5 -27q5 0 -26 7q-23 -17 -38 -13q-28 -7 -31 -7t-42 11q-10 -3 -29 -9q-10 6 -31 18q-28 -7 -29 -7q-16 0 -30 18l-18 32q23 12 35 19l2 59l6 -56q15 6 45 19l2 58l10 -53q39 14 41 15 q23 9 38 21l14 97l1 -92q23 4 69 14l2 57l10 -54q6 1 19 3q4 3 7 22q2 15 12 14q6 4 6 9q-12 30 -12 44q-35 6 -85 7q-8 5 -20 11q-2 0 -7 -2.5t-7 -2.5q-51 0 -95 25q-12 15 -16 28q-8 5 -20 16q6 -1 61 11l4 52l10 -49l38 9q6 -2 13 -2l8 24l3 -22q21 6 25 6q10 0 34 -6 l5 70l5 -70q23 0 56 11l3 48l11 -47q11 -3 41 -16q1 8 9 33q7 20 7 35q-9 5 -25 17q-17 6 -36 6q-11 0 -35.5 -4t-37.5 -3q-2 0 -7 1t-7 1q-5 0 -18.5 -5.5t-18.5 -5.5q-4 0 -11 1t-11 1q-7 0 -21.5 -3t-21.5 -3q-8 0 -25 1t-25 1q-13 0 -44 -16t-49 -17q-6 -5 -19 -14 q-29 5 -22 5q-4 0 -14 -5q-1 -17 -9 -49q-5 -10 -5 -12q0 -9 26 -44l9 83l6 -102q8 -10 20 -32q7 -2 20 -6l4 49l11 -52q35 -12 56 -33q0 -9 -62 -30q-4 -2 -24 -17l-39 -6q-3 -40 -46 -38q-12 -33 -12 -42q0 -5 4.5 -17.5t4.5 -18.5q0 -5 -1.5 -13.5t-1.5 -13.5q0 -3 1 -7 q6 -7 14 -11l8 98v-101h3q9 -13 29 -38l5 86l4 -89q17 -7 26 -8l13 -8l5 70l6 -77q21 -15 34 -17l10 91l4 -90q4 1 12 1q12 0 24 -6l2 39l4 -42l8 -5q8 2 25 7l16 84l-2 -80q23 0 28 -1q8 2 12 2l5 68l4 -66q48 9 74 12l5 80l8 -78q9 1 26 4q9 3 28 9l7 54l5 -50q15 4 21 4 q-7 0 22 -6q3 2 8 5l5 92l6 -84q12 7 20 10q4 0 10.5 -1t10.5 -1zM267 634l1 -2v-3q0 -7 -6 -23t-6 -25q0 -20 10 -20q11 0 38 27l20 99l3 -67q27 43 71 89q1 2 1 5q0 10 -19 22.5t-30 12.5q-28 0 -49 -36q-2 -3 -27 -59q-3 -6 -7 -20z" />
<glyph unicode="&#xea;" horiz-adv-x="562" d="M600 3v13q-11 12 -16 34q-4 18 -7 37q-8 25 -31 59l-28 -7q-3 -11 -46.5 -38t-56.5 -27q5 0 -26 7q-23 -17 -38 -13q-28 -7 -31 -7t-42 11q-10 -3 -29 -9q-10 6 -31 18q-28 -7 -29 -7q-16 0 -30 18l-18 32q23 12 35 19l2 59l6 -56q15 6 45 19l2 58l10 -53q39 14 41 15 q23 9 38 21l14 97l1 -92q23 4 69 14l2 57l10 -54q6 1 19 3q4 3 7 22q2 15 12 14q6 4 6 9q-12 30 -12 44q-35 6 -85 7q-8 5 -20 11q-2 0 -7 -2.5t-7 -2.5q-51 0 -95 25q-12 15 -16 28q-8 5 -20 16q6 -1 61 11l4 52l10 -49l38 9q6 -2 13 -2l8 24l3 -22q21 6 25 6q10 0 34 -6 l5 70l5 -70q23 0 56 11l3 48l11 -47q11 -3 41 -16q1 8 9 33q7 20 7 35q-9 5 -25 17q-17 6 -36 6q-11 0 -35.5 -4t-37.5 -3q-2 0 -7 1t-7 1q-5 0 -18.5 -5.5t-18.5 -5.5q-4 0 -11 1t-11 1q-7 0 -21.5 -3t-21.5 -3q-8 0 -25 1t-25 1q-13 0 -44 -16t-49 -17q-6 -5 -19 -14 q-29 5 -22 5q-4 0 -14 -5q-1 -17 -9 -49q-5 -10 -5 -12q0 -9 26 -44l9 83l6 -102q8 -10 20 -32q7 -2 20 -6l4 49l11 -52q35 -12 56 -33q0 -9 -62 -30q-4 -2 -24 -17l-39 -6q-3 -40 -46 -38q-12 -33 -12 -42q0 -5 4.5 -17.5t4.5 -18.5q0 -5 -1.5 -13.5t-1.5 -13.5q0 -3 1 -7 q6 -7 14 -11l8 98v-101h3q9 -13 29 -38l5 86l4 -89q17 -7 26 -8l13 -8l5 70l6 -77q21 -15 34 -17l10 91l4 -90q4 1 12 1q12 0 24 -6l2 39l4 -42l8 -5q8 2 25 7l16 84l-2 -80q23 0 28 -1q8 2 12 2l5 68l4 -66q48 9 74 12l5 80l8 -78q9 1 26 4q9 3 28 9l7 54l5 -50q15 4 21 4 q-7 0 22 -6q3 2 8 5l5 92l6 -84q12 7 20 10q4 0 10.5 -1t10.5 -1zM191 599l26 -26l13 51v-63l11 -10q3 31 20 43l5 77l10 -56q21 28 35 45h9q1 -2 17 -21q4 -2 12 -8l6 29v-35q22 -22 28 -52q7 -9 18 -24l6 4l8 68l2 -55q13 23 17 29q11 10 24 25q0 3 -22.5 22.5t-22.5 25.5 q-10 16 -31 49q-18 11 -57 30q-4 0 -41 -33q-75 -67 -93 -115z" />
<glyph unicode="&#xeb;" horiz-adv-x="562" d="M600 3v13q-11 12 -16 34q-4 18 -7 37q-8 25 -31 59l-28 -7q-3 -11 -46.5 -38t-56.5 -27q5 0 -26 7q-23 -17 -38 -13q-28 -7 -31 -7t-42 11q-10 -3 -29 -9q-10 6 -31 18q-28 -7 -29 -7q-16 0 -30 18l-18 32q23 12 35 19l2 59l6 -56q15 6 45 19l2 58l10 -53q39 14 41 15 q23 9 38 21l14 97l1 -92q23 4 69 14l2 57l10 -54q6 1 19 3q4 3 7 22q2 15 12 14q6 4 6 9q-12 30 -12 44q-35 6 -85 7q-8 5 -20 11q-2 0 -7 -2.5t-7 -2.5q-51 0 -95 25q-12 15 -16 28q-8 5 -20 16q6 -1 61 11l4 52l10 -49l38 9q6 -2 13 -2l8 24l3 -22q21 6 25 6q10 0 34 -6 l5 70l5 -70q23 0 56 11l3 48l11 -47q11 -3 41 -16q1 8 9 33q7 20 7 35q-9 5 -25 17q-17 6 -36 6q-11 0 -35.5 -4t-37.5 -3q-2 0 -7 1t-7 1q-5 0 -18.5 -5.5t-18.5 -5.5q-4 0 -11 1t-11 1q-7 0 -21.5 -3t-21.5 -3q-8 0 -25 1t-25 1q-13 0 -44 -16t-49 -17q-6 -5 -19 -14 q-29 5 -22 5q-4 0 -14 -5q-1 -17 -9 -49q-5 -10 -5 -12q0 -9 26 -44l9 83l6 -102q8 -10 20 -32q7 -2 20 -6l4 49l11 -52q35 -12 56 -33q0 -9 -62 -30q-4 -2 -24 -17l-39 -6q-3 -40 -46 -38q-12 -33 -12 -42q0 -5 4.5 -17.5t4.5 -18.5q0 -5 -1.5 -13.5t-1.5 -13.5q0 -3 1 -7 q6 -7 14 -11l8 98v-101h3q9 -13 29 -38l5 86l4 -89q17 -7 26 -8l13 -8l5 70l6 -77q21 -15 34 -17l10 91l4 -90q4 1 12 1q12 0 24 -6l2 39l4 -42l8 -5q8 2 25 7l16 84l-2 -80q23 0 28 -1q8 2 12 2l5 68l4 -66q48 9 74 12l5 80l8 -78q9 1 26 4q9 3 28 9l7 54l5 -50q15 4 21 4 q-7 0 22 -6q3 2 8 5l5 92l6 -84q12 7 20 10q4 0 10.5 -1t10.5 -1zM244 646q-30 0 -28 -29q-7 -4 -7 -14t6.5 -22.5t14.5 -15.5l6 51l3 -56q5 -3 7 -3q48 0 48 42q0 15 -17.5 31t-32.5 16zM400 637q-16 0 -30.5 -13.5t-12.5 -29.5q-1 -2 -5 -5q0 -27 24 -40l6 55l4 -60 q5 -2 14 -2h6l8 65l7 -47q11 22 11 33t-11 27.5t-21 16.5z" />
<glyph unicode="&#xec;" horiz-adv-x="217" d="M223 381q-4 15 -22 22q-18 3 -32 7q-6 2 -23 10q-13 7 -26 7q-31 0 -73 -12v-27q0 -15 18 -64t18 -77q0 -45 7 -65q2 -4 9.5 -20.5t7.5 -24.5q0 -23 -11 -70t-11 -70q0 8 6 -31q0 -3 3 -5l9 79v-86q20 -17 27 -17l3 140l16 -118q7 10 17 30q19 55 19 100q0 15 -9 42z M161 544l-1 -2v-3q0 -7 6 -23t6 -25q0 -20 -10 -20q-11 0 -38 27l-20 99l-3 -67q-13 21 -41 59q-11 9 -30 30q-1 2 -1 5q0 10 19 22.5t30 12.5q28 0 49 -36q3 -5 27 -59q3 -6 7 -20z" />
<glyph unicode="&#xed;" horiz-adv-x="217" d="M223 381q-4 15 -22 22q-18 3 -32 7q-6 2 -23 10q-13 7 -26 7q-31 0 -73 -12v-27q0 -15 18 -64t18 -77q0 -45 7 -65q2 -4 9.5 -20.5t7.5 -24.5q0 -23 -11 -70t-11 -70q0 8 6 -31q0 -3 3 -5l9 79v-86q20 -17 27 -17l3 140l16 -118q7 10 17 30q19 55 19 100q0 15 -9 42z M105 542l1 -2v-3q0 -7 -6 -23t-6 -25q0 -20 10 -20q11 0 38 27l20 99l3 -67q27 43 71 89q1 2 1 5q0 10 -19 22.5t-30 12.5q-28 0 -49 -36q-2 -3 -27 -59q-3 -6 -7 -20z" />
<glyph unicode="&#xee;" horiz-adv-x="217" d="M223 381q-4 15 -22 22q-18 3 -32 7q-6 2 -23 10q-13 7 -26 7q-31 0 -73 -12v-27q0 -15 18 -64t18 -77q0 -45 7 -65q2 -4 9.5 -20.5t7.5 -24.5q0 -23 -11 -70t-11 -70q0 8 6 -31q0 -3 3 -5l9 79v-86q20 -17 27 -17l3 140l16 -118q7 10 17 30q19 55 19 100q0 15 -9 42z M1 509l26 -26l13 51v-63l11 -10q3 31 20 43l5 77l10 -56q21 28 35 45h9q1 -2 17 -21q4 -2 12 -8l6 29v-35q22 -22 28 -52q7 -9 18 -24l6 4l8 68l2 -55q13 23 17 29q11 10 24 25q0 3 -22.5 22.5t-22.5 25.5q-10 16 -31 49q-18 11 -57 30q-4 0 -41 -33q-75 -67 -93 -115z" />
<glyph unicode="&#xef;" horiz-adv-x="217" d="M223 381q-4 15 -22 22q-18 3 -32 7q-6 2 -23 10q-13 7 -26 7q-31 0 -73 -12v-27q0 -15 18 -64t18 -77q0 -45 7 -65q2 -4 9.5 -20.5t7.5 -24.5q0 -23 -11 -70t-11 -70q0 8 6 -31q0 -3 3 -5l9 79v-86q20 -17 27 -17l3 140l16 -118q7 10 17 30q19 55 19 100q0 15 -9 42z M44 583q-30 0 -28 -29q-7 -4 -7 -14t6.5 -22.5t14.5 -15.5l6 51l3 -56q5 -3 7 -3q48 0 48 42q0 15 -17.5 31t-32.5 16zM200 574q-16 0 -30.5 -13.5t-12.5 -29.5q-1 -2 -5 -5q0 -27 24 -40l6 55l4 -60q5 -2 14 -2h6l8 65l7 -47q11 22 11 33t-11 27.5t-21 16.5z" />
<glyph unicode="&#xf1;" horiz-adv-x="520" d="M499 143q0 7 2 21t2 21q0 16 -7 44q-10 40 -10 43v36q0 7 -3 20.5t-3 20.5q0 21 12 65t12 61q0 15 -10 15q-15 0 -48.5 -12t-50.5 -21q27 -53 27 -88q0 -10 -8 -25t-8 -17q0 -19 30 -79q-1 -15 -1 -47q0 -6 3.5 -18t3.5 -18q0 -3 -1 -6q-20 16 -54 46l-2 1q-10 10 -37 35 q-32 23 -82 38q-14 4 -29.5 21.5t-25.5 21t-22 7.5q-8 6 -29 21q-19 12 -41 27q-9 9 -26 43q-64 -31 -64 -49q0 -3 2.5 -9t2.5 -9q0 -4 -1 -11.5t-1 -11.5v-3q21 -15 24 -29q2 -6 2 -41q0 -8 -5 -26.5t-4 -28.5l9 -102q0 -5 -1.5 -15.5t-1.5 -15.5q0 -11 -5 -32.5t-5 -32.5 q0 -3 15 -10l19 97l-3 -103q8 -4 12 -4q6 0 16 5l3 64l8 -59q21 14 34 16q-22 62 -22 134q0 7 6 69q5 -3 16 -8l2 72l5 -75q6 -3 19 -8q9 -6 26 -19l3 51l6 -57q17 -12 50 -37l5 43l8 -51q4 -3 9 -5q6 1 19 2q7 -3 14 -9l2 100l9 -111q16 -17 50 -44l7 73l7 -78 q29 -33 49 -55l8 125l5 -139q16 -16 28 -26l3 61l7 -70q5 -3 16 -9q9 30 23 61zM72 518l3 -12q14 -3 22 -6l8 54l6 -59q15 -7 29 -8q5 4 10 34q4 25 20 25q3 0 8 -1l1 -2h4q2 -1 5 -1l1 -2l6 -2v29l7 -31q8 -3 10 -6q8 -2 37 -28l6 35l3 -42q17 -11 28 -9q4 -4 14.5 -5 t12.5 -2q4 0 9 1l10 65l12 -61q7 1 22 10l3 1l2 2l4 70l5 -60q16 24 16 63q0 19 -6 36q-7 2 -17 2q-8 0 -25 -1t-25 -1q-4 0 -5 -6q-1 -5 0 -13q1 -7 1 -11q0 -32 -38 -32q-29 0 -58 19l-5 1l-2 4l-3 1v3q-32 43 -67 37q-3 1 -6 1q-15 0 -43 -36.5t-28 -52.5z" />
<glyph unicode="&#xf2;" horiz-adv-x="549" d="M567 266q0 52 -25 64q-5 1 -36 6q-152 107 -170 107q-22 0 -67 -14q-48 -15 -68.5 -17t-25.5 -8l-10 -20q-27 -18 -48 -29q-5 -10 -13 -31q-40 -19 -42 -20q-19 -13 -22 -38q-4 -30 -4 -40q0 -3 4 -10t4 -9q3 -15 3 -47q0 -7 8 -39l8 132l5 -156q9 -2 26 -9l9 69l7 -84 q13 -9 35 -28l12 38l1 -48q11 -7 35 -18l7 106l5 -106l5 2q17 -9 46 -22l10 69l2 -73q10 -2 17 -2q13 0 32 8l2 100l7 -97q12 7 35 23q7 0 21 -2t21 -2l3 82l11 -78q32 13 64 44l2 62l8 -51q16 21 20 44l6 9l3 103l5 -92q31 41 36 54q6 17 6 68zM486 228q0 -20 -48 -52 q-60 -40 -66 -48q-7 0 -61 20q-16 -8 -42 -24q-16 0 -63 41q-7 2 -18 4q-54 41 -54 76q0 27 33 47v72l4 -70q14 10 101 34l1 81l8 -88q4 -6 9 -6t14.5 2.5t14.5 2.5q24 0 44 -14l7 47l1 -52q23 -7 57 -26l3 51l12 -72q7 -10 14 -11q-5 1 17 1q12 0 12 -16zM306 556l-1 -2v-3 q0 -7 6 -23t6 -25q0 -20 -10 -20q-11 0 -38 27l-20 99l-3 -67q-13 21 -41 59q-11 9 -30 30q-1 2 -1 5q0 10 19 22.5t30 12.5q28 0 49 -36q3 -5 27 -59q3 -6 7 -20z" />
<glyph unicode="&#xf3;" horiz-adv-x="549" d="M567 266q0 52 -25 64q-5 1 -36 6q-152 107 -170 107q-22 0 -67 -14q-48 -15 -68.5 -17t-25.5 -8l-10 -20q-27 -18 -48 -29q-5 -10 -13 -31q-40 -19 -42 -20q-19 -13 -22 -38q-4 -30 -4 -40q0 -3 4 -10t4 -9q3 -15 3 -47q0 -7 8 -39l8 132l5 -156q9 -2 26 -9l9 69l7 -84 q13 -9 35 -28l12 38l1 -48q11 -7 35 -18l7 106l5 -106l5 2q17 -9 46 -22l10 69l2 -73q10 -2 17 -2q13 0 32 8l2 100l7 -97q12 7 35 23q7 0 21 -2t21 -2l3 82l11 -78q32 13 64 44l2 62l8 -51q16 21 20 44l6 9l3 103l5 -92q31 41 36 54q6 17 6 68zM486 228q0 -20 -48 -52 q-60 -40 -66 -48q-7 0 -61 20q-16 -8 -42 -24q-16 0 -63 41q-7 2 -18 4q-54 41 -54 76q0 27 33 47v72l4 -70q14 10 101 34l1 81l8 -88q4 -6 9 -6t14.5 2.5t14.5 2.5q24 0 44 -14l7 47l1 -52q23 -7 57 -26l3 51l12 -72q7 -10 14 -11q-5 1 17 1q12 0 12 -16zM270 548l1 -2v-3 q0 -7 -6 -23t-6 -25q0 -20 10 -20q11 0 38 27l20 99l3 -67q27 43 71 89q1 2 1 5q0 10 -19 22.5t-30 12.5q-28 0 -49 -36q-2 -3 -27 -59q-3 -6 -7 -20z" />
<glyph unicode="&#xf4;" horiz-adv-x="549" d="M567 266q0 52 -25 64q-5 1 -36 6q-152 107 -170 107q-22 0 -67 -14q-48 -15 -68.5 -17t-25.5 -8l-10 -20q-27 -18 -48 -29q-5 -10 -13 -31q-40 -19 -42 -20q-19 -13 -22 -38q-4 -30 -4 -40q0 -3 4 -10t4 -9q3 -15 3 -47q0 -7 8 -39l8 132l5 -156q9 -2 26 -9l9 69l7 -84 q13 -9 35 -28l12 38l1 -48q11 -7 35 -18l7 106l5 -106l5 2q17 -9 46 -22l10 69l2 -73q10 -2 17 -2q13 0 32 8l2 100l7 -97q12 7 35 23q7 0 21 -2t21 -2l3 82l11 -78q32 13 64 44l2 62l8 -51q16 21 20 44l6 9l3 103l5 -92q31 41 36 54q6 17 6 68zM486 228q0 -20 -48 -52 q-60 -40 -66 -48q-7 0 -61 20q-16 -8 -42 -24q-16 0 -63 41q-7 2 -18 4q-54 41 -54 76q0 27 33 47v72l4 -70q14 10 101 34l1 81l8 -88q4 -6 9 -6t14.5 2.5t14.5 2.5q24 0 44 -14l7 47l1 -52q23 -7 57 -26l3 51l12 -72q7 -10 14 -11q-5 1 17 1q12 0 12 -16zM183 527l26 -26 l13 51v-63l11 -10q3 31 20 43l5 77l10 -56q21 28 35 45h9q1 -2 17 -21q4 -2 12 -8l6 29v-35q22 -22 28 -52q7 -9 18 -24l6 4l8 68l2 -55q13 23 17 29q11 10 24 25q0 3 -22.5 22.5t-22.5 25.5q-10 16 -31 49q-18 11 -57 30q-4 0 -41 -33q-75 -67 -93 -115z" />
<glyph unicode="&#xf5;" horiz-adv-x="549" d="M567 266q0 52 -25 64q-5 1 -36 6q-152 107 -170 107q-22 0 -67 -14q-48 -15 -68.5 -17t-25.5 -8l-10 -20q-27 -18 -48 -29q-5 -10 -13 -31q-40 -19 -42 -20q-19 -13 -22 -38q-4 -30 -4 -40q0 -3 4 -10t4 -9q3 -15 3 -47q0 -7 8 -39l8 132l5 -156q9 -2 26 -9l9 69l7 -84 q13 -9 35 -28l12 38l1 -48q11 -7 35 -18l7 106l5 -106l5 2q17 -9 46 -22l10 69l2 -73q10 -2 17 -2q13 0 32 8l2 100l7 -97q12 7 35 23q7 0 21 -2t21 -2l3 82l11 -78q32 13 64 44l2 62l8 -51q16 21 20 44l6 9l3 103l5 -92q31 41 36 54q6 17 6 68zM486 228q0 -20 -48 -52 q-60 -40 -66 -48q-7 0 -61 20q-16 -8 -42 -24q-16 0 -63 41q-7 2 -18 4q-54 41 -54 76q0 27 33 47v72l4 -70q14 10 101 34l1 81l8 -88q4 -6 9 -6t14.5 2.5t14.5 2.5q24 0 44 -14l7 47l1 -52q23 -7 57 -26l3 51l12 -72q7 -10 14 -11q-5 1 17 1q12 0 12 -16zM138 527l3 -12 q14 -3 22 -6l8 54l6 -59q15 -7 29 -8q5 4 10 34q4 25 20 25q3 0 8 -1l1 -2h4q2 -1 5 -1l1 -2l6 -2v29l7 -31q8 -3 10 -6q8 -2 37 -28l6 35l3 -42q17 -11 28 -9q4 -4 14.5 -5t12.5 -2q4 0 9 1l10 65l12 -61q7 1 22 10l3 1l2 2l4 70l5 -60q16 24 16 63q0 19 -6 36q-7 2 -17 2 q-8 0 -25 -1t-25 -1q-4 0 -5 -6q-1 -5 0 -13q1 -7 1 -11q0 -32 -38 -32q-29 0 -58 19l-5 1l-2 4l-3 1v3q-32 43 -67 37q-3 1 -6 1q-15 0 -43 -36.5t-28 -52.5z" />
<glyph unicode="&#xf6;" horiz-adv-x="549" d="M567 266q0 52 -25 64q-5 1 -36 6q-152 107 -170 107q-22 0 -67 -14q-48 -15 -68.5 -17t-25.5 -8l-10 -20q-27 -18 -48 -29q-5 -10 -13 -31q-40 -19 -42 -20q-19 -13 -22 -38q-4 -30 -4 -40q0 -3 4 -10t4 -9q3 -15 3 -47q0 -7 8 -39l8 132l5 -156q9 -2 26 -9l9 69l7 -84 q13 -9 35 -28l12 38l1 -48q11 -7 35 -18l7 106l5 -106l5 2q17 -9 46 -22l10 69l2 -73q10 -2 17 -2q13 0 32 8l2 100l7 -97q12 7 35 23q7 0 21 -2t21 -2l3 82l11 -78q32 13 64 44l2 62l8 -51q16 21 20 44l6 9l3 103l5 -92q31 41 36 54q6 17 6 68zM486 228q0 -20 -48 -52 q-60 -40 -66 -48q-7 0 -61 20q-16 -8 -42 -24q-16 0 -63 41q-7 2 -18 4q-54 41 -54 76q0 27 33 47v72l4 -70q14 10 101 34l1 81l8 -88q4 -6 9 -6t14.5 2.5t14.5 2.5q24 0 44 -14l7 47l1 -52q23 -7 57 -26l3 51l12 -72q7 -10 14 -11q-5 1 17 1q12 0 12 -16zM252 596 q-30 0 -28 -29q-7 -4 -7 -14t6.5 -22.5t14.5 -15.5l6 51l3 -56q5 -3 7 -3q48 0 48 42q0 15 -17.5 31t-32.5 16zM408 587q-16 0 -30.5 -13.5t-12.5 -29.5q-1 -2 -5 -5q0 -27 24 -40l6 55l4 -60q5 -2 14 -2h6l8 65l7 -47q11 22 11 33t-11 27.5t-21 16.5z" />
<glyph unicode="&#xf8;" horiz-adv-x="648" d="M669 214q0 3 -16.5 38t-12.5 63q-9 30 -34 42q-44 21 -59 21q-3 0 -7.5 -1t-7.5 -1q-8 0 -12 10q3 11 22 20v101l11 -94l2 1q7 10 22 29l3 35l4 -26q7 10 12 18q-14 69 -69 69q-20 0 -48 -43q-13 -21 -39 -62l-64 29q-4 0 -14.5 -2.5t-15.5 -2.5t-14 2.5t-14 2.5 q-3 0 -9.5 -2.5t-8.5 -2.5q-27 9 -99 9q-9 0 -26 -15q-13 -3 -45 -13q-14 -4 -28 -18.5t-13 -27.5q-26 -32 -41 -47q-1 -11 -10 -34q-7 -11 -7 -17q0 -5 5.5 -16t5.5 -16q0 -10 -2.5 -31t-2.5 -31q0 -28 13 -46l8 95l-2 -101l6 -5q3 -17 3 -24q19 -29 39 -39l5 73l4 -77 q6 1 29 -9q20 -9 28 -14q-3 -11 -3 -16q-12 -15 -19 -22q-9 -30 -12 -38q-8 -22 -20 -36.5t-12 -20.5v-1q12 -5 18 -5q10 0 20 8l2 27l-2 2q3 3 6 40l7 -56q12 18 36 44l5 105l5 -100q8 5 20 21q10 13 24 13q21 0 45 -11q1 -1 3 -2l5 108l9 -114q6 -3 8 -3q15 0 48 3l12 88 l-7 -88h21q3 0 9 3q3 0 8 -1.5t8 -1.5l8 42l3 -37q29 18 32 18q6 0 19 -3.5t19 -3.5q3 0 11 3l12 77l-4 -75q15 6 45 16q1 15 31 45l7 118l9 -104q7 5 20 15q3 20 2 31q3 8 23 33q18 20 18 39zM316 242q-29 -10 -42 -35q-4 -7 -18 -54q-8 -6 -25 -18q-30 15 -74 32 q-19 18 -19 58q0 12 2 26q-6 12 -10 19q9 22 20 80l4 2l5 75v-73q20 10 50 19q5 -1 12 -2l12 51l-3 -53q8 -2 19 -2q5 0 16.5 7t14.5 8l5 -1l4 23l6 -27q27 -8 35 -6l16 -5l10 59l-2 -61q13 -4 37 -12q-8 -3 -12 -19q-5 -19 -12 -26q-27 -21 -33 -27q-16 -17 -18 -38z M576 253q0 -55 -71 -97q-10 -6 -68 -24q-4 -1 -15.5 -9t-16.5 -8q-14 0 -44 7t-46 6v10q0 15 22 46l1 49l4 -43q21 29 53 61l4 62l3 -55q19 19 58 57l-1 -3q0 -4 5 -5l3 84l8 -62q16 4 24 4q-4 0 34 -15l9 33l4 -53q0 -2 1 -1q29 -24 29 -44z" />
<glyph unicode="&#xf9;" horiz-adv-x="504" d="M507 306q-6 19 -14 66q-7 43 -16 66h-12q-37 -28 -37 -38t7 -30t7 -30q0 -22 -6 -57q-7 -42 -16 -51q-2 -14 -18 -38q-33 -50 -88 -50q-11 0 -33 1t-33 1q-5 0 -35.5 21.5t-33.5 26.5q-14 26 -14 38q0 28 19 60l7 94l4 -76q14 20 27 35l9 85l5 -71q10 9 31 26q1 4 1 8 q-3 7 -3 11q0 1 1 4l4 3q0 21 -7 28q-4 4 -27 13t-30 9q-4 0 -12 -3.5t-12 -3.5q3 0 -30 2l-9 -3q-15 -25 -17 -31q-9 -16 -11 -33q-6 -6 -18 -17q1 -1 1 -3q0 -6 -12.5 -25.5t-9.5 -33.5q-36 -78 -36 -87v-56q0 -16 13 -42l10 117v-133q14 -14 23 -18l12 -21l3 103l5 -116 q2 -4 8 -13q25 -16 38 -21l4 67l4 -73q4 -3 6 -6q16 -7 48 -18l4 60l4 -62h1q5 0 17.5 8t25.5 8q6 0 14 -1l5 109l3 -110h5q43 0 71 17l5 65l3 -60q18 12 38 24q-2 10 -2 17q0 5 23 33l2 83l7 -73q11 9 32 29l-1 117l9 -111l1 1q1 4 25 96q-2 5 1 63zM371 528l-1 -2v-3 q0 -7 6 -23t6 -25q0 -20 -10 -20q-11 0 -38 27l-20 99l-3 -67q-13 21 -41 59q-11 9 -30 30q-1 2 -1 5q0 10 19 22.5t30 12.5q28 0 49 -36q3 -5 27 -59q3 -6 7 -20z" />
<glyph unicode="&#xfa;" horiz-adv-x="504" d="M507 306q-6 19 -14 66q-7 43 -16 66h-12q-37 -28 -37 -38t7 -30t7 -30q0 -22 -6 -57q-7 -42 -16 -51q-2 -14 -18 -38q-33 -50 -88 -50q-11 0 -33 1t-33 1q-5 0 -35.5 21.5t-33.5 26.5q-14 26 -14 38q0 28 19 60l7 94l4 -76q14 20 27 35l9 85l5 -71q10 9 31 26q1 4 1 8 q-3 7 -3 11q0 1 1 4l4 3q0 21 -7 28q-4 4 -27 13t-30 9q-4 0 -12 -3.5t-12 -3.5q3 0 -30 2l-9 -3q-15 -25 -17 -31q-9 -16 -11 -33q-6 -6 -18 -17q1 -1 1 -3q0 -6 -12.5 -25.5t-9.5 -33.5q-36 -78 -36 -87v-56q0 -16 13 -42l10 117v-133q14 -14 23 -18l12 -21l3 103l5 -116 q2 -4 8 -13q25 -16 38 -21l4 67l4 -73q4 -3 6 -6q16 -7 48 -18l4 60l4 -62h1q5 0 17.5 8t25.5 8q6 0 14 -1l5 109l3 -110h5q43 0 71 17l5 65l3 -60q18 12 38 24q-2 10 -2 17q0 5 23 33l2 83l7 -73q11 9 32 29l-1 117l9 -111l1 1q1 4 25 96q-2 5 1 63zM306 564l1 -2v-3 q0 -7 -6 -23t-6 -25q0 -20 10 -20q11 0 38 27l20 99l3 -67q27 43 71 89q1 2 1 5q0 10 -19 22.5t-30 12.5q-28 0 -49 -36q-2 -3 -27 -59q-3 -6 -7 -20z" />
<glyph unicode="&#xfb;" horiz-adv-x="504" d="M507 306q-6 19 -14 66q-7 43 -16 66h-12q-37 -28 -37 -38t7 -30t7 -30q0 -22 -6 -57q-7 -42 -16 -51q-2 -14 -18 -38q-33 -50 -88 -50q-11 0 -33 1t-33 1q-5 0 -35.5 21.5t-33.5 26.5q-14 26 -14 38q0 28 19 60l7 94l4 -76q14 20 27 35l9 85l5 -71q10 9 31 26q1 4 1 8 q-3 7 -3 11q0 1 1 4l4 3q0 21 -7 28q-4 4 -27 13t-30 9q-4 0 -12 -3.5t-12 -3.5q3 0 -30 2l-9 -3q-15 -25 -17 -31q-9 -16 -11 -33q-6 -6 -18 -17q1 -1 1 -3q0 -6 -12.5 -25.5t-9.5 -33.5q-36 -78 -36 -87v-56q0 -16 13 -42l10 117v-133q14 -14 23 -18l12 -21l3 103l5 -116 q2 -4 8 -13q25 -16 38 -21l4 67l4 -73q4 -3 6 -6q16 -7 48 -18l4 60l4 -62h1q5 0 17.5 8t25.5 8q6 0 14 -1l5 109l3 -110h5q43 0 71 17l5 65l3 -60q18 12 38 24q-2 10 -2 17q0 5 23 33l2 83l7 -73q11 9 32 29l-1 117l9 -111l1 1q1 4 25 96q-2 5 1 63zM201 539l26 -26l13 51 v-63l11 -10q3 31 20 43l5 77l10 -56q21 28 35 45h9q1 -2 17 -21q4 -2 12 -8l6 29v-35q22 -22 28 -52q7 -9 18 -24l6 4l8 68l2 -55q13 23 17 29q11 10 24 25q0 3 -22.5 22.5t-22.5 25.5q-10 16 -31 49q-18 11 -57 30q-4 0 -41 -33q-75 -67 -93 -115z" />
<glyph unicode="&#xfc;" horiz-adv-x="504" d="M507 306q-6 19 -14 66q-7 43 -16 66h-12q-37 -28 -37 -38t7 -30t7 -30q0 -22 -6 -57q-7 -42 -16 -51q-2 -14 -18 -38q-33 -50 -88 -50q-11 0 -33 1t-33 1q-5 0 -35.5 21.5t-33.5 26.5q-14 26 -14 38q0 28 19 60l7 94l4 -76q14 20 27 35l9 85l5 -71q10 9 31 26q1 4 1 8 q-3 7 -3 11q0 1 1 4l4 3q0 21 -7 28q-4 4 -27 13t-30 9q-4 0 -12 -3.5t-12 -3.5q3 0 -30 2l-9 -3q-15 -25 -17 -31q-9 -16 -11 -33q-6 -6 -18 -17q1 -1 1 -3q0 -6 -12.5 -25.5t-9.5 -33.5q-36 -78 -36 -87v-56q0 -16 13 -42l10 117v-133q14 -14 23 -18l12 -21l3 103l5 -116 q2 -4 8 -13q25 -16 38 -21l4 67l4 -73q4 -3 6 -6q16 -7 48 -18l4 60l4 -62h1q5 0 17.5 8t25.5 8q6 0 14 -1l5 109l3 -110h5q43 0 71 17l5 65l3 -60q18 12 38 24q-2 10 -2 17q0 5 23 33l2 83l7 -73q11 9 32 29l-1 117l9 -111l1 1q1 4 25 96q-2 5 1 63zM246 600q-30 0 -28 -29 q-7 -4 -7 -14t6.5 -22.5t14.5 -15.5l6 51l3 -56q5 -3 7 -3q48 0 48 42q0 15 -17.5 31t-32.5 16zM402 591q-16 0 -30.5 -13.5t-12.5 -29.5q-1 -2 -5 -5q0 -27 24 -40l6 55l4 -60q5 -2 14 -2h6l8 65l7 -47q11 22 11 33t-11 27.5t-21 16.5z" />
<glyph unicode="&#xfd;" horiz-adv-x="508" d="M536 420q0 9 -11 30t-18 22q-8 -7 -24 -19q-5 -60 -4 -72q-4 -9 -14 -24q-4 -11 -10 -33q-15 -17 -48 -48q-19 -41 -32 -41q-24 0 -67 20q-15 7 -65 32q-15 5 -41 18q-7 5 -20 21q-9 3 -26 8q-6 20 -10 25t-23 18q-4 17 -17 43q-6 -1 -29 -26.5t-30 -36.5q7 -10 17 -32 q1 -11 4 -33l15 78l-5 -92q5 -3 25 -11q17 -7 21 -15l21 -9l4 70l5 -74q24 -9 40 -22q22 3 15 3q8 0 18 -10l7 64l8 -85q4 -5 7 -7l8 2q6 -2 16 -7l8 30l-3 -32q21 -9 41 -9q-54 -34 -71 -34l-7 3q-21 -19 -28.5 -22t-35.5 -3q-4 0 -77 -24q-11 7 -32 22l-36 -21 q0 -8 -2.5 -22t-2.5 -21q7 -18 23 -55q3 1 7 2l10 76v-74q17 4 35 4q7 0 20 -3t20 -3q-2 0 6 1l8 42l2 -39q23 7 68 23l10 81l2 -75l23 10l11 -2q4 3 49 48q6 2 17 6l2 79l8 -76q10 9 46 46l-4 49l12 -39q16 17 54 47l-2 76l11 -70q11 27 33 80l1 52l6 -34q8 6 19.5 57 t11.5 67zM282 486l1 -2v-3q0 -7 -6 -23t-6 -25q0 -20 10 -20q11 0 38 27l20 99l3 -67q27 43 71 89q1 2 1 5q0 10 -19 22.5t-30 12.5q-28 0 -49 -36q-2 -3 -27 -59q-3 -6 -7 -20z" />
<glyph unicode="&#xff;" horiz-adv-x="508" d="M536 420q0 9 -11 30t-18 22q-8 -7 -24 -19q-5 -60 -4 -72q-4 -9 -14 -24q-4 -11 -10 -33q-15 -17 -48 -48q-19 -41 -32 -41q-24 0 -67 20q-15 7 -65 32q-15 5 -41 18q-7 5 -20 21q-9 3 -26 8q-6 20 -10 25t-23 18q-4 17 -17 43q-6 -1 -29 -26.5t-30 -36.5q7 -10 17 -32 q1 -11 4 -33l15 78l-5 -92q5 -3 25 -11q17 -7 21 -15l21 -9l4 70l5 -74q24 -9 40 -22q22 3 15 3q8 0 18 -10l7 64l8 -85q4 -5 7 -7l8 2q6 -2 16 -7l8 30l-3 -32q21 -9 41 -9q-54 -34 -71 -34l-7 3q-21 -19 -28.5 -22t-35.5 -3q-4 0 -77 -24q-11 7 -32 22l-36 -21 q0 -8 -2.5 -22t-2.5 -21q7 -18 23 -55q3 1 7 2l10 76v-74q17 4 35 4q7 0 20 -3t20 -3q-2 0 6 1l8 42l2 -39q23 7 68 23l10 81l2 -75l23 10l11 -2q4 3 49 48q6 2 17 6l2 79l8 -76q10 9 46 46l-4 49l12 -39q16 17 54 47l-2 76l11 -70q11 27 33 80l1 52l6 -34q8 6 19.5 57 t11.5 67zM244 565q-30 0 -28 -29q-7 -4 -7 -14t6.5 -22.5t14.5 -15.5l6 51l3 -56q5 -3 7 -3q48 0 48 42q0 15 -17.5 31t-32.5 16zM400 556q-16 0 -30.5 -13.5t-12.5 -29.5q-1 -2 -5 -5q0 -27 24 -40l6 55l4 -60q5 -2 14 -2h6l8 65l7 -47q11 22 11 33t-11 27.5t-21 16.5z" />
<glyph unicode="&#x152;" horiz-adv-x="902" d="M884 -43v15q-12 15 -16 41l-7 44q-8 28 -31 70l-28 -8q-3 -14 -45.5 -46t-57.5 -32q5 0 -26 8q-20 -17 -29 -17q-4 0 -9 1q-25 -8 -31 -8q-7 0 -21 7t-21 7q-4 0 -15 -5t-14 -6q-10 7 -31 21q-5 -1 -18 -5q5 5 10 13q-15 -9 -30 -15q-14 7 -24 26q-7 16 -15 33q6 6 15 12 l-1 60l15 -51q14 9 45 22l6 48l9 -41q4 2 51 21l3 105l7 -100q16 9 34 27q5 0 15 2l5 59l10 -56q25 6 39 11l2 86l9 -82q18 4 30 6q4 3 7 25q2 18 12 17q6 4 6 12q-12 30 -12 51q-44 9 -85 9q-6 5 -20 13q-2 0 -7 -2.5t-7 -2.5q-5 0 -14 2.5t-14 2.5q-6 0 -33 -12 q-5 5 -46 15q-22 18 -65 54q19 9 41 21h9v44l18 -40l86 23q3 -3 9 -3l7 53l5 -51q15 4 28 9q9 0 26.5 -4t26.5 -4l-1 83l12 -82q4 -1 25 7q8 4 17 8q7 0 15 -4l1 65l16 -72q3 -2 17 -10q1 9 9 33q7 20 7 32v17q-9 6 -25 21q-17 6 -36 6q-12 0 -36.5 -4t-36.5 -4q-2 0 -7 1.5 t-7 1.5q-5 0 -19 -7t-18 -7t-11 1.5t-11 1.5q-9 0 -26 -4t-26 -4q-8 0 -25 1.5t-25 1.5q-2 0 -33.5 -20t-50.5 -20q-4 0 -10 -7.5t-9 -8.5q-29 5 -22 5q-5 0 -14 -6q-2 -10 -2 -16q-22 16 -29 16q-19 0 -65 -17q-49 -18 -69.5 -20t-26.5 -10q-2 -2 -10 -23q-15 -13 -48 -35 q-6 -12 -13 -37q-10 -14 -31 -21.5t-26 -17.5q-11 -21 -11 -79q0 1 8 -23q3 -17 3 -56q1 -5 4 -28l12 108l-2 -150q2 -5 7 -5q25 -10 30 -15q10 -12 20 -23l7 49l4 -60q23 -23 50 -39l5 20l2 -23q6 -3 24 -3q4 0 24 -13.5t25 -15.5l14 97l6 -103h6q29 0 73 40l3 -4l11 72 l3 -96q2 -4 8 -13q21 -10 35 -12l18 -15l10 59l7 -72q17 -12 25 -12q4 0 13 1.5t13 1.5l4 57l15 -62q7 -4 17 -11q44 13 52 13q7 0 15 -2q7 1 20 4l3 82l11 -79q21 5 64 13l12 55l6 -51q21 8 65 21l27 155l-11 -152q13 -6 20 -8q12 11 39 29q4 0 10.5 -1t10.5 -1zM311 134 q-15 -10 -42 -29q-20 0 -63 50q-5 2 -18 5q-54 51 -54 91q0 28 25 50l8 89l3 -80q30 18 90 36l3 74l7 -71l6 2q7 -16 14 -16q5 0 14.5 3t14.5 3q12 0 22 -4l4 48l10 -55q32 -15 75 -45l5 66l3 -79q12 -25 26 -25q2 0 5 1.5t5 1.5q10 0 12 -17q-22 -8 -67 -38q-13 -3 -39 -8 q-3 -48 -46 -45q-3 -7 -5 -16q-6 3 -18 8z" />
<glyph unicode="&#x153;" horiz-adv-x="946" d="M908 -28v13q-11 12 -16 34q-4 18 -7 37q-8 25 -31 59l-28 -7q-3 -11 -46.5 -38t-56.5 -27q5 0 -26 7q-23 -17 -38 -13q-28 -7 -31 -7t-42 11q-10 -3 -29 -9q-10 6 -31 18q-28 -7 -29 -7q-16 0 -30 18l-18 32q13 8 21 11l3 68l8 -62q14 7 44 19l3 52l15 -44q18 5 53 18 l9 34l5 -27q10 8 23 17q16 2 46 8l7 92l6 -90q17 4 51 11q4 3 7 22q2 15 12 14q6 4 6 9q-12 30 -12 44q-34 6 -85 7q-8 5 -20 11q-2 0 -7 -2.5t-7 -2.5q-46 0 -82 18q-7 10 -49 16q-13 9 -21 15q7 6 21 20q11 -1 20 2l8 42l2 -40l49 11l5 66l8 -63l21 5q6 -2 14 -2q6 0 17 4 t17 4l2 51l12 -53q27 -4 26 -4q29 0 53 8l13 44v-39q14 0 50 -17q1 8 9 33q7 20 7 35q-9 5 -25 17q-17 6 -36 6q-12 0 -36.5 -3.5t-36.5 -3.5q-2 0 -7 1t-7 1q-5 0 -18.5 -5.5t-18.5 -5.5q-4 0 -11 1t-11 1q-7 0 -21.5 -3t-21.5 -3q-8 0 -25 1t-25 1q-13 0 -44 -16t-49 -17 q-6 -5 -19 -14q-29 5 -22 5q-3 0 -9.5 -2.5t-5.5 -4.5q-46 29 -54 29q-27 0 -103 -27q-4 -2 -28.5 -4t-29.5 -8l-10 -20q-27 -18 -48 -29q-5 -10 -13 -31q-41 -19 -42 -20q-18 -12 -22 -38q-4 -30 -4 -40q0 -4 4 -10t4 -9q3 -16 3 -47q0 -17 7 -36l12 123l2 -150 q25 -7 46 -28l6 61l6 -71q54 -40 72 -43l7 101v-101q3 3 5 3q5 0 25.5 -11t27.5 -13l13 40l-6 -42q10 -2 15 -2q14 0 34 9l11 79l2 -73q9 5 20 13l1 -4q14 -14 25 -14q9 -13 29 -38q6 -2 17 -6l12 101l-1 -105l7 -1q51 -32 60 -32q37 0 32 1l13 61l-2 -64q8 -3 19 -10 q48 12 65 11l8 41l7 -39q43 6 127 21l-11 69l20 -66q41 14 55 10l4 71l7 -75h2q12 9 39 23q4 0 10.5 -1t10.5 -1zM486 228q0 -17 -24 -35q-12 -8 -37 -25q-14 -3 -21 -3q-1 -4 -2 -12q-23 -15 -30 -25q-7 0 -61 20q-15 -8 -42 -24q-16 0 -63 41q-7 2 -18 4q-54 41 -54 76 q0 26 34 47v66l9 -61q10 3 64 23v63l7 -61q9 2 28 7q8 -14 14 -14q4 0 19 3l8 59l5 -57q22 -2 53 -21l13 36v-42q18 -6 44 -22q2 -5 7 -12l8 58l1 -69q5 -4 9 -5q3 -1 8 0q6 1 9 1q12 0 12 -16z" />
<glyph unicode="&#x178;" horiz-adv-x="508" d="M536 420q0 9 -11 30t-18 22q-8 -7 -24 -19q-5 -60 -4 -72q-4 -9 -14 -24q-4 -11 -10 -33q-15 -17 -48 -48q-19 -41 -32 -41q-24 0 -67 20q-15 7 -65 32q-15 5 -41 18q-7 5 -20 21q-9 3 -26 8q-6 20 -10 25t-23 18q-4 17 -17 43q-6 -1 -29 -26.5t-30 -36.5q7 -11 17 -32 q1 -6 3 -19l12 48v-77l27 -11q14 -6 18 -14q4 -1 13 -5l7 77l3 -82q30 -12 47 -25l15 3l4 -1l3 47l3 -49q10 -12 30 -35l1 52l13 -53q30 -15 56 -15q-54 -34 -71 -34l-7 3q-21 -19 -28.5 -22t-35.5 -3q-4 0 -77 -24q-11 7 -32 22l-36 -21q0 -8 -2.5 -22t-2.5 -21 q7 -18 23 -55q13 4 27 6l6 69l-1 -68q5 1 20 1q6 0 11 -1l2 81l3 -82q10 -4 24 -4q5 0 41 11v86l12 -82q15 4 33 12l33 16l2 62l8 -64h1q4 3 49 48q11 3 33 14l7 106l7 -92q9 9 26 27v41l9 -30q17 17 50 44l-2 91l10 -87h2l47 112q26 69 26 114zM226 554q-30 0 -28 -29 q-7 -4 -7 -14t6.5 -22.5t14.5 -15.5l6 51l3 -56q5 -3 7 -3q48 0 48 42q0 15 -17.5 31t-32.5 16zM382 545q-16 0 -30.5 -13.5t-12.5 -29.5q-1 -2 -5 -5q0 -27 24 -40l6 55l4 -60q5 -2 14 -2h6l8 65l7 -47q11 22 11 33t-11 27.5t-21 16.5z" />
<glyph unicode="&#x2c6;" horiz-adv-x="246" d="M-4 420l26 -26l13 51v-63l11 -10q3 31 20 43l5 77l10 -56q21 28 35 45h9q1 -2 17 -21q4 -2 12 -8l6 29v-35q22 -22 28 -52q7 -9 18 -24l6 4l8 68l2 -55q13 23 17 29q11 10 24 25q0 3 -22.5 22.5t-22.5 25.5q-10 16 -31 49q-18 11 -57 30q-4 0 -41 -33q-75 -67 -93 -115z " />
<glyph unicode="&#x2dc;" horiz-adv-x="426" d="M27 461l3 -12q14 -3 22 -6l8 54l6 -59q15 -7 29 -8q5 4 10 34q4 25 20 25q3 0 8 -1l1 -2h4q2 -1 5 -1l1 -2l6 -2v29l7 -31q8 -3 10 -6q8 -2 37 -28l6 35l3 -42q17 -11 28 -9q4 -4 14.5 -5t12.5 -2q4 0 9 1l10 65l12 -61q7 1 22 10l3 1l2 2l4 70l5 -60q16 24 16 63 q0 19 -6 36q-7 2 -17 2q-8 0 -25 -1t-25 -1q-4 0 -5 -6q-1 -5 0 -13q1 -7 1 -11q0 -32 -38 -32q-29 0 -58 19l-5 1l-2 4l-3 1v3q-32 43 -67 37q-3 1 -6 1q-15 0 -43 -36.5t-28 -52.5z" />
<glyph unicode="&#x2000;" horiz-adv-x="396" />
<glyph unicode="&#x2001;" horiz-adv-x="792" />
<glyph unicode="&#x2002;" horiz-adv-x="396" />
<glyph unicode="&#x2003;" horiz-adv-x="792" />
<glyph unicode="&#x2004;" horiz-adv-x="264" />
<glyph unicode="&#x2005;" horiz-adv-x="198" />
<glyph unicode="&#x2006;" horiz-adv-x="132" />
<glyph unicode="&#x2007;" horiz-adv-x="132" />
<glyph unicode="&#x2008;" horiz-adv-x="99" />
<glyph unicode="&#x2009;" horiz-adv-x="158" />
<glyph unicode="&#x200a;" horiz-adv-x="44" />
<glyph unicode="&#x2010;" horiz-adv-x="426" d="M420 342q0 25 -15 25t-50.5 -11.5t-51.5 -11.5q-5 0 -14 2.5t-14 2.5q-14 0 -42 1t-42 1q-52 0 -64 -5q-8 -6 -25 -13q-2 0 -6 2.5t-6 2.5q-5 0 -18 -7v-57q5 -5 9 -8q11 0 22 4l1 44l2 -44q10 5 39 8t43 2l12 55l4 -54l89 14q5 0 22 -3l4 38l4 -39q3 0 7.5 -1t7.5 -1 q9 0 29 3l5 29l1 -28h1l1 1q27 6 39 6q6 25 6 42z" />
<glyph unicode="&#x2011;" horiz-adv-x="426" d="M420 342q0 25 -15 25t-50.5 -11.5t-51.5 -11.5q-5 0 -14 2.5t-14 2.5q-14 0 -42 1t-42 1q-52 0 -64 -5q-8 -6 -25 -13q-2 0 -6 2.5t-6 2.5q-5 0 -18 -7v-57q5 -5 9 -8q11 0 22 4l1 44l2 -44q10 5 39 8t43 2l12 55l4 -54l89 14q5 0 22 -3l4 38l4 -39q3 0 7.5 -1t7.5 -1 q9 0 29 3l5 29l1 -28h1l1 1q27 6 39 6q6 25 6 42z" />
<glyph unicode="&#x2012;" horiz-adv-x="426" d="M420 342q0 25 -15 25t-50.5 -11.5t-51.5 -11.5q-5 0 -14 2.5t-14 2.5q-14 0 -42 1t-42 1q-52 0 -64 -5q-8 -6 -25 -13q-2 0 -6 2.5t-6 2.5q-5 0 -18 -7v-57q5 -5 9 -8q11 0 22 4l1 44l2 -44q10 5 39 8t43 2l12 55l4 -54l89 14q5 0 22 -3l4 38l4 -39q3 0 7.5 -1t7.5 -1 q9 0 29 3l5 29l1 -28h1l1 1q27 6 39 6q6 25 6 42z" />
<glyph unicode="&#x2013;" horiz-adv-x="426" d="M420 342q0 25 -15 25t-50.5 -11.5t-51.5 -11.5q-5 0 -14 2.5t-14 2.5q-14 0 -42 1t-42 1q-52 0 -64 -5q-8 -6 -25 -13q-2 0 -6 2.5t-6 2.5q-5 0 -18 -7v-57q5 -5 9 -8q9 0 28 5q23 5 29 6l6 36l13 -35h5q22 0 66 8t66 8q8 0 13 -1l14 41l6 -43l11 -2q13 0 38 5.5t38 5.5 q6 25 6 42z" />
<glyph unicode="&#x2014;" horiz-adv-x="530" d="M490 342q0 25 -15 25t-50.5 -11.5t-51.5 -11.5q-5 0 -14 2.5t-14 2.5q-26 0 -77 1t-77 1q-52 0 -64 -5q-8 -6 -25 -13q-2 0 -6 2.5t-6 2.5q-5 0 -18 -7v-57q5 -5 9 -8q16 0 31 6l13 41l1 -38q39 3 116 11l2 49l3 -48q19 8 116 8q3 -1 27 -4l6 33l4 -33q4 -2 8 -2 q13 0 38 5.5t38 5.5q6 25 6 42z" />
<glyph unicode="&#x2018;" horiz-adv-x="262" d="M281 495q0 37 -39 37q-63 0 -63 -38q0 -12 8.5 -49.5t8.5 -65.5q0 -18 -10 -50t-10 -47q6 -1 18 -5l14 34l3 -38q10 1 20 37l13 48q37 74 37 137zM136 479q0 46 -27 46q-14 0 -42 -14q-31 -15 -31 -26q0 -5 5 -15t5 -15q6 -97 2 -145q3 -10 12 -28l4 72l11 -81 q26 4 37 69q4 29 12 88q1 7 6.5 23.5t5.5 25.5z" />
<glyph unicode="&#x2019;" horiz-adv-x="262" d="M281 495q0 37 -39 37q-63 0 -63 -38q0 -12 8.5 -49.5t8.5 -65.5q0 -18 -10 -50t-10 -47q3 -1 7 -2l22 60l-5 -64l6 -3q12 0 16 10q5 26 22 75q37 74 37 137zM136 479q0 46 -27 46q-14 0 -42 -14q-31 -15 -31 -26q0 -5 5 -15t5 -15q6 -97 2 -145q13 -37 26 -37q4 0 7 3 l-1 130l14 -116q11 8 21 67q4 36 9 73q1 6 6.5 23t5.5 26z" />
<glyph unicode="&#x201a;" horiz-adv-x="133" d="M134 89q0 46 -27 46q-14 0 -42 -14q-31 -15 -31 -26q0 -5 5 -15t5 -15q6 -97 2 -145l8 -20l17 74l2 -91q26 4 37 69q4 29 12 88q1 7 6.5 23.5t5.5 25.5z" />
<glyph unicode="&#x201c;" horiz-adv-x="262" d="M281 495q0 37 -39 37q-63 0 -63 -38q0 -12 8.5 -49.5t8.5 -65.5q0 -18 -10 -50t-10 -47q5 -2 19 -5l12 39l3 -43q12 3 21 37q12 46 13 48q37 74 37 137zM136 479q0 46 -27 46q-14 0 -42 -14q-31 -15 -31 -26q0 -4 5 -15t5 -15q6 -100 2 -145q3 -9 6 -15l20 31l-11 -47 q6 -6 11 -6q11 0 26 27l-1 155l12 -113q5 38 13 88q1 6 6.5 23t5.5 26z" />
<glyph unicode="&#x201d;" horiz-adv-x="262" d="M281 495q0 37 -39 37q-63 0 -63 -38q0 -12 8.5 -49.5t8.5 -65.5q0 -18 -10 -50t-10 -47l30 -9h3l22 115l-9 -105q5 26 22 75q37 74 37 137zM136 479q0 46 -27 46q-14 0 -42 -14q-31 -15 -31 -26q0 -5 5 -15t5 -15q6 -97 2 -145q3 -9 11 -26l16 66l6 -74q23 16 33 71 q5 42 10 83q1 6 6.5 23t5.5 26z" />
<glyph unicode="&#x201e;" horiz-adv-x="262" d="M281 495q0 37 -39 37q-63 0 -63 -38q0 -12 8.5 -49.5t8.5 -65.5q0 -18 -10 -50t-10 -47l9 -2l7 25v-27q7 -2 14 -5q16 0 17 13l11 131l1 -85q3 12 29 76q17 42 17 87zM136 479q0 46 -27 46q-14 0 -42 -14q-31 -15 -31 -26q0 -5 5 -15t5 -15q6 -97 2 -145q10 -32 21 -36 l10 69l5 -65q21 21 24 43q7 48 16 109q1 6 6.5 23t5.5 26z" />
<glyph unicode="&#x2022;" horiz-adv-x="247" d="M228 367q0 33 -26.5 63.5t-59.5 24.5q-5 8 -10 8q-37 0 -65.5 -28.5t-28.5 -65.5q0 -27 32 -39l1 77l8 -81q13 -4 38 -14l21 97l-6 -101q8 -2 9 -2q18 0 49 17l-6 62l15 -58q29 18 29 40z" />
<glyph unicode="&#x2026;" horiz-adv-x="714" d="M455 61q0 33 -26.5 63.5t-59.5 24.5q-5 8 -10 8q-37 0 -65.5 -28.5t-28.5 -65.5q0 -21 17 -33q4 -2 36 -15l3 75l14 -81q28 -9 33 -9q11 0 26 6l7 45l12 -37l28 18q14 13 14 29zM676 61q0 33 -26.5 63.5t-59.5 24.5q-5 8 -10 8q-37 0 -65.5 -28.5t-28.5 -65.5 q0 -21 14 -31q8 -6 34 -15l10 106l6 -112q31 -10 41 -10l-9 66l24 -64l-15 -2v-1q23 0 54 20t31 41zM228 57q0 33 -26.5 63.5t-59.5 24.5q-5 8 -10 8q-37 0 -65.5 -28.5t-28.5 -65.5q0 -22 10 -28q0 -1 1 -1l15 49l6 -59q3 -2 39 -15l5 40l7 -44q18 -5 20 -5q9 0 21 4l18 96 l2 -88q46 26 46 49z" />
<glyph unicode="&#x202f;" horiz-adv-x="158" />
<glyph unicode="&#x2039;" horiz-adv-x="307" d="M220 406l60 -64q-15 -2 -42 -12l-1 -1l-6 35l-4 -44q-13 -9 -38 -28l-8 51v-58q-13 -10 -38 -29v-11q12 -6 45 -44q25 -29 63 -35q5 -7 30 -24q-5 -9 -44 -31l-1 46l-7 -50q-3 -2 -37 -34q-7 0 -22 20v91l-10 -78q-20 23 -28 23q-15 9 -44 27l-5 86l-2 -81l-9 6 q-2 7 -21 39q-17 29 -17 34t41 50q81 90 145 116z" />
<glyph unicode="&#x203a;" horiz-adv-x="307" d="M96 406l-60 -64q15 -2 42 -12l1 -1l6 35l4 -44q13 -9 38 -28l8 51v-58q13 -10 38 -29v-11q-12 -6 -45 -44q-25 -29 -63 -35q-12 -9 -30 -24q5 -9 44 -31l1 46l7 -50q3 -2 37 -34q7 0 22 20v91l10 -78q20 23 28 23q15 9 44 27l5 86l2 -81l9 6q2 7 21 39q17 29 17 34 t-41 50q-81 90 -145 116z" />
<glyph unicode="&#x205f;" horiz-adv-x="198" />
<glyph unicode="&#xe000;" horiz-adv-x="470" d="M0 470h470v-470h-470v470z" />
</font>
</defs>
</svg>
