<?xml version="1.0" standalone="no"?>
<!DOCTYPE svg PUBLIC "-//W3C//DTD SVG 1.1//EN" "http://www.w3.org/Graphics/SVG/1.1/DTD/svg11.dtd" >
<svg xmlns="http://www.w3.org/2000/svg">
<metadata></metadata>
<defs>
<font id="cantarellboldoblique" horiz-adv-x="1464" >
<font-face units-per-em="2048" ascent="1514" descent="-534" />
<missing-glyph horiz-adv-x="560" />
<glyph horiz-adv-x="2048" />
<glyph horiz-adv-x="2048" />
<glyph unicode="&#xd;" horiz-adv-x="682" />
<glyph unicode=" "  horiz-adv-x="560" />
<glyph unicode="&#x09;" horiz-adv-x="560" />
<glyph unicode="&#xa0;" horiz-adv-x="560" />
<glyph unicode="!" horiz-adv-x="650" d="M172 -41l81 282h282l-81 -282h-282zM319 417l299 1045h252l-299 -1045h-252z" />
<glyph unicode="&#x22;" horiz-adv-x="795" d="M368 1042l146 510h267l-146 -510h-267zM758 1042l146 510h267l-146 -510h-267z" />
<glyph unicode="#" horiz-adv-x="1402" d="M103 337l66 232h316l78 270h-318l66 232h318l112 391h242l-112 -391h276l112 391h242l-112 -391h316l-66 -232h-316l-78 -270h316l-66 -232h-316l-117 -408h-242l117 408h-276l-117 -408h-242l117 408h-316zM727 569h276l78 270h-276z" />
<glyph unicode="$" horiz-adv-x="1364" d="M313 299l130 191l34 -15q82 -37 141 -50.5t134 -13.5q147 0 217 28t86 86q1 3 1 8q0 26 -39.5 47t-98.5 35t-128 36.5t-128 48.5t-98.5 73t-39.5 109q0 32 10 66q12 42 40 84t74.5 84.5t122 77.5t169.5 52l76 265h249l-71 -248q78 -2 125.5 -10.5t115.5 -28.5l38 -11 l-123 -192l-36 9q-120 34 -243 34q-119 0 -189 -30t-81 -66q-1 -3 -1 -10q0 -28 55 -52.5t133 -47t156.5 -52t133.5 -82t55 -122.5q0 -28 -9 -59q-14 -47 -42 -92.5t-76.5 -92t-128.5 -83t-181 -52.5l-83 -288h-249l80 277q-148 8 -298 73z" />
<glyph unicode="%" horiz-adv-x="1493" d="M85 0l1512 1421h271l-1511 -1421h-272zM426 957q0 58 22 136q43 148 147.5 229.5t219.5 81.5q41 0 78 -9t71.5 -29.5t55 -60.5t20.5 -96q0 -51 -19 -117q-43 -148 -153 -237.5t-238 -89.5q-91 0 -147.5 46t-56.5 146zM615 1014q0 -73 67 -73q97 0 140 148q12 42 12 69 q0 69 -71 69q-96 0 -134 -133q-14 -49 -14 -80zM922 224q0 58 20 128q43 148 153.5 230t231.5 82q87 0 147.5 -44t60.5 -145q0 -55 -20 -124q-43 -149 -146.5 -237.5t-225.5 -88.5q-97 0 -159 47.5t-62 151.5zM1126 275q0 -75 68 -75q97 0 140 148q12 42 12 69q0 69 -71 69 q-98 0 -136 -133q-13 -44 -13 -78z" />
<glyph unicode="&#x26;" horiz-adv-x="1589" d="M203 171q0 51 17 111q21 72 63 141t86 118t105 99t100 76.5t90 58.5q-45 66 -70 124t-25 126q0 49 14 98q46 158 204 258t345 100q139 0 218.5 -62.5t79.5 -164.5q0 -37 -12 -79q-11 -37 -32 -74.5t-42.5 -66t-59 -63t-62 -55.5t-73 -54.5t-69.5 -47t-72 -46.5l200 -307 l423 352l107 -152l-425 -359l223 -343h-315l-125 184q-62 -46 -115.5 -80t-129.5 -72t-163 -58.5t-177 -20.5q-149 0 -228.5 71t-79.5 188zM475 278q0 -60 42 -98.5t116 -38.5q84 0 170.5 43.5t184.5 115.5l-214 316q-64 -41 -101 -67.5t-81.5 -64t-71 -76t-38.5 -81.5 q-7 -24 -7 -49zM824 1083q0 -15 3.5 -29t13.5 -31.5t16.5 -27.5t23.5 -34.5t24 -34.5q151 95 188 125q55 46 68 92q3 12 3 25q0 37 -29 62.5t-85 25.5q-75 0 -140 -43t-81 -99q-5 -18 -5 -31z" />
<glyph unicode="'" horiz-adv-x="405" d="M368 1042l146 510h267l-146 -510h-267z" />
<glyph unicode="(" horiz-adv-x="742" d="M284 140q0 225 60 436q41 141 112 288t158 277t166.5 231.5t164.5 196.5l29 33l174 -107l-33 -37q-282 -317 -428.5 -651t-146.5 -665q0 -228 70 -445l11 -34l-234 -128l-12 36q-91 281 -91 569z" />
<glyph unicode=")" horiz-adv-x="742" d="M-73 -337l31 34q79 88 148.5 178.5t151 224t139 267.5t96.5 303.5t39 337.5q0 226 -69 450l-11 37l234 107l11 -33q90 -278 90 -562q0 -227 -59 -431q-41 -144 -114.5 -294.5t-162 -282.5t-168 -234t-162.5 -194l-32 -36z" />
<glyph unicode="*" horiz-adv-x="1196" d="M370 860l287 127l-215 125l192 223l190 -154l65 281h256l-95 -281l278 154l64 -223l-286 -125l214 -127l-192 -223l-190 154l-65 -280h-256l95 280l-278 -154z" />
<glyph unicode="+" horiz-adv-x="1400" d="M241 548l63 220h501l145 506h230l-145 -506h501l-63 -220h-501l-145 -506h-230l145 506h-501z" />
<glyph unicode="," horiz-adv-x="570" d="M-94 -261l327 472h269l-327 -472h-269z" />
<glyph unicode="-" horiz-adv-x="1210" d="M291 548l64 221h942l-64 -221h-942z" />
<glyph unicode="." horiz-adv-x="570" d="M127 -41l84 292h292l-84 -292h-292z" />
<glyph unicode="/" horiz-adv-x="726" d="M-55 -131l980 1593h257l-980 -1593h-257z" />
<glyph unicode="0" d="M273 435q0 131 46 292q38 133 97 243.5t129 186.5t146.5 132.5t157 88.5t153.5 47t142 15q67 0 130 -13.5t124 -46.5t106 -82.5t72.5 -127t27.5 -174.5q0 -122 -43 -271q-40 -139 -100 -255t-130.5 -195t-148 -138t-158 -92.5t-153.5 -49t-143 -15.5q-67 0 -129.5 14 t-123 48t-104.5 84.5t-71 130t-27 178.5zM536 508q0 -80 23.5 -140.5t62.5 -92.5t82.5 -47.5t90.5 -15.5t99 14.5t112.5 51.5t114.5 92.5t104.5 146t83.5 204.5q32 112 32 198q0 78 -24 136t-64 89t-84 46t-92 15t-99.5 -14t-112 -48.5t-113.5 -87t-102 -137t-79 -190.5 q-35 -120 -35 -220z" />
<glyph unicode="1" d="M305 0l66 231h359l270 942l-348 -108l-37 207l457 149h288l-341 -1190h344l-66 -231h-992z" />
<glyph unicode="2" d="M236 0l38 131q73 117 168 219t187 173t187 132.5t177.5 107t150 86t112 80t55.5 78.5q5 18 5 32q0 68 -75.5 115.5t-195.5 47.5q-164 0 -420 -80l-42 -13l-18 206l41 16q263 100 541 100q214 0 331 -81t117 -212q0 -45 -13 -88q-28 -97 -105 -178t-183 -147.5 t-218 -131.5t-237 -159.5t-212 -201.5h747l-67 -232h-1071z" />
<glyph unicode="3" d="M190 50l134 211l34 -10q196 -56 326 -56q161 0 292 62.5t160 161.5q6 19 6 42q0 27 -10.5 51.5t-39.5 49t-74.5 42t-121 28.5t-173.5 11h-47l66 228h47q115 0 204.5 17.5t140 46.5t77.5 58t36 59q4 12 4 27q0 55 -63 89t-172 34q-163 0 -365 -79l-44 -18l-26 210l39 17 q244 106 488 106q197 0 310.5 -75.5t113.5 -200.5q0 -38 -12 -82q-27 -92 -91.5 -170.5t-152.5 -128.5q141 -71 141 -222q0 -55 -16 -109q-64 -223 -279.5 -359t-508.5 -136q-221 0 -391 80z" />
<glyph unicode="4" horiz-adv-x="1546" d="M207 303l45 158l910 960h341l-254 -886h248l-66 -232h-248l-87 -303h-246l87 303h-730zM590 535h382l165 574z" />
<glyph unicode="5" d="M180 24l115 232l38 -9q140 -31 326 -31q106 0 193 16t142.5 41t95.5 58.5t60 64t29 62.5q7 26 7 47q0 37 -17 69.5t-55.5 63t-113.5 48t-179 17.5q-122 0 -337 -24l-48 -5l214 747h1020l-66 -232h-765l-75 -260q104 8 188 8q118 0 209 -19.5t147.5 -52t92.5 -77.5 t49.5 -91t13.5 -99q0 -62 -18 -124q-19 -65 -53.5 -127.5t-102 -130.5t-157 -119t-226.5 -84t-301 -33q-207 0 -387 36z" />
<glyph unicode="6" d="M296 337q0 110 40 247q244 848 1102 848q56 0 128 -7l38 -4l-84 -230l-41 4q-51 6 -103 6q-114 0 -210 -17t-164 -45t-124.5 -68.5t-92.5 -81.5t-66 -91q155 75 330 75q203 0 305 -94.5t102 -243.5q0 -87 -34 -179.5t-100.5 -178t-155.5 -153.5t-208.5 -108.5 t-249.5 -40.5q-62 0 -116 9t-110 33.5t-96 63.5t-65 105t-25 151zM550 424q0 -95 65.5 -161t177.5 -66q125 0 241 85t150 202q10 34 10 68q0 91 -72.5 145t-181.5 54q-130 0 -238.5 -72t-141.5 -184q-10 -34 -10 -71z" />
<glyph unicode="7" d="M282 0l1062 1179h-875l69 242h1202l-42 -149l-1126 -1272h-290z" />
<glyph unicode="8" d="M252 307q0 47 15 100q32 111 127 212.5t225 168.5q-93 78 -93 199q0 44 13 90q45 155 206.5 259t391.5 104q212 0 317 -67.5t105 -191.5q0 -49 -17 -108q-23 -82 -83.5 -148.5t-161.5 -130.5q155 -99 155 -261q0 -49 -16 -108q-24 -85 -84 -163.5t-147.5 -142 t-211 -101.5t-261.5 -38q-218 0 -349 89.5t-131 237.5zM528 399q0 -80 73.5 -133.5t206.5 -53.5q140 0 243 65.5t130 160.5q9 32 9 59q0 44 -21.5 80.5t-62.5 63.5t-89 46.5t-111 36.5q-146 -38 -246 -115.5t-125 -162.5q-7 -22 -7 -47zM789 1024q0 -27 16 -51t37.5 -40.5 t57.5 -32.5t61.5 -24.5t63.5 -19.5q126 61 182 101.5t70 89.5q6 21 6 39q0 62 -59.5 95.5t-151.5 33.5q-100 0 -180.5 -49t-97.5 -110q-5 -18 -5 -32z" />
<glyph unicode="9" d="M264 -5l85 230l40 -4q41 -5 104 -5q123 0 223.5 19.5t169 49.5t123.5 77t88 92t63 103q-158 -74 -328 -74q-192 0 -301.5 90.5t-109.5 240.5q0 61 19 125q39 136 142.5 250t257 183t323.5 69q61 0 114.5 -9t109 -33.5t95 -63.5t64.5 -104.5t25 -150.5q0 -108 -41 -252 q-46 -160 -114 -290t-152.5 -220.5t-180.5 -156.5t-205 -103.5t-218 -55t-229 -17.5q-67 0 -129 6zM683 902q0 -85 73.5 -141t182.5 -56q127 0 237.5 70.5t138.5 168.5q7 24 7 53q0 89 -68.5 155.5t-178.5 66.5q-121 0 -238 -82t-146 -182q-8 -29 -8 -53z" />
<glyph unicode=":" horiz-adv-x="570" d="M127 -41l84 292h292l-84 -292h-292zM352 742l83 292h292l-83 -292h-292z" />
<glyph unicode=";" horiz-adv-x="570" d="M-94 -261l327 472h269l-327 -472h-269zM352 742l83 292h292l-83 -292h-292z" />
<glyph unicode="&#x3c;" horiz-adv-x="1073" d="M204 507l63 217l1089 470l-70 -246l-741 -326l558 -311l-73 -256z" />
<glyph unicode="=" horiz-adv-x="1400" d="M268 310l66 232h1042l-66 -232h-1042zM398 763l66 232h1042l-66 -232h-1042z" />
<glyph unicode="&#x3e;" horiz-adv-x="1073" d="M75 55l73 256l736 311l-553 326l70 246l821 -470l-63 -217z" />
<glyph unicode="?" horiz-adv-x="1046" d="M258 -41l81 282h282l-81 -282h-282zM386 351l11 41q26 90 68 163t90 121.5t101 89t103.5 73t93.5 64.5t76.5 74t47.5 92q7 25 7 47q0 58 -51 97.5t-178 39.5q-54 0 -123 -13t-117 -31l-43 -16l-27 196l40 17q166 72 362 72q191 0 297 -67.5t106 -199.5q0 -53 -18 -114 q-25 -86 -65.5 -154.5t-87 -113t-98 -82t-101.5 -71.5t-94.5 -71t-81 -91t-55.5 -122l-11 -41h-252z" />
<glyph unicode="@" horiz-adv-x="2100" d="M207 95q0 139 49 309q31 107 73 207.5t105.5 205.5t140 195t179.5 170t220.5 136.5t266.5 89t314 32.5q663 0 663 -533q0 -163 -62 -377q-47 -164 -117 -291t-140 -199.5t-148.5 -118.5t-138 -61.5t-112.5 -15.5q-87 0 -145 41.5t-76 113.5q-138 -60 -267 -60 q-174 0 -261 95.5t-87 248.5q0 93 31.5 194t92.5 194t141.5 167.5t188.5 119.5t224 45q112 0 209 -44l32 50h183l-217 -757q-26 -89 -26 -130q0 -61 59 -61q24 0 58.5 20t80 65.5t94 140t85.5 223.5q48 165 48 290q0 91 -26 161t-83.5 124.5t-157 83t-238.5 28.5 q-119 0 -227 -26.5t-192.5 -71.5t-159 -107.5t-128.5 -129.5t-99 -143.5t-73.5 -144.5t-47.5 -136q-36 -128 -36 -232q0 -215 131.5 -332.5t335.5 -117.5q147 0 292 63l41 17l46 -190l-42 -19q-211 -95 -426 -95q-54 0 -109.5 6t-121 23.5t-123.5 44t-113.5 70.5t-95.5 101 t-64 139t-24 179zM911 354q0 -99 58 -151.5t156 -52.5q81 0 168 36l167 581q-76 32 -154 32q-127 0 -229 -85t-147 -239q-19 -66 -19 -121z" />
<glyph unicode="A" horiz-adv-x="1547" d="M130 0l970 1421h276l155 -1421h-259l-52 372h-580l-266 -372h-244zM793 603h405l-51 527z" />
<glyph unicode="B" horiz-adv-x="1588" d="M290 0l407 1421h542q100 0 177 -17t122.5 -43.5t74.5 -63.5t39.5 -73t10.5 -76q0 -43 -13 -89q-19 -68 -76.5 -138t-127.5 -118q76 -35 118 -103t42 -153q0 -49 -15 -101q-9 -33 -25.5 -67.5t-48.5 -79.5t-74 -85.5t-106 -80.5t-139.5 -68.5t-180.5 -46.5t-224 -18h-503z M609 232h224q40 0 68.5 0.5t80 4.5t89.5 11.5t84.5 22.5t79.5 36t60.5 53.5t39.5 73.5q7 22 7 45q0 83 -96 129.5t-267 46.5q-8 0 -252 -11zM776 815q219 5 311 21q232 41 276 194q7 26 7 47q0 132 -248 132h-233z" />
<glyph unicode="C" horiz-adv-x="1615" d="M445 492q0 104 33 217q44 154 137 286t223 229t299.5 152t357.5 55q225 0 403 -79l32 -15l-141 -216l-34 13q-175 65 -332 65q-124 0 -241 -40.5t-206 -108.5t-153 -156t-91 -184q-19 -68 -19 -126q0 -161 123 -263.5t347 -102.5q164 0 344 58l41 13l25 -200l-42 -16 q-243 -93 -485 -93q-302 0 -461.5 140.5t-159.5 371.5z" />
<glyph unicode="D" horiz-adv-x="1770" d="M298 0l407 1421h504q146 0 259.5 -24.5t186 -66t119.5 -101t66 -124.5t19 -141q0 -96 -33 -212q-26 -92 -65.5 -177.5t-103.5 -174t-143.5 -159t-191 -127t-242.5 -83.5q-67 -14 -146 -21.5t-129 -8.5t-139 -1h-368zM617 232h183q69 0 115 2t121.5 14t133.5 33.5t126 65 t123 105.5q101 115 144 267q22 79 22 145q0 73 -25.5 131.5t-69 95.5t-94.5 59.5t-110 31.5q-48 7 -136 7h-259z" />
<glyph unicode="E" horiz-adv-x="1447" d="M290 0l407 1421h997l-66 -232h-744l-98 -341h689l-66 -232h-689l-110 -384h744l-67 -232h-997z" />
<glyph unicode="F" horiz-adv-x="1412" d="M290 0l407 1421h987l-66 -232h-734l-98 -341h674l-66 -232h-674l-177 -616h-253z" />
<glyph unicode="G" horiz-adv-x="1755" d="M387 495q0 104 31 214q32 113 93.5 218t153.5 197t204 160.5t254.5 108t297.5 39.5q282 0 472 -126l30 -20l-162 -198l-31 19q-62 36 -160 64.5t-206 28.5q-143 0 -283.5 -55.5t-252.5 -167.5t-154 -258q-20 -67 -20 -135q0 -168 126 -269.5t338 -101.5q184 0 325 83 l78 273h-445l64 222h692l-168 -585q-273 -226 -657 -226q-132 0 -237.5 27.5t-176 74.5t-117.5 113t-68 140.5t-21 159.5z" />
<glyph unicode="H" horiz-adv-x="1764" d="M290 0l407 1421h252l-164 -572h760l164 572h252l-407 -1421h-252l177 617h-760l-177 -617h-252z" />
<glyph unicode="I" horiz-adv-x="812" d="M320 0l407 1421h252l-407 -1421h-252z" />
<glyph unicode="J" horiz-adv-x="1117" d="M115 18l106 222l39 -10q58 -15 128 -15q66 0 123 12.5t96.5 31t73 46.5t53.5 53t36.5 57.5t24 52.5t14.5 45l260 908h252l-260 -910q-15 -54 -33 -100t-48.5 -101.5t-67.5 -100t-92.5 -88.5t-121 -73t-155.5 -47t-194 -18q-108 0 -199 25z" />
<glyph unicode="K" horiz-adv-x="1581" d="M290 0l407 1421h252l-186 -651l834 651h323l-878 -680l507 -741h-327l-483 688l-197 -688h-252z" />
<glyph unicode="L" horiz-adv-x="1297" d="M290 0l407 1421h252l-341 -1190h720l-66 -231h-972z" />
<glyph unicode="M" horiz-adv-x="2048" d="M290 0l407 1421h306l238 -816l713 816h291l-407 -1421h-252l305 1063l-592 -656h-238l-214 656l-305 -1063h-252z" />
<glyph unicode="N" horiz-adv-x="1823" d="M290 0l407 1421h278l480 -1092l313 1092h252l-407 -1421h-281l-476 1094l-314 -1094h-252z" />
<glyph unicode="O" horiz-adv-x="1850" d="M383 477q0 107 35 230q63 219 206.5 385.5t339 255t414.5 88.5q268 0 423.5 -130t155.5 -359q0 -104 -34 -221q-62 -218 -205.5 -386.5t-342 -261.5t-421.5 -93q-121 0 -224 31t-181 91t-122 155t-44 215zM656 564q0 -162 103.5 -255t275.5 -93q89 0 181 29t179 86 t158 155t107 223q25 87 25 160q0 85 -32.5 151.5t-87 105.5t-121.5 59t-142 20q-91 0 -183 -28.5t-178.5 -84.5t-155.5 -150.5t-104 -214.5q-25 -87 -25 -163z" />
<glyph unicode="P" horiz-adv-x="1503" d="M290 0l407 1421h510q51 0 85.5 -1t91.5 -6.5t97 -15.5t86 -30.5t74.5 -48.5t48 -72t19.5 -99q0 -58 -20 -127q-26 -90 -70 -162.5t-95.5 -121t-120.5 -84t-134 -55.5t-147.5 -31.5t-149 -15t-150.5 -3.5q-42 0 -122 4l-158 -552h-252zM767 784q77 -5 139 -5 q83 0 141.5 3.5t126.5 16t113.5 35t83 63t53.5 97.5q8 27 8 54q0 36 -19 62.5t-48.5 41.5t-77 23.5t-92 11t-105.5 2.5h-207z" />
<glyph unicode="Q" horiz-adv-x="1870" d="M382 477q0 108 35 228q96 333 361.5 532t599.5 199q151 0 264.5 -39.5t180 -109.5t98.5 -158t32 -193q0 -178 -83.5 -365.5t-220.5 -322.5l135 -173l-190 -148l-148 182q-226 -124 -482 -124q-267 0 -424.5 129.5t-157.5 362.5zM655 561q0 -165 110.5 -255t286.5 -90 q131 0 251 53l-257 269l222 155l244 -271q92 106 138 265q29 101 29 184q0 75 -24 135t-62 96.5t-89.5 60t-102 33t-104.5 9.5q-88 0 -178 -28t-176.5 -83.5t-157 -151.5t-105.5 -219q-25 -87 -25 -162z" />
<glyph unicode="R" horiz-adv-x="1601" d="M290 0l407 1421h605q402 0 402 -266q0 -62 -22 -141q-41 -144 -148.5 -257.5t-283.5 -162.5l259 -594h-328l-240 551h-241l-158 -551h-252zM767 783h232q77 0 134 7t117.5 27.5t101.5 64t60 109.5q9 31 9 58q0 141 -259 141h-279z" />
<glyph unicode="S" horiz-adv-x="1525" d="M267 93l154 242l35 -15q228 -90 391 -90q154 0 263 47t131 124q5 20 5 33q0 43 -38 76t-99 56t-134 44t-146.5 47.5t-134.5 59.5t-99 86t-38 121q0 41 13 86q52 180 263 302t505 122q199 0 376 -59l38 -12l-149 -232l-35 11q-168 50 -315 50t-265 -48t-140 -123 q-4 -13 -4 -27q0 -39 37.5 -70.5t98 -54t133.5 -44.5t145.5 -50t133 -63t98 -90t37.5 -124q0 -39 -14 -89q-17 -60 -54.5 -118.5t-102 -115.5t-148 -99.5t-202 -69t-255.5 -26.5t-239 25.5t-212 73.5z" />
<glyph unicode="T" horiz-adv-x="1374" d="M426 1189l66 232h1284l-66 -232h-516l-341 -1189h-252l341 1189h-516z" />
<glyph unicode="U" horiz-adv-x="1737" d="M396 292q0 23 2.5 46.5t7.5 48.5t8.5 40t10.5 40.5t8 30.5l264 923h252l-258 -901q-21 -77 -21 -119q0 -59 32 -99q72 -93 267 -93q107 0 191 28t129.5 64.5t77 85t41 76t15.5 51.5q1 5 1 6l258 901h250l-258 -910q-14 -47 -27.5 -84.5t-43.5 -95.5t-66.5 -102.5 t-96.5 -93.5t-133 -81t-177 -53t-227 -21q-507 0 -507 312z" />
<glyph unicode="V" horiz-adv-x="1565" d="M547 1421h289l89 -1150l746 1150h274l-957 -1421h-299z" />
<glyph unicode="W" horiz-adv-x="2411" d="M547 1421h266l14 -1092l724 1092h232l25 -1092l713 1092h266l-952 -1421h-241l-30 1087l-714 -1087h-241z" />
<glyph unicode="X" horiz-adv-x="1532" d="M110 0l775 741l-306 680h304l238 -502l511 502h295l-694 -677l342 -744h-319l-256 566l-580 -566h-310z" />
<glyph unicode="Y" horiz-adv-x="1427" d="M507 1421h298l222 -551l546 551h288l-762 -757l-190 -664h-283l190 664z" />
<glyph unicode="Z" horiz-adv-x="1522" d="M155 0l44 155l1194 1034h-867l66 232h1250l-43 -153l-1215 -1036h945l-67 -232h-1307z" />
<glyph unicode="[" horiz-adv-x="788" d="M80 -451l574 2003h540l-66 -231h-294l-442 -1541h294l-66 -231h-540z" />
<glyph unicode="\" horiz-adv-x="726" d="M382 1462h257l66 -1593h-257z" />
<glyph unicode="]" horiz-adv-x="778" d="M-90 -451l66 231h294l442 1541h-294l66 231h540l-574 -2003h-540z" />
<glyph unicode="^" horiz-adv-x="1479" d="M741 1244l444 357l212 -348l-193 -145l-119 194l-233 -193z" />
<glyph unicode="_" horiz-adv-x="1160" d="M97 -41l67 232h942l-67 -232h-942z" />
<glyph unicode="`" horiz-adv-x="1122" d="M633 1448l169 195l473 -353l-155 -178z" />
<glyph unicode="a" horiz-adv-x="1222" d="M188 208q0 31 8 58q26 89 96.5 150t179.5 92.5t223 44.5t260 15l9 32q11 38 11 62q0 102 -199 102q-110 0 -304 -44l-43 -11l6 197l38 12q201 64 398 64q370 0 370 -229q0 -51 -20 -121l-182 -632h-184l-9 65q-155 -85 -323 -85q-157 0 -246 65t-89 163zM460 274 q0 -32 49.5 -57.5t127.5 -25.5q118 0 227 60l38 131h-24q-198 0 -300 -22.5t-117 -75.5q-1 -3 -1 -10z" />
<glyph unicode="b" horiz-adv-x="1333" d="M185 0l434 1511h246l-164 -572q139 44 271 44q62 0 117 -10t107 -33.5t89.5 -59.5t60 -91.5t22.5 -126.5q0 -74 -27 -170q-68 -240 -254 -376t-437 -136q-149 0 -260 52l-23 -32h-182zM494 219q94 -28 188 -28q45 0 88.5 6.5t95 25.5t93.5 48.5t78 80t55 115.5 q16 57 16 102q0 47 -17 83t-43.5 57t-63 34t-70.5 17.5t-71 4.5q-99 0 -201 -31z" />
<glyph unicode="c" horiz-adv-x="1147" d="M233 296q0 75 26 165q33 114 90 204t127 148.5t155.5 97t171 54.5t177.5 16q167 0 289 -62l30 -15l-119 -193l-34 13q-90 34 -203 34q-358 0 -434 -267q-15 -54 -15 -96q0 -198 310 -198q92 0 187 30l42 12l12 -187l-41 -14q-163 -58 -333 -58q-72 0 -134 9.5t-119 32 t-97 58t-64 90.5t-24 126z" />
<glyph unicode="d" horiz-adv-x="1338" d="M234 300q0 76 26 166q71 248 258 382.5t434 134.5q115 0 219 -34l161 562h246l-433 -1511h-182l-7 46q-161 -66 -324 -66q-80 0 -149 17t-126 53.5t-90 100t-33 149.5zM494 393q0 -57 24.5 -97.5t65.5 -61t83.5 -29t90.5 -8.5q97 0 207 34l147 513q-96 28 -191 28 q-44 0 -86.5 -6t-94.5 -25t-94.5 -49t-80 -82.5t-56.5 -120.5q-15 -54 -15 -96z" />
<glyph unicode="e" horiz-adv-x="1240" d="M232 296q0 73 24 156q38 134 115 238t174.5 166.5t204 94t216.5 31.5q322 0 322 -261q0 -89 -44 -246l-32 -110h-724q1 -70 81.5 -121t236.5 -51q111 0 234 34l43 11l-6 -189l-39 -12q-179 -57 -363 -57q-123 0 -212 25t-138 70t-71 99.5t-22 121.5zM549 571h487 q7 37 7 56q0 131 -181 131q-112 0 -195 -53.5t-118 -133.5z" />
<glyph unicode="f" horiz-adv-x="960" d="M-307 -480l96 196l38 -10q82 -22 138 -22q236 0 279 153l262 915h-159l61 211h159l18 63q10 35 16.5 56t21 58t28.5 61t38 57t50.5 55t65 46t82.5 38t102 23t124 9q123 0 246 -41l33 -11l-99 -204l-38 11q-85 26 -137 26q-234 0 -284 -173l-21 -74h385l-61 -211h-385 l-260 -908q-37 -130 -85 -197q-126 -178 -436 -178q-123 0 -246 40z" />
<glyph unicode="g" horiz-adv-x="1326" d="M57 -458l131 194l36 -15q116 -43 240 -43q311 0 414 267q4 9 27 80q-137 -45 -262 -45q-82 0 -152.5 18.5t-129 56.5t-92 104.5t-33.5 153.5q0 76 26 166q32 110 93.5 199t134 144.5t157 93t159 52.5t143.5 15q128 0 258 -63l28 43h185l-285 -992q-22 -75 -55 -142 t-91.5 -137t-133 -119.5t-185.5 -81.5t-243 -32q-188 0 -338 67zM507 401q0 -93 63 -148.5t189 -55.5q94 0 205 35l143 500q-114 36 -207 36q-136 0 -239.5 -74t-139.5 -199q-14 -51 -14 -94z" />
<glyph unicode="h" horiz-adv-x="1328" d="M185 0l434 1511h246l-172 -599q197 69 349 69q294 0 294 -238q0 -77 -35 -195l-157 -548h-244l160 559q12 38 12 70q0 124 -171 124q-115 0 -269 -53l-201 -700h-246z" />
<glyph unicode="i" horiz-adv-x="606" d="M180 0l283 988h246l-283 -988h-246zM495 1150l77 271h276l-77 -271h-276z" />
<glyph unicode="j" horiz-adv-x="601" d="M-83 -350l42 18q155 66 198 219l316 1101h246l-311 -1084q-14 -50 -27 -85.5t-45 -92t-73 -98.5t-111 -86.5t-159 -73.5l-37 -12zM504 1150l78 271h276l-78 -271h-276z" />
<glyph unicode="k" horiz-adv-x="1225" d="M176 0l433 1511h246l-264 -920l582 417h297l-635 -452l361 -556h-302l-331 492l-141 -492h-246z" />
<glyph unicode="l" horiz-adv-x="646" d="M200 0l433 1511h246l-433 -1511h-246z" />
<glyph unicode="m" horiz-adv-x="1958" d="M176 0l276 963h183l9 -65q198 84 367 84q170 0 236 -99q210 98 419 98q159 0 228 -60t69 -170q0 -72 -30 -179l-163 -572h-246l161 564q11 41 11 71q0 114 -161 114q-92 0 -250 -52q-5 -49 -30 -136l-160 -561h-246l162 568q11 41 11 67q0 114 -157 114q-87 0 -244 -52 l-199 -697h-246z" />
<glyph unicode="n" horiz-adv-x="1314" d="M176 0l276 963h172l14 -68q229 88 402 88q285 0 285 -227q0 -75 -32 -187l-163 -569h-246l161 562q13 48 13 76q0 115 -167 115q-112 0 -269 -53l-200 -700h-246z" />
<glyph unicode="o" horiz-adv-x="1359" d="M238 316q0 72 24 156q68 235 256.5 372.5t445.5 137.5q199 0 313.5 -86.5t114.5 -246.5q0 -72 -23 -150q-69 -240 -261.5 -379.5t-449.5 -139.5q-198 0 -309 88.5t-111 247.5zM499 413q0 -94 65 -152.5t179 -58.5q128 0 234.5 73.5t141.5 195.5q13 43 13 83 q0 98 -72.5 152t-174.5 54q-119 0 -228.5 -69.5t-145.5 -194.5q-12 -44 -12 -83z" />
<glyph unicode="p" horiz-adv-x="1327" d="M23 -531l429 1494h182l9 -47q170 66 328 66q61 0 115.5 -10t105.5 -33.5t88 -59t59.5 -91.5t22.5 -126q0 -75 -27 -171q-68 -239 -253 -375t-431 -136q-115 0 -215 34l-157 -545h-256zM495 220q97 -29 187 -29q56 0 111 12t115 40.5t107.5 86t70.5 137.5q16 57 16 103 q0 57 -24 97.5t-64.5 60.5t-81.5 28t-88 8q-98 0 -203 -33z" />
<glyph unicode="q" horiz-adv-x="1316" d="M234 301q0 81 27 175q36 124 108 223t164 160t195.5 92.5t209.5 31.5q128 0 266 -63l31 43h175l-429 -1494h-246l160 557q-142 -46 -271 -46q-79 0 -146 17t-123 53t-88.5 100t-32.5 151zM492 393q0 -57 24 -97t64.5 -60.5t82 -29t88.5 -8.5q95 0 203 34l143 500 q-115 36 -208 36q-137 0 -241 -74.5t-141 -203.5q-15 -56 -15 -97z" />
<glyph unicode="r" horiz-adv-x="933" d="M176 0l276 963h164l14 -53q173 72 346 72q110 0 189 -43l29 -16l-134 -203l-34 14q-63 26 -141 26q-130 0 -259 -45l-204 -715h-246z" />
<glyph unicode="s" horiz-adv-x="1169" d="M148 73l129 196l33 -14q157 -64 294 -64q245 0 273 99q0 1 0.5 3.5t0.5 3.5q0 24 -39.5 43.5t-98 32.5t-127.5 34.5t-127.5 46t-98 69t-39.5 102.5q0 27 9 58q11 38 36 76.5t74.5 79.5t116 72t168 51t222.5 20q71 0 126 -7.5t77 -13.5t66 -21l38 -12l-126 -201l-35 9 q-118 36 -238 36q-75 0 -130.5 -11.5t-82.5 -29.5t-38.5 -31.5t-15.5 -25.5q-1 -3 -1 -8q0 -25 55 -47t133 -43t156.5 -48t133.5 -76.5t55 -115.5q0 -23 -8 -52q-12 -42 -35.5 -80.5t-70.5 -80.5t-111.5 -72.5t-164 -50.5t-221.5 -20q-190 0 -356 78z" />
<glyph unicode="t" horiz-adv-x="924" d="M281 169q0 56 24 138l128 445h-149l60 211h150l88 308h246l-88 -308h354l-61 -211h-354l-122 -424q-5 -20 -5 -38q0 -43 33 -71.5t111 -28.5q26 0 148 19l40 7l-16 -188l-40 -10q-156 -38 -253 -38q-162 0 -228 50t-66 139z" />
<glyph unicode="u" horiz-adv-x="1328" d="M257 209q0 78 31 185l164 569h246l-162 -563q-12 -40 -12 -73q0 -118 173 -118q115 0 276 53l201 701h246l-276 -963h-183l-10 67q-222 -87 -405 -87q-289 0 -289 229z" />
<glyph unicode="v" horiz-adv-x="1144" d="M340 963h284l52 -709l454 709h258l-662 -963h-259z" />
<glyph unicode="w" horiz-adv-x="1891" d="M335 963h256l26 -714l505 714h215l23 -716l517 716h264l-744 -963h-218l-29 692l-503 -692h-218z" />
<glyph unicode="x" horiz-adv-x="1205" d="M75 0l525 474l-260 489h290l191 -352l382 352h277l-546 -490l250 -473h-291l-183 332l-359 -332h-276z" />
<glyph unicode="y" horiz-adv-x="1214" d="M116 -531l392 514l-183 980h282l109 -746l502 746h259l-1061 -1494h-300z" />
<glyph unicode="z" horiz-adv-x="1218" d="M146 0l37 127l722 625h-543l60 211h895l-37 -127l-730 -625h575l-60 -211h-919z" />
<glyph unicode="{" horiz-adv-x="828" d="M177 445l59 208l36 5q42 7 80 25t66 40t54 56t43 62t35 68.5t27 64.5t22.5 61t17.5 49q42 111 102.5 197t118 134t122.5 80t109 43t85 14l36 3l-12 -208l-46 -6q-51 -7 -100 -34.5t-86 -66.5q-43 -46 -77.5 -118t-60 -145.5t-57.5 -149.5t-88.5 -150t-134.5 -128 q69 -77 69 -204q0 -72 -29.5 -212.5t-29.5 -196.5q0 -42 12 -77q15 -39 48.5 -66.5t79.5 -34.5l43 -6l-108 -208l-34 3q-30 2 -61.5 10t-73.5 30.5t-73.5 56.5t-54 94.5t-22.5 137.5q0 60 13 126q4 23 16.5 78.5t19 96.5t6.5 76q0 96 -55 146q-35 32 -85 41z" />
<glyph unicode="|" horiz-adv-x="884" d="M219 -349l571 1991h246l-571 -1991h-246z" />
<glyph unicode="}" horiz-adv-x="828" d="M-47 -456l12 208l47 6q51 7 100 34.5t86 66.5q43 46 76.5 117.5t59 144.5t57.5 149t88 150.5t135 128.5q-68 77 -68 200q0 72 30 214t30 198q0 47 -12 79q-15 39 -48.5 66.5t-79.5 34.5l-44 6l108 208l34 -3q33 -3 66 -11.5t74 -31.5t71 -57t51 -93.5t21 -135.5 q0 -66 -14 -139q-3 -14 -11 -52t-13 -62.5t-9.5 -60t-4.5 -64.5q0 -163 139 -187l32 -5l-59 -208l-36 -5q-49 -8 -91.5 -29t-74 -53.5t-55.5 -64.5t-44.5 -77.5t-33 -76t-27.5 -75.5t-22 -62q-42 -108 -104 -192.5t-120 -131t-123.5 -77.5t-107.5 -41t-79 -13z" />
<glyph unicode="~" horiz-adv-x="1400" d="M657 1221l21 43q4 8 17 36t20 41.5t22 41t25.5 43.5t28.5 40t33.5 38.5t37.5 31.5t44 26t49.5 15.5t56.5 6.5q51 -2 92 -22t66 -46.5t44 -52.5t34.5 -44t29.5 -18q15 0 32.5 21.5t31 47.5t31.5 65q5 12 8 18l18 39l182 -30l-21 -42q-4 -9 -17 -36t-20 -41.5t-21.5 -41.5 t-25.5 -43.5t-29 -40.5t-33.5 -38.5t-37.5 -31.5t-44 -26.5t-49.5 -16t-56.5 -6.5q-51 2 -92 22t-65.5 46.5t-43.5 52.5t-35 44t-30 18q-13 0 -25.5 -11t-28.5 -40t-22.5 -42.5t-25.5 -53.5l-18 -39z" />
<glyph unicode="&#xa1;" horiz-adv-x="650" d="M70 -451l388 1355h252l-388 -1355h-252zM494 1080l81 282h282l-81 -282h-282z" />
<glyph unicode="&#xa2;" horiz-adv-x="1021" d="M283 521q0 89 30 192q64 222 208.5 369.5t344.5 187.5l81 282h203l-78 -272q95 -9 200 -59l31 -15l-121 -195l-35 13q-92 36 -194 36q-149 0 -247.5 -80.5t-141.5 -232.5q-23 -78 -23 -140q0 -60 21 -102.5t58.5 -64t77 -30.5t86.5 -9q85 0 181 31l43 13l12 -189l-41 -14 q-126 -44 -220 -52l-84 -296h-203l86 300q-127 24 -201 105.5t-74 221.5z" />
<glyph unicode="&#xa3;" horiz-adv-x="1300" d="M99 -41l62 217h244l128 445h-176l62 217h176l29 100q35 121 93.5 215.5t126.5 153t149 97t156.5 53.5t154.5 15q121 0 236 -40l38 -13l-134 -197l-33 9q-80 23 -147 23q-74 0 -134 -18t-101.5 -48t-74.5 -75.5t-54 -93t-38 -108.5l-21 -73h530l-62 -217h-530l-128 -445 h588l-62 -217h-1078z" />
<glyph unicode="&#xa4;" horiz-adv-x="1300" d="M243 402l223 173q-6 31 -6 62q0 140 101 271l-124 174l236 183l125 -175q90 38 175 38q88 0 156 -38l222 173l131 -183l-224 -173q6 -31 6 -62q0 -139 -100 -269l123 -172l-236 -183l-122 172q-90 -38 -178 -38q-90 0 -155 37l-222 -173zM696 695q0 -51 33 -84t86 -33 q65 0 125.5 48t79.5 115q7 24 7 48q0 51 -32.5 83.5t-84.5 32.5q-65 0 -126 -47.5t-81 -116.5q-7 -22 -7 -46z" />
<glyph unicode="&#xa5;" horiz-adv-x="1300" d="M307 208l59 207h275l34 118h-275l59 207h238l-206 722h281l138 -558l467 558h271l-634 -722h251l-59 -207h-289l-34 -118h289l-59 -207h-289l-72 -249h-242l72 249h-275z" />
<glyph unicode="&#xa6;" horiz-adv-x="884" d="M219 -349l244 850h246l-244 -850h-246zM547 796l243 846h246l-243 -846h-246z" />
<glyph unicode="&#xa7;" horiz-adv-x="1136" d="M114 22l131 199l35 -13q148 -58 273 -58q234 0 274 136q2 6 2 17q0 30 -35 53.5t-87 39.5t-113.5 39t-113.5 50t-87 75t-35 111q0 41 12 81q30 103 125 190q-29 46 -29 107q0 55 23 113t72.5 114.5t119 100.5t172 71t221.5 27q34 0 65 -2.5t50.5 -4.5t47.5 -8.5 t36.5 -8.5t37.5 -11t32 -10l39 -11l-132 -210l-35 12q-108 37 -228 37q-93 0 -161 -30.5t-82 -79.5q-2 -5 -2 -16q0 -29 35.5 -54.5t89 -43.5t115.5 -44t115.5 -54.5t89 -76.5t35.5 -108q0 -33 -10 -69q-34 -116 -127 -205q29 -46 29 -101q0 -29 -11 -70q-14 -48 -40 -95 t-75 -97.5t-113 -88t-159.5 -62t-208.5 -24.5h-13q-193 0 -347 68zM634 756q0 -20 14.5 -37t46 -33t58.5 -27t75.5 -28.5t74.5 -27.5q21 23 32 59q3 9 3 17q0 20 -14.5 37t-44.5 31t-58.5 24.5t-75.5 25.5t-75 26q-27 -25 -34 -52q-2 -5 -2 -15z" />
<glyph unicode="&#xa8;" horiz-adv-x="1200" d="M584 1194l77 268h267l-77 -268h-267zM1033 1194l77 268h267l-77 -268h-267z" />
<glyph unicode="&#xa9;" horiz-adv-x="1760" d="M296 485q0 99 29 198q42 145 138 280t223.5 236t285.5 161.5t315 60.5q257 0 413 -152.5t156 -387.5q0 -94 -29 -198q-42 -147 -139.5 -283t-226 -236t-285.5 -159.5t-312 -59.5q-257 0 -412.5 152.5t-155.5 387.5zM520 543q0 -167 111 -275.5t295 -108.5q147 0 291.5 72 t249.5 192.5t145 259.5q20 69 20 140q0 167 -111 275.5t-295 108.5q-147 0 -291.5 -72t-249.5 -192.5t-145 -259.5q-20 -69 -20 -140zM689 529q0 65 23 144q33 114 91.5 199t129.5 132t143 69.5t144 22.5q113 0 205 -47l29 -15l-102 -161l-35 13q-64 26 -136 26 q-203 0 -266 -218q-16 -56 -16 -100q0 -137 164 -137q61 0 130 22l42 13l12 -158l-41 -14q-120 -42 -231 -42q-55 0 -103.5 13t-91 41t-67 78.5t-24.5 118.5z" />
<glyph unicode="&#xaa;" horiz-adv-x="760" d="M400 855q0 27 9 60q18 63 51.5 105t86.5 65t115 32t150 10q7 28 7 41q0 66 -91 66q-80 0 -168 -26l-27 -8l4 119l23 7q114 38 217 38q200 0 200 -142q0 -35 -15 -91l-114 -396h-112l-4 36q-81 -54 -154 -54q-81 0 -129.5 36t-48.5 102zM554 904q0 -22 19.5 -39.5 t57.5 -17.5q58 0 119 63l24 84h-3q-100 0 -151.5 -17.5t-63.5 -59.5q-2 -8 -2 -13z" />
<glyph unicode="&#xab;" horiz-adv-x="1078" d="M204 623l400 406h288l-421 -406l188 -406h-288zM675 623l400 406h288l-421 -406l188 -406h-288z" />
<glyph unicode="&#xac;" horiz-adv-x="1400" d="M239 542l67 231h1232l-153 -532h-230l86 301h-1002z" />
<glyph unicode="&#xad;" horiz-adv-x="1074" d="M336 548l64 221h716l-64 -221h-716z" />
<glyph unicode="&#xae;" horiz-adv-x="1232" d="M343 896q0 70 21 147q42 148 152.5 273t258.5 197.5t296 72.5q186 0 301.5 -111.5t115.5 -284.5q0 -72 -22 -147q-42 -148 -152.5 -273t-258.5 -197.5t-296 -72.5q-189 0 -302.5 111.5t-113.5 284.5zM510 941q0 -122 81 -201t215 -79q143 0 276 90h-150l-41 208h-71 l-60 -208h-143l171 594h247q159 0 159 -120q0 -27 -11 -67q-14 -51 -50 -98.5t-96 -74.5l51 -230q114 79 172.5 182t58.5 206q0 121 -78 201.5t-216 80.5q-162 0 -308.5 -113t-191.5 -269q-15 -53 -15 -102zM856 1086q29 0 41.5 -0.5t24.5 -0.5q56 0 83 14.5t37 47.5 q4 13 4 25q0 24 -20 33.5t-62 9.5h-71z" />
<glyph unicode="&#xaf;" horiz-adv-x="1400" d="M660 1450l66 231h912l-66 -231h-912z" />
<glyph unicode="&#xb0;" horiz-adv-x="589" d="M377 1161q0 33 11 74q31 109 130 187t206 78q87 0 141.5 -53.5t54.5 -137.5q0 -33 -11 -74q-31 -110 -130 -188t-206 -78q-87 0 -141.5 54t-54.5 138zM557 1205q0 -28 16 -45.5t49 -17.5q36 0 69 28t44 65q4 12 4 27q0 29 -17 47t-46 18q-51 0 -85 -39t-34 -83z" />
<glyph unicode="&#xb1;" horiz-adv-x="1400" d="M210 109l63 219h1042l-63 -219h-1042zM417 831l63 219h407l118 412h228l-118 -412h407l-63 -219h-407l-118 -411h-228l118 411h-407z" />
<glyph unicode="&#xb2;" horiz-adv-x="800" d="M332 733l27 94q50 84 117.5 157.5t127.5 120.5t113.5 85t89.5 68t42 53q2 10 2 15q0 28 -25.5 49t-71.5 21q-56 0 -192 -49l-25 -9l-17 135l24 10q150 66 270 66q97 0 156 -45.5t59 -121.5q0 -30 -8 -57q-15 -53 -51.5 -99t-85 -83.5t-99.5 -73t-108 -83.5t-97 -98h329 l-45 -155h-532z" />
<glyph unicode="&#xb3;" horiz-adv-x="800" d="M318 780l88 140l21 -6q100 -30 156 -30q60 0 112.5 29.5t65.5 74.5q4 13 4 26q0 75 -176 75h-25l44 153h25q171 0 195 82q2 8 2 12q0 22 -21 37.5t-63 15.5q-63 0 -172 -44l-26 -11l-18 140l24 11q145 61 248 61q98 0 150 -45.5t52 -114.5q0 -52 -29.5 -106t-85.5 -96 q53 -40 53 -115q0 -55 -29.5 -115t-80.5 -111.5t-129.5 -84.5t-167.5 -33q-98 0 -198 46z" />
<glyph unicode="&#xb4;" horiz-adv-x="1122" d="M589 1289l675 353l55 -195l-679 -336z" />
<glyph unicode="&#xb5;" horiz-adv-x="1176" d="M16 -451l424 1480h246l-171 -599q-23 -81 -23 -138q0 -139 140 -139q74 0 218 62l233 814h246l-307 -1070h-183l-7 49q-157 -76 -289 -76q-92 0 -159 43l-122 -426h-246z" />
<glyph unicode="&#xb6;" horiz-adv-x="1326" d="M387 961q0 80 27 172q24 84 64.5 151.5t84 110.5t101 74.5t104 47t106 24t93.5 10t79 1.5h576l-457 -1593h-246l391 1361h-158l-391 -1361h-247l197 687q-61 4 -114.5 22.5t-102.5 53t-78 96t-29 143.5z" />
<glyph unicode="&#xb7;" horiz-adv-x="590" d="M317 587l84 292h292l-84 -292h-292z" />
<glyph unicode="&#xb8;" horiz-adv-x="1101" d="M199 -474l98 170l36 -12q135 -45 181 -45q32 0 49 11.5t21 25.5q1 3 1 8t-2 9.5t-7 8.5t-10.5 7.5t-15.5 8t-19 8t-24 8.5t-27.5 9t-33 11t-36.5 12l-35 11l159 286h211l-92 -170q125 -46 125 -148q0 -26 -9 -59q-25 -87 -111.5 -155.5t-197.5 -68.5q-18 0 -38 2.5 t-34.5 5t-39 9.5t-35 10.5t-40.5 13t-38 12.5z" />
<glyph unicode="&#xb9;" horiz-adv-x="543" d="M416 735l182 635l-149 -39l5 146l234 59h120l-229 -801h-163z" />
<glyph unicode="&#xba;" horiz-adv-x="753" d="M341 965q0 78 29 181q55 189 183.5 293.5t265.5 104.5q45 0 84.5 -10.5t78 -35t61 -73t22.5 -116.5q0 -72 -26 -164q-55 -192 -183 -305t-273 -113q-108 0 -175 56.5t-67 181.5zM511 1011q0 -75 34.5 -104.5t82.5 -29.5q23 0 45.5 5.5t51.5 22.5t54 45t50.5 77.5 t44.5 114.5q20 70 20 121q0 128 -121 128q-30 0 -59 -9.5t-63 -33.5t-65 -75t-52 -124q-23 -82 -23 -138z" />
<glyph unicode="&#xbb;" horiz-adv-x="1078" d="M72 217l422 406l-189 406h288l168 -406l-401 -406h-288zM543 217l422 406l-189 406h288l168 -406l-401 -406h-288z" />
<glyph unicode="&#xbc;" horiz-adv-x="1800" d="M309 -25l1272 1471h232l-1271 -1471h-233zM465 593l191 665l-144 -37l6 166l235 59h140l-245 -853h-183zM1049 170l35 122l541 569h195l-152 -531h107l-46 -160h-107l-56 -195h-183l56 195h-390zM1314 330h171l77 271z" />
<glyph unicode="&#xbd;" horiz-adv-x="1897" d="M309 -25l1272 1471h232l-1271 -1471h-233zM462 583l194 675l-144 -37l6 166l235 59h140l-248 -863h-183zM1174 -25l29 101q46 78 106.5 147.5t115.5 117t111 90.5t98.5 71.5t72 56t35.5 49.5q2 5 2 16q0 31 -28.5 55t-79.5 24q-63 0 -211 -53l-25 -9l-19 144l24 11 q169 71 296 71q105 0 170 -49t65 -132q0 -29 -9 -62q-17 -58 -57 -108.5t-94 -92t-110.5 -81t-119.5 -92.5t-108 -109h364l-47 -166h-581z" />
<glyph unicode="&#xbe;" horiz-adv-x="1950" d="M345 636l95 150l22 -6q115 -34 172 -34q67 0 125 32.5t73 83.5q5 18 5 30q0 85 -196 85h-25l47 163h25q80 0 142 21.5t76 71.5q2 10 2 14q0 25 -23 42.5t-70 17.5q-71 0 -190 -49l-27 -11l-20 150l23 10q158 68 274 68q106 0 162.5 -49t56.5 -125q0 -58 -33.5 -117.5 t-95.5 -105.5q62 -46 62 -126q0 -32 -11 -70q-39 -136 -162.5 -221t-272.5 -85q-102 0 -216 51zM469 -25l1272 1471h232l-1271 -1471h-233zM1199 170l35 122l541 569h195l-152 -531h107l-46 -160h-107l-56 -195h-183l56 195h-390zM1464 330h171l77 271z" />
<glyph unicode="&#xbf;" horiz-adv-x="1047" d="M54 -73l139 195l33 -15q144 -66 251 -66q112 0 188.5 54.5t97.5 129.5q8 29 8 49q0 39 -22.5 73.5t-54.5 66t-63.5 70t-54 102t-22.5 144.5q0 111 42 258l12 41h252l-12 -41q-28 -97 -28 -172q0 -66 22 -118.5t53 -87.5t62.5 -68t53.5 -78.5t22 -102.5q0 -51 -19 -120 q-26 -89 -92.5 -170t-149 -135t-171 -86t-162.5 -32q-107 0 -188 22.5t-167 69.5zM636 1179l81 283h282l-81 -283h-282z" />
<glyph unicode="&#xc0;" horiz-adv-x="1547" d="M130 0l970 1421h276l155 -1421h-259l-52 372h-580l-266 -372h-244zM793 603h405l-51 527zM969 1750l178 195l530 -353l-164 -178z" />
<glyph unicode="&#xc1;" horiz-adv-x="1547" d="M130 0l970 1421h276l155 -1421h-259l-52 372h-580l-266 -372h-244zM793 603h405l-51 527zM895 1592l733 353l67 -195l-739 -336z" />
<glyph unicode="&#xc2;" horiz-adv-x="1547" d="M130 0l970 1421h276l155 -1421h-259l-52 372h-580l-266 -372h-244zM793 603h405l-51 527zM932 1586l479 357l243 -348l-208 -145l-137 194l-250 -191z" />
<glyph unicode="&#xc3;" horiz-adv-x="1547" d="M130 0l970 1421h276l155 -1421h-259l-52 372h-580l-266 -372h-244zM793 603h405l-51 527zM834 1513l21 43q4 7 18 36t20.5 41.5t22.5 41t27 43.5t30.5 40t36 38.5t40.5 31t48 26.5t54 15.5t62 6.5q56 -2 102 -21.5t74 -46t49.5 -52t39.5 -43.5t33 -18q8 0 16 3.5t16 13 t14 17.5t15 24.5t14.5 26.5t16.5 32t16 33l20 39l197 -30l-21 -42q-4 -8 -12 -25q-17 -35 -26.5 -54.5t-30 -55t-38 -57t-45.5 -49t-56 -42.5t-66.5 -26t-80.5 -11q-56 2 -102 21.5t-74 46t-49.5 52.5t-39.5 44t-33 18q-13 0 -25.5 -9.5t-27 -32.5t-22.5 -37.5t-25 -49.5 q-7 -13 -10 -20l-19 -38z" />
<glyph unicode="&#xc4;" horiz-adv-x="1547" d="M130 0l970 1421h276l155 -1421h-259l-52 372h-580l-266 -372h-244zM793 603h405l-51 527zM906 1630l77 267h294l-77 -267h-294zM1399 1630l77 267h294l-77 -267h-294z" />
<glyph unicode="&#xc5;" horiz-adv-x="1547" d="M130 0l908 1337q-98 62 -98 170q0 62 34.5 127.5t91.5 118.5t138 86.5t166 33.5q123 0 192 -65t69 -161q0 -89 -61.5 -174.5t-178.5 -137.5l140 -1335h-259l-52 372h-580l-266 -372h-244zM793 603h405l-51 527zM1157 1545q0 -35 24.5 -57.5t73.5 -22.5q52 0 96.5 33.5 t57.5 78.5q4 12 4 27q0 36 -25 59.5t-69 23.5q-70 0 -116 -45t-46 -97z" />
<glyph unicode="&#xc6;" horiz-adv-x="2079" d="M130 0l1017 1421h1198l-66 -232h-643l-98 -341h588l-66 -232h-588l-110 -384h643l-67 -232h-911l107 373h-476l-278 -373h-250zM820 603h380l168 586h-122z" />
<glyph unicode="&#xc7;" horiz-adv-x="1615" d="M447 493q0 108 32 217q44 154 138 286t224.5 228.5t300 151.5t355.5 55q223 0 401 -79l32 -15l-141 -216l-34 13q-174 65 -329 65q-123 0 -239 -40.5t-204.5 -108.5t-152.5 -156t-91 -184q-19 -68 -19 -126q0 -161 122 -263.5t343 -102.5q162 0 342 58l41 13l25 -200 l-42 -16q-237 -91 -478 -93l-25 -46q138 -47 138 -159q0 -102 -106.5 -191.5t-247.5 -89.5q-45 0 -86.5 8.5t-173.5 46.5l-40 11l111 183l40 -12q159 -48 209 -48q58 0 67 31q1 2 1 5q0 21 -74 45q-18 6 -129 37l-40 11l117 197q-191 49 -289 176.5t-98 307.5z" />
<glyph unicode="&#xc8;" horiz-adv-x="1447" d="M290 0l407 1421h997l-66 -232h-744l-98 -341h689l-66 -232h-689l-110 -384h744l-67 -232h-997zM901 1770l168 195l555 -353l-155 -178z" />
<glyph unicode="&#xc9;" horiz-adv-x="1447" d="M290 0l407 1421h997l-66 -232h-744l-98 -341h689l-66 -232h-689l-110 -384h744l-67 -232h-997zM896 1612l757 353l56 -195l-762 -336z" />
<glyph unicode="&#xca;" horiz-adv-x="1447" d="M290 0l407 1421h997l-66 -232h-744l-98 -341h689l-66 -232h-689l-110 -384h744l-67 -232h-997zM877 1594l488 357l250 -349l-202 -144l-151 194l-267 -191z" />
<glyph unicode="&#xcb;" horiz-adv-x="1447" d="M290 0l407 1421h997l-66 -232h-744l-98 -341h689l-66 -232h-689l-110 -384h744l-67 -232h-997zM858 1631l76 267h290l-76 -267h-290zM1365 1631l76 267h290l-76 -267h-290z" />
<glyph unicode="&#xcc;" horiz-adv-x="812" d="M335 0l407 1421h252l-407 -1421h-252zM637 1748l169 195l473 -353l-155 -176z" />
<glyph unicode="&#xcd;" horiz-adv-x="894" d="M416 0l407 1421h252l-407 -1421h-252zM584 1593l757 353l55 -195l-762 -337z" />
<glyph unicode="&#xce;" horiz-adv-x="812" d="M338 0l407 1421h252l-407 -1421h-252zM595 1586l444 357l212 -349l-195 -144l-118 194l-231 -191z" />
<glyph unicode="&#xcf;" horiz-adv-x="752" d="M290 0l407 1421h252l-407 -1421h-252zM534 1557l77 267h267l-77 -267h-267zM923 1557l77 267h267l-77 -267h-267z" />
<glyph unicode="&#xd0;" horiz-adv-x="1769" d="M294 617l66 232h218l164 572h476q39 0 74.5 -1.5t89 -6.5t100 -14t101 -26t99 -40t87 -58t71.5 -78.5t46.5 -102.5t17.5 -129q0 -98 -33 -213q-215 -752 -1124 -752h-412l177 617h-218zM654 232h166q65 0 117.5 3t125.5 14t132.5 30.5t126 56.5t117.5 87t96 125.5 t72 170.5q21 73 21 142q0 66 -22 121.5t-72 103.5t-144 75.5t-225 27.5h-237l-98 -340h261l-66 -232h-261z" />
<glyph unicode="&#xd1;" horiz-adv-x="1823" d="M290 0l407 1421h278l480 -1092l313 1092h252l-407 -1421h-281l-476 1094l-314 -1094h-252zM964 1513l21 43q4 7 18 36t20.5 41.5t22.5 41t27 43.5t30.5 40t36 38.5t40.5 31t48 26.5t54 15.5t62 6.5q56 -2 102 -21.5t74 -46t49.5 -52t39.5 -43.5t33 -18q8 0 16 3.5t16 13 t14 17.5t15 24.5t14.5 26.5t16.5 32t16 33l20 39l197 -30l-21 -42q-4 -8 -12 -25q-17 -35 -26.5 -54.5t-30 -55t-38 -57t-45.5 -49t-56 -42.5t-66.5 -26t-80.5 -11q-56 2 -102 21.5t-74 46t-49.5 52.5t-39.5 44t-33 18q-13 0 -25.5 -9.5t-27 -32.5t-22.5 -37.5t-25 -49.5 q-7 -13 -10 -20l-19 -38z" />
<glyph unicode="&#xd2;" horiz-adv-x="1850" d="M383 477q0 107 35 230q63 219 206.5 385.5t339 255t414.5 88.5q268 0 423.5 -130t155.5 -359q0 -104 -34 -221q-62 -218 -205.5 -386.5t-342 -261.5t-421.5 -93q-121 0 -224 31t-181 91t-122 155t-44 215zM656 564q0 -162 103.5 -255t275.5 -93q89 0 181 29t179 86 t158 155t107 223q25 87 25 160q0 85 -32 151.5t-87.5 105.5t-123 59t-143.5 20q-88 0 -179 -28.5t-178 -84t-157 -150t-104 -215.5q-25 -87 -25 -163zM1171 1753l178 195l523 -353l-164 -178z" />
<glyph unicode="&#xd3;" horiz-adv-x="1850" d="M383 477q0 107 35 230q63 219 206.5 385.5t339 255t414.5 88.5q268 0 423.5 -130t155.5 -359q0 -104 -34 -221q-62 -218 -205.5 -386.5t-342 -261.5t-421.5 -93q-121 0 -224 31t-181 91t-122 155t-44 215zM656 564q0 -162 103.5 -255t275.5 -93q89 0 181 29t179 86 t158 155t107 223q25 87 25 160q0 85 -32 151.5t-87.5 105.5t-123 59t-143.5 20q-88 0 -179 -28.5t-178 -84t-157 -150t-104 -215.5q-25 -87 -25 -163zM1057 1593l726 353l65 -195l-732 -337z" />
<glyph unicode="&#xd4;" horiz-adv-x="1850" d="M383 477q0 107 35 230q63 219 206.5 385.5t339 255t414.5 88.5q268 0 423.5 -130t155.5 -359q0 -104 -34 -221q-62 -218 -205.5 -386.5t-342 -261.5t-421.5 -93q-121 0 -224 31t-181 91t-122 155t-44 215zM656 564q0 -162 103.5 -255t275.5 -93q89 0 181 29t179 86 t158 155t107 223q25 87 25 160q0 85 -32 151.5t-87.5 105.5t-123 59t-143.5 20q-88 0 -179 -28.5t-178 -84t-157 -150t-104 -215.5q-25 -87 -25 -163zM1080 1586l475 357l239 -348l-207 -145l-134 194l-248 -191z" />
<glyph unicode="&#xd5;" horiz-adv-x="1850" d="M383 477q0 107 35 230q63 219 206.5 385.5t339 255t414.5 88.5q268 0 423.5 -130t155.5 -359q0 -104 -34 -221q-62 -218 -205.5 -386.5t-342 -261.5t-421.5 -93q-121 0 -224 31t-181 91t-122 155t-44 215zM656 564q0 -162 103.5 -255t275.5 -93q89 0 181 29t179 86 t158 155t107 223q25 87 25 160q0 85 -32 151t-87 105.5t-122.5 59.5t-144.5 20q-88 0 -179 -28.5t-178 -84t-157 -150t-104 -215.5q-25 -87 -25 -163zM976 1513l21 43q4 7 18 36t20.5 41.5t22.5 41t27 43.5t30.5 40t36 38.5t40.5 31t48 26.5t54 15.5t62 6.5q56 -2 102 -21.5 t74 -46t49.5 -52t39.5 -43.5t33 -18q8 0 16 3.5t16 13t14 17.5t15 24.5t14.5 26.5t16.5 32t16 33l20 39l197 -30l-21 -42q-4 -8 -12 -25q-17 -35 -26.5 -54.5t-30 -55t-38 -57t-45.5 -49t-56 -42.5t-66.5 -26t-80.5 -11q-56 2 -102 21.5t-74 46t-49.5 52.5t-39.5 44t-33 18 q-13 0 -25.5 -9.5t-27 -32.5t-22.5 -37.5t-25 -49.5q-7 -13 -10 -20l-19 -38z" />
<glyph unicode="&#xd6;" horiz-adv-x="1850" d="M383 477q0 107 35 230q63 219 206.5 385.5t339 255t414.5 88.5q268 0 423.5 -130t155.5 -359q0 -104 -34 -221q-62 -218 -205.5 -386.5t-342 -261.5t-421.5 -93q-121 0 -224 31t-181 91t-122 155t-44 215zM656 564q0 -162 103.5 -255t275.5 -93q89 0 181 29t179 86 t158 155t107 223q25 87 25 160q0 85 -32 151.5t-87.5 105.5t-123 59t-143.5 20q-88 0 -179 -28.5t-178 -84t-157 -150t-104 -215.5q-25 -87 -25 -163zM1054 1631l76 267h291l-76 -267h-291zM1543 1631l76 267h291l-76 -267h-291z" />
<glyph unicode="&#xd7;" horiz-adv-x="1463" d="M276 328l465 326l-273 317l210 163l308 -332l487 326l116 -164l-462 -325l271 -318l-210 -163l-307 332l-488 -325z" />
<glyph unicode="&#xd8;" horiz-adv-x="1920" d="M196 128l239 161q-32 82 -32 187q0 108 35 231q63 219 206.5 385.5t339 255t414.5 88.5q317 0 471 -177l233 158l72 -128l-230 -155q33 -88 33 -188q0 -103 -34 -220q-62 -218 -205.5 -386.5t-342 -261.5t-421.5 -93q-147 0 -267.5 45t-196.5 133l-243 -164zM676 563 q0 -52 13 -102l933 632q-108 112 -300 112q-91 0 -183 -28.5t-178.5 -84.5t-155.5 -150.5t-104 -214.5q-25 -87 -25 -164zM758 331q104 -115 297 -115q89 0 181 29t179 86t158 155t107 223q25 87 25 160q0 51 -12 95z" />
<glyph unicode="&#xd9;" horiz-adv-x="1744" d="M399 305q0 79 33 190l265 926h252l-258 -901q-19 -69 -19 -118q0 -193 300 -193q107 0 188.5 23t134 67.5t84.5 97.5t52 123l258 901h252l-265 -926q-10 -34 -17.5 -57t-26 -66.5t-38.5 -76t-54.5 -75.5t-74 -74t-97.5 -64.5t-125 -54t-155.5 -34t-189.5 -13.5 q-499 0 -499 325zM1048 1778l182 195l542 -353l-165 -176z" />
<glyph unicode="&#xda;" horiz-adv-x="1744" d="M399 305q0 79 33 190l265 926h252l-258 -901q-19 -69 -19 -118q0 -193 300 -193q107 0 188.5 23t134 67.5t84.5 97.5t52 123l258 901h252l-265 -926q-10 -34 -17.5 -57t-26 -66.5t-38.5 -76t-54.5 -75.5t-74 -74t-97.5 -64.5t-125 -54t-155.5 -34t-189.5 -13.5 q-499 0 -499 325zM1011 1623l748 353l65 -195l-749 -337z" />
<glyph unicode="&#xdb;" horiz-adv-x="1744" d="M399 305q0 79 33 190l265 926h252l-258 -901q-19 -69 -19 -118q0 -193 300 -193q107 0 188.5 23t134 67.5t84.5 97.5t52 123l258 901h252l-265 -926q-10 -34 -17.5 -57t-26 -66.5t-38.5 -76t-54.5 -75.5t-74 -74t-97.5 -64.5t-125 -54t-155.5 -34t-189.5 -13.5 q-499 0 -499 325zM999 1586l487 357l251 -349l-214 -144l-140 194l-253 -191z" />
<glyph unicode="&#xdc;" horiz-adv-x="1744" d="M399 305q0 79 33 190l265 926h252l-258 -901q-19 -69 -19 -118q0 -193 300 -193q107 0 188.5 23t134 67.5t84.5 97.5t52 123l258 901h252l-265 -926q-10 -34 -17.5 -57t-26 -66.5t-38.5 -76t-54.5 -75.5t-74 -74t-97.5 -64.5t-125 -54t-155.5 -34t-189.5 -13.5 q-499 0 -499 325zM981 1631l76 267h297l-76 -267h-297zM1482 1631l76 267h297l-76 -267h-297z" />
<glyph unicode="&#xdd;" horiz-adv-x="1427" d="M507 1421h298l222 -551l546 551h288l-762 -757l-190 -664h-283l190 664zM851 1623l743 353l68 -195l-749 -337z" />
<glyph unicode="&#xde;" horiz-adv-x="1490" d="M290 0l407 1421h252l-74 -261q133 9 265 9q115 0 201.5 -12.5t156.5 -42t107 -84t37 -132.5q0 -53 -20 -125q-15 -52 -38 -102.5t-62 -106.5t-87 -102.5t-117.5 -85.5t-150.5 -59q-140 -32 -401 -32q-72 0 -141 3l-83 -288h-252zM691 521q103 -6 177 -6h32q56 0 98 2.5 t93 10.5t89.5 24t75 41.5t63 65.5t41.5 93q10 33 10 62q0 48 -26.5 79.5t-78 47t-106.5 21t-131 5.5q-113 0 -211 -7z" />
<glyph unicode="&#xdf;" horiz-adv-x="1412" d="M195 0l282 982q27 93 74.5 169t105.5 127t127 86t139 50.5t141 15.5q88 0 155.5 -24t107 -65t59 -90t19.5 -104q0 -45 -12 -87q-16 -55 -51 -101.5t-76 -77t-87 -58t-83.5 -46t-65.5 -39.5t-33 -40q-2 -8 -2 -12q0 -23 28.5 -41t71.5 -30.5t93 -33t93 -44.5t71.5 -68.5 t28.5 -102.5q0 -37 -14 -87q-15 -50 -47.5 -99.5t-87 -97.5t-143 -78t-197.5 -30q-169 0 -347 49l-42 11l114 192l40 -8q162 -30 256 -30q97 0 142 25t59 76q4 16 4 24q0 28 -22.5 49t-58.5 35t-79.5 27t-86.5 30t-79 38.5t-58.5 56.5t-22.5 81q0 32 10 68q17 61 61.5 109.5 t97 78.5t103 55.5t89 52.5t46.5 56q5 20 5 33q0 52 -44 85t-101 33q-14 0 -30 -2.5t-41.5 -9.5t-50.5 -23t-50.5 -38.5t-47.5 -60.5t-36 -86l-281 -981h-246z" />
<glyph unicode="&#xe0;" horiz-adv-x="1222" d="M188 208q0 32 8 59q21 72 72 126t119 86.5t164 52.5t190.5 28t213.5 9l10 33q10 33 10 60q0 48 -45.5 75t-162.5 27q-122 0 -295 -41l-42 -10l5 193l38 12q185 63 389 63q377 0 377 -230q0 -51 -20 -123l-180 -628h-184l-9 65q-156 -85 -333 -85q-152 0 -238.5 65.5 t-86.5 162.5zM447 275q0 -33 50 -58.5t131 -25.5q124 0 236 60l38 133h-24q-203 0 -309 -23t-121 -76q-1 -3 -1 -10zM728 1376l220 181l359 -395l-179 -170z" />
<glyph unicode="&#xe1;" horiz-adv-x="1222" d="M188 208q0 32 8 59q21 72 72 126t119 86.5t164 52.5t190.5 28t213.5 9l10 33q10 33 10 60q0 48 -45.5 75t-162.5 27q-122 0 -295 -41l-42 -10l5 193l38 12q185 63 389 63q377 0 377 -230q0 -51 -20 -123l-180 -628h-184l-9 65q-156 -85 -333 -85q-152 0 -238.5 65.5 t-86.5 162.5zM447 275q0 -33 50 -58.5t131 -25.5q124 0 236 60l38 133h-24q-203 0 -309 -23t-121 -76q-1 -3 -1 -10zM630 1172l607 395l96 -181l-610 -384z" />
<glyph unicode="&#xe2;" horiz-adv-x="1222" d="M188 208q0 32 8 59q21 72 72 126t119 86.5t164 52.5t190.5 28t213.5 9l10 33q10 33 10 60q0 48 -45.5 75t-162.5 27q-122 0 -295 -41l-42 -10l5 193l38 12q185 63 389 63q377 0 377 -230q0 -51 -20 -123l-180 -628h-184l-9 65q-156 -85 -333 -85q-152 0 -238.5 65.5 t-86.5 162.5zM447 275q0 -33 50 -58.5t131 -25.5q124 0 236 60l38 133h-24q-203 0 -309 -23t-121 -76q-1 -3 -1 -10zM566 1134l493 375l235 -365l-196 -152l-146 203l-272 -200z" />
<glyph unicode="&#xe3;" horiz-adv-x="1221" d="M188 209q0 31 8 58q21 72 72 126t118.5 86.5t162.5 52.5t188.5 28t211.5 9l10 33q11 37 11 61q0 47 -45 74t-160 27q-120 0 -293 -41l-42 -10l5 193l38 12q185 63 386 63q380 0 380 -230q0 -51 -20 -123l-180 -628h-184l-9 65q-167 -85 -335 -85q-150 0 -236.5 66 t-86.5 163zM447 275q0 -33 49 -58.5t129 -25.5q122 0 233 60l38 133h-24q-200 0 -304.5 -23t-119.5 -76q-1 -3 -1 -10zM479 1076l63 128q43 85 83 130q93 105 220 105q59 -2 109 -21.5t81 -46t55.5 -52.5t44 -44t35.5 -18q11 0 22.5 8.5t21.5 23.5t16.5 27t13.5 26t7 15 l43 93l180 -33l-63 -127q-51 -105 -108 -159q-82 -76 -184 -76q-60 2 -110 21.5t-80.5 46t-54.5 52t-43.5 43.5t-36.5 18q-39 0 -85 -93l-3 -6l-45 -89z" />
<glyph unicode="&#xe4;" horiz-adv-x="1227" d="M188 209q0 31 8 58q15 52 45.5 94.5t72 73t97.5 54t115.5 38t133 24t144.5 13.5t155 5l10 33q11 37 11 60q0 47 -46 74.5t-164 27.5q-123 0 -297 -41l-43 -10l5 193l38 12q186 63 392 63q106 0 181.5 -17t118 -49t61 -71.5t18.5 -91.5t-20 -124l-180 -628h-184l-9 65 q-160 -85 -336 -85q-152 0 -239.5 66t-87.5 163zM447 275q0 -33 51 -58.5t132 -25.5q125 0 238 60l38 133h-24q-206 0 -312.5 -23t-121.5 -76q-1 -3 -1 -10zM587 1153l76 268h303l-76 -268h-303zM1107 1153l77 268h272l-77 -268h-272z" />
<glyph unicode="&#xe5;" horiz-adv-x="1227" d="M188 209q0 31 8 58q21 72 72.5 126t120 86.5t165 52.5t192 28t215.5 9l9 33q10 33 10 59q0 48 -46 75.5t-164 27.5q-123 0 -297 -41l-43 -10l5 193l38 12q186 63 392 63q380 0 380 -230q0 -51 -20 -123l-180 -628h-184l-10 65q-158 -85 -335 -85q-153 0 -240.5 66 t-87.5 163zM447 275q0 -33 51 -58.5t133 -25.5q126 0 239 60l38 133h-25q-206 0 -313 -23t-122 -76q-1 -3 -1 -10zM690 1228q0 36 10 70q32 114 144.5 194.5t242.5 80.5q104 0 163.5 -54.5t59.5 -142.5q0 -38 -12 -78q-34 -117 -137.5 -197t-230.5 -80q-108 0 -174 58.5 t-66 148.5zM900 1266q0 -31 20 -51.5t60 -20.5q43 0 82 31.5t51 72.5q4 12 4 27q0 32 -21.5 53.5t-56.5 21.5q-59 0 -99 -43t-40 -91z" />
<glyph unicode="&#xe6;" horiz-adv-x="1804" d="M189 212q0 28 10 65q34 119 160.5 199t327.5 97q76 7 220 9q13 41 13 73q0 124 -173 124q-94 0 -259 -39l-40 -10l-16 178l41 13q188 60 376 60q232 0 299 -146q93 68 199.5 107t209.5 39q283 0 283 -277q0 -111 -48 -281l-12 -41h-667v-11q0 -78 77.5 -127.5 t206.5 -49.5q85 0 205 34l45 12l-11 -189l-36 -12q-173 -59 -331 -59q-110 0 -202.5 32.5t-147.5 98.5q-171 -131 -409 -131q-138 0 -229.5 64.5t-91.5 167.5zM450 291q0 -40 45.5 -69t112.5 -29q106 0 207 69l47 161q-124 -2 -206.5 -12t-123 -27.5t-56.5 -34t-23 -40.5 q-3 -9 -3 -18zM1180 588h425q4 20 4 44q0 125 -146 125q-98 0 -174 -48t-109 -121z" />
<glyph unicode="&#xe7;" horiz-adv-x="1152" d="M218 -434l107 170l42 -12q161 -45 208 -45h3q32 1 54 11t26 25q1 2 1 6q0 18 -31.5 30.5t-118.5 36.5q-37 10 -58 16l-40 11l101 168q-282 55 -282 303q0 75 26 165q33 114 92.5 205t131 149.5t159 97.5t173 55t174.5 16q164 0 286 -62l30 -15l-119 -194l-35 13 q-92 35 -201 35q-350 0 -427 -272q-16 -55 -16 -101q0 -199 300 -199q96 0 187 30l42 13l13 -184l-41 -14q-133 -45 -254 -54l-25 -42q134 -43 134 -146q0 -26 -9 -58q-25 -88 -113.5 -155t-211.5 -67q-21 0 -45 2.5t-40.5 5t-46 9.5t-41 10t-48 13.5t-44.5 12.5z" />
<glyph unicode="&#xe8;" horiz-adv-x="1240" d="M232 296q0 73 24 156q38 134 113 238t170.5 166.5t202 94t219.5 31.5q327 0 327 -263q0 -87 -44 -244l-32 -110h-737q2 -70 85 -121t243 -51q114 0 237 34l43 11l-6 -189l-39 -12q-179 -57 -367 -57q-122 0 -210.5 25t-136.5 70t-70 99.5t-22 121.5zM536 571h500 q6 30 6 56q0 70 -47.5 100.5t-137.5 30.5q-115 0 -200.5 -53.5t-120.5 -133.5zM740 1386l216 181l358 -395l-178 -170z" />
<glyph unicode="&#xe9;" horiz-adv-x="1240" d="M232 296q0 73 24 156q38 134 113 238t170.5 166.5t202 94t219.5 31.5q327 0 327 -263q0 -87 -44 -244l-32 -110h-737q2 -70 85 -121t243 -51q114 0 237 34l43 11l-6 -189l-39 -12q-179 -57 -367 -57q-122 0 -210.5 25t-136.5 70t-70 99.5t-22 121.5zM536 571h500 q6 30 6 56q0 70 -47.5 100.5t-137.5 30.5q-115 0 -200.5 -53.5t-120.5 -133.5zM727 1172l603 395l90 -181l-591 -384z" />
<glyph unicode="&#xea;" horiz-adv-x="1240" d="M232 296q0 73 24 156q38 134 113 238t170.5 166.5t202 94t219.5 31.5q327 0 327 -263q0 -87 -44 -244l-32 -110h-737q2 -70 85 -121t243 -51q114 0 237 34l43 11l-6 -189l-39 -12q-179 -57 -367 -57q-122 0 -210.5 25t-136.5 70t-70 99.5t-22 121.5zM536 571h500 q6 30 6 56q0 70 -47.5 100.5t-137.5 30.5q-115 0 -200.5 -53.5t-120.5 -133.5zM648 1134l495 375l225 -365l-191 -152l-140 203l-263 -200z" />
<glyph unicode="&#xeb;" horiz-adv-x="1255" d="M232 297q0 73 24 155q38 134 113.5 238t172.5 166.5t205 94t222 31.5q333 0 333 -264q0 -88 -44 -243l-31 -110h-748q1 -70 85.5 -121t247.5 -51q116 0 241 34l43 11l-5 -189l-39 -12q-182 -57 -373 -57q-125 0 -214.5 25t-139 70.5t-71.5 100t-22 121.5zM536 571h509 q6 30 6 55q0 132 -188 132q-118 0 -205 -54t-122 -133zM618 1153l77 268h302l-77 -268h-302zM1132 1153l77 268h279l-77 -268h-279z" />
<glyph unicode="&#xec;" horiz-adv-x="597" d="M192 0l283 988h246l-283 -988h-246zM400 1394l192 173l311 -378l-174 -163z" />
<glyph unicode="&#xed;" horiz-adv-x="597" d="M190 0l283 988h246l-283 -988h-246zM450 1189l528 378l93 -173l-540 -368z" />
<glyph unicode="&#xee;" horiz-adv-x="603" d="M191 0l283 988h246l-283 -988h-246zM346 1150l409 364l175 -355l-190 -145l-91 181l-196 -178z" />
<glyph unicode="&#xef;" horiz-adv-x="606" d="M180 0l283 988h246l-283 -988h-246zM316 1154l76 267h267l-76 -267h-267zM685 1154l76 267h267l-76 -267h-267z" />
<glyph unicode="&#xf0;" horiz-adv-x="1400" d="M230 298q0 64 21 137q62 217 243 366.5t411 149.5q146 0 298 -68q-5 100 -70 178l-241 -108l-59 166l153 69q-61 36 -139 62l-45 15l166 201l35 -9q164 -43 284 -136l233 112l48 -166l-167 -83q57 -97 57 -228q0 -113 -46 -276q-23 -82 -48.5 -150t-62 -142t-79 -132 t-100.5 -111t-125.5 -88t-155 -56t-188.5 -21q-201 0 -312 84t-111 234zM502 424q0 -103 64.5 -165.5t166.5 -62.5q41 0 84.5 11.5t96.5 40t104 89t88 145.5q29 69 63 188l11 39q-155 98 -290 98q-126 0 -231.5 -79t-141.5 -206q-15 -52 -15 -98z" />
<glyph unicode="&#xf1;" horiz-adv-x="1328" d="M176 0l276 963h183l9 -68q226 88 406 88q289 0 289 -228q0 -76 -32 -186l-163 -569h-247l161 562q13 48 13 76q0 115 -172 115q-116 0 -277 -53l-200 -700h-246zM565 1081l62 127q50 103 110 157q85 77 197 77q59 -2 108.5 -21.5t80 -46t54 -52t42.5 -43.5t34 -18 q11 0 22 8t21 22.5t16.5 26t13.5 27t8 17.5l44 93l180 -34l-63 -127q-111 -236 -292 -236q-60 2 -109 21.5t-79 46t-53.5 52t-43 43.5t-35.5 18q-38 0 -87 -98l-47 -89z" />
<glyph unicode="&#xf2;" horiz-adv-x="1359" d="M238 316q0 72 24 156q68 235 256.5 372.5t445.5 137.5q199 0 313.5 -86.5t114.5 -246.5q0 -72 -23 -150q-69 -240 -261.5 -379.5t-449.5 -139.5q-198 0 -309 88.5t-111 247.5zM499 413q0 -94 65 -152.5t179 -58.5q128 0 234.5 73.5t141.5 195.5q13 43 13 83 q0 98 -72.5 152t-174.5 54q-119 0 -228.5 -69.5t-145.5 -194.5q-12 -44 -12 -83zM820 1386l216 181l353 -395l-186 -170z" />
<glyph unicode="&#xf3;" horiz-adv-x="1359" d="M238 316q0 72 24 156q68 235 256.5 372.5t445.5 137.5q199 0 313.5 -86.5t114.5 -246.5q0 -72 -23 -150q-69 -240 -261.5 -379.5t-449.5 -139.5q-198 0 -309 88.5t-111 247.5zM499 413q0 -94 65 -152.5t179 -58.5q128 0 234.5 73.5t141.5 195.5q13 43 13 83 q0 98 -72.5 152t-174.5 54q-119 0 -228.5 -69.5t-145.5 -194.5q-12 -44 -12 -83zM660 1172l583 395l112 -181l-603 -384z" />
<glyph unicode="&#xf4;" horiz-adv-x="1359" d="M238 316q0 72 24 156q68 235 256.5 372.5t445.5 137.5q199 0 313.5 -86.5t114.5 -246.5q0 -72 -23 -150q-69 -240 -261.5 -379.5t-449.5 -139.5q-198 0 -309 88.5t-111 247.5zM499 413q0 -94 65 -152.5t179 -58.5q128 0 234.5 73.5t141.5 195.5q13 43 13 83 q0 98 -72.5 152t-174.5 54q-119 0 -228.5 -69.5t-145.5 -194.5q-12 -44 -12 -83zM646 1134l485 375l238 -365l-206 -152l-138 203l-257 -200z" />
<glyph unicode="&#xf5;" horiz-adv-x="1359" d="M238 316q0 72 24 156q68 235 256.5 372.5t445.5 137.5q199 0 313.5 -86.5t114.5 -246.5q0 -72 -23 -150q-69 -240 -261.5 -379.5t-449.5 -139.5q-198 0 -309 88.5t-111 247.5zM499 413q0 -94 65 -152.5t179 -58.5q128 0 234.5 73.5t141.5 195.5q13 43 13 83 q0 98 -72.5 152t-174.5 54q-119 0 -228.5 -69.5t-145.5 -194.5q-12 -44 -12 -83zM545 1080l63 128q41 81 76 124q94 111 225 111q59 -2 108.5 -21.5t80.5 -46t55.5 -52.5t44 -44t34.5 -18q11 0 22.5 8.5t21.5 23.5t16.5 27t13.5 26t7 15l43 93l179 -33l-62 -127 q-51 -104 -108 -158q-81 -77 -183 -77q-60 2 -109.5 21.5t-80 46t-54.5 52t-43.5 43.5t-35.5 18q-39 0 -85 -93l-3 -6l-45 -89z" />
<glyph unicode="&#xf6;" horiz-adv-x="1369" d="M238 317q0 71 24 155q68 235 258.5 372.5t449.5 137.5q202 0 317.5 -87t115.5 -247q0 -66 -23 -149q-69 -240 -263.5 -379.5t-453.5 -139.5q-201 0 -313 88.5t-112 248.5zM499 414q0 -95 66 -153.5t183 -58.5q130 0 238.5 73.5t143.5 195.5q12 43 12 81q0 99 -73.5 153.5 t-178.5 54.5q-121 0 -232 -69.5t-147 -194.5q-12 -42 -12 -82zM646 1153l77 268h299l-77 -268h-299zM1149 1153l77 268h290l-77 -268h-290z" />
<glyph unicode="&#xf7;" horiz-adv-x="1564" d="M282 547l63 221h1314l-63 -221h-1314zM652 83l79 277h307l-79 -277h-307zM902 956l80 277h307l-80 -277h-307z" />
<glyph unicode="&#xf8;" horiz-adv-x="1357" d="M137 63l139 99q-37 69 -37 158q0 72 24 154q68 234 256 371t444 137q216 0 327 -102l167 140l65 -144l-154 -111q22 -58 22 -126t-22 -144q-69 -239 -260.5 -377.5t-447.5 -138.5q-183 0 -292 78l-157 -112zM498 411q0 -46 16 -82l540 381q-66 50 -169 50q-75 0 -149 -28 t-137.5 -90t-87.5 -147q-13 -42 -13 -84zM606 229q58 -28 136 -28q84 0 158.5 31.5t124 82t78 113t28.5 123.5q0 26 -4 46z" />
<glyph unicode="&#xf9;" horiz-adv-x="1328" d="M258 211q0 80 33 193l168 584h246l-167 -582q-13 -46 -13 -77q0 -120 172 -120q117 0 277 55l208 724h246l-284 -988h-183l-10 67q-222 -87 -405 -87q-288 0 -288 231zM763 1394l211 173l370 -378l-181 -163z" />
<glyph unicode="&#xfa;" horiz-adv-x="1328" d="M258 211q0 80 33 193l168 584h246l-167 -582q-13 -46 -13 -77q0 -120 172 -120q117 0 277 55l208 724h246l-284 -988h-183l-10 67q-222 -87 -405 -87q-288 0 -288 231zM723 1189l599 378l100 -173l-599 -368z" />
<glyph unicode="&#xfb;" horiz-adv-x="1328" d="M258 211q0 80 33 193l168 584h246l-167 -582q-13 -46 -13 -77q0 -120 172 -120q117 0 277 55l208 724h246l-284 -988h-183l-10 67q-222 -87 -405 -87q-288 0 -288 231zM637 1152l483 357l243 -348l-197 -145l-149 194l-262 -191z" />
<glyph unicode="&#xfc;" horiz-adv-x="1335" d="M258 212q0 81 33 192l168 584h246l-167 -582q-13 -46 -13 -76q0 -121 175 -121q118 0 281 55l207 724h246l-283 -988h-183l-10 67q-225 -87 -409 -87q-291 0 -291 232zM602 1153l77 268h291l-77 -268h-291zM1105 1153l77 268h289l-77 -268h-289z" />
<glyph unicode="&#xfd;" horiz-adv-x="1204" d="M100 -531l399 534l-167 985h259l109 -759l515 759h259l-1078 -1519h-296zM761 1189l586 378l100 -173l-585 -368z" />
<glyph unicode="&#xfe;" horiz-adv-x="1370" d="M33 -531l560 1952h258l-147 -513q139 70 293 70q186 0 295 -88t109 -245q0 -66 -23 -149q-65 -227 -253.5 -373t-424.5 -146q-141 0 -244 66l-165 -574h-258zM546 352q0 -153 199 -153q39 0 81 8t89.5 28t88 50t74.5 78t51 107q12 44 12 81q0 97 -70.5 150.5t-170.5 53.5 q-123 0 -206.5 -68.5t-129.5 -228.5q-18 -59 -18 -106z" />
<glyph unicode="&#xff;" horiz-adv-x="1208" d="M100 -531l399 534l-167 985h259l109 -759l520 759h259l-1083 -1519h-296zM569 1153l77 268h297l-77 -268h-297zM1070 1153l77 268h292l-77 -268h-292z" />
<glyph unicode="&#x152;" horiz-adv-x="2162" d="M379 459q0 112 38 244q96 336 336 520q92 68 195 111t217 60.5t192 22t196 4.5h856l-66 -232h-643l-98 -341h588l-66 -232h-588l-110 -384h643l-67 -232h-951q-134 0 -234.5 11t-185.5 47q-121 52 -186.5 153t-65.5 248zM645 554q0 -110 51 -178t124 -103 q54 -26 109.5 -33.5t136.5 -7.5h91l274 957h-17q-125 0 -197 -9q-204 -27 -348 -152.5t-201 -325.5q-23 -80 -23 -148z" />
<glyph unicode="&#x153;" horiz-adv-x="1953" d="M238 309q0 77 25 165q66 231 245 367t415 136q252 0 341 -167q60 51 126 85.5t125 50t100.5 21t79.5 5.5q303 0 303 -257q0 -99 -45 -252l-31 -108h-676v-5q0 -72 71 -124.5t213 -52.5q88 0 211 29l45 11l-2 -167l-38 -11q-174 -58 -341 -58q-269 0 -363 156 q-187 -153 -425 -153q-180 0 -279.5 87t-99.5 242zM496 398q0 -87 51.5 -142.5t153.5 -55.5q105 0 195.5 68.5t126.5 195.5q16 58 16 105q0 94 -57 140t-139 46q-76 0 -143 -33.5t-110.5 -85.5t-68.5 -115t-25 -123zM1307 561h434q13 53 13 94q0 134 -147 134 q-101 0 -181 -66t-119 -162z" />
<glyph unicode="&#x178;" horiz-adv-x="1427" d="M507 1421h298l222 -551l546 551h288l-762 -757l-190 -664h-283l190 664zM844 1631l76 267h296l-76 -267h-296zM1345 1631l76 267h298l-76 -267h-298z" />
<glyph unicode="&#x2c6;" horiz-adv-x="1479" d="M741 1244l444 357l212 -348l-193 -145l-120 194l-231 -191z" />
<glyph unicode="&#x2dc;" horiz-adv-x="1400" d="M613 1264l29 38q2 3 29.5 39.5t36.5 47.5t38 44.5t45.5 47.5t47 38.5t55 35.5t56.5 20t64 9q51 -3 91.5 -22.5t64 -45.5t42 -52t36 -44t34.5 -18q12 0 25 7t31 26.5t29 32.5t36.5 46.5t36.5 46.5l28 35l156 -80l-29 -38q-1 -2 -29.5 -39.5t-36.5 -47.5t-37.5 -44 t-45.5 -47.5t-47 -38t-55 -35t-56 -19.5t-64 -9q-51 3 -91.5 22.5t-64.5 45.5t-42.5 52t-35.5 44t-34 18q-12 0 -25 -7t-30 -25.5t-28.5 -32.5t-36.5 -47t-38 -49l-28 -35z" />
<glyph unicode="&#x2000;" horiz-adv-x="988" />
<glyph unicode="&#x2001;" horiz-adv-x="1976" />
<glyph unicode="&#x2002;" horiz-adv-x="988" />
<glyph unicode="&#x2003;" horiz-adv-x="1976" />
<glyph unicode="&#x2004;" horiz-adv-x="658" />
<glyph unicode="&#x2005;" horiz-adv-x="494" />
<glyph unicode="&#x2006;" horiz-adv-x="329" />
<glyph unicode="&#x2007;" horiz-adv-x="329" />
<glyph unicode="&#x2008;" horiz-adv-x="247" />
<glyph unicode="&#x2009;" horiz-adv-x="395" />
<glyph unicode="&#x200a;" horiz-adv-x="109" />
<glyph unicode="&#x2010;" horiz-adv-x="1210" d="M291 548l64 221h942l-64 -221h-942z" />
<glyph unicode="&#x2011;" horiz-adv-x="1210" d="M291 548l64 221h942l-64 -221h-942z" />
<glyph unicode="&#x2012;" horiz-adv-x="1210" d="M291 548l64 221h942l-64 -221h-942z" />
<glyph unicode="&#x2013;" horiz-adv-x="1241" d="M157 548l64 221h1241l-64 -221h-1241z" />
<glyph unicode="&#x2014;" horiz-adv-x="1466" d="M157 548l64 221h1466l-64 -221h-1466z" />
<glyph unicode="&#x2018;" horiz-adv-x="450" d="M480 1552h281l1 -515h-281z" />
<glyph unicode="&#x2019;" horiz-adv-x="450" d="M282 1037l297 515h281l-297 -515h-281z" />
<glyph unicode="&#x201a;" horiz-adv-x="450" d="M-89 -257l297 515h281l-297 -515h-281z" />
<glyph unicode="&#x201c;" horiz-adv-x="830" d="M282 1037l297 515h281l-297 -515h-281zM662 1037l297 515h281l-297 -515h-281z" />
<glyph unicode="&#x201d;" horiz-adv-x="830" d="M282 1037l297 515h281l-297 -515h-281zM662 1037l297 515h281l-297 -515h-281z" />
<glyph unicode="&#x201e;" horiz-adv-x="830" d="M-90 -260l297 515h281l-297 -515h-281zM290 -260l297 515h281l-297 -515h-281z" />
<glyph unicode="&#x2022;" horiz-adv-x="640" d="M310 562l98 342h342l-98 -342h-342z" />
<glyph unicode="&#x2026;" horiz-adv-x="1720" d="M127 -41l84 292h292l-84 -292h-292zM692 -41l84 292h292l-84 -292h-292zM1257 -41l84 292h292l-84 -292h-292z" />
<glyph unicode="&#x202f;" horiz-adv-x="395" />
<glyph unicode="&#x2039;" horiz-adv-x="607" d="M204 623l399 406h289l-421 -406l188 -406h-288z" />
<glyph unicode="&#x203a;" horiz-adv-x="607" d="M72 217l422 406l-189 406h288l168 -406l-400 -406h-289z" />
<glyph unicode="&#x205f;" horiz-adv-x="494" />
<glyph unicode="&#x20ac;" horiz-adv-x="1335" d="M142 463l61 212h202q8 43 41 132h-142l61 212h187q133 210 334.5 331.5t425.5 121.5q181 0 341 -79l31 -15l-135 -218l-36 16q-148 64 -270 64q-117 0 -228.5 -59t-199.5 -162h426l-61 -212h-497q-33 -76 -43 -132h439l-61 -212h-390q19 -129 105.5 -207.5t235.5 -78.5 q128 0 291 57l43 15l17 -200l-38 -16q-222 -94 -419 -94q-232 0 -361 136t-129 365v23h-231z" />
<glyph unicode="&#x2122;" horiz-adv-x="1424" d="M488 1406l37 130h498l-37 -130h-175l-140 -488h-148l140 488h-175zM928 918l177 618h156l75 -289l233 289h160l-177 -618h-148l107 373l-183 -221h-98l-48 218l-106 -370h-148z" />
<glyph unicode="&#x25fc;" horiz-adv-x="965" d="M0 0v965h965v-965h-965z" />
<glyph unicode="&#xfb01;" horiz-adv-x="1563" d="M-307 -480l96 196l38 -10q82 -22 138 -22q236 0 279 153l262 915h-159l61 211h159l18 63q10 35 16.5 56t21 58t28.5 61t38 57t50.5 55t65 46t82.5 38t102 23t124 9q123 0 246 -41l33 -11l-98 -200l-38 10q-85 23 -138 23q-234 0 -284 -173l-21 -74h385l-61 -211h-385 l-260 -908q-37 -130 -85 -197q-126 -178 -436 -178q-123 0 -246 40zM1139 -10l279 973h246l-279 -973h-246zM1456 1150l78 271h276l-78 -271h-276z" />
<glyph unicode="&#xfb02;" horiz-adv-x="1602" d="M-307 -480l96 196l38 -10q82 -22 138 -22q236 0 279 153l262 915h-159l61 211h159l17 62q10 34 16.5 55t20.5 57t28 60t38 56.5t50.5 54.5t65 45t82.5 37t102 23t124 9q123 0 246 -41l33 -11l-98 -202l-38 10q-81 25 -137 25q-236 0 -284 -168l-20 -72h385l-61 -211h-385 l-260 -908q-37 -130 -85 -197q-126 -178 -436 -178q-123 0 -246 40zM1158 -10l436 1521h246l-436 -1521h-246z" />
<glyph unicode="&#xfb03;" horiz-adv-x="2528" d="M-307 -480l96 196l38 -10q82 -22 138 -22q236 0 279 153l262 915h-159l61 211h159l18 63q10 35 16.5 56t21 58t28.5 61t38 57t50.5 55t65 46t82.5 38t102 23t124 9q123 0 246 -41l33 -11l-98 -200l-38 10q-85 23 -138 23q-234 0 -284 -173l-21 -74h719l18 63 q13 45 22 72.5t31 75t45.5 78t64.5 67.5t90 58.5t120 36.5t156 15q123 0 246 -41l32 -11l-97 -200l-38 10q-85 23 -138 23q-235 0 -285 -173l-21 -74h385l-60 -211h-385l-261 -908q-9 -32 -15.5 -51.5t-20 -54t-27 -57t-37 -53.5t-49.5 -51t-64 -42.5t-81.5 -35.5 t-101.5 -21.5t-124 -8.5q-123 0 -246 40l-33 11l97 196l38 -10q82 -22 137 -22q236 0 279 153l263 915h-720l-260 -908q-37 -130 -85 -197q-126 -178 -436 -178q-123 0 -246 40zM2104 -10l279 973h246l-279 -973h-246zM2422 1150l77 271h276l-77 -271h-276z" />
<glyph unicode="&#xfb04;" horiz-adv-x="2567" d="M-307 -480l96 196l38 -10q82 -22 138 -22q236 0 279 153l262 915h-159l61 211h159l17 62q10 34 16.5 55t20.5 57t28 60t38 56.5t50.5 54.5t65 45t82.5 37t102 23t124 9q123 0 246 -41l33 -11l-98 -202l-38 10q-81 25 -137 25q-236 0 -284 -168l-20 -72h719l18 62 q10 34 16.5 55t20.5 57t28 60t38 56.5t50.5 54.5t65 45t82.5 37t102 23t124 9q123 0 246 -41l32 -11l-98 -202l-38 10q-81 25 -137 25q-235 0 -283 -168l-21 -72h385l-60 -211h-385l-261 -908q-9 -32 -15.5 -51.5t-20 -54t-27 -57t-37 -53.5t-49.5 -51t-64 -42.5 t-81.5 -35.5t-101.5 -21.5t-124 -8.5q-123 0 -246 40l-33 11l97 196l38 -10q82 -22 137 -22q236 0 279 153l263 915h-720l-260 -908q-37 -130 -85 -197q-126 -178 -436 -178q-123 0 -246 40zM2123 -10l436 1521h246l-436 -1521h-246z" />
</font>
</defs>
</svg>
