<?xml version="1.0" standalone="no"?>
<!DOCTYPE svg PUBLIC "-//W3C//DTD SVG 1.1//EN" "http://www.w3.org/Graphics/SVG/1.1/DTD/svg11.dtd" >
<svg xmlns="http://www.w3.org/2000/svg">
<metadata></metadata>
<defs>
<font id="latin_modern_sans10BdOb" horiz-adv-x="550" >
<font-face units-per-em="1000" ascent="806" descent="-194" />
<missing-glyph horiz-adv-x="367" />
<glyph unicode="&#xfb01;" horiz-adv-x="586" d="M96 48l72 338q-16 0 -25 1t-18 9.5t-5 25.5q7 36 63 36l18 82q35 165 196 165q27 0 50 -7q18 -4 20.5 -9t-1.5 -22l-11 -51q-5 -27 -19 -27q-8 0 -10 10q-8 34 -42 34q-33 0 -46 -61l-25 -114h60q48 0 41 -36q-8 -36 -56 -36h-57l-72 -338q-5 -27 -17.5 -37.5 t-40.5 -10.5h-37q-27 0 -35 10.5t-3 37.5zM401 48l77 362q6 27 18 37.5t40 10.5h37q29 0 36.5 -11t1.5 -37l-77 -362q-5 -27 -17.5 -37.5t-40.5 -10.5h-37q-29 0 -36.5 11t-1.5 37zM518 607l9 40q5 27 17.5 37.5t40.5 10.5h40q29 0 36 -11t2 -37l-9 -40q-5 -27 -17.5 -37.5 t-40.5 -10.5h-40q-29 0 -36.5 11t-1.5 37z" />
<glyph unicode="&#xfb02;" horiz-adv-x="586" d="M96 48l72 338q-16 0 -25 1t-18 9.5t-5 25.5q7 36 63 36l18 82q35 165 196 165q27 0 50 -7q18 -4 20.5 -9t-1.5 -22l-10 -46q-5 -26 -19 -26q-7 0 -10 11l-2 4l-3 4.5t-3.5 5t-5.5 5.5t-7 4t-9.5 3t-12.5 1q-33 0 -46 -61l-25 -114h60q48 0 41 -36q-8 -36 -56 -36h-57 l-72 -338q-5 -27 -17.5 -37.5t-40.5 -10.5h-37q-27 0 -35 10.5t-3 37.5zM401 48l127 598q6 27 18.5 37.5t40.5 10.5h37q29 0 36 -11t1 -37l-127 -598q-5 -27 -17.5 -37.5t-40.5 -10.5h-37q-29 0 -36.5 11t-1.5 37z" />
<glyph unicode="&#xfb03;" horiz-adv-x="892" d="M96 48l72 338q-16 0 -25 1t-18 9.5t-5 25.5q7 36 63 36l18 81q35 166 212 166q32 0 57 -6q20 -5 23.5 -9.5t-0.5 -22.5l-10 -46q-5 -26 -19 -26q-5 0 -10 7q-18 31 -54 31q-21 0 -35 -10.5t-19 -22t-9 -31.5l-24 -111h59q48 0 41 -36q-8 -36 -56 -36h-56l-72 -338 q-5 -27 -17.5 -37.5t-40.5 -10.5h-37q-27 0 -35 10.5t-3 37.5zM402 48l105 492q35 165 197 165q26 0 48 -5q19 -4 21.5 -8t-2.5 -22l-11 -52q-2 -10 -3.5 -14.5t-5 -8t-9.5 -3.5q-8 0 -10 10q-10 31 -42 31q-34 0 -46 -61l-25 -114h59q48 0 41 -36q-8 -36 -56 -36h-56 l-72 -338q-5 -27 -17.5 -37.5t-40.5 -10.5h-37q-27 0 -35 10.5t-3 37.5zM707 48l77 362q6 27 18 37.5t40 10.5h37q29 0 36.5 -11t1.5 -37l-77 -362q-5 -27 -17.5 -37.5t-40.5 -10.5h-37q-29 0 -36.5 11t-1.5 37zM824 607l9 40q5 27 17.5 37.5t40.5 10.5h40q29 0 36 -11 t2 -37l-9 -40q-5 -27 -17.5 -37.5t-40.5 -10.5h-40q-29 0 -36.5 11t-1.5 37z" />
<glyph unicode="&#xfb04;" horiz-adv-x="892" d="M96 48l72 338q-16 0 -25 1t-18 9.5t-5 25.5q7 36 63 36l18 81q35 166 212 166q32 0 57 -6q20 -5 23.5 -9.5t-0.5 -22.5l-10 -46q-5 -26 -19 -26q-5 0 -10 7q-18 31 -54 31q-21 0 -35 -10.5t-19 -22t-9 -31.5l-24 -111h59q48 0 41 -36q-8 -36 -56 -36h-56l-72 -338 q-5 -27 -17.5 -37.5t-40.5 -10.5h-37q-27 0 -35 10.5t-3 37.5zM402 48l105 492q35 165 195 165q28 0 50 -7q18 -4 20.5 -8.5t-1.5 -22.5l-10 -46q-5 -26 -19 -26q-6 0 -10 10q-14 28 -42 28q-34 0 -46 -61l-25 -114h59q48 0 41 -36q-8 -36 -56 -36h-56l-72 -338 q-5 -27 -17.5 -37.5t-40.5 -10.5h-37q-27 0 -35 10.5t-3 37.5zM707 48l127 598q6 27 18.5 37.5t40.5 10.5h37q29 0 36 -11t1 -37l-127 -598q-5 -27 -17.5 -37.5t-40.5 -10.5h-37q-29 0 -36.5 11t-1.5 37z" />
<glyph horiz-adv-x="1000" />
<glyph horiz-adv-x="1000" />
<glyph unicode="&#xd;" horiz-adv-x="1000" />
<glyph unicode=" "  horiz-adv-x="367" />
<glyph unicode="&#x09;" horiz-adv-x="367" />
<glyph unicode="&#xa0;" horiz-adv-x="367" />
<glyph unicode="!" horiz-adv-x="367" d="M128 48l8 35q5 27 17.5 37.5t40.5 10.5h35q29 0 36 -11t2 -37l-8 -35q-5 -27 -17.5 -37.5t-40.5 -10.5h-35q-27 0 -35 10.5t-3 37.5zM176 206q-1 3 15 88t21 110q6 31 22 124.5t27 144.5q4 15 9 18t23 3h77q18 0 22 -3t0 -18q-9 -41 -28 -118t-26 -107l-54 -224 q-5 -20 -10 -24t-24 -4h-49q-11 0 -15 0.5t-7 2.5t-3 7z" />
<glyph unicode="&#x22;" horiz-adv-x="578" d="M186 475l42 196q4 19 19.5 32t34.5 13h45q19 0 30 -13t7 -32l-42 -196q-4 -19 -20.5 -32t-35.5 -13h-45q-19 0 -29 13t-6 32zM458 475l42 196q4 19 19.5 32t34.5 13h45q19 0 30 -13t7 -32l-42 -196q-4 -19 -20.5 -32t-35.5 -13h-45q-19 0 -29 13t-6 32z" />
<glyph unicode="#" horiz-adv-x="917" d="M90 135q9 42 63 42h162l72 146h-203q-11 0 -19.5 1t-19 11.5t-6.5 29.5q9 42 62 42h229l126 250q17 37 50 37q18 0 27 -12.5t6 -29.5q-1 -6 -27.5 -59t-58 -115t-35.5 -71h145l126 250q17 37 50 37q18 0 27 -12.5t6 -29.5q-1 -6 -27.5 -59t-58 -115t-35.5 -71h138 q10 0 18.5 -1t19 -11.5t6.5 -29.5q-9 -42 -63 -42h-162l-72 -146h203q11 0 19.5 -1t19 -11.5t6.5 -29.5q-9 -42 -62 -42h-229l-126 -250q-20 -37 -50 -37q-18 0 -27.5 12.5t-5.5 29.5q2 15 121 245h-145l-126 -250q-20 -37 -50 -37q-18 0 -27.5 12.5t-5.5 29.5q2 15 121 245 h-138q-10 0 -18.5 1t-19 11.5t-6.5 29.5zM403 177h145l72 146h-145z" />
<glyph unicode="$" d="M64 71q1 4 7.5 21t14 36t9.5 24q7 15 16 15q8 0 11 -5q55 -60 136 -71l43 203q-75 14 -112.5 71t-21.5 136q21 92 75 142q57 52 146 60l1 4q1 4 2 6t2.5 6.5t3 7.5t4.5 7t6 6.5t7 5t9 3.5t11 1q37 0 27 -46q48 -3 89 -24q1 -1 3 -2t8.5 -4t11.5 -6.5t11.5 -7.5t11 -8 t7.5 -8.5t2 -7.5q0 -6 -5 -13l-22 -57q-7 -22 -19 -22q-5 0 -10 5q-49 47 -110 54l-37 -175q74 -15 111 -75.5t19 -145.5q-41 -195 -223 -216q-9 -47 -46 -47q-35 0 -26 47q-89 8 -153 56q-15 12 -18 15.5t-2 8.5zM288 524q-12 -58 46 -79l33 157q-64 -12 -79 -78zM331 93 q65 15 80 91q7 32 -4.5 56.5t-36.5 35.5z" />
<glyph unicode="%" horiz-adv-x="1029" d="M178 549q42 201 224 201q179 0 136 -202q-42 -201 -221 -201q-182 0 -139 202zM198 -14q3 14 20 31l688 712q21 21 41 21q18 0 27.5 -12.5t5.5 -29.5q0 -12 -18 -31l-689 -712q-21 -21 -42 -21q-17 0 -27 12.5t-6 29.5zM297 548q-16 -80 -7 -105q10 -24 41 -24 q66 0 94 130q18 98 -11 121q-12 8 -28 8q-18 0 -31.5 -8.5t-22 -18.5t-16 -31.5t-10.5 -33t-9 -38.5zM637 146q43 201 225 201q179 0 136 -202q-19 -91 -72.5 -146t-149.5 -55q-182 0 -139 202zM757 146q-3 -17 -4.5 -24t-4 -22t-2.5 -22.5v-19.5t3.5 -18t8 -12.5t13 -9 t19.5 -2.5q66 0 94 130q28 129 -39 129q-18 0 -31.5 -8.5t-22 -18.5t-16 -31t-10.5 -33.5t-8 -37.5z" />
<glyph unicode="&#x26;" horiz-adv-x="831" d="M77 147q15 68 74 114q23 17 119 74q-22 94 -2 188q18 85 85.5 139t141.5 54q72 0 109.5 -49t24.5 -114q-11 -48 -64.5 -97t-161.5 -116q17 -48 52.5 -103t50.5 -72q51 35 108 98t103 150q8 17 11.5 21.5t10.5 4.5q6 0 69 -19q13 -4 11 -14q-1 -9 -27 -54.5t-87 -121 t-131 -128.5q38 -24 86 -24q52 0 107 20q8 4 11 4q9 0 10 -7.5t-3 -21.5l-11 -48q-3 -16 -5.5 -21t-9.5 -7q-2 -2 -17.5 -6t-45.5 -8.5t-59 -4.5q-87 0 -173 55q-110 -55 -222 -55q-86 0 -133 49t-32 120zM219 174q-2 -9 -2.5 -21.5t1.5 -31t14.5 -31t34.5 -12.5 q59 0 123 24q-75 98 -100 168q-57 -29 -71 -96zM385 407q113 69 129 145q9 29 0.5 60.5t-34.5 31.5t-54 -24t-39 -74q-13 -69 -2 -139z" />
<glyph unicode="'" horiz-adv-x="306" d="M186 475l42 196q4 19 19.5 32t34.5 13h45q19 0 30 -13t7 -32l-42 -196q-4 -19 -20.5 -32t-35.5 -13h-45q-19 0 -29 13t-6 32z" />
<glyph unicode="(" horiz-adv-x="428" d="M139 250q33 155 112.5 280.5t187.5 203.5q15 12 21 14t20 2h18q10 0 14.5 -0.5t8 -3.5t2.5 -9q-1 -3 -9 -11q-33 -32 -59 -63t-61.5 -87t-66 -139t-52.5 -187q-27 -126 -26.5 -224t16 -148.5t42.5 -96.5q9 -12 9 -18q-3 -13 -30 -13h-18q-16 0 -21.5 2.5t-17.5 16.5 q-48 53 -74.5 119.5t-31 134t0 121t15.5 106.5z" />
<glyph unicode=")" horiz-adv-x="428" d="M11 -237q0 4 8 11q34 33 59.5 64t61 87t66 138.5t52.5 186.5q27 126 26 224.5t-16 148.5t-42 96q-9 14 -8 18q2 13 29 13h18q15 0 21 -2.5t18 -16.5q48 -53 74.5 -119.5t31 -134t0 -121t-15.5 -106.5q-33 -156 -112 -281.5t-188 -202.5q-15 -12 -21 -14t-20 -2h-18h-11.5 t-7.5 1.5t-5 4t0 7.5z" />
<glyph unicode="*" d="M161 436q7 32 42 43l142 42l-125 42q-31 10 -23 43q5 23 25 40.5t40 17.5q16 0 30 -16l80 -92v131v19q4 18 22 31t40 13q21 0 34 -13t9 -31q-7 -17 -8 -19l-56 -131l121 92q21 16 35 16q20 0 33 -17.5t8 -40.5q-7 -31 -42 -43l-142 -42l125 -42q29 -10 23 -43 q-5 -23 -25.5 -40.5t-40.5 -17.5q-16 0 -29 16l-81 92v-131v-19q-3 -17 -21.5 -30.5t-40.5 -13.5q-21 0 -34 13t-9 31q7 17 8 19l56 131l-120 -92q-21 -16 -36 -16q-20 0 -32.5 17.5t-7.5 40.5z" />
<glyph unicode="+" horiz-adv-x="856" d="M114 250q9 42 62 42h272l58 272q11 53 53 53t31 -53l-58 -272h271q10 0 18.5 -1t19 -11.5t6.5 -29.5q-9 -42 -62 -42h-271l-58 -272q-11 -53 -53 -53t-31 53l58 272h-272q-10 0 -18.5 1t-19 11.5t-6.5 29.5z" />
<glyph unicode="," horiz-adv-x="306" d="M68 -93q17 30 26 45l27 48q-25 0 -29 4t1 23l16 77q5 20 9.5 23.5t23.5 3.5h77q20 0 22.5 -3.5t-1.5 -23.5l-16 -77q-5 -20 -16 -33l-70 -83q-10 -12 -15 -14.5t-20 -2.5h-12h-11t-7 1.5t-5 4t0 7.5z" />
<glyph unicode="-" horiz-adv-x="367" d="M61 229q7 36 55 36h197q48 0 41 -36q-8 -36 -56 -36h-197q-11 0 -18.5 1t-16.5 10t-5 25z" />
<glyph unicode="." horiz-adv-x="306" d="M93 27l16 77q5 20 9.5 23.5t23.5 3.5h77q20 0 22.5 -3.5t-1.5 -23.5l-16 -77q-5 -20 -9.5 -23.5t-23.5 -3.5h-77q-20 0 -22.5 4t1.5 23z" />
<glyph unicode="/" d="M17 -208q1 8 11 23l528 901q19 34 49 34q18 0 27.5 -12.5t5.5 -29.5q-1 -8 -10 -23l-529 -901q-19 -34 -49 -34q-18 0 -27.5 12.5t-5.5 29.5z" />
<glyph unicode="0" d="M116 343q9 41 14.5 65.5t19 68.5t28 72t39 63t52.5 55t69 34.5t89 14.5t82.5 -14.5t54 -34.5t29 -55.5t12 -63t-2.5 -72.5t-9.5 -68.5t-13.5 -64.5q-6 -29 -9.5 -44.5t-11.5 -46.5t-15.5 -49.5t-19 -47.5t-24 -47t-29.5 -41t-37.5 -37t-45 -27t-54.5 -19t-64 -6 q-48 0 -82.5 14t-54 33.5t-29.5 54t-12 61.5t3 71t9 66.5t13 64.5zM222 169q-13 -119 63 -119q77 0 113 117q20 59 48 190q28 137 32 183q5 104 -67 104q-76 0 -114 -115q-19 -57 -42 -172q-29 -131 -33 -188z" />
<glyph unicode="1" d="M100 36q7 36 55 36h78l110 516q-50 -13 -97 -13q-11 0 -19 1t-16.5 10t-4.5 25q7 36 52 36q96 2 166 55q18 14 39 14q29 0 35 -17t-1 -31l-127 -596h70q10 0 18 -1t17 -10t6 -25q-8 -36 -56 -36h-285q-11 0 -19 1t-16.5 10t-4.5 25z" />
<glyph unicode="2" d="M67 56q3 14 5 18t11 11l234 204q120 104 140 195q6 23 3.5 46.5t-10.5 42.5t-27.5 31t-47.5 12q-86 0 -142 -111q-8 -19 -18 -19q-7 0 -13 12l-37 64q15 30 38 56.5t35.5 36.5t23.5 17q63 44 149 44q106 0 156 -67.5t30 -162.5q-7 -32 -21 -59t-38.5 -53.5t-41 -41 t-50.5 -42.5q-29 -20 -62.5 -45t-57 -43.5t-62 -49t-57.5 -45.5h162l68 1q52 0 58 -4q13 -6 14.5 -19.5t-2.5 -24.5l-3 -12q-5 -27 -17.5 -37.5t-40.5 -10.5h-343q-30 0 -37.5 14t1.5 42z" />
<glyph unicode="3" d="M61 72l27 69q6 11 15 11q4 0 12 -10q60 -70 158 -70q61 0 87 34.5t40 98.5q7 39 8 69t-19 47.5t-63 17.5h-44q-20 0 -22.5 3.5t1.5 23.5l4 18q4 22 12 25q2 1 34 4q19 1 29.5 3t26.5 9t30 20q39 38 52 100q9 42 -1.5 62t-54.5 20q-84 0 -150 -73q-11 -11 -17 -11 q-7 0 -12 12l-20 40l-3 15q0 3 10 14t30.5 26.5t46.5 30.5t63 25t76 10q14 0 27 -1t31.5 -3.5t33 -8t31 -14t26.5 -21.5t19 -30.5t8 -41t-5 -53.5q-23 -107 -143 -166q130 -35 101 -174q-22 -105 -93 -165t-195 -60q-59 0 -108 21.5t-69.5 42.5t-19.5 30z" />
<glyph unicode="4" d="M74 201l5 25q5 20 16 36l309 409q17 23 51 23h73q28 0 35.5 -10.5t1.5 -37.5l-84 -399h42q27 0 35 -10t3 -37q-6 -28 -19.5 -37.5t-38.5 -9.5h-42l-23 -105q-5 -27 -17.5 -37.5t-40.5 -10.5h-28q-29 0 -36.5 11t-1.5 37l23 105h-225q-29 0 -36.5 11t-1.5 37zM188 247h175 l72 342h-1q-20 -43 -246 -342z" />
<glyph unicode="5" d="M57 94q1 4 51 65q11 13 19 13q6 0 10 -12q26 -88 120 -88q30 0 53 9.5t36 21t23.5 36t14.5 40t11 46.5q17 59 14 106.5t-46 47.5q-65 0 -113 -59q-13 -17 -22.5 -20.5t-31.5 -3.5q-13 0 -19 1t-14.5 5.5t-8 13.5t1.5 26l65 306q6 28 19 37t39 9h278q32 0 38.5 -15 t-1.5 -35q-3 -13 -5.5 -19.5t-8.5 -15t-17 -12t-28 -3.5h-196l-33 -156q38 13 76 13q109 0 145.5 -62t13.5 -168q-25 -120 -102 -181.5t-199 -61.5q-40 0 -73.5 11.5t-53.5 27t-33.5 33t-18.5 29.5t-4 15z" />
<glyph unicode="6" d="M118 340q81 376 368 376q37 0 61 -10t27.5 -15t-0.5 -23l-8 -37q-5 -27 -18 -27q-5 0 -13 7q-26 16 -65 16q-98 0 -148 -85q-16 -28 -25 -53.5t-28 -98.5q60 89 141 89q194 0 143 -243q-14 -66 -34 -109.5t-65 -83.5q-72 -65 -180 -65q-48 0 -83 15.5t-54 37.5t-28.5 58 t-12 64.5t2 70.5t8.5 63t11 53zM241 248q-8 -37 -11 -64.5t0 -55t19 -42t44 -14.5q25 0 43.5 8.5t29.5 20.5t20.5 36.5t14 43.5t12.5 56q7 33 10 47.5t6 39.5t0.5 36t-8 24t-18.5 18t-33 5q-50 0 -82.5 -45t-46.5 -114z" />
<glyph unicode="7" d="M151 37q66 304 341 550h-169l-70 -1q-54 0 -61 4q-20 9 -11 44l3 13q7 33 22 40.5t56 7.5h63l284 -1q27 -1 32.5 -17.5t-1.5 -32.5q-6 -26 -16 -36q-124 -123 -208.5 -264t-124.5 -316q-8 -39 -56 -39h-46q-29 0 -36.5 11t-1.5 37z" />
<glyph unicode="8" d="M89 203q30 137 159 171q-101 37 -76 147q41 195 255 195q213 0 172 -195q-25 -111 -140 -147q115 -35 87 -171q-48 -225 -277 -225q-228 0 -180 225zM229 205q-6 -28 -8.5 -44t-2.5 -35.5t7.5 -29.5t23 -17t41.5 -7q25 0 44 7.5t30.5 17.5t20.5 29.5t13 35t10 43.5 q6 26 8 40t2 35t-7 31.5t-23 19t-42 8.5q-32 0 -53.5 -10.5t-34 -33.5t-18 -40.5t-11.5 -49.5zM300 520q-5 -23 -7 -35t-1 -28.5t8 -25t22.5 -14.5t39.5 -6q30 0 50 8t31.5 26t16.5 32.5t11 42.5q15 53 3 80t-67 27t-75 -24t-32 -83z" />
<glyph unicode="9" d="M87 39q2 7 46 61q11 13 18 13t11 -8q29 -33 80 -33q120 0 168 162q5 18 9 34.5t6 25t3 11.5q-58 -90 -141 -90q-51 0 -83 15t-53 52q-15 27 -18.5 58.5t-0.5 56t12 62.5q13 62 31 102.5t56 79.5q77 75 196 75q47 0 81 -15t52.5 -36.5t28 -57.5t11.5 -63.5t-2.5 -70 t-8 -63t-10.5 -54.5q-80 -378 -355 -378q-44 0 -78 14t-47 27.5t-12 19.5zM283 458q-7 -32 -10 -48t-6 -40t0 -35.5t8.5 -24.5t18.5 -18t33 -5q33 0 59.5 21t41 54.5t20.5 50.5t9 32q20 79 10.5 130.5t-57.5 51.5q-27 0 -46.5 -9.5t-31 -21t-22 -38t-15 -44.5t-12.5 -56z " />
<glyph unicode=":" horiz-adv-x="306" d="M93 27l16 77q5 20 9.5 23.5t23.5 3.5h77q20 0 22.5 -3.5t-1.5 -23.5l-16 -77q-5 -20 -9.5 -23.5t-23.5 -3.5h-77q-20 0 -22.5 4t1.5 23zM162 354l17 77q4 20 8.5 23.5t23.5 3.5h77q20 0 23 -4t-1 -23l-17 -77q-4 -20 -8.5 -23.5t-23.5 -3.5h-77q-20 0 -23 3.5t1 23.5z " />
<glyph unicode=";" horiz-adv-x="306" d="M68 -93q17 30 26 45l27 48q-25 0 -29 4t1 23l16 77q5 20 9.5 23.5t23.5 3.5h77q20 0 22.5 -3.5t-1.5 -23.5l-16 -77q-5 -20 -16 -33l-70 -83q-10 -12 -15 -14.5t-20 -2.5h-12h-11t-7 1.5t-5 4t0 7.5zM162 354l17 77q4 20 8.5 23.5t23.5 3.5h77q20 0 23 -4t-1 -23l-17 -77 q-4 -20 -8.5 -23.5t-23.5 -3.5h-77q-20 0 -23 3.5t1 23.5z" />
<glyph unicode="&#x3c;" horiz-adv-x="894" d="M149 251q4 19 32 31l689 299q12 6 21 6q13 0 19.5 -9.5t4.5 -20.5q-3 -19 -31 -32l-634 -275l517 -274q22 -13 18 -32q-2 -11 -13 -20.5t-24 -9.5q-8 0 -21 7l-559 298q-22 11 -19 32z" />
<glyph unicode="=" horiz-adv-x="856" d="M90 135q9 42 63 42h625q11 0 19.5 -1t19 -11.5t6.5 -29.5q-9 -42 -62 -42h-627q-10 0 -18.5 1t-19 11.5t-6.5 29.5zM139 365q9 42 62 42h627q10 0 18.5 -1t19 -11.5t6.5 -29.5q-9 -42 -63 -42h-625q-11 0 -19.5 1t-19 11.5t-6.5 29.5z" />
<glyph unicode="&#x3e;" horiz-adv-x="894" d="M84 -56q4 20 32 32l633 275l-516 274q-23 12 -19 32q3 12 14 21t23 9q9 0 21 -7l560 -298q22 -11 18 -31q-4 -21 -31 -32l-690 -299q-12 -6 -20 -6q-14 0 -20.5 9.5t-4.5 20.5z" />
<glyph unicode="?" horiz-adv-x="519" d="M188 48l8 35q5 27 17.5 37.5t40.5 10.5h35q29 0 36 -11t2 -37l-8 -35q-5 -27 -17.5 -37.5t-40.5 -10.5h-35q-27 0 -35 10.5t-3 37.5zM197 642q2 9 36 25q78 38 167 38q25 0 42 -1t49.5 -9t51.5 -22.5t30 -45t2 -73.5q-16 -77 -80 -116q-124 -81 -146 -188l-6 -27 q-4 -20 -8.5 -23.5t-24.5 -3.5h-49q-23 0 -26 8q0 7 7 35q29 139 151 241q16 13 22.5 20t13 21.5t11.5 37.5q9 42 -1 58t-57 16q-82 0 -149 -64q-9 -9 -15 -9q-10 0 -11 17l-8 49z" />
<glyph unicode="@" horiz-adv-x="733" d="M135 347q38 179 149 268.5t289 89.5q63 0 104.5 -17t62.5 -44.5t26.5 -73t1 -92t-18.5 -111.5q-5 -24 -8.5 -38t-14 -43t-22 -48.5t-32.5 -44t-46 -39.5t-62 -25.5t-81 -10.5q-212 0 -163 229t260 229q35 0 65 -7q-12 64 -88 64q-130 0 -208 -83q-66 -71 -94 -203 q-29 -135 11 -209q44 -77 173 -77q77 0 163 36q7 4 25 4h38q10 0 14.5 -0.5t8 -3.5t2.5 -9q-2 -10 -41.5 -33t-71.5 -36q-78 -30 -156 -30q-176 0 -250 89t-36 269zM440 347q-36 -157 59 -157q93 0 126 157q32 157 -60 157t-125 -157z" />
<glyph unicode="A" horiz-adv-x="733" d="M48 27q2 8 9 20l339 604q25 43 74 43h88q14 0 22.5 -1.5t19 -11.5t12.5 -30l83 -604q2 -14 1 -20q-6 -27 -45 -27h-54q-23 0 -35 7.5t-15 17t-5 30.5l-14 96h-277l-62 -111q-23 -40 -72 -40h-36q-11 0 -17 1t-12.5 7.5t-3.5 18.5zM299 237h217l-35 281q-3 23 -2 49h-1 q-18 -41 -62 -118z" />
<glyph unicode="B" horiz-adv-x="733" d="M101 48l127 598q6 27 19 37.5t40 10.5h246q24 0 44 -1t60.5 -10.5t66 -27t41 -54t4.5 -87.5q-12 -58 -57.5 -96.5t-119.5 -54.5q170 -28 140 -169q-13 -63 -50.5 -105.5t-87.5 -60t-86.5 -23t-74.5 -5.5h-274q-27 0 -35 10.5t-3 37.5zM250 86h145q156 0 179 110 q8 36 -2.5 62.5t-27 39t-44 19t-41.5 7.5t-32 1h-126zM316 397h116q14 0 26.5 0.5t40 7t48 17t40 34t26.5 55.5q6 27 -3 46t-24 28.5t-38.5 15t-38 6.5t-31.5 1h-117z" />
<glyph unicode="C" horiz-adv-x="703" d="M135 347q77 369 446 369q96 0 171 -29q19 -7 23 -9.5t2 -9.5q-3 -9 -5 -13l-33 -87q-7 -18 -18 -18q-6 0 -13 7q-29 30 -62.5 44.5t-86.5 14.5q-59 0 -106 -20t-75 -47t-49 -67.5t-30 -69.5t-17 -65q-13 -58 -12.5 -103.5t16 -84.5t56.5 -60t107 -21q62 0 100 12t88 44 q16 11 22 11q11 0 9 -18q-1 -4 -3 -22.5t-4.5 -34.5t-3.5 -21q-2 -8 -6.5 -11.5t-26.5 -14.5q-55 -26 -96 -35.5t-103 -9.5q-369 0 -290 369z" />
<glyph unicode="D" horiz-adv-x="794" d="M101 48l127 598q6 27 19 37.5t40 10.5h264q175 0 237 -105q50 -86 17 -247q-34 -159 -131.5 -250.5t-270.5 -91.5h-264q-27 0 -35 10.5t-3 37.5zM253 86h129q61 0 108.5 16.5t75 40t48 61.5t29.5 67t18 71q7 35 10.5 59t4 59t-9.5 58t-29 45.5t-56 33.5t-89 11h-128z" />
<glyph unicode="E" horiz-adv-x="642" d="M101 48l127 595q6 28 18.5 38t39.5 10h393q31 0 38 -15.5t-2 -40.5q-7 -33 -21.5 -40.5t-46.5 -7.5l-235 3h-49l-39 -185h263q27 0 35.5 -10t2.5 -37q-6 -28 -19 -37.5t-39 -9.5h-263l-43 -205q144 2 301 4q21 0 30 -1.5t15 -12.5t1 -34l-3 -14q-5 -27 -17.5 -37.5 t-40.5 -10.5h-408q-27 0 -35 10.5t-3 37.5z" />
<glyph unicode="F" horiz-adv-x="611" d="M101 48l127 595q6 28 18.5 38t39.5 10h377q31 0 38 -15.5t-2 -40.5q-7 -33 -21.5 -40.5t-45.5 -7.5l-226 3h-43l-41 -197h232q27 0 35 -10t3 -37q-6 -28 -19.5 -37.5t-38.5 -9.5h-232l-54 -251q-5 -27 -17.5 -37.5t-40.5 -10.5h-51q-27 0 -35 10.5t-3 37.5z" />
<glyph unicode="G" horiz-adv-x="733" d="M135 347q78 369 444 369q57 0 98.5 -9.5t86.5 -30.5q21 -10 23.5 -14.5t-4.5 -20.5l-33 -87q-7 -18 -18 -18q-4 0 -9 5q-18 19 -26.5 27.5t-29 22.5t-47 19.5t-61.5 5.5q-221 0 -277 -269q-8 -38 -11.5 -70t2 -71t22.5 -65.5t55.5 -44.5t95.5 -18q49 0 96 11l30 141h-69 q-20 0 -22.5 4t1.5 23l8 40q5 20 9.5 23.5t23.5 3.5h178q20 0 22.5 -4t-1.5 -23l-52 -243q-3 -19 -7 -23q-7 -5 -35 -16t-88.5 -24t-119.5 -13q-180 0 -252 93t-33 276z" />
<glyph unicode="H" horiz-adv-x="794" d="M101 48l127 598q6 27 19 37.5t40 10.5h51q29 0 36 -11t1 -37l-50 -238h317l50 238q6 27 18.5 37.5t40.5 10.5h51q29 0 36 -11t1 -37l-127 -598q-5 -27 -17.5 -37.5t-40.5 -10.5h-51q-29 0 -36.5 11t-1.5 37l57 266h-317l-57 -266q-5 -27 -17.5 -37.5t-40.5 -10.5h-51 q-27 0 -35 10.5t-3 37.5z" />
<glyph unicode="I" horiz-adv-x="331" d="M102 48l127 598q6 27 19 37.5t40 10.5h51q29 0 36 -11t1 -37l-127 -598q-5 -27 -17.5 -37.5t-40.5 -10.5h-51q-27 0 -35 10.5t-3 37.5z" />
<glyph unicode="J" horiz-adv-x="519" d="M53 33l34 88q8 19 18 19q6 0 13 -12q28 -50 94 -50q31 0 52 8t31.5 23.5t14 23.5t6.5 22l104 491q6 27 18.5 37.5t40.5 10.5h48q29 0 36 -11t1 -37l-105 -497q-18 -84 -81 -127.5t-148 -43.5t-156 35q-14 6 -18 10t-3 10z" />
<glyph unicode="K" horiz-adv-x="764" d="M101 48l127 598q6 27 19 37.5t40 10.5h34q29 0 36 -11t1 -37l-58 -276l386 304q26 20 63 20h61q10 0 15.5 -0.5t10.5 -5.5t3 -15q-3 -10 -16 -21l-316 -247l200 -376q-4 -20 -13 -24.5t-28 -4.5h-60q-34 0 -46 21l-160 300l-133 -105l-36 -168q-5 -27 -17.5 -37.5 t-40.5 -10.5h-34q-27 0 -35 10.5t-3 37.5z" />
<glyph unicode="L" horiz-adv-x="581" d="M101 48l127 598q2 11 5.5 19t8 14t11.5 9t15 4.5t19 1.5h51q29 0 36 -11t1 -37l-116 -545l250 4q21 0 31 -7.5t9 -18t-3 -22.5q-7 -32 -18 -44.5t-42 -12.5h-347q-27 0 -35 10.5t-3 37.5z" />
<glyph unicode="M" horiz-adv-x="978" d="M101 48l127 598q6 27 19 37.5t40 10.5h83q50 0 58 -41l61 -316q31 -180 31 -188h1q17 39 104 178l200 324q17 28 35 35.5t42 7.5h84q29 0 36 -11t1 -37l-127 -598q-5 -27 -17.5 -37.5t-40.5 -10.5h-27q-29 0 -36.5 11t-1.5 37l110 517h-1q-18 -38 -110 -186l-195 -314 q-18 -29 -35.5 -36t-49.5 -7q-22 0 -32 1.5t-20.5 11.5t-14.5 30l-56 285q-32 172 -34 215h-1l-110 -517q-5 -27 -17.5 -37.5t-40.5 -10.5h-27q-27 0 -35 10.5t-3 37.5z" />
<glyph unicode="N" horiz-adv-x="794" d="M101 48l127 598q6 27 19 37.5t40 10.5h93q11 0 17 -1t16 -4t17.5 -12t11.5 -23l162 -533h1l111 525q6 27 18.5 37.5t40.5 10.5h27q29 0 36 -11t1 -37l-127 -598q-5 -27 -17.5 -37.5t-40.5 -10.5h-93q-11 0 -17 1t-16 4t-17.5 12t-11.5 23l-162 533h-1l-112 -525 q-5 -27 -17.5 -37.5t-40.5 -10.5h-27q-27 0 -35 10.5t-3 37.5z" />
<glyph unicode="O" horiz-adv-x="794" d="M134 342q80 374 415 374q334 0 256 -374q-78 -364 -414 -364q-335 0 -257 364zM284 358q-6 -29 -9 -46t-7 -52.5t-2.5 -58.5t9 -53t23.5 -47.5t44 -30t67 -12.5t72.5 12.5t56.5 30.5t43 47.5t32 53t23 58.5t15 52.5t10 45.5t9 44.5t6.5 49.5t1.5 54.5t-10 49t-24 43.5 t-44.5 27.5t-67.5 11.5t-72 -11.5t-56 -28t-42.5 -44t-31 -49t-22 -54.5t-14.5 -49t-10 -44z" />
<glyph unicode="P" horiz-adv-x="703" d="M101 48l127 598q6 27 19 37.5t40 10.5h250q120 0 174.5 -53t31.5 -163q-23 -106 -99 -158t-197 -52h-152l-47 -220q-5 -27 -17.5 -37.5t-40.5 -10.5h-51q-27 0 -35 10.5t-3 37.5zM309 347h122q48 0 81 10t51 31t26 40.5t15 49.5q7 26 6 49.5t-10 41.5t-37.5 28.5 t-75.5 10.5h-123z" />
<glyph unicode="Q" horiz-adv-x="794" d="M134 342q80 374 415 374q334 0 256 -374q-52 -234 -201 -314l47 -84q11 -21 9 -28q-5 -22 -41 -22h-80q-24 0 -31 5t-18 30l-26 54q-33 -5 -73 -5q-335 0 -257 364zM278 343q-6 -27 -9 -44.5t-6.5 -51t-1.5 -55.5t10 -50t24 -45t45 -29t68 -12l20 2q0 1 -2.5 8t-6.5 15 t-4 9q-35 68 -33 81q5 23 41 23h61q16 0 21 -1.5t11 -9.5l40 -71q71 66 105 231q6 28 9 45t7 51.5t2 57.5t-10 52t-24 46.5t-44.5 30t-68.5 12.5q-39 0 -73 -12.5t-57.5 -30t-44 -46.5t-32 -52t-22.5 -57.5t-15 -51.5t-10 -45z" />
<glyph unicode="R" horiz-adv-x="703" d="M101 48l127 598q6 27 19 37.5t40 10.5h240q25 0 45.5 -1t62 -11.5t67.5 -29.5t41.5 -59t3.5 -96q-30 -139 -196 -177l108 -290q-3 -14 -10 -21t-13.5 -8t-19.5 -1h-59q-19 0 -27.5 3.5t-14.5 20.5l-103 287h-111l-56 -263q-5 -27 -17.5 -37.5t-40.5 -10.5h-48 q-27 0 -35 10.5t-3 37.5zM316 383h130q84 0 117 29.5t44 83.5q12 56 -10 84t-103 28h-130z" />
<glyph unicode="S" horiz-adv-x="611" d="M62 60q0 3 5 13l33 87q7 18 18 18q6 0 15 -12q72 -79 190 -79q119 0 140 97q8 39 -16 69q-12 14 -29.5 20.5t-62.5 17.5q-48 12 -68 18t-46 21.5t-45 40.5q-44 58 -27 137q44 208 288 208q100 0 173 -40q17 -10 19.5 -13t1.5 -9q-3 -9 -5 -13l-33 -87q-7 -18 -18 -18 q-4 0 -18 16q-48 61 -142 61q-119 0 -137 -87q-8 -37 16 -58t50 -27l91 -22q74 -18 114 -78t23 -141q-24 -113 -99.5 -167.5t-192.5 -54.5q-73 0 -142 23l-8 3q-9 4 -19.5 8.5t-23.5 11t-23 12.5t-16.5 12.5t-5.5 11.5z" />
<glyph unicode="T" horiz-adv-x="733" d="M174 632q4 17 8 26t10.5 16.5t16.5 10.5t25 3h556q32 0 38.5 -15t-2.5 -41q-5 -23 -15.5 -34t-19.5 -12.5t-27 -1.5l-199 3l-115 -539q-5 -27 -17.5 -37.5t-40.5 -10.5h-51q-27 0 -35 10.5t-3 37.5l115 539l-202 -3q-18 0 -26.5 1.5t-14.5 12.5t-1 34z" />
<glyph unicode="U" horiz-adv-x="764" d="M140 230l88 416q6 27 19 37.5t40 10.5h51q29 0 36 -11t1 -37l-89 -420q-18 -82 6 -122t107 -40q86 0 127 41t58 122l89 419q6 27 18.5 37.5t40.5 10.5h40q29 0 36 -11t1 -37l-88 -417q-13 -62 -42.5 -109t-64.5 -73.5t-79 -42.5t-80.5 -21t-75.5 -5q-29 0 -55.5 3 t-55.5 10t-50.5 19.5t-42 31.5t-30 45.5t-13 62t7.5 80.5z" />
<glyph unicode="V" horiz-adv-x="733" d="M169 667q6 27 45 27h54q11 0 17 -1t15.5 -4.5t15 -13t7.5 -24.5l67 -447q3 -18 5.5 -37t4 -30t1.5 -12q43 80 91 165t113.5 198.5t93.5 161.5q9 16 19 25.5t21.5 13t18 4.5t17.5 1h39q11 0 17 -1t12.5 -7.5t3.5 -18.5q0 -2 -1 -4t-3.5 -5.5t-4.5 -8.5l-352 -605 q-12 -20 -26.5 -30.5t-23.5 -12t-24 -1.5h-92q-11 0 -17 1t-15.5 4.5t-15 12.5t-7.5 24l-95 607q-2 13 -1 18z" />
<glyph unicode="W" horiz-adv-x="1039" d="M165 646v19q7 29 48 29h34q10 0 16 -1t15 -4.5t13.5 -13t5.5 -24.5l18 -320q9 -146 6 -203h1q8 20 41 95q29 64 63 135t76 157.5t65 134.5q10 20 24 30.5t23 12t24 1.5h66q25 0 36.5 -8.5t13.5 -35.5l22 -405q5 -89 4 -117h1q14 32 59 128l190 394q10 20 24 30.5t23 12 t23 1.5h21q11 0 17.5 -1t13 -8t3.5 -20q-1 -5 -8 -19l-292 -604q-7 -15 -15.5 -24t-19 -12.5t-17 -4.5t-17.5 -1h-72q-10 0 -16 1t-15 4.5t-13.5 12.5t-5.5 24l-22 377q-5 83 -4 148h-1q-26 -59 -60 -130l-188 -391q-10 -21 -24 -32t-23 -12.5t-24 -1.5h-66q-11 0 -17 1 t-15 4.5t-13.5 12.5t-5.5 24z" />
<glyph unicode="X" horiz-adv-x="733" d="M42 23q1 6 14 20l305 325l-158 284q-7 11 -6 20q5 22 40 22h83q13 0 19 -1t13.5 -6t13.5 -16l95 -185l171 187q20 21 54 21h75q10 0 16 -0.5t11.5 -6t3.5 -16.5q-2 -7 -15 -20l-266 -283l183 -326q6 -11 5 -20q-5 -22 -41 -22h-83q-12 0 -18.5 1t-14 6t-12.5 15l-116 240 l-212 -238q-13 -15 -22 -19.5t-32 -4.5h-75q-10 0 -16 0.5t-11.5 6t-3.5 16.5z" />
<glyph unicode="Y" horiz-adv-x="733" d="M167 671q5 23 41 23h66q28 0 44 -8.5t28 -32.5l78 -162q27 -55 37 -88q24 35 95 113l127 140q36 38 88 38h49q10 0 16 -0.5t11.5 -6t3.5 -16.5q-3 -10 -14 -21l-340 -373l-49 -230q-6 -27 -18.5 -37t-39.5 -10h-48q-27 0 -35 10.5t-3 37.5l49 230l-182 373q-6 12 -4 20z " />
<glyph unicode="Z" horiz-adv-x="672" d="M73 56q2 11 3.5 15.5t4.5 8.5t9 11l470 508h-35l-261 -3h-16t-13 1t-11 3t-7.5 5.5t-5 8.5t-0.5 13t2 18q6 26 17.5 37.5t41.5 11.5h438q22 0 32 -7t9 -18t-4 -25q-3 -13 -4.5 -17t-4 -8.5t-9.5 -11.5l-468 -506l320 4h14t12 -1t10 -3t7 -5t5 -8.5t1 -13t-2 -17.5 q-3 -13 -5.5 -21t-7 -15.5t-10.5 -11.5t-15 -6.5t-22 -2.5h-459q-30 0 -37.5 14t1.5 42z" />
<glyph unicode="[" horiz-adv-x="343" d="M44 -202l192 904q6 27 18 37.5t40 10.5h135q48 0 41 -36q-8 -36 -56 -36h-53l-182 -856h53q48 0 41 -36q-8 -36 -56 -36h-135q-29 0 -36.5 11t-1.5 37z" />
<glyph unicode="\" horiz-adv-x="575" d="M217 719q3 14 14 22.5t22 8.5q10 0 15.5 -4.5t7.5 -10t4 -15.5l182 -919q2 -16 1 -20q-3 -14 -14 -22.5t-22 -8.5q-10 0 -16 5t-7.5 10t-3.5 15l-181 919q-3 13 -2 20z" />
<glyph unicode="]" horiz-adv-x="343" d="M-21 -214q7 36 55 36h53l182 856h-53q-11 0 -18.5 1t-16.5 10t-5 25q7 36 55 36h135q29 0 36.5 -11t1.5 -37l-192 -904q-5 -27 -17.5 -37.5t-40.5 -10.5h-135q-11 0 -18.5 1t-16.5 10t-5 25z" />
<glyph unicode="^" horiz-adv-x="556" d="M119 584l317 160l249 -160l-17 -22l-245 123l-298 -123z" />
<glyph unicode="_" horiz-adv-x="733" d="M-41 -193l29 136h733l-29 -136h-733z" />
<glyph unicode="`" d="M264 681q3 13 30 13h82q14 0 18 -1.5t9 -10.5l61 -117l6 -15q-3 -13 -30 -13h-37l-131 129q-10 8 -8 15z" />
<glyph unicode="a" horiz-adv-x="525" d="M59 133q9 41 44 71.5t74 44.5t90 22.5t75 9.5t46 1l7 35q11 44 0 68t-50 24q-92 0 -169 -67q-8 -6 -13 -6q-12 0 -10 11q0 17 8 73q2 8 7.5 12t23.5 11q83 32 171 32q16 0 27 -0.5t34.5 -3.5t36.5 -9t34 -17t26.5 -28.5t13.5 -42t-4 -58.5l-57 -268q-5 -27 -17.5 -37.5 t-40.5 -10.5h-37q-29 0 -36.5 11t-1.5 37l4 20q-70 -79 -172 -79q-63 0 -94.5 44t-19.5 100zM190 135q-6 -30 8.5 -52t44.5 -22q5 0 12 0.5t25 5.5t32.5 14t28.5 28t20 45l18 87q-15 -1 -29 -2t-42.5 -7.5t-50.5 -17t-41.5 -31t-25.5 -48.5z" />
<glyph unicode="b" horiz-adv-x="561" d="M71 48l127 598q6 27 19 37.5t40 10.5h37q29 0 36 -11t1 -37l-49 -233q10 9 26.5 19.5t53 23.5t73.5 13q187 0 137 -238q-4 -18 -7 -29.5t-13 -39.5t-21.5 -47.5t-32.5 -45t-46.5 -41.5t-62.5 -27.5t-81 -11.5q-67 0 -103 50q-9 -39 -56 -39h-40q-27 0 -35 10.5t-3 37.5z M218 100q22 -39 70 -39q32 0 57 11.5t39 25.5t25.5 41.5t15.5 43.5t11 47q5 25 7.5 39t5 37t-1.5 36.5t-11.5 27.5t-24.5 20.5t-41 6.5q-52 0 -96 -35z" />
<glyph unicode="c" horiz-adv-x="489" d="M86 230q52 245 294 245q49 0 77.5 -7t63.5 -25q9 -5 12.5 -7.5t6 -6t1.5 -7.5t-12.5 -33.5t-14.5 -35.5q-6 -13 -16 -13q-6 0 -15 11q-25 25 -49 35.5t-70 10.5q-36 0 -62 -13t-41 -40.5t-22.5 -50t-16.5 -61.5q-5 -24 -7 -35.5t-4 -35t1.5 -36.5t11.5 -28.5t25 -22.5 t42 -7q83 0 158 56q12 10 18 10q10 0 10 -13q-3 -36 -9 -70q-1 -7 -6 -11t-29 -15q-76 -35 -161 -35q-237 0 -186 241z" />
<glyph unicode="d" horiz-adv-x="561" d="M85 228q54 241 255 241q73 0 115 -50l48 227q6 27 18.5 37.5t40.5 10.5h37q29 0 36 -11t1 -37l-127 -598q-5 -27 -17.5 -37.5t-40.5 -10.5h-40q-26 0 -35 10t-3 37q-67 -58 -140 -58q-195 0 -148 239zM221 228q-5 -27 -7 -39.5t-4.5 -36.5t1 -36.5t11 -27t24.5 -21 t41 -6.5q31 0 64 18q16 10 24 17.5t10.5 12.5t4.5 16l51 241q-27 31 -72 31q-32 0 -57 -11.5t-39 -25.5t-25.5 -41t-15.5 -43.5t-11 -47.5z" />
<glyph unicode="e" horiz-adv-x="511" d="M81 233q24 116 98 179t192 63q108 0 146.5 -57t16.5 -158q-4 -21 -14.5 -32t-19.5 -12.5t-24 -1.5h-272q-4 -24 -5 -41t2 -40t13 -37t32 -24.5t54 -10.5q83 0 163 58q13 10 19 10q7 0 8 -4.5t0 -27.5q-5 -41 -6 -44q-1 -8 -7 -12.5t-27 -13.5q-84 -38 -169 -38 q-120 0 -173 61.5t-27 182.5zM217 267h208q6 40 6 70t-18.5 48t-56.5 18q-103 0 -139 -136z" />
<glyph unicode="f" horiz-adv-x="336" d="M96 48l72 338q-16 0 -25 1t-18 9.5t-5 25.5q7 36 63 36l17 80q36 167 231 167q36 0 64 -6q24 -5 28 -9.5t0 -22.5l-10 -46q-5 -26 -19 -26q-6 0 -12 10q-24 28 -66 28q-23 0 -38.5 -6t-23.5 -18t-11 -20.5t-6 -21.5l-24 -109h51q48 0 41 -36q-8 -36 -56 -36h-48l-72 -338 q-5 -27 -17.5 -37.5t-40.5 -10.5h-37q-27 0 -35 10.5t-3 37.5z" />
<glyph unicode="g" d="M11 -67q12 61 85 88q-19 35 -10 79q8 42 44 81q-40 43 -22 123q35 165 236 165q89 0 134 -35q65 35 127 35q13 0 15 -3.5t1 -22.5v-10.5v-10.5v-9.5t-1 -8.5t-3 -6t-5.5 -4.5t-7.5 -1.5q-5 0 -13 4q-38 11 -90 11q22 -41 8 -104q-35 -165 -236 -165q-80 0 -121 26 q0 -1 -2 -6t-3 -9q-5 -23 11 -45q12 -12 62 -12h48h41t39 -1t38.5 -3t34.5 -6t32 -10t25 -14t20.5 -19.5t12 -26t5 -34t-5.5 -42.5q-30 -142 -280 -142q-112 0 -165 27q-38 20 -49.5 51.5t-4.5 60.5zM114 -64q-3 -17 2 -29.5t18 -20t26 -12t32.5 -6t29.5 -2t25 -0.5 q146 0 160 67q5 26 -23 38t-90 12h-116q-16 0 -25.5 -1.5t-21.5 -12.5t-17 -33zM235 303q-5 -28 -6.5 -48.5t13 -32.5t47.5 -12q25 0 42 6t26.5 21t14.5 28.5t10 38.5q5 28 6.5 48.5t-13 32.5t-47.5 12q-25 0 -42 -6t-26.5 -21t-14.5 -28.5t-10 -38.5z" />
<glyph unicode="h" horiz-adv-x="561" d="M70 48l127 598q6 27 19 37.5t40 10.5h37q29 0 36 -11t1 -37l-58 -274h1q14 20 33.5 38.5t60.5 38.5t87 20q77 0 104 -33.5t11 -110.5l-59 -277q-5 -27 -17.5 -37.5t-40.5 -10.5h-40q-29 0 -36.5 11t-1.5 37l59 275q9 38 0 56t-43 18q-43 0 -83.5 -33.5t-53.5 -94.5 l-47 -221q-5 -27 -17.5 -37.5t-40.5 -10.5h-40q-27 0 -35 10.5t-3 37.5z" />
<glyph unicode="i" horiz-adv-x="256" d="M71 48l77 362q6 28 18.5 38t39.5 10h37q29 0 36.5 -11t1.5 -37l-77 -362q-5 -27 -17.5 -37.5t-40.5 -10.5h-37q-27 0 -35 10.5t-3 37.5zM183 606l4 19q5 27 17.5 37.5t40.5 10.5h51q29 0 36.5 -11t1.5 -37l-4 -19q-6 -25 -17.5 -36.5t-40.5 -11.5h-51q-30 0 -36.5 11.5 t-1.5 36.5z" />
<glyph unicode="j" horiz-adv-x="286" d="M-105 -158q1 4 18 32q11 19 14.5 23t9.5 4q1 0 9 -4q24 -18 59 -18q21 0 35.5 6t22 17.5t10.5 20t6 21.5l99 466q6 27 18 37.5t40 10.5h37q29 0 36.5 -11t1.5 -37l-94 -442q-37 -173 -186 -173q-47 0 -93 16.5t-43 30.5zM206 606l4 19q5 27 17.5 37.5t40.5 10.5h51 q29 0 36.5 -11t1.5 -37l-4 -19q-6 -25 -17.5 -36.5t-40.5 -11.5h-51q-30 0 -36.5 11.5t-1.5 36.5z" />
<glyph unicode="k" horiz-adv-x="531" d="M79 48l127 598q6 27 19 37.5t40 10.5h21q29 0 36 -11t1 -37l-73 -343l173 134q27 21 64 21h58q10 0 15.5 -0.5t11 -5.5t3.5 -15q-2 -9 -20 -22l-184 -143l125 -228q2 -4 3.5 -7.5t2 -6t0.5 -4.5v-3v-1q-5 -22 -41 -22h-48q-22 0 -30 4.5t-18 20.5l-94 170 q-10 -7 -28 -21.5t-28 -21.5l-22 -104q-5 -27 -17.5 -37.5t-40.5 -10.5h-18q-27 0 -35 10.5t-3 37.5z" />
<glyph unicode="l" horiz-adv-x="256" d="M71 48l127 598q6 27 19 37.5t40 10.5h37q29 0 36 -11t1 -37l-127 -598q-5 -27 -17.5 -37.5t-40.5 -10.5h-37q-27 0 -35 10.5t-3 37.5z" />
<glyph unicode="m" horiz-adv-x="867" d="M70 48l78 368q6 27 19 37.5t40 10.5h34q29 0 36 -11t1 -37l-10 -50h1q27 41 73 70q52 33 113 33q22 0 38.5 -2.5t39 -11t34 -30t10.5 -55.5q75 99 183 99q77 0 104 -33.5t11 -110.5l-59 -277q-5 -27 -17.5 -37.5t-40.5 -10.5h-40q-27 0 -35 10.5t-3 37.5l59 275 q9 40 0 57t-44 17q-42 0 -83 -33t-54 -95l-47 -221q-5 -27 -17.5 -37.5t-40.5 -10.5h-40q-27 0 -35 10.5t-3 37.5l59 275q9 40 0 57t-44 17q-42 0 -83 -33t-54 -95l-47 -221q-5 -27 -17.5 -37.5t-40.5 -10.5h-40q-27 0 -35 10.5t-3 37.5z" />
<glyph unicode="n" horiz-adv-x="561" d="M70 48l78 368q6 27 19 37.5t40 10.5h34q29 0 36 -11t1 -37l-10 -50h1q15 21 33.5 40t61 41t90.5 22q77 0 104 -33.5t11 -110.5l-59 -277q-5 -27 -17.5 -37.5t-40.5 -10.5h-40q-29 0 -36.5 11t-1.5 37l59 275q9 38 0 56t-43 18q-43 0 -83.5 -33.5t-53.5 -94.5l-47 -221 q-5 -27 -17.5 -37.5t-40.5 -10.5h-40q-27 0 -35 10.5t-3 37.5z" />
<glyph unicode="o" d="M79 225q53 250 297 250q243 0 190 -250q-50 -236 -294 -236t-193 236zM217 237q-6 -27 -8.5 -41t-4.5 -38t2 -37t12.5 -27t26.5 -20.5t44 -6.5q38 0 64.5 14t42 43t22 51.5t14.5 61.5q7 31 10 48t3 43t-8 40t-27 24.5t-50 10.5t-54.5 -11t-37 -24.5t-25 -40t-15.5 -42.5 t-11 -48z" />
<glyph unicode="p" horiz-adv-x="561" d="M30 -146l118 556q6 28 18.5 38t39.5 10h37q26 0 35 -10t3 -37q75 58 161 58q43 0 73 -13.5t43.5 -38t20.5 -48.5t4.5 -55.5t-5 -47.5t-6.5 -35q-6 -27 -11 -46t-25 -59.5t-46 -67t-73.5 -48t-107.5 -21.5q-69 0 -104 50l-39 -185q-5 -27 -17.5 -37.5t-40.5 -10.5h-40 q-28 0 -36 10.5t-2 37.5zM222 118q-4 -13 -1.5 -20.5t17.5 -19.5q19 -17 49 -17q111 0 149 168q33 162 -69 162q-51 0 -94 -33z" />
<glyph unicode="q" horiz-adv-x="561" d="M85 228q6 30 15 56.5t29 62.5t46.5 61t71 43t99.5 18q76 0 105 -67l4 19q6 27 18.5 37.5t40.5 10.5h37q29 0 36 -11t1 -37l-120 -567q-5 -27 -17.5 -37.5t-40.5 -10.5h-40q-29 0 -36.5 11t-1.5 37l41 194q-64 -59 -136 -59q-201 0 -152 239zM221 227q-34 -166 67 -166 q52 0 102 54l43 198q5 31 -15 55q-17 23 -50 23q-110 0 -147 -164z" />
<glyph unicode="r" horiz-adv-x="372" d="M71 48l78 368q6 27 19 37.5t40 10.5h32q29 0 36 -11t1 -37l-13 -65h1q25 38 52 63.5t51 36.5t40 14.5t30 3.5q12 0 14 -6t-2 -21l-10 -47q-4 -19 -8 -22.5t-18 -4.5q-56 -4 -106.5 -38.5t-64.5 -99.5l-39 -182q-5 -27 -17.5 -37.5t-40.5 -10.5h-37q-27 0 -35 10.5 t-3 37.5z" />
<glyph unicode="s" horiz-adv-x="422" d="M41 48q1 4 7.5 21t14 36t9.5 24q8 15 17 15q6 0 12 -8q43 -69 132 -69q79 0 90 54q3 15 -2 26.5t-18.5 17.5t-23 8.5t-24.5 5.5q-35 7 -51 11t-36 14t-33 25q-40 44 -27 103q30 143 209 143q55 0 95 -12q1 0 6.5 -2t10.5 -3.5t11.5 -4.5t11.5 -5.5t9.5 -5.5t6.5 -6.5 t1 -6.5q0 -2 -6 -17t-12.5 -33t-7.5 -19q-7 -13 -16 -13q-6 0 -14 10q-45 47 -119 47q-72 0 -83 -49q-4 -18 7.5 -30t27 -16.5t48.5 -10.5q27 -5 40 -8.5t32 -14t35 -27.5q38 -44 25 -107q-32 -152 -209 -152q-58 0 -110 17q-1 1 -3.5 1.5t-10 3.5t-14 6t-14 7t-13 8t-9 8 t-2.5 8z" />
<glyph unicode="t" horiz-adv-x="404" d="M110 422q7 36 55 36h23l18 83q6 28 18.5 38t39.5 10h31q29 0 36.5 -11t1.5 -37l-18 -83h89q48 0 41 -36q-8 -36 -56 -36h-89l-50 -236q-9 -50 -3.5 -66.5t24.5 -16.5q38 0 87 30q8 7 13 7q10 0 11 -26q1 -30 1 -31q-4 -20 -84 -42q-55 -16 -108 -16q-105 0 -75 144 l54 253h-20q-11 0 -18.5 1t-16.5 10t-5 25z" />
<glyph unicode="u" horiz-adv-x="561" d="M87 126l60 284q6 28 18.5 38t39.5 10h40q29 0 36.5 -11t1.5 -37l-62 -293q-10 -40 -1.5 -53.5t49.5 -13.5q51 0 86 35t46 88l50 237q6 27 18 37.5t40 10.5h40q29 0 36.5 -11t1.5 -37l-77 -362q-5 -27 -17.5 -37.5t-40.5 -10.5h-37q-29 0 -36.5 11t-1.5 37l6 26 q-65 -85 -163 -85q-83 0 -116 30t-17 107z" />
<glyph unicode="v" horiz-adv-x="500" d="M117 430q6 28 46 28h24q22 0 34.5 -7t15 -14.5t3.5 -21.5l35 -302l163 302q12 23 26.5 33t44.5 10h21q11 0 17.5 -1t13 -7.5t3.5 -19.5q0 -3 -9 -19l-197 -369q-23 -42 -72 -42h-73q-49 0 -54 42l-41 369q-1 7 -1 19z" />
<glyph unicode="w" horiz-adv-x="744" d="M115 430q4 13 13 19.5t16 7.5t20 1h20q30 0 40.5 -9.5t12.5 -35.5l20 -283q24 47 61.5 123.5t61.5 126t29 55.5q19 23 57 23q16 0 26.5 -3.5t15 -11.5t6 -13.5t2.5 -16.5l21 -300l143 290q18 38 32.5 46.5t51.5 8.5q15 0 21.5 -0.5t14 -3t9.5 -8.5t1 -16l-188 -384 q-13 -27 -27.5 -36.5t-45.5 -9.5h-68q-18 0 -29 3t-16 11.5t-6.5 16t-2.5 24.5q-13 210 -8 262l-1 -1q-12 -40 -118 -261q-16 -33 -30.5 -44t-47.5 -11h-28q-17 0 -25.5 1.5t-18 12.5t-10.5 32z" />
<glyph unicode="x" horiz-adv-x="500" d="M29 22q1 9 14 20l199 195l-112 180q-8 11 -6 19q4 22 39 22h44q19 0 28.5 -3.5t18.5 -18.5l63 -108q106 111 111 115q17 15 47 15h43q11 0 16.5 -0.5t11 -6t3.5 -15.5q-2 -9 -15 -21l-183 -178l121 -194q8 -14 7 -21q-5 -22 -40 -22h-44q-13 0 -19 0.5t-12.5 5 t-11.5 14.5l-71 144l-113 -128q-22 -25 -31.5 -30.5t-33.5 -5.5h-43q-10 0 -16 0.5t-11.5 6t-3.5 15.5z" />
<glyph unicode="y" horiz-adv-x="500" d="M4 -191q-1 3 3 38.5t6 42.5q3 15 16 15q4 0 9 -4q27 -21 62 -21q25 0 46 14t31 27.5t23 36.5q7 14 23 42l-101 416q-2 11 -1 16q5 26 44 26h26q36 0 46.5 -13.5t22.5 -64.5q44 -191 38 -238h1q8 30 45.5 102.5t69.5 129.5t36 61q20 23 58 23h22q7 0 12 -0.5t12 -2.5 t10 -8.5t1 -15.5q-1 -6 -10 -20l-263 -474q-8 -15 -22.5 -33.5t-41 -45.5t-66 -45t-82.5 -18q-68 0 -76 14z" />
<glyph unicode="z" horiz-adv-x="476" d="M40 42q3 18 19 34l310 309h-37l-146 -2q-19 0 -28.5 1t-18 10t-4.5 26q8 38 56 38h296q7 0 11.5 -0.5t12.5 -2.5t10 -6t6 -12.5t-1 -20.5q-3 -18 -19 -34l-309 -309h46l153 2q20 0 29.5 -1.5t18 -10t4.5 -26.5q-8 -37 -56 -37h-314q-7 0 -11.5 0.5t-12.5 2.5t-10 6 t-6 12.5t1 20.5z" />
<glyph unicode="{" horiz-adv-x="575" d="M131 250q2 8 6 12t7.5 4.5t12.5 1.5q62 3 107 37q27 20 36 39.5t21 72.5l43 206q14 58 84 92.5t176 34.5q10 0 14.5 -0.5t8.5 -2t5 -5t0 -10.5q-2 -8 -6 -12t-7.5 -4.5t-12.5 -1.5q-55 -3 -98 -28q-47 -30 -56 -80l-45 -210q-4 -18 -7 -29.5t-13.5 -31.5t-25 -33.5 t-41.5 -28t-63 -23.5q56 -16 78.5 -48t15.5 -68l-50 -237q-5 -22 -4 -35q8 -69 117 -76q16 -1 13 -18q-3 -12 -9.5 -15t-25.5 -3q-26 0 -50 2t-57.5 10.5t-56 22.5t-35.5 41t-5 63l45 210q8 37 8 47q-1 32 -28.5 57.5t-88.5 28.5q-17 2 -13 18z" />
<glyph unicode="|" horiz-adv-x="319" d="M85 -206l194 912q9 44 40 44q30 0 21 -44l-194 -912q-9 -44 -40 -44q-30 0 -21 44z" />
<glyph unicode="}" horiz-adv-x="575" d="M29 -232q1 8 5 12t7.5 4.5t13.5 1.5q55 3 101 30q45 30 53 78l45 210q5 25 10.5 39t20.5 37.5t44.5 41t74.5 28.5q-57 17 -79 48.5t-15 67.5l50 237q5 21 5 35q-7 70 -118 76q-17 1 -13 18q2 12 9 15t25 3q38 0 71.5 -5t70.5 -18t54.5 -43t8.5 -73l-45 -210 q-8 -40 -7 -49q4 -40 34.5 -61t80.5 -23q17 -1 13 -18q-1 -8 -5 -12t-7.5 -4.5t-13.5 -1.5q-66 -4 -104 -36q-29 -22 -38.5 -41.5t-19.5 -71.5l-44 -206q-13 -56 -82 -91.5t-179 -35.5q-13 0 -18 0.5t-8 4.5t-1 13z" />
<glyph unicode="~" horiz-adv-x="556" d="M45 210l63 44q24 17 64 35q45 18 77 18q27 0 53 -11t43 -24.5t42 -24.5t51 -11q69 0 168 71l11 -17l-64 -44q-24 -17 -64 -35q-43 -18 -77 -18q-41 0 -96 35.5t-93 35.5q-68 0 -168 -71z" />
<glyph unicode="&#xa0;" />
<glyph unicode="&#xa1;" horiz-adv-x="367" d="M81 -173q9 41 28 118t26 107l55 224q4 20 9 24t25 4h49q11 0 15 -0.5t6.5 -2.5t2.5 -7q1 -4 -15 -91.5t-21 -106.5q-6 -31 -22 -124.5t-27 -144.5q-3 -15 -8 -18t-23 -3h-77q-18 0 -22 3t-1 18zM207 417l7 35q6 28 18.5 38t39.5 10h35q29 0 36.5 -11t1.5 -37l-7 -35 q-6 -27 -18.5 -37.5t-40.5 -10.5h-35q-29 0 -36 11t-1 37z" />
<glyph unicode="&#xa2;" horiz-adv-x="489" d="M86 230q45 212 233 241l14 63q1 10 10 17t19 7h52q22 0 19 -24l-13 -60q48 -4 101 -31q9 -5 12.5 -7.5t6 -6t1.5 -7.5t-12.5 -33.5t-14.5 -35.5q-6 -13 -16 -13q-6 0 -15 11q-39 38 -80 44l-69 -324q59 10 115 52q12 10 18 10q10 0 10 -13q-3 -36 -9 -70q-1 -7 -6 -11 t-29 -15q-53 -25 -116 -33l-14 -67q-2 -10 -10.5 -17t-18.5 -7h-52q-10 0 -15.5 7t-3.5 17l15 69q-177 26 -132 237zM222 232q-7 -36 -10 -56t1.5 -50t22.5 -44l64 300q-23 -13 -39.5 -39.5t-23.5 -50t-15 -60.5z" />
<glyph unicode="&#xa3;" horiz-adv-x="733" d="M83 46q6 27 29 47q86 74 135 180l11 24h-86q-15 0 -23 10.5t-5 25.5l6 28q3 15 15.5 25.5t27.5 10.5h97l19 67q27 95 92.5 162.5t144.5 67.5q85 0 120.5 -75.5t14.5 -178.5q-6 -28 -30.5 -48t-52.5 -20t-43.5 20t-9.5 48q12 42 8 80t-36 38q-16 0 -28 -8.5t-21.5 -27 t-14 -31.5t-12.5 -38l-15 -56h62q15 0 23.5 -10.5t5.5 -25.5l-6 -28q-3 -15 -16 -25.5t-28 -10.5h-71q-30 -80 -76 -150q45 -6 113 -22q42 -11 73 -11q17 0 32 11.5t19 27.5q5 28 29.5 48t52.5 20t43.5 -20t10.5 -48q-16 -73 -79 -124t-137 -51q-48 0 -103 15q-46 11 -71 16 t-61 4.5t-52 -14.5q-24 -21 -54 -21q-28 0 -43.5 20t-9.5 48z" />
<glyph unicode="&#xa4;" horiz-adv-x="856" d="M166 -9q-22 29 22 67l54 44q-27 52 -21 109.5t28 104.5t56 82l-35 45q-27 38 6 67q7 5 13.5 8t11.5 4.5t10.5 0t9 -2.5t8 -4.5t6 -5t5.5 -4.5l3 -4l34 -44q77 47 158 47q83 0 138 -47l52 43q50 35 70 8q22 -29 -22 -67l-53 -44q28 -51 21.5 -109t-28.5 -104t-55 -83 l34 -44q31 -36 -7 -67q-12 -10 -24 -12.5t-20.5 2.5t-13 9.5t-7.5 8.5l-35 44q-77 -48 -158 -48t-139 47l-52 -43l-4 -3q-5 -4 -7.5 -5.5t-8.5 -5t-10 -4.5t-10 -2t-10.5 0t-10 4t-9.5 8zM310 250q-15 -71 24.5 -121t110.5 -50t131.5 50t75.5 121t-24.5 121t-110.5 50 t-131.5 -50t-75.5 -121z" />
<glyph unicode="&#xa5;" horiz-adv-x="733" d="M156 161l6 28q3 15 16 25.5t28 10.5h136l11 53l-5 10h-129q-15 0 -23 10.5t-5 25.5l6 28q3 14 15.5 25t27.5 11h59l-128 263q-6 12 -4 20q5 23 41 23h66q28 0 44 -8.5t28 -32.5l78 -162q27 -55 37 -88q24 35 95 113l127 140q36 38 88 38h49q10 0 16 -0.5t11.5 -6 t3.5 -16.5q-3 -10 -14 -21l-239 -262h59q15 0 23.5 -11t5.5 -25l-6 -28q-3 -15 -16 -25.5t-28 -10.5h-129l-10 -11l-11 -52h137q15 0 23 -10.5t5 -25.5l-6 -28q-3 -15 -15.5 -25.5t-27.5 -10.5h-137l-17 -78q-6 -27 -18.5 -37t-39.5 -10h-48q-27 0 -35 10.5t-3 37.5l17 77 h-136q-15 0 -23.5 10.5t-5.5 25.5z" />
<glyph unicode="&#xa6;" horiz-adv-x="319" d="M85 -206l78 365q4 20 15 35t26 15t19.5 -15t0.5 -35l-78 -365q-9 -44 -40 -44q-30 0 -21 44zM201 341l78 365q9 44 40 44q30 0 21 -44l-78 -365q-4 -20 -14.5 -35t-25.5 -15t-20 15t-1 35z" />
<glyph unicode="&#xa7;" horiz-adv-x="566" d="M45 -24h136q-6 -30 19.5 -46.5t64.5 -16.5t71.5 16.5t38.5 46.5q2 11 -9.5 23.5t-24.5 20.5t-34 18l-91 47q-62 32 -95.5 87t-19.5 122q16 74 74 138q-24 42 -14 92q17 82 97.5 133.5t175.5 51.5t152.5 -51.5t40.5 -133.5h-136q7 30 -18 46.5t-65 16.5q-39 0 -71.5 -16.5 t-39.5 -46.5q-2 -11 10 -23.5t24 -20t34 -18.5l91 -47q63 -32 96 -87t19 -122q-16 -74 -74 -138q24 -43 14 -92q-17 -82 -97 -133.5t-175 -51.5t-153 51.5t-41 133.5zM237 294q-9 -48 63 -86l91 -47l22 -13q16 29 22 58q6 28 -12 48t-51 38q-4 2 -47.5 24.5t-65.5 34.5 q-13 -24 -22 -57z" />
<glyph unicode="&#xa8;" d="M217 607l4 17q5 24 16 33.5t36 9.5h46q26 0 32.5 -9.5t1.5 -33.5l-4 -17q-5 -23 -15.5 -33t-36.5 -10h-46q-26 0 -32.5 10.5t-1.5 32.5zM459 607l4 17q5 24 16 33.5t36 9.5h46q26 0 32.5 -9.5t1.5 -33.5l-4 -17q-5 -23 -15.5 -33t-36.5 -10h-46q-26 0 -32.5 10.5 t-1.5 32.5z" />
<glyph unicode="&#xa9;" horiz-adv-x="694" d="M74 347q31 144 154 245.5t267 101.5t224 -101.5t49 -245.5t-154 -245.5t-267 -101.5t-224 101.5t-49 245.5zM148 347q-24 -113 39 -193t176 -80t210 80t121 193t-39 193t-176 80t-210 -80t-121 -193zM250 347q39 190 230 190q50 0 88 -14q10 -4 12 -5.5t1 -4.5 q0 -1 -1 -3t-1 -4l-18 -45q-3 -9 -9 -9q-3 0 -6 4q-30 30 -78 30q-114 0 -142 -139q-30 -138 85 -138q52 0 98 28q8 6 12 6q6 0 4 -9q-5 -39 -6 -40q-1 -4 -3 -6t-14 -8q-49 -23 -103 -23q-190 0 -149 190z" />
<glyph unicode="&#xaa;" horiz-adv-x="416" d="M127 477q6 29 34.5 50t61 31t75 16t62.5 6.5t39 0.5l6 25q7 32 -3 48t-43 16q-77 0 -140 -47q-6 -4 -10 -4q-10 0 -10 8q1 3 3 25.5t2 25.5q2 8 26 16q67 22 142 22q20 0 34.5 -0.5t41 -6.5t42.5 -16.5t26 -33.5t3 -54l-40 -187q-4 -19 -14 -26.5t-34 -7.5h-31 q-24 0 -30.5 8t-2.5 26l3 14q-57 -56 -143 -56q-53 0 -80.5 31t-19.5 70zM142 311q3 15 20 25t38 10h164q20 0 32.5 -10t9.5 -25q-3 -14 -20 -24.5t-37 -10.5h-164q-21 0 -33.5 10.5t-9.5 24.5zM237 478q-5 -20 8.5 -35.5t38.5 -15.5q4 0 10 0.5t21 4t27 9.5t23.5 19.5 t15.5 31.5l13 61q-143 -6 -157 -75z" />
<glyph unicode="&#xab;" d="M128 244q-2 6 3 12l161 237q5 7 13 7h46q15 0 10 -16l-97 -234l-3 -234q0 -7 -5 -11.5t-11 -4.5h-46q-8 0 -10 7zM359 244q-1 6 3 12l161 237q5 7 13 7h46q15 0 10 -16l-97 -234l-3 -234q0 -7 -5 -11.5t-11 -4.5h-46q-8 0 -10 7z" />
<glyph unicode="&#xac;" horiz-adv-x="856" d="M139 365q3 17 18.5 29.5t32.5 12.5h649q17 0 26.5 -12.5t6.5 -29.5l-49 -230q-4 -17 -19 -29.5t-32 -12.5t-27 12.5t-6 29.5l40 188h-607q-17 0 -27 12.5t-6 29.5z" />
<glyph unicode="&#xad;" horiz-adv-x="367" d="M61 229q7 36 55 36h197q48 0 41 -36q-8 -36 -56 -36h-197q-11 0 -18.5 1t-16.5 10t-5 25z" />
<glyph unicode="&#xae;" horiz-adv-x="694" d="M74 347q31 144 154 245.5t267 101.5t224 -101.5t49 -245.5t-154 -245.5t-267 -101.5t-224 101.5t-49 245.5zM148 347q-24 -113 39 -193t176 -80t210 80t121 193t-39 193t-176 80t-210 -80t-121 -193zM258 193l65 308q7 25 31 25h124q13 0 23.5 -0.5t32 -6t34.5 -15 t21 -30.5t2 -49q-15 -72 -101 -92l56 -149q-3 -16 -22 -16h-30q-17 0 -23 13l-52 148h-57l-29 -136q-3 -14 -9.5 -19.5t-20.5 -5.5h-25q-14 0 -18.5 5.5t-1.5 19.5zM370 366h67q43 0 60 15.5t22 42.5q6 29 -5.5 43.5t-52.5 14.5h-67z" />
<glyph unicode="&#xaf;" d="M205 600l6 31q5 20 9.5 23.5t23.5 3.5h343q20 0 22.5 -4t-1.5 -23l-6 -31q-5 -20 -9.5 -23.5t-23.5 -3.5h-343q-20 0 -22.5 3.5t1.5 23.5z" />
<glyph unicode="&#xb0;" horiz-adv-x="413" d="M168 542q13 63 68 107.5t118 44.5q64 0 99 -44.5t21 -107.5q-14 -64 -67.5 -108.5t-117.5 -44.5q-63 0 -98.5 44.5t-22.5 108.5zM252 542q-6 -28 10 -48.5t45 -20.5q28 0 52.5 20t30.5 49q6 28 -9.5 48t-44.5 20t-53.5 -20t-30.5 -48z" />
<glyph unicode="&#xb1;" horiz-adv-x="856" d="M70 42q9 42 62 42h272l47 221h-272q-10 0 -18.5 1t-19 11.5t-6.5 29.5q9 42 62 42h272l53 252q11 53 54 53q41 0 30 -53l-53 -252h271q10 0 18.5 -1t19 -11.5t6.5 -29.5q-9 -42 -62 -42h-271l-47 -221h271q10 0 18.5 -1t19 -11.5t6.5 -29.5q-9 -42 -62 -42h-627 q-10 0 -18.5 1t-19 11.5t-6.5 29.5z" />
<glyph unicode="&#xb2;" horiz-adv-x="389" d="M108 320q2 11 11 18l163 122q85 64 96 117q7 31 -8.5 55t-54.5 24q-62 0 -99 -66q-5 -12 -12 -12t-10 8l-28 38q7 14 17.5 26.5t21 20.5t17 12.5t11.5 6.5q44 26 105 26q51 0 86.5 -19t49 -50.5t5.5 -68.5q-4 -19 -13.5 -35.5t-26.5 -32t-29 -24.5t-36 -25q-6 -5 -28 -18 t-27 -17l-112 -75h117l49 1q38 0 42 -3q15 -5 10 -26q-3 -11 -5 -16t-6.5 -10.5t-12 -7.5t-19.5 -2h-247q-21 0 -26.5 7.5t-0.5 25.5z" />
<glyph unicode="&#xb3;" horiz-adv-x="395" d="M103 330l18 41q0 2 2.5 4.5t7.5 2.5q3 0 9 -6q44 -42 116 -42q44 0 61.5 21t25.5 59q4 19 4.5 32t-4.5 25t-18.5 17.5t-37.5 5.5h-32q-14 0 -16 2.5t1 13.5l2 11q1 6 2.5 9.5t4.5 5t5.5 2t9 0.5t11.5 1q39 2 60 19q28 23 36 60q5 25 -3 37t-40 12q-60 0 -106 -44 q-7 -6 -12 -6t-9 7l-15 24l-3 9q0 2 7 8.5t21.5 16t32.5 18t44.5 14.5t54.5 6q24 0 44 -3t44.5 -12t35.5 -31.5t4 -56.5q-13 -65 -99 -100q94 -21 77 -104q-29 -135 -202 -135q-42 0 -78 12.5t-51.5 25.5t-14.5 18z" />
<glyph unicode="&#xb4;" d="M314 550q1 4 12 15l111 117q8 8 13 10t20 2h82h11.5t7.5 -1.5t5 -4t0 -7.5q-2 -5 -14 -15l-187 -129h-37h-11.5t-7.5 1.5t-5 4t0 7.5z" />
<glyph unicode="&#xb5;" horiz-adv-x="561" d="M29 -144l118 552q6 30 18.5 40t41.5 10h36q30 0 38 -10.5t2 -39.5l-61 -288q-11 -41 -3 -55.5t50 -14.5q49 0 84.5 34t47.5 92l50 232q6 30 18.5 40t41.5 10h36q30 0 38 -10.5t2 -39.5l-76 -358q-7 -30 -19.5 -40t-41.5 -10h-33q-9 0 -13.5 0.5t-13 2.5t-10 6.5t-5.5 13 t1 21.5q-68 -55 -155 -55q-14 0 -27 1l-29 -134q-6 -30 -18.5 -40t-41.5 -10h-36q-30 0 -38 10.5t-2 39.5z" />
<glyph unicode="&#xb6;" horiz-adv-x="703" d="M161 457q22 102 121.5 169.5t216.5 67.5h274q12 0 19.5 -1t14.5 -8.5t4 -21.5q-6 -30 -51 -30h-51l-167 -783q-9 -44 -40 -44q-30 0 -21 44l167 783h-80l-167 -783q-9 -44 -40 -44q-30 0 -21 44l79 370q-137 8 -208 72.5t-50 164.5z" />
<glyph unicode="&#xb7;" horiz-adv-x="856" d="M428 309l16 77q5 20 9.5 23.5t23.5 3.5h77q20 0 22.5 -3.5t-1.5 -23.5l-16 -77q-5 -20 -9.5 -23.5t-23.5 -3.5h-77q-20 0 -22.5 4t1.5 23z" />
<glyph unicode="&#xb8;" horiz-adv-x="489" d="M109 -179q0 3 24.5 31.5t54 63.5t33.5 39q14 15 19 18t21 3h18h11t7 -1.5t5 -4t0 -7.5q-1 -3 -8 -16l-77 -121q-9 -13 -13.5 -15.5t-21.5 -2.5h-50h-11t-7 1.5t-5 4t0 7.5z" />
<glyph unicode="&#xb9;" horiz-adv-x="395" d="M131 308q5 22 40 22h56l66 310q-35 -8 -70 -8q-34 0 -29 21q5 22 35 22q71 1 119 33q13 8 28 8q34 0 26 -28l-76 -358h50q7 0 13 -0.5t12.5 -6t4.5 -15.5q-4 -21 -39 -21h-205q-8 0 -14 0.5t-12.5 5.5t-4.5 15z" />
<glyph unicode="&#xba;" horiz-adv-x="461" d="M141 541q37 175 242 175q204 0 167 -175q-35 -165 -240 -165q-204 0 -169 165zM142 311q3 15 20 25t38 10h209q21 0 33 -10t9 -25q-3 -14 -19.5 -24.5t-37.5 -10.5h-209q-21 0 -33.5 10.5t-9.5 24.5zM257 550q-5 -22 -7 -34.5t-1 -31t8 -28.5t23.5 -17.5t42.5 -7.5 q32 0 53.5 9.5t33.5 30.5t17 35.5t11 43.5q5 23 6.5 33.5t1 29.5t-7.5 28.5t-23.5 17t-42.5 7.5q-32 0 -54 -9.5t-34 -29.5t-17 -35t-10 -42z" />
<glyph unicode="&#xbb;" d="M65 16l96 234l3 234q0 7 5 11.5t11 4.5h46q8 0 10 -7l61 -237q1 -5 -2 -12l-162 -237q-5 -7 -13 -7h-46q-6 0 -9 4.5t0 11.5zM296 16l96 234l3 234q0 7 5 11.5t11 4.5h46q8 0 10 -7l61 -237q1 -5 -2 -12l-162 -237q-5 -7 -13 -7h-46q-6 0 -9 4.5t0 11.5z" />
<glyph unicode="&#xbc;" horiz-adv-x="880" d="M131 308q5 22 40 22h56l66 310q-35 -8 -70 -8q-34 0 -29 21q5 22 35 22q71 1 119 33q13 8 28 8q34 0 26 -28l-76 -358h50q7 0 13 -0.5t12.5 -6t4.5 -15.5q-4 -21 -39 -21h-205q-8 0 -14 0.5t-12.5 5.5t-4.5 15zM238 43l579 655q18 18 39 18q26 0 33 -22t-12 -43 l-579 -654q-16 -19 -39 -19q-25 0 -32.5 22.5t11.5 42.5zM500 121l3 15q3 13 10 21l213 246q11 13 35 13h53q20 0 26 -6t2 -22l-51 -240h30q20 0 26.5 -6t3.5 -22q-4 -17 -13 -22.5t-28 -5.5h-30l-14 -63q-3 -16 -11.5 -22.5t-28.5 -6.5h-21q-21 0 -26 7t-2 22l14 63h-162 q-22 0 -27.5 6.5t-1.5 22.5zM580 148h126l44 205q-16 -27 -170 -205z" />
<glyph unicode="&#xbd;" horiz-adv-x="978" d="M131 308q5 22 40 22h56l66 310q-35 -8 -70 -8q-34 0 -29 21q5 22 35 22q71 1 119 33q13 8 28 8q34 0 26 -28l-76 -358h50q7 0 13 -0.5t12.5 -6t4.5 -15.5q-4 -21 -39 -21h-205q-8 0 -14 0.5t-12.5 5.5t-4.5 15zM243 43l579 655q18 18 39 18q26 0 33 -22t-12 -43 l-579 -654q-16 -19 -39 -19q-25 0 -32.5 22.5t11.5 42.5zM614 34q2 10 11 17l163 122q85 64 96 117q7 32 -8 56t-54 24q-62 0 -100 -67q-5 -11 -12 -11q-6 0 -10 7l-28 38q6 11 14.5 21.5t16 17.5t15.5 13.5t13 9t8 4.5q44 27 106 27q76 0 114 -40.5t26 -97.5 q-4 -19 -13.5 -35.5t-26.5 -32.5t-28.5 -24.5t-35.5 -25.5q-51 -32 -56 -35l-111 -75h116l49 1q38 0 42 -3q14 -5 10 -26q-3 -12 -5 -16.5t-6.5 -10t-12 -7.5t-19.5 -2h-247q-21 0 -26 7t-1 27z" />
<glyph unicode="&#xbe;" horiz-adv-x="880" d="M136 330l18 41q3 7 10 7q3 0 9 -6q45 -42 116 -42q44 0 61.5 21t25.5 59q4 20 4.5 32.5t-4 24.5t-18.5 17.5t-38 5.5h-32q-14 0 -16 2.5t1 13.5l2 11q1 6 2.5 9.5t4.5 5t5.5 2t9 0.5t11.5 1q39 2 61 19q27 23 35 60q5 25 -3 37t-40 12q-60 0 -106 -44q-6 -6 -12 -6 q-5 0 -9 7l-15 24l-3 9q0 2 7 8.5t21.5 16t32.5 18t44.5 14.5t54.5 6q24 0 44 -3t44.5 -12t35.5 -31.5t4 -56.5q-13 -65 -99 -100q94 -21 77 -104q-29 -135 -202 -135q-42 0 -78 12.5t-51.5 25.5t-14.5 18zM238 43l579 655q18 18 39 18q26 0 33 -22t-12 -43l-579 -654 q-16 -19 -39 -19q-25 0 -32.5 22.5t11.5 42.5zM500 121l3 15q3 13 10 21l213 246q11 13 35 13h53q19 0 25.5 -6t2.5 -22l-51 -240h30q20 0 26.5 -6t3.5 -22q-3 -12 -8.5 -18t-13 -8t-19.5 -2h-30l-14 -63q-3 -16 -11.5 -22.5t-28.5 -6.5h-21q-21 0 -26 7t-2 22l14 63h-162 q-22 0 -27.5 6.5t-1.5 22.5zM580 148h126l44 205q-16 -27 -170 -205z" />
<glyph unicode="&#xbf;" horiz-adv-x="519" d="M50 -54q16 77 68 114q100 72 126 188l6 29q4 19 9 23t25 4h49q23 0 25 -8q0 -7 -7 -35q-12 -58 -37.5 -109.5t-95.5 -134.5q-15 -17 -21 -30t-12 -45q-11 -44 -5.5 -59.5t38.5 -15.5q91 0 177 69q7 4 11 4q8 0 11 -13q1 -3 1 -4q11 -54 9 -65q-2 -7 -6.5 -10t-28.5 -13 q-98 -40 -194 -40q-12 0 -22 0.5t-24.5 2t-26 4.5t-24.5 8.5t-22.5 13t-17.5 19t-12 26t-4 34.5t5 43zM267 417l7 35q6 28 18.5 38t39.5 10h35q29 0 36.5 -11t1.5 -37l-7 -35q-6 -27 -18.5 -37.5t-40.5 -10.5h-35q-29 0 -36 11t-1 37z" />
<glyph unicode="&#xc0;" horiz-adv-x="733" d="M48 27q2 8 9 20l339 604q25 43 74 43h88q14 0 22.5 -1.5t19 -11.5t12.5 -30l83 -604q2 -14 1 -20q-6 -27 -45 -27h-54q-23 0 -35 7.5t-15 17t-5 30.5l-14 96h-277l-62 -111q-23 -40 -72 -40h-36q-11 0 -17 1t-12.5 7.5t-3.5 18.5zM299 237h217l-35 281q-3 23 -2 49h-1 q-18 -41 -62 -118zM351 862q-5 4 -5.5 9t5 9.5t14.5 4.5h161l104 -109q7 -9 1.5 -14.5t-17.5 -5.5h-67z" />
<glyph unicode="&#xc1;" horiz-adv-x="733" d="M48 27q2 8 9 20l339 604q25 43 74 43h88q14 0 22.5 -1.5t19 -11.5t12.5 -30l83 -604q2 -14 1 -20q-6 -27 -45 -27h-54q-23 0 -35 7.5t-15 17t-5 30.5l-14 96h-277l-62 -111q-23 -40 -72 -40h-36q-11 0 -17 1t-12.5 7.5t-3.5 18.5zM299 237h217l-35 281q-3 23 -2 49h-1 q-18 -41 -62 -118zM434 776l150 109h161q9 0 12.5 -4.5t1.5 -10t-10 -8.5l-240 -106h-67q-12 0 -15.5 5.5t7.5 14.5z" />
<glyph unicode="&#xc2;" horiz-adv-x="733" d="M48 27q2 8 9 20l339 604q25 43 74 43h88q14 0 22.5 -1.5t19 -11.5t12.5 -30l83 -604q2 -14 1 -20q-6 -27 -45 -27h-54q-23 0 -35 7.5t-15 17t-5 30.5l-14 96h-277l-62 -111q-23 -40 -72 -40h-36q-11 0 -17 1t-12.5 7.5t-3.5 18.5zM299 237h217l-35 281q-3 23 -2 49h-1 q-18 -41 -62 -118zM357 766l132 104q3 3 8 3h111q5 0 8 -3l86 -102q5 -5 -0.5 -13.5t-13.5 -8.5h-47l-4 1l-95 81l-129 -81l-6 -1h-47q-5 0 -7.5 3.5t-1.5 8.5t6 8z" />
<glyph unicode="&#xc3;" horiz-adv-x="733" d="M48 27q2 8 9 20l339 604q25 43 74 43h88q14 0 22.5 -1.5t19 -11.5t12.5 -30l83 -604q2 -14 1 -20q-6 -27 -45 -27h-54q-23 0 -35 7.5t-15 17t-5 30.5l-14 96h-277l-62 -111q-23 -40 -72 -40h-36q-11 0 -17 1t-12.5 7.5t-3.5 18.5zM299 237h217l-35 281q-3 23 -2 49h-1 q-18 -41 -62 -118zM347 763q8 41 46 77.5t88 36.5q46 0 90 -37q26 -22 43 -22q33 0 47 44q4 11 9 13t21 2h18q17 0 21.5 -2.5t2.5 -14.5q-9 -41 -47.5 -77.5t-87.5 -36.5q-43 0 -90 37q-24 22 -42 22q-33 0 -47 -44q-4 -11 -9.5 -13t-21.5 -2h-18q-16 0 -21 2.5t-2 14.5z " />
<glyph unicode="&#xc4;" horiz-adv-x="733" d="M48 27q2 8 9 20l339 604q25 43 74 43h88q14 0 22.5 -1.5t19 -11.5t12.5 -30l83 -604q2 -14 1 -20q-6 -27 -45 -27h-54q-23 0 -35 7.5t-15 17t-5 30.5l-14 96h-277l-62 -111q-23 -40 -72 -40h-36q-11 0 -17 1t-12.5 7.5t-3.5 18.5zM299 237h217l-35 281q-3 23 -2 49h-1 q-18 -41 -62 -118zM326 789l3 17q5 24 16 33.5t36 9.5h46q26 0 32.5 -9.5t1.5 -33.5l-3 -17q-5 -23 -15.5 -33t-37.5 -10h-46q-26 0 -32 10.5t-1 32.5zM612 789l3 17q5 24 16 33.5t36 9.5h46q26 0 32.5 -9.5t1.5 -33.5l-3 -17q-5 -23 -15.5 -33t-37.5 -10h-46 q-26 0 -32 10.5t-1 32.5z" />
<glyph unicode="&#xc5;" horiz-adv-x="733" d="M48 27q2 8 9 20l339 604q25 43 74 43h44q-14 0 -24 0.5t-29.5 4.5t-31 12t-19 24t-2.5 39q17 78 140 78q14 0 24 -0.5t29.5 -4.5t31 -12t19 -24t2.5 -39q-17 -78 -140 -78h44q14 0 22.5 -1.5t19 -11.5t12.5 -30l83 -604q2 -14 1 -20q-6 -27 -45 -27h-54q-23 0 -35 7.5 t-15 17t-5 30.5l-14 96h-277l-62 -111q-23 -40 -72 -40h-36q-11 0 -17 1t-12.5 7.5t-3.5 18.5zM299 237h217l-35 281q-3 23 -2 49h-1q-18 -41 -62 -118zM476 773q-4 -21 8 -27.5t40 -6.5q30 0 44 6t18 28q5 21 -7.5 27.5t-40.5 6.5q-30 0 -43.5 -6t-18.5 -28z" />
<glyph unicode="&#xc6;" horiz-adv-x="947" d="M50 26q1 7 8 18l381 608q15 25 31.5 33.5t43.5 8.5h471q23 0 31.5 -6.5t7.5 -19t-3 -30.5q-5 -23 -16 -34t-20.5 -12.5t-28.5 -1.5l-198 3h-25l-40 -187h199q27 0 35.5 -10t2.5 -37q-6 -28 -19 -37.5t-39 -9.5h-199l-43 -205h51q31 0 94 1.5t95 1.5q19 0 27.5 -1.5 t14.5 -12.5t1 -34l-3 -14q-5 -27 -17.5 -37.5t-40.5 -10.5h-343q-27 0 -35 10.5t-3 37.5l31 144h-213l-94 -149q-16 -27 -33 -35t-43 -8h-37q-10 0 -16 1t-12.5 7t-3.5 18zM342 278h178l67 316h-47z" />
<glyph unicode="&#xc7;" horiz-adv-x="703" d="M135 347q77 369 446 369q96 0 171 -29q19 -7 23 -9.5t2 -9.5q-3 -9 -5 -13l-33 -87q-7 -18 -18 -18q-6 0 -13 7q-29 30 -62.5 44.5t-86.5 14.5q-59 0 -106 -20t-75 -47t-49 -67.5t-30 -69.5t-17 -65q-13 -58 -12.5 -103.5t16 -84.5t56.5 -60t107 -21q62 0 100 12t88 44 q16 11 22 11q11 0 9 -18q-1 -4 -3 -22.5t-4.5 -34.5t-3.5 -21q-2 -8 -6.5 -11.5t-26.5 -14.5q-55 -26 -96 -35.5t-103 -9.5q-369 0 -290 369zM234 -201q3 10 113 134q13 15 18 18t21 3h18h11t7 -1.5t5 -4t0 -7.5q0 -3 -8 -16l-77 -121q-8 -13 -12.5 -15.5t-21.5 -2.5h-50 q-10 0 -14.5 0.5t-7.5 3.5t-2 9z" />
<glyph unicode="&#xc8;" horiz-adv-x="642" d="M101 48l127 595q6 28 18.5 38t39.5 10h393q31 0 38 -15.5t-2 -40.5q-7 -33 -21.5 -40.5t-46.5 -7.5l-235 3h-49l-39 -185h263q27 0 35.5 -10t2.5 -37q-6 -28 -19 -37.5t-39 -9.5h-263l-43 -205q144 2 301 4q21 0 30 -1.5t15 -12.5t1 -34l-3 -14q-5 -27 -17.5 -37.5 t-40.5 -10.5h-408q-27 0 -35 10.5t-3 37.5zM305 862q-5 4 -5.5 9t5 9.5t14.5 4.5h161l104 -109q7 -9 1.5 -14.5t-17.5 -5.5h-67z" />
<glyph unicode="&#xc9;" horiz-adv-x="642" d="M101 48l127 595q6 28 18.5 38t39.5 10h393q31 0 38 -15.5t-2 -40.5q-7 -33 -21.5 -40.5t-46.5 -7.5l-235 3h-49l-39 -185h263q27 0 35.5 -10t2.5 -37q-6 -28 -19 -37.5t-39 -9.5h-263l-43 -205q144 2 301 4q21 0 30 -1.5t15 -12.5t1 -34l-3 -14q-5 -27 -17.5 -37.5 t-40.5 -10.5h-408q-27 0 -35 10.5t-3 37.5zM388 776l150 109h161q9 0 12.5 -4.5t1.5 -10t-10 -8.5l-240 -106h-67q-12 0 -15.5 5.5t7.5 14.5z" />
<glyph unicode="&#xca;" horiz-adv-x="642" d="M101 48l127 595q6 28 18.5 38t39.5 10h393q31 0 38 -15.5t-2 -40.5q-7 -33 -21.5 -40.5t-46.5 -7.5l-235 3h-49l-39 -185h263q27 0 35.5 -10t2.5 -37q-6 -28 -19 -37.5t-39 -9.5h-263l-43 -205q144 2 301 4q21 0 30 -1.5t15 -12.5t1 -34l-3 -14q-5 -27 -17.5 -37.5 t-40.5 -10.5h-408q-27 0 -35 10.5t-3 37.5zM311 766l132 104q3 3 8 3h111q5 0 8 -3l86 -102q5 -5 -0.5 -13.5t-13.5 -8.5h-47l-4 1l-95 81l-129 -81l-6 -1h-47q-5 0 -7.5 3.5t-1.5 8.5t6 8z" />
<glyph unicode="&#xcb;" horiz-adv-x="642" d="M101 48l127 595q6 28 18.5 38t39.5 10h393q31 0 38 -15.5t-2 -40.5q-7 -33 -21.5 -40.5t-46.5 -7.5l-235 3h-49l-39 -185h263q27 0 35.5 -10t2.5 -37q-6 -28 -19 -37.5t-39 -9.5h-263l-43 -205q144 2 301 4q21 0 30 -1.5t15 -12.5t1 -34l-3 -14q-5 -27 -17.5 -37.5 t-40.5 -10.5h-408q-27 0 -35 10.5t-3 37.5zM280 789l3 17q5 24 16 33.5t36 9.5h46q26 0 32.5 -9.5t1.5 -33.5l-3 -17q-5 -23 -15.5 -33t-37.5 -10h-46q-26 0 -32 10.5t-1 32.5zM566 789l3 17q5 24 16 33.5t36 9.5h46q26 0 32.5 -9.5t1.5 -33.5l-3 -17q-5 -23 -15.5 -33 t-37.5 -10h-46q-26 0 -32 10.5t-1 32.5z" />
<glyph unicode="&#xcc;" horiz-adv-x="331" d="M102 48l127 598q6 27 19 37.5t40 10.5h51q29 0 36 -11t1 -37l-127 -598q-5 -27 -17.5 -37.5t-40.5 -10.5h-51q-27 0 -35 10.5t-3 37.5zM119 862q-5 4 -5.5 9t5 9.5t14.5 4.5h161l104 -109q7 -9 1.5 -14.5t-17.5 -5.5h-67z" />
<glyph unicode="&#xcd;" horiz-adv-x="331" d="M102 48l127 598q6 27 19 37.5t40 10.5h51q29 0 36 -11t1 -37l-127 -598q-5 -27 -17.5 -37.5t-40.5 -10.5h-51q-27 0 -35 10.5t-3 37.5zM263 776l150 109h161q9 0 12.5 -4.5t1.5 -10t-10 -8.5l-240 -106h-67q-12 0 -15.5 5.5t7.5 14.5z" />
<glyph unicode="&#xce;" horiz-adv-x="331" d="M102 48l127 598q6 27 19 37.5t40 10.5h51q29 0 36 -11t1 -37l-127 -598q-5 -27 -17.5 -37.5t-40.5 -10.5h-51q-27 0 -35 10.5t-3 37.5zM155 766l132 104q3 3 8 3h111q5 0 8 -3l86 -102q5 -5 -0.5 -13.5t-13.5 -8.5h-47l-4 1l-95 81l-129 -81l-6 -1h-47q-5 0 -7.5 3.5 t-1.5 8.5t6 8z" />
<glyph unicode="&#xcf;" horiz-adv-x="331" d="M102 48l127 598q6 27 19 37.5t40 10.5h51q29 0 36 -11t1 -37l-127 -598q-5 -27 -17.5 -37.5t-40.5 -10.5h-51q-27 0 -35 10.5t-3 37.5zM124 789l3 17q5 24 16 33.5t36 9.5h46q26 0 32.5 -9.5t1.5 -33.5l-3 -17q-5 -23 -15.5 -33t-37.5 -10h-46q-26 0 -32 10.5t-1 32.5z M410 789l3 17q5 24 16 33.5t36 9.5h46q26 0 32.5 -9.5t1.5 -33.5l-3 -17q-5 -23 -15.5 -33t-37.5 -10h-46q-26 0 -32 10.5t-1 32.5z" />
<glyph unicode="&#xd0;" horiz-adv-x="794" d="M94 333l6 28q3 15 15.5 25.5t27.5 10.5h32l53 249q6 27 19 37.5t40 10.5h264q175 0 237 -105q50 -86 17 -247q-34 -159 -131.5 -250.5t-270.5 -91.5h-264q-27 0 -35 10.5t-3 37.5l53 249h-32q-15 0 -23 10.5t-5 25.5zM253 86h129q61 0 108.5 16.5t75 40t48 61.5t29.5 67 t18 71q7 35 10.5 59t4 59t-9.5 58t-29 45.5t-56 33.5t-89 11h-128l-45 -211h58q15 0 23.5 -10.5t5.5 -25.5l-6 -28q-3 -15 -16 -25.5t-28 -10.5h-58z" />
<glyph unicode="&#xd1;" horiz-adv-x="794" d="M101 48l127 598q6 27 19 37.5t40 10.5h93q11 0 17 -1t16 -4t17.5 -12t11.5 -23l162 -533h1l111 525q6 27 18.5 37.5t40.5 10.5h27q29 0 36 -11t1 -37l-127 -598q-5 -27 -17.5 -37.5t-40.5 -10.5h-93q-11 0 -17 1t-16 4t-17.5 12t-11.5 23l-162 533h-1l-112 -525 q-5 -27 -17.5 -37.5t-40.5 -10.5h-27q-27 0 -35 10.5t-3 37.5zM377 763q8 41 46 77.5t88 36.5q46 0 90 -37q26 -22 43 -22q33 0 47 44q4 11 9 13t21 2h18q17 0 21.5 -2.5t2.5 -14.5q-9 -41 -47.5 -77.5t-87.5 -36.5q-43 0 -90 37q-24 22 -42 22q-33 0 -47 -44 q-4 -11 -9.5 -13t-21.5 -2h-18q-16 0 -21 2.5t-2 14.5z" />
<glyph unicode="&#xd2;" horiz-adv-x="794" d="M134 342q80 374 415 374q334 0 256 -374q-78 -364 -414 -364q-335 0 -257 364zM284 358q-6 -29 -9 -46t-7 -52.5t-2.5 -58.5t9 -53t23.5 -47.5t44 -30t67 -12.5t72.5 12.5t56.5 30.5t43 47.5t32 53t23 58.5t15 52.5t10 45.5t9 44.5t6.5 49.5t1.5 54.5t-10 49t-24 43.5 t-44.5 27.5t-67.5 11.5t-72 -11.5t-56 -28t-42.5 -44t-31 -49t-22 -54.5t-14.5 -49t-10 -44zM381 862q-5 4 -5.5 9t5 9.5t14.5 4.5h161l104 -109q7 -9 1.5 -14.5t-17.5 -5.5h-67z" />
<glyph unicode="&#xd3;" horiz-adv-x="794" d="M134 342q80 374 415 374q334 0 256 -374q-78 -364 -414 -364q-335 0 -257 364zM284 358q-6 -29 -9 -46t-7 -52.5t-2.5 -58.5t9 -53t23.5 -47.5t44 -30t67 -12.5t72.5 12.5t56.5 30.5t43 47.5t32 53t23 58.5t15 52.5t10 45.5t9 44.5t6.5 49.5t1.5 54.5t-10 49t-24 43.5 t-44.5 27.5t-67.5 11.5t-72 -11.5t-56 -28t-42.5 -44t-31 -49t-22 -54.5t-14.5 -49t-10 -44zM464 776l150 109h161q9 0 12.5 -4.5t1.5 -10t-10 -8.5l-240 -106h-67q-12 0 -15.5 5.5t7.5 14.5z" />
<glyph unicode="&#xd4;" horiz-adv-x="794" d="M134 342q80 374 415 374q334 0 256 -374q-78 -364 -414 -364q-335 0 -257 364zM284 358q-6 -29 -9 -46t-7 -52.5t-2.5 -58.5t9 -53t23.5 -47.5t44 -30t67 -12.5t72.5 12.5t56.5 30.5t43 47.5t32 53t23 58.5t15 52.5t10 45.5t9 44.5t6.5 49.5t1.5 54.5t-10 49t-24 43.5 t-44.5 27.5t-67.5 11.5t-72 -11.5t-56 -28t-42.5 -44t-31 -49t-22 -54.5t-14.5 -49t-10 -44zM387 766l132 104q3 3 8 3h111q5 0 8 -3l86 -102q5 -5 -0.5 -13.5t-13.5 -8.5h-47l-4 1l-95 81l-129 -81l-6 -1h-47q-5 0 -7.5 3.5t-1.5 8.5t6 8z" />
<glyph unicode="&#xd5;" horiz-adv-x="794" d="M134 342q80 374 415 374q334 0 256 -374q-78 -364 -414 -364q-335 0 -257 364zM284 358q-6 -29 -9 -46t-7 -52.5t-2.5 -58.5t9 -53t23.5 -47.5t44 -30t67 -12.5t72.5 12.5t56.5 30.5t43 47.5t32 53t23 58.5t15 52.5t10 45.5t9 44.5t6.5 49.5t1.5 54.5t-10 49t-24 43.5 t-44.5 27.5t-67.5 11.5t-72 -11.5t-56 -28t-42.5 -44t-31 -49t-22 -54.5t-14.5 -49t-10 -44zM377 763q8 41 46 77.5t88 36.5q46 0 90 -37q26 -22 43 -22q33 0 47 44q4 11 9 13t21 2h18q17 0 21.5 -2.5t2.5 -14.5q-9 -41 -47.5 -77.5t-87.5 -36.5q-43 0 -90 37q-24 22 -42 22 q-33 0 -47 -44q-4 -11 -9.5 -13t-21.5 -2h-18q-16 0 -21 2.5t-2 14.5z" />
<glyph unicode="&#xd6;" horiz-adv-x="794" d="M134 342q80 374 415 374q334 0 256 -374q-78 -364 -414 -364q-335 0 -257 364zM284 358q-6 -29 -9 -46t-7 -52.5t-2.5 -58.5t9 -53t23.5 -47.5t44 -30t67 -12.5t72.5 12.5t56.5 30.5t43 47.5t32 53t23 58.5t15 52.5t10 45.5t9 44.5t6.5 49.5t1.5 54.5t-10 49t-24 43.5 t-44.5 27.5t-67.5 11.5t-72 -11.5t-56 -28t-42.5 -44t-31 -49t-22 -54.5t-14.5 -49t-10 -44zM356 789l3 17q5 24 16 33.5t36 9.5h46q26 0 32.5 -9.5t1.5 -33.5l-3 -17q-5 -23 -15.5 -33t-37.5 -10h-46q-26 0 -32 10.5t-1 32.5zM642 789l3 17q5 24 16 33.5t36 9.5h46 q26 0 32.5 -9.5t1.5 -33.5l-3 -17q-5 -23 -15.5 -33t-37.5 -10h-46q-26 0 -32 10.5t-1 32.5z" />
<glyph unicode="&#xd7;" horiz-adv-x="856" d="M166 -9q-22 29 22 67l233 192l-151 193q-27 38 6 67q7 5 13.5 8t11.5 4.5t10.5 0t9 -2.5t8 -4.5t6 -5t5.5 -4.5l3 -4l151 -192l231 191q50 35 70 8q22 -29 -22 -67l-233 -192l152 -192q31 -36 -7 -67q-12 -10 -24 -12.5t-20.5 2.5t-13 9.5t-7.5 8.5l-151 192l-233 -192 l-4 -3q-5 -4 -7.5 -5.5t-8.5 -5t-10 -4.5t-10 -2t-10.5 0t-10 4t-9.5 8z" />
<glyph unicode="&#xd8;" horiz-adv-x="856" d="M134 342q78 374 446 374q86 0 151 -22l40 50q16 21 25.5 28.5t23.5 7.5t25.5 -10t8.5 -29q-3 -11 -28 -42q-11 -12 -31 -38q122 -87 72 -319q-77 -364 -445 -364q-83 0 -151 21q-5 -5 -13.5 -16t-26.5 -33q-15 -20 -24.5 -28t-23.5 -8t-26 10t-8 29q2 10 27 41 q6 7 13.5 17t16.5 21q-119 91 -72 310zM264 343q-11 -51 -15 -85.5t1 -74t23 -67.5l401 507q-45 21 -110 21q-48 0 -88.5 -11.5t-68.5 -28.5t-51.5 -45t-37 -51.5t-25.5 -58.5t-17 -55t-12 -51zM327 70q46 -20 112 -20q48 0 88.5 11t68 27t50.5 43t36.5 49.5t25.5 56.5 t17 54t12 52q35 166 -9 233z" />
<glyph unicode="&#xd9;" horiz-adv-x="764" d="M140 230l88 416q6 27 19 37.5t40 10.5h51q29 0 36 -11t1 -37l-89 -420q-18 -82 6 -122t107 -40q86 0 127 41t58 122l89 419q6 27 18.5 37.5t40.5 10.5h40q29 0 36 -11t1 -37l-88 -417q-13 -62 -42.5 -109t-64.5 -73.5t-79 -42.5t-80.5 -21t-75.5 -5q-29 0 -55.5 3 t-55.5 10t-50.5 19.5t-42 31.5t-30 45.5t-13 62t7.5 80.5zM366 862q-5 4 -5.5 9t5 9.5t14.5 4.5h161l104 -109q7 -9 1.5 -14.5t-17.5 -5.5h-67z" />
<glyph unicode="&#xda;" horiz-adv-x="764" d="M140 230l88 416q6 27 19 37.5t40 10.5h51q29 0 36 -11t1 -37l-89 -420q-18 -82 6 -122t107 -40q86 0 127 41t58 122l89 419q6 27 18.5 37.5t40.5 10.5h40q29 0 36 -11t1 -37l-88 -417q-13 -62 -42.5 -109t-64.5 -73.5t-79 -42.5t-80.5 -21t-75.5 -5q-29 0 -55.5 3 t-55.5 10t-50.5 19.5t-42 31.5t-30 45.5t-13 62t7.5 80.5zM449 776l150 109h161q9 0 12.5 -4.5t1.5 -10t-10 -8.5l-240 -106h-67q-12 0 -15.5 5.5t7.5 14.5z" />
<glyph unicode="&#xdb;" horiz-adv-x="764" d="M140 230l88 416q6 27 19 37.5t40 10.5h51q29 0 36 -11t1 -37l-89 -420q-18 -82 6 -122t107 -40q86 0 127 41t58 122l89 419q6 27 18.5 37.5t40.5 10.5h40q29 0 36 -11t1 -37l-88 -417q-13 -62 -42.5 -109t-64.5 -73.5t-79 -42.5t-80.5 -21t-75.5 -5q-29 0 -55.5 3 t-55.5 10t-50.5 19.5t-42 31.5t-30 45.5t-13 62t7.5 80.5zM372 766l132 104q3 3 8 3h111q5 0 8 -3l86 -102q5 -5 -0.5 -13.5t-13.5 -8.5h-47l-4 1l-95 81l-129 -81l-6 -1h-47q-5 0 -7.5 3.5t-1.5 8.5t6 8z" />
<glyph unicode="&#xdc;" horiz-adv-x="764" d="M140 230l88 416q6 27 19 37.5t40 10.5h51q29 0 36 -11t1 -37l-89 -420q-18 -82 6 -122t107 -40q86 0 127 41t58 122l89 419q6 27 18.5 37.5t40.5 10.5h40q29 0 36 -11t1 -37l-88 -417q-13 -62 -42.5 -109t-64.5 -73.5t-79 -42.5t-80.5 -21t-75.5 -5q-29 0 -55.5 3 t-55.5 10t-50.5 19.5t-42 31.5t-30 45.5t-13 62t7.5 80.5zM341 789l3 17q5 24 16 33.5t36 9.5h46q26 0 32.5 -9.5t1.5 -33.5l-3 -17q-5 -23 -15.5 -33t-37.5 -10h-46q-26 0 -32 10.5t-1 32.5zM627 789l3 17q5 24 16 33.5t36 9.5h46q26 0 32.5 -9.5t1.5 -33.5l-3 -17 q-5 -23 -15.5 -33t-37.5 -10h-46q-26 0 -32 10.5t-1 32.5z" />
<glyph unicode="&#xdd;" horiz-adv-x="733" d="M167 671q5 23 41 23h66q28 0 44 -8.5t28 -32.5l78 -162q27 -55 37 -88q24 35 95 113l127 140q36 38 88 38h49q10 0 16 -0.5t11.5 -6t3.5 -16.5q-3 -10 -14 -21l-340 -373l-49 -230q-6 -27 -18.5 -37t-39.5 -10h-48q-27 0 -35 10.5t-3 37.5l49 230l-182 373q-6 12 -4 20z M434 776l150 109h161q9 0 12.5 -4.5t1.5 -10t-10 -8.5l-240 -106h-67q-12 0 -15.5 5.5t7.5 14.5z" />
<glyph unicode="&#xde;" horiz-adv-x="703" d="M101 48l127 598q6 27 19 37.5t40 10.5h51q29 0 36 -11t1 -37l-18 -86h151q120 0 174.5 -53t31.5 -163q-22 -106 -98.5 -158t-197.5 -52h-152l-18 -86q-5 -27 -17.5 -37.5t-40.5 -10.5h-51q-27 0 -35 10.5t-3 37.5zM281 217h122q48 0 81 10.5t51 31t26.5 40t14.5 49.5 q6 36 5.5 65t-30 47t-91.5 18h-123z" />
<glyph unicode="&#xdf;" horiz-adv-x="565" d="M71 48l109 510q31 147 252 147q32 0 57 -3t66 -14.5t59.5 -43.5t7.5 -82q-21 -97 -105 -142q90 -65 56 -234q-42 -197 -249 -197q-21 0 -42.5 3.5t-37.5 11t-14 16.5q0 2 3.5 7.5t8 13t6.5 12.5q17 23 23 24q1 0 10 -3q24 -13 53 -13q22 0 39.5 9t27 19t18 31.5t11.5 32 t8 33.5q11 56 12 99t-22 70t-74 31q-12 1 -13.5 6t2.5 21l4 18q2 10 3.5 14.5t5 8.5t9.5 4q32 1 51 6t40.5 28.5t30.5 67.5q9 40 -5 56.5t-66 16.5q-54 0 -75 -18t-29 -58l-108 -509q-5 -27 -17.5 -37.5t-40.5 -10.5h-37q-27 0 -35 10.5t-3 37.5z" />
<glyph unicode="&#xe0;" horiz-adv-x="525" d="M59 133q9 41 44 71.5t74 44.5t90 22.5t75 9.5t46 1l7 35q11 44 0 68t-50 24q-92 0 -169 -67q-8 -6 -13 -6q-12 0 -10 11q0 17 8 73q2 8 7.5 12t23.5 11q83 32 171 32q16 0 27 -0.5t34.5 -3.5t36.5 -9t34 -17t26.5 -28.5t13.5 -42t-4 -58.5l-57 -268q-5 -27 -17.5 -37.5 t-40.5 -10.5h-37q-29 0 -36.5 11t-1.5 37l4 20q-70 -79 -172 -79q-63 0 -94.5 44t-19.5 100zM190 135q-6 -30 8.5 -52t44.5 -22q5 0 12 0.5t25 5.5t32.5 14t28.5 28t20 45l18 87q-15 -1 -29 -2t-42.5 -7.5t-50.5 -17t-41.5 -31t-25.5 -48.5zM252 681q3 13 30 13h82 q14 0 18 -1.5t9 -10.5l61 -117l6 -15q-3 -13 -30 -13h-37l-131 129q-10 8 -8 15z" />
<glyph unicode="&#xe1;" horiz-adv-x="525" d="M59 133q9 41 44 71.5t74 44.5t90 22.5t75 9.5t46 1l7 35q11 44 0 68t-50 24q-92 0 -169 -67q-8 -6 -13 -6q-12 0 -10 11q0 17 8 73q2 8 7.5 12t23.5 11q83 32 171 32q16 0 27 -0.5t34.5 -3.5t36.5 -9t34 -17t26.5 -28.5t13.5 -42t-4 -58.5l-57 -268q-5 -27 -17.5 -37.5 t-40.5 -10.5h-37q-29 0 -36.5 11t-1.5 37l4 20q-70 -79 -172 -79q-63 0 -94.5 44t-19.5 100zM190 135q-6 -30 8.5 -52t44.5 -22q5 0 12 0.5t25 5.5t32.5 14t28.5 28t20 45l18 87q-15 -1 -29 -2t-42.5 -7.5t-50.5 -17t-41.5 -31t-25.5 -48.5zM302 550q1 4 12 15l111 117 q8 8 13 10t20 2h82h11.5t7.5 -1.5t5 -4t0 -7.5q-2 -5 -14 -15l-187 -129h-37h-11.5t-7.5 1.5t-5 4t0 7.5z" />
<glyph unicode="&#xe2;" horiz-adv-x="525" d="M59 133q9 41 44 71.5t74 44.5t90 22.5t75 9.5t46 1l7 35q11 44 0 68t-50 24q-92 0 -169 -67q-8 -6 -13 -6q-12 0 -10 11q0 17 8 73q2 8 7.5 12t23.5 11q83 32 171 32q16 0 27 -0.5t34.5 -3.5t36.5 -9t34 -17t26.5 -28.5t13.5 -42t-4 -58.5l-57 -268q-5 -27 -17.5 -37.5 t-40.5 -10.5h-37q-29 0 -36.5 11t-1.5 37l4 20q-70 -79 -172 -79q-63 0 -94.5 44t-19.5 100zM190 135q-6 -30 8.5 -52t44.5 -22q5 0 12 0.5t25 5.5t32.5 14t28.5 28t20 45l18 87q-15 -1 -29 -2t-42.5 -7.5t-50.5 -17t-41.5 -31t-25.5 -48.5zM220 554l127 139q4 4 10 4h111 q7 0 8 -4l67 -137q2 -6 -3 -13.5t-12 -7.5h-47q-4 1 -6 2l-76 101l-120 -101l-6 -2h-47q-7 0 -9 6.5t3 12.5z" />
<glyph unicode="&#xe3;" horiz-adv-x="525" d="M59 133q9 41 44 71.5t74 44.5t90 22.5t75 9.5t46 1l7 35q11 44 0 68t-50 24q-92 0 -169 -67q-8 -6 -13 -6q-12 0 -10 11q0 17 8 73q2 8 7.5 12t23.5 11q83 32 171 32q16 0 27 -0.5t34.5 -3.5t36.5 -9t34 -17t26.5 -28.5t13.5 -42t-4 -58.5l-57 -268q-5 -27 -17.5 -37.5 t-40.5 -10.5h-37q-29 0 -36.5 11t-1.5 37l4 20q-70 -79 -172 -79q-63 0 -94.5 44t-19.5 100zM190 135q-6 -30 8.5 -52t44.5 -22q5 0 12 0.5t25 5.5t32.5 14t28.5 28t20 45l18 87q-15 -1 -29 -2t-42.5 -7.5t-50.5 -17t-41.5 -31t-25.5 -48.5zM202 567q8 41 46 77.5t88 36.5 q43 0 90 -37q26 -22 42 -22q33 0 48 44q4 11 9 13t21 2h18q17 0 21.5 -2.5t1.5 -14.5q-8 -41 -46 -77.5t-88 -36.5q-43 0 -90 37q-26 22 -43 22q-33 0 -47 -44q-4 -11 -9 -13t-21 -2h-18q-16 0 -21 2.5t-2 14.5z" />
<glyph unicode="&#xe4;" horiz-adv-x="525" d="M59 133q9 41 44 71.5t74 44.5t90 22.5t75 9.5t46 1l7 35q11 44 0 68t-50 24q-92 0 -169 -67q-8 -6 -13 -6q-12 0 -10 11q0 17 8 73q2 8 7.5 12t23.5 11q83 32 171 32q16 0 27 -0.5t34.5 -3.5t36.5 -9t34 -17t26.5 -28.5t13.5 -42t-4 -58.5l-57 -268q-5 -27 -17.5 -37.5 t-40.5 -10.5h-37q-29 0 -36.5 11t-1.5 37l4 20q-70 -79 -172 -79q-63 0 -94.5 44t-19.5 100zM190 135q-6 -30 8.5 -52t44.5 -22q5 0 12 0.5t25 5.5t32.5 14t28.5 28t20 45l18 87q-15 -1 -29 -2t-42.5 -7.5t-50.5 -17t-41.5 -31t-25.5 -48.5zM205 607l4 17q5 24 16 33.5 t36 9.5h46q26 0 32.5 -9.5t1.5 -33.5l-4 -17q-5 -23 -15.5 -33t-36.5 -10h-46q-26 0 -32.5 10.5t-1.5 32.5zM447 607l4 17q5 24 16 33.5t36 9.5h46q26 0 32.5 -9.5t1.5 -33.5l-4 -17q-5 -23 -15.5 -33t-36.5 -10h-46q-26 0 -32.5 10.5t-1.5 32.5z" />
<glyph unicode="&#xe5;" horiz-adv-x="525" d="M59 133q9 41 44 71.5t74 44.5t90 22.5t75 9.5t46 1l7 35q11 44 0 68t-50 24q-92 0 -169 -67q-8 -6 -13 -6q-12 0 -10 11q0 17 8 73q2 8 7.5 12t23.5 11q83 32 171 32q16 0 27 -0.5t34.5 -3.5t36.5 -9t34 -17t26.5 -28.5t13.5 -42t-4 -58.5l-57 -268q-5 -27 -17.5 -37.5 t-40.5 -10.5h-37q-29 0 -36.5 11t-1.5 37l4 20q-70 -79 -172 -79q-63 0 -94.5 44t-19.5 100zM190 135q-6 -30 8.5 -52t44.5 -22q5 0 12 0.5t25 5.5t32.5 14t28.5 28t20 45l18 87q-15 -1 -29 -2t-42.5 -7.5t-50.5 -17t-41.5 -31t-25.5 -48.5zM268 606q16 78 139 78 q14 0 24 -0.5t29.5 -4.5t31 -12t19 -24t2.5 -39q-16 -78 -139 -78q-14 0 -24 0.5t-29.5 4.5t-31 12t-19 24t-2.5 39zM336 605q-5 -21 7 -27.5t40 -6.5q30 0 44 6t19 28q4 21 -8 27.5t-40 6.5q-30 0 -44 -6t-18 -28z" />
<glyph unicode="&#xe6;" horiz-adv-x="794" d="M57 123q7 34 36.5 59t62 37.5t82.5 20.5t77.5 10t67.5 3l13 64q12 41 1 66.5t-51 25.5q-93 0 -170 -67q-8 -6 -13 -6q-12 0 -10 11q0 17 8 73q2 8 7.5 12t22.5 10q84 33 172 33q103 0 145 -41q66 41 158 41q100 0 136.5 -56.5t14.5 -157.5q-6 -28 -19 -37.5t-39 -9.5 h-249q-13 -72 5 -112.5t81 -40.5q82 0 151 58q13 10 18 10q7 0 8 -4.5t0 -27.5q-5 -41 -6 -44q-2 -8 -6.5 -11.5t-27.5 -15.5q-76 -37 -156 -37q-112 0 -168 55q-81 -55 -233 -55q-40 0 -68 14.5t-38 35.5t-14.5 44t1.5 40zM187 124q-4 -23 10 -43t48 -20q50 0 86.5 21 t40.5 40q0 7 -1 12q-2 27 1 65q-170 -9 -185 -75zM523 267h182q4 22 6 36t1.5 35.5t-6 33.5t-19 21.5t-35.5 9.5q-93 0 -129 -136z" />
<glyph unicode="&#xe7;" horiz-adv-x="489" d="M86 230q52 245 294 245q49 0 77.5 -7t63.5 -25q9 -5 12.5 -7.5t6 -6t1.5 -7.5t-12.5 -33.5t-14.5 -35.5q-6 -13 -16 -13q-6 0 -15 11q-25 25 -49 35.5t-70 10.5q-36 0 -62 -13t-41 -40.5t-22.5 -50t-16.5 -61.5q-5 -24 -7 -35.5t-4 -35t1.5 -36.5t11.5 -28.5t25 -22.5 t42 -7q83 0 158 56q12 10 18 10q10 0 10 -13q-3 -36 -9 -70q-1 -7 -6 -11t-29 -15q-76 -35 -161 -35q-237 0 -186 241zM126 -201q3 10 113 134q13 15 18 18t21 3h18h11t7 -1.5t5 -4t0 -7.5q0 -3 -8 -16l-77 -121q-8 -13 -12.5 -15.5t-21.5 -2.5h-50q-10 0 -14.5 0.5 t-7.5 3.5t-2 9z" />
<glyph unicode="&#xe8;" horiz-adv-x="511" d="M81 233q24 116 98 179t192 63q108 0 146.5 -57t16.5 -158q-4 -21 -14.5 -32t-19.5 -12.5t-24 -1.5h-272q-4 -24 -5 -41t2 -40t13 -37t32 -24.5t54 -10.5q83 0 163 58q13 10 19 10q7 0 8 -4.5t0 -27.5q-5 -41 -6 -44q-1 -8 -7 -12.5t-27 -13.5q-84 -38 -169 -38 q-120 0 -173 61.5t-27 182.5zM217 267h208q6 40 6 70t-18.5 48t-56.5 18q-103 0 -139 -136zM245 681q3 13 30 13h82q14 0 18 -1.5t9 -10.5l61 -117l6 -15q-3 -13 -30 -13h-37l-131 129q-10 8 -8 15z" />
<glyph unicode="&#xe9;" horiz-adv-x="511" d="M81 233q24 116 98 179t192 63q108 0 146.5 -57t16.5 -158q-4 -21 -14.5 -32t-19.5 -12.5t-24 -1.5h-272q-4 -24 -5 -41t2 -40t13 -37t32 -24.5t54 -10.5q83 0 163 58q13 10 19 10q7 0 8 -4.5t0 -27.5q-5 -41 -6 -44q-1 -8 -7 -12.5t-27 -13.5q-84 -38 -169 -38 q-120 0 -173 61.5t-27 182.5zM217 267h208q6 40 6 70t-18.5 48t-56.5 18q-103 0 -139 -136zM295 550q1 4 12 15l111 117q8 8 13 10t20 2h82h11.5t7.5 -1.5t5 -4t0 -7.5q-2 -5 -14 -15l-187 -129h-37h-11.5t-7.5 1.5t-5 4t0 7.5z" />
<glyph unicode="&#xea;" horiz-adv-x="511" d="M81 233q24 116 98 179t192 63q108 0 146.5 -57t16.5 -158q-4 -21 -14.5 -32t-19.5 -12.5t-24 -1.5h-272q-4 -24 -5 -41t2 -40t13 -37t32 -24.5t54 -10.5q83 0 163 58q13 10 19 10q7 0 8 -4.5t0 -27.5q-5 -41 -6 -44q-1 -8 -7 -12.5t-27 -13.5q-84 -38 -169 -38 q-120 0 -173 61.5t-27 182.5zM213 554l127 139q4 4 10 4h111q7 0 8 -4l67 -137q2 -6 -3 -13.5t-12 -7.5h-47q-4 1 -6 2l-76 101l-120 -101l-6 -2h-47q-7 0 -9 6.5t3 12.5zM217 267h208q6 40 6 70t-18.5 48t-56.5 18q-103 0 -139 -136z" />
<glyph unicode="&#xeb;" horiz-adv-x="511" d="M81 233q24 116 98 179t192 63q108 0 146.5 -57t16.5 -158q-4 -21 -14.5 -32t-19.5 -12.5t-24 -1.5h-272q-4 -24 -5 -41t2 -40t13 -37t32 -24.5t54 -10.5q83 0 163 58q13 10 19 10q7 0 8 -4.5t0 -27.5q-5 -41 -6 -44q-1 -8 -7 -12.5t-27 -13.5q-84 -38 -169 -38 q-120 0 -173 61.5t-27 182.5zM198 607l4 17q5 24 16 33.5t36 9.5h46q26 0 32.5 -9.5t1.5 -33.5l-4 -17q-5 -23 -15.5 -33t-36.5 -10h-46q-26 0 -32.5 10.5t-1.5 32.5zM217 267h208q6 40 6 70t-18.5 48t-56.5 18q-103 0 -139 -136zM440 607l4 17q5 24 16 33.5t36 9.5h46 q26 0 32.5 -9.5t1.5 -33.5l-4 -17q-5 -23 -15.5 -33t-36.5 -10h-46q-26 0 -32.5 10.5t-1.5 32.5z" />
<glyph unicode="&#xec;" horiz-adv-x="256" d="M71 48l77 362q6 28 18.5 38t39.5 10h37q29 0 36.5 -11t1.5 -37l-77 -362q-5 -27 -17.5 -37.5t-40.5 -10.5h-37q-27 0 -35 10.5t-3 37.5zM105 681q3 13 30 13h82q14 0 18 -1.5t9 -10.5l61 -117l6 -15q-3 -13 -30 -13h-37l-131 129q-10 8 -8 15z" />
<glyph unicode="&#xed;" horiz-adv-x="256" d="M71 48l77 362q6 28 18.5 38t39.5 10h37q29 0 36.5 -11t1.5 -37l-77 -362q-5 -27 -17.5 -37.5t-40.5 -10.5h-37q-27 0 -35 10.5t-3 37.5zM178 550q1 4 12 15l111 117q8 8 13 10t20 2h82h11.5t7.5 -1.5t5 -4t0 -7.5q-2 -5 -14 -15l-187 -129h-37h-11.5t-7.5 1.5t-5 4t0 7.5 z" />
<glyph unicode="&#xee;" horiz-adv-x="256" d="M71 48l77 362q6 28 18.5 38t39.5 10h37q29 0 36.5 -11t1.5 -37l-77 -362q-5 -27 -17.5 -37.5t-40.5 -10.5h-37q-27 0 -35 10.5t-3 37.5zM85 554l127 139q4 4 10 4h111q7 0 8 -4l67 -137q2 -6 -3 -13.5t-12 -7.5h-47q-4 1 -6 2l-76 101l-120 -101l-6 -2h-47q-7 0 -9 6.5 t3 12.5z" />
<glyph unicode="&#xef;" horiz-adv-x="256" d="M70 607l4 17q5 24 16 33.5t36 9.5h46q26 0 32.5 -9.5t1.5 -33.5l-4 -17q-5 -23 -15.5 -33t-36.5 -10h-46q-26 0 -32.5 10.5t-1.5 32.5zM71 48l77 362q6 28 18.5 38t39.5 10h37q29 0 36.5 -11t1.5 -37l-77 -362q-5 -27 -17.5 -37.5t-40.5 -10.5h-37q-27 0 -35 10.5 t-3 37.5zM312 607l4 17q5 24 16 33.5t36 9.5h46q26 0 32.5 -9.5t1.5 -33.5l-4 -17q-5 -23 -15.5 -33t-36.5 -10h-46q-26 0 -32.5 10.5t-1.5 32.5z" />
<glyph unicode="&#xf0;" d="M79 225q53 250 297 250q56 0 96 -14q6 37 4 71q-15 -8 -30 -4.5t-19 18.5l-8 25q-4 14 4 28t23 20l10 5l-11 11q-31 21 -25 45l5 28q4 16 17 26t27 8q66 -12 98 -67l40 17q15 7 28 2t17 -18l7 -25q4 -13 -3.5 -27t-22.5 -21l-36 -16q20 -120 -31 -362q-25 -119 -101 -179 q-73 -57 -193 -57q-244 0 -193 236zM217 237q-6 -27 -8.5 -41t-4.5 -38t2 -37t12.5 -27t26.5 -20.5t44 -6.5q38 0 64.5 14t42 43t22 51.5t14.5 61.5q7 31 10 48t3 43t-8 40t-27 24.5t-50 10.5t-54.5 -11t-37 -24.5t-25 -40t-15.5 -42.5t-11 -48z" />
<glyph unicode="&#xf1;" horiz-adv-x="561" d="M70 48l78 368q6 27 19 37.5t40 10.5h34q29 0 36 -11t1 -37l-10 -50h1q15 21 33.5 40t61 41t90.5 22q77 0 104 -33.5t11 -110.5l-59 -277q-5 -27 -17.5 -37.5t-40.5 -10.5h-40q-29 0 -36.5 11t-1.5 37l59 275q9 38 0 56t-43 18q-43 0 -83.5 -33.5t-53.5 -94.5l-47 -221 q-5 -27 -17.5 -37.5t-40.5 -10.5h-40q-27 0 -35 10.5t-3 37.5zM220 567q8 41 46 77.5t88 36.5q43 0 90 -37q26 -22 42 -22q33 0 48 44q4 11 9 13t21 2h18q17 0 21.5 -2.5t1.5 -14.5q-8 -41 -46 -77.5t-88 -36.5q-43 0 -90 37q-26 22 -43 22q-33 0 -47 -44q-4 -11 -9 -13 t-21 -2h-18q-16 0 -21 2.5t-2 14.5z" />
<glyph unicode="&#xf2;" d="M79 225q53 250 297 250q243 0 190 -250q-50 -236 -294 -236t-193 236zM217 237q-6 -27 -8.5 -41t-4.5 -38t2 -37t12.5 -27t26.5 -20.5t44 -6.5q38 0 64.5 14t42 43t22 51.5t14.5 61.5q7 31 10 48t3 43t-8 40t-27 24.5t-50 10.5t-54.5 -11t-37 -24.5t-25 -40t-15.5 -42.5 t-11 -48zM264 681q3 13 30 13h82q14 0 18 -1.5t9 -10.5l61 -117l6 -15q-3 -13 -30 -13h-37l-131 129q-10 8 -8 15z" />
<glyph unicode="&#xf3;" d="M79 225q53 250 297 250q243 0 190 -250q-50 -236 -294 -236t-193 236zM217 237q-6 -27 -8.5 -41t-4.5 -38t2 -37t12.5 -27t26.5 -20.5t44 -6.5q38 0 64.5 14t42 43t22 51.5t14.5 61.5q7 31 10 48t3 43t-8 40t-27 24.5t-50 10.5t-54.5 -11t-37 -24.5t-25 -40t-15.5 -42.5 t-11 -48zM314 550q1 4 12 15l111 117q8 8 13 10t20 2h82h11.5t7.5 -1.5t5 -4t0 -7.5q-2 -5 -14 -15l-187 -129h-37h-11.5t-7.5 1.5t-5 4t0 7.5z" />
<glyph unicode="&#xf4;" d="M79 225q53 250 297 250q243 0 190 -250q-50 -236 -294 -236t-193 236zM217 237q-6 -27 -8.5 -41t-4.5 -38t2 -37t12.5 -27t26.5 -20.5t44 -6.5q38 0 64.5 14t42 43t22 51.5t14.5 61.5q7 31 10 48t3 43t-8 40t-27 24.5t-50 10.5t-54.5 -11t-37 -24.5t-25 -40t-15.5 -42.5 t-11 -48zM232 554l127 139q4 4 10 4h111q7 0 8 -4l67 -137q2 -6 -3 -13.5t-12 -7.5h-47q-4 1 -6 2l-76 101l-120 -101l-6 -2h-47q-7 0 -9 6.5t3 12.5z" />
<glyph unicode="&#xf5;" d="M79 225q53 250 297 250q243 0 190 -250q-50 -236 -294 -236t-193 236zM214 567q8 41 46 77.5t88 36.5q43 0 90 -37q26 -22 42 -22q33 0 48 44q4 11 9 13t21 2h18q17 0 21.5 -2.5t1.5 -14.5q-8 -41 -46 -77.5t-88 -36.5q-43 0 -90 37q-26 22 -43 22q-33 0 -47 -44 q-4 -11 -9 -13t-21 -2h-18q-16 0 -21 2.5t-2 14.5zM217 237q-6 -27 -8.5 -41t-4.5 -38t2 -37t12.5 -27t26.5 -20.5t44 -6.5q38 0 64.5 14t42 43t22 51.5t14.5 61.5q7 31 10 48t3 43t-8 40t-27 24.5t-50 10.5t-54.5 -11t-37 -24.5t-25 -40t-15.5 -42.5t-11 -48z" />
<glyph unicode="&#xf6;" d="M79 225q53 250 297 250q243 0 190 -250q-50 -236 -294 -236t-193 236zM217 237q-6 -27 -8.5 -41t-4.5 -38t2 -37t12.5 -27t26.5 -20.5t44 -6.5q38 0 64.5 14t42 43t22 51.5t14.5 61.5q7 31 10 48t3 43t-8 40t-27 24.5t-50 10.5t-54.5 -11t-37 -24.5t-25 -40t-15.5 -42.5 t-11 -48zM217 607l4 17q5 24 16 33.5t36 9.5h46q26 0 32.5 -9.5t1.5 -33.5l-4 -17q-5 -23 -15.5 -33t-36.5 -10h-46q-26 0 -32.5 10.5t-1.5 32.5zM459 607l4 17q5 24 16 33.5t36 9.5h46q26 0 32.5 -9.5t1.5 -33.5l-4 -17q-5 -23 -15.5 -33t-36.5 -10h-46q-26 0 -32.5 10.5 t-1.5 32.5z" />
<glyph unicode="&#xf7;" horiz-adv-x="856" d="M114 250q9 42 62 42h627q10 0 18.5 -1t19 -11.5t6.5 -29.5q-9 -42 -63 -42h-625q-11 0 -19.5 1t-19 11.5t-6.5 29.5zM361 -6l16 77q5 20 9.5 23.5t23.5 3.5h77q20 0 22.5 -4t-1.5 -23l-16 -77q-5 -20 -9.5 -23.5t-23.5 -3.5h-77q-20 0 -22.5 3.5t1.5 23.5zM453 428l16 77 q5 20 9.5 23.5t23.5 3.5h77q20 0 22.5 -4t-1.5 -23l-16 -77q-5 -20 -9.5 -23.5t-23.5 -3.5h-77q-20 0 -22.5 3.5t1.5 23.5z" />
<glyph unicode="&#xf8;" d="M34 -97q3 10 22 34l69 90q-78 56 -46 198q53 250 296 250q52 0 89 -11l80 104q17 24 40 24q15 0 23.5 -10.5t4.5 -25.5q-2 -11 -15 -27l-74 -95q75 -61 43 -209q-50 -236 -294 -236q-49 0 -86 9l-77 -98q-1 -2 -4 -4q-20 -25 -33 -28l-9 -1q-15 0 -23.5 10.5t-5.5 25.5z M192 114l218 281q-24 8 -49 8q-36 0 -63 -12.5t-42.5 -27.5t-28 -43.5t-17 -45.5t-11.5 -48q-17 -80 -7 -112zM239 67q22 -6 48 -6q36 0 63 11t42 24.5t27 40t16 42.5t11 47q18 82 8 119z" />
<glyph unicode="&#xf9;" horiz-adv-x="561" d="M87 126l60 284q6 28 18.5 38t39.5 10h40q29 0 36.5 -11t1.5 -37l-62 -293q-10 -40 -1.5 -53.5t49.5 -13.5q51 0 86 35t46 88l50 237q6 27 18 37.5t40 10.5h40q29 0 36.5 -11t1.5 -37l-77 -362q-5 -27 -17.5 -37.5t-40.5 -10.5h-37q-29 0 -36.5 11t-1.5 37l6 26 q-65 -85 -163 -85q-83 0 -116 30t-17 107zM270 681q3 13 30 13h82q14 0 18 -1.5t9 -10.5l61 -117l6 -15q-3 -13 -30 -13h-37l-131 129q-10 8 -8 15z" />
<glyph unicode="&#xfa;" horiz-adv-x="561" d="M87 126l60 284q6 28 18.5 38t39.5 10h40q29 0 36.5 -11t1.5 -37l-62 -293q-10 -40 -1.5 -53.5t49.5 -13.5q51 0 86 35t46 88l50 237q6 27 18 37.5t40 10.5h40q29 0 36.5 -11t1.5 -37l-77 -362q-5 -27 -17.5 -37.5t-40.5 -10.5h-37q-29 0 -36.5 11t-1.5 37l6 26 q-65 -85 -163 -85q-83 0 -116 30t-17 107zM320 550q1 4 12 15l111 117q8 8 13 10t20 2h82h11.5t7.5 -1.5t5 -4t0 -7.5q-2 -5 -14 -15l-187 -129h-37h-11.5t-7.5 1.5t-5 4t0 7.5z" />
<glyph unicode="&#xfb;" horiz-adv-x="561" d="M87 126l60 284q6 28 18.5 38t39.5 10h40q29 0 36.5 -11t1.5 -37l-62 -293q-10 -40 -1.5 -53.5t49.5 -13.5q51 0 86 35t46 88l50 237q6 27 18 37.5t40 10.5h40q29 0 36.5 -11t1.5 -37l-77 -362q-5 -27 -17.5 -37.5t-40.5 -10.5h-37q-29 0 -36.5 11t-1.5 37l6 26 q-65 -85 -163 -85q-83 0 -116 30t-17 107zM238 554l127 139q4 4 10 4h111q7 0 8 -4l67 -137q2 -6 -3 -13.5t-12 -7.5h-47q-4 1 -6 2l-76 101l-120 -101l-6 -2h-47q-7 0 -9 6.5t3 12.5z" />
<glyph unicode="&#xfc;" horiz-adv-x="561" d="M87 126l60 284q6 28 18.5 38t39.5 10h40q29 0 36.5 -11t1.5 -37l-62 -293q-10 -40 -1.5 -53.5t49.5 -13.5q51 0 86 35t46 88l50 237q6 27 18 37.5t40 10.5h40q29 0 36.5 -11t1.5 -37l-77 -362q-5 -27 -17.5 -37.5t-40.5 -10.5h-37q-29 0 -36.5 11t-1.5 37l6 26 q-65 -85 -163 -85q-83 0 -116 30t-17 107zM223 607l4 17q5 24 16 33.5t36 9.5h46q26 0 32.5 -9.5t1.5 -33.5l-4 -17q-5 -23 -15.5 -33t-36.5 -10h-46q-26 0 -32.5 10.5t-1.5 32.5zM465 607l4 17q5 24 16 33.5t36 9.5h46q26 0 32.5 -9.5t1.5 -33.5l-4 -17q-5 -23 -15.5 -33 t-36.5 -10h-46q-26 0 -32.5 10.5t-1.5 32.5z" />
<glyph unicode="&#xfd;" horiz-adv-x="500" d="M4 -191q-1 3 3 38.5t6 42.5q3 15 16 15q4 0 9 -4q27 -21 62 -21q25 0 46 14t31 27.5t23 36.5q7 14 23 42l-101 416q-2 11 -1 16q5 26 44 26h26q36 0 46.5 -13.5t22.5 -64.5q44 -191 38 -238h1q8 30 45.5 102.5t69.5 129.5t36 61q20 23 58 23h22q7 0 12 -0.5t12 -2.5 t10 -8.5t1 -15.5q-1 -6 -10 -20l-263 -474q-8 -15 -22.5 -33.5t-41 -45.5t-66 -45t-82.5 -18q-68 0 -76 14zM289 550q1 4 12 15l111 117q8 8 13 10t20 2h82h11.5t7.5 -1.5t5 -4t0 -7.5q-2 -5 -14 -15l-187 -129h-37h-11.5t-7.5 1.5t-5 4t0 7.5z" />
<glyph unicode="&#xfe;" horiz-adv-x="561" d="M30 -146l168 792q6 27 19 37.5t40 10.5h37q29 0 36 -11t1 -37l-50 -235q75 58 161 58q43 0 73 -13.5t43.5 -38t20.5 -48.5t4.5 -55.5t-5 -47.5t-6.5 -35q-6 -27 -11 -46t-25 -59.5t-46 -67t-73.5 -48t-107.5 -21.5q-69 0 -104 50l-39 -185q-5 -27 -17.5 -37.5 t-40.5 -10.5h-40q-28 0 -36 10.5t-2 37.5zM218 100q22 -39 70 -39q32 0 57 11.5t39 25.5t25.5 41.5t15.5 43.5t11 47q5 25 7.5 39t5 37t-1.5 36.5t-11.5 27.5t-24.5 20.5t-41 6.5q-52 0 -96 -35z" />
<glyph unicode="&#xff;" horiz-adv-x="500" d="M4 -191q-1 3 3 38.5t6 42.5q3 15 16 15q4 0 9 -4q27 -21 62 -21q25 0 46 14t31 27.5t23 36.5q7 14 23 42l-101 416q-2 11 -1 16q5 26 44 26h26q36 0 46.5 -13.5t22.5 -64.5q44 -191 38 -238h1q8 30 45.5 102.5t69.5 129.5t36 61q20 23 58 23h22q7 0 12 -0.5t12 -2.5 t10 -8.5t1 -15.5q-1 -6 -10 -20l-263 -474q-8 -15 -22.5 -33.5t-41 -45.5t-66 -45t-82.5 -18q-68 0 -76 14zM192 607l4 17q5 24 16 33.5t36 9.5h46q26 0 32.5 -9.5t1.5 -33.5l-4 -17q-5 -23 -15.5 -33t-36.5 -10h-46q-26 0 -32.5 10.5t-1.5 32.5zM434 607l4 17q5 24 16 33.5 t36 9.5h46q26 0 32.5 -9.5t1.5 -33.5l-4 -17q-5 -23 -15.5 -33t-36.5 -10h-46q-26 0 -32.5 10.5t-1.5 32.5z" />
<glyph unicode="&#x152;" horiz-adv-x="1069" d="M103 342q38 181 147 277.5t294 96.5q38 0 91 -10q72 -12 105 -12h367q23 0 31.5 -6.5t7.5 -19t-3 -30.5q-7 -33 -22 -40.5t-47 -7.5l-234 3h-50l-40 -187h264q27 0 35.5 -10t2.5 -37q-6 -28 -19 -37.5t-39 -9.5h-264l-43 -206q145 2 302 4q21 0 30 -1.5t15 -12.5t1 -34 l-3 -14q-5 -27 -17.5 -37.5t-40.5 -10.5h-382q-36 0 -97 -11q-70 -11 -109 -11q-183 0 -252 93.5t-31 270.5zM250 359q-66 -309 162 -309q32 0 53.5 5.5t37 16t27 34t20 52t19.5 77.5l24 112q37 174 39 205q2 28 -1 45t-14.5 28t-30 15t-49.5 4q-45 0 -84 -12t-66 -29.5 t-49.5 -44.5t-36 -50.5t-25 -55t-16.5 -50.5t-10 -43z" />
<glyph unicode="&#x153;" horiz-adv-x="856" d="M80 232q52 243 299 243q116 0 168 -56q72 56 181 56q99 0 136 -56t15 -158q-6 -28 -19 -37.5t-39 -9.5h-250q-5 -41 -4.5 -75t23.5 -56t68 -22q82 0 151 58q13 10 18 10q7 0 8 -4.5t0 -27.5q-5 -41 -6 -44q0 -3 -0.5 -4.5t-2.5 -4t-5.5 -4.5t-9.5 -5.5t-15 -7.5 q-77 -38 -158 -38q-113 0 -169 58q-74 -58 -193 -58q-121 0 -171.5 60.5t-24.5 182.5zM211 236q-4 -22 -6.5 -33t-4.5 -32.5t-0.5 -34t6.5 -29t15 -25t27.5 -15t41.5 -6.5q32 0 57.5 12t40 27.5t26 43.5t16 45.5t10.5 47.5q5 24 7.5 38t4.5 36.5t-2.5 36t-13 28t-27.5 21 t-46 6.5q-33 0 -59 -11.5t-40 -25.5t-26 -41t-16 -43t-11 -46zM584 267h183q3 20 4.5 31t3 29.5t-1.5 29.5t-9.5 23t-19 17.5t-31.5 5.5q-94 0 -129 -136z" />
<glyph unicode="&#x178;" horiz-adv-x="733" d="M167 671q5 23 41 23h66q28 0 44 -8.5t28 -32.5l78 -162q27 -55 37 -88q24 35 95 113l127 140q36 38 88 38h49q10 0 16 -0.5t11.5 -6t3.5 -16.5q-3 -10 -14 -21l-340 -373l-49 -230q-6 -27 -18.5 -37t-39.5 -10h-48q-27 0 -35 10.5t-3 37.5l49 230l-182 373q-6 12 -4 20z M326 789l3 17q5 24 16 33.5t36 9.5h46q26 0 32.5 -9.5t1.5 -33.5l-3 -17q-5 -23 -15.5 -33t-37.5 -10h-46q-26 0 -32 10.5t-1 32.5zM612 789l3 17q5 24 16 33.5t36 9.5h46q26 0 32.5 -9.5t1.5 -33.5l-3 -17q-5 -23 -15.5 -33t-37.5 -10h-46q-26 0 -32 10.5t-1 32.5z" />
<glyph unicode="&#x2c6;" d="M232 554l127 139q4 4 10 4h111q7 0 8 -4l67 -137q2 -6 -3 -13.5t-12 -7.5h-47q-4 1 -6 2l-76 101l-120 -101l-6 -2h-47q-7 0 -9 6.5t3 12.5z" />
<glyph unicode="&#x2dc;" d="M214 567q8 41 46 77.5t88 36.5q43 0 90 -37q26 -22 42 -22q33 0 48 44q4 11 9 13t21 2h18q17 0 21.5 -2.5t1.5 -14.5q-8 -41 -46 -77.5t-88 -36.5q-43 0 -90 37q-26 22 -43 22q-33 0 -47 -44q-4 -11 -9 -13t-21 -2h-18q-16 0 -21 2.5t-2 14.5z" />
<glyph unicode="&#x2000;" horiz-adv-x="442" />
<glyph unicode="&#x2001;" horiz-adv-x="885" />
<glyph unicode="&#x2002;" horiz-adv-x="442" />
<glyph unicode="&#x2003;" horiz-adv-x="885" />
<glyph unicode="&#x2004;" horiz-adv-x="295" />
<glyph unicode="&#x2005;" horiz-adv-x="221" />
<glyph unicode="&#x2006;" horiz-adv-x="147" />
<glyph unicode="&#x2007;" horiz-adv-x="147" />
<glyph unicode="&#x2008;" horiz-adv-x="110" />
<glyph unicode="&#x2009;" horiz-adv-x="177" />
<glyph unicode="&#x200a;" horiz-adv-x="49" />
<glyph unicode="&#x2010;" horiz-adv-x="367" d="M61 229q7 36 55 36h197q48 0 41 -36q-8 -36 -56 -36h-197q-11 0 -18.5 1t-16.5 10t-5 25z" />
<glyph unicode="&#x2011;" horiz-adv-x="367" d="M61 229q7 36 55 36h197q48 0 41 -36q-8 -36 -56 -36h-197q-11 0 -18.5 1t-16.5 10t-5 25z" />
<glyph unicode="&#x2012;" horiz-adv-x="367" d="M61 229q7 36 55 36h197q48 0 41 -36q-8 -36 -56 -36h-197q-11 0 -18.5 1t-16.5 10t-5 25z" />
<glyph unicode="&#x2013;" d="M60 283q8 36 56 36h453q11 0 18.5 -1t16.5 -10t5 -25q-7 -36 -55 -36h-453q-48 0 -41 36z" />
<glyph unicode="&#x2014;" horiz-adv-x="1100" d="M60 283q8 36 56 36h1003q11 0 18.5 -1t16.5 -10t5 -25q-7 -36 -55 -36h-1003q-48 0 -41 36z" />
<glyph unicode="&#x2018;" horiz-adv-x="306" d="M190 484l20 95l85 102q8 9 12.5 11t19.5 2h12h11t7 -1.5t5 -4t0 -7.5q-2 -6 -6 -13l-47 -80q25 0 29 -4t-1 -23l-16 -77q-5 -20 -9.5 -23.5t-23.5 -3.5h-77q-20 0 -22.5 3.5t1.5 23.5z" />
<glyph unicode="&#x2019;" horiz-adv-x="306" d="M188 470q2 6 6 13l47 80q-25 0 -29 3.5t0 23.5l17 77q4 19 8.5 23t24.5 4h77q19 0 22 -4t-1 -23l-20 -95l-85 -102q-8 -9 -12.5 -11t-19.5 -2h-12h-11t-7 1.5t-5 4t0 7.5z" />
<glyph unicode="&#x201a;" horiz-adv-x="306" d="M68 -95q2 6 6 13l47 80q-25 0 -29 3.5t0 23.5l17 77q4 20 8.5 23.5t23.5 3.5h77q20 0 23 -3.5t-1 -23.5l-21 -95l-84 -102q-8 -9 -12.5 -11t-19.5 -2h-12h-11t-7 1.5t-5 4t0 7.5z" />
<glyph unicode="&#x201c;" horiz-adv-x="529" d="M190 484l20 95l85 102q8 9 12.5 11t19.5 2h12h11t7 -1.5t5 -4t0 -7.5q-2 -6 -6 -13l-47 -80q25 0 29 -4t-1 -23l-16 -77q-5 -20 -9.5 -23.5t-23.5 -3.5h-77q-20 0 -22.5 3.5t1.5 23.5zM413 484l20 95l85 102q8 9 12.5 11t19.5 2h12h11t7 -1.5t5 -4t0 -7.5q-2 -6 -6 -13 l-47 -80q25 0 29 -4t-1 -23l-16 -77q-5 -20 -9.5 -23.5t-23.5 -3.5h-77q-20 0 -22.5 3.5t1.5 23.5z" />
<glyph unicode="&#x201d;" horiz-adv-x="529" d="M189 470q2 6 6 13l47 80q-25 0 -29 3.5t0 23.5l17 77q4 19 8.5 23t24.5 4h77q19 0 22 -4t-1 -23l-20 -95l-85 -102q-8 -9 -12.5 -11t-19.5 -2h-12h-11t-7 1.5t-5 4t0 7.5zM412 470q2 6 6 13l47 80q-25 0 -29 3.5t0 23.5l17 77q4 19 8.5 23t24.5 4h77q19 0 22 -4t-1 -23 l-20 -95l-85 -102q-8 -9 -12.5 -11t-19.5 -2h-12h-11t-7 1.5t-5 4t0 7.5z" />
<glyph unicode="&#x201e;" horiz-adv-x="529" d="M69 -95q2 6 6 13l47 80q-25 0 -29 3.5t0 23.5l17 77q4 20 8.5 23.5t23.5 3.5h77q20 0 23 -3.5t-1 -23.5l-21 -95l-84 -102q-8 -9 -12.5 -11t-19.5 -2h-12h-11t-7 1.5t-5 4t0 7.5zM292 -95q2 6 6 13l47 80q-25 0 -29 3.5t0 23.5l17 77q4 20 8.5 23.5t23.5 3.5h77 q20 0 23 -3.5t-1 -23.5l-21 -95l-84 -102q-8 -9 -12.5 -11t-19.5 -2h-12h-11t-7 1.5t-5 4t0 7.5z" />
<glyph unicode="&#x2022;" horiz-adv-x="856" d="M314 177l37 178q10 46 20.5 54.5t56.5 8.5h178q46 0 52.5 -8.5t-3.5 -54.5l-37 -178q-10 -46 -20.5 -54.5t-56.5 -8.5h-178q-46 0 -52.5 8.5t3.5 54.5z" />
<glyph unicode="&#x2026;" horiz-adv-x="768" d="M94 27l16 77q5 20 9.5 23.5t23.5 3.5h77q20 0 22.5 -3.5t-1.5 -23.5l-16 -77q-5 -20 -9.5 -23.5t-23.5 -3.5h-77q-20 0 -22.5 4t1.5 23zM325 27l16 77q5 20 9.5 23.5t23.5 3.5h77q20 0 22.5 -3.5t-1.5 -23.5l-16 -77q-5 -20 -9.5 -23.5t-23.5 -3.5h-77q-20 0 -22.5 4 t1.5 23zM556 27l16 77q5 20 9.5 23.5t23.5 3.5h77q20 0 22.5 -3.5t-1.5 -23.5l-16 -77q-5 -20 -9.5 -23.5t-23.5 -3.5h-77q-20 0 -22.5 4t1.5 23z" />
<glyph unicode="&#x202f;" horiz-adv-x="177" />
<glyph unicode="&#x2039;" horiz-adv-x="319" d="M128 244q-2 6 3 12l161 237q5 7 13 7h46q15 0 10 -16l-97 -234l-3 -234q0 -7 -5 -11.5t-11 -4.5h-46q-8 0 -10 7z" />
<glyph unicode="&#x203a;" horiz-adv-x="319" d="M65 16l96 234l3 234q0 7 5 11.5t11 4.5h46q8 0 10 -7l61 -237q1 -5 -2 -12l-162 -237q-5 -7 -13 -7h-46q-6 0 -9 4.5t0 11.5z" />
<glyph unicode="&#x205f;" horiz-adv-x="221" />
<glyph unicode="&#x20ac;" horiz-adv-x="658" d="M106 237l24 60q3 11 15 11h43l8 39l9 39h-54q-6 0 -9 5t-1 10l24 60q3 11 15 11h53q36 90 100 151q99 93 255 93q79 0 141 -35q7 -6 4 -14l-42 -107q-4 -9 -12.5 -10.5t-12.5 5.5q-12 28 -38.5 44.5t-60.5 16.5q-84 0 -137 -64q-30 -36 -49 -80h247q6 0 9 -4.5t1 -10.5 l-23 -60q-5 -11 -15 -11h-247l-9 -39l-8 -39h229q6 0 8.5 -4.5t0.5 -10.5l-23 -60q-5 -11 -15 -11h-208q0 -43 15 -79q28 -65 110 -65t150 63q7 7 14.5 4t6.5 -11l-11 -86q0 -6 -7 -11q-82 -59 -175 -59q-157 0 -215 94q-38 58 -36 150h-64q-6 0 -9 5t-1 10z" />
<glyph unicode="&#x2122;" horiz-adv-x="1027" d="M164 661l2 5q3 16 10.5 22t24.5 6h333q34 0 21 -33q-3 -14 -9 -20.5t-11.5 -7.5t-16.5 -1l-119 2l-69 -324q-4 -16 -11 -22t-24 -6h-30q-17 0 -22 6t-1 22l69 324l-122 -2q-11 0 -16 1t-8.5 7.5t-0.5 20.5zM536 310l76 359q4 17 11.5 23t23.5 6h49q30 0 36 -25l36 -189 q19 -101 19 -113h1q6 15 62 107l120 194q17 26 46 26h50q18 0 22 -6.5t1 -22.5l-76 -359q-4 -16 -11 -22t-24 -6h-16q-18 0 -22 6.5t-1 21.5l66 311h-1q-13 -29 -66 -112l-117 -188q-11 -18 -21.5 -22t-29.5 -4q-13 0 -18.5 1t-12 7t-9.5 18l-33 171q-20 100 -21 129 l-66 -311q-4 -16 -11 -22t-24 -6h-16q-17 0 -22 6t-1 22z" />
<glyph unicode="&#xe000;" horiz-adv-x="460" d="M0 0v460h460v-460h-460z" />
</font>
</defs>
</svg>
