<?xml version="1.0" standalone="no"?>
<!DOCTYPE svg PUBLIC "-//W3C//DTD SVG 1.1//EN" "http://www.w3.org/Graphics/SVG/1.1/DTD/svg11.dtd" >
<svg xmlns="http://www.w3.org/2000/svg">
<metadata></metadata>
<defs>
<font id="bpreplayitalic" horiz-adv-x="610" >
<font-face units-per-em="1000" ascent="800" descent="-200" />
<missing-glyph horiz-adv-x="283" />
<glyph horiz-adv-x="1000" />
<glyph horiz-adv-x="1000" />
<glyph unicode="&#xd;" horiz-adv-x="1000" />
<glyph unicode=" "  horiz-adv-x="283" />
<glyph unicode="&#x09;" horiz-adv-x="283" />
<glyph unicode="&#xa0;" horiz-adv-x="283" />
<glyph unicode="!" horiz-adv-x="213" d="M5 44q2 25 18 40.5t37 15.5q20 0 32.5 -13.5t12.5 -36.5q-2 -21 -18 -35.5t-37 -14.5q-19 0 -32 12.5t-13 31.5zM31 173l57 552q4 43 41 43q32 0 32 -34l-57 -553q-4 -37 -41 -37q-32 0 -32 29z" />
<glyph unicode="&#x22;" horiz-adv-x="324" d="M60 579l16 147q4 43 41 43q32 0 32 -34l-16 -156q-5 -39 -41 -39q-32 0 -32 39zM199 579l16 147q4 43 42 43q34 0 34 -35l-16 -155q-5 -39 -43 -39q-33 0 -33 39z" />
<glyph unicode="#" horiz-adv-x="646" d="M27 252q1 20 15 29.5t31 9.5h80l42 162h-74q-34 0 -34 27q3 38 41 38h82l50 212q9 37 36 37q13 0 22.5 -8.5t9.5 -21.5l-53 -219h140l52 212q9 38 36 38q13 0 21.5 -8t8.5 -21l-51 -221h70q36 0 36 -29q0 -19 -14.5 -27.5t-33.5 -8.5h-73l-42 -162h72q33 0 33 -30 q-2 -19 -15.5 -28.5t-28.5 -9.5h-76l-45 -174q-13 -49 -48 -49q-22 0 -22 22q0 3 0.5 6t1 5t0.5 4l47 186h-141l-43 -174q-12 -49 -48 -49q-23 0 -23 22q0 3 0.5 5.5t1 4t0.5 3v2.5l47 186h-69q-42 0 -42 29zM218 291h141l41 162h-140z" />
<glyph unicode="$" horiz-adv-x="548" d="M28 75q1 20 12 32t28 12q16 0 59 -22t69 -24l32 299q-73 20 -121.5 66t-48.5 112q0 87 63 151t148 69l4 38q5 32 25 32q18 0 18 -23l-5 -47q44 -1 98.5 -25t54.5 -60q-3 -39 -38 -39q-11 0 -52.5 24.5t-69.5 26.5l-27 -252q82 -28 133.5 -80t51.5 -126q0 -95 -70.5 -166 t-160.5 -73q-2 -17 -5 -49q-3 -27 -23 -27q-21 0 -21 27l7 49q-52 4 -106.5 24t-54.5 51zM142 571q0 -40 27.5 -69t67.5 -41l25 236q-50 -9 -83 -43t-37 -83zM238 69q60 14 100.5 58t40.5 101q0 89 -111 128z" />
<glyph unicode="%" horiz-adv-x="811" d="M60 564q0 84 54.5 143.5t132.5 59.5q69 0 108.5 -46t39.5 -116q0 -84 -54.5 -145.5t-132.5 -61.5q-69 0 -108.5 48t-39.5 118zM128 564q0 -46 22 -77.5t64 -31.5q54 0 85.5 45.5t31.5 98.5q0 48 -24 79.5t-66 31.5q-53 0 -83 -46.5t-30 -99.5zM181 14q1 11 5 21l346 698 q15 30 42 30q12 0 19 -8t7 -20q-2 -18 -8 -30l-353 -705q-7 -15 -34 -15q-10 0 -17 8t-7 21zM388 164q0 85 55 145t134 60q68 0 106.5 -47t38.5 -117q0 -84 -52.5 -144.5t-130.5 -60.5q-71 0 -111 46.5t-40 117.5zM456 164q0 -46 22 -77t66 -31q53 0 84 44.5t31 96.5 q0 47 -23 81t-65 34q-54 0 -84.5 -47t-30.5 -101z" />
<glyph unicode="&#x26;" horiz-adv-x="739" d="M20 182q0 156 212 283q-23 27 -33.5 41.5t-21.5 39.5t-11 49q0 72 50.5 122t119.5 50q54 0 90.5 -34t36.5 -97q0 -96 -125 -191l166 -214l70 100q27 39 54 39q31 0 31 -28q-1 -26 -20 -51l-94 -122q89 -110 89 -122v-4q-1 -17 -14 -30t-28 -13q-17 0 -27 10l-73 110 q-51 -66 -114.5 -103.5t-130.5 -37.5q-106 0 -166.5 56t-60.5 147zM95 192q0 -63 41 -102.5t104 -39.5q55 0 113.5 35t99.5 93l-182 233q-176 -112 -176 -219zM244 611q0 -60 54 -114q95 72 95 138q0 32 -19.5 48.5t-46.5 16.5q-37 0 -60 -26.5t-23 -62.5z" />
<glyph unicode="'" horiz-adv-x="258" d="M59 564q2 14 4 17l76 151q19 37 49 37q15 0 26 -11t11 -27q-1 -14 -7 -24l-81 -147q-15 -27 -41 -27q-15 0 -26 9t-11 22z" />
<glyph unicode="(" horiz-adv-x="290" d="M32 269q0 282 188 476q15 11 29 11q13 0 21.5 -9t8.5 -23q-2 -15 -15 -28q-79 -83 -120.5 -192t-41.5 -231q0 -185 90 -290q6 -12 6 -23v-4q-1 -14 -11 -23t-24 -9q-17 0 -30 14q-101 113 -101 331z" />
<glyph unicode=")" horiz-adv-x="290" d="M-5 -44q2 13 11 27q80 77 122.5 190.5t42.5 236.5q0 167 -87 286q-9 12 -9 28q1 13 11.5 22.5t24.5 9.5q15 0 27 -11q104 -128 104 -320q0 -133 -47.5 -268.5t-139.5 -218.5q-15 -14 -32 -14q-28 0 -28 28v4z" />
<glyph unicode="*" d="M186 487q2 14 13 24l109 54l-95 54q-11 10 -11 26q2 11 11.5 20t21.5 9q3 0 11 -2l93 -65l7 117q9 28 33 28q23 0 27 -25l-20 -120l102 61q8 5 18 5t18 -8t8 -21q-2 -15 -18 -27l-109 -52l97 -50q14 -7 14 -27q-2 -12 -11.5 -20.5t-21.5 -8.5q-7 0 -15 3l-91 58l-4 -107 q-1 -16 -11.5 -24.5t-22.5 -8.5q-11 0 -18.5 7.5t-7.5 22.5l16 110l-103 -60q-8 -2 -13 -2q-11 0 -19 8t-8 21z" />
<glyph unicode="+" d="M53 268q4 47 50 47h182l19 183q2 20 14 31.5t31 11.5q16 0 26.5 -11t10.5 -28l-19 -187h182q21 0 32.5 -9.5t11.5 -25.5q-3 -49 -53 -49h-182l-20 -189q-2 -18 -14.5 -30t-29.5 -12q-38 0 -38 36l20 195h-182q-41 0 -41 37z" />
<glyph unicode="," horiz-adv-x="257" d="M-10 -104q0 7 4 17l83 163q16 32 45 32q14 0 23.5 -9t9.5 -22q0 -9 -3 -13l-94 -176q-13 -25 -36 -25q-13 0 -22.5 9.5t-9.5 23.5z" />
<glyph unicode="-" horiz-adv-x="387" d="M32 272q1 19 14.5 31t33.5 12h206q39 0 39 -34q-4 -42 -47 -42h-206q-40 0 -40 33z" />
<glyph unicode="." horiz-adv-x="214" d="M5 44q2 25 18 40.5t37 15.5q19 0 32 -12.5t13 -31.5q-2 -25 -18 -40.5t-37 -15.5q-19 0 -32 12.5t-13 31.5z" />
<glyph unicode="/" d="M131 14q1 11 5 21l346 698q15 30 42 30q26 0 26 -32q-2 -15 -8 -26l-353 -705q-7 -15 -34 -15q-10 0 -17 8t-7 21z" />
<glyph unicode="0" horiz-adv-x="594" d="M26 300q0 56 10 117t33 124t56 113t83 81.5t109 31.5h4q56 0 98 -28t64.5 -75t33 -100.5t10.5 -113.5q0 -54 -10 -114.5t-33 -123t-56 -112t-82.5 -81t-108.5 -31.5q-58 0 -100.5 27t-65.5 73t-34 99t-11 113zM110 313q0 -63 11.5 -116t43.5 -92.5t80 -39.5q42 0 76.5 28 t56.5 71t37 95t21.5 98.5t6.5 83.5q0 64 -11.5 117t-42 91.5t-77.5 38.5q-53 0 -94.5 -41t-63.5 -102.5t-33 -121.5t-11 -110z" />
<glyph unicode="1" horiz-adv-x="352" d="M27 654q2 36 41 46q153 42 157 42q24 0 30 -20l2 -17q0 -6 -2 -34l-66 -628q-2 -19 -14 -31t-30 -12q-17 0 -27 10t-10 27l64 618l-101 -28q-10 -2 -13 -2q-14 0 -22.5 8t-8.5 21z" />
<glyph unicode="2" horiz-adv-x="572" d="M28 32v4q1 16 19 37l311 370q58 70 58 139q0 48 -35 76.5t-83 28.5q-53 0 -95 -35.5t-48 -98.5q-2 -17 -14 -32.5t-31 -15.5q-18 0 -27.5 14.5t-9.5 33.5v5q10 92 81 149t156 57q77 0 133 -47t56 -122q0 -101 -92 -209l-263 -310h275q34 0 34 -32v-5q-5 -39 -42 -39h-331 q-52 0 -52 32z" />
<glyph unicode="3" horiz-adv-x="553" d="M33 149q2 19 13 29.5t25 10.5q26 0 35 -26q31 -95 121 -95q68 0 114.5 46.5t46.5 111.5q0 49 -26 85t-77 45q-12 2 -58 2q-42 1 -42 33v4q5 36 49 36q47 0 57 2q49 10 76.5 56.5t27.5 97.5q0 49 -28.5 77t-80.5 28q-43 0 -77 -29t-38 -71q-5 -50 -44 -50q-37 0 -37 43 q7 72 67.5 127t141.5 55q83 0 130.5 -48.5t47.5 -123.5q0 -109 -101 -191q93 -62 93 -171q0 -104 -72.5 -174t-170.5 -70q-75 0 -134 46t-59 114z" />
<glyph unicode="4" horiz-adv-x="585" d="M21 232v4q4 22 17 38l306 421q33 47 81 47q57 0 57 -72l-43 -405h48q33 0 33 -32q-3 -43 -37 -43h-52l-15 -143q-5 -47 -42 -47q-35 0 -35 39l15 150h-285q-23 0 -35.5 12.5t-12.5 30.5zM118 265h244l42 393z" />
<glyph unicode="5" horiz-adv-x="581" d="M14 109q2 20 12.5 30.5t23.5 10.5q20 0 29 -17q21 -31 61 -50.5t81 -19.5q75 0 128 58t53 130q0 62 -38 105.5t-110 43.5q-28 0 -57.5 -8.5t-43.5 -8.5q-37 0 -37 31q0 12 80 286q12 40 61 40h214q15 0 24 -11t9 -27q-4 -43 -41 -43h-206l-54 -193q34 8 77 8 q99 0 151 -59.5t52 -146.5q0 -117 -82 -198.5t-193 -81.5q-80 0 -137 39t-57 82z" />
<glyph unicode="6" horiz-adv-x="559" d="M25 218q0 257 305 510q18 15 36 15q16 0 26.5 -9t10.5 -25q-1 -20 -13 -30q-69 -58 -133 -130.5t-94 -123.5q51 53 143 53q77 0 127.5 -57t50.5 -148q0 -112 -75.5 -198.5t-183.5 -86.5q-96 0 -148 66t-52 164zM102 218q0 -65 35.5 -110.5t99.5 -45.5q75 9 122.5 66.5 t47.5 130.5q0 61 -35.5 103t-104.5 42q-74 0 -119.5 -57t-45.5 -129z" />
<glyph unicode="7" horiz-adv-x="553" d="M44 694q4 47 50 47h354q18 0 30 -11.5t12 -30.5q-1 -16 -9 -31l-331 -627q-23 -41 -52 -41q-31 0 -31 33q1 22 7 30l317 597h-305q-42 0 -42 34z" />
<glyph unicode="8" horiz-adv-x="550" d="M24 188q0 71 41.5 131t105.5 89q-80 52 -80 149q0 86 67 145.5t150 59.5q76 0 124 -44.5t48 -116.5q0 -112 -115 -187q50 -26 79 -73t29 -104q0 -101 -75 -175t-171 -74q-92 0 -147.5 55.5t-55.5 144.5zM110 200q0 -58 34 -95.5t92 -37.5q67 0 110 52.5t43 117.5 q0 57 -34.5 95t-87.5 38q-67 0 -112 -53t-45 -117zM171 557q0 -48 28 -80t76 -32q54 0 87.5 45.5t33.5 98.5q0 46 -28.5 72.5t-69.5 26.5q-54 0 -90.5 -39.5t-36.5 -91.5z" />
<glyph unicode="9" horiz-adv-x="588" d="M39 485q0 115 75.5 198t188.5 83q97 0 151.5 -64.5t54.5 -167.5q0 -155 -92.5 -298t-227.5 -243q-15 -11 -32 -11q-14 0 -23 8.5t-9 20.5q2 25 23 42q74 59 140 133t88 121q-54 -44 -133 -44q-96 0 -150 65t-54 157zM119 487q0 -69 39 -109t98 -40q81 0 129.5 58.5 t48.5 137.5q0 65 -35.5 110t-106.5 45q-78 0 -125.5 -63t-47.5 -139z" />
<glyph unicode=":" horiz-adv-x="212" d="M5 44q2 25 18 40.5t37 15.5q20 0 32.5 -13.5t12.5 -36.5q-2 -21 -18 -35.5t-37 -14.5q-19 0 -32 12.5t-13 31.5zM42 394q1 25 17 40.5t38 15.5q20 0 32.5 -14t12.5 -36q-2 -21 -18.5 -35.5t-37.5 -14.5q-19 0 -31.5 12.5t-12.5 31.5z" />
<glyph unicode=";" horiz-adv-x="257" d="M-10 -104q0 7 4 17l83 163q16 32 45 32q14 0 23.5 -9t9.5 -22q0 -9 -3 -13l-94 -176q-13 -25 -36 -25q-13 0 -22.5 9.5t-9.5 23.5zM92 394q0 25 16.5 40.5t38.5 15.5q20 0 32.5 -13t12.5 -33q0 -23 -17 -38.5t-39 -15.5q-19 0 -31.5 12.5t-12.5 31.5z" />
<glyph unicode="&#x3c;" horiz-adv-x="635" d="M48 274q3 34 40 50l477 212q20 8 35 8q12 0 19.5 -8t7.5 -20q-3 -29 -37 -45l-433 -198l384 -196q33 -17 33 -39q-3 -37 -37 -37q-16 0 -38 11l-421 221q-30 15 -30 41z" />
<glyph unicode="=" d="M45 177q3 44 40 44h470q33 0 33 -30q-4 -43 -41 -43h-470q-32 0 -32 29zM67 385q3 43 39 43h470q33 0 33 -30q-3 -43 -40 -43h-470q-32 0 -32 30z" />
<glyph unicode="&#x3e;" horiz-adv-x="635" d="M25 34q3 25 43 43l424 196l-391 198q-29 15 -29 41q2 14 12 23t23 9t33 -8l433 -212q30 -16 30 -41q-3 -33 -40 -50l-467 -221q-25 -11 -40 -11q-31 0 -31 33z" />
<glyph unicode="?" horiz-adv-x="482" d="M87 580q8 75 67 119t128 44q67 0 112 -41t45 -114q0 -52 -22 -105t-65.5 -106t-76.5 -86.5t-87 -82.5q-15 -13 -30 -13t-23.5 9t-8.5 23v5q2 16 26 37q46 42 69 64.5t63 68.5t59 89.5t19 85.5q0 45 -27 68t-66 23q-38 0 -69.5 -26t-39.5 -65q-4 -20 -15.5 -31.5 t-25.5 -11.5q-32 0 -32 46zM105 50q0 21 17 35.5t38 14.5q20 0 32.5 -13.5t12.5 -36.5q0 -21 -17 -35.5t-38 -14.5q-20 0 -32.5 13.5t-12.5 36.5z" />
<glyph unicode="@" horiz-adv-x="863" d="M51 313q0 192 115.5 324.5t298.5 132.5q139 0 226 -75t87 -208q0 -44 -11 -95t-31 -100.5t-56 -82t-80 -32.5q-54 0 -94 57q-56 -56 -122 -56q-73 0 -111 47.5t-38 117.5q0 92 55.5 164.5t142.5 72.5q53 0 93 -44q9 43 37 43q30 0 30 -33q0 -43 -11.5 -124.5 t-11.5 -120.5q0 -57 34 -57q29 0 51.5 27t33.5 66t16.5 74t5.5 60q0 108 -67.5 171t-176.5 63q-104 0 -184.5 -57.5t-120 -143.5t-39.5 -182q0 -122 74 -195.5t189 -73.5q166 0 252 86q21 20 39 20q25 0 25 -22q-2 -25 -16 -39q-111 -111 -292 -111q-142 0 -242.5 89.5 t-100.5 236.5zM307 352q0 -45 23 -75t69 -30q60 0 96 51l18 174q-33 40 -75 40q-60 0 -95.5 -50.5t-35.5 -109.5z" />
<glyph unicode="A" horiz-adv-x="663" d="M3 30q1 9 6 25l294 640q21 45 62 45q42 0 54 -45l166 -640q3 -6 3 -14q0 -18 -10.5 -29.5t-27.5 -11.5q-28 0 -33 24l-40 128h-340l-57 -114q-19 -38 -48 -38t-29 30zM166 228h292l-102 410z" />
<glyph unicode="B" horiz-adv-x="597" d="M4 36q0 8 1 13l67 643q6 48 46 48h193q32 0 64.5 -9t63 -27t49.5 -49.5t19 -72.5q0 -60 -38.5 -109.5t-92.5 -66.5q63 -10 107 -60.5t44 -117.5q0 -94 -72 -161t-162 -67h-235q-31 0 -42.5 6.5t-11.5 29.5zM81 73h189q71 0 122.5 42t51.5 108q0 65 -52 102t-126 37h-154z M119 430h130q65 0 118 30t59 89q0 56 -35.5 87t-92.5 31h-154z" />
<glyph unicode="C" horiz-adv-x="693" d="M35 320q0 114 48 215.5t139.5 166.5t203.5 65q123 0 202 -82q16 -15 16 -33q-2 -20 -13.5 -31.5t-26.5 -11.5q-20 0 -30 12q-59 65 -159 65q-92 0 -161.5 -55t-102.5 -133.5t-33 -161.5q0 -113 60 -191.5t172 -78.5q95 0 172 69q12 11 26 11q32 0 32 -32v-5 q-3 -24 -19 -37q-105 -83 -223 -83q-147 0 -225 95.5t-78 235.5z" />
<glyph unicode="D" horiz-adv-x="644" d="M3 28q0 8 1 13l68 651q6 48 63 48h198q126 0 194 -93.5t68 -227.5q0 -104 -44.5 -199t-128.5 -157.5t-186 -62.5h-194q-22 0 -30.5 5.5t-8.5 22.5zM81 73h157q66 0 120.5 32t87.5 83t51 109.5t18 116.5q0 108 -51.5 180.5t-148.5 72.5h-171z" />
<glyph unicode="E" horiz-adv-x="477" d="M3 28q0 10 1 17l69 650q5 45 45 45h304q33 0 33 -29q-3 -44 -40 -44h-272l-26 -246h224q33 0 33 -32q-4 -41 -41 -41h-224l-29 -275h280q39 0 39 -30q-3 -43 -46 -43h-312q-22 0 -30 6t-8 22z" />
<glyph unicode="F" horiz-adv-x="438" d="M3 26l69 666q6 48 46 48h295q33 0 33 -29q-3 -44 -40 -44h-262l-28 -264h198q33 0 33 -32q-4 -42 -41 -42h-198l-31 -299q-3 -30 -41 -30q-33 0 -33 26z" />
<glyph unicode="G" horiz-adv-x="703" d="M35 309q0 86 27 168.5t75 148t122.5 106t161.5 40.5q57 0 116 -23.5t97 -68.5q14 -16 14 -30q-2 -18 -14 -31.5t-30 -13.5q-17 0 -33 16q-71 71 -163 71q-71 0 -128.5 -35.5t-91.5 -91.5t-52 -119.5t-18 -125.5q0 -108 55.5 -181t162.5 -73q102 0 169.5 77t79.5 192 q1 13 -3 15h-205q-40 0 -40 31v5q4 37 51 37h217q33 0 44.5 -16t11.5 -46q0 -95 -44.5 -180.5t-123 -138.5t-169.5 -53q-141 0 -215 91.5t-74 228.5z" />
<glyph unicode="H" horiz-adv-x="662" d="M3 31l71 674q3 37 39 37q34 0 34 -31v-6l-31 -292h413l31 292q4 37 39 37t35 -32l-71 -674q-3 -36 -41 -36q-33 0 -33 31l32 308h-413l-32 -303q-3 -36 -39 -36q-34 0 -34 31z" />
<glyph unicode="I" horiz-adv-x="176" d="M3 31l71 674q3 37 39 37q34 0 34 -31l-71 -674q-4 -37 -40 -37q-33 0 -33 31z" />
<glyph unicode="J" horiz-adv-x="416" d="M6 61v4q5 38 38 38q8 0 40 -23q31 -23 70 -23q43 0 69.5 24.5t31.5 67.5l59 556q4 37 40 37q35 0 35 -37l-59 -556q-7 -74 -58 -118t-126 -44q-79 0 -131 50q-9 9 -9 24z" />
<glyph unicode="K" horiz-adv-x="578" d="M3 28l71 683q3 31 39 31q35 0 35 -27v-4l-38 -365l389 385q9 9 24 9t26 -11.5t11 -25.5q-1 -17 -12 -26l-240 -235l192 -377q9 -9 9 -25v-4q-1 -16 -16 -26.5t-25 -10.5q-18 0 -32 17l-188 371l-149 -141l-22 -214q-3 -32 -39 -32q-35 0 -35 28z" />
<glyph unicode="L" horiz-adv-x="499" d="M4 46q0 2 0.5 5.5t0.5 5.5l69 648q3 37 39 37q34 0 34 -31l-67 -638h321q33 0 33 -29q-3 -44 -40 -44h-345q-45 0 -45 46z" />
<glyph unicode="M" horiz-adv-x="893" d="M3 30v5l2 12l165 622q20 75 72 75q50 0 63 -67l106 -545l226 545q27 65 78 65q52 0 55 -73l27 -629q-1 -18 -12.5 -28.5t-27.5 -10.5q-35 0 -36 40l-21 607l-259 -605q-18 -43 -45 -43q-28 0 -37 43l-124 606l-156 -607q-11 -41 -44 -41q-32 0 -32 29z" />
<glyph unicode="N" horiz-adv-x="653" d="M3 32l70 666q5 44 40 44q28 0 49 -36l329 -574l60 571q5 38 40 38q33 0 33 -30l-69 -667q-5 -44 -40 -44q-29 0 -47 30l-332 572l-60 -564q-5 -38 -39 -38t-34 32z" />
<glyph unicode="O" horiz-adv-x="732" d="M36 325q0 108 42.5 207.5t127.5 166t192 66.5q138 0 211.5 -96.5t73.5 -238.5q0 -81 -26 -159.5t-72 -141t-116.5 -101t-152.5 -38.5q-92 0 -157 48.5t-94 122.5t-29 164zM114 332q0 -114 55 -192t157 -78q68 0 123.5 34.5t88 89t49.5 115.5t17 121q0 114 -55 191 t-159 77q-67 0 -122 -34.5t-87.5 -88.5t-49.5 -115t-17 -120z" />
<glyph unicode="P" horiz-adv-x="616" d="M3 31l70 670q4 40 45 40h212q97 0 160 -56t63 -146q0 -105 -81.5 -176.5t-182.5 -71.5h-186l-27 -254q-4 -37 -39 -37q-34 0 -34 31zM111 364h182q76 0 130 49t54 120q0 63 -46 99t-122 36h-166z" />
<glyph unicode="Q" horiz-adv-x="743" d="M36 325q0 108 42.5 207.5t127.5 166t192 66.5q138 0 211.5 -96.5t73.5 -238.5q0 -159 -91 -292q5 -6 60 -75q8 -11 8 -23v-4q-2 -14 -11.5 -24.5t-25.5 -10.5q-14 0 -22 9l-62 70q-103 -90 -223 -90q-92 0 -157 48.5t-94 122.5t-29 164zM115 332q0 -114 55 -192t157 -78 q86 0 166 73l-43 48q-11 13 -11 26q1 20 14.5 33t29.5 13t25 -11l41 -46q56 101 56 222q0 115 -54.5 192.5t-159.5 77.5q-67 0 -122 -34.5t-87.5 -88.5t-49.5 -115t-17 -120z" />
<glyph unicode="R" horiz-adv-x="639" d="M4 36l69 665q4 40 61 40h220q99 0 155 -43t56 -123q0 -78 -51 -136t-124 -77l108 -295q5 -17 5 -29v-6q-3 -33 -36 -33q-23 0 -32 20l-125 336h-200l-33 -310q-5 -45 -40 -45q-33 0 -33 36zM117 428h212q64 0 114.5 38.5t50.5 97.5q0 51 -42 77.5t-97 26.5h-212z" />
<glyph unicode="S" horiz-adv-x="533" d="M8 77q4 39 38 39q16 0 33 -12q57 -37 127 -37q72 0 124 48.5t52 117.5q0 38 -29 68.5t-99 64.5q-36 18 -54 27.5t-49 30t-46.5 38.5t-28 44.5t-12.5 56.5q0 86 71.5 144t155.5 58q89 0 153 -52q24 -18 24 -43q-2 -18 -14 -31t-27 -13q-14 0 -36 18q-49 41 -110 41 q-55 0 -92 -30t-41 -71q0 -18 8.5 -35t18.5 -28.5t30 -25t30.5 -19.5t33.5 -17.5l27 -13.5q83 -43 127 -92t44 -116q0 -110 -81.5 -179.5t-188.5 -69.5q-94 0 -167 50q-22 17 -22 39z" />
<glyph unicode="T" horiz-adv-x="516" d="M73 699q4 42 44 42h369q34 0 34 -30q-3 -43 -41 -43h-148l-66 -626q-5 -42 -40 -42q-34 0 -34 34l66 634h-147q-37 0 -37 31z" />
<glyph unicode="U" horiz-adv-x="667" d="M26 232q0 25 47 466q4 43 45 43q36 0 36 -35q-45 -428 -45 -454q0 -182 187 -182q93 0 150 50t70 173l43 405q4 43 45 43q37 0 37 -35l-44 -421q-8 -80 -37 -139t-73.5 -92.5t-96.5 -49t-112 -15.5q-115 0 -183.5 58t-68.5 185z" />
<glyph unicode="V" horiz-adv-x="645" d="M74 702v5q3 36 42 36q29 0 35 -30l145 -589l265 589q14 29 38 29q15 0 24.5 -12t9.5 -28q0 -7 -9 -30t-34 -78.5t-53 -116t-83.5 -180.5t-107.5 -235q-29 -62 -63 -62q-32 0 -46 53l-162 636q-1 4 -1 13z" />
<glyph unicode="W" horiz-adv-x="890" d="M73 700q0 18 12.5 30t29.5 12q33 0 36 -37l39 -605l233 604q15 38 57 38t48 -38l102 -603l163 602q11 41 46 41q15 0 25 -9.5t10 -25.5v-4l-186 -654q-7 -23 -26 -37t-42 -14q-21 0 -37 11.5t-20 34.5l-97 579l-216 -563q-12 -32 -32 -48t-41 -16q-22 0 -38.5 16.5 t-18.5 42.5l-46 639q-1 1 -1 4z" />
<glyph unicode="X" horiz-adv-x="647" d="M2 23v5q3 17 16 34l260 350l-169 271q-6 11 -6 21v4q1 15 12.5 24.5t25.5 9.5q20 0 32 -18l156 -251l187 250q15 18 33 18q13 0 23 -9.5t10 -23.5q-1 -15 -11 -26l-205 -273l194 -345q10 -17 10 -33v-4q-3 -28 -32 -28q-22 0 -35 22l-191 327l-243 -326q-18 -23 -41 -23 q-26 0 -26 24z" />
<glyph unicode="Y" horiz-adv-x="553" d="M74 701v6q3 35 36 35q20 0 29 -21l139 -295l187 293q17 23 38 23q30 0 30 -27v-5q-2 -12 -8 -21l-217 -341l-32 -305q-4 -43 -41 -43q-34 0 -34 35v8l32 305l-155 333q-4 9 -4 20z" />
<glyph unicode="Z" horiz-adv-x="585" d="M4 33v9q1 20 15 39l451 587h-348q-35 0 -35 31v5q4 37 42 37h402q47 0 47 -29q-1 -21 -25 -52l-451 -587h383q35 0 35 -28v-7q-3 -38 -42 -38h-443q-31 0 -31 33z" />
<glyph unicode="[" horiz-adv-x="255" d="M-1 -13l75 722q4 49 46 49h73q29 0 29 -28q0 -1 -0.5 -3.5t-0.5 -4.5q-3 -30 -34 -30h-42l-72 -690h42q28 0 28 -25v-5q-4 -34 -36 -34h-73q-35 0 -35 39v10z" />
<glyph unicode="\" horiz-adv-x="459" d="M76 720v4q1 15 13 23.5t29 8.5q14 0 20 -8.5t13 -30.5l200 -682q1 -3 1 -11q-2 -13 -12 -22t-24 -9q-30 0 -40 34l-199 682q-1 4 -1 11z" />
<glyph unicode="]" horiz-adv-x="255" d="M-3 -34q0 2 0.5 5t0.5 4q3 27 28 27h47l71 683q-2 0 -16.5 -0.5t-25.5 -0.5q-27 0 -27 26v6q3 34 34 34h75q36 0 36 -37q0 -8 -1 -12l-75 -714q-4 -49 -45 -49h-75q-27 0 -27 28z" />
<glyph unicode="^" d="M60 297q1 17 12 34l265 394q15 25 43 25q27 0 39 -25l173 -394q5 -13 5 -25v-5q-3 -34 -40 -34q-25 0 -43 40l-145 337l-225 -337q-16 -23 -24.5 -31.5t-23.5 -8.5t-25.5 8t-10.5 22z" />
<glyph unicode="_" horiz-adv-x="518" d="M-46 -95q3 33 40 33h498q35 0 35 -34q-3 -32 -42 -32h-498q-33 0 -33 33z" />
<glyph unicode="`" horiz-adv-x="258" d="M57 549q0 10 5 20l84 156q15 28 41 28q37 0 37 -32v-4q0 -1 -3 -10l-84 -154q-20 -35 -40 -35q-18 0 -29 9t-11 22z" />
<glyph unicode="a" horiz-adv-x="629" d="M18 231q0 60 18 119.5t51 109.5t84.5 81.5t112.5 31.5q49 0 93 -24.5t60 -68.5l4 41q5 39 42 39q32 0 32 -31q-42 -405 -42 -414q0 -56 65 -56q40 0 40 -27v-6q-3 -35 -47 -35q-61 0 -91 24.5t-37 72.5q-33 -43 -81 -72t-100 -29q-100 0 -152 69.5t-52 174.5zM95 237 q0 -78 34 -130t99 -52q60 0 105.5 44.5t66 102.5t20.5 113q0 86 -41 136t-100 50q-45 0 -82 -27t-58 -68.5t-32.5 -85.5t-11.5 -83z" />
<glyph unicode="b" horiz-adv-x="561" d="M2 21q0 1 0.5 4t0.5 5l80 701q5 39 41 39q33 0 33 -31v-8l-35 -273q21 47 73.5 81t103.5 34q99 0 151.5 -74t52.5 -180q0 -80 -30.5 -154.5t-93 -125.5t-142.5 -51q-54 0 -96 26t-58 73l-6 -58q-2 -18 -14.5 -29t-28.5 -11q-32 0 -32 32zM105 244q0 -78 36.5 -132 t108.5 -54q45 0 81 25.5t55.5 66t29.5 82.5t10 81q0 78 -31.5 133t-98.5 55q-62 0 -107.5 -43.5t-64.5 -100t-19 -113.5z" />
<glyph unicode="c" horiz-adv-x="505" d="M27 241q0 128 85.5 223.5t209.5 95.5q72 0 117 -22q30 -13 30 -33q-1 -19 -11.5 -30t-25.5 -11q-4 0 -10 2q-50 23 -106 23q-94 0 -153.5 -74.5t-59.5 -165.5q0 -80 48.5 -134.5t122.5 -54.5q62 0 115 34q7 4 14 4q10 0 18 -8.5t8 -20.5q-1 -21 -27 -40q-66 -40 -138 -40 q-104 0 -170.5 71t-66.5 181z" />
<glyph unicode="d" horiz-adv-x="620" d="M26 231q0 60 18 119.5t51 109.5t84.5 81.5t112.5 31.5q49 0 93 -24.5t60 -68.5l28 252q5 39 42 39q32 0 32 -31v-8q-40 -347 -66 -566q-6 -52 -6 -54q0 -53 64 -53q40 0 40 -27v-6q-3 -35 -47 -35q-114 0 -128 96q-75 -100 -174 -100q-100 0 -152 69.5t-52 174.5z M103 236q0 -78 34 -130t99 -52q46 0 84 26t60.5 66t34.5 84t12 84q0 85 -40.5 135.5t-99.5 50.5q-45 0 -82 -27t-58 -68.5t-32.5 -85.5t-11.5 -83z" />
<glyph unicode="e" horiz-adv-x="589" d="M27 238q0 130 78 233t197 103q99 0 153 -58t54 -155q0 -118 -67 -118h-338q0 -81 45.5 -131t114.5 -50q43 0 74 11t67 40q23 18 45 18q30 0 30 -29v-5q-2 -13 -9 -20q-81 -89 -215 -89q-109 0 -169 70.5t-60 179.5zM113 315h319q1 9 1 25q0 70 -36.5 115t-99.5 45 q-71 0 -123.5 -54.5t-60.5 -130.5z" />
<glyph unicode="f" horiz-adv-x="376" d="M-51 -209q3 37 47 37q46 0 62 27t23 93l57 531h-47q-37 0 -37 30q3 45 45 45h47q10 95 45.5 141.5t119.5 46.5q41 0 41 -31q-4 -37 -48 -37q-46 0 -62 -27t-23 -93q32 0 64 1q37 0 37 -33q-4 -44 -47 -44h-62q-16 -150 -27.5 -257.5t-16 -147t-7.5 -70t-6 -55.5 q-10 -95 -45.5 -141.5t-119.5 -46.5q-40 0 -40 31z" />
<glyph unicode="g" horiz-adv-x="607" d="M21 -148q2 19 12.5 31t27.5 12q15 0 31 -11q59 -35 122 -35q73 0 126 46t62 134l5 51q-23 -46 -69 -68.5t-96 -22.5q-104 0 -159.5 72t-55.5 179q0 131 78.5 232t198.5 101q46 0 89.5 -27.5t55.5 -66.5l7 64q3 33 39 33q34 0 34 -28l-53 -510q-13 -125 -90.5 -194.5 t-176.5 -69.5q-105 0 -172 45q-16 11 -16 33zM104 246q0 -89 42 -138.5t102 -49.5q47 0 84 25.5t58 66t32 83.5t11 84q0 87 -41 135t-101 48t-104.5 -43.5t-63.5 -99.5t-19 -111z" />
<glyph unicode="h" horiz-adv-x="515" d="M3 31l80 701q5 39 40 39q33 0 33 -31l-32 -254q57 86 156 86q71 0 125 -48t54 -122q0 -13 -38 -366q-3 -36 -40 -36q-33 0 -33 31v5q34 322 34 337q0 61 -34.5 94t-84.5 33q-56 0 -101 -40t-53 -110l-33 -314q-3 -36 -40 -36q-33 0 -33 31z" />
<glyph unicode="i" horiz-adv-x="301" d="M27 109q0 14 43 422q4 37 41 37q35 0 35 -37q-43 -402 -43 -412q0 -60 63 -60q40 0 40 -27v-6q-3 -35 -47 -35q-66 0 -99 31t-33 87zM73 719q1 25 17 40.5t38 15.5q20 0 32.5 -13.5t12.5 -36.5q-2 -21 -18.5 -35.5t-37.5 -14.5q-19 0 -31.5 12.5t-12.5 31.5z" />
<glyph unicode="j" horiz-adv-x="195" d="M-125 -205q3 33 47 33q46 0 62 27t23 93l61 583q4 36 42 36q33 0 33 -29l-61 -590q-10 -95 -46.5 -141.5t-120.5 -46.5q-40 0 -40 35zM73 719q1 25 17 40.5t38 15.5q20 0 32.5 -13.5t12.5 -36.5q-2 -21 -18.5 -35.5t-37.5 -14.5q-19 0 -31.5 12.5t-12.5 31.5z" />
<glyph unicode="k" horiz-adv-x="475" d="M3 31l76 702q4 37 41 37q32 0 32 -29l-48 -431l247 251q8 9 25 9q14 0 23.5 -9.5t9.5 -23.5q-1 -18 -24 -41l-131 -138l127 -286q12 -30 12 -34q0 -18 -11 -29t-26 -11q-22 0 -34 22l-129 295l-98 -99l-19 -180q-3 -36 -40 -36q-33 0 -33 31z" />
<glyph unicode="l" horiz-adv-x="254" d="M12 103q0 3 7 70q25 230 59 561q5 38 40 38q34 0 34 -31q-46 -434 -65 -609q-2 -18 -2 -19q0 -54 65 -54q40 0 40 -27v-6q-3 -35 -47 -35q-131 0 -131 112z" />
<glyph unicode="m" horiz-adv-x="826" d="M3 32l51 488q5 44 42 44q32 0 32 -33l-4 -47q25 40 68 64.5t87 24.5q49 0 87.5 -29t52.5 -76q29 47 80 76t107 29q72 0 120.5 -43.5t48.5 -113.5q0 -13 -39 -378q-3 -36 -40 -36q-35 0 -35 31q36 337 36 350q0 49 -27.5 81t-75.5 32q-62 0 -106 -46t-51 -111l-32 -301 q-4 -37 -39 -37q-34 0 -34 31q36 338 36 350q0 49 -28 80.5t-77 31.5q-62 0 -105 -45t-50 -110l-32 -301q-4 -37 -39 -37q-34 0 -34 31z" />
<glyph unicode="n" horiz-adv-x="512" d="M3 31l52 493q3 39 40 39q33 0 33 -33l-4 -44q57 87 159 87q71 0 123.5 -47t52.5 -123q0 -14 -38 -367q-3 -36 -40 -36q-33 0 -33 31q34 327 34 342q0 61 -34.5 94t-84.5 33q-56 0 -101 -40t-53 -110l-33 -314q-3 -36 -40 -36q-33 0 -33 31z" />
<glyph unicode="o" horiz-adv-x="575" d="M27 239q0 131 77.5 232.5t197.5 101.5q102 0 157 -74t55 -182q0 -131 -76.5 -229.5t-197.5 -98.5q-103 0 -158 71.5t-55 178.5zM106 253q0 -79 35.5 -137t106.5 -58q61 0 105.5 39.5t64 93t19.5 108.5q0 81 -36 141.5t-107 60.5q-62 0 -106.5 -41.5t-63 -96t-18.5 -110.5 z" />
<glyph unicode="p" horiz-adv-x="561" d="M-20 -198q0 1 3 26q22 209 73 706q3 39 41 39q33 0 33 -33l-8 -82q21 47 73.5 81t103.5 34q99 0 151.5 -74t52.5 -180q0 -80 -30.5 -154.5t-93 -125.5t-142.5 -51q-54 0 -96 26t-58 73l-29 -277q-2 -18 -14.5 -29t-28.5 -11q-31 0 -31 32zM107 240q0 -78 36 -131t108 -53 q46 0 82 25.5t55.5 65.5t29.5 82t10 82q0 78 -31.5 133t-98.5 55q-63 0 -108.5 -44.5t-64 -101t-18.5 -113.5z" />
<glyph unicode="q" horiz-adv-x="591" d="M26 231q0 60 18 119.5t51 109.5t84.5 81.5t112.5 31.5q49 0 93 -24.5t60 -68.5l6 54q3 39 42 39q32 0 32 -33l-77 -737q-3 -33 -40 -33q-34 0 -34 27l30 290q-75 -100 -174 -100q-100 0 -152 69.5t-52 174.5zM102 237q0 -78 34 -130t99 -52q60 0 105.5 44.5t66 102.5 t20.5 113q0 86 -41 136t-100 50q-45 0 -82 -27t-58 -68.5t-32.5 -85.5t-11.5 -83z" />
<glyph unicode="r" horiz-adv-x="404" d="M3 31l52 493q3 39 40 39q33 0 33 -33l-5 -54q31 47 81 72t104 25q35 0 51.5 -12.5t16.5 -30.5q-2 -18 -14 -30t-29 -12q-13 0 -31 3.5t-36 3.5q-51 0 -101 -44.5t-56 -100.5l-33 -314q-3 -36 -40 -36q-33 0 -33 31z" />
<glyph unicode="s" horiz-adv-x="518" d="M15 71q0 19 10.5 33.5t28.5 14.5q14 0 28 -11q62 -43 133 -43q48 0 86 20.5t43 64.5q0 34 -28 55t-75 38q-37 14 -55 21.5t-48 22.5t-44 28.5t-26 34.5t-12 45q0 87 59 133t161 46q87 0 151 -36q15 -9 15 -29q-1 -20 -12 -30.5t-27 -10.5t-60.5 16t-77.5 16 q-50 0 -87 -21t-42 -66q5 -28 28.5 -46t65 -32.5t49.5 -18.5q71 -29 110.5 -64.5t39.5 -94.5q-9 -85 -74.5 -126.5t-150.5 -41.5q-92 0 -178 59q-11 8 -11 23z" />
<glyph unicode="t" horiz-adv-x="373" d="M54 515q3 38 35 38h37l8 82q4 36 40 36q33 0 33 -29l-8 -89h88q35 0 35 -29q-3 -39 -41 -39h-90q-35 -335 -35 -356q0 -37 13.5 -53.5t50.5 -16.5q40 0 40 -27v-6q-3 -35 -47 -35q-72 0 -101 33.5t-29 101.5q0 25 36 360h-32q-33 0 -33 29z" />
<glyph unicode="u" horiz-adv-x="535" d="M21 169q0 26 34 354q4 37 40 37q33 0 33 -37q-31 -309 -31 -329q0 -77 30 -105.5t81 -28.5q62 0 115.5 59t64.5 158l26 250q3 39 38 39q32 0 32 -31l-54 -516q-3 -33 -39 -33q-34 0 -34 27l7 74q-75 -104 -173 -104q-73 0 -121.5 46t-48.5 140z" />
<glyph unicode="v" horiz-adv-x="494" d="M54 521q5 35 41 35q29 0 38 -44l85 -382l167 383q19 43 50 43t31 -29q0 -12 -4 -22l-213 -475q-13 -30 -47 -30q-30 0 -37 30l-110 474q-1 6 -1 17z" />
<glyph unicode="w" horiz-adv-x="854" d="M54 513q3 42 41 42q30 0 39 -31l83 -399l176 394q15 35 49 35q16 0 30.5 -9.5t16.5 -25.5l87 -390l164 396q13 31 45 31q30 0 30 -28q0 -15 -9 -35q0 -9 -198 -455q-16 -37 -48 -37q-30 0 -39 40l-93 393l-171 -396q-17 -38 -51 -38q-37 0 -46 41q-106 459 -106 472z" />
<glyph unicode="x" horiz-adv-x="536" d="M3 28q1 23 21 48l191 229l-125 184q-8 14 -8 26q1 17 13.5 28t28.5 11q24 0 36 -22l100 -174l147 175q16 22 40 22q15 0 25 -9t10 -23q-1 -18 -15 -33l-168 -193l144 -217q14 -21 14 -43q-3 -37 -35 -37q-28 0 -47 31l-125 204l-175 -205q-25 -28 -46 -28q-26 0 -26 26z " />
<glyph unicode="y" horiz-adv-x="507" d="M-21 -209q3 37 47 37q24 0 45 13.5t34.5 29.5t27.5 46t19.5 45t15.5 45l-112 486q-2 14 -2 18q3 43 39 43q31 0 39 -35l89 -408l181 413q13 31 45 31t32 -29q-1 -21 -5 -30l-230 -495q-54 -116 -81.5 -160.5t-65.5 -66.5q-34 -14 -78 -14q-40 0 -40 31z" />
<glyph unicode="z" horiz-adv-x="513" d="M3 32v4q3 17 23 42l323 405h-249q-33 0 -33 32q1 23 11 31t30 8h305q41 0 41 -26q-1 -22 -26 -53l-323 -405h281q33 0 33 -29q-1 -23 -10.5 -32t-29.5 -9h-321q-55 0 -55 32z" />
<glyph unicode="{" horiz-adv-x="376" d="M36 351q1 5 2.5 9t5.5 7t6.5 5.5t9.5 5t9.5 3.5t10.5 3.5t10 3.5q56 22 71 156q4 44 5 84q7 71 44.5 96.5t102.5 25.5q12 0 20.5 -8.5t8.5 -19.5q-3 -29 -46 -29q-18 0 -30.5 -7.5t-19 -18t-10.5 -28.5t-4.5 -32t-1.5 -36.5t-2 -33.5q-15 -142 -104 -189q67 -25 67 -129 q0 -29 -7 -80.5t-7 -76.5q0 -58 57 -61q30 -1 30 -22v-4q-3 -29 -35 -29q-127 0 -127 91q0 31 9.5 89.5t9.5 87.5q0 84 -38 104q-2 0 -10.5 2t-11.5 3t-9.5 3.5t-8.5 5t-4.5 7.5t-2.5 12z" />
<glyph unicode="|" horiz-adv-x="182" d="M1 16l80 758q4 43 41 43q32 0 32 -34l-80 -764q-4 -37 -40 -37q-33 0 -33 34z" />
<glyph unicode="}" horiz-adv-x="376" d="M-2 -25q3 25 35 26q24 1 40.5 12t23.5 32.5t10 38t4 46t2 37.5q16 151 102 181q-66 39 -66 146q0 30 8 76t8 66q0 57 -50 57q-40 0 -40 23q2 14 12 24t23 10q60 0 92 -21t32 -79q0 -28 -8.5 -80.5t-8.5 -78.5q0 -85 40 -103q2 -1 9 -3.5t9.5 -3.5t8 -3.5t8 -5t6 -5.5 t4.5 -7t1 -9q0 -7 -3 -12t-6 -7.5t-10 -5t-10.5 -3.5t-12 -2.5t-11.5 -2.5q-22 -12 -36 -35t-21 -55.5t-9.5 -58.5t-4.5 -62.5t-3 -48.5q-5 -51 -37 -81.5t-113 -30.5q-28 0 -28 24v5z" />
<glyph unicode="~" horiz-adv-x="598" d="M23 220q4 40 54 82t95 42t111.5 -38t91.5 -38q23 0 41 19t35.5 37.5t38.5 18.5q31 0 31 -35q0 -42 -58.5 -82t-101.5 -40q-40 0 -101.5 37.5t-94.5 37.5q-30 0 -61 -36q-33 -39 -52 -39q-29 0 -29 34z" />
<glyph unicode="&#xa3;" horiz-adv-x="661" d="M40 33q3 24 39 59q55 52 84 100t29 103q0 23 -5 53h-114q-33 0 -33 28q3 45 41 45h90q-39 66 -39 132q0 94 71.5 147t164.5 53q91 0 157.5 -49.5t66.5 -136.5q-2 -17 -13.5 -29t-26.5 -12q-26 0 -36 31q-2 57 -47.5 90t-105.5 33q-63 0 -103.5 -37t-40.5 -96 q0 -60 33 -126h134q32 0 32 -31q-4 -42 -40 -42h-115q8 -29 8 -63q0 -114 -121 -209h372q33 0 33 -30q-3 -44 -40 -44h-437q-38 0 -38 31z" />
<glyph unicode="&#xa4;" horiz-adv-x="786" d="M39 39q2 24 35 49l106 79q-7 24 -7 58q0 69 33 128l-96 84q-24 22 -24 49q3 27 35 27q17 0 37 -17l94 -87q62 51 140 51q74 0 127 -48l110 84q21 17 39 17q31 0 31 -27q-3 -25 -36 -49l-105 -78q17 -39 17 -79q0 -61 -30 -121l82 -71q25 -23 25 -49q-1 -13 -12 -20 t-24 -7q-20 0 -36 17l-79 71q-64 -61 -150 -61q-90 0 -141 67l-101 -77q-21 -17 -40 -17q-30 0 -30 27zM238 230q0 -61 34.5 -95t84.5 -34q65 0 108.5 50.5t43.5 120.5q0 59 -36.5 93t-86.5 34q-64 0 -106 -49.5t-42 -119.5z" />
<glyph unicode="&#xa5;" horiz-adv-x="601" d="M52 438q2 20 15 32t33 12h76l-97 211q-4 9 -4 20q1 19 12 30t25 11q18 0 29 -21l149 -304l213 304q13 21 36 21q29 0 29 -24q0 -17 -13 -37l-147 -211h81q39 0 39 -31q-3 -44 -47 -44h-126l-41 -59l-4 -41h130q40 0 40 -33q-4 -42 -48 -42h-130l-21 -197q-5 -42 -41 -42 q-34 0 -34 34l21 205h-130q-39 0 -39 30q2 20 14.5 32.5t32.5 12.5h130l4 41l-28 59h-119q-40 0 -40 31z" />
<glyph unicode="&#xa6;" horiz-adv-x="182" d="M3 31l34 329q2 21 13.5 33.5t27.5 12.5q33 0 33 -31l-35 -339q-3 -36 -40 -36q-33 0 -33 31zM50 472l32 309q2 21 13 33.5t27 12.5q33 0 33 -32l-32 -315q-4 -37 -41 -37q-32 0 -32 29z" />
<glyph unicode="&#xa7;" horiz-adv-x="522" d="M29 12v4q2 17 13.5 27t26.5 10q12 0 21 -6q43 -26 118 -26q115 0 123 78q0 10 -3.5 18.5t-12.5 16.5t-16 13.5t-23.5 13t-25 11.5t-30 12.5t-29.5 11.5q-150 60 -150 152q0 25 13 45.5t36 20.5q16 0 28 -12t12 -30q0 -37 29.5 -62.5t71 -41.5t83.5 -32.5t71.5 -45.5 t29.5 -69q0 -83 -67.5 -131t-152.5 -48q-82 0 -150 39q-16 8 -16 31zM66 585q0 83 67.5 131t152.5 48q82 0 151 -39q15 -8 15 -31v-4q-1 -17 -13 -27t-27 -10q-12 0 -21 6q-43 26 -118 26q-115 0 -123 -78q0 -10 3.5 -18.5t12.5 -16.5t16 -13.5t23.5 -13t25 -11.5t30 -12.5 t29.5 -11.5q150 -60 150 -152q0 -25 -13 -45.5t-36 -20.5q-16 0 -28 12t-12 30v14q0 33 -29.5 56t-71 37.5t-83.5 30.5t-71.5 44t-29.5 69z" />
<glyph unicode="&#xa8;" horiz-adv-x="395" d="M68 644q2 25 18 40.5t37 15.5q19 0 32 -12.5t13 -31.5q-2 -25 -18 -40.5t-37 -15.5q-19 0 -32 12.5t-13 31.5zM268 644q2 25 18 40.5t37 15.5q19 0 32 -12.5t13 -31.5q-2 -25 -18 -40.5t-37 -15.5q-19 0 -32 12.5t-13 31.5z" />
<glyph unicode="&#xa9;" horiz-adv-x="867" d="M35 317q0 180 122 302t298 122q153 0 246 -92.5t93 -239.5q0 -118 -58 -215.5t-154 -152t-208 -54.5q-153 0 -246 91.5t-93 238.5zM106 324q0 -119 76.5 -194t200.5 -75q145 0 240.5 103.5t95.5 240.5q0 121 -74 198t-198 77q-146 0 -243.5 -105.5t-97.5 -244.5zM205 338 q0 103 72.5 184t172.5 81q44 0 93 -22q24 -14 24 -30q-2 -15 -11 -25.5t-21 -10.5q-4 0 -8 2q-42 19 -87 19q-76 0 -122 -59.5t-46 -133.5q0 -60 34.5 -104t90.5 -44q36 0 60 9q35 11 37 11q27 0 27 -24q-1 -22 -19 -35q-35 -26 -104 -26q-89 0 -141 59.5t-52 148.5z" />
<glyph unicode="&#xab;" horiz-adv-x="441" d="M28 270q1 17 17 37l114 163q9 12 24 12q14 0 24.5 -10t10.5 -23q0 -10 -6 -20l-114 -155q18 -35 85 -176q0 -2 0.5 -4t0.5 -3q-1 -10 -15.5 -18.5t-28.5 -8.5q-16 0 -23 12l-79 163q-10 19 -10 31zM184 269v4q1 14 15 34l117 163q9 11 26 11q37 0 37 -27v-4 q-1 -10 -9 -21l-116 -155q3 -4 86 -176q1 -2 1 -7q-1 -10 -15.5 -18.5t-28.5 -8.5q-15 0 -23 12l-82 163q-8 18 -8 30z" />
<glyph unicode="&#xac;" horiz-adv-x="657" d="M29 269v7q2 16 15 27.5t32 11.5h463q37 0 37 -38v-9l-16 -148q-4 -43 -40 -43q-15 0 -25.5 10t-10.5 27v6l13 119h-429q-39 0 -39 30z" />
<glyph unicode="&#xad;" horiz-adv-x="32767" />
<glyph unicode="&#xae;" horiz-adv-x="866" d="M37 328q0 178 124 300t294 122q152 0 245 -92.5t93 -239.5q0 -118 -57 -215.5t-152.5 -152.5t-207.5 -55q-152 0 -245.5 93t-93.5 240zM110 335q0 -121 73.5 -197.5t203.5 -76.5q147 0 240 104.5t93 244.5q0 120 -74 196t-198 76q-145 0 -241.5 -104.5t-96.5 -242.5z M243 174l40 385q2 24 11.5 32.5t33.5 8.5h147q54 0 92 -32t38 -82q-10 -103 -124 -133q9 -16 23 -46.5t21 -42.5q41 -77 41 -85q0 -31 -41 -31q-25 0 -37 31l-80 174h-81l-19 -174q-3 -31 -37 -31q-28 0 -28 26zM333 410h114q36 0 59 18.5t25 46.5q0 31 -18.5 49.5 t-51.5 18.5h-114z" />
<glyph unicode="&#xb0;" horiz-adv-x="305" d="M72 689q0 46 33 79t78 33q41 0 65.5 -25t24.5 -64q0 -46 -33.5 -79t-77.5 -33q-40 0 -65 25t-25 64zM123 693q0 -19 11.5 -31t33.5 -12q21 0 36.5 16t17.5 39q0 19 -11.5 32t-32.5 13q-23 0 -38 -15.5t-17 -41.5z" />
<glyph unicode="&#xb1;" d="M34 33q2 19 15 31t33 12h447q39 0 39 -31q-3 -44 -46 -44h-447q-41 0 -41 32zM66 352q0 23 12 35.5t34 12.5h182l16 159q4 39 42 39q16 0 27.5 -9.5t11.5 -24.5l-16 -164h182q21 0 33 -10t12 -26v-5q-4 -38 -54 -38h-182l-18 -169q-1 -17 -14.5 -27.5t-31.5 -10.5 q-35 0 -35 32v6l18 169h-182q-37 0 -37 31z" />
<glyph unicode="&#xb2;" horiz-adv-x="325" d="M14 376v2q0 7 9 18l156 185q29 36 29 70q0 24 -17.5 38t-41.5 14q-27 0 -47.5 -17.5t-24.5 -49.5q-1 -8 -7 -16t-15 -8q-19 0 -19 24v3q5 46 40.5 74.5t78.5 28.5q38 0 66 -23.5t28 -61.5q0 -50 -46 -104l-131 -155h137q17 0 17 -16v-3q-2 -19 -21 -19h-165q-26 0 -26 16 z" />
<glyph unicode="&#xb3;" horiz-adv-x="305" d="M16 434q3 20 19 20q14 0 18 -13q15 -47 60 -47q34 0 57.5 23t23.5 56q0 24 -13 42.5t-39 22.5q-2 0 -15 0.5t-14 0.5q-21 0 -21 16v2q3 18 25 18q2 0 14.5 0.5t13.5 0.5q24 5 38 28.5t14 48.5q0 24 -14 38.5t-40 14.5q-22 0 -39 -14.5t-19 -35.5q-2 -25 -22 -25 q-18 0 -18 21q3 36 33.5 63.5t70.5 27.5q42 0 65.5 -24t23.5 -62q0 -54 -50 -95q46 -32 46 -86q0 -52 -36 -87t-85 -35q-38 0 -67.5 23t-29.5 57z" />
<glyph unicode="&#xb5;" horiz-adv-x="538" d="M-21 -207l74 725q4 37 42 37q33 0 33 -29q-21 -210 -33 -320q-3 -27 -3 -30q0 -48 31.5 -77.5t79.5 -29.5q66 0 111.5 46.5t53.5 115.5l30 287q4 37 42 37q33 0 33 -29l-50 -483q-4 -43 -41 -43q-34 0 -34 32l2 28q1 5 1 13q-62 -81 -165 -81q-31 0 -61.5 15t-45.5 39 q-4 -42 -13 -124t-13 -121q-4 -37 -42 -37q-32 0 -32 29z" />
<glyph unicode="&#xb6;" horiz-adv-x="560" d="M57 542q0 104 76 158t191 54h205q29 -2 29 -33q-2 -14 -12.5 -23.5t-23.5 -9.5h-48l-69 -654q-2 -14 -12.5 -24t-24.5 -10q-13 0 -21.5 9t-8.5 21l69 658h-75l-69 -654q-2 -14 -12.5 -24t-24.5 -10q-13 0 -21 9t-8 21l38 368q-83 0 -130.5 40t-47.5 104z" />
<glyph unicode="&#xb7;" horiz-adv-x="214" d="M36 344q2 25 18 40.5t38 15.5q19 0 31.5 -12.5t12.5 -31.5q-2 -25 -18 -40.5t-37 -15.5q-19 0 -32 12.5t-13 31.5z" />
<glyph unicode="&#xbb;" horiz-adv-x="443" d="M9 84q0 8 4 12l122 178l-85 175q-2 4 -2 7q1 11 13.5 20t27.5 9q19 0 27 -15l80 -163q9 -18 9 -31q-1 -15 -16 -37l-115 -163q-6 -11 -28 -11q-37 0 -37 19zM164 83q0 9 5 13l123 178l-83 155q-7 14 -7 27q3 29 38 29q22 0 30 -15l84 -163q8 -18 8 -30v-4q-1 -14 -15 -34 l-119 -163q-6 -11 -30 -11q-34 0 -34 18z" />
<glyph unicode="&#xbd;" horiz-adv-x="827" d="M20 672q2 28 31 35q112 31 118 31q18 0 22 -15l2 -12q0 -4 -2 -26l-49 -471q-5 -32 -33 -32t-28 28l48 463l-76 -21q-4 -1 -10 -1q-23 0 -23 21zM124 18q0 3 4 17l346 698q14 30 38 30q10 0 16.5 -7t6.5 -19q0 -13 -7 -27l-350 -694q-10 -21 -31 -21q-10 0 -16.5 6 t-6.5 17zM444 24v3q2 12 14 28l233 277q44 53 44 104q0 36 -26.5 57.5t-62.5 21.5q-39 0 -70.5 -26.5t-36.5 -73.5q-1 -13 -10 -24.5t-24 -11.5q-13 0 -20 11t-7 25v3q7 69 60 112t117 43q58 0 100 -35.5t42 -91.5q0 -76 -69 -157l-197 -232h206q26 0 26 -24v-4 q-5 -29 -32 -29h-248q-39 0 -39 24z" />
<glyph unicode="&#x2000;" horiz-adv-x="420" />
<glyph unicode="&#x2001;" horiz-adv-x="840" />
<glyph unicode="&#x2002;" horiz-adv-x="420" />
<glyph unicode="&#x2003;" horiz-adv-x="840" />
<glyph unicode="&#x2004;" horiz-adv-x="280" />
<glyph unicode="&#x2005;" horiz-adv-x="210" />
<glyph unicode="&#x2006;" horiz-adv-x="140" />
<glyph unicode="&#x2007;" horiz-adv-x="140" />
<glyph unicode="&#x2008;" horiz-adv-x="105" />
<glyph unicode="&#x2009;" horiz-adv-x="168" />
<glyph unicode="&#x200a;" horiz-adv-x="46" />
<glyph unicode="&#x2010;" horiz-adv-x="387" d="M32 272q1 19 14.5 31t33.5 12h206q39 0 39 -34q-4 -42 -47 -42h-206q-40 0 -40 33z" />
<glyph unicode="&#x2011;" horiz-adv-x="387" d="M32 272q1 19 14.5 31t33.5 12h206q39 0 39 -34q-4 -42 -47 -42h-206q-40 0 -40 33z" />
<glyph unicode="&#x2012;" horiz-adv-x="387" d="M32 272q1 19 14.5 31t33.5 12h206q39 0 39 -34q-4 -42 -47 -42h-206q-40 0 -40 33z" />
<glyph unicode="&#x2013;" horiz-adv-x="701" d="M29 269q2 21 14.5 33.5t32.5 12.5h506q39 0 39 -34q-4 -42 -47 -42h-506q-39 0 -39 30z" />
<glyph unicode="&#x2014;" horiz-adv-x="899" d="M29 269q2 21 14.5 33.5t32.5 12.5h704q39 0 39 -34q-4 -42 -47 -42h-704q-39 0 -39 30z" />
<glyph unicode="&#x2018;" horiz-adv-x="257" d="M75 722q1 14 14.5 23.5t28.5 9.5q21 0 29 -20l56 -176q3 -4 3 -12q-1 -13 -15 -24t-27 -11q-27 0 -37 35l-50 163q-2 8 -2 12z" />
<glyph unicode="&#x2019;" horiz-adv-x="257" d="M57 544q0 8 5 15l94 176q11 20 33 20q14 0 24.5 -8.5t10.5 -21.5q0 -10 -4 -15l-84 -163q-19 -35 -45 -35q-12 0 -23 10t-11 22z" />
<glyph unicode="&#x201a;" horiz-adv-x="257" d="M-10 -102q1 10 4 15l83 163q17 32 47 32q12 0 22 -8.5t10 -20.5q0 -10 -5 -15l-93 -176q-12 -20 -33 -20q-14 0 -24.5 8.5t-10.5 21.5z" />
<glyph unicode="&#x201c;" horiz-adv-x="420" d="M75 722q1 14 14.5 23.5t28.5 9.5q21 0 29 -20l56 -176q3 -4 3 -12q-1 -13 -15 -24t-27 -11q-27 0 -37 35l-50 163q-2 8 -2 12zM245 722q1 14 14.5 23.5t28.5 9.5q21 0 29 -20l56 -176q3 -4 3 -12q-1 -13 -15 -24t-27 -11q-27 0 -37 35l-50 163q-2 8 -2 12z" />
<glyph unicode="&#x201d;" horiz-adv-x="420" d="M57 544q0 8 5 15l94 176q11 20 33 20q14 0 24.5 -8.5t10.5 -21.5q0 -10 -4 -15l-84 -163q-19 -35 -45 -35q-12 0 -23 10t-11 22zM227 544q0 8 5 15l94 176q11 20 33 20q14 0 24.5 -8.5t10.5 -21.5q0 -10 -4 -15l-84 -163q-19 -35 -45 -35q-12 0 -23 10t-11 22z" />
<glyph unicode="&#x201e;" horiz-adv-x="419" d="M-10 -102q1 10 4 15l83 163q7 13 20.5 23t27.5 10q12 0 21.5 -9t9.5 -21q0 -10 -5 -15l-93 -176q-12 -20 -33 -20q-14 0 -24.5 8.5t-10.5 21.5zM149 -102q1 10 4 15l84 163q17 32 48 32q12 0 21.5 -8.5t9.5 -20.5q0 -10 -5 -15l-93 -176q-12 -20 -33 -20q-15 0 -25.5 8.5 t-10.5 21.5z" />
<glyph unicode="&#x2022;" horiz-adv-x="567" d="M92 323q0 82 56.5 138.5t134.5 56.5q70 0 112.5 -43t42.5 -110q0 -81 -57.5 -137.5t-134.5 -56.5q-69 0 -111.5 42.5t-42.5 109.5z" />
<glyph unicode="&#x2026;" horiz-adv-x="539" d="M5 44q2 25 18 40.5t37 15.5q19 0 32 -12.5t13 -31.5q-2 -25 -18 -40.5t-37 -15.5q-19 0 -32 12.5t-13 31.5zM175 44q2 25 18 40.5t37 15.5q19 0 32 -12.5t13 -31.5q-2 -25 -18 -40.5t-37 -15.5q-19 0 -32 12.5t-13 31.5zM335 44q2 25 18 40.5t37 15.5q19 0 32 -12.5 t13 -31.5q-2 -25 -18 -40.5t-37 -15.5q-19 0 -32 12.5t-13 31.5z" />
<glyph unicode="&#x202f;" horiz-adv-x="168" />
<glyph unicode="&#x2039;" horiz-adv-x="665" d="M29 272v5q3 29 39 45l478 212q19 8 31 8q32 0 32 -25v-5q-3 -27 -38 -43l-433 -198l383 -196q32 -17 32 -42v-4q-3 -29 -37 -29q-16 0 -37 9l-420 221q-30 16 -30 42z" />
<glyph unicode="&#x203a;" horiz-adv-x="665" d="M4 31v5q3 27 37 43l424 188l-383 206q-28 15 -28 37v5q3 31 38 31q11 0 23 -5l430 -222q39 -20 39 -44q-3 -30 -57 -56l-468 -213q-12 -5 -22 -5q-33 0 -33 30z" />
<glyph unicode="&#x205f;" horiz-adv-x="210" />
<glyph unicode="&#x20ac;" horiz-adv-x="765" d="M34 288q3 42 40 42h47q0 54 7 78h-46q-33 0 -33 30q3 40 41 40h56q40 125 135.5 207t230.5 82q123 0 202 -82q16 -15 16 -33q-2 -20 -13.5 -31.5t-26.5 -11.5q-20 0 -30 12q-57 63 -160 63q-98 0 -167 -57.5t-102 -148.5h348q35 0 35 -31q-3 -39 -43 -39h-359 q-6 -34 -6 -78h256q35 0 35 -29q-3 -41 -42 -41h-241q17 -86 74 -139.5t149 -53.5q95 0 171 68q12 11 26 11q32 0 32 -32q-3 -29 -19 -42q-105 -83 -223 -83q-130 0 -206.5 76t-92.5 195h-58q-33 0 -33 28z" />
<glyph unicode="&#x2122;" horiz-adv-x="691" d="M77 734q1 20 20 20h185q17 0 17 -15q-1 -21 -21 -21h-74l-33 -317q-3 -25 -21 -25q-16 0 -16 18v7l33 317h-74q-16 0 -16 16zM223 394l85 336q7 31 34 31q28 0 33 -27l51 -288l117 288q12 27 37 27q27 0 28 -31l16 -327q-4 -22 -19 -22q-17 0 -19 20l-13 309l-131 -309 q-10 -22 -23 -22q-14 0 -18 22l-63 309l-77 -309q-6 -21 -24 -21q-14 0 -14 14z" />
<glyph unicode="&#xe000;" horiz-adv-x="555" d="M0 0v555h555v-555h-555z" />
</font>
</defs>
</svg>
