<?xml version="1.0" standalone="no"?>
<!DOCTYPE svg PUBLIC "-//W3C//DTD SVG 1.1//EN" "http://www.w3.org/Graphics/SVG/1.1/DTD/svg11.dtd" >
<svg xmlns="http://www.w3.org/2000/svg">
<metadata></metadata>
<defs>
<font id="karatulanormal" horiz-adv-x="624" >
<font-face units-per-em="1000" ascent="800" descent="-200" />
<missing-glyph horiz-adv-x="738" />
<glyph horiz-adv-x="1000" />
<glyph horiz-adv-x="1000" />
<glyph unicode="&#xd;" horiz-adv-x="738" />
<glyph unicode=" "  horiz-adv-x="738" />
<glyph unicode="&#x09;" horiz-adv-x="738" />
<glyph unicode="&#xa0;" horiz-adv-x="738" />
<glyph unicode="!" horiz-adv-x="392" d="M253 723q0 -3 -2.5 -17.5t-2.5 -17.5v-403q0 -15 -13 -37q-14 -26 -30 -26q-19 0 -33 29q-10 21 -10 35v401q0 31 7 61q13 49 41 49q20 0 33 -28q10 -22 10 -46zM261 78q0 -28 -11 -46q-23 -38 -36 -66q-8 -19 -29 -19t-34 27q-11 22 -11 44q0 31 28 80t50 49 q25 0 36 -31q7 -19 7 -38z" />
<glyph unicode="&#x22;" horiz-adv-x="793" d="M393 709q0 -12 -7 -36q-8 -27 -16 -35q-19 -14 -53 -49q-31 -44 -96 -128q-10 -12 -29 -12q-27 0 -43 39q-11 29 -11 50q0 57 73 141q0 1 37 53q24 35 55 58q12 8 31 8q29 0 46 -36q13 -27 13 -53zM709 706q0 -12 -7 -36q-8 -27 -15 -35q-19 -14 -54 -49 q-31 -44 -95 -128q-10 -12 -30 -12q-26 0 -42 39q-12 29 -12 50q0 57 73 141q1 1 37 53q25 35 55 58q12 8 31 8q30 0 47 -36q12 -27 12 -53z" />
<glyph unicode="#" horiz-adv-x="840" d="M753 331q0 -56 -30 -65q-26 -8 -87 -8q3 -40 14 -123q10 -77 10 -78q0 -26 -10 -50q-12 -31 -34 -31q-11 0 -23 13t-14 25q-1 31 -7 91q-12 66 -20 139h-17q-16 0 -81 -18q-59 -17 -75 -24q3 -50 11 -140q4 -7 9 -18q7 -21 7 -33q0 -21 -11 -42q-13 -27 -33 -27 q-44 0 -55 115q-2 41 -12 110q-24 -11 -65 -30q-6 -3 -24 -16q-11 -7 -20 -7q-20 0 -32 25q-11 21 -11 43q0 46 51 87q8 1 24 5q20 7 71 35q0 47 -7 81q-20 -11 -52 -22q-18 -7 -32 -16q-10 -8 -20.5 -15.5t-22.5 -7.5q-41 0 -41 66q0 57 53 85q53 23 106 47q-2 27 -11 101 q-7 66 -7 69q0 23 9 44q12 28 33 28q28 0 39 -45q1 -3 7 -54q3 -38 14 -116q84 26 147 31q-14 156 -14 181q0 23 11 45q12 27 32 27q15 0 26 -14.5t13 -29.5q3 -27 16 -203q91 -5 114 -13q46 -17 46 -74q0 -22 -11 -44q-13 -28 -34 -28q-4 0 -13 6q-12 8 -16 9q-14 6 -34 6 h-31q-2 -1 -2 -5q0 -11 13 -56q90 8 87 8q21 0 35 -24q11 -21 11 -45zM533 380q-5 20 -11 71h-19q-25 0 -137 -33q6 -70 6 -76q49 15 161 38z" />
<glyph unicode="$" horiz-adv-x="794" d="M724 600q0 -20 -10 -42q-12 -28 -32 -28q-3 0 -22 9t-26 12q-21 6 -51 6q-56 0 -108 -18q3 -50 11 -153q13 3 39 3q72 0 120 -31q62 -39 62 -118q0 -45 -31 -96q-36 -58 -88 -73q-1 0 -31 -11q-12 -3 -36 -15q4 -18 -7 -50q-14 -39 -38 -39q-20 0 -33 28q-13 24 -11 44 q-20 -3 -46 -3q-76 0 -76 76q0 22 11 44q14 29 36 29q3 0 14 -4t15 -4q3 0 11 1t13 1q0 41 -3 59q-28 -9 -84 -25q-69 -17 -111 -17q-55 0 -87 42q-27 36 -27 86q0 31 12 64q13 37 47 80q61 78 132 132q35 20 98 67l4 104q8 100 47 100q17 0 29 -20.5t13 -38.5q0 1 -4 -61 q0 -17 -4 -51l110 9q142 0 142 -98zM602 234q-5 3 -34 8.5t-41 5.5q-4 0 -15.5 -1.5t-16.5 -1.5q4 -46 3 -57q66 15 103 39q1 2 1 7zM398 370q-2 35 -9 132q-48 -28 -104 -78t-85 -95h42q6 -1 156 41z" />
<glyph unicode="%" horiz-adv-x="942" d="M726 752q0 -24 -7 -37q-9 -16 -90 -173q-54 -105 -103 -181.5t-149 -231.5q-21 -40 -62 -118q-7 -11 -24 -11q-21 0 -34 28q-10 23 -10 49q0 44 54 128q69 104 198 314q49 96 153 286q10 17 31 17t33 -26q10 -21 10 -44zM872 199q0 -68 -49 -144q-56 -88 -132 -88 q-68 0 -101 75q-24 52 -24 116q0 46 19 113q27 97 73 97q4 0 19 -7t19 -7q3 0 18.5 3t19.5 3q64 0 104 -56q34 -47 34 -105zM415 653q0 -77 -65 -149q-67 -75 -147 -75q-57 0 -86 54q-21 40 -21 89q0 63 34 142q46 105 117 105q19 0 24 -4q7 -9 22 -23q14 -3 50 -15 q25 -11 45.5 -39t22.5 -52q4 -34 4 -33zM781 200q-17 17 -47 17q-3 0 -22 -4t-22 -4l-24 8q-12 -41 -12 -59q0 -48 36 -48q28 0 58.5 29.5t32.5 60.5zM316 642q-12 6 -28 6h-10q-7 -1 -10 -1q-25 0 -44 18q-40 -60 -40 -81v-9q5 -3 22 -3q29 0 60 20t50 50z" />
<glyph unicode="&#x26;" horiz-adv-x="718" d="M647 59q0 -20 -9 -41q-12 -27 -32 -27q-28 0 -46 64q-3 16 -16 51q-55 -37 -87 -37q-33 0 -53 48q-14 33 -16 60q-3 36 7 75q-19 -2 -62 -7q-38 -4 -41 -4q-86 0 -132 49t-46 133q0 54 25 121q16 42 50 83q37 45 77 65q107 56 196 56q3 0 16.5 -1.5t16.5 -1.5 q5 0 16.5 45.5t36.5 45.5q20 0 32 -26q10 -21 10 -44q0 -3 -4 -22q-5 -22 -6 -29q2 -16 4 -46q-1 -27 -8 -52q-11 -41 -36 -41q-10 0 -21 13l-14 18q-8 6 -44 6q-67 0 -137 -32q-86 -40 -115 -108q-12 -28 -12 -47q0 -50 95 -50q42 0 111.5 17t70.5 17q43 0 43 -68 q0 -23 -15 -55q-21 -42 -28 -71q-2 -2 2 -6q8 2 35 19q23 14 33 14q26 0 37 -3q20 -7 36 -65q7 -28 15 -57q15 -54 15 -59z" />
<glyph unicode="'" horiz-adv-x="441" d="M361 709q0 -12 -7 -36q-8 -27 -16 -35q-19 -14 -53 -49q-31 -44 -96 -128q-10 -12 -29 -12q-27 0 -43 39q-11 29 -11 50q0 57 73 141q0 1 37 53q24 35 55 58q12 8 31 8q29 0 46 -36q13 -27 13 -53z" />
<glyph unicode="(" horiz-adv-x="485" d="M395 73q0 -23 -12 -46q-15 -29 -40 -29q-15 0 -28 16q-17 23 -21 26q-62 46 -95 117q-22 47 -37 123q-6 29 -6 95q0 58 11 134q9 66 61 167q63 124 121 124q20 0 33 -23q10 -20 10 -42q0 -8 -5.5 -27t-10.5 -24q-13 -7 -33 -19q-31 -26 -52 -65q-5 -10 -27 -63 q-29 -73 -29 -172q0 -56 23 -115q29 -73 78 -96q4 -7 15 -16q6 -1 20 -7q24 -16 24 -58z" />
<glyph unicode=")" horiz-adv-x="493" d="M400 326q0 -116 -31 -201q-16 -42 -41 -72q-18 -20 -48 -44q-35 -28 -51 -28q-19 0 -31 25q-10 21 -10 42q0 15 8 37q10 28 24 33q65 23 87 97q12 38 12 110q0 45 -6 78q-26 144 -119 241q-15 7 -43.5 23t-28.5 62q0 17 10 39q13 30 33 30q19 0 64 -34q17 -14 36 -40 q135 -189 135 -398z" />
<glyph unicode="*" horiz-adv-x="708" d="M605 346q0 -18 -9 -40q-13 -29 -34 -29q-13 0 -19 6q-64 61 -165 115l-2 -2v-7q18 -5 27 -30q8 -19 8 -38q0 -25 -16 -50q-19 -31 -47 -31q-33 0 -47 60q-4 33 -7 66q-16 -23 -48 -76q-4 -14 -12 -44q-4 -12 -17 -22t-23 -10q-22 0 -35 26q-11 22 -11 47q0 23 6 39 q16 40 58 102l39 56q0 3 -29 27q-38 31 -47 39q-12 12 -18 38q-4 14 -4 24q0 18 10 39q14 28 34 28q8 0 16 -4q10 -10 34 -33q19 -16 62 -47q0 44 6 98q3 104 50 104q21 0 34 -27q9 -21 9 -39q0 -1 -5.5 -26.5t-5.5 -37.5q-3 -40 -3 -41q36 31 71 62q44 36 71 36 q22 0 35 -24q11 -20 11 -43q0 -50 -27 -64q-13 -3 -37 -15q-17 -11 -81 -69l116 -78q52 -42 52 -85z" />
<glyph unicode="+" horiz-adv-x="734" d="M622 418q0 -16 -11 -44q-14 -36 -32 -36h-134q-6 -6 -6 -24q0 -24 -1 -28q-3 -36 -6 -73q-11 -69 -47 -69q-48 0 -48 85q0 -2 1.5 29.5t1.5 67.5q-5 2 -36 -2q-23 -2 -74 -12q-46 -9 -48 -9q-24 0 -40 30q-12 25 -12 52q0 24 12.5 50.5t29.5 29.5q56 8 167 29 q-2 -9 -2 74q0 92 47 92q49 0 55 -163h140q20 0 33 -38q10 -27 10 -41z" />
<glyph unicode="," horiz-adv-x="550" d="M423 146q0 -24 -10 -46q-19 -42 -59 -91q-52 -65 -128 -147q-9 -10 -23 -10q-23 0 -37 33q-10 25 -10 44q0 11 6 32t13 29q33 37 98 109q11 13 38 50q13 19 25 39q26 35 42 35q21 0 34 -29q11 -24 11 -48z" />
<glyph unicode="-" d="M495 404q0 -24 -11 -47q-14 -26 -35 -26q-3 0 -7.5 1.5t-8.5 1.5q-47 0 -139 -21.5t-91 -21.5q-56 0 -56 74q0 55 30 71q22 4 63 14q129 33 201 33q25 0 41 -32q13 -25 13 -47z" />
<glyph unicode="." horiz-adv-x="422" d="M289 93q0 -22 -7 -38q-11 -14 -30 -46q-23 -47 -48 -47q-26 0 -38 33q-7 20 -7 42q0 23 4 34q2 6 33 57q6 11 24 31q12 10 24 10q21 0 34 -29q11 -23 11 -47z" />
<glyph unicode="/" horiz-adv-x="792" d="M693 732q0 -6 -5.5 -27t-8.5 -24q-43 -37 -84 -100q-31 -50 -63 -101q-9 -14 -47 -85q-41 -76 -137 -204q-20 -25 -59 -76l-44 -66q-41 -57 -56 -57q-20 0 -31 26q-10 20 -10 43q0 35 45 102q7 11 67 91q42 54 125 172q18 26 35 55l96 166q95 150 134 150q21 0 34 -27 q9 -20 9 -38z" />
<glyph unicode="0" horiz-adv-x="537" d="M458 487q0 -85 -29 -218q-31 -139 -64 -187q-18 -28 -37 -55q-29 -38 -55 -41t-22 -3q-81 0 -115 153q-20 89 -20 194q0 114 23 258q46 212 129 212q29 0 42.5 -16t42.5 -18q25 -2 57 -60q48 -85 48 -219zM373 483q0 87 -36 143q-11 2 -17 2q-17 0 -28.5 -9.5t-18.5 -9.5 t-16.5 7t-10.5 12q-18 -42 -31 -127q-14 -90 -14 -178q0 -53 10 -113q15 -85 40 -85q36 0 74 102q11 27 28 108q20 97 20 148z" />
<glyph unicode="1" horiz-adv-x="450" d="M295 725l-8 -55q-9 -58 -11 -86v-127q0 -106 5.5 -175t5.5 -130q0 -69 -2 -82q-8 -75 -45 -75q-20 0 -34 27q-12 23 -10 44q6 94 4 125q-2 24 -8 91q-5 59 -5 63v236v13q-7 5 -19 17q-12 18 -12 52q0 22 6 40t35 54q35 43 54 43q21 0 34 -28q10 -23 10 -47z" />
<glyph unicode="2" horiz-adv-x="722" d="M600 77q0 -20 -11 -43q-15 -30 -37 -30q-3 0 -23 3t-29 4q-67 7 -110 7q-83 0 -131.5 -14t-66.5 -14q-46 0 -46 71q0 36 9 49q21 27 65 71q53 54 71 75q71 81 124 164q70 110 70 170q0 64 -102 64q-38 0 -78 -16q-44 -17 -63 -45q-2 -7 -5 -19q-7 -24 -24 -34 q-7 -4 -17 -4q-23 0 -38 29q-12 24 -12 50q0 81 90 137q76 48 147 48q95 0 146 -62q46 -56 46 -144q0 -181 -210 -428q42 -4 130 -10q18 -1 37 -2q23 -2 42 -11q12 -6 20 -32q6 -20 6 -34z" />
<glyph unicode="3" horiz-adv-x="643" d="M533 675q0 -70 -66 -173q-19 -30 -122 -167q7 -2 23 -3q49 -4 78 -42q24 -34 24 -79q0 -160 -236 -203q-76 -13 -66 -13q-17 0 -29 23q-10 20 -10 39q0 14 5 32q7 24 20 27q47 10 154 36q33 9 76 49q-4 8 -42 8q-32 0 -43 -4q-22 -6 -64.5 -25t-44.5 -19q-18 0 -29 23 q-8 19 -8 40q0 38 34 83q37 39 107 120q71 92 84 110q55 76 75 127q-11 11 -62 11q-68 0 -153.5 -30l-85.5 -30q-19 0 -30 22q-10 19 -10 39q0 24 20.5 57t39.5 33q3 0 12 -4.5t11 -4.5t32 11q34 12 52 17q65 15 114 15q140 0 140 -125z" />
<glyph unicode="4" horiz-adv-x="703" d="M634 170q0 -22 -12 -46q-5 -11 -21 -23q2 -9 2 -28q0 -89 -39 -89q-42 0 -42 107q-1 4 -4 9q-16 0 -53.5 3t-39.5 3h-245q-37 0 -59.5 21t-22.5 58q0 29 29 88q22 42 43 84l54 104q31 62 52 116q24 64 33 101q5 17 13 48q3 14 6.5 28.5t14 24t22.5 9.5q21 0 32 -31 q7 -20 7 -38q0 -12 -19 -85q-24 -93 -75 -202q-23 -49 -98 -194q4 -4 9 -4h294v171q0 1 -4 99q-4 95 -4 99q0 111 42 111q13 0 24 -15t14 -29q2 -8 2 -23q0 -54 3.5 -161.5t3.5 -103.5v-143q11 -7 26 -23q12 -24 12 -46z" />
<glyph unicode="5" horiz-adv-x="656" d="M635 731q0 -67 -54 -67q-3 0 -59 1t-59 1q-179 0 -242 -17v-223q0 -20 -5 -75l1 -9q56 52 140 52q27 0 79 -13q48 -11 70 -30q44 -38 44 -108q0 -96 -114 -178q-101 -72 -187 -72q-26 0 -33 3q-31 16 -31 70q0 19 10 41q12 27 31 27q3 0 14 -5t14 -5q43 0 115 41t91 73 q-40 22 -103 22q-53 0 -94 -28q-21 -15 -54 -52q-24 -28 -37 -28q-41 0 -41 85q0 20 2.5 43t2.5 20q0 31 1.5 124t1.5 209q-39 16 -39 69q0 45 26 63q9 1 29 7q7 9 26 22q2 1 6 1q3 0 14 -5t16 -5h7q70 15 248 15q37 0 82 -2q20 0 54 -7q13 -5 21 -28q6 -18 6 -32z" />
<glyph unicode="6" horiz-adv-x="714" d="M644 319q0 -115 -124 -222q-114 -98 -209 -98q-61 0 -112 35q-58 40 -75 111q-8 33 -8 75q0 71 22 148q19 47 59 148q21 56 81 153q79 128 121 128q24 0 36.5 -21.5t12.5 -47.5q0 -17 -9 -36q-10 -25 -28 -25q-3 0 -4.5 1t-4.5 1q-11 0 -42 -44q-27 -37 -38 -59 q-70 -138 -81 -164q-50 -115 -50 -183q0 -14 5 -32q3 -8 33 -38h6q-3 21 10 40q51 80 143 158q105 87 171 87q47 0 69 -41q16 -31 16 -74zM563 311q-50 -3 -129 -68q-64 -52 -117 -118h15q44 0 135.5 71.5t95.5 114.5z" />
<glyph unicode="7" horiz-adv-x="620" d="M598 645q0 -57 -54 -172.5t-54 -109.5q0 -3 3 -8t4 -6q3 -12 3 -32q0 -65 -39 -65q-3 0 -11 4q-11 5 -16 6q-47 -64 -139 -195l-16 -44q-12 -31 -33 -31q-18 0 -29 24q-9 20 -9 41q0 78 97 188q-9 3 -38 -7q-32 -11 -42 -11q-40 0 -40 65q0 38 19 56q5 6 15 8t19 4 q59 19 116 29q11 2 44 3q54 100 61 112q38 75 59 132q-4 3 -7 5q-71 29 -147 29q-132 0 -200 -47q-8 -6 -24 -6q-19 0 -31 24q-9 19 -9 41q0 40 16 52q87 66 250 66q12 0 106 -15q126 -19 126 -140z" />
<glyph unicode="8" horiz-adv-x="643" d="M578 674q0 -47 -99 -191.5l-99 -144.5l13 -24q41 -72 41 -139q0 -57 -31 -112q-39 -70 -103 -70q-54 0 -85 59q-24 44 -24 89q0 41 23 96q5 13 39 83q-106 82 -121 96q-52 53 -52 113q0 64 45 122q38 48 120.5 97t135.5 49q73 0 73 -79q0 -23 -8 -41q-11 -23 -30 -23 q-3 0 -18 8.5t-17 8.5q-19 0 -44 -11q-80 -33 -148 -93q-25 -21 -25 -31q0 -6 147 -120q53 71 160 227q13 28 41 77q12 18 26 18q18 0 30 -24q10 -20 10 -40zM355 177q0 26 -34 71q-6 -10 -26 -48q-24 -46 -24 -58q0 -9 10 -15t19 -6q19 0 37 18t18 38z" />
<glyph unicode="9" horiz-adv-x="747" d="M664 623q0 -35 -36 -189q-3 -34 -10 -101q-7 -58 -19 -166q0 -46 -7 -132q-3 -14 -13 -26q-11 -15 -25 -15q-43 0 -43 118q0 6 14 160q-128 -130 -248 -130q-80 0 -125 56q-40 51 -40 126q0 121 86 257q95 148 224 196q64 23 88 23q28 0 57 -9q36 -11 48 -29 q7 -9 10.5 -28.5t7.5 -24.5q31 -36 31 -86zM569 646q-4 4 -11 10q-29 6 -46 6q-48 0 -125 -46q-81 -49 -107 -100q-9 -12 -23 -34t-35 -64q-8 -19 -15 -38q-10 -29 -10 -49q0 -27 29 -42q24 -12 51 -12q74 0 167 76t108 147q1 6 17 146z" />
<glyph unicode=":" horiz-adv-x="338" d="M228 93q0 -22 -7 -38q-11 -14 -30 -46q-22 -47 -48 -47t-37 33q-7 20 -7 42q0 23 3 34q2 6 33 57q6 11 25 31q12 10 24 10q20 0 34 -29q10 -23 10 -47zM233 410q0 -22 -7 -38q-11 -14 -30 -46q-23 -47 -48 -47q-26 0 -38 33q-7 20 -7 42q0 23 4 34q2 6 33 57q6 11 24 31 q12 10 24 10q21 0 34 -29q11 -23 11 -47z" />
<glyph unicode=";" horiz-adv-x="460" d="M383 146q0 -24 -10 -46q-19 -42 -59 -91q-52 -65 -128 -147q-9 -10 -23 -10q-23 0 -37 33q-10 25 -10 44q0 11 6 32t13 29q33 37 98 109q11 13 38 50q13 19 25 39q26 35 42 35q21 0 34 -29q11 -24 11 -48zM322 536q0 -22 -7 -38q-11 -14 -30 -46q-22 -47 -48 -47t-37 33 q-7 20 -7 42q0 23 3 34q2 6 33 58q6 10 25 31q12 10 24 10q20 0 34 -29q10 -24 10 -48z" />
<glyph unicode="&#x3c;" horiz-adv-x="657" d="M570 65q0 -21 -10 -42q-12 -28 -33 -28q-10 0 -37 20q-42 32 -43 32q-33 23 -123 83l-78 60q-6 4 -69 43q-45 27 -65 52q-14 19 -14 52q0 31 14 52q25 26 77 83q20 23 56 65q46 56 125 132q65 62 131 124q7 7 17 7q19 0 31 -27q10 -21 10 -43q0 -51 -54 -95 q-87 -72 -273 -282q0 -3 8 -9q79 -56 236 -166q58 -41 71 -54q23 -24 23 -59z" />
<glyph unicode="=" horiz-adv-x="589" d="M471 554q0 -24 -11 -47q-14 -26 -35 -26q-3 0 -7.5 1.5t-8.5 1.5q-47 0 -139 -21.5t-91 -21.5q-56 0 -56 74q0 55 30 71q22 4 63 14q129 33 201 33q25 0 41 -32q13 -25 13 -47zM473 306q0 -24 -11 -47q-14 -26 -35 -26q-3 0 -7.5 1.5t-8.5 1.5q-48 0 -139.5 -22 t-90.5 -22q-56 0 -56 75q0 55 29 71q22 4 64 13q129 34 200 34q25 0 42 -32q13 -25 13 -47z" />
<glyph unicode="&#x3e;" horiz-adv-x="669" d="M574 417q0 -35 -10 -46q-39 -49 -184 -198q-33 -35 -87 -79q-15 -13 -69 -51q-62 -44 -69 -44q-21 0 -34 30q-9 22 -9 40q0 13 8 35q10 26 22 33q139 81 304 272q-107 87 -317 268q-17 16 -17 55q0 22 11 43q13 25 33 25q14 0 28 -12q100 -85 301 -257l66 -52 q23 -22 23 -62z" />
<glyph unicode="?" horiz-adv-x="808" d="M722 698q0 -48 -28 -80q-33 -41 -157 -157.5t-155 -152.5q21 -6 32.5 -26t11.5 -43q0 -22 -10 -41q-13 -24 -35 -24q-34 0 -66 16q-47 25 -47 91q0 45 24 82q37 55 141 154q87 83 175 166q-5 4 -37 9.5t-52 5.5q-63 0 -137 -23q-86 -27 -138 -72q-11 -7 -31 -23 q-11 -16 -39 -45q-9 -9 -27 -9q-21 0 -34 24q-11 20 -11 44q0 25 9 41q33 59 135 118q91 52 171 68q43 9 97 9q79 0 132 -24q76 -33 76 -108zM486 95q0 -66 -84 -106q-3 -2 -16 -14q-9 -9 -21 -9q-40 0 -40 68q0 34 20 56q17 20 64 45q0 1 15 15q12 11 22 11q18 0 30 -25 q10 -21 10 -41z" />
<glyph unicode="@" horiz-adv-x="1044" d="M930 463q0 -62 -22 -115q-28 -70 -85 -90q-44 -17 -64 -17q-60 0 -96 49q-31 -49 -79 -89q-55 -45 -95 -45q-60 0 -89 64q-21 47 -21 106q0 64 18 114q25 73 69 121q50 55 104 55q56 0 99 -35q47 -38 47 -100q0 -20 -5 -41q-5 -18 11 -36q12 -14 37 -14q21 0 47 12 q32 15 32 38v11q1 8 1 12q0 96 -82 161q-73 57 -158 57q-106 0 -196 -47q-110 -58 -154 -172q-30 -78 -30 -121q0 -124 113 -185q85 -46 198 -46q61 0 126 20q40 12 92 37q43 20 51 20q25 0 36 -35q6 -20 6 -39q0 -22 1 -21q-2 -11 -16 -36q-5 -8 -28 -18q-5 -3 -54 -26 q-63 -30 -127 -41q-35 -7 -87 -7q-182 0 -288 94q-112 100 -112 283q0 86 45 205q54 145 185 220q111 64 241 64q45 0 111 -25q108 -41 168 -151q50 -91 50 -191zM618 455q-4 3 -23.5 9t-25.5 6q-32 0 -67 -52.5t-35 -90.5q0 -10 3 -17q10 -9 19 -9q26 0 78 55t52 91 q0 4 -1 8z" />
<glyph unicode="A" horiz-adv-x="847" d="M768 102q0 -22 -9 -42q-11 -26 -30 -26q-13 0 -22 15l-12 22q-25 2 -115 3l-88 -2q-37 -2 -114 -11q-36 -5 -170 -17q-9 -19 -18 -37q-14 -22 -33 -22q-39 0 -39 65q0 27 13 67q14 35 27 71q34 95 146 324q40 86 129 255q9 16 37 29q2 1 7 1q22 0 39 -34q1 -1 17 -42 q6 -15 16 -45q12 -45 29 -100q27 -83 56 -150q18 -42 126 -279q8 -19 8 -45zM638 199q-39 88 -110 261q-21 68 -58 185q-140 -271 -224 -470q43 6 212 20q90 5 180 4z" />
<glyph unicode="B" horiz-adv-x="708" d="M668 209q0 -17 -10.5 -44t-21.5 -40q-65 -81 -162 -113q-69 -23 -171 -23q-77 0 -155 11q-8 1 -14 13q-13 28 -14 49q-7 219 0 452q0 9 2.5 29t2.5 23t-6 10.5t-6 8.5q-9 16 -9 46q0 26 9 41q3 6 25 32q2 6 7 18q11 22 29 22q3 0 8.5 -2.5t9.5 -2.5q-4 0 43 20 q96 41 188 41q23 0 63 -6.5t53 -13.5q118 -61 118 -169q0 -63 -50 -121q-30 -35 -131 -117q3 -1 7 -3q78 -15 128 -55q57 -44 57 -106zM564 610q-14 26 -65 42q-40 12 -80 12q-34 0 -94.5 -16.5t-86.5 -30.5q-11 -4 -24 -15q-8 -25 -9 -77l-2 -204q256 177 361 289zM556 203 q-48 33 -110 33q-58 0 -129 -19.5t-112 -47.5v-42h58.5h38.5q141 0 214 43q21 13 40 33z" />
<glyph unicode="C" horiz-adv-x="765" d="M686 180q0 -57 -38 -98q-30 -32 -111 -80q-38 -22 -110 -22q-151 0 -252 109q-95 104 -95 248q0 71 37 172q50 138 143 213t214 75q18 0 92 -15q57 -12 87 -66q25 -44 25 -95q0 -17 -20 -99q-8 -33 -55 -78t-72 -45t-40 32q-10 23 -10 41q0 15 7 34q8 23 20 30l20 5 q17 5 40.5 31.5t23.5 43.5q0 19 -56 33q-41 10 -59 10q-99 0 -180 -67q-73 -60 -104 -149q-12 -31 -23 -62q-3 -13 -3 -44q0 -103 94 -165q77 -52 167 -52q104 0 176 87q4 12 18 37q7 9 22 9q22 0 33 -27q9 -21 9 -46z" />
<glyph unicode="D" horiz-adv-x="680" d="M673 476q0 -116 -75 -232q-80 -124 -213 -193q-33 -19 -98 -49q-54 -19 -95 -19q-55 0 -55 69q0 10 2 29t2 28q0 25 -4 74q-6 57 -6 67q-12 247 -11 264v97q-20 2 -31 27q-9 21 -9 43q0 33 19 58q10 4 28 18q1 4 7 13q15 19 28 19q3 0 11 -5t11 -5q1 0 26 7q52 14 116 14 q147 0 243 -84q104 -90 104 -240zM591 474q0 95 -103 149q-80 42 -164 42q-44 0 -120 -19v-153q-2 -65 19 -370q95 21 202 102q120 91 151 188q15 49 15 61z" />
<glyph unicode="E" horiz-adv-x="757" d="M704 165q0 -15 -6 -34q-8 -25 -22 -31q-108 -56 -137 -69q-87 -37 -140 -37q-135 0 -203 98q-52 75 -65 210q-4 43 -4 195v125q-13 5 -21 31q-6 19 -6 34q0 21 12 47q9 8 22 25q20 41 39 41q3 0 16 -8t16 -8t30.5 5.5t38.5 6.5q40 4 82 4q106 0 217 -17q18 -3 28 -31 q9 -20 9 -37q0 -69 -60 -69q-1 0 -38.5 4.5t-56.5 5.5q-89 4 -99 4q-61 0 -87 -5q-14 -2 -29 -4t-26 -10q-3 -40 -3 -132q0 -91 3 -136q3 -7 28 -7q39 0 164 22q16 3 64 14q42 9 45 9q25 0 36 -30q7 -18 7 -40q0 -53 -27 -66q-10 -5 -82 -18q-38 -7 -214 -34q44 -89 160 -89 q80 0 213 78q6 10 21 28q7 7 18 7q25 0 43 -35q14 -27 14 -47z" />
<glyph unicode="F" horiz-adv-x="598" d="M596 686q0 -24 -9 -46q-12 -27 -33 -27q-3 0 -13 6t-14 6q-44 9 -89 9q-151 0 -256 -42v-108q4 -47 11 -142q1 0 2 -1t5 -1q3 0 44 15q50 19 92 29q64 15 124 15q44 0 58 -10q19 -14 19 -59q0 -59 -34 -68q-17 -1 -57 -3q-108 -5 -220 -56q5 -18 10 -35q9 -28 19 -28 q4 0 5.5 1t4.5 1q20 0 32 -26q10 -21 10 -44q0 -22 -13 -51q-15 -35 -36 -35q-22 0 -52 35q-13 15 -34 47q-8 28 -26 84q-50 158 -50 385q0 38 3 120q4 140 50 140q14 0 26.5 -20t12.5 -36l4 -4q105 35 246 35q38 0 54 -2q25 -2 51 -5q30 -6 40 -25q13 -23 13 -54z" />
<glyph unicode="G" horiz-adv-x="824" d="M737 219q0 -53 -45 -91q-25 -21 -105 -60q-138 -69 -212 -76q-19 -2 -42 -2q-81 0 -119 28q-59 43 -91 122q-27 68 -27 144q0 68 31 160q54 161 194 263q129 93 264 93q110 0 110 -86q0 -19 -9 -38q-11 -25 -29 -25q-6 0 -14 7q-12 9 -15 11q-7 4 -40 4q-111 0 -214 -65 q-113 -72 -169 -199q-31 -70 -31 -127q0 -74 39 -119q42 -48 119 -48q97 0 239 77q-30 2 -73 -3q-69 -9 -73 -9q-11 -1 -44 -8.5t-35 -7.5q-20 0 -32 22q-10 18 -10 40q0 42 22 59q17 12 113 23q85 10 143 10q65 0 96 -11q59 -22 59 -88z" />
<glyph unicode="H" horiz-adv-x="764" d="M693 84q0 -20 -10 -41q-12 -27 -33 -27q-29 0 -37 35q-7 28 -9 70l-2 72q-51 5 -95 5q-64 0 -150 -16q-93 -17 -117 -38q4 -18 4 -52q0 -92 -41 -92q-30 0 -38 43q-2 33 -10 96q-19 114 -27 227q-16 232 -16 345q0 89 40 89t43 -124q1 -19 6 -146q3 -90 17 -249 q12 -1 37 9q35 14 69 22q88 19 185 19q40 0 83 -3q4 12 -1 132q-2 49 -11 149q-10 95 -10 93q0 69 39 69q23 0 33.5 -28t15.5 -74q17 -158 17 -216v-126q0 -3 9 -121.5t9 -121.5z" />
<glyph unicode="I" horiz-adv-x="673" d="M588 102q0 -19 -9 -40q-12 -28 -31 -28q-4 0 -40.5 5t-40.5 5q-101 0 -219 -16q-17 -3 -58 -17t-43 -14q-43 0 -43 68q0 33 11 50q10 14 37 24q19 6 37 11q13 5 111 21q-3 -2 -1 106l18 282l-2 86q-11 -4 -49 -16q-31 -11 -34 -11q-21 0 -33 25q-11 20 -11 42q0 36 20 59 q5 7 21 12q13 4 26 7q94 34 183 34q30 0 36 -1q13 -2 23 -26t10 -40q0 -70 -65 -70h-16q-16 1 -25 1q1 -94 -8 -260q-2 -33 -8 -107q-5 -67 -5 -69t1.5 -20.5t1.5 -28.5q42 3 78 3q60 0 79 -6q48 -15 48 -71z" />
<glyph unicode="J" horiz-adv-x="875" d="M797 730q0 -63 -34 -70q-29 -2 -88 -6q0 -5 6 -15q96 -141 96 -340q0 -84 -45 -157q-52 -86 -146 -116q-86 -28 -132 -30q-46 -1 -88 11q-19 5 -76 28q-53 21 -162 108q-22 17 -28 26q-12 17 -12 46q0 34 16 57t44 23q7 0 15 -1q14 -3 37 -21q27 -24 86 -65l56 -40 q48 -28 110 -28q75 0 147 39q90 48 90 128q0 83 -34 162q-28 66 -103 176q-30 -4 -105 -19q-69 -14 -71 -14q-28 0 -41 32q-8 21 -8 43q0 26 11 47q13 27 36 27q3 0 9.5 -1t10.5 -1q-4 0 56 12q54 12 97 17q102 12 177 12q35 0 39 -1q34 -11 34 -69z" />
<glyph unicode="K" horiz-adv-x="770" d="M688 61q0 -26 -9 -46q-13 -25 -35 -25q-5 0 -42 15q-56 24 -142.5 41t-147.5 17q14 0 -130 -7q-11 -58 -44 -58q-42 0 -42 114q0 4 8 206.5t8 205.5q0 90 -5.5 144.5t-5.5 55.5q0 20 9 42q12 28 32 28q10 0 22.5 -10t14.5 -20q15 -61 18 -133v-118q0 -133 -3 -190 q-4 -41 -9 -89v-26h2q37 52 106 148q59 77 169 231q15 22 49 90q61 120 95 120q20 0 32 -25q10 -20 10 -44q0 -29 -15 -52q-21 -31 -42 -63q-19 -39 -70 -128q-36 -58 -98 -140q-54 -71 -107 -141q185 -9 344 -76q21 -9 27 -44q1 -6 1 -23z" />
<glyph unicode="L" horiz-adv-x="793" d="M794 192q0 -19 -9 -40q-11 -26 -26 -28q-19 -1 -55 -7q-50 -9 -180 -54q-50 -20 -99 -40q-83 -30 -129 -30q-32 0 -66 18q-45 24 -58 66q-56 186 -56 521v18q-1 19 -1 35q0 147 50 147q16 0 27.5 -19.5t11.5 -38.5q0 -12 -2 -32q-3 -23 -4 -34q-1 -40 1 -115q1 -30 3 -91 q0 -20 2 -58q1 -14 3 -44q2 -22 18 -139q3 -25 17 -75q12 -23 55 -23q36 0 98 22l86 34q185 72 260 72q53 0 53 -65z" />
<glyph unicode="M" horiz-adv-x="890" d="M750 758q8 16 26 16q20 0 33 -27q9 -22 9 -46q0 -3 -5 -95t-5 -95q0 -92 9 -210q4 -67 22 -181v-36q0 -18 -10 -43q-13 -32 -34 -32q-31 0 -40 72l-4 76q-12 98 -16 176.5t-8 158.5q-48 -99 -95 -197q-57 -119 -75 -198q-1 -13 -4 -38q-2 -12 -14 -29q-14 -21 -27 -21 q-25 0 -37 41q-3 22 -7 45.5t-34 58.5q-3 3 -75 93q-92 114 -155 250q-1 -19 1 -55q2 -39 2 -36v-196q0 -3 5.5 -76.5t5.5 -76.5q0 -68 -40 -68q-21 0 -31 26q-6 15 -12.5 68.5t-6.5 83.5v177q0 3 -6.5 178.5t-6.5 178.5q0 96 44 96q29 0 37 -24q3 -13 9 -33q4 -14 14 -44 q49 -129 152 -294q48 -77 135 -168q21 41 122 254q40 92 122 270z" />
<glyph unicode="N" horiz-adv-x="788" d="M706 96q0 -23 -11 -43q-13 -25 -37 -25q-23 0 -35 27q-8 23 -16 45q-9 4 -27 13q-99 69 -205 174q-120 117 -167 201q-3 -4 -2 -19q19 -192 32 -363q0 -6 3.5 -20t3.5 -17q0 -19 -10 -43q-13 -29 -32 -29q-18 0 -29.5 19t-14.5 53q-2 25 -3 50q-7 81 -20 242 q-8 76 -15 151q-15 157 -15 209q0 19 9 41q12 30 32 30q13 0 24.5 -12.5t13 -23.5t5 -27t19.5 -46q22 -41 25 -46q73 -162 344 -375q-1 58 -12 154q-14 133 -21 218q-1 15 -6 57q-6 38 -6 41q0 21 9 42q11 26 30 26q21 0 34 -36q8 -22 10 -40q3 -14 6 -41q7 -65 11 -116 q3 -30 7.5 -80t19.5 -211q2 -16 18 -110q1 -6 14 -20q3 -4 8.5 -22.5t5.5 -27.5z" />
<glyph unicode="O" horiz-adv-x="824" d="M750 515q0 -56 -14 -113q-43 -179 -157 -270q-57 -45 -127 -84q-97 -54 -153 -54q-100 0 -150 97q-37 72 -37 160q0 160 100.5 322.5t223.5 204.5q66 22 97 22q20 0 38 -9q11 -5 16.5 -16t9.5 -20q153 -9 153 -240zM669 518q0 47 -8 66q-15 38 -63 38q-30 0 -83 -11 q-68 -14 -56 -14q-13 0 -24 12q-6 10 -17 26q-96 -58 -163 -179q-62 -111 -62 -204q0 -126 106 -126q40 0 130 48q103 54 165 133q75 96 75 211z" />
<glyph unicode="P" horiz-adv-x="712" d="M705 553q0 -30 -20 -96q-11 -37 -93 -111q-67 -61 -157 -110q-82 -43 -164 -85q-1 -6 0 -37q1 -8 2 -15q2 -17 2 -32q0 -75 -41 -75q-26 0 -35 33q-10 37 -14 97q-25 428 -27 428q-3 0 -8.5 -2.5t-9.5 -2.5q-25 0 -40 27q-12 21 -12 47q0 48 38 78q9 5 28 19q-3 22 10 51 q14 33 34 33q25 0 39 -43q79 32 158 32q109 0 200 -54q110 -67 110 -182zM619 552q0 24 -67 59q-59 30 -81 32l-76 7q-74 0 -154 -36q10 -122 19 -316q11 2 26 6q188 90 277 173q56 53 56 75z" />
<glyph unicode="Q" horiz-adv-x="811" d="M760 131q0 -23 -9 -42q-11 -24 -31 -24q-3 0 -67 28q-76 34 -107 46q-60 -66 -134.5 -106t-137.5 -40q-101 0 -145 93q-29 62 -29 156q0 58 19 149q7 36 50 125q56 113 116 185q80 95 154 95q27 0 51 -28q38 -2 54 -5q32 -6 54 -22q45 -34 69 -128q11 -44 11 -106 q0 -136 -59 -259q42 -18 120 -57q8 -5 17 -28q4 -9 4 -32zM599 508q0 29 -10 65t-23 45q-22 17 -68 17q-50 0 -97 -24.5l-47 -24.5q-3 0 -11 4t-10 4q-13 0 -66 -96q-46 -83 -56 -110q-17 -42 -26 -82q-6 -26 -6 -64q0 -119 94 -119q50 0 134 48q-12 1 -37 0q-30 -2 -27 -2 q-23 0 -36 23q-10 18 -10 43q0 46 25 60q17 10 64 10q56 0 143 -23q32 45 52 114q18 62 18 112z" />
<glyph unicode="R" horiz-adv-x="649" d="M635 112q0 -24 -9 -43q-11 -23 -33 -23q-10 0 -156 51t-184 51q-8 0 -39 -7q-13 -3 -27 -11q7 -70 6 -73q-9 -61 -42 -61q-23 0 -35 32q-21 58 -21 182v275q0 3 -5.5 74t-5.5 75q0 14 4 27q4 42 7 84q11 72 44 72q18 0 30 -26q9 -17 11 -34q78 42 159 42q100 0 188 -60 q95 -66 95 -154q0 -80 -81 -170q-51 -55 -179 -155q58 -19 157 -54q43 -15 87 -30q29 -16 29 -64zM533 580q0 10 -42 36q-36 22 -53 30q-20 8 -43 13q-26 6 -55 6q-49 0 -100 -20q-38 -15 -45 -25q-2 -8 -7 -24q-6 -8 -14 -21q-1 -2 -1 -15q0 3 1 -38q2 -45 2 -96 q1 -72 1 -149q217 146 322 257q34 36 34 46z" />
<glyph unicode="S" horiz-adv-x="734" d="M736 617q0 -80 -43 -80q-26 0 -36 37q-3 22 -7 43q-8 23 -43 35q-27 10 -57 10q-79 0 -168 -79q-77 -69 -138 -171q-57 -96 -63 -160q12 -7 38 -7q36 0 99 31q105 54 119 59q77 32 146 32q23 0 32 -1q35 -4 54 -46q14 -30 14 -62q0 -52 -31 -103q-34 -58 -111.5 -114 t-125.5 -56q-26 0 -38 30q-8 19 -8 39q0 23 11 45q12 26 33 26q4 0 4.5 -1t3.5 -1q15 0 59 27q37 22 47 31q23 22 50 49q-62 0 -133 -32q-58 -30 -116 -59q-65 -32 -109 -32q-123 0 -123 143q0 61 47 175q56 135 170 249q127 126 237 126q84 0 135 -51t51 -132z" />
<glyph unicode="T" horiz-adv-x="758" d="M828 728q0 -60 -33 -69q-19 -1 -49 -4q-87 -10 -255 -34v-247q8 -72 17 -190l2 -129q0 -21 -10 -43q-12 -28 -34 -28q-19 0 -32 26q-11 20 -11 33v103q0 -9 -4 57q-4 48 -11 142q-3 40 -1 109v153q-44 0 -130.5 -15t-116.5 -15q-60 0 -60 71q0 39 19 55.5t69 16.5 q-3 0 128 19q121 18 372 48q107 13 94 13q24 0 36 -26q10 -20 10 -46z" />
<glyph unicode="U" horiz-adv-x="812" d="M751 154q0 -13 -8 -44q-1 -29 -2 -57q-9 -55 -42 -55q-28 0 -44 54q-30 -10 -53 -14q-2 0 -151 -18l-78 -14q-62 -11 -98 -11q-114 0 -140 109q-19 79 -23 128q-12 142 -12 359q0 99 6 159q2 15 15 31t29 16q21 0 35 -29q11 -23 11 -41q-2 -17 -4 -45q-3 -80 -2 -122 q3 -53 7 -160q0 -90 2 -112q4 -66 18 -123q3 -11 17.5 -16.5t46.5 -5.5q14 0 133 19q59 6 118 13q68 8 114 27q-11 108 -26 323q-2 79 -2 187q0 77 45 77q20 0 34 -27q12 -21 12 -34v-149q0 -18 7 -135q9 -145 19 -220q4 -15 8 -29q8 -28 8 -41z" />
<glyph unicode="V" horiz-adv-x="672" d="M671 729q0 -35 -36 -83q-39 -54 -43 -72q-3 -6 -9 -16q-53 -116 -82 -189l-70 -186q-80 -185 -127 -185q-26 0 -60 62q-20 35 -31 66l-51 132q-40 126 -132 380q-9 21 -9 42q0 23 10 42q12 24 33 24q24 0 36 -21q5 -20 17 -60q2 -4 101 -297q44 -130 89 -222 q31 49 80 175q77 198 88 224q52 121 115 214q25 37 41 37q18 0 30 -26q10 -20 10 -41z" />
<glyph unicode="W" horiz-adv-x="899" d="M169 85q-3 28 -14 102q-17 108 -40 228q-15 65 -29 129q-25 119 -25 159q0 17 10 39q12 28 30 28q6 0 17 -9.5t14 -18.5q0 -1 17 -102q14 -61 38 -174q16 -93 49 -283q34 144 57 213q56 174 152 351q25 48 50 48q32 0 37 -46q-2 -26 0 -80q6 -40 44 -163q6 -18 51 -120 q41 -92 79 -163q9 32 53 202q31 123 57 193q9 25 35 101q26 81 54 81q22 0 32 -28q7 -17 7 -36q0 -22 -4 -30q-38 -90 -83 -232t-82 -320q-4 -33 -8 -67q-12 -55 -40 -55q-16 0 -34 15q-8 7 -16 28q-14 34 -28 59q-130 245 -182 449h-2q-95 -179 -151 -426q-5 -21 -11 -65 q0 -18 -4 -57q-9 -45 -44 -45q-9 0 -19 4q-59 24 -67 91z" />
<glyph unicode="X" horiz-adv-x="804" d="M744 725q0 -18 -9 -39q-13 -27 -31 -27q-4 0 -5 1t-5 1q-22 0 -124 -141q-98 -135 -98 -144q0 -3 10 -12q14 -13 17 -17q43 -52 87 -103q46 -61 46 -101q0 -21 -10 -44q-12 -30 -32 -30q-14 0 -23 11q-8 15 -23 40q-38 62 -134 159q-95 -136 -124 -211q-1 -13 -6 -37 q-21 -48 -48 -48q-18 0 -31 27q-9 21 -9 42q0 23 11 53q22 60 50 110q12 23 50 83q33 51 33 54q0 1 -28 29q-82 84 -211 244q-31 38 -31 73q0 22 10 41q13 24 33 24q37 0 50 -29q4 -14 12 -34q63 -89 226 -248q11 12 45 65q47 73 104 147q105 136 147 136q24 0 39 -28 q12 -22 12 -47z" />
<glyph unicode="Y" horiz-adv-x="773" d="M755 727q0 -30 -20 -77q-37 -87 -37 -88q-18 -49 -45 -106q-67 -131 -197 -391q-5 -21 -11 -41q-14 -36 -37 -36q-41 0 -41 70q0 32 8.5 59t37.5 84q27 52 27 55t-96 99q-116 117 -149 152q-43 46 -130 154q-17 22 -17 58q0 22 11 43q13 26 34 26q16 0 28 -17 q45 -65 164 -191l210 -216q73 127 119 242q21 56 75 175q7 15 26 15q40 0 40 -69z" />
<glyph unicode="Z" horiz-adv-x="906" d="M858 111q0 -24 -11 -47q-15 -28 -36 -28q-3 0 -24 10q-24 10 -34 13q-5 1 -59 1q-56 0 -107 -5q-99 -10 -327 -41q-17 -2 -68 -13q-45 -9 -53 -9q-27 0 -42 27q-11 21 -11 51q0 59 39 87q206 144 343 333q41 56 108 156q-11 2 -52 2q-4 0 -127 -7.5t-127 -7.5 q-56 0 -56 78q0 74 49 79q95 10 278 10q100 0 144 -4q11 -1 33 -12q15 -8 24 -35q6 -21 6 -40q0 -44 -19 -66q-58 -66 -171 -227q-97 -137 -193 -232q5 -3 19 -1q79 10 158 21q58 8 140 8q83 0 113 -10q63 -21 63 -91z" />
<glyph unicode="[" horiz-adv-x="524" d="M409 113q0 -26 -1 -32q-4 -19 -24 -32q-23 -7 -68 -26q-35 -18 -51 -22.5t-45 -4.5q-30 0 -32 1q-35 15 -41 65q0 41 -1 82q-5 91 -5 267q0 92 3 237q3 150 168 150q59 0 59 -70q0 -48 -23 -62q-11 -7 -55 -10q-40 -2 -63 -19q-5 -268 0 -447q1 -28 5 -56q131 49 134 49 q22 0 33 -33q7 -20 7 -37z" />
<glyph unicode="\" horiz-adv-x="717" d="M594 59q0 -22 -9 -44q-12 -27 -32 -27q-18 0 -27 16q-17 38 -57 112q-68 98 -136 195q-105 153 -149 251l-50 100q-20 41 -20 67q0 16 9 39q13 32 33 32q6 0 16 -6t13 -11q17 -36 52.5 -109.5t53.5 -102.5q35 -59 94 -151q60 -85 119 -170q90 -134 90 -191z" />
<glyph unicode="]" horiz-adv-x="524" d="M411 104q0 -62 -59 -110q-15 -12 -51 -12q-55 0 -103 31q-57 35 -57 93q0 18 9 39q13 28 32 28q13 0 24 -11q17 -17 28 -24q27 -16 63 -16q19 0 26 4q-5 104 -13 297q-2 75 -5 118q-5 68 -6 73q-10 43 -43 43q-3 0 -41.5 -10.5t-41.5 -10.5q-21 0 -34 30q-9 22 -9 39 q0 15 6 34q7 24 19 30q53 28 104 28q58 0 89 -57q24 -43 33 -103q5 -35 14 -186q8 -143 8 -175v-97q0 -3 4 -37t4 -38z" />
<glyph unicode="^" horiz-adv-x="605" d="M502 487q0 -66 -40 -66q-16 0 -42 26q-22 22 -36 44q-19 30 -28 64q-8 29 -16 57q-24 -28 -70 -82l-50 -64q-52 -63 -67 -63q-19 0 -31 26q-10 20 -10 42q0 31 16 55q11 10 32 34q54 66 107 132q89 106 107 106q24 0 37 -34q6 -19 6 -78q0 -28 3 -44q10 -59 62 -98 q20 -15 20 -57z" />
<glyph unicode="_" horiz-adv-x="536" d="M565 23q0 -17 -8 -34q-10 -22 -28 -22q-3 0 -152.5 7.5t-152.5 7.5q-49 0 -113 -7q-6 -1 -26 -5.5t-23 -4.5q-38 0 -38 58q0 43 23 53q18 8 66 13q66 8 108 8q1 0 39 -3t58 -3q12 -1 41 -2q5 -1 42 -3q36 0 71 1q44 -1 70 -11q11 -4 17 -24q6 -16 6 -29z" />
<glyph unicode="`" horiz-adv-x="594" d="M432 544q0 -32 -13 -60q-17 -33 -45 -33q-25 0 -63 38q-29 31 -52 67q-31 46 -91 142q-12 23 -12 57q0 26 12 56q17 43 46 43t53 -34q7 -10 24 -46q23 -48 67 -104q17 -15 50 -48q24 -28 24 -78z" />
<glyph unicode="a" horiz-adv-x="847" d="M768 102q0 -22 -9 -42q-11 -26 -30 -26q-13 0 -22 15l-12 22q-25 2 -115 3l-88 -2q-37 -2 -114 -11q-36 -5 -170 -17q-9 -19 -18 -37q-14 -22 -33 -22q-39 0 -39 65q0 27 13 67q14 35 27 71q34 95 146 324q40 86 129 255q9 16 37 29q2 1 7 1q22 0 39 -34q1 -1 17 -42 q6 -15 16 -45q12 -45 29 -100q27 -83 56 -150q18 -42 126 -279q8 -19 8 -45zM638 199q-39 88 -110 261q-21 68 -58 185q-140 -271 -224 -470q43 6 212 20q90 5 180 4z" />
<glyph unicode="b" horiz-adv-x="708" d="M668 209q0 -17 -10.5 -44t-21.5 -40q-65 -81 -162 -113q-69 -23 -171 -23q-77 0 -155 11q-8 1 -14 13q-13 28 -14 49q-7 219 0 452q0 9 2.5 29t2.5 23t-6 10.5t-6 8.5q-9 16 -9 46q0 26 9 41q3 6 25 32q2 6 7 18q11 22 29 22q3 0 8.5 -2.5t9.5 -2.5q-4 0 43 20 q96 41 188 41q23 0 63 -6.5t53 -13.5q118 -61 118 -169q0 -63 -50 -121q-30 -35 -131 -117q3 -1 7 -3q78 -15 128 -55q57 -44 57 -106zM564 610q-14 26 -65 42q-40 12 -80 12q-34 0 -94.5 -16.5t-86.5 -30.5q-11 -4 -24 -15q-8 -25 -9 -77l-2 -204q256 177 361 289zM556 203 q-48 33 -110 33q-58 0 -129 -19.5t-112 -47.5v-42h58.5h38.5q141 0 214 43q21 13 40 33z" />
<glyph unicode="c" horiz-adv-x="765" d="M686 180q0 -57 -38 -98q-30 -32 -111 -80q-38 -22 -110 -22q-151 0 -252 109q-95 104 -95 248q0 71 37 172q50 138 143 213t214 75q18 0 92 -15q57 -12 87 -66q25 -44 25 -95q0 -17 -20 -99q-8 -33 -55 -78t-72 -45t-40 32q-10 23 -10 41q0 15 7 34q8 23 20 30l20 5 q17 5 40.5 31.5t23.5 43.5q0 19 -56 33q-41 10 -59 10q-99 0 -180 -67q-73 -60 -104 -149q-12 -31 -23 -62q-3 -13 -3 -44q0 -103 94 -165q77 -52 167 -52q104 0 176 87q4 12 18 37q7 9 22 9q22 0 33 -27q9 -21 9 -46z" />
<glyph unicode="d" horiz-adv-x="680" d="M673 476q0 -116 -75 -232q-80 -124 -213 -193q-33 -19 -98 -49q-54 -19 -95 -19q-55 0 -55 69q0 10 2 29t2 28q0 25 -4 74q-6 57 -6 67q-12 247 -11 264v97q-20 2 -31 27q-9 21 -9 43q0 33 19 58q10 4 28 18q1 4 7 13q15 19 28 19q3 0 11 -5t11 -5q1 0 26 7q52 14 116 14 q147 0 243 -84q104 -90 104 -240zM591 474q0 95 -103 149q-80 42 -164 42q-44 0 -120 -19v-153q-2 -65 19 -370q95 21 202 102q120 91 151 188q15 49 15 61z" />
<glyph unicode="e" horiz-adv-x="757" d="M704 165q0 -15 -6 -34q-8 -25 -22 -31q-108 -56 -137 -69q-87 -37 -140 -37q-135 0 -203 98q-52 75 -65 210q-4 43 -4 195v125q-13 5 -21 31q-6 19 -6 34q0 21 12 47q9 8 22 25q20 41 39 41q3 0 16 -8t16 -8t30.5 5.5t38.5 6.5q40 4 82 4q106 0 217 -17q18 -3 28 -31 q9 -20 9 -37q0 -69 -60 -69q-1 0 -38.5 4.5t-56.5 5.5q-89 4 -99 4q-61 0 -87 -5q-14 -2 -29 -4t-26 -10q-3 -40 -3 -132q0 -91 3 -136q3 -7 28 -7q39 0 164 22q16 3 64 14q42 9 45 9q43 0 43 -70q0 -53 -27 -66q-10 -5 -82 -18q-38 -7 -214 -34q44 -89 160 -89q80 0 213 78 q6 10 21 28q7 7 18 7q25 0 43 -35q14 -27 14 -47z" />
<glyph unicode="f" horiz-adv-x="598" d="M596 686q0 -24 -9 -46q-12 -27 -33 -27q-3 0 -13 6t-14 6q-44 9 -89 9q-151 0 -256 -42v-108q4 -47 11 -142q1 0 2 -1t5 -1q3 0 44 15q50 19 92 29q64 15 124 15q44 0 58 -10q19 -14 19 -59q0 -59 -34 -68q-17 -1 -57 -3q-108 -5 -220 -56q5 -18 10 -35q9 -28 19 -28 q4 0 5.5 1t4.5 1q20 0 32 -26q10 -21 10 -44q0 -22 -13 -51q-15 -35 -36 -35q-22 0 -52 35q-13 15 -34 47q-8 28 -26 84q-50 158 -50 385q0 38 3 120q4 140 50 140q14 0 26.5 -20t12.5 -36l4 -4q105 35 246 35q38 0 54 -2q25 -2 51 -5q30 -6 40 -25q13 -23 13 -54z" />
<glyph unicode="g" horiz-adv-x="824" d="M737 219q0 -53 -45 -91q-25 -21 -105 -60q-67 -34 -103 -48q-59 -23 -109 -28q-19 -2 -42 -2q-81 0 -119 28q-59 43 -91 122q-27 68 -27 144q0 68 31 160q54 161 194 263q129 93 264 93q110 0 110 -86q0 -19 -9 -38q-11 -25 -29 -25q-6 0 -14 7q-12 9 -15 11q-7 4 -40 4 q-111 0 -214 -65q-113 -72 -169 -199q-31 -70 -31 -127q0 -74 39 -119q42 -48 119 -48q97 0 239 77q-30 2 -73 -3q-69 -9 -73 -9q-11 -1 -44 -8.5t-35 -7.5q-20 0 -32 22q-10 18 -10 40q0 42 22 59q17 12 113 23q85 10 143 10q65 0 96 -11q59 -22 59 -88z" />
<glyph unicode="h" horiz-adv-x="764" d="M693 84q0 -20 -10 -41q-12 -27 -33 -27q-29 0 -37 35q-7 28 -9 70l-2 72q-51 5 -95 5q-64 0 -150 -16q-93 -17 -117 -38q4 -18 4 -52q0 -92 -41 -92q-30 0 -38 43q-2 33 -10 96q-19 114 -27 227q-16 232 -16 345q0 89 40 89t43 -124q1 -19 6 -146q3 -90 17 -249 q12 -1 37 9q35 14 69 22q88 19 185 19q40 0 83 -3q4 12 -1 132q-2 49 -11 149q-10 95 -10 93q0 69 39 69q23 0 33.5 -28t15.5 -74q17 -158 17 -216v-126q0 -3 9 -121.5t9 -121.5z" />
<glyph unicode="i" horiz-adv-x="386" d="M274 711q0 -21 -12 -45q-5 -3 -12 -13q-6 -34 -6 -110v-303q0 -58 12 -137q0 -5 5 -21t5 -20q0 -27 -17 -49t-43 -22q-31 0 -49 26q-16 23 -16 53q0 9 2 16q5 23 5 27q-14 149 -14 144v476q0 19 22.5 42t40.5 23q6 0 22 -7q55 -24 55 -80z" />
<glyph unicode="j" horiz-adv-x="805" d="M735 253q0 -48 -13 -121q-16 -85 -72 -115q-20 -11 -39 -14q-32 -6 -105 -3q-63 3 -82 7q-129 27 -209 69q-39 21 -125 86q-9 7 -17 33q-6 22 -6 35q0 24 10 45q13 29 36 29q12 0 38 -22q21 -18 48 -36q34 -25 101 -66q87 -40 166 -40q46 -1 108 4q22 2 30 4q22 6 29 19 q13 23 13 84q0 44 -4 55q-20 60 -59 149q-57 128 -64 145.5t-21 50.5q-18 -4 -61 -19q-38 -12 -41 -12q-23 0 -37 25q-11 21 -11 47q0 52 26 67q14 4 42 13q71 28 120 28q25 0 30 -4q35 -25 28 -88q-2 -5 -4 -9q-2 -7 0 -12q53 -120 105 -239q40 -101 40 -195z" />
<glyph unicode="k" horiz-adv-x="770" d="M688 61q0 -26 -9 -46q-13 -25 -35 -25q-5 0 -42 15q-56 24 -142.5 41t-147.5 17q14 0 -130 -7q-11 -58 -44 -58q-42 0 -42 114q0 4 8 206.5t8 205.5q0 90 -5.5 144.5t-5.5 55.5q0 20 9 42q12 28 32 28q10 0 22.5 -10t14.5 -20q15 -61 18 -133v-118q0 -133 -3 -190 q-4 -41 -9 -89v-26h2q37 52 106 148q59 77 169 231q15 22 49 90q61 120 95 120q20 0 32 -25q10 -20 10 -44q0 -29 -15 -52q-21 -31 -42 -63q-19 -39 -70 -128q-36 -58 -98 -140q-54 -71 -107 -141q185 -9 344 -76q21 -9 27 -44q1 -6 1 -23z" />
<glyph unicode="l" horiz-adv-x="777" d="M778 192q0 -19 -9 -40q-11 -26 -26 -28q-19 -1 -55 -7q-50 -9 -180 -54q-50 -20 -99 -40q-83 -30 -129 -30q-32 0 -66 18q-45 24 -58 66q-56 186 -56 521v18q-1 19 -1 35q0 147 50 147q16 0 27.5 -19.5t11.5 -38.5q0 -12 -2 -32q-3 -23 -4 -34q-1 -40 1 -115q1 -30 3 -91 q0 -20 2 -58q1 -14 3 -44q2 -22 18 -139q3 -25 17 -75q12 -23 55 -23q36 0 98 22l86 34q185 72 260 72q53 0 53 -65z" />
<glyph unicode="m" horiz-adv-x="890" d="M750 758q8 16 26 16q20 0 33 -27q9 -22 9 -46q0 -3 -5 -95t-5 -95q0 -92 9 -210q4 -67 22 -181v-36q0 -18 -10 -43q-13 -32 -34 -32q-31 0 -40 72l-4 76q-12 98 -16 176.5t-8 158.5q-48 -99 -95 -197q-57 -119 -75 -198q-1 -13 -4 -38q-2 -12 -14 -29q-14 -21 -27 -21 q-25 0 -37 41q-3 22 -7 45.5t-34 58.5q-3 3 -75 93q-92 114 -155 250q-1 -19 1 -55q2 -39 2 -36v-196q0 -3 5.5 -76.5t5.5 -76.5q0 -68 -40 -68q-21 0 -31 26q-6 15 -12.5 68.5t-6.5 83.5v177q0 3 -6.5 178.5t-6.5 178.5q0 96 44 96q29 0 37 -24q3 -13 9 -33q4 -14 14 -44 q49 -129 152 -294q48 -77 135 -168q21 40 122 254q40 92 122 270z" />
<glyph unicode="n" horiz-adv-x="788" d="M706 96q0 -23 -11 -43q-13 -25 -37 -25q-23 0 -35 27q-8 23 -16 45q-9 4 -27 13q-99 69 -205 174q-120 117 -167 201q-3 -4 -2 -19q19 -192 32 -363q0 -6 3.5 -20t3.5 -17q0 -19 -10 -43q-13 -29 -32 -29q-18 0 -29.5 19t-14.5 53q-2 25 -3 50q-7 81 -20 242 q-8 76 -15 151q-15 157 -15 209q0 19 9 41q12 30 32 30q13 0 24.5 -12.5t13 -23.5t5 -27t19.5 -46q22 -41 25 -46q73 -162 344 -375q-1 58 -12 154q-14 133 -21 218q-1 15 -6 57q-6 38 -6 41q0 21 9 42q11 26 30 26q21 0 34 -36q8 -22 10 -40q3 -14 6 -41q7 -65 11 -116 q3 -30 7.5 -80t19.5 -211q2 -16 18 -110q1 -6 14 -20q3 -4 8.5 -22.5t5.5 -27.5z" />
<glyph unicode="o" horiz-adv-x="824" d="M750 515q0 -56 -14 -113q-43 -179 -157 -270q-57 -45 -127 -84q-97 -54 -153 -54q-100 0 -150 97q-37 72 -37 160q0 160 100.5 322.5t223.5 204.5q66 22 97 22q20 0 38 -9q11 -5 16.5 -16t9.5 -20q153 -9 153 -240zM669 518q0 47 -8 66q-15 38 -63 38q-30 0 -83 -11 q-68 -14 -56 -14q-13 0 -24 12q-6 10 -17 26q-96 -58 -163 -179q-62 -111 -62 -204q0 -126 106 -126q40 0 130 48q103 54 165 133q75 96 75 211z" />
<glyph unicode="p" horiz-adv-x="712" d="M705 553q0 -30 -20 -96q-11 -37 -93 -111q-67 -61 -157 -110q-82 -43 -164 -85q-1 -6 0 -37q1 -8 2 -15q2 -17 2 -32q0 -75 -41 -75q-26 0 -35 33q-10 37 -14 97q-25 428 -27 428q-3 0 -8.5 -2.5t-9.5 -2.5q-25 0 -40 27q-12 21 -12 47q0 48 38 78q9 5 28 19q-3 22 10 51 q14 33 34 33q25 0 39 -43q79 32 158 32q109 0 200 -54q110 -67 110 -182zM619 552q0 24 -67 59q-59 30 -81 32l-76 7q-74 0 -154 -36q10 -122 19 -316q11 2 26 6q188 90 277 173q56 53 56 75z" />
<glyph unicode="q" horiz-adv-x="811" d="M760 131q0 -23 -9 -42q-11 -24 -31 -24q-3 0 -67 28q-76 34 -107 46q-60 -66 -134.5 -106t-137.5 -40q-101 0 -145 93q-29 62 -29 156q0 58 19 149q7 36 50 125q56 113 116 185q80 95 154 95q27 0 51 -28q38 -2 54 -5q32 -6 54 -22q45 -34 69 -128q11 -44 11 -106 q0 -136 -59 -259q42 -18 120 -57q8 -5 17 -28q4 -9 4 -32zM599 508q0 29 -10 65t-23 45q-22 17 -68 17q-50 0 -97 -24.5l-47 -24.5q-3 0 -11 4t-10 4q-13 0 -66 -96q-46 -83 -56 -110q-17 -42 -26 -82q-6 -26 -6 -64q0 -119 94 -119q50 0 134 48q-12 1 -37 0q-30 -2 -27 -2 q-23 0 -36 23q-10 18 -10 43q0 46 25 60q17 10 64 10q56 0 143 -23q32 45 52 114q18 62 18 112z" />
<glyph unicode="r" horiz-adv-x="649" d="M635 112q0 -24 -9 -43q-11 -23 -33 -23q-10 0 -156 51t-184 51q-8 0 -39 -7q-13 -3 -27 -11q7 -70 6 -73q-9 -61 -42 -61q-23 0 -35 32q-21 58 -21 182v275q0 3 -5.5 74t-5.5 75q0 14 4 27q4 42 7 84q11 72 44 72q18 0 30 -26q9 -17 11 -34q78 42 159 42q100 0 188 -60 q95 -66 95 -154q0 -80 -81 -170q-51 -55 -179 -155q58 -19 157 -54q43 -15 87 -30q29 -16 29 -64zM533 580q0 10 -42 36q-36 22 -53 30q-20 8 -43 13q-26 6 -55 6q-49 0 -100 -20q-38 -15 -45 -25q-2 -8 -7 -24q-6 -8 -14 -21q-1 -2 -1 -15q0 3 1 -38q2 -45 2 -96 q1 -72 1 -149q217 146 322 257q34 36 34 46z" />
<glyph unicode="s" horiz-adv-x="734" d="M736 617q0 -80 -43 -80q-26 0 -36 37q-3 22 -7 43q-8 23 -43 35q-27 10 -57 10q-79 0 -168 -79q-78 -69 -138 -171q-57 -96 -63 -160q12 -7 38 -7q36 0 99 31q105 54 119 59q77 32 146 32q23 0 32 -1q35 -4 54 -46q14 -30 14 -62q0 -52 -31 -103q-34 -58 -111.5 -114 t-125.5 -56q-26 0 -38 30q-8 19 -8 39q0 23 11 45q12 26 33 26q4 0 4.5 -1t3.5 -1q15 0 59 27q37 22 47 31q23 22 50 49q-62 0 -133 -32q-58 -30 -116 -59q-65 -32 -109 -32q-123 0 -123 143q0 61 47 175q56 135 170 249q127 126 237 126q84 0 135 -51t51 -132z" />
<glyph unicode="t" horiz-adv-x="758" d="M828 728q0 -60 -33 -69q-19 -1 -49 -4q-87 -10 -255 -34v-247q8 -72 17 -190l2 -129q0 -21 -10 -43q-12 -28 -34 -28q-19 0 -32 26q-11 20 -11 33v103q0 -9 -4 57q-4 48 -11 142q-3 40 -1 109v153q-44 0 -130.5 -15t-116.5 -15q-60 0 -60 71q0 39 19 55.5t69 16.5 q-3 0 128 19q121 18 372 48q107 13 94 13q24 0 36 -26q10 -20 10 -46z" />
<glyph unicode="u" horiz-adv-x="812" d="M751 154q0 -13 -8 -44q-1 -29 -2 -57q-9 -55 -42 -55q-28 0 -44 54q-30 -10 -53 -14q-2 0 -151 -18l-78 -14q-62 -11 -98 -11q-114 0 -140 109q-19 79 -23 128q-12 142 -12 359q0 99 6 159q2 15 15 31t29 16q21 0 35 -29q11 -23 11 -41q-2 -17 -4 -45q-3 -80 -2 -122 q3 -53 7 -160q0 -90 2 -112q4 -66 18 -123q3 -11 17.5 -16.5t46.5 -5.5q14 0 133 19q59 6 118 13q68 8 114 27q-11 107 -26 323q-2 79 -2 187q0 77 45 77q20 0 34 -27q12 -21 12 -34v-149q0 -18 7 -135q9 -145 19 -220q4 -15 8 -29q8 -28 8 -41z" />
<glyph unicode="v" horiz-adv-x="672" d="M671 729q0 -35 -36 -83q-39 -54 -43 -72q-3 -6 -9 -16q-53 -116 -82 -189l-70 -186q-80 -185 -127 -185q-26 0 -60 62q-20 35 -31 66l-51 132q-40 126 -132 380q-9 21 -9 42q0 23 10 42q12 24 33 24q24 0 36 -21q5 -20 17 -60q2 -4 101 -297q44 -130 89 -222 q31 49 80 175q77 198 88 224q52 121 115 214q25 37 41 37q18 0 30 -26q10 -20 10 -41z" />
<glyph unicode="w" horiz-adv-x="899" d="M169 85q-3 28 -14 102q-17 107 -40 228q-15 65 -29 129q-25 119 -25 159q0 17 10 39q12 28 30 28q6 0 17 -9.5t14 -18.5q0 -1 17 -102q14 -61 38 -174q16 -93 49 -283q34 144 57 213q56 174 152 351q25 48 50 48q32 0 37 -46q-2 -26 0 -80q6 -40 44 -163q6 -18 51 -120 q41 -92 79 -163q9 32 53 202q31 123 57 193q9 25 35 101q26 81 54 81q22 0 32 -28q7 -17 7 -36q0 -22 -4 -30q-38 -90 -83 -232t-82 -320q-4 -33 -8 -67q-12 -55 -40 -55q-16 0 -34 15q-8 7 -16 28q-14 34 -28 59q-130 245 -182 449h-2q-95 -179 -151 -426q-5 -21 -11 -65 q0 -18 -4 -57q-9 -45 -44 -45q-9 0 -19 4q-59 24 -67 91z" />
<glyph unicode="x" horiz-adv-x="804" d="M744 725q0 -18 -9 -39q-13 -27 -31 -27q-4 0 -5 1t-5 1q-22 0 -124 -141q-98 -135 -98 -144q0 -3 10 -12q14 -13 17 -17q43 -52 87 -103q46 -61 46 -101q0 -21 -10 -44q-12 -30 -32 -30q-14 0 -23 11q-8 15 -23 40q-38 62 -134 159q-95 -136 -124 -211q-1 -13 -6 -37 q-21 -48 -48 -48q-18 0 -31 27q-9 21 -9 42q0 23 11 53q22 60 50 110q12 23 50 83q33 51 33 54q0 1 -28 29q-82 84 -211 244q-31 38 -31 73q0 22 10 41q13 24 33 24q37 0 50 -29q4 -14 12 -34q63 -89 226 -248q11 12 45 65q47 73 104 147q105 136 147 136q24 0 39 -28 q12 -22 12 -47z" />
<glyph unicode="y" horiz-adv-x="773" d="M755 727q0 -30 -20 -77q-37 -87 -37 -88q-18 -49 -45 -106q-67 -131 -197 -391q-5 -21 -11 -41q-14 -36 -37 -36q-41 0 -41 70q0 32 8.5 59t37.5 84q27 52 27 55t-96 99q-116 117 -149 152q-43 46 -130 154q-17 22 -17 58q0 22 11 43q13 26 34 26q16 0 28 -17 q45 -65 164 -191l210 -216q73 127 119 242q21 56 75 175q7 15 26 15q40 0 40 -69z" />
<glyph unicode="z" horiz-adv-x="906" d="M858 111q0 -24 -11 -47q-15 -28 -36 -28q-3 0 -24 10q-24 10 -34 13q-5 1 -59 1q-56 0 -107 -5q-99 -10 -327 -41q-17 -2 -68 -13q-45 -9 -53 -9q-27 0 -42 27q-11 21 -11 51q0 59 39 87q206 144 343 333q41 56 108 156q-11 2 -52 2q-4 0 -127 -7.5t-127 -7.5 q-56 0 -56 78q0 74 49 79q95 10 278 10q100 0 144 -4q11 -1 33 -12q15 -8 24 -35q6 -21 6 -40q0 -44 -19 -66q-58 -66 -171 -227q-97 -137 -193 -232q5 -3 19 -1q79 10 158 21q58 8 140 8q83 0 113 -10q63 -21 63 -91z" />
<glyph unicode="{" horiz-adv-x="512" d="M361 601q0 -25 -11 -47q-13 -26 -34 -26q-24 0 -80 58q-49 50 -66 79q-15 26 -15 56q0 20 10 44q14 33 37 33q11 0 19 -7q16 -22 53 -66q24 -21 49 -43q29 -26 35 -54q3 -12 3 -27zM381 375q0 -66 -33 -72q-32 -1 -93 -3q-41 -2 -64 -11q-35 -13 -32 -13q-24 0 -38 34 q-10 24 -10 43q0 14 7 35q9 27 23 35q56 30 156 30q47 0 65.5 -18t18.5 -60zM410 169q0 -9 1 -18.5t1 -11.5q0 -10 -21 -34q-24 -27 -72 -53q-40 -23 -81 -45q-16 -10 -31 -10q-24 0 -38 28q-12 23 -12 49q0 17 7 37q9 25 23 33q11 3 29 11q36 22 73 44q69 42 77 42 q44 0 44 -72z" />
<glyph unicode="|" horiz-adv-x="507" d="M319 742q0 -4 -3.5 -24t-3.5 -24v-664q0 -21 -18 -52q-20 -36 -43 -36q-26 0 -45 40q-15 30 -15 49v662q0 41 11 84q18 69 57 69q29 0 46 -39q14 -31 14 -65z" />
<glyph unicode="}" horiz-adv-x="563" d="M433 718q0 -46 -23 -63q-11 -2 -28 -8q-12 -8 -74 -85q-55 -69 -72 -69q-42 0 -42 71v23q2 8 15 35q7 15 70 89q74 86 99 86q27 0 42 -27q13 -22 13 -52zM410 356q0 -24 -12 -46q-12 -25 -28 -27q-24 1 -68 -2l-113 -15q-60 0 -60 73q0 66 38 72q110 18 173 18q2 0 30 -1 q18 -1 31 -33q9 -24 9 -39zM438 56q0 -75 -54 -75q-38 0 -91 39q-31 23 -93 80q-4 4 -9.5 23.5t-5.5 33.5q0 26 10 48q13 27 35 27q12 0 20 -7q43 -43 61 -58q35 -29 62 -39q14 2 37 -4q28 -24 28 -68z" />
<glyph unicode="~" horiz-adv-x="867" d="M713 431q0 -54 -34 -103q-40 -60 -109 -75q-32 -7 -38 -7q-51 0 -101 37q-9 7 -76 68q-39 37 -65 37q-35 0 -80 -52q-2 -9 -6 -29q-3 -13 -17.5 -26.5t-24.5 -13.5q-20 0 -31 27q-10 22 -10 45q0 58 50 119q55 66 119 66q43 0 86 -37q36 -34 71 -68q42 -37 85 -37 q21 0 52 13q38 16 44 39q3 23 5 46q9 41 35 41q23 0 35 -35q10 -26 10 -55z" />
<glyph unicode="&#xa3;" horiz-adv-x="1011" d="M889 67q0 -24 -11 -47q-14 -29 -38 -29q4 0 -59 14q-75 16 -165 28q-30 4 -112 4q-33 0 -75 -2q-25 0 -81 -8q-26 -5 -92 -23q-58 -16 -61 -16q-48 0 -48 75q0 55 30 71q9 5 75 22q32 8 71 43t54 68q12 25 30 80q-1 2 -12 2q-3 0 -45.5 -8.5t-46.5 -8.5q-24 0 -38 26 q-11 22 -11 49q0 62 38 74q49 15 148 22q4 3 6 7q21 114 68 188q63 102 162 102q72 0 118 -49t46 -116q0 -19 -10 -42q-14 -30 -34 -30q-21 0 -32 23q-18 37 -23 43q-21 23 -65 23q-49 0 -86 -43.5t-45 -97.5h143q19 0 33 -35q10 -26 10 -40q0 -17 -11 -43q-13 -32 -32 -32 h-178q-9 -36 -57 -174q0 1 143 -3q36 -1 139.5 -22t99.5 -21q3 0 4 1.5t4 1.5q20 0 35 -29q11 -25 11 -48z" />
<glyph unicode="&#xa5;" horiz-adv-x="1055" d="M970 569q0 -68 -39 -77q-21 -5 -53 -5q-47 0 -56 -1q0 -27 -8 -100q-11 -98 -121 -190q-90 -76 -172 -98q-24 -7 -64 -7q-17 0 -54 6q-3 -29 -6 -57q-10 -44 -41 -44q-41 0 -48 84q-2 30 -5 86q-2 21 -5 100q-1 48 -6 59q-35 -14 -69 -28q-54 -22 -72 -22q-25 0 -39 30 q-11 24 -11 53q0 27 10 50q13 30 36 30q3 0 9.5 -3t9.5 -3q13 0 125 55q1 29 -7 86q-1 3 -11.5 9t-13.5 11q-16 29 -16 62q0 38 44 88q7 12 14 22.5t24 10.5q3 0 8.5 -1.5t9.5 -1.5q3 0 19 6t22 8q55 13 103 13q182 0 287 -166q21 1 82 6q56 6 59 6q55 0 55 -77zM629 605 q-59 41 -142 41q-53 0 -110 -18q2 -39 7 -107q153 57 245 84zM727 436v34h-11q-126 -28 -327 -103q-1 -60 3 -107q14 -2 30 -11q11 -7 32 -7q55 0 138 49q87 51 118 106q17 32 17 39z" />
<glyph unicode="&#xa9;" horiz-adv-x="976" d="M888 429q0 -99 -44 -193q-26 -56 -38 -78q-29 -49 -70 -96q-18 -19 -57 -37q-33 -15 -59 -20q-47 -10 -115 -10q-129 0 -216 30q-30 10 -78 57q-96 95 -96 265q0 56 9 103q12 66 48 128q3 5 39 51.5t108 85.5q30 16 114 51q6 10 21 25q18 9 81 9q99 0 157 -23 q23 -8 35 -18q97 -80 133 -165q28 -65 28 -165zM803 437q0 49 -9.5 75t-49.5 72q-43 49 -73 60q-20 7 -59 13q-23 2 -67 7q-9 -37 -42 -37q-3 0 -19.5 2.5t-19.5 2.5q-25 0 -90 -32q-56 -27 -75.5 -42.5t-47.5 -51t-34 -54.5q-14 -42 -16 -60q-1 -6 -1 -47q0 -107 65 -154 q17 -15 46 -33q84 -22 113 -24h81q61 0 80 2q35 4 77 21.5t90 109.5q51 97 51 170zM677 315q0 -23 -12 -46q-14 -27 -34 -28q-2 0 -81 -18q-74 -18 -114 -18q-58 0 -104 41q-49 44 -49 107q0 15 10 46.5t18 42.5q15 22 31.5 45t34.5 37q59 47 103 47q49 0 83 -31t34 -80 q0 -27 -9 -49q-13 -30 -36 -30q-21 0 -30 25.5t-39 25.5q-20 0 -60.5 -27t-40.5 -44q0 -15 57 -17q36 0 91 13q80 19 87 20q2 0 8 2t10 2q19 0 32 -24q10 -20 10 -42z" />
<glyph unicode="&#xad;" d="M495 404q0 -24 -11 -47q-14 -26 -35 -26q-3 0 -7.5 1.5t-8.5 1.5q-47 0 -139 -21.5t-91 -21.5q-56 0 -56 74q0 55 30 71q22 4 63 14q129 33 201 33q25 0 41 -32q13 -25 13 -47z" />
<glyph unicode="&#xae;" horiz-adv-x="1019" d="M914 437q0 -52 -6 -91q-1 -7 -17 -55q-21 -66 -25 -76q-16 -41 -40 -74t-71 -68q-41 -31 -77 -46q-45 -19 -161 -19q-92 0 -174 17q-13 2 -81 40t-102 95q-16 29 -30.5 85t-14.5 87q0 41 18.5 115t34.5 99q9 16 29 44q178 189 302 189q3 0 32.5 -5.5t32.5 -5.5t42.5 2.5 t42.5 2.5q140 0 210 -115q55 -91 55 -221zM671 456q0 15 -34 28q-29 10 -45 10q-64 0 -140 -63q4 -30 3 -70q20 4 53 11q50 14 68 20q41 15 68 35.5t27 28.5zM833 444q0 28 -12 70q-38 126 -172 126q-44 0 -149 -19q-6 -1 -22 -9t-18 -8q-12 0 -33 21q-21 0 -99 -67 q-68 -58 -77.5 -70.5t-30.5 -48.5q-3 -6 -11 -41q-10 -42 -10 -65q0 -15 9 -46t20 -46q24 -30 91 -66q38 -21 48 -20h6q1 -5 1 213q0 25 -10.5 50.5t-10.5 42.5q0 7 5 26.5t8 22.5q46 48 109 83q68 37 117 37q67 0 119 -54t52 -122q0 -35 -20 -73q-22 -43 -59 -71 q27 -7 54 -13q34 -8 47 -33q48 107 48 180zM682 172q-161 31 -224 58q2 -77 -1 -86h121q31 -1 79 14q9 6 25 14z" />
<glyph unicode="&#xc9;" horiz-adv-x="648" d="M455 734q0 -24 -14 -50q-3 -6 -13 -10q-13 -6 -14 -7l-40 -40q-34 -33 -55 -33q-39 0 -39 66q0 32 11 48q13 9 33 24q20 23 63 64q5 4 20 4q48 0 48 -66zM589 142q0 -38 -16 -55q-31 -30 -124 -63q-81 -28 -150 -28q-41 0 -66 8q-55 18 -86 116q-24 75 -24 146v134 q0 3 -4 16.5t-4 16.5t4 19.5t5 21.5q6 36 8 42q11 30 34 30q12 0 21 -11.5t13 -11.5q3 0 12.5 4.5t12.5 5.5l138 28q53 11 119 11q51 0 63 -4q32 -12 32 -61q0 -16 -9 -38q-11 -29 -28 -29h-121q-27 0 -181 -37q-16 -4 -37 -16q0 -19 1 -58t1 -60q1 0 3.5 -1t6.5 -1 q3 0 132.5 39.5t132.5 39.5q19 0 31 -25q9 -20 9 -41q0 -60 -59 -72q-28 -9 -91 -28q-43 -13 -129 -41q16 -11 59 -11q62 0 99 13q33 11 102 40l24 14q19 11 27 11q19 0 30 -24q9 -19 9 -40z" />
<glyph unicode="&#xd1;" horiz-adv-x="677" d="M600 733q0 -59 -45 -94q-41 -32 -100 -32q-27 0 -69.5 12t-85.5 12q-118 0 -145 -36q-9 -18 -30 -39q-3 -1 -9 -1q-18 0 -30 24q-10 21 -10 42q0 86 84 122q55 23 139 23q51 0 88 -11.5t67 -11.5q40 0 60 14q7 6 21 28q10 15 26 15q39 0 39 -67zM618 144q0 -51 -2 -68 q-9 -55 -41 -55q-31 0 -341 310q-3 -10 1 -218q0 -7 2.5 -28t2.5 -24q0 -24 -9 -45q-11 -27 -31 -27q-23 0 -36 36q-10 28 -10 57v174q0 104 -9 159q0 6 -6 24t-6 25q0 18 13 48q16 38 37 38q14 0 27 -19q2 -13 12 -34q98 -101 232 -228q28 -25 79 -71q2 2 2 15 q0 88 -18.5 191t-18.5 99q0 21 10 42q12 26 31 26q48 0 68 -210q11 -113 11 -217z" />
<glyph unicode="&#xe9;" horiz-adv-x="648" d="M441 734q0 -24 -14 -50q-3 -6 -13 -10q-13 -6 -14 -7l-40 -40q-34 -33 -55 -33q-39 0 -39 66q0 32 11 48q13 9 33 24q20 23 63 64q5 4 20 4q48 0 48 -66zM575 142q0 -38 -16 -55q-31 -30 -124 -63q-81 -28 -150 -28q-41 0 -66 8q-55 18 -86 116q-24 75 -24 146v134 q0 3 -4 16.5t-4 16.5t4 19.5t5 21.5q6 36 8 42q11 30 34 30q12 0 21 -11.5t13 -11.5q3 0 12.5 4.5t12.5 5.5l138 28q53 11 119 11q51 0 63 -4q32 -12 32 -61q0 -16 -9 -38q-11 -29 -28 -29h-121q-27 0 -181 -37q-16 -4 -37 -16q0 -19 1 -58t1 -60q1 0 3.5 -1t6.5 -1 q3 0 132.5 39.5t132.5 39.5q19 0 31 -25q9 -20 9 -41q0 -60 -59 -72q-28 -9 -91 -28q-43 -13 -129 -41q16 -11 59 -11q62 0 99 13q33 11 102 40l24 14q19 11 27 11q19 0 30 -24q9 -19 9 -40z" />
<glyph unicode="&#xf1;" horiz-adv-x="733" d="M628 733q0 -59 -45 -94q-41 -32 -100 -32q-27 0 -69.5 12t-85.5 12q-118 0 -145 -36q-9 -18 -30 -39q-3 -1 -9 -1q-18 0 -30 24q-10 21 -10 42q0 86 84 122q55 23 139 23q51 0 88 -11.5t67 -11.5q40 0 60 14q7 6 21 28q10 15 26 15q39 0 39 -67zM646 144q0 -51 -2 -68 q-9 -55 -41 -55q-31 0 -341 310q-3 -10 1 -218q0 -7 2.5 -28t2.5 -24q0 -24 -9 -45q-11 -27 -31 -27q-23 0 -36 36q-10 28 -10 57v174q0 104 -9 159q0 6 -6 24t-6 25q0 18 13 48q16 38 37 38q14 0 27 -19q2 -13 12 -34q98 -101 232 -228q28 -25 79 -71q2 2 2 15 q0 88 -18.5 191t-18.5 99q0 21 10 42q12 26 31 26q48 0 68 -210q11 -113 11 -217z" />
<glyph unicode="&#x2000;" horiz-adv-x="430" />
<glyph unicode="&#x2001;" horiz-adv-x="860" />
<glyph unicode="&#x2002;" horiz-adv-x="430" />
<glyph unicode="&#x2003;" horiz-adv-x="860" />
<glyph unicode="&#x2004;" horiz-adv-x="286" />
<glyph unicode="&#x2005;" horiz-adv-x="215" />
<glyph unicode="&#x2006;" horiz-adv-x="143" />
<glyph unicode="&#x2007;" horiz-adv-x="143" />
<glyph unicode="&#x2008;" horiz-adv-x="107" />
<glyph unicode="&#x2009;" horiz-adv-x="172" />
<glyph unicode="&#x200a;" horiz-adv-x="47" />
<glyph unicode="&#x2010;" d="M495 404q0 -24 -11 -47q-14 -26 -35 -26q-3 0 -7.5 1.5t-8.5 1.5q-47 0 -139 -21.5t-91 -21.5q-56 0 -56 74q0 55 30 71q22 4 63 14q129 33 201 33q25 0 41 -32q13 -25 13 -47z" />
<glyph unicode="&#x2011;" d="M495 404q0 -24 -11 -47q-14 -26 -35 -26q-3 0 -7.5 1.5t-8.5 1.5q-47 0 -139 -21.5t-91 -21.5q-56 0 -56 74q0 55 30 71q22 4 63 14q129 33 201 33q25 0 41 -32q13 -25 13 -47z" />
<glyph unicode="&#x2012;" d="M495 404q0 -24 -11 -47q-14 -26 -35 -26q-3 0 -7.5 1.5t-8.5 1.5q-47 0 -139 -21.5t-91 -21.5q-56 0 -56 74q0 55 30 71q22 4 63 14q129 33 201 33q25 0 41 -32q13 -25 13 -47z" />
<glyph unicode="&#x2013;" horiz-adv-x="776" d="M647 404q0 -24 -16 -47q-20 -26 -50 -26q-4 0 -10.5 1.5t-12.5 1.5q-68 0 -200 -21.5t-131 -21.5q-80 0 -80 74q0 55 43 71q32 4 91 14q185 33 288 33q36 0 59 -32q19 -25 19 -47z" />
<glyph unicode="&#x2014;" horiz-adv-x="1276" d="M1147 404q0 -24 -32 -47q-40 -26 -100 -26q-9 0 -22 1.5t-24 1.5q-135 0 -399.5 -21.5t-261.5 -21.5q-161 0 -161 74q0 55 86 71q63 4 181 14q371 33 578 33q72 0 118 -32q37 -25 37 -47z" />
<glyph unicode="&#x202f;" horiz-adv-x="172" />
<glyph unicode="&#x205f;" horiz-adv-x="215" />
<glyph unicode="&#x2122;" horiz-adv-x="1011" d="M874 445q0 -22 -12 -43q-14 -27 -37 -27q-37 0 -48 50q-4 32 -7 64q0 19 -6 64q-8 -11 -25 -54t-29 -61q-20 -30 -43 -30q-31 0 -54 49l-24 64q-6 19 -23 57q-10 -43 -15 -94q-11 -94 -53 -94q-49 0 -49 72q0 57 26 174q35 156 82 156q31 0 49 -59q12 -21 33 -62 q10 -24 31 -70q4 2 7 12q15 44 40 92q45 87 81 87q18 0 32.5 -16.5t17.5 -40.5q26 -250 26 -290zM457 735q0 -23 -10 -41q-13 -23 -38 -23h-63v-212q0 -21 -14.5 -41t-35.5 -20q-18 0 -32.5 18t-14.5 31v212q-94 -10 -85 -10q-26 0 -41 20t-15 44q0 20 12.5 41t33.5 24 q179 26 239 26q64 0 64 -69z" />
<glyph unicode="&#xe000;" horiz-adv-x="800" d="M0 800h800v-800h-800v800z" />
</font>
</defs>
</svg>
