<?xml version="1.0" standalone="no"?>
<!DOCTYPE svg PUBLIC "-//W3C//DTD SVG 1.1//EN" "http://www.w3.org/Graphics/SVG/1.1/DTD/svg11.dtd" >
<svg xmlns="http://www.w3.org/2000/svg">
<metadata></metadata>
<defs>
<font id="okolaksbolditalic" horiz-adv-x="768" >
<font-face units-per-em="1024" ascent="811" descent="-213" />
<missing-glyph horiz-adv-x="640" />
<glyph horiz-adv-x="554" />
<glyph horiz-adv-x="554" />
<glyph unicode="&#xd;" horiz-adv-x="554" />
<glyph horiz-adv-x="554" />
<glyph horiz-adv-x="554" />
<glyph horiz-adv-x="554" />
<glyph horiz-adv-x="554" />
<glyph horiz-adv-x="554" />
<glyph horiz-adv-x="554" />
<glyph horiz-adv-x="554" />
<glyph horiz-adv-x="554" />
<glyph unicode="&#x9;" horiz-adv-x="554" />
<glyph unicode="&#xa;" horiz-adv-x="554" />
<glyph horiz-adv-x="554" />
<glyph horiz-adv-x="554" />
<glyph horiz-adv-x="554" />
<glyph horiz-adv-x="554" />
<glyph horiz-adv-x="554" />
<glyph horiz-adv-x="554" />
<glyph horiz-adv-x="554" />
<glyph horiz-adv-x="554" />
<glyph horiz-adv-x="554" />
<glyph horiz-adv-x="554" />
<glyph horiz-adv-x="554" />
<glyph horiz-adv-x="554" />
<glyph horiz-adv-x="554" />
<glyph horiz-adv-x="554" />
<glyph horiz-adv-x="554" />
<glyph horiz-adv-x="554" />
<glyph horiz-adv-x="554" />
<glyph horiz-adv-x="554" />
<glyph horiz-adv-x="554" />
<glyph horiz-adv-x="1024" />
<glyph unicode=" "  horiz-adv-x="640" />
<glyph unicode="&#x09;" horiz-adv-x="640" />
<glyph unicode="&#xa0;" horiz-adv-x="640" />
<glyph unicode="!" horiz-adv-x="256" d="M285 811l-84 -598h-128l84 598h128zM122 107q26 0 42.5 -19t12.5 -45q-4 -27 -25.5 -45.5t-47.5 -18.5q-27 0 -43 18.5t-12 45.5q4 26 25 45t48 19z" />
<glyph unicode="&#x22;" horiz-adv-x="426" d="M446 747q-5 -35 -30.5 -65.5t-32.5 -84.5h-42q7 53 -10.5 82t-12.5 68q4 29 25.5 46.5t47.5 17.5q25 0 42 -17.5t13 -46.5zM276 747q-5 -35 -31 -65.5t-33 -84.5h-42q7 53 -10 82t-12 68q4 29 25.5 46.5t47.5 17.5q25 0 42 -17.5t13 -46.5z" />
<glyph unicode="#" horiz-adv-x="725" d="M291 512h-134l6 43h149l123 256h46l-125 -256h186l123 256h46l-124 -256h131l-6 -43h-146l-83 -171h162l-6 -42h-177l-145 -299h-44l144 299h-185l-146 -299h-43l144 299h-102l6 42h117zM335 512l-82 -171h185l83 171h-186z" />
<glyph unicode="$" d="M716 236v-1q-12 -83 -104 -134.5t-222 -56.5l-18 -129h-43l18 128q-113 3 -187.5 42t-85.5 107h100q-7 -47 46.5 -75t132.5 -32l43 304q-66 21 -104 35t-76 33t-53 40.5t-12 46.5q9 61 92.5 117.5t199.5 62.5l12 87l43 -1l-12 -85q218 -8 239 -149h-100q7 47 -33 74.5 t-112 32.5l-37 -263q151 -48 216 -88t57 -96zM402 433l35 249q-68 -6 -109 -43.5t-49 -94.5q-6 -48 16 -66t87 -39q13 -4 20 -6zM437 375l-41 -289q75 6 128 46t62 103q8 59 -24.5 84.5t-124.5 55.5z" />
<glyph unicode="%" horiz-adv-x="832" d="M56 93l798 612l28 -46l-800 -608zM685 96l8 53q8 54 -67 54q-74 0 -82 -54l-8 -53q-3 -28 12 -46t53 -18t59.5 18t24.5 46zM751 107q-6 -46 -48 -76.5t-106 -30.5q-65 0 -97 30.5t-26 76.5l5 32q6 45 46 70.5t105 25.5q66 0 99 -26t27 -70zM365 629l8 54q7 53 -67 53 q-75 0 -82 -53l-8 -54q-4 -28 12 -46t54 -18t58.5 18t24.5 46zM431 640q-7 -46 -48 -76.5t-105 -30.5q-65 0 -98 30.5t-26 76.5l4 32q7 45 47 70.5t106 25.5t98.5 -25.5t25.5 -70.5z" />
<glyph unicode="&#x26;" horiz-adv-x="725" d="M399 525q8 5 35 17t42 21t31 29.5t20 47.5q5 34 -15 59.5t-47 25.5q-33 0 -61.5 -20t-34.5 -65q-3 -22 0.5 -43t8 -31.5t12.5 -25.5zM592 96l49 -96h-53l-31 65q-86 -65 -194 -65q-132 0 -217.5 62t-72.5 151l6 43q4 30 22 65.5t50 72.5t84.5 68.5t117.5 47.5 q-5 6 -12.5 16.5t-16.5 44t-4 69.5q9 63 54.5 95.5t96.5 32.5q45 0 75.5 -38t23.5 -90q-14 -96 -156 -149l149 -324q20 31 30 89h83q-13 -89 -84 -160zM531 125l-162 352q-60 -12 -102 -51.5t-48 -84.5l-24 -170q-7 -53 43.5 -90.5t130.5 -37.5q90 0 162 82z" />
<glyph unicode="'" horiz-adv-x="256" d="M276 747q-5 -35 -31 -65.5t-33 -84.5h-42q7 53 -10 82t-12 68q4 29 25.5 46.5t47.5 17.5q25 0 42 -17.5t13 -46.5z" />
<glyph unicode="(" horiz-adv-x="384" d="M413 811l-6 -43q-76 0 -105.5 -25t-37.5 -82l-81 -576q-8 -60 14.5 -94t95.5 -34l-6 -42q-128 0 -183.5 59.5t-42.5 153.5l69 491q13 92 83.5 142t199.5 50z" />
<glyph unicode=")" horiz-adv-x="384" d="M157 811q129 0 185.5 -50t43.5 -142l-69 -491q-13 -94 -85.5 -153.5t-200.5 -59.5l6 42q73 0 105.5 34t40.5 94l81 576q8 57 -15 82t-98 25z" />
<glyph unicode="*" horiz-adv-x="298" d="M178 512l27 35l17 -35l55 13l-18 -50l26 -27l-34 -27l4 -48l-51 11l-27 -35l-17 35l-56 -11l19 48l-26 27l34 27l-5 50z" />
<glyph unicode="+" horiz-adv-x="682" d="M486 725l-36 -256h213l-6 -42h-213l-36 -256h-128l36 256h-213l6 42h213l36 256h128z" />
<glyph unicode="," horiz-adv-x="298" d="M164 107q26 0 42.5 -17.5t12.5 -46.5q-5 -39 -50 -83t-88.5 -69.5t-56.5 -25.5l6 45q7 0 19.5 17t24.5 49t17 67q4 29 26 46.5t47 17.5z" />
<glyph unicode="-" horiz-adv-x="682" d="M663 469l-6 -42h-554l6 42h554z" />
<glyph unicode="." horiz-adv-x="256" d="M122 107q26 0 42.5 -19t12.5 -45q-4 -27 -25.5 -45.5t-47.5 -18.5q-27 0 -43 18.5t-12 45.5q4 26 25 45t48 19z" />
<glyph unicode="/" horiz-adv-x="640" d="M669 811l-584 -939h-60l581 939h63z" />
<glyph unicode="0" d="M579 171l63 448q7 50 -43.5 78t-133.5 28t-141.5 -27.5t-65.5 -78.5l-63 -448q-7 -53 43.5 -90.5t130.5 -37.5q79 0 141 37.5t69 90.5zM713 213q-13 -89 -115.5 -151t-234.5 -62q-134 0 -218 62.5t-72 150.5l51 363q12 87 111.5 139.5t235.5 52.5q137 0 221 -53t72 -139z " />
<glyph unicode="1" horiz-adv-x="341" d="M364 768l-108 -768h-128l99 707l-94 -66l9 63l94 64h128z" />
<glyph unicode="2" d="M471 768q53 0 99 -8.5t87.5 -27.5t62.5 -56t13 -89q-14 -106 -492 -544h448l-6 -43h-640q551 516 567 619q15 106 -145 106q-145 0 -170 -85h-125q55 128 301 128z" />
<glyph unicode="3" d="M471 768q128 0 196.5 -44t59.5 -105q-8 -56 -37.5 -79t-106.5 -48q71 -22 111 -77t31 -116l-12 -86q-13 -89 -115.5 -151t-234.5 -62q-134 0 -218 62.5t-72 150.5h128l-6 -42q-7 -53 43.5 -90.5t130.5 -37.5q83 0 141.5 28t65.5 78l30 214q7 53 -25 79.5t-110 26.5l6 43 q69 0 91 20t29 70l7 55q10 68 -139 68q-73 0 -121.5 -21.5t-61.5 -63.5h-107q55 128 296 128z" />
<glyph unicode="4" horiz-adv-x="682" d="M567 698l-418 -399h362zM705 768l-66 -469h43l-6 -43h-43l-36 -256h-128l36 256h-426l6 43l492 469h128z" />
<glyph unicode="5" d="M791 768l-6 -43h-512l-36 -256q90 43 198 43q137 0 221 -53t72 -139l-15 -107q-13 -89 -115.5 -151t-234.5 -62q-134 0 -218 62.5t-72 150.5h128l-6 -42q-7 -53 43.5 -90.5t130.5 -37.5q79 0 141 37.5t69 90.5l27 192q7 50 -43.5 78t-133.5 28t-141.5 -27.5t-65.5 -78.5 h-128l57 405h640zM201 213z" />
<glyph unicode="6" d="M222 363l-27 -192q-7 -53 43.5 -90.5t130.5 -37.5q79 0 141 37.5t69 90.5l27 192q7 50 -43.5 78t-133.5 28t-141.5 -27.5t-65.5 -78.5zM713 213q-13 -89 -115.5 -151t-234.5 -62q-134 0 -218 62.5t-72 150.5l51 363q12 87 111.5 139.5t235.5 52.5q120 0 200.5 -39 t91.5 -110h-121q7 50 -43.5 78t-133.5 28t-141.5 -27.5t-65.5 -78.5l-21 -150q90 43 198 43q137 0 221 -53t72 -139z" />
<glyph unicode="7" d="M625 725h-480l6 43h640l-26 -43l-433 -725h-141z" />
<glyph unicode="8" d="M713 213q-13 -89 -115.5 -151t-234.5 -62q-134 0 -218 62.5t-72 150.5l12 86q9 62 63.5 116.5t131.5 76.5q-60 23 -81.5 52.5t-15.5 74.5q9 63 85.5 106t202.5 43t189.5 -44.5t55.5 -104.5q-6 -46 -36.5 -75.5t-96.5 -51.5q71 -22 111 -77t31 -116zM579 171l24 170 q7 53 -44 90.5t-130 37.5q-80 0 -141.5 -37.5t-68.5 -90.5l-24 -170q-7 -53 43.5 -90.5t130.5 -37.5q79 0 141 37.5t69 90.5zM586 608l5 32q12 85 -126 85q-73 0 -109.5 -24.5t-41.5 -60.5l-5 -32q-7 -53 20 -74.5t106 -21.5q78 0 111 21.5t40 74.5z" />
<glyph unicode="9" d="M615 427l27 192q7 50 -43.5 78t-133.5 28t-141.5 -27.5t-65.5 -78.5l-27 -192q-7 -53 43.5 -90.5t130.5 -37.5q79 0 141 37.5t69 90.5zM713 213q-13 -89 -115.5 -151t-234.5 -62q-116 0 -197 48.5t-93 122.5h122q-7 -53 43.5 -90.5t130.5 -37.5q79 0 141 37.5t69 90.5 l18 128q-92 -43 -198 -43q-134 0 -218 62.5t-72 150.5l15 107q12 87 111.5 139.5t235.5 52.5q137 0 221 -53t72 -139z" />
<glyph unicode=":" horiz-adv-x="256" d="M106 448q4 26 25 45t48 19q26 0 42.5 -19t12.5 -45t-25.5 -45t-47.5 -19q-27 0 -43 19t-12 45zM49 43q4 26 25 45t48 19q26 0 42.5 -19t12.5 -45q-4 -27 -25.5 -45.5t-47.5 -18.5q-27 0 -43 18.5t-12 45.5z" />
<glyph unicode=";" horiz-adv-x="256" d="M106 448q4 26 25 45t48 19q26 0 42.5 -19t12.5 -45t-25.5 -45t-47.5 -19q-27 0 -43 19t-12 45zM49 43q4 29 26 46.5t47 17.5q26 0 42.5 -17.5t12.5 -46.5q-5 -39 -50.5 -83t-89 -69.5t-56.5 -25.5l6 45q7 0 19.5 17t25 49t17.5 67z" />
<glyph unicode="&#x3c;" horiz-adv-x="426" d="M140 363q56 -101 75.5 -126t42.5 -25q5 0 23.5 0.5t25.5 0.5q29 0 43.5 -19.5t11.5 -44.5q-4 -26 -23.5 -45t-49.5 -19q-43 0 -70 41.5t-125 236.5q150 193 190 235t83 42q30 0 44.5 -19t10.5 -45q-4 -25 -24 -44.5t-49 -19.5q-7 0 -25.5 0.5t-23.5 0.5q-23 0 -49.5 -25 t-110.5 -125z" />
<glyph unicode="=" horiz-adv-x="682" d="M97 384h554l-6 -43h-554zM121 555h554l-6 -43h-554z" />
<glyph unicode="&#x3e;" horiz-adv-x="426" d="M346 363q-56 100 -75.5 125t-42.5 25q-5 0 -23.5 -0.5t-25.5 -0.5q-29 0 -44 19.5t-11 44.5q4 26 23.5 45t49.5 19q43 0 71 -42t124 -235q-152 -195 -191 -236.5t-82 -41.5q-30 0 -44.5 19t-10.5 45q3 25 23.5 44.5t49.5 19.5q7 0 25.5 -0.5t23.5 -0.5q23 0 49.5 25 t110.5 126z" />
<glyph unicode="?" horiz-adv-x="682" d="M371 213h-128v1l12 83q2 10 8.5 19.5t19 19.5t24 18t32.5 19t35 17.5t42 20t42 20.5q77 38 96 177q10 67 -21 113.5t-105 46.5q-156 0 -171 -107h-121q64 150 298 150q121 0 189.5 -67.5t58.5 -135.5q-4 -32 -13.5 -57.5t-32.5 -56t-67 -58t-108 -50.5q-39 -14 -56 -38.5 t-24 -64.5zM222 64q4 26 25.5 45t47.5 19q27 0 43 -19t12 -45t-25 -45t-48 -19q-26 0 -42.5 19t-12.5 45z" />
<glyph unicode="@" horiz-adv-x="1408" d="M946 41l10 -41q-133 -43 -279 -43q-174 0 -313.5 57t-211 155.5t-55.5 214.5t115.5 214.5t255 155.5t329.5 57t313.5 -57t211 -155.5t55.5 -214.5q-15 -106 -130.5 -181t-247.5 -75q-34 0 -55.5 5t-28.5 11.5t-16.5 11.5t-22.5 5q-1 0 -65 -16.5t-132 -16.5 q-134 0 -218 62.5t-72 150.5l15 107q12 87 111.5 139.5t235.5 52.5q138 0 221.5 -53t71.5 -139l-29 -207q-10 -70 6 -70q95 0 187.5 63t104.5 150q15 104 -50 192.5t-190.5 140t-281.5 51.5t-296.5 -51.5t-229.5 -140t-104 -192.5t49.5 -192.5t190.5 -140t282 -51.5 q136 0 263 41zM895 299l27 192q7 51 -43.5 78.5t-133.5 27.5t-141.5 -28t-65.5 -78l-27 -192q-7 -53 44 -90.5t130 -37.5q80 0 141.5 37.5t68.5 90.5z" />
<glyph unicode="A" d="M621 469l21 150q7 50 -43.5 78t-133.5 28t-141.5 -27.5t-65.5 -78.5l-21 -150h384zM683 0h-128l60 427h-384l-60 -427h-128l81 576q12 87 111.5 139.5t235.5 52.5q137 0 221 -53t72 -139z" />
<glyph unicode="B" d="M594 587l5 32q15 106 -177 106q-27 0 -40.5 -0.5t-35 -2t-32.5 -6t-23.5 -12t-19 -20t-8.5 -29.5l-26 -186h192q81 0 118.5 25.5t46.5 92.5zM187 113q-3 -17 1.5 -29.5t18.5 -20t27 -12t39.5 -6t43.5 -2t52 -0.5q79 0 141 37.5t69 90.5l21 149q7 51 -43.5 79t-133.5 28 h-192zM449 768q127 0 206 -48t68 -126v-1q-7 -49 -40 -83.5t-110 -59.5q77 -23 116 -78t27 -137q-13 -92 -118 -163.5t-235 -71.5h-320l108 768h298zM151 768z" />
<glyph unicode="C" d="M770 619h-107q7 50 -53 78t-145 28q-83 0 -141.5 -27.5t-65.5 -78.5l-63 -448q-7 -53 43.5 -90.5t130.5 -37.5q81 0 152.5 38t78.5 90h107q-33 -74 -131 -122.5t-213 -48.5q-134 0 -218 62.5t-72 150.5l51 363q12 87 111.5 139.5t235.5 52.5q121 0 204.5 -39t94.5 -110z " />
<glyph unicode="D" d="M713 213q-13 -89 -115.5 -151t-234.5 -62h-320l108 768h320q137 0 221 -53t72 -139zM579 171l63 448q7 50 -43.5 78t-133.5 28q-35 0 -52 -0.5t-44.5 -2t-41.5 -6t-30 -12t-24 -20t-10 -29.5l-76 -542q-3 -17 1.5 -29.5t18.5 -20t27 -12t39.5 -6t43.5 -2t52 -0.5 q79 0 141 37.5t69 90.5z" />
<glyph unicode="E" d="M791 768l-6 -43h-384q-28 0 -41.5 -0.5t-34 -4t-30.5 -10.5t-19.5 -21t-12.5 -34l-26 -186h384l-6 -42h-384l-44 -314q-3 -20 2.5 -34t13.5 -21t27.5 -10.5t33 -4t41.5 -0.5h384l-6 -43h-640l108 768h640z" />
<glyph unicode="F" d="M791 768l-6 -43h-384q-28 0 -41.5 -0.5t-34 -4t-30.5 -10.5t-19.5 -21t-12.5 -34l-26 -186h384l-6 -42h-384l-60 -427h-128l108 768h640z" />
<glyph unicode="G" d="M731 341l-48 -341q-13 -89 -115.5 -151t-234.5 -62q-117 0 -197.5 48t-92.5 122h100q-7 -51 54 -89.5t142 -38.5q79 0 141 37.5t69 90.5l12 86q-92 -43 -198 -43q-134 0 -218 62.5t-72 150.5l51 363q12 87 111.5 139.5t235.5 52.5q137 0 221 -53t72 -139l-3 -21h-128 l9 64q7 50 -43.5 78t-133.5 28t-141.5 -27.5t-65.5 -78.5l-63 -448q-7 -53 43.5 -90.5t130.5 -37.5q79 0 141 37.5t69 90.5l24 170h128z" />
<glyph unicode="H" d="M791 768l-108 -768h-128l60 427h-384l-60 -427h-128l108 768h128l-42 -299h384l42 299h128z" />
<glyph unicode="I" horiz-adv-x="256" d="M279 768l-108 -768h-128l108 768h128z" />
<glyph unicode="J" horiz-adv-x="341" d="M364 768l-123 -876q-4 -25 -45.5 -65t-97.5 -40q-60 0 -84 9l7 46q23 -13 67 -13q16 0 26 71l116 825h-85l6 43h213z" />
<glyph unicode="K" d="M43 0l108 768h128l-26 -185l506 185l27 -36l-299 -110q133 -14 199 -74t54 -143l-41 -292q-10 -70 6 -70q24 0 72 24l-6 -46q-63 -21 -88 -21q-57 0 -87.5 36t-27.5 60l50 352q9 64 -49.5 101.5t-178.5 37.5l-144 -53l-75 -534h-128z" />
<glyph unicode="L" horiz-adv-x="597" d="M279 768l-102 -725h341l-6 -43h-341h-128l6 43l102 725h128z" />
<glyph unicode="M" horiz-adv-x="1109" d="M1024 0h-128l84 597q8 57 -24 92.5t-107 35.5q-76 0 -118 -35.5t-50 -92.5l-42 -298h-128l42 298q8 57 -24 92.5t-107 35.5t-117 -35.5t-50 -92.5l-84 -597h-128l78 555q13 90 99 151.5t208 61.5q73 0 115.5 -20.5t85.5 -64.5q55 44 103.5 64.5t122.5 20.5q138 0 199 -59 t48 -154z" />
<glyph unicode="N" d="M151 768h320q137 0 221 -53t72 -139l-81 -576h-128l87 619q7 50 -43.5 78t-133.5 28t-141.5 -27.5t-65.5 -78.5l-87 -619h-128z" />
<glyph unicode="O" d="M579 171l63 448q7 50 -43.5 78t-133.5 28t-141.5 -27.5t-65.5 -78.5l-63 -448q-7 -53 43.5 -90.5t130.5 -37.5q79 0 141 37.5t69 90.5zM713 213q-13 -89 -115.5 -151t-234.5 -62q-134 0 -218 62.5t-72 150.5l51 363q12 87 111.5 139.5t235.5 52.5q137 0 221 -53t72 -139z " />
<glyph unicode="P" d="M151 768h320q137 0 221 -53t72 -139l-15 -107q-13 -89 -115.5 -151t-234.5 -62q-108 0 -186 43l-42 -299h-128zM615 427l27 192q7 50 -43.5 78t-133.5 28t-141.5 -27.5t-65.5 -78.5l-27 -192q-7 -53 43.5 -90.5t130.5 -37.5q79 0 141 37.5t69 90.5z" />
<glyph unicode="Q" d="M579 171l63 448q7 50 -43.5 78t-133.5 28t-141.5 -27.5t-65.5 -78.5l-63 -448q-7 -53 43.5 -90.5t130.5 -37.5q79 0 141 37.5t69 90.5zM313 2q-114 12 -182.5 72t-57.5 139l51 363q12 87 111.5 139.5t235.5 52.5q137 0 221 -53t72 -139l-51 -363q-9 -63 -65.5 -114.5 t-142.5 -77.5q-32 -8 -66 -20.5t-69.5 -31t-60 -44t-28.5 -53.5h256l-6 -43h-384q4 29 9.5 46t21.5 40t49 44t86 43z" />
<glyph unicode="R" d="M593 575l6 44q7 51 -43.5 78.5t-133.5 27.5q-66 0 -111.5 -27.5t-52.5 -78.5l-11 -78q-4 -26 7.5 -41t42 -21.5t56 -8t76.5 -1.5q73 0 115.5 32t48.5 74zM449 768q81 0 144.5 -17.5t101 -57t29.5 -96.5v-1q-7 -51 -40.5 -86t-110.5 -60q76 -22 116.5 -67.5t32.5 -105.5 l-23 -164q-10 -70 6 -70q26 0 72 23l-6 -46q-60 -20 -88 -20q-56 0 -86.5 40t-26.5 66l30 214q7 51 -43.5 79t-133.5 28h-192l-60 -427h-128l108 768h298z" />
<glyph unicode="S" d="M713 214v-1q-13 -89 -116 -151t-236 -62q-120 0 -200.5 39t-92.5 110h100q-5 -33 23.5 -58t75 -36.5t100.5 -11.5q82 0 142.5 40.5t70.5 108.5t-31 114.5t-134 76.5q-274 89 -259 193q9 66 100.5 129t214.5 63q236 0 260 -149h-100q7 51 -39 78.5t-127 27.5 q-77 0 -124 -38t-56 -100q-8 -59 25 -96.5t111 -62.5q153 -50 227 -101.5t65 -112.5z" />
<glyph unicode="T" d="M791 768l-6 -43h-256l-102 -725h-128l102 725h-256l6 43h640z" />
<glyph unicode="U" d="M791 768l-92 -655q-10 -70 6 -70q26 0 72 23l-6 -46q-60 -20 -88 -20q-34 0 -56 5t-29 11.5t-16 11.5t-22 5q-2 0 -65.5 -16.5t-131.5 -16.5q-134 0 -218 62.5t-72 150.5l78 555h128l-84 -597q-7 -53 43.5 -90.5t130.5 -37.5q79 0 141 37.5t69 90.5l84 597h128z" />
<glyph unicode="V" d="M791 768l-54 -384q-6 -46 -41.5 -110.5t-85.5 -126t-117.5 -104.5t-129.5 -43q-64 0 -119.5 43.5t-87.5 105t-48.5 126t-10.5 109.5l54 384h128l-77 -544q-8 -58 42 -119.5t125 -61.5q74 0 141.5 62t75.5 119l77 544h128z" />
<glyph unicode="W" horiz-adv-x="1109" d="M1132 768l-78 -555q-13 -94 -92 -153.5t-215 -59.5q-74 0 -116.5 20.5t-85.5 64.5q-55 -44 -103.5 -64.5t-121.5 -20.5q-125 0 -192.5 61.5t-54.5 151.5l78 555h128l-84 -597q-8 -57 24 -92.5t107 -35.5t117 35.5t50 92.5l42 298h128l-42 -298q-8 -57 24 -92.5t108 -35.5 q75 0 117 35.5t50 92.5l84 597h128z" />
<glyph unicode="X" d="M791 768l-18 -128q-9 -61 -63.5 -112t-136.5 -78q76 -22 116.5 -67.5t32.5 -105.5l-39 -277h-128l45 320q7 51 -43.5 79t-133.5 28t-141.5 -28t-65.5 -79l-45 -320h-128l39 277q9 61 61.5 105.5t134.5 67.5q-74 27 -114 78t-31 112l18 128h128l-24 -171 q-8 -53 43.5 -90.5t130.5 -37.5t140.5 37.5t69.5 90.5l24 171h128z" />
<glyph unicode="Y" d="M549 -43l12 86q-92 -43 -198 -43q-134 0 -218 62.5t-72 151.5l78 554h128l-84 -596q-7 -54 43.5 -91.5t130.5 -37.5q79 0 141 37.5t69 91.5l84 596h128l-108 -768q-10 -72 -61 -121t-124.5 -70.5t-164.5 -21.5q-99 0 -173 35.5t-103 92.5h94q19 -37 72 -61.5t116 -24.5 q79 0 141 37.5t69 90.5z" />
<glyph unicode="Z" d="M791 768l-34 -43l-529 -682h461l-6 -43h-640l32 43l530 682h-418l6 43h598zM75 43zM757 725z" />
<glyph unicode="[" horiz-adv-x="298" d="M370 811l-6 -43h-85l-138 -981h85l-6 -43h-213l150 1067h213z" />
<glyph unicode="\" horiz-adv-x="640" d="M157 810l63 1l317 -939h-61z" />
<glyph unicode="]" horiz-adv-x="341" d="M413 811l-150 -1067h-214l6 43h86l138 981h-86l6 43h214z" />
<glyph unicode="^" horiz-adv-x="640" d="M645 640q-4 -30 -25.5 -47t-47.5 -17q-25 0 -42 17t-13 47q3 24 0.5 41t-17.5 34t-23 22.5t-38 25.5q-6 5 -10 7q-70 -39 -89 -56q-31 -28 -37 -74q-4 -30 -26 -47t-47 -17q-26 0 -42.5 17t-12.5 47q3 25 53 57t160 90q30 16 46 24q146 -92 174 -114q40 -34 37 -57z" />
<glyph unicode="_" d="M19 -171h682l-6 -42h-682z" />
<glyph unicode="`" horiz-adv-x="256" d="M270 704q-5 -35 0 -56.5t12.5 -27.5t16.5 -6q0 -2 -1.5 -8.5t-2.5 -10.5t-2.5 -9t-5 -7.5t-8.5 -2.5q-14 0 -46.5 14t-64 45.5t-26.5 68.5q4 30 25.5 47t47.5 17q25 0 42 -17t13 -47z" />
<glyph unicode="a" d="M579 171l27 192q7 50 -43.5 78t-133.5 28t-141.5 -27.5t-65.5 -78.5l-27 -192q-7 -53 43.5 -90.5t130.5 -37.5q79 0 141 37.5t69 90.5zM700 124q-11 -81 5 -81q24 0 72 24l-6 -46q-63 -21 -88 -21q-34 0 -55.5 7t-28.5 15t-16 15t-22 7q-8 0 -34.5 -11t-70 -22t-93.5 -11 q-134 0 -218 62.5t-72 150.5l15 107q12 87 111.5 139.5t235.5 52.5q137 0 221 -53t72 -139z" />
<glyph unicode="b" d="M279 768l-42 -299q90 43 198 43q137 0 221 -53t72 -139l-15 -107q-13 -89 -115.5 -151t-234.5 -62q-134 0 -218 62.5t-72 150.5l78 555h128zM222 363l-27 -192q-7 -53 43.5 -90.5t130.5 -37.5q79 0 141 37.5t69 90.5l27 192q7 50 -43.5 78t-133.5 28t-141.5 -27.5 t-65.5 -78.5z" />
<glyph unicode="c" d="M727 363h-100q7 50 -53 78t-145 28q-83 0 -141.5 -27.5t-65.5 -78.5l-27 -192q-7 -53 43.5 -90.5t130.5 -37.5q81 0 152.5 38t78.5 90h100q-33 -74 -127.5 -122.5t-209.5 -48.5q-134 0 -218 62.5t-72 150.5l15 107q12 87 111.5 139.5t235.5 52.5q120 0 200.5 -39 t91.5 -110z" />
<glyph unicode="d" d="M561 44q-33 0 -84.5 -22t-113.5 -22q-134 0 -218 62.5t-72 150.5l15 107q12 87 111.5 139.5t235.5 52.5q106 0 186 -43l42 299h128l-91 -644q-11 -81 5 -81q24 0 72 24l-6 -46q-63 -21 -88 -21q-34 0 -55.5 7t-28.5 15t-16 15t-22 7zM579 171l27 192q7 50 -43.5 78 t-133.5 28t-141.5 -27.5t-65.5 -78.5l-27 -192q-7 -53 43.5 -90.5t130.5 -37.5q79 0 141 37.5t69 90.5z" />
<glyph unicode="e" d="M729 326q-3 -17 -14 -29.5t-31.5 -20t-39 -12t-48.5 -6t-47 -2t-46 -0.5h-296l-12 -85q-7 -53 43.5 -90.5t130.5 -37.5q63 0 127.5 24.5t93.5 60.5h100q-45 -57 -136.5 -92.5t-190.5 -35.5q-134 0 -218 62.5t-72 150.5l15 107q12 87 111.5 139.5t235.5 52.5 q131 0 217.5 -57.5t76.5 -128.5zM602 368q4 35 -47 68t-126 33q-80 0 -141.5 -37.5t-68.5 -90.5l-6 -42h238q31 0 46.5 0.5t37.5 4t33.5 10.5t21 20.5t12.5 33.5z" />
<glyph unicode="f" horiz-adv-x="469" d="M210 -21q-27 -192 -240 -192l6 42q45 0 68.5 26.5t31.5 80.5l75 533h-42l6 43h42l9 64q12 88 115 140t254 52l-6 -43q-86 0 -154 -28t-75 -78l-15 -107h171l-6 -43h-171z" />
<glyph unicode="g" d="M549 -43l12 86q-92 -43 -198 -43q-134 0 -218 62.5t-72 150.5l15 107q12 87 111.5 139.5t235.5 52.5q137 0 221 -53t72 -139l-45 -320q-13 -89 -115.5 -151t-234.5 -62q-99 0 -173 35.5t-103 92.5h94q19 -37 72 -61.5t116 -24.5q79 0 141 37.5t69 90.5zM579 171l27 192 q7 50 -43.5 78t-133.5 28t-141.5 -27.5t-65.5 -78.5l-27 -192q-7 -53 43.5 -90.5t130.5 -37.5q79 0 141 37.5t69 90.5z" />
<glyph unicode="h" d="M279 768l-41 -290q87 34 197 34q137 0 221 -53t72 -139l-29 -207q-10 -70 6 -70q24 0 72 24l-6 -46q-63 -21 -88 -21q-57 0 -87.5 36t-27.5 60l38 267q7 50 -43.5 78t-133.5 28t-141.5 -27.5t-65.5 -78.5l-51 -363h-128l108 768h128z" />
<glyph unicode="i" horiz-adv-x="341" d="M142 704q4 26 25 45t48 19q26 0 42.5 -19t12.5 -45t-25.5 -45t-47.5 -19q-27 0 -43 19t-12 45zM243 512l-56 -399q-10 -70 6 -70q38 0 118 44l-6 -45q-74 -42 -134 -42q-56 0 -86.5 40t-26.5 66l57 406h128z" />
<glyph unicode="j" horiz-adv-x="256" d="M142 704q4 26 25 45t48 19q26 0 42.5 -19t12.5 -45t-25.5 -45t-47.5 -19q-27 0 -43 19t-12 45zM243 512l-87 -620q-4 -25 -45.5 -65t-97.5 -40q-39 0 -63 9l7 46q23 -13 46 -13q16 0 26 71l86 612h128z" />
<glyph unicode="k" d="M279 768l-62 -441l506 185l27 -36l-242 -89q101 -15 157.5 -64t46.5 -120l-13 -90q-10 -70 6 -70q24 0 72 24l-6 -46q-63 -21 -88 -21q-57 0 -87.5 36t-27.5 60l21 149q8 51 -43 79t-134 28l-202 -74l-39 -278h-128l108 768h128z" />
<glyph unicode="l" horiz-adv-x="341" d="M279 768l-92 -655q-10 -70 6 -70q38 0 118 44l-6 -45q-74 -42 -134 -42q-56 0 -86.5 40t-26.5 66l93 662h128z" />
<glyph unicode="m" horiz-adv-x="1109" d="M243 512l-5 -34q37 15 51.5 19.5t41.5 9.5t61 5q74 0 117.5 -17t85.5 -54q54 37 102 54t122 17q140 0 201.5 -50.5t48.5 -141.5l-28 -196q-11 -81 5 -81q24 0 72 24l-6 -46q-62 -21 -88 -21q-55 0 -85 44.5t-27 71.5l35 247q7 53 -24.5 79.5t-109.5 26.5t-118 -26.5 t-47 -79.5l-51 -363h-128l51 363q8 54 -24 80t-110 26t-117 -26t-47 -80l-51 -363h-128l72 512h128z" />
<glyph unicode="n" d="M243 512l-5 -34q87 34 197 34q137 0 221 -53t72 -139l-28 -196q-11 -81 5 -81q24 0 72 24l-6 -46q-63 -21 -88 -21q-56 0 -85.5 44.5t-26.5 71.5l35 247q7 50 -43.5 78t-133.5 28t-141.5 -27.5t-65.5 -78.5l-40 -282l-11 -81h-128l72 512h128z" />
<glyph unicode="o" d="M579 171l27 192q7 50 -43.5 78t-133.5 28t-141.5 -27.5t-65.5 -78.5l-27 -192q-7 -53 43.5 -90.5t130.5 -37.5q79 0 141 37.5t69 90.5zM713 213q-13 -89 -115.5 -151t-234.5 -62q-134 0 -218 62.5t-72 150.5l15 107q12 87 111.5 139.5t235.5 52.5q137 0 221 -53t72 -139z " />
<glyph unicode="p" d="M243 512l-5 -34q87 34 197 34q137 0 221 -53t72 -139l-15 -107q-13 -89 -115.5 -151t-234.5 -62q-108 0 -186 43l-36 -256h-128l102 725h128zM579 171l27 192q7 50 -43.5 78t-133.5 28t-141.5 -27.5t-65.5 -78.5l-27 -192q-7 -53 43.5 -90.5t130.5 -37.5q79 0 141 37.5 t69 90.5z" />
<glyph unicode="q" d="M755 512l-102 -725h-128l36 256q-92 -43 -198 -43q-132 0 -217.5 62t-72.5 151l15 107q12 86 110.5 139t236.5 53q109 0 187 -34l5 34h128zM579 171l27 192q7 50 -43.5 78t-133.5 28t-141.5 -27.5t-65.5 -78.5l-27 -192q-7 -53 43.5 -90.5t130.5 -37.5q79 0 141 37.5 t69 90.5z" />
<glyph unicode="r" horiz-adv-x="426" d="M413 512l-6 -43q-80 0 -129 -27t-56 -79l-51 -363h-128l72 512h128l-5 -34q87 34 175 34z" />
<glyph unicode="s" d="M445 512q122 0 182.5 -23t84.5 -84h-100q-15 39 -55.5 51.5t-117.5 12.5q-83 0 -129.5 -22t-54.5 -74q-3 -27 20.5 -44.5t56.5 -23.5t73 -6q146 0 226.5 -48t72.5 -101v-1q-6 -43 -35 -73t-77.5 -46t-104 -23t-126.5 -7q-120 0 -200.5 39t-92.5 110h102q-7 -50 52.5 -78 t144.5 -28q91 0 146 23t63 84q15 106 -177 106q-114 0 -196.5 32.5t-75.5 84.5q9 59 98.5 99t219.5 40z" />
<glyph unicode="t" horiz-adv-x="384" d="M321 768l-36 -256h128l-6 -43h-128l-50 -356q-10 -70 6 -70q38 0 118 44l-6 -45q-73 -42 -134 -42q-56 0 -86.5 40t-26.5 66l51 363h-42l6 43h42l36 256h128z" />
<glyph unicode="u" d="M755 512l-55 -388q-11 -81 5 -81q24 0 72 24l-6 -46q-63 -21 -88 -21q-34 0 -56 5t-29 11.5t-16 11.5t-22 5q-2 0 -65.5 -16.5t-131.5 -16.5q-134 0 -218 62.5t-72 150.5l42 299h128l-48 -341q-7 -53 43.5 -90.5t130.5 -37.5q79 0 141 37.5t69 90.5l48 341h128z" />
<glyph unicode="v" d="M755 512l-21 -149q-6 -46 -41 -107.5t-84.5 -119t-116.5 -97t-129 -39.5q-64 0 -120 40t-89 97.5t-49.5 119t-10.5 106.5l21 149h128l-36 -256q-9 -61 40 -137t122 -76q72 0 143 76.5t79 136.5l36 256h128z" />
<glyph unicode="w" horiz-adv-x="1109" d="M1096 512l-42 -299q-13 -94 -92 -153.5t-215 -59.5q-74 0 -116.5 20.5t-85.5 64.5q-55 -44 -103.5 -64.5t-121.5 -20.5q-125 0 -192.5 61.5t-54.5 151.5l42 299h128l-48 -341q-8 -57 24 -92.5t107 -35.5t117 35.5t50 92.5l30 213h128l-30 -213q-8 -57 24 -92.5t108 -35.5 q75 0 117 35.5t50 92.5l48 341h128z" />
<glyph unicode="x" d="M755 512l-6 -43q-9 -61 -63.5 -111.5t-136.5 -78.5q76 -22 116.5 -67t32.5 -105l-15 -107h-128l24 171q7 48 -41.5 66.5t-138.5 18.5q-43 0 -75.5 -3.5t-62 -12.5t-46 -26.5t-20.5 -42.5l-24 -171h-128l15 107q9 61 61.5 105.5t134.5 66.5q-74 27 -114 78t-31 112l6 43 h128l-16 -117q-14 -96 178 -96q86 0 142 23t64 73l16 117h128z" />
<glyph unicode="y" d="M755 512l-72 -512q-13 -89 -115.5 -151t-234.5 -62q-99 0 -173 35.5t-103 92.5h94q19 -37 72 -61.5t116 -24.5q79 0 141 37.5t69 90.5l12 86q-92 -43 -198 -43q-134 0 -218 62.5t-72 151.5l42 298h128l-48 -340q-7 -54 43.5 -91.5t130.5 -37.5q79 0 141 37.5t69 91.5 l48 340h128z" />
<glyph unicode="z" d="M261 43h428l-6 -43h-640l493 469h-385l6 43h598z" />
<glyph unicode="{" horiz-adv-x="426" d="M81 272zM498 811l-6 -43q-76 0 -105.5 -25t-37.5 -82l-24 -170q-7 -47 -39.5 -108t-74.5 -95l-2 -21q32 -34 47.5 -95t8.5 -108l-24 -171q-8 -56 15 -81t98 -25l-6 -43q-129 0 -185.5 50t-43.5 142l28 197q6 43 -16.5 83.5t-49.5 55.5l2 11q31 15 64.5 55t39.5 83l28 198 q13 92 83.5 142t199.5 50zM147 133zM83 283zM187 421z" />
<glyph unicode="|" horiz-adv-x="170" d="M199 810l-144 -1023h-42l144 1024z" />
<glyph unicode="}" horiz-adv-x="469" d="M465 272zM199 811q129 0 185.5 -50t43.5 -142l-28 -198q-6 -43 17 -83t50 -55l-2 -11q-31 -15 -65 -55.5t-40 -83.5l-28 -197q-13 -92 -83.5 -142t-199.5 -50l6 43q75 0 105 25t38 81l24 171q7 47 39.5 108t75.5 95l2 21q-33 34 -48.5 95t-8.5 108l24 170q8 57 -14.5 82 t-98.5 25zM360 133zM467 283zM400 421z" />
<glyph unicode="~" d="M712 512q-6 -41 -60 -95t-108 -54q-40 0 -68.5 17.5t-45 42.5t-30 50t-31 42.5t-40.5 17.5q-41 0 -56 -106h-128q6 41 60.5 95t108.5 54q43 0 73 -17.5t45 -43t27 -50.5t28.5 -42.5t40.5 -17.5q41 0 56 107h128z" />
<glyph horiz-adv-x="554" />
<glyph horiz-adv-x="554" />
<glyph horiz-adv-x="554" />
<glyph horiz-adv-x="554" />
<glyph horiz-adv-x="554" />
<glyph horiz-adv-x="554" />
<glyph unicode="&#x85;" horiz-adv-x="554" />
<glyph horiz-adv-x="554" />
<glyph horiz-adv-x="554" />
<glyph horiz-adv-x="554" />
<glyph horiz-adv-x="554" />
<glyph horiz-adv-x="554" />
<glyph horiz-adv-x="554" />
<glyph horiz-adv-x="554" />
<glyph horiz-adv-x="554" />
<glyph horiz-adv-x="554" />
<glyph horiz-adv-x="554" />
<glyph horiz-adv-x="554" />
<glyph horiz-adv-x="554" />
<glyph horiz-adv-x="554" />
<glyph horiz-adv-x="554" />
<glyph horiz-adv-x="554" />
<glyph horiz-adv-x="554" />
<glyph horiz-adv-x="554" />
<glyph horiz-adv-x="554" />
<glyph horiz-adv-x="554" />
<glyph horiz-adv-x="554" />
<glyph horiz-adv-x="554" />
<glyph horiz-adv-x="554" />
<glyph horiz-adv-x="554" />
<glyph unicode="&#xa1;" horiz-adv-x="256" d="M255 597l-84 -597h-128l84 597h128zM221 811q26 0 42.5 -19t12.5 -45q-4 -27 -25.5 -45.5t-47.5 -18.5q-27 0 -43 18.5t-12 45.5q4 26 25 45t48 19z" />
<glyph unicode="&#xa2;" d="M207 256q-7 -49 37 -86t115 -42l60 427q-77 -5 -127.5 -32.5t-57.5 -74.5zM739 448h-100q7 47 -45.5 74.5t-131.5 32.5l-60 -426q77 5 140 42t70 85h100q-32 -71 -119.5 -118.5t-196.5 -52.5l-18 -128h-43l18 128q-125 6 -202.5 67.5t-65.5 146.5l15 106q12 83 104 135.5 t221 56.5l18 128h43l-18 -128q113 -4 187 -42.5t84 -106.5z" />
<glyph unicode="&#xa3;" horiz-adv-x="554" d="M513 768l-6 -43q-83 0 -141.5 -28t-65.5 -78l-21 -150h150l-6 -42h-150l-54 -384h256l-6 -43h-256q-20 0 -29.5 11.5t-6.5 31.5h-43q-6 -43 -49 -43h-64l6 43h64l54 384h-64l6 42h64l15 107q12 89 105.5 140.5t241.5 51.5z" />
<glyph unicode="&#xa4;" horiz-adv-x="490" d="M223 448q-4 -26 12.5 -45t42.5 -19t47.5 19t25.5 45t-12.5 45t-42.5 19t-47.5 -19t-25.5 -45zM190 389q-14 28 -10 59t26 59l-79 91l35 31l78 -92q31 18 62 18t56 -18l104 92l27 -31l-105 -91q14 -28 10 -59t-26 -59l79 -91l-35 -31l-79 92q-30 -18 -61 -18t-57 18 l-103 -92l-27 31z" />
<glyph unicode="&#xa5;" d="M797 811l-30 -214q-12 -83 -100 -174t-197 -117l-7 -50h128l-6 -43h-128l-30 -213h-128l30 213h-128l6 43h128l7 50q-102 26 -164.5 117.5t-50.5 173.5l30 214h128l-36 -256q-9 -61 40 -137.5t122 -76.5q49 0 100.5 39t84 88.5t37.5 86.5l36 256h128z" />
<glyph unicode="&#xa6;" horiz-adv-x="170" d="M199 811l-48 -342h-42l48 342h42zM103 128l-48 -341h-42l48 341h42z" />
<glyph unicode="&#xa7;" d="M536 -42q9 65 -30.5 101t-137.5 68q-166 54 -211 81q-59 35 -53 80q8 51 90.5 117t185.5 94q-94 37 -136.5 68.5t-36.5 72.5q9 64 93.5 117.5t208.5 53.5q114 0 170.5 -37.5t68.5 -112.5h-100q15 107 -145 107q-79 0 -118.5 -28.5t-48.5 -88.5q-7 -56 24 -83.5t115 -54.5 q167 -54 235 -94t60 -98v-1q-10 -70 -86 -120t-188 -73q193 -81 181 -169v-1q-12 -85 -108 -127.5t-238 -42.5q-226 0 -250 149h100q-7 -52 34.5 -79.5t121.5 -27.5q83 0 136.5 31.5t62.5 97.5zM460 471q-80 -3 -148 -53t-77 -109q-7 -56 23.5 -83t115.5 -54l35 -12 q86 2 152.5 38.5t75.5 101.5q9 64 -31 100.5t-137 67.5z" />
<glyph unicode="&#xa8;" d="M568 704q4 26 25.5 45t47.5 19q27 0 43 -19t12 -45t-25 -45t-48 -19q-26 0 -42.5 19t-12.5 45zM227 704q4 26 25.5 45t47.5 19t42.5 -19t12.5 -45t-25.5 -45t-47.5 -19t-42.5 19t-12.5 45z" />
<glyph unicode="&#xa9;" horiz-adv-x="1408" d="M161 384q-15 -104 49.5 -192.5t190.5 -140t282 -51.5t296 51.5t229.5 140t104.5 192.5t-50 192.5t-190.5 140t-281.5 51.5t-296.5 -51.5t-229.5 -140t-104 -192.5zM97 384q16 116 115.5 214.5t255 155.5t329.5 57t313.5 -57t211 -155.5t55.5 -214.5t-115.5 -214.5 t-255 -155.5t-329.5 -57t-313.5 57t-211 155.5t-55.5 214.5zM533 299q-7 -53 43.5 -90.5t130.5 -37.5q81 0 152.5 38t78.5 90h100q-33 -74 -127.5 -122.5t-209.5 -48.5q-134 0 -218 62.5t-72 150.5l15 107q12 87 111.5 139.5t235.5 52.5q120 0 200.5 -39t91.5 -110h-100 q7 50 -53 78t-145 28q-83 0 -141.5 -27.5t-65.5 -78.5z" />
<glyph unicode="&#xaa;" d="M615 427l27 192q7 50 -43.5 78t-133.5 28t-141.5 -27.5t-65.5 -78.5l-27 -192q-7 -53 43.5 -90.5t130.5 -37.5q79 0 141 37.5t69 90.5zM736 380q-11 -81 5 -81q24 0 72 24l-6 -46q-63 -21 -88 -21q-34 0 -55.5 7t-28.5 15t-16 15t-22 7q-8 0 -34.5 -11t-70 -22t-93.5 -11 q-134 0 -218 62.5t-72 150.5l15 107q12 87 111.5 139.5t235.5 52.5q137 0 221 -53t72 -139z" />
<glyph unicode="&#xab;" horiz-adv-x="810" d="M183 363q56 -101 75.5 -126t42.5 -25q5 0 23.5 0.5t25.5 0.5q29 0 43.5 -19.5t11.5 -44.5q-4 -26 -23.5 -45t-49.5 -19q-43 0 -70 41.5t-125 236.5q150 193 190 235t83 42q30 0 44.5 -19t10.5 -45q-4 -25 -24 -44.5t-49 -19.5q-7 0 -25.5 0.5t-23.5 0.5q-23 0 -49.5 -25 t-110.5 -125zM481 363q56 -101 75.5 -126t42.5 -25q5 0 23.5 0.5t25.5 0.5q29 0 43.5 -19.5t11.5 -44.5q-4 -26 -23.5 -45t-49.5 -19q-43 0 -70 41.5t-125 236.5q150 193 190 235t83 42q30 0 44.5 -19t10.5 -45q-4 -25 -24 -44.5t-49 -19.5q-7 0 -25.5 0.5t-23.5 0.5 q-23 0 -49.5 -25t-110.5 -125z" />
<glyph unicode="&#xad;" horiz-adv-x="554" />
<glyph unicode="&#xae;" horiz-adv-x="1408" d="M161 384q-15 -104 49.5 -192.5t190.5 -140t282 -51.5t296 51.5t229.5 140t104.5 192.5t-50 192.5t-190.5 140t-281.5 51.5t-296.5 -51.5t-229.5 -140t-104 -192.5zM97 384q16 116 115.5 214.5t255 155.5t329.5 57t313.5 -57t211 -155.5t55.5 -214.5t-115.5 -214.5 t-255 -155.5t-329.5 -57t-313.5 57t-211 155.5t-55.5 214.5zM883 511l3 22q6 42 -30 53t-153 11q-37 0 -52.5 -13.5t-20.5 -50.5l-7 -52q-6 -38 12.5 -46t85.5 -8q49 0 103 25t59 59zM871 128l20 139q6 48 -56 82.5t-120 34.5h-106l-36 -256h-86l72 512h214 q121 0 163.5 -23.5t33.5 -93.5l-1 -1q-6 -42 -49.5 -71.5t-96.5 -43.5q81 -16 119.5 -62.5t29.5 -109.5l-15 -107h-86z" />
<glyph unicode="&#xaf;" d="M754 811l-6 -43h-555l6 43h555z" />
<glyph unicode="&#xb0;" horiz-adv-x="298" d="M178 661q-4 -26 12.5 -45t42.5 -19q27 0 48 19t25 45q4 27 -12 45.5t-43 18.5q-26 0 -47.5 -18.5t-25.5 -45.5zM136 661q6 44 41.5 75.5t79.5 31.5t71 -31.5t21 -75.5t-42 -75t-80 -31q-43 0 -70 31.5t-21 74.5z" />
<glyph unicode="&#xb1;" horiz-adv-x="682" d="M603 43l-6 -43h-554l6 43h554zM486 725l-36 -256h213l-6 -42h-213l-36 -256h-128l36 256h-213l6 42h213l36 256h128z" />
<glyph unicode="&#xb2;" horiz-adv-x="384" d="M370 811q37 0 69.5 -5t61.5 -16.5t44.5 -34t11.5 -53.5q-9 -64 -338 -327h314l-4 -25h-448q378 307 388 371q9 64 -103 64q-102 0 -118 -51h-87q37 77 209 77z" />
<glyph unicode="&#xb3;" horiz-adv-x="554" d="M391 811q91 0 144 -27t48 -63q-4 -33 -25 -47.5t-73 -28.5q50 -13 78.5 -46t22.5 -70l-7 -51q-7 -53 -83 -90.5t-170 -37.5q-95 0 -159 37.5t-57 90.5h106l-3 -26q-5 -32 29 -54.5t88 -22.5q57 0 94.5 16.5t42.5 47.5l18 128q4 33 -15.5 48.5t-73.5 15.5l3 26 q41 0 56.5 12.5t19.5 40.5l5 35q5 40 -93 40q-103 0 -120 -51h-91q37 77 215 77z" />
<glyph unicode="&#xb4;" horiz-adv-x="256" d="M184 704q4 30 26 47t47 17q26 0 42.5 -17t12.5 -47q-5 -37 -45.5 -68.5t-77 -45.5t-50.5 -14q-5 0 -7.5 2.5t-3 7.5t-0.5 9t0.5 10.5t0.5 8.5q9 0 18.5 6t20.5 27.5t16 56.5z" />
<glyph unicode="&#xb5;" d="M755 512l-55 -388q-11 -81 5 -81q24 0 50 14l-6 -46q-29 -11 -66 -11q-34 0 -56 5t-29 11.5t-16 11.5t-22 5q-2 0 -65.5 -16.5t-131.5 -16.5q-108 0 -186 43l-30 -214h-128l54 384l42 299h128l-48 -341q-7 -53 43.5 -90.5t130.5 -37.5q79 0 141 37.5t69 90.5l48 341h128z " />
<glyph unicode="&#xb6;" horiz-adv-x="554" d="M620 768l-138 -981h-85l132 938h-171l-132 -938h-85l105 746q-45 0 -81.5 37t-30.5 81q7 43 53.5 80t91.5 37h341z" />
<glyph unicode="&#xb7;" horiz-adv-x="256" d="M173 469q26 0 42.5 -18.5t12.5 -45.5q-4 -26 -25.5 -45t-47.5 -19q-27 0 -43 19t-12 45q4 27 25 45.5t48 18.5z" />
<glyph unicode="&#xb8;" horiz-adv-x="810" d="M534 -148q2 16 22 43.5t22 39.5q2 17 -2 33t-10.5 24t-10.5 8l6 45q10 0 36.5 -22.5t42.5 -54.5q30 -61 22 -116q-4 -30 -25.5 -47.5t-47.5 -17.5q-25 0 -42 17.5t-13 47.5z" />
<glyph unicode="&#xb9;" horiz-adv-x="241" d="M312 811l-65 -461h-106l60 424l-66 -39l5 37l66 39h106z" />
<glyph unicode="&#xba;" d="M615 427l27 192q7 50 -43.5 78t-133.5 28t-141.5 -27.5t-65.5 -78.5l-27 -192q-7 -53 43.5 -90.5t130.5 -37.5q79 0 141 37.5t69 90.5zM749 469q-13 -89 -115.5 -151t-234.5 -62q-134 0 -218 62.5t-72 150.5l15 107q12 87 111.5 139.5t235.5 52.5q137 0 221 -53t72 -139z " />
<glyph unicode="&#xbb;" horiz-adv-x="810" d="M389 363q-56 100 -75.5 125t-42.5 25q-5 0 -23.5 -0.5t-25.5 -0.5q-29 0 -44 19.5t-11 44.5q4 26 23.5 45t49.5 19q43 0 71 -42t124 -235q-152 -195 -191 -236.5t-82 -41.5q-30 0 -44.5 19t-10.5 45q3 25 23.5 44.5t49.5 19.5q7 0 25.5 -0.5t23.5 -0.5q23 0 49.5 25 t110.5 126zM687 363q-56 100 -75.5 125t-42.5 25q-5 0 -23.5 -0.5t-25.5 -0.5q-29 0 -44 19.5t-11 44.5q4 26 23.5 45t49.5 19q43 0 71 -42t124 -235q-152 -195 -191 -236.5t-82 -41.5q-30 0 -44.5 19t-10.5 45q3 25 23.5 44.5t49.5 19.5q7 0 25.5 -0.5t23.5 -0.5 q23 0 49.5 25t110.5 126z" />
<glyph unicode="&#xbc;" horiz-adv-x="850" d="M703 333l-288 -239h254zM816 375l-40 -281h30l-3 -26h-30l-22 -153h-107l22 153h-299l3 26l339 281h107zM323 811l-65 -461h-107l60 424l-65 -39l5 37l65 39h107zM111 132l770 649l30 -44l-772 -644z" />
<glyph unicode="&#xbd;" horiz-adv-x="966" d="M736 375q37 0 71 -5t67 -16t51 -33.5t14 -53.5q-9 -64 -337 -327h314l-4 -25h-465q378 307 388 371q9 64 -103 64q-102 0 -118 -51h-88q37 76 210 76zM323 811l-65 -461h-107l60 424l-65 -39l5 37l65 39h107zM111 132l770 649l30 -44l-772 -644z" />
<glyph unicode="&#xbe;" horiz-adv-x="1020" d="M391 811q91 0 144 -27t48 -63q-4 -33 -25 -47.5t-73 -28.5q50 -13 78.5 -46t22.5 -70l-7 -51q-7 -53 -83 -90.5t-170 -37.5q-95 0 -159 37.5t-57 90.5h106l-3 -26q-5 -32 29 -54.5t88 -22.5q57 0 94.5 16.5t42.5 47.5l18 128q4 33 -15.5 48.5t-73.5 15.5l3 26 q41 0 56.5 12.5t19.5 40.5l5 35q5 40 -93 40q-103 0 -120 -51h-91q37 77 215 77zM875 333l-288 -239h254zM987 375l-40 -281h30l-3 -26h-30l-22 -153h-106l22 153h-299l3 26l339 281h106zM281 132l771 649l30 -44l-772 -644z" />
<glyph unicode="&#xbf;" horiz-adv-x="682" d="M383 597h128v-1l-12 -82q-2 -10 -8.5 -19.5t-19 -19.5t-24 -18t-32.5 -19t-35 -17.5t-42 -20t-42 -20.5q-77 -38 -96 -177q-10 -67 21 -113.5t105 -46.5q156 0 171 106h121q-64 -149 -298 -149q-121 0 -189.5 67.5t-58.5 135.5q9 69 54 123t167 99q39 14 56 38.5t24 64.5 zM532 747q-4 -27 -25.5 -45.5t-47.5 -18.5q-27 0 -43 18.5t-12 45.5q4 26 25 45t48 19q26 0 42.5 -19t12.5 -45z" />
<glyph unicode="&#xc0;" d="M621 469l21 150q7 50 -43.5 78t-133.5 28t-141.5 -27.5t-65.5 -78.5l-21 -150h384zM683 0h-128l60 427h-384l-60 -427h-128l81 576q12 87 111.5 139.5t235.5 52.5q137 0 221 -53t72 -139zM522 981q-5 -35 0 -56.5t12.5 -27.5t16.5 -6q0 -2 -1.5 -8.5t-2.5 -10.5t-2.5 -9 t-5 -7.5t-8.5 -2.5q-14 0 -46.5 14t-64 45.5t-26.5 68.5q4 30 25.5 47t47.5 17q25 0 42 -17t13 -47z" />
<glyph unicode="&#xc1;" d="M621 469l21 150q7 50 -43.5 78t-133.5 28t-141.5 -27.5t-65.5 -78.5l-21 -150h384zM683 0h-128l60 427h-384l-60 -427h-128l81 576q12 87 111.5 139.5t235.5 52.5q137 0 221 -53t72 -139zM477 981q4 30 26 47t47 17q26 0 42.5 -17t12.5 -47q-5 -37 -45.5 -68.5t-77 -45.5 t-50.5 -14q-5 0 -7.5 2.5t-3 7.5t-0.5 9t0.5 10.5t0.5 8.5q9 0 18.5 6t20.5 27.5t16 56.5z" />
<glyph unicode="&#xc2;" d="M621 469l21 150q7 50 -43.5 78t-133.5 28t-141.5 -27.5t-65.5 -78.5l-21 -150h384zM683 0h-128l60 427h-384l-60 -427h-128l81 576q12 87 111.5 139.5t235.5 52.5q137 0 221 -53t72 -139zM505 1005q-3 -2 -20 -11t-20 -11t-16.5 -10t-16.5 -10.5t-13.5 -10t-13.5 -12.5 t-9.5 -13t-9 -15t-5 -16.5t-4.5 -20.5q-4 -30 -26 -47t-47 -17q-26 0 -42.5 17t-12.5 47q3 24 52 55.5t155 87.5q36 18 54 28q16 -11 40 -25.5t39 -23.5t34 -21.5t30.5 -20.5t25 -18t21 -17.5t14 -15.5t9 -15t1.5 -14q-4 -30 -25.5 -47t-47.5 -17q-25 0 -42 17t-13 47 q2 11 1.5 20.5t-1 16.5t-5 15t-6 13t-9 12.5t-10 10.5t-13.5 10.5t-14.5 9.5t-16.5 11t-17 11z" />
<glyph unicode="&#xc3;" d="M621 469l21 150q7 50 -43.5 78t-133.5 28t-141.5 -27.5t-65.5 -78.5l-21 -150h384zM683 0h-128l60 427h-384l-60 -427h-128l81 576q12 87 111.5 139.5t235.5 52.5q137 0 221 -53t72 -139zM392 981q-41 0 -56 -106h-128q6 41 60.5 95t108.5 54q43 0 73 -17.5t45 -43 t27 -50.5t28.5 -42.5t40.5 -17.5q41 0 56 107h128q-6 -41 -60 -95t-108 -54q-40 0 -68.5 17.5t-45 42.5t-30 50t-31 42.5t-40.5 17.5z" />
<glyph unicode="&#xc4;" d="M621 469l21 150q7 50 -43.5 78t-133.5 28t-141.5 -27.5t-65.5 -78.5l-21 -150h384zM683 0h-128l60 427h-384l-60 -427h-128l81 576q12 87 111.5 139.5t235.5 52.5q137 0 221 -53t72 -139zM592 875q4 26 25.5 45t47.5 19q27 0 43 -19t12 -45t-25 -45t-48 -19 q-26 0 -42.5 19t-12.5 45zM251 875q4 26 25.5 45t47.5 19t42.5 -19t12.5 -45t-25.5 -45t-47.5 -19t-42.5 19t-12.5 45z" />
<glyph unicode="&#xc5;" d="M621 469l21 150q7 50 -43.5 78t-133.5 28t-141.5 -27.5t-65.5 -78.5l-21 -150h384zM683 0h-128l60 427h-384l-60 -427h-128l81 576q12 87 111.5 139.5t235.5 52.5q137 0 221 -53t72 -139zM421 878q-3 -26 13 -45t42 -19q27 0 48.5 19t24.5 45q4 27 -12 45.5t-43 18.5 q-26 0 -47.5 -18.5t-25.5 -45.5zM379 878q7 44 42 75.5t79 31.5t71.5 -31.5t21 -75.5t-42.5 -75t-80 -31q-43 0 -70 31.5t-21 74.5z" />
<glyph unicode="&#xc6;" horiz-adv-x="1280" d="M237 469h384l21 150q7 50 -43.5 78t-133.5 28t-141.5 -27.5t-65.5 -78.5zM1303 768l-6 -43h-384q-28 0 -41.5 -0.5t-34 -4t-30.5 -10.5t-19.5 -21t-12.5 -34l-26 -186h384l-6 -42h-384l-44 -314q-3 -20 2.5 -34t13.5 -21t27.5 -10.5t33 -4t41.5 -0.5h384l-6 -43h-640 l60 427h-384l-60 -427h-128l81 576q12 87 111.5 139.5t235.5 52.5q109 0 187 -34l5 34h640z" />
<glyph unicode="&#xc7;" d="M770 619h-107q7 50 -53 78t-145 28q-83 0 -141.5 -27.5t-65.5 -78.5l-63 -448q-7 -53 43.5 -90.5t130.5 -37.5q81 0 152.5 38t78.5 90h107q-30 -67 -115 -114t-190 -56q14 -14 24 -35q30 -60 22 -116q-4 -30 -25.5 -47t-47.5 -17q-25 0 -42 17t-13 47q2 16 22 43.5 t22 39.5q3 25 -6 45t-17 20v2q-125 5 -202.5 66.5t-65.5 146.5l51 363q12 87 111.5 139.5t235.5 52.5q121 0 204.5 -39t94.5 -110z" />
<glyph unicode="&#xc8;" d="M791 768l-6 -43h-384q-28 0 -41.5 -0.5t-34 -4t-30.5 -10.5t-19.5 -21t-12.5 -34l-26 -186h384l-6 -42h-384l-44 -314q-3 -20 2.5 -34t13.5 -21t27.5 -10.5t33 -4t41.5 -0.5h384l-6 -43h-640l108 768h640zM522 981q-5 -35 0 -56.5t12.5 -27.5t16.5 -6q0 -2 -1.5 -8.5 t-2.5 -10.5t-2.5 -9t-5 -7.5t-8.5 -2.5q-14 0 -46.5 14t-64 45.5t-26.5 68.5q4 30 25.5 47t47.5 17q25 0 42 -17t13 -47z" />
<glyph unicode="&#xc9;" d="M791 768l-6 -43h-384q-28 0 -41.5 -0.5t-34 -4t-30.5 -10.5t-19.5 -21t-12.5 -34l-26 -186h384l-6 -42h-384l-44 -314q-3 -20 2.5 -34t13.5 -21t27.5 -10.5t33 -4t41.5 -0.5h384l-6 -43h-640l108 768h640zM479 981q4 30 26 47t47 17q26 0 42.5 -17t12.5 -47 q-5 -37 -45.5 -68.5t-77 -45.5t-50.5 -14q-5 0 -7.5 2.5t-3 7.5t-0.5 9t0.5 10.5t0.5 8.5q9 0 18.5 6t20.5 27.5t16 56.5z" />
<glyph unicode="&#xca;" d="M791 768l-6 -43h-384q-28 0 -41.5 -0.5t-34 -4t-30.5 -10.5t-19.5 -21t-12.5 -34l-26 -186h384l-6 -42h-384l-44 -314q-3 -20 2.5 -34t13.5 -21t27.5 -10.5t33 -4t41.5 -0.5h384l-6 -43h-640l108 768h640zM505 1005q-3 -2 -20 -11t-20 -11t-16.5 -10t-16.5 -10.5 t-13.5 -10t-13.5 -12.5t-9.5 -13t-9 -15t-5 -16.5t-4.5 -20.5q-4 -30 -26 -47t-47 -17q-26 0 -42.5 17t-12.5 47q3 24 52 55.5t155 87.5q36 18 54 28q16 -11 40 -25.5t39 -23.5t34 -21.5t30.5 -20.5t25 -18t21 -17.5t14 -15.5t9 -15t1.5 -14q-4 -30 -25.5 -47t-47.5 -17 q-25 0 -42 17t-13 47q2 11 1.5 20.5t-1 16.5t-5 15t-6 13t-9 12.5t-10 10.5t-13.5 10.5t-14.5 9.5t-16.5 11t-17 11z" />
<glyph unicode="&#xcb;" d="M791 768l-6 -43h-384q-28 0 -41.5 -0.5t-34 -4t-30.5 -10.5t-19.5 -21t-12.5 -34l-26 -186h384l-6 -42h-384l-44 -314q-3 -20 2.5 -34t13.5 -21t27.5 -10.5t33 -4t41.5 -0.5h384l-6 -43h-640l108 768h640zM592 875q4 26 25.5 45t47.5 19q27 0 43 -19t12 -45t-25 -45 t-48 -19q-26 0 -42.5 19t-12.5 45zM251 875q4 26 25.5 45t47.5 19t42.5 -19t12.5 -45t-25.5 -45t-47.5 -19t-42.5 19t-12.5 45z" />
<glyph unicode="&#xcc;" horiz-adv-x="256" d="M279 768l-108 -768h-128l108 768h128zM266 981q-5 -35 0 -56.5t12.5 -27.5t16.5 -6q0 -2 -1.5 -8.5t-2.5 -10.5t-2.5 -9t-5 -7.5t-8.5 -2.5q-14 0 -46.5 14t-64 45.5t-26.5 68.5q4 30 25.5 47t47.5 17q25 0 42 -17t13 -47z" />
<glyph unicode="&#xcd;" horiz-adv-x="256" d="M279 768l-108 -768h-128l108 768h128zM266 981q4 30 26 47t47 17q26 0 42.5 -17t12.5 -47q-5 -37 -45.5 -68.5t-77 -45.5t-50.5 -14q-5 0 -7.5 2.5t-3 7.5t-0.5 9t0.5 10.5t0.5 8.5q9 0 18.5 6t20.5 27.5t16 56.5z" />
<glyph unicode="&#xce;" horiz-adv-x="256" d="M279 768l-108 -768h-128l108 768h128zM266 972q-3 -1 -15 -8.5t-14.5 -9t-12.5 -8.5t-12 -9t-9.5 -8t-9.5 -10.5t-7 -11t-7 -12.5t-4 -13.5t-3 -17.5q-4 -25 -20 -39t-34 -14q-19 0 -30.5 14t-7.5 39q2 20 38 46.5t113 72.5q26 15 39 24q12 -10 29 -22t27.5 -19.5 t24 -17.5t21.5 -17t17.5 -15t15 -14.5t10 -13t6 -12.5t0.5 -12q-3 -25 -19 -39t-34 -14t-30 14t-9 39q1 10 1 17.5v13.5t-3 12.5t-4.5 11t-6.5 10.5t-7 8.5t-9.5 9t-10 8t-11.5 9t-12 8.5z" />
<glyph unicode="&#xcf;" horiz-adv-x="256" d="M279 768l-108 -768h-128l108 768h128zM102 875q4 26 25 45t48 19q26 0 42.5 -19t12.5 -45t-25.5 -45t-47.5 -19q-27 0 -43 19t-12 45zM273 875q4 26 25 45t48 19q26 0 42.5 -19t12.5 -45t-25.5 -45t-47.5 -19q-27 0 -43 19t-12 45z" />
<glyph unicode="&#xd0;" d="M579 171l63 448q7 50 -43.5 78t-133.5 28q-35 0 -52 -0.5t-44.5 -2t-41.5 -6t-30 -12t-24 -20t-10 -29.5l-26 -186h170l-6 -42h-170l-44 -314q-3 -17 1.5 -29.5t18.5 -20t27 -12t39.5 -6t43.5 -2t52 -0.5q79 0 141 37.5t69 90.5zM713 213q-13 -89 -115.5 -151t-234.5 -62 h-320l60 427h-43l6 42h43l42 299h320q137 0 221 -53t72 -139z" />
<glyph unicode="&#xd1;" d="M151 768h320q137 0 221 -53t72 -139l-81 -576h-128l87 619q7 50 -43.5 78t-133.5 28t-141.5 -27.5t-65.5 -78.5l-87 -619h-128zM403 981q-41 0 -56 -106h-128q6 41 60.5 95t108.5 54q43 0 73 -17.5t45 -43t27 -50.5t28.5 -42.5t40.5 -17.5q41 0 56 107h128 q-6 -41 -60 -95t-108 -54q-40 0 -68.5 17.5t-45 42.5t-30 50t-31 42.5t-40.5 17.5z" />
<glyph unicode="&#xd2;" d="M579 171l63 448q7 50 -43.5 78t-133.5 28t-141.5 -27.5t-65.5 -78.5l-63 -448q-7 -53 43.5 -90.5t130.5 -37.5q79 0 141 37.5t69 90.5zM713 213q-13 -89 -115.5 -151t-234.5 -62q-134 0 -218 62.5t-72 150.5l51 363q12 87 111.5 139.5t235.5 52.5q137 0 221 -53t72 -139z M522 981q-5 -35 0 -56.5t12.5 -27.5t16.5 -6q0 -2 -1.5 -8.5t-2.5 -10.5t-2.5 -9t-5 -7.5t-8.5 -2.5q-14 0 -46.5 14t-64 45.5t-26.5 68.5q4 30 25.5 47t47.5 17q25 0 42 -17t13 -47z" />
<glyph unicode="&#xd3;" d="M579 171l63 448q7 50 -43.5 78t-133.5 28t-141.5 -27.5t-65.5 -78.5l-63 -448q-7 -53 43.5 -90.5t130.5 -37.5q79 0 141 37.5t69 90.5zM713 213q-13 -89 -115.5 -151t-234.5 -62q-134 0 -218 62.5t-72 150.5l51 363q12 87 111.5 139.5t235.5 52.5q137 0 221 -53t72 -139z M479 981q4 30 26 47t47 17q26 0 42.5 -17t12.5 -47q-5 -37 -45.5 -68.5t-77 -45.5t-50.5 -14q-5 0 -7.5 2.5t-3 7.5t-0.5 9t0.5 10.5t0.5 8.5q9 0 18.5 6t20.5 27.5t16 56.5z" />
<glyph unicode="&#xd4;" d="M579 171l63 448q7 50 -43.5 78t-133.5 28t-141.5 -27.5t-65.5 -78.5l-63 -448q-7 -53 43.5 -90.5t130.5 -37.5q79 0 141 37.5t69 90.5zM713 213q-13 -89 -115.5 -151t-234.5 -62q-134 0 -218 62.5t-72 150.5l51 363q12 87 111.5 139.5t235.5 52.5q137 0 221 -53t72 -139z M505 1005q-3 -2 -20 -11t-20 -11t-16.5 -10t-16.5 -10.5t-13.5 -10t-13.5 -12.5t-9.5 -13t-9 -15t-5 -16.5t-4.5 -20.5q-4 -30 -26 -47t-47 -17q-26 0 -42.5 17t-12.5 47q3 24 52 55.5t155 87.5q36 18 54 28q16 -11 40 -25.5t39 -23.5t34 -21.5t30.5 -20.5t25 -18t21 -17.5 t14 -15.5t9 -15t1.5 -14q-4 -30 -25.5 -47t-47.5 -17q-25 0 -42 17t-13 47q2 11 1.5 20.5t-1 16.5t-5 15t-6 13t-9 12.5t-10 10.5t-13.5 10.5t-14.5 9.5t-16.5 11t-17 11z" />
<glyph unicode="&#xd5;" d="M579 171l63 448q7 50 -43.5 78t-133.5 28t-141.5 -27.5t-65.5 -78.5l-63 -448q-7 -53 43.5 -90.5t130.5 -37.5q79 0 141 37.5t69 90.5zM713 213q-13 -89 -115.5 -151t-234.5 -62q-134 0 -218 62.5t-72 150.5l51 363q12 87 111.5 139.5t235.5 52.5q137 0 221 -53t72 -139z M403 981q-41 0 -56 -106h-128q6 41 60.5 95t108.5 54q43 0 73 -17.5t45 -43t27 -50.5t28.5 -42.5t40.5 -17.5q41 0 56 107h128q-6 -41 -60 -95t-108 -54q-40 0 -68.5 17.5t-45 42.5t-30 50t-31 42.5t-40.5 17.5z" />
<glyph unicode="&#xd6;" d="M579 171l63 448q7 50 -43.5 78t-133.5 28t-141.5 -27.5t-65.5 -78.5l-63 -448q-7 -53 43.5 -90.5t130.5 -37.5q79 0 141 37.5t69 90.5zM713 213q-13 -89 -115.5 -151t-234.5 -62q-134 0 -218 62.5t-72 150.5l51 363q12 87 111.5 139.5t235.5 52.5q137 0 221 -53t72 -139z M592 875q4 26 25.5 45t47.5 19q27 0 43 -19t12 -45t-25 -45t-48 -19q-26 0 -42.5 19t-12.5 45zM251 875q4 26 25.5 45t47.5 19t42.5 -19t12.5 -45t-25.5 -45t-47.5 -19t-42.5 19t-12.5 45z" />
<glyph unicode="&#xd7;" horiz-adv-x="490" d="M162 629l129 -150l171 150l27 -31l-171 -150l129 -150l-35 -31l-129 151l-171 -151l-27 31l172 150l-130 150z" />
<glyph unicode="&#xd8;" d="M713 213q-13 -89 -115.5 -151t-234.5 -62q-109 0 -187 43l-30 -43h-55l46 67q-76 63 -64 146l51 363q12 87 111.5 139.5t235.5 52.5q79 0 140 -18l43 61h57l-53 -77q57 -25 85 -66t21 -92zM579 171l63 448q5 37 -21 62l-404 -581q49 -57 152 -57q79 0 141 37.5t69 90.5z M195 149l386 557q-45 19 -116 19q-83 0 -141.5 -27.5t-65.5 -78.5l-63 -448q-2 -11 0 -22z" />
<glyph unicode="&#xd9;" d="M791 768l-92 -655q-10 -70 6 -70q26 0 72 23l-6 -46q-60 -20 -88 -20q-34 0 -56 5t-29 11.5t-16 11.5t-22 5q-2 0 -65.5 -16.5t-131.5 -16.5q-134 0 -218 62.5t-72 150.5l78 555h128l-84 -597q-7 -53 43.5 -90.5t130.5 -37.5q79 0 141 37.5t69 90.5l84 597h128zM522 981 q-5 -35 0 -56.5t12.5 -27.5t16.5 -6q0 -2 -1.5 -8.5t-2.5 -10.5t-2.5 -9t-5 -7.5t-8.5 -2.5q-14 0 -46.5 14t-64 45.5t-26.5 68.5q4 30 25.5 47t47.5 17q25 0 42 -17t13 -47z" />
<glyph unicode="&#xda;" d="M791 768l-92 -655q-10 -70 6 -70q26 0 72 23l-6 -46q-60 -20 -88 -20q-34 0 -56 5t-29 11.5t-16 11.5t-22 5q-2 0 -65.5 -16.5t-131.5 -16.5q-134 0 -218 62.5t-72 150.5l78 555h128l-84 -597q-7 -53 43.5 -90.5t130.5 -37.5q79 0 141 37.5t69 90.5l84 597h128zM479 981 q4 30 26 47t47 17q26 0 42.5 -17t12.5 -47q-5 -37 -45.5 -68.5t-77 -45.5t-50.5 -14q-5 0 -7.5 2.5t-3 7.5t-0.5 9t0.5 10.5t0.5 8.5q9 0 18.5 6t20.5 27.5t16 56.5z" />
<glyph unicode="&#xdb;" d="M791 768l-92 -655q-10 -70 6 -70q26 0 72 23l-6 -46q-60 -20 -88 -20q-34 0 -56 5t-29 11.5t-16 11.5t-22 5q-2 0 -65.5 -16.5t-131.5 -16.5q-134 0 -218 62.5t-72 150.5l78 555h128l-84 -597q-7 -53 43.5 -90.5t130.5 -37.5q79 0 141 37.5t69 90.5l84 597h128zM505 1005 q-3 -2 -20 -11t-20 -11t-16.5 -10t-16.5 -10.5t-13.5 -10t-13.5 -12.5t-9.5 -13t-9 -15t-5 -16.5t-4.5 -20.5q-4 -30 -26 -47t-47 -17q-26 0 -42.5 17t-12.5 47q3 24 52 55.5t155 87.5q36 18 54 28q16 -11 40 -25.5t39 -23.5t34 -21.5t30.5 -20.5t25 -18t21 -17.5t14 -15.5 t9 -15t1.5 -14q-4 -30 -25.5 -47t-47.5 -17q-25 0 -42 17t-13 47q2 11 1.5 20.5t-1 16.5t-5 15t-6 13t-9 12.5t-10 10.5t-13.5 10.5t-14.5 9.5t-16.5 11t-17 11z" />
<glyph unicode="&#xdc;" d="M791 768l-92 -655q-10 -70 6 -70q26 0 72 23l-6 -46q-60 -20 -88 -20q-34 0 -56 5t-29 11.5t-16 11.5t-22 5q-2 0 -65.5 -16.5t-131.5 -16.5q-134 0 -218 62.5t-72 150.5l78 555h128l-84 -597q-7 -53 43.5 -90.5t130.5 -37.5q79 0 141 37.5t69 90.5l84 597h128zM592 875 q4 26 25.5 45t47.5 19q27 0 43 -19t12 -45t-25 -45t-48 -19q-26 0 -42.5 19t-12.5 45zM251 875q4 26 25.5 45t47.5 19t42.5 -19t12.5 -45t-25.5 -45t-47.5 -19t-42.5 19t-12.5 45z" />
<glyph unicode="&#xdd;" d="M549 -43l12 86q-92 -43 -198 -43q-134 0 -218 62.5t-72 151.5l78 554h128l-84 -596q-7 -54 43.5 -91.5t130.5 -37.5q79 0 141 37.5t69 91.5l84 596h128l-108 -768q-10 -72 -61 -121t-124.5 -70.5t-164.5 -21.5q-99 0 -173 35.5t-103 92.5h94q19 -37 72 -61.5t116 -24.5 q79 0 141 37.5t69 90.5zM479 981q4 30 26 47t47 17q26 0 42.5 -17t12.5 -47q-5 -37 -45.5 -68.5t-77 -45.5t-50.5 -14q-5 0 -7.5 2.5t-3 7.5t-0.5 9t0.5 10.5t0.5 8.5q9 0 18.5 6t20.5 27.5t16 56.5z" />
<glyph unicode="&#xde;" d="M297 896l-18 -128h192q137 0 221 -53t72 -139l-15 -107q-13 -89 -115.5 -151t-234.5 -62q-108 0 -186 43l-42 -299h-128l126 896h128zM615 427l27 192q7 50 -43.5 78t-133.5 28t-141.5 -27.5t-65.5 -78.5l-27 -192q-7 -53 43.5 -90.5t130.5 -37.5q79 0 141 37.5t69 90.5z " />
<glyph unicode="&#xdf;" d="M422 725q-60 0 -110 -37.5t-57 -90.5l-18 -128l-72 -512h-1q-35 -170 -237 -170l6 42q45 0 69 26.5t32 80.5l75 533l12 86q13 90 99 151.5t208 61.5q39 0 81 -8.5t85 -28t67.5 -58t17.5 -90.5v-1q-9 -61 -31.5 -94t-78.5 -70q75 -22 115.5 -72t31.5 -111 q-13 -92 -118 -163.5t-235 -71.5h-107l6 43h107q78 0 141 42t70 95l15 107q8 51 -43 79.5t-133 28.5l5 42q38 0 62 8t36 28t16.5 36.5t9.5 49.5l6 49q8 54 -26 85.5t-106 31.5z" />
<glyph unicode="&#xe0;" d="M579 171l27 192q7 50 -43.5 78t-133.5 28t-141.5 -27.5t-65.5 -78.5l-27 -192q-7 -53 43.5 -90.5t130.5 -37.5q79 0 141 37.5t69 90.5zM700 124q-11 -81 5 -81q24 0 72 24l-6 -46q-63 -21 -88 -21q-34 0 -55.5 7t-28.5 15t-16 15t-22 7q-8 0 -34.5 -11t-70 -22t-93.5 -11 q-134 0 -218 62.5t-72 150.5l15 107q12 87 111.5 139.5t235.5 52.5q137 0 221 -53t72 -139zM511 747q-5 -35 0 -56.5t12.5 -27.5t16.5 -6q0 -2 -1.5 -8.5t-2.5 -10.5t-2.5 -9t-5 -7.5t-8.5 -2.5q-14 0 -46.5 14t-64 45.5t-26.5 68.5q4 30 25.5 47t47.5 17q25 0 42 -17 t13 -47z" />
<glyph unicode="&#xe1;" d="M579 171l27 192q7 50 -43.5 78t-133.5 28t-141.5 -27.5t-65.5 -78.5l-27 -192q-7 -53 43.5 -90.5t130.5 -37.5q79 0 141 37.5t69 90.5zM700 124q-11 -81 5 -81q24 0 72 24l-6 -46q-63 -21 -88 -21q-34 0 -55.5 7t-28.5 15t-16 15t-22 7q-8 0 -34.5 -11t-70 -22t-93.5 -11 q-134 0 -218 62.5t-72 150.5l15 107q12 87 111.5 139.5t235.5 52.5q137 0 221 -53t72 -139zM489 747q4 30 26 47t47 17q26 0 42.5 -17t12.5 -47q-5 -37 -45.5 -68.5t-77 -45.5t-50.5 -14q-5 0 -7.5 2.5t-3 7.5t-0.5 9t0.5 10.5t0.5 8.5q9 0 18.5 6t20.5 27.5t16 56.5z" />
<glyph unicode="&#xe2;" d="M579 171l27 192q7 50 -43.5 78t-133.5 28t-141.5 -27.5t-65.5 -78.5l-27 -192q-7 -53 43.5 -90.5t130.5 -37.5q79 0 141 37.5t69 90.5zM700 124q-11 -81 5 -81q24 0 72 24l-6 -46q-63 -21 -88 -21q-34 0 -55.5 7t-28.5 15t-16 15t-22 7q-8 0 -34.5 -11t-70 -22t-93.5 -11 q-134 0 -218 62.5t-72 150.5l15 107q12 87 111.5 139.5t235.5 52.5q137 0 221 -53t72 -139zM472 770q-3 -2 -20 -11t-20 -11t-16.5 -10t-16.5 -10.5t-13.5 -10t-13.5 -12.5t-9.5 -13t-9 -15t-5.5 -16.5t-4 -20.5q-4 -30 -26 -47t-47 -17q-26 0 -42.5 17t-12.5 47 q3 24 52 55.5t155 87.5q36 18 54 28q16 -11 40 -25.5t39 -23.5t34 -21.5t30.5 -20.5t25 -18t21 -17.5t14 -15.5t9 -15t1.5 -14q-4 -30 -25.5 -47t-47.5 -17q-25 0 -42 17t-13 47q1 11 1 20.5t-0.5 16.5t-5 15t-6 13t-9 12.5t-10 10.5t-13.5 10.5t-14.5 9.5t-16.5 11t-17 11z " />
<glyph unicode="&#xe3;" d="M579 171l27 192q7 50 -43.5 78t-133.5 28t-141.5 -27.5t-65.5 -78.5l-27 -192q-7 -53 43.5 -90.5t130.5 -37.5q79 0 141 37.5t69 90.5zM700 124q-11 -81 5 -81q24 0 72 24l-6 -46q-63 -21 -88 -21q-34 0 -55.5 7t-28.5 15t-16 15t-22 7q-8 0 -34.5 -11t-70 -22t-93.5 -11 q-134 0 -218 62.5t-72 150.5l15 107q12 87 111.5 139.5t235.5 52.5q137 0 221 -53t72 -139zM405 768q-41 0 -56 -106h-128q6 41 60.5 95t108.5 54q43 0 73 -17.5t45 -43t27 -50.5t28.5 -42.5t40.5 -17.5q41 0 56 107h128q-6 -41 -60 -95t-108 -54q-40 0 -68.5 17.5t-45 42.5 t-30 50t-31 42.5t-40.5 17.5z" />
<glyph unicode="&#xe4;" d="M579 171l27 192q7 50 -43.5 78t-133.5 28t-141.5 -27.5t-65.5 -78.5l-27 -192q-7 -53 43.5 -90.5t130.5 -37.5q79 0 141 37.5t69 90.5zM700 124q-11 -81 5 -81q24 0 72 24l-6 -46q-63 -21 -88 -21q-34 0 -55.5 7t-28.5 15t-16 15t-22 7q-8 0 -34.5 -11t-70 -22t-93.5 -11 q-134 0 -218 62.5t-72 150.5l15 107q12 87 111.5 139.5t235.5 52.5q137 0 221 -53t72 -139zM611 704q4 26 25.5 45t47.5 19q27 0 43 -19t12 -45t-25 -45t-48 -19q-26 0 -42.5 19t-12.5 45zM270 704q4 26 25.5 45t47.5 19t42.5 -19t12.5 -45t-25.5 -45t-47.5 -19t-42.5 19 t-12.5 45z" />
<glyph unicode="&#xe5;" d="M579 171l27 192q7 50 -43.5 78t-133.5 28t-141.5 -27.5t-65.5 -78.5l-27 -192q-7 -53 43.5 -90.5t130.5 -37.5q79 0 141 37.5t69 90.5zM700 124q-11 -81 5 -81q24 0 72 24l-6 -46q-63 -21 -88 -21q-34 0 -55.5 7t-28.5 15t-16 15t-22 7q-8 0 -34.5 -11t-70 -22t-93.5 -11 q-134 0 -218 62.5t-72 150.5l15 107q12 87 111.5 139.5t235.5 52.5q137 0 221 -53t72 -139zM430 661q-4 -26 12.5 -45t42.5 -19q27 0 48 19t25 45q4 27 -12 45.5t-43 18.5q-26 0 -47.5 -18.5t-25.5 -45.5zM388 661q6 44 41.5 75.5t79.5 31.5t71 -31.5t21 -75.5t-42 -75 t-80 -31q-43 0 -70 31.5t-21 74.5z" />
<glyph unicode="&#xe6;" horiz-adv-x="1280" d="M591 256h-192q-43 0 -75.5 -3.5t-62 -12.5t-46 -26.5t-20.5 -42.5q-7 -53 43.5 -90.5t130.5 -37.5q79 0 141 37.5t69 90.5zM1109 299l9 64q7 50 -43.5 78t-133.5 28t-141.5 -27.5t-65.5 -78.5l-9 -64h384zM1231 256h-512l-12 -85q-7 -53 43.5 -90.5t130.5 -37.5 q81 0 152.5 38t78.5 90h107q-32 -73 -130 -122t-214 -49q-108 0 -186 43l-6 -43q-34 0 -56 5t-29 11.5t-16 11.5t-22 5q-2 0 -65.5 -16.5t-131.5 -16.5q-132 0 -217.5 62t-73.5 141q2 18 10 32t23.5 23.5t30.5 17t42.5 11.5t47 6.5t56 4t58.5 1.5h65h192l9 64q7 50 -43.5 78 t-133.5 28q-117 0 -173 -48l-40 47q92 44 219 44q152 0 236 -78q101 78 276 78q134 0 218 -62.5t72 -150.5z" />
<glyph unicode="&#xe7;" d="M195 171q-7 -53 43.5 -90.5t130.5 -37.5q81 0 152.5 38t78.5 90h100q-28 -65 -105.5 -111t-177.5 -57q13 -14 27 -39q30 -60 21 -117q-4 -30 -24.5 -47t-47.5 -17q-25 0 -42.5 17.5t-13.5 46.5q3 16 23 44t21 40q4 25 -5.5 45t-17.5 20l1 4q-133 1 -215.5 63t-70.5 150 l15 107q12 87 111.5 139.5t235.5 52.5q120 0 200.5 -39t91.5 -110h-100q7 50 -53 78t-145 28q-83 0 -141.5 -27.5t-65.5 -78.5z" />
<glyph unicode="&#xe8;" d="M729 326q-3 -17 -14 -29.5t-31.5 -20t-39 -12t-48.5 -6t-47 -2t-46 -0.5h-296l-12 -85q-7 -53 43.5 -90.5t130.5 -37.5q63 0 127.5 24.5t93.5 60.5h100q-45 -57 -136.5 -92.5t-190.5 -35.5q-134 0 -218 62.5t-72 150.5l15 107q12 87 111.5 139.5t235.5 52.5 q131 0 217.5 -57.5t76.5 -128.5zM602 368q4 35 -47 68t-126 33q-80 0 -141.5 -37.5t-68.5 -90.5l-6 -42h238q31 0 46.5 0.5t37.5 4t33.5 10.5t21 20.5t12.5 33.5zM489 747q-5 -35 0 -56.5t12.5 -27.5t16.5 -6q0 -2 -1.5 -8.5t-2.5 -10.5t-2.5 -9t-5 -7.5t-8.5 -2.5 q-14 0 -46.5 14t-64 45.5t-26.5 68.5q4 30 25.5 47t47.5 17q25 0 42 -17t13 -47z" />
<glyph unicode="&#xe9;" d="M729 326q-3 -17 -14 -29.5t-31.5 -20t-39 -12t-48.5 -6t-47 -2t-46 -0.5h-296l-12 -85q-7 -53 43.5 -90.5t130.5 -37.5q63 0 127.5 24.5t93.5 60.5h100q-45 -57 -136.5 -92.5t-190.5 -35.5q-134 0 -218 62.5t-72 150.5l15 107q12 87 111.5 139.5t235.5 52.5 q131 0 217.5 -57.5t76.5 -128.5zM602 368q4 35 -47 68t-126 33q-80 0 -141.5 -37.5t-68.5 -90.5l-6 -42h238q31 0 46.5 0.5t37.5 4t33.5 10.5t21 20.5t12.5 33.5zM468 747q4 30 26 47t47 17q26 0 42.5 -17t12.5 -47q-5 -37 -45.5 -68.5t-77 -45.5t-50.5 -14q-5 0 -7.5 2.5 t-3 7.5t-0.5 9t0.5 10.5t0.5 8.5q9 0 18.5 6t20.5 27.5t16 56.5z" />
<glyph unicode="&#xea;" d="M729 326q-3 -17 -14 -29.5t-31.5 -20t-39 -12t-48.5 -6t-47 -2t-46 -0.5h-296l-12 -85q-7 -53 43.5 -90.5t130.5 -37.5q63 0 127.5 24.5t93.5 60.5h100q-45 -57 -136.5 -92.5t-190.5 -35.5q-134 0 -218 62.5t-72 150.5l15 107q12 87 111.5 139.5t235.5 52.5 q131 0 217.5 -57.5t76.5 -128.5zM602 368q4 35 -47 68t-126 33q-80 0 -141.5 -37.5t-68.5 -90.5l-6 -42h238q31 0 46.5 0.5t37.5 4t33.5 10.5t21 20.5t12.5 33.5zM472 770q-3 -2 -20 -11t-20 -11t-16.5 -10t-16.5 -10.5t-13.5 -10t-13.5 -12.5t-9.5 -13t-9 -15t-5.5 -16.5 t-4 -20.5q-4 -30 -26 -47t-47 -17q-26 0 -42.5 17t-12.5 47q3 24 52 55.5t155 87.5q36 18 54 28q16 -11 40 -25.5t39 -23.5t34 -21.5t30.5 -20.5t25 -18t21 -17.5t14 -15.5t9 -15t1.5 -14q-4 -30 -25.5 -47t-47.5 -17q-25 0 -42 17t-13 47q1 11 1 20.5t-0.5 16.5t-5 15 t-6 13t-9 12.5t-10 10.5t-13.5 10.5t-14.5 9.5t-16.5 11t-17 11z" />
<glyph unicode="&#xeb;" d="M729 326q-3 -17 -14 -29.5t-31.5 -20t-39 -12t-48.5 -6t-47 -2t-46 -0.5h-296l-12 -85q-7 -53 43.5 -90.5t130.5 -37.5q63 0 127.5 24.5t93.5 60.5h100q-45 -57 -136.5 -92.5t-190.5 -35.5q-134 0 -218 62.5t-72 150.5l15 107q12 87 111.5 139.5t235.5 52.5 q131 0 217.5 -57.5t76.5 -128.5zM602 368q4 35 -47 68t-126 33q-80 0 -141.5 -37.5t-68.5 -90.5l-6 -42h238q31 0 46.5 0.5t37.5 4t33.5 10.5t21 20.5t12.5 33.5zM567.5 703q3.5 26 25.5 45t48 19q27 0 42.5 -19t12 -45t-24.5 -45t-48 -19q-26 0 -42.5 19t-13 45zM226.5 703 q3.5 26 25.5 45t48 19t42 -19t12.5 -45t-25 -45t-47.5 -19t-42.5 19t-13 45z" />
<glyph unicode="&#xec;" horiz-adv-x="320" d="M243 512l-56 -399q-10 -70 6 -70q38 0 118 44l-6 -45q-74 -42 -134 -42q-56 0 -86.5 40t-26.5 66l57 406h128zM233 747q-5 -35 0 -56.5t12.5 -27.5t16.5 -6q0 -2 -1.5 -8.5t-2.5 -10.5t-2.5 -9t-5 -7.5t-8.5 -2.5q-14 0 -46.5 14t-64 45.5t-26.5 68.5q4 30 25.5 47 t47.5 17q25 0 42 -17t13 -47z" />
<glyph unicode="&#xed;" horiz-adv-x="320" d="M243 512l-56 -399q-10 -70 6 -70q38 0 118 44l-6 -45q-74 -42 -134 -42q-56 0 -86.5 40t-26.5 66l57 406h128zM233 747q4 30 26 47t47 17q26 0 42.5 -17t12.5 -47q-5 -37 -45.5 -68.5t-77 -45.5t-50.5 -14q-5 0 -7.5 2.5t-3 7.5t-0.5 9t0.5 10.5t0.5 8.5q9 0 18.5 6 t20.5 27.5t16 56.5z" />
<glyph unicode="&#xee;" horiz-adv-x="362" d="M245 512l-56 -399q-10 -70 6 -70q36 0 116 44l-6 -45q-74 -42 -132 -42q-56 0 -86.5 40t-26.5 66l57 406h128zM291 774q-57 -36 -71 -51q-23 -24 -28 -64q-4 -26 -21 -41t-37 -15q-21 0 -33 14.5t-8 41.5q0 6 3.5 12t10.5 13.5t14 14t20 15.5t22.5 15.5t28 18t31 19 t35.5 21.5t37 23q115 -85 134 -104q29 -28 27 -48q-4 -26 -21 -41t-37 -15t-33 15t-9 41q3 23 1 38.5t-14.5 30.5t-19.5 21t-32 25z" />
<glyph unicode="&#xef;" horiz-adv-x="341" d="M243 512l-56 -399q-10 -70 6 -70q38 0 118 44l-6 -45q-74 -42 -134 -42q-56 0 -86.5 40t-26.5 66l57 406h128zM99 704q4 26 25.5 45t47.5 19t42.5 -19t12.5 -45t-25.5 -45t-47.5 -19t-42.5 19t-12.5 45zM312 704q4 26 25.5 45t47.5 19q27 0 43 -19t12 -45t-25 -45 t-48 -19q-26 0 -42.5 19t-12.5 45z" />
<glyph unicode="&#xf0;" d="M579 171l27 192q7 50 -43.5 78t-133.5 28t-141.5 -27.5t-65.5 -78.5l-27 -192q-7 -53 43.5 -90.5t130.5 -37.5q79 0 141 37.5t69 90.5zM713 213q-13 -89 -115.5 -151t-234.5 -62q-134 0 -218 62.5t-72 150.5l15 107q12 87 111.5 139.5t235.5 52.5q113 0 194 -38l-171 200 l-75 -66l-26 31l75 65l-57 65l35 31l56 -65l74 65l27 -31l-74 -65l202 -236q16 -19 28 -59t5 -89z" />
<glyph unicode="&#xf1;" d="M243 512l-5 -34q87 34 197 34q137 0 221 -53t72 -139l-28 -196q-11 -81 5 -81q24 0 72 24l-6 -46q-63 -21 -88 -21q-56 0 -85.5 44.5t-26.5 71.5l35 247q7 50 -43.5 78t-133.5 28t-141.5 -27.5t-65.5 -78.5l-40 -282l-11 -81h-128l72 512h128zM362 768q-41 0 -56 -106 h-128q6 41 60.5 95t108.5 54q43 0 73 -17.5t45 -43t27 -50.5t28.5 -42.5t40.5 -17.5q41 0 56 107h128q-6 -41 -60 -95t-108 -54q-40 0 -68.5 17.5t-45 42.5t-30 50t-31 42.5t-40.5 17.5z" />
<glyph unicode="&#xf2;" d="M579 171l27 192q7 50 -43.5 78t-133.5 28t-141.5 -27.5t-65.5 -78.5l-27 -192q-7 -53 43.5 -90.5t130.5 -37.5q79 0 141 37.5t69 90.5zM713 213q-13 -89 -115.5 -151t-234.5 -62q-134 0 -218 62.5t-72 150.5l15 107q12 87 111.5 139.5t235.5 52.5q137 0 221 -53t72 -139z M488 743q-4 -35 0.5 -56.5t12.5 -27.5t17 -6q-1 -2 -2 -8.5t-2 -10.5t-3 -9t-5.5 -7.5t-8.5 -2.5q-14 0 -46.5 14t-64 45.5t-26.5 68.5q5 30 26 47t47 17q25 0 42.5 -17t12.5 -47z" />
<glyph unicode="&#xf3;" d="M579 171l27 192q7 50 -43.5 78t-133.5 28t-141.5 -27.5t-65.5 -78.5l-27 -192q-7 -53 43.5 -90.5t130.5 -37.5q79 0 141 37.5t69 90.5zM713 213q-13 -89 -115.5 -151t-234.5 -62q-134 0 -218 62.5t-72 150.5l15 107q12 87 111.5 139.5t235.5 52.5q137 0 221 -53t72 -139z M446 747q4 30 26 47t47 17q26 0 42.5 -17t12.5 -47q-5 -37 -45.5 -68.5t-77 -45.5t-50.5 -14q-5 0 -7.5 2.5t-3 7.5t-0.5 9t0.5 10.5t0.5 8.5q9 0 18.5 6t20.5 27.5t16 56.5z" />
<glyph unicode="&#xf4;" d="M579 171l27 192q7 50 -43.5 78t-133.5 28t-141.5 -27.5t-65.5 -78.5l-27 -192q-7 -53 43.5 -90.5t130.5 -37.5q79 0 141 37.5t69 90.5zM713 213q-13 -89 -115.5 -151t-234.5 -62q-134 0 -218 62.5t-72 150.5l15 107q12 87 111.5 139.5t235.5 52.5q137 0 221 -53t72 -139z M472 767q-3 -2 -20 -11t-20.5 -11t-17 -10t-16.5 -10.5t-13.5 -10t-13 -12.5t-9 -13t-9 -15t-5.5 -16.5t-4 -20.5q-5 -30 -26.5 -47t-46.5 -17q-26 0 -43 17t-12 47q3 24 52 55.5t155 87.5q35 18 54 28q16 -11 40 -25.5t38.5 -23.5t34 -21.5t31 -20.5t25 -18t21 -17.5 t13.5 -15.5t9 -15t2 -14q-5 -30 -26 -47t-47 -17q-25 0 -42.5 17t-12.5 47q1 11 1 20.5t-0.5 16.5t-5 15t-6.5 13t-9.5 12.5t-10 10.5t-13.5 10.5t-14 9.5t-16 11t-17 11z" />
<glyph unicode="&#xf5;" d="M579 171l27 192q7 50 -43.5 78t-133.5 28t-141.5 -27.5t-65.5 -78.5l-27 -192q-7 -53 43.5 -90.5t130.5 -37.5q79 0 141 37.5t69 90.5zM713 213q-13 -89 -115.5 -151t-234.5 -62q-134 0 -218 62.5t-72 150.5l15 107q12 87 111.5 139.5t235.5 52.5q137 0 221 -53t72 -139z M362 768q-41 0 -56 -106h-128q6 41 60.5 95t108.5 54q43 0 73 -17.5t45 -43t27 -50.5t28.5 -42.5t40.5 -17.5q41 0 56 107h128q-6 -41 -60 -95t-108 -54q-40 0 -68.5 17.5t-45 42.5t-30 50t-31 42.5t-40.5 17.5z" />
<glyph unicode="&#xf6;" d="M579 171l27 192q7 50 -43.5 78t-133.5 28t-141.5 -27.5t-65.5 -78.5l-27 -192q-7 -53 43.5 -90.5t130.5 -37.5q79 0 141 37.5t69 90.5zM713 213q-13 -89 -115.5 -151t-234.5 -62q-134 0 -218 62.5t-72 150.5l15 107q12 87 111.5 139.5t235.5 52.5q137 0 221 -53t72 -139z M568 704q4 26 25.5 45t47.5 19q27 0 43 -19t12 -45t-25 -45t-48 -19q-26 0 -42.5 19t-12.5 45zM227 704q4 26 25.5 45t47.5 19t42.5 -19t12.5 -45t-25.5 -45t-47.5 -19t-42.5 19t-12.5 45z" />
<glyph unicode="&#xf7;" horiz-adv-x="682" d="M355 704q4 26 25.5 45t47.5 19t42.5 -19t12.5 -45t-25.5 -45t-47.5 -19t-42.5 19t-12.5 45zM289 235q4 26 25.5 45t47.5 19t42.5 -19t12.5 -45q-4 -27 -25.5 -45.5t-47.5 -18.5t-42.5 18.5t-12.5 45.5zM663 469l-6 -42h-554l6 42h554z" />
<glyph unicode="&#xf8;" d="M713 213q-13 -89 -115.5 -151t-234.5 -62q-57 0 -105 12l-38 -55h-55l47 70q-72 27 -109.5 76.5t-29.5 109.5l15 107q12 87 111.5 139.5t235.5 52.5q58 0 104 -10l36 53h58l-45 -64q73 -23 110.5 -67.5t29.5 -103.5zM579 171l27 192q7 52 -49 82l-270 -390q37 -12 82 -12 q79 0 141 37.5t69 90.5zM246 76l265 385q-41 8 -82 8q-83 0 -141.5 -27.5t-65.5 -78.5l-27 -192q-8 -58 51 -95z" />
<glyph unicode="&#xf9;" d="M755 512l-55 -388q-11 -81 5 -81q24 0 72 24l-6 -46q-63 -21 -88 -21q-34 0 -56 5t-29 11.5t-16 11.5t-22 5q-2 0 -65.5 -16.5t-131.5 -16.5q-134 0 -218 62.5t-72 150.5l42 299h128l-48 -341q-7 -53 43.5 -90.5t130.5 -37.5q79 0 141 37.5t69 90.5l48 341h128zM489 747 q-5 -35 0 -56.5t12.5 -27.5t16.5 -6q0 -2 -1.5 -8.5t-2.5 -10.5t-2.5 -9t-5 -7.5t-8.5 -2.5q-14 0 -46.5 14t-64 45.5t-26.5 68.5q4 30 25.5 47t47.5 17q25 0 42 -17t13 -47z" />
<glyph unicode="&#xfa;" d="M755 512l-55 -388q-11 -81 5 -81q24 0 72 24l-6 -46q-63 -21 -88 -21q-34 0 -56 5t-29 11.5t-16 11.5t-22 5q-2 0 -65.5 -16.5t-131.5 -16.5q-134 0 -218 62.5t-72 150.5l42 299h128l-48 -341q-7 -53 43.5 -90.5t130.5 -37.5q79 0 141 37.5t69 90.5l48 341h128zM446 747 q4 30 26 47t47 17q26 0 42.5 -17t12.5 -47q-5 -37 -45.5 -68.5t-77 -45.5t-50.5 -14q-5 0 -7.5 2.5t-3 7.5t-0.5 9t0.5 10.5t0.5 8.5q9 0 18.5 6t20.5 27.5t16 56.5z" />
<glyph unicode="&#xfb;" d="M755 512l-55 -388q-11 -81 5 -81q24 0 72 24l-6 -46q-63 -21 -88 -21q-34 0 -56 5t-29 11.5t-16 11.5t-22 5q-2 0 -65.5 -16.5t-131.5 -16.5q-134 0 -218 62.5t-72 150.5l42 299h128l-48 -341q-7 -53 43.5 -90.5t130.5 -37.5q79 0 141 37.5t69 90.5l48 341h128zM472 767 q-3 -2 -20 -11t-20.5 -11t-17 -10t-16.5 -10.5t-13.5 -10t-13 -12.5t-9 -13t-9 -15t-5.5 -16.5t-4 -20.5q-5 -30 -26.5 -47t-46.5 -17q-26 0 -43 17t-12 47q3 24 52 55.5t155 87.5q35 18 54 28q16 -11 40 -25.5t38.5 -23.5t34 -21.5t31 -20.5t25 -18t21 -17.5t13.5 -15.5 t9 -15t2 -14q-5 -30 -26 -47t-47 -17q-25 0 -42.5 17t-12.5 47q1 11 1 20.5t-0.5 16.5t-5 15t-6.5 13t-9.5 12.5t-10 10.5t-13.5 10.5t-14 9.5t-16 11t-17 11z" />
<glyph unicode="&#xfc;" d="M755 512l-55 -388q-11 -81 5 -81q24 0 72 24l-6 -46q-63 -21 -88 -21q-34 0 -56 5t-29 11.5t-16 11.5t-22 5q-2 0 -65.5 -16.5t-131.5 -16.5q-134 0 -218 62.5t-72 150.5l42 299h128l-48 -341q-7 -53 43.5 -90.5t130.5 -37.5q79 0 141 37.5t69 90.5l48 341h128zM568 704 q4 26 25.5 45t47.5 19q27 0 43 -19t12 -45t-25 -45t-48 -19q-26 0 -42.5 19t-12.5 45zM227 704q4 26 25.5 45t47.5 19t42.5 -19t12.5 -45t-25.5 -45t-47.5 -19t-42.5 19t-12.5 45z" />
<glyph unicode="&#xfd;" d="M755 512l-72 -512q-13 -89 -115.5 -151t-234.5 -62q-99 0 -173 35.5t-103 92.5h94q19 -37 72 -61.5t116 -24.5q79 0 141 37.5t69 90.5l12 86q-92 -43 -198 -43q-134 0 -218 62.5t-72 151.5l42 298h128l-48 -340q-7 -54 43.5 -91.5t130.5 -37.5q79 0 141 37.5t69 91.5 l48 340h128zM446 747q4 30 26 47t47 17q26 0 42.5 -17t12.5 -47q-5 -37 -45.5 -68.5t-77 -45.5t-50.5 -14q-5 0 -7.5 2.5t-3 7.5t-0.5 9t0.5 10.5t0.5 8.5q9 0 18.5 6t20.5 27.5t16 56.5z" />
<glyph unicode="&#xfe;" d="M279 768l-41 -290q87 34 197 34q137 0 221 -53t72 -139l-15 -107q-13 -89 -115.5 -151t-234.5 -62q-108 0 -186 43l-36 -256h-128l138 981h128zM579 171l27 192q7 50 -43.5 78t-133.5 28t-141.5 -27.5t-65.5 -78.5l-27 -192q-7 -53 43.5 -90.5t130.5 -37.5q79 0 141 37.5 t69 90.5z" />
<glyph unicode="&#xff;" d="M755 512l-72 -512q-13 -89 -115.5 -151t-234.5 -62q-99 0 -173 35.5t-103 92.5h94q19 -37 72 -61.5t116 -24.5q79 0 141 37.5t69 90.5l12 86q-92 -43 -198 -43q-134 0 -218 62.5t-72 151.5l42 298h128l-48 -340q-7 -54 43.5 -91.5t130.5 -37.5q79 0 141 37.5t69 91.5 l48 340h128zM568 704q4 26 25.5 45t47.5 19q27 0 43 -19t12 -45t-25 -45t-48 -19q-26 0 -42.5 19t-12.5 45zM227 704q4 26 25.5 45t47.5 19t42.5 -19t12.5 -45t-25.5 -45t-47.5 -19t-42.5 19t-12.5 45z" />
<glyph unicode="&#x152;" horiz-adv-x="1280" d="M579 171l63 448q7 50 -43.5 78t-133.5 28t-141.5 -27.5t-65.5 -78.5l-63 -448q-7 -53 43.5 -90.5t130.5 -37.5q79 0 141 37.5t69 90.5zM1303 768l-6 -43h-384q-28 0 -41.5 -0.5t-34 -4t-30.5 -10.5t-19.5 -21t-12.5 -34l-26 -186h384l-6 -42h-384l-44 -314 q-3 -20 2.5 -34t13.5 -21t27.5 -10.5t33 -4t41.5 -0.5h384l-6 -43h-640l6 43q-92 -43 -198 -43q-134 0 -218 62.5t-72 150.5l51 363q12 87 111.5 139.5t235.5 52.5q109 0 187 -34l5 34h640z" />
<glyph unicode="&#x153;" horiz-adv-x="1280" d="M725 299h384l9 64q7 50 -43.5 78t-133.5 28t-141.5 -27.5t-65.5 -78.5zM579 171l27 192q7 50 -43.5 78t-133.5 28t-141.5 -27.5t-65.5 -78.5l-27 -192q-7 -53 43.5 -90.5t130.5 -37.5q79 0 141 37.5t69 90.5zM719 256l-6 -43l-6 -42q-7 -53 43.5 -90.5t130.5 -37.5 q79 0 141 37.5t69 90.5h128q-32 -73 -130 -122t-214 -49q-163 0 -244 85q-108 -85 -268 -85q-134 0 -218 62.5t-72 150.5l15 107q12 87 111.5 139.5t235.5 52.5q164 0 246 -71q102 71 266 71q134 0 218 -62.5t72 -150.5l-6 -43h-512z" />
<glyph unicode="&#x178;" d="M549 -43l12 86q-92 -43 -198 -43q-134 0 -218 62.5t-72 151.5l78 554h128l-84 -596q-7 -54 43.5 -91.5t130.5 -37.5q79 0 141 37.5t69 91.5l84 596h128l-108 -768q-10 -72 -61 -121t-124.5 -70.5t-164.5 -21.5q-99 0 -173 35.5t-103 92.5h94q19 -37 72 -61.5t116 -24.5 q79 0 141 37.5t69 90.5zM592 875q4 26 25.5 45t47.5 19q27 0 43 -19t12 -45t-25 -45t-48 -19q-26 0 -42.5 19t-12.5 45zM251 875q4 26 25.5 45t47.5 19t42.5 -19t12.5 -45t-25.5 -45t-47.5 -19t-42.5 19t-12.5 45z" />
<glyph unicode="&#x2c6;" d="M474 770q-3 -2 -20 -11t-20 -11t-16.5 -10t-16.5 -10.5t-13.5 -10t-13.5 -12.5t-9.5 -13t-9 -15t-5.5 -16.5t-4 -20.5q-4 -30 -26 -47t-47 -17q-26 0 -42.5 17t-12.5 47q3 24 52 55.5t155 87.5q36 18 54 28q16 -11 40 -25.5t39 -23.5t34 -21.5t30.5 -20.5t25 -18 t21 -17.5t14 -15.5t9 -15t1.5 -14q-4 -30 -25.5 -47t-47.5 -17q-25 0 -42 17t-13 47q1 11 1 20.5t-0.5 16.5t-5 15t-6 13t-9 12.5t-10 10.5t-13.5 10.5t-14.5 9.5t-16.5 11t-17 11z" />
<glyph unicode="&#x2dc;" d="M356 725q-41 0 -56 -106h-128q6 41 60.5 95t108.5 54q43 0 73 -17.5t45 -43t27 -50.5t28.5 -42.5t40.5 -17.5q41 0 56 107h128q-6 -41 -60 -95t-108 -54q-40 0 -68.5 17.5t-45 42.5t-30 50t-31 42.5t-40.5 17.5z" />
<glyph unicode="&#x2000;" horiz-adv-x="523" />
<glyph unicode="&#x2001;" horiz-adv-x="1046" />
<glyph unicode="&#x2002;" horiz-adv-x="523" />
<glyph unicode="&#x2003;" horiz-adv-x="1046" />
<glyph unicode="&#x2004;" horiz-adv-x="348" />
<glyph unicode="&#x2005;" horiz-adv-x="261" />
<glyph unicode="&#x2006;" horiz-adv-x="174" />
<glyph unicode="&#x2007;" horiz-adv-x="174" />
<glyph unicode="&#x2008;" horiz-adv-x="130" />
<glyph unicode="&#x2009;" horiz-adv-x="209" />
<glyph unicode="&#x200a;" horiz-adv-x="58" />
<glyph unicode="&#x2010;" horiz-adv-x="682" d="M663 469l-6 -42h-554l6 42h554z" />
<glyph unicode="&#x2011;" horiz-adv-x="682" d="M663 469l-6 -42h-554l6 42h554z" />
<glyph unicode="&#x2012;" horiz-adv-x="682" d="M663 469l-6 -42h-554l6 42h554z" />
<glyph unicode="&#x2013;" horiz-adv-x="1024" d="M749 469l-6 -42h-640l6 42h640z" />
<glyph unicode="&#x2014;" horiz-adv-x="1024" d="M962 469l-6 -42h-853l6 42h853z" />
<glyph unicode="&#x2018;" horiz-adv-x="1024" d="M267 683q-4 -30 -26 -47t-47 -17q-26 0 -42.5 17t-12.5 47q5 37 45.5 68.5t77 45.5t50.5 14q5 0 7.5 -2.5t3 -8t0.5 -9t-0.5 -10.5t-1.5 -9q-9 0 -18 -6t-20 -27.5t-16 -55.5z" />
<glyph unicode="&#x2019;" horiz-adv-x="1024" d="M190 747q4 29 26 46.5t47 17.5q26 0 42.5 -17.5t12.5 -46.5q-5 -37 -45.5 -68.5t-77 -45.5t-50.5 -14q-5 0 -7.5 2.5t-3 7.5t-0.5 8.5t0.5 10.5t0.5 9q9 0 18.5 6t20.5 27.5t16 56.5z" />
<glyph unicode="&#x201a;" horiz-adv-x="1024" d="M88 21q4 30 26 47t47 17q26 0 42.5 -17t12.5 -47q-5 -37 -45.5 -68.5t-77 -45.5t-50.5 -14q-5 0 -7.5 2.5t-3 8t-0.5 9t0.5 10.5t0.5 9q9 0 18.5 6t20.5 27.5t16 55.5z" />
<glyph unicode="&#x201c;" horiz-adv-x="1024" d="M480 683q-4 -30 -26 -47t-47 -17q-26 0 -42.5 17t-12.5 47q5 37 45.5 68.5t77.5 45.5t51 14q5 0 7.5 -2.5t3 -8t0.5 -9t-0.5 -10.5t-1.5 -9q-9 0 -18 -6t-20.5 -27.5t-16.5 -55.5zM267 683q-4 -30 -26 -47t-47 -17q-26 0 -42.5 17t-12.5 47q5 37 45.5 68.5t77 45.5 t50.5 14q5 0 7.5 -2.5t3 -8t0.5 -9t-0.5 -10.5t-1.5 -9q-9 0 -18 -6t-20 -27.5t-16 -55.5z" />
<glyph unicode="&#x201d;" horiz-adv-x="1024" d="M404 747q4 29 26 46.5t47 17.5q26 0 42.5 -17.5t12.5 -46.5q-5 -37 -45.5 -68.5t-77.5 -45.5t-51 -14q-5 0 -7.5 2.5t-3 7.5t-0.5 8.5t0.5 10.5t0.5 9q9 0 18.5 6t21 27.5t16.5 56.5zM190 747q4 29 26 46.5t47 17.5q26 0 42.5 -17.5t12.5 -46.5q-5 -37 -45.5 -68.5 t-77 -45.5t-50.5 -14q-5 0 -7.5 2.5t-3 7.5t-0.5 8.5t0.5 10.5t0.5 9q9 0 18.5 6t20.5 27.5t16 56.5z" />
<glyph unicode="&#x201e;" horiz-adv-x="1024" d="M302 21q4 30 26 47t47 17q26 0 42.5 -17t12.5 -47q-5 -37 -45.5 -68.5t-77.5 -45.5t-51 -14q-5 0 -7.5 2.5t-3 8t-0.5 9t0.5 10.5t0.5 9q9 0 18.5 6t21 27.5t16.5 55.5zM88 21q4 30 26 47t47 17q26 0 42.5 -17t12.5 -47q-5 -37 -45.5 -68.5t-77 -45.5t-50.5 -14 q-5 0 -7.5 2.5t-3 8t-0.5 9t0.5 10.5t0.5 9q9 0 18.5 6t20.5 27.5t16 55.5z" />
<glyph unicode="&#x2022;" horiz-adv-x="1024" d="M206 405q43 0 70.5 -31.5t21.5 -74.5t-42.5 -75t-79.5 -32t-70 32t-21 75t42 74.5t79 31.5z" />
<glyph unicode="&#x2026;" horiz-adv-x="1024" d="M548 107q27 0 43 -19t12 -45q-4 -27 -25 -45.5t-48 -18.5q-26 0 -42.5 18.5t-12.5 45.5q4 26 25.5 45t47.5 19zM122 107q26 0 42.5 -19t12.5 -45q-4 -27 -25.5 -45.5t-47.5 -18.5q-27 0 -43 18.5t-12 45.5q4 26 25 45t48 19zM335 107q26 0 42.5 -19t12.5 -45 q-4 -27 -25.5 -45.5t-47.5 -18.5t-42.5 18.5t-12.5 45.5q4 26 25.5 45t47.5 19z" />
<glyph unicode="&#x202f;" horiz-adv-x="209" />
<glyph unicode="&#x205f;" horiz-adv-x="261" />
<glyph unicode="&#x20ac;" horiz-adv-x="853" d="M792 171q-33 -74 -129.5 -122.5t-214.5 -48.5q-138 0 -220 62.5t-70 149.5l2 15l-97 -39l-10 40l114 46l13 97l-73 -28l-10 40l90 34l22 159q12 86 109 138.5t238 52.5q122 0 204.5 -37t94.5 -111h-106q5 36 -27 61t-77 34.5t-95 9.5q-80 0 -140 -26t-67 -79l-21 -150 l318 123l11 -39l-336 -130l-13 -98l294 112l11 -39l-312 -119l-15 -108q-8 -56 44.5 -92t129.5 -36q82 0 153.5 37.5t78.5 90.5h106z" />
<glyph unicode="&#xe000;" horiz-adv-x="510" d="M0 510h510v-510h-510v510z" />
<glyph unicode="&#xfb01;" d="M568 704q4 26 25.5 45t47.5 19q27 0 43 -19t12 -45t-25 -45t-48 -19q-26 0 -42.5 19t-12.5 45zM669 512l-56 -399q-10 -70 6 -70q38 0 118 44l-6 -45q-73 -42 -134 -42q-56 0 -86.5 40t-26.5 66l51 363h-256l-69 -490q-27 -192 -240 -192l6 42q45 0 68.5 26.5t31.5 80.5 l75 533h-42l6 43h42l9 64q12 87 112 139.5t235 52.5l-6 -43q-71 0 -135.5 -28.5t-71.5 -77.5l-15 -107h384z" />
<glyph unicode="&#xfb02;" horiz-adv-x="614" />
<glyph unicode="&#xfb03;" horiz-adv-x="1152" d="M952 704q4 26 25.5 45t47.5 19q27 0 43 -19t12 -45t-25 -45t-48 -19q-26 0 -42.5 19t-12.5 45zM1053 512l-56 -399q-10 -70 6 -70q38 0 118 44l-6 -45q-73 -42 -134 -42q-56 0 -86.5 40t-26.5 66l51 363h-256l-69 -490q-27 -192 -240 -192l6 42q45 0 68.5 26.5t31.5 80.5 l75 533h-256l-69 -490q-27 -192 -240 -192l6 42q45 0 68.5 26.5t31.5 80.5l75 533h-42l6 43h42l9 64q12 88 115 140t254 52l-6 -43q-86 0 -154 -28t-75 -78l-15 -107h256l9 64q12 87 112 139.5t235 52.5l-6 -43q-71 0 -135.5 -28.5t-71.5 -77.5l-15 -107h384z" />
<glyph unicode="&#xfb04;" horiz-adv-x="614" />
</font>
</defs>
</svg>
