<?xml version="1.0" standalone="no"?>
<!DOCTYPE svg PUBLIC "-//W3C//DTD SVG 1.1//EN" "http://www.w3.org/Graphics/SVG/1.1/DTD/svg11.dtd" >
<svg xmlns="http://www.w3.org/2000/svg">
<metadata></metadata>
<defs>
<font id="sf_toontimeregular" horiz-adv-x="1145" >
<font-face units-per-em="2048" ascent="1638" descent="-410" />
<missing-glyph horiz-adv-x="570" />
<glyph horiz-adv-x="2048" />
<glyph horiz-adv-x="2048" />
<glyph unicode="&#xd;" horiz-adv-x="1024" />
<glyph unicode=" "  horiz-adv-x="570" />
<glyph unicode="&#x09;" horiz-adv-x="570" />
<glyph unicode="&#xa0;" horiz-adv-x="570" />
<glyph unicode="!" horiz-adv-x="505" d="M442 1299q0 -96 -38 -236q-56 -210 -59 -230q-9 -87 -46 -258q-38 -109 -122 -109q-52 0 -52 63q0 58 30 213q17 91 79 367q10 65 49 190q36 77 103 77q56 0 56 -77zM259 191q0 -65 -27 -123q-36 -71 -92 -71q-60 0 -60 63q0 -19 10 70q2 13 4 39q5 41 34 73.5t68 32.5 q63 0 63 -84z" />
<glyph unicode="&#x22;" horiz-adv-x="947" d="M742 1287q0 -178 -29 -302q-27 -116 -109 -116q-70 0 -70 102q0 198 17 289q22 116 116 116q75 0 75 -89zM416 1217q0 -34 -1.5 -101.5t-1.5 -101.5q0 -51 -3 -72q-7 -44 -41 -76.5t-79 -32.5q-44 0 -53 60q-3 23 -3 187q0 24 -2 70t-2 70q0 51 32.5 95t83.5 44 q70 0 70 -142z" />
<glyph unicode="#" horiz-adv-x="1606" d="M1471 664q0 -96 -101 -132q-32 -11 -179 -30v-135q0 -48 -3 -67q-9 -42 -39.5 -72t-73.5 -30q-41 0 -49 56q-4 24 -4 226l-406 -50q-7 -165 -8 -181q-23 -114 -108 -114q-60 0 -60 80q0 2 7 191q-7 -2 -109 -24q-65 -15 -109 -15q-50 0 -50 60q0 100 94 140q27 10 181 35 q5 169 12 357q-77 -14 -155 -29q-93 -17 -156 -17q-56 0 -56 65q0 95 90 130q55 20 140 30q72 7 144 16q5 162 116 162q63 0 63 -85q0 -19 -3 -53q256 37 390 53q5 177 111 177q63 0 63 -75q0 -10 -6 -84q155 17 182 17q60 0 60 -66q0 -89 -89 -118q-17 -5 -162 -20 q-5 -142 -7 -364l111 19q67 10 113 10q56 0 56 -63zM1029 1041q-85 -12 -391 -56q-3 -118 -10 -354q67 9 394 47q2 196 7 363z" />
<glyph unicode="$" horiz-adv-x="1411" d="M1335 1055q0 -87 -81 -171q-70 -72 -162 -107q-17 -7 -29 -7q-59 0 -59 66q0 57 64 103q98 70 104 76q-49 62 -191 93q-42 -209 -90 -417q268 -104 268 -292q0 -162 -137 -254q-116 -77 -290 -82q-17 -78 -65 -229q-36 -81 -97 -81q-72 0 -72 75q0 42 24 123 q21 61 39 122q-68 12 -129 33q-21 -87 -41 -173q-24 -102 -55 -169q-36 -78 -92 -78q-63 0 -63 70q0 75 41 217q32 109 65 218q-14 19 -14 41q0 58 46 99l70 294q-254 97 -254 291q0 140 136 253q116 96 270 130l67 288q18 79 99 79q59 0 59 -57q0 -59 -20 -145 q-17 -70 -36 -141q84 6 145 3q12 80 50 237q34 110 105 110q28 0 45.5 -22.5t17.5 -49.5q0 -63 -18 -150q-17 -75 -34 -149q314 -68 314 -247zM816 1133q-43 4 -77 4q-29 0 -67 -4q-5 -27 -78 -350q44 -13 135 -39q44 193 87 389zM498 1111q-68 -15 -121 -48 q-72 -44 -72 -97q0 -80 134 -133zM978 331v7q0 85 -137 145l-53 -212q140 12 190 60zM679 536q-44 14 -135 39q-30 -128 -63 -261q65 -24 133 -36q23 86 65 258z" />
<glyph unicode="%" horiz-adv-x="1681" d="M877 1027q0 -160 -94 -269q-99 -116 -257 -116q-128 0 -219 71q-95 79 -95 203q0 149 99 294q107 159 249 159q126 0 221.5 -107t95.5 -235zM1316 1379q0 -99 -309 -613q-198 -326 -398 -650q-24 -44 -77 -126q-44 -57 -85 -57q-31 0 -54 23.5t-23 53.5q0 21 21 60 q109 206 338 582q239 391 339 579q67 122 74 134q59 92 106 92q30 0 49 -23.5t19 -54.5zM1468 413q0 -171 -113.5 -297t-282.5 -126q-125 0 -202 94q-70 88 -70 216q0 75 33 159q34 91 87 137q39 34 66 34q9 0 16 -2q29 109 172 109q135 0 217 -97q77 -90 77 -227zM701 952 q0 77 -66 140q-58 53 -138 79q-113 -72 -113 -179q0 -67 56 -110q52 -39 120 -39q54 0 97.5 29t43.5 80zM1294 367q0 78 -53 123q-50 39 -130 39q-8 0 -29.5 -2.5t-33.5 -0.5q-7 -28 -44 -77q-31 -41 -31 -92q0 -65 48.5 -115.5t113.5 -50.5q66 0 112.5 54.5t46.5 121.5z " />
<glyph unicode="&#x26;" horiz-adv-x="1565" d="M1384 1299q0 -39 -60 -181q-58 -135 -88 -176q-48 -63 -96 -63q-70 0 -70 77q0 44 53 131q-266 80 -529 80q-208 0 -208 -87q0 -88 297 -193q194 -63 387 -126q56 -27 56 -73t-33 -88t-79 -42q-28 0 -83 7t-83 7q-126 0 -280 -51q-196 -64 -196 -161q0 -25 27 -56 q89 -103 420 -103q106 0 237 14q67 251 166 251q29 0 49.5 -22t20.5 -53q0 -21 -21 -70q-37 -101 -76 -202q-31 -73 -87 -95q-62 -24 -224 -24h-49q-263 0 -402 39q-242 70 -242 265q0 143 101 254q89 97 234 150q-313 144 -313 347q0 68 45 135q116 172 409 172 q253 0 540 -92q35 102 102 102q31 0 53 -21.5t22 -51.5z" />
<glyph unicode="'" horiz-adv-x="623" d="M401 1217q0 -34 -2 -103v-100q0 -51 -3 -72q-7 -44 -42 -76.5t-79 -32.5q-45 0 -53 60q-4 23 -4 187q0 24 -1.5 70t-1.5 70q0 51 32.5 95t83.5 44q70 0 70 -142z" />
<glyph unicode="(" horiz-adv-x="744" d="M527 116q0 -46 -34 -86t-78 -40q-22 0 -53 20q-121 82 -193 275q-61 167 -61 336q0 186 69 381q77 215 202 327q39 36 72 36q32 0 52.5 -27t20.5 -61q0 -35 -34 -81q-104 -141 -140 -225q-48 -113 -48 -261q0 -166 55 -288q22 -47 150 -250q20 -32 20 -56z" />
<glyph unicode=")" horiz-adv-x="739" d="M626 748q0 -193 -68 -381q-75 -203 -203 -328q-41 -39 -70 -39q-32 0 -53.5 27.5t-21.5 61.5t36 83q106 145 140 224q47 111 47 259q0 166 -54 289q-29 63 -150 249q-22 34 -22 56q0 46 34.5 86.5t79.5 40.5q22 0 53 -21q121 -82 191 -273q61 -166 61 -334z" />
<glyph unicode="*" horiz-adv-x="1104" d="M1014 1114q0 -58 -96 -141q-71 -57 -145 -113q116 -87 133 -102q89 -77 89 -127q0 -40 -30.5 -78t-71.5 -38q-17 0 -46 21q-72 63 -222 181q-2 -28 -2 -142q0 -278 -125 -278q-54 0 -54 92q0 -12 8 203q-70 -65 -140 -129q-109 -96 -143 -96q-31 0 -50 31q-17 25 -17 58 q0 34 33 73q58 70 157 150q85 67 171 135v12q-88 46 -248 159q-34 30 -34 63q0 43 30.5 83t71.5 40q26 0 193 -109q2 39 2 150q0 196 107 196q69 0 69 -82q0 -118 -16 -367l154 130q119 97 157 97q65 0 65 -72z" />
<glyph unicode="+" horiz-adv-x="920" d="M882 761q0 -102 -95 -126q-57 -14 -227 -14q-41 0 -47 -68t-15 -99q-27 -101 -109 -101q-56 0 -56 70q0 16 13 198q-76 -3 -225 10q-53 12 -53 60q0 46 32.5 92t76.5 46q31 0 90 -3t86 -3v20q0 27 -3.5 79.5t-3.5 79.5q0 46 39.5 88.5t83.5 42.5q67 0 67 -172 q0 -12 -4 -138q28 0 123 3q77 3 125 3q102 0 102 -68z" />
<glyph unicode="," horiz-adv-x="522" d="M389 191q0 -37 -26.5 -130t-46.5 -134q-43 -89 -106 -89q-67 0 -67 77q0 117 60 264q39 96 113 96q73 0 73 -84z" />
<glyph unicode="-" d="M944 773q0 -109 -99 -135q-14 -3 -173 -10q-409 -17 -370 -17q-80 0 -80 80q0 99 101 130q51 15 182 15h348q91 0 91 -63z" />
<glyph unicode="." horiz-adv-x="568" d="M370 188q0 -188 -116 -188q-73 0 -73 135q0 51 33 95.5t83 44.5q73 0 73 -87z" />
<glyph unicode="/" horiz-adv-x="1043" d="M905 1471q0 -17 -4 -32q-68 -316 -237 -763q-140 -376 -282 -749q-15 -57 -56 -163q-43 -85 -113 -85q-73 0 -73 70q0 46 179 529q111 295 222 591q48 126 131 380q16 75 64 219q35 80 99 80q70 0 70 -77z" />
<glyph unicode="0" horiz-adv-x="1417" d="M1251 674q0 -285 -183.5 -474.5t-468.5 -189.5q-213 0 -328 147q-104 133 -104 352q0 194 79.5 378.5t221.5 319.5q-4 12 -4 24q0 141 185 141q267 0 442 -218q160 -203 160 -480zM1068 638q0 198 -128 346t-324 170q-8 -31 -49 -79q-116 -135 -164 -230 q-58 -123 -58 -277q0 -155 77 -245q81 -98 233 -98q185 0 299 114.5t114 298.5z" />
<glyph unicode="1" horiz-adv-x="720" d="M541 1231q0 -169 -39 -533q-24 -222 -34 -401q0 -65 -19 -191q-33 -116 -123 -116q-56 0 -56 123q0 182 41 524q41 356 44 524h-19q-114 0 -189 -14q-19 -4 -43.5 -4t-24.5 57q0 90 88 133q60 29 290 29q84 0 84 -131z" />
<glyph unicode="2" horiz-adv-x="1442" d="M1236 152q0 -44 -33.5 -86t-76.5 -42q-12 0 -35 2.5t-35 2.5q-68 0 -202.5 -14.5t-203.5 -14.5q-324 0 -324 215q0 154 186 280q172 104 345 206q186 130 186 291q0 179 -234 179q-128 0 -278 -55q-167 -61 -234 -150q-7 -9 -7 -21q0 -29 53 -67t53 -78q0 -41 -30 -80 t-69 -39q-14 0 -31 10q-138 87 -138 215q0 205 265 347q225 119 452 119q167 0 266 -83q104 -91 104 -255q0 -307 -336 -529q-101 -60 -203 -121q-167 -101 -167 -116q0 -53 216 -53q57 0 169.5 13t168.5 13q173 0 173 -89z" />
<glyph unicode="3" horiz-adv-x="1478" d="M1283 367q0 -207 -220 -304q-164 -73 -401 -73q-251 0 -341 34q-56 20 -56 65q0 49 35 89t84 40q55 0 164 -11.5t164 -11.5q105 0 218 23q154 31 178 93q-16 141 -212 213q-143 51 -321 51q-29 0 -84.5 -5t-84.5 -5q-60 0 -60 60q0 95 94 141q29 14 132 38q153 34 295 90 q220 87 220 164q0 63 -106 97q-76 26 -158 26q-279 0 -565 -97q-26 -9 -33 -9q-59 0 -59 75q0 65 70 110q80 51 295 83q181 29 316 29q419 0 419 -285q0 -208 -324 -357q138 -47 230 -133q111 -102 111 -230z" />
<glyph unicode="4" horiz-adv-x="1271" d="M1184 572q0 -45 -26 -83t-69 -49q-19 -5 -67 -7v-129q2 -87 2 -130q0 -206 -111 -206q-46 0 -46 52q0 69 -2 197q-1 145 -1 196q-296 -49 -417 -49q-157 0 -252 64q-115 75 -115 224q0 101 48 232q43 113 85 224q14 54 45 162q29 102 102 102q60 0 60 -77 q0 -105 -81 -295.5t-81 -294.5q0 -140 239 -140q76 0 370 46v215q0 268 109 268q29 0 39 -46q14 -63 14 -203q0 -39 -2 -109q-1 -77 -1 -108q42 3 82 3q76 0 76 -59z" />
<glyph unicode="5" horiz-adv-x="1476" d="M1311 596q0 -243 -231 -427q-216 -172 -466 -172q-112 0 -233 47q-137 55 -190 139q-17 27 -17 49q0 41 31 81t71 40q7 0 113 -68q125 -80 271 -80q163 0 297 87q156 97 156 251q0 104 -84 162q-72 49 -181 49q-169 0 -372 -107q-160 -86 -182 -86q-74 0 -74 81 q0 203 120 525q-14 23 -14 50q0 104 102 135q29 8 176 13q50 2 258 12q159 9 258 9q102 0 102 -67q0 -107 -99 -138q-32 -10 -166 -10q-75 0 -442 -24q-25 -96 -73 -290q241 124 444 124q184 0 302 -99q123 -105 123 -286z" />
<glyph unicode="6" horiz-adv-x="1374" d="M1294 645q0 -244 -244 -449q-236 -196 -483 -196q-198 0 -297 138q-87 121 -87 328q0 213 93 473q101 283 246 406q36 31 63 31q64 0 64 -77q0 -29 -29 -75q-55 -84 -108 -168q-60 -97 -89 -177q212 109 483 109q236 0 328 -131q60 -86 60 -212zM1118 614q0 89 -85 135 q-69 38 -166 38q-261 0 -500 -149q-12 -66 -12 -112q0 -325 251 -325q191 0 357 145q155 137 155 268z" />
<glyph unicode="7" horiz-adv-x="1266" d="M1198 1260q0 -62 -162 -340q-108 -178 -215 -355q-113 -193 -166 -324q-17 -52 -59 -149q-43 -82 -103 -82q-68 0 -68 67q0 15 8 42q77 250 231 531q99 186 299 497q-260 31 -623 31q-127 0 -186 18q-50 16 -50 53q0 43 31.5 81.5t74.5 38.5q46 0 123 -4q94 -3 121 -3 h203q410 0 488 -33l5 -1q48 -21 48 -68z" />
<glyph unicode="8" horiz-adv-x="1425" d="M1241 406q0 -199 -198 -324q-147 -92 -377 -92q-193 0 -323 75q-160 92 -160 270q0 197 169 332q-145 70 -145 222q0 166 165 297v4q0 76 72 119q102 60 305 60q179 0 307 -96q142 -104 142 -278t-142 -287q185 -123 185 -302zM1022 956q0 102 -121 164q-97 51 -212 51 q-34 0 -66 -4q-24 -34 -96 -68q-85 -43 -107 -60q-51 -41 -51 -104q0 -138 385 -138q87 0 168 36q100 46 100 123zM1067 364q0 78 -113 158q-107 74 -189 74q-142 0 -251 -40q-156 -54 -156 -169q0 -102 137 -162q109 -46 227 -46q109 0 212 41q133 53 133 144z" />
<glyph unicode="9" horiz-adv-x="1468" d="M1273 1171q0 -41 -30 -82t-69 -41q5 0 -103 66.5t-195 66.5q-181 0 -333 -113q-166 -124 -166 -298q0 -106 56 -181q62 -80 166 -80q118 0 241 87q44 30 184 160q92 87 140 87q70 0 70 -77q0 -94 -60 -353q-61 -270 -102 -336q-51 -84 -120 -84q-59 0 -59 60q0 78 41 213 q32 108 64 214q-220 -198 -419 -198q-176 0 -286 117.5t-110 295.5q0 273 230 486q225 208 500 208q102 0 196 -44q101 -46 151 -128q13 -22 13 -46z" />
<glyph unicode=":" horiz-adv-x="568" d="M375 614q0 -56 -40 -110.5t-94 -54.5q-67 0 -67 73q0 55 38.5 114t91.5 59q71 0 71 -81zM375 183q0 -64 -35 -120q-40 -63 -99 -63q-31 0 -50.5 25.5t-19.5 56.5q0 58 37 119q41 70 96 70q71 0 71 -88z" />
<glyph unicode=";" horiz-adv-x="498" d="M387 572q0 -46 -32 -87t-77 -41q-42 0 -68 46q-22 39 -22 85q0 51 33 94.5t83 43.5q39 0 63 -53q20 -44 20 -88zM353 155q0 -1 -24 -80q-35 -121 -47 -145q-43 -89 -106 -89q-67 0 -67 77q0 12 7 39q29 120 50 166q47 106 116 106q71 0 71 -74z" />
<glyph unicode="&#x3c;" horiz-adv-x="893" d="M708 952q0 -65 -77 -116q-51 -34 -146 -82q-110 -56 -150 -80q92 -56 261 -188q35 -34 35 -70q0 -47 -30 -92q-33 -49 -79 -49q-51 0 -217 123q-145 105 -206 170q-39 41 -39 77q0 60 59 113q183 162 512 276q11 4 14 4q29 0 46 -27.5t17 -58.5z" />
<glyph unicode="=" horiz-adv-x="1300" d="M1094 906q0 -49 -36.5 -92.5t-86.5 -43.5q-75 0 -224.5 6.5t-224.5 6.5q-128 0 -196 21q-60 17 -60 68q0 55 38.5 99t91.5 44q56 0 145 -6q116 -9 145 -11q89 -1 178 -3q105 -3 174 -26q56 -17 56 -63zM1113 543q0 -113 -99 -137q-28 -7 -205 -7q-87 0 -261 -11t-261 -11 q-80 0 -80 79q0 111 105 140q75 20 263 20q67 0 198 -2h198q60 0 89 -6q53 -12 53 -65z" />
<glyph unicode="&#x3e;" horiz-adv-x="1000" d="M795 720q0 -42 -36 -89q-46 -59 -199 -192q-169 -145 -212 -145q-65 0 -65 87q0 54 53 105q72 58 212 181q-82 60 -207 123q-37 17 -107 57q-38 23 -38 59q0 46 36 94t80 48q77 0 238 -94q148 -87 209 -154q36 -39 36 -80z" />
<glyph unicode="?" horiz-adv-x="1236" d="M1205 1114q0 -182 -154 -286q-100 -69 -334 -130q-256 -67 -330 -106q21 -31 21 -63q0 -44 -27 -84q-31 -46 -72 -46q-44 0 -80 60q-33 55 -33 102q0 151 202 246q49 24 326 98q228 59 291 122q7 7 7 16q0 150 -367 150q-177 0 -331 -72q-36 -17 -49 -17 q-31 0 -49.5 25.5t-18.5 56.5q0 53 52 97q62 53 238 87q143 28 257 28q176 0 294 -55q157 -73 157 -229zM440 172q0 -20 -29 -73q-34 -61 -39 -68q-29 -38 -67 -38q-59 0 -59 70q0 56 39 114q43 67 96 67q59 0 59 -72z" />
<glyph unicode="@" horiz-adv-x="1783" d="M1667 754q0 -206 -114 -353q-123 -160 -324 -160q-215 0 -268 140q-106 -87 -193 -87q-92 0 -142 88q-42 74 -42 173q0 179 92 341q109 191 275 191q63 0 148 -44q96 -51 96 -108q0 -39 -31 -80t-68 -41q-14 0 -72 41t-101 41q-76 0 -123 -109q-35 -87 -35 -176 q0 -102 44 -102q51 0 132 84.5t122 84.5q33 0 52.5 -25t19.5 -57q0 -11 -4.5 -32t-4.5 -32q0 -88 139 -88q218 0 218 254q0 225 -147 406q-155 191 -375 191q-251 0 -439 -283q-167 -254 -167 -519q0 -416 469 -416q77 0 77 -70q0 -137 -201 -137q-255 0 -396 156 q-137 150 -137 407q0 221 111 470q115 258 297 421q205 183 432 183q264 0 468 -247q192 -234 192 -506z" />
<glyph unicode="A" horiz-adv-x="1065" d="M1026 130q0 -45 -37 -92.5t-79 -47.5q-55 0 -106 176q-41 -7 -106 -7q-29 0 -85.5 1.5t-83.5 1.5h-293q-64 -182 -140 -182q-69 0 -69 73q0 46 164 474q101 261 203 524q29 77 57 154q35 87 76 145t87 58t74 -63q37 -87 68 -229q44 -206 51 -234q80 -240 215 -727 q4 -15 4 -25zM751 314q-96 288 -190 705q-20 -50 -269 -705h459z" />
<glyph unicode="B" horiz-adv-x="1234" d="M1179 1101q0 -217 -370 -410q128 -37 212 -112q102 -91 102 -209q0 -99 -68 -184q-60 -75 -157 -123q-150 -73 -405 -73q-246 0 -316 42q-73 0 -73 74v329q0 360 46 652q-12 -3 -25 -3q-60 0 -60 73q0 65 72.5 113.5t290.5 82.5q181 29 314 29q437 0 437 -281zM1004 1065 q0 68 -106 102q-74 23 -166 23q-201 0 -420 -53q-7 -149 -18 -446q198 55 404 145q306 133 306 229zM944 314q0 102 -154 160q-118 45 -242 45q-121 0 -261 -29q-5 -174 -11 -285q221 -10 265 -10q270 0 370 80q33 25 33 39z" />
<glyph unicode="C" horiz-adv-x="1121" d="M1072 335q0 -26 -14 -53q-65 -130 -194.5 -211t-274.5 -81q-225 0 -385 166.5t-160 393.5q0 259 203 539q219 300 468 300q244 0 318 -355v-3q0 -45 -32.5 -88.5t-77.5 -43.5q-30 0 -63 76q-49 109 -70 136q-53 75 -131 75q-149 0 -301 -227q-140 -210 -140 -367 q0 -169 125 -289t295 -120q108 0 188 56q41 29 106 107q48 57 77 57q63 0 63 -68z" />
<glyph unicode="D" horiz-adv-x="1326" d="M1292 804q0 -275 -367 -521q-247 -167 -614 -293q-21 -7 -31 -7q-60 0 -60 123q0 116 16 324q17 227 18 324v261q0 96 22 142q-175 -7 -158 -7q-62 0 -62 63q0 93 99 125q57 17 176 17h48q333 0 584 -113q329 -148 329 -438zM1126 761q0 195 -271 302q-189 75 -439 91 l4 -413q0 -325 -27 -540q245 94 440 217q293 186 293 343z" />
<glyph unicode="E" horiz-adv-x="1073" d="M1027 244q0 -113 -141 -154l-232 -44q-58 -19 -116 -36q-69 -20 -118 -20q-357 0 -357 454q0 126 45 350q46 240 51 349q-34 11 -34 57q0 102 87 126q32 33 71 33q17 0 31 -14q288 44 618 44q63 0 63 -60q0 -78 -84 -109q-30 -12 -187 -20q-86 -5 -391 -39 q-5 -65 -62 -361q156 29 413 29q93 0 93 -75q0 -85 -93 -112q-24 -7 -128 -14.5t-312 -25.5q-3 -39 -3 -76q0 -325 215 -325q83 0 237.5 53t238.5 53q95 0 95 -63z" />
<glyph unicode="F" horiz-adv-x="1111" d="M1101 1333q0 -97 -99 -130q-31 -10 -215 -17q-70 -3 -456 -39q10 -140 26 -420q203 39 373 39q82 0 82 -85t-70 -114q-37 -16 -141 -23q-125 -6 -237 -18q0 -46 1 -147v-147q0 -246 -118 -246q-59 0 -59 77q0 43 1.5 125.5t1.5 125.5q0 270 -29 814q-25 -3 -49 -3 q-64 0 -64 65q0 88 96 129q65 28 304 53q341 36 582 36q70 0 70 -75z" />
<glyph unicode="G" horiz-adv-x="1331" d="M1295 353q0 -42 -29 -85t-70 -43q-24 0 -56 19q-97 -118 -239.5 -186t-292.5 -68q-239 0 -399 167t-160 408q0 208 105 398q99 182 273 310t353 128q94 0 183.5 -47.5t133.5 -126.5q14 -24 14 -46q0 -43 -29 -84q-32 -46 -73 -46q-7 0 -94 74.5t-178 74.5 q-193 0 -351 -191q-152 -183 -152 -381q0 -179 115 -297.5t293 -118.5q158 0 317 105q-281 140 -281 226q0 42 25 82q29 46 70 46q12 0 36 -16q65 -44 131 -88q77 -50 137 -77q63 -21 183 -80q35 -26 35 -57z" />
<glyph unicode="H" horiz-adv-x="1186" d="M1116 1295q0 -153 -46 -664q-7 -80 -29 -375q-3 -56 -20 -167q-28 -99 -103 -99q-53 0 -53 73q0 19 19 290q-29 -39 -89 -39q-49 0 -124 15q-103 21 -123 24q-89 4 -268 17q-26 4 -43 11q-1 -35 -1 -156q0 -218 -115 -218q-49 0 -49 78q0 152 12 395q15 317 17 392v181 q0 280 126 280q53 0 53 -99q0 -198 -33 -679q24 20 53 20q135 0 308 -19q225 -25 283 -66q19 177 46 532q2 63 3 127q4 75 17 124q29 99 103 99q56 0 56 -77z" />
<glyph unicode="I" horiz-adv-x="785" d="M724 1300q0 -105 -98 -136q-27 -9 -78 -9q-5 0 -70 2q0 -630 -33 -939q86 7 185 7q80 0 80 -83q0 -108 -106 -135q-22 -5 -128 -14q-292 -22 -341 -22q-70 0 -70 72q0 85 66 121q40 22 142 34q12 154 17 480q5 315 19 479q-10 0 -48 -2q-29 -1 -48 -1q-131 0 -131 87 q0 46 29 87t73 41q38 0 113 1.5t113 1.5h153q72 0 108 -10q53 -15 53 -62z" />
<glyph unicode="J" horiz-adv-x="1270" d="M1207 744q0 -305 -154 -517q-171 -237 -464 -237q-203 0 -376 100q-199 120 -199 309q0 135 112 243q94 90 238 141q18 7 34 7q56 0 56 -66q0 -72 -65 -120q-60 -32 -119 -65q-65 -37 -65 -83q0 -106 165 -186q142 -69 261 -69q209 0 309 145q89 125 89 342 q0 164 -87 539q-3 15 -3 22q0 43 36.5 90t79.5 47q27 0 46 -41q44 -92 77 -294q29 -181 29 -307z" />
<glyph unicode="K" horiz-adv-x="1152" d="M1085 119q0 -42 -33 -80.5t-76 -38.5q-19 0 -49 20q-22 16 -162 149q-239 227 -499 377l-20 -314q-10 -148 -12 -155q-21 -94 -101 -94q-60 0 -60 80q0 145 14 391q15 285 17 389v265q0 268 128 268q53 0 53 -108q0 -251 -7 -442q79 68 229 171q167 116 232 167 q67 63 208 181q41 31 65 31q29 0 48 -24t19 -53q0 -33 -33 -75q-90 -123 -305 -268q-290 -198 -340 -239q195 -111 546 -427q138 -124 138 -171z" />
<glyph unicode="L" horiz-adv-x="1068" d="M1063 232q0 -92 -102 -133q-16 -7 -145 -32q-4 0 -203 -53q-121 -31 -207 -31q-174 0 -266 155q-75 127 -75 314q0 135 49.5 398.5t49.5 398.5q0 50 29 91.5t77 41.5q66 0 66 -109q0 -179 -46 -454q-39 -234 -39 -314q0 -116 43 -200q52 -104 158 -104q92 0 266.5 53 t266.5 53q78 0 78 -75z" />
<glyph unicode="M" horiz-adv-x="1599" d="M1545 131q0 -49 -35 -95t-85 -46q-31 0 -53 46q-27 56 -48 140q-15 73 -30 145q-53 201 -149 604q-65 -200 -201 -594q-34 -92 -46 -121q-29 -68 -63 -114q-41 -57 -87 -57q-67 0 -171 384q-92 340 -176 565q-73 -382 -113 -631q-12 -75 -22 -150q-15 -88 -41 -147 q-34 -80 -95 -80q-70 0 -70 76q0 12 3 33q53 264 145 797q16 111 29 222q22 136 58 211q45 92 113 92q31 0 60 -42q35 -51 102 -236q164 -450 227 -713q94 249 196 585q21 70 43 140q26 80 56 135q50 89 109 89q43 0 65 -63q7 -23 24 -113q28 -155 87 -377q51 -186 103 -372 q20 -77 42 -156q23 -90 23 -157z" />
<glyph unicode="N" horiz-adv-x="1147" d="M1072 1299q0 -149 -8.5 -447.5t-8.5 -447.5q0 -157 -22 -238q-16 -55 -47 -98q-39 -58 -83 -58q-21 0 -46 29q-41 45 -191 282q-130 201 -378 614q-12 -251 -35 -631q-4 -60 -7 -120q-7 -71 -24 -117q-34 -96 -106 -96q-46 0 -46 75q0 140 24 391q25 271 29 389v205 q0 334 126 334q26 0 56 -42q40 -57 91 -151q70 -129 84 -153q131 -205 390 -616q4 210 11 631q1 106 3 121q3 70 19 118q34 106 112 106q57 0 57 -80z" />
<glyph unicode="O" horiz-adv-x="1365" d="M1307 684q0 -285 -162 -479q-172 -208 -452 -208q-273 0 -452 160q-186 166 -186 435q0 196 87 369q90 182 251 281q52 123 314 123q271 0 442 -208q158 -194 158 -473zM1120 625q0 237 -142.5 377.5t-380.5 140.5q-44 0 -140 -58q-227 -138 -227 -421q0 -207 147 -338 q142 -125 352 -125q182 0 286.5 119.5t104.5 304.5z" />
<glyph unicode="P" horiz-adv-x="1246" d="M1227 882q0 -247 -321 -408q-237 -117 -542 -153q-4 -166 -11 -200q-24 -124 -117 -124q-60 0 -60 88q0 96 7 267q8 187 10 266v244q0 61 31 106q34 51 93 51q58 0 58 -125q0 -94 -5 -372q227 39 391 98q275 99 275 227q0 136 -181 220q-128 58 -302 76q-114 7 -229 16 q-157 12 -209 36.5t-52 64.5q0 46 32.5 81t76.5 35q75 0 244 -14q352 -29 521 -96q290 -116 290 -384z" />
<glyph unicode="Q" horiz-adv-x="1357" d="M1290 744q0 -309 -198 -536q169 -157 169 -211q0 -40 -30 -76.5t-69 -36.5q-53 0 -218 198q-150 -92 -324 -92q-243 0 -405 140q-171 148 -171 385q0 233 122 441q122 215 324 321q22 61 90 80q41 12 128 12q263 0 425 -183q157 -176 157 -442zM1109 691q0 227 -150 352 q-138 114 -370 114q-9 -7 -36 -24q-340 -208 -340 -548q0 -179 130 -286q121 -101 306 -101q95 0 179 31q-103 148 -103 194q0 33 25 64.5t57 31.5q41 0 173 -184q129 146 129 356z" />
<glyph unicode="R" horiz-adv-x="1329" d="M1277 850q0 -256 -364 -401q91 -130 191 -217q33 -27 65 -56q38 -38 38 -74q0 -42 -32.5 -86.5t-73.5 -44.5q-14 0 -36 15q-208 140 -352 398q-194 -51 -435 -77q-3 -133 -12 -181q-24 -123 -97 -123q-43 0 -43 64q0 58 4.5 173t4.5 173q0 48 -2 142v141q0 258 22 471 q-88 -1 -88 64q0 46 35.5 87t81.5 41q308 0 603 -76q218 -56 329 -133q161 -112 161 -300zM1104 823q0 157 -333 250q-191 53 -467 81q-4 -51 -14 -652q256 32 466 92q348 99 348 229z" />
<glyph unicode="S" horiz-adv-x="1253" d="M1193 346q0 -184 -159 -276q-129 -77 -327 -77q-111 0 -267 26q-181 29 -249 70q-56 34 -56 80q0 55 35 91.5t88 36.5q32 0 155 -31q193 -48 374 -48q68 0 128 14q90 19 90 58q0 108 -247 178q-413 117 -458 138q-247 113 -247 326q0 218 239 336q189 94 432 94 q394 0 394 -208q0 -60 -43 -139q-49 -87 -104 -87q-32 0 -53 31q-19 26 -19 60q0 43 26 78q-78 50 -258 50q-276 0 -406 -120q-24 -22 -24 -42q0 -137 248 -210q230 -65 460 -128q248 -101 248 -301z" />
<glyph unicode="T" horiz-adv-x="1526" d="M1475 1340q0 -99 -99 -133q-40 -14 -113 -17q-60 -2 -118 -4q-92 -7 -242 -27q-186 -27 -241 -34q0 -133 -10 -359q-12 -266 -14 -356v-203q0 -207 -99 -207q-29 0 -42 46q-23 75 -23 234q0 165 11 416q18 398 18 415q-168 -14 -327 -14q-123 0 -123 64q0 49 35 93.5 t84 44.5q7 0 20 -2t20 -2q196 0 581.5 56.5t582.5 56.5q99 0 99 -68z" />
<glyph unicode="U" horiz-adv-x="1369" d="M1300 794q0 -342 -116 -541q-145 -250 -462 -250q-292 0 -473 157q-189 168 -189 454q0 128 46 337q48 216 102 322q39 75 87 75q63 0 63 -65q0 -18 -3 -34q-2 -8 -77 -280q-46 -167 -46 -285q0 -232 167 -358q151 -111 391 -111q191 0 266 162q52 113 52 331 q0 96 -32.5 284.5t-32.5 284.5q0 42 39 88t82 46q65 0 106 -274q30 -202 30 -343z" />
<glyph unicode="V" horiz-adv-x="1222" d="M1195 1319q0 -19 -14 -56q-17 -48 -109 -246q-80 -170 -234 -512q-50 -123 -101 -246q-66 -153 -128 -227q-54 -64 -106 -64q-32 0 -52 42q-14 28 -47 159q-25 104 -85 275q-80 208 -159 418q-119 317 -119 391q0 44 33.5 88.5t75.5 44.5q27 0 57 -46q47 -74 126 -285 q135 -362 237 -738q147 294 321 695q36 84 70 167q43 96 83.5 159t78.5 63q31 0 51.5 -25.5t20.5 -56.5z" />
<glyph unicode="W" horiz-adv-x="1710" d="M1647 1323q0 -12 -3 -31q-55 -270 -156 -812q-17 -113 -32 -226q-24 -135 -63 -215q-45 -92 -110 -92q-29 0 -59 43q-43 59 -116 246q-163 411 -248 742q-111 -275 -218 -611q-22 -73 -46 -145q-28 -84 -60 -140q-51 -89 -113 -89q-41 0 -63 63q-10 28 -29 116 q-17 75 -66 268q-64 270 -205 806q-4 12 -4 14q0 42 40.5 85.5t82.5 43.5q29 0 53 -44q31 -58 53 -145q19 -77 36 -152q58 -210 162 -632q113 314 229 618q24 63 47 127q29 71 62 119q39 60 78 60q55 0 99 -120q12 -32 87 -281q94 -309 205 -586q57 272 121 656 q12 78 26 155q17 90 44 152q38 85 96 85q70 0 70 -78z" />
<glyph unicode="X" horiz-adv-x="1178" d="M1108 60q0 -40 -32 -80t-71 -40q-20 0 -40.5 22.5t-131.5 199.5q-48 79 -282 410q-83 -113 -240 -347q-31 -59 -103 -172q-41 -56 -82 -56q-29 0 -49.5 23t-20.5 53q0 104 396 632q-367 517 -367 568q0 43 31 89t72 46q19 0 44 -29q17 -19 114 -169q81 -111 239 -331 q94 119 188 239q113 138 205 227q39 37 63 37q29 0 46 -24.5t17 -55.5t-27 -75q-17 -27 -128 -155q-87 -99 -268 -331q427 -604 427 -681z" />
<glyph unicode="Y" horiz-adv-x="1309" d="M1237 695q0 -309 -117 -487q-139 -208 -434 -208q-90 0 -229 27q-157 29 -215 69q-39 25 -39 59q0 46 32.5 92.5t76.5 46.5q5 0 17 -4q277 -78 400 -78t188.5 43.5t96.5 157.5q22 84 22 311q-201 -209 -492 -209q-232 0 -361 151q-125 143 -125 378q0 332 138 332 q31 0 52.5 -25t21.5 -56q0 -32 -10.5 -97t-10.5 -97q0 -162 89 -263t249 -101q142 0 261 74q128 78 166 208q-10 133 -10 227q0 56 30 101q34 51 89 51q96 0 96 -227q0 -80 9 -238t9 -238z" />
<glyph unicode="Z" horiz-adv-x="1382" d="M1331 198q0 -90 -95 -131q-45 -19 -272 -35q-606 -39 -783 -39q-87 0 -87 74q0 42 31 95q42 75 124 164l144 150q201 222 571 669q-478 26 -693 26q-94 0 -143 13q-56 16 -56 60q0 50 35.5 92.5t85.5 42.5q27 0 189 -10q127 -5 381 -16q334 -13 363 -13q99 0 99 -67 q0 -41 -30 -99q-58 -109 -265 -353q-184 -205 -548 -620q135 4 444 35q287 29 445 29q60 0 60 -67z" />
<glyph unicode="[" horiz-adv-x="1017" d="M824 142q0 -50 -27 -91.5t-75 -53.5q-29 -7 -181 -7q-29 0 -84.5 -2t-84.5 -2q-119 0 -119 91q0 48 27 89q7 105 7 187q0 130 -16 405q-13 266 -12 406q-85 -2 -85 85q0 48 30 89t76 41q70 0 211.5 9.5t211.5 9.5q79 0 79 -72q0 -111 -125 -143q-49 -14 -215 -19 q12 -184 24 -369q15 -220 15 -368q0 -110 -7 -215h6q35 0 108.5 2.5t109.5 2.5q126 0 126 -75z" />
<glyph unicode="\" horiz-adv-x="809" d="M770 -218q0 -47 -31 -83.5t-75 -36.5q-36 0 -58 40t-41 107q-14 58 -29 114q-31 106 -126 388q-105 295 -209 592q-169 491 -169 536q0 44 35 91t78 47q36 0 70 -87q21 -62 39 -121q24 -74 275 -770q169 -466 237 -782q4 -15 4 -35z" />
<glyph unicode="]" horiz-adv-x="1014" d="M836 130q0 -48 -27 -89q-32 -44 -79 -44q-70 0 -211.5 -7t-211.5 -7q-77 0 -77 70q0 111 125 143q48 14 213 19q-12 186 -24 374q-13 222 -13 374q0 97 7 201q-26 0 -91 -2h-90q-77 0 -113 9q-56 13 -56 68q0 50 28 92.5t74 50.5q17 4 130 4h112q77 2 115 2 q112 0 112 -86q0 -46 -29 -89q-3 -54 -3 -151q0 -135 14 -424q13 -276 12 -423q83 2 83 -85z" />
<glyph unicode="^" horiz-adv-x="1027" d="M896 483q0 -46 -36 -99t-80 -53q-72 0 -171 304q-54 191 -111 384q-100 -258 -148 -411q-17 -67 -67 -195q-44 -82 -106 -82q-68 0 -68 68q0 41 136 427.5t168 439.5q61 103 119 103q59 0 135 -193q21 -53 86 -251q41 -114 82 -229q61 -175 61 -213z" />
<glyph unicode="_" horiz-adv-x="1359" d="M1104 0h-853v137h853v-137z" />
<glyph unicode="`" horiz-adv-x="577" d="M478 1606q0 -46 -31 -92t-75 -46q-26 0 -53 24q-39 34 -133 195t-94 204q0 48 37.5 91.5t83.5 43.5q36 0 63 -43q33 -61 99 -184q31 -46 88 -144q15 -30 15 -49z" />
<glyph unicode="a" horiz-adv-x="1070" d="M1027 130q0 -45 -36.5 -92.5t-79.5 -47.5q-54 0 -105 176q-41 -7 -106 -7q-29 0 -85.5 1.5t-83.5 1.5h-294q-63 -182 -140 -182q-68 0 -68 73q0 46 164 474q101 261 203 524q29 77 56 154q36 87 77 145t87 58t73 -63q38 -87 69 -229q44 -206 51 -234q80 -240 215 -727 q3 -15 3 -25zM753 314q-96 288 -190 705q-20 -51 -269 -705h459z" />
<glyph unicode="b" horiz-adv-x="1242" d="M1184 1101q0 -217 -370 -410q128 -37 212 -112q102 -91 102 -209q0 -99 -68 -184q-60 -75 -157 -123q-150 -73 -405 -73q-245 0 -315 42q-74 0 -74 74v329q0 360 46 652q-12 -3 -25 -3q-60 0 -60 73q0 65 72.5 113.5t290.5 82.5q181 29 315 29q436 0 436 -281zM1009 1065 q0 68 -106 102q-74 23 -166 23q-201 0 -420 -53q-6 -149 -18 -446q198 55 404 145q306 133 306 229zM949 314q0 102 -154 160q-117 45 -242 45q-121 0 -261 -29q-5 -174 -10 -285q220 -10 264 -10q270 0 370 80q33 25 33 39z" />
<glyph unicode="c" horiz-adv-x="1130" d="M1075 335q0 -26 -13 -53q-65 -130 -195 -211t-275 -81q-225 0 -384.5 166.5t-159.5 393.5q0 259 203 539q218 300 468 300q244 0 317 -355v-3q0 -45 -32.5 -88.5t-76.5 -43.5q-31 0 -63 76q-50 109 -70 136q-53 75 -132 75q-148 0 -300 -227q-140 -210 -140 -367 q0 -169 124.5 -289t295.5 -120q107 0 187 56q41 29 106 107q48 57 77 57q63 0 63 -68z" />
<glyph unicode="d" horiz-adv-x="1331" d="M1295 804q0 -275 -367 -521q-247 -167 -614 -293q-20 -7 -31 -7q-59 0 -59 123q0 116 15 324q17 227 19 324v261q0 96 22 142q-176 -7 -159 -7q-61 0 -61 63q0 93 99 125q56 17 176 17h47q333 0 584 -113q329 -148 329 -438zM1130 761q0 195 -272 302q-189 75 -438 91 l3 -413q0 -325 -27 -540q246 94 440 217q294 186 294 343z" />
<glyph unicode="e" horiz-adv-x="1080" d="M1031 244q0 -113 -142 -154l-232 -44q-58 -19 -116 -36q-68 -20 -118 -20q-356 0 -356 454q0 126 44 350q46 240 51 349q-34 11 -34 57q0 102 87 126q32 33 72 33q17 0 30 -14q289 44 618 44q63 0 63 -60q0 -78 -83 -109q-31 -12 -188 -20q-87 -5 -391 -39 q-5 -65 -61 -361q155 29 413 29q92 0 92 -75q0 -85 -92 -112q-24 -7 -128 -14.5t-313 -25.5q-3 -39 -3 -76q0 -325 215 -325q84 0 238.5 53t237.5 53q96 0 96 -63z" />
<glyph unicode="f" horiz-adv-x="1114" d="M1104 1333q0 -97 -99 -130q-30 -10 -215 -17q-70 -3 -455 -39q10 -140 25 -420q203 39 374 39q82 0 82 -85t-70 -114q-38 -16 -142 -23q-124 -6 -237 -18q0 -46 2 -147v-147q0 -246 -118 -246q-60 0 -60 77q0 43 2 125.5t2 125.5q0 270 -29 814q-26 -3 -50 -3 q-63 0 -63 65q0 109 155 150q39 10 244 32q340 36 582 36q70 0 70 -75z" />
<glyph unicode="g" horiz-adv-x="1336" d="M1299 353q0 -42 -29 -85t-70 -43q-24 0 -57 19q-97 -118 -239.5 -186t-292.5 -68q-239 0 -398.5 167t-159.5 408q0 208 104 398q99 182 273 310t353 128q94 0 183.5 -47.5t134.5 -126.5q13 -24 13 -46q0 -43 -29 -84q-32 -46 -73 -46q-7 0 -94 74.5t-177 74.5 q-193 0 -352 -191q-152 -183 -152 -381q0 -179 115.5 -297.5t292.5 -118.5q159 0 318 105q-282 140 -282 226q0 42 26 82q29 46 70 46q11 0 35 -16q65 -44 132 -88q77 -50 136 -77q63 -21 183 -80q36 -26 36 -57z" />
<glyph unicode="h" horiz-adv-x="1191" d="M1120 1295q0 -153 -47 -664q-6 -80 -29 -375q-3 -56 -20 -167q-27 -99 -102 -99q-53 0 -53 73q0 19 18 290q-29 -39 -88 -39q-50 0 -125 15q-102 21 -123 24q-88 4 -268 17q-25 4 -42 11q-2 -35 -2 -156q0 -218 -114 -218q-50 0 -50 78q0 152 12 395q15 317 17 392v181 q0 280 126 280q53 0 53 -99q0 -198 -32 -679q24 20 53 20q135 0 307 -19q225 -25 283 -66q19 177 46 532q2 63 4 127q3 75 17 124q29 99 102 99q57 0 57 -77z" />
<glyph unicode="i" horiz-adv-x="350" d="M288 1254q0 -162 -15 -488t-15 -488q0 -281 -132 -281q-68 0 -68 88q0 140 12 383q15 276 17 382v241q0 295 140 295q61 0 61 -132z" />
<glyph unicode="j" horiz-adv-x="1273" d="M1207 744q0 -305 -154 -517q-171 -237 -464 -237q-203 0 -376 100q-199 120 -199 309q0 135 112 243q94 90 238 141q18 7 34 7q56 0 56 -66q0 -72 -65 -120q-60 -32 -119 -65q-65 -37 -65 -83q0 -106 165 -186q142 -69 261 -69q209 0 309 145q89 125 89 342 q0 164 -87 539q-3 15 -3 22q0 43 36.5 90t79.5 47q27 0 46 -41q44 -92 77 -294q29 -181 29 -307z" />
<glyph unicode="k" horiz-adv-x="1159" d="M1089 119q0 -42 -33.5 -80.5t-75.5 -38.5q-19 0 -50 20q-22 16 -162 149q-239 227 -498 377l-21 -314q-10 -148 -12 -155q-20 -94 -100 -94q-60 0 -60 80q0 145 13 391q16 285 18 389v265q0 268 128 268q52 0 52 -108q0 -251 -6 -442q78 68 228 171q168 116 232 167 q67 63 209 181q41 31 64 31q29 0 48 -24t19 -53q0 -33 -32 -75q-91 -123 -306 -268q-290 -198 -340 -239q195 -111 547 -427q138 -124 138 -171z" />
<glyph unicode="l" horiz-adv-x="1070" d="M1065 232q0 -92 -102 -133q-16 -7 -146 -32q-3 0 -203 -53q-121 -31 -206 -31q-174 0 -266 155q-75 127 -75 314q0 135 49.5 398.5t49.5 398.5q0 50 29 91.5t76 41.5q67 0 67 -109q0 -179 -46 -454q-39 -234 -39 -314q0 -116 42 -200q53 -104 159 -104q92 0 266 53 t266 53q79 0 79 -75z" />
<glyph unicode="m" horiz-adv-x="1604" d="M1546 131q0 -49 -35 -95t-84 -46q-31 0 -53 46q-27 56 -48 140q-15 73 -31 145q-53 201 -148 604q-65 -200 -202 -594q-34 -92 -46 -121q-29 -68 -63 -114q-41 -57 -87 -57q-66 0 -170 384q-93 340 -176 565q-74 -382 -113 -631q-12 -75 -22 -150q-15 -88 -41 -147 q-34 -80 -96 -80q-70 0 -70 76q0 12 4 33q53 264 145 797q15 111 29 222q22 136 58 211q44 92 113 92q30 0 59 -42q36 -51 103 -236q164 -450 227 -713q94 249 196 585q20 70 43 140q25 80 56 135q49 89 109 89q43 0 65 -63q7 -23 24 -113q27 -155 87 -377l102 -372 q21 -77 43 -156q22 -90 22 -157z" />
<glyph unicode="n" horiz-adv-x="1150" d="M1073 1299q0 -150 -8.5 -448t-8.5 -448q0 -156 -22 -237q-15 -55 -46 -98q-39 -58 -83 -58q-21 0 -47 29q-41 45 -191 282q-129 201 -377 614q-12 -251 -36 -631q-3 -60 -7 -120q-6 -71 -23 -117q-35 -96 -106 -96q-46 0 -46 75q0 140 24 391q25 271 29 389v205 q0 334 126 334q25 0 56 -42q39 -57 91 -151q70 -129 83 -153q132 -205 391 -616q4 210 10 631q2 106 4 121q3 70 19 118q34 106 112 106q56 0 56 -80z" />
<glyph unicode="o" horiz-adv-x="1369" d="M1309 684q0 -285 -162 -479q-172 -208 -452 -208q-273 0 -453 160q-186 166 -186 435q0 196 87 369q91 182 251 281q53 123 314 123q272 0 442 -208q159 -194 159 -473zM1121 625q0 237 -142.5 377.5t-379.5 140.5q-44 0 -140 -58q-227 -138 -227 -421q0 -207 147 -338 q142 -125 351 -125q183 0 287 119.5t104 304.5z" />
<glyph unicode="p" horiz-adv-x="1249" d="M1229 882q0 -247 -321 -408q-237 -117 -543 -153q-3 -166 -10 -200q-24 -124 -118 -124q-60 0 -60 88q0 96 7 267q9 187 11 266v244q0 61 30 106q34 51 94 51q58 0 58 -125q0 -94 -5 -372q227 39 391 98q275 99 275 227q0 136 -181 220q-128 58 -302 76q-115 7 -229 16 q-157 12 -209 36.5t-52 64.5q0 46 32.5 81t76.5 35q75 0 244 -14q352 -29 521 -96q290 -116 290 -384z" />
<glyph unicode="q" horiz-adv-x="1360" d="M1292 744q0 -309 -198 -536q169 -157 169 -211q0 -40 -30 -76.5t-69 -36.5q-53 0 -219 198q-150 -92 -324 -92q-242 0 -404 140q-171 148 -171 385q0 233 121 441q123 215 325 321q22 61 90 80q41 12 128 12q263 0 425 -183q157 -176 157 -442zM1111 691q0 227 -150 352 q-138 114 -370 114q-9 -7 -36 -24q-340 -206 -340 -548q0 -179 130 -286q121 -101 305 -101q96 0 179 31q-102 148 -102 194q0 33 25 64.5t57 31.5q41 0 172 -184q130 146 130 356z" />
<glyph unicode="r" horiz-adv-x="1333" d="M1278 850q0 -256 -363 -401q90 -130 191 -217q32 -27 65 -56q37 -38 37 -74q0 -42 -32.5 -86.5t-72.5 -44.5q-14 0 -36 15q-209 140 -352 398q-194 -51 -435 -77q-4 -133 -12 -181q-24 -123 -97 -123q-43 0 -43 64q0 58 4.5 173t4.5 173q0 48 -2 142v141q0 258 22 471 q-89 -1 -89 64q0 46 36 87t82 41q307 0 602 -76q219 -56 330 -133q160 -112 160 -300zM1106 823q0 157 -333 250q-191 53 -468 81q-3 -51 -13 -652q256 32 466 92q348 99 348 229z" />
<glyph unicode="s" horiz-adv-x="1256" d="M1195 346q0 -184 -159 -276q-130 -77 -328 -77q-111 0 -266 26q-181 29 -249 70q-56 34 -56 80q0 55 35 91.5t87 36.5q33 0 156 -31q193 -48 373 -48q69 0 128 14q91 19 91 58q0 108 -248 178q-413 117 -457 138q-247 113 -247 326q0 218 239 336q189 94 431 94 q395 0 395 -208q0 -60 -43 -139q-50 -87 -104 -87q-33 0 -53 31q-19 26 -19 60q0 43 26 78q-79 50 -258 50q-276 0 -406 -120q-24 -22 -24 -42q0 -137 247 -210q231 -65 461 -128q248 -101 248 -301z" />
<glyph unicode="t" horiz-adv-x="1529" d="M1476 1340q0 -99 -99 -133q-39 -14 -112 -17q-60 -2 -118 -4q-92 -7 -242 -27q-186 -27 -241 -34q0 -133 -10 -359q-12 -266 -14 -356v-203q0 -207 -99 -207q-29 0 -43 46q-22 75 -22 234q0 165 10 416q19 398 19 415q-169 -14 -328 -14q-122 0 -122 64q0 49 35 93.5 t84 44.5q7 0 20 -2t19 -2q197 0 582.5 56.5t581.5 56.5q99 0 99 -68z" />
<glyph unicode="u" horiz-adv-x="1372" d="M1302 794q0 -342 -116 -541q-145 -250 -462 -250q-292 0 -473 157q-190 168 -190 454q0 128 47 337q47 216 102 322q39 75 87 75q63 0 63 -65q0 -18 -3 -34q-2 -8 -77 -280q-46 -167 -46 -285q0 -232 167 -358q150 -111 391 -111q191 0 266 162q51 113 51 331 q0 96 -32.5 284.5t-32.5 284.5q0 42 39.5 88t82.5 46q65 0 105 -274q31 -202 31 -343z" />
<glyph unicode="v" horiz-adv-x="1222" d="M1195 1319q0 -19 -14 -56q-17 -48 -109 -246q-80 -170 -234 -512q-51 -123 -101 -246q-66 -153 -128 -227q-54 -64 -106 -64q-32 0 -52 42q-14 28 -47 159q-25 104 -85 275q-80 208 -159 418q-119 317 -119 391q0 44 33.5 88.5t75.5 44.5q27 0 57 -46q47 -74 126 -285 q135 -362 237 -738q147 294 321 695q36 84 70 167q43 96 83.5 159t78.5 63q31 0 51.5 -25.5t20.5 -56.5z" />
<glyph unicode="w" horiz-adv-x="1710" d="M1647 1323q0 -12 -3 -31q-55 -270 -156 -812q-17 -113 -32 -226q-24 -135 -63 -215q-45 -92 -110 -92q-29 0 -59 43q-43 59 -116 246q-163 411 -248 742q-111 -275 -218 -611q-22 -73 -46 -145q-28 -84 -60 -140q-51 -89 -113 -89q-41 0 -63 63q-10 28 -29 116 q-17 75 -66 268q-64 270 -205 806q-4 12 -4 14q0 42 40.5 85.5t82.5 43.5q29 0 53 -44q31 -58 53 -145q19 -77 36 -152q58 -210 162 -632q113 316 229 618q24 63 47 127q29 71 62 119q39 60 78 60q55 0 99 -120q12 -32 87 -281q94 -309 205 -586q57 272 121 656 q12 78 26 155q17 90 44 152q38 85 96 85q70 0 70 -78z" />
<glyph unicode="x" horiz-adv-x="1179" d="M1108 60q0 -40 -32 -80t-71 -40q-20 0 -40.5 22.5t-131.5 199.5q-50 79 -282 410q-83 -113 -240 -347q-31 -59 -103 -172q-41 -56 -82 -56q-29 0 -49.5 23t-20.5 53q0 104 396 632q-367 517 -367 568q0 43 31 89t72 46q19 0 44 -29q17 -19 114 -169q81 -111 239 -331 q94 119 188 239q113 138 205 227q39 37 63 37q29 0 46 -24.5t17 -55.5t-27 -75q-17 -27 -128 -155q-87 -99 -268 -331q427 -604 427 -681z" />
<glyph unicode="y" horiz-adv-x="1309" d="M1237 695q0 -309 -117 -487q-139 -208 -434 -208q-90 0 -229 27q-157 29 -215 69q-39 25 -39 59q0 46 32.5 92.5t76.5 46.5q5 0 17 -4q277 -78 400 -78t188.5 43.5t96.5 157.5q22 84 22 311q-201 -209 -492 -209q-232 0 -361 151q-125 143 -125 378q0 332 138 332 q31 0 52.5 -25t21.5 -56q0 -32 -10.5 -97t-10.5 -97q0 -162 89 -263t249 -101q142 0 261 74q128 78 166 208q-10 133 -10 227q0 56 30 101q34 51 89 51q96 0 96 -227q0 -80 9 -238t9 -238z" />
<glyph unicode="z" horiz-adv-x="1382" d="M1331 198q0 -90 -95 -131q-46 -21 -272 -35q-619 -39 -783 -39q-87 0 -87 74q0 42 31 95q42 75 124 164l144 150q201 222 571 669q-478 26 -693 26q-94 0 -143 13q-56 16 -56 60q0 50 35.5 92.5t85.5 42.5q27 0 189 -10q127 -5 381 -16q334 -13 363 -13q99 0 99 -67 q0 -41 -30 -99q-58 -109 -265 -353q-184 -205 -548 -620q135 4 444 35q287 29 445 29q60 0 60 -67z" />
<glyph unicode="{" horiz-adv-x="1055" d="M903 191q0 -82 -137 -152q-117 -59 -211 -59q-81 0 -127 58q-41 52 -41 134q0 62 28 166q30 114 34 164q-53 24 -101 24q-17 0 -48.5 -2t-48.5 -2q-219 0 -219 92q0 106 110 144q35 12 134 25q88 12 134 36q-24 60 -48 121q-27 72 -27 125q0 237 370 346q12 4 19 4 q53 0 53 -70q0 -72 -47 -108q-25 -18 -101 -43t-107 -54q-8 -8 -8 -17q0 -44 41 -134t41 -142q0 -79 -50 -139q85 -49 85 -158q0 -57 -28 -166t-28 -166q0 -20 17 -20q46 0 125.5 36.5t115.5 36.5q31 0 50.5 -23.5t19.5 -56.5z" />
<glyph unicode="|" horiz-adv-x="541" d="M367 1464q0 -32 -7 -324q-5 -234 -19 -703l-30 -483q0 -55 -14 -162q-31 -116 -128 -116q-63 0 -63 59q0 12 3 33q50 307 50 672q0 403 24 840q1 53 15 159q27 106 109 106q60 0 60 -81z" />
<glyph unicode="}" horiz-adv-x="1053" d="M1021 787q0 -48 -32 -90t-78 -55q-32 -11 -134 -24q-86 -12 -134 -36q23 -61 45 -121q25 -72 25 -126q0 -245 -367 -345q-11 -4 -20 -4q-50 0 -50 70q0 75 47 110q23 15 104 41q70 22 100 54q9 9 9 19q0 43 -40 132.5t-40 142.5q0 76 49 136q-87 50 -87 159q0 58 28 169 t28 169q0 15 -18 15q-46 0 -126.5 -37.5t-112.5 -37.5q-67 0 -67 82q0 65 77 116q145 96 268 96q80 0 122.5 -56.5t42.5 -138.5q0 -61 -23 -164q-29 -116 -33 -164q48 -23 85 -23q19 0 56.5 1.5t56.5 1.5q219 0 219 -92z" />
<glyph unicode="~" horiz-adv-x="1345" d="M1149 869q0 -121 -107.5 -244t-229.5 -123q-83 0 -218 81t-212 81q-65 0 -130.5 -59t-91.5 -59q-30 0 -49 29q-17 24 -17 56q0 38 31 82q49 70 135 116.5t172 46.5q97 0 240.5 -81.5t194.5 -81.5q48 0 100 116t112 116q70 0 70 -76z" />
<glyph unicode="&#xa1;" horiz-adv-x="507" d="M425 1142q0 19 -10 -70q-2 -14 -4 -39q-5 -41 -34 -73.5t-68 -32.5q-63 0 -63 83q0 65 27 123q36 72 92 72q60 0 60 -63zM381 672q0 -58 -31 -213q-17 -89 -79 -367q-10 -65 -49 -189q-36 -77 -103 -77q-56 0 -56 77q0 95 38 235q56 210 59 231q9 87 47 257 q37 110 121 110q53 0 53 -64z" />
<glyph unicode="&#xa2;" horiz-adv-x="1237" d="M1188 1154q0 -41 -31 -78.5t-72 -37.5q-12 0 -83 46q-84 51 -92 56l-311 -654q48 -6 205 -6q104 0 152 -14q56 -15 56 -63t-27.5 -87.5t-71.5 -50.5q-24 -7 -70 -7q-241 0 -346 20l-133 -275q-26 -52 -76 -52q-29 0 -47.5 23.5t-18.5 54.5q0 38 126 295 q-268 108 -268 357q0 251 260 468q247 206 503 206q34 80 116 236q36 56 74 56q29 0 48.5 -23t19.5 -54q0 -39 -103 -247q62 -26 116 -67q74 -56 74 -102zM744 1150q-126 -17 -242 -88.5t-185 -175.5q-56 -86 -56 -156q0 -129 183 -201q63 135 300 621z" />
<glyph unicode="&#xa3;" horiz-adv-x="1417" d="M1302 159q0 -108 -106 -142q-54 -17 -162 -17q-129 0 -386 3.5t-387 3.5q-84 0 -84 75q0 109 110 150q42 14 83 26q43 20 43 70q0 65 -56 194q-50 0 -65 7q-31 10 -31 53q0 44 29 89q-60 143 -60 251q0 174 166 315q157 135 334 135q99 0 154 -54.5t55 -153.5 q0 -198 -120 -198q-66 0 -66 68q0 12 5 37t5 37q0 53 -63 53q-91 0 -178 -57q-95 -63 -95 -148q0 -60 82 -236q201 7 394 7q124 0 124 -72q0 -51 -36.5 -93.5t-87.5 -42.5q-34 0 -101.5 1.5t-101.5 1.5h-115q23 -78 23 -162q0 -58 -26 -119q111 3 167 3h313q114 0 180 -19 q60 -17 60 -66z" />
<glyph unicode="&#xa4;" horiz-adv-x="1379" d="M1154 1075q0 -56 -57 -109q-49 -39 -99 -80q43 -82 43 -181q0 -108 -56 -203q126 -121 126 -171q0 -46 -33.5 -88t-79.5 -42q-37 0 -191 159q-37 -10 -77 -10q-75 0 -138 24q-189 -162 -225 -162q-70 0 -70 78q0 68 148 190q-68 80 -68 172q0 73 22 142 q-174 141 -174 211q0 45 33.5 90t76.5 45q20 0 49 -29q44 -46 135 -136q123 109 198 109q71 0 169 -69q140 142 194 142q33 0 53.5 -24.5t20.5 -57.5zM853 649q0 134 -158 211q-53 -8 -91 -41q-43 -36 -43 -85q0 -67 68.5 -118t136.5 -51q87 0 87 84z" />
<glyph unicode="&#xa5;" horiz-adv-x="1618" d="M1493 558q0 -90 -92 -121q-24 -9 -179 -17q-48 -4 -377 -36v-73q152 13 331 13q84 0 84 -63q0 -109 -117 -136q-44 -12 -201 -12q-43 0 -84 -4q-1 -49 -32 -89q-32 -44 -80 -44q-62 0 -68 113q-33 -5 -185 -36q-112 -24 -186 -24q-66 0 -66 63q0 85 80 132q60 34 176 49 q83 9 167 17v77q-341 -32 -434 -32q-78 0 -78 75q0 97 99 129q70 22 220 22h12q73 0 111 4q-360 635 -360 669q0 43 35 82t77 39q33 0 64 -39q25 -33 121 -219q123 -240 252 -459q302 490 495 714q46 53 87 53q29 0 50.5 -20t21.5 -49q0 -49 -164 -285q-107 -150 -316 -455 q364 32 466 32q70 0 70 -70z" />
<glyph unicode="&#xa6;" horiz-adv-x="567" d="M346 899q0 -51 -35.5 -88.5t-85.5 -37.5q-44 0 -53 60q-1 66 -6 201q-14 372 -14 420q0 51 25 92q31 48 81 48q53 0 68 -51q5 -21 5 -94v-97q0 -75 7.5 -226t7.5 -227zM350 -41q0 -302 -113 -302q-49 0 -49 72q0 54 6.5 161.5t6.5 162.5q0 41 -3 122t-3 122q0 36 27 69 t61 33q29 0 41 -46q26 -95 26 -254v-140z" />
<glyph unicode="&#xa8;" horiz-adv-x="1162" d="M937 1753q0 -28 -10.5 -81.5t-10.5 -80.5q0 -40 -33 -78t-72 -38q-36 0 -57 42q-15 33 -15 74q0 71 32 146q41 91 103 91q63 0 63 -75zM422 1722q0 -12 -18 -89q-18 -87 -29 -107q-29 -58 -87 -58q-68 0 -68 112q0 21 19 116q24 122 113 122q70 0 70 -96z" />
<glyph unicode="&#xa9;" horiz-adv-x="2121" d="M1954 727q0 -381 -324 -621q-294 -219 -688 -219q-334 0 -544 188q-219 196 -219 527q0 226 108 437q112 224 298 331q60 35 127 58q22 6 68 19q20 10 65 28q100 32 217 32q339 0 607 -217q285 -232 285 -563zM1766 681q0 51 -17 106q-66 211 -266.5 355.5t-424.5 144.5 q-310 0 -495 -159q-196 -167 -196 -473q0 -254 194 -404q180 -138 441 -138q358 0 578 191q186 162 186 377zM1273 963q0 -43 -29 -84q-32 -46 -73 -46q-16 0 -46.5 8.5t-45.5 8.5q-74 0 -120 -50.5t-46 -125.5q0 -124 152 -124q22 0 67.5 7.5t67.5 7.5q53 0 53 -68 q0 -162 -251 -162q-125 0 -198.5 79t-73.5 204q0 160 110 290q114 136 271 136q162 0 162 -81z" />
<glyph unicode="&#xab;" horiz-adv-x="1512" d="M1324 674q0 -70 -82 -124q-68 -40 -203 -120q127 -101 154 -126q107 -97 107 -149q0 -46 -29 -90q-32 -51 -76 -51q-31 0 -202.5 143t-200.5 186q-22 32 -22 56q0 60 61 116q36 33 210 137q181 106 210 106q32 0 52.5 -25.5t20.5 -58.5zM729 734q0 -58 -49 -106 t-141 -106q-119 -77 -146 -99q95 -65 191 -129q138 -103 138 -159q0 -46 -36.5 -90.5t-81.5 -44.5q-43 0 -234 140q-182 135 -223 184q-22 28 -22 50q0 58 63 119q46 46 242 179q208 142 242 142q57 0 57 -80z" />
<glyph unicode="&#xad;" horiz-adv-x="1143" d="M942 773q0 -109 -99 -135q-14 -3 -172 -10q-410 -17 -371 -17q-80 0 -80 80q0 99 101 130q51 15 182 15h349q90 0 90 -63z" />
<glyph unicode="&#xae;" horiz-adv-x="2099" d="M1932 720q0 -374 -319 -614q-292 -219 -679 -219q-333 0 -540 186q-215 195 -215 523q0 223 106 431q111 221 295 326q58 33 125 57q22 5 66 18q21 11 65 29q94 31 219 31q334 0 597 -213q280 -229 280 -555zM1749 674q0 50 -17 103q-66 209 -266 351t-422 142 q-303 0 -484 -157q-193 -166 -193 -464q0 -251 191 -400q176 -136 434 -136q363 0 582 198q175 160 175 363zM1411 932q0 -166 -204 -307q102 -147 102 -219q0 -44 -30 -82.5t-72 -38.5q-33 0 -62 39q-39 67 -126 198q-36 -15 -109 -36q-5 -107 -17 -146q-26 -86 -99 -86 q-57 0 -57 70q0 48 5.5 143.5t5.5 143.5q0 38 -6 112t-6 112q0 34 5 61q-48 -20 -75 -20q-60 0 -60 73q0 77 70 115.5t208 67.5q126 25 217 25q121 0 206 -51q104 -62 104 -174zM1234 882q-33 70 -190 70q-69 0 -145 -13q16 -135 17 -265q135 60 180 85q119 65 138 123z" />
<glyph unicode="&#xaf;" horiz-adv-x="1359" d="M1104 1229h-853v136h853v-136z" />
<glyph unicode="&#xb0;" horiz-adv-x="1091" d="M922 1051q0 -174 -137.5 -308.5t-311.5 -134.5q-132 0 -217 91t-85 223q0 170 90 242q19 80 142 140q109 55 201 55q132 0 225 -88t93 -220zM742 1005q0 67 -61 108q-55 37 -123 37q-46 0 -102 -27q-46 -26 -92 -51q-24 -60 -24 -106q0 -75 52.5 -115t129.5 -40 q86 0 153 55.5t67 138.5z" />
<glyph unicode="&#xb1;" horiz-adv-x="1033" d="M945 761q0 -102 -95 -126q-56 -14 -227 -14q-41 0 -47 -68t-15 -99q-27 -101 -109 -101q-56 0 -56 70q0 16 14 198q-77 -3 -226 10q-53 12 -53 60q0 46 32.5 92t77.5 46q30 0 89 -3t86 -3v20q0 27 -3 79.5t-3 79.5q0 46 39 88.5t83 42.5q67 0 67 -172q0 -12 -3 -138 q27 0 123 3q76 3 124 3q102 0 102 -68zM869 179q0 -107 -99 -133q-14 -3 -174 -10q-35 -2 -185 -12q-114 -7 -186 -7q-80 0 -80 82q0 106 106 130q68 15 194 15h332q92 0 92 -65z" />
<glyph unicode="&#xb4;" horiz-adv-x="526" d="M445 1894q0 -49 -95 -208q-89 -148 -137 -196q-39 -39 -78 -39q-67 0 -67 73q0 39 34 92q62 101 192 297q44 60 88 60q63 0 63 -79z" />
<glyph unicode="&#xb6;" horiz-adv-x="1939" d="M1328 377q0 -498 -57 -645q-39 -102 -114 -102q-53 0 -53 76q0 127 21.5 377t21.5 376q0 87 -12 261t-12 261q0 43 38.5 83t80.5 40q38 0 50 -60q7 -30 14 -158q22 -381 22 -509zM1828 1207q0 -48 -38.5 -91.5t-84.5 -43.5q-12 0 -26 3q-375 92 -542 92q-420 0 -642 -145 q-195 -126 -195 -274q0 -135 168 -239q138 -84 291 -103q18 282 18 492q0 186 109 186q66 0 66 -82q0 -232 -20 -599q43 -17 43 -68q0 -67 -53 -113l-23 -314q-12 -157 -12 -162q-22 -99 -104 -99q-63 0 -63 82q0 64 26 466q-241 6 -423 134q-209 147 -209 376 q0 230 207 406q317 271 822 271q245 0 565 -90q120 -34 120 -85z" />
<glyph unicode="&#xb7;" horiz-adv-x="532" d="M365 785q0 -56 -40 -110.5t-95 -54.5q-66 0 -66 73q0 55 38.5 113.5t91.5 58.5q71 0 71 -80z" />
<glyph unicode="&#xbb;" horiz-adv-x="1423" d="M1312 497q0 -43 -39 -97.5t-215 -204.5q-186 -159 -225 -159q-67 0 -67 94q0 71 123 177q92 74 184 145q-22 22 -182 140q-125 92 -157 150q-10 17 -10 41q0 45 33 89t76 44q36 0 234 -158.5t225 -202.5q20 -34 20 -58zM829 469q0 -44 -39 -92q-49 -60 -268 -223 q-230 -171 -278 -171q-56 0 -56 77q0 58 46 109q54 60 160 131q144 98 171 120q-89 48 -176 95q-111 60 -159 113q-32 36 -32 73q0 48 31.5 97t77.5 49q22 0 89 -47q46 -30 90 -63q9 -5 159 -85q96 -51 145 -102q39 -41 39 -81z" />
<glyph unicode="&#xbf;" horiz-adv-x="1237" d="M992 1157q0 -56 -40 -114q-42 -67 -95 -67q-60 0 -60 72q0 20 29 73q34 62 39 69q29 37 67 37q60 0 60 -70zM1041 659q0 -150 -201 -246q-50 -24 -326 -97q-229 -60 -292 -123q-7 -7 -7 -16q0 -150 367 -150q177 0 331 72q36 17 50 17q30 0 49 -25.5t19 -56.5 q0 -53 -53 -97q-62 -53 -237 -87q-144 -27 -258 -27q-176 0 -294 54q-157 74 -157 229q0 182 154 287q101 68 335 129q256 67 329 106q-21 31 -21 63q0 45 28 84q30 46 71 46q45 0 79 -57t34 -105z" />
<glyph unicode="&#xc0;" horiz-adv-x="1065" d="M720 1626q0 -46 -30.5 -92t-75.5 -46q-25 0 -53 24q-39 34 -132.5 195.5t-93.5 203.5q0 48 37.5 91.5t83.5 43.5q36 0 63 -42q32 -62 99 -185q31 -46 87 -143q15 -31 15 -50zM1036 130q0 -45 -36.5 -92.5t-79.5 -47.5q-55 0 -106 176q-41 -7 -106 -7q-29 0 -84.5 1.5 t-84.5 1.5h-293q-63 -182 -140 -182q-68 0 -68 73q0 46 163 474q101 261 203 524q29 77 57 154q36 87 77 145t87 58t73 -63q38 -87 68 -229q45 -206 51 -234q81 -240 216 -727q3 -15 3 -25zM761 314q-95 288 -189 705q-21 -50 -270 -705h459z" />
<glyph unicode="&#xc1;" horiz-adv-x="1072" d="M908 1932q0 -50 -96 -208q-88 -149 -136 -197q-39 -39 -79 -39q-66 0 -66 74q0 39 34 92q61 100 191 297q44 59 89 59q63 0 63 -78zM1012 130q0 -45 -36.5 -92.5t-79.5 -47.5q-55 0 -106 176q-41 -7 -106 -7q-29 0 -84.5 1.5t-84.5 1.5h-293q-63 -182 -140 -182 q-68 0 -68 73q0 46 163 474q101 261 204 524q29 77 56 154q36 87 77 145t87 58t73 -63q38 -87 68 -229q45 -206 52 -234q80 -240 215 -727q3 -15 3 -25zM737 314q-95 288 -189 705q-21 -50 -270 -705h459z" />
<glyph unicode="&#xc2;" horiz-adv-x="1082" d="M971 1606q0 -41 -29 -83t-70 -42q-49 0 -160 135q-72 91 -144 183q-41 -72 -82 -145q-51 -86 -93.5 -136t-85.5 -50q-29 0 -51 20.5t-22 49.5q0 39 114 222q99 160 148.5 221.5t88.5 61.5q43 0 214.5 -195.5t171.5 -241.5zM1033 130q0 -45 -37 -92.5t-80 -47.5 q-54 0 -105 176q-41 -7 -106 -7q-29 0 -84.5 1.5t-84.5 1.5h-294q-63 -182 -140 -182q-68 0 -68 73q0 46 164 474q101 261 203 524q29 77 56 154q36 87 77 145t87 58t74 -63q37 -87 68 -229q44 -206 51 -234q80 -240 215 -727q4 -15 4 -25zM758 314q-96 288 -190 705 q-20 -50 -269 -705h459z" />
<glyph unicode="&#xc3;" horiz-adv-x="1155" d="M1087 1700q0 -22 -17 -56q-36 -74 -116 -125t-160 -51q-64 0 -176.5 51t-175.5 51q-55 0 -119.5 -42.5t-85.5 -42.5q-68 0 -68 75q0 87 121 155q108 60 202 60q69 0 182 -51t162 -51q43 0 94 54.5t87 54.5q31 0 50.5 -25.5t19.5 -56.5zM1056 130q0 -45 -36.5 -92.5 t-79.5 -47.5q-54 0 -105 176q-41 -7 -106 -7q-29 0 -84.5 1.5t-84.5 1.5h-294q-63 -182 -140 -182q-68 0 -68 73q0 46 164 474q101 261 203 524q29 77 56 154q36 87 77 145t87 58t74 -63q37 -87 68 -229q44 -206 51 -234q80 -240 215 -727q3 -15 3 -25zM782 314 q-96 288 -190 705q-20 -50 -269 -705h459z" />
<glyph unicode="&#xc4;" horiz-adv-x="1114" d="M992 1753q0 -28 -10.5 -81.5t-10.5 -80.5q0 -40 -33 -78t-73 -38q-36 0 -56 42q-15 33 -15 74q0 71 32 146q41 91 102 91q64 0 64 -75zM476 1722q0 -12 -17 -89q-19 -87 -29 -107q-29 -58 -87 -58q-68 0 -68 112q0 21 19 116q23 122 112 122q70 0 70 -96zM1044 130 q0 -45 -36.5 -92.5t-79.5 -47.5q-54 0 -105 176q-41 -7 -106 -7q-29 0 -84.5 1.5t-84.5 1.5h-294q-63 -182 -140 -182q-68 0 -68 73q0 46 164 474q101 261 203 524q29 77 56 154q36 87 77 145t87 58t74 -63q37 -87 68 -229q44 -206 51 -234q80 -240 215 -727q3 -15 3 -25z M770 314q-96 288 -190 705q-20 -50 -269 -705h459z" />
<glyph unicode="&#xc5;" horiz-adv-x="1130" d="M1062 1954q0 -174 -137.5 -309t-311.5 -135q-132 0 -217 91.5t-85 222.5q0 171 90 243q19 80 142 140q109 54 201 54q132 0 225 -87.5t93 -219.5zM1033 130q0 -45 -37 -92.5t-80 -47.5q-54 0 -105 176q-41 -7 -106 -7q-29 0 -84.5 1.5t-84.5 1.5h-294q-63 -182 -140 -182 q-68 0 -68 73q0 46 164 474q101 261 203 524q29 77 56 154q36 87 77 145t87 58t74 -63q37 -87 68 -229q44 -206 51 -234q80 -240 215 -727q4 -15 4 -25zM882 1908q0 67 -61 108q-55 37 -123 37q-46 0 -102 -27q-46 -26 -93 -51q-23 -60 -23 -106q0 -75 52.5 -115.5 t129.5 -40.5q86 0 153 55.5t67 139.5zM758 314q-96 288 -190 705q-20 -50 -269 -705h459z" />
<glyph unicode="&#xc6;" horiz-adv-x="1792" d="M1734 229q0 -99 -99 -133q-14 -6 -99 -21q-104 -19 -179 -43q-181 -56 -234 -56q-113 0 -200 59t-121 163h-532q-43 -116 -55 -138q-46 -89 -101 -89q-66 0 -66 78q0 16 90 251q87 251 273 750q53 133 60 150q38 85 74.5 145t87.5 60q48 0 74 -65q35 -91 66 -237 q44 -217 51 -243q33 161 38 268q-34 10 -34 58q0 43 25.5 83t64.5 47q31 24 68 24q18 0 28 -7q61 10 459 36q155 10 159 10q66 0 66 -63q0 -82 -83 -109q-21 -7 -188 -21q-154 -12 -391 -39q-5 -65 -61 -364q187 36 419 36q86 0 86 -75q0 -94 -92 -116q-23 -5 -137 -15 q-193 -17 -304 -24q-3 -41 -3 -77q0 -321 215 -321q83 0 243 49.5t243 49.5q89 0 89 -61zM753 350q-87 241 -173 655q-34 -85 -251 -655h424z" />
<glyph unicode="&#xc8;" horiz-adv-x="1038" d="M691 1603q0 -47 -30.5 -93t-75.5 -46q-25 0 -53 24q-39 34 -133 195.5t-94 204.5q0 47 38 90.5t84 43.5q36 0 63 -42q32 -62 99 -185q31 -46 87 -143q15 -31 15 -49zM1015 244q0 -113 -141 -154l-232 -44q-58 -19 -116 -36q-69 -20 -118 -20q-357 0 -357 454 q0 126 45 350q46 240 51 349q-34 11 -34 57q0 102 87 126q32 33 71 33q17 0 31 -14q289 44 618 44q63 0 63 -60q0 -78 -84 -109q-30 -12 -187 -20q-86 -5 -391 -39q-5 -65 -62 -361q156 29 413 29q93 0 93 -75q0 -85 -93 -112q-23 -7 -127.5 -14.5t-312.5 -25.5 q-3 -39 -3 -76q0 -325 215 -325q83 0 237.5 53t238.5 53q95 0 95 -63z" />
<glyph unicode="&#xc9;" horiz-adv-x="1043" d="M836 1894q0 -49 -95 -208q-89 -148 -137 -196q-39 -39 -78 -39q-67 0 -67 73q0 39 34 92q62 101 191 297q45 60 89 60q63 0 63 -79zM998 244q0 -113 -141 -154l-232 -44q-58 -19 -116 -36q-69 -20 -118 -20q-357 0 -357 454q0 126 45 350q46 240 51 349q-34 11 -34 57 q0 102 87 126q32 33 71 33q17 0 31 -14q288 44 618 44q63 0 63 -60q0 -78 -84 -109q-30 -12 -187 -20q-86 -5 -391 -39q-5 -65 -62 -361q156 29 413 29q93 0 93 -75q0 -85 -93 -112q-24 -7 -128 -14.5t-312 -25.5q-3 -39 -3 -76q0 -325 215 -325q83 0 237.5 53t238.5 53 q95 0 95 -63z" />
<glyph unicode="&#xca;" horiz-adv-x="1053" d="M937 1606q0 -41 -29 -83t-70 -42q-50 0 -160 135q-72 91 -144 183q-41 -72 -82 -145q-51 -86 -93.5 -136t-85.5 -50q-29 0 -51 20.5t-22 49.5q0 39 114 222q99 160 148.5 221.5t88.5 61.5q43 0 214.5 -195.5t171.5 -241.5zM1014 244q0 -113 -142 -154l-232 -44 q-58 -19 -116 -36q-68 -20 -118 -20q-357 0 -357 454q0 126 45 350q46 240 51 349q-34 11 -34 57q0 102 87 126q32 33 72 33q17 0 30 -14q289 44 618 44q63 0 63 -60q0 -78 -83 -109q-31 -12 -188 -20q-85 -5 -391 -39q-5 -65 -61 -361q155 29 413 29q92 0 92 -75 q0 -85 -92 -112q-24 -7 -128 -14.5t-313 -25.5q-3 -39 -3 -76q0 -325 215 -325q84 0 238.5 53t237.5 53q96 0 96 -63z" />
<glyph unicode="&#xcb;" horiz-adv-x="1079" d="M947 1753q0 -28 -10 -81.5t-10 -80.5q0 -40 -33.5 -78t-72.5 -38q-36 0 -56 42q-16 33 -16 74q0 71 33 146q41 91 102 91q63 0 63 -75zM432 1722q0 -12 -17 -89q-19 -87 -29 -107q-29 -58 -87 -58q-69 0 -69 112q0 21 19 116q24 122 113 122q70 0 70 -96zM1022 244 q0 -113 -141 -154l-232 -44q-58 -19 -117 -36q-68 -20 -117 -20q-357 0 -357 454q0 126 44 350q46 240 52 349q-35 11 -35 57q0 102 88 126q32 33 71 33q17 0 31 -14q288 44 618 44q63 0 63 -60q0 -78 -84 -109q-30 -12 -187 -20q-86 -5 -391 -39q-5 -65 -62 -361 q156 29 413 29q92 0 92 -75q0 -85 -92 -112q-24 -7 -128 -14.5t-312 -25.5q-3 -39 -3 -76q0 -325 215 -325q83 0 237.5 53t238.5 53q95 0 95 -63z" />
<glyph unicode="&#xcc;" horiz-adv-x="729" d="M507 1606q0 -46 -31 -92t-75 -46q-26 0 -53 24q-39 34 -133 195t-94 204q0 48 37.5 91.5t83.5 43.5q36 0 63 -43q33 -61 99 -184q31 -46 88 -144q15 -30 15 -49zM708 1300q0 -105 -97 -136q-27 -9 -79 -9q-5 0 -69 2q0 -630 -33 -939q85 7 184 7q81 0 81 -83 q0 -108 -106 -135q-22 -5 -128 -14q-292 -22 -342 -22q-70 0 -70 72q0 85 67 121q39 22 142 34q12 154 17 480q5 315 19 479q-11 0 -48 -2q-29 -1 -48 -1q-131 0 -131 87q0 46 29 87t73 41q38 0 113 1.5t112 1.5h154q72 0 107 -10q53 -15 53 -62z" />
<glyph unicode="&#xcd;" horiz-adv-x="729" d="M655 1894q0 -49 -95 -208q-89 -148 -137 -196q-39 -39 -78 -39q-67 0 -67 73q0 39 34 92q62 101 191 297q45 60 89 60q63 0 63 -79zM674 1300q0 -105 -97 -136q-27 -9 -79 -9q-5 0 -70 2q0 -630 -32 -939q85 7 184 7q80 0 80 -83q0 -108 -105 -135q-23 -5 -128 -14 q-292 -22 -342 -22q-70 0 -70 72q0 85 67 121q39 22 142 34q12 154 17 480q5 315 18 479q-10 0 -47 -2q-29 -1 -48 -1q-132 0 -132 87q0 46 29 87t74 41q37 0 112.5 1.5t112.5 1.5h154q71 0 107 -10q53 -15 53 -62z" />
<glyph unicode="&#xce;" horiz-adv-x="816" d="M782 1606q0 -41 -29 -83t-70 -42q-50 0 -161 135q-71 91 -143 183q-41 -72 -82 -145q-51 -86 -94 -136t-85 -50q-29 0 -51.5 20.5t-22.5 49.5q0 39 115 222q99 160 148.5 221.5t88.5 61.5q43 0 214.5 -195.5t171.5 -241.5zM722 1300q0 -105 -97 -136q-28 -9 -79 -9 q-5 0 -70 2q0 -630 -32 -939q85 7 184 7q80 0 80 -83q0 -108 -106 -135q-22 -5 -128 -14q-291 -22 -341 -22q-70 0 -70 72q0 85 67 121q39 22 141 34q12 154 17 480q6 315 19 479q-10 0 -48 -2q-29 -1 -47 -1q-132 0 -132 87q0 46 29 87t74 41q37 0 112 1.5t113 1.5h153 q72 0 108 -10q53 -15 53 -62z" />
<glyph unicode="&#xcf;" horiz-adv-x="836" d="M780 1753q0 -28 -10.5 -81.5t-10.5 -80.5q0 -40 -33 -78t-72 -38q-36 0 -57 42q-15 33 -15 74q0 71 32 146q41 91 103 91q63 0 63 -75zM265 1722q0 -12 -18 -89q-18 -87 -29 -107q-29 -58 -87 -58q-68 0 -68 112q0 21 19 116q24 122 113 122q70 0 70 -96zM736 1300 q0 -105 -98 -136q-27 -9 -78 -9q-5 0 -70 2q0 -630 -33 -939q86 7 185 7q80 0 80 -83q0 -108 -106 -135q-22 -5 -128 -14q-292 -22 -341 -22q-70 0 -70 72q0 85 66 121q40 22 142 34q12 154 17 480q5 315 19 479q-10 0 -48 -2q-29 -1 -48 -1q-131 0 -131 87q0 46 29 87 t73 41q38 0 113 1.5t113 1.5h153q72 0 108 -10q53 -15 53 -62z" />
<glyph unicode="&#xd1;" d="M1068 1700q0 -22 -17 -56q-36 -74 -116 -125t-160 -51q-63 0 -176 51t-176 51q-54 0 -119 -42.5t-86 -42.5q-68 0 -68 75q0 87 121 155q108 60 202 60q70 0 182.5 -51t161.5 -51q43 0 94.5 54.5t86.5 54.5q31 0 50.5 -25.5t19.5 -56.5zM1068 1299q0 -150 -8.5 -448 t-8.5 -448q0 -156 -22 -237q-15 -55 -46 -98q-39 -58 -84 -58q-20 0 -46 29q-41 45 -191 282q-130 201 -377 614q-12 -251 -36 -631q-3 -60 -7 -120q-6 -71 -24 -117q-34 -96 -105 -96q-46 0 -46 75q0 140 23 391q26 271 29 389v205q0 334 127 334q25 0 56 -42 q39 -57 91 -151q70 -129 83 -153q132 -205 391 -616q3 210 10 631q2 106 4 121q3 70 18 118q35 106 113 106q56 0 56 -80z" />
<glyph unicode="&#xd2;" horiz-adv-x="1328" d="M778 1606q0 -46 -30.5 -92t-75.5 -46q-25 0 -52 24q-40 34 -133.5 195t-93.5 204q0 48 37.5 91.5t83.5 43.5q36 0 63 -43q32 -61 99 -184q31 -46 87 -144q15 -30 15 -49zM1295 684q0 -285 -162 -479q-172 -208 -452 -208q-273 0 -452 160q-186 166 -186 435q0 196 87 369 q90 182 251 281q52 123 314 123q271 0 442 -208q158 -194 158 -473zM1108 625q0 237 -142.5 377.5t-380.5 140.5q-44 0 -140 -58q-227 -138 -227 -421q0 -207 147 -338q142 -125 352 -125q182 0 286.5 119.5t104.5 304.5z" />
<glyph unicode="&#xd3;" horiz-adv-x="1328" d="M961 1894q0 -49 -96 -208q-88 -148 -136 -196q-40 -39 -79 -39q-66 0 -66 73q0 39 34 92q61 101 191 297q44 60 89 60q63 0 63 -79zM1282 684q0 -285 -162 -479q-173 -208 -453 -208q-273 0 -452 160q-186 166 -186 435q0 196 87 369q91 182 251 281q53 123 314 123 q271 0 442 -208q159 -194 159 -473zM1094 625q0 237 -142.5 377.5t-379.5 140.5q-45 0 -140 -58q-227 -138 -227 -421q0 -207 147 -338q141 -125 351 -125q183 0 287 119.5t104 304.5z" />
<glyph unicode="&#xd4;" horiz-adv-x="1338" d="M1058 1606q0 -41 -29 -83t-70 -42q-49 0 -160 135q-72 91 -144 183q-41 -72 -82 -145q-51 -86 -93.5 -136t-85.5 -50q-29 0 -51 20.5t-22 49.5q0 39 114 222q99 160 148.5 221.5t88.5 61.5q43 0 214.5 -195.5t171.5 -241.5zM1294 684q0 -285 -162 -479 q-173 -208 -453 -208q-273 0 -452 160q-186 166 -186 435q0 196 87 369q90 182 251 281q53 123 314 123q271 0 442 -208q159 -194 159 -473zM1106 625q0 237 -142.5 377.5t-379.5 140.5q-45 0 -140 -58q-227 -138 -227 -421q0 -207 147 -338q141 -125 351 -125 q183 0 287 119.5t104 304.5z" />
<glyph unicode="&#xd5;" horiz-adv-x="1364" d="M1186 1700q0 -22 -17 -56q-36 -74 -116 -125t-160 -51q-64 0 -176.5 51t-175.5 51q-55 0 -119.5 -42.5t-85.5 -42.5q-68 0 -68 75q0 87 121 155q108 60 202 60q69 0 182 -51t162 -51q43 0 94 54.5t87 54.5q31 0 50.5 -25.5t19.5 -56.5zM1304 684q0 -285 -162 -479 q-173 -208 -453 -208q-273 0 -452 160q-186 166 -186 435q0 196 87 369q91 182 251 281q53 123 314 123q272 0 442 -208q159 -194 159 -473zM1116 625q0 237 -142.5 377.5t-379.5 140.5q-44 0 -140 -58q-227 -138 -227 -421q0 -207 147 -338q141 -125 351 -125 q183 0 287 119.5t104 304.5z" />
<glyph unicode="&#xd6;" horiz-adv-x="1355" d="M1075 1753q0 -28 -10 -81.5t-10 -80.5q0 -40 -33.5 -78t-72.5 -38q-36 0 -56 42q-16 33 -16 74q0 71 33 146q41 91 102 91q63 0 63 -75zM560 1722q0 -12 -17 -89q-19 -87 -29 -107q-29 -58 -87 -58q-69 0 -69 112q0 21 19 116q24 122 113 122q70 0 70 -96zM1300 684 q0 -285 -162 -479q-172 -208 -452 -208q-273 0 -452 160q-186 166 -186 435q0 196 87 369q90 182 251 281q53 123 314 123q271 0 442 -208q158 -194 158 -473zM1113 625q0 237 -142.5 377.5t-379.5 140.5q-45 0 -140 -58q-227 -138 -227 -421q0 -207 146 -338 q142 -125 352 -125q183 0 287 119.5t104 304.5z" />
<glyph unicode="&#xd7;" horiz-adv-x="1174" d="M969 985q0 -57 -82 -142q-64 -60 -129 -119q54 -46 109 -94q70 -67 70 -115q0 -44 -33.5 -89t-75.5 -45q-36 0 -243 184q-73 -70 -223 -208q-45 -40 -77 -40q-34 0 -56 28.5t-22 64.5q0 39 39 87q27 32 201 191q-60 54 -119 107q-82 81 -82 127q0 47 36.5 91.5t82.5 44.5 q22 0 53 -24q43 -32 103 -94q80 -80 99 -97q257 232 286 232q63 0 63 -90z" />
<glyph unicode="&#xd8;" horiz-adv-x="1329" d="M1294 684q0 -285 -162 -479q-173 -208 -453 -208q-66 0 -135 12q-17 -48 -29 -82q-25 -77 -52 -156q-43 -92 -117 -92q-73 0 -73 70q0 31 101 311q-161 73 -247 214t-86 318q0 196 87 369q90 182 251 281q53 123 314 123q73 0 138 -15q22 89 39 126q38 72 98 72 q70 0 70 -77q0 -36 -41 -191q145 -90 223 -259q74 -156 74 -337zM1106 625q0 271 -181 413q-55 -173 -305 -830q42 -7 95 -7q183 0 287 119.5t104 304.5zM765 1118q-87 25 -181 25q-45 0 -140 -58q-227 -138 -227 -421q0 -270 234 -398q107 284 314 852z" />
<glyph unicode="&#xd9;" horiz-adv-x="1328" d="M794 1606q0 -46 -31 -92t-75 -46q-26 0 -53 24q-39 34 -133 195t-94 204q0 48 37.5 91.5t83.5 43.5q36 0 63 -43q33 -61 99 -184q31 -46 87 -144q16 -30 16 -49zM1287 794q0 -342 -116 -541q-145 -250 -463 -250q-292 0 -472 157q-190 168 -190 454q0 128 46 337 q48 216 103 322q39 75 87 75q63 0 63 -65q0 -18 -4 -34q-1 -8 -76 -280q-47 -167 -47 -285q0 -232 168 -358q150 -111 391 -111q191 0 266 162q51 113 51 331q0 96 -32.5 284.5t-32.5 284.5q0 42 39.5 88t81.5 46q65 0 106 -274q31 -202 31 -343z" />
<glyph unicode="&#xda;" horiz-adv-x="1329" d="M956 1894q0 -49 -96 -208q-89 -148 -136 -196q-40 -39 -79 -39q-66 0 -66 73q0 39 34 92q61 101 191 297q44 60 89 60q63 0 63 -79zM1275 794q0 -342 -116 -541q-145 -250 -463 -250q-292 0 -472 157q-190 168 -190 454q0 128 46 337q48 216 103 322q39 75 87 75 q63 0 63 -65q0 -18 -4 -34q-1 -8 -76 -280q-46 -167 -46 -285q0 -232 167 -358q150 -111 391 -111q191 0 266 162q51 113 51 331q0 96 -32.5 284.5t-32.5 284.5q0 42 39.5 88t81.5 46q65 0 106 -274q31 -202 31 -343z" />
<glyph unicode="&#xdb;" horiz-adv-x="1340" d="M1053 1606q0 -41 -29 -83t-70 -42q-49 0 -160 135q-72 91 -144 183q-41 -72 -82 -145q-51 -86 -93.5 -136t-85.5 -50q-29 0 -51 20.5t-22 49.5q0 39 114 222q99 160 148.5 221.5t88.5 61.5q43 0 214.5 -195.5t171.5 -241.5zM1287 794q0 -342 -116 -541 q-145 -250 -463 -250q-292 0 -472 157q-190 168 -190 454q0 128 46 337q48 216 103 322q39 75 87 75q63 0 63 -65q0 -18 -4 -34q-1 -8 -76 -280q-47 -167 -47 -285q0 -232 168 -358q150 -111 391 -111q191 0 266 162q51 113 51 331q0 96 -32.5 284.5t-32.5 284.5 q0 42 39.5 88t81.5 46q65 0 106 -274q31 -202 31 -343z" />
<glyph unicode="&#xdc;" horiz-adv-x="1355" d="M1056 1753q0 -28 -10 -81.5t-10 -80.5q0 -40 -33.5 -78t-72.5 -38q-36 0 -56 42q-16 33 -16 74q0 71 33 146q41 91 102 91q63 0 63 -75zM541 1722q0 -12 -17 -89q-19 -87 -29 -107q-29 -58 -87 -58q-68 0 -68 112q0 21 18 116q24 122 113 122q70 0 70 -96zM1294 794 q0 -342 -116 -541q-145 -250 -463 -250q-292 0 -473 157q-189 168 -189 454q0 128 46 337q48 216 102 322q40 75 87 75q64 0 64 -65q0 -18 -4 -34q-2 -8 -77 -280q-46 -167 -46 -285q0 -232 168 -358q150 -111 390 -111q192 0 267 162q51 113 51 331q0 96 -32.5 284.5 t-32.5 284.5q0 42 39 88t82 46q65 0 106 -274q31 -202 31 -343z" />
<glyph unicode="&#xdd;" horiz-adv-x="1263" d="M889 1894q0 -49 -95 -208q-89 -148 -137 -196q-39 -39 -78 -39q-67 0 -67 73q0 39 34 92q62 101 191 297q45 60 89 60q63 0 63 -79zM1208 695q0 -309 -117 -487q-139 -208 -434 -208q-90 0 -229 27q-157 29 -215 69q-39 25 -39 59q0 46 32.5 92.5t76.5 46.5q5 0 17 -4 q277 -78 400 -78t188.5 43.5t96.5 157.5q22 84 22 311q-201 -209 -492 -209q-232 0 -361 151q-125 143 -125 378q0 332 138 332q31 0 52.5 -25t21.5 -56q0 -32 -10.5 -97t-10.5 -97q0 -162 89 -263t249 -101q142 0 261 74q128 78 166 208q-10 133 -10 227q0 56 30 101 q34 51 89 51q96 0 96 -227q0 -80 9 -238t9 -238z" />
<glyph unicode="&#xde;" horiz-adv-x="1260" d="M1248 730q0 -343 -826 -462q-9 -128 -19 -167q-29 -98 -115 -98q-63 0 -63 79q0 -29 14 203q-10 19 -10 39q0 4 13 53q7 26 7 142t14 360q-34 14 -34 60q0 61 44 105q0 74 22 216q34 112 123 112q39 0 50 -63q6 -46 6 -106q0 -25 -1 -66q-2 -50 -2 -65q777 -38 777 -342z M1063 681q0 128 -599 176q-8 -197 -24 -388q145 28 345 86q278 80 278 126z" />
<glyph unicode="&#xdf;" horiz-adv-x="1439" d="M1381 406q0 -198 -183 -310q-155 -96 -365 -96q-183 0 -256 29q-53 20 -53 67q0 51 35 90t84 39q36 0 109.5 -8.5t109.5 -8.5q87 0 193 34q135 45 135 111q0 75 -123 144q-135 75 -371 75q-82 0 -82 77q0 80 79 131q27 19 130.5 54t147.5 62q70 46 70 106q0 89 -145 128 q-90 24 -217 24q-131 0 -194 -60q-103 -97 -103 -459q0 -166 42 -492.5t42 -492.5q0 -162 -97 -162q-65 0 -65 82q0 155 -33 398q-46 331 -51 396q-13 150 -13 281q0 260 80 434q102 221 324 273q60 13 162 13q181 0 302 -68q150 -85 150 -253q0 -167 -172 -296 q131 -38 222 -122q106 -97 106 -220z" />
<glyph unicode="&#xe0;" horiz-adv-x="1065" d="M720 1626q0 -46 -30.5 -92t-75.5 -46q-25 0 -53 24q-39 34 -132.5 195.5t-93.5 203.5q0 48 37.5 91.5t83.5 43.5q36 0 63 -42q32 -62 99 -185q31 -46 87 -143q15 -31 15 -50zM1036 130q0 -45 -36.5 -92.5t-79.5 -47.5q-55 0 -106 176q-41 -7 -106 -7q-29 0 -85 1.5 t-84 1.5h-293q-63 -182 -140 -182q-68 0 -68 73q0 46 163 474q101 261 203 524q29 77 57 154q36 87 77 145t87 58t73 -63q38 -87 68 -229q45 -206 51 -234q81 -240 216 -727q3 -15 3 -25zM761 314q-95 288 -189 705q-21 -50 -270 -705h459z" />
<glyph unicode="&#xe1;" horiz-adv-x="1072" d="M908 1932q0 -50 -96 -208q-88 -149 -136 -197q-39 -39 -79 -39q-66 0 -66 74q0 39 34 92q61 100 191 297q44 59 89 59q63 0 63 -78zM1012 130q0 -45 -36.5 -92.5t-79.5 -47.5q-55 0 -106 176q-41 -7 -106 -7q-29 0 -85 1.5t-84 1.5h-293q-63 -182 -140 -182q-68 0 -68 73 q0 46 163 474q101 261 204 524q29 77 56 154q36 87 77 145t87 58t73 -63q38 -87 68 -229q45 -206 52 -234q80 -240 215 -727q3 -15 3 -25zM737 314q-95 288 -189 705q-21 -50 -270 -705h459z" />
<glyph unicode="&#xe2;" horiz-adv-x="1082" d="M971 1606q0 -41 -29 -83t-70 -42q-49 0 -160 135q-72 91 -144 183q-41 -72 -82 -145q-51 -86 -93.5 -136t-85.5 -50q-29 0 -51 20.5t-22 49.5q0 39 114 222q99 160 148.5 221.5t88.5 61.5q43 0 214.5 -195.5t171.5 -241.5zM1033 130q0 -45 -37 -92.5t-80 -47.5 q-54 0 -105 176q-41 -7 -106 -7q-29 0 -85.5 1.5t-83.5 1.5h-294q-63 -182 -140 -182q-68 0 -68 73q0 46 164 474q101 261 203 524q29 77 56 154q36 87 77 145t87 58t74 -63q37 -87 68 -229q44 -206 51 -234q80 -240 215 -727q4 -15 4 -25zM758 314q-96 288 -190 705 q-20 -50 -269 -705h459z" />
<glyph unicode="&#xe3;" horiz-adv-x="1155" d="M1087 1700q0 -22 -17 -56q-36 -74 -116 -125t-160 -51q-64 0 -176.5 51t-175.5 51q-55 0 -119.5 -42.5t-85.5 -42.5q-68 0 -68 75q0 87 121 155q108 60 202 60q69 0 182 -51t162 -51q43 0 94 54.5t87 54.5q31 0 50.5 -25.5t19.5 -56.5zM1056 130q0 -45 -36.5 -92.5 t-79.5 -47.5q-54 0 -105 176q-41 -7 -106 -7q-29 0 -85.5 1.5t-83.5 1.5h-294q-63 -182 -140 -182q-68 0 -68 73q0 46 164 474q101 261 203 524q29 77 56 154q36 87 77 145t87 58t74 -63q37 -87 68 -229q44 -206 51 -234q80 -240 215 -727q3 -15 3 -25zM782 314 q-96 288 -190 705q-20 -50 -269 -705h459z" />
<glyph unicode="&#xe4;" horiz-adv-x="1114" d="M992 1753q0 -28 -10.5 -81.5t-10.5 -80.5q0 -40 -33 -78t-73 -38q-36 0 -56 42q-15 33 -15 74q0 71 32 146q41 91 102 91q64 0 64 -75zM476 1722q0 -12 -17 -89q-19 -87 -29 -107q-29 -58 -87 -58q-68 0 -68 112q0 21 19 116q23 122 112 122q70 0 70 -96zM1044 130 q0 -45 -36.5 -92.5t-79.5 -47.5q-54 0 -105 176q-41 -7 -106 -7q-29 0 -85.5 1.5t-83.5 1.5h-294q-63 -182 -140 -182q-68 0 -68 73q0 46 164 474q101 261 203 524q29 77 56 154q36 87 77 145t87 58t74 -63q37 -87 68 -229q44 -206 51 -234q80 -240 215 -727q3 -15 3 -25z M770 314q-96 288 -190 705q-20 -50 -269 -705h459z" />
<glyph unicode="&#xe5;" horiz-adv-x="1130" d="M1062 1954q0 -174 -137.5 -309t-311.5 -135q-132 0 -217 91.5t-85 222.5q0 171 90 243q19 80 142 140q109 54 201 54q132 0 225 -87.5t93 -219.5zM1033 130q0 -45 -37 -92.5t-80 -47.5q-54 0 -105 176q-41 -7 -106 -7q-29 0 -85.5 1.5t-83.5 1.5h-294q-63 -182 -140 -182 q-68 0 -68 73q0 46 164 474q101 261 203 524q29 77 56 154q36 87 77 145t87 58t74 -63q37 -87 68 -229q44 -206 51 -234q80 -240 215 -727q4 -15 4 -25zM882 1908q0 67 -61 108q-55 37 -123 37q-46 0 -102 -27q-46 -26 -93 -51q-23 -60 -23 -106q0 -75 52.5 -115.5 t129.5 -40.5q86 0 153 55.5t67 139.5zM758 314q-96 288 -190 705q-20 -50 -269 -705h459z" />
<glyph unicode="&#xe6;" horiz-adv-x="1792" d="M1734 229q0 -99 -99 -133q-14 -6 -99 -21q-104 -19 -179 -43q-181 -56 -234 -56q-113 0 -200 59t-121 163h-532q-43 -116 -55 -138q-46 -89 -101 -89q-66 0 -66 78q0 16 90 251q87 251 273 750q53 133 60 150q38 85 74.5 145t87.5 60q48 0 74 -65q35 -91 66 -237 q44 -217 51 -243q33 161 38 268q-34 10 -34 58q0 43 25.5 83t64.5 47q31 24 68 24q18 0 28 -7q61 10 459 36q155 10 159 10q66 0 66 -63q0 -82 -83 -109q-21 -7 -188 -21q-152 -12 -391 -39q-5 -65 -61 -364q187 36 419 36q86 0 86 -75q0 -94 -92 -116q-23 -5 -137 -15 q-193 -17 -304 -24q-3 -41 -3 -77q0 -321 215 -321q83 0 243 49.5t243 49.5q89 0 89 -61zM753 350q-87 241 -173 655q-34 -85 -251 -655h424z" />
<glyph unicode="&#xe8;" horiz-adv-x="1038" d="M691 1603q0 -47 -30.5 -93t-75.5 -46q-25 0 -53 24q-39 34 -133 195.5t-94 204.5q0 47 38 90.5t84 43.5q36 0 63 -42q32 -62 99 -185q31 -46 87 -143q15 -31 15 -49zM1015 244q0 -113 -141 -154l-232 -44q-58 -19 -116 -36q-69 -20 -118 -20q-357 0 -357 454 q0 126 45 350q46 240 51 349q-34 11 -34 57q0 102 87 126q32 33 71 33q17 0 31 -14q289 44 618 44q63 0 63 -60q0 -78 -84 -109q-30 -12 -187 -20q-86 -5 -391 -39q-5 -65 -62 -361q156 29 413 29q93 0 93 -75q0 -85 -93 -112q-23 -7 -127.5 -14.5t-312.5 -25.5 q-3 -39 -3 -76q0 -325 215 -325q83 0 237.5 53t238.5 53q95 0 95 -63z" />
<glyph unicode="&#xe9;" horiz-adv-x="1043" d="M836 1894q0 -49 -95 -208q-89 -148 -137 -196q-39 -39 -78 -39q-67 0 -67 73q0 39 34 92q62 101 191 297q45 60 89 60q63 0 63 -79zM998 244q0 -113 -141 -154l-232 -44q-58 -19 -116 -36q-69 -20 -118 -20q-357 0 -357 454q0 126 45 350q46 240 51 349q-34 11 -34 57 q0 102 87 126q32 33 71 33q17 0 31 -14q288 44 618 44q63 0 63 -60q0 -78 -84 -109q-30 -12 -187 -20q-86 -5 -391 -39q-5 -65 -62 -361q156 29 413 29q93 0 93 -75q0 -85 -93 -112q-24 -7 -128 -14.5t-312 -25.5q-3 -39 -3 -76q0 -325 215 -325q83 0 237.5 53t238.5 53 q95 0 95 -63z" />
<glyph unicode="&#xea;" horiz-adv-x="1053" d="M937 1606q0 -41 -29 -83t-70 -42q-50 0 -160 135q-72 91 -144 183q-41 -72 -82 -145q-51 -86 -93.5 -136t-85.5 -50q-29 0 -51 20.5t-22 49.5q0 39 114 222q99 160 148.5 221.5t88.5 61.5q43 0 214.5 -195.5t171.5 -241.5zM1014 244q0 -113 -142 -154l-232 -44 q-58 -19 -116 -36q-68 -20 -118 -20q-357 0 -357 454q0 126 45 350q46 240 51 349q-34 11 -34 57q0 102 87 126q32 33 72 33q17 0 30 -14q289 44 618 44q63 0 63 -60q0 -78 -83 -109q-31 -12 -188 -20q-85 -5 -391 -39q-5 -65 -61 -361q155 29 413 29q92 0 92 -75 q0 -85 -92 -112q-24 -7 -128 -14.5t-313 -25.5q-3 -39 -3 -76q0 -325 215 -325q84 0 238.5 53t237.5 53q96 0 96 -63z" />
<glyph unicode="&#xeb;" horiz-adv-x="1079" d="M947 1753q0 -28 -10 -81.5t-10 -80.5q0 -40 -33.5 -78t-72.5 -38q-36 0 -56 42q-16 33 -16 74q0 71 33 146q41 91 102 91q63 0 63 -75zM432 1722q0 -12 -17 -89q-19 -87 -29 -107q-29 -58 -87 -58q-69 0 -69 112q0 21 19 116q24 122 113 122q70 0 70 -96zM1022 244 q0 -113 -141 -154l-232 -44q-58 -19 -117 -36q-68 -20 -117 -20q-357 0 -357 454q0 126 44 350q46 240 52 349q-35 11 -35 57q0 102 88 126q32 33 71 33q17 0 31 -14q288 44 618 44q63 0 63 -60q0 -78 -84 -109q-30 -12 -187 -20q-86 -5 -391 -39q-5 -65 -62 -361 q156 29 413 29q92 0 92 -75q0 -85 -92 -112q-24 -7 -128 -14.5t-312 -25.5q-3 -39 -3 -76q0 -325 215 -325q83 0 237.5 53t238.5 53q95 0 95 -63z" />
<glyph unicode="&#xec;" horiz-adv-x="461" d="M423 1606q0 -46 -30.5 -92t-75.5 -46q-25 0 -52 24q-40 34 -133.5 195t-93.5 204q0 48 37.5 91.5t83.5 43.5q36 0 63 -43q32 -61 99 -184q31 -46 87 -144q15 -30 15 -49zM374 1254q0 -162 -15.5 -488t-15.5 -488q0 -281 -131 -281q-69 0 -69 88q0 140 12 383 q16 276 17 382v241q0 295 140 295q62 0 62 -132z" />
<glyph unicode="&#xed;" horiz-adv-x="469" d="M454 1894q0 -49 -96 -208q-88 -148 -136 -196q-39 -39 -79 -39q-66 0 -66 73q0 39 34 92q61 101 191 297q44 60 89 60q63 0 63 -79zM280 1254q0 -162 -15.5 -488t-15.5 -488q0 -281 -131 -281q-69 0 -69 88q0 140 12 383q16 276 18 382v241q0 295 139 295q62 0 62 -132z " />
<glyph unicode="&#xee;" horiz-adv-x="777" d="M759 1606q0 -41 -29 -83t-70 -42q-49 0 -160 135q-72 91 -143 183q-41 -72 -82 -145q-51 -86 -94 -136t-85 -50q-29 0 -51.5 20.5t-22.5 49.5q0 39 115 222q99 160 148.5 221.5t88.5 61.5q42 0 213.5 -195.5t171.5 -241.5zM502 1254q0 -162 -15.5 -488t-15.5 -488 q0 -281 -131 -281q-69 0 -69 88q0 140 12 383q16 276 17 382v241q0 295 140 295q62 0 62 -132z" />
<glyph unicode="&#xef;" horiz-adv-x="785" d="M754 1753q0 -28 -10 -81.5t-10 -80.5q0 -40 -33.5 -78t-72.5 -38q-36 0 -56 42q-16 33 -16 74q0 71 33 146q41 91 102 91q63 0 63 -75zM239 1722q0 -12 -17 -89q-19 -87 -29 -107q-29 -58 -87 -58q-68 0 -68 112q0 21 18 116q24 122 113 122q70 0 70 -96zM493 1254 q0 -162 -15 -488t-15 -488q0 -281 -132 -281q-68 0 -68 88q0 140 12 383q15 276 17 382v241q0 295 140 295q61 0 61 -132z" />
<glyph unicode="&#xf1;" d="M1068 1700q0 -22 -17 -56q-36 -74 -116 -125t-160 -51q-63 0 -176 51t-176 51q-54 0 -119 -42.5t-86 -42.5q-68 0 -68 75q0 87 121 155q108 60 202 60q70 0 182.5 -51t161.5 -51q43 0 94.5 54.5t86.5 54.5q31 0 50.5 -25.5t19.5 -56.5zM1068 1299q0 -150 -8.5 -448 t-8.5 -448q0 -156 -22 -237q-15 -55 -46 -98q-39 -58 -84 -58q-20 0 -46 29q-41 45 -191 282q-130 201 -377 614q-12 -251 -36 -631q-3 -60 -7 -120q-6 -71 -24 -117q-34 -96 -105 -96q-46 0 -46 75q0 140 23 391q26 271 29 389v205q0 334 127 334q25 0 56 -42 q39 -57 91 -151q70 -129 83 -153q132 -205 391 -616q3 210 10 631q2 106 4 121q3 70 18 118q35 106 113 106q56 0 56 -80z" />
<glyph unicode="&#xf2;" d="M1068 1700q0 -22 -17 -56q-36 -74 -116 -125t-160 -51q-63 0 -176 51t-176 51q-54 0 -119 -42.5t-86 -42.5q-68 0 -68 75q0 87 121 155q108 60 202 60q70 0 182.5 -51t161.5 -51q43 0 94.5 54.5t86.5 54.5q31 0 50.5 -25.5t19.5 -56.5zM1068 1299q0 -150 -8.5 -448 t-8.5 -448q0 -156 -22 -237q-15 -55 -46 -98q-39 -58 -84 -58q-20 0 -46 29q-41 45 -191 282q-130 201 -377 614q-12 -251 -36 -631q-3 -60 -7 -120q-6 -71 -24 -117q-34 -96 -105 -96q-46 0 -46 75q0 140 23 391q26 271 29 389v205q0 334 127 334q25 0 56 -42 q39 -57 91 -151q70 -129 83 -153q132 -205 391 -616q3 210 10 631q2 106 4 121q3 70 18 118q35 106 113 106q56 0 56 -80z" />
<glyph unicode="&#xf3;" horiz-adv-x="1328" d="M778 1606q0 -46 -30.5 -92t-75.5 -46q-25 0 -52 24q-40 34 -133.5 195t-93.5 204q0 48 37.5 91.5t83.5 43.5q36 0 63 -43q32 -61 99 -184q31 -46 87 -144q15 -30 15 -49zM1295 684q0 -285 -162 -479q-172 -208 -452 -208q-273 0 -452 160q-186 166 -186 435q0 196 87 369 q90 182 251 281q52 123 314 123q271 0 442 -208q158 -194 158 -473zM1108 625q0 237 -142.5 377.5t-380.5 140.5q-44 0 -140 -58q-227 -138 -227 -421q0 -207 147 -338q142 -125 352 -125q182 0 286.5 119.5t104.5 304.5z" />
<glyph unicode="&#xf4;" horiz-adv-x="1328" d="M961 1894q0 -49 -96 -208q-88 -148 -136 -196q-40 -39 -79 -39q-66 0 -66 73q0 39 34 92q61 101 191 297q44 60 89 60q63 0 63 -79zM1282 684q0 -285 -162 -479q-173 -208 -453 -208q-273 0 -452 160q-186 166 -186 435q0 196 87 369q91 182 251 281q53 123 314 123 q271 0 442 -208q159 -194 159 -473zM1094 625q0 237 -142.5 377.5t-379.5 140.5q-45 0 -140 -58q-227 -138 -227 -421q0 -207 147 -338q141 -125 351 -125q183 0 287 119.5t104 304.5z" />
<glyph unicode="&#xf5;" horiz-adv-x="1338" d="M1058 1606q0 -41 -29 -83t-70 -42q-49 0 -160 135q-72 91 -144 183q-41 -72 -82 -145q-51 -86 -93.5 -136t-85.5 -50q-29 0 -51 20.5t-22 49.5q0 39 114 222q99 160 148.5 221.5t88.5 61.5q43 0 214.5 -195.5t171.5 -241.5zM1294 684q0 -285 -162 -479 q-173 -208 -453 -208q-273 0 -452 160q-186 166 -186 435q0 196 87 369q90 182 251 281q53 123 314 123q271 0 442 -208q159 -194 159 -473zM1106 625q0 237 -142.5 377.5t-379.5 140.5q-45 0 -140 -58q-227 -138 -227 -421q0 -207 147 -338q141 -125 351 -125 q183 0 287 119.5t104 304.5z" />
<glyph unicode="&#xf6;" horiz-adv-x="1364" d="M1186 1700q0 -22 -17 -56q-36 -74 -116 -125t-160 -51q-64 0 -176.5 51t-175.5 51q-55 0 -119.5 -42.5t-85.5 -42.5q-68 0 -68 75q0 87 121 155q108 60 202 60q69 0 182 -51t162 -51q43 0 94 54.5t87 54.5q31 0 50.5 -25.5t19.5 -56.5zM1304 684q0 -285 -162 -479 q-173 -208 -453 -208q-273 0 -452 160q-186 166 -186 435q0 196 87 369q91 182 251 281q53 123 314 123q272 0 442 -208q159 -194 159 -473zM1116 625q0 237 -142.5 377.5t-379.5 140.5q-44 0 -140 -58q-227 -138 -227 -421q0 -207 147 -338q141 -125 351 -125 q183 0 287 119.5t104 304.5z" />
<glyph unicode="&#xf7;" horiz-adv-x="824" d="M553 1118q0 -56 -38 -109q-42 -57 -97 -57q-66 0 -66 74q0 56 35 111q41 61 94 61q72 0 72 -80zM771 773q0 -107 -99 -135q-37 -10 -136 -10q-68 0 -203 -8.5t-203 -8.5q-81 0 -81 80q0 145 243 145h389q90 0 90 -63zM483 408q0 -63 -36 -120q-39 -63 -99 -63 q-31 0 -50.5 25.5t-19.5 56.5q0 58 38 120q41 70 95 70q72 0 72 -89z" />
<glyph unicode="&#xf8;" horiz-adv-x="1329" d="M1294 684q0 -285 -162 -479q-173 -208 -453 -208q-66 0 -135 12q-17 -48 -29 -82q-25 -77 -52 -156q-43 -92 -117 -92q-73 0 -73 70q0 31 101 311q-161 73 -247 214t-86 318q0 196 87 369q90 182 251 281q53 123 314 123q73 0 138 -15q22 89 39 126q38 72 98 72 q70 0 70 -77q0 -36 -41 -191q145 -90 223 -259q74 -156 74 -337zM1106 625q0 271 -181 413q-55 -173 -305 -830q42 -7 95 -7q183 0 287 119.5t104 304.5zM765 1118q-87 25 -181 25q-45 0 -140 -58q-227 -138 -227 -421q0 -270 234 -398q107 284 314 852z" />
<glyph unicode="&#xf9;" horiz-adv-x="1328" d="M794 1606q0 -46 -31 -92t-75 -46q-26 0 -53 24q-39 34 -133 195t-94 204q0 48 37.5 91.5t83.5 43.5q36 0 63 -43q33 -61 99 -184q31 -46 87 -144q16 -30 16 -49zM1287 794q0 -342 -116 -541q-145 -250 -463 -250q-292 0 -472 157q-190 168 -190 454q0 128 46 337 q48 216 103 322q39 75 87 75q63 0 63 -65q0 -18 -4 -34q-1 -8 -76 -280q-47 -167 -47 -285q0 -232 168 -358q150 -111 391 -111q191 0 266 162q51 113 51 331q0 96 -32.5 284.5t-32.5 284.5q0 42 39.5 88t81.5 46q65 0 106 -274q31 -202 31 -343z" />
<glyph unicode="&#xfa;" horiz-adv-x="1329" d="M956 1894q0 -49 -96 -208q-89 -148 -136 -196q-40 -39 -79 -39q-66 0 -66 73q0 39 34 92q61 101 191 297q44 60 89 60q63 0 63 -79zM1275 794q0 -342 -116 -541q-145 -250 -463 -250q-292 0 -472 157q-190 168 -190 454q0 128 46 337q48 216 103 322q39 75 87 75 q63 0 63 -65q0 -18 -4 -34q-1 -8 -76 -280q-46 -167 -46 -285q0 -232 167 -358q150 -111 391 -111q191 0 266 162q51 113 51 331q0 96 -32.5 284.5t-32.5 284.5q0 42 39.5 88t81.5 46q65 0 106 -274q31 -202 31 -343z" />
<glyph unicode="&#xfb;" horiz-adv-x="1340" d="M1053 1606q0 -41 -29 -83t-70 -42q-49 0 -160 135q-72 91 -144 183q-41 -72 -82 -145q-51 -86 -93.5 -136t-85.5 -50q-29 0 -51 20.5t-22 49.5q0 39 114 222q99 160 148.5 221.5t88.5 61.5q43 0 214.5 -195.5t171.5 -241.5zM1287 794q0 -342 -116 -541 q-145 -250 -463 -250q-292 0 -472 157q-190 168 -190 454q0 128 46 337q48 216 103 322q39 75 87 75q63 0 63 -65q0 -18 -4 -34q-1 -8 -76 -280q-47 -167 -47 -285q0 -232 168 -358q150 -111 391 -111q191 0 266 162q51 113 51 331q0 96 -32.5 284.5t-32.5 284.5 q0 42 39.5 88t81.5 46q65 0 106 -274q31 -202 31 -343z" />
<glyph unicode="&#xfc;" horiz-adv-x="1355" d="M1056 1753q0 -28 -10 -81.5t-10 -80.5q0 -40 -33.5 -78t-72.5 -38q-36 0 -56 42q-16 33 -16 74q0 71 33 146q41 91 102 91q63 0 63 -75zM541 1722q0 -12 -17 -89q-19 -87 -29 -107q-29 -58 -87 -58q-68 0 -68 112q0 21 18 116q24 122 113 122q70 0 70 -96zM1294 794 q0 -342 -116 -541q-145 -250 -463 -250q-292 0 -473 157q-189 168 -189 454q0 128 46 337q48 216 102 322q40 75 87 75q64 0 64 -65q0 -18 -4 -34q-2 -8 -77 -280q-46 -167 -46 -285q0 -232 168 -358q150 -111 390 -111q192 0 267 162q51 113 51 331q0 96 -32.5 284.5 t-32.5 284.5q0 42 39 88t82 46q65 0 106 -274q31 -202 31 -343z" />
<glyph unicode="&#xfd;" horiz-adv-x="1263" d="M889 1894q0 -49 -95 -208q-89 -148 -137 -196q-39 -39 -78 -39q-67 0 -67 73q0 39 34 92q62 101 191 297q45 60 89 60q63 0 63 -79zM1208 695q0 -309 -117 -487q-139 -208 -434 -208q-90 0 -229 27q-157 29 -215 69q-39 25 -39 59q0 46 32.5 92.5t76.5 46.5q5 0 17 -4 q277 -78 400 -78t188.5 43.5t96.5 157.5q22 84 22 311q-201 -209 -492 -209q-232 0 -361 151q-125 143 -125 378q0 332 138 332q31 0 52.5 -25t21.5 -56q0 -32 -10.5 -97t-10.5 -97q0 -162 89 -263t249 -101q142 0 261 74q128 78 166 208q-10 133 -10 227q0 56 30 101 q34 51 89 51q96 0 96 -227q0 -80 9 -238t9 -238z" />
<glyph unicode="&#xfe;" horiz-adv-x="1260" d="M1248 730q0 -343 -826 -462q-9 -128 -19 -167q-29 -98 -115 -98q-63 0 -63 79q0 -29 14 203q-10 19 -10 39q0 4 13 53q7 26 7 142t14 360q-34 14 -34 60q0 61 44 105q0 74 22 216q34 112 123 112q39 0 50 -63q6 -46 6 -106q0 -25 -1 -66q-2 -50 -2 -65q777 -38 777 -342z M1063 681q0 128 -599 176q-8 -197 -24 -388q145 28 345 86q278 80 278 126z" />
<glyph unicode="&#xff;" horiz-adv-x="1292" d="M1005 1753q0 -28 -10 -81.5t-10 -80.5q0 -40 -33.5 -78t-72.5 -38q-36 0 -56 42q-16 33 -16 74q0 71 33 146q41 91 102 91q63 0 63 -75zM490 1722q0 -12 -17 -89q-19 -87 -29 -107q-29 -58 -87 -58q-69 0 -69 112q0 21 19 116q24 122 113 122q70 0 70 -96zM1229 695 q0 -309 -118 -487q-138 -208 -433 -208q-91 0 -229 27q-157 29 -215 69q-39 25 -39 59q0 46 32 92.5t77 46.5q5 0 17 -4q276 -78 399 -78t189 43.5t96 157.5q22 84 22 311q-201 -209 -491 -209q-232 0 -362 151q-125 143 -125 378q0 332 139 332q30 0 51.5 -25t21.5 -56 q0 -32 -10 -97t-10 -97q0 -162 88.5 -263t249.5 -101q141 0 261 74q128 78 165 208q-10 133 -10 227q0 56 31 101q34 51 88 51q96 0 96 -227q0 -80 9.5 -238t9.5 -238z" />
<glyph unicode="&#x152;" horiz-adv-x="2400" d="M2200 241q0 -94 -99 -135q-48 -19 -135 -34q-102 -16 -136 -26q-58 -19 -115 -36q-68 -20 -119 -20q-116 0 -206 62t-119 173q-170 -208 -455 -208q-268 0 -445.5 165.5t-177.5 431.5q0 193 85 364q91 177 249 275q14 47 64 76q78 47 247 47q328 0 497 -292l3 44 q-38 12 -38 58q0 53 53 106t106 53q17 0 31 -12q51 8 452 36q147 10 159 10q63 0 63 -63q0 -80 -85 -109q-26 -9 -183 -21q-107 -8 -387 -39q-9 -103 -57 -357q171 33 412 33q85 0 85 -75q0 -91 -92 -113q-4 0 -145 -10q-96 -14 -285 -33q-7 -39 -7 -73q0 -318 212 -318 q81 0 234 51.5t235 51.5q99 0 99 -63zM1248 642q0 235 -140 373.5t-376 138.5q-44 0 -140 -58q-107 -65 -167 -177t-60 -241q0 -198 152 -328q143 -125 345 -125q179 0 285 121q101 115 101 296z" />
<glyph unicode="&#x153;" horiz-adv-x="2400" d="M2200 241q0 -94 -99 -135q-48 -19 -135 -34q-102 -16 -136 -26q-58 -19 -115 -36q-68 -20 -119 -20q-116 0 -206 62t-119 173q-170 -208 -455 -208q-268 0 -445.5 165.5t-177.5 431.5q0 193 85 364q91 177 249 275q14 47 64 76q78 47 247 47q328 0 497 -292l3 44 q-38 12 -38 58q0 53 53 106t106 53q17 0 31 -12q51 8 452 36q147 10 159 10q63 0 63 -63q0 -80 -85 -109q-26 -9 -183 -21q-107 -8 -387 -39q-9 -103 -57 -357q171 33 412 33q85 0 85 -75q0 -91 -92 -113q-4 0 -145 -10q-96 -14 -285 -33q-7 -39 -7 -73q0 -318 212 -318 q81 0 234 51.5t235 51.5q99 0 99 -63zM1248 642q0 235 -140 373.5t-376 138.5q-44 0 -140 -58q-107 -65 -167 -177t-60 -241q0 -198 152 -328q143 -125 345 -125q179 0 285 121q101 115 101 296z" />
<glyph unicode="&#x178;" horiz-adv-x="1514" d="M1103 1753q0 -28 -10.5 -81.5t-10.5 -80.5q0 -40 -33.5 -78t-72.5 -38q-36 0 -56 42q-15 33 -15 74q0 71 32 146q41 91 102 91q64 0 64 -75zM587 1722q0 -12 -17 -89q-19 -87 -29 -107q-29 -58 -87 -58q-68 0 -68 112q0 21 18 116q24 122 113 122q70 0 70 -96zM1326 695 q0 -309 -118 -487q-138 -208 -433 -208q-91 0 -229 27q-157 29 -215 69q-39 25 -39 59q0 46 32.5 92.5t76.5 46.5q5 0 17 -4q277 -78 399 -78q123 0 189 43.5t97 157.5q22 84 22 311q-202 -209 -492 -209q-232 0 -362 151q-124 143 -124 378q0 332 138 332q31 0 52 -25 t21 -56q0 -32 -10 -97t-10 -97q0 -162 88.5 -263t249.5 -101q141 0 261 74q128 78 166 208q-11 133 -11 227q0 56 31 101q34 51 89 51q95 0 95 -227q0 -80 9.5 -238t9.5 -238z" />
<glyph unicode="&#x2c6;" horiz-adv-x="986" d="M864 1606q0 -41 -29 -83t-70 -42q-50 0 -161 135q-72 91 -143 183q-41 -72 -82 -145q-51 -86 -94 -136t-85 -50q-29 0 -51.5 20.5t-22.5 49.5q0 39 115 222q99 160 148.5 221.5t88.5 61.5q43 0 214.5 -195.5t171.5 -241.5z" />
<glyph unicode="&#x2dc;" horiz-adv-x="1300" d="M1103 1700q0 -22 -18 -56q-35 -74 -115.5 -125t-160.5 -51q-63 0 -175.5 51t-176.5 51q-54 0 -119 -42.5t-85 -42.5q-69 0 -69 75q0 87 121 155q108 60 202 60q70 0 182.5 -51t162.5 -51q42 0 93.5 54.5t87.5 54.5q30 0 50 -25.5t20 -56.5z" />
<glyph unicode="&#x2000;" horiz-adv-x="1130" />
<glyph unicode="&#x2001;" horiz-adv-x="2261" />
<glyph unicode="&#x2002;" horiz-adv-x="1130" />
<glyph unicode="&#x2003;" horiz-adv-x="2261" />
<glyph unicode="&#x2004;" horiz-adv-x="753" />
<glyph unicode="&#x2005;" horiz-adv-x="565" />
<glyph unicode="&#x2006;" horiz-adv-x="376" />
<glyph unicode="&#x2007;" horiz-adv-x="376" />
<glyph unicode="&#x2008;" horiz-adv-x="282" />
<glyph unicode="&#x2009;" horiz-adv-x="452" />
<glyph unicode="&#x200a;" horiz-adv-x="125" />
<glyph unicode="&#x2010;" d="M944 773q0 -109 -99 -135q-14 -3 -173 -10q-409 -17 -370 -17q-80 0 -80 80q0 99 101 130q51 15 182 15h348q91 0 91 -63z" />
<glyph unicode="&#x2011;" d="M944 773q0 -109 -99 -135q-14 -3 -173 -10q-409 -17 -370 -17q-80 0 -80 80q0 99 101 130q51 15 182 15h348q91 0 91 -63z" />
<glyph unicode="&#x2012;" d="M944 773q0 -109 -99 -135q-14 -3 -173 -10q-409 -17 -370 -17q-80 0 -80 80q0 99 101 130q51 15 182 15h348q91 0 91 -63z" />
<glyph unicode="&#x2013;" horiz-adv-x="964" d="M768 773q0 -109 -99 -135q-34 -8 -85 -8q-45 -2 -87 -2q-26 -2 -99 -10q-63 -7 -101 -7q-80 0 -80 80q0 109 106 132q70 15 184 15q29 0 85 -2h86q90 0 90 -63z" />
<glyph unicode="&#x2014;" horiz-adv-x="1329" d="M1120 773q0 -109 -99 -135q-16 -3 -173 -10q-445 -17 -541 -17q-80 0 -80 80q0 96 84 125q41 13 163 17q118 3 186 3h369q91 0 91 -63z" />
<glyph unicode="&#x2018;" horiz-adv-x="478" d="M360 956q0 -36 -30 -74.5t-65 -38.5q-24 0 -43 36q-29 56 -56 193q-26 128 -26 201q0 34 24 63t58 29q27 0 46 -29q92 -368 92 -380z" />
<glyph unicode="&#x2019;" horiz-adv-x="490" d="M372 1289q0 -11 -7 -36q-20 -110 -82 -321q-30 -79 -99 -79q-59 0 -59 60t29.5 184.5t55.5 182.5q39 85 97 85q65 0 65 -76z" />
<glyph unicode="&#x201a;" horiz-adv-x="488" d="M372 159q0 -11 -7 -36q-20 -109 -82 -321q-30 -78 -99 -78q-59 0 -59 59q0 60 29.5 184.5t55.5 182.5q39 86 97 86q65 0 65 -77z" />
<glyph unicode="&#x201c;" horiz-adv-x="978" d="M771 942q0 -43 -34 -81t-75 -38q-37 0 -56 59q-19 77 -56 231q-29 116 -29 143q0 46 31.5 84.5t77.5 38.5q37 0 58.5 -38.5t52 -191t30.5 -207.5zM415 945q0 -37 -29 -74.5t-65 -37.5q-24 0 -43 36q-29 56 -56 193q-26 128 -26 201q0 34 24 63t58 29q27 0 46 -29z" />
<glyph unicode="&#x201d;" horiz-adv-x="975" d="M828 1292q0 -27 -17 -65q-43 -95 -135 -275q-41 -80 -92 -80q-63 0 -63 70q0 39 63 183q59 135 92 181q41 59 89 59q63 0 63 -73zM444 1289q0 -11 -7 -36q-21 -110 -82 -321q-31 -79 -99 -79q-60 0 -60 60t30 185.5t56 181.5q39 85 99 85q63 0 63 -76z" />
<glyph unicode="&#x201e;" horiz-adv-x="973" d="M828 166q0 -28 -17 -65q-43 -96 -135 -275q-41 -80 -92 -80q-63 0 -63 70q0 39 63 182q59 135 92 181q41 60 89 60q63 0 63 -73zM444 162q0 -10 -7 -36q-21 -109 -82 -321q-31 -78 -99 -78q-60 0 -60 60q0 59 30 184.5t56 182.5q39 85 99 85q63 0 63 -77z" />
<glyph unicode="&#x2022;" horiz-adv-x="1471" d="M1297 642q0 -238 -205 -388q-184 -135 -430 -135q-203 0 -341 110q-149 119 -149 317q0 222 174.5 409t394.5 187q239 0 392 -128q164 -138 164 -372z" />
<glyph unicode="&#x2026;" horiz-adv-x="1331" d="M1135 160q0 -56 -40 -110.5t-95 -54.5q-66 0 -66 73q0 55 38 114t91 59q72 0 72 -81zM770 174q0 -63 -36 -119q-39 -64 -99 -64q-31 0 -50.5 26t-19.5 56q0 58 37 120q41 70 96 70q72 0 72 -89zM418 188q0 -188 -116 -188q-73 0 -73 135q0 51 33 95.5t83 44.5 q73 0 73 -87z" />
<glyph unicode="&#x202f;" horiz-adv-x="452" />
<glyph unicode="&#x2039;" horiz-adv-x="819" d="M606 674q0 -70 -82 -124q-68 -40 -203 -120q126 -101 153 -126q108 -97 108 -149q0 -46 -29 -90q-32 -51 -77 -51q-31 0 -202.5 143t-200.5 186q-22 32 -22 56q0 60 62 116q35 33 210 137q180 106 209 106q33 0 53.5 -25.5t20.5 -58.5z" />
<glyph unicode="&#x203a;" horiz-adv-x="910" d="M869 469q0 -44 -40 -92q-49 -60 -268 -223q-230 -171 -278 -171q-56 0 -56 77q0 58 46 109q55 60 160 131q144 98 171 120q-89 48 -176 95q-111 60 -158 113q-33 36 -33 73q0 48 31.5 97t77.5 49q23 0 89 -47q46 -30 91 -63q8 -5 158 -85q96 -51 145 -102q40 -41 40 -81z " />
<glyph unicode="&#x205f;" horiz-adv-x="565" />
<glyph unicode="&#x20ac;" horiz-adv-x="1893" d="M1678 1154q0 -38 -26 -74t-61 -36q6 0 -105.5 68.5t-198.5 68.5q-147 0 -311 -92q-147 -84 -254 -207q210 11 406 11q103 0 103 -67q0 -106 -99 -138q-29 -10 -159 -12q-224 -4 -357 -12v-22q0 -69 33 -133q20 3 326 27q197 17 319 63q22 9 25 9q45 0 45 -69 q0 -90 -91 -126q-29 -12 -124 -26q-115 -15 -342 -49q166 -106 398 -106q155 0 329 65q28 10 38 10q53 0 53 -66q0 -77 -70 -128q-60 -45 -191 -72q-113 -24 -209 -24q-182 0 -343 68q-172 75 -276 212q-184 -29 -224 -29q-59 0 -59 67q0 80 61 112q38 19 133 29 q-10 46 -10 96q0 41 7 80q-130 -10 -169 -10q-72 0 -72 78q0 109 118 137q15 3 203 12q114 199 340 346q235 154 455 154q99 0 195 -43q109 -48 150 -126q14 -26 14 -46z" />
<glyph unicode="&#x2122;" horiz-adv-x="1203" d="M992 196q0 -20 -20.5 -42.5t-41.5 -22.5q-15 0 -24 23q-3 8 -20 76q-17 64 -46 190q-23 -79 -82 -229q-22 -43 -48 -43q-32 0 -34 36q-21 34 -43 123q-17 67 -34 133q-8 -68 -17 -136q-12 -82 -31 -135q-13 -39 -44 -39q-36 0 -36 37q0 60 65 393q-58 -9 -172 -22 q15 -29 15 -69q0 -30 -11 -86.5t-13 -82.5v-51q0 -85 -46 -85q-29 0 -29 94q0 131 7 274q-53 -3 -101 -3q-51 0 -51 29q0 27 18.5 47t46.5 20q66 0 195 19.5t196 19.5q54 0 49 -39q55 -128 92 -277q22 87 82 256q21 43 53 43q20 0 31 -31q10 -39 29.5 -116.5t40.5 -151.5 q24 -87 24 -152z" />
<glyph unicode="&#xe000;" horiz-adv-x="1410" d="M0 1410h1410v-1410h-1410v1410z" />
</font>
</defs>
</svg>
