<?xml version="1.0" standalone="no"?>
<!DOCTYPE svg PUBLIC "-//W3C//DTD SVG 1.1//EN" "http://www.w3.org/Graphics/SVG/1.1/DTD/svg11.dtd" >
<svg xmlns="http://www.w3.org/2000/svg">
<metadata></metadata>
<defs>
<font id="paulmaulbold" horiz-adv-x="1051" >
<font-face units-per-em="2048" ascent="1638" descent="-410" />
<missing-glyph horiz-adv-x="694" />
<glyph horiz-adv-x="2048" />
<glyph horiz-adv-x="2048" />
<glyph unicode="&#xd;" horiz-adv-x="2048" />
<glyph unicode=" "  horiz-adv-x="694" />
<glyph unicode="&#x09;" horiz-adv-x="694" />
<glyph unicode="&#xa0;" horiz-adv-x="694" />
<glyph unicode="!" horiz-adv-x="212" d="M0 1140q8 36 29.5 55.5t51.5 21.5h2q29 0 51 -17q25 -19 35 -54q-2 -31 -5.5 -71t-7 -81.5t-6 -78t-2.5 -56.5q0 -78 1.5 -133.5t5.5 -106t9.5 -103t12.5 -125.5q-2 -40 -25.5 -63.5t-55.5 -24t-57.5 20.5t-30.5 62q5 54 8.5 92.5t6.5 71t4.5 61.5t2 64t-0.5 78t-3 103 q0 7 -1.5 27t-4 46t-5.5 55.5t-6 58.5t-5.5 54t-3.5 43zM0 116q8 35 30 55t51 20.5t53.5 -17.5t34.5 -53v-18q-2 -40 -25.5 -63.5t-44.5 -23.5l-1 -1q-44 0 -68 22q-25 20 -30 60v19z" />
<glyph unicode="&#x22;" horiz-adv-x="558" d="M198 775q-2 -41 -25.5 -64.5t-44.5 -23.5l-1 -1q-44 0 -68 22q-25 20 -30 61q5 39 8.5 104t3 73t-2.5 18t-5 31q-4 29 -13 58.5t-15 60.5q-5 28 -5 54v9q1 34 21 68q36 28 71 27.5t55.5 -21.5t23 -50.5t-17.5 -55.5q-4 -30 -6 -64.5t0 -68.5q2 -29 15.5 -87t21.5 -88 t14 -62zM523 792q-2 -41 -25.5 -64.5t-55.5 -24t-57.5 20.5t-30.5 62q5 39 6.5 76.5t4.5 75.5q0 504 0.5 499t0.5 -255t0 -238.5t-0.5 19.5t-2.5 18t-5 31q-4 29 -13 58.5t-15 61t-5 64t21 65.5q35 29 69 29h2q35 -1 55.5 -22t23 -50.5t-17.5 -55.5q-4 -30 -6 -64.5t0 -68.5 q2 -29 8 -58t13 -58t15.5 -59t14.5 -62z" />
<glyph unicode="#" horiz-adv-x="964" d="M854 837q41 -12 57 -33q18 -24 18 -48v-1q-1 -26 -20.5 -47t-60.5 -30q-44 4 -84 9l-56 7q-10 -31 -21 -80q-10 -37 -17 -75.5t-10 -53.5q-5 0 19 -0.5t48 -0.5q1 0 20 1t31 2q28 15 59 8t47.5 -27.5t16.5 -49t-24 -58.5q-18 -16 -36.5 -21.5t-37 -6t-35 2t-33.5 6.5 q-6 1 -15.5 2t-20.5 4q-5 1 -8.5 2t-9.5 3l-201.5 20t201.5 20q6 0 14 -1t13 -2t-242.5 40t237.5 -80q-22 5 -42.5 8t-17.5 3q-7 -63 -10 -147.5t-2 -170.5q-2 -40 -25.5 -63.5t-56.5 -23.5h-1q-32 0 -56 22q-25 20 -30 60q9 93 24 180.5t30 153.5q9 0 -8.5 0t-35.5 -2 q-47 -4 -92.5 -11.5t-75.5 -14.5q-3 -19 -7.5 -50t-7.5 -55q-7 -54 -15 -108t-10 -111q-13 -35 -38 -51q-23 -13 -46 -13h-8q-30 4 -50.5 25.5t-25.5 56.5q14 79 32.5 155.5t30.5 121.5q12 2 -14 -3t-57 -8q-47 6 -68 32q-20 22 -20 56l1 1q0 21 23 44t69 26q24 -1 46 -1.5 t49 -4.5l121 -40l-112 40q4 17 12 49l16 64q11 46 19 94t13 76q-26 1 -78 3.5t-110 8.5q-38 17 -51 42.5t-7.5 49.5t28.5 43.5t66 20.5q53 -15 101.5 -28.5t70.5 -18.5q11 62 26.5 146t33.5 172q19 33 48 45t57 3.5t43.5 -33t14.5 -59.5q-27 -81 -53.5 -160t-43.5 -140 l23 -3.5t48 -5.5q42 -5 84 -5t67 1q24 91 52.5 196.5t60.5 213.5q19 32 48 45q17 7 34 7q12 0 24 -3q27 -9 42.5 -33.5t14.5 -60.5q-43 -97 -84 -192t-66 -166q-1 0 32 3t71 6zM336 553q-4 -21 -9 -51l-7 -42q91 5 212 20q8 1 14 1.5t-5 -1.5q7 30 17 72.5t21 85.5 q5 24 11.5 46.5t6.5 24.5q-14 2 -53 7t-79 9q-29 3 -56 5t-34 3q-8 -33 -19.5 -81.5t-19.5 -98.5z" />
<glyph unicode="$" horiz-adv-x="924" d="M513 1368q39 -27 43.5 -60t-10.5 -52q-1 -6 -1.5 -16.5t0.5 -2.5q33 -2 88 -20t110 -55q23 -31 22.5 -58t-17.5 -47.5t-48 -26t-67 11.5t-54 30t25 30h-80q68 -34 60.5 -31.5l-10.5 3.5q-30 12 -39 13q-6 -100 -9 -221t3 -244q0 -8 0.5 -15t0.5 -6q54 -37 115.5 -83 t112.5 -97t86 -108.5t43 -119.5q2 -14 2 -27q0 -45 -20 -78q-26 -44 -70 -70t-96 -37.5t-100 -13.5h-1q0 6 2.5 -10.5t4.5 -35.5q-2 -41 -25.5 -64.5t-56.5 -23.5h-1q-32 0 -56 22q-25 20 -30 59q-1 22 -1.5 43.5t-0.5 27.5q-65 12 -141 44t-150 75q-36 21 -60 53t-51 59 q-16 34 -11 61t26 44.5t52.5 18t64.5 -23.5q23 -25 41.5 -49.5t39.5 -42.5q45 -38 101 -64.5t84 -33.5q-2 88 -5 200.5t-8 218.5q-50 32 -108.5 67.5t-104.5 71.5q-22 16 -57.5 48t-70 70t-58.5 79q-22 35 -22 67q0 7 1 12q3 19 5 40t11 41q9 24 27.5 44.5t40.5 38t46 30 t45 21.5q56 21 112.5 37t93.5 21q0 4 -0.5 25.5t-0.5 45.5q6 28 19.5 44.5t42.5 26.5q13 5 26 5h12q17 -5 32 -12zM288 768q33 -29 76.5 -58.5t49.5 -33.5q-4 77 -12.5 197t-13.5 221q-24 -2 -72 -14t-92 -30q-14 -5 -31 -14.5t-31 -20.5t-21.5 -24.5t-5.5 -30.5 q3 -28 19.5 -54.5t38.5 -51t47.5 -46.5t47.5 -40zM758 180q-8 50 -32 93.5t-59.5 82.5t-79.5 74t-48 38q5 -63 18.5 -170t26.5 -200q-10 1 -0.5 0.5t20.5 -0.5q19 -1 50 2t56 11.5t39 24.5t9 44z" />
<glyph unicode="%" horiz-adv-x="1506" d="M972 524q31 29 66.5 52t63.5 31q1 6 15 20.5t34.5 21.5t43.5 2.5t47 -20.5q47 -43 83.5 -91.5t66.5 -103.5q16 -30 34 -66.5t24 -74.5q3 -18 7.5 -37.5t8.5 -39.5t5 -41v-8q0 -17 -3 -35q-11 -54 -46.5 -90t-83.5 -53.5t-101.5 -16t-100.5 20.5q-29 12 -62.5 23t-63.5 32 q-28 19 -54.5 44.5t-47.5 55t-33.5 64.5t-11.5 73q2 39 15.5 75t24.5 71q9 27 30.5 50.5t38.5 40.5zM467 1138q6 -23 4 -38q22 -31 42.5 -69.5t31.5 -88.5q5 -23 10 -47t7 -50q3 -33 0 -72.5t-16 -78.5t-38 -72.5t-68 -48.5q-26 -10 -51.5 -11.5t-49.5 -3.5 q-30 -2 -67.5 8.5t-75 30.5t-74 47.5t-64.5 59.5t-44 66q-14 27 -14 56q0 7 1 15q7 62 17 104.5t28 79t46 70.5t70 79q27 28 51 44t49.5 23t51.5 7h61q26 -8 38 -17t25 -27q8 -18 15 -33.5t14 -32.5zM1156 1294q30 -21 40 -41.5t9 -39.5t-13 -37t-31 -26q-22 -17 -45.5 -45 t-45 -57.5t-42 -60t-40.5 -55.5q-25 -35 -50.5 -70t-51.5 -70q-109 -151 -206 -305.5t-173 -324.5q-16 -36 -30.5 -73t-28.5 -74q-15 -43 -25 -87t-24 -85q9 -32 -5.5 -60.5t-41.5 -39.5q-15 -6 -31 -6q-17 0 -33 7q-33 12 -51 51q-8 29 -1.5 67.5t21 80.5t34 85t38 80.5 t34 65t21.5 38.5q90 168 192 326t202 318q23 38 46.5 74.5t46.5 73.5q18 30 38 65.5t42 71.5t47.5 70t54.5 62q24 20 45 25q9 2 18 2q17 0 32 -5q9 0 9.5 -0.5t-1.5 -0.5zM1308 285q-29 54 -61.5 101.5t-59.5 75.5q4 3 -16 -2q-31 -2 -60 -18t-53 -41.5t-40 -57.5t-19 -63 q-3 -35 12.5 -64.5t43 -54.5t59.5 -43t60 -26q22 -6 51.5 -9t55.5 3t42.5 20.5t17.5 44.5t-7.5 60t-17.5 60q-2 7 -5 13t37 32q5 -10 63 -140.5t-103 109.5zM301 1054q-18 38 -15 47q19 -1 6.5 -8.5t-26.5 -18.5q-32 -22 -66 -59.5t-55 -81.5t-23 -88t29 -81 q16 -20 43 -39.5t58.5 -33.5t61.5 -19.5t52 0t38 24t20 58.5q4 46 -3.5 85.5t-25 75.5t-41.5 70t-53 69z" />
<glyph unicode="&#x26;" horiz-adv-x="1150" d="M462 877q-3 28 4.5 47.5t17.5 28.5q6 30 -3 46.5t-26 21t-46 -2.5t-60 -27q-13 -10 -27 -20.5t-16 -12.5q35 -51 76.5 -113t72.5 -107q22 10 64 9q23 -7 33.5 -17t15.5 -31q3 -29 -14 -49.5t-23 -24.5q24 -36 59.5 -87t71.5 -103q7 -11 13.5 -20t-1.5 2q71 55 148 143.5 t144 196.5q32 26 64 27t54 -14t30 -44q1 -9 1 -19q0 -18 -8 -39q-65 -94 -136 -176t-163 -151q-17 -14 -34 -26t-18 -13q7 -10 23 -34.5t33 -48.5q11 -17 21.5 -33t-25.5 40q0 -3 28.5 -42.5t30.5 -42.5q11 -11 16 -16.5t8 -8.5t8.5 -8t53.5 -49q-31 0 -31 26q-2 2 -0.5 0 t0.5 -1q9 -9 9 -15q9 -29 0 -56t-33 -40q-20 -11 -43 -11h-11q-33 5 -61 32q-47 55 -78 114t-65 119q-8 13 -2 0q4 3 -18.5 -9.5t-46.5 -23.5q-29 -14 -50 -24t-37.5 -17.5t-31.5 -13t-32 -10.5t-38.5 -11t-53.5 -14q-15 -5 -41.5 -8t-57.5 -2.5t-62 5.5t-59 17.5t-47 34.5 t-20 54q-1 20 -4 42.5t7 46.5q11 25 22 54t30 54q11 14 28 36.5t38 48t46.5 54.5t19.5 23q8 0 -35 8.5t-76.5 33t-52 64t-16.5 98.5q1 24 8.5 51t19 53.5t26 52t22.5 36.5q-21 25 -51.5 58.5t-62.5 69.5q-12 26 -12 45q0 7 1 15q5 27 26 44.5t53 18.5h2q31 0 63 -25l80 -112 q14 14 63 46t99 42q34 7 64.5 4t58.5 -5q25 -2 40.5 -13.5t25.5 -19.5q34 -23 52.5 -63t22 -83t-7 -86t-39.5 -74q-43 -25 -80 -15t-57 53q-2 11 -5 16zM436 569q-5 7 -11 14.5t-1 0.5q-1 0 -14 -2q-6 -6 -19.5 -16t-24 -18.5t-17 -13.5t-6.5 -6q-17 -15 -39 -38.5 t-44.5 -51.5t-43 -58t-34.5 -59t-19 -54t1 -42q3 -10 15 -14t34.5 -4t50.5 5.5t54.5 13t47 14.5t28.5 11q105 44 180 94q-27 47 -63 106.5t-75 117.5zM357 678q-33 44 -75.5 97t-65.5 80l-13.5 -31t-18.5 -63q-2 -12 2.5 -26t5.5 -23q7 -5 15.5 -14.5t14.5 -11.5 q38 -8 74 -6.5t77 9.5h-5q-3 -2 -1.5 -1.5t-9.5 -9.5z" />
<glyph unicode="'" horiz-adv-x="217" d="M5 1197q8 41 35 60q24 17 51 17h8q33 -5 54.5 -29.5t19.5 -65.5q-9 -38 -21.5 -84t-20.5 -94t-5.5 -91t21.5 -73q4 -9 11 -16t18 -20q6 -20 6 -34t-4 -26q-10 -28 -34 -42q-20 -11 -42 -11q-8 0 -15 1q-30 5 -60 34q-6 16 -13.5 30t-10.5 31q-3 25 -3 49q0 25 4 51 q7 46 10 94q4 53 0 108t-9 111z" />
<glyph unicode="(" horiz-adv-x="522" d="M319 1262q32 28 66 28h5q36 -3 56.5 -23.5t22 -51t-24.5 -61.5q-32 -36 -65.5 -69.5t-61.5 -71.5q-73 -98 -123.5 -211.5t-69.5 -233t-4.5 -241t69.5 -234.5q21 -41 39.5 -71t36.5 -53.5t38.5 -43t44 -40.5t52 -44.5t65.5 -56.5q22 -28 22 -55v-1q-1 -28 -18 -48t-48 -26 q-9 -2 -17 -2q-22 0 -53 14q-52 54 -82 84t-50 50.5t-33 38t-27.5 41t-34 60t-52.5 95.5q-25 45 -39.5 101t-22 114t-9.5 115q-1 29 -1 55t1 50q3 76 15.5 159.5t36.5 166t58.5 159t80.5 139.5q32 42 63 83t64 85z" />
<glyph unicode=")" horiz-adv-x="643" d="M59 1134q-37 17 -50 44q-9 16 -9 34q0 6 1 14q6 24 29 43.5t61 20.5q6 0 13.5 -2t14 -3.5t16.5 -4t12 -4.5q21 -9 49 -34t56 -56t55 -65t50.5 -65.5t41.5 -56.5t26 -37q39 -50 69 -112t52.5 -131t36.5 -141.5t20 -145.5q5 -58 5 -114v-27q-2 -70 -11 -132 q-8 -49 -22.5 -96t-25.5 -94q-16 -59 -41 -109t-55.5 -95t-65 -88.5t-70.5 -92.5q-32 -19 -59 -19h-7q-34 4 -53 23t-22.5 46t15.5 59q37 40 72.5 76.5t64.5 77.5q81 112 123 246t41 272q0 112 -28.5 213t-78.5 192.5t-117.5 173t-102.5 114.5q0 -4 -42 39q-10 4 -19 11 t-16 12.5t-12.5 8.5t-16.5 5z" />
<glyph unicode="*" horiz-adv-x="745" d="M39 1011q-17 37 -8 66.5t35.5 45t61 8.5t60.5 -44q12 -34 35 -63.5t0 -9.5q3 -20 -2 21t-6 86q0 24 1.5 49.5t9.5 49t24.5 43.5t50.5 35h10q32 0 55 -13q23 -15 32.5 -36.5t3.5 -45t-24 -39.5q-6 -13 -9.5 -32t-11.5 -36q-7 -56 -7 -49q-3 -3 39.5 25.5t111.5 51.5 q49 3 74.5 -19.5t29 -49.5t-15.5 -53.5t-63 -35.5q-52 -4 -94.5 -21.5t-73.5 -41.5v6q30 -18 71 -38.5t81.5 -37t79 -30.5t74.5 -26q32 -23 41 -49q5 -13 5 -25q0 -13 -5 -25q-10 -24 -36.5 -39t-69.5 -10q-71 41 -132 83t-67 45q-10 34 0 9v0q19 -36 34 -71t33 -70 q11 -39 -3.5 -67.5t-41.5 -38.5q-15 -6 -31 -6q-17 0 -33 7q-33 11 -51 51q-19 72 -31.5 142.5t-16.5 93.5q-5 -5 -38.5 -58.5t-63.5 -108.5q-27 -34 -62.5 -38.5t-60.5 13.5t-31 48q-3 8 -3 16q0 23 16 50q44 49 89 91t73 67q-23 13 -65 44t-74 80zM39 1011 q374 -283 267 -176q59 -119 -267 176z" />
<glyph unicode="+" horiz-adv-x="1374" d="M626 1185h10q28 0 50 -11q22 -13 33 -31.5t9.5 -40.5t-13.5 -37q0 -76 -5.5 -154t0.5 -158q2 -29 5 -57t4 -36q23 4 71 11.5t99 15.5q6 1 17 2.5l22 3t21 3t16 2.5q9 1 25.5 1.5t-201.5 -18.5t12.5 -19t205.5 -1q-325 0 -161 20.5t165 20.5q8 1 18 3l20 4q2 1 146 49 t-118 -83l163 81q-152 -38 -125.5 -48.5t39.5 -32.5q9 -16 9 -35v-9q-4 -26 -25 -55q-28 -16 -53 -20.5t-50 -4.5t-48 1.5t-43 1.5q-38 1 -75 -1t-76 -4q-22 -2 -43.5 -3t-16.5 -1q8 -60 19 -140t19 -163q-2 -40 -25.5 -63.5t-44.5 -23.5l-1 -1q-44 0 -68 22q-25 20 -30 61 q10 163 4 300q-110 -7 -244 -21.5t-274 -37.5q-41 6 -62.5 26t-24.5 44q-1 4 -1 9q0 20 13 40q15 24 54 39q89 3 171.5 3h166.5q22 0 44 0.5t44 -0.5q32 1 64.5 3.5t42.5 3.5q-3 37 -8.5 91.5t-13.5 111.5q-3 26 -6.5 51.5t-6.5 51.5t-5.5 51t-5.5 51q-2 22 -2 40.5t6.5 35 t21.5 30t46 25.5z" />
<glyph unicode="," horiz-adv-x="457" d="M171 -379q-18 -4 -30 -4q-23 0 -40 9q-28 13 -39.5 36t-5 49.5t38.5 52.5q17 5 25 17t14 32t11 43t15 40q263 524 154.5 254t-109.5 -274t1 4t-27 8q-19 0 -18.5 2t2 16t3 29t1.5 25q3 46 3.5 88.5t8.5 7.5q28 64 24.5 55.5t-5.5 -16.5q-22 -92 -26 -120q3 -14 -2.5 -31 t-19 -31t-35.5 -21.5t-58 -2.5q0 -1 4 -1q-33 17 -45 33.5t-16 48.5q6 20 14.5 47t21 58t27 63.5t33 59t41.5 47t55 22.5h6q17 0 30 -5q16 -7 29 -27q16 -40 19 -76.5t5 -74.5q2 -30 5.5 -70.5t4.5 -83.5v-20q0 -34 -2 -70q-4 -46 -16 -87t-35.5 -76t-66.5 -56zM57 -130 q130 195 130 260.5t-130 -260.5z" />
<glyph unicode="-" horiz-adv-x="981" d="M448 556q14 -1 19.5 -1.5t11.5 -0.5q30 7 56.5 -3.5t39.5 -32.5q9 -16 9 -36v-8q-3 -26 -26 -56q-17 -7 -24 -12t-26 -7q-10 -3 -27.5 1.5t-35.5 9.5t-38.5 11.5t-81 20.5t-84 12t-42.5 -9t-30 -21q-6 -10 -11.5 -20t-14.5 -27q-33 -20 -60 -20q-8 0 -12 1 q-29 3 -48 22.5t-22 45.5q-1 4 -1 9q0 23 17 51q12 12 24 25t31 21q35 17 71 23.5t73 7.5h11q30 0 59 -2q33 -3 66 -3q23 0 47.5 -0.5t48.5 -1.5zM720.5 534.5q-225.5 -20.5 -229.5 -20.5v0q-1 40 2.5 40.5t8.5 0.5q444 0 218.5 -20.5z" />
<glyph unicode="." horiz-adv-x="259" d="M200 170q22 -30 23 -54q0 19 0.5 19t0.5 -21v-2q0 -4 -0.5 -5.5l-0.5 -1.5q0 -7 -3 -18q-3 -15 -10 -23q-5 -12 -20 -28q-19 -21 -42.5 -30t-49.5 -15l-13 -2l-10 -2h-9l-18 6l-5 5l-8 4l-7 6q-13 9 -21 35l-5 10l-2 26l3 14q4 25 17 49q14 24 39.5 42t62.5 18 q12 0 24 -5t21 -10t16 -9t17 -8z" />
<glyph unicode="/" horiz-adv-x="667" d="M464 1295l3 17q4 22 33 42l12 8l29 9l19 -1l10 -2q20 -2 33 -17l10 -11l8 -10q12 -13 12 -26v-10l-2 -19l-10 -40q-10 -37 -39 -108q-27 -71 -58.5 -140.5t-64.5 -138.5t-64 -138q-65 -149 -121 -300t-105 -306q-16 -38 -47 -53q-20 -7 -40 -10q-22 0 -35 8q-15 5 -27 23 l-6 11l-7 13l-7 24l3 11l3 18l24 52q21 48 68.5 144.5t93.5 193.5t89.5 194.5t80.5 200.5q32 89 60 177.5t35 135.5z" />
<glyph unicode="0" horiz-adv-x="911" d="M405 1222q17 6 37 4.5t-46 8.5q43 -35 27 -24t-33 25q-29 29 -30 60t18.5 53t55.5 27h9q30 0 60 -22q28 -23 55 -46.5t53 -47.5q31 -29 60 -73t54 -96.5t46.5 -110.5t38 -114.5t29 -108.5t18.5 -94q8 -54 16 -110q3 -24 3 -47q0 -35 -7 -68q-8 -45 -16.5 -90.5 t-18.5 -90.5q-6 -28 -22.5 -58.5t-40.5 -58.5t-53 -52t-61.5 -42.5t-66.5 -28.5q-29 -8 -57 -8h-11q-56 4 -111 8.5t-111 9.5q-5 1 -13.5 2t-19.5 10q-18 13 -38.5 25t-42 25.5t-41 30t-35.5 38.5q-44 64 -70.5 146.5t-34.5 168.5q-5 45 -5 89q0 42 4 83q8 85 34 154 q36 97 72 190q10 24 24.5 44.5t31 39.5t33 36t31.5 36q11 11 20 15.5t20 7.5q33 14 66.5 28t68.5 26zM741 451q2 67 -8.5 141t-30.5 149t-50 147.5t-56 117.5q-8 -3 -41.5 8.5t-51.5 46.5q2 -2 1.5 -1.5t0.5 0.5q-6 2 -15.5 5.5t-19 6t-16 3.5t-10.5 -1q-45 -14 -72 -22 t-45.5 -20t-37 -35t-46.5 -67q-29 -49 -54.5 -121.5t-40 -154.5t-14.5 -167t20.5 -157.5t61.5 -125.5t109 -77q44 -15 92.5 -18t96.5 4q61 9 103 40t69.5 78t40 104.5t14.5 115.5z" />
<glyph unicode="1" horiz-adv-x="316" d="M0 1145q8 36 29.5 55.5t51.5 21.5h2q29 0 51 -17q25 -19 35 -54q-8 -183 -3.5 -358t36.5 -354q12 -63 24 -125.5t25 -125.5q4 -19 8.5 -42t9.5 -44q0 -2 1 -5q2 -4 3 -6.5t6 -11.5q0 1 0.5 0.5t0.5 -8.5v0q1 -7 1 -14q0 -16 -6 -32q-13 -24 -36 -34q-16 -9 -38 -9 q-8 0 -16 2q-31 4 -57 31q-12 17 -18 41.5t-9.5 53t-5.5 58.5t-3 59t-1.5 53t-1.5 41q-8 79 -14 156.5t-16 155.5q-16 128 -32.5 254.5t-26.5 257.5z" />
<glyph unicode="2" horiz-adv-x="978" d="M868 149q41 -12 57 -33q18 -24 18 -48v-1q-1 -26 -20.5 -47t-60.5 -30q-80 9 -156 17.5t-149 3.5q-52 -3 -103 -14t-92 -22v0q-30 -12 -51 -18.5t-42 -14.5q-15 -3 -27 -3q-13 0 -23 3q-24 6 -38.5 18.5t-22 29t-5.5 26.5q-12 15 -16 46q0 11 2 14q12 65 72 70 q24 14 52 29t54 32q30 21 60 48t59.5 57t56 60.5t48.5 58.5q35 46 69.5 102t62 116.5t46 124.5t22.5 127t-9 123.5t-47 114.5q-21 33 -42.5 45.5t-43 12t-48 -13t-54.5 -34.5q-57 -45 -105.5 -104.5t-91 -126.5t-78.5 -138t-65 -140q-25 -30 -56 -37.5t-56.5 5.5t-36.5 39 q-8 15 -8 35q0 10 3 25q44 86 92.5 165.5t106.5 153.5q23 31 47.5 60t50.5 56q21 21 48.5 46.5t59 49t66 43.5t69.5 27q17 3 35 3q14 0 29 -2q26 -4 51 -6t39 -19q10 -9 22.5 -18.5t26 -20.5t26 -24.5t18.5 -32.5q14 -35 26.5 -71t24.5 -72q8 -20 10.5 -44t2.5 -47t-1 -43.5 t-1 -35.5q2 -49 -9 -97.5t-29 -94.5q-16 -40 -30.5 -81.5t-35.5 -82.5q-39 -81 -95 -163t-117 -149q-22 -24 -59 -62.5t-36 -37.5q-22 -1 20 0t84 4q79 6 158 17.5t165 20.5z" />
<glyph unicode="3" horiz-adv-x="736" d="M88 1053q-47 6 -68 32q-20 22 -20 56l1 1q0 21 23 44t70 26q37 -4 71 -6t89 -14v4q-10 0 7.5 -0.5t33 -1t27 -1t13.5 -0.5q59 5 122 21.5t127 31.5h11q32 0 53 -14q23 -16 30 -34q19 -15 23 -48v-8q0 -28 -24 -58q-30 -25 -53.5 -56t-42.5 -67t-34.5 -74.5t-22.5 -60.5 q24 -6 64 -42q33 -31 55 -70.5t36 -80.5q18 -49 21 -95q1 -14 1 -28q0 -32 -5 -64q-7 -46 -21.5 -90t-31.5 -90q-12 -33 -30.5 -66t-45.5 -61l-41 -41t-42 -40q-23 -22 -53 -34t-56 -24q-39 -20 -79 -20q-26 0 -26 1q-13 0 -49.5 11t-68 26.5t-65.5 29.5q-28 28 -32.5 55 t9.5 49.5t43 33.5t69 -1q27 -16 48.5 -31.5t43.5 -23.5q33 -10 65.5 -4.5t64.5 24t60.5 48.5t52 64.5t39.5 70.5t22 67q5 25 7 49.5t-1 49.5q-2 24 -11.5 57t-25.5 63.5t-37 49.5t-23 20q6 13 5.5 8.5t-4.5 -14.5q-22 -26 -47 -35t-44 -5q-16 -3 -36.5 4t-34 21.5t-18.5 35 t0 46.5q15 28 34.5 45.5t36.5 24.5q22 33 45 70.5t42 77.5q16 36 27.5 73.5t16.5 50.5q-16 1 -64.5 3t-93.5 -1q-62 -5 -125.5 -18t-132.5 -23z" />
<glyph unicode="4" horiz-adv-x="954" d="M514 752q8 36 30 56t51 20.5t53.5 -17.5t34.5 -54q-5 -49 -11 -95.5t-11.5 -93.5t-9.5 -93t-3 -92q0 -44 3 -66q21 3 62 14t78 33q44 17 76.5 4t44.5 -39q7 -15 7 -31q0 -11 -2 -22q-10 -32 -48 -54q-65 -22 -119 -25t-77 -2q5 -23 20 -70.5t34 -97.5q-1 -37 -19.5 -59.5 t-46.5 -28.5q-10 -2 -17 -2q-21 0 -40 11q-27 13 -43 48q-12 65 -15.5 118.5t-4.5 91.5q5 -1 -11.5 -0.5t-34.5 1.5q-56 2 -103 0t-91.5 -8.5t-88.5 -19.5t-96 -36q-39 -8 -66 4t-39 33q-11 16 -11 36v8q3 26 13 35q-6 10 -3.5 34t143.5 185q-79 -158 -79 -161t40 178 q-91 -182 -91 -181t2 4q3 13 7 25t13 26q64 94 129.5 184t121.5 186q60 100 111.5 201.5t107.5 207.5q32 27 64 28h5q28 0 49 -14q22 -16 29 -42.5t-6 -60.5q-44 -59 -86 -115.5t-83 -114.5t-78.5 -117.5t-70.5 -121.5q-38 -75 -75.5 -148.5t-75.5 -148.5l13 25 q6 1 56.5 0.5t102 -3l103 -5t76.5 -1.5v25v46q-2 93 -9 185t-15 187z" />
<glyph unicode="5" horiz-adv-x="929" d="M871 1213q19 -18 23 -46q-2 -38 -16 -53q-19 -26 -46 -32l-19 -3l-32 1q-30 0 -89 3.5t-115 -1.5q-47 -4 -93.5 -12.5t-79.5 -14.5q-11 -28 -28.5 -65.5t-32.5 -76.5q-13 -35 -21.5 -69.5t-8.5 -33.5q-11 -5 23.5 6t73.5 1q35 -9 70 -19t70 -26q40 -19 69.5 -45.5 t53 -57.5t42.5 -63.5t38 -65.5q10 -17 15.5 -36t8.5 -37.5t5.5 -36.5t5.5 -35q4 -19 2.5 -37t-5 -35.5t-8 -34t-7.5 -33.5q-2 -8 -6.5 -15t-9.5 -12q-20 -25 -40.5 -51t-42.5 -52q-18 -21 -43.5 -35t-52.5 -23t-55.5 -15t-52.5 -10q-49 -8 -97 -10q-38 -2 -76 -2 q-11 0 -20 1q-45 0 -92 1.5t-96 0.5q-45 6 -66 32q-20 22 -20 56l1 1q0 21 23 44t69 26q48 -3 101.5 -10.5t109.5 -12.5t110 -4.5t100.5 12.5t83.5 37.5t61 72.5q19 38 18 81.5t-17 88.5t-44.5 86t-64.5 71.5t-75 47.5t-76 15q-21 -2 -44 -12.5t-47 -18.5q1 1 -4 -3l-5 -4 l-2 -4q-12 -33 -38.5 -49t-55 -12t-48.5 25.5t-25 55.5q0 10 -2 7q-9 17 -1 53q26 59 56.5 114t51.5 112q11 35 18 73.5t10 69.5q-11 14 -11.5 38t11.5 41q7 27 27 45t46 21t49 -9.5t30 -25.5q17 -1 62 -6t69.5 -7t95.5 15.5t150 40.5l27 -2q32 -3 51 -22z" />
<glyph unicode="6" horiz-adv-x="665" d="M125 524q-4 28 1 45v2q4 9 6 13t4 7q11 24 20.5 47t35.5 51q51 57 110.5 78.5t117.5 10t106 -52t77 -104.5q20 -42 25 -94q2 -21 2 -44q0 -31 -4 -64q-7 -56 -25 -113.5t-46 -110t-64.5 -97.5t-83 -74t-99.5 -39q-21 -5 -43 -5q-35 0 -73 12q-68 20 -107.5 58t-59 87 t-23.5 105q-2 32 -2 64q0 24 1 49q3 69 16.5 154t35 170.5t48.5 165t59 137.5q21 37 39 76.5t46 76.5q20 27 45.5 47t48.5 39q20 18 45 23q17 4 35 4h9q21 -1 40 -4.5t39 -5.5q38 -12 55 -35t16.5 -47.5t-20 -46t-61.5 -31.5q-24 4 -43 7t-26 4q-9 -8 -28 -20t-31 -28 q-53 -64 -95 -149t-74 -179t-51.5 -188.5t-27.5 -177.5q-4 -45 -4.5 -86.5t10 -75.5t33.5 -58t67 -37q27 -7 52 -1.5t49.5 21t46 38.5t37.5 46q28 41 46.5 87t26.5 95t4.5 98t-19.5 95q-8 22 -22.5 37.5t-31.5 22t-34.5 5t-34.5 -15.5q-10 -6 -15.5 -12.5t-10.5 -13 t-10.5 -15t-10.5 -16.5q0 -10 -6 -25.5t-12 -29.5q-19 -22 -41 -31.5t-45 -6.5t-40.5 17.5t-30.5 39.5v-1z" />
<glyph unicode="7" horiz-adv-x="814" d="M779 1105q-1 -27 -12 -45.5t-24 -26.5q-47 -87 -87 -197t-64 -226.5t-30.5 -232.5t9.5 -219q5 -23 11.5 -47t13.5 -50q-1 -36 -19.5 -58.5t-46.5 -28.5q-10 -2 -17 -2q-21 0 -40 11q-27 13 -44 48q-3 31 -9 60.5t-5 60.5q4 112 21.5 216.5t37.5 213.5q7 37 11.5 63.5 t8.5 47.5t7.5 39.5t7.5 39t10 46.5t14 63q8 32 16 63.5t17 62.5q4 19 9 36.5t2 10.5q10 0 -10 0.5t-39 -0.5q-61 -3 -111 -12t-95.5 -26t-89.5 -44t-92 -66q-39 -24 -74 -16t-52 33q-14 18 -14 42q0 5 1 11q4 31 38 58q70 34 140.5 57t141.5 40.5t142.5 32t135.5 30.5 q20 17 61 18q6 -1 13 -1t15 -3q23 -7 38.5 -21t19.5 -24q10 -6 18 -19t15 -33v-6z" />
<glyph unicode="8" horiz-adv-x="703" d="M35 1104q39 27 63.5 44t43 26.5t37 14t43.5 6.5t63 4.5t69 6.5l9 -19q-17 36 -8 65t35 45q20 11 42 11q9 0 20 -1q35 -8 60 -43q21 -35 43 -70t42 -70q7 -11 7.5 -24t-1.5 -24q-8 -58 -18 -116q-3 -13 -8.5 -21t-12.5 -17q-29 -34 -45 -53.5t-27 -31.5t-20 -20.5 t-23 -19.5t-36.5 -27.5t-61.5 -46.5q-3 -2 -5.5 -4t12.5 8q45 -44 106 -101.5t118 -118.5q20 -21 37.5 -46t30 -53t16.5 -58q2 -12 2 -24q0 -20 -4 -38q-8 -40 -32 -65.5t-54 -40.5t-63 -23.5t-62 -14.5t-66 -6q-14 0 -27 1q-54 2 -108 15.5t-101.5 39.5t-68.5 68 q-9 20 -23.5 39.5t-27.5 41t-22 45t-5 50.5q4 36 8.5 73t17.5 73q10 24 25.5 46.5t35 44t41.5 41.5t28 26q-5 4 -22 21t-31 34q-26 29 -53.5 61t-40.5 73q-9 30 -9.5 58.5t-3.5 58.5q5 21 11.5 32t23.5 24zM388 534q-29 27 -68.5 62t-63.5 56q-11 -8 -40 -33.5t-49.5 -53.5 t-31 -58.5t-5.5 -65.5q10 -61 38 -101t67.5 -63t90 -31.5t105.5 -3.5q22 2 48.5 10t44.5 22t25.5 33t-5.5 47q-11 26 -29 50t-39.5 47t-44 43.5t-43.5 39.5zM441 1071q-1 4 -3.5 9t14.5 -23q4 5 -36 -4q-58 -5 -112 -5.5t-105 -10.5q-11 -3 -24 -14t-20 -15q0 -4 -1 -16 t2 -20q13 -27 30.5 -51t36.5 -48q14 -17 28.5 -33t13.5 -15q-19 -13 -14 -8q15 13 37.5 30.5t46 38.5t47 45t39.5 48t22 47t-2 45z" />
<glyph unicode="9" horiz-adv-x="728" d="M370 876q8 39 35.5 58.5t59.5 16t53.5 -28.5t19.5 -66q-9 -40 -14 -69.5t-15 -55.5t-28 -51t-52 -54q-31 -27 -72.5 -38.5t-85 -9.5t-85 16t-76.5 37.5t-60 55.5t-32 73q-5 31 -12 62q-6 27 -6 57v8q2 63 19.5 119t49 102t74 80t96.5 51q39 11 82 11q14 0 29 -1 q60 -6 123 -37q35 -17 57.5 -33.5t41 -35.5t34.5 -41t37 -50q22 -27 33 -62t15 -70q2 -22 2 -43q0 -15 -1 -29q-3 -36 -9 -66q-15 -76 -51.5 -154t-84 -151.5t-101.5 -141t-104 -122.5q-35 -40 -70.5 -79.5t-72.5 -80.5q-31 -19 -58 -19q-8 0 -12 1q-29 3 -48 22t-22.5 46.5 t16.5 59.5q40 38 77.5 76t72.5 73q50 51 102.5 109t99 120.5t81.5 129.5t51 137q12 48 7.5 95.5t-22.5 89.5t-49.5 75t-75.5 55q-48 24 -90.5 22.5t-77 -21t-62 -56t-42.5 -81.5t-14.5 -94.5t18.5 -94.5q10 -25 31 -44.5t46 -28.5t49.5 -7t44.5 19q17 14 25 28t12 29.5 t5.5 35.5t5.5 46z" />
<glyph unicode=":" horiz-adv-x="266" d="M153 201q1 -1 -10 -1q16 1 28 -2.5t29 -16.5q6 -9 12 -16t10 -17q4 -8 5 -18.5t1 -20t-0.5 -17t-0.5 -10.5q-1 -50 -36 -75q-30 -22 -69 -22h-5q-7 -2 -17 -2q-21 0 -39 11q-25 13 -38 40q-18 25 -22 57q-1 7 -1 14q0 23 9 44q12 28 41.5 45.5t74.5 7.5q8 -1 10 -1h18z M66 795q21 19 48 24q8 1 16 1q15 0 31 -4q23 -9 39 -25t22 -35q9 -20 9 -38q0 -7 -1 -14q-6 -26 -23.5 -39t-30.5 -15q-12 -10 -34.5 -14.5t-43 3t-35.5 23.5t-20 40q-6 21 -1 35q-2 11 3 27t21 31z" />
<glyph unicode=";" horiz-adv-x="408" d="M89 -341q-42 6 -63.5 26.5t-24.5 43.5q-1 4 -1 10q0 20 13 39q15 25 53 39q26 3 32.5 4.5t11 4.5t14.5 9t42 15h-4q6 5 17.5 14.5t24.5 21.5q8 9 21 24t19 26q6 16 7.5 19t1.5 14q1 4 25.5 11.5t24.5 -274.5q-52 285 -53.5 296.5t-5.5 17.5q-4 7 27 -10q0 9 -14.5 -19.5 t-40 -47.5t-60 -22.5t-66.5 23.5q-19 16 -27 35.5t-10 41.5q-3 43 20.5 72.5t60 42.5t77 11t73.5 -19q31 -17 49 -45.5t26 -57.5q5 -19 12 -40q2 -13 2 -25q0 -11 -2 -23q-9 -41 -29.5 -80.5t-50 -74t-65.5 -63t-75 -45.5q-16 -7 -30 -9t-32 -6zM90 693q-2 23 1.5 39 t11.5 27q9 20 28 36t39 20l8 4t19 8h11q32 0 56 -14q24 -16 32 -37.5t1.5 -45.5t15.5 -7q8 0 -21 -19t-34 -22q2 1 7 7q-2 -11 -8 -19q-19 -29 -44 -38.5t-48.5 -2t-42 24t-32.5 39.5zM228 722q-62 -83 -12.5 -53t53.5 33q0 1 -0.5 0t-0.5 45q-42 -28 -40 -25z" />
<glyph unicode="&#x3c;" horiz-adv-x="1050" d="M61 550q-34 16 -47 38q-14 19 -14 40q0 8 1 9q0 16 16 36t37 26q27 31 66 56t81 44.5t83.5 35.5t79.5 34q91 44 179 92t186 93h10q33 0 58 -15q25 -17 32.5 -41t-3.5 -50t-45 -46q-124 -31 -238 -70.5t-218 -106.5q-30 -19 -58.5 -38.5t-34.5 -25.5q66 -32 146.5 -84 t163.5 -104q112 -70 224 -136.5t226 -142.5q23 -30 23 -56v-1q-1 -28 -18 -48.5t-48 -26.5q-9 -1 -17 -1q-22 0 -52 13q-91 81 -185 159t-195 143.5t-209.5 111.5t-229.5 62z" />
<glyph unicode="=" horiz-adv-x="1060" d="M950 558q41 -12 57 -33q18 -24 18 -48v-1q-1 -26 -20.5 -47t-60.5 -30q-107 9 -208 18.5t-202 4.5q-96 -5 -189 -25.5t-185 -53.5q-15 -3 -28 -3q-28 0 -48 13q-28 16 -36 42.5t5.5 54.5t55.5 45q78 14 151 19t147 7q33 1 64.5 -0.5t61.5 0.5q103 10 205.5 19.5 t211.5 17.5zM88 696q-47 6 -68 32q-20 22 -20 56l1 1q0 21 23 44t70 26q106 -11 206.5 -18.5t241.5 4.5q4 1 21.5 4t81 12.5t131.5 22.5h10q38 0 63 -20q24 -22 27.5 -49t-15.5 -53.5t-65 -35.5q-91 2 -179.5 7t-175.5 2t-174.5 -14.5t-178.5 -20.5z" />
<glyph unicode="&#x3e;" horiz-adv-x="1103" d="M61 907q-39 18 -52 45q-9 16 -9 34q0 6 1 14q6 24 29 43.5t64 20.5q35 -6 69 -10.5t67 -18.5q45 -20 87.5 -42.5t82.5 -46.5t79.5 -49.5t80.5 -51.5q56 -36 110 -67t108.5 -59t111.5 -52.5t123 -46.5q31 -22 40 -46q14 -20 15 -42v-2q0 -22 -12 -39q-12 -18 -36.5 -29.5 t-62.5 -6.5q-19 10 -30.5 17.5t-21.5 9.5q-10 1 -26.5 -2t-35 -10t-36 -14.5t-28.5 -13.5q-47 -23 -89 -54t-82.5 -66t-81 -72.5t-82.5 -71.5q-19 -15 -39 -26t-43 -26q-19 -4 -31 -4q-23 0 -40 9q-28 12 -39.5 35t-5 49.5t36.5 51.5q94 40 177 93.5t163 112.5 q14 10 32.5 24t40 30t45.5 32.5t22 15.5q-49 32 -122 87t-148 102.5t-153.5 84.5t-164.5 51q-26 5 -53 5t-61 2z" />
<glyph unicode="?" horiz-adv-x="684" d="M163 1113l1.5 -8.5t2.5 -13.5q19 -17 24 -41.5t-6 -46t-37 -35t-65 -8.5q-46 21 -63 55.5t-19 73.5q-1 8 -1 18q0 29 6 57q8 36 19 66q11 26 33.5 48.5t44.5 35.5q41 24 94 25h3q48 0 100 -14q51 -14 103.5 -39.5t97 -56t79.5 -65.5t51 -68q17 -32 18 -64v-6 q0 -28 -8 -55q-9 -29 -26.5 -56t-38.5 -50q-36 -42 -74 -81.5t-74.5 -80t-69.5 -83t-59 -89.5q-6 -10 -14 -26.5t-14.5 -34t-9.5 -34t1 -29.5q4 -14 15 -28t22 -33q10 -34 0.5 -60t-34 -40.5t-56 -9.5t-55.5 29q-4 5 -13 19.5t-18.5 33.5t-17 39.5t-6.5 35.5q3 25 4.5 53 t14.5 54q41 84 96 151.5t122 134.5q20 20 42 40.5t41 39.5q14 14 37.5 34t43.5 41.5t31 44.5t6 43q-6 20 -25.5 42t-48 42.5t-63.5 38.5t-69.5 31t-64.5 19t-49 4q-19 -1 -27.5 -7t-13.5 -17t-7.5 -29.5t-5.5 -39.5zM375 155q1 -3 3 -6q-1 1 4 -4t3 -2q12 -2 27 -16.5 t20.5 -33t0.5 -39t-24 -45.5q-21 -9 -36 -15.5t-26 -7.5q-9 -6 -20.5 -10.5t-25.5 -7.5q-10 -2 -19 -2h-8q-15 2 -33 5q-29 6 -43.5 26t-18.5 43t-1.5 47t10.5 47t21 42.5t30 30.5t32.5 11.5t33.5 1.5q34 -9 48.5 -23.5t21.5 -41.5z" />
<glyph unicode="@" horiz-adv-x="1659" d="M674 230q-20 -4 -36 -3t-10 -1q-39 -50 -89.5 -113t-107.5 -128q-36 -22 -67.5 -18.5t-50.5 22t-22.5 46t16.5 59.5q113 101 218 204t189 224q3 5 13.5 20t24 35t28 42t26 41t18.5 31t7 13q0 -89 22 -50t20.5 34.5t-27.5 -73.5t-26 72q5 21 16 39.5t19 33.5 q19 35 38.5 62.5t50.5 45.5q-4 -4 -1 1q27 21 51.5 26t46.5 -2.5t35 -24.5t16 -38q7 -22 -4 -47.5t-36 -41.5q-6 -6 -12.5 -15t-13.5 -20q-31 -49 -47 -105.5t-18 -72.5q-4 -3 35 26t84 54q44 17 76.5 4t44.5 -38.5t3.5 -55.5t-47.5 -52q-58 -16 -111.5 -35t-91.5 -38 q-1 -51 4 -112t9 -98q16 2 54 8.5t73 22.5q69 28 108.5 75t56 106.5t12 126t-24.5 132.5t-52.5 125t-70.5 104q-84 96 -183 141.5t-202 45t-205.5 -44.5t-193.5 -129q-75 -69 -123 -152.5t-73 -182.5q-25 -94 -26 -194.5t23 -195.5q13 -47 31 -92.5t44 -87.5 q24 -42 53.5 -80t64.5 -71q62 -57 133.5 -97.5t151.5 -57.5q85 -18 175 -15t177.5 25.5t169 61.5t150.5 92q40 30 62.5 52t39.5 44t35 50t49 73q31 26 63 27t54 -14t30 -44q1 -9 1 -19q0 -18 -8 -39q-31 -44 -52.5 -75t-44 -58t-51 -53t-72.5 -58q-69 -50 -146 -88.5 t-159.5 -63.5t-167.5 -36q-68 -9 -135 -9h-36q-42 3 -85.5 6t-85.5 18q-46 16 -76 27t-51.5 20.5t-39.5 20t-39.5 26.5t-51 38.5t-76.5 56.5q-50 37 -88.5 89t-60.5 109q-25 63 -43.5 109.5t-31.5 91.5t-19 95q-4 38 -4 87v34q1 70 9 121t23 96t35 90.5t47 108.5 q24 56 62 107t88 87q90 67 181 132q59 42 133.5 61t152.5 19q76 0 150.5 -16.5t134.5 -46.5q71 -35 136 -92t118.5 -128t91 -152t53 -165.5t4.5 -168.5t-55 -160q-17 -28 -39 -51t-45.5 -43t-48 -38.5t-46.5 -38.5q-15 -12 -24.5 -14t-21.5 -4q-45 -10 -89 -19t-72 -15 q-2 -18 -21 -38.5t-46.5 -25t-53 9t-31.5 26.5q23 0 22 -0.5t-12 -0.5q-39 6 -60.5 26t-25 44.5t12 48.5t52.5 38q9 2 14.5 2.5t-8.5 -2.5q4 40 7.5 94.5t4.5 65.5q-4 -2 -51 -36.5t-108 -57.5zM744 379q-2 -3 -5 -6.5t51 50.5q-49 -15 -14.5 -1.5t65.5 31.5q4 3 6.5 4 t-5.5 -5q0 -6 0.5 -3.5t0.5 3.5q2 34 4.5 65.5t-2.5 -19.5q48 63 42.5 56.5t-11.5 -13.5q-32 -41 -67 -81t-65 -81z" />
<glyph unicode="A" horiz-adv-x="1101" d="M321 364q-38 4 -32 0q8 16 1.5 3.5t-13.5 -26.5q-34 -68 -64.5 -136t-47.5 -145q-15 -38 -45.5 -53t-61 -6t-47.5 38q-11 17 -11 41q0 11 3 24q22 60 52 115t63.5 108t68.5 104t68 102q24 37 44 77t42 79q44 79 86 158t86 162q21 17 32 20q5 11 23.5 22.5t41.5 13.5h3 q22 0 42 -12q20 -10 37 -34q33 -90 64.5 -175.5t55.5 -146.5q15 7 58 24.5t92 36.5q42 1 67.5 -15.5t33.5 -40.5q3 -10 3 -20q0 -14 -6 -29q-12 -27 -47 -48q-49 -8 -92.5 -15t-63.5 -12q-1 3 5.5 -13t13.5 -32q29 -71 52 -130.5t42 -117t34 -119.5t26 -141 q-2 -41 -25.5 -64.5t-56.5 -23.5h-1q-32 0 -56 22q-25 20 -30 59v66t-1 50.5t-4.5 49t-10.5 62.5q-16 86 -44 165t-54 137q-2 -1 -25.5 -8.5t-46.5 -17.5q-30 -14 -75.5 -38.5t-95 -49t-97 -45.5t-86.5 -25zM597 842q-43 -60 -108.5 -153t-99.5 -150q-47 -12 -37 -9.5 t17 3.5q31 8 62 17t62 16q19 -37 15.5 -38.5t-9.5 -3t-19 16t-10 18.5q65 18 126.5 43t104.5 44q-23 47 -56.5 108t-47.5 88z" />
<glyph unicode="B" horiz-adv-x="1123" d="M113 165q14 1 26.5 -1.5t-73.5 29.5q-26 26 37 -5.5l65 -32.5l42 -21t4 -20q-39 39 -46 39q13 -3 22 -4.5t27 -3.5l6 -6l-4 4h-17v-39q18 0 13.5 1t-169.5 1q161 40 171 42.5t-14 13.5q1 18 2.5 69.5t1.5 78.5q-4 0 -28.5 14.5t-34.5 36t-3.5 48t34.5 48.5q11 9 19.5 15 t8.5 7q-1 13 -2 35t-3 44q-9 111 -25.5 220t-20.5 145q32 55 23 41t-18 -29q-27 -33 -62.5 -37.5t-60.5 13.5t-31 48q-3 8 -3 16q0 23 16 50q31 37 63.5 77.5t70.5 77t85 63.5t106 34q19 2 40 6.5t44 8.5t46 5h7q22 0 43 -6q33 -9 72 -19.5t77.5 -27.5t72 -43.5t52.5 -66.5 q17 -35 24.5 -72t16.5 -72q10 -41 -4 -88t-40.5 -93t-59 -89.5t-36.5 -48.5q3 0 59.5 -7t109 -22.5t95.5 -41.5t67 -62q18 -28 29.5 -45t19 -29.5t10 -23.5t2.5 -25t-2 -34.5t-4 -52.5v-12.5t-7 -16.5q-19 -29 -38 -63t-52 -58q-64 -50 -138.5 -77.5t-152.5 -43.5t-157 -24 t-150 -17q-10 -2 -21.5 -3.5t-10.5 -1.5q-4 -10 -21.5 -23t-41.5 -15h-8q-16 0 -32 6q-21 8 -27 15q-31 -3 -77 1t-78 29q-18 19 -25 38.5t-3 39t19.5 35.5t44.5 28h7zM329 375q7 -54 15.5 -115.5t12.5 -103.5q-2 0 11 0q46 3 104 4.5t119 6.5t121.5 15.5t111.5 30.5 t89.5 51.5t59.5 77.5q7 16 7 35t-5 36q-11 36 -39 60.5t-64 41t-76.5 24t-74.5 8.5q-70 1 -122.5 -10.5t-97.5 -35.5t-88 -57.5t-84 -68.5zM308 559q-17 -14 -4 -3t25.5 19t24 13.5t27.5 11.5t38.5 13.5t41.5 14.5q0 12 17 40q47 48 93.5 90t81.5 91q43 60 52 119.5t-12 106 t-68.5 75t-118.5 30.5q-64 2 -123.5 -18.5t-92.5 -48.5q5 -5 17 -41q-6 -129 -8 -255t9 -254q1 -12 2 -23.5t-2 19.5zM150 159q-1 1 0.5 1t454.5 -226q-471 188 -222 146.5t-233 78.5z" />
<glyph unicode="C" horiz-adv-x="1296" d="M881 983q-27 3 -44 13.5t-26 21.5q-6 5 -11 10.5t-11 9.5q-18 14 -40 22.5t-47 15.5q-45 12 -91 23t-90.5 16t-89 1.5t-87.5 -18.5q-44 -16 -83 -45t-65 -71q-17 -27 -31.5 -68t-25.5 -90t-18 -102t-9.5 -103.5t0.5 -94t11 -75.5q13 -42 24 -83.5t32 -77.5 q26 -44 62.5 -72.5t79.5 -43.5t92 -19.5t98 -1.5q81 6 160 26t157 48.5t154.5 62.5t152.5 69q42 16 74.5 3t44.5 -39q7 -15 7 -31q0 -11 -2 -22q-10 -32 -47 -53q-62 -25 -125.5 -50.5t-128.5 -48.5t-132 -41.5t-133 -26.5q-33 -4 -78 -10.5t-92 -10.5q-33 -3 -65 -3 q-16 0 -32 1q-49 2 -88 18q-42 17 -68.5 27t-46.5 19.5t-34 19.5t-29 25t-34 38t-48 58q-21 25 -33 58.5t-19.5 69.5t-11.5 72t-7 67q-5 51 -6 112q-1 14 -1 29q0 49 4 98q5 64 17.5 128.5t36.5 122.5t62 107t94 81q67 39 131 57t129 21h28q50 0 102 -7q64 -9 135 -25 q45 -10 95.5 -28t82.5 -50l5 -2q23 -16 31 -30t18 -37q-2 -38 -19.5 -60t-59.5 -31h-11z" />
<glyph unicode="D" horiz-adv-x="1598" d="M683 19q-10 20 -11 38.5t5.5 34t19 27.5t7.5 10q2 -4 1 12q8 129 15 255t2 253q-5 126 -18.5 251t-24.5 253q8 37 -22 13q21 2 -32 -9t-106 -27q-66 -20 -130.5 -43.5t-122.5 -59.5q-33 -21 -63.5 -46.5t-62.5 -56.5q-35 -21 -66.5 -17.5t-50.5 23t-22 45.5q-1 4 -1 9 q0 23 17 51q76 65 157 110.5t168 77t179 50t185 27.5q30 3 63.5 5.5t68.5 3.5h8q31 0 60 -3q36 -5 67 -16q32 -10 67.5 -18t71 -17t70.5 -24t65 -40q44 -37 86.5 -74t85.5 -75q24 -20 45 -52.5t38 -71.5t30 -81t20.5 -83.5t9.5 -78.5q1 -10 1 -19q0 -28 -5 -49 q-11 -51 -22.5 -102t-23.5 -103q-8 -30 -27.5 -66t-46 -73t-59.5 -72.5t-67 -66t-68.5 -53.5t-65.5 -34q-59 -19 -118 -36.5t-119 -35.5q-26 -8 -62 -10q-14 -2 -28 -2q-21 0 -44 3q-39 4 -73 18.5t-51 44.5zM874 146q-1 -23 -9 -40.5t20 5.5h-52q18 -1 32.5 -2t29.5 0 q57 2 113 17.5t109 39.5q67 29 123 76.5t97 107t66.5 129t31.5 143.5q5 47 1.5 94t-15.5 92q-58 203 -245 297q-97 49 -191.5 65.5t-124.5 14.5q-39 23 -29 9t17 -35q-8 -129 -14.5 -254.5t-1.5 -251.5q5 -127 18.5 -252.5t23.5 -254.5z" />
<glyph unicode="E" horiz-adv-x="972" d="M566 654q24 -33 20 -63t-27 -50t-58.5 -19t-67.5 33q-3 5 -1 3.5t1 -1.5t-11.5 -1.5t-29.5 -1.5q-34 0 -66.5 -6.5t-48.5 -12.5q-1 -87 2 -186.5t7 -185.5q45 -10 108 -20.5t126 -12.5q82 -2 168.5 8.5t173.5 18.5q41 -12 57 -33q18 -24 18 -48v-1q-1 -26 -20.5 -47 t-60.5 -30q-87 9 -172 19.5t-168 12.5q-62 2 -125 -0.5t-105 -3.5q-4 -18 -29 -36q-22 -18 -50 -18h-3q-31 2 -54 23t-28 58v-5q-10 8 -18.5 26t-7.5 36t13 36t23 23q7 79 16 170t12 143q19 10 0 0t-42 -24q-43 -9 -71 4t-39 37q-8 14 -8 30q0 9 2 19q7 26 39 53 q41 9 75.5 16t49.5 9q0 1 -0.5 17t-0.5 33q-2 80 -10.5 160.5t-18.5 150.5q-10 3 -23 19.5t-16 34.5t4 38t19 28q-1 20 8.5 47.5t44.5 46.5q30 12 55.5 8.5t42.5 -17.5t24.5 -33t8.5 -11q12 1 56.5 5t88.5 10q73 11 145.5 25t153.5 25q42 -13 59 -36t16.5 -47.5t-20 -46 t-61.5 -30.5q-73 8 -142 14.5t-134 -3.5q-5 0 -17.5 -3t-28 -7t-33 -9t-25.5 -7l1 1q-27 -13 -49.5 -21t-30.5 -11q1 -41 3 -95t0 -108q0 -11 -1 -32t-2 -46.5t-2 -53t-1 -25.5q-17 -4 -2 -0.5t30 7.5t41 13t56.5 17t63 10.5t55.5 -9.5q6 -3 11.5 -7l11 -8t10.5 -8.5t9 -7.5 z" />
<glyph unicode="F" horiz-adv-x="1007" d="M511 697q49 3 74.5 -19.5t29 -49.5t-15.5 -53.5t-67 -36.5q-21 5 -42.5 4t-39.5 7h7q-14 -2 -9 -1q4 -121 11 -256.5t15 -275.5q-2 -40 -25.5 -63.5t-56.5 -23.5h-1q-32 0 -56 22q-25 20 -30 59q7 132 10.5 260t3.5 214q22 16 7 -5q124 187 44.5 107.5t-74 -74.5t42 32 t12.5 -44q-7 -14 -16.5 -21t-17.5 -16q-41 -25 -76 -17t-52 32t-13 54.5t39 58.5q63 20 103 30q-1 91 -4.5 194.5t-9.5 208.5q-2 27 -3 54.5t-1 26.5q-22 -8 -75 -27.5t-109 -45.5q-46 -9 -75.5 8.5t-37.5 45.5q-3 9 -3 19q0 17 9 34q13 28 54 45q63 16 124 29t102 21 q0 3 -1 24t3.5 42t16.5 40.5t39 34.5q24 9 43 9q13 0 25 -3q30 -9 45 -30t14 -47t-19 -45q-1 -4 -27.5 -83t-26.5 77l-1 4t-59 -113l106 106q0 2 0 -4t0 10q11 2 49.5 5.5t78.5 6.5q50 4 105 9.5t109 -6.5q17 -3 33 -7t30 -9q17 -5 -49 14.5t69 -61.5q-5 3 -70 68 q88 -29 96 -29q40 -12 56 -33q18 -24 18 -48v-1q-1 -26 -20.5 -47t-62.5 -31q-31 6 -52.5 15t-42 18t-38.5 17t-36 10q-84 13 -152 10.5t-121 -12.5q0 -12 -2 -49.5t-3.5 -76.5t-2.5 -75.5t-1 -60.5q1 -62 2.5 -123t2.5 -87q-12 -5 13.5 4.5t54.5 19.5zM449 1268q-1 0 5 38 q-46 -23 -45.5 -22.5t-3.5 -1.5q-1 -6 -1 -43.5t45 29.5z" />
<glyph unicode="G" horiz-adv-x="1180" d="M757 658q-28 28 -32.5 55t9.5 49.5t43 33.5t69 -1q16 -10 30.5 -10.5t33 3.5t40.5 11.5t47 9.5q15 1 35 1t41.5 -5t40 -18t26.5 -35q5 -15 5 -29v-8q-2 -17 -8 -35l-3 -6q-41 -107 -48 -124.5t-12 -32t-9 -33.5t-12 -53q-11 -44 -19 -91t-13 -94q-6 -58 0 -110t20 -110 q-1 -36 -19.5 -58.5t-46.5 -28.5q-10 -2 -17 -2q-21 0 -40 11q-27 13 -44 48q-2 25 -6.5 47t-3.5 47q1 39 5 78t3 34q-16 -9 -82 -46t-137.5 -65t-149 -38t-162.5 15q-52 16 -102 47.5t-90 73.5t-68 92.5t-38 104.5q-9 55 -17.5 109.5t-17.5 107.5q-8 48 -8 97q0 14 1 30 q3 65 21 124q16 52 29 101.5t32 95.5t49.5 88t80.5 79q58 42 121 61.5t128 22.5q15 1 30 1q50 0 101 -8q64 -11 127 -27q10 -2 35.5 -11.5t52.5 -19t45.5 -16t21.5 -6.5q8 -3 12.5 -4.5t13.5 -5.5q25 -19 34 -37t7 -47q-3 -18 -11.5 -30.5t-21.5 -26.5q-46 -28 -84 -16 t-48 37q-5 3 -18.5 8.5t-32.5 13.5q-64 25 -130 42.5t-135 19.5q-70 3 -123.5 -23.5t-93.5 -73.5t-67.5 -111.5t-41.5 -132.5q-10 -50 -13.5 -114.5t3.5 -132t25 -134t48.5 -120t74 -89.5t103.5 -46q69 -13 128.5 0.5t116 41t113 65.5t118.5 74q29 12 53.5 9t10.5 6 q-1 -6 7 20l16 52q14 42 27 84t24 84q5 18 10 35.5t9 32.5q0 1 -4 -9q21 -5 22 -5t6 2q-7 -2 -16 -5t-18.5 -7t-18.5 -7.5t-13 -5.5q-32 -12 -55.5 -19.5t-47 -8t-47.5 5.5t-60 21z" />
<glyph unicode="H" horiz-adv-x="1190" d="M169 51q-2 -40 -25.5 -63t-55.5 -24t-57.5 20t-30.5 62q8 90 18.5 176.5t21.5 170.5q-16 37 8 66q3 33 6.5 69.5t6.5 73.5q10 141 0.5 279.5t-26.5 280.5q8 36 29.5 55.5t51.5 21.5h2q29 0 51 -17q25 -19 35 -54q0 -148 -11.5 -289.5t-22.5 -286.5q-5 -61 -5 -94 q-17 -2 -6.5 0t25.5 6q53 12 96.5 20.5t98.5 16.5q50 8 99 14.5t97 14.5q65 11 110 24q-13 122 -33.5 257t-32.5 276q8 36 30 56t51 20.5t53.5 -17.5t34.5 -53q-5 -136 -5.5 -269t9.5 -240q42 13 113 37.5t146 52.5q42 1 67.5 -15.5t33.5 -40.5q3 -10 3 -20q0 -14 -6 -29 q-12 -27 -46 -47q-85 -19 -163.5 -31t-136.5 -21q13 -110 32.5 -236.5t30.5 -257.5q-2 -40 -25.5 -63.5t-56.5 -23.5h-1q-32 0 -56 22q-25 20 -30 59q5 128 5.5 253t-8.5 228q-4 -1 -36 -7t-63 -13q-49 -11 -97.5 -23t-96.5 -25q-24 -7 -47.5 -13t347.5 107 q-400 -80 -394 -78q112 0 52 -24t-69 -28q-14 -5 -28.5 -11t-29.5 -12q-19 -8 -42.5 -17t-28.5 -9v-120l1 -2q3 -43 4 -83t3 -82z" />
<glyph unicode="I" horiz-adv-x="222" d="M169 33q-2 -40 -26 -64q-23 -23 -53 -23l-16 -3l-33 14l-11 11l-9 7q-16 12 -19 35l-2 18q6 76 15.5 151t18.5 149.5t15 149t6 147.5q0 66 -9 135.5t-18 140.5t-14 141t3 140q8 33 28 52q24 20 55 22q41 -4 54 -19q21 -16 26 -35l4 -13q3 -9 3 -15q-2 -23 -8 -36 q-1 -6 -3 -28.5t-2 -75.5t-17 -19q14 61 13.5 44.5t-2.5 -33.5q-2 -50 -2.5 -100.5t0.5 -101.5q4 -144 1 -287t-5 -288v-1q0 19 0.5 19t0.5 -20q4 -53 4 -106.5t2 -107.5z" />
<glyph unicode="J" horiz-adv-x="597" d="M7 196q19 32 48.5 43t56.5 2.5t43.5 -31.5t12.5 -51q1 -3 5.5 -13.5l4.5 -10.5q7 -14 13.5 -26t6.5 -11h24h25q12 14 31.5 32.5t31.5 40.5q37 73 58.5 162.5t32.5 188.5t13 203t-1 205.5t-9 198t-11 181.5q8 36 29.5 55.5t51.5 21.5h2q29 0 51 -17q25 -19 35 -54 q-5 -196 -15 -386t-32 -383q-2 -19 -6 -52.5t-9 -75t-12 -87t-16.5 -87.5t-20 -77t-25.5 -56q-25 -37 -40.5 -62t-29 -42t-28.5 -27.5t-37 -15t-50.5 -6.5t-72.5 -6h-4q-23 0 -46 16q-22 12 -41 33t-35 46.5t-26.5 51.5t-13.5 49q-2 8 -2 16q0 17 7 31z" />
<glyph unicode="K" horiz-adv-x="1138" d="M792 1220q47 3 72.5 -19.5t29 -49.5t-15.5 -53.5t-62 -35.5q-42 -5 -78 -24.5t-70 -47.5t-65 -62t-61 -66q-37 -41 -72.5 -78t-72.5 -70.5t-78 -63.5t-54 -37q-15 7 5.5 -3t37.5 -19t29.5 -16.5l17.5 -10.5q39 -29 62 -44.5t41 -29.5t38.5 -32.5t57.5 -52.5 q71 -66 138 -135t141 -131q21 -17 42 -33.5t43 -30.5q31 -20 62 -35t60 -33q31 -9 49 -33q14 -21 14 -43v-4q-3 -26 -22 -47t-59 -30q-31 3 -59 16.5t-53.5 29t-47 31.5t-34.5 26q-65 49 -122 107t-110.5 118t-107 119t-112.5 112q-33 28 -53.5 44t-38.5 28.5t-41 24.5 t-60 33q-8 4 -20.5 5.5t2.5 -0.5q-3 -113 -0.5 -248t4.5 -272q-2 -40 -25.5 -63t-55.5 -24t-57.5 20.5t-30.5 61.5q14 139 28.5 274t23.5 261q-9 6 -13.5 27t7.5 41q7 12 12 15q3 61 3.5 133.5t-0.5 145l-2 145t2 146.5q8 40 35 59q24 17 51 17h8q34 -5 55 -29.5t19 -65.5 q-14 -91 -24 -183t-19 -184q-4 -43 -8.5 -85t-4.5 -46q-38 -19 -36 -18l2 1q87 45 156 110q52 50 96.5 107.5t92 114.5t102 108t125.5 86q9 5 22 8t23.5 5.5t20 4.5t15.5 3z" />
<glyph unicode="L" horiz-adv-x="972" d="M79 1179q8 36 28 55q24 20 53 22q29 0 55 -18q23 -18 28 -37l5 -16q-9 -139 -19 -277.5t-12 -277t9 -275t42 -260.5q-1 1 1 -1l4 -3q-2 0 6 -1t14 -1q12 0 38.5 -1t56 -2t55.5 -1h36q94 5 188.5 17t194.5 21l19 -5q22 -7 40 -30q16 -23 16 -47q-1 -25 -20 -46 q-20 -22 -44 -27l-17 -4l-63 6q-59 5 -174.5 11t-231.5 -4q-33 -3 -51 -4.5t-28 -2t-17 -1.5t-9 -2q-12 -12 -41.5 -17t-66.5 12l5 -5q-7 -1 -26 -4t-27 -4l-7 -4l-17 -4h-12l-11 2q-28 4 -52 27q-22 20 -26 46l-1 10l1 16l2 8q5 15 11 21q6 13 32 25q24 11 45 7h3 q5 1 16.5 1t-6.5 0q-1 10 -2.5 46t-2 68.5t0 56.5t0.5 33q3 435 -21 871z" />
<glyph unicode="M" horiz-adv-x="1288" d="M1049 1233q8 35 29.5 54.5t51.5 21.5h2q29 0 51 -17q25 -19 35 -54q-5 -81 -10.5 -159.5t-10.5 -157t-8.5 -156.5t-2.5 -156q2 -155 21.5 -308.5t45.5 -309.5q-2 -41 -25.5 -64.5t-56.5 -23.5h-1q-32 0 -56 22q-25 20 -30 59q-6 118 -9 234t-2 234q0 39 2 77.5t1 77.5 q-2 115 -6.5 227.5t-7.5 159.5q25 35 5.5 2t-37.5 -66.5t-33.5 -63.5t-24.5 -48q-45 -94 -83 -192.5t-69.5 -199t-57.5 -203t-51 -206.5q-15 -38 -45.5 -53t-61 -5.5t-47 36.5t-8.5 66q4 11 7 21t-1 -1q6 -1 -12 13.5t-31 39.5q-39 139 -80.5 274t-100.5 264 q-42 94 -96 181.5t-74 114.5q1 27 -0.5 9t-2 -35.5t-1.5 -43t-2 -76.5q-2 -96 2 -190.5t11 -190t15 -190.5t15 -192q-2 -40 -25.5 -63t-55.5 -24t-57.5 20t-30.5 61q11 194 12.5 383t-13.5 382q-1 18 -3.5 53.5t-5.5 74t-6 74t-4 53.5q-1 14 -3.5 30t-3.5 32q-2 12 -2 25 q0 6 1 10q0 16 8 35q25 43 64.5 49.5t65.5 -15.5q12 -4 29 -17q21 -30 41 -57.5t38 -58.5q54 -98 98.5 -198t89.5 -201q54 -121 111 -240t85 -185q21 54 66 164.5t88 223.5q24 63 47 127t47.5 126.5t52.5 124t63 120.5q4 12 11 15l7 3q12 10 22.5 19t12.5 11q1 -3 1 3.5 v13.5z" />
<glyph unicode="N" horiz-adv-x="1114" d="M178 7q-2 -40 -25.5 -63.5t-56.5 -23.5h-1q-32 0 -56 22q-25 20 -30 60q7 70 20.5 137.5t25.5 134.5t20.5 134t5.5 133q-2 69 -11 137.5t-20 137t-24.5 136.5t-25.5 139q9 42 38 62.5t59 13.5q32 3 67 -23q73 -86 139.5 -174t131 -177t128.5 -178t131 -177 q48 -65 100.5 -124.5t66.5 -74.5q6 130 6 313t-11 368q-1 20 -4 49.5t-5 62.5t-1 68t8 67t22 59.5t46 44.5q23 10 44 10q17 0 32 -6q31 -13 43.5 -37.5t5 -54t-35.5 -47.5q1 2 -0.5 -3t-3.5 -16q-3 -13 -3 -29t-8 -32q-75 -226 -62 -106t14 126t-11 -105t61 110 q-3 -8 -2.5 -17.5t-0.5 -21.5q-1 -20 -3 -52t-3.5 -66.5t-2.5 -66.5t-1 -51q6 -178 16 -351t22 -352q-2 -20 -3 -25q-1 1 7.5 -7t18.5 -18q20 -28 20 -54v-7q-4 -32 -26.5 -52t-58.5 -18.5t-67 32.5q-72 84 -137.5 172t-130 176t-128.5 177t-130 176q-60 79 -125 151t-86 94 q2 -43 5.5 -146.5t8.5 -207.5q2 -35 4 -69t2 -69q0 -51 -4 -101t-7.5 -100t-6.5 -99.5t-1 -100.5zM972 1015q48 143 108 262l-109 -108q0 -2 0.5 -1t0.5 -153z" />
<glyph unicode="O" horiz-adv-x="1388" d="M469 1227l9 3t21.5 6t59 12.5t69.5 32.5q-92 -36 -84.5 -35.5t15.5 1.5h10q35 -10 51.5 -29t20 -41t-8.5 -44.5t-39 -38.5q-13 -6 -26 -7.5t-19 -3.5q-30 -6 -56 -12.5t-50 -16.5q-65 -33 -76 -39.5t-18 -14.5q-46 -46 -82.5 -80t-62 -68t-41.5 -76.5t-20 -106.5 q-6 -86 21.5 -164t79 -145.5t121.5 -121.5t149 -90.5t162 -54.5t159 -12q94 7 174 33t132 73t70 119.5t-11 175.5q-13 41 -33.5 85t-45 86.5t-52 82t-52.5 74.5q-77 105 -164.5 192.5t-185.5 172.5q-29 29 -30 60t18.5 53t55.5 27h9q30 0 61 -22q69 -64 135 -133t126.5 -142 t114 -152t94.5 -162q24 -48 48 -96.5t30 -101.5q3 -21 9 -44t10.5 -46t5.5 -47v-3q0 -23 -9 -46q-14 -37 -26 -77t-34 -80q-16 -29 -50 -55t-74.5 -47.5t-86 -37.5t-88.5 -26t-81 -14q-27 -4 -48 -4h-17q-31 3 -63 3t-64.5 2t-66 6.5t-65.5 17.5q-27 12 -56 20.5t-59 19.5 t-59.5 25t-55.5 35q-23 17 -47.5 34t-49.5 35t-48 39t-40 48q-34 51 -65 96t-54 92t-36 101q-10 43 -10 95q0 14 1 27q4 75 27.5 143t61.5 127.5t89.5 110.5t113.5 91q40 26 83 46.5t93 33.5z" />
<glyph unicode="P" horiz-adv-x="782" d="M58 637q-3 52 -9.5 104.5t-11.5 107t-6.5 108.5t2.5 97q-12 5 -23 26q-10 17 -10 34q0 7 1 9q1 18 17 37.5t48 31.5q23 3 42 10t40.5 13.5t47.5 8.5h9q22 0 44 -8q49 -17 97.5 -33t96.5 -34q37 -13 74.5 -42t71.5 -67.5t64.5 -83.5t52 -91.5t33.5 -90.5q8 -34 8 -64 q0 -11 -1 -22q-2 -18 -1.5 -37.5t-0.5 -40t-5 -41t-16 -39.5q-24 -38 -38.5 -61.5t-27 -40.5t-26 -28t-32.5 -21.5t-47 -22.5l-70 -30q-29 -14 -59 -16t-59.5 0.5t-57 6.5t-54.5 4q-44 6 -65 30.5t-20.5 52t23.5 50.5t70 26q45 -4 83.5 -11t72.5 -8.5t65.5 5.5t63.5 31 q36 26 56.5 61.5t26.5 76t-0.5 84.5t-22 85.5t-39.5 77.5t-52 63q-28 28 -61 50.5t-69 38.5q-39 18 -84 25t-96 18q2 0 -1.5 -1t-1.5 0q-9 -28 -15.5 -67.5t-9 -80t-3 -81.5t-1.5 -81q-1 -97 6.5 -192t15.5 -193q7 -81 13 -160.5t16 -161.5q-2 -40 -25.5 -63.5t-56.5 -23.5 h-1q-32 0 -56 22q-25 19 -30 59q0 70 4.5 137t6.5 133q2 79 0 157.5t-7 156.5z" />
<glyph unicode="Q" horiz-adv-x="1125" d="M533 1190q-18 -4 -8 -4h7q40 -12 57 -35t16.5 -47.5t-20 -46.5t-56.5 -30q-43 -9 -82.5 -15t-73.5 -25q-44 -23 -84.5 -50.5t-70.5 -64.5q-39 -47 -57 -103t-21.5 -116t6 -121.5t25.5 -118.5q11 -39 25.5 -79.5t17.5 -46.5q14 15 53 60.5t79 91.5q3 3 12 13t19 21 t19 20.5t13 13.5q40 33 80 63t78 61q25 20 49.5 20t51.5 -18q10 -11 22.5 -20.5t24 -21.5t19 -27.5t6.5 -35.5q-4 -45 -6.5 -89.5t-10.5 -89.5q-11 -64 -27.5 -127t-30.5 -126q-6 -24 -11.5 -47.5t-4.5 -16.5q42 11 108 67.5t112 134t69 166t18 170.5q-5 95 -35 184.5 t-80.5 168t-118 143t-148.5 110.5q-22 12 -39 20t-33.5 15t-36 13.5t-44.5 15.5q-40 19 -51 48.5t-1 55.5t42 42q16 8 38 8q16 0 36 -6q105 -44 187.5 -95.5t149.5 -116t118.5 -146.5t94.5 -186q12 -31 20 -64t13 -66.5t9 -66.5t10 -65q3 -21 3 -40q0 -12 -1 -23 q-3 -32 -11 -62t-16 -59t-13 -59q-11 -59 -42 -116.5t-76 -98.5q-71 -66 -144 -132q-38 -33 -85 -51.5t-81 -22.5q-7 -31 -13.5 -52t-11 -32t-7.5 -20t-7 -29q-3 -15 0 -31t3 -19q-8 2 0.5 0t12.5 -3q15 4 40 17t50 29.5t47.5 34.5t46.5 39h-1q20 22 51 49.5t65 57.5 q31 12 58 13t49.5 -6.5t32.5 -27t-8 -43.5q-33 -26 -63 -51t-61.5 -49t-66.5 -47.5t-75 -46.5l-30 -15t-40 -17.5t-45.5 -15.5t-45.5 -7h-5q-27 0 -52 9q-20 8 -42 12q-39 10 -47 38q1 22 -1.5 43.5t2.5 45.5q9 34 24 64.5t28 60.5q-29 -86 7 -50.5t17.5 17.5t-23.5 8.5 t-7 17.5q-8 0 -44.5 6t-68.5 15q-71 20 -120 63.5t-84 96t-62 109.5t-54 108q-13 24 -20 52t-15 52q-19 67 -28 137q-7 46 -7 92q0 25 2 49q5 70 27 138t67 127q38 51 84.5 89t98.5 64.5t108 44t146 36.5v-1zM301 139q16 -22 43.5 -48t58.5 -44t66.5 -27t56.5 -8 q18 75 38.5 166t33.5 184q5 39 6 78.5t3 72.5q4 -5 1.5 -2.5t14.5 -6.5q-16 -14 -46.5 -39.5t-59.5 -53.5q-26 -24 -50 -56.5t-50 -69t-59 -77t-57 -69.5z" />
<glyph unicode="R" horiz-adv-x="1041" d="M22 742q1 30 -3 69t-7.5 80.5t-4.5 83t5 72.5q-11 13 -11 40v7q3 32 37 61q39 21 60 34t37 20.5t29 12t31 5.5t42.5 1.5t65.5 2.5h10q37 0 72 -14q32 -14 65 -24q42 -14 83.5 -42t75.5 -66.5t60 -84t39 -93.5t10 -97.5t-28 -92.5q-40 -68 -81 -109q11 -18 27.5 -56 t30.5 -76t24.5 -69.5t17.5 -47.5q18 -40 37.5 -81t43 -80.5t51 -74t60.5 -62.5q16 -13 36.5 -23.5t45.5 -26.5q23 -29 23 -56v-1q-1 -28 -18 -48t-48 -26q-8 -2 -17 -2q-22 0 -51 14q-23 19 -47 36.5t-42 43.5q-45 67 -80.5 140.5t-70 147t-73 142.5t-80.5 119h18 q-105 -58 -255 -52q-44 6 -65 30.5t-20.5 52t24 50.5t69.5 26q48 -7 90 -4.5t69 10.5q4 12 26 27.5t57 18.5q5 0 10.5 -0.5t-0.5 0.5q42 29 77 91q12 20 17 42.5t3 44.5q-2 41 -20.5 77.5t-49 66.5t-69.5 52.5t-80.5 34t-81.5 11.5t-74 -14q-9 -4 -18 -9.5t-12 -8.5 q0 1 -2 -6.5t-5 -14.5q-2 -8 -8 -17t-7 -14q-3 -13 -4 -29t-7 -32q-72 -292 -60.5 -139t12.5 162.5t-38.5 -248.5t90.5 262q-7 -55 -11 -112t-6 -114q-3 -86 -1 -173t6 -174.5t8.5 -175t7.5 -175.5q-2 -40 -25.5 -63t-55.5 -24t-57.5 20t-30.5 61q5 172 11 340.5t11 339.5z " />
<glyph unicode="S" horiz-adv-x="923" d="M563 1180q20 0 20 36q11 -1 31 -19t24 -41t-7.5 -46.5t-42.5 -41.5q-23 -7 -45.5 -6t-43 5.5t-39 10t-32.5 8.5q-42 10 -82 19t-79 7q-17 -1 -32 -5t-25 -12.5t-16.5 -22t-4.5 -33.5q4 -54 34 -101.5t73.5 -90t92.5 -80.5t91 -71q32 -27 81 -66.5t99 -84t93 -91t62 -86.5 q14 -29 28 -59.5t27 -59.5q15 -34 15 -69.5t3 -69.5v-8q0 -23 -11 -47q-11 -22 -19 -44q-16 -45 -56 -67.5t-86 -30.5q-39 -7 -77 -7h-10q-43 2 -73 4q-32 2 -63 10.5t-60 18.5q-70 24 -127 58t-106.5 75.5t-94.5 88.5t-93 100q-12 26 -12 45q0 7 1 15q5 27 26 44.5t52.5 18 t64.5 -23.5q50 -59 94 -110.5t93.5 -93.5t107 -73.5t132.5 -47.5q56 -12 96.5 -8t64.5 23.5t32 60t-9 103.5q-15 63 -47.5 113.5t-77.5 97.5q-24 25 -51.5 48t-56.5 46q-29 25 -60 47.5t-63 47.5q-47 36 -88 67.5t-78.5 65t-73.5 71.5t-72 86q-19 27 -24.5 58t-12.5 57 q-4 12 -3 26.5t3 27.5t4 23.5t3 14.5q6 35 25.5 60t47 42.5t58.5 27t60 14.5q27 4 53 4q30 0 60 -5q52 -9 100 -18q17 -2 36 -4.5t38 -7.5q2 0 7 -0.5t12 -1t57.5 -9t-48.5 -33.5z" />
<glyph unicode="T" horiz-adv-x="1112" d="M1033 1255q36 -25 43 -56q1 -9 1 -17q0 -19 -9 -36q-16 -26 -49 -36t-75 9q-11 7 -45 13t-76 10t-81.5 6.5t-31.5 2.5v9q-36 -101 -58 -193.5t-34 -184.5t-14.5 -187t3.5 -200q5 -72 8 -144.5t12 -143.5q2 -13 6.5 -28t7 -31t2 -33.5t-11.5 -36.5q-25 -32 -55 -36 q-7 -2 -14 -2q-23 0 -50 13q-15 8 -24 17.5t-19 20.5q-14 31 -11 55.5t14 36.5q-1 7 -1.5 21.5t0.5 29.5q3 65 6 129t5 128q5 166 8 333t24 334q5 32 12 62.5t9 37.5q-88 1 -207 -5t-241 -13q-46 6 -67 32q-20 22 -20 56l1 1q0 21 23 44t69 26q124 -11 241.5 -24.5 t237.5 -13.5q53 1 105.5 4t105.5 5q27 1 57.5 4t63 3.5t65 -3.5t64.5 -19z" />
<glyph unicode="U" horiz-adv-x="976" d="M4 1137q8 40 35 59q24 17 51 17h8q33 -5 54.5 -29.5t19.5 -64.5q-15 -123 -10 -260t29.5 -273.5t68.5 -261t109 -219.5q10 -15 25 -27.5t33 -25t37 -24.5t27 -18q6 1 23.5 1.5t33 2t27.5 4.5t22 9q40 27 71.5 70.5t54.5 94.5t37.5 104t21.5 98q11 74 15 133t1.5 111 t-10.5 100.5t-19.5 101t-26 112.5t-30.5 135q-5 39 14.5 65t50.5 33t60.5 -10.5t41.5 -57.5q7 -42 18.5 -91.5t22 -103t17.5 -107.5q4 -35 4 -69q0 -21 -2 -40q-3 -41 -4.5 -82.5t-4 -83t-6.5 -83t-12 -83.5q-12 -59 -24 -102.5t-26.5 -78t-32 -63.5t-41 -56.5t-52 -57.5 t-64.5 -70q-8 -7 -17.5 -10.5t-17.5 -4.5q-50 -8 -97 -17q-31 -6 -62 -6q-19 0 -37 3q-50 6 -93.5 36.5t-78.5 99.5q-19 36 -40.5 71.5t-42 72t-38.5 75t-28 80.5q-23 101 -47.5 198.5t-42.5 194.5t-26 196q-4 48 -4 99t4 103z" />
<glyph unicode="V" horiz-adv-x="1119" d="M16 1058q-3 25 -2.5 52t-6.5 48q-3 6 -3 4q-1 1 -1 6q-3 6 -3 19v6q6 30 23.5 49t43.5 25q8 2 16 2q17 0 36 -9q24 -10 43 -37q14 -34 13 -68t1 -65q2 -61 7.5 -122t8.5 -123q7 -124 14 -245t27 -244q8 -50 21 -99.5t11 -40.5l36.5 54.5t72.5 109.5q128 192 265 373.5 t296 352.5q34 29 70 26.5t56 -23t23 -50.5v-5q0 -29 -25 -58q-166 -158 -308 -325t-275 -351q-23 -31 -46 -63t-43 -60q-4 -6 -17.5 -30t-33 -52.5t-44.5 -55.5t-58 -32q-23 3 -35 11t-20 26q-49 169 -77 337t-47 340q-9 80 -19 158.5t-20 158.5z" />
<glyph unicode="W" horiz-adv-x="1509" d="M1326 1219q31 26 63 27t54 -14t30 -44q1 -9 1 -19q0 -18 -8 -40q-20 -25 -39.5 -46t-35.5 -43q-63 -94 -105 -202t-74 -222.5t-57.5 -230.5t-54.5 -225q-10 -38 -24 -73t-28 -74q-25 -31 -55.5 -38t-56 5.5t-37.5 38t-5 60.5q5 10 8 17l3 7q-34 59 -63.5 124t-53 131.5 t-44.5 134.5t-44 139q-2 5 -2.5 9.5t20.5 -49.5q8 17 -12 -20.5t-39 -74.5t-37.5 -75t-33.5 -77q-24 -69 -33.5 -133t-11.5 -128l1 -3t-6 4q22 -5 41.5 -29.5t16.5 -61.5l-7 -21q-10 -23 -26 -38t-38 -20q-8 -2 -16 -2q-14 0 -29 6q-20 7 -41 26q-13 19 -22 37l-15 30 q-22 18 -27 61l3 12q-1 1 -3 10q-24 78 -45.5 155.5t-49.5 153.5q-30 85 -66.5 169t-73 167.5t-71 168.5t-59.5 174q-9 28 -11 56t-7 57q8 37 30 57t51.5 20.5t53.5 -17.5t34 -52q6 -117 33.5 -223.5t66 -210.5t84 -207t88.5 -209q8 -21 16.5 -46t-2.5 6 q-23 -52 -20.5 -44.5t7.5 16.5q25 60 53.5 119t52.5 118.5t41 120.5t21 127q5 23 16 38t13 17q-25 83 -49.5 176.5t-40.5 203.5q8 36 30 55.5t52 21.5h1q29 0 51 -17q25 -19 35 -54q2 -105 15 -207t35 -201q9 -17 10 -41q35 -140 92 -272t112 -211q25 60 60 166t67 214 q16 56 31.5 111.5t32 111t35.5 110t43 108.5q13 33 34.5 60.5t40.5 57.5z" />
<glyph unicode="X" horiz-adv-x="1047" d="M30 1150q-16 33 -11 60t26 44.5t53 18.5h2q31 0 63 -25q90 -130 167.5 -260.5t137.5 -229.5q82 99 185 227.5t209 259.5q32 28 66 28h5q36 -3 56 -23.5t23 -50.5v-5q0 -29 -25 -58q-61 -60 -121.5 -118.5t-119.5 -118.5t-116.5 -121t-102.5 -116q35 -57 77.5 -122.5 t89.5 -128.5q20 -29 46 -63t53.5 -68t55 -66t53.5 -56q16 -16 36 -29t44 -30q22 -31 21.5 -58t-17.5 -47t-48 -26q-9 -2 -17 -2q-22 0 -52 14q-24 21 -48 39.5t-43 44.5q-87 115 -159 234.5t-148 240.5q-10 15 -19.5 30t0.5 -1q-72 -91 -149 -222.5t-147 -272.5 q-24 -30 -55 -37.5t-56.5 5.5t-36.5 39q-8 15 -8 35q0 10 3 26q30 48 53 83.5t45.5 69.5t47 69t57.5 77q28 36 46 60t31.5 40.5t25 29t23 26.5t27 32t31.5 36q-78 120 -168.5 243.5t-191.5 242.5z" />
<glyph unicode="Y" horiz-adv-x="1133" d="M515 36q-13 -36 -38 -51q-23 -13 -46 -13h-8q-30 4 -50.5 25.5t-25.5 56.5q7 49 10 96t18 94q12 38 23.5 77.5t25.5 78.5q10 26 19 47.5t8 19.5q-1 0 -28 27q-57 80 -105.5 163t-103.5 162q-26 38 -55.5 75t-57.5 75.5t-53.5 79.5t-45.5 89q-2 9 -2 16q0 24 11 43 q14 26 41 36.5t56.5 0.5t53.5 -42q11 -58 31.5 -109t47.5 -99.5t59 -94.5t62 -87h1q51 -57 96 -108t101 -105q0 -1 -29 28q-5 -7 10 17.5t34 55.5q88 147 183 284t192 280q31 26 63 27h5q28 0 49 -14q22 -16 30 -44q1 -9 1 -19q0 -18 -8 -40q-80 -95 -161.5 -187 t-154.5 -189t-131 -202t-92 -223q-14 -53 -21 -89.5t-9.5 -69.5t-3 -70.5t-2.5 -97.5z" />
<glyph unicode="Z" horiz-adv-x="1156" d="M88 1096q-47 6 -68 32q-20 22 -20 56l1 1q0 21 23 44t69 26q108 -7 213.5 -13.5t209.5 -4.5q109 3 215.5 8.5t220.5 1.5q39 -12 56 -35t16.5 -47.5t-20 -46t-63.5 -31.5q-13 3 -20.5 4t1.5 -1q0 1 -12.5 -8t-28.5 -17q-13 -8 -21 -12t-9 -5q-28 -21 -57.5 -41.5 t-56.5 -43.5q-59 -48 -113 -104q-66 -68 -119.5 -141.5t-97.5 -152t-79.5 -161.5t-51.5 -128q-11 -4 30 10t79 25t69 20.5t52 16.5q127 41 252.5 86t259.5 80q48 3 73.5 -19t29.5 -51v-7q0 -23 -15 -45q-20 -27 -63 -36q-171 -21 -336 -59.5t-320 -107.5q-16 -8 -39.5 -19.5 t-48.5 -25t-49.5 -28t-36.5 -24.5q-2 -4 -4.5 -13.5t-5.5 -18.5q-11 -30 -32.5 -45t-40.5 -16q-16 -9 -37 -9q-8 0 -16 2q-28 6 -45 24.5t-19.5 45.5t14.5 56q10 14 19.5 27.5t19.5 24.5q1 2 5 6q90 201 201 395t254 367q33 40 56.5 66.5t46 49t47.5 45t32 28.5 q-15 2 -74.5 7t-118.5 4q-105 -2 -210.5 -16.5t-216.5 -25.5z" />
<glyph unicode="[" horiz-adv-x="661" d="M179 -463q-20 3 -23 4q-6 -1 -17 -1q-22 0 -38 8q-28 11 -44 46q-4 13 -4 23q0 7 2 10q1 8 4 28l9 5q-6 -6 -4.5 -1t3 15t2 17l0.5 7q8 55 13 93.5t8.5 73.5t6 73t5.5 92q0 24 2 69.5t3 96.5t1.5 97.5t0.5 69.5q-3 125 -12.5 249.5t-17.5 249.5q-1 13 -5 43t-7 67.5 t-2 76.5t8 64q-6 7 -8.5 24t3.5 34t20.5 31.5t41.5 25.5q46 3 84.5 -3t73.5 -4q43 3 85 16t88 35h10q34 0 59 -15q25 -17 32 -41t-3.5 -50t-48.5 -48q-16 0 -28 -2.5t-28 -2.5q-27 0 -50.5 3.5t-46.5 2.5q-33 0 -62.5 -5.5t-45.5 -10.5q-1 -13 -16 -27q0 1 -0.5 -5.5 t-0.5 -12.5t-6 -49.5t-10 -34.5q13 68 13 61q-2 -43 -3.5 -85t-3.5 -84q-1 -48 -1.5 -88t-0.5 -78v-78.5v-89.5q0 -167 6 -332t6 -332q1 -45 -1 -88t-3 -79q8 -5 10 -11q15 0 44.5 2.5t55.5 11.5q46 16 89.5 39.5t93.5 46.5q44 2 69.5 -14.5t33.5 -41.5q2 -9 2 -19 q0 -15 -6 -30q-11 -27 -48 -48q-57 -4 -104 -10t-95 -18q-20 -7 -42 -18.5t-48 -21.5q-47 -16 -104 -32zM114 -332q0 -4 -52 -4q1 2 26.5 144t25.5 -140zM108 -199q0 -159 -51 -261q0 108 51 261zM47 -370l-47 -93q109 110 109 93h-62z" />
<glyph unicode="\" horiz-adv-x="638" d="M1 1217q-1 9 -1 16q0 28 16 49q19 26 50 33q8 2 16 2q24 0 46 -13q28 -18 40 -57q13 -98 38.5 -188t57.5 -185q34 -103 75 -203t84.5 -199t88 -197.5t86.5 -199.5q5 -17 5 -31q0 -19 -9 -36q-14 -27 -41 -38q-15 -6 -31 -6q-17 0 -33 7q-33 12 -51 50q-47 162 -99.5 319 t-115.5 311q-28 70 -59 139t-61 138.5t-56 141t-46 147.5z" />
<glyph unicode="]" horiz-adv-x="516" d="M403 1230q48 -14 66 -41q13 -19 13 -40q0 -5 -1 -11q-8 -170 -18.5 -338.5t-18.5 -339.5q-8 -167 -10 -332.5t-4 -332.5v-1q3 -32 1 -63t6 -62q-1 -27 -12 -46t-29.5 -31t-40.5 -12q-23 0 -37 8q-8 0 -19.5 4t-21.5 7.5t-20.5 8t-24.5 6.5q-21 5 -47.5 1.5t-62.5 -7.5 q-41 19 -53 44q-10 19 -10 35q0 8 1 15q6 24 29 43t70 21q23 -15 38 -24t28.5 -15.5t26 -8.5l12.5 -2q-3 -8 0 -3.5t1 2.5v-5q1 54 9 107.5t14 101.5q8 68 15 135t12 135q17 230 13 457.5t-15 446.5q16 -8 18 -8q-6 1 -15.5 -1t-25.5 2q-89 30 -38.5 35.5t55.5 5.5 t-151 -19.5t161 -19.5q-16 2 -31 -3.5t-30.5 -15t-31.5 -23t-36 -31.5q-45 -9 -73 4t-39.5 36t-5 49.5t38.5 53.5q43 9 79.5 13.5t69.5 11.5q19 5 40.5 16.5t46.5 17.5q15 4 27.5 5.5t30.5 7.5z" />
<glyph unicode="^" horiz-adv-x="830" d="M372 1064q-24 -26 -57 -74.5t-59.5 -101t-49.5 -111t-49 -128.5q-25 -31 -56 -38.5t-56.5 5.5t-36.5 39q-8 15 -8 35q0 10 3 26q45 66 89.5 129t80.5 129q15 27 27.5 56.5t26.5 59t95 152.5q28 12 49 13h16q11 -11 5 1l-2 -1q92 -77 102 -104.5t17 -53t15 -44.5 q20 -52 44 -96t53.5 -82t66 -72t84.5 -68q23 -30 23 -56v-1q-1 -28 -18 -48.5t-48 -26.5q-9 -1 -17 -1q-22 0 -53 14q-17 18 -32 33t-28 32q-33 46 -59 94t-53 96q-31 56 -64 112t-51 81z" />
<glyph unicode="_" horiz-adv-x="1112" d="M1003 -216q40 -12 56 -33q18 -24 18 -48v-2q-1 -25 -20.5 -46.5t-60.5 -30.5q-119 13 -231 31.5t-225 29.5q-111 10 -224 9t-229 -9q-46 6 -67 33q-20 22 -20 48q0 21 1 21q0 8 23 31.5t70 26.5q118 -12 230 -31t225 -30q111 -10 223.5 -8.5t230.5 8.5z" />
<glyph unicode="`" horiz-adv-x="420" d="M1 1243q-1 10 -1 17q0 28 16 49q19 26 50 33q8 2 16 2q24 0 46 -13q28 -18 40 -57q1 -21 3.5 -33.5t6.5 -24t10 -25.5t12 -32q15 -24 33 -44t37.5 -39t42 -37.5t51.5 -43.5q21 -29 21 -55v-8q-4 -31 -26 -50q-22 -20 -55 -20h-4q-36 1 -69 34q-25 46 -48.5 90t-53.5 82 q-18 22 -35 41t-33.5 38.5t-31 42t-28.5 53.5z" />
<glyph unicode="a" horiz-adv-x="726" d="M539 778q22 -31 21.5 -58t-17.5 -47.5t-48 -26t-68 11.5q-8 6 -12 10t-8 5q-2 2 -14 -1.5t-29.5 -13.5t-34.5 -23t-25 -19q-4 -4 -10.5 -14t-27.5 -18h7q-53 -65 -95 -152.5t-52 -184.5q-4 -38 -8 -75t-2 -74q0 -1 6 -5.5t2 3.5q-9 -4 1 -2t14 6q61 49 116 118.5 t102.5 147.5t86 159.5t68.5 157.5q17 29 42 41t51 8t44.5 -21t21.5 -37q3 -4 6 -11.5t6 -18.5q-3 -26 -5 -48.5t-7 -46.5q-11 -55 -23.5 -110t-19.5 -108.5t-3.5 -106.5t25.5 -106q7 -16 16.5 -33t19.5 -36q5 -18 5 -32q0 -18 -9 -35q-14 -28 -41 -39q-15 -6 -31 -6 q-17 0 -33 7q-33 12 -51 51q-14 54 -18.5 93t-4.5 75.5t3.5 74.5t7.5 90q2 30 3.5 60t1.5 -23q-6 -10 -66.5 -88t-125.5 -156q-24 -30 -54.5 -63t-71.5 -49q-20 -8 -39 -14t-41 -14q-21 -3 -35 1.5t-30 17.5q-11 18 -26 35t-22 41t-8 49v18q0 15 1 29q1 23 3.5 45.5 t3.5 45.5q2 54 16 111.5t36.5 112.5t51.5 106t63 94q22 28 56.5 58.5t75.5 52.5t87 30q14 1 25 1q36 0 69 -16q15 -7 26 -16.5t25 -18.5z" />
<glyph unicode="b" horiz-adv-x="776" d="M195 182v-10q15 -17 35.5 -41t42 -45.5t44 -37t49.5 -21.5q15 -3 33 -0.5t37 7.5t36.5 13t30.5 15q42 25 70 67.5t39.5 91.5t6 96t-27.5 80t-59 48.5t-93 3.5q-38 -9 -76 -27t-82 -35q-45 -9 -74.5 8.5t-37.5 44t5.5 54.5t54.5 44q44 13 86 26.5t86 21t90.5 3.5t95.5 -28 q76 -37 112.5 -99.5t41.5 -133.5v-24q0 -58 -18 -118q-22 -73 -66.5 -133.5t-107 -102t-140.5 -47.5h-26q-35 0 -65 6q-42 9 -78.5 27.5t-69 44.5t-66.5 57l-25.5 25.5t-28.5 20.5q-28 27 -31.5 55t7.5 46q6 77 12 156.5t4 160.5q-3 138 -16 273t-26 274q8 36 29.5 55.5 t51.5 21.5h2q29 0 51 -17q25 -19 35 -54q-5 -85 -11.5 -167t-4.5 -165q4 -136 17 -270t25 -271z" />
<glyph unicode="c" horiz-adv-x="874" d="M448.5 625.5q-18.5 23.5 -15.5 44.5q-21 34 -56 62t-71.5 36t-72 -4.5t-64.5 -54.5q-15 -21 -23 -45t-13 -50t-8.5 -53t-57.5 -377l50 327q-2 -36 -3.5 -77.5t0.5 -83.5t9.5 -82.5t23 -72.5t38 -52.5t55.5 -28.5q17 -4 37.5 -4.5t42.5 1t43.5 5t39.5 6.5 q84 17 165.5 41.5t168.5 45.5q40 1 65.5 -15.5t33.5 -40.5q3 -10 3 -20q0 -14 -6 -29q-12 -27 -47 -48q-61 -10 -135.5 -26.5t-152.5 -28.5q-80 -12 -119 -13l-37 -2l-38 -2l-56 3l-17 5l-15 4l-14 4l-26 7q-35 10 -72 46q-37 35 -57.5 79.5t-29 95t-11.5 100.5 q-2 28 -3.5 65.5t-1.5 77.5q-1 8 -1 17q0 34 2 69q2 42 8 83t18.5 77t33.5 62q11 14 23 27.5t26 28.5q39 42 100 59q41 11 84 11q19 0 39 -2q61 -8 116.5 -36.5t88.5 -72.5q10 -15 22 -30t22 -30q10 -10 10 -17q-1 2 2.5 -2t7.5 -13q14 -48 -13 -78.5t-55 -32t-48 4.5 t-38.5 29.5zM118.5 530.5l-0.5 -2.5q-50 5 -24.5 209t25.5 -200q0 -4 -0.5 -6.5z" />
<glyph unicode="d" horiz-adv-x="692" d="M404 545q2 -2 9 -5.5t55 -26.5q26 -2 46.5 -24t27.5 153q-51 -181 -47 -164t6 27q7 48 12 99q8 77 6.5 152.5t-8 151t-15.5 151.5t-16 155q8 36 29.5 55.5t51.5 21.5h2q29 0 51 -17q25 -19 35 -54q-6 -106 -10 -207t-5 -204q0 -80 2.5 -158.5t0.5 -158.5q-1 -30 -2 -58 t-4 -57q0 -5 -0.5 -6t-0.5 11q14 -9 23 -36q4 -10 4 -23q0 -17 -9 -40q-43 -60 -87.5 -101t-94.5 -71t-106.5 -52.5t-120.5 -43.5q-21 -8 -44 -8q-15 0 -29 4q-35 5 -67 23t-55.5 45t-30.5 60q-11 55 -13 96v15q0 32 6 61q9 37 30 73.5t70.5 85.5t65 56t28.5 14 q18 10 45.5 13.5t56 3.5t55 -2.5t47.5 -9.5zM445 282q6 6 11.5 12.5t6.5 6.5q-2 20 2.5 48.5t-28.5 -129.5l85 172q-19 -25 -41.5 -33t-54.5 -4q-29 8 -54 25.5t-39 27.5q-16 2 -152 -28q-16 -12 -36.5 -49t-29.5 -77.5t-1 -74t34 -46.5q27 -14 60.5 -8t70.5 25t72.5 46 t61.5 53.5t32 32.5z" />
<glyph unicode="e" horiz-adv-x="1010" d="M592 573q-1 -24 -9 -39q-1 -15 -12.5 -33.5t-39.5 -35.5q-37 -5 -61.5 -11t-46 -15.5t-44 -23.5t-48.5 -33q-2 -2 -10.5 -9t-19 -15t-21.5 -16.5t-17 -11.5q-15 -7 -26.5 -9.5t-27.5 -9.5q-45 7 -66.5 27t-25 44.5t12 48.5t55.5 39q9 0 26 5t37 -19v16q2 1 25.5 12.5 t46.5 27.5t47 35.5t53 38.5q3 3 6 4.5t-3 -4.5q1 18 -1.5 41t-10.5 43q-14 33 -42 54.5t-60.5 28.5t-63 -0.5t-53.5 -34.5q-19 -21 -32 -48.5t-22 -56.5q-10 -34 -15 -70t-6 -72q0 -37 4.5 -75t15.5 -73q30 -90 77 -132.5t104.5 -53t126 4.5t140 43t139 63.5t124.5 64.5 q43 16 75.5 3t44.5 -39q7 -15 7 -31q0 -11 -2 -22q-10 -32 -47 -53q-75 -31 -154 -65.5t-163 -60.5t-170 -34q-23 -2 -44 -2q-66 0 -131 19q-70 21 -121 73.5t-83 122t-47 149.5q-13 67 -13 131q0 14 1 27q3 78 25 147t63 117q25 29 60.5 55.5t76.5 35.5q28 6 57 6 q20 0 41 -2q50 -8 94 -29.5t80.5 -55t57.5 -73.5q20 -38 27 -78.5t9 -80.5z" />
<glyph unicode="f" horiz-adv-x="874" d="M573 873q42 -13 59 -36t16.5 -47.5t-20 -46t-61.5 -30.5q-66 9 -111.5 16t-57.5 8q-4 -66 -2 -153.5t5 -175.5t5 -175.5t-3 -178.5q-13 -36 -38 -51q-23 -14 -46 -14q-8 0 -12 2q-26 3 -46.5 24.5t-25.5 56.5q12 87 19 172t11.5 170.5t8.5 171t9 144.5q-9 -1 -53.5 -21.5 t-110.5 -67.5q-44 -9 -72 4t-39 37q-8 14 -8 30q0 9 2 19q7 26 37 52q25 9 46 17.5t43 13.5q48 12 92 16.5t91 9.5h-19l3 33t7.5 74t10.5 85.5t15 85t20 74t26 51.5q21 23 41 45t41 47q15 12 26.5 17t34.5 6q38 -7 76.5 -10.5t75.5 -21.5q30 -14 50.5 -37.5t36.5 -47.5 t30 -48t33 -42q20 -28 20 -54v-8q-4 -31 -27 -51t-58.5 -19t-66.5 32q-10 13 -24 38t-28 51t-24.5 42.5l-10.5 16.5q-21 8 -42.5 13.5t-27.5 7.5q-5 -6 -21.5 -17.5t-24.5 -27.5q-19 -34 -32.5 -78t-23 -90.5t-15.5 -93.5t-8 -62q18 2 66 8.5t102 13.5z" />
<glyph unicode="g" horiz-adv-x="857" d="M489 797q33 -10 69 -29t-31 39q44 -81 26.5 -56.5t-37.5 51.5q-15 32 -10 59t26 44.5t53 18.5h2q31 0 63 -25q21 -30 39 -56.5t32 -57.5q24 -51 35.5 -105.5t10 -108.5t-17.5 -107t-49 -101q-15 -23 -38 -46.5t-51 -45.5t-59.5 -40.5t-50.5 -24.5q-3 -10 -21 -27t-51 -24 q-22 -3 -47.5 -17t-49.5 -26q-38 -18 -74.5 -38t-64 -45.5t-43.5 -59t-13 -79.5q3 -47 23.5 -84t52.5 -64t73 -44t85.5 -24t88.5 -5t82 15q46 16 83 44t55 74q14 35 8 71t-26 65t-49.5 47t-62.5 20q-35 2 -61 -4.5t-49.5 -18.5t-50 -31t-64.5 -42q-43 -9 -71 4.5t-39.5 36.5 t-5 49t35.5 51q50 25 85.5 44t67 32.5t63 19t65 3t72 -14.5t88.5 -33q32 -14 50.5 -41.5t35.5 -47.5q23 -24 29 -54.5t13 -55.5q8 -26 8 -53q0 -28 -9 -56q-17 -54 -54 -98t-88.5 -75t-103.5 -38q-49 -7 -87.5 -12t-71.5 -5h-8q-28 0 -54 4q-29 3 -60.5 13.5t-66.5 28 t-79 42.5q-33 19 -59.5 50.5t-38.5 64.5q-13 34 -23.5 62t-15.5 58q-3 19 -3 39q0 11 1 21q2 30 16 67q14 34 35 62.5t40 56.5q7 9 26.5 24.5t46 33t57 35.5t36.5 22q-10 9 -28 25t-30 33.5t-22 41t-27 63.5q-13 31 -15.5 69t6.5 74q11 43 20.5 75.5t22 57t30 42.5t42.5 31 t56 23.5t74 22.5q27 7 54 1.5t48 -11.5zM405 313q29 1 41 -3q15 4 38.5 17t44.5 30.5t37.5 37.5t26.5 43q10 20 17.5 42.5t4.5 -6.5q27 21 2.5 20.5t-44.5 10.5t-31 30.5t-11 43.5q-1 6 -6 18q0 -3 -0.5 -2.5t-0.5 4.5l-3.5 5t-6.5 10q-4 5 -10 9.5t-14 9t-17.5 11l-9.5 6.5 h6q-39 19 -69 22t-67 -16q-25 -13 -42 -39.5t-24.5 -61.5t-5.5 -73.5t13.5 -73t30.5 -61t45 -39.5q5 -3 11 -4t7 -2q17 7 37 11z" />
<glyph unicode="h" horiz-adv-x="830" d="M194 121q-8 -19 -12 -23q-1 3 0 -1t4 -10q-1 -37 -19.5 -59.5t-46.5 -28.5q-9 -2 -17 -2q-21 0 -40 10q-27 14 -43 48q-14 70 -16 138.5t0.5 137t7.5 136.5t6 135q2 154 -4 305.5t-14 305.5q8 36 29.5 55.5t51.5 21.5h2q29 0 51 -17q25 -19 35 -54q-8 -102 -15.5 -201.5 t-13 -199t-7 -199t4.5 -198.5q2 -29 4 -57t-1 17q6 10 69.5 75t122.5 123q25 25 49 38.5t49.5 18t51 1.5t52.5 -8q23 -4 34 -17q32 -35 53 -67t36 -66t27 -70.5t27 -79.5q13 -39 20 -57t13.5 -34t16 -37.5t28.5 -66.5q5 -17 5 -31q0 -19 -9 -36q-13 -28 -42.5 -39t-62.5 1 t-51 52q-23 83 -40.5 166t-41.5 164q-4 13 -9.5 31.5t-13.5 36t-17 32.5t-19 23q-7 5 -13.5 5t-16.5 -4t-21.5 -12.5t-19.5 -17.5q-33 -31 -70.5 -76.5t-71 -97.5t-56 -106.5t-26.5 -103.5z" />
<glyph unicode="i" horiz-adv-x="245" d="M25 787q8 36 30 56t51 20.5t53.5 -17.5t34.5 -54q-11 -98 -25 -192.5t-17 -190.5q-3 -95 12.5 -187t37.5 -188q-1 -35 -19.5 -57.5t-46.5 -28.5q-10 -2 -17 -2q-21 0 -40 11q-27 13 -44 48q-1 32 -4 59.5t-3 57.5q0 73 6 143.5t8 141.5q2 95 -3.5 189.5t-13.5 190.5z M2 1128q-2 11 -2 18q0 20 6 34q1 24 12 54q12 29 37 42q16 6 32 6q8 0 18 -2q24 -6 42.5 -22.5t25.5 -31.5q13 -7 27 -29q10 -18 10 -43v-10q-11 -35 -31 -58.5t-47.5 -34t-57 -3.5t-46.5 33q-6 6 -10 13.5t-9 16.5q-3 6 -4 9t-3 8z" />
<glyph unicode="j" horiz-adv-x="465" d="M240 812q19 33 48 45t57 3.5t43.5 -33t14.5 -59.5q-8 -22 -16 -40.5t-12 -36.5q-5 -25 -8 -71.5t-5.5 -96.5t-3.5 -93t-2 -61q-1 -12 -1.5 -46t-1.5 -79t-2.5 -95.5t-3 -96t-2.5 -80t-2 -47.5q-1 -18 -4 -46.5t-7.5 -62.5t-11.5 -70t-18 -70t-26 -62.5t-36 -46.5 q-28 -24 -59.5 -37.5t-63.5 -30.5q-18 -4 -30 -4q-23 0 -40 9q-28 13 -39 36q-8 15 -8 30q0 11 3 19q6 27 36 52q30 12 53.5 17.5t37.5 18.5q20 18 35 51.5t26 72t17.5 76t10.5 62.5q10 69 14 118t4.5 94t-2.5 94.5t-6 119.5q-3 63 -5 103t-4 74.5t-2.5 72.5t-0.5 96 q0 28 8.5 51.5t14.5 49.5zM351 1276q25 -8 39 -16t23 -24q0 -1 2 -3l8 -8q7 -24 7 -43q0 -30 -13 -58l-14 -28t-18 -28q-14 -20 -34 -28t-40 -4t-35.5 16t-26.5 29q-14 21 -16 46.5t4 50.5t19.5 47.5t33.5 36.5q19 12 32.5 11.5t28.5 2.5z" />
<glyph unicode="k" horiz-adv-x="703" d="M57 1288q32 27 65 28h2q33 0 54 -18q20 -16 26.5 -42.5t-7.5 -53.5q-2 -5 -4.5 -11t-2.5 -10q-5 -24 -9 -48t-9 -49q-7 -39 -12 -64t-8.5 -47.5t-7 -49t-8.5 -68.5q-11 -97 -15.5 -196.5t2 -198.5t24.5 -196t54 -189q11 -38 -3 -66t-43.5 -39.5t-62.5 1t-51 51.5 q-19 72 -27.5 138.5t-11.5 131.5q-2 49 -2 98v34q1 66 3 138q2 76 3 152t3 152q0 12 0.5 43t1.5 72.5t3.5 87t7 88t12.5 77t23 54.5zM213 701q8 40 35.5 59.5t59.5 16t53.5 -28.5t19.5 -66q-14 -60 -46.5 -107.5t-61.5 -77.5q9 -10 26 -36.5t36 -52.5q74 -93 151 -181 t162 -174q20 -28 20 -54v-7q-4 -32 -26 -51q-22 -20 -55 -20h-4q-36 2 -68 33q-46 64 -86 126t-81.5 122.5t-85.5 118t-84 97.5q-6 -3 -27.5 3t-34 20t-13.5 32.5t7 34.5v4l7 7q16 19 33 40.5t30 44.5t22 47t11 50z" />
<glyph unicode="l" horiz-adv-x="252" d="M55 1205q21 37 56 47q13 3 25 3q19 0 36 -8q28 -13 40 -42q5 -13 5 -27q0 -18 -9 -40q-10 -17 -20 -31t-15 -28q-11 -28 -18 -63t-12.5 -71t-9 -72t-6.5 -63q-14 -182 6.5 -362.5t58.5 -361.5q-1 -35 -19.5 -57.5t-46.5 -28.5q-10 -2 -17 -2q-21 0 -40 10q-27 14 -44 49 q-12 151 -12.5 297.5t-3.5 294.5q-1 40 -4.5 105t-4.5 136v28q0 55 3 107q4 65 20 106q8 19 15.5 37t16.5 37z" />
<glyph unicode="m" horiz-adv-x="1397" d="M75 862q37 1 60.5 -11.5t33.5 -32t8 -41.5t-12 -34q-2 -62 -7 -127.5t2 -132.5q6 -63 14.5 -125t4.5 -39q-23 -54 -10.5 -26t26.5 55q44 86 86.5 172.5t94.5 168.5q11 18 25 44.5t32 55t39.5 55t48 45.5t59.5 26q9 1 18 1q27 0 54 -14q20 -8 35 -30.5t26 -46.5 t18.5 -47.5t11.5 -36.5q26 -78 49 -156.5t46 -159.5q11 -35 21 -69t6 -27l17 44.5t38 88.5q15 32 30 57.5t35 52.5q8 11 21 23t27 21.5t31 17t34 8.5q28 4 50 -6q12 0 26 -8q19 -9 33 -26t23 -33q20 -38 31 -77.5t22 -76.5q14 -19 17.5 -29t4.5 -14t5 -8t29 -21 q23 -30 23 -56v-1q-1 -28 -18 -48.5t-48 -26t-68 11.5q-40 32 -59.5 62t-30.5 61t-18 64.5t-19 72.5q-2 7 -3.5 11.5t-3 6.5t7.5 -4q-3 -1 -19.5 -21.5t-32.5 -52t-32 -68.5t-35 -71.5t-43.5 -63.5t-62.5 -43q-24 -5 -40.5 -0.5t-32.5 20.5q-23 24 -37 53.5t-23 60.5t-15 61 t-13 58q-15 57 -30 113.5t-33 112.5q-3 10 -11.5 35.5t-19.5 52t-21 44t4 13.5q-16 -13 -41.5 -47t-49.5 -75t-46 -86.5t-41.5 -90t-37 -87t-32.5 -77.5q-20 -47 -38 -94t-37 -95q-7 -17 -14.5 -33t-14.5 -31q-2 -9 -6.5 -21t-17.5 -29q0 1 -0.5 0t-11.5 -7q-5 -2 3 3 q0 8 1 5q-2 -43 -25.5 -66.5t-56.5 -23.5h-1q-32 0 -56 22q-25 20 -30 60q5 69 8 135.5t-2 132.5q-8 111 -24 220t-30 219q-4 17 -4 33q0 22 8 41q15 37 67 53z" />
<glyph unicode="n" horiz-adv-x="761" d="M79 843q32 27 64 28h5q28 0 49 -14q22 -16 29 -42.5t-6 -60.5q-28 -38 -48 -99t-31.5 -132.5t-13.5 -145.5t-9 0q-16 -86 4.5 -38.5t44.5 93.5q13 26 26.5 54.5t31.5 52.5q16 22 34.5 47t38.5 47.5t44.5 41t55 25t62.5 -5t62 -41.5q26 -26 47.5 -69t40.5 -95t36 -110 t31.5 -112.5t26.5 -101t22 -78.5q-1 -36 -19.5 -58.5t-46.5 -28.5q-10 -2 -17 -2q-21 0 -40 10q-27 14 -43 48q-11 57 -20.5 130.5t-23.5 148t-33.5 141.5t-48.5 107q-2 4 -10 8t-4 1q1 1 -8 -1.5t-12 -5.5q-27 -33 -50 -71t-41.5 -79.5t-34 -84t-16 -45t-1.5 -6.5 q-10 -48 -20 -92.5t-15 -91.5q-2 -99 -48.5 -108t-64.5 -7q-28 3 -45.5 15t-30.5 38q-5 19 -11.5 37t-11.5 37q-9 29 -9 66q-1 5 -1 12q0 31 3 62q2 36 6 71t6 61q3 48 4.5 95.5t4.5 95.5t8 95.5t15 96.5q5 18 14 31t18 30z" />
<glyph unicode="o" horiz-adv-x="784" d="M599 776q10 -22 22 -54.5t14 -58.5q47 -63 77 -139.5t36 -170.5q1 -10 1 -20q0 -47 -16 -95q-20 -57 -55.5 -109t-84.5 -94.5t-106 -71t-118 -36.5q-22 -4 -43 -4q-41 0 -80 12q-43 12 -79 37t-64 58t-46 71.5t-25 80.5q-8 55 -19.5 110t-12.5 113q0 40 6 84.5t19.5 88.5 t34.5 84.5t49 72.5q24 28 53 49.5t55 42.5q30 23 64 30t62 15q29 8 54 8h11q31 -2 58.5 -12.5t51 -25t46.5 -29.5q9 -6 20 -14t15 -23zM394 679q-20 19 -26.5 38t-7.5 15q22 0 18 0t-8 -1q-37 -3 -70 -18t-61 -38.5t-50 -55t-35 -66.5q-26 -71 -29 -150q0 -30 2 -69t8 -79.5 t17 -79t28 -67.5q18 -31 43.5 -48.5t54.5 -24t61.5 -2.5t63.5 17q49 20 91 57.5t70.5 85t39 101.5t-4.5 109q-13 52 -38 95t-55 76q-36 16 -45 48q-12 12 -30 26.5t-37 30.5z" />
<glyph unicode="p" horiz-adv-x="728" d="M201 652q-2 -34 -18.5 -55t-26.5 -24q-1 -29 -2 -57.5t-2 -53.5t-1 -54.5v-74.5q0 -99 6.5 -197t15.5 -195.5t19 -196t18 -198.5q-2 -41 -25.5 -64.5t-56.5 -23.5h-1q-32 0 -56 22q-25 20 -30 60q9 201 6 395.5t-21 393.5q-3 34 -5.5 67t-5.5 66q-1 10 -3 30.5t-4.5 46.5 t-4.5 55t-2 56q-1 4 -1 11q0 23 3 43q2 25 10 42q7 16 17.5 25t22.5 19q11 5 16 6t-1 0q15 27 48 53t73 40q36 11 76 11h6q44 -1 83 -16q35 -12 71.5 -29t65.5 -46q49 -47 83 -102t57 -114.5t37 -122t22 -127.5q3 -18 3 -37q0 -16 -2 -32q-5 -40 -24 -69 q-14 -20 -26.5 -41.5t-33.5 -40.5q-12 -9 -20 -11t-17 -4q-39 -9 -68.5 -12.5t-57.5 1t-56.5 18.5t-67.5 39q-44 30 -79.5 65t-73.5 68q-29 29 -30 60t18.5 53t54.5 26.5t71 -21.5q36 -37 67 -73t67 -66q38 -32 65.5 -40t44.5 0t30 36t15 77q2 50 -6 96.5t-25.5 89.5 t-42.5 84t-55 80q-18 23 -45 41.5t-55.5 27.5t-54 9t-44.5 -10.5t-31.5 -35t-9.5 -69.5z" />
<glyph unicode="q" horiz-adv-x="815" d="M678 488q-1 -30 -12.5 -48.5t-22.5 -24.5q0 -3 -3 -14.5t-4 -16.5q12 -19 5 -51.5t-48 -57.5q-19 -6 -33.5 -18t-29.5 -28t-29.5 -34t-31.5 -33q-201 -150 -116.5 -58t-128.5 -205q216 234 181 186.5t-54.5 -97.5t-19.5 -107t26 -122q6 -15 23.5 -25.5t26.5 -17.5 q9 1 28 0.5t33 4.5q22 9 44.5 25t42 36t35.5 42.5t27 44.5q8 18 12.5 39t4 42t-7.5 39t-21 30q-14 10 -29.5 18t-32.5 14.5t-36.5 14t-42.5 17.5q-28 28 -32.5 55t9.5 49.5t43 33.5t69 -1q49 -28 86.5 -46.5t67 -43.5t48 -62.5t24.5 -97.5q1 -9 1 -19q0 -33 -12 -69 q-16 -47 -45 -90.5t-70 -81.5t-87.5 -64.5t-96.5 -36.5q-22 -4 -42 -4q-30 0 -59 9q-54 17 -82.5 50.5t-42.5 73.5t-19.5 82t-13.5 79q-9 48 6 102t42 106t60.5 99t46.5 63q-11 4 -47.5 33.5t-67.5 64t-56.5 69t-41.5 59.5q-17 27 -36.5 53t-37.5 54t-32.5 58t-21.5 64 q-7 35 -15 68q-9 33 -9 66v8q1 17 11.5 31.5t22 26t21.5 20t12 10.5q20 21 54 26q12 1 24 1q16 0 33 -2q30 -5 60 -15.5t56.5 -21.5t47.5 -21.5t33 -14.5q12 -6 23 -12t9 -5q13 6 44 -3.5t53 -40.5q26 -43 41.5 -66.5t24.5 -37.5q24 -29 39 -55t26 -54.5t20 -62.5t23 -81z M448 639q-15 27 -33.5 51t-37.5 48q-39 38 -85.5 67t-94.5 46q-14 5 -31.5 5t-25.5 1q1 1 -6 -5.5t-8 -7.5q2 -19 2 -44t9 -46q37 -92 94.5 -178.5t130.5 -153.5q35 -32 81 -52q8 -4 3 -3q6 6 23.5 20t28.5 21q1 3 2.5 13.5t2.5 20.5q2 49 -14 101.5t-41 95.5z" />
<glyph unicode="r" horiz-adv-x="579" d="M120 653q0 5 -1 16.5t-2 25t-3 28t9 -36.5q20 36 -5 25t-51 -6t-44.5 26t-22.5 54q0 27 15 53.5t38.5 47t53.5 29.5q14 4 27 4q20 0 40 -9q24 -12 39.5 -29.5t23.5 -38t11 -42t3 -42.5q1 -27 0.5 -54.5t6.5 74.5q-49 -105 -38.5 -85.5t28.5 46.5q8 13 20 21t24 13t23.5 9 t21.5 9q8 4 20 8t28 1q35 -4 62 -20.5t53 -29.5q36 -25 43 -56q1 -9 1 -17q0 -19 -9 -36q-16 -26 -49 -36t-75 10q-17 11 -31.5 21t-19.5 13q2 0 -4 -0.5l-6 -0.5q-14 -13 -28 -33.5t-26 -44t-21.5 -46.5t-15.5 -42q-14 -48 -23 -97.5t-15.5 -100.5t-12 -102t-13.5 -102 q-2 -23 -4.5 -46.5t-4.5 -49.5q-13 -35 -38 -51q-23 -13 -46 -13h-8q-30 4 -50.5 25.5t-25.5 58.5q2 7 2.5 13t1.5 8q-4 18 0 45q8 20 14 39.5t15 36.5q3 10 6.5 22t5.5 24q26 114 43.5 228.5t13.5 232.5z" />
<glyph unicode="s" horiz-adv-x="507" d="M187 819h10q33 0 58 -15q25 -17 32.5 -41t-3.5 -50.5t-46.5 -44.5t-45.5 -21.5t-17 -12.5q-6 -8 -14.5 -21t-11.5 -19q4 -14 6.5 -35t9.5 -39q20 -46 48 -89.5t60 -85t66.5 -81.5t68.5 -79q19 -20 31.5 -43t26.5 -46q6 -15 6 -26t-7 -27q-7 -10 -13.5 -19.5t-12.5 -17.5 q-15 -17 -31 -24q-13 -4 -26 -4h-13q-58 8 -98.5 15.5t-77.5 18.5t-74 27.5t-87 44.5q-27 27 -31 54q-1 7 -1 13q0 19 9 36q15 23 44 34t70 -2q40 -29 67.5 -45.5t53 -28.5t53 -21t13.5 -6q8 -13 1 0.5t-15.5 26t-22.5 30t-42 53.5q-26 33 -61.5 72.5t-69.5 84t-61 92 t-34 96.5q-2 13 -2 27q0 35 13 70q19 49 77 92q21 18 42 31t52 26z" />
<glyph unicode="t" horiz-adv-x="594" d="M414 801q49 3 74.5 -19.5t29 -49.5t-15.5 -53.5t-65 -35.5q-57 2 -95 -12.5t-65 -36.5q-21 -110 -31.5 -222.5t10.5 -213.5q3 -14 12 -28.5t11 -19.5q-1 0 6.5 -2l7.5 -2q35 23 67 54.5t70 64.5q40 14 70.5 6.5t46.5 -30.5q12 -18 12 -42v-4q-1 -28 -25 -57 q-44 -30 -70.5 -50t-44.5 -34t-35 -23.5t-39 -11.5q-12 -2 -25 -2q-10 0 -21 2q-26 1 -66 6q-24 3 -38 12.5t-25 31.5q-10 25 -19.5 49t-18.5 49q-6 15 -7 45.5t0.5 68t4 78t5 76.5t5 63.5t3.5 37.5q0 8 -30 -113q67 97 55.5 81.5t-26.5 -35.5q-37 -23 -68.5 -19.5t-50.5 23 t-22 45.5q-1 4 -1 9q0 23 18 52q38 29 74.5 54t64.5 45q7 77 14 161.5t11 171.5q8 40 35 59q24 17 51 17h8q33 -5 54.5 -29.5t19.5 -65.5q-9 -60 -22.5 -122t-14.5 -66q-20 -16 18 3t83 34z" />
<glyph unicode="u" horiz-adv-x="762" d="M649 852q-1 -32 -8 -61.5t-18 -57.5q-9 -70 -10.5 -131.5t5 -119.5t21 -117.5t36.5 -121.5q16 -17 17 -39q8 -14 15 -32t15 -35q5 -18 5 -32q0 -19 -9 -36q-13 -28 -42.5 -39t-62.5 1t-49 47q-4 4 -4 -33q-15 -10 -77.5 -36.5t-131.5 -42.5q-18 -4 -37 -7q-10 -2 -20 -2 q-13 0 -26 3q-12 3 -26 3.5t-31 2.5t-35.5 7.5t-32.5 19.5q-17 15 -38 35t-37 43q-19 28 -29 61.5t-15 64.5t-10.5 61.5t-8.5 62.5q-5 58 -5 117q0 58 2 116.5t5 116t3 116.5q8 41 35.5 60.5t59.5 16t53.5 -28.5t19.5 -65q-8 -70 -21 -141t-22 -142t-10.5 -141.5 t12.5 -137.5q11 -54 33 -83t49.5 -39.5t61.5 -7.5t71 16.5t72.5 35.5t63.5 49q17 16 26.5 27.5t18.5 23.5q-8 54 -14.5 113.5t-14.5 122.5q-5 34 -8 57t-6 44t-5 45t-5 58q-2 23 -3 46t-1 46q1 23 3.5 39.5t2.5 30.5q-2 8 -2 15q0 4 0.5 6l0.5 2v4q8 34 30.5 53t51.5 21h2 q28 0 50 -17q25 -19 34 -54v-10zM691 194q3 -6 -19 -16.5t-23 -8t42 24.5z" />
<glyph unicode="v" horiz-adv-x="743" d="M689 793q18 -26 19 -51v-4q0 -21 -11 -39q-13 -21 -38 -31.5t-37 -6.5q-46 -51 -92.5 -123t-84 -149.5t-69.5 -159.5t-60 -159q3 -25 -9 -47.5t-35 -32.5q-16 -8 -36 -8q-8 0 -18 2q-29 6 -56 32q-9 20 -19 37.5t-15 37.5q-23 80 -31.5 159.5t-20.5 159.5 q-18 106 -40 208.5t-36 212.5q8 36 30 55.5t51 21.5h2q29 0 51 -17q25 -19 35 -54q-4 -79 -4 -160.5t8.5 -164t26.5 -162t30 -105.5q21 33 65.5 109t85.5 155q19 38 37 76.5t37 76.5t40.5 75t49.5 74q61 51 123 5q7 -7 11.5 -12t9.5 -11z" />
<glyph unicode="w" horiz-adv-x="1248" d="M1051 866q21 37 55 46.5t62 -4t40 -42.5q5 -13 5 -27q0 -18 -9 -40q-50 -86 -100.5 -173.5t-85.5 -180.5q-34 -90 -56 -188t-46 -197q-16 -42 -27 -46q-9 14 -8 12t-1 0q10 -7 18 -18q23 -31 19 -61.5t-26 -49.5q-22 -20 -55 -20h-4q-36 2 -67 33q-48 61 -74 127.5 t-38 136t-14.5 141.5t-2.5 87q-6 -6 -39 -69.5t-61 -129.5q-5 -13 -10.5 -25.5t-10.5 -26.5q-3 -7 -5.5 -13.5t13.5 36.5q-5 -3 -11.5 -27.5t-7.5 -28.5t-3 -8t-2 -5l-12 -41q-4 -10 -7 -19.5t-4 -11.5q-2 4 0.5 1.5t7.5 -10.5q11 -34 1.5 -60t-34 -41t-56 -10t-58.5 33 q-5 8 -7.5 13l-2.5 5q-12 8 -22 26t-8 36q-40 90 -69.5 187.5t-63.5 194.5q-21 59 -43.5 116t-44.5 115.5t-41 117.5t-34 121q-1 9 -1 16q0 28 16 49q19 26 50 33q8 2 16 2q24 0 46 -13q28 -18 40 -57q7 -92 26 -189t48 -195t68.5 -192t63.5 -136q-8 -17 5 8.5t27 52.5 q18 32 41 72t49 78.5t56.5 73t69.5 56.5q13 6 25.5 9t25.5 8q29 2 45 -9.5t21 -32.5q13 -36 14.5 -78t5.5 -78q7 -58 17.5 -116.5t10.5 -57.5q14 34 53.5 121t74.5 178q37 95 68 191t68 194z" />
<glyph unicode="x" horiz-adv-x="811" d="M665 871q42 1 67.5 -15.5t33 -40.5t-3.5 -50t-45 -46q-27 -6 -45.5 -7.5t-34.5 -8.5q-20 -8 -42.5 -23t-45.5 -33.5t-43.5 -37.5t-36.5 -34l-30.5 -30.5t-21.5 -23.5q9 -15 22 -38.5t26 -44.5q72 -118 150.5 -232t155.5 -234q5 -17 5 -33q0 -13 -4 -26q-10 -27 -34 -42 q-20 -11 -42 -11q-8 0 -15 2q-30 4 -59 33q-68 148 -141 287.5t-140 240.5q-43 -58 -92.5 -155.5t-91.5 -201.5q-25 -31 -56 -38.5t-56.5 5.5t-36.5 39q-8 15 -8 35q0 10 3 26q65 108 135.5 203.5t136.5 182.5q4 -4 0 1.5t-9 13.5q-21 29 -43 60t-45.5 60t-49 54.5 t-55.5 47.5q-30 30 -31 61t18.5 53t55.5 27h9q30 0 61 -22q60 -57 106 -131.5t68 -116.5q26 33 79 92t121 111q24 19 52 25.5t53 15.5z" />
<glyph unicode="y" horiz-adv-x="898" d="M695 771q8 40 35.5 59.5t59.5 16t55 -29.5q18 -22 18 -56v-8q-4 -30 -15.5 -58.5t-22.5 -54.5q-35 -88 -72.5 -172.5t-75.5 -171.5q-19 -42 -35.5 -85t-32.5 -83q2 -18 -5.5 -36.5t-18.5 -26.5q-23 -60 -50.5 -123t-62.5 -123q-27 -44 -43.5 -75.5t-29.5 -52.5t-26 -36.5 t-30.5 -29.5t-43 -27.5t-64.5 -33.5q-11 -5 -24 -5h-3q-10 0 -18 3q-13 4 -27.5 8.5t-30.5 11.5t-29.5 18t-23.5 25q-15 26 -31.5 53.5t-25.5 58.5q-13 45 -19 97q-3 22 -3 45q0 30 5 57q8 51 33 96.5t77 74.5q20 12 47 12.5t50 -2.5t41 -7t26 -6q43 -12 60.5 -41t4 -50 t-39 -40.5t-70.5 -13.5q-19 4 -37.5 7.5t-21.5 4.5l-8 -5t-11 -10q-12 -26 -12 -64.5t3 -73.5t13 -67t28 -55q4 -4 14 -7.5t11 -3.5q5 3 23 8t28 16q23 26 43 52t36.5 52.5t31 55t27.5 60.5q17 39 32.5 77t25.5 66q-6 6 -15 28q-6 20 -13.5 39.5t-13.5 42.5v0 q-24 61 -50.5 123.5t-58.5 121.5q-22 40 -45 79t-44 79t-40 82t-32 89q-5 39 14.5 65t50.5 33q8 2 16 2q24 0 46 -13q28 -18 40 -57q5 -82 28.5 -154t58.5 -139.5t76.5 -133t53.5 -85.5q6 16 28.5 83t45.5 134q17 48 33.5 96t31.5 96q6 20 14 44t10 44zM437 134q-3 3 -3 3.5 t172 -171.5l-123 184z" />
<glyph unicode="z" horiz-adv-x="930" d="M74 677q-3 29 6.5 51t29 35t46.5 13q26 0 42 -11h-7q35 2 69.5 2t69.5 -1l-4 -20t-13.5 -20.5l-9.5 -0.5l-10 40q78 0 155.5 2t157.5 -6q10 -1 28 -2.5t39 -4t42 -7t35 -13.5q46 -32 25 -83q-6 -11 -11.5 -16t-9.5 -9q-16 -18 -32.5 -38.5t-35.5 -38.5q-28 -27 -59 -50.5 t-62.5 -45t-63.5 -42.5t-61 -43q-83 -59 -146 -127t-72 -84q-25 -15 29 0t111 22.5t115 9.5t114 2.5t107.5 1.5t95.5 7q46 3 71.5 -19t29.5 -51v-7q0 -23 -15 -45q-20 -27 -64 -36q-38 -2 -56 -3.5t-33 -2t-34 0t-57 2.5q-45 2 -90.5 6.5t-90.5 6.5t-88 -1.5t-83 -15.5 q-52 -15 -89.5 -44.5t-60.5 -79.5q-3 -6 -6.5 -11t-4.5 -7q-1 -5 -1 -29q-51 0 -51 -88q37 78 14 69q-13 -5 -25 -5q-8 0 -17 2q-24 8 -36 27q-7 12 -7 27q0 8 1 16q18 72 42.5 133t57.5 117t75.5 107.5t94.5 105.5q29 30 61.5 56t66 49.5t66 46t61.5 48.5q19 15 34.5 28 t28.5 28q6 6 11 11.5t-9 -14.5q15 -1 -2.5 0t-46.5 1q-70 0 -139.5 -6.5t-140.5 -10.5q-21 -1 -46.5 -3.5t-53 0.5t-52.5 17.5t-36 50.5z" />
<glyph unicode="{" horiz-adv-x="646" d="M463 1263q30 27 64 27h5q36 -3 56 -23.5t23 -50.5v-5q0 -29 -26 -59q-37 -30 -75.5 -48.5t-73.5 -37t-63 -42.5t-45 -62q-10 -23 -14 -48.5t-4 -51.5t2 -53.5t3 -54.5q2 -45 0.5 -88.5t-9.5 -88.5q-9 -44 -40.5 -76.5t-30.5 -31.5q-36 12 -30 9l12 -6q28 -14 51.5 -38 t44.5 -54.5t39 -65t31.5 -69t22 -67.5t10.5 -59q2 -24 0 -48.5t-7 -48.5q-7 -29 -23.5 -68t-33 -77.5t-26.5 -72t-6 -52.5q3 -9 14.5 -16t33 -12.5t47.5 -8t49 -2.5h40.5h25.5q40 -11 57 -34t16.5 -48t-20 -46.5t-61.5 -30.5q-45 6 -96 10t-101.5 17.5t-92 44.5t-57.5 88 q-12 39 1 85t33.5 91t41.5 86.5t30 72.5q10 38 3 87.5t-25 99t-45 89.5t-56 61q-11 7 -23 10.5t-25.5 5t-30 1t-40.5 2.5q-35 17 -38 43q-1 2 -1 8q0 23 23 41q23 17 45.5 24t41 13t34.5 15.5t33 30.5q5 7 8 20.5t4 29t0 31t-1 25.5q-1 39 -6 79.5t-8 81.5t-1 82.5t19 84.5 q15 39 34.5 68.5t42.5 50.5t47 36t49 29t49 29t49 36z" />
<glyph unicode="|" horiz-adv-x="228" d="M17 1223q8 36 29.5 55.5t51.5 21.5h2q29 0 51 -17q25 -19 35 -54q-9 -150 -20 -297t-19 -294t-12 -294t1 -294q2 -56 3 -114.5t5.5 -117t14.5 -114.5t29 -108q5 -16 5 -32q0 -17 -8 -33q-15 -30 -42 -41q-15 -6 -31 -6q-17 0 -33 7q-33 12 -51 51q-12 44 -18 70.5 t-8 52.5t-2 58v86q0 55 1 98.5t2.5 81.5t3.5 74t4 75t3.5 83.5t3.5 100.5q7 225 5.5 449.5t-6.5 451.5z" />
<glyph unicode="}" horiz-adv-x="653" d="M92 1192q-44 6 -65 30.5t-20.5 52t23.5 50.5t69 26q31 -2 59.5 -9.5t54.5 -20.5q32 -16 65.5 -42.5t63.5 -59t56 -71t43 -78.5t23.5 -79.5t-0.5 -76.5q-7 -33 -23.5 -71.5t-30 -77.5t-19 -74t6.5 -61q11 -26 32.5 -46.5t47.5 -38t55 -31.5t57 -27q28 -19 28 -44 q-2 -27 -33 -46q-54 -14 -96 -47.5t-73 -80t-48.5 -100.5t-17.5 -107q0 -37 4.5 -73.5t8.5 -73.5t5.5 -75.5t-4.5 -77.5q-9 -56 -40.5 -101t-76.5 -70q-46 -25 -99 -25h-4q-59 2 -113 41q-30 29 -31 61v3q0 30 18 49q20 23 55 27.5t70 -21.5q4 -3 12.5 -3.5t18.5 2.5t18 9 t11 14q9 25 12.5 43t5.5 43q3 35 2 70.5t-2.5 71t-1.5 72t4 73.5q5 48 26.5 99t54.5 97t75 84t56 46q5 -3 -25.5 14.5t-57.5 39.5t-47 49.5t-29 61.5q-14 61 -4 115.5t30 109.5q8 21 16.5 45t9.5 46q2 38 -19.5 84t-57 86.5t-78 66.5t-81.5 27z" />
<glyph unicode="~" horiz-adv-x="1072" d="M142 298q-37 -23 -68.5 -19.5t-50.5 23t-22 45.5q-1 4 -1 9q0 23 17 51q3 3 46 63t12 -63q0 -6 166 326q-193 -289 -175.5 -256.5t41.5 59t60 40.5q27 10 61 10q17 0 35 -2q39 -4 68.5 -27t51.5 -44q32 -30 64.5 -62.5t65.5 -62.5t68.5 -54.5t74.5 -38.5q40 -13 76 -9 t64 37t47.5 73t44.5 81q32 27 64 28t54 -14t30 -44q1 -9 1 -19q0 -18 -8 -40q-27 -35 -52.5 -72t-58 -70.5t-74.5 -57.5t-98 -26h-11q-52 0 -97 18q-47 18 -90.5 46t-82 61.5t-73.5 62.5q-14 10 -33.5 27t-40.5 33t-42 28.5t-38 18.5q0 -1 -4.5 -2.5t161.5 35.5 q-130 0 -164 -34q-23 -35 -40.5 -75.5t-48.5 -82.5z" />
<glyph unicode="&#xa1;" horiz-adv-x="162" d="M0 0zM0 -285.931q8 -35.9971 29.5 -55.4961t51.5 -21.499h2q29 0 51 16.999q25 18.999 35 53.9971q-2 30.998 -5.5 70.9951q-3.5 39.998 -7 81.4951q-3.5 41.498 -6 77.9951q-2.5 36.498 -2.5 56.4971q0 77.9951 1.5 133.491q1.5 55.4971 5.5 105.994t9.5 102.993 q5.5 52.4971 12.5 125.492q-2 39.998 -25.5 63.4961q-23.5 23.499 -55.5 23.999t-57.5 -20.499q-25.5 -20.998 -30.5 -61.9961q5 -53.9961 8.5 -92.4941t6.5 -70.9961t4.5 -61.4961t2 -63.9961t-0.5 -77.9951t-3 -102.993q0 -7 -1.5 -26.999t-4 -45.9971t-5.5 -55.4961 q-3 -29.499 -6 -58.4971t-5.5 -53.9961q-2.5 -24.999 -3.5 -42.998zM0 738.007q8 -34.998 30 -54.9961q22 -19.999 51 -20.499t53.5 17.499t34.5 52.9971v17.998q-2 39.998 -25.5 63.4961q-23.5 23.499 -44.5 23.499l-1 1q-44 0 -68 -21.999q-25 -19.998 -30 -59.9961 v-18.999z" />
<glyph unicode="&#xa2;" horiz-adv-x="874" d="M422 872q7 -2 28 -13q56 -29 89 -73q10 -15 22 -30t22 -30q10 -10 10 -17q-1 2 2.5 -2t7.5 -13q14 -47 -12.5 -81t-74 -27.5t-67 31t-16.5 45.5q-21 34 -56 62q-4 3 33 -34l-3 -52q-8 -147 -12 -293q-3 -129 -1 -233q-8 -1 9 2q84 17 165.5 41.5t168.5 45.5 q40 1 65.5 -15.5t33.5 -40.5q3 -10 3 -20q0 -14 -6 -29q-12 -27 -47 -48q-61 -10 -135.5 -26.5t-152.5 -27.5q-63 -10 -100 -13q0 -13 1 -45q1 -59 5.5 -117.5t14.5 -114.5t29 -109q11 -37 -3.5 -65.5t-41.5 -39.5q-15 -6 -31 -6q-17 0 -33 7q-33 12 -51 51q-12 44 -18 70.5 t-8 52.5t-2 58v86q0 55 1 98.5t3 81.5v-9q-23 1 -62 12q-61 17 -98 52.5t-57.5 80t-29 95t-11.5 100.5q-2 28 -3.5 65.5t-1.5 77.5q-1 8 -1 17q0 34 2 69q2 42 8 83t18.5 77t33.5 62q11 14 23 27.5t26 28.5q39 42 100 59q48 12 72 11q-2 152 -6 326q8 36 29.5 55.5 t51.5 21.5h2q29 0 51 -17q25 -19 35 -54q-9 -150 -20 -297q-3 -37 -4 -60zM283 765q-15 3 -49 -9q-36 -13 -65 -55q-15 -21 -23 -45t-13 -50t-8.5 -53t-57.5 -377l50 327q-2 -36 -3.5 -77.5t0.5 -83.5t9.5 -82.5t23 -72.5t38 -52.5t55.5 -28.5q17 -4 38 -4q9 -1 -9 -1 q1 8 2 37q2 39 3.5 83.5t3.5 100.5q7 225 6 448q-1 4 -1 -5z" />
<glyph unicode="&#xa3;" horiz-adv-x="912" d="M784 760q42 -13 59 -36t16.5 -47.5t-20 -46t-60.5 -30.5q-64 5 -124.5 9t-97.5 3q-1 -14 -6 -46.5t-15 -63.5q-19 -62 -43 -121t-45 -98q58 -22 135 -55.5t161 -60.5q32 -23 41 -49t-0.5 -50t-36 -39t-67.5 -10q-77 31 -146 65.5t-140 66.5q-9 4 -21 10t-1 1 q-14 -20 -44 -55t-66 -67q-17 -16 -35.5 -21.5t-36.5 -14.5q-16 -3 -25 -3q-14 0 -15 1q-1 0 -20 8q-10 7 -17 12t-17 11q-12 12 -16 22t-7 24q2 22 1 44t7 45q6 16 10.5 34t9.5 36.5t13.5 36.5t22.5 34q23 27 56 32.5t64.5 1t59 -14t27.5 -8.5q14 24 31 65.5t28 81.5 t17.5 81t8.5 57q23 3 17 2.5t-12 -1.5q-85 -11 -170 -33t-176 -43q-42 6 -63.5 26t-24.5 44q-1 4 -1 9q0 20 13 40q15 24 54 39q93 3 180 4.5t173 12.5q10 1 19 2t-2 0q2 37 3.5 92.5t6.5 116.5q2 20 4 54.5t7 75.5t14 84t24 81.5t40.5 67.5t63.5 38q23 6 43 6t36 -5 q29 -10 51.5 -25.5t39 -29t36.5 -17.5q42 -12 60 -40q11 -20 11 -40q0 -6 -1 -13q-7 -28 -34 -48t-72 -15q-36 9 -60.5 26t-47.5 36q-5 4 -14.5 11t-8.5 7q-2 0 -3.5 0.5t8.5 0.5q-5 -3 -10 -16t-11 -33q-24 -84 -35 -170t-20 -174q-2 -18 -3 -38t-1 -14q30 5 91 15t129 19z M205 136q-5 -2 24.5 27t41.5 45q4 -2 -14.5 3t-16.5 5q-4 -11 -15.5 -34t-18.5 -47q-2 -8 -3 -17t2 18zM647 1212q-162 0 -84 -19.5t132 -19.5q-39 39 -48 39z" />
<glyph unicode="&#xa5;" horiz-adv-x="1133" d="M393 524q35 -35 30 -30q-57 80 -105.5 163t-103.5 162q-26 38 -55.5 75t-57.5 75.5t-53.5 79.5t-45.5 89q-2 9 -2 16q0 24 11 43q14 26 41 36.5t56.5 0.5t53.5 -42q11 -58 31.5 -109t47.5 -99.5t59 -94.5t62 -87h1q51 -57 96 -108t101 -105q0 -1 -29 28q-5 -7 10 17.5 t34 55.5q88 147 183 284t192 280q31 26 63 27h5q28 0 49 -14q22 -16 30 -44q1 -9 1 -19q0 -18 -8 -40q-80 -95 -161.5 -187t-154.5 -189t-131 -202q-24 -43 -30 -57q44 4 127 12q103 9 211 17q41 -12 58 -35t16.5 -47.5t-20 -46t-60.5 -30.5q-107 9 -209 19q-91 8 -166 6 q-8 -23 -19 -61q-2 -10 0 3q50 -2 122 6q91 9 154 18.5t130 22.5q47 3 72.5 -19.5t29 -49.5t-15.5 -53.5t-65 -35.5q-91 2 -179.5 7t-175.5 2q-57 -2 -96 -6q-4 -21 -6.5 -54t-3 -70.5t-2.5 -97.5q-13 -36 -38 -51q-23 -13 -46 -13h-8q-30 4 -50.5 25.5t-25.5 56.5 q7 49 10 96t18 94q4 14 -1 -4q-33 -4 -104 -11q-46 6 -67 30.5t-20.5 52t23.5 50.5t70 26q82 -8 139 -13q2 4 9 24q9 24 5 14q-22 -3 -83 -16q-93 -21 -185 -54q-45 -9 -74.5 8.5t-37.5 44t5.5 54.5t55.5 45q78 14 151 19t147 7q21 1 -15 3z" />
<glyph unicode="&#xa6;" horiz-adv-x="227" d="M23 234q8 36 30 56t51 20.5t53.5 -17.5t34.5 -54q-6 -45 -12 -81.5t-14 -78.5q-1 -6 -5.5 -27t-9 -44t-8.5 -44t-5 -27q-2 -13 -1.5 -27.5t-48.5 -32.5v112t51 -98q3 -21 3.5 -42t3.5 -40q4 -22 7.5 -38t8 -30.5t10.5 -30t15 -40.5q-1 -37 -19.5 -59.5t-46.5 -28.5 q-10 -2 -17 -2q-21 0 -40 11q-27 13 -44 48q-2 25 -5.5 46.5t-3.5 45.5q0 56 7 109.5t11 107.5q6 70 3 141.5t-9 144.5zM10 1223q8 36 29.5 55.5t51.5 21.5h2q29 0 51 -17q25 -19 35 -55q-10 -64 -24 -128t-18 -123q-2 -25 1.5 -49t8.5 -49t9.5 -50.5t5.5 -46.5 q17 -20 10.5 -55t-52.5 -62q2 0 1.5 -0.5t-11.5 -0.5q-36 -7 -62.5 5.5t-43.5 47.5q-4 19 -4 39q0 12 1 25q3 35 8 71.5t10.5 70.5t6.5 59q4 59 -2 119t-14 122z" />
<glyph unicode="&#xa7;" horiz-adv-x="662" d="M236 791q19 6 0 3q-5 8 -25 39.5t-40 64.5q-21 38 -34.5 78.5t-27 74.5t-18 71.5t7.5 70.5q8 19 15.5 41.5t24.5 41.5q38 45 97 56q77 4 107 -2q54 -10 102.5 -35.5t81.5 -55.5q22 -20 43 -48t35 -59t16.5 -65.5t-15.5 -69.5q-24 -30 -55 -37.5t-56 5.5t-37.5 38.5 t-5.5 57.5q0 4 1 6q0 1 -1 6t-2 8q-14 23 -29 44t-32.5 37t-38 27.5t-41.5 17.5q-72 -8 -81 -23t-11 -43.5t6 -59.5q15 -68 46.5 -125.5t71.5 -111.5t84 -107t84 -112q9 -13 24.5 -36.5t31.5 -52t30.5 -59.5t23 -62t8.5 -60q0 -32 -14 -57q-13 -20 -27.5 -35.5t-29.5 -34.5 q-36 -22 -67.5 -18.5t-50.5 22.5t-22.5 46.5t16.5 59.5q11 10 18.5 16t9.5 12q6 13 0 40.5t-19 58t-28.5 57.5t-23.5 41q-18 31 -38 62t-13 20q15 38 11.5 32.5t-10.5 -14.5q-14 -9 -25.5 -16.5t-26.5 -13.5q-18 -7 -34.5 -10.5t-32 -5.5t-29 -5.5t-26.5 -8.5 q-4 -1 -8.5 -4.5t-6.5 -7.5q-16 -27 -11 -43t7 -23t5 -14.5t8.5 -17.5t15.5 -29q7 -14 16.5 -27t18.5 -26q11 -13 25 -28t30 -31.5t31 -32t27 -27.5q45 -46 92 -93t80 -106q21 -34 34 -73.5t18 -79.5q4 -38 1 -89t-18 -101t-44 -94t-76 -64q-16 -7 -35.5 -16.5t-46.5 -9.5 q-17 2 -33 3t-34 3q-42 5 -63 30t-20.5 52t23.5 50.5t70 26.5q19 -3 29 -5.5t16.5 -3t12.5 0t14 5.5q12 5 23 19t18 28q33 63 33 134.5t-31 134.5q-22 46 -54.5 83t-69.5 71.5t-76 68.5t-74 73q-21 23 -32.5 38.5t-20 29.5t-17 30.5t-21.5 41.5q-4 6 -12.5 34.5t-8.5 72.5 q5 32 15 57.5t31 49.5q20 25 47 37.5t52.5 21l48 16t42.5 22.5z" />
<glyph unicode="&#xa8;" horiz-adv-x="534" d="M383 1217q29 -8 42.5 -20.5t18.5 -24.5q12 -6 28.5 -24t22.5 -38q4 -12 4 -23t-4 -21q-7 -24 -41 -44h8q-5 -10 -29.5 -21.5t-46.5 -7.5q-35 -13 -69.5 0t-47.5 68q-2 13 0 32t3 29q4 22 11 36t18 33q18 16 32 21t35 6q5 0 8 -0.5t7 -0.5zM188 1106q0 1 -1 2q8 -18 8 -36 t-6 -33q-13 -36 -44 -48q-19 -9 -39 -9q-27 0 -47 15q-11 4 -24 14q-19 13 -28 42q-7 22 -7 45q0 5 1 11q1 27 14 53.5t45 34.5q39 8 59 -9.5t69 -81.5z" />
<glyph unicode="&#xa9;" horiz-adv-x="1249" d="M658 1281q28 -9 52.5 -22.5t4.5 -3.5q3 -19 13.5 1t31 31.5t48.5 10.5t56 -22q44 -42 90 -97t88 -119t78 -133.5t59.5 -140t31.5 -139.5q3 -27 3 -53q0 -42 -8 -80q-19 -87 -66 -160t-113.5 -129t-148 -95t-168.5 -58t-175 -19q-89 0 -169 23q-59 17 -111 46t-101 54 q-58 29 -90.5 78.5t-47 109t-15.5 124.5q-1 12 -1 25q0 53 6 104q6 61 16.5 116.5t22.5 94.5q12 43 29 97.5t41 107.5t57 100t78 77q19 12 38.5 24t39.5 24q31 18 75 28t91 13h34q27 0 54 -2q43 -4 76 -16zM1068 535q7 66 -9.5 136t-48.5 139t-75.5 134t-77.5 103 q-10 -6 -48 -1q-34 5 -62 18.5t-52.5 28.5t-48 28t-47.5 20q-13 5 -29.5 7t-34.5 2.5t-34.5 0.5t-27.5 -1q-41 -3 -77 -16q-31 -12 -59 -34q-33 -26 -58.5 -61t-45 -74.5t-34.5 -83t-28 -85.5q-20 -67 -33.5 -135t-15 -131t11.5 -119.5t44.5 -102.5t85 -80.5t133.5 -53.5 q59 -14 129.5 -12.5t143.5 18t141.5 47.5t123 75.5t90 102.5t43.5 130zM768 886q11 -37 -2 -65t-41 -40.5t-60 -3t-48 36.5q7 -3 4 -3t-8 1q-20 3 -43 2t-47 -3q-41 -4 -68 -12t-47.5 -21.5t-38 -36t-35.5 -48.5q4 -11 5.5 -26t7.5 -24q30 -41 83 -70.5t116 -46.5 t126.5 -21.5t111.5 4.5q29 4 58.5 16t65.5 24q41 1 66.5 -15.5t33 -40.5t-3.5 -50t-45 -46q-48 -10 -74 -16t-44 -10t-33 -4.5t-34.5 0.5t-47.5 3.5t-74 6.5q-47 5 -92.5 18.5t-86.5 34.5q-29 15 -59 30.5t-59.5 33t-56 40t-48.5 52.5q-34 49 -36.5 94t16.5 84t55 72 t79 57.5t88.5 39.5t86.5 22q29 4 60 6.5t62.5 -2.5t59.5 -21.5t47 -51.5z" />
<glyph unicode="&#xaa;" horiz-adv-x="452" d="M0 425zM350.231 995.372q14.2949 -21.0137 13.9707 -39.3154q-0.325195 -18.3018 -11.3711 -32.1982q-11.0469 -13.8955 -31.1895 -17.624q-20.1436 -3.72852 -44.1855 7.79492q-5.19824 4.06738 -7.79688 6.7793q-2.59961 2.71094 -5.19824 3.38867 q-1.2998 1.35547 -9.09766 -1.0166q-7.79688 -2.37207 -19.168 -9.15137q-11.3711 -6.77832 -22.418 -15.5908q-11.0459 -8.81152 -16.2441 -12.8789q-2.59961 -2.71191 -6.82227 -9.49023q-4.22363 -6.77832 -17.8691 -12.2012h4.54785 q-34.4385 -44.0605 -61.7285 -103.373q-27.291 -59.3125 -33.7891 -125.064q-2.59863 -25.7588 -5.19824 -50.8389q-2.59863 -25.0811 -1.29883 -50.1621q0 -0.677734 3.89844 -3.72754q3.89844 -3.05078 1.29883 2.37207q-5.84766 -2.71094 0.650391 -1.35547 t9.09668 4.06641q39.6367 33.2158 75.375 80.3262q35.7373 47.1113 66.6025 99.9844q30.8643 52.873 55.8809 108.118t44.5098 106.762q11.0459 19.6582 27.291 27.792q16.2441 8.13477 33.1387 5.42383q16.8945 -2.71191 28.915 -14.2354t13.9707 -25.0811 q1.94922 -2.71094 3.89844 -7.79492t3.89844 -12.541q-1.94922 -17.624 -3.24902 -32.876q-1.29883 -15.251 -4.54785 -31.5195q-7.14746 -37.2822 -15.2705 -74.5645q-8.12207 -37.2822 -12.6699 -73.5479q-4.54883 -36.2646 -2.27441 -72.1914t16.5693 -71.8525 q4.54785 -10.8457 10.7207 -22.3691q6.17383 -11.5244 12.6709 -24.4033q3.24902 -12.2012 3.24902 -21.6914q0 -12.2012 -5.84766 -23.7246q-9.09766 -18.9805 -26.6416 -26.4365q-9.74609 -4.06738 -20.1426 -4.06738q-11.0469 0 -21.4434 4.74512 q-21.4424 8.13379 -33.1387 34.5703q-9.09668 36.6045 -12.0205 63.041t-2.92383 51.1777q0 24.7422 2.27344 50.501q2.27441 25.7578 4.87402 61.0068q1.2998 20.3359 2.27441 40.6709q0.974609 20.3359 0.974609 -15.5898q-3.89941 -6.7793 -43.2109 -59.6514 q-39.3115 -52.873 -81.5469 -105.746q-15.5947 -20.3359 -35.4131 -42.7051t-46.46 -33.2148q-12.9951 -5.42285 -25.3408 -9.49023q-12.3457 -4.06641 -26.6416 -9.48926q-13.6445 -2.03418 -22.7422 1.0166q-9.09668 3.0498 -19.4932 11.8623 q-7.14746 12.2012 -16.8945 23.7246q-9.74609 11.5234 -14.2949 27.793q-4.54883 16.2676 -5.19824 33.2148v12.2012q0 10.168 0.649414 19.6582q0.650391 15.5898 2.27441 30.8418q1.625 15.252 2.27441 30.8428q1.2998 36.6045 10.3965 75.5811t23.7168 76.2588 t33.4639 71.8525t40.9365 63.7188q14.2949 18.9795 36.7119 39.6543q22.418 20.6748 49.0586 35.5879q26.6406 14.9121 56.5312 20.3359q9.09668 0.677734 16.2441 0.677734q23.3926 0 44.835 -10.8457q9.74707 -4.74512 16.8945 -11.1846q7.14746 -6.44043 16.2441 -12.541 z" />
<glyph unicode="&#xab;" horiz-adv-x="899" d="M315 905q32 28 66 28h5q36 -3 56.5 -23.5t22 -51t-24.5 -62.5q-34 -33 -63 -67.5t-56 -71.5t-54.5 -75t-56.5 -75q-11 -15 -23 -30.5t-26 -30.5q-11 -12 -23 -24.5t-9 -9.5q15 -11 43 -40.5t50 -60.5q29 -41 54.5 -82t54.5 -79q-260 261 -152.5 123t103 -132t-119 153 t150.5 -118q32 -30 57 -58t63 -54q23 -31 22.5 -57.5t-17.5 -47t-48 -26.5t-69 12q-55 49 -93 101.5t-69 114.5q-24 48 -48.5 91t-61.5 80q-6 7 -15.5 15.5t-18.5 20.5t-12 23q-3 5 -3 14q0 11 6 22q20 40 50 73.5t52 67.5q18 28 34 56.5t33 58.5q32 58 64.5 113t75.5 109z M675 838q19 33 48 45t57 3.5t43.5 -33t14.5 -59.5q-17 -47 -42.5 -88t-55.5 -78t-62.5 -72t-63.5 -68q-23 -24 -44.5 -46t-32.5 -36q10 -9 32.5 -28t43.5 -44q39 -44 72 -91.5t67 -91.5q22 -24 44.5 -48.5t47.5 -49.5q20 -28 20 -54v-7q-4 -32 -26 -51q-22 -20 -55 -20h-4 q-36 2 -67 33q-29 36 -52.5 73t-45 74t-43 74.5t-43.5 72.5q-17 26 -57 71t-50 57q-7 17 -6.5 29t8.5 25q31 53 70 101.5t75 97t65 99t42 110.5z" />
<glyph unicode="&#xac;" horiz-adv-x="1015" d="M87 652q-46 6 -67 32q-20 22 -20 56l1 1q0 21 23 44t69 26q110 -8 215.5 -13t212.5 -7q245 0 122 -20.5l-123 -20.5q7 40 20 40t26 1q41 3 78.5 9.5t72.5 9.5q17 2 35 2q17 0 34 -2q34 -4 63 -22t50.5 -51.5t36.5 -88.5q11 -37 21.5 -74t22.5 -77q-1 -36 -19.5 -58.5 t-46.5 -28.5q-10 -2 -17 -2q-21 0 -40 10q-27 14 -44 49q-2 19 -5 51t-7.5 65.5t-11.5 61.5t-14 39q-6 10 -20 13.5t-34 4t-40.5 -2t-34.5 -3.5q-140 -8 -277.5 -20.5t-281.5 -23.5z" />
<glyph unicode="&#xad;" horiz-adv-x="651" d="M540 490q42 -13 58 -34q18 -24 18 -48v-1q-1 -26 -20.5 -47t-61.5 -30q-61 8 -115.5 16.5t-109.5 8.5q-24 0 -51 -3.5t-54.5 -8t-55.5 -11t-60 -11.5q-47 6 -68 32q-20 22 -20 56l1 1q0 21 23 44t70 26q57 -8 111.5 -18t104.5 -7q55 4 111 14.5t119 20.5z" />
<glyph unicode="&#xae;" horiz-adv-x="1145" d="M205 1275q50 29 115.5 43t136 14t142 -12.5t87.5 -18.5q4 -11 12 13.5t28 39.5t50 15h3q29 -1 61 -24q40 -57 77.5 -110t75.5 -107q2 -3 5.5 -7t7.5 -12q21 -58 43 -118t38 -123t22 -128q1 -21 1 -41q0 -45 -8 -90q-10 -52 -21 -103.5t-22 -103.5q-6 -27 -17.5 -51.5 t-25 -47.5t-27.5 -44.5t-26 -43.5q-13 -22 -31 -40t-37.5 -32.5t-39 -28t-36.5 -27.5q-21 -17 -46 -24.5t-49 -11t-46.5 -5.5t-43.5 -6q-22 -5 -45 -5t-47 5q-45 9 -89 30.5t-85 52t-77 64t-65 68.5t-50 65q-50 73 -78 139t-45 133t-27 140.5t-23 163.5q-3 23 -3 47 q0 10 1 19q1 34 8.5 68t22 64.5t38.5 54.5q30 30 61.5 65.5t73.5 60.5zM931 433q20 65 27.5 135.5t2 141.5t-22.5 139.5t-37 113.5l-24.5 7t-47.5 31q-12 21 -19 40t-18 30q-33 34 -84 60.5t-111 42t-123 19.5t-119 -7t-102 -38t-74 -75q-28 -47 -39.5 -108.5t-9.5 -130.5 t17 -141.5t39.5 -140.5t56 -128t67.5 -104q36 -45 80 -80.5t92.5 -57.5t97.5 -30t96.5 2t92.5 39.5t85 83.5q25 35 44 74.5t33 81.5zM311 919q-1 15 -1 17q-11 10 -16.5 32t2.5 42.5t30 36.5t58 17q49 -3 95.5 -8.5t92.5 -21.5q48 -17 95.5 -46t83 -69t54 -90.5t7.5 -108.5 q-16 -81 -71.5 -123.5t-133.5 -54.5q-15 -2 -34.5 -3.5t13.5 2.5l30.5 -32t60 -65.5t58.5 -66t61 -63.5q25 -33 21 -63t-27 -50t-58.5 -19t-66.5 32q-30 38 -58 75.5t-55 75.5q-14 20 -26.5 38t-27.5 35q-12 14 -25 30t17 -6q0 -9 4.5 -64t9.5 -112q-2 -40 -25.5 -63.5 t-55.5 -24t-57.5 20.5t-30.5 62q10 75 22.5 158.5t15.5 168t-9 164t-53 147.5zM486 651q3 0 35 -3t47 -3q16 1 30.5 2t29.5 4q18 4 30 12.5t21 25.5q23 41 15 76.5t-35 63t-65.5 46.5t-74.5 27l-30 5q4 -16 5.5 -52.5t0 -72.5t-4.5 -73t-4 -78v20z" />
<glyph unicode="&#xaf;" horiz-adv-x="1318" d="M1084 1369q-1 0 6 2t19.5 5l25 6t13.5 3q21 19 51 19.5t52 -15.5t29 -43q3 -10 3 -21q0 -17 -8 -38q-24 -35 -67.5 -48.5t-89.5 -16.5q-27 -2 -52 -2q-18 0 -35 1q-39 2 -63 3q-102 5 -199 22t-194 32q-123 19 -242.5 28.5t-246.5 7.5q-45 6 -66 32q-20 22 -20 56l1 1 q0 21 23 44t70 26q37 -4 60 -6t39.5 -4t29.5 -3.5t30 -5t39 -8t57 -11.5q63 -13 125 -27t124 -25.5t123 -20t124 -10.5q42 -2 68 -1.5t49 2.5t49.5 6t72.5 10z" />
<glyph unicode="&#xb0;" horiz-adv-x="782" d="M92 1172q30 33 69.5 55t82.5 33t88 12t56 -1q0 4 23.5 27.5t72.5 26.5q53 -15 99 -34t84 -58q16 -16 30.5 -38t25.5 -46t17.5 -48.5t6.5 -48.5q0 -44 -0.5 -89t-9.5 -89q-14 -61 -52.5 -109t-91 -82t-112.5 -52.5t-118 -21.5h-8q-24 0 -58 5q-41 6 -83 18t-80.5 33 t-55.5 51q-17 31 -36.5 61.5t-29.5 67.5q-12 41 -12 86q0 44 11 87t31.5 82.5t49.5 71.5zM551 806q21 25 35.5 63t19.5 80t-2 82.5t-20 59.5q39 0 39 13q-18 -22 -31 -29.5t-41 -14.5q-42 7 -68 20t-54 24q-32 14 -63 20.5t-61.5 4.5t-58.5 -12.5t-54 -31.5q-14 -13 -29 -32 t-17 -36q-2 -19 -5.5 -38t-6 -37.5t-3.5 -37.5t1 -36q5 -43 27 -72.5t53 -48.5t68.5 -26.5t75.5 -4.5q53 4 106 26.5t89 63.5z" />
<glyph unicode="&#xb1;" horiz-adv-x="1057" d="M436 1023q8 36 29.5 55.5t51.5 21.5h2q29 0 51 -17q25 -19 35 -55q-9 -83 -18.5 -163t-19.5 -138q15 -1 56 -2t87 -2q5 0 25 0.5t48 0.5t60 -1.5t62 -6t56.5 -12.5t40.5 -25q20 -27 20 -53v-6q-4 -31 -24.5 -50.5t-54 -22t22.5 -48.5q-48 96 -48.5 96.5t63.5 -63.5 q-98 32 -107 35t-13 4q-13 0 -61 48q73 -8 -78 22t152 -71q-73 18 -161.5 32.5t-154.5 20.5q-1 -29 2 -73t12 -87.5t26 -89t44 -97.5q11 -39 -3 -67.5t-43.5 -39.5t-62.5 1t-51 51q-18 61 -26 109t-10.5 94.5t-1.5 94.5t2 108v2q-74 3 -164 -6t-167 -36q-45 -9 -74.5 8.5 t-37.5 45.5q-3 9 -3 19q0 17 9 34q13 28 55 45q54 10 105.5 11t101.5 -2t99.5 -8t98.5 -8q12 0 12.5 -0.5t-34.5 -0.5q0 58 -3 135t-8 157zM913 252q47 3 72.5 -19.5t29 -49.5t-15.5 -53.5t-64 -35.5q-2 0 -7 -1t-4 -1q-7 -2 -19.5 -6.5t-25.5 -7.5q-44 -14 -83 -14.5 t-86 2.5q-46 3 -90 10t-88 12q-111 13 -215.5 7t-218.5 -37q-43 7 -64.5 27t-25 44.5t12 48.5t53.5 38q53 6 102 9.5t100 -1.5q68 -5 133.5 -16.5t131.5 -17.5q62 -6 123 -3.5t-236 -30.5q354 0 353 0.5t3 0.5q-30 4 -39 21.5t14 21t35 4.5t21 2t5 -0.5t0 -11.5 q9 -27 21.5 -19t9 5t-17 -11.5t-33.5 11.5q-10 20 12.5 31t40 18.5t34.5 14t26 8.5zM566 735.5q-2 -19.5 -2 551.5q4 -532 2 -551.5zM867 612q-25 -40 -66 1q65 0 65.5 -0.5z" />
<glyph unicode="&#xb2;" horiz-adv-x="498" d="M0 291zM449.946 399.938q21.2539 -6.19629 29.5479 -17.04q9.33008 -12.3926 9.33008 -24.7852v-0.516602q-0.518555 -13.4248 -10.626 -24.2686q-10.1084 -10.8438 -31.3623 -15.4912q-41.4697 4.64746 -80.8652 9.03711q-39.3965 4.38867 -77.2373 1.80664 q-26.9561 -1.54883 -53.3926 -7.22852q-26.4375 -5.67969 -47.6904 -11.3604v0q-15.5508 -6.19629 -26.4365 -9.55273t-21.7715 -7.4873q-7.77637 -1.54883 -13.9961 -1.54883q-6.73926 0 -11.9229 1.54883q-12.4414 3.09863 -19.957 9.55273 q-7.5166 6.45508 -11.4043 14.9746t-2.85156 13.6836q-6.21973 7.74512 -8.29395 23.752q0 5.68066 1.03711 7.22949q6.2207 33.5635 37.3223 36.1455q12.4414 7.22852 26.9561 14.9736q14.5137 7.74512 27.9922 16.5234q15.5508 10.8438 31.1016 24.7852 q15.5518 13.9424 30.8438 29.4326t29.0283 31.2393q13.7373 15.749 25.1416 30.207q18.1426 23.7529 36.0264 52.6689t32.1387 60.1553q14.2559 31.2393 23.8457 64.2861t11.6631 65.5781q2.07324 32.5303 -4.66504 63.7695q-6.73926 31.2402 -24.3633 59.123 q-10.8857 17.04 -22.0312 23.4941q-11.1445 6.45508 -22.29 6.19629q-11.1445 -0.257812 -24.8818 -6.71191q-13.7363 -6.45508 -28.251 -17.8145q-29.5469 -23.2363 -54.6885 -53.96q-25.1406 -30.7227 -47.1719 -65.3193q-22.0303 -34.5957 -40.6924 -71.2568 q-18.6611 -36.6611 -33.6934 -72.29q-12.96 -15.4902 -29.0293 -19.3633t-29.2881 2.83984t-18.9209 20.1377q-4.14648 7.74512 -4.14648 18.0732q0 5.16309 1.55469 12.9082q22.8086 44.4072 47.9502 85.457q25.1406 41.0508 55.2061 79.2617 q11.9229 16.0068 24.623 30.9805q12.7002 14.9746 26.1777 28.916q10.8857 10.8438 25.1406 24.0107q14.2559 13.167 30.584 25.3018q16.3291 12.1348 34.2129 22.4619t36.0264 13.9414q8.8125 1.54883 18.1436 1.54883q7.25684 0 15.0322 -1.03223 q13.4775 -2.06543 26.4375 -3.09863q12.959 -1.03223 20.2158 -9.81055q5.18359 -4.64746 11.6641 -9.55273q6.47949 -4.90527 13.4775 -10.585t13.4775 -12.6514q6.47949 -6.9707 9.58984 -16.7812q7.25684 -18.0723 13.7363 -36.6611q6.48047 -18.5889 12.7002 -37.1777 q4.14746 -10.3271 5.44336 -22.7197t1.2959 -24.2686q0 -11.877 -0.518555 -22.4619t-0.518555 -18.3311q1.03711 -25.3008 -4.66504 -50.3447q-5.70215 -25.043 -15.0332 -48.7959q-8.29395 -20.6543 -15.8096 -42.083q-7.5166 -21.4287 -18.4023 -42.5996 q-20.2168 -41.8252 -49.2451 -84.166q-29.0293 -42.3408 -60.6494 -76.9375q-11.4043 -12.3926 -30.584 -32.2725q-19.1797 -19.8789 -18.6621 -19.3633q-11.4043 -0.515625 10.3682 0q21.7715 0.516602 43.543 2.06543q40.9512 3.09863 81.9023 9.03613 q40.9512 5.93848 85.5312 10.5859z" />
<glyph unicode="&#xb3;" horiz-adv-x="406" d="M0 295zM50.1074 861.422q-26.7617 3.16406 -38.7197 16.8789q-11.3877 11.6035 -11.3877 29.5381l0.569336 0.527344q0 11.0762 13.0967 23.208q13.0957 12.1318 39.8574 13.7148q21.0674 -2.11035 40.4268 -3.16504q19.3594 -1.05566 50.6768 -7.38477v2.11035 q-5.69434 0 4.27051 -0.264648q9.96387 -0.263672 18.79 -0.527344q8.8252 -0.263672 15.374 -0.527344q6.54785 -0.263672 7.68652 -0.263672q33.5947 2.6377 69.4668 11.3408q35.8711 8.70312 72.3125 16.6152h6.26367q18.2207 0 30.1777 -7.38477 q13.0967 -8.43945 17.082 -17.9336q10.8193 -7.91211 13.0967 -25.3184v-4.21973q0 -14.7695 -13.666 -30.5928q-17.082 -13.1875 -30.4629 -29.5391q-13.3799 -16.3506 -24.1992 -35.3398q-10.8184 -18.9883 -19.6436 -39.2959q-8.82617 -20.3076 -12.8115 -31.9121 q13.665 -3.16504 36.4414 -22.1533q18.79 -16.3516 31.3164 -37.1865q12.5273 -20.835 20.498 -42.4609q10.25 -25.8457 11.958 -50.1094q0.569336 -7.38379 0.569336 -14.7686q0 -16.8789 -2.84668 -33.7578q-3.98633 -24.2637 -12.2422 -47.4727 q-8.25684 -23.208 -17.9365 -47.4717q-6.83301 -17.4062 -17.3662 -34.8125q-10.5342 -17.4062 -25.9082 -32.1758q-12.5264 -11.6035 -23.3447 -21.626q-10.8184 -10.0215 -23.915 -21.0986q-13.0957 -11.6045 -30.1777 -17.9336t-31.8867 -12.6592 q-22.2061 -10.5488 -44.9824 -10.5488q-14.8037 0 -14.8037 0.527344q-7.40234 0 -28.1855 5.80176q-20.7822 5.80176 -38.7188 13.9775q-17.9355 8.17578 -37.2959 15.5605q-15.9424 14.7695 -18.5049 29.0107t5.40918 26.1094t24.4844 17.6699 q16.5117 5.80273 39.2881 -0.527344q15.374 -8.43945 27.6162 -16.6152q12.2412 -8.17578 24.7686 -12.3955q18.79 -5.27441 37.2949 -2.37305q18.5059 2.90039 36.7266 12.6592q18.2207 9.75781 34.4482 25.582q16.2275 15.8232 29.6084 34.0215 q13.3809 18.1973 22.4912 37.1865q9.11035 18.9883 12.5273 35.3398q2.84668 13.1865 3.98535 26.1094t-0.569336 26.1094q-1.13867 12.6592 -6.54785 30.0664q-5.40918 17.4062 -14.5195 33.4932q-9.11035 16.0879 -21.0674 26.1104q-11.958 10.0215 -13.0967 10.5488 q3.41602 6.85742 3.13184 4.4834q-0.285156 -2.37305 -2.5625 -7.64844q-12.5264 -13.7139 -26.7617 -18.4609q-14.2344 -4.74707 -25.0537 -2.6377q-9.11035 -1.58203 -20.7822 2.11035q-11.6729 3.69238 -19.3594 11.3408q-7.6875 7.64746 -10.5342 18.4609 q-2.84668 10.8125 0 24.5273q8.54102 14.7686 19.6445 23.999q11.1025 9.23145 20.7822 12.9229q12.5273 17.4072 25.623 37.1865q13.0967 19.7803 23.915 40.8789q9.11035 18.9893 15.6582 38.7686q6.54785 19.7803 9.39551 26.6367q-9.11133 0.52832 -36.7266 1.58301 q-27.6162 1.05469 -53.2383 -0.527344q-35.3027 -2.6377 -71.46 -9.49512q-36.1562 -6.85645 -75.4443 -12.1309z" />
<glyph unicode="&#xb4;" horiz-adv-x="413" d="M142 995q-32 -20 -59 -20q-8 0 -12 1q-29 3 -48 22.5t-22 45.5q-1 4 -1 9q0 23 17 51q31 29 67 60t73 57q10 10 23.5 21t25.5 18q4 5 12.5 13t21.5 15q29 12 50 9q13 2 26 2h13q23 -9 32 -18t16 -28q0 3 0.5 2.5t0.5 -9.5q-1 -23 -10 -32q0 -13 -11.5 -32.5t-36.5 -34.5 q-1 0 -3.5 -2t-4 -3t-55 -54.5t9.5 73.5q4 6 9.5 11.5l9 9t-72 -72t108.5 46.5q-13 -8 -28 -27.5t-33.5 -39.5t-44 -36t-32.5 -14q0 44 0.5 44t0.5 -21q0 -10 -6 -19.5t-12.5 -18t-13 -16t-11.5 -13.5zM126 1057q-1 -1 1 1.5t-69 -174.5q113 157 203 277.5t-135 -104.5z" />
<glyph unicode="&#xb5;" horiz-adv-x="877" d="M561 784q34 29 70 26.5t56.5 -23t22 -51t-24.5 -62.5q-9 -9 -9.5 -9t4.5 5t5 13q1 -2 3 -6.5t5 -12.5q-5 -93 -13.5 -185t-34.5 -178q5 -34 13 -70.5t20.5 -67t28 -53.5t34.5 -34q8 -5 21 -6t34 -8q32 -23 41 -49q5 -12 5 -25t-5 -25q-10 -24 -36.5 -38.5t-68.5 -10.5 q-22 11 -43.5 19t-40.5 21q-41 28 -65 88.5t-23 54.5q23 52 12.5 30t-23.5 -43.5t-29 -40.5t-35 -32q-22 -14 -44.5 -30t-49.5 -27q-38 -16 -76.5 -20t-75 4t-67.5 30.5t-52 58.5q-11 21 -20 43t22 -76q9 101 7.5 77t-2.5 -47q-8 -175 9 -347.5t51 -347.5 q-1 -36 -19.5 -58.5t-46.5 -28.5q-10 -2 -17 -2q-21 0 -40 11q-27 13 -44 48q-4 45 -7 81t-6 71t-4.5 71t-2.5 78v49q0 85 5 168q7 106 12 215q6 114 6.5 229t11.5 231q5 46 15 90t17 87v-1q-3 20 0.5 39t3.5 37q6 36 29 55t43 21q14 9 38 9h3q23 -2 42.5 -13t29.5 -32 t9 -49q-3 -32 -4.5 -49.5t-3 -32.5t-5 -33t-9.5 -50q-16 -80 -34.5 -159.5t-16.5 -160.5q1 -47 7.5 -95t23.5 -78.5t43.5 -39.5t77.5 13q15 6 29.5 17t28.5 26q13 13 25 30t22 36q29 53 44.5 111.5t23.5 118.5q-2 28 -3.5 53.5t-2.5 44.5q-2 24 -2.5 64t3.5 82.5t14.5 83 t34.5 67.5zM644 700q-106 -319 -30 -166.5t136 272.5z" />
<glyph unicode="&#xb6;" horiz-adv-x="807" d="M445 340q-2 41 -3.5 81t-2.5 52q18 6 0.5 2.5t-35.5 -3.5q-57 -2 -110 20t-98.5 59t-82 84.5t-62.5 100t-40 105.5q-11 47 -11 90v12q2 39 14 74t19 69q4 17 21 38.5t38.5 40.5t46 35t46.5 21q103 24 205 45q33 8 78 8h7q49 -1 99 -9t97.5 -24t78.5 -44q22 -30 22 -56 q0 -32 -25 -53q-10 -136 -24.5 -278.5t-22.5 -285.5q-8 -148 -3.5 -296.5t11.5 -298.5q-2 -32 -18.5 -54t-42.5 -29.5t-52.5 2t-9.5 20t17.5 -4.5t1.5 -29q-49 -88 -82 -88h-1q-32 0 -56 22q-25 20 -30 60q5 130 10 257t0 255zM430 631q-7 124 -17.5 257.5t-18.5 252.5 q-19 1 -59.5 -2t-76.5 -14t-66 -31t-53 -54q-22 -33 -24 -79.5t13.5 -96t45 -97t66.5 -82t76.5 -52.5t77.5 -13q12 1 24 5.5t12 5.5zM591 534q8 146 3.5 291.5t-10.5 280.5q-5 1 -26.5 6.5t-1.5 -1.5q-3 -84 -6.5 -197t0.5 -228v-17.5t-1 0.5q13 -1 34.5 -18.5t27 -41 t-5.5 -48t-42 -41.5q-7 -3 -11 -4.5t6 2.5q6 -124 16 -259t-4 54q-15 -189 -1 -53t22 274z" />
<glyph unicode="&#xb7;" horiz-adv-x="232" d="M6 581q-6 26 -6 46q0 9 1 17q5 29 22 46.5t45 20.5h7q22 0 41 -10q24 -6 44 -34l23 -38q3 -12 3 -22q0 -12 -4 -21q-4 -22 -17.5 -37t-29.5 -21q-14 -8 -33 -8q-10 0 -13 1q-16 2 -25 8q-13 -2 -32 11.5t-26 40.5zM159 625q38 38 -38 38q0 -76 38 -38z" />
<glyph unicode="&#xb8;" horiz-adv-x="391" d="M142 30q32 25 56 25q13 0 25 -3q30 -9 45 -29.5t14.5 -45.5t-18 -47t-18 -23t4.5 15q-5 2 9 -2.5t26.5 -12t23.5 -17t23 -24.5q15 -16 20 -39q3 -15 3 -28q0 -7 -1 -14q-5 -40 -21 -70t-41 -52t-57 -35.5t-73 -23.5h-6q-10 0 -15 3l2 -1q-23 -2 -40 -2h-3q-19 0 -43 6 q-36 17 -48 42q-10 19 -10 35q0 8 1 15q6 24 29 43t65 21q24 -7 41.5 -12t32 -6.5t26.5 1t25 12.5q5 3 10 9t8.5 12.5t4 11.5l0.5 5q-7 10 -16 10.5t-7 1.5t-0.5 -0.5t-8.5 -3l-10 -2.5l-8 -2q-19 -5 -40.5 -6t-42.5 14q-23 16 -26.5 45.5t1 59t14.5 56.5t21 40q6 7 11.5 11 t10.5 7z" />
<glyph unicode="&#xb9;" horiz-adv-x="185" d="M0 295zM0 906.852q5.21094 18.9229 19.2168 29.1729t33.5488 11.3018h1.30273q18.8916 0 33.2227 -8.93652q16.2861 -9.9873 22.8008 -28.3838q-5.21191 -96.1914 -2.28027 -188.178t23.7773 -186.074q7.81641 -33.1152 15.6338 -65.9678 q7.81738 -32.8516 16.2861 -65.9668q2.60547 -9.9873 5.53711 -22.0771q2.93066 -12.0889 6.18848 -23.127q0 -1.05176 0.651367 -2.62891q1.30273 -2.10254 1.9541 -3.41602q0.651367 -1.31445 3.9082 -6.04492q0 0.525391 0.326172 0.262695t0.326172 -4.46777v0 q0.651367 -3.67969 0.651367 -7.35938q0 -8.41016 -3.90918 -16.8203q-8.46875 -12.6152 -23.4512 -17.8711q-10.4229 -4.73047 -24.7539 -4.73047q-5.21191 0 -10.4229 1.05078q-20.1943 2.10254 -37.1318 16.2949q-7.81738 8.93555 -11.7256 21.8135 q-3.90918 12.8779 -6.18848 27.8584q-2.28027 14.9805 -3.58301 30.75t-1.9541 31.0127t-0.977539 27.8584q-0.325195 12.6152 -0.976562 21.5508q-5.21191 41.5254 -9.12012 82.2617q-3.90918 40.7373 -10.4229 81.7363q-10.4229 67.2812 -21.1719 133.774 q-10.748 66.4932 -17.2627 135.351z" />
<glyph unicode="&#xba;" horiz-adv-x="449" d="M0 380zM354.852 866.657q5.9248 -12.5498 13.0332 -31.0889q7.10938 -18.5391 8.29395 -33.3701q27.8428 -35.9375 45.6152 -79.5762q17.7725 -43.6377 21.3271 -97.2588q0.591797 -5.7041 0.591797 -11.4082q0 -26.8105 -9.47852 -54.1914 q-11.8477 -32.5146 -32.8789 -62.1777q-21.0303 -29.6621 -50.0576 -53.9062q-29.0283 -24.2432 -62.7959 -40.501q-33.7666 -16.2568 -69.9033 -20.8203q-13.0332 -2.28223 -25.4736 -2.28223q-24.2891 0 -47.3926 6.8457q-25.4736 6.84473 -46.8008 21.1055 q-21.3262 14.2617 -37.9141 33.0859q-16.5869 18.8242 -27.25 40.7861q-10.6641 21.9619 -14.8105 45.9199q-4.73926 31.374 -11.5518 62.7471q-6.8125 31.374 -7.40527 64.46q0 22.8174 3.55469 48.2012q3.55469 25.3848 11.5518 50.4834q7.99707 25.0996 20.4385 48.2021 q12.4404 23.1025 29.0273 41.3564q14.2178 15.9717 31.3975 28.2363t32.583 24.2432q17.7715 13.1201 37.9141 17.1133q20.1416 3.99316 36.7285 8.55664q17.1797 4.56348 31.9902 4.56348h6.5166q18.3643 -1.14062 34.6562 -7.13086q16.291 -5.98926 30.2119 -14.2607 q13.9219 -8.27051 27.5469 -16.8271q5.33203 -3.42285 11.8486 -7.98633t8.88574 -13.1201zM233.408 811.325q-11.8477 10.8379 -15.6982 21.6768q-3.85059 10.8379 -4.44336 8.55664q13.0332 0 10.6631 0q-2.36914 0 -4.73926 -0.571289 q-21.9189 -1.71094 -41.4678 -10.2676q-19.5498 -8.55664 -36.1377 -21.9619q-16.5869 -13.4053 -29.6201 -31.374q-13.0332 -17.9678 -20.7344 -37.9336q-15.4023 -40.501 -17.1797 -85.5654q0 -17.1123 1.18457 -39.3594q1.18555 -22.2471 4.73926 -45.3496 q3.55469 -23.1025 10.0713 -45.0645t16.5869 -38.5039q10.6641 -17.6836 25.7705 -27.667q15.1064 -9.98242 32.2861 -13.6904q17.1797 -3.70703 36.4326 -1.42578q19.2529 2.28223 37.6182 9.69727q29.0273 11.4092 53.9092 32.7998q24.8809 21.3916 41.7646 48.4873 t23.1035 57.8994q6.2207 30.8037 -2.66602 62.1768q-7.70117 29.6631 -22.5107 54.1914q-14.8105 24.5293 -32.583 43.3535q-21.3262 9.12695 -26.6582 27.3809q-7.1084 6.84473 -17.7725 15.1162q-10.6631 8.27148 -21.9189 17.3984z" />
<glyph unicode="&#xbb;" horiz-adv-x="843" d="M1 825q-1 9 -1 16q0 28 16 49q19 26 50 33q8 2 16 2q24 0 46 -13q28 -18 40 -57q6 -47 27.5 -89t51.5 -81.5t64 -77.5t66 -74q26 -30 49.5 -62t49.5 -67q9 -32 -9 -53t-59 -17q-7 2 -12.5 3.5t-7.5 2.5q12 0 11 -0.5t3 -0.5l-8.5 -8t-13.5 -12q-10 -25 -26.5 -51 t-27.5 -51q-14 -33 -25.5 -66.5t-24.5 -67t-28.5 -67t-37.5 -65.5q-27 -34 -64 -39h-11q-27 0 -48 15q-25 17 -32 47.5t15 65.5q12 14 22 30.5t24 28.5q17 29 34 62t34 66.5t35.5 66.5t40.5 64q14 18 35.5 44t25.5 28q-25 31 -74.5 74t-97.5 90.5t-88 102.5t-60 128z M435 706q-44 21 -55 50.5t-1 55.5t41 41.5t76 2.5q35 -19 55 -45t34.5 -55t25 -58t22.5 -52q18 -33 35.5 -66t35.5 -66q17 -29 34.5 -50t32.5 -38.5t25.5 -35t11.5 -40.5v-2q0 -20 -10 -46q-11 -26 -34 -61q-14 -22 -26.5 -41t-25.5 -40q-19 -31 -37 -63.5t-38 -66.5 q-27 -34 -62.5 -38.5t-60.5 13.5t-32 48.5t14 65.5q40 49 80 95t80 93q11 13 21.5 22.5t9.5 16.5q-1 5 -13 23.5t-29 39t-31 37.5t-18 21q-45 62 -84.5 126.5t-86.5 119.5q7 -7 10 -7z" />
<glyph unicode="&#xbc;" horiz-adv-x="680" d="M0 0zM0 743.339q5.47656 14.5684 20.1963 22.459q14.7197 7.8916 35.2588 8.7002h1.36914q19.8545 0 34.916 -6.87891q17.1162 -7.68848 23.9629 -21.8516q-5.47754 -74.0537 -2.39648 -144.87q3.08105 -70.8154 24.9893 -143.25q8.21484 -25.4941 16.4307 -50.7852 q8.21582 -25.292 17.1162 -50.7861q2.73828 -7.68848 5.81934 -16.9951q3.08008 -9.30762 6.50391 -17.8057q0 -0.808594 0.68457 -2.02344q1.36914 -1.61816 2.05371 -2.62988t4.10742 -4.65332q0 0.404297 0.342773 0.202148t0.342773 -3.43945v0 q0.68457 -2.83301 0.68457 -5.66602q0 -6.47461 -4.1084 -12.9492q-8.90039 -9.71191 -24.6465 -13.7578q-10.9541 -3.64258 -26.0156 -3.64258q-5.47754 0 -10.9541 0.80957q-21.2236 1.61914 -39.0244 12.5449q-8.21582 6.87891 -12.3232 16.793 q-4.1084 9.91406 -6.50391 21.4473q-2.39648 11.5332 -3.76562 23.6729t-2.05371 23.875t-1.02734 21.4473q-0.341797 9.71191 -1.02637 16.5908q-5.47754 31.9688 -9.58496 63.3301q-4.1084 31.3613 -10.9541 62.9248q-10.9541 51.7969 -22.251 102.987 q-11.2959 51.1895 -18.1426 104.2zM515.44 310.943l2.4082 3.17578q3.21094 4.11035 26.4883 7.84668l9.63184 1.49512l23.2773 1.68066l15.251 -0.186523l8.02637 -0.373047q16.0537 -0.374023 26.4883 -3.17676l8.02734 -2.05469l6.4209 -1.86816 q9.63184 -2.42871 9.63184 -4.85742v-1.86914l-1.60449 -3.5498l-8.02734 -7.47266q-8.02637 -6.91309 -31.3037 -20.1777q-21.6729 -13.2646 -46.957 -26.249t-51.7725 -25.876t-51.3711 -25.7822q-52.1738 -27.8379 -97.123 -56.0488q-44.9502 -28.2109 -84.2812 -57.1699 q-12.8428 -7.09863 -37.7256 -9.90137q-16.0527 -1.30762 -32.1064 -1.86816q-17.6592 0 -28.0938 1.49414q-12.04 0.93457 -21.6719 4.29688l-4.81641 2.05566l-5.61816 2.42871l-5.61914 4.48438l2.4082 2.05469l2.4082 3.36328l19.2637 9.71484 q16.8564 8.96777 54.9834 26.9961q38.127 18.0293 75.0498 36.1514q36.9229 18.123 71.8389 36.3389q34.917 18.2158 64.6152 37.459q25.6855 16.6279 48.1611 33.1621q22.4746 16.5342 28.0928 25.3154zM366.302 272.499q4.33105 19.7949 16.2432 30.792 q11.9121 10.998 27.6133 11.2725q15.7021 0.275391 28.9678 -9.62207q13.2646 -9.89746 18.6797 -29.6934q-2.70703 -26.9434 -5.95605 -52.5117q-3.24902 -25.5693 -6.22656 -51.4121q-2.97754 -25.8438 -5.14355 -51.1377t-1.62402 -50.5879q0 -24.1943 1.62402 -36.291 q11.3701 1.64941 33.5693 7.69824q22.1992 6.04785 42.2324 18.1455q23.8232 9.34766 41.4209 2.19922q17.5967 -7.14844 24.0938 -21.4443q3.79004 -8.24805 3.79004 -17.0459q0 -6.04883 -1.08301 -12.0977q-5.41406 -17.5957 -25.9893 -29.6924 q-35.1934 -12.0977 -64.4316 -13.7471t-41.6914 -1.09961q2.70801 -12.6465 10.8291 -38.7656q8.12207 -26.1182 18.4092 -53.6113q-0.541016 -20.3457 -10.5576 -32.7178q-10.0176 -12.3711 -25.1777 -15.6709q-5.41406 -1.09961 -9.2041 -1.09961 q-11.3701 0 -21.6582 6.04883q-14.6191 7.14844 -23.2822 26.3936q-6.49707 35.7412 -8.3916 65.1592q-1.89551 29.417 -2.43652 50.3125q2.70703 -0.549805 -6.22656 -0.275391q-8.93457 0.275391 -18.6797 0.825195q-30.3213 1.09961 -55.7686 0 q-25.4482 -1.09961 -49.543 -4.67383q-24.0938 -3.57422 -47.917 -10.7227t-51.9785 -19.7949q-21.1162 -4.39941 -35.7354 2.19922t-21.1162 18.1455q-5.95605 8.79785 -5.95605 19.7959v4.39844q1.62402 14.2969 7.03906 19.2451q-3.24902 5.49902 -1.89551 18.6953 q1.35352 13.1973 77.6973 101.726q-42.7744 -86.8789 -42.7744 -88.5283t21.6582 97.876q-49.2715 -100.075 -49.2715 -99.5254t1.08301 2.19922q1.62402 7.14844 3.79004 13.7461q2.16602 6.59863 7.03906 14.2969q34.6523 51.6875 70.1162 101.176 q35.4648 49.4873 65.7861 102.274q32.4863 54.9863 60.3701 110.798q27.8848 55.8115 58.2051 114.098q17.3262 14.8457 34.6523 15.3965h2.70801q15.1602 0 26.5303 -7.69824q11.9121 -8.79785 15.7021 -23.3701q3.79004 -14.5713 -3.24902 -33.2666 q-23.8232 -32.4424 -46.5645 -63.5098q-22.7402 -31.0674 -44.9395 -62.959q-22.1992 -31.8926 -42.5029 -64.6094q-20.3047 -32.7168 -38.1719 -66.8086q-20.5752 -41.2402 -40.8789 -81.6553q-20.3047 -40.415 -40.8789 -81.6553l7.03906 13.7471 q3.24805 0.549805 30.5908 0.274414q27.3428 -0.274414 55.2275 -1.64941q27.8838 -1.37402 55.7686 -2.74902q27.8838 -1.375 41.4199 -0.825195v13.7471v25.2939q-1.08301 51.1377 -4.87305 101.725q-3.79004 50.5879 -8.12109 102.825z" />
<glyph unicode="&#xbd;" horiz-adv-x="668" d="M0 0zM0 845.627q4.31543 16.9043 15.9131 26.0596q11.5977 9.15625 27.7803 10.0957h1.0791q15.6436 0 27.5107 -7.98242q13.4863 -8.9209 18.8799 -25.3555q-4.31543 -85.9268 -1.8877 -168.097t19.6895 -166.218q6.47266 -29.5811 12.9463 -58.9277 q6.47266 -29.3467 13.4854 -58.9277q2.1582 -8.92188 4.58496 -19.7207q2.42773 -10.7998 5.125 -20.6602q0 -0.939453 0.539062 -2.34766q1.0791 -1.87793 1.61816 -3.05176q0.540039 -1.17383 3.2373 -5.40039q0 0.469727 0.269531 0.235352 q0.269531 -0.235352 0.269531 -3.99121v0q0.539062 -3.28711 0.539062 -6.57422q0 -7.5127 -3.23633 -15.0254q-7.0127 -11.2686 -19.4189 -15.9639q-8.63086 -4.22656 -20.499 -4.22656q-4.31543 0 -8.63086 0.939453q-16.7217 1.87793 -30.7471 14.5557 q-6.47266 7.98242 -9.70996 19.4863q-3.23633 11.5039 -5.12402 24.8857q-1.88867 13.3818 -2.9668 27.4678q-1.0791 14.0869 -1.61914 27.7031q-0.539062 13.6172 -0.808594 24.8867q-0.269531 11.2686 -0.80957 19.251q-4.31543 37.0938 -7.55176 73.4834 t-8.63086 73.0137q-8.63086 60.1016 -17.5312 119.499t-14.2949 120.907zM512.125 246.989l2.92969 2.52051q3.90625 3.26172 32.2266 6.22656l11.7188 1.18652l28.3203 1.33398l18.5547 -0.148438l9.76562 -0.295898q19.5312 -0.296875 32.2266 -2.52051l9.76562 -1.63086 l7.8125 -1.48242q11.7188 -1.92773 11.7188 -3.85449v-1.4834l-1.95312 -2.81641l-9.76562 -5.93066q-9.76562 -5.48535 -38.0859 -16.0107q-26.3672 -10.5264 -57.1289 -20.8301t-62.9883 -20.5332t-62.5 -20.459q-63.4766 -22.0898 -118.164 -44.4766t-102.539 -45.3662 q-15.625 -5.63281 -45.8984 -7.85742q-19.5312 -1.03711 -39.0625 -1.48242q-21.4844 0 -34.1797 1.18652q-14.6484 0.741211 -26.3672 3.40918l-5.85938 1.63086l-6.83594 1.92773l-6.83594 3.55859l2.92969 1.62988l2.92969 2.66895l23.4375 7.70898 q20.5078 7.11621 66.8945 21.4229t91.3086 28.6875t87.4023 28.835q42.4805 14.4551 78.6133 29.7256q31.25 13.1943 58.5938 26.3154q27.3438 13.1201 34.1797 20.0879zM575.68 -79.6172q24.2637 -6.15234 33.7324 -16.917q10.6523 -12.3037 10.6523 -24.6064v-0.512695 q-0.591797 -13.3291 -12.1318 -24.0938q-11.54 -10.7656 -35.8037 -15.3789q-47.3438 4.61328 -92.3203 8.9707t-88.1777 1.79395q-30.7734 -1.53711 -60.9551 -7.17676q-30.1816 -5.63867 -54.4453 -11.2773v0q-17.7539 -6.15234 -30.1816 -9.48438t-24.8555 -7.43262 q-8.87695 -1.53809 -15.9785 -1.53809q-7.69336 0 -13.6113 1.53809q-14.2031 3.0752 -22.7842 9.4834t-13.0195 14.8662q-4.43848 8.45898 -3.25488 13.585q-7.10156 7.68945 -9.46875 23.5811q0 5.63867 1.18359 7.17676q7.10156 33.3213 42.6094 35.8848 q14.2031 7.17676 30.7734 14.8662t31.957 16.4043q17.7539 10.7656 35.5078 24.6064t35.2119 29.2197q17.458 15.3799 33.1406 31.0146q15.6826 15.6357 28.7021 29.9893q20.7129 23.5811 41.1299 52.2891q20.417 28.707 36.6914 59.7217t27.2227 63.8232t13.3154 65.1045 t-5.32617 63.3096q-7.69336 31.0146 -27.8145 58.6973q-12.4277 16.917 -25.1514 23.3242q-12.7236 6.4082 -25.4473 6.15234q-12.7236 -0.256836 -28.4062 -6.66406q-15.6826 -6.4082 -32.2529 -17.6865q-33.7324 -23.0684 -62.4346 -53.5703t-53.8535 -64.8477 q-25.1514 -34.3467 -46.4561 -70.7441q-21.3047 -36.3965 -38.4668 -71.7686q-14.7949 -15.3789 -33.1406 -19.2236t-33.4365 2.81934t-21.6006 19.9932q-4.73438 7.68945 -4.73438 17.9414q0 5.12695 1.77539 12.8164q26.0391 44.0859 54.7412 84.8408 q28.7021 40.7539 63.0264 78.6895q13.6113 15.8916 28.1104 30.7578t29.8857 28.708q12.4277 10.7646 28.7021 23.8369t34.916 25.1191t39.0586 22.2998t41.1299 13.8408q10.0605 1.53809 20.7129 1.53809q8.28516 0 17.1621 -1.02539q15.3867 -2.05078 30.1816 -3.0752 q14.7949 -1.02539 23.0801 -9.74023q5.91797 -4.61426 13.3154 -9.48438q7.39746 -4.86914 15.3867 -10.5088q7.98926 -5.63867 15.3867 -12.5596q7.39746 -6.91992 10.9482 -16.6602q8.28516 -17.9424 15.6826 -36.3975t14.499 -36.9092q4.73438 -10.2529 6.21387 -22.5566 q1.47949 -12.3027 1.47949 -24.0938q0 -11.79 -0.591797 -22.2988q-0.591797 -10.5098 -0.591797 -18.1992q1.18359 -25.1191 -5.32617 -49.9814q-6.50977 -24.8633 -17.1621 -48.4443q-9.46875 -20.5049 -18.0498 -41.7793t-21.0088 -42.292 q-23.0801 -41.5234 -56.2207 -83.5596t-69.2402 -76.3828q-13.0195 -12.3027 -34.916 -32.04q-21.8965 -19.7363 -21.3047 -19.2236q-13.0195 -0.512695 11.8359 0t49.7109 2.05078q46.752 3.07617 93.5039 8.9707q46.752 5.89551 97.6465 10.5098z" />
<glyph unicode="&#xbe;" horiz-adv-x="585" d="M0 0zM59.8262 722q-24.4756 2.49609 -35.4111 13.3105q-10.415 9.15137 -10.415 23.2939l0.520508 0.416016q0 8.73438 11.9775 18.3018q11.9775 9.56641 36.4531 10.8145q19.2676 -1.66406 36.9727 -2.49512q17.7061 -0.832031 46.3477 -5.82324v1.66309 q-5.20801 0 3.90527 -0.208008t17.1846 -0.416016q8.07227 -0.208008 14.0605 -0.416016t7.03027 -0.208008q30.7236 2.08008 63.5312 8.94336t66.1357 13.1025h5.72852q16.6641 0 27.5996 -5.82324q11.9775 -6.65527 15.623 -14.1426q9.89355 -6.23926 11.9766 -19.9658 v-3.32715q0 -11.6475 -12.498 -24.126q-15.6221 -10.3984 -27.8604 -23.293q-12.2373 -12.8945 -22.1318 -27.8691t-17.9658 -30.9883q-8.07129 -16.0146 -11.7168 -25.166q12.498 -2.49512 33.3281 -17.4697q17.1846 -12.8945 28.6416 -29.3252 q11.4561 -16.4297 18.7471 -33.4844q9.37305 -20.3809 10.9355 -39.5156q0.520508 -5.82324 0.520508 -11.6465q0 -13.3105 -2.60352 -26.6211q-3.64551 -19.1338 -11.1963 -37.4355q-7.55078 -18.3027 -16.4033 -37.4365q-6.24902 -13.7266 -15.8828 -27.4521 q-9.63477 -13.7266 -23.6943 -25.374q-11.457 -9.15039 -21.3506 -17.0537q-9.89453 -7.90332 -21.8721 -16.6387q-11.9775 -9.15039 -27.5996 -14.1426q-15.623 -4.99121 -29.1621 -9.98242q-20.3096 -8.31934 -41.1396 -8.31934q-13.5391 0 -13.5391 0.416016 q-6.77051 0 -25.7773 4.5752q-19.0078 4.57617 -35.4111 11.0234q-16.4043 6.44727 -34.1094 12.2705q-14.5811 11.6465 -16.9248 22.8779q-2.34375 11.2305 4.94727 20.5889q7.29102 9.35938 22.3926 13.9346q15.1016 4.57617 35.9316 -0.416016 q14.0605 -6.65527 25.2568 -13.1025t22.6523 -9.77441q17.1846 -4.16016 34.1094 -1.87207t33.5889 9.9834t31.5049 20.1738q14.8418 12.4785 27.0791 26.8291q12.2383 14.3496 20.5703 29.3242t11.4561 27.8691q2.60352 10.3984 3.64551 20.5898 q1.04102 10.1904 -0.521484 20.5898q-1.04102 9.98242 -5.98828 23.709t-13.2793 26.4131t-19.2676 20.5898t-11.9775 8.31934q3.125 5.40723 2.86426 3.53516q-0.259766 -1.87109 -2.34375 -6.03125q-11.4561 -10.8145 -24.4746 -14.5576 q-13.0195 -3.74414 -22.9131 -2.08008q-8.33203 -1.24805 -19.0078 1.66406q-10.6748 2.91113 -17.7051 8.94238t-9.63379 14.5586q-2.60449 8.52734 0 19.3418q7.81055 11.6465 17.9658 18.9258q10.1543 7.2793 19.0068 10.1914q11.457 13.7266 23.4336 29.3242 q11.9775 15.5986 21.8721 32.2373q8.33203 14.9736 14.3203 30.5723q5.98926 15.5986 8.59277 21.0059q-8.33203 0.416016 -33.5889 1.24805q-25.2559 0.831055 -48.6904 -0.416016q-32.2861 -2.08008 -65.3535 -7.4873q-33.0684 -5.40723 -69 -9.56738zM440.797 339.122 l2.66895 3.41504q3.55859 4.41895 29.3584 8.43652l10.6758 1.60645l25.7998 1.80859l16.9033 -0.201172l8.89648 -0.402344q17.793 -0.401367 29.3584 -3.41406l8.89648 -2.20996l7.11719 -2.00879q10.6758 -2.61133 10.6758 -5.22266v-2.00781l-1.7793 -3.81641 l-8.89648 -8.03516q-8.89648 -7.43164 -34.6963 -21.6934q-24.0205 -14.2617 -52.0449 -28.2217q-28.0234 -13.9609 -57.3818 -27.8203t-56.9375 -27.7197q-57.8271 -29.9287 -107.647 -60.2598t-93.4131 -61.4648q-14.2344 -7.63379 -41.8135 -10.6465 q-17.793 -1.40625 -35.5859 -2.00879q-19.5723 0 -31.1377 1.60742q-13.3447 1.00391 -24.0205 4.62012l-5.33789 2.20898l-6.22754 2.61133l-6.22754 4.82031l2.66895 2.20996l2.66895 3.61523l21.3516 10.4453q18.6826 9.6416 60.9414 29.0254 q42.2578 19.3838 83.1816 38.8682q40.9238 19.4834 79.623 39.0684q38.7002 19.584 71.6172 40.2734q28.4688 17.877 53.3789 35.6543q24.9102 17.7764 31.1377 27.2168zM274.977 288.734q4.2793 20.2852 16.0488 31.5547t27.2832 11.5508 q15.5146 0.282227 28.6211 -9.86035q13.1074 -10.1426 18.457 -30.4277q-2.6748 -27.6104 -5.88477 -53.8115q-3.20996 -26.2021 -6.15234 -52.6855t-5.08203 -52.4033t-1.60547 -51.8398q0 -24.793 1.60547 -37.1895q11.2344 1.69043 33.168 7.88867 q21.9346 6.19824 41.7285 18.5947q23.5381 9.5791 40.9248 2.25391t23.8066 -21.9756q3.74512 -8.45215 3.74512 -17.4678q0 -6.19824 -1.07031 -12.3965q-5.34961 -18.0312 -25.6787 -30.4277q-34.7734 -12.3965 -63.6621 -14.0869q-28.8877 -1.69043 -41.1924 -1.12695 q2.6748 -12.96 10.6992 -39.7256q8.02441 -26.7646 18.1895 -54.9385q-0.535156 -20.8486 -10.4326 -33.5264q-9.89648 -12.6787 -24.876 -16.0596q-5.34961 -1.12695 -9.09473 -1.12695q-11.2344 0 -21.3984 6.19824q-14.4443 7.3252 -23.0039 27.0469 q-6.41992 36.626 -8.29199 66.7715q-1.87305 30.1465 -2.40723 51.5586q2.6748 -0.563477 -6.15234 -0.28125q-8.82715 0.28125 -18.457 0.844727q-29.958 1.12695 -55.1025 0q-25.1436 -1.12695 -48.9492 -4.79004q-23.8066 -3.66211 -47.3457 -10.9873t-51.3574 -20.2852 q-20.8633 -4.50781 -35.3076 2.25391t-20.8643 18.5947q-5.88477 9.01562 -5.88477 20.2852v4.50781q1.60449 14.6504 6.95508 19.7217q-3.20996 5.63477 -1.87305 19.1582q1.33789 13.5234 76.7686 104.243q-42.2627 -89.0293 -42.2627 -90.7197t21.3994 100.299 q-48.6826 -102.553 -48.6826 -101.989t1.06934 2.25391q1.60547 7.3252 3.74512 14.0869t6.95508 14.6504q34.2383 52.9668 69.2783 103.68q35.041 50.7129 64.999 104.807q32.0986 56.3477 59.6504 113.54q27.5508 57.1934 57.5088 116.922 q17.1191 15.2139 34.2383 15.7773h2.6748q14.9795 0 26.2139 -7.88867q11.7695 -9.01562 15.5146 -23.9473q3.74512 -14.9326 -3.20996 -34.0908q-23.5391 -33.2451 -46.0078 -65.0811q-22.4688 -31.8369 -44.4023 -64.5186q-21.9346 -32.6816 -41.9961 -66.208 q-20.0615 -33.5273 -37.7148 -68.4629q-20.3291 -42.2607 -40.3906 -83.6758q-20.0615 -41.416 -40.3906 -83.6768l6.9541 14.0869q3.20996 0.563477 30.2266 0.28125q27.0156 -0.28125 54.5674 -1.68945l55.1016 -2.81836q27.5518 -1.4082 40.9258 -0.844727v14.0869 v25.9199q-1.06934 52.4033 -4.81445 104.243t-8.02441 105.37z" />
<glyph unicode="&#xbf;" horiz-adv-x="634" d="M0 0zM486.02 -215.864l-1.49902 8.49902q-1.5 8.49902 -2.5 13.498q-18.998 16.998 -23.9971 41.4951q-5 24.4971 5.99902 45.9941q10.999 21.498 36.9951 34.9961q25.9971 13.498 64.9922 8.49902q45.9951 -20.9971 62.9922 -55.4932q16.998 -34.4961 18.998 -73.4912 q1 -7.99902 1 -17.998q0 -28.9961 -5.99902 -56.9922q-7.99902 -35.9961 -18.998 -65.9922q-10.999 -25.9971 -33.4961 -48.4941t-44.4941 -35.4961q-40.9951 -23.9971 -93.9883 -24.9971h-3q-47.9941 0 -99.9873 13.999q-50.9941 13.998 -103.488 39.4951 q-52.4932 25.4971 -96.9873 55.9932q-44.4951 30.4961 -79.4912 65.4922q-34.9951 34.9951 -50.9932 67.9912q-16.998 31.9961 -17.998 63.9922v5.99902q0 27.9971 7.99902 54.9932q8.99902 28.9971 26.4971 55.9932q17.498 26.9971 38.4951 49.9941 q35.9961 41.9951 73.9912 81.4902t74.4902 79.9902q36.4961 40.4951 69.4922 82.9902q32.9961 42.4941 58.9922 89.4883q6 9.99902 13.999 26.4971t14.498 33.9961t9.49902 33.9961q2.99902 16.4971 -1 29.4961q-4 13.998 -14.998 27.9961q-10.999 13.999 -21.998 32.9961 q-9.99805 33.9961 -0.5 59.9932q9.49902 25.9961 33.9961 40.4951q24.4971 14.498 55.9932 9.49902q31.4961 -5 55.4932 -28.9971q4 -4.99902 12.999 -19.4971q8.99805 -14.499 18.4971 -33.4961q9.49902 -18.998 16.998 -39.4951q7.49902 -20.498 6.49902 -35.4961 q-2.99902 -24.9971 -4.49902 -52.9932q-1.5 -27.9971 -14.498 -53.9941q-40.9951 -83.9893 -95.9883 -151.481q-54.9932 -67.4912 -121.985 -134.483q-19.998 -19.9971 -41.9951 -40.4951q-21.9971 -20.4971 -40.9951 -39.4951q-13.998 -13.998 -37.4951 -33.9961 q-23.4971 -19.9971 -43.4951 -41.4941q-19.9971 -21.498 -30.9961 -44.4951q-10.998 -22.9971 -5.99902 -42.9941q5.99902 -19.998 25.4971 -41.9951t47.9941 -42.4951q28.4961 -20.4971 63.4922 -38.4951t69.4912 -30.9961q34.4961 -12.998 64.4922 -18.998 q29.9971 -5.99902 48.9941 -3.99902q18.998 1 27.4971 6.99902t13.498 16.998q4.99902 10.998 7.49902 29.4961t5.49902 39.4951zM274.046 742.019q-1 3 -3 6q1 -1 -3.99902 3.99902q-5 5 -3 2q-11.998 2 -26.9961 16.498q-14.999 14.498 -20.498 32.9961 q-5.49902 18.4971 -0.5 38.9951q5 20.4971 23.9971 45.4941q20.9971 8.99902 35.9961 15.498q14.998 6.49902 25.9961 7.49902q8.99902 6 20.498 10.499q11.498 4.49902 25.4971 7.49902q9.99805 2 18.9971 2h7.99902q14.998 -2 32.9961 -5 q28.9961 -5.99902 43.4951 -25.9961q14.498 -19.998 18.4971 -42.9951q4 -22.9971 1.5 -46.9941t-10.498 -46.9941q-8 -22.9971 -20.998 -42.4951t-29.9961 -30.4961q-16.998 -10.999 -32.4961 -11.499t-33.4961 -1.49902q-33.9961 8.99805 -48.4941 23.4971 q-14.498 14.498 -21.4971 41.4941z" />
<glyph unicode="&#xc0;" d="M0 0zM321 364q-38 4 -32 0q8 16 1.5 3.5t-13.5 -26.5q-34 -68 -64.5 -136t-47.5 -145q-15 -38 -45.5 -53t-61 -6t-47.5 38q-11 17 -11 41q0 11 3 24q22 60 52 115t63.5 108t68.5 104t68 102q24 37 44 77t42 79q44 79 86 158t86 162q21 17 32 20q5 11 23.5 22.5t41.5 13.5 h3q22 0 42 -12q20 -10 37 -34q33 -90 64.5 -175.5t55.5 -146.5q15 7 58 24.5t92 36.5q42 1 67.5 -15.5t33.5 -40.5q3 -10 3 -20q0 -14 -6 -29q-12 -27 -47 -48q-49 -8 -92.5 -15t-63.5 -12q-1 3 5.5 -13t13.5 -32q29 -71 52 -130.5t42 -117t34 -119.5t26 -141 q-2 -41 -25.5 -64.5t-56.5 -23.5h-1q-32 0 -56 22q-25 20 -30 59v66t-1 50.5t-4.5 49t-10.5 62.5q-16 86 -44 165t-54 137q-2 -1 -25.5 -8.5t-46.5 -17.5q-30 -14 -75.5 -38.5t-95 -49t-97 -45.5t-86.5 -25zM597 842q-43 -60 -108.5 -153t-99.5 -150q-47 -12 -37 -9.5 t17 3.5q31 8 62 17t62 16q19 -37 15.5 -38.5t-9.5 -3t-19 16t-10 18.5q65 18 126.5 43t104.5 44q-23 47 -56.5 108t-47.5 88zM373 1473q-1 10 -1 17q0 28 16 49q19 26 50 33q8 2 16 2q24 0 46 -13q28 -18 40 -57q1 -21 3.5 -33.5t6.5 -24t10 -25.5t12 -32q15 -24 33 -44 t37.5 -39t42 -37.5t51.5 -43.5q21 -29 21 -55v-8q-4 -31 -26 -50q-22 -20 -55 -20h-4q-36 1 -69 34q-25 46 -48.5 90t-53.5 82q-18 22 -35 41t-33.5 38.5t-31 42t-28.5 53.5z" />
<glyph unicode="&#xc1;" d="M0 0zM321 364q-38 4 -32 0q8 16 1.5 3.5t-13.5 -26.5q-34 -68 -64.5 -136t-47.5 -145q-15 -38 -45.5 -53t-61 -6t-47.5 38q-11 17 -11 41q0 11 3 24q22 60 52 115t63.5 108t68.5 104t68 102q24 37 44 77t42 79q44 79 86 158t86 162q21 17 32 20q5 11 23.5 22.5t41.5 13.5 h3q22 0 42 -12q20 -10 37 -34q33 -90 64.5 -175.5t55.5 -146.5q15 7 58 24.5t92 36.5q42 1 67.5 -15.5t33.5 -40.5q3 -10 3 -20q0 -14 -6 -29q-12 -27 -47 -48q-49 -8 -92.5 -15t-63.5 -12q-1 3 5.5 -13t13.5 -32q29 -71 52 -130.5t42 -117t34 -119.5t26 -141 q-2 -41 -25.5 -64.5t-56.5 -23.5h-1q-32 0 -56 22q-25 20 -30 59v66t-1 50.5t-4.5 49t-10.5 62.5q-16 86 -44 165t-54 137q-2 -1 -25.5 -8.5t-46.5 -17.5q-30 -14 -75.5 -38.5t-95 -49t-97 -45.5t-86.5 -25zM597 842q-43 -60 -108.5 -153t-99.5 -150q-47 -12 -37 -9.5 t17 3.5q31 8 62 17t62 16q19 -37 15.5 -38.5t-9.5 -3t-19 16t-10 18.5q65 18 126.5 43t104.5 44q-23 47 -56.5 108t-47.5 88zM463 1225q-32 -20 -59 -20q-8 0 -12 1q-29 3 -48 22.5t-22 45.5q-1 4 -1 9q0 23 17 51q31 29 67 60t73 57q10 10 23.5 21t25.5 18q4 5 12.5 13 t21.5 15q29 12 50 9q13 2 26 2h13q23 -9 32 -18t16 -28q0 3 0.5 2.5t0.5 -9.5q-1 -23 -10 -32q0 -13 -11.5 -32.5t-36.5 -34.5q-1 0 -3.5 -2t-4 -3t-55 -54.5t9.5 73.5q4 6 9.5 11.5l9 9t-72 -72t108.5 46.5q-13 -8 -28 -27.5t-33.5 -39.5t-44 -36t-32.5 -14q0 44 0.5 44 t0.5 -21q0 -10 -6 -19.5t-12.5 -18t-13 -16t-11.5 -13.5zM447 1287q-1 -1 1 1.5t-69 -174.5q113 157 203 277.5t-135 -104.5z" />
<glyph unicode="&#xc2;" d="M0 0zM321 364q-38 4 -32 0q8 16 1.5 3.5t-13.5 -26.5q-34 -68 -64.5 -136t-47.5 -145q-15 -38 -45.5 -53t-61 -6t-47.5 38q-11 17 -11 41q0 11 3 24q22 60 52 115t63.5 108t68.5 104t68 102q24 37 44 77t42 79q44 79 86 158t86 162q21 17 32 20q5 11 23.5 22.5t41.5 13.5 h3q22 0 42 -12q20 -10 37 -34q33 -90 64.5 -175.5t55.5 -146.5q15 7 58 24.5t92 36.5q42 1 67.5 -15.5t33.5 -40.5q3 -10 3 -20q0 -14 -6 -29q-12 -27 -47 -48q-49 -8 -92.5 -15t-63.5 -12q-1 3 5.5 -13t13.5 -32q29 -71 52 -130.5t42 -117t34 -119.5t26 -141 q-2 -41 -25.5 -64.5t-56.5 -23.5h-1q-32 0 -56 22q-25 20 -30 59v66t-1 50.5t-4.5 49t-10.5 62.5q-16 86 -44 165t-54 137q-2 -1 -25.5 -8.5t-46.5 -17.5q-30 -14 -75.5 -38.5t-95 -49t-97 -45.5t-86.5 -25zM597 842q-43 -60 -108.5 -153t-99.5 -150q-47 -12 -37 -9.5 t17 3.5q31 8 62 17t62 16q19 -37 15.5 -38.5t-9.5 -3t-19 16t-10 18.5q65 18 126.5 43t104.5 44q-23 47 -56.5 108t-47.5 88z" />
<glyph unicode="&#xc3;" horiz-adv-x="1101" d="M771 1493q2 2 3.5 4t2.5 5q11 33 40 48.5t58.5 9t48 -30.5t17.5 -62q-3 -13 -12 -27.5t-18 -25.5t-112 -134.5t-42 -21.5l126 126q-17 -12 -33 -22.5t-32 -20.5q-17 -12 -37.5 -14.5t-39.5 0.5t-36.5 9t-32.5 16q-15 12 -29.5 23.5t-29.5 22.5q-10 9 -27 26.5t-35 31.5 t-31 19t-19 1q-19 -12 -32 -34.5t-22.5 -49t-16.5 -55t-15 -53.5q-25 -31 -56 -38.5t-56 5.5t-37.5 38.5t-4.5 61.5q21 37 40.5 71t39.5 69q15 27 38 43.5t42 31.5q28 23 63 24h3q28 0 58 -11q29 -11 57 -29t53.5 -36t46 -33t33.5 -20q1 -1 5.5 -0.5t1.5 0.5q3 3 12 11.5 t17 20.5zM321 364q-38 4 -32 0q8 16 1.5 3.5t-13.5 -26.5q-34 -68 -64.5 -136t-47.5 -145q-15 -38 -45.5 -53t-61 -6t-47.5 38q-11 17 -11 41q0 11 3 24q22 60 52 115t63.5 108t68.5 104t68 102q24 37 44 77t42 79q44 79 86 158t86 162q21 17 32 20q5 11 23.5 23t41.5 12.5 t44 -10.5t38 -35q33 -90 64.5 -175.5t55.5 -146.5q15 7 58 24.5t92 36.5q42 1 67.5 -15.5t33.5 -40.5q3 -10 3 -20q0 -14 -6 -29q-12 -27 -47 -48q-49 -8 -92.5 -15t-63.5 -12q-1 3 5.5 -13t13.5 -32q29 -71 52 -130.5t42 -117t34 -119.5t26 -141q-2 -41 -25.5 -64.5 t-56.5 -23.5h-1q-32 0 -56 22q-25 20 -30 59v66t-1 50.5t-4.5 49t-10.5 62.5q-16 86 -44 165t-54 137q-2 -1 -25.5 -8.5t-46.5 -17.5q-30 -14 -75.5 -38.5t-95 -49t-97 -45.5t-86.5 -25zM597 842q-43 -60 -108.5 -153t-99.5 -150q-47 -12 -37 -9.5t17 3.5q31 8 62 17t62 16 q19 -37 15.5 -38.5t-9.5 -3t-19 16t-10 18.5q65 18 126.5 43t104.5 44q-23 47 -56.5 108t-47.5 88z" />
<glyph unicode="&#xc4;" d="M0 0zM321 364q-38 4 -32 0q8 16 1.5 3.5t-13.5 -26.5q-34 -68 -64.5 -136t-47.5 -145q-15 -38 -45.5 -53t-61 -6t-47.5 38q-11 17 -11 41q0 11 3 24q22 60 52 115t63.5 108t68.5 104t68 102q24 37 44 77t42 79q44 79 86 158t86 162q21 17 32 20q5 11 23.5 22.5t41.5 13.5 h3q22 0 42 -12q20 -10 37 -34q33 -90 64.5 -175.5t55.5 -146.5q15 7 58 24.5t92 36.5q42 1 67.5 -15.5t33.5 -40.5q3 -10 3 -20q0 -14 -6 -29q-12 -27 -47 -48q-49 -8 -92.5 -15t-63.5 -12q-1 3 5.5 -13t13.5 -32q29 -71 52 -130.5t42 -117t34 -119.5t26 -141 q-2 -41 -25.5 -64.5t-56.5 -23.5h-1q-32 0 -56 22q-25 20 -30 59v66t-1 50.5t-4.5 49t-10.5 62.5q-16 86 -44 165t-54 137q-2 -1 -25.5 -8.5t-46.5 -17.5q-30 -14 -75.5 -38.5t-95 -49t-97 -45.5t-86.5 -25zM597 842q-43 -60 -108.5 -153t-99.5 -150q-47 -12 -37 -9.5 t17 3.5q31 8 62 17t62 16q19 -37 15.5 -38.5t-9.5 -3t-19 16t-10 18.5q65 18 126.5 43t104.5 44q-23 47 -56.5 108t-47.5 88zM733 1447q29 -8 42.5 -20.5t18.5 -24.5q12 -6 28.5 -24t22.5 -38q4 -12 4 -23t-4 -21q-7 -24 -41 -44h8q-5 -10 -29.5 -21.5t-46.5 -7.5 q-35 -13 -69.5 0t-47.5 68q-2 13 0 32t3 29q4 22 11 36t18 33q18 16 32 21t35 6q5 0 8 -0.5t7 -0.5zM538 1336q0 1 -1 2q8 -18 8 -36t-6 -33q-13 -36 -44 -48q-19 -9 -39 -9q-27 0 -47 15q-11 4 -24 14q-19 13 -28 42q-7 22 -7 45q0 5 1 11q1 27 14 53.5t45 34.5 q39 8 59 -9.5t69 -81.5z" />
<glyph unicode="&#xc5;" horiz-adv-x="1101" d="M753 1483l-25 25q-6 -15 12 -3t41 13.5t44.5 -9.5t39.5 -34q23 -41 40.5 -79.5t21.5 -78t-7.5 -80t-43.5 -80.5q-12 -16 -30.5 -31.5t-39.5 -22.5q-21 -8 -41.5 -13.5t-41.5 -11.5q-15 -4 -32.5 -2.5t-32.5 5t-27 7t-17 5.5q-36 8 -63.5 32.5t-48.5 54t-36 60.5t-24 58 q-8 22 -6.5 43.5t1.5 40.5q0 11 5 24t10.5 23.5t10 18t6.5 10.5q3 7 8.5 15t18.5 15q20 12 39.5 21.5t40.5 15.5q19 6 42 6h4q23 -1 50 -9q22 -7 40.5 -17t40.5 -22zM768 1226q11 14 14.5 29t0 31t-12 33t-3.5 9q9 7 -10.5 2.5t-45.5 -2.5q-18 5 -35.5 18t-33.5 24t-24.5 16 t-3.5 7q-13 -5 -22 -6.5t-13 -4.5q-11 -9 -15.5 -24t-1.5 -34.5t13.5 -41.5t24 -41t27.5 -32.5t26 -17.5q11 -4 21 -5.5t20 0.5q21 3 40 13.5t34 26.5zM321 364q-38 4 -32 0q8 16 1.5 3.5t-13.5 -26.5q-34 -68 -64.5 -136t-47.5 -145q-15 -38 -45.5 -53t-61 -6t-47.5 38 q-11 17 -11 41q0 11 3 24q22 60 52 115t63.5 108t68.5 104t68 102q24 37 44 77t42 79q44 79 86 158t86 162q21 17 32 20q5 11 23.5 23t41.5 12.5t44 -10.5t38 -35q33 -90 64.5 -175.5t55.5 -146.5q15 7 58 24.5t92 36.5q42 1 67.5 -15.5t33.5 -40.5q3 -10 3 -20 q0 -14 -6 -29q-12 -27 -47 -48q-49 -8 -92.5 -15t-63.5 -12q-1 3 5.5 -13t13.5 -32q29 -71 52 -130.5t42 -117t34 -119.5t26 -141q-2 -41 -25.5 -64.5t-56.5 -23.5h-1q-32 0 -56 22q-25 20 -30 59v66t-1 50.5t-4.5 49t-10.5 62.5q-16 86 -44 165t-54 137q-2 -1 -25.5 -8.5 t-46.5 -17.5q-30 -14 -75.5 -38.5t-95 -49t-97 -45.5t-86.5 -25zM597 842q-43 -60 -108.5 -153t-99.5 -150q-47 -12 -37 -9.5t17 3.5q31 8 62 17t62 16q19 -37 15.5 -38.5t-9.5 -3t-19 16t-10 18.5q65 18 126.5 43t104.5 44q-23 47 -56.5 108t-47.5 88z" />
<glyph unicode="&#xc6;" horiz-adv-x="1740" d="M531 977q-33 -59 -91.5 -163.5t-94.5 -181.5q-31 -5 -19 0q29 9 56.5 19.5t55.5 18.5q20 -37 17.5 -38l-7.5 -3t-19 15t-12 17q56 21 110.5 48.5t94.5 50.5q-22 57 -52 126t-39 91zM581 1224q2 1 30 2q120 -11 235 -27t231 -28q117 -13 236 -19.5t240 -16.5 q44 -13 60.5 -40.5t10.5 -54.5t-33 -47t-72 -15q-93 23 -183 42.5t-166.5 33.5t-101.5 17q-113 13 -228 8q-109 -5 -189 -9q9 -33 25 -87q28 -97 49 -164q8 5 46 24.5t81 40.5q43 4 66 -16t29.5 -45t-3 -53t-41.5 -51q-44 -9 -83 -17.5t-56 -13.5q0 -1 6 -18.5t12 -36.5 q25 -80 46 -146.5t38 -131.5t30 -134q8 -50 13 -90h-14q51 -16 100.5 -18.5t101.5 -0.5q64 2 126.5 10.5t125.5 19t126 23.5t129 24q46 3 71.5 -19t29.5 -51v-7q0 -23 -15 -45q-20 -27 -66 -36q-100 3 -198 0t-194 -16q-47 -6 -91.5 -14.5t-88.5 -16t-90.5 -11.5t-108.5 3 l9 -9q3 2 -17 0h-4q-30 0 -52 26q-21 20 -26 63v74t-1 56.5t-4 56t-9 71.5q-15 96 -39 185t-48 154q-15 -6 -58 -28q-26 -14 -66 -41.5t-83.5 -56t-87 -52t-81.5 -28.5q-37 7 -24 -6q8 23 2 9.5t-11 -27.5q-32 -78 -58.5 -154.5t-41.5 -162.5q-13 -42 -41.5 -59.5t-58 -6 t-43.5 41.5q-10 18 -10 43q0 12 2 26q20 66 46.5 128.5t56 121.5t60.5 116.5t60 114.5q22 43 39.5 87t37.5 88q38 89 75 177.5t77 182.5q19 19 28 22q5 12 21.5 25.5t39.5 15.5h2q22 0 41 -13q4 -2 -5 7z" />
<glyph unicode="&#xc7;" horiz-adv-x="1246" d="M0 0zM881 983q-27 3 -44 13.5t-26 21.5q-6 5 -11 10.5t-11 9.5q-18 14 -40 22.5t-47 15.5q-45 12 -91 23t-90.5 16t-89 1.5t-87.5 -18.5q-44 -16 -83 -45t-65 -71q-17 -27 -31.5 -68t-25.5 -90t-18 -102t-9.5 -103.5t0.5 -94t11 -75.5q13 -42 24 -83.5t32 -77.5 q26 -44 62.5 -72.5t79.5 -43.5t92 -19.5t98 -1.5q81 6 160 26t157 48.5t154.5 62.5t152.5 69q42 16 74.5 3t44.5 -39q7 -15 7 -31q0 -11 -2 -22q-10 -32 -47 -53q-62 -25 -125.5 -50.5t-128.5 -48.5t-132 -41.5t-133 -26.5q-33 -4 -78 -10.5t-92 -10.5q-33 -3 -65 -3 q-16 0 -32 1q-49 2 -88 18q-42 17 -68.5 27t-46.5 19.5t-34 19.5t-29 25t-34 38t-48 58q-21 25 -33 58.5t-19.5 69.5t-11.5 72t-7 67q-5 51 -6 112q-1 14 -1 29q0 49 4 98q5 64 17.5 128.5t36.5 122.5t62 107t94 81q67 39 131 57t129 21h28q50 0 102 -7q64 -9 135 -25 q45 -10 95.5 -28t82.5 -50l5 -2q23 -16 31 -30t18 -37q-2 -38 -19.5 -60t-59.5 -31h-11zM466 121q32 25 56 25q13 0 25 -3q30 -9 45 -29.5t14.5 -45.5t-18 -47t-18 -23t4.5 15q-5 2 9 -2.5t26.5 -12t23.5 -17t23 -24.5q15 -16 20 -39q3 -15 3 -28q0 -7 -1 -14 q-5 -40 -21 -70t-41 -52t-57 -35.5t-73 -23.5h-6q-10 0 -15 3l2 -1q-23 -2 -40 -2h-3q-19 0 -43 6q-36 17 -48 42q-10 19 -10 35q0 8 1 15q6 24 29 43t65 21q24 -7 41.5 -12t32 -6.5t26.5 1t25 12.5q5 3 10 9t8.5 12.5t4 11.5l0.5 5q-7 10 -16 10.5t-7 1.5t-0.5 -0.5 t-8.5 -3l-10 -2.5l-8 -2q-19 -5 -40.5 -6t-42.5 14q-23 16 -26.5 45.5t1 59t14.5 56.5t21 40q6 7 11.5 11t10.5 7z" />
<glyph unicode="&#xc8;" horiz-adv-x="922" d="M0 0zM566 654q24 -33 20 -63t-27 -50t-58.5 -19t-67.5 33q-3 5 -1 3.5t1 -1.5t-11.5 -1.5t-29.5 -1.5q-34 0 -66.5 -6.5t-48.5 -12.5q-1 -87 2 -186.5t7 -185.5q45 -10 108 -20.5t126 -12.5q82 -2 168.5 8.5t173.5 18.5q41 -12 57 -33q18 -24 18 -48v-1q-1 -26 -20.5 -47 t-60.5 -30q-87 9 -172 19.5t-168 12.5q-62 2 -125 -0.5t-105 -3.5q-4 -18 -29 -36q-22 -18 -50 -18h-3q-31 2 -54 23t-28 58v-5q-10 8 -18.5 26t-7.5 36t13 36t23 23q7 79 16 170t12 143q19 10 0 0t-42 -24q-43 -9 -71 4t-39 37q-8 14 -8 30q0 9 2 19q7 26 39 53 q41 9 75.5 16t49.5 9q0 1 -0.5 17t-0.5 33q-2 80 -10.5 160.5t-18.5 150.5q-10 3 -23 19.5t-16 34.5t4 38t19 28q-1 20 8.5 47.5t44.5 46.5q30 12 55.5 8.5t42.5 -17.5t24.5 -33t8.5 -11q12 1 56.5 5t88.5 10q73 11 145.5 25t153.5 25q42 -13 59 -36t16.5 -47.5t-20 -46 t-61.5 -30.5q-73 8 -142 14.5t-134 -3.5q-5 0 -17.5 -3t-28 -7t-33 -9t-25.5 -7l1 1q-27 -13 -49.5 -21t-30.5 -11q1 -41 3 -95t0 -108q0 -11 -1 -32t-2 -46.5t-2 -53t-1 -25.5q-17 -4 -2 -0.5t30 7.5t41 13t56.5 17t63 10.5t55.5 -9.5q6 -3 11.5 -7l11 -8t10.5 -8.5t9 -7.5 zM195 1632q-1 10 -1 17q0 28 16 49q19 26 50 33q8 2 16 2q24 0 46 -13q28 -18 40 -57q1 -21 3.5 -33.5t6.5 -24t10 -25.5t12 -32q15 -24 33 -44t37.5 -39t42 -37.5t51.5 -43.5q21 -29 21 -55v-8q-4 -31 -26 -50q-22 -20 -55 -20h-4q-36 1 -69 34q-25 46 -48.5 90t-53.5 82 q-18 22 -35 41t-33.5 38.5t-31 42t-28.5 53.5z" />
<glyph unicode="&#xc9;" horiz-adv-x="922" d="M0 0zM566 654q24 -33 20 -63t-27 -50t-58.5 -19t-67.5 33q-3 5 -1 3.5t1 -1.5t-11.5 -1.5t-29.5 -1.5q-34 0 -66.5 -6.5t-48.5 -12.5q-1 -87 2 -186.5t7 -185.5q45 -10 108 -20.5t126 -12.5q82 -2 168.5 8.5t173.5 18.5q41 -12 57 -33q18 -24 18 -48v-1q-1 -26 -20.5 -47 t-60.5 -30q-87 9 -172 19.5t-168 12.5q-62 2 -125 -0.5t-105 -3.5q-4 -18 -29 -36q-22 -18 -50 -18h-3q-31 2 -54 23t-28 58v-5q-10 8 -18.5 26t-7.5 36t13 36t23 23q7 79 16 170t12 143q19 10 0 0t-42 -24q-43 -9 -71 4t-39 37q-8 14 -8 30q0 9 2 19q7 26 39 53 q41 9 75.5 16t49.5 9q0 1 -0.5 17t-0.5 33q-2 80 -10.5 160.5t-18.5 150.5q-10 3 -23 19.5t-16 34.5t4 38t19 28q-1 20 8.5 47.5t44.5 46.5q30 12 55.5 8.5t42.5 -17.5t24.5 -33t8.5 -11q12 1 56.5 5t88.5 10q73 11 145.5 25t153.5 25q42 -13 59 -36t16.5 -47.5t-20 -46 t-61.5 -30.5q-73 8 -142 14.5t-134 -3.5q-5 0 -17.5 -3t-28 -7t-33 -9t-25.5 -7l1 1q-27 -13 -49.5 -21t-30.5 -11q1 -41 3 -95t0 -108q0 -11 -1 -32t-2 -46.5t-2 -53t-1 -25.5q-17 -4 -2 -0.5t30 7.5t41 13t56.5 17t63 10.5t55.5 -9.5q6 -3 11.5 -7l11 -8t10.5 -8.5t9 -7.5 zM340 1225q-32 -20 -59 -20q-8 0 -12 1q-29 3 -48 22.5t-22 45.5q-1 4 -1 9q0 23 17 51q31 29 67 60t73 57q10 10 23.5 21t25.5 18q4 5 12.5 13t21.5 15q29 12 50 9q13 2 26 2h13q23 -9 32 -18t16 -28q0 3 0.5 2.5t0.5 -9.5q-1 -23 -10 -32q0 -13 -11.5 -32.5t-36.5 -34.5 q-1 0 -3.5 -2t-4 -3t-55 -54.5t9.5 73.5q4 6 9.5 11.5l9 9t-72 -72t108.5 46.5q-13 -8 -28 -27.5t-33.5 -39.5t-44 -36t-32.5 -14q0 44 0.5 44t0.5 -21q0 -10 -6 -19.5t-12.5 -18t-13 -16t-11.5 -13.5zM324 1287q-1 -1 1 1.5t-69 -174.5q113 157 203 277.5t-135 -104.5z" />
<glyph unicode="&#xca;" horiz-adv-x="972" d="M368 1255q-39 -24 -74 -16t-52 32t-13 54.5t38 57.5q33 15 63 43t59.5 62.5t56 70t49.5 65.5q13 15 20.5 25.5t15.5 18.5t18 14.5t27 13.5q17 8 32 8t28 -6q23 -13 29 -40q8 -18 11 -37.5t9 -34.5q16 -42 40 -80.5t52 -80.5q10 -35 0.5 -61t-34 -40.5t-56 -9.5t-60.5 34 q-16 42 -32.5 81.5t-27.5 81.5q-6 20 -9 39t0 -9q24 23 12.5 3.5t-25.5 -42.5q-18 -30 -36 -63t-38.5 -66.5t-45.5 -64t-57 -53.5zM566 654q24 -33 20 -63t-27 -50t-58.5 -19t-67.5 33q-3 5 -1 3.5t1 -1.5t-11.5 -1.5t-29.5 -1.5q-34 0 -66.5 -6.5t-48.5 -12.5 q-1 -87 2 -186.5t7 -185.5q45 -10 108 -20.5t126 -12.5q82 -2 168.5 8.5t173.5 18.5q41 -12 57 -33q18 -24 18 -48v-1q-1 -26 -20.5 -47t-60.5 -30q-87 9 -172 19.5t-168 12.5q-62 2 -125 -0.5t-105 -3.5q-4 -18 -29 -36q-22 -18 -50 -18h-3q-31 2 -54 23t-28 58v-5 q-10 8 -18.5 26t-7.5 36t13 36t23 23q7 79 16 170t12 143q19 10 0 0t-42 -24q-43 -9 -71 4t-39 37q-8 14 -8 30q0 9 2 19q7 26 39 53q41 9 75.5 16t49.5 9q0 1 -0.5 17t-0.5 33q-2 80 -10.5 160.5t-18.5 150.5q-10 3 -23 19.5t-16 34.5t4 38t19 28q-1 20 8.5 47.5t44.5 46.5 q30 12 55.5 8.5t42.5 -17.5t24.5 -33t8.5 -11q12 1 56.5 5t88.5 10q73 11 145.5 25t153.5 25q42 -13 59 -36t16.5 -47.5t-20 -46t-61.5 -30.5q-73 8 -142 14.5t-134 -3.5q-5 0 -17.5 -3t-28 -7t-33 -9t-25.5 -7l1 1q-27 -13 -49.5 -21t-30.5 -11q1 -41 3 -95t0 -108 q0 -11 -1 -32t-2 -46.5t-2 -53t-1 -25.5q-17 -4 -2 -0.5t30 7.5t41 13t56.5 17t63 10.5t55.5 -9.5q6 -3 11.5 -7l11 -8t10.5 -8.5t9 -7.5z" />
<glyph unicode="&#xcb;" horiz-adv-x="922" d="M0 0zM566 654q24 -33 20 -63t-27 -50t-58.5 -19t-67.5 33q-3 5 -1 3.5t1 -1.5t-11.5 -1.5t-29.5 -1.5q-34 0 -66.5 -6.5t-48.5 -12.5q-1 -87 2 -186.5t7 -185.5q45 -10 108 -20.5t126 -12.5q82 -2 168.5 8.5t173.5 18.5q41 -12 57 -33q18 -24 18 -48v-1q-1 -26 -20.5 -47 t-60.5 -30q-87 9 -172 19.5t-168 12.5q-62 2 -125 -0.5t-105 -3.5q-4 -18 -29 -36q-22 -18 -50 -18h-3q-31 2 -54 23t-28 58v-5q-10 8 -18.5 26t-7.5 36t13 36t23 23q7 79 16 170t12 143q19 10 0 0t-42 -24q-43 -9 -71 4t-39 37q-8 14 -8 30q0 9 2 19q7 26 39 53 q41 9 75.5 16t49.5 9q0 1 -0.5 17t-0.5 33q-2 80 -10.5 160.5t-18.5 150.5q-10 3 -23 19.5t-16 34.5t4 38t19 28q-1 20 8.5 47.5t44.5 46.5q30 12 55.5 8.5t42.5 -17.5t24.5 -33t8.5 -11q12 1 56.5 5t88.5 10q73 11 145.5 25t153.5 25q42 -13 59 -36t16.5 -47.5t-20 -46 t-61.5 -30.5q-73 8 -142 14.5t-134 -3.5q-5 0 -17.5 -3t-28 -7t-33 -9t-25.5 -7l1 1q-27 -13 -49.5 -21t-30.5 -11q1 -41 3 -95t0 -108q0 -11 -1 -32t-2 -46.5t-2 -53t-1 -25.5q-17 -4 -2 -0.5t30 7.5t41 13t56.5 17t63 10.5t55.5 -9.5q6 -3 11.5 -7l11 -8t10.5 -8.5t9 -7.5 zM610 1447q29 -8 42.5 -20.5t18.5 -24.5q12 -6 28.5 -24t22.5 -38q4 -12 4 -23t-4 -21q-7 -24 -41 -44h8q-5 -10 -29.5 -21.5t-46.5 -7.5q-35 -13 -69.5 0t-47.5 68q-2 13 0 32t3 29q4 22 11 36t18 33q18 16 32 21t35 6q5 0 8 -0.5t7 -0.5zM415 1336q0 1 -1 2q8 -18 8 -36 t-6 -33q-13 -36 -44 -48q-19 -9 -39 -9q-27 0 -47 15q-11 4 -24 14q-19 13 -28 42q-7 22 -7 45q0 5 1 11q1 27 14 53.5t45 34.5q39 8 59 -9.5t69 -81.5z" />
<glyph unicode="&#xcc;" horiz-adv-x="372" d="M0 0zM169 33q-2 -40 -26 -64q-23 -23 -53 -23l-16 -3l-33 14l-11 11l-9 7q-16 12 -19 35l-2 18q6 76 15.5 151t18.5 149.5t15 149t6 147.5q0 66 -9 135.5t-18 140.5t-14 141t3 140q8 33 28 52q24 20 55 22q41 -4 54 -19q21 -16 26 -35l4 -13q3 -9 3 -15q-2 -23 -8 -36 q-1 -6 -3 -28.5t-2 -75.5t-17 -19q14 61 13.5 44.5t-2.5 -33.5q-2 -50 -2.5 -100.5t0.5 -101.5q4 -144 1 -287t-5 -288v-1q0 19 0.5 19t0.5 -20q4 -53 4 -106.5t2 -107.5zM3 1618q-1 10 -1 17q0 28 16 49q19 26 50 33q8 2 16 2q24 0 46 -13q28 -18 40 -57q1 -21 3.5 -33.5 t6.5 -24t10 -25.5t12 -32q15 -24 33 -44t37.5 -39t42 -37.5t51.5 -43.5q21 -29 21 -55v-8q-4 -31 -26 -50q-22 -20 -55 -20h-4q-36 1 -69 34q-25 46 -48.5 90t-53.5 82q-18 22 -35 41t-33.5 38.5t-31 42t-28.5 53.5z" />
<glyph unicode="&#xce;" horiz-adv-x="673" d="M154 1352q-39 -24 -73.5 -16t-52 32t-13.5 54.5t38 57.5q24 11 47.5 34.5t48 53t48.5 62t48 61.5t50 51.5t54 27.5q13 3 25 3h6q11 -1 27 -1q17 -6 25.5 -12t16.5 -18q23 -41 35.5 -80.5t25.5 -80.5q10 -20 18 -39.5t16.5 -36t20 -29t30.5 -21.5q35 -25 42 -56 q1 -9 1 -17q0 -19 -9 -36q-16 -26 -49 -36t-75 10q-53 37 -75.5 82.5t-33.5 93t-18 96t-19 78.5q23 0 15 -8.5t-19.5 -23t-20.5 -29.5t-10 -16q-17 -26 -34 -59t-36.5 -65.5t-43.5 -63t-56 -53.5zM472 1541q-4 4 -4 116l48 -97zM169 33q-2 -40 -25.5 -63.5t-56.5 -23.5h-1 q-32 0 -56 22q-25 20 -30 60q6 76 15.5 151t18.5 149.5t15 149t6 147.5q0 66 -9 135.5t-18 140.5t-14 141t3 140q8 33 29.5 52.5t50.5 21.5t53.5 -16.5t33.5 -50.5q3 -9 3 -15q-2 -23 -8 -36q-1 -6 -2 -15.5t-2 -17.5q0 -2 -0.5 -6t-0.5 -7.5v-57t-50 46.5l-2 7l50 7 q-1 -18 -1.5 -35t-2.5 -34q-2 -50 -2.5 -100.5t0.5 -101.5q4 -144 1 -287t-5 -288v-1q0 19 0.5 19t0.5 -20q4 -53 4 -106.5t2 -107.5zM124 1110q0 -348 24.5 -176.5l24.5 171.5q-50 -1 -49.5 1.5t0.5 3.5z" />
<glyph unicode="&#xcf;" horiz-adv-x="484" d="M0 0zM180 33q-2 -40 -26 -64q-23 -23 -53 -23l-16 -3l-33 14l-11 11l-9 7q-16 12 -19 35l-2 18q6 76 15.5 151t18.5 149.5t15 149t6 147.5q0 66 -9 135.5t-18 140.5t-14 141t3 140q8 33 28 52q24 20 55 22q41 -4 54 -19q21 -16 26 -35l4 -13q3 -9 3 -15q-2 -23 -8 -36 q-1 -6 -3 -28.5t-2 -75.5t-17 -19q14 61 13.5 44.5t-2.5 -33.5q-2 -50 -2.5 -100.5t0.5 -101.5q4 -144 1 -287t-5 -288v-1q0 19 0.5 19t0.5 -20q4 -53 4 -106.5t2 -107.5zM383 1457q29 -8 42.5 -20.5t18.5 -24.5q12 -6 28.5 -24t22.5 -38q4 -12 4 -23t-4 -21q-7 -24 -41 -44 h8q-5 -10 -29.5 -21.5t-46.5 -7.5q-35 -13 -69.5 0t-47.5 68q-2 13 0 32t3 29q4 22 11 36t18 33q18 16 32 21t35 6q5 0 8 -0.5t7 -0.5zM188 1346q0 1 -1 2q8 -18 8 -36t-6 -33q-13 -36 -44 -48q-19 -9 -39 -9q-27 0 -47 15q-11 4 -24 14q-19 13 -28 42q-7 22 -7 45q0 5 1 11 q1 27 14 53.5t45 34.5q39 8 59 -9.5t69 -81.5z" />
<glyph unicode="&#xd0;" horiz-adv-x="1598" d="M683 19q-10 20 -11 38.5t5.5 34t19 27.5t7.5 10q2 -4 1 12q8 129 15 255t2 253q-5 126 -18.5 251t-24.5 253q8 37 -22 13q21 2 -32 -9t-106 -27q-66 -20 -130.5 -43.5t-122.5 -59.5q-33 -21 -63.5 -46.5t-62.5 -56.5q-35 -21 -66.5 -17.5t-50.5 23t-22 45.5q-1 4 -1 9 q0 23 17 51q76 65 157 110.5t168 77t179 50t185 27.5q30 3 63.5 5.5t68.5 3.5h8q31 0 60 -3q36 -5 67 -16q32 -10 67.5 -18t71 -17t70.5 -24t65 -40q44 -37 86.5 -74t85.5 -75q24 -20 45 -52.5t38 -71.5t30 -81t20.5 -83.5t9.5 -78.5q1 -10 1 -19q0 -28 -5 -49 q-11 -51 -22.5 -102t-23.5 -103q-8 -30 -27.5 -66t-46 -73t-59.5 -72.5t-67 -66t-68.5 -53.5t-65.5 -34q-59 -19 -118 -36.5t-119 -35.5q-26 -8 -62 -10q-14 -2 -28 -2q-21 0 -44 3q-39 4 -73 18.5t-51 44.5zM874 146q-1 -23 -9 -40.5t20 5.5h-52q18 -1 32.5 -2t29.5 0 q57 2 113 17.5t109 39.5q67 29 123 76.5t97 107t66.5 129t31.5 143.5q5 47 1.5 94t-15.5 92q-58 203 -245 297q-97 49 -191.5 65.5t-124.5 14.5q-39 23 -29 9t17 -35q-8 -129 -14.5 -254.5t-1.5 -251.5q5 -127 18.5 -252.5t23.5 -254.5zM989 695q14 -1 19.5 -1.5t11.5 -0.5 q30 7 56.5 -3.5t38.5 -31t9.5 -46t-25.5 -55.5q-17 -7 -24 -12t-26 -7q-10 -3 -27.5 1.5t-35.5 9.5t-39 11.5t-39 12t-30.5 9.5t-17.5 6q-131 66 -54 52t75 -55q-22 4 -48 7t-50 1t-43 -9t-30 -21q-6 -10 -11.5 -20t-14.5 -27q-38 -23 -69.5 -19.5t-50.5 22.5t-22.5 46.5 t16.5 59.5q12 12 24 25t31 21q35 17 71 23.5t72 7t70 -2t67 -2.5q23 0 47.5 -0.5t48.5 -1.5zM1043 654q-1 0 -4.5 -0.5l-3.5 -0.5l-3 40q2 0 -212.5 -19.5t223.5 -19.5zM896 623l-10 -40z" />
<glyph unicode="&#xd1;" horiz-adv-x="1114" d="M247 1357q5 27 19 44l2 6q6 14 12 25.5t13 25.5q8 16 22.5 44.5t34.5 57.5t49 52t67 17q36 -7 64 -28.5t49.5 -50t40 -61t36 -63.5t34.5 -57t37 -41q28 -23 46 -26.5t29.5 3.5t21.5 30t13 57q3 33 3 64q0 38 -4 76.5t-10 78.5q8 37 30 56.5t51 21.5h2q29 0 51 -17 q25 -19 35 -53q2 -46 1.5 -90t-7.5 -88q-3 -25 -5 -38.5t-5 -25t-7.5 -24.5t-12.5 -37q-5 -16 -16 -35t-15 -28q-12 -21 -35.5 -39t-51.5 -22q-61 -7 -107.5 10.5t-81.5 48.5t-63 70t-57 80q-19 30 -39.5 55t-28.5 31q18 18 18 19q-5 -21 -15.5 -39t-19.5 -38 q-3 -8 -9.5 -27.5t-7.5 -23.5l-4 4q5 -14 1.5 -27.5t-9.5 -26.5t-14 -23.5t-17 -17.5q-49 -30 -90.5 -9.5t-48.5 71.5q0 -1 -0.5 0t-0.5 8zM293 1062q89 290 187 518q-49 -242 -52 -248q-224 -560 -135 -270zM426 1428.5q0 54.5 51 156.5v-109q-51 -102 -51 -47.5zM178 7 q-2 -40 -25.5 -63.5t-56.5 -23.5h-1q-32 0 -56 22q-25 20 -30 60q7 70 20.5 137.5t25.5 134.5t20.5 134t5.5 133q-2 69 -11 137.5t-20 137t-24.5 136.5t-25.5 139q9 42 38 62.5t59 13.5q32 3 67 -23q73 -86 139.5 -174t131 -177t128.5 -178t131 -177q48 -65 100.5 -124.5 t66.5 -74.5q6 130 6 313t-11 368q-1 20 -4 49.5t-5 62.5t-1 68t8 67t22 59.5t46 44.5q42 17 74.5 4t45 -37.5t5 -54t-35.5 -47.5q1 2 -0.5 -3t-3.5 -16q-3 -13 -3 -29t-8 -32q-75 -226 -62 -106t14 126t-11 -105t61 110q-3 -8 -2.5 -17.5t-0.5 -21.5q-1 -20 -3 -52 t-3.5 -66.5t-2.5 -66.5t-1 -51q6 -178 16 -351t22 -352q-2 -20 -3 -25q-1 1 7.5 -7t18.5 -18q20 -28 20 -54v-7q-4 -32 -26.5 -52t-58.5 -18.5t-67 32.5q-72 84 -137.5 172t-130 176t-128.5 177t-130 176q-60 79 -125 151t-86 94q2 -43 5.5 -146.5t8.5 -207.5q2 -35 4 -69 t2 -69q0 -51 -4 -101t-7.5 -100t-6.5 -99.5t-1 -100.5zM972 1015q48 143 108 262l-109 -108q0 -2 0.5 -1t0.5 -153z" />
<glyph unicode="&#xd2;" horiz-adv-x="1338" d="M0 0zM469 1227l9 3t21.5 6t59 12.5t69.5 32.5q-92 -36 -84.5 -35.5t15.5 1.5h10q35 -10 51.5 -29t20 -41t-8.5 -44.5t-39 -38.5q-13 -6 -26 -7.5t-19 -3.5q-30 -6 -56 -12.5t-50 -16.5q-65 -33 -76 -39.5t-18 -14.5q-46 -46 -82.5 -80t-62 -68t-41.5 -76.5t-20 -106.5 q-6 -86 21.5 -164t79 -145.5t121.5 -121.5t149 -90.5t162 -54.5t159 -12q94 7 174 33t132 73t70 119.5t-11 175.5q-13 41 -33.5 85t-45 86.5t-52 82t-52.5 74.5q-77 105 -164.5 192.5t-185.5 172.5q-29 29 -30 60t18.5 53t55.5 27h9q30 0 61 -22q69 -64 135 -133t126.5 -142 t114 -152t94.5 -162q24 -48 48 -96.5t30 -101.5q3 -21 9 -44t10.5 -46t5.5 -47v-3q0 -23 -9 -46q-14 -37 -26 -77t-34 -80q-16 -29 -50 -55t-74.5 -47.5t-86 -37.5t-88.5 -26t-81 -14q-27 -4 -48 -4h-17q-31 3 -63 3t-64.5 2t-66 6.5t-65.5 17.5q-27 12 -56 20.5t-59 19.5 t-59.5 25t-55.5 35q-23 17 -47.5 34t-49.5 35t-48 39t-40 48q-34 51 -65 96t-54 92t-36 101q-10 43 -10 95q0 14 1 27q4 75 27.5 143t61.5 127.5t89.5 110.5t113.5 91q40 26 83 46.5t93 33.5zM325 1700q-1 10 -1 17q0 28 16 49q19 26 50 33q8 2 16 2q24 0 46 -13 q28 -18 40 -57q1 -21 3.5 -33.5t6.5 -24t10 -25.5t12 -32q15 -24 33 -44t37.5 -39t42 -37.5t51.5 -43.5q21 -29 21 -55v-8q-4 -31 -26 -50q-22 -20 -55 -20h-4q-36 1 -69 34q-25 46 -48.5 90t-53.5 82q-18 22 -35 41t-33.5 38.5t-31 42t-28.5 53.5z" />
<glyph unicode="&#xd3;" horiz-adv-x="1338" d="M0 0zM469 1227l9 3t21.5 6t59 12.5t69.5 32.5q-92 -36 -84.5 -35.5t15.5 1.5h10q35 -10 51.5 -29t20 -41t-8.5 -44.5t-39 -38.5q-13 -6 -26 -7.5t-19 -3.5q-30 -6 -56 -12.5t-50 -16.5q-65 -33 -76 -39.5t-18 -14.5q-46 -46 -82.5 -80t-62 -68t-41.5 -76.5t-20 -106.5 q-6 -86 21.5 -164t79 -145.5t121.5 -121.5t149 -90.5t162 -54.5t159 -12q94 7 174 33t132 73t70 119.5t-11 175.5q-13 41 -33.5 85t-45 86.5t-52 82t-52.5 74.5q-77 105 -164.5 192.5t-185.5 172.5q-29 29 -30 60t18.5 53t55.5 27h9q30 0 61 -22q69 -64 135 -133t126.5 -142 t114 -152t94.5 -162q24 -48 48 -96.5t30 -101.5q3 -21 9 -44t10.5 -46t5.5 -47v-3q0 -23 -9 -46q-14 -37 -26 -77t-34 -80q-16 -29 -50 -55t-74.5 -47.5t-86 -37.5t-88.5 -26t-81 -14q-27 -4 -48 -4h-17q-31 3 -63 3t-64.5 2t-66 6.5t-65.5 17.5q-27 12 -56 20.5t-59 19.5 t-59.5 25t-55.5 35q-23 17 -47.5 34t-49.5 35t-48 39t-40 48q-34 51 -65 96t-54 92t-36 101q-10 43 -10 95q0 14 1 27q4 75 27.5 143t61.5 127.5t89.5 110.5t113.5 91q40 26 83 46.5t93 33.5zM587 1342q-32 -20 -59 -20q-8 0 -12 1q-29 3 -48 22.5t-22 45.5q-1 4 -1 9 q0 23 17 51q31 29 67 60t73 57q10 10 23.5 21t25.5 18q4 5 12.5 13t21.5 15q29 12 50 9q13 2 26 2h13q23 -9 32 -18t16 -28q0 3 0.5 2.5t0.5 -9.5q-1 -23 -10 -32q0 -13 -11.5 -32.5t-36.5 -34.5q-1 0 -3.5 -2t-4 -3t-55 -54.5t9.5 73.5q4 6 9.5 11.5l9 9t-72 -72 t108.5 46.5q-13 -8 -28 -27.5t-33.5 -39.5t-44 -36t-32.5 -14q0 44 0.5 44t0.5 -21q0 -10 -6 -19.5t-12.5 -18t-13 -16t-11.5 -13.5zM571 1404q-1 -1 1 1.5t-69 -174.5q113 157 203 277.5t-135 -104.5z" />
<glyph unicode="&#xd4;" horiz-adv-x="1388" d="M493 1276q-40 -24 -75 -16t-52 32t-13 54.5t37 56.5q9 5 15.5 18.5t30.5 29.5h-5q-2 -3 3.5 5t10.5 16q18 27 26.5 40t15 23t14.5 23t24 40q7 11 11.5 18t9 14.5t11 16.5t16.5 23q10 12 20 24.5t21 24.5q33 35 62 44q13 4 26 4q19 0 37 -9q23 -13 40.5 -39.5t33.5 -56.5 q9 -18 20.5 -42.5t24.5 -48t27.5 -40.5t27.5 -24q7 -3 16.5 -3.5t28.5 -4.5q33 -24 42 -50t-0.5 -50t-36 -39t-68.5 -10q-17 8 -35 12t-36 20q-28 25 -48 55t-35.5 62.5t-27 65.5t-22.5 68v0q-8 19 -3 11l-18 -28.5t-33 -62.5t-29 -71.5t-30 -74t-36 -70.5t-49 -61z M469 1227l9 3t21.5 6t59 12.5t69.5 32.5q-92 -36 -84.5 -35.5t15.5 1.5h10q35 -10 51.5 -29t20 -41t-8.5 -44.5t-39 -38.5q-13 -6 -26 -7.5t-19 -3.5q-30 -6 -56 -12.5t-50 -17.5q-14 -5 -39.5 -18t-36.5 -20t-18 -15q-46 -46 -82.5 -80t-62 -68t-41.5 -76.5t-20 -106.5 q-6 -86 21.5 -164t79 -145.5t121.5 -121.5t149 -90.5t162 -54.5t159 -12q94 7 174 33t132 73t70 119.5t-11 175.5q-13 41 -33.5 85t-45 86.5t-52 82t-52.5 74.5q-77 105 -164.5 192.5t-185.5 172.5q-29 29 -30 60t18.5 53t54.5 26.5t71 -21.5q69 -64 135 -133t126.5 -142 t114 -152t94.5 -162q24 -48 48 -96.5t30 -101.5q3 -21 9 -44t10.5 -46t5.5 -47v-3q0 -23 -9 -46q-14 -37 -26 -77t-33 -78q-18 -31 -51 -57t-74 -47.5t-86.5 -37.5t-88.5 -26t-81 -14q-27 -4 -48 -4h-17q-31 3 -63 3t-64.5 2t-66 6.5t-65.5 17.5q-27 12 -56 20.5t-59 19.5 t-59.5 25t-55.5 35q-23 17 -47.5 34t-49.5 35t-48 39t-40 48q-34 51 -65 96t-54 92t-36 101q-10 43 -10 95q0 14 1 27q4 75 27.5 143t61.5 127.5t89.5 110.5t113.5 91q40 26 83 46.5t93 33.5z" />
<glyph unicode="&#xd5;" horiz-adv-x="1388" d="M511 1381q-25 -31 -56 -38.5t-56 5.5t-37.5 38.5t-4.5 60.5q10 22 20.5 52.5t25 61t36.5 57.5t59 35q44 10 76.5 -10t54.5 -48t39 -57t32 -47q24 -29 34.5 -36.5t11 -7t7.5 15.5t16 48q4 13 6 23.5t4 25.5q2 9 5 25.5t5.5 34t5 29.5t2.5 17q20 34 49 47q17 7 34 7 q12 0 24 -3q27 -9 42.5 -33.5t14.5 -59.5q-8 -21 -17.5 -51.5t-22 -64t-30 -67.5t-41 -61t-56.5 -42t-74 -3q-29 9 -57.5 36t-55.5 58t-51 59.5t-18 23.5q10 20 8.5 16.5t6.5 4.5l-7 7q2 -17 -2 -37.5t-10 -43.5t-12.5 -44t-10.5 -34zM469 1227l9 3t21.5 6t59 12.5 t69.5 32.5q-92 -36 -84.5 -35.5t15.5 1.5h10q35 -10 51.5 -29t20 -41t-8.5 -44.5t-39 -38.5q-13 -6 -26 -7.5t-19 -3.5q-30 -6 -56 -12.5t-50 -17.5q-12 -5 -24.5 -12.5t-38 -20.5t-31.5 -20q-46 -46 -82.5 -80t-62 -68t-41.5 -76.5t-20 -106.5q-6 -86 21.5 -164t79 -145.5 t121.5 -121.5t149 -90.5t162 -54.5t159 -12q94 7 174 33t132 73t70 119.5t-11 175.5q-13 41 -33.5 85t-45 86.5t-52 82t-52.5 74.5q-77 105 -164.5 192.5t-185.5 172.5q-29 29 -30 60t18.5 53t54.5 26.5t71 -21.5q69 -64 135 -133t126.5 -142t114 -152t94.5 -162 q24 -48 48 -96.5t30 -101.5q3 -21 9 -44t10.5 -46t5.5 -47v-3q0 -23 -9 -46q-14 -37 -26 -77t-33 -78q-18 -31 -51 -57t-74 -47.5t-86.5 -37.5t-88.5 -26t-81 -14q-27 -4 -48 -4h-17q-31 3 -63 3t-64.5 2t-66 6.5t-65.5 17.5q-27 12 -56 20.5t-59 19.5t-59.5 25t-55.5 35 q-23 17 -47.5 34t-49.5 35t-48 39t-40 48q-34 51 -65 96t-54 92t-36 101q-10 43 -10 95q0 14 1 27q4 75 27.5 143t61.5 127.5t89.5 110.5t113.5 91q40 26 83 46.5t93 33.5zM382 1073q87 154 57.5 60.5t44.5 -56.5q-98 0 -102 -4z" />
<glyph unicode="&#xd6;" horiz-adv-x="1338" d="M0 0zM469 1227l9 3t21.5 6t59 12.5t69.5 32.5q-92 -36 -84.5 -35.5t15.5 1.5h10q35 -10 51.5 -29t20 -41t-8.5 -44.5t-39 -38.5q-13 -6 -26 -7.5t-19 -3.5q-30 -6 -56 -12.5t-50 -16.5q-65 -33 -76 -39.5t-18 -14.5q-46 -46 -82.5 -80t-62 -68t-41.5 -76.5t-20 -106.5 q-6 -86 21.5 -164t79 -145.5t121.5 -121.5t149 -90.5t162 -54.5t159 -12q94 7 174 33t132 73t70 119.5t-11 175.5q-13 41 -33.5 85t-45 86.5t-52 82t-52.5 74.5q-77 105 -164.5 192.5t-185.5 172.5q-29 29 -30 60t18.5 53t55.5 27h9q30 0 61 -22q69 -64 135 -133t126.5 -142 t114 -152t94.5 -162q24 -48 48 -96.5t30 -101.5q3 -21 9 -44t10.5 -46t5.5 -47v-3q0 -23 -9 -46q-14 -37 -26 -77t-34 -80q-16 -29 -50 -55t-74.5 -47.5t-86 -37.5t-88.5 -26t-81 -14q-27 -4 -48 -4h-17q-31 3 -63 3t-64.5 2t-66 6.5t-65.5 17.5q-27 12 -56 20.5t-59 19.5 t-59.5 25t-55.5 35q-23 17 -47.5 34t-49.5 35t-48 39t-40 48q-34 51 -65 96t-54 92t-36 101q-10 43 -10 95q0 14 1 27q4 75 27.5 143t61.5 127.5t89.5 110.5t113.5 91q40 26 83 46.5t93 33.5zM726 1537q29 -8 42.5 -20.5t18.5 -24.5q12 -6 28.5 -24t22.5 -38q4 -12 4 -23 t-4 -21q-7 -24 -41 -44h8q-5 -10 -29.5 -21.5t-46.5 -7.5q-35 -13 -69.5 0t-47.5 68q-2 13 0 32t3 29q4 22 11 36t18 33q18 16 32 21t35 6q5 0 8 -0.5t7 -0.5zM531 1426q0 1 -1 2q8 -18 8 -36t-6 -33q-13 -36 -44 -48q-19 -9 -39 -9q-27 0 -47 15q-11 4 -24 14 q-19 13 -28 42q-7 22 -7 45q0 5 1 11q1 27 14 53.5t45 34.5q39 8 59 -9.5t69 -81.5z" />
<glyph unicode="&#xd7;" horiz-adv-x="852" d="M13 939q-12 27 -12 46q0 7 1 15q5 27 26 44.5t53 18.5h2q31 0 63 -25q12 -17 26 -30.5t29.5 -26.5t31 -26.5t30.5 -26.5q20 -20 39.5 -40t37.5 -40q26 -29 50 -57.5t30 -36.5q33 26 85 70.5t107 93.5q40 15 70.5 7.5t45 -28.5t13.5 -48.5t-26 -57.5q-63 -36 -123 -68.5 t-98 -55.5l-9 9q73 -84 150.5 -162t160.5 -154q21 -29 21 -55v-8q-4 -31 -26 -50q-22 -20 -55 -20h-4q-36 1 -67 32q-72 91 -139 185.5t-126 162.5q12 8 3.5 1.5t-16.5 -12.5q-71 -53 -126 -119.5t-104 -144.5q-27 -33 -62.5 -37.5t-60.5 13.5t-31 48q-3 8 -3 16q0 23 17 50 q40 43 76 75t72 60.5t73.5 56.5t80.5 60q7 5 14 11t-2 0q8 -9 2 -3t-12 13q-34 34 -74.5 69.5t-79.5 62.5q-22 16 -40.5 27.5t-37 23.5t-36.5 26t-40 35z" />
<glyph unicode="&#xd8;" horiz-adv-x="1338" d="M0 0zM469 1227l9 3t21.5 6t59 12.5t69.5 32.5q-92 -36 -84.5 -35.5t15.5 1.5h10q35 -10 51.5 -29t20 -41t-8.5 -44.5t-39 -38.5q-13 -6 -26 -7.5t-19 -3.5q-30 -6 -56 -12.5t-50 -16.5q-65 -33 -76 -39.5t-18 -14.5q-46 -46 -82.5 -80t-62 -68t-41.5 -76.5t-20 -106.5 q-6 -86 21.5 -164t79 -145.5t121.5 -121.5t149 -90.5t162 -54.5t159 -12q94 7 174 33t132 73t70 119.5t-11 175.5q-13 41 -33.5 85t-45 86.5t-52 82t-52.5 74.5q-77 105 -164.5 192.5t-185.5 172.5q-29 29 -30 60t18.5 53t55.5 27h9q30 0 61 -22q69 -64 135 -133t126.5 -142 t114 -152t94.5 -162q24 -48 48 -96.5t30 -101.5q3 -21 9 -44t10.5 -46t5.5 -47v-3q0 -23 -9 -46q-14 -37 -26 -77t-34 -80q-16 -29 -50 -55t-74.5 -47.5t-86 -37.5t-88.5 -26t-81 -14q-27 -4 -48 -4h-17q-31 3 -63 3t-64.5 2t-66 6.5t-65.5 17.5q-27 12 -56 20.5t-59 19.5 t-59.5 25t-55.5 35q-23 17 -47.5 34t-49.5 35t-48 39t-40 48q-34 51 -65 96t-54 92t-36 101q-10 43 -10 95q0 14 1 27q4 75 27.5 143t61.5 127.5t89.5 110.5t113.5 91q40 26 83 46.5t93 33.5zM1118.8 1310.14l3.54199 18.8398q4.72266 24.3809 38.96 46.5449l14.167 8.86621 l34.2373 9.97363l22.4316 -1.1084l11.8057 -2.21582q23.6123 -2.2168 38.96 -18.8398l11.8066 -12.1904l9.44434 -11.082q14.167 -14.4072 14.167 -28.8135v-11.083l-2.36035 -21.0557l-11.8066 -44.3291q-11.8057 -41.0039 -46.043 -119.687 q-31.877 -78.6836 -69.0654 -155.704q-37.1895 -77.0215 -76.1494 -153.488t-75.5586 -152.934q-76.7393 -165.124 -142.853 -332.465q-66.1143 -167.341 -123.964 -339.114q-18.8896 -42.1113 -55.4883 -58.7354q-23.6113 -7.75684 -47.2236 -11.082 q-25.9736 0 -41.3213 8.86621q-17.709 5.54102 -31.876 25.4883l-7.08398 12.1904l-8.26367 14.4072l-8.26465 26.5977l3.54199 12.1895l3.54199 19.9482l28.334 57.627q24.793 53.1943 80.8711 160.138q56.0791 106.942 110.387 214.439t105.664 215.548t95.0381 222.197 q37.7793 98.6309 70.8369 196.708q33.0566 98.0771 41.3203 150.163z" />
<glyph unicode="&#xd9;" horiz-adv-x="926" d="M0 0zM4 1137q8 40 35 59q24 17 51 17h8q33 -5 54.5 -29.5t19.5 -64.5q-15 -123 -10 -260t29.5 -273.5t68.5 -261t109 -219.5q10 -15 25 -27.5t33 -25t37 -24.5t27 -18q6 1 23.5 1.5t33 2t27.5 4.5t22 9q40 27 71.5 70.5t54.5 94.5t37.5 104t21.5 98q11 74 15 133t1.5 111 t-10.5 100.5t-19.5 101t-26 112.5t-30.5 135q-5 39 14.5 65t50.5 33t60.5 -10.5t41.5 -57.5q7 -42 18.5 -91.5t22 -103t17.5 -107.5q4 -35 4 -69q0 -21 -2 -40q-3 -41 -4.5 -82.5t-4 -83t-6.5 -83t-12 -83.5q-12 -59 -24 -102.5t-26.5 -78t-32 -63.5t-41 -56.5t-52 -57.5 t-64.5 -70q-8 -7 -17.5 -10.5t-17.5 -4.5q-50 -8 -97 -17q-31 -6 -62 -6q-19 0 -37 3q-50 6 -93.5 36.5t-78.5 99.5q-19 36 -40.5 71.5t-42 72t-38.5 75t-28 80.5q-23 101 -47.5 198.5t-42.5 194.5t-26 196q-4 48 -4 99t4 103zM363 1473q-1 10 -1 17q0 28 16 49q19 26 50 33 q8 2 16 2q24 0 46 -13q28 -18 40 -57q1 -21 3.5 -33.5t6.5 -24t10 -25.5t12 -32q15 -24 33 -44t37.5 -39t42 -37.5t51.5 -43.5q21 -29 21 -55v-8q-4 -31 -26 -50q-22 -20 -55 -20h-4q-36 1 -69 34q-25 46 -48.5 90t-53.5 82q-18 22 -35 41t-33.5 38.5t-31 42t-28.5 53.5z " />
<glyph unicode="&#xda;" horiz-adv-x="926" d="M0 0zM4 1137q8 40 35 59q24 17 51 17h8q33 -5 54.5 -29.5t19.5 -64.5q-15 -123 -10 -260t29.5 -273.5t68.5 -261t109 -219.5q10 -15 25 -27.5t33 -25t37 -24.5t27 -18q6 1 23.5 1.5t33 2t27.5 4.5t22 9q40 27 71.5 70.5t54.5 94.5t37.5 104t21.5 98q11 74 15 133t1.5 111 t-10.5 100.5t-19.5 101t-26 112.5t-30.5 135q-5 39 14.5 65t50.5 33t60.5 -10.5t41.5 -57.5q7 -42 18.5 -91.5t22 -103t17.5 -107.5q4 -35 4 -69q0 -21 -2 -40q-3 -41 -4.5 -82.5t-4 -83t-6.5 -83t-12 -83.5q-12 -59 -24 -102.5t-26.5 -78t-32 -63.5t-41 -56.5t-52 -57.5 t-64.5 -70q-8 -7 -17.5 -10.5t-17.5 -4.5q-50 -8 -97 -17q-31 -6 -62 -6q-19 0 -37 3q-50 6 -93.5 36.5t-78.5 99.5q-19 36 -40.5 71.5t-42 72t-38.5 75t-28 80.5q-23 101 -47.5 198.5t-42.5 194.5t-26 196q-4 48 -4 99t4 103zM590 1287q-32 -20 -59 -20q-8 0 -12 1 q-29 3 -48 22.5t-22 45.5q-1 4 -1 9q0 23 17 51q31 29 67 60t73 57q10 10 23.5 21t25.5 18q4 5 12.5 13t21.5 15q29 12 50 9q13 2 26 2h13q23 -9 32 -18t16 -28q0 3 0.5 2.5t0.5 -9.5q-1 -23 -10 -32q0 -13 -11.5 -32.5t-36.5 -34.5q-1 0 -3.5 -2t-4 -3t-55 -54.5t9.5 73.5 q4 6 9.5 11.5l9 9t-72 -72t108.5 46.5q-13 -8 -28 -27.5t-33.5 -39.5t-44 -36t-32.5 -14q0 44 0.5 44t0.5 -21q0 -10 -6 -19.5t-12.5 -18t-13 -16t-11.5 -13.5zM574 1349q-1 -1 1 1.5t-69 -174.5q113 157 203 277.5t-135 -104.5z" />
<glyph unicode="&#xdb;" horiz-adv-x="976" d="M515 1332q-43 -9 -71 4t-39.5 36t-5 49.5t36.5 51.5q2 1 3 2.5t4 7t10 13.5t17 10q80 39 -11 -12q15 19 27.5 43.5t26.5 45.5q24 39 48.5 77t48.5 76q10 17 21 39.5t35 37.5q11 7 22 10t19 6q9 2 17 2q15 0 28 -7q13 -8 23 -22q15 -17 23 -36.5t14 -38.5t9.5 -39.5 t8.5 -40.5q9 -41 19 -75t28 -72q11 -39 -3 -67.5t-43.5 -39.5t-62.5 1t-51 52q-10 36 -14 71.5t-6.5 70.5t-4.5 69t2 10q10 14 -9.5 -29t-40.5 -89q-11 -25 -20.5 -55t-22.5 -58.5t-32 -55.5t-54 -48zM4 1137q8 40 35.5 59.5t59.5 16t53.5 -28.5t19.5 -65q-15 -123 -10 -260 t29.5 -273.5t68.5 -261t109 -219.5q10 -15 25 -27.5t33 -25t37 -24.5t27 -18q6 1 23.5 1.5t33 2t27.5 4.5t22 9q40 27 71.5 70.5t54.5 94.5t37.5 104t21.5 98q11 74 15 133t1.5 111t-10.5 100.5t-19.5 101t-26 112.5t-30.5 135q-5 39 14.5 65t50.5 33t60.5 -10.5t41.5 -57.5 q7 -42 18.5 -91.5t22 -103t17.5 -107.5q4 -35 4 -69q0 -21 -2 -40q-3 -41 -4.5 -82.5t-4 -83t-6.5 -83t-12 -83.5q-12 -59 -24 -102.5t-26.5 -78t-32 -63.5t-41 -56.5t-52 -57.5t-64.5 -70q-8 -7 -17.5 -10.5t-17.5 -4.5q-50 -8 -97 -17q-31 -6 -62 -6q-19 0 -37 3 q-50 6 -93.5 36.5t-78.5 99.5q-19 36 -40.5 71.5t-42 72t-38.5 75t-28 80.5q-23 101 -47.5 198.5t-42.5 194.5t-26 196q-4 48 -4 99t4 103z" />
<glyph unicode="&#xdc;" horiz-adv-x="926" d="M0 0zM4 1137q8 40 35 59q24 17 51 17h8q33 -5 54.5 -29.5t19.5 -64.5q-15 -123 -10 -260t29.5 -273.5t68.5 -261t109 -219.5q10 -15 25 -27.5t33 -25t37 -24.5t27 -18q6 1 23.5 1.5t33 2t27.5 4.5t22 9q40 27 71.5 70.5t54.5 94.5t37.5 104t21.5 98q11 74 15 133t1.5 111 t-10.5 100.5t-19.5 101t-26 112.5t-30.5 135q-5 39 14.5 65t50.5 33t60.5 -10.5t41.5 -57.5q7 -42 18.5 -91.5t22 -103t17.5 -107.5q4 -35 4 -69q0 -21 -2 -40q-3 -41 -4.5 -82.5t-4 -83t-6.5 -83t-12 -83.5q-12 -59 -24 -102.5t-26.5 -78t-32 -63.5t-41 -56.5t-52 -57.5 t-64.5 -70q-8 -7 -17.5 -10.5t-17.5 -4.5q-50 -8 -97 -17q-31 -6 -62 -6q-19 0 -37 3q-50 6 -93.5 36.5t-78.5 99.5q-19 36 -40.5 71.5t-42 72t-38.5 75t-28 80.5q-23 101 -47.5 198.5t-42.5 194.5t-26 196q-4 48 -4 99t4 103zM673 1427q29 -8 42.5 -20.5t18.5 -24.5 q12 -6 28.5 -24t22.5 -38q4 -12 4 -23t-4 -21q-7 -24 -41 -44h8q-5 -10 -29.5 -21.5t-46.5 -7.5q-35 -13 -69.5 0t-47.5 68q-2 13 0 32t3 29q4 22 11 36t18 33q18 16 32 21t35 6q5 0 8 -0.5t7 -0.5zM478 1316q0 1 -1 2q8 -18 8 -36t-6 -33q-13 -36 -44 -48q-19 -9 -39 -9 q-27 0 -47 15q-11 4 -24 14q-19 13 -28 42q-7 22 -7 45q0 5 1 11q1 27 14 53.5t45 34.5q39 8 59 -9.5t69 -81.5z" />
<glyph unicode="&#xdd;" horiz-adv-x="1083" d="M0 0zM515 36q-13 -36 -38 -51q-23 -13 -46 -13h-8q-30 4 -50.5 25.5t-25.5 56.5q7 49 10 96t18 94q12 38 23.5 77.5t25.5 78.5q10 26 19 47.5t8 19.5q-1 0 -28 27q-57 80 -105.5 163t-103.5 162q-26 38 -55.5 75t-57.5 75.5t-53.5 79.5t-45.5 89q-2 9 -2 16q0 24 11 43 q14 26 41 36.5t56.5 0.5t53.5 -42q11 -58 31.5 -109t47.5 -99.5t59 -94.5t62 -87h1q51 -57 96 -108t101 -105q0 -1 -29 28q-5 -7 10 17.5t34 55.5q88 147 183 284t192 280q31 26 63 27h5q28 0 49 -14q22 -16 30 -44q1 -9 1 -19q0 -18 -8 -40q-80 -95 -161.5 -187 t-154.5 -189t-131 -202t-92 -223q-14 -53 -21 -89.5t-9.5 -69.5t-3 -70.5t-2.5 -97.5zM469 1225q-32 -20 -59 -20q-8 0 -12 1q-29 3 -48 22.5t-22 45.5q-1 4 -1 9q0 23 17 51q31 29 67 60t73 57q10 10 23.5 21t25.5 18q4 5 12.5 13t21.5 15q29 12 50 9q13 2 26 2h13 q23 -9 32 -18t16 -28q0 3 0.5 2.5t0.5 -9.5q-1 -23 -10 -32q0 -13 -11.5 -32.5t-36.5 -34.5q-1 0 -3.5 -2t-4 -3t-55 -54.5t9.5 73.5q4 6 9.5 11.5l9 9t-72 -72t108.5 46.5q-13 -8 -28 -27.5t-33.5 -39.5t-44 -36t-32.5 -14q0 44 0.5 44t0.5 -21q0 -10 -6 -19.5t-12.5 -18 t-13 -16t-11.5 -13.5zM453 1287q-1 -1 1 1.5t-69 -174.5q113 157 203 277.5t-135 -104.5z" />
<glyph unicode="&#xde;" horiz-adv-x="619" d="M169 741q-10 -26 -26 -40.5t-20 -15.5q-6 -74 -6 -161t9.5 -173t29 -169.5t51.5 -164.5q11 -37 -3.5 -65.5t-41.5 -39.5q-15 -6 -31 -6q-17 0 -33 7q-33 12 -51 51q-19 73 -27 141t-11 135t-2.5 135t-0.5 141q-2 140 -5 277q-1 29 -1 59q0 109 9 220q8 40 35 59 q24 17 51 17h8q33 -5 54.5 -29.5t19.5 -65.5q-19 -91 -28 -151q-17 -6 8 -2.5t50 4.5q21 1 51 -2t52 -18q27 -17 51 -36.5t47 -38.5q40 -30 69.5 -78t50 -101t34 -107.5t21.5 -97.5q1 -8 1 -16v-10q-2 -14 -5.5 -25.5t-6.5 -22.5t-6 -25q-6 -14 -12.5 -22t-22.5 -17 q-20 -7 -40 -16.5t-46 -10.5q-14 0 -21.5 2.5t-16.5 7.5q-45 22 -72 35.5t-47 25.5t-34.5 25t-34 31t-48 45.5t-79.5 73.5q-16 34 -11 61t26 44.5t52.5 18t64.5 -23.5q41 -46 77 -90.5t78 -84.5q16 -16 39 -27.5t36 -18.5q-6 -2 0 0t0 0q1 3 6 14.5t5 21.5q0 40 -10 81.5 t-28.5 79t-43.5 71.5t-55 61q-17 16 -40.5 27.5t-46.5 25.5q-6 3 -22 1t96 31q-125 0 -124.5 -0.5t-0.5 -0.5q33 -25 16 -35t-24.5 -12.5t-12.5 -3.5t3 5q0 2 -3 -11z" />
<glyph unicode="&#xdf;" horiz-adv-x="939" d="M556 662q-45 -9 -74.5 8.5t-37.5 44t5.5 54.5t54.5 45q19 4 36.5 7.5t33 6t28.5 6.5t24 12q18 11 28 34t13.5 51.5t1.5 57t-6 47.5q-7 42 -26.5 93t-49 97t-66 79.5t-76.5 43.5q-28 6 -51.5 -2t-45 -27t-39 -48.5t-31.5 -62.5t-24 -66t-16 -60q-20 -78 -30.5 -158 t-16 -162t-8 -164t-5.5 -163q-3 -91 -7 -180t-2 -180q-2 -40 -25.5 -63t-55.5 -24t-57.5 20t-30.5 62q8 138 21.5 272.5t26.5 270.5q7 71 14 143t18 143.5t27.5 141.5t41.5 139q18 51 43 103t62 94t89 66q39 19 88 19q18 0 36 -2q23 -3 42.5 -12.5t36.5 -20.5t32 -21.5 t30 -19.5q22 -12 42 -35t36.5 -46t27 -40.5t12.5 -19.5q24 -31 43.5 -73t32 -88.5t16.5 -96t-2.5 -97t-27 -90t-57.5 -75.5q-13 -10 -25.5 -17.5t124.5 45.5q-143 -18 -119 -28t42 -36q27 -48 56.5 -93.5t50.5 -96.5q21 -52 31 -91t12 -75q1 -13 1 -28q0 -24 -2 -47 q-4 -39 -10 -90q-4 -34 -21 -63t-30 -57q-14 -30 -41.5 -57.5t-61.5 -39.5q-23 -10 -50 -22.5t-59 -14.5h-9q-72 0 -129 33q-59 34 -98 96q-9 16 -20 33.5t-15 38.5q-2 20 0.5 34.5t14.5 34.5l6 5q26 22 54 25.5t50.5 -7.5t33.5 -31.5t9 -40.5q2 -4 5.5 -13t6.5 -14 q13 -16 22.5 -29t19 -21.5t19 -13t26.5 -4.5q27 0 52.5 12t46.5 32.5t36 47.5t20 56q15 64 3.5 119.5t-38.5 106t-64 98.5t-76 98q-17 37 -8 66t-84 -31q115 34 90.5 29t-47.5 -13zM470 152q158 -396 103.5 -196.5t-99.5 180.5z" />
<glyph unicode="&#xe0;" horiz-adv-x="676" d="M0 0zM539 778q22 -31 21.5 -58t-17.5 -47.5t-48 -26t-68 11.5q-8 6 -12 10t-8 5q-2 2 -14 -1.5t-29.5 -13.5t-34.5 -23t-25 -19q-4 -4 -10.5 -14t-27.5 -18h7q-53 -65 -95 -152.5t-52 -184.5q-4 -38 -8 -75t-2 -74q0 -1 6 -5.5t2 3.5q-9 -4 1 -2t14 6q61 49 116 118.5 t102.5 147.5t86 159.5t68.5 157.5q17 29 42 41t51 8t44.5 -21t21.5 -37q3 -4 6 -11.5t6 -18.5q-3 -26 -5 -48.5t-7 -46.5q-11 -55 -23.5 -110t-19.5 -108.5t-3.5 -106.5t25.5 -106q7 -16 16.5 -33t19.5 -36q5 -18 5 -32q0 -18 -9 -35q-14 -28 -41 -39q-15 -6 -31 -6 q-17 0 -33 7q-33 12 -51 51q-14 54 -18.5 93t-4.5 75.5t3.5 74.5t7.5 90q2 30 3.5 60t1.5 -23q-6 -10 -66.5 -88t-125.5 -156q-24 -30 -54.5 -63t-71.5 -49q-20 -8 -39 -14t-41 -14q-21 -3 -35 1.5t-30 17.5q-11 18 -26 35t-22 41t-8 49v18q0 15 1 29q1 23 3.5 45.5 t3.5 45.5q2 54 16 111.5t36.5 112.5t51.5 106t63 94q22 28 56.5 58.5t75.5 52.5t87 30q14 1 25 1q36 0 69 -16q15 -7 26 -16.5t25 -18.5zM118 1243q-1 10 -1 17q0 28 16 49q19 26 50 33q8 2 16 2q24 0 46 -13q28 -18 40 -57q1 -21 3.5 -33.5t6.5 -24t10 -25.5t12 -32 q15 -24 33 -44t37.5 -39t42 -37.5t51.5 -43.5q21 -29 21 -55v-8q-4 -31 -26 -50q-22 -20 -55 -20h-4q-36 1 -69 34q-25 46 -48.5 90t-53.5 82q-18 22 -35 41t-33.5 38.5t-31 42t-28.5 53.5z" />
<glyph unicode="&#xe1;" horiz-adv-x="676" d="M0 0zM539 778q22 -31 21.5 -58t-17.5 -47.5t-48 -26t-68 11.5q-8 6 -12 10t-8 5q-2 2 -14 -1.5t-29.5 -13.5t-34.5 -23t-25 -19q-4 -4 -10.5 -14t-27.5 -18h7q-53 -65 -95 -152.5t-52 -184.5q-4 -38 -8 -75t-2 -74q0 -1 6 -5.5t2 3.5q-9 -4 1 -2t14 6q61 49 116 118.5 t102.5 147.5t86 159.5t68.5 157.5q17 29 42 41t51 8t44.5 -21t21.5 -37q3 -4 6 -11.5t6 -18.5q-3 -26 -5 -48.5t-7 -46.5q-11 -55 -23.5 -110t-19.5 -108.5t-3.5 -106.5t25.5 -106q7 -16 16.5 -33t19.5 -36q5 -18 5 -32q0 -18 -9 -35q-14 -28 -41 -39q-15 -6 -31 -6 q-17 0 -33 7q-33 12 -51 51q-14 54 -18.5 93t-4.5 75.5t3.5 74.5t7.5 90q2 30 3.5 60t1.5 -23q-6 -10 -66.5 -88t-125.5 -156q-24 -30 -54.5 -63t-71.5 -49q-20 -8 -39 -14t-41 -14q-21 -3 -35 1.5t-30 17.5q-11 18 -26 35t-22 41t-8 49v18q0 15 1 29q1 23 3.5 45.5 t3.5 45.5q2 54 16 111.5t36.5 112.5t51.5 106t63 94q22 28 56.5 58.5t75.5 52.5t87 30q14 1 25 1q36 0 69 -16q15 -7 26 -16.5t25 -18.5zM208 995q-32 -20 -59 -20q-8 0 -12 1q-29 3 -48 22.5t-22 45.5q-1 4 -1 9q0 23 17 51q31 29 67 60t73 57q10 10 23.5 21t25.5 18 q4 5 12.5 13t21.5 15q29 12 50 9q13 2 26 2h13q23 -9 32 -18t16 -28q0 3 0.5 2.5t0.5 -9.5q-1 -23 -10 -32q0 -13 -11.5 -32.5t-36.5 -34.5q-1 0 -3.5 -2t-4 -3t-55 -54.5t9.5 73.5q4 6 9.5 11.5l9 9t-72 -72t108.5 46.5q-13 -8 -28 -27.5t-33.5 -39.5t-44 -36t-32.5 -14 q0 44 0.5 44t0.5 -21q0 -10 -6 -19.5t-12.5 -18t-13 -16t-11.5 -13.5zM192 1057q-1 -1 1 1.5t-69 -174.5q113 157 203 277.5t-135 -104.5z" />
<glyph unicode="&#xe2;" horiz-adv-x="770" d="M269 912q-37 -22 -68.5 -18.5t-50.5 22.5t-22.5 46.5t16.5 59.5q56 50 104 103t104 102q21 18 35.5 30t29.5 21t31.5 14.5t43.5 10.5h8q16 0 28 -5q13 -7 22 -21q17 -21 26 -42t15 -41t11.5 -40t14.5 -41q12 -29 20.5 -44.5t17.5 -27t22.5 -25t37.5 -39.5q20 -28 20 -54 v-8q-4 -31 -27 -51t-58.5 -19t-67.5 33q-21 33 -34 53.5t-22.5 39.5t-17 41.5t-17.5 57.5q-3 14 -5.5 34t-5.5 40.5t-7.5 38t-1.5 13.5q8 1 -3.5 -13.5t-25.5 -31.5q-44 -52 -130 -171q0 95 16 95q89 67 60.5 17t-33 -56t-9.5 -12.5t-7 -9.5q-16 -25 -32.5 -50t-37.5 -52z M539 778q22 -31 21.5 -58t-17.5 -47.5t-48 -26t-68 11.5q-8 6 -12 10t-8 5q-2 2 -14 -1.5t-29.5 -13.5t-34.5 -23t-25 -19q-4 -4 -10.5 -14t-27.5 -18h7q-53 -65 -95 -152.5t-52 -184.5q-4 -38 -8 -75t-2 -74q0 -1 6 -5.5t2 3.5q-9 -4 1 -2t14 6q61 49 116 118.5 t102.5 147.5t86 159.5t68.5 157.5q17 29 42 41t51 8t44.5 -21t21.5 -37q3 -4 6 -11.5t6 -18.5q-3 -26 -5 -48.5t-7 -46.5q-11 -55 -23.5 -110t-19.5 -108.5t-3.5 -106.5t25.5 -106q7 -16 16.5 -33t19.5 -36q11 -39 -3.5 -67t-41.5 -39q-15 -6 -31 -6q-17 0 -33 7 q-33 12 -51 51q-14 54 -18.5 93t-4.5 75.5t3.5 74.5t7.5 90q2 30 3.5 60t1.5 -23q-6 -10 -66.5 -88t-125.5 -156q-24 -30 -54.5 -63t-71.5 -49q-20 -8 -39 -14t-41 -14q-21 -3 -35 1.5t-30 17.5q-11 18 -26 35t-22 41t-8 49v18q0 15 1 29q1 23 3.5 45.5t3.5 45.5 q2 54 16 111.5t36.5 112.5t51.5 106t63 94q22 28 56.5 58.5t76 52.5t88 29.5t92.5 -14.5q15 -7 26 -16.5t25 -18.5z" />
<glyph unicode="&#xe3;" horiz-adv-x="791" d="M273 997q-13 -36 -39.5 -52t-55 -12t-48.5 25.5t-25 57.5q9 30 15.5 57t13.5 53q4 17 10 28t26 25q19 6 35.5 12.5t35.5 9.5q8 2 16 2q25 0 53 -16q29 -18 56 -43t48 -48.5t32 -33.5q12 -11 31.5 -27t41 -30.5t39 -22t14.5 -7.5q3 9 9 27.5t12 38.5q22 38 56 47.5t62 -4 t40 -42.5q5 -13 5 -27q0 -18 -8 -40q-14 -26 -26 -55.5t-39 -52.5q-11 -9 -21.5 -12t-21.5 -6q-59 -5 -94 3.5t-61 28t-50.5 46.5t-64.5 63q-28 23 -42 35.5t-23.5 18.5t-22 11t-32.5 15q17 0 28 12q-1 -16 -2 -38t-3 -47zM539 778q22 -31 21.5 -58t-17.5 -47.5t-48 -26 t-68 11.5q-8 6 -12 10t-8 5q-2 2 -14 -1.5t-29.5 -13.5t-34.5 -23t-25 -19q-4 -4 -10.5 -14t-27.5 -18h7q-53 -65 -95 -152.5t-52 -184.5q-4 -38 -8 -75t-2 -74q0 -1 6 -5.5t2 3.5q-9 -4 1 -2t14 6q61 49 116 118.5t102.5 147.5t86 159.5t68.5 157.5q17 29 42 41t51 8 t44.5 -21t21.5 -37q3 -4 6 -11.5t6 -18.5q-3 -26 -5 -48.5t-7 -46.5q-11 -55 -23.5 -110t-19.5 -108.5t-3.5 -106.5t25.5 -106q7 -16 16.5 -33t19.5 -36q11 -39 -3.5 -67t-41.5 -39q-15 -6 -31 -6q-17 0 -33 7q-33 12 -51 51q-14 54 -18.5 93t-4.5 75.5t3.5 74.5t7.5 90 q2 30 3.5 60t1.5 -23q-6 -10 -66.5 -88t-125.5 -156q-24 -30 -54.5 -63t-71.5 -49q-20 -8 -39 -14t-41 -14q-21 -3 -35 1.5t-30 17.5q-11 18 -26 35t-22 41t-8 49v18q0 15 1 29q1 23 3.5 45.5t3.5 45.5q2 54 16 111.5t36.5 112.5t51.5 106t63 94q22 28 56.5 58.5t76 52.5 t88 29.5t92.5 -14.5q15 -7 26 -16.5t25 -18.5z" />
<glyph unicode="&#xe4;" horiz-adv-x="676" d="M0 0zM539 778q22 -31 21.5 -58t-17.5 -47.5t-48 -26t-68 11.5q-8 6 -12 10t-8 5q-2 2 -14 -1.5t-29.5 -13.5t-34.5 -23t-25 -19q-4 -4 -10.5 -14t-27.5 -18h7q-53 -65 -95 -152.5t-52 -184.5q-4 -38 -8 -75t-2 -74q0 -1 6 -5.5t2 3.5q-9 -4 1 -2t14 6q61 49 116 118.5 t102.5 147.5t86 159.5t68.5 157.5q17 29 42 41t51 8t44.5 -21t21.5 -37q3 -4 6 -11.5t6 -18.5q-3 -26 -5 -48.5t-7 -46.5q-11 -55 -23.5 -110t-19.5 -108.5t-3.5 -106.5t25.5 -106q7 -16 16.5 -33t19.5 -36q5 -18 5 -32q0 -18 -9 -35q-14 -28 -41 -39q-15 -6 -31 -6 q-17 0 -33 7q-33 12 -51 51q-14 54 -18.5 93t-4.5 75.5t3.5 74.5t7.5 90q2 30 3.5 60t1.5 -23q-6 -10 -66.5 -88t-125.5 -156q-24 -30 -54.5 -63t-71.5 -49q-20 -8 -39 -14t-41 -14q-21 -3 -35 1.5t-30 17.5q-11 18 -26 35t-22 41t-8 49v18q0 15 1 29q1 23 3.5 45.5 t3.5 45.5q2 54 16 111.5t36.5 112.5t51.5 106t63 94q22 28 56.5 58.5t75.5 52.5t87 30q14 1 25 1q36 0 69 -16q15 -7 26 -16.5t25 -18.5zM478 1217q29 -8 42.5 -20.5t18.5 -24.5q12 -6 28.5 -24t22.5 -38q4 -12 4 -23t-4 -21q-7 -24 -41 -44h8q-5 -10 -29.5 -21.5 t-46.5 -7.5q-35 -13 -69.5 0t-47.5 68q-2 13 0 32t3 29q4 22 11 36t18 33q18 16 32 21t35 6q5 0 8 -0.5t7 -0.5zM283 1106q0 1 -1 2q8 -18 8 -36t-6 -33q-13 -36 -44 -48q-19 -9 -39 -9q-27 0 -47 15q-11 4 -24 14q-19 13 -28 42q-7 22 -7 45q0 5 1 11q1 27 14 53.5t45 34.5 q39 8 59 -9.5t69 -81.5z" />
<glyph unicode="&#xe5;" horiz-adv-x="726" d="M605 1194q-1 -23 -8 -39t-13 -22q-1 -7 -4 -19.5t-7 -25.5q-12 -38 -24.5 -64t-30 -47t-42.5 -38.5t-61 -37.5q-5 -2 -12.5 -6.5t-23.5 -4.5q-16 2 -31 4t-31 4q-5 1 -13 1t-21 11q-22 16 -34.5 27.5t-22 22.5t-18 25t-23.5 38q-14 23 -21.5 50t-7.5 52q0 22 0.5 44 t4.5 42.5t12.5 42t26.5 41.5q18 21 43.5 39t53.5 25q42 11 61 7q0 -2 8.5 21t31.5 39q17 11 43 11h6q30 -3 60 -25q24 -37 41.5 -73t27.5 -72q6 -8 14 -23q6 -13 9 -25t6 -25zM440 1127q-2 6 -2 17v15v8q-3 18 -19.5 34t-39 24t-43 6.5t-32.5 -14.5q-13 -13 -19.5 -30.5 t-7.5 -38t2.5 -42t9.5 -39.5q8 -22 21 -40.5t32 -26.5q17 -7 31.5 1t29 28.5t23.5 49t14 48.5zM539 778q22 -31 21.5 -58t-17.5 -47.5t-48 -26t-68 11.5q-8 6 -12 10t-8 5q-2 2 -14 -1.5t-29.5 -13.5t-34.5 -23t-25 -19q-4 -4 -10.5 -14t-27.5 -18h7q-53 -65 -95 -152.5 t-52 -184.5q-4 -38 -8 -75t-2 -74q0 -1 6 -5.5t2 3.5q-9 -4 1 -2t14 6q61 49 116 118.5t102.5 147.5t86 159.5t68.5 157.5q17 29 42 41t51 8t44.5 -21t21.5 -37q3 -4 6 -11.5t6 -18.5q-3 -26 -5 -48.5t-7 -46.5q-11 -55 -23.5 -110t-19.5 -108.5t-3.5 -106.5t25.5 -106 q7 -16 16.5 -33t19.5 -36q5 -18 5 -32q0 -18 -9 -35q-14 -28 -41 -39q-15 -6 -31 -6q-17 0 -33 7q-33 12 -51 51q-14 54 -18.5 93t-4.5 75.5t3.5 74.5t7.5 90q2 30 3.5 60t1.5 -23q-6 -10 -66.5 -88t-125.5 -156q-24 -30 -54.5 -63t-71.5 -49q-20 -8 -39 -14t-41 -14 q-21 -3 -35 1.5t-30 17.5q-11 18 -26 35t-22 41t-8 49v18q0 15 1 29q1 23 3.5 45.5t3.5 45.5q2 54 16 111.5t36.5 112.5t51.5 106t63 94q22 28 56.5 58.5t76 52.5t88 29.5t92.5 -14.5q15 -7 26 -16.5t25 -18.5z" />
<glyph unicode="&#xe6;" horiz-adv-x="1470" d="M0 0zM539 909q22 -31 21.5 -58t-17.5 -47.5t-48 -26t-68 11.5q-8 6 -12 10t-8 5q-2 2 -14 -1.5t-29.5 -13.5t-34.5 -23t-25 -19q-4 -4 -10.5 -14t-27.5 -18h7q-53 -65 -95 -152.5t-52 -184.5q-4 -38 -8 -75t-2 -74q0 -1 6 -5.5t2 3.5q-9 -4 1 -2t14 6q61 49 116 118.5 t102.5 147.5t86 159.5t68.5 157.5q17 29 42 41t51 8t44.5 -21t21.5 -37q3 -4 6 -11.5t6 -18.5q-3 -26 -5 -48.5t-7 -46.5q-11 -55 -23.5 -110t-19.5 -108.5t-3.5 -106.5t25.5 -106q7 -16 16.5 -33t19.5 -36q5 -18 5 -32q0 -18 -9 -35q-14 -28 -41 -39q-15 -6 -31 -6 q-17 0 -33 7q-33 12 -51 51q-14 54 -18.5 93t-4.5 75.5t3.5 74.5t7.5 90q2 30 3.5 60t1.5 -23q-6 -10 -66.5 -88t-125.5 -156q-24 -30 -54.5 -63t-71.5 -49q-20 -8 -39 -14t-41 -14q-21 -3 -35 1.5t-30 17.5q-11 18 -26 35t-22 41t-8 49v18q0 15 1 29q1 23 3.5 45.5 t3.5 45.5q2 54 16 111.5t36.5 112.5t51.5 106t63 94q22 28 56.5 58.5t75.5 52.5t87 30q14 1 25 1q36 0 69 -16q15 -7 26 -16.5t25 -18.5zM1102 546q-1 -24 -9 -39q-1 -15 -12.5 -33.5t-39.5 -35.5q-37 -5 -61.5 -11t-46 -15.5t-44 -23.5t-48.5 -33q-2 -2 -10.5 -9t-19 -15 t-21.5 -16.5t-17 -11.5q-15 -7 -26.5 -9.5t-27.5 -9.5q-45 7 -66.5 27t-25 44.5t12 48.5t55.5 39q9 0 26 5t37 -19v16q2 1 25.5 12.5t46.5 27.5t47 35.5t53 38.5q3 3 6 4.5t-3 -4.5q1 18 -1.5 41t-10.5 43q-14 33 -42 54.5t-60.5 28.5t-63 -0.5t-53.5 -34.5 q-19 -21 -32 -48.5t-22 -56.5q-10 -34 -15 -70t-6 -72q0 -37 4.5 -75t15.5 -73q30 -90 77 -132.5t104.5 -53t126 4.5t140 43t139 63.5t124.5 64.5q43 16 75.5 3t44.5 -39q7 -15 7 -31q0 -11 -2 -22q-10 -32 -47 -53q-75 -31 -154 -65.5t-163 -60.5t-170 -34q-23 -2 -44 -2 q-66 0 -131 19q-70 21 -121 73.5t-83 122t-47 149.5q-13 67 -13 131q0 14 1 27q3 78 25 147t63 117q25 29 60.5 55.5t76.5 35.5q28 6 57 6q20 0 41 -2q50 -8 94 -29.5t80.5 -55t57.5 -73.5q20 -38 27 -78.5t9 -80.5z" />
<glyph unicode="&#xe7;" horiz-adv-x="824" d="M0 0zM448.5 625.5q-18.5 23.5 -15.5 44.5q-21 34 -56 62t-71.5 36t-72 -4.5t-64.5 -54.5q-15 -21 -23 -45t-13 -50t-8.5 -53t-57.5 -377l50 327q-2 -36 -3.5 -77.5t0.5 -83.5t9.5 -82.5t23 -72.5t38 -52.5t55.5 -28.5q17 -4 37.5 -4.5t42.5 1t43.5 5t39.5 6.5 q84 17 165.5 41.5t168.5 45.5q40 1 65.5 -15.5t33.5 -40.5q3 -10 3 -20q0 -14 -6 -29q-12 -27 -47 -48q-61 -10 -135.5 -26.5t-152.5 -28.5q-80 -12 -119 -13l-37 -2l-38 -2l-56 3l-17 5l-15 4l-14 4l-26 7q-35 10 -72 46q-37 35 -57.5 79.5t-29 95t-11.5 100.5 q-2 28 -3.5 65.5t-1.5 77.5q-1 8 -1 17q0 34 2 69q2 42 8 83t18.5 77t33.5 62q11 14 23 27.5t26 28.5q39 42 100 59q41 11 84 11q19 0 39 -2q61 -8 116.5 -36.5t88.5 -72.5q10 -15 22 -30t22 -30q10 -10 10 -17q-1 2 2.5 -2t7.5 -13q14 -48 -13 -78.5t-55 -32t-48 4.5 t-38.5 29.5zM118.5 530.5l-0.5 -2.5q-50 5 -24.5 209t25.5 -200q0 -4 -0.5 -6.5zM247.763 37.2266q22.707 21.0215 39.7373 21.0215q9.22461 0 17.7393 -2.52246q21.2881 -7.56738 31.9326 -24.8057q10.6436 -17.2383 10.2891 -38.2598 q-0.355469 -21.0225 -12.7734 -39.5215q-12.418 -18.5 -12.7725 -19.3408t3.19336 12.6133q-3.54785 1.68164 6.38574 -2.10254q9.93457 -3.7832 18.8047 -10.0898t16.6758 -14.2949t16.3203 -20.6016q10.6445 -13.4541 14.1924 -32.7949q2.12793 -12.6133 2.12793 -23.5449 q0 -5.88574 -0.708984 -11.7715q-3.54785 -33.6357 -14.9014 -58.8623t-29.0938 -43.7256q-17.7393 -18.499 -40.4463 -29.8516q-22.707 -11.3516 -51.8008 -19.7607h-4.25781q-7.0957 0 -10.6436 2.52246l1.41895 -0.84082q-16.3203 -1.68164 -28.3838 -1.68164h-2.12891 q-13.4824 0 -30.5127 5.0459q-25.5449 14.2949 -34.0605 35.3164q-7.0957 15.9766 -7.0957 29.4307q0 6.72754 0.709961 12.6133q4.25684 20.1816 20.5781 36.1582q16.3203 15.9766 46.123 17.6582q17.0303 -5.88574 29.4482 -10.0898q12.418 -4.20508 22.707 -5.46582 q10.2891 -1.26172 18.8047 0.84082q8.51465 2.10156 17.7402 10.5107q3.54785 2.52246 7.0957 7.56836q3.54785 5.04492 6.03125 10.5107t2.83887 9.66992l0.354492 4.2041q-4.9668 8.40918 -11.3535 8.83008q-6.38672 0.419922 -4.9668 1.26074 q1.41895 0.84082 -0.355469 -0.419922q-1.77344 -1.26172 -6.03125 -2.52344q-4.25781 -1.26074 -7.0957 -2.10156q-2.83887 -0.84082 -5.67676 -1.68164q-13.4824 -4.20508 -28.7393 -5.0459q-15.2559 -0.84082 -30.1572 11.7725q-16.3213 13.4541 -18.8047 38.2607 q-2.4834 24.8057 0.709961 49.6113q3.19336 24.8066 10.2891 47.5098q7.0957 22.7041 14.9014 33.6357q4.25781 5.88574 8.16016 9.24902q3.90332 3.36426 7.45117 5.88672z" />
<glyph unicode="&#xe8;" horiz-adv-x="960" d="M0 9zM592 573q-1 -24 -9 -39q-1 -15 -12.5 -33.5t-39.5 -35.5q-37 -5 -61.5 -11t-46 -15.5t-44 -23.5t-48.5 -33q-2 -2 -10.5 -9t-19 -15t-21.5 -16.5t-17 -11.5q-15 -7 -26.5 -9.5t-27.5 -9.5q-45 7 -66.5 27t-25 44.5t12 48.5t55.5 39q9 0 26 5t37 -19v16 q2 1 25.5 12.5t46.5 27.5t47 35.5t53 38.5q3 3 6 4.5t-3 -4.5q1 18 -1.5 41t-10.5 43q-14 33 -42 54.5t-60.5 28.5t-63 -0.5t-53.5 -34.5q-19 -21 -32 -48.5t-22 -56.5q-10 -34 -15 -70t-6 -72q0 -37 4.5 -75t15.5 -73q30 -90 77 -132.5t104.5 -53t126 4.5t140 43t139 63.5 t124.5 64.5q43 16 75.5 3t44.5 -39q7 -15 7 -31q0 -11 -2 -22q-10 -32 -47 -53q-75 -31 -154 -65.5t-163 -60.5t-170 -34q-23 -2 -44 -2q-66 0 -131 19q-70 21 -121 73.5t-83 122t-47 149.5q-13 67 -13 131q0 14 1 27q3 78 25 147t63 117q25 29 60.5 55.5t76.5 35.5 q28 6 57 6q20 0 41 -2q50 -8 94 -29.5t80.5 -55t57.5 -73.5q20 -38 27 -78.5t9 -80.5zM56 1243q-1 10 -1 17q0 28 16 49q19 26 50 33q8 2 16 2q24 0 46 -13q28 -18 40 -57q1 -21 3.5 -33.5t6.5 -24t10 -25.5t12 -32q15 -24 33 -44t37.5 -39t42 -37.5t51.5 -43.5 q21 -29 21 -55v-8q-4 -31 -26 -50q-22 -20 -55 -20h-4q-36 1 -69 34q-25 46 -48.5 90t-53.5 82q-18 22 -35 41t-33.5 38.5t-31 42t-28.5 53.5z" />
<glyph unicode="&#xe9;" horiz-adv-x="960" d="M0 9zM592 573q-1 -24 -9 -39q-1 -15 -12.5 -33.5t-39.5 -35.5q-37 -5 -61.5 -11t-46 -15.5t-44 -23.5t-48.5 -33q-2 -2 -10.5 -9t-19 -15t-21.5 -16.5t-17 -11.5q-15 -7 -26.5 -9.5t-27.5 -9.5q-45 7 -66.5 27t-25 44.5t12 48.5t55.5 39q9 0 26 5t37 -19v16 q2 1 25.5 12.5t46.5 27.5t47 35.5t53 38.5q3 3 6 4.5t-3 -4.5q1 18 -1.5 41t-10.5 43q-14 33 -42 54.5t-60.5 28.5t-63 -0.5t-53.5 -34.5q-19 -21 -32 -48.5t-22 -56.5q-10 -34 -15 -70t-6 -72q0 -37 4.5 -75t15.5 -73q30 -90 77 -132.5t104.5 -53t126 4.5t140 43t139 63.5 t124.5 64.5q43 16 75.5 3t44.5 -39q7 -15 7 -31q0 -11 -2 -22q-10 -32 -47 -53q-75 -31 -154 -65.5t-163 -60.5t-170 -34q-23 -2 -44 -2q-66 0 -131 19q-70 21 -121 73.5t-83 122t-47 149.5q-13 67 -13 131q0 14 1 27q3 78 25 147t63 117q25 29 60.5 55.5t76.5 35.5 q28 6 57 6q20 0 41 -2q50 -8 94 -29.5t80.5 -55t57.5 -73.5q20 -38 27 -78.5t9 -80.5zM146 995q-32 -20 -59 -20q-8 0 -12 1q-29 3 -48 22.5t-22 45.5q-1 4 -1 9q0 23 17 51q31 29 67 60t73 57q10 10 23.5 21t25.5 18q4 5 12.5 13t21.5 15q29 12 50 9q13 2 26 2h13 q23 -9 32 -18t16 -28q0 3 0.5 2.5t0.5 -9.5q-1 -23 -10 -32q0 -13 -11.5 -32.5t-36.5 -34.5q-1 0 -3.5 -2t-4 -3t-55 -54.5t9.5 73.5q4 6 9.5 11.5l9 9t-72 -72t108.5 46.5q-13 -8 -28 -27.5t-33.5 -39.5t-44 -36t-32.5 -14q0 44 0.5 44t0.5 -21q0 -10 -6 -19.5t-12.5 -18 t-13 -16t-11.5 -13.5zM130 1057q-1 -1 1 1.5t-69 -174.5q113 157 203 277.5t-135 -104.5z" />
<glyph unicode="&#xea;" horiz-adv-x="1010" d="M181 917q-47 -9 -76.5 8.5t-37.5 44t5.5 54.5t54.5 45q20 4 33 16.5t24 30t19.5 40t19.5 45t26 44t40 35.5q17 11 43 12h4q24 0 38 -8q20 -10 43.5 -36t46.5 -56t44.5 -59l21.5 -29q-37 -27 -37 -14q0 60 24 36t27.5 -28t5.5 -7.5t1 -2.5q12 -12 22.5 -21.5t23.5 -20.5 q25 -34 21 -64t-27 -50t-58.5 -19t-66.5 33q-24 31 -42.5 63t-36 64t-35.5 63t-17 29q4 6 -6.5 -24t-20 -61t-23 -63.5t-38.5 -61.5q-15 -17 -32.5 -23t-33.5 -15zM592 573q-1 -24 -9 -39q-1 -15 -12.5 -33.5t-39.5 -35.5q-37 -5 -61.5 -11t-46 -15.5t-44 -23.5t-48.5 -33 q-2 -2 -10.5 -9t-19 -15t-21.5 -16.5t-17 -11.5q-15 -7 -26.5 -9.5t-27.5 -9.5q-45 7 -66.5 27t-25 44.5t12 48.5t55.5 39q9 0 26 5t37 -19v16q2 1 25.5 12.5t46.5 27.5t47 35.5t53 38.5q3 3 6 4.5t-3 -4.5q1 18 -1.5 41t-10.5 43q-14 33 -42 54.5t-60.5 28.5t-63 -0.5 t-53.5 -34.5q-19 -21 -32 -48.5t-22 -56.5q-10 -34 -15 -70t-6 -72q0 -37 4.5 -75t15.5 -73q30 -90 77 -132.5t104.5 -53t126 4.5t140 43t139 63.5t124.5 64.5q43 16 75.5 3t44.5 -39q7 -15 7 -31q0 -11 -2 -22q-10 -32 -47 -53q-75 -31 -154 -65.5t-163 -60.5t-170 -34 q-23 -2 -44 -2q-66 0 -131 19q-70 21 -121 73.5t-83 122t-47 149.5q-13 67 -13 131q0 14 1 27q3 78 25 147t63 117q25 29 60.5 55.5t76.5 35.5q48 10 98 3t94 -28.5t80.5 -55t57.5 -73.5q20 -38 27 -78.5t9 -80.5z" />
<glyph unicode="&#xeb;" horiz-adv-x="960" d="M0 9zM592 573q-1 -24 -9 -39q-1 -15 -12.5 -33.5t-39.5 -35.5q-37 -5 -61.5 -11t-46 -15.5t-44 -23.5t-48.5 -33q-2 -2 -10.5 -9t-19 -15t-21.5 -16.5t-17 -11.5q-15 -7 -26.5 -9.5t-27.5 -9.5q-45 7 -66.5 27t-25 44.5t12 48.5t55.5 39q9 0 26 5t37 -19v16 q2 1 25.5 12.5t46.5 27.5t47 35.5t53 38.5q3 3 6 4.5t-3 -4.5q1 18 -1.5 41t-10.5 43q-14 33 -42 54.5t-60.5 28.5t-63 -0.5t-53.5 -34.5q-19 -21 -32 -48.5t-22 -56.5q-10 -34 -15 -70t-6 -72q0 -37 4.5 -75t15.5 -73q30 -90 77 -132.5t104.5 -53t126 4.5t140 43t139 63.5 t124.5 64.5q43 16 75.5 3t44.5 -39q7 -15 7 -31q0 -11 -2 -22q-10 -32 -47 -53q-75 -31 -154 -65.5t-163 -60.5t-170 -34q-23 -2 -44 -2q-66 0 -131 19q-70 21 -121 73.5t-83 122t-47 149.5q-13 67 -13 131q0 14 1 27q3 78 25 147t63 117q25 29 60.5 55.5t76.5 35.5 q28 6 57 6q20 0 41 -2q50 -8 94 -29.5t80.5 -55t57.5 -73.5q20 -38 27 -78.5t9 -80.5zM416 1217q29 -8 42.5 -20.5t18.5 -24.5q12 -6 28.5 -24t22.5 -38q4 -12 4 -23t-4 -21q-7 -24 -41 -44h8q-5 -10 -29.5 -21.5t-46.5 -7.5q-35 -13 -69.5 0t-47.5 68q-2 13 0 32t3 29 q4 22 11 36t18 33q18 16 32 21t35 6q5 0 8 -0.5t7 -0.5zM221 1106q0 1 -1 2q8 -18 8 -36t-6 -33q-13 -36 -44 -48q-19 -9 -39 -9q-27 0 -47 15q-11 4 -24 14q-19 13 -28 42q-7 22 -7 45q0 5 1 11q1 27 14 53.5t45 34.5q39 8 59 -9.5t69 -81.5z" />
<glyph unicode="&#xec;" horiz-adv-x="416" d="M0 0zM246 787q8 36 30 56t51 20.5t53.5 -17.5t34.5 -54q-11 -98 -25 -192.5t-17 -190.5q-3 -95 12.5 -187t37.5 -188q-1 -35 -19.5 -57.5t-46.5 -28.5q-10 -2 -17 -2q-21 0 -40 11q-27 13 -44 48q-1 32 -4 59.5t-3 57.5q0 73 6 143.5t8 141.5q2 95 -3.5 189.5 t-13.5 190.5zM223 1128q-2 11 -2 18q0 20 6 34q1 24 12 54q12 29 37 42q16 6 32 6q8 0 18 -2q24 -6 42.5 -22.5t25.5 -31.5q13 -7 27 -29q10 -18 10 -43v-10q-11 -35 -31 -58.5t-47.5 -34t-57 -3.5t-46.5 33q-6 6 -10 13.5t-9 16.5q-3 6 -4 9t-3 8zM1 1496q-1 10 -1 17 q0 28 16 49q19 26 50 33q8 2 16 2q24 0 46 -13q28 -18 40 -57q1 -21 3.5 -33.5t6.5 -24t10 -25.5t12 -32q15 -24 33 -44t37.5 -39t42 -37.5t51.5 -43.5q21 -29 21 -55v-8q-4 -31 -26 -50q-22 -20 -55 -20h-4q-36 1 -69 34q-25 46 -48.5 90t-53.5 82q-18 22 -35 41 t-33.5 38.5t-31 42t-28.5 53.5z" />
<glyph unicode="&#xed;" horiz-adv-x="385" d="M0 0zM25 787q8 36 30 56t51 20.5t53.5 -17.5t34.5 -54q-11 -98 -25 -192.5t-17 -190.5q-3 -95 12.5 -187t37.5 -188q-1 -35 -19.5 -57.5t-46.5 -28.5q-10 -2 -17 -2q-21 0 -40 11q-27 13 -44 48q-1 32 -4 59.5t-3 57.5q0 73 6 143.5t8 141.5q2 95 -3.5 189.5t-13.5 190.5 zM2 1128q-2 11 -2 18q0 20 6 34q1 24 12 54q12 29 37 42q16 6 32 6q8 0 18 -2q24 -6 42.5 -22.5t25.5 -31.5q13 -7 27 -29q10 -18 10 -43v-10q-11 -35 -31 -58.5t-47.5 -34t-57 -3.5t-46.5 33q-6 6 -10 13.5t-9 16.5q-3 6 -4 9t-3 8zM164 1159q-32 -20 -59 -20q-8 0 -12 1 q-29 3 -48 22.5t-22 45.5q-1 4 -1 9q0 23 17 51q31 29 67 60t73 57q10 10 23.5 21t25.5 18q4 5 12.5 13t21.5 15q29 12 50 9q13 2 26 2h13q23 -9 32 -18t16 -28q0 3 0.5 2.5t0.5 -9.5q-1 -23 -10 -32q0 -13 -11.5 -32.5t-36.5 -34.5q-1 0 -3.5 -2t-4 -3t-55 -54.5t9.5 73.5 q4 6 9.5 11.5l9 9t-72 -72t108.5 46.5q-13 -8 -28 -27.5t-33.5 -39.5t-44 -36t-32.5 -14q0 44 0.5 44t0.5 -21q0 -10 -6 -19.5t-12.5 -18t-13 -16t-11.5 -13.5zM148 1221q-1 -1 1 1.5t-69 -174.5q113 157 203 277.5t-135 -104.5z" />
<glyph unicode="&#xee;" horiz-adv-x="480" d="M138 1051q-43 -9 -71.5 6.5t-38.5 39.5t-1.5 51t33.5 42q71 124 55 27q-45 -22 -43.5 -21t-1.5 0q8 14 20 33t23 39q6 10 17 29.5t25 42t31 45.5t36.5 41t43.5 28q13 3 24 3q16 0 31 -7q30 -16 46 -43.5t24.5 -58t15 -60.5t-32.5 64q0 -115 13 -102q40 6 45 -12t9 -25 q5 -18 5 -32q0 -19 -9 -36q-14 -28 -43 -39t-62 1t-51 51q-9 27 -10.5 53t-2.5 51t-3.5 48.5t5.5 -0.5q9 11 -5.5 -23t-28.5 -70q-4 -10 -7.5 -21.5t-7.5 -22.5q-1 -4 24.5 71.5t-76.5 -76.5q1 2 2 5.5t2 8t26.5 105t25.5 -104.5q-1 -19 -6.5 -37.5t-16 -36.5t-26.5 -33 t-38 -24zM99 1322q1 2 3 5q6 6 7 6.5t168 167.5q-130 -195 -203.5 -310.5t22.5 124.5q2 5 3 7zM40 787q7 36 29 56t51.5 20.5t53.5 -17.5t35 -54q-11 -98 -25 -192.5t-17 -190.5q-3 -95 12 -187t38 -188q-1 -35 -20 -57.5t-47 -28.5q-9 -2 -16 -2q-22 0 -41 11 q-27 13 -43 48q-1 32 -4 59.5t-3 57.5q0 73 6 143.5t8 141.5q2 95 -3.5 189.5t-13.5 190.5zM16 1128q-1 11 -1 18q0 20 6 34q1 24 12 54q12 29 36 41t49 6t44 -23t25 -32q14 -7 27 -28.5t11 -54.5q-11 -34 -31.5 -57.5t-47.5 -34t-57 -3.5t-46 33q-6 6 -10 13.5t-9 16.5 q-3 6 -4 9t-4 8z" />
<glyph unicode="&#xef;" horiz-adv-x="484" d="M0 0zM25 787q8 36 30 56t51 20.5t53.5 -17.5t34.5 -54q-11 -98 -25 -192.5t-17 -190.5q-3 -95 12.5 -187t37.5 -188q-1 -35 -19.5 -57.5t-46.5 -28.5q-10 -2 -17 -2q-21 0 -40 11q-27 13 -44 48q-1 32 -4 59.5t-3 57.5q0 73 6 143.5t8 141.5q2 95 -3.5 189.5t-13.5 190.5 zM2 1128q-2 11 -2 18q0 20 6 34q1 24 12 54q12 29 37 42q16 6 32 6q8 0 18 -2q24 -6 42.5 -22.5t25.5 -31.5q13 -7 27 -29q10 -18 10 -43v-10q-11 -35 -31 -58.5t-47.5 -34t-57 -3.5t-46.5 33q-6 6 -10 13.5t-9 16.5q-3 6 -4 9t-3 8zM383 1299q29 -8 42.5 -20.5t18.5 -24.5 q12 -6 28.5 -24t22.5 -38q4 -12 4 -23t-4 -21q-7 -24 -41 -44h8q-5 -10 -29.5 -21.5t-46.5 -7.5q-35 -13 -69.5 0t-47.5 68q-2 13 0 32t3 29q4 22 11 36t18 33q18 16 32 21t35 6q5 0 8 -0.5t7 -0.5zM188 1188q0 1 -1 2q8 -18 8 -36t-6 -33q-13 -36 -44 -48q-19 -9 -39 -9 q-27 0 -47 15q-11 4 -24 14q-19 13 -28 42q-7 22 -7 45q0 5 1 11q1 27 14 53.5t45 34.5q39 8 59 -9.5t69 -81.5z" />
<glyph unicode="&#xf0;" horiz-adv-x="696" d="M225 0zM655 366.054q8 -38.998 35.5 -58.4971q27.5 -19.498 59.5 -15.999q32 3.5 53.5 28.499q21.5 24.998 19.5 65.9961q-9 39.9971 -14 69.4951t-15 55.4971q-10 25.998 -28 50.9961q-18 24.999 -52 53.9971q-31 26.998 -72.5 38.498q-41.5 11.499 -85 9.49902 t-85 -15.999t-76.5 -37.498q-35 -23.498 -60 -55.4961t-32 -72.9951q-5 -30.999 -12 -61.9971q-6 -26.998 -6 -56.9961v-8q2 -62.9961 19.5 -118.992q17.5 -55.9971 49 -101.994t74 -79.9951t96.5 -50.9971q39 -10.999 82 -10.999q14 0 29 1q60 6 123 36.998 q35 16.999 57.5 33.498t41 35.4971q18.5 18.999 34.5 40.998t37 49.9971q22 26.998 33 61.9961t15 69.9961q2 21.998 2 42.9971q0 14.999 -1 28.998q-3 35.998 -9 65.9961q-15 75.9951 -51.5 153.99t-84 151.491q-47.5 73.4951 -101.5 140.991t-104 122.492 q-35 39.998 -70.5 79.4951q-35.5 39.498 -72.5 80.4951q-31 18.999 -58 18.999q-8 0 -12 -1q-29 -3 -48 -21.998q-19 -18.999 -22.5 -46.498q-3.5 -27.498 16.5 -59.4961q40 -37.9971 77.5 -75.9951t72.5 -72.9951q50 -50.9971 102.5 -108.994q52.5 -57.9961 99 -120.492 t81.5 -129.492t51 -136.992q12 -47.9961 7.5 -95.4941q-4.5 -47.4971 -22.5 -89.4941t-49.5 -74.9951t-75.5 -54.9971q-48 -23.998 -90.5 -22.498t-77 20.998q-34.5 19.499 -62 55.9971q-27.5 36.4971 -42.5 81.4951q-15 44.9971 -14.5 94.4941t18.5 94.4941 q10 24.998 31 44.4971t46 28.498q25 9 49.5 7t44.5 -18.999q17 -13.999 25 -27.998t12 -29.498t5.5 -35.498t5.5 -45.9971zM498.027 1111q-13.999 -1 -19.499 -1.5q-5.49902 -0.5 -11.499 -0.5q-29.998 7 -56.4971 -3.5q-26.498 -10.5 -39.4971 -32.5q-9 -16 -9 -36v-8 q3 -26 25.999 -56q16.999 -7 23.998 -12q7 -5 25.999 -7q9.99902 -3 27.498 1.5t35.498 9.5t38.4971 11.5q20.499 6.5 80.9951 20.5q60.4971 14 83.9951 12q23.499 -2 42.4971 -9q18.999 -7 29.999 -21q5.99902 -10 11.499 -20t14.499 -27q32.998 -20 59.9961 -20 q8 0 11.999 1q28.999 3 47.9971 22.5q18.999 19.5 21.999 45.5q1 4 1 9q0 23 -16.999 51q-11.999 12 -23.998 25q-12 13 -30.999 21q-34.9971 17 -70.9951 23.5t-72.9951 7.5h-11q-29.998 0 -58.9961 -2q-32.998 -3 -65.9961 -3q-22.999 0 -47.4971 -0.5 q-24.499 -0.5 -48.4971 -1.5zM225.544 1089.5q225.486 -20.5 229.486 -20.5v0q1 40 -2.5 40.5t-8.5 0.5q-443.973 0 -218.486 -20.5z" />
<glyph unicode="&#xf1;" horiz-adv-x="863" d="M394 1107q-26 -33 -61.5 -37.5t-60.5 13.5t-32 48.5t15 66.5q15 15 28 31t33 28q12 8 25.5 10t25.5 1q33 -1 57 -10.5t42 -24.5t32 -34.5t32 -42.5q21 -26 39 -47.5t30 -28t21 -3.5t22 24v-3q0 6 6 25t9 32q-2 6 1 14t3 12q1 16 0.5 25.5t-2.5 26.5q8 36 29.5 55.5 t51.5 21.5h2q29 0 51 -17q25 -19 35 -55q-2 -20 -3.5 -38t-5.5 -37q-8 -29 -23 -62.5t-38.5 -63t-56 -52t-73.5 -23.5q-23 -1 -40 7t-31 13q-29 10 -53.5 30.5t-46 42.5t-41 41.5t-18.5 18.5q9 13 5.5 6.5t-9.5 -14.5zM79 843q32 27 64 28t54 -14.5t29 -42t-6 -60.5 q-28 -38 -48 -99t-31.5 -132.5t-13.5 -145.5t-8 -11q-17 -75 3.5 -27.5t44.5 93.5q13 26 26.5 54.5t31.5 52.5q16 22 34.5 47t38.5 47.5t44.5 41t55 25t62.5 -5t62 -41.5q26 -26 47.5 -69t40.5 -95t36 -110t31.5 -112.5t26.5 -101t22 -78.5q-1 -36 -20 -58.5t-47 -28.5 t-56 8t-43 48q-11 57 -20.5 130.5t-23.5 148t-33.5 141.5t-48.5 107q-2 4 -10 8t-4 1q1 1 -8 -1.5t-12 -5.5q-27 -33 -50 -71t-41.5 -79.5t-34.5 -84t-21.5 -71t-15.5 -73t-15 -91.5q-6 -100 -35 -111.5t-35 -11.5q-1 -1 -14 -1q-21 0 -35 10q-22 2 -39.5 14t-30.5 38 q-5 19 -11.5 37t-11.5 37q-9 29 -9 66q-1 5 -1 12q0 31 3 62q2 36 6 71t6 61q3 48 4.5 95.5t4.5 95.5t8 95.5t15 96.5q5 18 14 31t18 30z" />
<glyph unicode="&#xf2;" horiz-adv-x="734" d="M0 0zM599 776q10 -22 22 -54.5t14 -58.5q47 -63 77 -139.5t36 -170.5q1 -10 1 -20q0 -47 -16 -95q-20 -57 -55.5 -109t-84.5 -94.5t-106 -71t-118 -36.5q-22 -4 -43 -4q-41 0 -80 12q-43 12 -79 37t-64 58t-46 71.5t-25 80.5q-8 55 -19.5 110t-12.5 113q0 40 6 84.5 t19.5 88.5t34.5 84.5t49 72.5q24 28 53 49.5t55 42.5q30 23 64 30t62 15q29 8 54 8h11q31 -2 58.5 -12.5t51 -25t46.5 -29.5q9 -6 20 -14t15 -23zM394 679q-20 19 -26.5 38t-7.5 15q22 0 18 0t-8 -1q-37 -3 -70 -18t-61 -38.5t-50 -55t-35 -66.5q-26 -71 -29 -150 q0 -30 2 -69t8 -79.5t17 -79t28 -67.5q18 -31 43.5 -48.5t54.5 -24t61.5 -2.5t63.5 17q49 20 91 57.5t70.5 85t39 101.5t-4.5 109q-13 52 -38 95t-55 76q-36 16 -45 48q-12 12 -30 26.5t-37 30.5zM172 1243q-1 10 -1 17q0 28 16 49q19 26 50 33q8 2 16 2q24 0 46 -13 q28 -18 40 -57q1 -21 3.5 -33.5t6.5 -24t10 -25.5t12 -32q15 -24 33 -44t37.5 -39t42 -37.5t51.5 -43.5q21 -29 21 -55v-8q-4 -31 -26 -50q-22 -20 -55 -20h-4q-36 1 -69 34q-25 46 -48.5 90t-53.5 82q-18 22 -35 41t-33.5 38.5t-31 42t-28.5 53.5z" />
<glyph unicode="&#xf3;" horiz-adv-x="734" d="M0 0zM599 776q10 -22 22 -54.5t14 -58.5q47 -63 77 -139.5t36 -170.5q1 -10 1 -20q0 -47 -16 -95q-20 -57 -55.5 -109t-84.5 -94.5t-106 -71t-118 -36.5q-22 -4 -43 -4q-41 0 -80 12q-43 12 -79 37t-64 58t-46 71.5t-25 80.5q-8 55 -19.5 110t-12.5 113q0 40 6 84.5 t19.5 88.5t34.5 84.5t49 72.5q24 28 53 49.5t55 42.5q30 23 64 30t62 15q29 8 54 8h11q31 -2 58.5 -12.5t51 -25t46.5 -29.5q9 -6 20 -14t15 -23zM394 679q-20 19 -26.5 38t-7.5 15q22 0 18 0t-8 -1q-37 -3 -70 -18t-61 -38.5t-50 -55t-35 -66.5q-26 -71 -29 -150 q0 -30 2 -69t8 -79.5t17 -79t28 -67.5q18 -31 43.5 -48.5t54.5 -24t61.5 -2.5t63.5 17q49 20 91 57.5t70.5 85t39 101.5t-4.5 109q-13 52 -38 95t-55 76q-36 16 -45 48q-12 12 -30 26.5t-37 30.5zM262 995q-32 -20 -59 -20q-8 0 -12 1q-29 3 -48 22.5t-22 45.5q-1 4 -1 9 q0 23 17 51q31 29 67 60t73 57q10 10 23.5 21t25.5 18q4 5 12.5 13t21.5 15q29 12 50 9q13 2 26 2h13q23 -9 32 -18t16 -28q0 3 0.5 2.5t0.5 -9.5q-1 -23 -10 -32q0 -13 -11.5 -32.5t-36.5 -34.5q-1 0 -3.5 -2t-4 -3t-55 -54.5t9.5 73.5q4 6 9.5 11.5l9 9t-72 -72 t108.5 46.5q-13 -8 -28 -27.5t-33.5 -39.5t-44 -36t-32.5 -14q0 44 0.5 44t0.5 -21q0 -10 -6 -19.5t-12.5 -18t-13 -16t-11.5 -13.5zM246 1057q-1 -1 1 1.5t-69 -174.5q113 157 203 277.5t-135 -104.5z" />
<glyph unicode="&#xf4;" horiz-adv-x="784" d="M340 923q-12 -34 -38.5 -50t-55 -12t-48.5 25.5t-25 57.5q12 44 34 73.5t49 60.5q2 2 174.5 217.5t-123.5 -228.5q-1 -2 -4.5 -6.5t-5.5 -7t28.5 58.5t-71.5 -41q9 8 22 27t29.5 41t34.5 45.5t39 41.5t46 28q16 5 29 5q17 0 32 -6q36 -14 61 -39.5t45 -54.5t38 -56.5 t40 -49.5q24 -33 20 -63t-27 -50t-58.5 -19t-67.5 34q-12 20 -24.5 52t-26 64t-27 55.5t-21.5 26.5q16 -6 12 -11t-9 -11v1q-19 -36 -34.5 -66t-31.5 -62q-9 -17 -16.5 -31t-14.5 -30q0 -1 -1 -3t54 162q-35 -52 -45 -113.5t-12 -65.5zM286 924q2 5 -71 -285 q119 278 162 448.5t-91 -163.5zM599 776q10 -22 22 -54.5t14 -58.5q47 -63 77 -139.5t36 -170.5q1 -10 1 -20q0 -47 -16 -95q-20 -57 -55.5 -109t-84.5 -94.5t-106 -71t-118 -36.5q-22 -4 -43 -4q-41 0 -80 12q-43 12 -79 37t-64 58t-46 71.5t-25 80.5q-8 55 -19.5 110 t-12.5 113q0 40 6 84.5t19.5 88.5t34.5 84.5t49 72.5q24 28 53 49.5t55 42.5q30 23 64 30t62 15q35 10 65.5 8t58 -12.5t51 -25t46.5 -29.5q9 -6 20 -14t15 -23zM394 679q-20 19 -26.5 38t-7.5 15q22 0 18 0t-8 -1q-37 -3 -70 -18t-61 -38.5t-50 -55t-35 -66.5 q-26 -71 -29 -150q0 -30 2 -69t8 -79.5t17 -79t28 -67.5q18 -31 43.5 -48.5t54.5 -24t61.5 -2.5t63.5 17q49 20 91 57.5t70.5 85t39 101.5t-4.5 109q-13 52 -38 95t-55 76q-36 16 -45 48q-12 12 -30 26.5t-37 30.5z" />
<glyph unicode="&#xf5;" horiz-adv-x="821" d="M302 960q-27 -34 -62.5 -38.5t-60.5 13.5t-32 48.5t15 65.5q23 24 43 49t41 47.5t46.5 39t58.5 19.5h7q28 0 59 -14q32 -16 68 -53q15 -16 30 -36t30 -37.5t30 -30t17 -12.5q6 4 13.5 27.5t18.5 47.5q21 37 55 46.5t62 -4t40 -42.5q5 -13 5 -27q0 -18 -9 -41 q-15 -22 -28.5 -41.5t-27.5 -38.5q-7 -11 -13.5 -17.5t-14 -10.5t-16.5 -7.5t-22 -11.5q-40 -21 -73.5 -11t-58.5 32.5t-47 51t-43 53t-40.5 39t-36.5 14.5q9 0 7.5 -1.5t12.5 21.5q-14 0 -14 -21q0 -8 -8 -24t-18 -34.5t-19.5 -35.5t-14.5 -25zM298 1065q0 4 1 5 q0 1 175 176l-127 -191zM599 776q10 -22 22 -54.5t14 -58.5q47 -63 77 -139.5t36 -170.5q4 -57 -15.5 -114.5t-55 -109.5t-84.5 -94.5t-106 -71t-118 -36.5q-22 -4 -43 -4q-41 0 -80 12q-43 12 -79 37t-64 58t-46 71.5t-25 80.5q-8 55 -19.5 110t-12.5 113q0 40 6 84.5 t19.5 88.5t34.5 84.5t49 72.5q24 28 53 49.5t55 42.5q30 23 64 30t62 15q35 10 65.5 8t58 -12.5t51 -25t46.5 -29.5q9 -6 20 -14t15 -23zM394 679q-20 19 -26.5 38t-7.5 15q22 0 18 0t-8 -1q-37 -3 -70 -18t-61 -38.5t-50 -55t-35 -66.5q-26 -71 -29 -150q0 -30 2 -69 t8 -79.5t17 -79t28 -67.5q18 -31 43.5 -48.5t54.5 -24t61.5 -2.5t63.5 17q49 20 91 57.5t70.5 85t39 101.5t-4.5 109q-13 52 -38 95t-55 76q-36 16 -45 48q-12 12 -30 26.5t-37 30.5z" />
<glyph unicode="&#xf6;" horiz-adv-x="734" d="M0 0zM599 776q10 -22 22 -54.5t14 -58.5q47 -63 77 -139.5t36 -170.5q1 -10 1 -20q0 -47 -16 -95q-20 -57 -55.5 -109t-84.5 -94.5t-106 -71t-118 -36.5q-22 -4 -43 -4q-41 0 -80 12q-43 12 -79 37t-64 58t-46 71.5t-25 80.5q-8 55 -19.5 110t-12.5 113q0 40 6 84.5 t19.5 88.5t34.5 84.5t49 72.5q24 28 53 49.5t55 42.5q30 23 64 30t62 15q29 8 54 8h11q31 -2 58.5 -12.5t51 -25t46.5 -29.5q9 -6 20 -14t15 -23zM394 679q-20 19 -26.5 38t-7.5 15q22 0 18 0t-8 -1q-37 -3 -70 -18t-61 -38.5t-50 -55t-35 -66.5q-26 -71 -29 -150 q0 -30 2 -69t8 -79.5t17 -79t28 -67.5q18 -31 43.5 -48.5t54.5 -24t61.5 -2.5t63.5 17q49 20 91 57.5t70.5 85t39 101.5t-4.5 109q-13 52 -38 95t-55 76q-36 16 -45 48q-12 12 -30 26.5t-37 30.5zM532 1217q29 -8 42.5 -20.5t18.5 -24.5q12 -6 28.5 -24t22.5 -38 q4 -12 4 -23t-4 -21q-7 -24 -41 -44h8q-5 -10 -29.5 -21.5t-46.5 -7.5q-35 -13 -69.5 0t-47.5 68q-2 13 0 32t3 29q4 22 11 36t18 33q18 16 32 21t35 6q5 0 8 -0.5t7 -0.5zM337 1106q0 1 -1 2q8 -18 8 -36t-6 -33q-13 -36 -44 -48q-19 -9 -39 -9q-27 0 -47 15q-11 4 -24 14 q-19 13 -28 42q-7 22 -7 45q0 5 1 11q1 27 14 53.5t45 34.5q39 8 59 -9.5t69 -81.5z" />
<glyph unicode="&#xf7;" horiz-adv-x="1243" d="M1163 515q31 -23 40 -49q5 -13 5 -25q0 -13 -5 -25q-10 -24 -36.5 -39t-69.5 -10q-133 69 -252.5 107.5t-238.5 51.5t-244.5 1t-272.5 -47q-42 7 -63.5 27t-24.5 44q-1 4 -1 9q0 20 13 40q15 24 53 38q80 9 147.5 11.5t133 0.5t132 -8t141.5 -14t142 -16.5t131.5 -21.5 t129.5 -30.5t140 -44.5zM639 201q1 -1 -10 -1q16 1 28 -2.5t29 -16.5q6 -9 12 -16t10 -17q4 -8 5 -18.5t1 -20t-0.5 -17t-0.5 -10.5q-1 -50 -36 -75q-30 -22 -69 -22h-5q-7 -2 -17 -2q-21 0 -39 11q-25 13 -38 40q-18 25 -21.5 56.5t8 59t41 45t74.5 7.5q8 -1 10 -1h18z M552 795q21 19 48 24q8 1 16 1q15 0 31 -4q23 -9 39 -25t22 -35q13 -27 8 -52q-6 -26 -23.5 -39t-30.5 -15q-12 -10 -34.5 -14.5t-43 3t-35.5 23.5t-20 40q-6 21 -1 35q-2 11 3 27t21 31z" />
<glyph unicode="&#xf8;" horiz-adv-x="855" d="M0 0zM599 828q10 -22 22 -54.5t14 -58.5q47 -63 77 -139.5t36 -170.5q1 -10 1 -20q0 -47 -16 -95q-20 -57 -55.5 -109t-84.5 -94.5t-106 -71t-118 -36.5q-22 -4 -43 -4q-41 0 -80 12q-43 12 -79 37t-64 58t-46 71.5t-25 80.5q-8 55 -19.5 110t-12.5 113q0 40 6 84.5 t19.5 88.5t34.5 84.5t49 72.5q24 28 53 49.5t55 42.5q30 23 64 30t62 15q29 8 54 8h11q31 -2 58.5 -12.5t51 -25t46.5 -29.5q9 -6 20 -14t15 -23zM394 731q-20 19 -26.5 38t-7.5 15q22 0 18 0t-8 -1q-37 -3 -70 -18t-61 -38.5t-50 -55t-35 -66.5q-26 -71 -29 -150 q0 -30 2 -69t8 -79.5t17 -79t28 -67.5q18 -31 43.5 -48.5t54.5 -24t61.5 -2.5t63.5 17q49 20 91 57.5t70.5 85t39 101.5t-4.5 109q-13 52 -38 95t-55 76q-36 16 -45 48q-12 12 -30 26.5t-37 30.5zM706.154 1031.19l3.2207 14.1143q4.29492 18.2656 35.4297 34.8711 l12.8828 6.6416l31.1348 7.47266l20.3984 -0.830078l10.7363 -1.66113q21.4717 -1.66016 35.4287 -14.1143l10.7363 -9.13281l8.58887 -8.30273q12.8828 -10.793 12.8828 -21.5869v-8.30176l-2.14648 -15.7754l-10.7363 -33.21q-10.7363 -30.7197 -41.8711 -89.6689 q-28.9873 -58.9482 -62.8057 -116.651q-33.8193 -57.7031 -69.248 -114.991t-68.7109 -114.576q-69.7842 -123.709 -129.906 -249.078t-112.729 -254.06q-17.1777 -31.5508 -50.459 -44.0039q-21.4727 -5.8125 -42.9443 -8.30273q-23.6201 0 -37.5762 6.6416 q-16.1045 4.15137 -28.9873 19.0967l-6.44238 9.13281l-7.51465 10.793l-7.51562 19.9258l3.2207 9.13379l3.2207 14.9443l25.7666 43.1738q22.5459 39.8525 73.542 119.973q50.9971 80.1201 100.383 160.655t96.0879 161.486q46.7021 80.9502 86.4258 166.467 q34.3555 73.8936 64.416 147.371q30.0615 73.4785 37.5762 112.501z" />
<glyph unicode="&#xf9;" horiz-adv-x="712" d="M0 0zM649 852q-1 -32 -8 -61.5t-18 -57.5q-9 -70 -10.5 -131.5t5 -119.5t21 -117.5t36.5 -121.5q16 -17 17 -39q8 -14 15 -32t15 -35q5 -18 5 -32q0 -19 -9 -36q-13 -28 -42.5 -39t-62.5 1t-49 47q-4 4 -4 -33q-15 -10 -77.5 -36.5t-131.5 -42.5q-18 -4 -37 -7 q-10 -2 -20 -2q-13 0 -26 3q-12 3 -26 3.5t-31 2.5t-35.5 7.5t-32.5 19.5q-17 15 -38 35t-37 43q-19 28 -29 61.5t-15 64.5t-10.5 61.5t-8.5 62.5q-5 58 -5 117q0 58 2 116.5t5 116t3 116.5q8 41 35.5 60.5t59.5 16t53.5 -28.5t19.5 -65q-8 -70 -21 -141t-22 -142 t-10.5 -141.5t12.5 -137.5q11 -54 33 -83t49.5 -39.5t61.5 -7.5t71 16.5t72.5 35.5t63.5 49q17 16 26.5 27.5t18.5 23.5q-8 54 -14.5 113.5t-14.5 122.5q-5 34 -8 57t-6 44t-5 45t-5 58q-2 23 -3 46t-1 46q1 23 3.5 39.5t2.5 30.5q-2 8 -2 15q0 4 0.5 6l0.5 2v4 q8 34 30.5 53t51.5 21h2q28 0 50 -17q25 -19 34 -54v-10zM691 194q3 -6 -19 -16.5t-23 -8t42 24.5zM161 1243q-1 10 -1 17q0 28 16 49q19 26 50 33q8 2 16 2q24 0 46 -13q28 -18 40 -57q1 -21 3.5 -33.5t6.5 -24t10 -25.5t12 -32q15 -24 33 -44t37.5 -39t42 -37.5 t51.5 -43.5q21 -29 21 -55v-8q-4 -31 -26 -50q-22 -20 -55 -20h-4q-36 1 -69 34q-25 46 -48.5 90t-53.5 82q-18 22 -35 41t-33.5 38.5t-31 42t-28.5 53.5z" />
<glyph unicode="&#xfa;" horiz-adv-x="712" d="M0 0zM649 852q-1 -32 -8 -61.5t-18 -57.5q-9 -70 -10.5 -131.5t5 -119.5t21 -117.5t36.5 -121.5q16 -17 17 -39q8 -14 15 -32t15 -35q5 -18 5 -32q0 -19 -9 -36q-13 -28 -42.5 -39t-62.5 1t-49 47q-4 4 -4 -33q-15 -10 -77.5 -36.5t-131.5 -42.5q-18 -4 -37 -7 q-10 -2 -20 -2q-13 0 -26 3q-12 3 -26 3.5t-31 2.5t-35.5 7.5t-32.5 19.5q-17 15 -38 35t-37 43q-19 28 -29 61.5t-15 64.5t-10.5 61.5t-8.5 62.5q-5 58 -5 117q0 58 2 116.5t5 116t3 116.5q8 41 35.5 60.5t59.5 16t53.5 -28.5t19.5 -65q-8 -70 -21 -141t-22 -142 t-10.5 -141.5t12.5 -137.5q11 -54 33 -83t49.5 -39.5t61.5 -7.5t71 16.5t72.5 35.5t63.5 49q17 16 26.5 27.5t18.5 23.5q-8 54 -14.5 113.5t-14.5 122.5q-5 34 -8 57t-6 44t-5 45t-5 58q-2 23 -3 46t-1 46q1 23 3.5 39.5t2.5 30.5q-2 8 -2 15q0 4 0.5 6l0.5 2v4 q8 34 30.5 53t51.5 21h2q28 0 50 -17q25 -19 34 -54v-10zM691 194q3 -6 -19 -16.5t-23 -8t42 24.5zM251 995q-32 -20 -59 -20q-8 0 -12 1q-29 3 -48 22.5t-22 45.5q-1 4 -1 9q0 23 17 51q31 29 67 60t73 57q10 10 23.5 21t25.5 18q4 5 12.5 13t21.5 15q29 12 50 9q13 2 26 2 h13q23 -9 32 -18t16 -28q0 3 0.5 2.5t0.5 -9.5q-1 -23 -10 -32q0 -13 -11.5 -32.5t-36.5 -34.5q-1 0 -3.5 -2t-4 -3t-55 -54.5t9.5 73.5q4 6 9.5 11.5l9 9t-72 -72t108.5 46.5q-13 -8 -28 -27.5t-33.5 -39.5t-44 -36t-32.5 -14q0 44 0.5 44t0.5 -21q0 -10 -6 -19.5 t-12.5 -18t-13 -16t-11.5 -13.5zM235 1057q-1 -1 1 1.5t-69 -174.5q113 157 203 277.5t-135 -104.5z" />
<glyph unicode="&#xfb;" horiz-adv-x="762" d="M293 910q-46 -9 -75.5 8.5t-37.5 44t5.5 54.5t57.5 46h-3q-9 -9 -8.5 -8l0.5 1q47 -17 47 -18t26 25h-63q-5 -6 -2 -2t4 5q5 8 11 18t13 19q21 30 45.5 54.5t47.5 49.5q8 10 17 21.5t21 21.5t28 17q14 5 30 5q7 0 13 -1q27 -3 46.5 -17.5t35.5 -31t29 -35.5t11 -17 l-16 -8q32 8 40.5 -7.5t12.5 -19.5q24 -33 20 -63t-27 -50t-58.5 -19t-67.5 33q-10 16 -17.5 35.5t-15 38t-15.5 32.5t1 8q-12 -9 -29 -43.5t-32.5 -71.5t-34.5 -72t-60 -53zM276 1056q-49 0 -49 -15l-59 -119l102 102q6 6 6 32zM649 852q-1 -32 -8 -61.5t-18 -57.5 q-9 -70 -10.5 -131.5t5 -119.5t21 -117.5t36.5 -121.5q16 -17 17 -39q8 -14 15 -32t15 -35q5 -18 5 -32q0 -19 -9 -36q-13 -28 -42.5 -39t-62.5 1t-49 47q-4 4 -4 -33q-15 -10 -77.5 -36.5t-131.5 -42.5q-18 -4 -37 -7q-10 -2 -20 -2q-13 0 -26 3q-12 3 -26 3.5t-31 2.5 t-35.5 7.5t-32.5 19.5q-17 15 -38 35t-37 43q-19 28 -29 61.5t-15 64.5t-10.5 61.5t-8.5 62.5q-5 58 -5 117q0 58 2 116.5t5 116t3 116.5q8 41 35.5 60.5t59.5 16t53.5 -28.5t19.5 -65q-8 -70 -21 -141t-22 -142t-10.5 -141.5t12.5 -137.5q10 -54 32.5 -83t50 -39.5 t61.5 -7.5t71 16.5t72.5 35.5t63.5 49q17 16 26.5 27.5t18.5 23.5q-8 54 -14.5 113.5t-14.5 122.5q-5 34 -8 57t-6 44t-5 45t-5 58q-2 23 -3 46t-1 46q1 23 3.5 39.5t2.5 30.5q-2 8 -2 15q0 4 0.5 6l0.5 2v4q8 34 30.5 53.5t51 20t53 -17.5t33.5 -53v-10zM651 164 q-2 4 -3.5 8l-1.5 4q50 7 29 -6t-24 -6z" />
<glyph unicode="&#xfc;" horiz-adv-x="712" d="M0 0zM649 852q-1 -32 -8 -61.5t-18 -57.5q-9 -70 -10.5 -131.5t5 -119.5t21 -117.5t36.5 -121.5q16 -17 17 -39q8 -14 15 -32t15 -35q5 -18 5 -32q0 -19 -9 -36q-13 -28 -42.5 -39t-62.5 1t-49 47q-4 4 -4 -33q-15 -10 -77.5 -36.5t-131.5 -42.5q-18 -4 -37 -7 q-10 -2 -20 -2q-13 0 -26 3q-12 3 -26 3.5t-31 2.5t-35.5 7.5t-32.5 19.5q-17 15 -38 35t-37 43q-19 28 -29 61.5t-15 64.5t-10.5 61.5t-8.5 62.5q-5 58 -5 117q0 58 2 116.5t5 116t3 116.5q8 41 35.5 60.5t59.5 16t53.5 -28.5t19.5 -65q-8 -70 -21 -141t-22 -142 t-10.5 -141.5t12.5 -137.5q11 -54 33 -83t49.5 -39.5t61.5 -7.5t71 16.5t72.5 35.5t63.5 49q17 16 26.5 27.5t18.5 23.5q-8 54 -14.5 113.5t-14.5 122.5q-5 34 -8 57t-6 44t-5 45t-5 58q-2 23 -3 46t-1 46q1 23 3.5 39.5t2.5 30.5q-2 8 -2 15q0 4 0.5 6l0.5 2v4 q8 34 30.5 53t51.5 21h2q28 0 50 -17q25 -19 34 -54v-10zM691 194q3 -6 -19 -16.5t-23 -8t42 24.5zM521 1217q29 -8 42.5 -20.5t18.5 -24.5q12 -6 28.5 -24t22.5 -38q4 -12 4 -23t-4 -21q-7 -24 -41 -44h8q-5 -10 -29.5 -21.5t-46.5 -7.5q-35 -13 -69.5 0t-47.5 68 q-2 13 0 32t3 29q4 22 11 36t18 33q18 16 32 21t35 6q5 0 8 -0.5t7 -0.5zM326 1106q0 1 -1 2q8 -18 8 -36t-6 -33q-13 -36 -44 -48q-19 -9 -39 -9q-27 0 -47 15q-11 4 -24 14q-19 13 -28 42q-7 22 -7 45q0 5 1 11q1 27 14 53.5t45 34.5q39 8 59 -9.5t69 -81.5z" />
</font>
</defs>
</svg>
