<?xml version="1.0" standalone="no"?>
<!DOCTYPE svg PUBLIC "-//W3C//DTD SVG 1.1//EN" "http://www.w3.org/Graphics/SVG/1.1/DTD/svg11.dtd" >
<svg xmlns="http://www.w3.org/2000/svg">
<metadata></metadata>
<defs>
<font id="xenophoneregular" horiz-adv-x="80" >
<font-face units-per-em="2048" ascent="1638" descent="-410" />
<missing-glyph horiz-adv-x="444" />
<glyph horiz-adv-x="2048" />
<glyph horiz-adv-x="2048" />
<glyph unicode="&#xd;" />
<glyph unicode=" "  horiz-adv-x="444" />
<glyph unicode="&#x09;" horiz-adv-x="444" />
<glyph unicode="&#xa0;" horiz-adv-x="444" />
<glyph unicode="!" horiz-adv-x="602" d="M321 402l65 8q69 -13 93 -62l4 -69q-7 -66 -12.5 -86.5t-33.5 -22.5l-46 -37l-67 23q-34 -7 -63 19q5 54 7 86q-3 12 -14 21l7 28q25 46 60 92zM354 1678q58 -5 116 -26l-12 -134l12 -15l-6 -16l-12 -16q7 -40 31 -82q-17 -37 -25 -88l12 -77l-6 -16l6 -47l-12 -15 l-6 -41l24 -16l-18 -51l12 -62l-30 -16q26 -37 36 -87l7 -47l-7 -36l7 -16l-25 -15l25 -51l-7 -79l13 -66l-25 -26q-5 -22 -24 -42l12 16l-12 6l-104 4l-61 11l-12 15l6 82l-13 104l7 88l-7 72l7 15q-12 53 -13 114l-5 108l5 99q0 50 -12 108l7 109l48 51q18 -7 43 -15 l-25 21l-18 9q-21 -4 -48 -4l-13 31l13 15l-13 62l18 36q42 16 104 26zM293 1469l-6 -22l6 -9l12 -6l24 6q-14 16 -36 31zM287 1213q3 -11 19 -20q-3 12 -19 20zM385 930q12 -18 37 -31q-11 18 -37 31zM460 678v30h-12zM286 220l14 -41l12 29zM395 210l41 -14l12 41h-26z " />
<glyph unicode="&#x22;" horiz-adv-x="578" d="M203 1122l-52 -55h1l8 -5l34 16q10 2 18 10q-4 19 -9 34zM450 1042l27 10l5 10l-2 2l-65 -2l-2 -4q3 -2 4 -3q0 -2 33 -13zM342 1335l69 6q-7 12 -18 18l-39 7q-12 -15 -12 -31zM243 1053l-159 -35l-13 101l-7 131l-7 125l14 23l68 16l105 -24l28 -39l-14 -101l7 -116 l-27 -78zM313 1118l54 68q20 -10 48 -20l-28 27l-20 13q-23 -6 -54 -6l-14 41l14 20l-14 82l20 47q47 21 79 35q64 -7 129 -35l-13 -177l13 -20l-7 -21l-13 -20q8 -54 1 -125q-42 -14 -87 -14q-17 0 -34 2l-56 31z" />
<glyph unicode="#" />
<glyph unicode="$" />
<glyph unicode="%" />
<glyph unicode="&#x26;" horiz-adv-x="1412" d="M794 581q-18 19 -60 65l-96 98l-78 97q-19 22 -43 44l-11 -5l-57 -42q-29 -20 -52 -49t-42 -65l-5 -96l-16 -21l31 -118l37 -48l42 -54l12 2q2 -3 5 -5l35 4q10 -12 26 -22l77 -5l5 -3l96 31l54 48q22 13 45 88l16 39zM485 1424l-17 -34l50 17q-5 12 -33 17zM271 561 l-7 -28q0 -33 14 -70l7 77zM685 800q-8 43 -53 59q11 -28 53 -59zM1161 415q5 -26 29 -48q-3 32 -29 48zM389 1095v-57l29 47zM494 970l-7 -21l21 -7q-2 16 -14 28zM935 428l-10 -38l29 10zM718 346l-7 -21l14 -7l7 28h-14zM809 219v-14l14 7zM786 1499h14v14h-7zM730 1422 l-7 -21h14l7 21h-14zM772 1351l-7 -21h14v21h-7zM1081 594l20 -29l19 -10l-6 -33l66 -32l97 -114l86 -42l3 -44l-72 -95l-60 -35l-24 5l-68 85l-136 124l-14 17q-10 -25 -33 -48l-105 -116l-144 -67l-39 -5l-14 5l-25 -4l-10 -6q-10 4 -18 11h-8l-16 -10q-18 7 -28 22 q-15 -7 -35 -7l-14 6q-13 -5 -28 -5l-150 61l-67 50l-55 56q-26 21 -44 60q-15 29 -27 67l-33 77l-5 50l21 23q-18 28 -27 66q17 27 27 61q14 32 23 72q14 34 37 72q20 24 34 61q29 20 60 50q28 23 62 39l24 11q-10 9 -19 18q13 7 16 15q-12 26 -23 38q-6 4 -13 8 q-6 1 -12 -4l-38 21l-3 24l1 1l-25 85l14 20q-2 40 -21 42l15 53q-3 1 -5 2l6 4l11 39q24 32 56 62q15 34 42 70l97 21l83 34l112 -7q46 -2 97 -14l83 -41q27 -29 88 -89l26 -99l-96 -50l107 8l-7 -48l-27 -14l-91 -14q-32 -8 -76 -9q-20 31 -24 74l-46 86q-30 28 -101 34 l-83 -35l-51 -43l21 -35l21 -43l4 -23q16 -13 29 -34l22 -45l124 -90l7 -29l49 -41l8 -20l148 -169l48 -31q9 -12 19 -47l91 120l44 36l29 56l66 -51l62 -78l4 -47l-71 -67l-35 -54z" />
<glyph unicode="'" horiz-adv-x="332" d="M104 1232l-33 28l35 -67l3 2zM83 1444l119 -33q40 -34 64 -110v-77q-3 -73 7 -117q-21 -19 -49 -22l-63 -45l-21 10q-47 10 -63 76q5 37 -22 100q-3 18 -14 32l7 43q0 71 35 143zM177 1393q4 -56 33 -87q-3 62 -33 87z" />
<glyph unicode="(" />
<glyph unicode=")" />
<glyph unicode="*" />
<glyph unicode="+" />
<glyph unicode="," horiz-adv-x="468" d="M379 285l-137 -248l-35 5h-63l-19 16q-11 42 -26 81q17 52 20 101l32 101l-6 14l19 46l26 -16q48 15 91 18l76 -5q46 -20 49 -61zM334 312l35 11l-5 14l-28 -4zM154 102l29 11l8 14l-21 2l-35 -11z" />
<glyph unicode="-" horiz-adv-x="708" d="M502 807l-40 49l-21 -17zM194 696l-8 -1l-52 -28l-36 38l9 29l-13 74l8 14l17 80l37 21l80 -17q17 -18 44 -30q0 20 15 36l125 11l74 -10l22 7l91 1l-3 -46l20 11l-13 -56q-1 -32 -26 -13q7 -35 39 -56l-21 -47v-35l-65 -2l-124 11l-29 8q-33 -3 -74 -12l-59 16l-43 -3 q-27 28 -58 54q18 -29 43 -55z" />
<glyph unicode="." horiz-adv-x="538" d="M321 402l65 8q69 -13 93 -62l4 -69q-7 -66 -12.5 -86.5t-33.5 -22.5l-46 -37l-67 23q-34 -7 -63 19q5 54 7 86q-3 12 -14 21l7 28q25 46 60 92z" />
<glyph unicode="/" />
<glyph unicode="0" horiz-adv-x="1274" d="M623 1340l132 -14q54 -14 118 -41l97 -56q44 -31 83 -76q39 -34 70 -90l62 -91q26 -55 35 -125l14 -125l-14 -132q-13 -56 -49 -111l-55 -97q-39 -35 -77 -83q-33 -43 -97 -63q-45 -19 -97 -55q-49 -22 -111 -35l-97 -7l-21 7l-90 21l-21 -7l-118 28q-49 13 -104 41 q-35 32 -70 84l-55 90q-35 38 -56 97l-41 104q-2 54 -21 118l21 125q4 54 34 111q20 44 49 91q14 52 62 97l174 139l118 41l28 -7l76 14h21v7zM331 1194l14 -27l7 27h-21zM977 1090v14h-7zM547 1042l-125 -63l-63 -104l-48 -48l-28 6l-7 -6l21 -14l14 -42l-14 -21l-14 -48 l7 -21l7 -56q19 -25 34 -62l35 -56l49 -41l62 -28l56 -35l76 -14l69 21l21 -7l49 14q27 5 55 21l63 28q21 19 42 48l41 56l28 55l14 77l-7 69q-5 38 -21 76l-35 56l-83 90q-27 18 -62 35l-42 7l-14 -7h-14zM241 951l-7 -20h14v20h-7zM1053 625q2 -9 14 -14q-1 10 -14 14z M220 604q2 -9 14 -14q-2 7 -14 14z" />
<glyph unicode="1" horiz-adv-x="468" d="M342 1356q36 -21 73 -59l13 -21l-10 -62l-3 -503l10 -90l-4 -75l7 -1l-15 -26l13 -311q-26 -32 -65 -59l-191 43l-3 235q3 41 44 46l16 54l-13 8l-15 -13q-5 -17 -28 -27l-6 35l8 7l-23 263l16 27l-3 103l-16 83l2 42l-56 -18q-40 9 -53 57l13 117q9 43 31 88l-12 28 l49 12l13 -8l104 16q50 0 104 9zM104 1277l-8 -27l13 -7l16 33zM358 817l1 14l-7 1zM356 769l-16 -33l-1 -21l15 6l15 27zM356 328l-22 -33q20 12 22 33z" />
<glyph unicode="2" horiz-adv-x="889" d="M498 1356l88 -34q41 -12 81 -34l74 -40q22 -33 54 -67l28 -50l23 -139l-50 -165l-55 -87q-26 -40 -61 -65q-22 -34 -54 -68l-272 -213l197 18q42 16 94 5l94 7q41 -2 88 -14q5 -20 8 -66l14 -60l-14 -20q0 -36 -13 -75l-48 -6l7 13h-20v-7q-48 -6 -108 -6l-67 -7 q-14 1 -21 13l-161 -40l-61 -7l-20 14l-81 6l-47 -13l-21 20q-33 2 -74 14q-16 22 -27 54l-6 87q-7 41 -27 61l20 34l61 40q22 34 53 67q26 29 61 54q28 16 47 48l156 108l68 62q125 129 85 219l-39 49q-25 27 -61 54l-67 7l-20 -7q-31 -23 -75 -43l-44 -84 q-17 -48 -23 -102l-20 -34h-14l-74 20l-27 -7l-20 -13q-2 -10 -13 -14l6 14h-6l-27 61l6 101q6 38 21 81l33 81l61 53q23 30 54 61l81 34l94 7q40 5 81 20zM532 742q1 -9 13 -13q-1 9 -13 13zM262 540v-14l14 7zM195 486l6 -20l7 20h-13zM781 365q-1 9 -13 13q2 -7 13 -13z M336 162v14h-6zM94 156l33 -14q-16 2 -33 14z" />
<glyph unicode="3" horiz-adv-x="832" d="M394 1348l96 -6l135 -71q26 -21 51 -51l39 -51l26 -71l6 -84l-6 -90q-18 -30 -32 -70l-39 -58l58 -45l32 -71q15 -35 26 -77l6 -90l-19 -83l-32 -71q-16 -31 -39 -64l-109 -90l-64 -26l-84 -19q-21 -9 -51 -13l-20 13l-83 19q-24 2 -39 26q-31 12 -64 13l-45 25 q-6 26 -19 52l-45 58l-32 70l-7 71l7 19q33 10 77 13l51 6l19 -6l84 6q22 -28 39 -64q25 -26 64 -38l58 -7l19 13q27 17 58 45l13 58v19h-7q-7 35 -32 64l-83 7l-84 -13q-31 11 -58 32q-14 25 -19 58l6 58l-6 19l6 32q-6 12 -19 13l13 13q16 31 51 51l84 13q37 2 77 13 q21 25 39 58l-7 77q-19 27 -51 51l-77 -13q-22 -24 -39 -57q-11 -29 -32 -58l-71 6l-19 -6l-77 -7q-29 17 -45 52l6 90l19 58l39 57l58 52l116 51zM439 1342l-39 -6l52 -7q-2 9 -13 13zM329 1252q10 -12 26 -13zM310 1136l-6 -19l13 7v12h-7zM689 1002v-39l13 32zM638 764 l-13 -39q12 15 13 39zM747 680v13h-6zM542 661q1 -8 12 -13q-1 9 -12 13zM497 629h12v13h-6zM721 629q2 -9 13 -13q-2 6 -13 13z" />
<glyph unicode="4" horiz-adv-x="953" d="M610 1388q15 -19 21 -48l76 7q40 -29 55 -82v-62l6 -21l-6 -48l-28 -68l28 -241l-7 -20l-14 -28l14 -68l-7 -14l7 -34l-7 -14v-14l34 -7l69 7l34 -34l28 -69l-14 -48q-4 -49 -48 -82l-21 7l-62 -7l7 -42q-2 -55 -27 -123l7 -41q-7 -3 -14 -14l7 -21l-35 -13l-55 13 l-55 -7q-55 12 -61 76v110l-14 20v35l-179 -14l-27 7l-131 7q-55 8 -117 34q-30 40 -34 103q5 46 41 89q8 47 28 96l357 522q26 44 69 83zM452 963l-27 -35q3 -11 14 -20q11 24 13 55zM528 942q-36 -36 -69 -89l-62 -96q-25 -45 -68 -90l55 -41l137 -7q18 52 55 96 q-33 37 -41 97v109l7 14zM88 619q2 -9 14 -13q-2 9 -14 13zM280 558q8 -11 21 -14q-6 10 -21 14zM390 441h14v14h-7z" />
<glyph unicode="5" horiz-adv-x="907" d="M569 1348l74 -7l28 7l101 -21l21 -169l-7 -20q-24 -24 -61 -41l-14 20l-40 -13l-177 -14l-47 -13q-2 8 -14 13q-29 -6 -61 -27l-14 -14l14 -27v-13h7l-7 -21q5 -14 20 -20l55 14l81 -21l48 14l13 -7l14 -20l95 -7l115 -109l34 -88q11 -42 14 -88l6 -74q-5 -10 -6 -28 l6 -74l-34 -115l-95 -129l-74 -41q-41 -6 -88 -20l-156 -34l-21 7l-88 13q-24 9 -48 27q-26 6 -54 21q-28 22 -47 54q-33 22 -61 54l-41 75q-12 36 -20 81l47 48l68 -14l20 14l68 13l27 -7q25 -26 48 -61q17 -31 47 -61q34 -13 75 -13l47 -7l41 13l68 55l41 68l13 67l-7 27 q-20 33 -40 75l-61 54l-68 14l-21 -7q-43 -8 -88 -27l-47 -48l-55 -6l-13 6l-95 14l-81 27q-7 36 -7 82l34 176l27 88l13 88q9 45 28 95q15 32 47 61l68 14l20 -14l82 20zM236 1124l-6 -20l13 6v14h-7zM182 1070v-21l20 14zM148 921l-7 -41l21 13l20 28h-34zM691 853 q5 -15 20 -21q-4 15 -20 21zM745 805q8 -20 27 -34zM250 765l-14 -21h21v21h-7zM772 724h14v14h-7zM67 676q-7 -10 -20 -13zM155 656q-10 0 -14 14zM711 643v13h-7zM406 344l-14 -27q17 6 34 20zM453 263l-27 -41l21 -13l20 13z" />
<glyph unicode="6" horiz-adv-x="881" d="M309 1367l94 -14l20 7l61 7l20 -7l13 -27l-6 -13q-26 -38 -47 -101q-14 -49 -41 -108q-12 -49 -34 -101q8 -36 48 -41l-21 -20q54 -4 122 -20l107 -41q41 -17 81 -47l41 -47l54 -88l20 -128l-7 -101l-7 -20l-47 -101q-28 -42 -67 -81l-81 -67q-46 -28 -108 -41 q-47 -12 -114 -20q-50 8 -108 34l-175 121q-27 41 -68 88l-6 101l-13 61l19 195l202 526zM363 969v-13l13 7zM733 727q5 -22 20 -41q-6 20 -20 41zM389 700l-67 -27l-40 -54l6 -47l-6 -14v-20l-7 -13l7 -34l6 -14q7 -32 21 -67q26 -19 60 -34l68 -20l74 7l54 40l40 54l7 81 l-14 81q-19 24 -47 47l-13 27l-74 7l-54 -7zM780 504v14h-7zM120 477l-7 -27l14 7v20h-7zM275 363q2 -9 13 -14q-2 7 -13 14z" />
<glyph unicode="7" horiz-adv-x="775" d="M370 1353l49 -21l28 14l162 -7v7q50 -8 105 -28q19 -53 21 -112q-26 -42 -28 -98l-84 -239q-19 -49 -35 -120l-77 -238q-11 -46 -36 -92l-35 -98q-14 -45 -21 -98h35q-31 -13 -56 -42l28 7l7 -7l-105 -28l-56 -7l-56 21h-42l14 91l119 358q12 55 42 112q2 55 21 127 l49 112l28 120l-77 7l-21 -7h-105l-70 21q-48 -25 -113 -28q-13 54 -21 126l35 63q-8 15 -28 28l14 35l106 -7l126 21q6 -12 21 -14zM258 1262l7 7l-21 7q3 -7 14 -14zM370 735q1 -18 14 -35l14 28z" />
<glyph unicode="8" horiz-adv-x="853" d="M490 1358q48 -12 101 -38l82 -57l70 -76q28 -31 32 -82q20 -43 31 -108l-25 -114q-21 -46 -63 -89l-13 -50l38 -32q33 -39 57 -95l13 -38q-5 -30 -19 -63l6 -83q-23 -43 -44 -101l-70 -76q-32 -31 -89 -57q-45 -29 -107 -38l-32 -7l-13 7h-12l-64 6q-50 10 -108 32 l-95 44l-76 70l-38 108l-12 57l12 63q7 52 38 108q19 42 57 88q-26 38 -63 76l-32 89l-12 95l6 19q8 54 32 114l31 57l70 76q33 31 89 57q54 20 120 26l64 6l25 -6zM447 1156l-71 -24l-47 -35l-42 -47q-18 -11 -23 -36l-6 -71q9 -28 29 -53l48 -48l59 -23l18 6l47 -6l53 29 q24 17 48 42l23 59v89q-8 27 -23 59q-23 21 -54 35zM192 978h12v13h-6zM445 660l-66 -18l-47 -42q-17 -17 -41 -35l-30 -77l12 -48l35 -47l48 -30l83 -24l47 12l48 30l41 41l18 66l-6 77l-24 53l-53 30zM629 414q6 -16 25 -25q-7 14 -25 25z" />
<glyph unicode="9" horiz-adv-x="871" d="M455 1353l121 -26q41 -22 102 -44q44 -25 76 -77q24 -36 45 -83q10 -42 32 -89l-13 -96l7 -19l6 -63l-70 -153q-7 -45 -32 -102q-25 -42 -45 -102l-51 -96q-27 -29 -51 -76q-10 -57 -38 -115q-24 -51 -89 -57q-63 -3 -125 10l-51 12l19 64l58 89q17 42 60 82q3 48 25 96 l39 74l-102 6q-26 2 -57 13l-109 38q-32 33 -63 76q-30 38 -58 96l-32 102q-5 13 -19 19l26 83q12 48 51 95q8 50 44 96q32 36 77 70l102 51q52 7 115 26zM519 1283l19 -13q-6 9 -19 13zM703 1161l7 -12v12h-7zM426 1141q-27 -16 -66 -25q-22 -17 -43 -42q-13 -28 -18 -61 l-12 -66l24 -73l30 -54l55 -43l67 -24q33 5 66 24q25 17 49 43l24 66l6 73l-12 79q-14 28 -37 60l-48 37zM582 626l-25 -19q5 -9 19 -13l25 26zM436 575l19 -13q-14 3 -19 13zM538 346l-7 -19h13l6 12z" />
<glyph unicode=":" />
<glyph unicode=";" />
<glyph unicode="&#x3c;" />
<glyph unicode="=" />
<glyph unicode="&#x3e;" />
<glyph unicode="?" horiz-adv-x="1061" d="M450 1539q3 -13 14 -20l7 20h-21zM691 767q3 -16 21 -28q-3 18 -21 28zM480 592l21 -7v21h-7zM352 1282l-2 -10l16 -12l21 24q-17 -2 -35 -2zM756 1412q24 -33 59 -60q-17 35 -41 71zM580 886l-15 -9l-20 -34l11 -56l2 -48l104 16l3 48q44 -1 76 -21l91 -14l27 -14l7 -48 h-7l-21 -41q-36 -27 -63 -56l-83 -41q-51 -12 -97 -14l-49 1l-79 14l-30 25q-27 36 -42 70q-32 30 -56 62l-23 93q19 2 21 42l-14 20l48 87q23 26 49 35q34 33 69 56l70 48l76 26l64 51q43 20 70 48l14 49l-7 56l-56 55l-83 42q-24 -8 -49 -11l25 29l-46 28l-14 -60l-82 -30 q-46 -21 -56 -63q4 -80 -42 -95l-83 1l-83 -7l-14 27l14 70l-7 28l13 76l48 70l63 62l76 42l84 28l83 7l71 -19l17 29l190 -66q37 -30 63 -62q32 -30 55 -63l35 -83l14 -84q-16 -21 -21 -69l7 -14l-14 -49l-42 -83l-48 -45l-58 -42l-41 -7l-77 -29l-81 -29l-39 -24 q-26 38 -60 77q13 -48 42 -88zM506 402l119 -21q40 -22 64 -71l-21 -77q18 -20 28 -49q-21 -12 -49 -14l-92 -21l-21 7q-47 6 -63 49q5 24 7 56q-3 12 -14 21l7 28q0 46 35 92z" />
<glyph unicode="@" />
<glyph unicode="A" horiz-adv-x="1248" d="M973 1357l90 -7l90 7l34 -7l-14 -42l14 -103l-7 -14v-14l-7 -20l7 -70l7 -20l-7 -62l21 -76l7 -90l-7 -56l7 -20v-76q-6 -32 -21 -69l14 -83l-14 -62q6 -36 7 -83l-7 -69l7 -76l14 -35l-28 -21l-41 -20l-21 13l-83 7q-39 6 -55 49q-14 22 -42 27l-55 -41l-69 -28l-62 7 l-62 -34q-32 -3 -69 -14l-69 21q-35 1 -70 20l-124 49q-20 13 -48 13l-28 28q-27 18 -62 35q-12 32 -35 62l-82 110l-28 63q-2 32 -14 69l-21 138l7 20l7 76q6 41 21 83l21 69l34 63l49 131l34 28q10 -7 14 -21q24 12 41 34l132 56q32 8 69 27l138 14l21 -7q33 -1 69 -14 l55 7l14 -7q13 -20 13 -48l42 -21l-21 55q1 9 14 14l90 -69q27 -4 55 -27q11 23 14 48l-7 62zM1042 1295v13h-7zM1111 1302q4 -19 21 -35q-6 18 -21 35zM476 1288l-14 -21l34 14zM351 1233l-7 -21h14l7 21h-14zM876 1226q2 -9 14 -14q-2 7 -14 14zM959 1212l7 -21v21h-7z M731 1184l7 -55l7 7l21 -7q-12 29 -35 55zM1007 1184l-13 -27l27 6zM676 1177l-7 -20h14v20h-7zM241 1157q6 -14 20 -21q-5 14 -20 21zM600 1122q-12 -31 -35 -55l-20 41l-28 -14q-38 -7 -83 -27q-16 -32 -48 -62l-62 -42l-28 -69l-14 -62q-7 -39 -27 -83q9 -32 27 -69 l21 -55l-14 -21q10 -20 28 -35q13 -28 13 -62q39 -15 70 -48q33 -11 69 -35l83 -7l-7 63l34 -7q17 -33 42 -56l89 -13l76 34q29 20 49 55l-7 21l7 14l34 7q2 -7 14 -14q28 14 48 41q13 34 35 70q18 35 28 82l-14 90q-9 34 -28 69l-34 69l-49 63l-62 48q-21 22 -55 34z M842 1108v-14h7v14h-7zM1125 1094q1 -27 14 -55q-2 28 -14 55zM862 1087q9 -27 35 -48zM303 998l-14 -21q13 7 14 21zM109 908l-6 -21l13 -7zM1014 694l14 -21q-2 14 -14 21zM1153 694l6 -21v21h-6zM1035 673q3 -17 21 -28zM1132 438q2 -21 14 -41l7 27q-14 12 -21 14z M496 383q2 -9 14 -14q-1 9 -14 14z" />
<glyph unicode="B" horiz-adv-x="1111" d="M386 1701l64 -7l19 7l19 -7l58 7q34 -9 77 -13l57 -32l71 -26l83 -89l39 -58l25 -64l26 -128l-7 -20q3 -29 13 -64q-1 -30 -19 -57l-26 -64l-44 -52q17 -22 44 -38l52 -39q19 -24 38 -57l71 -109l-7 -51l7 -13q2 -34 12 -71l13 -19l-19 -45l-13 -13l-38 13l45 -45 l-20 -57l-12 -77l-32 -58l-45 -32q-10 -30 -32 -64l-45 -45l-58 -32q-28 -5 -58 -19q-31 -8 -64 -26l-19 7l-51 -13l-128 19l-20 -6q-32 5 -70 19l-51 38l-7 45l7 13l6 19l-13 141l45 7l13 -13l58 -32l19 6l96 -19l19 6l77 13l109 77l39 45l25 64q7 33 26 64l-84 186l-44 45 l-58 38l-51 7l-20 -7h-83v-6l-83 -7l-58 32q-15 31 -25 71l6 83q4 26 26 51l76 -12q32 10 71 12l51 7l13 -7l64 20l32 64l13 64q-1 29 -13 64l-13 58l-38 44l-51 39l-129 13l-12 -7h-20l-115 -64q-24 -14 -38 -38l-20 -64l7 -58l-26 -83l19 -58l-6 -83l-26 -32l20 -13 l19 -147l-7 -52l7 -13l-7 -19l7 -51l-7 -19q5 -22 7 -52l-7 -19l13 -51l-32 -122q18 -24 32 -57l7 -71l12 -19l-12 -45l-7 -64l7 -19l-20 -122q-27 -19 -64 -26l-83 -12l-45 44l7 84l-7 32l7 13v96h-7l7 19q-2 29 -13 64l6 83l-19 71l13 57l-7 77l7 52l-7 12l-6 58l6 19 l-6 52l6 12l-12 20l12 121l-6 45l6 19l-12 64l6 58l-6 19l12 45l-6 13l-6 19l12 52l7 76l19 71l77 102q26 16 51 39zM591 1553q5 -15 25 -25q-5 15 -25 25zM757 1066l-13 -32l32 20zM841 957l19 -12q-5 9 -19 12zM116 701q3 -12 13 -19zM757 330q2 -15 13 -26q0 13 -13 26z M751 1556l-50 -57l-21 -35l21 7l78 71zM645 1492q-2 10 -15 14q3 -7 15 -14zM758 1414l-7 -21h14v21h-7zM358 1658q3 -9 15 -14q-2 9 -15 14zM556 1074l-35 -28l21 -14l28 28q-1 9 -14 14zM457 1601q6 -15 21 -21q-4 15 -21 21zM507 1573l-7 -21h21l21 21h-35zM694 1174 l7 -21v21h-7zM800 1174l14 -28l7 28h-21zM507 940l-14 -21q13 7 14 21zM154 862l-7 -42l14 -14zM161 630l-11 -64l22 -22l10 11l11 65zM908 902l-7 -36l21 22zM879 796v14h-7zM119 450l10 -34v34h-10zM908 697l-29 -36q3 -14 15 -21q12 25 14 57zM865 428q-14 -24 -14 -49 q12 22 14 49zM851 372l-7 -50q15 14 21 36z" />
<glyph unicode="C" horiz-adv-x="1239" d="M630 1361l100 -14q50 -8 114 -29q37 -26 85 -50q44 -10 50 -57q-23 -10 -43 -28l50 7q40 -9 78 -36q3 -36 36 -56l57 -86q-4 -52 -64 -57l-50 -21l57 7q40 -3 78 -14l-14 -22l-36 -28l-71 7l-78 -7l-22 36l-21 85q-47 9 -78 50q-42 17 -43 64l-78 -14l-29 7l-163 14 l-29 -14l-78 -57q-38 -26 -71 -64q-30 -39 -57 -86l-7 -128l-22 -28l43 -157l50 -85l64 -79l64 8q14 -16 36 -29l106 -7l29 -14l164 50l56 85q31 38 57 85q7 48 43 86q44 0 93 -22l78 29q24 -46 35 -107q-25 -45 -42 -99q-11 -46 -50 -86l-135 -149l-185 -86l-50 -7l-21 7 h-22l-21 -14q-40 17 -50 64q-30 -41 -85 -43l-193 79l-85 64l-71 71q-34 28 -57 78q-20 37 -36 86l-42 99l-7 64l28 29q-24 36 -35 85q22 35 35 78q17 42 29 93q19 44 49 92q26 31 43 79q38 26 78 64q35 29 79 50l149 71q19 -2 43 -14l35 -15zM353 1219q-16 -17 -29 -43 l21 7q20 13 36 36h-28zM267 1183q-20 -26 -50 -50q1 -20 22 -28q23 32 28 78zM210 1098l-7 -65l14 50zM943 1026q-1 10 -14 15q3 -8 14 -15zM281 1005l-14 -43l29 29q-2 9 -15 14zM296 984l-7 -22l14 7v15h-7zM139 799h14v14h-7zM160 706l15 -7v21h-7zM1128 642q2 -9 15 -14 q-2 9 -15 14zM1029 628q1 -17 14 -29l7 29h-21zM281 542v-14h8v14h-8zM1107 521v14h-7zM1064 486q15 -14 36 -15zM915 450l-14 -29l28 -7q-2 18 -14 36zM986 379q6 -19 21 -36q-5 20 -21 36zM296 315q7 -16 28 -29q-9 15 -28 29zM374 308q5 -15 21 -22q-6 13 -21 22z" />
<glyph unicode="D" horiz-adv-x="1259" d="M928 1245l-7 -28l21 14q-2 10 -14 14zM1033 1196l-7 -28q0 -33 14 -70l7 77zM1057 815q-3 14 -19 19q4 -9 19 -19zM1011 415q5 -26 29 -48q-3 32 -29 48zM731 1133h14v14h-7zM928 1133q5 -12 21 -14zM1066 748v-57l29 47zM808 1091l-7 -21l21 -7q-2 16 -14 28zM777 278 l-10 -38l29 10zM112 935q2 -9 14 -14q-2 7 -14 14zM252 900h14v14h-7zM196 823l-7 -21h14l7 21h-14zM238 752l-7 -21h14v21h-7zM133 626q-2 9 -14 14q3 -7 14 -14zM252 605l-35 -14l21 -21h28zM154 549q7 -16 28 -28q-8 16 -28 28zM569 1624l-21 -21l35 -14q-1 19 -14 35z M421 360v14h-8zM478 1575q2 -9 14 -14q-3 7 -14 14zM308 353q-1 9 -14 14q3 -7 14 -14zM568 346l-7 -21l14 -7l7 28h-14zM562 1540q3 -14 14 -21q-3 14 -14 21zM499 1477q4 -15 21 -21zM659 219v-14l14 7zM498 1794q44 -16 92 -43l106 -71l64 15l198 99l63 -29 q24 -37 43 -85l42 -35q-4 -20 -21 -35l-78 -50l-127 -56q6 -21 21 -43l7 -84q40 -3 78 -29q0 -34 21 -63q33 -28 64 -64q23 -35 35 -77l71 -177q5 -40 28 -85l14 -99l-7 -78l7 -28l-14 -113q-10 -47 -49 -85l-99 -155l-64 -64l-85 -42q-41 -23 -92 -42l-99 -29l-77 -7 l-113 14l-99 29l-163 99l-63 63l-50 78q-28 38 -49 85l-36 77l-7 64l7 21l-27 78q7 2 13 14l21 113l135 247l155 106l198 57l99 14q29 -6 56 -21q16 0 22 14l-64 63q-18 38 -64 43l-91 -43q-42 -16 -85 -42l-99 -35q-24 -7 -57 -7l-14 35q-6 41 -21 85l-28 28l7 64 q47 12 99 35l84 42l22 29l-50 28l-35 14l28 49zM562 1066q-26 -23 -64 -43q-28 -13 -56 -35l-64 -14q-24 -21 -28 -57q-23 -22 -42 -56l-15 -21l15 -43l-29 -70q1 -30 14 -64q-14 -15 -35 -21q6 -13 21 -21q22 -21 43 -50q16 -29 42 -56l42 -57l50 -42q26 -21 49 -50 l128 -21l21 7l78 7l113 71q27 19 49 49q24 23 43 57l28 63l21 78l-7 156q-6 32 -21 56l-92 99l-57 42q-32 7 -70 22zM958 917v15h-7zM343 437q1 -10 14 -14q-2 7 -14 14zM781 1677l-7 -28l21 7zM900 1586v14h-7zM697 1530q2 -9 14 -14q-2 7 -14 14zM837 1495h14v14h-7z M781 1418l-7 -21h14l7 21h-14zM823 1347l-7 -21h14v21h-7z" />
<glyph unicode="E" horiz-adv-x="1147" d="M634 1355q54 -10 127 -14l106 -36l92 -49l148 -134q-28 -32 -64 -57l-77 -63l-43 -22l-35 43q-29 19 -64 28l-21 -14q-28 39 -85 49q-46 22 -106 36l-92 -7l8 28l-50 -42q-38 -21 -78 -57q-37 -28 -70 -71l-50 -84q10 -42 57 -50l113 14l56 -14l64 7l106 -14l78 7l49 -14 l78 7q10 -5 28 -7l28 -7l-7 -85q-3 -46 -14 -99q-47 -20 -106 -21l-56 -7l-57 14l-226 -14l-120 7l-14 -7l-36 7v-64q22 -40 71 -70q27 -36 71 -64l99 -42l106 -7l205 56q38 23 70 71q47 -3 85 -42q33 -35 57 -85l-85 7q29 -29 56 -71l-77 -63l-99 -43q-44 -11 -99 -14 l-50 -28q-24 5 -56 7l-43 7l-14 -7h-35v-7l-7 7l-113 21l-85 50q-48 9 -71 56l-106 35q-35 35 -63 78l-43 99q-15 48 -28 113l-7 120l14 106l28 43q-13 9 -21 28q5 51 35 99l43 92l78 7q4 41 28 84l85 57q33 33 77 56l113 29q52 3 114 21zM782 1136q12 -18 35 -28 q-12 17 -35 28zM1015 1122l-7 -21l21 7q-1 9 -14 14zM916 1093v-14l14 7zM160 874l7 -35l21 35l-21 15zM443 790v14h-7zM803 804q-25 -11 -35 -21q26 1 35 21zM330 783q-32 -6 -64 -29l42 14q31 6 57 29h-28zM549 691l-36 -43h29l28 7zM690 677l-28 -22l14 -21q10 13 28 21z M132 634l-21 -28q17 10 21 28zM231 557h14v14h-7zM351 408l-14 -35l28 21q-2 9 -14 14zM245 387l-7 -21l14 7v14h-7zM429 359v-21l21 14zM499 359v-43l29 7q-11 19 -29 36zM959 352q3 -21 28 -29zM330 323v15h-7zM443 253q2 -9 14 -14q-2 9 -14 14z" />
<glyph unicode="F" horiz-adv-x="581" d="M362 1728l89 -7l55 7l14 -7q16 -28 21 -62l-7 -55l7 -75q-32 -20 -69 -28l-62 -7q-29 -9 -55 -34q-28 -16 -55 -41l-20 -55l13 -83l48 -27l90 7q31 -3 68 -14l14 -62l-7 -62l7 -20q-4 -25 -20 -48l-35 -28l-20 14q1 28 13 55l-48 -21l-13 -48l27 -7l-55 -13l-41 6 q-10 -9 -14 -27l-7 -21l7 -61l-14 -49l14 -20l7 -69q-15 -23 -21 -55q16 -30 21 -69l-14 -75q-4 -22 -20 -41q1 -7 13 -14l28 -69l7 -68l-14 -124l7 -21l-28 -48l-27 -14l-13 7h-97l-48 -7l-13 14l-7 -7l-21 28l14 144l-14 69l7 55l-14 41l7 62l21 62q-5 23 -21 41l-7 75 q1 33 14 62l-7 62l-20 76l13 75l-20 138l7 13q3 28 27 55q-18 27 -27 62l6 69l14 41l-20 21l20 75q9 32 28 62q16 30 41 55l48 48l55 34l54 14q34 3 69 14zM369 1673q9 -14 27 -27q-5 17 -27 27zM115 1302l-14 -21l28 14zM259 1254q-16 -17 -27 -41q21 15 27 41zM273 1178 v14h-7zM266 1171l-20 -20l20 14v6zM225 1151l-14 -28l35 21zM191 1117l-28 -42q20 16 28 42zM266 1096q6 -12 21 -21q-5 15 -21 21zM122 1062l-21 -42l21 7l28 35h-28zM108 945l7 -21l7 14zM115 450l14 -7v21h-7zM108 340l14 -34l21 14l20 34h-48zM136 237l-14 -27h41z M266 237l-7 -20h14v20h-7z" />
<glyph unicode="G" horiz-adv-x="1216" d="M558 1356l121 -7l78 7l21 -14q45 -21 99 -35l93 -43l64 -71q-8 -48 -29 -99q-28 -38 -78 -57q-45 15 -92 43q-46 22 -107 35l-28 21q-30 -6 -64 -21l-64 21l-21 -14l-99 -35l-71 -64q-31 -33 -57 -78l-50 -85l14 -213l64 -71l50 -85l85 -50l106 -28q53 4 114 21 q45 9 92 28l78 57l57 78l-14 21l-78 -7l-92 15l-15 -15l-127 7q-29 40 -50 93l-7 78l7 28q7 36 50 43l78 7l28 -7h234l57 7l21 -7h29q46 -5 99 -22l14 -85l-7 -7l7 -21l8 -99l-8 -71l8 -22v-71l-36 -28l-64 -71q-34 -28 -71 -71l-78 -57l-177 -78l-107 14l-57 -14l-42 29 q-51 1 -100 35l-99 36l-149 120q-34 26 -50 71l-56 64l-15 78l-35 106l21 206l29 107l42 92l142 135l85 49zM560 229l-7 26q-12 -12 -13 -26h20zM595 283v27h-14l7 -27h7zM924 317q-12 -7 -14 -20zM979 411l53 81l-38 4l-55 -59zM294 345q14 -18 27 -28q-6 22 -27 28z M273 338l21 7l-14 27l-14 -20zM362 352h7v14zM766 386q-11 -6 -14 -14q13 4 14 14zM1095 427q-18 -18 -27 -41q18 18 27 41zM198 932v30l-30 71l-15 -29l30 -72h15zM486 407l-28 7l14 -21q11 7 14 14zM177 482v13l-14 7l7 -20h7zM1156 653q-12 -16 -13 -35q11 18 13 35z M190 660l21 -35q-6 22 -21 35zM758 1176v58h-38l19 -58h19zM430 1152l-13 35v-47q12 4 13 12zM965 1187l-28 14l14 -21zM499 1249v20l-7 -20h7zM712 1304l-48 -7l27 -21q18 12 21 28z" />
<glyph unicode="H" horiz-adv-x="1270" d="M209 1694q62 -10 99 -61q-14 -24 -16 -50l-2 -57l-8 -14l7 -7l5 -58l-7 -21l-1 -29l-8 -21l-1 -29q17 -32 26 -72q20 -1 44 13q59 24 136 24l80 12q11 -21 34 -37l-26 58l29 13q59 -5 127 -40l115 -11l6 -21l203 -136l61 -117q28 -45 54 -109q21 -61 31 -137l-16 -50 l14 -22l8 -194l27 -44q-18 -26 -31 -63l-52 -70l29 6l34 -44l-19 -143l7 -14l-2 -65l-15 -21l-47 -127q-19 -50 -61 -98q-29 -38 -80 -48q-28 -6 -37 -35q-4 -50 -60 -84q-54 -7 -109 -39q-48 -23 -108 -33q-52 27 -69 96l11 121l29 7l116 46q46 27 96 76q24 34 45 77 l-20 36q41 46 54 113l9 50q-6 21 -21 44l16 21l7 21l-11 94l7 7l-6 21l11 122l-6 29l9 57l-20 51l8 21l-18 115l8 29q-12 56 -61 102q-36 37 -90 82q-46 38 -113 68l-107 3l-21 8l-124 -46q-46 -28 -88 -83q-25 -54 -33 -121q-3 -60 -19 -135l18 -109l-7 -14q-1 -59 10 -136 q-10 -32 -31 -71q14 -19 20 -44q11 -60 10 -136q-37 -52 -103 -61l-115 -11l-13 22q11 25 30 42l-27 65l-2 158l18 114l-28 8l-8 -7l-3 108l30 49l-26 73l12 150l1 258l8 21l-7 8l-6 50l9 50q-1 38 -12 79l10 79l-23 166l43 20q54 20 123 32zM221 1621q1 -32 20 -65 q-3 34 -20 65zM197 1522l6 -22l8 21zM159 1480q-1 10 -13 15q2 -7 13 -15zM133 1330v-14l14 7zM452 1234l-8 -43l29 14q-6 17 -21 29zM301 1210q-24 -29 -31 -71q25 30 31 71zM121 1180q1 -19 13 -36l15 28zM204 1084l-23 -35q16 13 23 35zM891 1062q2 -14 14 -22 q-3 14 -14 22zM946 996q16 -34 41 -66q-14 35 -41 66zM1102 940l6 -21l1 21h-7zM1007 872q5 -13 21 -15zM1113 825q4 -14 21 -15q-6 11 -21 15zM236 739v14l-7 1zM1131 724l-8 -28l14 -8l1 29zM243 739l-15 -21l21 -8zM1127 595l-9 -42q17 5 30 27zM1116 488l7 -14l21 6 q-2 14 -13 22zM119 463q2 -9 14 -15q-2 8 -14 15zM232 417q3 -17 14 -30q-1 17 -14 30zM1151 243l-8 -28l22 13q-2 8 -14 15zM971 228q3 -17 14 -30q-3 17 -14 30zM40 236q11 -22 13 -57q-10 25 -13 57zM991 162v15h-7zM995 -138l-22 -7l14 -29l15 21v14zM812 -261l-15 -29 l28 -15l15 21z" />
<glyph unicode="I" horiz-adv-x="332" d="M229 1344q32 -58 42 -134q1 -37 14 -77l-14 -28l21 -50q-15 -4 -21 -21l21 -112q-6 -10 -7 -28l7 -78l-7 -28l-7 -14l7 -7l-21 -260l-21 7l-71 -14l-77 7q-31 0 -35 49l-14 106l7 21l1 440l-14 70l7 77q22 57 62 60l106 -7zM207 767l8 -35l7 28zM215 697l-8 -35h15v7z M88 402l119 -21q40 -22 64 -71l-21 -77q18 -20 28 -49q-21 -12 -49 -14l-92 -21l-21 7q-47 6 -63 49q5 24 7 56q-3 12 -14 21l7 28q0 46 35 92zM172 331q2 -9 14 -14q-1 10 -14 14z" />
<glyph unicode="J" horiz-adv-x="557" d="M426 1376q24 -15 39 -47q17 -19 25 -47l5 -53l-7 -32l12 -14l-7 -13l-7 -46l12 -20l-14 -39q2 -6 13 -13q-6 -52 -23 -118l25 -53l5 -73l-14 -45l6 -20l5 -66q8 -22 12 -53l-22 -59l13 -13l-23 -144q16 -27 25 -60l11 -73q-13 -15 -14 -39q4 -22 5 -53l-7 -19l-9 -79 l-7 -19q4 -23 5 -53q-29 -51 -49 -117l-40 -45l-28 -52q-44 -29 -94 -76l-113 -50q-21 -6 -40 -19q-36 7 -72 22q-8 35 -10 79l8 59l-12 46l60 51l53 19q22 14 40 38q46 32 75 90l23 137q-10 67 -9 152l8 66l-5 59l8 65l-12 20l20 20l-19 40l-5 46l7 19l-12 60l9 72l-16 152 q7 53 47 64l-45 41l8 59l-11 66l15 65l-12 40l13 13q7 23 27 45l27 -7l66 11h13zM379 1311l-14 -26q13 10 14 26zM298 1248q5 -14 19 -27q-3 16 -19 27zM439 856l5 -99l13 6q-4 45 -18 93zM324 727q2 -8 13 -13q-1 9 -13 13zM323 681l1 13l-7 1zM330 438l6 -20l1 20h-7z M434 383v13h-6zM394 344q1 -15 12 -26zM419 41q4 -14 19 -27q-2 17 -19 27zM138 -149v13l-7 1zM322 -147l-7 -32l19 -1q-1 18 -12 33zM261 -211q-11 -10 -14 -26l27 13q-1 8 -13 13z" />
<glyph unicode="K" horiz-adv-x="1027" d="M149 1685l118 -17l28 -35l-18 -203h7l-10 -119l5 -98l-7 -20l12 -106l-7 -20l11 -113l-8 -62q0 -19 14 -22l336 378l78 62l70 6l21 -8h28l98 12l42 -8q-9 -33 -30 -70l-78 -61l-69 8l-8 -41q13 -24 20 -57l-49 -6q-32 -31 -51 -83q-24 -34 -57 -69l-65 -82l-71 -62 l-22 -27q26 -21 48 -50l69 -72l61 -85l137 -143q31 -34 41 -84q39 -21 75 -58l69 -71l-85 -47l-77 15l-21 -13l-56 -6l-55 29l-329 377q-19 40 -69 43l14 -42l-15 -21q-21 5 -41 22l-15 -21l20 -35l22 21l26 -99l-1 -56l7 -14l-8 -7l-7 -21l14 -7l19 -112q-28 -43 -86 -61 l-97 8l-22 -13l-55 15l-7 28l9 63l-14 42q8 50 10 112l21 34q-15 24 -27 57l-5 63l8 49l-12 119l8 35q-12 14 -7 35l-3 175l8 42l-7 35h-7l8 42l-5 77l7 28l57 41q-39 7 -55 50l-17 224l8 21l-5 105l14 21q46 11 92 33zM112 1567l-8 -21l14 6l1 14zM178 1397v-14l14 7z M86 1336q11 -13 28 -14zM99 1280v-14l14 7zM861 1251v14h-7zM735 1246l-8 -55l6 -15l15 56q-1 10 -13 14zM104 1161q2 -20 13 -42l14 20zM733 1135l6 -22l1 21zM207 1089q4 -20 20 -36q-2 20 -20 36zM780 1071q-2 -13 -14 -21zM471 986l-22 -35q18 12 22 35zM204 949h14 l1 14h-7zM217 886l-15 -35l21 -7l1 35zM278 787q2 -10 14 -15q-2 7 -14 15zM430 707q9 -16 28 -29q-8 16 -28 29zM95 706q6 -14 20 -21zM297 688q5 -13 21 -14zM367 687l-21 -21l13 -14l29 21zM108 650l-1 -14l14 7zM249 367l-15 -69q16 -7 27 -29l14 21l-13 56zM122 328 l-8 -56l14 7l15 41zM260 227q-15 -13 -22 -34q19 10 22 34z" />
<glyph unicode="L" horiz-adv-x="366" d="M176 1739q64 -7 129 -35l-13 -177l13 -20l-7 -21l-13 -20q8 -54 34 -109q-19 -49 -27 -116l13 -102l-7 -20l7 -62l-13 -20h-68q43 -15 61 -55l27 -20l-20 -68l13 -82l-34 -21q29 -49 41 -115l7 -62l-7 -47l7 -21l-27 -20l27 -68l-7 -103l14 -88l-28 -34q-5 -29 -27 -55 l14 21l-14 7l-115 6l-68 14l-14 20l7 109l-14 137l7 116l-7 95l7 20q-13 69 -14 150l-6 143l6 130q0 66 -13 143l7 143l54 68q20 -10 48 -20l-28 27l-20 13q-23 -6 -54 -6l-14 41l14 20l-14 82l20 47q47 21 116 35zM94 1589l-6 -28l6 -13l14 -7l27 7q-16 22 -41 41z M101 1125q4 -15 21 -27q-3 16 -21 27zM210 751q14 -23 41 -41q-12 24 -41 41zM196 444v14h-6zM115 355l7 -20l6 14zM237 342l21 -7l6 20h-13z" />
<glyph unicode="M" horiz-adv-x="2236" d="M568 1341l56 -15l22 15l232 -43l71 -35q34 -7 63 -28l78 -28q17 -26 28 -64q11 -13 28 -14l56 49l71 36q32 19 70 28l78 35l70 14l57 21l21 -14l56 7l21 -7l177 -14q33 -19 77 -28l57 -42q24 -25 42 -64q34 -10 70 -35l43 -63l49 -134l14 -64l-7 -21l-42 -28h28l7 -56 l-28 -36q30 -19 56 -49v-92l7 -42l-14 -14l7 -14l-7 -85l-14 -49l21 -21l-7 -85l-21 -42q-15 6 -28 21l7 43l-21 -29l-7 -63l21 -14l-7 -42l-50 7l-21 14l-56 -14q-33 13 -64 42l22 56l-22 71l7 98l-7 36l7 7v28h-7l7 7l-7 169l7 21l-14 92q-5 33 -21 70l-21 85 q-22 24 -42 56q-33 17 -64 42q-19 22 -49 43l-77 21l-64 -7l-21 14q-30 -5 -63 -21q-35 -16 -78 -21l-35 21l-14 -35l-92 -113l-35 -71q-24 -15 -43 -42q14 -28 22 -70l-7 -43l7 -14l-7 -14l7 -7l7 -21l-14 -14l7 -42l-7 -57l7 -21l14 -77l-7 -78q5 -24 7 -56l-7 -14v-22 l7 -63l-21 -14l-78 -14q-28 -11 -63 -14q-38 2 -78 14q-15 35 -21 77l-7 21l7 50v120l-7 63l14 21v92l-7 56l7 21l-7 57l7 21l-14 56l7 21l-28 78l-43 63l-56 50q-23 22 -56 42l-85 21l-84 7q-33 -6 -64 -21q-31 12 -70 21l-50 -56q-33 -17 -63 -43l-50 -49l-42 -63l-14 -78 l7 -92l-7 -56l7 -21l7 -141l-7 -14l7 -7l-14 -85l14 -42l-21 -14q17 -38 28 -85l-7 -49l7 -21v-21l-84 -21l-64 14l-21 -7q-32 16 -56 49q20 17 21 42l-21 14l-7 29l14 28q8 28 42 28q-8 32 -35 42l-14 71l-14 183q12 38 21 84l-28 78l14 141l-14 21l14 92l-21 70l-7 64 l7 21q0 33 14 70l77 28l78 -14l42 7q-1 -23 -14 -49l42 -49l57 49zM646 1277l14 -7l7 14l-14 7zM1534 1263q5 -15 21 -28q0 19 -21 28zM1809 1228l-7 -28l14 7v21h-7zM1280 1200q2 -35 14 -71l14 57q-10 10 -28 14zM1935 1136v14h-7zM780 1143q0 -14 14 -21zM1766 1129 l-14 -28l50 -14zM2020 1059v14h-7zM1061 1009v14h-7zM2091 946v14h-8zM103 946l-7 -21l14 -7l14 28h-21zM1005 925l7 -7l14 7v14h-7zM1942 911l-7 -21h15v21h-8zM1054 861q-4 -25 -28 -49q12 -32 14 -70l14 42q6 24 7 56v21h-7zM131 720v15h-7zM96 720l21 -14q-6 11 -21 14z M2105 509l14 -7v21h-7zM2126 368l7 -21l7 21h-14zM1985 291q2 -10 14 -14q-2 9 -14 14zM1174 234v-14l14 7zM223 227l28 -21q-9 16 -28 21z" />
<glyph unicode="N" horiz-adv-x="1202" d="M937 1334l29 -8l79 4l20 -15l72 12l13 -37l-8 -28l5 -72l-8 -21l-25 -99l6 -22l-7 -14l5 -36l7 -14l-8 -21l21 -16l-16 -42l21 -29l-8 -21l-12 -115l13 -43q-7 -1 -15 -14q-24 7 -49 24l-9 -43l7 -15q16 16 37 21q-6 -19 -23 -35q25 -6 49 -24l-9 -57l14 -14l-8 -22 l-1 -28l-9 -28l12 -80q9 -55 10 -129l-3 -64l-15 -14l15 -7l-43 1q-59 -2 -130 -17l-79 -11l-20 36q-37 35 -68 89l-214 236l-61 88l-144 163l-61 88l-35 30l18 -280l-8 -21l7 -29l-10 -78l-8 -21q12 -52 17 -123q-1 -56 17 -115l-30 -27l-21 -7l-57 10q-38 -9 -86 -12 l-7 29l-43 -20l-12 65l11 114l-20 237l3 86l-5 57l10 64l-7 22l-1 157q3 17 15 36l-20 29l8 21q-5 37 -4 86l29 13l-35 16l-5 72l8 21l30 35q-18 7 -21 22l65 12l71 -3q48 -13 100 -18q36 -23 62 -73l-23 -43q15 -20 41 -37q61 -4 62 -66l-43 -13l70 -31q50 -12 84 -53 l54 -95l-39 -85l59 41l35 -23q23 -39 40 -87q44 -28 90 -68l76 -74q21 -32 56 -45q-14 50 -17 115q14 35 45 63l-21 22q-26 52 -31 116l15 28l-19 65l1 28l8 29l-5 72l-6 14l8 28l-5 72l-6 22q19 47 53 91zM337 1148l21 -8l1 22h-7zM951 1119l13 -29l8 28zM962 1025 q-1 10 -14 15q3 -7 14 -15zM328 912h15v14h-7zM383 853q2 -10 14 -15q-1 10 -14 15zM96 813l5 -43l58 5zM630 758l1 15h-7zM572 717q-28 -14 -38 -41q24 16 38 41zM692 692l7 -22l7 14zM1148 632q10 -7 14 -22zM589 610l1 14h-7zM789 581v14h-7zM1051 528l7 -21l1 21h-8z M637 536q4 -15 20 -22l15 21zM836 515v-15l14 7zM900 491l-22 -14l20 -43l8 42l1 15h-7zM218 444q2 -9 14 -15q-1 10 -14 15zM231 401l-15 -36l6 -14l23 35zM95 384l21 -15q-6 11 -21 15zM800 294l-1 -14l15 7zM1056 271l-22 -14q4 -19 21 -36l15 35q-1 10 -14 15zM139 232 q6 -14 21 -22l15 21z" />
<glyph unicode="O" horiz-adv-x="1268" d="M666 1353l42 -21l14 21q31 -15 57 -42l49 21l63 -21l63 -35q25 -22 57 -42l13 22q23 23 42 57l43 7l14 -7l7 -29l56 -35q27 -18 42 -49q-16 -31 -42 -56l-6 -30q-28 -19 -64 -35l35 -63l43 -141q11 -29 14 -63q-20 -22 -50 -28q8 -14 22 -14l28 -78l-36 -161l-49 -50 l-21 -63q-23 -23 -42 -56q-14 -33 -42 -56l-64 -36q-20 -25 -56 -42l-134 -63l-56 7l-21 -14l-91 7q-25 -5 -57 -7l-21 14l-133 63q-31 -4 -64 -21l-42 -56q-28 -19 -63 -21l-64 35q-25 23 -49 56l-28 7q10 20 28 35l42 57l29 28l-14 21l-22 77q-18 21 -28 56l-21 15l14 49 q-26 16 -42 49l-21 127l7 14l7 21l-7 63l14 70l28 71q34 6 42 42l14 70l43 57l56 42l49 49q33 14 56 42l43 14l21 -21l42 42l70 14l43 -21l21 14zM413 1276l28 -7l7 7h-35zM779 1262l105 -21q-50 15 -105 21zM849 1185l77 -35q-32 21 -77 35zM659 1128l-63 -14l-71 7 l-98 -56q-47 -21 -85 -63q-32 -46 -49 -106l-42 -98q1 -45 21 -99l42 -112q43 2 92 21l-21 35q32 17 63 42l148 148l91 63l49 85q36 35 85 70q-11 40 -57 56zM321 1058q6 -15 21 -21l7 21h-28zM1004 995v14h-7zM237 960l-7 -50q16 12 28 36zM905 924l-7 -21l14 7v14h-7z M961 889l-77 -49q-22 -40 -56 -84l-64 -71l-77 -63l-56 -84l-141 -134l169 -28l21 14l21 -7l85 35q42 22 84 56l63 71q33 32 57 77l7 77l-7 21l28 22l-21 56q-12 47 -36 91zM61 777l14 -21q-2 14 -14 21zM209 777q6 -10 21 -14zM617 749v14h-7zM589 749q-12 -17 -14 -43 q12 18 14 43zM631 735l14 -7v21h-7zM1102 545l-7 -36l14 8zM385 531l-7 -22h14l7 22h-14zM504 509l-7 -28l21 14q-1 10 -14 14zM1025 425q11 -12 28 -14zM842 390l21 -14q-6 10 -21 14zM476 348q51 -19 113 -21q-50 16 -113 21z" />
<glyph unicode="P" horiz-adv-x="1235" d="M516 1344h84l21 -7l7 7l21 -7q54 -4 119 -21q56 -11 112 -42q44 -29 105 -42l77 -77l56 -98q25 -42 42 -105l35 -91l-7 -133l-35 -28l28 -14l-14 -35l-21 -21l14 -91l-42 -105l-147 -161l-98 -56q-45 -23 -105 -42q-33 5 -70 21q-20 -7 -42 -21l-42 7l-14 -14l-56 21 l-35 -21l-175 70l-56 56l28 -91l-7 -42l14 -14q-14 -46 -14 -98l35 -119q-45 -28 -105 -35l-105 -7q-32 19 -63 49l-7 98l7 21l-7 147l-7 35l7 7v98l7 28l-7 77l-7 21l7 28l-7 70l21 21l-21 91l21 14l63 -14l168 7l21 -105q18 -44 63 -77l203 -98l28 -7l77 7l112 42 q38 29 77 70q25 45 70 84q-7 23 -7 56q18 13 35 35q17 27 21 63l-77 224l-77 77l-196 77l-56 14l-56 -21q-58 -3 -112 -35l-84 -70l-28 -35l7 -21q-5 -24 -7 -56q-18 -52 -77 -77l-77 7l-28 -7l-35 7l-14 -7l-14 -21l-28 35l7 98l35 119l63 84q43 15 63 49q35 34 91 63 q44 26 105 49q50 8 112 35zM586 1302q9 -23 28 -49q-8 25 -28 49zM684 1288v14h-7zM369 1246q8 -25 28 -42q-5 23 -28 42zM306 1204q2 -9 14 -14q-2 9 -14 14zM908 1190v14h-7zM621 1190q2 -9 14 -14q-2 9 -14 14zM964 1155q2 -9 14 -14q-2 9 -14 14zM180 1127l14 -28 q-3 16 -14 28zM222 1036q4 -35 28 -63q-5 33 -28 63zM103 980l-7 -42l21 -7l7 42zM201 931q5 -22 21 -42q-4 24 -21 42zM1132 756l14 -21q-3 14 -14 21zM75 707l35 -14q-20 1 -35 14zM1097 672v-14h7v14h-7zM1104 574l14 -35l7 21zM159 539v-14h7v14h-7zM173 504h14v14h-7z M943 504h14v14h-7zM1062 490l21 -28q-4 17 -21 28zM845 413l-7 -21h14l7 14zM586 364q18 -19 49 -21zM432 357q2 -25 21 -42zM348 315v-14h7v14h-7zM124 161q2 -9 14 -14q-3 7 -14 14zM222 0l21 -14l14 7z" />
<glyph unicode="Q" horiz-adv-x="1236" d="M1072 1334l89 -19q17 -22 25 -56l-11 -69l18 -42l-15 -27l18 -49l-22 -13l13 -21l-23 -34l18 -56l-19 -82l11 -62q4 -38 2 -83l-15 -20l18 -43l3 -69l-8 -20l13 -139l-8 -20l4 -49l-7 -13l-15 -13l4 -56q-15 -25 -17 -54q14 -31 17 -70q0 -42 8 -90q-11 -35 -18 -82 q8 -33 10 -76l-77 -10l-20 9l-56 -11q-36 9 -74 32q-22 23 -31 57l4 75h-7l22 27q-7 24 -11 55l-2 77q-26 -5 -50 -18l-154 -40l-55 -4l-20 15l-83 -2l-54 17l-15 -13q-34 12 -67 38l-53 31q-36 12 -67 38l-53 44q-21 28 -59 45l-46 58l-23 70q-18 31 -45 58l-4 63l-23 77 l-2 90l10 54l-5 21l17 68l56 135l89 113l58 38q29 17 57 45l142 54l152 12l20 -15l62 4l21 -8q34 -5 67 -25l63 4l20 -8q25 -22 60 -38l28 12l-18 36q14 27 44 45l89 -5v7zM1049 1287q1 -9 13 -14q-1 9 -13 14zM805 1239l-23 -27q19 9 23 27zM708 1237l-15 -26q13 10 15 26z M865 1208l-15 -20q13 7 15 20zM932 1163q1 -9 13 -15q-2 7 -13 15zM319 1190l-23 -33q20 11 23 33zM309 1136l-1 -14l7 -1v14zM384 1131q14 -24 40 -36zM686 1120q-29 -15 -68 -26l-82 -3l-51 18l-15 -7l-55 -41l-47 -57l-34 -65l-62 -190l21 -16l4 -60l-9 -22q9 -31 26 -68 l83 -109q31 -14 57 -40l51 -18l23 6l58 -33l23 14l51 -18q36 6 68 26l68 19l69 33l47 42l33 72l11 52l23 13l-20 39l10 51l-7 15l-13 157q-16 27 -42 54q-14 31 -41 55l-42 54l-65 34zM1137 1006l1 14h-7zM304 1060l-8 -27l6 -8q20 11 37 33zM151 1027q7 -11 19 -15z M197 990q2 -20 26 -29q-6 16 -26 29zM158 909l26 -22q-8 16 -26 22zM114 739v14h-6zM195 707q-26 -40 -33 -95l44 46q-1 25 -11 49zM117 670l13 -1l1 14h-7zM1114 600l-18 -75l33 -23l8 21l-11 49l8 20zM929 500l-9 -34l14 6zM312 465l20 -14q-5 10 -20 14zM806 396 q-13 -9 -16 -26l35 11q-5 11 -19 15zM227 415l47 -23q-19 14 -47 23zM884 316l-64 -38q-18 -13 -23 -33l57 38q20 11 30 33zM421 314q21 -12 48 -16zM1103 41l14 -1l1 14l-7 1z" />
<glyph unicode="R" horiz-adv-x="1003" d="M289 1352q36 -7 84 -7l90 -7l55 7l21 -7l77 7l90 -14l69 -35l56 -41q30 -17 55 -42q22 -15 35 -42l42 -118l-7 -21l7 -69l-21 -63l7 -13v-21q-11 -35 -35 -63q-6 -32 -21 -69q-19 -26 -48 -49q-23 -11 -42 -34l-62 -21l-91 -7q7 -34 21 -70l139 -159l35 -63 q25 -23 48 -55l49 -49l14 -42l-28 -20l-83 7l-56 -7l-21 13l-76 -27l-49 55l-14 49l28 7q-26 16 -55 21l-49 48q-13 32 -35 70q-17 27 -48 48l-28 56q-28 21 -48 55l-42 21l-21 -14l-35 7l7 -35l-7 -6l7 -77l-14 -90l14 -49l-14 -20l7 -49l-7 -14l-6 -21l-70 -35h-97 q-25 25 -42 63l-7 21l7 55l-14 271l14 49v14h-7l-27 173l13 49l-6 62v28l-7 7l7 14v34l34 28l-21 14l-20 83l7 49l-7 35q6 33 20 69q36 15 84 21l76 7q33 9 69 28zM574 1199q6 -10 21 -14zM234 1171q-29 -26 -49 -62l-14 -63l14 -21q15 38 21 84q20 25 28 62zM421 1143 q-43 -11 -90 -13q-43 -5 -55 -49l7 -28l-7 -76l-21 -21l28 -42l13 -125q20 3 42 14l62 -14l28 14l188 21l69 42q23 32 42 76l7 76l-7 28l-35 70zM886 1046l-14 -21l14 -41l14 21zM782 1032l-14 -20l21 -14l14 34h-21zM845 817l-14 -48l28 27q-3 14 -14 21zM574 762l-7 -21 l14 -7l7 28h-14zM518 748q3 -9 14 -14q-1 9 -14 14zM810 748l-7 -21l14 7v14h-7zM505 720l-7 -21l20 14zM491 678v14h-7zM102 651l28 -42q-5 23 -28 42zM227 442l-7 -34l14 -7l7 34zM178 248q2 -9 14 -14l7 7z" />
<glyph unicode="S" horiz-adv-x="896" d="M335 1355l164 -14l21 7l103 -14l68 -34q28 -21 55 -55l41 -75l14 -55l-14 -14l21 -69l-14 -82q-5 -41 -21 -82l-96 -117q-37 -10 -75 -34l-165 -55l-48 -27q-27 -21 -54 -55l-28 -82l55 -55l62 -41l82 7q33 6 62 27l41 69q20 28 55 54l75 -6l21 6q37 -12 75 -34 q14 -28 21 -62l-35 -75q-10 -38 -34 -75l-41 -69q-29 -19 -62 -48q-39 -14 -89 -21l-89 -20l-82 14l-55 -7l-14 7l-20 6l-62 48q-34 7 -76 21q-26 27 -61 48l-55 55q-18 32 -28 68l-13 96l27 179q15 33 41 68q10 21 28 34l68 42l69 20l144 76q40 7 82 27q28 27 48 62l-14 75 l-61 34l-21 7l-55 -13q-26 -25 -41 -62l7 -41l-7 -14l-144 -27l-103 13l14 158l82 116q29 25 69 48zM335 1272v-75l13 20l7 48zM259 1245q5 -19 21 -34q-3 21 -21 34zM115 1204q-2 -24 -14 -48zM540 1190l-7 -20h14l7 20h-14zM657 834l-7 -21h14v21h-7zM595 820 q8 -17 28 -21zM479 765l20 -14q-5 10 -20 14zM321 676q5 -13 20 -14zM725 505l62 -69l-7 62zM671 477v14h-7zM122 436l14 -21q-3 14 -14 21zM746 402l14 -28q-1 15 -14 28zM650 333v-14h7v14h-7z" />
<glyph unicode="T" horiz-adv-x="805" d="M358 1598q44 -4 95 -20q27 -20 54 -48q0 -40 -13 -81l-7 -54l7 -21q17 -29 54 -47q34 3 74 20q37 -12 82 -20l28 -39l-1 -103l-15 -49q-24 -26 -68 -36l-61 7l-21 -7l-59 -10l7 -81l-7 -27l7 -68l-14 -122l14 -20l7 -88l-7 -55l7 -13l7 -109l-14 -33l7 -14l-7 -14l7 -6 l-7 -75l7 -20l7 -54l-7 -21l13 -81v-88q0 -33 14 -68l54 -47l81 -27l55 7l20 -7v-95l7 -54l-7 -20l7 -61l-7 -20l-20 -14l-48 14h-108l-75 27l-129 88l-81 129q-13 36 -20 80l7 27l-14 102l7 14l-7 115l7 20l-7 54l7 48l-14 40l7 82l-7 88q0 41 -13 88l6 88v74h-6l6 21 l-6 54l6 20l14 20l-27 105l-41 -6q-30 14 -67 20q-24 -6 -55 -7l-13 21q-18 20 -27 64l6 95q18 37 61 47l75 -7l20 7l27 -7l14 7l-7 41l14 20l-7 61l7 61l-7 20q16 34 47 61l48 -13zM365 1347l7 -20v20h-7zM290 995q6 -9 21 -13q-6 9 -21 13zM426 -7q-2 9 -14 13 q3 -6 14 -13zM636 -75v-13l14 7zM683 -136q2 -34 21 -67q-6 32 -21 67zM297 1370l-14 -25l28 17zM441 1313q-16 -21 -27 -49q21 18 27 49zM407 1189l-14 -33l35 25zM373 1149l-28 -51q20 20 28 51zM448 1123q6 -14 21 -25q-5 18 -21 25zM304 1083l-21 -51l21 9l28 42h-28z M290 943l7 -26l7 17zM297 350l14 -9v25h-7zM290 218l14 -41l21 17l20 41h-48z" />
<glyph unicode="U" horiz-adv-x="1394" d="M1037 1346q48 -12 106 -17l122 8q55 -3 90 -53l-4 -100l6 -21q-14 -58 -74 -82l-100 -17q23 -44 39 -94q20 -41 38 -108l16 -101q17 -56 16 -128l-40 -112q-26 -42 -39 -98l-61 -90l-80 -61q-26 -39 -75 -68q-42 -25 -94 -46l-108 -38q-42 5 -85 18l-21 -13l-29 -6 l-78 10l-20 8q-54 11 -113 40l-172 129l-68 73l-47 87l-38 109q-21 48 -24 107q0 52 -10 107l73 217l39 70q-6 10 -21 15l-77 10l-29 -6l-20 8q-14 49 -15 179q11 26 30 55l335 15l21 -8l50 -10l21 7l21 -1l22 6l7 -7l64 11l34 -29l28 -16l-11 -91l10 -101q-42 -28 -108 -45 l-43 16q-2 -30 -16 -64q-43 -20 -88 -52q-29 -42 -46 -91q-22 -51 -33 -119q2 -52 17 -107l-3 -72l95 -117q40 -24 74 -67l178 -29l28 5h21q54 4 115 31l74 68q32 38 61 90q18 46 33 105l11 106q0 53 -9 107q-19 42 -54 81q-19 48 -68 80l-97 54q-28 49 -31 115l11 99l22 6 q50 24 114 24q50 -1 107 9zM977 1079v15h-7zM1216 679l13 -23q-2 15 -13 23zM136 687q1 -8 13 -14q-1 9 -13 14zM1127 412l8 7l-22 8q3 -8 14 -15zM1031 310l6 -8l15 7v13l-7 1zM746 321l20 -43q0 23 -20 43zM1054 1141l39 23l-39 68l-17 -68zM1032 550h-16v-8zM1040 424 q6 -36 32 -72l-16 47q-6 35 -32 64v-31zM1142 668l48 -40v33l-7 31zM1158 826l25 -31l23 15q-15 11 -23 32zM501 239v45h-15v-22zM235 1020l56 -22l-33 45q-15 -4 -23 -23zM526 240l23 -23l-8 46h-15v-23zM315 1147h33l-22 33zM315 1259h69l-11 47q-31 -18 -58 -47zM373 986 h-25v-11zM486 1169q14 3 23 22q-14 -2 -23 -22z" />
<glyph unicode="V" horiz-adv-x="1225" d="M265 1337q28 -26 56 -63l28 -77l43 -63q14 -37 21 -85l14 -77l49 -56l35 -77q10 -37 28 -77l49 -71l21 -70q10 -39 28 -77l36 77l21 70l35 71q4 38 21 77l21 91q9 33 28 70q5 33 21 71q6 32 21 70l21 91q20 33 35 77l169 14l21 -7l77 -14l21 -28l-49 -21l14 -63l-35 -126 l-70 -134q-4 -33 -21 -63q-23 -21 -35 -56q-21 -15 -50 -21q-6 14 -21 21l-35 -21l35 -14q23 -30 35 -71l-21 -77q-18 -32 -49 -63l-14 -84l-70 -246q-11 -38 -35 -78l-63 15l-21 -7l-162 -8v-7l-21 15l-63 147q-15 34 -21 77q16 13 21 35l-21 -21l-43 71q-6 33 -21 70 l-168 379l-28 84l-35 71q-17 38 -29 84l-35 77q-13 33 -14 70l21 14q19 -12 43 -14l91 7q34 4 70 21zM293 1162q3 -14 14 -21zM1031 1042l-7 -21l14 7v14h-7zM251 1035q2 -9 14 -14q-2 7 -14 14zM230 909q4 -20 21 -35q-3 19 -21 35zM377 846q7 -10 22 -14zM757 762l-7 -57 l21 7l-7 28q7 3 14 14zM904 740l-14 -35l21 7l7 28h-14zM736 656l-21 -28q19 9 21 28zM722 509v14h-7zM483 340q6 -14 21 -21q-5 15 -21 21zM511 305l-7 -21q7 3 14 14zM651 242q6 -19 29 -28q-7 15 -29 28zM715 200q-2 9 -14 14q2 -7 14 -14z" />
<glyph unicode="W" horiz-adv-x="2156" d="M187 1309q43 -1 88 -19q21 -16 41 -40l-1 -88h7l-7 -7l-22 -164l12 -142l-7 -21l19 -142l7 -21l-14 -13l14 -27l46 -142q6 -26 40 -41l82 -19l68 -26l61 -12l20 7l75 15l137 63l62 42l41 55q21 14 28 41l-14 20l21 55l-6 20l7 62l-6 54l7 21l13 20l-33 95q10 1 14 14 l-6 47l7 21l-6 102l7 20l-13 54l21 82l54 8l21 -6l13 7l41 -7l21 1q36 -3 74 -19l-7 -62l7 -20l13 -20l-14 -48l6 -61l-7 -21l13 -81l-22 -143l7 -14l7 -20l-8 -55l12 -163l27 -53l82 -20q19 -28 47 -53q1 -32 40 -40q27 -21 61 -40l61 8l21 -7q36 7 75 22q32 7 68 28 q27 5 55 28l48 55l35 62q15 31 41 62l-26 68l8 215l7 20l-6 61l-13 41l7 14l7 20l-6 82l-7 20l7 54l-27 34l27 -6l7 7q20 25 48 48l96 -5l61 8l13 -21l13 -88l-7 -88q12 -35 12 -82l6 -160l-7 -14l7 -7l-8 -95q5 -23 6 -54l-7 -14v-20l-7 -75l6 -95l-8 -68l6 -82l-7 -75 l12 -143l-7 -74q11 -32 13 -68q-23 -15 -42 -41q-27 -13 -61 -22l-82 6l-74 19l-12 163l7 81q-3 33 -20 61l-55 -48q-30 -3 -68 -15l-82 -22l-82 -8l-163 18q-32 12 -68 33q-32 12 -67 33l-61 33q-24 21 -61 39l-40 61q-27 -20 -49 -48q-26 -22 -61 -42q-24 -22 -55 -42 q-33 -21 -75 -35l-69 -29l-61 -7l-20 6q-32 -1 -68 -15l-55 6l-14 -7h-20q-36 3 -75 19q-35 9 -74 26l-68 26l-47 61l-54 40q-19 28 -47 53l-34 68l-40 53l-34 68l-24 258l7 95l1 68l7 14l-7 7l15 143l-7 20l8 82q16 23 48 34q35 3 75 15zM1922 1219l13 -6l7 20h-13z M1988 1037l-7 -27l14 -7v27zM1048 895l-15 -75l21 -13l7 68q-2 13 -13 20zM249 705l-14 -55q8 -2 14 -13l13 -20q-2 41 -13 88zM173 581l7 7l-20 7q3 -7 13 -14zM282 529v13h-7zM315 482l7 -21v21h-7zM1030 425l6 -27l7 21zM1989 414l-7 -34q12 6 21 21q-2 9 -14 13z M566 329q-2 9 -14 14q3 -7 14 -14zM872 300q2 -8 13 -13l7 7zM715 237q0 -14 13 -21l21 21h-34zM2080 -74l27 -6l-27 -7v13z" />
<glyph unicode="X" horiz-adv-x="1101" d="M976 1359l57 -49q-19 -42 -50 -85l-70 -63l-42 -85l-64 -77l-105 -162l-29 -57l289 -394l43 -85q30 -37 56 -84q-36 -22 -92 -29q-50 -2 -105 -14q-36 20 -71 50q-13 24 -35 49l-162 233l-64 70l-112 -155l-21 -63l-50 -78q-21 -39 -56 -77l-92 -43q-45 12 -98 14 q-44 7 -63 50l42 77q2 18 14 35l-7 -35l21 14q20 38 56 78q20 41 49 84q-1 19 0 78l7 -42l50 91l56 71l49 84l22 28l-141 198l-50 91l-56 57q-10 28 -28 56q-10 43 -35 85l-15 28l155 28h92l21 -7l43 -42q-15 -9 -29 -28l57 -43q15 -41 42 -77l77 -134q16 6 36 21l211 296z M828 1275v14h-7zM370 944v-15l15 7zM427 725l-7 -21l14 7v14h-7zM702 648l-7 -36q6 -13 21 -14zM237 584q8 -1 14 -14q-9 1 -14 14zM709 514l28 7l-14 7zM328 450l7 -21v21h-7z" />
<glyph unicode="Y" horiz-adv-x="1341" d="M136 1359h104l22 -7l67 -45q2 -35 37 -59q8 -46 30 -89q27 -40 51 -89l201 -438l52 -82l44 82l260 660q18 35 45 60l22 -23q21 14 52 23l37 -15l-7 22q48 -10 96 -30l37 15q12 -23 15 -59q-24 -40 -44 -89l-52 -74l-67 -201q-24 -39 -37 -81l-45 -82l-30 -104l-89 -170 l-22 -97l-37 -96l-22 -97l37 -89l52 -81l37 -96l22 -104l67 -67q-19 -36 -52 -67h-104l-22 -7l-104 15q-25 39 -59 74l-104 289q-11 35 -37 74l-104 245q-23 38 -45 89l-52 81l-326 728q-3 33 -22 59zM284 1329l-15 -29l30 15q-3 7 -15 14zM143 1292q20 -19 45 -22z M284 1248q1 -17 15 -30q-1 17 -15 30zM351 1196q3 -15 15 -22zM915 944l-15 -60q3 -12 15 -22l8 59v23h-8zM351 907h15l-8 14zM908 543v15h-8zM626 528q2 -24 22 -37zM566 365l15 -22q-3 14 -15 22zM678 142q0 -20 14 -44q-2 22 -14 44zM811 31v15h-7zM811 24v-23h8v23h-8z M841 -43l-8 -29l15 -15zM967 -213q-15 -16 -22 -38h37q-3 19 -15 38zM871 -228q0 -20 14 -37q-2 20 -14 37z" />
<glyph unicode="Z" horiz-adv-x="958" d="M202 1346l199 -7l82 7l22 -7l96 -7l192 7q42 -3 59 -44q13 -34 14 -74l15 -81q-11 -36 -37 -74l-19 -56l-66 -44l-22 -67q-24 -28 -45 -66q-32 -19 -59 -52l-44 -59l-37 -74l-52 -59l-58 -103q-23 -21 -36 -52l174 1l14 -7q21 13 52 22l22 -22l22 7l67 -7l81 15 q24 -24 37 -59l-1 -49q10 -38 15 -88q23 -21 29 -52q-35 -6 -74 -22l-88 15l-82 -8l-22 -7l-59 7l-332 -29q-2 7 -15 15l-74 -8l-59 -15l-22 15q-22 29 -44 67v73h-7l7 23l-6 44q12 28 45 68l100 106q22 18 52 22q22 16 44 44l-29 37l36 74l148 177l128 217 q-86 -17 -115 -15l-96 -7l-104 15l-81 -8q-45 5 -88 23q-18 5 -19 44q-11 25 -15 59q10 1 15 15l-22 66q38 19 81 22zM113 1287v-37l30 8q-7 18 -30 29zM807 1287l-14 -22h22v22h-8zM350 1206l-30 -37q22 11 30 37zM230 613l8 -23l-15 -7zM567 575q9 -2 19 -40zM749 376 l-30 -11q27 -12 30 11z" />
<glyph unicode="[" />
<glyph unicode="\" />
<glyph unicode="]" />
<glyph unicode="^" />
<glyph unicode="_" />
<glyph unicode="`" horiz-adv-x="468" d="M78 1740q24 77 71 92l75 -3q44 -7 76 4l42 -17l14 -49l-7 -13l21 -103q-1 -24 -3 -47q-2 -22 -6 -42q-20 -37 -7 -79l-21 -14l-61 7l-36 -2l-93 194zM134 1742l35 11l-5 14l-28 -4zM281 1539l29 11l8 13l-21 3l-35 -11z" />
<glyph unicode="a" horiz-adv-x="1248" d="M973 1357l90 -7l90 7l34 -7l-14 -42l14 -103l-7 -14v-14l-7 -20l7 -70l7 -20l-7 -62l21 -76l7 -90l-7 -56l7 -20v-76q-6 -32 -21 -69l14 -83l-14 -62q6 -36 7 -83l-7 -69l7 -76l14 -35l-28 -21l-41 -20l-21 13l-83 7q-39 6 -55 49q-14 22 -42 27l-55 -41l-69 -28l-62 7 l-62 -34q-32 -3 -69 -14l-69 21q-35 1 -70 20l-124 49q-20 13 -48 13l-28 28q-27 18 -62 35q-12 32 -35 62l-82 110l-28 63q-2 32 -14 69l-21 138l7 20l7 76q6 41 21 83l21 69l34 63l49 131l34 28q10 -7 14 -21q24 12 41 34l132 56q32 8 69 27l138 14l21 -7q33 -1 69 -14 l55 7l14 -7q13 -20 13 -48l42 -21l-21 55q1 9 14 14l90 -69q27 -4 55 -27q11 23 14 48l-7 62zM1042 1295v13h-7zM1111 1302q4 -19 21 -35q-6 18 -21 35zM476 1288l-14 -21l34 14zM351 1233l-7 -21h14l7 21h-14zM876 1226q2 -9 14 -14q-2 7 -14 14zM959 1212l7 -21v21h-7z M731 1184l7 -55l7 7l21 -7q-12 29 -35 55zM1007 1184l-13 -27l27 6zM676 1177l-7 -20h14v20h-7zM241 1157q6 -14 20 -21q-5 14 -20 21zM600 1122q-12 -31 -35 -55l-20 41l-28 -14q-38 -7 -83 -27q-16 -32 -48 -62l-62 -42l-28 -69l-14 -62q-7 -39 -27 -83q9 -32 27 -69 l21 -55l-14 -21q10 -20 28 -35q13 -28 13 -62q39 -15 70 -48q33 -11 69 -35l83 -7l-7 63l34 -7q17 -33 42 -56l89 -13l76 34q29 20 49 55l-7 21l7 14l34 7q2 -7 14 -14q28 14 48 41q13 34 35 70q18 35 28 82l-14 90q-9 34 -28 69l-34 69l-49 63l-62 48q-21 22 -55 34z M842 1108v-14h7v14h-7zM1125 1094q1 -27 14 -55q-2 28 -14 55zM862 1087q9 -27 35 -48zM303 998l-14 -21q13 7 14 21zM109 908l-6 -21l13 -7zM1014 694l14 -21q-2 14 -14 21zM1153 694l6 -21v21h-6zM1035 673q3 -17 21 -28zM1132 438q2 -21 14 -41l7 27q-14 12 -21 14z M496 383q2 -9 14 -14q-1 9 -14 14z" />
<glyph unicode="b" horiz-adv-x="1283" d="M138 1672q46 -12 63 -64l29 50q34 0 42 -43l-7 -77l14 -155l-7 -21l-7 -63l7 -21l7 -78l-7 -28l56 56l92 22q39 11 70 49l21 14l120 -49l-21 42l28 7l28 14l56 -21l190 -49l78 -36l126 -112q17 -38 43 -78l28 -84l49 -70l7 -113l-7 -84q-4 -39 -28 -71l7 -70l-7 -21 l-49 -64q-17 -20 -29 -49q-14 -34 -42 -70l-56 -64l-70 -42q-18 -40 -64 -49l-21 14l-56 -21q-37 -12 -78 -14l-28 -7l-70 7q-45 1 -99 14q-44 5 -91 21q-34 14 -64 42q-34 17 -70 42l-28 22l-7 -29l14 -14l14 -42l-49 -14q-20 -19 -50 -35l-105 7l-35 77l7 21l-7 50v14h-7 l7 7q15 36 42 70q-36 15 -49 56l7 71l-7 21q5 42 28 84q-12 28 -14 57l-28 98l7 78l28 35l-21 14l-14 91q1 42 21 85q14 20 21 49l-21 14l-21 -7l-7 7l7 78l-14 175l14 71q0 31 -14 63l14 99zM201 1566l7 -14l22 14q-2 10 -15 14zM152 1559l-14 -21q14 7 14 21zM215 1299 l-14 -92l21 -7v78l8 21h-15zM933 1179q14 -14 36 -14zM215 1158l-7 -42l14 28v14h-7zM1011 1123q6 -10 21 -14q-6 10 -21 14zM694 1116l-113 -14l-84 -28l-77 -43l-64 -49l-49 -70l7 -71l-14 -28q-16 -20 -21 -35l28 -77q10 -49 14 -106q17 -28 21 -70q34 -18 56 -50 q-19 -15 -35 -42l14 -21q29 20 71 21l70 -42l42 7l14 -7l14 -35q38 9 78 28q13 -27 35 -49q41 18 92 28q39 3 63 42l77 42q4 33 21 64l50 70l28 92l56 42q-31 21 -42 63q-19 33 -28 77q14 6 14 22l-14 42l-49 63q-23 27 -57 49q-30 17 -63 43l-70 28zM258 940q6 -23 28 -35 q-8 20 -28 35zM1173 813q6 -14 21 -21q-5 15 -21 21zM244 778l-7 -21l14 -7l7 28h-14zM1159 560l14 -14l7 21l-14 7zM1025 532q8 -24 28 -42zM307 525l-14 -35l14 -29l21 50zM230 363l-8 -35l22 -14zM307 363q3 -16 14 -28q-3 16 -14 28zM405 293l-7 -22h15l7 22h-15z M384 271v-14l14 7zM208 243q7 -10 22 -14q-6 10 -22 14zM673 229q1 -9 14 -14q-2 7 -14 14zM201 187q2 -9 14 -14q-2 7 -14 14z" />
<glyph unicode="c" horiz-adv-x="1239" d="M630 1361l100 -14q50 -8 114 -29q37 -26 85 -50q44 -10 50 -57q-23 -10 -43 -28l50 7q40 -9 78 -36q3 -36 36 -56l57 -86q-4 -52 -64 -57l-50 -21l57 7q40 -3 78 -14l-14 -22l-36 -28l-71 7l-78 -7l-22 36l-21 85q-47 9 -78 50q-42 17 -43 64l-78 -14l-29 7l-163 14 l-29 -14l-78 -57q-38 -26 -71 -64q-30 -39 -57 -86l-7 -128l-22 -28l43 -157l50 -85l64 -79l64 8q14 -16 36 -29l106 -7l29 -14l164 50l56 85q31 38 57 85q7 48 43 86q44 0 93 -22l78 29q24 -46 35 -107q-25 -45 -42 -99q-11 -46 -50 -86l-135 -149l-185 -86l-50 -7l-21 7 h-22l-21 -14q-40 17 -50 64q-30 -41 -85 -43l-193 79l-85 64l-71 71q-34 28 -57 78q-20 37 -36 86l-42 99l-7 64l28 29q-24 36 -35 85q22 35 35 78q17 42 29 93q19 44 49 92q26 31 43 79q38 26 78 64q35 29 79 50l149 71q19 -2 43 -14l35 -15zM353 1219q-16 -17 -29 -43 l21 7q20 13 36 36h-28zM267 1183q-20 -26 -50 -50q1 -20 22 -28q23 32 28 78zM210 1098l-7 -65l14 50zM943 1026q-1 10 -14 15q3 -8 14 -15zM281 1005l-14 -43l29 29q-2 9 -15 14zM296 984l-7 -22l14 7v15h-7zM139 799h14v14h-7zM160 706l15 -7v21h-7zM1128 642q2 -9 15 -14 q-2 9 -15 14zM1029 628q1 -17 14 -29l7 29h-21zM281 542v-14h8v14h-8zM1107 521v14h-7zM1064 486q15 -14 36 -15zM915 450l-14 -29l28 -7q-2 18 -14 36zM986 379q6 -19 21 -36q-5 20 -21 36zM296 315q7 -16 28 -29q-9 15 -28 29zM374 308q5 -15 21 -22q-6 13 -21 22z" />
<glyph unicode="d" horiz-adv-x="1265" d="M1029 1692l77 -7q36 -3 77 -14l21 -42l-14 -28l7 -70l-7 -21l7 -63l-7 -21l-21 -21l21 -43l7 -84l-7 -77l7 -63l-7 -21l14 -77q2 -37 14 -77q-12 -37 -21 -84l14 -21l-14 -64q3 -29 14 -63l-14 -21l14 -56v-91l14 -91q0 -42 -7 -91l7 -49l-7 -14v-21l7 -63l-14 -22 l-77 -21l-56 7l-63 -21l-29 120l-56 -42l-231 -92l-77 -7l-56 21q6 17 21 35l-14 15l-28 -22q-29 -18 -70 -21q-35 16 -78 28q-33 16 -77 29l-154 161l-49 63q-10 26 -28 56l-28 84q-4 32 -21 70v105l7 85l21 84q13 38 35 77l77 133l112 98q31 20 63 49l71 21q37 7 84 7 l77 14l91 -14q41 -1 84 -14l161 -49q14 -28 42 -49q13 31 14 70l-7 56l7 21q-2 47 -14 99l14 91l-7 42l7 35zM1029 1594q5 -14 21 -14q-6 10 -21 14zM1029 1355l-7 -28l21 14q-2 10 -14 14zM1134 1306l-7 -28q0 -33 14 -70l7 77zM587 1285q-2 10 -14 14q3 -7 14 -14z M468 1292q4 -19 21 -35q-2 23 -21 35zM748 1257q2 -9 14 -14q-1 10 -14 14zM832 1243h14v14h-7zM1029 1243q5 -12 21 -14zM594 1236v-42l21 35zM909 1201l-7 -21l21 -7q-2 16 -14 28zM594 1159l-7 -28l-70 7l-70 -28q-35 -11 -64 -35l-84 -210q-12 -35 -14 -78l7 -35 l-14 -21q2 -7 14 -14l7 -98l77 -133l148 -63q38 -13 77 -14l49 -21l21 14l84 14l63 42l49 56q29 14 49 42l35 77q17 29 21 63l7 84q-8 37 -28 78q-13 33 -14 77l28 21l-14 42q-3 20 -28 28l14 -42l-28 -7l-14 7l-35 56q-29 20 -56 49q-29 12 -63 14q-37 10 -77 28zM180 1082 l-7 -28l21 7zM299 991v14h-7zM96 935q2 -9 14 -14q-2 7 -14 14zM236 900h14v14h-7zM180 823l-7 -21h14l7 21h-14zM1022 802v-29l28 14zM1162 745v14h-7zM222 752l-7 -21h14v21h-7zM1155 731v-21h7v21h-7zM1092 647l7 -14l28 7zM117 626q-2 9 -14 14q3 -7 14 -14zM236 605 l-35 -14l21 -21h28zM138 549q7 -16 28 -28q-8 16 -28 28zM923 521h14l-7 14zM951 528q-11 -16 -14 -42q14 18 14 42zM944 472l14 -7l-7 21zM1155 423l-21 -21l35 -14q-1 19 -14 35zM405 360v14h-8zM1064 374q2 -9 14 -14q-3 7 -14 14zM292 353q-1 9 -14 14q3 -7 14 -14z M552 346l-7 -21l14 -7l7 28h-14zM1148 339q3 -14 14 -21q-3 14 -14 21zM1085 276q4 -15 21 -21zM643 219v-14l14 7zM986 227l7 -22l-7 -14l-14 -7z" />
<glyph unicode="e" horiz-adv-x="1230" d="M541 1364l56 -7l14 7h21l91 -21l90 -7q31 -21 70 -34l63 -42q31 -20 62 -49l56 -56q22 -32 42 -77l42 -69l14 -63l-14 -21l-35 14l14 -35q39 -5 49 -49l14 -90l-7 -91q-21 -32 -63 -35h-70l-14 35l-14 -28l-62 -21l-98 -14l-167 21l-21 -7l-63 14l-21 -14l-76 -7l-77 7 l-42 21l-28 -21q-44 0 -69 -41l188 -147l160 -35l91 7q36 13 76 35l77 35l63 14l21 -14l76 -84q-1 -29 -14 -62l-132 -91l-70 -28q-37 -15 -83 -28q-41 -13 -91 -21l-91 14q-35 6 -76 21q-35 4 -77 21l-77 35q-36 12 -69 42q-28 27 -63 48l-56 56q-22 26 -42 63l-41 70 l-28 181l7 21l-7 63l7 90l34 84q10 33 28 70l35 76q23 27 56 56l49 63l69 42l147 62q35 6 76 21zM967 1176q-2 9 -14 14q2 -7 14 -14zM430 1162q1 -15 14 -28q0 15 -14 28zM597 1148l-118 -42l-91 -48l-63 -7l21 -35q-21 -51 -55 -105l-7 -70l48 -7l126 28v-14l77 7h20 l42 -21l-35 -41q43 28 98 55l125 14l63 -7l126 14q-17 16 -28 42q-18 49 -63 98q-28 34 -77 69q-23 20 -41 49l-49 -14q-55 8 -119 35zM1029 1092l14 -14l-7 28zM1064 1037q5 -20 21 -35q-6 16 -21 35zM256 1016q6 -13 21 -14zM123 925v14h-7zM130 918q-13 -17 -14 -42 l28 21zM200 876q2 -9 14 -14q-2 10 -14 14zM1022 855q2 -9 14 -14q-1 10 -14 14zM88 800l7 -21l7 21h-14zM486 793v-14l14 7zM660 709q-18 -9 -28 -28q18 7 28 28zM95 639v-14l14 7zM270 549q5 -18 21 -35q-4 19 -21 35zM249 395q2 -9 14 -14q-2 10 -14 14zM667 353 q3 -15 14 -27l7 20zM339 326q1 -15 14 -28q0 15 -14 28zM458 326l-7 -21l21 14zM444 291q6 -10 21 -14z" />
<glyph unicode="f" horiz-adv-x="581" d="M362 1728l89 -7l55 7l14 -7q16 -28 21 -62l-7 -55l7 -75q-32 -20 -69 -28l-62 -7q-29 -9 -55 -34q-28 -16 -55 -41l-20 -55l13 -83l48 -27l90 7q31 -3 68 -14l14 -62l-7 -62l7 -20q-4 -25 -20 -48l-35 -28l-20 14q1 28 13 55l-48 -21l-13 -48l27 -7l-55 -13l-41 6 q-10 -9 -14 -27l-7 -21l7 -61l-14 -49l14 -20l7 -69q-15 -23 -21 -55q16 -30 21 -69l-14 -75q-4 -22 -20 -41q1 -7 13 -14l28 -69l7 -68l-14 -124l7 -21l-28 -48l-27 -14l-13 7h-97l-48 -7l-13 14l-7 -7l-21 28l14 144l-14 69l7 55l-14 41l7 62l21 62q-5 23 -21 41l-7 75 q1 33 14 62l-7 62l-20 76l13 75l-20 138l7 13q3 28 27 55q-18 27 -27 62l6 69l14 41l-20 21l20 75q9 32 28 62q16 30 41 55l48 48l55 34l54 14q34 3 69 14zM369 1673q9 -14 27 -27q-5 17 -27 27zM115 1302l-14 -21l28 14zM259 1254q-16 -17 -27 -41q21 15 27 41zM273 1178 v14h-7zM266 1171l-20 -20l20 14v6zM225 1151l-14 -28l35 21zM191 1117l-28 -42q20 16 28 42zM266 1096q6 -12 21 -21q-5 15 -21 21zM122 1062l-21 -42l21 7l28 35h-28zM108 945l7 -21l7 14zM115 450l14 -7v21h-7zM108 340l14 -34l21 14l20 34h-48zM136 237l-14 -27h41z M266 237l-7 -20h14v20h-7z" />
<glyph unicode="g" horiz-adv-x="1299" d="M736 1366q40 -29 91 -49q51 -9 98 -34l27 -21l14 55q36 14 84 14l104 7l56 -7q-2 -28 -21 -55l-35 34q5 -20 21 -41q21 -45 35 -98l-7 -97l14 -91l-7 -21l7 -111l-49 -35l28 -7q16 -48 21 -111l7 -28l-14 -42l7 -14v-21l-7 -55l7 -21l14 -7l-7 -14q-7 -17 -28 -28l28 -49 l7 -118l-7 -77l7 -21q18 -32 28 -76l-28 -7l-84 -174q-22 -37 -55 -76l-56 -70q-38 -14 -77 -42l-90 -48l-140 -28l-181 21h-76l-21 -7l-7 7q-16 27 -21 69l-49 -7l7 56l-7 14l-7 97l-7 21l49 14l42 -35q49 -14 111 -21l105 14l28 -7l76 14l91 49l63 69q25 43 41 91 q19 46 28 104l-69 -7q-41 -23 -91 -42l-91 -27l-83 -14l-21 14l-112 7q-40 14 -83 41q-52 3 -105 21q-37 21 -76 56q-37 24 -77 63l-49 76q-27 41 -48 91l-35 97l-7 70l7 21l-14 104l21 112l83 187l56 77q37 20 77 56l90 42l70 62l77 -7l27 7l56 7l21 -14l21 7l7 -7 q46 2 90 21zM534 1303q1 -14 14 -27l7 27h-21zM583 1248l-7 -28h14v28h-7zM911 1234q2 -14 14 -21zM1022 1234v-14h7v14h-7zM312 1213q-14 -10 -28 -28q22 6 28 28zM256 1178l14 -21l14 28l-21 7zM360 1164v14h-7zM750 1157q3 -8 14 -14q-1 10 -14 14zM709 1150 q-24 -31 -63 -48q-35 10 -70 34q-26 -25 -62 -41q-32 -9 -63 -28q-32 -10 -56 -35l-49 -56l-62 -139l-21 -84l14 -62l-7 -21l14 -77l48 -48q13 -38 14 -77l70 -7l70 -35q31 -20 69 -35l70 7l77 -21l167 56l97 112l28 76q11 33 14 70l21 83q-18 30 -49 56l-21 84 q-9 32 -28 69q-31 23 -48 63l-63 35q-40 9 -77 34q-9 22 -34 35zM1071 1143q9 -23 28 -41q-9 23 -28 41zM1161 1143l-14 -34l7 -14l14 34v14h-7zM465 1136l-14 -21l28 7q-3 7 -14 14zM158 1046l-7 -21l14 7v14h-7zM1147 907q1 -19 14 -35q-2 17 -14 35zM200 900l-21 -35 q15 13 21 35zM1140 586l-7 -21h14v21h-7zM409 377v-48l14 35q-2 9 -14 13zM952 336l-14 -21l28 14zM486 266l7 -21v21h-7zM688 238l-28 -21l49 -7q-3 16 -21 28zM952 22l-7 -21h14v21h-7zM1057 -68l7 -21v21h-7zM590 -151v14h-7zM757 -137l-7 -42l7 -14v-21h7z" />
<glyph unicode="h" horiz-adv-x="1281" d="M111 1663q56 0 127 -21l70 7l7 -21l-7 -14q-31 -44 -42 -106l35 -15q-5 -25 -21 -49l-7 -99q13 -52 14 -106q42 9 85 28l106 43q52 16 120 28l99 -7l21 7q44 -13 92 -14q47 -20 106 -28l70 -78l22 -14l49 21l-14 -35q20 -41 49 -78q32 -36 64 -85q26 -44 49 -106 q-16 -16 -28 -42l43 -36l14 -120l-14 -106l21 -99l-7 -21l7 -49l-7 -14v-71q-1 -54 -36 -113l-42 -35l42 7l14 -7q-1 -56 -63 -57l-106 -7l-14 7l-28 43l14 70l-14 177l7 70l-7 99l7 36v106l-7 21l-22 99l7 63q-17 6 -35 22q-34 37 -63 91l-106 36q-51 13 -99 42l-64 -21 l-35 21l-177 -120q-39 -20 -49 -56q-24 -41 -35 -99l-36 -22l28 -63l-28 -64l43 -28l-22 -99q-14 -44 -14 -92q33 -39 57 -92q-9 -33 -36 -56l29 -28l7 -57l-14 -56l-36 -43l-42 -7l-14 14l-106 7q-21 -14 -50 -21l-14 42l14 15q0 40 -21 84l-7 57l7 14v113l7 57l-7 14 l-14 268l7 127l-7 128l7 98l-7 22v106l7 21q10 46 57 78q-64 3 -71 63l-7 127q25 45 71 78zM217 1522l-50 -57l-21 -35l21 7l78 71zM111 1458q-2 10 -15 14q3 -7 15 -14zM224 1380l-7 -21h14v21h-7zM760 1303q3 -9 15 -14q-2 9 -15 14zM513 1267l-35 -28l21 -14l28 28 q-1 9 -14 14zM859 1246q6 -15 21 -21q-4 15 -21 21zM909 1218l-7 -21h21l21 21h-35zM160 1140l7 -21v21h-7zM266 1140l14 -28l7 28h-21zM464 1133l-14 -21q13 7 14 21zM111 1055l-7 -42l14 -14zM273 978l-7 -43l14 -14l7 7l7 43zM1121 978l-7 -36l21 22zM1092 872v14h-7z M245 858l7 -22v22h-7zM1121 773l-29 -36q3 -14 15 -21q12 25 14 57zM1078 504q-14 -24 -14 -49q12 22 14 49zM1064 448l-7 -50q15 14 21 36z" />
<glyph unicode="i" horiz-adv-x="352" d="M89 1340q23 -10 56 -14l21 7q38 -12 76 -35q33 -24 35 -70l7 -91l14 -20l-14 -49l-7 -77l14 -84l-14 -56l14 -21l7 -70l-14 -21l-21 -41l28 -21q10 -37 14 -84l-7 -91q7 -40 7 -91l7 -35l-14 -28v-20h7l7 -98q-6 -32 -21 -70l-104 -7q-32 2 -70 14q-41 9 -49 56 q12 24 21 56l-14 21l-7 90l14 98l-21 196l7 104l-14 98q13 24 21 56l-21 14l-14 84l28 84l21 41l-35 14l-14 70l7 21q14 35 42 70zM124 1082l-7 -42l28 28zM173 600l-7 -21l14 7v14h-7zM138 565l-7 -28l28 21zM221 558l-14 -35l28 21q-1 9 -14 14zM124 446q2 -9 14 -14 q-2 9 -14 14zM242 328l7 -14v14h-7z" />
<glyph unicode="j" horiz-adv-x="557" d="M426 1376q24 -15 39 -47q17 -19 25 -47l5 -53l-7 -32l12 -14l-7 -13l-7 -46l12 -20l-14 -39q2 -6 13 -13q-6 -52 -23 -118l25 -53l5 -73l-14 -45l6 -20l5 -66q8 -22 12 -53l-22 -59l13 -13l-23 -144q16 -27 25 -60l11 -73q-13 -15 -14 -39q4 -22 5 -53l-7 -19l-9 -79 l-7 -19q4 -23 5 -53q-29 -51 -49 -117l-40 -45l-28 -52q-44 -29 -94 -76l-113 -50q-21 -6 -40 -19q-36 7 -72 22q-8 35 -10 79l8 59l-12 46l60 51l53 19q22 14 40 38q46 32 75 90l23 137q-10 67 -9 152l8 66l-5 59l8 65l-12 20l20 20l-19 40l-5 46l7 19l-12 60l9 72l-16 152 q7 53 47 64l-45 41l8 59l-11 66l15 65l-12 40l13 13q7 23 27 45l27 -7l66 11h13zM379 1311l-14 -26q13 10 14 26zM298 1248q5 -14 19 -27q-3 16 -19 27zM439 856l5 -99l13 6q-4 45 -18 93zM324 727q2 -8 13 -13q-1 9 -13 13zM323 681l1 13l-7 1zM330 438l6 -20l1 20h-7z M434 383v13h-6zM394 344q1 -15 12 -26zM419 41q4 -14 19 -27q-2 17 -19 27zM138 -149v13l-7 1zM322 -147l-7 -32l19 -1q-1 18 -12 33zM261 -211q-11 -10 -14 -26l27 13q-1 8 -13 13z" />
<glyph unicode="k" horiz-adv-x="1027" d="M149 1685l118 -17l28 -35l-18 -203h7l-10 -119l5 -98l-7 -20l12 -106l-7 -20l11 -113l-8 -62q0 -19 14 -22l336 378l78 62l70 6l21 -8h28l98 12l42 -8q-9 -33 -30 -70l-78 -61l-69 8l-8 -41q13 -24 20 -57l-49 -6q-32 -31 -51 -83q-24 -34 -57 -69l-65 -82l-71 -62 l-22 -27q26 -21 48 -50l69 -72l61 -85l137 -143q31 -34 41 -84q39 -21 75 -58l69 -71l-85 -47l-77 15l-21 -13l-56 -6l-55 29l-329 377q-19 40 -69 43l14 -42l-15 -21q-21 5 -41 22l-15 -21l20 -35l22 21l26 -99l-1 -56l7 -14l-8 -7l-7 -21l14 -7l19 -112q-28 -43 -86 -61 l-97 8l-22 -13l-55 15l-7 28l9 63l-14 42q8 50 10 112l21 34q-15 24 -27 57l-5 63l8 49l-12 119l8 35q-12 14 -7 35l-3 175l8 42l-7 35h-7l8 42l-5 77l7 28l57 41q-39 7 -55 50l-17 224l8 21l-5 105l14 21q46 11 92 33zM112 1567l-8 -21l14 6l1 14zM178 1397v-14l14 7z M86 1336q11 -13 28 -14zM99 1280v-14l14 7zM861 1251v14h-7zM735 1246l-8 -55l6 -15l15 56q-1 10 -13 14zM104 1161q2 -20 13 -42l14 20zM733 1135l6 -22l1 21zM207 1089q4 -20 20 -36q-2 20 -20 36zM780 1071q-2 -13 -14 -21zM471 986l-22 -35q18 12 22 35zM204 949h14 l1 14h-7zM217 886l-15 -35l21 -7l1 35zM278 787q2 -10 14 -15q-2 7 -14 15zM430 707q9 -16 28 -29q-8 16 -28 29zM95 706q6 -14 20 -21zM297 688q5 -13 21 -14zM367 687l-21 -21l13 -14l29 21zM108 650l-1 -14l14 7zM249 367l-15 -69q16 -7 27 -29l14 21l-13 56zM122 328 l-8 -56l14 7l15 41zM260 227q-15 -13 -22 -34q19 10 22 34z" />
<glyph unicode="l" horiz-adv-x="366" d="M176 1739q64 -7 129 -35l-13 -177l13 -20l-7 -21l-13 -20q8 -54 34 -109q-19 -49 -27 -116l13 -102l-7 -20l7 -62l-13 -20h-68q43 -15 61 -55l27 -20l-20 -68l13 -82l-34 -21q29 -49 41 -115l7 -62l-7 -47l7 -21l-27 -20l27 -68l-7 -103l14 -88l-28 -34q-5 -29 -27 -55 l14 21l-14 7l-115 6l-68 14l-14 20l7 109l-14 137l7 116l-7 95l7 20q-13 69 -14 150l-6 143l6 130q0 66 -13 143l7 143l54 68q20 -10 48 -20l-28 27l-20 13q-23 -6 -54 -6l-14 41l14 20l-14 82l20 47q47 21 116 35zM94 1589l-6 -28l6 -13l14 -7l27 7q-16 22 -41 41z M101 1125q4 -15 21 -27q-3 16 -21 27zM210 751q14 -23 41 -41q-12 24 -41 41zM196 444v14h-6zM115 355l7 -20l6 14zM237 342l21 -7l6 20h-13z" />
<glyph unicode="m" horiz-adv-x="2236" d="M568 1341l56 -15l22 15l232 -43l71 -35q34 -7 63 -28l78 -28q17 -26 28 -64q11 -13 28 -14l56 49l71 36q32 19 70 28l78 35l70 14l57 21l21 -14l56 7l21 -7l177 -14q33 -19 77 -28l57 -42q24 -25 42 -64q34 -10 70 -35l43 -63l49 -134l14 -64l-7 -21l-42 -28h28l7 -56 l-28 -36q30 -19 56 -49v-92l7 -42l-14 -14l7 -14l-7 -85l-14 -49l21 -21l-7 -85l-21 -42q-15 6 -28 21l7 43l-21 -29l-7 -63l21 -14l-7 -42l-50 7l-21 14l-56 -14q-33 13 -64 42l22 56l-22 71l7 98l-7 36l7 7v28h-7l7 7l-7 169l7 21l-14 92q-5 33 -21 70l-21 85 q-22 24 -42 56q-33 17 -64 42q-19 22 -49 43l-77 21l-64 -7l-21 14q-30 -5 -63 -21q-35 -16 -78 -21l-35 21l-14 -35l-92 -113l-35 -71q-24 -15 -43 -42q14 -28 22 -70l-7 -43l7 -14l-7 -14l7 -7l7 -21l-14 -14l7 -42l-7 -57l7 -21l14 -77l-7 -78q5 -24 7 -56l-7 -14v-22 l7 -63l-21 -14l-78 -14q-28 -11 -63 -14q-38 2 -78 14q-15 35 -21 77l-7 21l7 50v120l-7 63l14 21v92l-7 56l7 21l-7 57l7 21l-14 56l7 21l-28 78l-43 63l-56 50q-23 22 -56 42l-85 21l-84 7q-33 -6 -64 -21q-31 12 -70 21l-50 -56q-33 -17 -63 -43l-50 -49l-42 -63l-14 -78 l7 -92l-7 -56l7 -21l7 -141l-7 -14l7 -7l-14 -85l14 -42l-21 -14q17 -38 28 -85l-7 -49l7 -21v-21l-84 -21l-64 14l-21 -7q-32 16 -56 49q20 17 21 42l-21 14l-7 29l14 28q8 28 42 28q-8 32 -35 42l-14 71l-14 183q12 38 21 84l-28 78l14 141l-14 21l14 92l-21 70l-7 64 l7 21q0 33 14 70l77 28l78 -14l42 7q-1 -23 -14 -49l42 -49l57 49zM646 1277l14 -7l7 14l-14 7zM1534 1263q5 -15 21 -28q0 19 -21 28zM1809 1228l-7 -28l14 7v21h-7zM1280 1200q2 -35 14 -71l14 57q-10 10 -28 14zM1935 1136v14h-7zM780 1143q0 -14 14 -21zM1766 1129 l-14 -28l50 -14zM2020 1059v14h-7zM1061 1009v14h-7zM2091 946v14h-8zM103 946l-7 -21l14 -7l14 28h-21zM1005 925l7 -7l14 7v14h-7zM1942 911l-7 -21h15v21h-8zM1054 861q-4 -25 -28 -49q12 -32 14 -70l14 42q6 24 7 56v21h-7zM131 720v15h-7zM96 720l21 -14q-6 11 -21 14z M2105 509l14 -7v21h-7zM2126 368l7 -21l7 21h-14zM1985 291q2 -10 14 -14q-2 9 -14 14zM1174 234v-14l14 7zM223 227l28 -21q-9 16 -28 21z" />
<glyph unicode="n" horiz-adv-x="1302" d="M198 1330q46 -9 93 -36l-7 -100l65 50l180 65l72 14l21 -7l101 7q44 -3 93 -14l87 -36q38 -17 79 -43l122 -115q21 -33 29 -79q43 -13 57 -65l36 -87q14 -38 15 -86l21 -93q-7 -51 -7 -116l7 -28l-21 -180l-15 -29l15 -65l-7 -100q-35 -27 -80 -44l-115 8q-42 10 -50 57 l14 180l-7 29l7 101l8 14l-15 36q9 86 22 129q-14 43 -22 94l-29 86q-16 35 -43 72q-18 39 -50 72q-35 24 -72 58l-173 14l-100 -22l-87 -35l-57 -65l-58 -187l-21 -187l21 -187l-7 -29l7 -79l15 -58l-15 -21q-19 -29 -57 -51q-38 -15 -87 -21l-100 21l-15 72l7 29l-14 93 l7 72l-7 22l-7 79l7 29l-14 180l7 79l-14 50l7 51v21l-7 79l7 29l-7 58l7 50l-7 65l7 21q18 33 50 58zM90 1280v-36l21 29zM723 1280q-22 -9 -36 -29l43 15l7 -29l36 29zM579 1273l-7 -29l14 -14l29 36zM824 1259q10 -19 28 -36q-8 21 -28 36zM97 1208l-7 -21l14 -15l7 29z M97 1143q1 -15 14 -28l8 28h-22zM234 1107l-15 -36l22 8l7 28h-14zM924 1100q-13 -17 -14 -36q13 16 14 36zM406 1064v15h-7zM270 956q-13 -31 -36 -64l-15 -44l22 -7l29 58l14 50zM1147 949q-15 -40 -21 -79l36 22zM104 913l15 -43l14 36zM1183 834l-7 -36h14v7zM234 812 l-22 -28q17 9 22 28zM1183 611q-28 -28 -36 -65l51 29q-1 20 -15 36zM1054 525v-15l14 8zM133 518l-14 -65l21 14l29 43zM126 424q2 -9 14 -14q-1 9 -14 14zM1090 424q-16 -14 -29 -36q24 10 29 36zM126 352q3 -14 14 -21q-2 14 -14 21zM1169 316l-7 -43l21 29q-2 7 -14 14z M1047 302l-8 -29l36 29h-28zM234 237v14h-7zM205 230l-22 -22q22 5 22 22z" />
<glyph unicode="o" horiz-adv-x="1238" d="M643 1353l103 -20l14 14q36 -23 68 -69q22 11 48 14l27 -34l-13 -21q28 1 55 14l27 -35q20 -39 55 -68q50 -32 75 -89q41 -42 69 -96l13 -110l-13 -7v-13h7l20 -96l-7 -14l-27 -123q-14 -54 -48 -117l-62 -102q-33 -39 -82 -76q-38 -42 -96 -68l-110 -55l-137 -21h-68 l-21 -7l-157 62q-51 20 -103 62q-46 27 -89 75q-36 40 -69 89q-28 47 -48 117q-22 47 -27 109l-7 21l7 62l-7 54q5 69 41 131q4 45 28 102q20 48 61 103l89 75q46 34 110 55l55 35l27 -42q25 41 76 62q53 6 116 27zM855 1237q7 -23 21 -48l7 41zM616 1155q-31 -26 -76 -48 l-55 -7l-6 34q-28 -20 -42 -55l-68 -48q-26 -13 -41 -41l20 -54l-34 -14l-41 -7l-14 7q3 -16 14 -28l21 -13l-14 -48q-5 -36 -21 -76l-13 -61q32 -17 34 -55l27 -69l48 -75l55 -62l55 -27l68 -21l83 -6l6 -28l138 48l137 89l41 76l54 54q-15 37 -20 83l7 96q-6 45 -21 95 q-15 39 -27 90q-34 11 -69 34l-55 61l-20 35l-34 -21l-83 21zM992 1141l7 -55l14 41zM869 1114q3 -16 14 -28q-1 15 -14 28zM273 970l7 -21v21h-7zM1157 846q1 -19 14 -41q-2 21 -14 41zM1047 805l-7 -61q5 -29 21 -55l-7 75l7 21q-2 14 -14 20zM1150 730l14 -21 q-3 14 -14 21zM287 477v-28l27 14zM184 435v14h-7zM390 394q6 -32 34 -61zM232 381q1 -10 14 -14q-3 7 -14 14zM622 346v-13l14 6zM910 326v-14h7l28 7zM725 285l7 -35l14 14l-14 34zM855 298q6 -14 21 -20q-6 12 -21 20z" />
<glyph unicode="p" horiz-adv-x="1324" d="M602 1346l135 -21l14 7h21l150 -36l78 -28l128 -86l43 -56l71 -143l42 -135l-14 -21l7 -50l-7 -14v-21l-14 -78l14 -22q-10 -24 -14 -56l-29 -71q-17 -34 -28 -79l-100 -120l-56 -43q-27 -23 -64 -43l-150 -64q-41 3 -85 15l-71 -36q-38 13 -85 21l-157 36l-64 43l-42 14 l-7 -22l7 -7q-1 -46 -15 -99l-14 -36l7 -14l15 -14l7 -71l-7 -21l14 -21l-22 -50l8 -71q-35 -17 -79 -29l-57 -7l-21 7q-37 11 -78 29q10 23 28 43l-21 14l-14 85l-7 191l14 64l-7 22l7 85l-7 85l-7 21l21 128l-14 15q-5 33 -21 71l7 78l-15 21l15 50l-7 57l7 21l-7 64v21 h-8l8 64l-8 57l8 21q-10 43 -15 93q1 38 22 71q12 29 42 50l50 -8l14 8l22 7l99 7q15 -37 21 -78l22 -15l42 29l157 57l42 -7l15 7zM844 1268l42 -36q-17 25 -42 36zM332 1175q3 -16 14 -28l7 28h-21zM1014 1175q26 -47 85 -71zM218 1126v14h-7zM623 1111l-85 -14 q-30 -25 -71 -42l-50 -57q-28 -21 -57 -57l-35 -78q-23 -33 -64 -50q-33 -15 -64 -43l-15 -49l22 7q26 15 50 42q23 -4 42 -21l22 -85l35 -71l7 -71q25 -25 50 -57l235 -100l85 22l85 7l78 35l107 121l28 78l15 93q-1 41 -8 92l-28 85l-43 64q-22 28 -56 57q-17 33 -50 43 l-50 42l-57 -7l-14 7l-21 7l-57 -7l-14 7h-22zM1050 983l-7 -21l14 7v14h-7zM1199 877l-7 -29l21 15q-2 7 -14 14zM1185 848l-14 -35q14 15 14 35zM168 834l-21 -42q18 16 21 42zM1192 728q2 -25 28 -36zM211 642l-21 -49q16 22 21 49zM1156 621l-14 -64l14 7l22 43 q-6 10 -22 14zM140 529v-14l14 7zM1021 493l-14 -28q13 12 14 28zM318 486q19 -28 49 -50q-17 30 -49 50zM154 415v-14l14 7zM524 237q14 -12 35 -14zM239 31l-14 -42q14 16 14 42zM118 -96l-7 -21h15v21h-8zM239 -96q-20 -26 -49 -50h28l43 7q-3 23 -22 43z" />
<glyph unicode="q" horiz-adv-x="1236" d="M1072 1334l89 -19q17 -22 25 -56l-11 -69l18 -42l-15 -27l18 -49l-22 -13l13 -21l-23 -34l18 -56l-19 -82l11 -62q4 -38 2 -83l-15 -20l18 -43l3 -69l-8 -20l13 -139l-8 -20l4 -49l-7 -13l-15 -13l4 -56q-15 -25 -17 -54q14 -31 17 -70q0 -42 8 -90q-11 -35 -18 -82 q8 -33 10 -76l-77 -10l-20 9l-56 -11q-36 9 -74 32q-22 23 -31 57l4 75h-7l22 27q-7 24 -11 55l-2 77q-26 -5 -50 -18l-154 -40l-55 -4l-20 15l-83 -2l-54 17l-15 -13q-34 12 -67 38l-53 31q-36 12 -67 38l-53 44q-21 28 -59 45l-46 58l-23 70q-18 31 -45 58l-4 63l-23 77 l-2 90l10 54l-5 21l17 68l56 135l89 113l58 38q29 17 57 45l142 54l152 12l20 -15l62 4l21 -8q34 -5 67 -25l63 4l20 -8q25 -22 60 -38l28 12l-18 36q14 27 44 45l89 -5v7zM1049 1287q1 -9 13 -14q-1 9 -13 14zM805 1239l-23 -27q19 9 23 27zM708 1237l-15 -26q13 10 15 26z M865 1208l-15 -20q13 7 15 20zM932 1163q1 -9 13 -15q-2 7 -13 15zM319 1190l-23 -33q20 11 23 33zM309 1136l-1 -14l7 -1v14zM384 1131q14 -24 40 -36zM686 1120q-29 -15 -68 -26l-82 -3l-51 18l-15 -7l-55 -41l-47 -57l-34 -65l-62 -190l21 -16l4 -60l-9 -22q9 -31 26 -68 l83 -109q31 -14 57 -40l51 -18l23 6l58 -33l23 14l51 -18q36 6 68 26l68 19l69 33l47 42l33 72l11 52l23 13l-20 39l10 51l-7 15l-13 157q-16 27 -42 54q-14 31 -41 55l-42 54l-65 34zM1137 1006l1 14h-7zM304 1060l-8 -27l6 -8q20 11 37 33zM151 1027q7 -11 19 -15z M197 990q2 -20 26 -29q-6 16 -26 29zM158 909l26 -22q-8 16 -26 22zM114 739v14h-6zM195 707q-26 -40 -33 -95l44 46q-1 25 -11 49zM117 670l13 -1l1 14h-7zM1114 600l-18 -75l33 -23l8 21l-11 49l8 20zM929 500l-9 -34l14 6zM312 465l20 -14q-5 10 -20 14zM806 396 q-13 -9 -16 -26l35 11q-5 11 -19 15zM227 415l47 -23q-19 14 -47 23zM884 316l-64 -38q-18 -13 -23 -33l57 38q20 11 30 33zM421 314q21 -12 48 -16zM1103 41l14 -1l1 14l-7 1z" />
<glyph unicode="r" horiz-adv-x="708" d="M179 1349l102 -32l29 -23q-10 -23 -17 -58q40 1 82 19l96 42q50 16 126 25q50 -19 71 -75l-24 -73l14 -22q-17 -37 -46 -73q-53 -2 -111 -18q-48 -18 -96 -49l-76 -71q-31 -43 -40 -102l4 -125l-10 -102l14 -23l-11 -124l-8 -29q3 -33 12 -74l-16 -59l5 -66l28 -52 l-38 -36l-29 9l-74 -13l-14 8l-80 17l-21 37l17 80q18 17 30 44q-20 0 -36 15l-11 125l10 74l-7 22l-1 213l37 21l-43 23l9 59l-13 73l16 29l-19 126l4 124q6 48 32 95zM104 1285q2 -10 14 -15q-2 7 -14 15zM491 1208v15h-7zM165 1107v15h-7zM143 1108q-13 -18 -16 -44 l30 36zM222 1047l7 -23v22zM288 1037l-1 -14l15 7zM100 646q30 -42 86 -76q-37 40 -86 76zM117 213q11 -13 29 -16z" />
<glyph unicode="s" horiz-adv-x="907" d="M387 1350l112 -7q46 -2 97 -14l83 -41q27 -29 63 -56l55 -153v-21h7l-7 -48l-27 -14l-91 -14q-32 -20 -76 -21q-20 31 -49 56l-21 83q-30 28 -76 42l-83 -35l-35 -84l-28 -48l21 7l7 -7l69 -49l153 -49l77 -41l41 -7l70 -42l48 -70l42 -83l14 -49l-7 -14l-14 -20l-35 14 v-49h7l28 21q19 -14 35 -35l-14 -84l-35 -83q-23 -33 -55 -63q-26 -32 -63 -62l-69 -49l-188 -14l-21 7l-83 7l-84 28l-76 42l-63 62l-48 70l-21 97l7 28l-14 70l14 27l83 -7l91 -20q46 -15 55 -70q10 -42 56 -63l69 -55q44 -1 84 -14l83 42l56 55l7 56l-14 49 q-27 28 -70 48l-90 63l-63 -7q-32 25 -76 49l-70 48q-35 23 -69 56q-26 9 -49 35l-48 153l14 20q-2 40 -21 42l27 98q24 32 56 62q15 34 42 70l97 21zM700 1239q16 -15 42 -28q-16 17 -42 28zM221 1218v-14l14 7zM547 1204l-7 -35l7 -6l21 27zM137 1037q3 -13 14 -20l7 20 h-21zM617 808q3 -16 21 -28q-3 18 -21 28zM714 731q13 -48 56 -83q-20 42 -56 83zM519 683l21 -7v21h-7zM756 356l7 -21l7 21h-14zM561 335l14 -21q-2 14 -14 21z" />
<glyph unicode="t" horiz-adv-x="706" d="M363 1599l82 -70q11 -47 18 -112l5 -84l39 -7l97 7l6 -35l45 -14l-1 -63h7l-7 -21l12 -67l-14 -21q-49 0 -110 -14l-58 7l-20 -63l10 -199l-7 -21l-1 -49l6 -21l5 -119h7l-7 -7l5 -112q-1 -41 -8 -91l13 -21l-9 -126l6 -70l-33 -35q-47 -4 -104 -28q-54 7 -109 42l-19 28 q15 28 20 63l-11 112l13 21l-5 105l8 70l-13 21l7 21l-6 63l8 70l-9 290q-4 24 -5 56l-117 -14l-19 7l-38 28q-12 25 -12 95q2 61 47 112q42 6 104 7l19 -7l13 21l-5 112l41 98zM277 1487l-7 -21l13 7v14h-6zM338 1284l-7 -56l13 7l14 42zM565 1284q8 -26 25 -49 q-3 29 -25 49zM286 1270v-14l13 7zM215 1256l-7 -21h13l1 21h-7zM297 717l-7 -35l26 7q-2 16 -19 28zM299 423l-6 -21h19q-2 14 -13 21z" />
<glyph unicode="u" horiz-adv-x="1279" d="M1199 1326q22 -24 33 -58l-18 -90q16 -37 25 -85l-9 -70l-1 -21h7l-10 -91l4 -71l-7 -20l7 -197l-8 -21l11 -288l-8 -21l5 -56q-21 -38 -59 -68l-55 9l-22 -13l-21 7q-49 8 -104 25l-6 43l-135 -59l-84 -4q-45 -19 -99 -24l-22 -7l-55 9q-45 14 -90 39l-98 24l-89 39 l-69 51q-31 27 -61 65l-39 86l-46 72q-8 47 -25 99l-11 71l8 27l-7 204l11 105l-3 105l20 175l91 4l49 -9l21 6l21 -1q32 -19 62 -51l6 -28l-17 -77l-59 -61q17 -14 41 -29l14 -22l-9 -63l-16 -94l-10 -77l34 -248q18 -41 46 -78q29 -26 69 -52l82 -45q37 -14 84 -24 q46 4 99 24l27 -15q54 -7 80 12l72 46l65 61l45 76l18 111l-6 22l16 48l-7 21l10 77l-6 29l-22 307l8 20l-7 15l8 6q19 33 51 55l105 3q35 11 65 40zM103 1281q1 -12 13 -22l22 20zM242 1262l-58 -68q-26 -24 -37 -55q30 26 58 61q24 25 37 62zM1026 1220l14 -15l-6 28z M1119 669l-8 -42l15 28v14h-7zM160 535q1 -15 13 -29zM1155 485q2 -14 13 -21q-2 14 -13 21zM577 232q16 -19 41 -29z" />
<glyph unicode="v" horiz-adv-x="1225" d="M265 1337q28 -26 56 -63l28 -77l43 -63q14 -37 21 -85l14 -77l49 -56l35 -77q10 -37 28 -77l49 -71l21 -70q10 -39 28 -77l36 77l21 70l35 71q4 38 21 77l21 91q9 33 28 70q5 33 21 71q6 32 21 70l21 91q20 33 35 77l169 14l21 -7l77 -14l21 -28l-49 -21l14 -63l-35 -126 l-70 -134q-4 -33 -21 -63q-23 -21 -35 -56q-21 -15 -50 -21q-6 14 -21 21l-35 -21l35 -14q23 -30 35 -71l-21 -77q-18 -32 -49 -63l-14 -84l-70 -246q-11 -38 -35 -78l-63 15l-21 -7l-162 -8v-7l-21 15l-63 147q-15 34 -21 77q16 13 21 35l-21 -21l-43 71q-6 33 -21 70 l-168 379l-28 84l-35 71q-17 38 -29 84l-35 77q-13 33 -14 70l21 14q19 -12 43 -14l91 7q34 4 70 21zM293 1162q3 -14 14 -21zM1031 1042l-7 -21l14 7v14h-7zM251 1035q2 -9 14 -14q-2 7 -14 14zM230 909q4 -20 21 -35q-3 19 -21 35zM377 846q7 -10 22 -14zM757 762l-7 -57 l21 7l-7 28q7 3 14 14zM904 740l-14 -35l21 7l7 28h-14zM736 656l-21 -28q19 9 21 28zM722 509v14h-7zM483 340q6 -14 21 -21q-5 15 -21 21zM511 305l-7 -21q7 3 14 14zM651 242q6 -19 29 -28q-7 15 -29 28zM715 200q-2 9 -14 14q2 -7 14 -14z" />
<glyph unicode="w" horiz-adv-x="2119" d="M1117 1343l90 -13l20 -76q18 -32 28 -75q16 -26 48 -42l20 -20l-20 -41q4 -35 20 -76l69 -124q12 -32 14 -75q10 -34 34 -62l27 -68q1 -31 14 -62q18 -23 48 -41q8 32 28 68l7 55l-7 21l48 55l34 61l96 282l35 62q8 34 27 68q9 32 27 69q30 -1 55 -21l14 35l21 14l62 -7 l75 7q17 -15 28 -42l-28 -7q-24 -4 -41 -20q29 -11 48 -41l-21 -62q-21 -30 -55 -48q-19 -10 -20 -28q17 -26 27 -61l-116 -268q-11 -34 -35 -69l-20 -75l-21 -42q2 -9 14 -13l-21 -28q-8 -21 -20 -34q-6 -35 -21 -76l-21 -61q-11 -24 -20 -55q-6 -32 -21 -69 q-13 -33 -41 -62l-76 -7l-54 7l-14 -7h-21l-34 -7l-14 7h-14q-34 9 -48 48l-123 261q-8 33 -28 69l-82 213q-9 33 -28 68l-13 62l-28 69l-27 20l-34 -48q11 -16 13 -41l-55 -137q-22 -27 -34 -62l-21 -75q-22 -26 -34 -62l-41 -158q-19 -27 -34 -62l-14 -69l-28 -68 q-20 -14 -48 -21l-20 14l-48 -28l-90 -13l-68 27q-19 29 -28 62l-34 62q-10 32 -34 62q-2 32 -14 68q-15 33 -28 76l-68 123l-76 213l-34 62q-5 36 -28 69l-34 61l7 55l-75 213q2 13 13 21l55 -7l76 7l68 -7l55 7l21 -21l20 -62l7 -55l-7 -13l35 -62q12 -30 34 -62 q16 -32 28 -75l61 -131q-1 -35 -20 -68l-35 20l7 -27q21 -17 48 -21q23 -13 42 -41l27 -76q2 -31 14 -61l55 137q13 36 20 82q19 27 35 62l34 62q11 33 14 68l41 55q8 38 27 76l21 69l27 55q10 36 28 75q27 13 62 21l20 -7l62 7q42 3 82 13zM115 1240l7 -6l14 6v14h-7z M980 1220l14 -28l7 28l-14 -7zM314 1131q3 -14 14 -21zM1213 1117q0 -24 21 -41q-6 21 -21 41zM1811 1082v14h-7zM369 1034l7 -27l7 14zM795 931l7 -20v20h-7zM808 890q-1 9 -13 14q2 -7 13 -14zM266 856q-1 9 -14 14q3 -7 14 -14zM294 787l13 -82l14 -14zM850 671 q2 -21 13 -42v35zM1426 636l-20 -34l34 -34q-3 32 -14 68zM788 540q4 -22 20 -41q0 28 -20 41zM520 513v13h-7zM932 533l14 -20q-10 6 -14 20zM1310 526l-7 -20l13 7v13h-6zM1584 519l28 -54q-7 28 -28 54zM1715 506v13h-7zM1138 485q-8 1 -14 14zM699 382l13 -20 q-2 13 -13 20zM726 341v14h-7zM1488 252v-35l21 14zM664 231q4 -15 21 -27q-3 15 -21 27z" />
<glyph unicode="x" horiz-adv-x="1101" d="M976 1359l57 -49q-19 -42 -50 -85l-70 -63l-42 -85l-64 -77l-105 -162l-29 -57l289 -394l43 -85q30 -37 56 -84q-36 -22 -92 -29q-50 -2 -105 -14q-36 20 -71 50q-13 24 -35 49l-162 233l-64 70l-112 -155l-21 -63l-50 -78q-21 -39 -56 -77l-92 -43q-45 12 -98 14 q-44 7 -63 50l42 77q2 18 14 35l-7 -35l21 14q20 38 56 78q20 41 49 84q-1 19 0 78l7 -42l50 91l56 71l49 84l22 28l-141 198l-50 91l-56 57q-10 28 -28 56q-10 43 -35 85l-15 28l155 28h92l21 -7l43 -42q-15 -9 -29 -28l57 -43q15 -41 42 -77l77 -134q16 6 36 21l211 296z M828 1275v14h-7zM370 944v-15l15 7zM427 725l-7 -21l14 7v14h-7zM702 648l-7 -36q6 -13 21 -14zM237 584q8 -1 14 -14q-9 1 -14 14zM709 514l28 7l-14 7zM328 450l7 -21v21h-7z" />
<glyph unicode="y" horiz-adv-x="1264" d="M1080 1359l106 -7q37 -45 38 -107l-45 -98l-23 -91q-19 -49 -46 -99l-45 -76l-16 -114q-31 -34 -53 -84l-197 -486q-19 -48 -46 -98l-30 -91q-23 -39 -23 -84q-21 -36 -23 -83l-30 -114l-53 -91l-213 -38l-15 15l-15 23l60 167l23 114l84 197l-38 30l22 46l-75 197 q-23 40 -38 91l-92 175q-17 46 -45 91l-31 99l-22 46q-20 36 -31 75q-17 38 -30 84l-23 68l-46 69q-17 39 -29 91q14 56 75 68l30 -7l84 15q55 -1 114 -31l15 -91l228 -569q12 -43 38 -84q7 -43 38 -76q10 50 30 99l69 213l45 91l16 45l53 -30l38 23l-23 45q-22 -19 -53 -30 l-15 45q9 38 30 76l30 92l91 174q50 2 107 15zM913 729l15 -8l7 23h-15zM867 615l-15 -30q7 -14 23 -15l7 38zM480 440v16h-8zM510 364q3 -17 15 -30q0 16 -15 30zM548 -113l8 -38l7 30z" />
<glyph unicode="z" horiz-adv-x="958" d="M202 1346l199 -7l82 7l22 -7l96 -7l192 7q42 -3 59 -44q13 -34 14 -74l15 -81q-11 -36 -37 -74l-19 -56l-66 -44l-22 -67q-24 -28 -45 -66q-32 -19 -59 -52l-44 -59l-37 -74l-52 -59l-58 -103q-23 -21 -36 -52l174 1l14 -7q21 13 52 22l22 -22l22 7l67 -7l81 15 q24 -24 37 -59l-1 -49q10 -38 15 -88q23 -21 29 -52q-35 -6 -74 -22l-88 15l-82 -8l-22 -7l-59 7l-332 -29q-2 7 -15 15l-74 -8l-59 -15l-22 15q-22 29 -44 67v73h-7l7 23l-6 44q12 28 45 68l100 106q22 18 52 22q22 16 44 44l-29 37l36 74l148 177l128 217 q-86 -17 -115 -15l-96 -7l-104 15l-81 -8q-45 5 -88 23q-18 5 -19 44q-11 25 -15 59q10 1 15 15l-22 66q38 19 81 22zM113 1287v-37l30 8q-7 18 -30 29zM807 1287l-14 -22h22v22h-8zM350 1206l-30 -37q22 11 30 37zM230 613l8 -23l-15 -7zM567 575q9 -2 19 -40zM749 376 l-30 -11q27 -12 30 11z" />
<glyph unicode="{" />
<glyph unicode="|" />
<glyph unicode="}" />
<glyph unicode="~" />
<glyph unicode="&#xa1;" horiz-adv-x="602" d="M261 1501l-7 28q11 9 14 21q-2 32 -7 86q29 26 63 19l67 23l46 -37q28 -2 33.5 -22.5t12.5 -86.5l-4 -69q-24 -49 -93 -62l-65 8q-35 46 -60 92zM250 159l-18 36l13 62l-13 15l13 31q27 0 48 -5l18 10l25 21q-25 -8 -43 -15l-48 51l-7 109q12 58 12 108l-5 98l5 109 q1 61 13 113l-7 16l7 72l-7 88l13 103l-6 83l12 15l61 11l104 4l12 6l-12 16q19 -20 24 -42l25 -26l-13 -67l7 -78l-25 -51l25 -15l-7 -16l7 -36l-7 -47q-10 -50 -36 -87l30 -16l-12 -62l18 -52l-24 -15l6 -41l12 -16l-6 -47l6 -15l-12 -77q8 -51 25 -88q-24 -42 -31 -83 l12 -15l6 -16l-12 -15l12 -134q-58 -21 -116 -26q-62 10 -104 26zM329 373l-24 6l-12 -6l-6 -10l6 -21q22 15 36 31zM306 618q-16 -9 -19 -20q16 8 19 20zM422 912q-25 -13 -37 -31q26 13 37 31zM448 1103h12v30zM312 1603l-12 29l-14 -42zM422 1573h26l-12 42l-41 -14z" />
<glyph unicode="&#xa2;" />
<glyph unicode="&#xa3;" />
<glyph unicode="&#xa5;" />
<glyph unicode="&#xa6;" />
<glyph unicode="&#xa7;" />
<glyph unicode="&#xa8;" horiz-adv-x="657" d="M95 1790l119 -21q40 -22 64 -71l13 -48q-16 -49 -6 -78q-21 -12 -49 -14l-92 -21l-21 7q-47 6 -63 49q5 24 7 56q-3 12 -14 21l7 28q0 46 35 92zM464 1755l27 7q-2 10 10 7q32 3 56 8q43 -16 49 -63l7 -21l-20 -92q-2 -28 -13 -49q-30 10 -80 -6l-46 12q-50 24 -72 63 l-10 98q46 36 92 36z" />
<glyph unicode="&#xa9;" />
<glyph unicode="&#xaa;" />
<glyph unicode="&#xab;" />
<glyph unicode="&#xac;" />
<glyph unicode="&#xad;" horiz-adv-x="708" d="M502 807l-40 49l-21 -17zM194 696l-8 -1l-52 -28l-36 38l9 29l-13 74l8 14l17 80l37 21l80 -17q17 -18 44 -30q0 20 15 36l125 11l74 -10l22 7l91 1l-3 -46l20 11l-13 -56q-1 -32 -26 -13q7 -35 39 -56l-21 -47v-35l-65 -2l-124 11l-29 8q-33 -3 -74 -12l-59 16l-43 -3 q-27 28 -58 54q18 -29 43 -55z" />
<glyph unicode="&#xae;" />
<glyph unicode="&#xb0;" />
<glyph unicode="&#xb1;" />
<glyph unicode="&#xb2;" />
<glyph unicode="&#xb3;" />
<glyph unicode="&#xb4;" horiz-adv-x="468" d="M379 1689l-137 -247l-35 5l-63 -1l-19 16q-11 43 -26 81q17 53 20 102l32 100l-6 14l19 47l26 -16q48 15 91 18l76 -5q46 -20 49 -61zM150 1562l35 11l-5 14l-28 -4zM234 1586l29 11l8 13l-21 3l-35 -11z" />
<glyph unicode="&#xb5;" />
<glyph unicode="&#xb6;" />
<glyph unicode="&#xb7;" />
<glyph unicode="&#xb8;" horiz-adv-x="556" d="M287 141q9 0 17 -1l43 -20q6 -36 50 -79l34 -29q31 -9 65 -59l14 -39l7 -37l-8 -58q-6 -21 -17 -41l-23 -41q-21 -12 -37 -29q-26 -8 -46 -12l-38 -29l-12 -4l-8 -4l-33 4l-50 -9l-54 13q-30 4 -69 41l-24 42q-15 22 -21 45l-21 46q4 20 13 37q23 13 73 11q21 -16 33 -33 l17 -54q17 -13 58 -27l45 -4l55 10l27 52q34 36 -6 93q-16 20 -50 49l-50 49q-49 35 -42 101q27 16 58 16z" />
<glyph unicode="&#xb9;" />
<glyph unicode="&#xba;" />
<glyph unicode="&#xbb;" />
<glyph unicode="&#xbc;" />
<glyph unicode="&#xbd;" />
<glyph unicode="&#xbe;" />
<glyph unicode="&#xbf;" horiz-adv-x="1061" d="M634 256q-3 13 -14 20l-7 -20h21zM393 1028q-3 16 -21 28q3 -18 21 -28zM604 1203l-21 7v-21h7zM732 513l2 10l-16 12l-21 -25q17 2 35 3zM328 383q-24 32 -59 60q17 -36 41 -71zM504 909l15 9l20 34l-11 56l-2 48l-104 -16l-3 -48q-44 1 -76 21l-91 14l-27 14l-7 48h7 l21 41q36 27 63 56l83 41q51 12 97 14l49 -1l79 -14l30 -25q27 -36 42 -70q32 -30 56 -62l23 -93q-19 -2 -21 -42l14 -20l-48 -87q-23 -26 -49 -35q-34 -33 -69 -56l-70 -48l-76 -26l-64 -51q-43 -20 -70 -48l-14 -49l7 -56l56 -55l83 -42q24 8 49 11l-25 -29l46 -28l14 60 l82 30q46 21 56 63q-4 80 42 95l83 -1l83 7l14 -27l-14 -70l7 -28l-13 -76l-48 -70l-63 -62l-76 -42l-84 -28l-83 -7l-71 19l-17 -29l-190 66q-37 30 -63 62q-32 30 -55 63l-35 83l-14 84q16 21 21 69l-7 14l14 49l42 83l48 45l58 42l41 7l77 29l81 29l39 24q26 -39 60 -77 q-13 47 -42 88zM578 1392l-119 21q-40 22 -64 71l21 77q-18 20 -28 49q21 12 49 14l92 21l21 -7q47 -6 63 -49q-5 -24 -7 -56q3 -12 14 -21l-7 -28q0 -46 -35 -92z" />
<glyph unicode="&#xc0;" horiz-adv-x="1248" d="M976 1357l90 -7l90 7l34 -7l-14 -42l14 -103l-7 -14v-14l-7 -20l7 -70l7 -20l-7 -62l21 -76l7 -90l-7 -56l7 -20v-76q-6 -32 -21 -69l14 -83l-14 -62q6 -36 7 -83l-7 -69l7 -76l14 -35l-28 -21l-41 -20l-21 13l-83 7q-39 6 -55 49q-14 22 -42 27l-55 -41l-69 -28l-62 7 l-62 -34q-32 -3 -69 -14l-69 21q-35 1 -70 20l-124 49q-20 13 -48 13l-28 28q-27 18 -62 35q-12 32 -35 62l-82 110l-28 63q-2 32 -14 69l-21 138l7 20l7 76q6 41 21 83l21 69l34 63l49 131l34 28q10 -7 14 -21q24 12 41 34l132 56q32 8 69 27l138 14l21 -7q33 -1 69 -14 l55 7l14 -7q13 -20 13 -48l42 -21l-21 55q1 9 14 14l90 -69q27 -4 55 -27q11 23 14 48l-7 62zM1045 1295v13h-7zM1114 1302q4 -19 21 -35q-6 18 -21 35zM479 1288l-14 -21l34 14zM354 1233l-7 -21h14l7 21h-14zM879 1226q2 -9 14 -14q-2 7 -14 14zM962 1212l7 -21v21h-7z M734 1184l7 -55l7 7l21 -7q-12 29 -35 55zM1010 1184l-13 -27l27 6zM679 1177l-7 -20h14v20h-7zM244 1157q6 -14 20 -21q-5 14 -20 21zM603 1122q-12 -31 -35 -55l-20 41l-28 -14q-38 -7 -83 -27q-16 -32 -48 -62l-62 -42l-28 -69l-14 -62q-7 -39 -27 -83q9 -32 27 -69 l21 -55l-14 -21q10 -20 28 -35q13 -28 13 -62q39 -15 70 -48q33 -11 69 -35l83 -7l-7 63l34 -7q17 -33 42 -56l89 -13l76 34q29 20 49 55l-7 21l7 14l34 7q2 -7 14 -14q28 14 48 41q13 34 35 70q18 35 28 82l-14 90q-9 34 -28 69l-34 69l-49 63l-62 48q-21 22 -55 34z M845 1108v-14h7v14h-7zM1128 1094q1 -27 14 -55q-2 28 -14 55zM865 1087q9 -27 35 -48zM306 998l-14 -21q13 7 14 21zM112 908l-6 -21l13 -7zM1017 694l14 -21q-2 14 -14 21zM1156 694l6 -21v21h-6zM1038 673q3 -17 21 -28zM1135 438q2 -21 14 -41l7 27q-14 12 -21 14z M499 383q2 -9 14 -14q-1 9 -14 14zM440 1741q24 76 71 91l76 -2q43 -8 75 3l42 -17l14 -49l-7 -13l21 -103q-1 -24 -3 -47q-2 -21 -6 -42q-20 -36 -7 -79l-21 -14l-61 7l-36 -2l-93 194zM496 1742l35 11l-5 14l-28 -4zM643 1539l29 11l8 13l-21 3l-35 -11z" />
<glyph unicode="&#xc1;" horiz-adv-x="1248" d="M973 1357l90 -7l90 7l34 -7l-14 -42l14 -103l-7 -14v-14l-7 -20l7 -70l7 -20l-7 -62l21 -76l7 -90l-7 -56l7 -20v-76q-6 -32 -21 -69l14 -83l-14 -62q6 -36 7 -83l-7 -69l7 -76l14 -35l-28 -21l-41 -20l-21 13l-83 7q-39 6 -55 49q-14 22 -42 27l-55 -41l-69 -28l-62 7 l-62 -34q-32 -3 -69 -14l-69 21q-35 1 -70 20l-124 49q-20 13 -48 13l-28 28q-27 18 -62 35q-12 32 -35 62l-82 110l-28 63q-2 32 -14 69l-21 138l7 20l7 76q6 41 21 83l21 69l34 63l49 131l34 28q10 -7 14 -21q24 12 41 34l132 56q32 8 69 27l138 14l21 -7q33 -1 69 -14 l55 7l14 -7q13 -20 13 -48l42 -21l-21 55q1 9 14 14l90 -69q27 -4 55 -27q11 23 14 48l-7 62zM1042 1295v13h-7zM1111 1302q4 -19 21 -35q-6 18 -21 35zM476 1288l-14 -21l34 14zM351 1233l-7 -21h14l7 21h-14zM876 1226q2 -9 14 -14q-2 7 -14 14zM959 1212l7 -21v21h-7z M731 1184l7 -55l7 7l21 -7q-12 29 -35 55zM1007 1184l-13 -27l27 6zM676 1177l-7 -20h14v20h-7zM241 1157q6 -14 20 -21q-5 14 -20 21zM600 1122q-12 -31 -35 -55l-20 41l-28 -14q-38 -7 -83 -27q-16 -32 -48 -62l-62 -42l-28 -69l-14 -62q-7 -39 -27 -83q9 -32 27 -69 l21 -55l-14 -21q10 -20 28 -35q13 -28 13 -62q39 -15 70 -48q33 -11 69 -35l83 -7l-7 63l34 -7q17 -33 42 -56l89 -13l76 34q29 20 49 55l-7 21l7 14l34 7q2 -7 14 -14q28 14 48 41q13 34 35 70q18 35 28 82l-14 90q-9 34 -28 69l-34 69l-49 63l-62 48q-21 22 -55 34z M842 1108v-14h7v14h-7zM1125 1094q1 -27 14 -55q-2 28 -14 55zM862 1087q9 -27 35 -48zM303 998l-14 -21q13 7 14 21zM109 908l-6 -21l13 -7zM1014 694l14 -21q-2 14 -14 21zM1153 694l6 -21v21h-6zM1035 673q3 -17 21 -28zM1132 438q2 -21 14 -41l7 27q-14 12 -21 14z M496 383q2 -9 14 -14q-1 9 -14 14zM783 1690l-138 -247l-35 5l-63 -1l-18 16q-11 42 -27 81q17 52 21 101l31 101l-6 14l19 47l26 -16q48 15 92 17l75 -4q46 -20 49 -61zM553 1562l35 11l-5 14l-28 -4zM637 1586l29 11l8 14l-21 2l-35 -11z" />
<glyph unicode="&#xc2;" horiz-adv-x="1248" d="M973 1357l90 -7l90 7l34 -7l-14 -42l14 -103l-7 -14v-14l-7 -20l7 -70l7 -20l-7 -62l21 -76l7 -90l-7 -56l7 -20v-76q-6 -32 -21 -69l14 -83l-14 -62q6 -36 7 -83l-7 -69l7 -76l14 -35l-28 -21l-41 -20l-21 13l-83 7q-39 6 -55 49q-14 22 -42 27l-55 -41l-69 -28l-62 7 l-62 -34q-32 -3 -69 -14l-69 21q-35 1 -70 20l-124 49q-20 13 -48 13l-28 28q-27 18 -62 35q-12 32 -35 62l-82 110l-28 63q-2 32 -14 69l-21 138l7 20l7 76q6 41 21 83l21 69l34 63l49 131l34 28q10 -7 14 -21q24 12 41 34l132 56q32 8 69 27l138 14l21 -7q33 -1 69 -14 l55 7l14 -7q13 -20 13 -48l42 -21l-21 55q1 9 14 14l90 -69q27 -4 55 -27q11 23 14 48l-7 62zM1042 1295v13h-7zM1111 1302q4 -19 21 -35q-6 18 -21 35zM476 1288l-14 -21l34 14zM351 1233l-7 -21h14l7 21h-14zM876 1226q2 -9 14 -14q-2 7 -14 14zM959 1212l7 -21v21h-7z M731 1184l7 -55l7 7l21 -7q-12 29 -35 55zM1007 1184l-13 -27l27 6zM676 1177l-7 -20h14v20h-7zM241 1157q6 -14 20 -21q-5 14 -20 21zM600 1122q-12 -31 -35 -55l-20 41l-28 -14q-38 -7 -83 -27q-16 -32 -48 -62l-62 -42l-28 -69l-14 -62q-7 -39 -27 -83q9 -32 27 -69 l21 -55l-14 -21q10 -20 28 -35q13 -28 13 -62q39 -15 70 -48q33 -11 69 -35l83 -7l-7 63l34 -7q17 -33 42 -56l89 -13l76 34q29 20 49 55l-7 21l7 14l34 7q2 -7 14 -14q28 14 48 41q13 34 35 70q18 35 28 82l-14 90q-9 34 -28 69l-34 69l-49 63l-62 48q-21 22 -55 34z M842 1108v-14h7v14h-7zM1125 1094q1 -27 14 -55q-2 28 -14 55zM862 1087q9 -27 35 -48zM303 998l-14 -21q13 7 14 21zM109 908l-6 -21l13 -7zM1014 694l14 -21q-2 14 -14 21zM1153 694l6 -21v21h-6zM1035 673q3 -17 21 -28zM1132 438q2 -21 14 -41l7 27q-14 12 -21 14z M496 383q2 -9 14 -14q-1 9 -14 14zM502 1450l-6 -6q-11 5 -15 39l-15 -16q4 -12 -2 -10l-11 -1l-7 -3q-8 -1 -14 -5l-7 5q0 11 23 72l11 23l8 26l50 119q5 12 7 22l13 22v5q1 13 6 24l18 46l7 5v-2l26 -1l4 2v-2l35 -2l12 3l2 -4h2l6 -2l20 5q8 -13 12 -25l23 -77l5 -26 q10 -10 23 -44l12 -34l18 -37l23 -42l12 -40l5 -35l-24 -4l-6 -2l-27 2l-3 -2l-53 5q-5 14 -12 24q-12 41 -22 72q-1 18 37 31q-20 2 -45 -8l-15 53l-14 33l-16 -34l-18 -49l-16 -17q-5 -39 -23 -71l-1 -15q-15 -21 -24 -29q-11 5 -22 7h-2z" />
<glyph unicode="&#xc3;" horiz-adv-x="1248" d="M973 1357l90 -7l90 7l34 -7l-14 -42l14 -103l-7 -14v-14l-7 -20l7 -70l7 -20l-7 -62l21 -76l7 -90l-7 -56l7 -20v-76q-6 -32 -21 -69l14 -83l-14 -62q6 -36 7 -83l-7 -69l7 -76l14 -35l-28 -21l-41 -20l-21 13l-83 7q-39 6 -55 49q-14 22 -42 27l-55 -41l-69 -28l-62 7 l-62 -34q-32 -3 -69 -14l-69 21q-35 1 -70 20l-124 49q-20 13 -48 13l-28 28q-27 18 -62 35q-12 32 -35 62l-82 110l-28 63q-2 32 -14 69l-21 138l7 20l7 76q6 41 21 83l21 69l34 63l49 131l34 28q10 -7 14 -21q24 12 41 34l132 56q32 8 69 27l138 14l21 -7q33 -1 69 -14 l55 7l14 -7q13 -20 13 -48l42 -21l-21 55q1 9 14 14l90 -69q27 -4 55 -27q11 23 14 48l-7 62zM1042 1295v13h-7zM1111 1302q4 -19 21 -35q-6 18 -21 35zM476 1288l-14 -21l34 14zM351 1233l-7 -21h14l7 21h-14zM876 1226q2 -9 14 -14q-2 7 -14 14zM959 1212l7 -21v21h-7z M731 1184l7 -55l7 7l21 -7q-12 29 -35 55zM1007 1184l-13 -27l27 6zM676 1177l-7 -20h14v20h-7zM241 1157q6 -14 20 -21q-5 14 -20 21zM600 1122q-12 -31 -35 -55l-20 41l-28 -14q-38 -7 -83 -27q-16 -32 -48 -62l-62 -42l-28 -69l-14 -62q-7 -39 -27 -83q9 -32 27 -69 l21 -55l-14 -21q10 -20 28 -35q13 -28 13 -62q39 -15 70 -48q33 -11 69 -35l83 -7l-7 63l34 -7q17 -33 42 -56l89 -13l76 34q29 20 49 55l-7 21l7 14l34 7q2 -7 14 -14q28 14 48 41q13 34 35 70q18 35 28 82l-14 90q-9 34 -28 69l-34 69l-49 63l-62 48q-21 22 -55 34z M842 1108v-14h7v14h-7zM1125 1094q1 -27 14 -55q-2 28 -14 55zM862 1087q9 -27 35 -48zM303 998l-14 -21q13 7 14 21zM109 908l-6 -21l13 -7zM1014 694l14 -21q-2 14 -14 21zM1153 694l6 -21v21h-6zM1035 673q3 -17 21 -28zM1132 438q2 -21 14 -41l7 27q-14 12 -21 14z M496 383q2 -9 14 -14q-1 9 -14 14zM381 1533l-27 -17q-37 16 -81 14l-66 20v13q0 13 1 25q4 41 21 77l36 60l47 48q20 0 37 -6v-27l3 -5l31 22l-25 16l6 18l6 11l37 14l71 12l67 2l59 -24l23 -23l62 -29l69 -65l95 -30l-58 -34l70 16l66 36q29 41 21 104l58 26l52 13l50 -40 l3 -56q-10 -34 -25 -58q-4 -34 -13 -65l-49 -62q-10 11 -36 -6l-6 -18l-118 -41q-28 3 -45 15q-36 6 -68 18l-62 21q-35 17 -66 25l-25 43l-81 28q-32 18 -62 21l-38 -13l-31 -30zM1049 1703l2 -12l9 7zM975 1574l-9 -13q10 -4 19 0zM592 1757q16 -6 27 0q-14 6 -27 0z M448 1779q42 -11 78 3q-42 4 -78 -3zM588 1653l-3 4l-13 -10l14 -10zM264 1644l-10 -14l17 6z" />
<glyph unicode="&#xc4;" horiz-adv-x="1248" d="M973 1357l90 -7l90 7l34 -7l-14 -42l14 -103l-7 -14v-14l-7 -20l7 -70l7 -20l-7 -62l21 -76l7 -90l-7 -56l7 -20v-76q-6 -32 -21 -69l14 -83l-14 -62q6 -36 7 -83l-7 -69l7 -76l14 -35l-28 -21l-41 -20l-21 13l-83 7q-39 6 -55 49q-14 22 -42 27l-55 -41l-69 -28l-62 7 l-62 -34q-32 -3 -69 -14l-69 21q-35 1 -70 20l-124 49q-20 13 -48 13l-28 28q-27 18 -62 35q-12 32 -35 62l-82 110l-28 63q-2 32 -14 69l-21 138l7 20l7 76q6 41 21 83l21 69l34 63l49 131l34 28q10 -7 14 -21q24 12 41 34l132 56q32 8 69 27l138 14l21 -7q33 -1 69 -14 l55 7l14 -7q13 -20 13 -48l42 -21l-21 55q1 9 14 14l90 -69q27 -4 55 -27q11 23 14 48l-7 62zM1042 1295v13h-7zM1111 1302q4 -19 21 -35q-6 18 -21 35zM476 1288l-14 -21l34 14zM351 1233l-7 -21h14l7 21h-14zM876 1226q2 -9 14 -14q-2 7 -14 14zM959 1212l7 -21v21h-7z M731 1184l7 -55l7 7l21 -7q-12 29 -35 55zM1007 1184l-13 -27l27 6zM676 1177l-7 -20h14v20h-7zM241 1157q6 -14 20 -21q-5 14 -20 21zM600 1122q-12 -31 -35 -55l-20 41l-28 -14q-38 -7 -83 -27q-16 -32 -48 -62l-62 -42l-28 -69l-14 -62q-7 -39 -27 -83q9 -32 27 -69 l21 -55l-14 -21q10 -20 28 -35q13 -28 13 -62q39 -15 70 -48q33 -11 69 -35l83 -7l-7 63l34 -7q17 -33 42 -56l89 -13l76 34q29 20 49 55l-7 21l7 14l34 7q2 -7 14 -14q28 14 48 41q13 34 35 70q18 35 28 82l-14 90q-9 34 -28 69l-34 69l-49 63l-62 48q-21 22 -55 34z M842 1108v-14h7v14h-7zM1125 1094q1 -27 14 -55q-2 28 -14 55zM862 1087q9 -27 35 -48zM303 998l-14 -21q13 7 14 21zM109 908l-6 -21l13 -7zM1014 694l14 -21q-2 14 -14 21zM1153 694l6 -21v21h-6zM1035 673q3 -17 21 -28zM1132 438q2 -21 14 -41l7 27q-14 12 -21 14z M496 383q2 -9 14 -14q-1 9 -14 14zM385 1790l119 -21q40 -22 64 -71l13 -48q-16 -49 -6 -78q-21 -12 -49 -14l-92 -21l-21 7q-47 6 -63 49q5 24 7 56q-3 12 -14 21l7 28q0 46 35 92zM753 1755l28 7q-3 10 9 7q32 3 56 8q44 -16 50 -63l7 -21l-20 -92q-2 -28 -14 -49 q-29 10 -79 -6l-47 12q-49 23 -71 63l-10 98q45 35 91 36z" />
<glyph unicode="&#xc5;" />
<glyph unicode="&#xc6;" />
<glyph unicode="&#xc7;" horiz-adv-x="1239" d="M630 1361l100 -14q50 -8 114 -29q37 -26 85 -50q44 -10 50 -57q-23 -10 -43 -28l50 7q40 -9 78 -36q3 -36 36 -56l57 -86q-4 -52 -64 -57l-50 -21l57 7q40 -3 78 -14l-14 -22l-36 -28l-71 7l-78 -7l-22 36l-21 85q-47 9 -78 50q-42 17 -43 64l-78 -14l-29 7l-163 14 l-29 -14l-78 -57q-38 -26 -71 -64q-30 -39 -57 -86l-7 -128l-22 -28l43 -157l50 -85l64 -79l64 8q14 -16 36 -29l106 -7l29 -14l164 50l56 85q31 38 57 85q7 48 43 86q44 0 93 -22l78 29q24 -46 35 -107q-25 -45 -42 -99q-11 -46 -50 -86l-135 -149l-185 -86l-50 -7l-21 7 h-22l-21 -14q-40 17 -50 64q-30 -41 -85 -43l-193 79l-85 64l-71 71q-34 28 -57 78q-20 37 -36 86l-42 99l-7 64l28 29q-24 36 -35 85q22 35 35 78q17 42 29 93q19 44 49 92q26 31 43 79q38 26 78 64q35 29 79 50l149 71q19 -2 43 -14l35 -15zM353 1219q-16 -17 -29 -43 l21 7q20 13 36 36h-28zM267 1183q-20 -26 -50 -50q1 -20 22 -28q23 32 28 78zM210 1098l-7 -65l14 50zM943 1026q-1 10 -14 15q3 -8 14 -15zM281 1005l-14 -43l29 29q-2 9 -15 14zM296 984l-7 -22l14 7v15h-7zM139 799h14v14h-7zM160 706l15 -7v21h-7zM1128 642q2 -9 15 -14 q-2 9 -15 14zM1029 628q1 -17 14 -29l7 29h-21zM281 542v-14h8v14h-8zM1107 521v14h-7zM1064 486q15 -14 36 -15zM915 450l-14 -29l28 -7q-2 18 -14 36zM986 379q6 -19 21 -36q-5 20 -21 36zM296 315q7 -16 28 -29q-9 15 -28 29zM374 308q5 -15 21 -22q-6 13 -21 22z M632 140q9 0 17 -1l43 -20q6 -36 50 -79l34 -29q31 -9 65 -59l14 -39l7 -36l-8 -58q-6 -22 -17 -42l-23 -41q-21 -12 -37 -29q-26 -8 -46 -12l-38 -29l-12 -4l-8 -4l-33 4l-50 -8l-54 12q-30 4 -68 41l-25 42q-15 22 -21 45l-21 46q4 20 13 37q23 13 73 11q21 -16 33 -33 l17 -54q18 -13 58 -27l45 -4l55 10l27 52q34 36 -6 93q-16 20 -50 49l-50 49q-49 35 -42 101q27 16 58 16z" />
<glyph unicode="&#xc8;" horiz-adv-x="1230" d="M541 1364l56 -7l14 7h21l91 -21l90 -7q31 -21 70 -34l63 -42q31 -20 62 -49l56 -56q22 -32 42 -77l42 -69l14 -63l-14 -21l-35 14l14 -35q39 -5 49 -49l14 -90l-7 -91q-21 -32 -63 -35h-70l-14 35l-14 -28l-62 -21l-98 -14l-167 21l-21 -7l-63 14l-21 -14l-76 -7l-77 7 l-42 21l-28 -21q-44 0 -69 -41l188 -147l160 -35l91 7q36 13 76 35l77 35l63 14l21 -14l76 -84q-1 -29 -14 -62l-132 -91l-70 -28q-37 -15 -83 -28q-41 -13 -91 -21l-91 14q-35 6 -76 21q-35 4 -77 21l-77 35q-36 12 -69 42q-28 27 -63 48l-56 56q-22 26 -42 63l-41 70 l-28 181l7 21l-7 63l7 90l34 84q10 33 28 70l35 76q23 27 56 56l49 63l69 42l147 62q35 6 76 21zM967 1176q-2 9 -14 14q2 -7 14 -14zM430 1162q1 -15 14 -28q0 15 -14 28zM597 1148l-118 -42l-91 -48l-63 -7l21 -35q-21 -51 -55 -105l-7 -70l48 -7l126 28v-14l77 7h20 l42 -21l-35 -41q43 28 98 55l125 14l63 -7l126 14q-17 16 -28 42q-18 49 -63 98q-28 34 -77 69q-23 20 -41 49l-49 -14q-55 8 -119 35zM1029 1092l14 -14l-7 28zM1064 1037q5 -20 21 -35q-6 16 -21 35zM256 1016q6 -13 21 -14zM123 925v14h-7zM130 918q-13 -17 -14 -42 l28 21zM200 876q2 -9 14 -14q-2 10 -14 14zM1022 855q2 -9 14 -14q-1 10 -14 14zM88 800l7 -21l7 21h-14zM486 793v-14l14 7zM660 709q-18 -9 -28 -28q18 7 28 28zM95 639v-14l14 7zM270 549q5 -18 21 -35q-4 19 -21 35zM249 395q2 -9 14 -14q-2 10 -14 14zM667 353 q3 -15 14 -27l7 20zM339 326q1 -15 14 -28q0 15 -14 28zM458 326l-7 -21l21 14zM444 291q6 -10 21 -14zM432 1740q24 76 72 92l75 -3q43 -7 75 4l42 -17l14 -49l-7 -13l21 -103q-1 -24 -3 -47q-2 -22 -6 -42q-20 -37 -7 -79l-21 -14l-61 7l-36 -2l-93 194zM488 1742l35 11 l-5 14l-28 -4zM635 1539l29 11l8 13l-21 3l-35 -11z" />
<glyph unicode="&#xc9;" horiz-adv-x="1230" d="M541 1364l56 -7l14 7h21l91 -21l90 -7q31 -21 70 -34l63 -42q31 -20 62 -49l56 -56q22 -32 42 -77l42 -69l14 -63l-14 -21l-35 14l14 -35q39 -5 49 -49l14 -90l-7 -91q-21 -32 -63 -35h-70l-14 35l-14 -28l-62 -21l-98 -14l-167 21l-21 -7l-63 14l-21 -14l-76 -7l-77 7 l-42 21l-28 -21q-44 0 -69 -41l188 -147l160 -35l91 7q36 13 76 35l77 35l63 14l21 -14l76 -84q-1 -29 -14 -62l-132 -91l-70 -28q-37 -15 -83 -28q-41 -13 -91 -21l-91 14q-35 6 -76 21q-35 4 -77 21l-77 35q-36 12 -69 42q-28 27 -63 48l-56 56q-22 26 -42 63l-41 70 l-28 181l7 21l-7 63l7 90l34 84q10 33 28 70l35 76q23 27 56 56l49 63l69 42l147 62q35 6 76 21zM967 1176q-2 9 -14 14q2 -7 14 -14zM430 1162q1 -15 14 -28q0 15 -14 28zM597 1148l-118 -42l-91 -48l-63 -7l21 -35q-21 -51 -55 -105l-7 -70l48 -7l126 28v-14l77 7h20 l42 -21l-35 -41q43 28 98 55l125 14l63 -7l126 14q-17 16 -28 42q-18 49 -63 98q-28 34 -77 69q-23 20 -41 49l-49 -14q-55 8 -119 35zM1029 1092l14 -14l-7 28zM1064 1037q5 -20 21 -35q-6 16 -21 35zM256 1016q6 -13 21 -14zM123 925v14h-7zM130 918q-13 -17 -14 -42 l28 21zM200 876q2 -9 14 -14q-2 10 -14 14zM1022 855q2 -9 14 -14q-1 10 -14 14zM88 800l7 -21l7 21h-14zM486 793v-14l14 7zM660 709q-18 -9 -28 -28q18 7 28 28zM95 639v-14l14 7zM270 549q5 -18 21 -35q-4 19 -21 35zM249 395q2 -9 14 -14q-2 10 -14 14zM667 353 q3 -15 14 -27l7 20zM339 326q1 -15 14 -28q0 15 -14 28zM458 326l-7 -21l21 14zM444 291q6 -10 21 -14zM812 1690l-138 -247l-35 5l-62 -1l-19 16q-11 42 -27 81q17 52 21 101l31 101l-6 14l19 47l26 -16q48 15 92 17l75 -4q46 -20 49 -61zM582 1562l35 11l-5 14l-28 -4z M666 1586l29 11l9 14l-21 2l-35 -11z" />
<glyph unicode="&#xca;" horiz-adv-x="1230" d="M541 1364l56 -7l14 7h21l91 -21l90 -7q31 -21 70 -34l63 -42q31 -20 62 -49l56 -56q22 -32 42 -77l42 -69l14 -63l-14 -21l-35 14l14 -35q39 -5 49 -49l14 -90l-7 -91q-21 -32 -63 -35h-70l-14 35l-14 -28l-62 -21l-98 -14l-167 21l-21 -7l-63 14l-21 -14l-76 -7l-77 7 l-42 21l-28 -21q-44 0 -69 -41l188 -147l160 -35l91 7q36 13 76 35l77 35l63 14l21 -14l76 -84q-1 -29 -14 -62l-132 -91l-70 -28q-37 -15 -83 -28q-41 -13 -91 -21l-91 14q-35 6 -76 21q-35 4 -77 21l-77 35q-36 12 -69 42q-28 27 -63 48l-56 56q-22 26 -42 63l-41 70 l-28 181l7 21l-7 63l7 90l34 84q10 33 28 70l35 76q23 27 56 56l49 63l69 42l147 62q35 6 76 21zM967 1176q-2 9 -14 14q2 -7 14 -14zM430 1162q1 -15 14 -28q0 15 -14 28zM597 1148l-118 -42l-91 -48l-63 -7l21 -35q-21 -51 -55 -105l-7 -70l48 -7l126 28v-14l77 7h20 l42 -21l-35 -41q43 28 98 55l125 14l63 -7l126 14q-17 16 -28 42q-18 49 -63 98q-28 34 -77 69q-23 20 -41 49l-49 -14q-55 8 -119 35zM1029 1092l14 -14l-7 28zM1064 1037q5 -20 21 -35q-6 16 -21 35zM256 1016q6 -13 21 -14zM123 925v14h-7zM130 918q-13 -17 -14 -42 l28 21zM200 876q2 -9 14 -14q-2 10 -14 14zM1022 855q2 -9 14 -14q-1 10 -14 14zM88 800l7 -21l7 21h-14zM486 793v-14l14 7zM660 709q-18 -9 -28 -28q18 7 28 28zM95 639v-14l14 7zM270 549q5 -18 21 -35q-4 19 -21 35zM249 395q2 -9 14 -14q-2 10 -14 14zM667 353 q3 -15 14 -27l7 20zM339 326q1 -15 14 -28q0 15 -14 28zM458 326l-7 -21l21 14zM444 291q6 -10 21 -14zM506 1450l-6 -6q-11 5 -15 39l-14 -15q3 -13 -3 -11h-11l-7 -4q-8 -1 -14 -5l-7 5q0 11 23 72l11 23l8 26l50 119q5 12 7 22l13 22v5q1 13 6 24l18 46l7 5v-2l26 -1l4 2 v-2l35 -2l12 3l2 -4h2l6 -2l20 5q8 -13 12 -25l23 -77l5 -26q10 -10 23 -44l12 -34l18 -37l23 -42l12 -40l5 -35l-24 -4l-6 -2l-26 2l-4 -2l-53 5q-5 14 -12 24q-12 41 -22 72q-1 18 37 31q-20 2 -45 -8l-15 53l-14 34l-16 -35l-18 -49l-16 -17q-5 -39 -23 -71l-1 -15 q-15 -21 -24 -29q-11 5 -22 7h-2z" />
<glyph unicode="&#xcb;" horiz-adv-x="1230" d="M541 1364l56 -7l14 7h21l91 -21l90 -7q31 -21 70 -34l63 -42q31 -20 62 -49l56 -56q22 -32 42 -77l42 -69l14 -63l-14 -21l-35 14l14 -35q39 -5 49 -49l14 -90l-7 -91q-21 -32 -63 -35h-70l-14 35l-14 -28l-62 -21l-98 -14l-167 21l-21 -7l-63 14l-21 -14l-76 -7l-77 7 l-42 21l-28 -21q-44 0 -69 -41l188 -147l160 -35l91 7q36 13 76 35l77 35l63 14l21 -14l76 -84q-1 -29 -14 -62l-132 -91l-70 -28q-37 -15 -83 -28q-41 -13 -91 -21l-91 14q-35 6 -76 21q-35 4 -77 21l-77 35q-36 12 -69 42q-28 27 -63 48l-56 56q-22 26 -42 63l-41 70 l-28 181l7 21l-7 63l7 90l34 84q10 33 28 70l35 76q23 27 56 56l49 63l69 42l147 62q35 6 76 21zM967 1176q-2 9 -14 14q2 -7 14 -14zM430 1162q1 -15 14 -28q0 15 -14 28zM597 1148l-118 -42l-91 -48l-63 -7l21 -35q-21 -51 -55 -105l-7 -70l48 -7l126 28v-14l77 7h20 l42 -21l-35 -41q43 28 98 55l125 14l63 -7l126 14q-17 16 -28 42q-18 49 -63 98q-28 34 -77 69q-23 20 -41 49l-49 -14q-55 8 -119 35zM1029 1092l14 -14l-7 28zM1064 1037q5 -20 21 -35q-6 16 -21 35zM256 1016q6 -13 21 -14zM123 925v14h-7zM130 918q-13 -17 -14 -42 l28 21zM200 876q2 -9 14 -14q-2 10 -14 14zM1022 855q2 -9 14 -14q-1 10 -14 14zM88 800l7 -21l7 21h-14zM486 793v-14l14 7zM660 709q-18 -9 -28 -28q18 7 28 28zM95 639v-14l14 7zM270 549q5 -18 21 -35q-4 19 -21 35zM249 395q2 -9 14 -14q-2 10 -14 14zM667 353 q3 -15 14 -27l7 20zM339 326q1 -15 14 -28q0 15 -14 28zM458 326l-7 -21l21 14zM444 291q6 -10 21 -14zM387 1790l119 -21q40 -22 64 -71l13 -48q-16 -49 -6 -78q-21 -12 -49 -14l-92 -21l-21 7q-47 6 -63 49q5 24 7 56q-3 12 -14 21l7 28q0 46 35 92zM756 1755l28 7 q-3 10 9 7q32 2 56 8q43 -16 50 -63l7 -21l-20 -92q-2 -28 -14 -49q-29 10 -79 -7l-47 13q-49 23 -72 63l-10 98q46 35 92 36z" />
<glyph unicode="&#xcc;" horiz-adv-x="352" d="M89 1340q23 -10 56 -14l21 7q38 -12 76 -35q33 -24 35 -70l7 -91l14 -20l-14 -49l-7 -77l14 -84l-14 -56l14 -21l7 -70l-14 -21l-21 -41l28 -21q10 -37 14 -84l-7 -91q7 -40 7 -91l7 -35l-14 -28v-20h7l7 -98q-6 -32 -21 -70l-104 -7q-32 2 -70 14q-41 9 -49 56 q12 24 21 56l-14 21l-7 90l14 98l-21 196l7 104l-14 98q13 24 21 56l-21 14l-14 84l28 84l21 41l-35 14l-14 70l7 21q14 35 42 70zM124 1082l-7 -42l28 28zM173 600l-7 -21l14 7v14h-7zM138 565l-7 -28l28 21zM221 558l-14 -35l28 21q-1 9 -14 14zM124 446q2 -9 14 -14 q-2 9 -14 14zM242 328l7 -14v14h-7zM-44 1740q24 76 71 92l75 -3q44 -7 76 4l42 -17l14 -49l-7 -13l21 -103q-1 -24 -3 -47q-2 -22 -6 -43q-20 -36 -7 -78l-21 -15l-61 8l-36 -2l-93 193zM12 1742l35 11l-5 14l-28 -4zM159 1539l29 11l8 13l-21 3l-35 -11z" />
<glyph unicode="&#xcd;" horiz-adv-x="352" d="M89 1340q23 -10 56 -14l21 7q38 -12 76 -35q33 -24 35 -70l7 -91l14 -20l-14 -49l-7 -77l14 -84l-14 -56l14 -21l7 -70l-14 -21l-21 -41l28 -21q10 -37 14 -84l-7 -91q7 -40 7 -91l7 -35l-14 -28v-20h7l7 -98q-6 -32 -21 -70l-104 -7q-32 2 -70 14q-41 9 -49 56 q12 24 21 56l-14 21l-7 90l14 98l-21 196l7 104l-14 98q13 24 21 56l-21 14l-14 84l28 84l21 41l-35 14l-14 70l7 21q14 35 42 70zM124 1082l-7 -42l28 28zM173 600l-7 -21l14 7v14h-7zM138 565l-7 -28l28 21zM221 558l-14 -35l28 21q-1 9 -14 14zM124 446q2 -9 14 -14 q-2 9 -14 14zM242 328l7 -14v14h-7zM354 1690l-138 -248l-34 5h-63l-19 16q-11 42 -26 81q16 52 20 101l31 101l-6 14l19 46l26 -16q48 15 92 18l76 -5q45 -20 48 -61zM124 1562l35 11l-5 14l-28 -4zM209 1586l28 11l9 14l-21 2l-35 -11z" />
<glyph unicode="&#xce;" horiz-adv-x="352" d="M89 1340q23 -10 56 -14l21 7q38 -12 76 -35q33 -24 35 -70l7 -91l14 -20l-14 -49l-7 -77l14 -84l-14 -56l14 -21l7 -70l-14 -21l-21 -41l28 -21q10 -37 14 -84l-7 -91q7 -40 7 -91l7 -35l-14 -28v-20h7l7 -98q-6 -32 -21 -70l-104 -7q-32 2 -70 14q-41 9 -49 56 q12 24 21 56l-14 21l-7 90l14 98l-21 196l7 104l-14 98q13 24 21 56l-21 14l-14 84l28 84l21 41l-35 14l-14 70l7 21q14 35 42 70zM124 1082l-7 -42l28 28zM173 600l-7 -21l14 7v14h-7zM138 565l-7 -28l28 21zM221 558l-14 -35l28 21q-1 9 -14 14zM124 446q2 -9 14 -14 q-2 9 -14 14zM242 328l7 -14v14h-7zM72 1450q-3 -4 -5 -6q-9 5 -12 39l-11 -16q2 -12 -3 -10l-9 -1l-5 -3q-7 -1 -11 -5l-6 5q0 11 18 72l9 23l7 26l40 119q4 12 5 22l11 22v5q0 13 4 24l15 46l5 5v-2l22 -2l2 3v-2l29 -2l9 3l2 -4h1l5 -2l16 5q6 -13 10 -25l18 -77l4 -26 q8 -10 18 -44l10 -34l14 -37l19 -42l9 -40l4 -35l-19 -4l-5 -2l-21 2l-3 -2l-42 5q-4 14 -10 24q-9 41 -17 72q-1 17 29 31q-15 2 -36 -8l-12 53l-11 33l-13 -34l-14 -49l-13 -17q-4 -39 -18 -71l-1 -15q-12 -21 -19 -29q-9 5 -18 7h-1z" />
<glyph unicode="&#xcf;" horiz-adv-x="352" d="M89 1340q23 -10 56 -14l21 7q38 -12 76 -35q33 -24 35 -70l7 -91l14 -20l-14 -49l-7 -77l14 -84l-14 -56l14 -21l7 -70l-14 -21l-21 -41l28 -21q10 -37 14 -84l-7 -91q7 -40 7 -91l7 -35l-14 -28v-20h7l7 -98q-6 -32 -21 -70l-104 -7q-32 2 -70 14q-41 9 -49 56 q12 24 21 56l-14 21l-7 90l14 98l-21 196l7 104l-14 98q13 24 21 56l-21 14l-14 84l28 84l21 41l-35 14l-14 70l7 21q14 35 42 70zM124 1082l-7 -42l28 28zM173 600l-7 -21l14 7v14h-7zM138 565l-7 -28l28 21zM221 558l-14 -35l28 21q-1 9 -14 14zM124 446q2 -9 14 -14 q-2 9 -14 14zM242 328l7 -14v14h-7zM-68 1790l119 -21q40 -22 64 -71l13 -48q-16 -49 -6 -78q-21 -12 -49 -14l-92 -21l-21 7q-47 6 -63 49q5 24 7 56q-3 12 -14 21l7 28q0 46 35 92zM301 1755l27 7q-2 10 10 7q32 2 56 8q43 -16 49 -63l7 -21l-20 -92q-2 -28 -13 -49 q-30 10 -80 -7l-46 13q-50 23 -72 63l-10 98q46 35 92 36z" />
<glyph unicode="&#xd0;" />
<glyph unicode="&#xd1;" horiz-adv-x="1302" d="M198 1330q46 -9 93 -36l-7 -100l65 50l180 65l72 14l21 -7l101 7q44 -3 93 -14l87 -36q38 -17 79 -43l122 -115q21 -33 29 -79q43 -13 57 -65l36 -87q14 -38 15 -86l21 -93q-7 -51 -7 -116l7 -28l-21 -180l-15 -29l15 -65l-7 -100q-35 -27 -80 -44l-115 8q-42 10 -50 57 l14 180l-7 29l7 101l8 14l-15 36q9 86 22 129q-14 43 -22 94l-29 86q-16 35 -43 72q-18 39 -50 72q-35 24 -72 58l-173 14l-100 -22l-87 -35l-57 -65l-58 -187l-21 -187l21 -187l-7 -29l7 -79l15 -58l-15 -21q-19 -29 -57 -51q-38 -15 -87 -21l-100 21l-15 72l7 29l-14 93 l7 72l-7 22l-7 79l7 29l-14 180l7 79l-14 50l7 51v21l-7 79l7 29l-7 58l7 50l-7 65l7 21q18 33 50 58zM90 1280v-36l21 29zM723 1280q-22 -9 -36 -29l43 15l7 -29l36 29zM579 1273l-7 -29l14 -14l29 36zM824 1259q10 -19 28 -36q-8 21 -28 36zM97 1208l-7 -21l14 -15l7 29z M97 1143q1 -15 14 -28l8 28h-22zM234 1107l-15 -36l22 8l7 28h-14zM924 1100q-13 -17 -14 -36q13 16 14 36zM406 1064v15h-7zM270 956q-13 -31 -36 -64l-15 -44l22 -7l29 58l14 50zM1147 949q-15 -40 -21 -79l36 22zM104 913l15 -43l14 36zM1183 834l-7 -36h14v7zM234 812 l-22 -28q17 9 22 28zM1183 611q-28 -28 -36 -65l51 29q-1 20 -15 36zM1054 525v-15l14 8zM133 518l-14 -65l21 14l29 43zM126 424q2 -9 14 -14q-1 9 -14 14zM1090 424q-16 -14 -29 -36q24 10 29 36zM126 352q3 -14 14 -21q-2 14 -14 21zM1169 316l-7 -43l21 29q-2 7 -14 14z M1047 302l-8 -29l36 29h-28zM234 237v14h-7zM205 230l-22 -22q22 5 22 22zM369 1533l-27 -17q-37 16 -81 14l-66 20v13q0 13 1 25q4 41 21 77l36 60l47 48q20 0 37 -6v-27l3 -5l31 22l-25 16l6 18l6 11l37 14l71 12l67 2l59 -24l23 -23l62 -29l69 -65l95 -30l-58 -34l70 16 l66 36q29 41 21 104l58 26l52 13l50 -40l3 -56q-10 -34 -25 -58q-4 -34 -13 -65l-49 -62q-10 11 -36 -6l-6 -18l-118 -41q-28 3 -45 15q-36 6 -68 18l-62 21q-35 17 -66 25l-25 43l-81 28q-32 18 -62 21l-38 -13l-31 -30zM1037 1703l2 -12l9 7zM963 1574l-9 -13q10 -4 19 0z M580 1757q16 -6 27 0q-14 6 -27 0zM436 1779q42 -11 78 3q-42 4 -78 -3zM576 1653l-3 4l-13 -10l14 -10zM252 1644l-10 -14l17 6z" />
<glyph unicode="&#xd2;" horiz-adv-x="1238" d="M643 1353l103 -20l14 14q36 -23 68 -69q22 11 48 14l27 -34l-13 -21q28 1 55 14l27 -35q20 -39 55 -68q50 -32 75 -89q41 -42 69 -96l13 -110l-13 -7v-13h7l20 -96l-7 -14l-27 -123q-14 -54 -48 -117l-62 -102q-33 -39 -82 -76q-38 -42 -96 -68l-110 -55l-137 -21h-68 l-21 -7l-157 62q-51 20 -103 62q-46 27 -89 75q-36 40 -69 89q-28 47 -48 117q-22 47 -27 109l-7 21l7 62l-7 54q5 69 41 131q4 45 28 102q20 48 61 103l89 75q46 34 110 55l55 35l27 -42q25 41 76 62q53 6 116 27zM855 1237q7 -23 21 -48l7 41zM616 1155q-31 -26 -76 -48 l-55 -7l-6 34q-28 -20 -42 -55l-68 -48q-26 -13 -41 -41l20 -54l-34 -14l-41 -7l-14 7q3 -16 14 -28l21 -13l-14 -48q-5 -36 -21 -76l-13 -61q32 -17 34 -55l27 -69l48 -75l55 -62l55 -27l68 -21l83 -6l6 -28l138 48l137 89l41 76l54 54q-15 37 -20 83l7 96q-6 45 -21 95 q-15 39 -27 90q-34 11 -69 34l-55 61l-20 35l-34 -21l-83 21zM992 1141l7 -55l14 41zM869 1114q3 -16 14 -28q-1 15 -14 28zM273 970l7 -21v21h-7zM1157 846q1 -19 14 -41q-2 21 -14 41zM1047 805l-7 -61q5 -29 21 -55l-7 75l7 21q-2 14 -14 20zM1150 730l14 -21 q-3 14 -14 21zM287 477v-28l27 14zM184 435v14h-7zM390 394q6 -32 34 -61zM232 381q1 -10 14 -14q-3 7 -14 14zM622 346v-13l14 6zM910 326v-14h7l28 7zM725 285l7 -35l14 14l-14 34zM855 298q6 -14 21 -20q-6 12 -21 20zM410 1741q23 76 71 91l75 -2q44 -8 76 3l41 -17 l15 -49l-8 -13l21 -103q0 -24 -2 -47q-2 -21 -7 -42q-19 -36 -7 -79l-20 -14l-62 7l-35 -2l-93 194zM466 1742l35 11l-5 14l-28 -4zM613 1539l29 11l8 13l-21 3l-35 -11z" />
<glyph unicode="&#xd3;" horiz-adv-x="1238" d="M643 1353l103 -20l14 14q36 -23 68 -69q22 11 48 14l27 -34l-13 -21q28 1 55 14l27 -35q20 -39 55 -68q50 -32 75 -89q41 -42 69 -96l13 -110l-13 -7v-13h7l20 -96l-7 -14l-27 -123q-14 -54 -48 -117l-62 -102q-33 -39 -82 -76q-38 -42 -96 -68l-110 -55l-137 -21h-68 l-21 -7l-157 62q-51 20 -103 62q-46 27 -89 75q-36 40 -69 89q-28 47 -48 117q-22 47 -27 109l-7 21l7 62l-7 54q5 69 41 131q4 45 28 102q20 48 61 103l89 75q46 34 110 55l55 35l27 -42q25 41 76 62q53 6 116 27zM855 1237q7 -23 21 -48l7 41zM616 1155q-31 -26 -76 -48 l-55 -7l-6 34q-28 -20 -42 -55l-68 -48q-26 -13 -41 -41l20 -54l-34 -14l-41 -7l-14 7q3 -16 14 -28l21 -13l-14 -48q-5 -36 -21 -76l-13 -61q32 -17 34 -55l27 -69l48 -75l55 -62l55 -27l68 -21l83 -6l6 -28l138 48l137 89l41 76l54 54q-15 37 -20 83l7 96q-6 45 -21 95 q-15 39 -27 90q-34 11 -69 34l-55 61l-20 35l-34 -21l-83 21zM992 1141l7 -55l14 41zM869 1114q3 -16 14 -28q-1 15 -14 28zM273 970l7 -21v21h-7zM1157 846q1 -19 14 -41q-2 21 -14 41zM1047 805l-7 -61q5 -29 21 -55l-7 75l7 21q-2 14 -14 20zM1150 730l14 -21 q-3 14 -14 21zM287 477v-28l27 14zM184 435v14h-7zM390 394q6 -32 34 -61zM232 381q1 -10 14 -14q-3 7 -14 14zM622 346v-13l14 6zM910 326v-14h7l28 7zM725 285l7 -35l14 14l-14 34zM855 298q6 -14 21 -20q-6 12 -21 20zM831 1690l-138 -248l-35 5h-62l-19 16 q-11 42 -27 81q17 52 21 101l31 101l-6 14l19 46l26 -16q48 15 92 18l75 -5q46 -20 49 -61zM601 1562l35 11l-5 14l-28 -4zM685 1586l29 11l8 14l-21 2l-35 -11z" />
<glyph unicode="&#xd4;" horiz-adv-x="1238" d="M643 1353l103 -20l14 14q36 -23 68 -69q22 11 48 14l27 -34l-13 -21q28 1 55 14l27 -35q20 -39 55 -68q50 -32 75 -89q41 -42 69 -96l13 -110l-13 -7v-13h7l20 -96l-7 -14l-27 -123q-14 -54 -48 -117l-62 -102q-33 -39 -82 -76q-38 -42 -96 -68l-110 -55l-137 -21h-68 l-21 -7l-157 62q-51 20 -103 62q-46 27 -89 75q-36 40 -69 89q-28 47 -48 117q-22 47 -27 109l-7 21l7 62l-7 54q5 69 41 131q4 45 28 102q20 48 61 103l89 75q46 34 110 55l55 35l27 -42q25 41 76 62q53 6 116 27zM855 1237q7 -23 21 -48l7 41zM616 1155q-31 -26 -76 -48 l-55 -7l-6 34q-28 -20 -42 -55l-68 -48q-26 -13 -41 -41l20 -54l-34 -14l-41 -7l-14 7q3 -16 14 -28l21 -13l-14 -48q-5 -36 -21 -76l-13 -61q32 -17 34 -55l27 -69l48 -75l55 -62l55 -27l68 -21l83 -6l6 -28l138 48l137 89l41 76l54 54q-15 37 -20 83l7 96q-6 45 -21 95 q-15 39 -27 90q-34 11 -69 34l-55 61l-20 35l-34 -21l-83 21zM992 1141l7 -55l14 41zM869 1114q3 -16 14 -28q-1 15 -14 28zM273 970l7 -21v21h-7zM1157 846q1 -19 14 -41q-2 21 -14 41zM1047 805l-7 -61q5 -29 21 -55l-7 75l7 21q-2 14 -14 20zM1150 730l14 -21 q-3 14 -14 21zM287 477v-28l27 14zM184 435v14h-7zM390 394q6 -32 34 -61zM232 381q1 -10 14 -14q-3 7 -14 14zM622 346v-13l14 6zM910 326v-14h7l28 7zM725 285l7 -35l14 14l-14 34zM855 298q6 -14 21 -20q-6 12 -21 20zM510 1450l-6 -6q-11 5 -15 39l-14 -15q3 -13 -3 -11 h-11l-7 -4q-8 -1 -14 -5l-7 5q0 11 23 72l11 23l8 26l50 119q5 12 7 22l13 22v5q1 13 6 24l18 46l7 5v-2l27 -1l3 2v-2l35 -2l12 3l2 -4h2l6 -2l20 5q8 -13 12 -25l23 -77l5 -26q10 -10 23 -44l12 -34l18 -37l23 -42l12 -40l5 -35l-24 -4l-6 -2l-26 2l-4 -2l-53 5 q-5 14 -12 24q-12 41 -22 72q0 18 37 31q-19 2 -45 -8l-15 53l-13 34l-17 -35l-18 -49l-16 -17q-5 -39 -23 -71l-1 -15q-15 -21 -24 -29q-11 5 -22 7h-2z" />
<glyph unicode="&#xd5;" horiz-adv-x="1238" d="M643 1353l103 -20l14 14q36 -23 68 -69q22 11 48 14l27 -34l-13 -21q28 1 55 14l27 -35q20 -39 55 -68q50 -32 75 -89q41 -42 69 -96l13 -110l-13 -7v-13h7l20 -96l-7 -14l-27 -123q-14 -54 -48 -117l-62 -102q-33 -39 -82 -76q-38 -42 -96 -68l-110 -55l-137 -21h-68 l-21 -7l-157 62q-51 20 -103 62q-46 27 -89 75q-36 40 -69 89q-28 47 -48 117q-22 47 -27 109l-7 21l7 62l-7 54q5 69 41 131q4 45 28 102q20 48 61 103l89 75q46 34 110 55l55 35l27 -42q25 41 76 62q53 6 116 27zM855 1237q7 -23 21 -48l7 41zM616 1155q-31 -26 -76 -48 l-55 -7l-6 34q-28 -20 -42 -55l-68 -48q-26 -13 -41 -41l20 -54l-34 -14l-41 -7l-14 7q3 -16 14 -28l21 -13l-14 -48q-5 -36 -21 -76l-13 -61q32 -17 34 -55l27 -69l48 -75l55 -62l55 -27l68 -21l83 -6l6 -28l138 48l137 89l41 76l54 54q-15 37 -20 83l7 96q-6 45 -21 95 q-15 39 -27 90q-34 11 -69 34l-55 61l-20 35l-34 -21l-83 21zM992 1141l7 -55l14 41zM869 1114q3 -16 14 -28q-1 15 -14 28zM273 970l7 -21v21h-7zM1157 846q1 -19 14 -41q-2 21 -14 41zM1047 805l-7 -61q5 -29 21 -55l-7 75l7 21q-2 14 -14 20zM1150 730l14 -21 q-3 14 -14 21zM287 477v-28l27 14zM184 435v14h-7zM390 394q6 -32 34 -61zM232 381q1 -10 14 -14q-3 7 -14 14zM622 346v-13l14 6zM910 326v-14h7l28 7zM725 285l7 -35l14 14l-14 34zM855 298q6 -14 21 -20q-6 12 -21 20zM344 1533l-27 -17q-37 16 -81 14l-66 20v13 q0 13 1 25q4 41 21 77l36 60l47 48q20 0 37 -6v-27l3 -5l31 22l-25 16l6 18l6 11l37 14l71 12l67 2l59 -24l23 -23l62 -29l69 -65l95 -30l-58 -34l70 16l66 36q29 41 21 104l58 26l52 13l50 -40l3 -56q-10 -34 -25 -58q-4 -34 -13 -65l-49 -62q-10 11 -36 -6l-6 -18 l-118 -41q-28 3 -45 15q-36 6 -68 18l-62 21q-35 17 -66 25l-25 43l-81 28q-32 18 -62 21l-38 -13l-31 -30zM1012 1703l2 -12l9 7zM938 1574l-9 -13q10 -4 19 0zM555 1757q16 -6 27 0q-14 6 -27 0zM411 1779q42 -11 78 3q-42 4 -78 -3zM551 1653l-3 4l-13 -10l14 -10z M227 1644l-10 -14l17 6z" />
<glyph unicode="&#xd6;" horiz-adv-x="1238" d="M643 1353l103 -20l14 14q36 -23 68 -69q22 11 48 14l27 -34l-13 -21q28 1 55 14l27 -35q20 -39 55 -68q50 -32 75 -89q41 -42 69 -96l13 -110l-13 -7v-13h7l20 -96l-7 -14l-27 -123q-14 -54 -48 -117l-62 -102q-33 -39 -82 -76q-38 -42 -96 -68l-110 -55l-137 -21h-68 l-21 -7l-157 62q-51 20 -103 62q-46 27 -89 75q-36 40 -69 89q-28 47 -48 117q-22 47 -27 109l-7 21l7 62l-7 54q5 69 41 131q4 45 28 102q20 48 61 103l89 75q46 34 110 55l55 35l27 -42q25 41 76 62q53 6 116 27zM855 1237q7 -23 21 -48l7 41zM616 1155q-31 -26 -76 -48 l-55 -7l-6 34q-28 -20 -42 -55l-68 -48q-26 -13 -41 -41l20 -54l-34 -14l-41 -7l-14 7q3 -16 14 -28l21 -13l-14 -48q-5 -36 -21 -76l-13 -61q32 -17 34 -55l27 -69l48 -75l55 -62l55 -27l68 -21l83 -6l6 -28l138 48l137 89l41 76l54 54q-15 37 -20 83l7 96q-6 45 -21 95 q-15 39 -27 90q-34 11 -69 34l-55 61l-20 35l-34 -21l-83 21zM992 1141l7 -55l14 41zM869 1114q3 -16 14 -28q-1 15 -14 28zM273 970l7 -21v21h-7zM1157 846q1 -19 14 -41q-2 21 -14 41zM1047 805l-7 -61q5 -29 21 -55l-7 75l7 21q-2 14 -14 20zM1150 730l14 -21 q-3 14 -14 21zM287 477v-28l27 14zM184 435v14h-7zM390 394q6 -32 34 -61zM232 381q1 -10 14 -14q-3 7 -14 14zM622 346v-13l14 6zM910 326v-14h7l28 7zM725 285l7 -35l14 14l-14 34zM855 298q6 -14 21 -20q-6 12 -21 20zM394 1790l119 -21q40 -22 64 -71l13 -48 q-16 -49 -6 -78q-21 -12 -49 -14l-92 -21l-21 7q-47 6 -63 49q5 24 7 56q-3 12 -14 21l7 28q0 46 35 92zM763 1755l28 8q-3 10 9 7q32 2 56 7q43 -15 49 -62l7 -21l-20 -92q-1 -28 -13 -50q-29 10 -80 -6l-46 12q-50 24 -72 64l-10 97q46 36 92 36z" />
<glyph unicode="&#xd7;" />
<glyph unicode="&#xd8;" />
<glyph unicode="&#xd9;" horiz-adv-x="1279" d="M1199 1326q22 -24 33 -58l-18 -90q16 -37 25 -85l-9 -70l-1 -21h7l-10 -91l4 -71l-7 -20l7 -197l-8 -21l11 -288l-8 -21l5 -56q-21 -38 -59 -68l-55 9l-22 -13l-21 7q-49 8 -104 25l-6 43l-135 -59l-84 -4q-45 -19 -99 -24l-22 -7l-55 9q-45 14 -90 39l-98 24l-89 39 l-69 51q-31 27 -61 65l-39 86l-46 72q-8 47 -25 99l-11 71l8 27l-7 204l11 105l-3 105l20 175l91 4l49 -9l21 6l21 -1q32 -19 62 -51l6 -28l-17 -77l-59 -61q17 -14 41 -29l14 -22l-9 -63l-16 -94l-10 -77l34 -248q18 -41 46 -78q29 -26 69 -52l82 -45q37 -14 84 -24 q46 4 99 24l27 -15q54 -7 80 12l72 46l65 61l45 76l18 111l-6 22l16 48l-7 21l10 77l-6 29l-22 307l8 20l-7 15l8 6q19 33 51 55l105 3q35 11 65 40zM103 1281q1 -12 13 -22l22 20zM242 1262l-58 -68q-26 -24 -37 -55q30 26 58 61q24 25 37 62zM1026 1220l14 -15l-6 28z M1119 669l-8 -42l15 28v14h-7zM160 535q1 -15 13 -29zM1155 485q2 -14 13 -21q-2 14 -13 21zM577 232q16 -19 41 -29zM440 1741q24 76 72 91l75 -2q43 -8 75 3l42 -17l14 -49l-7 -13l21 -103q-1 -24 -3 -47q-2 -21 -6 -42q-20 -36 -7 -79l-21 -14l-61 7l-36 -2l-93 194z M496 1742l35 11l-5 14l-28 -4zM643 1539l29 11l8 13l-21 3l-35 -11z" />
<glyph unicode="&#xda;" horiz-adv-x="1279" d="M1199 1326q22 -24 33 -58l-18 -90q16 -37 25 -85l-9 -70l-1 -21h7l-10 -91l4 -71l-7 -20l7 -197l-8 -21l11 -288l-8 -21l5 -56q-21 -38 -59 -68l-55 9l-22 -13l-21 7q-49 8 -104 25l-6 43l-135 -59l-84 -4q-45 -19 -99 -24l-22 -7l-55 9q-45 14 -90 39l-98 24l-89 39 l-69 51q-31 27 -61 65l-39 86l-46 72q-8 47 -25 99l-11 71l8 27l-7 204l11 105l-3 105l20 175l91 4l49 -9l21 6l21 -1q32 -19 62 -51l6 -28l-17 -77l-59 -61q17 -14 41 -29l14 -22l-9 -63l-16 -94l-10 -77l34 -248q18 -41 46 -78q29 -26 69 -52l82 -45q37 -14 84 -24 q46 4 99 24l27 -15q54 -7 80 12l72 46l65 61l45 76l18 111l-6 22l16 48l-7 21l10 77l-6 29l-22 307l8 20l-7 15l8 6q19 33 51 55l105 3q35 11 65 40zM103 1281q1 -12 13 -22l22 20zM242 1262l-58 -68q-26 -24 -37 -55q30 26 58 61q24 25 37 62zM1026 1220l14 -15l-6 28z M1119 669l-8 -42l15 28v14h-7zM160 535q1 -15 13 -29zM1155 485q2 -14 13 -21q-2 14 -13 21zM577 232q16 -19 41 -29zM828 1690l-137 -248l-35 5h-63l-19 16q-11 42 -26 80q17 53 20 102l32 100l-6 15l19 46l26 -16q47 15 91 18l76 -5q45 -20 48 -61zM598 1562l35 11l-5 14 l-27 -4zM683 1586l29 11l8 13l-21 3l-35 -11z" />
<glyph unicode="&#xdb;" horiz-adv-x="1279" d="M1199 1326q22 -24 33 -58l-18 -90q16 -37 25 -85l-9 -70l-1 -21h7l-10 -91l4 -71l-7 -20l7 -197l-8 -21l11 -288l-8 -21l5 -56q-21 -38 -59 -68l-55 9l-22 -13l-21 7q-49 8 -104 25l-6 43l-135 -59l-84 -4q-45 -19 -99 -24l-22 -7l-55 9q-45 14 -90 39l-98 24l-89 39 l-69 51q-31 27 -61 65l-39 86l-46 72q-8 47 -25 99l-11 71l8 27l-7 204l11 105l-3 105l20 175l91 4l49 -9l21 6l21 -1q32 -19 62 -51l6 -28l-17 -77l-59 -61q17 -14 41 -29l14 -22l-9 -63l-16 -94l-10 -77l34 -248q18 -41 46 -78q29 -26 69 -52l82 -45q37 -14 84 -24 q46 4 99 24l27 -15q54 -7 80 12l72 46l65 61l45 76l18 111l-6 22l16 48l-7 21l10 77l-6 29l-22 307l8 20l-7 15l8 6q19 33 51 55l105 3q35 11 65 40zM103 1281q1 -12 13 -22l22 20zM242 1262l-58 -68q-26 -24 -37 -55q30 26 58 61q24 25 37 62zM1026 1220l14 -15l-6 28z M1119 669l-8 -42l15 28v14h-7zM160 535q1 -15 13 -29zM1155 485q2 -14 13 -21q-2 14 -13 21zM577 232q16 -19 41 -29zM537 1450l-6 -6q-11 5 -15 39l-14 -16q3 -12 -3 -10l-11 -1l-7 -3q-8 -1 -14 -5l-7 5q0 11 23 72l11 23l8 26l50 119q5 12 7 22l13 22v5q1 13 6 24l18 46 l7 5v-2l26 -2l4 3v-2l35 -2l12 3l2 -4h2l6 -2l20 5q8 -13 12 -25l23 -77l5 -26q10 -10 23 -44l12 -34l18 -37l23 -42l12 -40l5 -35l-24 -4l-6 -2l-27 2l-3 -2l-53 5q-5 14 -12 24q-12 41 -22 72q-1 17 37 31q-20 2 -45 -8l-15 53l-14 33l-16 -34l-18 -49l-16 -17 q-5 -39 -23 -71l-1 -15q-15 -21 -24 -29q-11 5 -22 7h-2z" />
<glyph unicode="&#xdc;" horiz-adv-x="1279" d="M1199 1326q22 -24 33 -58l-18 -90q16 -37 25 -85l-9 -70l-1 -21h7l-10 -91l4 -71l-7 -20l7 -197l-8 -21l11 -288l-8 -21l5 -56q-21 -38 -59 -68l-55 9l-22 -13l-21 7q-49 8 -104 25l-6 43l-135 -59l-84 -4q-45 -19 -99 -24l-22 -7l-55 9q-45 14 -90 39l-98 24l-89 39 l-69 51q-31 27 -61 65l-39 86l-46 72q-8 47 -25 99l-11 71l8 27l-7 204l11 105l-3 105l20 175l91 4l49 -9l21 6l21 -1q32 -19 62 -51l6 -28l-17 -77l-59 -61q17 -14 41 -29l14 -22l-9 -63l-16 -94l-10 -77l34 -248q18 -41 46 -78q29 -26 69 -52l82 -45q37 -14 84 -24 q46 4 99 24l27 -15q54 -7 80 12l72 46l65 61l45 76l18 111l-6 22l16 48l-7 21l10 77l-6 29l-22 307l8 20l-7 15l8 6q19 33 51 55l105 3q35 11 65 40zM103 1281q1 -12 13 -22l22 20zM242 1262l-58 -68q-26 -24 -37 -55q30 26 58 61q24 25 37 62zM1026 1220l14 -15l-6 28z M1119 669l-8 -42l15 28v14h-7zM160 535q1 -15 13 -29zM1155 485q2 -14 13 -21q-2 14 -13 21zM577 232q16 -19 41 -29zM399 1790l119 -21q40 -22 64 -71l13 -48q-16 -49 -6 -78q-21 -12 -49 -14l-92 -21l-21 7q-47 6 -63 49q5 24 7 56q-3 12 -14 21l7 28q0 46 35 92z M767 1755l28 8q-2 10 10 7q32 2 55 7q44 -15 50 -62l7 -21l-20 -92q-2 -28 -13 -49q-30 9 -80 -7l-47 12q-49 24 -71 64l-10 98q45 35 91 35z" />
<glyph unicode="&#xdd;" />
<glyph unicode="&#xde;" />
<glyph unicode="&#xdf;" horiz-adv-x="1204" d="M640 1585l40 35l-38 4l-55 -59zM615 608q-36 -23 -46 -54q43 15 46 54zM198 932v30l-30 71l-15 -29l30 -72h15zM276 1532l-35 55l28 -98zM177 482v13l-14 7l7 -20h7zM190 660l21 -35q-6 22 -21 35zM790 1291l-58 44l29 -66zM127 201l-39 8l-14 20l7 126l-14 137l19 158 l-13 112l-13 111l-6 143l6 130q0 66 -13 143l7 143l34 43l21 55l39 64q49 25 79 61l93 51q118 7 170 10l120 -14l88 -18l34 -31q30 -45 59 -88q35 -37 62 -77l18 -84l-9 -2q16 -16 24 -44q-5 -32 -7 -74q3 -15 14 -27l-7 -37q-38 -78 -145 -153l31 -12q61 -14 87 -46 l113 -74l66 -47l54 -50l47 -94l16 -55l-8 -15q6 -54 24 -78l-16 -94l-39 -93q-26 -38 -63 -71q-29 -36 -71 -70l-46 -16v-28q-13 -20 -91 -47l-63 105l-1 -71l-21 -7l-46 -14q-95 16 -200 89l-38 71q-34 65 -36 132q5 76 -20 121q11 61 35 107l78 -29q49 22 68 22 q36 -38 43 -86q-11 -72 10 -132q34 -90 123 -64l91 5l48 53l22 75l-13 113q-48 76 -98 133q-60 49 -121 74q-90 43 -176 81l-32 48l11 73q34 45 13 47l7 29l18 6l87 46q70 65 36 152l-34 86l-48 34q-74 62 -115 30l-62 -12l-72 -47q-58 -51 -41 -86q-19 -49 -27 -116 l13 -102l-7 -20l7 -62l7 -95l-20 -68l20 -218l7 -62l-44 -5l7 -21l22 -33l15 -97l-7 -103l14 -105l-45 -63l-91 3l-21 95l-24 -75z" />
<glyph unicode="&#xe0;" horiz-adv-x="1248" d="M43 155zM976 1357l90 -7l90 7l34 -7l-14 -42l14 -103l-7 -14v-14l-7 -20l7 -70l7 -20l-7 -62l21 -76l7 -90l-7 -56l7 -20v-76q-6 -32 -21 -69l14 -83l-14 -62q6 -36 7 -83l-7 -69l7 -76l14 -35l-28 -21l-41 -20l-21 13l-83 7q-39 6 -55 49q-14 22 -42 27l-55 -41l-69 -28 l-62 7l-62 -34q-32 -3 -69 -14l-69 21q-35 1 -70 20l-124 49q-20 13 -48 13l-28 28q-27 18 -62 35q-12 32 -35 62l-82 110l-28 63q-2 32 -14 69l-21 138l7 20l7 76q6 41 21 83l21 69l34 63l49 131l34 28q10 -7 14 -21q24 12 41 34l132 56q32 8 69 27l138 14l21 -7 q33 -1 69 -14l55 7l14 -7q13 -20 13 -48l42 -21l-21 55q1 9 14 14l90 -69q27 -4 55 -27q11 23 14 48l-7 62zM1045 1295v13h-7zM1114 1302q4 -19 21 -35q-6 18 -21 35zM479 1288l-14 -21l34 14zM354 1233l-7 -21h14l7 21h-14zM879 1226q2 -9 14 -14q-2 7 -14 14zM962 1212 l7 -21v21h-7zM734 1184l7 -55l7 7l21 -7q-12 29 -35 55zM1010 1184l-13 -27l27 6zM679 1177l-7 -20h14v20h-7zM244 1157q6 -14 20 -21q-5 14 -20 21zM603 1122q-12 -31 -35 -55l-20 41l-28 -14q-38 -7 -83 -27q-16 -32 -48 -62l-62 -42l-28 -69l-14 -62q-7 -39 -27 -83 q9 -32 27 -69l21 -55l-14 -21q10 -20 28 -35q13 -28 13 -62q39 -15 70 -48q33 -11 69 -35l83 -7l-7 63l34 -7q17 -33 42 -56l89 -13l76 34q29 20 49 55l-7 21l7 14l34 7q2 -7 14 -14q28 14 48 41q13 34 35 70q18 35 28 82l-14 90q-9 34 -28 69l-34 69l-49 63l-62 48 q-21 22 -55 34zM845 1108v-14h7v14h-7zM1128 1094q1 -27 14 -55q-2 28 -14 55zM865 1087q9 -27 35 -48zM306 998l-14 -21q13 7 14 21zM112 908l-6 -21l13 -7zM1017 694l14 -21q-2 14 -14 21zM1156 694l6 -21v21h-6zM1038 673q3 -17 21 -28zM1135 438q2 -21 14 -41l7 27 q-14 12 -21 14zM499 383q2 -9 14 -14q-1 9 -14 14zM440 1740q24 77 71 92l75 -3q44 -7 76 4l42 -17l14 -49l-7 -13l21 -103q-1 -24 -3 -47q-2 -22 -6 -42q-20 -37 -7 -79l-21 -14l-61 7l-36 -2l-93 194zM496 1742l35 11l-5 14l-28 -4zM643 1539l29 11l8 13l-21 3l-35 -11z " />
<glyph unicode="&#xe1;" horiz-adv-x="1248" d="M40 155zM973 1357l90 -7l90 7l34 -7l-14 -42l14 -103l-7 -14v-14l-7 -20l7 -70l7 -20l-7 -62l21 -76l7 -90l-7 -56l7 -20v-76q-6 -32 -21 -69l14 -83l-14 -62q6 -36 7 -83l-7 -69l7 -76l14 -35l-28 -21l-41 -20l-21 13l-83 7q-39 6 -55 49q-14 22 -42 27l-55 -41l-69 -28 l-62 7l-62 -34q-32 -3 -69 -14l-69 21q-35 1 -70 20l-124 49q-20 13 -48 13l-28 28q-27 18 -62 35q-12 32 -35 62l-82 110l-28 63q-2 32 -14 69l-21 138l7 20l7 76q6 41 21 83l21 69l34 63l49 131l34 28q10 -7 14 -21q24 12 41 34l132 56q32 8 69 27l138 14l21 -7 q33 -1 69 -14l55 7l14 -7q13 -20 13 -48l42 -21l-21 55q1 9 14 14l90 -69q27 -4 55 -27q11 23 14 48l-7 62zM1042 1295v13h-7zM1111 1302q4 -19 21 -35q-6 18 -21 35zM476 1288l-14 -21l34 14zM351 1233l-7 -21h14l7 21h-14zM876 1226q2 -9 14 -14q-2 7 -14 14zM959 1212 l7 -21v21h-7zM731 1184l7 -55l7 7l21 -7q-12 29 -35 55zM1007 1184l-13 -27l27 6zM676 1177l-7 -20h14v20h-7zM241 1157q6 -14 20 -21q-5 14 -20 21zM600 1122q-12 -31 -35 -55l-20 41l-28 -14q-38 -7 -83 -27q-16 -32 -48 -62l-62 -42l-28 -69l-14 -62q-7 -39 -27 -83 q9 -32 27 -69l21 -55l-14 -21q10 -20 28 -35q13 -28 13 -62q39 -15 70 -48q33 -11 69 -35l83 -7l-7 63l34 -7q17 -33 42 -56l89 -13l76 34q29 20 49 55l-7 21l7 14l34 7q2 -7 14 -14q28 14 48 41q13 34 35 70q18 35 28 82l-14 90q-9 34 -28 69l-34 69l-49 63l-62 48 q-21 22 -55 34zM842 1108v-14h7v14h-7zM1125 1094q1 -27 14 -55q-2 28 -14 55zM862 1087q9 -27 35 -48zM303 998l-14 -21q13 7 14 21zM109 908l-6 -21l13 -7zM1014 694l14 -21q-2 14 -14 21zM1153 694l6 -21v21h-6zM1035 673q3 -17 21 -28zM1132 438q2 -21 14 -41l7 27 q-14 12 -21 14zM496 383q2 -9 14 -14q-1 9 -14 14zM782 1689l-137 -247l-35 5l-63 -1l-19 16q-11 43 -26 81q17 53 20 102l32 100l-6 14l19 47l26 -16q48 15 91 18l76 -5q46 -20 49 -61zM553 1562l35 11l-5 14l-28 -4zM637 1586l29 11l8 13l-21 3l-35 -11z" />
<glyph unicode="&#xe2;" horiz-adv-x="1248" d="M40 155zM973 1357l90 -7l90 7l34 -7l-14 -42l14 -103l-7 -14v-14l-7 -20l7 -70l7 -20l-7 -62l21 -76l7 -90l-7 -56l7 -20v-76q-6 -32 -21 -69l14 -83l-14 -62q6 -36 7 -83l-7 -69l7 -76l14 -35l-28 -21l-41 -20l-21 13l-83 7q-39 6 -55 49q-14 22 -42 27l-55 -41l-69 -28 l-62 7l-62 -34q-32 -3 -69 -14l-69 21q-35 1 -70 20l-124 49q-20 13 -48 13l-28 28q-27 18 -62 35q-12 32 -35 62l-82 110l-28 63q-2 32 -14 69l-21 138l7 20l7 76q6 41 21 83l21 69l34 63l49 131l34 28q10 -7 14 -21q24 12 41 34l132 56q32 8 69 27l138 14l21 -7 q33 -1 69 -14l55 7l14 -7q13 -20 13 -48l42 -21l-21 55q1 9 14 14l90 -69q27 -4 55 -27q11 23 14 48l-7 62zM1042 1295v13h-7zM1111 1302q4 -19 21 -35q-6 18 -21 35zM476 1288l-14 -21l34 14zM351 1233l-7 -21h14l7 21h-14zM876 1226q2 -9 14 -14q-2 7 -14 14zM959 1212 l7 -21v21h-7zM731 1184l7 -55l7 7l21 -7q-12 29 -35 55zM1007 1184l-13 -27l27 6zM676 1177l-7 -20h14v20h-7zM241 1157q6 -14 20 -21q-5 14 -20 21zM600 1122q-12 -31 -35 -55l-20 41l-28 -14q-38 -7 -83 -27q-16 -32 -48 -62l-62 -42l-28 -69l-14 -62q-7 -39 -27 -83 q9 -32 27 -69l21 -55l-14 -21q10 -20 28 -35q13 -28 13 -62q39 -15 70 -48q33 -11 69 -35l83 -7l-7 63l34 -7q17 -33 42 -56l89 -13l76 34q29 20 49 55l-7 21l7 14l34 7q2 -7 14 -14q28 14 48 41q13 34 35 70q18 35 28 82l-14 90q-9 34 -28 69l-34 69l-49 63l-62 48 q-21 22 -55 34zM842 1108v-14h7v14h-7zM1125 1094q1 -27 14 -55q-2 28 -14 55zM862 1087q9 -27 35 -48zM303 998l-14 -21q13 7 14 21zM109 908l-6 -21l13 -7zM1014 694l14 -21q-2 14 -14 21zM1153 694l6 -21v21h-6zM1035 673q3 -17 21 -28zM1132 438q2 -21 14 -41l7 27 q-14 12 -21 14zM496 383q2 -9 14 -14q-1 9 -14 14zM502 1450l-6 -6q-11 5 -15 39l-14 -16q3 -12 -3 -10l-11 -1l-7 -3q-8 -1 -14 -5l-7 5q0 11 23 72l11 23l8 26l50 119q5 12 7 22l13 22v5q1 13 6 24l18 46l7 5v-2l26 -2l4 3v-2l35 -2l12 3l2 -4h2l6 -2l20 5q8 -13 12 -25 l23 -77l5 -26q10 -10 23 -44l12 -34l18 -37l23 -42l12 -40l5 -35l-24 -4l-6 -2l-26 2l-4 -2l-53 5q-5 14 -12 24q-12 41 -22 72q0 18 37 31q-19 2 -45 -8l-15 53l-14 33l-16 -34l-18 -49l-16 -17q-5 -39 -23 -71l-1 -15q-15 -21 -24 -29q-11 5 -22 7h-2z" />
<glyph unicode="&#xe3;" horiz-adv-x="1248" d="M40 155zM973 1357l90 -7l90 7l34 -7l-14 -42l14 -103l-7 -14v-14l-7 -20l7 -70l7 -20l-7 -62l21 -76l7 -90l-7 -56l7 -20v-76q-6 -32 -21 -69l14 -83l-14 -62q6 -36 7 -83l-7 -69l7 -76l14 -35l-28 -21l-41 -20l-21 13l-83 7q-39 6 -55 49q-14 22 -42 27l-55 -41l-69 -28 l-62 7l-62 -34q-32 -3 -69 -14l-69 21q-35 1 -70 20l-124 49q-20 13 -48 13l-28 28q-27 18 -62 35q-12 32 -35 62l-82 110l-28 63q-2 32 -14 69l-21 138l7 20l7 76q6 41 21 83l21 69l34 63l49 131l34 28q10 -7 14 -21q24 12 41 34l132 56q32 8 69 27l138 14l21 -7 q33 -1 69 -14l55 7l14 -7q13 -20 13 -48l42 -21l-21 55q1 9 14 14l90 -69q27 -4 55 -27q11 23 14 48l-7 62zM1042 1295v13h-7zM1111 1302q4 -19 21 -35q-6 18 -21 35zM476 1288l-14 -21l34 14zM351 1233l-7 -21h14l7 21h-14zM876 1226q2 -9 14 -14q-2 7 -14 14zM959 1212 l7 -21v21h-7zM731 1184l7 -55l7 7l21 -7q-12 29 -35 55zM1007 1184l-13 -27l27 6zM676 1177l-7 -20h14v20h-7zM241 1157q6 -14 20 -21q-5 14 -20 21zM600 1122q-12 -31 -35 -55l-20 41l-28 -14q-38 -7 -83 -27q-16 -32 -48 -62l-62 -42l-28 -69l-14 -62q-7 -39 -27 -83 q9 -32 27 -69l21 -55l-14 -21q10 -20 28 -35q13 -28 13 -62q39 -15 70 -48q33 -11 69 -35l83 -7l-7 63l34 -7q17 -33 42 -56l89 -13l76 34q29 20 49 55l-7 21l7 14l34 7q2 -7 14 -14q28 14 48 41q13 34 35 70q18 35 28 82l-14 90q-9 34 -28 69l-34 69l-49 63l-62 48 q-21 22 -55 34zM842 1108v-14h7v14h-7zM1125 1094q1 -27 14 -55q-2 28 -14 55zM862 1087q9 -27 35 -48zM303 998l-14 -21q13 7 14 21zM109 908l-6 -21l13 -7zM1014 694l14 -21q-2 14 -14 21zM1153 694l6 -21v21h-6zM1035 673q3 -17 21 -28zM1132 438q2 -21 14 -41l7 27 q-14 12 -21 14zM496 383q2 -9 14 -14q-1 9 -14 14zM381 1533l-27 -17q-37 16 -81 14l-66 20v13q0 13 1 25q4 41 21 77l36 60l47 48q20 0 37 -6v-27l3 -5l31 22l-25 16l6 18l6 11l37 14l71 12l67 2l59 -24l23 -23l62 -29l69 -65l95 -30l-58 -34l70 16l66 36q29 41 21 104 l58 26l52 13l50 -40l3 -56q-10 -34 -25 -58q-4 -34 -13 -65l-49 -62q-10 11 -36 -6l-6 -18l-118 -41q-28 3 -45 15q-36 6 -68 18l-62 21q-35 17 -66 25l-25 43l-81 28q-32 18 -62 21l-38 -13l-31 -30zM1049 1703l2 -12l9 7zM975 1574l-9 -13q10 -4 19 0zM592 1757 q16 -6 27 0q-14 6 -27 0zM448 1779q42 -11 78 3q-42 4 -78 -3zM588 1653l-3 4l-13 -10l14 -10zM264 1644l-10 -14l17 6z" />
<glyph unicode="&#xe4;" horiz-adv-x="1248" d="M40 155zM973 1357l90 -7l90 7l34 -7l-14 -42l14 -103l-7 -14v-14l-7 -20l7 -70l7 -20l-7 -62l21 -76l7 -90l-7 -56l7 -20v-76q-6 -32 -21 -69l14 -83l-14 -62q6 -36 7 -83l-7 -69l7 -76l14 -35l-28 -21l-41 -20l-21 13l-83 7q-39 6 -55 49q-14 22 -42 27l-55 -41l-69 -28 l-62 7l-62 -34q-32 -3 -69 -14l-69 21q-35 1 -70 20l-124 49q-20 13 -48 13l-28 28q-27 18 -62 35q-12 32 -35 62l-82 110l-28 63q-2 32 -14 69l-21 138l7 20l7 76q6 41 21 83l21 69l34 63l49 131l34 28q10 -7 14 -21q24 12 41 34l132 56q32 8 69 27l138 14l21 -7 q33 -1 69 -14l55 7l14 -7q13 -20 13 -48l42 -21l-21 55q1 9 14 14l90 -69q27 -4 55 -27q11 23 14 48l-7 62zM1042 1295v13h-7zM1111 1302q4 -19 21 -35q-6 18 -21 35zM476 1288l-14 -21l34 14zM351 1233l-7 -21h14l7 21h-14zM876 1226q2 -9 14 -14q-2 7 -14 14zM959 1212 l7 -21v21h-7zM731 1184l7 -55l7 7l21 -7q-12 29 -35 55zM1007 1184l-13 -27l27 6zM676 1177l-7 -20h14v20h-7zM241 1157q6 -14 20 -21q-5 14 -20 21zM600 1122q-12 -31 -35 -55l-20 41l-28 -14q-38 -7 -83 -27q-16 -32 -48 -62l-62 -42l-28 -69l-14 -62q-7 -39 -27 -83 q9 -32 27 -69l21 -55l-14 -21q10 -20 28 -35q13 -28 13 -62q39 -15 70 -48q33 -11 69 -35l83 -7l-7 63l34 -7q17 -33 42 -56l89 -13l76 34q29 20 49 55l-7 21l7 14l34 7q2 -7 14 -14q28 14 48 41q13 34 35 70q18 35 28 82l-14 90q-9 34 -28 69l-34 69l-49 63l-62 48 q-21 22 -55 34zM842 1108v-14h7v14h-7zM1125 1094q1 -27 14 -55q-2 28 -14 55zM862 1087q9 -27 35 -48zM303 998l-14 -21q13 7 14 21zM109 908l-6 -21l13 -7zM1014 694l14 -21q-2 14 -14 21zM1153 694l6 -21v21h-6zM1035 673q3 -17 21 -28zM1132 438q2 -21 14 -41l7 27 q-14 12 -21 14zM496 383q2 -9 14 -14q-1 9 -14 14zM385 1790l119 -21q40 -22 64 -71l13 -48q-16 -49 -6 -78q-21 -12 -49 -14l-92 -21l-21 7q-47 6 -63 49q5 24 7 56q-3 12 -14 21l7 28q0 46 35 92zM754 1755l27 7q-2 10 10 7q32 3 56 8q43 -16 49 -63l7 -21l-20 -92 q-2 -28 -13 -49q-30 10 -80 -6l-46 12q-50 24 -72 63l-10 98q46 36 92 36z" />
<glyph unicode="&#xe5;" />
<glyph unicode="&#xe6;" />
<glyph unicode="&#xe7;" horiz-adv-x="1239" d="M40 0zM630 1361l100 -14q50 -8 114 -29q37 -26 85 -50q44 -10 50 -57q-23 -10 -43 -28l50 7q40 -9 78 -36q3 -36 36 -56l57 -86q-4 -52 -64 -57l-50 -21l57 7q40 -3 78 -14l-14 -22l-36 -28l-71 7l-78 -7l-22 36l-21 85q-47 9 -78 50q-42 17 -43 64l-78 -14l-29 7 l-163 14l-29 -14l-78 -57q-38 -26 -71 -64q-30 -39 -57 -86l-7 -128l-22 -28l43 -157l50 -85l64 -79l64 8q14 -16 36 -29l106 -7l29 -14l164 50l56 85q31 38 57 85q7 48 43 86q44 0 93 -22l78 29q24 -46 35 -107q-25 -45 -42 -99q-11 -46 -50 -86l-135 -149l-185 -86l-50 -7 l-21 7h-22l-21 -14q-40 17 -50 64q-30 -41 -85 -43l-193 79l-85 64l-71 71q-34 28 -57 78q-20 37 -36 86l-42 99l-7 64l28 29q-24 36 -35 85q22 35 35 78q17 42 29 93q19 44 49 92q26 31 43 79q38 26 78 64q35 29 79 50l149 71q19 -2 43 -14l35 -15zM353 1219 q-16 -17 -29 -43l21 7q20 13 36 36h-28zM267 1183q-20 -26 -50 -50q1 -20 22 -28q23 32 28 78zM210 1098l-7 -65l14 50zM943 1026q-1 10 -14 15q3 -8 14 -15zM281 1005l-14 -43l29 29q-2 9 -15 14zM296 984l-7 -22l14 7v15h-7zM139 799h14v14h-7zM160 706l15 -7v21h-7z M1128 642q2 -9 15 -14q-2 9 -15 14zM1029 628q1 -17 14 -29l7 29h-21zM281 542v-14h8v14h-8zM1107 521v14h-7zM1064 486q15 -14 36 -15zM915 450l-14 -29l28 -7q-2 18 -14 36zM986 379q6 -19 21 -36q-5 20 -21 36zM296 315q7 -16 28 -29q-9 15 -28 29zM374 308q5 -15 21 -22 q-6 13 -21 22zM632 141q9 0 17 -1l43 -20q6 -36 50 -79l34 -29q31 -9 65 -59l14 -39l7 -37l-8 -58q-6 -21 -17 -41l-23 -41q-21 -12 -37 -29q-26 -8 -46 -12l-38 -29l-12 -4l-8 -4l-33 4l-50 -9l-54 13q-30 4 -69 41l-24 42q-15 22 -21 45l-21 46q4 20 13 37q23 13 73 11 q21 -16 33 -33l17 -54q17 -13 58 -27l45 -4l55 10l27 52q34 36 -6 93q-16 20 -50 49l-50 49q-49 35 -42 101q27 16 58 16z" />
<glyph unicode="&#xe8;" horiz-adv-x="1230" d="M40 165zM541 1364l56 -7l14 7h21l91 -21l90 -7q31 -21 70 -34l63 -42q31 -20 62 -49l56 -56q22 -32 42 -77l42 -69l14 -63l-14 -21l-35 14l14 -35q39 -5 49 -49l14 -90l-7 -91q-21 -32 -63 -35h-70l-14 35l-14 -28l-62 -21l-98 -14l-167 21l-21 -7l-63 14l-21 -14l-76 -7 l-77 7l-42 21l-28 -21q-44 0 -69 -41l188 -147l160 -35l91 7q36 13 76 35l77 35l63 14l21 -14l76 -84q-1 -29 -14 -62l-132 -91l-70 -28q-37 -15 -83 -28q-41 -13 -91 -21l-91 14q-35 6 -76 21q-35 4 -77 21l-77 35q-36 12 -69 42q-28 27 -63 48l-56 56q-22 26 -42 63 l-41 70l-28 181l7 21l-7 63l7 90l34 84q10 33 28 70l35 76q23 27 56 56l49 63l69 42l147 62q35 6 76 21zM967 1176q-2 9 -14 14q2 -7 14 -14zM430 1162q1 -15 14 -28q0 15 -14 28zM597 1148l-118 -42l-91 -48l-63 -7l21 -35q-21 -51 -55 -105l-7 -70l48 -7l126 28v-14l77 7 h20l42 -21l-35 -41q43 28 98 55l125 14l63 -7l126 14q-17 16 -28 42q-18 49 -63 98q-28 34 -77 69q-23 20 -41 49l-49 -14q-55 8 -119 35zM1029 1092l14 -14l-7 28zM1064 1037q5 -20 21 -35q-6 16 -21 35zM256 1016q6 -13 21 -14zM123 925v14h-7zM130 918q-13 -17 -14 -42 l28 21zM200 876q2 -9 14 -14q-2 10 -14 14zM1022 855q2 -9 14 -14q-1 10 -14 14zM88 800l7 -21l7 21h-14zM486 793v-14l14 7zM660 709q-18 -9 -28 -28q18 7 28 28zM95 639v-14l14 7zM270 549q5 -18 21 -35q-4 19 -21 35zM249 395q2 -9 14 -14q-2 10 -14 14zM667 353 q3 -15 14 -27l7 20zM339 326q1 -15 14 -28q0 15 -14 28zM458 326l-7 -21l21 14zM444 291q6 -10 21 -14zM432 1740q24 77 71 92l75 -3q44 -7 76 4l42 -17l14 -49l-7 -13l21 -103q-1 -24 -3 -47q-2 -22 -6 -42q-20 -37 -7 -79l-21 -14l-61 7l-36 -2l-93 194zM488 1742l35 11 l-5 14l-28 -4zM635 1539l29 11l8 13l-21 3l-35 -11z" />
<glyph unicode="&#xe9;" horiz-adv-x="1230" d="M40 165zM541 1364l56 -7l14 7h21l91 -21l90 -7q31 -21 70 -34l63 -42q31 -20 62 -49l56 -56q22 -32 42 -77l42 -69l14 -63l-14 -21l-35 14l14 -35q39 -5 49 -49l14 -90l-7 -91q-21 -32 -63 -35h-70l-14 35l-14 -28l-62 -21l-98 -14l-167 21l-21 -7l-63 14l-21 -14l-76 -7 l-77 7l-42 21l-28 -21q-44 0 -69 -41l188 -147l160 -35l91 7q36 13 76 35l77 35l63 14l21 -14l76 -84q-1 -29 -14 -62l-132 -91l-70 -28q-37 -15 -83 -28q-41 -13 -91 -21l-91 14q-35 6 -76 21q-35 4 -77 21l-77 35q-36 12 -69 42q-28 27 -63 48l-56 56q-22 26 -42 63 l-41 70l-28 181l7 21l-7 63l7 90l34 84q10 33 28 70l35 76q23 27 56 56l49 63l69 42l147 62q35 6 76 21zM967 1176q-2 9 -14 14q2 -7 14 -14zM430 1162q1 -15 14 -28q0 15 -14 28zM597 1148l-118 -42l-91 -48l-63 -7l21 -35q-21 -51 -55 -105l-7 -70l48 -7l126 28v-14l77 7 h20l42 -21l-35 -41q43 28 98 55l125 14l63 -7l126 14q-17 16 -28 42q-18 49 -63 98q-28 34 -77 69q-23 20 -41 49l-49 -14q-55 8 -119 35zM1029 1092l14 -14l-7 28zM1064 1037q5 -20 21 -35q-6 16 -21 35zM256 1016q6 -13 21 -14zM123 925v14h-7zM130 918q-13 -17 -14 -42 l28 21zM200 876q2 -9 14 -14q-2 10 -14 14zM1022 855q2 -9 14 -14q-1 10 -14 14zM88 800l7 -21l7 21h-14zM486 793v-14l14 7zM660 709q-18 -9 -28 -28q18 7 28 28zM95 639v-14l14 7zM270 549q5 -18 21 -35q-4 19 -21 35zM249 395q2 -9 14 -14q-2 10 -14 14zM667 353 q3 -15 14 -27l7 20zM339 326q1 -15 14 -28q0 15 -14 28zM458 326l-7 -21l21 14zM444 291q6 -10 21 -14zM811 1689l-137 -247l-35 5l-63 -1l-19 16q-11 43 -26 81q17 53 20 102l32 100l-6 14l19 47l26 -16q48 15 91 18l76 -5q46 -20 49 -61zM582 1562l35 11l-5 14l-28 -4z M666 1586l29 11l8 13l-21 3l-35 -11z" />
<glyph unicode="&#xea;" horiz-adv-x="1230" d="M40 165zM541 1364l56 -7l14 7h21l91 -21l90 -7q31 -21 70 -34l63 -42q31 -20 62 -49l56 -56q22 -32 42 -77l42 -69l14 -63l-14 -21l-35 14l14 -35q39 -5 49 -49l14 -90l-7 -91q-21 -32 -63 -35h-70l-14 35l-14 -28l-62 -21l-98 -14l-167 21l-21 -7l-63 14l-21 -14l-76 -7 l-77 7l-42 21l-28 -21q-44 0 -69 -41l188 -147l160 -35l91 7q36 13 76 35l77 35l63 14l21 -14l76 -84q-1 -29 -14 -62l-132 -91l-70 -28q-37 -15 -83 -28q-41 -13 -91 -21l-91 14q-35 6 -76 21q-35 4 -77 21l-77 35q-36 12 -69 42q-28 27 -63 48l-56 56q-22 26 -42 63 l-41 70l-28 181l7 21l-7 63l7 90l34 84q10 33 28 70l35 76q23 27 56 56l49 63l69 42l147 62q35 6 76 21zM967 1176q-2 9 -14 14q2 -7 14 -14zM430 1162q1 -15 14 -28q0 15 -14 28zM597 1148l-118 -42l-91 -48l-63 -7l21 -35q-21 -51 -55 -105l-7 -70l48 -7l126 28v-14l77 7 h20l42 -21l-35 -41q43 28 98 55l125 14l63 -7l126 14q-17 16 -28 42q-18 49 -63 98q-28 34 -77 69q-23 20 -41 49l-49 -14q-55 8 -119 35zM1029 1092l14 -14l-7 28zM1064 1037q5 -20 21 -35q-6 16 -21 35zM256 1016q6 -13 21 -14zM123 925v14h-7zM130 918q-13 -17 -14 -42 l28 21zM200 876q2 -9 14 -14q-2 10 -14 14zM1022 855q2 -9 14 -14q-1 10 -14 14zM88 800l7 -21l7 21h-14zM486 793v-14l14 7zM660 709q-18 -9 -28 -28q18 7 28 28zM95 639v-14l14 7zM270 549q5 -18 21 -35q-4 19 -21 35zM249 395q2 -9 14 -14q-2 10 -14 14zM667 353 q3 -15 14 -27l7 20zM339 326q1 -15 14 -28q0 15 -14 28zM458 326l-7 -21l21 14zM444 291q6 -10 21 -14zM506 1450l-6 -6q-11 5 -15 39l-14 -16q3 -12 -3 -10l-11 -1l-7 -3q-8 -1 -14 -5l-7 5q0 11 23 72l11 23l8 26l50 119q5 12 7 22l13 22v5q1 13 6 24l18 46l7 5v-2l26 -2 l4 3v-2l35 -2l12 3l2 -4h2l6 -2l20 5q8 -13 12 -25l23 -77l5 -26q10 -10 23 -44l12 -34l18 -37l23 -42l12 -40l5 -35l-24 -4l-6 -2l-26 2l-4 -2l-53 5q-5 14 -12 24q-12 41 -22 72q0 18 37 31q-19 2 -45 -8l-15 53l-14 33l-16 -34l-18 -49l-16 -17q-5 -39 -23 -71l-1 -15 q-15 -21 -24 -29q-11 5 -22 7h-2z" />
<glyph unicode="&#xeb;" horiz-adv-x="1230" d="M40 165zM541 1364l56 -7l14 7h21l91 -21l90 -7q31 -21 70 -34l63 -42q31 -20 62 -49l56 -56q22 -32 42 -77l42 -69l14 -63l-14 -21l-35 14l14 -35q39 -5 49 -49l14 -90l-7 -91q-21 -32 -63 -35h-70l-14 35l-14 -28l-62 -21l-98 -14l-167 21l-21 -7l-63 14l-21 -14l-76 -7 l-77 7l-42 21l-28 -21q-44 0 -69 -41l188 -147l160 -35l91 7q36 13 76 35l77 35l63 14l21 -14l76 -84q-1 -29 -14 -62l-132 -91l-70 -28q-37 -15 -83 -28q-41 -13 -91 -21l-91 14q-35 6 -76 21q-35 4 -77 21l-77 35q-36 12 -69 42q-28 27 -63 48l-56 56q-22 26 -42 63 l-41 70l-28 181l7 21l-7 63l7 90l34 84q10 33 28 70l35 76q23 27 56 56l49 63l69 42l147 62q35 6 76 21zM967 1176q-2 9 -14 14q2 -7 14 -14zM430 1162q1 -15 14 -28q0 15 -14 28zM597 1148l-118 -42l-91 -48l-63 -7l21 -35q-21 -51 -55 -105l-7 -70l48 -7l126 28v-14l77 7 h20l42 -21l-35 -41q43 28 98 55l125 14l63 -7l126 14q-17 16 -28 42q-18 49 -63 98q-28 34 -77 69q-23 20 -41 49l-49 -14q-55 8 -119 35zM1029 1092l14 -14l-7 28zM1064 1037q5 -20 21 -35q-6 16 -21 35zM256 1016q6 -13 21 -14zM123 925v14h-7zM130 918q-13 -17 -14 -42 l28 21zM200 876q2 -9 14 -14q-2 10 -14 14zM1022 855q2 -9 14 -14q-1 10 -14 14zM88 800l7 -21l7 21h-14zM486 793v-14l14 7zM660 709q-18 -9 -28 -28q18 7 28 28zM95 639v-14l14 7zM270 549q5 -18 21 -35q-4 19 -21 35zM249 395q2 -9 14 -14q-2 10 -14 14zM667 353 q3 -15 14 -27l7 20zM339 326q1 -15 14 -28q0 15 -14 28zM458 326l-7 -21l21 14zM444 291q6 -10 21 -14zM387 1790l119 -21q40 -22 64 -71l13 -48q-16 -49 -6 -78q-21 -12 -49 -14l-92 -21l-21 7q-47 6 -63 49q5 24 7 56q-3 12 -14 21l7 28q0 46 35 92zM756 1755l27 7 q-2 10 10 7q32 3 56 8q43 -16 49 -63l7 -21l-20 -92q-2 -28 -13 -49q-30 10 -80 -6l-46 12q-50 24 -72 63l-10 98q46 36 92 36z" />
<glyph unicode="&#xec;" horiz-adv-x="352" d="M0 153zM89 1340q23 -10 56 -14l21 7q38 -12 76 -35q33 -24 35 -70l7 -91l14 -20l-14 -49l-7 -77l14 -84l-14 -56l14 -21l7 -70l-14 -21l-21 -41l28 -21q10 -37 14 -84l-7 -91q7 -40 7 -91l7 -35l-14 -28v-20h7l7 -98q-6 -32 -21 -70l-104 -7q-32 2 -70 14q-41 9 -49 56 q12 24 21 56l-14 21l-7 90l14 98l-21 196l7 104l-14 98q13 24 21 56l-21 14l-14 84l28 84l21 41l-35 14l-14 70l7 21q14 35 42 70zM124 1082l-7 -42l28 28zM173 600l-7 -21l14 7v14h-7zM138 565l-7 -28l28 21zM221 558l-14 -35l28 21q-1 9 -14 14zM124 446q2 -9 14 -14 q-2 9 -14 14zM242 328l7 -14v14h-7zM-44 1740q24 77 71 92l75 -3q44 -7 76 4l42 -17l14 -49l-7 -13l21 -103q-1 -24 -3 -47q-2 -22 -6 -42q-20 -37 -7 -79l-21 -14l-61 7l-36 -2l-93 194zM12 1742l35 11l-5 14l-28 -4zM159 1539l29 11l8 13l-21 3l-35 -11z" />
<glyph unicode="&#xed;" horiz-adv-x="352" d="M40 153zM89 1340q23 -10 56 -14l21 7q38 -12 76 -35q33 -24 35 -70l7 -91l14 -20l-14 -49l-7 -77l14 -84l-14 -56l14 -21l7 -70l-14 -21l-21 -41l28 -21q10 -37 14 -84l-7 -91q7 -40 7 -91l7 -35l-14 -28v-20h7l7 -98q-6 -32 -21 -70l-104 -7q-32 2 -70 14q-41 9 -49 56 q12 24 21 56l-14 21l-7 90l14 98l-21 196l7 104l-14 98q13 24 21 56l-21 14l-14 84l28 84l21 41l-35 14l-14 70l7 21q14 35 42 70zM124 1082l-7 -42l28 28zM173 600l-7 -21l14 7v14h-7zM138 565l-7 -28l28 21zM221 558l-14 -35l28 21q-1 9 -14 14zM124 446q2 -9 14 -14 q-2 9 -14 14zM242 328l7 -14v14h-7zM354 1689l-137 -247l-35 5l-63 -1l-19 16q-11 43 -26 81q17 53 20 102l32 100l-6 14l19 47l26 -16q48 15 91 18l76 -5q46 -20 49 -61zM125 1562l35 11l-5 14l-28 -4zM209 1586l29 11l8 13l-21 3l-35 -11z" />
<glyph unicode="&#xee;" horiz-adv-x="352" d="M15 153zM89 1340q23 -10 56 -14l21 7q38 -12 76 -35q33 -24 35 -70l7 -91l14 -20l-14 -49l-7 -77l14 -84l-14 -56l14 -21l7 -70l-14 -21l-21 -41l28 -21q10 -37 14 -84l-7 -91q7 -40 7 -91l7 -35l-14 -28v-20h7l7 -98q-6 -32 -21 -70l-104 -7q-32 2 -70 14q-41 9 -49 56 q12 24 21 56l-14 21l-7 90l14 98l-21 196l7 104l-14 98q13 24 21 56l-21 14l-14 84l28 84l21 41l-35 14l-14 70l7 21q14 35 42 70zM124 1082l-7 -42l28 28zM173 600l-7 -21l14 7v14h-7zM138 565l-7 -28l28 21zM221 558l-14 -35l28 21q-1 9 -14 14zM124 446q2 -9 14 -14 q-2 9 -14 14zM242 328l7 -14v14h-7zM76.5986 1450q-2.40039 -3 -4.7998 -6q-8.7998 5 -12 39l-11.2002 -16q2.40039 -12 -2.39941 -10l-8.7998 -1l-5.60059 -3q-6.39941 -1 -11.1992 -5l-5.59961 5q0 11 18.3994 72l8.7998 23l6.39941 26l40 119q4 12 5.59961 22l10.3994 22 v5q0.800781 13 4.80078 24l14.3994 46l5.59961 5v-2l20.7998 -2l3.2002 3v-2l27.999 -2l9.60059 3l1.59961 -4h1.60059l4.7998 -2l15.999 5q6.40039 -13 9.60059 -25l18.3994 -77l4 -26q8 -10 18.3994 -44l9.59961 -34l14.4004 -37l18.3994 -42l9.59961 -40l4 -35 l-19.1992 -4l-4.7998 -2l-20.7998 2l-3.2002 -2l-42.3994 5q-4 14 -9.59961 24q-9.59961 41 -17.5996 72q0 18 29.5996 31q-15.2002 2 -36 -8l-12 53l-11.1992 33l-12.7998 -34l-14.4004 -49l-12.7998 -17q-4 -39 -18.3994 -71l-0.799805 -15q-12 -21 -19.2002 -29 q-8.7998 5 -17.5996 7h-1.59961z" />
<glyph unicode="&#xef;" horiz-adv-x="352" d="M0 153zM89 1340q23 -10 56 -14l21 7q38 -12 76 -35q33 -24 35 -70l7 -91l14 -20l-14 -49l-7 -77l14 -84l-14 -56l14 -21l7 -70l-14 -21l-21 -41l28 -21q10 -37 14 -84l-7 -91q7 -40 7 -91l7 -35l-14 -28v-20h7l7 -98q-6 -32 -21 -70l-104 -7q-32 2 -70 14q-41 9 -49 56 q12 24 21 56l-14 21l-7 90l14 98l-21 196l7 104l-14 98q13 24 21 56l-21 14l-14 84l28 84l21 41l-35 14l-14 70l7 21q14 35 42 70zM124 1082l-7 -42l28 28zM173 600l-7 -21l14 7v14h-7zM138 565l-7 -28l28 21zM221 558l-14 -35l28 21q-1 9 -14 14zM124 446q2 -9 14 -14 q-2 9 -14 14zM242 328l7 -14v14h-7zM-68 1790l119 -21q40 -22 64 -71l13 -48q-16 -49 -6 -78q-21 -12 -49 -14l-92 -21l-21 7q-47 6 -63 49q5 24 7 56q-3 12 -14 21l7 28q0 46 35 92zM301 1755l27 7q-2 10 10 7q32 3 56 8q43 -16 49 -63l7 -21l-20 -92q-2 -28 -13 -49 q-30 10 -80 -6l-46 12q-50 24 -72 63l-10 98q46 36 92 36z" />
<glyph unicode="&#xf0;" />
<glyph unicode="&#xf1;" horiz-adv-x="1302" d="M40 143zM198 1330q46 -9 93 -36l-7 -100l65 50l180 65l72 14l21 -7l101 7q44 -3 93 -14l87 -36q38 -17 79 -43l122 -115q21 -33 29 -79q43 -13 57 -65l36 -87q14 -38 15 -86l21 -93q-7 -51 -7 -116l7 -28l-21 -180l-15 -29l15 -65l-7 -100q-35 -27 -80 -44l-115 8 q-42 10 -50 57l14 180l-7 29l7 101l8 14l-15 36q9 86 22 129q-14 43 -22 94l-29 86q-16 35 -43 72q-18 39 -50 72q-35 24 -72 58l-173 14l-100 -22l-87 -35l-57 -65l-58 -187l-21 -187l21 -187l-7 -29l7 -79l15 -58l-15 -21q-19 -29 -57 -51q-38 -15 -87 -21l-100 21l-15 72 l7 29l-14 93l7 72l-7 22l-7 79l7 29l-14 180l7 79l-14 50l7 51v21l-7 79l7 29l-7 58l7 50l-7 65l7 21q18 33 50 58zM90 1280v-36l21 29zM723 1280q-22 -9 -36 -29l43 15l7 -29l36 29zM579 1273l-7 -29l14 -14l29 36zM824 1259q10 -19 28 -36q-8 21 -28 36zM97 1208l-7 -21 l14 -15l7 29zM97 1143q1 -15 14 -28l8 28h-22zM234 1107l-15 -36l22 8l7 28h-14zM924 1100q-13 -17 -14 -36q13 16 14 36zM406 1064v15h-7zM270 956q-13 -31 -36 -64l-15 -44l22 -7l29 58l14 50zM1147 949q-15 -40 -21 -79l36 22zM104 913l15 -43l14 36zM1183 834l-7 -36h14 v7zM234 812l-22 -28q17 9 22 28zM1183 611q-28 -28 -36 -65l51 29q-1 20 -15 36zM1054 525v-15l14 8zM133 518l-14 -65l21 14l29 43zM126 424q2 -9 14 -14q-1 9 -14 14zM1090 424q-16 -14 -29 -36q24 10 29 36zM126 352q3 -14 14 -21q-2 14 -14 21zM1169 316l-7 -43l21 29 q-2 7 -14 14zM1047 302l-8 -29l36 29h-28zM234 237v14h-7zM205 230l-22 -22q22 5 22 22zM369 1533l-27 -17q-37 16 -81 14l-66 20v13q0 13 1 25q4 41 21 77l36 60l47 48q20 0 37 -6v-27l3 -5l31 22l-25 16l6 18l6 11l37 14l71 12l67 2l59 -24l23 -23l62 -29l69 -65l95 -30 l-58 -34l70 16l66 36q29 41 21 104l58 26l52 13l50 -40l3 -56q-10 -34 -25 -58q-4 -34 -13 -65l-49 -62q-10 11 -36 -6l-6 -18l-118 -41q-28 3 -45 15q-36 6 -68 18l-62 21q-35 17 -66 25l-25 43l-81 28q-32 18 -62 21l-38 -13l-31 -30zM1037 1703l2 -12l9 7zM963 1574 l-9 -13q10 -4 19 0zM580 1757q16 -6 27 0q-14 6 -27 0zM436 1779q42 -11 78 3q-42 4 -78 -3zM576 1653l-3 4l-13 -10l14 -10zM252 1644l-10 -14l17 6z" />
<glyph unicode="&#xf2;" horiz-adv-x="1238" d="M40 154zM643 1353l103 -20l14 14q36 -23 68 -69q22 11 48 14l27 -34l-13 -21q28 1 55 14l27 -35q20 -39 55 -68q50 -32 75 -89q41 -42 69 -96l13 -110l-13 -7v-13h7l20 -96l-7 -14l-27 -123q-14 -54 -48 -117l-62 -102q-33 -39 -82 -76q-38 -42 -96 -68l-110 -55 l-137 -21h-68l-21 -7l-157 62q-51 20 -103 62q-46 27 -89 75q-36 40 -69 89q-28 47 -48 117q-22 47 -27 109l-7 21l7 62l-7 54q5 69 41 131q4 45 28 102q20 48 61 103l89 75q46 34 110 55l55 35l27 -42q25 41 76 62q53 6 116 27zM855 1237q7 -23 21 -48l7 41zM616 1155 q-31 -26 -76 -48l-55 -7l-6 34q-28 -20 -42 -55l-68 -48q-26 -13 -41 -41l20 -54l-34 -14l-41 -7l-14 7q3 -16 14 -28l21 -13l-14 -48q-5 -36 -21 -76l-13 -61q32 -17 34 -55l27 -69l48 -75l55 -62l55 -27l68 -21l83 -6l6 -28l138 48l137 89l41 76l54 54q-15 37 -20 83l7 96 q-6 45 -21 95q-15 39 -27 90q-34 11 -69 34l-55 61l-20 35l-34 -21l-83 21zM992 1141l7 -55l14 41zM869 1114q3 -16 14 -28q-1 15 -14 28zM273 970l7 -21v21h-7zM1157 846q1 -19 14 -41q-2 21 -14 41zM1047 805l-7 -61q5 -29 21 -55l-7 75l7 21q-2 14 -14 20zM1150 730 l14 -21q-3 14 -14 21zM287 477v-28l27 14zM184 435v14h-7zM390 394q6 -32 34 -61zM232 381q1 -10 14 -14q-3 7 -14 14zM622 346v-13l14 6zM910 326v-14h7l28 7zM725 285l7 -35l14 14l-14 34zM855 298q6 -14 21 -20q-6 12 -21 20zM410 1740q24 77 71 92l75 -3q44 -7 76 4 l42 -17l14 -49l-7 -13l21 -103q-1 -24 -3 -47q-2 -22 -6 -42q-20 -37 -7 -79l-21 -14l-61 7l-36 -2l-93 194zM466 1742l35 11l-5 14l-28 -4zM613 1539l29 11l8 13l-21 3l-35 -11z" />
<glyph unicode="&#xf3;" horiz-adv-x="1238" d="M40 154zM643 1353l103 -20l14 14q36 -23 68 -69q22 11 48 14l27 -34l-13 -21q28 1 55 14l27 -35q20 -39 55 -68q50 -32 75 -89q41 -42 69 -96l13 -110l-13 -7v-13h7l20 -96l-7 -14l-27 -123q-14 -54 -48 -117l-62 -102q-33 -39 -82 -76q-38 -42 -96 -68l-110 -55 l-137 -21h-68l-21 -7l-157 62q-51 20 -103 62q-46 27 -89 75q-36 40 -69 89q-28 47 -48 117q-22 47 -27 109l-7 21l7 62l-7 54q5 69 41 131q4 45 28 102q20 48 61 103l89 75q46 34 110 55l55 35l27 -42q25 41 76 62q53 6 116 27zM855 1237q7 -23 21 -48l7 41zM616 1155 q-31 -26 -76 -48l-55 -7l-6 34q-28 -20 -42 -55l-68 -48q-26 -13 -41 -41l20 -54l-34 -14l-41 -7l-14 7q3 -16 14 -28l21 -13l-14 -48q-5 -36 -21 -76l-13 -61q32 -17 34 -55l27 -69l48 -75l55 -62l55 -27l68 -21l83 -6l6 -28l138 48l137 89l41 76l54 54q-15 37 -20 83l7 96 q-6 45 -21 95q-15 39 -27 90q-34 11 -69 34l-55 61l-20 35l-34 -21l-83 21zM992 1141l7 -55l14 41zM869 1114q3 -16 14 -28q-1 15 -14 28zM273 970l7 -21v21h-7zM1157 846q1 -19 14 -41q-2 21 -14 41zM1047 805l-7 -61q5 -29 21 -55l-7 75l7 21q-2 14 -14 20zM1150 730 l14 -21q-3 14 -14 21zM287 477v-28l27 14zM184 435v14h-7zM390 394q6 -32 34 -61zM232 381q1 -10 14 -14q-3 7 -14 14zM622 346v-13l14 6zM910 326v-14h7l28 7zM725 285l7 -35l14 14l-14 34zM855 298q6 -14 21 -20q-6 12 -21 20zM830 1689l-137 -247l-35 5l-63 -1l-19 16 q-11 43 -26 81q17 53 20 102l32 100l-6 14l19 47l26 -16q48 15 91 18l76 -5q46 -20 49 -61zM601 1562l35 11l-5 14l-28 -4zM685 1586l29 11l8 13l-21 3l-35 -11z" />
<glyph unicode="&#xf4;" horiz-adv-x="1238" d="M40 154zM643 1353l103 -20l14 14q36 -23 68 -69q22 11 48 14l27 -34l-13 -21q28 1 55 14l27 -35q20 -39 55 -68q50 -32 75 -89q41 -42 69 -96l13 -110l-13 -7v-13h7l20 -96l-7 -14l-27 -123q-14 -54 -48 -117l-62 -102q-33 -39 -82 -76q-38 -42 -96 -68l-110 -55 l-137 -21h-68l-21 -7l-157 62q-51 20 -103 62q-46 27 -89 75q-36 40 -69 89q-28 47 -48 117q-22 47 -27 109l-7 21l7 62l-7 54q5 69 41 131q4 45 28 102q20 48 61 103l89 75q46 34 110 55l55 35l27 -42q25 41 76 62q53 6 116 27zM855 1237q7 -23 21 -48l7 41zM616 1155 q-31 -26 -76 -48l-55 -7l-6 34q-28 -20 -42 -55l-68 -48q-26 -13 -41 -41l20 -54l-34 -14l-41 -7l-14 7q3 -16 14 -28l21 -13l-14 -48q-5 -36 -21 -76l-13 -61q32 -17 34 -55l27 -69l48 -75l55 -62l55 -27l68 -21l83 -6l6 -28l138 48l137 89l41 76l54 54q-15 37 -20 83l7 96 q-6 45 -21 95q-15 39 -27 90q-34 11 -69 34l-55 61l-20 35l-34 -21l-83 21zM992 1141l7 -55l14 41zM869 1114q3 -16 14 -28q-1 15 -14 28zM273 970l7 -21v21h-7zM1157 846q1 -19 14 -41q-2 21 -14 41zM1047 805l-7 -61q5 -29 21 -55l-7 75l7 21q-2 14 -14 20zM1150 730 l14 -21q-3 14 -14 21zM287 477v-28l27 14zM184 435v14h-7zM390 394q6 -32 34 -61zM232 381q1 -10 14 -14q-3 7 -14 14zM622 346v-13l14 6zM910 326v-14h7l28 7zM725 285l7 -35l14 14l-14 34zM855 298q6 -14 21 -20q-6 12 -21 20zM510 1450l-6 -6q-11 5 -15 39l-14 -16 q3 -12 -3 -10l-11 -1l-7 -3q-8 -1 -14 -5l-7 5q0 11 23 72l11 23l8 26l50 119q5 12 7 22l13 22v5q1 13 6 24l18 46l7 5v-2l26 -2l4 3v-2l35 -2l12 3l2 -4h2l6 -2l20 5q8 -13 12 -25l23 -77l5 -26q10 -10 23 -44l12 -34l18 -37l23 -42l12 -40l5 -35l-24 -4l-6 -2l-26 2l-4 -2 l-53 5q-5 14 -12 24q-12 41 -22 72q0 18 37 31q-19 2 -45 -8l-15 53l-14 33l-16 -34l-18 -49l-16 -17q-5 -39 -23 -71l-1 -15q-15 -21 -24 -29q-11 5 -22 7h-2z" />
<glyph unicode="&#xf5;" horiz-adv-x="1238" d="M40 154zM643 1353l103 -20l14 14q36 -23 68 -69q22 11 48 14l27 -34l-13 -21q28 1 55 14l27 -35q20 -39 55 -68q50 -32 75 -89q41 -42 69 -96l13 -110l-13 -7v-13h7l20 -96l-7 -14l-27 -123q-14 -54 -48 -117l-62 -102q-33 -39 -82 -76q-38 -42 -96 -68l-110 -55 l-137 -21h-68l-21 -7l-157 62q-51 20 -103 62q-46 27 -89 75q-36 40 -69 89q-28 47 -48 117q-22 47 -27 109l-7 21l7 62l-7 54q5 69 41 131q4 45 28 102q20 48 61 103l89 75q46 34 110 55l55 35l27 -42q25 41 76 62q53 6 116 27zM855 1237q7 -23 21 -48l7 41zM616 1155 q-31 -26 -76 -48l-55 -7l-6 34q-28 -20 -42 -55l-68 -48q-26 -13 -41 -41l20 -54l-34 -14l-41 -7l-14 7q3 -16 14 -28l21 -13l-14 -48q-5 -36 -21 -76l-13 -61q32 -17 34 -55l27 -69l48 -75l55 -62l55 -27l68 -21l83 -6l6 -28l138 48l137 89l41 76l54 54q-15 37 -20 83l7 96 q-6 45 -21 95q-15 39 -27 90q-34 11 -69 34l-55 61l-20 35l-34 -21l-83 21zM992 1141l7 -55l14 41zM869 1114q3 -16 14 -28q-1 15 -14 28zM273 970l7 -21v21h-7zM1157 846q1 -19 14 -41q-2 21 -14 41zM1047 805l-7 -61q5 -29 21 -55l-7 75l7 21q-2 14 -14 20zM1150 730 l14 -21q-3 14 -14 21zM287 477v-28l27 14zM184 435v14h-7zM390 394q6 -32 34 -61zM232 381q1 -10 14 -14q-3 7 -14 14zM622 346v-13l14 6zM910 326v-14h7l28 7zM725 285l7 -35l14 14l-14 34zM855 298q6 -14 21 -20q-6 12 -21 20zM344 1533l-27 -17q-37 16 -81 14l-66 20v13 q0 13 1 25q4 41 21 77l36 60l47 48q20 0 37 -6v-27l3 -5l31 22l-25 16l6 18l6 11l37 14l71 12l67 2l59 -24l23 -23l62 -29l69 -65l95 -30l-58 -34l70 16l66 36q29 41 21 104l58 26l52 13l50 -40l3 -56q-10 -34 -25 -58q-4 -34 -13 -65l-49 -62q-10 11 -36 -6l-6 -18 l-118 -41q-28 3 -45 15q-36 6 -68 18l-62 21q-35 17 -66 25l-25 43l-81 28q-32 18 -62 21l-38 -13l-31 -30zM1012 1703l2 -12l9 7zM938 1574l-9 -13q10 -4 19 0zM555 1757q16 -6 27 0q-14 6 -27 0zM411 1779q42 -11 78 3q-42 4 -78 -3zM551 1653l-3 4l-13 -10l14 -10z M227 1644l-10 -14l17 6z" />
<glyph unicode="&#xf6;" horiz-adv-x="1238" d="M40 154zM643 1353l103 -20l14 14q36 -23 68 -69q22 11 48 14l27 -34l-13 -21q28 1 55 14l27 -35q20 -39 55 -68q50 -32 75 -89q41 -42 69 -96l13 -110l-13 -7v-13h7l20 -96l-7 -14l-27 -123q-14 -54 -48 -117l-62 -102q-33 -39 -82 -76q-38 -42 -96 -68l-110 -55 l-137 -21h-68l-21 -7l-157 62q-51 20 -103 62q-46 27 -89 75q-36 40 -69 89q-28 47 -48 117q-22 47 -27 109l-7 21l7 62l-7 54q5 69 41 131q4 45 28 102q20 48 61 103l89 75q46 34 110 55l55 35l27 -42q25 41 76 62q53 6 116 27zM855 1237q7 -23 21 -48l7 41zM616 1155 q-31 -26 -76 -48l-55 -7l-6 34q-28 -20 -42 -55l-68 -48q-26 -13 -41 -41l20 -54l-34 -14l-41 -7l-14 7q3 -16 14 -28l21 -13l-14 -48q-5 -36 -21 -76l-13 -61q32 -17 34 -55l27 -69l48 -75l55 -62l55 -27l68 -21l83 -6l6 -28l138 48l137 89l41 76l54 54q-15 37 -20 83l7 96 q-6 45 -21 95q-15 39 -27 90q-34 11 -69 34l-55 61l-20 35l-34 -21l-83 21zM992 1141l7 -55l14 41zM869 1114q3 -16 14 -28q-1 15 -14 28zM273 970l7 -21v21h-7zM1157 846q1 -19 14 -41q-2 21 -14 41zM1047 805l-7 -61q5 -29 21 -55l-7 75l7 21q-2 14 -14 20zM1150 730 l14 -21q-3 14 -14 21zM287 477v-28l27 14zM184 435v14h-7zM390 394q6 -32 34 -61zM232 381q1 -10 14 -14q-3 7 -14 14zM622 346v-13l14 6zM910 326v-14h7l28 7zM725 285l7 -35l14 14l-14 34zM855 298q6 -14 21 -20q-6 12 -21 20zM394 1790l119 -21q40 -22 64 -71l13 -48 q-16 -49 -6 -78q-21 -12 -49 -14l-92 -21l-21 7q-47 6 -63 49q5 24 7 56q-3 12 -14 21l7 28q0 46 35 92zM763 1755l27 7q-2 10 10 7q32 3 56 8q43 -16 49 -63l7 -21l-20 -92q-2 -28 -13 -49q-30 10 -80 -6l-46 12q-50 24 -72 63l-10 98q46 36 92 36z" />
<glyph unicode="&#xf7;" />
<glyph unicode="&#xf8;" />
<glyph unicode="&#xf9;" horiz-adv-x="1279" d="M40 146zM1199 1326q22 -24 33 -58l-18 -90q16 -37 25 -85l-9 -70l-1 -21h7l-10 -91l4 -71l-7 -20l7 -197l-8 -21l11 -288l-8 -21l5 -56q-21 -38 -59 -68l-55 9l-22 -13l-21 7q-49 8 -104 25l-6 43l-135 -59l-84 -4q-45 -19 -99 -24l-22 -7l-55 9q-45 14 -90 39l-98 24 l-89 39l-69 51q-31 27 -61 65l-39 86l-46 72q-8 47 -25 99l-11 71l8 27l-7 204l11 105l-3 105l20 175l91 4l49 -9l21 6l21 -1q32 -19 62 -51l6 -28l-17 -77l-59 -61q17 -14 41 -29l14 -22l-9 -63l-16 -94l-10 -77l34 -248q18 -41 46 -78q29 -26 69 -52l82 -45q37 -14 84 -24 q46 4 99 24l27 -15q54 -7 80 12l72 46l65 61l45 76l18 111l-6 22l16 48l-7 21l10 77l-6 29l-22 307l8 20l-7 15l8 6q19 33 51 55l105 3q35 11 65 40zM103 1281q1 -12 13 -22l22 20zM242 1262l-58 -68q-26 -24 -37 -55q30 26 58 61q24 25 37 62zM1026 1220l14 -15l-6 28z M1119 669l-8 -42l15 28v14h-7zM160 535q1 -15 13 -29zM1155 485q2 -14 13 -21q-2 14 -13 21zM577 232q16 -19 41 -29zM440 1740q24 77 71 92l75 -3q44 -7 76 4l42 -17l14 -49l-7 -13l21 -103q-1 -24 -3 -47q-2 -22 -6 -42q-20 -37 -7 -79l-21 -14l-61 7l-36 -2l-93 194z M496 1742l35 11l-5 14l-28 -4zM643 1539l29 11l8 13l-21 3l-35 -11z" />
<glyph unicode="&#xfa;" horiz-adv-x="1279" d="M40 146zM1199 1326q22 -24 33 -58l-18 -90q16 -37 25 -85l-9 -70l-1 -21h7l-10 -91l4 -71l-7 -20l7 -197l-8 -21l11 -288l-8 -21l5 -56q-21 -38 -59 -68l-55 9l-22 -13l-21 7q-49 8 -104 25l-6 43l-135 -59l-84 -4q-45 -19 -99 -24l-22 -7l-55 9q-45 14 -90 39l-98 24 l-89 39l-69 51q-31 27 -61 65l-39 86l-46 72q-8 47 -25 99l-11 71l8 27l-7 204l11 105l-3 105l20 175l91 4l49 -9l21 6l21 -1q32 -19 62 -51l6 -28l-17 -77l-59 -61q17 -14 41 -29l14 -22l-9 -63l-16 -94l-10 -77l34 -248q18 -41 46 -78q29 -26 69 -52l82 -45q37 -14 84 -24 q46 4 99 24l27 -15q54 -7 80 12l72 46l65 61l45 76l18 111l-6 22l16 48l-7 21l10 77l-6 29l-22 307l8 20l-7 15l8 6q19 33 51 55l105 3q35 11 65 40zM103 1281q1 -12 13 -22l22 20zM242 1262l-58 -68q-26 -24 -37 -55q30 26 58 61q24 25 37 62zM1026 1220l14 -15l-6 28z M1119 669l-8 -42l15 28v14h-7zM160 535q1 -15 13 -29zM1155 485q2 -14 13 -21q-2 14 -13 21zM577 232q16 -19 41 -29zM828 1689l-137 -247l-35 5l-63 -1l-19 16q-11 43 -26 81q17 53 20 102l32 100l-6 14l19 47l26 -16q48 15 91 18l76 -5q46 -20 49 -61zM599 1562l35 11 l-5 14l-28 -4zM683 1586l29 11l8 13l-21 3l-35 -11z" />
<glyph unicode="&#xfb;" horiz-adv-x="1279" d="M40 146zM1199 1326q22 -24 33 -58l-18 -90q16 -37 25 -85l-9 -70l-1 -21h7l-10 -91l4 -71l-7 -20l7 -197l-8 -21l11 -288l-8 -21l5 -56q-21 -38 -59 -68l-55 9l-22 -13l-21 7q-49 8 -104 25l-6 43l-135 -59l-84 -4q-45 -19 -99 -24l-22 -7l-55 9q-45 14 -90 39l-98 24 l-89 39l-69 51q-31 27 -61 65l-39 86l-46 72q-8 47 -25 99l-11 71l8 27l-7 204l11 105l-3 105l20 175l91 4l49 -9l21 6l21 -1q32 -19 62 -51l6 -28l-17 -77l-59 -61q17 -14 41 -29l14 -22l-9 -63l-16 -94l-10 -77l34 -248q18 -41 46 -78q29 -26 69 -52l82 -45q37 -14 84 -24 q46 4 99 24l27 -15q54 -7 80 12l72 46l65 61l45 76l18 111l-6 22l16 48l-7 21l10 77l-6 29l-22 307l8 20l-7 15l8 6q19 33 51 55l105 3q35 11 65 40zM103 1281q1 -12 13 -22l22 20zM242 1262l-58 -68q-26 -24 -37 -55q30 26 58 61q24 25 37 62zM1026 1220l14 -15l-6 28z M1119 669l-8 -42l15 28v14h-7zM160 535q1 -15 13 -29zM1155 485q2 -14 13 -21q-2 14 -13 21zM577 232q16 -19 41 -29zM537 1450l-6 -6q-11 5 -15 39l-14 -16q3 -12 -3 -10l-11 -1l-7 -3q-8 -1 -14 -5l-7 5q0 11 23 72l11 23l8 26l50 119q5 12 7 22l13 22v5q1 13 6 24l18 46 l7 5v-2l26 -2l4 3v-2l35 -2l12 3l2 -4h2l6 -2l20 5q8 -13 12 -25l23 -77l5 -26q10 -10 23 -44l12 -34l18 -37l23 -42l12 -40l5 -35l-24 -4l-6 -2l-26 2l-4 -2l-53 5q-5 14 -12 24q-12 41 -22 72q0 18 37 31q-19 2 -45 -8l-15 53l-14 33l-16 -34l-18 -49l-16 -17 q-5 -39 -23 -71l-1 -15q-15 -21 -24 -29q-11 5 -22 7h-2z" />
<glyph unicode="&#xfc;" horiz-adv-x="1279" d="M40 146zM1199 1326q22 -24 33 -58l-18 -90q16 -37 25 -85l-9 -70l-1 -21h7l-10 -91l4 -71l-7 -20l7 -197l-8 -21l11 -288l-8 -21l5 -56q-21 -38 -59 -68l-55 9l-22 -13l-21 7q-49 8 -104 25l-6 43l-135 -59l-84 -4q-45 -19 -99 -24l-22 -7l-55 9q-45 14 -90 39l-98 24 l-89 39l-69 51q-31 27 -61 65l-39 86l-46 72q-8 47 -25 99l-11 71l8 27l-7 204l11 105l-3 105l20 175l91 4l49 -9l21 6l21 -1q32 -19 62 -51l6 -28l-17 -77l-59 -61q17 -14 41 -29l14 -22l-9 -63l-16 -94l-10 -77l34 -248q18 -41 46 -78q29 -26 69 -52l82 -45q37 -14 84 -24 q46 4 99 24l27 -15q54 -7 80 12l72 46l65 61l45 76l18 111l-6 22l16 48l-7 21l10 77l-6 29l-22 307l8 20l-7 15l8 6q19 33 51 55l105 3q35 11 65 40zM103 1281q1 -12 13 -22l22 20zM242 1262l-58 -68q-26 -24 -37 -55q30 26 58 61q24 25 37 62zM1026 1220l14 -15l-6 28z M1119 669l-8 -42l15 28v14h-7zM160 535q1 -15 13 -29zM1155 485q2 -14 13 -21q-2 14 -13 21zM577 232q16 -19 41 -29zM399 1790l119 -21q40 -22 64 -71l13 -48q-16 -49 -6 -78q-21 -12 -49 -14l-92 -21l-21 7q-47 6 -63 49q5 24 7 56q-3 12 -14 21l7 28q0 46 35 92z M768 1755l27 7q-2 10 10 7q32 3 56 8q43 -16 49 -63l7 -21l-20 -92q-2 -28 -13 -49q-30 10 -80 -6l-46 12q-50 24 -72 63l-10 98q46 36 92 36z" />
<glyph unicode="&#xfd;" />
<glyph unicode="&#xfe;" />
<glyph unicode="&#xff;" horiz-adv-x="1264" d="M40 0zM1080 1359l106 -7q37 -45 38 -107l-45 -98l-23 -91q-19 -49 -46 -99l-45 -76l-16 -114q-31 -34 -53 -84l-197 -486q-19 -48 -46 -98l-30 -91q-23 -39 -23 -84q-21 -36 -23 -83l-30 -114l-53 -91l-213 -38l-15 15l-15 23l60 167l23 114l84 197l-38 30l22 46l-75 197 q-23 40 -38 91l-92 175q-17 46 -45 91l-31 99l-22 46q-20 36 -31 75q-17 38 -30 84l-23 68l-46 69q-17 39 -29 91q14 56 75 68l30 -7l84 15q55 -1 114 -31l15 -91l228 -569q12 -43 38 -84q7 -43 38 -76q10 50 30 99l69 213l45 91l16 45l53 -30l38 23l-23 45q-22 -19 -53 -30 l-15 45q9 38 30 76l30 92l91 174q50 2 107 15zM913 729l15 -8l7 23h-15zM867 615l-15 -30q7 -14 23 -15l7 38zM480 440v16h-8zM510 364q3 -17 15 -30q0 16 -15 30zM548 -113l8 -38l7 30zM418 1790l119 -21q40 -22 64 -71l13 -48q-16 -49 -6 -78q-21 -12 -49 -14l-92 -21 l-21 7q-47 6 -63 49q5 24 7 56q-3 12 -14 21l7 28q0 46 35 92zM787 1755l27 7q-2 10 10 7q32 3 56 8q43 -16 49 -63l7 -21l-20 -92q-2 -28 -13 -49q-30 10 -80 -6l-46 12q-50 24 -72 63l-10 98q46 36 92 36z" />
<glyph unicode="&#x131;" horiz-adv-x="352" d="M89 1340q23 -10 56 -14l21 7q38 -12 76 -35q33 -24 35 -70l7 -91l14 -20l-14 -49l-7 -77l14 -84l-14 -56l14 -21l7 -70l-14 -21l-21 -41l28 -21q10 -37 14 -84l-7 -91q7 -40 7 -91l7 -35l-14 -28v-20h7l7 -98q-6 -32 -21 -70l-104 -7q-32 2 -70 14q-41 9 -49 56 q12 24 21 56l-14 21l-7 90l14 98l-21 196l7 104l-14 98q13 24 21 56l-21 14l-14 84l28 84l21 41l-35 14l-14 70l7 21q14 35 42 70zM124 1082l-7 -42l28 28zM173 600l-7 -21l14 7v14h-7zM138 565l-7 -28l28 21zM221 558l-14 -35l28 21q-1 9 -14 14zM124 446q2 -9 14 -14 q-2 9 -14 14zM242 328l7 -14v14h-7z" />
<glyph unicode="&#x152;" />
<glyph unicode="&#x153;" />
<glyph unicode="&#x178;" horiz-adv-x="1264" d="M1080 1359l106 -7q37 -45 38 -107l-45 -98l-23 -91q-19 -49 -46 -99l-45 -76l-16 -114q-31 -34 -53 -84l-197 -486q-19 -48 -46 -98l-30 -91q-23 -39 -23 -84q-21 -36 -23 -83l-30 -114l-53 -91l-213 -38l-15 15l-15 23l60 167l23 114l84 197l-38 30l22 46l-75 197 q-23 40 -38 91l-92 175q-17 46 -45 91l-31 99l-22 46q-20 36 -31 75q-17 38 -30 84l-23 68l-46 69q-17 39 -29 91q14 56 75 68l30 -7l84 15q55 -1 114 -31l15 -91l228 -569q12 -43 38 -84q7 -43 38 -76q10 50 30 99l69 213l45 91l16 45l53 -30l38 23l-23 45q-22 -19 -53 -30 l-15 45q9 38 30 76l30 92l91 174q50 2 107 15zM913 729l15 -8l7 23h-15zM867 615l-15 -30q7 -14 23 -15l7 38zM480 440v16h-8zM510 364q3 -17 15 -30q0 16 -15 30zM548 -113l8 -38l7 30zM418 1790l119 -21q40 -22 64 -71l13 -48q-16 -49 -6 -78q-21 -12 -49 -14l-92 -21 l-21 7q-47 6 -63 49q5 24 7 56q-3 12 -14 21l7 28q0 46 35 92zM786 1755l28 7q-3 10 9 7q32 3 56 8q43 -16 50 -63l7 -21l-20 -92q-2 -28 -14 -49q-29 10 -79 -6l-47 12q-49 23 -71 63l-11 98q46 35 92 36z" />
<glyph unicode="&#x2c6;" horiz-adv-x="465" d="M117 1450l-6 -6q-11 5 -15 39l-14 -16q3 -12 -3 -10l-11 -1l-7 -3q-8 -1 -14 -5l-7 5q0 11 23 72l11 23l8 26l50 119q5 12 7 22l13 22v5q1 13 6 24l18 46l7 5v-2l26 -2l4 3v-2l35 -2l12 3l2 -4h2l6 -2l20 5q8 -13 12 -25l23 -77l5 -26q10 -10 23 -44l12 -34l18 -37 l23 -42l12 -40l5 -35l-24 -4l-6 -2l-26 2l-4 -2l-53 5q-5 14 -12 24q-12 41 -22 72q0 18 37 31q-19 2 -45 -8l-15 53l-14 33l-16 -34l-18 -49l-16 -17q-5 -39 -23 -71l-1 -15q-15 -21 -24 -29q-11 5 -22 7h-2z" />
<glyph unicode="&#x2dc;" horiz-adv-x="995" d="M217 1533l-27 -17q-37 16 -81 14l-66 20v13q0 13 1 25q4 41 21 77l36 60l47 48q20 0 37 -6v-27l3 -5l31 22l-25 16l6 18l6 11l37 14l71 12l67 2l59 -24l23 -23l62 -29l69 -65l95 -30l-58 -34l70 16l66 36q29 41 21 104l58 26l52 13l50 -40l3 -56q-10 -34 -25 -58 q-4 -34 -13 -65l-49 -62q-10 11 -36 -6l-6 -18l-118 -41q-28 3 -45 15q-36 6 -68 18l-62 21q-35 17 -66 25l-25 43l-81 28q-32 18 -62 21l-38 -13l-31 -30zM885 1703l2 -12l9 7zM811 1574l-9 -13q10 -4 19 0zM428 1757q16 -6 27 0q-14 6 -27 0zM284 1779q42 -11 78 3 q-42 4 -78 -3zM424 1653l-3 4l-13 -10l14 -10zM100 1644l-10 -14l17 6z" />
<glyph unicode="&#x2000;" horiz-adv-x="916" />
<glyph unicode="&#x2001;" horiz-adv-x="1833" />
<glyph unicode="&#x2002;" horiz-adv-x="916" />
<glyph unicode="&#x2003;" horiz-adv-x="1833" />
<glyph unicode="&#x2004;" horiz-adv-x="611" />
<glyph unicode="&#x2005;" horiz-adv-x="458" />
<glyph unicode="&#x2006;" horiz-adv-x="305" />
<glyph unicode="&#x2007;" horiz-adv-x="305" />
<glyph unicode="&#x2008;" horiz-adv-x="229" />
<glyph unicode="&#x2009;" horiz-adv-x="366" />
<glyph unicode="&#x200a;" horiz-adv-x="101" />
<glyph unicode="&#x2010;" horiz-adv-x="708" d="M502 807l-40 49l-21 -17zM194 696l-8 -1l-52 -28l-36 38l9 29l-13 74l8 14l17 80l37 21l80 -17q17 -18 44 -30q0 20 15 36l125 11l74 -10l22 7l91 1l-3 -46l20 11l-13 -56q-1 -32 -26 -13q7 -35 39 -56l-21 -47v-35l-65 -2l-124 11l-29 8q-33 -3 -74 -12l-59 16l-43 -3 q-27 28 -58 54q18 -29 43 -55z" />
<glyph unicode="&#x2011;" horiz-adv-x="708" d="M502 807l-40 49l-21 -17zM194 696l-8 -1l-52 -28l-36 38l9 29l-13 74l8 14l17 80l37 21l80 -17q17 -18 44 -30q0 20 15 36l125 11l74 -10l22 7l91 1l-3 -46l20 11l-13 -56q-1 -32 -26 -13q7 -35 39 -56l-21 -47v-35l-65 -2l-124 11l-29 8q-33 -3 -74 -12l-59 16l-43 -3 q-27 28 -58 54q18 -29 43 -55z" />
<glyph unicode="&#x2012;" horiz-adv-x="708" d="M502 807l-40 49l-21 -17zM194 696l-8 -1l-52 -28l-36 38l9 29l-13 74l8 14l17 80l37 21l80 -17q17 -18 44 -30q0 20 15 36l125 11l74 -10l22 7l91 1l-3 -46l20 11l-13 -56q-1 -32 -26 -13q7 -35 39 -56l-21 -47v-35l-65 -2l-124 11l-29 8q-33 -3 -74 -12l-59 16l-43 -3 q-27 28 -58 54q18 -29 43 -55z" />
<glyph unicode="&#x2013;" />
<glyph unicode="&#x2014;" />
<glyph unicode="&#x2018;" horiz-adv-x="332" d="M104 1232l-33 28l35 -67l3 2zM83 1444l119 -33q40 -34 64 -110v-77q-3 -73 7 -117q-21 -19 -49 -22l-63 -45l-21 10q-47 10 -63 76q5 37 -22 100q-3 18 -14 32l7 43q0 71 35 143zM177 1393q4 -56 33 -87q-3 62 -33 87z" />
<glyph unicode="&#x2019;" horiz-adv-x="332" d="M104 1232l-33 28l35 -67l3 2zM83 1444l119 -33q40 -34 64 -110v-77q-3 -73 7 -117q-21 -19 -49 -22l-63 -45l-21 10q-47 10 -63 76q5 37 -22 100q-3 18 -14 32l7 43q0 71 35 143zM177 1393q4 -56 33 -87q-3 62 -33 87z" />
<glyph unicode="&#x201a;" />
<glyph unicode="&#x201c;" horiz-adv-x="578" d="M203 1122l-52 -55h1l8 -5l34 16q10 2 18 10q-4 19 -9 34zM450 1042l27 10l5 10l-2 2l-65 -2l-2 -4q3 -2 4 -3q0 -2 33 -13zM342 1335l69 6q-7 12 -18 18l-39 7q-12 -15 -12 -31zM243 1053l-159 -35l-13 101l-7 131l-7 125l14 23l68 16l105 -24l28 -39l-14 -101l7 -116 l-27 -78zM313 1118l54 68q20 -10 48 -20l-28 27l-20 13q-23 -6 -54 -6l-14 41l14 20l-14 82l20 47q47 21 79 35q64 -7 129 -35l-13 -177l13 -20l-7 -21l-13 -20q8 -54 1 -125q-42 -14 -87 -14q-17 0 -34 2l-56 31z" />
<glyph unicode="&#x201d;" horiz-adv-x="578" d="M203 1122l-52 -55h1l8 -5l34 16q10 2 18 10q-4 19 -9 34zM450 1042l27 10l5 10l-2 2l-65 -2l-2 -4q3 -2 4 -3q0 -2 33 -13zM342 1335l69 6q-7 12 -18 18l-39 7q-12 -15 -12 -31zM243 1053l-159 -35l-13 101l-7 131l-7 125l14 23l68 16l105 -24l28 -39l-14 -101l7 -116 l-27 -78zM313 1118l54 68q20 -10 48 -20l-28 27l-20 13q-23 -6 -54 -6l-14 41l14 20l-14 82l20 47q47 21 79 35q64 -7 129 -35l-13 -177l13 -20l-7 -21l-13 -20q8 -54 1 -125q-42 -14 -87 -14q-17 0 -34 2l-56 31z" />
<glyph unicode="&#x201e;" />
<glyph unicode="&#x2022;" />
<glyph unicode="&#x2026;" />
<glyph unicode="&#x202f;" horiz-adv-x="366" />
<glyph unicode="&#x2039;" />
<glyph unicode="&#x203a;" />
<glyph unicode="&#x205f;" horiz-adv-x="458" />
<glyph unicode="&#x20ac;" horiz-adv-x="1166" d="M324 1064l435 -1l70 12l77 -6q57 -18 60 -52l-7 -90l21 -12q-58 -27 -134 -36q-37 -1 -77 -12l-28 12l-50 -18q-4 13 -21 18l-112 -18q-10 5 -28 6l-78 -6l-28 6l-14 6l-7 -6l-117 8l-1 -13l-14 -79l37 2l68 -14l138 12l72 -8l218 4l56 -3l49 9l15 -6q24 -12 48 -35 q-8 -17 -12 -43l5 -16q-10 -29 -27 -58q-18 -25 -50 -26l-64 -3l-14 -10l-34 12l-218 -14l-56 19q-26 -7 -59 -9l-64 8q-22 -4 -49 -3l1 -22l43 -56q21 -33 56 -61l61 -56q35 -17 84 -29l97 -3l93 -29l123 23l119 79q83 -51 107 -119l7 -12l-14 -55q-12 -5 -24 -9 q-52 -23 -112 -64q-57 -26 -129 -41l-113 -8l-24 8l-104 24l-25 -8l-137 33q-56 15 -120 47q-41 38 -81 98l-64 104q-41 44 -65 113l-48 120q-2 63 -24 137l24 145q5 63 40 129q23 51 57 105q16 61 72 113l201 161l137 48l33 -8l88 16h24v8l153 -16q63 -16 137 -48l99 -57 l-16 -69l-66 -97l-48 -8l-18 16l-146 49l-103 16l-7 40l-11 6l-7 -35l-47 -40l-35 7l-69 -7l-23 -21l-66 -50q-22 -38 -62 -77l-54 -76v-1z" />
<glyph unicode="&#x2122;" />
<glyph unicode="&#xe000;" horiz-adv-x="1360" d="M0 1360h1360v-1360h-1360v1360z" />
<glyph unicode="&#xfb01;" />
<glyph unicode="&#xfb02;" />
<glyph d="M0 0z" />
</font>
</defs>
</svg>
