<?xml version="1.0" standalone="no"?>
<!DOCTYPE svg PUBLIC "-//W3C//DTD SVG 1.1//EN" "http://www.w3.org/Graphics/SVG/1.1/DTD/svg11.dtd" >
<svg xmlns="http://www.w3.org/2000/svg">
<metadata></metadata>
<defs>
<font id="crete_roundregular" horiz-adv-x="692" >
<font-face units-per-em="1000" ascent="800" descent="-200" />
<missing-glyph horiz-adv-x="200" />
<glyph horiz-adv-x="0" />
<glyph horiz-adv-x="0" />
<glyph horiz-adv-x="333" />
<glyph unicode="&#xd;" horiz-adv-x="200" />
<glyph unicode=" "  horiz-adv-x="200" />
<glyph unicode="&#x09;" horiz-adv-x="200" />
<glyph unicode="&#xa0;" horiz-adv-x="200" />
<glyph unicode="!" horiz-adv-x="253" d="M58 45q0 26 19 44t48 18q31 0 49.5 -17t18.5 -44t-17.5 -45t-49.5 -18q-31 0 -49.5 17.5t-18.5 44.5zM72 510v149q0 11 4 15t15 4h70q11 0 15 -4t4 -15v-151l-22 -333q-1 -11 -5 -15t-15 -4h-24q-11 0 -15 4t-5 15z" />
<glyph unicode="&#x22;" horiz-adv-x="374" d="M60 597v63q0 11 4 15t15 4h64q11 0 15 -4t4 -15v-65q0 -20 -3 -38l-12 -81q-1 -12 -5.5 -15.5t-16.5 -3.5h-28q-12 0 -16.5 3.5t-5.5 15.5l-12 83q-3 16 -3 38zM212 597v63q0 11 4 15t15 4h64q11 0 15 -4t4 -15v-65q0 -20 -3 -38l-12 -81q-1 -12 -5.5 -15.5t-16.5 -3.5 h-28q-12 0 -16.5 3.5t-5.5 15.5l-12 83q-3 16 -3 38z" />
<glyph unicode="#" horiz-adv-x="563" d="M40 188v2q0 10 3 13.5t14 3.5h103l23 123h-103q-10 0 -13.5 3t-3.5 14v2q0 11 3.5 14t13.5 3h110l28 148q1 10 5.5 13.5t15.5 3.5h2q17 0 14 -17l-28 -148h132l26 148q1 10 5.5 13.5t15.5 3.5h2q17 0 14 -17l-26 -148h110q10 0 13.5 -3t3.5 -14v-2q0 -11 -3.5 -14 t-13.5 -3h-117l-21 -123h115q11 0 14 -3.5t3 -13.5v-2q0 -10 -3 -13.5t-14 -3.5h-122l-30 -171q-1 -10 -5 -13.5t-15 -3.5h-2q-10 0 -13.5 3.5t-1.5 13.5l30 171h-133l-32 -171q-1 -10 -5 -13.5t-15 -3.5h-2q-10 0 -13.5 3.5t-1.5 13.5l32 171h-97q-11 0 -14 3.5t-3 13.5z M197 207h134l21 123h-132z" />
<glyph unicode="$" horiz-adv-x="431" d="M31 25v106q0 11 4 15t15 4h48q11 0 15 -4t3 -15l-3 -54q15 -12 50 -17l20 152q-28 10 -42.5 16t-37.5 19.5t-35 28t-21.5 37.5t-9.5 52q0 71 51.5 117t138.5 49l6 46q2 11 6.5 15t15.5 4h4q11 0 14.5 -4t1.5 -15l-6 -47q37 -2 88 -15q11 -3 14.5 -7.5t3.5 -15.5v-106 q0 -11 -4 -15t-15 -4h-48q-11 0 -14.5 4t-2.5 15l5 53q-21 10 -38 13l-18 -139q28 -11 36.5 -14.5t33.5 -15.5t35.5 -22.5t25.5 -27.5t21 -39t6 -49q0 -73 -54.5 -117t-148.5 -45l-8 -62q-2 -11 -6.5 -15t-15.5 -4h-4q-11 0 -14.5 4t-2.5 15l9 64q-52 3 -104 17 q-11 3 -14.5 7.5t-3.5 15.5zM141 394q0 -24 14 -39t45 -30l16 129q-75 -5 -75 -60zM205 57q85 2 85 65q0 27 -16 43.5t-51 31.5z" />
<glyph unicode="%" horiz-adv-x="832" d="M40 472q0 89 49 137t116 48q71 0 115 -46.5t44 -136.5q0 -88 -45.5 -138.5t-115.5 -50.5q-72 0 -117.5 50.5t-45.5 136.5zM128 468q0 -59 18 -87t57 -28q74 0 74 119q0 63 -17 91t-56 28t-57.5 -29t-18.5 -94zM222 0l307 638q5 11 10 14t17 3h40q19 0 11 -17l-308 -638 q-5 -11 -10 -14t-17 -3h-39q-19 0 -11 17zM468 170q0 89 49 137t116 48q71 0 115 -46.5t44 -136.5q0 -88 -45.5 -138.5t-115.5 -50.5q-72 0 -117.5 50.5t-45.5 136.5zM556 166q0 -115 75 -115q38 0 56 28.5t18 90.5q0 63 -17 91t-56 28t-57.5 -29t-18.5 -94z" />
<glyph unicode="&#x26;" horiz-adv-x="647" d="M80 176q0 73 40 122t97 62q-121 44 -121 154q0 78 54.5 130t154.5 52q178 0 179 -164q1 -11 -3 -15t-15 -4h-53q-12 0 -16 4t-5 15q-3 40 -23 60t-66 20q-50 0 -75.5 -29.5t-25.5 -74.5t28.5 -75t97.5 -30h260q11 0 15 -4t4 -15v-46q0 -11 -4 -15t-15 -3h-45v-261 q0 -18 -16 -27q-42 -22 -103.5 -36t-117.5 -14q-226 0 -226 194zM185 184q0 -58 34 -88.5t99 -30.5q68 0 115 28v227h-94q-75 0 -114.5 -38t-39.5 -98z" />
<glyph unicode="'" horiz-adv-x="222" d="M60 597v63q0 11 4 15t15 4h64q11 0 15 -4t4 -15v-65q0 -20 -3 -38l-12 -81q-1 -12 -5.5 -15.5t-16.5 -3.5h-28q-12 0 -16.5 3.5t-5.5 15.5l-12 83q-3 16 -3 38z" />
<glyph unicode="(" horiz-adv-x="336" d="M83 288q-3 19 0 38l62 401q1 12 5.5 15.5t16.5 3.5h105q11 0 15 -4t4 -15v-49q0 -11 -4 -15t-15 -3l-43 3l-53 -356l61 -377l45 3q11 1 15 -3t4 -15v-46q0 -11 -4 -15t-15 -4h-105q-12 0 -16.5 3.5t-5.5 15.5z" />
<glyph unicode=")" horiz-adv-x="336" d="M35 -85q0 11 4 15t15 3l45 -3l61 377l-53 356l-43 -3q-11 -1 -15 3t-4 15v49q0 11 4 15t15 4h105q12 0 16.5 -3.5t5.5 -15.5l62 -401q3 -19 0 -38l-72 -419q-1 -12 -5.5 -15.5t-16.5 -3.5h-105q-11 0 -15 4t-4 15v46z" />
<glyph unicode="*" horiz-adv-x="486" d="M72 456q-5 10 -4 15.5t10 12.5l98 68l-98 71q-10 7 -10 13t6 16t11.5 11.5t15.5 -3.5l104 -50l14 117q2 11 6 15t15 4h5q11 0 15 -4t6 -15l11 -117l109 49q12 5 17 3t10 -13q9 -16 -6 -27l-99 -68l100 -72q15 -11 5 -27l-2 -1q-6 -10 -11 -11.5t-16 3.5l-105 49l-14 -115 q-2 -11 -6 -15t-15 -4h-4q-11 0 -15 4t-6 15l-12 115l-108 -49q-17 -9 -26 9z" />
<glyph unicode="+" horiz-adv-x="530" d="M35 284v27q0 11 4 15t15 4h173v173q0 11 4 15t15 4h35q11 0 15 -4t4 -15v-173h176q11 0 15 -4t4 -15v-27q0 -11 -4 -15t-15 -4h-176v-188q0 -11 -4 -15t-15 -4h-35q-11 0 -15 4t-4 15v188h-173q-11 0 -15 4t-4 15z" />
<glyph unicode="," horiz-adv-x="292" d="M67 59q0 28 19.5 47t52.5 19q36 0 56 -18.5t20 -51.5q0 -38 -46 -113l-55 -87q-7 -11 -14 -11.5t-19 5.5q-11 5 -13 10t2 16l36 106q-1 2 -6.5 8t-8 9t-7 9.5t-7 11.5t-5.5 11.5t-4 13.5t-1 15z" />
<glyph unicode="-" horiz-adv-x="282" d="M30 237v59q0 11 4 15t15 4h184q11 0 15 -4t4 -15v-59q0 -11 -4 -15t-15 -4h-184q-11 0 -15 4t-4 15z" />
<glyph unicode="." horiz-adv-x="279" d="M51 50q0 29 21 49t53 20q34 0 55 -19t21 -49t-20 -50t-55 -20t-55 19.5t-20 49.5z" />
<glyph unicode="/" horiz-adv-x="449" d="M36 -83l294 810q4 11 8.5 14.5t16.5 3.5h40q11 0 14 -3.5t-1 -14.5l-295 -810q-4 -11 -8.5 -14.5t-16.5 -3.5h-39q-11 0 -14 3.5t1 14.5z" />
<glyph unicode="0" horiz-adv-x="576" d="M35 252q0 74 22.5 130t61 87.5t82.5 46.5t92 15q107 0 177.5 -65t70.5 -204q0 -141 -72 -207.5t-187 -66.5q-113 0 -180 67.5t-67 196.5zM152 253q0 -85 32.5 -134t101.5 -49q71 0 105.5 44.5t34.5 140.5q0 192 -137 192t-137 -194z" />
<glyph unicode="1" horiz-adv-x="339" d="M25 446v46q0 11 4 15t15 4h168q11 0 15 -4t4 -15v-413h69q11 1 15 -3t4 -15v-42q0 -11 -4 -15t-15 -4h-250q-11 0 -15 4t-4 15v42q0 11 4 15t15 3h69v353l-75 -4q-11 -1 -15 3t-4 15z" />
<glyph unicode="2" horiz-adv-x="526" d="M40 361q4 81 59 125.5t145 44.5q92 0 143.5 -42.5t51.5 -127.5q0 -41 -16 -78.5t-38 -64.5t-58 -54.5t-63.5 -44t-66.5 -37.5h206l-4 50q-1 11 3 15t15 4h47q11 0 15 -4t4 -15v-166q0 -11 -4 -15t-15 -4h-47q-11 0 -15 4t-3 15l3 34h-340q-11 0 -15 4t-4 15v41 q0 18 17 26q56 29 93.5 52t81.5 57.5t66.5 74t22.5 83.5t-20 69t-73 25q-88 0 -100 -86q-2 -11 -6 -15t-15 -4h-52q-11 0 -15 4t-3 15z" />
<glyph unicode="3" horiz-adv-x="483" d="M20 27q-1 11 3 15t15 4h56q12 0 15.5 -3.5t5.5 -15.5q4 -46 29 -65.5t77 -19.5q54 0 82.5 26t28.5 89q0 107 -107 112q-11 1 -30.5 1h-29.5q-11 0 -15 4t-4 15v44q0 11 4 14.5t15 4.5q51 3 65 5q90 17 90 103q0 87 -90 87q-92 0 -102 -86q-2 -11 -6 -15t-15 -4h-53 q-11 0 -15 4t-3 15q4 84 60.5 127t141.5 43q93 0 141.5 -41t48.5 -117q0 -109 -129 -156q59 -8 101 -48.5t42 -112.5q0 -90 -61 -143.5t-163 -53.5q-96 0 -145.5 40.5t-52.5 127.5z" />
<glyph unicode="4" horiz-adv-x="524" d="M30 34v44q0 20 10 35l237 382q10 16 29 16h79q11 0 15 -4t4 -15v-393h82q11 0 15 -4t4 -15v-46q0 -11 -4 -15t-15 -4h-83v-129q0 -11 -4 -15t-15 -4h-72q-11 0 -15 4t-4 15v129h-244q-11 0 -15 4t-4 15zM112 99h182v295z" />
<glyph unicode="5" horiz-adv-x="475" d="M11 29q0 11 3.5 15t14.5 4h59q11 0 15 -4t6 -15q8 -87 99 -87q116 0 116 137q0 128 -105 128q-51 0 -96 -34q-16 -11 -34 -4l-11 5q-11 5 -13.5 9.5t-1.5 16.5l33 292q2 11 6 15t15 4h286q11 0 15 -4t4 -15v-58q0 -11 -4 -15t-15 -4h-227l-21 -149q47 27 101 27 q79 0 129.5 -52t50.5 -148q0 -111 -60 -172.5t-166 -61.5q-190 0 -199 170z" />
<glyph unicode="6" horiz-adv-x="546" d="M42 295q0 182 70.5 271.5t199.5 89.5q157 0 170 -149q1 -11 -2.5 -15t-14.5 -4h-55q-12 0 -16 4t-6 15q-10 65 -83 65q-146 0 -151 -221q53 74 155 74q94 0 144.5 -54.5t50.5 -144.5q0 -106 -60.5 -172t-164.5 -66q-237 0 -237 307zM156 221q0 -64 27.5 -107.5 t92.5 -43.5q118 0 118 138q0 130 -118 130q-43 0 -75.5 -20t-41.5 -62q-3 -16 -3 -35z" />
<glyph unicode="7" horiz-adv-x="461" d="M10 434v58q0 11 4 15t15 4h403q11 0 15 -4t4 -15v-44q0 -20 -8 -36l-253 -528q-8 -17 -27 -17h-75q-19 0 -11 17l256 531h-304q-11 0 -15 4t-4 15z" />
<glyph unicode="8" horiz-adv-x="534" d="M38 153q0 113 130 182q-50 29 -75 62.5t-25 88.5q0 81 59 125.5t144 44.5q88 0 136 -40.5t48 -101.5q0 -54 -28.5 -89.5t-81.5 -70.5q81 -35 113 -73.5t32 -103.5q0 -85 -62 -137t-173 -52q-108 0 -162.5 45.5t-54.5 119.5zM144 160q0 -93 115 -93q120 0 120 96 q0 26 -11.5 47.5t-37.5 38.5t-39.5 24t-44.5 21q-102 -59 -102 -134zM177 500q0 -38 23 -63t65 -47q27 19 42.5 32t29.5 36t14 48q0 72 -80 72q-42 0 -68 -20t-26 -58z" />
<glyph unicode="9" horiz-adv-x="546" d="M42 301q0 101 60 165.5t165 64.5q120 0 178.5 -74t58.5 -229q0 -370 -265 -370q-165 0 -176 149q-1 11 3 15t15 4h55q12 0 16 -3.5t6 -15.5q7 -33 25 -49t60 -16q144 0 149 221q-53 -74 -155 -74q-95 0 -145 58t-50 154zM152 309q0 -133 118 -133q46 0 78.5 25t39.5 69 q2 11 2 35q0 59 -28 101.5t-92 42.5q-118 0 -118 -140z" />
<glyph unicode=":" horiz-adv-x="279" d="M51 50q0 29 21 49t53 20q34 0 55 -19t21 -49t-20 -50t-55 -20t-55 19.5t-20 49.5zM51 447q0 29 21 49t53 20q34 0 55 -19t21 -49t-20 -50t-55 -20t-55 19.5t-20 49.5z" />
<glyph unicode=";" horiz-adv-x="300" d="M67 59q0 28 19.5 47t52.5 19q36 0 56 -18.5t20 -51.5q0 -38 -46 -113l-55 -87q-7 -11 -14 -11.5t-19 5.5q-11 5 -13 10t2 16l36 106q-1 2 -6.5 8t-8 9t-7 9.5t-7 11.5t-5.5 11.5t-4 13.5t-1 15zM72 447q0 29 21 49t53 20q34 0 55 -19t21 -49t-20 -50t-55 -20t-55 19.5 t-20 49.5z" />
<glyph unicode="&#x3c;" horiz-adv-x="530" d="M53 251v30q0 12 3 16.5t14 9.5l390 170q17 7 17 -12v-40q0 -12 -3 -16.5t-14 -9.5l-321 -131l321 -139q11 -5 14 -10t3 -17v-42q0 -19 -17 -11l-390 175q-17 8 -17 27z" />
<glyph unicode="=" horiz-adv-x="530" d="M35 160v27q0 11 4 15t15 4h422q11 0 15 -4t4 -15v-27q0 -11 -4 -15t-15 -4h-422q-11 0 -15 4t-4 15zM35 339v27q0 11 4 15t15 4h422q11 0 15 -4t4 -15v-27q0 -11 -4 -15t-15 -4h-422q-11 0 -15 4t-4 15z" />
<glyph unicode="&#x3e;" horiz-adv-x="530" d="M53 56v50q0 15 14 21l324 141l-324 132q-14 6 -14 21v48q0 15 14 9l396 -172q14 -6 14 -21v-38q0 -15 -14 -21l-396 -179q-14 -6 -14 9z" />
<glyph unicode="?" horiz-adv-x="465" d="M36 533q4 80 58 121.5t143 41.5q88 0 140.5 -44.5t52.5 -129.5q0 -89 -50.5 -142t-134.5 -75v-128q0 -11 -4 -15t-15 -4h-48q-11 0 -15 4t-4 15v170q0 11 3.5 15.5t14.5 7.5q144 32 144 144q0 105 -96 105q-87 0 -97 -86q-2 -11 -6 -15t-15 -4h-53q-11 0 -15 4t-3 15z M133 45q0 26 19 44t48 18q31 0 49.5 -17t18.5 -44t-17.5 -45t-49.5 -18q-31 0 -49.5 17.5t-18.5 44.5z" />
<glyph unicode="@" horiz-adv-x="848" d="M47 229q0 178 108.5 287t288.5 109q171 0 267 -92t96 -264q0 -50 -8.5 -93t-28.5 -85t-60.5 -66.5t-97.5 -24.5q-39 0 -63.5 16t-25.5 47q-52 -63 -138 -63q-58 0 -98.5 32t-40.5 100q0 37 12.5 66t35.5 46.5t48 29t59.5 17t59.5 7.5t56 2v24q0 47 -18.5 69.5t-63.5 22.5 q-44 0 -61.5 -13t-21.5 -40q-2 -11 -6 -15t-16 -4h-45q-11 0 -14.5 4t-2.5 15q7 68 59 97.5t125 29.5q166 0 166 -153v-240q0 -49 33 -49q54 0 83.5 60.5t29.5 154.5q0 153 -85 238.5t-242 85.5q-156 0 -249 -100t-93 -256q0 -168 95 -249.5t250 -81.5q31 0 62 3 q11 1 14.5 -2t5.5 -14v-2q3 -18 -15 -19q-36 -3 -71 -3q-85 0 -155 22t-122.5 65.5t-82 114.5t-29.5 164zM347 146q0 -68 76 -68q45 0 70.5 20.5t25.5 48.5v89q-31 -1 -47 -2t-44 -6t-42.5 -13.5t-26.5 -26t-12 -42.5z" />
<glyph unicode="A" horiz-adv-x="696" d="M0 15v49q0 15 15 15h59l200 586q6 14 20 14h97q14 0 20 -14l202 -586h68q15 0 15 -15v-49q0 -15 -15 -15h-251q-15 0 -15 15v49q0 15 15 15h62l-47 135h-231l-46 -135h60q15 0 15 -15v-49q0 -15 -15 -15h-213q-15 0 -15 15zM234 289h189l-94 294z" />
<glyph unicode="B" horiz-adv-x="587" d="M39 15v49q0 15 15 15h53v519h-52q-15 0 -15 15v51q0 16 15 16q120 5 213 5q123 0 187.5 -41.5t64.5 -118.5q0 -56 -34.5 -97.5t-81.5 -60.5q77 -12 117.5 -57t40.5 -110q0 -85 -63 -137.5t-167 -59.5q-43 -3 -138 -3h-140q-15 0 -15 15zM219 77h45q88 0 136.5 28t48.5 97 q0 113 -158 113h-72v-238zM219 398h38q148 0 148 103q0 58 -36 80.5t-103 22.5h-47v-206z" />
<glyph unicode="C" horiz-adv-x="629" d="M43 336q0 96 28.5 169t75.5 113t99.5 59t109.5 19q116 0 209 -51q13 -7 13 -20v-129q0 -15 -15 -15h-56q-15 0 -14 15l3 70q-62 42 -141 42q-192 0 -192 -256q0 -80 19 -139.5t67 -98.5t123 -39q85 0 125 32l-4 70q-1 15 14 15h57q15 0 15 -15v-127q0 -14 -10 -19 q-88 -43 -201 -43q-164 0 -244.5 93t-80.5 255z" />
<glyph unicode="D" horiz-adv-x="679" d="M40 15v49q0 15 15 15h52v519h-52q-15 0 -15 15v51q0 15 15 15q128 6 216 6q36 0 66.5 -2.5t69.5 -10.5t69.5 -21.5t61.5 -38.5t51.5 -58.5t33.5 -83.5t13 -112q0 -181 -100 -269.5t-273 -88.5h-208q-15 0 -15 15zM219 78h66q110 0 170.5 72t60.5 190q0 132 -56.5 197 t-176.5 65h-64v-524z" />
<glyph unicode="E" horiz-adv-x="555" d="M40 15v49q0 15 15 15h53v519h-53q-15 0 -15 15v51q0 15 15 15h440q15 0 15 -15v-134q0 -15 -15 -15h-56q-15 0 -14 15l4 69h-209v-213h149l-4 51q-1 15 14 15h56q15 0 15 -15v-177q0 -15 -15 -15h-56q-15 0 -14 15l3 48h-148v-230h229l-4 71q-1 15 14 15h56q15 0 15 -15 v-134q0 -15 -15 -15h-460q-15 0 -15 15z" />
<glyph unicode="F" horiz-adv-x="540" d="M40 15v49q0 15 15 15h53v519h-53q-15 0 -15 15v51q0 15 15 15h450q15 0 15 -15v-134q0 -15 -15 -15h-56q-15 0 -14 15l4 69h-219v-208h159l-4 51q-1 15 14 15h56q15 0 15 -15v-177q0 -15 -15 -15h-56q-15 0 -14 15l3 48h-158v-234h103q15 0 15 -15v-49q0 -15 -15 -15 h-268q-15 0 -15 15z" />
<glyph unicode="G" horiz-adv-x="695" d="M43 341q0 94 28.5 165.5t75.5 111.5t99.5 59t109.5 19q122 0 208 -53q14 -8 14 -22v-125q0 -15 -15 -15h-57q-15 0 -14 15l3 67q-63 45 -140 45q-70 0 -114.5 -36.5t-61 -90t-16.5 -124.5q0 -80 18.5 -140t67 -100t123.5 -40q80 0 132 35v122h-64q-15 0 -15 15v50 q0 15 15 15h220q15 0 15 -15v-50q0 -15 -15 -15h-53v-170q0 -14 -14 -21q-43 -23 -106.5 -39t-118.5 -16q-86 0 -150 27t-101.5 76t-55.5 111.5t-18 138.5z" />
<glyph unicode="H" horiz-adv-x="743" d="M40 15v49q0 15 15 15h53v519h-53q-15 0 -15 15v51q0 15 15 15h218q15 0 15 -15v-51q0 -15 -15 -15h-53v-206h303v206h-53q-15 0 -15 15v51q0 15 15 15h218q15 0 15 -15v-51q0 -15 -15 -15h-53v-519h53q15 0 15 -15v-49q0 -15 -15 -15h-218q-15 0 -15 15v49q0 15 15 15h53 v227h-303v-227h53q15 0 15 -15v-49q0 -15 -15 -15h-218q-15 0 -15 15z" />
<glyph unicode="I" horiz-adv-x="328" d="M40 15v49q0 15 15 15h53v519h-53q-15 0 -15 15v51q0 15 15 15h218q15 0 15 -15v-51q0 -15 -15 -15h-53v-519h53q15 0 15 -15v-49q0 -15 -15 -15h-218q-15 0 -15 15z" />
<glyph unicode="J" horiz-adv-x="329" d="M-80 -200l18 52q5 15 18 10q34 -13 70 -13q43 0 63 26t20 87v636h-53q-15 0 -15 15v51q0 15 15 15h218q15 0 15 -15v-51q0 -15 -15 -15h-53v-640q0 -198 -183 -198q-69 0 -113 21q-10 5 -5 19z" />
<glyph unicode="K" horiz-adv-x="664" d="M40 15v49q0 15 15 15h53v519h-53q-15 0 -15 15v51q0 15 15 15h218q15 0 15 -15v-51q0 -15 -15 -15h-53v-214h52l186 214h-53q-15 0 -15 15v51q0 15 15 15h204q15 0 15 -15v-53q0 -15 -15 -15h-51l-198 -231l199 -286h65q15 0 15 -15v-49q0 -15 -15 -15h-128q-15 0 -24 12 l-201 290h-51v-223h53q15 0 15 -15v-49q0 -15 -15 -15h-218q-15 0 -15 15z" />
<glyph unicode="L" horiz-adv-x="525" d="M40 15v49q0 15 15 15h53v519h-53q-15 0 -15 15v51q0 15 15 15h238q15 0 15 -15v-51q0 -15 -15 -15h-73v-519h209l-4 70q-1 15 14 15h56q15 0 15 -15v-197q0 -15 -15 -15h-56q-15 0 -14 15l3 48h-373q-15 0 -15 15z" />
<glyph unicode="M" horiz-adv-x="909" d="M40 15v49q0 15 15 15h53v519h-53q-15 0 -15 15v51q0 15 15 15h175q16 0 20 -14l206 -537l211 537q4 14 20 14h167q15 0 15 -15v-51q0 -15 -15 -15h-53v-519h53q15 0 15 -15v-49q0 -15 -15 -15h-220q-15 0 -15 15v49q0 15 15 15h60v427l-197 -492q-6 -14 -21 -14h-66 q-15 0 -21 14l-194 493v-428h63q15 0 15 -15v-49q0 -15 -15 -15h-203q-15 0 -15 15z" />
<glyph unicode="N" horiz-adv-x="743" d="M40 15v49q0 15 15 15h53v519h-53q-15 0 -15 15v51q0 15 15 15h147q14 0 23 -13l333 -506v438h-53q-15 0 -15 15v51q0 15 15 15h193q15 0 15 -15v-51q0 -15 -15 -15h-53v-583q0 -15 -15 -15h-73q-15 0 -23 12l-339 501v-434h83q15 0 15 -15v-49q0 -15 -15 -15h-223 q-15 0 -15 15z" />
<glyph unicode="O" d="M43 333q0 100 30 174.5t78.5 113.5t99 57t103.5 18q37 0 71 -6t77 -26.5t73.5 -55t52 -98.5t21.5 -149q0 -180 -88.5 -276.5t-227.5 -96.5q-138 0 -214 88t-76 257zM163 368q0 -286 182 -286q179 0 179 260q0 266 -182 266q-64 0 -105.5 -34.5t-57.5 -86t-16 -119.5z" />
<glyph unicode="P" horiz-adv-x="565" d="M40 15v49q0 15 15 15h52v520h-52q-15 0 -15 15v50q0 15 15 15q128 6 209 6q266 0 266 -195q0 -101 -65 -160t-177 -59q-44 0 -69 3v-195h83q15 0 15 -15v-49q0 -15 -15 -15h-247q-15 0 -15 15zM219 351q9 -1 46 -1q150 0 150 133q0 48 -24.5 75.5t-57 35.5t-78.5 8h-36 v-251z" />
<glyph unicode="Q" d="M43 332q0 81 20.5 145.5t52 104.5t74 66.5t83 37t81.5 10.5q37 0 71 -6t77 -27t73.5 -55.5t52 -98.5t21.5 -149q0 -126 -45 -210.5t-123 -126.5q19 -69 91 -131q11 -9 2 -21l-23 -28q-8 -10 -22 -3q-132 68 -172 149q-4 0 -12 -0.5t-12 -0.5q-139 0 -214.5 87.5 t-75.5 256.5zM163 367q0 -285 182 -285q179 0 179 259q0 267 -182 267q-64 0 -105.5 -35t-57.5 -86.5t-16 -119.5z" />
<glyph unicode="R" horiz-adv-x="616" d="M40 15v49q0 15 15 15h52v520h-52q-15 0 -15 15v50q0 15 15 15q128 6 213 6q260 0 260 -186q0 -65 -33 -114.5t-88 -75.5l117 -230h62q15 0 15 -15v-49q0 -15 -15 -15h-132q-15 0 -22 13l-136 269h-20q-32 0 -57 3v-206h63q15 0 15 -15v-49q0 -15 -15 -15h-227 q-15 0 -15 15zM219 361q8 -1 23 -1q81 0 126 32t45 96q0 114 -158 114h-36v-241z" />
<glyph unicode="S" horiz-adv-x="517" d="M55 32v159q0 15 15 15h56q15 0 14 -15l-4 -83q13 -12 43.5 -22.5t62.5 -10.5q124 0 124 101q0 49 -33 77.5t-99 50.5q-39 13 -66 26.5t-55 35t-42 54t-14 74.5q0 88 60 145t166 57q74 0 148 -22q14 -4 14 -18v-138q0 -15 -15 -15h-56q-15 0 -14 15l3 67q-40 24 -90 24 q-48 0 -77.5 -23.5t-29.5 -64.5q0 -43 27 -69.5t90 -50.5q37 -14 54 -21t49.5 -26t48 -37.5t29 -49.5t13.5 -69q0 -99 -62.5 -154.5t-177.5 -55.5q-85 0 -168 26q-14 4 -14 18z" />
<glyph unicode="T" horiz-adv-x="593" d="M20 521v143q0 15 15 15h523q15 0 15 -15v-143q0 -15 -15 -15h-61q-15 0 -14 15l5 78h-135v-520h83q15 0 15 -15v-49q0 -15 -15 -15h-278q-15 0 -15 15v49q0 15 15 15h82v520h-135l5 -78q1 -15 -14 -15h-61q-15 0 -15 15z" />
<glyph unicode="U" horiz-adv-x="713" d="M25 613v51q0 15 15 15h218q15 0 15 -15v-51q0 -15 -15 -15h-53v-314q0 -50 5 -82.5t20 -63.5t47 -45.5t83 -14.5q90 0 127 52t37 151v317h-53q-15 0 -15 15v51q0 15 15 15h202q15 0 15 -15v-51q0 -15 -15 -15h-53v-338q0 -55 -12 -100t-40 -85.5t-81.5 -63.5t-129.5 -23 q-148 0 -206 64.5t-58 196.5v349h-53q-15 0 -15 15z" />
<glyph unicode="V" horiz-adv-x="684" d="M5 613v51q0 15 15 15h254q15 0 15 -15v-51q0 -15 -15 -15h-61l142 -479l162 479h-64q-15 0 -15 15v51q0 15 15 15h211q15 0 15 -15v-51q0 -15 -15 -15h-53l-205 -584q-6 -14 -20 -14h-97q-14 0 -20 14l-187 584h-62q-15 0 -15 15z" />
<glyph unicode="W" horiz-adv-x="997" d="M5 613v51q0 15 15 15h250q15 0 15 -15v-51q0 -15 -15 -15h-71l107 -465l146 532q4 14 19 14h82q15 0 19 -14l145 -535l115 468h-66q-15 0 -15 15v51q0 15 15 15h211q15 0 15 -15v-51q0 -15 -15 -15h-53l-154 -583q-4 -15 -19 -15h-94q-15 0 -19 14l-140 498l-134 -498 q-4 -14 -19 -14h-110q-15 0 -19 15l-144 583h-52q-15 0 -15 15z" />
<glyph unicode="X" horiz-adv-x="677" d="M6 15v48q0 15 15 15h53l195 260l-190 260h-54q-15 0 -15 15v51q0 15 15 15h250q15 0 15 -15v-51q0 -15 -15 -15h-61l129 -180l131 180h-56q-15 0 -15 15v51q0 15 15 15h211q15 0 15 -15v-51q0 -15 -15 -15h-52l-185 -242l199 -278h61q15 0 15 -15v-48q0 -15 -15 -15h-262 q-15 0 -15 15v48q0 15 15 15h64l-136 191l-142 -191h63q15 0 15 -15v-48q0 -15 -15 -15h-218q-15 0 -15 15z" />
<glyph unicode="Y" horiz-adv-x="664" d="M10 613v51q0 15 15 15h254q15 0 15 -15v-51q0 -15 -15 -15h-71l144 -246l143 246h-67q-15 0 -15 15v51q0 15 15 15h211q15 0 15 -15v-51q0 -15 -15 -15h-53l-195 -328v-192h53q15 0 15 -15v-48q0 -15 -15 -15h-218q-15 0 -15 15v48q0 15 15 15h53v179l-202 341h-52 q-15 0 -15 15z" />
<glyph unicode="Z" horiz-adv-x="588" d="M31 15v48q0 15 9 27l372 511h-279l5 -80q1 -15 -14 -15h-61q-15 0 -15 15v143q0 15 15 15h472q15 0 15 -15v-48q0 -15 -9 -27l-376 -511h306l-6 71q-1 15 14 15h59q15 0 15 -15v-197q0 -15 -15 -15h-56q-15 0 -14 15l3 48h-425q-15 0 -15 15z" />
<glyph unicode="[" horiz-adv-x="337" d="M126 -131v858q0 11 4 15t15 4h145q11 0 15 -4t4 -15v-51q0 -11 -4 -15t-15 -3l-68 5v-733l68 5q11 1 15 -3t4 -15v-48q0 -11 -4 -15t-15 -4h-145q-11 0 -15 4t-4 15z" />
<glyph unicode="\" horiz-adv-x="434" d="M26 727q-4 11 -1 14.5t14 3.5h40q12 0 16.5 -3.5t8.5 -14.5l294 -810q4 -11 1 -14.5t-14 -3.5h-39q-12 0 -16.5 3.5t-8.5 14.5z" />
<glyph unicode="]" horiz-adv-x="337" d="M28 -83q0 11 4 15t15 3l68 -5v733l-68 -5q-11 -1 -15 3t-4 15v51q0 11 4 15t15 4h145q11 0 15 -4t4 -15v-858q0 -11 -4 -15t-15 -4h-145q-11 0 -15 4t-4 15v48z" />
<glyph unicode="^" horiz-adv-x="584" d="M68 328l168 348q6 14 21 14h47q15 0 21 -14l168 -348q6 -14 -9 -14h-69q-15 0 -21 14l-115 259l-116 -259q-6 -14 -21 -14h-66q-15 0 -8 14z" />
<glyph unicode="_" horiz-adv-x="500" d="M-7 -123q0 11 4 15t15 4h476q11 0 15 -4t4 -15v-19q0 -11 -4 -15t-15 -4h-476q-11 0 -15 4t-4 15v19z" />
<glyph unicode="`" horiz-adv-x="500" d="M195 715q-5 10 -3 13.5t13 3.5h72q12 0 16.5 -3.5t8.5 -14.5l43 -116q4 -10 1 -14t-14 -4h-44q-20 0 -28 17z" />
<glyph unicode="a" horiz-adv-x="524" d="M35 129q0 34 11 60.5t26.5 43.5t43 29.5t49.5 18.5t56.5 10t54 4.5t52.5 1.5v35q0 21 -2.5 36t-11 30t-27 23t-46.5 8q-44 0 -63.5 -16.5t-26.5 -47.5q-3 -15 -15 -15h-64q-16 0 -14 15q4 73 59 107t140 34q179 0 179 -164v-263h43q15 0 15 -15v-49q0 -15 -15 -15h-118 q-13 0 -15 15l-7 46q-54 -73 -156 -73q-64 0 -106 33.5t-42 107.5zM141 139q0 -69 79 -69q52 0 81 24.5t29 56.5v77q-29 0 -43 -0.5t-41 -3t-41.5 -8.5t-31.5 -15t-24.5 -25t-7.5 -37z" />
<glyph unicode="b" horiz-adv-x="584" d="M20 678v53q0 15 15 15h151q15 0 15 -15v-311q24 40 64.5 63t87.5 23q92 0 144 -61t52 -180q0 -140 -59.5 -208.5t-156.5 -68.5q-55 0 -95.5 19.5t-58.5 48.5l-6 -41q-1 -15 -15 -15h-122q-15 0 -15 15v49q0 15 15 15h53v584h-54q-15 0 -15 15zM201 125q4 -6 13 -14.5 t38.5 -23t62.5 -14.5q121 0 121 171q0 37 -4 63.5t-15.5 52.5t-36 40t-61.5 14q-47 0 -82.5 -30.5t-35.5 -81.5v-177z" />
<glyph unicode="c" horiz-adv-x="468" d="M35 245q0 115 59.5 188t177.5 73q90 0 133 -49t43 -125q0 -13 -17 -13h-60q-16 0 -17 15q-5 88 -89 88q-60 0 -88 -41.5t-28 -126.5q0 -182 141 -182q45 0 105 27q15 6 21 -9l18 -44q5 -14 -8 -21q-61 -37 -154 -37q-121 0 -179 68.5t-58 188.5z" />
<glyph unicode="d" horiz-adv-x="583" d="M35 233q0 137 61.5 205t158.5 68q44 0 78 -16.5t50 -39.5v213h-53q-15 0 -15 15v53q0 15 15 15h150q15 0 15 -15v-652h43q15 0 15 -15v-49q0 -15 -15 -15h-113q-13 0 -15 15l-8 59q-51 -86 -163 -86q-98 0 -151 61.5t-53 183.5zM148 250q0 -38 4 -65.5t15.5 -54.5t36 -41 t62.5 -14q46 0 81.5 31t35.5 82v176q-4 6 -12.5 15t-37 24t-61.5 15q-124 0 -124 -168z" />
<glyph unicode="e" horiz-adv-x="489" d="M35 248q0 108 59 183t170 75q55 0 94.5 -20.5t60.5 -56t30.5 -74t9.5 -82.5q0 -22 -1 -34q-1 -10 -4 -13t-14 -3h-294q5 -72 35.5 -111.5t105.5 -39.5q55 0 113 26q14 7 20 -8l19 -46q5 -12 -9 -20q-66 -36 -165 -36q-119 0 -174.5 69.5t-55.5 190.5zM146 297h208 q2 125 -98 125q-59 0 -83.5 -37.5t-26.5 -87.5z" />
<glyph unicode="f" horiz-adv-x="358" d="M20 15v49q0 15 15 15h62v335h-62q-15 0 -15 15v51q0 15 15 15h62v97q0 34 6 61t21.5 52.5t47 39.5t78.5 14q61 0 117 -25q12 -5 8 -19l-15 -50q-5 -12 -17 -7q-40 18 -71 18q-41 0 -52 -23.5t-11 -84.5v-73h121q15 0 15 -15v-51q0 -15 -15 -15h-121v-335h106q15 0 15 -15 v-49q0 -15 -15 -15h-280q-15 0 -15 15z" />
<glyph unicode="g" horiz-adv-x="570" d="M35 233q0 138 60.5 205.5t154.5 67.5q89 0 145 -65l10 39q5 15 18 15h122q15 0 15 -15v-52q0 -15 -15 -15h-55v-355q0 -64 -5 -119q-8 -85 -62.5 -132t-158.5 -47q-96 0 -164 30q-12 5 -8 20l18 53q4 14 20 8q61 -25 122 -25q64 0 95 30t31 106v78q-44 -72 -148 -72 q-92 0 -143.5 63t-51.5 182zM148 251q0 -86 24 -131.5t93 -45.5q44 0 78.5 31t34.5 82v178q-4 6 -12.5 15t-37 23.5t-61.5 14.5q-53 0 -86 -39.5t-33 -127.5z" />
<glyph unicode="h" horiz-adv-x="599" d="M20 15v49q0 15 15 15h54v585h-54q-15 0 -15 15v52q0 15 15 15h151q15 0 15 -15v-308q56 83 155 83q155 0 155 -170v-257h59q15 0 15 -15v-49q0 -15 -15 -15h-219q-15 0 -15 15v49q0 15 15 15h48v207q0 63 -16 92t-70 29q-46 0 -79 -30t-33 -68v-230h61q15 0 15 -15v-49 q0 -15 -15 -15h-227q-15 0 -15 15z" />
<glyph unicode="i" horiz-adv-x="294" d="M16 15v49q0 15 15 15h63v334h-54q-15 0 -15 15v52q0 15 15 15h151q15 0 15 -15v-401h63q15 0 15 -15v-49q0 -15 -15 -15h-238q-15 0 -15 15zM66 635q0 31 19.5 51.5t51.5 20.5q33 0 52.5 -20.5t19.5 -51.5t-20 -51t-52 -20q-33 0 -52 20t-19 51z" />
<glyph unicode="j" horiz-adv-x="289" d="M-99 -199l20 55q5 13 19 8q33 -12 70 -12q84 0 84 117v444h-54q-15 0 -15 15v52q0 15 15 15h151q15 0 15 -15v-521q0 -199 -177 -199q-76 0 -120 21q-13 7 -8 20zM66 635q0 31 19.5 51.5t51.5 20.5q33 0 52.5 -20.5t19.5 -51.5t-20 -51t-52 -20q-33 0 -52 20t-19 51z" />
<glyph unicode="k" horiz-adv-x="566" d="M25 680v51q0 15 15 15h151q15 0 15 -15v-399h51l155 152q11 11 26 11h78q15 0 15 -15v-52q0 -15 -15 -15h-61l-110 -107l137 -227h59q15 0 15 -15v-49q0 -15 -15 -15h-129q-14 0 -23 13l-150 242h-33v-176h53q15 0 15 -15v-49q0 -15 -15 -15h-218q-15 0 -15 15v49 q0 15 15 15h53v586h-54q-15 0 -15 15z" />
<glyph unicode="l" horiz-adv-x="294" d="M16 15v49q0 15 15 15h63v585h-54q-15 0 -15 15v52q0 15 15 15h151q15 0 15 -15v-652h63q15 0 15 -15v-49q0 -15 -15 -15h-238q-15 0 -15 15z" />
<glyph unicode="m" horiz-adv-x="893" d="M25 428v52q0 15 15 15h137q13 0 15 -15l8 -58q52 84 151 84q109 0 142 -88q54 88 157 88q155 0 155 -170v-257h57q15 0 15 -15v-49q0 -15 -15 -15h-220q-15 0 -15 15v49q0 15 15 15h51v207q0 63 -16 92t-70 29q-43 0 -72 -26t-29 -61v-241h48q15 0 15 -15v-49 q0 -15 -15 -15h-205q-15 0 -15 15v49q0 15 15 15h45v207q0 63 -16 92t-70 29q-45 0 -73.5 -29.5t-28.5 -68.5v-230h61q15 0 15 -15v-49q0 -15 -15 -15h-226q-15 0 -15 15v49q0 15 15 15h53v334h-54q-15 0 -15 15z" />
<glyph unicode="n" horiz-adv-x="604" d="M25 427v53q0 15 15 15h136q13 0 16 -15l9 -58q56 84 160 84q155 0 155 -170v-257h58q15 0 15 -15v-49q0 -15 -15 -15h-218q-15 0 -15 15v49q0 15 15 15h48v207q0 63 -16 92t-70 29q-46 0 -79 -30t-33 -68v-230h62q15 0 15 -15v-49q0 -15 -15 -15h-227q-15 0 -15 15v49 q0 15 15 15h53v334h-54q-15 0 -15 14z" />
<glyph unicode="o" horiz-adv-x="532" d="M35 240q0 75 23 130t60.5 83t75.5 40.5t78 12.5q28 0 53.5 -4t58.5 -19t56.5 -40t40 -72t16.5 -110q0 -134 -67.5 -203.5t-173.5 -69.5q-104 0 -162.5 63.5t-58.5 188.5zM148 262q0 -192 117 -192q60 0 87.5 44.5t27.5 132.5t-27.5 132.5t-89.5 44.5q-115 0 -115 -162z " />
<glyph unicode="p" horiz-adv-x="584" d="M20 428v52q0 15 15 15h136q12 0 15 -15l10 -60q51 86 157 86q92 0 144 -60.5t52 -178.5q0 -143 -61 -211t-157 -68q-79 0 -130 42v-180h106q15 0 15 -15v-50q0 -15 -15 -15h-271q-15 0 -15 15v49q0 15 15 15h53v564h-54q-15 0 -15 15zM201 113q5 -5 14 -12t38.5 -18.5 t61.5 -11.5q58 0 89.5 39.5t31.5 133.5q0 38 -4 65t-15.5 53t-36 39t-61.5 13q-47 0 -82.5 -29.5t-35.5 -80.5v-191z" />
<glyph unicode="q" horiz-adv-x="575" d="M35 233q0 135 61.5 204t158.5 69q47 0 85.5 -18.5t58.5 -48.5l10 41q5 15 16 15h125q15 0 15 -15v-52q0 -15 -15 -15h-55v-565h53q15 0 15 -15v-48q0 -15 -15 -15h-150q-15 0 -15 15v278q-47 -75 -152 -75q-92 0 -144 63t-52 182zM148 254q0 -40 4 -68t15.5 -56t36 -42 t61.5 -14q49 0 83.5 31.5t34.5 83.5v175q-4 6 -12.5 15t-37 23.5t-61.5 14.5q-56 0 -90 -40t-34 -123z" />
<glyph unicode="r" horiz-adv-x="451" d="M25 428v52q0 15 15 15h132q14 0 17 -15l11 -71q17 40 55 68.5t88 28.5q40 0 64 -8q12 -4 12 -18v-135q0 -15 -15 -15h-65q-15 0 -14 15l4 58q-5 1 -17 1q-46 0 -76 -37.5t-30 -100.5v-187h110q15 0 15 -15v-49q0 -15 -15 -15h-275q-15 0 -15 15v49q0 15 15 15h53v334h-54 q-15 0 -15 15z" />
<glyph unicode="s" horiz-adv-x="441" d="M55 27v106q0 15 15 15h58q15 0 14 -15l-3 -52q27 -20 77 -20q89 0 89 63q0 32 -25.5 50.5t-62 28.5t-73.5 22.5t-62.5 44t-25.5 82.5q0 66 51 110t140 44q67 0 124 -18q14 -4 14 -18v-106q0 -15 -15 -15h-58q-16 0 -13 15l5 51q-30 16 -66 16q-80 0 -80 -56q0 -29 26 -46 t63 -27.5t74.5 -24t63.5 -46t26 -82.5q0 -76 -53 -118.5t-149 -42.5q-67 0 -141 20q-13 4 -13 19z" />
<glyph unicode="t" horiz-adv-x="369" d="M15 428v52q0 15 15 15h57v135q0 15 15 15h82q15 0 15 -15v-135h101q15 0 15 -15v-52q0 -15 -15 -15h-101v-252q0 -47 12 -68t48 -21q30 0 61 14q11 4 16 -8l18 -46q5 -12 -9 -20q-48 -24 -114 -24q-30 0 -53.5 6t-38.5 14.5t-25.5 25t-15.5 29t-7.5 35.5t-3 36t-0.5 38 v241h-57q-15 0 -15 15z" />
<glyph unicode="u" horiz-adv-x="599" d="M20 428v52q0 15 15 15h150q15 0 15 -15v-292q0 -60 15.5 -85.5t70.5 -25.5q46 0 79 30t33 68v238h-63q-15 0 -15 15v52q0 15 15 15h160q15 0 15 -15v-401h44q15 0 15 -15v-49q0 -15 -15 -15h-112q-12 0 -15 15l-9 56q-64 -83 -168 -83q-162 0 -162 170v255h-53 q-15 0 -15 15z" />
<glyph unicode="v" horiz-adv-x="519" d="M0 428v52q0 15 15 15h131q15 0 19 -14l116 -370l105 302h-51q-15 0 -15 15v52q0 15 15 15h146q12 0 17.5 -9.5t0.5 -20.5l-171 -451q-4 -14 -20 -14h-86q-14 0 -20 14l-137 399h-50q-15 0 -15 15z" />
<glyph unicode="w" horiz-adv-x="781" d="M0 428v52q0 15 15 15h131q15 0 19 -15l91 -357l99 358q4 14 19 14h80q15 0 19 -14l102 -360l89 292h-48q-15 0 -15 15v52q0 15 15 15h128q12 0 17.5 -8t2.5 -19l-138 -454q-4 -14 -19 -14h-90q-15 0 -19 15l-95 353l-99 -354q-4 -14 -19 -14h-90q-15 0 -19 14l-109 399 h-52q-15 0 -15 15z" />
<glyph unicode="x" horiz-adv-x="553" d="M23 15v49q0 15 15 15h52l127 169l-100 165h-64q-15 0 -15 15v52q0 15 15 15h125q15 0 22 -13l88 -155l64 86h-37q-15 0 -15 15v52q0 15 15 15h190q15 0 15 -15v-52q0 -15 -15 -15h-60l-112 -150l113 -184h69q15 0 15 -15v-49q0 -15 -15 -15h-131q-14 0 -23 13l-98 166 l-73 -100h55q15 0 15 -15v-49q0 -15 -15 -15h-207q-15 0 -15 15z" />
<glyph unicode="y" horiz-adv-x="519" d="M-4 -199l17 49q4 13 19 9q48 -16 79 -16q30 0 46.5 15.5t34.5 64.5l25 66l-152 424h-50q-15 0 -15 15v52q0 15 15 15h131q15 0 19 -14l117 -364l104 296h-51q-15 0 -15 15v52q0 15 15 15h146q12 0 17.5 -9.5t0.5 -20.5l-214 -559q-15 -38 -25.5 -58.5t-30 -44 t-47.5 -33.5t-68 -10q-65 0 -111 22q-11 6 -7 19z" />
<glyph unicode="z" horiz-adv-x="452" d="M35 15v58q0 15 9 27l249 315h-166l2 -53q1 -15 -14 -15h-55q-15 0 -15 15v118q0 15 15 15h343q15 0 15 -15v-56q0 -15 -9 -27l-255 -319h185l-2 63q-1 15 14 15h56q15 0 15 -15l-1 -126q0 -15 -15 -15h-356q-15 0 -15 15z" />
<glyph unicode="{" horiz-adv-x="328" d="M40 292v48q0 11 4 15t15 4h78l-27 368q-1 11 3 15t15 4h153q11 0 15 -4t4 -15v-51q0 -11 -4 -15t-15 -3l-68 5v-733l68 5q11 1 15 -3t4 -15v-48q0 -11 -4 -15t-15 -4h-153q-11 0 -15 4t-3 15l27 404h-78q-11 0 -15 4t-4 15z" />
<glyph unicode="|" horiz-adv-x="257" d="M90 -82v808q0 11 4 15t15 4h39q11 0 15 -4t4 -15v-808q0 -11 -4 -15t-15 -4h-39q-11 0 -15 4t-4 15z" />
<glyph unicode="}" horiz-adv-x="330" d="M40 -83q0 11 4 15t15 3l68 -5v733l-68 -5q-11 -1 -15 3t-4 15v51q0 11 4 15t15 4h153q11 0 15 -4t3 -15l-27 -368h78q11 0 15 -4t4 -15v-48q0 -11 -4 -15t-15 -4h-78l27 -404q1 -11 -3 -15t-15 -4h-153q-11 0 -15 4t-4 15v48z" />
<glyph unicode="~" horiz-adv-x="636" d="M72 231q0 72 32.5 104.5t71.5 32.5q37 0 133.5 -27.5t131.5 -27.5q23 0 35.5 7.5t12.5 30.5q0 16 15 16h37q15 0 15 -15q1 -71 -29.5 -103.5t-78.5 -32.5q-46 0 -143.5 27t-118.5 27q-24 0 -32.5 -9.5t-8.5 -32.5q0 -13 -14 -13h-44q-15 0 -15 16z" />
<glyph unicode="&#xa1;" horiz-adv-x="253" d="M58 449q0 27 18.5 44.5t49.5 17.5q32 0 49.5 -18t17.5 -45t-18.5 -44t-49.5 -17q-29 0 -48 18t-19 44zM72 -16l22 335q1 11 5 15t15 4h24q11 0 15 -4t5 -15l22 -333v-151q0 -11 -4 -15t-15 -4h-70q-11 0 -15 4t-4 15v149z" />
<glyph unicode="&#xa2;" horiz-adv-x="468" d="M64 273q0 102 54.5 168.5t159.5 67.5l9 68q2 11 6.5 15t15.5 4h4q11 0 14.5 -4t1.5 -15l-9 -70q59 -11 90.5 -53t31.5 -105q1 -11 -3 -15t-15 -4h-44q-12 0 -15.5 3.5t-5.5 15.5q-6 66 -50 79l-41 -308q9 -2 28 -2q43 0 91 20q18 8 24 -10l12 -35q4 -11 2.5 -16 t-11.5 -10q-64 -33 -137 -33h-21l-10 -77q-2 -11 -6.5 -15t-15.5 -4h-4q-11 0 -14.5 4t-1.5 15l11 84q-151 35 -151 232zM166 277q0 -105 61 -146l40 300q-50 -4 -75.5 -44.5t-25.5 -109.5z" />
<glyph unicode="&#xa3;" horiz-adv-x="454" d="M13 25q-5 19 11 30q66 50 68 178h-41q-11 0 -14.5 4t-2.5 15l3 24q2 11 6 15t15 4h38l4 65q6 89 56 130t127 41q45 0 111 -16q11 -3 14.5 -7.5t3.5 -16.5v-107q0 -11 -4 -15t-15 -4h-42q-11 0 -15 4t-3 15l4 51q-28 19 -67 19q-36 0 -51 -20t-18 -67l-4 -72h144 q11 0 14.5 -4t1.5 -15l-3 -26q-1 -12 -5.5 -15.5t-16.5 -3.5h-139q-2 -50 -13.5 -80t-42.5 -68h211l-4 52q-1 11 3 15t15 4h48q11 0 15 -4t4 -15v-116q0 -11 -4 -15t-15 -4h-269q-46 0 -102 -4q-12 -1 -16.5 2t-6.5 15z" />
<glyph unicode="&#xa5;" horiz-adv-x="523" d="M17 449v43q0 11 4 15t15 4h191q11 0 15 -4t4 -15v-43q0 -11 -4 -14.5t-15 -3.5h-42l93 -127l94 127h-42q-11 0 -15 3.5t-4 14.5v43q0 11 4 15t15 4h151q11 0 15 -4t4 -15v-43q0 -11 -4 -14.5t-15 -3.5h-32l-120 -160h82q11 0 15 -4t4 -15v-13q0 -11 -4 -15t-15 -4h-104 v-44h104q11 0 15 -4t4 -15v-13q0 -11 -4 -15t-15 -4h-104v-46h33q11 1 15 -3t4 -15v-42q0 -11 -4 -15t-15 -4h-157q-11 0 -15 4t-4 15v42q0 11 4 15t15 3h32v46h-104q-11 0 -15 4t-4 15v13q0 11 4 15t15 4h104v44h-104q-11 0 -15 4t-4 15v13q0 11 4 15t15 4h82l-122 160h-35 q-11 0 -15 3.5t-4 14.5z" />
<glyph unicode="&#xa6;" horiz-adv-x="257" d="M90 -82v296q0 11 4 15t15 4h39q11 0 15 -4t4 -15v-296q0 -11 -4 -15t-15 -4h-39q-11 0 -15 4t-4 15zM90 462v264q0 11 4 15t15 4h39q11 0 15 -4t4 -15v-264q0 -11 -4 -15t-15 -4h-39q-11 0 -15 4t-4 15z" />
<glyph unicode="&#xa7;" horiz-adv-x="573" d="M55 457q0 102 67 170t183 68q187 0 197 -151q1 -11 -2.5 -15t-14.5 -4h-50q-11 0 -15 4t-6 15q-11 75 -87 75q-81 0 -81 -59q0 -51 88 -159q2 -3 21 -26t23 -28t20.5 -27t21.5 -30t18 -28.5t18 -32t13.5 -31t11.5 -34t6 -33.5t3 -37q0 -118 -73.5 -196.5t-182.5 -78.5 q-78 0 -125 33t-52 120q-1 11 2.5 15t14.5 4h49q12 0 15.5 -3.5t5.5 -15.5q6 -77 81 -77q32 0 53.5 17.5t21.5 55.5q0 45 -29.5 97t-92.5 133q-43 54 -64.5 86t-40 79t-18.5 94zM144 467q0 -45 27 -94t64 -94t73 -93.5t57.5 -109.5t13.5 -126q25 56 25 123q0 55 -26.5 109.5 t-63.5 98.5t-73 88.5t-57.5 95.5t-14.5 102l-6 3q-19 -43 -19 -103z" />
<glyph unicode="&#xa8;" horiz-adv-x="500" d="M64 657q0 28 17 44t45 16q62 0 62 -60q0 -29 -17.5 -45.5t-44.5 -16.5q-28 0 -45 16.5t-17 45.5zM267 657q0 28 17 44t45 16q62 0 62 -60q0 -29 -17.5 -45.5t-44.5 -16.5q-28 0 -45 16.5t-17 45.5z" />
<glyph unicode="&#xa9;" horiz-adv-x="880" d="M78 339q0 153 100.5 253.5t256.5 100.5q161 0 264 -99.5t103 -248.5q0 -157 -102 -257t-265 -100q-164 0 -260.5 98t-96.5 253zM121 339q0 -141 88 -229t225 -88q144 0 234.5 86t90.5 231q0 141 -92 230t-233 89q-142 0 -227.5 -88t-85.5 -231zM266 343q0 87 45.5 144 t138.5 57q63 0 95.5 -32t34.5 -85q0 -11 -4 -15t-15 -4h-23q-11 0 -15 4t-6 15q-7 53 -68 53q-96 0 -96 -134q0 -66 20 -100.5t70 -34.5q34 0 52 11.5t22 41.5q2 11 6 15t15 4h23q11 0 15 -4t3 -15q-2 -53 -37.5 -85t-104.5 -32q-89 0 -130 54.5t-41 141.5z" />
<glyph unicode="&#xaa;" horiz-adv-x="530" d="M99 426q0 28 9 49t28 33.5t36.5 20.5t46.5 11.5t45 4.5t44 2v25q0 31 -11.5 47.5t-50.5 16.5q-31 0 -44 -11.5t-18 -34.5q-3 -10 -11 -10h-53q-10 0 -10 10q4 54 44 80t104 26q79 0 107.5 -31t28.5 -86v-186h30q11 0 11 -11v-37q0 -11 -11 -11h-92q-9 0 -11 11l-5 33 q-38 -53 -111 -53q-46 0 -76 24t-30 77zM184 434q0 -47 49 -47q37 0 57 17t20 40v53q-20 0 -30 -0.5t-28 -2t-27.5 -5.5t-20 -10.5t-15.5 -18t-5 -26.5z" />
<glyph unicode="&#xab;" horiz-adv-x="493" d="M73 270q-7 17 1 34l88 171q8 17 28 17h58q19 0 11 -17l-95 -187l92 -187q8 -17 -11 -17h-60q-20 0 -27 17zM239 270q-7 17 1 34l88 171q8 17 28 17h58q19 0 11 -17l-95 -187l92 -187q8 -17 -11 -17h-60q-20 0 -27 17z" />
<glyph unicode="&#xac;" horiz-adv-x="530" d="M35 304v27q0 11 4 15t15 4h422q11 0 15 -4t4 -15v-145q0 -11 -4 -15t-15 -4h-25q-11 0 -15 4t-4 15v99h-378q-11 0 -15 4t-4 15z" />
<glyph unicode="&#xad;" horiz-adv-x="282" d="M30 237v39q0 11 4 15t15 4h184q11 0 15 -4t4 -15v-39q0 -11 -4 -15t-15 -4h-184q-11 0 -15 4t-4 15z" />
<glyph unicode="&#xae;" horiz-adv-x="498" d="M65 565q0 77 50.5 127t128.5 50q80 0 132 -49.5t52 -123.5q0 -79 -51 -129t-133 -50t-130.5 49t-48.5 126zM93 565q0 -68 42.5 -110t108.5 -42q69 0 112.5 41t43.5 111q0 68 -44 111t-112 43q-69 0 -110 -42t-41 -112zM167 488v7q0 7 7 7h12v134h-11q-8 0 -8 8v11 q0 8 9 8h71q63 0 63 -48q0 -33 -34 -47l34 -66h18q8 0 8 -7v-7q0 -7 -8 -7h-39q-8 0 -10 6l-36 73h-23v-58h12q8 0 8 -9v-4q0 -8 -8 -8h-57q-8 0 -8 7zM220 584h16q38 0 38 29q0 23 -37 23h-17v-52z" />
<glyph unicode="&#xaf;" horiz-adv-x="500" d="M101 641v43q0 11 4 15t15 4h260q11 0 15 -4t4 -15v-43q0 -11 -4 -15t-15 -4h-260q-11 0 -15 4t-4 15z" />
<glyph unicode="&#xb0;" horiz-adv-x="336" d="M30 573q0 57 40.5 97.5t97.5 40.5t97.5 -40.5t40.5 -97.5t-40.5 -97.5t-97.5 -40.5t-97.5 40.5t-40.5 97.5zM73 573q0 -40 27.5 -67.5t67.5 -27.5t67.5 27.5t27.5 67.5t-27.5 67.5t-67.5 27.5t-67.5 -27.5t-27.5 -67.5z" />
<glyph unicode="&#xb1;" horiz-adv-x="530" d="M35 19v27q0 11 4 15t15 4h173v207h-173q-11 0 -15 4t-4 15v27q0 11 4 15t15 4h173v173q0 11 4 15t15 4h35q11 0 15 -4t4 -15v-173h176q11 0 15 -4t4 -15v-27q0 -11 -4 -15t-15 -4h-176v-207h176q11 0 15 -4t4 -15v-27q0 -11 -4 -15t-15 -4h-422q-11 0 -15 4t-4 15z" />
<glyph unicode="&#xb2;" horiz-adv-x="345" d="M28 647q6 55 43 83.5t97 28.5q138 0 138 -121q0 -99 -147 -185h143q15 0 15 -15v-35q0 -15 -15 -15h-237q-11 0 -15 4t-4 15v16q0 17 17 27q71 45 114.5 89.5t43.5 95.5q0 30 -13 45.5t-47 15.5q-56 0 -64 -49q-2 -12 -6.5 -15.5t-16.5 -3.5h-29q-11 0 -14.5 4t-2.5 15z " />
<glyph unicode="&#xb3;" horiz-adv-x="335" d="M22 471q-1 11 2.5 15t14.5 4h35q11 0 15 -4t6 -15q6 -42 59 -42q70 0 70 56q0 28 -14.5 40t-44.5 14q-34 2 -44 2q-11 0 -15 4t-4 15v20q0 11 4 15t15 4q21 0 43 2q53 5 53 53q0 47 -62 47q-50 0 -59 -40q-3 -12 -7.5 -15.5t-15.5 -3.5h-23q-12 0 -15.5 4t-2.5 15 q4 49 42 73.5t93 24.5q61 0 94.5 -25.5t33.5 -71.5q0 -56 -64 -87q31 -6 52 -27.5t21 -58.5q0 -55 -41.5 -86t-110.5 -31q-123 0 -130 99z" />
<glyph unicode="&#xb4;" horiz-adv-x="500" d="M167 598l42 116q4 11 8.5 14.5t16.5 3.5h72q11 0 13 -3.5t-3 -13.5l-65 -118q-5 -10 -10.5 -13.5t-17.5 -3.5h-43q-11 0 -14 4t1 14z" />
<glyph unicode="&#xb5;" horiz-adv-x="599" d="M88 -187v667q0 15 15 15h82q15 0 15 -15v-294q0 -60 15.5 -85.5t70.5 -25.5q46 0 79 31t33 69v305q0 15 15 15h82q15 0 15 -15v-401h44q15 0 15 -15v-49q0 -15 -15 -15h-112q-12 0 -15 15l-9 56q-58 -78 -154 -78q-41 0 -71 10v-190q0 -15 -15 -15h-75q-15 0 -15 15z" />
<glyph unicode="&#xb6;" horiz-adv-x="525" d="M60 477q0 58 23.5 99t63.5 62.5t83.5 31t94.5 9.5h141q11 0 15 -4t4 -15v-45q0 -11 -4 -15t-15 -3h-49v-558q0 -199 -177 -199q-56 0 -107 18q-10 4 -12.5 9t1.5 15l16 45q4 11 8.5 13t15.5 -2q30 -10 69 -10t58 28t19 92v228h-28q-105 0 -162.5 51.5t-57.5 149.5z" />
<glyph unicode="&#xb7;" horiz-adv-x="253" d="M51 348q0 29 21 49t53 20q34 0 55 -19t21 -49t-20 -50t-55 -20t-55 19.5t-20 49.5z" />
<glyph unicode="&#xb8;" horiz-adv-x="500" d="M189 -200q-9 11 1 20q41 36 41 56t-22 37l-9 7q-10 9 -3 21l43 62h42l-22 -35l16 -14q38 -33 38 -62q0 -41 -96 -105q-13 -8 -21 3z" />
<glyph unicode="&#xb9;" horiz-adv-x="301" d="M54 700v30q0 11 4 15t15 4h113q11 0 15 -4t4 -15v-275h46q11 1 15 -3t4 -15v-30q0 -11 -4 -15t-15 -4h-174q-11 0 -15 4t-4 15v30q0 11 4 15t15 3h43v229l-47 -2q-11 -1 -15 3t-4 15z" />
<glyph unicode="&#xba;" horiz-adv-x="532" d="M96 506q0 53 17 92t44.5 59t55.5 29.5t57 9.5q22 0 40 -2t43 -12.5t42 -28t29 -51.5t12 -81q0 -94 -50 -144.5t-127 -50.5t-120 45.5t-43 134.5zM179 526q0 -138 86 -138q85 0 85 123q0 126 -86 126q-43 0 -64 -31t-21 -80z" />
<glyph unicode="&#xbb;" horiz-adv-x="493" d="M69 101l95 188l-93 186q-8 17 11 17h60q20 0 27 -17l85 -169q7 -17 -1 -34l-88 -171q-5 -10 -10.5 -13.5t-17.5 -3.5h-58q-11 0 -13 3.5t3 13.5zM235 101l95 188l-93 186q-8 17 11 17h60q20 0 27 -17l85 -169q7 -17 -1 -34l-88 -171q-5 -10 -10.5 -13.5t-17.5 -3.5h-58 q-11 0 -13 3.5t3 13.5z" />
<glyph unicode="&#xbc;" horiz-adv-x="900" d="M99 593v30q0 11 4 15t15 4h113q11 0 15 -4t4 -15v-275h46q11 1 15 -3t4 -15v-30q0 -11 -4 -15t-15 -4h-174q-11 0 -15 4t-4 15v30q0 11 4 15t15 3h43v229l-47 -2q-11 -1 -15 3t-4 15zM283 0l319 662q8 17 27 17h40q19 0 11 -17l-320 -662q-8 -17 -27 -17h-39 q-19 0 -11 17zM524 92v19q0 17 11 34l137 201q11 15 30 15h48q11 0 15 -4t4 -15v-211h44q11 0 15 -4t4 -15v-20q0 -11 -4 -15t-15 -4h-44v-58q0 -15 -15 -15h-50q-15 0 -15 15v58h-146q-11 0 -15 4t-4 15zM587 131h102v150z" />
<glyph unicode="&#xbd;" horiz-adv-x="900" d="M99 593v30q0 11 4 15t15 4h113q11 0 15 -4t4 -15v-275h46q11 1 15 -3t4 -15v-30q0 -11 -4 -15t-15 -4h-174q-11 0 -15 4t-4 15v30q0 11 4 15t15 3h43v229l-47 -2q-11 -1 -15 3t-4 15zM256 0l319 662q5 11 10 14t17 3h40q19 0 11 -17l-320 -662q-5 -11 -10 -14t-17 -3h-39 q-19 0 -11 17zM538 259q6 55 43 83.5t97 28.5q138 0 138 -121q0 -99 -147 -185h143q15 0 15 -15v-35q0 -15 -15 -15h-237q-11 0 -15 4t-4 15v16q0 17 17 27q71 45 114.5 89.5t43.5 95.5q0 30 -13 45.5t-47 15.5q-56 0 -64 -49q-2 -12 -6.5 -15.5t-16.5 -3.5h-29 q-11 0 -14.5 4t-2.5 15z" />
<glyph unicode="&#xbe;" horiz-adv-x="900" d="M68 364q-1 11 2.5 15t14.5 4h35q11 0 15 -4t6 -15q6 -42 59 -42q70 0 70 56q0 28 -14.5 40t-44.5 14q-34 2 -44 2q-11 0 -15 4t-4 15v20q0 11 4 15t15 4q21 0 43 2q53 5 53 53q0 47 -62 47q-50 0 -59 -40q-3 -12 -7.5 -15.5t-15.5 -3.5h-23q-12 0 -15.5 4t-2.5 15 q4 49 42 73.5t93 24.5q61 0 94.5 -25.5t33.5 -71.5q0 -56 -64 -87q31 -6 52 -27.5t21 -58.5q0 -55 -41.5 -86t-110.5 -31q-123 0 -130 99zM284 0l319 662q5 11 10 14t17 3h40q19 0 11 -17l-320 -662q-5 -11 -10 -14t-17 -3h-39q-19 0 -11 17zM524 92v19q0 17 11 34l137 201 q11 15 30 15h48q11 0 15 -4t4 -15v-211h44q11 0 15 -4t4 -15v-20q0 -11 -4 -15t-15 -4h-44v-58q0 -15 -15 -15h-50q-15 0 -15 15v58h-146q-11 0 -15 4t-4 15zM587 131h102v150z" />
<glyph unicode="&#xbf;" horiz-adv-x="465" d="M35 -28q0 89 50.5 142t134.5 75v128q0 11 4 15t15 4h48q11 0 15 -4t4 -15v-170q0 -11 -3.5 -15.5t-14.5 -7.5q-144 -32 -144 -144q0 -105 96 -105q87 0 97 86q2 11 6 15t15 4h53q11 0 15 -4t3 -15q-4 -80 -58 -121.5t-143 -41.5q-88 0 -140.5 44.5t-52.5 129.5zM197 448 q0 27 17.5 45t49.5 18q31 0 49.5 -17.5t18.5 -44.5q0 -26 -19 -44t-48 -18q-31 0 -49.5 17t-18.5 44z" />
<glyph unicode="&#xc0;" horiz-adv-x="696" d="M0 15v49q0 15 15 15h59l200 586q6 14 20 14h97q14 0 20 -14l202 -586h68q15 0 15 -15v-49q0 -15 -15 -15h-251q-15 0 -15 15v49q0 15 15 15h62l-47 135h-231l-46 -135h60q15 0 15 -15v-49q0 -15 -15 -15h-213q-15 0 -15 15zM234 289h189l-94 294zM237 843q-11 15 8 15h70 q19 0 27 -17l41 -92q8 -17 -11 -17h-40q-19 0 -30 15z" />
<glyph unicode="&#xc1;" horiz-adv-x="696" d="M0 15v49q0 15 15 15h59l200 586q6 14 20 14h97q14 0 20 -14l202 -586h68q15 0 15 -15v-49q0 -15 -15 -15h-251q-15 0 -15 15v49q0 15 15 15h62l-47 135h-231l-46 -135h60q15 0 15 -15v-49q0 -15 -15 -15h-213q-15 0 -15 15zM234 289h189l-94 294zM312 746l45 98 q6 14 21 14h78q15 0 6 -12l-70 -102q-8 -12 -23 -12h-48q-15 0 -9 14z" />
<glyph unicode="&#xc2;" horiz-adv-x="696" d="M0 15v49q0 15 15 15h59l200 586q6 14 20 14h97q14 0 20 -14l202 -586h68q15 0 15 -15v-49q0 -15 -15 -15h-251q-15 0 -15 15v49q0 15 15 15h62l-47 135h-231l-46 -135h60q15 0 15 -15v-49q0 -15 -15 -15h-213q-15 0 -15 15zM197 744l82 107q9 12 24 12h76q15 0 24 -12 l82 -107q9 -12 -6 -12h-57q-16 0 -25 12l-58 71l-57 -71q-9 -12 -24 -12h-55q-15 0 -6 12zM234 289h189l-94 294z" />
<glyph unicode="&#xc3;" horiz-adv-x="696" d="M0 15v49q0 15 15 15h59l200 586q6 14 20 14h97q14 0 20 -14l202 -586h68q15 0 15 -15v-49q0 -15 -15 -15h-251q-15 0 -15 15v49q0 15 15 15h62l-47 135h-231l-46 -135h60q15 0 15 -15v-49q0 -15 -15 -15h-213q-15 0 -15 15zM178 764q0 53 22 73.5t51 20.5q27 0 93 -20.5 t89 -20.5q34 0 34 27q0 13 15 13h24q12 0 12 -14q0 -50 -21.5 -74.5t-54.5 -24.5q-32 0 -98 19t-81 19q-30 0 -30 -22q0 -7 -2 -8.5t-10 -1.5h-31q-12 0 -12 14zM234 289h189l-94 294z" />
<glyph unicode="&#xc4;" horiz-adv-x="696" d="M0 15v49q0 15 15 15h59l200 586q6 14 20 14h97q14 0 20 -14l202 -586h68q15 0 15 -15v-49q0 -15 -15 -15h-251q-15 0 -15 15v49q0 15 15 15h62l-47 135h-231l-46 -135h60q15 0 15 -15v-49q0 -15 -15 -15h-213q-15 0 -15 15zM184 800q0 28 17 44t45 16q62 0 62 -60 q0 -29 -17.5 -45.5t-44.5 -16.5q-28 0 -45 16.5t-17 45.5zM234 289h189l-94 294zM387 800q0 28 17 44t45 16q62 0 62 -60q0 -29 -17.5 -45.5t-44.5 -16.5q-28 0 -45 16.5t-17 45.5z" />
<glyph unicode="&#xc5;" horiz-adv-x="696" d="M0 15v49q0 15 15 15h59l200 586q6 14 20 14h97q14 0 20 -14l202 -586h68q15 0 15 -15v-49q0 -15 -15 -15h-251q-15 0 -15 15v49q0 15 15 15h62l-47 135h-231l-46 -135h60q15 0 15 -15v-49q0 -15 -15 -15h-213q-15 0 -15 15zM234 289h189l-94 294zM244 806q0 42 28.5 71 t71.5 29q45 0 72 -28t27 -67q0 -46 -28 -76t-73 -30q-46 0 -72 29t-26 72zM302 806q0 -21 11 -35t31 -14t31.5 14t11.5 35q0 22 -11.5 35t-31.5 13q-42 0 -42 -48z" />
<glyph unicode="&#xc6;" horiz-adv-x="879" d="M0 19v42q0 11 4 15t15 3h48l277 520h-48q-11 -1 -15 3t-4 15v43q0 11 4 15t15 4h524q11 0 15 -4t4 -15v-126q0 -11 -4 -15t-15 -4h-48q-11 0 -15 4t-3 15l4 65h-209v-213h149l-4 47q-1 11 3 15t15 4h48q11 0 15 -4t4 -15v-169q0 -11 -4 -15t-15 -4h-48q-11 0 -15 4t-3 15 l3 44h-148v-229h229l-4 66q-1 11 3 15t15 4h48q11 0 15 -4t4 -15v-126q0 -11 -4 -15t-15 -4h-452q-11 0 -15 4t-4 15v42q0 11 4 15t15 3h49v135h-198l-71 -135h52q11 1 15 -3t4 -15v-42q0 -11 -4 -15t-15 -4h-201q-11 0 -15 4t-4 15zM273 289h164v310z" />
<glyph unicode="&#xc7;" horiz-adv-x="629" d="M43 336q0 96 28.5 169t75.5 113t99.5 59t109.5 19q116 0 209 -51q13 -7 13 -20v-129q0 -15 -15 -15h-56q-15 0 -14 15l3 70q-62 42 -141 42q-192 0 -192 -256q0 -80 19 -139.5t67 -98.5t123 -39q85 0 125 32l-4 70q-1 15 14 15h57q15 0 15 -15v-127q0 -14 -10 -19 q-78 -38 -177 -42l-13 -21l16 -14q38 -33 38 -62q0 -41 -96 -105q-13 -8 -21 3l-8 10q-9 11 1 20q41 36 41 56t-22 37l-9 7q-11 9 -3 21l33 48q-155 5 -230.5 97.5t-75.5 249.5z" />
<glyph unicode="&#xc8;" horiz-adv-x="555" d="M40 15v49q0 15 15 15h53v519h-53q-15 0 -15 15v51q0 15 15 15h440q15 0 15 -15v-134q0 -15 -15 -15h-56q-15 0 -14 15l4 69h-209v-213h149l-4 51q-1 15 14 15h56q15 0 15 -15v-177q0 -15 -15 -15h-56q-15 0 -14 15l3 48h-148v-230h229l-4 71q-1 15 14 15h56q15 0 15 -15 v-134q0 -15 -15 -15h-460q-15 0 -15 15zM188 843q-11 15 8 15h70q12 0 17 -3t10 -14l41 -92q8 -17 -11 -17h-40q-19 0 -30 15z" />
<glyph unicode="&#xc9;" horiz-adv-x="555" d="M40 15v49q0 15 15 15h53v519h-53q-15 0 -15 15v51q0 15 15 15h440q15 0 15 -15v-134q0 -15 -15 -15h-56q-15 0 -14 15l4 69h-209v-213h149l-4 51q-1 15 14 15h56q15 0 15 -15v-177q0 -15 -15 -15h-56q-15 0 -14 15l3 48h-148v-230h229l-4 71q-1 15 14 15h56q15 0 15 -15 v-134q0 -15 -15 -15h-460q-15 0 -15 15zM271 746l45 98q6 14 21 14h78q15 0 6 -12l-70 -102q-7 -12 -23 -12h-48q-15 0 -9 14z" />
<glyph unicode="&#xca;" horiz-adv-x="555" d="M40 15v49q0 15 15 15h53v519h-53q-15 0 -15 15v51q0 15 15 15h440q15 0 15 -15v-134q0 -15 -15 -15h-56q-15 0 -14 15l4 69h-209v-213h149l-4 51q-1 15 14 15h56q15 0 15 -15v-177q0 -15 -15 -15h-56q-15 0 -14 15l3 48h-148v-230h229l-4 71q-1 15 14 15h56q15 0 15 -15 v-134q0 -15 -15 -15h-460q-15 0 -15 15zM144 744l82 107q9 12 24 12h76q15 0 24 -12l82 -107q9 -12 -6 -12h-57q-16 0 -25 12l-58 71l-57 -71q-9 -12 -24 -12h-55q-15 0 -6 12z" />
<glyph unicode="&#xcb;" horiz-adv-x="555" d="M40 15v49q0 15 15 15h53v519h-53q-15 0 -15 15v51q0 15 15 15h440q15 0 15 -15v-134q0 -15 -15 -15h-56q-15 0 -14 15l4 69h-209v-213h149l-4 51q-1 15 14 15h56q15 0 15 -15v-177q0 -15 -15 -15h-56q-15 0 -14 15l3 48h-148v-230h229l-4 71q-1 15 14 15h56q15 0 15 -15 v-134q0 -15 -15 -15h-460q-15 0 -15 15zM127 800q0 28 17 44t45 16q62 0 62 -60q0 -29 -17.5 -45.5t-44.5 -16.5q-28 0 -45 16.5t-17 45.5zM330 800q0 28 17 44t45 16q62 0 62 -60q0 -29 -17.5 -45.5t-44.5 -16.5q-28 0 -45 16.5t-17 45.5z" />
<glyph unicode="&#xcc;" horiz-adv-x="328" d="M40 15v49q0 15 15 15h53v519h-53q-15 0 -15 15v51q0 15 15 15h218q15 0 15 -15v-51q0 -15 -15 -15h-53v-519h53q15 0 15 -15v-49q0 -15 -15 -15h-218q-15 0 -15 15zM56 843q-11 15 8 15h70q12 0 17 -3t10 -14l41 -92q8 -17 -11 -17h-40q-19 0 -30 15z" />
<glyph unicode="&#xcd;" horiz-adv-x="328" d="M40 15v49q0 15 15 15h53v519h-53q-15 0 -15 15v51q0 15 15 15h218q15 0 15 -15v-51q0 -15 -15 -15h-53v-519h53q15 0 15 -15v-49q0 -15 -15 -15h-218q-15 0 -15 15zM116 746l45 98q6 14 21 14h78q15 0 6 -12l-70 -102q-8 -12 -23 -12h-48q-15 0 -9 14z" />
<glyph unicode="&#xce;" horiz-adv-x="328" d="M20 744l82 107q9 12 24 12h76q15 0 24 -12l82 -107q9 -12 -6 -12h-57q-16 0 -25 12l-58 71l-57 -71q-9 -12 -24 -12h-55q-15 0 -6 12zM40 15v49q0 15 15 15h53v519h-53q-15 0 -15 15v51q0 15 15 15h218q15 0 15 -15v-51q0 -15 -15 -15h-53v-519h53q15 0 15 -15v-49 q0 -15 -15 -15h-218q-15 0 -15 15z" />
<glyph unicode="&#xcf;" horiz-adv-x="328" d="M0 800q0 28 17 44t45 16q62 0 62 -60q0 -29 -17.5 -45.5t-44.5 -16.5q-28 0 -45 16.5t-17 45.5zM40 15v49q0 15 15 15h53v519h-53q-15 0 -15 15v51q0 15 15 15h218q15 0 15 -15v-51q0 -15 -15 -15h-53v-519h53q15 0 15 -15v-49q0 -15 -15 -15h-218q-15 0 -15 15zM203 800 q0 28 17 44t45 16q62 0 62 -60q0 -29 -17.5 -45.5t-44.5 -16.5q-28 0 -45 16.5t-17 45.5z" />
<glyph unicode="&#xd0;" d="M53 15v49q0 15 15 15h52v235h-48q-11 0 -15 4t-4 15v15q0 11 4 15t15 4h48v231h-52q-15 0 -15 15v51q0 15 15 15q128 6 216 6q36 0 66.5 -2.5t69.5 -10.5t69.5 -21.5t61.5 -38.5t51.5 -58.5t33.5 -83.5t13 -112q0 -181 -100 -269.5t-273 -88.5h-208q-15 0 -15 15zM232 78 h66q110 0 170.5 72t60.5 190q0 132 -56.5 197t-176.5 65h-64v-235h150q11 0 15 -4t4 -15v-15q0 -11 -4 -15t-15 -4h-150v-236z" />
<glyph unicode="&#xd1;" horiz-adv-x="743" d="M40 15v49q0 15 15 15h53v519h-53q-15 0 -15 15v51q0 15 15 15h147q14 0 23 -13l333 -506v438h-53q-15 0 -15 15v51q0 15 15 15h193q15 0 15 -15v-51q0 -15 -15 -15h-53v-583q0 -15 -15 -15h-73q-15 0 -23 12l-339 501v-434h83q15 0 15 -15v-49q0 -15 -15 -15h-223 q-15 0 -15 15zM201 764q0 53 22 73.5t51 20.5q27 0 93 -20.5t89 -20.5q34 0 34 27q0 13 15 13h24q12 0 12 -14q0 -50 -21.5 -74.5t-54.5 -24.5t-99 19t-80 19q-30 0 -30 -22q0 -7 -2 -8.5t-10 -1.5h-31q-12 0 -12 14z" />
<glyph unicode="&#xd2;" d="M43 333q0 100 30 174.5t78.5 113.5t99 57t103.5 18q37 0 71 -6t77 -26.5t73.5 -55t52 -98.5t21.5 -149q0 -180 -88.5 -276.5t-227.5 -96.5q-138 0 -214 88t-76 257zM163 368q0 -286 182 -286q179 0 179 260q0 266 -182 266q-64 0 -105.5 -34.5t-57.5 -86t-16 -119.5z M259 843q-11 15 8 15h70q19 0 27 -17l41 -92q8 -17 -11 -17h-40q-19 0 -30 15z" />
<glyph unicode="&#xd3;" d="M43 333q0 100 30 174.5t78.5 113.5t99 57t103.5 18q37 0 71 -6t77 -26.5t73.5 -55t52 -98.5t21.5 -149q0 -180 -88.5 -276.5t-227.5 -96.5q-138 0 -214 88t-76 257zM163 368q0 -286 182 -286q179 0 179 260q0 266 -182 266q-64 0 -105.5 -34.5t-57.5 -86t-16 -119.5z M315 746l45 98q6 14 21 14h78q15 0 6 -12l-70 -102q-7 -12 -23 -12h-48q-15 0 -9 14z" />
<glyph unicode="&#xd4;" d="M43 333q0 100 30 174.5t78.5 113.5t99 57t103.5 18q37 0 71 -6t77 -26.5t73.5 -55t52 -98.5t21.5 -149q0 -180 -88.5 -276.5t-227.5 -96.5q-138 0 -214 88t-76 257zM163 368q0 -286 182 -286q179 0 179 260q0 266 -182 266q-64 0 -105.5 -34.5t-57.5 -86t-16 -119.5z M212 744l82 107q9 12 24 12h76q15 0 24 -12l82 -107q9 -12 -6 -12h-57q-16 0 -25 12l-58 71l-57 -71q-9 -12 -24 -12h-55q-15 0 -6 12z" />
<glyph unicode="&#xd5;" d="M43 333q0 100 30 174.5t78.5 113.5t99 57t103.5 18q37 0 71 -6t77 -26.5t73.5 -55t52 -98.5t21.5 -149q0 -180 -88.5 -276.5t-227.5 -96.5q-138 0 -214 88t-76 257zM163 368q0 -286 182 -286q179 0 179 260q0 266 -182 266q-64 0 -105.5 -34.5t-57.5 -86t-16 -119.5z M176 764q0 53 22 73.5t51 20.5q27 0 93 -20.5t89 -20.5q34 0 34 27q0 13 15 13h24q12 0 12 -14q0 -50 -21.5 -74.5t-54.5 -24.5q-32 0 -98 19t-81 19q-30 0 -30 -22q0 -7 -2 -8.5t-10 -1.5h-31q-12 0 -12 14z" />
<glyph unicode="&#xd6;" d="M43 333q0 100 30 174.5t78.5 113.5t99 57t103.5 18q37 0 71 -6t77 -26.5t73.5 -55t52 -98.5t21.5 -149q0 -180 -88.5 -276.5t-227.5 -96.5q-138 0 -214 88t-76 257zM163 368q0 -286 182 -286q179 0 179 260q0 266 -182 266q-64 0 -105.5 -34.5t-57.5 -86t-16 -119.5z M182 800q0 28 17 44t45 16q62 0 62 -60q0 -29 -17.5 -45.5t-44.5 -16.5q-28 0 -45 16.5t-17 45.5zM385 800q0 28 17 44t45 16q62 0 62 -60q0 -29 -17.5 -45.5t-44.5 -16.5q-28 0 -45 16.5t-17 45.5z" />
<glyph unicode="&#xd7;" horiz-adv-x="530" d="M88 143q-13 13 0 26l123 122l-123 123q-13 13 0 26l26 26q13 13 26 0l122 -123l125 125q13 13 26 0l20 -20q13 -13 0 -26l-125 -125l134 -133q13 -13 0 -26l-26 -26q-13 -13 -26 0l-133 133l-123 -122q-13 -13 -26 0z" />
<glyph unicode="&#xd8;" d="M43 333q0 100 30 174.5t78.5 113.5t99 57t103.5 18q41 0 80 -8l21 55q4 11 8.5 14.5t16.5 3.5h31q11 0 14 -3.5t-1 -14.5l-28 -76q153 -73 153 -306q0 -180 -88.5 -276.5t-227.5 -96.5q-47 0 -84 10l-24 -65q-4 -11 -8.5 -14.5t-16.5 -3.5h-30q-11 0 -14 3.5t1 14.5 l32 86q-146 76 -146 314zM163 368q0 -174 65 -241l174 472q-27 9 -60 9q-64 0 -105.5 -34.5t-57.5 -86t-16 -119.5zM284 92q28 -10 61 -10q179 0 179 260q0 156 -66 222z" />
<glyph unicode="&#xd9;" horiz-adv-x="713" d="M25 613v51q0 15 15 15h218q15 0 15 -15v-51q0 -15 -15 -15h-53v-314q0 -50 5 -82.5t20 -63.5t47 -45.5t83 -14.5q90 0 127 52t37 151v317h-53q-15 0 -15 15v51q0 15 15 15h202q15 0 15 -15v-51q0 -15 -15 -15h-53v-338q0 -55 -12 -100t-40 -85.5t-81.5 -63.5t-129.5 -23 q-148 0 -206 64.5t-58 196.5v349h-53q-15 0 -15 15zM265 843q-11 15 8 15h70q19 0 27 -17l41 -92q8 -17 -11 -17h-40q-19 0 -30 15z" />
<glyph unicode="&#xda;" horiz-adv-x="713" d="M25 613v51q0 15 15 15h218q15 0 15 -15v-51q0 -15 -15 -15h-53v-314q0 -50 5 -82.5t20 -63.5t47 -45.5t83 -14.5q90 0 127 52t37 151v317h-53q-15 0 -15 15v51q0 15 15 15h202q15 0 15 -15v-51q0 -15 -15 -15h-53v-338q0 -55 -12 -100t-40 -85.5t-81.5 -63.5t-129.5 -23 q-148 0 -206 64.5t-58 196.5v349h-53q-15 0 -15 15zM337 746l45 98q6 14 21 14h78q15 0 6 -12l-70 -102q-7 -12 -23 -12h-48q-15 0 -9 14z" />
<glyph unicode="&#xdb;" horiz-adv-x="713" d="M25 613v51q0 15 15 15h218q15 0 15 -15v-51q0 -15 -15 -15h-53v-314q0 -50 5 -82.5t20 -63.5t47 -45.5t83 -14.5q90 0 127 52t37 151v317h-53q-15 0 -15 15v51q0 15 15 15h202q15 0 15 -15v-51q0 -15 -15 -15h-53v-338q0 -55 -12 -100t-40 -85.5t-81.5 -63.5t-129.5 -23 q-148 0 -206 64.5t-58 196.5v349h-53q-15 0 -15 15zM222 744l82 107q9 12 24 12h76q15 0 24 -12l82 -107q9 -12 -6 -12h-57q-16 0 -25 12l-58 71l-57 -71q-9 -12 -24 -12h-55q-15 0 -6 12z" />
<glyph unicode="&#xdc;" horiz-adv-x="713" d="M25 613v51q0 15 15 15h218q15 0 15 -15v-51q0 -15 -15 -15h-53v-314q0 -50 5 -82.5t20 -63.5t47 -45.5t83 -14.5q90 0 127 52t37 151v317h-53q-15 0 -15 15v51q0 15 15 15h202q15 0 15 -15v-51q0 -15 -15 -15h-53v-338q0 -55 -12 -100t-40 -85.5t-81.5 -63.5t-129.5 -23 q-148 0 -206 64.5t-58 196.5v349h-53q-15 0 -15 15zM202 800q0 28 17 44t45 16q62 0 62 -60q0 -29 -17.5 -45.5t-44.5 -16.5q-28 0 -45 16.5t-17 45.5zM405 800q0 28 17 44t45 16q62 0 62 -60q0 -29 -17.5 -45.5t-44.5 -16.5q-28 0 -45 16.5t-17 45.5z" />
<glyph unicode="&#xdd;" horiz-adv-x="664" d="M10 613v51q0 15 15 15h254q15 0 15 -15v-51q0 -15 -15 -15h-71l144 -246l143 246h-67q-15 0 -15 15v51q0 15 15 15h211q15 0 15 -15v-51q0 -15 -15 -15h-53l-195 -328v-192h53q15 0 15 -15v-48q0 -15 -15 -15h-218q-15 0 -15 15v48q0 15 15 15h53v179l-202 341h-52 q-15 0 -15 15zM314 746l45 98q6 14 21 14h78q15 0 6 -12l-70 -102q-7 -12 -23 -12h-48q-15 0 -9 14z" />
<glyph unicode="&#xde;" horiz-adv-x="565" d="M40 19v42q0 11 4 15t15 3h48v520h-48q-11 -1 -15 3t-4 15v43q0 11 4 15t15 4h207q11 0 15 -4t4 -15v-43q0 -11 -4 -15t-15 -3h-47v-31h48q263 0 263 -194q0 -104 -68 -160.5t-179 -56.5q-39 0 -64 3v-81h79q11 1 15 -3t4 -15v-42q0 -11 -4 -15t-15 -4h-239q-11 0 -15 4 t-4 15zM219 237q8 -1 31 -1q83 0 124 29.5t41 100.5q0 67 -38.5 92t-107.5 25h-50v-246z" />
<glyph unicode="&#xdf;" horiz-adv-x="636" d="M17 19v42q0 11 4 15t15 3h58v477q0 93 49.5 148.5t174.5 55.5q93 0 150 -34.5t57 -107.5q0 -35 -19.5 -70t-43.5 -59.5t-43.5 -54t-19.5 -53.5q0 -27 22.5 -47.5t54.5 -36t63.5 -33.5t54 -50.5t22.5 -77.5q0 -69 -48.5 -108.5t-130.5 -39.5q-60 0 -114 18 q-11 4 -13.5 8.5t0.5 15.5l10 38q3 10 7.5 12.5t14.5 -1.5q52 -22 94 -22q79 0 79 63q0 29 -22.5 49t-54.5 33.5t-64 29t-54.5 44.5t-22.5 71q0 40 19.5 78t43 62.5t43 57t19.5 62.5q0 74 -106 74q-59 0 -84.5 -30.5t-25.5 -87.5v-484h41q11 1 15 -3t4 -15v-42q0 -11 -4 -15 t-15 -4h-211q-11 0 -15 4t-4 15z" />
<glyph unicode="&#xe0;" horiz-adv-x="524" d="M35 129q0 34 11 60.5t26.5 43.5t43 29.5t49.5 18.5t56.5 10t54 4.5t52.5 1.5v35q0 21 -2.5 36t-11 30t-27 23t-46.5 8q-44 0 -63.5 -16.5t-26.5 -47.5q-3 -15 -15 -15h-64q-16 0 -14 15q4 73 59 107t140 34q179 0 179 -164v-263h43q15 0 15 -15v-49q0 -15 -15 -15h-118 q-13 0 -15 15l-7 46q-54 -73 -156 -73q-64 0 -106 33.5t-42 107.5zM141 139q0 -69 79 -69q52 0 81 24.5t29 56.5v77q-29 0 -43 -0.5t-41 -3t-41.5 -8.5t-31.5 -15t-24.5 -25t-7.5 -37zM155 715q-5 10 -3 13.5t13 3.5h72q12 0 16.5 -3.5t8.5 -14.5l43 -116q4 -10 1 -14 t-14 -4h-44q-20 0 -28 17z" />
<glyph unicode="&#xe1;" horiz-adv-x="524" d="M35 129q0 34 11 60.5t26.5 43.5t43 29.5t49.5 18.5t56.5 10t54 4.5t52.5 1.5v35q0 21 -2.5 36t-11 30t-27 23t-46.5 8q-44 0 -63.5 -16.5t-26.5 -47.5q-3 -15 -15 -15h-64q-16 0 -14 15q4 73 59 107t140 34q179 0 179 -164v-263h43q15 0 15 -15v-49q0 -15 -15 -15h-118 q-13 0 -15 15l-7 46q-54 -73 -156 -73q-64 0 -106 33.5t-42 107.5zM141 139q0 -69 79 -69q52 0 81 24.5t29 56.5v77q-29 0 -43 -0.5t-41 -3t-41.5 -8.5t-31.5 -15t-24.5 -25t-7.5 -37zM217 598l42 116q4 11 8.5 14.5t16.5 3.5h72q11 0 13 -3.5t-3 -13.5l-65 -118 q-5 -10 -10.5 -13.5t-17.5 -3.5h-43q-11 0 -14 4t1 14z" />
<glyph unicode="&#xe2;" horiz-adv-x="524" d="M35 129q0 34 11 60.5t26.5 43.5t43 29.5t49.5 18.5t56.5 10t54 4.5t52.5 1.5v35q0 21 -2.5 36t-11 30t-27 23t-46.5 8q-44 0 -63.5 -16.5t-26.5 -47.5q-3 -15 -15 -15h-64q-16 0 -14 15q4 73 59 107t140 34q179 0 179 -164v-263h43q15 0 15 -15v-49q0 -15 -15 -15h-118 q-13 0 -15 15l-7 46q-54 -73 -156 -73q-64 0 -106 33.5t-42 107.5zM111 593l84 135q9 13 23 13h76q14 0 23 -13l84 -135q9 -13 -7 -13h-59q-15 0 -23 12l-58 85l-54 -84q-9 -13 -23 -13h-59q-16 0 -7 13zM141 139q0 -69 79 -69q52 0 81 24.5t29 56.5v77q-29 0 -43 -0.5 t-41 -3t-41.5 -8.5t-31.5 -15t-24.5 -25t-7.5 -37z" />
<glyph unicode="&#xe3;" horiz-adv-x="524" d="M35 129q0 34 11 60.5t26.5 43.5t43 29.5t49.5 18.5t56.5 10t54 4.5t52.5 1.5v35q0 21 -2.5 36t-11 30t-27 23t-46.5 8q-44 0 -63.5 -16.5t-26.5 -47.5q-3 -15 -15 -15h-64q-16 0 -14 15q4 73 59 107t140 34q179 0 179 -164v-263h43q15 0 15 -15v-49q0 -15 -15 -15h-118 q-13 0 -15 15l-7 46q-54 -73 -156 -73q-64 0 -106 33.5t-42 107.5zM80 618q0 53 22 73.5t51 20.5q27 0 93 -20.5t89 -20.5q34 0 34 27q0 13 15 13h24q12 0 12 -14q0 -50 -21.5 -74.5t-54.5 -24.5q-32 0 -98 19t-81 19q-30 0 -30 -22q0 -7 -2 -8.5t-10 -1.5h-31q-12 0 -12 14 zM141 139q0 -69 79 -69q52 0 81 24.5t29 56.5v77q-29 0 -43 -0.5t-41 -3t-41.5 -8.5t-31.5 -15t-24.5 -25t-7.5 -37z" />
<glyph unicode="&#xe4;" horiz-adv-x="524" d="M35 129q0 34 11 60.5t26.5 43.5t43 29.5t49.5 18.5t56.5 10t54 4.5t52.5 1.5v35q0 21 -2.5 36t-11 30t-27 23t-46.5 8q-44 0 -63.5 -16.5t-26.5 -47.5q-3 -15 -15 -15h-64q-16 0 -14 15q4 73 59 107t140 34q179 0 179 -164v-263h43q15 0 15 -15v-49q0 -15 -15 -15h-118 q-13 0 -15 15l-7 46q-54 -73 -156 -73q-64 0 -106 33.5t-42 107.5zM82 657q0 28 17 44t45 16q62 0 62 -60q0 -29 -17.5 -45.5t-44.5 -16.5q-28 0 -45 16.5t-17 45.5zM141 139q0 -69 79 -69q52 0 81 24.5t29 56.5v77q-29 0 -43 -0.5t-41 -3t-41.5 -8.5t-31.5 -15t-24.5 -25 t-7.5 -37zM285 657q0 28 17 44t45 16q62 0 62 -60q0 -29 -17.5 -45.5t-44.5 -16.5q-28 0 -45 16.5t-17 45.5z" />
<glyph unicode="&#xe5;" horiz-adv-x="524" d="M35 129q0 34 11 60.5t26.5 43.5t43 29.5t49.5 18.5t56.5 10t54 4.5t52.5 1.5v35q0 21 -2.5 36t-11 30t-27 23t-46.5 8q-44 0 -63.5 -16.5t-26.5 -47.5q-3 -15 -15 -15h-64q-16 0 -14 15q4 73 59 107t140 34q179 0 179 -164v-263h43q15 0 15 -15v-49q0 -15 -15 -15h-118 q-13 0 -15 15l-7 46q-54 -73 -156 -73q-64 0 -106 33.5t-42 107.5zM141 139q0 -69 79 -69q52 0 81 24.5t29 56.5v77q-29 0 -43 -0.5t-41 -3t-41.5 -8.5t-31.5 -15t-24.5 -25t-7.5 -37zM158 666q0 42 28.5 71t71.5 29q45 0 72 -28t27 -67q0 -46 -28 -76t-73 -30q-46 0 -72 29 t-26 72zM216 666q0 -21 11 -35t31 -14t31.5 14t11.5 35q0 22 -11.5 35t-31.5 13q-42 0 -42 -48z" />
<glyph unicode="&#xe6;" horiz-adv-x="778" d="M35 136q0 35 11 62t26.5 45t43 30.5t49.5 19t56.5 10.5t54 4.5t52.5 1.5v27q0 49 -20 71t-65 22q-81 0 -92 -60q-2 -12 -6.5 -15.5t-16.5 -3.5h-52q-11 0 -14.5 4t-2.5 15q13 137 193 137q112 0 145 -70q56 70 160 70q53 0 91 -18t59.5 -50t31 -69.5t9.5 -83.5 q0 -20 -1 -31q-1 -12 -4.5 -15.5t-15.5 -3.5h-292q0 -163 144 -163q51 0 108 25q11 4 15 2.5t9 -12.5l15 -39q4 -11 2.5 -16t-12.5 -10q-72 -34 -160 -34q-115 0 -172 63q-88 -63 -190 -63q-72 0 -115.5 35t-43.5 113zM141 145q0 -75 87 -75q35 0 70 13.5t53 29.5 q-27 47 -27 122q-27 -1 -42 -1.5t-40 -3.5t-40 -9t-30.5 -15.5t-23 -25t-7.5 -35.5zM435 309h203q0 23 -3 41t-12 35.5t-28.5 27t-48.5 9.5q-31 0 -54 -12t-34.5 -31t-16.5 -36t-6 -34z" />
<glyph unicode="&#xe7;" horiz-adv-x="468" d="M35 245q0 115 59.5 188t177.5 73q90 0 133 -49t43 -125q0 -13 -17 -13h-60q-16 0 -17 15q-5 88 -89 88q-60 0 -88 -41.5t-28 -126.5q0 -182 141 -182q45 0 105 27q15 6 21 -9l18 -44q5 -14 -8 -21q-52 -32 -133 -36l-13 -21l16 -14q38 -33 38 -62q0 -41 -96 -105 q-13 -8 -21 3l-8 10q-9 11 1 20q41 36 41 56t-22 37l-9 7q-10 9 -3 21l33 48q-110 6 -162.5 74t-52.5 182z" />
<glyph unicode="&#xe8;" horiz-adv-x="489" d="M35 248q0 108 59 183t170 75q55 0 94.5 -20.5t60.5 -56t30.5 -74t9.5 -82.5q0 -22 -1 -34q-1 -10 -4 -13t-14 -3h-294q5 -72 35.5 -111.5t105.5 -39.5q55 0 113 26q14 7 20 -8l19 -46q5 -12 -9 -20q-66 -36 -165 -36q-119 0 -174.5 69.5t-55.5 190.5zM146 297h208 q2 125 -98 125q-59 0 -83.5 -37.5t-26.5 -87.5zM166 715q-5 10 -3 13.5t13 3.5h72q12 0 16.5 -3.5t8.5 -14.5l43 -116q4 -10 1 -14t-14 -4h-44q-12 0 -17.5 3.5t-10.5 13.5z" />
<glyph unicode="&#xe9;" horiz-adv-x="489" d="M35 248q0 108 59 183t170 75q55 0 94.5 -20.5t60.5 -56t30.5 -74t9.5 -82.5q0 -22 -1 -34q-1 -10 -4 -13t-14 -3h-294q5 -72 35.5 -111.5t105.5 -39.5q55 0 113 26q14 7 20 -8l19 -46q5 -12 -9 -20q-66 -36 -165 -36q-119 0 -174.5 69.5t-55.5 190.5zM146 297h208 q2 125 -98 125q-59 0 -83.5 -37.5t-26.5 -87.5zM234 598l42 116q4 11 8.5 14.5t16.5 3.5h72q11 0 13 -3.5t-3 -13.5l-65 -118q-8 -17 -28 -17h-43q-11 0 -14 4t1 14z" />
<glyph unicode="&#xea;" horiz-adv-x="489" d="M35 248q0 108 59 183t170 75q55 0 94.5 -20.5t60.5 -56t30.5 -74t9.5 -82.5q0 -22 -1 -34q-1 -10 -4 -13t-14 -3h-294q5 -72 35.5 -111.5t105.5 -39.5q55 0 113 26q14 7 20 -8l19 -46q5 -12 -9 -20q-66 -36 -165 -36q-119 0 -174.5 69.5t-55.5 190.5zM116 593l84 135 q9 13 23 13h76q14 0 23 -13l84 -135q9 -13 -7 -13h-59q-16 0 -23 12l-58 85l-54 -84q-9 -13 -23 -13h-59q-16 0 -7 13zM146 297h208q2 125 -98 125q-59 0 -83.5 -37.5t-26.5 -87.5z" />
<glyph unicode="&#xeb;" horiz-adv-x="489" d="M35 248q0 108 59 183t170 75q55 0 94.5 -20.5t60.5 -56t30.5 -74t9.5 -82.5q0 -22 -1 -34q-1 -10 -4 -13t-14 -3h-294q5 -72 35.5 -111.5t105.5 -39.5q55 0 113 26q14 7 20 -8l19 -46q5 -12 -9 -20q-66 -36 -165 -36q-119 0 -174.5 69.5t-55.5 190.5zM102 657q0 28 17 44 t45 16q62 0 62 -60q0 -29 -17.5 -45.5t-44.5 -16.5q-28 0 -45 16.5t-17 45.5zM146 297h208q2 125 -98 125q-59 0 -83.5 -37.5t-26.5 -87.5zM305 657q0 28 17 44t45 16q62 0 62 -60q0 -29 -17.5 -45.5t-44.5 -16.5q-28 0 -45 16.5t-17 45.5z" />
<glyph unicode="&#xec;" horiz-adv-x="294" d="M16 15v49q0 15 15 15h63v334h-54q-15 0 -15 15v52q0 15 15 15h151q15 0 15 -15v-401h63q15 0 15 -15v-49q0 -15 -15 -15h-238q-15 0 -15 15zM40 715q-5 10 -3 13.5t13 3.5h72q12 0 16.5 -3.5t8.5 -14.5l43 -116q4 -10 1 -14t-14 -4h-44q-12 0 -17.5 3.5t-10.5 13.5z" />
<glyph unicode="&#xed;" horiz-adv-x="294" d="M16 15v49q0 15 15 15h63v334h-54q-15 0 -15 15v52q0 15 15 15h151q15 0 15 -15v-401h63q15 0 15 -15v-49q0 -15 -15 -15h-238q-15 0 -15 15zM101 598l42 116q4 11 8.5 14.5t16.5 3.5h72q11 0 13 -3.5t-3 -13.5l-65 -118q-5 -10 -10.5 -13.5t-17.5 -3.5h-43q-11 0 -14 4 t1 14z" />
<glyph unicode="&#xee;" horiz-adv-x="294" d="M4 593l84 135q9 13 23 13h76q14 0 23 -13l84 -135q9 -13 -7 -13h-59q-16 0 -23 12l-58 85l-54 -84q-9 -13 -23 -13h-59q-16 0 -7 13zM16 15v49q0 15 15 15h63v334h-54q-15 0 -15 15v52q0 15 15 15h151q15 0 15 -15v-401h63q15 0 15 -15v-49q0 -15 -15 -15h-238 q-15 0 -15 15z" />
<glyph unicode="&#xef;" horiz-adv-x="294" d="M-39 657q0 28 17 44t45 16q62 0 62 -60q0 -29 -17.5 -45.5t-44.5 -16.5q-28 0 -45 16.5t-17 45.5zM16 15v49q0 15 15 15h63v334h-54q-15 0 -15 15v52q0 15 15 15h151q15 0 15 -15v-401h63q15 0 15 -15v-49q0 -15 -15 -15h-238q-15 0 -15 15zM164 657q0 28 17 44t45 16 q62 0 62 -60q0 -29 -17.5 -45.5t-44.5 -16.5q-28 0 -45 16.5t-17 45.5z" />
<glyph unicode="&#xf0;" horiz-adv-x="528" d="M35 216q0 91 52.5 153t145.5 62q100 0 154 -75q-2 128 -30 212l-93 -43q-10 -5 -15 -3t-9 12l-6 14q-8 18 10 25l91 43q-43 58 -111 58q-79 0 -86 -76q-2 -11 -6 -15t-15 -4h-46q-11 0 -15 4t-3 15q4 149 175 149q125 0 188 -94l89 42q10 5 15 3t9 -12l7 -16q4 -9 2 -14 t-12 -9l-86 -40q51 -109 51 -309q0 -156 -56.5 -233t-177.5 -77q-106 0 -164 59t-58 169zM141 217q0 -66 29 -106.5t90 -40.5q42 0 69 17.5t38 49t14 59t2 63.5q-16 33 -52 59t-76 26q-57 0 -85.5 -34t-28.5 -93z" />
<glyph unicode="&#xf1;" horiz-adv-x="604" d="M25 427v53q0 15 15 15h136q13 0 16 -15l9 -58q56 84 160 84q155 0 155 -170v-257h58q15 0 15 -15v-49q0 -15 -15 -15h-218q-15 0 -15 15v49q0 15 15 15h48v207q0 63 -16 92t-70 29q-46 0 -79 -30t-33 -68v-230h62q15 0 15 -15v-49q0 -15 -15 -15h-227q-15 0 -15 15v49 q0 15 15 15h53v334h-54q-15 0 -15 14zM132 618q0 53 22 73.5t51 20.5q27 0 93 -20.5t89 -20.5q34 0 34 27q0 13 15 13h24q12 0 12 -14q0 -50 -21.5 -74.5t-54.5 -24.5q-32 0 -98 19t-81 19q-30 0 -30 -22q0 -7 -2 -8.5t-10 -1.5h-31q-12 0 -12 14z" />
<glyph unicode="&#xf2;" horiz-adv-x="532" d="M35 240q0 75 23 130t60.5 83t75.5 40.5t78 12.5q28 0 53.5 -4t58.5 -19t56.5 -40t40 -72t16.5 -110q0 -134 -67.5 -203.5t-173.5 -69.5q-104 0 -162.5 63.5t-58.5 188.5zM148 262q0 -192 117 -192q60 0 87.5 44.5t27.5 132.5t-27.5 132.5t-89.5 44.5q-115 0 -115 -162z M176 715q-5 10 -3 13.5t13 3.5h72q12 0 16.5 -3.5t8.5 -14.5l43 -116q4 -10 1 -14t-14 -4h-44q-12 0 -17.5 3.5t-10.5 13.5z" />
<glyph unicode="&#xf3;" horiz-adv-x="532" d="M35 240q0 75 23 130t60.5 83t75.5 40.5t78 12.5q28 0 53.5 -4t58.5 -19t56.5 -40t40 -72t16.5 -110q0 -134 -67.5 -203.5t-173.5 -69.5q-104 0 -162.5 63.5t-58.5 188.5zM148 262q0 -192 117 -192q60 0 87.5 44.5t27.5 132.5t-27.5 132.5t-89.5 44.5q-115 0 -115 -162z M240 598l42 116q4 11 8.5 14.5t16.5 3.5h72q11 0 13 -3.5t-3 -13.5l-65 -118q-8 -17 -28 -17h-43q-11 0 -14 4t1 14z" />
<glyph unicode="&#xf4;" horiz-adv-x="532" d="M35 240q0 75 23 130t60.5 83t75.5 40.5t78 12.5q28 0 53.5 -4t58.5 -19t56.5 -40t40 -72t16.5 -110q0 -134 -67.5 -203.5t-173.5 -69.5q-104 0 -162.5 63.5t-58.5 188.5zM123 593l84 135q9 13 23 13h76q14 0 23 -13l84 -135q9 -13 -7 -13h-59q-16 0 -23 12l-58 85 l-54 -84q-9 -13 -23 -13h-59q-16 0 -7 13zM148 262q0 -192 117 -192q60 0 87.5 44.5t27.5 132.5t-27.5 132.5t-89.5 44.5q-115 0 -115 -162z" />
<glyph unicode="&#xf5;" horiz-adv-x="532" d="M35 240q0 75 23 130t60.5 83t75.5 40.5t78 12.5q28 0 53.5 -4t58.5 -19t56.5 -40t40 -72t16.5 -110q0 -134 -67.5 -203.5t-173.5 -69.5q-104 0 -162.5 63.5t-58.5 188.5zM96 618q0 53 22 73.5t51 20.5q27 0 93 -20.5t89 -20.5q34 0 34 27q0 13 15 13h24q12 0 12 -14 q0 -50 -21.5 -74.5t-54.5 -24.5q-32 0 -98 19t-81 19q-30 0 -30 -22q0 -7 -2 -8.5t-10 -1.5h-31q-12 0 -12 14zM148 262q0 -192 117 -192q60 0 87.5 44.5t27.5 132.5t-27.5 132.5t-89.5 44.5q-115 0 -115 -162z" />
<glyph unicode="&#xf6;" horiz-adv-x="532" d="M35 240q0 75 23 130t60.5 83t75.5 40.5t78 12.5q28 0 53.5 -4t58.5 -19t56.5 -40t40 -72t16.5 -110q0 -134 -67.5 -203.5t-173.5 -69.5q-104 0 -162.5 63.5t-58.5 188.5zM110 657q0 28 17 44t45 16q62 0 62 -60q0 -29 -17.5 -45.5t-44.5 -16.5q-28 0 -45 16.5t-17 45.5z M148 262q0 -192 117 -192q60 0 87.5 44.5t27.5 132.5t-27.5 132.5t-89.5 44.5q-115 0 -115 -162zM313 657q0 28 17 44t45 16q62 0 62 -60q0 -29 -17.5 -45.5t-44.5 -16.5q-28 0 -45 16.5t-17 45.5z" />
<glyph unicode="&#xf7;" horiz-adv-x="530" d="M35 284v27q0 11 4 15t15 4h422q11 0 15 -4t4 -15v-27q0 -11 -4 -15t-15 -4h-422q-11 0 -15 4t-4 15zM189 151q0 29 21 49t53 20q34 0 55 -19t21 -49t-20 -50t-55 -20t-55 19.5t-20 49.5zM189 457q0 29 21 49t53 20q34 0 55 -19t21 -49t-20 -50t-55 -20t-55 19.5t-20 49.5 z" />
<glyph unicode="&#xf8;" horiz-adv-x="532" d="M35 240q0 75 23 130t60.5 83t75.5 40.5t78 12.5t69 -7l32 74q4 11 8.5 14.5t16.5 3.5h24q11 0 14 -3.5t-1 -14.5l-41 -95q103 -56 103 -217q0 -134 -67.5 -203.5t-173.5 -69.5q-39 0 -72 9l-34 -80q-4 -11 -8.5 -14.5t-16.5 -3.5h-23q-11 0 -14 3.5t1 14.5l44 102 q-98 60 -98 221zM148 262q0 -97 28 -143l129 298q-21 7 -42 7q-115 0 -115 -162zM220 79q20 -9 45 -9q60 0 87.5 44.5t27.5 132.5q0 89 -29 134z" />
<glyph unicode="&#xf9;" horiz-adv-x="599" d="M20 428v52q0 15 15 15h150q15 0 15 -15v-292q0 -60 15.5 -85.5t70.5 -25.5q46 0 79 30t33 68v238h-63q-15 0 -15 15v52q0 15 15 15h160q15 0 15 -15v-401h44q15 0 15 -15v-49q0 -15 -15 -15h-112q-12 0 -15 15l-9 56q-64 -83 -168 -83q-162 0 -162 170v255h-53 q-15 0 -15 15zM208 715q-5 10 -3 13.5t13 3.5h72q12 0 16.5 -3.5t8.5 -14.5l43 -116q4 -10 1 -14t-14 -4h-44q-12 0 -17.5 3.5t-10.5 13.5z" />
<glyph unicode="&#xfa;" horiz-adv-x="599" d="M20 428v52q0 15 15 15h150q15 0 15 -15v-292q0 -60 15.5 -85.5t70.5 -25.5q46 0 79 30t33 68v238h-63q-15 0 -15 15v52q0 15 15 15h160q15 0 15 -15v-401h44q15 0 15 -15v-49q0 -15 -15 -15h-112q-12 0 -15 15l-9 56q-64 -83 -168 -83q-162 0 -162 170v255h-53 q-15 0 -15 15zM248 598l42 116q4 11 8.5 14.5t16.5 3.5h72q11 0 13 -3.5t-3 -13.5l-65 -118q-8 -17 -28 -17h-43q-11 0 -14 4t1 14z" />
<glyph unicode="&#xfb;" horiz-adv-x="599" d="M20 428v52q0 15 15 15h150q15 0 15 -15v-292q0 -60 15.5 -85.5t70.5 -25.5q46 0 79 30t33 68v238h-63q-15 0 -15 15v52q0 15 15 15h160q15 0 15 -15v-401h44q15 0 15 -15v-49q0 -15 -15 -15h-112q-12 0 -15 15l-9 56q-64 -83 -168 -83q-162 0 -162 170v255h-53 q-15 0 -15 15zM150 593l84 135q9 13 23 13h76q14 0 23 -13l84 -135q9 -13 -7 -13h-59q-16 0 -23 12l-58 85l-54 -84q-9 -13 -23 -13h-59q-16 0 -7 13z" />
<glyph unicode="&#xfc;" horiz-adv-x="599" d="M20 428v52q0 15 15 15h150q15 0 15 -15v-292q0 -60 15.5 -85.5t70.5 -25.5q46 0 79 30t33 68v238h-63q-15 0 -15 15v52q0 15 15 15h160q15 0 15 -15v-401h44q15 0 15 -15v-49q0 -15 -15 -15h-112q-12 0 -15 15l-9 56q-64 -83 -168 -83q-162 0 -162 170v255h-53 q-15 0 -15 15zM123 657q0 28 17 44t45 16q62 0 62 -60q0 -29 -17.5 -45.5t-44.5 -16.5q-28 0 -45 16.5t-17 45.5zM326 657q0 28 17 44t45 16q62 0 62 -60q0 -29 -17.5 -45.5t-44.5 -16.5q-28 0 -45 16.5t-17 45.5z" />
<glyph unicode="&#xfd;" horiz-adv-x="519" d="M-4 -199l17 49q4 13 19 9q48 -16 79 -16q30 0 46.5 15.5t34.5 64.5l25 66l-152 424h-50q-15 0 -15 15v52q0 15 15 15h131q15 0 19 -14l117 -364l104 296h-51q-15 0 -15 15v52q0 15 15 15h146q12 0 17.5 -9.5t0.5 -20.5l-214 -559q-15 -38 -25.5 -58.5t-30 -44 t-47.5 -33.5t-68 -10q-65 0 -111 22q-11 6 -7 19zM251 598l42 116q4 11 8.5 14.5t16.5 3.5h72q11 0 13 -3.5t-3 -13.5l-65 -118q-5 -10 -10.5 -13.5t-17.5 -3.5h-43q-11 0 -14 4t1 14z" />
<glyph unicode="&#xfe;" horiz-adv-x="584" d="M20 679v52q0 15 15 15h151q12 0 15 -15v-309q24 37 64 60.5t88 23.5q92 0 144 -60.5t52 -178.5q0 -143 -61 -211t-157 -68q-79 0 -130 42v-180h106q15 0 15 -15v-50q0 -15 -15 -15h-271q-15 0 -15 15v49q0 15 15 15h53v815h-54q-15 0 -15 15zM201 113q5 -5 14 -12 t38.5 -18.5t61.5 -11.5q58 0 89.5 39.5t31.5 133.5q0 38 -4 65t-15.5 53t-36 39t-61.5 13q-47 0 -82.5 -29.5t-35.5 -80.5v-191z" />
<glyph unicode="&#xff;" horiz-adv-x="519" d="M-4 -199l17 49q4 13 19 9q48 -16 79 -16q30 0 46.5 15.5t34.5 64.5l25 66l-152 424h-50q-15 0 -15 15v52q0 15 15 15h131q15 0 19 -14l117 -364l104 296h-51q-15 0 -15 15v52q0 15 15 15h146q12 0 17.5 -9.5t0.5 -20.5l-214 -559q-15 -38 -25.5 -58.5t-30 -44 t-47.5 -33.5t-68 -10q-65 0 -111 22q-11 6 -7 19zM101 657q0 28 17 44t45 16q62 0 62 -60q0 -29 -17.5 -45.5t-44.5 -16.5q-28 0 -45 16.5t-17 45.5zM304 657q0 28 17 44t45 16q62 0 62 -60q0 -29 -17.5 -45.5t-44.5 -16.5q-28 0 -45 16.5t-17 45.5z" />
<glyph unicode="&#x152;" horiz-adv-x="976" d="M50 330q0 81 20.5 146t52 105t74 67t83 37.5t81.5 10.5q106 0 173 -55v19q0 11 4 15t15 4h364q11 0 15 -4t4 -15v-126q0 -11 -4 -15t-15 -4h-48q-11 0 -15 4t-3 15l4 65h-209v-213h149l-4 47q-1 11 3 15t15 4h48q11 0 15 -4t4 -15v-169q0 -11 -4 -15t-15 -4h-48 q-11 0 -15 4t-3 15l3 44h-148v-226h229l-4 63q-1 11 3 15t15 4h48q11 0 15 -4t4 -15v-126q0 -11 -4 -15t-15 -4h-384q-11 0 -15 4t-4 15v36q-70 -67 -194 -67q-139 0 -214.5 86.5t-75.5 255.5zM170 368q0 -286 182 -286q93 0 136 69.5t43 187.5q0 122 -43 195.5t-139 73.5 q-93 0 -136 -68t-43 -172z" />
<glyph unicode="&#x153;" horiz-adv-x="830" d="M35 240q0 75 23 130t60.5 83t75.5 40.5t78 12.5q115 0 168 -75q58 75 165 75q55 0 94.5 -20.5t60.5 -56t30.5 -74t9.5 -82.5q0 -22 -1 -34q-1 -10 -4 -13t-14 -3h-294q5 -72 35.5 -111.5t105.5 -39.5q54 0 113 26q14 7 20 -8l19 -46q5 -12 -9 -20q-66 -36 -165 -36 q-122 0 -176 79q-59 -79 -174 -79q-104 0 -162.5 63.5t-58.5 188.5zM148 262q0 -192 117 -192q60 0 87.5 44.5t27.5 132.5t-27.5 132.5t-89.5 44.5q-115 0 -115 -162zM487 297h208q2 125 -98 125q-59 0 -83.5 -37.5t-26.5 -87.5z" />
<glyph unicode="&#x178;" horiz-adv-x="664" d="M10 613v51q0 15 15 15h254q15 0 15 -15v-51q0 -15 -15 -15h-71l144 -246l143 246h-67q-15 0 -15 15v51q0 15 15 15h211q15 0 15 -15v-51q0 -15 -15 -15h-53l-195 -328v-192h53q15 0 15 -15v-48q0 -15 -15 -15h-218q-15 0 -15 15v48q0 15 15 15h53v179l-202 341h-52 q-15 0 -15 15zM182 800q0 28 17 44t45 16q62 0 62 -60q0 -29 -17.5 -45.5t-44.5 -16.5q-28 0 -45 16.5t-17 45.5zM385 800q0 28 17 44t45 16q62 0 62 -60q0 -29 -17.5 -45.5t-44.5 -16.5q-28 0 -45 16.5t-17 45.5z" />
<glyph unicode="&#x2c6;" horiz-adv-x="500" d="M107 593l84 135q9 13 23 13h76q14 0 23 -13l84 -135q9 -13 -7 -13h-59q-15 0 -23 12l-58 85l-54 -84q-9 -13 -23 -13h-59q-16 0 -7 13z" />
<glyph unicode="&#x2dc;" horiz-adv-x="500" d="M80 618q0 53 22 73.5t51 20.5q27 0 93 -20.5t89 -20.5q34 0 34 27q0 13 15 13h24q12 0 12 -14q0 -50 -21.5 -74.5t-54.5 -24.5q-32 0 -98 19t-81 19q-30 0 -30 -22q0 -7 -2 -8.5t-10 -1.5h-31q-12 0 -12 14z" />
<glyph unicode="&#x2000;" horiz-adv-x="453" />
<glyph unicode="&#x2001;" horiz-adv-x="906" />
<glyph unicode="&#x2002;" horiz-adv-x="453" />
<glyph unicode="&#x2003;" horiz-adv-x="906" />
<glyph unicode="&#x2004;" horiz-adv-x="302" />
<glyph unicode="&#x2005;" horiz-adv-x="226" />
<glyph unicode="&#x2006;" horiz-adv-x="151" />
<glyph unicode="&#x2007;" horiz-adv-x="151" />
<glyph unicode="&#x2008;" horiz-adv-x="113" />
<glyph unicode="&#x2009;" horiz-adv-x="181" />
<glyph unicode="&#x200a;" horiz-adv-x="50" />
<glyph unicode="&#x2010;" horiz-adv-x="282" d="M30 237v59q0 11 4 15t15 4h184q11 0 15 -4t4 -15v-59q0 -11 -4 -15t-15 -4h-184q-11 0 -15 4t-4 15z" />
<glyph unicode="&#x2011;" horiz-adv-x="282" d="M30 237v59q0 11 4 15t15 4h184q11 0 15 -4t4 -15v-59q0 -11 -4 -15t-15 -4h-184q-11 0 -15 4t-4 15z" />
<glyph unicode="&#x2012;" horiz-adv-x="282" d="M30 237v59q0 11 4 15t15 4h184q11 0 15 -4t4 -15v-59q0 -11 -4 -15t-15 -4h-184q-11 0 -15 4t-4 15z" />
<glyph unicode="&#x2013;" horiz-adv-x="500" d="M0 267v39q0 11 4 15t15 4h462q11 0 15 -4t4 -15v-39q0 -11 -4 -15t-15 -4h-462q-11 0 -15 4t-4 15z" />
<glyph unicode="&#x2014;" horiz-adv-x="999" d="M0 267v39q0 11 4 15t15 4h961q11 0 15 -4t4 -15v-39q0 -11 -4 -15t-15 -4h-961q-11 0 -15 4t-4 15z" />
<glyph unicode="&#x2018;" horiz-adv-x="254" d="M66 564q0 17 6 35.5t12 29.5t21 35l44 74q9 15 26 8h1q11 -5 13 -9t-2 -15l-29 -90q31 -41 31 -70q0 -24 -16.5 -40t-43.5 -16t-45 16t-18 42z" />
<glyph unicode="&#x2019;" horiz-adv-x="254" d="M73 697q0 24 16.5 40t43.5 16t45 -16t18 -42q0 -17 -6 -35.5t-12 -29.5t-21 -35l-44 -74q-9 -15 -26 -8h-1q-11 5 -13 9t2 15l29 90q-31 41 -31 70z" />
<glyph unicode="&#x201a;" horiz-adv-x="254" d="M73 36q0 24 16.5 40t43.5 16t45 -16t18 -42q0 -17 -6 -35.5t-12 -29.5t-21 -35l-44 -74q-9 -15 -26 -8h-1q-11 5 -13 9t2 15l29 90q-31 41 -31 70z" />
<glyph unicode="&#x201c;" horiz-adv-x="404" d="M66 564q0 17 6 35.5t12 29.5t21 35l44 74q9 15 26 8h1q11 -5 13 -9t-2 -15l-29 -90q31 -41 31 -70q0 -24 -16.5 -40t-43.5 -16t-45 16t-18 42zM216 564q0 17 6 35.5t12 29.5t21 35l44 74q9 15 26 8h1q11 -5 13 -9t-2 -15l-29 -90q31 -41 31 -70q0 -24 -16.5 -40 t-43.5 -16t-45 16t-18 42z" />
<glyph unicode="&#x201d;" horiz-adv-x="404" d="M73 697q0 24 16.5 40t43.5 16t45 -16t18 -42q0 -17 -6 -35.5t-12 -29.5t-21 -35l-44 -74q-9 -15 -26 -8h-1q-11 5 -13 9t2 15l29 90q-31 41 -31 70zM223 697q0 24 16.5 40t43.5 16t45 -16t18 -42q0 -17 -6 -35.5t-12 -29.5t-21 -35l-44 -74q-9 -15 -26 -8h-1q-11 5 -13 9 t2 15l29 90q-31 41 -31 70z" />
<glyph unicode="&#x201e;" horiz-adv-x="394" d="M73 36q0 24 16.5 40t43.5 16t45 -16t18 -42q0 -17 -6 -35.5t-12 -29.5t-21 -35l-44 -74q-9 -15 -26 -8h-1q-11 5 -13 9t2 15l29 90q-31 41 -31 70zM223 36q0 24 16.5 40t43.5 16t45 -16t18 -42q0 -17 -6 -35.5t-12 -29.5t-21 -35l-44 -74q-9 -15 -26 -8h-1q-11 5 -13 9 t2 15l29 90q-31 41 -31 70z" />
<glyph unicode="&#x2022;" horiz-adv-x="361" d="M80 341q0 39 27.5 66.5t70.5 27.5q47 0 75 -26t28 -67q0 -40 -26.5 -67t-74.5 -27q-47 0 -73.5 26.5t-26.5 66.5z" />
<glyph unicode="&#x2026;" horiz-adv-x="773" d="M51 50q0 29 21 49t53 20q34 0 55 -19t21 -49t-20 -50t-55 -20t-55 19.5t-20 49.5zM298 50q0 29 21 49t53 20q34 0 55 -19t21 -49t-20 -50t-55 -20t-55 19.5t-20 49.5zM553 50q0 29 21 49t53 20q34 0 55 -19t21 -49t-20 -50t-55 -20t-55 19.5t-20 49.5z" />
<glyph unicode="&#x202f;" horiz-adv-x="181" />
<glyph unicode="&#x2039;" horiz-adv-x="327" d="M73 270q-7 17 1 34l88 171q8 17 28 17h58q19 0 11 -17l-95 -187l92 -187q8 -17 -11 -17h-60q-20 0 -27 17z" />
<glyph unicode="&#x203a;" horiz-adv-x="327" d="M69 101l95 188l-93 186q-8 17 11 17h60q20 0 27 -17l85 -169q7 -17 -1 -34l-88 -171q-5 -10 -10.5 -13.5t-17.5 -3.5h-58q-11 0 -13 3.5t3 13.5z" />
<glyph unicode="&#x205f;" horiz-adv-x="226" />
<glyph unicode="&#x20ac;" horiz-adv-x="527" d="M22 201l2 15q2 11 6 15t15 4h42q-1 19 0 39h-40q-11 0 -14.5 4t-1.5 15l2 15q1 12 5.5 15.5t16.5 3.5h37q12 72 51.5 120t85.5 66t99 18q92 0 155 -37q16 -9 16 -27v-88q0 -11 -4 -15t-15 -4h-43q-11 0 -15 4t-3 15l4 50q-36 32 -96 32q-63 0 -97 -37t-40 -97h192 q11 0 14.5 -3.5t1.5 -14.5l-3 -17q-1 -11 -5.5 -14.5t-16.5 -3.5h-185q-1 -21 1 -39h179q11 0 14.5 -4t1.5 -15l-2 -15q-1 -12 -5.5 -15.5t-16.5 -3.5h-165q25 -121 146 -121q51 0 82 19l-4 53q-1 11 2.5 15t14.5 4h45q11 0 15 -4t4 -15v-86q0 -19 -17 -27q-68 -32 -146 -32 q-213 0 -245 194h-53q-11 0 -14.5 4t-2.5 15z" />
<glyph unicode="&#x2122;" horiz-adv-x="844" d="M70 609v55q0 15 15 15h243q15 0 15 -15v-55q0 -15 -15 -15h-14q-15 0 -14 15l2 34h-64v-256h32q15 0 15 -15v-13q0 -15 -15 -15h-125q-15 0 -15 15v13q0 15 15 15h31v256h-63l2 -34q1 -15 -14 -15h-16q-15 0 -15 15zM367 359v12q0 15 15 15h18v251h-18q-15 0 -15 15v12 q0 15 15 15h75q16 0 20 -14l96 -254l99 254q4 14 20 14h67q15 0 15 -15v-12q0 -15 -15 -15h-17v-251h17q15 0 15 -15v-12q0 -15 -15 -15h-96q-15 0 -15 15v13q0 15 15 15h20v200l-88 -229q-4 -14 -20 -14h-20q-16 0 -20 14l-92 238v-209h28q15 0 15 -15v-13q0 -15 -15 -15 h-89q-15 0 -15 15z" />
<glyph unicode="&#xe000;" horiz-adv-x="495" d="M0 0v495h495v-495h-495z" />
<glyph unicode="&#xfb01;" horiz-adv-x="612" d="M20 15v49q0 15 15 15h62v335h-62q-15 0 -15 15v51q0 15 15 15h62v97q0 70 43 118.5t137 48.5q88 0 160 -35q12 -5 8 -19l-17 -50q-5 -12 -17 -7q-66 28 -116 28q-47 0 -66.5 -25.5t-19.5 -82.5v-73h300q15 0 15 -15v-401h63q15 0 15 -15v-49q0 -15 -15 -15h-228 q-15 0 -15 15v49q0 15 15 15h53v335h-203v-335h76q15 0 15 -15v-49q0 -15 -15 -15h-250q-15 0 -15 15z" />
<glyph unicode="&#xfb02;" horiz-adv-x="622" d="M20 15v49q0 15 15 15h62v335h-62q-15 0 -15 15v51q0 15 15 15h62v97q0 70 43 118.5t137 48.5q86 0 156 -33l80 17q21 5 21 -14v-650h63q15 0 15 -15v-49q0 -15 -15 -15h-238q-15 0 -15 15v49q0 15 15 15h63v564q-68 33 -122 33q-51 0 -71 -25t-20 -83v-73h121 q15 0 15 -15v-51q0 -15 -15 -15h-121v-335h76q15 0 15 -15v-49q0 -15 -15 -15h-250q-15 0 -15 15z" />
<glyph unicode="&#xfb03;" horiz-adv-x="938" d="M20 15v49q0 15 15 15h62v335h-62q-15 0 -15 15v51q0 15 15 15h62v87q0 34 6 61t21.5 52.5t47 39.5t78.5 14q61 0 117 -25q12 -5 8 -19l-15 -50q-5 -12 -17 -7q-40 18 -71 18q-41 0 -52 -23.5t-11 -84.5v-63h214v97q0 70 43 118.5t137 48.5q88 0 160 -35q12 -5 8 -19 l-17 -50q-5 -12 -17 -7q-66 28 -116 28q-47 0 -66.5 -25.5t-19.5 -82.5v-73h300q15 0 15 -15v-401h63q15 0 15 -15v-49q0 -15 -15 -15h-228q-15 0 -15 15v49q0 15 15 15h53v335h-203v-335h76q15 0 15 -15v-49q0 -15 -15 -15h-250q-15 0 -15 15v49q0 15 15 15h62v335h-214 v-335h83q15 0 15 -15v-49q0 -15 -15 -15h-257q-15 0 -15 15z" />
<glyph unicode="&#xfb04;" horiz-adv-x="950" d="M20 15v49q0 15 15 15h62v335h-62q-15 0 -15 15v51q0 15 15 15h62v87q0 34 6 61t21.5 52.5t47 39.5t78.5 14q61 0 117 -25q12 -5 8 -19l-15 -50q-5 -12 -17 -7q-40 18 -71 18q-41 0 -52 -23.5t-11 -84.5v-63h216v97q0 70 43 118.5t137 48.5q86 0 156 -33l80 17 q21 5 21 -14v-650h63q15 0 15 -15v-49q0 -15 -15 -15h-238q-15 0 -15 15v49q0 15 15 15h63v564q-68 33 -122 33q-51 0 -71 -25t-20 -83v-73h121q15 0 15 -15v-51q0 -15 -15 -15h-121v-335h76q15 0 15 -15v-49q0 -15 -15 -15h-250q-15 0 -15 15v49q0 15 15 15h62v335h-216 v-335h83q15 0 15 -15v-49q0 -15 -15 -15h-257q-15 0 -15 15z" />
</font>
</defs>
</svg>
