<?xml version="1.0" standalone="no"?>
<!DOCTYPE svg PUBLIC "-//W3C//DTD SVG 1.1//EN" "http://www.w3.org/Graphics/SVG/1.1/DTD/svg11.dtd" >
<svg xmlns="http://www.w3.org/2000/svg">
<metadata></metadata>
<defs>
<font id="technique_ol_brknormal" horiz-adv-x="819" >
<font-face units-per-em="1000" ascent="800" descent="-200" />
<missing-glyph horiz-adv-x="500" />
<glyph unicode="&#xd;" horiz-adv-x="1000" />
<glyph unicode=" "  horiz-adv-x="500" />
<glyph unicode="&#x09;" horiz-adv-x="500" />
<glyph unicode="&#xa0;" horiz-adv-x="500" />
<glyph unicode="!" horiz-adv-x="297" d="M257 109q0 -23 -8.5 -42.5t-23.5 -34.5t-35 -23.5t-42 -8.5q-44 0 -76 32t-32 77q0 22 8.5 42t23 35t34 23.5t42.5 8.5q22 0 42 -8.5t35 -23.5t23.5 -35t8.5 -42zM257 370q0 -23 -8.5 -42.5t-23.5 -34.5t-35 -23.5t-42 -8.5q-44 0 -76 32t-32 77v261q0 22 8.5 42t23 35 t34 23.5t42.5 8.5q22 0 42 -8.5t35 -23.5t23.5 -35t8.5 -42v-261zM329 109q0 38 -15 71.5t-41 58.5q26 25 41 58.5t15 72.5v261q0 37 -14 70t-39 58t-58 39t-70 14q-38 0 -71 -14t-57 -39t-38 -58t-14 -70v-261q0 -75 53 -128q0 -2 2 -2q-26 -25 -40.5 -59t-14.5 -72 q0 -75 53 -128t127 -53q37 0 70 14t58 39t39 57.5t14 70.5z" />
<glyph unicode="&#x22;" horiz-adv-x="558" d="M518 500q0 -44 -32 -76t-77 -32q-23 0 -42.5 8.5t-34 23t-23 34t-8.5 42.5v131q0 22 8.5 42t23 35t34 23.5t42.5 8.5q22 0 42 -8.5t35 -23.5t23.5 -35t8.5 -42v-131zM257 500q0 -44 -32 -76t-77 -32q-23 0 -42.5 8.5t-34 23t-23 34t-8.5 42.5v131q0 22 8.5 42t23 35 t34 23.5t42.5 8.5q22 0 42 -8.5t35 -23.5t23.5 -35t8.5 -42v-131zM590 631q0 37 -14 70t-39 58t-58 39t-70 14q-39 0 -72.5 -15t-58.5 -41q-25 26 -58.5 41t-71.5 15t-71 -14t-57 -39t-38 -58t-14 -70v-131q0 -38 14 -70.5t38.5 -57t57 -38.5t70.5 -14q75 0 128 53l2 2 q25 -26 58.5 -40.5t72.5 -14.5q75 0 128 53t53 127v131z" />
<glyph unicode="#" d="M431 392h-43v-44h43v44zM779 240q0 -23 -8.5 -42.5t-23.5 -34.5t-35 -23.5t-42 -8.5h-22v-22q0 -23 -8.5 -42.5t-23 -34.5t-34 -23.5t-42.5 -8.5t-42.5 8.5t-34.5 23.5t-23.5 34.5t-8.5 42.5v22h-43v-22q0 -23 -8.5 -42.5t-23.5 -34.5t-35 -23.5t-42 -8.5 q-23 0 -42.5 8.5t-34.5 23.5t-23.5 34.5t-8.5 42.5v22h-22q-44 0 -76 32t-32 77q0 22 8.5 42t23 34.5t34 23t42.5 8.5h22v44h-22q-23 0 -42.5 8.5t-34 23t-23 34t-8.5 42.5q0 22 8.5 42t23 35t34 23.5t42.5 8.5h22v22q0 22 8.5 42t23.5 35t34.5 23.5t42.5 8.5q22 0 42 -8.5 t35 -23.5t23.5 -35t8.5 -42v-22h43v22q0 22 8.5 42t23.5 35t34.5 23.5t42.5 8.5q44 0 76 -32t32 -77v-22h22q22 0 42 -8.5t35 -23.5t23.5 -35t8.5 -42q0 -44 -32 -76t-77 -32h-22v-44h22q22 0 42 -8.5t35 -23t23.5 -34t8.5 -42.5zM851 240q0 39 -15 72.5t-41 57.5l3 3 q53 53 53 127q0 31 -10.5 59.5t-28.5 52t-43 39.5t-54 24q-12 48 -48 84q-53 53 -127 53q-39 0 -72.5 -15t-58.5 -41q-25 26 -58.5 41t-71.5 15q-32 0 -60.5 -10.5t-52 -28.5t-40 -43t-23.5 -55q-30 -7 -54.5 -23.5t-42.5 -39.5t-28 -51.5t-10 -60.5q0 -39 14.5 -72.5 t40.5 -57.5q-26 -25 -40.5 -58.5t-14.5 -71.5q0 -75 53 -128q18 -18 38.5 -30.5t43.5 -17.5q7 -29 23.5 -54t40 -43t52 -28.5t60.5 -10.5q38 0 71.5 15t58.5 41q25 -26 58.5 -41t72.5 -15q32 0 60.5 10.5t51.5 28.5t39 43t23 54q30 7 55 23.5t43 40t28.5 52t10.5 60.5z" />
<glyph unicode="$" d="M409 479q22 0 42 -8.5t35 -23.5t23.5 -35t8.5 -42q0 -23 -8.5 -42.5t-23.5 -34.5t-35 -23.5t-42 -8.5q-44 0 -76 32t-32 77q0 22 8.5 42t23 35t34 23.5t42.5 8.5zM40 370q0 125 74 223q75 98 193 132q-6 16 -6 36q0 22 8.5 42t23 35t34 23.5t42.5 8.5q22 0 42 -8.5 t35 -23.5t23.5 -35t8.5 -42l-2 -21h154q22 0 42 -8.5t35 -23.5t23.5 -35t8.5 -42q0 -23 -8.5 -42.5t-23.5 -34.5t-35 -23.5t-42 -8.5h-261q-63 0 -108 -45q-44 -44 -44 -107q0 -23 -8.5 -43t-23 -34.5t-34.5 -23t-43 -8.5q-44 0 -76 32t-32 77zM779 370q0 -126 -76 -224 q-75 -98 -192 -131q7 -18 7 -36q0 -23 -8.5 -42.5t-23.5 -34.5t-35 -23.5t-42 -8.5q-44 0 -76 32t-32 77q0 11 2 21h-155q-44 0 -76 32t-32 77q0 22 8.5 42t23 35t34 23.5t42.5 8.5h261q62 0 108 44q45 43 45 108q0 22 8.5 42t23 35t34 23.5t42.5 8.5q22 0 42 -8.5t35 -23.5 t23.5 -35t8.5 -42zM-32 370q0 -75 53 -128q0 -2 2 -2q-26 -25 -40.5 -59t-14.5 -72q0 -75 53 -128t127 -53h88q12 -43 46 -77q53 -53 127 -53q36 0 68 13t56 36t39 54t17 66q100 43 171 135q91 118 91 268q0 38 -15 71.5t-41 58.5q26 25 41 58.5t15 72.5q0 37 -14 70t-39 58 t-58 39t-70 14h-89q-9 28 -25.5 52t-39 41t-50 27t-57.5 10q-37 0 -69 -13t-56 -36t-38.5 -54t-16.5 -66q-101 -44 -172 -137q-89 -118 -89 -266z" />
<glyph unicode="%" d="M779 109q0 -23 -8.5 -42.5t-23.5 -34.5t-35 -23.5t-42 -8.5q-44 0 -76 32t-32 77q0 22 8.5 42t23 35t34 23.5t42.5 8.5q22 0 42 -8.5t35 -23.5t23.5 -35t8.5 -42zM40 631q0 22 8.5 42t23 35t34 23.5t42.5 8.5q22 0 42 -8.5t35 -23.5t23.5 -35t8.5 -42q0 -23 -8.5 -43 t-23 -34.5t-34.5 -23t-43 -8.5q-44 0 -76 32t-32 77zM225 32q-32 -32 -76 -32q-23 0 -42.5 8.5t-34.5 23.5t-23.5 34.5t-8.5 42.5q0 45 32 77l521 522q31 31 77 31q23 0 43 -8.5t34.5 -23t23 -34.5t8.5 -42q0 -45 -32 -77zM798 503q26 26 39.5 57.5t13.5 70.5q0 37 -14 70 t-38.5 57.5t-57.5 38.5t-71 14q-76 0 -128 -52l-521 -522q-53 -53 -53 -128q0 -38 14 -70.5t39 -57.5t57.5 -39t70.5 -14q74 0 127 53zM-32 631q0 -75 53 -128t127 -53q38 0 71 14t57.5 38.5t38.5 57.5t14 71q0 37 -14 70t-39 58t-58 39t-70 14q-38 0 -71 -14t-57 -39 t-38 -58t-14 -70zM851 109q0 37 -14 70t-39 58t-58 39t-70 14q-38 0 -71 -14t-57 -39t-38 -58t-14 -70q0 -75 53 -128t127 -53q37 0 70 14t58 39t39 57.5t14 70.5z" />
<glyph unicode="&#x26;" d="M779 370q0 -126 -76 -224q-75 -98 -192 -131q7 -18 7 -36q0 -23 -8.5 -42.5t-23.5 -34.5t-35 -23.5t-42 -8.5q-44 0 -76 32t-32 77q0 11 2 21h-155q-44 0 -76 32t-32 77q0 48 11 90t33 84q-44 31 -44 87q0 125 74 223q75 98 193 132q-6 16 -6 36q0 22 8.5 42t23 35 t34 23.5t42.5 8.5q22 0 42 -8.5t35 -23.5t23.5 -35t8.5 -42l-2 -21h154q22 0 42 -8.5t35 -23.5t23.5 -35t8.5 -42q0 -23 -8.5 -42.5t-23.5 -34.5t-35 -23.5t-42 -8.5h-261q-37 0 -70.5 -17.5t-54.5 -48.5q61 23 125 23q22 0 42 -8.5t35 -23.5t23.5 -35t8.5 -42 q0 -23 -8.5 -42.5t-23.5 -34.5t-35 -23.5t-42 -8.5q-63 0 -106 -43h106q62 0 108 44q45 43 45 108q0 22 8.5 42t23 35t34 23.5t42.5 8.5q22 0 42 -8.5t35 -23.5t23.5 -35t8.5 -42zM851 370q0 38 -15 71.5t-41 58.5q26 25 41 58.5t15 72.5q0 37 -14 70t-39 58t-58 39t-70 14 h-89q-9 28 -25.5 52t-39 41t-50 27t-57.5 10q-37 0 -69 -13t-56 -36t-38.5 -54t-16.5 -66q-101 -44 -172 -137q-89 -118 -89 -266q0 -29 8 -54t22 -47q-30 -75 -30 -160q0 -75 53 -128t127 -53h88q12 -43 46 -77q53 -53 127 -53q36 0 68 13t56 36t39 54t17 66 q100 43 171 135q91 118 91 268z" />
<glyph unicode="'" horiz-adv-x="297" d="M257 500q0 -44 -32 -76t-77 -32q-23 0 -42.5 8.5t-34 23t-23 34t-8.5 42.5v131q0 22 8.5 42t23 35t34 23.5t42.5 8.5q22 0 42 -8.5t35 -23.5t23.5 -35t8.5 -42v-131zM329 631q0 37 -14 70t-39 58t-58 39t-70 14q-38 0 -71 -14t-57 -39t-38 -58t-14 -70v-131 q0 -38 14 -70.5t38.5 -57t57 -38.5t70.5 -14q75 0 128 53t53 127v131z" />
<glyph unicode="(" horiz-adv-x="558" d="M518 109q0 -23 -8.5 -42.5t-23.5 -34.5t-35 -23.5t-42 -8.5q-153 0 -261 108t-108 262q0 153 108 261q109 109 261 109q22 0 42 -8.5t35 -23.5t23.5 -35t8.5 -42q0 -23 -8.5 -42.5t-23.5 -34.5t-35 -23.5t-42 -8.5q-63 0 -108 -45q-44 -44 -44 -107q0 -62 44 -108 q46 -44 108 -44q22 0 42 -8.5t35 -23.5t23.5 -35t8.5 -42zM590 109q0 37 -14 70t-39 58t-58 39t-70 14q-34 0 -56 22q-24 24 -24 58q0 33 23 56q24 24 57 24q37 0 70 14t58 39t39 57.5t14 70.5q0 37 -14 70t-39 58t-58 39t-70 14q-182 0 -312 -130q-129 -129 -129 -312 q0 -184 129 -313t312 -129q37 0 70 14t58 39t39 57.5t14 70.5z" />
<glyph unicode=")" horiz-adv-x="558" d="M518 370q0 -153 -109 -262q-108 -108 -261 -108q-44 0 -76 32t-32 77q0 22 8.5 42t23 35t34 23.5t42.5 8.5q62 0 108 44q45 43 45 108q0 62 -45 107t-108 45q-44 0 -76 32t-32 77q0 22 8.5 42t23 35t34 23.5t42.5 8.5q153 0 261 -109q109 -108 109 -261zM590 370 q0 183 -130 312q-129 130 -312 130q-38 0 -71 -14t-57 -39t-38 -58t-14 -70q0 -75 53 -128t127 -53q33 0 57 -24t24 -56q0 -33 -23 -56q-24 -24 -58 -24q-38 0 -71 -14t-57 -39t-38 -58t-14 -70q0 -75 53 -128t127 -53q183 0 312 129q130 130 130 313z" />
<glyph unicode="*" horiz-adv-x="670" d="M510 378l27 -37q21 -29 21 -64q0 -54 -45 -88q-10 -7 -26 -13.5t-38 -6.5q-55 0 -88 44l-27 38l-27 -38q-16 -22 -39 -33t-50 -11q-35 0 -63 20q-44 32 -44 89q0 35 20 63l27 36l-43 14q-35 11 -55 39.5t-20 64.5q0 18 5 33q11 35 39 55.5t64 20.5q17 0 34 -6l44 -14v47 q0 22 8.5 42t23 35t34 23.5t42.5 8.5q22 0 42 -8.5t35 -23.5t23.5 -35t8.5 -42v-46l45 14q18 6 35 6q35 0 63 -20.5t39 -54.5q5 -15 5 -34q0 -35 -20.5 -64t-54.5 -39zM702 496q0 16 -2.5 30.5t-6.5 26.5q-19 56 -64.5 90t-105.5 34q-10 0 -14 -1q-8 29 -24 54t-39.5 43 t-52 28.5t-59.5 10.5q-32 0 -60.5 -10.5t-51.5 -28.5t-39.5 -43t-23.5 -54h-11q-60 0 -106.5 -33.5t-65.5 -92.5l1 1q-4 -12 -6.5 -26t-2.5 -30q0 -48 22 -88.5t60 -64.5q-11 -31 -11 -64q0 -45 18.5 -82.5t55.5 -64.5q46 -34 105 -34q32 0 61.5 10t53.5 30q49 -40 116 -40 q35 0 62 11.5t44 22.5q75 57 75 146q0 36 -13 66q39 24 62 64.5t23 88.5z" />
<glyph unicode="+" horiz-adv-x="558" d="M518 370q0 -23 -8.5 -42.5t-23.5 -34.5t-35 -23.5t-42 -8.5h-21v-21q0 -23 -8.5 -42.5t-23.5 -34.5t-35 -23.5t-42 -8.5q-23 0 -42.5 8.5t-34.5 23.5t-23.5 34.5t-8.5 42.5v21h-22q-44 0 -76 32t-32 77q0 22 8.5 42t23 35t34 23.5t42.5 8.5h22v21q0 22 8.5 42t23.5 35 t34.5 23.5t42.5 8.5q22 0 42 -8.5t35 -23.5t23.5 -35t8.5 -42v-21h21q22 0 42 -8.5t35 -23.5t23.5 -35t8.5 -42zM590 370q0 31 -10.5 59.5t-28.5 52t-43 39.5t-54 24q-8 29 -24 54t-39.5 43t-52 28.5t-59.5 10.5q-32 0 -60.5 -10.5t-51.5 -28.5t-39.5 -43t-23.5 -54 q-30 -7 -55 -23.5t-43 -39.5t-28 -51.5t-10 -60.5q0 -75 53 -128q18 -18 39 -30.5t44 -17.5q7 -29 23.5 -54t40 -43t51.5 -28t60 -10q31 0 59.5 10t52 28t39.5 43t24 54q29 7 54 23.5t43 40t28.5 52t10.5 60.5z" />
<glyph unicode="," horiz-adv-x="297" d="M257 -21q0 -23 -8.5 -42.5t-23.5 -34.5t-35 -23.5t-42 -8.5q-44 0 -76 32t-32 77v130q0 22 8.5 42t23 35t34 23.5t42.5 8.5q22 0 42 -8.5t35 -23.5t23.5 -35t8.5 -42v-130zM329 109q0 37 -14 70t-39 58t-58 39t-70 14q-38 0 -71 -14t-57 -39t-38 -58t-14 -70v-130 q0 -75 53 -128t127 -53q37 0 70 14t58 39t39 57.5t14 70.5v130z" />
<glyph unicode="-" horiz-adv-x="558" d="M518 370q0 -23 -8.5 -42.5t-23.5 -34.5t-35 -23.5t-42 -8.5h-261q-44 0 -76 32t-32 77q0 22 8.5 42t23 35t34 23.5t42.5 8.5h261q22 0 42 -8.5t35 -23.5t23.5 -35t8.5 -42zM590 370q0 37 -14 70t-39 58t-58 39t-70 14h-261q-38 0 -71 -14t-57 -39t-38 -58t-14 -70 q0 -75 53 -128t127 -53h261q37 0 70 14t58 39t39 57.5t14 70.5z" />
<glyph unicode="." horiz-adv-x="297" d="M257 109q0 -23 -8.5 -42.5t-23.5 -34.5t-35 -23.5t-42 -8.5q-44 0 -76 32t-32 77q0 22 8.5 42t23 35t34 23.5t42.5 8.5q22 0 42 -8.5t35 -23.5t23.5 -35t8.5 -42zM329 109q0 37 -14 70t-39 58t-58 39t-70 14q-38 0 -71 -14t-57 -39t-38 -58t-14 -70q0 -75 53 -128 t127 -53q37 0 70 14t58 39t39 57.5t14 70.5z" />
<glyph unicode="/" d="M225 32q-32 -32 -76 -32q-23 0 -42.5 8.5t-34.5 23.5t-23.5 34.5t-8.5 42.5q0 45 32 77l521 522q31 31 77 31q23 0 43 -8.5t34.5 -23t23 -34.5t8.5 -42q0 -45 -32 -77zM798 503q26 26 39.5 57.5t13.5 70.5q0 37 -14 70t-38.5 57.5t-57.5 38.5t-71 14q-76 0 -128 -52 l-521 -522q-53 -53 -53 -128q0 -38 14 -70.5t39 -57.5t57.5 -39t70.5 -14q74 0 127 53z" />
<glyph unicode="0" d="M518 370q0 -23 -8.5 -42.5t-23.5 -34.5t-35 -23.5t-42 -8.5q-44 0 -76 32t-32 77q0 22 8.5 42t23 35t34 23.5t42.5 8.5q22 0 42 -8.5t35 -23.5t23.5 -35t8.5 -42zM562 370q0 62 -45 107t-108 45t-108 -45q-44 -44 -44 -107q0 -62 44 -108q46 -44 108 -44t108 44 q45 43 45 108zM779 370q0 -153 -109 -262q-108 -108 -261 -108t-261 108t-108 262q0 153 108 261q109 109 261 109q153 0 261 -109q109 -108 109 -261zM851 370q0 183 -130 312q-129 130 -312 130q-182 0 -312 -130q-129 -129 -129 -312q0 -184 129 -313t312 -129t312 129 q130 130 130 313z" />
<glyph unicode="1" horiz-adv-x="297" d="M257 109q0 -23 -8.5 -42.5t-23.5 -34.5t-35 -23.5t-42 -8.5q-44 0 -76 32t-32 77v522q0 22 8.5 42t23 35t34 23.5t42.5 8.5q22 0 42 -8.5t35 -23.5t23.5 -35t8.5 -42v-522zM329 631q0 37 -14 70t-39 58t-58 39t-70 14q-38 0 -71 -14t-57 -39t-38 -58t-14 -70v-522 q0 -75 53 -128t127 -53q37 0 70 14t58 39t39 57.5t14 70.5v522z" />
<glyph unicode="2" d="M779 109q0 -23 -8.5 -42.5t-23.5 -34.5t-35 -23.5t-42 -8.5h-261q-44 0 -76 32t-32 77q0 22 8.5 42t23 35t34 23.5t42.5 8.5h261q22 0 42 -8.5t35 -23.5t23.5 -35t8.5 -42zM257 109q0 -23 -8.5 -43t-23 -34.5t-34.5 -23t-43 -8.5q-44 0 -76 32t-32 77q0 153 108 261 q109 109 261 109h107q-22 21 -48 32t-59 11h-261q-44 0 -76 32t-32 77q0 22 8.5 42t23 35t34 23.5t42.5 8.5h261q153 0 261 -109q109 -108 109 -261q0 -23 -8.5 -42.5t-23.5 -34.5t-35 -23.5t-42 -8.5h-261q-63 0 -108 -45q-44 -44 -44 -107zM851 109q0 38 -15 71.5 t-41 58.5q26 25 41 58.5t15 72.5q0 183 -130 312q-129 130 -312 130h-261q-38 0 -71 -14t-57 -39t-38 -58t-14 -70q0 -75 53 -128q44 -46 108 -52q-8 -8 -16 -15t-16 -15q-129 -129 -129 -312q0 -75 53 -128t127 -53q39 0 72.5 15t58.5 41l3 -3q53 -53 127 -53h261 q37 0 70 14t58 39t39 57.5t14 70.5z" />
<glyph unicode="3" d="M40 370q0 22 8.5 42t23 35t34 23.5t42.5 8.5h261q22 0 42 -8.5t35 -23.5t23.5 -35t8.5 -42q0 -23 -8.5 -42.5t-23.5 -34.5t-35 -23.5t-42 -8.5h-261q-44 0 -76 32t-32 77zM779 370q0 -153 -109 -262q-108 -108 -261 -108h-261q-44 0 -76 32t-32 77q0 22 8.5 42t23 35 t34 23.5t42.5 8.5h261q62 0 108 44q45 43 45 108q0 62 -45 107t-108 45h-261q-44 0 -76 32t-32 77q0 22 8.5 42t23 35t34 23.5t42.5 8.5h261q153 0 261 -109q109 -108 109 -261zM-32 370q0 -75 53 -128q0 -2 2 -2q-26 -25 -40.5 -59t-14.5 -72q0 -75 53 -128t127 -53h261 q183 0 312 129q130 130 130 313t-130 312q-129 130 -312 130h-261q-38 0 -71 -14t-57 -39t-38 -58t-14 -70q0 -75 53 -128q0 -2 2 -2q-26 -25 -40.5 -59t-14.5 -72z" />
<glyph unicode="4" d="M779 109q0 -23 -8.5 -42.5t-23.5 -34.5t-35 -23.5t-42 -8.5q-44 0 -76 32t-32 77v152h-414q-44 0 -76 32t-32 77v261q0 22 8.5 42t23 35t34 23.5t42.5 8.5q22 0 42 -8.5t35 -23.5t23.5 -35t8.5 -42v-152h305v152q0 22 8.5 42t23 35t34 23.5t42.5 8.5q22 0 42 -8.5 t35 -23.5t23.5 -35t8.5 -42v-522zM851 631q0 37 -14 70t-39 58t-58 39t-70 14q-38 0 -71 -14t-57 -39t-38 -58t-14 -70v-80h-161v80q0 37 -14 70t-39 58t-58 39t-70 14q-38 0 -71 -14t-57 -39t-38 -58t-14 -70v-261q0 -75 53 -128t127 -53h342v-80q0 -75 53 -128t127 -53 q37 0 70 14t58 39t39 57.5t14 70.5v522z" />
<glyph unicode="5" d="M518 109q0 -23 -8.5 -42.5t-23.5 -34.5t-35 -23.5t-42 -8.5h-261q-44 0 -76 32t-32 77q0 22 8.5 42t23 35t34 23.5t42.5 8.5h261q22 0 42 -8.5t35 -23.5t23.5 -35t8.5 -42zM779 109q0 -23 -8.5 -42.5t-23.5 -34.5t-35 -23.5t-42 -8.5q-44 0 -76 32t-32 77q0 62 -45 107 t-108 45h-261q-44 0 -76 32t-32 77v261q0 22 8.5 42t23 35t34 23.5t42.5 8.5h522q22 0 42 -8.5t35 -23.5t23.5 -35t8.5 -42q0 -23 -8.5 -42.5t-23.5 -34.5t-35 -23.5t-42 -8.5h-413v-43h152q153 0 261 -109q109 -108 109 -261zM851 109q0 183 -130 312l-33 30q34 3 64 18.5 t52 39.5t34.5 55.5t12.5 66.5q0 37 -14 70t-39 58t-58 39t-70 14h-522q-38 0 -71 -14t-57 -39t-38 -58t-14 -70v-261q0 -75 53 -128q0 -2 2 -2q-26 -25 -40.5 -59t-14.5 -72q0 -75 53 -128t127 -53h261q38 0 72 15t59 41l3 -3q53 -53 127 -53q37 0 70 14t58 39t39 57.5 t14 70.5z" />
<glyph unicode="6" d="M409 218q63 0 107 43h-213q43 -43 106 -43zM779 370q0 -153 -109 -262q-108 -108 -261 -108t-261 108t-108 262q0 153 108 261q109 109 261 109h261q22 0 42 -8.5t35 -23.5t23.5 -35t8.5 -42q0 -23 -8.5 -42.5t-23.5 -34.5t-35 -23.5t-42 -8.5h-261q-63 0 -106 -43h367 q22 0 42 -8.5t35 -23.5t23.5 -35t8.5 -42zM851 370q0 38 -15 71.5t-41 58.5q26 25 41 58.5t15 72.5q0 37 -14 70t-39 58t-58 39t-70 14h-261q-182 0 -312 -130q-129 -129 -129 -312q0 -184 129 -313t312 -129t312 129q130 130 130 313z" />
<glyph unicode="7" d="M779 109q0 -23 -8.5 -42.5t-23.5 -34.5t-35 -23.5t-42 -8.5q-44 0 -76 32t-32 77v413h-414q-44 0 -76 32t-32 77q0 22 8.5 42t23 35t34 23.5t42.5 8.5h522q22 0 42 -8.5t35 -23.5t23.5 -35t8.5 -42v-522zM851 631q0 37 -14 70t-39 58t-58 39t-70 14h-522q-38 0 -71 -14 t-57 -39t-38 -58t-14 -70q0 -75 53 -128t127 -53h342v-341q0 -75 53 -128t127 -53q37 0 70 14t58 39t39 57.5t14 70.5v522z" />
<glyph unicode="8" d="M516 218q-22 21 -48 32t-59 11q-63 0 -106 -43h213zM303 522q43 -43 106 -43t107 43h-213zM671 370q51 -51 79.5 -118.5t28.5 -142.5q0 -23 -8.5 -42.5t-23.5 -34.5t-35 -23.5t-42 -8.5h-522q-44 0 -76 32t-32 77q0 75 28.5 142.5t79.5 118.5q-51 51 -79.5 118.5 t-28.5 142.5q0 22 8.5 42t23 35t34 23.5t42.5 8.5h522q22 0 42 -8.5t35 -23.5t23.5 -35t8.5 -42q0 -75 -28.5 -142.5t-79.5 -118.5zM851 631q0 37 -14 70t-39 58t-58 39t-70 14h-522q-38 0 -71 -14t-57 -39t-38 -58t-14 -70q0 -73 22 -139t63 -122q-41 -56 -63 -122.5 t-22 -138.5q0 -75 53 -128t127 -53h522q37 0 70 14t58 39t39 57.5t14 70.5q0 72 -22 138.5t-63 122.5q41 56 63 122t22 139z" />
<glyph unicode="9" d="M779 109q0 -23 -8.5 -42.5t-23.5 -34.5t-35 -23.5t-42 -8.5q-44 0 -76 32t-32 77v261q0 62 -45 107t-108 45h-106q43 -43 106 -43q22 0 42 -8.5t35 -23.5t23.5 -35t8.5 -42q0 -23 -8.5 -42.5t-23.5 -34.5t-35 -23.5t-42 -8.5q-153 0 -261 108t-108 262q0 22 8.5 42t23 35 t34 23.5t42.5 8.5h261q153 0 261 -109q109 -108 109 -261v-261zM851 370q0 183 -130 312q-129 130 -312 130h-261q-38 0 -71 -14t-57 -39t-38 -58t-14 -70q0 -184 129 -313t312 -129q41 0 81 19v-99q0 -75 53 -128t127 -53q37 0 70 14t58 39t39 57.5t14 70.5v261z" />
<glyph unicode=":" horiz-adv-x="297" d="M257 109q0 -23 -8.5 -42.5t-23.5 -34.5t-35 -23.5t-42 -8.5q-44 0 -76 32t-32 77q0 22 8.5 42t23 35t34 23.5t42.5 8.5q22 0 42 -8.5t35 -23.5t23.5 -35t8.5 -42zM40 631q0 22 8.5 42t23 35t34 23.5t42.5 8.5q22 0 42 -8.5t35 -23.5t23.5 -35t8.5 -42q0 -23 -8.5 -42.5 t-23.5 -34.5t-35 -23.5t-42 -8.5q-44 0 -76 32t-32 77zM-32 631q0 -75 53 -128t127 -53q37 0 70 14t58 39t39 57.5t14 70.5q0 37 -14 70t-39 58t-58 39t-70 14q-38 0 -71 -14t-57 -39t-38 -58t-14 -70zM329 109q0 37 -14 70t-39 58t-58 39t-70 14q-38 0 -71 -14t-57 -39 t-38 -58t-14 -70q0 -75 53 -128t127 -53q37 0 70 14t58 39t39 57.5t14 70.5z" />
<glyph unicode=";" horiz-adv-x="297" d="M257 -21q0 -23 -8.5 -42.5t-23.5 -34.5t-35 -23.5t-42 -8.5q-44 0 -76 32t-32 77v130q0 22 8.5 42t23 35t34 23.5t42.5 8.5q22 0 42 -8.5t35 -23.5t23.5 -35t8.5 -42v-130zM40 631q0 22 8.5 42t23 35t34 23.5t42.5 8.5q22 0 42 -8.5t35 -23.5t23.5 -35t8.5 -42 q0 -23 -8.5 -42.5t-23.5 -34.5t-35 -23.5t-42 -8.5q-44 0 -76 32t-32 77zM329 109q0 37 -14 70t-39 58t-58 39t-70 14q-38 0 -71 -14t-57 -39t-38 -58t-14 -70v-130q0 -75 53 -128t127 -53q37 0 70 14t58 39t39 57.5t14 70.5v130zM-32 631q0 -75 53 -128t127 -53q37 0 70 14 t58 39t39 57.5t14 70.5q0 37 -14 70t-39 58t-58 39t-70 14q-38 0 -71 -14t-57 -39t-38 -58t-14 -70z" />
<glyph unicode="&#x3c;" horiz-adv-x="427" d="M355 316q32 -32 32 -77q0 -44 -32 -76t-77 -32q-22 0 -41 7.5t-36 24.5l-130 130q-31 31 -31 77t31 77l130 130q35 32 77 32q22 0 42 -8.5t35 -23t23.5 -34.5t8.5 -43q0 -44 -32 -76l-53 -54zM406 366l-4 4l4 4v-1q53 53 53 127q0 38 -14 71t-39 57.5t-58 38.5t-70 14 q-70 0 -127 -52l-131 -131q-52 -52 -52 -128t52 -128l130 -130q29 -29 60.5 -41t67.5 -12q39 0 70.5 13.5t57.5 39.5q53 53 53 127q0 39 -13.5 70.5t-39.5 57.5v-1z" />
<glyph unicode="=" horiz-adv-x="558" d="M518 240q0 -23 -8.5 -42.5t-23.5 -34.5t-35 -23.5t-42 -8.5h-261q-44 0 -76 32t-32 77q0 22 8.5 42t23 34.5t34 23t42.5 8.5h261q22 0 42 -8.5t35 -23t23.5 -34t8.5 -42.5zM40 500q0 22 8.5 42t23 35t34 23.5t42.5 8.5h261q22 0 42 -8.5t35 -23.5t23.5 -35t8.5 -42 q0 -44 -32 -76t-77 -32h-261q-23 0 -42.5 8.5t-34 23t-23 34t-8.5 42.5zM590 240q0 39 -15 72.5t-41 57.5l3 3q53 53 53 127q0 37 -14 70t-39 58t-58 39t-70 14h-261q-38 0 -71 -14t-57 -39t-38 -58t-14 -70q0 -39 14.5 -72.5t40.5 -57.5q-26 -25 -40.5 -58.5t-14.5 -71.5 q0 -75 53 -128t127 -53h261q37 0 70 14t58 39t39 57.5t14 70.5z" />
<glyph unicode="&#x3e;" horiz-adv-x="427" d="M225 163q-32 -32 -77 -32q-23 0 -42.5 8.5t-34 23t-23 34t-8.5 42.5q0 46 31 77l54 54l-54 54q-31 31 -31 76q0 23 8.5 43t23 34.5t34 23t42.5 8.5q45 0 77 -32l130 -130q32 -32 32 -77t-32 -77zM406 242q26 26 39.5 57.5t13.5 70.5q0 75 -53 128l-130 130 q-53 53 -128 53q-38 0 -70.5 -14t-57 -38.5t-38.5 -57.5t-14 -71q0 -75 52 -127l3 -3l-3 -3q-52 -52 -52 -128q0 -38 14 -70.5t38 -57t57 -38.5t71 -14q39 0 70.5 13.5t57.5 39.5z" />
<glyph unicode="?" d="M518 109q0 -23 -8.5 -42.5t-23.5 -34.5t-35 -23.5t-42 -8.5q-44 0 -76 32t-32 77q0 22 8.5 42t23 35t34 23.5t42.5 8.5q22 0 42 -8.5t35 -23.5t23.5 -35t8.5 -42zM779 631q0 -153 -109 -262q-108 -108 -261 -108q-44 0 -76 32t-32 77q0 22 8.5 42t23 35t34 23.5t42.5 8.5 q63 0 107 43h-107q-63 0 -108 -45q-44 -44 -44 -107q0 -23 -8.5 -43t-23 -34.5t-34.5 -23t-43 -8.5q-44 0 -76 32t-32 77q0 153 108 261q109 109 261 109h261q22 0 42 -8.5t35 -23.5t23.5 -35t8.5 -42zM590 109q0 29 -9 55t-24 49q91 32 164 105q130 130 130 313 q0 37 -14 70t-39 58t-58 39t-70 14h-261q-182 0 -312 -130q-129 -129 -129 -312q0 -75 53 -128t127 -53q39 0 72.5 14.5t58.5 40.5l1 -1q1 0 2 -1q0 -2 2 -2q-26 -25 -40.5 -59t-14.5 -72q0 -75 53 -128t127 -53q37 0 70 14t58 39t39 57.5t14 70.5z" />
<glyph unicode="@" d="M779 370q0 -153 -109 -262q-108 -108 -261 -108q-44 0 -76 32t-32 77v261q0 22 8.5 42t23 35t34 23.5t42.5 8.5h107q-22 21 -48 32t-59 11q-63 0 -108 -45q-44 -44 -44 -107v-261q0 -23 -8.5 -43t-23 -34.5t-34.5 -23t-43 -8.5q-44 0 -76 32t-32 77v261q0 153 108 261 q109 109 261 109q153 0 261 -109q109 -108 109 -261zM851 370q0 183 -130 312q-129 130 -312 130q-182 0 -312 -130q-129 -129 -129 -312v-261q0 -75 53 -128t127 -53q39 0 72.5 15t58.5 41l3 -3q53 -53 127 -53q183 0 312 129q130 130 130 313z" />
<glyph unicode="A" d="M518 370q0 -23 -8.5 -42.5t-23.5 -34.5t-35 -23.5t-42 -8.5q-44 0 -76 32t-32 77q0 22 8.5 42t23 35t34 23.5t42.5 8.5q22 0 42 -8.5t35 -23.5t23.5 -35t8.5 -42zM779 109q0 -23 -8.5 -42.5t-23.5 -34.5t-35 -23.5t-42 -8.5q-44 0 -76 32t-32 77v261q0 62 -45 107 t-108 45t-108 -45q-44 -44 -44 -107v-261q0 -23 -8.5 -43t-23 -34.5t-34.5 -23t-43 -8.5q-44 0 -76 32t-32 77v261q0 153 108 261q109 109 261 109q153 0 261 -109q109 -108 109 -261v-261zM851 370q0 183 -130 312q-129 130 -312 130q-182 0 -312 -130q-129 -129 -129 -312 v-261q0 -75 53 -128t127 -53q38 0 71 14t57.5 38.5t38.5 57.5t14 71v98q36 -18 80 -18q41 0 81 19v-99q0 -75 53 -128t127 -53q37 0 70 14t58 39t39 57.5t14 70.5v261z" />
<glyph unicode="B" d="M779 370q0 -153 -109 -262q-108 -108 -261 -108q-44 0 -76 32t-32 77q0 22 8.5 42t23 35t34 23.5t42.5 8.5q38 0 71 17.5t54 48.5q-61 -23 -125 -23q-44 0 -76 32t-32 77q0 22 8.5 42t23 35t34 23.5t42.5 8.5q63 0 107 43h-107q-63 0 -108 -45q-44 -44 -44 -107v-261 q0 -23 -8.5 -43t-23 -34.5t-34.5 -23t-43 -8.5q-44 0 -76 32t-32 77v261q0 153 108 261q109 109 261 109h261q22 0 42 -8.5t35 -23.5t23.5 -35t8.5 -42q0 -48 -11 -90t-33 -84q44 -31 44 -87zM851 370q0 28 -8 53.5t-22 47.5q15 38 22.5 76.5t7.5 83.5q0 37 -14 70t-39 58 t-58 39t-70 14h-261q-182 0 -312 -130q-129 -129 -129 -312v-261q0 -75 53 -128t127 -53q39 0 72.5 15t58.5 41l3 -3q53 -53 127 -53q183 0 312 129q130 130 130 313z" />
<glyph unicode="C" d="M779 109q0 -23 -8.5 -42.5t-23.5 -34.5t-35 -23.5t-42 -8.5h-261q-153 0 -261 108t-108 262q0 153 108 261q109 109 261 109h261q22 0 42 -8.5t35 -23.5t23.5 -35t8.5 -42q0 -23 -8.5 -42.5t-23.5 -34.5t-35 -23.5t-42 -8.5h-261q-63 0 -108 -45q-44 -44 -44 -107 q0 -62 44 -108q46 -44 108 -44h261q22 0 42 -8.5t35 -23.5t23.5 -35t8.5 -42zM851 109q0 37 -14 70t-39 58t-58 39t-70 14h-261q-34 0 -56 22q-24 24 -24 58q0 33 23 56q24 24 57 24h261q37 0 70 14t58 39t39 57.5t14 70.5q0 37 -14 70t-39 58t-58 39t-70 14h-261 q-182 0 -312 -130q-129 -129 -129 -312q0 -184 129 -313t312 -129h261q37 0 70 14t58 39t39 57.5t14 70.5z" />
<glyph unicode="D" d="M779 370q0 -153 -109 -262q-108 -108 -261 -108h-261q-44 0 -76 32t-32 77v261q0 22 8.5 42t23 35t34 23.5t42.5 8.5q22 0 42 -8.5t35 -23.5t23.5 -35t8.5 -42v-152h152q62 0 108 44q45 43 45 108q0 62 -45 107t-108 45h-261q-44 0 -76 32t-32 77q0 22 8.5 42t23 35 t34 23.5t42.5 8.5h261q153 0 261 -109q109 -108 109 -261zM851 370q0 183 -130 312q-129 130 -312 130h-261q-38 0 -71 -14t-57 -39t-38 -58t-14 -70q0 -75 53 -128q0 -2 2 -2q-26 -25 -40.5 -59t-14.5 -72v-261q0 -75 53 -128t127 -53h261q183 0 312 129q130 130 130 313z M409 450q33 0 57 -24t24 -56q0 -33 -23 -56q-24 -24 -58 -24h-80v80q0 42 -19 80h99z" />
<glyph unicode="E" d="M779 370q0 -23 -8.5 -42.5t-23.5 -34.5t-35 -23.5t-42 -8.5h-261q-44 0 -76 32t-32 77q0 22 8.5 42t23 35t34 23.5t42.5 8.5h261q22 0 42 -8.5t35 -23.5t23.5 -35t8.5 -42zM779 109q0 -23 -8.5 -42.5t-23.5 -34.5t-35 -23.5t-42 -8.5h-261q-153 0 -261 108t-108 262 q0 153 108 261q109 109 261 109h261q22 0 42 -8.5t35 -23.5t23.5 -35t8.5 -42q0 -23 -8.5 -42.5t-23.5 -34.5t-35 -23.5t-42 -8.5h-261q-63 0 -108 -45q-44 -44 -44 -107q0 -62 44 -108q46 -44 108 -44h261q22 0 42 -8.5t35 -23.5t23.5 -35t8.5 -42zM851 370q0 38 -15 71.5 t-41 58.5q26 25 41 58.5t15 72.5q0 37 -14 70t-39 58t-58 39t-70 14h-261q-182 0 -312 -130q-129 -129 -129 -312q0 -184 129 -313t312 -129h261q37 0 70 14t58 39t39 57.5t14 70.5t-15 71.5t-41 58.5q26 25 41 58.5t15 72.5z" />
<glyph unicode="F" d="M779 370q0 -23 -8.5 -42.5t-23.5 -34.5t-35 -23.5t-42 -8.5h-261q-44 0 -76 32t-32 77q0 22 8.5 42t23 35t34 23.5t42.5 8.5h261q22 0 42 -8.5t35 -23.5t23.5 -35t8.5 -42zM257 109q0 -23 -8.5 -43t-23 -34.5t-34.5 -23t-43 -8.5q-44 0 -76 32t-32 77v261q0 153 108 261 q109 109 261 109h261q22 0 42 -8.5t35 -23.5t23.5 -35t8.5 -42q0 -23 -8.5 -42.5t-23.5 -34.5t-35 -23.5t-42 -8.5h-261q-63 0 -108 -45q-44 -44 -44 -107v-261zM851 370q0 38 -15 71.5t-41 58.5q26 25 41 58.5t15 72.5q0 37 -14 70t-39 58t-58 39t-70 14h-261 q-182 0 -312 -130q-129 -129 -129 -312v-261q0 -75 53 -128t127 -53q38 0 71 14t57.5 38.5t38.5 57.5t14 71v98q36 -18 80 -18h261q37 0 70 14t58 39t39 57.5t14 70.5z" />
<glyph unicode="G" d="M779 109q0 -23 -8.5 -42.5t-23.5 -34.5t-35 -23.5t-42 -8.5h-261q-153 0 -261 108t-108 262q0 153 108 261q109 109 261 109h261q22 0 42 -8.5t35 -23.5t23.5 -35t8.5 -42q0 -23 -8.5 -42.5t-23.5 -34.5t-35 -23.5t-42 -8.5h-261q-63 0 -108 -45q-44 -44 -44 -107 q0 -62 44 -108q46 -44 108 -44h153v43h-153q-44 0 -76 32t-32 77q0 22 8.5 42t23 35t34 23.5t42.5 8.5h261q22 0 42 -8.5t35 -23.5t23.5 -35t8.5 -42v-261zM851 370q0 38 -15 71.5t-41 58.5q26 25 41 58.5t15 72.5q0 37 -14 70t-39 58t-58 39t-70 14h-261q-182 0 -312 -130 q-129 -129 -129 -312q0 -184 129 -313t312 -129h261q37 0 70 14t58 39t39 57.5t14 70.5v261z" />
<glyph unicode="H" d="M518 370q0 -23 -8.5 -42.5t-23.5 -34.5t-35 -23.5t-42 -8.5q-44 0 -76 32t-32 77q0 22 8.5 42t23 35t34 23.5t42.5 8.5q22 0 42 -8.5t35 -23.5t23.5 -35t8.5 -42zM779 109q0 -23 -8.5 -42.5t-23.5 -34.5t-35 -23.5t-42 -8.5q-44 0 -76 32t-32 77v522q0 22 8.5 42t23 35 t34 23.5t42.5 8.5q22 0 42 -8.5t35 -23.5t23.5 -35t8.5 -42v-522zM257 109q0 -23 -8.5 -43t-23 -34.5t-34.5 -23t-43 -8.5q-44 0 -76 32t-32 77v522q0 22 8.5 42t23 35t34 23.5t42.5 8.5q22 0 42 -8.5t35 -23.5t23.5 -35t8.5 -42v-522zM851 631q0 37 -14 70t-39 58t-58 39 t-70 14q-38 0 -71 -14t-57 -39t-38 -58t-14 -70v-99q-40 19 -81 19q-22 0 -42 -5t-38 -13v98q0 37 -14 70t-39 58t-58 39t-70 14q-38 0 -71 -14t-57 -39t-38 -58t-14 -70v-522q0 -75 53 -128t127 -53q38 0 71 14t57.5 38.5t38.5 57.5t14 71v98q36 -18 80 -18q41 0 81 19v-99 q0 -75 53 -128t127 -53q37 0 70 14t58 39t39 57.5t14 70.5v522z" />
<glyph unicode="I" d="M40 631q0 22 8.5 42t23 35t34 23.5t42.5 8.5h522q22 0 42 -8.5t35 -23.5t23.5 -35t8.5 -42q0 -23 -8.5 -42.5t-23.5 -34.5t-35 -23.5t-42 -8.5h-522q-44 0 -76 32t-32 77zM409 479q22 0 42 -8.5t35 -23.5t23.5 -35t8.5 -42q0 -23 -8.5 -42.5t-23.5 -34.5t-35 -23.5 t-42 -8.5q-44 0 -76 32t-32 77q0 22 8.5 42t23 35t34 23.5t42.5 8.5zM779 109q0 -23 -8.5 -42.5t-23.5 -34.5t-35 -23.5t-42 -8.5h-522q-44 0 -76 32t-32 77q0 22 8.5 42t23 35t34 23.5t42.5 8.5h522q22 0 42 -8.5t35 -23.5t23.5 -35t8.5 -42zM-32 631q0 -75 53 -128 t127 -53h99q-18 -36 -18 -80t18 -80h-99q-38 0 -71 -14t-57 -39t-38 -58t-14 -70q0 -75 53 -128t127 -53h522q37 0 70 14t58 39t39 57.5t14 70.5q0 37 -14 70t-39 58t-58 39t-70 14h-99q19 38 19 80t-19 80h99q37 0 70 14t58 39t39 57.5t14 70.5q0 37 -14 70t-39 58t-58 39 t-70 14h-522q-38 0 -71 -14t-57 -39t-38 -58t-14 -70z" />
<glyph unicode="J" d="M779 370q0 -153 -109 -262q-108 -108 -261 -108t-261 108t-108 262q0 22 8.5 42t23 35t34 23.5t42.5 8.5q22 0 42 -8.5t35 -23.5t23.5 -35t8.5 -42q0 -62 44 -108q46 -44 108 -44t108 44q45 43 45 108v261q0 22 8.5 42t23 35t34 23.5t42.5 8.5q22 0 42 -8.5t35 -23.5 t23.5 -35t8.5 -42v-261zM851 631q0 37 -14 70t-39 58t-58 39t-70 14q-38 0 -71 -14t-57 -39t-38 -58t-14 -70v-261q0 -33 -23 -56q-24 -24 -58 -24t-58 24q-22 22 -22 56q0 37 -14 70t-39 58t-58 39t-70 14q-38 0 -71 -14t-57 -39t-38 -58t-14 -70q0 -184 129 -313t312 -129 t312 129q130 130 130 313v261z" />
<glyph unicode="K" d="M779 109q0 -23 -8.5 -42.5t-23.5 -34.5t-35 -23.5t-42 -8.5q-44 0 -76 32t-32 77q0 62 -45 107t-108 45q-44 0 -76 32t-32 77q0 151 108 261q108 109 261 109q22 0 42 -8.5t35 -23.5t23.5 -35t8.5 -42q0 -23 -8.5 -42.5t-23.5 -34.5t-35 -23.5t-42 -8.5q-40 0 -73 -18 t-54 -51q107 -41 170 -134q66 -93 66 -210zM257 109q0 -23 -8.5 -43t-23 -34.5t-34.5 -23t-43 -8.5q-44 0 -76 32t-32 77v522q0 22 8.5 42t23 35t34 23.5t42.5 8.5q22 0 42 -8.5t35 -23.5t23.5 -35t8.5 -42v-522zM851 109q0 142 -79 252v-1q-37 51 -84 91q34 3 64 18.5 t52 39.5t34.5 55.5t12.5 66.5q0 37 -14 70t-39 58t-58 39t-70 14q-183 0 -312 -130q-17 -17 -30 -33q-3 34 -18.5 64t-39.5 52t-55.5 34.5t-66.5 12.5q-38 0 -71 -14t-57 -39t-38 -58t-14 -70v-522q0 -75 53 -128t127 -53q38 0 71 14t57.5 38.5t38.5 57.5t14 71v98 q36 -18 80 -18q33 0 57 -24t24 -56q0 -75 53 -128t127 -53q37 0 70 14t58 39t39 57.5t14 70.5z" />
<glyph unicode="L" d="M779 109q0 -23 -8.5 -42.5t-23.5 -34.5t-35 -23.5t-42 -8.5h-522q-44 0 -76 32t-32 77v522q0 22 8.5 42t23 35t34 23.5t42.5 8.5q22 0 42 -8.5t35 -23.5t23.5 -35t8.5 -42v-413h413q22 0 42 -8.5t35 -23.5t23.5 -35t8.5 -42zM851 109q0 37 -14 70t-39 58t-58 39t-70 14 h-341v341q0 37 -14 70t-39 58t-58 39t-70 14q-38 0 -71 -14t-57 -39t-38 -58t-14 -70v-522q0 -75 53 -128t127 -53h522q37 0 70 14t58 39t39 57.5t14 70.5z" />
<glyph unicode="M" d="M518 109q0 -23 -8.5 -42.5t-23.5 -34.5t-35 -23.5t-42 -8.5q-44 0 -76 32t-32 77v261q0 22 8.5 42t23 35t34 23.5t42.5 8.5q22 0 42 -8.5t35 -23.5t23.5 -35t8.5 -42v-261zM779 109q0 -23 -8.5 -42.5t-23.5 -34.5t-35 -23.5t-42 -8.5q-44 0 -76 32t-32 77v261 q0 62 -45 107t-108 45t-108 -45q-44 -44 -44 -107v-261q0 -23 -8.5 -43t-23 -34.5t-34.5 -23t-43 -8.5q-44 0 -76 32t-32 77v261q0 153 108 261q109 109 261 109q153 0 261 -109q109 -108 109 -261v-261zM851 370q0 183 -130 312q-129 130 -312 130q-182 0 -312 -130 q-129 -129 -129 -312v-261q0 -75 53 -128t127 -53q39 0 72.5 15t58.5 41l3 -3q53 -53 127 -53q38 0 72 15t59 41l3 -3q53 -53 127 -53q37 0 70 14t58 39t39 57.5t14 70.5v261z" />
<glyph unicode="N" d="M779 370q0 -23 -8.5 -42.5t-23.5 -34.5t-35 -23.5t-42 -8.5q-44 0 -76 32t-32 77v261q0 22 8.5 42t23 35t34 23.5t42.5 8.5q22 0 42 -8.5t35 -23.5t23.5 -35t8.5 -42v-261zM257 109q0 -23 -8.5 -43t-23 -34.5t-34.5 -23t-43 -8.5q-44 0 -76 32t-32 77v261q0 22 8.5 42 t23 35t34 23.5t42.5 8.5q22 0 42 -8.5t35 -23.5t23.5 -35t8.5 -42v-261zM779 109q0 -23 -8.5 -42.5t-23.5 -34.5t-35 -23.5t-42 -8.5q-153 0 -261 108t-108 262q0 62 -45 107t-108 45q-44 0 -76 32t-32 77q0 22 8.5 42t23 35t34 23.5t42.5 8.5q153 0 261 -109 q109 -108 109 -261q0 -62 44 -108q46 -44 108 -44q22 0 42 -8.5t35 -23.5t23.5 -35t8.5 -42zM851 631q0 37 -14 70t-39 58t-58 39t-70 14q-36 0 -67.5 -12.5t-55 -35t-38.5 -52.5t-18 -64q-15 18 -31 34q-129 130 -312 130q-38 0 -71 -14t-57 -39t-38 -58t-14 -70 q0 -75 53 -128q0 -2 2 -2q-26 -25 -40.5 -59t-14.5 -72v-261q0 -75 53 -128t127 -53q35 0 66 12.5t55 34t39.5 51t19.5 64.5q7 -8 14.5 -16.5t15.5 -16.5q129 -129 312 -129q37 0 70 14t58 39t39 57.5t14 70.5t-15 71.5t-41 58.5q26 25 41 58.5t15 72.5v261z" />
<glyph unicode="O" d="M562 370q0 62 -45 107t-108 45t-108 -45q-44 -44 -44 -107q0 -62 44 -108q46 -44 108 -44t108 44q45 43 45 108zM779 370q0 -153 -109 -262q-108 -108 -261 -108t-261 108t-108 262q0 153 108 261q109 109 261 109q153 0 261 -109q109 -108 109 -261zM851 370 q0 183 -130 312q-129 130 -312 130q-182 0 -312 -130q-129 -129 -129 -312q0 -184 129 -313t312 -129t312 129q130 130 130 313zM490 370q0 -33 -23 -56q-24 -24 -58 -24t-56 22q-24 24 -24 58q0 33 23 56q24 24 57 24t57 -24t24 -56z" />
<glyph unicode="P" d="M779 631q0 -153 -109 -262q-108 -108 -261 -108q-44 0 -76 32t-32 77q0 22 8.5 42t23 35t34 23.5t42.5 8.5q63 0 107 43h-107q-63 0 -108 -45q-44 -44 -44 -107v-261q0 -23 -8.5 -43t-23 -34.5t-34.5 -23t-43 -8.5q-44 0 -76 32t-32 77v261q0 153 108 261 q109 109 261 109h261q22 0 42 -8.5t35 -23.5t23.5 -35t8.5 -42zM851 631q0 37 -14 70t-39 58t-58 39t-70 14h-261q-182 0 -312 -130q-129 -129 -129 -312v-261q0 -75 53 -128t127 -53q38 0 71 14t57.5 38.5t38.5 57.5t14 71v98q36 -18 80 -18q183 0 312 129q130 130 130 313 z" />
<glyph unicode="Q" d="M562 370q0 62 -45 107t-108 45t-108 -45q-44 -44 -44 -107q0 -62 44 -108q46 -44 108 -44t108 44q45 43 45 108zM779 109q0 -23 -8.5 -42.5t-23.5 -34.5t-35 -23.5t-42 -8.5q-54 0 -87 44q-80 -44 -174 -44q-153 0 -261 108t-108 262q0 153 108 261q109 109 261 109 q153 0 261 -109q109 -108 109 -261q0 -48 -11 -90t-33 -84q44 -31 44 -87zM851 109q0 28 -8 53.5t-22 47.5q15 38 22.5 76.5t7.5 83.5q0 183 -130 312q-129 130 -312 130q-182 0 -312 -130q-129 -129 -129 -312q0 -184 129 -313t312 -129q82 0 161 31q45 -31 100 -31 q37 0 70 14t58 39t39 57.5t14 70.5zM490 370q0 -33 -23 -56q-24 -24 -58 -24t-58 24q-22 22 -22 56q0 33 23 56q24 24 57 24t57 -24t24 -56z" />
<glyph unicode="R" d="M671 370q51 -51 79.5 -118.5t28.5 -142.5q0 -23 -8.5 -42.5t-23.5 -34.5t-35 -23.5t-42 -8.5q-44 0 -76 32t-32 77q0 62 -45 107t-108 45q-44 0 -76 32t-32 77q0 22 8.5 42t23 35t34 23.5t42.5 8.5q63 0 107 43h-107q-63 0 -108 -45q-44 -44 -44 -107v-261 q0 -23 -8.5 -43t-23 -34.5t-34.5 -23t-43 -8.5q-44 0 -76 32t-32 77v261q0 153 108 261q109 109 261 109h261q22 0 42 -8.5t35 -23.5t23.5 -35t8.5 -42q0 -75 -28.5 -142.5t-79.5 -118.5zM851 631q0 37 -14 70t-39 58t-58 39t-70 14h-261q-182 0 -312 -130 q-129 -129 -129 -312v-261q0 -75 53 -128t127 -53q38 0 71 14t57.5 38.5t38.5 57.5t14 71v98q36 -18 80 -18q33 0 57 -24t24 -56q0 -75 53 -128t127 -53q37 0 70 14t58 39t39 57.5t14 70.5q0 72 -22 138.5t-63 122.5q41 56 63 122t22 139z" />
<glyph unicode="S" d="M518 109q0 -23 -8.5 -42.5t-23.5 -34.5t-35 -23.5t-42 -8.5h-261q-44 0 -76 32t-32 77q0 22 8.5 42t23 35t34 23.5t42.5 8.5h261q22 0 42 -8.5t35 -23.5t23.5 -35t8.5 -42zM301 631q0 22 8.5 42t23 35t34 23.5t42.5 8.5h261q22 0 42 -8.5t35 -23.5t23.5 -35t8.5 -42 q0 -23 -8.5 -42.5t-23.5 -34.5t-35 -23.5t-42 -8.5h-261q-44 0 -76 32t-32 77zM779 109q0 -23 -8.5 -42.5t-23.5 -34.5t-35 -23.5t-42 -8.5q-44 0 -76 32t-32 77q0 62 -45 107t-108 45q-153 0 -261 108t-108 262q0 22 8.5 42t23 35t34 23.5t42.5 8.5q22 0 42 -8.5t35 -23.5 t23.5 -35t8.5 -42q0 -62 44 -108q46 -44 108 -44q153 0 261 -109q109 -108 109 -261zM851 109q0 183 -130 312l-33 30q34 3 64 18.5t52 39.5t34.5 55.5t12.5 66.5q0 37 -14 70t-39 58t-58 39t-70 14h-261q-39 0 -72.5 -15t-58.5 -41q-25 26 -58.5 41t-71.5 15t-71 -14 t-57 -39t-38 -58t-14 -70q0 -184 129 -313q8 -8 16 -15l16 -14q-35 -4 -64.5 -19.5t-51 -39.5t-33.5 -55t-12 -66q0 -75 53 -128t127 -53h261q38 0 72 15t59 41l3 -3q53 -53 127 -53q37 0 70 14t58 39t39 57.5t14 70.5z" />
<glyph unicode="T" d="M779 631q0 -23 -8.5 -42.5t-23.5 -34.5t-35 -23.5t-42 -8.5h-152v-413q0 -23 -8.5 -42.5t-23.5 -34.5t-35 -23.5t-42 -8.5q-44 0 -76 32t-32 77v413h-153q-44 0 -76 32t-32 77q0 22 8.5 42t23 35t34 23.5t42.5 8.5h522q22 0 42 -8.5t35 -23.5t23.5 -35t8.5 -42zM851 631 q0 37 -14 70t-39 58t-58 39t-70 14h-522q-38 0 -71 -14t-57 -39t-38 -58t-14 -70q0 -75 53 -128t127 -53h81v-341q0 -75 53 -128t127 -53q37 0 70 14t58 39t39 57.5t14 70.5v341h80q37 0 70 14t58 39t39 57.5t14 70.5z" />
<glyph unicode="U" d="M779 370q0 -153 -109 -262q-108 -108 -261 -108t-261 108t-108 262v261q0 22 8.5 42t23 35t34 23.5t42.5 8.5q22 0 42 -8.5t35 -23.5t23.5 -35t8.5 -42v-261q0 -62 44 -108q46 -44 108 -44t108 44q45 43 45 108v261q0 22 8.5 42t23 35t34 23.5t42.5 8.5q22 0 42 -8.5 t35 -23.5t23.5 -35t8.5 -42v-261zM851 631q0 37 -14 70t-39 58t-58 39t-70 14q-38 0 -71 -14t-57 -39t-38 -58t-14 -70v-261q0 -33 -23 -56q-24 -24 -58 -24t-58 24q-22 22 -22 56v261q0 37 -14 70t-39 58t-58 39t-70 14q-38 0 -71 -14t-57 -39t-38 -58t-14 -70v-261 q0 -184 129 -313t312 -129t312 129q130 130 130 313v261z" />
<glyph unicode="V" d="M779 109q0 -23 -8.5 -42.5t-23.5 -34.5t-35 -23.5t-42 -8.5h-261q-153 0 -261 108t-108 262v261q0 22 8.5 42t23 35t34 23.5t42.5 8.5q22 0 42 -8.5t35 -23.5t23.5 -35t8.5 -42v-261q0 -62 44 -108q46 -44 108 -44h153v413q0 22 8.5 42t23 35t34 23.5t42.5 8.5 q22 0 42 -8.5t35 -23.5t23.5 -35t8.5 -42v-522zM851 631q0 37 -14 70t-39 58t-58 39t-70 14q-38 0 -71 -14t-57 -39t-38 -58t-14 -70v-341h-81q-34 0 -58 24q-22 22 -22 56v261q0 37 -14 70t-39 58t-58 39t-70 14q-38 0 -71 -14t-57 -39t-38 -58t-14 -70v-261 q0 -184 129 -313t312 -129h261q37 0 70 14t58 39t39 57.5t14 70.5v522z" />
<glyph unicode="W" d="M301 631q0 22 8.5 42t23 35t34 23.5t42.5 8.5q22 0 42 -8.5t35 -23.5t23.5 -35t8.5 -42v-261q0 -23 -8.5 -42.5t-23.5 -34.5t-35 -23.5t-42 -8.5q-44 0 -76 32t-32 77v261zM779 370q0 -153 -109 -262q-108 -108 -261 -108t-261 108t-108 262v261q0 22 8.5 42t23 35 t34 23.5t42.5 8.5q22 0 42 -8.5t35 -23.5t23.5 -35t8.5 -42v-261q0 -62 44 -108q46 -44 108 -44t108 44q45 43 45 108v261q0 22 8.5 42t23 35t34 23.5t42.5 8.5q22 0 42 -8.5t35 -23.5t23.5 -35t8.5 -42v-261zM851 631q0 37 -14 70t-39 58t-58 39t-70 14q-39 0 -72.5 -15 t-58.5 -41q-25 26 -58.5 41t-71.5 15q-39 0 -72.5 -15t-58.5 -41q-25 26 -58.5 41t-71.5 15t-71 -14t-57 -39t-38 -58t-14 -70v-261q0 -184 129 -313t312 -129t312 129q130 130 130 313v261z" />
<glyph unicode="X" d="M671 370q51 -51 79.5 -118.5t28.5 -142.5q0 -23 -8.5 -42.5t-23.5 -34.5t-35 -23.5t-42 -8.5q-44 0 -76 32t-32 77q0 62 -45 107t-108 45t-108 -45q-44 -44 -44 -107q0 -23 -8.5 -43t-23 -34.5t-34.5 -23t-43 -8.5q-44 0 -76 32t-32 77q0 75 28.5 142.5t79.5 118.5 q-51 51 -79.5 118.5t-28.5 142.5q0 22 8.5 42t23 35t34 23.5t42.5 8.5q22 0 42 -8.5t35 -23.5t23.5 -35t8.5 -42q0 -62 44 -108q46 -44 108 -44t108 44q45 43 45 108q0 22 8.5 42t23 35t34 23.5t42.5 8.5q22 0 42 -8.5t35 -23.5t23.5 -35t8.5 -42q0 -75 -28.5 -142.5 t-79.5 -118.5zM851 631q0 37 -14 70t-39 58t-58 39t-70 14q-38 0 -71 -14t-57 -39t-38 -58t-14 -70q0 -33 -23 -56q-24 -24 -58 -24t-56 22q-24 24 -24 58q0 37 -14 70t-39 58t-58 39t-70 14q-38 0 -71 -14t-57 -39t-38 -58t-14 -70q0 -73 22 -139t63 -122 q-41 -56 -63 -122.5t-22 -138.5q0 -75 53 -128t127 -53q38 0 71 14t57.5 38.5t38.5 57.5t14 71q0 33 23 56q24 24 57 24t57 -24t24 -56q0 -75 53 -128t127 -53q37 0 70 14t58 39t39 57.5t14 70.5q0 72 -22 138.5t-63 122.5q41 56 63 122t22 139z" />
<glyph unicode="Y" d="M518 109q0 -23 -8.5 -42.5t-23.5 -34.5t-35 -23.5t-42 -8.5q-44 0 -76 32t-32 77v169q-114 34 -188 132q-73 97 -73 221q0 22 8.5 42t23 35t34 23.5t42.5 8.5q22 0 42 -8.5t35 -23.5t23.5 -35t8.5 -42q0 -62 44 -108q46 -44 108 -44t108 44q45 43 45 108q0 22 8.5 42 t23 35t34 23.5t42.5 8.5q22 0 42 -8.5t35 -23.5t23.5 -35t8.5 -42q0 -122 -74 -220q-75 -99 -187 -133v-169zM762 368q89 118 89 263q0 37 -14 70t-39 58t-58 39t-70 14q-38 0 -71 -14t-57 -39t-38 -58t-14 -70q0 -33 -23 -56q-24 -24 -58 -24t-56 22q-24 24 -24 58 q0 37 -14 70t-39 58t-58 39t-70 14q-38 0 -71 -14t-57 -39t-38 -58t-14 -70q0 -148 88 -264q71 -95 173 -140v-118q0 -75 53 -128t127 -53q37 0 70 14t58 39t39 57.5t14 70.5v119q101 44 172 140z" />
<glyph unicode="Z" d="M779 109q0 -23 -8.5 -42.5t-23.5 -34.5t-35 -23.5t-42 -8.5h-522q-33 0 -60 18t-40 50q-8 18 -8 41q0 45 32 77l336 336h-260q-44 0 -76 32t-32 77q0 22 8.5 42t23 35t34 23.5t42.5 8.5h522q34 0 61 -18t40 -50q8 -22 8 -41q0 -45 -32 -77l-336 -336h259q22 0 42 -8.5 t35 -23.5t23.5 -35t8.5 -42zM851 109q0 37 -14 70t-39 58t-58 39t-70 14h-85l213 213q53 53 53 128q0 29 -13 66q-21 55 -66 85t-102 30h-522q-38 0 -71 -14t-57 -39t-38 -58t-14 -70q0 -75 53 -128t127 -53h86l-213 -213q-53 -53 -53 -128q0 -41 14 -71l-1 4q21 -54 66 -84 t101 -30h522q37 0 70 14t58 39t39 57.5t14 70.5z" />
<glyph unicode="[" horiz-adv-x="558" d="M518 109q0 -23 -8.5 -42.5t-23.5 -34.5t-35 -23.5t-42 -8.5h-261q-44 0 -76 32t-32 77v522q0 22 8.5 42t23 35t34 23.5t42.5 8.5h261q22 0 42 -8.5t35 -23.5t23.5 -35t8.5 -42q0 -23 -8.5 -42.5t-23.5 -34.5t-35 -23.5t-42 -8.5h-152v-304h152q22 0 42 -8.5t35 -23.5 t23.5 -35t8.5 -42zM590 109q0 37 -14 70t-39 58t-58 39t-70 14h-80v160h80q37 0 70 14t58 39t39 57.5t14 70.5q0 37 -14 70t-39 58t-58 39t-70 14h-261q-38 0 -71 -14t-57 -39t-38 -58t-14 -70v-522q0 -75 53 -128t127 -53h261q37 0 70 14t58 39t39 57.5t14 70.5z" />
<glyph unicode="\" d="M747 32q-32 -32 -77 -32q-42 0 -77 32l-521 522q-32 32 -32 77q0 21 8.5 40.5t23 34.5t34.5 24t43 9q45 0 76 -31l522 -522q32 -32 32 -77t-32 -77zM798 -19q26 26 39.5 57.5t13.5 70.5t-13.5 70.5t-39.5 57.5l-522 522q-52 52 -127 52q-38 0 -71 -15t-57.5 -39.5 t-38.5 -57t-14 -68.5q0 -75 53 -128l522 -523q57 -52 127 -52q75 0 128 53z" />
<glyph unicode="]" horiz-adv-x="558" d="M518 109q0 -23 -8.5 -42.5t-23.5 -34.5t-35 -23.5t-42 -8.5h-261q-44 0 -76 32t-32 77q0 22 8.5 42t23 35t34 23.5t42.5 8.5h153v304h-153q-44 0 -76 32t-32 77q0 22 8.5 42t23 35t34 23.5t42.5 8.5h261q22 0 42 -8.5t35 -23.5t23.5 -35t8.5 -42v-522zM590 631 q0 37 -14 70t-39 58t-58 39t-70 14h-261q-38 0 -71 -14t-57 -39t-38 -58t-14 -70q0 -75 53 -128t127 -53h81v-160h-81q-38 0 -71 -14t-57 -39t-38 -58t-14 -70q0 -75 53 -128t127 -53h261q37 0 70 14t58 39t39 57.5t14 70.5v522z" />
<glyph unicode="^" horiz-adv-x="558" d="M486 424q-32 -32 -77 -32q-22 0 -41 7.5t-36 24.5l-53 53l-54 -53q-15 -16 -35 -24t-41 -8q-46 0 -78 32q-31 31 -31 76t32 77l130 131q31 31 77 31t77 -31l130 -131q32 -32 32 -77q0 -44 -32 -76zM537 373q53 53 53 127q0 39 -13.5 70.5t-39.5 57.5l-130 131 q-52 52 -128 52t-128 -52l-130 -131q-53 -53 -53 -128q0 -36 13 -68.5t39 -58.5q53 -53 129 -53q35 0 68.5 13.5t59.5 40.5l-2 -1l3 3l3 -3q29 -29 60.5 -41t67.5 -12q39 0 70.5 13.5t57.5 39.5z" />
<glyph unicode="_" horiz-adv-x="558" d="M518 -21q0 -23 -8.5 -42.5t-23.5 -34.5t-35 -23.5t-42 -8.5h-261q-44 0 -76 32t-32 77q0 22 8.5 42t23 34.5t34 23t42.5 8.5h261q22 0 42 -8.5t35 -23t23.5 -34t8.5 -42.5zM590 -21q0 38 -14 71t-39 57t-58 38t-70 14h-261q-38 0 -70.5 -14t-57 -38.5t-38.5 -57.5 t-14 -70q0 -75 53 -128t127 -53h261q37 0 70 14t58 39t39 57.5t14 70.5z" />
<glyph unicode="`" horiz-adv-x="297" d="M257 500q0 -44 -32 -76t-77 -32q-23 0 -42.5 8.5t-34 23t-23 34t-8.5 42.5v131q0 22 8.5 42t23 35t34 23.5t42.5 8.5q22 0 42 -8.5t35 -23.5t23.5 -35t8.5 -42v-131zM329 631q0 37 -14 70t-39 58t-58 39t-70 14q-38 0 -71 -14t-57 -39t-38 -58t-14 -70v-131 q0 -38 14 -70.5t38.5 -57t57 -38.5t70.5 -14q75 0 128 53t53 127v131z" />
<glyph unicode="a" d="M779 109q0 -23 -8.5 -42.5t-23.5 -34.5t-35 -23.5t-42 -8.5q-44 0 -76 32t-32 77v261q0 62 -45 107t-108 45t-108 -45q-44 -44 -44 -107q0 -62 44 -108q46 -44 108 -44q22 0 42 -8.5t35 -23.5t23.5 -35t8.5 -42q0 -23 -8.5 -42.5t-23.5 -34.5t-35 -23.5t-42 -8.5 q-153 0 -261 108t-108 262q0 153 108 261q109 109 261 109q153 0 261 -109q109 -108 109 -261v-261zM851 370q0 183 -130 312q-129 130 -312 130q-182 0 -312 -130q-129 -129 -129 -312q0 -184 129 -313t312 -129q38 0 72 15t59 41l3 -3q53 -53 127 -53q37 0 70 14t58 39 t39 57.5t14 70.5v261zM409 290q-34 0 -56 22q-24 24 -24 58q0 33 23 56q24 24 57 24t57 -24t24 -56v-99q-40 19 -81 19z" />
<glyph unicode="b" d="M779 370q0 -153 -109 -262q-108 -108 -261 -108t-261 108t-108 262v391q0 22 8.5 42t23 35t34 23.5t42.5 8.5q22 0 42 -8.5t35 -23.5t23.5 -35t8.5 -42v-391q0 -62 44 -108q46 -44 108 -44t108 44q45 43 45 108q0 62 -45 107t-108 45q-44 0 -76 32t-32 77q0 22 8.5 42 t23 35t34 23.5t42.5 8.5q153 0 261 -109q109 -108 109 -261zM851 370q0 183 -130 312q-129 130 -312 130q-46 0 -83 -20q-6 32 -22 59.5t-39.5 47.5t-53.5 31.5t-63 11.5q-38 0 -71 -14t-57 -39t-38 -58t-14 -70v-391q0 -184 129 -313t312 -129t312 129q130 130 130 313z M409 450q33 0 57 -24t24 -56q0 -33 -23 -56q-24 -24 -58 -24t-56 22q-24 24 -24 58v98q36 -18 80 -18z" />
<glyph unicode="c" horiz-adv-x="784" d="M729 185q-50 -86 -135 -135q-86 -50 -184 -50q-153 0 -262 108q-108 109 -108 262t108 261q109 109 262 109q50 0 96.5 -12.5t87.5 -36.5t75.5 -58.5t59.5 -77.5q15 -26 15 -56q0 -62 -54 -93q-26 -15 -54 -15q-29 0 -54.5 14.5t-40.5 40.5q-43 76 -131 76 q-62 0 -108 -44q-45 -44 -45 -108q0 -62 45 -107t108 -45q42 0 76 20t55 56q31 55 95 55q22 0 41.5 -9t34.5 -24t23.5 -34.5t8.5 -41.5q0 -30 -15 -55zM791 148q13 21 19 44.5t6 47.5q0 37 -15 70t-41 58q56 50 56 131q0 49 -25 93v-1q-30 52 -71 93t-90 69.5t-104.5 43.5 t-115.5 15q-183 0 -313 -130q-129 -129 -129 -312q0 -181 129 -313q132 -129 313 -129q116 0 220 60q104 61 161 161v-1zM478 329l1 1q-11 -19 -28.5 -29.5t-40.5 -10.5q-33 0 -57 24t-24 56q0 33 23 56q24 24 58 24q46 0 68 -40q6 -11 14 -21t16 -19q-8 -9 -16 -19t-14 -22 z" />
<glyph unicode="d" d="M779 370q0 -153 -109 -262q-108 -108 -261 -108t-261 108t-108 262q0 153 108 261q109 109 261 109q22 0 42 -8.5t35 -23.5t23.5 -35t8.5 -42q0 -23 -8.5 -42.5t-23.5 -34.5t-35 -23.5t-42 -8.5q-63 0 -108 -45q-44 -44 -44 -107q0 -62 44 -108q46 -44 108 -44t108 44 q45 43 45 108v391q0 22 8.5 42t23 35t34 23.5t42.5 8.5q22 0 42 -8.5t35 -23.5t23.5 -35t8.5 -42v-391zM851 761q0 37 -14 70t-39 58t-58 39t-70 14q-35 0 -65 -11.5t-53.5 -32t-39 -48t-20.5 -59.5q-19 10 -39.5 15.5t-43.5 5.5q-182 0 -312 -130q-129 -129 -129 -312 q0 -184 129 -313t312 -129t312 129q130 130 130 313v391zM467 314q-24 -24 -58 -24t-58 24q-22 22 -22 56q0 33 23 56q24 24 57 24q41 0 81 19v-99q0 -33 -23 -56z" />
<glyph unicode="e" d="M409 479q22 0 42 -8.5t35 -23.5t23.5 -35t8.5 -42q0 -23 -8.5 -42.5t-23.5 -34.5t-35 -23.5t-42 -8.5q-44 0 -76 32t-32 77q0 22 8.5 42t23 35t34 23.5t42.5 8.5zM779 109q0 -23 -8.5 -42.5t-23.5 -34.5t-35 -23.5t-42 -8.5h-261q-153 0 -261 108t-108 262q0 153 108 261 q109 109 261 109h261q22 0 42 -8.5t35 -23.5t23.5 -35t8.5 -42q0 -23 -8.5 -42.5t-23.5 -34.5t-35 -23.5t-42 -8.5h-261q-63 0 -108 -45q-44 -44 -44 -107q0 -62 44 -108q46 -44 108 -44h261q22 0 42 -8.5t35 -23.5t23.5 -35t8.5 -42zM851 109q0 37 -14 70t-39 58t-58 39 t-70 14h-99q19 38 19 80t-19 80h99q37 0 70 14t58 39t39 57.5t14 70.5q0 37 -14 70t-39 58t-58 39t-70 14h-261q-182 0 -312 -130q-129 -129 -129 -312q0 -184 129 -313t312 -129h261q37 0 70 14t58 39t39 57.5t14 70.5z" />
<glyph unicode="f" d="M518 370q0 -23 -8.5 -42.5t-23.5 -34.5t-35 -23.5t-42 -8.5q-44 0 -76 32t-32 77q0 22 8.5 42t23 35t34 23.5t42.5 8.5q22 0 42 -8.5t35 -23.5t23.5 -35t8.5 -42zM779 631q0 -23 -8.5 -42.5t-23.5 -34.5t-35 -23.5t-42 -8.5h-261q-63 0 -108 -45q-44 -44 -44 -107v-261 q0 -23 -8.5 -43t-23 -34.5t-34.5 -23t-43 -8.5q-44 0 -76 32t-32 77v261q0 153 108 261q109 109 261 109h261q22 0 42 -8.5t35 -23.5t23.5 -35t8.5 -42zM590 370q0 42 -19 80h99q37 0 70 14t58 39t39 57.5t14 70.5q0 37 -14 70t-39 58t-58 39t-70 14h-261q-182 0 -312 -130 q-129 -129 -129 -312v-261q0 -75 53 -128t127 -53q38 0 71 14t57.5 38.5t38.5 57.5t14 71v98q36 -18 80 -18q37 0 70 14t58 39t39 57.5t14 70.5z" />
<glyph unicode="g" d="M779 370q0 -153 -109 -262q-108 -108 -261 -108h-261q-44 0 -76 32t-32 77q0 22 8.5 42t23 35t34 23.5t42.5 8.5h261q62 0 108 44q45 43 45 108q0 62 -45 107t-108 45h-106q43 -43 106 -43q22 0 42 -8.5t35 -23.5t23.5 -35t8.5 -42q0 -23 -8.5 -42.5t-23.5 -34.5 t-35 -23.5t-42 -8.5q-153 0 -261 108t-108 262q0 22 8.5 42t23 35t34 23.5t42.5 8.5h261q153 0 261 -109q109 -108 109 -261zM851 370q0 183 -130 312q-129 130 -312 130h-261q-38 0 -71 -14t-57 -39t-38 -58t-14 -70q0 -184 129 -313q8 -8 16 -15l16 -14 q-35 -4 -64.5 -19.5t-51 -39.5t-33.5 -55t-12 -66q0 -75 53 -128t127 -53h261q183 0 312 129q130 130 130 313z" />
<glyph unicode="h" d="M779 109q0 -23 -8.5 -42.5t-23.5 -34.5t-35 -23.5t-42 -8.5q-44 0 -76 32t-32 77v152h-305v-152q0 -23 -8.5 -43t-23 -34.5t-34.5 -23t-43 -8.5q-44 0 -76 32t-32 77v522q0 22 8.5 42t23 35t34 23.5t42.5 8.5q22 0 42 -8.5t35 -23.5t23.5 -35t8.5 -42v-152h305v152 q0 22 8.5 42t23 35t34 23.5t42.5 8.5q22 0 42 -8.5t35 -23.5t23.5 -35t8.5 -42v-522zM851 631q0 37 -14 70t-39 58t-58 39t-70 14q-38 0 -71 -14t-57 -39t-38 -58t-14 -70v-80h-161v80q0 37 -14 70t-39 58t-58 39t-70 14q-38 0 -71 -14t-57 -39t-38 -58t-14 -70v-522 q0 -75 53 -128t127 -53q38 0 71 14t57.5 38.5t38.5 57.5t14 71v80h161v-80q0 -75 53 -128t127 -53q37 0 70 14t58 39t39 57.5t14 70.5v522z" />
<glyph unicode="i" d="M779 109q0 -23 -8.5 -42.5t-23.5 -34.5t-35 -23.5t-42 -8.5h-522q-44 0 -76 32t-32 77q0 22 8.5 42t23 35t34 23.5t42.5 8.5h153v304h-153q-44 0 -76 32t-32 77q0 22 8.5 42t23 35t34 23.5t42.5 8.5h522q22 0 42 -8.5t35 -23.5t23.5 -35t8.5 -42q0 -23 -8.5 -42.5 t-23.5 -34.5t-35 -23.5t-42 -8.5h-152v-304h152q22 0 42 -8.5t35 -23.5t23.5 -35t8.5 -42zM851 109q0 37 -14 70t-39 58t-58 39t-70 14h-80v160h80q37 0 70 14t58 39t39 57.5t14 70.5q0 37 -14 70t-39 58t-58 39t-70 14h-522q-38 0 -71 -14t-57 -39t-38 -58t-14 -70 q0 -75 53 -128t127 -53h81v-160h-81q-38 0 -71 -14t-57 -39t-38 -58t-14 -70q0 -75 53 -128t127 -53h522q37 0 70 14t58 39t39 57.5t14 70.5z" />
<glyph unicode="j" d="M562 631q0 22 8.5 42t23 35t34 23.5t42.5 8.5q22 0 42 -8.5t35 -23.5t23.5 -35t8.5 -42q0 -23 -8.5 -42.5t-23.5 -34.5t-35 -23.5t-42 -8.5q-44 0 -76 32t-32 77zM779 370q0 -153 -109 -262q-108 -108 -261 -108t-261 108t-108 262q0 22 8.5 42t23 35t34 23.5t42.5 8.5 q22 0 42 -8.5t35 -23.5t23.5 -35t8.5 -42q0 -62 44 -108q46 -44 108 -44t108 44q45 43 45 108q0 22 8.5 42t23 35t34 23.5t42.5 8.5q22 0 42 -8.5t35 -23.5t23.5 -35t8.5 -42zM490 631q0 -75 53 -128q0 -2 2 -2q-26 -25 -40.5 -59t-14.5 -72q0 -33 -23 -56q-24 -24 -58 -24 t-56 22q-24 24 -24 58q0 37 -14 70t-39 58t-58 39t-70 14q-38 0 -71 -14t-57 -39t-38 -58t-14 -70q0 -184 129 -313t312 -129t312 129q130 130 130 313q0 38 -15 71.5t-41 58.5q26 25 41 58.5t15 72.5q0 37 -14 70t-39 58t-58 39t-70 14q-38 0 -71 -14t-57 -39t-38 -58 t-14 -70z" />
<glyph unicode="k" d="M257 109q0 -23 -8.5 -43t-23 -34.5t-34.5 -23t-43 -8.5q-44 0 -76 32t-32 77v522q0 22 8.5 42t23 35t34 23.5t42.5 8.5q22 0 42 -8.5t35 -23.5t23.5 -35t8.5 -42v-522zM779 109q0 -23 -8.5 -42.5t-23.5 -34.5t-35 -23.5t-42 -8.5q-153 0 -261 108t-108 262q0 22 8.5 42 t23 35t34 23.5t42.5 8.5q62 0 108 44q45 43 45 108q0 22 8.5 42t23 35t34 23.5t42.5 8.5q22 0 42 -8.5t35 -23.5t23.5 -35t8.5 -42q0 -115 -65 -210q-65 -94 -171 -134q21 -32 54 -50.5t73 -18.5q22 0 42 -8.5t35 -23.5t23.5 -35t8.5 -42zM329 631q0 37 -14 70t-39 58 t-58 39t-70 14q-38 0 -71 -14t-57 -39t-38 -58t-14 -70v-522q0 -75 53 -128t127 -53q35 0 66 12.5t55 34t39.5 51t19.5 64.5q7 -8 14.5 -16.5t15.5 -16.5q129 -129 312 -129q37 0 70 14t58 39t39 57.5t14 70.5q0 35 -12.5 66t-34.5 55t-51.5 39.5t-63.5 19.5q49 40 84 91 q78 114 78 251q0 37 -14 70t-39 58t-58 39t-70 14q-38 0 -71 -14t-57 -39t-38 -58t-14 -70q0 -33 -23 -56q-24 -24 -58 -24q-22 0 -42 -5t-38 -13v98z" />
<glyph unicode="l" d="M779 109q0 -23 -8.5 -42.5t-23.5 -34.5t-35 -23.5t-42 -8.5h-261q-153 0 -261 108t-108 262v261q0 22 8.5 42t23 35t34 23.5t42.5 8.5q22 0 42 -8.5t35 -23.5t23.5 -35t8.5 -42v-261q0 -62 44 -108q46 -44 108 -44h261q22 0 42 -8.5t35 -23.5t23.5 -35t8.5 -42zM851 109 q0 37 -14 70t-39 58t-58 39t-70 14h-261q-34 0 -56 22q-24 24 -24 58v261q0 37 -14 70t-39 58t-58 39t-70 14q-38 0 -71 -14t-57 -39t-38 -58t-14 -70v-261q0 -184 129 -313t312 -129h261q37 0 70 14t58 39t39 57.5t14 70.5z" />
<glyph unicode="m" d="M518 109q0 -23 -8.5 -42.5t-23.5 -34.5t-35 -23.5t-42 -8.5q-44 0 -76 32t-32 77v261q0 22 8.5 42t23 35t34 23.5t42.5 8.5q22 0 42 -8.5t35 -23.5t23.5 -35t8.5 -42v-261zM779 109q0 -23 -8.5 -42.5t-23.5 -34.5t-35 -23.5t-42 -8.5q-44 0 -76 32t-32 77v261 q0 62 -45 107t-108 45t-108 -45q-44 -44 -44 -107v-261q0 -23 -8.5 -43t-23 -34.5t-34.5 -23t-43 -8.5q-44 0 -76 32t-32 77v261q0 153 108 261q109 109 261 109q153 0 261 -109q109 -108 109 -261v-261zM851 370q0 183 -130 312q-129 130 -312 130q-182 0 -312 -130 q-129 -129 -129 -312v-261q0 -75 53 -128t127 -53q39 0 72.5 15t58.5 41l3 -3q53 -53 127 -53q38 0 72 15t59 41l3 -3q53 -53 127 -53q37 0 70 14t58 39t39 57.5t14 70.5v261z" />
<glyph unicode="n" d="M779 109q0 -23 -8.5 -42.5t-23.5 -34.5t-35 -23.5t-42 -8.5q-44 0 -76 32t-32 77v261q0 62 -45 107t-108 45t-108 -45q-44 -44 -44 -107v-261q0 -23 -8.5 -43t-23 -34.5t-34.5 -23t-43 -8.5q-44 0 -76 32t-32 77v261q0 153 108 261q109 109 261 109q153 0 261 -109 q109 -108 109 -261v-261zM851 370q0 183 -130 312q-129 130 -312 130q-182 0 -312 -130q-129 -129 -129 -312v-261q0 -75 53 -128t127 -53q38 0 71 14t57.5 38.5t38.5 57.5t14 71v261q0 33 23 56q24 24 57 24t57 -24t24 -56v-261q0 -75 53 -128t127 -53q37 0 70 14t58 39 t39 57.5t14 70.5v261z" />
<glyph unicode="o" d="M562 370q0 62 -45 107t-108 45t-108 -45q-44 -44 -44 -107q0 -62 44 -108q46 -44 108 -44t108 44q45 43 45 108zM779 370q0 -153 -109 -262q-108 -108 -261 -108t-261 108t-108 262q0 153 108 261q109 109 261 109q153 0 261 -109q109 -108 109 -261zM851 370 q0 183 -130 312q-129 130 -312 130q-182 0 -312 -130q-129 -129 -129 -312q0 -184 129 -313t312 -129t312 129q130 130 130 313zM490 370q0 -33 -23 -56q-24 -24 -58 -24t-56 22q-24 24 -24 58q0 33 23 56q24 24 57 24t57 -24t24 -56z" />
<glyph unicode="p" d="M779 370q0 -153 -109 -262q-108 -108 -261 -108q-44 0 -76 32t-32 77q0 22 8.5 42t23 35t34 23.5t42.5 8.5q62 0 108 44q45 43 45 108q0 62 -45 107t-108 45t-108 -45q-44 -44 -44 -107v-391q0 -23 -8.5 -43t-23 -34.5t-34.5 -23t-43 -8.5q-44 0 -76 32t-32 77v391 q0 153 108 261q109 109 261 109q153 0 261 -109q109 -108 109 -261zM851 370q0 183 -130 312q-129 130 -312 130q-182 0 -312 -130q-129 -129 -129 -312v-391q0 -75 53 -128t127 -53q34 0 64 11.5t53.5 31.5t39.5 47.5t21 59.5q38 -20 83 -20q183 0 312 129q130 130 130 313 zM329 370q0 33 23 56q24 24 57 24t57 -24t24 -56q0 -33 -23 -56q-24 -24 -58 -24q-22 0 -42 -5t-38 -13v98z" />
<glyph unicode="q" d="M779 -21q0 -23 -8.5 -42.5t-23.5 -34.5t-35 -23.5t-42 -8.5q-44 0 -76 32t-32 77v391q0 62 -45 107t-108 45t-108 -45q-44 -44 -44 -107q0 -62 44 -108q46 -44 108 -44q22 0 42 -8.5t35 -23.5t23.5 -35t8.5 -42q0 -23 -8.5 -42.5t-23.5 -34.5t-35 -23.5t-42 -8.5 q-153 0 -261 108t-108 262q0 153 108 261q109 109 261 109q153 0 261 -109q109 -108 109 -261v-391zM851 370q0 183 -130 312q-129 130 -312 130q-182 0 -312 -130q-129 -129 -129 -312q0 -184 129 -313t312 -129q45 0 83 20q9 -55 51 -97q53 -53 127 -53q37 0 70 14t58 39 t39 57.5t14 70.5v391zM409 290q-34 0 -56 22q-24 24 -24 58q0 33 23 56q24 24 57 24t57 -24t24 -56v-99q-40 19 -81 19z" />
<glyph unicode="r" d="M779 631q0 -23 -8.5 -42.5t-23.5 -34.5t-35 -23.5t-42 -8.5h-261q-63 0 -108 -45q-44 -44 -44 -107v-261q0 -23 -8.5 -43t-23 -34.5t-34.5 -23t-43 -8.5q-44 0 -76 32t-32 77v261q0 153 108 261q109 109 261 109h261q22 0 42 -8.5t35 -23.5t23.5 -35t8.5 -42zM851 631 q0 37 -14 70t-39 58t-58 39t-70 14h-261q-182 0 -312 -130q-129 -129 -129 -312v-261q0 -75 53 -128t127 -53q38 0 71 14t57.5 38.5t38.5 57.5t14 71v261q0 33 23 56q24 24 57 24h261q37 0 70 14t58 39t39 57.5t14 70.5z" />
<glyph unicode="s" d="M409 479q22 0 42 -8.5t35 -23.5t23.5 -35t8.5 -42q0 -23 -8.5 -42.5t-23.5 -34.5t-35 -23.5t-42 -8.5q-44 0 -76 32t-32 77q0 22 8.5 42t23 35t34 23.5t42.5 8.5zM40 370q0 153 108 261q109 109 261 109h261q22 0 42 -8.5t35 -23.5t23.5 -35t8.5 -42q0 -23 -8.5 -42.5 t-23.5 -34.5t-35 -23.5t-42 -8.5h-261q-63 0 -108 -45q-44 -44 -44 -107q0 -23 -8.5 -43t-23 -34.5t-34.5 -23t-43 -8.5q-44 0 -76 32t-32 77zM779 370q0 -153 -109 -262q-108 -108 -261 -108h-261q-44 0 -76 32t-32 77q0 22 8.5 42t23 35t34 23.5t42.5 8.5h261q62 0 108 44 q45 43 45 108q0 22 8.5 42t23 35t34 23.5t42.5 8.5q22 0 42 -8.5t35 -23.5t23.5 -35t8.5 -42zM-32 370q0 -75 53 -128q0 -2 2 -2q-26 -25 -40.5 -59t-14.5 -72q0 -75 53 -128t127 -53h261q183 0 312 129q130 130 130 313q0 38 -15 71.5t-41 58.5q26 25 41 58.5t15 72.5 q0 37 -14 70t-39 58t-58 39t-70 14h-261q-182 0 -312 -130q-129 -129 -129 -312z" />
<glyph unicode="t" horiz-adv-x="558" d="M301 631q0 22 8.5 42t23 35t34 23.5t42.5 8.5q22 0 42 -8.5t35 -23.5t23.5 -35t8.5 -42q0 -23 -8.5 -42.5t-23.5 -34.5t-35 -23.5t-42 -8.5q-44 0 -76 32t-32 77zM518 109q0 -23 -8.5 -42.5t-23.5 -34.5t-35 -23.5t-42 -8.5q-153 0 -261 108t-108 262v391q0 22 8.5 42 t23 35t34 23.5t42.5 8.5q22 0 42 -8.5t35 -23.5t23.5 -35t8.5 -42v-391q0 -62 44 -108q46 -44 108 -44q22 0 42 -8.5t35 -23.5t23.5 -35t8.5 -42zM590 109q0 37 -14 70t-39 58t-58 39t-70 14q-34 0 -58 24q-22 22 -22 56v98q36 -18 80 -18q37 0 70 14t58 39t39 57.5t14 70.5 q0 37 -14 70t-39 58t-58 39t-70 14q-46 0 -83 -20q-6 32 -22 59.5t-39.5 47.5t-53.5 31.5t-63 11.5q-38 0 -71 -14t-57 -39t-38 -58t-14 -70v-391q0 -184 129 -313t312 -129q37 0 70 14t58 39t39 57.5t14 70.5z" />
<glyph unicode="u" d="M779 370q0 -153 -109 -262q-108 -108 -261 -108t-261 108t-108 262v261q0 22 8.5 42t23 35t34 23.5t42.5 8.5q22 0 42 -8.5t35 -23.5t23.5 -35t8.5 -42v-261q0 -62 44 -108q46 -44 108 -44t108 44q45 43 45 108v261q0 22 8.5 42t23 35t34 23.5t42.5 8.5q22 0 42 -8.5 t35 -23.5t23.5 -35t8.5 -42v-261zM851 631q0 37 -14 70t-39 58t-58 39t-70 14q-38 0 -71 -14t-57 -39t-38 -58t-14 -70v-261q0 -33 -23 -56q-24 -24 -58 -24t-58 24q-22 22 -22 56v261q0 37 -14 70t-39 58t-58 39t-70 14q-38 0 -71 -14t-57 -39t-38 -58t-14 -70v-261 q0 -184 129 -313t312 -129t312 129q130 130 130 313v261z" />
<glyph unicode="v" d="M779 370q0 -153 -109 -262q-108 -108 -261 -108h-261q-44 0 -76 32t-32 77v522q0 22 8.5 42t23 35t34 23.5t42.5 8.5q22 0 42 -8.5t35 -23.5t23.5 -35t8.5 -42v-413h152q62 0 108 44q45 43 45 108v261q0 22 8.5 42t23 35t34 23.5t42.5 8.5q22 0 42 -8.5t35 -23.5 t23.5 -35t8.5 -42v-261zM851 631q0 37 -14 70t-39 58t-58 39t-70 14q-38 0 -71 -14t-57 -39t-38 -58t-14 -70v-261q0 -33 -23 -56q-24 -24 -58 -24h-80v341q0 37 -14 70t-39 58t-58 39t-70 14q-38 0 -71 -14t-57 -39t-38 -58t-14 -70v-522q0 -75 53 -128t127 -53h261 q183 0 312 129q130 130 130 313v261z" />
<glyph unicode="w" d="M301 631q0 22 8.5 42t23 35t34 23.5t42.5 8.5q22 0 42 -8.5t35 -23.5t23.5 -35t8.5 -42v-261q0 -23 -8.5 -42.5t-23.5 -34.5t-35 -23.5t-42 -8.5q-44 0 -76 32t-32 77v261zM779 370q0 -153 -109 -262q-108 -108 -261 -108t-261 108t-108 262v261q0 22 8.5 42t23 35 t34 23.5t42.5 8.5q22 0 42 -8.5t35 -23.5t23.5 -35t8.5 -42v-261q0 -62 44 -108q46 -44 108 -44t108 44q45 43 45 108v261q0 22 8.5 42t23 35t34 23.5t42.5 8.5q22 0 42 -8.5t35 -23.5t23.5 -35t8.5 -42v-261zM851 631q0 37 -14 70t-39 58t-58 39t-70 14q-39 0 -72.5 -15 t-58.5 -41q-25 26 -58.5 41t-71.5 15q-39 0 -72.5 -15t-58.5 -41q-25 26 -58.5 41t-71.5 15t-71 -14t-57 -39t-38 -58t-14 -70v-261q0 -184 129 -313t312 -129t312 129q130 130 130 313v261z" />
<glyph unicode="x" d="M779 109q0 -23 -8.5 -42.5t-23.5 -34.5t-35 -23.5t-42 -8.5q-75 0 -141 28t-120 80q-52 -51 -118.5 -79.5t-142.5 -28.5q-44 0 -76 32t-32 77q0 22 8.5 42t23 35t34 23.5t42.5 8.5q62 0 108 44q45 43 45 108q0 62 -45 107t-108 45q-44 0 -76 32t-32 77q0 22 8.5 42t23 35 t34 23.5t42.5 8.5q75 0 141 -28t120 -80q52 51 118.5 79.5t142.5 28.5q22 0 42 -8.5t35 -23.5t23.5 -35t8.5 -42q0 -23 -8.5 -42.5t-23.5 -34.5t-35 -23.5t-42 -8.5q-63 0 -108 -45q-44 -44 -44 -107q0 -62 44 -108q46 -44 108 -44q22 0 42 -8.5t35 -23.5t23.5 -35t8.5 -42z M851 109q0 37 -14 70t-39 58t-58 39t-70 14q-34 0 -58 24q-22 22 -22 56q0 33 23 56q24 24 57 24q37 0 70 14t58 39t39 57.5t14 70.5q0 37 -14 70t-39 58t-58 39t-70 14q-74 0 -139.5 -22t-121.5 -64q-57 42 -123 64t-138 22q-38 0 -71 -14t-57 -39t-38 -58t-14 -70 q0 -75 53 -128t127 -53q33 0 57 -24t24 -56q0 -33 -23 -56q-24 -24 -58 -24q-38 0 -71 -14t-57 -39t-38 -58t-14 -70q0 -75 53 -128t127 -53q73 0 139 22t122 63q57 -41 122.5 -63t138.5 -22q37 0 70 14t58 39t39 57.5t14 70.5z" />
<glyph unicode="y" d="M40 631q0 22 8.5 42t23 35t34 23.5t42.5 8.5q22 0 42 -8.5t35 -23.5t23.5 -35t8.5 -42q0 -62 44 -108q46 -44 108 -44q22 0 42 -8.5t35 -23.5t23.5 -35t8.5 -42q0 -23 -8.5 -42.5t-23.5 -34.5t-35 -23.5t-42 -8.5q-153 0 -261 108t-108 262zM779 370q0 -153 -109 -262 q-108 -108 -261 -108h-261q-44 0 -76 32t-32 77q0 22 8.5 42t23 35t34 23.5t42.5 8.5h261q62 0 108 44q45 43 45 108v261q0 22 8.5 42t23 35t34 23.5t42.5 8.5q22 0 42 -8.5t35 -23.5t23.5 -35t8.5 -42v-261zM-32 631q0 -184 129 -313q8 -8 16 -15l16 -14 q-35 -4 -64.5 -19.5t-51 -39.5t-33.5 -55t-12 -66q0 -75 53 -128t127 -53h261q183 0 312 129q130 130 130 313v261q0 37 -14 70t-39 58t-58 39t-70 14q-38 0 -71 -14t-57 -39t-38 -58t-14 -70v-99q-40 19 -81 19q-34 0 -58 24q-22 22 -22 56q0 37 -14 70t-39 58t-58 39 t-70 14q-38 0 -71 -14t-57 -39t-38 -58t-14 -70z" />
<glyph unicode="z" d="M779 109q0 -23 -8.5 -42.5t-23.5 -34.5t-35 -23.5t-42 -8.5h-261q-44 0 -76 32t-32 77q0 22 8.5 42t23 35t34 23.5t42.5 8.5h261q22 0 42 -8.5t35 -23.5t23.5 -35t8.5 -42zM40 631q0 22 8.5 42t23 35t34 23.5t42.5 8.5h261q22 0 42 -8.5t35 -23.5t23.5 -35t8.5 -42 q0 -23 -8.5 -42.5t-23.5 -34.5t-35 -23.5t-42 -8.5h-261q-44 0 -76 32t-32 77zM257 109q0 -23 -8.5 -43t-23 -34.5t-34.5 -23t-43 -8.5q-44 0 -76 32t-32 77q0 153 108 261q109 109 261 109q62 0 108 44q45 43 45 108q0 22 8.5 42t23 35t34 23.5t42.5 8.5q22 0 42 -8.5 t35 -23.5t23.5 -35t8.5 -42q0 -153 -109 -262q-108 -108 -261 -108q-63 0 -108 -45q-44 -44 -44 -107zM-32 631q0 -75 53 -128q44 -46 108 -52q-8 -8 -16 -15t-16 -15q-129 -129 -129 -312q0 -75 53 -128t127 -53q39 0 72.5 15t58.5 41l3 -3q53 -53 127 -53h261q37 0 70 14 t58 39t39 57.5t14 70.5q0 35 -12.5 66t-34.5 55t-51.5 39.5t-63.5 19.5q16 13 32 29q130 130 130 313q0 37 -14 70t-39 58t-58 39t-70 14q-39 0 -72.5 -15t-58.5 -41q-25 26 -58.5 41t-71.5 15h-261q-38 0 -71 -14t-57 -39t-38 -58t-14 -70z" />
<glyph unicode="{" horiz-adv-x="689" d="M649 109q0 -23 -8.5 -42.5t-23.5 -34.5t-35 -23.5t-42 -8.5q-126 0 -223 75q-98 75 -132 193q-18 -7 -36 -7q-23 0 -42.5 8.5t-34.5 23.5t-23.5 34.5t-8.5 42.5q0 22 8.5 42t23.5 35t34.5 23.5t42.5 8.5q14 0 36 -7q34 118 132 193q97 75 223 75q22 0 42 -8.5t35 -23.5 t23.5 -35t8.5 -42q0 -23 -8.5 -42.5t-23.5 -34.5t-35 -23.5t-42 -8.5q-63 0 -108 -45q-44 -44 -44 -107q0 -62 44 -108q46 -44 108 -44q22 0 42 -8.5t35 -23.5t23.5 -35t8.5 -42zM721 109q0 37 -14 70t-39 58t-58 39t-70 14q-34 0 -58 24q-22 22 -22 56q0 33 23 56 q24 24 57 24q37 0 70 14t58 39t39 57.5t14 70.5q0 37 -14 70t-39 58t-58 39t-70 14q-150 0 -267 -90q-91 -70 -136 -172q-36 -2 -66.5 -17t-53.5 -39t-36 -56t-13 -68t13 -68t36 -56.5t53.5 -39.5t66.5 -17q45 -103 136 -171q117 -90 267 -90q37 0 70 14t58 39t39 57.5 t14 70.5z" />
<glyph unicode="|" horiz-adv-x="297" d="M257 -21q0 -23 -8.5 -42.5t-23.5 -34.5t-35 -23.5t-42 -8.5q-44 0 -76 32t-32 77v782q0 22 8.5 42t23 35t34 23.5t42.5 8.5q22 0 42 -8.5t35 -23.5t23.5 -35t8.5 -42v-782zM329 761q0 37 -14 70t-39 58t-58 39t-70 14q-38 0 -71 -14t-57 -39t-38 -58t-14 -70v-782 q0 -75 53 -128t127 -53q37 0 70 14t58 39t39 57.5t14 70.5v782z" />
<glyph unicode="}" horiz-adv-x="689" d="M649 370q0 -23 -8.5 -42.5t-23.5 -34.5t-35 -23.5t-42 -8.5q-14 0 -36 7q-34 -118 -132 -193t-223 -75q-23 0 -42.5 8.5t-34.5 23.5t-23.5 34.5t-8.5 42.5q0 22 8.5 42t23.5 35t34.5 23.5t42.5 8.5q63 0 107 44q45 45 45 108t-45 107q-44 45 -107 45q-23 0 -42.5 8.5 t-34.5 23.5t-23.5 34.5t-8.5 42.5q0 22 8.5 42t23.5 35t34.5 23.5t42.5 8.5q125 0 223 -75t132 -193q18 7 36 7q22 0 42 -8.5t35 -23.5t23.5 -35t8.5 -42zM721 370q0 36 -13 68t-36 56t-54 39t-66 17q-44 100 -136 172q-117 90 -267 90q-38 0 -70.5 -14t-57.5 -39t-39 -58 t-14 -70q0 -38 14 -70.5t39 -57.5t57.5 -39t70.5 -14q33 0 56 -24q24 -23 24 -56t-24 -57q-23 -23 -56 -23q-38 0 -70.5 -14t-57.5 -39t-39 -58t-14 -70q0 -38 14 -70.5t39 -57.5t57.5 -39t70.5 -14q150 0 267 90q92 70 136 171q35 2 66 17t54 39.5t36 56.5t13 68z" />
<glyph unicode="~" d="M779 500q0 -153 -108 -261t-262 -108q-44 0 -76 32t-32 77v106q-21 -21 -32.5 -48.5t-11.5 -57.5q0 -23 -8.5 -43t-23 -34.5t-34.5 -23t-43 -8.5q-44 0 -76 32t-32 77q0 153 108 261t261 108q22 0 42 -8.5t35 -23.5t23.5 -35t8.5 -42v-106q44 44 44 106q0 22 8.5 42 t23 35t34 23.5t42.5 8.5q22 0 42 -8.5t35 -23.5t23.5 -35t8.5 -42zM851 500q0 37 -14 70t-39 58t-58 39t-70 14q-39 0 -72.5 -15t-58.5 -41q-25 26 -58.5 41t-71.5 15q-183 0 -312 -129t-129 -312q0 -75 53 -128t127 -53q39 0 72.5 14.5t58.5 40.5l1 -1q1 0 2 -1 q53 -53 127 -53q184 0 313 129t129 312z" />
<glyph unicode="&#xad;" horiz-adv-x="558" d="M518 370q0 -23 -8.5 -42.5t-23.5 -34.5t-35 -23.5t-42 -8.5h-261q-44 0 -76 32t-32 77q0 22 8.5 42t23 35t34 23.5t42.5 8.5h261q22 0 42 -8.5t35 -23.5t23.5 -35t8.5 -42zM590 370q0 37 -14 70t-39 58t-58 39t-70 14h-261q-38 0 -71 -14t-57 -39t-38 -58t-14 -70 q0 -75 53 -128t127 -53h261q37 0 70 14t58 39t39 57.5t14 70.5z" />
<glyph unicode="&#xc0;" d="M518 240q0 -23 -8.5 -42.5t-23.5 -34.5t-35 -23.5t-42 -8.5q-44 0 -76 32t-32 77q0 22 8.5 42t23 34.5t34 23t42.5 8.5q22 0 42 -8.5t35 -23t23.5 -34t8.5 -42.5zM779 109q0 -23 -8.5 -42.5t-23.5 -34.5t-35 -23.5t-42 -8.5q-44 0 -76 32t-32 77v261q0 62 -45 107 t-108 45t-108 -45q-44 -44 -44 -107v-261q0 -23 -8.5 -43t-23 -34.5t-34.5 -23t-43 -8.5q-44 0 -76 32t-32 77v261q0 153 108 261q109 109 261 109q153 0 261 -109q109 -108 109 -261v-261zM851 370q0 183 -130 312q-129 130 -312 130q-182 0 -312 -130q-129 -129 -129 -312 v-261q0 -75 53 -128t127 -53q34 0 64 11.5t53.5 31.5t39.5 47.5t21 59.5q37 -19 83 -19q45 0 83 20q9 -56 51 -98q53 -53 127 -53q37 0 70 14t58 39t39 57.5t14 70.5v261zM352 426q24 24 57 24t57 -24q5 -5 8.5 -10t6.5 -11q-33 15 -72 15q-20 0 -38 -4t-35 -11q7 12 16 21z " />
<glyph unicode="&#xc1;" d="M779 370q0 -153 -109 -262q-108 -108 -261 -108h-261q-44 0 -76 32t-32 77q0 153 108 261q109 109 261 109q22 0 42 -8.5t35 -23.5t23.5 -35t8.5 -42q0 -23 -8.5 -42.5t-23.5 -34.5t-35 -23.5t-42 -8.5q-63 0 -106 -43h106q62 0 108 44q45 43 45 108q0 62 -45 107 t-108 45h-261q-44 0 -76 32t-32 77q0 22 8.5 42t23 35t34 23.5t42.5 8.5h261q153 0 261 -109q109 -108 109 -261zM851 370q0 183 -130 312q-129 130 -312 130h-261q-38 0 -71 -14t-57 -39t-38 -58t-14 -70q0 -75 53 -128q44 -46 108 -52q-8 -8 -16 -15t-16 -15 q-129 -129 -129 -312q0 -75 53 -128t127 -53h261q183 0 312 129q130 130 130 313z" />
<glyph unicode="&#xc2;" d="M779 370q0 -153 -109 -262q-108 -108 -261 -108t-261 108t-108 262q0 22 8.5 42t23 35t34 23.5t42.5 8.5h261q22 0 42 -8.5t35 -23.5t23.5 -35t8.5 -42q0 -23 -8.5 -42.5t-23.5 -34.5t-35 -23.5t-42 -8.5h-106q43 -43 106 -43q62 0 108 44q45 43 45 108q0 62 -45 107 t-108 45h-261q-44 0 -76 32t-32 77q0 22 8.5 42t23 35t34 23.5t42.5 8.5h261q153 0 261 -109q109 -108 109 -261zM851 370q0 183 -130 312q-129 130 -312 130h-261q-38 0 -71 -14t-57 -39t-38 -58t-14 -70q0 -75 53 -128q0 -2 2 -2q-26 -25 -40.5 -59t-14.5 -72 q0 -184 129 -313t312 -129t312 129q130 130 130 313z" />
<glyph unicode="&#xc3;" d="M779 109q0 -23 -8.5 -42.5t-23.5 -34.5t-35 -23.5t-42 -8.5h-261q-153 0 -261 108t-108 262q0 153 108 261q109 109 261 109q153 0 261 -109q109 -108 109 -261q0 -23 -8.5 -42.5t-23.5 -34.5t-35 -23.5t-42 -8.5q-44 0 -76 32t-32 77q0 62 -45 107t-108 45t-108 -45 q-44 -44 -44 -107q0 -62 44 -108q46 -44 108 -44h261q22 0 42 -8.5t35 -23.5t23.5 -35t8.5 -42zM851 109q0 38 -15 71.5t-41 58.5q26 25 41 58.5t15 72.5q0 183 -130 312q-129 130 -312 130q-182 0 -312 -130q-129 -129 -129 -312q0 -184 129 -313t312 -129h261q37 0 70 14 t58 39t39 57.5t14 70.5zM351 314q-22 22 -22 56q0 33 23 56q24 24 57 24t57 -24t24 -56q0 -44 18 -80h-99q-34 0 -58 24z" />
<glyph unicode="&#xc4;" d="M671 370q51 -51 79.5 -118.5t28.5 -142.5q0 -23 -8.5 -42.5t-23.5 -34.5t-35 -23.5t-42 -8.5h-261q-44 0 -76 32t-32 77q0 22 8.5 42t23 35t34 23.5t42.5 8.5h107q-22 21 -48 32t-59 11q-44 0 -76 32t-32 77q0 22 8.5 42t23 35t34 23.5t42.5 8.5q63 0 107 43h-107 q-63 0 -108 -45q-44 -44 -44 -107v-261q0 -23 -8.5 -43t-23 -34.5t-34.5 -23t-43 -8.5q-44 0 -76 32t-32 77v261q0 153 108 261q109 109 261 109h261q22 0 42 -8.5t35 -23.5t23.5 -35t8.5 -42q0 -75 -28.5 -142.5t-79.5 -118.5zM851 631q0 37 -14 70t-39 58t-58 39t-70 14 h-261q-182 0 -312 -130q-129 -129 -129 -312v-261q0 -75 53 -128t127 -53q39 0 72.5 15t58.5 41l3 -3q53 -53 127 -53h261q37 0 70 14t58 39t39 57.5t14 70.5q0 72 -22 138.5t-63 122.5q41 56 63 122t22 139z" />
<glyph unicode="&#xc5;" d="M735 283q44 -83 44 -174q0 -23 -8.5 -42.5t-23.5 -34.5t-35 -23.5t-42 -8.5h-261q-44 0 -76 32t-32 77q0 22 8.5 42t23 35t34 23.5t42.5 8.5h107q-22 21 -48 32t-59 11q-44 0 -76 32t-32 77q0 22 8.5 42t23 35t34 23.5t42.5 8.5q64 0 125 -23q-21 31 -53.5 48.5 t-71.5 17.5q-63 0 -108 -45q-44 -44 -44 -107v-261q0 -23 -8.5 -43t-23 -34.5t-34.5 -23t-43 -8.5q-44 0 -76 32t-32 77v261q0 153 108 261q109 109 261 109q153 0 261 -109q109 -108 109 -261q0 -26 -12 -49t-32 -38zM851 370q0 183 -130 312q-129 130 -312 130 q-182 0 -312 -130q-129 -129 -129 -312v-261q0 -75 53 -128t127 -53q39 0 72.5 15t58.5 41l3 -3q53 -53 127 -53h261q37 0 70 14t58 39t39 57.5t14 70.5q0 81 -31 160q31 45 31 101z" />
<glyph unicode="&#xc6;" horiz-adv-x="1341" d="M1301 370q0 -23 -8.5 -42.5t-23.5 -34.5t-35 -23.5t-42 -8.5h-261q-23 0 -42.5 8.5t-34.5 23.5t-23.5 34.5t-8.5 42.5q0 22 8.5 42t23.5 35t34.5 23.5t42.5 8.5h261q22 0 42 -8.5t35 -23.5t23.5 -35t8.5 -42zM1301 109q0 -23 -8.5 -42.5t-23.5 -34.5t-35 -23.5t-42 -8.5 h-261q-153 0 -261 108t-108 262q0 62 -45 107t-108 45t-108 -45q-44 -44 -44 -107v-261q0 -23 -8.5 -42.5t-23 -34.5t-34 -23.5t-42.5 -8.5t-42.5 8.5t-34.5 23.5t-23.5 34.5t-8.5 42.5v261q0 153 108 261q109 109 261 109q75 0 141 -28t120 -80q52 51 118.5 79.5 t142.5 28.5h261q22 0 42 -8.5t35 -23.5t23.5 -35t8.5 -42q0 -23 -8.5 -42.5t-23.5 -34.5t-35 -23.5t-42 -8.5h-261q-63 0 -108 -45q-44 -44 -44 -107q0 -62 44 -108q46 -44 108 -44h261q22 0 42 -8.5t35 -23.5t23.5 -35t8.5 -42zM518 370q0 -23 -8.5 -42.5t-23.5 -34.5 t-35 -23.5t-42 -8.5q-44 0 -76 32t-32 77q0 22 8.5 42t23 35t34 23.5t42.5 8.5q22 0 42 -8.5t35 -23.5t23.5 -35t8.5 -42zM1373 109q0 38 -15 71.5t-41 58.5q26 25 41 58.5t15 72.5q0 38 -15 71.5t-41 58.5q26 25 41 58.5t15 72.5q0 37 -14 70t-39 58t-58 39t-70 14h-261 q-74 0 -139.5 -22t-121.5 -64q-57 42 -123 64t-138 22q-182 0 -312 -130q-129 -129 -129 -312v-261q0 -38 14 -70.5t39 -57.5t57.5 -39t70.5 -14t71 14t57 39t38 57.5t14 70.5v98q36 -18 80 -18q29 0 55.5 8.5t48.5 24.5q31 -90 106 -165q129 -129 312 -129h261q37 0 70 14 t58 39t39 57.5t14 70.5z" />
<glyph unicode="&#xc7;" d="M779 370q0 -153 -109 -262q-108 -108 -261 -108q-44 0 -76 32t-32 77q0 22 8.5 42t23 35t34 23.5t42.5 8.5q62 0 108 44q45 43 45 108q0 62 -45 107t-108 45h-152v-413q0 -23 -8.5 -43t-23 -34.5t-34.5 -23t-43 -8.5q-44 0 -76 32t-32 77v522q0 22 8.5 42t23 35t34 23.5 t42.5 8.5h261q153 0 261 -109q109 -108 109 -261zM851 370q0 183 -130 312q-129 130 -312 130h-261q-38 0 -71 -14t-57 -39t-38 -58t-14 -70v-522q0 -75 53 -128t127 -53q39 0 72.5 15t58.5 41l3 -3q53 -53 127 -53q183 0 312 129q130 130 130 313zM409 450q33 0 57 -24 t24 -56q0 -33 -23 -56q-24 -24 -58 -24q-22 0 -42 -5t-38 -13v178h80z" />
<glyph unicode="&#xc8;" d="M779 370q0 -153 -109 -262q-108 -108 -261 -108h-261q-44 0 -76 32t-32 77q0 22 8.5 42t23 35t34 23.5t42.5 8.5h261q62 0 108 44q45 43 45 108q0 62 -45 107t-108 45h-152v-152q0 -23 -8.5 -43t-23 -34.5t-34.5 -23t-43 -8.5q-44 0 -76 32t-32 77v261q0 22 8.5 42t23 35 t34 23.5t42.5 8.5h261q153 0 261 -109q109 -108 109 -261zM851 370q0 183 -130 312q-129 130 -312 130h-261q-38 0 -71 -14t-57 -39t-38 -58t-14 -70v-261q0 -75 53 -128q0 -2 2 -2q-26 -25 -40.5 -59t-14.5 -72q0 -75 53 -128t127 -53h261q183 0 312 129q130 130 130 313z M329 370v80h80q33 0 57 -24t24 -56q0 -33 -23 -56q-24 -24 -58 -24h-99q19 38 19 80z" />
<glyph unicode="&#xc9;" horiz-adv-x="784" d="M518 370q0 -23 -8.5 -42.5t-23 -34.5t-34 -23.5t-42.5 -8.5t-42.5 8.5t-34.5 23.5t-23.5 34.5t-8.5 42.5q0 22 8.5 42t23.5 35t34.5 23.5t42.5 8.5q44 0 76 -32t32 -77zM729 185q-50 -86 -135 -135q-86 -50 -184 -50q-153 0 -262 108q-108 109 -108 262t108 261 q109 109 262 109q50 0 96.5 -12.5t87.5 -36.5t75.5 -58.5t59.5 -77.5q15 -26 15 -56q0 -62 -54 -93q-26 -15 -54 -15q-29 0 -54.5 14.5t-40.5 40.5q-43 76 -131 76q-62 0 -108 -44q-45 -44 -45 -108q0 -62 45 -107t108 -45q42 0 76 20t55 56q31 55 95 55q22 0 41.5 -9 t34.5 -24t23.5 -34.5t8.5 -41.5q0 -30 -15 -55zM791 148q13 21 19 44.5t6 47.5q0 37 -15 70t-41 58q56 50 56 131q0 49 -25 93v-1q-30 52 -71 93t-90 69.5t-104.5 43.5t-115.5 15q-183 0 -313 -130q-129 -129 -129 -312q0 -181 129 -313q132 -129 313 -129q116 0 220 60 q104 61 161 161v-1z" />
<glyph unicode="&#xca;" d="M779 109q0 -23 -8.5 -42.5t-23.5 -34.5t-35 -23.5t-42 -8.5h-261q-153 0 -261 108t-108 262q0 153 108 261q109 109 261 109q153 0 261 -109q109 -108 109 -261q0 -23 -8.5 -42.5t-23.5 -34.5t-35 -23.5t-42 -8.5h-261q-44 0 -76 32t-32 77q0 22 8.5 42t23 35t34 23.5 t42.5 8.5h107q-22 21 -48 32t-59 11q-63 0 -108 -45q-44 -44 -44 -107q0 -62 44 -108q46 -44 108 -44h261q22 0 42 -8.5t35 -23.5t23.5 -35t8.5 -42zM851 109q0 38 -15 71.5t-41 58.5q26 25 41 58.5t15 72.5q0 183 -130 312q-129 130 -312 130q-182 0 -312 -130 q-129 -129 -129 -312q0 -184 129 -313t312 -129h261q37 0 70 14t58 39t39 57.5t14 70.5z" />
<glyph unicode="&#xcb;" d="M779 109q0 -23 -8.5 -42.5t-23.5 -34.5t-35 -23.5t-42 -8.5h-261q-153 0 -261 108t-108 262q0 153 108 261q109 109 261 109h261q22 0 42 -8.5t35 -23.5t23.5 -35t8.5 -42q0 -153 -109 -262q-108 -108 -261 -108q-44 0 -76 32t-32 77q0 22 8.5 42t23 35t34 23.5t42.5 8.5 q63 0 107 43h-107q-63 0 -108 -45q-44 -44 -44 -107q0 -62 44 -108q46 -44 108 -44h261q22 0 42 -8.5t35 -23.5t23.5 -35t8.5 -42zM851 109q0 35 -12.5 66t-34.5 55t-51.5 39.5t-63.5 19.5q16 13 32 29q130 130 130 313q0 37 -14 70t-39 58t-58 39t-70 14h-261 q-182 0 -312 -130q-129 -129 -129 -312q0 -184 129 -313t312 -129h261q37 0 70 14t58 39t39 57.5t14 70.5z" />
<glyph unicode="&#xcc;" d="M518 370q0 -23 -8.5 -42.5t-23.5 -34.5t-35 -23.5t-42 -8.5q-44 0 -76 32t-32 77q0 22 8.5 42t23 35t34 23.5t42.5 8.5q22 0 42 -8.5t35 -23.5t23.5 -35t8.5 -42zM779 370q0 -23 -8.5 -42.5t-23.5 -34.5t-35 -23.5t-42 -8.5q-44 0 -76 32t-32 77q0 62 -45 107t-108 45 t-108 -45q-44 -44 -44 -107v-261q0 -23 -8.5 -43t-23 -34.5t-34.5 -23t-43 -8.5q-44 0 -76 32t-32 77v261q0 153 108 261q109 109 261 109q153 0 261 -109q109 -108 109 -261zM851 370q0 183 -130 312q-129 130 -312 130q-182 0 -312 -130q-129 -129 -129 -312v-261 q0 -75 53 -128t127 -53q38 0 71 14t57.5 38.5t38.5 57.5t14 71v98q36 -18 80 -18q38 0 72 15t59 41l3 -3q53 -53 127 -53q37 0 70 14t58 39t39 57.5t14 70.5z" />
<glyph unicode="&#xcd;" d="M779 370q0 -153 -109 -262q-108 -108 -261 -108t-261 108t-108 262q0 153 108 261q109 109 261 109h261q22 0 42 -8.5t35 -23.5t23.5 -35t8.5 -42q0 -23 -8.5 -42.5t-23.5 -34.5t-35 -23.5t-42 -8.5h-261q-63 0 -108 -45q-44 -44 -44 -107q0 -62 44 -108q46 -44 108 -44 q63 0 107 43h-107q-44 0 -76 32t-32 77q0 22 8.5 42t23 35t34 23.5t42.5 8.5h261q22 0 42 -8.5t35 -23.5t23.5 -35t8.5 -42zM851 370q0 38 -15 71.5t-41 58.5q26 25 41 58.5t15 72.5q0 37 -14 70t-39 58t-58 39t-70 14h-261q-182 0 -312 -130q-129 -129 -129 -312 q0 -184 129 -313t312 -129t312 129q130 130 130 313z" />
<glyph unicode="&#xce;" d="M779 109q0 -23 -8.5 -42.5t-23.5 -34.5t-35 -23.5t-42 -8.5h-261q-153 0 -261 108t-108 262q0 153 108 261q109 109 261 109h261q22 0 42 -8.5t35 -23.5t23.5 -35t8.5 -42q0 -23 -8.5 -42.5t-23.5 -34.5t-35 -23.5t-42 -8.5h-261q-63 0 -108 -45q-44 -44 -44 -107 q0 -62 44 -108q46 -44 108 -44h107q-22 21 -48 32t-59 11q-44 0 -76 32t-32 77q0 22 8.5 42t23 35t34 23.5t42.5 8.5q153 0 261 -109q109 -108 109 -261zM851 109q0 183 -130 312l-33 30q34 3 64 18.5t52 39.5t34.5 55.5t12.5 66.5q0 37 -14 70t-39 58t-58 39t-70 14h-261 q-182 0 -312 -130q-129 -129 -129 -312q0 -184 129 -313t312 -129h261q37 0 70 14t58 39t39 57.5t14 70.5z" />
<glyph unicode="&#xcf;" d="M779 370q0 -153 -109 -262q-108 -108 -261 -108h-261q-44 0 -76 32t-32 77q0 22 8.5 42t23 35t34 23.5t42.5 8.5h261q62 0 108 44q45 43 45 108q0 62 -45 107t-108 45t-106 -43h106q22 0 42 -8.5t35 -23.5t23.5 -35t8.5 -42q0 -23 -8.5 -42.5t-23.5 -34.5t-35 -23.5 t-42 -8.5h-261q-44 0 -76 32t-32 77q0 153 108 261q109 109 261 109q153 0 261 -109q109 -108 109 -261zM851 370q0 183 -130 312q-129 130 -312 130q-182 0 -312 -130q-129 -129 -129 -312q0 -75 53 -128q0 -2 2 -2q-26 -25 -40.5 -59t-14.5 -72q0 -75 53 -128t127 -53h261 q183 0 312 129q130 130 130 313z" />
<glyph unicode="&#xd0;" horiz-adv-x="297" d="M40 631q0 22 8.5 42t23 35t34 23.5t42.5 8.5q22 0 42 -8.5t35 -23.5t23.5 -35t8.5 -42q0 -23 -8.5 -42.5t-23.5 -34.5t-35 -23.5t-42 -8.5q-44 0 -76 32t-32 77zM257 109q0 -23 -8.5 -42.5t-23.5 -34.5t-35 -23.5t-42 -8.5q-44 0 -76 32t-32 77v261q0 22 8.5 42t23 35 t34 23.5t42.5 8.5q22 0 42 -8.5t35 -23.5t23.5 -35t8.5 -42v-261zM-32 631q0 -75 53 -128q0 -2 2 -2q-26 -25 -40.5 -59t-14.5 -72v-261q0 -75 53 -128t127 -53q37 0 70 14t58 39t39 57.5t14 70.5v261q0 38 -15 71.5t-41 58.5q26 25 41 58.5t15 72.5q0 37 -14 70t-39 58 t-58 39t-70 14q-38 0 -71 -14t-57 -39t-38 -58t-14 -70z" />
<glyph unicode="&#xd1;" horiz-adv-x="297" d="M40 631q0 22 8.5 42t23 35t34 23.5t42.5 8.5q22 0 42 -8.5t35 -23.5t23.5 -35t8.5 -42q0 -23 -8.5 -42.5t-23.5 -34.5t-35 -23.5t-42 -8.5q-44 0 -76 32t-32 77zM257 -21q0 -23 -8.5 -42.5t-23.5 -34.5t-35 -23.5t-42 -8.5q-44 0 -76 32t-32 77v391q0 22 8.5 42t23 35 t34 23.5t42.5 8.5q22 0 42 -8.5t35 -23.5t23.5 -35t8.5 -42v-391zM-32 631q0 -75 53 -128q0 -2 2 -2q-26 -25 -40.5 -59t-14.5 -72v-391q0 -75 53 -128t127 -53q37 0 70 14t58 39t39 57.5t14 70.5v391q0 38 -15 71.5t-41 58.5q26 25 41 58.5t15 72.5q0 37 -14 70t-39 58 t-58 39t-70 14q-38 0 -71 -14t-57 -39t-38 -58t-14 -70z" />
<glyph unicode="&#xd2;" horiz-adv-x="558" d="M301 631q0 22 8.5 42t23 35t34 23.5t42.5 8.5q22 0 42 -8.5t35 -23.5t23.5 -35t8.5 -42q0 -23 -8.5 -42.5t-23.5 -34.5t-35 -23.5t-42 -8.5q-44 0 -76 32t-32 77zM518 370q0 -153 -109 -262q-108 -108 -261 -108q-44 0 -76 32t-32 77q0 22 8.5 42t23 35t34 23.5t42.5 8.5 q62 0 108 44q45 43 45 108q0 22 8.5 42t23 35t34 23.5t42.5 8.5q22 0 42 -8.5t35 -23.5t23.5 -35t8.5 -42zM229 631q0 -75 53 -128q0 -2 2 -2q-26 -25 -40.5 -59t-14.5 -72q0 -33 -23 -56q-24 -24 -58 -24q-38 0 -71 -14t-57 -39t-38 -58t-14 -70q0 -75 53 -128t127 -53 q183 0 312 129q130 130 130 313q0 38 -15 71.5t-41 58.5q26 25 41 58.5t15 72.5q0 37 -14 70t-39 58t-58 39t-70 14q-38 0 -71 -14t-57 -39t-38 -58t-14 -70z" />
<glyph unicode="&#xd3;" d="M747 186q32 -32 32 -77q0 -23 -8.5 -43t-23.5 -34.5t-35 -23t-42 -8.5q-42 0 -77 32l-261 261q-31 31 -31 77t31 77l261 261q31 31 77 31q23 0 43 -8.5t34.5 -23t23 -34.5t8.5 -42q0 -45 -32 -77l-184 -184zM257 109q0 -23 -8.5 -43t-23 -34.5t-34.5 -23t-43 -8.5 q-44 0 -76 32t-32 77v522q0 22 8.5 42t23 35t34 23.5t42.5 8.5q22 0 42 -8.5t35 -23.5t23.5 -35t8.5 -42v-522zM798 237l-133 133l133 133q26 26 39.5 57.5t13.5 70.5q0 37 -14 70t-38.5 57.5t-57.5 38.5t-71 14q-76 0 -128 -52l-213 -213v85q0 37 -14 70t-39 58t-58 39 t-70 14q-38 0 -71 -14t-57 -39t-38 -58t-14 -70v-522q0 -75 53 -128t127 -53q38 0 71 14t57.5 38.5t38.5 57.5t14 71v85l214 -214q57 -52 127 -52q37 0 70 14t58 38.5t39 57.5t14 71q0 39 -13.5 70.5t-39.5 57.5z" />
<glyph unicode="&#xd4;" d="M779 109q0 -23 -8.5 -42.5t-23.5 -34.5t-35 -23.5t-42 -8.5q-153 0 -261 108t-108 262q0 151 108 261q108 109 261 109q22 0 42 -8.5t35 -23.5t23.5 -35t8.5 -42q0 -23 -8.5 -42.5t-23.5 -34.5t-35 -23.5t-42 -8.5q-63 0 -108 -45q-44 -44 -44 -107q0 -62 44 -108 q46 -44 108 -44q22 0 42 -8.5t35 -23.5t23.5 -35t8.5 -42zM257 109q0 -23 -8.5 -43t-23 -34.5t-34.5 -23t-43 -8.5q-44 0 -76 32t-32 77v522q0 22 8.5 42t23 35t34 23.5t42.5 8.5q22 0 42 -8.5t35 -23.5t23.5 -35t8.5 -42v-522zM851 109q0 37 -14 70t-39 58t-58 39t-70 14 q-34 0 -56 22q-24 24 -24 58q0 33 23 56q24 24 57 24q37 0 70 14t58 39t39 57.5t14 70.5q0 37 -14 70t-39 58t-58 39t-70 14q-183 0 -312 -130q-17 -17 -30 -33q-3 34 -18.5 64t-39.5 52t-55.5 34.5t-66.5 12.5q-38 0 -71 -14t-57 -39t-38 -58t-14 -70v-522q0 -75 53 -128 t127 -53q35 0 66 12.5t55 34t39.5 51t19.5 64.5q7 -8 14.5 -16.5t15.5 -16.5q129 -129 312 -129q37 0 70 14t58 39t39 57.5t14 70.5z" />
<glyph unicode="&#xd5;" d="M671 370q51 -51 79.5 -118.5t28.5 -142.5q0 -23 -8.5 -42.5t-23.5 -34.5t-35 -23.5t-42 -8.5q-44 0 -76 32t-32 77q0 62 -45 107t-108 45q-44 0 -76 32t-32 77q0 22 8.5 42t23 35t34 23.5t42.5 8.5q62 0 108 44q45 43 45 108q0 22 8.5 42t23 35t34 23.5t42.5 8.5 q22 0 42 -8.5t35 -23.5t23.5 -35t8.5 -42q0 -75 -28.5 -142.5t-79.5 -118.5zM257 109q0 -23 -8.5 -43t-23 -34.5t-34.5 -23t-43 -8.5q-44 0 -76 32t-32 77v522q0 22 8.5 42t23 35t34 23.5t42.5 8.5q22 0 42 -8.5t35 -23.5t23.5 -35t8.5 -42v-522zM329 631q0 37 -14 70 t-39 58t-58 39t-70 14q-38 0 -71 -14t-57 -39t-38 -58t-14 -70v-522q0 -75 53 -128t127 -53q38 0 71 14t57.5 38.5t38.5 57.5t14 71v98q36 -18 80 -18q33 0 57 -24t24 -56q0 -75 53 -128t127 -53q37 0 70 14t58 39t39 57.5t14 70.5q0 72 -22 138.5t-63 122.5q41 56 63 122 t22 139q0 37 -14 70t-39 58t-58 39t-70 14q-38 0 -71 -14t-57 -39t-38 -58t-14 -70q0 -33 -23 -56q-24 -24 -58 -24q-22 0 -42 -5t-38 -13v98z" />
<glyph unicode="&#xd6;" d="M779 109q0 -33 -18 -60t-49 -40q-21 -8 -42 -8q-46 0 -77 31l-336 336v-259q0 -23 -8.5 -43t-23 -34.5t-34.5 -23t-43 -8.5q-44 0 -76 32t-32 77v522q0 33 18 60t49 40q18 8 42 8q45 0 76 -31l337 -336v259q0 22 8.5 42t23 35t34 23.5t42.5 8.5q22 0 42 -8.5t35 -23.5 t23.5 -35t8.5 -42v-522zM851 631q0 37 -14 70t-39 58t-58 39t-70 14q-38 0 -71 -14t-57 -39t-38 -58t-14 -70v-86l-214 214q-52 52 -127 52q-39 0 -70 -13q-51 -21 -81 -66t-30 -101v-522q0 -75 53 -128t127 -53q38 0 71 14t57.5 38.5t38.5 57.5t14 71v85l213 -213 q52 -52 128 -52q35 0 69 13q51 21 81.5 66t30.5 101v522z" />
<glyph unicode="&#xd7;" d="M562 370q0 62 -45 107t-108 45t-108 -45q-44 -44 -44 -107q0 -62 44 -108q46 -44 108 -44t108 44q45 43 45 108zM511 15q7 -18 7 -36q0 -23 -8.5 -42.5t-23.5 -34.5t-35 -23.5t-42 -8.5q-44 0 -76 32t-32 77q0 19 6 36q-115 33 -192 131q-75 99 -75 224q0 153 108 261 q109 109 261 109q153 0 261 -109q109 -108 109 -261q0 -126 -76 -224q-75 -98 -192 -131zM760 102q91 118 91 268q0 183 -130 312q-129 130 -312 130q-182 0 -312 -130q-129 -129 -129 -312q0 -150 90 -268q73 -92 171 -135q4 -68 53 -116q53 -53 127 -53q36 0 68 13t56 36 t39 54t17 66q100 43 171 135zM490 370q0 -33 -23 -56q-24 -24 -58 -24t-58 24q-22 22 -22 56q0 33 23 56q24 24 57 24t57 -24t24 -56z" />
<glyph unicode="&#xd8;" d="M779 109q0 -23 -8.5 -42.5t-23.5 -34.5t-35 -23.5t-42 -8.5q-153 0 -261 108t-108 262q0 22 8.5 42t23 35t34 23.5t42.5 8.5q63 0 107 43h-107q-63 0 -108 -45q-44 -44 -44 -107v-261q0 -23 -8.5 -43t-23 -34.5t-34.5 -23t-43 -8.5q-44 0 -76 32t-32 77v261 q0 153 108 261q109 109 261 109h261q22 0 42 -8.5t35 -23.5t23.5 -35t8.5 -42q0 -115 -65 -210q-65 -94 -171 -134q21 -32 54 -50.5t73 -18.5q22 0 42 -8.5t35 -23.5t23.5 -35t8.5 -42zM851 109q0 35 -12.5 66t-34.5 55t-51.5 39.5t-63.5 19.5q49 40 84 91q78 114 78 251 q0 37 -14 70t-39 58t-58 39t-70 14h-261q-182 0 -312 -130q-129 -129 -129 -312v-261q0 -75 53 -128t127 -53q35 0 66 12.5t55 34t39.5 51t19.5 64.5q7 -8 14.5 -16.5t15.5 -16.5q129 -129 312 -129q37 0 70 14t58 39t39 57.5t14 70.5z" />
<glyph unicode="&#xd9;" d="M735 283q44 -83 44 -174q0 -23 -8.5 -42.5t-23.5 -34.5t-35 -23.5t-42 -8.5q-44 0 -76 32t-32 77q0 62 -45 107t-108 45q-44 0 -76 32t-32 77q0 22 8.5 42t23 35t34 23.5t42.5 8.5q64 0 125 -23q-21 31 -53.5 48.5t-71.5 17.5q-63 0 -108 -45q-44 -44 -44 -107v-261 q0 -23 -8.5 -43t-23 -34.5t-34.5 -23t-43 -8.5q-44 0 -76 32t-32 77v261q0 153 108 261q109 109 261 109q153 0 261 -109q109 -108 109 -261q0 -26 -12 -49t-32 -38zM851 370q0 183 -130 312q-129 130 -312 130q-182 0 -312 -130q-129 -129 -129 -312v-261q0 -75 53 -128 t127 -53q38 0 71 14t57.5 38.5t38.5 57.5t14 71v98q36 -18 80 -18q33 0 57 -24t24 -56q0 -75 53 -128t127 -53q37 0 70 14t58 39t39 57.5t14 70.5q0 81 -31 160q31 45 31 101z" />
<glyph unicode="&#xda;" d="M779 370q0 -23 -8.5 -42.5t-23.5 -34.5t-35 -23.5t-42 -8.5q-44 0 -76 32t-32 77q0 62 -45 107t-108 45t-108 -45q-44 -44 -44 -107v-261q0 -23 -8.5 -43t-23 -34.5t-34.5 -23t-43 -8.5q-44 0 -76 32t-32 77v261q0 153 108 261q109 109 261 109q153 0 261 -109 q109 -108 109 -261zM851 370q0 183 -130 312q-129 130 -312 130q-182 0 -312 -130q-129 -129 -129 -312v-261q0 -75 53 -128t127 -53q38 0 71 14t57.5 38.5t38.5 57.5t14 71v261q0 33 23 56q24 24 57 24t57 -24t24 -56q0 -75 53 -128t127 -53q37 0 70 14t58 39t39 57.5 t14 70.5z" />
<glyph unicode="&#xdb;" d="M779 370q0 -153 -109 -262q-108 -108 -261 -108h-261q-44 0 -76 32t-32 77q0 22 8.5 42t23 35t34 23.5t42.5 8.5h261q63 0 107 43h-368q-44 0 -76 32t-32 77q0 153 108 261q109 109 261 109h261q22 0 42 -8.5t35 -23.5t23.5 -35t8.5 -42q0 -23 -8.5 -42.5t-23.5 -34.5 t-35 -23.5t-42 -8.5h-261q-63 0 -106 -43h367q22 0 42 -8.5t35 -23.5t23.5 -35t8.5 -42zM851 370q0 38 -15 71.5t-41 58.5q26 25 41 58.5t15 72.5q0 37 -14 70t-39 58t-58 39t-70 14h-261q-182 0 -312 -130q-129 -129 -129 -312q0 -75 53 -128q0 -2 2 -2q-26 -25 -40.5 -59 t-14.5 -72q0 -75 53 -128t127 -53h261q183 0 312 129q130 130 130 313z" />
<glyph unicode="&#xdc;" horiz-adv-x="558" d="M301 500q0 22 8.5 42t23 35t34 23.5t42.5 8.5q22 0 42 -8.5t35 -23.5t23.5 -35t8.5 -42q0 -44 -32 -76t-77 -32q-23 0 -42.5 8.5t-34 23t-23 34t-8.5 42.5zM518 109q0 -23 -8.5 -42.5t-23.5 -34.5t-35 -23.5t-42 -8.5q-153 0 -261 108t-108 262v261q0 22 8.5 42t23 35 t34 23.5t42.5 8.5q22 0 42 -8.5t35 -23.5t23.5 -35t8.5 -42v-261q0 -62 44 -108q46 -44 108 -44q22 0 42 -8.5t35 -23.5t23.5 -35t8.5 -42zM590 109q0 37 -14 70t-39 58t-58 39t-70 14q-34 0 -56 22q-12 12 -17 23q33 -15 73 -15q75 0 128 53t53 127q0 37 -14 70t-39 58 t-58 39t-70 14q-45 0 -83 -20q-5 32 -21 59.5t-40 48t-54 32t-63 11.5q-38 0 -71 -14t-57 -39t-38 -58t-14 -70v-261q0 -184 129 -313t312 -129q37 0 70 14t58 39t39 57.5t14 70.5z" />
<glyph unicode="&#xdd;" d="M301 631q0 22 8.5 42t23 35t34 23.5t42.5 8.5q22 0 42 -8.5t35 -23.5t23.5 -35t8.5 -42q0 -23 -8.5 -42.5t-23.5 -34.5t-35 -23.5t-42 -8.5q-44 0 -76 32t-32 77zM779 370q0 -153 -109 -262q-108 -108 -261 -108t-261 108t-108 262v391q0 22 8.5 42t23 35t34 23.5 t42.5 8.5q22 0 42 -8.5t35 -23.5t23.5 -35t8.5 -42v-391q0 -62 44 -108q46 -44 108 -44t108 44q45 43 45 108q0 22 8.5 42t23 35t34 23.5t42.5 8.5q22 0 42 -8.5t35 -23.5t23.5 -35t8.5 -42zM851 370q0 37 -14 70t-39 58t-58 39t-70 14q-38 0 -71 -14t-57 -39t-38 -58 t-14 -70q0 -33 -23 -56q-24 -24 -58 -24t-58 24q-22 22 -22 56v98q36 -18 80 -18q37 0 70 14t58 39t39 57.5t14 70.5q0 37 -14 70t-39 58t-58 39t-70 14q-46 0 -83 -20q-6 32 -22 59.5t-39.5 47.5t-53.5 31.5t-63 11.5q-38 0 -71 -14t-57 -39t-38 -58t-14 -70v-391 q0 -184 129 -313t312 -129t312 129q130 130 130 313z" />
<glyph unicode="&#xde;" d="M301 500q0 22 8.5 42t23 35t34 23.5t42.5 8.5q22 0 42 -8.5t35 -23.5t23.5 -35t8.5 -42q0 -44 -32 -76t-77 -32q-23 0 -42.5 8.5t-34 23t-23 34t-8.5 42.5zM779 370q0 -153 -109 -262q-108 -108 -261 -108t-261 108t-108 262v261q0 22 8.5 42t23 35t34 23.5t42.5 8.5 q22 0 42 -8.5t35 -23.5t23.5 -35t8.5 -42v-261q0 -62 44 -108q46 -44 108 -44t108 44q45 43 45 108q0 22 8.5 42t23 35t34 23.5t42.5 8.5q22 0 42 -8.5t35 -23.5t23.5 -35t8.5 -42zM851 370q0 37 -14 70t-39 58t-58 39t-70 14q-46 0 -83 -20q-6 32 -22 59.5t-39.5 47.5 t-53.5 31.5t-63 11.5q-45 0 -83 -20q-5 32 -21 59.5t-40 48t-54 32t-63 11.5q-38 0 -71 -14t-57 -39t-38 -58t-14 -70v-261q0 -184 129 -313t312 -129t312 129q130 130 130 313zM467 314q-24 -24 -58 -24t-58 24q-9 9 -15 21q33 -15 73 -15q20 0 38 3t35 11q-4 -9 -15 -20z " />
<glyph unicode="&#xdf;" horiz-adv-x="821" d="M509 61q-31 -61 -98 -61q-66 0 -97 61l-261 521q-12 24 -12 49q-1 23 9.5 43.5t26.5 35.5t36 23t38 7q30 0 56.5 -16.5t40.5 -44.5l163 -327l164 327q14 29 40.5 45t57.5 16q24 0 48 -12q60 -30 60 -97q0 -25 -12 -49zM833 550q10 20 15 40t5 41q0 112 -100 161 q-42 20 -80 20q-52 0 -96 -26.5t-67 -74.5h1l-100 -199l-99 199q-24 46 -67.5 73.5t-93.5 27.5h-4q-30 0 -62 -14t-57.5 -38t-42 -56.5t-16.5 -69.5v-3q0 -21 5 -41t15 -40l261 -522q25 -48 66 -74t95 -26q111 0 162 100z" />
<glyph unicode="&#xe0;" d="M747 186q32 -32 32 -77q0 -23 -8.5 -43t-23.5 -34.5t-35 -23t-42 -8.5q-42 0 -77 32l-184 184l-184 -184q-32 -32 -76 -32q-23 0 -42.5 8.5t-34.5 23.5t-23.5 34.5t-8.5 42.5q0 45 32 77l184 184l-184 184q-32 32 -32 77q0 21 8.5 40.5t23 34.5t34.5 24t43 9q45 0 76 -31 l184 -184l184 184q31 31 77 31q23 0 43 -8.5t34.5 -23t23 -34.5t8.5 -42q0 -45 -32 -77l-184 -184zM798 237l-133 133l133 133q26 26 39.5 57.5t13.5 70.5q0 37 -14 70t-38.5 57.5t-57.5 38.5t-71 14q-76 0 -128 -52l-133 -133l-133 133q-52 52 -127 52q-38 0 -71 -15 t-57.5 -39.5t-38.5 -57t-14 -68.5q0 -75 53 -128l133 -133l-133 -133q-53 -53 -53 -128q0 -38 14 -70.5t39 -57.5t57.5 -39t70.5 -14q74 0 127 53l133 133l134 -134q57 -52 127 -52q37 0 70 14t58 38.5t39 57.5t14 71q0 39 -13.5 70.5t-39.5 57.5z" />
<glyph unicode="&#xe1;" d="M257 109q0 -23 -8.5 -43t-23 -34.5t-34.5 -23t-43 -8.5q-44 0 -76 32t-32 77q0 22 8.5 42t23 35t34 23.5t42.5 8.5q22 0 42 -8.5t35 -23.5t23.5 -35t8.5 -42zM562 631q0 22 8.5 42t23 35t34 23.5t42.5 8.5q22 0 42 -8.5t35 -23.5t23.5 -35t8.5 -42q0 -23 -8.5 -42.5 t-23.5 -34.5t-35 -23.5t-42 -8.5q-44 0 -76 32t-32 77zM779 109q0 -23 -8.5 -42.5t-23.5 -34.5t-35 -23.5t-42 -8.5q-44 0 -76 32t-32 77q0 62 -45 107t-108 45q-153 0 -261 108t-108 262q0 22 8.5 42t23 35t34 23.5t42.5 8.5q22 0 42 -8.5t35 -23.5t23.5 -35t8.5 -42 q0 -62 44 -108q46 -44 108 -44q153 0 261 -109q109 -108 109 -261zM490 631q0 -52 24 -92q-50 12 -105 12q-34 0 -56 22q-24 24 -24 58q0 37 -14 70t-39 58t-58 39t-70 14q-38 0 -71 -14t-57 -39t-38 -58t-14 -70q0 -184 129 -313q8 -8 16 -15l16 -14q-35 -4 -64.5 -19.5 t-51 -39.5t-33.5 -55t-12 -66q0 -75 53 -128t127 -53q38 0 71 14t57.5 38.5t38.5 57.5t14 71q0 49 -25 91q52 -11 105 -11q33 0 57 -24t24 -56q0 -75 53 -128t127 -53q37 0 70 14t58 39t39 57.5t14 70.5q0 183 -130 312l-33 30q34 3 64 18.5t52 39.5t34.5 55.5t12.5 66.5 q0 37 -14 70t-39 58t-58 39t-70 14q-38 0 -71 -14t-57 -39t-38 -58t-14 -70z" />
<glyph unicode="&#xe2;" d="M779 109q0 -23 -8.5 -42.5t-23.5 -34.5t-35 -23.5t-42 -8.5q-44 0 -76 32t-32 77q0 22 8.5 42t23 35t34 23.5t42.5 8.5q22 0 42 -8.5t35 -23.5t23.5 -35t8.5 -42zM40 631q0 22 8.5 42t23 35t34 23.5t42.5 8.5q22 0 42 -8.5t35 -23.5t23.5 -35t8.5 -42q0 -23 -8.5 -43 t-23 -34.5t-34.5 -23t-43 -8.5q-44 0 -76 32t-32 77zM409 261q-63 0 -108 -45q-44 -44 -44 -107q0 -23 -8.5 -43t-23 -34.5t-34.5 -23t-43 -8.5q-44 0 -76 32t-32 77q0 153 108 261q109 109 261 109q62 0 108 44q45 43 45 108q0 22 8.5 42t23 35t34 23.5t42.5 8.5 q22 0 42 -8.5t35 -23.5t23.5 -35t8.5 -42q0 -153 -109 -262q-108 -108 -261 -108zM851 109q0 35 -12.5 66t-34.5 55t-51.5 39.5t-63.5 19.5q16 13 32 29q130 130 130 313q0 37 -14 70t-39 58t-58 39t-70 14q-38 0 -71 -14t-57 -39t-38 -58t-14 -70q0 -33 -23 -56 q-24 -24 -58 -24q-56 0 -105 -12q25 42 25 92q0 37 -14 70t-39 58t-58 39t-70 14q-38 0 -71 -14t-57 -39t-38 -58t-14 -70q0 -75 53 -128q44 -46 108 -52q-8 -8 -16 -15t-16 -15q-129 -129 -129 -312q0 -75 53 -128t127 -53q38 0 71 14t57.5 38.5t38.5 57.5t14 71 q0 33 23 56q24 24 57 24q52 0 105 11q-24 -41 -24 -91q0 -75 53 -128t127 -53q37 0 70 14t58 39t39 57.5t14 70.5z" />
<glyph unicode="&#xe3;" d="M518 109q0 -23 -8.5 -42.5t-23.5 -34.5t-35 -23.5t-42 -8.5q-44 0 -76 32t-32 77q0 22 8.5 42t23 35t34 23.5t42.5 8.5q22 0 42 -8.5t35 -23.5t23.5 -35t8.5 -42zM779 631q0 -153 -109 -262q-108 -108 -261 -108t-261 108t-108 262q0 22 8.5 42t23 35t34 23.5t42.5 8.5 q22 0 42 -8.5t35 -23.5t23.5 -35t8.5 -42q0 -62 44 -108q46 -44 108 -44t108 44q45 43 45 108q0 22 8.5 42t23 35t34 23.5t42.5 8.5q22 0 42 -8.5t35 -23.5t23.5 -35t8.5 -42zM590 109q0 29 -9 55t-24 49q91 32 164 105q130 130 130 313q0 37 -14 70t-39 58t-58 39t-70 14 q-38 0 -71 -14t-57 -39t-38 -58t-14 -70q0 -33 -23 -56q-24 -24 -58 -24t-56 22q-24 24 -24 58q0 37 -14 70t-39 58t-58 39t-70 14q-38 0 -71 -14t-57 -39t-38 -58t-14 -70q0 -184 129 -313q74 -74 164 -105q-32 -46 -32 -104q0 -75 53 -128t127 -53q37 0 70 14t58 39 t39 57.5t14 70.5z" />
<glyph unicode="&#xe4;" d="M779 109q0 -23 -8.5 -42.5t-23.5 -34.5t-35 -23.5t-42 -8.5h-261q-153 0 -261 108t-108 262q0 22 8.5 42t23 35t34 23.5t42.5 8.5q22 0 42 -8.5t35 -23.5t23.5 -35t8.5 -42q0 -62 44 -108q46 -44 108 -44h261q22 0 42 -8.5t35 -23.5t23.5 -35t8.5 -42zM40 631 q0 22 8.5 42t23 35t34 23.5t42.5 8.5h261q153 0 261 -109q109 -108 109 -261q0 -23 -8.5 -42.5t-23.5 -34.5t-35 -23.5t-42 -8.5q-44 0 -76 32t-32 77q0 62 -45 107t-108 45h-261q-44 0 -76 32t-32 77zM518 370q0 -23 -8.5 -42.5t-23.5 -34.5t-35 -23.5t-42 -8.5 q-44 0 -76 32t-32 77q0 22 8.5 42t23 35t34 23.5t42.5 8.5q22 0 42 -8.5t35 -23.5t23.5 -35t8.5 -42zM851 109q0 38 -15 71.5t-41 58.5q26 25 41 58.5t15 72.5q0 183 -130 312q-129 130 -312 130h-261q-38 0 -71 -14t-57 -39t-38 -58t-14 -70q0 -75 53 -128q0 -2 2 -2 q-26 -25 -40.5 -59t-14.5 -72q0 -184 129 -313t312 -129h261q37 0 70 14t58 39t39 57.5t14 70.5z" />
<glyph unicode="&#xe5;" d="M779 109q0 -23 -8.5 -42.5t-23.5 -34.5t-35 -23.5t-42 -8.5h-261q-153 0 -261 108t-108 262q0 22 8.5 42t23 35t34 23.5t42.5 8.5h368q-22 21 -48 32t-59 11h-261q-44 0 -76 32t-32 77q0 22 8.5 42t23 35t34 23.5t42.5 8.5h261q153 0 261 -109q109 -108 109 -261 q0 -23 -8.5 -42.5t-23.5 -34.5t-35 -23.5t-42 -8.5h-367q43 -43 106 -43h261q22 0 42 -8.5t35 -23.5t23.5 -35t8.5 -42zM851 109q0 38 -15 71.5t-41 58.5q26 25 41 58.5t15 72.5q0 183 -130 312q-129 130 -312 130h-261q-38 0 -71 -14t-57 -39t-38 -58t-14 -70 q0 -75 53 -128q0 -2 2 -2q-26 -25 -40.5 -59t-14.5 -72q0 -184 129 -313t312 -129h261q37 0 70 14t58 39t39 57.5t14 70.5z" />
<glyph unicode="&#xe6;" horiz-adv-x="1341" d="M1301 370q0 -23 -8.5 -42.5t-23.5 -34.5t-35 -23.5t-42 -8.5h-261q-23 0 -42.5 8.5t-34.5 23.5t-23.5 34.5t-8.5 42.5q0 22 8.5 42t23.5 35t34.5 23.5t42.5 8.5h261q22 0 42 -8.5t35 -23.5t23.5 -35t8.5 -42zM1301 109q0 -23 -8.5 -42.5t-23.5 -34.5t-35 -23.5t-42 -8.5 h-261q-153 0 -261 108t-108 262q0 62 -45 107t-108 45t-108 -45q-44 -44 -44 -107q0 -62 45 -107t107 -45q22 0 42 -8.5t35 -23.5t23.5 -35t8.5 -42q0 -23 -8.5 -42.5t-23.5 -34.5t-35 -23.5t-42 -8.5q-153 0 -261 108t-108 262q0 153 108 261q109 109 261 109q75 0 141 -28 t120 -80q52 51 118.5 79.5t142.5 28.5h261q22 0 42 -8.5t35 -23.5t23.5 -35t8.5 -42q0 -23 -8.5 -42.5t-23.5 -34.5t-35 -23.5t-42 -8.5h-261q-63 0 -108 -45q-44 -44 -44 -107q0 -62 44 -108q46 -44 108 -44h261q22 0 42 -8.5t35 -23.5t23.5 -35t8.5 -42zM1373 370 q0 38 -15 71.5t-41 58.5q26 25 41 58.5t15 72.5q0 37 -14 70t-39 58t-58 39t-70 14h-261q-74 0 -139.5 -22t-121.5 -64q-57 42 -123 64t-138 22q-182 0 -312 -130q-129 -129 -129 -312q0 -184 129 -313t312 -129q35 0 66 12.5t55 34.5t39.5 51.5t19.5 63.5q7 -8 14.5 -16.5 t15.5 -16.5q129 -129 312 -129h261q37 0 70 14t58 39t39 57.5t14 70.5t-15 71.5t-41 58.5q26 25 41 58.5t15 72.5zM409 290q-32 0 -56 24t-24 56q0 33 23 56q24 24 57 24t57 -24t24 -56q0 -53 11 -105q-42 25 -92 25z" />
<glyph unicode="&#xe7;" d="M409 261q-44 0 -76 32t-32 77q0 22 8.5 42t23 35t34 23.5t42.5 8.5q22 0 42 -8.5t35 -23.5t23.5 -35t8.5 -42q0 -23 -8.5 -42.5t-23.5 -34.5t-35 -23.5t-42 -8.5zM779 370q0 -153 -109 -262q-108 -108 -261 -108h-261q-44 0 -76 32t-32 77q0 22 8.5 42t23 35t34 23.5 t42.5 8.5h261q62 0 108 44q45 43 45 108q0 62 -45 107t-108 45h-261q-44 0 -76 32t-32 77q0 22 8.5 42t23 35t34 23.5t42.5 8.5h261q153 0 261 -109q109 -108 109 -261zM851 370q0 183 -130 312q-129 130 -312 130h-261q-38 0 -71 -14t-57 -39t-38 -58t-14 -70 q0 -75 53 -128t127 -53h99q-18 -36 -18 -80t18 -80h-99q-38 0 -71 -14t-57 -39t-38 -58t-14 -70q0 -75 53 -128t127 -53h261q183 0 312 129q130 130 130 313z" />
<glyph unicode="&#xe8;" d="M779 370q0 -153 -109 -262q-108 -108 -261 -108h-261q-44 0 -76 32t-32 77q0 22 8.5 42t23 35t34 23.5t42.5 8.5h261q38 0 71 17.5t54 48.5q-61 -23 -125 -23q-44 0 -76 32t-32 77q0 22 8.5 42t23 35t34 23.5t42.5 8.5q63 0 107 43h-368q-44 0 -76 32t-32 77q0 22 8.5 42 t23 35t34 23.5t42.5 8.5h522q22 0 42 -8.5t35 -23.5t23.5 -35t8.5 -42q0 -48 -11 -90t-33 -84q44 -31 44 -87zM851 370q0 28 -8 53.5t-22 47.5q15 38 22.5 76.5t7.5 83.5q0 37 -14 70t-39 58t-58 39t-70 14h-522q-38 0 -71 -14t-57 -39t-38 -58t-14 -70q0 -75 53 -128 t127 -53h99q-18 -36 -18 -80t18 -80h-99q-38 0 -71 -14t-57 -39t-38 -58t-14 -70q0 -75 53 -128t127 -53h261q183 0 312 129q130 130 130 313z" />
<glyph unicode="&#xe9;" d="M779 109q0 -23 -8.5 -42.5t-23.5 -34.5t-35 -23.5t-42 -8.5q-44 0 -76 32t-32 77v522q0 22 8.5 42t23 35t34 23.5t42.5 8.5q22 0 42 -8.5t35 -23.5t23.5 -35t8.5 -42v-522zM518 370q0 -23 -8.5 -42.5t-23.5 -34.5t-35 -23.5t-42 -8.5q-153 0 -261 108t-108 262 q0 22 8.5 42t23 35t34 23.5t42.5 8.5q22 0 42 -8.5t35 -23.5t23.5 -35t8.5 -42q0 -62 44 -108q46 -44 108 -44q22 0 42 -8.5t35 -23.5t23.5 -35t8.5 -42zM851 631q0 37 -14 70t-39 58t-58 39t-70 14q-38 0 -71 -14t-57 -39t-38 -58t-14 -70v-99q-40 19 -81 19q-34 0 -56 22 q-24 24 -24 58q0 37 -14 70t-39 58t-58 39t-70 14q-38 0 -71 -14t-57 -39t-38 -58t-14 -70q0 -184 129 -313t312 -129q41 0 81 19v-99q0 -75 53 -128t127 -53q37 0 70 14t58 39t39 57.5t14 70.5v522z" />
<glyph unicode="&#xea;" d="M779 109q0 -23 -8.5 -42.5t-23.5 -34.5t-35 -23.5t-42 -8.5q-44 0 -76 32t-32 77v522q0 22 8.5 42t23 35t34 23.5t42.5 8.5q22 0 42 -8.5t35 -23.5t23.5 -35t8.5 -42v-522zM518 370q0 -23 -8.5 -42.5t-23.5 -34.5t-35 -23.5t-42 -8.5h-261q-44 0 -76 32t-32 77v261 q0 22 8.5 42t23 35t34 23.5t42.5 8.5q22 0 42 -8.5t35 -23.5t23.5 -35t8.5 -42v-152h152q22 0 42 -8.5t35 -23.5t23.5 -35t8.5 -42zM851 631q0 37 -14 70t-39 58t-58 39t-70 14q-38 0 -71 -14t-57 -39t-38 -58t-14 -70v-99q-40 19 -81 19h-80v80q0 37 -14 70t-39 58t-58 39 t-70 14q-38 0 -71 -14t-57 -39t-38 -58t-14 -70v-261q0 -75 53 -128t127 -53h261q41 0 81 19v-99q0 -75 53 -128t127 -53q37 0 70 14t58 39t39 57.5t14 70.5v522z" />
<glyph unicode="&#xeb;" d="M301 631q0 22 8.5 42t23 35t34 23.5t42.5 8.5h261q22 0 42 -8.5t35 -23.5t23.5 -35t8.5 -42q0 -23 -8.5 -42.5t-23.5 -34.5t-35 -23.5t-42 -8.5h-261q-44 0 -76 32t-32 77zM779 370q0 -153 -109 -262q-108 -108 -261 -108h-261q-44 0 -76 32t-32 77q0 22 8.5 42t23 35 t34 23.5t42.5 8.5h261q63 0 107 43h-107q-153 0 -261 108t-108 262q0 22 8.5 42t23 35t34 23.5t42.5 8.5q22 0 42 -8.5t35 -23.5t23.5 -35t8.5 -42q0 -62 44 -108q46 -44 108 -44h261q22 0 42 -8.5t35 -23.5t23.5 -35t8.5 -42zM851 370q0 38 -15 71.5t-41 58.5 q26 25 41 58.5t15 72.5q0 37 -14 70t-39 58t-58 39t-70 14h-261q-39 0 -72.5 -15t-58.5 -41q-25 26 -58.5 41t-71.5 15t-71 -14t-57 -39t-38 -58t-14 -70q0 -184 129 -313q8 -8 16 -15l16 -14q-35 -4 -64.5 -19.5t-51 -39.5t-33.5 -55t-12 -66q0 -75 53 -128t127 -53h261 q183 0 312 129q130 130 130 313z" />
<glyph unicode="&#xec;" d="M516 218q-22 21 -48 32t-59 11h-106q43 -43 106 -43h107zM779 109q0 -23 -8.5 -42.5t-23.5 -34.5t-35 -23.5t-42 -8.5h-261q-153 0 -261 108t-108 262q0 153 108 261q109 109 261 109h261q22 0 42 -8.5t35 -23.5t23.5 -35t8.5 -42q0 -23 -8.5 -42.5t-23.5 -34.5 t-35 -23.5t-42 -8.5h-261q-63 0 -106 -43h106q153 0 261 -109q109 -108 109 -261zM851 109q0 183 -130 312l-33 30q34 3 64 18.5t52 39.5t34.5 55.5t12.5 66.5q0 37 -14 70t-39 58t-58 39t-70 14h-261q-182 0 -312 -130q-129 -129 -129 -312q0 -184 129 -313t312 -129h261 q37 0 70 14t58 39t39 57.5t14 70.5z" />
<glyph unicode="&#xed;" d="M779 109q0 -23 -8.5 -42.5t-23.5 -34.5t-35 -23.5t-42 -8.5q-44 0 -76 32t-32 77v261q0 62 -45 107t-108 45h-261q-44 0 -76 32t-32 77q0 22 8.5 42t23 35t34 23.5t42.5 8.5h261q153 0 261 -109q109 -108 109 -261v-261zM851 370q0 183 -130 312q-129 130 -312 130h-261 q-38 0 -71 -14t-57 -39t-38 -58t-14 -70q0 -75 53 -128t127 -53h261q33 0 57 -24t24 -56v-261q0 -75 53 -128t127 -53q37 0 70 14t58 39t39 57.5t14 70.5v261z" />
<glyph unicode="&#xee;" d="M518 109q0 -23 -8.5 -42.5t-23.5 -34.5t-35 -23.5t-42 -8.5q-44 0 -76 32t-32 77q0 22 8.5 42t23 35t34 23.5t42.5 8.5q22 0 42 -8.5t35 -23.5t23.5 -35t8.5 -42zM779 370q0 -23 -8.5 -42.5t-23.5 -34.5t-35 -23.5t-42 -8.5h-261q-44 0 -76 32t-32 77q0 22 8.5 42t23 35 t34 23.5t42.5 8.5h107q-22 21 -48 32t-59 11q-63 0 -108 -45q-44 -44 -44 -107q0 -23 -8.5 -43t-23 -34.5t-34.5 -23t-43 -8.5q-44 0 -76 32t-32 77q0 153 108 261q109 109 261 109q153 0 261 -109q109 -108 109 -261zM590 109q0 42 -19 80h99q37 0 70 14t58 39t39 57.5 t14 70.5q0 183 -130 312q-129 130 -312 130q-182 0 -312 -130q-129 -129 -129 -312q0 -75 53 -128t127 -53q39 0 72.5 14.5t58.5 40.5l1 -1q1 0 2 -1q0 -2 2 -2q-26 -25 -40.5 -59t-14.5 -72q0 -75 53 -128t127 -53q37 0 70 14t58 39t39 57.5t14 70.5z" />
<glyph unicode="&#xef;" d="M779 370q0 -23 -8.5 -42.5t-23.5 -34.5t-35 -23.5t-42 -8.5q-44 0 -76 32t-32 77q0 22 8.5 42t23 35t34 23.5t42.5 8.5q22 0 42 -8.5t35 -23.5t23.5 -35t8.5 -42zM40 370q0 22 8.5 42t23 35t34 23.5t42.5 8.5q22 0 42 -8.5t35 -23.5t23.5 -35t8.5 -42q0 -23 -8.5 -43 t-23 -34.5t-34.5 -23t-43 -8.5q-44 0 -76 32t-32 77zM779 109q0 -23 -8.5 -42.5t-23.5 -34.5t-35 -23.5t-42 -8.5q-75 0 -141 28t-120 80q-52 -51 -118.5 -79.5t-142.5 -28.5q-44 0 -76 32t-32 77q0 22 8.5 42t23 35t34 23.5t42.5 8.5q62 0 108 44q45 43 45 108 q0 62 -45 107t-108 45q-44 0 -76 32t-32 77q0 22 8.5 42t23 35t34 23.5t42.5 8.5q75 0 141 -28t120 -80q52 51 118.5 79.5t142.5 28.5q22 0 42 -8.5t35 -23.5t23.5 -35t8.5 -42q0 -23 -8.5 -42.5t-23.5 -34.5t-35 -23.5t-42 -8.5q-63 0 -108 -45q-44 -44 -44 -107 q0 -62 44 -108q46 -44 108 -44q22 0 42 -8.5t35 -23.5t23.5 -35t8.5 -42zM851 370q0 38 -15 71.5t-41 58.5q26 25 41 58.5t15 72.5q0 37 -14 70t-39 58t-58 39t-70 14q-74 0 -139.5 -22t-121.5 -64q-57 42 -123 64t-138 22q-38 0 -71 -14t-57 -39t-38 -58t-14 -70 q0 -75 53 -128q0 -2 2 -2q-26 -25 -40.5 -59t-14.5 -72q0 -75 53 -128q0 -2 2 -2q-26 -25 -40.5 -59t-14.5 -72q0 -75 53 -128t127 -53q73 0 139 22t122 63q57 -41 122.5 -63t138.5 -22q37 0 70 14t58 39t39 57.5t14 70.5t-15 71.5t-41 58.5q26 25 41 58.5t15 72.5z" />
<glyph unicode="&#xf0;" horiz-adv-x="297" d="M257 370q0 -23 -8.5 -42.5t-23.5 -34.5t-35 -23.5t-42 -8.5q-44 0 -76 32t-32 77q0 22 8.5 42t23 35t34 23.5t42.5 8.5q22 0 42 -8.5t35 -23.5t23.5 -35t8.5 -42zM329 370q0 37 -14 70t-39 58t-58 39t-70 14q-38 0 -71 -14t-57 -39t-38 -58t-14 -70q0 -75 53 -128 t127 -53q37 0 70 14t58 39t39 57.5t14 70.5z" />
<glyph unicode="&#x2000;" horiz-adv-x="471" />
<glyph unicode="&#x2001;" horiz-adv-x="942" />
<glyph unicode="&#x2002;" horiz-adv-x="471" />
<glyph unicode="&#x2003;" horiz-adv-x="942" />
<glyph unicode="&#x2004;" horiz-adv-x="314" />
<glyph unicode="&#x2005;" horiz-adv-x="235" />
<glyph unicode="&#x2006;" horiz-adv-x="157" />
<glyph unicode="&#x2007;" horiz-adv-x="157" />
<glyph unicode="&#x2008;" horiz-adv-x="117" />
<glyph unicode="&#x2009;" horiz-adv-x="188" />
<glyph unicode="&#x200a;" horiz-adv-x="52" />
<glyph unicode="&#x2010;" horiz-adv-x="558" d="M518 370q0 -23 -8.5 -42.5t-23.5 -34.5t-35 -23.5t-42 -8.5h-261q-44 0 -76 32t-32 77q0 22 8.5 42t23 35t34 23.5t42.5 8.5h261q22 0 42 -8.5t35 -23.5t23.5 -35t8.5 -42zM590 370q0 37 -14 70t-39 58t-58 39t-70 14h-261q-38 0 -71 -14t-57 -39t-38 -58t-14 -70 q0 -75 53 -128t127 -53h261q37 0 70 14t58 39t39 57.5t14 70.5z" />
<glyph unicode="&#x2011;" horiz-adv-x="558" d="M518 370q0 -23 -8.5 -42.5t-23.5 -34.5t-35 -23.5t-42 -8.5h-261q-44 0 -76 32t-32 77q0 22 8.5 42t23 35t34 23.5t42.5 8.5h261q22 0 42 -8.5t35 -23.5t23.5 -35t8.5 -42zM590 370q0 37 -14 70t-39 58t-58 39t-70 14h-261q-38 0 -71 -14t-57 -39t-38 -58t-14 -70 q0 -75 53 -128t127 -53h261q37 0 70 14t58 39t39 57.5t14 70.5z" />
<glyph unicode="&#x2012;" horiz-adv-x="558" d="M518 370q0 -23 -8.5 -42.5t-23.5 -34.5t-35 -23.5t-42 -8.5h-261q-44 0 -76 32t-32 77q0 22 8.5 42t23 35t34 23.5t42.5 8.5h261q22 0 42 -8.5t35 -23.5t23.5 -35t8.5 -42zM590 370q0 37 -14 70t-39 58t-58 39t-70 14h-261q-38 0 -71 -14t-57 -39t-38 -58t-14 -70 q0 -75 53 -128t127 -53h261q37 0 70 14t58 39t39 57.5t14 70.5z" />
<glyph unicode="&#x2013;" horiz-adv-x="436" d="M410 370q0 -23 -7 -42.5t-19 -34.5t-28 -23.5t-33 -8.5h-210q-36 0 -61.5 32t-25.5 77q0 22 7 42t18.5 35t27 23.5t34.5 8.5h210q17 0 33 -8.5t28 -23.5t19 -35t7 -42zM468 370q0 37 -11.5 70t-31.5 58t-46.5 39t-55.5 14h-210q-31 0 -57.5 -14t-45.5 -39t-30.5 -58 t-11.5 -70q0 -75 42.5 -128t102.5 -53h210q29 0 55.5 14t46.5 39t31.5 57.5t11.5 70.5z" />
<glyph unicode="&#x2014;" horiz-adv-x="936" d="M852 370q0 -23 -13.5 -42.5t-37.5 -34.5t-56.5 -23.5t-67.5 -8.5h-420q-70 0 -121.5 32t-51.5 77q0 22 13.5 42t37 35t54.5 23.5t68 8.5h420q35 0 67.5 -8.5t56.5 -23.5t37.5 -35t13.5 -42zM968 370q0 37 -22.5 70t-62.5 58t-93.5 39t-112.5 14h-420q-61 0 -114 -14 t-91.5 -39t-61 -58t-22.5 -70q0 -75 85 -128t204 -53h420q59 0 112.5 14t93.5 39t62.5 57.5t22.5 70.5z" />
<glyph unicode="&#x202f;" horiz-adv-x="188" />
<glyph unicode="&#x205f;" horiz-adv-x="235" />
<glyph unicode="&#xe000;" horiz-adv-x="810" d="M0 810h810v-810h-810v810z" />
</font>
</defs>
</svg>
