<?xml version="1.0" standalone="no"?>
<!DOCTYPE svg PUBLIC "-//W3C//DTD SVG 1.1//EN" "http://www.w3.org/Graphics/SVG/1.1/DTD/svg11.dtd" >
<svg xmlns="http://www.w3.org/2000/svg">
<metadata></metadata>
<defs>
<font id="woodennickelblackregular" horiz-adv-x="300" >
<font-face units-per-em="1000" ascent="800" descent="-200" />
<missing-glyph horiz-adv-x="146" />
<glyph horiz-adv-x="1000" />
<glyph horiz-adv-x="1000" />
<glyph unicode="&#xd;" horiz-adv-x="1000" />
<glyph unicode=" "  horiz-adv-x="146" />
<glyph unicode="&#x09;" horiz-adv-x="146" />
<glyph unicode="&#xa0;" horiz-adv-x="146" />
<glyph unicode="!" horiz-adv-x="326" d="M276 39q0 -38 -33 -64.5t-79 -26.5t-79.5 26.5t-33.5 64.5q0 39 33.5 66t79.5 27t79 -27t33 -66v0zM311 618l-83 -383q-4 -25 -20 -42.5t-41 -17.5q-24 0 -41 16.5t-24 43.5l-87 383q0 41 44 70t105 29q60 0 103.5 -29t43.5 -70v0z" />
<glyph unicode="&#x22;" horiz-adv-x="317" d="M174 671q0 -21 -9 -50.5t-19 -63.5q-7 -22 -13.5 -45t-10.5 -46q-2 -14 -3.5 -27.5t-1.5 -26.5h-40q0 16 -2 32t-5 33q-5 20 -10.5 40.5t-11.5 40.5q-12 34 -21 64t-9 49q0 22 23 37.5t55 15.5t55 -15.5t23 -37.5v0zM354 671q0 -21 -9 -50.5t-19 -63.5q-7 -22 -13.5 -45 t-10.5 -46q-2 -14 -3.5 -27.5t-1.5 -26.5h-40q0 16 -2 32t-5 33q-5 20 -10.5 40.5t-11.5 40.5q-12 34 -21 64t-9 49q0 22 23 37.5t55 15.5t55 -15.5t23 -37.5v0z" />
<glyph unicode="#" horiz-adv-x="498" d="M497 471l-25 -75h-123l-13 -44h127l-23 -75h-125l-89 -312h-75l88 312h-37l-89 -312h-75l88 312h-123l23 75h121l13 44h-123l21 75h122l78 274h75l-77 -274h38l77 274h76l-78 -274h128v0zM273 396h-38l-13 -44h38l13 44v0z" />
<glyph unicode="$" horiz-adv-x="483" d="M461 174q-2 -73 -54 -127.5t-130 -69.5v-88h-53v83q-16 1 -37.5 3.5t-44.5 6.5q-43 9 -78.5 26t-35.5 45q0 31 24.5 46t53.5 15t53 -15t27 -46q2 -18 16 -27t31 -9h1.5h1.5q19 1 35.5 13t16.5 35q0 12 -9.5 25.5t-24.5 26.5q-10 9 -21.5 18t-22.5 18q-21 15 -40.5 28 t-29.5 22q-49 44 -83.5 96.5t-34.5 108.5q0 78 58.5 136.5t143.5 70.5v82h53v-80q36 -2 62.5 -10t46.5 -17q3 -2 6 -3.5t6 -2.5q22 -12 31 -23.5t8 -22.5q-1 -19 -22.5 -32.5t-47.5 -15.5h-4h-4q-22 0 -40.5 10.5t-23.5 35.5q-3 17 -14.5 24t-25.5 7h-2.5h-2.5 q-19 -2 -35 -14t-16 -30q0 -10 8.5 -22.5t27.5 -25.5q38 -26 70.5 -47t57.5 -42q49 -38 73.5 -82.5t24.5 -118.5v-2.5v-2.5v-3v-3v0z" />
<glyph unicode="%" horiz-adv-x="770" d="M750 193q0 -82 -26.5 -123.5t-58.5 -58.5q-19 -9 -36.5 -12t-29.5 -3t-29.5 3t-36.5 12q-32 17 -58.5 58.5t-26.5 123.5q0 81 26.5 122.5t58.5 57.5q19 10 36.5 13t29.5 3t29.5 -3t36.5 -13q32 -16 58.5 -57.5t26.5 -122.5v0zM630 193q0 56 -9 79t-22 23t-22 -23t-9 -79 t9 -80.5t22 -24.5t22 24.5t9 80.5v0zM594 772l-292 -772h-125l292 772h125v0zM322 581q0 -82 -26.5 -123.5t-58.5 -58.5q-19 -9 -36.5 -12.5t-29.5 -3.5t-29.5 3.5t-36.5 12.5q-32 17 -58.5 58.5t-26.5 123.5q0 81 26.5 122.5t58.5 57.5q19 10 36.5 13t29.5 3t29.5 -3 t36.5 -13q32 -16 58.5 -57.5t26.5 -122.5v0zM202 581q0 56 -9 79t-22 23t-22 -23t-9 -79t9 -80.5t22 -24.5t22 24.5t9 80.5v0z" />
<glyph unicode="&#x26;" horiz-adv-x="820" d="M835 346q0 -26 -31 -45.5t-81 -19.5q-13 0 -23.5 3t-19.5 7q-4 2 -7.5 3.5t-6.5 2.5q-2 1 -4 1h-4q-5 0 -9.5 -1.5t-7.5 -4.5q-2 -1 -3.5 -2.5t-3.5 -2.5q-6 -6 -11.5 -12.5t-4.5 -14.5v-1.5v-1.5q8 -31 21 -61t27 -60q2 -4 4 -8.5t4 -8.5q5 -12 10 -23.5t10 -22.5 q17 7 34.5 13.5t34.5 12.5q8 2 15 3.5t13 1.5q12 0 20 -5t7 -16q0 -4 -1.5 -10.5t-6.5 -14.5q-25 -44 -76.5 -76t-108.5 -40q-7 -1 -14.5 -1.5t-14.5 -0.5q-43 0 -82 21t-64 67q-5 -2 -9.5 -4.5t-8.5 -5.5q-13 -8 -27.5 -17.5t-36.5 -21.5q-11 -6 -22 -11.5l-21 -10.5 q-15 -7 -30 -11t-32 -4q-7 0 -14 0.5t-13 1.5q-74 12 -135 76.5t-61 151.5q0 64 39.5 110.5t86.5 78.5l20 12t19 11q41 24 68.5 36t40.5 19q-3 7 -6.5 15t-6.5 17l-6 16l-6 16q-5 15 -8.5 29.5t-3.5 27.5q0 50 48 85t116 35t116 -35t48 -85q0 -31 -20.5 -57t-52.5 -43 l49 -108q32 19 55.5 30t39.5 18q13 5 27 8t30 3q43 0 72.5 -19.5t29.5 -45.5v0zM405 122q-1 12 -4 22.5t-7 21.5q-2 8 -5 15.5t-6 14.5q-2 6 -4.5 12t-4.5 12q-5 15 -10.5 30t-11.5 30q-5 15 -11.5 29.5t-13.5 29.5q-1 4 -4 4.5t-8 -0.5q-24 -2 -35.5 -21.5t-11.5 -48.5 q0 -13 2.5 -27.5t6.5 -29.5q14 -49 41.5 -84.5t58.5 -35.5h0.5h1.5h1.5h0.5q11 1 17.5 6.5t6.5 15.5v2.5v1.5v0zM539 563v0.5v1.5v1.5v0.5q0 16 -11 29.5t-24 20.5q-5 2 -9.5 3.5t-8.5 1.5h-0.5h-1.5h-1.5h-0.5q-7 0 -10.5 -3t-3.5 -10q0 -6 3 -15t9 -21l33 -70q4 4 7 8t6 7 q6 9 9 19.5t4 25.5v0z" />
<glyph unicode="'" horiz-adv-x="182" d="M174 671q0 -21 -9 -50.5t-19 -63.5q-7 -22 -13.5 -45t-10.5 -46q-2 -14 -3.5 -27.5t-1.5 -26.5h-40q0 16 -2 32t-5 33q-5 20 -10.5 40.5t-11.5 40.5q-12 34 -21 64t-9 49q0 22 23 37.5t55 15.5t55 -15.5t23 -37.5v0z" />
<glyph unicode="(" horiz-adv-x="273" d="M253 -172h-124q0 1 -15.5 36t-33.5 97q-19 62 -34.5 148.5t-15.5 190.5t15.5 190.5t34.5 149.5q18 62 33.5 97l15.5 35h124l-11.5 -38.5t-24.5 -103.5q-14 -65 -25.5 -150.5t-11.5 -179.5t11.5 -179.5t25.5 -149.5q13 -65 24.5 -103.5l11.5 -38.5v-1z" />
<glyph unicode=")" horiz-adv-x="273" d="M243 300q0 -104 -15.5 -190.5t-33.5 -148.5q-19 -62 -34.5 -97l-15.5 -35l-124 -1q0 1 11.5 39.5t25.5 103.5q13 64 24.5 149.5t11.5 179.5t-11.5 179.5t-24.5 150.5q-14 65 -25.5 103.5l-11.5 38.5h124l15.5 -35t34.5 -97q18 -63 33.5 -149.5t15.5 -190.5v0z" />
<glyph unicode="*" horiz-adv-x="304" d="M290 635q0 -16 -11.5 -28t-28.5 -12q-7 0 -13.5 4.5t-13.5 9.5q-6 5 -12.5 9.5t-12.5 4.5h-25l12 -21q3 -6 9.5 -9t13.5 -6q1 0 2 -0.5t2 -0.5q11 -4 20 -11t9 -25q0 -17 -11.5 -28.5t-28.5 -11.5q-14 0 -26 9.5t-12 24.5q0 4 0.5 8t1.5 8t1.5 8t0.5 8q0 7 -2.5 13 t-5.5 11l-2 4t-3 4q0 1 -0.5 2t-1.5 2q-1 -2 -2.5 -4.5t-2.5 -4.5q0 -1 -0.5 -1.5l-1.5 -1.5q-3 -6 -5.5 -11.5t-2.5 -12.5q0 -4 0.5 -8t1.5 -8q0 -5 0.5 -9t0.5 -8q0 -17 -12.5 -24.5t-27.5 -8.5h-1.5h-1.5q-14 0 -22.5 11t-10.5 24q-1 2 -1 5v5q0 14 9 20t20 10h1h1 q7 3 14 6.5t11 9.5l12 22h-25q-5 0 -9.5 -2.5t-9.5 -5.5q-2 -2 -3.5 -3t-3.5 -3q-6 -5 -13.5 -9.5t-18.5 -4.5t-20 9t-12 20q-1 3 -1.5 5.5t-0.5 5.5q0 16 12 28t28 12q6 0 9.5 -2t7.5 -5q2 -1 4 -3t5 -4q7 -5 18 -9.5t33 -4.5l-13 22q-3 6 -9.5 9t-13.5 6h-1.5t-1.5 1 q-11 4 -20 10.5t-9 24.5q0 17 12 28.5t28 11.5h1.5h1.5q13 -1 23.5 -10.5t10.5 -23.5q0 -4 -0.5 -8t-0.5 -8q-1 -4 -1.5 -8t-0.5 -8q0 -7 2 -12t5 -10q1 -2 2.5 -4.5t3.5 -4.5q0 -1 0.5 -2t1.5 -2q2 3 4 6.5t4 6.5l4 10t2 12q0 4 -0.5 8t-0.5 8q-1 4 -1.5 8t-0.5 8 q0 14 10.5 23.5t23.5 10.5h1.5h1.5q17 0 28.5 -11.5t11.5 -28.5t-9 -24t-20 -12q-1 0 -2.5 -0.5t-2.5 -0.5q-7 -3 -12.5 -6t-8.5 -8l-13 -22h26q6 0 11.5 3.5t10.5 7.5q1 1 2 1.5t2 1.5q6 5 12.5 9.5t13.5 4.5q16 0 28 -12t12 -28v0z" />
<glyph unicode="+" horiz-adv-x="400" d="M400 337h-165v-164h-76v164h-164v76h164v165h76v-165h165v-76v0z" />
<glyph unicode="," horiz-adv-x="237" d="M223 71q2 -4 2.5 -8t0.5 -9q0 -15 -7 -34t-20 -37q-15 -24 -35.5 -47t-41.5 -39q-10 -7 -19.5 -12.5t-18.5 -9.5q-5 -7 -15 -10.5t-21 -3.5q-4 0 -7.5 0.5t-7.5 1.5q-8 2 -13.5 7t-7.5 11q0 1 -0.5 2.5t-0.5 3.5q0 3 1 5.5t2 4.5q5 1 10.5 3t10.5 4q22 8 40 23.5t18 33.5 q0 7 -3 13.5t-11 13.5q-3 2 -6 4.5t-6 5.5q-2 2 -4 3t-5 3q-17 15 -32 30.5t-15 36.5q0 31 34 53t77 22q42 0 71.5 -22t29.5 -53v0z" />
<glyph unicode="-" horiz-adv-x="365" d="M320 238h-275v125h275v-125v0z" />
<glyph unicode="." horiz-adv-x="236" d="M225 45q0 -37 -31.5 -62.5t-75.5 -25.5t-75.5 25.5t-31.5 62.5t31.5 63t75.5 26t75.5 -26t31.5 -63v0z" />
<glyph unicode="/" d="M349 815l-330 -980h-78l330 980h78v0z" />
<glyph unicode="0" horiz-adv-x="716" d="M683 324q0 -154 -95 -263.5t-230 -109.5t-230 109.5t-95 263.5q0 155 95 265t230 110t230 -110t95 -265v0zM423 51q0 5 -3.5 8t-7.5 7q-4 3 -7.5 6.5t-3.5 7.5l-1 514q0 15 -16 25.5t-38 10.5t-37.5 -10.5t-15.5 -25.5q0 -2 1 -4.5t3 -5.5q2 -1 3.5 -3t3.5 -4 q4 -4 7.5 -7l3.5 -3l1 -517q0 -7 4.5 -12.5t11.5 -9.5q7 -6 17 -9t20 -3q22 0 38 11t16 24v0z" />
<glyph unicode="1" horiz-adv-x="509" d="M477 -2q0 -12 -13 -21t-30 -9l-270 -1q-19 1 -31 10t-12 22q0 10 12 19t31 9l9 6v497h-116q-18 0 -30.5 8.5t-12.5 21.5q0 7 7 12t16 9q6 3 11.5 4.5t8.5 2.5l292 124q8 3 15 4.5t13 1.5q21 0 33.5 -13t12.5 -33v-639l11 -6q17 0 30 -9t13 -19v-1z" />
<glyph unicode="2" horiz-adv-x="719" d="M685 139l-61 -120q-16 -31 -38 -42.5t-48 -11.5q-17 0 -34 3t-35 7q-5 1 -9 2t-9 2q-49 10 -93 15t-83 5q-51 0 -92.5 -8.5t-71.5 -24.5q-3 -2 -6.5 -2.5t-8.5 -0.5t-10.5 1t-11.5 2q-16 5 -29 15.5t-13 24.5q0 3 1 6l2 6q24 59 72 105.5t101 90.5q2 2 4.5 4t4.5 4 q69 58 125 120.5t56 149.5q0 65 -19.5 110t-54.5 45q-28 0 -43 -5.5t-26 -14.5q-10 -8 -14 -17t-5 -18q-1 -3 -1 -6v-6v-8t1 -8v-7v-7q0 -6 -1 -11t-4 -10q-15 -19 -34.5 -28.5t-39.5 -11.5h-4.5h-4.5q-38 0 -68.5 23.5t-29.5 57.5q0 10 3 20t9 20q22 36 78.5 57t120.5 30 q24 4 48.5 5.5t46.5 1.5q25 0 63 -5.5t79 -19.5q65 -23 119 -72.5t54 -138.5q0 -61 -43.5 -108t-100.5 -76q-22 -11 -47.5 -21.5t-51.5 -20.5q-47 -17 -89.5 -32t-62.5 -27q-4 -2 -8 -4.5t-7 -5.5q-10 -7 -14.5 -14.5t-4.5 -13.5q0 -7 8 -12t24 -5q8 0 17 1t20 4 q6 2 15.5 5.5t20.5 6.5q1 1 2.5 1.5t2.5 0.5q12 4 23.5 7.5t17.5 4.5h4t4 1h3h4q22 0 39 -5.5t32 -11.5l4 -2t4 -1q13 -6 27 -10t30 -4q9 0 19.5 1.5t22.5 5.5q8 3 12.5 6.5t8.5 7.5q0 1 1 1.5t1 1.5q6 6 13 10.5t23 4.5q17 0 29.5 -6.5t11.5 -14.5v-1.5v-0.5 q0 -1 -0.5 -1.5t-0.5 -1.5v0z" />
<glyph unicode="3" horiz-adv-x="714" d="M681 197q0 -96 -104 -160.5t-229 -78.5q-15 -2 -30 -2.5t-30 -0.5q-71 0 -133 21t-100 66q-12 15 -17.5 28t-5.5 25q1 28 26 44t55 18h3.5h2.5q29 0 52.5 -15.5t23.5 -50.5v-3.5v-3.5q1 -5 1.5 -9t2.5 -7q14 -25 37 -38.5t50 -13.5q62 0 90 51.5t28 113.5q0 50 -15.5 94 t-44.5 64q-2 1 -3.5 2t-3.5 3q-13 8 -28.5 15.5t-31.5 7.5h-3t-3 -1q-2 0 -3.5 -0.5t-3.5 -0.5q-4 -1 -9 -2t-11 -3q-9 -1 -19 -3t-20 -3q-6 -1 -12.5 -1.5t-12.5 -0.5q-21 0 -36.5 7.5t-15.5 29.5t28.5 28t65.5 6h12h12h6h6q9 -1 18 -1h18q14 0 26 1t21 3q34 10 53.5 40 t19.5 76q0 55 -27.5 80t-59.5 29q-4 1 -7.5 1h-7.5q-27 0 -48 -11.5t-21 -28.5v-1.5t1 -1.5v-1.5v-1.5q1 -4 1.5 -7.5t0.5 -7.5q0 -28 -24.5 -41t-54.5 -13h-2.5h-2.5q-31 1 -57 15.5t-26 41.5q0 12 5 21t13 18q8 7 18 15t22 17q31 24 79.5 35t104.5 11q13 0 26.5 -0.5 t27.5 -1.5q101 -10 186 -51.5t85 -107.5q0 -61 -41 -90t-109 -49q83 -28 134 -85.5t51 -128.5v0z" />
<glyph unicode="4" horiz-adv-x="716" d="M683 219v-1.5v-1.5q0 -11 -12.5 -18.5t-27.5 -8.5h-1.5h-1.5h-46v-157l11 -6q17 0 30 -8.5t13 -18.5q0 -13 -13 -22t-30 -9l-270 -1q-19 1 -31 10t-12 22q0 10 12 18.5t31 8.5l9 6v157h-268h-2.5h-2.5q-15 2 -27 11.5t-12 20.5q1 4 2 7.5t5 7.5l430 443q11 11 24 18.5 t26 11.5q5 1 10.5 1.5t10.5 0.5h2h2h1h2q19 -3 33 -14.5t14 -39.5v-409h46q18 0 29 -8t13 -18q1 -1 1 -1.5v-1.5v0zM344 248v186l-186 -186h186v0z" />
<glyph unicode="5" horiz-adv-x="667" d="M637 196q0 -101 -95 -158t-208 -74q-25 -4 -49.5 -5.5t-48.5 -1.5q-85 0 -145.5 23t-60.5 69q0 35 27 52.5t61 17.5h4.5t4.5 -1q29 -2 55.5 -17.5t39.5 -44.5q11 -25 32.5 -36t47.5 -11q6 0 12 0.5t13 1.5q40 8 74 38.5t34 76.5q0 65 -72 103t-158 42h-9.5h-9.5 q-20 0 -40 -1.5t-39 -6.5q-10 -2 -19 -3.5t-17 -1.5q-22 0 -31.5 10t-9.5 24q0 5 1 10l2 10q1 2 2 5t2 5l136 356q5 14 17.5 20t29.5 6q23 0 53.5 -8t64.5 -18q10 -3 19.5 -5.5t19.5 -5.5q24 -6 48 -10.5t46 -4.5q27 0 49.5 8.5t38.5 29.5q2 3 9 4.5t15 1.5h4h4 q13 -2 23.5 -7t9.5 -17v-4.5t-2 -5.5q-4 -7 -7 -14.5t-6 -15.5q-2 -7 -4.5 -13.5t-5.5 -13.5q-13 -34 -36 -62t-74 -28h-7.5t-8.5 1q-13 1 -35.5 6t-48.5 11l-20 4t-19 4q-21 4 -41 6.5t-37 2.5q-22 0 -38.5 -5.5t-21.5 -19.5l-34 -98q30 6 60 9t58 2q142 0 241.5 -66 t99.5 -176v0z" />
<glyph unicode="6" horiz-adv-x="691" d="M659 246q0 -112 -81 -197t-181 -87h-11.5h-10.5q-218 0 -281 116t-63 267q0 155 107 260.5t258 105.5q19 0 53 -2t72 -11q10 -3 20 -6.5t20 -7.5q21 -9 33 -22.5t14 -27.5v-3.5v-3.5q0 -7 -3 -14t-9 -12q-12 -11 -28.5 -16.5t-34.5 -4.5h-8t-7 1q-37 4 -67.5 24t-32.5 46 q-5 2 -11.5 3.5t-12.5 1.5q-3 1 -6 1h-6q-43 0 -70 -20t-32 -44q0 -3 -0.5 -5.5t-0.5 -4.5q1 -22 22.5 -38.5t70.5 -16.5q191 0 239 -84t48 -198v0zM412 65q0 5 -3.5 8t-6.5 6l-1 1h-1l-6 6t-3 7v331q0 17 -17 26t-38 9h-1.5h-1.5q-19 -1 -34.5 -9.5t-15.5 -25.5 q0 -2 1.5 -5t3.5 -6q1 -2 2.5 -3.5l3.5 -3.5q4 -4 7.5 -7l3.5 -3v-332q0 -15 16.5 -23.5t36.5 -9.5h2.5h2.5q19 0 34 8t15 26v0z" />
<glyph unicode="7" horiz-adv-x="670" d="M637 644q-61 -84 -106 -175.5t-44 -205.5q0 -113 20.5 -171.5t57.5 -86.5h16q18 0 30.5 -8t12.5 -20q0 -10 -10.5 -17.5t-22.5 -10.5q-2 0 -5 -0.5t-5 -0.5l-419 -1q-18 1 -31.5 9.5t-11.5 20.5q2 13 13.5 20.5t29.5 7.5h50q-1 52 2.5 93t11.5 80q3 18 7.5 35.5 t10.5 35.5q14 49 44 95t62 90q7 9 13.5 18t12.5 18q19 26 27 48t8 40q0 36 -26 54t-58 18h-2h-2q-28 -1 -53 -16.5t-33 -45.5q-8 -31 -39 -46t-66 -15q-39 0 -70.5 17.5t-31.5 51.5q0 43 48.5 66t106.5 33q20 3 39.5 5t37.5 3h6.5h7.5q26 0 54 -3.5t57 -8.5q3 0 5.5 -0.5 t5.5 -1.5q26 -4 52 -7t50 -3q23 0 44.5 4t39.5 14q2 2 5 2h6t7 -0.5t8 -1.5q14 -4 24.5 -13t2.5 -20v0z" />
<glyph unicode="8" horiz-adv-x="735" d="M699 150q-11 -95 -112.5 -142t-220.5 -48h-1.5h-1.5q-124 1 -227 52.5t-103 157.5q0 52 36.5 97t97.5 74q-49 47 -68 87t-19 74q0 29 10 54.5t23 49.5q29 52 97.5 77t145.5 26h3h2h1.5h1.5q100 -1 184 -41.5t84 -116.5q0 -37 -27.5 -69t-69.5 -54q12 -7 23.5 -14.5 t22.5 -15.5q64 -46 92.5 -95t28.5 -112q0 -3 -0.5 -6.5t-0.5 -6.5q0 -7 -0.5 -14t-1.5 -14v0zM526 78q8 13 12 25t3 23q0 51 -59.5 89.5t-131.5 62.5q-16 6 -32 10.5t-31 8.5q-80 -4 -120 -44.5t-40 -91.5q0 -66 66 -107t145 -46q5 -1 10.5 -1h10.5q50 0 95.5 17t71.5 54v0z M554 549q0 49 -50.5 77t-111.5 29h-3.5h-2.5q-40 0 -77.5 -13.5t-57.5 -42.5q-1 -2 -2 -3.5t-2 -3.5q-1 -3 -2 -6.5t-1 -7.5q0 -6 2 -12t5 -12q15 -27 55.5 -51t85.5 -36q15 -3 29 -5t28 -2q15 0 28.5 2.5t24.5 8.5q26 13 39 34t13 44v0z" />
<glyph unicode="9" horiz-adv-x="693" d="M662 330q0 -29 -8 -61.5t-23 -66.5q-41 -92 -131 -168t-214 -76q-36 1 -74.5 9t-79.5 26q-20 8 -31.5 18.5t-14.5 21.5q-1 3 -1.5 5.5t-0.5 5.5q0 20 22.5 36t56.5 15q15 0 31.5 -3.5t33.5 -11.5q16 -8 26 -18t16 -20q2 -5 3.5 -9.5t1.5 -8.5q11 -3 21 -4.5t20 -1.5 q40 0 65 20.5t29 45.5q1 3 1 5.5v4.5q-1 22 -21 38.5t-65 16.5q-10 0 -20.5 -1t-22.5 -3q-130 2 -190.5 77.5t-60.5 171.5q0 8 0.5 16.5t1.5 17.5q11 105 86 193.5t201 89.5q210 2 276 -112t66 -269v0zM409 249q0 2 -1.5 5t-3.5 6q-1 2 -2.5 3.5t-2.5 3.5q-4 4 -7.5 7 l-3.5 3v332q0 15 -17 24t-37 10h-1.5h-1.5q-19 0 -34.5 -8.5t-15.5 -26.5q0 -4 3.5 -7.5t7.5 -6.5v-1h1l6 -6t3 -7v-331q0 -17 17 -26t37 -9t36.5 9t16.5 26v0z" />
<glyph unicode=":" horiz-adv-x="236" d="M225 45q0 -37 -31.5 -62.5t-75.5 -25.5t-75.5 25.5t-31.5 62.5t31.5 63t75.5 26t75.5 -26t31.5 -63v0zM225 355q0 -37 -31.5 -63t-75.5 -26t-75.5 26t-31.5 63t31.5 63t75.5 26t75.5 -26t31.5 -63v0z" />
<glyph unicode=";" horiz-adv-x="237" d="M223 71q2 -4 2.5 -8t0.5 -9q0 -15 -7 -34t-20 -37q-15 -24 -35.5 -47t-41.5 -39q-10 -7 -19.5 -12.5t-18.5 -9.5q-5 -7 -15 -10.5t-21 -3.5q-4 0 -7.5 0.5t-7.5 1.5q-8 2 -13.5 7t-7.5 11q0 1 -0.5 2.5t-0.5 3.5q0 3 1 5.5t2 4.5q5 1 10.5 3t10.5 4q22 8 40 23.5t18 33.5 q0 7 -3 13.5t-11 13.5q-3 2 -6 4.5t-6 5.5q-2 2 -4 3t-5 3q-17 15 -32 30.5t-15 36.5q0 31 34 53t77 22q42 0 71.5 -22t29.5 -53v0zM225 355q0 -37 -31.5 -63t-75.5 -26t-75.5 26t-31.5 63t31.5 63t75.5 26t75.5 -26t31.5 -63v0z" />
<glyph unicode="&#x3c;" d="M270 204l-72 -70l-163 163l163 163l72 -70l-83 -93l83 -93v0z" />
<glyph unicode="=" horiz-adv-x="400" d="M400 257h-405v76h405v-76v0zM400 407h-405v76h405v-76v0z" />
<glyph unicode="&#x3e;" d="M265 297l-163 -163l-72 70l83 93l-83 93l72 70l163 -163v0z" />
<glyph unicode="?" horiz-adv-x="552" d="M329 39q0 -38 -32.5 -64.5t-79.5 -26.5q-46 0 -79 26.5t-33 64.5t33 65.5t79 27.5q47 0 79.5 -27.5t32.5 -65.5v0zM527 527q0 -65 -48.5 -107t-109.5 -80q-4 -2 -7.5 -4t-6.5 -4l-44 -28t-41 -29q-7 -6 -9.5 -16t-2.5 -21v-4.5v-4.5v-5.5v-4.5q0 -14 -4.5 -24t-22.5 -10 q-37 0 -52 14t-15 36q0 13 4.5 27.5t10.5 29.5q5 10 10 20.5t11 20.5q11 19 20.5 34.5t13.5 23.5q14 31 24 65.5t14 69.5q1 9 1.5 17.5t0.5 17.5q0 19 -2.5 37.5t-7.5 36.5q-6 19 -22 27t-34 8q-20 0 -36 -8.5t-15 -20.5v-3.5t1 -3.5q2 -4 5.5 -8.5t7.5 -9.5 q6 -7 10.5 -14.5t4.5 -16.5q0 -31 -24.5 -46.5t-53.5 -15.5q-31 1 -57 17t-26 45q0 1 0.5 2t0.5 2v1v2q8 68 69 100t138 32q11 0 21.5 -0.5t21.5 -2.5q94 -10 172.5 -60.5t78.5 -133.5v0z" />
<glyph unicode="@" horiz-adv-x="513" d="M450 386q0 -86 -34.5 -126.5t-76.5 -48.5q-6 -1 -11.5 -1.5t-11.5 -0.5h-4h-4q-45 3 -82 43t-37 134q0 65 17 101t37 53q14 11 26.5 15t19.5 4h6h3h0.5h1.5h2.5h2.5q-10 56 -25.5 82.5t-38.5 26.5h-4t-4 -1q-27 -5 -49 -62.5t-22 -218.5q0 -152 20 -210.5t44 -68.5 q3 -2 7 -2.5t8 -0.5q16 0 29 13t20 39l125 -28q-19 -54 -47.5 -82t-58.5 -39q-18 -7 -35.5 -9t-32.5 -2q-14 0 -29.5 1.5t-30.5 5.5q-57 17 -104 96t-47 287t47 287t104 96q15 5 30.5 6.5t29.5 1.5q16 0 33 -2.5t34 -9.5q53 -21 97.5 -101.5t44.5 -277.5v0zM335 384 q0 40 -5 58t-14 18t-14 -18t-5 -58t5 -58t14 -18t14 18t5 58v0z" />
<glyph unicode="A" horiz-adv-x="683" d="M740 -3q0 -10 -12.5 -18.5t-27.5 -9.5h-1.5h-1.5l-294 -1q0 1 -6.5 3.5t-14.5 5.5q-9 4 -15.5 9.5t-6.5 11.5q0 11 12.5 19.5t30.5 8.5h24l-21 89h-178l-23 -89h24q17 0 30 -8t13 -20q0 -11 -13 -20t-30 -9l-151 -1q-3 1 -8.5 2.5t-11.5 4.5q-9 4 -16 10t-7 13 q0 12 13 20t30 8h25l158 624h-37q-18 0 -30.5 8.5t-12.5 20.5t12.5 20t30.5 8h271q18 0 30.5 -8t12.5 -20l150 -653h9q18 0 30.5 -8.5t12.5 -19.5v-1zM393 168l-58 253q-1 6 -5.5 9t-9.5 3h-1.5t-1.5 -1q-4 -1 -7.5 -4t-4.5 -7l-64 -253h152v0z" />
<glyph unicode="B" horiz-adv-x="805" d="M562 401q103 -21 154 -81.5t53 -128.5v-2v-2q-1 -82 -70.5 -150t-203.5 -68l-416 -1q-20 1 -30.5 9t-11.5 18v1.5v1.5q0 10 11.5 19.5t33.5 9.5l8 7v614q-22 0 -34.5 9t-14.5 20q-1 1 -1 2.5v2.5q0 10 9.5 17.5t28.5 7.5h442q110 0 167 -48.5t57 -107.5q0 -51 -45 -94.5 t-137 -55.5v0zM461 64v261q0 19 -17.5 28t-38.5 9t-38 -9.5t-17 -27.5q0 -4 3 -7t7 -6l0.5 -0.5l0.5 -0.5q5 -3 8.5 -6.5t3.5 -8.5v-201q0 -4 -3.5 -8t-7.5 -7q-1 0 -1.5 -0.5l-0.5 -0.5q-4 -3 -7 -6t-3 -7q0 -19 17 -27.5t37 -8.5h1.5h1.5q20 1 37 10t17 24v0zM461 460v150 q0 19 -17.5 28t-38.5 9t-38 -9.5t-17 -27.5q0 -4 3 -7t7 -6h1l1 -1q4 -3 7.5 -6t3.5 -8v-91q0 -4 -3 -7t-7 -6l-0.5 -0.5l-0.5 -0.5q-5 -3 -8.5 -6.5t-3.5 -8.5q0 -19 17 -27.5t37 -8.5h1.5h1.5q20 1 37 10t17 24v0z" />
<glyph unicode="C" horiz-adv-x="612" d="M582 563q1 -2 1.5 -4.5t0.5 -5.5q-1 -10 -10 -19t-24 -12q-4 -1 -8 -1.5t-8 -0.5q-30 0 -44 20.5t-25 45.5q0 2 -0.5 3t-1.5 2q-11 27 -27.5 49.5t-53.5 22.5q-25 0 -41.5 -10.5t-16.5 -27.5v-576q0 -20 17.5 -29t38.5 -10h1.5h1.5q22 0 40 9t18 25v4v4v15t1 16 q2 21 14.5 38t45.5 17q26 0 45 -20t19 -49q0 -41 -49 -72t-107 -43q-14 -2 -27 -3.5t-26 -1.5q-136 0 -232.5 114t-96.5 274q0 159 93 275t225 116h3h3h2.5h2.5q26 -1 38 -2t19 -1h2.5h2.5q6 1 15 3t30 7q2 0 3.5 0.5t3.5 0.5q1 1 3 1h3q27 0 46.5 -28t31.5 -62 q10 -26 16.5 -50t10.5 -34v0z" />
<glyph unicode="D" horiz-adv-x="781" d="M745 336q0 -151 -100.5 -259.5t-240.5 -108.5l-324 -1q-19 1 -31 10t-12 22q0 9 9.5 17.5t25.5 10.5l9 5v608l-9 8q-16 2 -26.5 10t-10.5 20t12.5 20t30.5 8h326q140 0 240.5 -108.5t100.5 -261.5v0zM441 64v545q0 16 -16 26.5t-39 10.5q-22 0 -39 -10.5t-17 -26.5 q0 -4 3.5 -7.5t8.5 -6.5q4 -3 7.5 -6.5t3.5 -7.5v-486q0 -4 -3.5 -8t-7.5 -7q-5 -3 -8.5 -6.5t-3.5 -8.5q0 -14 17 -25t39 -11q11 0 21.5 3t17.5 9q7 4 11.5 10t4.5 13v0z" />
<glyph unicode="E" horiz-adv-x="624" d="M594 80l-19 -83q-1 -2 -1.5 -5.5t-1.5 -6.5q-4 -11 -13 -20t-26 -9q-9 0 -17 1t-15 3q-2 1 -4 1.5t-4 0.5q-10 2 -20.5 4t-25.5 2l-376 -1q0 1 -6.5 3.5t-14.5 6.5q-9 4 -15.5 9.5t-6.5 11.5q0 11 12.5 19.5t30.5 8.5l15 5v611l-15 6q-1 0 -7.5 2t-13.5 6q-8 4 -15 9.5 t-7 12.5q0 12 12.5 20t30.5 8h332q5 0 11 0.5t12 1.5q3 1 6.5 1.5t6.5 1.5q6 1 11 2t7 2q1 0 2.5 0.5t2.5 0.5h2.5h2.5q4 0 8 -0.5t9 -1.5q12 -4 23.5 -12t16.5 -19l45 -87q2 -3 3 -6t0 -6q0 -8 -6.5 -15.5t-17.5 -10.5q-2 -1 -4.5 -1.5t-4.5 -0.5q-3 -1 -5.5 -1h-4.5 q-13 0 -24 4.5t-15 11.5l-48 77h-72l-9 -8v-228h77q-1 2 -1 3.5v2.5q0 2 0.5 3.5t0.5 3.5q2 6 7.5 11.5t11.5 8.5q4 2 7.5 2.5t7.5 0.5h4t4 -1q8 -1 15 -3.5t12 -6.5q4 -2 6 -3.5t3 -3.5l66 -105q1 -1 1.5 -2.5t0.5 -2.5q1 -1 1 -2.5v-2.5q0 -8 -6.5 -15.5t-19.5 -11.5 q-2 -1 -4.5 -1.5t-4.5 -0.5q-3 -1 -5.5 -1h-4.5q-13 0 -23.5 5t-15.5 12l-23 34q-6 12 -20.5 15t-43.5 3h-53v-328h75q17 0 27 6t15 14q1 1 1.5 2t1.5 2l34 54q5 8 16 12t24 4h9.5t8.5 -2q12 -4 17 -12t5 -17v-4.5t-1 -4.5v0z" />
<glyph unicode="F" horiz-adv-x="602" d="M572 325q2 -2 2.5 -5t0.5 -6v-2t-1 -2q-1 -7 -7.5 -13t-17.5 -9q-4 -1 -8.5 -2t-9.5 -1q-13 0 -24 5t-16 12l-22 33q-6 8 -15 12t-19 5q-7 1 -13 1.5t-11 0.5h-61v-328h14q18 0 30.5 -8.5t12.5 -19.5q0 -13 -12.5 -21.5t-30.5 -8.5l-289 -1q-19 1 -33.5 5t-14.5 27 q0 10 12 18.5t31 8.5h5v622h-5q-2 0 -8 2t-13 6q-8 4 -15 10t-7 12q0 12 12 20.5t31 8.5h323q4 0 10.5 0.5t12.5 1.5q3 1 6.5 1.5t5.5 1.5q7 1 11.5 2t6.5 2q1 0 2.5 0.5t2.5 0.5h2.5h2.5q4 0 7.5 -0.5t7.5 -1.5q13 -4 25.5 -12.5t17.5 -19.5l45 -87q2 -3 2.5 -6t0.5 -6v-2 t-1 -2q-1 -7 -7.5 -13t-16.5 -9q-2 -1 -4.5 -1.5t-4.5 -0.5h-5.5h-4.5q-13 0 -24 4.5t-15 11.5l-48 76h-81v-235h77v1.5v1.5q-1 1 -1 1.5v1.5q0 10 7.5 16t17.5 10q3 2 6 2.5t6 1.5h3h3q12 0 22.5 -5.5t14.5 -13.5l66 -105v0z" />
<glyph unicode="G" horiz-adv-x="778" d="M700 411q20 0 30.5 -8t11.5 -18v-1.5v-1.5q0 -11 -11.5 -20t-35.5 -9v-314q2 -4 5.5 -10t6.5 -13q2 -4 4.5 -8.5t4.5 -7.5q2 -6 3.5 -12t1.5 -11q0 -8 -5 -14.5t-19 -10.5q-4 -2 -8.5 -2h-9.5q-17 0 -28.5 7.5t-21.5 16.5q-1 0 -1.5 1t-1.5 1q-10 8 -20.5 14.5t-24.5 6.5 q-7 0 -14.5 -1.5t-16.5 -5.5q-46 -25 -89 -36t-82 -11q-118 1 -199.5 81.5t-117.5 178.5q-14 35 -20.5 69.5t-6.5 65.5v11.5t1 10.5q8 138 111 253t244 115q28 0 44 -1t26 -3q7 -1 11.5 -2t9.5 -1q2 -1 4.5 -1h5.5q10 0 25 2.5t44 9.5q3 1 6 1h5q14 0 26 -6.5t15 -16.5 l54 -163q1 -1 1 -3v-4q0 -10 -9 -17.5t-24 -9.5q-3 -1 -6 -1h-6q-28 0 -49.5 21t-42.5 48q-3 4 -5.5 8t-5.5 7q-24 32 -51 58.5t-65 26.5q-4 0 -9 -0.5t-10 -1.5q-16 -3 -28 -15t-19 -26q-4 -8 -6 -15.5t-2 -13.5v-562q0 -16 17.5 -24t39.5 -8h1.5h1.5q22 1 40 10t18 27v2.5 t-1 2.5q-1 5 -5 9.5t-8 9.5l-9.5 9.5t-4.5 7.5v262q-17 3 -25 11t-8 17q1 11 12 19.5t31 8.5h270v0z" />
<glyph unicode="H" horiz-adv-x="817" d="M780 -1q0 -12 -13 -20.5t-30 -8.5l-270 -1q-19 1 -31 9.5t-12 21.5q0 10 12 19t31 9l5 6v338h-130v-339l9 -6q17 0 30 -9t13 -19q0 -13 -13 -21.5t-30 -8.5l-270 -1q-19 1 -31 9.5t-12 21.5q0 10 12 19t31 9l7 6v610l-8 6q-18 0 -30.5 8t-12.5 21q0 12 12.5 20.5 t30.5 8.5h270q18 0 30.5 -8.5t12.5 -20.5q0 -13 -12.5 -21t-30.5 -8l-8 -6v-221h130v222l-8 5q-16 0 -29 8t-13 21t13 21t29 8h270q19 0 31 -8t12 -21t-12 -21t-31 -8l-7 -5v-610l10 -6q17 0 30 -9t13 -19v-1z" />
<glyph unicode="I" horiz-adv-x="392" d="M375 -1q0 -12 -13 -21t-30 -9l-270 -1q-19 1 -31 10t-12 22q0 10 12 19t31 9l9 5v610l-10 6q-18 0 -30.5 8.5t-12.5 21.5q0 12 12.5 20t30.5 8h269q18 0 30.5 -8t12.5 -20q0 -13 -12.5 -21.5t-30.5 -8.5l-10 -6v-610l12 -5q17 0 30 -9t13 -19v-1z" />
<glyph unicode="J" horiz-adv-x="378" d="M362 679q0 -13 -12.5 -21.5t-30.5 -8.5l-10 -6v-518q0 -70 -13.5 -127t-56.5 -85q-10 -6 -21.5 -13.5t-25.5 -14.5q-24 -13 -51.5 -25.5t-56.5 -19.5q-13 -3 -25.5 -4.5t-24.5 -1.5q-40 0 -57.5 12t-17.5 29q0 2 0.5 4t0.5 3q4 19 24 34.5t47 15.5q12 0 24.5 -4.5 t25.5 -13.5q29 16 40 28.5t10 23.5q0 7 -4 13.5t-10 12.5q-5 5 -10.5 10t-11.5 10q-13 12 -24.5 25.5t-11.5 31.5v574l-10 6q-18 0 -30.5 8.5t-12.5 21.5q0 12 12.5 20t30.5 8h270q18 0 30.5 -8t12.5 -20v0z" />
<glyph unicode="K" horiz-adv-x="817" d="M780 -2q0 -12 -13 -21t-30 -9l-270 -1q-19 1 -31 10t-12 22q0 10 12 18.5t31 8.5l10 7q2 20 3 39t1 36q0 35 -3.5 66t-10.5 59q-6 26 -14 50.5t-17 48.5q-6 15 -13 29.5t-15 29.5q-9 17 -27 22.5t-41 6.5v-388l11 -6q17 0 30 -8.5t13 -18.5q0 -13 -13 -22t-30 -9l-270 -1 q-19 1 -31 10t-12 22q0 10 12 18.5t31 8.5l9 6v610l-10 6q-18 0 -30.5 8.5t-12.5 21.5q0 12 12.5 20t30.5 8h270q21 0 31.5 -9.5t10.5 -20.5q0 -10 -10.5 -19t-31.5 -9l-10 -6v-94q0 -8 -1.5 -12.5t-3.5 -8.5q0 -1 -0.5 -1.5t-0.5 -1.5q-2 -3 -3 -6t-1 -8q0 -14 13 -21 t29 -7q2 0 4 0.5t4 0.5t4 0.5t4 0.5q63 13 82.5 47t30.5 73q1 1 1 2v2q9 30 21.5 57.5t45.5 46.5q20 11 40 16.5t38 5.5q41 -1 70.5 -20.5t36.5 -43.5q0 -3 0.5 -6t0.5 -6q0 -19 -22.5 -33.5t-72.5 -14.5h-4.5h-4.5q-4 0 -10 1.5t-12 3.5h-2t-2 1q-6 1 -11.5 2t-9.5 1 q-16 0 -22.5 -8.5t-6.5 -22.5q0 -16 7 -36.5t16 -41.5q4 -9 8.5 -17.5t8.5 -17.5q14 -27 26.5 -48t13.5 -25q3 -10 6.5 -21t6.5 -21q22 -70 40.5 -148t18.5 -179l10 -7q17 0 30 -8.5t13 -18.5v-1z" />
<glyph unicode="L" horiz-adv-x="623" d="M593 82l-18 -83q-1 -2 -2 -5.5t-2 -6.5q-4 -11 -12.5 -20t-25.5 -9q-9 0 -17 1t-16 3q-2 0 -3.5 0.5t-3.5 0.5q-10 3 -21 4.5t-25 1.5l-376 -1q0 1 -6.5 3.5t-14.5 6.5q-9 4 -15.5 10t-6.5 12q0 10 12 19t31 9l15 5v611l-15 5q-2 0 -8 2t-13 6q-8 4 -15 10t-7 13 q0 11 12 19.5t31 8.5l309 -1q18 0 30.5 -8t12.5 -20q0 -13 -12.5 -21.5t-30.5 -8.5l-16 -6v-615h70q13 0 22.5 4.5t15.5 9.5q3 2 5 4.5t3 4.5l35 54q4 8 15.5 12t24.5 4h9.5t8.5 -2q9 -3 14 -8.5t7 -11.5q0 -2 0.5 -3.5t0.5 -3.5q0 -3 -0.5 -5.5t-1.5 -4.5v0z" />
<glyph unicode="M" horiz-adv-x="789" d="M780 -1q0 -12 -13 -21t-30 -9l-296 -1q-19 1 -31 10t-12 22q0 10 12 18.5t31 8.5l8 6v419l-129 -119q-5 -5 -11.5 -7.5t-14.5 -2.5t-17 3t-18 10l-84 64v-366l12 -7q17 0 30 -8.5t13 -18.5q0 -13 -13 -22t-30 -9l-128 -1q-19 1 -31 10t-12 22q0 10 12 18.5t31 8.5l7 7 v610l-10 5q-17 0 -30 8.5t-13 21.5q0 12 13 20t30 8h67q14 0 27.5 -8.5t24.5 -19.5l222 -177l192 165q19 15 29.5 23.5t19.5 12.5q7 2 13.5 3t16.5 1h68q18 0 30 -8t12 -20q0 -13 -12 -21.5t-30 -8.5l-10 -6v-610l11 -6q17 0 30 -8.5t13 -18.5v-1z" />
<glyph unicode="N" horiz-adv-x="627" d="M602 664q4 -10 5 -23.5t1 -28.5q0 -23 -2.5 -49.5t-6.5 -53.5q-1 -8 -2 -15.5t-2 -14.5q-6 -35 -10 -66t-4 -52v-327l10 -6q21 0 31.5 -9.5t10.5 -19.5q0 -11 -10.5 -20.5t-31.5 -9.5q-25 0 -41 2.5t-31 11.5l-10 8t-10 9l-294 292q-2 2 -4.5 3t-4.5 1t-3.5 -1t-1.5 -3 v-259l11 -5q17 0 30 -9t13 -19q0 -13 -13 -22t-30 -9l-128 -1q-19 1 -31 10t-12 22q0 10 12 19t31 9l9 5v610l-10 6q-22 0 -32.5 9.5t-10.5 20.5q1 11 11.5 19.5t31.5 8.5h13.5t13.5 1h11.5h11.5q23 0 41.5 -5t35.5 -24l197 -213q4 -4 6.5 -9l4.5 -9q3 -9 4 -17.5t1 -13.5 q0 -18 9 -26.5t22 -7.5q3 0 5.5 0.5t5.5 1.5q11 3 21 12t14 22q3 11 4 20.5t1 18.5q0 27 -11 47.5t-27 39.5q-7 8 -14.5 16.5t-15.5 17.5q-10 12 -20 25t-18 28q-4 8 -6.5 16t-2.5 15q0 32 34 50.5t75 18.5h2h2q35 -1 66 -17.5t43 -50.5v0z" />
<glyph unicode="O" horiz-adv-x="705" d="M711 339q0 -160 -99 -274t-239 -114q-141 0 -240 114t-99 274q0 162 99 276t240 114q140 0 239 -114t99 -276v0zM440 55q0 5 -3.5 8.5t-7.5 6.5q-5 3 -8.5 7t-3.5 8v535q0 19 -17.5 28t-39.5 9h-1.5h-1.5q-19 -1 -35.5 -10t-16.5 -27q0 -2 1 -4.5t3 -4.5q1 -2 3.5 -4.5 l4.5 -4.5q5 -4 8.5 -7l3.5 -3v-538q0 -16 17 -24.5t37 -9.5h1.5h1.5q21 0 37.5 8.5t16.5 26.5v0z" />
<glyph unicode="P" horiz-adv-x="708" d="M721 460q0 -101 -80 -174t-192 -73h-112v-179l11 -6q17 0 30 -9t13 -19q0 -13 -13 -22t-30 -9l-270 -1q-19 1 -30.5 10t-11.5 22q0 10 11.5 19t30.5 9l9 6v609l-10 6q-18 0 -30.5 8.5t-12.5 21.5q0 12 12.5 21t30.5 9h373q112 0 191.5 -73t79.5 -176v0zM430 311v293 q0 19 -17.5 28t-38.5 9t-38 -9.5t-17 -27.5q0 -4 3 -7t7 -6h1l1 -1q4 -3 7.5 -6t3.5 -8v-233q0 -4 -3.5 -8t-7.5 -7q-5 -3 -8.5 -6.5t-3.5 -8.5q0 -19 17 -27.5t37 -8.5h1.5h1.5q20 1 37 10t17 24v0z" />
<glyph unicode="Q" horiz-adv-x="746" d="M712 340q0 -160 -99 -274.5t-239 -114.5q-11 0 -22 1t-22 3q-1 -2 -2.5 -3.5l-2.5 -2.5t-1.5 -2t-0.5 -2q-4 -4 -7.5 -8t-8.5 -7q8 1 15.5 1.5t15.5 0.5h5.5h5.5q28 -2 55.5 -8.5t51.5 -14.5q3 -2 6.5 -3t6.5 -2q2 -1 4 -1.5t3 -1.5q21 -6 37.5 -12t27.5 -6q5 0 9 2t5 6 q-1 2 -2 3.5t-2 3.5t-1 3.5v3.5q0 13 17.5 23.5t39.5 10.5q26 0 39.5 -12t13.5 -27q0 -8 -4.5 -16t-13.5 -14q-30 -18 -83 -21t-111 -3h-3h-3h-5.5h-5.5h-14.5h-15.5h-1.5h-1.5q-55 0 -105.5 -2t-83.5 -16q-7 -3 -14.5 -4.5t-14.5 -1.5q-20 0 -34.5 9t-14.5 21q0 5 3.5 10 t10.5 10q35 24 62.5 48.5t52.5 53.5q-100 40 -163 140t-63 226q0 161 99 275.5t241 114.5q140 0 239 -114.5t99 -275.5v0zM440 56q0 5 -3.5 8t-7.5 7q-5 3 -8.5 6.5t-3.5 7.5v535q0 16 -16 27t-39 11t-39.5 -11t-16.5 -27q0 -2 1.5 -5t3.5 -6l3.5 -3.5l3.5 -3.5q4 -4 7.5 -7 l3.5 -3v-537q0 -8 5 -14t13 -10q8 -5 17 -8.5t20 -3.5q23 0 39.5 11t16.5 26v0z" />
<glyph unicode="R" horiz-adv-x="782" d="M747 -1q0 -8 -8 -15t-18 -11q-5 -2 -9 -3t-8 -1h-97h-96q-39 0 -54 29.5t-18 65.5q-1 11 -1.5 22t-0.5 21v12t1 11v9.5v8.5q0 42 -26.5 54t-73.5 11v-179l11 -6q17 0 30 -9t13 -19q0 -13 -13 -22t-30 -9l-269 -1q-19 1 -31 10t-12 22q0 10 12 19t31 9l8 6v609l-8 4t-9 3 q-1 1 -3 1.5t-4 0.5q-11 4 -19.5 8.5t-8.5 18.5q0 12 12 20.5t30 8.5h372q123 0 193.5 -75t76.5 -165q1 -5 1 -9.5v-9.5q0 -73 -46.5 -135t-146.5 -80v-7l43 -9q6 -1 12.5 -3t13.5 -5q34 -12 63 -34.5t34 -46.5q1 -2 1 -4v-4t-0.5 -7t-0.5 -12q0 -6 -0.5 -12.5t-0.5 -13.5 v-2v-2q0 -16 2 -29t9 -15q2 -1 3.5 -1.5t3.5 -0.5q14 -5 25 -11t11 -15v-1zM431 311v292q0 19 -17.5 28t-38.5 9t-38 -9.5t-17 -27.5q0 -4 3 -7t7 -6l0.5 -0.5l0.5 -0.5q5 -3 8.5 -6.5t3.5 -8.5v-231q0 -4 -3.5 -8t-7.5 -7q-5 -3 -8.5 -6.5t-3.5 -8.5q0 -19 17 -27.5 t37 -8.5h1.5h1.5q20 1 37 10t17 24v0z" />
<glyph unicode="S" horiz-adv-x="519" d="M511 150q-17 -93 -95 -148t-179 -54h-13.5t-13.5 1q-4 0 -8.5 0.5t-9.5 1.5q-50 5 -96 20t-67 52q-2 3 -3 11.5t-1 18.5q0 8 0.5 15t1.5 11q5 17 30.5 28t54.5 11h4.5h4.5q38 -2 59 -22t31 -43q3 -7 5 -14t4 -13q3 -13 10.5 -18.5t17.5 -5.5q4 0 8.5 1t8.5 2 q17 7 31.5 24t14.5 37q-1 6 -2.5 11.5t-3.5 10.5q-13 32 -46 63t-71 61q-14 12 -29 23.5t-28 22.5q-44 36 -70.5 95.5t-29.5 122.5v6.5v6.5q0 92 60.5 166t200.5 74q16 0 34.5 -2.5t37.5 -7.5q49 -13 90 -39t41 -57q0 -24 -26 -39t-57 -16h-2.5h-2.5q-21 0 -39 7t-28 23 q-3 5 -5 10.5t-3 10.5q0 2 -0.5 3.5t-1.5 3.5q-1 7 -3 13.5t-6 11.5q-7 8 -18.5 12t-24.5 4h-1.5h-1.5q-28 -1 -47.5 -18.5t2.5 -39.5l4 -4t5 -4q38 -37 75 -70.5t70 -65.5q57 -58 94.5 -118.5t37.5 -139.5q0 -13 -1 -27.5t-4 -29.5v0z" />
<glyph unicode="T" horiz-adv-x="626" d="M597 610q0 -1 0.5 -2t0.5 -2v-2v-2q0 -9 -8.5 -16t-25.5 -9q-1 -1 -3.5 -1h-4.5t-5 0.5t-5 0.5q-5 2 -10.5 4t-9.5 5q-7 3 -11 6l-4 3l-16 54h-50l-8 -9v-606l11 -6q17 0 30 -9t13 -19q0 -13 -13 -21.5t-30 -8.5l-270 -1q-19 1 -31 9.5t-12 21.5q0 10 12 19t31 9l9 6v604 l-9 11h-45l-18 -54q-3 -9 -14 -14.5t-25 -4.5h-3.5h-3.5t-3.5 0.5t-3.5 0.5q-18 3 -27 12t-5 21l32 100q3 10 15 15.5t25 5.5h3.5t3.5 -1q1 0 3 -0.5t3 -0.5q9 -1 16 -4t13 -6q1 0 1.5 -0.5t1.5 -0.5q7 -4 15.5 -7t20.5 -3h270q11 0 18 3t13 7l0.5 0.5t1.5 0.5q5 3 11 6 t14 4q3 1 6.5 1.5t7.5 0.5h2h1q12 -2 22.5 -7t13.5 -14l33 -100v0z" />
<glyph unicode="U" horiz-adv-x="662" d="M670 679q0 -13 -12.5 -21.5t-30.5 -8.5l-10 -6v-553q0 -58 -78 -99t-187 -41q-110 0 -188.5 41t-78.5 99v553l-10 6q-18 0 -30.5 8.5t-12.5 21.5q0 12 12.5 20.5t30.5 8.5h270q17 0 29.5 -8.5t12.5 -20.5q0 -13 -12.5 -21.5t-29.5 -8.5l-11 -6v-525q0 -24 27 -41t64 -17 t64.5 17t27.5 40v526l-10 6q-18 0 -30.5 8.5t-12.5 21.5q0 12 12.5 20.5t30.5 8.5h120q18 0 30.5 -8.5t12.5 -20.5v0z" />
<glyph unicode="V" horiz-adv-x="684" d="M648 664q3 -7 4.5 -13.5t1.5 -13.5q0 -3 -0.5 -6t-0.5 -6q-2 -11 -5.5 -22.5t-7.5 -21.5q-3 -8 -6 -15t-5 -12l-230 -585h-128l-187 675l-10 6q-18 0 -30.5 8.5t-12.5 21.5q0 12 12.5 20t30.5 8h270q18 0 30.5 -8t12.5 -20q0 -13 -12.5 -21.5t-30.5 -8.5l-10 -6l55 -254 q2 -6 2.5 -10.5t-0.5 -9.5q0 -15 -6 -22.5t-15 -12.5q-2 -2 -4.5 -3.5t-4.5 -2.5q-5 -4 -10.5 -9t-9.5 -13q-10 -19 7 -30t39 -11h2h2q15 1 28 7t17 18l68 209q2 4 2 7.5v7.5q0 15 -9 30t-20 28q-8 11 -15 20t-11 17q-5 11 -7 21t-2 19q0 37 31 57.5t69 19.5h4.5h5.5 q29 -2 55.5 -17.5t40.5 -45.5v0z" />
<glyph unicode="W" horiz-adv-x="1038" d="M1017 664q3 -7 4.5 -14t1.5 -15v-3.5v-3.5q-2 -13 -6 -26.5t-9 -24.5q-3 -7 -5.5 -13t-4.5 -11l-230 -584h-128l-92 332l-131 -332h-129l-186 674l-10 7q-19 0 -31 8t-12 21t12 21t31 8h269q15 0 23.5 -7t11.5 -16q1 -1 1 -2.5v-3.5t-0.5 -4t-1.5 -5q-3 -7 -12 -13.5 t-22 -6.5l-10 -7l58 -202q6 -9 8 -16t2 -12q0 -9 -4.5 -14.5t-11.5 -10.5q-2 -2 -4.5 -3.5t-4.5 -3.5q-5 -3 -9.5 -7.5t-8.5 -10.5q-1 -1 -1.5 -2.5t-0.5 -2.5v-2.5v-2.5q0 -10 8.5 -19t24.5 -11q3 -1 6 -1h5q31 0 47 22t24 48q6 17 9 32.5t6 25.5q0 1 0.5 1.5t0.5 1.5 l-52 190l-10 6q-13 0 -21.5 6.5t-11.5 13.5q-1 3 -1.5 5.5t-0.5 4.5q0 12 8.5 20.5t26.5 8.5h270q18 0 30.5 -8.5t12.5 -20.5q0 -13 -12.5 -21.5t-30.5 -8.5l-10 -6l67 -203q2 -6 3 -10.5t1 -9.5q0 -11 -7 -17.5t-16 -12.5q-1 -1 -2.5 -1.5t-3.5 -1.5q-6 -4 -12.5 -9 t-10.5 -13q-1 -1 -1.5 -2.5t-0.5 -2.5q-1 -1 -1 -2.5v-2.5v-1.5v-1.5q2 -10 11 -18.5t23 -10.5h2h3q1 -1 2.5 -1h2.5q33 1 53 29.5t32 63.5q9 26 15 49t10 35q2 4 2.5 8t0.5 8q0 15 -9 30t-20 28q-8 10 -15.5 19.5t-11.5 17.5q-4 11 -6.5 20.5t-2.5 18.5q0 37 31 57.5 t70 20.5h2.5h2.5q30 -1 58 -16t42 -47v0z" />
<glyph unicode="X" horiz-adv-x="732" d="M713 -1q0 -12 -13 -20.5t-30 -8.5l-171 -1q-37 1 -55 17t-32 42q-1 1 -1.5 2.5t-1.5 3.5l-145 272q-6 -5 -12 -11t-12 -13q-20 -20 -37 -43t-24 -47q-2 -5 -3 -11t-1 -12q1 -8 3 -16t6 -16q10 -17 23 -33t27 -32q10 -12 20 -23.5t19 -23.5q9 -13 13.5 -23.5t4.5 -20.5 q0 -30 -31.5 -47.5t-72.5 -17.5q-7 0 -13.5 0.5t-13.5 1.5q-37 6 -70 28.5t-47 63.5q-4 15 -6.5 29.5t-2.5 27.5q0 72 49 135.5t107 123.5q7 7 14 14.5t14 14.5l6.5 6.5t6.5 7.5l-144 274l-10 6q-18 0 -30.5 8.5t-12.5 21.5q0 12 12.5 20.5t30.5 8.5h197q17 0 24.5 -2.5 t12.5 -11.5q5 -7 10.5 -19.5t15.5 -31.5l122 -232q12 12 24 22.5t22 20.5q15 15 24.5 31.5t9.5 36.5q0 5 -0.5 10.5t-2.5 10.5q-4 17 -10 25.5t-14 15.5q-7 6 -15.5 13.5t-18.5 21.5q-7 11 -11 21t-4 19q1 30 31.5 48t68.5 18h2h2q34 -1 63.5 -18.5t41.5 -53.5q1 -3 2 -6.5 t1 -7.5q1 -4 1 -7.5v-6.5q0 -23 -9.5 -47.5t-25.5 -49.5t-36 -50t-41 -48q-20 -22 -39 -42t-34 -37l167 -317l12 -6q17 0 30 -9t13 -19v-1z" />
<glyph unicode="Y" horiz-adv-x="658" d="M625 659q2 -5 2.5 -10.5t0.5 -11.5q0 -16 -6.5 -33.5t-16.5 -34.5q-6 -11 -13 -21.5t-14 -21.5q-11 -16 -21.5 -31.5t-17.5 -29.5l-41 -81v-350l11 -6q17 0 30 -9t13 -19q0 -13 -13 -21.5t-30 -8.5l-270 -1q-19 1 -31 9.5t-12 21.5q0 10 12 19t31 9l9 6v288l-165 321 l-10 6q-18 0 -30.5 8.5t-12.5 21.5q0 12 12.5 20.5t30.5 8.5h270q17 0 29.5 -8.5t12.5 -20.5q0 -13 -12.5 -21.5t-29.5 -8.5l-11 -6l113 -219l45 82q2 5 3 10t1 11v3.5v2.5q-1 5 -2 9.5t-3 7.5q-8 14 -14 21.5t-11 14.5q-1 0 -1.5 1t-1.5 2q-6 6 -13 14.5t-17 22.5 q-7 9 -10.5 18.5t-3.5 19.5q0 21 17 38t54 24q10 2 19 2.5t17 0.5q38 0 64 -17.5t37 -52.5v0z" />
<glyph unicode="Z" horiz-adv-x="637" d="M581 30l-4 -4l-4 -4q-15 -12 -40.5 -22.5t-53.5 -18.5q-19 -5 -36.5 -8t-32.5 -3l-329 -1q-28 1 -38 9.5t-9 19.5v3.5t1 3.5q1 5 2.5 10t3.5 9q1 3 2 5.5t2 4.5l254 607l-5 9h-33q-26 0 -40 -9t-22 -20q-3 -5 -6 -9.5t-5 -8.5l-1.5 -1.5l-1.5 -1.5q-13 -14 -31 -24.5 t-37 -16.5q-8 -2 -16 -3t-15 -1t-14 1.5t-13 3.5q-15 6 -22.5 17.5t-7.5 25.5q0 8 2.5 16.5t7.5 17.5q3 4 6 8.5t7 8.5t10 9t14 10q22 13 57 24t80 11h303q20 0 32 -8.5t11 -25.5q0 -7 -1.5 -14.5t-5.5 -15.5l-253 -606l5 -9h59q26 0 37 11.5t18 25.5q1 1 1.5 2t0.5 2 l5.5 11t6.5 9q15 17 35 28.5t41 17.5q9 2 18 3.5t18 1.5q8 0 16.5 -1.5t15.5 -4.5q16 -7 24 -19t8 -27q0 -14 -6.5 -29t-20.5 -30v0z" />
<glyph unicode="[" horiz-adv-x="330" d="M295 -165h-250v937h250v-125h-100v-687h100v-125v0z" />
<glyph unicode="\" d="M369 -165h-78l-330 980h78l330 -980v0z" />
<glyph unicode="]" horiz-adv-x="330" d="M295 -165h-250v125h100v687h-100v125h250v-937v0z" />
<glyph unicode="^" horiz-adv-x="366" d="M346 609l-70 -72l-93 83l-93 -83l-70 72l163 163l163 -163v0z" />
<glyph unicode="_" horiz-adv-x="800" d="M815 -103h-830v76h830v-76v0z" />
<glyph unicode="`" horiz-adv-x="386" d="M362 618q-4 -10 -13 -16t-22 -11q-1 0 -3.5 -0.5t-4.5 -1.5q-4 -1 -8.5 -1.5t-9.5 -0.5h-2.5h-2.5q-3 1 -5.5 1.5t-4.5 1.5q-20 10 -40 19t-40 19q-40 19 -79.5 38t-80.5 38q-4 2 -6 5t-2 7t2 7.5t5 7.5q12 20 33 35t50 27q4 2 8 2.5t8 1.5h4h4q5 0 10 -0.5t7 -2.5 q47 -37 95 -74.5t96 -74.5q2 -1 3 -4.5t1 -8.5v-2v-2q0 -3 -0.5 -5.5t-1.5 -4.5v0z" />
<glyph unicode="a" horiz-adv-x="674" d="M643 -1q0 -12 -13 -21t-30 -9q-9 0 -20 -0.5t-25 -0.5q-13 0 -27.5 -0.5t-29.5 -0.5h-4h-4q-40 0 -75.5 5.5t-49.5 21.5q-34 -24 -67 -34.5t-64 -10.5q-78 1 -134 54t-67 118q-1 7 -1.5 13.5t-0.5 13.5q0 80 34.5 140.5t145.5 91.5q16 5 31.5 8.5t29.5 7.5q50 15 79.5 34 t29.5 64v8.5t-1 8.5q-2 18 -16.5 27t-31.5 12q-5 1 -10 1.5t-9 0.5h-2.5h-3.5q-38 -3 -49.5 -22.5t-18.5 -42.5q-7 -26 -21 -47.5t-65 -21.5h-6h-7q-20 2 -35.5 17.5t-15.5 38.5v2t1 3v2v2q8 56 70 84.5t141 28.5q10 0 19.5 -0.5t19.5 -1.5q93 -8 171 -57.5t78 -140.5v-363 l11 -6q17 0 30 -8.5t13 -18.5v-1zM381 88q0 5 -3.5 8.5l-7.5 7.5q-5 4 -8.5 8t-3.5 8v158q0 5 3.5 8.5t8.5 7.5l0.5 0.5l1.5 1.5q4 3 6.5 6t2.5 7q0 20 -17.5 29.5t-38.5 9.5t-38 -9.5t-17 -29.5v-223q0 -18 17.5 -27t38.5 -9t38 9.5t17 28.5v0z" />
<glyph unicode="b" horiz-adv-x="746" d="M712 279q0 -127 -76 -218.5t-184 -91.5h-8t-8 1q-19 1 -38 6.5t-36 13.5q-5 -9 -16 -15t-25 -6l-243 -1q-19 1 -31 10t-12 22q0 10 12 19t31 9l9 6v631l-10 6q-18 0 -30.5 8.5t-12.5 21.5q0 12 12.5 20t30.5 8h172q29 0 41.5 -11t16.5 -24q2 -8 2.5 -15t0.5 -12v-1.5 v-0.5v-128q30 25 66 38t76 13q108 0 184 -91t76 -218v0zM426 102v348v2.5t-1 2.5q-2 14 -18 25.5t-37 11.5t-36.5 -11.5t-17.5 -25.5q-1 -1 -1 -2.5v-2.5q0 -4 3 -7t7 -6l0.5 -0.5l0.5 -0.5q5 -3 8.5 -6.5t3.5 -8.5v-288q0 -4 -3.5 -8t-7.5 -7q-1 0 -1.5 -0.5l-0.5 -0.5 q-4 -3 -7 -6t-3 -7v-2.5t1 -2.5q2 -14 17.5 -25.5t36.5 -11.5q12 0 22 3t18 9q4 3 8 8t6 11q1 3 1.5 5t0.5 4v0z" />
<glyph unicode="c" horiz-adv-x="563" d="M537 67q0 -15 -8 -28t-18 -21q-37 -31 -84.5 -50t-99.5 -19q-125 0 -213 77t-88 242q0 164 88 241.5t213 77.5q15 0 31.5 -1.5t33.5 -5.5q27 -5 52.5 -13.5t42.5 -20.5q18 -12 31.5 -30.5t13.5 -41.5q0 -34 -24 -58.5t-59 -24.5q-36 0 -61 24.5t-25 58.5q0 17 8 32.5 t20 26.5q-7 5 -17 9t-20 5h-3.5h-3.5q-22 0 -38.5 -11t-16.5 -26v-483q0 -7 4.5 -12.5t10.5 -9.5q8 -6 18.5 -8.5t21.5 -2.5q23 0 39.5 10.5t16.5 24.5q0 2 -0.5 4t-1.5 4q0 1 -0.5 2.5t-0.5 2.5l-1.5 3t-0.5 3q-2 4 -2.5 8.5t-0.5 10.5q0 24 21.5 42t49.5 18q29 0 50 -18 t21 -42v0z" />
<glyph unicode="d" horiz-adv-x="723" d="M714 -2q0 -12 -12 -21t-31 -9l-243 -1q-13 1 -24.5 7t-16.5 15q-17 -8 -36 -13.5t-38 -6.5q-4 -1 -8 -1h-8q-108 0 -184 91.5t-76 218.5t76 218t184 91q39 0 75.5 -13t66.5 -38v128l-9 6q-19 0 -31 9t-12 21t12 20t31 8h182q31 0 40.5 -8.5t9.5 -28.5v-659l9 -6 q19 0 31 -8.5t12 -18.5v-1zM434 97q0 5 -3.5 8.5t-7.5 6.5q-5 3 -8.5 7t-3.5 8v298q0 5 3.5 8.5t8.5 6.5l0.5 0.5l0.5 0.5q4 3 7 6t3 7q0 15 -16.5 26t-39.5 11q-22 0 -38.5 -11t-16.5 -26v-358q0 -7 5 -13t11 -10q8 -6 18 -9t21 -3q23 0 39.5 11t16.5 25v0z" />
<glyph unicode="e" horiz-adv-x="591" d="M564 393q0 -2 -0.5 -4t-1.5 -5q-2 -4 -6 -7.5t-12 -3.5h-251v-346q0 -7 4.5 -12.5t10.5 -9.5q8 -6 18.5 -8.5t21.5 -2.5q23 0 39.5 10.5t16.5 23.5q0 3 -0.5 6.5t-2.5 7.5l-2 4t-1 4q-1 4 -1.5 8t-0.5 8q0 25 21.5 42.5t49.5 17.5q29 0 50.5 -17.5t21.5 -42.5 q0 -13 -7.5 -25.5t-16.5 -21.5q-1 0 -1.5 -0.5l-1.5 -1.5q-37 -31 -84.5 -49.5t-99.5 -18.5q-124 0 -212.5 77t-88.5 241q0 155 77.5 232t192.5 86q5 2 8 2.5t4 0.5q146 0 200.5 -57.5t54.5 -137.5v0zM416 409v60q0 32 -18 54t-45 22q-26 0 -44.5 -22t-18.5 -54v-60h126v0z " />
<glyph unicode="f" horiz-adv-x="391" d="M373 546q0 -14 -8.5 -19t-20.5 -8q-2 0 -4 -0.5t-4 -1.5q-4 -1 -8 -2.5t-8 -3.5v-478l12 -6q21 0 31.5 -9.5t10.5 -19.5v-1.5v-1.5q-1 -10 -11.5 -18t-30.5 -8l-270 -1q-21 1 -32 10.5t-10 20.5q0 10 10.5 19t31.5 9l9 6v490q-2 1 -3.5 2t-3.5 2q-4 1 -7.5 3t-7.5 3 q-12 5 -21.5 11t-9.5 14q0 18 17.5 23t38.5 6h5h6q0 62 28.5 103t137.5 41q46 0 66.5 -15.5t20.5 -34.5v-1.5v-1.5q-2 -18 -21 -33t-52 -14q-15 0 -31.5 4t-35.5 12q-8 -5 -13 -12t-7 -15v-2v-2q-1 -2 -1 -3v-2q0 -25 25 -31t56 -5h11.5t11.5 1h11.5h11.5q29 -1 49 -5.5 t20 -24.5v0z" />
<glyph unicode="g" horiz-adv-x="655" d="M617 38q14 -10 20.5 -24.5t6.5 -31.5q0 -12 -3.5 -25t-11.5 -26q-11 -22 -33 -42.5t-54 -38.5q-25 -14 -53 -23t-56 -14q-21 -4 -41 -6t-39 -2q-37 0 -67 7t-47 21q-10 10 -19 21t-9 24v1.5t1 1.5v1.5v1.5q-6 -2 -13.5 -3t-14.5 -2h-6.5h-7.5h-4h-4q-49 2 -90 25.5 t-41 58.5q0 29 31 50.5t68 38.5q16 8 31.5 14.5t28.5 12.5q6 3 9 5.5t3 5.5q1 4 -3 8t-11 7q-79 38 -115 96.5t-35 120.5q0 101 83.5 185.5t221.5 83.5q21 0 43 -2.5t45 -7.5q19 2 34 7.5t23 12.5q3 3 5 5.5t3 4.5q0 1 0.5 2t0.5 2v1v2q0 11 -12.5 16.5t-28.5 10.5l-6 2 l-6 2q-20 5 -36.5 14.5t-16.5 28.5q0 23 30 38.5t73 15.5q34 0 59.5 -17.5t33.5 -38.5l2 -8t1 -8q0 -36 -22 -66.5t-69 -49.5q81 -37 119.5 -99t38.5 -129q0 -97 -79 -178t-227 -83q-28 -1 -46 -7t-34 -18l-1.5 -1.5l-1.5 -1.5q-18 -16 -10.5 -26t27.5 -10q7 0 15 1.5 t17 4.5q13 4 28.5 9.5t33.5 11.5q19 6 40 12t42 10q18 4 36.5 6.5t36.5 2.5q24 0 45.5 -5.5t37.5 -19.5v0zM373 -156q49 1 73 13t23 26q0 14 -24.5 26t-71.5 12t-72 -11.5t-27 -24.5v-1.5v-1.5q1 -14 25.5 -25.5t73.5 -11.5v-1zM416 172q0 5 -3.5 8t-7.5 6q0 1 -0.5 1h-0.5 q-4 3 -7 6t-3 7v295q0 17 -17 26t-37 9t-36.5 -9t-16.5 -26q0 -2 1.5 -5t3.5 -6q1 -2 2.5 -3.5l3.5 -3.5q4 -4 7.5 -7l3.5 -3v-296q0 -15 16.5 -24t36.5 -10h2.5h2.5q19 0 34 8.5t15 26.5v0z" />
<glyph unicode="h" horiz-adv-x="750" d="M716 -4q0 -12 -12 -20t-31 -8l-191 -1q-29 1 -43 11.5t-20 21.5q-4 10 -4.5 18.5t-0.5 12.5v397q0 14 -14 23.5t-34 9.5q-23 0 -38 -9.5t-15 -23.5q0 -4 4 -7l8 -6q5 -3 8.5 -6.5t3.5 -7.5v-369l11 -6q17 0 30 -8.5t13 -18.5q0 -13 -13 -22t-30 -9l-270 -1q-19 1 -31 10 t-12 22q0 10 12 18.5t31 8.5l9 6v622l-10 6q-18 0 -30.5 8.5t-12.5 20.5t12.5 20.5t30.5 8.5h193q38 0 51 -12.5t15 -27.5q1 -5 1 -10v-10v-2v-2v-136q23 31 62 49.5t88 18.5q73 0 124.5 -40t51.5 -96v-419l10 -6q19 0 31 -8t12 -20v-1z" />
<glyph unicode="i" horiz-adv-x="352" d="M347 -2q0 -12 -13 -20.5t-30 -8.5l-243 -1q-19 1 -31 9.5t-12 21.5q0 10 12 19t31 9l8 6v490l-10 6q-18 0 -30 8.5t-12 21.5q0 12 12 20.5t30 8.5h172q32 0 44.5 -12.5t15.5 -27.5q1 -6 1.5 -10.5t0.5 -9.5v-495l11 -6q17 0 30 -9t13 -19v-1zM279 668q0 -20 -35 -35 t-85 -15t-85.5 15t-35.5 35q0 21 35.5 35.5t85.5 14.5t85 -14.5t35 -35.5v0z" />
<glyph unicode="j" horiz-adv-x="341" d="M321 -1q0 -82 -55 -142t-137 -60h-1.5h-1.5q-50 1 -80.5 15.5t-30.5 34.5t16 28t35 13h1.5t0.5 1q19 5 34 12t15 25q0 4 -3.5 8.5t-7.5 8.5q-4 5 -7.5 10.5t-3.5 11.5v553l-7 6q-19 0 -30.5 8t-11.5 21t11.5 21t30.5 8h171q29 0 42 -12t17 -27q2 -5 2.5 -10t0.5 -10v-524 v0zM304 661q0 -20 -35 -34.5t-85 -14.5q-49 0 -84.5 14.5t-35.5 34.5q0 21 35.5 36t84.5 15q50 0 85 -15t35 -36v0z" />
<glyph unicode="k" horiz-adv-x="734" d="M728 -3q0 -10 -12 -19t-31 -9l-175 -1q-31 1 -51.5 16.5t-19.5 44.5v1.5v1.5v6.5v11.5q0 21 -2 58t-9 77q-9 58 -30 106t-61 48v-306l12 -6q17 0 29.5 -8.5t12.5 -18.5q0 -13 -12.5 -22t-29.5 -9l-270 -1q-19 1 -31 10t-12 22q0 10 12 18.5t31 8.5l9 6v622l-10 6 q-18 0 -30.5 8t-12.5 21q0 12 12.5 20.5t30.5 8.5h190q34 0 51.5 -15t17.5 -49v-244h47q37 0 55.5 24.5t33.5 55.5q2 3 3 6t3 5q16 35 39.5 63.5t73.5 28.5t76.5 -20.5t27.5 -45.5v-1.5v-1.5q0 -24 -25.5 -44t-78.5 -20h-8.5t-8.5 1h-3.5h-3.5h-6h-6q-16 0 -21 -5.5 t17 -25.5q37 -33 69 -114t46 -172q4 -26 6 -52t2 -51v-5.5v-4.5l10 -5q19 0 31 -8.5t12 -20.5v-1z" />
<glyph unicode="l" horiz-adv-x="355" d="M356 -2q0 -12 -13 -20.5t-30 -8.5l-252 -1q-19 1 -31 9.5t-12 21.5q0 10 12 19t31 9l9 6v621l-10 6q-18 0 -30.5 8.5t-12.5 21.5q0 12 12.5 20.5t30.5 8.5h193q29 0 39 -17.5t10 -47.5v-621l11 -6q17 0 30 -9t13 -19v-1z" />
<glyph unicode="m" horiz-adv-x="1006" d="M981 -4q0 -11 -12.5 -19t-30.5 -8l-184 -1q-28 1 -37.5 17.5t-9.5 46.5v426q0 13 -15 21.5t-33 9.5h-1.5h-1.5q-17 0 -31 -9t-14 -31v-417l12 -6q18 0 30 -8.5t12 -20.5t-12 -20t-30 -8l-184 -1q-28 1 -39 17.5t-11 46.5v427q0 13 -13 21.5t-28 9.5h-2.5h-2.5 q-15 0 -26.5 -8t-11.5 -25v-424l11 -6q17 0 30 -9t13 -19q0 -13 -13 -21.5t-30 -8.5l-252 -1q-19 1 -31 9.5t-12 21.5q0 10 12 19t31 9l9 6v490l-10 5q-18 0 -30.5 8.5t-12.5 21.5q0 12 12.5 20.5t30.5 8.5h193q22 0 33 -11.5t13 -31.5q26 26 64.5 38t79.5 12q48 0 91.5 -18 t63.5 -53q25 33 66.5 50.5t86.5 18.5h6h6q63 0 113.5 -28.5t50.5 -83.5v-448l8 -6q18 0 30.5 -8.5t12.5 -20.5v-1z" />
<glyph unicode="n" horiz-adv-x="710" d="M678 -4q0 -11 -12.5 -19t-30.5 -8l-184 -1q-28 1 -38.5 17.5t-10.5 46.5v427q0 13 -12.5 21t-27.5 10h-3.5h-3.5q-15 0 -26.5 -8t-11.5 -25v-424l12 -6q17 0 29.5 -9t12.5 -19q0 -13 -12.5 -21.5t-29.5 -8.5l-253 -1q-19 1 -30.5 9.5t-11.5 21.5q0 10 11.5 19t30.5 9l9 6 v490l-10 5q-18 0 -30.5 8.5t-12.5 21.5q0 12 12.5 20.5t30.5 8.5h193q22 0 33 -11.5t14 -31.5q24 24 54 36.5t61 15.5q6 1 11 1h10q66 0 119 -36t53 -93l2 -436l10 -6q18 0 30.5 -8.5t12.5 -20.5v-1z" />
<glyph unicode="o" horiz-adv-x="677" d="M31 268q0 134 90 229t217 95t217.5 -95t90.5 -229q0 -133 -90.5 -227t-217.5 -94t-217 94t-90 227v0zM381 72v419q0 15 -16 25.5t-38 10.5t-37.5 -10.5t-15.5 -25.5q0 -2 1.5 -5t3.5 -6q1 -2 2.5 -3.5l3.5 -3.5q3 -4 6.5 -7l3.5 -3v-420q0 -7 5.5 -13.5t12.5 -9.5 q7 -5 16.5 -8.5t20.5 -3.5q22 0 37.5 10.5t15.5 25.5q0 5 -3.5 8t-7.5 6q0 1 -0.5 1h-0.5q-4 3 -7 6t-3 7v0z" />
<glyph unicode="p" horiz-adv-x="697" d="M663 272q0 -163 -58 -235.5t-159 -72.5q-7 0 -15 0.5t-15 1.5q-27 5 -53 16t-49 26v-112l11 -6q17 1 30 -7.5t13 -20.5q0 -13 -13 -21.5t-30 -8.5l-252 -1q-19 1 -31 9.5t-12 21.5q0 12 12 20.5t31 8.5l9 5v622l-10 5q-18 0 -30.5 8.5t-12.5 21.5q0 12 12.5 20.5 t30.5 8.5h192q21 0 32 -10.5t15 -27.5q32 24 66 37t69 13q101 0 159 -79t58 -243v0zM426 91v364q0 15 -16.5 26t-39.5 11q-22 0 -38.5 -11t-16.5 -26q0 -4 3 -7t7 -6l0.5 -0.5l0.5 -0.5q5 -3 8.5 -6.5t3.5 -8.5v-304q0 -4 -3.5 -7.5t-7.5 -6.5q-5 -4 -8.5 -7t-3.5 -8 q0 -15 16.5 -26t38.5 -11q11 0 21.5 3.5t17.5 8.5q7 4 12 10t5 13v0z" />
<glyph unicode="q" horiz-adv-x="664" d="M666 557q0 -13 -12.5 -21.5t-30.5 -8.5l-10 -5v-622l9 -6q19 1 31 -7.5t12 -20.5q0 -13 -12 -21.5t-31 -8.5l-155 -1q-45 1 -62 12t-22 24q-1 5 -1.5 9.5t-0.5 8.5v7v5v111q-23 -15 -49 -26t-53 -16q-7 -1 -14.5 -1.5t-15.5 -0.5q-100 0 -158.5 72.5t-58.5 235.5 q0 151 77.5 230t169.5 90q8 1 15.5 1.5t15.5 0.5q45 0 71 -8t42 -17q7 -4 13.5 -7.5t11.5 -7.5q9 -4 18.5 -7t21.5 -3q8 0 17 1.5t20 4.5q9 3 15 6.5t11 7.5q2 2 4 3.5t4 2.5q6 5 13 8.5t17 3.5h34q18 0 30.5 -8.5t12.5 -20.5v0zM380 97q0 5 -3.5 8t-7.5 7q-5 3 -8.5 6.5 t-3.5 7.5v304q0 5 3.5 8.5t8.5 6.5l0.5 0.5l0.5 0.5q4 3 7 6t3 7q0 15 -16.5 26t-39.5 11q-22 0 -38.5 -11t-16.5 -26v-364q0 -7 4.5 -13t11.5 -10q8 -5 18 -8.5t21 -3.5q23 0 39.5 11t16.5 26v0z" />
<glyph unicode="r" horiz-adv-x="574" d="M548 499q0 -35 -31 -61.5t-75 -26.5q-27 0 -46.5 13t-36.5 30q-2 1 -3.5 3t-3.5 4q-2 1 -4 3l-4 4q-4 4 -8 5.5t-9 1.5q-10 0 -17.5 -7.5t-7.5 -16.5v-418l12 -5q17 0 29.5 -9t12.5 -19q0 -13 -12.5 -22t-29.5 -9l-244 -1q-19 1 -31 10t-12 22q0 10 12 19t31 9l9 5v486 l-10 6q-18 0 -30.5 8.5t-12.5 21.5q0 12 12.5 20t30.5 8h171h4t4 -1q19 -2 34.5 -13.5t17.5 -27.5q0 -2 0.5 -5t1.5 -6q1 -5 5 -9t12 -4q7 0 13 4t10 8q1 1 1.5 2t1.5 2q15 23 40 39t57 16q44 0 75 -26t31 -63v0z" />
<glyph unicode="s" horiz-adv-x="465" d="M461 157q-2 -83 -73.5 -143t-173.5 -60q-33 0 -68.5 8t-71.5 25q-26 11 -37 24t-11 26q1 22 26 39t55 20q2 1 4.5 1h5.5q25 0 45 -14t24 -48q1 -18 15.5 -26.5t31.5 -8.5h1.5h1.5q19 0 35.5 12t16.5 35q0 12 -9 25t-23 26q-10 10 -22 19l-24 18q-21 16 -40.5 29t-29.5 22 q-49 43 -83.5 96t-34.5 109q0 80 71 145t171 65q32 0 66 -8.5t68 -26.5q22 -12 31 -23.5t9 -22.5q-1 -19 -23.5 -32.5t-49.5 -14.5h-3.5h-2.5q-22 0 -40.5 10.5t-23.5 34.5q-3 17 -14.5 24.5t-25.5 7.5q-2 0 -4.5 -0.5t-4.5 -0.5q-19 -4 -34 -16.5t-15 -29.5q0 -7 4 -14.5 t12 -15.5q4 -4 9.5 -7.5t12.5 -7.5l72 -48t58 -42q48 -38 72 -82t24 -118v-2.5v-2.5v-3v-3v0z" />
<glyph unicode="t" horiz-adv-x="373" d="M356 -1q0 -12 -13 -21t-30 -9l-252 -1q-19 1 -31 10t-12 22q0 10 12 19t31 9l9 5v490l-10 6q-3 2 -6 3.5t-6 2.5t-5 2t-5 2q-8 3 -14.5 7.5t-6.5 12.5q0 18 19.5 23.5t42.5 5.5h1.5h1.5h12h11q5 -1 10.5 -1h9.5q23 0 39 18.5t31 41.5q2 3 3.5 5.5t3.5 5.5q16 27 35.5 49 t49.5 22q6 0 12.5 -1t13.5 -3q11 -3 16.5 -11.5t5.5 -20.5t-6 -26.5t-18 -29.5q-6 -7 -12.5 -12.5t-13.5 -9.5q-5 -3 -9 -5.5t-8 -5.5l-2 -2t-3 -2l-2 -2l-2 -2q-2 -3 -1.5 -6t10.5 -3h44q18 0 30.5 -8t12.5 -20q0 -8 -6.5 -12.5t-14.5 -7.5q-3 -1 -5 -2t-5 -2t-6 -2.5 t-6 -3.5l-10 -6v-490l11 -5q17 0 30 -9t13 -19v-1z" />
<glyph unicode="u" horiz-adv-x="685" d="M678 -3q0 -11 -12.5 -19.5t-30.5 -8.5l-193 -1q-22 1 -33 13t-14 31q-23 -23 -60.5 -36.5t-81.5 -13.5q-54 0 -98.5 19.5t-57.5 51.5q-3 8 -5.5 16t-3.5 17q-1 5 -1.5 11t-0.5 11v435l-11 6q-18 0 -30.5 8.5t-12.5 21.5q0 12 12.5 20.5t30.5 8.5h175q35 0 46.5 -17.5 t11.5 -47.5v-446q0 -2 1 -4.5t3 -5.5q5 -8 17.5 -15t26.5 -7q3 0 6 0.5t6 1.5q9 3 17 11t8 21v444l-12 5q-16 0 -29 9t-13 20q0 13 13 22t29 9h186q37 0 47 -14.5t11 -31.5v-6v-6v-3.5v-3.5v-490l10 -6q18 0 30.5 -8.5t12.5 -20.5v-1z" />
<glyph unicode="v" horiz-adv-x="614" d="M586 534l-200 -568h-95l-190 561h-30q-3 0 -7 0.5t-7 1.5q-11 4 -20 11.5t-9 16.5q0 12 12.5 20t30.5 8h217q15 0 24.5 -8.5t13.5 -17.5q1 -2 1.5 -3.5t1.5 -3.5l72 -214q2 -6 7.5 -10t11.5 -4q5 1 9 4t6 10l30 89q2 5 2.5 9t0.5 8q0 13 -6 23.5t-13 17.5q-4 3 -7 5.5 t-6 4.5q-13 9 -23.5 22t-16.5 29q-3 8 -4.5 16t-1.5 15q0 26 17.5 46t45.5 26q5 1 9.5 1.5t8.5 0.5q35 -1 65.5 -21t43.5 -52q0 -2 1 -7.5t2 -12.5v-1v-1q1 -8 2 -15l1 -7v0z" />
<glyph unicode="w" horiz-adv-x="960" d="M948 534l-201 -568h-94l-109 319q-1 6 -5 9t-9 3q-4 0 -7.5 -3t-5.5 -9l-114 -318h-93l-192 561h-30q-4 0 -8 1t-9 2q-10 4 -18 10.5t-8 14.5q0 13 13 21t30 8h217q15 0 25 -7.5t14 -16.5q2 -2 2.5 -4t1.5 -4l70 -214q2 -8 7 -13t11 -4h2h2q4 2 8 6t6 11l37 99l-29 89 h-30q-3 0 -7.5 1t-8.5 2q-10 4 -18.5 10.5t-8.5 15.5q0 13 12.5 21t30.5 8h217q15 0 25 -8.5t14 -17.5q1 -2 1.5 -3.5t1.5 -3.5l71 -214q3 -8 7.5 -12.5t9.5 -4.5q5 1 9.5 5t7.5 12l31 89q2 5 2.5 8.5t0.5 7.5q0 13 -6 23t-13 17q-3 4 -6.5 7t-6.5 5q-13 9 -24 22t-17 29 q-3 8 -4.5 16t-1.5 15q0 26 17.5 46t45.5 26q5 1 9.5 1.5t8.5 0.5q35 -1 65.5 -21t43.5 -52q1 -1 1.5 -5.5t1.5 -10.5q0 -1 0.5 -2.5t0.5 -3.5q1 -8 2 -15l1 -7v0z" />
<glyph unicode="x" horiz-adv-x="596" d="M590 -1q0 -12 -13 -21t-30 -9l-174 -1q-26 1 -37 12t-15 24q-2 4 -3 8.5t-2 8.5q0 4 -1 7t-2 5l-77 167q-4 8 -9.5 11t-13.5 3h-3.5h-2.5q-8 -2 -16 -5t-13 -7q-3 -2 -5 -3.5t-3 -3.5q-8 -12 -15 -26t-7 -31q1 -14 9 -31t27 -36q8 -8 19 -17.5t23 -20.5q15 -16 22 -32 t7 -30q0 -23 -14.5 -39t-37.5 -20q-7 -2 -14 -2.5t-15 -0.5q-9 0 -19 1t-20 3q-32 7 -61 26t-38 54q-4 18 -6 34t-2 29q0 9 1 16.5t2 13.5q8 29 20.5 59.5t32.5 61.5q7 9 13.5 18.5t13.5 18.5q14 19 27.5 39t23.5 40q2 3 2.5 6t0.5 6q0 7 -2 14.5t-5 16.5q0 1 -0.5 2.5 t-1.5 3.5l-68 151l-10 6q-18 0 -30.5 8.5t-12.5 21.5q0 12 12.5 20t30.5 8h171q26 0 37.5 -12t17.5 -27q1 -4 2.5 -8t2.5 -7q1 -1 1.5 -2.5t0.5 -2.5l46 -101l1.5 -1.5t0.5 -1.5l2.5 -2.5t1.5 -3.5q8 -9 17 -14.5t19 -5.5h4.5t4.5 1q1 0 2 0.5t2 0.5q13 4 19 8.5t9 15.5 q2 5 3 9.5t1 9.5q0 8 -2.5 16t-7.5 14q-16 9 -27 22t-16 29q-4 9 -5.5 17.5t-1.5 16.5q0 26 17 45.5t45 23.5q3 0 5.5 0.5t4.5 0.5q2 1 4.5 1h5.5q35 0 65.5 -20t43.5 -51q1 -3 2 -6.5t2 -6.5q0 -3 1 -6l2 -6q-4 -34 -17 -68t-53 -66q-6 -5 -12 -11t-12 -11q-1 -1 -2 -1.5 t-2 -1.5q-11 -10 -22.5 -20.5t-20.5 -20.5q-5 -5 -8.5 -9.5t-5.5 -8.5q-3 -5 -4 -9.5t-1 -9.5q0 -8 3 -17.5t9 -21.5l102 -224l11 -5q17 0 30 -9t13 -19v-1z" />
<glyph unicode="y" horiz-adv-x="581" d="M553 574q1 -2 1 -5v-7v-5t-1 -5v-5.5t-1 -5.5q0 -2 -0.5 -4.5t-0.5 -4.5l-167 -505q-3 -10 -7 -19.5t-9 -19.5q-23 -51 -70 -96t-127 -59q-3 0 -6.5 -0.5t-6.5 -1.5q-5 -1 -10.5 -1.5t-10.5 -0.5q-40 0 -69 18.5t-29 45.5q0 28 28.5 47t68.5 19q6 0 11.5 -1t11.5 -3 q4 -1 8.5 -2t8.5 -1q8 -1 14.5 -1.5t12.5 -0.5q22 0 32.5 6t9.5 19v6.5t-2 7.5l-164 533l-10 6q-18 0 -30.5 8.5t-12.5 21.5q0 12 12.5 20.5t30.5 8.5h193q20 0 28 -11t14 -30q1 -5 3 -11t4 -13l43 -126q3 -11 9 -16t14 -7q3 -1 5.5 -1.5t5.5 -0.5h3.5h2.5q10 2 16.5 7.5 t11.5 11.5q2 2 4 4.5t3 4.5q6 8 9 19t3 23v5.5t-1 4.5q-1 18 -9 33.5t-21 25.5q-4 3 -10.5 8.5t-12.5 11.5q-8 8 -15 16.5t-11 17.5l-1.5 3t-0.5 2q-3 8 -4.5 15t-1.5 13q0 21 18.5 32t48.5 16q5 1 10.5 1.5t11.5 0.5q4 0 8.5 -0.5t9.5 -0.5q33 -4 61.5 -23t31.5 -49v0z" />
<glyph unicode="z" horiz-adv-x="533" d="M517 15q-15 -22 -44.5 -35t-70.5 -13l-319 -1q-28 1 -40 9t-16 17q-1 3 -1.5 5.5t-0.5 5.5q1 4 1.5 7.5t1.5 4.5l247 496q5 11 -5 17t-23 6h-0.5h-1.5q-7 0 -13 -1.5t-10 -5.5t-9 -10.5t-10 -14.5q-2 -2 -3.5 -4.5t-3.5 -5.5q-10 -16 -28.5 -26.5t-37.5 -14.5 q-5 -1 -10 -1.5t-10 -0.5h-4h-4l-8 2l-8 2q-19 5 -29 18.5t-10 29.5q0 6 1.5 12t4.5 12q1 3 3 6l4 6q17 23 45 36t71 13h227h63q23 0 38 -8t15 -25q0 -4 -1 -7.5t-3 -8.5l-216 -484q-1 -4 -2 -7.5t-1 -6.5q0 -12 10 -18.5t22 -6.5q8 0 16 3t13 9q4 4 9 11.5t10 15.5 q1 2 2.5 3.5t2.5 3.5q11 17 30 27.5t40 13.5q4 0 8.5 0.5t8.5 0.5q6 0 12 -0.5t11 -2.5q18 -5 28.5 -18.5t10.5 -30.5q0 -8 -3 -17t-10 -18v0z" />
<glyph unicode="{" d="M275 -172h-17q-7 1 -13.5 1.5t-13.5 1.5q-60 8 -110 56t-50 139v107q0 42 -9.5 73.5t-46.5 31.5v124q37 0 46.5 31.5t9.5 73.5v107q0 92 50 140t110 56q7 1 13.5 1.5t13.5 0.5h17l-30 -125q-27 0 -40.5 -16t-13.5 -44v-71q0 -25 1.5 -47t3.5 -41q1 -20 2.5 -36t1.5 -29 q0 -25 -7.5 -40t-28.5 -23q21 -7 28.5 -22.5t7.5 -40.5q0 -13 -1.5 -29.5t-2.5 -35.5q-2 -19 -3.5 -41t-1.5 -47v-71q0 -27 13.5 -43t40.5 -16l30 -126v0z" />
<glyph unicode="|" horiz-adv-x="240" d="M195 -171h-150v943h150v-943v0z" />
<glyph unicode="}" d="M285 238q-37 0 -46.5 -31.5t-9.5 -73.5v-107q0 -91 -50 -139t-110 -56q-7 -1 -13.5 -1.5t-13.5 -0.5l-17 -1l30 125q27 1 40.5 17t13.5 43v71v6v6q0 90 7 139.5t50 64.5q-43 15 -50 64.5t-7 139.5v6v6v71q0 28 -13.5 44t-40.5 16l-30 125h17q7 0 13.5 -0.5t13.5 -1.5 q60 -8 110 -56t50 -140v-107q0 -42 9.5 -73.5t46.5 -31.5v-124v0z" />
<glyph unicode="~" horiz-adv-x="538" d="M515 421q-36 -44 -74 -61.5t-82 -17.5q-29 0 -51 11t-41 24q-4 2 -7.5 4t-6.5 5q-16 10 -32 17.5t-36 7.5q-25 0 -49.5 -10.5t-47.5 -39.5l-55 78q34 42 72 58.5t81 16.5q30 0 51.5 -10.5t41.5 -22.5q3 -3 6.5 -5t7.5 -5q15 -10 31 -17t36 -7q19 0 37 5.5t36 20.5 q6 5 12 11t12 13l58 -76v0z" />
<glyph unicode="&#xa1;" horiz-adv-x="326" d="M313 -88q0 -40 -43.5 -69t-105.5 -29q-60 0 -103.5 29t-43.5 70l83 382q5 25 20.5 42.5t40.5 17.5q24 0 41 -16.5t24 -43.5l87 -383v0zM277 491q0 -39 -33 -66t-80 -27q-46 0 -79 27t-33 66q0 38 33 65t79 27q47 0 80 -27t33 -65v0z" />
<glyph unicode="&#xa2;" horiz-adv-x="569" d="M543 93q0 -33 -41 -62t-91 -43q-16 -5 -31.5 -8t-29.5 -4v-87h-52v87q-136 13 -204 109t-68 209t68.5 209.5t204.5 108.5v85h53v-85q70 -4 128 -32t58 -80q0 -34 -24 -58.5t-59 -24.5q-44 0 -64 24.5t-20 54.5q0 18 7 35t19 28q-8 5 -17.5 8.5t-18.5 4.5q-3 1 -5.5 1 h-4.5q-21 0 -37 -9.5t-16 -27.5v-483q0 -16 17 -24t37 -8h1.5h1.5q20 1 37 9.5t17 25.5q0 2 -0.5 4t-0.5 4q-1 1 -1 2t-1 2q-3 7 -4 13.5t-1 11.5q0 27 22.5 42.5t49.5 16.5h1.5h1.5q26 0 46.5 -14.5t20.5 -44.5v0z" />
<glyph unicode="&#xa3;" horiz-adv-x="792" d="M296 189q-13 20 -28.5 38.5t-32.5 35.5q-10 11 -20 21.5t-20 21.5q-13 14 -23.5 29t-18.5 30h-113v44h97q-6 17 -9 33.5t-3 32.5q0 101 92 174.5t209 72.5q8 0 16 -0.5t15 -1.5q47 -4 93.5 -23.5t86.5 -57.5q15 -13 21.5 -25.5t6.5 -23.5q0 -22 -22 -35.5t-49 -15.5h-4 h-4q-19 0 -35.5 7.5t-24.5 23.5q-2 3 -3 8.5t-2 11.5q0 2 -0.5 4.5t-0.5 4.5q-1 8 -3 15t-6 12q-15 20 -44 29t-61 9h-2.5h-3.5q-44 -1 -81 -19.5t-37 -51.5q0 -32 33.5 -61t73.5 -57q25 -17 48.5 -33.5t38.5 -32.5h202v-44h-186q8 -22 12 -40t4 -33q0 -8 -1 -16t-3 -16 q-6 -21 -19 -43.5t-32 -53.5q15 -8 31.5 -20t34.5 -26q28 -20 58.5 -37t61.5 -17q6 0 12 1l12 2q5 2 11 4.5t12 5.5q3 2 9 7t13 11q3 2 5.5 4t5.5 4q13 9 24.5 9.5t12.5 -23.5q1 -37 -27.5 -63.5t-66.5 -39.5q-28 -9 -57.5 -13t-59.5 -4q-11 0 -22 0.5t-22 1.5q-48 4 -95 14 t-88 21q-25 -16 -54.5 -25t-60.5 -11h-6h-6q-60 0 -107.5 28t-47.5 80q0 8 3 16t9 17q17 24 50 45.5t69 28.5q3 1 5.5 1.5t5.5 0.5q11 2 31.5 4t42.5 2h10.5t11.5 -1q6 0 11.5 -0.5t10.5 -1.5v0zM129 38q0 -21 16 -31t37 -10h4h4q20 2 38 11.5t26 27.5q-3 2 -7.5 4.5 t-9.5 5.5q-9 5 -19.5 9t-20.5 7q-9 3 -17.5 4.5t-16.5 1.5q-14 0 -24 -6.5t-10 -23.5v0z" />
<glyph unicode="&#xa4;" horiz-adv-x="625" d="M352 546v-202h113l-30 -38h-83v-27h113l-30 -38h-83v-202q9 -1 18 -1.5t18 -0.5q47 0 89.5 18.5t74.5 49.5l45 -44q-41 -40 -94.5 -63t-114.5 -23q-113 0 -198 76.5t-102 189.5h-60l31 38h25v3.5v3.5v3.5v3.5v6v7h-56l31 38h29q17 113 102 190t198 77q61 0 114.5 -23 t94.5 -64l-45 -44q-32 32 -74.5 50t-89.5 18q-9 0 -18 -0.5t-18 -1.5v0z" />
<glyph unicode="&#xa5;" horiz-adv-x="658" d="M248 321l-16 31h-109v47h83l-123 243l-10 6q-18 0 -30.5 8.5t-12.5 21.5q0 12 12.5 20.5t30.5 8.5h270q17 0 29.5 -8.5t12.5 -20.5q0 -13 -12.5 -21.5t-29.5 -8.5l-11 -6l113 -219l45 82q2 3 2.5 5.5t1.5 4.5t1 4.5v5.5q0 5 -1 9.5t-3 9.5q-5 13 -14 25t-19 23 q-7 9 -14.5 17.5t-12.5 15.5q-7 11 -10.5 20.5t-3.5 17.5q0 29 31 47.5t69 18.5h4h4q32 -2 60.5 -19t39.5 -52q2 -4 2.5 -9.5t0.5 -10.5q0 -25 -14 -55t-33 -62q-5 -8 -10.5 -16.5t-10.5 -16.5q-16 -25 -30.5 -47.5t-24.5 -41.5h112v-47h-119v-42h119v-47h-119v-230l11 -6 q17 0 30 -9t13 -19q0 -13 -13 -21.5t-30 -8.5l-270 -1q-19 1 -31 9.5t-12 21.5q0 10 12 19t31 9l9 6v230h-126v47h126v11v0z" />
<glyph unicode="&#xa6;" horiz-adv-x="75" d="M48 -200h-46v490h46v-490v0zM48 360h-46v440h46v-440v0z" />
<glyph unicode="&#xa7;" horiz-adv-x="486" d="M461 316q0 -13 -2.5 -31.5t-7.5 -37.5q-6 -26 -16 -49t-23 -34q20 -18 32 -44t14 -53q1 -4 1 -7.5v-6.5q0 -62 -42.5 -114.5t-109.5 -52.5l-263 -1v77h253q38 1 62 13t24 37q0 47 -41 68.5t-96 37.5q-10 4 -20.5 7t-21.5 6q-67 21 -123 58.5t-56 124.5q0 13 2.5 31.5 t7.5 37.5q6 26 16 49t23 34q-19 15 -30.5 38.5t-14.5 49.5q-1 6 -1.5 11.5t-0.5 11.5q0 71 45.5 119.5t117.5 48.5h252v-77h-252q-38 0 -62.5 -12.5t-24.5 -38.5q0 -45 40.5 -66.5t94.5 -37.5q11 -3 22 -6.5t22 -6.5q67 -21 123 -59t56 -125v0zM384 283q0 4 -0.5 8.5 t-1.5 8.5q-4 20 -17.5 37.5t-32.5 23.5l-190 64q-20 -13 -30 -33.5t-10 -44.5v-4v-3q2 -23 16 -42.5t36 -26.5l191 -66q20 12 29.5 33t9.5 45v0z" />
<glyph unicode="&#xa8;" horiz-adv-x="456" d="M214 701q0 -28 -28 -46t-68 -18t-68.5 18t-28.5 46q0 26 28.5 45t68.5 19t68 -19t28 -45v0zM435 701q0 -28 -27.5 -46t-67.5 -18q-41 0 -69 18t-28 46q0 26 28 45t69 19q40 0 67.5 -19t27.5 -45v0z" />
<glyph unicode="&#xa9;" horiz-adv-x="806" d="M770 364q0 -150 -108.5 -257.5t-258.5 -107.5q-151 0 -258.5 107t-107.5 258t107.5 259t258.5 108q150 0 258.5 -108.5t108.5 -258.5v0zM701 364q0 122 -88 210.5t-210 88.5q-123 0 -210.5 -88t-87.5 -211q0 -124 87.5 -211t210.5 -87t210.5 88t87.5 210v0zM582 283 q-14 -59 -61.5 -95.5t-109.5 -36.5q-96 0 -148 56t-52 150q0 96 50.5 152.5t148.5 56.5q58 0 102.5 -29t61.5 -85l-58 -15q-18 36 -43.5 55.5t-69.5 19.5q-66 0 -96 -46t-30 -107q0 -64 29 -107.5t99 -43.5q41 0 75 26.5t42 66.5l60 -18v0z" />
<glyph unicode="&#xaa;" horiz-adv-x="337" d="M330 401h-316v55h316v-55v0zM330 497q0 -6 -6.5 -10.5t-15.5 -4.5h-10h-13q-7 -1 -14.5 -1h-15.5h-2h-2q-19 0 -36.5 2.5t-23.5 10.5q-17 -12 -33.5 -17t-31.5 -5q-39 0 -67 26.5t-34 59.5q0 3 -0.5 6.5t-0.5 7.5q0 41 17.5 70.5t72.5 45.5q8 2 15.5 4t14.5 4q25 7 40 17 t15 32v2v3q-1 1 -1 2v2q-1 9 -8 13.5t-15 5.5q-3 1 -5.5 1h-4.5h-1.5h-1.5q-19 -1 -24.5 -11t-9.5 -21v-0.5v-0.5q-4 -13 -11.5 -23.5t-32.5 -10.5h-2.5h-3.5q-10 1 -17.5 9t-7.5 21v1.5v1.5q5 28 35.5 42t70.5 14h10t10 -1q46 -4 85 -29t39 -70v-181l5 -3q9 0 15.5 -4.5 t6.5 -10.5v0zM199 542q0 2 -2 4l-4 4l-4 4t-2 4v79q0 2 2 4l4 4l4 4t2 4q0 9 -7.5 13.5t-16.5 5.5h-1.5h-1.5q-11 1 -20 -4t-9 -15v-112q0 -9 9 -13.5t19 -4.5q11 0 19.5 4.5t8.5 14.5v0zM199 542q0 -9 -7.5 -13.5t-16.5 -5.5h-1.5h-1.5q-11 0 -20 4.5t-9 13.5v112 q0 9 7.5 13.5t16.5 5.5h1.5h1.5q11 1 20 -4t9 -15q0 -2 -2 -4l-4 -4l-4 -4t-2 -4v-79q0 -2 2 -4l4 -4l4 -4t2 -4v0zM330 497q0 -6 -6.5 -10.5t-15.5 -4.5h-10h-12q-7 -1 -14 -1h-15h-2h-2q-20 0 -38 2.5t-24 10.5q-16 -11 -32.5 -16.5t-31.5 -5.5q-40 -1 -68.5 26.5 t-33.5 61.5q-1 3 -1 6v6q0 41 17.5 70.5t72.5 45.5q8 2 15.5 4t14.5 4q25 7 39.5 16.5t15.5 31.5v2v3q-1 1 -1 2.5v2.5q-1 8 -8 13t-15 6q-3 1 -5 1h-4h-0.5h-1.5h-1.5h-0.5q-19 -1 -25 -11t-9 -21q-4 -13 -11 -24t-32 -11h-3.5h-3.5q-10 1 -17.5 9t-7.5 20v0.5v1.5v1.5v0.5 q5 28 35.5 42t69.5 14q5 0 10.5 -0.5t11.5 -0.5q46 -5 84.5 -29t38.5 -70v-181l5 -3q9 0 15.5 -4.5t6.5 -10.5v0z" />
<glyph unicode="&#xab;" horiz-adv-x="530" d="M270 204l-72 -70l-163 163l163 163l72 -70l-83 -93l83 -93v0zM502 204l-72 -70l-163 163l163 163l72 -70l-83 -93l83 -93v0z" />
<glyph unicode="&#xac;" horiz-adv-x="400" d="M387 236h-46v116h-331v46h375v-4h2v-158v0z" />
<glyph unicode="&#xad;" horiz-adv-x="500" />
<glyph unicode="&#xae;" horiz-adv-x="348" d="M332 573q0 -65 -46.5 -111.5t-111.5 -46.5t-111.5 46t-46.5 112q0 65 47 111.5t111 46.5t111 -47.5t47 -110.5v0zM309 573q0 54 -40 94.5t-95 40.5t-95 -39.5t-40 -95.5q0 -57 39.5 -96t95.5 -39t95.5 40t39.5 95v0zM251 489h-34l-37 73h-33v-73h-32v176h61q6 0 12 -0.5 t12 -1.5q19 -4 35 -15t16 -31q0 -19 -11 -31.5t-28 -17.5l39 -79v0zM212 613q0 11 -9 18t-20 9q-3 1 -6.5 1.5t-6.5 0.5h-23v-56h34q13 0 22 7t9 20v0z" />
<glyph unicode="&#xaf;" horiz-adv-x="146" />
<glyph unicode="&#xb0;" horiz-adv-x="250" d="M234 643q0 -44 -31.5 -75.5t-75.5 -31.5q-45 0 -76.5 31.5t-31.5 75.5t32 75.5t76 31.5q43 0 75 -31.5t32 -75.5v0zM193 643q0 27 -19.5 47t-46.5 20q-28 0 -47.5 -19.5t-19.5 -47.5t19.5 -47.5t47.5 -19.5q27 0 46.5 19.5t19.5 47.5v0z" />
<glyph unicode="&#xb1;" horiz-adv-x="468" d="M445 67h-405v76h405v-76v0zM445 337h-165v-164h-76v164h-164v76h164v165h76v-165h165v-76v0z" />
<glyph unicode="&#xb2;" horiz-adv-x="357" d="M343 520l-30 -60q-8 -17 -19.5 -23t-24.5 -6q-8 0 -16.5 1.5t-17.5 3.5q-2 1 -4.5 1.5t-4.5 0.5q-25 6 -47 8.5t-42 2.5q-25 0 -45.5 -4.5t-35.5 -12.5q-1 -1 -3.5 -1.5t-4.5 -0.5t-5 0.5t-6 1.5q-7 2 -13.5 7.5t-6.5 12.5v3.5t1 2.5q12 29 36 52.5t50 45.5q2 1 3 2t3 2 q34 29 62 60t28 75q0 32 -10 55.5t-27 23.5q-14 0 -21.5 -2.5t-13.5 -7.5t-8 -11t-2 -12v-4t1 -4v-4v-4q0 -3 -0.5 -5.5t-2.5 -4.5q-9 -11 -20 -16t-22 -5q-19 0 -34 12t-14 28q0 3 0.5 5.5t1.5 4.5q0 2 1.5 4.5t2.5 5.5q11 18 39 28.5t60 15.5q13 1 25 2t23 1q12 0 31 -3 t40 -10q32 -11 59 -35.5t27 -69.5q0 -29 -21.5 -52.5t-50.5 -39.5q-11 -5 -23.5 -10t-25.5 -10q-24 -9 -45 -16.5t-31 -12.5q-17 -10 -17 -19t14 -9q5 0 9.5 1t10.5 2q3 0 8.5 2t11.5 4h0.5t0.5 1q6 2 11.5 4t8.5 2h2h2h2h2q11 0 19.5 -2.5t16.5 -5.5q1 -1 2 -1.5t2 -0.5 q7 -3 13.5 -5t14.5 -2q5 0 10 1.5t11 2.5q4 1 6.5 3t4.5 5q3 3 6.5 5.5t11.5 2.5q10 0 16 -4t4 -9v0z" />
<glyph unicode="&#xb3;" horiz-adv-x="350" d="M343 552q0 -48 -52 -81t-114 -40q-8 -1 -15.5 -1.5t-15.5 -0.5q-35 0 -66 11t-50 33q-6 8 -9 14.5t-2 12.5q0 14 12.5 22.5t27.5 8.5h1.5h1.5q15 0 26.5 -7.5t11.5 -24.5v-3v-3q0 -2 0.5 -3.5t1.5 -3.5q7 -13 18.5 -19.5t24.5 -6.5q32 0 46 26t13 57q0 25 -8 47.5 t-22 32.5q-6 4 -12.5 7t-13.5 5q-2 0 -4.5 0.5t-4.5 0.5h-1.5h-0.5h-1.5h-1.5q-2 0 -3.5 -0.5t-3.5 -1.5q-6 -1 -12 -2.5t-12 -1.5q-3 -1 -6 -1h-6q-10 0 -17.5 4t-7.5 15t13.5 14t30.5 3h12h12q5 -1 10.5 -1h10.5h9.5t8.5 1q17 6 26.5 21t9.5 37q0 27 -13 40t-28 15 q-2 1 -4.5 1h-4.5q-14 -1 -25 -7t-10 -14v-1.5v-1.5q1 -2 1 -4v-4q0 -13 -12 -19.5t-27 -6.5h-2.5h-2.5q-15 1 -27 8.5t-12 19.5q0 6 2 10.5t7 9.5q3 4 8.5 8t11.5 9q15 11 38.5 16.5t51.5 5.5q7 0 14 -0.5t14 -0.5q51 -5 93.5 -26t42.5 -54q0 -31 -20.5 -45t-54.5 -23 q41 -14 67 -43t26 -64v0z" />
<glyph unicode="&#xb4;" horiz-adv-x="386" d="M345 731q2 -2 3 -4l2 -4t1.5 -4t0.5 -4q0 -3 -1.5 -6t-6.5 -5l-80 -38l-80 -38q-20 -10 -40 -19t-40 -19q-4 -2 -7.5 -2.5t-8.5 -0.5h-2h-2q-3 0 -6.5 1t-6.5 1q-3 1 -5 1.5t-3 0.5q-13 5 -22 11t-13 16q-1 2 -1.5 6.5t-0.5 8.5t1 7.5t3 4.5q48 37 96 74.5t95 74.5 q2 2 7 2.5t11 0.5h6t6 -1q3 0 5.5 -1t5.5 -2q29 -12 50 -27t33 -35v0z" />
<glyph unicode="&#xb5;" horiz-adv-x="716" d="M707 587l-83 -439v-0.5v-1.5v-1.5v-0.5v-2.5t1 -3.5v-2.5v-3.5q0 -16 14.5 -29t71.5 -25l-66 -150q-52 14 -96.5 28t-63.5 31q-8 -4 -19.5 -9t-24.5 -10q-14 -5 -29 -10t-30 -9q-21 -6 -40.5 -9.5t-36.5 -3.5q-9 0 -18.5 1t-18.5 3t-18.5 4.5t-18.5 6.5l-49 -227h-225 l178 863h217q-6 -33 -14.5 -74.5t-16.5 -86.5q-1 -6 -2.5 -13t-2.5 -13q-16 -85 -28.5 -159.5t-12.5 -97.5q0 -20 10 -34t30 -14q7 0 14 1.5t15 3.5q20 8 37.5 23t21.5 34l82 430h222v0z" />
<glyph unicode="&#xb6;" horiz-adv-x="499" d="M312 -145h-75v400q-87 16 -144.5 85.5t-57.5 157.5q0 98 61 162.5t153 83.5q3 1 6 1h6h5.5h5.5q3 -1 6.5 -1h7.5q6 0 12.5 0.5t13.5 1.5v-891v0zM477 669h-45v-814h-74v890h119v-76v0z" />
<glyph unicode="&#xb7;" horiz-adv-x="146" />
<glyph unicode="&#xb8;" horiz-adv-x="464" d="M448 -104q0 -40 -70.5 -65.5t-171.5 -25.5q-59 0 -109.5 10t-83.5 27l58 47q14 -4 34.5 -7.5t42.5 -5.5q11 -1 21.5 -1.5t20.5 -0.5q35 0 59 5t25 15v1.5v0.5q0 17 -38.5 27t-84.5 12h-11.5h-10.5l2 98h98v-46q92 -2 155.5 -25t63.5 -65v-1z" />
<glyph unicode="&#xb9;" horiz-adv-x="266" d="M246 441q0 -7 -6.5 -11.5t-14.5 -4.5h-135q-10 0 -16 4.5t-6 11.5q0 6 6 10.5t16 4.5l4 3v248h-58q-9 0 -15 4.5t-6 10.5q0 3 3.5 6t7.5 5l6 2t4 1l146 62q4 2 7.5 2.5t7.5 0.5q10 0 16 -6.5t6 -16.5v-319l6 -3q8 0 14.5 -4.5t6.5 -10.5v0z" />
<glyph unicode="&#xba;" horiz-adv-x="337" d="M330 401h-316v55h316v-55v0zM323 632q0 -66 -45 -113.5t-109 -47.5q-63 0 -108 47.5t-45 113.5q0 68 45 115t108 47q64 0 109 -47t45 -115v0zM202 520q0 2 -1.5 4t-3.5 3q-1 1 -1.5 1t-0.5 1q-2 1 -3 2.5t-1 2.5v210q0 8 -8 13t-19 5t-19 -5t-8 -13q0 -1 0.5 -2.5 t1.5 -2.5l2 -2l2 -2l3.5 -3.5l1.5 -1.5v-210q0 -4 2.5 -7t6.5 -5q3 -2 8 -4t10 -2q11 0 19 5.5t8 12.5v0z" />
<glyph unicode="&#xbb;" horiz-adv-x="530" d="M265 297l-163 -163l-72 70l83 93l-83 93l72 70l163 -163v0zM502 297l-163 -163l-72 70l83 93l-83 93l72 70l163 -163v0z" />
<glyph unicode="&#xbc;" horiz-adv-x="795" d="M800 147v-0.5v-0.5v-0.5v-0.5q0 -8 -8 -12.5t-18 -5.5h-1.5h-1.5h-31v-106l7 -4q12 0 20.5 -5t8.5 -12q0 -9 -8.5 -15t-20.5 -6l-181 -1q-12 1 -20 7t-8 15q0 7 8 12t20 5l6 4v106h-179h-1.5h-1.5q-10 1 -18 7.5t-8 14.5q0 2 1 4.5t3 4.5l288 297q6 5 12 9t12 7 q6 2 11.5 3.5t11.5 1.5h3h2q13 -1 22.5 -9t9.5 -27v-274h31q12 0 19 -5t9 -12l0.5 -0.5t0.5 -1.5v0zM572 166v125l-124 -125h124v0zM640 800l-380 -800h-46l380 800h46v0zM329 308q0 -8 -8.5 -14t-20.5 -6h-181q-12 0 -20 6t-8 14t8 14t20 6l6 4v333h-77q-12 0 -20.5 6 t-8.5 14q0 5 5 8.5t10 5.5q4 2 8 3t6 2l195 83q5 2 9.5 3t8.5 1q14 0 23 -8.5t9 -22.5v-428l7 -4q12 0 20.5 -6t8.5 -14v0z" />
<glyph unicode="&#xbd;" horiz-adv-x="906" d="M897 93l-41 -80q-10 -21 -25.5 -28.5t-32.5 -7.5q-11 0 -23.5 2t-24.5 5q-3 0 -5 0.5t-5 1.5q-33 7 -63 10.5t-56 3.5q-34 -1 -61.5 -6.5t-47.5 -15.5q-2 -2 -4.5 -2h-6.5q-3 0 -6.5 0.5t-6.5 1.5q-11 2 -20 9t-9 17v2t1 2q0 1 0.5 2t0.5 2q16 39 48.5 70.5t67.5 60.5 l2.5 2.5t3.5 2.5q46 39 84 81t38 101q0 43 -13 73t-37 30q-19 0 -28.5 -3.5t-17.5 -9.5q-9 -7 -11.5 -15t-2.5 -16v-6t1 -6v-5.5v-4.5q0 -4 -0.5 -7.5t-2.5 -5.5q-11 -14 -25.5 -20.5t-29.5 -6.5q-25 1 -46 16.5t-21 37.5q0 7 2.5 14t6.5 14q15 24 53.5 38.5t81.5 20.5 q16 2 32 3t30 1q16 0 42 -3.5t54 -13.5q43 -15 79 -48.5t36 -92.5q0 -41 -29.5 -72.5t-67.5 -51.5q-14 -7 -31 -14t-35 -13q-31 -12 -59.5 -22t-42.5 -18q-23 -14 -22.5 -26t21.5 -12q5 0 11 1.5t13 2.5q4 1 11.5 3.5t14.5 5.5h1v0q8 3 16 5.5t12 3.5h2.5h2.5h2.5h2.5 q15 0 26 -3.5t21 -7.5q2 -1 3.5 -1.5t2.5 -1.5l18 -6t20 -3q7 0 14 1t15 4q5 2 8 4.5t6 5.5l0.5 0.5l0.5 0.5q4 4 8.5 7.5t15.5 3.5q14 0 22 -5t5 -13v0zM636 800l-380 -800h-46l380 800h46v0zM325 308q0 -8 -8.5 -14t-20.5 -6h-181q-12 0 -20 6t-8 14t8 14t20 6l6 4v333 h-77q-12 0 -20.5 6t-8.5 14q0 5 5 8.5t10 5.5q4 2 8 3t6 2l195 83q5 2 9.5 3t8.5 1q14 0 23 -8.5t9 -22.5v-428l7 -4q12 0 20.5 -6t8.5 -14v0z" />
<glyph unicode="&#xbe;" horiz-adv-x="861" d="M859 147v-0.5v-0.5v-0.5v-0.5q0 -8 -8 -12.5t-18 -5.5h-1.5h-1.5h-31v-106l7 -4q12 0 20.5 -5t8.5 -12q0 -9 -8.5 -15t-20.5 -6l-181 -1q-12 1 -20 7t-8 15q0 7 8 12t20 5l6 4v106h-179h-1.5h-1.5q-10 1 -18 7.5t-8 14.5q0 2 1 4.5t3 4.5l288 297q6 5 12 9t12 7 q6 2 11.5 3.5t11.5 1.5h3h2q13 -1 22.5 -9t9.5 -27v-274h31q12 0 19 -5t9 -12l0.5 -0.5t0.5 -1.5v0zM631 166v125l-124 -125h124v0zM699 800l-380 -800h-46l380 800h46v0zM455 456q0 -64 -69.5 -107.5t-153.5 -53.5q-10 -1 -20 -1.5t-20 -0.5q-48 0 -89 14t-67 45 q-8 10 -11.5 19t-3.5 17q1 20 19 30.5t40 10.5q19 0 34.5 -10.5t15.5 -33.5v-2.5v-2.5q0 -3 0.5 -5.5t1.5 -4.5q9 -17 24.5 -26t34.5 -9q41 0 60 34.5t19 75.5q0 33 -10.5 63t-30.5 43q-1 1 -2 1.5t-2 0.5q-9 7 -19.5 12t-21.5 5h-2h-2t-2 -0.5t-2 -0.5q-2 0 -4 -1t-4 -1 q-7 -2 -16 -3.5t-18 -2.5q-4 -1 -7.5 -1h-7.5q-14 0 -24 5.5t-10 19.5t18.5 18t42.5 4h8.5h8.5h4.5h4.5q6 -1 12.5 -1h12.5q9 0 17 1t13 2q23 7 36 27t13 51q0 36 -18 53t-39 20q-3 1 -6 1h-6q-18 0 -32 -8t-13 -20v-1.5v-1.5q1 -3 1 -5.5v-4.5q0 -19 -16 -27.5t-36 -8.5 h-1.5h-1.5q-21 1 -38.5 11t-17.5 27q0 7 2.5 13t8.5 11q5 5 12 11t16 13q20 16 53 23.5t70 7.5q8 0 16.5 -0.5t16.5 -0.5q70 -6 127.5 -34.5t57.5 -73.5q0 -40 -27.5 -59.5t-73.5 -33.5q56 -19 90 -57t34 -86v0z" />
<glyph unicode="&#xbf;" horiz-adv-x="519" d="M524 -70q-8 -67 -69 -99t-138 -32q-11 0 -21.5 0.5t-21.5 2.5q-94 10 -172.5 60.5t-78.5 133.5q0 64 48.5 106t109.5 80q4 2 7.5 4t6.5 4l44 28t41 29q8 6 10 16t2 21v4.5v5.5v4.5v4.5q0 14 4.5 24t22.5 10q38 0 52.5 -14t14.5 -36q0 -13 -4.5 -27.5t-10.5 -29.5 q-5 -10 -10 -20.5t-11 -20.5q-11 -19 -20.5 -34.5t-13.5 -23.5q-14 -31 -24 -65.5t-14 -68.5q-1 -9 -1.5 -17.5t-0.5 -17.5q0 -19 2.5 -37.5t7.5 -36.5q6 -19 22 -27t34 -8q20 0 36 8.5t15 20.5v3.5t-1 3.5q-2 4 -5.5 8.5t-7.5 9.5q-6 7 -10.5 14.5t-4.5 16.5 q0 31 24.5 46.5t53.5 15.5q32 -1 57.5 -17t25.5 -45q0 -1 -0.5 -2t-0.5 -2v-1v-2v-1zM445 483q0 -38 -32.5 -65.5t-79.5 -27.5q-46 0 -79 27.5t-33 65.5t33 65t79 27q47 0 79.5 -27t32.5 -65v0z" />
<glyph unicode="&#xc0;" horiz-adv-x="719" d="M740 -3q0 -10 -12.5 -18.5t-27.5 -9.5h-1.5h-1.5l-294 -1q0 1 -6.5 3.5t-14.5 5.5q-9 4 -15.5 9.5t-6.5 11.5q0 11 12.5 19.5t30.5 8.5h24l-21 89h-178l-23 -89h24q17 0 30 -8t13 -20q0 -11 -13 -20t-30 -9l-151 -1q-3 1 -8.5 2.5t-11.5 4.5q-9 4 -16 10t-7 13 q0 12 13 20t30 8h25l158 624h-37q-18 0 -30.5 8.5t-12.5 20.5t12.5 20t30.5 8h271q18 0 30.5 -8t12.5 -20l150 -653h9q18 0 30.5 -8.5t12.5 -19.5v-1zM393 168l-58 253q-1 6 -5.5 9t-9.5 3h-1.5t-1.5 -1q-4 -1 -7.5 -4t-4.5 -7l-64 -253h152v0zM486 774q-4 -10 -13 -16 t-22 -11q-1 0 -3.5 -0.5t-4.5 -1.5q-4 -1 -8.5 -1.5t-9.5 -0.5h-2.5h-2.5q-3 1 -5.5 1.5t-4.5 1.5q-20 10 -40 19t-40 19q-40 19 -79.5 38t-80.5 38q-4 2 -6 5t-2 7t2 7.5t5 7.5q12 20 33 35t50 27q4 2 8 2.5t8 1.5h4h4q5 0 10 -0.5t7 -2.5q47 -37 95 -74.5t96 -74.5 q2 -1 3 -4.5t1 -8.5v-2v-2q0 -3 -0.5 -5.5t-1.5 -4.5v0z" />
<glyph unicode="&#xc1;" horiz-adv-x="730" d="M740 -3q0 -10 -12.5 -18.5t-27.5 -9.5h-1.5h-1.5l-294 -1q0 1 -6.5 3.5t-14.5 5.5q-9 4 -15.5 9.5t-6.5 11.5q0 11 12.5 19.5t30.5 8.5h24l-21 89h-178l-23 -89h24q17 0 30 -8t13 -20q0 -11 -13 -20t-30 -9l-151 -1q-3 1 -8.5 2.5t-11.5 4.5q-9 4 -16 10t-7 13 q0 12 13 20t30 8h25l158 624h-37q-18 0 -30.5 8.5t-12.5 20.5t12.5 20t30.5 8h271q18 0 30.5 -8t12.5 -20l150 -653h9q18 0 30.5 -8.5t12.5 -19.5v-1zM393 168l-58 253q-1 6 -5.5 9t-9.5 3h-1.5t-1.5 -1q-4 -1 -7.5 -4t-4.5 -7l-64 -253h152v0zM562 881q2 -2 3 -4l2 -4 t1.5 -4t0.5 -4q0 -3 -1.5 -6t-6.5 -5l-80 -38l-80 -38q-20 -10 -40 -19t-40 -19q-4 -2 -7.5 -2.5t-8.5 -0.5h-2h-2q-3 0 -6.5 1t-6.5 1q-3 1 -5 1.5t-3 0.5q-13 5 -22 11t-13 16q-1 2 -1.5 6.5t-0.5 8.5t1 7.5t3 4.5q48 37 96 74.5t95 74.5q2 2 7 2.5t11 0.5h6t6 -1 q3 0 5.5 -1t5.5 -2q29 -12 50 -27t33 -35v0z" />
<glyph unicode="&#xc2;" horiz-adv-x="723" d="M740 -3q0 -10 -12.5 -18.5t-27.5 -9.5h-1.5h-1.5l-294 -1q0 1 -6.5 3.5t-14.5 5.5q-9 4 -15.5 9.5t-6.5 11.5q0 11 12.5 19.5t30.5 8.5h24l-21 89h-178l-23 -89h24q17 0 30 -8t13 -20q0 -11 -13 -20t-30 -9l-151 -1q-3 1 -8.5 2.5t-11.5 4.5q-9 4 -16 10t-7 13 q0 12 13 20t30 8h25l158 624h-37q-18 0 -30.5 8.5t-12.5 20.5t12.5 20t30.5 8h271q18 0 30.5 -8t12.5 -20l150 -653h9q18 0 30.5 -8.5t12.5 -19.5v-1zM393 168l-58 253q-1 6 -5.5 9t-9.5 3h-1.5t-1.5 -1q-4 -1 -7.5 -4t-4.5 -7l-64 -253h152v0zM607 806l-84 -56l-141 95 l-144 -97l-87 58l228 153l228 -153v0z" />
<glyph unicode="&#xc3;" horiz-adv-x="715" d="M740 -3q0 -10 -12.5 -18.5t-27.5 -9.5h-1.5h-1.5l-294 -1q0 1 -6.5 3.5t-14.5 5.5q-9 4 -15.5 9.5t-6.5 11.5q0 11 12.5 19.5t30.5 8.5h24l-21 89h-178l-23 -89h24q17 0 30 -8t13 -20q0 -11 -13 -20t-30 -9l-151 -1q-3 1 -8.5 2.5t-11.5 4.5q-9 4 -16 10t-7 13 q0 12 13 20t30 8h25l158 624h-37q-18 0 -30.5 8.5t-12.5 20.5t12.5 20t30.5 8h271q18 0 30.5 -8t12.5 -20l150 -653h9q18 0 30.5 -8.5t12.5 -19.5v-1zM393 168l-58 253q-1 6 -5.5 9t-9.5 3h-1.5t-1.5 -1q-4 -1 -7.5 -4t-4.5 -7l-64 -253h152v0zM534 797q-14 -17 -31 -29 t-34 -19q-10 -3 -19.5 -5t-18.5 -2q-20 0 -32 3.5t-22 7.5h-1.5t-1.5 1q-9 3 -19.5 6t-26.5 3q-18 0 -34 -5t-24 -14l-59 85q22 27 47.5 40.5t56.5 13.5q20 0 31.5 -3.5t20.5 -7.5q1 0 1.5 -0.5t1.5 -0.5q9 -4 18.5 -7t24.5 -3q19 0 35.5 6t25.5 15l60 -85v0z" />
<glyph unicode="&#xc4;" horiz-adv-x="723" d="M740 -3q0 -10 -12.5 -18.5t-27.5 -9.5h-1.5h-1.5l-294 -1q0 1 -6.5 3.5t-14.5 5.5q-9 4 -15.5 9.5t-6.5 11.5q0 11 12.5 19.5t30.5 8.5h24l-21 89h-178l-23 -89h24q17 0 30 -8t13 -20q0 -11 -13 -20t-30 -9l-151 -1q-3 1 -8.5 2.5t-11.5 4.5q-9 4 -16 10t-7 13 q0 12 13 20t30 8h25l158 624h-37q-18 0 -30.5 8.5t-12.5 20.5t12.5 20t30.5 8h271q18 0 30.5 -8t12.5 -20l150 -653h9q18 0 30.5 -8.5t12.5 -19.5v-1zM393 168l-58 253q-1 6 -5.5 9t-9.5 3h-1.5t-1.5 -1q-4 -1 -7.5 -4t-4.5 -7l-64 -253h152v0zM358 813q0 -28 -28 -46 t-68 -18t-68.5 18t-28.5 46q0 26 28.5 45t68.5 19t68 -19t28 -45v0zM579 813q0 -28 -27.5 -46t-67.5 -18q-41 0 -69 18t-28 46q0 26 28 45t69 19q40 0 67.5 -19t27.5 -45v0z" />
<glyph unicode="&#xc5;" horiz-adv-x="726" d="M718 -3q0 -10 -12.5 -18.5t-27.5 -9.5h-1.5h-1.5l-294 -1q0 1 -6.5 3.5t-14.5 5.5q-9 4 -15.5 9.5t-6.5 11.5q0 11 12.5 19.5t30.5 8.5h24l-21 89h-178l-23 -89h24q17 0 30 -8t13 -20q0 -11 -13 -20t-30 -9l-151 -1q-3 1 -8.5 2.5t-11.5 4.5q-9 4 -16 10t-7 13 q0 12 13 20t30 8h25l158 624h-37q-18 0 -30.5 8.5t-12.5 20.5t12.5 20t30.5 8h271q18 0 30.5 -8t12.5 -20l150 -653h9q18 0 30.5 -8.5t12.5 -19.5v-1zM371 168l-58 253q-1 6 -5.5 9t-9.5 3h-1.5t-1.5 -1q-4 -1 -7.5 -4t-4.5 -7l-64 -253h152v0zM483 844q0 -46 -31 -77.5 t-77 -31.5q-44 0 -76 31.5t-32 77.5q0 44 32 75.5t76 31.5q46 0 77 -31.5t31 -75.5v0zM406 843q0 14 -8.5 23t-22.5 9q-13 0 -22.5 -9t-9.5 -23q0 -13 9.5 -22t22.5 -9q14 0 22.5 9t8.5 22v0z" />
<glyph unicode="&#xc6;" horiz-adv-x="981" d="M966 81l-17 -83q-1 -2 -1.5 -5t-2.5 -6q-4 -11 -13 -20t-26 -9q-8 0 -15.5 1t-14.5 2q-3 1 -5.5 1.5t-4.5 0.5q-10 3 -21 4.5t-25 1.5l-379 -1q0 1 -6.5 3.5t-14.5 5.5q-9 4 -15.5 9.5t-6.5 11.5q0 7 6.5 13.5t14.5 10.5q2 1 5 1.5t6 0.5q2 0 4 0.5t4 0.5q8 1 15 3t7 5 v82h-203l-41 -89h24q17 0 30 -8t13 -20q0 -11 -13 -20t-30 -9l-151 -1q-3 1 -8.5 2.5t-11.5 4.5q-9 4 -16 10t-7 13q0 12 13 20t30 8h25l255 624h-37q-18 0 -30.5 8.5t-12.5 20.5t12.5 20t30.5 8h443q5 0 10.5 0.5t12.5 1.5q3 1 6.5 1.5t6.5 1.5q7 1 12 2t7 2t5 1h6 q4 0 8 -0.5t8 -1.5q12 -4 22.5 -11.5t16.5 -17.5l45 -88q2 -3 2.5 -6t0.5 -6q-1 -9 -6.5 -16.5t-16.5 -10.5q-2 -1 -4.5 -1.5t-4.5 -0.5q-3 -1 -5.5 -1h-4.5q-13 0 -23.5 4.5t-15.5 11.5l-48 78h-73l-8 -8v-228h77q0 1 -0.5 2t-0.5 2q-1 1 -1 2v2v2v2q2 6 7.5 12t16.5 9 q5 2 9 2h8q8 0 14.5 -2t11.5 -4q2 -1 3.5 -2t2.5 -2l69 -105q2 -2 3 -4l2 -4q0 -3 0.5 -5t0.5 -4q-1 -9 -7.5 -16t-18.5 -11q-4 -1 -8.5 -2t-9.5 -1q-13 0 -24.5 5t-15.5 12q-5 9 -8.5 16t-7.5 12q-9 14 -21.5 19t-43.5 5h-58v-329h73q17 0 26.5 6t14.5 13q2 2 3 3.5t2 2.5 l35 54q5 8 16.5 12.5t24.5 4.5q5 0 9 -0.5t8 -2.5q11 -3 16 -10t6 -14v-2v-2t-0.5 -2.5t-0.5 -2.5q0 -2 -0.5 -3t-0.5 -3v0zM460 168v380q0 6 -5 10.5t-12 5.5h-0.5h-1.5q-5 0 -9.5 -3t-7.5 -10l-155 -383h191v0z" />
<glyph unicode="&#xc7;" horiz-adv-x="598" d="M582 563q1 -2 1.5 -4.5t0.5 -5.5q-1 -10 -10 -19t-24 -12q-4 -1 -8 -1.5t-8 -0.5q-30 0 -44 20.5t-25 45.5q0 2 -0.5 3t-1.5 2q-11 27 -27.5 49.5t-53.5 22.5q-25 0 -41.5 -10.5t-16.5 -27.5v-576q0 -20 17.5 -29t38.5 -10h1.5h1.5q22 0 40 9t18 25v4v4v15t1 16 q2 21 14.5 38t45.5 17q26 0 45 -20t19 -49q0 -40 -48.5 -71.5t-106.5 -42.5q-11 -3 -22 -4.5t-22 -1.5v-23q62 -1 104.5 -16.5t42.5 -44.5q0 -27 -47.5 -44t-115.5 -17q-40 0 -73.5 6.5t-56.5 18.5l40 31q9 -2 22.5 -4.5t28.5 -3.5q8 -1 15.5 -1h14.5q23 0 38.5 3.5 t16.5 9.5q3 11 -22.5 18t-55.5 8q-5 1 -9.5 1h-9.5v63q-115 25 -193.5 132.5t-78.5 250.5q0 159 93 275t225 116h3h3h2.5h2.5q26 -1 38 -2t19 -1h2.5h2.5q6 1 15 3t30 7q2 0 3.5 0.5t3.5 0.5q1 1 3 1h3q27 0 46.5 -28t31.5 -62q10 -26 16.5 -50t10.5 -34v0z" />
<glyph unicode="&#xc8;" horiz-adv-x="600" d="M594 80l-19 -83q-1 -2 -1.5 -5.5t-1.5 -6.5q-4 -11 -13 -20t-26 -9q-9 0 -17 1t-15 3q-2 1 -4 1.5t-4 0.5q-10 2 -20.5 4t-25.5 2l-376 -1q0 1 -6.5 3.5t-14.5 6.5q-9 4 -15.5 9.5t-6.5 11.5q0 11 12.5 19.5t30.5 8.5l15 5v611l-15 6q-1 0 -7.5 2t-13.5 6q-8 4 -15 9.5 t-7 12.5q0 12 12.5 20t30.5 8h332q5 0 11 0.5t12 1.5q3 1 6.5 1.5t6.5 1.5q6 1 11 2t7 2q1 0 2.5 0.5t2.5 0.5h2.5h2.5q4 0 8 -0.5t9 -1.5q12 -4 23.5 -12t16.5 -19l45 -87q2 -3 3 -6t0 -6q0 -8 -6.5 -15.5t-17.5 -10.5q-2 -1 -4.5 -1.5t-4.5 -0.5q-3 -1 -5.5 -1h-4.5 q-13 0 -24 4.5t-15 11.5l-48 77h-72l-9 -8v-228h77q-1 2 -1 3.5v2.5q0 2 0.5 3.5t0.5 3.5q2 6 7.5 11.5t11.5 8.5q4 2 7.5 2.5t7.5 0.5h4t4 -1q8 -1 15 -3.5t12 -6.5q4 -2 6 -3.5t3 -3.5l66 -105q1 -1 1.5 -2.5t0.5 -2.5q1 -1 1 -2.5v-2.5q0 -8 -6.5 -15.5t-19.5 -11.5 q-2 -1 -4.5 -1.5t-4.5 -0.5q-3 -1 -5.5 -1h-4.5q-13 0 -23.5 5t-15.5 12l-23 34q-6 12 -20.5 15t-43.5 3h-53v-328h75q17 0 27 6t15 14q1 1 1.5 2t1.5 2l34 54q5 8 16 12t24 4h9.5t8.5 -2q12 -4 17 -12t5 -17v-4.5t-1 -4.5v0zM417 772q-4 -10 -13 -16t-22 -11 q-1 0 -3.5 -0.5t-4.5 -1.5q-4 -1 -8.5 -1.5t-9.5 -0.5h-2.5h-2.5q-3 1 -5.5 1.5t-4.5 1.5q-20 10 -40 19t-40 19q-40 19 -79.5 38t-80.5 38q-4 2 -6 5t-2 7t2 7.5t5 7.5q12 20 33 35t50 27q4 2 8 2.5t8 1.5h4h4q5 0 10 -0.5t7 -2.5q47 -37 95 -74.5t96 -74.5q2 -1 3 -4.5 t1 -8.5v-2v-2q0 -3 -0.5 -5.5t-1.5 -4.5v0z" />
<glyph unicode="&#xc9;" horiz-adv-x="600" d="M594 80l-19 -83q-1 -2 -1.5 -5.5t-1.5 -6.5q-4 -11 -13 -20t-26 -9q-9 0 -17 1t-15 3q-2 1 -4 1.5t-4 0.5q-10 2 -20.5 4t-25.5 2l-376 -1q0 1 -6.5 3.5t-14.5 6.5q-9 4 -15.5 9.5t-6.5 11.5q0 11 12.5 19.5t30.5 8.5l15 5v611l-15 6q-1 0 -7.5 2t-13.5 6q-8 4 -15 9.5 t-7 12.5q0 12 12.5 20t30.5 8h332q5 0 11 0.5t12 1.5q3 1 6.5 1.5t6.5 1.5q6 1 11 2t7 2q1 0 2.5 0.5t2.5 0.5h2.5h2.5q4 0 8 -0.5t9 -1.5q12 -4 23.5 -12t16.5 -19l45 -87q2 -3 3 -6t0 -6q0 -8 -6.5 -15.5t-17.5 -10.5q-2 -1 -4.5 -1.5t-4.5 -0.5q-3 -1 -5.5 -1h-4.5 q-13 0 -24 4.5t-15 11.5l-48 77h-72l-9 -8v-228h77q-1 2 -1 3.5v2.5q0 2 0.5 3.5t0.5 3.5q2 6 7.5 11.5t11.5 8.5q4 2 7.5 2.5t7.5 0.5h4t4 -1q8 -1 15 -3.5t12 -6.5q4 -2 6 -3.5t3 -3.5l66 -105q1 -1 1.5 -2.5t0.5 -2.5q1 -1 1 -2.5v-2.5q0 -8 -6.5 -15.5t-19.5 -11.5 q-2 -1 -4.5 -1.5t-4.5 -0.5q-3 -1 -5.5 -1h-4.5q-13 0 -23.5 5t-15.5 12l-23 34q-6 12 -20.5 15t-43.5 3h-53v-328h75q17 0 27 6t15 14q1 1 1.5 2t1.5 2l34 54q5 8 16 12t24 4h9.5t8.5 -2q12 -4 17 -12t5 -17v-4.5t-1 -4.5v0zM528 885q2 -2 3 -4l2 -4t1.5 -4t0.5 -4 q0 -3 -1.5 -6t-6.5 -5l-80 -38l-80 -38q-20 -10 -40 -19t-40 -19q-4 -2 -7.5 -2.5t-8.5 -0.5h-2h-2q-3 0 -6.5 1t-6.5 1q-3 1 -5 1.5t-3 0.5q-13 5 -22 11t-13 16q-1 2 -1.5 6.5t-0.5 8.5t1 7.5t3 4.5q48 37 96 74.5t95 74.5q2 2 7 2.5t11 0.5h6t6 -1q3 0 5.5 -1t5.5 -2 q29 -12 50 -27t33 -35v0z" />
<glyph unicode="&#xca;" horiz-adv-x="604" d="M594 80l-19 -83q-1 -2 -1.5 -5.5t-1.5 -6.5q-4 -11 -13 -20t-26 -9q-9 0 -17 1t-15 3q-2 1 -4 1.5t-4 0.5q-10 2 -20.5 4t-25.5 2l-376 -1q0 1 -6.5 3.5t-14.5 6.5q-9 4 -15.5 9.5t-6.5 11.5q0 11 12.5 19.5t30.5 8.5l15 5v611l-15 6q-1 0 -7.5 2t-13.5 6q-8 4 -15 9.5 t-7 12.5q0 12 12.5 20t30.5 8h332q5 0 11 0.5t12 1.5q3 1 6.5 1.5t6.5 1.5q6 1 11 2t7 2q1 0 2.5 0.5t2.5 0.5h2.5h2.5q4 0 8 -0.5t9 -1.5q12 -4 23.5 -12t16.5 -19l45 -87q2 -3 3 -6t0 -6q0 -8 -6.5 -15.5t-17.5 -10.5q-2 -1 -4.5 -1.5t-4.5 -0.5q-3 -1 -5.5 -1h-4.5 q-13 0 -24 4.5t-15 11.5l-48 77h-72l-9 -8v-228h77q-1 2 -1 3.5v2.5q0 2 0.5 3.5t0.5 3.5q2 6 7.5 11.5t11.5 8.5q4 2 7.5 2.5t7.5 0.5h4t4 -1q8 -1 15 -3.5t12 -6.5q4 -2 6 -3.5t3 -3.5l66 -105q1 -1 1.5 -2.5t0.5 -2.5q1 -1 1 -2.5v-2.5q0 -8 -6.5 -15.5t-19.5 -11.5 q-2 -1 -4.5 -1.5t-4.5 -0.5q-3 -1 -5.5 -1h-4.5q-13 0 -23.5 5t-15.5 12l-23 34q-6 12 -20.5 15t-43.5 3h-53v-328h75q17 0 27 6t15 14q1 1 1.5 2t1.5 2l34 54q5 8 16 12t24 4h9.5t8.5 -2q12 -4 17 -12t5 -17v-4.5t-1 -4.5v0zM513 792l-84 -56l-141 95l-144 -97l-87 58 l228 153l228 -153v0z" />
<glyph unicode="&#xcb;" horiz-adv-x="608" d="M594 80l-19 -83q-1 -2 -1.5 -5.5t-1.5 -6.5q-4 -11 -13 -20t-26 -9q-9 0 -17 1t-15 3q-2 1 -4 1.5t-4 0.5q-10 2 -20.5 4t-25.5 2l-376 -1q0 1 -6.5 3.5t-14.5 6.5q-9 4 -15.5 9.5t-6.5 11.5q0 11 12.5 19.5t30.5 8.5l15 5v611l-15 6q-1 0 -7.5 2t-13.5 6q-8 4 -15 9.5 t-7 12.5q0 12 12.5 20t30.5 8h332q5 0 11 0.5t12 1.5q3 1 6.5 1.5t6.5 1.5q6 1 11 2t7 2q1 0 2.5 0.5t2.5 0.5h2.5h2.5q4 0 8 -0.5t9 -1.5q12 -4 23.5 -12t16.5 -19l45 -87q2 -3 3 -6t0 -6q0 -8 -6.5 -15.5t-17.5 -10.5q-2 -1 -4.5 -1.5t-4.5 -0.5q-3 -1 -5.5 -1h-4.5 q-13 0 -24 4.5t-15 11.5l-48 77h-72l-9 -8v-228h77q-1 2 -1 3.5v2.5q0 2 0.5 3.5t0.5 3.5q2 6 7.5 11.5t11.5 8.5q4 2 7.5 2.5t7.5 0.5h4t4 -1q8 -1 15 -3.5t12 -6.5q4 -2 6 -3.5t3 -3.5l66 -105q1 -1 1.5 -2.5t0.5 -2.5q1 -1 1 -2.5v-2.5q0 -8 -6.5 -15.5t-19.5 -11.5 q-2 -1 -4.5 -1.5t-4.5 -0.5q-3 -1 -5.5 -1h-4.5q-13 0 -23.5 5t-15.5 12l-23 34q-6 12 -20.5 15t-43.5 3h-53v-328h75q17 0 27 6t15 14q1 1 1.5 2t1.5 2l34 54q5 8 16 12t24 4h9.5t8.5 -2q12 -4 17 -12t5 -17v-4.5t-1 -4.5v0zM278 825q0 -28 -28 -46t-68 -18t-68.5 18 t-28.5 46q0 26 28.5 45t68.5 19t68 -19t28 -45v0zM499 825q0 -28 -27.5 -46t-67.5 -18q-41 0 -69 18t-28 46q0 26 28 45t69 19q40 0 67.5 -19t27.5 -45v0z" />
<glyph unicode="&#xcc;" horiz-adv-x="393" d="M375 -1q0 -12 -13 -21t-30 -9l-270 -1q-19 1 -31 10t-12 22q0 10 12 19t31 9l9 5v610l-10 6q-18 0 -30.5 8.5t-12.5 21.5q0 12 12.5 20t30.5 8h269q18 0 30.5 -8t12.5 -20q0 -13 -12.5 -21.5t-30.5 -8.5l-10 -6v-610l12 -5q17 0 30 -9t13 -19v-1zM330 780q-4 -10 -13 -16 t-22 -11q-1 0 -3.5 -0.5t-4.5 -1.5q-4 -1 -8.5 -1.5t-9.5 -0.5h-2.5h-2.5q-3 1 -5.5 1.5t-4.5 1.5q-20 10 -40 19t-40 19q-40 19 -79.5 38t-80.5 38q-4 2 -6 5t-2 7t2 7.5t5 7.5q12 20 33 35t50 27q4 2 8 2.5t8 1.5h4h4q5 0 10 -0.5t7 -2.5q47 -37 95 -74.5t96 -74.5 q2 -1 3 -4.5t1 -8.5v-2v-2q0 -3 -0.5 -5.5t-1.5 -4.5v0z" />
<glyph unicode="&#xcd;" horiz-adv-x="390" d="M375 -1q0 -12 -13 -21t-30 -9l-270 -1q-19 1 -31 10t-12 22q0 10 12 19t31 9l9 5v610l-10 6q-18 0 -30.5 8.5t-12.5 21.5q0 12 12.5 20t30.5 8h269q18 0 30.5 -8t12.5 -20q0 -13 -12.5 -21.5t-30.5 -8.5l-10 -6v-610l12 -5q17 0 30 -9t13 -19v-1zM397 872q2 -2 3 -4l2 -4 t1.5 -4t0.5 -4q0 -3 -1.5 -6t-6.5 -5l-80 -38l-80 -38q-20 -10 -40 -19t-40 -19q-4 -2 -7.5 -2.5t-8.5 -0.5h-2h-2q-3 0 -6.5 1t-6.5 1q-3 1 -5 1.5t-3 0.5q-13 5 -22 11t-13 16q-1 2 -1.5 6.5t-0.5 8.5t1 7.5t3 4.5q48 37 96 74.5t95 74.5q2 2 7 2.5t11 0.5h6t6 -1 q3 0 5.5 -1t5.5 -2q29 -12 50 -27t33 -35v0z" />
<glyph unicode="&#xce;" horiz-adv-x="386" d="M375 -1q0 -12 -13 -21t-30 -9l-270 -1q-19 1 -31 10t-12 22q0 10 12 19t31 9l9 5v610l-10 6q-18 0 -30.5 8.5t-12.5 21.5q0 12 12.5 20t30.5 8h269q18 0 30.5 -8t12.5 -20q0 -13 -12.5 -21.5t-30.5 -8.5l-10 -6v-610l12 -5q17 0 30 -9t13 -19v-1zM435 798l-84 -56 l-141 95l-144 -97l-87 58l228 153l228 -153v0z" />
<glyph unicode="&#xcf;" horiz-adv-x="390" d="M375 -1q0 -12 -13 -21t-30 -9l-270 -1q-19 1 -31 10t-12 22q0 10 12 19t31 9l9 5v610l-10 6q-18 0 -30.5 8.5t-12.5 21.5q0 12 12.5 20t30.5 8h269q18 0 30.5 -8t12.5 -20q0 -13 -12.5 -21.5t-30.5 -8.5l-10 -6v-610l12 -5q17 0 30 -9t13 -19v-1zM183 807q0 -28 -28 -46 t-68 -18t-68 18t-28 46q0 26 28 45t68 19t68 -19t28 -45v0zM404 807q0 -28 -27.5 -46t-67.5 -18q-41 0 -69 18t-28 46q0 26 28 45t69 19q40 0 67.5 -19t27.5 -45v0z" />
<glyph unicode="&#xd0;" horiz-adv-x="788" d="M762 339q0 -152 -100 -260t-241 -108l-324 -1q-19 1 -31 9.5t-12 20.5q0 10 9.5 18.5t25.5 10.5l9 6v304h-62v60h62v243l-9 8q-16 2 -26 10t-10 20t12.5 20.5t30.5 8.5h325q141 0 241 -109t100 -261v0zM459 66v545q0 16 -16.5 27t-39.5 11q-22 0 -38.5 -11t-16.5 -27 q0 -4 3 -7t7 -6h0.5t0.5 -1q4 -3 7.5 -6t3.5 -8v-184h57v-60h-57v-242q0 -4 -3.5 -8t-7.5 -7l-0.5 -0.5l-0.5 -0.5q-4 -3 -7 -6t-3 -7q0 -15 16.5 -26t38.5 -11q11 0 21.5 3t17.5 9q7 4 12 10t5 13v0z" />
<glyph unicode="&#xd1;" horiz-adv-x="636" d="M602 664q4 -10 5 -23.5t1 -28.5q0 -23 -2.5 -49.5t-6.5 -53.5q-1 -8 -2 -15.5t-2 -14.5q-6 -35 -10 -66t-4 -52v-327l10 -6q21 0 31.5 -9.5t10.5 -19.5q0 -11 -10.5 -20.5t-31.5 -9.5q-25 0 -41 2.5t-31 11.5l-10 8t-10 9l-294 292q-2 2 -4.5 3t-4.5 1t-3.5 -1t-1.5 -3 v-259l11 -5q17 0 30 -9t13 -19q0 -13 -13 -22t-30 -9l-128 -1q-19 1 -31 10t-12 22q0 10 12 19t31 9l9 5v610l-10 6q-22 0 -32.5 9.5t-10.5 20.5q1 11 11.5 19.5t31.5 8.5h13.5t13.5 1h11.5h11.5q23 0 41.5 -5t35.5 -24l197 -213q4 -4 6.5 -9l4.5 -9q3 -9 4 -17.5t1 -13.5 q0 -18 9 -26.5t22 -7.5q3 0 5.5 0.5t5.5 1.5q11 3 21 12t14 22q3 11 4 20.5t1 18.5q0 27 -11 47.5t-27 39.5q-7 8 -14.5 16.5t-15.5 17.5q-10 12 -20 25t-18 28q-4 8 -6.5 16t-2.5 15q0 32 34 50.5t75 18.5h2h2q35 -1 66 -17.5t43 -50.5v0zM455 789q-14 -17 -31 -29t-34 -19 q-10 -3 -19.5 -5t-18.5 -2q-20 0 -32 3.5t-22 7.5h-1.5t-1.5 1q-9 3 -19.5 6t-26.5 3q-18 0 -34 -5t-24 -14l-59 85q22 27 47.5 40.5t56.5 13.5q20 0 31.5 -3.5t20.5 -7.5q1 0 1.5 -0.5t1.5 -0.5q9 -4 18.5 -7t24.5 -3q19 0 35.5 6t25.5 15l60 -85v0z" />
<glyph unicode="&#xd2;" horiz-adv-x="146" />
<glyph unicode="&#xd3;" horiz-adv-x="720" d="M711 339q0 -160 -99 -274t-239 -114q-141 0 -240 114t-99 274q0 162 99 276t240 114q140 0 239 -114t99 -276v0zM440 55q0 5 -3.5 8.5t-7.5 6.5q-5 3 -8.5 7t-3.5 8v535q0 19 -17.5 28t-39.5 9h-1.5h-1.5q-19 -1 -35.5 -10t-16.5 -27q0 -2 1 -4.5t3 -4.5q1 -2 3.5 -4.5 l4.5 -4.5q5 -4 8.5 -7l3.5 -3v-538q0 -16 17 -24.5t37 -9.5h1.5h1.5q21 0 37.5 8.5t16.5 26.5v0zM559 893q2 -2 3 -4l2 -4t1.5 -4t0.5 -4q0 -3 -1.5 -6t-6.5 -5l-80 -38l-80 -38q-20 -10 -40 -19t-40 -19q-4 -2 -7.5 -2.5t-8.5 -0.5h-2h-2q-3 0 -6.5 1t-6.5 1q-3 1 -5 1.5 t-3 0.5q-13 5 -22 11t-13 16q-1 2 -1.5 6.5t-0.5 8.5t1 7.5t3 4.5q48 37 96 74.5t95 74.5q2 2 7 2.5t11 0.5h6t6 -1q3 0 5.5 -1t5.5 -2q29 -12 50 -27t33 -35v0z" />
<glyph unicode="&#xd4;" horiz-adv-x="727" d="M711 339q0 -160 -99 -274t-239 -114q-141 0 -240 114t-99 274q0 162 99 276t240 114q140 0 239 -114t99 -276v0zM440 55q0 5 -3.5 8.5t-7.5 6.5q-5 3 -8.5 7t-3.5 8v535q0 19 -17.5 28t-39.5 9h-1.5h-1.5q-19 -1 -35.5 -10t-16.5 -27q0 -2 1 -4.5t3 -4.5q1 -2 3.5 -4.5 l4.5 -4.5q5 -4 8.5 -7l3.5 -3v-538q0 -16 17 -24.5t37 -9.5h1.5h1.5q21 0 37.5 8.5t16.5 26.5v0zM596 796l-84 -56l-141 95l-144 -97l-87 58l228 153l228 -153v0z" />
<glyph unicode="&#xd5;" horiz-adv-x="723" d="M711 339q0 -160 -99 -274t-239 -114q-141 0 -240 114t-99 274q0 162 99 276t240 114q140 0 239 -114t99 -276v0zM440 55q0 5 -3.5 8.5t-7.5 6.5q-5 3 -8.5 7t-3.5 8v535q0 19 -17.5 28t-39.5 9h-1.5h-1.5q-19 -1 -35.5 -10t-16.5 -27q0 -2 1 -4.5t3 -4.5q1 -2 3.5 -4.5 l4.5 -4.5q5 -4 8.5 -7l3.5 -3v-538q0 -16 17 -24.5t37 -9.5h1.5h1.5q21 0 37.5 8.5t16.5 26.5v0zM543 810q-14 -17 -31 -29t-34 -19q-10 -3 -19.5 -5t-18.5 -2q-20 0 -32 3.5t-22 7.5h-1.5t-1.5 1q-9 3 -19.5 6t-26.5 3q-18 0 -34 -5t-24 -14l-59 85q22 27 47.5 40.5 t56.5 13.5q20 0 31.5 -3.5t20.5 -7.5q1 0 1.5 -0.5t1.5 -0.5q9 -4 18.5 -7t24.5 -3q19 0 35.5 6t25.5 15l60 -85v0z" />
<glyph unicode="&#xd6;" horiz-adv-x="723" d="M711 339q0 -160 -99 -274t-239 -114q-141 0 -240 114t-99 274q0 162 99 276t240 114q140 0 239 -114t99 -276v0zM440 55q0 5 -3.5 8.5t-7.5 6.5q-5 3 -8.5 7t-3.5 8v535q0 19 -17.5 28t-39.5 9h-1.5h-1.5q-19 -1 -35.5 -10t-16.5 -27q0 -2 1 -4.5t3 -4.5q1 -2 3.5 -4.5 l4.5 -4.5q5 -4 8.5 -7l3.5 -3v-538q0 -16 17 -24.5t37 -9.5h1.5h1.5q21 0 37.5 8.5t16.5 26.5v0zM350 841q0 -28 -28 -46t-68 -18t-68.5 18t-28.5 46q0 26 28.5 45t68.5 19t68 -19t28 -45v0zM571 841q0 -28 -27.5 -46t-67.5 -18q-41 0 -69 18t-28 46q0 26 28 45t69 19 q40 0 67.5 -19t27.5 -45v0z" />
<glyph unicode="&#xd7;" horiz-adv-x="419" d="M389 429l-123 -124l122 -123l-51 -52l-123 122l-124 -122l-51 52l121 123l-122 125l51 51l124 -122l125 122l51 -52v0z" />
<glyph unicode="&#xd8;" horiz-adv-x="723" d="M690 341q0 -156 -96 -266.5t-232 -110.5q-30 0 -58.5 5.5t-54.5 16.5l-35 -105h-61l44 132q-73 50 -118.5 136.5t-45.5 191.5q0 157 96.5 268t232.5 111q8 0 16.5 -0.5t17.5 -1.5q8 -1 16.5 -2.5t16.5 -3.5l30 91h61l-37 -111q91 -41 149 -136.5t58 -214.5v0zM427 49 q0 5 -3.5 8.5t-7.5 6.5l-0.5 0.5l-0.5 0.5q-4 3 -7 6t-3 7l-1 372l-86 -256l1 -146q0 -7 5 -12.5t11 -9.5q8 -6 17.5 -9t20.5 -3q22 0 38 11t16 24v0zM402 633q-1 15 -16 25.5t-36 10.5q-22 0 -38 -11t-16 -26q0 -2 1 -4l2 -4l4 -4l4 -4q4 -3 7.5 -6t3.5 -5v-228l84 256v0z " />
<glyph unicode="&#xd9;" horiz-adv-x="656" d="M670 679q0 -13 -12.5 -21.5t-30.5 -8.5l-10 -6v-553q0 -58 -78 -99t-187 -41q-110 0 -188.5 41t-78.5 99v553l-10 6q-18 0 -30.5 8.5t-12.5 21.5q0 12 12.5 20.5t30.5 8.5h270q17 0 29.5 -8.5t12.5 -20.5q0 -13 -12.5 -21.5t-29.5 -8.5l-11 -6v-525q0 -24 27 -41t64 -17 t64.5 17t27.5 40v526l-10 6q-18 0 -30.5 8.5t-12.5 21.5q0 12 12.5 20.5t30.5 8.5h120q18 0 30.5 -8.5t12.5 -20.5v0zM507 770q-4 -10 -13 -16t-22 -11q-1 0 -3.5 -0.5t-4.5 -1.5q-4 -1 -8.5 -1.5t-9.5 -0.5h-2.5h-2.5q-3 1 -5.5 1.5t-4.5 1.5q-20 10 -40 19t-40 19 q-40 19 -79.5 38t-80.5 38q-4 2 -6 5t-2 7t2 7.5t5 7.5q12 20 33 35t50 27q4 2 8 2.5t8 1.5h4h4q5 0 10 -0.5t7 -2.5q47 -37 95 -74.5t96 -74.5q2 -1 3 -4.5t1 -8.5v-2v-2q0 -3 -0.5 -5.5t-1.5 -4.5v0z" />
<glyph unicode="&#xda;" horiz-adv-x="653" d="M670 679q0 -13 -12.5 -21.5t-30.5 -8.5l-10 -6v-553q0 -58 -78 -99t-187 -41q-110 0 -188.5 41t-78.5 99v553l-10 6q-18 0 -30.5 8.5t-12.5 21.5q0 12 12.5 20.5t30.5 8.5h270q17 0 29.5 -8.5t12.5 -20.5q0 -13 -12.5 -21.5t-29.5 -8.5l-11 -6v-525q0 -24 27 -41t64 -17 t64.5 17t27.5 40v526l-10 6q-18 0 -30.5 8.5t-12.5 21.5q0 12 12.5 20.5t30.5 8.5h120q18 0 30.5 -8.5t12.5 -20.5v0zM568 873q2 -2 3 -4l2 -4t1.5 -4t0.5 -4q0 -3 -1.5 -6t-6.5 -5l-80 -38l-80 -38q-20 -10 -40 -19t-40 -19q-4 -2 -7.5 -2.5t-8.5 -0.5h-2h-2q-3 0 -6.5 1 t-6.5 1q-3 1 -5 1.5t-3 0.5q-13 5 -22 11t-13 16q-1 2 -1.5 6.5t-0.5 8.5t1 7.5t3 4.5q48 37 96 74.5t95 74.5q2 2 7 2.5t11 0.5h6t6 -1q3 0 5.5 -1t5.5 -2q29 -12 50 -27t33 -35v0z" />
<glyph unicode="&#xdb;" horiz-adv-x="664" d="M670 679q0 -13 -12.5 -21.5t-30.5 -8.5l-10 -6v-553q0 -58 -78 -99t-187 -41q-110 0 -188.5 41t-78.5 99v553l-10 6q-18 0 -30.5 8.5t-12.5 21.5q0 12 12.5 20.5t30.5 8.5h270q17 0 29.5 -8.5t12.5 -20.5q0 -13 -12.5 -21.5t-29.5 -8.5l-11 -6v-525q0 -24 27 -41t64 -17 t64.5 17t27.5 40v526l-10 6q-18 0 -30.5 8.5t-12.5 21.5q0 12 12.5 20.5t30.5 8.5h120q18 0 30.5 -8.5t12.5 -20.5v0zM610 798l-84 -56l-141 95l-144 -97l-87 58l228 153l228 -153v0z" />
<glyph unicode="&#xdc;" horiz-adv-x="657" d="M670 679q0 -13 -12.5 -21.5t-30.5 -8.5l-10 -6v-553q0 -58 -78 -99t-187 -41q-110 0 -188.5 41t-78.5 99v553l-10 6q-18 0 -30.5 8.5t-12.5 21.5q0 12 12.5 20.5t30.5 8.5h270q17 0 29.5 -8.5t12.5 -20.5q0 -13 -12.5 -21.5t-29.5 -8.5l-11 -6v-525q0 -24 27 -41t64 -17 t64.5 17t27.5 40v526l-10 6q-18 0 -30.5 8.5t-12.5 21.5q0 12 12.5 20.5t30.5 8.5h120q18 0 30.5 -8.5t12.5 -20.5v0zM368 800q0 -28 -28 -46t-68 -18t-68.5 18t-28.5 46q0 26 28.5 45t68.5 19t68 -19t28 -45v0zM589 800q0 -28 -27.5 -46t-67.5 -18q-41 0 -69 18t-28 46 q0 26 28 45t69 19q40 0 67.5 -19t27.5 -45v0z" />
<glyph unicode="&#xdd;" horiz-adv-x="146" />
<glyph unicode="&#xde;" horiz-adv-x="697" d="M666 383q0 -154 -58 -209.5t-159 -55.5h-132v-85l11 -6q17 0 30 -8.5t13 -18.5q0 -13 -13 -22t-30 -9l-252 -1q-19 1 -31 10t-12 22q0 10 12 18.5t31 8.5l9 6v612l-10 6q-18 0 -30.5 10t-12.5 23q0 12 12.5 20t30.5 8h264q19 0 31 -8.5t12 -19.5t-11 -19.5t-25 -10.5 q-2 -1 -3.5 -1h-3.5h-26v-12v-8v-5v-2v0v0l136 1q101 1 159 -44.5t58 -199.5v0zM429 215v305q0 15 -16.5 26t-39.5 11q-22 0 -38.5 -11t-16.5 -26q0 -4 3 -7t7 -6l0.5 -0.5l0.5 -0.5q5 -3 8.5 -6.5t3.5 -8.5v-245q0 -4 -3.5 -8t-7.5 -7q-5 -3 -8.5 -6.5t-3.5 -8.5 q0 -14 16.5 -25t38.5 -11q11 0 21.5 3.5t17.5 8.5q7 4 12 10t5 13v0z" />
<glyph unicode="&#xdf;" horiz-adv-x="703" d="M688 474q0 -33 -32.5 -55t-73.5 -39l-58 -26q73 -9 106 -51.5t33 -93.5v-3.5v-2.5q-2 -41 -22.5 -79.5t-56.5 -60.5q-11 -7 -25 -15.5t-29 -17.5q-28 -18 -51.5 -38.5t-26.5 -41.5q-1 -2 -1 -3.5v-3.5q0 -9 5 -17.5t15 -16.5q11 -8 18 -20.5t9 -26.5v-3v-3 q-1 -20 -15.5 -35.5t-46.5 -15.5q-33 0 -48.5 21.5t-19.5 46.5q-1 7 -1.5 13t-0.5 12q0 11 1.5 21t3.5 16l6 16t6 15q14 36 26 72t12 67q0 6 1 15.5t2 21.5t2 25.5t1 27.5q0 35 -11.5 64t-47.5 29q-22 0 -37.5 -10.5t-15.5 -24.5q0 -2 1.5 -5t3.5 -6q1 -1 2.5 -3t2.5 -4 q3 -2 5.5 -4.5l3.5 -3.5v-186q0 -37 -16.5 -50.5t-77.5 -13.5l-164 -1q-19 1 -31 9.5t-12 20.5t12 20.5t31 8.5q3 0 5.5 2t2.5 4v418q0 21 5.5 44t16.5 47q29 65 93.5 119t154.5 53q17 0 33.5 -1.5t33.5 -6.5q30 -7 44.5 -19t16.5 -25q1 -2 1 -3.5v-2.5q-1 -21 -22.5 -38 t-46.5 -19h-3.5h-2.5q-14 0 -27.5 6.5t-22.5 22.5q-22 -6 -36 -24t-14 -41q0 -21 10 -37.5t25 -25.5q11 5 23 10.5t23 11.5q34 17 70.5 30.5t77.5 13.5q62 0 106.5 -29t44.5 -71v0zM440 397q0 27 -15.5 46t-37.5 19t-38 -19t-16 -46q0 -28 16 -47t38 -19t37.5 19t15.5 47v0z " />
<glyph unicode="&#xe0;" horiz-adv-x="651" d="M640 -1q0 -12 -13 -21t-30 -9q-9 0 -20 -0.5t-25 -0.5q-13 0 -27.5 -0.5t-29.5 -0.5h-4h-4q-40 0 -75.5 5.5t-49.5 21.5q-34 -24 -67 -34.5t-64 -10.5q-78 1 -134 54t-67 118q-1 7 -1.5 13.5t-0.5 13.5q0 80 34.5 140.5t145.5 91.5q16 5 31.5 8.5t29.5 7.5q50 15 79.5 34 t29.5 64v8.5t-1 8.5q-2 18 -16.5 27t-31.5 12q-5 1 -10 1.5t-9 0.5h-2.5h-3.5q-38 -3 -49.5 -22.5t-18.5 -42.5q-7 -26 -21 -47.5t-65 -21.5h-6h-7q-20 2 -35.5 17.5t-15.5 38.5v2t1 3v2v2q8 56 70 84.5t141 28.5q10 0 19.5 -0.5t19.5 -1.5q93 -8 171 -57.5t78 -140.5v-363 l11 -6q17 0 30 -8.5t13 -18.5v-1zM378 88q0 5 -3.5 8.5l-7.5 7.5q-5 4 -8.5 8t-3.5 8v158q0 5 3.5 8.5t8.5 7.5l0.5 0.5l1.5 1.5q4 3 6.5 6t2.5 7q0 20 -17.5 29.5t-38.5 9.5t-38 -9.5t-17 -29.5v-223q0 -18 17.5 -27t38.5 -9t38 9.5t17 28.5v0zM461 661q-4 -10 -13 -16 t-22 -11q-1 0 -3.5 -0.5t-4.5 -1.5q-4 -1 -8.5 -1.5t-9.5 -0.5h-2.5h-2.5q-3 1 -5.5 1.5t-4.5 1.5q-20 10 -40 19t-40 19q-40 19 -79.5 38t-80.5 38q-4 2 -6 5t-2 7t2 7.5t5 7.5q12 20 33 35t50 27q4 2 8 2.5t8 1.5h4h4q5 0 10 -0.5t7 -2.5q47 -37 95 -74.5t96 -74.5 q2 -1 3 -4.5t1 -8.5v-2v-2q0 -3 -0.5 -5.5t-1.5 -4.5v0z" />
<glyph unicode="&#xe1;" horiz-adv-x="660" d="M643 -1q0 -12 -13 -21t-30 -9q-9 0 -20 -0.5t-25 -0.5q-13 0 -27.5 -0.5t-29.5 -0.5h-4h-4q-40 0 -75.5 5.5t-49.5 21.5q-34 -24 -67 -34.5t-64 -10.5q-78 1 -134 54t-67 118q-1 7 -1.5 13.5t-0.5 13.5q0 80 34.5 140.5t145.5 91.5q16 5 31.5 8.5t29.5 7.5q50 15 79.5 34 t29.5 64v8.5t-1 8.5q-2 18 -16.5 27t-31.5 12q-5 1 -10 1.5t-9 0.5h-2.5h-3.5q-38 -3 -49.5 -22.5t-18.5 -42.5q-7 -26 -21 -47.5t-65 -21.5h-6h-7q-20 2 -35.5 17.5t-15.5 38.5v2t1 3v2v2q8 56 70 84.5t141 28.5q10 0 19.5 -0.5t19.5 -1.5q93 -8 171 -57.5t78 -140.5v-363 l11 -6q17 0 30 -8.5t13 -18.5v-1zM381 88q0 5 -3.5 8.5l-7.5 7.5q-5 4 -8.5 8t-3.5 8v158q0 5 3.5 8.5t8.5 7.5l0.5 0.5l1.5 1.5q4 3 6.5 6t2.5 7q0 20 -17.5 29.5t-38.5 9.5t-38 -9.5t-17 -29.5v-223q0 -18 17.5 -27t38.5 -9t38 9.5t17 28.5v0zM590 766q2 -2 3 -4l2 -4 t1.5 -4t0.5 -4q0 -3 -1.5 -6t-6.5 -5l-80 -38l-80 -38q-20 -10 -40 -19t-40 -19q-4 -2 -7.5 -2.5t-8.5 -0.5h-2h-2q-3 0 -6.5 1t-6.5 1q-3 1 -5 1.5t-3 0.5q-13 5 -22 11t-13 16q-1 2 -1.5 6.5t-0.5 8.5t1 7.5t3 4.5q48 37 96 74.5t95 74.5q2 2 7 2.5t11 0.5h6t6 -1 q3 0 5.5 -1t5.5 -2q29 -12 50 -27t33 -35v0z" />
<glyph unicode="&#xe2;" horiz-adv-x="654" d="M643 -1q0 -12 -13 -21t-30 -9q-9 0 -20 -0.5t-25 -0.5q-13 0 -27.5 -0.5t-29.5 -0.5h-4h-4q-40 0 -75.5 5.5t-49.5 21.5q-34 -24 -67 -34.5t-64 -10.5q-78 1 -134 54t-67 118q-1 7 -1.5 13.5t-0.5 13.5q0 80 34.5 140.5t145.5 91.5q16 5 31.5 8.5t29.5 7.5q50 15 79.5 34 t29.5 64v8.5t-1 8.5q-2 18 -16.5 27t-31.5 12q-5 1 -10 1.5t-9 0.5h-2.5h-3.5q-38 -3 -49.5 -22.5t-18.5 -42.5q-7 -26 -21 -47.5t-65 -21.5h-6h-7q-20 2 -35.5 17.5t-15.5 38.5v2t1 3v2v2q8 56 70 84.5t141 28.5q10 0 19.5 -0.5t19.5 -1.5q93 -8 171 -57.5t78 -140.5v-363 l11 -6q17 0 30 -8.5t13 -18.5v-1zM381 88q0 5 -3.5 8.5l-7.5 7.5q-5 4 -8.5 8t-3.5 8v158q0 5 3.5 8.5t8.5 7.5l0.5 0.5l1.5 1.5q4 3 6.5 6t2.5 7q0 20 -17.5 29.5t-38.5 9.5t-38 -9.5t-17 -29.5v-223q0 -18 17.5 -27t38.5 -9t38 9.5t17 28.5v0zM550 666l-84 -56l-141 95 l-144 -97l-87 58l228 153l228 -153v0z" />
<glyph unicode="&#xe3;" horiz-adv-x="660" d="M643 -1q0 -12 -13 -21t-30 -9q-9 0 -20 -0.5t-25 -0.5q-13 0 -27.5 -0.5t-29.5 -0.5h-4h-4q-40 0 -75.5 5.5t-49.5 21.5q-34 -24 -67 -34.5t-64 -10.5q-78 1 -134 54t-67 118q-1 7 -1.5 13.5t-0.5 13.5q0 80 34.5 140.5t145.5 91.5q16 5 31.5 8.5t29.5 7.5q50 15 79.5 34 t29.5 64v8.5t-1 8.5q-2 18 -16.5 27t-31.5 12q-5 1 -10 1.5t-9 0.5h-2.5h-3.5q-38 -3 -49.5 -22.5t-18.5 -42.5q-7 -26 -21 -47.5t-65 -21.5h-6h-7q-20 2 -35.5 17.5t-15.5 38.5v2t1 3v2v2q8 56 70 84.5t141 28.5q10 0 19.5 -0.5t19.5 -1.5q93 -8 171 -57.5t78 -140.5v-363 l11 -6q17 0 30 -8.5t13 -18.5v-1zM381 88q0 5 -3.5 8.5l-7.5 7.5q-5 4 -8.5 8t-3.5 8v158q0 5 3.5 8.5t8.5 7.5l0.5 0.5l1.5 1.5q4 3 6.5 6t2.5 7q0 20 -17.5 29.5t-38.5 9.5t-38 -9.5t-17 -29.5v-223q0 -18 17.5 -27t38.5 -9t38 9.5t17 28.5v0zM521 673q-14 -17 -31 -29 t-34 -19q-10 -3 -19.5 -5t-18.5 -2q-20 0 -32 3.5t-22 7.5h-1.5t-1.5 1q-9 3 -19.5 6t-26.5 3q-18 0 -34 -5t-24 -14l-59 85q22 27 47.5 40.5t56.5 13.5q20 0 31.5 -3.5t20.5 -7.5q1 0 1.5 -0.5t1.5 -0.5q9 -4 18.5 -7t24.5 -3q19 0 35.5 6t25.5 15l60 -85v0z" />
<glyph unicode="&#xe4;" horiz-adv-x="660" d="M643 -1q0 -12 -13 -21t-30 -9q-9 0 -20 -0.5t-25 -0.5q-13 0 -27.5 -0.5t-29.5 -0.5h-4h-4q-40 0 -75.5 5.5t-49.5 21.5q-34 -24 -67 -34.5t-64 -10.5q-78 1 -134 54t-67 118q-1 7 -1.5 13.5t-0.5 13.5q0 80 34.5 140.5t145.5 91.5q16 5 31.5 8.5t29.5 7.5q50 15 79.5 34 t29.5 64v8.5t-1 8.5q-2 18 -16.5 27t-31.5 12q-5 1 -10 1.5t-9 0.5h-2.5h-3.5q-38 -3 -49.5 -22.5t-18.5 -42.5q-7 -26 -21 -47.5t-65 -21.5h-6h-7q-20 2 -35.5 17.5t-15.5 38.5v2t1 3v2v2q8 56 70 84.5t141 28.5q10 0 19.5 -0.5t19.5 -1.5q93 -8 171 -57.5t78 -140.5v-363 l11 -6q17 0 30 -8.5t13 -18.5v-1zM381 88q0 5 -3.5 8.5l-7.5 7.5q-5 4 -8.5 8t-3.5 8v158q0 5 3.5 8.5t8.5 7.5l0.5 0.5l1.5 1.5q4 3 6.5 6t2.5 7q0 20 -17.5 29.5t-38.5 9.5t-38 -9.5t-17 -29.5v-223q0 -18 17.5 -27t38.5 -9t38 9.5t17 28.5v0zM316 687q0 -28 -28 -46 t-68 -18t-68.5 18t-28.5 46q0 26 28.5 45t68.5 19t68 -19t28 -45v0zM537 687q0 -28 -27.5 -46t-67.5 -18q-41 0 -69 18t-28 46q0 26 28 45t69 19q40 0 67.5 -19t27.5 -45v0z" />
<glyph unicode="&#xe5;" horiz-adv-x="657" d="M643 -1q0 -12 -13 -21t-30 -9q-9 0 -20 -0.5t-25 -0.5q-13 0 -27.5 -0.5t-29.5 -0.5h-4h-4q-40 0 -75.5 5.5t-49.5 21.5q-34 -24 -67 -34.5t-64 -10.5q-78 1 -134 54t-67 118q-1 7 -1.5 13.5t-0.5 13.5q0 80 34.5 140.5t145.5 91.5q16 5 31.5 8.5t29.5 7.5q50 15 79.5 34 t29.5 64v8.5t-1 8.5q-2 18 -16.5 27t-31.5 12q-5 1 -10 1.5t-9 0.5h-2.5h-3.5q-38 -3 -49.5 -22.5t-18.5 -42.5q-7 -26 -21 -47.5t-65 -21.5h-6h-7q-20 2 -35.5 17.5t-15.5 38.5v2t1 3v2v2q8 56 70 84.5t141 28.5q10 0 19.5 -0.5t19.5 -1.5q93 -8 171 -57.5t78 -140.5v-363 l11 -6q17 0 30 -8.5t13 -18.5v-1zM381 88q0 5 -3.5 8.5l-7.5 7.5q-5 4 -8.5 8t-3.5 8v158q0 5 3.5 8.5t8.5 7.5l0.5 0.5l1.5 1.5q4 3 6.5 6t2.5 7q0 20 -17.5 29.5t-38.5 9.5t-38 -9.5t-17 -29.5v-223q0 -18 17.5 -27t38.5 -9t38 9.5t17 28.5v0zM415 882q0 -46 -31 -77.5 t-77 -31.5q-44 0 -76 31.5t-32 77.5q0 44 32 75.5t76 31.5q46 0 77 -31.5t31 -75.5v0zM338 881q0 14 -8.5 23t-22.5 9q-13 0 -22.5 -9t-9.5 -23q0 -13 9.5 -22t22.5 -9q14 0 22.5 9t8.5 22v0z" />
<glyph unicode="&#xe6;" horiz-adv-x="882" d="M880 414q0 -2 -0.5 -4t-1.5 -4q-2 -4 -6 -8t-12 -5h-252v-346q0 -7 4.5 -12.5t10.5 -9.5q8 -6 18.5 -9t21.5 -3q23 0 39.5 11t16.5 25q0 2 -0.5 5.5t-2.5 7.5q0 2 -0.5 3.5t-1.5 2.5v2v1l-2 8t-1 9q0 24 21.5 41.5t49.5 17.5q30 0 51.5 -17.5t21.5 -41.5 q0 -14 -7.5 -25.5t-15.5 -19.5q-2 -1 -3 -2l-2 -2q-36 -32 -83.5 -50.5t-100.5 -18.5q-47 0 -92.5 12t-83.5 36q-6 4 -12.5 6t-13.5 1q-10 0 -21.5 -4t-23.5 -12l-10 -6t-11 -7q-18 -10 -45.5 -18.5t-74.5 -8.5q-87 0 -150 51t-63 161q0 59 17.5 101.5t50.5 67.5 q17 14 46 26t66 22q13 4 26 7.5t25 6.5q27 7 50.5 15.5t39.5 19.5t23 28t7 36q0 2 -0.5 4.5t-0.5 5.5q0 2 -0.5 4.5t-0.5 4.5q-1 18 -16 27t-32 12q-6 1 -11.5 1.5t-10.5 0.5h-1.5h-1.5q-18 -2 -28 -6.5t-15 -9.5q-4 -4 -6 -7.5t-4 -5.5q-2 -5 -4.5 -11t-5.5 -13 q-1 -5 -3 -10t-4 -11q-3 -8 -6 -16.5t-7 -16.5q-10 -17 -30 -22t-43 -5h-2.5h-2.5h-2.5h-2.5q-22 2 -37 18t-14 39v2v2v1v2q7 48 61.5 79.5t184.5 31.5q44 0 77.5 -12.5t56.5 -32.5q29 17 63.5 27t74.5 13q151 1 206 -56t55 -137v0zM392 104q0 5 -3.5 8.5t-7.5 6.5t-7.5 7 t-3.5 8v168q0 5 3.5 8.5t7.5 6.5l0.5 0.5l0.5 0.5q4 3 7 6t3 7q0 15 -16 26t-39 11q-22 0 -39 -11t-17 -26v-228q0 -7 5 -13t12 -10q8 -6 18 -8.5t20 -2.5q21 0 38.5 9.5t17.5 25.5v0zM731 430v60q0 32 -18 54t-45 22q-26 0 -44.5 -22t-18.5 -54v-60h126v0z" />
<glyph unicode="&#xe7;" horiz-adv-x="563" d="M537 67q0 -15 -8 -28t-18 -21q-37 -31 -84.5 -50t-99.5 -19h-1.5h-1.5v-11q56 -1 94.5 -15t38.5 -39t-43 -40t-104 -15q-36 0 -66.5 5.5t-50.5 16.5l36 28q8 -2 20.5 -4t25.5 -3q8 -1 14.5 -1h13.5q20 0 33.5 3t14.5 8v0.5v0.5v0.5v0.5q-1 10 -23.5 15.5t-49.5 7.5h-6.5 h-7.5v46q-102 18 -170 94.5t-68 220.5q0 164 88 241.5t213 77.5q15 0 31.5 -1.5t33.5 -5.5q27 -5 52.5 -13.5t42.5 -20.5q18 -12 31.5 -30.5t13.5 -41.5q0 -34 -24 -58.5t-59 -24.5q-36 0 -61 24.5t-25 58.5q0 17 8 32.5t20 26.5q-7 5 -17 9t-20 5h-3.5h-3.5 q-22 0 -38.5 -11t-16.5 -26v-483q0 -7 4.5 -12.5t10.5 -9.5q8 -6 18.5 -8.5t21.5 -2.5q23 0 39.5 10.5t16.5 24.5q0 2 -0.5 4t-1.5 4q0 1 -0.5 2.5t-0.5 2.5l-1.5 3t-0.5 3q-2 4 -2.5 8.5t-0.5 10.5q0 24 21.5 42t49.5 18q29 0 50 -18t21 -42v0z" />
<glyph unicode="&#xe8;" horiz-adv-x="582" d="M564 393q0 -2 -0.5 -4t-1.5 -5q-2 -4 -6 -7.5t-12 -3.5h-251v-346q0 -7 4.5 -12.5t10.5 -9.5q8 -6 18.5 -8.5t21.5 -2.5q23 0 39.5 10.5t16.5 23.5q0 3 -0.5 6.5t-2.5 7.5l-2 4t-1 4q-1 4 -1.5 8t-0.5 8q0 25 21.5 42.5t49.5 17.5q29 0 50.5 -17.5t21.5 -42.5 q0 -13 -7.5 -25.5t-16.5 -21.5q-1 0 -1.5 -0.5l-1.5 -1.5q-37 -31 -84.5 -49.5t-99.5 -18.5q-124 0 -212.5 77t-88.5 241q0 155 77.5 232t192.5 86q5 2 8 2.5t4 0.5q146 0 200.5 -57.5t54.5 -137.5v0zM416 409v60q0 32 -18 54t-45 22q-26 0 -44.5 -22t-18.5 -54v-60h126v0z M453 641q-4 -10 -13 -16t-22 -11q-1 0 -3.5 -0.5t-4.5 -1.5q-4 -1 -8.5 -1.5t-9.5 -0.5h-2.5h-2.5q-3 1 -5.5 1.5t-4.5 1.5q-20 10 -40 19t-40 19q-40 19 -79.5 38t-80.5 38q-4 2 -6 5t-2 7t2 7.5t5 7.5q12 20 33 35t50 27q4 2 8 2.5t8 1.5h4h4q5 0 10 -0.5t7 -2.5 q47 -37 95 -74.5t96 -74.5q2 -1 3 -4.5t1 -8.5v-2v-2q0 -3 -0.5 -5.5t-1.5 -4.5v0z" />
<glyph unicode="&#xe9;" horiz-adv-x="588" d="M564 393q0 -2 -0.5 -4t-1.5 -5q-2 -4 -6 -7.5t-12 -3.5h-251v-346q0 -7 4.5 -12.5t10.5 -9.5q8 -6 18.5 -8.5t21.5 -2.5q23 0 39.5 10.5t16.5 23.5q0 3 -0.5 6.5t-2.5 7.5l-2 4t-1 4q-1 4 -1.5 8t-0.5 8q0 25 21.5 42.5t49.5 17.5q29 0 50.5 -17.5t21.5 -42.5 q0 -13 -7.5 -25.5t-16.5 -21.5q-1 0 -1.5 -0.5l-1.5 -1.5q-37 -31 -84.5 -49.5t-99.5 -18.5q-124 0 -212.5 77t-88.5 241q0 155 77.5 232t192.5 86q5 2 8 2.5t4 0.5q146 0 200.5 -57.5t54.5 -137.5v0zM416 409v60q0 32 -18 54t-45 22q-26 0 -44.5 -22t-18.5 -54v-60h126v0z M567 752q2 -2 3 -4l2 -4t1.5 -4t0.5 -4q0 -3 -1.5 -6t-6.5 -5l-80 -38l-80 -38q-20 -10 -40 -19t-40 -19q-4 -2 -7.5 -2.5t-8.5 -0.5h-2h-2q-3 0 -6.5 1t-6.5 1q-3 1 -5 1.5t-3 0.5q-13 5 -22 11t-13 16q-1 2 -1.5 6.5t-0.5 8.5t1 7.5t3 4.5q48 37 96 74.5t95 74.5 q2 2 7 2.5t11 0.5h6t6 -1q3 0 5.5 -1t5.5 -2q29 -12 50 -27t33 -35v0z" />
<glyph unicode="&#xea;" horiz-adv-x="580" d="M564 393q0 -2 -0.5 -4t-1.5 -5q-2 -4 -6 -7.5t-12 -3.5h-251v-346q0 -7 4.5 -12.5t10.5 -9.5q8 -6 18.5 -8.5t21.5 -2.5q23 0 39.5 10.5t16.5 23.5q0 3 -0.5 6.5t-2.5 7.5l-2 4t-1 4q-1 4 -1.5 8t-0.5 8q0 25 21.5 42.5t49.5 17.5q29 0 50.5 -17.5t21.5 -42.5 q0 -13 -7.5 -25.5t-16.5 -21.5q-1 0 -1.5 -0.5l-1.5 -1.5q-37 -31 -84.5 -49.5t-99.5 -18.5q-124 0 -212.5 77t-88.5 241q0 155 77.5 232t192.5 86q5 2 8 2.5t4 0.5q146 0 200.5 -57.5t54.5 -137.5v0zM416 409v60q0 32 -18 54t-45 22q-26 0 -44.5 -22t-18.5 -54v-60h126v0z M553 639l-84 -56l-141 95l-144 -97l-87 58l228 153l228 -153v0z" />
<glyph unicode="&#xeb;" horiz-adv-x="585" d="M564 393q0 -2 -0.5 -4t-1.5 -5q-2 -4 -6 -7.5t-12 -3.5h-251v-346q0 -7 4.5 -12.5t10.5 -9.5q8 -6 18.5 -8.5t21.5 -2.5q23 0 39.5 10.5t16.5 23.5q0 3 -0.5 6.5t-2.5 7.5l-2 4t-1 4q-1 4 -1.5 8t-0.5 8q0 25 21.5 42.5t49.5 17.5q29 0 50.5 -17.5t21.5 -42.5 q0 -13 -7.5 -25.5t-16.5 -21.5q-1 0 -1.5 -0.5l-1.5 -1.5q-37 -31 -84.5 -49.5t-99.5 -18.5q-124 0 -212.5 77t-88.5 241q0 155 77.5 232t192.5 86q5 2 8 2.5t4 0.5q146 0 200.5 -57.5t54.5 -137.5v0zM416 409v60q0 32 -18 54t-45 22q-26 0 -44.5 -22t-18.5 -54v-60h126v0z M335 676q0 -28 -28 -46t-68 -18t-68.5 18t-28.5 46q0 26 28.5 45t68.5 19t68 -19t28 -45v0zM556 676q0 -28 -27.5 -46t-67.5 -18q-41 0 -69 18t-28 46q0 26 28 45t69 19q40 0 67.5 -19t27.5 -45v0z" />
<glyph unicode="&#xec;" horiz-adv-x="357" d="M347 -2q0 -12 -13 -20.5t-30 -8.5l-243 -1q-19 1 -31 9.5t-12 21.5q0 10 12 19t31 9l8 6v490l-10 6q-18 0 -30 8.5t-12 21.5q0 12 12 20.5t30 8.5h172q32 0 44.5 -12.5t15.5 -27.5q1 -6 1.5 -10.5t0.5 -9.5v-495l11 -6q17 0 30 -9t13 -19v-1zM267 648q-4 -10 -13 -16 t-22 -11q-1 0 -3.5 -0.5t-4.5 -1.5q-4 -1 -8.5 -1.5t-9.5 -0.5h-2.5h-2.5q-3 1 -5.5 1.5t-4.5 1.5q-20 10 -40 19t-40 19q-40 19 -79 38t-80 38q-5 2 -6.5 5t-1.5 7t2 7.5t5 7.5q12 20 32.5 35t49.5 27q4 2 8 2.5t8 1.5h4h4q5 0 10 -0.5t7 -2.5q47 -37 95 -74.5t96 -74.5 q2 -1 3 -4.5t1 -8.5v-2v-2q0 -3 -0.5 -5.5t-1.5 -4.5v0z" />
<glyph unicode="&#xed;" horiz-adv-x="360" d="M347 -2q0 -12 -13 -20.5t-30 -8.5l-243 -1q-19 1 -31 9.5t-12 21.5q0 10 12 19t31 9l8 6v490l-10 6q-18 0 -30 8.5t-12 21.5q0 12 12 20.5t30 8.5h172q32 0 44.5 -12.5t15.5 -27.5q1 -6 1.5 -10.5t0.5 -9.5v-495l11 -6q17 0 30 -9t13 -19v-1zM425 762q2 -2 3 -4l2 -4 t1.5 -4t0.5 -4q0 -3 -1.5 -6t-6.5 -5l-80 -38l-80 -38q-20 -10 -40 -19t-40 -19q-4 -2 -7.5 -2.5t-8.5 -0.5h-2h-2q-3 0 -6.5 1t-6.5 1q-3 1 -5 1.5t-3 0.5q-13 5 -22 11t-13 16q-1 2 -1.5 6.5t-0.5 8.5t1 7.5t3 4.5q48 37 96 74.5t95 74.5q2 2 7 2.5t11 0.5h6t6 -1 q3 0 5.5 -1t5.5 -2q29 -12 50 -27t33 -35v0z" />
<glyph unicode="&#xee;" horiz-adv-x="360" d="M347 -2q0 -12 -13 -20.5t-30 -8.5l-243 -1q-19 1 -31 9.5t-12 21.5q0 10 12 19t31 9l8 6v490l-10 6q-18 0 -30 8.5t-12 21.5q0 12 12 20.5t30 8.5h172q32 0 44.5 -12.5t15.5 -27.5q1 -6 1.5 -10.5t0.5 -9.5v-495l11 -6q17 0 30 -9t13 -19v-1zM374 650l-84 -56l-141 95 l-144 -97l-87 58l228 153l228 -153v0z" />
<glyph unicode="&#xef;" horiz-adv-x="340" d="M347 -2q0 -12 -13 -20.5t-30 -8.5l-243 -1q-19 1 -31 9.5t-12 21.5q0 10 12 19t31 9l8 6v490l-10 6q-18 0 -30 8.5t-12 21.5q0 12 12 20.5t30 8.5h172q32 0 44.5 -12.5t15.5 -27.5q1 -6 1.5 -10.5t0.5 -9.5v-495l11 -6q17 0 30 -9t13 -19v-1zM151 686q0 -28 -28 -46 t-68 -18t-68 18t-28 46q0 26 28 45t68 19t68 -19t28 -45v0zM372 686q0 -28 -27.5 -46t-67.5 -18q-41 0 -69 18t-28 46q0 26 28 45t69 19q40 0 67.5 -19t27.5 -45v0z" />
<glyph unicode="&#xf0;" horiz-adv-x="677" d="M646 261v-2.5v-2.5v-2.5v-2.5q0 -118 -92 -200t-216 -82q-127 0 -217 84.5t-90 202.5q0 119 90 204t217 85q9 0 18 -0.5t18 -2.5q-2 17 -7 32.5t-12 31.5l-146 -35l-18 31l147 36q-11 20 -25 40.5t-29 40.5q-7 10 -1 16.5t22 6.5q11 0 25.5 -3.5t31.5 -11.5 q27 -11 50 -26.5t45 -34.5l128 33l17 -31l-116 -29q69 -71 111.5 -168.5t48.5 -200.5v-4.5v-4.5v0zM403 57q0 4 -3.5 7t-7.5 6l-1.5 1.5t-1.5 0.5q-3 3 -5.5 5t-2.5 5v371q0 13 -16 22.5t-38 9.5t-37.5 -9.5t-15.5 -22.5q0 -2 1.5 -4.5t3.5 -5.5l2.5 -2.5l3.5 -3.5 q3 -4 6.5 -6.5l3.5 -2.5v-371q0 -7 5.5 -12.5t12.5 -8.5q7 -4 16.5 -7.5t20.5 -3.5q22 0 37.5 9.5t15.5 22.5v0z" />
<glyph unicode="&#xf1;" horiz-adv-x="694" d="M678 -4q0 -11 -12.5 -19t-30.5 -8l-184 -1q-28 1 -38.5 17.5t-10.5 46.5v427q0 13 -12.5 21t-27.5 10h-3.5h-3.5q-15 0 -26.5 -8t-11.5 -25v-424l12 -6q17 0 29.5 -9t12.5 -19q0 -13 -12.5 -21.5t-29.5 -8.5l-253 -1q-19 1 -30.5 9.5t-11.5 21.5q0 10 11.5 19t30.5 9l9 6 v490l-10 5q-18 0 -30.5 8.5t-12.5 21.5q0 12 12.5 20.5t30.5 8.5h193q22 0 33 -11.5t14 -31.5q24 24 54 36.5t61 15.5q6 1 11 1h10q66 0 119 -36t53 -93l2 -436l10 -6q18 0 30.5 -8.5t12.5 -20.5v-1zM494 675q-14 -17 -31 -29t-34 -19q-10 -3 -19.5 -5t-18.5 -2 q-20 0 -32 3.5t-22 7.5h-1.5t-1.5 1q-9 3 -19.5 6t-26.5 3q-18 0 -34 -5t-24 -14l-59 85q22 27 47.5 40.5t56.5 13.5q20 0 31.5 -3.5t20.5 -7.5q1 0 1.5 -0.5t1.5 -0.5q9 -4 18.5 -7t24.5 -3q19 0 35.5 6t25.5 15l60 -85v0z" />
<glyph unicode="&#xf2;" horiz-adv-x="660" d="M31 268q0 134 90 229t217 95t217.5 -95t90.5 -229q0 -133 -90.5 -227t-217.5 -94t-217 94t-90 227v0zM381 72v419q0 15 -16 25.5t-38 10.5t-37.5 -10.5t-15.5 -25.5q0 -2 1.5 -5t3.5 -6q1 -2 2.5 -3.5l3.5 -3.5q3 -4 6.5 -7l3.5 -3v-420q0 -7 5.5 -13.5t12.5 -9.5 q7 -5 16.5 -8.5t20.5 -3.5q22 0 37.5 10.5t15.5 25.5q0 5 -3.5 8t-7.5 6q0 1 -0.5 1h-0.5q-4 3 -7 6t-3 7v0zM506 640q-4 -10 -13 -16t-22 -11q-1 0 -3.5 -0.5t-4.5 -1.5q-4 -1 -8.5 -1.5t-9.5 -0.5h-2.5h-2.5q-3 1 -5.5 1.5t-4.5 1.5q-20 10 -40 19t-40 19q-40 19 -79.5 38 t-80.5 38q-4 2 -6 5t-2 7t2 7.5t5 7.5q12 20 33 35t50 27q4 2 8 2.5t8 1.5h4h4q5 0 10 -0.5t7 -2.5q47 -37 95 -74.5t96 -74.5q2 -1 3 -4.5t1 -8.5v-2v-2q0 -3 -0.5 -5.5t-1.5 -4.5v0z" />
<glyph unicode="&#xf3;" horiz-adv-x="657" d="M31 268q0 134 90 229t217 95t217.5 -95t90.5 -229q0 -133 -90.5 -227t-217.5 -94t-217 94t-90 227v0zM381 72v419q0 15 -16 25.5t-38 10.5t-37.5 -10.5t-15.5 -25.5q0 -2 1.5 -5t3.5 -6q1 -2 2.5 -3.5l3.5 -3.5q3 -4 6.5 -7l3.5 -3v-420q0 -7 5.5 -13.5t12.5 -9.5 q7 -5 16.5 -8.5t20.5 -3.5q22 0 37.5 10.5t15.5 25.5q0 5 -3.5 8t-7.5 6q0 1 -0.5 1h-0.5q-4 3 -7 6t-3 7v0zM619 759q2 -2 3 -4l2 -4t1.5 -4t0.5 -4q0 -3 -1.5 -6t-6.5 -5l-80 -38l-80 -38q-20 -10 -40 -19t-40 -19q-4 -2 -7.5 -2.5t-8.5 -0.5h-2h-2q-3 0 -6.5 1t-6.5 1 q-3 1 -5 1.5t-3 0.5q-13 5 -22 11t-13 16q-1 2 -1.5 6.5t-0.5 8.5t1 7.5t3 4.5q48 37 96 74.5t95 74.5q2 2 7 2.5t11 0.5h6t6 -1q3 0 5.5 -1t5.5 -2q29 -12 50 -27t33 -35v0z" />
<glyph unicode="&#xf4;" horiz-adv-x="660" d="M31 268q0 134 90 229t217 95t217.5 -95t90.5 -229q0 -133 -90.5 -227t-217.5 -94t-217 94t-90 227v0zM381 72v419q0 15 -16 25.5t-38 10.5t-37.5 -10.5t-15.5 -25.5q0 -2 1.5 -5t3.5 -6q1 -2 2.5 -3.5l3.5 -3.5q3 -4 6.5 -7l3.5 -3v-420q0 -7 5.5 -13.5t12.5 -9.5 q7 -5 16.5 -8.5t20.5 -3.5q22 0 37.5 10.5t15.5 25.5q0 5 -3.5 8t-7.5 6q0 1 -0.5 1h-0.5q-4 3 -7 6t-3 7v0zM561 643l-84 -56l-141 95l-144 -97l-87 58l228 153l228 -153v0z" />
<glyph unicode="&#xf5;" horiz-adv-x="660" d="M31 268q0 134 90 229t217 95t217.5 -95t90.5 -229q0 -133 -90.5 -227t-217.5 -94t-217 94t-90 227v0zM381 72v419q0 15 -16 25.5t-38 10.5t-37.5 -10.5t-15.5 -25.5q0 -2 1.5 -5t3.5 -6q1 -2 2.5 -3.5l3.5 -3.5q3 -4 6.5 -7l3.5 -3v-420q0 -7 5.5 -13.5t12.5 -9.5 q7 -5 16.5 -8.5t20.5 -3.5q22 0 37.5 10.5t15.5 25.5q0 5 -3.5 8t-7.5 6q0 1 -0.5 1h-0.5q-4 3 -7 6t-3 7v0zM505 667q-14 -17 -31 -29t-34 -19q-10 -3 -19.5 -5t-18.5 -2q-20 0 -32 3.5t-22 7.5h-1.5t-1.5 1q-9 3 -19.5 6t-26.5 3q-18 0 -34 -5t-24 -14l-59 85 q22 27 47.5 40.5t56.5 13.5q20 0 31.5 -3.5t20.5 -7.5q1 0 1.5 -0.5t1.5 -0.5q9 -4 18.5 -7t24.5 -3q19 0 35.5 6t25.5 15l60 -85v0z" />
<glyph unicode="&#xf6;" horiz-adv-x="660" d="M31 268q0 134 90 229t217 95t217.5 -95t90.5 -229q0 -133 -90.5 -227t-217.5 -94t-217 94t-90 227v0zM381 72v419q0 15 -16 25.5t-38 10.5t-37.5 -10.5t-15.5 -25.5q0 -2 1.5 -5t3.5 -6q1 -2 2.5 -3.5l3.5 -3.5q3 -4 6.5 -7l3.5 -3v-420q0 -7 5.5 -13.5t12.5 -9.5 q7 -5 16.5 -8.5t20.5 -3.5q22 0 37.5 10.5t15.5 25.5q0 5 -3.5 8t-7.5 6q0 1 -0.5 1h-0.5q-4 3 -7 6t-3 7v0zM328 687q0 -28 -28 -46t-68 -18t-68.5 18t-28.5 46q0 26 28.5 45t68.5 19t68 -19t28 -45v0zM549 687q0 -28 -27.5 -46t-67.5 -18q-41 0 -69 18t-28 46q0 26 28 45 t69 19q40 0 67.5 -19t27.5 -45v0z" />
<glyph unicode="&#xf7;" horiz-adv-x="491" d="M307 262q0 -3 -1 -7t-3 -8q-5 -11 -15 -21t-21 -11h-1.5h-1.5h-9q-3 0 -7 1t-7 3q-8 4 -14.5 11t-10.5 14q-2 3 -3 6.5t-1 6.5v9q0 12 10 23t22 17l8 2t7 1q19 0 33.5 -14t14.5 -33v0zM454 337h-405v76h405v-76v0zM307 482q0 -3 -1 -7t-3 -8q-5 -11 -15 -21t-21 -11h-1.5 h-1.5h-9q-3 0 -7 1t-7 3q-8 4 -14.5 11t-10.5 14q-2 3 -3 6.5t-1 6.5v9q0 12 10 23t22 17l8 2t7 1q19 0 33.5 -14t14.5 -33v0z" />
<glyph unicode="&#xf8;" horiz-adv-x="677" d="M646 291q0 -133 -90.5 -227.5t-217.5 -94.5q-16 0 -32.5 1.5t-31.5 5.5l-30 -92h-63l36 109q-82 38 -134 118t-52 180q0 134 90 228.5t217 94.5q21 0 42 -3t40 -9l37 111h63l-44 -133q74 -40 122 -117t48 -172v0zM403 49q0 5 -3.5 8t-7.5 6q0 1 -0.5 1h-0.5q-4 3 -7 6 t-3 7v217l-84 -253q2 -5 6.5 -9t9.5 -6q7 -5 16.5 -8.5t20.5 -3.5q22 0 37.5 10.5t15.5 24.5v0zM381 484v48q0 15 -16 25.5t-38 10.5t-37.5 -10.5t-15.5 -25.5q0 -2 1.5 -5t3.5 -6q1 -2 2.5 -3.5l3.5 -3.5q3 -4 6.5 -7l3.5 -3v-278l86 258v0z" />
<glyph unicode="&#xf9;" horiz-adv-x="687" d="M678 -3q0 -11 -12.5 -19.5t-30.5 -8.5l-193 -1q-22 1 -33 13t-14 31q-23 -23 -60.5 -36.5t-81.5 -13.5q-54 0 -98.5 19.5t-57.5 51.5q-3 8 -5.5 16t-3.5 17q-1 5 -1.5 11t-0.5 11v435l-11 6q-18 0 -30.5 8.5t-12.5 21.5q0 12 12.5 20.5t30.5 8.5h175q35 0 46.5 -17.5 t11.5 -47.5v-446q0 -2 1 -4.5t3 -5.5q5 -8 17.5 -15t26.5 -7q3 0 6 0.5t6 1.5q9 3 17 11t8 21v444l-12 5q-16 0 -29 9t-13 20q0 13 13 22t29 9h186q37 0 47 -14.5t11 -31.5v-6v-6v-3.5v-3.5v-490l10 -6q18 0 30.5 -8.5t12.5 -20.5v-1zM472 638q-4 -10 -13 -16t-22 -11 q-1 0 -3.5 -0.5t-4.5 -1.5q-4 -1 -8.5 -1.5t-9.5 -0.5h-2.5h-2.5q-3 1 -5.5 1.5t-4.5 1.5q-20 10 -40 19t-40 19q-40 19 -79.5 38t-80.5 38q-4 2 -6 5t-2 7t2 7.5t5 7.5q12 20 33 35t50 27q4 2 8 2.5t8 1.5h4h4q5 0 10 -0.5t7 -2.5q47 -37 95 -74.5t96 -74.5q2 -1 3 -4.5 t1 -8.5v-2v-2q0 -3 -0.5 -5.5t-1.5 -4.5v0z" />
<glyph unicode="&#xfa;" horiz-adv-x="687" d="M678 -3q0 -11 -12.5 -19.5t-30.5 -8.5l-193 -1q-22 1 -33 13t-14 31q-23 -23 -60.5 -36.5t-81.5 -13.5q-54 0 -98.5 19.5t-57.5 51.5q-3 8 -5.5 16t-3.5 17q-1 5 -1.5 11t-0.5 11v435l-11 6q-18 0 -30.5 8.5t-12.5 21.5q0 12 12.5 20.5t30.5 8.5h175q35 0 46.5 -17.5 t11.5 -47.5v-446q0 -2 1 -4.5t3 -5.5q5 -8 17.5 -15t26.5 -7q3 0 6 0.5t6 1.5q9 3 17 11t8 21v444l-12 5q-16 0 -29 9t-13 20q0 13 13 22t29 9h186q37 0 47 -14.5t11 -31.5v-6v-6v-3.5v-3.5v-490l10 -6q18 0 30.5 -8.5t12.5 -20.5v-1zM567 743q2 -2 3 -4l2 -4t1.5 -4t0.5 -4 q0 -3 -1.5 -6t-6.5 -5l-80 -38l-80 -38q-20 -10 -40 -19t-40 -19q-4 -2 -7.5 -2.5t-8.5 -0.5h-2h-2q-3 0 -6.5 1t-6.5 1q-3 1 -5 1.5t-3 0.5q-13 5 -22 11t-13 16q-1 2 -1.5 6.5t-0.5 8.5t1 7.5t3 4.5q48 37 96 74.5t95 74.5q2 2 7 2.5t11 0.5h6t6 -1q3 0 5.5 -1t5.5 -2 q29 -12 50 -27t33 -35v0z" />
<glyph unicode="&#xfb;" horiz-adv-x="684" d="M678 -3q0 -11 -12.5 -19.5t-30.5 -8.5l-193 -1q-22 1 -33 13t-14 31q-23 -23 -60.5 -36.5t-81.5 -13.5q-54 0 -98.5 19.5t-57.5 51.5q-3 8 -5.5 16t-3.5 17q-1 5 -1.5 11t-0.5 11v435l-11 6q-18 0 -30.5 8.5t-12.5 21.5q0 12 12.5 20.5t30.5 8.5h175q35 0 46.5 -17.5 t11.5 -47.5v-446q0 -2 1 -4.5t3 -5.5q5 -8 17.5 -15t26.5 -7q3 0 6 0.5t6 1.5q9 3 17 11t8 21v444l-12 5q-16 0 -29 9t-13 20q0 13 13 22t29 9h186q37 0 47 -14.5t11 -31.5v-6v-6v-3.5v-3.5v-490l10 -6q18 0 30.5 -8.5t12.5 -20.5v-1zM576 656l-84 -56l-141 95l-144 -97 l-87 58l228 153l228 -153v0z" />
<glyph unicode="&#xfc;" horiz-adv-x="687" d="M678 -3q0 -11 -12.5 -19.5t-30.5 -8.5l-193 -1q-22 1 -33 13t-14 31q-23 -23 -60.5 -36.5t-81.5 -13.5q-54 0 -98.5 19.5t-57.5 51.5q-3 8 -5.5 16t-3.5 17q-1 5 -1.5 11t-0.5 11v435l-11 6q-18 0 -30.5 8.5t-12.5 21.5q0 12 12.5 20.5t30.5 8.5h175q35 0 46.5 -17.5 t11.5 -47.5v-446q0 -2 1 -4.5t3 -5.5q5 -8 17.5 -15t26.5 -7q3 0 6 0.5t6 1.5q9 3 17 11t8 21v444l-12 5q-16 0 -29 9t-13 20q0 13 13 22t29 9h186q37 0 47 -14.5t11 -31.5v-6v-6v-3.5v-3.5v-490l10 -6q18 0 30.5 -8.5t12.5 -20.5v-1zM318 682q0 -28 -28 -46t-68 -18 t-68.5 18t-28.5 46q0 26 28.5 45t68.5 19t68 -19t28 -45v0zM539 682q0 -28 -27.5 -46t-67.5 -18q-41 0 -69 18t-28 46q0 26 28 45t69 19q40 0 67.5 -19t27.5 -45v0z" />
<glyph unicode="&#xfd;" horiz-adv-x="146" />
<glyph unicode="&#xfe;" horiz-adv-x="697" d="M666 265q0 -163 -58 -235.5t-159 -72.5q-7 0 -15 0.5t-15 1.5q-27 5 -53 16t-49 27v-128l11 -6q17 1 30 -7.5t13 -19.5q0 -13 -13 -22t-30 -9l-252 -1q-19 1 -31 10t-12 22q0 11 12 19.5t31 8.5l9 5v745l-10 6q-18 0 -30.5 10t-12.5 23q0 12 12.5 20.5t30.5 8.5h184 q24 0 37.5 -6.5t16.5 -32.5v-17.5v-38.5v-37v-18q27 21 57 34t61 16q5 1 9.5 1h8.5q101 0 159 -79.5t58 -243.5v0zM429 84v364q0 16 -16.5 27t-39.5 11q-22 0 -38.5 -11t-16.5 -27q0 -4 3 -7t7 -6h1l1 -1q4 -3 7.5 -6t3.5 -8v-304q0 -4 -3.5 -8t-7.5 -7q-5 -3 -8.5 -6.5 t-3.5 -8.5q0 -14 16.5 -25t38.5 -11q11 0 21.5 3t17.5 9q7 4 12 9.5t5 12.5v0z" />
<glyph unicode="&#xff;" horiz-adv-x="558" d="M553 574q1 -2 1 -5v-7v-5t-1 -5v-5.5t-1 -5.5q0 -2 -0.5 -4.5t-0.5 -4.5l-167 -505q-3 -10 -7 -19.5t-9 -19.5q-23 -51 -70 -96t-127 -59q-3 0 -6.5 -0.5t-6.5 -1.5q-5 -1 -10.5 -1.5t-10.5 -0.5q-40 0 -69 18.5t-29 45.5q0 28 28.5 47t68.5 19q6 0 11.5 -1t11.5 -3 q4 -1 8.5 -2t8.5 -1q8 -1 14.5 -1.5t12.5 -0.5q22 0 32.5 6t9.5 19v6.5t-2 7.5l-164 533l-10 6q-18 0 -30.5 8.5t-12.5 21.5q0 12 12.5 20.5t30.5 8.5h193q20 0 28 -11t14 -30q1 -5 3 -11t4 -13l43 -126q3 -11 9 -16t14 -7q3 -1 5.5 -1.5t5.5 -0.5h3.5h2.5q10 2 16.5 7.5 t11.5 11.5q2 2 4 4.5t3 4.5q6 8 9 19t3 23v5.5t-1 4.5q-1 18 -9 33.5t-21 25.5q-4 3 -10.5 8.5t-12.5 11.5q-8 8 -15 16.5t-11 17.5l-1.5 3t-0.5 2q-3 8 -4.5 15t-1.5 13q0 21 18.5 32t48.5 16q5 1 10.5 1.5t11.5 0.5q4 0 8.5 -0.5t9.5 -0.5q33 -4 61.5 -23t31.5 -49v0z M297 732q0 -28 -28 -46t-68 -18t-68.5 18t-28.5 46q0 26 28.5 45t68.5 19t68 -19t28 -45v0zM518 732q0 -28 -27.5 -46t-67.5 -18q-41 0 -69 18t-28 46q0 26 28 45t69 19q40 0 67.5 -19t27.5 -45v0z" />
<glyph unicode="&#x152;" horiz-adv-x="980" d="M935 92l-19 -83l-2 -6t-3 -7q-4 -10 -12.5 -18.5t-25.5 -8.5q-8 0 -15.5 1t-14.5 2q-6 1 -11.5 2t-11.5 2q-8 1 -15.5 2.5t-17.5 2.5q-46 4 -92.5 7t-93.5 3q-34 0 -68 -2.5t-69 -7.5l-10 -2t-9 -2q-2 0 -3.5 -0.5t-3.5 -0.5q-13 -3 -26 -5t-27 -2q-142 0 -241 114.5 t-99 274.5q0 161 99 275.5t241 114.5q35 0 68 -7.5t63 -21.5h227l8.5 1t18.5 3q9 1 17 2.5t10 1.5q3 1 6 1.5t6 0.5t7 -0.5t7 -1.5q13 -3 24.5 -11.5t16.5 -19.5l45 -88q2 -2 3 -5t0 -6q0 -8 -6.5 -15.5t-17.5 -11.5q-2 -1 -4.5 -1.5t-4.5 -0.5q-3 -1 -5.5 -1h-4.5 q-13 0 -24 5t-15 12l-48 77h-72l-9 -8v-228h76v0h1q0 -1 0.5 -1h0.5q1 3 2 7t3 9q3 5 7 10t10 8q4 2 8 2.5t8 0.5q11 0 20.5 -4.5t15.5 -9.5q1 -1 1.5 -2t1.5 -2l66 -105q2 -2 2.5 -5t0.5 -6v-2t-1 -2q-1 -7 -7.5 -13t-17.5 -9q-4 -1 -9 -2t-10 -1q-13 0 -23.5 4.5 t-15.5 11.5l-22 41q-3 5 -9 7.5t-13 3.5q-6 1 -11.5 1h-8.5h-76v-329h75q16 0 26 6t15 13q1 2 2 3.5t2 2.5l34 54q5 8 15.5 12t23.5 4h4.5t5.5 -1q2 0 4.5 -0.5t4.5 -1.5q14 -4 18.5 -12t4.5 -17v-4.5t-1 -4.5v0zM450 74q0 5 -3.5 8t-7.5 7q-4 3 -7.5 6.5t-3.5 7.5v536 q0 15 -16.5 26t-39.5 11q-22 0 -38.5 -11t-16.5 -26q0 -2 1 -4.5t3 -4.5q2 -3 3.5 -5t4.5 -4q4 -4 7.5 -7t3.5 -4v-537q0 -7 5 -13.5t12 -10.5q8 -5 17.5 -8.5t20.5 -3.5q23 0 39 11t16 26v0z" />
<glyph unicode="&#x153;" horiz-adv-x="924" d="M930 413q0 -2 -0.5 -4t-1.5 -4q-1 -4 -5.5 -7.5t-12.5 -4.5h-252v-347q0 -7 4 -11.5t9 -8.5l0.5 -0.5l1.5 -1.5q6 -5 15.5 -7.5t19.5 -3.5h2.5h3.5q23 0 39 11t16 24v6.5t-2 7.5l-1.5 3t-0.5 3q-1 4 -2 8.5t-1 10.5q0 24 21 41.5t49 17.5q31 0 52 -17.5t21 -41.5 q0 -12 -6.5 -23t-14.5 -20l-2.5 -2.5l-3.5 -3.5q-36 -31 -83.5 -49.5t-100.5 -18.5q-49 0 -94.5 12t-83.5 37q-35 -24 -77 -37t-87 -13q-127 0 -217.5 94.5t-90.5 227.5q0 134 90.5 228.5t217.5 94.5q47 0 89.5 -14t79.5 -40q30 20 66 31.5t76 14.5q4 1 7.5 1h5.5 q146 0 200 -57t54 -137v0zM416 66q0 5 -3.5 8t-6.5 6l-1 1h-1l-6 6t-3 7v194v226q0 14 -16 24.5t-38 10.5t-37.5 -10.5t-15.5 -24.5q0 -2 1 -4.5t3 -4.5q1 -3 3 -5l4 -4q3 -4 6.5 -7l3.5 -3v-421q0 -7 5.5 -13.5t12.5 -9.5q6 -5 15.5 -8.5t20.5 -3.5q22 0 37.5 10.5 t15.5 25.5v0zM395 288l-1 1h1v0v0v-1v0zM395 289v225v-225v0zM782 430v59q0 32 -18.5 54t-44.5 22q-27 0 -45 -22t-18 -54v-59h126v0z" />
<glyph unicode="&#x178;" horiz-adv-x="611" d="M603 659q2 -5 2.5 -10.5t0.5 -11.5q0 -16 -6.5 -33.5t-16.5 -34.5q-6 -11 -13 -21.5t-14 -21.5q-11 -16 -21.5 -31.5t-17.5 -29.5l-41 -81v-350l11 -6q17 0 30 -9t13 -19q0 -13 -13 -21.5t-30 -8.5l-270 -1q-19 1 -31 9.5t-12 21.5q0 10 12 19t31 9l9 6v288l-165 321 l-10 6q-18 0 -30.5 8.5t-12.5 21.5q0 12 12.5 20.5t30.5 8.5h270q17 0 29.5 -8.5t12.5 -20.5q0 -13 -12.5 -21.5t-29.5 -8.5l-11 -6l113 -219l45 82q2 5 3 10t1 11v3.5v2.5q-1 5 -2 9.5t-3 7.5q-8 14 -14 21.5t-11 14.5q-1 0 -1.5 1t-1.5 2q-6 6 -13 14.5t-17 22.5 q-7 9 -10.5 18.5t-3.5 19.5q0 21 17 38t54 24q10 2 19 2.5t17 0.5q38 0 64 -17.5t37 -52.5v0zM323 809q0 -28 -28 -46t-68 -18t-68.5 18t-28.5 46q0 26 28.5 45t68.5 19t68 -19t28 -45v0zM544 809q0 -28 -27.5 -46t-67.5 -18q-41 0 -69 18t-28 46q0 26 28 45t69 19 q40 0 67.5 -19t27.5 -45v0z" />
<glyph unicode="&#x2c6;" horiz-adv-x="362" d="M325 671q-14 -17 -31 -29t-34 -19q-10 -3 -19.5 -5t-18.5 -2q-20 0 -32 3.5t-22 7.5h-1.5t-1.5 1q-9 3 -19.5 6t-26.5 3q-18 0 -34 -5t-24 -14l-59 85q22 27 47.5 40.5t56.5 13.5q20 0 31.5 -3.5t20.5 -7.5q1 0 1.5 -0.5t1.5 -0.5q9 -4 18.5 -7t24.5 -3q19 0 35.5 6 t25.5 15l60 -85v0z" />
<glyph unicode="&#x2dc;" horiz-adv-x="501" d="M479 650l-84 -56l-141 95l-144 -97l-87 58l228 153l228 -153v0z" />
<glyph unicode="&#x2000;" horiz-adv-x="494" />
<glyph unicode="&#x2001;" horiz-adv-x="989" />
<glyph unicode="&#x2002;" horiz-adv-x="494" />
<glyph unicode="&#x2003;" horiz-adv-x="989" />
<glyph unicode="&#x2004;" horiz-adv-x="329" />
<glyph unicode="&#x2005;" horiz-adv-x="247" />
<glyph unicode="&#x2006;" horiz-adv-x="164" />
<glyph unicode="&#x2007;" horiz-adv-x="164" />
<glyph unicode="&#x2008;" horiz-adv-x="123" />
<glyph unicode="&#x2009;" horiz-adv-x="197" />
<glyph unicode="&#x200a;" horiz-adv-x="54" />
<glyph unicode="&#x2010;" horiz-adv-x="365" d="M320 238h-275v125h275v-125v0z" />
<glyph unicode="&#x2011;" horiz-adv-x="365" d="M320 238h-275v125h275v-125v0z" />
<glyph unicode="&#x2012;" horiz-adv-x="365" d="M320 238h-275v125h275v-125v0z" />
<glyph unicode="&#x2013;" horiz-adv-x="465" d="M420 218h-375v125h375v-125v0z" />
<glyph unicode="&#x2014;" horiz-adv-x="565" d="M520 218h-475v125h475v-125v0z" />
<glyph unicode="&#x2018;" horiz-adv-x="229" d="M219 611q0 -31 -34 -53t-77 -22q-42 0 -71.5 22t-29.5 53q-1 4 -2 8.5t-1 8.5q0 15 7 34t20 38q15 24 35.5 47t41.5 39q10 7 19.5 12.5t18.5 9.5q6 7 15.5 10.5t20.5 3.5q4 0 7.5 -0.5t7.5 -1.5q9 -3 14.5 -8.5t6.5 -10.5q1 -2 1 -3v-2q0 -3 -0.5 -5.5t-2.5 -4.5 q-5 -1 -10.5 -3t-10.5 -4q-22 -8 -40 -23.5t-18 -33.5q0 -7 3.5 -13.5t10.5 -13.5q3 -2 6 -4.5t6 -5.5q2 -2 4 -3.5t5 -3.5q17 -15 32 -30.5t15 -36.5v0z" />
<glyph unicode="&#x2019;" horiz-adv-x="244" d="M233 741q2 -4 2.5 -8t0.5 -9q0 -15 -7 -34t-20 -38q-15 -24 -35.5 -47t-41.5 -39q-10 -7 -19.5 -12.5t-18.5 -9.5q-5 -7 -15 -10.5t-21 -3.5q-4 0 -7.5 0.5t-7.5 1.5q-8 2 -13.5 7t-7.5 11q0 1 -0.5 3t-0.5 3q0 3 1 5.5t2 4.5q5 1 10.5 3t10.5 4q22 8 40 23.5t18 33.5 q0 7 -3 13.5t-11 13.5q-3 3 -6 5t-6 5q-2 2 -4 3.5t-5 3.5q-17 15 -32 30.5t-15 36.5q0 31 34 53t77 22q42 0 71.5 -22t29.5 -53v0z" />
<glyph unicode="&#x201a;" horiz-adv-x="237" d="M223 71q2 -4 2.5 -8t0.5 -9q0 -15 -7 -34t-20 -37q-15 -24 -35.5 -47t-41.5 -39q-10 -7 -19.5 -12.5t-18.5 -9.5q-5 -7 -15 -10.5t-21 -3.5q-4 0 -7.5 0.5t-7.5 1.5q-8 2 -13.5 7t-7.5 11q0 1 -0.5 2.5t-0.5 3.5q0 3 1 5.5t2 4.5q5 1 10.5 3t10.5 4q22 8 40 23.5t18 33.5 q0 7 -3 13.5t-11 13.5q-3 2 -6 4.5t-6 5.5q-2 2 -4 3t-5 3q-17 15 -32 30.5t-15 36.5q0 31 34 53t77 22q42 0 71.5 -22t29.5 -53v0z" />
<glyph unicode="&#x201c;" horiz-adv-x="454" d="M219 611q0 -31 -34 -53t-77 -22q-42 0 -71.5 22t-29.5 53q-1 4 -2 8.5t-1 8.5q0 15 7 34t20 38q15 24 35.5 47t41.5 39q10 7 19.5 12.5t18.5 9.5q6 7 15.5 10.5t20.5 3.5q4 0 7.5 -0.5t7.5 -1.5q9 -3 14.5 -8.5t6.5 -10.5q1 -2 1 -3v-2q0 -3 -0.5 -5.5t-2.5 -4.5 q-5 -1 -10.5 -3t-10.5 -4q-22 -8 -40 -23.5t-18 -33.5q0 -7 3.5 -13.5t10.5 -13.5q3 -2 6 -4.5t6 -5.5q2 -2 4 -3.5t5 -3.5q17 -15 32 -30.5t15 -36.5v0zM449 611q0 -31 -34 -53t-77 -22q-42 0 -71.5 22t-29.5 53q-1 4 -2 8.5t-1 8.5q0 15 7 34t20 38q15 24 35.5 47t41.5 39 q10 7 19.5 12.5t18.5 9.5q6 7 15.5 10.5t20.5 3.5q4 0 7.5 -0.5t7.5 -1.5q9 -3 14.5 -8.5t6.5 -10.5q1 -2 1 -3v-2q0 -3 -0.5 -5.5t-2.5 -4.5q-5 -1 -10.5 -3t-10.5 -4q-22 -8 -40 -23.5t-18 -33.5q0 -7 3.5 -13.5t10.5 -13.5q3 -2 6 -4.5t6 -5.5q2 -2 4 -3.5t5 -3.5 q17 -15 32 -30.5t15 -36.5v0z" />
<glyph unicode="&#x201d;" horiz-adv-x="454" d="M223 741q2 -4 2.5 -8t0.5 -9q0 -15 -7 -34t-20 -38q-15 -24 -35.5 -47t-41.5 -39q-10 -7 -19.5 -12.5t-18.5 -9.5q-5 -7 -15 -10.5t-21 -3.5q-4 0 -7.5 0.5t-7.5 1.5q-8 2 -13.5 7t-7.5 11q0 1 -0.5 3t-0.5 3q0 3 1 5.5t2 4.5q5 1 10.5 3t10.5 4q22 8 40 23.5t18 33.5 q0 7 -3 13.5t-11 13.5q-3 3 -6 5t-6 5q-2 2 -4 3.5t-5 3.5q-17 15 -32 30.5t-15 36.5q0 31 34 53t77 22q42 0 71.5 -22t29.5 -53v0zM453 741q2 -4 2.5 -8t0.5 -9q0 -15 -7 -34t-20 -38q-15 -24 -35.5 -47t-41.5 -39q-10 -7 -19.5 -12.5t-18.5 -9.5q-5 -7 -15 -10.5t-21 -3.5 q-4 0 -7.5 0.5t-7.5 1.5q-8 2 -13.5 7t-7.5 11q0 1 -0.5 3t-0.5 3q0 3 1 5.5t2 4.5q5 1 10.5 3t10.5 4q22 8 40 23.5t18 33.5q0 7 -3 13.5t-11 13.5q-3 3 -6 5t-6 5q-2 2 -4 3.5t-5 3.5q-17 15 -32 30.5t-15 36.5q0 31 34 53t77 22q42 0 71.5 -22t29.5 -53v0z" />
<glyph unicode="&#x201e;" horiz-adv-x="454" d="M223 71q2 -4 2.5 -8t0.5 -9q0 -15 -7 -34t-20 -37q-15 -24 -35.5 -47t-41.5 -39q-10 -7 -19.5 -12.5t-18.5 -9.5q-5 -7 -15 -10.5t-21 -3.5q-4 0 -7.5 0.5t-7.5 1.5q-8 2 -13.5 7t-7.5 11q0 1 -0.5 2.5t-0.5 3.5q0 3 1 5.5t2 4.5q5 1 10.5 3t10.5 4q22 8 40 23.5t18 33.5 q0 7 -3 13.5t-11 13.5q-3 2 -6 4.5t-6 5.5q-2 2 -4 3t-5 3q-17 15 -32 30.5t-15 36.5q0 31 34 53t77 22q42 0 71.5 -22t29.5 -53v0zM453 71q2 -4 2.5 -8t0.5 -9q0 -15 -7 -34t-20 -37q-15 -24 -35.5 -47t-41.5 -39q-10 -7 -19.5 -12.5t-18.5 -9.5q-5 -7 -15 -10.5t-21 -3.5 q-4 0 -7.5 0.5t-7.5 1.5q-8 2 -13.5 7t-7.5 11q0 1 -0.5 2.5t-0.5 3.5q0 3 1 5.5t2 4.5q5 1 10.5 3t10.5 4q22 8 40 23.5t18 33.5q0 7 -3 13.5t-11 13.5q-3 2 -6 4.5t-6 5.5q-2 2 -4 3t-5 3q-17 15 -32 30.5t-15 36.5q0 31 34 53t77 22q42 0 71.5 -22t29.5 -53v0z" />
<glyph unicode="&#x2022;" horiz-adv-x="433" d="M216 556q83 0 141.5 -58.5t58.5 -141.5q0 -82 -58.5 -141t-141.5 -59q-82 0 -141 59t-59 141q0 83 59 141.5t141 58.5v0z" />
<glyph unicode="&#x2026;" horiz-adv-x="733" d="M225 45q0 -37 -31.5 -62.5t-75.5 -25.5t-75.5 25.5t-31.5 62.5t31.5 63t75.5 26t75.5 -26t31.5 -63v0zM475 45q0 -37 -31.5 -62.5t-75.5 -25.5t-75.5 25.5t-31.5 62.5t31.5 63t75.5 26t75.5 -26t31.5 -63v0zM725 45q0 -37 -31.5 -62.5t-75.5 -25.5t-75.5 25.5t-31.5 62.5 t31.5 63t75.5 26t75.5 -26t31.5 -63v0z" />
<glyph unicode="&#x202f;" horiz-adv-x="197" />
<glyph unicode="&#x2039;" d="M270 204l-72 -70l-163 163l163 163l72 -70l-83 -93l83 -93v0z" />
<glyph unicode="&#x203a;" d="M265 297l-163 -163l-72 70l83 93l-83 93l72 70l163 -163v0z" />
<glyph unicode="&#x205f;" horiz-adv-x="247" />
<glyph unicode="&#x2122;" horiz-adv-x="450" d="M180 706h-37v-190h-74v190h-39v66h150v-66v0zM407 516h-66v136l-29 -61h-22l-29 61v-136h-66v256h55l52 -110l50 110h55v-256v0z" />
<glyph unicode="&#xe000;" horiz-adv-x="630" d="M0 630h630v-630h-630v630z" />
</font>
</defs>
</svg>
