<?xml version="1.0" standalone="no"?>
<!DOCTYPE svg PUBLIC "-//W3C//DTD SVG 1.1//EN" "http://www.w3.org/Graphics/SVG/1.1/DTD/svg11.dtd" >
<svg xmlns="http://www.w3.org/2000/svg">
<metadata></metadata>
<defs>
<font id="candelabold_italic" horiz-adv-x="541" >
<font-face units-per-em="1000" ascent="750" descent="-250" />
<missing-glyph horiz-adv-x="310" />
<glyph unicode="&#xfb01;" horiz-adv-x="598" d="M-154 -210q0 24 22 55q44 0 80.5 22t56.5 49t36 63t20.5 53.5t6.5 29.5l67 328h-16q-29 0 -37 3t-8 19q0 13 9 40t20 27q10 -1 22 -1q26 0 31 1l5 25t7 31q4 20 14 60q14 52 75 89.5t130 37.5q32 0 61.5 -9.5t29.5 -29.5q0 -17 -18 -41.5t-30 -23.5q-25 14 -62 14 q-32 0 -58.5 -14t-33.5 -39q-4 -16 -11 -47t-10 -47h47h11q81 0 153 10q1 0 4 0.5t5 0.5q1 0 2.5 0.5t2.5 0.5q16 3 37 3h11q14 0 22 -8t8 -19l-97 -459q-3 -13 -19 -20t-36 -7q-46 0 -46 27l83 388q-49 -6 -165 -6q-30 0 -41 -1q-12 -56 -35 -168.5t-35 -168.5 q-16 -74 -46 -131t-60.5 -87.5t-66.5 -49.5t-61.5 -24.5t-47.5 -5.5l-29 2l-6 4q-4 9 -4 24zM513 589q1 5 3.5 15.5t2.5 11.5q3 16 17.5 27.5t30.5 11.5h22q16 0 26 -10t10 -26l-1 -3v-4l-5 -22q-3 -16 -17 -27.5t-30 -11.5h-22q-16 0 -26.5 10.5t-10.5 27.5z" />
<glyph unicode="&#xfb02;" horiz-adv-x="607" d="M-154 -210q0 24 22 55q44 0 80.5 22t56.5 49t36 63t20.5 53.5t6.5 29.5l67 328h-16q-29 0 -37 3t-8 19q0 13 9 40t20 27q10 -1 22 -1q26 0 31 1l5 25t7 31q4 20 14 60q14 54 77 91.5t185 37.5h11q23 0 34 -0.5t34.5 -2t36 -5.5t27.5 -10.5t22 -18t7 -26.5v-10l-132 -638 q-3 -13 -19.5 -20t-36.5 -7q-47 0 -47 27l129 618q-40 8 -79 8q-58 0 -103.5 -16.5t-51.5 -43.5l-21 -94h47h11q19 0 31 -2h3q10 0 15 -1q2 0 6.5 -0.5t6.5 -0.5q16 0 16 -25q0 -20 -9.5 -40t-22.5 -20q-7 -1 -17 -1t-29.5 0.5t-34.5 0.5q-30 0 -41 -1q-12 -56 -35 -168.5 t-35 -168.5q-16 -74 -46 -131t-60.5 -87.5t-66.5 -49.5t-61.5 -24.5t-47.5 -5.5h-5q-26 0 -30 3t-4 20v7z" />
<glyph unicode="&#xfb03;" horiz-adv-x="952" d="M-116 -210q0 24 22 55q44 0 80.5 22t56.5 49t36 63t20.5 53.5t6.5 29.5l67 328h-16q-29 0 -37 3t-8 19q0 13 9 40t20 27q10 -1 22 -1q26 0 31 1l5 25t7 31q4 20 14 60q14 52 75 89.5t130 37.5q32 0 61.5 -9.5t29.5 -29.5q0 -17 -18 -41.5t-30 -23.5q-25 14 -62 14 q-32 0 -58.5 -14t-33.5 -39q-4 -16 -11 -47t-10 -47h30q15 0 53 -2q4 0 17 -0.5t18 -0.5q51 -3 102 -3q14 0 38 2h2q3 14 12 53.5t14 60.5q14 52 75 89.5t130 37.5q32 0 61.5 -9.5t29.5 -29.5q0 -17 -18 -41.5t-30 -23.5q-25 14 -62 14q-32 0 -58.5 -14t-33.5 -39 q-3 -16 -10 -47t-11 -47h17h17.5h12.5h11q23 0 68 3q2 0 8 0.5t9 0.5q82 4 112 4q36 0 36 -27l-84 -452q-2 -13 -18.5 -20t-36.5 -7q-46 0 -46 27l72 386q-50 -2 -73 -2q-7 0 -20 -0.5t-19 -0.5t-16 -0.5t-14 -0.5q-53 -2 -54 -2q-12 -56 -35 -168t-35 -168 q-16 -74 -46 -131t-60.5 -87.5t-66.5 -49.5t-61.5 -24.5t-47.5 -5.5h-5q-26 0 -30 3t-4 20v7q0 24 22 55q44 0 80.5 22t56.5 49t36 63t20.5 53.5t6.5 29.5l68 330q-32 0 -130 2q-3 0 -10 0.5t-10 0.5q-31 1 -67 1q-30 0 -41 -1q-12 -56 -35 -168.5t-35 -168.5 q-16 -74 -46 -131t-60.5 -87.5t-66.5 -49.5t-61.5 -24.5t-47.5 -5.5h-5q-26 0 -30 3t-4 20v7zM892 589q1 5 3.5 15.5t2.5 11.5q3 16 17.5 27.5t30.5 11.5h22q16 0 26 -10t10 -26v-3q-1 -2 -1 -4l-5 -22q-3 -16 -17 -27.5t-30 -11.5h-22q-16 0 -26.5 10.5t-10.5 27.5z" />
<glyph unicode="&#xfb04;" horiz-adv-x="961" d="M-142 -210q0 24 22 55q44 0 80.5 22t56.5 49t36 63t20.5 53.5t6.5 29.5l67 328h-16q-29 0 -37 3t-8 19q0 13 9 40t20 27q10 -1 22 -1q26 0 31 1l5 25t7 31q4 20 14 60q14 52 75 89.5t130 37.5q32 0 61.5 -9.5t29.5 -29.5q0 -17 -18 -41.5t-30 -23.5q-24 14 -62 14 q-32 0 -58.5 -14t-33.5 -39q-4 -16 -11 -47t-10 -47h30q15 0 53 -2q4 0 17 -0.5t18 -0.5q51 -3 102 -3q14 0 38 2h2q3 14 12 53.5t14 60.5q19 64 95 97t153 33h7q28 0 42.5 -0.5t39.5 -2t39.5 -5.5t30 -11t22.5 -18.5t7 -26.5v-10l-132 -638q-3 -13 -19.5 -20t-36.5 -7 q-47 0 -47 27l129 618q-33 7 -58 7q-162 0 -176 -59q-20 -89 -21 -96h75q25 1 39 0t25.5 -7.5t11.5 -19.5q0 -20 -9.5 -41t-23.5 -22q-5 0 -15 0.5t-14 0.5h-21q-25 1 -56 1h-30q-12 -56 -35 -168.5t-35 -168.5q-16 -71 -44.5 -126.5t-58 -86.5t-64 -51t-59.5 -26.5 t-48 -7.5h-10l-29 2l-6 4q-4 9 -4 24q0 24 22 55q44 0 80.5 22t56.5 49t36 63t20.5 53.5t6.5 29.5l67 329q-22 0 -77.5 2t-78.5 2q-29 1 -60 1q-30 0 -41 -1q-12 -56 -35 -168.5t-35 -168.5q-16 -74 -46 -131t-60.5 -87.5t-66.5 -49.5t-61.5 -24.5t-47.5 -5.5h-5 q-26 0 -30 3t-4 20v7z" />
<glyph horiz-adv-x="1000" />
<glyph horiz-adv-x="1000" />
<glyph unicode="&#xd;" horiz-adv-x="1000" />
<glyph unicode=" "  horiz-adv-x="310" />
<glyph unicode="&#x09;" horiz-adv-x="310" />
<glyph unicode="&#xa0;" horiz-adv-x="310" />
<glyph unicode="!" horiz-adv-x="331" d="M66 24q0 7 1 10q0 24 15.5 42t36.5 18h22q16 0 26 -10t10 -26l-1 -2v-5l-4 -22q-3 -16 -18 -27.5t-31 -11.5h-22q-16 0 -25.5 9.5t-9.5 24.5zM100 167l109 519q6 27 55 27q19 0 32 -7.5t13 -19.5l-109 -523q-2 -8 -23 -15.5t-40 -7.5q-37 0 -37 27z" />
<glyph unicode="&#x22;" horiz-adv-x="305" d="M91 505l42 229q8 18 41 18q19 0 37.5 -10t18.5 -17l-53 -205q-12 -40 -49 -40q-15 0 -26 8t-11 17zM206 505l42 229q8 18 41 18q19 0 37.5 -10t18.5 -17l-53 -205q-12 -40 -49 -40q-15 0 -26 8t-11 17z" />
<glyph unicode="#" horiz-adv-x="797" d="M68 244q0 21 11.5 44t23.5 23l121 -1q3 6 8 16.5t8 15.5h-1q4 9 14.5 29.5t16.5 33.5h-38q-8 0 -23 0.5t-23 0.5q-10 0 -16 8.5t-6 22.5t5.5 29.5t14 26.5t16.5 11l114 -1l24 48t23 48q9 18 46 100q6 12 35 12q22 0 38.5 -8t16.5 -24v-8l-80 -169h135q15 32 95 197 q6 12 34 12q22 0 38.5 -8t16.5 -24v-8l-81 -171q10 0 27 -0.5t26 -0.5h62q8 0 12.5 -9t4.5 -24q0 -23 -7.5 -42t-25.5 -21h-144q-3 -7 -20 -42t-26 -54q7 0 25 -0.5t26 -0.5h59q17 0 17 -33q0 -59 -33 -63h-138q-16 -35 -50 -104.5t-50 -103.5q-8 -17 -33 -17 q-19 0 -38.5 11t-19.5 22v8l86 185h-134q-7 -15 -15.5 -32.5t-19 -38.5t-15.5 -32h1q-7 -14 -24.5 -50.5t-26.5 -55.5q-9 -17 -33 -17q-19 0 -38.5 11t-19.5 22v8l89 186l-89 1q-22 0 -22 31zM326 309h136q2 5 5 10.5l6 11t5 10.5h-1q4 9 14.5 29.5t16.5 33.5h-136z" />
<glyph unicode="$" horiz-adv-x="547" d="M33 64q0 13 26 40.5t43 27.5q7 0 10 -3q15 -13 24.5 -20t27 -14t41.5 -9q7 26 19 69.5t22 80t20 69.5q-76 5 -111 32t-35 86q0 69 29 127.5t87.5 96t134.5 39.5q4 11 15 50q2 6 14.5 11.5t25.5 5.5q38 0 38 -32l-13 -40q103 -19 103 -49q0 -13 -23.5 -41.5t-34.5 -28.5 q-32 21 -69 28q-10 -34 -27 -98.5t-27 -98.5q131 -18 131 -141q0 -110 -73.5 -180t-168.5 -79l-19 -68q-7 -22 -35 -22q-18 0 -31 9t-13 24l15 58q-99 12 -139 57q-7 3 -7 13zM229 441q0 -18 9.5 -28.5t21.5 -13t31 -3.5q27 99 55 197q-44 -9 -73 -42t-40 -82q-4 -16 -4 -28 zM288 91q46 11 77 41t41 78q3 14 3 25q0 52 -63 65q-6 -20 -15 -55t-14 -51q-3 -11 -13 -46t-16 -57z" />
<glyph unicode="%" horiz-adv-x="758" d="M109 517q0 82 58.5 138t134.5 56q22 0 52 -10q78 -22 152 -22q30 0 59 3t53.5 9.5t38.5 15.5h-1q6 6 15 6q19 0 41.5 -12.5t22.5 -29.5q0 -4 -2 -10q-192 -256 -322 -426l-176 -233q-8 -11 -24 -11q-18 0 -38.5 15.5t-20.5 29.5q0 9 5 13l150 198q164 218 274 362 q-47 -15 -96 -15q-36 0 -63 6q5 -23 5 -34t-1 -15q-17 -68 -72 -116.5t-118 -48.5q-56 0 -91.5 37t-35.5 94zM200 531q0 -24 14 -40t36 -16q32 0 59.5 29t27.5 64q0 24 -14 40.5t-37 16.5q-32 0 -59 -28.5t-27 -65.5zM464 127q0 21 4 38q10 46 40 81.5t70 54.5t82 19 q56 0 92.5 -34.5t36.5 -91.5q0 -51 -29.5 -98.5t-74.5 -75t-91 -27.5q-58 0 -94 37.5t-36 96.5zM556 138q0 -24 14 -40t36 -16q33 0 61 30t28 67q0 23 -14.5 39t-36.5 16q-9 0 -18 -3h-2q-29 -7 -48.5 -34.5t-19.5 -58.5z" />
<glyph unicode="&#x26;" horiz-adv-x="844" d="M80 186q0 37 15.5 73t38 61t45 44.5t37.5 29.5l16 9q-49 36 -49 130q0 82 61.5 135t149.5 53q41 0 77 -12q14 -3 14 -30q0 -17 -7 -34.5t-16 -21.5q-30 7 -54 7q-29 0 -56 -7.5t-50 -31.5t-23 -62q0 -90 112 -90q15 0 19 -6t4 -36q0 -51 -23 -51q-90 0 -137 -32.5 t-58 -103.5q3 -65 48 -99t106 -34q243 0 276 259q-24 11 -49 11q-28 0 -49.5 -14.5t-21.5 -37.5h4q6 0 11 1h8q1 0 3.5 0.5t3.5 0.5q30 0 30 -28q0 -26 -26.5 -41t-50.5 -15q-32 0 -55.5 18.5t-23.5 47.5q0 28 23 55q34 41 79.5 59.5t87.5 18.5q37 0 83 -19t71 -19 q17 0 29 8t12 23q0 2 -13 2h-14q-12 0 -18.5 1t-12 6t-5.5 15q0 28 30 46t56 18q30 0 51.5 -17.5t21.5 -46.5q0 -49 -47 -85t-95 -36q-17 0 -24 1q-8 -64 -31.5 -115.5t-53 -85.5t-68 -59.5t-73.5 -38.5t-73.5 -21t-63 -10t-47.5 -2q-103 0 -169 56t-66 153z" />
<glyph unicode="'" horiz-adv-x="201" d="M96 505l42 229q8 18 41 18q19 0 37.5 -10t18.5 -17l-53 -205q-12 -40 -49 -40q-15 0 -26 8t-11 17z" />
<glyph unicode="(" horiz-adv-x="318" d="M53 202q0 101 22 193.5t63 170.5t83 137.5t99 123.5q8 8 17 8q15 0 32 -17t17 -29q0 -10 -3 -11q-74 -87 -137.5 -199t-82.5 -203q-14 -63 -14 -141q0 -96 20 -191.5t50 -159.5q0 -11 -25.5 -32t-41.5 -21q-15 0 -16 11l1 -1q-84 170 -84 361z" />
<glyph unicode=")" horiz-adv-x="331" d="M-51 -123q0 8 4 11q101 123 186.5 297t85.5 300q0 150 -61 292q0 11 23.5 33t41.5 22q14 0 18 -10q74 -167 74 -312q0 -68 -14 -132q-24 -113 -79 -226.5t-107 -184.5t-106 -128q-6 -8 -15 -8q-15 0 -33 16.5t-18 29.5z" />
<glyph unicode="*" horiz-adv-x="468" d="M84 406q0 12 10 24l125 74q-15 9 -47 28t-47 27v-1q-10 4 -10 19q0 17 25 43t39 26q8 0 11 -5l-1 2q27 -23 79 -65q0 7 5 102q1 13 17 21t37 8q20 0 33.5 -8t13.5 -21l-31 -93q47 27 92 56h-1q3 3 12 3q8 0 17.5 -9.5t16 -24t6.5 -26.5q0 -24 -18 -27q-10 -5 -29.5 -15 t-29.5 -15q-9 -4 -26 -14t-28 -15q61 -51 84 -70q6 -12 6 -14q0 -19 -29.5 -43.5t-43.5 -23.5l-63 82q-2 -19 -5.5 -55t-4.5 -49q-2 -8 -23 -16t-40 -8q-37 0 -37 29l38 104q-36 -30 -106 -88q-11 0 -29 20t-18 38z" />
<glyph unicode="+" horiz-adv-x="486" d="M58 319q0 22 10.5 45.5t24.5 23.5h131l28 129q3 13 18.5 20t36.5 7q12 0 22 -3t16.5 -9.5t6.5 -14.5l-27 -129h67q12 0 36 0.5t37 0.5q6 0 11 -11.5t5 -26.5q0 -14 -3 -27t-10 -23t-18 -12l-147 -1q-5 -25 -15 -74.5t-15 -73.5q-2 -5 -23 -11t-39 -6q-36 0 -36 27l28 138 h-123q-22 0 -22 31z" />
<glyph unicode="," horiz-adv-x="234" d="M14 -100q2 14 13 31l30 42q14 18 77 105q12 6 18 6q21 0 45 -12.5t24 -30.5l-1 -4v-7l-1 -2l-136 -156q-11 -7 -25 -7q-17 0 -30.5 9t-13.5 26z" />
<glyph unicode="-" horiz-adv-x="410" d="M70 319q0 21 11 45t25 24l263 1q6 0 11.5 -12.5t5.5 -28.5q0 -21 -8.5 -39t-23.5 -20l-261 -1q-23 0 -23 31z" />
<glyph unicode="." horiz-adv-x="294" d="M87 40q0 36 24.5 61.5t56.5 25.5h8q24 0 38.5 -15t14.5 -38q0 -11 -1 -15q0 -1 -0.5 -4t-0.5 -4q-7 -27 -28.5 -45t-47.5 -18h-8q-25 0 -40.5 14.5t-15.5 37.5z" />
<glyph unicode="/" horiz-adv-x="403" d="M-17 30l1 5l412 669v-1q4 9 22 9q20 0 40.5 -9.5t20.5 -25.5v-9l-410 -666v1q-7 -15 -27 -15q-19 0 -39 14t-20 28z" />
<glyph unicode="0" horiz-adv-x="574" d="M64 195q0 69 19 156q38 185 121 274.5t195 89.5q88 0 136 -67.5t48 -178.5q0 -63 -13 -122q-16 -74 -43 -135.5t-65.5 -112.5t-93 -79.5t-119.5 -28.5q-185 0 -185 204zM166 219q0 -129 94 -129q85 0 131.5 69t72.5 192q14 65 14 118q0 147 -102 147q-62 0 -115 -72.5 t-79 -196.5q-16 -75 -16 -128z" />
<glyph unicode="1" horiz-adv-x="373" d="M98 527l1 4q0 8 58.5 51.5t116.5 83.5l59 39q22 4 38 4q32 0 32 -22l-145 -682q-33 -8 -56 -8q-18 0 -42 12l119 555q-1 -1 -20 -13.5t-28 -17.5q-12 -8 -42.5 -27.5t-45.5 -29.5q-10 0 -27.5 18t-17.5 33z" />
<glyph unicode="2" horiz-adv-x="527" d="M24 34q0 18 7 50q22 90 83 151t149 111q39 23 59 36t48.5 36.5t44 49t21.5 56.5v1q1 1 1 2v2q2 8 2 20q0 32 -24 51t-66 19q-41 0 -82 -18t-61 -36l-20 -18q-8 0 -28.5 19.5t-20.5 34.5q0 12 10 22q103 89 210 89q26 0 42.5 -1t48 -8t50.5 -20t34.5 -40t15.5 -65 q0 -29 -5 -50q-10 -43 -31.5 -79.5t-54.5 -66.5t-61.5 -50t-69.5 -44q-44 -27 -65.5 -41.5t-53.5 -41.5t-50.5 -56.5t-26.5 -64.5q16 -1 110 -1l198 3q12 -8 12 -24q0 -19 -10 -44.5t-19 -26.5h-361q-36 0 -36 43z" />
<glyph unicode="3" d="M37 75q0 17 28 47.5t46 30.5q4 0 13 -5q1 -1 3 -4q8 -12 15.5 -19.5t23 -19.5t39 -18.5t52.5 -6.5q65 0 110.5 38.5t45.5 102.5q0 77 -136 77q-23 0 -53 -3q-21 1 -21 24q0 17 8 39t24 27q76 8 121 8q35 0 63.5 34.5t40.5 94.5q4 22 4 30q0 62 -90 62q-37 0 -62.5 -7.5 t-58.5 -28t-41 -24.5q-9 0 -26 20.5t-17 36.5q0 18 80 56.5t141 38.5q20 0 38.5 -2t44.5 -10t44.5 -22.5t32 -42t13.5 -64.5q0 -24 -6 -54q-1 -6 -2.5 -15.5t-8.5 -35t-17 -46t-29 -41t-43 -28.5q54 -29 54 -110q0 -95 -76 -172.5t-193 -77.5q-109 0 -200 78h1q-6 3 -6 12z " />
<glyph unicode="4" horiz-adv-x="536" d="M41 197q0 17 7 35.5t15 26.5l373 415q22 4 37 4q40 0 40 -29l-82 -380h82l-4 -71q-2 -12 -3.5 -16t-8 -7.5t-15.5 -4t-31 -0.5h-39q-5 -24 -18.5 -84.5t-20.5 -92.5q-33 -8 -56 -8q-14 0 -38 12q0 16 34 173h-261l-8 4q-3 8 -3 23zM190 264q27 1 75 2.5t68 2.5 q39 174 46 218v1z" />
<glyph unicode="5" horiz-adv-x="593" d="M10 53q-12 12 26.5 48t48.5 36q12 0 29 -14q44 -34 109 -34q14 0 31 2t45.5 7.5t53 19t48 33.5t37.5 54.5t14 77.5q0 55 -36.5 82.5t-96.5 27.5q-68 0 -152 -35q-7 -3 -15 -3q-28 0 -28 42q0 47 35.5 148.5t57.5 144.5q22 23 185 23l227 -6q4 -15 4 -28q0 -35 -22 -71 l-318 -7q-2 0 -10 -14t-19 -45.5t-18 -67.5q32 6 87 6q39 0 76.5 -9.5t72.5 -29.5t56 -58.5t21 -89.5q0 -28 -6 -58q-14 -63 -45 -111t-65.5 -73t-78 -40t-74 -19t-61.5 -4l-41 2q-81 1 -178 63z" />
<glyph unicode="6" horiz-adv-x="525" d="M55 169q0 23 3 41q35 228 127 363.5t223 135.5q70 0 155 -48q6 -8 -21 -47t-41 -30l-25 13q-25 13 -50 17t-75 -7q-30 -8 -53 -25t-48 -52q-11 -16 -24.5 -44.5t-21.5 -49.5l-8 -21q65 50 142 50q67 0 116.5 -46.5t49.5 -137.5q0 -133 -82.5 -211.5t-184.5 -78.5 q-78 0 -130 46.5t-52 131.5zM154 188q0 -50 25 -80.5t77 -30.5q70 0 111.5 54.5t41.5 123.5q0 51 -26 85.5t-75 34.5q-44 0 -83 -22t-48 -48q-23 -71 -23 -117z" />
<glyph unicode="7" horiz-adv-x="529" d="M78 7q0 6 4 10q290 389 390 602h-288q-6 0 -14.5 19t-8.5 37q0 30 23 37h375q34 -10 34 -51q0 -1 -0.5 -4t-0.5 -4q-53 -159 -367 -599l-33 -47q-7 -9 -29 -15t-43 -6q-42 0 -42 21z" />
<glyph unicode="8" horiz-adv-x="562" d="M41 155q0 28 5 48q38 160 147 210q-27 23 -27 73q0 24 6 51q3 15 11 33.5t26 44.5t42 46t64 34.5t88 14.5q77 0 120 -39t43 -102q0 -48 -21 -90.5t-58 -68.5q47 -49 47 -139q0 -89 -45 -155.5t-110.5 -97.5t-137.5 -31q-85 0 -142.5 44t-57.5 124zM153 169q0 -36 27 -62 t75 -26q83 0 130 54t47 120q0 49 -27.5 79.5t-74.5 32.5q-82 -16 -120 -63t-55 -118q-2 -12 -2 -17zM263 514q0 -31 23.5 -47t58.5 -16q46 0 83.5 29.5t46.5 79.5q-5 26 -30.5 43.5t-57.5 17.5q-30 0 -54 -11t-38 -27.5t-21 -29.5t-9 -21q-2 -7 -2 -18z" />
<glyph unicode="9" horiz-adv-x="513" d="M25 55q0 19 30 43.5t37 19.5l2 -1q54 -34 101 -34q37 0 71 21t56.5 50.5t39.5 59.5t24 51l8 21q-68 -48 -139 -48q-66 0 -115 46t-49 136q0 133 81 210t183 77q79 0 131.5 -46.5t52.5 -131.5q0 -10 -2 -30v-7q-41 -250 -132 -374.5t-225 -124.5q-49 0 -90 16.5t-56 31.5 q-9 7 -9 14zM193 441q0 -48 20.5 -81t58.5 -33q7 0 12 1q33 5 58 19t39 28.5t25.5 41t15.5 43.5t11 50q2 14 2 19q0 38 -25 67.5t-67 29.5q-71 0 -110.5 -59t-39.5 -126z" />
<glyph unicode=":" horiz-adv-x="352" d="M88 39q0 33 23.5 57t52.5 24h8q22 0 36.5 -14.5t14.5 -37.5q0 -11 -1 -14v-3l-1 -2l-1 -1q-4 -25 -25.5 -42.5t-46.5 -17.5h-8q-23 0 -37.5 14t-14.5 37zM168 416q0 34 23 58t53 24h8q22 0 36.5 -14t14.5 -36q0 -5 -1 -11.5t-1 -10.5q-7 -26 -27.5 -43t-44.5 -17h-8 q-23 0 -38 14t-15 36z" />
<glyph unicode=";" horiz-adv-x="268" d="M-7 -98q2 13 9.5 25.5t22 30.5t16.5 22q13 17 38.5 52t38.5 52h12q21 0 45 -12.5t24 -30.5l-1 -4v-7l-1 -2l-136 -156q-11 -7 -25 -7q-43 0 -43 37zM142 417q0 33 23 57t53 24h8q22 0 36.5 -14t14.5 -37q0 -4 -1.5 -11t-1.5 -10q-4 -25 -25.5 -42.5t-46.5 -17.5h-8 q-15 0 -27 6.5t-18.5 18t-6.5 26.5z" />
<glyph unicode="&#x3c;" horiz-adv-x="302" d="M58 240q0 2 1 5.5t2 7.5t2.5 8t3.5 8l3 6l178 182q10 10 25 10q16 0 32.5 -16.5t16.5 -30.5l-174 -172q57 -93 98 -163q1 -8 -22.5 -27t-40.5 -19t-21 14l-50 89q-9 15 -25.5 44.5t-24.5 43.5q0 1 -2 4.5t-2 5.5z" />
<glyph unicode="=" horiz-adv-x="685" d="M132 199q0 21 11 45t25 24l371 1q6 0 11.5 -12.5t5.5 -28.5q0 -21 -8.5 -39t-23.5 -20l-369 -1q-23 0 -23 31zM181 429q0 21 11 45t25 24l371 1q6 0 11 -11.5t5 -26.5q0 -57 -31 -62l-369 -1q-23 0 -23 31z" />
<glyph unicode="&#x3e;" horiz-adv-x="309" d="M31 88l169 165q-20 32 -55.5 94.5t-43.5 76.5q-1 8 22 25.5t40 17.5q15 0 22 -13l105 -189q0 -33 -12 -40l-164 -167q-23 -19 -35 -19q-16 0 -32 18t-16 31z" />
<glyph unicode="?" horiz-adv-x="454" d="M74 32q0 28 19.5 48t44.5 20h6q19 0 31.5 -12.5t12.5 -31.5q0 -8 -1 -12l-1 -2v-3q-4 -22 -21.5 -36.5t-39.5 -14.5h-6q-20 0 -32.5 12t-12.5 32zM112 190q-1 14 9 53q0 1 1 1v2q2 4 2 7q2 9 3 15q6 29 30 55.5t44.5 40.5t55.5 34q30 16 47.5 28t39 32t32 46.5t10.5 60.5 q0 61 -74 61q-79 0 -142 -58q-10 0 -28 20t-18 37q0 23 67.5 55t130.5 32q70 0 114 -32.5t44 -103.5q0 -25 -6 -55q-8 -37 -23.5 -66t-38 -49t-41 -31.5t-44.5 -23.5q-97 -46 -112 -117q-1 -4 -1 -14q0 -25 -10 -39q-12 -17 -45 -17q-47 0 -47 26z" />
<glyph unicode="@" horiz-adv-x="1120" d="M96 127q0 100 36 192.5t98 163.5t141.5 124t169.5 80.5t179 27.5q108 0 194 -42.5t133.5 -116.5t47.5 -165q0 -59 -20 -118t-53.5 -106.5t-75.5 -89t-86.5 -70t-87 -44.5t-75.5 -16q-47 0 -73 33q-3 -1 -9.5 -2t-12.5 -2.5t-11 -3.5q-40 -11 -80 -11q-78 0 -120 35.5 t-42 98.5q0 48 27 113q53 120 144.5 193.5t201.5 73.5q29 0 98 -8.5t69 -15.5t-57 -142l-110 -265q0 -2 9 -2q18 0 50 16t68.5 47t69.5 71t54.5 93.5t21.5 108.5q0 102 -82 169t-210 67q-99 0 -192.5 -39.5t-161.5 -104t-109 -151t-41 -176.5q0 -131 90 -216t232 -85 q56 0 140.5 25t146.5 62l3 -101q-66 -37 -157.5 -62t-150.5 -25q-181 0 -294 109.5t-113 276.5zM458 111q0 -57 69 -57q60 0 108 12q19 47 40.5 100t48.5 117.5t42 100.5q-14 3 -40 3q-28 0 -56.5 -7.5t-62.5 -25.5t-67 -57.5t-57 -96.5q-25 -58 -25 -89z" />
<glyph unicode="A" horiz-adv-x="679" d="M2 26l423 675v-1q8 16 53 16q38 0 41 -17l88 -675v-10q-6 -24 -47 -24q-52 0 -56 30l-20 191h-259q-10 -15 -30 -48.5t-30 -49.5q-9 -15 -30.5 -49t-31.5 -51q-18 -24 -49 -24q-22 0 -37 11.5t-15 25.5zM286 306h186l-17 93q-4 24 -12.5 70t-13.5 74q-20 -33 -67.5 -113 t-75.5 -124z" />
<glyph unicode="B" horiz-adv-x="524" d="M22 18l143 673q5 4 16 9t59.5 14t112.5 9q87 0 124.5 -41t37.5 -97q0 -35 -27 -96t-73 -89q91 -48 91 -149q0 -20 -5 -45q-24 -109 -100.5 -168.5t-185.5 -59.5q-54 0 -102 10t-69 20zM134 78q34 -17 101 -17q39 0 77 17.5t67 61.5t29 105q0 104 -159 104q-31 0 -43 -1 q-3 0 -6.5 -0.5t-4.5 -0.5h-3zM210 429h14q26 0 51.5 4t57.5 15.5t56 38t32 65.5q3 13 3 24q0 36 -27 54t-65 18q-14 0 -33.5 -2t-32.5 -4l-13 -3q-9 -39 -22.5 -109.5t-20.5 -100.5z" />
<glyph unicode="C" horiz-adv-x="589" d="M78 266q0 113 59 220t152.5 171.5t189.5 64.5q63 0 113.5 -29.5t50.5 -55.5q0 -9 -19 -39.5t-31 -30.5q-7 0 -11 6q-18 28 -45.5 40t-74.5 12q-69 0 -135.5 -50t-108 -130t-41.5 -164q0 -87 45.5 -146t118.5 -59q78 0 146 53h-1q3 3 11 3q14 0 24 -18t10 -37 q0 -38 -66.5 -68.5t-139.5 -30.5q-110 0 -178.5 82t-68.5 206z" />
<glyph unicode="D" horiz-adv-x="640" d="M28 -10l151 711q4 9 62.5 15t88.5 6q313 0 313 -259q0 -59 -13 -115q-43 -182 -151 -276t-306 -94h-32q-4 0 -12 -0.5t-13 -0.5q-66 0 -88 13zM144 68h40q135 0 225 72t123 212q10 47 10 89q0 189 -226 189q-45 0 -54 -1z" />
<glyph unicode="E" horiz-adv-x="534" d="M26 25l137 647q11 20 76.5 30.5t151.5 10.5q35 0 98.5 -1.5t92.5 -1.5q12 -8 12 -28t-7 -39.5t-16 -19.5q-99 1 -190 1q-128 0 -129 -8l-42 -193h261q26 0 26 -31q0 -20 -13.5 -43.5t-25.5 -23.5l-269 -1q-3 -16 -9 -47t-10 -46q-20 -94 -30 -140q21 -8 128 -8l184 5 q21 0 21 -29q0 -22 -13 -45t-24 -23q-27 0 -50 -1q-4 0 -14 -0.5t-15 -0.5q-70 -2 -126 -2q-205 0 -205 38z" />
<glyph unicode="F" horiz-adv-x="509" d="M31 -7l141 682q10 35 270 35q104 0 156 -4q0 -44 -24 -89q-85 5 -165 5q-147 0 -150 -11q-6 -11 -16 -58t-17 -89l-7 -41l227 1q21 0 21 -29q0 -20 -11 -44.5t-23 -25.5h-234q-52 -233 -71 -331q-20 -6 -43 -6q-10 0 -27.5 2.5t-26.5 2.5z" />
<glyph unicode="G" horiz-adv-x="657" d="M74 259q0 86 34 171.5t87 149t122.5 103t137.5 39.5q52 -1 98 -22.5t75 -58.5v-8q0 -14 -25.5 -41t-37.5 -27q-9 27 -47.5 43.5t-79.5 16.5q-64 0 -125.5 -51t-100 -133t-38.5 -167t39 -141.5t104 -56.5q72 0 135.5 64t91.5 157q-8 6 -44 6q-40 0 -121 -11q-17 0 -17 25 q0 22 10 47t22 25q6 0 18.5 1.5t19.5 1.5q2 0 5 0.5t5 0.5q48 4 85 4q121 0 121 -53q0 -3 -1 -9q-36 -166 -129.5 -261.5t-216.5 -95.5q-102 0 -164.5 80t-62.5 201z" />
<glyph unicode="H" horiz-adv-x="626" d="M25 6q28 133 79.5 378t65.5 309q2 5 23.5 12t40.5 7q34 0 34 -26l-57 -271h305q23 112 59 278q2 5 23.5 12t39.5 7q34 0 34 -26l-144 -684q-2 -5 -24 -11t-41 -6q-34 0 -34 21q12 60 35.5 170.5t29.5 139.5h-305q-13 -59 -36 -169.5t-30 -144.5q-2 -5 -23.5 -11t-40.5 -6 q-34 0 -34 21z" />
<glyph unicode="I" horiz-adv-x="227" d="M34 13l145 685q2 5 23 12.5t38 7.5q35 0 35 -27l-143 -678q-3 -13 -18.5 -20t-34.5 -7q-45 0 -45 27z" />
<glyph unicode="J" horiz-adv-x="339" d="M-22 21q0 22 21 54q32 0 60.5 11.5t47.5 28.5t36 40.5t26.5 44t17 43t10 32.5t3.5 17l84 403q2 5 24.5 12.5t41.5 7.5q34 0 34 -25l-31 -146q-24 -106 -54 -256q-16 -77 -46 -134.5t-60.5 -88t-67 -48.5t-61 -22.5t-48.5 -4.5l-29 3l-1 1q-8 16 -8 27z" />
<glyph unicode="K" horiz-adv-x="616" d="M31 -1l148 695q2 5 23.5 12t40.5 7q34 0 34 -26l-45 -217q118 81 345 242q49 -37 54 -72l-355 -254l135 -162q27 -33 78.5 -94t61.5 -73q0 -11 -34.5 -39.5t-48.5 -27.5l-272 315l-66 -306q-4 -5 -18 -7.5t-26 -3.5h-13q-21 0 -42 11z" />
<glyph unicode="L" horiz-adv-x="542" d="M24 15l144 682q21 16 63 16q35 0 35 -27l-133 -604q22 -5 97 -5q67 0 145.5 4t86.5 7q25 0 25 -30q0 -19 -7.5 -39.5t-15.5 -21.5q-61 -9 -236 -9q-89 0 -148 7t-56 20z" />
<glyph unicode="M" horiz-adv-x="795" d="M21 8l145 688q2 7 22 12t40 5q31 0 37 -16l69 -228q13 -42 35 -113.5t32 -102.5q65 85 186 239t161 206q6 5 25 10.5t35 5.5q37 0 37 -26l-145 -686q-3 -17 -57 -17q-42 0 -42 23l106 501q-52 -65 -153 -194t-147 -186q-19 -17 -43 -17q-22 0 -35 27l-111 327l-99 -464 q-2 -7 -20 -12t-37 -5q-41 0 -41 23z" />
<glyph unicode="N" horiz-adv-x="675" d="M21 17l140 661q3 15 20 24t38 9q33 0 45 -22l253 -513q49 235 109 511q2 8 23 16.5t40 8.5q36 0 36 -30l-139 -660q-10 -35 -63 -35q-30 0 -38 16l-256 521q-15 -69 -52.5 -247t-57.5 -272q-2 -7 -19.5 -12.5t-36.5 -5.5q-42 0 -42 30z" />
<glyph unicode="O" horiz-adv-x="644" d="M65 258q0 50 10 96q31 149 139.5 258.5t226.5 109.5q107 0 165 -73t58 -191q0 -119 -53.5 -230.5t-141.5 -180.5t-182 -69q-100 0 -161 79.5t-61 200.5zM163 273q0 -83 41 -140.5t104 -57.5q59 0 119 52.5t99.5 138t39.5 173.5q0 80 -36.5 132.5t-98.5 52.5 q-74 0 -148 -76t-105 -181v-2q-15 -45 -15 -92z" />
<glyph unicode="P" horiz-adv-x="515" d="M14 -5l148 692q81 35 204 35q91 0 139 -42.5t48 -122.5q0 -141 -94.5 -238.5t-221.5 -97.5q-33 0 -73 8q-5 -22 -13.5 -63.5t-10.5 -49.5q-13 -59 -26 -121q-21 -7 -48 -7q-13 0 -26 2t-20 4zM185 326q29 -8 61 -8q56 0 113 43.5t81 132.5q6 27 6 49q0 47 -27 70t-71 23 q-22 0 -47.5 -4t-40.5 -8l-14 -4z" />
<glyph unicode="Q" horiz-adv-x="648" d="M66 253q0 116 56 226t144.5 176.5t178.5 66.5q100 0 162 -79.5t62 -200.5q0 -111 -49 -212t-121.5 -164.5t-150.5 -82.5q22 -65 107 -65q0 -6 1.5 -13t1.5 -11q0 -20 -3.5 -33t-10 -18.5t-12 -7t-14.5 -1.5q-157 0 -178 146q-80 17 -127 92.5t-47 180.5zM162 257 q0 -72 34.5 -124t88.5 -59q63 6 117 43.5t86.5 89t50.5 92t25 69.5q8 40 8 73q0 79 -36 130t-97 51q-76 0 -152 -75.5t-108 -182.5q-17 -63 -17 -107z" />
<glyph unicode="R" horiz-adv-x="584" d="M35 8q27 131 78.5 371.5t64.5 303.5q13 4 34.5 10.5t83.5 17.5t116 11q93 0 146.5 -48t53.5 -129q0 -159 -135 -227q55 -36 55 -148q0 -68 -20 -163q-1 -5 -20.5 -12.5t-36.5 -7.5q-30 0 -37 18q0 4 7.5 64.5t7.5 91.5q0 102 -63 119h-68q-5 0 -17 -0.5t-18 -0.5 q-69 0 -80 1q-54 -249 -62 -286q-31 -10 -52 -10q-38 0 -38 24zM206 371q45 -7 96 -7q31 0 57.5 4t55 15t48.5 28.5t33 47.5t13 69q0 51 -30 78t-84 27q-24 0 -58.5 -4.5t-57.5 -8.5l-22 -5z" />
<glyph unicode="S" horiz-adv-x="503" d="M13 45q0 15 25.5 44t42.5 29q4 0 14 -5q17 -14 30 -21.5t39 -14t61 -6.5q64 0 115.5 46.5t51.5 117.5q0 70 -107 70q-178 0 -178 136q0 68 29 131t90.5 106.5t140.5 43.5q61 0 98.5 -10.5t78.5 -33.5l1 -7q0 -12 -22.5 -42.5t-35.5 -30.5q-46 33 -129 33 q-61 0 -101.5 -51.5t-40.5 -116.5q0 -66 97 -66q82 0 128 -38.5t46 -106.5q0 -117 -87.5 -195.5t-189.5 -78.5q-145 0 -197 67z" />
<glyph unicode="T" horiz-adv-x="599" d="M85 651q0 11 3 22.5t8.5 20t11.5 9.5q52 7 263 7q205 0 263 -7q15 -3 15 -27q0 -14 -4.5 -28t-14.5 -25t-22 -11q-75 3 -136 3q-55 0 -61 -1q-23 -100 -68.5 -302.5t-68.5 -302.5q-7 -20 -52 -20t-45 27l136 598h-15.5h-23h-21.5l-147 -2q-21 0 -21 39z" />
<glyph unicode="U" horiz-adv-x="702" d="M74 193q0 33 7 64q36 174 93 437q2 5 23.5 12t40.5 7q34 0 34 -26l-93 -439q-4 -19 -4 -37q0 -62 45 -99t113 -39q70 1 128 57.5t78 123.5l95 437q6 19 38 19q21 0 41 -9.5t19 -16.5l-92 -430q-25 -117 -115.5 -195t-207.5 -81h-3q-109 1 -174.5 59t-65.5 156z" />
<glyph unicode="V" horiz-adv-x="694" d="M136 670q2 8 31 26t47 18t22 -16l85 -542q30 45 91.5 134t91.5 133q126 186 190 279q9 11 22 11q19 0 40 -23t21 -31l-453 -661q-10 -5 -35 -5l-34 -1v0q-2 0 -7 0.5t-6 0.5z" />
<glyph unicode="W" horiz-adv-x="840" d="M133 680q2 21 28 27t64 -10q2 -12 5.5 -65t7 -169t3.5 -247q44 87 128 249.5t118 227.5q11 20 49 20q26 0 48 -16l5 -482q39 78 244 483q8 15 26 15q20 0 42.5 -15.5t21.5 -22.5l-335 -683q-24 -4 -59 -4q-16 0 -26 3t-14.5 6t-16.5 14v466q-20 -39 -60.5 -116 t-60.5 -116q-89 -174 -130 -253q-24 -4 -47 -4q-25 0 -34 9l-4 17z" />
<glyph unicode="X" horiz-adv-x="645" d="M2 29q0 5 133.5 154.5t167.5 182.5q-29 55 -69 134q-10 19 -22.5 43.5t-25.5 50t-22 42.5v-1q-5 6 -5 15q0 12 12.5 25.5t29.5 22.5t29 9q18 0 22 -14q20 -39 42 -82t48 -94.5t42 -81.5l270 270q8 8 24 8q18 0 35 -14.5t17 -33.5q0 -17 -10 -27l-295 -295q11 -25 32 -75 t32 -75t33.5 -76t33.5 -77l1 -7q0 -15 -25.5 -30t-47.5 -15q-16 0 -24 12l-120 274q-42 -46 -126.5 -140.5t-128.5 -142.5q-7 -7 -23 -7q-20 0 -40 14.5t-20 30.5z" />
<glyph unicode="Y" horiz-adv-x="611" d="M130 649q-2 9 28 36t48 27q10 0 24 -26l103 -264q33 31 74 70t73.5 69.5t73.5 69.5t74 70h-1q7 7 18 7q16 0 33 -26.5t17 -42.5l-333 -315q-8 -35 -22.5 -103t-26.5 -123.5t-22 -102.5q-36 -7 -57 -7q-22 0 -43 11l69 321q-11 27 -32.5 82t-32.5 82q-44 110 -65 165z" />
<glyph unicode="Z" horiz-adv-x="557" d="M6 35q0 21 22 67q308 356 466 516q-19 2 -84 2l-197 -5q-27 0 -27 26q0 7 1 12q5 20 16 34.5t18 19t9 4.5q26 0 85.5 0.5t96.5 0.5q96 0 194 -3q30 -3 30 -43q0 -32 -18 -47q-24 -29 -241.5 -263.5t-248.5 -275.5q15 -2 97 -2l232 6q17 0 17 -24q0 -20 -10.5 -44 t-20.5 -25h-51q-16 0 -57.5 -0.5t-62.5 -0.5q-209 0 -240 5q-26 3 -26 40z" />
<glyph unicode="[" horiz-adv-x="355" d="M35 -72q-1 15 4 38q104 485 158 746q11 39 32 64.5t51.5 35.5t53 13t55.5 3h6q11 1 16 0t10 -8t5 -22t-7 -32t-17 -17q-54 0 -77.5 -13t-30.5 -50h-1q-102 -480 -152 -719q-3 -12 -3 -20q0 -20 19 -27t63 -7q15 0 15 -20q0 -27 -9.5 -41t-19 -16t-26.5 -2q-30 0 -50 2.5 t-44.5 10.5t-37.5 28.5t-13 52.5z" />
<glyph unicode="\" horiz-adv-x="403" d="M117 668q0 20 26 32t49 12q14 0 22 -15l127 -662q0 -13 -25.5 -30t-47.5 -17q-24 0 -25 17z" />
<glyph unicode="]" horiz-adv-x="324" d="M-20 -139q0 15 7.5 33.5t17.5 18.5q51 0 75.5 12.5t31.5 45.5q129 598 154 724q2 8 2 19q0 20 -18.5 27.5t-62.5 7.5q-15 0 -15 21q0 17 11.5 37t21.5 21h8q27 0 42 -0.5t40.5 -5.5t39.5 -14.5t25.5 -28.5t11.5 -47q0 -13 -1 -17q0 -1 -0.5 -3.5t-0.5 -4.5l-158 -745 q-10 -44 -31 -71.5t-52 -39t-54 -14.5t-57 -3q-15 0 -21.5 1t-11.5 7t-5 19z" />
<glyph unicode="^" horiz-adv-x="525" d="M92 567q0 17 15 30l223 129q6 3 20 3q15 0 18 -1l151 -130q8 -8 8 -19q0 -17 -25 -39t-33 -20l-133 123q-208 -125 -209 -126q-9 -3 -22 14.5t-13 35.5z" />
<glyph unicode="_" horiz-adv-x="616" d="M14 -137q0 22 10.5 45.5t24.5 23.5l498 1q6 0 11 -11.5t5 -26.5q0 -57 -31 -62l-496 -1q-22 0 -22 31z" />
<glyph unicode="`" horiz-adv-x="330" d="M112 633q0 17 26.5 43t38.5 27q109 -63 137 -79q14 -10 14 -28q0 -19 -19 -35.5t-31 -16.5l-153 69q-13 9 -13 20z" />
<glyph unicode="a" horiz-adv-x="542" d="M34 159q0 146 82.5 242.5t218.5 96.5q57 0 101 -8t64 -18t21 -20q0 -14 -27.5 -147.5t-49.5 -217.5v-4q0 -21 19 -34.5t39 -16.5l19 -3q-82 -52 -129 -52q-40 0 -57 34q-52 -33 -102 -33q-199 0 -199 181zM141 171q0 -103 88 -103q26 0 54.5 8t44.5 16l15 9l69 298 q-23 10 -59 12q-79 5 -136 -39t-73 -159q-3 -24 -3 -42z" />
<glyph unicode="b" horiz-adv-x="511" d="M50 82l127 605q2 10 20 19t45 9q34 0 36 -26l-51 -245q75 54 145 54q66 0 105.5 -46.5t39.5 -120.5q0 -32 -5 -56q-32 -145 -120 -221t-199 -76q-68 0 -99 29.5t-44 74.5zM153 111q27 -39 88 -39q65 0 118 63t53 173q0 91 -71 91q-70 0 -134 -51z" />
<glyph unicode="c" horiz-adv-x="458" d="M57 182q0 134 85 225t203 91q50 0 83.5 -8t59.5 -34l1 -13q-10 -52 -55 -65l-6 3q-22 26 -101 26q-69 0 -119 -64.5t-50 -148.5q0 -52 24 -84.5t69 -32.5q36 0 60.5 8t58.5 32l7 1q11 0 23 -17.5t12 -35.5q0 -36 -62 -61.5t-112 -25.5q-85 0 -133 57t-48 147z" />
<glyph unicode="d" horiz-adv-x="539" d="M54 150q0 142 98 245.5t228 103.5q36 0 68 -7q4 16 10 48t9 47q3 13 10.5 48t11.5 54q14 20 65 20q34 0 34 -27l-139 -658q-10 -5 -27.5 -12.5t-72 -20.5t-108.5 -13q-90 0 -138.5 45t-48.5 127zM162 165q0 -47 26.5 -69.5t71.5 -22.5q59 0 104 20q10 49 31.5 149 t31.5 151q-25 5 -49 5q-61 0 -123 -44t-87 -140q-6 -27 -6 -49z" />
<glyph unicode="e" horiz-adv-x="481" d="M48 160q0 149 72.5 244t191.5 95q91 0 129.5 -29t38.5 -91q0 -41 -24 -130v-2q-12 -31 -174 -31l-128 4q-4 -21 -4 -44q0 -54 31.5 -80t82.5 -26q45 0 108 21l2 1h3q13 0 20.5 -16.5t7.5 -35.5q0 -62 -181 -62q-176 0 -176 182zM172 302q3 0 12 -0.5t15 -0.5q27 -1 97 -1 h75q11 53 11 69q0 25 -17.5 36t-63.5 11q-96 0 -129 -114z" />
<glyph unicode="f" horiz-adv-x="389" d="M-154 -210q0 24 22 55q44 0 80.5 22t56.5 49t36 63t20.5 53.5t6.5 29.5l67 328h-16q-29 0 -37 3t-8 19q0 13 9 40t20 27q10 -1 22 -1q26 0 31 1l5 25t7 31q4 20 14 60q14 52 75 89.5t130 37.5q32 0 61.5 -9.5t29.5 -29.5q0 -17 -18 -41.5t-30 -23.5q-25 14 -62 14 q-32 0 -58.5 -14t-33.5 -39q-4 -16 -11 -47t-10 -47h47h11q18 0 48 -2h6q4 -1 12 -1q2 0 6.5 -0.5t7.5 -0.5q15 -4 15 -25q0 -20 -9.5 -41t-23.5 -22q-53 3 -97 3q-30 0 -41 -1q-12 -56 -35 -168.5t-35 -168.5q-16 -74 -46 -131t-60.5 -87.5t-66.5 -49.5t-61.5 -24.5 t-47.5 -5.5l-29 2l-6 4q-4 9 -4 24z" />
<glyph unicode="g" horiz-adv-x="564" d="M-13 -126q0 18 26 32.5t48 14.5q21 0 21 -15q0 -75 111 -75q78 0 122 29.5t44 83.5q0 25 -20.5 35.5t-67.5 10.5h-14q-2 0 -7.5 -0.5t-8.5 -0.5q-9 -1 -34 -1q-35 0 -63 9.5t-43.5 22.5t-25.5 26t-13 22l-4 10l99 74q-46 42 -46 112q0 89 68 162t171 73l232 -14 q6 0 10 -18t4 -36l1 -18l-104 -7q17 -39 17 -76q0 -88 -73 -154t-166 -66q-32 0 -48 6q-6 -6 -16 -14h1l-13 -13q9 -5 76 -5h15q179 0 179 -127q0 -17 -4 -43l-1 -2v-2q-1 -2 -1 -6q-21 -80 -101.5 -124t-177.5 -44q-32 0 -62 6t-61 20t-50 43t-20 69zM207 275q0 -32 23 -53 t59 -21q49 0 89.5 37t40.5 85q0 35 -23 60t-58 25q-43 0 -81 -33.5t-47 -77.5q-3 -12 -3 -22z" />
<glyph unicode="h" horiz-adv-x="516" d="M25 -2l149 698q5 15 54 18q44 -1 44 -28l-46 -220q56 31 117 31q77 0 125 -49.5t48 -125.5q0 -20 -3 -38l-62 -288q-33 -9 -55 -9q-12 0 -23.5 3.5t-16.5 6.5l-6 3l62 288v7v1q1 2 1 3q0 41 -33.5 69t-86.5 28q-43 0 -85 -20l-82 -380q-24 -9 -48 -9q-12 0 -25 2.5 t-21 5.5z" />
<glyph unicode="i" horiz-adv-x="234" d="M39 14l99 471q2 5 23.5 12.5t39.5 7.5q36 0 36 -27l-97 -464q-3 -13 -19 -20t-36 -7q-46 0 -46 27zM160 589q1 5 3.5 15.5t2.5 11.5q3 16 17.5 27.5t30.5 11.5h22q16 0 26 -10t10 -26v-3q-1 -2 -1 -4l-5 -22q-3 -16 -17 -27.5t-30 -11.5h-22q-16 0 -26.5 10.5t-10.5 27.5 z" />
<glyph unicode="j" horiz-adv-x="233" d="M-181 -230q0 26 21 58q48 0 87.5 23.5t61.5 55t37 67t20.5 56.5t5.5 26l90 424q2 5 25 12.5t42 7.5q35 0 35 -28h-3q-1 -11 -56 -278q-15 -68 -30 -142q-17 -80 -48 -140.5t-62.5 -92t-69.5 -50.5t-63.5 -24t-51.5 -5l-31 2l-6 4q-4 9 -4 24zM164 575q0 7 2 11l-1 -1 l4 21q2 16 16 28t32 12h20q16 0 26 -10.5t10 -26.5l-1 -3v-4l-4 -21q-4 -16 -18.5 -27.5t-30.5 -11.5h-20q-16 0 -25.5 9t-9.5 24z" />
<glyph unicode="k" horiz-adv-x="514" d="M39 -2l148 697q2 5 24 12.5t40 7.5q34 0 34 -27l-67 -309q28 12 78.5 39.5t86.5 48.5l37 21q12 12 20 12q12 0 29.5 -20t17.5 -35q0 -9 -30 -31.5t-68.5 -45t-71.5 -39.5q16 -32 45 -88.5t53 -104t45 -87.5q0 -9 -30 -36t-48 -27q-14 0 -16 12l-75 147q-48 92 -74 144 l-18 -4q-10 -48 -31 -146t-31 -145q-35 -7 -56 -7t-42 11z" />
<glyph unicode="l" horiz-adv-x="228" d="M22 13l154 724q2 5 23.5 12.5t40.5 7.5q37 0 37 -27l-152 -717q-3 -13 -19.5 -20t-36.5 -7q-47 0 -47 27z" />
<glyph unicode="m" horiz-adv-x="859" d="M20 6q10 46 44.5 210t53.5 251q4 15 51 23q21 0 32.5 -4.5t14 -10t2.5 -13.5l-7 -30q77 66 147 66q118 0 145 -97q38 42 87 69.5t98 27.5q27 0 48 -3.5t42.5 -14.5t36 -28.5t23.5 -48t9 -71.5q0 -71 -30 -196q-14 -61 -28 -135q-1 -3 -8.5 -6t-19 -5t-23.5 -2 q-20 0 -35.5 6t-15.5 13q38 184 51 243v2l1 2q7 34 6 54q0 88 -87 88q-32 0 -74.5 -18t-70.5 -51q0 -35 -16 -115l-45 -209q-4 -17 -48 -17q-20 0 -36 6t-17 13q35 173 51 244q8 38 8 65q0 82 -81 82q-32 0 -72 -18.5t-68 -51.5l-68 -323q-4 -15 -47 -15q-20 0 -36.5 5.5 t-17.5 12.5z" />
<glyph unicode="n" horiz-adv-x="540" d="M26 10l100 462q17 17 62 17q16 0 25.5 -8t10.5 -12.5t1 -8.5l-7 -29q69 67 153 67q33 0 58.5 -6.5t50.5 -23.5t38.5 -52t13.5 -86q0 -57 -14 -119q-8 -39 -24.5 -111.5t-21.5 -93.5q-6 -18 -46 -18q-23 0 -40 6t-15 16l51 239q7 31 7 59q0 87 -87 87q-34 0 -75.5 -17.5 t-69.5 -50.5q-4 -17 -11.5 -50t-13.5 -61t-10 -51q-7 -32 -35 -167l-4 1q-15 -11 -47 -11q-50 0 -50 22z" />
<glyph unicode="o" horiz-adv-x="561" d="M59 176q0 138 91 230t213 92q89 0 145 -53.5t56 -140.5q0 -30 -6 -55q-31 -124 -115.5 -197.5t-186.5 -73.5q-89 0 -143 52t-54 146zM160 193q0 -56 28.5 -89t80.5 -33q70 0 119.5 48.5t70.5 130.5q5 23 5 41q0 54 -33.5 85t-85.5 31q-73 0 -129 -63t-56 -151z" />
<glyph unicode="p" horiz-adv-x="535" d="M-8 -236q28 135 80.5 382.5t66.5 312.5q10 4 28 10.5t74.5 17.5t115.5 11q97 0 149 -44t52 -128q0 -75 -28 -140.5t-74 -110.5t-106 -71t-125 -26q-47 0 -82 8q-8 -37 -24 -111.5t-24 -112.5q0 -1 -1 -3t-4.5 -6.5t-9 -7.5t-16.5 -6t-25 -3q-5 0 -13 1t-21 8t-13 19z M165 90q36 -11 78 -11q157 0 195 182q6 28 6 50q0 96 -107 96q-23 0 -50.5 -4.5t-44.5 -8.5l-16 -4l-23 -111q-20 -104 -38 -189z" />
<glyph unicode="q" horiz-adv-x="530" d="M52 139q0 33 7 67q30 143 123 217.5t214 74.5q59 0 99.5 -12t52.5 -24l11 -12l-146 -691l-1 1q-13 -23 -55 -24q-39 0 -46 23l46 233q-64 -14 -119 -14q-89 0 -137.5 40.5t-48.5 120.5zM162 171q0 -98 120 -98q16 0 40 3.5t40 6.5l16 3l68 315q-20 10 -59 10 q-24 0 -41 -1q-66 -7 -125 -75.5t-59 -163.5z" />
<glyph unicode="r" horiz-adv-x="419" d="M37 12l96 455q10 23 59 23q18 0 28 -7t12 -13l1 -7l-6 -26q57 61 139 61q30 0 67 -18.5t37 -41.5q0 -17 -21.5 -43t-33.5 -24q-37 26 -73 26t-76 -18.5t-62 -51.5q-38 -170 -67 -317q-21 -26 -51 -26q-19 0 -34 10t-15 18z" />
<glyph unicode="s" horiz-adv-x="408" d="M28 44q0 16 29 41.5t38 25.5q15 -18 44.5 -30t59.5 -12q37 0 62.5 21t25.5 62q0 38 -54 38q-81 0 -113 26t-32 71q0 96 66.5 154.5t152.5 58.5q74 0 123 -55v1q3 -3 3 -12q0 -14 -20.5 -44t-34.5 -30q-30 51 -84 51q-43 0 -73.5 -25.5t-30.5 -75.5q0 -18 14.5 -26.5 t51.5 -8.5q132 0 132 -101q0 -100 -61 -149.5t-139 -49.5q-45 0 -87 15.5t-68 41.5h1q-6 4 -6 12z" />
<glyph unicode="t" horiz-adv-x="353" d="M82 406q0 14 11.5 46.5t21.5 32.5q23 -1 41 -1h11q4 19 22 102q0 2 3 5.5t17 9t36 7.5q27 0 35 -7t8 -19l-21 -97h25q6 0 15 0.5t13 0.5h39q14 0 21 -2t10.5 -7t3.5 -15q0 -19 -11.5 -47.5t-20.5 -28.5q-45 1 -82 1h-34l-44 -215q-9 -43 -9 -60q0 -23 17.5 -33t61.5 -10 q15 0 15 -22q0 -16 -11.5 -36.5t-21.5 -20.5h-10q-98 0 -121 25v-1q-30 30 -30 92q0 21 15 103q5 26 9 45.5t12 52.5t15 67q0 4 2 12q-1 0 -3.5 -0.5t-4.5 -0.5h-8q-31 0 -39.5 3t-8.5 18z" />
<glyph unicode="u" horiz-adv-x="553" d="M70 144q0 65 37 227q3 15 7 33t8 36.5t7 30.5q6 18 47 18q21 0 38 -7t16 -15l-49 -233q-10 -47 -10 -73q0 -42 21.5 -61t68.5 -19q31 0 74 21t71 55q41 193 71 322q10 10 49 10q50 0 50 -21l-98 -458q-14 -24 -64 -24q-10 0 -17.5 3t-11 6.5t-5.5 9t-2 7v3.5l8 38 q-72 -76 -159 -76q-33 0 -57.5 6t-49 22.5t-37.5 51.5t-13 87z" />
<glyph unicode="v" horiz-adv-x="497" d="M100 456q0 1 0.5 4t4 8.5t9.5 10.5t18.5 8.5t28.5 3.5q44 0 49 -32l34 -317q33 55 98.5 164.5t98.5 164.5q15 20 45 20q52 0 52 -38l-279 -448q-26 -14 -47 -14q-9 0 -21.5 4t-20.5 8l-7 4z" />
<glyph unicode="w" horiz-adv-x="745" d="M112 449q0 4 2.5 9.5t8.5 13t19.5 12.5t32.5 5q18 0 28 -6.5t12 -11.5t2 -9q2 -47 5.5 -101t7 -109t5.5 -99q48 100 143 298q25 37 69 37q42 0 43 -36q3 -56 8.5 -152.5t8.5 -147.5l135 284l13 21q15 29 59 29q19 0 30.5 -6.5t14.5 -12t3 -11.5v-4l-234 -451 q-22 -10 -49 -10q-12 0 -25.5 3.5t-21.5 6.5l-8 3l-24 278q-2 -3 -5 -9.5t-5 -9.5q-15 -29 -42.5 -83t-50 -98t-41.5 -81q-22 -10 -49 -10q-12 0 -25.5 3.5t-21.5 6.5l-7 3z" />
<glyph unicode="x" horiz-adv-x="535" d="M15 34q1 6 88 92t133 129q-59 110 -100 190q4 0 4 5q3 15 25.5 27.5t43.5 12.5q26 0 30 -16h-1q34 -65 41 -78q7 -14 19.5 -36.5t18.5 -34.5q76 76 160 157q12 8 23 8q18 0 34.5 -13.5t16.5 -32.5q0 -14 -13 -27l-187 -181q54 -109 101 -191v2q3 -3 3 -11q0 -15 -25 -30 t-48 -15h-15l-97 175l-81 -81v1q-56 -58 -83 -85q-17 -11 -28 -11q-20 0 -41.5 14.5t-21.5 29.5z" />
<glyph unicode="y" horiz-adv-x="505" d="M-38 -230q0 25 20 57q46 0 84.5 21.5t63 56t38.5 63.5t22 56q-91 369 -105 427q-3 3 -3 17q21 21 68 21q14 0 24 -6.5t13 -12.5l3 -7q14 -55 39.5 -163t39.5 -162q112 188 200 340q8 14 25 14q19 0 40.5 -12t21.5 -24q0 -7 -6 -13l2 1q-81 -135 -209 -359 q-91 -160 -147 -242q-70 -102 -199 -102l-25 1l-6 4q-4 9 -4 24z" />
<glyph unicode="z" horiz-adv-x="428" d="M9 27q0 32 31 70q103 126 270 269q3 2 8.5 7.5t8.5 7.5q2 2 3.5 2.5t2 1t2 1.5t5 4t9.5 9h-31l-163 -5q-29 0 -29 27q7 33 13.5 48t19.5 15q57 4 127 4q72 0 162 -7q6 -1 11.5 -6t9.5 -14.5t4 -21.5q0 -40 -42 -76q-11 -11 -25.5 -23t-31.5 -26t-26 -22 q-42 -34 -66 -54.5t-66.5 -63.5t-85.5 -96h52l192 4h2q14 -4 14 -22q0 -20 -15.5 -45t-26.5 -25q-14 -2 -254 -2q-48 0 -66.5 7.5t-18.5 31.5z" />
<glyph unicode="{" horiz-adv-x="402" d="M71 336q0 21 10.5 37t23.5 16q3 0 9.5 1.5t17.5 7t21.5 14t20.5 24t15 34.5q41 199 51 242q12 39 33.5 64t51.5 35t52.5 13t54.5 3h6q11 1 16 0t10 -8t5 -22t-7 -32t-17 -17q-53 0 -76.5 -12t-30.5 -46l-49 -226q-10 -37 -30.5 -60.5t-36.5 -29.5l-16 -5q-5 0 -8.5 -12 t-3.5 -24q0 -4 -3 -4q2 0 6.5 -1t12.5 -5t14.5 -11t11.5 -21t5 -33q0 -17 -3 -35l-54 -257q-3 -12 -3 -20q0 -20 19 -27t63 -7q14 0 14 -20q0 -27 -9 -41t-18.5 -16t-26.5 -2q-30 0 -50 2.5t-44.5 10.5t-37.5 28.5t-13 52.5q-1 16 4 38q9 44 28 132t28 132q3 13 3 25 q0 24 -12.5 37.5t-24.5 15.5l-13 2q-20 1 -20 27z" />
<glyph unicode="|" horiz-adv-x="354" d="M84 16l144 679q2 5 21.5 12.5t36.5 7.5q35 0 35 -27l-142 -672q-6 -27 -52 -27q-43 0 -43 27z" />
<glyph unicode="}" horiz-adv-x="389" d="M-30 -140q0 14 7.5 33t18.5 19q52 0 75.5 12t30.5 46l54 257q11 44 33 69.5t38 29.5l16 3q4 0 7 12.5t3 22.5v5q-4 0 -13.5 4.5t-22 23t-12.5 47.5q0 8 2 24l49 226q2 8 2 19q0 20 -18.5 27.5t-62.5 7.5q-15 0 -15 21q0 17 11.5 37t21.5 21h8q27 0 42 -0.5t40 -5.5 t39 -14.5t25.5 -28.5t11.5 -47q0 -16 -1 -23l-51 -242q-3 -12 -3 -21q0 -22 13 -36t25 -17l13 -3q18 -1 18 -27q0 -17 -9.5 -34.5t-23.5 -18.5h-7.5t-16.5 -4t-22.5 -11.5t-21.5 -25.5t-16 -43q-9 -44 -28 -132.5t-28 -131.5q-10 -44 -31 -71.5t-52 -39t-54 -14.5t-57 -3 q-15 0 -21.5 1t-11.5 7t-5 19z" />
<glyph unicode="~" horiz-adv-x="364" d="M37 288q0 16 6 22q29 29 78 29q47 0 98 -38q18 -9 25 -9q15 0 31 11.5t23.5 19.5t10.5 13q10 5 13 5q13 0 28 -20.5t15 -37.5q0 -13 -14 -27l6 8q-47 -52 -105 -52q-17 0 -75 29v-1q-34 16 -43 16q-26 0 -47 -21q-10 -5 -13 -5q-15 0 -26 19.5t-11 38.5z" />
<glyph unicode="&#xa1;" horiz-adv-x="327" d="M76 14l111 526q2 5 23 12.5t39 7.5q37 0 37 -27l-109 -519q-3 -13 -19 -20t-36 -7q-46 0 -46 27zM209 640q0 7 1 10l5 21q2 16 16.5 27.5t31.5 11.5h22q16 0 25.5 -10t9.5 -26v-7l-5 -22q-3 -16 -17.5 -27.5t-30.5 -11.5h-22q-16 0 -26 9.5t-10 24.5z" />
<glyph unicode="&#xa2;" horiz-adv-x="547" d="M85 196q0 110 72 193.5t173 105.5q4 17 24 112q2 5 21.5 12.5t36.5 7.5q35 0 35 -27l-21 -98q39 -3 72.5 -15.5t33.5 -36.5q0 -15 -14.5 -37t-42.5 -32q-22 26 -69 29q-13 -58 -34 -163t-32 -155q32 7 76 37l7 1q11 0 23 -17t12 -35q0 -30 -47 -55t-93 -32l-14 -69 q-6 -27 -52 -27q-43 0 -43 27l15 75q-65 17 -102 71.5t-37 127.5zM186 211q0 -39 15.5 -68t43.5 -42q57 270 63 296q-27 -13 -51.5 -35.5t-42 -52t-24.5 -60.5q-4 -19 -4 -38z" />
<glyph unicode="&#xa3;" horiz-adv-x="554" d="M-1 15q0 18 7.5 40t18.5 25q43 17 79 17q46 73 76 186h-6q-38 0 -48.5 3.5t-10.5 21.5l1 1v2v2q1 2 1 3l3 19q0 1 0.5 2.5t0.5 2.5q0 5 1 7q4 19 8.5 22t26.5 3q31 0 41 1q4 17 11 52.5t11 52.5l24 108q14 53 77.5 90t131.5 37q30 0 58.5 -9t28.5 -29q0 -18 -18 -42.5 t-30 -23.5q-25 14 -62 14q-29 0 -56 -15t-36 -39q-2 -9 -19 -88q-3 -16 -10 -50t-11 -52h46h11q18 0 48 -2h6q4 -1 12 -1q2 0 6.5 -0.5t7.5 -0.5q15 -4 15 -25q0 -19 -10 -40.5t-23 -22.5q-54 3 -98 3q-30 0 -40 -1q-61 -167 -61 -197q0 -25 48 -25q59 0 200 46q27 0 27 -35 q0 -14 -6 -29t-14 -18q-148 -48 -230 -48q-40 0 -80 12q-1 0 -3 1h-2q-35 11 -56 11q-29 0 -83 -17h-4q-16 0 -16 25z" />
<glyph unicode="&#xa4;" horiz-adv-x="687" d="M48 113q0 10 5 15v-1q14 15 43 44l44 44q-25 44 -25 103q0 62 26 119t71 99q-5 8 -13 23t-12 21q-18 32 -26 48q-3 6 -3 13q3 16 29 31.5t44 18.5l2 0.5t5.5 0t5.5 -2.5q9 -17 27 -48.5t28 -47.5q57 27 117 27q58 0 101 -23l96 97q12 5 13 5q14 0 37 -15.5t23 -32.5 q0 -5 -9 -23l-91 -91q31 -47 31 -110q0 -41 -12.5 -81.5t-34.5 -76t-51 -64.5q12 -20 51 -95q0 -13 -27.5 -35.5t-46.5 -22.5q-16 0 -18 12l-23 41q-14 25 -21 39q-66 -32 -122 -32q-65 0 -114 33q-6 -6 -19 -19.5t-18 -18.5v1q-13 -14 -40 -41q-12 -7 -18 -7 q-16 0 -35.5 19t-19.5 34zM214 326q0 -53 29.5 -87.5t81.5 -34.5q80 0 136 58.5t56 150.5q0 54 -33.5 85t-85.5 31q-70 0 -127 -60t-57 -143z" />
<glyph unicode="&#xa5;" horiz-adv-x="650" d="M63 107q0 13 4.5 28.5t13.5 27t18 11.5h141q2 8 8 30q1 3 6 32h-129q-23 0 -23 31q0 21 11 45t25 24h137q1 3 3.5 11.5t3.5 12.5q-4 10 -48.5 122.5t-66.5 169.5q-2 9 28 36t48 27q10 0 25 -29l84 -223l264 252h-1q6 6 18 6q16 0 33.5 -26.5t16.5 -42.5l-300 -289 q0 -2 -1 -5t-1 -4l-2.5 -7.5t-2.5 -10.5h74q14 0 40 0.5t40 0.5q6 0 11.5 -12.5t5.5 -28.5q0 -53 -32 -59l-158 -1q-2 -8 -8 -30q-1 -3 -6 -32h70q13 0 39 0.5t39 0.5q6 0 11 -11.5t5 -26.5q0 -57 -31 -62l-154 -1q-4 -16 -8 -36q-1 -5 -5 -20.5t-5 -22.5q-37 -7 -58 -7 t-42 11l17 75h-135q-23 0 -23 33z" />
<glyph unicode="&#xa6;" horiz-adv-x="234" d="M13 -93l72 344q2 5 22.5 12.5t37.5 7.5q36 0 36 -27l-71 -337q-3 -13 -18.5 -20t-34.5 -7q-44 0 -44 27zM108 354l72 344q2 5 22.5 12.5t37.5 7.5q36 0 36 -27l-71 -337q-6 -27 -53 -27q-44 0 -44 27z" />
<glyph unicode="&#xa7;" horiz-adv-x="468" d="M20 -15q0 18 29 43.5t38 25.5q41 -37 110 -37q75 0 89 57q3 16 3 33q0 31 -13 51.5t-40 20.5q-77 0 -110.5 26.5t-33.5 81.5q0 103 71 149q-21 22 -21 78q0 38 10 83q12 54 74 89t131 35q37 0 76 -12.5t39 -36.5q0 -18 -22.5 -43.5t-32.5 -25.5q-26 26 -78 26 q-53 0 -77.5 -22t-24.5 -70q0 -27 17.5 -40.5t61.5 -13.5q58 0 88 -30.5t30 -81.5q0 -46 -20 -86t-47 -65q15 -28 15 -76q0 -115 -56 -167.5t-144 -52.5q-99 0 -157 50h1q-6 3 -6 11zM186 298q0 -8 1 -11q29 -11 64 -11q40 0 66.5 19.5t26.5 58.5q0 14 -9 21t-18.5 8 t-29.5 1q-101 0 -101 -86z" />
<glyph unicode="&#xa8;" horiz-adv-x="529" d="M176 598q0 28 19.5 48t44.5 20h6q19 0 31 -12t12 -32q0 -8 -1 -12v-2q-1 -2 -1 -3q-5 -21 -22.5 -35.5t-37.5 -14.5h-6q-20 0 -32.5 12t-12.5 31zM348 598q0 28 19.5 48t44.5 20h6q19 0 31 -12t12 -31q0 -8 -1 -13v-2q-1 -2 -1 -3q-5 -21 -22 -35.5t-38 -14.5h-6 q-20 0 -32.5 12t-12.5 31z" />
<glyph unicode="&#xa9;" horiz-adv-x="739" d="M76 273q0 41 9 83q31 147 147.5 252t248.5 105q114 0 185.5 -78.5t71.5 -199.5q0 -113 -59.5 -216t-153.5 -163.5t-192 -60.5q-114 0 -185.5 78.5t-71.5 199.5zM171 285q0 -87 49 -143t127 -56q95 0 180.5 79t108.5 192q7 32 7 65q0 89 -49.5 147.5t-127.5 58.5 q-108 0 -201.5 -106t-93.5 -237zM246 321q0 96 71 159t154 63q60 0 106 -40q0 -12 -18.5 -39.5t-30.5 -27.5q-7 0 -14 6q-26 15 -56 15q-46 0 -83.5 -34.5t-37.5 -90.5q0 -34 20 -55t50 -21q37 0 74 31h-1q3 3 11 3q9 0 18 -16t9 -33q0 -33 -45 -53t-81 -20 q-63 0 -104.5 43.5t-41.5 109.5z" />
<glyph unicode="&#xaa;" horiz-adv-x="432" d="M82 490q0 115 65.5 191t172.5 76q45 0 80.5 -6.5t51 -15t16.5 -16.5q0 -11 -21.5 -115.5t-38.5 -170.5q2 -17 22 -27t34 -12.5t21 -2.5q-79 -46 -118 -46q-35 0 -49 26q-43 -26 -77 -26q-159 0 -159 145zM176 498q0 -38 14.5 -55.5t46.5 -17.5q18 0 38.5 5.5t32.5 11.5 l11 5l53 225q-23 5 -45 5q-48 0 -99.5 -45.5t-51.5 -133.5z" />
<glyph unicode="&#xab;" horiz-adv-x="484" d="M58 240q0 2 1 5.5t2 7.5t2.5 8t3.5 8l3 6l178 182q10 10 25 10q16 0 32.5 -16.5t16.5 -30.5l-174 -172q57 -93 98 -163q1 -8 -22.5 -27t-40.5 -19t-21 14l-50 89q-9 15 -25.5 44.5t-24.5 43.5l-1 -1q-3 3 -3 11zM238 240q0 5 4 17t8 18l178 182q10 10 25 10 q16 0 32.5 -16.5t16.5 -30.5l-174 -172q57 -93 98 -163q1 -8 -22.5 -27t-40.5 -19t-21 14l-50 89q-8 15 -24.5 44.5t-25.5 43.5l-1 -1q-3 3 -3 11z" />
<glyph unicode="&#xac;" horiz-adv-x="586" d="M74 259q0 21 10 40.5t24 19.5l396 1h11q30 0 38.5 -3.5t8.5 -20.5q0 -12 -5 -32q0 -1 -0.5 -3t-0.5 -3q0 -2 -1 -5t-1.5 -6t-0.5 -4q-22 -99 -29 -142q-2 -8 -19.5 -15.5t-34.5 -7.5q-32 0 -32 27l25 125h-366q-23 0 -23 29z" />
<glyph unicode="&#xad;" horiz-adv-x="505" d="M72 319q0 21 11 45t25 24l371 1q6 0 11.5 -12.5t5.5 -28.5q0 -21 -8.5 -39t-23.5 -20l-369 -1q-23 0 -23 31z" />
<glyph unicode="&#xae;" horiz-adv-x="751" d="M76 273q0 41 9 83q31 147 147.5 252t248.5 105q114 0 185.5 -78.5t71.5 -199.5q0 -113 -59.5 -216t-153.5 -163.5t-192 -60.5q-114 0 -185.5 78.5t-71.5 199.5zM171 285q0 -87 49 -143t127 -56q95 0 180.5 79t108.5 192q7 32 7 65q0 89 -49.5 147.5t-127.5 58.5 q-108 0 -201.5 -106t-93.5 -237zM257 200q0 6 1 9l68 315q49 19 106 19q56 0 92 -22.5t36 -72.5q0 -58 -29.5 -92t-73.5 -41q4 -6 12.5 -22t14.5 -25q6 -10 17 -28.5t15 -24.5q0 -8 -23 -25t-43 -17q-18 0 -22 10q-14 22 -35 58t-31 52q-16 -71 -22 -113q-25 -8 -45 -8 q-38 0 -38 28zM384 386h15q70 0 70 46q0 29 -40 29q-14 0 -30 -3z" />
<glyph unicode="&#xaf;" horiz-adv-x="386" d="M80 621q0 22 10.5 37.5t22.5 15.5l306 1q7 0 13.5 -7t6.5 -21q0 -45 -30 -49l-304 -1q-25 0 -25 24z" />
<glyph unicode="&#xb0;" horiz-adv-x="392" d="M121 572q0 22 6 49q28 133 158 133q114 0 114 -93q0 -54 -16.5 -93.5t-43.5 -59t-52.5 -28t-51.5 -8.5q-114 0 -114 100zM205 589q0 -36 42 -36q9 0 17 2.5t20.5 10t20 28.5t7.5 52q0 32 -38 32h-4q-9 0 -16.5 -1t-23 -16.5t-21.5 -44.5q-4 -15 -4 -27z" />
<glyph unicode="&#xb1;" horiz-adv-x="602" d="M70 106q0 21 11 44t25 23l371 1q6 0 11 -11.5t5 -26.5q0 -57 -31 -62l-369 -1q-23 0 -23 33zM147 469q0 7 2 16.5t5 18t7.5 16t10 12t11.5 4.5h131l27 129q3 13 19 20t36 7q11 0 21.5 -3t17.5 -9.5t7 -14.5l-27 -129q11 0 33 0.5t34 0.5h72q6 0 11 -11.5t5 -26.5 q0 -23 -7.5 -41t-23.5 -21l-145 -1q-5 -24 -15 -71t-15 -71q-2 -8 -23 -15.5t-40 -7.5q-37 0 -37 27l29 138h-123q-23 0 -23 33z" />
<glyph unicode="&#xb2;" horiz-adv-x="473" d="M74 244q0 22 6 49q18 72 65.5 114t116.5 73q26 12 41.5 20t33.5 21.5t26.5 30t8.5 36.5q0 40 -40 40q-32 0 -61.5 -10t-42.5 -20l-14 -11h1q-3 -3 -7 -3q-3 -2 -7 -2q-15 0 -28.5 24.5t-13.5 40.5q0 6 6 10v1q7 6 29 18.5t65 26t83 13.5q54 0 93 -24t39 -84 q0 -34 -9.5 -62.5t-22.5 -46.5t-37 -35.5t-40 -26.5t-45 -23q-106 -51 -131 -115h205q3 -21 3 -25q0 -17 -6.5 -33t-12.5 -24t-7 -8h-271q-26 0 -26 35z" />
<glyph unicode="&#xb3;" horiz-adv-x="447" d="M56 243q0 16 26 44.5t43 28.5l4 -5q1 -1 2 -3.5t7 -9t14 -12t22.5 -11t32.5 -7.5q28 2 53 11.5t42 29t17 44.5q0 48 -87 48q-17 0 -41 -3q-16 0 -16 25q0 22 7 43t21 22l87 3q20 0 39.5 22.5t27.5 59.5q2 12 2 15q0 38 -60 38q-20 0 -39.5 -5.5t-29 -11t-26.5 -16.5h1 q-7 -6 -13 -6q-12 0 -29 26.5t-17 38.5q13 13 41.5 27.5t64 24.5t62.5 10q19 0 39 -4t44 -14.5t40 -34.5t16 -58q1 -11 -2 -29l-1 -1v-2q-1 -2 -1 -7q-15 -97 -68 -122q29 -27 29 -77q0 -71 -58.5 -129t-145.5 -58q-85 0 -145 53h1q-6 3 -6 12z" />
<glyph unicode="&#xb4;" horiz-adv-x="330" d="M102 585q0 28 33 44l162 75q9 2 25.5 -18t16.5 -40q0 -21 -23 -34l-179 -68q-10 0 -22.5 12.5t-12.5 28.5z" />
<glyph unicode="&#xb5;" horiz-adv-x="632" d="M61 -238q35 169 157 736h98l-78 -365q6 -12 17 -22t23.5 -16.5t27.5 -11.5t30 -7t31 -2q23 0 44.5 4.5t38 12.5t22.5 19q14 23 61 257q16 68 28 131h103q-5 -25 -9 -47q-67 -358 -108 -403q-35 -38 -82.5 -55.5t-120.5 -17.5q-83 0 -130 43q-7 -33 -24.5 -117t-26.5 -129 q-3 -17 -20.5 -25.5t-38.5 -8.5q-43 0 -43 24z" />
<glyph unicode="&#xb6;" horiz-adv-x="653" d="M127 457q0 32 7 66q42 192 258 192h217l2 1q5 0 10.5 -5.5t5.5 -18.5q0 -19 -132 -642q-3 -12 -3 -19q0 -23 15 -36t31 -15l15 -1q16 0 16 -21q0 -15 -10 -32.5t-19 -17.5q-5 0 -14 0.5t-32 6.5t-40 16.5t-31.5 33.5t-14.5 54q0 28 18 115t53 242t55 254q-16 2 -25 2 q-16 0 -31 -3q-38 -172 -122 -577q-8 -36 -8 -66q0 -36 12.5 -57t25.5 -24l12 -3q14 -4 14 -23q0 -16 -9.5 -32t-19.5 -16q-5 0 -13 1t-29 8.5t-37 21.5t-29 44.5t-13 72.5q0 35 62 324q-6 -1 -26 -1q-22 0 -42 3t-44.5 13t-42.5 26t-30 45t-12 68z" />
<glyph unicode="&#xb7;" horiz-adv-x="226" d="M60 264q0 39 24.5 66t61.5 27h9q25 0 41 -16t16 -41q0 -12 -1 -15q0 -1 -1 -1v-2q-1 -2 -1 -5q-7 -29 -30.5 -48.5t-50.5 -19.5h-9q-26 0 -42.5 15t-16.5 40z" />
<glyph unicode="&#xb8;" horiz-adv-x="264" d="M27 -117q0 15 39 22l2 1h4q63 14 63 37q0 8 -10.5 17.5t-21.5 14.5l-11 5l18 58h77l-4 -54q31 -11 31 -40q0 -34 -36.5 -59.5t-71.5 -34.5t-54 -9q-10 0 -17.5 14t-7.5 28z" />
<glyph unicode="&#xb9;" horiz-adv-x="425" d="M103 509q0 11 11 20q209 152 237 173q14 4 32 4q14 0 25 -7.5t11 -20.5l-107 -486q-8 -5 -37 -5q-35 0 -55 9l76 360q-19 -13 -71.5 -48.5t-78.5 -52.5q-9 2 -26 20.5t-17 33.5z" />
<glyph unicode="&#xba;" horiz-adv-x="484" d="M113 513q0 28 5 48q17 84 85.5 139.5t149.5 55.5q70 0 114.5 -43.5t44.5 -112.5q0 -98 -76.5 -174t-164.5 -76q-71 0 -114.5 46t-43.5 117zM205 526q0 -37 22 -61.5t58 -24.5q50 0 92.5 44t42.5 98q0 37 -23 62.5t-59 25.5q-51 0 -92 -43t-41 -101z" />
<glyph unicode="&#xbb;" horiz-adv-x="554" d="M82 88l169 165q-20 32 -55.5 94.5t-43.5 76.5q-1 8 22 25.5t40 17.5q15 0 22 -13l105 -189q0 -16 -12 -40l-164 -167q-23 -19 -35 -19q-16 0 -32 18t-16 31zM262 88l169 165q-20 32 -55.5 94.5t-43.5 76.5q-1 8 22 25.5t40 17.5q15 0 22 -13l105 -189q0 -16 -12 -40 l-164 -167q-23 -19 -35 -19q-16 0 -32 18t-16 31z" />
<glyph unicode="&#xbc;" horiz-adv-x="1044" d="M113 509q0 11 11 20q79 57 237 173q14 4 32 4q14 0 25 -7.5t11 -20.5q-3 -6 -83 -384q-23 -111 -25 -110q-1 0 0 7q-8 -4 -36 -4q-34 0 -55 8l76 361q-19 -13 -71.5 -48.5t-78.5 -52.5q-9 2 -26 20.5t-17 33.5zM267 25q0 7 4 11q118 166 481 674v-1q4 9 18 9q20 0 41 -12 t21 -30q0 -1 -0.5 -4t-0.5 -5l-481 -674q-9 -12 -25 -12q-18 0 -38 15t-20 29zM591 141l21 68q9 10 42.5 44t74 75t80 80.5l65.5 65.5l27 27q1 0 3.5 0.5l2.5 0.5q18 4 30 4q38 0 38 -30l-54 -253h65q-2 -69 -23 -93h-62q-20 -92 -29 -137q-33 -7 -52 -7t-40 11l29 133h-207 zM740 218l89 5q7 29 24 112q-4 -4 -13 -13.5t-14 -13.5q-56 -60 -86 -90z" />
<glyph unicode="&#xbd;" horiz-adv-x="1026" d="M114 509q0 12 10 20q47 35 139 101t101 72q12 4 30 4q14 0 25 -7.5t11 -20.5l-107 -484l2 -1q-6 -6 -39 -6q-35 0 -55 9l76 360q-12 -8 -38 -26t-40 -27t-40.5 -26.5t-30.5 -20.5q-9 2 -26.5 20t-17.5 33zM258 24q0 8 5 12q44 62 216.5 302t262.5 365v-1q4 9 18 9 q20 0 41 -12t21 -30q0 -1 -0.5 -4t-0.5 -5l-479 -667q-10 -12 -25 -12q-18 0 -38.5 15t-20.5 28zM615 26q0 22 6 49q18 72 65.5 114t116.5 73q26 12 41.5 20t33.5 21.5t26.5 30t8.5 36.5q0 40 -40 40q-32 0 -61.5 -10t-43.5 -20l-13 -11h1q-3 -3 -7 -3q-3 -2 -7 -2 q-15 0 -28.5 24.5t-13.5 40.5q0 6 6 10v1q7 6 29 18.5t65 26t83 13.5q54 0 93 -24t39 -84q0 -34 -9.5 -62.5t-22.5 -46.5t-37 -35.5t-40 -26.5t-45 -23q-106 -51 -131 -115h205q3 -21 3 -25q0 -17 -6.5 -33t-12.5 -24t-7 -8h-271q-26 0 -26 35z" />
<glyph unicode="&#xbe;" horiz-adv-x="1104" d="M91 245q0 15 27.5 43t41.5 28l4 -5q2 -4 6 -10t24 -17.5t48 -15.5q44 2 78 25.5t34 60.5q0 47 -86 47q-16 0 -42 -3q-16 0 -16 25q0 22 7 43t21 22l88 3q19 0 39 24t28 58v2q0 1 0.5 2t0.5 2q1 4 1 8q0 39 -60 39q-44 0 -96 -33h1q-8 -6 -13 -6q-11 0 -28 23.5t-17 34.5 v8q101 61 167 61q19 0 39 -4t45 -15t40.5 -35t15.5 -59q0 -21 -4 -37l-1 -1v-2q-18 -92 -68 -119q29 -27 29 -76q0 -72 -58.5 -130t-145.5 -58q-85 0 -145 53h1q-6 3 -6 14zM327 25q0 7 4 11q118 166 481 674v-1q4 9 18 9q20 0 41 -12t21 -30q0 -1 -0.5 -4t-0.5 -5 l-481 -674q-9 -12 -25 -12q-18 0 -38 15t-20 29zM651 141l21 68q15 16 87 89t137 138l65 65q1 0 3.5 0.5l2.5 0.5q18 4 30 4q38 0 38 -30l-54 -253h65q-2 -69 -23 -93h-62q-20 -92 -29 -137q-33 -7 -52 -7t-40 11l29 133h-207zM802 223h87q8 38 23 108q-66 -66 -110 -108z " />
<glyph unicode="&#xbf;" horiz-adv-x="454" d="M37 128q0 27 6 54q8 37 24 66t38.5 49t41.5 31.5t44 23.5q17 9 28.5 15t26.5 17t24.5 22t18.5 27.5t13 35.5q2 8 2 14q2 27 10 39q15 16 44 16q46 0 46 -24q0 -17 -11 -65q-1 -2 -1 -7q0 -1 -0.5 -3.5t-0.5 -3.5q-7 -34 -30 -60.5t-51.5 -42t-60.5 -34t-58 -36.5 t-43 -50.5t-17 -74.5q0 -60 74 -60q40 0 73.5 13.5t47.5 26.5l13 13q10 5 11 5q9 0 25.5 -20t16.5 -37q0 -23 -66.5 -55t-129.5 -32q-71 0 -115 33t-44 104zM329 647q0 6 1 10q0 3 2 7q2 14 11 26t22.5 18.5t27.5 6.5h6q20 0 32.5 -12t12.5 -32q0 -11 -3 -17q-5 -21 -23 -36 t-39 -15h-6q-19 0 -31.5 12.5t-12.5 31.5z" />
<glyph unicode="&#xc0;" horiz-adv-x="688" d="M25 26l423 675v-1q8 16 53 16q38 0 41 -17l88 -675v-10q-6 -24 -47 -24q-52 0 -56 30l-20 191h-259q-10 -15 -30 -48.5t-30 -49.5q-9 -15 -30.5 -49t-31.5 -51q-18 -24 -49 -24q-22 0 -37 11.5t-15 25.5zM309 306h186l-17 93q-4 24 -12.5 70t-13.5 74q-20 -33 -67.5 -113 t-75.5 -124zM335 845q0 17 26.5 43t38.5 27q109 -63 137 -79q14 -10 14 -28q0 -19 -19 -35.5t-31 -16.5l-153 69q-13 9 -13 20z" />
<glyph unicode="&#xc1;" horiz-adv-x="688" d="M25 26l423 675v-1q8 16 53 16q38 0 41 -17l88 -675v-10q-6 -24 -47 -24q-52 0 -56 30l-20 191h-259q-10 -15 -30 -48.5t-30 -49.5q-9 -15 -30.5 -49t-31.5 -51q-18 -24 -49 -24q-22 0 -37 11.5t-15 25.5zM309 306h186l-17 93q-4 24 -12.5 70t-13.5 74q-20 -33 -67.5 -113 t-75.5 -124zM379 797q0 28 33 44l162 75q9 2 25.5 -18t16.5 -40q0 -21 -23 -34l-179 -68q-10 0 -22.5 12.5t-12.5 28.5z" />
<glyph unicode="&#xc2;" horiz-adv-x="685" d="M25 26l423 675v-1q8 16 53 16q38 0 41 -17l88 -675v-10q-6 -24 -47 -24q-52 0 -56 30l-20 191h-259q-10 -15 -30 -48.5t-30 -49.5q-9 -15 -30.5 -49t-31.5 -51q-18 -24 -49 -24q-22 0 -37 11.5t-15 25.5zM309 306h186l-17 93q-4 24 -12.5 70t-13.5 74q-20 -33 -67.5 -113 t-75.5 -124zM338 819q0 21 23 35l133 61v-1q6 3 18 3q13 0 16 -1l117 -72q2 -2 2 -15q0 -16 -28 -37.5t-35 -17.5l-87 58q-17 -8 -56.5 -27.5t-56.5 -28.5q-2 -1 -5.5 -3t-6.5 -3q-9 -2 -21.5 14.5t-12.5 34.5z" />
<glyph unicode="&#xc3;" horiz-adv-x="688" d="M25 26l423 675v-1q8 16 53 16q38 0 41 -17l88 -675v-10q-6 -24 -47 -24q-52 0 -56 30l-20 191h-259q-10 -15 -30 -48.5t-30 -49.5q-9 -15 -30.5 -49t-31.5 -51q-18 -24 -49 -24q-22 0 -37 11.5t-15 25.5zM309 306h186l-17 93q-4 24 -12.5 70t-13.5 74q-20 -33 -67.5 -113 t-75.5 -124zM330 839q0 16 6 22q29 29 78 29q47 0 98 -38q18 -9 25 -9q15 0 31 11.5t23.5 19.5t10.5 13q10 5 13 5q6 0 14 -6t14.5 -14.5t10.5 -19t4 -18.5q0 -13 -14 -27l6 8q-47 -52 -105 -52q-17 0 -75 29v-1q-34 16 -43 16q-26 0 -47 -21q-10 -5 -13 -5q-15 0 -26 19.5 t-11 38.5z" />
<glyph unicode="&#xc4;" horiz-adv-x="688" d="M25 26l423 675v-1q8 16 53 16q38 0 41 -17l88 -675v-10q-6 -24 -47 -24q-52 0 -56 30l-20 191h-259q-10 -15 -30 -48.5t-30 -49.5q-9 -15 -30.5 -49t-31.5 -51q-18 -24 -49 -24q-22 0 -37 11.5t-15 25.5zM309 306h186l-17 93q-4 24 -12.5 70t-13.5 74q-20 -33 -67.5 -113 t-75.5 -124zM348 810q0 28 19.5 48t44.5 20h6q19 0 31 -12t12 -32q0 -8 -1 -12v-2q-1 -2 -1 -3q-5 -21 -22.5 -35.5t-37.5 -14.5h-6q-20 0 -32.5 12t-12.5 31zM520 810q0 28 19.5 48t44.5 20h6q19 0 31 -12t12 -31q0 -8 -1 -13v-2q-1 -2 -1 -3q-5 -21 -22 -35.5t-38 -14.5 h-6q-20 0 -32.5 12t-12.5 31z" />
<glyph unicode="&#xc5;" horiz-adv-x="667" d="M-6 26l422 675v-1q8 16 53 16q38 0 41 -17l88 -675v-10q-6 -24 -47 -24q-52 0 -56 30l-20 191h-259q-10 -15 -30 -48.5t-30 -49.5q-9 -15 -30.5 -49t-31.5 -51q-18 -24 -49 -24q-22 0 -36.5 11t-14.5 26zM277 306h186l-17 93q-4 24 -12.5 70t-13.5 74q-20 -33 -67.5 -113 t-75.5 -124zM373 851q0 62 49 106.5t106 44.5q46 0 75.5 -29t29.5 -73q0 -60 -47.5 -105.5t-107.5 -45.5q-46 0 -75.5 29t-29.5 73zM452 863q0 -16 10.5 -26.5t28.5 -10.5q24 0 44.5 19t20.5 42q0 17 -11 28t-28 11q-24 0 -44.5 -18.5t-20.5 -44.5z" />
<glyph unicode="&#xc6;" horiz-adv-x="1020" d="M-3 26l423 678q20 12 45 12q12 0 24 -3t19 -5l6 -3l47 -366l9 42q31 147 63 291q11 20 76.5 30.5t151.5 10.5q35 0 98.5 -1.5t92.5 -1.5q12 -8 12 -27t-7 -39.5t-16 -20.5q-99 1 -190 1q-129 0 -130 -8l-41 -193h261q26 0 26 -31q0 -20 -14 -43.5t-26 -23.5l-268 -1 q-4 -16 -10 -47t-9 -46q-20 -94 -30 -140q21 -8 128 -8l184 5q21 0 21 -27q0 -23 -12.5 -46.5t-25.5 -23.5h-14q-4 0 -17 -0.5t-22 -0.5q-94 -2 -182 -2q-162 0 -168 24q-20 165 -23 199h-259q-10 -15 -30 -48.5t-30 -49.5q-9 -15 -30.5 -49t-31.5 -51q-18 -23 -45 -23 q-24 0 -37.5 8.5t-16 15.5t-2.5 12zM281 306h186l-17 93q-4 24 -12.5 70t-13.5 74q-20 -33 -67.5 -113t-75.5 -124z" />
<glyph unicode="&#xc7;" horiz-adv-x="611" d="M86 267q0 86 35.5 169t91.5 142.5t128.5 96t143.5 36.5q32 0 63.5 -9t53 -22t34.5 -27.5t13 -26.5q0 -9 -19 -39.5t-31 -30.5q-9 0 -12 8q-19 27 -46 38.5t-73 11.5q-68 0 -133.5 -46t-107 -122.5t-41.5 -160.5q0 -86 46 -141.5t120 -55.5q31 0 57.5 7t46.5 18t42 28h-1 q3 3 11 3q14 0 24 -18t10 -37q0 -25 -32 -48.5t-79.5 -37t-94.5 -13.5h-10q0 -1 -0.5 -4.5t-0.5 -4.5l-2 -8q32 -13 32 -41q0 -26 -21 -47t-50.5 -32t-54 -17t-36.5 -6q-11 0 -18 13.5t-7 27.5q0 4 1 6q0 12 29 16q78 16 78 39q0 8 -11 17t-22 15l-11 5l11 38 q-73 30 -115 99.5t-42 160.5z" />
<glyph unicode="&#xc8;" horiz-adv-x="534" d="M16 25l137 647q11 20 76.5 30.5t151.5 10.5q35 0 98.5 -1.5t92.5 -1.5q12 -8 12 -28t-7 -39.5t-16 -19.5q-99 1 -190 1q-128 0 -129 -8l-42 -193h261q26 0 26 -31q0 -20 -13.5 -43.5t-25.5 -23.5l-269 -1q-4 -16 -10 -47t-9 -46q-20 -94 -30 -140q21 -8 128 -8l184 5 q21 0 21 -29q0 -22 -13 -45t-24 -23q-27 0 -50 -1q-4 0 -14 -0.5t-15 -0.5q-70 -2 -126 -2q-205 0 -205 38zM298 845q0 17 26.5 43t38.5 27q109 -63 137 -79q14 -10 14 -28q0 -19 -19 -35.5t-31 -16.5l-153 69q-13 9 -13 20z" />
<glyph unicode="&#xc9;" d="M23 25l137 647q11 20 76.5 30.5t151.5 10.5q35 0 98.5 -1.5t92.5 -1.5q12 -8 12 -28t-7 -39.5t-16 -19.5q-99 1 -190 1q-128 0 -129 -8l-42 -193h261q26 0 26 -31q0 -20 -13.5 -43.5t-25.5 -23.5l-269 -1q-4 -16 -10 -47t-9 -46q-20 -94 -30 -140q21 -8 128 -8l184 5 q21 0 21 -29q0 -22 -13 -45t-24 -23q-27 0 -50 -1q-4 0 -14 -0.5t-15 -0.5q-70 -2 -126 -2q-205 0 -205 38zM333 797q0 28 33 44l162 75q9 2 25.5 -18t16.5 -40q0 -21 -23 -34l-179 -68q-10 0 -22.5 12.5t-12.5 28.5z" />
<glyph unicode="&#xca;" horiz-adv-x="531" d="M21 25l137 647q11 20 76.5 30.5t151.5 10.5q35 0 98.5 -1.5t92.5 -1.5q12 -8 12 -28t-7 -39.5t-16 -19.5q-99 1 -190 1q-128 0 -129 -8l-42 -193h261q26 0 26 -31q0 -20 -13.5 -43.5t-25.5 -23.5l-269 -1q-4 -16 -10 -47t-9 -46q-20 -94 -30 -140q21 -8 128 -8l184 5 q21 0 21 -29q0 -22 -13 -45t-24 -23q-27 0 -50 -1q-4 0 -14 -0.5t-15 -0.5q-70 -2 -126 -2q-205 0 -205 38zM234 819q0 21 23 35l133 61v-1q6 3 18 3q13 0 16 -1l117 -72q2 -2 2 -15q0 -16 -28 -37.5t-35 -17.5l-87 58q-18 -8 -57 -27.5t-56 -28.5q-3 -1 -6.5 -3t-5.5 -3 q-9 -2 -21.5 14.5t-12.5 34.5z" />
<glyph unicode="&#xcb;" horiz-adv-x="528" d="M14 25l137 647q11 20 76.5 30.5t151.5 10.5q35 0 98.5 -1.5t92.5 -1.5q12 -8 12 -28t-7 -39.5t-16 -19.5q-99 1 -190 1q-128 0 -129 -8l-42 -193h261q26 0 26 -31q0 -20 -13.5 -43.5t-25.5 -23.5l-269 -1q-3 -16 -9 -47t-10 -46q-20 -94 -30 -140q21 -8 128 -8l184 5 q21 0 21 -29q0 -22 -13 -45t-24 -23q-27 0 -50 -1q-4 0 -14 -0.5t-15 -0.5q-70 -2 -126 -2q-205 0 -205 38zM252 810q0 19 9 34.5t24 24.5t31 9h6q19 0 31 -12t12 -32q0 -8 -1 -12l-0.5 -2t-0.5 -3q-5 -21 -22.5 -35.5t-37.5 -14.5h-6q-13 0 -23.5 5.5t-16 15.5t-5.5 22z M424 810q0 19 9 34.5t24 24.5t31 9h6q19 0 31 -12t12 -31q0 -8 -1 -13l-0.5 -2t-0.5 -3q-5 -21 -22 -35.5t-38 -14.5h-6q-13 0 -23.5 5.5t-16 15.5t-5.5 22z" />
<glyph unicode="&#xcc;" horiz-adv-x="232" d="M23 13l145 685q2 5 22.5 12.5t37.5 7.5q36 0 36 -27l-143 -678q-3 -13 -18.5 -20t-34.5 -7q-45 0 -45 27zM105 845q0 17 26.5 43t38.5 27q109 -63 137 -79q14 -10 14 -28q0 -19 -19 -35.5t-31 -16.5l-153 69q-13 9 -13 20z" />
<glyph unicode="&#xcd;" horiz-adv-x="283" d="M44 13l145 685q2 5 22.5 12.5t37.5 7.5q36 0 36 -27l-143 -678q-3 -13 -18.5 -20t-34.5 -7q-45 0 -45 27zM207 797q0 28 33 44q3 1 13 5t16 7l133 63q9 2 25.5 -18t16.5 -40q0 -21 -23 -34l-179 -68q-10 0 -22.5 12.5t-12.5 28.5z" />
<glyph unicode="&#xce;" horiz-adv-x="350" d="M100 13l145 685q2 5 23 12.5t38 7.5q35 0 35 -27l-143 -678q-3 -13 -18.5 -20t-34.5 -7q-45 0 -45 27zM143 819q0 21 23 35l133 61v-1q6 3 18 3q13 0 16 -1l117 -72q2 -2 2 -15q0 -16 -28 -37.5t-35 -17.5l-87 58q-18 -8 -56.5 -27.5t-56.5 -28.5q-3 -1 -6 -3t-6 -3 q-9 -2 -21.5 14.5t-12.5 34.5z" />
<glyph unicode="&#xcf;" horiz-adv-x="307" d="M79 13l145 685q2 5 23 12.5t38 7.5q35 0 35 -27l-143 -678q-3 -13 -18.5 -20t-34.5 -7q-45 0 -45 27zM133 810q0 28 19.5 48t44.5 20h6q19 0 31 -12t12 -32q0 -8 -1 -12l-1 -2v-3q-5 -21 -22.5 -35.5t-37.5 -14.5h-6q-20 0 -32.5 12t-12.5 31zM305 810q0 28 19.5 48 t44.5 20h6q19 0 31 -12t12 -31q0 -8 -1 -13l-1 -2v-3q-5 -21 -22 -35.5t-38 -14.5h-6q-20 0 -32.5 12t-12.5 31z" />
<glyph unicode="&#xd0;" horiz-adv-x="699" d="M69 344q0 21 11 45t25 24h75q32 156 58 276q4 9 62.5 15t88.5 6q316 0 316 -250q0 -47 -13 -112q-40 -187 -144.5 -272.5t-310.5 -85.5h-40q-5 0 -15 -0.5t-15 -0.5q-72 0 -72 19l63 305h-66q-23 0 -23 31zM209 81q16 -1 45 -1q133 0 220 67.5t120 204.5q10 46 10 87 q0 180 -221 180q-27 0 -58 -3q-1 0 -1.5 -0.5t-2.5 -0.5l-43 -202h91q16 0 48 0.5t49 0.5q6 0 11.5 -12.5t5.5 -28.5q0 -21 -8.5 -39t-23.5 -20l-194 -1q-32 -152 -48 -232z" />
<glyph unicode="&#xd1;" horiz-adv-x="682" d="M16 17l140 661q3 15 20 24t38 9q33 0 45 -22l253 -513q49 235 109 511q2 8 23 16.5t40 8.5q36 0 36 -30l-139 -660q-10 -35 -63 -35q-30 0 -38 16l-256 521q-15 -69 -52.5 -247t-57.5 -272q-2 -7 -19.5 -12.5t-36.5 -5.5q-42 0 -42 30zM312 839q0 16 6 22q29 29 78 29 q47 0 98 -38q18 -9 25 -9q15 0 31 11.5t23.5 19.5t10.5 13q10 5 13 5q6 0 14 -6t14.5 -14.5t10.5 -19t4 -18.5q0 -13 -14 -27l6 8q-47 -52 -105 -52q-17 0 -75 29v-1q-34 16 -43 16q-26 0 -47 -21q-10 -5 -13 -5q-15 0 -26 19.5t-11 38.5z" />
<glyph unicode="&#xd2;" horiz-adv-x="662" d="M74 258q0 50 10 96q31 149 139.5 258.5t226.5 109.5q107 0 165 -73t58 -191q0 -119 -53.5 -230.5t-141.5 -180.5t-182 -69q-100 0 -161 79.5t-61 200.5zM172 273q0 -83 41 -140.5t104 -57.5q59 0 119 52.5t99.5 138t39.5 173.5q0 80 -36.5 132.5t-98.5 52.5 q-74 0 -148 -76t-105 -181v-2q-15 -45 -15 -92zM318 845q0 17 26.5 43t38.5 27q109 -63 137 -79q14 -10 14 -28q0 -19 -19 -35.5t-31 -16.5l-153 69q-13 9 -13 20z" />
<glyph unicode="&#xd3;" horiz-adv-x="672" d="M87 258q0 50 10 96q31 149 139.5 258.5t226.5 109.5q107 0 165 -73t58 -191q0 -119 -53.5 -230.5t-141.5 -180.5t-182 -69q-100 0 -161 79.5t-61 200.5zM185 273q0 -83 41 -140.5t104 -57.5q59 0 119 52.5t99.5 138t39.5 173.5q0 80 -36.5 132.5t-98.5 52.5 q-74 0 -148 -76t-105 -181v-2q-15 -45 -15 -92zM389 797q0 28 33 44l162 75q9 2 25.5 -18t16.5 -40q0 -21 -23 -34l-179 -68q-10 0 -22.5 12.5t-12.5 28.5z" />
<glyph unicode="&#xd4;" horiz-adv-x="679" d="M80 258q0 50 10 96q31 149 139.5 258.5t226.5 109.5q107 0 165 -73t58 -191q0 -119 -53.5 -230.5t-141.5 -180.5t-182 -69q-100 0 -161 79.5t-61 200.5zM178 273q0 -83 41 -140.5t104 -57.5q59 0 119 52.5t99.5 138t39.5 173.5q0 80 -36.5 132.5t-98.5 52.5 q-74 0 -148 -76t-105 -181v-2q-15 -45 -15 -92zM303 819q0 21 23 35l133 61v-1q6 3 18 3q13 0 16 -1l117 -72q2 -2 2 -15q0 -16 -28 -37.5t-35 -17.5l-87 58q-17 -8 -56.5 -27.5t-56.5 -28.5q-3 -1 -6 -3t-6 -3q-9 -2 -21.5 14.5t-12.5 34.5z" />
<glyph unicode="&#xd5;" horiz-adv-x="669" d="M76 258q0 50 10 96q31 149 139.5 258.5t226.5 109.5q107 0 165 -73t58 -191q0 -119 -53.5 -230.5t-141.5 -180.5t-182 -69q-100 0 -161 79.5t-61 200.5zM174 273q0 -83 41 -140.5t104 -57.5q59 0 119 52.5t99.5 138t39.5 173.5q0 80 -36.5 132.5t-98.5 52.5 q-74 0 -148 -76t-105 -181v-2q-15 -45 -15 -92zM290 839q0 16 6 22q29 29 78 29q47 0 98 -38q18 -9 25 -9q15 0 31 11.5t23.5 19.5t10.5 13q10 5 13 5q6 0 14 -6t14.5 -14.5t10.5 -19t4 -18.5q0 -13 -14 -27l6 8q-47 -52 -105 -52q-17 0 -75 29v-1q-34 16 -43 16 q-26 0 -47 -21q-10 -5 -13 -5q-15 0 -26 19.5t-11 38.5z" />
<glyph unicode="&#xd6;" horiz-adv-x="669" d="M83 258q0 50 10 96q31 149 139.5 258.5t226.5 109.5q107 0 165 -73t58 -191q0 -119 -53.5 -230.5t-141.5 -180.5t-182 -69q-100 0 -161 79.5t-61 200.5zM181 273q0 -83 41 -140.5t104 -57.5q59 0 119 52.5t99.5 138t39.5 173.5q0 80 -36.5 132.5t-98.5 52.5 q-74 0 -148 -76t-105 -181v-2q-15 -45 -15 -92zM324 810q0 28 19.5 48t44.5 20h6q19 0 31 -12t12 -32q0 -8 -1 -12v-2q-1 -2 -1 -3q-5 -21 -22.5 -35.5t-37.5 -14.5h-6q-20 0 -32.5 12t-12.5 31zM496 810q0 28 19.5 48t44.5 20h6q19 0 31 -12t12 -31q0 -8 -1 -13v-2 q-1 -2 -1 -3q-5 -21 -22 -35.5t-38 -14.5h-6q-20 0 -32.5 12t-12.5 31z" />
<glyph unicode="&#xd7;" horiz-adv-x="464" d="M72 228q0 12 3 15l128 107q-2 2 -34.5 41.5t-47.5 58.5q0 5 11.5 22t29.5 33.5t31 16.5q7 0 14 -4l81 -98q6 5 23.5 20t27.5 23q10 9 30.5 25t25.5 21q6 5 16 5q17 0 34.5 -21t17.5 -38v-10l-119 -98l68 -85q6 -12 6 -17q0 -17 -28.5 -41t-44.5 -24q-2 0 -3.5 3.5 t-1.5 5.5l-4 -8q-13 17 -37 49t-37 48q-5 -4 -53 -43t-70 -59h1q-3 -3 -11 -3q-12 0 -34.5 19t-22.5 36z" />
<glyph unicode="&#xd8;" horiz-adv-x="709" d="M80 255q0 116 55.5 222.5t141.5 169t176 62.5q46 0 85 -17q2 2 8.5 10.5t9.5 13.5q14 20 21 28v-1q5 9 21 9q21 0 41.5 -10t20.5 -26v-10l-49 -68q67 -76 67 -200q0 -87 -33.5 -171.5t-86.5 -145t-120.5 -98t-133.5 -37.5q-47 0 -83 15l-45 -64v1q-8 -15 -27 -15 q-18 0 -38 14.5t-21 29.5v2l1 2l55 85q-66 74 -66 199zM176 261q0 -67 27 -112l284 458q-19 6 -39 6q-95 0 -183.5 -109.5t-88.5 -242.5zM275 92q14 -5 34 -5q62 0 125 47.5t105 129.5t42 172q0 67 -25 111z" />
<glyph unicode="&#xd9;" horiz-adv-x="685" d="M69 193q0 33 7 64q36 174 93 437q2 5 23.5 12t40.5 7q34 0 34 -26l-93 -439q-4 -19 -4 -37q0 -62 45 -99t113 -39q70 1 128 57.5t78 123.5l95 437q6 19 38 19q21 0 41 -9.5t19 -16.5l-92 -430q-25 -117 -115.5 -195t-207.5 -81h-3q-109 1 -174.5 59t-65.5 156zM348 845 q0 17 26.5 43t38.5 27q109 -63 137 -79q14 -10 14 -28q0 -19 -19 -35.5t-31 -16.5l-153 69q-13 9 -13 20z" />
<glyph unicode="&#xda;" horiz-adv-x="692" d="M69 193q0 33 7 64q36 174 93 437q2 5 23.5 12t40.5 7q34 0 34 -26l-93 -439q-4 -19 -4 -37q0 -62 45 -99t113 -39q70 1 128 57.5t78 123.5l95 437q6 19 38 19q21 0 41 -9.5t19 -16.5l-92 -430q-25 -117 -115.5 -195t-207.5 -81h-3q-109 1 -174.5 59t-65.5 156zM386 797 q0 28 33 44l162 75q9 2 25.5 -18t16.5 -40q0 -21 -23 -34l-179 -68q-10 0 -22.5 12.5t-12.5 28.5z" />
<glyph unicode="&#xdb;" horiz-adv-x="662" d="M69 193q0 33 7 64q36 174 93 437q2 5 23.5 12t40.5 7q34 0 34 -26l-93 -439q-4 -19 -4 -37q0 -62 45 -99t113 -39q70 1 128 57.5t78 123.5l95 437q6 19 38 19q21 0 41 -9.5t19 -16.5l-92 -430q-25 -117 -115.5 -195t-207.5 -81h-3q-109 1 -174.5 59t-65.5 156zM298 819 q0 21 23 35l133 61v-1q6 3 18 3q13 0 16 -1l117 -72q2 -2 2 -15q0 -16 -28 -37.5t-35 -17.5l-87 58l-57 -28.5t-56 -27.5q-2 -1 -3.5 -1.5t-2.5 -1.5t-2.5 -1.5t-3.5 -1.5q-9 -2 -21.5 14.5t-12.5 34.5z" />
<glyph unicode="&#xdc;" horiz-adv-x="685" d="M69 194q0 32 7 63q36 174 93 437q2 5 23.5 12t40.5 7q34 0 34 -26l-93 -439q-5 -23 -5 -37q0 -59 46 -91t116 -34q73 1 129.5 51.5t73.5 116.5q17 79 50 231.5t44 205.5q6 19 38 19q21 0 41 -9.5t19 -16.5l-91 -430q-25 -115 -114 -187.5t-206 -75.5h-3q-110 1 -176.5 54 t-66.5 149zM318 810q0 28 20 48t45 20h6q19 0 31 -12t12 -32q0 -3 -1.5 -8.5t-1.5 -8.5q-5 -21 -22 -35.5t-37 -14.5h-6q-20 0 -33 12t-13 31zM530 810q0 28 20 48t45 20h6q19 0 31 -12t12 -31q0 -3 -1.5 -9t-1.5 -9q-5 -21 -21.5 -35.5t-37.5 -14.5h-6q-20 0 -33 12t-13 31 z" />
<glyph unicode="&#xdd;" horiz-adv-x="625" d="M125 649q-2 9 28 36t48 27q10 0 24 -26l103 -264q41 39 94.5 89.5t106.5 100.5t94 89h-1q7 7 18 7q16 0 33 -26.5t17 -42.5l-333 -315q-8 -35 -22.5 -103t-26.5 -123.5t-22 -102.5q-36 -7 -57 -7q-22 0 -43 11l69 321q-11 27 -32.5 82t-32.5 82q-44 110 -65 165zM340 797 q0 28 33 44l162 75q9 2 25.5 -18t16.5 -40q0 -21 -23 -34l-179 -68q-10 0 -22.5 12.5t-12.5 28.5z" />
<glyph unicode="&#xde;" horiz-adv-x="561" d="M-6 -180l180 853q2 5 21.5 12.5t36.5 7.5q35 0 35 -27l-48 -228q77 57 150 57q65 0 105 -45.5t40 -119.5q0 -32 -6 -58q-31 -133 -118.5 -207t-196.5 -74q-35 0 -64 19q-8 -36 -22.5 -104.5t-18.5 -85.5q-6 -27 -52 -27q-42 0 -42 27zM153 125q27 -40 88 -40 q64 0 115.5 63.5t51.5 157.5q0 90 -71 90q-28 0 -61.5 -13t-53.5 -25l-19 -13z" />
<glyph unicode="&#xdf;" horiz-adv-x="516" d="M7 25q39 173 67 311q12 58 23 105q9 39 25.5 120t24.5 118q5 4 16.5 10t61 16.5t114.5 10.5q88 0 126.5 -38.5t38.5 -92.5q0 -33 -26 -91.5t-69 -90.5q33 -18 59.5 -54.5t26.5 -92.5q0 -19 -5 -46q-22 -106 -96 -163.5t-181 -59.5q-18 0 -18 27q0 21 10 42t23 22 q27 0 54 8.5t52 27t41 52t16 77.5q0 54 -40.5 79t-92.5 25q-14 0 -19 5.5t-5 19.5q0 26 14 49.5t22 23.5q2 -1 7 -1q10 0 21 4h2q42 12 74 44t32 82q0 59 -90 59l-74 -9q-9 -41 -40 -180t-49 -214q-10 -42 -27.5 -121.5t-23.5 -105.5q-4 -14 -36 -14q-59 0 -59 36z" />
<glyph unicode="&#xe0;" horiz-adv-x="536" d="M42 159q0 146 82.5 242.5t218.5 96.5q57 0 101 -8t64 -18t21 -20q0 -14 -27.5 -147.5t-49.5 -217.5v-4q0 -21 19 -34.5t39 -16.5l19 -3q-82 -52 -129 -52q-40 0 -57 34q-52 -33 -102 -33q-199 0 -199 181zM149 171q0 -103 88 -103q26 0 54.5 8t44.5 16l15 9l69 298 q-23 10 -59 12q-79 5 -136 -39t-73 -159q-3 -24 -3 -42zM235 633q0 17 26.5 43t38.5 27q109 -63 137 -79q14 -10 14 -28q0 -19 -19 -35.5t-31 -16.5l-153 69q-13 9 -13 20z" />
<glyph unicode="&#xe1;" d="M49 159q0 146 82.5 242.5t218.5 96.5q57 0 101 -8t64 -18t21 -20q0 -14 -27.5 -147.5t-49.5 -217.5v-4q0 -21 19.5 -34.5t38.5 -16.5l19 -3q-82 -52 -129 -52q-40 0 -57 34q-52 -33 -102 -33q-199 0 -199 181zM156 171q0 -103 88 -103q26 0 54.5 8t43.5 16l16 9l69 298 q-23 10 -59 12q-79 5 -136 -39t-73 -159q-3 -24 -3 -42zM285 585q0 28 33 44l162 75q9 2 25.5 -18t16.5 -40q0 -21 -23 -34l-179 -68q-10 0 -22.5 12.5t-12.5 28.5z" />
<glyph unicode="&#xe2;" d="M53 159q0 146 82.5 242.5t218.5 96.5q57 0 101 -8t64 -18t21 -20q0 -14 -27.5 -147.5t-49.5 -217.5v-4q0 -21 19.5 -34.5t38.5 -16.5l19 -3q-82 -52 -129 -52q-40 0 -57 34q-52 -33 -102 -33q-199 0 -199 181zM160 171q0 -103 88 -103q26 0 54.5 8t43.5 16l16 9l69 298 q-23 10 -59 12q-79 5 -136 -39t-73 -159q-3 -24 -3 -42zM253 607q0 21 23 35l133 61v-1q6 3 18 3q13 0 16 -1l117 -72q2 -2 2 -15q0 -16 -28 -37.5t-35 -17.5l-87 58q-17 -9 -56 -28.5t-57 -27.5q-3 -1 -6.5 -3t-5.5 -3q-9 -2 -21.5 14.5t-12.5 34.5z" />
<glyph unicode="&#xe3;" d="M51 159q0 146 82.5 242.5t218.5 96.5q57 0 101 -8t64 -18t21 -20q0 -14 -27.5 -147.5t-49.5 -217.5v-4q0 -21 19.5 -34.5t38.5 -16.5l19 -3q-82 -52 -129 -52q-40 0 -57 34q-52 -33 -102 -33q-199 0 -199 181zM158 171q0 -103 88 -103q26 0 54.5 8t43.5 16l16 9l69 298 q-23 10 -59 12q-79 5 -136 -39t-73 -159q-3 -24 -3 -42zM250 627q0 16 6 22q29 29 78 29q47 0 98 -38q18 -9 25 -9q15 0 31 11.5t23.5 19.5t10.5 13q10 5 13 5q5 0 11 -4t11.5 -10.5t10.5 -14t7.5 -15.5t2.5 -14q0 -13 -14 -27l6 8q-47 -52 -105 -52q-17 0 -75 29v-1 q-34 16 -43 16q-26 0 -47 -21q-10 -5 -13 -5q-15 0 -26 19.5t-11 38.5z" />
<glyph unicode="&#xe4;" d="M52 159q0 146 82.5 242.5t218.5 96.5q57 0 101 -8t64 -18t21 -20q0 -14 -27.5 -147.5t-49.5 -217.5v-4q0 -21 19 -34.5t39 -16.5l19 -3q-82 -52 -129 -52q-40 0 -57 34q-52 -33 -102 -33q-199 0 -199 181zM159 171q0 -103 88 -103q26 0 54.5 8t44.5 16l15 9l69 298 q-23 10 -59 12q-79 5 -136 -39t-73 -159q-3 -24 -3 -42zM278 598q0 28 19.5 48t44.5 20h6q19 0 31 -12t12 -32q0 -8 -1 -12v-2q-1 -2 -1 -3q-5 -21 -22.5 -35.5t-37.5 -14.5h-6q-20 0 -32.5 12t-12.5 31zM450 598q0 28 19.5 48t44.5 20h6q19 0 31 -12t12 -31q0 -8 -1 -13v-2 q-1 -2 -1 -3q-5 -21 -22 -35.5t-38 -14.5h-6q-20 0 -32.5 12t-12.5 31z" />
<glyph unicode="&#xe5;" d="M54 159q0 146 82.5 242.5t218.5 96.5q57 0 101 -8t64 -18t21 -20q0 -14 -27.5 -147.5t-49.5 -217.5v-4q0 -21 19 -34.5t39 -16.5l19 -3q-82 -52 -129 -52q-40 0 -57 34q-52 -33 -102 -33q-199 0 -199 181zM161 171q0 -103 88 -103q26 0 54.5 8t44.5 16l15 9l69 298 q-23 10 -59 12q-79 5 -136 -39t-73 -159q-3 -24 -3 -42zM279 638q0 62 49 106.5t106 44.5q46 0 75.5 -29t29.5 -73q0 -60 -47.5 -105.5t-107.5 -45.5q-46 0 -75.5 29t-29.5 73zM358 650q0 -16 10.5 -26.5t28.5 -10.5q24 0 44.5 19t20.5 42q0 17 -11 28t-28 11 q-24 0 -44.5 -18.5t-20.5 -44.5z" />
<glyph unicode="&#xe6;" horiz-adv-x="859" d="M34 147q0 37 7 72q26 126 104.5 202.5t202.5 76.5q117 0 171 -27q49 28 114 28q91 0 129.5 -29t38.5 -91q0 -41 -24 -130v-2q-12 -31 -174 -31q-62 0 -112 2q-1 0 -6 0.5t-6 0.5h-2q-6 -23 -6 -44q0 -54 31.5 -79.5t82.5 -25.5q45 0 108 21q1 0 3 0.5l2 0.5 q13 0 20.5 -16.5t7.5 -35.5q0 -62 -181 -62q-86 0 -146 74q-84 -74 -173 -74q-192 0 -192 169zM143 161q0 -48 20 -70.5t62 -22.5q26 0 54 8.5t44 16.5l15 8q79 288 81 297q-5 3 -61 8q-32 4 -64.5 -5t-63 -30.5t-53 -61.5t-29.5 -94q-5 -23 -5 -54zM500 302h2q2 0 7 -0.5 t7 -0.5q27 -1 101 -1h75q11 53 11 69q0 25 -17.5 36t-63.5 11q-77 0 -114 -73h1q-3 -15 -9 -41z" />
<glyph unicode="&#xe7;" horiz-adv-x="491" d="M66 197q0 128 93.5 216.5t210.5 88.5q50 0 83.5 -8t59.5 -34l1 -13q-10 -52 -55 -65l-6 3q-22 26 -101 26q-71 0 -128 -61t-57 -140q0 -52 31 -86.5t81 -34.5q36 0 60.5 8t58.5 32l7 1q11 0 22.5 -16.5t11.5 -34.5q0 -32 -52.5 -58t-104.5 -31q0 -3 -1 -6q31 -13 31 -41 q0 -33 -36.5 -58.5t-71.5 -34.5t-54 -9q-11 0 -18 13.5t-7 27.5q0 16 35 22q1 0 3 0.5t3 0.5q66 15 66 38q0 8 -11 17.5t-21 14.5l-11 5l7 21q-59 21 -94.5 74t-35.5 122z" />
<glyph unicode="&#xe8;" horiz-adv-x="499" d="M55 160q0 149 72.5 244t191.5 95q91 0 129.5 -29t38.5 -91q0 -41 -24 -130v-2q-12 -31 -174 -31l-128 4q-4 -21 -4 -44q0 -54 31.5 -80t82.5 -26q45 0 108 21q1 0 3 0.5l2 0.5q13 0 20.5 -16.5t7.5 -35.5q0 -62 -181 -62q-176 0 -176 182zM179 302q3 0 12 -0.5t15 -0.5 q27 -1 97 -1h75q11 53 11 69q0 25 -17.5 36t-63.5 11q-96 0 -129 -114zM185 633q0 17 26.5 43t38.5 27q109 -63 137 -79q14 -10 14 -28q0 -19 -19 -35.5t-31 -16.5l-153 69q-13 9 -13 20z" />
<glyph unicode="&#xe9;" horiz-adv-x="486" d="M46 160q0 149 72.5 244t191.5 95q91 0 129.5 -29t38.5 -91q0 -41 -24 -130v-2q-12 -31 -174 -31l-128 4q-4 -21 -4 -44q0 -54 31.5 -80t82.5 -26q45 0 108 21l2 1h3q13 0 20.5 -16.5t7.5 -35.5q0 -62 -181 -62q-176 0 -176 182zM170 302q3 0 12 -0.5t15 -0.5q27 -1 97 -1 h75q11 53 11 69q0 25 -17.5 36t-63.5 11q-96 0 -129 -114zM224 585q0 28 33 44l162 75q9 2 25.5 -18t16.5 -40q0 -21 -23 -34l-179 -68q-10 0 -22.5 12.5t-12.5 28.5z" />
<glyph unicode="&#xea;" horiz-adv-x="503" d="M58 160q0 149 72.5 244t191.5 95q91 0 129.5 -29t38.5 -91q0 -41 -24 -130v-2q-12 -31 -174 -31l-128 4q-4 -21 -4 -44q0 -54 31.5 -80t82.5 -26q45 0 108 21l2 1h3q13 0 20.5 -16.5t7.5 -35.5q0 -62 -181 -62q-176 0 -176 182zM169 607q0 21 23 35l133 61v-1q6 3 18 3 q13 0 16 -1l117 -72q2 -2 2 -15q0 -16 -28 -37.5t-35 -17.5l-87 58q-17 -9 -56.5 -28.5t-56.5 -27.5q-3 -1 -6 -3t-6 -3q-9 -2 -21.5 14.5t-12.5 34.5zM182 302q3 0 12 -0.5t15 -0.5q27 -1 97 -1h75q11 53 11 69q0 25 -17.5 36t-63.5 11q-96 0 -129 -114z" />
<glyph unicode="&#xeb;" horiz-adv-x="497" d="M58 160q0 149 72.5 244t191.5 95q91 0 129.5 -29t38.5 -91q0 -41 -24 -130v-2q-12 -31 -174 -31l-128 4q-4 -21 -4 -44q0 -54 31.5 -80t82.5 -26q45 0 108 21l2 1h3q13 0 20.5 -16.5t7.5 -35.5q0 -62 -181 -62q-176 0 -176 182zM180 598q0 28 19.5 48t44.5 20h6 q19 0 31 -12t12 -32q0 -8 -1 -12v-2q-1 -2 -1 -3q-5 -21 -22.5 -35.5t-37.5 -14.5h-6q-20 0 -32.5 12t-12.5 31zM182 302q3 0 12 -0.5t15 -0.5q27 -1 97 -1h75q11 53 11 69q0 25 -17.5 36t-63.5 11q-96 0 -129 -114zM352 598q0 28 19.5 48t44.5 20h6q19 0 31 -12t12 -31 q0 -8 -1 -13v-2q-1 -2 -1 -3q-5 -21 -22 -35.5t-38 -14.5h-6q-20 0 -32.5 12t-12.5 31z" />
<glyph unicode="&#xec;" horiz-adv-x="293" d="M62 633q0 17 26.5 43t38.5 27q109 -63 137 -79q14 -10 14 -28q0 -19 -19 -35.5t-31 -16.5l-153 69q-13 9 -13 20zM76 14l99 471q2 5 23.5 12.5t39.5 7.5q36 0 36 -27l-97 -464q-3 -13 -19 -20t-36 -7q-46 0 -46 27z" />
<glyph unicode="&#xed;" horiz-adv-x="279" d="M45 14l100 471q2 5 23 12.5t39 7.5q37 0 37 -27l-98 -464q-3 -13 -19 -20t-36 -7q-46 0 -46 27zM121 585q0 28 33 44q3 1 13 5t16 7q114 55 134 63v-1q8 4 24.5 -17t16.5 -41q0 -17 -15 -30l-187 -71q-10 0 -22.5 12.5t-12.5 28.5z" />
<glyph unicode="&#xee;" horiz-adv-x="362" d="M93 14l100 471q2 5 23 12.5t39 7.5q37 0 37 -27l-98 -464q-8 -27 -55 -27q-46 0 -46 27zM114 607q0 17 17 32l139 64v-1q6 3 18 3q13 0 16 -1l117 -72q2 -2 2 -15q0 -16 -28 -37.5t-35 -17.5l-87 58l-57 -28.5t-56 -27.5q-2 -1 -5.5 -3t-6.5 -3q-9 -2 -21.5 14.5 t-12.5 34.5z" />
<glyph unicode="&#xef;" horiz-adv-x="301" d="M56 14l100 471q2 5 23 12.5t39 7.5q37 0 37 -27l-98 -464q-3 -13 -19 -20t-36 -7q-46 0 -46 27zM112 598q0 28 19.5 48t44.5 20h6q19 0 31 -12t12 -32q0 -8 -1 -12v-2q-1 -2 -1 -3q-5 -21 -22.5 -35.5t-37.5 -14.5h-6q-20 0 -32.5 12t-12.5 31zM257 598q0 28 19.5 48 t44.5 20h6q19 0 31 -12t12 -31q0 -8 -1 -13l-1 -2v-3q-5 -21 -22 -35.5t-38 -14.5h-6q-20 0 -32.5 12t-12.5 31z" />
<glyph unicode="&#xf0;" horiz-adv-x="583" d="M35 146q0 25 6 52q15 66 45 112.5t67.5 69.5t73 32.5t73.5 9.5q21 0 39 -3.5t25 -6.5l7 -4q12 -4 12 -26q0 -19 -11.5 -40.5t-27.5 -21.5q0 1 -4.5 4t-20.5 6t-38 3q-56 0 -101 -57t-45 -118q0 -38 22 -64.5t67 -26.5q53 0 104 47.5t65 103.5q35 181 35 269q-1 0 0 2 q-60 -16 -137 -16q-1 0 -3 -1q-27 0 -27 40q0 46 36 46q71 0 105 11q-1 4 -3.5 13t-4 12.5t-6 10.5t-11.5 11.5t-19 9.5t-29 10q-8 3 -8 14q0 15 22.5 39.5t34.5 24.5q1 0 10 -3l-1 1q34 -9 57 -21.5t33 -28.5t13.5 -26.5t6.5 -28.5q0 -1 0.5 -3.5t0.5 -3.5l1 -1v-1 q31 15 83 15q39 0 39 -40q0 -8 -1.5 -17.5t-7 -19t-14.5 -9.5q-70 6 -85 -16q2 -15 2 -49q1 -91 -32 -243q-24 -112 -103.5 -174t-169.5 -62q-75 0 -125 43t-50 120z" />
<glyph unicode="&#xf1;" horiz-adv-x="549" d="M60 10l100 462q17 17 62 17q16 0 25.5 -8t10.5 -12.5t1 -8.5l-7 -29q69 67 153 67q33 0 58.5 -6.5t50.5 -23.5t38.5 -52t13.5 -86q0 -57 -14 -119q-8 -39 -24.5 -111.5t-21.5 -93.5q-6 -18 -46 -18q-23 0 -40 6t-15 16l51 239q7 31 7 59q0 87 -87 87q-34 0 -75.5 -17.5 t-69.5 -50.5q-4 -17 -11.5 -50t-13.5 -61t-10 -51q-7 -32 -35 -167l-4 1q-15 -11 -47 -11q-50 0 -50 22zM205 627q0 16 6 22q29 29 78 29q47 0 98 -38q18 -9 25 -9q15 0 31 11.5t23.5 19.5t10.5 13q10 5 13 5q6 0 14 -6t14.5 -14.5t10.5 -19t4 -18.5q0 -13 -14 -27l6 8 q-47 -52 -105 -52q-17 0 -75 29v-1q-34 16 -43 16q-26 0 -47 -21q-10 -5 -13 -5q-15 0 -26 19.5t-11 38.5z" />
<glyph unicode="&#xf2;" horiz-adv-x="575" d="M69 176q0 138 91 230t213 92q89 0 145 -53.5t56 -140.5q0 -30 -6 -55q-31 -124 -115.5 -197.5t-186.5 -73.5q-89 0 -143 52t-54 146zM170 193q0 -56 28.5 -89t80.5 -33q70 0 119.5 48.5t70.5 130.5q5 23 5 41q0 54 -33.5 85t-85.5 31q-73 0 -129 -63t-56 -151zM229 633 q0 17 26.5 43t38.5 27q109 -63 137 -79q14 -10 14 -28q0 -19 -19 -35.5t-31 -16.5l-153 69q-13 9 -13 20z" />
<glyph unicode="&#xf3;" horiz-adv-x="575" d="M69 176q0 138 91 230t213 92q89 0 145 -53.5t56 -140.5q0 -30 -6 -55q-31 -124 -115.5 -197.5t-186.5 -73.5q-89 0 -143 52t-54 146zM170 193q0 -56 28.5 -89t80.5 -33q70 0 119.5 48.5t70.5 130.5q5 23 5 41q0 54 -33.5 85t-85.5 31q-73 0 -129 -63t-56 -151zM257 585 q0 28 33 44l162 75q9 2 25.5 -18t16.5 -40q0 -21 -23 -34l-179 -68q-10 0 -22.5 12.5t-12.5 28.5z" />
<glyph unicode="&#xf4;" horiz-adv-x="575" d="M69 176q0 138 91 230t213 92q89 0 145 -53.5t56 -140.5q0 -30 -6 -55q-31 -124 -115.5 -197.5t-186.5 -73.5q-89 0 -143 52t-54 146zM170 193q0 -56 28.5 -89t80.5 -33q70 0 119.5 48.5t70.5 130.5q5 23 5 41q0 54 -33.5 85t-85.5 31q-73 0 -129 -63t-56 -151zM208 607 q0 21 23 35l133 61v-1q6 3 18 3q13 0 16 -1l117 -72q2 -2 2 -15q0 -16 -28 -37.5t-35 -17.5l-87 58q-18 -9 -56.5 -28.5t-56.5 -27.5q-3 -1 -6.5 -3t-5.5 -3q-9 -2 -21.5 14.5t-12.5 34.5z" />
<glyph unicode="&#xf5;" horiz-adv-x="575" d="M69 176q0 138 91 230t213 92q89 0 145 -53.5t56 -140.5q0 -30 -6 -55q-31 -124 -115.5 -197.5t-186.5 -73.5q-89 0 -143 52t-54 146zM170 193q0 -56 28.5 -89t80.5 -33q70 0 119.5 48.5t70.5 130.5q5 23 5 41q0 54 -33.5 85t-85.5 31q-73 0 -129 -63t-56 -151zM233 627 q0 16 6 22q29 29 78 29q47 0 98 -38q18 -9 25 -9q15 0 31 11.5t23.5 19.5t10.5 13q10 5 13 5q6 0 14 -6t14.5 -14.5t10.5 -19t4 -18.5q0 -13 -14 -27l6 8q-47 -52 -105 -52q-17 0 -75 29v-1q-34 16 -43 16q-26 0 -47 -21q-10 -5 -13 -5q-15 0 -26 19.5t-11 38.5z" />
<glyph unicode="&#xf6;" horiz-adv-x="575" d="M69 176q0 138 91 230t213 92q89 0 145 -53.5t56 -140.5q0 -30 -6 -55q-31 -124 -115.5 -197.5t-186.5 -73.5q-89 0 -143 52t-54 146zM170 193q0 -56 28.5 -89t80.5 -33q70 0 119.5 48.5t70.5 130.5q5 23 5 41q0 54 -33.5 85t-85.5 31q-73 0 -129 -63t-56 -151zM220 598 q0 28 19.5 48t44.5 20h6q19 0 31 -12t12 -32q0 -8 -1 -12v-2q-1 -2 -1 -3q-5 -21 -22.5 -35.5t-37.5 -14.5h-6q-20 0 -32.5 12t-12.5 31zM392 598q0 28 19.5 48t44.5 20h6q19 0 31 -12t12 -31q0 -8 -1 -13v-2q-1 -2 -1 -3q-5 -21 -22 -35.5t-38 -14.5h-6q-20 0 -32.5 12 t-12.5 31z" />
<glyph unicode="&#xf7;" horiz-adv-x="504" d="M71 321q0 21 11 44t25 23l371 1q6 0 11 -11.5t5 -26.5q0 -57 -31 -62l-369 -1q-23 0 -23 33zM186 176q0 33 23.5 57t52.5 24h8q22 0 36.5 -14.5t14.5 -37.5q0 -11 -1 -14v-3l-1 -2l-1 -1q-4 -25 -25.5 -42.5t-46.5 -17.5h-8q-23 0 -37.5 14t-14.5 37zM249 474q0 33 23 57 t53 24h8q23 0 37 -14.5t14 -36.5q0 -4 -1.5 -11t-1.5 -10q-4 -25 -25.5 -42.5t-46.5 -17.5h-8q-23 0 -37.5 14t-14.5 37z" />
<glyph unicode="&#xf8;" horiz-adv-x="579" d="M35 -16q0 10 5 15l30 35q6 6 14.5 17t12.5 16q-36 52 -36 123q0 131 96 219.5t206 88.5q49 0 90 -15q19 22 67 77q6 6 17 6q16 0 33.5 -10.5t17.5 -25.5q0 -8 -4 -16q-12 -15 -33.5 -44.5t-33.5 -44.5q41 -57 41 -126q0 -124 -99 -216.5t-205 -92.5q-42 0 -94 28l-55 -64 q-12 -10 -22 -10q-16 0 -32 13.5t-16 26.5zM158 200q0 -30 9 -53l217 255q-17 5 -35 5q-71 0 -131 -60.5t-60 -146.5zM211 83q28 -14 52 -14q70 0 135.5 64t65.5 151q0 44 -15 72z" />
<glyph unicode="&#xf9;" horiz-adv-x="569" d="M80 144q0 65 37 227q3 15 7 33t8 36.5t7 30.5q6 18 47 18q21 0 38 -7t16 -15l-49 -233q-10 -47 -10 -73q0 -42 21.5 -61t68.5 -19q31 0 74 21t71 55q41 193 71 322q10 10 49 10q50 0 50 -21l-98 -458q-14 -24 -64 -24q-10 0 -17.5 3t-11 6.5t-5.5 9t-2 7v3.5l8 38 q-72 -76 -159 -76q-33 0 -57.5 6t-49 22.5t-37.5 51.5t-13 87zM181 633q0 17 26.5 43t38.5 27q109 -63 137 -79q14 -10 14 -28q0 -19 -19 -35.5t-31 -16.5l-153 69q-13 9 -13 20z" />
<glyph unicode="&#xfa;" horiz-adv-x="569" d="M80 144q0 65 37 227q3 15 7 33t8 36.5t7 30.5q6 18 47 18q21 0 38 -7t16 -15l-49 -233q-10 -47 -10 -73q0 -42 21.5 -61t68.5 -19q31 0 74 21t71 55q41 193 71 322q10 10 49 10q50 0 50 -21l-98 -458q-14 -24 -64 -24q-10 0 -17.5 3t-11 6.5t-5.5 9t-2 7v3.5l8 38 q-72 -76 -159 -76q-33 0 -57.5 6t-49 22.5t-37.5 51.5t-13 87zM283 585q0 28 33 44l162 75q9 2 25.5 -18t16.5 -40q0 -21 -23 -34l-179 -68q-10 0 -22.5 12.5t-12.5 28.5z" />
<glyph unicode="&#xfb;" horiz-adv-x="568" d="M80 144q0 65 37 227q3 15 7 33t8 36.5t7 30.5q6 18 47 18q21 0 38 -7t16 -15l-49 -233q-10 -47 -10 -73q0 -42 21.5 -61t68.5 -19q31 0 74 21t71 55q41 193 71 322q10 10 49 10q50 0 50 -21l-98 -458q-14 -24 -64 -24q-10 0 -17.5 3t-11 6.5t-5.5 9t-2 7v3.5l8 38 q-72 -76 -159 -76q-33 0 -57.5 6t-49 22.5t-37.5 51.5t-13 87zM199 607q0 21 23 35l133 61v-1q6 3 18 3q13 0 16 -1l117 -72q2 -2 2 -15q0 -16 -28 -37.5t-35 -17.5l-87 58q-17 -8 -56.5 -27.5t-56.5 -28.5q-3 -1 -6 -3t-6 -3q-9 -2 -21.5 14.5t-12.5 34.5z" />
<glyph unicode="&#xfc;" horiz-adv-x="561" d="M55 144q0 65 37 227q3 15 7 33t8 36.5t7 30.5q6 18 47 18q21 0 38 -7t16 -15l-49 -233q-10 -47 -10 -73q0 -42 21.5 -61t68.5 -19q31 0 74 21t71 55q41 193 71 322q10 10 49 10q50 0 50 -21l-98 -458q-14 -24 -64 -24q-10 0 -17.5 3t-11 6.5t-5.5 9t-2 7v3.5l8 38 q-72 -76 -159 -76q-33 0 -57.5 6t-49 22.5t-37.5 51.5t-13 87zM193 598q0 28 19.5 48t44.5 20h6q19 0 31 -12t12 -32q0 -8 -1 -12l-0.5 -2t-0.5 -3q-3 -10 -9 -19.5t-13.5 -16t-17.5 -10.5t-20 -4h-6q-13 0 -23.5 5.5t-16 15.5t-5.5 22zM385 598q0 19 9 34.5t24 24.5t31 9h6 q19 0 31 -12t12 -31q0 -8 -1 -13l-0.5 -2t-0.5 -3q-5 -21 -22 -35.5t-38 -14.5h-6q-13 0 -23.5 5.5t-16 15.5t-5.5 22z" />
<glyph unicode="&#xfd;" horiz-adv-x="568" d="M-11 -230q0 25 20 57q46 0 84.5 21.5t63 56t38.5 63.5t22 56q-91 369 -105 427q-3 3 -3 17q21 21 68 21q14 0 24 -6.5t13 -12.5l3 -7q14 -55 39.5 -163t39.5 -162q112 188 200 340q8 14 25 14q19 0 40.5 -12t21.5 -24q0 -7 -6 -13l2 1q-81 -135 -209 -359 q-91 -160 -147 -242q-70 -102 -199 -102l-25 1l-6 4q-4 9 -4 24zM273 585q0 28 33 44l162 75q9 2 25.5 -18t16.5 -40q0 -21 -23 -34l-179 -68q-10 0 -22.5 12.5t-12.5 28.5z" />
<glyph unicode="&#xfe;" horiz-adv-x="534" d="M0 -180l181 853q2 5 21.5 12.5t36.5 7.5q35 0 35 -27l-48 -228q77 57 150 57q65 0 105 -45.5t40 -119.5q0 -32 -6 -58q-31 -133 -118.5 -207t-196.5 -74q-35 0 -64 19q-8 -36 -22.5 -104.5t-18.5 -85.5q-6 -27 -52 -27q-43 0 -43 27zM160 125q27 -40 88 -40 q64 0 115.5 63.5t51.5 157.5q0 90 -71 90q-28 0 -61.5 -13t-53.5 -25l-19 -13z" />
<glyph unicode="&#xff;" horiz-adv-x="547" d="M-28 -230q0 25 20 57q46 0 84.5 21.5t63 56t38.5 63.5t22 56q-91 369 -105 427q-3 3 -3 17q21 21 68 21q14 0 24 -6.5t13 -12.5l3 -7q14 -55 39.5 -163t39.5 -162q112 188 200 340q8 14 25 14q19 0 40.5 -12t21.5 -24q0 -7 -6 -13l2 1q-81 -135 -209 -359 q-91 -160 -147 -242q-70 -102 -199 -102l-25 1l-6 4q-4 9 -4 24zM206 598q0 28 19.5 48t44.5 20h6q19 0 31 -12t12 -32q0 -8 -1 -12v-2q-1 -2 -1 -3q-5 -21 -22.5 -35.5t-37.5 -14.5h-6q-20 0 -32.5 12t-12.5 31zM378 598q0 28 19.5 48t44.5 20h6q19 0 31 -12t12 -31 q0 -8 -1 -13v-2q-1 -2 -1 -3q-5 -21 -22 -35.5t-38 -14.5h-6q-20 0 -32.5 12t-12.5 31z" />
<glyph unicode="&#x152;" horiz-adv-x="1031" d="M91 263q0 87 33.5 171t86.5 145t120.5 98.5t133.5 37.5q133 0 193 -124q28 36 72 61t81.5 37t91 18.5t78 7t66.5 0.5q35 0 35 -34q0 -12 -8 -34t-16 -22h-23q-2 0 -6 0.5t-6 0.5q-43 0 -88.5 -5.5t-100.5 -19t-89.5 -44t-34.5 -74.5l-13 -58h204q26 0 26 -31 q0 -21 -13 -44t-26 -23l-210 -1q-6 -27 -18 -79q-3 -12 -8.5 -40t-8.5 -42q-2 -8 -2 -12q0 -68 197 -68l99 5q24 0 24 -29q0 -19 -12.5 -43.5t-24.5 -24.5q-16 0 -50.5 -1.5t-57.5 -1.5q-244 0 -272 109q-107 -107 -228 -107q-100 0 -162.5 76t-62.5 195zM187 267 q0 -76 36.5 -125t97.5 -49q62 0 124.5 47.5t104.5 129.5t42 172q0 77 -36 127t-96 50q-77 0 -151 -72.5t-105 -177.5q-17 -62 -17 -102z" />
<glyph unicode="&#x153;" horiz-adv-x="911" d="M72 177q0 134 91 227.5t213 93.5q57 0 102 -24t71 -67q42 45 98.5 71.5t114.5 26.5q155 0 155 -124q0 -48 -17 -80.5t-45 -47.5t-54 -20.5t-55 -5.5h-176q-4 -20 -4 -38q0 -60 37.5 -91t91.5 -31q62 0 107 24l4 1q13 0 21 -18t8 -37q0 -59 -182 -59q-57 0 -101 27t-68 73 q-44 -47 -101 -74t-115 -27q-88 0 -142 52.5t-54 147.5zM172 191q0 -56 28.5 -89t80.5 -33q70 0 120.5 50t69.5 127l1 2v2q5 25 5 41q0 54 -33.5 85t-85.5 31q-74 0 -130 -64t-56 -152zM589 310h172q34 0 48.5 20.5t14.5 41.5q0 44 -89 44q-42 0 -87 -32.5t-59 -73.5z" />
<glyph unicode="&#x178;" horiz-adv-x="638" d="M147 649q-1 5 12.5 20.5t32.5 29t31 13.5q10 0 24 -26l103 -264q41 39 94.5 89.5t106.5 100.5t94 89h-1q7 7 18 7q16 0 33 -26.5t17 -42.5l-333 -315q-8 -35 -22.5 -103t-26.5 -123.5t-22 -102.5q-36 -7 -57 -7q-22 0 -43 11l69 321q-11 27 -32.5 82t-32.5 82 q-44 110 -65 165zM274 810q0 19 9 34.5t24 24.5t31 9h6q19 0 31 -12t12 -32q0 -8 -1 -12l-0.5 -2t-0.5 -3q-5 -21 -22.5 -35.5t-37.5 -14.5h-6q-13 0 -23.5 5.5t-16 15.5t-5.5 22zM446 810q0 19 9 34.5t24 24.5t31 9h6q19 0 31 -12t12 -31q0 -8 -1 -13l-0.5 -2t-0.5 -3 q-5 -21 -22 -35.5t-38 -14.5h-6q-13 0 -23.5 5.5t-16 15.5t-5.5 22z" />
<glyph unicode="&#x2c6;" horiz-adv-x="434" d="M135 607q0 21 23 35l133 61v-1q6 3 18 3q13 0 16 -1l117 -72q2 -2 2 -15q0 -16 -28 -37.5t-35 -17.5l-87 58q-18 -9 -56.5 -28.5t-56.5 -27.5l-6 -3l-6 -3q-9 -2 -21.5 14.5t-12.5 34.5z" />
<glyph unicode="&#x2dc;" horiz-adv-x="405" d="M105 627q0 16 6 22q29 29 78 29q47 0 98 -38q18 -9 25 -9q15 0 31 11.5t23.5 19.5t10.5 13q10 5 13 5q9 0 19 -10t17 -23.5t7 -24.5q0 -13 -14 -27l6 8q-47 -52 -105 -52q-17 0 -75 29v-1q-34 16 -43 16q-26 0 -47 -21q-10 -5 -13 -5q-15 0 -26 19.5t-11 38.5z" />
<glyph unicode="&#x2000;" horiz-adv-x="501" />
<glyph unicode="&#x2001;" horiz-adv-x="1002" />
<glyph unicode="&#x2002;" horiz-adv-x="501" />
<glyph unicode="&#x2003;" horiz-adv-x="1002" />
<glyph unicode="&#x2004;" horiz-adv-x="334" />
<glyph unicode="&#x2005;" horiz-adv-x="250" />
<glyph unicode="&#x2006;" horiz-adv-x="167" />
<glyph unicode="&#x2007;" horiz-adv-x="167" />
<glyph unicode="&#x2008;" horiz-adv-x="125" />
<glyph unicode="&#x2009;" horiz-adv-x="200" />
<glyph unicode="&#x200a;" horiz-adv-x="55" />
<glyph unicode="&#x2010;" horiz-adv-x="410" d="M70 319q0 21 11 45t25 24l263 1q6 0 11.5 -12.5t5.5 -28.5q0 -21 -8.5 -39t-23.5 -20l-261 -1q-23 0 -23 31z" />
<glyph unicode="&#x2011;" horiz-adv-x="410" d="M70 319q0 21 11 45t25 24l263 1q6 0 11.5 -12.5t5.5 -28.5q0 -21 -8.5 -39t-23.5 -20l-261 -1q-23 0 -23 31z" />
<glyph unicode="&#x2012;" horiz-adv-x="410" d="M70 319q0 21 11 45t25 24l263 1q6 0 11.5 -12.5t5.5 -28.5q0 -21 -8.5 -39t-23.5 -20l-261 -1q-23 0 -23 31z" />
<glyph unicode="&#x2013;" horiz-adv-x="499" d="M62 319q0 21 11 45t25 24l371 1q6 0 11.5 -12.5t5.5 -28.5q0 -21 -8.5 -39t-23.5 -20l-369 -1q-23 0 -23 31z" />
<glyph unicode="&#x2014;" horiz-adv-x="614" d="M62 319q0 21 11 45t25 24l491 1q6 0 11.5 -12.5t5.5 -28.5q0 -21 -8.5 -39t-23.5 -20l-489 -1q-23 0 -23 31z" />
<glyph unicode="&#x2018;" horiz-adv-x="324" d="M131 580q0 24 3.5 44t10 36t16.5 27t23.5 16.5t30.5 5.5h8q25 0 40 -15t15 -39q0 -33 -19 -56t-47 -28q6 -49 54 -61q3 0 5.5 -3t4.5 -6l1 -3q0 -2 -9 -43q-76 0 -106.5 37t-30.5 88z" />
<glyph unicode="&#x2019;" horiz-adv-x="318" d="M103 455q8 55 22 55q7 0 19.5 4t31.5 19.5t32 38.5q-37 9 -37 50q0 36 24.5 61.5t56.5 25.5h8q24 0 38.5 -15t14.5 -38q0 -11 -1 -15q-42 -186 -209 -186z" />
<glyph unicode="&#x201a;" horiz-adv-x="178" d="M-2 -114q-1 9 0 18t3 16l2 8q4 0 16 4.5t29.5 20.5t23.5 41q-18 11 -18 37q0 29 19.5 49t44.5 20h6q21 0 32.5 -13t11.5 -36q0 -12 -3 -24q-3 -14 -12.5 -34t-28 -46t-52 -43.5t-74.5 -17.5z" />
<glyph unicode="&#x201c;" horiz-adv-x="359" d="M80 549q0 9 2 15q42 186 209 186q-3 -21 -5 -27q0 -1 -0.5 -2.5t-0.5 -2.5q-5 -23 -16 -23q-7 0 -19.5 -4t-31.5 -19.5t-32 -38.5q36 -11 36 -50q0 -37 -24 -62t-56 -25h-8q-24 0 -39 15t-15 38zM238 549q0 9 2 15q42 186 209 186q-3 -21 -5 -27q0 -1 -0.5 -2.5 t-0.5 -2.5q-5 -23 -16 -23q-7 0 -19.5 -4t-31.5 -19.5t-32 -38.5q36 -11 36 -50q0 -37 -24 -62t-56 -25h-8q-24 0 -39 15t-15 38z" />
<glyph unicode="&#x201d;" horiz-adv-x="376" d="M61 498q0 14 4 27.5t8.5 19.5t6.5 6q7 0 19.5 4t31.5 19.5t32 38.5q-37 10 -37 50q0 35 25 61t57 26h8q24 0 38.5 -15t14.5 -39q0 -12 -1 -15q-42 -185 -207 -183zM219 498q0 14 4 27.5t8.5 19.5t6.5 6q7 0 19.5 4t31.5 19.5t32 38.5q-37 10 -37 50q0 35 25 61t57 26h8 q24 0 38.5 -15t14.5 -39q0 -12 -1 -15q-42 -185 -207 -183z" />
<glyph unicode="&#x201e;" horiz-adv-x="357" d="M15 -114q-1 9 0 18t3 16l2 8q4 0 16 4.5t29.5 20.5t23.5 41q-18 11 -18 37q0 29 19.5 49t44.5 20h6q21 0 32.5 -13t11.5 -36q0 -12 -3 -24q-3 -14 -12.5 -34t-28 -46t-52 -43.5t-74.5 -17.5zM148 -114q-1 9 0 18t3 16l2 8q4 0 16 4.5t29.5 20.5t23.5 41q-18 11 -18 37 q0 29 19.5 49t44.5 20h6q21 0 32.5 -13t11.5 -36q0 -12 -3 -24q-3 -14 -12.5 -34t-28 -46t-52 -43.5t-74.5 -17.5z" />
<glyph unicode="&#x2022;" horiz-adv-x="302" d="M85 322q0 11 1 14q0 1 0.5 3t0.5 4l3 12q10 38 42.5 65t70.5 27h12q34 0 55 -21.5t21 -54.5q0 -8 -2 -20l-3 -12q-11 -37 -43.5 -65t-66.5 -28h-12q-36 0 -57.5 20.5t-21.5 55.5z" />
<glyph unicode="&#x2026;" horiz-adv-x="946" d="M123 40q0 36 24.5 61.5t56.5 25.5h8q24 0 38.5 -15t14.5 -38q0 -11 -1 -15q0 -1 -0.5 -4t-0.5 -4q-7 -27 -28.5 -45t-47.5 -18h-8q-25 0 -40.5 14.5t-15.5 37.5zM400 40q0 36 24.5 61.5t56.5 25.5h8q24 0 38.5 -15t14.5 -38q0 -11 -1 -15q0 -1 -0.5 -4t-0.5 -4 q-7 -27 -28.5 -45t-47.5 -18h-8q-25 0 -40.5 14.5t-15.5 37.5zM674 40q0 36 24.5 61.5t56.5 25.5h8q24 0 38.5 -15t14.5 -38q0 -11 -1 -15q0 -1 -0.5 -4t-0.5 -4q-7 -27 -28.5 -45t-47.5 -18h-8q-25 0 -40.5 14.5t-15.5 37.5z" />
<glyph unicode="&#x202f;" horiz-adv-x="200" />
<glyph unicode="&#x2039;" horiz-adv-x="362" d="M97 240q0 2 1 7t3 10l4 10t4 8l178 182q10 10 25 10q16 0 32.5 -16.5t16.5 -30.5l-174 -172q57 -93 98 -163q1 -8 -22.5 -27t-40.5 -19t-21 14l-50 89q-8 15 -24.5 44.5t-25.5 43.5l-1 -1q-3 3 -3 11z" />
<glyph unicode="&#x203a;" horiz-adv-x="305" d="M39 88l169 165q-20 32 -55.5 94.5t-43.5 76.5q-1 8 22 25.5t40 17.5q15 0 22 -13l105 -189q0 -16 -12 -40l-164 -167q-23 -19 -35 -19q-16 0 -32 18t-16 31z" />
<glyph unicode="&#x205f;" horiz-adv-x="250" />
<glyph unicode="&#x20ac;" horiz-adv-x="703" d="M67 261q0 19 10.5 37.5t23.5 18.5l69 1q5 30 12 52l4 18l-62 -1q-24 0 -24 30q0 19 10.5 37.5t23.5 18.5l78 1q45 124 118.5 186t164.5 62q52 0 108.5 -18t86.5 -36l31 -18l-21 -82q-12 6 -33 15t-81 24.5t-114 15.5q-43 0 -83.5 -39.5t-70.5 -109.5h220q4 0 8 -7t4 -18 q0 -46 -23 -61h-240q-6 -18 -17 -70h243q3 -24 3 -29q0 -43 -21 -57h-235v-17q0 -138 92 -138q81 0 144.5 13.5t85.5 26.5l23 13l-18 -95q-7 -6 -23 -15.5t-79.5 -25.5t-143.5 -16q-183 0 -183 213q0 33 1 41q-5 0 -15.5 -0.5t-15.5 -0.5h-37q-24 0 -24 30z" />
<glyph unicode="&#x2122;" horiz-adv-x="550" d="M130 666v8q0 17 9 29l10 5q7 1 77 1q69 0 78 -1h13v-15q0 -12 -13 -38h-59q-6 -27 -17.5 -80t-17.5 -80q-4 -17 -28 -17q-27 0 -27 21l33 156h-42q-11 0 -16 11zM302 482l44 211q4 18 31 18q10 0 15 -2t6 -4l4 -8l34 -101q40 53 80 104q8 11 27 11q10 0 24 -15l-45 -213 q-1 -1 -12.5 -3.5t-16.5 -2.5q-26 0 -26 5l20 99q-29 -37 -46 -60q-14 -7 -23 -7q-16 0 -20 13q-4 11 -10.5 25t-8.5 20q-4 -16 -10 -46.5t-8 -40.5q-8 -8 -32 -8q-18 -2 -27 5z" />
<glyph unicode="&#xe000;" horiz-adv-x="490" d="M0 0v490h490v-490h-490z" />
</font>
</defs>
</svg>
