<?xml version="1.0" standalone="no"?>
<!DOCTYPE svg PUBLIC "-//W3C//DTD SVG 1.1//EN" "http://www.w3.org/Graphics/SVG/1.1/DTD/svg11.dtd" >
<svg xmlns="http://www.w3.org/2000/svg">
<metadata></metadata>
<defs>
<font id="web_symbolsregular" horiz-adv-x="1000" >
<font-face units-per-em="1000" ascent="801" descent="-199" />
<missing-glyph horiz-adv-x="250" />
<glyph />
<glyph />
<glyph unicode="&#xd;" />
<glyph unicode=" "  horiz-adv-x="250" />
<glyph unicode="&#x09;" horiz-adv-x="250" />
<glyph unicode="&#xa0;" horiz-adv-x="250" />
<glyph unicode="!" />
<glyph unicode="#" horiz-adv-x="965" d="M0 -199v1000h965v-1000h-965zM81 512q23 -36 62 -36q38 0 58.5 23t20.5 62v162h-136v-51h74v-112q0 -31 -18 -31q-11 0 -27 19zM87 -112h62v147h1l115 -147h62v241h-62v-148h-1l-115 148h-62v-241zM87 185h96q37 0 62 16t25 51q0 55 -49 62q27 14 27 49q0 63 -72 63h-89 v-241zM149 233v52h23q35 0 35 -26t-42 -26h-16zM149 332v46h8q33 0 33 -23t-34 -23h-7zM273 588q0 -57 24.5 -84.5t81.5 -27.5q56 0 80.5 27.5t24.5 84.5v135h-63v-126q0 -20 -2 -32t-12 -23t-28 -11q-27 0 -35 17.5t-8 48.5v126h-63v-135zM309 185h137v53h-74v42h70v53h-70 v40h74v53h-137v-241zM388 -112h63v241h-63v-241zM500 8q0 -54 37.5 -90t91.5 -36q22 0 55 11v75q-21 -26 -54 -26q-29 0 -47 18.5t-18 47.5q0 28 18 47t46 19q35 0 55 -26v75q-31 12 -57 12q-53 0 -90 -37.5t-37 -89.5zM519 504q37 -28 84 -28q43 0 68.5 22.5t25.5 65.5 q0 27 -16.5 43t-35.5 20.5t-35.5 11.5t-16.5 18q0 10 8.5 15t18.5 5q23 0 42 -16l25 49q-35 20 -76 20q-36 0 -59.5 -22.5t-23.5 -58.5q0 -29 16 -45t35.5 -19.5t35.5 -10.5t16 -20q0 -12 -9 -18.5t-21 -6.5q-25 0 -56 25zM724 670h51v-187h63v187h52v53h-166v-53zM740 -112 h137v53h-75v41h71v53h-71v41h75v53h-137v-241z" />
<glyph unicode="%" d="M0 -200v467l168 -161l161 161q29 29 69 29t69 -29t29 -69t-29 -69l-161 -161l161 -168h-467zM533 333q-29 29 -29 69t29 69l161 161l-161 168h467v-467l-168 161l-161 -161q-29 -29 -69 -29t-69 29z" />
<glyph unicode="&#x26;" d="M0 300q0 136 67 251t182 182t251 67t251 -67t182 -182t67 -251t-67 -251t-182 -182t-251 -67t-251 67t-182 182t-67 251zM240 40h280l-102 116l226 226l116 -102v280h-280l102 -116l-226 -226l-116 102v-280z" />
<glyph unicode="'" d="M0 -46l346 346l-346 346l154 154l346 -346l346 346l154 -154l-346 -346l346 -346l-154 -154l-346 346l-346 -346z" />
<glyph unicode="(" d="M0 300q0 136 67 251t182 182t251 67t251 -67t182 -182t67 -251t-67 -251t-182 -182t-251 -67t-251 67t-182 182t-67 251zM314 300l233 -232l71 71l-161 161l161 161l-71 71z" />
<glyph unicode=")" d="M0 300q0 136 67 251t182 182t251 67t251 -67t182 -182t67 -251t-67 -251t-182 -182t-251 -67t-251 67t-182 182t-67 251zM382 139l71 -71l233 232l-233 232l-71 -71l161 -161z" />
<glyph unicode="*" d="M0 300q0 136 67 251t182 182t251 67t251 -67t182 -182t67 -251t-67 -251t-182 -182t-251 -67t-251 67t-182 182t-67 251zM178 297q0 -131 93 -223.5t224 -92.5t223 92l-62 71q-66 -64 -156 -64q-91 0 -155.5 64.5t-64.5 155.5t64.5 155.5t155.5 64.5q95 0 156 -64 q8 -8 11.5 -16.5t6.5 -20.5t6 -19h-120l180 -180l180 180h-120q-30 92 -118.5 152.5t-186.5 60.5q-131 0 -224 -92.5t-93 -223.5z" />
<glyph unicode="+" d="M0 300q0 136 67 251t182 182t251 67t251 -67t182 -182t67 -251t-67 -251t-182 -182t-251 -67t-251 67t-182 182t-67 251zM206 242h236v-236h118v236h235v118h-235v235h-118v-235h-236v-118z" />
<glyph unicode="," d="M0 205l595 595h270l135 -135v-270l-595 -595zM705 505q28 -28 67.5 -28t67.5 28t28 67.5t-28 67.5t-67.5 28t-67.5 -28t-28 -67.5t28 -67.5z" />
<glyph unicode="-" d="M0 300q0 136 67 251t182 182t251 67t251 -67t182 -182t67 -251t-67 -251t-182 -182t-251 -67t-251 67t-182 182t-67 251zM206 242h589v118h-589v-118z" />
<glyph unicode="." horiz-adv-x="1179" d="M0 300l107 107l286 -250q150 150 279 271.5t205.5 187.5t131.5 111t77 59l21 14q4 0 11 -2t26 -19.5t35 -49.5q-90 -80 -197 -205t-195 -246.5t-163 -231.5t-118 -178l-42 -68q-144 180 -464 500z" />
<glyph unicode="/" d="M0 301q0 136 67 251t182 182t251 67t251 -67t182 -182t67 -251t-67 -251t-182 -182t-251 -67t-251 67t-182 182t-67 251zM206 301q71 -71 129 -133.5t81 -89.5l22 -26q8 13 22 35.5t56.5 85.5t83.5 118.5t95 119.5t99 104q-8 16 -17 24.5t-14 9.5l-5 1q-10 -6 -32 -22 t-113.5 -97.5t-210.5 -200.5l-142 124z" />
<glyph unicode="0" d="M0 310v118h265v-118h-265zM105 57l187 187l83 -83l-187 -187zM105 681l83 83l187 -187l-83 -83zM441 -131v265h118v-265h-118zM441 604v265h118v-265h-118zM625 161l83 83l187 -187l-83 -83zM735 310v118h265v-118h-265z" />
<glyph unicode="1" d="M0 310v118h265v-118h-265zM105 57l187 187l83 -83l-187 -187zM105 681l83 83l187 -187l-83 -83zM441 -131v265h118v-265h-118zM441 604v265h118v-265h-118zM625 161l83 83l187 -187l-83 -83zM625 577l187 187l83 -83l-187 -187z" />
<glyph unicode="2" d="M0 310v118h265v-118h-265zM105 57l187 187l83 -83l-187 -187zM105 681l83 83l187 -187l-83 -83zM441 -131v265h118v-265h-118zM441 604v265h118v-265h-118zM625 577l187 187l83 -83l-187 -187zM735 310v118h265v-118h-265z" />
<glyph unicode="3" d="M0 310v118h265v-118h-265zM105 57l187 187l83 -83l-187 -187zM105 681l83 83l187 -187l-83 -83zM441 604v265h118v-265h-118zM625 161l83 83l187 -187l-83 -83zM625 577l187 187l83 -83l-187 -187zM735 310v118h265v-118h-265z" />
<glyph unicode="4" d="M0 310v118h265v-118h-265zM105 681l83 83l187 -187l-83 -83zM441 -131v265h118v-265h-118zM441 604v265h118v-265h-118zM625 161l83 83l187 -187l-83 -83zM625 577l187 187l83 -83l-187 -187zM735 310v118h265v-118h-265z" />
<glyph unicode="5" d="M105 57l187 187l83 -83l-187 -187zM105 681l83 83l187 -187l-83 -83zM441 -131v265h118v-265h-118zM441 604v265h118v-265h-118zM625 161l83 83l187 -187l-83 -83zM625 577l187 187l83 -83l-187 -187zM735 310v118h265v-118h-265z" />
<glyph unicode="6" d="M0 310v118h265v-118h-265zM105 57l187 187l83 -83l-187 -187zM441 -131v265h118v-265h-118zM441 604v265h118v-265h-118zM625 161l83 83l187 -187l-83 -83zM625 577l187 187l83 -83l-187 -187zM735 310v118h265v-118h-265z" />
<glyph unicode="7" d="M0 310v118h265v-118h-265zM105 57l187 187l83 -83l-187 -187zM105 681l83 83l187 -187l-83 -83zM441 -131v265h118v-265h-118zM625 161l83 83l187 -187l-83 -83zM625 577l187 187l83 -83l-187 -187zM735 310v118h265v-118h-265z" />
<glyph unicode=":" d="M0 300q0 136 67 251t182 182t251 67t251 -67t182 -182t67 -251t-67 -251t-182 -182t-251 -67t-251 67t-182 182t-67 251zM268 253l71 -71l161 161l161 -161l71 71l-232 233z" />
<glyph unicode=";" d="M0 300q0 136 67 251t182 182t251 67t251 -67t182 -182t67 -251t-67 -251t-182 -182t-251 -67t-251 67t-182 182t-67 251zM268 347l232 -233l232 233l-71 71l-161 -161l-161 161z" />
<glyph unicode="&#x3c;" horiz-adv-x="654" d="M0 300l500 500l154 -154l-346 -346l346 -346l-154 -154z" />
<glyph unicode="&#x3e;" horiz-adv-x="654" d="M0 -46l346 346l-346 346l154 154l500 -500l-500 -500z" />
<glyph unicode="?" horiz-adv-x="586" d="M0 507q0 121 86 207t207 86t207 -86t86 -207q0 -7 -1.5 -21t-17.5 -71.5t-43.5 -130t-88 -202t-142.5 -282.5q-82 153 -142.5 282t-88 204t-43 128t-17.5 73zM207 507q0 -36 25 -61t61 -25t61 25t25 61t-25 61t-61 25t-61 -25t-25 -61z" />
<glyph unicode="@" horiz-adv-x="1360" d="M0 -94v785q0 43 31 74t74 31h1152q43 0 74 -31t31 -74v-785q0 -44 -31 -74.5t-74 -30.5h-1152q-43 0 -74 30.5t-31 74.5zM157 -42h1048v558l-494 -412h-61l-493 412v-558zM174 639l507 -423l507 423h-1014z" />
<glyph unicode="A" horiz-adv-x="1113" d="M0 16q0 110 84 194l493 489q104 101 242 101q125 0 209.5 -84t84.5 -209q0 -67 -26.5 -129.5t-73.5 -109.5l-448 -444l-62 61l448 444q74 72 74 178q0 89 -58.5 147.5t-147.5 58.5q-102 0 -180 -75l-493 -489q-59 -59 -59 -133q0 -57 37 -93.5t94 -36.5q75 0 134 59 l377 372q53 55 53 97q0 21 -16 33t-38 12q-48 0 -86 -40l-340 -336l-61 61l339 336q66 66 148 66q58 0 100 -37t42 -94q0 -78 -79 -159l-377 -372q-84 -84 -196 -84q-93 0 -155.5 61.5t-62.5 154.5z" />
<glyph unicode="B" d="M0 -75q0 52 36.5 88.5t88.5 36.5t88.5 -36.5t36.5 -88.5t-36.5 -88.5t-88.5 -36.5t-88.5 36.5t-36.5 88.5zM0 268v192q179 0 331 -88.5t240.5 -240.5t88.5 -331h-192q0 194 -137 331t-331 137zM0 608v192q203 0 388 -79.5t319 -213.5t213.5 -319t79.5 -388h-193 q0 164 -64 314t-172 258t-257.5 172t-313.5 64z" />
<glyph unicode="C" horiz-adv-x="1435" d="M0 83q0 74 37 139t101 103q-8 32 -8 62q0 117 83 200t200 83q103 0 186 -70q43 91 128.5 145.5t185.5 54.5q144 0 246 -102t102 -246q0 -55 -16 -103q85 -29 137.5 -103t52.5 -163q0 -111 -75.5 -192.5t-185.5 -89.5v-1h-870v1q-7 -1 -21 -1q-117 0 -200 83t-83 200z" />
<glyph unicode="D" horiz-adv-x="1091" d="M0 -199v636h273v364h818v-636h-273v-364h-818zM91 -108h636v364h-636v-364zM364 437h454v-181h182v363h-636v-182z" />
<glyph unicode="F" horiz-adv-x="1391" d="M0 419q0 33 22.5 54.5t55.5 21.5h1235q33 0 55.5 -21.5t22.5 -54.5v-10l-68 -523q-5 -35 -33.5 -60.5t-64.5 -25.5h-1058q-36 0 -65.5 25.5t-33.5 60.5l-67 523q-1 3 -1 10zM78 583q9 48 27 67t34.5 17t34 3.5t25.5 28.5l24 72q77 29 208 29q89 0 164 -29l25 -72 q24 -23 32.5 -26t43.5 -3h485q84 0 110 -22q12 -11 22 -65h-1235z" />
<glyph unicode="H" horiz-adv-x="1500" d="M0 300l500 500l154 -154l-346 -346l346 -346l-154 -154zM846 -46l346 346l-346 346l154 154l500 -500l-500 -500z" />
<glyph unicode="I" horiz-adv-x="1360" d="M0 -200v1000h1360v-1000h-1360zM120 -80h1120v760h-1120v-760zM200 4v2q18 36 135 280t144 299q1 2 3.5 2.5t3.5 -1.5l311 -386l152 122h7l1 -2q39 -50 101.5 -155t104.5 -158q2 -1 1 -4t-4 -3h-956q-4 0 -4 4zM960 480q0 33 23.5 56.5t56.5 23.5t56.5 -23.5t23.5 -56.5 t-23.5 -56.5t-56.5 -23.5t-56.5 23.5t-23.5 56.5z" />
<glyph unicode="J" horiz-adv-x="1360" d="M0 360l300 320l300 -320h-240v-240h400l117 -120h-636l-1 360h-240zM483 680h636l1 -360h240l-300 -320l-300 320h240v240h-400z" />
<glyph unicode="K" d="M0 66q0 112 78 188l175 176q78 78 189 78q97 0 171 -63l-115 -115q-26 17 -56 17q-44 0 -75 -31l-175 -176q-31 -29 -31 -74q0 -44 30.5 -74.5t74.5 -30.5q25 0 49.5 12t32.5 34h238l-132 -129q-80 -78 -188 -78q-110 0 -188 78t-78 188zM387 155l115 115q26 -17 56 -17 q44 0 75 31l175 176q31 29 31 74q0 44 -30.5 74.5t-74.5 30.5q-25 0 -49.5 -12t-32.5 -34h-238l132 129q80 78 188 78q110 0 188 -78t78 -188q0 -112 -78 -188l-175 -176q-78 -78 -189 -78q-97 0 -171 63z" />
<glyph unicode="L" d="M0 391q0 169 120 289t289 120t289 -120t120 -289q0 -127 -72 -231l254 -255l-105 -105l-254 254q-106 -72 -232 -72q-169 0 -289 120t-120 289zM136 391q0 -113 80 -192.5t193 -79.5t192.5 79.5t79.5 192.5t-79.5 193t-192.5 80t-193 -80t-80 -193z" />
<glyph unicode="M" horiz-adv-x="1360" d="M0 -200v1000h1360v-1000h-1360zM80 -40v-80h120v80h-120zM80 40h320v520h-320v-520zM80 640h120v80h-120v-80zM280 -40v-80h120v80h-120zM280 640h120v80h-120v-80zM520 40h320v520h-320v-520zM520 -40v-80h120v80h-120zM520 640h120v80h-120v-80zM720 -40v-80h120v80 h-120zM720 640h120v80h-120v-80zM960 -40v-80h120v80h-120zM960 40h320v520h-320v-520zM960 640h120v80h-120v-80zM1160 -40v-80h120v80h-120zM1160 640h120v80h-120v-80z" />
<glyph unicode="N" horiz-adv-x="1063" d="M0 453v60q0 127 80.5 207t206.5 80q81 0 134 -30.5t110 -98.5q58 68 111 98.5t133 30.5q126 0 207 -80t81 -207v-60q0 -285 -532 -653q-531 367 -531 653z" />
<glyph unicode="O" horiz-adv-x="1063" d="M0 453v60q0 127 80.5 207t206.5 80q81 0 134 -30.5t110 -98.5q58 68 111 98.5t133 30.5q126 0 207 -80t81 -207v-60q0 -285 -532 -653q-531 367 -531 653zM116 458q0 -30 17 -75q68 -199 398 -441q329 239 399 441q16 50 16 75v50q0 58 -39 113.5t-95 61.5q-12 2 -37 2 q-53 0 -83 -19.5t-72 -68.5l-89 -105l-89 105q-42 49 -72 68.5t-83 19.5q-24 0 -37 -2q-56 -6 -93.5 -60t-40.5 -115v-50z" />
<glyph unicode="P" d="M0 300q0 136 67 251t182 182t251 67t251 -67t182 -182t67 -251t-67 -251t-182 -182t-251 -67t-251 67t-182 182t-67 251zM117 300q0 -158 112.5 -270.5t270.5 -112.5q126 0 226 74l-2 2q48 35 83 83l2 -2q74 100 74 226q0 158 -112.5 270.5t-270.5 112.5q-126 0 -226 -74 l2 -2q-48 -35 -83 -83l-2 2q-74 -100 -74 -226zM440 240v320q0 25 17.5 42.5t42.5 17.5t42.5 -17.5t17.5 -42.5v-315l102 -103q18 -17 18 -42t-17.5 -42.5t-42.5 -17.5q-26 0 -42 18l-120 120q-18 18 -18 62z" />
<glyph unicode="Q" d="M0 -112v824q0 36 26 62t62 26h824q36 0 62 -26t26 -62v-824q0 -36 -26 -62t-62 -26h-824q-36 0 -62 26t-26 62zM273 216q0 -68 147 -97l-117 -121q-18 -18 -18 -44t17.5 -44.5t42.5 -18.5t43 18l112 116l112 -116q18 -18 43 -18t42.5 18.5t17.5 44.5t-18 44l-117 121 q147 30 147 98q0 26 -17.5 44.5t-42.5 18.5q-15 0 -28 -8q-70 -36 -140 -36q-69 0 -138 36q-16 7 -28 7q-25 0 -42.5 -18.5t-17.5 -44.5zM295 496q0 -87 59 -150t146 -63t146 63t59 150t-59 150t-146 63t-146 -63t-59 -150zM415 496q0 36 24.5 62t60.5 26t60.5 -26t24.5 -62 t-24.5 -62t-60.5 -26t-60.5 26t-24.5 62z" />
<glyph unicode="R" horiz-adv-x="1050" d="M0 414q0 23 49 23l340 -1l104 324q12 40 32 40q19 0 31 -40l106 -324l339 1q49 0 49 -22q0 -15 -29 -38l-275 -200l105 -323q5 -17 5 -30q0 -24 -18 -24q-17 0 -38 17l-275 199l-275 -199q-23 -17 -39 -17q-18 0 -18 23q0 11 6 31l105 323l-275 200q-29 21 -29 37z" />
<glyph unicode="S" d="M0 230v142l199 28q7 21 19 45l-120 159l101 100l160 -119q15 8 47 20l28 195h143l28 -195q22 -7 48 -19l158 117l102 -100l-119 -156q13 -27 20 -48l186 -27v-142l-185 -26q-10 -27 -21 -50l120 -157l-102 -100l-159 118q-20 -10 -51 -21l-30 -194h-143l-27 197 q-21 7 -43 18l-161 -119l-101 100l121 160q-11 21 -19 46zM361 300q0 -60 42.5 -102t102.5 -42t103 42t43 102t-43 102t-103 42t-102.5 -42t-42.5 -102z" />
<glyph unicode="T" horiz-adv-x="925" d="M0 86q0 40 8.5 74t21 59.5t35.5 47.5t43 36.5t53.5 27.5t57.5 20.5t64 15t63.5 11t65.5 8.5q50 6 100 15q24 4 37 7t34 11t32 17t19.5 25.5t8.5 38.5q0 126 -170 126q-87 0 -130.5 -31.5t-56.5 -113.5h-244q6 90 44 154t100.5 99t134.5 50.5t159 15.5q68 0 124.5 -7.5 t111.5 -28.5t92.5 -54.5t60.5 -89t23 -128.5v-408q0 -64 0.5 -91t8.5 -77.5t24 -88.5h-264q-15 40 -18 92q-120 -119 -306 -119q-95 0 -169 29t-121 95t-47 162zM267 97q0 -62 40 -94.5t103 -32.5q103 0 167 55t64 156v106q-33 -19 -87 -30.5t-100.5 -18.5t-90.5 -19.5 t-70 -42.5t-26 -79z" />
<glyph unicode="U" horiz-adv-x="1070" d="M0 -137q0 30 1 37q12 49 64 84.5t111.5 53t125.5 47t97 65.5q17 22 17 38q0 22 -11 73q-4 21 -10.5 36.5t-16 33t-15.5 31.5q-15 35 -33 132q-6 38 -6 75q0 105 53.5 168t157.5 63t157.5 -63t53.5 -168q0 -31 -7 -75q-14 -89 -32 -132q-6 -14 -15.5 -31.5t-16 -33 t-10.5 -36.5q-11 -51 -11 -73q0 -18 17 -38q31 -36 97 -65.5t125 -47t111 -53t64 -84.5q2 -8 2 -37q0 -21 -2 -63h-1067q0 10 -0.5 31t-0.5 32z" />
<glyph unicode="V" horiz-adv-x="857" d="M0 -199v405h405l-153 -153q78 -62 177 -62q111 0 193 76t91 186h143q-9 -170 -133 -287t-294 -117q-158 0 -279 102zM1 349q9 170 133 287t295 117q157 0 278 -102l150 150v-405h-405l153 153q-77 62 -176 62q-111 0 -193.5 -76t-91.5 -186h-143z" />
<glyph unicode="W" horiz-adv-x="1113" d="M0 -119q0 30 18 61l461 804q33 55 78 55t76 -55l462 -805q18 -32 18 -60q0 -39 -27.5 -59.5t-67.5 -20.5h-923q-40 0 -67.5 21t-27.5 59zM487 5q0 -29 20.5 -49.5t48.5 -20.5q29 0 49.5 20.5t20.5 49.5t-20.5 49t-49.5 20q-28 0 -48.5 -20t-20.5 -49zM487 392 q0 -14 2 -26.5t5.5 -28t5.5 -26.5l26 -162h59l27 162q2 10 6 26t6 28.5t2 26.5v146h-139v-146z" />
<glyph unicode="X" horiz-adv-x="1188" d="M0 302q0 135 68 250t183.5 181.5t250.5 66.5q184 0 349 -148l-105 -106q-114 104 -243 104q-149 0 -251.5 -104t-102.5 -254q0 -140 105.5 -241t247.5 -101q131 0 244 103l106 -107q-156 -146 -338 -146q-217 0 -365.5 143.5t-148.5 358.5zM499 212v176h413v177l276 -266 l-276 -264v177h-413z" />
<glyph unicode="Z" horiz-adv-x="1217" d="M0 626v131q0 17 13 30t30 13h1131q18 0 30.5 -13t12.5 -30v-131q0 -18 -12.5 -30.5t-30.5 -12.5h-1131q-17 0 -30 12.5t-13 30.5zM43 -157v609q0 18 13 31t31 13h1043q18 0 31 -13t13 -31v-609q0 -17 -13 -30t-31 -13h-1043q-18 0 -31 13t-13 30zM348 300q0 -27 19 -46 t46 -19h391q27 0 46.5 19t19.5 46t-19.5 46t-46.5 19h-391q-27 0 -46 -19t-19 -46z" />
<glyph unicode="[" horiz-adv-x="529" d="M0 565h529l-264 -530z" />
<glyph unicode="\" d="M0 300q0 136 67 251t182 182t251 67t251 -67t182 -182t67 -251t-67 -251t-182 -182t-251 -67t-251 67t-182 182t-67 251zM117 300q0 -158 112.5 -270.5t270.5 -112.5q126 0 226 74l-535 535q-74 -100 -74 -226zM274 609l535 -535q74 100 74 226q0 158 -112.5 270.5 t-270.5 112.5q-126 0 -226 -74z" />
<glyph unicode="]" horiz-adv-x="529" d="M0 35v530l529 -265z" />
<glyph unicode="_" horiz-adv-x="1360" d="M0 -200v1000h1360v-1000h-1360zM160 277l317 135v96l-317 134v-99l209 -84l-209 -83v-99zM522 200h318v77h-318v-77z" />
<glyph unicode="`" d="M0 300q0 136 67 251t182 182t251 67t251 -67t182 -182t67 -251t-67 -251t-182 -182t-251 -67t-251 67t-182 182t-67 251zM152 241q19 -110 99 -190t190 -99v142h118v-142q110 19 190 99t99 190h-142v118h142q-19 110 -99 190t-190 99v-142h-118v142q-110 -19 -190 -99 t-99 -190h142v-118h-142z" />
<glyph unicode="a" horiz-adv-x="760" d="M0 -200v1000h560l200 -200l-1 -800h-759zM160 -40h440v560h-120v120h-320v-680z" />
<glyph unicode="b" horiz-adv-x="989" d="M0 -50v750h789l198 -197v-553h-987zM158 108h671v316h-118v118h-553v-434z" />
<glyph unicode="c" horiz-adv-x="1137" d="M0 168v532q0 41 29.5 70.5t70.5 29.5h937q41 0 70.5 -29.5t29.5 -70.5v-532q0 -41 -29.5 -70.5t-70.5 -29.5h-168v-268l-267 268h-502q-41 0 -70.5 29.5t-29.5 70.5z" />
<glyph unicode="d" horiz-adv-x="1179" d="M0 -200q44 59 70.5 126.5t31.5 105.5l4 38q-106 120 -106 266q0 126 79 233t214.5 169t295.5 62t296 -62t215 -169t79 -233t-79 -233.5t-215 -169.5t-296 -62q-122 0 -234 39l2 -3z" />
<glyph unicode="e" horiz-adv-x="1179" d="M0 -200q44 59 70.5 126.5t31.5 105.5l4 38q-106 120 -106 266q0 126 79 233t214.5 169t295.5 62t296 -62t215 -169t79 -233t-79 -233.5t-215 -169.5t-296 -62q-122 0 -234 39l2 -3zM286 336q0 -30 21 -51t50 -21q30 0 51 21t21 51q0 29 -21 50t-51 21q-29 0 -50 -21 t-21 -50zM536 336q0 -30 21 -51t50 -21q30 0 51 21t21 51q0 29 -21 50t-51 21q-29 0 -50 -21t-21 -50zM786 336q0 -30 21 -51t50 -21q30 0 51 21t21 51q0 29 -21 50t-51 21q-29 0 -50 -21t-21 -50z" />
<glyph unicode="f" d="M0 -112v824q0 36 26 62t62 26h824q36 0 62 -26t26 -62v-824q0 -36 -26 -62t-62 -26h-824q-36 0 -62 26t-26 62zM462 315h79v-400h149v400h118l9 115h-127v90q0 42 59 42q31 0 64 -10l20 118q-19 7 -55 10.5t-62 3.5l-26 1q-79 0 -123 -58q-26 -34 -26 -119v-78h-79v-115z " />
<glyph unicode="g" d="M0 -112v824q0 36 26 62t62 26h824q36 0 62 -26t26 -62v-824q0 -36 -26 -62t-62 -26h-824q-36 0 -62 26t-26 62zM116 97q0 -77 61.5 -114.5t143.5 -37.5q92 0 159.5 45.5t67.5 133.5q0 38 -19.5 73t-43.5 55t-43.5 38.5t-19.5 28.5q0 11 15 25.5t33.5 29t33.5 46.5t15 74 q0 76 -44 107q1 0 15.5 1.5t20.5 3t17 5t15.5 10t4.5 15.5q0 11 -22 11q-3 0 -52 0.5t-72.5 0t-60.5 -4t-59 -10.5q-58 -19 -92.5 -62t-34.5 -102q0 -70 44 -113t114 -42h6q0 -24 2 -35t5 -11.5t7.5 -5t8.5 -14.5q-55 0 -102.5 -12t-85.5 -48t-38 -91zM211 115q0 48 41 72 t92 24q46 0 85 -23.5t39 -66.5q0 -44 -43 -71t-90 -27t-85.5 24t-38.5 68zM255 518q0 35 15.5 60t48.5 25q43 0 68.5 -45.5t25.5 -91.5q0 -35 -15.5 -60t-48.5 -25q-43 0 -68.5 45.5t-25.5 91.5zM581 473h122v-121h60v121h121v60h-121v122h-60v-122h-122v-60z" />
<glyph unicode="h" horiz-adv-x="1185" d="M0 300l501 501v-319q110 -15 203.5 -45t159 -68t118.5 -82.5t86 -90.5t57 -90.5t35 -83.5t17.5 -69t6.5 -47l1 -17q-6 11 -19 29.5t-67.5 63t-124.5 76.5t-196.5 52t-276.5 7v-316z" />
<glyph unicode="i" horiz-adv-x="1550" d="M0 300l501 501v-182l-319 -319l319 -318v-181zM365 300l501 501v-319q110 -15 203.5 -45t159 -68t118.5 -82.5t86 -90.5t57 -90.5t35 -83.5t17.5 -69t7.5 -47v-17q-6 11 -19 29.5t-67.5 63t-124.5 76.5t-196.5 52t-276.5 7v-316z" />
<glyph unicode="j" horiz-adv-x="1185" d="M0 117v365h684v319l501 -501l-501 -499v316h-684z" />
<glyph unicode="k" d="M0 -112v824q0 36 26 62t62 26h824q36 0 62 -26t26 -62v-824q0 -36 -26 -62t-62 -26h-824q-36 0 -62 26t-26 62zM273 348l91 -3v-303q0 -39 14.5 -65t41 -37.5t50 -15t55.5 -3.5h45q50 0 81 3.5t42.5 7.5t26.5 12v128q-54 -35 -105 -35q-27 0 -49 13t-22 25v273h183 l-1 119h-184l2 181h-112q-3 -68 -37 -118q-3 -5 -9 -16t-11.5 -19t-10.5 -12q-19 -15 -76 -15h-15v-120z" />
<glyph unicode="l" d="M0 -112v824q0 36 26 62t62 26h824q36 0 62 -26t26 -62v-824q0 -36 -26 -62t-62 -26h-824q-36 0 -62 26t-26 62zM197 535q0 -28 18.5 -46.5t47.5 -18.5q32 0 51 18.5t18 46.5q0 28 -18.5 46.5t-48.5 18.5t-49 -18.5t-19 -46.5zM200 0h128v419h-128v-419zM402 419 q3 -114 3 -134v-285h128v241q0 21 4 33q20 49 66 49q65 0 65 -91v-232h129v247q0 89 -41 135t-107 46q-47 0 -79.5 -21t-48.5 -47h-2l-6 59h-111z" />
<glyph unicode="m" d="M0 -112v824q0 36 26 62t62 26h824q36 0 62 -26t26 -62v-824q0 -36 -26 -62t-62 -26h-824q-36 0 -62 26t-26 62zM80 449q5 -5 10.5 -14.5t12 -14t18.5 -4.5q11 0 33 7t34 7q26 0 43 -40q5 -13 12.5 -37.5t10.5 -32.5q14 -40 37 -130l6.5 -26l8 -32t9.5 -32.5t12.5 -35 t14 -31.5t17.5 -29.5t20.5 -22t25 -16.5t28.5 -5q67 0 145 65t138.5 156t105 182.5t55.5 149.5q3 18 3 34q0 93 -112 93q-74 0 -139 -53t-89 -126q20 3 38 1t32 -7t22 -19.5t8 -38.5q0 -43 -38 -119t-75 -76q-19 0 -36 19q-24 25 -38 94.5t-20 134.5t-31 117t-70 52 q-37 0 -80 -26t-104.5 -80.5t-67.5 -58.5v-5z" />
<glyph unicode="n" d="M89 136v213l150 -107zM331 14h669v-213h-669v213zM331 136v213h669v-213h-669zM331 470v213h669v-213h-669z" />
<glyph unicode="o" d="M89 242l150 107v-213zM331 14h669v-213h-669v213zM331 136v213h669v-213h-669zM331 470v213h669v-213h-669z" />
<glyph unicode="p" d="M87 -93q0 32 22.5 54.5t53.5 22.5t53.5 -22.5t22.5 -54.5q0 -31 -22.5 -53.5t-53.5 -22.5t-53.5 22.5t-22.5 53.5zM87 242q0 32 22.5 54t53.5 22t53.5 -22t22.5 -54t-22.5 -54t-53.5 -22t-53.5 22t-22.5 54zM87 577q0 31 22.5 53.5t53.5 22.5t53.5 -22.5t22.5 -53.5 t-22.5 -53.5t-53.5 -22.5t-53.5 22.5t-22.5 53.5zM331 14h669v-213h-669v213zM331 136v213h669v-213h-669zM331 470v213h669v-213h-669z" />
<glyph unicode="q" d="M91 -121h38q0 -37 32 -37q14 0 23 8t9 22t-10 21.5t-25 6.5h-9v27q40 -2 40 24q0 11 -7.5 17.5t-19.5 6.5q-29 0 -29 -33h-37q1 30 18.5 47t47.5 17q26 0 45 -13.5t19 -38.5q0 -13 -7.5 -24t-19.5 -14q34 -8 34 -44q0 -29 -21 -45.5t-50 -16.5q-32 0 -51.5 17.5 t-19.5 48.5v3zM91 142q1 28 17 48.5t34.5 30t34 23.5t15.5 30q0 12 -7.5 19.5t-20.5 7.5q-29 0 -31 -41h-37q0 34 18 54.5t52 20.5q28 0 46.5 -16t18.5 -43q0 -25 -16.5 -41t-40 -30.5t-33.5 -29.5h91v-33h-141zM108 595v29q49 0 56 38h32v-192h-42v125h-46zM331 14h669 v-213h-669v213zM331 136v213h669v-213h-669zM331 470v213h669v-213h-669z" />
<glyph unicode="r" d="M0 -112v824q0 36 26 62t62 26h824q36 0 62 -26t26 -62v-824q0 -36 -26 -62t-62 -26h-824q-36 0 -62 26t-26 62zM147 35q0 -36 26 -62t62 -26q37 0 63 26t26 62q0 37 -26 63t-63 26q-36 0 -62 -26t-26 -63zM147 278q136 0 233 -97q97 -95 97 -234h136q0 126 -62.5 233.5 t-170 170t-233.5 62.5v-135zM147 518q154 0 285.5 -76.5t208 -208t76.5 -286.5h136q0 143 -56 274t-150.5 225.5t-225.5 150.5t-274 56v-135z" />
<glyph unicode="s" d="M0 527q0 113 81.5 193t195.5 80q81 0 147 -42q38 7 81 7q129 0 238.5 -62.5t174 -170.5t64.5 -237q0 -56 -11 -101q29 -58 29 -121q0 -113 -81.5 -193t-195.5 -80q-69 0 -130 32q-46 -8 -88 -8q-196 0 -336.5 137.5t-140.5 333.5q0 42 10 94q-38 64 -38 138zM224 161 q0 -42 31 -85q72 -104 249 -104q50 0 97 11t89 33.5t67.5 63.5t25.5 95q0 50 -22 86.5t-57.5 56.5t-78.5 34t-86 22.5t-78.5 18t-57.5 25.5t-22 39q0 34 36.5 49.5t75.5 15.5q40 0 66.5 -12.5t38.5 -30t21.5 -35t25 -30t40.5 -12.5q28 0 48.5 19t20.5 46t-15 54 q-30 55 -96.5 80t-140.5 25q-46 0 -89.5 -9t-84.5 -28.5t-66 -56.5t-25 -87q0 -66 40.5 -106.5t98.5 -57t116.5 -28.5t99 -33.5t40.5 -58.5q0 -42 -42 -62.5t-90 -20.5q-45 0 -74 15t-41.5 36t-22.5 42.5t-26 36.5t-42 15q-28 0 -49 -17.5t-21 -44.5z" />
<glyph unicode="t" horiz-adv-x="1003" d="M0 122q75 -72 181 -72q113 0 191 83q-24 -4 -48 7.5t-24 34.5q0 27 41 45q-40 -5 -73 11t-51 51q22 25 69 28q-98 24 -112 102q27 8 53 8h8q-40 22 -65 55t-20 74q155 -59 257 -116q30 -17 76 -63q32 87 67.5 150.5t89.5 98.5q-1 -16 -15 -31q33 32 78 38q-3 -23 -53 -41 q7 2 25.5 9.5t33 11.5t25.5 4q15 0 15 -11q0 -8 -16.5 -16t-42.5 -15.5t-28 -8.5q81 8 141.5 -51.5t76.5 -142.5q18 -6 36 -6q50 0 83 19q-13 -30 -43.5 -47t-66.5 -19q34 -15 83 -15q16 0 31 3q-43 -48 -120 -46q-37 -152 -177.5 -244t-304.5 -92q-121 0 -225.5 53 t-175.5 151z" />
<glyph unicode="u" horiz-adv-x="963" d="M0 134h222v-333h-222v333zM370 -199v667h223v-667h-223zM741 -199v1000h222v-1000h-222z" />
<glyph unicode="v" d="M0 -112v824q0 36 26 62t62 26h824q36 0 62 -26t26 -62v-824q0 -36 -26 -62t-62 -26h-824q-36 0 -62 26t-26 62zM280 0h240q47 0 88 9.5t76 29.5t55.5 57.5t20.5 87.5q0 58 -32 95.5t-91 49.5v3q39 16 61 51t22 78q0 46 -19.5 75.5t-55.5 42.5t-68.5 17t-77.5 4h-219v-600 zM430 110v150h51h25.5t23 -1t24.5 -3.5t19 -8t18 -13t9.5 -19.5t4.5 -28q0 -12 -3 -22.5t-7 -18t-12.5 -13.5t-14.5 -10t-18 -6.5t-18.5 -4t-21 -2t-20 -0.5h-20.5h-18h-22zM430 363v127h39q18 0 27.5 -0.5t25.5 -3.5t24 -9t14.5 -18t6.5 -29q0 -20 -7 -33t-15.5 -20 t-26 -10t-27.5 -3.5t-31 -0.5h-30z" />
<glyph unicode="w" horiz-adv-x="582" d="M0 32v356q0 33 32 33h389v194q0 51 -37 74t-91 23q-53 0 -92 -25.5t-39 -76.5v-125h-97v128h1q9 87 74 140.5t153 53.5t151 -63t71 -151h1l2 -172q4 0 14.5 0.5t15 0t13 -2t12 -5t6.5 -10t3 -16.5v-356q0 -32 -32 -32h-518q-32 0 -32 32z" />
<glyph unicode="x" horiz-adv-x="582" d="M0 32v356q0 10 3 16.5t7 10t12 5t13 2t15.5 0t14.5 -0.5v127h1q9 87 74 140.5t153 53.5t151 -62.5t71 -151.5h1l2 -107q4 0 14.5 0.5t15 0t13 -2t12 -5t6.5 -10t3 -16.5v-356q0 -32 -32 -32h-518q-32 0 -32 32zM162 421h259v129q0 51 -37 74t-91 23q-53 0 -92 -25.5 t-39 -76.5v-124z" />
<glyph unicode="y" d="M74 62q0 49 6 145q4 50 38.5 79.5t84.5 31.5q98 5 297 5t297 -5q50 -2 84.5 -31.5t38.5 -79.5q6 -96 6 -145t-6 -145q-4 -50 -38.5 -79.5t-84.5 -31.5q-99 -5 -297 -5q-199 0 -297 5q-50 2 -84.5 31.5t-38.5 79.5q-6 96 -6 145zM140 192h60v-293h58v293h61v50h-179v-50z M147 801h73l46 -169h5l44 169h73l-55 -165q-4 -12 -10 -27.5t-10.5 -28t-7.5 -27.5v-176h-72v168q-2 12 -29 85zM318 -61q0 -44 36 -44q30 0 60 32v-28h51v253h-51v-192q-17 -19 -31 -19q-13 0 -13 17v194h-52v-213zM385 456v162q0 39 27.5 59.5t67.5 20.5q38 0 64 -22 t26 -59v-162q0 -42 -25 -64t-68 -22q-41 0 -66.5 23.5t-25.5 63.5zM451 450q0 -26 26 -26q28 0 28 26v171q0 10 -9 16.5t-19 6.5t-18 -6.5t-8 -16.5v-171zM516 -101h52v20q22 -23 49 -23q47 0 47 56v140q0 63 -50 63q-25 0 -46 -23v110h-52v-343zM568 -53v158q10 10 22 10 q21 0 21 -25v-133q0 -21 -18 -21q-14 0 -25 11zM624 429v261h64v-240q0 -21 17 -21t38 24v237h64v-313h-64v35q-37 -39 -74 -39q-45 0 -45 56zM703 -29q0 -36 19.5 -57.5t55.5 -21.5q77 0 77 79v19h-53q0 -2 0.5 -13t0 -15.5t-2.5 -11.5t-7 -10t-14 -3q-10 0 -15.5 6t-6 12 t-0.5 17v48h98v64q0 35 -19 55t-54 20q-34 0 -56.5 -20.5t-22.5 -54.5v-113zM757 59v28q0 27 23 27q22 0 22 -27v-28h-45z" />
<glyph unicode="z" d="M0 -191v565l426 426h9l565 -565v-9l-426 -426h-565zM287 97l10 -10h555l9 10v268l-9 9h-268l-10 10v277h-277l-10 -9v-555z" />
<glyph unicode="{" horiz-adv-x="471" d="M0 418h471l-236 -236z" />
<glyph unicode="}" horiz-adv-x="471" d="M0 182l235 236l236 -236h-471z" />
<glyph unicode="~" d="M0 301q0 136 67 251t182 182t251 67t251 -67t182 -182t67 -251t-67 -251t-182 -182t-251 -67t-251 67t-182 182t-67 251zM191 360h103v-294h118v294h103l-162 265zM485 243l162 -236l162 236h-103v293h-118v-293h-103z" />
<glyph unicode="&#xad;" d="M0 300q0 136 67 251t182 182t251 67t251 -67t182 -182t67 -251t-67 -251t-182 -182t-251 -67t-251 67t-182 182t-67 251zM206 242h589v118h-589v-118z" />
<glyph unicode="&#xb2;" d="M0 -39h1000v-160h-1000v160zM0 81v160h1000v-160h-1000zM0 361v160h1000v-160h-1000zM0 641v160h1000v-160h-1000z" />
<glyph unicode="&#xb3;" d="M0 -199v440h440v-440h-440zM0 361v440h440v-440h-440zM120 -79h200v200h-200v-200zM120 481h200v200h-200v-200zM560 -39h440v-160h-440v160zM560 81v160h440v-160h-440zM560 361v160h440v-160h-440zM560 641v160h440v-160h-440z" />
<glyph unicode="&#xb9;" d="M0 -199v440h440v-440h-440zM0 361v440h440v-440h-440zM120 -79h200v200h-200v-200zM120 481h200v200h-200v-200zM560 -199v440h440v-440h-440zM560 361v440h440v-440h-440zM680 -79h200v200h-200v-200zM680 481h200v200h-200v-200z" />
<glyph unicode="&#xd7;" d="M0 300q0 136 67 251t182 182t251 67t251 -67t182 -182t67 -251t-67 -251t-182 -182t-251 -67t-251 67t-182 182t-67 251zM268 139l71 -71l161 161l161 -161l71 71l-161 161l161 161l-71 71l-161 -161l-161 161l-71 -71l161 -161z" />
<glyph unicode="&#x2000;" horiz-adv-x="434" />
<glyph unicode="&#x2001;" horiz-adv-x="869" />
<glyph unicode="&#x2002;" horiz-adv-x="434" />
<glyph unicode="&#x2003;" horiz-adv-x="869" />
<glyph unicode="&#x2004;" horiz-adv-x="289" />
<glyph unicode="&#x2005;" horiz-adv-x="217" />
<glyph unicode="&#x2006;" horiz-adv-x="144" />
<glyph unicode="&#x2007;" horiz-adv-x="144" />
<glyph unicode="&#x2008;" horiz-adv-x="108" />
<glyph unicode="&#x2009;" horiz-adv-x="173" />
<glyph unicode="&#x200a;" horiz-adv-x="48" />
<glyph unicode="&#x2010;" d="M0 300q0 136 67 251t182 182t251 67t251 -67t182 -182t67 -251t-67 -251t-182 -182t-251 -67t-251 67t-182 182t-67 251zM206 242h589v118h-589v-118z" />
<glyph unicode="&#x2011;" d="M0 300q0 136 67 251t182 182t251 67t251 -67t182 -182t67 -251t-67 -251t-182 -182t-251 -67t-251 67t-182 182t-67 251zM206 242h589v118h-589v-118z" />
<glyph unicode="&#x2012;" d="M0 300q0 136 67 251t182 182t251 67t251 -67t182 -182t67 -251t-67 -251t-182 -182t-251 -67t-251 67t-182 182t-67 251zM206 242h589v118h-589v-118z" />
<glyph unicode="&#x2013;" horiz-adv-x="500" d="M0 300q0 136 33.5 251t91 182t125.5 67t125.5 -67t91 -182t33.5 -251t-33.5 -251t-91 -182t-125.5 -67t-125.5 67t-91 182t-33.5 251zM103 242h295v118h-295v-118z" />
<glyph unicode="&#x2014;" d="M0 300q0 136 67 251t182 182t251 67t251 -67t182 -182t67 -251t-67 -251t-182 -182t-251 -67t-251 67t-182 182t-67 251zM206 242h589v118h-589v-118z" />
<glyph unicode="&#x202f;" horiz-adv-x="173" />
<glyph unicode="&#x205f;" horiz-adv-x="217" />
<glyph unicode="&#xe000;" horiz-adv-x="740" d="M0 0v740h740v-740h-740z" />
</font>
</defs>
</svg>
