<?xml version="1.0" standalone="no"?>
<!DOCTYPE svg PUBLIC "-//W3C//DTD SVG 1.1//EN" "http://www.w3.org/Graphics/SVG/1.1/DTD/svg11.dtd" >
<svg xmlns="http://www.w3.org/2000/svg">
<metadata></metadata>
<defs>
<font id="amaranthregular" horiz-adv-x="544" >
<font-face units-per-em="1000" ascent="750" descent="-250" />
<missing-glyph horiz-adv-x="255" />
<glyph horiz-adv-x="1000" />
<glyph horiz-adv-x="1000" />
<glyph unicode="&#xd;" horiz-adv-x="1000" />
<glyph unicode=" "  horiz-adv-x="255" />
<glyph unicode="&#x09;" horiz-adv-x="255" />
<glyph unicode="&#xa0;" horiz-adv-x="255" />
<glyph unicode="!" horiz-adv-x="340" d="M77 77q0 40 24 66t66 26q41 0 64 -24.5t23 -63.5q0 -40 -23.5 -65.5t-65.5 -25.5q-41 0 -64.5 25t-23.5 62zM97 220v457h174l-29 -457h-145z" />
<glyph unicode="&#x22;" horiz-adv-x="410" d="M42 677h133l-11 -257h-111zM235 677h133l-11 -257h-111z" />
<glyph unicode="#" horiz-adv-x="603" d="M32 135l13 102h89l17 133h-96l13 102h96l15 121h103l-16 -121h101l15 121h103l-16 -121h92l-13 -102h-92l-17 -133h99l-13 -102h-99l-17 -135h-103l18 135h-101l-17 -135h-103l18 135h-89zM236 237h101l17 133h-101z" />
<glyph unicode="$" horiz-adv-x="559" d="M42 81l54 117q32 -21 81.5 -44.5t85.5 -23.5t54 15.5t18 39.5q0 26 -20.5 40.5t-72.5 33.5q-89 34 -132.5 79.5t-43.5 117.5q0 58 41 99.5t106 56.5v82h127v-80q97 -14 164 -59l-56 -108q-95 53 -151 53q-60 0 -60 -39q0 -23 25.5 -40.5t91.5 -42.5q80 -31 116 -74.5 t36 -110.5q0 -63 -44 -113.5t-122 -64.5v-98h-127v99q-87 14 -171 65z" />
<glyph unicode="%" horiz-adv-x="944" d="M32 408q0 80 47.5 133.5t130.5 53.5q85 0 128.5 -48t43.5 -131q0 -81 -47.5 -134t-130.5 -53q-84 0 -128 48.5t-44 130.5zM170 416q0 -52 8.5 -78t31.5 -26q20 0 27 24.5t7 73.5q0 52 -8 77t-32 25q-20 0 -27 -23.5t-7 -72.5zM266 -8l281 602h133l-282 -602h-132z M562 171q0 80 47.5 133.5t130.5 53.5q85 0 128.5 -48t43.5 -131q0 -81 -47.5 -134t-130.5 -53q-84 0 -128 48.5t-44 130.5zM700 179q0 -52 8 -78t32 -26q20 0 27 24t7 74q0 52 -8 77t-32 25q-20 0 -27 -23.5t-7 -72.5z" />
<glyph unicode="&#x26;" horiz-adv-x="603" d="M35 172q0 115 110 188q-24 45 -24 88q0 68 47.5 111t134.5 43q112 0 180 -72l-81 -88q-47 45 -79 45q-38 0 -38 -39q0 -43 34.5 -88t104.5 -106q18 34 29 64l116 -46q-30 -67 -50 -99l86 -74l-79 -104l-90 74q-83 -75 -197 -75q-90 0 -147 50t-57 128zM190 189 q0 -32 20.5 -51.5t58.5 -19.5q37 0 73 28q-84 70 -127 118q-25 -32 -25 -75z" />
<glyph unicode="'" horiz-adv-x="233" d="M50 677h133l-11 -257h-111z" />
<glyph unicode="(" horiz-adv-x="385" d="M62 269q0 91 22 171.5t57 136t67.5 91.5t64.5 58l83 -92q-135 -140 -135 -366q0 -230 135 -367l-83 -92q-32 23 -64.5 58.5t-67.5 91t-57 137t-22 173.5z" />
<glyph unicode=")" horiz-adv-x="385" d="M36 -99q136 138 136 367q0 225 -136 366l83 92q32 -22 64.5 -58t67.5 -91.5t57 -136t22 -171.5q0 -92 -22 -173.5t-57 -137t-67.5 -91t-64.5 -58.5z" />
<glyph unicode="*" horiz-adv-x="477" d="M42 491l43 125l99 -46l-12 107h133l-13 -107l100 46l43 -125l-110 -24l76 -82l-109 -79l-54 94l-53 -94l-109 79l76 82z" />
<glyph unicode="+" horiz-adv-x="505" d="M52 242v116h139v140h122v-140h140v-116h-140v-146h-122v146h-139z" />
<glyph unicode="," horiz-adv-x="299" d="M32 -96q61 44 61 113q0 24 -10 60.5t-10 39.5q24 24 90 24q83 0 83 -91q0 -67 -38.5 -126t-117.5 -99z" />
<glyph unicode="-" horiz-adv-x="375" d="M42 261v111h291v-111h-291z" />
<glyph unicode="." horiz-adv-x="282" d="M52 77q0 40 24 66t66 26q41 0 64 -24.5t23 -63.5q0 -40 -23.5 -65.5t-65.5 -25.5q-41 0 -64.5 25t-23.5 62z" />
<glyph unicode="/" horiz-adv-x="447" d="M-18 -126l318 855h165l-318 -855h-165z" />
<glyph unicode="0" horiz-adv-x="594" d="M37 309q0 153 70 244.5t197 91.5q123 0 187.5 -84t64.5 -236q0 -153 -69 -243.5t-196 -90.5q-123 0 -188.5 82.5t-65.5 235.5zM207 320q0 -109 20.5 -164t75.5 -55q44 0 63 52t19 160q0 110 -20 165.5t-74 55.5q-45 0 -64.5 -52.5t-19.5 -161.5z" />
<glyph unicode="1" horiz-adv-x="421" d="M0 507q137 58 207 133h122v-640h-158v468q-56 -43 -116 -63z" />
<glyph unicode="2" horiz-adv-x="505" d="M9 42q17 24 68 94t74 103q75 80 105 126.5t30 84.5q0 27 -16 45t-43 18q-38 0 -141 -48l-58 117q136 63 228 63q90 0 144.5 -44t54.5 -137q0 -63 -33.5 -126.5t-106.5 -139.5l-60 -63h217v-135h-445z" />
<glyph unicode="3" horiz-adv-x="511" d="M27 49l52 121q96 -48 144 -48q33 0 57.5 23.5t24.5 62.5q0 30 -22 48.5t-50 18.5q-10 0 -25.5 -2t-27 -4.5t-22.5 -5t-12 -2.5l-46 112q42 12 66.5 20.5t53 21.5t42 27.5t13.5 32.5q0 38 -42 38q-31 0 -60 -10.5t-76 -35.5l-58 118q120 60 215 60q86 0 138.5 -39.5 t52.5 -110.5q0 -93 -89 -137q56 -16 87 -59t31 -97q0 -87 -57 -149t-178 -62q-86 0 -212 58z" />
<glyph unicode="4" horiz-adv-x="528" d="M12 152v88l167 400h158l-149 -357h83v140l158 27v-167h91l-23 -131h-68v-152h-158v152h-259z" />
<glyph unicode="5" horiz-adv-x="523" d="M37 49l52 121q99 -48 145 -48q35 0 56.5 23t21.5 66q0 33 -22.5 50.5t-61.5 17.5q-48 0 -97 -20l-70 52l36 329h361l-24 -135h-201l-14 -103q38 9 70 9q94 0 144 -60t50 -147t-56 -150t-174 -63q-90 0 -216 58z" />
<glyph unicode="6" horiz-adv-x="547" d="M37 318q0 137 76 231.5t214 94.5q83 0 143 -29l-42 -111q-64 20 -106 20q-100 0 -113 -155q56 44 118 44q86 0 139.5 -53t53.5 -155q0 -94 -65.5 -154t-175.5 -60q-120 0 -181 89t-61 238zM208 269q4 -90 23.5 -130t57.5 -40q35 0 52 30t17 75q0 100 -73 100 q-39 0 -77 -35z" />
<glyph unicode="7" horiz-adv-x="469" d="M1 637h441v-90l-195 -547h-168l179 502h-233z" />
<glyph unicode="8" horiz-adv-x="555" d="M42 167q0 98 124 173q-104 53 -104 143q0 78 68 120t152 42q83 0 144.5 -41t61.5 -117q0 -84 -98 -142q60 -32 91 -77t31 -95q0 -87 -69 -134.5t-166 -47.5q-95 0 -165 45.5t-70 130.5zM210 161q0 -30 20 -48t52 -18q27 0 43.5 18.5t16.5 45.5q0 52 -64 105 q-68 -45 -68 -103zM223 492q0 -50 55 -84q48 33 48 84q0 25 -15 37t-35 12t-36.5 -11.5t-16.5 -37.5z" />
<glyph unicode="9" horiz-adv-x="546" d="M27 433q0 93 65.5 152t175.5 59q121 0 181.5 -88t60.5 -236q0 -137 -76 -233t-214 -96q-80 0 -143 29l42 112q61 -21 107 -21q98 0 112 157q-55 -43 -118 -43q-86 0 -139.5 53t-53.5 155zM189 434q0 -100 73 -100q35 0 77 34q-4 90 -23.5 129t-57.5 39q-35 0 -52 -28.5 t-17 -73.5z" />
<glyph unicode=":" horiz-adv-x="302" d="M67 77q0 40 24 66t66 26q41 0 64 -24.5t23 -63.5q0 -40 -23.5 -65.5t-65.5 -25.5q-41 0 -64.5 25t-23.5 62zM67 420q0 40 24 66t66 26q41 0 64 -24.5t23 -63.5q0 -40 -23.5 -66t-65.5 -26q-41 0 -64.5 25.5t-23.5 62.5z" />
<glyph unicode=";" horiz-adv-x="309" d="M30 -96q61 44 61 113q0 24 -10 60.5t-10 39.5q24 24 90 24q83 0 83 -91q0 -67 -38.5 -126t-117.5 -99zM59 420q0 40 23.5 66t65.5 26q41 0 64.5 -24.5t23.5 -63.5q0 -40 -24 -66t-66 -26q-41 0 -64 25t-23 63z" />
<glyph unicode="&#x3c;" horiz-adv-x="448" d="M22 241v119l339 165l53 -123l-151 -69q-55 -26 -80 -32q47 -17 80 -32l153 -72l-53 -122z" />
<glyph unicode="=" horiz-adv-x="495" d="M62 155v116h371v-116h-371zM62 329v116h371v-116h-371z" />
<glyph unicode="&#x3e;" horiz-adv-x="448" d="M32 197l153 72q52 23 78 32q-31 8 -78 32l-151 69l53 123l339 -165v-119l-341 -166z" />
<glyph unicode="?" horiz-adv-x="451" d="M29 637q110 50 203 50q89 0 139.5 -38.5t50.5 -110.5q0 -36 -19 -77.5t-37 -65.5t-52 -66q-63 -78 -81 -131l-123 33q0 45 21 91.5t46.5 77.5t46.5 65t21 58q0 20 -14.5 36t-37.5 16q-24 0 -44.5 -7.5t-70.5 -30.5zM85 77q0 40 23.5 66t65.5 26q41 0 64 -24.5t23 -63.5 q0 -40 -23.5 -65.5t-65.5 -25.5q-40 0 -63.5 25t-23.5 62z" />
<glyph unicode="@" horiz-adv-x="957" d="M44 199q0 110 38 199.5t104.5 147t153.5 88.5t187 31q168 0 277.5 -101t109.5 -280q0 -119 -58.5 -204.5t-142.5 -85.5q-114 0 -152 101q-37 -101 -133 -101q-90 0 -135 61.5t-45 170.5t65.5 179t169.5 70q34 0 79 -6.5t76 -13t32 -6.5v-232q0 -109 45 -109q34 0 57 54.5 t23 115.5q0 133 -76 203.5t-203 70.5q-154 0 -253.5 -90t-99.5 -259q0 -60 14 -109t44 -90t83.5 -63.5t126.5 -22.5q51 0 110 13.5t85 24.5l37 -97q-25 -14 -97 -34t-142 -20q-74 0 -138.5 19.5t-120.5 63t-88.5 123t-32.5 188.5zM406 237q0 -65 8.5 -99.5t37.5 -34.5 t49 43.5t20 103.5v108q-32 8 -40 8q-75 0 -75 -129z" />
<glyph unicode="A" horiz-adv-x="649" d="M-1 0l257 677h147l248 -677h-167l-50 163h-219l-52 -163h-164zM253 285h144q-32 93 -72 223q-32 -110 -72 -223z" />
<glyph unicode="B" horiz-adv-x="574" d="M62 0v677q10 0 97.5 1t110.5 1q124 0 190 -47t66 -129q0 -107 -128 -150q148 -43 148 -164q0 -190 -287 -190q-20 0 -102 0.5t-95 0.5zM227 108h49q96 0 96 85q0 42 -24 69.5t-77 27.5q-26 0 -44 -2v-180zM227 393h46q35 0 57.5 20.5t22.5 67.5q0 89 -84 89q-34 0 -42 -1 v-176z" />
<glyph unicode="C" horiz-adv-x="549" d="M39 330q0 162 77 259t225 97q73 0 117.5 -22t78.5 -61l-90 -91q-47 57 -106 57q-124 0 -124 -228q0 -110 31.5 -170t106.5 -60q61 0 130 28l36 -112q-80 -33 -186 -33q-296 0 -296 336z" />
<glyph unicode="D" horiz-adv-x="647" d="M62 0v677q3 0 91 1t132 0q163 0 244.5 -93t81.5 -252q0 -160 -81.5 -247.5t-247.5 -87.5q-35 0 -101.5 1t-118.5 1zM227 115q17 -1 51 -1q84 0 119.5 55.5t35.5 161.5q0 232 -155 232q-11 0 -26 -0.5t-25 -0.5v-447z" />
<glyph unicode="E" horiz-adv-x="524" d="M62 0v677h431v-121h-266v-145h221l-19 -119h-202v-171h280v-121h-445z" />
<glyph unicode="F" horiz-adv-x="501" d="M62 0v677h431v-120h-266v-155h223l-20 -119h-203v-283h-165z" />
<glyph unicode="G" horiz-adv-x="611" d="M35 330q0 162 78 259t232 97q60 0 114.5 -23t89.5 -66l-77 -94q-68 66 -127 66q-132 0 -132 -229q0 -107 25 -168t75 -61q38 0 67.5 52.5t29.5 111.5v75h158v-319q0 -47 -12 -85t-28.5 -62.5t-45.5 -46t-52 -33.5t-58 -27l-60 104q64 35 89 76t25 108v7q-43 -79 -148 -79 q-117 0 -180 89t-63 248z" />
<glyph unicode="H" horiz-adv-x="688" d="M62 0v677h165v-265h234v265h164v-677h-164v290h-234v-290h-165z" />
<glyph unicode="I" horiz-adv-x="289" d="M62 0v677h165v-677h-165z" />
<glyph unicode="J" horiz-adv-x="285" d="M-43 -112q36 19 58 38.5t30.5 41t10.5 35.5t2 38v636h164v-634q0 -103 -50 -161t-148 -105z" />
<glyph unicode="K" horiz-adv-x="638" d="M62 0v677h165v-677h-165zM238 371v12q83 40 122 107.5t66 186.5h164q-26 -131 -68 -202t-104 -119l234 -356h-184z" />
<glyph unicode="L" horiz-adv-x="458" d="M62 0v677h165v-556h238v-121h-403z" />
<glyph unicode="M" horiz-adv-x="860" d="M52 0l40 677h142l156 -390q23 -63 41 -121q21 68 42 121l156 390h139l40 -677h-155l-6 136q-3 85 -1 244q-34 -96 -70 -179l-85 -201h-125l-83 192q-31 76 -72 188q0 -195 -2 -244l-5 -136h-152z" />
<glyph unicode="N" horiz-adv-x="689" d="M62 0v677h135l195 -290q16 -25 81 -130q0 3 -3.5 69.5t-4.5 91.5l-3 259h165v-677h-141l-193 292q-8 11 -22.5 35t-32.5 53t-23 38q9 -123 9 -158l3 -260h-165z" />
<glyph unicode="O" horiz-adv-x="693" d="M37 330q0 163 80.5 259.5t235.5 96.5q153 0 227.5 -89.5t74.5 -252.5q0 -161 -80 -255.5t-235 -94.5q-303 0 -303 336zM215 341q0 -111 31 -170.5t108 -59.5q123 0 123 223q0 111 -31 173t-107 62q-124 0 -124 -228z" />
<glyph unicode="P" d="M62 0v677q6 0 92 1t116 1q126 0 191 -54t65 -152q0 -105 -71 -159.5t-198 -54.5h-30v-259h-165zM227 368h42q36 0 60 25t24 72q0 45 -22 74.5t-67 30.5q-21 0 -37 -2v-200z" />
<glyph unicode="Q" horiz-adv-x="704" d="M35 335q0 155 85 253t234 98q148 0 227 -91t79 -252q0 -165 -68 -274t-178 -146q28 -14 61 -14q28 0 59.5 9t50 17.5t57.5 27.5l54 -110q-100 -67 -208 -67q-68 0 -147.5 30.5t-148.5 92.5l29 89q19 -4 48 -4q98 0 155 89.5t57 248.5q0 237 -141 237q-63 0 -95 -59.5 t-32 -165.5q0 -91 19.5 -132t64.5 -57l-16 -108q-119 7 -182.5 88.5t-63.5 199.5z" />
<glyph unicode="R" horiz-adv-x="599" d="M62 0v677q9 0 96 1t112 1q256 0 256 -194q0 -119 -115 -170q13 -7 24.5 -16.5t23 -23.5t20 -24.5t20 -32t18.5 -34t19.5 -41t18.5 -42.5t21 -49.5t22 -51.5h-177q-16 34 -33 74.5t-27.5 65t-23 51.5t-22 42.5t-21 29t-23.5 19t-27 5.5h-17v-287h-165zM227 390h42 q37 0 60.5 22.5t23.5 66.5q0 92 -89 92h-37v-181z" />
<glyph unicode="S" horiz-adv-x="526" d="M22 66l54 118q15 -10 39 -24t62 -29.5t62 -15.5q81 0 81 75q0 33 -22 52t-72 39q-94 39 -139 86.5t-45 124.5q0 86 66 140t159 54q66 0 126 -19t99 -46l-58 -110q-100 55 -145 55q-33 0 -51 -14t-18 -37q2 -33 28 -55.5t91 -49.5q84 -35 121.5 -78t37.5 -117 q0 -95 -65.5 -158t-172.5 -63q-119 0 -238 72z" />
<glyph unicode="T" horiz-adv-x="507" d="M2 556v121h503l-21 -121h-156v-556h-165v556h-161z" />
<glyph unicode="U" horiz-adv-x="668" d="M52 265v412h164v-403q0 -153 124 -153q54 0 82.5 39t28.5 114v403h165v-412q0 -118 -70 -194.5t-219 -76.5q-74 0 -128.5 22t-86 60.5t-46 85.5t-14.5 103z" />
<glyph unicode="V" horiz-adv-x="642" d="M-2 677h174l90 -270q32 -96 60 -206q26 102 62 205l92 271h168l-253 -677h-140z" />
<glyph unicode="W" horiz-adv-x="912" d="M6 677h164l64 -254q18 -71 37 -189q33 148 45 188l76 255h134l78 -257q10 -33 18 -67.5t15.5 -71.5t10.5 -51q13 102 35 191l63 256h166l-188 -677h-133l-97 309q-11 34 -23.5 92.5t-13.5 61.5q-1 -6 -7.5 -38.5t-13.5 -64.5t-14 -54l-95 -306h-133z" />
<glyph unicode="X" horiz-adv-x="635" d="M0 0l210 355l-190 322h180l95 -171q2 -3 9.5 -18t12.5 -24q4 7 11.5 21t11.5 20l96 172h180l-191 -323l210 -354h-182l-112 200q-3 4 -7 11t-9 16.5t-8 15.5q-26 -49 -77 -140t-58 -103h-182z" />
<glyph unicode="Y" horiz-adv-x="589" d="M0 677h174l120 -259l123 259h172l-216 -426v-251h-164v260z" />
<glyph unicode="Z" horiz-adv-x="548" d="M33 677h474v-113l-270 -429q42 2 68 2h215v-137h-484v112l274 430q-50 -2 -79 -2h-173z" />
<glyph unicode="[" horiz-adv-x="401" d="M72 -186v906h288v-105h-127v-696h127v-105h-288z" />
<glyph unicode="\" horiz-adv-x="447" d="M-18 729h165l318 -855h-165z" />
<glyph unicode="]" horiz-adv-x="401" d="M41 -81h128v696h-128v105h288v-906h-288v105z" />
<glyph unicode="^" horiz-adv-x="563" d="M42 310l179 367h120l179 -367l-137 -24l-70 152q-15 31 -32 80q-15 -44 -32 -80l-70 -153z" />
<glyph unicode="_" horiz-adv-x="500" d="M0 -52h500v-111h-500v111z" />
<glyph unicode="`" horiz-adv-x="492" d="M26 743l104 99l183 -214l-67 -71q-1 1 -14.5 9.5t-29 19t-39 28.5t-45.5 36.5t-47 43t-45 49.5z" />
<glyph unicode="a" d="M27 243q0 116 70 191t181 75q23 0 52 -3t53.5 -7.5t46 -8.5t34.5 -7l13 -3v-239q0 -44 5.5 -82t13.5 -60.5t16.5 -38.5t13.5 -22l6 -6l-127 -40q-36 34 -48 100q-35 -98 -137 -98q-96 0 -144.5 66.5t-48.5 182.5zM195 253q0 -70 9.5 -106.5t41.5 -36.5q30 0 51.5 47.5 t21.5 111.5v116q-18 8 -41 8q-83 0 -83 -140z" />
<glyph unicode="b" horiz-adv-x="534" d="M57 23v675l158 27v-266q39 50 104 50q92 0 140 -67t48 -183q0 -115 -70 -190t-181 -75q-37 0 -85 6.5t-77 13t-37 9.5zM215 117q28 -7 41 -7q83 0 83 139q0 71 -9.5 107.5t-41.5 36.5q-31 0 -52 -50t-21 -119v-107z" />
<glyph unicode="c" horiz-adv-x="419" d="M27 237q0 131 67.5 203t175.5 72q94 0 146 -71l-78 -81q-29 34 -58 34q-85 0 -85 -140q0 -144 99 -144q24 0 84 20l29 -105q-2 -2 -18.5 -9.5t-53.5 -16t-77 -8.5q-118 0 -174.5 65.5t-56.5 180.5z" />
<glyph unicode="d" d="M27 243q0 116 70 191t181 75q5 0 12 -0.5t15.5 -1.5t13.5 -1v218l158 -26v-457q0 -44 6 -82t13 -59.5t16.5 -39t13 -21.5t6.5 -7l-127 -40q-36 36 -48 100q-35 -98 -137 -98q-96 0 -144.5 66.5t-48.5 182.5zM195 253q0 -70 9.5 -106.5t41.5 -36.5q30 0 51.5 47.5 t21.5 111.5v116q-18 8 -41 8q-83 0 -83 -140z" />
<glyph unicode="e" horiz-adv-x="479" d="M27 237q0 130 71.5 202.5t182.5 72.5q89 0 132 -41t43 -110q0 -74 -70 -125t-188 -61q15 -67 82 -67q26 0 61.5 8t58.5 16l22 8l30 -104q-91 -45 -197 -45q-117 0 -172.5 65t-55.5 181zM190 276q54 1 81.5 26.5t27.5 54.5q0 19 -10.5 30.5t-27.5 11.5q-35 0 -52 -36.5 t-19 -86.5z" />
<glyph unicode="f" horiz-adv-x="369" d="M-8 -106q101 53 101 120v368h-77v120h77q-13 32 -13 65q0 72 49 113.5t129 41.5q88 0 144 -63l-76 -80q-17 25 -43 25q-23 0 -39 -16t-16 -44q0 -23 4 -42h128l-20 -120h-89v-365q0 -37 -7 -67.5t-23.5 -54.5t-30.5 -40t-41 -32.5t-41 -24t-44 -21.5z" />
<glyph unicode="g" horiz-adv-x="539" d="M27 243q0 116 70 191t181 75q92 0 202 -29l-4 -249q-1 -43 17.5 -114t18.5 -114q0 -103 -59.5 -160.5t-161.5 -57.5q-93 0 -193 42l37 122q93 -32 146 -32q40 0 64.5 23.5t24.5 65.5q0 46 -14 82q-37 -94 -136 -94q-96 0 -144.5 66.5t-48.5 182.5zM195 253 q0 -70 9.5 -106.5t41.5 -36.5q31 0 52 49.5t21 116.5v109q-18 8 -41 8q-83 0 -83 -140z" />
<glyph unicode="h" horiz-adv-x="542" d="M57 0v698l158 27v-261q51 45 131 45q144 0 144 -174v-335h-159v312q0 78 -40 78q-28 0 -52 -35.5t-24 -90.5v-264h-158z" />
<glyph unicode="i" horiz-adv-x="285" d="M42 650q0 41 23.5 67t67.5 26q40 0 63 -24.5t23 -63.5q0 -40 -23.5 -65.5t-66.5 -25.5q-41 0 -64 24.5t-23 61.5zM52 109v393h158v-348q0 -22 6.5 -30.5t21.5 -8.5q14 0 26 4l14 -99q-2 -2 -14 -7t-36.5 -11t-48.5 -6q-57 0 -92 30.5t-35 82.5z" />
<glyph unicode="j" horiz-adv-x="273" d="M-40 -115q60 33 80 69.5t20 86.5v461h157v-459q0 -103 -48 -161.5t-143 -104.5zM50 650q0 41 23.5 67t66.5 26q41 0 64 -24.5t23 -63.5q0 -40 -23.5 -65.5t-66.5 -25.5q-41 0 -64 24.5t-23 61.5z" />
<glyph unicode="k" horiz-adv-x="537" d="M57 0v698l158 27v-262q50 46 131 46q64 0 105.5 -36t41.5 -97q0 -53 -26.5 -91t-52.5 -50l-26 -12l140 -223h-180q-90 152 -108 250l-1 15q10 2 23.5 6.5t31.5 13t30 24.5t12 36q0 23 -11.5 35.5t-29.5 12.5q-40 0 -60 -31t-20 -52v-310h-158z" />
<glyph unicode="l" horiz-adv-x="321" d="M52 124v574l158 27v-567q0 -24 9 -33.5t31 -9.5q19 0 49 6l15 -99q-58 -26 -130 -26q-66 0 -99 35.5t-33 92.5z" />
<glyph unicode="m" horiz-adv-x="798" d="M17 469l127 40q31 -32 46 -91q47 91 161 91q82 0 116 -68q50 68 142 68q74 0 105 -45t31 -129v-335h-158v312q0 39 -6.5 58.5t-26.5 19.5q-25 0 -45.5 -35.5t-20.5 -90.5v-264h-159v312q0 40 -6.5 59t-26.5 19q-26 0 -46 -36.5t-20 -94.5v-259h-158v260q0 70 -14 122.5 t-28 69.5z" />
<glyph unicode="n" horiz-adv-x="557" d="M17 469l127 40q32 -32 46 -91q51 91 171 91q144 0 144 -174v-335h-159v312q0 78 -40 78q-30 0 -53 -38.5t-23 -100.5v-251h-158v260q0 70 -14 122.5t-28 69.5z" />
<glyph unicode="o" horiz-adv-x="520" d="M27 245q0 119 61 193t176 74q228 0 228 -256q0 -118 -61 -192t-175 -74q-229 0 -229 255zM195 256q0 -147 70 -147q60 0 60 137q0 147 -70 147q-60 0 -60 -137z" />
<glyph unicode="p" horiz-adv-x="549" d="M17 469l127 40q5 -4 12 -12.5t20.5 -38.5t17.5 -63q38 114 140 114q92 0 140 -67t48 -183q0 -112 -69 -188.5t-171 -76.5q-28 0 -52 6v-194l-158 -27v481q0 70 -14 122.5t-28 69.5zM230 117q32 -7 41 -7q83 0 83 139q0 71 -9.5 107.5t-41.5 36.5q-30 0 -51.5 -45 t-21.5 -106v-125z" />
<glyph unicode="q" horiz-adv-x="534" d="M27 243q0 116 70 191t181 75q37 0 86.5 -7.5t81.5 -14.5l31 -7v-701l-158 27v237q-40 -49 -104 -49q-92 0 -140 66.5t-48 182.5zM195 253q0 -70 9.5 -106.5t41.5 -36.5q31 0 52 50t21 118v107q-18 8 -41 8q-83 0 -83 -140z" />
<glyph unicode="r" horiz-adv-x="398" d="M17 469l127 40q31 -31 45 -90q46 90 141 90q32 0 65 -11l-41 -151q-20 11 -47 11q-26 0 -51.5 -27t-25.5 -76v-255h-158v260q0 70 -14 122.5t-28 69.5z" />
<glyph unicode="s" horiz-adv-x="423" d="M17 36l52 115q2 -1 12.5 -6.5t21.5 -10.5t25.5 -11t29.5 -9.5t28 -3.5q48 0 48 32q0 36 -59 59q-75 30 -107.5 67.5t-32.5 93.5q0 65 48 107t129 42q44 0 89.5 -10.5t68.5 -20.5l23 -11l-50 -112q-72 36 -109 36q-38 0 -38 -29t75 -61q63 -26 94 -61.5t31 -90.5 q0 -68 -47.5 -114.5t-132.5 -46.5q-98 0 -199 46z" />
<glyph unicode="t" horiz-adv-x="392" d="M10 382v116h82l17 103l137 30v-133h118l-19 -116h-99v-223q0 -44 46 -44q14 0 32 2.5t29 5.5l11 3l27 -106q-72 -24 -142 -24q-160 0 -160 136v250h-79z" />
<glyph unicode="u" horiz-adv-x="557" d="M52 168v334h159v-313q0 -78 40 -78q30 0 53 39.5t23 101.5v250h158v-261q0 -44 5.5 -82t13.5 -60.5t16.5 -38.5t13.5 -22l6 -6l-127 -40q-33 32 -47 92q-51 -90 -170 -90q-144 0 -144 174z" />
<glyph unicode="v" horiz-adv-x="525" d="M52 173v329h158v-326q0 -70 36 -70q43 0 63.5 77.5t20.5 183.5q0 57 -12 135h158q12 -50 12 -127q0 -204 -64.5 -292.5t-204.5 -88.5q-83 0 -125 47.5t-42 131.5z" />
<glyph unicode="w" horiz-adv-x="771" d="M52 172v330h158v-326q0 -30 10.5 -50t29.5 -20q33 0 48.5 47t15.5 151v198h158v-29q0 -29 -0.5 -72.5t-1 -88.5t-0.5 -83.5v-52.5q0 -30 10.5 -50t29.5 -20q40 0 52.5 67.5t12.5 193.5q0 40 -11 135h158q11 -58 11 -127q0 -206 -61.5 -293.5t-199.5 -87.5q-80 0 -120 66 q-26 -37 -60.5 -51.5t-87.5 -14.5q-152 0 -152 178z" />
<glyph unicode="x" horiz-adv-x="511" d="M-13 0l170 264l-149 234h178l60 -96q13 -24 21 -45q18 27 37.5 72t23.5 69h164q-8 -48 -50 -123q-30 -53 -86 -111l162 -264h-176l-66 115q-7 11 -23 45q-12 -25 -27 -51.5t-35.5 -59.5t-29.5 -49h-174z" />
<glyph unicode="y" horiz-adv-x="547" d="M52 168v334h159v-313q0 -78 40 -78q28 0 52 38.5t24 96.5v256h159l-4 -271q-1 -43 18 -114t19 -114q0 -103 -59 -160.5t-161 -57.5q-92 0 -194 42l37 122q94 -32 147 -32q40 0 64.5 23.5t24.5 65.5q0 37 -14 73q-50 -85 -168 -85q-144 0 -144 174z" />
<glyph unicode="z" horiz-adv-x="423" d="M22 0v88l190 296q-50 -2 -70 -2h-92l-20 116h367v-97l-180 -288q34 2 52 2h137v-115h-384z" />
<glyph unicode="{" horiz-adv-x="402" d="M52 201v107q70 15 70 98q0 28 -7 86.5t-7 96.5q0 58 39 96.5t122 38.5q64 0 121 -16l-27 -98q-29 8 -48 8q-23 0 -35 -12.5t-12 -31.5q0 -31 6.5 -80t6.5 -74q0 -60 -20.5 -99.5t-68.5 -66.5q48 -27 68.5 -66t20.5 -98q0 -25 -6.5 -74t-6.5 -80q0 -19 12 -31.5t35 -12.5 q26 0 48 8l27 -98q-57 -16 -121 -16q-83 0 -122 38.5t-39 96.5q0 38 7 96.5t7 86.5q0 82 -70 97z" />
<glyph unicode="|" horiz-adv-x="339" d="M92 -126v856h155v-856h-155z" />
<glyph unicode="}" horiz-adv-x="402" d="M12 -198l27 98q22 -8 48 -8q23 0 35 12.5t12 31.5q0 31 -6.5 80t-6.5 74q0 59 20.5 98t68.5 66q-48 27 -68.5 66.5t-20.5 99.5q0 25 6.5 74t6.5 80q0 19 -12 31.5t-35 12.5q-19 0 -48 -8l-27 98q57 16 121 16q83 0 122 -38.5t39 -96.5q0 -38 -7 -96.5t-7 -86.5 q0 -83 70 -98v-107q-70 -15 -70 -97q0 -28 7 -86.5t7 -96.5q0 -58 -39 -96.5t-122 -38.5q-64 0 -121 16z" />
<glyph unicode="~" horiz-adv-x="542" d="M42 310q2 4 6 10.5t17.5 23t28.5 29t39 23t50 10.5q41 0 94 -30t81 -30q29 0 46 10t41 36l54 -61q-2 -4 -6 -10.5t-17 -23t-28 -29t-39.5 -23t-50.5 -10.5q-40 0 -93 30t-82 30t-45.5 -9.5t-41.5 -36.5z" />
<glyph unicode="&#xa1;" horiz-adv-x="329" d="M23 418q0 37 23.5 62t64.5 25q42 0 65.5 -25.5t23.5 -65.5q0 -39 -23 -63.5t-64 -24.5q-42 0 -66 26t-24 66zM43 -182v457h145l29 -457h-174z" />
<glyph unicode="&#xa2;" horiz-adv-x="506" d="M47 308q0 111 54 178t145 81v87h115v-88q74 -13 117 -67l-72 -71q-22 23 -45 32v-282q42 5 79 19l34 -89q-40 -22 -113 -31v-119h-115v116q-199 18 -199 234zM199 325q0 -104 47 -133v264q-47 -25 -47 -131z" />
<glyph unicode="&#xa3;" horiz-adv-x="573" d="M54 93q8 4 18.5 12t24.5 33t16 57l3 41h-58v121h68l5 72q8 98 66.5 156t162.5 58q105 0 170 -57l-61 -106q-48 39 -102 39q-31 0 -49 -23.5t-22 -59.5l-8 -79h161l-21 -121h-153l-1 -18q-7 -54 -29 -95q22 2 32 2q19 0 56 -3t57 -3q53 0 90 23l47 -111q-9 -5 -25.5 -12.5 t-49 -16t-61.5 -8.5q-32 0 -82.5 6t-71.5 6q-56 0 -144 -8z" />
<glyph unicode="&#xa4;" horiz-adv-x="621" d="M22 64l98 85q-40 58 -40 134t39 135l-96 85l94 95l93 -105q45 21 101 21q55 0 101 -20l92 104l94 -95l-96 -85q40 -59 40 -135q0 -74 -40 -135l97 -84l-95 -95l-93 104q-50 -21 -102 -21t-99 21l-93 -104zM196 288q0 -54 32.5 -90.5t81.5 -36.5q50 0 83 34.5t33 86.5 q0 53 -33 89.5t-83 36.5t-82 -34t-32 -86z" />
<glyph unicode="&#xa5;" horiz-adv-x="631" d="M22 644h175l118 -243l121 243h173l-166 -292h83v-117h-132v-41h132v-118h-132v-76h-164v76h-131v118h131v41h-131v117h88z" />
<glyph unicode="&#xa6;" horiz-adv-x="339" d="M92 -126v376h155v-376h-155zM92 353v377h155v-377h-155z" />
<glyph unicode="&#xa7;" horiz-adv-x="583" d="M42 230q0 109 120 163q-41 48 -41 106q0 66 47.5 108.5t129.5 42.5q76 0 153 -32l-48 -110q-53 24 -83 24q-38 0 -38 -31q0 -7 3.5 -15t11.5 -17t16.5 -17t23 -19.5t25.5 -20t29 -22.5t30 -23q51 -39 77.5 -78.5t26.5 -91.5q0 -110 -120 -164q42 -49 42 -105 q0 -66 -47.5 -109t-129.5 -43q-75 0 -153 33l48 110q48 -24 83 -24q38 0 38 30q0 11 -7.5 23t-24 26.5t-32 26.5t-41.5 31.5t-43 33.5q-96 77 -96 164zM197 246q0 -9 3 -17.5t10 -18t13 -17t19 -19t20.5 -18t24 -20t23.5 -19.5q61 22 61 64q0 17 -16 38.5t-31.5 35 t-50.5 41.5q-5 5 -8.5 7.5t-7.5 5.5q-60 -21 -60 -63z" />
<glyph unicode="&#xa8;" horiz-adv-x="492" d="M61 644q0 34 19.5 56t55.5 22q33 0 52.5 -21.5t19.5 -52.5q0 -34 -19.5 -55.5t-55.5 -21.5q-34 0 -53 21t-19 52zM276 644q0 34 19.5 56t55.5 22q33 0 52.5 -21.5t19.5 -52.5q0 -34 -19.5 -55.5t-55.5 -21.5q-34 0 -53 21t-19 52z" />
<glyph unicode="&#xa9;" horiz-adv-x="782" d="M37 340q0 155 100.5 254t256.5 99q155 0 252.5 -98.5t97.5 -254.5t-100.5 -255t-256.5 -99q-155 0 -252.5 99t-97.5 255zM146 345q0 -108 69.5 -184.5t174.5 -76.5q107 0 176.5 71.5t69.5 178.5q0 109 -69.5 185.5t-175.5 76.5q-107 0 -176 -71.5t-69 -179.5zM226 333 q0 101 48.5 156.5t130.5 55.5q75 0 122 -47l-72 -79q-25 11 -37 11q-39 0 -39 -85q0 -87 54 -87q30 0 54 12l28 -103q-4 -3 -16 -7.5t-42 -11t-63 -6.5q-168 0 -168 191z" />
<glyph unicode="&#xaa;" horiz-adv-x="418" d="M27 505q0 83 51 135.5t140 52.5q63 0 136 -19v-171q0 -110 42 -147l-101 -31q-31 26 -40 67q-26 -65 -91 -65q-64 0 -100.5 48.5t-36.5 129.5zM164 511q0 -86 25 -86q16 0 27.5 31.5t11.5 72.5v64q-12 4 -19 4q-45 0 -45 -86z" />
<glyph unicode="&#xab;" horiz-adv-x="605" d="M42 245q36 49 93.5 108.5t96.5 94.5l40 34l66 -74l-130 -163l130 -163l-66 -75q-17 14 -43.5 38t-88.5 87t-98 113zM283 245q36 49 93.5 108.5t97.5 94.5l39 34l65 -74l-130 -163l130 -163l-65 -75q-17 14 -44 38t-88.5 87t-97.5 113z" />
<glyph unicode="&#xac;" horiz-adv-x="524" d="M42 295v116h440v-243h-114v127h-326z" />
<glyph unicode="&#xad;" horiz-adv-x="375" d="M42 261v111h291v-111h-291z" />
<glyph unicode="&#xae;" horiz-adv-x="584" d="M52 454q0 104 68.5 171.5t173.5 67.5t171 -67t66 -172t-68 -172.5t-173 -67.5t-171.5 67.5t-66.5 172.5zM125 457q0 -75 47 -126.5t118 -51.5q74 0 120.5 47.5t46.5 122.5t-47 126.5t-120 51.5q-72 0 -118.5 -47.5t-46.5 -122.5zM201 325v255q2 0 33 0.5t50 0.5 q99 0 99 -70q0 -38 -36 -59q15 -6 24 -25t31 -80l-65 -23q-32 80 -41 90t-22 11h-5v-100h-68zM269 471q44 0 44 33q0 32 -32 32h-12v-65z" />
<glyph unicode="&#xaf;" horiz-adv-x="492" d="M73 572v111h331v-111h-331z" />
<glyph unicode="&#xb0;" horiz-adv-x="311" d="M32 596q0 56 35 90.5t90 34.5t88.5 -35t33.5 -90q0 -56 -35 -90.5t-90 -34.5t-88.5 35.5t-33.5 89.5zM116 597q0 -23 11.5 -36t27.5 -13q41 0 41 48q0 22 -11 34.5t-30 12.5q-39 0 -39 -46z" />
<glyph unicode="&#xb1;" horiz-adv-x="505" d="M52 23v116h140v104h-139v116h139v139h122v-139h139v-116h-139v-104h139v-116h-401z" />
<glyph unicode="&#xb2;" horiz-adv-x="323" d="M27 654q68 39 145 39q52 0 84.5 -26.5t32.5 -75.5q0 -66 -64 -134q-12 -14 -34 -34h107v-95h-267v83q43 37 69 66q34 38 47.5 58t13.5 36q0 25 -19 25q-27 0 -72 -26z" />
<glyph unicode="&#xb3;" horiz-adv-x="333" d="M29 657q66 36 143 36q53 0 84.5 -22t31.5 -64q0 -49 -56 -77q71 -23 71 -88q0 -52 -34.5 -86.5t-108.5 -34.5q-61 0 -127 38l33 81q46 -27 85 -27q34 0 34 32q0 28 -25 28l-43 -6l-30 73q5 1 19.5 4.5t21 6t16 6.5t13.5 10t4 13q0 16 -16 16q-27 0 -74 -24z" />
<glyph unicode="&#xb4;" horiz-adv-x="492" d="M139 628l182 214l104 -99q-37 -46 -92 -92.5t-91 -70.5l-36 -23z" />
<glyph unicode="&#xb5;" horiz-adv-x="561" d="M57 -221v723h158v-321q0 -32 13.5 -51t35.5 -19q27 0 47 37.5t20 97.5v256h158v-261q0 -25 2 -48.5t5 -41.5t7 -34t8.5 -27.5t9 -21.5t9 -16.5t7.5 -10.5t5 -7l2 -2l-126 -40q-3 2 -10 10.5t-18.5 30t-18.5 47.5q-32 -86 -106 -86q-26 0 -50 13v-201z" />
<glyph unicode="&#xb6;" horiz-adv-x="592" d="M52 465q0 101 62 157.5t176 56.5v-429q-115 0 -176.5 57.5t-61.5 157.5zM265 -112q36 19 57.5 38.5t30 41t10.5 35.5t2 38v636h165v-634q0 -103 -50.5 -161t-148.5 -105z" />
<glyph unicode="&#xb7;" horiz-adv-x="262" d="M42 308q0 40 24 66t66 26q41 0 64 -24.5t23 -63.5q0 -40 -23.5 -65.5t-65.5 -25.5q-41 0 -64.5 25t-23.5 62z" />
<glyph unicode="&#xb8;" horiz-adv-x="492" d="M112 -212l23 75q31 -14 66 -14q45 0 45 24q0 19 -29 29.5t-65 10.5l26 102h99l-12 -52q42 -4 67.5 -26.5t25.5 -62.5q0 -55 -37 -82.5t-94 -27.5q-64 0 -115 24z" />
<glyph unicode="&#xb9;" horiz-adv-x="285" d="M2 609q93 31 141 75h102v-356h-123v238q-35 -32 -73 -44z" />
<glyph unicode="&#xba;" horiz-adv-x="429" d="M37 506q0 84 46 135.5t135 51.5q173 0 173 -179q0 -84 -45.5 -135.5t-133.5 -51.5q-175 0 -175 179zM175 514q0 -102 43 -102q36 0 36 96q0 100 -43 100q-36 0 -36 -94z" />
<glyph unicode="&#xbb;" horiz-adv-x="605" d="M27 82l130 163l-130 163l66 74q148 -126 230 -237q-36 -50 -93.5 -109.5t-97.5 -93.5l-39 -35zM268 82l130 163l-130 163l65 74q148 -126 230 -237q-36 -50 -93.5 -109.5t-97.5 -93.5l-39 -35z" />
<glyph unicode="&#xbc;" horiz-adv-x="777" d="M1 519q95 33 141 75h102v-356h-123v238q-33 -31 -74 -44zM169 -8l281 602h133l-282 -602h-132zM442 70v63l79 225h109l-72 -202h48v92l107 20v-112h52l-10 -86h-42v-70h-107v70h-164z" />
<glyph unicode="&#xbd;" horiz-adv-x="794" d="M1 519q95 33 141 75h102v-356h-123v238q-33 -31 -74 -44zM169 -8l281 602h133l-282 -602h-132zM499 326q66 39 144 39q53 0 85.5 -26.5t32.5 -75.5q0 -65 -64 -134q-8 -9 -35 -34h107v-95h-267v82q44 37 70 66q60 67 60 94q0 25 -19 25q-25 0 -72 -26z" />
<glyph unicode="&#xbe;" horiz-adv-x="816" d="M22 558q66 36 143 36q53 0 84.5 -22t31.5 -64q0 -49 -56 -77q71 -23 71 -88q0 -52 -34.5 -86.5t-108.5 -34.5q-61 0 -127 38l33 81q46 -27 85 -27q34 0 34 32q0 28 -25 28l-43 -6l-30 73q5 1 19.5 4.5t21 6t16 6.5t13.5 10t4 13q0 16 -16 16q-27 0 -74 -24zM200 -8 l282 602h132l-281 -602h-133zM476 68v62l78 226h109l-72 -203h48v92l107 20v-112h53l-10 -85h-43v-68h-107v68h-163z" />
<glyph unicode="&#xbf;" horiz-adv-x="444" d="M40 -43q0 36 19 77.5t37 65.5t52 66q63 78 81 131l123 -33q0 -45 -21 -91.5t-46.5 -77.5t-46.5 -65t-21 -58q0 -20 14.5 -36t37.5 -16q24 0 44.5 7.5t70.5 30.5l49 -100q-110 -50 -203 -50q-89 0 -139.5 38.5t-50.5 110.5zM201 414q0 40 23.5 65.5t65.5 25.5 q40 0 63.5 -25t23.5 -62q0 -40 -23.5 -66t-65.5 -26q-41 0 -64 24.5t-23 63.5z" />
<glyph unicode="&#xc0;" horiz-adv-x="649" d="M-1 0l257 677h147l248 -677h-167l-50 163h-219l-52 -163h-164zM77 871l100 101l207 -173l-62 -74q-24 7 -56 19t-90.5 47.5t-98.5 79.5zM253 285h144q-32 93 -72 223q-32 -110 -72 -223z" />
<glyph unicode="&#xc1;" horiz-adv-x="649" d="M-1 0l257 677h147l248 -677h-167l-50 163h-219l-52 -163h-164zM253 285h144q-32 93 -72 223q-32 -110 -72 -223zM264 799l207 173l100 -101q-40 -44 -99 -79.5t-90 -47.5t-56 -19z" />
<glyph unicode="&#xc2;" horiz-adv-x="649" d="M-1 0l257 677h147l248 -677h-167l-50 163h-219l-52 -163h-164zM124 800l205 176l205 -176l-62 -75q-81 34 -143 78q-59 -42 -144 -78zM253 285h144q-32 93 -72 223q-32 -110 -72 -223z" />
<glyph unicode="&#xc3;" horiz-adv-x="649" d="M-1 0l257 677h147l248 -677h-167l-50 163h-219l-52 -163h-164zM154 757v100q39 23 88 23q26 0 79.5 -10t80.5 -10q22 0 42 3.5t29 6.5l9 4v-100q-31 -23 -80 -23q-27 0 -80.5 10t-79.5 10q-22 0 -44 -3.5t-33 -7.5zM253 285h144q-32 93 -72 223q-32 -110 -72 -223z" />
<glyph unicode="&#xc4;" horiz-adv-x="649" d="M-1 0l257 677h147l248 -677h-167l-50 163h-219l-52 -163h-164zM143 818q0 34 19.5 56t55.5 22q33 0 52.5 -21.5t19.5 -52.5q0 -34 -19.5 -55.5t-55.5 -21.5q-34 0 -53 21t-19 52zM253 285h144q-32 93 -72 223q-32 -110 -72 -223zM358 818q0 34 19.5 56t55.5 22 q33 0 52.5 -21.5t19.5 -52.5q0 -34 -19.5 -55.5t-55.5 -21.5q-34 0 -53 21t-19 52z" />
<glyph unicode="&#xc5;" horiz-adv-x="649" d="M-1 0l243 642q-27 28 -27 77q0 50 31 80t79 30q49 0 78 -31t29 -79q0 -37 -20 -67l239 -652h-167l-50 163h-219l-52 -163h-164zM253 285h144q-32 93 -72 223q-32 -110 -72 -223zM289 720q0 -39 30 -43h9q30 3 30 42q0 41 -35 41q-34 0 -34 -40z" />
<glyph unicode="&#xc6;" horiz-adv-x="921" d="M-13 0l408 677h495v-121h-266v-145h221l-19 -119h-202v-171h280v-121h-444v163h-194l-93 -163h-186zM334 285h126v241z" />
<glyph unicode="&#xc7;" horiz-adv-x="549" d="M39 330q0 162 77 259t225 97q73 0 117.5 -22t78.5 -61l-90 -91q-47 57 -106 57q-124 0 -124 -228q0 -110 31.5 -170t106.5 -60q61 0 130 28l36 -112q-67 -27 -150 -32l-7 -32q42 -4 67.5 -26.5t25.5 -62.5q0 -55 -37 -82.5t-94 -27.5q-64 0 -115 24l23 75q32 -14 66 -14 q45 0 45 24q0 19 -29 29.5t-65 10.5l22 85q-234 33 -234 332z" />
<glyph unicode="&#xc8;" horiz-adv-x="524" d="M48 871l100 101l207 -173l-62 -74q-24 7 -56 19t-90.5 47.5t-98.5 79.5zM62 0v677h431v-121h-266v-145h221l-19 -119h-202v-171h280v-121h-445z" />
<glyph unicode="&#xc9;" horiz-adv-x="524" d="M62 0v677h431v-121h-266v-145h221l-19 -119h-202v-171h280v-121h-445zM235 799l207 173l100 -101q-40 -44 -99 -79.5t-90 -47.5t-56 -19z" />
<glyph unicode="&#xca;" horiz-adv-x="524" d="M62 0v677h431v-121h-266v-145h221l-19 -119h-202v-171h280v-121h-445zM95 800l205 176l205 -176l-62 -75q-81 34 -143 78q-59 -42 -144 -78z" />
<glyph unicode="&#xcb;" horiz-adv-x="524" d="M62 0v677h431v-121h-266v-145h221l-19 -119h-202v-171h280v-121h-445zM92 818q0 34 19.5 56t55.5 22q33 0 52.5 -21.5t19.5 -52.5q0 -34 -19.5 -55.5t-55.5 -21.5q-34 0 -53 21t-19 52zM307 818q0 34 19.5 56t55.5 22q33 0 52.5 -21.5t19.5 -52.5q0 -34 -19.5 -55.5 t-55.5 -21.5q-34 0 -53 21t-19 52z" />
<glyph unicode="&#xcc;" horiz-adv-x="289" d="M-102 871l100 101l207 -173l-62 -74q-24 7 -56 19t-90.5 47.5t-98.5 79.5zM62 0v677h165v-677h-165z" />
<glyph unicode="&#xcd;" horiz-adv-x="289" d="M62 0v677h165v-677h-165zM84 799l207 173l100 -101q-40 -44 -99 -79.5t-90 -47.5t-56 -19z" />
<glyph unicode="&#xce;" horiz-adv-x="289" d="M-55 800l205 176l205 -176l-62 -75q-81 34 -143 78q-59 -42 -144 -78zM62 0v677h165v-677h-165z" />
<glyph unicode="&#xcf;" horiz-adv-x="289" d="M-36 818q0 34 19.5 56t55.5 22q33 0 52.5 -21.5t19.5 -52.5q0 -34 -19.5 -55.5t-55.5 -21.5q-34 0 -53 21t-19 52zM62 0v677h165v-677h-165zM179 818q0 34 19.5 56t55.5 22q33 0 52.5 -21.5t19.5 -52.5q0 -34 -19.5 -55.5t-55.5 -21.5q-34 0 -53 21t-19 52z" />
<glyph unicode="&#xd0;" horiz-adv-x="647" d="M-8 289v118h70v270q3 0 91 1t132 1q163 0 244.5 -93.5t81.5 -252.5q0 -160 -81.5 -247.5t-247.5 -87.5q-35 0 -101.5 1t-118.5 1v289h-70zM227 115q17 -1 51 -1q84 0 119.5 55.5t35.5 161.5q0 232 -155 232q-11 0 -26 -0.5t-25 -0.5v-155h112v-118h-112v-174z" />
<glyph unicode="&#xd1;" horiz-adv-x="689" d="M62 0v677h135l195 -290q16 -25 81 -130q0 3 -3.5 69.5t-4.5 91.5l-3 259h165v-677h-141l-193 292q-8 11 -22.5 35t-32.5 53t-23 38q9 -123 9 -158l3 -260h-165zM180 760v100q39 23 88 23q26 0 79.5 -10t80.5 -10q22 0 42 3.5t29 7.5l9 3v-100q-31 -23 -80 -23 q-27 0 -80.5 10t-79.5 10q-22 0 -44 -3.5t-33 -6.5z" />
<glyph unicode="&#xd2;" horiz-adv-x="693" d="M37 330q0 163 80.5 259.5t235.5 96.5q153 0 227.5 -89.5t74.5 -252.5q0 -161 -80 -255.5t-235 -94.5q-303 0 -303 336zM108 871l100 101l207 -173l-62 -74q-24 7 -56 19t-90.5 47.5t-98.5 79.5zM215 341q0 -111 31 -170.5t108 -59.5q123 0 123 223q0 111 -31 173t-107 62 q-124 0 -124 -228z" />
<glyph unicode="&#xd3;" horiz-adv-x="693" d="M37 330q0 163 80.5 259.5t235.5 96.5q153 0 227.5 -89.5t74.5 -252.5q0 -161 -80 -255.5t-235 -94.5q-303 0 -303 336zM215 341q0 -111 31 -170.5t108 -59.5q123 0 123 223q0 111 -31 173t-107 62q-124 0 -124 -228zM294 799l207 173l100 -101q-40 -44 -99 -79.5 t-90 -47.5t-56 -19z" />
<glyph unicode="&#xd4;" horiz-adv-x="693" d="M37 330q0 163 80.5 259.5t235.5 96.5q153 0 227.5 -89.5t74.5 -252.5q0 -161 -80 -255.5t-235 -94.5q-303 0 -303 336zM155 800l205 176l205 -176l-62 -75q-81 34 -143 78q-59 -42 -144 -78zM215 341q0 -111 31 -170.5t108 -59.5q123 0 123 223q0 111 -31 173t-107 62 q-124 0 -124 -228z" />
<glyph unicode="&#xd5;" horiz-adv-x="693" d="M37 330q0 163 80.5 259.5t235.5 96.5q153 0 227.5 -89.5t74.5 -252.5q0 -161 -80 -255.5t-235 -94.5q-303 0 -303 336zM184 757v100q39 23 88 23q26 0 79.5 -10t80.5 -10q22 0 42 3.5t29 6.5l9 4v-100q-31 -23 -80 -23q-27 0 -80.5 10t-79.5 10q-22 0 -44 -3.5t-33 -7.5z M215 341q0 -111 31 -170.5t108 -59.5q123 0 123 223q0 111 -31 173t-107 62q-124 0 -124 -228z" />
<glyph unicode="&#xd6;" horiz-adv-x="693" d="M37 330q0 163 80.5 259.5t235.5 96.5q153 0 227.5 -89.5t74.5 -252.5q0 -161 -80 -255.5t-235 -94.5q-303 0 -303 336zM165 818q0 34 19.5 56t55.5 22q33 0 52.5 -21.5t19.5 -52.5q0 -34 -19.5 -55.5t-55.5 -21.5q-34 0 -53 21t-19 52zM215 341q0 -111 31 -170.5 t108 -59.5q123 0 123 223q0 111 -31 173t-107 62q-124 0 -124 -228zM380 818q0 34 19.5 56t55.5 22q33 0 52.5 -21.5t19.5 -52.5q0 -34 -19.5 -55.5t-55.5 -21.5q-34 0 -53 21t-19 52z" />
<glyph unicode="&#xd7;" horiz-adv-x="523" d="M52 177l122 122l-118 119l85 84l118 -118l122 121l89 -90l-121 -121l120 -120l-85 -84l-119 119l-123 -122z" />
<glyph unicode="&#xd8;" horiz-adv-x="693" d="M37 330q0 163 80.5 259.5t235.5 96.5q31 0 66 -5l29 65l140 -56l-31 -69q98 -86 98 -277q0 -161 -80 -255.5t-235 -94.5q-37 0 -64 4l-30 -68l-139 57l30 68q-100 81 -100 275zM215 341q0 -57 7 -98l145 323q-14 3 -28 3q-124 0 -124 -228zM328 113q8 -2 26 -2 q123 0 123 223q0 55 -7 94z" />
<glyph unicode="&#xd9;" horiz-adv-x="668" d="M52 265v412h164v-403q0 -153 124 -153q54 0 82.5 39t28.5 114v403h165v-412q0 -118 -70 -194.5t-219 -76.5q-74 0 -128.5 22t-86 60.5t-46 85.5t-14.5 103zM82 871l100 101l207 -173l-62 -74q-24 7 -56 19t-90.5 47.5t-98.5 79.5z" />
<glyph unicode="&#xda;" horiz-adv-x="668" d="M52 265v412h164v-403q0 -153 124 -153q54 0 82.5 39t28.5 114v403h165v-412q0 -118 -70 -194.5t-219 -76.5q-74 0 -128.5 22t-86 60.5t-46 85.5t-14.5 103zM268 799l207 173l100 -101q-40 -44 -99 -79.5t-90 -47.5t-56 -19z" />
<glyph unicode="&#xdb;" horiz-adv-x="668" d="M52 265v412h164v-403q0 -153 124 -153q54 0 82.5 39t28.5 114v403h165v-412q0 -118 -70 -194.5t-219 -76.5q-74 0 -128.5 22t-86 60.5t-46 85.5t-14.5 103zM129 800l205 176l205 -176l-62 -75q-81 34 -143 78q-59 -42 -144 -78z" />
<glyph unicode="&#xdc;" horiz-adv-x="668" d="M52 265v412h164v-403q0 -153 124 -153q54 0 82.5 39t28.5 114v403h165v-412q0 -118 -70 -194.5t-219 -76.5q-74 0 -128.5 22t-86 60.5t-46 85.5t-14.5 103zM153 818q0 34 19.5 56t55.5 22q33 0 52.5 -21.5t19.5 -52.5q0 -34 -19.5 -55.5t-55.5 -21.5q-34 0 -53 21t-19 52 zM368 818q0 34 19.5 56t55.5 22q33 0 52.5 -21.5t19.5 -52.5q0 -34 -19.5 -55.5t-55.5 -21.5q-34 0 -53 21t-19 52z" />
<glyph unicode="&#xdd;" horiz-adv-x="574" d="M-8 677h174l120 -259l123 259h172l-216 -426v-251h-164v260zM228 799l207 173l100 -101q-40 -44 -99 -79.5t-90 -47.5t-56 -19z" />
<glyph unicode="&#xde;" d="M62 0v677h165v-118h43q126 0 191.5 -53.5t65.5 -152.5q0 -105 -71 -159.5t-199 -54.5h-30v-139h-165zM227 253h42q35 0 57.5 25t22.5 67q0 40 -20.5 69.5t-64.5 30.5q-21 0 -37 -2v-190z" />
<glyph unicode="&#xdf;" horiz-adv-x="623" d="M-20 -140q100 52 100 154v480q0 104 75.5 174t202.5 70q101 0 151 -45.5t50 -107.5q0 -39 -18 -68t-39.5 -42.5t-39.5 -31.5t-18 -37q0 -21 16 -37.5t39 -32t46.5 -34.5t39.5 -54.5t16 -82.5q0 -73 -52.5 -122.5t-141.5 -49.5q-68 0 -142 37l48 106q41 -19 64 -19 q58 0 58 51q0 23 -15 41t-37 32t-44 30.5t-37 43.5t-15 63q0 31 17 57.5t37 42.5t37 38t17 44q0 26 -19.5 39.5t-49.5 13.5q-43 0 -65.5 -34t-22.5 -93v-461q0 -45 -11.5 -81.5t-29 -60.5t-47 -45.5t-54.5 -34t-63 -27.5z" />
<glyph unicode="&#xe0;" d="M27 243q0 116 70 191t181 75q23 0 52 -3t53.5 -7.5t46 -8.5t34.5 -7l13 -3v-239q0 -44 5.5 -82t13.5 -60.5t16.5 -38.5t13.5 -22l6 -6l-127 -40q-36 34 -48 100q-35 -98 -137 -98q-96 0 -144.5 66.5t-48.5 182.5zM67 743l104 99l183 -214l-67 -71q-1 1 -14.5 9.5t-29 19 t-39 28.5t-45.5 36.5t-47 43t-45 49.5zM195 253q0 -70 9.5 -106.5t41.5 -36.5q30 0 51.5 47.5t21.5 111.5v116q-18 8 -41 8q-83 0 -83 -140z" />
<glyph unicode="&#xe1;" d="M27 243q0 116 70 191t181 75q23 0 52 -3t53.5 -7.5t46 -8.5t34.5 -7l13 -3v-239q0 -44 5.5 -82t13.5 -60.5t16.5 -38.5t13.5 -22l6 -6l-127 -40q-36 34 -48 100q-35 -98 -137 -98q-96 0 -144.5 66.5t-48.5 182.5zM195 253q0 -70 9.5 -106.5t41.5 -36.5q30 0 51.5 47.5 t21.5 111.5v116q-18 8 -41 8q-83 0 -83 -140zM218 628l182 214l104 -99q-37 -46 -92 -92.5t-91 -70.5l-36 -23z" />
<glyph unicode="&#xe2;" d="M27 243q0 116 70 191t181 75q23 0 52 -3t53.5 -7.5t46 -8.5t34.5 -7l13 -3v-239q0 -44 5.5 -82t13.5 -60.5t16.5 -38.5t13.5 -22l6 -6l-127 -40q-36 34 -48 100q-35 -98 -137 -98q-96 0 -144.5 66.5t-48.5 182.5zM87 631l195 197l194 -197l-61 -74q-73 37 -133 82 q-58 -44 -134 -82zM195 253q0 -70 9.5 -106.5t41.5 -36.5q30 0 51.5 47.5t21.5 111.5v116q-18 8 -41 8q-83 0 -83 -140z" />
<glyph unicode="&#xe3;" d="M27 243q0 116 70 191t181 75q23 0 52 -3t53.5 -7.5t46 -8.5t34.5 -7l13 -3v-239q0 -44 5.5 -82t13.5 -60.5t16.5 -38.5t13.5 -22l6 -6l-127 -40q-36 34 -48 100q-35 -98 -137 -98q-96 0 -144.5 66.5t-48.5 182.5zM121 586v100q39 23 88 23q26 0 79.5 -10t80.5 -10 q22 0 42 3.5t29 7.5l9 3v-100q-31 -23 -80 -23q-27 0 -80.5 10t-79.5 10q-22 0 -44 -3.5t-33 -6.5zM195 253q0 -70 9.5 -106.5t41.5 -36.5q30 0 51.5 47.5t21.5 111.5v116q-18 8 -41 8q-83 0 -83 -140z" />
<glyph unicode="&#xe4;" d="M27 243q0 116 70 191t181 75q23 0 52 -3t53.5 -7.5t46 -8.5t34.5 -7l13 -3v-239q0 -44 5.5 -82t13.5 -60.5t16.5 -38.5t13.5 -22l6 -6l-127 -40q-36 34 -48 100q-35 -98 -137 -98q-96 0 -144.5 66.5t-48.5 182.5zM106 663q0 35 19.5 56.5t55.5 21.5q33 0 52.5 -21.5 t19.5 -52.5q0 -34 -19.5 -55.5t-55.5 -21.5q-34 0 -53 21t-19 52zM195 253q0 -70 9.5 -106.5t41.5 -36.5q30 0 51.5 47.5t21.5 111.5v116q-18 8 -41 8q-83 0 -83 -140zM321 663q0 35 19.5 56.5t55.5 21.5q33 0 52.5 -21.5t19.5 -52.5q0 -34 -19.5 -55.5t-55.5 -21.5 q-34 0 -53 21t-19 52z" />
<glyph unicode="&#xe5;" d="M27 243q0 116 70 191t181 75q23 0 52 -3t53.5 -7.5t46 -8.5t34.5 -7l13 -3v-239q0 -44 5.5 -82t13.5 -60.5t16.5 -38.5t13.5 -22l6 -6l-127 -40q-36 34 -48 100q-35 -98 -137 -98q-96 0 -144.5 66.5t-48.5 182.5zM168 653q0 50 31 80t79 30q49 0 78 -31t29 -79 q0 -49 -31 -79.5t-79 -30.5q-49 0 -78 31t-29 79zM195 253q0 -70 9.5 -106.5t41.5 -36.5q30 0 51.5 47.5t21.5 111.5v116q-18 8 -41 8q-83 0 -83 -140zM242 654q0 -21 10 -32t24 -11q35 0 35 42q0 41 -35 41q-34 0 -34 -40z" />
<glyph unicode="&#xe6;" horiz-adv-x="762" d="M27 243q0 116 70 191t181 75q74 0 152 -33q58 36 137 36q89 0 132 -41t43 -110q0 -74 -70 -125t-188 -61q15 -67 81 -67q26 0 61.5 8t57.5 16l23 8l30 -104q-90 -45 -197 -45q-133 0 -190 89q-38 -86 -130 -86q-96 0 -144.5 66.5t-48.5 182.5zM195 253q0 -70 9.5 -106.5 t41.5 -36.5q23 0 41.5 28.5t26.5 73.5q-2 24 -2 39q0 69 29 124q-33 18 -63 18q-83 0 -83 -140zM476 276q53 1 81 26.5t28 54.5q0 18 -11 30t-27 12q-35 0 -52 -36.5t-19 -86.5z" />
<glyph unicode="&#xe7;" horiz-adv-x="419" d="M27 237q0 131 67.5 203t175.5 72q94 0 146 -71l-78 -81q-29 34 -58 34q-85 0 -85 -140q0 -144 99 -144q24 0 84 20l29 -105q-2 -2 -14 -7.5t-39.5 -13.5t-56.5 -11l-7 -30q42 -4 67.5 -26.5t25.5 -62.5q0 -55 -37 -82.5t-94 -27.5q-64 0 -115 24l23 75q32 -14 66 -14 q45 0 45 24q0 19 -29 29.5t-65 10.5l21 83q-171 31 -171 241z" />
<glyph unicode="&#xe8;" horiz-adv-x="479" d="M27 237q0 130 71.5 202.5t182.5 72.5q89 0 132 -41t43 -110q0 -74 -70 -125t-188 -61q15 -67 82 -67q26 0 61.5 8t58.5 16l22 8l30 -104q-91 -45 -197 -45q-117 0 -172.5 65t-55.5 181zM46 743l104 99l183 -214l-67 -71q-1 1 -14.5 9.5t-29 19t-39 28.5t-45.5 36.5 t-47 43t-45 49.5zM190 276q54 1 81.5 26.5t27.5 54.5q0 19 -10.5 30.5t-27.5 11.5q-35 0 -52 -36.5t-19 -86.5z" />
<glyph unicode="&#xe9;" horiz-adv-x="479" d="M27 237q0 130 71.5 202.5t182.5 72.5q89 0 132 -41t43 -110q0 -74 -70 -125t-188 -61q15 -67 82 -67q26 0 61.5 8t58.5 16l22 8l30 -104q-91 -45 -197 -45q-117 0 -172.5 65t-55.5 181zM190 276q54 1 81.5 26.5t27.5 54.5q0 19 -10.5 30.5t-27.5 11.5q-35 0 -52 -36.5 t-19 -86.5zM196 628l182 214l104 -99q-37 -46 -92 -92.5t-91 -70.5l-36 -23z" />
<glyph unicode="&#xea;" horiz-adv-x="479" d="M27 237q0 130 71.5 202.5t182.5 72.5q89 0 132 -41t43 -110q0 -74 -70 -125t-188 -61q15 -67 82 -67q26 0 61.5 8t58.5 16l22 8l30 -104q-91 -45 -197 -45q-117 0 -172.5 65t-55.5 181zM65 631l195 197l194 -197l-61 -74q-73 37 -133 82q-58 -44 -134 -82zM190 276 q54 1 81.5 26.5t27.5 54.5q0 19 -10.5 30.5t-27.5 11.5q-35 0 -52 -36.5t-19 -86.5z" />
<glyph unicode="&#xeb;" horiz-adv-x="479" d="M27 237q0 130 71.5 202.5t182.5 72.5q89 0 132 -41t43 -110q0 -74 -70 -125t-188 -61q15 -67 82 -67q26 0 61.5 8t58.5 16l22 8l30 -104q-91 -45 -197 -45q-117 0 -172.5 65t-55.5 181zM84 663q0 35 19.5 56.5t55.5 21.5q33 0 52.5 -21.5t19.5 -52.5q0 -34 -19.5 -55.5 t-55.5 -21.5q-34 0 -53 21t-19 52zM190 276q54 1 81.5 26.5t27.5 54.5q0 19 -10.5 30.5t-27.5 11.5q-35 0 -52 -36.5t-19 -86.5zM299 663q0 35 19.5 56.5t55.5 21.5q33 0 52.5 -21.5t19.5 -52.5q0 -34 -19.5 -55.5t-55.5 -21.5q-34 0 -53 21t-19 52z" />
<glyph unicode="&#xec;" horiz-adv-x="276" d="M-62 727l104 98l146 -214l-67 -71q-99 82 -183 187zM42 109v393h158v-348q0 -22 6.5 -30.5t21.5 -8.5q18 0 26 4l14 -99q-2 -2 -14 -7t-36.5 -11t-48.5 -6q-57 0 -92 30.5t-35 82.5z" />
<glyph unicode="&#xed;" horiz-adv-x="276" d="M42 109v393h158v-348q0 -22 6.5 -30.5t21.5 -8.5q18 0 26 4l14 -99q-2 -2 -14 -7t-36.5 -11t-48.5 -6q-57 0 -92 30.5t-35 82.5zM43 611l145 214l105 -98q-38 -47 -83.5 -93.5t-72.5 -69.5l-27 -24z" />
<glyph unicode="&#xee;" horiz-adv-x="276" d="M-61 610l183 184l183 -184l-62 -73q-67 40 -121 83q-59 -47 -121 -83zM42 109v393h158v-348q0 -22 6.5 -30.5t21.5 -8.5q18 0 26 4l14 -99q-2 -2 -14 -7t-36.5 -11t-48.5 -6q-57 0 -92 30.5t-35 82.5z" />
<glyph unicode="&#xef;" horiz-adv-x="276" d="M-37 644q0 34 19.5 55.5t54.5 21.5q33 0 52.5 -21.5t19.5 -52.5q0 -33 -19.5 -54.5t-55.5 -21.5q-33 0 -52 21t-19 52zM42 109v393h158v-348q0 -22 6.5 -30.5t21.5 -8.5q18 0 26 4l14 -99q-2 -2 -14 -7t-36.5 -11t-48.5 -6q-57 0 -92 30.5t-35 82.5zM136 644 q0 34 19.5 55.5t55.5 21.5q33 0 52 -21.5t19 -52.5q0 -34 -19 -55t-55 -21q-33 0 -52.5 21t-19.5 52z" />
<glyph unicode="&#xf0;" horiz-adv-x="512" d="M27 244q0 116 60 189t167 73q36 0 72 -16q-8 25 -25 61l-100 -28l-23 90l57 10l-51 36l77 93q61 -38 110 -96l100 30l23 -90l-72 -15q70 -128 70 -318q0 -124 -60.5 -198.5t-175.5 -74.5q-116 0 -172.5 66.5t-56.5 187.5zM195 255q0 -146 70 -146q60 0 60 136 q0 143 -70 143q-60 0 -60 -133z" />
<glyph unicode="&#xf1;" horiz-adv-x="557" d="M17 469l127 40q32 -32 46 -91q51 91 171 91q144 0 144 -174v-335h-159v312q0 78 -40 78q-30 0 -53 -38.5t-23 -100.5v-251h-158v260q0 70 -14 122.5t-28 69.5zM170 586v100q39 23 88 23q26 0 79.5 -10t80.5 -10q22 0 42 3.5t29 7.5l9 3v-100q-31 -23 -80 -23 q-27 0 -80.5 10t-79.5 10q-22 0 -44 -3.5t-33 -6.5z" />
<glyph unicode="&#xf2;" horiz-adv-x="520" d="M27 245q0 119 61 193t176 74q228 0 228 -256q0 -118 -61 -192t-175 -74q-229 0 -229 255zM45 743l104 99l183 -214l-67 -71q-1 1 -14.5 9.5t-29 19t-39 28.5t-45.5 36.5t-47 43t-45 49.5zM195 256q0 -147 70 -147q60 0 60 137q0 147 -70 147q-60 0 -60 -137z" />
<glyph unicode="&#xf3;" horiz-adv-x="520" d="M27 245q0 119 61 193t176 74q228 0 228 -256q0 -118 -61 -192t-175 -74q-229 0 -229 255zM195 256q0 -147 70 -147q60 0 60 137q0 147 -70 147q-60 0 -60 -137zM196 628l182 214l104 -99q-37 -46 -92 -92.5t-91 -70.5l-36 -23z" />
<glyph unicode="&#xf4;" horiz-adv-x="520" d="M27 245q0 119 61 193t176 74q228 0 228 -256q0 -118 -61 -192t-175 -74q-229 0 -229 255zM65 631l195 197l194 -197l-61 -74q-73 37 -133 82q-58 -44 -134 -82zM195 256q0 -147 70 -147q60 0 60 137q0 147 -70 147q-60 0 -60 -137z" />
<glyph unicode="&#xf5;" horiz-adv-x="520" d="M27 245q0 119 61 193t176 74q228 0 228 -256q0 -118 -61 -192t-175 -74q-229 0 -229 255zM99 586v100q39 23 88 23q26 0 79.5 -10t80.5 -10q22 0 42 3.5t29 7.5l9 3v-100q-31 -23 -80 -23q-27 0 -80.5 10t-79.5 10q-22 0 -44 -3.5t-33 -6.5zM195 256q0 -147 70 -147 q60 0 60 137q0 147 -70 147q-60 0 -60 -137z" />
<glyph unicode="&#xf6;" horiz-adv-x="520" d="M27 245q0 119 61 193t176 74q228 0 228 -256q0 -118 -61 -192t-175 -74q-229 0 -229 255zM84 663q0 35 19.5 56.5t55.5 21.5q33 0 52.5 -21.5t19.5 -52.5q0 -34 -19.5 -55.5t-55.5 -21.5q-34 0 -53 21t-19 52zM195 256q0 -147 70 -147q60 0 60 137q0 147 -70 147 q-60 0 -60 -137zM299 663q0 35 19.5 56.5t55.5 21.5q33 0 52.5 -21.5t19.5 -52.5q0 -34 -19.5 -55.5t-55.5 -21.5q-34 0 -53 21t-19 52z" />
<glyph unicode="&#xf7;" horiz-adv-x="505" d="M52 242v116h400v-116h-400zM180 133q0 32 18.5 52.5t52.5 20.5q32 0 49.5 -19.5t17.5 -50.5t-18.5 -51.5t-52.5 -20.5q-31 0 -49 20t-18 49zM180 463q0 32 18.5 52t52.5 20q32 0 49.5 -19t17.5 -50q0 -32 -18.5 -52t-52.5 -20q-31 0 -49 19.5t-18 49.5z" />
<glyph unicode="&#xf8;" horiz-adv-x="520" d="M27 245q0 119 61 193t176 74q32 0 60 -6l31 64l99 -46l-32 -65q70 -64 70 -203q0 -118 -61 -192t-175 -74q-33 0 -60 6l-31 -64l-99 47l31 63q-70 64 -70 203zM195 243l73 149q-4 1 -13 1q-60 0 -60 -137v-13zM252 110q4 -1 13 -1q60 0 60 137v13z" />
<glyph unicode="&#xf9;" horiz-adv-x="557" d="M52 168v334h159v-313q0 -78 40 -78q30 0 53 39.5t23 101.5v250h158v-261q0 -44 5.5 -82t13.5 -60.5t16.5 -38.5t13.5 -22l6 -6l-127 -40q-33 32 -47 92q-51 -90 -170 -90q-144 0 -144 174zM58 743l104 99l183 -214l-67 -71q-1 1 -14.5 9.5t-29 19t-39 28.5t-45.5 36.5 t-47 43t-45 49.5z" />
<glyph unicode="&#xfa;" horiz-adv-x="557" d="M52 168v334h159v-313q0 -78 40 -78q30 0 53 39.5t23 101.5v250h158v-261q0 -44 5.5 -82t13.5 -60.5t16.5 -38.5t13.5 -22l6 -6l-127 -40q-33 32 -47 92q-51 -90 -170 -90q-144 0 -144 174zM208 628l182 214l104 -99q-37 -46 -92 -92.5t-91 -70.5l-36 -23z" />
<glyph unicode="&#xfb;" horiz-adv-x="557" d="M52 168v334h159v-313q0 -78 40 -78q30 0 53 39.5t23 101.5v250h158v-261q0 -44 5.5 -82t13.5 -60.5t16.5 -38.5t13.5 -22l6 -6l-127 -40q-33 32 -47 92q-51 -90 -170 -90q-144 0 -144 174zM77 631l195 197l194 -197l-61 -74q-73 37 -133 82q-58 -44 -134 -82z" />
<glyph unicode="&#xfc;" horiz-adv-x="557" d="M52 168v334h159v-313q0 -78 40 -78q30 0 53 39.5t23 101.5v250h158v-261q0 -44 5.5 -82t13.5 -60.5t16.5 -38.5t13.5 -22l6 -6l-127 -40q-33 32 -47 92q-51 -90 -170 -90q-144 0 -144 174zM96 663q0 35 19.5 56.5t55.5 21.5q33 0 52.5 -21.5t19.5 -52.5 q0 -34 -19.5 -55.5t-55.5 -21.5q-34 0 -53 21t-19 52zM311 663q0 35 19.5 56.5t55.5 21.5q33 0 52.5 -21.5t19.5 -52.5q0 -34 -19.5 -55.5t-55.5 -21.5q-34 0 -53 21t-19 52z" />
<glyph unicode="&#xfd;" horiz-adv-x="547" d="M52 168v334h159v-313q0 -78 40 -78q28 0 52 38.5t24 96.5v256h159l-4 -271q-1 -43 18 -114t19 -114q0 -103 -59 -160.5t-161 -57.5q-92 0 -194 42l37 122q94 -32 147 -32q40 0 64.5 23.5t24.5 65.5q0 37 -14 73q-50 -85 -168 -85q-144 0 -144 174zM207 628l182 214 l104 -99q-37 -46 -92 -92.5t-91 -70.5l-36 -23z" />
<glyph unicode="&#xfe;" horiz-adv-x="534" d="M57 -221v919l158 27v-268q40 52 111 52q88 0 134.5 -67t46.5 -183q0 -112 -69 -188.5t-171 -76.5q-28 0 -52 6v-194zM215 117q28 -7 41 -7q83 0 83 139q0 34 -1.5 55t-6 43.5t-15.5 33.5t-28 11q-30 0 -51.5 -41.5t-21.5 -98.5v-135z" />
<glyph unicode="&#xff;" horiz-adv-x="547" d="M52 168v334h159v-313q0 -78 40 -78q28 0 52 38.5t24 96.5v256h159l-4 -271q-1 -43 18 -114t19 -114q0 -103 -59 -160.5t-161 -57.5q-92 0 -194 42l37 122q94 -32 147 -32q40 0 64.5 23.5t24.5 65.5q0 37 -14 73q-50 -85 -168 -85q-144 0 -144 174zM95 663q0 35 19.5 56.5 t55.5 21.5q33 0 52.5 -21.5t19.5 -52.5q0 -34 -19.5 -55.5t-55.5 -21.5q-34 0 -53 21t-19 52zM310 663q0 35 19.5 56.5t55.5 21.5q33 0 52.5 -21.5t19.5 -52.5q0 -34 -19.5 -55.5t-55.5 -21.5q-34 0 -53 21t-19 52z" />
<glyph unicode="&#x152;" horiz-adv-x="883" d="M37 330q0 162 76.5 259t225.5 97q53 0 89 -9h424v-121h-266v-145h222l-20 -119h-202v-171h280v-121h-423q-40 -6 -107 -6q-299 0 -299 336zM215 341q0 -111 31 -170.5t108 -59.5q36 0 68 4v437q-40 17 -83 17q-124 0 -124 -228z" />
<glyph unicode="&#x153;" horiz-adv-x="781" d="M27 245q0 119 61 193t176 74q100 0 157 -60q65 60 162 60q89 0 132 -41t43 -110q0 -74 -70 -125t-188 -61q15 -67 82 -67q26 0 61.5 8t58.5 16l22 8l30 -104q-91 -45 -197 -45q-98 0 -153 53q-59 -54 -148 -54q-229 0 -229 255zM195 256q0 -147 70 -147q60 0 60 137 q0 147 -70 147q-60 0 -60 -137zM492 276q54 1 81.5 26.5t27.5 54.5q0 19 -10.5 30.5t-27.5 11.5q-35 0 -52 -36.5t-19 -86.5z" />
<glyph unicode="&#x178;" horiz-adv-x="574" d="M-8 677h174l120 -259l123 259h172l-216 -426v-251h-164v260zM102 818q0 34 19.5 56t55.5 22q33 0 52.5 -21.5t19.5 -52.5q0 -34 -19.5 -55.5t-55.5 -21.5q-34 0 -53 21t-19 52zM317 818q0 34 19.5 56t55.5 22q33 0 52.5 -21.5t19.5 -52.5q0 -34 -19.5 -55.5t-55.5 -21.5 q-34 0 -53 21t-19 52z" />
<glyph unicode="&#x2c6;" horiz-adv-x="492" d="M42 631l195 197l194 -197l-61 -74q-73 37 -133 82q-58 -44 -134 -82z" />
<glyph unicode="&#x2dc;" horiz-adv-x="492" d="M74 586v100q39 23 88 23q26 0 79.5 -10t80.5 -10q22 0 42 3.5t29 7.5l9 3v-100q-31 -23 -80 -23q-27 0 -80.5 10t-79.5 10q-22 0 -44 -3.5t-33 -6.5z" />
<glyph unicode="&#x2000;" horiz-adv-x="488" />
<glyph unicode="&#x2001;" horiz-adv-x="976" />
<glyph unicode="&#x2002;" horiz-adv-x="488" />
<glyph unicode="&#x2003;" horiz-adv-x="976" />
<glyph unicode="&#x2004;" horiz-adv-x="325" />
<glyph unicode="&#x2005;" horiz-adv-x="244" />
<glyph unicode="&#x2006;" horiz-adv-x="162" />
<glyph unicode="&#x2007;" horiz-adv-x="162" />
<glyph unicode="&#x2008;" horiz-adv-x="122" />
<glyph unicode="&#x2009;" horiz-adv-x="195" />
<glyph unicode="&#x200a;" horiz-adv-x="54" />
<glyph unicode="&#x2010;" horiz-adv-x="375" d="M42 261v111h291v-111h-291z" />
<glyph unicode="&#x2011;" horiz-adv-x="375" d="M42 261v111h291v-111h-291z" />
<glyph unicode="&#x2012;" horiz-adv-x="375" d="M42 261v111h291v-111h-291z" />
<glyph unicode="&#x2013;" horiz-adv-x="500" d="M0 261v111h500v-111h-500z" />
<glyph unicode="&#x2014;" horiz-adv-x="698" d="M0 261v111h698v-111h-698z" />
<glyph unicode="&#x2018;" horiz-adv-x="249" d="M27 497q0 67 39 126t118 99l57 -79q-60 -45 -60 -113q0 -24 9 -59t10 -41q-1 -2 -9 -7t-30 -11t-50 -6q-84 0 -84 91z" />
<glyph unicode="&#x2019;" horiz-adv-x="253" d="M22 486q61 44 61 112q0 24 -10 60.5t-10 39.5q24 24 90 24q43 0 63 -25t20 -65q0 -68 -38.5 -127t-117.5 -99z" />
<glyph unicode="&#x201a;" horiz-adv-x="249" d="M22 -96q61 44 61 113q0 24 -10 60.5t-10 39.5q24 24 90 24q83 0 83 -91q0 -67 -38.5 -126t-117.5 -99z" />
<glyph unicode="&#x201c;" horiz-adv-x="464" d="M27 497q0 67 39 126t118 99l57 -79q-60 -45 -60 -113q0 -24 9 -59t10 -41q-1 -2 -9 -7t-30 -11t-50 -6q-84 0 -84 91zM242 497q0 67 39 126t118 99l57 -79q-60 -45 -60 -113q0 -24 9 -59t10 -41q-1 -2 -9 -7t-30 -11t-50 -6q-84 0 -84 91z" />
<glyph unicode="&#x201d;" horiz-adv-x="464" d="M22 486q61 44 61 113q0 24 -10 60.5t-10 39.5q24 24 90 24q83 0 83 -91q0 -67 -38.5 -126t-117.5 -99zM237 486q61 44 61 113q0 24 -10 60.5t-10 39.5q24 24 90 24q83 0 83 -91q0 -67 -38.5 -126t-117.5 -99z" />
<glyph unicode="&#x201e;" horiz-adv-x="464" d="M22 -96q61 44 61 113q0 24 -10 60.5t-10 39.5q24 24 90 24q83 0 83 -91q0 -67 -38.5 -126t-117.5 -99zM237 -96q61 44 61 113q0 24 -10 60.5t-10 39.5q24 24 90 24q83 0 83 -91q0 -67 -38.5 -126t-117.5 -99z" />
<glyph unicode="&#x2022;" horiz-adv-x="299" d="M42 316q0 49 29 78t78 29t78 -29t29 -78t-29 -78t-78 -29t-78 29t-29 78z" />
<glyph unicode="&#x202f;" horiz-adv-x="195" />
<glyph unicode="&#x2039;" horiz-adv-x="365" d="M42 245q36 49 93.5 108.5t96.5 94.5l40 34l66 -74l-130 -163l130 -163l-66 -75q-17 14 -43.5 38t-88.5 87t-98 113z" />
<glyph unicode="&#x203a;" horiz-adv-x="365" d="M27 82l130 163l-130 163l66 74q148 -126 230 -237q-36 -50 -93.5 -109.5t-97.5 -93.5l-39 -35z" />
<glyph unicode="&#x205f;" horiz-adv-x="244" />
<glyph unicode="&#x20ac;" horiz-adv-x="620" d="M39 162v117h50q0 1 -0.5 9t-0.5 12t0.5 11t0.5 9h-50v117h66q28 97 98.5 152.5t179.5 55.5q72 0 115.5 -22t78.5 -60l-89 -90q-46 56 -104 56q-76 0 -104 -92h206l-18 -117h-203q0 -1 -0.5 -8t-0.5 -11q0 -10 3 -22h197l-18 -117h-144q32 -52 95 -52q40 0 107 20l36 -112 q-89 -24 -159 -24q-211 0 -270 168h-72z" />
<glyph unicode="&#xe000;" horiz-adv-x="500" d="M0 0v500h500v-500h-500z" />
</font>
</defs>
</svg>
