<?xml version="1.0" standalone="no"?>
<!DOCTYPE svg PUBLIC "-//W3C//DTD SVG 1.1//EN" "http://www.w3.org/Graphics/SVG/1.1/DTD/svg11.dtd" >
<svg xmlns="http://www.w3.org/2000/svg">
<metadata></metadata>
<defs>
<font id="londrina_solidregular" horiz-adv-x="464" >
<font-face units-per-em="1000" ascent="800" descent="-200" />
<missing-glyph horiz-adv-x="238" />
<glyph horiz-adv-x="1000" />
<glyph horiz-adv-x="1000" />
<glyph unicode="&#xd;" horiz-adv-x="1000" />
<glyph unicode=" "  horiz-adv-x="238" />
<glyph unicode="&#x09;" horiz-adv-x="238" />
<glyph unicode="&#xa0;" horiz-adv-x="238" />
<glyph unicode="!" horiz-adv-x="193" d="M32 170q1 52 -1.5 263.5t4.5 268.5h3q7 1 28 3t33.5 3t30.5 0.5t31 -4.5q-6 -369 1 -529q-19 -2 -129 -5h-1zM38 1q-4 7 -3.5 22t3.5 48.5t3 46.5v1q14 6 34.5 6.5t48 -2t39.5 -2.5q-3 -111 -3 -120h-7q-8 0 -19.5 0.5t-18.5 0.5h-2z" />
<glyph unicode="&#x22;" horiz-adv-x="373" d="M34 459v1q0 35 -0.5 74.5t-0.5 58.5t0.5 47.5t2.5 61.5v2h1q3 0 20.5 2t35.5 3.5t34 1t18 -4.5q0 -25 1 -132.5t1 -113.5l-22.5 -0.5t-51 -0.5h-39.5zM147 460zM227 459v1q0 35 -0.5 74.5t-0.5 58.5t0.5 47.5t2.5 61.5v2h1q3 0 20.5 2t35.5 3.5t34 1t18 -4.5 q0 -25 1 -132.5t1 -113.5l-22.5 -0.5t-51 -0.5h-39.5zM340 460z" />
<glyph unicode="#" horiz-adv-x="656" d="M18 262q8 -8 110 -5q2 2 4 6.5t4.5 14.5t6 22.5t10.5 35t16 47.5q-7 0 -138 -1l-2 108h1q25 -8 142 -5h31q0 1 0.5 1t0.5 1q6 12 23.5 67.5t23.5 82.5v1q3 -1 119 -5q0 -1 -44 -147q18 0 56 0.5t63 -0.5q17 26 50 153h2q19 -3 56.5 -2t56.5 -2q1 -3 1 -6t-0.5 -6.5 t-2.5 -9t-3.5 -12t-5.5 -18.5t-7.5 -24.5t-10 -33t-12.5 -42.5q11 0 32 -0.5t31 -0.5v-4l7 -92l-106 -3q-8 -22 -21 -63t-21 -63h23.5t47.5 -1t59 -3q4 -9 4.5 -18.5t0.5 -30t2 -44.5v-2q-19 -2 -37 -2.5t-55 -0.5t-79 -1h-3q-2 -3 -11.5 -31t-23 -64t-24.5 -57l-1 -1h-2 h-114q8 31 26.5 82.5t24.5 73.5h-1q-25 2 -116 0q-7 -22 -11.5 -34t-7.5 -18t-10.5 -23.5t-17.5 -44.5q-6 -21 -14 -35q-2 -2 -8 -2q-42 3 -107 0q4 20 10.5 42.5t11 35t15.5 41t14 36.5q-10 0 -32.5 -1.5t-33.5 -0.5q-1 16 -1.5 34t-1 40.5t-0.5 34.5zM247 257l125 1v1 q1 1 1 2q5 22 20 62t20 60v1h-2q-86 2 -119 2h-2v-1q-8 -21 -22 -63.5t-21 -64.5z" />
<glyph unicode="$" horiz-adv-x="438" d="M16 191q0 18 0.5 25.5t5 14.5t14 9t26.5 2q3 0 39 -3q6 -1 23 -1t24.5 -1.5t14.5 -9t7 -21.5q0 -6 0.5 -16t0.5 -15q0 -44 42 -44q17 0 31.5 10.5t14.5 25.5q0 38 -30.5 73t-81.5 74t-69 59q-54 61 -54 134q0 54 36 90t90 52q3 1 4 3t0 5.5t-1 5.5q0 3 -2.5 37t-2.5 37 q0 4 2 7t5.5 5t7.5 3t10.5 1h10.5h11.5h10.5q86 -12 86 -13v-82q0 -13 13 -14q34 -3 61.5 -28.5t41.5 -54.5t14 -93q0 -26 -34 -26h-16q-10 0 -28 -1t-28 -1q-29 0 -40.5 12.5t-10.5 28t-6.5 28t-28.5 12.5q-16 0 -31.5 -14t-15.5 -31t9.5 -33.5t29.5 -34t35 -29t42.5 -30 t36.5 -24.5q37 -27 59.5 -74t22.5 -91q0 -68 -59 -116q-5 -5 -32 -21.5t-31 -16.5q0 -4 -0.5 -35t-0.5 -36v-4q0 -27 -38 -27q-6 0 -20 -0.5t-22 -0.5h-28q-25 0 -32 14t-3 32t-2 36.5t-28 25.5q-67 22 -86.5 62.5t-19.5 117.5z" />
<glyph unicode="%" horiz-adv-x="610" d="M20 513l2 25q1 5 2.5 21.5t3 24.5t5 21t8.5 22.5t13 17.5q30 37 74 38q47 2 75.5 -28.5t37.5 -75.5q5 -36 4 -58q2 -42 -8 -81.5t-39 -69.5t-72 -28q-27 2 -48 13q-38 25 -49 73l-3.5 28t-4.5 31v1zM99 552l5 -73q1 -7 1.5 -19.5t0.5 -18.5q0 -12 10 -17.5t22 -1.5 q4 1 7 3t5 3.5t3.5 5t2.5 5t2 5.5t1.5 5.5t1.5 6.5t1 6q0 2 0.5 5.5t0.5 5.5q5 68 -9 119q0 1 -1 2t-2 3q-13 17 -30 8q-25 -8 -22 -52v-1zM112 -1q-8 0 22 79q4 10 4 12q17 54 32 88q7 25 94 260q9 23 22 65.5t16 50.5q2 3 9.5 24.5t19 59t20.5 71.5q15 -3 68 -1t64 -7 q-2 -4 -3.5 -9t-2.5 -9q-3 -11 -44 -145q-3 -10 -17.5 -49.5t-21.5 -60.5q-10 -28 -29 -87.5t-35 -104.5t-32 -85l-57 -144q-1 -3 -3 -5q-7 -1 -17.5 -1t-40.5 -0.5t-67 -1.5h-1zM363 196l2 25q1 5 2.5 21.5t3 24.5t5 21t8.5 22.5t13 17.5q30 37 74 38q47 2 75.5 -28.5 t37.5 -75.5q5 -36 4 -58q1 -30 -5 -60.5t-19 -58.5t-37.5 -45t-57.5 -15q-27 2 -48 13q-15 10 -25 21t-15 23t-9 29q-1 8 -2.5 19.5t-3 21.5t-2.5 18v1zM442 235l5 -73q1 -7 1.5 -19.5t0.5 -18.5q0 -8 5 -13.5t12 -6.5t15 1q4 1 7 3t5 3.5t3.5 5t2.5 5t2 5.5t1.5 5.5 t1.5 6.5t1 6q0 2 0.5 5.5t0.5 5.5q5 68 -9 119q0 1 -1 2t-2 3q-13 17 -30 8q-25 -8 -22 -52v-1z" />
<glyph unicode="&#x26;" horiz-adv-x="576" d="M24 220q0 96 100 190q-77 103 -77 170q0 62 59.5 106.5t133.5 44.5q75 0 123.5 -45t48.5 -107q0 -29 -11 -55t-36 -63t-29 -44q-7 -10 -7 -13l-1 -4q0 -4 0.5 -7.5t1 -10t3.5 -14.5t7.5 -17.5t12.5 -22t18 -26.5q10 16 10 40q6 46 58 46h71q19 0 28 -7.5t9 -29.5 q0 -38 -29 -106q-4 -10 -8 -21q-2 -2 -5 -9t-5 -10q-17 -36 -17 -40t3.5 -9t11 -14t11.5 -14v1q44 -55 50 -86v-9q-3 -16 -16.5 -24t-26 -9.5t-34.5 -1.5h-5q-40 0 -61 6.5t-48 32.5q-50 -34 -143 -39q-93 0 -147 67t-54 154zM176 200q7 -61 65 -61q6 0 27 3q25 9 25 12 q0 2 2 16.5t3 29t-2 33t-10.5 31t-26 20t-45.5 3.5q-18 -2 -30 -32t-8 -55zM197 577q0 -21 11 -49t20 -26v-1q32 5 32 96q0 21 -20 21q-43 0 -43 -41z" />
<glyph unicode="'" horiz-adv-x="175" d="M32 459v1q0 30 -0.5 61.5t-0.5 50v39.5t1 42.5t2 48.5v2h1q3 0 20.5 2t35.5 3.5t34 1t18 -4.5q0 -25 1 -132.5t1 -113.5l-22.5 -0.5t-51 -0.5h-39.5zM145 460z" />
<glyph unicode="(" horiz-adv-x="314" d="M24 203q7 161 6 217v24q0 20 0.5 44.5t1 46t6 44.5t16.5 42q46 88 150 90q41 -2 73 -6l1 -1q2 -14 2.5 -31.5t0 -30t-1.5 -32.5t-1 -29q-82 -24 -92 -80q-9 -27 -18 -121q0 -11 -0.5 -53.5t1.5 -70.5t9 -53q14 -32 43.5 -52.5t59.5 -21.5h1v-5q-2 -17 -2 -58t-1 -57 q-7 -9 -42 -9h-17q-103 5 -158 80q-1 1 -4 7q-28 51 -34 116z" />
<glyph unicode=")" horiz-adv-x="314" d="M31 124v5h1q30 1 59.5 21.5t43.5 52.5q7 25 9 53t1.5 70.5t-0.5 53.5q-9 94 -18 121q-10 56 -92 80q-3 102 0 123l1 1q32 4 73 6q104 -2 150 -90q11 -19 16.5 -42t6 -44.5t1 -46t0.5 -44.5v-24q-1 -56 6 -217q-6 -65 -34 -116q-3 -6 -4 -7q-35 -48 -93 -69 q-29 -9 -65 -11h-17q-35 0 -42 9q-2 17 -2 57t-1 58z" />
<glyph unicode="*" horiz-adv-x="370" d="M19 613q5 2 42 39.5t45 43.5l1 1q3 -1 20 -16.5t36 -33t23 -20.5l74 68l84 -84q-2 -13 -32 -42.5t-34 -39.5q3 0 35.5 -39t34.5 -40q1 -5 -5 -12t-14.5 -14.5t-9.5 -9.5l-65 -52q-2 -2 -3 0q-13 17 -19 19q-46 46 -53 49q-6 -3 -31.5 -28t-34.5 -31q-4 -4 -7 -4 q-68 64 -86 79q4 6 15.5 19t28.5 31t25 27q1 1 -1 5q-4 8 -35.5 43.5t-33.5 41.5z" />
<glyph unicode="+" horiz-adv-x="432" d="M13 384q5 -1 63 3.5t64 6.5q0 67 9 130q0 -7 70 -5t75 1q0 -118 2 -124q13 -1 58.5 -1t62.5 -3q-1 -23 -1 -70.5t-3 -74.5q-3 -2 -57.5 -2.5t-61.5 -4.5q2 -13 -2.5 -65t-4.5 -57v-2q-6 -4 -38 -3.5t-71.5 1.5t-41.5 0q-1 1 -1 3q-3 22 -2 49t0 53q0 18 -2 20h-2 q-22 0 -67 3t-45 9q1 20 0 45.5t-2.5 56t-1.5 31.5z" />
<glyph unicode="," horiz-adv-x="171" d="M21 4q0 28 4 115v1h1q12 4 27.5 5t27 0t32.5 -3t33 -3h1l-4 -115h-2l-1 -1v-2q0 -3 -2 -11t-2 -11l-8 -40q-1 -6 -3.5 -19t-4.5 -20q-1 0 -69 2q-2 2 2 18l10 40t8 39l-47 4q-2 0 -3 1z" />
<glyph unicode="-" horiz-adv-x="512" d="M31 202q0 18 1.5 88.5t1.5 71.5h443q0 -19 -1 -53t-0.5 -62t4.5 -52h-1q-11 0 -224 3.5t-224 3.5z" />
<glyph unicode="." horiz-adv-x="188" d="M33 117q19 8 65.5 8t59.5 -6l-2 -25q-1 -26 -2.5 -55t-1.5 -37v-2h-2l-113 1h-3q-2 13 -2.5 36.5t0.5 50t1 29.5z" />
<glyph unicode="/" horiz-adv-x="394" d="M16 -1q-5 0 1 20t15 44t10 27q17 54 32 88q7 25 94 260q9 23 22 65.5t16 50.5q2 3 9.5 24.5t19 59t20.5 71.5q15 -3 68 -1t64 -7q-2 -4 -3.5 -9t-2.5 -9q-3 -11 -44 -145q-3 -10 -17.5 -49.5t-21.5 -60.5q-10 -28 -29 -87.5t-35 -104.5t-32 -85l-57 -144q-1 -3 -3 -5 q-7 -1 -17.5 -1t-40.5 -0.5t-67 -1.5h-1z" />
<glyph unicode="0" horiz-adv-x="517" d="M31 315q-2 55 -2.5 104t12 103t40.5 96q4 7 10 13q67 75 155 79q96 3 155.5 -60.5t77.5 -156.5q12 -72 8 -120q3 -62 -9 -126t-39 -122t-78 -92.5t-118 -30.5q-37 1 -70 13q-39 14 -66.5 40t-41.5 51.5t-21.5 67.5t-9.5 68t-3 73zM182 448q-12 -141 9 -218 q2 -4 5.5 -17.5t6 -20.5t9.5 -14t18 -9q22 -7 37 -2q28 8 41 48q5 15 7 29.5t3 37t2 30.5q7 169 -28 220q-23 29 -61 16q-21 -5 -34 -27q-8 -12 -15 -73z" />
<glyph unicode="1" horiz-adv-x="358" d="M6 489q3 29 56 120t65 103q62 2 91 2q57 0 105 -4q5 -71 5 -168q0 -76 -5.5 -227t-5.5 -227q0 -47 1 -70q0 -18 -61 -18q-35 0 -98 7v98q0 65 6 192t6 192q0 11 -1 18q-4 1 -9 -7.5t-9 -19t-11 -19.5t-14 -9q-13 0 -67 14.5t-54 22.5z" />
<glyph unicode="2" horiz-adv-x="501" d="M32 2q2 24 2.5 82.5t7 96t25.5 69.5q37 41 113.5 87.5t99.5 65.5q26 17 33.5 50t-6.5 61t-44 32q-19 0 -32.5 -8.5t-21 -19.5t-12 -30t-6 -31.5t-2.5 -31.5v-2h-1q-94 -11 -148 -5h-1v2q-25 146 50 231q25 32 81 47.5t112 12.5t93 -18q86 -44 98 -167q3 -73 2 -90 q-4 -51 -36 -87t-70 -53t-83.5 -42t-68.5 -53q-21 -54 -11 -58q28 -2 124.5 0t122.5 2q9 -23 7 -96q0 -37 2 -44q0 -1 -4 -1l-380 -5h-45q-1 1 -1 3z" />
<glyph unicode="3" horiz-adv-x="476" d="M22 218q0 1 1 1h1q19 -1 62 5t68 4h1l1 -1q8 -25 33 -43.5t52 -19.5t49 25q13 20 8.5 46t-24.5 41q-39 28 -110 13q-10 9 -6.5 67.5t1.5 70.5v1q13 5 54 5t64 12t21 50q-1 42 -33 50.5t-66 -10t-45 -46.5q-14 -2 -132 -2v2q0 6 -1.5 27.5t-0.5 37t6 28.5q14 46 54 77.5 t91 41.5t103.5 6t96 -26.5t63.5 -57.5q16 -26 14 -72q4 -161 -2 -331q-1 -9 -1.5 -29t-1.5 -31t-4.5 -27t-9.5 -29q-30 -70 -100 -93q-66 -20 -163 -7q-4 1 -55 14q-29 8 -47 26q-28 28 -33 71q-3 16 -5 50t-4 53z" />
<glyph unicode="4" horiz-adv-x="468" d="M11 339q8 12 31.5 55.5t72 126t114.5 180.5q0 1 1 1q2 0 41.5 1t68 1.5t47.5 -0.5h2q0 -1 -0.5 -20.5t-1.5 -50.5t-2 -69t-2 -76.5t-1.5 -72t-0.5 -57t1 -29.5q2 2 33.5 0.5t33.5 -1.5l-6 -145q-11 -4 -31 -2.5t-30 -0.5q-10 -160 -14 -176q-2 -3 -8.5 -4.5t-20 -2 t-26.5 -0.5h-40.5h-48.5q-1 1 1.5 47t6 94.5t3.5 50.5q-6 2 -59.5 2t-103.5 0.5t-51 2.5q-14 42 -10 145zM130 328q13 0 30 -0.5t59 -1.5t43 1l3 214q-3 18 -117 -181z" />
<glyph unicode="5" horiz-adv-x="496" d="M23 696h1q2 0 68 1.5t140 3t142.5 2.5t75.5 -1q2 0 1.5 -24t-1.5 -50t-2 -50l-1 -24q-13 -2 -77.5 -3.5t-121.5 -2.5t-74 -1h-1v-3l0.5 -1t0.5 -2q1 -3 2.5 -17.5t5.5 -18.5h1q57 11 105 2q47 -7 81.5 -33t53.5 -63.5t30 -84.5t10 -95.5t-6 -96.5q-10 -45 -46.5 -78.5 t-84.5 -49t-102 -15t-98.5 17t-73.5 55t-28 92.5q0 26 6 58v2l142 5v-1v-2l1 -2q4 -35 21 -49.5t42 -8.5q44 8 60.5 50.5t0.5 86t-54 55.5q-32 6 -112.5 2t-103.5 -2q-2 0 -2 1q0 67 -1 175t-1 170z" />
<glyph unicode="6" horiz-adv-x="521" d="M43 489q0 4 1.5 35t6.5 47q2 9 5 14q25 57 93.5 90t144.5 33q92 2 143 -69t28 -154q-23 -4 -72 -5t-60 -2h-2v1q-2 47 -23 69q-15 15 -36.5 14.5t-36.5 -15.5q-22 -19 -27.5 -54t-1.5 -92t3 -75v-1q28 15 51 22q77 19 121 7q42 -13 69 -43q26 -25 34 -84l2 -24 q8 -76 -34 -126.5t-107.5 -68t-142.5 -9.5q-64 11 -102.5 62t-49 120.5t-13 151.5t5.5 156zM260 219q-11 -19 -5 -37t22 -27q30 -14 61 3q25 12 29 33v13q0 30 -21 40.5t-46 2t-40 -27.5z" />
<glyph unicode="7" horiz-adv-x="481" d="M25 7q32 69 125 260t138 294q-186 12 -255 9h-2q2 18 5 136v1q10 0 101.5 2.5t125.5 2.5t98 -1t110 -6v-1q-2 -13 -0.5 -69.5t1.5 -69.5q-46 -106 -155 -302t-140 -256q-12 0 -45.5 -2.5t-61 -2.5t-45.5 5z" />
<glyph unicode="8" horiz-adv-x="540" d="M105 57q-32 40 -42.5 93.5t4.5 108.5t55 93q-38 39 -49 99.5t4 116t57 96.5t101 44q79 3 115.5 -1t67.5 -22q3 -2 8.5 -6t8.5 -6t7.5 -6.5l8.5 -8.5t9 -11.5l11 -16.5q15 -26 25 -89q2 -14 2 -18v-28q0 -19 -4 -31q-17 -72 -73 -118v-1q47 -35 64.5 -91.5t4.5 -112.5 t-49 -96q-33 -39 -101.5 -52t-136 4.5t-98.5 59.5zM230 504q-3 -24 9 -44.5t38 -22.5q35 -3 46 32q11 32 -11 52q-18 16 -50 8q-7 -2 -8 -3q-3 -1 -12 -8q-1 -1 -4 -3.5t-5 -4.5t-2 -3q-1 0 -1 -1v-2zM247 178q15 -7 39 -6t33 10q8 5 17 31l0.5 2t0.5 4q0 30 -24.5 47 t-54.5 10q-19 -7 -29.5 -27t-6.5 -41t25 -30z" />
<glyph unicode="9" horiz-adv-x="489" d="M22 217v5q14 0 51 2.5t54 2.5t52 -3q6 -21 23.5 -35t39.5 -12q60 7 53 123l-1 1q-68 -27 -136.5 -4t-106.5 81q-27 40 -30.5 109t15.5 111q14 25 22 34q61 72 190 77q9 0 33.5 -0.5t36 -1.5t32 -4t33 -8.5t26 -16t23.5 -25.5q15 -22 22.5 -55t9 -58.5t2.5 -68.5l2 -148 q3 -117 1 -131q-12 -82 -50 -135q-40 -48 -116.5 -58.5t-149.5 15t-107 75.5q-35 51 -24 128zM193 504q2 -23 7 -37v-1q14 -30 51.5 -32t52.5 23q11 19 11 38q2 30 -29 46t-62 1q-31 -13 -31 -38z" />
<glyph unicode=":" horiz-adv-x="189" d="M33 117q19 8 65.5 8t59.5 -6l-2 -25q-1 -26 -2.5 -55t-1.5 -37v-2h-2l-113 1h-3q-2 13 -2.5 36.5t0.5 50t1 29.5zM33 453q19 8 65.5 8t59.5 -6l-2 -25q-1 -26 -2.5 -55t-1.5 -37v-2h-2l-113 1h-3q-2 13 -2.5 36.5t0.5 50t1 29.5z" />
<glyph unicode=";" horiz-adv-x="176" d="M23 4q0 28 4 115v1h1q12 4 27.5 5t27 0t32.5 -3t33 -3h1l-4 -115h-2l-1 -1v-2q0 -3 -2 -11t-2 -11l-8 -40q-1 -6 -3.5 -19t-4.5 -20q-1 0 -69 2q-2 2 2 18l10 40t8 39l-47 4q-2 0 -3 1zM24 453q19 8 65.5 8t59.5 -6l-1 -25q-2 -26 -3.5 -55t-1.5 -37v-2h-2l-113 1h-3 q-2 13 -2.5 36.5t0.5 50t1 29.5z" />
<glyph unicode="&#x3c;" horiz-adv-x="355" d="M4 270q22 28 53.5 61.5t73.5 76t61 61.5q40 42 57 59q12 -7 38.5 -34t37.5 -35q-19 -24 -84.5 -91.5t-91.5 -100.5q27 -24 88.5 -85t96.5 -89q-17 -15 -31 -30t-47 -44q-27 27 -80 74t-96 89.5t-76 87.5z" />
<glyph unicode="=" horiz-adv-x="447" d="M31 119q0 16 1.5 75.5t1.5 61.5h379q0 -16 -1 -45.5t-0.5 -53.5t4.5 -44h-1q-10 0 -192 3t-192 3zM31 326q0 16 1.5 75.5t1.5 61.5h379q0 -16 -1 -45.5t-0.5 -53.5t4.5 -44h-1q-10 0 -192 3t-192 3z" />
<glyph unicode="&#x3e;" horiz-adv-x="356" d="M22 93q35 28 96.5 89t88.5 85q-27 32 -91.5 99.5t-84.5 92.5q11 7 37 34.5t39 34.5q17 -17 57 -59q19 -19 61 -61.5t73.5 -76t53.5 -61.5q-45 -59 -138.5 -145t-112.5 -105l-1 -1q-24 21 -51 48l-16 16z" />
<glyph unicode="?" horiz-adv-x="449" d="M11 498v1q4 79 59.5 141.5t137.5 66.5q94 8 160.5 -50t56.5 -146q-6 -55 -47 -106q-11 -15 -30.5 -35.5t-29.5 -33.5q-35 -49 -49 -122q-7 -24 -4 -34v-1q-22 -3 -61.5 -2t-61.5 0h-1q-4 4 -4 22l2 38q13 81 39 119q7 13 26 38t32.5 45.5t23.5 43.5t2.5 40.5t-34.5 27.5 q-21 11 -36 4.5t-21.5 -17.5t-16.5 -24.5t-21 -17.5q-29 -2 -41 -1.5t-40.5 2t-40.5 1.5zM137 117q19 8 65.5 8t59.5 -6l-2 -25q-1 -26 -2.5 -55t-1.5 -37v-2h-2l-113 1h-3q-2 13 -2.5 36.5t0.5 50t1 29.5z" />
<glyph unicode="@" horiz-adv-x="554" d="M27 376v30q2 122 50 184q42 53 146 66q15 3 51 3t83 -7q62 -8 107 -50q28 -25 43 -68t17.5 -74t2.5 -80v-54q0 -53 -6 -90q-7 -38 -36.5 -59.5t-72.5 -22.5q-33 0 -59 33q-33 -27 -81 -27q-52 0 -85 36q-31 36 -29 119q2 65 42 111q16 21 52.5 37t74.5 16q37 0 62 -17 q11 -13 10 -34q0 -4 -0.5 -13.5t-0.5 -15.5q-1 -17 -1 -58q0 -100 21 -104q7 5 11.5 34t4.5 49q1 22 -1 60v28q-6 111 -71 147q-42 19 -98 19q-63 0 -99 -36q-18 -19 -28 -51t-12 -53.5t-4 -61.5q-1 -15 -1 -45q0 -67 10 -126q13 -85 57 -113q32 -19 99 -19q91 0 201 55 l38 -82q-102 -65 -238 -65q-76 0 -123.5 16.5t-79.5 59.5q-18 26 -33 69t-17 73q-7 119 -7 181zM243 286q0 -18 13 -27t30 -1q27 11 27 62q0 62 5 62q-47 5 -61 -23q-14 -22 -14 -70v-3z" />
<glyph unicode="A" d="M16 2q1 3 20 113t55 276.5t78 308.5q14 2 20.5 1t35.5 0t67 4q73 -316 82 -354l75 -350v-1q-59 -12 -134 4h-1q-7 19 -22 80.5t-25 82.5q-5 4 -32.5 2.5t-29.5 -1.5q-8 -19 -20 -81t-24 -86q-1 0 -3 -1q-13 -1 -21 -0.5t-44.5 1t-74.5 0.5q-1 0 -2 1zM198 286h74 q-24 207 -37 209q-5 1 -10 -19q-3 -11 -27 -190z" />
<glyph unicode="B" horiz-adv-x="485" d="M32 692l1 1q51 14 103 19.5t105.5 -1.5t95 -28t67.5 -66t26 -109q0 -74 -49 -156q-5 -9 5 -21q15 -18 18.5 -22.5t16 -21.5t15.5 -24.5t10.5 -24t9 -29t1.5 -29.5t-3 -35q-6 -34 -21 -60.5t-33.5 -42.5t-47.5 -26.5t-53.5 -14.5t-61 -5t-61 0t-62.5 3l-57 3q-17 0 -22 2 q-5 94 -3 343.5t0 344.5zM171 544q1 -7 -1 -56t5 -68q94 -12 116 30q21 37 9 60q-15 29 -49 37q-56 10 -80 -3zM174 281q-25 -99 3 -140l2 -1q3 0 22 -0.5t27 0t22.5 2.5t24 8t17.5 15q21 28 3 74q-14 27 -43 34q-15 4 -44 5.5t-34 2.5z" />
<glyph unicode="C" horiz-adv-x="527" d="M27 537q-4 30 11 67q18 53 55 87q20 15 51 23q53 17 108.5 10t98 -34t74 -68.5t38.5 -93t-10 -107.5q-54 -12 -146 4q-2 11 -3 34t-3 37.5t-8 30.5t-20 24t-36 7q-41 -7 -50 -16q-3 -2 -6 -13q-2 -4 -4.5 -57t-3 -115.5t3.5 -112.5q8 -78 57 -92q52 -5 71 35q9 18 10 53 t3 46q14 -2 67 -1t67 -5q19 -72 2 -136t-71.5 -109t-125.5 -46q-51 -7 -99 3t-85.5 43.5t-42.5 86.5q-7 133 -3 415z" />
<glyph unicode="D" horiz-adv-x="482" d="M39 687q1 1 1.5 2t1.5 2q34 8 74.5 10t91 0.5t75.5 -0.5q45 -12 81 -50t56 -83t32 -98q7 -21 9 -63q-1 -15 -2 -46.5t-2 -49.5t-3.5 -44.5t-6.5 -47.5q0 -1 -0.5 -1t-0.5 -1q-33 -95 -127 -212q-88 -3 -263 -3l-1 -1q-13 94 -15.5 207t-0.5 258t0 221zM181 481 q2 -36 1 -123t1 -136q15 -13 68 -6q3 0 18 6q16 10 31 32q39 59 24 125q-4 19 -7.5 32.5t-11 30t-19 27.5t-27.5 17q-43 6 -75 -1h-3v-4z" />
<glyph unicode="E" horiz-adv-x="490" d="M41 5q0 76 -2.5 216.5t-2.5 253t6 214.5q117 6 265 8t149 -2q3 -21 3 -44.5t-1.5 -52.5t-1.5 -45v-1q-48 -11 -129.5 -10t-132.5 -2h-3l-1 -1q0 -7 -2.5 -60t3.5 -57l1 -1q18 -1 38.5 -1.5t45.5 -1t39 -0.5v-1q5 -4 3.5 -68t-1.5 -71q-20 -6 -67 -6t-54 -5q-8 -43 0 -125 l1 -1q34 0 122.5 -3.5t139.5 -1.5v-2q6 -81 -8 -131q-47 0 -131 -1.5t-153 -1.5t-126 5z" />
<glyph unicode="F" horiz-adv-x="488" d="M30 2q0 112 1 312.5t1 364.5v1q39 7 120 12.5t178.5 4t148.5 -14.5q0 -10 0.5 -43.5t0.5 -61.5t-1 -43q-20 -1 -119.5 -6t-147.5 -10q-21 -49 2 -90q1 -1 2 -1q54 -7 126 0q4 -11 2.5 -71.5t0.5 -92.5q0 -2 -3 -2q-20 -3 -64 -7t-64 -8h-1q-6 -68 -8 -245 q-44 -4 -103.5 -4.5t-71.5 5.5z" />
<glyph unicode="G" horiz-adv-x="488" d="M27 416q2 81 10 131q13 83 59 115q33 28 97 37q76 10 136.5 -11t94.5 -75t25 -132l-1 -6q-2 -3 -32 -4q-70 0 -94 3q-25 83 -68 83q-16 2 -33.5 0.5t-27.5 -11.5q-5 -5 -11 -27q-14 -46 -18 -130.5t3 -157.5q7 -68 33 -89q30 -20 85 0q25 11 31 36q3 12 4.5 33t-3.5 27 q-7 1 -38 0t-36 2q-2 21 -2 51t-2 54v1q0 1 1 1t2 1q15 9 58 10t94 -2.5t53 -3.5h2l1 -1q16 -139 0 -226q-9 -87 -95 -119q-136 -39 -212 -7q-52 22 -74.5 66.5t-31.5 121.5q-13 136 -10 229z" />
<glyph unicode="H" horiz-adv-x="491" d="M34 698v1h3q19 -4 64.5 -0.5t62.5 -2.5q5 -40 8.5 -128.5t12.5 -134.5h1q26 -6 108 1h1q10 116 4 261q53 17 137 11l27 -700q-27 -5 -79 -5t-61 -1h-1q-7 46 -8.5 140.5t-6.5 135.5l-1 1q-60 11 -116 -2q-4 -41 -1.5 -137t-4.5 -131q-18 -10 -71.5 -5t-64.5 -1 q-7 93 -12 323t-2 374z" />
<glyph unicode="I" horiz-adv-x="248" d="M37 -4q9 115 2 361.5t6 348.5v2q4 1 21 -0.5t20 -1.5q83 -3 110 -3h24v-4q0 -78 -3 -231.5t-3.5 -233t5.5 -229.5q-4 -13 -88.5 -10t-93.5 1z" />
<glyph unicode="J" horiz-adv-x="469" d="M10 288q61 14 155 -2v-6q8 -111 60 -114q28 -6 43 15.5t18 54.5q-6 304 -1 467v7l146 2q-1 -62 2.5 -190t1.5 -193q-1 -12 -1.5 -48t-2 -54.5t-5 -51t-11.5 -52.5t-19.5 -43t-31 -38.5t-45.5 -25.5q-79 -39 -187 -16q-39 11 -65.5 43t-38.5 75.5t-16 85t-2 84.5z" />
<glyph unicode="K" horiz-adv-x="485" d="M40 5q-8 56 -3 345.5t5 348.5q25 1 71 -0.5t63 -1.5q1 -38 1 -120t1 -120q0 1 5 6q29 38 71.5 118t68.5 117q16 -1 68 0t68 -3q-18 -63 -85 -178t-85 -158l171 -355q-15 -3 -34.5 -4t-34 -0.5t-37.5 1.5t-33 1q-33 38 -81.5 142t-56.5 119q-2 -44 0.5 -140t2.5 -118 q-29 -7 -73.5 -6.5t-72.5 6.5z" />
<glyph unicode="L" horiz-adv-x="462" d="M30 -1v18q4 88 5.5 154t1.5 142v107.5t-1.5 138t-2.5 144.5q19 9 76 8.5t84 -11.5q-3 -79 -0.5 -271t1.5 -270v-1q14 4 130 -2t129 -4q0 -7 -1.5 -29t-0.5 -32q2 -37 2.5 -53.5t-3 -26t-7 -10.5t-14.5 -1h-4q-9 1 -43 0t-112.5 -2.5t-239.5 1.5z" />
<glyph unicode="M" horiz-adv-x="485" d="M34 686q5 7 65 5.5t71 -0.5h1q14 -15 35.5 -76t30.5 -75q3 -3 6 -3q2 -1 6.5 12t10.5 33t13 41.5t14.5 41t14.5 28.5q16 -1 37.5 0t58 2.5t52.5 1.5q-2 -60 0.5 -189.5t-1.5 -189.5l-3 -319q-18 2 -42 2.5t-53 -0.5t-37 -1q-1 18 -3.5 170.5t-10.5 218.5 q-7 -11 -20.5 -48.5t-25.5 -67.5t-17 -30q-4 0 -9.5 8t-11.5 20.5t-11.5 27.5t-11 29.5t-9.5 27t-6 19.5l-3 7q-12 -141 3 -379q-19 -3 -42 -4t-56 0t-42 1q-7 0 -7.5 143.5t3.5 542.5z" />
<glyph unicode="N" horiz-adv-x="480" d="M31 432q0 159 9 268q17 4 45 4q19 0 51 -3t32 -7q10 -26 25.5 -56t26.5 -56q7 -17 44.5 -92t39.5 -75q7 5 7 55q0 27 -1.5 74.5t-1.5 70.5t2 89q34 6 72 6t66 -6v-322q1 -56 1 -171q0 -20 -0.5 -56.5t-0.5 -54.5q0 -14 0.5 -40t0.5 -40v-20q-15 -5 -33 -5q-14 0 -46 2.5 t-46 2.5q-13 28 -41.5 90.5t-47 105.5t-32.5 81l-10 30q-10 30 -13 30q-7 0 -7 -254q0 -60 1 -83q-19 -5 -44 -5q-16 0 -48.5 3t-47.5 3v70q0 64 -1.5 181.5t-1.5 179.5z" />
<glyph unicode="O" horiz-adv-x="483" d="M32 482q1 60 18.5 113.5t57.5 75.5q65 33 149 29t140 -47q29 -26 41 -61q10 -23 16 -62q4 -41 2 -99q-2 -33 -2 -101t-3 -104l-3 -33q-5 -82 -38 -135q-30 -41 -103 -61q-50 -15 -114 -10q-49 4 -82.5 19t-49.5 51q-22 38 -24 111q-1 20 -3.5 75.5t-3.5 84t-0.5 73 t2.5 81.5zM139 311q1 -9 6 -62t13 -79q19 -40 69.5 -44t81.5 31q9 12 13 21t4.5 14.5t1 22.5t1.5 33q0 11 0.5 24t1 20t0.5 8v48l-2 68l-1 9.5t-2 23.5t-1 24q-5 62 -52 85q-39 16 -78 -14q-35 -28 -47 -69q-14 -66 -9 -164z" />
<glyph unicode="P" horiz-adv-x="484" d="M30 695q66 18 138.5 18t141.5 -18t116 -70.5t51 -133.5v-1q0 -18 -1 -26q-12 -95 -95 -156t-178 -45q1 -15 1 -34.5t0.5 -77t2.5 -139.5v-1q-1 0 -3 -1q-26 -7 -80.5 -7.5t-86.5 3.5q-4 97 -3.5 334t-3.5 355zM176 555q2 -27 1 -51.5t0.5 -52.5t7.5 -46h3q7 0 32.5 1 t38.5 2.5t31.5 8t29.5 17.5q17 22 12.5 53t-30.5 46q-51 41 -123 23q-2 0 -3 -1z" />
<glyph unicode="Q" horiz-adv-x="499" d="M33 307v47.5v54.5t1 51.5t3.5 56.5t7 50t10.5 51q14 42 69.5 69t131.5 27q33 0 51.5 -1.5t40.5 -7t36.5 -17.5t29.5 -33t28 -53q29 -91 29 -234q0 -64 -3 -104q-1 -11 -1.5 -31.5t-2 -37t-5.5 -30.5q-4 -33 -28 -87q19 -23 19 -30q0 -9 -4.5 -16.5t-8.5 -10.5t-14 -11 q-28 -18 -43 -18q-6 0 -18 11t-19 21q-12 -14 -45 -23t-64 -7q-85 6 -141 60q-11 10 -19.5 21.5t-15 25.5t-11 24.5t-7 28.5t-4.5 27.5t-2.5 31t-0.5 29.5v33v32zM156 343q0 -5 -0.5 -35.5t-0.5 -50.5t2 -46t7 -40q21 -56 90 -56q11 0 18 1l-5 5l-5.5 5.5l-5.5 5.5t-6 6.5 t-5 6.5t-5 6.5t-4.5 6.5t-3.5 7.5l-2 7t-1 6.5q0 9 4 13.5t14.5 10t14.5 8.5q3 2 6.5 5t6.5 5.5t6.5 5t7.5 4t8 1.5q7 0 13.5 -8.5t13 -21.5t13.5 -20q1 7 4 32t4 31q1 10 1 116q0 56 -7 123q-3 39 -22.5 60t-63.5 21q-57 0 -71.5 -13t-18.5 -64q-7 -78 -7 -145z" />
<glyph unicode="R" horiz-adv-x="568" d="M30 699q41 6 61.5 8.5t59 6.5t73.5 3.5t69 -4.5q46 -2 87 -22.5t68 -53.5t41 -73t9.5 -85t-28.5 -86q-42 -82 -130 -87h-5v-1q20 -35 59.5 -92.5t70 -109t48.5 -100.5q-7 0 -78 -2.5t-87 0.5h-1q-72 168 -139 251l-2 3q-6 -49 5 -244q-20 -8 -60 -10t-75 -1t-39 0 q4 0 4 160.5t-3 334t-8 204.5zM176 559q1 -14 1.5 -60t3.5 -63h1q62 -6 101 0q24 5 35 29t6 50.5t-23 40.5q-40 37 -125 3z" />
<glyph unicode="S" horiz-adv-x="550" d="M59 200v6q9 5 77.5 3t75.5 -2q3 -44 47 -59q42 -15 71 10q23 19 17 55q-1 10 -4.5 19t-10.5 16t-13 12.5t-17 10.5t-17.5 7.5t-20.5 6t-19.5 4.5t-21.5 4t-19 4q-35 7 -68 34q-44 42 -59 96.5t-2.5 103.5t46.5 90.5t81 61.5q51 19 111.5 15.5t110.5 -26.5 q51 -26 75.5 -76.5t10.5 -121.5h-1q-91 -15 -150 1q8 34 -21.5 55t-64 13t-39.5 -43q-2 -7 0 -27q12 -35 65 -43q53 -6 98 -34t75 -71q34 -44 37.5 -104.5t-21.5 -110.5q-23 -59 -75.5 -88t-117.5 -27q-60 2 -114.5 25.5t-90 71.5t-31.5 108z" />
<glyph unicode="T" horiz-adv-x="461" d="M19 704q87 2 210.5 1.5t211.5 -10.5q6 -87 -4 -155q-23 5 -122 0h-3v-1q-1 -1 -1 -2q-4 -20 5 -529v-2q-25 -4 -82.5 -3.5t-81.5 -3.5q-1 3 0.5 54.5t0.5 183.5t-8 295l-1 1q-18 9 -67.5 10t-52.5 2q-4 8 -5.5 58.5t1.5 98.5v1z" />
<glyph unicode="U" horiz-adv-x="496" d="M29 147q0 64 3 248t1 284l-1 1h1q7 0 42 1t58 0t41 -6v-1q-11 -242 9 -491q9 -31 36.5 -41t54 3.5t32.5 42.5q4 91 6 261t3 223q3 0 32.5 3t44 4t36.5 -1t33 -9q13 -288 -12 -518q-9 -68 -51.5 -113t-112.5 -52q-59 -6 -115.5 8.5t-97.5 54.5t-43 98z" />
<glyph unicode="V" horiz-adv-x="465" d="M21 681v1q10 12 69 13.5t73 -3.5q3 -15 5.5 -90t13.5 -179.5t34 -199.5q28 117 51.5 268t36.5 200q0 2 2 2q24 -5 73 -5t71 -4q-49 -261 -166 -683q-3 0 -25 -2t-38 -2q-59 0 -83 8q-87 314 -117 676z" />
<glyph unicode="W" horiz-adv-x="472" d="M25 695v1q33 5 65 5q6 0 78 -3q3 -34 3.5 -192t17.5 -225q6 22 45 177q2 4 2 5q5 -4 15 -43.5t22 -87.5t18 -64q6 58 9.5 212.5t8.5 212.5v1q28 6 71 6q34 0 67 -3l1 -1q-9 -106 -32.5 -337t-33.5 -354q-6 -2 -34 -2h-48q-12 16 -29.5 84t-29.5 86h-1q-13 -13 -29 -82 t-25 -84q-28 -5 -49 -5q-15 0 -38 3h-1q-2 16 -15.5 110.5l-17.5 122.5t-13.5 107t-13.5 123t-8 107.5t-5 119.5z" />
<glyph unicode="X" horiz-adv-x="493" d="M26 689q57 4 100 4h13.5h11.5h9h7.5t5 -1t3.5 -1.5t2 -2.5q54 -188 66 -221q14 32 39.5 124t29.5 104v1q47 4 153 4h1l-1 -1v-1q-10 -32 -37.5 -108.5t-44.5 -134.5t-26 -114q11 -64 47.5 -183t45.5 -156q-9 1 -26 1q-10 0 -31 -1t-33 -1q-27 0 -44 4l-1 1 q-14 30 -32.5 110.5t-35.5 113.5l-1 1q-17 -38 -38 -116.5t-37 -112.5q-30 -2 -47 -2q-64 0 -89 9q10 35 50 155t54 183q-6 28 -14.5 60.5t-14.5 53t-21 61.5t-19 52t-23.5 61t-21.5 54z" />
<glyph unicode="Y" horiz-adv-x="472" d="M27 -1q33 103 131 346v2q-14 58 -63 173t-63 172q13 0 42 3t44 3q30 0 47 -8q9 -43 33.5 -111.5t43.5 -107.5q15 27 43.5 111.5t37.5 105.5q34 7 105 7q22 0 38 -2v-1q-39 -125 -147.5 -353.5t-146.5 -338.5q-8 1 -25 1q-14 0 -46 -1.5t-48 -1.5t-24 1h-2z" />
<glyph unicode="Z" horiz-adv-x="501" d="M28 690q48 5 107 6.5t103 1t116.5 -2t111.5 -1.5q5 -13 2.5 -80t-2.5 -79v-1q-44 -75 -137 -208t-120 -175l-1 -1q48 6 82 8t83 2.5t87 2.5v-3q7 -51 -2 -160v-2q-215 12 -409 1q-9 27 -8.5 77t-0.5 83q20 45 54 101t58.5 91t72 100.5t60.5 83.5q-97 13 -241 13 q-8 14 -8 63t-6 74v1q0 2 -2 4z" />
<glyph unicode="[" horiz-adv-x="319" d="M35 -2v4q2 126 0.5 231.5t0.5 237.5t9 233v1q42 6 125 1.5t119 -0.5q0 -99 -6 -118h-3q-16 1 -52 -1.5t-54 -0.5h-1q-6 -90 -5 -146t4.5 -154.5t3.5 -142.5v-1q16 -4 34.5 -5.5t40.5 -2.5t32 -2q6 -87 3 -131l-97 -1q-135 0 -154 -2z" />
<glyph unicode="\" horiz-adv-x="394" d="M7 701q18 9 64 7t68 1q9 -34 20.5 -71.5t19 -59t9.5 -24.5q3 -8 16 -50.5t22 -65.5q87 -235 94 -260q15 -34 32 -88q1 -3 10 -27t15 -44t1 -20h-1q-38 1 -68 1.5t-40.5 0.5t-16.5 1q-2 2 -3 5l-57 144q-16 40 -32 85t-35 104.5t-29 87.5q-7 21 -21.5 60.5t-17.5 49.5 q-41 134 -44 145q-1 4 -2.5 9t-3.5 9z" />
<glyph unicode="]" horiz-adv-x="318" d="M30 706q36 -4 119 0.5t125 -1.5v-1q9 -133 9 -352t1 -350v-4q-19 2 -154 2l-97 1q-3 44 3 131q10 1 32 2t40.5 2.5t34.5 5.5v1q0 44 3.5 142.5t4.5 154.5t-5 146h-1q-18 -2 -54 0.5t-52 1.5h-3q-6 19 -6 118z" />
<glyph unicode="^" horiz-adv-x="440" d="M11 478q20 28 48 58t47.5 49t58.5 54t55 50l210 -210q-1 1 -22 -2.5t-51.5 -6t-73.5 2.5q-7 0 -33 29t-33 33q-8 -3 -35 -32t-33 -30q-7 -1 -138 5z" />
<glyph unicode="_" horiz-adv-x="632" d="M31 -42q11 0 284 2.5t285 2.5h1q-3 -19 -4 -33.5t-1 -22t0.5 -25t0.5 -32.5q-20 0 -160 0.5t-271.5 1t-132.5 0.5q0 1 -1 44t-1 62z" />
<glyph unicode="`" horiz-adv-x="255" d="M13 620l69 70q27 -21 90.5 -86t76.5 -77q-16 -4 -58.5 -5.5t-75.5 1.5q-6 9 -26.5 28.5t-45 41t-30.5 27.5z" />
<glyph unicode="a" horiz-adv-x="484" d="M24 266q0 99 48.5 164t119.5 67q31 0 45.5 -1.5t31 -12t25.5 -32.5q-1 12 1.5 28.5t2.5 22.5q0 1 48 1q70 -3 98 -5q2 -16 2 -24v-10q-2 -58 0.5 -212.5t-2.5 -211.5v-6.5v-7v-6t-0.5 -6t-1.5 -5.5t-2.5 -5t-3.5 -3t-5 -2h-12q-11 0 -33 1.5t-32 1.5q-8 0 -22 -1.5 t-21 -1.5q-12 4 -12 22q0 8 2 18.5t2 16.5q-25 -25 -61.5 -41.5t-70.5 -16.5q-48 0 -83 46t-49.5 104.5t-14.5 117.5zM147 246q0 -46 24 -77t65 -31q18 0 30 5.5t18.5 12.5t9.5 24t3.5 29t0.5 38v12v14q0 62 -7 76t-45 14q-39 0 -63 -18.5t-30 -45.5q-6 -20 -6 -53z" />
<glyph unicode="b" horiz-adv-x="456" d="M36 1q-3 108 1.5 331t4.5 306v66q20 4 51 4t53 -1.5t22 -3.5v-11q1 -21 2.5 -39.5t2 -29t0 -45l-1.5 -103.5q4 19 71 25.5t121 -12.5q42 -15 61.5 -71t19.5 -132q-1 -35 -2.5 -57.5t-6 -54.5t-11.5 -52.5t-19.5 -43.5t-29.5 -37t-42 -24.5t-57 -12.5q-67 -9 -93 43 q-4 9 -10 -4q0 -8 -0.5 -17.5t-0.5 -15.5t-1 -7q-18 -2 -41 -2.5t-52.5 0.5t-41.5 1zM167 271q0 -38 2 -59.5t8.5 -43.5t21.5 -32t40 -10q41 0 66 39t25 92q0 39 -7 58q-11 71 -95 71q-42 0 -51.5 -18.5t-9.5 -96.5z" />
<glyph unicode="c" d="M40 323q0 36 6 72q1 9 16 59q13 29 55.5 43.5t94.5 14.5q13 -1 38.5 -0.5t39.5 -0.5q73 -5 111 -42q6 -4 11 -9.5t9 -14t6.5 -15t4.5 -19t3 -19.5t2 -23.5t1.5 -24t1 -27.5t0.5 -28q-36 -8 -127 5q-5 37 -29.5 55t-62.5 9q-21 -6 -34 -22q-6 -5 -9 -20q-3 -23 -4 -68 t-2 -62q-2 -29 20.5 -43.5t50.5 -13.5t44 12q14 10 24 53q9 -1 63 1t64 -3q-10 -139 -28 -157q-16 -23 -47.5 -34t-54 -12.5t-71 0.5t-59.5 2q-51 9 -86 44q-25 22 -37 59.5t-12 75.5t-0.5 80t-2.5 73z" />
<glyph unicode="d" horiz-adv-x="456" d="M12 285q0 76 19.5 132t61.5 71q54 19 121 12.5t71 -25.5l-1.5 103.5t0 45t2 29t2.5 39.5v11q0 2 22 3.5t53 1.5t51 -4v-66q0 -84 4.5 -306.5t1.5 -330.5q-12 0 -41.5 -1t-52.5 -0.5t-41 2.5q-1 1 -1 7t-0.5 15.5t-0.5 17.5q-6 13 -10 4q-26 -52 -93 -43q-44 3 -75 21.5 t-48.5 43t-27.5 64.5t-13 72.5t-4 80.5zM126 257q0 -53 25 -92t66 -39q46 0 59 34.5t13 110.5q0 78 -9.5 96.5t-51.5 18.5q-84 0 -95 -71q-7 -19 -7 -58z" />
<glyph unicode="e" horiz-adv-x="456" d="M25 284q8 101 22 139q25 57 98.5 80t148.5 4q150 -25 134 -248q-22 -6 -128.5 -10t-139.5 2v-18v-12.5t0.5 -12t0.5 -10t0.5 -10t1.5 -8.5t2 -9l2.5 -7.5t3.5 -8.5l4 -8q16 -31 47 -40.5t55.5 13t22.5 72.5q9 -1 62 1t64 -3q-10 -141 -28 -156q-13 -18 -33 -29t-47 -14 t-48 -3.5t-54.5 1t-47.5 1.5q-28 4 -52 18q-50 35 -72.5 111.5t-18.5 164.5zM163 351q-3 -18 4 -20q6 -2 90 -2q20 0 43 -1q15 -1 17.5 0t2.5 9v4q0 45 -39 65q-16 10 -35 10q-43 0 -61 -17t-22 -48z" />
<glyph unicode="f" horiz-adv-x="402" d="M14 476q51 0 72 -1q-5 62 18.5 118t84.5 76q72 25 188 19q13 -38 0 -135q-19 2 -125 -12q-42 -7 -29 -68h153q-2 -4 -1.5 -21.5t0.5 -24.5q0 -27 -5 -79q-125 7 -151 8v-352q-22 3 -67 -1t-62 -2q-4 22 -4.5 93t1 162.5t1.5 98.5q-44 0 -71 -1z" />
<glyph unicode="g" horiz-adv-x="470" d="M27 178v44.5t1.5 44t4 48t8 43.5t13.5 43.5t21 35t29 31t39 19t51 10.5q76 5 99 -47q4 -2 5 5q0 3 -1 15q-1 22 2 28q20 2 42 2.5t50.5 -0.5t42.5 -1q9 -301 -1 -542v-23.5v-24.5t-2 -20.5t-7 -18.5q-41 -64 -111 -70h-103q-93 0 -144 74q-8 15 -13 41.5t-3 42.5 q27 7 62.5 6.5t65.5 -5.5q0 -33 26.5 -50t55.5 -5.5t37 46.5q3 33 2 39q-2 17 0 35q-9 -10 -24.5 -16t-27 -7t-33.5 -1.5t-29 -1.5q-100 0 -130 63q-23 43 -28 117zM140 228q0 -51 30 -87q17 -21 48 -26.5t56 3.5q11 4 17.5 15.5t8 20t3.5 25.5q0 110 -13 161 q-12 30 -48.5 34t-59.5 -17q-33 -38 -40 -81q-2 -9 -2 -39v-9z" />
<glyph unicode="h" horiz-adv-x="445" d="M35 -3q0 46 -1 208.5t-1 301t2 216.5q35 -3 70 0q3 0 20.5 2.5t26.5 2.5t13 -4q1 -5 1 -278q20 11 25 15q43 32 100.5 34.5t100.5 -31.5q19 -17 22 -98t-0.5 -199t-0.5 -165q-27 -4 -125 -4q-2 30 -2 111.5t-2 120.5q0 4 -1 14.5t-1.5 16.5t-2 16t-3 16t-4 13.5t-6 12.5 t-7.5 8q-1 1 -2 1t-2 1q-14 7 -33.5 7.5t-39.5 -14t-22 -47.5q-2 -38 2 -135.5t-3 -132.5v-4q-11 -8 -55 -6t-69 0z" />
<glyph unicode="i" horiz-adv-x="204" d="M33 0q6 81 2 257t4 248v1q3 1 14.5 0t13.5 -1q50 -3 91 -2h17v-3q0 -48 -2.5 -164t-2.5 -166.5t4 -163.5q-1 -9 -68.5 -7t-72.5 1zM35 721l136 -3q0 -6 1.5 -55.5t1.5 -72.5q-5 -8 -26 -9t-56 1t-53 1q0 14 -2.5 59t-1.5 79z" />
<glyph unicode="j" horiz-adv-x="340" d="M19 -52q43 -3 90 6t64 34q1 47 1 182t3 193v134q22 -3 67 1t62 2q4 -33 2 -124.5t0 -112.5q0 -24 0.5 -73t0.5 -75.5t-1.5 -66t-5 -75t-9.5 -72.5q-42 -99 -274 -88q-13 38 0 135zM171 721l133 -3q0 -6 1.5 -55.5t1.5 -72.5q-5 -8 -25 -9t-54 1t-53 1q0 14 -2.5 59 t-1.5 79z" />
<glyph unicode="k" horiz-adv-x="450" d="M38 0q-6 56 -3 365t3 361q13 0 43 1t54 1t39 -2v-219q0 -15 -1 -44t-1 -50.5t2 -35.5q25 22 55.5 73t46.5 70q6 -8 77.5 -5t80.5 2q-22 -34 -48.5 -70t-63.5 -84.5t-53 -69.5q14 -22 44 -70l47.5 -76t41 -69.5t41.5 -77.5q-11 0 -47 -2t-66 -2t-48 4q-15 24 -48.5 92 t-59.5 101q0 -9 1.5 -53.5t0.5 -79t-6 -60.5q-13 1 -62.5 -1t-69.5 1z" />
<glyph unicode="l" horiz-adv-x="208" d="M37 0q9 115 1 363t5 364l136 -3q0 -49 -2 -223t-2.5 -273.5t3.5 -221.5q-1 -9 -68.5 -7t-72.5 1z" />
<glyph unicode="m" horiz-adv-x="696" d="M35 498q35 -3 70 0q3 0 20.5 2.5t26.5 2.5t13 -4q2 -13 2 -30.5v-22.5q20 11 25 15q43 32 100.5 34.5t100.5 -31.5q6 -6 10 -17q22 13 24 14q43 32 100.5 34.5t100.5 -31.5q19 -17 22 -98t-0.5 -199t-0.5 -165q-27 -4 -125 -4q-2 30 -2 111.5t-2 120.5q0 4 -1 14.5 t-1.5 16.5t-2 16t-3 16t-4 13.5t-6 12.5t-7.5 8q-1 1 -2 1t-2 1q-41 19 -75 -7q1 -49 -2 -163.5t0 -156.5q-27 -4 -125 -4q-2 30 -2 111.5t-2 120.5q0 4 -1 14.5t-1.5 16.5t-2 16t-3 16t-4 13.5t-6 12.5t-7.5 8q-1 1 -2 1q-2 0 -2 1q-14 7 -33.5 7.5t-39.5 -14t-22 -47.5 q-2 -38 2 -135.5t-3 -132.5v-4q-11 -8 -55 -6t-69 0q0 21 -2.5 246t1.5 255z" />
<glyph unicode="n" horiz-adv-x="458" d="M34 498q35 -3 70 0q3 0 20.5 2.5t26.5 2.5t13 -4q2 -13 2 -30.5v-22.5q20 11 25 15q43 32 100.5 34.5t100.5 -31.5q19 -17 22 -98t-0.5 -199t-0.5 -165q-27 -4 -125 -4q-2 30 -2 111.5t-2 120.5q0 4 -1 14.5t-1.5 16.5t-2 16t-3 16t-4 13.5t-6 12.5t-7.5 8q-1 1 -2 1 t-2 1q-14 7 -33.5 7.5t-39.5 -14t-22 -47.5q-2 -38 2 -135.5t-3 -132.5v-4q-11 -8 -55 -6t-69 0q0 21 -2.5 246t1.5 255z" />
<glyph unicode="o" horiz-adv-x="468" d="M41 325q0 41 5 72q0 7 3 18t7.5 23.5t5.5 17.5q13 29 55.5 43.5t94.5 14.5q13 -1 38.5 -0.5t39.5 -0.5q72 -5 111 -43q17 -11 26 -42t11 -58t3 -80q1 -12 1 -18q-7 -178 -22 -218q-5 -12 -10 -17q-16 -23 -47.5 -34t-54 -12.5t-71 0.5t-59.5 2q-51 9 -86 44 q-25 22 -37 59.5t-12.5 75.5t-0.5 80t-1 73zM172 188q-1 -28 20.5 -42.5t48.5 -13.5t46 11q17 8 23 33q10 90 3 126q-5 36 -29 51.5t-63 6.5q-21 -6 -34 -22q-6 -5 -9 -20q-3 -24 -4 -68.5t-2 -61.5z" />
<glyph unicode="p" horiz-adv-x="454" d="M35 499q12 0 41.5 1t52.5 0.5t41 -2.5q1 -1 1 -7t0.5 -15.5t0.5 -17.5q6 -13 10 -4q26 52 93 43q32 -2 57 -12.5t42 -24.5t29.5 -37t19.5 -43.5t11.5 -52.5t6 -54.5t2.5 -57.5q0 -76 -19.5 -132t-61.5 -71q-54 -19 -121 -12.5t-71 25.5l1.5 -103.5t0 -45t-2 -29 t-2.5 -39.5v-11q0 -2 -22 -3.5t-53 -1.5t-51 4v66q0 83 -4.5 306t-1.5 331zM166 229q0 -78 9.5 -96.5t51.5 -18.5q84 0 95 71q7 19 7 58q0 53 -25 92t-66 39q-46 0 -59 -34.5t-13 -110.5z" />
<glyph unicode="q" horiz-adv-x="454" d="M11 215q1 48 4 80.5t13 72.5t27.5 64.5t48.5 43t75 21.5q67 9 93 -43q4 -9 10 4q0 8 0.5 17.5t0.5 15.5t1 7q18 2 41 2.5t52.5 -0.5t41.5 -1q3 -108 -1.5 -331t-4.5 -306v-66q-20 -4 -51 -4t-53 1.5t-22 3.5v11q-1 21 -2.5 39.5t-2 29t0 45l1.5 103.5q-4 -19 -71 -25.5 t-121 12.5q-42 15 -61.5 71t-19.5 132zM125 243q0 -39 7 -58q11 -71 95 -71q42 0 51.5 18.5t9.5 96.5q0 38 -2 59.5t-8.5 43.5t-21.5 32t-40 10q-41 0 -66 -39t-25 -92z" />
<glyph unicode="r" horiz-adv-x="363" d="M34 498q35 -3 70 0q3 0 22 1.5t29 2t14 -2.5q0 -11 0.5 -18t0.5 -16q7 4 47 19q23 7 58.5 11t55 3.5t24.5 -1.5v-176q-3 1 -9.5 3t-11.5 3.5t-9 3.5q-28 7 -38 7q-62 7 -93 -5.5t-29 -63.5q4 -123 4 -262v-4q-11 -8 -60.5 -6t-73.5 0q0 21 -2.5 246t1.5 255z" />
<glyph unicode="s" horiz-adv-x="500" d="M48 152v5q20 2 46 2.5t58.5 -0.5t43.5 -1q1 -29 33 -45.5t62.5 -6.5t29.5 46q3 23 -11.5 36.5t-35 17.5t-54.5 11.5t-56 17.5q-54 18 -81 59.5t-25 84t29.5 80.5t74.5 50q38 11 105 10.5t119 -12.5q87 -37 87 -161q-79 -13 -143 0q6 25 -18 44.5t-51 17.5 q-29 -5 -40.5 -26t0 -43.5t41.5 -33.5q143 -21 177 -65q45 -74 13 -166q-44 -92 -179 -90q-101 -4 -163 42t-62 126z" />
<glyph unicode="t" horiz-adv-x="402" d="M14 374l3 122q27 -1 71 -1q0 17 -1 60.5t-0.5 76.5t2.5 55q17 2 62 -2t67 -1v-134q0 -8 0.5 -27t0.5 -29q26 1 151 8q8 -9 8.5 -32t-2 -51.5t-0.5 -41.5h-155q0 -142 1 -202q17 -25 64 -34t90 -6q13 -97 0 -135q-232 -11 -274 88q-18 108 -16 287q-21 -1 -72 -1z" />
<glyph unicode="u" horiz-adv-x="459" d="M45 498q27 4 125 4q2 -30 2 -111.5t2 -120.5q0 -4 1 -14.5t1.5 -16.5t2 -16t3 -16t4 -13.5t6 -12.5t7.5 -8q0 -1 2 -1q1 0 2 -1q14 -7 33.5 -7.5t39.5 14t22 47.5q2 36 -2.5 135.5t3.5 132.5v4q11 8 55 6t69 0q0 -21 2.5 -246t-1.5 -255q-35 3 -70 0q-3 0 -20.5 -2.5 t-26.5 -2.5t-13 4q-2 13 -2 30.5v22.5q-20 -11 -25 -15q-43 -32 -100.5 -34.5t-100.5 31.5q-19 17 -22 98t0.5 199t0.5 165z" />
<glyph unicode="v" horiz-adv-x="450" d="M17 500q24 -3 71.5 -1.5t67.5 -1.5q6 -32 18 -107.5t23.5 -137.5t24.5 -97q14 38 37.5 168.5t40.5 172.5q14 0 58 2.5t76 0.5q-32 -88 -72.5 -271t-52.5 -229q-23 -4 -56.5 -4.5t-76 1t-55.5 1.5q-49 301 -104 503z" />
<glyph unicode="w" horiz-adv-x="714" d="M22 500q24 -3 72 -1.5t68 -1.5q6 -32 17.5 -107.5t23 -137.5t24.5 -97q10 29 18.5 58.5t13 52t15 73t19.5 91.5l13 70q24 -2 59.5 1t51.5 -2q2 -11 24.5 -153.5t39.5 -190.5q17 42 44 177.5t38 163.5q12 0 55.5 2.5t74.5 0.5q-32 -88 -72.5 -271t-52.5 -229 q-23 -4 -53.5 -4.5t-69.5 1t-53 1.5q-37 222 -39 232q-7 -32 -18 -111.5t-21 -118.5q-23 -4 -56.5 -4.5t-76 1t-55.5 1.5q-49 301 -104 503z" />
<glyph unicode="x" d="M27 497q45 3 70 3q83 0 86 -3q46 -167 47 -170q9 21 26.5 89.5t21.5 81.5q24 3 159 3h1q0 -1 -1 -1q-9 -27 -28.5 -78.5t-33 -94t-20.5 -81.5q8 -45 36 -130.5t35 -115.5q-7 1 -18 1q-7 0 -24 -0.5t-25 -0.5q-69 0 -78 3h-1q-10 23 -24 79t-24 79q-12 -26 -26.5 -82 t-26.5 -80q-5 0 -36 -0.5t-37 -0.5q-57 0 -72 6q8 30 37.5 115.5t39.5 127.5q-5 24 -11 48t-17.5 55.5t-16.5 45.5t-21 54.5t-18 46.5z" />
<glyph unicode="y" horiz-adv-x="493" d="M29 -44q10 0 32.5 -1t34 -1t27.5 3t23.5 10t12 21.5t1.5 35.5q-7 39 -16.5 83.5t-16.5 75t-21 86t-19 74t-23 84t-20 73.5q24 -3 76 -1.5t72 -1.5q4 -21 15.5 -83.5t20 -105t20.5 -93t22 -78.5q14 38 31.5 179.5t34.5 182.5q14 0 69 1.5t77 -1.5q-15 -57 -53 -221 q-7 -27 -17.5 -75.5t-18 -81.5t-22.5 -77.5t-31 -74.5t-44.5 -61.5t-63 -49.5t-85 -28.5t-112.5 -6.5q-20 61 -6 133z" />
<glyph unicode="z" horiz-adv-x="473" d="M31 129q34 44 116 120.5t113 113.5q-155 -7 -223 -16q-3 37 -1 80.5t1 69.5q58 0 152.5 0.5t125.5 0.5q11 -3 68 -0.5t60 -0.5q0 -18 -1 -45.5t-1 -48t2 -40.5q-31 -33 -108.5 -107.5t-113.5 -115.5q25 2 106.5 1t110.5 5q0 -21 1 -68t1 -71q-246 -6 -407 -6 q2 42 -0.5 76t-1.5 52z" />
<glyph unicode="{" horiz-adv-x="320" d="M11 295q-8 36 2 98q37 -4 62.5 10t35.5 39.5t14 57t-1 62.5q-8 41 10.5 74.5t55.5 39.5q57 6 97 2q6 -41 1 -93q-15 -5 -22.5 -8t-17.5 -11.5t-12 -20.5q-2 -28 -2 -60t0.5 -59.5t-12.5 -50.5t-41 -33q58 -32 53 -129q-7 -104 57 -110q0 -92 -1 -102q-78 -9 -124.5 24.5 t-44.5 82.5q6 28 3.5 61t-11 61.5t-33 47t-61.5 16.5q-7 0 -8 1z" />
<glyph unicode="|" horiz-adv-x="176" d="M33 -25v751q18 0 38.5 -1t33.5 -0.5t38 4.5v-1q0 -11 1 -378t1 -378h-9q-19 0 -60.5 1.5t-42.5 1.5z" />
<glyph unicode="}" horiz-adv-x="320" d="M29 103q64 6 57 110q-5 97 53 129q-28 10 -41 33t-12.5 50.5t0.5 59.5t-2 60q-2 12 -12 20.5t-17.5 11.5t-22.5 8q-5 52 1 93q40 4 97 -2q37 -6 55.5 -39.5t10.5 -74.5q-5 -31 -1 -62.5t14 -57t35.5 -39.5t62.5 -10q10 -62 2 -98q-1 -1 -8 -1q-37 2 -61.5 -16.5t-33 -47 t-11 -61.5t3.5 -61q2 -49 -44.5 -82.5t-124.5 -24.5q-1 10 -1 102z" />
<glyph unicode="~" horiz-adv-x="575" d="M18 136q9 37 32 90.5t46 79.5q35 35 84.5 43t92.5 -18q14 -10 32.5 -33.5t28.5 -30.5q33 -29 62 2t38 67q17 1 108 4l3 -3q15 -75 -48 -165q-22 -27 -52 -37q-44 -18 -91 -2t-67 60q-21 30 -51 29q-21 0 -45 -12q-34 -22 -21 -76v-1q-16 4 -88 4q-41 0 -64 -1z" />
<glyph unicode="&#xa1;" horiz-adv-x="193" d="M30 511q3 111 3 120h7q8 0 19.5 -0.5t18.5 -0.5h2l75 1q4 -7 3.5 -22t-3.5 -48.5t-3 -46.5v-1q-14 -6 -34.5 -6.5t-48 2t-39.5 2.5zM31 457q19 2 129 5h1q-1 -58 0.5 -264t-3.5 -268h-3q-7 -1 -28 -3t-33.5 -3t-30.5 -0.5t-31 4.5q6 369 -1 529z" />
<glyph unicode="&#xa2;" horiz-adv-x="353" d="M27 442q-7 62 30 110.5t99 33.5q2 1 2 28.5v31.5q3 6 14.5 8t20.5 -4v-1v-65h1q68 -2 105.5 -68t16.5 -131v-1q-50 -7 -100 3q-2 8 -2 29t-4 35.5t-17 22.5q-2 -15 -1 -129t1 -139h1q12 5 18.5 16t7.5 21t2 26.5t2 23.5q8 -1 45.5 0t45.5 -4v-1q0 -12 3 -39.5t1 -42.5 q-6 -44 -42 -75t-82 -37h-2v-1q-1 -10 0 -32.5t-1 -30.5h-1q-1 -1 -2 -1q-23 -10 -30 1q-1 9 -1.5 19.5t0 20t-0.5 23.5q-41 -6 -80.5 17t-45.5 66q-5 44 -6 83.5t0.5 97t1.5 85.5zM128 398q-5 -70 1 -133q2 -45 28 -59q2 178 -1 266q-9 0 -15 -5t-8 -14t-3 -17.5t-1 -20.5 t-1 -17z" />
<glyph unicode="&#xa3;" horiz-adv-x="474" d="M12 360q0 2 1 3q13 10 60.5 7.5t62.5 -0.5h9q-3 89 -1.5 188t5.5 111q91 0 117 6v-1q4 -155 0 -308q117 -6 131 -1h1q3 -26 1.5 -60t-4 -48.5t1.5 -24.5q-52 1 -72.5 1t-37.5 -1t-22 -1q-3 -5 2.5 -32.5t8.5 -30.5q150 -8 185 -11q-3 -48 -5 -86.5t-2.5 -52.5t-0.5 -16 h-82q-129 0 -174.5 1.5t-53.5 7.5q5 67 -2 224q-43 1 -77 1.5t-37.5 0t-12.5 0.5q0 40 -1 72.5t-1.5 36.5t0.5 14z" />
<glyph unicode="&#xa4;" horiz-adv-x="619" d="M24 111q32 38 74 89v1q-3 9 -11 53q-12 149 11 237q-25 34 -41.5 49t-32.5 38l103 88q38 -42 96 -108q4 0 25 4t27 4q58 4 122 -7q15 16 46.5 52.5t48.5 54.5l103 -88q-14 -16 -44 -50t-39 -44q14 -27 20 -58q3 -16 3 -81q0 -91 -29 -145q62 -76 89 -89l-19 -16 q-7 -3 -45 -37.5t-49 -32.5q-23 26 -46 47t-45 47q-100 -20 -185 -1q-36 -48 -69 -93q-11 -1 -58.5 41t-54.5 45zM192 285q0 -25 14.5 -44t40.5 -24q57 -5 99 4q2 0 6.5 1t8.5 1h2q49 6 58 68q2 11 4.5 31t3.5 26q7 50 -15 78q-13 18 -29 22q-61 19 -143 4q-41 -14 -48 -55 q-3 -17 -3.5 -35.5t0.5 -42.5t1 -34z" />
<glyph unicode="&#xa5;" horiz-adv-x="522" d="M23 110v1q1 16 0.5 31.5t0.5 31.5t4 25q23 -2 63 0t53 2v1l6 12t6 14t6 13q0 2 1 3v1h-1q-6 1 -69 -0.5t-69 6.5q-3 1 -1.5 41t1.5 44h2q33 4 94.5 4t81.5 1q0 1 -0.5 1t-0.5 1q-14 48 -61.5 167t-59.5 182q24 -2 71.5 0.5t72.5 -0.5q5 -16 17 -55.5t22.5 -69t22.5 -55.5 q32 58 79 171q1 1 2 1t2 1q93 13 140 4q-62 -183 -147 -341q8 -7 47.5 -5.5t49.5 -3.5h1v-1v-45.5t2 -42.5v-1q-11 3 -67.5 1t-71.5 -2q-9 -4 -15 -22t-12 -24h164q0 -82 2 -91q-63 1 -203 -5q-10 -18 -24.5 -57t-18.5 -48v-1h-1q-13 5 -66.5 2t-73.5 -1h-3q1 12 7 29 t15 38.5t13 32.5q-9 3 -41.5 2.5t-42.5 6.5z" />
<glyph unicode="&#xa6;" horiz-adv-x="833" />
<glyph unicode="&#xa7;" horiz-adv-x="833" />
<glyph unicode="&#xa8;" horiz-adv-x="349" d="M35 623q19 6 57 6.5t52 -5.5l-2 -22q-1 -22 -2.5 -46.5t-1.5 -32.5v-2h-2l-97 1h-3q-2 12 -2.5 32t0.5 43t1 26zM209 623q19 6 57 6.5t52 -5.5l-2 -22q-1 -22 -2.5 -46.5t-1.5 -32.5v-2h-2l-97 1h-3q-2 12 -2.5 32t0.5 43t1 26z" />
<glyph unicode="&#xa9;" horiz-adv-x="557" d="M31 446q5 48 37 86q41 52 121 64q118 6 163 -3q55 -10 95 -40q22 -15 36 -38.5t20.5 -42.5t6.5 -55.5t-1 -52.5t-6 -60.5t-6 -54.5q-12 -47 -48 -81q-13 -13 -29.5 -22.5t-30 -14.5t-36.5 -8.5t-34 -4.5t-38.5 -3t-34.5 -2q-63 0 -108 14q-92 42 -102 120q-14 81 -5 199z M104 441q-7 -52 2 -178q0 -32 30 -54.5t70 -24.5q9 1 63.5 3.5t82.5 7.5q36 6 56.5 35.5t24.5 68.5q5 61 4 107q0 2 -0.5 13t-0.5 14t-1 12t-3 13.5t-5 11t-8 12.5q-23 29 -82 41q-74 9 -148 0q-1 0 -2 -0.5t-3 -0.5q-33 -6 -54.5 -28.5t-25.5 -52.5zM177 424q-1 11 5 25 q7 22 21 34q4 3 20 10q34 10 66.5 -4t49 -45t4.5 -66q-23 -3 -56 2q0 3 -1 13.5t-2 15t-4 11.5t-8.5 10t-13.5 3q-1 -1 -10.5 -3.5t-11.5 -9.5v-14q-1 -13 -1.5 -29t-0.5 -35t1 -31q2 -30 21 -36q21 -2 30 13l3 38q2 0 26 0.5t27 -2.5q12 -41 -11 -76.5t-65 -35.5 q-31 -4 -58 8t-29 42q-3 42 -2 162z" />
<glyph unicode="&#xaa;" horiz-adv-x="274" d="M24 605q0 51 24.5 84.5t60.5 33.5q11 0 17 -0.5t14 -2.5t13 -7t8 -14q0 6 1 14t1 12q0 1 5.5 1t11 -0.5t8.5 0.5q21 -2 50 -3q0 -2 1 -6t1 -6v-4q-1 -33 0 -109.5t-2 -107.5q0 -20 -7 -21h-6q-5 0 -16 0.5t-17 0.5q-4 0 -11.5 -0.5t-11.5 -0.5q-6 1 -6 11q0 4 1.5 9.5 t1.5 8.5q-28 -30 -68 -30q-36 0 -55 43.5t-19 93.5zM86 595q0 -24 13 -40t33 -16q16 0 23 9.5t7.5 18t0.5 35.5v12q0 28 -3.5 34t-22.5 6q-42 0 -47 -33q-4 -8 -4 -26z" />
<glyph unicode="&#xab;" horiz-adv-x="589" d="M12 262q22 28 53.5 61.5t73.5 76t61 61.5q40 42 57 59q12 -7 38.5 -34t37.5 -35q-19 -24 -84.5 -91.5t-91.5 -100.5q27 -24 88.5 -85t96.5 -89q-17 -15 -31 -30t-47 -44q-27 27 -80 74t-96 89.5t-76 87.5zM233 262q22 28 53.5 61.5t73.5 76t61 61.5q40 42 57 59 q12 -7 38.5 -34t37.5 -35q-19 -24 -84.5 -91.5t-91.5 -100.5q27 -24 88.5 -85t96.5 -89q-17 -15 -31 -30t-47 -44q-27 27 -80 74t-96 89.5t-76 87.5z" />
<glyph unicode="&#xac;" horiz-adv-x="449" d="M2 472q6 0 207 -1t207 -1v-1q-1 -1 -1 -2h1q0 -11 -1 -64t-1 -103l-1 -49h-55v29.5t-0.5 67t-0.5 64.5q-352 3 -354 5v11.5t-0.5 23.5t-0.5 20z" />
<glyph unicode="&#xad;" horiz-adv-x="359" d="M31 304q5 0 148 1t149 1q-2 -11 -2 -58h-16.5h-30.5h-40h-45.5h-46.5t-43.5 0.5t-36.5 0.5h-25h-10v11.5t-0.5 23.5t-0.5 20z" />
<glyph unicode="&#xae;" horiz-adv-x="552" d="M31 446q5 48 37 86q41 52 121 64q118 6 163 -3q55 -10 95 -40q29 -22 44.5 -52t17.5 -74t0 -70.5t-9 -82.5q-1 -5 -2.5 -17.5t-3.5 -19.5q-14 -39 -45 -69q-13 -13 -29.5 -22.5t-30 -14.5t-36.5 -8.5t-34 -4.5t-38.5 -3t-34.5 -2q-63 0 -108 14q-92 42 -102 120 q-14 81 -5 199zM101 408q-1 -11 2 -120q2 -72 51 -91q12 -6 26 -9q36 -5 157 4l15 3q36 6 56.5 35.5t24.5 68.5q5 61 4 107q0 2 -0.5 13t-0.5 14t-1 12t-3 13.5t-5 11t-8 12.5q-23 29 -82 41q-74 9 -148 0q-1 0 -2 -0.5t-3 -0.5q-33 -6 -54.5 -28.5t-25.5 -52.5zM173 498 q66 9 107 6q48 -4 71.5 -45.5t-0.5 -85.5q-19 -34 -52 -35h-3v-1q7 -11 24 -36t29 -45t19 -40q-7 0 -29.5 -1.5t-35.5 -0.5h-1q-2 5 -10.5 22.5t-14.5 29t-15 26.5t-17 24l-1 2q-3 -18 -2.5 -32.5t2.5 -37t2 -29.5q-19 -5 -71 -5q1 0 1.5 65t-0.5 135.5t-3 83.5zM232 442 v-26t1 -25h1q32 -2 40 0q15 4 18 22.5t-9 27.5q-18 13 -51 1z" />
<glyph unicode="&#xb0;" horiz-adv-x="301" d="M31 480q-6 74 3 108q16 48 76 60q2 0 4 0.5t4.5 0.5h4.5q15 1 39 1q54 0 87 -29q17 -13 21.5 -34t4.5 -57q0 -48 -18.5 -83t-62.5 -41q-63 -11 -113 4q-25 12 -36 27.5t-14 42.5zM88 497q0 -15 8 -25t22 -12q31 -2 54 2q2 0 4 0.5t4 0.5h1q16 2 22.5 11.5t9.5 25.5 q2 7 4 31q4 18 -2.5 34t-21.5 21q-32 10 -78 2q-22 -8 -26 -30q-1 -7 -1 -61z" />
<glyph unicode="&#xb1;" horiz-adv-x="488" d="M20 11q0 18 1.5 88.5t1.5 71.5h443q0 -19 -1 -53t-0.5 -62t4.5 -52h-1q-10 0 -224 3.5t-224 3.5zM37 526q5 -1 63 3.5t64 6.5q0 67 9 130q0 -7 70 -5t75 1q0 -118 2 -124q13 -1 58.5 -1t62.5 -3q-1 -23 -1 -70.5t-3 -74.5q-3 -2 -57.5 -2.5t-61.5 -4.5q2 -13 -2.5 -65 t-4.5 -57v-2q-6 -4 -38 -3.5t-71.5 1.5t-41.5 0q-1 1 -1 3q-3 22 -2 49t0 53q0 18 -2 20h-2q-22 0 -67 3t-45 9q1 20 0 45.5t-2.5 56t-1.5 31.5z" />
<glyph unicode="&#xb2;" horiz-adv-x="256" d="M28 333v2q1 12 1 37t3 42.5t12 32.5q18 19 52 40t45 29q18 12 15.5 37.5t-22.5 27.5q-35 0 -35 -55v-1q-33 -4 -67 -2v1q-13 66 23 105q17 21 61 26t69 -7q46 -22 46 -117q-2 -29 -24 -46.5t-52 -31.5t-42 -28q-11 -25 -5 -28q21 0 56.5 0.5t55.5 0.5q5 -12 3 -43 q0 -17 1 -19h-2l-173 -3h-21z" />
<glyph unicode="&#xb3;" horiz-adv-x="242" d="M21 431h1q9 0 28 2t31 1h1q7 -18 26.5 -26t34.5 9q6 9 4 21t-11 18q-17 15 -50 6q-5 5 -3.5 31.5t0.5 32.5q7 3 25.5 2.5t28.5 5t10 22.5q0 27 -27 24q-27 -2 -37 -23l-2 -4q-5 0 -19 -0.5t-27 -0.5h-14v1q0 2 -0.5 12.5t0 17.5t2.5 13q10 34 49.5 48.5t80 5.5t56.5 -36 q8 -10 6 -32q2 -102 -1 -150q0 -2 -1.5 -23t-6.5 -31q-12 -30 -44 -41q-24 -7 -52.5 -6t-47.5 9q-6 1 -10.5 3.5t-7.5 5t-4 2.5q-8 7 -15 32q-2 7 -2.5 23t-1.5 25z" />
<glyph unicode="&#xb4;" horiz-adv-x="255" d="M6 529q13 12 76.5 77t90.5 86l69 -70q-6 -6 -31 -27.5t-45.5 -41t-25.5 -28.5q-33 -3 -76 -1.5t-58 5.5z" />
<glyph unicode="&#xb5;" horiz-adv-x="436" d="M32 -164q0 357 1 371q0 36 2.5 142.5t0.5 148.5q27 4 125 4q2 -30 2 -111.5t2 -120.5q0 -4 1 -14.5t1.5 -16.5t2 -16t3 -16t4 -13.5t6 -12.5t7.5 -8q0 -1 2 -1q1 0 2 -1q14 -7 33.5 -7.5t39.5 14t22 47.5q2 37 -3.5 138t2.5 134q33 4 63.5 3t62.5 3q0 -21 2.5 -246 t-1.5 -255q-3 0 -40.5 -2.5t-58.5 -3t-31 4.5q-2 13 -2 30.5v22.5q-11 -19 -32.5 -30t-36.5 -14t-45 -6q0 -96 2 -124.5t2 -37.5q-1 -9 -68.5 -7t-72.5 1z" />
<glyph unicode="&#xb6;" horiz-adv-x="678" d="M30 645q12 50 49 66q12 6 30.5 9t33 4t40.5 1.5t38 1.5l176 1l162 2l95 -2q0 -5 1.5 -59.5t1.5 -77.5q-8 -13 -100 -7q-11 -680 -5 -782q-1 -9 -68.5 -7t-72.5 1q9 116 9.5 406.5t3.5 382.5l-77 1q-11 -654 -3 -784q-1 -9 -68.5 -7t-72.5 1q13 151 7 524 q-75 -11 -109 8.5t-68 83.5q-21 97 -3 233z" />
<glyph unicode="&#xb7;" horiz-adv-x="149" d="M29 393l90 -1q0 -6 1.5 -55.5t1.5 -72.5q-5 -8 -14.5 -9.5t-33 0t-41.5 0.5q0 14 -2.5 59t-1.5 79z" />
<glyph unicode="&#xb8;" horiz-adv-x="190" d="M17 -147q22 62 32 92.5t19 54.5q1 0 19 -4l86 -2l-47 -141v-1q-109 0 -109 1z" />
<glyph unicode="&#xb9;" horiz-adv-x="175" d="M6 545q0 7 8 23t17 31t17 29l9 13q8 0 21 0.5t19 0.5q15 0 45 -2q2 -16 2 -73q0 -31 -2.5 -96t-2.5 -99v-30q0 -7 -25 -7q-7 0 -43 3v42q0 28 3 82.5t3 82.5v8q-2 0 -8 -12t-12 -12q-4 0 -27.5 6.5t-23.5 9.5z" />
<glyph unicode="&#xba;" horiz-adv-x="254" d="M28 472q-6 92 22 134q0 1 4 5q31 35 69 36q41 2 68 -26.5t34 -69.5q4 -28 3 -53q4 -61 -23 -113.5t-84 -49.5q-13 0 -31 5q-40 16 -51 48.5t-11 83.5zM95 531q-6 -59 3 -96q1 -2 3 -8t3 -8.5t4 -6t8 -4.5q22 -11 34 20q3 11 5 43q2 14 1.5 33.5t-3 37.5t-12.5 28.5 t-25 4.5q-9 -1 -15 -12q-4 -6 -6 -32z" />
<glyph unicode="&#xbb;" horiz-adv-x="589" d="M26 85q35 28 96.5 89t88.5 85q-27 32 -91.5 99.5t-84.5 92.5q11 7 37 34.5t39 34.5q17 -17 57 -59q19 -19 61 -61.5t73.5 -76t53.5 -61.5q-45 -59 -138.5 -145t-112.5 -105l-1 -1q-24 21 -51 48l-16 16zM247 85q35 28 96.5 89t88.5 85q-27 32 -91.5 99.5t-84.5 92.5 q11 7 37 34.5t39 34.5q17 -17 57 -59q19 -19 61 -61.5t73.5 -76t53.5 -61.5q-45 -59 -138.5 -145t-112.5 -105l-1 -1q-24 21 -51 48l-16 16z" />
<glyph unicode="&#xbc;" horiz-adv-x="593" d="M14 545q2 15 28 60t32 51q8 0 23 0.5t22 0.5q18 0 52 -2q2 -19 2 -83q0 -38 -2.5 -112.5t-2.5 -112.5q0 -23 1 -35q0 -9 -31 -9q-8 0 -24.5 1.5t-23.5 1.5v49q0 32 3 95t3 95q0 7 -1 10q-2 0 -8.5 -14t-12.5 -14t-33 7.5t-27 10.5zM124 1q21 63 112 316.5t128 391.5 q6 -2 46.5 0t45.5 -4v-1q-20 -60 -58 -173.5t-62 -184.5t-57.5 -166t-63.5 -172q-1 0 -1 -1t-1 -2l-2 -4q-5 -1 -43 0.5t-44 -0.5zM353 185v1q2 2 3 4q27 44 107 165q3 0 39 0.5t41 0.5h1v-12.5v-30.5v-39.5v-40.5t0.5 -33.5t1.5 -17.5q3 2 14.5 0t13.5 -2l-3 -76h-1 q-4 -2 -13 -1.5t-13 -0.5h-1q1 -1 -3 -44.5t-5 -51.5q-3 -3 -75 -3q0 1 0.5 52.5t0.5 54.5q-3 1 -29.5 1.5t-47.5 0t-26 0.5v1q-6 25 -5 72zM428 181l4.5 -0.5t11 -0.5h13t12.5 0.5t9 0.5h1v1l2 70q0 5 -12.5 -12t-26 -37.5t-14.5 -21.5z" />
<glyph unicode="&#xbd;" horiz-adv-x="596" d="M14 545q2 15 28 60t32 51q8 0 23 0.5t22 0.5q18 0 52 -2q2 -19 2 -83q0 -38 -2.5 -112.5t-2.5 -112.5q0 -23 1 -35q0 -9 -31 -9q-8 0 -24.5 1.5t-23.5 1.5v49q0 32 3 95t3 95q0 7 -1 10q-2 0 -8.5 -14t-12.5 -14t-33 7.5t-27 10.5zM124 1q21 63 112 316.5t128 391.5 q6 -2 46.5 0t45.5 -4v-1q-20 -60 -58 -173.5t-62 -184.5t-57.5 -166t-63.5 -172q-1 0 -1 -1t-1 -2l-2 -4q-5 -1 -43 0.5t-44 -0.5zM356 2v1q1 9 1 40.5t3.5 50t12.5 33.5q18 21 57 44.5t50 32.5q21 12 18 40.5t-27 30.5q-37 0 -37 -60v-1q-56 -5 -74 -3h-1v1q-13 74 25 116 q18 24 67.5 29t75.5 -8q57 -29 50 -129q-2 -32 -26 -51t-57 -34.5t-46 -31.5q-11 -25 -5 -29q26 -1 67 0t56 1q4 -9 4 -48q0 -20 1 -22q0 -1 -2 -1l-190 -2h-23z" />
<glyph unicode="&#xbe;" horiz-adv-x="621" d="M17 411q0 1 1 1q10 0 31.5 2.5t33.5 1.5h1q7 -21 29 -29.5t38 10.5q6 9 4.5 22t-12.5 21q-18 13 -55 7q-4 8 -4 20.5t1 27.5t1 21q6 2 27 2.5t32 6.5t10 25q0 21 -15.5 25.5t-33 -5t-23.5 -23.5q-7 0 -36 -0.5t-30 -0.5v1q0 40 2 46q11 38 54.5 54t88 6t61.5 -39 q9 -14 7 -36q2 -111 -1 -166q-2 -45 -8 -58q-13 -34 -50 -46q-54 -15 -109 3q-7 2 -12 5t-8 5.5t-4 2.5q-15 18 -16 36q-2 8 -3 24.5t-2 26.5zM152 1q21 63 112 316.5t128 391.5q6 -2 46.5 0t45.5 -4v-1q-20 -60 -58 -173.5t-62 -184.5t-57.5 -166t-63.5 -172q-1 0 -1 -1 t-1 -2l-2 -4q-5 -1 -43 0.5t-44 -0.5zM381 185v1q2 2 3 4q27 44 107 165q3 0 39 0.5t41 0.5h1v-12.5v-30.5v-39.5v-40.5t0.5 -33.5t1.5 -17.5q3 2 14.5 0t13.5 -2l-3 -76h-1q-4 -2 -13 -1.5t-13 -0.5h-1q1 -1 -3 -44.5t-5 -51.5q-3 -3 -75 -3q0 1 0.5 52.5t0.5 54.5 q-3 1 -29.5 1.5t-47.5 0t-26 0.5v1q-6 25 -5 72zM456 181l4.5 -0.5t11 -0.5h13t12.5 0.5t9 0.5h1v1l2 70q0 5 -12.5 -12t-26 -37.5t-14.5 -21.5z" />
<glyph unicode="&#xbf;" horiz-adv-x="449" d="M24 105q6 55 47 106q11 15 30.5 35.5t29.5 33.5q35 49 49 122q7 24 4 34v1q22 3 61.5 2t61.5 0h1q4 -4 4 -22l-2 -38q-13 -81 -39 -119q-7 -13 -25.5 -38t-32.5 -46t-24.5 -43.5t-3 -40.5t35.5 -27q20 -11 35 -4.5t22 17t17 24.5t21 18q29 2 41 1.5t40.5 -2t40.5 -1.5v-1 q-4 -79 -59.5 -141.5t-137.5 -66.5q-93 -10 -160 49.5t-57 146.5zM187 497q0 1 1.5 26t3 53.5t1.5 37.5v2h2l113 -1h3q2 -13 2.5 -36.5t-0.5 -50t-1 -29.5q-21 -7 -66 -7.5t-59 5.5z" />
<glyph unicode="&#xc0;" horiz-adv-x="462" d="M19 2q55 373 153 698q14 2 20.5 1t35.5 0t67 4q7 -22 23.5 -94t35 -154.5t23.5 -105.5l75 -350v-1q-59 -12 -134 4h-1q-7 19 -22 80.5t-25 82.5q-5 4 -32.5 2.5t-29.5 -1.5q-8 -19 -20 -81t-24 -86l-1 -1h-2q-13 -1 -21 -0.5t-44.5 1t-74.5 0.5q-1 0 -2 1zM69 847l69 70 q27 -21 90.5 -86t76.5 -77q-16 -4 -58.5 -5.5t-75.5 1.5q-6 9 -26.5 28.5t-45 41t-30.5 27.5zM201 286h74q-24 207 -37 209q-5 1 -10 -19q-3 -11 -27 -190z" />
<glyph unicode="&#xc1;" horiz-adv-x="463" d="M12 2q55 373 153 698q14 2 20.5 1t35.5 0t67 4q7 -22 23.5 -94t35 -154.5t23.5 -105.5l75 -350v-1q-59 -12 -134 4h-1q-7 19 -22 80.5t-25 82.5q-5 4 -32.5 2.5t-29.5 -1.5q-8 -19 -20 -81t-24 -86q-1 0 -3 -1q-13 -1 -21 -0.5t-44.5 1t-74.5 0.5q-1 0 -2 1zM140 754 q13 12 76.5 77t90.5 86l69 -70q-6 -6 -31 -27.5t-45.5 -41t-25.5 -28.5q-33 -3 -76 -1.5t-58 5.5zM194 286h22.5h28h23.5q-24 207 -37 209q-5 1 -10 -19q-3 -11 -27 -190z" />
<glyph unicode="&#xc2;" d="M16 2q1 3 20 113t55 276.5t78 308.5q14 2 20.5 1t35.5 0t67 4q73 -316 82 -354l75 -350v-1q-59 -12 -134 4h-1q-7 19 -22 80.5t-25 82.5q-5 4 -32.5 2.5t-29.5 -1.5q-8 -19 -20 -81t-24 -86q-1 0 -3 -1q-13 -1 -21 -0.5t-44.5 1t-74.5 0.5q-1 0 -2 1zM71 755 q16 21 37.5 44.5t36.5 38t45.5 42t42.5 38.5l163 -162q-1 1 -17 -1.5t-40.5 -5t-57.5 1.5q-6 0 -26 23t-25 26q-5 -2 -26 -24.5t-26 -24.5q-11 -1 -107 4zM198 286h74q-24 207 -37 209q-5 1 -10 -19q-3 -11 -27 -190z" />
<glyph unicode="&#xc3;" horiz-adv-x="477" d="M21 2q1 3 20 113t55 276.5t78 308.5q14 2 20.5 1t35.5 0t67 4q7 -22 23.5 -94t35 -154.5t23.5 -105.5l75 -350v-1q-59 -12 -134 4h-1q-7 19 -22 80.5t-25 82.5q-5 4 -32.5 2.5t-29.5 -1.5q-8 -19 -20 -81t-24 -86l-1 -1h-2q-13 -1 -21 -0.5t-44.5 1t-74.5 0.5q-1 0 -2 1z M34 757q8 28 25.5 69t34.5 60q28 28 65 34t70 -15q9 -6 17 -15.5t15.5 -19t14.5 -13.5q11 -10 22.5 -10t19.5 6.5t15.5 17.5t12 20.5t7.5 18.5q1 0 82 3l1 -1q0 -1 1 -1v-1q7 -51 -19.5 -101t-75.5 -58q-21 -4 -41 0t-36.5 16.5t-24.5 32.5q-13 22 -35 23q-37 0 -51 -22 q-11 -21 -3 -46v-1q-17 4 -68 4q-32 0 -49 -1zM203 286h74q-24 207 -37 209q-5 1 -10 -19q-3 -11 -27 -190z" />
<glyph unicode="&#xc4;" horiz-adv-x="463" d="M16 2q1 3 20 113t55 276.5t78 308.5q14 2 20.5 1t35.5 0t67 4q73 -316 82 -354l75 -350v-1q-59 -12 -134 4h-1q-7 19 -22 80.5t-25 82.5q-5 4 -32.5 2.5t-29.5 -1.5q-8 -19 -20 -81t-24 -86q-1 0 -3 -1q-13 -1 -21 -0.5t-44.5 1t-74.5 0.5q-1 0 -2 1zM80 860q19 6 57 6.5 t52 -5.5l-1 -22q-2 -22 -3.5 -46.5t-1.5 -32.5v-2h-2l-97 1h-3q-2 12 -2.5 32t0.5 43t1 26zM198 286h74q-24 207 -37 209q-5 1 -10 -19q-3 -11 -27 -190zM254 860q19 6 57 6.5t52 -5.5l-1 -22q-2 -22 -3.5 -46.5t-1.5 -32.5v-2h-2l-97 1h-3q-2 12 -2.5 32t0.5 43t1 26z" />
<glyph unicode="&#xc5;" d="M16 2q1 3 20 113t55 276.5t78 308.5q14 2 20.5 1t35.5 0t67 4q73 -316 82 -354l75 -350v-1q-59 -12 -134 4h-1q-7 19 -22 80.5t-25 82.5q-5 4 -32.5 2.5t-29.5 -1.5q-8 -19 -20 -81t-24 -86q-1 0 -3 -1q-13 -1 -21 -0.5t-44.5 1t-74.5 0.5q-1 0 -2 1zM142 895q2 8 11 20 q28 25 78 20q60 -2 79 -29q19 -66 -6 -129q-14 -22 -60 -24q-19 -3 -56 -1q-34 2 -45 29q-13 67 -1 114zM181 848q0 -34 10 -44q11 -9 25 -9h10q2 0 6 0.5t6 0.5t6 0.5t6.5 1t5.5 1.5t5.5 2.5t4.5 3.5t3 5q11 46 -2 67q-14 14 -39 14q-16 0 -30 -6q-17 -11 -17 -37zM198 286 h74q-24 207 -37 209q-5 1 -10 -19q-3 -11 -27 -190z" />
<glyph unicode="&#xc6;" horiz-adv-x="755" d="M26 -1q9 48 16 89t8 52t6 37t7 34t12.5 53.5t20 84.5t33 139t48.5 205q181 8 542 8v-2q2 -21 2 -44.5t-1 -52.5t-1 -45v-2q-46 -10 -133 -8.5t-134 -4.5q1 -10 -2 -59.5t5 -57.5q18 -3 59.5 -3t61.5 -3q4 -19 4.5 -41.5t-1 -53t-1.5 -44.5q-16 -3 -45 -3.5t-50 -1 t-26 -5.5q-7 -100 6 -127h1q35 -2 124.5 -2t133.5 -4v-3q4 -67 -6 -128l-2 -2q-43 0 -130 -1.5t-154.5 -1.5t-125.5 4q-4 16 -14 52.5t-14 57.5v1q-14 0 -25 1t-44 1h-2q0 -1 -1 -2q-27 -92 -32 -113q0 -1 -1 -1t-2 -1q-13 0 -41.5 1t-51.5 0.5t-44 -2.5q-2 0 -3 -0.5 t-3 -0.5zM210 284h2q8 3 35 0t31 3q-4 25 -18.5 73.5t-16.5 57.5l-1 3q-18 -50 -23 -71.5t-9 -65.5z" />
<glyph unicode="&#xc7;" horiz-adv-x="491" d="M28 184v10q-6 195 3 330q0 8 1 11q9 94 64 141q30 19 94 17q90 2 134 -14q72 -30 106 -112t10 -159h-1q-1 -1 -2 -1q-45 -11 -132 2h-2q-5 13 -7 46.5t-11.5 55.5t-35.5 28q-2 1 -10 1q-27 2 -45.5 -15.5t-20.5 -44.5q-7 -161 2 -262q13 -61 53 -72q50 -5 69 34 q6 12 8 28t2.5 36t1.5 30q6 0 36.5 1.5t53.5 0.5t40 -6q31 -97 -20 -185.5t-152 -94.5h-2l-1 1q-21 -89 -30 -116v-2q-15 1 -46 -1t-43 0q-1 0 -1 3q0 6 11.5 50.5t14.5 64.5v3q-39 -5 -67 10t-43.5 44.5t-23 63t-8.5 73.5z" />
<glyph unicode="&#xc8;" horiz-adv-x="471" d="M37 5q0 76 -2.5 216.5t-2.5 253t6 214.5q117 6 265 8t149 -2q3 -21 3 -44.5t-1.5 -52.5t-1.5 -45v-1q-48 -11 -129.5 -10t-132.5 -2h-3l-1 -1q0 -7 -2.5 -60t3.5 -57l1 -1l123 -3v-1q5 -4 3.5 -68t-1.5 -71q-20 -6 -67 -6t-54 -5q-8 -43 0 -125l1 -1q34 0 122.5 -3.5 t139.5 -1.5v-2q6 -81 -8 -131q-47 0 -131 -1.5t-153 -1.5t-126 5zM103 847l69 70q27 -21 90.5 -86t76.5 -77q-16 -4 -58.5 -5.5t-75.5 1.5q-6 9 -26.5 28.5t-45 41t-30.5 27.5z" />
<glyph unicode="&#xc9;" horiz-adv-x="474" d="M33 5q0 76 -2.5 216.5t-2.5 253t6 214.5q117 6 265 8t149 -2q3 -21 3 -44.5t-1.5 -52.5t-1.5 -45v-1q-48 -11 -129.5 -10t-132.5 -2h-3l-1 -1q0 -7 -2.5 -60t3.5 -57l1 -1q18 -1 38.5 -1.5t45.5 -1t39 -0.5v-1q5 -4 3.5 -68t-1.5 -71q-21 -6 -67.5 -6t-53.5 -5 q-8 -43 0 -125l1 -1q34 0 122.5 -3.5t139.5 -1.5v-2q6 -81 -8 -131q-47 0 -131 -1.5t-153 -1.5t-126 5zM148 754q13 12 76.5 77t90.5 86l69 -70q-6 -6 -31 -27.5t-45.5 -41t-25.5 -28.5q-33 -3 -76 -1.5t-58 5.5z" />
<glyph unicode="&#xca;" horiz-adv-x="475" d="M36 5q0 76 -2.5 216.5t-2.5 253t6 214.5q117 6 265 8t149 -2q3 -21 3 -44.5t-1.5 -52.5t-1.5 -45v-1q-48 -11 -129.5 -10t-132.5 -2h-3l-1 -1q0 -7 -2.5 -60t3.5 -57l1 -1q18 -1 38.5 -1.5t45.5 -1t39 -0.5v-1q5 -4 3.5 -68t-1.5 -71q-20 -6 -67 -6t-54 -5q-8 -43 0 -125 l1 -1q34 0 122.5 -3.5t139.5 -1.5v-2q6 -81 -8 -131q-47 0 -131 -1.5t-153 -1.5t-126 5zM81 755q16 21 37.5 44.5t36.5 38t45.5 42t42.5 38.5l163 -162q-1 1 -17 -1.5t-40.5 -5t-57.5 1.5q-6 0 -26 23t-25 26q-5 -2 -26 -24.5t-26 -24.5q-11 -1 -107 4z" />
<glyph unicode="&#xcb;" horiz-adv-x="478" d="M38 5q0 76 -2.5 216.5t-2.5 253t6 214.5q117 6 265 8t149 -2q3 -21 3 -44.5t-1.5 -52.5t-1.5 -45v-1q-48 -11 -129.5 -10t-132.5 -2h-3l-1 -1q0 -7 -2.5 -60t3.5 -57l1 -1q18 -1 38.5 -1.5t45.5 -1t39 -0.5v-1q5 -4 3.5 -68t-1.5 -71q-20 -6 -67 -6t-54 -5q-8 -43 0 -125 l1 -1q34 0 122.5 -3.5t139.5 -1.5v-2q6 -81 -8 -131q-47 0 -131 -1.5t-153 -1.5t-126 5zM100 860q19 6 57 6.5t52 -5.5l-1 -22q-2 -22 -3.5 -46.5t-1.5 -32.5v-2h-2l-97 1h-3q-2 12 -2.5 32t0.5 43t1 26zM274 860q19 6 57 6.5t52 -5.5l-1 -22q-2 -22 -3.5 -46.5t-1.5 -32.5 v-2h-2l-97 1h-3q-2 12 -2.5 32t0.5 43t1 26z" />
<glyph unicode="&#xcc;" horiz-adv-x="274" d="M12 847l69 70q27 -21 90.5 -86t76.5 -77q-16 -4 -58.5 -5.5t-75.5 1.5q-6 9 -26.5 28.5t-45 41t-30.5 27.5zM67 -4q9 115 2 361.5t6 348.5v2q4 1 21 -0.5t20 -1.5q83 -3 110 -3h24v-4q0 -78 -3 -231.5t-3.5 -233t5.5 -229.5q-4 -13 -88.5 -10t-93.5 1z" />
<glyph unicode="&#xcd;" horiz-adv-x="301" d="M34 -4q9 115 2 361.5t6 348.5v2q4 1 21 -0.5t20 -1.5q83 -3 110 -3h24v-4q0 -78 -3 -231.5t-3.5 -233t5.5 -229.5q-4 -13 -88.5 -10t-93.5 1zM54 754q13 12 76.5 77t90.5 86l69 -70q-6 -6 -31 -27.5t-45.5 -41t-25.5 -28.5q-33 -3 -76 -1.5t-58 5.5z" />
<glyph unicode="&#xce;" horiz-adv-x="348" d="M14 755q16 21 37.5 44.5t36.5 38t45.5 42t42.5 38.5l163 -162q-1 1 -17 -1.5t-40.5 -5t-57.5 1.5q-6 0 -26 23t-25 26q-5 -2 -26 -24.5t-26 -24.5q-11 -1 -107 4zM71 -4q9 115 2 361.5t6 348.5v2q4 1 21 -0.5t20 -1.5q83 -3 110 -3h24v-4q0 -78 -3 -231.5t-3.5 -233 t5.5 -229.5q-4 -13 -88.5 -10t-93.5 1z" />
<glyph unicode="&#xcf;" horiz-adv-x="316" d="M21 860q19 6 57 6.5t52 -5.5l-2 -22q-1 -22 -2.5 -46.5t-1.5 -32.5v-2h-2l-97 1h-3q-2 12 -2.5 32t0.5 43t1 26zM59 -4q9 115 2 361.5t6 348.5v2q4 1 21 -0.5t20 -1.5q83 -3 110 -3h24v-4q0 -78 -3 -231.5t-3.5 -233t5.5 -229.5q-4 -13 -88.5 -10t-93.5 1zM195 860 q19 6 57 6.5t52 -5.5l-2 -22q-1 -22 -2.5 -46.5t-1.5 -32.5v-2h-2l-97 1h-3q-2 12 -2.5 32t0.5 43t1 26z" />
<glyph unicode="&#xd0;" horiz-adv-x="511" d="M21 410l57 -1q2 182 -1 278q7 1 43 6.5t49 7t46 4t49 0.5t43.5 -7t44 -15t35 -26.5t31.5 -38.5q31 -50 42 -94q20 -66 24 -116q11 -97 -12 -189q-43 -193 -127 -211q-38 -7 -84 -7.5t-98 2t-81 1.5q-4 128 -4 267q-19 1 -53 1q0 14 -2.5 59t-1.5 79zM193 278 q0 -87 2 -105q0 -4 6.5 -6t16 -2.5t19 0t18 1t9.5 0.5q44 4 68 39q16 25 22.5 78t0.5 97q0 2 -2.5 19t-3.5 21t-4 19t-5.5 21t-7 18t-9.5 18.5t-12.5 14.5t-16.5 14q-25 10 -52.5 8.5t-48.5 -9.5q3 -27 1 -118l59 -1q0 -6 1.5 -55.5t1.5 -72.5z" />
<glyph unicode="&#xd1;" horiz-adv-x="501" d="M38 1q1 79 -1.5 218.5t-1.5 258t9 217.5q29 8 70 5.5t76 -12.5v-1q2 -12 22.5 -48t55.5 -93t44 -72q6 23 1 100.5t1 121.5v3q43 7 90.5 6.5t65.5 -3.5l-1 -320q1 -56 1 -183t2 -182l-1 -14q-4 -10 -33.5 -10.5t-60 3t-53.5 -0.5h-1q-39 85 -120 299q-11 -150 -5 -294 q0 -1 -1 -1q-17 -8 -77 -1.5t-81 2.5q-1 0 -1 1zM55 755q8 28 25.5 69t34.5 60q28 28 65 34t70 -15q11 -7 25 -25t22 -23q11 -10 22.5 -10t19.5 6.5t15.5 17.5t12 20.5t7.5 18.5q1 0 82 3l1 -1q0 -1 1 -1q12 -57 -36 -127q-18 -21 -40 -28q-31 -13 -69.5 -1.5t-51.5 45.5 q-14 23 -39 23q-12 0 -35 -9q-27 -20 -15 -59v-1q-17 4 -68 4q-32 0 -49 -1z" />
<glyph unicode="&#xd2;" horiz-adv-x="472" d="M30 487q1 60 18.5 113.5t57.5 75.5q65 33 149 29t140 -47q29 -26 41 -61q10 -23 16 -62q4 -41 2 -99q-2 -33 -2 -101t-3 -104l-3 -33q-5 -82 -38 -135q-30 -41 -103 -61q-50 -15 -114 -10q-49 4 -82.5 19t-49.5 51q-22 38 -24 111q-1 20 -3.5 75.5t-3.5 84t-0.5 73 t2.5 81.5zM64 847l69 70q21 -16 51.5 -46.5t64.5 -65.5t51 -51q-16 -4 -58.5 -5.5t-75.5 1.5q-6 9 -26.5 28.5t-45 41t-30.5 27.5zM137 316q1 -9 6 -62t13 -79q19 -40 69.5 -44t81.5 31q9 12 13 21t4.5 14.5t1 22.5t1.5 33q0 7 0.5 15t0.5 14t0.5 11t0.5 8v4v48l-2 68 l-1 9.5t-2 23.5t-1 24q-5 62 -52 85q-39 16 -78 -14q-35 -28 -47 -69q-14 -66 -9 -164z" />
<glyph unicode="&#xd3;" horiz-adv-x="472" d="M24 487q1 60 18.5 113.5t57.5 75.5q65 33 149 29t140 -47q29 -26 41 -61q10 -23 16 -62q4 -41 2 -99q-2 -33 -2 -101t-3 -104l-3 -33q-5 -82 -38 -135q-30 -41 -103 -61q-50 -15 -114 -10q-49 4 -82.5 19t-49.5 51q-22 38 -24 111q-1 20 -3.5 75.5t-3.5 84t-0.5 73 t2.5 81.5zM131 316q1 -9 6 -62t13 -79q19 -40 69.5 -44t81.5 31q9 12 13 21t4.5 14.5t1 22.5t1.5 33q0 7 0.5 15t0.5 14t0.5 11t0.5 8v4v48l-2 68l-1 9.5t-2 23.5t-1 24q-5 62 -52 85q-39 16 -78 -14q-35 -28 -47 -69q-14 -66 -9 -164zM158 754q17 16 51 51t64.5 65.5 t51.5 46.5l69 -70q-6 -6 -31 -27.5t-45.5 -41t-25.5 -28.5q-33 -3 -76 -1.5t-58 5.5z" />
<glyph unicode="&#xd4;" horiz-adv-x="474" d="M27 487q1 60 18.5 113.5t57.5 75.5q65 33 149 29t140 -47q29 -26 41 -61q10 -23 16 -62q4 -41 2 -99q-2 -33 -2 -101t-3 -104l-3 -33q-5 -82 -38 -135q-30 -41 -103 -61q-50 -15 -114 -10q-49 4 -82.5 19t-49.5 51q-22 38 -24 111q-1 20 -3.5 75.5t-3.5 84t-0.5 73 t2.5 81.5zM81 755q16 21 37.5 44.5t36.5 38t45.5 42t42.5 38.5l163 -162q-1 1 -17 -1.5t-40.5 -5t-57.5 1.5q-6 0 -26 23t-25 26q-5 -2 -26 -24.5t-26 -24.5q-9 -1 -15.5 -1h-13t-29.5 2t-49 3zM134 316q1 -9 6 -62t13 -79q19 -40 69.5 -44t81.5 31q9 12 13 21t4.5 14.5 t1 22.5t1.5 33q0 7 0.5 15t0.5 14t0.5 11t0.5 8v4v48l-2 68l-1 9.5t-2 23.5t-1 24q-5 62 -52 85q-39 16 -78 -14q-35 -28 -47 -69q-14 -66 -9 -164z" />
<glyph unicode="&#xd5;" horiz-adv-x="482" d="M31 487q1 60 18.5 113.5t57.5 75.5q65 33 149 29t140 -47q29 -26 41 -61q10 -23 16 -62q4 -41 2 -99q-2 -33 -2 -101t-3 -104l-3 -33q-5 -82 -38 -135q-30 -41 -103 -61q-50 -15 -114 -10q-49 4 -82.5 19t-49.5 51q-22 38 -24 111q-1 20 -3.5 75.5t-3.5 84t-0.5 73 t2.5 81.5zM39 746q5 17 13.5 40t21.5 49.5t25 39.5q28 28 65 34t70 -15q9 -5 17 -15t15.5 -19.5t14.5 -13.5q11 -10 22.5 -10t19.5 6.5t15.5 17.5t12 20.5t7.5 18.5q1 0 82 3l1 -1q0 -1 1 -1q12 -57 -36 -127q-18 -21 -40 -28q-31 -13 -69.5 -1.5t-51.5 45.5q-14 23 -39 23 q-12 0 -35 -9q-27 -20 -15 -59v-1q-17 4 -68 4q-32 0 -49 -1zM138 316q1 -9 6 -62t13 -79q19 -40 69.5 -44t81.5 31q9 12 13 21t4.5 14.5t1 22.5t1.5 33q0 11 0.5 24t1 20t0.5 8v48l-2 68l-0.5 4t-1 10t-1 13t-1 15.5t-0.5 14.5q-5 62 -52 85q-39 16 -78 -14 q-35 -28 -47 -69q-14 -66 -9 -164z" />
<glyph unicode="&#xd6;" horiz-adv-x="477" d="M29 487q1 60 18.5 113.5t57.5 75.5q65 33 149 29t140 -47q29 -26 41 -61q10 -23 16 -62q4 -41 2 -99q-2 -33 -2 -101t-3 -104l-3 -33q-5 -82 -38 -135q-30 -41 -103 -61q-50 -15 -114 -10q-49 4 -82.5 19t-49.5 51q-22 38 -24 111q-1 20 -3.5 75.5t-3.5 84t-0.5 73 t2.5 81.5zM103 860q19 6 57 6.5t52 -5.5l-1.5 -22t-3 -46.5t-1.5 -32.5v-2h-2l-97 1h-3q-2 12 -2.5 32t0.5 43t1 26zM136 316q3 -17 5 -45.5t5 -52.5t9 -43q19 -40 69.5 -44t81.5 31q9 12 13 21t4.5 14.5t1 22.5t1.5 33q0 7 0.5 15t0.5 14t0.5 11t0.5 8v4v48l-2 68l-1 9.5 t-2 23.5t-1 24q-5 62 -52 85q-39 16 -78 -14q-35 -28 -47 -69q-14 -66 -9 -164zM277 860q19 6 57 6.5t52 -5.5l-1.5 -22t-3 -46.5t-1.5 -32.5v-2h-2l-97 1h-3q-2 12 -2.5 32t0.5 43t1 26z" />
<glyph unicode="&#xd7;" horiz-adv-x="771" d="M31 726l647 -2q0 -600 5 -711q-1 -1 -1 -4q0 -9 -22 -12.5t-172 -3t-452 8.5q6 161 4.5 245t-5.5 234.5t-4 244.5zM135 101q51 106 77.5 181.5t32.5 89.5q-5 15 -15.5 51.5t-17.5 58t-26.5 65.5t-47.5 96q-3 -155 -3 -542zM249 97q49 -3 117 -0.5t87 6.5l-107 225 q-5 -12 -45.5 -103.5t-51.5 -127.5zM257 640q14 -50 51.5 -139t38.5 -91q3 9 44 94t58 137q-23 0 -96 -0.5t-96 -0.5zM455 370q6 -43 58.5 -142t61.5 -121q2 70 2 165t-1 207.5t-1 158.5q-5 -13 -59.5 -119.5t-60.5 -148.5z" />
<glyph unicode="&#xd8;" horiz-adv-x="482" d="M34 -21q-4 6 26 88q0 1 0.5 1t0.5 1t-0.5 1t-0.5 1q-40 159 -26 394q1 12 2.5 45.5t5.5 56t14 42.5q17 36 43 62q53 41 180 30q2 1 3 11.5t7 10.5h1q24 -3 48.5 -1t50.5 1.5t36 -7.5q0 -13 -10 -36t-8 -35q34 -39 42 -90.5t3 -120.5v-59t-1 -66t-2.5 -55.5t-5 -65 t-8.5 -57.5q-12 -54 -50.5 -88.5t-93.5 -39.5q-18 -2 -56 -2.5t-54 -2.5h-2q0 -6 -13 -15l-1 -1q-14 -3 -60 -2.5t-71 -0.5zM142 279q11 34 44 132t49 151v1h-8q-10 -1 -20.5 -5.5t-19.5 -11.5t-16.5 -16.5t-11.5 -19.5q-3 -18 -4.5 -41t-3 -45.5t-4.5 -40.5 q-11 -86 -5 -104zM230 131q1 0 1.5 -0.5l0.5 -0.5q27 5 53.5 19.5t33.5 37.5q9 39 10 78t-2.5 77.5t-3.5 48.5v4q-11 -30 -93 -264z" />
<glyph unicode="&#xd9;" horiz-adv-x="481" d="M24 147q0 64 3 248t1 284l-1 1h1q7 0 42 1t58 0t41 -6v-1q-11 -242 9 -491q9 -31 36.5 -41t54 3.5t32.5 42.5q4 91 6 261t3 223q5 0 24.5 2.5t33.5 3.5t32.5 1.5t32.5 -2t23 -7.5v-1q13 -288 -12 -518q-9 -68 -51.5 -113t-112.5 -52q-59 -6 -115.5 8.5t-97.5 54.5t-43 98 zM82 847l69 70q27 -21 90.5 -86t76.5 -77q-16 -4 -58.5 -5.5t-75.5 1.5q-6 9 -26.5 28.5t-45 41t-30.5 27.5z" />
<glyph unicode="&#xda;" horiz-adv-x="482" d="M19 147q0 64 3 248t1 284l-1 1h1q7 0 42 1t58 0t41 -6v-1q-11 -242 9 -491q9 -31 36.5 -41t54 3.5t32.5 42.5q4 91 6 261t3 223q5 0 24.5 2.5t33.5 3.5t32.5 1.5t32.5 -2t23 -7.5v-1q13 -288 -12 -518q-9 -68 -51.5 -113t-112.5 -52q-59 -6 -115.5 8.5t-97.5 54.5t-43 98 zM165 754q13 12 76.5 77t90.5 86l69 -70q-6 -6 -31 -27.5t-45.5 -41t-25.5 -28.5q-33 -3 -76 -1.5t-58 5.5z" />
<glyph unicode="&#xdb;" horiz-adv-x="484" d="M23 147q0 64 3 248t1 284l-1 1h1q7 0 42 1t58 0t41 -6v-1q-11 -242 9 -491q9 -31 36.5 -41t54 3.5t32.5 42.5q4 91 6 261t3 223q5 0 24.5 2.5t33.5 3.5t32.5 1.5t32.5 -2t23 -7.5v-1q13 -288 -12 -518q-9 -68 -51.5 -113t-112.5 -52q-59 -6 -115.5 8.5t-97.5 54.5t-43 98 zM72 755q16 21 37.5 44.5t36.5 38t45.5 42t42.5 38.5l163 -162q-1 1 -17 -1.5t-40.5 -5t-57.5 1.5q-6 0 -26 23t-25 26q-5 -2 -26 -24.5t-26 -24.5q-11 -1 -107 4z" />
<glyph unicode="&#xdc;" horiz-adv-x="486" d="M24 147q0 64 3 248t1 284l-1 1h1q7 0 42 1t58 0t41 -6v-1q-11 -242 9 -491q9 -31 36.5 -41t54 3.5t32.5 42.5q4 91 6 261t3 223q5 0 24.5 2.5t33.5 3.5t32.5 1.5t32.5 -2t23 -7.5v-1q13 -288 -12 -518q-9 -68 -51.5 -113t-112.5 -52q-59 -6 -115.5 8.5t-97.5 54.5t-43 98 zM98 860q19 6 57 6.5t52 -5.5l-1 -22q-2 -22 -3.5 -46.5t-1.5 -32.5v-2h-2l-97 1h-3q-2 12 -2.5 32t0.5 43t1 26zM272 860q19 6 57 6.5t52 -5.5l-1 -22q-2 -22 -3.5 -46.5t-1.5 -32.5v-2h-2l-97 1h-3q-2 12 -2.5 32t0.5 43t1 26z" />
<glyph unicode="&#xdd;" horiz-adv-x="455" d="M12 -2q17 54 130 344v2q-14 58 -62.5 172.5t-62.5 171.5q12 0 46 3t61 2.5t45 -7.5q27 -107 59 -173q29 52 79 171q1 0 2 1q96 13 140 4v-1q-39 -124 -147 -351t-146 -338q-18 2 -68.5 0t-73.5 -1h-2zM150 754q13 12 76.5 77t90.5 86l69 -70q-6 -6 -31 -27.5t-45.5 -41 t-25.5 -28.5q-33 -3 -76 -1.5t-58 5.5z" />
<glyph unicode="&#xde;" horiz-adv-x="465" d="M35 -4q10 154 5.5 379.5t1.5 354.5l136 -3q0 -20 1 -47.5t1 -93.5q9 22 27.5 32.5t34 12t46.5 1.5q71 -2 119.5 -67t48.5 -164q0 -59 -14.5 -117.5t-49.5 -104.5t-83 -46q-33 0 -68.5 15t-59.5 39q0 -43 -0.5 -77.5t-1.5 -51t-1.5 -28.5t0 -16.5t1.5 -9.5q-8 -9 -70.5 -8 t-73.5 0zM182 394v-12q0 -26 0.5 -38t3.5 -29t9.5 -24t18.5 -12.5t30 -5.5q41 0 65 31t24 77q0 33 -6 53q-6 27 -30 45.5t-63 18.5t-45.5 -15t-6.5 -89z" />
<glyph unicode="&#xdf;" horiz-adv-x="452" d="M13 692l1 1q51 14 103 19.5t105.5 -1.5t95 -28t67.5 -66t26 -109q0 -74 -49 -156q-5 -9 5 -21q1 -2 4 -5l18 -22.5t15.5 -21t14 -23t10.5 -24t7.5 -27.5t1.5 -29.5t-3 -33.5q-15 -88 -85 -122q-34 -17 -63 -22t-80 -1q-12 43 -3 122q5 18 32 20q30 5 38.5 32t-0.5 56.5 t-26 45.5q-35 36 -32 79q7 45 35 71q49 47 30 84q-15 29 -49 37q-65 12 -92 -3q0 -10 -1.5 -30t-2.5 -30q-1 -20 1.5 -81t2.5 -72q3 -111 5 -237q2 -96 -9 -94q-74 0 -98 1q-17 0 -22 2q-5 95 -3 344.5t0 344.5z" />
<glyph unicode="&#xe0;" horiz-adv-x="467" d="M18 266q0 99 48.5 164t119.5 67q31 0 45.5 -1.5t31 -12t25.5 -32.5q-1 12 1.5 28.5t2.5 22.5q0 1 48 1q70 -3 98 -5q2 -16 2 -24v-10q-2 -58 0.5 -212.5t-2.5 -211.5v-6.5v-7v-6t-0.5 -6t-1.5 -5.5t-2.5 -5t-3.5 -3t-5 -2h-12q-11 0 -33 1.5t-32 1.5q-8 0 -22 -1.5 t-21 -1.5q-12 4 -12 22q0 8 2 18.5t2 16.5q-25 -25 -61.5 -41.5t-70.5 -16.5q-48 0 -83 46t-49.5 104.5t-14.5 117.5zM113 684l69 70q27 -21 90.5 -86t76.5 -77q-16 -4 -58.5 -5.5t-75.5 1.5q-6 9 -26.5 28.5t-45 41t-30.5 27.5zM141 246q0 -46 24 -77t65 -31q18 0 30 5.5 t18.5 12.5t9.5 24t3.5 29t0.5 38v12v14q0 62 -7 76t-45 14q-39 0 -63 -18.5t-30 -45.5q-6 -20 -6 -53z" />
<glyph unicode="&#xe1;" horiz-adv-x="468" d="M13 266q0 99 48.5 164t119.5 67q31 0 45.5 -1.5t31 -12t25.5 -32.5q-1 12 1.5 28.5t2.5 22.5q0 1 48 1q70 -3 98 -5q2 -16 2 -24v-10q-2 -58 0.5 -212.5t-2.5 -211.5v-6.5v-7v-6t-0.5 -6t-1.5 -5.5t-2.5 -5t-3.5 -3t-5 -2h-12q-10 0 -32 1.5t-33 1.5q-7 0 -21 -1.5 t-22 -1.5q-12 4 -12 22q0 8 2 18.5t2 16.5q-25 -25 -61.5 -41.5t-70.5 -16.5q-48 0 -83 46t-49.5 104.5t-14.5 117.5zM136 246q0 -46 24 -77t65 -31q18 0 30 5.5t18.5 12.5t9.5 24t3.5 29t0.5 38v12v14q0 62 -7 76t-45 14q-39 0 -63 -18.5t-30 -45.5q-6 -20 -6 -53zM153 591 q13 12 76.5 77t90.5 86l69 -70q-6 -6 -31 -27.5t-45.5 -41t-25.5 -28.5q-33 -3 -76 -1.5t-58 5.5z" />
<glyph unicode="&#xe2;" horiz-adv-x="470" d="M17 266q0 99 48.5 164t119.5 67q31 0 45.5 -1.5t31 -12t25.5 -32.5q-1 12 1.5 28.5t2.5 22.5q0 1 48 1q70 -3 98 -5q2 -16 2 -24v-10q-2 -58 0.5 -212.5t-2.5 -211.5v-6.5v-7v-6t-0.5 -6t-1.5 -5.5t-2.5 -5t-3.5 -3t-5 -2h-12q-10 0 -32 1.5t-33 1.5q-7 0 -21 -1.5 t-22 -1.5q-12 4 -12 22q0 8 2 18.5t2 16.5q-25 -25 -61.5 -41.5t-70.5 -16.5q-48 0 -83 46t-49.5 104.5t-14.5 117.5zM88 594q16 21 37.5 44.5t36.5 38t45.5 42t42.5 38.5l163 -162q-1 1 -17 -1.5t-40.5 -5t-57.5 1.5q-6 0 -26 23t-25 26q-5 -2 -26 -24.5t-26 -24.5 q-11 -1 -107 4zM140 246q0 -46 24 -77t65 -31q18 0 30 5.5t18.5 12.5t9.5 24t3.5 29t0.5 38v12v14q0 62 -7 76t-45 14q-39 0 -63 -18.5t-30 -45.5q-6 -20 -6 -53z" />
<glyph unicode="&#xe3;" horiz-adv-x="487" d="M21 266q0 99 48.5 164t119.5 67q31 0 45.5 -1.5t31 -12t25.5 -32.5q-1 12 1.5 28.5t2.5 22.5q0 1 48 1q70 -3 98 -5q2 -16 2 -24v-10q-2 -58 0.5 -212.5t-2.5 -211.5v-6.5v-7v-6t-0.5 -6t-1.5 -5.5t-2.5 -5t-3.5 -3t-5 -2h-12q-10 0 -32 1.5t-33 1.5q-7 0 -21.5 -1.5 t-21.5 -1.5q-12 4 -12 22q0 8 2 18.5t2 16.5q-25 -25 -61.5 -41.5t-70.5 -16.5q-48 0 -83 46t-49.5 104.5t-14.5 117.5zM49 592q8 28 25.5 69t34.5 60q28 28 65 34t70 -15q9 -6 17 -15.5t15.5 -19t14.5 -13.5q11 -10 22.5 -10t19.5 6.5t15.5 17.5t12 20.5t7.5 18.5q1 0 82 3 l1 -1q0 -1 1 -1v-1q7 -51 -19.5 -101t-75.5 -58q-33 -6 -61.5 7t-40.5 42q-13 22 -35 23q-37 0 -51 -22q-11 -21 -3 -46v-1q-17 4 -68 4q-32 0 -49 -1zM144 246q0 -46 24 -77t65 -31q18 0 30 5.5t18.5 12.5t9.5 24t3.5 29t0.5 38v12v14v30.5t-1 22t-3 16.5t-5.5 10t-9.5 7.5 t-13.5 2.5t-19.5 1q-39 0 -63 -18.5t-30 -45.5q-6 -20 -6 -53z" />
<glyph unicode="&#xe4;" horiz-adv-x="480" d="M20 266q0 99 48.5 164t119.5 67q31 0 45.5 -1.5t31 -12t25.5 -32.5q-1 12 1.5 28.5t2.5 22.5q0 1 48 1q70 -3 98 -5q2 -16 2 -24v-10q-2 -58 0.5 -212.5t-2.5 -211.5v-6.5v-7v-6t-0.5 -6t-1.5 -5.5t-2.5 -5t-3.5 -3t-5 -2h-12q-11 0 -33 1.5t-32 1.5q-8 0 -22 -1.5 t-21 -1.5q-12 4 -12 22q0 8 2 18.5t2 16.5q-25 -25 -61.5 -41.5t-70.5 -16.5q-48 0 -83 46t-49.5 104.5t-14.5 117.5zM116 760l136 -3q0 -6 1.5 -55.5t1.5 -72.5q-5 -8 -26 -9t-56 1t-53 1q0 14 -2.5 59t-1.5 79zM143 246q0 -46 24 -77t65 -31q18 0 30 5.5t18.5 12.5t9.5 24 t3.5 29t0.5 38v12v14q0 62 -7 76t-45 14q-39 0 -63 -18.5t-30 -45.5q-6 -20 -6 -53zM300 760l136 -3q0 -6 1.5 -55.5t1.5 -72.5q-5 -8 -26 -9t-56 1t-53 1q0 14 -2.5 59t-1.5 79z" />
<glyph unicode="&#xe5;" horiz-adv-x="470" d="M17 266q0 99 48.5 164t119.5 67q31 0 45.5 -1.5t31 -12t25.5 -32.5q-1 12 1.5 28.5t2.5 22.5q0 1 48 1q70 -3 98 -5q2 -16 2 -24v-10q-2 -58 0.5 -212.5t-2.5 -211.5v-6.5v-7v-6t-0.5 -6t-1.5 -5.5t-2.5 -5t-3.5 -3t-5 -2h-12q-10 0 -32 1.5t-33 1.5q-7 0 -21 -1.5 t-22 -1.5q-12 4 -12 22q0 8 2 18.5t2 16.5q-25 -25 -61.5 -41.5t-70.5 -16.5q-48 0 -83 46t-49.5 104.5t-14.5 117.5zM140 246q0 -46 24 -77t65 -31q18 0 30 5.5t18.5 12.5t9.5 24t3.5 29t0.5 38v12v14q0 62 -7 76t-45 14q-39 0 -63 -18.5t-30 -45.5q-6 -20 -6 -53zM163 712 q2 8 11 20q28 25 78 20q60 -2 79 -29q19 -66 -6 -129q-14 -22 -60 -24q-19 -3 -56 -1q-34 2 -45 29q-13 67 -1 114zM202 665q0 -34 10 -44q11 -9 25 -9h10q2 0 7 0.5t7 0.5t6.5 0.5t7.5 1.5t6 2.5t5.5 4t3.5 5.5q11 46 -2 67q-14 14 -39 14q-17 0 -30 -6q-17 -11 -17 -37z " />
<glyph unicode="&#xe6;" horiz-adv-x="783" d="M107 340q-7 56 31.5 93.5t94 48.5t112 3t84.5 -34q37 32 92.5 42.5t110.5 -3.5q142 -25 126 -233q-21 -6 -121.5 -10t-131.5 2v-17v-12t0.5 -11.5t0.5 -9.5t0.5 -9.5t1.5 -8.5t2 -8.5t2.5 -7t3.5 -8t4 -7.5q16 -28 45 -37t52 11.5t21 68.5q9 -1 59 1t59 -3 q-1 -7 -2 -21.5t-1.5 -21.5t-1.5 -20t-2 -20.5t-2.5 -17.5t-3 -16t-3.5 -13t-4.5 -11t-5.5 -7q-15 -21 -44.5 -31t-50.5 -11.5t-67 0.5t-55 2q-56 10 -89 56q-32 -26 -52 -38q-45 -26 -96.5 -29t-92 15t-69.5 50.5t-29.5 78t27.5 97.5q31 48 113 56.5t130 -21.5q-2 29 -1 44 t0.5 24t-2.5 15q-8 34 -37.5 44t-56.5 -7t-27 -49q-93 -15 -124 1zM211 193q-9 -9 -15 -23t-5.5 -29t14 -27.5t39.5 -16.5q58 -10 83.5 12.5t21 51t-22.5 39.5q-70 33 -115 -7zM508 343q-3 -17 3 -20q6 -1 86 -1q21 0 44 -2h7h5t2.5 1t0.5 2.5t0 4.5v5q0 28 -19.5 49.5 t-49.5 21.5q-41 0 -57.5 -16t-21.5 -45z" />
<glyph unicode="&#xe7;" horiz-adv-x="457" d="M37 323q0 36 6 72q1 9 16 59q13 29 55.5 43.5t94.5 14.5q13 -1 38.5 -0.5t39.5 -0.5q73 -5 111 -42q6 -4 11 -9.5t9 -14t6.5 -15t4.5 -19t3 -19.5t2 -23.5t1.5 -24t1 -27.5t0.5 -28q-36 -8 -127 5q-5 37 -29.5 55t-62.5 9q-21 -6 -34 -22q-6 -5 -9 -20q-3 -23 -4 -68 t-2 -62q-2 -29 20.5 -43.5t50.5 -13.5t44 12q14 10 24 53q9 -1 63 1t64 -3q-10 -139 -28 -157q-29 -42 -112 -47q-4 -13 -23.5 -67.5t-22.5 -67.5v-1q-109 0 -109 1q24 64 48 137l-13 1q-51 9 -86 44q-25 22 -37 59.5t-12 75.5t-0.5 80t-2.5 73zM438 -89l1 -1q-1 0 -1 1z " />
<glyph unicode="&#xe8;" horiz-adv-x="446" d="M22 284q8 101 22 139q25 57 98.5 80t148.5 4q150 -25 134 -248q-22 -6 -128.5 -10t-139.5 2v-18v-12.5t0.5 -12t0.5 -10t0.5 -10t1.5 -8.5t2 -9l2.5 -7.5t3.5 -8.5l4 -8q16 -31 47 -40.5t55.5 13t22.5 72.5q9 -1 62 1t64 -3q-10 -141 -28 -156q-13 -18 -33 -29t-47 -14 t-48 -3.5t-54.5 1t-47.5 1.5q-28 4 -52 18q-50 35 -72.5 111.5t-18.5 164.5zM93 684l69 70q27 -21 90.5 -86t76.5 -77q-16 -4 -58.5 -5.5t-75.5 1.5q-6 9 -26.5 28.5t-45 41t-30.5 27.5zM160 351q-3 -18 4 -20q6 -2 90 -2q20 0 43 -1q15 -1 17.5 0t2.5 9v4q0 45 -39 65 q-16 10 -35 10q-43 0 -61 -17t-22 -48z" />
<glyph unicode="&#xe9;" horiz-adv-x="448" d="M17 284q8 101 22 139q25 57 98.5 80t148.5 4q150 -25 134 -248q-23 -6 -128.5 -10t-139.5 2v-18v-12.5t0.5 -12t0.5 -10t0.5 -10t1.5 -8.5t2 -9l2.5 -7.5t3.5 -8.5l4 -8q16 -31 47 -40.5t55.5 13t22.5 72.5q9 -1 62 1t64 -3q-10 -141 -28 -156q-13 -18 -33 -29t-47 -14 t-48 -3.5t-54.5 1t-47.5 1.5q-28 4 -52 18q-50 35 -72.5 111.5t-18.5 164.5zM140 591q13 12 76.5 77t90.5 86l69 -70q-6 -6 -31 -27.5t-45.5 -41t-25.5 -28.5q-33 -3 -76 -1.5t-58 5.5zM155 351q-3 -18 4 -20q6 -2 90 -2q20 0 43 -1q15 -1 17.5 0t2.5 9v4q0 45 -39 65 q-16 10 -35 10q-43 0 -61 -17t-22 -48z" />
<glyph unicode="&#xea;" horiz-adv-x="449" d="M21 284q8 101 22 139q25 57 98.5 80t148.5 4q150 -25 134 -248q-23 -6 -128.5 -10t-139.5 2v-18v-12.5t0.5 -12t0.5 -10t0.5 -10t1.5 -8.5t2 -9l2.5 -7.5t3.5 -8.5l4 -8q16 -31 47 -40.5t55.5 13t22.5 72.5q9 -1 62 1t64 -3q-10 -141 -28 -156q-13 -18 -33 -29t-47 -14 t-48 -3.5t-54.5 1t-47.5 1.5q-28 4 -52 18q-50 35 -72.5 111.5t-18.5 164.5zM72 594q16 21 37.5 44.5t36.5 38t45.5 42t42.5 38.5l163 -162q-1 1 -17 -1.5t-40.5 -5t-57.5 1.5q-6 0 -26 23t-25 26q-5 -2 -26 -24.5t-26 -24.5q-11 -1 -107 4zM159 351q-3 -18 4 -20 q6 -2 90 -2q20 0 43 -1q15 -1 17.5 0t2.5 9v4q0 45 -39 65q-16 10 -35 10q-43 0 -61 -17t-22 -48z" />
<glyph unicode="&#xeb;" horiz-adv-x="459" d="M26 284q8 101 22 139q25 57 98.5 80t148.5 4q150 -25 134 -248q-22 -6 -128.5 -10t-139.5 2v-18v-12.5t0.5 -12t0.5 -10t0.5 -10t1.5 -8.5t2 -9l2.5 -7.5t3.5 -8.5l4 -8q16 -31 47 -40.5t55.5 13t22.5 72.5q9 -1 62 1t64 -3q-10 -141 -28 -156q-13 -18 -33 -29t-47 -14 t-48 -3.5t-54.5 1t-47.5 1.5q-28 4 -52 18q-50 35 -72.5 111.5t-18.5 164.5zM67 760l136 -3q0 -6 1.5 -55.5t1.5 -72.5q-5 -8 -26 -9t-56 1t-53 1q0 14 -2.5 59t-1.5 79zM164 351q-3 -18 4 -20q6 -2 90 -2q20 0 43 -1q15 -1 17.5 0t2.5 9v4q0 45 -39 65q-16 10 -35 10 q-43 0 -61 -17t-22 -48zM251 760l136 -3q0 -6 1.5 -55.5t1.5 -72.5q-5 -8 -26 -9t-56 1t-53 1q0 14 -2.5 59t-1.5 79z" />
<glyph unicode="&#xec;" horiz-adv-x="263" d="M8 684l69 70q27 -21 90.5 -86t76.5 -77q-16 -4 -58.5 -5.5t-75.5 1.5q-6 9 -26.5 28.5t-45 41t-30.5 27.5zM97 0q6 81 2 257t4 248v1q3 1 14.5 0t13.5 -1q50 -3 91 -2h17v-3q0 -48 -2.5 -164t-2.5 -166.5t4 -163.5q-1 -9 -68.5 -7t-72.5 1z" />
<glyph unicode="&#xed;" horiz-adv-x="264" d="M20 591q13 12 76.5 77t90.5 86l69 -70q-6 -6 -31 -27.5t-45.5 -41t-25.5 -28.5q-33 -3 -76 -1.5t-58 5.5zM25 500v3h17q41 -1 91 2q2 0 13.5 1t14.5 0v-1q8 -81 4 -248t2 -257q-5 1 -72.5 -1t-68.5 7q4 113 4 163.5t-2.5 166.5t-2.5 164z" />
<glyph unicode="&#xee;" horiz-adv-x="341" d="M9 594q16 21 37.5 44.5t36.5 38t45.5 42t42.5 38.5l163 -162q-1 1 -17 -1.5t-40.5 -5t-57.5 1.5q-6 0 -26 23t-25 26q-5 -2 -26 -24.5t-26 -24.5q-11 -1 -107 4zM96 0q6 81 2 257t4 248v1q3 1 14.5 0t13.5 -1q50 -3 91 -2h17v-3q0 -48 -2.5 -164t-2.5 -166.5t4 -163.5 q-1 -9 -68.5 -7t-72.5 1z" />
<glyph unicode="&#xef;" horiz-adv-x="355" d="M17 760l136 -3q0 -6 1.5 -55.5t1.5 -72.5q-5 -8 -26 -9t-56 1t-53 1q0 14 -2.5 59t-1.5 79zM105 0q6 81 2 257t4 248v1q3 1 14.5 0t13.5 -1q50 -3 91 -2h17v-3q0 -48 -2.5 -164t-2.5 -166.5t4 -163.5q-1 -9 -68.5 -7t-72.5 1zM201 760l136 -3q0 -6 1.5 -55.5t1.5 -72.5 q-5 -8 -26 -9t-56 1t-53 1q0 14 -2.5 59t-1.5 79z" />
<glyph unicode="&#xf0;" horiz-adv-x="555" d="M27 206q-4 110 29 170t123 71q98 11 164 -22q-3 16 -5 45.5t-6 45.5q-15 77 -65 119q-106 -71 -158 -104q-11 16 -42 40t-32 26q1 0 121 87q-19 4 -58 26t-61 32q-1 1 27.5 27t61.5 50t42 20q21 -8 56.5 -29.5t63.5 -30.5q103 73 108 76q17 -23 44 -38t45 -34 q-11 -7 -42 -25.5t-52 -32.5q40 -33 62 -78q16 -32 28 -81t16.5 -81.5t12.5 -96.5q12 -75 8 -145t-20 -125.5t-61 -92.5t-115 -46q-72 -8 -133.5 6.5t-106 58t-52.5 111.5q-2 14 -2 23zM156 208l2 -16q11 -36 49 -52t81 -12q93 11 83 87q-4 35 -31 58.5t-59 31.5t-61 5 q-77 -10 -64 -102z" />
<glyph unicode="&#xf1;" horiz-adv-x="462" d="M26 592q8 28 25.5 69t34.5 60q28 28 65 34t70 -15q9 -6 17 -15.5t15.5 -19t14.5 -13.5q11 -10 22.5 -10t19.5 6.5t15.5 17.5t12 20.5t7.5 18.5q1 0 82 3l1 -1q0 -1 1 -1v-1q7 -51 -19.5 -101t-75.5 -58q-33 -6 -61.5 7t-40.5 42q-13 22 -35 23q-37 0 -51 -22 q-11 -21 -3 -46v-1q-17 4 -68 4q-32 0 -49 -1zM38 498q35 -3 70 0q3 0 10.5 1t15.5 2t16 1.5t13 0t5 -3.5q2 -13 2 -30.5v-22.5q20 11 25 15q43 32 100.5 34.5t100.5 -31.5q19 -17 22 -98t-0.5 -199t-0.5 -165q-17 -2 -34 -3.5t-28 -1.5t-31.5 0.5t-31.5 0.5q-2 30 -2 111.5 t-2 120.5q0 4 -1 13t-1.5 14t-1.5 13.5t-2 14.5t-2.5 13t-4 12t-5.5 9.5t-7 7.5q-1 0 -2.5 0.5t-1.5 1.5q-10 5 -24 6.5t-29.5 -2t-27.5 -18.5t-14 -40q-2 -38 2 -135.5t-3 -132.5v-4q-20 -6 -38.5 -6.5t-35.5 1.5t-50 -1q0 21 -2.5 246t1.5 255z" />
<glyph unicode="&#xf2;" horiz-adv-x="454" d="M37 325q0 41 5 72q0 7 3 18t7.5 23.5t5.5 17.5q13 29 55.5 43.5t94.5 14.5q13 -1 38.5 -0.5t39.5 -0.5q72 -5 111 -43q17 -11 26 -42t11 -58t3 -80q1 -12 1 -18q-7 -178 -22 -218q-5 -12 -10 -17q-16 -23 -47.5 -34t-54 -12.5t-71 0.5t-59.5 2q-51 9 -86 44 q-25 22 -37 59.5t-12.5 75.5t-0.5 80t-1 73zM92 684l69 70q27 -21 90.5 -86t76.5 -77q-16 -4 -58.5 -5.5t-75.5 1.5q-6 9 -26.5 28.5t-45 41t-30.5 27.5zM168 188q-1 -28 20.5 -42.5t48.5 -13.5t46 11q17 8 23 33q10 90 3 126q-5 36 -29 51.5t-63 6.5q-21 -6 -34 -22 q-6 -5 -9 -20q-3 -24 -4 -68.5t-2 -61.5z" />
<glyph unicode="&#xf3;" horiz-adv-x="456" d="M32 325q0 41 5 72q0 7 3 18t7.5 23.5t5.5 17.5q13 29 55.5 43.5t94.5 14.5q13 -1 38.5 -0.5t39.5 -0.5q72 -5 111 -43q17 -11 26 -42t11 -58t3 -80q1 -12 1 -18q-7 -178 -22 -218q-5 -12 -10 -17q-16 -23 -47.5 -34t-54 -12.5t-71 0.5t-59.5 2q-51 9 -86 44 q-25 22 -37 59.5t-12.5 75.5t-0.5 80t-1 73zM152 591q13 12 76.5 77t90.5 86l69 -70q-6 -6 -31 -27.5t-45.5 -41t-25.5 -28.5q-33 -3 -76 -1.5t-58 5.5zM163 188q-1 -28 20.5 -42.5t48.5 -13.5t46 11q17 8 23 33q10 90 3 126q-5 36 -29 51.5t-63 6.5q-21 -6 -34 -22 q-6 -5 -9 -20q-3 -24 -4 -68.5t-2 -61.5z" />
<glyph unicode="&#xf4;" horiz-adv-x="458" d="M36 325q0 41 5 72q0 7 3 18t7.5 23.5t5.5 17.5q13 29 55.5 43.5t94.5 14.5q13 -1 38.5 -0.5t39.5 -0.5q72 -5 111 -43q17 -11 26 -42t11 -58t3 -80q1 -12 1 -18q-7 -178 -22 -218q-5 -12 -10 -17q-16 -23 -47.5 -34t-54 -12.5t-71 0.5t-59.5 2q-51 9 -86 44 q-25 22 -37 59.5t-12.5 75.5t-0.5 80t-1 73zM82 594q16 21 37.5 44.5t36.5 38t45.5 42t42.5 38.5l163 -162q-1 1 -17 -1.5t-40.5 -5t-57.5 1.5q-6 0 -26 23t-25 26q-5 -2 -26 -24.5t-26 -24.5q-11 -1 -107 4zM167 188q-1 -28 20.5 -42.5t48.5 -13.5t46 11q17 8 23 33 q10 90 3 126q-5 36 -29 51.5t-63 6.5q-21 -6 -34 -22q-6 -5 -9 -20q-3 -24 -4 -68.5t-2 -61.5z" />
<glyph unicode="&#xf5;" horiz-adv-x="474" d="M39 592q8 28 25.5 69t34.5 60q28 28 65 34t70 -15q11 -7 25 -25t22 -23q11 -10 22.5 -10t19.5 6.5t15.5 17.5t12 20.5t7.5 18.5q1 0 82 3l1 -1q0 -1 1 -1v-1q7 -51 -19.5 -101t-75.5 -58q-33 -6 -61.5 7t-40.5 42q-13 22 -35 23q-37 0 -51 -22q-11 -21 -3 -46v-1 q-17 4 -68 4q-32 0 -49 -1zM40 325q0 41 5 72q0 7 3 18t7.5 23.5t5.5 17.5q13 29 55.5 43.5t94.5 14.5q13 -1 38.5 -0.5t39.5 -0.5q72 -5 111 -43q17 -11 26 -42t11 -58t3 -80q1 -12 1 -18q0 -5 -1 -17q-1 -41 -2.5 -65.5t-4.5 -61.5t-9 -59.5t-15 -31.5q-13 -19 -33 -29.5 t-47.5 -14t-48.5 -3.5t-54.5 1.5t-48.5 1.5q-51 9 -86 44q-25 22 -37 59.5t-12.5 75.5t-0.5 80t-1 73zM171 188q-1 -28 20.5 -42.5t48.5 -13.5t46 11q17 8 23 33q10 90 3 126q-5 36 -29 51.5t-63 6.5q-21 -6 -34 -22q-6 -5 -9 -20q-3 -24 -4 -68.5t-2 -61.5z" />
<glyph unicode="&#xf6;" horiz-adv-x="466" d="M40 325q0 41 5 72q0 7 3 18t7.5 23.5t5.5 17.5q13 29 55.5 43.5t94.5 14.5q13 -1 38.5 -0.5t39.5 -0.5q72 -5 111 -43q17 -11 26 -42t11 -58t3 -80q1 -12 1 -18q-7 -178 -22 -218q-5 -12 -10 -17q-16 -23 -47.5 -34t-54 -12.5t-71 0.5t-59.5 2q-51 9 -86 44 q-25 22 -37 59.5t-12.5 75.5t-0.5 80t-1 73zM74 760l136 -3q0 -6 1.5 -55.5t1.5 -72.5q-5 -8 -26 -9t-56 1t-53 1q0 14 -2.5 59t-1.5 79zM171 188q-1 -28 20.5 -42.5t48.5 -13.5t46 11q17 8 23 33q10 90 3 126q-5 36 -29 51.5t-63 6.5q-21 -6 -34 -22q-6 -5 -9 -20 q-3 -24 -4 -68.5t-2 -61.5zM258 760l136 -3q0 -6 1.5 -55.5t1.5 -72.5q-5 -8 -26 -9t-56 1t-53 1q0 14 -2.5 59t-1.5 79z" />
<glyph unicode="&#xf7;" horiz-adv-x="440" d="M9 171q0 14 1 64.5t1 51.5h419q0 -5 -1.5 -61t3.5 -60h-1q-8 0 -211 2.5t-211 2.5zM154 117q19 8 65.5 8t59.5 -6l-1 -25q-2 -26 -3.5 -55t-1.5 -37v-2h-2l-113 1h-3q-2 13 -2.5 36.5t0.5 50t1 29.5zM154 453q19 8 65.5 8t59.5 -6l-1 -25q-2 -26 -3.5 -55t-1.5 -37v-2h-2 l-113 1h-3q-2 13 -2.5 36.5t0.5 50t1 29.5z" />
<glyph unicode="&#xf8;" horiz-adv-x="358" d="M32 -26q-2 4 18 63l1 1l-1 1v1q-30 119 -18 280q1 10 1.5 32t3.5 39t10 31q12 26 31 45q41 31 129 21q1 1 1.5 8.5t4.5 7.5h1q13 -3 53 -1.5t43 -4.5q0 -8 -7 -24.5t-5 -25.5q39 -46 31 -150q0 -155 -11 -216q-9 -38 -37 -62.5t-66 -28.5q-13 -1 -40 -1.5t-39 -2.5h-1 q0 -1 -10 -11q-8 -2 -93 -2zM109 188q8 26 31.5 95t34.5 106v1h-5q-15 -2 -29 -13t-20 -25q-3 -17 -5 -53t-6 -54q-3 -52 -1 -57zM171 82q1 0 1 -1q19 4 38.5 14.5t24.5 26.5q7 28 8 55.5t-2 55t-3 35.5v2q-9 -22 -20.5 -54t-25.5 -73.5t-21 -60.5z" />
<glyph unicode="&#xf9;" horiz-adv-x="443" d="M41 498q27 4 125 4q2 -30 2 -111.5t2 -120.5q0 -4 1 -14.5t1.5 -16.5t2 -16t3 -16t4 -13.5t6 -12.5t7.5 -8q1 -1 2 -1t2 -1q14 -7 33.5 -7.5t39.5 14t22 47.5q2 36 -2.5 135.5t3.5 132.5v4q11 8 55 6t69 0q0 -21 2.5 -246t-1.5 -255q-35 3 -70 0q-3 0 -20.5 -2.5 t-26.5 -2.5t-13 4q-2 13 -2 30.5v22.5q-20 -11 -25 -15q-43 -32 -100.5 -34.5t-100.5 31.5q-19 16 -22.5 97.5t0.5 200t1 164.5zM85 684l69 70q27 -21 90.5 -86t76.5 -77q-16 -4 -58.5 -5.5t-75.5 1.5q-6 9 -26.5 28.5t-45 41t-30.5 27.5z" />
<glyph unicode="&#xfa;" horiz-adv-x="444" d="M34 498q27 4 125 4q2 -30 2 -111.5t2 -120.5q0 -4 1 -14.5t1.5 -16.5t2 -16t3 -16t4 -13.5t6 -12.5t7.5 -8q0 -1 2 -1t2 -1q14 -7 33.5 -7.5t39.5 14t22 47.5q2 36 -2.5 135.5t3.5 132.5v4q11 8 55 6t69 0q0 -21 2.5 -246t-1.5 -255q-35 3 -70 0q-3 0 -20.5 -2.5 t-26.5 -2.5t-13 4q-2 13 -2 30.5v22.5q-20 -11 -25 -15q-43 -32 -100.5 -34.5t-100.5 31.5q-19 16 -22.5 97.5t0.5 200t1 164.5zM143 591q13 12 76.5 77t90.5 86l69 -70q-6 -6 -31 -27.5t-45.5 -41t-25.5 -28.5q-33 -3 -76 -1.5t-58 5.5z" />
<glyph unicode="&#xfb;" horiz-adv-x="446" d="M39 498q27 4 125 4q2 -30 2 -111.5t2 -120.5q0 -4 1 -14.5t1.5 -16.5t2 -16t3 -16t4 -13.5t6 -12.5t7.5 -8q0 -1 2 -1q1 0 2 -1q14 -7 33.5 -7.5t39.5 14t22 47.5q2 36 -2.5 135.5t3.5 132.5v4q11 8 55 6t69 0q0 -21 2.5 -246t-1.5 -255q-35 3 -70 0q-3 0 -20.5 -2.5 t-26.5 -2.5t-13 4q-2 13 -2 30.5v22.5q-20 -11 -25 -15q-43 -32 -100.5 -34.5t-100.5 31.5q-19 16 -22.5 97.5t0.5 200t1 164.5zM74 594q16 21 37.5 44.5t36.5 38t45.5 42t42.5 38.5l163 -162q-1 1 -17 -1.5t-40.5 -5t-57.5 1.5q-6 0 -26 23t-25 26q-5 -2 -26 -24.5 t-26 -24.5q-11 -1 -107 4z" />
<glyph unicode="&#xfc;" horiz-adv-x="456" d="M44 498q27 4 125 4q2 -30 2 -111.5t2 -120.5q0 -4 1 -14.5t1.5 -16.5t2 -16t3 -16t4 -13.5t6 -12.5t7.5 -8q0 -1 2 -1t2 -1q14 -7 33.5 -7.5t39.5 14t22 47.5q2 36 -2.5 135.5t3.5 132.5v4q11 8 55 6t69 0q0 -21 2.5 -246t-1.5 -255q-35 3 -70 0q-3 0 -20.5 -2.5 t-26.5 -2.5t-13 4q-2 13 -2 30.5v22.5q-20 -11 -25 -15q-43 -32 -100.5 -34.5t-100.5 31.5q-19 16 -22.5 97.5t0.5 200t1 164.5zM67 760l136 -3q0 -6 1.5 -55.5t1.5 -72.5q-5 -8 -26 -9t-56 1t-53 1q0 14 -2.5 59t-1.5 79zM251 760l136 -3q0 -6 1.5 -55.5t1.5 -72.5 q-5 -8 -26 -9t-56 1t-53 1q0 14 -2.5 59t-1.5 79z" />
<glyph unicode="&#xfd;" horiz-adv-x="483" d="M19 -44q10 0 32.5 -1t34 -1t27.5 3t23.5 10t12 21.5t1.5 35.5q-7 39 -16.5 83.5t-16.5 75t-21 86t-19 74t-23 84t-20 73.5q24 -3 76 -1.5t72 -1.5q4 -21 15.5 -83.5t20 -105t20.5 -93t22 -78.5q14 38 31.5 179.5t34.5 182.5q14 0 69 1.5t77 -1.5q-15 -57 -53 -221 q-7 -27 -17.5 -75.5t-18 -81.5t-22.5 -77.5t-31 -74.5t-44.5 -61.5t-63 -49.5t-85 -28.5t-112.5 -6.5q-20 61 -6 133zM157 591q13 12 76.5 77t90.5 86l69 -70q-6 -6 -31 -27.5t-45.5 -41t-25.5 -28.5q-33 -3 -76 -1.5t-58 5.5z" />
<glyph unicode="&#xfe;" horiz-adv-x="457" d="M31 -172q5 139 5 457.5t6 440.5l136 -3q0 -38 -2 -272q9 22 27.5 32.5t34 12t46.5 1.5q71 -2 119.5 -67t48.5 -164q0 -59 -14.5 -117.5t-49.5 -104.5t-83 -46q-33 0 -68.5 15t-59.5 39q0 -174 3 -218q-1 -9 -72.5 -7t-76.5 1zM178 259v-12q0 -26 0.5 -38t3.5 -29t9.5 -24 t18.5 -12.5t30 -5.5q41 0 65 31t24 77q0 33 -6 53q-6 27 -30 45.5t-63 18.5t-45.5 -15t-6.5 -89z" />
<glyph unicode="&#xff;" horiz-adv-x="489" d="M24 -44q10 0 32.5 -1t34 -1t27.5 3t23.5 10t12 21.5t1.5 35.5q-7 39 -16.5 83.5t-16.5 75t-21 86t-19 74t-23 84t-20 73.5q24 -3 76 -1.5t72 -1.5q4 -21 15.5 -83.5t20 -105t20.5 -93t22 -78.5q14 38 31.5 179.5t34.5 182.5q14 0 69 1.5t77 -1.5q-15 -57 -53 -221 q-7 -27 -17.5 -75.5t-18 -81.5t-22.5 -77.5t-31 -74.5t-44.5 -61.5t-63 -49.5t-85 -28.5t-112.5 -6.5q-20 61 -6 133zM102 760l136 -3q0 -6 1.5 -55.5t1.5 -72.5q-5 -8 -26 -9t-56 1t-53 1q0 14 -2.5 59t-1.5 79zM286 760l136 -3q0 -6 1.5 -55.5t1.5 -72.5q-5 -8 -26 -9 t-56 1t-53 1q0 14 -2.5 59t-1.5 79z" />
<glyph unicode="&#x152;" horiz-adv-x="853" d="M50 504q1 57 28.5 104.5t75.5 72.5q24 14 51 17.5t65 0.5t57 -2q124 -2 211.5 -1.5t186.5 1.5l99 1q2 -89 -3 -147q-45 -8 -133.5 -7t-131.5 -6l-1 -1q1 -13 -1 -37t-1.5 -44t7.5 -34q18 -2 59.5 -2t62.5 -3v-1l1 -2q3 0 1.5 -69t-1.5 -71v-1h-1h-116h-1 q-6 -5 -7.5 -58.5t9.5 -72.5h2q38 -1 125 -2t131 -3v-2q6 -87 -9 -132h-1q-40 -1 -182.5 -0.5t-184.5 -4.5q-33 -1 -87.5 -6t-79.5 -5.5t-83 3.5q-105 11 -144 119q-13 58 -14.5 120t4 153.5t6.5 121.5zM170 412q4 -32 1.5 -93.5t1.5 -91.5q7 -61 40 -92q19 -15 40.5 -12 t41.5 18q24 21 33.5 48t16.5 69q13 126 10 194q-2 28 -8 46q-2 2 -4 7t-3 8q-12 24 -30 36q-22 14 -53 15t-52 -13q-26 -21 -33 -67q-2 -18 -2 -72z" />
<glyph unicode="&#x153;" horiz-adv-x="729" d="M26 266q0 99 48.5 165t119.5 68q1 0 33 1t45.5 -0.5t38.5 -6t39.5 -17t21.5 -31.5q21 24 52 37t51.5 15t57 2h44.5q46 -8 75 -45.5t38.5 -87.5t5.5 -109q-22 -6 -128.5 -10t-139.5 2v-18v-12.5t0.5 -12t0.5 -10t0.5 -10t1.5 -8.5t2 -9l2.5 -7.5t3.5 -8.5l4 -8 q16 -31 47 -40.5t55.5 13t22.5 72.5q9 -1 62 1t64 -3q-10 -141 -28 -156q-13 -18 -62 -30t-108 -3l-14 2q-25 4 -45.5 13t-32.5 19.5t-20 20.5t-12.5 16.5t-5.5 6.5q-11 -28 -33 -46t-53.5 -24t-50 -7.5t-47.5 -1.5h-5h-4q-48 0 -83 46t-49.5 104.5t-14.5 117.5zM130 282v-8 q0 -27 0.5 -43t4.5 -44.5t11 -45.5t22.5 -31t37.5 -15q17 -1 30.5 2t22.5 12t16 18.5t11 25t6.5 27.5t3 31.5t1 30t0 30.5t-0.5 27q0 68 -14.5 88.5t-56.5 20.5q-71 0 -84 -59q-11 -37 -11 -67zM431 349q-3 -18 4 -20q6 -2 90 -2q20 0 43 -1q15 -1 17.5 0t2.5 9v4 q0 45 -39 65q-16 10 -35 10q-43 0 -61 -17t-22 -48z" />
<glyph unicode="&#x178;" horiz-adv-x="460" d="M17 -2q17 54 130 344v2q-14 58 -62.5 172.5t-62.5 171.5q12 0 46 3t61 2.5t45 -7.5q27 -107 59 -173q29 52 79 171q1 0 2 1q96 13 140 4v-1q-39 -124 -147 -351t-146 -338q-18 2 -68.5 0t-73.5 -1h-2zM95 860q19 6 57 6.5t52 -5.5l-2 -22q-1 -22 -2.5 -46.5t-1.5 -32.5 v-2h-2l-97 1h-3q-2 12 -2.5 32t0.5 43t1 26zM269 860q19 6 57 6.5t52 -5.5l-2 -22q-1 -22 -2.5 -46.5t-1.5 -32.5v-2h-2l-97 1h-3q-2 12 -2.5 32t0.5 43t1 26z" />
<glyph unicode="&#x2c6;" horiz-adv-x="347" d="M11 528q16 21 37.5 44.5t36.5 38t45.5 42t42.5 38.5l163 -162q-1 1 -17 -1.5t-40.5 -5t-57.5 1.5q-6 0 -26 23t-25 26q-5 -2 -26 -24.5t-26 -24.5q-11 -1 -107 4z" />
<glyph unicode="&#x2dc;" horiz-adv-x="449" d="M17 500q7 27 25.5 68t34.5 61q27 27 65.5 33.5t70.5 -14.5q10 -7 24.5 -24t24.5 -23q23 -23 44.5 -0.5t31.5 51.5q2 0 82 3q2 0 2 -2q8 -28 -4 -62.5t-34 -61.5q-15 -21 -38 -30q-35 -13 -71 -1.5t-51 44.5q-20 24 -41 23q-13 0 -28.5 -9t-20.5 -20q-6 -13 0 -38 q-13 3 -68 3q-32 0 -49 -1z" />
<glyph unicode="&#x2000;" horiz-adv-x="467" />
<glyph unicode="&#x2001;" horiz-adv-x="935" />
<glyph unicode="&#x2002;" horiz-adv-x="467" />
<glyph unicode="&#x2003;" horiz-adv-x="935" />
<glyph unicode="&#x2004;" horiz-adv-x="311" />
<glyph unicode="&#x2005;" horiz-adv-x="233" />
<glyph unicode="&#x2006;" horiz-adv-x="155" />
<glyph unicode="&#x2007;" horiz-adv-x="155" />
<glyph unicode="&#x2008;" horiz-adv-x="116" />
<glyph unicode="&#x2009;" horiz-adv-x="187" />
<glyph unicode="&#x200a;" horiz-adv-x="51" />
<glyph unicode="&#x2010;" horiz-adv-x="512" d="M31 202q0 18 1.5 88.5t1.5 71.5h443q0 -19 -1 -53t-0.5 -62t4.5 -52h-1q-11 0 -224 3.5t-224 3.5z" />
<glyph unicode="&#x2011;" horiz-adv-x="512" d="M31 202q0 18 1.5 88.5t1.5 71.5h443q0 -19 -1 -53t-0.5 -62t4.5 -52h-1q-11 0 -224 3.5t-224 3.5z" />
<glyph unicode="&#x2012;" horiz-adv-x="512" d="M31 202q0 18 1.5 88.5t1.5 71.5h443q0 -19 -1 -53t-0.5 -62t4.5 -52h-1q-11 0 -224 3.5t-224 3.5z" />
<glyph unicode="&#x2013;" horiz-adv-x="444" d="M31 166q0 19 1.5 103.5t1.5 86.5h375q0 -80 3 -197h-1q-11 0 -190 3.5t-190 3.5z" />
<glyph unicode="&#x2014;" horiz-adv-x="682" d="M32 160q0 19 1.5 106.5t1.5 89.5h612q0 -11 -1 -60t-0.5 -84t4.5 -59h-1q-11 0 -308.5 3.5t-308.5 3.5z" />
<glyph unicode="&#x2018;" horiz-adv-x="206" d="M16 462q54 196 64 246h22q22 0 51 0.5t40 0.5v-1q-10 -39 -23 -90t-21 -80.5t-23 -71.5q0 -1 -1 -2h-1q-2 0 -32.5 -3t-49 -3.5t-26.5 4.5z" />
<glyph unicode="&#x2019;" horiz-adv-x="206" d="M16 462q54 196 64 246h22q22 0 51 0.5t40 0.5v-1q-10 -39 -23 -90t-21 -80.5t-23 -71.5q0 -1 -1 -2h-1q-2 0 -32.5 -3t-49 -3.5t-26.5 4.5z" />
<glyph unicode="&#x201a;" horiz-adv-x="206" d="M16 -94q54 196 64 246h22q22 0 51 0.5t40 0.5v-1q-10 -39 -23 -90t-21 -80.5t-23 -71.5q0 -1 -1 -2h-1q-2 0 -32.5 -3t-49 -3.5t-26.5 4.5z" />
<glyph unicode="&#x201c;" horiz-adv-x="380" d="M21 457v1q10 39 23 90t21 80.5t23 71.5q0 1 1 2h1q2 0 32.5 3t48.5 3.5t27 -4.5q-20 -86 -64 -246h-22q-22 0 -51 -0.5t-40 -0.5zM181 457v1q10 39 23 90t21 80.5t23 71.5q0 1 1 2h1q2 0 32.5 3t48.5 3.5t27 -4.5q-20 -86 -64 -246h-22q-22 0 -51 -0.5t-40 -0.5z" />
<glyph unicode="&#x201d;" horiz-adv-x="380" d="M22 462q54 196 64 246h22q22 0 51 0.5t40 0.5v-1q-10 -39 -23 -90t-21 -80.5t-23 -71.5q0 -1 -1 -2h-1q-2 0 -32.5 -3t-49 -3.5t-26.5 4.5zM182 462q54 196 64 246h22q22 0 51 0.5t40 0.5v-1q-10 -39 -23 -90t-21 -80.5t-23 -71.5q0 -1 -1 -2h-1q-2 0 -32.5 -3t-49 -3.5 t-26.5 4.5z" />
<glyph unicode="&#x201e;" horiz-adv-x="380" d="M21 -98q10 39 23 90t21 80.5t23 71.5q0 1 1 2h1q2 0 32.5 3t48.5 3.5t27 -4.5q-20 -86 -64 -246h-22q-22 0 -51 -0.5t-40 -0.5v1zM181 -98q10 39 23 90t21 80.5t23 71.5q0 1 1 2h1q2 0 32.5 3t48.5 3.5t27 -4.5q-20 -86 -64 -246h-22q-22 0 -51 -0.5t-40 -0.5v1z" />
<glyph unicode="&#x2022;" horiz-adv-x="244" d="M29 279q0 31 4 52q2 7 3 8q10 24 41 28q1 0 4 0.5t5 0.5h11.5h11.5h12h12q27 0 35 -3q19 -6 32 -18t15 -28q3 -25 -3 -88q-7 -34 -31 -44q-15 -7 -49.5 -8t-43.5 -2h-1q-18 -3 -35 10t-20 32q-4 30 -3 60z" />
<glyph unicode="&#x2026;" horiz-adv-x="522" d="M35 117q19 8 65.5 8t59.5 -6l-2 -25q-1 -26 -2.5 -55t-1.5 -37v-2h-2l-113 1h-3q-2 13 -2.5 36.5t0.5 50t1 29.5zM200 117q19 8 65.5 8t59.5 -6l-1 -25q-2 -26 -3.5 -55t-1.5 -37v-2h-2l-113 1h-3q-2 14 -2.5 37t0.5 49t1 30zM366 117q19 8 65.5 8t59.5 -6l-1 -25 q-2 -26 -3.5 -55t-1.5 -37v-2h-2l-113 1h-3q-2 13 -2.5 36.5t0.5 50t1 29.5z" />
<glyph unicode="&#x202f;" horiz-adv-x="187" />
<glyph unicode="&#x2039;" horiz-adv-x="399" d="M27 262q22 28 53.5 61.5t73.5 76t61 61.5q40 42 57 59q13 -7 39 -34.5t37 -34.5q-20 -25 -84.5 -92.5t-91.5 -99.5q27 -24 88.5 -85t96.5 -89q-17 -15 -31 -30t-47 -44l-1 1q-19 19 -112.5 105t-138.5 145z" />
<glyph unicode="&#x203a;" horiz-adv-x="399" d="M38 85q35 28 96.5 89t88.5 85q-27 32 -91.5 99.5t-84.5 92.5q11 7 37 34.5t39 34.5q17 -17 57 -59q19 -19 61 -61.5t73.5 -76t53.5 -61.5q-45 -59 -138.5 -145t-112.5 -105l-1 -1q-24 21 -51 48l-16 16z" />
<glyph unicode="&#x205f;" horiz-adv-x="233" />
<glyph unicode="&#x20ac;" horiz-adv-x="496" d="M33 471q5 90 42 148q21 31 55 51t72 27t82 10t86 1.5t84 0.5h1v-1q9 -81 2 -147q0 -2 -1 -3q-6 0 -30 2t-33 2.5t-31 0.5t-33 -1.5t-29 -5.5t-28.5 -10t-22 -16t-19.5 -23h4q69 0 85 -5v-1q6 -46 0 -99v-1q-20 -7 -70.5 -7h-56.5h-1q0 -21 3 -33q94 0 125 -2 q10 -40 1 -99q-23 -4 -63 -4.5t-53 -1.5q6 -31 25.5 -49.5t49.5 -25.5t59 -9t66.5 -3t58.5 -5v-1q-1 -15 2 -76t-4 -78q-51 -8 -107 -8.5t-108 2.5l-18 2q-93 18 -131 67q-36 42 -51.5 112t-14 140.5t1.5 148.5z" />
<glyph unicode="&#x2122;" horiz-adv-x="541" d="M24 647q169 0 220 -5q2 -47 -2 -81q-18 4 -64 0h-1l-1 -1q-1 -2 3 -275v-1q-13 -2 -43.5 -2t-42.5 -2l1 6v18t0.5 26.5t0 38.5t-0.5 50t-1 63t-3 75l-1 1q-10 5 -35.5 5.5t-26.5 0.5q-8 14 -2 82zM290 638q1 3 34 2.5t37 -0.5h1q7 -8 16 -25t13 -23q1 -1 3 -1 q7 8 18.5 25.5t17.5 24.5q9 0 36.5 1.5t40.5 0.5q-1 -32 0 -98t-1 -98l-1 -166h-69q-1 15 -2 82t-5 102q-6 -7 -15.5 -20t-12.5 -17q-5 2 -15.5 18.5t-21.5 14.5q-2 -130 1 -178q-11 -2 -73 -2q0 1 -1 2q-5 12 -1 355z" />
<glyph unicode="&#xe000;" horiz-adv-x="500" d="M0 0v500h500v-500h-500z" />
<glyph unicode="&#xfb01;" horiz-adv-x="558" d="M18 491q52 0 75 -1q-2 29 1.5 58.5t14.5 60.5t34.5 55.5t57.5 36.5q76 26 197 20q13 -42 0 -142q-22 2 -131 -12q-22 -3 -29.5 -27t-0.5 -52h154v12v16.5v12.5v1q3 1 15 0t14 -1q55 -3 95 -2h18v-3q0 -57 -2.5 -171.5t-3 -174.5t4.5 -171q-10 -10 -73 -7t-75 0 q7 94 7 370q-41 2 -98.5 2.5t-59.5 0.5v-368q-24 3 -71 -1.5t-64 -2.5q-4 24 -4.5 96.5t0.5 173t1 101.5q-46 0 -74 -1z" />
<glyph unicode="&#xfb02;" horiz-adv-x="573" d="M18 499q54 0 77 -1q-4 39 3 79.5t34.5 80t71.5 54.5q75 26 195 20q3 0 14 -0.5t14 -0.5q56 -3 97 -2h18v-4q0 -53 -3 -224t-3.5 -270.5t4.5 -223.5q-3 -9 -73.5 -6.5t-76.5 0.5q6 82 6 375q-41 2 -99.5 2.5t-60.5 0.5v-374q-24 3 -71.5 -1t-65.5 -2q-4 24 -4.5 99t1 172 t1.5 105q-47 0 -76 -1zM240 496h156v92q-98 3 -125 -1q-22 -3 -30 -32t-1 -59z" />
<glyph unicode="&#xfb03;" horiz-adv-x="965" d="M24 500q52 0 75 -1q-2 29 1.5 57.5t14.5 58t34.5 53t57.5 35.5q76 26 198 20q13 -42 0 -142q-49 4 -132 -13q-43 -7 -30 -71l252 1q-5 63 21 124t88 81q75 25 198 20q13 -42 0 -142q-49 4 -132 -13q-22 -3 -29 -26t-1 -52h154v41v1q3 1 15.5 0t14.5 -1q51 -3 95 -2h18v-4 q0 -50 -2.5 -171.5t-2.5 -174.5t4 -172q-10 -10 -73 -7t-75 0q6 91 6 371q-41 2 -98.5 2.5t-59.5 0.5v-369q-25 3 -71.5 -1.5t-64.5 -2.5q0 153 -9 369q-125 4 -252 4v-369q-24 3 -71 -1.5t-65 -2.5q-2 26 -2 372q-46 0 -74 -1z" />
<glyph unicode="&#xfb04;" horiz-adv-x="1026" d="M24 501q53 0 76 -1q-3 27 0.5 57t15 60t35.5 54t58 34q73 26 198 20q13 -39 0 -143q-49 4 -132 -13q-45 -7 -30 -71l253 1q-2 28 2 57.5t15.5 60t35 54.5t56.5 34q76 26 198 20q18 -53 0 -143q-51 5 -131 -13q-23 -4 -30.5 -27t-0.5 -52h155q1 -13 1 -36t-0.5 -49.5 t-0.5 -33.5q-41 2 -99 2.5t-60 0.5v-372q-24 3 -71.5 -1t-64.5 -2q0 152 -9 371q-124 4 -253 4v-372q-24 3 -72 -1t-65 -2q-4 24 -4.5 98.5t1 171t1.5 104.5q-46 0 -75 -1zM846 -2q9 123 -2 363.5t2 363.5l144 -3q0 -23 -1.5 -205.5t0 -309.5t6.5 -203q-3 -9 -72.5 -6.5 t-76.5 0.5z" />
</font>
</defs>
</svg>
