<?xml version="1.0" standalone="no"?>
<!DOCTYPE svg PUBLIC "-//W3C//DTD SVG 1.1//EN" "http://www.w3.org/Graphics/SVG/1.1/DTD/svg11.dtd" >
<svg xmlns="http://www.w3.org/2000/svg">
<metadata></metadata>
<defs>
<font id="matizregular" horiz-adv-x="700" >
<font-face units-per-em="1000" ascent="750" descent="-250" />
<missing-glyph horiz-adv-x="250" />
<glyph horiz-adv-x="1000" />
<glyph horiz-adv-x="1000" />
<glyph unicode="&#xd;" horiz-adv-x="0" />
<glyph unicode=" "  horiz-adv-x="250" />
<glyph unicode="&#x09;" horiz-adv-x="250" />
<glyph unicode="&#xa0;" horiz-adv-x="250" />
<glyph unicode="!" horiz-adv-x="448" d="M200 708l55 -3h18h22l45 -8v-1v-1l-1 -47l8 -48q0 -37 -7 -97l8 -48l-3 -47l3 -50q-8 -43 -8 -95q-33 -7 -86 -7l-112 5l-38 5l5 44q-6 70 -6 98l4 48l-3 48l2 49l-5 97q6 47 8 47zM225 225q53 -8 53 -13q23 -15 55 -49q9 -8 9 -18l3 -40q-11 -50 -29 -86q0 -4 -48 -27 l-44 -8q-51 11 -60 19q-32 18 -32 23q-23 30 -23 37l-5 44q6 54 11 54q18 37 24 37q37 21 49 21q29 6 37 6z" />
<glyph unicode="&#x22;" horiz-adv-x="556" d="M142 708l109 -5l1 -1v-1q0 -35 6 -94l1 -87l-3 -89l-58 -5q-74 2 -115 5l-1 1v1l5 48v28l-8 107q0 53 6 85zM360 708l109 -5l1 -1q0 -37 6 -92l1 -89l-3 -90l-58 -5q-86 2 -115 6l4 46v34q0 20 -7 100q0 51 6 89z" />
<glyph unicode="#" horiz-adv-x="620" d="M243 708q55 -4 90 -14v-2l-5 -51v-35q-15 -50 -15 -59l-5 -33h5h38q17 139 23 158q5 21 7 22l44 9h8q49 0 81 -8v-1l-4 -44l2 -47l-21 -89l37 4q37 -5 37 -8l10 -84q-12 -36 -13 -36l-89 -9l-10 -62h1l37 4q37 -2 37 -4l11 -39q-10 -42 -14 -90l-44 -4l-46 6l3 -45 q-23 -62 -23 -131q-47 -11 -55 -11h-7l-36 -1l-46 9v2q13 46 13 65q5 79 11 96q3 12 3 18h-31h-12q-10 -49 -20 -129q-1 0 -2 -6l2 -45q-45 -14 -53 -14l-46 1q-41 11 -41 12l-5 46q23 97 23 127l2 10l-36 -9q-34 7 -36 8l-8 40q3 53 9 89l4 -1l41 -1q46 4 46 6l10 59 l-35 -1l-3 -1q-35 4 -35 6l-1 3q0 30 -8 78q6 40 8 40l45 5l44 -5l16 144q12 38 14 39zM293 390v-1l-8 -63l39 -2v1l9 62z" />
<glyph unicode="$" d="M349 787q50 -16 50 -18l-2 -36l1 -32q88 -2 94 -7q24 -5 97 -45q23 -12 34 -31q10 -9 14 -16q-49 -46 -62 -66q-45 -45 -81 -75q-35 42 -42 42l-29 17l-47 -4q-25 4 -39 4l-20 -31q32 -30 37 -30q84 -21 109 -36q19 -9 66 -26q37 -26 51 -42q24 -22 24 -26q12 -42 12 -61 l3 -79q-30 -92 -39 -100q-18 -30 -22 -30q-79 -44 -103 -47l-21 -7l-48 2l3 -77l-51 -12l-53 12v1l4 74l-89 -1q-40 20 -72 28q-13 1 -27 14q-29 18 -34 33q-15 19 -16 23q39 33 46 49q13 20 45 54q11 13 45 40q42 -38 47 -40q46 -20 53 -20l50 -2q3 3 47 29v1 q-36 34 -51 40q-22 17 -41 17q-31 5 -53 18q-15 9 -65 25q-36 29 -67 61q-3 0 -19 50l-1 89v10q18 46 40 93q43 42 71 59q0 4 50 12l50 16l-1 1v1l-3 65z" />
<glyph unicode="%" horiz-adv-x="935" d="M631 739q59 -17 59 -23q32 -27 32 -29q-20 -53 -35 -66q-14 -19 -42 -74q-47 -76 -65 -120q-24 -40 -54 -84q-17 -48 -34 -66q-35 -56 -60 -110q-28 -39 -46 -81q-63 -87 -68 -106l-9 -17h-1q-64 16 -64 22l-35 31v1q32 44 46 80q23 56 45 85l32 50q28 65 62 110 q11 15 35 62q34 42 35 53q11 31 34 57q9 13 41 69q34 49 62 120zM219 729h3q58 -2 58 -7q39 -15 78 -42q8 -4 23 -32q9 -13 34 -65q-3 -112 -8 -112q-17 -44 -32 -61q-5 -13 -34 -40q-19 -17 -23 -17q-58 -14 -98 -14q-56 5 -80 12q-27 7 -27 11q-40 32 -62 64q-5 0 -23 56 l-5 49q7 55 16 81q3 18 20 42q14 27 27 31q33 25 46 25q31 10 87 19zM159 530l15 -45q42 -13 47 -13q39 19 39 21l16 39l-13 43l-44 10q-39 -13 -41 -17zM716 377l4 -1q51 0 64 -8q33 -13 72 -41q6 0 27 -41q4 -3 29 -56q-3 -112 -8 -112q-16 -39 -22 -47q-24 -36 -36 -44 q-25 -26 -30 -26q-53 -14 -93 -14h-6q-59 5 -92 15q-9 0 -27 19q-25 20 -50 52q-5 4 -21 53q-2 0 -7 53q7 58 22 101q26 43 30 46q45 32 57 32q32 10 87 19zM657 178q13 -45 15 -45q41 -13 46 -13q38 19 39 21l16 37q-11 40 -14 45l-43 10q-42 -14 -42 -18z" />
<glyph unicode="&#x26;" horiz-adv-x="840" d="M318 728l52 -6q46 3 70 3h31l53 -29l39 -21q32 -44 32 -52q16 -39 16 -62q1 0 3 -26q-1 -54 -6 -54q-18 -34 -33 -47q-22 -26 -39 -34q-16 -7 -57 -45l47 -40l52 80h1l49 -5l50 5l100 -6l47 1v-1q-26 -41 -68 -90q-38 -39 -49 -60q-12 -20 -37 -39l-12 -12q37 -45 60 -58 q20 -13 54 -57q20 -14 72 -68v-2h-1q-30 0 -86 -7l-47 3l-50 -6q-53 0 -67 7q-24 3 -35 15q-18 12 -29 31l-5 7q-43 -38 -47 -38q-46 -22 -58 -22l-39 -7q-46 4 -68 4h-24q-66 0 -105 12q-11 0 -41 23q-48 33 -79 80q-3 0 -9 38q-3 12 -11 65q0 46 6 61q18 42 23 44 q24 31 49 47q17 12 59 36q-43 38 -44 44l-21 43l7 110l15 48q44 43 79 68q48 11 101 19zM370 576l-42 -43l33 -58h1l35 21l14 37zM308 273l-35 -54q16 -40 19 -42l44 -11l56 20v0z" />
<glyph unicode="'" horiz-adv-x="334" d="M140 708l110 -5l1 -1v-1l-4 -43l7 -45l-6 -45q6 -51 6 -90l-3 -44l-56 -8q-49 7 -113 9l-1 1l4 88l-4 44q4 47 7 137h1v0z" />
<glyph unicode="(" horiz-adv-x="360" d="M164 758q57 -10 95 -23q13 -2 58 -33l-55 -90q-19 -35 -26 -65q-28 -83 -28 -101l-18 -62l1 -38l-1 -68q0 -55 14 -135q6 -61 12 -61q31 -77 48 -130q25 -36 58 -75v-1q-57 -41 -68 -41q-31 -14 -39 -14q-22 -3 -52 -3q-28 42 -58 84q-28 50 -28 63q-8 30 -28 65 q-5 8 -18 59q-5 45 -14 97q3 77 3 126l-2 76q6 59 14 73q9 28 21 80q17 38 35 91q16 29 44 89z" />
<glyph unicode=")" horiz-adv-x="360" d="M199 758q35 -48 35 -56q15 -32 43 -76q50 -145 50 -167q10 -57 17 -172l-6 -49l5 -52q-9 -47 -23 -101q-27 -97 -47 -145q-41 -80 -55 -95l-22 -27q-67 7 -67 11q-47 19 -83 44q-4 0 -8 5q41 42 45 55q15 18 27 59q40 106 40 123l27 123q0 30 -7 105l-1 41q-15 52 -15 84 q0 21 -31 101q0 2 -33 47q-17 45 -21 50l-28 34q46 33 52 33q45 15 106 25z" />
<glyph unicode="*" horiz-adv-x="527" d="M287 709q9 0 56 -13q-2 -69 -5 -103q63 11 91 24l21 8q24 -42 24 -50q9 -40 20 -75l-108 -36q40 -47 68 -90v-1q-34 -41 -54 -49q-16 -13 -62 -32q-39 45 -74 91q-27 -44 -42 -59q-27 -28 -29 -28q-38 19 -105 72l-14 12q37 44 74 84q-60 17 -114 38v1q8 46 20 64l24 56 h1q59 -14 112 -33v1l3 53l-3 53q41 12 75 12h21z" />
<glyph unicode="+" horiz-adv-x="666" d="M305 576q91 -9 107 -13q-5 -41 -5 -88l2 -52l-2 -48l51 4l49 -7l50 6l49 -6q3 -8 11 -45q-7 -50 -11 -97l-4 -2l-64 -3h-28l-51 6q-44 -3 -49 -5l4 -44q-4 -113 -9 -145l-46 -7q-63 3 -100 8q0 40 -7 96l7 49l-3 42h-35l-67 -2q-53 0 -81 7q-16 2 -16 6l-8 91q8 46 9 46 h35q50 0 113 8l49 -6v0l-6 48q4 51 6 129q2 15 4 15z" />
<glyph unicode="," horiz-adv-x="360" d="M155 193h22q76 0 129 -5l1 -1v0q-12 -49 -25 -75q-5 -11 -16 -61q-23 -40 -23 -57q-4 -32 -16 -51q-23 -54 -27 -61h-16l-155 -2h-6l-2 1q11 49 18 107q27 97 34 120q11 30 26 77q46 8 56 8z" />
<glyph unicode="-" horiz-adv-x="336" d="M245 371q52 -7 52 -10l7 -50q-7 -69 -7 -105h-1h-47l-108 -7q-61 3 -104 8v43l-5 62q4 51 6 51l58 3q72 -1 96 -2z" />
<glyph unicode="." horiz-adv-x="360" d="M181 244q54 -7 54 -9q35 -23 53 -44q20 -21 20 -24l3 -51q-8 -57 -12 -57q-20 -41 -25 -41q-47 -27 -67 -27l-25 -6q-56 3 -56 6q-42 33 -72 68l-3 4l-2 53q4 59 9 59q21 36 28 42l42 25z" />
<glyph unicode="/" horiz-adv-x="455" d="M357 767q66 -6 88 -17q25 -7 73 -32l1 -1q-14 -49 -23 -62q-21 -32 -23 -57q-3 -17 -16 -37q-15 -26 -15 -36q-6 -44 -15 -54q-15 -23 -29 -75q-22 -40 -35 -85q-25 -51 -32 -73q-9 -25 -32 -75q-32 -84 -34 -98q-8 -42 -21 -55q-15 -27 -20 -46q-8 -22 -9 -23 q-63 3 -96 13q-18 3 -30 14q-29 19 -31 22q10 48 24 74q7 14 31 76q20 36 20 52q7 34 17 48q13 22 34 79q27 93 41 110q10 16 22 67q30 42 38 76l20 63q20 35 34 85q16 47 18 47z" />
<glyph unicode="0" d="M299 728l51 -3v0h4l50 2q51 -13 148 -46q50 -50 70 -78q19 -40 31 -90l16 -55l-1 -54q0 -60 3 -101q-9 -108 -10 -108q-23 -39 -37 -90q-1 -4 -37 -48q-41 -40 -49 -40q-30 -18 -73 -28q0 -5 -69 -9h-66q-91 0 -91 6q-36 19 -89 39q-70 74 -72 80q-15 48 -35 95 q0 51 -11 91l-3 12l6 52l-5 52q11 42 15 102q21 44 32 86q0 11 22 28q66 60 99 83q51 10 101 22zM282 456l2 -52l-6 -50l4 -64v-37q21 -41 27 -48q38 -23 43 -25q37 25 43 32q25 40 25 42l6 50l-8 51q4 45 6 50q-13 51 -30 96l-44 15q-44 -12 -47 -14z" />
<glyph unicode="1" d="M355 708l54 -3l55 3q48 -10 48 -13q0 -46 12 -145l-5 -49l6 -97l-9 -101q0 -43 6 -94q-7 -46 -7 -80l2 -67q-4 -48 -6 -48q-43 -13 -126 -13l-10 -1q-40 10 -88 16l-7 48l2 48l-3 66v20v12l7 49l-1 9v29q0 16 -4 59l5 48l-1 4l-1 45q-35 -17 -115 -81q-39 44 -50 72 q0 3 -39 55l-21 40q38 41 44 41q35 16 86 53q29 26 43 31q27 15 71 32z" />
<glyph unicode="2" d="M296 728l62 -6l36 1q74 -3 74 -7q38 -8 46 -16q28 -17 65 -50q6 0 20 -36q29 -61 29 -66q0 -95 -15 -147q-19 -44 -28 -49q-17 -25 -34 -33q-48 -29 -77 -56q-14 -17 -46 -29l-37 -26v-1h1l141 -7l47 8l46 -2l13 -48v-5q0 -53 -9 -94q-2 -46 -5 -46l-47 -10l-52 6 l-102 -9l-50 6l-51 -3l-52 4l-46 -1l-55 2l-52 -5q-43 6 -47 9l-14 44l13 136q42 45 55 53l85 65q54 44 96 69l60 53q5 0 11 38l1 1v1l-12 39l-38 9q-38 -8 -41 -11l-24 -30q0 -41 -2 -41q-44 10 -88 16l-46 -2q-41 11 -70 11l-19 1h-1v1q7 56 18 78l25 68q27 26 72 71 q48 16 100 37z" />
<glyph unicode="3" d="M308 728l50 -11l50 2q56 0 101 -12q47 -22 52 -30q30 -24 35 -35q21 -33 21 -38q11 -39 11 -60l1 -46v-28q-22 -53 -31 -53q-26 -27 -35 -27l-36 -11v-5q0 -6 17 -11q40 -17 49 -27q30 -21 30 -30q24 -34 24 -42l3 -48q0 -43 -12 -80q0 -8 -26 -59q-36 -37 -41 -37 l-74 -42q-57 -4 -75 -13l-18 -5q-43 4 -57 4h-31l-103 13q-37 24 -84 41q-36 31 -53 55q-16 20 -19 39q-9 18 -19 69q45 7 63 15q14 8 68 13q65 22 82 22q22 -36 26 -40q25 -23 29 -23l38 -2q43 4 43 6q14 30 17 39q-18 29 -25 33l-33 18l-43 -5l-65 3q-3 0 -5 87v19l2 55 q1 2 38 8l38 -6q54 11 54 13l24 36q-12 31 -14 34l-37 8q-48 -15 -49 -17l-18 -45q-45 11 -94 26q-44 5 -68 13q0 5 -56 7v0l-1 1v1q15 51 36 96q42 45 55 52q21 18 47 25q68 29 78 29z" />
<glyph unicode="4" d="M487 708q20 0 89 -14q2 0 10 -47l-3 -48q4 -40 4 -58v-12q0 -47 -8 -212l-1 -3l1 -1h1l52 -1l37 1l10 -44v-5l-1 -43l4 -45q-8 -39 -12 -39l-45 -14l-44 13q9 -36 9 -85q-8 -36 -9 -36q-57 -14 -99 -14l-6 -1q-59 5 -108 14l7 40q-7 49 -7 79v0l-42 -6q-39 4 -57 4h-35 l-51 -8l-49 9l-42 -1q-49 2 -49 5l-9 43l3 46l-4 50q11 49 23 73q8 21 20 30q27 29 27 35q17 37 22 43q35 39 36 48q15 29 36 54q50 60 60 81q7 16 41 54l48 12l48 -6l13 1h23q9 0 57 8zM367 486q-45 -82 -62 -104q-18 -21 -51 -66v-1h1l60 -8l57 6v23q0 64 6 107l-1 35 q0 6 -10 8z" />
<glyph unicode="5" d="M418 708q33 -3 141 -4q48 -10 49 -11q0 -25 5 -100v-14q0 -38 -7 -79h-30q-23 0 -107 6l-46 -2l-47 4q-43 -6 -45 -8l-3 -46h1l49 -2l22 1h28q67 -9 109 -29q30 -13 75 -47q32 -77 32 -110l2 -32q0 -57 -6 -103l-24 -46q-52 -57 -68 -71l-91 -32q-63 -3 -99 -3l-52 1 l-105 19q-49 26 -68 43q-11 5 -41 40q-12 10 -25 44q-9 15 -20 67q2 2 62 13q26 6 74 22q44 8 85 22q19 -43 26 -54l56 -17q50 5 50 7l19 46q-32 36 -34 36q-43 16 -93 28q-45 -9 -106 -18l-33 -6l-40 -1l-3 -1l-1 1v1q0 24 -4 93q4 53 6 101q8 25 15 158q0 29 8 69 q0 2 58 4l80 7l53 -1q36 0 93 4z" />
<glyph unicode="6" d="M481 708q49 -11 85 -11l3 -1v-1q-21 -38 -54 -75l-40 -54q-42 -43 -65 -77l-4 -12h1l7 -1l50 3q91 -28 91 -30l64 -70q32 -72 32 -89v-31l2 -60l1 -1v-1l-36 -100q-27 -37 -45 -52q-26 -24 -35 -24q-78 -31 -114 -31q-73 -9 -87 -9l-37 -1q-63 8 -63 12q-36 16 -88 31 q-49 45 -49 52q-18 20 -40 81q-14 62 -14 91q4 63 17 115q9 36 15 41q15 28 62 82q22 28 40 65l79 115q34 30 38 30q31 2 93 9h24l17 -1zM276 245l24 -50l50 -21q48 20 51 24l26 46q0 4 -23 55l-54 19q-50 -19 -53 -22z" />
<glyph unicode="7" d="M396 708l46 -1l46 1l54 -8h42l49 -3q14 -48 14 -110q-10 -56 -14 -63q-18 -32 -35 -86q-43 -82 -49 -100l-33 -82q-13 -30 -41 -73q-19 -40 -39 -91q-22 -34 -38 -78q0 -3 -56 -9h-26l-67 -5h-32q-22 0 -90 13q0 2 27 50q13 38 33 63q15 18 22 39q9 25 38 74q15 45 41 82 q36 56 75 144q14 23 21 39h-1l-143 9q-76 -10 -146 -10q-3 0 -10 53l-2 44l1 46q11 50 13 50l45 6l50 -2l51 4l49 -4q88 8 105 8z" />
<glyph unicode="8" d="M302 728l51 -5l49 2l40 -1h3q61 -7 61 -11q36 -19 72 -50q19 -16 41 -45q13 -49 13 -75l2 -22q-3 -49 -5 -53q-24 -40 -30 -44q-34 -33 -45 -35l-28 -15v-3q56 -19 61 -28q34 -31 34 -36l21 -44q-2 -123 -6 -123q0 -21 -22 -62q0 -5 -39 -38q-45 -30 -58 -32 q-18 -12 -57 -16q-7 0 -62 -12l-47 7l-47 -5q-44 11 -97 20q-48 15 -52 21q-22 10 -64 49q-14 40 -28 105l-5 31q3 63 10 63q22 46 28 46q41 34 57 40l24 14l1 3q-51 23 -51 28q-35 36 -35 44l-17 25q0 96 12 151q27 41 30 44q78 52 90 52q50 10 95 10zM296 503 q17 -36 19 -37l37 -12q41 11 41 14l17 36q-14 36 -18 40l-39 10q-37 -14 -40 -17zM291 220q17 -39 20 -41l42 -12q41 10 43 13l19 40q-14 40 -18 46l-46 10q-42 -15 -42 -17z" />
<glyph unicode="9" d="M300 728q55 -3 85 -3h10q72 -8 72 -11q39 -10 62 -24q17 -7 63 -39q33 -45 47 -76q6 0 16 -64v-30q0 -73 -13 -123l-41 -89q-36 -35 -36 -40q-16 -43 -28 -52q-13 -19 -48 -60q-77 -104 -80 -104q-40 -5 -106 -9q-25 -4 -35 -4l-106 6l-34 7v1q44 46 44 54q16 28 34 46 q26 28 40 56q8 15 47 62v0l-9 -3q-102 9 -102 17q-29 13 -73 47q-37 38 -44 57q-12 15 -12 28q-7 48 -7 82q0 51 13 105q23 41 48 73q6 10 46 40q47 31 53 31q38 12 92 19h2zM276 465q21 -50 23 -52l52 -12q52 12 52 14q18 47 18 51l-17 53l-53 15q-54 -14 -56 -16z" />
<glyph unicode=":" horiz-adv-x="380" d="M191 531q47 -13 66 -25q22 -9 26 -17q22 -33 22 -36l9 -44q-12 -55 -17 -55q-21 -36 -35 -39q-29 -20 -54 -22l-18 -5q-58 8 -58 13q-38 21 -38 27l-25 32l-3 50q9 52 12 52q25 36 36 42q9 9 28 23zM191 236q50 -13 67 -25q25 -10 25 -18q22 -30 22 -35l9 -44 q-11 -48 -15 -52q-23 -34 -26 -35q-41 -26 -52 -26l-31 -7q-54 7 -54 11q-36 19 -40 25q-27 34 -27 37l-3 47q8 55 15 55q15 26 32 41q27 22 29 22z" />
<glyph unicode=";" horiz-adv-x="380" d="M190 532q54 -4 54 -11q37 -22 37 -29q23 -39 23 -48l9 -31q-7 -51 -9 -51q-32 -39 -35 -39q-34 -24 -42 -24l-38 -9q-51 14 -60 22q-32 18 -37 29q-21 22 -21 28l-6 45q11 49 17 57l19 31l40 29zM201 205l55 -9l48 1l1 -1q-8 -51 -18 -68q-9 -24 -29 -69q-24 -94 -29 -94 q-24 -38 -24 -55q-4 -21 -8 -21l-46 -8q-33 0 -95 8l-40 -1l-1 1v1q10 66 32 125q11 35 11 56q3 31 20 82q16 40 20 43q24 0 103 9z" />
<glyph unicode="&#x3c;" horiz-adv-x="666" d="M590 572l8 -53q-6 -87 -6 -114q-97 -28 -108 -35q-29 -16 -77 -29q-47 -22 -88 -44l42 -21q53 -9 62 -16q24 -15 82 -33q42 -11 86 -28h1v-1q0 -47 9 -115q-9 -49 -11 -51q-55 10 -89 25l-55 28q-49 11 -65 22q-23 15 -76 33q-49 9 -66 22q-21 12 -72 30q-37 24 -88 47 q-11 37 -11 55v27q8 51 11 51q40 20 81 30q11 3 61 27q42 17 97 45q95 39 110 39q81 19 162 59z" />
<glyph unicode="=" horiz-adv-x="666" d="M123 472h48l50 -1l34 1l154 -8l42 1l76 -1q27 0 74 6q8 -38 8 -95q-4 -41 -6 -43l-46 -1h-43l-57 -5l-73 2q-28 0 -72 -3l-45 4q-108 -1 -150 -3q-49 3 -49 6q-7 39 -11 90q11 46 13 46q36 4 53 4zM124 285h63l31 -1l26 1h6l157 -7l1 -1l3 1h43l3 1l3 -1h58q38 0 83 6 q8 -38 8 -96q-4 -41 -6 -43l-50 -1h-40l-55 -4l-75 1q-29 0 -72 -3l-48 5l-2 -1q-107 -1 -143 -3q-50 3 -50 6q-7 40 -11 90q11 47 14 47h1z" />
<glyph unicode="&#x3e;" horiz-adv-x="666" d="M78 572q40 -19 104 -38q44 -9 75 -28l60 -21q36 -23 77 -34q54 -22 112 -40q43 -17 58 -29q22 -14 24 -18l11 -38v-41q0 -6 -11 -47q-56 -18 -144 -63q-31 -7 -92 -41q-46 -22 -59 -22q-21 -2 -66 -25l-111 -38l-37 -17q-7 41 -7 58v51q5 55 8 55q137 51 178 75 q48 18 90 29v1q-45 17 -87 40q-84 37 -142 55l-41 19q-8 70 -8 107q6 50 8 50z" />
<glyph unicode="?" horiz-adv-x="587" d="M254 728q41 -6 150 -9q51 -14 93 -34q41 -35 42 -44q17 -26 21 -46q7 -26 13 -78q0 -54 -7 -61q-12 -32 -44 -76q-37 -32 -42 -32q-42 -14 -42 -16l-29 -51l1 -1v-21q0 -2 -56 -7q-123 0 -158 5l1 1v29q7 64 13 64q13 35 24 43q21 29 49 48q7 7 27 19l31 40l-40 42 l-52 -24q-5 -41 -10 -57q-32 0 -153 24q-54 2 -54 5v9q0 51 5 51q37 82 40 86q42 43 67 58q5 7 41 15zM302 220q54 -4 54 -8l35 -21q24 -41 24 -46l8 -41q-3 -55 -8 -55q-22 -38 -26 -38l-41 -22l-47 -5q-55 11 -55 17q-27 14 -35 25q-24 31 -24 34l-10 44q14 46 19 54 q19 34 24 35q34 21 43 21z" />
<glyph unicode="@" horiz-adv-x="800" d="M399 726h10l160 -21q42 -13 48 -16q38 -26 80 -62q57 -86 57 -101q23 -77 23 -119l2 -13q-15 -114 -20 -114q-14 -42 -26 -49q-20 -29 -26 -29q-44 -21 -93 -36h-40q-45 0 -65 8q-30 11 -30 13l-18 35h-1q0 -4 -29 -38q-39 -20 -44 -20l-42 -2q-57 3 -57 6q-38 30 -43 37 q-28 34 -28 37q-18 49 -18 80q-3 18 -3 66q8 50 22 74q2 13 34 47q1 4 37 28l46 23q43 -5 103 -8l37 -39q5 18 9 18q26 0 85 11q40 -5 40 -8l2 -50v-5q-22 -51 -22 -58q-5 -57 -13 -88q-4 -12 -4 -19q26 -26 28 -26l40 19l18 44l-1 49l1 41q-9 59 -16 59q-14 29 -29 44 q-22 26 -25 26q-78 45 -80 45l-47 2l-47 -5l-48 7q-89 -25 -106 -42q-19 -10 -51 -45q-5 -5 -26 -45q-16 -44 -28 -86l5 -45l-3 -48q14 -55 32 -95q18 -35 24 -41q38 -34 45 -34l75 -37l92 -1h1q9 0 58 -8q58 11 66 16q40 20 44 25l35 33h1q49 -46 49 -53l27 -36 q-40 -32 -86 -64q-94 -28 -106 -28l-47 -3l-51 9l-52 -2q-65 7 -123 27q-27 9 -71 33q-37 31 -75 70q-55 86 -56 109q-7 21 -7 27v29l1 19l-4 54q0 54 7 76q5 22 12 73q18 40 47 78q6 8 72 64q50 39 54 39q85 27 144 38zM348 387q1 -55 6 -83l32 -22q38 18 38 20l19 37 q0 50 -9 84l-30 20q-37 -18 -38 -20z" />
<glyph unicode="A" horiz-adv-x="776" d="M467 708q49 -10 49 -14l42 -89q12 -49 24 -69q9 -19 27 -72q29 -50 49 -103l47 -124q11 -45 28 -80q5 -8 17 -58q25 -45 25 -67l5 -23q-33 -8 -94 -8l-2 -1l-154 9q-3 5 -15 57l-19 46l-44 -8l-44 3l-88 -5l-43 10q-14 -58 -30 -103l-1 -1v0q-61 -5 -143 -5h-27h-30 l-49 11v1q23 58 58 159q27 62 41 116q21 41 45 108q11 24 29 79l45 88l31 91l25 41q63 8 96 8l49 -3zM388 455q-17 -35 -28 -77q-20 -47 -20 -54l-5 -37h1l48 -1l60 3q-15 36 -21 70q0 11 -24 67l-10 29h-1z" />
<glyph unicode="B" horiz-adv-x="693" d="M290 708h22l108 -10h33q58 -6 58 -10q36 -13 59 -30q16 -6 42 -43q4 0 14 -38q4 -10 4 -14v-21l1 -24q-4 -58 -8 -58q-16 -39 -25 -44q-29 -27 -33 -27q-35 -12 -38 -15q0 -5 11 -7q35 -14 73 -37q31 -30 31 -34l16 -36q-2 -104 -7 -104q-12 -35 -15 -41q-25 -35 -29 -39 q-31 -28 -35 -29q-48 -22 -66 -22q0 -4 -127 -12q-48 -5 -91 -13l-115 5q-61 8 -90 8q-2 0 -7 78q-2 17 -3 69l2 50q-5 126 -5 201q0 93 6 142l-4 48q2 65 9 97q38 9 170 9zM295 522l-5 -42l5 -42l58 2q41 10 41 12q15 29 15 32q-17 33 -20 33q-34 6 -37 8zM295 286v-1 l-5 -46l5 -46l8 1q67 0 85 7q18 4 18 9q14 25 16 31l-23 37l-45 10z" />
<glyph unicode="C" horiz-adv-x="696" d="M370 728h93q64 -6 79 -11q30 -7 51 -19q69 -33 70 -37l29 -34v-3q-24 -36 -56 -74q-35 -29 -57 -59l-33 -40h-1q-21 39 -24 39q-30 9 -45 12q-37 0 -93 -7l-41 -17l-31 -34l-16 -43l1 -49l-2 -46q22 -39 50 -80q45 -17 51 -17q51 -4 84 -8q39 24 43 29l23 32 q46 -42 52 -59q6 -10 50 -56q26 -31 47 -61q-27 -37 -36 -45q-42 -31 -49 -31q-35 -15 -90 -27h-33l-65 -2l-1 -1h-1l-50 5l-44 -1h-5q-43 10 -56 17l-90 44q-37 31 -42 37q-27 34 -42 62l-36 59q-11 45 -11 74q0 21 -7 75q0 75 20 157q18 43 43 79q2 6 43 46q39 34 46 35 q26 11 82 37q95 22 100 22z" />
<glyph unicode="D" horiz-adv-x="788" d="M184 708q53 0 105 -10l39 -1h53l52 -7l48 1q55 -10 99 -30q82 -44 82 -52q31 -32 37 -49q11 -16 26 -63q18 -43 18 -56q0 -35 6 -84q-5 -54 -8 -105q-13 -49 -19 -52l-50 -79q-39 -40 -48 -43q-33 -26 -111 -55l-55 -10h-29h-13q-61 -4 -136 -6l-70 -7h-26q-62 5 -97 11 q-4 26 -6 103l-7 43l6 54q0 64 -8 142l3 104q0 30 -3 92l4 57l-1 39q6 45 7 45zM302 497v-1q-5 -57 -5 -93l7 -49l-7 -49q0 -45 6 -94h1h67h23q61 13 61 19q35 29 35 33q20 52 20 77l2 19q-7 54 -10 54q-19 36 -24 40q-27 30 -29 30q-58 14 -147 14z" />
<glyph unicode="E" horiz-adv-x="603" d="M263 708l46 -4l48 4l94 -8l48 6l45 -11l10 -45l-13 -137q0 -5 -2 -5l-45 -2q-57 8 -101 8q-43 0 -101 -9l2 -58l3 1h44l92 -2l61 2h4h29l1 -1v-1q0 -43 9 -116l2 -18q-10 -45 -13 -45l-7 -1h-20q-43 0 -65 2l-48 -5q-48 0 -99 7v-64h1q53 0 93 -7l45 2l45 -4l89 9 q3 -26 3 -57v-31q0 -9 7 -58q-11 -46 -13 -47l-45 -10l-144 3l-62 -2h-23l-63 -4q-112 4 -112 8q-37 8 -37 10q-5 64 -5 113v1q0 57 7 126l-5 48l1 48l-3 50q8 112 8 138l-4 57q0 59 9 99l40 7l43 -1h8q44 0 93 4z" />
<glyph unicode="F" horiz-adv-x="581" d="M168 708q53 -4 88 -4l5 -1l48 2q54 -4 105 -4l80 3q46 -9 46 -11v-31l4 -89v-11q-5 -58 -8 -58l-92 3l-47 -3l-48 2l-45 -2l1 -37l-1 -34h1l53 5h33h70q50 -7 50 -10l7 -42q-3 -46 -4 -105l-4 -35h-41l-64 -6h-45q-12 0 -53 5q-2 -31 -3 -109q-3 -16 -3 -40v-80 q0 -3 -69 -13q-13 -2 -65 -3q-53 2 -64 8q-27 7 -27 9l2 46l-4 55l1 132l1 7l-1 10v31q0 7 -9 57l5 51l-1 48l5 47l-2 49l1 35q0 30 -3 63l7 47q51 9 90 13z" />
<glyph unicode="G" horiz-adv-x="762" d="M355 728h20q200 -2 200 -13q39 -16 62 -36q13 -4 51 -52q-32 -39 -67 -87q-42 -37 -60 -64l-12 -16h-2q-25 42 -28 42l-44 16l-60 -2h-37q-53 -23 -53 -30q-32 -36 -32 -46l-15 -32l2 -57l-1 -47q20 -49 24 -52q32 -39 38 -39q41 -22 48 -22l46 -3q55 15 55 17v44v4 l-56 3l-32 -1h-23l-1 1h-1l5 46l-3 47q0 28 2 45l-1 9v9l-1 28q0 2 54 7l58 -4l108 -1l101 1q13 -43 13 -161l3 -34q0 -33 -10 -97l5 -47l-8 -51q-48 -32 -58 -32l-78 -32l-48 -7l-49 7l-50 -3l-51 6h-50q-64 9 -64 15q-32 15 -84 49q-42 21 -42 26q-32 38 -54 82 q-29 42 -29 51q-10 38 -10 64l-2 28l2 50l-7 51q17 57 17 79q0 23 9 31q25 36 40 75q0 5 49 49q32 27 57 38q14 10 68 28l41 19z" />
<glyph unicode="H" horiz-adv-x="802" d="M168 708q128 -11 143 -14h1q-6 -40 -9 -90l3 -142h1q55 7 107 7h28l49 -4l4 52v74l1 58l-7 45q0 1 49 12l47 -3l47 5q79 -10 88 -13q12 -60 12 -115v-27q0 -18 -5 -53l1 -6q0 -70 9 -143v-20q0 -49 -10 -222l2 -49q-5 -47 -8 -47q-33 -10 -88 -13q-45 5 -58 5h-33 q-48 7 -48 9l4 51l-1 20v8l3 75l-8 52l3 53h1h-1l-47 -8q-41 4 -54 4l-40 -1l-45 2v-84q0 -30 -2 -70l2 -59l-1 -44q-40 -6 -91 -10l-47 3l-47 -5q-45 12 -45 14q-5 56 -5 95l2 48l-3 45l1 64v32l-8 54l5 98l-3 48l8 50l-3 48q6 47 8 97z" />
<glyph unicode="I" horiz-adv-x="372" d="M163 708q105 -3 105 -6q37 -8 37 -10l2 -54l-5 -121v-12l3 -54q-4 -52 -4 -84q0 -59 7 -191v-14l-6 -51l5 -49q-4 -48 -7 -48q-42 -11 -47 -11h-34l-57 -3q-49 0 -87 13l-7 49l5 50q-3 53 -8 97l5 49l-2 49l2 47l-2 49l4 97l-4 49v12q0 66 8 135q66 12 87 12z" />
<glyph unicode="J" horiz-adv-x="573" d="M408 708q49 -7 90 -10l10 -48q-1 -58 -5 -98q8 -67 8 -98l-7 -48l4 -49q-6 -96 -16 -201q-8 -44 -25 -80q0 -8 -24 -27q-20 -21 -56 -45q-84 -23 -100 -23l-44 -1l-101 10q-51 22 -57 31q-16 9 -60 53q-22 39 -39 86q3 3 101 37q51 17 100 40l41 -43q29 18 29 21 q7 67 7 94v20l-1 20l7 50l-9 100l8 54q0 51 -8 95q8 49 10 49l42 8l42 -1z" />
<glyph unicode="K" horiz-adv-x="763" d="M582 708q43 -3 137 -7q0 -1 38 -2l1 -1v-1q-21 -37 -69 -95q-16 -24 -67 -82q-2 -8 -50 -53q-7 -5 -30 -41l-37 -39q43 -47 60 -76q34 -46 63 -93q29 -38 58 -86q77 -85 78 -94l13 -20v-1q-49 -9 -94 -15l-48 2l-49 -3q-69 12 -94 12q-30 38 -73 111q-41 47 -49 65 l-59 96h-1l-6 -53v-2l1 -33l-3 -48q0 -49 9 -90l-1 -45q-64 -14 -93 -14q-84 0 -126 13q-7 0 -7 18l-5 30l5 52q-6 176 -10 176l-2 17l6 56v33q0 19 3 57l-7 49l8 49l-5 48q8 46 8 94q49 13 99 13h32q90 -10 90 -12v-1l-2 -46l3 -51l-6 -51q8 -42 8 -82v-19q4 0 56 75 q6 6 31 60q26 36 58 67q8 7 41 50z" />
<glyph unicode="L" horiz-adv-x="549" d="M262 708q46 -11 46 -14v-40l-3 -72v-30l-1 -1l1 -1v-2q0 -48 6 -96l-3 -48l1 -43l1 -5q-8 -69 -8 -98l5 -48l45 -3l46 2l45 -7l92 12l8 -53l-3 -51l3 -49q-11 -48 -13 -48l-6 -1q-31 0 -84 -7l-90 -5l-46 6q-53 -5 -92 -5q-25 0 -101 11l-36 2l-1 3l1 44l-9 50l8 47 q0 120 -4 197l2 81v4q0 38 -3 112q0 51 7 95l-2 46q0 2 54 7l39 7l47 -3z" />
<glyph unicode="M" horiz-adv-x="1008" d="M752 708h17l60 -10l92 -2q2 0 12 -109v-14l2 -73l-2 -49l2 -49l-2 -48l8 -50l-8 -48l5 -48q0 -31 -9 -107l-4 -84q0 -4 -28 -11q-8 -6 -60 -6q-38 9 -78 9q-19 0 -55 6v1q6 43 6 54v4q0 31 3 83l-2 47q0 30 5 96q-7 46 -7 55v40q-5 0 -15 -36q-22 -56 -35 -109 q-9 -54 -21 -85l-27 -60q-14 -49 -26 -69q-11 -23 -13 -23q-51 -5 -104 -8q-53 8 -53 10q-16 46 -35 96q-11 48 -20 62q-20 35 -22 54q-8 21 -22 86q-24 84 -26 84q-5 -2 -5 -17l-2 -31l5 -47q0 -37 -6 -97q3 -53 8 -96l-2 -50q12 -42 12 -47l-45 -8l-44 4q-64 -8 -89 -8 l-41 18q-6 30 -6 105v28q0 12 -6 56l7 49l-6 49l2 48l-4 49l5 156l6 39l-7 49q13 50 15 50q73 10 146 10l49 -8l52 7q47 -12 47 -15q22 -48 22 -59q7 -32 16 -46q16 -28 16 -45q4 -37 10 -43q20 -41 20 -55q6 -28 17 -42q15 -27 19 -48l6 -21h2q28 64 42 126l17 57 q8 48 25 98q18 40 18 71l2 12q98 13 139 13z" />
<glyph unicode="N" horiz-adv-x="791" d="M628 708q51 0 69 -9q16 -3 16 -8q5 -52 5 -100v-44q4 -39 8 -154v-17l-4 -83v-18l1 -66l1 -1v-1q-9 -44 -9 -116v-24q-4 -57 -7 -57q-48 -8 -87 -8l-9 1h-27q-41 0 -108 10q-17 40 -39 64q-10 11 -29 60q-45 73 -72 124q-26 36 -46 73l-3 2v-1l2 -43l-5 -47 q11 -109 11 -139l-6 -48l10 -45q-41 -13 -88 -13l-91 2q-37 10 -41 12q-4 52 -10 95l1 49l1 1l-1 4v24l3 68l1 1l-1 4v35q0 9 -7 58l5 155q4 0 7 159q1 0 1 27l90 11l102 -6l35 -7q23 -41 56 -83q40 -90 47 -98q34 -40 74 -122q16 -42 18 -43q3 3 9 46v6l-6 49v42l-2 57 l2 46v3l-6 97q0 2 40 13l44 -4z" />
<glyph unicode="O" horiz-adv-x="855" d="M433 728h36q59 -11 81 -14q25 0 62 -14q10 0 41 -25q55 -37 61 -45q35 -36 51 -64q5 -6 31 -69q16 -32 16 -38v-40l7 -112q-9 -59 -22 -105q-22 -50 -35 -65q-6 -14 -40 -45l-54 -48q-42 -16 -92 -43q-46 -12 -62 -12h-82q-12 0 -59 -9q-54 10 -154 37l-87 62 q-35 39 -35 43q-45 86 -45 89l-15 98l3 51l-2 55l1 46q24 61 24 66q7 37 15 43q23 37 32 41q25 16 57 50q9 14 27 20q26 15 62 25l69 19h35zM424 506l-47 3q-39 -23 -44 -28q-29 -39 -29 -45q-13 -28 -13 -37l-2 -40q3 -56 6 -56q12 -38 20 -47q19 -31 28 -31q32 -15 40 -15 l41 -4q56 3 56 8q38 13 38 17q26 41 26 45q12 32 22 84q-4 54 -12 67q-8 28 -19 37q-20 26 -34 31l-29 15z" />
<glyph unicode="P" horiz-adv-x="684" d="M130 708l168 -5h27l50 -11q41 7 50 7h21q30 0 51 -9q69 -22 69 -28q27 -18 58 -55q4 0 20 -53l12 -94v-38q0 -5 -25 -62q-11 -24 -38 -62q-41 -33 -67 -42q-11 -9 -41 -9l-69 -12h-27l-75 -3v0l-4 -42l1 -26v-41l-1 -21l3 -45q-6 -42 -7 -42q-34 -10 -86 -15q-54 0 -93 9 q-46 7 -46 9l2 45q-9 43 -9 49v32l-4 114l7 48l-2 50l2 47l-7 50q3 125 8 165q5 21 5 32v44q3 3 47 14zM309 517v-1q0 -51 3 -107q53 0 67 9q27 6 27 9l17 40q-12 35 -17 42q-40 6 -97 8z" />
<glyph unicode="Q" horiz-adv-x="864" d="M471 728q50 0 69 -10l76 -25q36 -22 81 -54l65 -76q24 -42 24 -48q6 -40 16 -89l-5 -50l8 -53q-17 -48 -39 -96q-29 -25 -35 -32q49 -10 55 -10l50 12q4 -7 15 -45l-4 -99q-10 -38 -12 -41q-42 -7 -92 -12q-75 7 -108 7h-29l-55 -4l-47 6q-41 -6 -49 -6q-40 7 -100 10 q-32 8 -96 13q-43 20 -90 39q-42 28 -45 32q-37 39 -37 48l-38 75q-8 32 -14 149v47q10 73 31 119q14 31 33 56q2 7 46 53q76 54 87 54q109 27 175 27zM289 317q11 -51 15 -51q39 -36 43 -36q27 -20 36 -20l39 -5q55 6 55 12q30 17 35 23q33 45 33 53q12 21 12 29l3 42 q-6 48 -12 61q-10 32 -15 32q-34 35 -49 41q-15 12 -31 12q-3 2 -32 5q-53 -2 -53 -7q-32 -19 -56 -43q-14 -8 -14 -25q-9 -49 -9 -123z" />
<glyph unicode="R" horiz-adv-x="714" d="M182 708q39 -6 98 -8l51 7l49 -14h15q82 0 124 -6q40 -16 44 -18q44 -38 53 -55q14 -16 30 -51l7 -44l-2 -44h-1v-1l5 -47q-12 -52 -16 -52q-32 -32 -61 -66l-45 -15q38 -50 77 -125q36 -37 38 -49l60 -105q-38 -12 -62 -12l-25 -3q-36 3 -135 7l-47 7q-33 75 -65 121 q-29 47 -62 123h-1l-6 -50l2 -49l-3 -49l5 -49l-2 -47q-33 -6 -90 -9q-59 0 -123 9l-11 3q-4 21 -6 70q0 25 -4 72l5 192l1 3l-4 50l5 48q-5 48 -5 60v80q0 53 10 103q19 0 97 13zM303 517h-1v-1l-4 -52l7 -55l44 -3l55 17l28 43l-21 49h-38l-67 2h-3z" />
<glyph unicode="S" horiz-adv-x="617" d="M291 728l48 -6l50 3q46 -8 101 -14q47 -22 52 -27q29 -22 47 -42l17 -20v-1l-80 -91q-33 -35 -58 -52l-6 -5q-70 56 -83 56l-41 4q-37 -7 -37 -8l-22 -26q69 -47 71 -47q61 -12 103 -26q47 -22 49 -27q41 -34 67 -69l18 -45v-46q-10 -112 -17 -112q0 -7 -42 -77 q-87 -55 -107 -57q-19 -8 -64 -12l-11 -1l-64 3h-68q-66 6 -66 12l-81 34q-33 22 -48 40q-17 17 -17 20q30 42 35 46q37 28 43 35q20 35 35 48q27 25 30 25q47 -39 84 -56q6 -8 41 -8l27 -1l53 32q-32 35 -36 35q-45 17 -90 38q-50 9 -55 14q-26 18 -78 50q-35 49 -35 56 q-12 28 -12 31q6 55 6 96q11 53 26 86q0 6 37 42q42 38 53 38q27 15 76 29z" />
<glyph unicode="T" horiz-adv-x="600" d="M445 708l52 -6l41 1q49 -8 49 -9l3 -40l-1 -91q-2 -61 -6 -61l-39 7l-56 -3h-48l-25 -1q9 -62 9 -99l-4 -49q2 -91 5 -154v-21q0 -28 -10 -69l4 -49l-5 -50q-46 -4 -88 -14q-45 7 -57 7h-33q-46 6 -46 9v5v15q0 31 -5 76l4 49l-4 49l5 49l-10 49l4 49l-2 49q2 59 6 96 l-126 7l-39 -3v1l-13 44q3 57 3 97q7 49 10 49l44 10l92 -4l1 -1h1l48 4l48 -4z" />
<glyph unicode="U" horiz-adv-x="775" d="M622 708q39 0 92 -16l1 -1v-1q0 -45 9 -88q-6 -45 -6 -103v-32l7 -54l-3 -46l1 -48q-9 -43 -9 -49v-39l1 -7l-30 -101q-24 -34 -65 -79l-36 -30q-44 -13 -147 -33l-64 -1h-17q-52 0 -125 20q-49 18 -58 28q-22 12 -40 33q-26 26 -27 37q-38 80 -38 101l-6 27l-2 52l1 36 l-6 53l5 46l-9 48l9 138l1 1v1l-7 47q7 39 10 43q66 14 94 14q81 0 139 -12v-86l-5 -62l9 -97l-1 -10v-31q0 -9 -7 -59q8 -85 8 -103q36 -42 38 -42l50 -4q56 4 56 7l33 39l2 69v30q0 15 6 53v4l-6 145l3 50l-5 48q6 49 8 49q37 10 43 10h40z" />
<glyph unicode="V" horiz-adv-x="739" d="M535 708l171 -5l35 -4q-6 -51 -8 -53q-25 -43 -25 -55q-7 -45 -43 -140q-13 -24 -29 -79q-24 -44 -24 -55q-7 -45 -13 -45q-23 -41 -23 -55q-20 -76 -36 -97q-9 -12 -21 -63q-24 -46 -28 -46l-44 -10l-53 2l-51 -3q-60 0 -86 8q-17 2 -17 9q-37 87 -53 137 q-20 36 -50 136q-18 35 -38 90q-22 93 -43 138q-14 40 -28 93q-15 37 -29 85l3 2q47 4 98 5l23 -1h20l65 3q49 -8 49 -11l29 -93q5 -51 11 -62q27 -64 41 -142q5 -35 16 -62q21 -60 23 -62q44 164 44 188q19 45 19 51q4 52 9 63q37 117 37 121z" />
<glyph unicode="W" horiz-adv-x="1077" d="M166 708q60 -4 99 -14l9 -101q15 -38 15 -48q0 -60 25 -130q14 -46 22 -99v-1h4q4 58 15 98q14 44 14 62q0 28 22 109q5 14 14 65l18 46q32 0 92 13q36 -8 123 -13q21 -1 21 -5q0 -15 27 -97q6 -45 24 -93q10 -37 25 -143l11 -47v0q14 43 25 115q6 33 21 80q11 91 15 107 q11 31 11 38v4l1 40q0 1 53 9h35q20 0 56 3l92 -16h1v-1q0 -44 -16 -96q-17 -33 -17 -46q-3 -45 -8 -52q-15 -35 -15 -51q-5 -28 -21 -78q-8 -44 -26 -85l-25 -95q-21 -41 -21 -65q-1 -19 -24 -71q-13 -33 -16 -33q-44 -10 -65 -10h-31q-59 0 -137 8q0 25 -30 144l-48 157 q-10 37 -20 82h-1q-20 -76 -34 -151q-28 -89 -29 -97q-6 -46 -13 -55q-15 -27 -24 -77q0 -4 -46 -13q-46 0 -91 -5q-64 3 -64 8q-30 7 -30 11q-16 30 -31 92q-11 33 -22 86q-22 45 -22 63q-16 68 -29 105q-3 7 -12 60q-15 35 -21 73q-14 68 -18 68q-20 39 -20 57 q-8 37 -8 67l46 14l49 -4v-1z" />
<glyph unicode="X" horiz-adv-x="800" d="M155 708l47 -8l46 5q50 -10 50 -13q24 -52 35 -59q49 -68 55 -88q10 -24 13 -28q34 51 34 62q8 30 42 80q25 35 28 35q40 8 116 8h7l56 4q51 -5 86 -12v-1q-23 -43 -51 -86q-39 -42 -60 -72l-23 -50q-33 -39 -62 -79l-29 -30q27 -45 61 -91q21 -30 59 -70q22 -50 28 -53 q58 -73 65 -93q7 -16 25 -34l15 -16v-1l-46 -14l-39 1l-58 -2l-91 2q-46 11 -46 14q-28 35 -35 49q-8 22 -39 61q-32 45 -49 83v0q-30 -43 -38 -71q-5 -13 -33 -55l-50 -71q-81 -14 -101 -14l-32 -1q-110 8 -110 12q-28 5 -28 7q36 36 37 47q12 28 28 47q55 67 95 141 q23 42 64 90q20 20 20 23q-74 92 -96 128q-20 43 -36 57q-52 65 -78 111l-16 33l62 3h21z" />
<glyph unicode="Y" horiz-adv-x="738" d="M128 708q88 0 114 -9q26 -5 26 -10q11 -31 67 -113l35 -82h1q40 85 50 97q16 19 56 102q47 13 79 13l10 1q89 -9 136 -9q45 -7 45 -9q-58 -75 -71 -107q-7 -14 -46 -72q-13 -22 -51 -75q-9 -21 -48 -61q-29 -50 -46 -68q-9 -12 -9 -17l-2 -44q3 -53 9 -93l-3 -47l1 -42 v-2q-6 -48 -9 -48q-14 -6 -148 -9l-33 -4l-46 13l-4 45q4 48 4 73v7l1 13l-7 47l9 47l-3 48q-32 39 -53 78q-58 77 -83 121q-26 36 -42 68q-29 48 -60 92l-15 43q0 1 88 12z" />
<glyph unicode="Z" horiz-adv-x="672" d="M313 708q55 -3 99 -9l2 1l47 3l51 -4l49 6q47 -9 47 -11l12 -39l-5 -53v-31q-7 -48 -13 -48q-15 -32 -25 -41q-41 -42 -91 -106q-12 -20 -67 -79q-7 -11 -56 -56l-26 -31v-1l48 -6l46 6q46 -3 93 -9q49 9 92 9q10 -62 13 -100l-13 -95q-61 -12 -98 -12h-33l-86 3h-8 l-55 -3l-47 6q-54 -8 -95 -8l-57 3h-34q-44 7 -44 10q-6 42 -16 96q4 55 11 101q27 34 97 114q44 41 53 57q11 13 41 57q24 29 45 50l17 16l-45 9q-114 -3 -149 -8q-45 3 -45 5l-8 42q3 41 4 106l-1 32q4 3 78 11q0 1 24 4q48 0 98 -5z" />
<glyph unicode="[" horiz-adv-x="360" d="M144 732q69 -11 106 -11q42 -6 43 -8l2 -41l-5 -46l1 -43l-1 -1l-40 13q-34 -12 -38 -15l-5 -47l4 -50l-3 -49l2 -50q-4 -41 -7 -98l9 -49l-5 -50l5 -99l-9 -52v-23v-23l47 -5l42 6l1 -1v-1l3 -45l-6 -44l3 -42h-1l-98 -14l-61 3h-37q-7 0 -47 10l-1 32l1 66q-6 47 -6 92 l3 48l-6 49l7 46l-5 48l6 101l-5 139l4 54v37l-6 51q6 39 8 94q0 2 95 18z" />
<glyph unicode="\" horiz-adv-x="455" d="M214 767q27 -43 35 -70q23 -68 43 -108q38 -82 45 -122q0 -18 20 -48q11 -14 44 -120q14 -35 38 -82q26 -100 32 -100q21 -36 21 -39q8 -49 20 -78q4 -9 4 -14q-39 -20 -98 -44h-38l-14 -1q-20 55 -35 71q-15 23 -18 41q-60 159 -73 185q-11 16 -23 73l-44 108l-25 77 q-49 91 -54 116q-20 57 -33 110q43 22 102 44v0z" />
<glyph unicode="]" horiz-adv-x="360" d="M173 732h38q41 0 98 -12q11 -59 11 -96l-6 -47l6 -48l-1 -3q0 -38 -6 -93l6 -47q-4 -52 -4 -78v-13l7 -53l-3 -57v-30l-1 -75v-23q0 -12 -6 -54l6 -102v-18q0 -23 -4 -23l-48 -11l-135 -5h-13q-52 16 -52 19v33l-4 52l11 43h1l38 -11l40 13l6 49l-8 104v38l4 56l-5 49 q2 29 2 59v36q0 15 6 54v6v36q0 9 -9 58l9 49l-46 11q-39 -12 -46 -13v1l5 46q-3 39 -5 86q46 8 108 14z" />
<glyph unicode="^" horiz-adv-x="714" d="M385 709q49 -4 49 -7q37 -50 75 -121q77 -151 114 -230h-33l-48 -7q-54 0 -89 9q-26 49 -46 94q-33 44 -40 70q-1 0 -8 18h-1q-28 -50 -46 -95q-35 -43 -41 -67l-10 -20l-42 -9l-44 9l-43 -9q-34 7 -43 10q46 80 71 136q41 53 64 113q1 12 25 39q17 20 41 60q57 7 95 7z " />
<glyph unicode="_" horiz-adv-x="500" d="M71 -75l43 -9q42 6 90 9l45 -8q106 7 134 7q48 -5 89 -5q1 -2 9 -49q-8 -49 -10 -49l-44 -2l-44 2l-45 -6l-45 9l-44 -9l-45 9l-44 -7l-45 4l-45 -6l-45 7l-5 49q6 52 7 52z" />
<glyph unicode="a" horiz-adv-x="591" d="M247 546l53 -8h11q78 0 107 -11q16 -2 33 -19q44 -37 57 -58q22 -32 22 -40l12 -87l-1 -48l10 -45q-5 -81 -5 -107q0 -34 2 -77q-3 -42 -5 -42l-51 -13l-54 6l-51 -5l-49 10q-2 43 -6 43h-1q-28 -43 -32 -43l-44 -16l-101 6q-45 10 -71 23q-13 4 -18 12q-27 44 -27 52 q-10 24 -10 30v45l-3 51q19 29 59 69q1 4 42 26q55 25 78 25q16 4 93 6q0 1 28 2q-11 41 -13 41l-44 7l-62 -14l-48 -30h-3q-30 21 -59 53l-52 58v1q34 38 45 38q27 12 68 39q41 17 51 17zM329 214l-47 3l-44 -14l-20 -40q13 -33 15 -35h23l13 -1l54 18q15 47 19 73z" />
<glyph unicode="b" horiz-adv-x="694" d="M155 756l45 -4l46 4q44 -11 44 -13l3 -51l-10 -55l4 -52l-1 -10l-1 -44l8 -50l36 35q44 15 59 15h24q18 0 65 4q50 -20 96 -45q41 -36 42 -42q26 -39 29 -59q8 -14 16 -94l4 -32q-7 -62 -7 -105q-19 -50 -33 -68q-9 -19 -52 -63q-43 -27 -47 -27l-48 -8l-52 2 q-29 -6 -46 -8q-48 11 -61 22q-27 14 -28 20q-21 25 -21 28h-1v-1l2 -50q-14 -4 -53 -11l-49 -1q-76 9 -100 9q-1 3 -12 52l-2 90l5 149q0 144 -6 207l9 47l-6 50l3 50l-3 49q9 49 12 49q63 11 87 11zM282 262q10 -50 15 -50q27 -27 31 -27l40 -12l45 14q31 30 31 33l11 43 q-9 46 -10 46q-40 30 -52 30q-6 4 -26 10q-50 -13 -50 -18q-28 -23 -28 -27z" />
<glyph unicode="c" horiz-adv-x="526" d="M344 546q59 -5 109 -14l44 -12l34 -36v-2q-26 -38 -52 -83l-61 -79q-30 22 -33 22l-34 4q-50 -3 -50 -5l-30 -35q-14 -42 -14 -46q15 -49 18 -49q31 -27 33 -27l44 -8q41 6 48 12q20 12 24 12q33 -39 58 -81q30 -38 56 -81q-45 -32 -78 -42q-8 -6 -66 -16l-54 4l-59 -3 h-16q-27 0 -36 9q-24 9 -114 55l-55 79q-29 88 -29 138q10 47 10 53v40q15 41 41 77q5 8 49 45q30 25 41 31q33 18 39 18q25 10 90 14z" />
<glyph unicode="d" horiz-adv-x="694" d="M586 756q41 -10 41 -12q12 -43 12 -70l1 -29q-6 -40 -6 -96l8 -57v-86l-1 -9l1 -4l1 -53q0 -26 -6 -121l-1 -25l1 -44l-5 -60v-39q-4 -48 -8 -55q-42 -9 -54 -9l-48 -1h-4q-54 0 -71 8l-25 6l3 51v1h-1q0 -3 -37 -37q-30 -21 -33 -21q-41 -7 -48 -7q-107 0 -141 8 q-4 0 -42 30q-44 33 -48 39q-16 40 -41 95l-5 102q5 56 14 104q16 48 21 51q17 30 38 51q26 26 36 28q25 17 56 25q24 8 57 8l67 6l49 -30l33 -28h3v43l3 77v36l-6 62v48q0 3 47 12l50 -4h36zM239 258l12 -47l27 -36l47 -5q49 13 61 27q21 14 21 19l7 42q-10 47 -12 47 q-33 30 -36 30l-42 10q-47 -7 -47 -10l-25 -36z" />
<glyph unicode="e" horiz-adv-x="630" d="M328 546q57 -6 76 -13q24 -8 72 -17q41 -29 47 -36q33 -39 46 -66q8 -8 28 -59q3 -44 4 -97l-5 -47q-46 -6 -54 -6l-94 -2l-52 8q-57 0 -96 -3l-48 2l30 -48l57 -10q45 6 51 9q0 2 36 25q47 -18 65 -34q11 -8 59 -26l35 -21q-23 -42 -30 -47q-75 -57 -79 -57 q-53 -17 -82 -17q0 -1 -12 -1l-49 5l-54 -8q-55 11 -101 28q-41 23 -47 27q-24 34 -63 77l-23 49q0 48 -9 92l-2 10q9 46 12 104q23 44 59 90q29 34 31 34q41 21 85 34q11 4 107 21zM246 334l54 -4q40 4 64 4h43v0q-26 46 -29 46l-48 13q-52 -16 -53 -18z" />
<glyph unicode="f" horiz-adv-x="424" d="M389 786l48 -17l1 -34v-8q-9 -49 -9 -67q0 -20 -12 -64h-1l-40 10l-44 -21l-14 -51l3 -8l51 6l52 -2q7 -45 7 -56q-5 -110 -7 -110l-51 5l-56 -4l6 -47l-4 -100h-1l1 -1v-1l4 -100l-3 -99l-91 -17q-43 8 -134 16q-9 45 -9 55l1 40l-1 50v3q0 11 7 53l-1 7l-2 94l3 52h-1 l-43 -5h-42q-5 43 -5 68v37l4 59h1h33l50 -4v1q6 88 19 126q10 38 20 46q15 23 60 61q44 17 54 17q24 0 96 8z" />
<glyph unicode="g" horiz-adv-x="697" d="M215 540l52 -5l44 2l44 -1q50 -45 60 -63l1 -3h1l2 53q5 2 51 16q50 -7 62 -7h39l9 1l52 -9l11 -50l-7 -52l1 -8q0 -64 8 -149l-4 -52l3 -51q-9 -79 -9 -124v-25q-9 -60 -16 -73q-14 -38 -37 -79q-41 -41 -48 -43q-28 -22 -63 -35q0 -6 -55 -11q0 -1 -67 -4l-41 -5l-51 4 l-49 -7q-57 8 -69 17q-52 18 -108 69q30 39 30 49q12 33 29 51q7 10 37 47h2q36 -32 40 -32q28 -16 65 -25l11 -2l92 5l42 16l24 41l9 40l-2 24h-2l-40 -37q-57 -18 -78 -18q-15 -3 -30 -3h-43q-3 0 -98 38q-39 30 -43 38q-25 41 -25 47l-22 90l3 51l-4 53q5 61 10 61 q14 39 38 68q2 8 43 55q53 28 66 28q2 2 30 9zM240 268q8 -48 11 -48q34 -30 41 -30l34 -13q48 7 50 10q29 40 29 44l11 39q-13 44 -18 49q-24 31 -25 31l-16 1h-27l-3 1q-45 -10 -48 -13q-33 -24 -33 -26z" />
<glyph unicode="h" horiz-adv-x="666" d="M108 756h65l23 -1l20 1h25q41 -7 41 -10v-39q4 -68 4 -96l-5 -97q2 -46 4 -46l4 -1h1q35 44 37 44q50 23 62 23l38 6q56 -5 96 -15q38 -27 50 -42q21 -19 21 -28q14 -32 14 -52q3 -145 6 -145l7 -36l-7 -104l1 -34v-5l-1 -56q0 -7 -23 -10l-22 -7l-48 2l-45 -8 q-43 9 -91 15l-1 1v1l6 133l-7 46l6 49v37q0 8 -15 51l-37 20l-43 -18q-3 -50 -12 -97v-40l-1 -49q9 -58 9 -134q-61 -15 -104 -15h-10l-71 1q-45 15 -45 18l-3 44l1 47l1 1v1l-7 49l7 49l-6 49l7 49l-1 2l-4 194v41q0 41 -3 106l8 56v36q0 4 48 13z" />
<glyph unicode="i" horiz-adv-x="339" d="M173 796q49 -10 61 -20q26 -13 30 -24q20 -26 20 -34l2 -40q-3 -52 -10 -52q-15 -26 -28 -36q-29 -22 -31 -22l-44 -6q-53 9 -53 12q-37 20 -37 25q-23 31 -23 39l-3 41q4 49 8 49q24 32 31 36q34 22 54 26zM194 532q41 -6 89 -10h1q0 -28 6 -127v-13l-3 -65q2 -29 2 -95 l-3 -60l1 -42v-8q-6 -65 -6 -104q-32 -8 -100 -8h-18q-38 0 -109 11l6 49l-4 52l4 51l-6 51l1 21v21l1 9l-5 53l9 50l-1 4l-2 48l2 52l-2 48l-1 1q91 11 138 11z" />
<glyph unicode="j" horiz-adv-x="346" d="M179 796q49 -7 49 -10q35 -27 64 -62l3 -47q-3 -49 -7 -49q-28 -37 -44 -44l-22 -15l-46 -3l-45 1q-37 28 -41 34q-23 35 -23 37l-10 41q7 50 9 50q22 31 34 41q31 23 34 23zM108 532l45 -6l46 5q60 -3 89 -11q5 -30 7 -114l4 -37q-4 -50 -4 -69v-15l-2 -67l6 -50 q-10 -103 -10 -151l1 -50q-24 -107 -32 -107q-14 -29 -36 -46q-20 -22 -36 -25q-28 -14 -52 -14q-79 -6 -125 -15q-44 25 -44 29l-7 38q9 54 9 99q7 37 9 39l37 -3q42 13 42 15q10 68 10 102v4q0 38 -7 95v16q0 37 2 77l-3 51l7 48l-3 51l3 58v21l-1 19q40 13 45 13z" />
<glyph unicode="k" horiz-adv-x="670" d="M205 756q47 -12 62 -12l29 -1v-1v-1q0 -42 -9 -91l7 -46l-3 -46l5 -47l-6 -46l3 -45l-2 -47l5 -47h1q51 79 92 155l27 40l21 -1h26q92 9 110 9l54 -9l46 1l1 -1q-32 -65 -131 -187l-30 -38q19 -46 25 -53q25 -32 45 -72q33 -38 40 -60l35 -55l12 -42q-47 -8 -150 -8 q-64 0 -105 10q-56 84 -57 91q-13 47 -26 58q-18 26 -29 52l-8 20h-3l1 -9v-11l1 -26l-6 -44l8 -44v-6v-7l1 -74q-3 -2 -53 -7q-34 -8 -42 -8h-41l-53 10q-34 2 -34 5q-2 56 -8 97l2 48l-7 97l5 96q-7 67 -7 98l6 58v26l2 63l-4 48l9 96q35 11 83 11z" />
<glyph unicode="l" horiz-adv-x="342" d="M239 756q6 0 49 -13l1 -3l1 -41v-2v0v-6v-28q0 -45 1 -65l-6 -48l8 -97q-2 -23 -2 -66v-28l-1 -3l1 -1l1 -61v-68l1 -66l-7 -49l2 -49q-6 -46 -8 -49q-37 -5 -90 -13h-37q-10 0 -96 14l-5 48l2 49q-5 53 -5 144l9 54q0 48 -4 93l1 26v46l2 76l-3 48q5 94 5 121v7 q0 19 3 19q97 11 127 11h50z" />
<glyph unicode="m" horiz-adv-x="976" d="M478 540q48 -21 57 -32q17 -9 31 -32l12 -16q28 36 35 39q41 27 63 33q0 5 34 5l23 1q53 -6 95 -14q43 -32 52 -50q13 -13 30 -56q2 0 6 -69q3 -21 7 -111q3 -20 6 -178q-11 -47 -14 -47q-41 -5 -119 -9q0 -1 -13 -1q-43 6 -89 10v1q7 41 7 66v11l-5 66v40q0 29 -5 101 v21q0 15 -6 15l-35 13q-33 -21 -33 -24l-17 -41q10 -59 10 -92l-4 -44l6 -45l-4 -87q-31 -6 -146 -11h-35q-47 6 -47 10l-6 43l6 48v30l-4 56l3 44q-4 50 -12 90q-28 26 -30 26q-29 -14 -40 -21l-8 -48l2 -44q-6 -61 -6 -91l5 -46l-7 -46l5 -40q0 -2 -63 -11q-23 -3 -44 -3 h-68q-45 8 -45 11q-10 34 -15 90v1q0 43 6 96q0 46 -8 92l8 46q-2 59 -5 93q10 89 13 89q27 5 96 7q27 6 79 6q42 -11 42 -13l2 -56l3 -1q21 42 25 43q37 24 49 24q23 8 28 8q35 0 87 4z" />
<glyph unicode="n" horiz-adv-x="666" d="M428 540q100 -11 100 -16q32 -22 38 -29l25 -35q24 -76 24 -139q6 -38 6 -48l-4 -53l2 -52l-2 -50l-1 -1v0l7 -53q-8 -47 -9 -48q-43 -11 -52 -11l-32 1l-41 -1h-5q-56 0 -104 8l1 1v0l3 50v36q0 9 8 49q-10 51 -10 91l2 47q-2 51 -6 51l-42 15v0l-39 -22l-15 -46l3 -44 l-2 -46l2 -59v-25q0 -22 -2 -53l2 -44q-5 -3 -43 -12l-46 2l-46 -4q-55 4 -90 14l-1 1v1q0 19 -10 99l5 51l-5 53l5 102l-2 66v36q0 63 6 83q4 21 6 21h33q9 0 51 7q36 -4 50 -4h28q53 -3 53 -6l1 -21v-28l1 -5h2q22 40 28 40q33 19 39 19q31 7 78 11z" />
<glyph unicode="o" horiz-adv-x="664" d="M278 546l41 -1l67 1q59 -7 67 -15q26 -6 83 -44q35 -26 40 -32q29 -35 29 -39q24 -100 24 -112q4 -34 7 -90q-19 -62 -49 -118q-17 -34 -25 -36q-31 -32 -61 -45q-8 -10 -69 -25q-53 -10 -100 -10q-43 0 -108 12q-44 22 -93 43q-55 50 -60 64q-13 9 -19 39q-8 15 -21 109 l-2 21q4 60 16 110l16 44q69 75 94 87q26 19 46 23q22 11 44 11zM250 267q5 -47 7 -47q31 -33 35 -33q22 -6 40 -13q41 14 47 18l28 31l6 44l-4 44l-35 33l-43 4q-45 -4 -45 -6l-28 -33z" />
<glyph unicode="p" horiz-adv-x="694" d="M479 540q61 -23 96 -48q39 -39 39 -46q24 -34 30 -63q6 -16 19 -64l1 -48q0 -47 -14 -109q-17 -45 -34 -76q-3 -14 -24 -28q-66 -51 -72 -51q-40 -13 -47 -13l-46 -3q-65 4 -65 9q-38 13 -41 19l-30 27h-1l-6 -47v-34q0 -10 7 -53l-5 -47q5 -40 5 -79v-11q0 -3 -88 -7 l-49 -8l-26 1h-19q-29 8 -43 13l-6 48l1 51q-4 35 -6 133l-2 17l8 100l-7 50l7 50l-9 51l6 49l-2 50q4 45 8 147q37 13 52 17l55 -7l54 2q50 -10 50 -12l2 -51h2q18 29 30 39q40 22 52 22l23 6l42 -5zM277 269q15 -48 21 -51q22 -28 28 -28l41 -5q48 5 48 6l33 33l7 45 q-15 45 -17 47l-28 26l-43 10q-51 -4 -51 -11q-30 -24 -30 -26z" />
<glyph unicode="q" horiz-adv-x="694" d="M268 540q39 0 80 -14q47 -18 47 -24l20 -31h1l2 2l1 48l51 12q139 -3 139 -7q20 0 20 -7v-1q0 -21 14 -214l1 -32l-9 -50q8 -55 8 -102q-10 -255 -10 -348q-2 -2 -44 -12q-145 0 -181 11l-5 45l9 46q-4 50 -7 138l1 46h-1q-39 -40 -43 -40q-25 -8 -42 -15l-53 4l-51 -1 q-49 18 -96 45q-39 35 -40 40q-24 40 -24 48l-25 86l1 48v4l-3 53q10 54 25 91q30 62 37 62q30 33 37 33l89 34zM240 267l9 -47l38 -27l40 -11q49 11 49 15q30 25 30 28l8 43q-11 48 -18 48q-25 28 -34 28l-35 13q-47 -15 -47 -19q-28 -29 -28 -37z" />
<glyph unicode="r" horiz-adv-x="445" d="M404 540q43 -9 43 -11l5 -47q-10 -109 -20 -131q-2 -14 -5 -14l-45 9q-46 -7 -50 -9q-35 -41 -35 -48q-13 -28 -13 -33q7 -52 7 -97l-8 -51l6 -48l-1 -8v-7l-1 -34q0 -1 -46 -7l-45 2q-67 -6 -92 -6q-39 7 -39 8l-12 52l1 93l1 9l-3 56q0 27 6 133l1 17l-2 52l5 53l-1 48 q47 8 58 8q36 0 133 -6l23 -1l3 -58l5 -3q22 50 25 50q47 21 51 21z" />
<glyph unicode="s" horiz-adv-x="513" d="M316 546q58 -7 101 -22q37 -20 76 -49v-1q-69 -81 -106 -128q0 -2 -3 -2q-50 30 -61 30l-35 10q-31 -21 -34 -26v0q26 -16 84 -33q18 -2 78 -31q37 -35 37 -37q20 -41 20 -48l8 -41q-3 -57 -11 -80q-3 -19 -15 -30q-20 -29 -33 -33q-30 -18 -73 -30l-50 -11l-49 2l-54 -6 q-47 11 -104 22q-45 22 -49 26l-34 33q86 91 103 118l9 10h1q29 -34 31 -34q36 -18 43 -18l39 -2l28 24q-30 28 -34 28q-54 6 -54 11l-79 34q-37 37 -37 46q-15 25 -18 49l-4 28q11 55 24 96l26 38q40 22 133 56l48 -4z" />
<glyph unicode="t" horiz-adv-x="421" d="M122 644q46 -7 65 -7h63q49 -4 49 -7l5 -55l-6 -57l56 5q55 -3 55 -6v-2l3 -56q0 -62 -4 -100h-1l-81 1h-29l1 -42l-2 -51q7 -50 16 -95l47 -17l38 11h1l11 -53q-9 -50 -9 -58v-44q0 -2 -36 -16l-40 -9q-90 8 -137 16l-39 13q-41 40 -46 56q-10 8 -16 43q-5 0 -6 129 l-2 22q4 58 4 94l-1 -1h-1l-35 -3q-35 5 -35 7l-9 104q7 51 9 51l35 6q23 -6 31 -6l1 6q0 62 7 111z" />
<glyph unicode="u" horiz-adv-x="663" d="M188 526q44 -9 57 -9l27 -1q10 0 10 -3v-42l-8 -47q4 -36 5 -89l-5 -47l1 -41q11 -48 14 -53l39 -24q29 21 38 29l15 46l-6 45q5 47 5 60v61l4 58h1l-9 46q38 6 93 9l45 -6l46 4q44 -7 44 -9q9 -46 9 -52v-42l-7 -59q8 -43 8 -102l-7 -51q4 -54 6 -102q0 -45 -12 -105 q-43 0 -85 -7l-44 5l-45 -6q-47 8 -47 11l4 52q-2 3 -3 3q-23 -32 -60 -61q-42 -4 -85 -11q-63 5 -96 16q-40 27 -43 34q-29 31 -34 51l-9 21l3 47q-7 44 -7 54l1 43l-5 55l3 51l-6 55q8 45 8 85v14q0 3 54 7h35z" />
<glyph unicode="v" horiz-adv-x="638" d="M538 526q46 -8 93 -13l1 -1v-1q-13 -46 -25 -67q-15 -26 -15 -46q-4 -27 -14 -41q-15 -23 -28 -71q-26 -49 -28 -64q-9 -42 -28 -84q-24 -34 -26 -51q-7 -34 -14 -42l-21 -34q-40 -10 -65 -10h-22l-5 -1l-50 7l-47 -4q-50 10 -50 12q-21 36 -31 78q0 3 -26 57 q-15 42 -38 92q-16 36 -31 100q-12 41 -32 81q-20 43 -27 79q-1 0 -3 12l48 7l48 -3l100 6q53 -7 53 -10q7 -51 20 -79q19 -62 19 -83q11 -69 26 -109l4 1h3q7 48 19 84q3 6 13 63q25 76 37 124l48 9h36z" />
<glyph unicode="w" horiz-adv-x="973" d="M64 526v0l111 -3h26q52 -6 52 -9l1 -1v0q0 -53 5 -53q10 -30 16 -67l19 -72q0 -15 24 -68l1 -1h1q7 48 22 92q4 53 15 92q16 36 31 80l1 1h1q25 0 101 8l109 -12q16 -33 25 -86q13 -37 21 -92q10 -31 21 -84l1 -1h1q23 54 23 76l16 65l24 123l90 9l46 -1l47 3l42 -12 q-6 -50 -13 -65q-10 -26 -25 -78q-19 -35 -55 -155q0 -14 -27 -80q-18 -29 -34 -83q-17 -37 -21 -39l-41 -12l-46 4l-44 -2q-63 9 -88 9q-17 37 -27 81q-9 57 -20 77q-16 56 -23 72l-11 21q-17 -39 -17 -53q0 -20 -12 -50q-12 -24 -25 -85q0 -15 -22 -59q0 -4 -13 -4 q-21 -5 -118 -12q-47 9 -82 9q-5 0 -28 52q-11 43 -27 68q-9 11 -15 49q-3 18 -23 67q-22 33 -42 117q0 9 -24 60q-18 72 -18 91q42 13 48 13z" />
<glyph unicode="x" horiz-adv-x="675" d="M120 526l50 -8l51 3q50 -7 50 -9q37 -41 74 -102q18 45 26 49q16 22 46 55l47 8l49 -3l50 2q54 0 96 -8v-1q-33 -39 -45 -59q-16 -25 -57 -80q0 -3 -78 -99l-1 -3q27 -38 63 -81l47 -70q38 -37 40 -46q17 -28 42 -61l-50 -10l-52 2l-50 -3q-70 2 -107 9q-28 35 -28 37 q-18 48 -29 57l-14 19q-22 -34 -84 -113l-104 -10l-35 -1l-60 1q-47 10 -50 12v1q32 36 57 75q26 32 54 75q34 36 40 50q9 18 31 42l12 14q-39 44 -42 54q-15 27 -26 38q-32 29 -35 43q-17 32 -23 35q-38 40 -38 48l-16 25q39 8 99 13z" />
<glyph unicode="y" horiz-adv-x="638" d="M494 526l141 -14v-2q-17 -65 -34 -105q-14 -21 -42 -124q-27 -42 -27 -54q-8 -42 -11 -42q-27 -41 -27 -54q-10 -31 -31 -74q-14 -39 -41 -96q-12 -43 -55 -115q-58 -55 -70 -64q-42 -11 -91 -20l-46 5l-43 -7q-49 5 -59 11q-23 8 -25 11l-1 46q13 44 13 54q0 42 15 81 q0 3 2 3l62 -9q47 7 52 10q33 40 33 44v7q-1 4 -26 45q-32 95 -54 132q-20 41 -31 78q0 9 -30 63q-16 33 -27 77q-16 51 -38 97l47 13q50 -5 96 -5h5l53 2q49 -8 52 -10q14 -45 14 -55q0 -33 13 -62l23 -64q5 -54 10 -54l11 -29q3 0 17 60q0 14 36 116q0 48 9 61q9 22 13 27 q46 6 92 16z" />
<glyph unicode="z" horiz-adv-x="557" d="M186 526q47 -4 91 -6l47 3l46 -3l46 4q35 -7 92 -11l10 -45l-13 -94q-25 -33 -55 -62l-45 -47q-31 -28 -73 -59l-29 -32l53 -5l53 6l51 -6l54 7v0l8 -56q0 -63 -8 -108h-1q-53 0 -81 -9l-13 -3q-44 0 -94 6l-46 -3q-50 5 -142 5l-47 -7q-44 6 -44 7l-11 105q7 53 10 53 q37 30 45 46q12 20 46 47q38 29 55 53l39 38h-1l-162 -1h-17q-4 0 -12 60v48q0 8 13 60l41 5l9 -1h35z" />
<glyph unicode="{" horiz-adv-x="360" d="M259 732q43 -9 43 -11l9 -42l-5 -45l1 -11v-35l-2 -2h-29q-40 -13 -40 -18l-16 -39q6 -31 6 -118v-8q-8 -58 -12 -58l-32 -33l-41 -17v-1q0 -1 48 -21q29 -45 29 -53q11 -36 11 -58l1 -27q-5 -40 -7 -86l9 -45q37 -10 72 -13l1 -1v-1q0 -45 7 -90q-7 -42 -9 -42l-44 -13 l-48 16l-44 1q-8 0 -54 18q-31 41 -33 46q-16 51 -16 74l-2 25l4 42l-6 43l6 43q-11 38 -16 49q-47 18 -47 20q-5 42 -5 78v9q4 52 8 52q42 14 46 18l12 50l-1 39l4 46l-4 43q0 30 16 104q36 40 38 40l43 18l53 -1z" />
<glyph unicode="|" horiz-adv-x="269" d="M136 750q46 -8 87 -19l-6 -42l1 -75v-43q0 -57 -3 -127l6 -48l-4 -48l6 -48l-4 -50l3 -54v-33l-5 -68v-32q0 -9 8 -52l-1 -43v-47l-10 -120v-32q-35 -16 -45 -16l-34 -3q-48 0 -62 10q-24 9 -24 11l-1 40l1 97q0 20 -3 53q3 44 3 71v21l4 53l-7 49l8 46q0 133 -7 195 q6 48 8 96q0 45 -9 97l7 48l-2 47l1 24v23q0 4 44 16z" />
<glyph unicode="}" horiz-adv-x="360" d="M103 732l45 -19l54 5q41 -17 49 -22q25 -45 42 -90q1 0 3 -55l-3 -43v-38l-4 -47q16 -50 20 -52q48 -10 48 -12q0 -35 4 -97q-4 -45 -6 -45l-46 -19l-20 -48l6 -43l-1 -44l4 -41q-11 -55 -23 -103q-28 -40 -31 -42q-43 -20 -51 -20q-29 0 -92 -13q-42 10 -44 12l-6 43 l1 40v1q5 47 8 47q32 0 46 9q20 8 20 12l15 39l-9 47v34q0 19 14 99l31 39q40 22 43 26q-48 15 -48 18l-30 36q-8 45 -8 52v19v20l2 46q0 19 -6 88q-70 12 -73 14l-8 45l10 88q40 14 44 14z" />
<glyph unicode="&#xad;" horiz-adv-x="336" d="M245 371q52 -7 52 -10l7 -50q-7 -69 -7 -105h-1h-47l-108 -7q-61 3 -104 8v43l-5 62q4 51 6 51l58 3q72 -1 96 -2z" />
<glyph unicode="&#xc7;" horiz-adv-x="696" d="M469 728q52 0 107 -16q39 -20 84 -49l28 -43v0q-65 -72 -83 -101q-31 -33 -56 -67q-28 37 -30 37q-40 12 -60 12l-75 2l-40 -26q-34 -33 -34 -36q-16 -42 -16 -54l-3 -35q5 -53 10 -53q15 -31 45 -71l44 -20l43 -5q50 4 61 12q28 11 28 16q19 29 22 31q30 -36 64 -71 q33 -35 65 -81l21 -25q-29 -35 -37 -41q-44 -27 -89 -45q-68 -10 -102 -10l-31 -35q62 -19 106 -37l12 -48q-2 -51 -7 -51q-28 -34 -30 -34q-37 -20 -41 -20l-41 -2l-45 1l-46 -3q-53 7 -53 12q-30 17 -32 21q18 30 29 63q2 7 3 7l41 -17q52 8 70 22l10 3q-1 2 -33 21 q-33 -12 -41 -12l-46 38q44 38 44 43l19 24q-58 7 -102 24q-42 17 -55 28l-64 47l-61 94q-22 35 -22 45q-12 28 -12 77q0 66 -1 104q7 56 18 83q23 64 43 85q36 53 48 63q42 34 50 34l73 41q51 3 75 10q19 6 24 6l51 -8z" />
<glyph unicode="&#xd6;" horiz-adv-x="855" d="M304 957l52 -4q39 -39 39 -41l11 -51l-13 -53q-38 -34 -41 -34l-48 -6q-54 7 -54 10q-33 34 -33 36l-10 47q8 52 10 52l38 32zM555 957l53 -4q40 -40 40 -44l9 -48q-11 -56 -16 -56l-36 -31l-50 -6q-54 7 -54 10q-33 34 -33 38l-10 45q8 53 11 53q37 32 39 32zM480 728 q65 -5 112 -21q52 -18 90 -49q71 -65 72 -71q33 -50 54 -119q4 0 12 -163q-5 -59 -16 -84q-10 -34 -31 -75q-23 -43 -31 -45q-34 -34 -73 -58q-40 -34 -51 -34q-67 -26 -139 -26l-50 2v1q-44 -6 -54 -6q-55 6 -77 15q-20 8 -75 22q-40 24 -85 55q-30 43 -63 85 q-21 45 -21 52l-13 95l1 5l1 47l-6 52q4 57 11 70q9 35 28 70q27 50 35 57q32 34 36 34q37 19 80 51q53 13 82 26q10 8 63 8l4 1l51 -5zM380 506q-47 -25 -49 -33q-27 -31 -27 -43q-13 -28 -13 -60q-1 0 -1 -14q4 -55 7 -55q16 -41 26 -51q16 -26 27 -29q29 -19 37 -19 l40 -5q51 12 60 20q30 13 33 22q28 31 28 41q16 34 16 66q2 0 3 58q-22 51 -29 54q-18 28 -33 33l-34 15l-59 1z" />
<glyph unicode="&#xdc;" horiz-adv-x="775" d="M267 957q51 -7 51 -9q32 -40 32 -44l13 -43q-8 -55 -10 -55q-35 -35 -38 -35l-49 -10q-52 8 -56 10l-37 38l-11 52q14 56 19 56q31 34 34 34zM517 957q53 -7 53 -9q31 -40 31 -42l13 -45q-7 -54 -9 -54q-35 -36 -39 -36l-50 -9q-56 6 -56 10q-36 36 -36 38l-11 51l16 52 q35 38 37 38zM159 716h40l60 -10q33 -2 40 -4l-10 -49l6 -51l-3 -49l5 -51q-5 -96 -5 -123v-23q11 -112 14 -112l28 -42l54 -7q57 6 57 8q26 45 26 50q6 48 17 103v39l-6 59l2 105v35l2 59l-2 45v3q35 10 146 10q15 3 43 4q41 -10 41 -12q15 -74 15 -142q-2 -57 -6 -96 q3 -33 3 -52v-37l-9 -122q0 -57 -29 -130q-25 -38 -64 -82q-42 -29 -47 -29q-38 -10 -89 -29q-57 -4 -102 -4q-59 0 -126 14q-75 19 -77 22q-28 21 -73 67q-27 48 -27 53q-12 36 -23 89l2 52l-11 45l5 48h1l-1 1v1q-9 95 -9 137l2 52l-2 49q0 44 10 89q53 17 102 17z" />
<glyph unicode="&#xe7;" horiz-adv-x="526" d="M394 546q48 -16 101 -27l34 -40q-20 -39 -35 -56q-20 -22 -52 -73l-25 -31q-30 23 -33 23l-34 6q-52 -13 -52 -18q-30 -21 -31 -23l-5 -47q7 -48 10 -48q33 -29 35 -29l43 -7l38 1l29 27q34 -43 68 -82q33 -52 48 -81q-44 -32 -54 -32q-24 -11 -73 -25h-36q-12 0 -20 -12 l-20 -18q15 -6 65 -10q37 -34 37 -37l14 -39q-10 -47 -17 -53q-17 -30 -24 -30l-30 -20l-46 3q-64 -8 -89 -8q-53 7 -53 11l-31 22v1q17 36 31 73h1q3 0 40 -19q53 6 53 11l28 12v1l-35 19l-40 -10l-41 35v1q40 37 42 44l19 30q-54 12 -99 37q-33 19 -37 27l-56 66l-26 91 l6 48l-7 48q29 90 33 94q21 33 56 76q36 28 38 28q89 32 118 33l15 4l22 -1h18z" />
<glyph unicode="&#xf6;" horiz-adv-x="664" d="M209 777q53 -17 60 -26q28 -21 30 -26l8 -49q-16 -52 -24 -58q-22 -30 -27 -30l-48 -10q-50 16 -61 24q-32 21 -32 24l-7 51l16 51q34 36 37 36zM459 777q50 -17 57 -25q32 -22 33 -27l8 -48q-18 -59 -25 -59q-16 -24 -25 -30l-49 -10q-50 16 -56 21l-37 25l-7 53 q13 46 16 51q34 36 37 36zM331 537q51 0 105 -5q46 -17 52 -21l79 -58q27 -42 32 -53q16 -33 29 -86l4 -53q0 -57 -10 -85q0 -11 -31 -71q-22 -35 -26 -39l-81 -62q-102 -18 -153 -24q-49 7 -104 7q-51 20 -54 25q-35 27 -79 57q-29 41 -31 48q-12 51 -30 89v4q7 148 22 173 q10 35 22 41q23 25 58 67l45 27q99 19 151 19zM250 262q2 -48 4 -48l37 -27l41 -11q48 4 48 5q26 38 26 42l8 40q-2 47 -6 47q-37 26 -42 26l-36 11q-46 -6 -46 -8q-29 -33 -29 -36z" />
<glyph unicode="&#xfc;" horiz-adv-x="663" d="M205 778q53 -5 53 -7l32 -39q13 -45 13 -49q-10 -52 -13 -52q-40 -32 -45 -32l-42 -15q-53 11 -53 14l-35 36l-12 51q16 54 20 54l32 33zM456 778q52 -5 52 -7q34 -38 34 -42l13 -46q-10 -47 -12 -51q-42 -33 -47 -33q-33 -14 -41 -15q-54 11 -54 14q-35 35 -35 38 l-12 49q16 55 21 55q29 32 31 32zM139 537l51 -7h15l28 1l50 -5q-7 -85 -7 -106v-70l7 -116l7 -34l38 -24v0q39 21 45 26l11 49l-5 48v44l-2 54v30l7 59v37q0 4 44 13h29q45 0 151 -11l12 -104l-6 -62v-39q0 -9 7 -53l-1 -63v-2l1 -43l-11 -51l5 -51q-9 -56 -12 -56l-39 -3 l-45 2l-45 -4q-43 0 -93 8l-1 1l5 54v1h-1q-20 -29 -35 -40q-27 -20 -30 -20q-26 -8 -107 -11l-25 -2q-85 37 -91 41q-31 45 -37 71q-5 0 -13 64l-3 45l2 55q0 61 -9 95v10q7 46 13 158q36 11 75 11h15z" />
<glyph unicode="&#x2000;" horiz-adv-x="478" />
<glyph unicode="&#x2001;" horiz-adv-x="957" />
<glyph unicode="&#x2002;" horiz-adv-x="478" />
<glyph unicode="&#x2003;" horiz-adv-x="957" />
<glyph unicode="&#x2004;" horiz-adv-x="319" />
<glyph unicode="&#x2005;" horiz-adv-x="239" />
<glyph unicode="&#x2006;" horiz-adv-x="159" />
<glyph unicode="&#x2007;" horiz-adv-x="159" />
<glyph unicode="&#x2008;" horiz-adv-x="119" />
<glyph unicode="&#x2009;" horiz-adv-x="191" />
<glyph unicode="&#x200a;" horiz-adv-x="53" />
<glyph unicode="&#x2010;" horiz-adv-x="336" d="M245 371q52 -7 52 -10l7 -50q-7 -69 -7 -105h-1h-47l-108 -7q-61 3 -104 8v43l-5 62q4 51 6 51l58 3q72 -1 96 -2z" />
<glyph unicode="&#x2011;" horiz-adv-x="336" d="M245 371q52 -7 52 -10l7 -50q-7 -69 -7 -105h-1h-47l-108 -7q-61 3 -104 8v43l-5 62q4 51 6 51l58 3q72 -1 96 -2z" />
<glyph unicode="&#x2012;" horiz-adv-x="336" d="M245 371q52 -7 52 -10l7 -50q-7 -69 -7 -105h-1h-47l-108 -7q-61 3 -104 8v43l-5 62q4 51 6 51l58 3q72 -1 96 -2z" />
<glyph unicode="&#x2013;" horiz-adv-x="564" d="M424 371q95 -7 95 -10l13 -50q-13 -69 -13 -105h-2h-86l-199 -7q-112 3 -191 8v43l-9 62q7 51 11 51l107 3q132 -1 176 -2z" />
<glyph unicode="&#x2014;" horiz-adv-x="1064" d="M815 371q191 -7 191 -10l26 -50q-26 -69 -26 -105h-3h-173l-397 -7q-225 3 -383 8v43l-18 62q15 51 22 51l213 3q265 -1 353 -2z" />
<glyph unicode="&#x202f;" horiz-adv-x="191" />
<glyph unicode="&#x205f;" horiz-adv-x="239" />
<glyph unicode="&#xe000;" horiz-adv-x="525" d="M0 525h525v-525h-525v525z" />
</font>
</defs>
</svg>
