<?xml version="1.0" standalone="no"?>
<!DOCTYPE svg PUBLIC "-//W3C//DTD SVG 1.1//EN" "http://www.w3.org/Graphics/SVG/1.1/DTD/svg11.dtd" >
<svg xmlns="http://www.w3.org/2000/svg">
<metadata></metadata>
<defs>
<font id="latiniablackregular" horiz-adv-x="278" >
<font-face units-per-em="1000" ascent="800" descent="-200" />
<missing-glyph horiz-adv-x="500" />
<glyph horiz-adv-x="1000" />
<glyph horiz-adv-x="1000" />
<glyph unicode="&#xd;" horiz-adv-x="1000" />
<glyph d="M139 624q69 0 119 33q49 33 56 115h-73q-5 -38 -35 -51q-29 -13 -67 -13t-68 13q-29 13 -34 51h-73q7 -82 57 -115q48 -33 118 -33z" />
<glyph d="M63 746v-122h152v122h-152z" />
<glyph d="M139 832q-46 0 -79 -33t-33 -80t33 -80t79 -33q47 0 80 33t33 80t-33 80t-80 33zM139 765q19 0 33 -14q13 -15 13 -32q0 -19 -14 -33q-15 -13 -32 -13q-18 0 -32 14q-13 13 -13 32q0 20 13 33t32 13z" />
<glyph unicode="&#xa;" d="M-46 624h122l156 148h-180zM164 624h122l156 148h-180z" />
<glyph d="M217 9q-46 -21 -87 -62q-39 -41 -39 -89q0 -47 29 -68q29 -20 81 -20q17 0 31.5 1.5t26.5 3.5t24.5 5.5t25.5 7.5l-12 53q-8 -4 -16 -7.5t-17 -5.5q-20 -5 -33 -5q-18 0 -32 14q-12 13 -12 44q0 36 34 71q34 34 69 57h-73z" />
<glyph d="M-51 772l113 -148h154l112 148h-130l-59 -80l-60 80h-130z" />
<glyph horiz-adv-x="167" d="M-167 -25h101l398 766h-100z" />
<glyph horiz-adv-x="667" />
<glyph horiz-adv-x="667" />
<glyph d="M461 529l-187 -90v161h98v116h-368v-116h78v-254l-66 -32v-102l66 32v-128h-66v-116h576v270h-161v-154h-157v221l187 90v102z" />
<glyph d="M24 329v-100l56 48v-167h-56v-110h293v110h-51v327l51 44v100l-51 -44v204h-242v-110h56v-254z" />
<glyph d="M513 116h-267l385 458v142h-590v-238h14l100 122h252l-377 -457v-143h607v244h-24zM146 914l113 -148h154l112 148h-130l-59 -80l-60 80h-130z" />
<glyph d="M45 545v-163h8l100 67h170l-284 -316v-133h479v172h-13l-100 -70h-180l285 314v129h-465zM96 772l113 -148h154l112 148h-130l-59 -80l-60 80h-130z" />
<glyph unicode=" " />
<glyph unicode="!" horiz-adv-x="390" d="M108 168v-168h174v168h-174zM298 716h-205l34 -486h136z" />
<glyph unicode="&#x22;" horiz-adv-x="556" d="M460 716h-136v-306h136v306zM232 716h-136v-306h136v306z" />
<glyph unicode="#" horiz-adv-x="556" d="M34 299v-96h75l-27 -203h105l27 203h87l-27 -203h105l27 203h92v96h-79l16 118h87v96h-74l27 203h-105l-27 -203h-87l27 203h-105l-27 -203h-93v-96h80l-16 -118h-88zM227 299l16 118h87l-16 -118h-87z" />
<glyph unicode="$" horiz-adv-x="556" d="M553 212q0 63 -27.5 103t-68.5 66t-88.5 43t-88.5 33t-68.5 36t-27.5 52q0 19 8 32.5t21 21t29 11t33 3.5q29 0 54.5 -10t45 -27t30.5 -40t11 -50h129l-1 230h-21l-100 -60q-4 10 -15 18.5t-25 15.5t-28 12t-24 9h-1v101h-130v-85q-93 -10 -144 -61.5t-51 -146.5 q0 -67 27 -108t67 -65.5t87.5 -39.5t87.5 -29.5t67 -35.5t27 -58q0 -38 -25 -58.5t-61 -20.5q-34 0 -60.5 11t-44.5 30.5t-27 45.5t-9 57h-127v-248h17l100 63q9 -16 31.5 -28.5t37.5 -22.5v-108h130v84q110 5 166.5 58t56.5 166z" />
<glyph unicode="%" horiz-adv-x="852" d="M609 740l-476 -765h96l475 765h-95zM216 728q-80 0 -122 -49q-42 -48 -42 -138t42 -139t122 -49t122 49t42 139q0 89 -43 138t-121 49zM215 655q33 0 44 -29q11 -30 11 -86q0 -53 -12 -81t-43 -28q-30 0 -42 28t-12 81q0 56 12 86q12 29 42 29zM635 365q-80 0 -122 -49 q-42 -50 -42 -140t42 -139t122 -49t122 49t42 139t-43 139q-44 50 -121 50zM634 292q33 0 44 -29q11 -30 11 -88q0 -53 -12 -81t-43 -28q-30 0 -42 28t-12 81q0 57 12 87t42 30z" />
<glyph unicode="&#x26;" horiz-adv-x="778" d="M674 328l67 90v12h-251v-12l51 -90q-6 -42 -23 -75q-1 -1 -3 -5l-118 131q36 25 69 63q45 49 45 110q0 89 -56 133q-55 43 -139 43q-96 0 -157 -43t-61 -119q0 -62 30 -105q11 -17 23 -31.5t23 -28.5q-60 -28 -94 -72q-42 -56 -42 -141t64 -143q66 -58 194 -58 q90 0 149 28q12 5 24 12.5t23 15.5l38 -43h211v12l-101 98l-38 42q10 14 18.5 28t16.5 28q30 56 37 120zM299 487q-12 13 -21.5 24t-16.5 21q-17 26 -17 49q0 25 19 38q21 13 43 13q26 0 42 -14q15 -14 15 -45q0 -30 -31 -58q-8 -8 -16.5 -14.5t-16.5 -13.5zM273 289 l138 -155q-5 -4 -9.5 -7.5t-8.5 -5.5q-38 -23 -87 -23q-34 0 -62 20q-27 19 -27 69q0 45 27 75q14 15 29 27z" />
<glyph unicode="'" d="M207 716h-136v-306h136v306z" />
<glyph unicode="(" horiz-adv-x="333" d="M213 294q0 153 36 269q34 115 75 178h-134q-36 -53 -84 -183q-48 -131 -48 -264q0 -134 48 -264q48 -131 84 -183h134q-39 61 -76 179q-35 117 -35 268z" />
<glyph unicode=")" horiz-adv-x="333" d="M120 294q0 -155 -37 -269q-36 -114 -75 -178h134q35 51 85 183q48 130 48 264q0 135 -49 264q-48 130 -84 183h-134q38 -61 76 -179q36 -116 36 -268z" />
<glyph unicode="*" horiz-adv-x="556" d="M279 459l54 -109l104 75l-87 85l120 18l-39 121l-108 -55l20 119h-128l20 -119l-108 55l-39 -121l120 -18l-87 -85l104 -75z" />
<glyph unicode="+" horiz-adv-x="600" d="M235 320h-187v-130h187v-189h130v189h187v130h-187v186h-130v-186z" />
<glyph unicode="," d="M52 168v-168h59l-59 -138h124l50 138v168h-174z" />
<glyph unicode="-" horiz-adv-x="333" d="M40 355v-131h253v131h-253z" />
<glyph unicode="." d="M52 168v-168h174v168h-174z" />
<glyph unicode="/" horiz-adv-x="389" d="M-2 -12h130l262 740h-130z" />
<glyph unicode="0" horiz-adv-x="556" d="M531 357q0 178 -62 275q-62 96 -191 96q-131 0 -192 -96q-62 -97 -62 -275q0 -177 62 -274q61 -96 191 -96t192 96q62 97 62 274zM351 357q0 -120 -14 -188q-14 -66 -59 -66q-48 0 -61 66q-13 64 -13 188q0 125 13 189q13 66 60 66t61 -66q13 -64 13 -189z" />
<glyph unicode="1" horiz-adv-x="556" d="M421 110v606h-177q-21 -17 -51 -39.5t-58 -42.5t-47.5 -34l-19.5 -14v-24l161 43v-495l-89 -97v-13h356v13z" />
<glyph unicode="2" horiz-adv-x="556" d="M532 0v206h-14l-100 -90h-191q34 36 71 72.5t72.5 75t67.5 78.5t58 83q27 46 27 104q0 54 -20 91.5t-53 61.5t-77 35t-92 11q-56 0 -103.5 -13.5t-81.5 -41.5t-53 -71.5t-19 -103.5h13q0 17 14.5 37.5t38 38t53 28.5t58.5 10q22 -1 44.5 -7.5t41.5 -16.5t31 -23t12 -28 q0 -26 -11 -52t-27.5 -50t-36.5 -46t-37 -40l-191 -199v-150h505z" />
<glyph unicode="3" horiz-adv-x="556" d="M41 506q0 17 15 36.5t38.5 35.5t52.5 26t58 8q22 -2 45.5 -9t42.5 -18.5t31 -26t12 -29.5q0 -57 -30 -83t-85 -26v-110q28 0 51.5 -4.5t39.5 -16t25 -31.5t9 -52q0 -17 -14 -35t-35.5 -32.5t-49 -24t-54.5 -10.5t-55 7.5t-51.5 22.5t-38 31.5t-14.5 34.5h-16 q0 -58 20.5 -98.5t55.5 -66t81.5 -37t98.5 -11.5q51 0 97.5 11t82 35.5t56.5 64.5t21 97q0 80 -40 124t-120 49q69 8 110 46t41 111q0 55 -19.5 94t-52.5 63t-77.5 35t-94.5 11q-56 0 -102 -12.5t-79 -39t-52 -68.5t-20 -102h16z" />
<glyph unicode="4" horiz-adv-x="556" d="M263 716l-249 -391v-141h294v-74l-87 -98v-12h339v12l-78 98v74h74v110h-74v422h-219zM308 564v-270h-164z" />
<glyph unicode="5" horiz-adv-x="556" d="M44 716v-433h173q1 29 16.5 50t47.5 21q23 0 36 -12.5t19.5 -31t8 -40t1.5 -38.5t-11.5 -38t-30.5 -40t-44 -33t-52 -17q-26 -3 -54.5 4t-52 20t-38.5 29t-15 31h-15q0 -54 20.5 -92.5t54.5 -62.5t78.5 -35t92.5 -11q58 0 105 17.5t80 49.5t51 78.5t18 104.5 q0 46 -10 88.5t-32.5 74.5t-59 51t-88.5 19q-38 0 -69.5 -11t-55.5 -41v176l283 108v14h-38h-419z" />
<glyph unicode="6" horiz-adv-x="556" d="M533 232q0 49 -11 94t-35.5 78.5t-63.5 53.5t-94 20q-28 0 -48.5 -7.5t-36.5 -21.5t-27.5 -33.5t-20.5 -43.5q1 24 8 63.5t23.5 77.5t43.5 68.5t68 36.5q28 4 59.5 -2t57.5 -18t43.5 -27.5t17.5 -28.5h10q-2 48 -19.5 83t-47.5 58t-69.5 34t-84.5 11q-88 0 -143 -34.5 t-86 -90t-42 -126.5t-11 -143q0 -67 11 -129.5t40 -111t79.5 -77.5t130.5 -29q54 0 99.5 17.5t78.5 50t51.5 77.5t18.5 100zM277 98q-26 0 -41 13.5t-23 33.5t-10.5 43t-2.5 42q0 20 3 43t11.5 43t24 33.5t41.5 13.5q25 0 39.5 -13.5t22 -33.5t9.5 -42.5t2 -41.5 q0 -18 -3 -41t-11 -44t-23 -35t-39 -14z" />
<glyph unicode="7" horiz-adv-x="556" d="M535 716h-513v-232h8l100 116h223q-40 -85 -72.5 -157.5t-58.5 -135.5q-26 -62 -56 -138t-64 -169h200q31 85 58 158t52 136q24 63 54.5 135t68.5 155v132z" />
<glyph unicode="8" horiz-adv-x="556" d="M279 323q41 0 60 -31q19 -33 19 -88q0 -50 -21 -78q-19 -28 -59 -28q-36 0 -58 30q-22 29 -22 78q0 54 21 86q21 31 60 31zM279 619q32 0 52 -24q18 -24 18 -66q0 -46 -19 -71q-18 -25 -52 -25q-32 0 -52 26q-18 25 -18 70q0 41 19 66q19 24 52 24zM184 374 q-74 -9 -118 -60q-43 -50 -43 -132q0 -86 72 -141q72 -54 183 -54q114 0 185 54q70 54 70 146q0 74 -44 127q-43 51 -115 59q78 10 114 53q35 41 35 112q0 91 -65 141q-66 49 -177 49q-117 0 -183 -51q-65 -51 -65 -148q0 -63 39 -106q37 -43 112 -49z" />
<glyph unicode="9" horiz-adv-x="556" d="M24 483q0 -50 11 -94t35.5 -78t63.5 -53.5t94 -19.5q28 0 48.5 8t36.5 22.5t27.5 34t20.5 43.5q-1 -16 -5 -40.5t-12.5 -51.5t-21.5 -54.5t-31 -49.5t-41 -36.5t-52 -15.5q-26 -1 -53.5 5.5t-50.5 18t-38 25t-15 27.5h-11q1 -48 19 -83.5t48 -58t69.5 -33.5t84.5 -11 q88 0 143 34.5t86 90t42 126t11 142.5q0 67 -11 129.5t-40 111t-80 77.5t-130 29q-55 0 -100.5 -17.5t-78.5 -50t-51 -77.5t-18 -100zM280 617q24 0 39.5 -13.5t23.5 -34t11 -43.5t3 -41q0 -20 -3 -43t-11.5 -43t-24 -33t-41.5 -13q-25 0 -39.5 13.5t-22 33t-9.5 42t-2 41.5 q0 18 3 41t11 44t23 35t39 14z" />
<glyph unicode=":" d="M52 531v-168h174v168h-174zM52 168v-168h174v168h-174z" />
<glyph unicode=";" d="M52 531v-168h174v168h-174zM52 168v-168h59l-59 -138h124l50 138v168h-174z" />
<glyph unicode="&#x3c;" horiz-adv-x="600" d="M234 253l319 131v130l-506 -214v-94l506 -214v130z" />
<glyph unicode="=" horiz-adv-x="600" d="M47 296h507v130h-507v-130zM47 80h507v130h-507v-130z" />
<glyph unicode="&#x3e;" horiz-adv-x="600" d="M47 122v-130l506 214v94l-506 214v-130l319 -131z" />
<glyph unicode="?" horiz-adv-x="500" d="M245 728q-119 0 -174 -57q-54 -57 -57 -143h174q0 45 14 68q13 22 41 22q24 0 35 -20t11 -52q0 -33 -15 -58q-7 -12 -17 -25.5t-23 -27.5q-50 -44 -69 -82q-19 -40 -19 -94v-39h160v15q0 26 29 61q28 34 78 78q35 41 48 80q14 42 14 80q0 81 -58 138q-58 56 -172 56z M140 168v-168h174v168h-174z" />
<glyph unicode="@" horiz-adv-x="800" d="M418 654q-163 0 -275 -112q-113 -111 -113 -258q0 -150 111 -262q110 -113 285 -113q105 0 193 56q88 58 115 113h-80q-28 -34 -93 -62q-67 -28 -146 -28q-112 0 -204 83q-90 82 -90 209q0 125 88 210t209 85q116 0 196 -66q78 -68 78 -156q0 -84 -41 -146t-78 -62 q-6 0 -19 11q-7 7 -7 20q0 5 1 10.5t3 11.5l72 268h-80l-14 -53q-13 37 -49 56q-36 17 -67 17q-102 0 -163 -82q-61 -80 -61 -176q0 -81 45 -121q45 -42 105 -42q40 0 73 18q31 18 47 37q7 -33 26 -45q16 -12 35 -12q89 0 171 85q80 86 80 200q0 124 -100 215 q-98 91 -253 91zM416 403q39 0 60 -24q20 -26 20 -67q0 -38 -33 -99q-32 -62 -97 -62q-32 0 -58 20q-24 21 -24 68q0 56 39 110q37 54 93 54z" />
<glyph unicode="A" horiz-adv-x="799" d="M457 315h-151l76 256zM801 16l-73 100l-219 600h-222l-221 -600l-73 -100v-16h318v16l-77 100l30 89h235l29 -89l-74 -100v-16h347v16z" />
<glyph unicode="B" horiz-adv-x="667" d="M262 310h74q57 0 84 -24q27 -23 27 -78q0 -48 -30 -73q-28 -25 -82 -25h-73v200zM390 0q119 0 181 49q62 48 62 145q0 79 -43 123q-43 45 -122 49q72 7 113 53q39 45 39 113q0 94 -58 139q-57 45 -168 45h-378v-16l66 -100v-484l-66 -100v-16h374zM262 420v186h65 q57 0 83 -21q24 -20 24 -71q0 -50 -27 -72q-26 -22 -85 -22h-60z" />
<glyph unicode="C" horiz-adv-x="722" d="M235 346q0 124 36 195t111 71q56 0 94 -39q36 -37 39 -119h168v262h-34l-70 -71q-5 8 -19.5 15.5t-32.5 14.5t-35.5 14t-28.5 13q-46 26 -112 26q-148 0 -232 -99t-84 -267q0 -179 92 -277q90 -97 263 -97q127 0 209 65q81 65 89 184h-188q-2 -52 -30 -92 q-27 -41 -89 -41q-72 0 -110 65q-36 64 -36 177z" />
<glyph unicode="D" horiz-adv-x="778" d="M542 367q0 -132 -46 -191q-47 -60 -155 -60h-58v484h73q99 0 143 -56q43 -55 43 -177zM91 600v-484l-66 -100v-16h347q189 0 279 89q91 87 91 271q0 179 -88 267q-89 89 -266 89h-363v-16z" />
<glyph unicode="E" horiz-adv-x="667" d="M633 0v235h-18l-130 -119h-211v194h158l100 -75h16v261h-16l-100 -75h-158l3 179h208l130 -107h18v223h-617v-16l66 -100v-484l-66 -100v-16h617z" />
<glyph unicode="F" horiz-adv-x="667" d="M291 116v175h165l100 -85h16v270h-16l-101 -75l-164 1l3 198h204l130 -114h18v230h-613v-16l66 -100v-484l-66 -100v-16h349v16z" />
<glyph unicode="G" horiz-adv-x="778" d="M235 349q0 120 43 188q42 69 122 69q67 0 101 -43q17 -21 27 -43t10 -45v-13h168v254h-24l-130 -71q-23 35 -76 59t-131 24q-148 0 -229 -99q-81 -98 -81 -271q0 -176 85 -273t244 -97q67 0 119 20q51 19 75 69l140 -97h14v270l52 100v16h-294v-16l73 -100v-6 q0 -31 -12 -55.5t-32 -42.5q-39 -36 -103 -36q-81 0 -121 63q-40 62 -40 176z" />
<glyph unicode="H" horiz-adv-x="778" d="M82 600v-484l-66 -100v-16h330v16l-72 100v188h230v-188l-71 -100v-16h330v16l-67 100v484l67 100v16h-330v-16l71 -100v-181l-230 -1v182l72 100v16h-330v-16z" />
<glyph unicode="I" horiz-adv-x="390" d="M291 116v484l72 100v16h-336v-16l72 -100v-484l-72 -100v-16h336v16z" />
<glyph unicode="J" horiz-adv-x="556" d="M295 600v-374q0 -22 -4.5 -51t-25.5 -52q-23 -25 -58 -31.5t-69.5 4t-60.5 37t-30 67.5l-5 48h-21v-52q0 -104 57 -156q58 -53 172 -53q125 0 181 56t56 180v377l73 100v16h-356v-16z" />
<glyph unicode="K" horiz-adv-x="722" d="M262 116v249l189 -249l-55 -100v-16h374v16l-102 100l-218 269l195 215l103 100v16h-351v-16l49 -100l-184 -208v208l66 100v16h-312v-16l66 -100v-484l-66 -100v-16h312v16z" />
<glyph unicode="L" horiz-adv-x="611" d="M274 600l98 100v16h-356v-16l66 -100v-484l-66 -100v-16h576v270h-21l-100 -154h-197v484z" />
<glyph unicode="M" horiz-adv-x="944" d="M592 716l-119 -520l-116 520h-342v-16l60 -100v-484l-60 -100v-16h268v16l-66 100v488l155 -604h173l156 604v-488l-66 -100v-16h294v16l-60 100v484l60 100v16h-337z" />
<glyph unicode="N" horiz-adv-x="778" d="M556 168l-220 548h-320v-16l66 -100v-484l-66 -100v-16h293v16l-79 100v445l235 -561h239v600l59 100v16h-284v-16l77 -100v-432z" />
<glyph unicode="O" horiz-adv-x="778" d="M541 358q0 -123 -37 -188q-38 -66 -116 -66q-79 0 -116 66q-37 65 -37 188t37 188q37 66 116 66q78 0 116 -66q37 -65 37 -188zM741 358q0 170 -95 271q-93 99 -258 99t-259 -100q-94 -98 -94 -270q0 -170 95 -271q93 -99 258 -99q163 0 259 100q94 100 94 270z" />
<glyph unicode="P" horiz-adv-x="667" d="M277 378v222h54q58 0 84 -24q25 -22 25 -80q0 -65 -27 -92q-26 -26 -89 -26h-47zM277 262h104q124 0 189 56q63 54 63 170q0 105 -62 167q-61 61 -170 61h-376v-16l66 -100v-484l-66 -100v-16h342v16l-90 100v146z" />
<glyph unicode="Q" horiz-adv-x="778" d="M541 358q0 -123 -37 -188q-38 -66 -116 -66q-79 0 -116 66q-37 65 -37 188t37 188q37 66 116 66q78 0 116 -66q37 -65 37 -188zM763 14l-93 102q71 89 71 242q0 170 -95 271q-93 99 -258 99t-259 -100q-94 -98 -94 -270q0 -170 95 -271q93 -99 258 -99q67 0 105 12h270 v14z" />
<glyph unicode="R" horiz-adv-x="722" d="M283 291h39q39 0 55 -19q16 -17 25 -46l73 -226h227v16l-8 9.5t-19 24.5t-23 32.5t-19 33.5q-8 17 -14.5 39t-11 41t-7 32l-2.5 13q-6 21 -14 39t-21 32q-25 28 -106 34q87 10 132 55q42 43 42 125q0 96 -56 143t-167 47h-383v-16l66 -100v-484l-66 -100v-16h322v16 l-64 100v175zM283 401v199h63q50 0 75 -22q25 -21 25 -67q0 -56 -29 -83t-83 -27h-51z" />
<glyph unicode="S" horiz-adv-x="611" d="M591 212q0 65 -27.5 105t-69 65.5t-89.5 41t-89.5 31t-69 35.5t-27.5 54q0 20 8 33t21 21t29.5 11.5t33.5 3.5q29 0 55 -9.5t45 -27t30 -40.5t11 -50h124v230h-18l-100 -61q-9 22 -32.5 36t-52.5 22.5t-58.5 11.5t-50.5 3q-50 0 -92.5 -12.5t-73 -38.5t-47.5 -65.5 t-17 -92.5q0 -67 27 -107.5t68 -65.5t88 -39.5t88 -30t68 -36.5t27 -58q0 -19 -13 -33.5t-32.5 -24.5t-41.5 -15t-40 -5q-35 0 -58 11t-37 30t-20 45.5t-6 57.5h-124v-248h14l100 65q12 -24 36.5 -39t54 -23.5t60 -11.5t54.5 -3q57 0 102 12.5t76.5 39.5t48.5 69.5t17 102.5 z" />
<glyph unicode="T" horiz-adv-x="666" d="M429 116v484h79l130 -138h23v254h-656v-254h13l140 138h79v-484l-80 -100v-16h352v16z" />
<glyph unicode="U" horiz-adv-x="722" d="M491 248q0 -67 -31 -105q-32 -39 -86 -39q-59 0 -87 37q-27 36 -27 107v352l71 100v16h-315v-16l52 -100v-359q0 -121 81 -187q79 -66 219 -66q136 0 210 66q74 65 74 189v357l54 100v16h-284v-16l69 -100v-352z" />
<glyph unicode="V" horiz-adv-x="778" d="M466 700l76 -100l-141 -444l-137 444l79 100v16h-347v-16l68 -100l218 -600h209l225 600l65 100v16h-315v-16z" />
<glyph unicode="W" horiz-adv-x="1000" d="M791 600l-77 -451l-98 567h-200l-107 -569l-74 453l74 100v16h-313v-16l58 -100l136 -600h218l98 563l83 -563h218l139 600l58 100v16h-284v-16z" />
<glyph unicode="X" horiz-adv-x="778" d="M448 700l69 -100l-110 -150l-115 150l68 100v16h-380v-16l95 -100l198 -237l-209 -247l-98 -100v-16h358v16l-73 100l117 161l126 -161l-70 -100v-16h379v16l-92 100l-207 247l197 237l99 100v16h-352v-16z" />
<glyph unicode="Y" horiz-adv-x="722" d="M428 700l65 -100l-108 -198l-107 198l67 100v16h-360v-16l80 -100l208 -341v-143l-83 -100v-16h359v16l-84 100v142l208 342l81 100v16h-326v-16z" />
<glyph unicode="Z" horiz-adv-x="667" d="M513 116h-267l385 458v142h-590v-238h14l100 122h252l-377 -457v-143h607v244h-24z" />
<glyph unicode="[" horiz-adv-x="333" d="M219 631h79v110h-158l-75 -1v-892l75 -1h158v110h-79v674z" />
<glyph unicode="\" horiz-adv-x="389" d="M260 -12h130l-262 740h-130z" />
<glyph unicode="]" horiz-adv-x="333" d="M114 631v-674h-78v-110h158l74 1v892l-74 1h-158v-110h78z" />
<glyph unicode="^" horiz-adv-x="600" d="M190 351l110 250l110 -250h118l-175 365h-106l-175 -365h118z" />
<glyph unicode="_" horiz-adv-x="500" d="M500 -192v50h-500v-50h500z" />
<glyph unicode="`" d="M233 624l-99 148h-179l156 -148h122z" />
<glyph unicode="a" horiz-adv-x="611" d="M378 247q0 -26 -6 -53t-19 -49t-34 -36.5t-51 -14.5q-28 0 -44 17.5t-16 45.5t10.5 45.5t28 27.5t39.5 13.5t45 3.5h47zM386 83v-83h212v10l-49 100v238q0 61 -18.5 102t-51.5 65.5t-79.5 35t-101.5 10.5q-49 0 -90 -10t-71 -32.5t-48 -59t-21 -90.5h24q1 17 17 34 t38.5 31t48 22.5t46.5 8.5q40 0 66 -12t41 -31t20.5 -41t5.5 -42v-5q-35 1 -74 1q-38 0 -76 -4.5t-73 -15.5t-61 -32t-42 -54t-16 -81q0 -43 15 -74t41.5 -51.5t61 -30t73.5 -9.5q58 0 98.5 23t63.5 77z" />
<glyph unicode="b" horiz-adv-x="667" d="M266 469v272h-242v-20l56 -90v-521l-56 -100v-10h230v91q25 -58 68 -83q42 -24 110 -24q97 0 152 79t55 209q0 141 -50 215t-157 74q-60 0 -101 -22q-43 -23 -65 -70zM260 272q0 86 26 130q24 43 73 43q51 0 70 -43q18 -42 18 -129q0 -88 -19 -130q-19 -43 -70 -43 q-48 0 -74 47q-24 46 -24 125z" />
<glyph unicode="c" horiz-adv-x="556" d="M393 186q0 -17 -5 -33t-14 -29.5t-22.5 -21.5t-32.5 -8q-32 0 -47 20t-20 49t-4 61t1 55q0 22 2 51t10.5 54.5t26 43t48.5 17.5q24 0 39 -9t23.5 -24t11.5 -34t3 -39h134v206h-22l-100 -65q-17 47 -56 64t-85 17q-62 0 -108 -25t-77 -66t-46 -92.5t-15 -105.5 q0 -62 17.5 -115t51.5 -91.5t84 -60t115 -21.5q51 0 94 11t75 35t50.5 62.5t20.5 93.5h-153z" />
<glyph unicode="d" horiz-adv-x="667" d="M413 91v-91h230v20l-56 90v631h-247v-20l61 -90v-162q-19 47 -59 70q-37 22 -94 22q-112 0 -166 -71t-54 -218q0 -130 55 -209t151 -79q70 0 111 25q43 25 68 82zM407 280q0 -86 -25 -133q-24 -47 -73 -47q-51 0 -71 44q-18 43 -18 129q0 88 19 130q18 42 69 42t75 -47 t24 -118z" />
<glyph unicode="e" horiz-adv-x="556" d="M559 153h-24q0 -16 -18 -29t-44.5 -21.5t-57.5 -11t-58 2.5q-29 6 -54.5 18.5t-45 30t-32 39.5t-15.5 46h353q1 12 1.5 24.5t0.5 24.5q0 63 -16 115.5t-49 90t-82.5 58t-115.5 20.5q-65 0 -116 -21t-86.5 -59t-54 -91t-18.5 -116q0 -140 69.5 -215t211.5 -75 q44 0 85.5 8.5t75 28.5t57.5 52t33 80zM211 324q3 22 6.5 45t13 41t26 29.5t45.5 11.5q25 0 40.5 -12.5t24 -31.5t10.5 -41.5t2 -41.5h-168z" />
<glyph unicode="f" horiz-adv-x="389" d="M276 110v325h90v110h-90v33q0 31 16 44q17 14 52 14q11 0 19 -0.5t13 -0.5q4 -1 9 -2t12 -3v118l-31 5q-15 2 -36 3.5t-47 1.5q-88 0 -141 -44q-52 -42 -52 -124v-45h-66v-110h66v-325l-61 -93v-17h327v17z" />
<glyph unicode="g" horiz-adv-x="667" d="M406 100v-75q0 -45 -31.5 -68t-79.5 -23q-12 0 -45.5 1.5t-69.5 6t-64.5 13t-29.5 23.5h-26q6 -50 29 -79.5t56.5 -44.5t74 -19.5t82.5 -4.5q53 0 104 9t91 32t64.5 63t24.5 102v399l57 99v11h-228v-76q-27 48 -73.5 70t-100.5 22q-59 0 -99.5 -24.5t-66 -63.5t-37 -88.5 t-11.5 -100.5t11 -100.5t36 -88.5t66 -63t100 -24q25 0 50.5 5t47.5 16t39.5 28.5t28.5 42.5zM406 281q0 -25 -3.5 -52.5t-14.5 -51t-30.5 -38.5t-50.5 -15q-30 0 -47.5 17.5t-26.5 42.5t-11.5 53.5t-2.5 50.5q0 24 3 51.5t13 51t28.5 39t49.5 15.5q30 0 48 -17t28 -42.5 t13.5 -54t3.5 -50.5z" />
<glyph unicode="h" horiz-adv-x="667" d="M595 110v301q0 72 -43 111q-42 39 -118 39q-65 0 -106 -25q-42 -24 -62 -86v291h-242v-20l56 -90v-521l-56 -80v-30h293v20l-51 90v213q0 53 21 85q19 31 59 31q34 0 49 -22q14 -23 14 -66v-241l-49 -90v-20h287v30z" />
<glyph unicode="i" horiz-adv-x="333" d="M80 598h186v154h-186v-154zM266 110v435h-242v-20l56 -90v-325l-56 -90v-20h293v20z" />
<glyph unicode="j" horiz-adv-x="333" d="M77 598h186v154h-186v-154zM80 435v-528q0 -30 -11 -41t-35 -10l-29 2v-20q6 -1 14.5 -2t19.5 -3q22 -3 81 -3q82 0 114 31q32 32 32 129v555h-242v-20z" />
<glyph unicode="k" horiz-adv-x="667" d="M24 721l56 -90v-521l-56 -93v-17h279v20l-37 90v73l72 59l74 -132l-47 -90v-20h289v17l-56 93l-135 235l127 98l103 90v12h-346v-11l77 -85l-158 -131v423h-242v-20z" />
<glyph unicode="l" horiz-adv-x="333" d="M24 731l56 -100v-521l-56 -100v-10h293v10l-51 100v631h-242v-10z" />
<glyph unicode="m" horiz-adv-x="1000" d="M924 110v301q0 74 -45 112q-44 38 -125 38q-73 0 -113 -24q-41 -23 -60 -72q-6 40 -47 69q-41 27 -101 27q-67 0 -110 -25q-45 -25 -67 -86v95h-232v-10l56 -100v-325l-56 -97v-13h291v10l-49 100v220q0 52 21 81q19 28 63 28q29 0 44 -23t15 -64v-242l-49 -100v-10h281 v10l-46 100v220q0 52 20 81q19 28 59 28q30 0 48 -23q16 -24 16 -64v-242l-49 -100v-10h287v12z" />
<glyph unicode="n" horiz-adv-x="667" d="M595 110v301q0 72 -43 111q-42 39 -118 39q-67 0 -111 -25q-44 -24 -67 -86v95h-232v-10l56 -100v-325l-56 -96v-14h293v14l-51 96v213q0 53 21 85q19 31 59 31q34 0 49 -22q14 -23 14 -66v-241l-56 -96v-14h293v14z" />
<glyph unicode="o" horiz-adv-x="611" d="M583 272q0 132 -76 211q-75 78 -201 78q-127 0 -203 -79q-75 -78 -75 -210q0 -131 76 -210q75 -78 202 -78q126 0 202 79q75 78 75 209zM391 272q0 -79 -20 -127q-20 -45 -65 -45q-47 0 -66 46q-20 46 -20 126t20 128q19 45 66 45q46 0 65 -46q20 -46 20 -127z" />
<glyph unicode="p" horiz-adv-x="667" d="M266 78q19 -43 61 -69q40 -25 97 -25q110 0 163 75q52 75 52 213q0 136 -53 213q-52 76 -157 76q-63 0 -109 -29q-45 -29 -66 -81v94h-230v-10l56 -100v-487l-56 -100v-10h310v10l-68 100v130zM260 279q0 82 27 124q25 42 71 42q52 0 71 -43q18 -42 18 -130 q0 -86 -19 -128q-20 -44 -68 -44q-50 0 -75 45t-25 134z" />
<glyph unicode="q" horiz-adv-x="667" d="M401 79v-131l-69 -100v-10h311v10l-56 100v487l56 100v10h-230v-80q-16 41 -61 69q-44 27 -106 27q-105 0 -162 -74q-56 -74 -56 -217q0 -133 54 -209q53 -77 153 -77q56 0 103 24q45 22 63 71zM407 272q0 -80 -25 -126t-74 -46t-69 44q-19 46 -19 128q0 88 19 130 q19 43 69 43q51 0 75 -45q24 -44 24 -128z" />
<glyph unicode="r" horiz-adv-x="444" d="M266 110v115q0 75 35 122q34 46 96 46q15 0 27 -4q7 -2 12 -4t7 -4v172q-8 5 -20 6q-6 1 -12.5 1.5t-14.5 0.5q-48 0 -86 -29q-36 -27 -56 -104v117h-230v-10l56 -100v-325l-56 -97v-13h312v13z" />
<glyph unicode="s" horiz-adv-x="537" d="M505 155q0 58 -23 92.5t-58 55t-75.5 30.5t-75.5 19t-58 20.5t-23 35.5q0 15 10.5 25t25.5 16t32 8t29 2q45 0 74.5 -22.5t29.5 -65.5h103v194h-11l-80 -65q-15 18 -34.5 29.5t-41.5 18.5t-45.5 10t-45.5 3q-38 0 -76.5 -10.5t-69 -31.5t-49.5 -52t-19 -73q0 -54 23 -87 t58 -53.5t75 -32t75 -21.5t58 -23t23 -37q0 -15 -11 -25t-27 -16.5t-33 -9.5t-30 -3q-51 0 -80.5 26t-29.5 74h-104v-206h12l80 81q10 -23 29 -38t42 -24t48.5 -12.5t49.5 -3.5q39 0 78.5 11.5t72 33t52.5 53.5t20 74z" />
<glyph unicode="t" horiz-adv-x="444" d="M266 172v263h124v110h-124v144l-186 -65v-79h-63v-110h63v-273q0 -93 42.5 -135.5t135.5 -42.5q87 0 128.5 41t41.5 129q0 11 -0.5 20.5t-0.5 19.5h-12q0 -10 -4.5 -26.5t-13.5 -33t-22.5 -28.5t-31.5 -12q-32 0 -54.5 17t-22.5 61z" />
<glyph unicode="u" horiz-adv-x="630" d="M566 545h-245v-10l54 -100v-216q0 -50 -20 -78q-20 -27 -52 -27t-47 19q-14 20 -14 59v353h-242v-10l56 -100v-276q0 -89 38 -133q36 -42 120 -42q63 0 113 26q47 25 64 77v-87h227v10l-52 100v435z" />
<glyph unicode="v" horiz-adv-x="611" d="M571 435l58 96v14h-277v-10l48 -100l-82 -290l-78 290l49 100v10h-298v-14l53 -96l152 -435h221z" />
<glyph unicode="w" horiz-adv-x="944" d="M589 545h-211l-82 -419l-60 309l54 100v10h-302v-10l65 -100l117 -435h227l78 395l67 -395h228l119 435l65 100v10h-276v-10l52 -100l-61 -309z" />
<glyph unicode="x" horiz-adv-x="611" d="M557 435l88 100v10h-298v-10l51 -100l-76 -92l-78 92l50 100v10h-328v-10l92 -100l124 -152l-140 -173l-94 -100v-10h308v12l-52 98l88 109l84 -109l-51 -98v-12h337v10l-97 100l-136 173z" />
<glyph unicode="y" horiz-adv-x="611" d="M353 535l48 -100l-77 -239l-83 239l53 100v10h-284v-10q51 -136 106 -269t109 -268q-6 -11 -16 -34.5t-23 -47t-27 -41t-27 -17.5h-12h-6q-2 0 -5.5 1t-11.5 4v-25q9 -3 21 -4.5t25 -2.5t26 -1h22q40 0 68 9t48.5 27t36 44t30.5 61q60 142 118 282.5t120 281.5v10h-259 v-10z" />
<glyph unicode="z" horiz-adv-x="556" d="M45 545v-163h8l100 67h170l-284 -316v-133h479v172h-13l-100 -70h-180l285 314v129h-465z" />
<glyph unicode="{" horiz-adv-x="333" d="M34 239h6q34 0 43 -21q11 -24 11 -73v-162q0 -56 30 -96t109 -40h69v110h-14q-18 0 -29 14t-11 47v120q0 79 -24 112q-24 32 -81 44q57 12 81 45q24 31 24 111v120q0 34 11 48q10 13 29 13h14v110h-69q-79 0 -109 -40q-30 -41 -30 -96v-162q0 -50 -11 -74q-9 -20 -43 -20 h-6v-110z" />
<glyph unicode="|" horiz-adv-x="222" d="M46 -13h130v741h-130v-741z" />
<glyph unicode="}" horiz-adv-x="333" d="M302 349h-6q-37 0 -46 20q-10 21 -10 74v162q0 56 -31 96q-30 40 -109 40h-69v-110h14q19 0 30 -14t11 -47v-120q0 -80 25 -112t82 -44q-57 -12 -83 -45q-24 -32 -24 -111v-120q0 -35 -12 -48q-10 -13 -29 -13h-14v-110h69q79 0 110 40q30 40 30 96v162q0 52 10 73t46 21 h6v110z" />
<glyph unicode="~" horiz-adv-x="600" d="M192 232q33 0 101 -37t112 -37q46 0 78 26q30 24 50 66l-37 100q-11 -21 -36 -49q-24 -27 -51 -27q-32 0 -100 37t-113 37t-77 -26q-16 -12 -28.5 -29t-22.5 -37l37 -100q10 22 36 49q24 27 51 27z" />
<glyph unicode="&#xa0;" />
<glyph unicode="&#xa1;" horiz-adv-x="390" d="M282 392v168h-174v-168h174zM92 -156h205l-34 486h-136z" />
<glyph unicode="&#xa2;" horiz-adv-x="556" d="M359 -13q83 14 124 50q60 52 63 149h-153q-2 -37 -20 -64q-19 -28 -54 -28q-49 0 -70 49q-20 49 -20 136q0 78 20 123q18 43 67 43q38 0 58 -27q19 -25 19 -79h154v206h-12l-100 -65q-3 9 -15.5 19t-26 18.5t-24 14l-10.5 5.5v109h-117v-86q-88 -9 -143 -77 q-61 -78 -61 -211q0 -131 72 -210q49 -53 132 -72v-108h117v105z" />
<glyph unicode="&#xa3;" horiz-adv-x="556" d="M13 0h534v231h-18l-100 -115h-163v211h95v109h-95v102q0 16 12.5 31t32 25.5t42 17t42.5 6.5t45.5 -9t47.5 -23.5t37 -31.5t15 -32h14q0 58 -15.5 97.5t-44.5 63.5t-71.5 34.5t-97.5 10.5q-50 0 -94 -10t-78 -33t-53.5 -61t-19.5 -94v-94h-71v-109h71v-211l-67 -100v-16z " />
<glyph unicode="&#xa4;" horiz-adv-x="735" d="M11 251h74q21 -102 82 -166q91 -97 263 -97q127 0 209 65q81 65 89 184h-188q-2 -52 -30 -92q-27 -41 -89 -41q-73 0 -110 65q-19 35 -28 82h259v82h-267v13v21t1 20h266v81h-256q9 43 25 73q36 71 111 71q56 0 94 -39q36 -37 39 -119h168v262h-34l-70 -71 q-5 8 -19.5 15.5t-32.5 14.5t-35.5 14t-28.5 13q-46 26 -112 26q-148 0 -232 -99q-56 -67 -74 -161h-74v-81h64v-25v-15t1 -14h-65v-82z" />
<glyph unicode="&#xa5;" horiz-adv-x="556" d="M49 254v-72h154v-66l-64 -100v-16h278v16l-66 100v66h153v72h-153v4l22 48h131v72h-98l103 222l74 100v16h-263v-16l53 -100l-83 -198l-87 198l57 100v16h-287v-16l70 -100l104 -222h-98v-72h132l22 -47v-5h-154z" />
<glyph unicode="&#xa6;" d="M46 -13h130v276h-130v-276zM46 452h130v276h-130v-276z" />
<glyph unicode="&#xa7;" horiz-adv-x="556" d="M222 405q17 -5 42.5 -13.5t49.5 -21.5t41.5 -29.5t17.5 -38.5q0 -26 -9 -43.5t-30 -31.5q-17 5 -42.5 14t-49.5 21.5t-41.5 29.5t-17.5 38q0 26 9 43.5t30 31.5zM414 195q42 15 70.5 48.5t28.5 80.5q0 48 -21 78.5t-53 50.5t-69 32.5t-69 25t-53 28t-21 41.5 q0 10 13.5 18.5t31.5 14.5t36.5 9.5t28.5 3.5q16 0 42 -5.5t50 -15.5t41.5 -23t17.5 -28h18q0 48 -18 81t-48 53.5t-69 30t-81 9.5t-83 -9t-74 -29.5t-53.5 -53.5t-20.5 -82q0 -40 22.5 -72t60.5 -45q-42 -15 -70.5 -48.5t-28.5 -80.5q0 -48 21 -78.5t53 -50.5t69 -32.5 t69 -25t53 -28t21 -41.5q0 -11 -10.5 -19t-27 -14t-36 -9t-36.5 -4q-24 -1 -51 4.5t-49 15.5t-36.5 23.5t-14.5 28.5h-18q0 -48 18 -81t48 -53.5t69 -30t81 -9.5t83 9t74 29.5t53.5 53.5t20.5 82q0 40 -22.5 72t-60.5 45z" />
<glyph unicode="&#xa8;" d="M-45 746v-122h152v122h-152zM170 746v-122h152v122h-152z" />
<glyph unicode="&#xa9;" horiz-adv-x="800" d="M400 728q-153 0 -262 -109q-108 -108 -108 -262q0 -153 109 -262q108 -108 262 -108q153 0 262 109q108 108 108 262q0 153 -109 262q-108 108 -262 108zM401 644q116 0 199 -84q82 -85 82 -202t-83 -202q-83 -84 -198 -84q-117 0 -199 84q-82 85 -82 202t83 202 q82 84 198 84zM585 430q-9 65 -57 110q-49 43 -119 43q-99 0 -156 -63q-56 -62 -56 -161q0 -102 61 -163q60 -61 155 -61q72 0 119 47t57 110l-25 1h-58q-4 -35 -31 -59q-26 -21 -66 -21q-59 0 -94 44q-34 43 -34 103q0 61 33 103t93 42q42 0 70 -23q26 -23 29 -52h79z" />
<glyph unicode="&#xaa;" horiz-adv-x="397" d="M239 536q0 -16 -4.5 -32t-13.5 -28.5t-22.5 -20.5t-31.5 -8q-17 0 -28 10.5t-11 27.5t7.5 27.5t19 16.5t25.5 8t28 2q8 0 15.5 -1t15.5 -2zM244 441v-50h138v16l-32 50q0 60 1.5 110t-11 85.5t-47 55.5t-106.5 20q-30 0 -57 -5.5t-48.5 -18.5t-35 -35.5t-15.5 -56.5h13 q1 11 5.5 21.5t19.5 18.5t43.5 13t76.5 5q18 0 27.5 -7.5t14 -18.5t5.5 -25.5t1 -27.5q-31 1 -69.5 0.5t-72.5 -10.5t-57 -33t-23 -68q0 -27 10.5 -46t28 -30.5t39.5 -17t46 -5.5q36 0 62 13t43 47z" />
<glyph unicode="&#xab;" horiz-adv-x="500" d="M340 289l85 217h-123l-83 -217l82 -217h123zM155 289l85 217h-123l-83 -217l82 -217h123z" />
<glyph unicode="&#xac;" horiz-adv-x="600" d="M424 108h130v317h-507v-130h377v-187z" />
<glyph unicode="&#xad;" horiz-adv-x="333" d="M40 355v-131h253v131h-253z" />
<glyph unicode="&#xae;" horiz-adv-x="800" d="M400 728q-153 0 -262 -109q-108 -108 -108 -262q0 -153 109 -262q108 -108 262 -108q153 0 262 109q108 108 108 262q0 153 -109 262q-108 108 -262 108zM401 644q116 0 199 -84q82 -85 82 -202t-83 -202q-83 -84 -198 -84q-117 0 -199 84q-82 85 -82 202t83 202 q82 84 198 84zM333 387v114h80q34 0 53 -13q19 -12 19 -41q0 -28 -16 -44t-61 -16h-75zM333 157v170h49l104 -170h90l-107 175q41 1 72 29q29 27 29 80q0 54 -34 87q-35 33 -122 33h-165v-404h84z" />
<glyph unicode="&#xaf;" d="M-23 738v-84h324v84h-324z" />
<glyph unicode="&#xb0;" horiz-adv-x="400" d="M200 728q-60 0 -102 -42t-42 -102t42 -102t102 -42t102 42t42 102t-42 102t-102 42zM200 656q30 0 51 -21t21 -51t-21 -51t-51 -21t-51 21t-21 51t21 51t51 21z" />
<glyph unicode="&#xb1;" horiz-adv-x="600" d="M235 398h-188v-132h188v-107h131v107h188v132h-188v107h-131v-107zM47 0h507v131h-507v-131z" />
<glyph unicode="&#xb2;" d="M347 291v124h-100v-54h-98l132 132q23 23 42 53q18 27 18 62q0 56 -42 89q-43 31 -115 31q-82 0 -125 -37q-42 -36 -42 -101h117q0 30 10 49t33 19q18 0 29 -12q10 -10 10 -33q0 -30 -24 -58q-11 -14 -23 -28t-26 -27l-124 -119v-90h328z" />
<glyph unicode="&#xb3;" d="M138 595q0 36 11 50q10 13 31 13t30 -13q9 -14 9 -37q0 -32 -18 -48q-19 -17 -51 -17h-5v-66h10q36 0 53 -16q18 -15 18 -46q0 -29 -13 -45q-12 -17 -35 -17t-33 15q-11 16 -11 37v6h-121v-5q0 -30 12 -53t34 -39q45 -31 120 -31q79 0 123 33q44 32 44 92q0 46 -26 74 q-26 27 -78 30q48 4 74 30q24 24 24 64q0 58 -42 91q-42 31 -116 31q-81 0 -122 -34q-42 -34 -43 -99h121z" />
<glyph unicode="&#xb4;" d="M45 624h121l157 148h-180z" />
<glyph unicode="&#xb5;" horiz-adv-x="630" d="M566 545h-240v-10l54 -100v-216q0 -51 -21 -78t-53 -27q-34 0 -49 19t-15 59v353h-242v-10l56 -100v-598h185v149l40 -2q23 -2 42.5 5.5t36.5 20.5q31 25 36 77l-2 -87h224v10l-52 100v435z" />
<glyph unicode="&#xb6;" horiz-adv-x="620" d="M507 716h-274q-98 0 -144 -45q-47 -44 -47 -137q0 -91 43 -144q43 -54 113 -55v-419h121v747h67v-747h121v800z" />
<glyph unicode="&#xb7;" d="M52 367v-168h174v168h-174z" />
<glyph unicode="&#xb8;" d="M9 -205q12 -7 49 -16q34 -9 74 -9q55 0 90 27t35 71q0 35 -26 56q-26 20 -66 20l-39 -8l50 75h-56l-63 -103l20 -20l42 8q21 0 31 -10q11 -11 11 -29q0 -15 -13 -24q-14 -9 -35 -9q-31 0 -56 9q-27 8 -28 9z" />
<glyph unicode="&#xb9;" d="M270 357v364h-115q-13 -10 -27 -20l-28 -20t-29 -19.5t-31 -18.5v-105q14 9 27.5 18.5t26.5 19.5q13 9 25.5 20t25.5 22v-261h-58v-66h232v66h-49z" />
<glyph unicode="&#xba;" horiz-adv-x="367" d="M367 554q0 79 -49 127q-50 47 -131 47q-83 0 -132 -48q-49 -46 -49 -126q0 -78 49 -126q50 -47 132 -47q81 0 131 48q49 46 49 125zM242 554q0 -49 -13 -76q-14 -27 -42 -27q-30 0 -43 28q-13 26 -13 75q0 50 13 77t43 27q29 0 42 -28q13 -26 13 -76z" />
<glyph unicode="&#xbb;" horiz-adv-x="500" d="M343 289l-84 -217h124l81 217l-82 217h-124zM158 289l-84 -217h124l81 217l-82 217h-124z" />
<glyph unicode="&#xbc;" d="M239 357v364h-115q-13 -10 -27 -20l-28 -20t-29 -19.5t-31 -18.5v-105q14 9 27.5 18.5t26.5 19.5q13 9 25.5 20t25.5 22v-261h-58v-66h232v66h-49zM140 -25h101l398 766h-100zM637 430l-162 -235v-85h191v-44h-56v-66h201v66h-32v44h35v66h-35v254h-142zM666 338v-162 h-106z" />
<glyph unicode="&#xbd;" d="M242 357v364h-115q-13 -10 -27 -20l-28 -20t-29 -19.5t-31 -18.5v-105q14 9 27.5 18.5t26.5 19.5q13 9 25.5 20t25.5 22v-261h-58v-66h232v66h-49zM145 -25h101l398 766h-100zM815 0v124h-100v-54h-98l132 132q23 23 42 53q18 27 18 62q0 56 -42 89q-43 31 -115 31 q-82 0 -125 -37q-42 -36 -42 -101h117q0 30 10 49t33 19q18 0 29 -12q10 -10 10 -33q0 -30 -24 -58q-11 -14 -23 -28t-26 -27l-124 -119v-90h328z" />
<glyph unicode="&#xbe;" d="M125 595q0 36 11 50q10 13 31 13t30 -13q9 -14 9 -37q0 -32 -18 -48q-19 -17 -51 -17h-5v-66h10q36 0 53 -16q18 -15 18 -46q0 -29 -13 -45q-12 -17 -35 -17t-33 15q-11 16 -11 37v6h-121v-5q0 -30 12 -53t34 -39q45 -31 120 -31q79 0 123 33q44 32 44 92q0 46 -26 74 q-26 27 -78 30q48 4 74 30q24 24 24 64q0 58 -42 91q-42 31 -116 31q-81 0 -122 -34q-42 -34 -43 -99h121zM166 -25h101l398 766h-100zM635 430l-162 -235v-85h191v-44h-56v-66h201v66h-32v44h35v66h-35v254h-142zM664 338v-162h-106z" />
<glyph unicode="&#xbf;" horiz-adv-x="500" d="M255 -167q118 0 174 57q54 57 57 143h-174q0 -45 -14 -68q-13 -22 -41 -22q-24 0 -35 20t-11 52t15 58q7 12 17 25.5t23 27.5q50 44 69 82q19 40 19 94v39h-160v-15q0 -26 -29 -61t-78 -78q-35 -41 -48 -80q-14 -42 -14 -80q0 -81 58 -138q58 -56 172 -56zM360 393v168 h-174v-168h174z" />
<glyph unicode="&#xc0;" horiz-adv-x="778" d="M450 315h-151l76 256zM794 16l-73 100l-219 600h-222l-221 -600l-73 -100v-16h318v16l-77 100l30 89h235l29 -89l-74 -100v-16h347v16zM488 766l-99 148h-179l156 -148h122z" />
<glyph unicode="&#xc1;" horiz-adv-x="778" d="M450 315h-151l76 256zM794 16l-73 100l-219 600h-222l-221 -600l-73 -100v-16h318v16l-77 100l30 89h235l29 -89l-74 -100v-16h347v16zM300 766h121l157 148h-180z" />
<glyph unicode="&#xc2;" horiz-adv-x="778" d="M450 315h-151l76 256zM794 16l-73 100l-219 600h-222l-221 -600l-73 -100v-16h318v16l-77 100l30 89h235l29 -89l-74 -100v-16h347v16zM205 766h130l60 80l59 -80h130l-112 148h-154z" />
<glyph unicode="&#xc3;" horiz-adv-x="778" d="M450 315h-151l76 256zM794 16l-73 100l-219 600h-222l-221 -600l-73 -100v-16h318v16l-77 100l30 89h235l29 -89l-74 -100v-16h347v16zM584 902h-73q0 -18 -13 -32q-12 -14 -33 -14q-18 0 -66 23t-72 23q-53 0 -84 -39q-15 -19 -25 -43.5t-14 -53.5h73q0 18 13 32 q12 14 33 14q17 0 66 -23q48 -23 72 -23q50 0 83 39q31 39 40 97z" />
<glyph unicode="&#xc4;" horiz-adv-x="778" d="M450 315h-151l76 256zM794 16l-73 100l-219 600h-222l-221 -600l-73 -100v-16h318v16l-77 100l30 89h235l29 -89l-74 -100v-16h347v16zM210 888v-122h152v122h-152zM425 888v-122h152v122h-152z" />
<glyph unicode="&#xc5;" horiz-adv-x="778" d="M450 315h-151l76 256zM794 16l-73 100l-219 600h-222l-221 -600l-73 -100v-16h318v16l-77 100l30 89h235l29 -89l-74 -100v-16h347v16zM394 956q-46 0 -79 -33t-33 -80t33 -80t79 -33q47 0 80 33t33 80t-33 80t-80 33zM394 889q19 0 33 -14q13 -15 13 -32q0 -19 -14 -33 q-15 -13 -32 -13q-18 0 -32 14q-13 13 -13 32q0 20 13 33t32 13z" />
<glyph unicode="&#xc6;" horiz-adv-x="1000" d="M401 600l49 -276h-159zM467 214l15 -98l-73 -100v-16h560v235h-15l-133 -119h-168l-31 194h146l104 -75h12v261h-12l-104 -75h-167l-28 179h248l133 -107h15v223h-664l-249 -600l-50 -100v-16h277v16l-68 100l37 98h215z" />
<glyph unicode="&#xc7;" horiz-adv-x="722" d="M242 -205q12 -7 49 -16q34 -9 74 -9q55 0 90 27t35 71q0 35 -26 56q-26 20 -66 20l-39 -8l35 52q127 2 205 65q81 65 89 184h-188q-2 -52 -30 -92q-27 -41 -89 -41q-72 0 -110 65q-36 64 -36 177q0 124 36 195t111 71q56 0 94 -39q36 -37 39 -119h168v262h-34l-70 -71 q-5 8 -19.5 15.5t-32.5 14.5t-35.5 14t-28.5 13q-46 26 -112 26q-148 0 -232 -99t-84 -267q0 -179 92 -277q77 -83 213 -95l-50 -82l20 -20l42 8q21 0 31 -10q11 -11 11 -29q0 -15 -13 -24q-14 -9 -35 -9q-31 0 -56 9q-27 8 -28 9z" />
<glyph unicode="&#xc8;" horiz-adv-x="667" d="M633 0v235h-18l-130 -119h-211v194h158l100 -75h16v261h-16l-100 -75h-158l3 179h208l130 -107h18v223h-617v-16l66 -100v-484l-66 -100v-16h617zM435 766l-99 148h-179l156 -148h122z" />
<glyph unicode="&#xc9;" horiz-adv-x="667" d="M633 0v235h-18l-130 -119h-211v194h158l100 -75h16v261h-16l-100 -75h-158l3 179h208l130 -107h18v223h-617v-16l66 -100v-484l-66 -100v-16h617zM247 766h121l157 148h-180z" />
<glyph unicode="&#xca;" horiz-adv-x="667" d="M633 0v235h-18l-130 -119h-211v194h158l100 -75h16v261h-16l-100 -75h-158l3 179h208l130 -107h18v223h-617v-16l66 -100v-484l-66 -100v-16h617zM152 766h130l60 80l59 -80h130l-112 148h-154z" />
<glyph unicode="&#xcb;" horiz-adv-x="667" d="M633 0v235h-18l-130 -119h-211v194h158l100 -75h16v261h-16l-100 -75h-158l3 179h208l130 -107h18v223h-617v-16l66 -100v-484l-66 -100v-16h617zM157 888v-122h152v122h-152zM372 888v-122h152v122h-152z" />
<glyph unicode="&#xcc;" horiz-adv-x="390" d="M291 116v484l72 100v16h-336v-16l72 -100v-484l-72 -100v-16h336v16zM289 766l-99 148h-179l156 -148h122z" />
<glyph unicode="&#xcd;" horiz-adv-x="390" d="M291 116v484l72 100v16h-336v-16l72 -100v-484l-72 -100v-16h336v16zM101 766h121l157 148h-180z" />
<glyph unicode="&#xce;" horiz-adv-x="390" d="M291 116v484l72 100v16h-336v-16l72 -100v-484l-72 -100v-16h336v16zM6 766h130l60 80l59 -80h130l-112 148h-154z" />
<glyph unicode="&#xcf;" horiz-adv-x="390" d="M291 116v484l72 100v16h-336v-16l72 -100v-484l-72 -100v-16h336v16zM11 888v-122h152v122h-152zM226 888v-122h152v122h-152z" />
<glyph unicode="&#xd0;" d="M283 420v180h73q100 0 145 -56q43 -57 43 -177q0 -130 -47 -191q-47 -60 -156 -60h-58v202h134v102h-134zM25 420v-102h66v-202h-66v-116h348q188 0 280 89q91 88 91 271q0 178 -89 267q-87 89 -266 89h-364v-115h66v-181h-66z" />
<glyph unicode="&#xd1;" horiz-adv-x="778" d="M556 168l-220 548h-320v-16l66 -100v-484l-66 -100v-16h293v16l-79 100v445l235 -561h239v600l59 100v16h-284v-16l77 -100v-432zM579 902h-73q0 -18 -13 -32q-12 -14 -33 -14q-18 0 -66 23t-72 23q-53 0 -84 -39q-15 -19 -25 -43.5t-14 -53.5h73q0 18 13 32q12 14 33 14 q17 0 66 -23q48 -23 72 -23q50 0 83 39q31 39 40 97z" />
<glyph unicode="&#xd2;" horiz-adv-x="778" d="M541 358q0 -123 -37 -188q-38 -66 -116 -66q-79 0 -116 66q-37 65 -37 188t37 188q37 66 116 66q78 0 116 -66q37 -65 37 -188zM741 358q0 170 -95 271q-93 99 -258 99t-259 -100q-94 -98 -94 -270q0 -170 95 -271q93 -99 258 -99q163 0 259 100q94 100 94 270zM480 766 l-99 148h-179l156 -148h122z" />
<glyph unicode="&#xd3;" horiz-adv-x="778" d="M541 358q0 -123 -37 -188q-38 -66 -116 -66q-79 0 -116 66q-37 65 -37 188t37 188q37 66 116 66q78 0 116 -66q37 -65 37 -188zM741 358q0 170 -95 271q-93 99 -258 99t-259 -100q-94 -98 -94 -270q0 -170 95 -271q93 -99 258 -99q163 0 259 100q94 100 94 270zM292 766 h121l157 148h-180z" />
<glyph unicode="&#xd4;" horiz-adv-x="778" d="M541 358q0 -123 -37 -188q-38 -66 -116 -66q-79 0 -116 66q-37 65 -37 188t37 188q37 66 116 66q78 0 116 -66q37 -65 37 -188zM741 358q0 170 -95 271q-93 99 -258 99t-259 -100q-94 -98 -94 -270q0 -170 95 -271q93 -99 258 -99q163 0 259 100q94 100 94 270zM197 766 h130l60 80l59 -80h130l-112 148h-154z" />
<glyph unicode="&#xd5;" horiz-adv-x="778" d="M541 358q0 -123 -37 -188q-38 -66 -116 -66q-79 0 -116 66q-37 65 -37 188t37 188q37 66 116 66q78 0 116 -66q37 -65 37 -188zM741 358q0 170 -95 271q-93 99 -258 99t-259 -100q-94 -98 -94 -270q0 -170 95 -271q93 -99 258 -99q163 0 259 100q94 100 94 270zM576 902 h-73q0 -18 -13 -32q-12 -14 -33 -14q-18 0 -66 23t-72 23q-53 0 -84 -39q-15 -19 -25 -43.5t-14 -53.5h73q0 18 13 32q12 14 33 14q17 0 66 -23q48 -23 72 -23q50 0 83 39q31 39 40 97z" />
<glyph unicode="&#xd6;" horiz-adv-x="778" d="M541 358q0 -123 -37 -188q-38 -66 -116 -66q-79 0 -116 66q-37 65 -37 188t37 188q37 66 116 66q78 0 116 -66q37 -65 37 -188zM741 358q0 170 -95 271q-93 99 -258 99t-259 -100q-94 -98 -94 -270q0 -170 95 -271q93 -99 258 -99q163 0 259 100q94 100 94 270zM202 888 v-122h152v122h-152zM417 888v-122h152v122h-152z" />
<glyph unicode="&#xd7;" d="M221 253l-153 -153l82 -82l153 153l153 -153l82 82l-153 153l153 153l-82 82l-153 -153l-153 153l-82 -82z" />
<glyph unicode="&#xd8;" horiz-adv-x="778" d="M533 474q11 -42 11 -116q0 -121 -38 -188q-38 -66 -117 -66q-81 0 -118 66l-2 4zM246 239q-12 42 -12 119q0 121 38 188q37 66 117 66q79 0 117 -66q1 -1 1.5 -3t2.5 -4zM693 748l-78 -89q-83 69 -226 69q-166 0 -260 -100q-95 -100 -95 -270q0 -165 87 -262l-79 -89 l45 -40l78 88q82 -67 224 -67q166 0 260 100q95 100 95 270q0 165 -85 260l79 90z" />
<glyph unicode="&#xd9;" horiz-adv-x="722" d="M491 248q0 -67 -31 -105q-32 -39 -86 -39q-59 0 -87 37q-27 36 -27 107v352l71 100v16h-315v-16l52 -100v-359q0 -121 81 -187q79 -66 219 -66q136 0 210 66q74 65 74 189v357l54 100v16h-284v-16l69 -100v-352zM473 766l-99 148h-179l156 -148h122z" />
<glyph unicode="&#xda;" horiz-adv-x="722" d="M491 248q0 -67 -31 -105q-32 -39 -86 -39q-59 0 -87 37q-27 36 -27 107v352l71 100v16h-315v-16l52 -100v-359q0 -121 81 -187q79 -66 219 -66q136 0 210 66q74 65 74 189v357l54 100v16h-284v-16l69 -100v-352zM285 766h121l157 148h-180z" />
<glyph unicode="&#xdb;" horiz-adv-x="722" d="M491 248q0 -67 -31 -105q-32 -39 -86 -39q-59 0 -87 37q-27 36 -27 107v352l71 100v16h-315v-16l52 -100v-359q0 -121 81 -187q79 -66 219 -66q136 0 210 66q74 65 74 189v357l54 100v16h-284v-16l69 -100v-352zM190 766h130l60 80l59 -80h130l-112 148h-154z" />
<glyph unicode="&#xdc;" horiz-adv-x="722" d="M491 248q0 -67 -31 -105q-32 -39 -86 -39q-59 0 -87 37q-27 36 -27 107v352l71 100v16h-315v-16l52 -100v-359q0 -121 81 -187q79 -66 219 -66q136 0 210 66q74 65 74 189v357l54 100v16h-284v-16l69 -100v-352zM195 888v-122h152v122h-152zM410 888v-122h152v122h-152z " />
<glyph unicode="&#xdd;" d="M419 700l65 -100l-108 -198l-107 198l67 100v16h-360v-16l80 -100l208 -341v-143l-83 -100v-16h359v16l-84 100v142l208 342l81 100v16h-326v-16zM287 766h121l157 148h-180z" />
<glyph unicode="&#xde;" d="M283 270v175h52q55 0 81 -17q24 -17 24 -64q0 -54 -26 -74t-86 -20h-45zM91 600v-484h-66v-116h360v116h-102v39h102q125 0 186 49q62 48 62 152q0 98 -52 151q-53 54 -145 54h-153v39h90v116h-360v-116h78z" />
<glyph unicode="&#xdf;" horiz-adv-x="667" d="M266 110v417q0 21 2.5 42.5t11 39t24.5 28.5t43 11q41 0 55 -24.5t14 -60.5q0 -44 -18.5 -71.5t-65.5 -29.5v-122q115 0 115 -116q0 -21 -4.5 -57t-14.5 -71t-26.5 -60.5t-41.5 -25.5v-10q60 0 111 6.5t88 29t58 65t21 114.5q0 90 -47 134t-134 51q74 18 110 58t36 118 q0 52 -22 87t-57.5 56t-79.5 30t-88 9q-131 0 -203.5 -62.5t-72.5 -197.5v-388l-56 -96v-14h288v10z" />
<glyph unicode="&#xe0;" horiz-adv-x="611" d="M369 247q0 -26 -6 -53t-19 -49t-34 -36.5t-51 -14.5q-29 0 -44.5 17.5t-15.5 45.5t10.5 45.5t27.5 27.5t39.5 13.5t45.5 3.5h47zM377 83v-83h212v10l-49 100v238q0 61 -18.5 102t-52 65.5t-79.5 35t-101 10.5q-49 0 -90 -10t-71 -32.5t-48 -59t-21 -90.5h24q1 17 17 34 t38.5 31t48 22.5t46.5 8.5q40 0 65.5 -12t40.5 -31t21 -41t6 -42v-5q-35 1 -74 1q-38 0 -76 -4.5t-73 -15.5t-61.5 -32t-42 -54t-15.5 -81q0 -43 15 -74t41.5 -51.5t61 -30t73.5 -9.5q58 0 98 23t64 77zM398 624l-99 148h-179l156 -148h122z" />
<glyph unicode="&#xe1;" horiz-adv-x="611" d="M369 247q0 -26 -6 -53t-19 -49t-34 -36.5t-51 -14.5q-29 0 -44.5 17.5t-15.5 45.5t10.5 45.5t27.5 27.5t39.5 13.5t45.5 3.5h47zM377 83v-83h212v10l-49 100v238q0 61 -18.5 102t-52 65.5t-79.5 35t-101 10.5q-49 0 -90 -10t-71 -32.5t-48 -59t-21 -90.5h24q1 17 17 34 t38.5 31t48 22.5t46.5 8.5q40 0 65.5 -12t40.5 -31t21 -41t6 -42v-5q-35 1 -74 1q-38 0 -76 -4.5t-73 -15.5t-61.5 -32t-42 -54t-15.5 -81q0 -43 15 -74t41.5 -51.5t61 -30t73.5 -9.5q58 0 98 23t64 77zM210 624h121l157 148h-180z" />
<glyph unicode="&#xe2;" horiz-adv-x="611" d="M369 247q0 -26 -6 -53t-19 -49t-34 -36.5t-51 -14.5q-29 0 -44.5 17.5t-15.5 45.5t10.5 45.5t27.5 27.5t39.5 13.5t45.5 3.5h47zM377 83v-83h212v10l-49 100v238q0 61 -18.5 102t-52 65.5t-79.5 35t-101 10.5q-49 0 -90 -10t-71 -32.5t-48 -59t-21 -90.5h24q1 17 17 34 t38.5 31t48 22.5t46.5 8.5q40 0 65.5 -12t40.5 -31t21 -41t6 -42v-5q-35 1 -74 1q-38 0 -76 -4.5t-73 -15.5t-61.5 -32t-42 -54t-15.5 -81q0 -43 15 -74t41.5 -51.5t61 -30t73.5 -9.5q58 0 98 23t64 77zM115 624h130l60 80l59 -80h130l-112 148h-154z" />
<glyph unicode="&#xe3;" horiz-adv-x="611" d="M369 247q0 -26 -6 -53t-19 -49t-34 -36.5t-51 -14.5q-29 0 -44.5 17.5t-15.5 45.5t10.5 45.5t27.5 27.5t39.5 13.5t45.5 3.5h47zM377 83v-83h212v10l-49 100v238q0 61 -18.5 102t-52 65.5t-79.5 35t-101 10.5q-49 0 -90 -10t-71 -32.5t-48 -59t-21 -90.5h24q1 17 17 34 t38.5 31t48 22.5t46.5 8.5q40 0 65.5 -12t40.5 -31t21 -41t6 -42v-5q-35 1 -74 1q-38 0 -76 -4.5t-73 -15.5t-61.5 -32t-42 -54t-15.5 -81q0 -43 15 -74t41.5 -51.5t61 -30t73.5 -9.5q58 0 98 23t64 77zM494 760h-73q0 -18 -13 -32q-12 -14 -33 -14q-18 0 -66 23t-72 23 q-53 0 -84 -39q-15 -19 -25 -43.5t-14 -53.5h73q0 18 13 32q12 14 33 14q17 0 66 -23q48 -23 72 -23q50 0 83 39q31 39 40 97z" />
<glyph unicode="&#xe4;" horiz-adv-x="611" d="M369 247q0 -26 -6 -53t-19 -49t-34 -36.5t-51 -14.5q-29 0 -44.5 17.5t-15.5 45.5t10.5 45.5t27.5 27.5t39.5 13.5t45.5 3.5h47zM377 83v-83h212v10l-49 100v238q0 61 -18.5 102t-52 65.5t-79.5 35t-101 10.5q-49 0 -90 -10t-71 -32.5t-48 -59t-21 -90.5h24q1 17 17 34 t38.5 31t48 22.5t46.5 8.5q40 0 65.5 -12t40.5 -31t21 -41t6 -42v-5q-35 1 -74 1q-38 0 -76 -4.5t-73 -15.5t-61.5 -32t-42 -54t-15.5 -81q0 -43 15 -74t41.5 -51.5t61 -30t73.5 -9.5q58 0 98 23t64 77zM120 746v-122h152v122h-152zM335 746v-122h152v122h-152z" />
<glyph unicode="&#xe5;" horiz-adv-x="611" d="M369 247q0 -26 -6 -53t-19 -49t-34 -36.5t-51 -14.5q-29 0 -44.5 17.5t-15.5 45.5t10.5 45.5t27.5 27.5t39.5 13.5t45.5 3.5h47zM377 83v-83h212v10l-49 100v238q0 61 -18.5 102t-52 65.5t-79.5 35t-101 10.5q-49 0 -90 -10t-71 -32.5t-48 -59t-21 -90.5h24q1 17 17 34 t38.5 31t48 22.5t46.5 8.5q40 0 65.5 -12t40.5 -31t21 -41t6 -42v-5q-35 1 -74 1q-38 0 -76 -4.5t-73 -15.5t-61.5 -32t-42 -54t-15.5 -81q0 -43 15 -74t41.5 -51.5t61 -30t73.5 -9.5q58 0 98 23t64 77zM304 832q-46 0 -79 -33t-33 -80t33 -80t79 -33q47 0 80 33t33 80 t-33 80t-80 33zM304 765q19 0 33 -14q13 -15 13 -32q0 -19 -14 -33q-15 -13 -32 -13q-18 0 -32 14q-13 13 -13 32q0 20 13 33t32 13z" />
<glyph unicode="&#xe6;" horiz-adv-x="889" d="M363 247q0 -24 -5 -51t-17 -49.5t-32 -37.5t-50 -15q-28 0 -41 18.5t-13 44.5q0 27 9.5 44.5t25 27.5t36.5 14t45 4h42zM451 475q-11 26 -31.5 42.5t-45.5 26.5t-52.5 13.5t-52.5 3.5q-98 0 -153.5 -45.5t-60.5 -146.5h11q1 16 18 35.5t42.5 35t56.5 23.5t60 2 q24 -6 45.5 -19.5t37.5 -31t25 -37.5t9 -38v-5q-52 2 -110 0t-107 -19.5t-81 -56t-32 -110.5q0 -44 17.5 -75.5t46.5 -51.5t66 -29t76 -9q66 0 114.5 23.5t77.5 85.5q10 -30 29 -50.5t44 -33.5t53.5 -18.5t57.5 -5.5q44 0 84.5 8.5t73 28.5t55.5 52.5t32 79.5h-14 q0 -15 -16.5 -27.5t-42 -21t-55 -12t-54.5 1.5q-29 5 -54 18.5t-44.5 32.5t-31.5 40.5t-14 42.5h330q0 14 0.5 26.5t0.5 26.5q0 57 -12.5 107.5t-39.5 89t-71 61t-107 22.5q-27 0 -53 -4.5t-49.5 -14.5t-43.5 -26.5t-35 -40.5zM532 324q1 20 4 42.5t11 41t23 31t41 12.5 q22 0 34.5 -11.5t19.5 -29t8.5 -37t1.5 -35.5v-14h-143z" />
<glyph unicode="&#xe7;" horiz-adv-x="556" d="M162 -205q12 -7 49 -16q34 -9 74 -9q55 0 90 27t35 71q0 35 -26 56q-26 20 -66 20l-39 -8l32 48q49 0 91.5 11.5t74 36t49.5 62.5t20 92h-153q0 -17 -5 -33t-14 -29.5t-22.5 -21.5t-32.5 -8q-32 0 -47 20t-20 49t-4 61t1 55q0 22 2 51t10.5 54.5t26 43t48.5 17.5 q24 0 39 -9t23.5 -24t11.5 -34t3 -39h134v206h-22l-100 -65q-17 47 -56 64t-85 17q-62 0 -108 -25t-77 -66t-46 -92.5t-15 -105.5q0 -56 14.5 -104.5t42.5 -86t69 -62t94 -32.5l-48 -79l20 -20l42 8q21 0 31 -10q11 -11 11 -29q0 -15 -13 -24q-14 -9 -35 -9q-31 0 -56 9 q-27 8 -28 9z" />
<glyph unicode="&#xe8;" horiz-adv-x="556" d="M550 153h-24q0 -16 -18 -29t-44.5 -21.5t-57.5 -11t-58 2.5q-29 6 -54.5 18.5t-45.5 30t-32.5 39.5t-14.5 46h353q0 12 0.5 24.5t0.5 24.5q0 63 -16 115.5t-48.5 90t-82 58t-115.5 20.5q-65 0 -116 -21t-86.5 -59t-54 -91t-18.5 -116q0 -140 69.5 -215t211.5 -75 q44 0 85.5 8.5t75 28.5t57.5 52t33 80zM202 324q3 22 6.5 45t13 41t26 29.5t45.5 11.5q25 0 40 -12.5t23.5 -31.5t11 -41.5t2.5 -41.5h-168zM395 624l-99 148h-179l156 -148h122z" />
<glyph unicode="&#xe9;" horiz-adv-x="556" d="M550 153h-24q0 -16 -18 -29t-44.5 -21.5t-57.5 -11t-58 2.5q-29 6 -54.5 18.5t-45.5 30t-32.5 39.5t-14.5 46h353q0 12 0.5 24.5t0.5 24.5q0 63 -16 115.5t-48.5 90t-82 58t-115.5 20.5q-65 0 -116 -21t-86.5 -59t-54 -91t-18.5 -116q0 -140 69.5 -215t211.5 -75 q44 0 85.5 8.5t75 28.5t57.5 52t33 80zM202 324q3 22 6.5 45t13 41t26 29.5t45.5 11.5q25 0 40 -12.5t23.5 -31.5t11 -41.5t2.5 -41.5h-168zM207 624h121l157 148h-180z" />
<glyph unicode="&#xea;" horiz-adv-x="556" d="M550 153h-24q0 -16 -18 -29t-44.5 -21.5t-57.5 -11t-58 2.5q-29 6 -54.5 18.5t-45.5 30t-32.5 39.5t-14.5 46h353q0 12 0.5 24.5t0.5 24.5q0 63 -16 115.5t-48.5 90t-82 58t-115.5 20.5q-65 0 -116 -21t-86.5 -59t-54 -91t-18.5 -116q0 -140 69.5 -215t211.5 -75 q44 0 85.5 8.5t75 28.5t57.5 52t33 80zM202 324q3 22 6.5 45t13 41t26 29.5t45.5 11.5q25 0 40 -12.5t23.5 -31.5t11 -41.5t2.5 -41.5h-168zM112 624h130l60 80l59 -80h130l-112 148h-154z" />
<glyph unicode="&#xeb;" horiz-adv-x="556" d="M550 153h-24q0 -16 -18 -29t-44.5 -21.5t-57.5 -11t-58 2.5q-29 6 -54.5 18.5t-45.5 30t-32.5 39.5t-14.5 46h353q0 12 0.5 24.5t0.5 24.5q0 63 -16 115.5t-48.5 90t-82 58t-115.5 20.5q-65 0 -116 -21t-86.5 -59t-54 -91t-18.5 -116q0 -140 69.5 -215t211.5 -75 q44 0 85.5 8.5t75 28.5t57.5 52t33 80zM202 324q3 22 6.5 45t13 41t26 29.5t45.5 11.5q25 0 40 -12.5t23.5 -31.5t11 -41.5t2.5 -41.5h-168zM117 746v-122h152v122h-152zM332 746v-122h152v122h-152z" />
<glyph unicode="&#xec;" horiz-adv-x="333" d="M258 624l-99 148h-179l156 -148h122z" />
<glyph unicode="&#xed;" horiz-adv-x="333" d="M70 624h121l157 148h-180z" />
<glyph unicode="&#xee;" horiz-adv-x="333" d="M-25 624h130l60 80l59 -80h130l-112 148h-154z" />
<glyph unicode="&#xef;" horiz-adv-x="333" d="M-20 746v-122h152v122h-152zM195 746v-122h152v122h-152z" />
<glyph unicode="&#xf0;" d="M582 282q0 220 -129 333q-11 9 -23.5 19.5t-27.5 21.5l92 47l-49 58l-119 -61q-77 40 -189 57l-37 -111q19 -4 38 -9t39 -13l-77 -39l54 -57l105 54q70 -44 84 -114q-15 18 -39 25q-13 3 -25 5t-25 2q-96 0 -162 -68q-65 -68 -65 -164q0 -126 77 -206q75 -79 200 -79 q127 0 203 82q75 81 75 217zM304 398q46 0 67 -41q20 -42 20 -116q0 -70 -22 -108q-23 -39 -66 -39q-40 0 -62 40q-21 39 -21 106q0 73 20 116q19 42 64 42z" />
<glyph unicode="&#xf1;" horiz-adv-x="667" d="M595 110v301q0 72 -43 111q-42 39 -118 39q-67 0 -111 -25q-44 -24 -67 -86v95h-232v-10l56 -100v-325l-56 -96v-14h293v14l-51 96v213q0 53 21 85q19 31 59 31q34 0 49 -22q14 -23 14 -66v-241l-56 -96v-14h293v14zM523 760h-73q0 -18 -13 -32q-12 -14 -33 -14 q-18 0 -66 23t-72 23q-53 0 -84 -39q-15 -19 -25 -43.5t-14 -53.5h73q0 18 13 32q12 14 33 14q17 0 66 -23q48 -23 72 -23q50 0 83 39q31 39 40 97z" />
<glyph unicode="&#xf2;" horiz-adv-x="611" d="M583 272q0 132 -76 211q-75 78 -201 78q-127 0 -203 -79q-75 -78 -75 -210q0 -131 76 -210q75 -78 202 -78q126 0 202 79q75 78 75 209zM391 272q0 -79 -20 -127q-20 -45 -65 -45q-47 0 -66 46q-20 46 -20 126t20 128q19 45 66 45q46 0 65 -46q20 -46 20 -127zM398 624 l-99 148h-179l156 -148h122z" />
<glyph unicode="&#xf3;" horiz-adv-x="611" d="M583 272q0 132 -76 211q-75 78 -201 78q-127 0 -203 -79q-75 -78 -75 -210q0 -131 76 -210q75 -78 202 -78q126 0 202 79q75 78 75 209zM391 272q0 -79 -20 -127q-20 -45 -65 -45q-47 0 -66 46q-20 46 -20 126t20 128q19 45 66 45q46 0 65 -46q20 -46 20 -127zM210 624 h121l157 148h-180z" />
<glyph unicode="&#xf4;" horiz-adv-x="611" d="M583 272q0 132 -76 211q-75 78 -201 78q-127 0 -203 -79q-75 -78 -75 -210q0 -131 76 -210q75 -78 202 -78q126 0 202 79q75 78 75 209zM391 272q0 -79 -20 -127q-20 -45 -65 -45q-47 0 -66 46q-20 46 -20 126t20 128q19 45 66 45q46 0 65 -46q20 -46 20 -127zM115 624 h130l60 80l59 -80h130l-112 148h-154z" />
<glyph unicode="&#xf5;" horiz-adv-x="611" d="M583 272q0 132 -76 211q-75 78 -201 78q-127 0 -203 -79q-75 -78 -75 -210q0 -131 76 -210q75 -78 202 -78q126 0 202 79q75 78 75 209zM391 272q0 -79 -20 -127q-20 -45 -65 -45q-47 0 -66 46q-20 46 -20 126t20 128q19 45 66 45q46 0 65 -46q20 -46 20 -127zM494 760 h-73q0 -18 -13 -32q-12 -14 -33 -14q-18 0 -66 23t-72 23q-53 0 -84 -39q-15 -19 -25 -43.5t-14 -53.5h73q0 18 13 32q12 14 33 14q17 0 66 -23q48 -23 72 -23q50 0 83 39q31 39 40 97z" />
<glyph unicode="&#xf6;" horiz-adv-x="611" d="M583 272q0 132 -76 211q-75 78 -201 78q-127 0 -203 -79q-75 -78 -75 -210q0 -131 76 -210q75 -78 202 -78q126 0 202 79q75 78 75 209zM391 272q0 -79 -20 -127q-20 -45 -65 -45q-47 0 -66 46q-20 46 -20 126t20 128q19 45 66 45q46 0 65 -46q20 -46 20 -127zM120 746 v-122h152v122h-152zM335 746v-122h152v122h-152z" />
<glyph unicode="&#xf7;" horiz-adv-x="600" d="M213 558v-168h174v168h-174zM47 188h507v130h-507v-130zM213 117v-168h174v168h-174z" />
<glyph unicode="&#xf8;" horiz-adv-x="611" d="M534 583l-61 -71q-62 49 -167 49q-127 0 -203 -79q-75 -78 -75 -210q0 -124 65 -198l-64 -74l45 -36l61 70q65 -50 171 -50q126 0 202 79q75 78 75 209q0 125 -68 201l64 73zM388 326q3 -20 3 -54q0 -79 -20 -127q-20 -45 -65 -45q-47 0 -66 45q-2 4 -3 7zM222 223 q-1 9 -1.5 21t-0.5 28q0 80 20 128q19 45 66 45q46 0 65 -46q0 -2 1 -3z" />
<glyph unicode="&#xf9;" horiz-adv-x="630" d="M566 545h-245v-10l54 -100v-216q0 -50 -20 -78q-20 -27 -52 -27t-47 19q-14 20 -14 59v353h-242v-10l56 -100v-276q0 -89 38 -133q36 -42 120 -42q63 0 113 26q47 25 64 77v-87h227v10l-52 100v435zM408 624l-99 148h-179l156 -148h122z" />
<glyph unicode="&#xfa;" horiz-adv-x="630" d="M566 545h-245v-10l54 -100v-216q0 -50 -20 -78q-20 -27 -52 -27t-47 19q-14 20 -14 59v353h-242v-10l56 -100v-276q0 -89 38 -133q36 -42 120 -42q63 0 113 26q47 25 64 77v-87h227v10l-52 100v435zM220 624h121l157 148h-180z" />
<glyph unicode="&#xfb;" horiz-adv-x="630" d="M566 545h-245v-10l54 -100v-216q0 -50 -20 -78q-20 -27 -52 -27t-47 19q-14 20 -14 59v353h-242v-10l56 -100v-276q0 -89 38 -133q36 -42 120 -42q63 0 113 26q47 25 64 77v-87h227v10l-52 100v435zM125 624h130l60 80l59 -80h130l-112 148h-154z" />
<glyph unicode="&#xfc;" horiz-adv-x="630" d="M566 545h-245v-10l54 -100v-216q0 -50 -20 -78q-20 -27 -52 -27t-47 19q-14 20 -14 59v353h-242v-10l56 -100v-276q0 -89 38 -133q36 -42 120 -42q63 0 113 26q47 25 64 77v-87h227v10l-52 100v435zM130 746v-122h152v122h-152zM345 746v-122h152v122h-152z" />
<glyph unicode="&#xfd;" d="M353 535l48 -100l-77 -239l-83 239l53 100v10h-284v-10q51 -136 106 -269t109 -268q-6 -11 -16 -34.5t-23 -47t-27 -41t-27 -17.5h-12h-6q-2 0 -5.5 1t-11.5 4v-25q9 -3 21 -4.5t25 -2.5t26 -1h22q40 0 68 9t48.5 27t36 44t30.5 61q60 142 118 282.5t120 281.5v10h-259 v-10zM223 624h121l157 148h-180z" />
<glyph unicode="&#xfe;" d="M266 78q19 -43 61 -69q40 -25 97 -25q110 0 163 75q52 75 52 213q0 136 -53 213q-52 76 -157 76q-60 0 -103 -29q-42 -29 -60 -81v290h-242v-110h56v-683h-56v-110h310v110h-68v130zM260 279q0 82 27 124q25 42 71 42q52 0 71 -43q18 -42 18 -130q0 -86 -19 -128 q-20 -44 -68 -44q-50 0 -75 45t-25 134z" />
<glyph unicode="&#xff;" horiz-adv-x="611" d="M353 535l48 -100l-77 -239l-83 239l53 100v10h-284v-10q51 -136 106 -269t109 -268q-6 -11 -16 -34.5t-23 -47t-27 -41t-27 -17.5h-12h-6q-2 0 -5.5 1t-11.5 4v-25q9 -3 21 -4.5t25 -2.5t26 -1h22q40 0 68 9t48.5 27t36 44t30.5 61q60 142 118 282.5t120 281.5v10h-259 v-10zM133 746v-122h152v122h-152zM348 746v-122h152v122h-152z" />
<glyph unicode="&#x152;" horiz-adv-x="1000" d="M401 613q21 0 39 -3q17 -3 17 -4v-493l-17 -5q-15 -4 -35 -4q-90 0 -137 65q-46 66 -46 182q0 121 47 192q46 70 132 70zM972 0v235h-11l-137 -119h-199v194h153l106 -75h10v261h-10l-106 -75h-153l3 179h196l137 -107h11v223h-387q-52 0 -104 6q-53 6 -94 6 q-163 0 -260 -102q-97 -100 -97 -272q0 -171 94 -268q93 -98 255 -98q45 0 102 6t97 6h394z" />
<glyph unicode="&#x153;" horiz-adv-x="889" d="M373 272q0 -20 -1.5 -49.5t-9 -56.5t-23.5 -46.5t-44 -19.5t-43.5 19.5t-23 47t-9 56.5t-1.5 49t1.5 49.5t9 57t23 47t43.5 19.5t44 -19.5t23.5 -47t9 -57t1.5 -49.5zM461 64q28 -45 71.5 -62.5t93.5 -17.5q43 0 82 9t69.5 29.5t51.5 52.5t29 78h-14q0 -14 -16 -26.5 t-40 -21.5t-52.5 -12.5t-53.5 1.5q-28 5 -52 19t-42.5 33t-30 40.5t-12.5 41.5h317q0 13 0.5 26t0.5 26q0 57 -12.5 108t-40 89.5t-72 61t-107.5 22.5q-52 0 -96 -19.5t-72 -65.5q-14 25 -34.5 41.5t-44.5 26t-50.5 13.5t-53.5 4q-65 0 -112.5 -22.5t-79 -62t-47 -92 t-15.5 -112.5q0 -59 15 -111.5t45.5 -91.5t77.5 -62t111 -23q57 0 104 16t82 64zM546 324q1 18 3.5 40.5t9 41.5t20.5 32t39 13q20 0 32 -11.5t18 -28t8 -35t2 -33.5v-19h-132z" />
<glyph unicode="&#x178;" horiz-adv-x="722" d="M419 700l65 -100l-108 -198l-107 198l67 100v16h-360v-16l80 -100l208 -341v-143l-83 -100v-16h359v16l-84 100v142l208 342l81 100v16h-326v-16zM197 888v-122h152v122h-152zM412 888v-122h152v122h-152z" />
<glyph unicode="&#x2c6;" d="M-50 624h130l60 80l59 -80h130l-112 148h-154z" />
<glyph unicode="&#x2dc;" d="M329 760h-73q0 -18 -13 -32q-12 -14 -33 -14q-18 0 -66 23t-72 23q-53 0 -84 -39q-15 -19 -25 -43.5t-14 -53.5h73q0 18 13 32q12 14 33 14q17 0 66 -23q48 -23 72 -23q50 0 83 39q31 39 40 97z" />
<glyph unicode="&#x2000;" horiz-adv-x="478" />
<glyph unicode="&#x2001;" horiz-adv-x="956" />
<glyph unicode="&#x2002;" horiz-adv-x="478" />
<glyph unicode="&#x2003;" horiz-adv-x="956" />
<glyph unicode="&#x2004;" horiz-adv-x="318" />
<glyph unicode="&#x2005;" horiz-adv-x="239" />
<glyph unicode="&#x2006;" horiz-adv-x="159" />
<glyph unicode="&#x2007;" horiz-adv-x="159" />
<glyph unicode="&#x2008;" horiz-adv-x="119" />
<glyph unicode="&#x2009;" horiz-adv-x="191" />
<glyph unicode="&#x200a;" horiz-adv-x="53" />
<glyph unicode="&#x2010;" horiz-adv-x="333" d="M40 355v-131h253v131h-253z" />
<glyph unicode="&#x2011;" horiz-adv-x="333" d="M40 355v-131h253v131h-253z" />
<glyph unicode="&#x2012;" horiz-adv-x="333" d="M40 355v-131h253v131h-253z" />
<glyph unicode="&#x2013;" horiz-adv-x="500" d="M0 355v-131h500v131h-500z" />
<glyph unicode="&#x2014;" horiz-adv-x="1000" d="M0 355v-131h1000v131h-1000z" />
<glyph unicode="&#x2018;" d="M226 410v168h-59l59 138h-124l-50 -138v-168h174z" />
<glyph unicode="&#x2019;" d="M52 716v-168h59l-59 -138h124l50 138v168h-174z" />
<glyph unicode="&#x201a;" d="M52 169v-168h59l-59 -138h124l50 138v168h-174z" />
<glyph unicode="&#x201c;" horiz-adv-x="556" d="M493 410v168h-59l59 138h-124l-50 -138v-168h174zM235 410v168h-59l59 138h-124l-50 -138v-168h174z" />
<glyph unicode="&#x201d;" horiz-adv-x="556" d="M319 716v-168h59l-59 -138h124l50 138v168h-174zM61 716v-168h59l-59 -138h124l50 138v168h-174z" />
<glyph unicode="&#x201e;" horiz-adv-x="556" d="M320 169v-168h59l-59 -138h124l50 138v168h-174zM62 169v-168h59l-59 -138h124l50 138v168h-174z" />
<glyph unicode="&#x2022;" horiz-adv-x="415" d="M198 480q-51 0 -87 -36q-35 -34 -35 -86t35 -86q36 -36 87 -36q50 0 86 36q36 34 36 86q0 51 -36 86q-36 36 -86 36z" />
<glyph unicode="&#x2026;" horiz-adv-x="1000" d="M412 168v-168h174v168h-174zM745 168v-168h174v168h-174zM79 168v-168h174v168h-174z" />
<glyph unicode="&#x202f;" horiz-adv-x="191" />
<glyph unicode="&#x2039;" horiz-adv-x="315" d="M156 289l85 217h-123l-83 -217l82 -217h123z" />
<glyph unicode="&#x203a;" horiz-adv-x="315" d="M159 289l-84 -217h124l81 217l-82 217h-124z" />
<glyph unicode="&#x205f;" horiz-adv-x="239" />
<glyph unicode="&#x2122;" horiz-adv-x="1000" d="M359 644v72h-333v-72h124v-340h86v340h123zM916 716h-129l-103 -280l-105 280h-130v-412h86v311l117 -311h62l116 311v-311h86v412z" />
<glyph unicode="&#xe000;" horiz-adv-x="545" d="M0 545h545v-545h-545v545z" />
</font>
</defs>
</svg>
