<?xml version="1.0" standalone="no"?>
<!DOCTYPE svg PUBLIC "-//W3C//DTD SVG 1.1//EN" "http://www.w3.org/Graphics/SVG/1.1/DTD/svg11.dtd" >
<svg xmlns="http://www.w3.org/2000/svg">
<metadata></metadata>
<defs>
<font id="promocyjamedium" horiz-adv-x="427" >
<font-face units-per-em="1024" ascent="595" descent="-429" />
<missing-glyph horiz-adv-x="375" />
<glyph unicode="r&#x7a;" horiz-adv-x="295" d="M0 0v295h295v-295h-295z" />
<glyph horiz-adv-x="0" />
<glyph unicode="&#xd;" horiz-adv-x="1024" />
<glyph unicode=" "  horiz-adv-x="375" />
<glyph unicode="&#x09;" horiz-adv-x="375" />
<glyph unicode="&#xa0;" horiz-adv-x="375" />
<glyph unicode="!" horiz-adv-x="267" d="M50 4q0 9 1.5 15.5t5 10.5t7 6.5t8 3.5t7.5 1.5t7 0.5q10 0 17.5 -6.5t7.5 -14.5q0 -27 -33 -27q-24 0 -28 10zM99 183q0 3 11.5 53.5t24 108.5t23.5 123t11 98q0 13 -3 29q14 0 29.5 -2.5t20.5 -2.5q11 0 25 5q0 -6 -57.5 -203t-57.5 -217q0 -3 -5 -3t-13.5 4t-8.5 7z " />
<glyph unicode="&#x22;" horiz-adv-x="342" d="M152 489q10 13 24.5 29t19.5 23q8 16 8 20q0 19 -30 24q4 3 14 11.5t14 11.5t10.5 7.5t10.5 6.5t7 2q18 0 28 -26v-6q0 -6 -2.5 -12t-7 -12t-9 -11.5t-11 -11.5t-11 -10t-10.5 -9t-7 -6q-7 -5 -23.5 -15.5t-24.5 -15.5zM262 489q10 13 24.5 29t19.5 23q8 12 8 20 q0 19 -30 24q17 15 33.5 27t22.5 12q18 0 28 -26v-6q0 -6 -2.5 -12t-7 -12t-9 -11.5t-11 -11.5t-11 -10t-10.5 -9t-7 -6q-7 -5 -23.5 -15.5t-24.5 -15.5z" />
<glyph unicode="#" horiz-adv-x="822" d="M49 193q30 5 60 5q24 0 59 -2q-1 -19 -3 -27q-20 1 -35 1q-41 0 -64 -11q-4 6 -7 10t-4.5 7t-2 5t-1.5 5.5t-2 6.5zM90 354q38 13 174 13q67 0 115 -5l-2 -27q-28 2 -103 3h-45.5t-32 -0.5t-21 -0.5t-15.5 -1.5t-12 -2t-12.5 -3t-15.5 -3.5q-3 0 -8 4t-12.5 12.5 t-9.5 10.5zM179 31q0 31 6 67q15 87 26 217h34q-14 -140 -16 -153q-4 -36 -4 -53q0 -53 2 -59q-21 -11 -48 -19zM218 389q9 68 13 69q2 0 13 0.5t22 4.5q-5 -23 -12 -74h-36zM261 160q1 12 3 27q84 -6 146 -6q31 0 60.5 3t47.5 6.5t24 7.5q16 -19 24 -36q-54 -8 -134 -8 q-82 0 -171 6zM391 39q0 12 2 28.5t2 38.5v27l35 -1v-15q0 -14 2 -34.5t4 -24.5q-24 -13 -45 -19zM399 205q5 108 10 155q10 97 22 99q26 2 35 4q-1 -4 -8 -26t-9.5 -32t-6.5 -31.5t-5 -43.5q0 -3 -1 -22t-2 -50.5t-2 -49.5q-8 -2 -33 -3zM467 327q1 19 3 27q17 -1 44 -1 q44 0 70 13q16 -20 22 -36q-31 -5 -62 -5q-39 0 -77 2z" />
<glyph unicode="$" horiz-adv-x="433" d="M54 139q0 16 15.5 24t34.5 8q20 0 38 -6.5t29.5 -15t20 -18.5t12 -16t3.5 -8q-6 -9 -21 -9q-7 0 -15 3l-2 8t-5.5 16t-10 17t-18.5 14.5t-28 5.5q-25 0 -25 -24q0 -25 14 -43.5t37 -28t46 -14t47 -4.5l29 1q34 4 58 17t33.5 30t12.5 29t3 24q0 20 -10.5 31t-47.5 37l7 38 q23 -14 34.5 -22t29 -24.5t25 -36t7.5 -43.5q0 -87 -153 -91h-29q-79 3 -125 34.5t-46 66.5zM141 367q0 31 45 53.5t112 22.5q43 0 75.5 -9t48.5 -22.5t23 -26t7 -23.5q0 -12 -8.5 -20t-19.5 -8q-20 0 -22 8l8 7q8 7 8 19q0 24 -20 39.5t-45 20.5t-55 5q-45 0 -82 -20.5 t-37 -39.5q0 -29 75 -80l-7 -35q-32 23 -51 37.5t-37 35t-18 36.5zM209 -46l13 68h28l-13 -67zM229 65q50 257 68 352h8q10 0 19 -1q-23 -101 -38 -188l-28 -163h-29zM304 459l6 34l31 3l-7 -38q-11 1 -20 1h-10z" />
<glyph unicode="%" horiz-adv-x="575" d="M45 24q27 23 71 61q108 92 146.5 131.5t166.5 188.5q10 12 16 19t16 19t19 22l42 -27l-434 -441zM74 400q0 27 23.5 46t57.5 19t57.5 -19t23.5 -46t-23.5 -46t-57.5 -19t-57.5 19t-23.5 46zM104 398q0 -19 16.5 -32t39.5 -13q15 0 28 6t20.5 16.5t7.5 22.5q0 18 -17 31.5 t-39 13.5q-23 0 -39.5 -13.5t-16.5 -31.5zM320 64q0 27 24 46t57.5 19t57 -19t23.5 -46t-23.5 -46t-57 -19t-57.5 19t-24 46zM349 62q0 -18 16.5 -31.5t39.5 -13.5t39.5 13.5t16.5 31.5q0 19 -16.5 32t-39.5 13t-39.5 -13t-16.5 -32z" />
<glyph unicode="&#x26;" horiz-adv-x="560" d="M68 106q0 18 10.5 36.5t25 33.5t38.5 33t40.5 28.5t42.5 26t34 20.5l24 -31q-20 -14 -51.5 -34.5t-46.5 -31t-32.5 -24.5t-24.5 -26t-7 -24q0 -37 37.5 -68t74.5 -31h1q29 0 57 9.5t54 28.5t39 30t34 31l91 93l15 -12l-94 -96q-50 -51 -94 -74.5t-106 -23.5 q-57 0 -109.5 35t-52.5 71zM240 383q0 14 3.5 26t12 22.5t21.5 17.5t32.5 11.5t44.5 4.5q37 0 61 -21.5t24 -44.5q0 -20 -21 -42t-75 -61l-25 29q23 15 36 25t26.5 25.5t13.5 27.5q0 15 -10.5 31.5t-29.5 16.5q-40 0 -58 -18t-18 -46q0 -41 24 -73l127 -164l-23 -22 q-100 129 -132 166q-34 46 -34 89zM442 83l23 24l84 -107h-40z" />
<glyph unicode="'" horiz-adv-x="232" d="M178 489q9 13 23.5 29t19.5 23q8 16 8 20q0 19 -30 24q4 3 14 11.5t14 11.5t10.5 7.5t10.5 6.5t7 2q18 0 27 -26v-6q0 -6 -2 -12t-6.5 -12t-9 -11.5t-11 -11.5t-11 -10t-10.5 -9t-7 -6q-7 -5 -23.5 -15.5t-23.5 -15.5z" />
<glyph unicode="(" horiz-adv-x="303" d="M34 91q0 96 34 206t63 149q43 55 116 86t138 31q5 0 46 -5q-5 0 -15 -1q-32 -2 -48 -4.5t-44.5 -13.5t-67.5 -34q-53 -31 -94.5 -110t-61 -162.5t-19.5 -152.5q0 -121 118 -161q24 -8 89 -16h-8q-40 0 -69 4.5t-42.5 9.5t-32.5 14q-102 54 -102 160z" />
<glyph unicode=")" horiz-adv-x="501" d="M22 -97q57 7 98 18q53 15 92 38.5t66 56t50 79.5q26 54 44.5 110.5t25 101t9 68t2.5 39.5q0 34 -12 60.5t-28.5 40.5t-41 24t-41.5 13t-38.5 5t-23.5 3q27 3 48 3q46 0 89 -15t75 -49t32 -80q0 -33 -5.5 -73.5t-25.5 -108.5t-52 -135q-60 -122 -193 -176 q-12 -5 -24.5 -8.5t-27 -6t-24.5 -4t-26.5 -2.5t-22.5 -1t-24 -0.5t-21 -0.5z" />
<glyph unicode="*" horiz-adv-x="443" d="M99 194l93 40l-87 49q2 1 9 6.5t15 10.5l81 -47q0 32 -10 83q6 -1 19 -3t16 -2q1 -21 2.5 -42.5t2.5 -32.5q66 30 92 48q12 -26 13 -27q-26 -14 -99 -46q41 -25 96 -47q-3 -3 -13 -10t-13 -9l-24 12t-13.5 6t-8 3.5t-10.5 6t-19 11.5v-69l-30 4v21q0 34 1 54l-103 -42 q-5 10 -10 22z" />
<glyph unicode="+" horiz-adv-x="452" d="M62 247q38 -1 157 -1h67q88 0 136 7q9 -8 20 -33q-65 -4 -94 -4q-7 0 -40 0.5t-59 0.5q-20 0 -84.5 1t-89.5 1q-2 0 -3 5t-3 12t-7 11zM186 82q2 17 4.5 32t4.5 25.5t3 16.5q1 7 7 34l39 -2q-1 -4 -4 -28q0 -1 -2 -15.5t-4.5 -31t-2.5 -22.5q-22 -9 -45 -9zM225 272 q2 12 5.5 30.5t6.5 36t7 32.5q0 2 8 4t18.5 4.5t15.5 4.5l-25 -112h-36z" />
<glyph unicode="," horiz-adv-x="216" d="M19 -82q7 8 15.5 17.5t14 15.5t11 12.5t8 12.5t2.5 12q0 19 -30 24q50 39 58 39q9 0 18 -10t9 -22q0 -16 -26 -44q-25 -27 -79 -59z" />
<glyph unicode="-" horiz-adv-x="480" d="M92 219q0 9 7 28q57 -1 216 -1q87 0 137 7q-6 -25 -8 -33q-65 -4 -95 -4q-8 0 -96 1.5t-161 1.5z" />
<glyph unicode="." horiz-adv-x="216" d="M62 4q0 9 2 15.5t5.5 10.5t6.5 6.5t8 3.5t8 1.5t7 0.5q9 0 17 -6.5t8 -14.5q0 -27 -34 -27q-23 0 -28 10z" />
<glyph unicode="/" horiz-adv-x="540" d="M25 -12q27 23 104 89t98 85t78.5 71.5t92 89.5t89.5 96.5t117 131.5l42 -27l-580 -563z" />
<glyph unicode="0" horiz-adv-x="555" d="M73 155q0 89 36 162.5t96.5 115.5t130.5 42q58 0 97.5 -27.5t39.5 -54.5q0 -6 -1 -15t-5 -20t-9 -14q-5 5 -9 9.5t-6.5 8.5t-4.5 7.5t-3 7.5t-2 6.5t-1.5 7t-1.5 6.5q0 63 -80 63q-68 0 -123 -48t-84 -124t-29 -162q0 -31 17.5 -54.5t44.5 -35.5t53 -18t50 -6 q38 0 78 26.5t70.5 67.5t49.5 95.5t19 106.5q0 22 -7 35q-4 6 -4 12q0 3 1.5 10t1.5 12v5q1 0 11 -8.5t13 -13l10 -15t9.5 -25t2.5 -33.5q0 -29 -7 -63.5t-25 -74.5t-44.5 -72.5t-71 -54.5t-98.5 -22q-34 0 -69.5 8.5t-69 26t-55 49t-21.5 71.5z" />
<glyph unicode="1" horiz-adv-x="280" d="M72 175q20 21 61.5 70t50.5 60q17 17 71 150q6 21 25 21q8 0 13.5 -4.5t5.5 -11.5v-1q0 -7 -8.5 -41.5t-29.5 -81t-45 -62.5q-23 -15 -65 -46.5t-79 -52.5zM105 2q3 68 56 216l49 34q-23 -83 -32.5 -132.5t-9.5 -79.5q0 -22 6 -37q-10 -2 -29 -2q-5 0 -16 0.5t-24 0.5z " />
<glyph unicode="2" horiz-adv-x="642" d="M64 82q0 42 40.5 67.5t116.5 25.5q62 0 154 -44q33 -18 51.5 -34.5t21.5 -26t6.5 -15t11.5 -5.5q19 0 63.5 28.5t60.5 28.5q9 0 16 -5.5t9 -11.5l3 -6q0 -4 -3 -4q-35 -6 -89.5 -40t-67.5 -34q-18 0 -32 11.5t-14 25.5q0 40 -50 74q-20 14 -62 30t-74 16 q-73 0 -101.5 -20.5t-28.5 -61.5q0 -28 16.5 -47.5t54.5 -19.5q60 0 152 108q8 -3 31 -18q-64 -62 -105.5 -82.5t-74.5 -20.5q-32 0 -54.5 8t-33 21t-14.5 25.5t-4 26.5zM234 334q0 5 2 14.5t15 31t33 35.5q2 2 12 9t15 10t17 9t23.5 9t29 6.5t39.5 5t49 1.5 q63 0 99.5 -20.5t36.5 -45.5q0 -8 -5.5 -20t-16.5 -27.5t-22 -30t-29.5 -34t-31 -33t-33 -34t-30.5 -30t-28.5 -27t-20.5 -20.5q-23 13 -37 18q58 59 79 81t60 65t54 66t15 37q0 13 -11.5 21.5t-29.5 12t-32 5t-28 1.5q-110 0 -153 -47q-13 -14 -15.5 -35.5t-7.5 -31.5 q-10 -10 -16 -10q-32 0 -32 8z" />
<glyph unicode="3" horiz-adv-x="580" d="M72 149q0 28 14 41.5t29 13.5q10 0 16.5 -2t8 -4t1.5 -4t-4.5 -5.5t-9 -8.5t-8.5 -16.5t-4 -27.5q0 -45 46.5 -83.5t126.5 -38.5q85 0 156 46.5t71 102.5q0 55 -70 86q4 9 8 12q117 -37 117 -110q0 -55 -66.5 -102.5t-183.5 -47.5q-109 0 -178.5 41t-69.5 107zM230 391 q0 31 52.5 52.5t106.5 21.5q62 0 100.5 -31t38.5 -72q0 -22 -9 -38t-27 -27t-29.5 -16t-32.5 -12q-2 -1 -6 -6q-2 -3 -3 -4q-10 -8 -30 -8q-22 0 -31 7.5t-9 16.5v2q1 6 8.5 9.5t19.5 5.5t25.5 4.5t27.5 7t25 11.5t18 20.5t7 32.5q0 34 -28 59.5t-76 25.5q-51 0 -82 -21 t-31 -43q0 -11 11 -16.5t22 -7.5t11 -5q0 -8 -15 -8q-28 0 -46 11.5t-18 27.5z" />
<glyph unicode="4" horiz-adv-x="576" d="M72 171q0 6 6 7q55 29 109 63t91 61.5t91 66.5t101 69q10 6 13.5 16.5t9 18.5t23.5 12q9 0 19.5 -5t10.5 -16q-19 -48 -36 -102.5t-24.5 -84t-22.5 -92.5h-52q50 190 62 223q-22 -13 -152.5 -102.5t-205.5 -127.5q9 -2 51 -4.5t108 -4.5t132 -2h93q13 0 25.5 2.5t21 7.5 t8.5 11q0 8 -14 8q-6 0 -14 -1t-14 -1q-8 0 -8 5q0 3 2.5 8.5t8.5 10t13 4.5q19 0 30.5 -10.5t11.5 -22.5q0 -47 -76 -47q-213 0 -393 7q-12 1 -20.5 8t-8.5 14zM356 0q14 28 41 125h53q-19 -78 -32 -119q-2 -6 -12 -6h-50z" />
<glyph unicode="5" horiz-adv-x="626" d="M72 136v1q0 5 1 8.5t7.5 7.5t19.5 4q25 0 25 -9q0 -1 -4.5 -10.5t-4.5 -20.5q0 -26 15.5 -46.5t41.5 -32.5t57 -18t64 -6q34 0 63.5 6t51 15.5t38.5 22.5t28 27t18 28.5t10 26.5t3 22q0 60 -59 108t-132 48q-71 0 -139 -42q2 14 5 24q52 33 138 33q43 0 86.5 -14 t77.5 -37.5t55.5 -55.5t21.5 -66q0 -24 -14.5 -50.5t-43 -51.5t-79 -41.5t-114.5 -16.5q-100 0 -168.5 38t-68.5 98zM113 256q6 19 17.5 47.5t21 50.5t17 44t7.5 33v7l36 -14q-6 -16 -15.5 -40.5t-17 -43.5t-14 -35t-6.5 -21q-4 -24 -8 -25q-11 -3 -38 -3zM174 456 q0 11 6 20.5t19 9.5q7 0 13.5 -3t9.5 -6t3 -4q-10 -1 -10 -6q0 -3 6 -7q3 -2 8 -5t19 -11.5t28 -15t32.5 -11.5t34.5 -5q44 0 91.5 12t79 26.5t60 26.5t39.5 12t11 -14q0 -10 -9 -20.5t-30 -22t-51 -20t-76 -14.5t-100 -6q-28 0 -56.5 8t-42.5 15t-43 22q-3 2 -14 6t-19.5 8 t-8.5 5z" />
<glyph unicode="6" horiz-adv-x="633" d="M72 131q0 61 26.5 141t48.5 109q11 15 18 23.5t28 25t45.5 26t68.5 17t99 7.5q33 0 66.5 -6t65 -18t51.5 -33.5t20 -48.5q0 -20 -16 -33t-31 -13q-6 0 -12 1t-10.5 4t-4.5 6q0 1 8 6t15 15.5t7 28.5q0 36 -47.5 56.5t-107.5 20.5q-46 0 -93 -12.5t-75 -33.5 q-62 -48 -100 -187q-15 -54 -15 -92q0 -63 42.5 -95t104.5 -32q22 0 48.5 3.5t60 14.5t60 28.5t44.5 48t18 69.5q0 55 -40 90t-108 35q-49 0 -103.5 -22t-88.5 -58l9 32q77 66 185 66q82 0 140 -43t58 -110q0 -33 -13 -60t-35.5 -45t-49.5 -30.5t-59 -19.5t-59.5 -10 t-54.5 -3q-38 0 -72.5 6t-68 20t-53.5 41t-20 64z" />
<glyph unicode="7" horiz-adv-x="445" d="M72 407q0 26 23 45.5t63 19.5q39 0 73.5 -10t55.5 -22.5t49.5 -22.5t57.5 -10q19 0 37 5q-1 -2 -6 -6.5t-10 -8.5l-5 -3q-20 -4 -26 -4q-37 0 -72 16.5t-71.5 33t-75.5 16.5q-61 0 -61 -55q0 -11 2.5 -21t8 -16.5t11.5 -6.5t6 8q0 2 -0.5 7t-0.5 9q0 7 5 7t15 -6.5 t10 -11.5q0 -3 -2 -7t-9.5 -8.5t-19.5 -4.5q-19 0 -38.5 17.5t-19.5 39.5zM135 0q15 47 33.5 88t35.5 71.5t42 61.5t43 50.5t48 44.5t46.5 38t49.5 37q7 5 11 8q11 10 21 27t18.5 28t21.5 14q6 0 18 -5t12 -10q-1 -5 -5.5 -10t-12 -10.5t-9.5 -7.5q-4 -3 -16 -17.5 t-23 -24.5q-137 -107 -201 -201.5t-64 -155.5v-12.5v-4.5q0 -9 -23 -9h-46z" />
<glyph unicode="8" horiz-adv-x="572" d="M73 145q0 32 24.5 57t64.5 39t77.5 23t76.5 15.5t49 9.5q123 34 123 85q0 22 -17.5 42.5t-45 32.5t-56.5 12q-21 0 -41 -8t-34.5 -20t-23 -25.5t-8.5 -25.5q0 -42 78 -82q-16 -5 -24 -6q-36 16 -63 39t-27 50q0 30 49.5 62t99.5 32q57 0 105 -33t48 -75q0 -33 -47 -62 t-100 -38q-71 -11 -121.5 -24.5t-79.5 -26t-45 -29t-20.5 -30.5t-4.5 -33q0 -52 47.5 -81.5t114.5 -29.5q52 0 95.5 16t70.5 40.5t42 50.5t15 49q0 53 -83 87q6 1 11 2t8.5 2.5t5.5 2t3 1.5h1q109 -36 109 -102q0 -21 -10 -43t-31 -44t-51 -39t-74 -27.5t-95 -10.5 q-99 0 -157.5 41.5t-58.5 103.5z" />
<glyph unicode="9" horiz-adv-x="595" d="M72 133q0 27 15.5 38.5t27.5 11.5q27 0 27 -18l-6 -5t-11.5 -18t-5.5 -35t12.5 -39.5t33 -28t43 -15.5t44.5 -5q34 0 62.5 5.5t50.5 13t40.5 22t31.5 26t24.5 32t17.5 33t13 36t10 34t8 33.5q14 67 14 102q0 28 -10.5 49t-24.5 31t-35.5 16t-35.5 7t-33 1 q-101 0 -150 -35t-49 -97q0 -23 6 -42.5t19.5 -37t39 -28t59.5 -10.5q45 0 99 16.5t85 51.5l-8 -38q-78 -43 -170 -43q-37 0 -67.5 9.5t-50 24t-33 33.5t-19 37.5t-5.5 36.5q0 63 66.5 102.5t171.5 39.5q54 0 94 -11t62 -30t32.5 -40.5t10.5 -46.5q0 -23 -3 -48.5t-11.5 -61 t-21.5 -67.5t-37.5 -65t-56 -56.5t-79 -38.5t-104.5 -15q-15 0 -35 2.5t-49 11t-52 22t-40 39t-17 58.5z" />
<glyph unicode=":" horiz-adv-x="216" d="M62 4q0 9 2 15.5t5.5 10.5t6.5 6.5t8 3.5t8 1.5t7 0.5q9 0 17 -6.5t8 -14.5q0 -27 -34 -27q-23 0 -28 10zM64 249q0 9 1.5 15.5t5 10.5t6.5 6.5t8 3.5t8 1.5t7 0.5q9 0 17 -6.5t8 -14.5q0 -27 -34 -27q-23 0 -27 10z" />
<glyph unicode=";" horiz-adv-x="216" d="M19 -82q7 8 15.5 17.5t14 15.5t11 12.5t8 12.5t2.5 12q0 19 -30 24q50 39 58 39q9 0 18 -10t9 -22q0 -16 -26 -44q-25 -27 -79 -59zM64 249q0 9 1.5 15.5t5 10.5t6.5 6.5t8 3.5t8 1.5t7 0.5q9 0 17 -6.5t8 -14.5q0 -27 -34 -27q-23 0 -27 10z" />
<glyph unicode="&#x3c;" horiz-adv-x="331" d="M27 292l250 124l28 -38q-118 -46 -260 -109zM63 245l27 13l184 -238l-46 -23q-99 156 -165 248z" />
<glyph unicode="=" horiz-adv-x="467" d="M28 204q112 -2 233 -2q81 0 137 8q9 -9 20 -34q-49 -3 -96 -3q-8 0 -104 1t-168 1q-2 0 -5.5 5t-8 12.5t-8.5 11.5zM45 290q31 0 123.5 -0.5t110.5 -0.5q80 0 137 8q14 -15 19 -34q-65 -4 -95 -4q-8 0 -104 1.5t-168 1.5q-2 0 -5.5 5t-8.5 12.5t-9 10.5z" />
<glyph unicode="&#x3e;" horiz-adv-x="360" d="M28 30l294 238l20 -16q-117 -99 -276 -252zM95 386l25 31l179 -131l-25 -21q-55 39 -179 121z" />
<glyph unicode="?" horiz-adv-x="461" d="M65 504q12 89 154 89q217 0 217 -155q0 -85 -138 -132q-11 -4 -27.5 -9.5l-25.5 -8.5t-21.5 -7.5t-19.5 -7t-16 -7t-13.5 -7.5t-9 -7.5t-6 -8.5t-1.5 -9q0 -8 3 -19t6.5 -22t3.5 -18q0 -3 -10 -3q-8 0 -21.5 2t-23.5 4.5t-10 4.5q0 1 1 5.5t1 6.5t1.5 7t2.5 8.5t3 9 t4 9.5t5.5 10t7 11t8.5 10.5t11 10.5q14 14 114 52q50 20 82.5 55t32.5 60q0 36 -10.5 63t-26 42t-37.5 24t-40 11.5t-39 2.5q-55 0 -88.5 -21.5t-33.5 -55.5q0 -13 14 -21t28 -11.5t14 -6.5q0 -2 -7.5 -5t-13.5 -3q-8 0 -32 6q-43 11 -43 41zM89 4q0 13 3.5 21.5t10 11.5 t11 4t11.5 1q9 0 17 -6.5t8 -14.5q0 -27 -34 -27q-23 0 -27 10z" />
<glyph unicode="@" horiz-adv-x="596" d="M32 168q0 95 74 157.5t188 62.5q74 0 135 -22.5t98.5 -70t37.5 -111.5q0 -41 -43.5 -79t-125.5 -38q-20 0 -35 9.5t-15 30.5v2l-7 -7l-6.5 -6.5t-7.5 -5.5t-11 -6q-32 -14 -58 -14q-27 0 -46.5 8.5t-28.5 22t-12.5 25t-3.5 23.5q0 46 46.5 87t113.5 41q23 0 44.5 -9.5 t21.5 -16.5q10 13 25 13q5 0 10 -3.5t5 -11.5l-43 -94q-1 -1 -5.5 -10t-7 -15t-5 -15t-2.5 -16q0 -22 34 -22q13 0 28.5 3.5t34 12t33.5 20.5t24.5 31.5t9.5 42.5q0 37 -11.5 69t-37.5 60.5t-74.5 45t-113.5 16.5q-108 0 -170.5 -56t-62.5 -155q0 -89 67 -144t170 -55 q86 0 139.5 27.5t96.5 75.5h3l-7.5 -12.5t-24 -27t-44 -34.5t-68 -27t-95.5 -12q-112 0 -189.5 58.5t-77.5 151.5zM204 142q0 -34 13.5 -50.5t28.5 -16.5q67 4 109 79q11 21 15 73q0 20 -12 31.5t-29 11.5q-43 0 -84 -44.5t-41 -83.5z" />
<glyph unicode="A" horiz-adv-x="1045" d="M54 127q0 24 20.5 42t61.5 18q36 0 65.5 -15.5t44.5 -49.5q9 -19 9 -29q-8 -10 -28 -10q-15 0 -21 6v29q0 28 -17 43t-45 15q-25 0 -37.5 -20.5t-12.5 -46.5q0 -28 20 -48.5t51.5 -30.5t59.5 -14.5t52 -4.5q35 0 55 2t49 13.5t52.5 28t66 53.5t88 82.5t119.5 122.5 q42 44 119 145q-14 -57 -17 -90l-75 -84q-84 -93 -144 -149t-109.5 -86t-86.5 -39.5t-85 -9.5q-61 0 -108.5 9t-74.5 22t-44 31t-22.5 33.5t-5.5 31.5zM297 368q0 35 29.5 51t74.5 16q18 0 39 -3.5t38.5 -8.5t41 -14.5t38.5 -16t39 -19t34.5 -18t33 -18.5t26.5 -15l-10 -11 q-67 40 -144 75t-112 35q-34 -1 -59.5 -18t-25.5 -43q0 -31 10 -54t22.5 -33.5t32 -16.5t30.5 -7t26 -1q7 1 9.5 4t2.5 8.5t1 7.5q3 2 13 2q8 0 24 -8t16 -13q0 -9 -11.5 -14t-28.5 -5q-83 0 -136.5 43t-53.5 95zM715 59q0 24 18 43t61 19q25 0 42 -6l1 -17q-15 6 -31 7 q-33 0 -45.5 -18t-12.5 -35q0 -16 13.5 -28t42.5 -12q9 0 16.5 3t13 7t9.5 11t6 12.5t3.5 13t2 12t1 10.5l0.5 6q0 66 -19 140q24 -7 39 -9q1 -1 5 -16t4.5 -18.5t3.5 -17t4 -20.5t3 -19.5t2.5 -24t0.5 -23.5q-1 -10 -3 -18q-4 -15 -7.5 -22.5t-13 -18t-26.5 -15.5t-43 -5 q-46 0 -68.5 17t-22.5 42zM751 275l9 11q30 -15 70 -29q44 -15 74 -15q24 0 36.5 9t13.5 20t7.5 20t20.5 9q11 0 17.5 -7.5t6.5 -18.5q0 -17 -20.5 -32t-55.5 -15q-81 0 -179 48zM826 304q0 50 8 82q16 91 28 122q2 3 4.5 11t3.5 10t3.5 8t3.5 8t3 7t3 7t3.5 6t4.5 6.5 t4.5 5.5t5.5 6q17 12 35 12q20 0 35 -10.5t15 -23.5q0 -6 -7.5 -20.5t-19 -31t-22.5 -32t-19 -25.5l-8 -10q-41 -56 -41 -148q0 -17 1 -30q-24 4 -43 11q-1 13 -1 29zM911 38q2 7 4 20q2 -3 4.5 -7.5t4 -8t4 -7.5t4.5 -7t4.5 -6t5.5 -5t6.5 -4t7 -3t8.5 -1q17 0 30.5 10 t36.5 44l1 -1q-29 -62 -71 -62q-30 0 -50 38z" />
<glyph unicode="B" horiz-adv-x="1200" d="M109 626q0 36 30 57t95 21q46 0 104 -13t112.5 -32t108.5 -38t107.5 -32t93.5 -13q43 0 91.5 10t82.5 10q50 0 90 -20.5t62.5 -51t34.5 -62.5t12 -60q-1 -25 -15.5 -52.5t-34.5 -46.5q-23 12 -50 23q41 40 41 86q0 20 -6.5 44t-23 50t-38.5 41q-37 23 -91 23h-14 q-94 -11 -131 -11q-62 0 -140.5 19.5t-140 43t-130.5 43t-115 19.5q-49 0 -72 -17.5t-23 -43.5q0 -45 35 -81t109 -71q80 -32 135 -32q17 0 31.5 4t23.5 9t23.5 11.5t29.5 10.5q65 0 99 -24q-7 -7 -29.5 -13t-57 -9.5t-73.5 -3.5q-127 0 -232 52q-39 19 -67.5 43t-42 45.5 t-19 36.5t-5.5 25zM179 134q0 22 17 39.5t59 17.5q27 0 48.5 -5t34.5 -14t21.5 -18.5t12.5 -20.5t5.5 -18t1.5 -13q0 -14 -26 -14q-23 0 -23 13v22q0 21 -18 40t-49 19q-47 0 -47 -51q0 -29 16.5 -51t39 -34t50.5 -20t47.5 -10t33.5 -2q35 0 63.5 6.5t67.5 28.5t84 62 q14 14 30.5 32t29 33t28.5 36t23.5 31.5t21.5 30.5t15 22q20 28 37 57.5t31 60t22.5 50t21 49.5t15.5 39l44 -1q7 -7 11 -17q-18 -40 -32.5 -72t-26.5 -56l-19.5 -39t-17 -31t-12.5 -21.5t-13 -20t-12 -17.5q-7 -11 -25 -35t-45 -57.5t-60 -67.5t-60 -53q-68 -44 -104.5 -54 t-101.5 -10q-60 0 -108 12.5t-76 33t-42 43.5t-14 45zM832 266q17 23 38 62q23 6 51 6q65 0 149 -42q33 -16 57.5 -45t36 -62.5t11.5 -67.5q0 -14 -3 -27.5t-14 -30.5t-28.5 -29.5t-49.5 -21t-75 -8.5q-53 0 -100 27q-17 10 -34 27.5t-26 31t-9 17.5q0 9 14 9t31 -7 q6 -3 11 -12t9 -18.5t12.5 -21t19 -20t30 -14.5t45.5 -6q14 0 24 1t28 6.5t29.5 16t21 32t10.5 51.5q0 93 -83 150q-8 5 -27 11.5t-38.5 11.5t-28.5 5q-50 0 -54 -14q18 -7 29 -7q13 0 29 6q29 -5 70 -23q-43 -20 -99 -20q-47 0 -87 26z" />
<glyph unicode="C" horiz-adv-x="671" d="M72 316v2q40 4 62.5 7t56.5 11.5t74 22.5l-19 -25q-91 -15 -174 -18zM191 157q0 48 27 97t58 85q6 6 21 24l20 24t18.5 20.5t19.5 21t18.5 18.5t21.5 19t22 17t26 18.5t28 17.5q130 76 204 76q36 0 36 -21v-5q0 -5 -3.5 -9t-19.5 -14.5t-46 -27t-84 -46.5l-150 -79 q19 22 41 40l85 49q118 64 128 76q-86 -17 -164 -63q-49 -28 -155 -142q-26 -27 -60 -87t-34 -98q0 -63 57.5 -106.5t175.5 -43.5q60 0 86 22t26 51q0 26 -13 43.5t-33 17.5q-6 0 -10.5 -0.5t-5.5 -0.5t-1 2t3 5t10.5 5t17.5 2q32 0 60 -22.5t28 -56.5q0 -14 -7 -27 t-23.5 -27.5t-52 -23t-85.5 -8.5q-66 0 -123.5 15.5t-92.5 39.5t-55 51t-20 51z" />
<glyph unicode="D" horiz-adv-x="1028" d="M126 628q0 14 6 34.5t18.5 47t40.5 51.5t65 40q53 20 136 20q38 0 67.5 -2t80.5 -11.5t97 -27t106 -51.5t118 -82q90 -75 147 -174q46 -81 46 -214q0 -23 -8.5 -54t-28 -67.5t-46 -67t-69 -51t-91.5 -20.5q-66 0 -169 60l8 13q98 -57 161 -57q28 0 60.5 21t61.5 55.5 t48.5 86.5t19.5 107q0 84 -31 159q-30 78 -116 163q-52 53 -110.5 92.5t-104 59t-92.5 31.5t-70.5 14.5t-41.5 2.5q-60 0 -90.5 -6t-68.5 -23q-36 -16 -65 -66t-29 -89q0 -40 26.5 -81.5t64 -71t78.5 -48t70 -18.5q28 0 41.5 11.5t13.5 30.5q0 13 -12.5 29.5t-18.5 35.5 q0 15 9.5 24t17.5 10.5t17 1.5q26 0 37 -18.5t11 -40.5q0 -33 -26 -71q-18 -28 -71 -28q-57 0 -130.5 35.5t-128.5 93t-55 110.5zM419 126q0 12 4.5 23.5t15 19t23.5 7.5q15 0 23.5 -1t20.5 -7t17 -9t25 -18t32 -23l-6 -15q-59 41 -69.5 47.5t-16.5 6.5q-11 0 -17.5 -10 t-6.5 -24q0 -4 1 -12.5t4 -21.5t8.5 -26t12.5 -24.5t18 -18.5t23 -7q5 0 10.5 2.5t9.5 6t8.5 10t8 12.5t8 15t7.5 15.5t7.5 16t6.5 15.5q47 93 111 248t71 212q49 -2 49 -29q0 -6 -32 -91t-80.5 -197t-82.5 -166q-30 -44 -51.5 -63t-50.5 -19q-27 0 -50 14t-36 35t-19.5 41 t-6.5 35z" />
<glyph unicode="E" horiz-adv-x="630" d="M54 204q0 47 36.5 88.5t105.5 65.5q1 -8 5 -15q-24 -14 -42 -34.5t-28 -44.5t-10 -48q0 -27 5.5 -52t21 -53.5t40 -49t66.5 -34t97 -13.5q15 0 33 2.5t45 10t53.5 27t43.5 47.5q2 -6 4.5 -20t3.5 -17q-23 -22 -48.5 -36t-51.5 -19.5t-43.5 -7t-40.5 -1.5 q-78 0 -143.5 21.5t-109 69t-43.5 113.5zM209 429q0 16 3.5 34.5t16 43t32.5 43t56 32t83 13.5q40 0 70.5 -10t47 -24t27 -31t13.5 -27.5t3 -17.5q0 -26 -19.5 -37.5t-41.5 -11.5q-43 0 -43 10q0 4 5.5 5.5t15 1.5t14.5 1q20 5 25 13.5t5 21.5q0 26 -20.5 45t-45 26t-47.5 7 q-32 0 -57.5 -8t-41 -21.5t-26.5 -29t-16 -34.5t-7 -34t-2 -30q0 -64 22 -102q19 -31 38 -43.5t48 -12.5q35 0 52.5 24.5t17.5 48.5q0 56 -80 56q-37 0 -74 -9l-1 15q37 9 75 9q56 0 90 -23.5t34 -55.5q0 -31 -18.5 -50.5t-42 -25.5t-51.5 -6q-24 0 -45 7t-27 11t-22 16 q-33 26 -55 83q-11 41 -11 77zM530 190q0 4 1 5q0 3 21 5.5t34 2.5q5 0 5 -15q-6 -46 -9 -57q-4 17 -6 17q-6 0 -6 -34q0 -26 3 -41t7.5 -20t11.5 -5t11.5 2t6 3.5t4 5.5l2.5 4l2 -1q0 -1 -3 -6.5t-8.5 -11t-11.5 -5.5q-40 0 -44 43q-3 13 -5.5 27.5t-4.5 21.5 q-11 36 -11 59z" />
<glyph unicode="F" horiz-adv-x="1017" d="M109 630q0 33 33.5 53.5t93.5 20.5q44 0 110 -20.5t125 -45t134 -45t134 -20.5q58 0 134 5q42 3 135 20t126 17q19 0 40 -1.5t44.5 -5t41.5 -9.5t29.5 -15t11.5 -21q0 -3 -1.5 -8.5t-8 -12t-15.5 -6.5q-16 0 -29.5 7.5t-25.5 17t-50 17t-97 7.5q-27 0 -93.5 -13.5 t-107.5 -15.5q-91 -3 -98 -3q-62 0 -127 14t-119 33.5t-103.5 39.5t-97.5 34t-84 14q-41 0 -69.5 -17.5t-28.5 -44.5q0 -50 39.5 -93.5t103 -67.5t132.5 -24q28 0 59.5 16.5t44.5 20.5q2 0 11 -0.5t14.5 -0.5t15.5 -1.5t18.5 -4t18.5 -7.5t20 -11q-12 -11 -56 -19t-102 -8 q-63 0 -116.5 9.5t-89.5 25t-64 35.5t-43.5 40t-26 39.5t-13.5 32.5t-3 22zM225 134q0 26 18.5 41t33 17t28.5 2q32 0 56 -12.5t35.5 -30t17 -31.5t5.5 -23q-1 0 -4.5 -2.5t-6 -4t-8 -3t-11.5 -1.5q-17 0 -24 6q1 8 1 23q0 60 -58 60q-20 0 -33.5 -16t-13.5 -43 q0 -38 57 -70t122 -32q67 0 115 18.5t103 80.5q14 16 26 34t22.5 38t17.5 34t16 35t13 29q40 77 111 254q27 1 43 2q7 -7 11 -17q-42 -104 -101 -238q-21 -45 -32 -67.5t-42.5 -70t-64.5 -80.5q-68 -66 -237 -66q-90 0 -153 42t-63 92zM649 247q8 23 23 40t32 18q15 0 32 -2 l-10 -19q-12 -3 -20.5 -11t-11.5 -16.5t-7.5 -15t-8.5 -6.5q-6 0 -16 5.5t-13 6.5zM833 263l7 14q61 -18 88 -18q22 0 37 5.5t20.5 11.5t14 18.5t12.5 17.5q23 -16 29 -27q-14 -15 -28 -24t-32.5 -13.5t-44.5 -4.5q-34 0 -103 20z" />
<glyph unicode="G" horiz-adv-x="750" d="M54 -296q0 58 67 58q58 0 100 -34q5 -3 9 -8t6.5 -9t6 -10t6.5 -9q8 -10 10 -26q-1 0 -3.5 -2t-6 -4t-9.5 -3.5t-13 -1.5q-13 0 -21 7q0 6 1.5 16t1.5 14q0 16 -15 36q-3 5 -10 9t-14.5 6.5t-16 4t-14.5 1.5q-18 0 -30.5 -21t-12.5 -46q0 -22 12 -39.5t49 -35.5 q64 -30 124 -30q42 0 80 19q18 9 35.5 27.5t34.5 46.5t32.5 58.5t33.5 71.5t33 76.5t35 82.5t35 81q22 50 50.5 119.5t43.5 101.5q7 11 21 11q12 0 23 -9t11 -25q-1 -10 -3 -17.5t-5 -14.5t-5.5 -12t-7 -13.5t-7.5 -14.5q-4 -8 -31 -46q-26 -47 -105.5 -224.5t-92.5 -200.5 q-38 -75 -84 -104q-21 -11 -58 -19.5t-69 -8.5q-46 0 -98.5 18.5t-90.5 52t-38 70.5zM190 210q0 91 21 148t63 111q10 14 30.5 31.5t54.5 40.5t83 38.5t100 15.5q55 0 96 -12t61.5 -30.5t30 -36t9.5 -32.5q0 -14 -19 -59q-19 -40 -44.5 -74.5t-48.5 -55t-42.5 -35.5 t-31.5 -20l-12 -6q-6 15 -6 16q0 4 2 6q4 2 11 7t26.5 21t37.5 34.5t39 48.5t35 62q11 28 11 55q0 37 -28 63t-95 26q-51 0 -96 -13.5t-76 -33.5t-57 -47.5t-41 -50.5t-27 -47q-1 -4 -5 -15.5t-5.5 -15.5t-5 -14.5t-5 -16.5t-4 -17t-4 -19.5t-3.5 -21.5t-3.5 -25.5t-3 -28.5 t-2.5 -34q0 -30 10.5 -55.5t28 -42t39 -29t45 -19t44 -9.5t38.5 -3q77 0 138 51l-20 -47q-48 -19 -118 -19q-33 0 -66 6t-67 21t-59.5 38t-42 60.5t-16.5 84.5z" />
<glyph unicode="H" horiz-adv-x="1080" d="M109 131q0 26 21 46t56 20q53 0 86 -30t33 -64q-11 -10 -27 -10t-23 7q0 11 3.5 20t3.5 15q0 15 -12 30q-7 8 -22.5 14t-28.5 7q-23 0 -38 -22.5t-15 -54.5q0 -27 46 -60.5t120 -33.5q36 0 56.5 4t43.5 20t50 48q8 9 18 24t20 33t24 44t26.5 49t30 56t31.5 58l68 131 q-8 -3 -23.5 -10t-26 -11.5t-27 -8t-32.5 -3.5q-56 0 -97 10.5t-64 25t-43.5 29.5t-48 25.5t-63.5 10.5q-29 0 -50.5 -11t-32.5 -29.5t-16 -37.5t-5 -39q0 -23 7.5 -40t20.5 -18q6 0 9 4t4 11.5t2 24.5q0 10 6 10q7 0 19.5 -7.5t12.5 -13.5q0 -15 -15 -25.5t-35 -10.5 q-26 0 -49.5 26.5t-23.5 58.5q0 37 38.5 76t103.5 39q38 0 70.5 -10.5t56.5 -25.5l48 -30t56.5 -25.5t71.5 -10.5q16 0 32 3.5t35.5 12.5t32 15t37.5 21q10 7 19 20.5t14.5 24.5t15.5 20.5t22 11.5q19 -2 24 -7t5 -15q0 -17 -31 -44q-12 -11 -21 -28t-31.5 -63.5 t-55.5 -102.5l-7 -12q-14 -24 -34 -58.5t-35.5 -62.5t-31 -55t-26.5 -45t-17 -25q-21 -27 -45.5 -44t-51.5 -23.5t-42.5 -8t-39.5 -1.5q-88 0 -150.5 41.5t-62.5 89.5zM334 303q0 17 8 38q12 20 43.5 32t64.5 12q63 0 140 -26l-7 -12q-68 24 -119 24q-45 0 -69 -21.5 t-24 -40.5q0 -23 18 -50t41 -27q2 0 5 0.5t5 0.5q11 2 11 17v3q0 6 1 7q7 4 17 4q7 0 12.5 -3.5t5.5 -7.5q0 -6 -17.5 -17.5t-33.5 -11.5q-34 0 -68 25.5t-34 53.5zM672 312l7 11q21 -8 57 -24t66.5 -28.5t59.5 -23.5q65 -24 107 -24q47 0 51 18q1 4 2.5 12.5t3 13t5 10 t10 8t16.5 2.5q12 0 17.5 -9t5.5 -19q0 -50 -105 -50q-59 0 -120 25zM775 137q0 26 33 95l38 -15q-34 -66 -34 -86q0 -57 42 -87t102 -30q8 0 15 2t12.5 4.5t11 8l9 9t8.5 10t6.5 9.5t5.5 10t5 8q2 1 5 1q6 0 13 -7.5t13 -7.5q5 0 6 2l2 -1q-13 -23 -42 -42.5t-70 -19.5 q-75 0 -128 35t-53 102zM831 278q54 94 173 258q11 16 23.5 28t21.5 17.5t18 8.5t12.5 3.5t5.5 0.5q17 0 31.5 -12t23.5 -33.5t9 -46.5q0 -10 -13 -10q-17 0 -17 21v13q0 34 -21 41h-8t-6 -0.5t-4.5 -1t-4 -2.5t-3.5 -3t-3.5 -4t-4.5 -5t-5.5 -6.5t-6.5 -8.5 q-114 -160 -180 -273z" />
<glyph unicode="I" horiz-adv-x="641" d="M109 464q0 26 15.5 49.5t46.5 39t70 15.5q38 0 73.5 -11t57.5 -25t48.5 -29.5t44.5 -21.5q39 -13 83 -13q41 0 96 27q0 -4 -0.5 -7.5t-1.5 -6.5l-2 -6t-2.5 -5t-2.5 -4t-1 -3l-1 -1q-26 -8 -59 -8q-42 0 -75.5 5.5t-55.5 14t-41 19.5t-35 21.5t-32.5 19t-39.5 14t-50 5.5 q-20 0 -35.5 -6t-25 -16.5t-16 -21.5t-9 -23t-3.5 -19.5t-1 -12.5q0 -20 8.5 -45.5t25.5 -25.5q6 0 8 3.5t2 12.5q0 4 -0.5 12t-0.5 11q0 11 5 11q7 0 22 -9.5t15 -17.5q0 -12 -12 -24.5t-34 -12.5q-27 0 -56 29.5t-29 65.5zM145 142q0 24 28.5 39t61.5 15q31 -1 54.5 -13.5 t35.5 -29.5t17.5 -30.5t5.5 -22.5q-10 -12 -29 -12q-13 0 -21 7q-2 4 -2 15q0 14 -2 25t-7.5 22.5t-18.5 18t-33 6.5q-15 0 -26 -7t-17 -19t-6 -27q0 -29 17 -51.5t40 -34t51 -18.5t45.5 -9t29.5 -2q55 0 80 18q39 29 84 117t88 195t59 136q9 15 17.5 45t20 47t36.5 23 q10 0 21 -6t11 -16q-5 -28 -15 -44q-28 -47 -69 -135.5t-72.5 -159t-68.5 -132t-65 -73.5q-62 -29 -125 -29q-88 0 -157 44.5t-69 97.5z" />
<glyph unicode="J" horiz-adv-x="720" d="M54 -287q0 24 28.5 39t61.5 15q31 -1 55 -13.5t35.5 -29.5t16.5 -30.5t5 -22.5q-9 -12 -28 -12q-13 0 -22 7q-1 4 -1 15q0 14 -2 25t-8 22.5t-19 18t-32 6.5q-22 0 -35.5 -15t-13.5 -38q0 -29 17 -51.5t39.5 -34t51 -18.5t46 -9t29.5 -2q56 0 80 19q25 18 57.5 75 t72.5 149.5t78.5 188t93.5 229.5t99 234q5 11 11 28.5t10.5 29.5t11.5 25t17 21t24 11q6 0 13 -2.5t13 -7.5t6 -12q-6 -28 -15 -44q-28 -48 -95.5 -202.5t-131 -306.5t-127.5 -280t-91 -140l-6 -3q-21 -10 -32.5 -14t-34.5 -8t-53 -4q-84 0 -154.5 44.5t-70.5 97.5zM189 464 q0 26 15.5 49.5t46.5 39t70 15.5q38 0 73.5 -11t57.5 -25t48.5 -29.5t44.5 -21.5q39 -13 83 -13q41 0 96 27q0 -4 -0.5 -7.5t-1.5 -6.5l-2 -6t-2.5 -5t-2.5 -4t-1 -3l-1 -1q-26 -8 -59 -8q-42 0 -75.5 5.5t-55.5 14t-41 19.5t-35 21.5t-32.5 19t-39.5 14t-50 5.5 q-20 0 -35.5 -6t-25 -16.5t-16 -21.5t-9 -23t-3.5 -19.5t-1 -12.5q0 -20 8.5 -45.5t25.5 -25.5q6 0 8 3.5t2 12.5q0 4 -0.5 12t-0.5 11q0 11 5 11q7 0 22 -9.5t15 -17.5q0 -12 -12 -24.5t-34 -12.5q-27 0 -56 29.5t-29 65.5z" />
<glyph unicode="K" horiz-adv-x="1037" d="M109 431q0 13 7 29t21.5 32t41.5 26.5t61 10.5q44 0 87.5 -15t73 -33.5t68 -33.5t74.5 -15q16 0 34 7t30.5 15.5t35.5 24.5t37 25q-1 -7 -3 -15t-4 -13l-2 -5q-7 -3 -35.5 -21t-50 -26.5t-44.5 -8.5q-24 0 -50 7.5t-48 18t-47.5 23.5t-48.5 23.5t-51.5 18t-55.5 7.5 q-26 0 -44 -8.5t-26.5 -23.5t-12 -30t-3.5 -32q0 -26 9 -47.5t26 -21.5q11 0 11 14q0 5 -2 14t-2 12q0 4 4 7q12 0 21.5 -5t13 -9t4.5 -7q0 -16 -10 -25.5t-19.5 -12t-19.5 -2.5q-27 0 -54 30.5t-27 64.5zM428 43q0 8 3 14q6 11 57.5 63.5t66.5 65.5q33 36 48 48 q23 20 40.5 35l24.5 21t13 11t11 10q6 -2 10 -7t8 -13t6 -11q-40 -46 -78 -75q-5 -3 -16 -11t-18.5 -14.5t-13.5 -15.5q-53 -84 -76 -142q-7 -20 -31 -20q-19 0 -37 12t-18 29zM614 262q19 31 40.5 106t39.5 112q1 2 5 15t7 20q3 4 11 23.5t19.5 34.5t28.5 19q15 -2 22 -8 t7 -13q0 -19 -29 -45q-21 -21 -37 -76q-2 -6 -16 -47t-17 -52q26 0 63 -31q4 -3 8.5 -8.5t8.5 -13t7 -14.5t6 -18.5t5.5 -19.5t5 -22.5t4 -22.5l4.5 -24t4 -23q4 -18 6.5 -31t6.5 -28.5t8 -26.5t9.5 -21.5t12 -17.5t14.5 -11t17 -4q31 0 53 16l6.5 6.5t7.5 7t8 5t11 2.5h18 q15 0 21.5 2t13.5 10l1 -1q-24 -41 -51.5 -51.5t-82.5 -10.5q-30 0 -52 12t-36 34t-22 45.5t-14 54.5q-3 16 -8 44.5t-8 43.5t-8.5 32.5t-11.5 27.5q-12 20 -24 29q-10 7 -16 8q0 -1 -2 -4t-2 -5q-7 -8 -73 -60zM742 355l256 243q103 106 222 106q35 0 62 -5t42 -12t25 -16 t13 -15.5t3 -12.5q0 -4 -0.5 -7.5t-2.5 -8t-5.5 -8t-8.5 -7.5t-12 -6.5t-17 -4t-21 -1.5q-41 0 -77 13q9 -2 35 -2q15 0 29 3t26 12.5t12 23.5q0 41 -88 41q-89 0 -157 -63l-307 -296q-14 14 -29 23z" />
<glyph unicode="L" horiz-adv-x="850" d="M54 107q0 16 4.5 30.5t19.5 31t39 28.5t66 20t98 8q134 0 252 -51q43 -22 73 -46.5t42.5 -42t20.5 -32.5t16 -22.5t21 -7.5q11 0 16.5 0.5t12.5 4t16 10.5q2 1 5.5 4t5 4t5 2.5t7 2t8.5 0.5h18q5 0 9.5 0.5t7.5 1l6 1t4.5 1.5l3 2t2 2t2 2t1.5 2l1 -1q-24 -41 -50 -51.5 t-82 -10.5q-25 0 -39 8t-22.5 23.5t-18.5 33.5t-37.5 42.5t-70.5 46.5q-58 31 -115 43t-95 12q-21 0 -42.5 -2t-50 -10t-50 -20t-36 -34.5t-14.5 -52.5q0 -32 28 -53t77 -21q38 0 78 16.5t72.5 42.5t52.5 46t37 40q22 -9 47 -22q-17 -22 -38 -41.5t-55.5 -44t-83 -39 t-102.5 -14.5q-69 0 -121 30t-52 77zM481 290l61 34l-10 -15q-45 -19 -51 -19zM491 208l74 114q45 76 64 100q19 27 44.5 55t56 55t55.5 40q47 23 81 23q14 0 20 -10t6 -22q0 -9 -6 -20t-20 -24t-27 -23.5t-35 -25.5t-35 -23t-37.5 -23.5t-32.5 -19.5l23 31q100 65 126 87 t26 43q0 8 -10 8q-28 -4 -53.5 -20.5t-39 -30.5t-35.5 -41l-2 -2t-2 -2.5t-2 -2.5q-14 -17 -26.5 -34.5t-25 -35.5t-22.5 -31q-8 -11 -49 -80t-65 -105q-24 13 -51 20z" />
<glyph unicode="M" horiz-adv-x="1588" d="M109 603q0 38 28 69.5t78 31.5q33 0 65 -11.5t53.5 -25t74 -49.5t88.5 -59q93 -59 143 -59q18 0 53.5 16t85.5 37t93 30q55 12 107 12q25 0 45.5 -3t45.5 -12.5t45 -31.5t32 -56q-14 -6 -40 -28q2 10 2 20q0 43 -27.5 71t-92.5 28q-53 0 -125 -26q-41 -15 -81.5 -31.5 t-57 -23t-36.5 -11.5t-40 -5q-15 0 -30 2.5t-27 5.5t-27.5 9.5t-24.5 10.5t-24 13t-20 12.5t-19.5 12.5t-15.5 10q-1 0 -31 22t-63.5 44t-75.5 41.5t-70 19.5q-20 0 -35 -11.5t-21.5 -28.5t-9.5 -30.5t-3 -23.5q0 -38 19.5 -67.5t49.5 -29.5q14 0 19 9l35 -8 q-1 -2 -3.5 -6.5t-4.5 -9t-5.5 -10t-6 -9.5t-6 -7t-6.5 -3q-58 0 -95.5 48t-37.5 101zM124 154q0 17 19 35t61 18q28 0 50 -9t34.5 -21.5t21 -27.5t11.5 -25t3 -16q-10 -9 -28 -9q-17 0 -21 6q-2 6 -2.5 23t-3 29t-17 23.5t-41.5 13.5q-22 0 -35.5 -22.5t-13.5 -47.5 q0 -41 61.5 -75.5t122.5 -34.5q58 0 102.5 22.5t113.5 85.5q59 55 107.5 117t74.5 107t46 91t25 61.5t8 26.5q63 21 67 21q1 -5 1 -12q0 -1 -5 -16.5t-17.5 -44.5t-29.5 -64.5t-44 -79.5t-58.5 -86.5t-75.5 -87.5t-92 -81q-76 -49 -113.5 -61.5t-107.5 -12.5 q-64 0 -116 25.5t-87 66.5q-21 24 -21 62zM834 18q0 24 14 58.5t36.5 71t49.5 75.5t54.5 73t50 61t36.5 43l14 16q18 25 62 60q9 6 26 16q54 34 79.5 48t66 30t83.5 20.5t106 4.5q25 0 61.5 -6.5t76.5 -6.5q33 0 35 -16q-10 0 -44 -6q-36 -6 -55.5 -10t-59 -19t-72.5 -38 l-3 -2q-14 -13 -27 -26t-42 -47t-49 -66.5t-36.5 -78.5t-16.5 -88q0 -52 9 -86t29.5 -53t48 -26t68.5 -7q20 0 34 6t20.5 13t15 13t17.5 6h17q11 0 18 1.5t9 2.5t5 4t3 4l2 -1q-19 -35 -47 -49t-68 -14q-3 0 -9.5 0.5t-10.5 0.5q-109 0 -159.5 44.5t-50.5 150.5q0 33 9.5 68 t25 64t34 57t37 49t34 37t24.5 25l10 8q29 21 63.5 36t64 22t71.5 14q-30 4 -89 4q-81 0 -157 -28t-127.5 -64.5t-95.5 -83.5q-26 -27 -51 -55.5t-44.5 -53.5t-34.5 -45t-28 -38t-17 -23q-12 -19 -34.5 -64.5t-27.5 -65.5q55 69 76 99q1 3 14.5 21t25 36t18.5 33 q45 63 93 106q-16 -40 -40.5 -88t-55 -101t-66.5 -97.5t-68 -66.5q-36 0 -48.5 3.5t-12.5 14.5z" />
<glyph unicode="N" horiz-adv-x="1110" d="M54 132q0 19 9 33t23.5 19.5t25 7.5t18.5 2q99 0 119 -91q0 -13 -25 -13q-15 0 -25 6q2 14 2 25q0 55 -60 55q-17 0 -27.5 -5t-14.5 -15.5t-5.5 -19t-1.5 -22.5q0 -27 33.5 -50.5t76 -35.5t77.5 -12q25 0 42 1.5t48 10.5t57 25t63 48.5t71.5 78t77 115.5t84.5 159 q13 30 14 32q7 15 11.5 25.5t7 16.5t3.5 12t1.5 8.5t1 9.5t0.5 11q3 10 13 18t21 8q14 0 23 -5t11 -9.5t2 -7.5t-1 -6.5t-2.5 -6.5t-3.5 -6t-3 -5q-7 -24 -31 -80q-1 -2 -10.5 -25t-23.5 -55.5t-38 -75t-52.5 -85t-69.5 -84t-86.5 -73.5t-105 -51.5t-123.5 -19.5 q-95 0 -161 42.5t-66 89.5zM162 466q0 28 15.5 47.5t40.5 29.5t49.5 14t50.5 4q42 -1 74.5 -9.5t52.5 -21.5t35.5 -29t27.5 -32t24 -29t29 -21t39 -8q16 0 47.5 16t60.5 36l-13 -27q-58 -40 -94 -40q-28 0 -49.5 8.5t-36.5 22t-28 29.5t-27.5 32t-32 29.5t-44.5 22t-62 8.5 q-57 0 -83.5 -22.5t-26.5 -57.5q0 -34 18 -64.5t40 -30.5q24 0 36.5 6.5t14 14.5t2.5 14.5t4 6.5q6 0 17 -8.5t11 -18.5q0 -5 -3 -9.5t-10.5 -9t-23 -7t-36.5 -2.5q-50 0 -84.5 32.5t-34.5 73.5zM803 449q14 30 25 63q6 -18 23.5 -48t56 -97.5t81.5 -153.5q32 -52 41 -76 q14 -55 14 -60q0 -31 -17 -54t-33 -23q-17 0 -35.5 13t-18.5 39q0 7 11 40t14 37q4 -9 9 -9q6 0 6 12q0 10 -6 21zM995 240q48 215 137 338.5t180 125.5q68 0 101 -9.5t55 -35.5q1 -2 16 -17q-1 -5 -13.5 -8t-19.5 -3q-6 0 -9.5 1t-7 4t-6.5 6.5t-8.5 10t-11.5 12.5 q-24 25 -74 25q-31 0 -65.5 -21.5t-69.5 -65t-66 -104t-56.5 -146t-40.5 -182.5q-20 37 -41 69z" />
<glyph unicode="O" horiz-adv-x="667" d="M81 197q0 114 46 205.5t123.5 141.5t170.5 50q38 0 73.5 -10.5t60 -27.5t39.5 -38t15 -41q0 -28 -32 -95.5t-71 -109.5q-12 -13 -35 -24t-40 -16l-17 -5h-3v7q0 7 11.5 11t31 11.5t34.5 20.5q32 29 55 89.5t23 122.5q0 24 -16 42t-39.5 27t-43 13t-31.5 4 q-72 0 -130.5 -33.5t-96 -91t-58 -131.5t-20.5 -157q0 -30 16 -55.5t40 -41t54 -26.5t57.5 -15.5t51.5 -4.5q57 0 107 27.5t82.5 68.5t56.5 88.5t34.5 86t10.5 62.5q0 46 -17 77q-3 4 -3 10q0 9 3 21.5t3 21.5q1 -1 5 -3q19 -15 28.5 -25t19 -36t9.5 -63t-9.5 -80t-33 -92.5 t-58.5 -89.5t-93 -66.5t-130 -26.5q-34 0 -71 6.5t-75.5 21.5t-68.5 37t-49.5 56.5t-19.5 75.5z" />
<glyph unicode="P" horiz-adv-x="1086" d="M109 630q0 31 35 52.5t80 21.5q52 0 104.5 -16t124 -43t138.5 -43q77 -19 159 -19q35 0 90 5.5t84 5.5q92 0 151 -59t59 -150q0 -26 -7.5 -50.5t-25 -48t-51 -37.5t-80.5 -14q-62 0 -142 30l10 18q3 -1 12.5 -4.5t12.5 -4.5t11 -3.5t11.5 -3.5t10 -2.5t11 -2.5t10.5 -1.5 t11.5 -1t11.5 -0.5q15 0 30.5 1.5t37.5 9t38.5 19t28 35t11.5 54.5q0 19 -3.5 40t-15.5 48.5t-31.5 48.5t-54.5 36t-81 15l-78 -2q-100 0 -200 16q-64 13 -143 41t-137 47.5t-96 19.5t-68 -16.5t-30 -45.5q0 -39 30.5 -74t75 -57.5t91.5 -35.5t84 -13q31 0 64 16.5t52 16.5 q53 0 90 -24q-12 -11 -61 -18.5t-100 -7.5q-77 0 -147 20t-116.5 50t-74 65t-27.5 66zM174 113q0 15 12 36q17 29 66 49t125 20q65 0 124 -8.5t83 -15t67 -19.5l-12 -14l-60 18t-52 13t-63 9.5t-69 2.5q-50 0 -80.5 -4t-49 -11.5t-37.5 -22.5q-24 -18 -24 -43t12.5 -44.5 t31 -30.5t45.5 -18.5t49.5 -10.5t48.5 -5q5 0 22.5 1t23 1.5t21.5 3t23.5 5t23.5 8t27 12.5t27.5 17t30.5 23.5t32 31t37 38.5q2 3 6 7.5t6 6.5q22 26 42.5 52.5t37.5 53.5t30.5 48t27 48l21 42t18.5 42t14.5 35t13 33t10.5 26q11 1 20 1q12 0 23 -1q7 -7 11 -16 q-2 -4 -16 -36.5t-19.5 -45t-20 -43t-24 -49t-23.5 -43t-27 -44.5l-8 -12l-8 -12l-7 -10.5t-8 -11.5t-8.5 -11.5t-10 -13t-10.5 -13.5t-13.5 -16t-15.5 -17l-13 -16q-37 -38 -70.5 -64.5t-59 -40.5t-52 -22t-44 -10t-40.5 -2h-28q-62 0 -109.5 11.5t-71 26.5t-38.5 33 t-18 28t-3 14zM715 36v2q4 -1 15 -7.5t26.5 -11.5t33.5 -5q56 0 56 30q0 9 -2.5 15t-13 16.5t-36.5 24t-67 31.5l13 15l8 -4q23 -10 35 -15.5t31 -16.5t28.5 -19.5t17 -20.5t7.5 -25q0 -27 -20 -36t-58 -9q-14 0 -32.5 9t-30.5 18z" />
<glyph unicode="Q" horiz-adv-x="660" d="M81 197q0 114 46 205.5t123.5 141.5t170.5 50q74 0 131 -40t57 -77q0 -29 -31 -96t-69 -109q-9 -9 -24.5 -18t-30.5 -14.5t-27 -9t-16 -3.5v7q0 7 11 11t30.5 11.5t33.5 20.5q21 19 37.5 54t25 77.5t8.5 84.5q0 20 -13 36.5t-31.5 26t-36 14.5t-29.5 5q-76 0 -137 -32.5 t-99.5 -89t-59 -129t-20.5 -155.5q0 -28 16 -53t40.5 -42.5t54 -30.5t57.5 -19t51 -6q57 0 107 25t83 63.5t57 84.5t34.5 87.5t10.5 73.5q0 50 -16 77l-2 4q0 3 3 18.5t3 26.5l3.5 -2.5t6 -4.5t7 -6.5t8 -8.5t8 -10.5t8 -13t7 -15t6 -18t4 -21t1.5 -23.5q0 -37 -9.5 -80 t-33 -92.5t-58.5 -89.5t-93 -66.5t-130 -26.5q-42 1 -69 6q-40 7 -76.5 21.5t-68.5 37t-51 56.5t-19 76zM285 -74q0 11 16 29t18 23q-16 9 -21 14l54 -7q-33 -31 -36 -36q3 -2 6.5 -2t13 4.5t29.5 8.5t49 4q101 0 165 -34q18 -10 38.5 -22.5t33.5 -18.5q0 -4 -2.5 -7 t-6 -5.5t-7 -4t-5.5 -2.5l-2 -1q-5 0 -20.5 9t-42 24t-50.5 26q-49 21 -107 21q-36 0 -59.5 -6.5t-39 -15t-21.5 -10.5q-3 6 -3 9z" />
<glyph unicode="R" horiz-adv-x="1252" d="M109 631q0 31 33.5 52t82.5 21q38 0 109 -21.5t138 -48t146.5 -48t133.5 -21.5q40 0 88.5 6t80.5 6q90 0 154 -50.5t64 -133.5q0 -39 -33.5 -71t-82.5 -51q-5 8 -28 29q91 43 91 109q0 12 -5 28.5t-18.5 37t-33 37t-52 27.5t-72.5 11h-14l-135 -5q-55 0 -173 36 t-220.5 71.5t-118.5 35.5q-43 0 -69.5 -17.5t-26.5 -44.5q0 -35 24 -66.5t59 -52t75 -35.5t71.5 -21.5t48.5 -6.5q29 0 61.5 16.5t47.5 20.5q35 0 55 -4t45 -20q-12 -12 -60.5 -19.5t-103.5 -7.5q-48 0 -90 7q-65 12 -119 35.5t-86 51.5t-49.5 56t-17.5 51zM187 134 q0 18 19.5 38t54.5 20q44 0 70.5 -18t47.5 -50q10 -20 10 -24v-1q-10 -10 -28 -10q-17 0 -21 6q-1 4 -1 10q0 3 0.5 9t0.5 9q0 21 -13 35t-25 18t-25 5q-14 0 -25 -8.5t-16 -20t-7.5 -21.5t-2.5 -17q0 -31 36 -55.5t79 -35.5t79 -11q46 0 88 15.5t76 37.5t70 65t61 79 t59 99.5t54.5 106t56.5 118.5q7 1 17 1h5.5t5 -0.5t5 -0.5t5.5 -0.5t5 -0.5q8 -8 11 -16q-14 -29 -25.5 -54.5t-20.5 -43.5l-16.5 -33t-12.5 -24.5t-9 -17.5l-6 -12t-4 -7t-2.5 -4.5l-1 -3t-0.5 -3.5q23 14 44 14q55 0 91 -35q12 -11 25 -28q16 -18 26 -62.5t14.5 -84.5 t19 -71.5t39.5 -31.5q31 0 51 16q2 1 8.5 8t12.5 10t14 3h18q8 0 14.5 1t10 2.5t5 3t3 3.5t2.5 2l1 -1q-24 -39 -54 -50.5t-80 -11.5q-34 0 -60.5 19t-42.5 56t-21 90q-7 81 -47 117q-9 9 -32 9q-32 0 -32 -10q19 -5 37 -5h10q20 -31 20 -32q-20 -2 -37 -2q-21 0 -42 8 t-31 16l-11 8q-34 -53 -60 -90.5t-53 -68t-44 -49t-43.5 -32t-41.5 -20t-47.5 -10t-52.5 -4t-65 -0.5q-84 0 -153.5 42.5t-69.5 91.5z" />
<glyph unicode="S" horiz-adv-x="535" d="M54 127q0 18 6.5 30t17 17.5t19 7.5t17.5 2q29 0 52.5 -9t36.5 -21.5t22.5 -26t12.5 -22.5t3 -12q-9 -9 -25 -9q-18 0 -22 5q-1 2 -1 9q0 1 0.5 3.5t0.5 14.5q0 22 -19 39t-46 17q-39 0 -39 -68q0 -32 51 -58.5t120 -31.5q1 0 17 0.5t33 3.5t39 9.5t43.5 21t37.5 35.5 q29 37 29 76q0 21 -9 47t-20.5 47.5t-35 64.5t-39.5 75q-32 64 -32 120q0 44 21 63t53 19q24 0 40.5 -18.5t16.5 -40.5q0 -17 -11 -37q-6 -11 -23 -28t-23 -24l-13 37q24 27 24 48q0 5 -2 10.5t-5.5 9.5t-7 6.5t-6.5 2.5q-12 0 -19 -17.5t-7 -32.5q0 -25 22 -81 q8 -23 42 -80.5t59 -113t25 -96.5q-2 -50 -26 -77q-33 -41 -75.5 -52.5t-110.5 -11.5q-89 0 -145 24.5t-78 52.5q-21 21 -21 50zM159 288q41 36 76 62.5t53 40t32 31.5l9 -25q-16 -10 -32 -19.5t-27 -16t-39 -25.5t-71 -49z" />
<glyph unicode="T" horiz-adv-x="840" d="M109 630q0 31 32.5 52t74.5 21q63 0 134.5 -20.5t126 -44.5t125 -44.5t132.5 -20.5q59 0 180.5 26.5t205.5 26.5q34 0 69.5 -4t68.5 -16.5t33 -31.5q0 -12 -7 -20t-16 -8q-16 0 -29.5 7.5t-27 17t-54.5 17t-103 7.5q-26 -1 -96 -19.5t-90 -19.5q-8 0 -43.5 -2t-54.5 -2 q-81 0 -164 21t-138.5 46t-118 46t-107.5 21q-16 0 -23 -1q-22 -3 -47.5 -17t-25.5 -40q0 -87 135 -150q22 -9 49.5 -16t48.5 -10t36 -3q22 0 38 5t34 14t34 14h10q51 0 88 -24q-13 -10 -70 -20q-38 -5 -87 -5q-127 0 -224 52q-36 17 -63 39t-40.5 43t-19.5 36.5t-6 26.5z M210 129q0 38 22 48.5t66 10.5q25 0 44 -8.5t29.5 -20t17 -25.5t8.5 -23.5t2 -15.5v-1q-11 -10 -27 -10q-13 0 -21 6q-2 8 -2 10v18q0 16 -9 30t-23 21t-28 7q-47 0 -47 -71q0 -27 59 -59t118 -32q52 0 86 8t64 26.5t72 56.5q33 36 75 118.5t92 198.5t51 117q17 0 41 4 q7 -7 12 -19q-25 -45 -69.5 -145t-89 -183t-93.5 -132q-49 -41 -96 -52.5t-119 -11.5h-24q-131 0 -195 77q-16 19 -16 52z" />
<glyph unicode="U" horiz-adv-x="1100" d="M102 428q0 13 7 28.5t21.5 31.5t41.5 27t61 11q36 0 65.5 -9t49.5 -22t39.5 -26t44 -21.5t54.5 -8.5q8 0 16.5 1t15.5 3t16.5 6t15 7t17 9.5t16.5 9.5t18.5 12t18.5 12l-9 -32q-2 -1 -21 -11.5t-26 -13.5t-22.5 -9.5t-29 -8.5t-28.5 -2q-28 0 -54.5 9t-48 22t-43.5 25.5 t-50.5 22t-60.5 9.5q-26 0 -43 -9t-24.5 -24t-10 -29t-2.5 -32q0 -27 9 -48t26 -21q11 0 11 14q0 4 -2 13t-2 13t4 7q12 0 21.5 -5t13 -9.5t4.5 -6.5q0 -16 -10 -26t-19.5 -12t-19.5 -2q-27 0 -54 30.5t-27 64.5zM491 157q0 19 6 41t20 52t27.5 56.5t39 74.5t44.5 86 q3 15 11 35.5t25 46t36 29.5q31 -5 31 -22q-1 -18 -21 -44q-3 -5 -13.5 -18t-16 -21t-9.5 -18q-7 -17 -45.5 -84.5t-64.5 -129.5t-26 -107q0 -120 105 -120q35 0 92.5 37t120.5 96q14 13 43 54t62 98t57.5 126.5t24.5 124.5q0 10 -2 12q-39 -41 -101 -167t-62 -190 q-19 -27 -29 -36q-3 12 -3 23q0 38 31.5 122t76.5 162.5t77 96.5q10 5 22 5q30 0 30 -55q0 -53 -28 -124.5t-65.5 -132t-71.5 -105.5t-50 -58q-65 -52 -96.5 -71.5t-57.5 -25.5t-76 -6q-24 0 -46.5 6.5t-46 22t-37.5 48.5t-14 80zM871 85q9 7 26 26q5 -19 8.5 -28.5t11 -25 t15.5 -23.5t20 -14t27 -6q22 0 37.5 15.5t24 31t13.5 15.5q6 0 13.5 -7.5t12.5 -7.5q3 0 6 2l2 -1q-12 -23 -41.5 -42.5t-70.5 -19.5q-20 0 -37 6t-27.5 14.5t-19 21t-12.5 22t-9 21.5z" />
<glyph unicode="V" horiz-adv-x="473" d="M54 310q4 4 17.5 18t19.5 22q19 21 42 62q2 -8 11 -22q-19 -21 -49 -48q-5 -5 -12.5 -10.5t-15.5 -11t-13 -10.5zM131 509q0 11 5.5 29.5t10.5 27.5q15 27 39 30q32 0 50 -18.5t18 -37.5q0 -20 -6.5 -34.5t-22.5 -34t-21 -26.5q-4 3 -8 11.5t-5 14.5l-2 6q20 26 20 48 q0 33 -15 33t-21.5 -16.5t-6.5 -30.5q0 -19 8 -55q9 -23 24 -46.5t73 -105.5q18 -26 45 -103q-25 -47 -38 -65q-7 86 -37 137q-79 121 -84 130l-6 10t-9 18.5t-7 29.5t-4 48zM220 19q0 2 2 4t4.5 3t5.5 3t4 3q18 12 42 59l47 85q63 102 120 156q97 94 97 172q0 16 -3 30 t-11.5 24t-21.5 10q-8 0 -14.5 -4t-11 -11t-7.5 -13t-7 -15.5t-5 -11.5q3 66 45 82q46 -3 68.5 -22t25.5 -77q-1 -78 -108 -172q-65 -59 -133 -169q-6 -9 -10.5 -20t-9.5 -23.5t-9 -20.5q0 -1 -8.5 -29t-17.5 -41q-15 -21 -32 -21q-16 0 -34 6t-18 13z" />
<glyph unicode="W" horiz-adv-x="1276" d="M109 446q0 45 40 74.5t90 29.5q37 0 66 -8.5t47.5 -20.5t35.5 -24.5t40.5 -21t54.5 -8.5q60 0 126 35q-4 -11 -22 -38q-40 -10 -82 -10q-28 0 -48 2t-34.5 7t-22 9t-21.5 14t-23 15q-35 22 -58 29t-48 7q-29 0 -49 -10.5t-29 -28t-12.5 -33t-3.5 -31.5q0 -24 8.5 -45.5 t25.5 -21.5q10 0 10 15q0 4 -1 12.5t-1 12.5v5q0 4 6 4t17.5 -6.5t18.5 -14.5q1 -2 1 -6q0 -11 -13.5 -21.5t-33.5 -10.5q-30 0 -57.5 29t-27.5 60zM449 127q0 39 16.5 89t41 93t48.5 80.5t41 59.5l16 22q12 17 18.5 32.5t9.5 27.5t5 16q13 27 40 35q3 0 8 -0.5t13 -6 t8 -15.5q-4 -27 -19 -44q-10 -8 -22.5 -30.5t-14.5 -26.5q-4 -5 -10 -13t-23.5 -33.5t-33.5 -50.5t-35.5 -60.5t-33.5 -67t-23.5 -65.5t-9.5 -61q0 -94 114 -94q66 0 193 122q8 -28 15 -43q-6 -5 -18 -13q-65 -48 -98.5 -64t-86.5 -16q-83 4 -121 38t-38 89zM808 192 q0 37 12.5 82t34.5 88.5t53 81.5t65 59q11 6 20 6q26 0 26 -43q0 -85 -154 -312q-6 15 -12 46q140 205 140 278q0 7 -5 11q-51 -34 -101.5 -123t-50.5 -155q0 -22 15 -77q33 -119 88 -119q37 0 94 40q70 48 143.5 136.5t119 176.5t45.5 138q-1 30 -21 52.5t-45 22.5 q-33 0 -49 -17t-16 -54q0 -16 7 -28.5t16 -18t16 -11t7 -9.5q0 -7 -6.5 -13.5t-14.5 -6.5q-14 0 -40.5 29t-26.5 56q0 10 5 23.5t15.5 28.5t33 25t52.5 10q39 0 74.5 -27.5t35.5 -56.5q0 -11 -4.5 -31.5t-15.5 -51.5t-27 -66.5t-41.5 -77.5t-57 -83t-75 -84.5t-93.5 -80.5 q-54 -36 -132 -36q-14 0 -26 3.5t-21.5 9.5t-17.5 12t-14.5 15t-11 16t-8 16.5t-5.5 14t-4 11.5l-2 7q-20 58 -20 87z" />
<glyph unicode="X" horiz-adv-x="626" d="M54 99q0 6 2 12q7 -26 21.5 -43.5t32 -24t29 -9t21.5 -2.5q30 0 62 25t60.5 66t50.5 81.5t41 83.5l40 -10q-41 -92 -54 -115q-7 -14 -24.5 -38.5t-43 -53.5t-56 -50t-56.5 -21q-36 0 -63 11t-39.5 28t-18 32t-5.5 28zM123 464q19 30 36 50.5t40 40.5t51 30t61 10 q29 0 53.5 -10t44.5 -35t26 -63q-6 -10 -14 -28t-13 -30l-5 -13q-1 50 -10.5 84.5t-24.5 49.5t-28 20.5t-27 5.5q-36 0 -68 -15.5t-48 -31.5t-35 -40t-21 -26zM303 298q15 18 37 18q10 0 29 -4.5t39.5 -9.5t34.5 -5q11 0 19 3.5t19 11.5t14 10l4.5 -4.5t5.5 -6.5 q-3 -1 -14.5 -8.5t-19 -10.5t-15.5 -3q-19 0 -59 9.5t-47 9.5q-14 0 -23 -7.5t-11 -7.5q-1 0 -13 5zM363 132q7 9 16.5 25t15.5 28l6 13q-1 -21 -1 -26q0 -150 95 -150q15 0 27 3t17.5 5.5t17.5 10t18 10.5q25 1 38 12l1 -1q-12 -22 -45.5 -42t-74.5 -20q-35 0 -61 13 t-40 35.5t-20.5 42t-9.5 41.5zM389 325q31 84 52 128q81 142 178 142q61 0 105 -31q16 -14 21 -21.5t10 -24.5q-4 -9 -10 -9q-9 0 -25 25q-37 40 -85 40q-36 0 -65 -29q-47 -43 -75 -88.5t-66 -142.5q-27 8 -40 11z" />
<glyph unicode="Y" horiz-adv-x="1048" d="M109 461q0 43 41 72.5t89 29.5q35 0 65 -7t50.5 -18t43 -23.5t42 -23.5t48 -18t60.5 -7q21 0 39 5.5t30.5 12.5t34.5 22q-4 -17 -13 -34q-49 -21 -79 -21q-50 0 -88.5 10t-62.5 24.5t-46 29.5t-50.5 25t-63.5 10q-24 0 -42 -8.5t-27.5 -20t-15 -27t-7 -26t-1.5 -19.5 q0 -17 4.5 -33t12 -26t17.5 -10t10 14q0 6 -0.5 10t-0.5 8.5v12.5q0 4 6 4q7 0 22 -9t15 -18q0 -13 -10 -21q-14 -16 -38 -16q-32 0 -58.5 32t-26.5 64zM326 -289q0 12 4.5 22.5t19 20.5t37.5 10q62 0 103 -34q11 -9 25.5 -27.5t14.5 -32.5q-7 -11 -29 -11q-16 0 -25 7 q1 6 1 29q0 16 -11 36q-9 8 -25 15t-25 7q-20 0 -33.5 -21t-13.5 -45q0 -49 61 -77q27 -12 63 -20t57 -8q56 0 91.5 24t52.5 52q6 10 44.5 88t92.5 202.5t74 200.5q93 305 109 347q31 81 63 95q11 4 24 4q30 0 30 -65q0 -11 -1 -24t-9.5 -47.5t-23.5 -71.5t-46.5 -94.5 t-74.5 -118.5q20 70 26 96q38 62 65 141t27 150q0 9 -4 12q-13 -16 -25 -41.5t-27.5 -72.5t-25.5 -82t-33 -116.5t-36 -129.5q-16 -55 -83 -218t-138 -290q-6 -11 -21.5 -21t-54 -19.5t-92.5 -11.5q-69 2 -132 28q-25 12 -42.5 25t-29.5 26.5t-18 28.5t-6 32zM542 181 q0 16 5 36.5t11 38t20.5 48.5t24 50.5t31.5 63t34 67.5q11 25 16 43q1 9 7 21t19 26.5t29 18.5q9 0 15 -3q7 -1 17.5 -14t10.5 -19v-1q0 -4 -4.5 -8.5t-9.5 -6.5l-4 -2q-2 11 -6 11t-44 -80q-20 -39 -54 -102t-46 -88.5t-23.5 -63.5t-11.5 -73q0 -38 12.5 -65.5t31.5 -40.5 t35.5 -18.5t31.5 -5.5q69 0 187 108l-24 -69q-41 -29 -71 -41t-77 -12q-43 0 -75 15.5t-48 36.5t-26 49.5t-12 46t-2 33.5z" />
<glyph unicode="Z" horiz-adv-x="868" d="M54 108q0 16 4.5 30.5t19.5 31t39 28t66.5 19.5t98.5 8q97 0 200 -32q20 -5 51 -20q37 -23 63 -43.5t36.5 -32.5t21.5 -27t18 -22q19 -18 53 -18q10 0 17.5 2.5t12 5.5t15 11.5t19.5 14.5q11 0 30 -3t22 -3q10 0 14 5l1 -1q-8 -17 -28 -29t-60 -28q-12 -5 -62 -5 q-32 0 -49.5 8t-27.5 23.5t-19 33t-32 42.5t-58 47q-22 12 -49 23q-32 12 -71.5 20.5t-61.5 11t-30 2.5q-34 0 -65.5 -5.5t-62 -18t-48.5 -37.5t-18 -59q0 -4 1.5 -9.5t5.5 -14t12.5 -16.5t20 -15t30.5 -11.5t42 -4.5q55 0 123.5 48t110.5 94q3 -1 8 -3t9.5 -4.5l9 -5 t8 -4.5t6.5 -4t4 -3l2 -1q-34 -39 -85.5 -71t-102.5 -49t-91 -17q-67 0 -120.5 30.5t-53.5 77.5zM280 469q82 99 95 113t23 14q14 0 34.5 -12t44.5 -27.5t76 -33.5t120 -27l-12 -13q-58 9 -117 26.5t-93 30.5t-37 13q-4 0 -48 -59t-56 -59t-30 34zM493 209q11 18 42.5 71 t47.5 78t47 64.5t63 70.5q22 22 48.5 42t67 38t76.5 18q31 0 31 -40q0 -22 -15 -38.5t-39.5 -24.5t-49.5 -12t-51 -4h-9l10 16h8q112 0 112 69q0 20 -10 20q-7 0 -20 -4t-32.5 -14t-43.5 -32.5t-45 -53.5q-64 -84 -93 -128t-48.5 -80t-46.5 -76q-32 14 -50 20z" />
<glyph unicode="[" horiz-adv-x="307" d="M14 -135q1 2 11 49.5l30 142.5t41 184q3 12 17.5 73.5t33.5 140t28 118.5q0 1 11 5q2 2 4 8q71 -1 114 -1q14 0 75 5q-3 -9 -7.5 -15.5t-7.5 -10t-3 -4.5v-1q-43 -3 -80 -3q-9 0 -17.5 0.5t-23.5 1t-34 0.5l-62 -274q-74 -336 -82 -391q50 -1 97 -1q9 0 57 8 q-2 -7 -5 -13t-5.5 -10t-4.5 -7t-2 -5q-44 -3 -80 -3q-7 0 -34.5 1.5t-70.5 1.5z" />
<glyph unicode="\" horiz-adv-x="575" d="M129 560l49 18l357 -600l-49 -19q-24 49 -63 128t-55 109.5t-51 90t-78.5 121.5t-109.5 152z" />
<glyph unicode="]" horiz-adv-x="281" d="M-70 -100q18 -6 27 -7t42 -1q31 0 81 1q15 50 51 196.5t47 194.5l61 274q-19 0 -34 -0.5t-23.5 -1t-17.5 -0.5q-36 0 -79 3v1t-1 8.5t-3 21.5q12 -1 23.5 -2.5t20.5 -2t29 -0.5q42 0 115 1q0 -2 -0.5 -4.5t-0.5 -3.5q10 -3 10 -5q-14 -58 -73 -332q-12 -54 -23 -101 t-19 -81t-14.5 -62t-11 -46t-8 -32.5t-5.5 -22.5t-3.5 -13.5t-2.5 -8.5t-1 -5t-1 -4q-43 0 -71 -1.5t-35 -1.5q-22 0 -79 4q1 1 1 2q-2 6 -2 32z" />
<glyph unicode="^" horiz-adv-x="282" d="M41 385q5 12 16 22t24.5 18.5t28.5 18.5t30.5 26.5t27.5 37.5h50q17 -32 38 -54t36.5 -36.5t22.5 -32.5q-63 34 -83 48t-42 40q-10 -12 -24 -22t-27 -17t-43 -21.5t-55 -27.5z" />
<glyph unicode="_" horiz-adv-x="631" d="M31 -142q11 20 14 28q115 -2 234 -2q205 0 262 8q-2 -6 -5 -12.5t-5.5 -10t-4.5 -6.5t-2 -4v-1q-73 -3 -220 -3q-8 0 -104 1.5t-169 1.5z" />
<glyph unicode="`" horiz-adv-x="211" d="M165 489q9 12 23.5 28.5t19.5 23.5q7 12 7 20q0 19 -30 24q6 5 14.5 11.5t14 11t11.5 8.5t10 6t7 2q5 0 9.5 -2t7.5 -5.5t5.5 -8.5t4.5 -10v-6q0 -26 -58 -72q-5 -4 -12.5 -9t-17.5 -11.5t-16 -10.5z" />
<glyph unicode="a" d="M38 110q0 35 11.5 67t35 58.5t62 42t88.5 15.5q14 -1 25.5 -2.5t19.5 -4.5t14 -6t9.5 -7t6.5 -7.5t4 -7t1.5 -6t0.5 -4v-2.5l-36 -75q9 28 9 49q0 59 -51 59q-58 0 -102 -46q-56 -55 -56 -150q0 -32 19 -50.5t41 -18.5t30.5 2.5t29.5 14.5q19 12 33.5 27.5t19.5 23.5 t14.5 29.5t11.5 25.5q50 100 57 119q10 18 28 18q4 0 9.5 -3.5t5.5 -9.5q0 -7 -2.5 -14t-11 -24t-31.5 -61q-12 -21 -36 -62t-30 -47q-56 -53 -127 -53q-38 0 -70.5 29.5t-32.5 80.5zM269 33q17 16 43 62q-7 -23 -7 -37q0 -44 30 -44q14 0 22.5 1.5t15.5 6t11 8.5t13 14.5 t17 18.5l1 -1q-3 -4 -10 -14.5t-10.5 -15t-11 -12t-14 -11t-17 -6.5t-22.5 -3q-18 0 -36 8t-25 25z" />
<glyph unicode="b" horiz-adv-x="367" d="M11 83q7 8 14.5 22t14.5 20l-1 -18q-5 -3 -12 -11t-15 -14zM54 98q0 70 57.5 196.5t80.5 159.5q4 10 18 16.5t27 6.5q12 0 22.5 -6.5t10.5 -16.5q0 -36 -41 -134t-84 -130l18 48q26 36 50.5 101.5t30.5 107.5q-20 -28 -75 -134q-31 -56 -54 -135l-6 -18t-5.5 -18t-4 -15 t-3.5 -16t-1 -14q0 -41 19.5 -62t55.5 -21q39 3 74 36.5t54 77t19 82.5q0 1 -0.5 11t-1.5 13.5t-2.5 12.5t-4 13t-6 9.5t-9 7.5t-12.5 2q-20 0 -26.5 -7.5t-6.5 -22.5v-8v-7q0 -16 -12 -16q-20 0 -20 19q0 17 15 36.5t48 19.5q5 0 12.5 -1t22 -7.5t25.5 -16.5t19.5 -30.5 t8.5 -47.5q0 -75 -59.5 -132.5t-135.5 -57.5q-11 0 -26.5 3t-38 12t-38 30.5t-15.5 52.5z" />
<glyph unicode="c" horiz-adv-x="330" d="M31 97q0 30 14 63.5t39 63.5t66 49.5t90 19.5q24 0 45.5 -5t35 -12.5t21 -15t7.5 -12.5q0 -10 -11.5 -18t-21.5 -8q-17 0 -17 14q0 6 1.5 14t1.5 10q0 19 -60 19q-51 0 -106.5 -60t-55.5 -143q0 -19 9 -32.5t22.5 -19t25 -8t22.5 -2.5q44 0 63 17q4 3 9 8t8 7t8.5 4 t13.5 2h18t12.5 0.5t8 0.5t6 2l3.5 2l3.5 2.5t3.5 3.5l2 -1q-15 -22 -35.5 -35.5t-44.5 -18.5t-39.5 -6.5t-38.5 -1.5q-13 0 -30.5 3.5t-41.5 12.5t-40.5 30t-16.5 51z" />
<glyph unicode="d" d="M37 110q0 35 12 67t35.5 58.5t62 42t88.5 15.5q14 -1 25.5 -2.5t19.5 -4.5t14 -6t9.5 -7t6.5 -7.5t4 -7t1.5 -6t0.5 -4v-2.5l-36 -75q9 28 9 49q0 59 -52 59q-53 0 -100 -50q-57 -56 -57 -146q0 -32 19 -50.5t41 -18.5t30.5 2.5t29.5 14.5q19 12 33.5 27.5t19.5 23.5 t14.5 29.5t11.5 25.5q42 80 46 90q20 31 59.5 107t39.5 100q0 7 -4 8q-28 -17 -89 -172q-3 9 -11 14q21 66 39 108.5t34 61t27 24.5t25 6q8 0 13.5 -9t5.5 -20q0 -37 -27 -98t-63 -123t-40 -72q-5 -11 -19.5 -35.5t-28.5 -47t-18 -26.5q-56 -53 -127 -53q-38 0 -71 29.5 t-33 80.5zM269 33q17 16 43 62q-7 -23 -7 -37q0 -44 30 -44q14 0 22.5 1.5t15.5 6t11 8.5t13 14.5t17 18.5l1 -1q-2 -3 -11.5 -17t-13.5 -18t-14 -12.5t-21 -11.5t-25 -3q-18 0 -36 8t-25 25z" />
<glyph unicode="e" horiz-adv-x="330" d="M32 95q0 53 36 107q12 20 23 33t29.5 28t45.5 22.5t62 7.5q36 0 73 -13.5t37 -37.5q0 -4 -1.5 -11.5t-9.5 -21.5t-21.5 -25.5t-41 -20t-64.5 -8.5q-18 0 -70 8l5 11q14 -4 51 -4q48 1 76.5 31t28.5 50q0 14 -19 21t-42 7q-37 0 -71 -27.5t-55.5 -73t-21.5 -96.5 q0 -68 84 -68q42 0 62 16l5 5l5.5 5.5t6 5t8 4t9.5 1.5h18h14.5t8.5 1t4.5 1.5l4 4l5.5 5.5l1 -1q-14 -22 -30.5 -35.5t-37.5 -18.5t-35.5 -6.5t-39.5 -1.5q-21 0 -42.5 4t-45.5 13t-39.5 29.5t-15.5 48.5z" />
<glyph unicode="f" horiz-adv-x="233" d="M-206 -424q8 27 22 27q15 0 27.5 -2t17.5 -2q21 0 37 14t34 57q34 78 122 365q14 -7 38 -13l-122 -355q-16 -45 -55.5 -69.5t-92.5 -24.5q-13 0 -28 3zM20 123q0 16 17 29t37 18l-8 -35q-8 -2 -11 -4t-5.5 -6.5t-2.5 -12.5q0 -28 30.5 -50t73.5 -22q14 0 28.5 4.5t19 6.5 t21.5 12l1 -1q-14 -14 -35 -23.5t-38 -9.5q-128 6 -128 94zM71 90q43 146 65 204.5t69 164.5q4 10 22.5 17.5t31.5 7.5t20.5 -11t7.5 -45q0 -54 -43 -141.5t-85 -127.5l16 41q21 28 40 65.5t32.5 80.5t13.5 75q0 9 -1 16.5t-2 11.5t-1 5q-21 -32 -51.5 -106.5t-49 -129.5 t-49.5 -152q-13 3 -36 24z" />
<glyph unicode="g" horiz-adv-x="376" d="M-121 -372q0 36 60 103.5t135 127.5t127 87l-14 -29q-2 -1 -12.5 -7.5t-20 -12t-27.5 -18.5t-37 -28.5t-47.5 -40.5t-60.5 -55q-16 -16 -43 -57t-27 -68q0 -17 11.5 -27.5t25.5 -14t31 -3.5q109 0 179 196q16 40 31.5 79.5t22.5 57t14.5 38.5t14.5 42q4 1 10.5 5t25 20.5 t34.5 40.5q-63 -186 -152 -379q-32 -56 -78.5 -85.5t-102.5 -29.5q-19 0 -32 1.5t-31 6t-27.5 17.5t-9.5 33zM35 112q0 38 21 80q23 40 60 68q43 33 116 33q37 0 73 -20q-2 -7 -5.5 -18.5t-6.5 -21.5t-6 -17q-1 26 -15 44.5t-34 18.5q-64 0 -122 -83q-30 -51 -30 -109 q0 -73 69 -73q42 0 89 51q13 14 31.5 54t32.5 80t16 57q1 3 4 7.5t13.5 11.5t22.5 7q9 0 11.5 -6t2.5 -20q0 -40 -34 -99q-1 -1 -2.5 -5t-4.5 -9.5t-7 -13.5t-8.5 -16t-10.5 -17.5t-12.5 -18.5t-14 -18t-16.5 -17t-18 -15q-38 -27 -86 -27q-29 0 -57 10.5t-50 37t-22 64.5z " />
<glyph unicode="h" horiz-adv-x="397" d="M11 83q1 2 10.5 21.5t13.5 24.5q2 2 6.5 8.5t9 14t10 16t8.5 12.5l-18 -49q-4 -3 -8 -7.5t-8.5 -10t-8 -11t-7.5 -11t-7 -9.5zM19 14l37 95l72 107q33 50 65.5 63.5t81.5 13.5q114 0 114 -59q0 -22 -16.5 -50t-36 -50.5t-36 -47.5t-16.5 -40q0 -18 5.5 -25t19.5 -7 q19 0 35 9.5t42 39.5l2 -1q-2 -2 -7.5 -10t-7 -10.5t-6.5 -9t-7 -8.5t-7 -6.5t-8 -6t-8.5 -4.5t-10 -4t-11 -2t-13.5 -1q-19 0 -32 6.5t-19 17t-8 19t-2 16.5q0 14 17 40.5t37 51.5t37.5 53t17.5 43q0 32 -76 32q-37 0 -65.5 -28t-100.5 -131q-9 -18 -19 -48t-17 -45 q-15 -27 -33 -27q-8 0 -14 4t-6 10zM79 167q8 21 22 58q55 146 80 196.5t50 50.5q10 0 18.5 -11.5t8.5 -25.5q0 -13 -28 -55.5t-51 -69.5l21 52q9 13 18.5 28t16 27.5t6.5 15.5q0 7 -5 7q-9 0 -24 -23q-2 -4 -13 -27.5t-27 -61t-27 -66.5q-21 -24 -66 -95z" />
<glyph unicode="i" horiz-adv-x="232" d="M11 83q3 5 5.5 11t4 9.5t4.5 7.5t8 8l-4 -16q-3 -3 -6.5 -9t-10.5 -12zM35 77q0 19 6 42q8 30 23 67t38.5 70t45.5 33q7 0 14 -3.5t10.5 -8.5t3.5 -11q0 -18 -16.5 -52.5t-44.5 -59.5l9 27q27 33 32 78q-16 -12 -33.5 -47t-29.5 -77t-12 -72q0 -49 35 -49q14 0 20.5 3.5 t23.5 19.5q2 1 5 4.5t4.5 5t5.5 3t9 1.5h12q12 0 20 9l3 3l1 -1q-2 -3 -6.5 -10.5t-11 -16t-18.5 -19.5q-26 -16 -54 -16q-47 0 -71 22.5t-24 54.5zM210 461q0 5 7 8.5t14 7.5t7 12q-1 3 -7 9q25 10 39 10t14 -10q0 -11 -8.5 -22t-21 -18t-25.5 -7q-19 0 -19 10z" />
<glyph unicode="j" horiz-adv-x="202" d="M-279 -428q8 27 23 27t33.5 -7.5t22.5 -7.5q16 0 31 4t26.5 8.5t23 14.5t19.5 17.5t17.5 22t14.5 23t13 26t11.5 26.5t11.5 28t11 27q24 60 73 198t54 157q33 114 48 132q19 27 36 27q12 0 12 -27q0 -10 -0.5 -19.5t-3 -17.5t-4.5 -14.5t-5.5 -14t-6.5 -13.5t-8 -14.5 t-8 -14.5q-2 -2 -8 -22q-84 -238 -176 -453q-19 -47 -73 -81t-110 -34q-68 0 -78 2zM11 83q22 32 34 45.5t28.5 22.5t20.5 11l-8 -20q-6 -2 -10.5 -4t-8 -3.5t-7.5 -5t-6.5 -5.5t-8 -7.5t-8.5 -9t-11 -11.5l-14 -14zM216 461q0 5 14.5 11.5t14.5 15.5q0 2 -1 4t-3 3t-2 2 q27 11 39 11q13 0 13 -10q0 -19 -19 -33.5t-37 -14.5q-19 0 -19 11z" />
<glyph unicode="k" horiz-adv-x="383" d="M11 83q3 4 7.5 13t8 15t8 13t10.5 12t13 8l-7 -15q-8 -4 -14 -11.5t-13 -18.5t-12 -17zM29 11q0 15 24 79t48 120l24 56q9 26 13.5 38t16 42t20.5 47.5t21 39t24 31.5t24 10q9 0 20.5 -11.5t11.5 -25.5q0 -8 -4.5 -19.5t-11.5 -24.5t-14 -23.5t-14.5 -21.5t-8.5 -14 q-6 -6 -20 -27q3 9 14 55q37 55 37 72q0 7 -6 7q-12 0 -27 -24q-8 -13 -15.5 -34t-11.5 -35.5t-4 -17.5q-6 -32 -21 -71l-31 -78q20 12 41.5 23.5t35 18.5t39.5 23.5t62 40.5q15 5 23 5q11 0 11 -10q0 -56 -34 -56q1 1 2 3l2 4q2 1 3 3t1 4l1 3q0 12 1 20q-1 0 -5 -4.5 t-8 -10.5t-8 -11.5t-6 -6.5q-14 -8 -34 -19t-38.5 -20t-35 -17t-26.5 -13.5t-10 -7.5q0 -17 22.5 -50t57 -61t61.5 -28q12 0 23 5t16 9.5t18 17.5l17 17l1 -1q-14 -19 -24 -30.5t-27.5 -21.5t-35.5 -10q-29 0 -60 19.5t-52 44.5t-35 45.5t-14 24.5q-8 -8 -13 -16.5 t-10.5 -23.5l-5.5 -15l-5 -15t-5.5 -16t-5.5 -15t-6 -13.5t-7 -10.5t-9.5 -7.5t-11.5 -2.5q-15 0 -15 12z" />
<glyph unicode="l" horiz-adv-x="322" d="M11 83q14 19 37 38l-5 -18q-15 -8 -31 -21zM56 75q0 20 9 43q60 175 143 328q3 7 13 12.5t21 8t19 2.5q24 0 24 -27q0 -62 -54 -154q-4 -7 -17 -30t-19.5 -33t-17 -26.5t-19 -27t-16.5 -17.5l13 37q9 12 18 28t20 38.5t17 34.5q45 80 50 149q-35 -51 -54 -95l-80 -185 l-7 -21q-15 -51 -15 -77q0 -27 14.5 -38t47.5 -11q14 0 20.5 0.5t16 4t17.5 10.5q3 2 9 8.5t12 10t14 3.5q2 0 6 -0.5t11 -0.5h13h8t5.5 1.5t2.5 2t3.5 4t4.5 5.5l1 -1q-35 -62 -123 -62h-9h-8q-114 0 -114 75z" />
<glyph unicode="m" horiz-adv-x="617" d="M11 83q4 5 10.5 14t12.5 18t13.5 19.5t15 22.5t13.5 23l-3 -19q-25 -39 -61 -79zM51 13q0 6 5 14q3 11 59 95q38 69 49.5 87.5t31.5 42.5q13 16 43.5 28.5t56.5 12.5q15 0 27.5 -3.5t21 -10t14 -14.5t7.5 -18q-24 -24 -38 -47q6 22 6 36q0 12 -1.5 19.5t-9 15.5t-22.5 8 q-43 0 -87 -64q-30 -42 -69.5 -113t-50.5 -90q-7 -12 -20 -12q-23 0 -23 13zM67 73l34 152l10 33q1 1 2.5 5.5t3 6.5t3.5 6.5t4.5 6.5t6 5t8 4t9.5 1q11 0 16.5 -6t5.5 -15q0 -7 -3.5 -16t-8 -16.5t-9 -13.5t-7.5 -8q-5 -12 -17 -54q-3 -7 -17.5 -29.5t-27.5 -41.5zM255 12 q0 9 9 28q60 132 101 182q2 3 6 7.5t17.5 17t28.5 22t38.5 17t48.5 7.5q29 0 46.5 -3.5t29.5 -15.5t12 -34q0 -27 -13.5 -57t-30 -52t-31.5 -47.5t-16 -43.5q0 -15 4.5 -20.5t22.5 -5.5q13 0 23.5 3t19 9t13 10.5t11 14t9.5 12.5l1 -1q-30 -62 -85 -62q-26 0 -44 13t-18 34 q0 17 23 54t46 79t23 71q0 28 -32 28q-31 0 -66 -21.5t-50 -44.5q-25 -35 -106 -203q-6 -10 -18 -10q-23 0 -23 12z" />
<glyph unicode="n" horiz-adv-x="440" d="M11 83q4 5 10.5 14t12.5 18t13.5 19.5t15 22.5t13.5 23l-3 -19q-25 -39 -61 -79zM56 12q0 14 9 28q28 44 121 202q1 2 4.5 5.5t15 12t25.5 15.5t36.5 12.5t47.5 5.5q47 0 73.5 -11t26.5 -42q0 -27 -14 -57t-30.5 -52t-31 -47.5t-15.5 -43.5q0 -15 4.5 -20.5t21.5 -5.5 q14 0 24.5 3t18.5 9t12.5 10.5t11.5 14t9 12.5l2 -1q-29 -62 -86 -62q-26 0 -44 13t-18 34q0 17 23 54t46 79t23 71q0 28 -43 28q-32 0 -64 -17.5t-46 -38.5q-21 -29 -63.5 -104.5t-57.5 -108.5q-7 -10 -19 -10q-23 0 -23 12zM67 73l34 152l10 33q1 1 2.5 5.5t3 6.5t3.5 6.5 t4.5 6.5t6 5t8 4t9.5 1q11 0 16.5 -6t5.5 -15q0 -7 -3.5 -16t-8 -16.5t-9 -13.5t-7.5 -8q-7 -16 -17 -51q-1 -4 -8 -15t-15 -24.5t-16 -25.5l-14 -21z" />
<glyph unicode="o" horiz-adv-x="375" d="M38 97q0 41 17.5 78.5t43.5 62.5t56 40t55 15q26 0 42 -15v-32q-1 1 -8.5 2t-11.5 1q-8 30 -22 30q-6 0 -19.5 -6t-32 -21.5t-34.5 -37t-27.5 -57t-11.5 -77.5q0 -25 19 -45.5t53 -20.5q44 0 77.5 31.5t48 70.5t14.5 72q0 15 -13 61q0 -7 -12.5 -34.5t-12.5 -55.5 q0 -11 9 -32l-10 -18q-1 3 -5 13t-6 17.5t-2 13.5q0 13 2.5 27.5t6.5 26t8 21t7 14.5l2 5q-1 6 -1 20q0 24 16 24q7 0 20 -7.5t18 -19.5q20 -49 20 -84q0 -48 -37 -113q-42 -67 -129 -67q-38 0 -66 9t-41.5 21t-22 28t-9.5 24t-1 15zM314 44l5 8q5 -4 13 -4q7 0 10 0.5t8 4 t11 10.5l1 -1q-2 -9 -11 -14.5t-19 -5.5q-12 0 -18 2z" />
<glyph unicode="p" horiz-adv-x="421" d="M-126 -387q0 3 5 26t22.5 76t43.5 116t74.5 154t109.5 182q26 39 55.5 66t56 39t44.5 16.5t33 4.5q14 0 28 -2.5t29 -9.5t23.5 -21.5t8.5 -35.5q0 -22 -6 -48t-21.5 -58t-38.5 -58q-19 2 -31 13q46 88 46 152q0 17 -2 28t-9.5 18.5t-20.5 7.5q-23 0 -48 -15t-52.5 -45 t-44.5 -51.5t-44 -59t-30 -41.5q-51 -75 -95.5 -178.5t-65 -172.5t-20.5 -86q5 -2 6 -2q33 0 160 387q25 40 33 49q-18 -94 -75 -251t-92 -204q-24 -35 -46 -35q-16 0 -26 11.5t-10 27.5zM11 83q17 23 33 54t26 56.5t19 48.5t17 36t15 13q9 1 13 1q11 0 11 -24q0 -17 -7 -61 q-4 -3 -9.5 -10t-8.5 -13l-4 -5q14 68 14 92q0 5 -6 5q-7 -2 -14.5 -20.5t-16 -44t-30 -62.5t-51.5 -67zM189 32q0 13 4.5 24t17 18.5t30.5 7.5q28 0 60 -24q19 -13 37 -13q44 0 69 18l2 -1q-26 -30 -82 -30q-20 0 -35 13q-9 8 -25 15.5t-22 7.5q-35 0 -35 -36q0 -6 9 -10.5 t20 -5.5q25 0 42 17q10 -8 21 -11q-33 -22 -62 -22q-22 0 -36.5 11.5t-14.5 20.5z" />
<glyph unicode="q" horiz-adv-x="371" d="M35 112q0 38 21 80q23 40 60 68q43 33 116 33q38 0 74 -20l-20 -52q-1 26 -14.5 42t-33.5 16q-64 0 -122 -83q-30 -51 -30 -109q0 -21 4 -35t8.5 -21.5t15 -11.5t18.5 -4.5t23 -0.5q20 0 38 8.5t26 16.5t25 26q13 14 31.5 54t32.5 80t16 57q1 3 4 7.5t13.5 11.5t22.5 7 q9 0 11.5 -6t2.5 -20q0 -40 -34 -99q-1 -1 -2.5 -5t-4.5 -9.5t-7 -13.5t-8.5 -16t-10.5 -17.5t-12.5 -18.5t-14 -18t-16.5 -17t-18 -15q-38 -27 -86 -27q-29 0 -57 10.5t-50 37t-22 64.5zM52 -423q0 2 4.5 11.5t18 38.5t32 70l55.5 123t80 180q4 1 10.5 4.5t25 19.5t34.5 40 q-47 -128 -96.5 -241t-75.5 -162l-26 -49q0 -1 7 -1t39 26q17 14 58 40l1 -1q-22 -35 -78 -83q-12 -11 -38 -20t-38.5 -9t-12.5 13z" />
<glyph unicode="r" horiz-adv-x="370" d="M11 83q2 3 11.5 18.5t12.5 21t11 21t12 27.5t10 31t11 40q5 25 24 36.5t39 11.5q15 0 28.5 -5.5t24 -17.5t11.5 -27l-36 -62q3 14 6 45q0 47 -37 47q-8 0 -16 -3.5t-12.5 -8.5t-8.5 -10.5t-5 -8t-2 -4.5q-2 -4 -8.5 -23.5t-12 -34t-22 -41t-40.5 -54.5zM100 13 q0 6 2.5 11.5t9.5 16t13 21.5q15 33 84 149q29 53 33 74q6 8 13 8q5 0 12.5 -2.5t13 -6t5.5 -7.5v-19.5v-16.5q0 -7 5.5 -12t13.5 -7.5t17 -2.5q49 0 49 21q7 6 13.5 12t9.5 9.5t4 3.5q6 0 11.5 -2t8 -4.5t2.5 -4.5q0 -14 -12.5 -26t-31.5 -19.5t-40 -7.5q-22 0 -39 6 t-23.5 11.5t-9.5 10.5t-6 5q-4 0 -4 -8q0 -4 1 -8q-44 -66 -90 -160q-6 -29 -20 -52q-6 -6 -14 -6q-9 0 -20 3.5t-11 9.5z" />
<glyph unicode="s" horiz-adv-x="312" d="M38 66q0 5 1 10q1 0 7.5 1.5t9.5 1.5q13 0 31.5 -6.5t18.5 -16.5q0 -5 -10 -12t-10 -11q0 -8 17.5 -13.5t38.5 -5.5q11 0 26 4t33 12t30.5 25t12.5 39q0 37 -50 100q-5 6 -10.5 15.5t-10.5 27t-5 34.5q3 21 11 22h1q9 0 44 -32q6 -34 10 -44q5 -14 32 -55.5t28 -71.5 q-1 -26 -14.5 -44.5t-35.5 -28t-43 -13.5t-42 -4q-30 0 -53.5 7t-36 16.5t-20 19t-9.5 16.5zM46 129q31 36 34.5 40t16 15t24.5 23q5 4 11.5 10.5t11 10.5t8.5 9q0 -18 6 -27q-9 -5 -28 -16.5t-25 -16.5t-15 -11.5t-17 -13.5t-25 -24z" />
<glyph unicode="t" horiz-adv-x="348" d="M11 83q30 31 55 45l-3 -10q-8 -4 -16.5 -10t-19 -14.5t-15.5 -11.5zM75 298q15 20 25 25.5t28 5.5q5 0 8 -0.5t7.5 -2t19 -5.5t33.5 -8q2 -1 20 -4l-3 -8q-8 1 -24 5.5t-28 7t-17 2.5q-14 0 -22.5 -7t-13.5 -13.5t-9 -6.5q-6 0 -15 3.5t-9 5.5zM76 75q0 24 13 56 q33 92 66 165l44 -9q-40 -99 -53 -127q-10 -25 -16 -53.5t-6 -37.5q0 -34 19 -44.5t52 -10.5q35 0 54 16l6.5 6.5t5.5 5t4 3.5t4 2.5t3.5 1.5t4.5 1h6h8h8q11 0 17.5 1t8 2t5 4.5l5.5 5.5l1 -1q-1 -2 -4 -6t-4 -5t-3.5 -4.5t-4.5 -5t-5 -4.5t-6.5 -5.5t-8.5 -6t-11 -7.5 q-19 -12 -37.5 -15t-58.5 -3q-54 0 -87 17l-13.5 10.5t-10.5 16.5t-6 31zM170 169l10 29q9 13 16 27t18 39t19 41q31 75 37 135l-54 -115l-43 10l52 112q4 9 19 15.5t27 6.5q15 0 20 -7.5t5 -15.5q0 -19 -12 -55.5t-21.5 -59t-12.5 -29.5q-34 -71 -48.5 -95.5t-31.5 -37.5z M266 293l2 8q8 -1 15 -1q21 0 34 7t31 27h1q15 -12 17 -19q-1 -1 -6.5 -4.5t-7 -4t-6.5 -3.5t-7 -4t-7 -3t-8 -2.5t-8 -1.5t-9.5 -1.5t-10.5 -0.5z" />
<glyph unicode="u" horiz-adv-x="457" d="M11 83q5 8 24 31q10 13 18 20l-2 -15q-17 -10 -39 -37zM66 89q0 31 5 51l7 25.5t13 42t17 39.5t25.5 35.5t31.5 12.5q33 0 33 -23q0 -12 -15 -42t-44 -59q6 19 10 30q7 9 14.5 23.5t12.5 28.5t5 20q0 9 -11 9q-8 -7 -23 -41.5t-23 -59.5q-3 -7 -7 -19t-5.5 -17.5t-4 -15 t-3 -19.5t-0.5 -24q0 -29 16.5 -50.5t48.5 -21.5q49 0 75 22t46 71q-1 -8 -1 -22q0 -7 7 -40q-16 -22 -43 -33.5t-83 -11.5q-50 0 -77 28t-27 61zM305 97q0 41 9 72q22 54 42 113q7 11 29 11q10 0 17 -4t7 -11q0 -17 -32 -89.5t-32 -105.5q0 -69 33 -69q11 0 16.5 0.5t13 4 t17.5 11.5q4 3 19 33l1 -1q-1 -4 -4.5 -12.5t-4.5 -11t-4 -8t-6 -8.5t-7 -6.5t-10 -7.5q-17 -8 -33 -8q-71 0 -71 97z" />
<glyph unicode="v" horiz-adv-x="390" d="M11 83q53 60 84 128q2 -10 8 -22q-50 -77 -91 -107zM109 248q0 15 8.5 30t22.5 15q18 -1 18 -19q0 -2 -0.5 -4t-0.5 -4.5t-0.5 -12.5t-0.5 -26q1 -22 25.5 -62.5t28.5 -57.5q6 -25 6 -43q0 -45 -36 -62q-5 -2 -9 -2q-38 0 -38 12q0 6 13 10q15 8 19.5 19t4.5 29 q0 36 -9 57.5t-23 41t-20 41.5q-8 25 -9 38zM229 124q11 10 34 25t33 23q54 43 54 81q0 9 -1.5 11.5t-7.5 2.5q-9 0 -19.5 -17t-12.5 -17h-5q0 16 13.5 38t25.5 22q50 -1 53 -43q0 -25 -17.5 -49.5t-43.5 -43.5q-7 -6 -26 -18t-38 -26t-33 -30q-3 24 -9 41z" />
<glyph unicode="w" horiz-adv-x="503" d="M11 83q31 50 49.5 108.5t34.5 88.5q11 13 28 13q36 0 63 -22q17 -16 17 -49q0 -6 -2 -21q-33 -27 -45 -41q13 54 13 64q0 25 -11.5 41.5t-33.5 16.5q-6 0 -9 -1t-6 -3.5t-4 -3.5q-9 -6 -21 -40.5t-30.5 -79.5t-40.5 -72zM83 20q0 14 11 25q7 9 13 15t9 8.5t6 5.5t6.5 7.5 t7.5 13.5q16 29 61 73q6 6 20 16l31.5 22.5t30.5 24.5l7 -28q-44 -31 -61.5 -48.5t-58.5 -70.5q-2 -5 -10.5 -23.5t-11.5 -28.5q-4 -13 -14.5 -22.5t-25.5 -9.5q-8 0 -14.5 5t-6.5 15zM282 10q0 7 9 12q10 7 17.5 17.5t20 29.5t29.5 39q7 11 38.5 37.5t53.5 54.5t22 55 q0 17 -10 17q-4 0 -9 -4.5t-7.5 -9.5l-6.5 -13l-5 -10q0 6 1 12.5t4 15t7 15t10.5 11t14.5 4.5q39 0 39 -40q0 -23 -13 -46t-33.5 -42.5t-41.5 -37.5t-40 -38t-27 -38q-4 -5 -11.5 -20t-15 -23t-17.5 -8q-29 0 -29 10zM296 250q0 10 6.5 21t21.5 11q18 -4 18 -27 q0 -6 -1.5 -15t-1.5 -11q0 -11 2 -24t4.5 -23.5t5.5 -24.5t5 -23q-20 -19 -33 -40q0 11 -1.5 24t-4 25.5t-5 24.5t-5 25.5t-3.5 23.5q-1 2 -4.5 15t-3.5 18z" />
<glyph unicode="x" horiz-adv-x="392" d="M37 43q23 3 30 3q2 0 2 -1q1 0 1 -3q0 -2 -0.5 -6t-0.5 -7q0 -15 21 -15q24 0 40 16q30 27 52 75q-3 -32 -3 -49v-8q-38 -48 -83 -48q-19 0 -31.5 4t-17.5 12.5t-6.5 12.5t-3.5 14zM59 192q63 101 127 101q30 0 44.5 -20.5t14.5 -48.5q0 -2 -0.5 -6.5t-0.5 -7.5 q-2 -14 -4.5 -33t-4 -31t-3 -26.5t-2.5 -24l-2 -19t-1 -16.5q0 -19 13 -32t29 -14q4 0 13.5 0.5t13 1t11.5 2t13.5 4.5t15 8t19.5 13.5t22 19.5l2 -1q-18 -21 -33 -33.5t-35.5 -20.5t-46.5 -8t-46 20t-20 38q0 4 3.5 45t4.5 50q9 53 9 76q0 28 -11 39t-30 11q-15 0 -31 -8 t-33.5 -25.5t-25.5 -26t-24 -27.5h-1zM258 172q6 44 7 64q32 57 76 57q80 0 85 -41q-1 -1 -20 -5.5t-20 -4.5q-2 0 -4 6t-4 12.5t-9.5 12.5t-18.5 6q-18 0 -36 -16q-31 -28 -56 -91z" />
<glyph unicode="y" horiz-adv-x="408" d="M-109 -372q0 36 60 103.5t135 127.5t128 87l-14 -29q-2 -1 -13 -7.5t-20 -12t-27.5 -18.5t-37.5 -28.5t-47.5 -40.5t-59.5 -55q-17 -16 -43.5 -57t-26.5 -68q0 -45 67 -45q109 0 179 196q16 39 31.5 78.5t22 56t14 36.5t14.5 42q23 8 70 66q-64 -188 -151 -375 q-31 -56 -78 -85.5t-103 -29.5q-19 0 -31.5 1.5t-31 6t-28 17.5t-9.5 33zM11 83q3 13 28 37l12 11q-1 -2 -1 -6q0 -5 1 -9q-29 -20 -39 -34zM70 124q0 6 1 13t3 13t5.5 17.5t5.5 20.5q17 64 31 84.5t46 20.5q12 0 19 -1t11 -4t5.5 -7t1.5 -10q0 -7 -3.5 -19t-16.5 -35 t-33 -43q5 20 9 34q12 16 19 35.5t7 29.5q0 9 -11 9q-8 -7 -23 -43t-19 -58q-1 0 -1.5 -3.5t-2 -9.5t-3.5 -13.5t-3.5 -16t-3 -18t-2.5 -19t-1 -18.5q0 -69 61 -69q42 0 73 26.5t47 62.5q7 16 21.5 57t27 71.5t23.5 50.5q10 10 18 12q16 0 21.5 -4.5t5.5 -18.5 q0 -20 -7 -41.5t-13.5 -33.5t-18.5 -29.5t-12 -19.5q-19 -33 -53 -76t-49 -55q-26 -16 -86 -16q-28 0 -49 13.5t-31.5 34t-15 39.5t-4.5 37z" />
<glyph unicode="z" horiz-adv-x="367" d="M34 19q0 2 1.5 7t5 11.5t9.5 13t14.5 12.5t21.5 9.5t28 3.5q17 0 40 -13q1 -1 13.5 -8.5t23 -13t24.5 -12t27 -10.5t22 -4q14 0 30 16t20 16h13q7 0 11 2.5t16 13.5l1 -1q-6 -9 -16.5 -24t-13.5 -19t-10.5 -10t-15.5 -7.5t-22 -1.5q-44 0 -135 51q-8 5 -12 5q-3 0 -3 -4 q0 -6 4 -14q-20 -21 -33 -29.5t-31 -8.5q-5 0 -12 1t-14 6t-7 12zM58 201q3 12 13 31.5t30.5 40t42.5 20.5q10 -1 17 -8.5t12 -17t7 -11.5q17 -16 67 -27l-10 -11q-32 8 -61.5 22t-35.5 21q-6 6 -18 6q-14 0 -35 -25t-25 -43zM126 89q3 3 52.5 50t87.5 88q27 28 36.5 37.5 t26 18.5t32.5 9q24 0 24 -14q0 -9 -14 -22.5t-29 -22.5l-14 -10q10 19 10 23q0 1 -1 1q-4 0 -35 -33q-18 -22 -35 -39.5t-46.5 -45.5t-55.5 -54q-26 13 -39 14z" />
<glyph unicode="{" horiz-adv-x="403" d="M28 245q0 28 48 41q17 4 36.5 13.5t43.5 25.5t40 42.5t16 57.5q0 15 -5.5 43.5t-5.5 43.5q0 45 35 78.5t91 33.5q54 0 86 -30.5t32 -60.5q0 -17 -12.5 -25t-28.5 -8q-32 0 -32 24q0 14 14 14q23 -15 35 -15q8 0 8 9q0 2 -1.5 6t-5.5 10.5t-10.5 13t-16 13t-21 12t-28 9 t-35.5 3.5q-27 0 -47 -9.5t-29.5 -23.5t-14 -27t-4.5 -24q0 -15 9.5 -44t9.5 -48q0 -26 -10 -49.5t-24.5 -40t-32.5 -31.5t-34 -24.5t-29 -19t-16 -16.5q-3 -6 -28 -6q-33 0 -33 9zM36 226q13 -6 30 -6q21 0 34 8q12 -12 32 -27.5t30.5 -25t21.5 -24t16 -34t5 -46.5 q0 -24 -14.5 -54.5t-14.5 -47.5q0 -11 4 -24.5t14.5 -29t32.5 -25.5t53 -10q33 0 33 -9q0 -3 -4.5 -6t-12.5 -5t-18 -2q-32 2 -56 14t-37 30t-19 35.5t-6 33.5q0 20 13.5 52t13.5 52q0 23 -7.5 40.5t-26.5 34.5t-33.5 26.5t-47.5 29.5q-7 4 -19.5 10t-16.5 10z" />
<glyph unicode="|" horiz-adv-x="127" d="M40 237q0 6 2 143.5t2 195.5q0 1 2.5 2.5t7 3t9 3.5t9.5 4.5t8 4.5q-2 -92 -2 -308q0 -366 10 -412q-19 -11 -43 -15q-5 52 -5 378z" />
<glyph unicode="}" horiz-adv-x="467" d="M-26 -50q0 9 3.5 16t10 10.5t13.5 5.5t15 2q35 0 35 -30q0 -11 -10 -11q-6 0 -22.5 9t-22.5 9q-7 0 -7 -9q0 -4 3.5 -11.5t13 -17.5t22.5 -19t34 -15.5t46 -6.5q27 0 47 9.5t30 24t14.5 28t4.5 24.5q0 13 -8 40.5t-8 45.5q0 27 9 50.5t28 41.5t32.5 28.5t37.5 24.5t29 17 q26 -11 51 -11q9 0 16 3q-8 -9 -40 -18q-12 -3 -27 -8.5t-36 -17t-37.5 -26.5t-28 -38t-11.5 -50q0 -14 4 -40t4 -39q0 -47 -35.5 -80.5t-91.5 -33.5q-54 0 -86 30.5t-32 62.5zM135 610q0 5 8 9t21 4q40 0 78 -31t38 -82q0 -21 -16 -54.5t-16 -55.5t7.5 -40t26.5 -35 t32 -26.5t43 -28.5q4 -2 10 -5.5t9 -5.5t7.5 -4.5t6 -4.5t4.5 -4.5t4 -4.5t1.5 -5t0.5 -6q0 -6 -16 -6q-22 0 -44 7q-5 12 -23.5 29.5t-37.5 33.5t-34.5 46t-15.5 65q0 26 17 57.5t17 49.5q0 12 -4.5 25.5t-14.5 28.5t-30.5 24.5t-47.5 9.5q-31 0 -31 10z" />
<glyph unicode="~" horiz-adv-x="345" d="M24 188q34 43 47 43q21 0 72 -18t67 -18q14 0 25 3.5t15 5.5t15.5 12t13.5 11q1 -1 5.5 -5t7.5 -7t4 -7q-5 -3 -14.5 -10t-16 -11.5t-17 -8t-22.5 -3.5q-34 0 -77 18.5t-57 18.5q-17 0 -30 -16.5t-17 -16.5q-10 0 -21 9z" />
<glyph horiz-adv-x="473" />
<glyph unicode="&#xa1;" horiz-adv-x="242" d="M25 -1q0 6 58 203t58 216q0 4 4 4q6 0 15 -4.5t9 -7.5q-1 -1 -8.5 -31t-17.5 -71t-20 -88t-17 -95t-7 -80q0 -36 1 -46q-14 0 -29.5 2t-20.5 2q-13 0 -25 -4zM164 573q0 27 34 27q23 0 27 -10q0 -13 -3.5 -21.5t-10 -11.5t-11.5 -4t-11 -1q-10 0 -17.5 6.5t-7.5 14.5z " />
<glyph unicode="&#xa2;" horiz-adv-x="323" d="M25 97q0 56 41.5 113.5t112.5 75.5l-7 -30q-41 -27 -69.5 -74.5t-28.5 -105.5q0 -53 66 -61l38 1q23 3 38 15q4 3 9 8t7.5 7t8.5 4t14 2q26 0 36 1.5t15 4.5t18 14q-31 -41 -68.5 -55.5t-80.5 -16.5l-39 1q-17 2 -33.5 7t-35.5 15.5t-30.5 29.5t-11.5 44zM116 -98 q4 27 15 77l39 -2q-10 -45 -11 -60q-19 -11 -43 -15zM145 35q66 287 84 361q0 1 6.5 4t15.5 7t14 7q-6 -32 -26 -121l-57 -257zM262 278q2 9 2 13q24 -3 42.5 -11.5t27 -17t8.5 -14.5q0 -10 -11 -18t-21 -8q-18 0 -18 14q0 6 2 14t2 10q0 15 -34 18z" />
<glyph unicode="&#xa3;" horiz-adv-x="727" d="M72 84q0 101 180 101q22 0 36.5 -1.5t50 -11.5t82.5 -30q32 -13 55 -28.5t34 -28.5t18.5 -25.5t11 -21.5t9.5 -14t15 -5q23 0 37 11.5t26 11.5q45 0 45 -10q0 -9 -38 -20.5t-70 -11.5q-21 0 -32 7.5t-17.5 20.5t-14.5 28.5t-31 34.5t-59 35q-9 4 -29.5 13t-26 11t-20 7.5 t-22.5 6.5t-21 2.5t-29 1.5q-23 0 -44.5 -3t-48.5 -11.5t-43.5 -29t-16.5 -50.5q0 -29 13.5 -45t51.5 -16q31 0 62 13t56 33.5t40.5 37t28.5 33.5l37 -19q-93 -111 -227 -111q-52 0 -75.5 21.5t-23.5 62.5zM290 269q26 37 52 37q23 0 62 -8l-1 -13q-21 4 -34 4 q-16 0 -26.5 -7.5t-17 -15t-11.5 -7.5q-12 0 -24 10zM388 172q23 43 31 110q1 9 3.5 29.5t3.5 30.5t4.5 28t6 27.5t8 24.5t11.5 22.5t15.5 17.5t20.5 14.5t26 8t32 3.5q133 0 133 -58q-1 -37 -56 -37q-34 0 -63 10q9 -2 29 -2t37.5 7.5t17.5 24.5q0 37 -90 37q-16 0 -28 -6 t-21 -20.5t-14.5 -27.5t-10.5 -37.5t-7.5 -39.5t-6.5 -44q-1 -3 -1 -5t-0.5 -5t-1 -5.5t-0.5 -5t-1 -5.5q-12 -70 -37 -113q-27 11 -41 16zM485 266q2 9 3 16q10 -1 19.5 -1t17 0.5t14 2.5t11 4t10 5.5t8 6t9 8t9.5 8.5q2 -1 8 -6t9 -8.5t5 -8.5q-2 -1 -9.5 -5.5t-9.5 -5.5 t-8.5 -4.5t-9.5 -4.5t-9 -3.5t-11 -3t-12 -1.5t-14 -1q-20 0 -40 2z" />
<glyph unicode="&#xa4;" horiz-adv-x="452" d="M41 155q58 38 96 59q6 -15 20 -27q-15 -11 -42 -28t-34 -23q-24 6 -40 19zM73 325q0 2 4.5 13.5t4.5 16.5l46 -36q-15 -10 -24 -21l-30 24q-1 1 -1 3zM100 231q0 40 32 63.5t77 23.5q28 0 52 -10l-33 -19q-9 2 -19 2q-30 0 -51.5 -16.5t-23.5 -39.5q-22 -13 -33 -19 q-1 7 -1 15zM151 158l30 17q13 -4 28 -4q31 0 53 17.5t22 42.5v4l31 18q2 -10 2 -22q0 -38 -32 -62.5t-76 -24.5q-31 0 -58 14zM257 277q6 4 15.5 9.5t12.5 7.5l55 31h1q3 0 17 -5.5t21 -6.5l-74 -41q-5 -3 -14 -8t-14 -8q-7 12 -20 21zM295 142q17 15 25 25q20 -14 40 -24 q-2 -12 -16 -35q-28 18 -49 34z" />
<glyph unicode="&#xa6;" horiz-adv-x="127" d="M41 108h38q2 -207 9 -234q-19 -11 -43 -15q-4 36 -4 249zM42 365q2 72 2 211q0 1 2.5 2.5t7 3t9 3.5t9.5 4.5t8 4.5q-1 -13 -1 -51.5t-0.5 -91.5t-0.5 -86h-36z" />
<glyph unicode="&#xa7;" horiz-adv-x="670" d="M54 5q0 28 13.5 41.5t28.5 13.5q26 0 26 -11q0 -1 -6.5 -6.5t-13 -18t-6.5 -33.5q0 -44 55.5 -82.5t136.5 -38.5q87 0 157 39.5t70 94.5q0 31 -19.5 53.5t-76.5 43.5q-11 0 -44 -5t-47 -5q-73 0 -116 32t-43 97q0 67 76 100l59 -9q-35 -15 -56.5 -41.5t-21.5 -63.5 q0 -47 28.5 -70.5t75.5 -23.5q35 0 55 5q33 0 57 -7q44 -12 71 -25.5t39 -29.5t15 -29t3 -34q0 -53 -65.5 -94t-184.5 -41q-111 0 -188.5 41.5t-77.5 106.5zM161 449q0 52 68 89.5t189 37.5q72 0 128.5 -18t89 -52t32.5 -78q0 -29 -10 -42t-24 -13q-26 0 -26 11q0 2 6.5 7 t13 18t6.5 33q0 28 -21.5 55.5t-65 46.5t-97.5 19q-90 0 -162.5 -37t-72.5 -91q0 -24 11 -42.5t24.5 -27.5t30.5 -15t25 -7t11 -1q8 0 31.5 3t37.5 3q174 0 174 -126q0 -22 -7.5 -39t-22 -29t-28 -19t-32.5 -14l-49 11q41 15 65 39t24 52q0 49 -36.5 76.5t-91.5 27.5 q-22 0 -45 -5q-33 0 -58 7q-34 9 -57 21t-35 22t-18 25t-7 25t-1 27z" />
<glyph unicode="&#xa8;" horiz-adv-x="312" d="M168 461q0 5 6.5 8.5t13.5 7.5t7 12q-1 3 -6 9q25 10 38.5 10t13.5 -10q0 -11 -8 -22t-21 -18t-26 -7q-18 0 -18 10zM368 461q0 5 6.5 8.5t13.5 7.5t7 12q0 4 -6 9q29 10 39 10q13 0 13 -10q0 -11 -8 -22t-20.5 -18t-26.5 -7q-18 0 -18 10z" />
<glyph unicode="&#xa9;" horiz-adv-x="596" d="M16 213q0 88 82.5 151t193.5 63q73 0 132.5 -29t93 -78t33.5 -107q0 -88 -82 -150.5t-194 -62.5q-110 0 -184.5 62t-74.5 151zM34 213q0 -83 69.5 -141t171.5 -58q104 0 180.5 58.5t76.5 140.5q0 55 -31 101t-86 72.5t-123 26.5q-104 0 -181 -59t-77 -141zM145 168 q0 62 47 118.5t130 56.5q29 0 53 -7.5t34.5 -16.5t10.5 -16q0 -9 -10 -16.5t-19 -7.5q-15 0 -15 13q0 5 1.5 12.5t1.5 9.5q0 17 -54 17q-46 0 -91 -53.5t-45 -128.5q0 -17 7.5 -29t20 -17t23 -7t20.5 -2q42 0 62 20q4 2 8.5 7t7 6.5t8 3.5t13.5 2q23 0 23 -8 q0 -12 -40.5 -28t-81.5 -16q-11 0 -27 3t-37.5 11t-36 27t-14.5 46z" />
<glyph unicode="&#xab;" horiz-adv-x="570" d="M28 299l250 124l27 -37q-124 -50 -233 -98l202 -261l-46 -23q-105 166 -200 295zM241 292l250 124l29 -38q-128 -50 -234 -97l202 -261l-46 -23q-103 163 -201 295z" />
<glyph unicode="&#xad;" horiz-adv-x="480" d="M92 219q0 9 7 28q57 -1 216 -1q87 0 137 7q-6 -25 -8 -33q-65 -4 -95 -4q-8 0 -96 1.5t-161 1.5z" />
<glyph unicode="&#xae;" horiz-adv-x="596" d="M16 213q0 88 82.5 151t193.5 63q73 0 132.5 -29t93 -78t33.5 -107q0 -88 -82 -150.5t-194 -62.5q-110 0 -184.5 62t-74.5 151zM34 213q0 -83 69.5 -141t171.5 -58q104 0 180.5 58.5t76.5 140.5q0 55 -31 101t-86 72.5t-123 26.5q-104 0 -181 -59t-77 -141zM137 89 q0 3 4.5 7t11.5 10.5t12 12.5q8 9 16.5 28t17 45t16.5 51t18 58.5t18 56.5q-28 0 -40 -2q0 1 3 20q19 3 40 3q70 0 116 -23.5t46 -67.5q0 -24 -25.5 -43t-55.5 -27q13 -12 21 -41.5t15 -52.5t19 -23q13 0 23 6.5t18 6.5q13 0 13 -5q0 -6 -17.5 -13.5t-37.5 -7.5 q-22 0 -35 16.5t-17 36.5t-9.5 41.5t-13.5 27.5q-23 -3 -33 -3q-8 0 -15 1.5t-12 4t-8.5 5t-5.5 4t-3 1.5q0 -3 -1.5 -8t-5.5 -19t-8.5 -26.5t-10.5 -28t-12 -27t-13 -19t-14 -7.5q-23 0 -35 1zM245 242q12 7 20 7q29 0 54 -17q1 0 3 1q63 25 63 59q0 29 -33 47.5t-70 18.5 l-8.5 -27.5t-18 -56.5t-10.5 -32zM260 226q10 -2 21 -2q10 0 15 3q-5 4 -18 4q-18 0 -18 -4v-1z" />
<glyph unicode="&#xaf;" horiz-adv-x="372" d="M116 493q13 3 50 3q25 0 78.5 -2t71.5 -2q45 0 92 9q3 -4 5 -18.5t2 -15.5q-36 -2 -90 -2q-48 0 -85 2t-48 2q-20 0 -40 -0.5t-24 -0.5q-2 0 -3 3t-1 6.5t-2 8t-6 7.5z" />
<glyph unicode="&#xb0;" horiz-adv-x="266" d="M72 446q0 14 9 26.5t24 19.5t33 7q28 0 47.5 -15.5t19.5 -37.5t-19.5 -37.5t-47.5 -15.5t-47 15.5t-19 37.5zM96 444q0 -15 13.5 -26t31.5 -11q20 0 33.5 11t13.5 26q0 7 -4 14t-10 12t-14.5 8t-18.5 3q-18 0 -31.5 -11t-13.5 -26z" />
<glyph unicode="&#xb1;" horiz-adv-x="452" d="M28 276q19 -1 79.5 -1.5t86.5 -0.5l28 126q1 2 8 4t16.5 4.5t14.5 4.5l-31 -139h31q81 0 137 8q9 -9 20 -34q-74 -3 -96 -3q-6 0 -39 0.5t-59 0.5q-5 -28 -9 -57q0 -1 -1.5 -10t-3 -20.5l-3 -23t-1.5 -15.5q-19 -8 -45 -10q7 50 13 76q1 16 14 61q-20 0 -66.5 0.5 t-71.5 0.5q-2 0 -5.5 5t-8 12t-8.5 11zM29 53q3 15 7 28q113 -2 215 -2q82 0 138 8q-1 -3 -2 -8t-2 -9.5l-2 -9t-2 -7.5q-73 -3 -95 -3q-8 0 -96.5 1.5t-160.5 1.5z" />
<glyph unicode="&#xb2;" horiz-adv-x="473" d="M81 384q0 16 8.5 28.5t28.5 20.5t50 8q32 0 66 -19q8 9 24.5 25.5l25 25t21.5 22t20 22t14 17.5t10 15.5t3 11.5q0 20 -56 20q-51 0 -72 -20q-5 -6 -7.5 -11.5t-4.5 -13t-4 -12.5q-6 -6 -14 -6q-19 0 -19 5q3 27 27 45q1 0 10 6t13.5 8t16 6t26.5 5.5t36 1.5 q35 0 55 -11.5t20 -25.5q0 -6 -6 -16.5t-16 -23t-22 -25.5t-25.5 -26t-24 -23.5t-20 -19.5t-11.5 -12q18 -9 28 -18.5t11 -14.5t3 -8.5t6 -3.5q11 0 35.5 15.5t33.5 15.5q5 0 8.5 -3t5.5 -6l1 -3l-1 -3q-20 -3 -50 -22t-37 -19q-5 0 -9.5 1.5t-7.5 4.5t-5 7t-2 8 q0 21 -29 41q-20 -22 -36.5 -36t-29.5 -20t-20.5 -7.5t-17.5 -1.5q-34 0 -47 14t-13 31zM101 383q0 -35 37 -35q21 0 46.5 21.5t41.5 43.5q-32 17 -57 17q-27 0 -42.5 -6.5t-20.5 -16t-5 -24.5z" />
<glyph unicode="&#xb3;" horiz-adv-x="473" d="M110 419q0 15 7 22.5t15 7.5q16 0 16 -5q0 -1 -3 -4t-6 -10t-3 -18q0 -24 26.5 -42t71.5 -18q47 0 82 22t35 53q0 34 -50 53q-6 -5 -16 -5q-23 0 -23 13v1q1 5 12.5 8t24 4.5t23 11.5t10.5 27q0 18 -13.5 29t-40.5 11q-28 0 -43 -8.5t-15 -20.5q0 -9 10 -12t10 -4 q0 -4 -9 -4q-15 0 -25 6t-10 15q0 7 5.5 13.5t15 11.5t21 8.5t23.5 5.5t23 2q34 0 55 -17t21 -40q0 -15 -10 -26.5t-19.5 -15.5t-24.5 -9q78 -21 78 -65q0 -30 -36.5 -56t-101.5 -26q-60 0 -98 22.5t-38 58.5z" />
<glyph unicode="&#xb4;" horiz-adv-x="370" d="M144 382l4 18.5t9 35t13 30.5q25 44 60 44q25 0 25 -14q0 -8 -16 -53q-17 13 -23 13q-19 0 -36 -19q-4 -5 -35 -56z" />
<glyph unicode="&#xb5;" horiz-adv-x="525" d="M-80 -259q0 4 1 12.5t10 41t25 72.5t51 110t82 151q-3 -13 -15 -48.5t-15 -49.5q-56 -92 -78.5 -161.5t-22.5 -99.5q4 -13 18 -13q23 0 56.5 86.5t50.5 169.5q47 216 47 259q0 5 -6 5q-7 -2 -14.5 -20.5t-16 -44t-30 -62.5t-51.5 -67l-1 1q17 23 33 54t26 56.5t19 48.5 t17 36t15 13q20 6 33 6q6 0 11.5 -5.5t5.5 -18.5t-10.5 -64.5t-24.5 -112.5t-14 -62q-43 -204 -112 -297q-24 -35 -54 -35q-11 0 -19 5.5t-12.5 14.5t-4.5 19zM143 40q20 100 26 126q0 -6 -2 -34t-2 -46q0 -30 13.5 -51t45.5 -21q49 0 75 22t46 71q-1 -8 -1 -22q0 -7 7 -40 q-16 -22 -43 -33.5t-83 -11.5q-53 0 -82 40zM360 97q0 41 9 72q22 54 42 113q7 11 29 11q10 0 17 -4t7 -11q0 -17 -32 -89.5t-32 -105.5q0 -69 33 -69q16 0 24.5 2.5t22.5 13.5q9 9 31 43l2 -1q-8 -15 -11.5 -21.5t-11.5 -18.5t-15 -17.5t-18.5 -10t-25.5 -4.5q-71 0 -71 97 z" />
<glyph unicode="&#xb7;" horiz-adv-x="188" d="M62 199q0 9 2 15.5t5.5 10.5t6.5 6.5t8 3.5t8 1.5t7 0.5q9 0 17 -6.5t8 -14.5q0 -27 -34 -27q-23 0 -28 10z" />
<glyph unicode="&#xb8;" horiz-adv-x="367" d="M142 -105q0 2 3 2q9 0 26.5 -22t28.5 -24q12 4 12 35q0 54 -48 106q8 -2 14.5 -3.5t10.5 -2.5q25 -15 39 -37t14 -42q0 -22 -10 -42t-32 -20q-11 0 -18 4.5t-20 20.5t-18 21q-2 2 -2 4z" />
<glyph unicode="&#xb9;" horiz-adv-x="285" d="M108 434q20 20 56 68q4 5 11 20q4 7 14 27.5t15 30.5q2 11 12 11t10 -8q0 -4 -3.5 -22t-13.5 -42.5t-23 -33.5q-28 -107 -28 -122q0 -9 3 -20q-5 -1 -15 -1q-2 0 -8.5 0.5t-12.5 0.5q0 17 5.5 40t11.5 40.5t11.5 33l5.5 15.5q-4 -2 -13.5 -12.5t-19.5 -18t-18 -7.5z" />
<glyph unicode="&#xbb;" horiz-adv-x="590" d="M28 30l268 219q-60 44 -201 137l37 31l210 -165q-117 -99 -276 -252zM225 30l267 219q-78 57 -201 137l38 31l211 -165q-127 -107 -278 -252z" />
<glyph unicode="&#xbc;" horiz-adv-x="682" d="M25 -41q27 23 104 89t98 85t78.5 71.5t92 89.5t89.5 96.5t117 131.5l42 -27l-580 -563zM108 405q20 20 56 68q4 5 11 20q4 7 14 27.5t15 30.5q2 11 12 11t10 -8q0 -2 -2 -14t-6.5 -28.5t-13 -32.5t-18.5 -23q-28 -107 -28 -122q0 -10 3 -20q-5 -1 -15 -1q-2 0 -8.5 0.5 t-12.5 0.5q0 17 5.5 40t11.5 40.5t11.5 33l5.5 15.5q-4 -2 -13.5 -12.5t-19.5 -18t-18 -7.5zM374 62q0 2 2 4q38 19 71 41t69.5 49t65.5 46q6 4 7.5 9t4.5 9.5t12 6.5q19 0 19 -11q-27 -65 -46 -150h25q3 -3 6.5 -8.5t3.5 -7.5q0 -3 -13 -3h-25q-1 -6 -7.5 -31.5 t-10.5 -39.5q-2 -4 -7 -4h-29q9 17 24 75q-138 3 -157 4q-6 0 -10.5 4t-4.5 7zM426 71q17 -5 123 -5q17 62 33 111q-21 -14 -69.5 -50.5t-86.5 -55.5z" />
<glyph unicode="&#xbd;" horiz-adv-x="728" d="M25 -41q27 23 104 89t98 85t78.5 71.5t92 89.5t89.5 96.5t117 131.5l42 -27l-580 -563zM108 404q20 20 56 68q4 5 11 20q4 7 14 27.5t15 30.5q2 11 12 11t10 -8q0 -2 -2 -14t-6.5 -28.5t-13 -32.5t-18.5 -23q-28 -107 -28 -122q0 -9 3 -20q-5 -1 -15 -1q-2 0 -8.5 0.5 t-12.5 0.5q0 17 5.5 40t11.5 40.5t11.5 33l5.5 15.5q-4 -2 -13.5 -12.5t-19.5 -18t-18 -7.5zM389 15q0 25 21 41t65 16q33 0 66 -19q9 9 25 25.5t24.5 25t21.5 22t20 22t14.5 17.5t10.5 15.5t3 11.5q0 20 -56 20q-52 0 -73 -20q-4 -5 -6.5 -10t-3.5 -8t-2.5 -8.5t-3.5 -10.5 q-5 -6 -14 -6q-19 0 -19 5q3 27 28 45l9 6t13.5 8t16 6t27 5.5t35.5 1.5q36 0 55.5 -11.5t19.5 -25.5q0 -11 -18 -34.5t-37.5 -43.5t-43.5 -43t-26 -25q18 -9 28 -18.5t11.5 -14.5t3 -8.5t6.5 -3.5q10 0 35 15.5t34 15.5q4 0 8 -3t5 -6l2 -3l-2 -3q-19 -3 -49 -22t-38 -19 q-9 0 -16.5 6.5t-7.5 14.5q0 21 -29 41q-26 -29 -47.5 -44t-32 -18t-23.5 -3q-34 0 -47 14t-13 31zM409 14q0 -35 36 -35q22 0 47 21.5t42 43.5q-33 17 -58 17q-20 0 -34 -3.5t-21 -10t-9.5 -14.5t-2.5 -19z" />
<glyph unicode="&#xbe;" horiz-adv-x="682" d="M25 -41q27 23 104 89t98 85t78.5 71.5t92 89.5t89.5 96.5t117 131.5l42 -27l-580 -563zM82 389q0 15 7.5 22.5t15.5 7.5q15 0 15 -5q0 -1 -1 -2.5t-3 -3.5t-3.5 -5t-2.5 -8.5t-1 -12.5q0 -24 26.5 -42t70.5 -18q47 0 82.5 22t35.5 53q0 34 -50 53q-6 -5 -16 -5 q-23 0 -23 13v1q1 5 12 8t24 4.5t23.5 11.5t10.5 27q0 40 -55 40q-28 0 -43 -8.5t-15 -20.5q0 -9 10 -12t10 -4q0 -4 -8 -4q-15 0 -25 6t-10 15t8.5 17t21.5 13t28 8t29 3q18 0 32.5 -5t24 -13t14.5 -18t5 -21q0 -15 -10 -26.5t-19 -15.5t-24 -9q77 -21 77 -65 q0 -30 -36.5 -56t-100.5 -26q-61 0 -99 22.5t-38 58.5zM374 62q0 2 2 4q38 19 71 41t69.5 49t65.5 46q6 4 7.5 9t4.5 9.5t12 6.5q19 0 19 -11q-27 -65 -46 -150h25q3 -3 6.5 -8.5t3.5 -7.5q0 -3 -13 -3h-25q-1 -6 -7.5 -31.5t-10.5 -39.5q-2 -4 -7 -4h-29q9 17 24 75 q-138 3 -157 4q-6 0 -10.5 4t-4.5 7zM426 71q17 -5 123 -5q17 62 33 111q-21 -14 -69.5 -50.5t-86.5 -55.5z" />
<glyph unicode="&#xbf;" horiz-adv-x="453" d="M28 156q0 43 14 67q10 18 38.5 39t49.5 28q15 5 35 11.5t34 10.5t29 9t25 9.5t19 9.5t13 10.5t4 11.5q0 10 -7 30.5t-7 28.5q0 3 10 3q13 0 29.5 -4.5t16.5 -7.5l-2 -10.5t-4 -16.5t-7 -17.5t-13 -22t-19 -20.5q-5 -5 -22 -13t-33.5 -14.5t-39 -15t-27.5 -10.5 q-80 -31 -80 -114q0 -107 95 -137q26 -9 71 -9q35 0 59.5 5t38 16t18 17.5t12.5 19.5q7 14 7 22q0 14 -19 24q-2 2 -7 3.5t-10 2.5t-9 2.5t-7 3t-3 2.5q0 3 8 5.5t13 2.5q12 0 33 -5q42 -11 42 -41v-1q-3 -22 -10 -33q-35 -58 -164 -58q-26 0 -78 7q-9 1 -19.5 3.5t-29 9 t-34 17.5t-31 26.5t-24 39.5t-8.5 53zM314 575q0 27 34 27q23 0 27 -10q0 -13 -3.5 -21.5t-10 -11.5t-11.5 -4t-11 -1q-10 0 -17.5 6.5t-7.5 14.5z" />
<glyph unicode="&#xc0;" horiz-adv-x="1045" d="M54 127q0 24 20.5 42t61.5 18q23 0 43 -6t38.5 -21t28.5 -38q9 -19 9 -29q-8 -10 -27 -10q-16 0 -22 6v29q0 28 -17 43t-45 15q-25 0 -37.5 -20.5t-12.5 -46.5q0 -28 20 -48.5t51.5 -30.5t59.5 -14.5t53 -4.5q34 0 54 2t49 13.5t52.5 28t66 53.5t88 82.5t120.5 122.5 q41 44 118 145q-14 -57 -17 -90l-75 -84q-84 -93 -144 -149t-109.5 -86t-86.5 -39.5t-85 -9.5q-52 0 -93.5 6t-68 16.5t-46 23t-29.5 27.5t-14 28t-4 26zM298 368q0 35 29 51t74 16q18 0 39 -3.5t38.5 -8.5t41 -14.5t38.5 -16t39 -19t34.5 -18t33 -18.5t26.5 -15l-10 -11 q-41 24 -87.5 48t-95.5 43t-73 19q-34 -1 -59.5 -18t-25.5 -43q0 -31 10 -54t22.5 -33.5t32 -16.5t30.5 -7t26 -1q7 1 9.5 4t2.5 8.5t1 7.5q4 2 14 2q8 0 24 -8t16 -13q0 -9 -12 -14t-28 -5q-84 0 -137 43t-53 95zM715 59q0 23 18 42.5t61 19.5q25 0 42 -6l1 -17 q-15 6 -31 7q-33 0 -45.5 -18t-12.5 -35q0 -16 13.5 -28t42.5 -12q9 0 16.5 3t13 7t9.5 11t6 12.5t3.5 13t2 12t1 10.5l0.5 6q0 66 -19 140q24 -7 39 -9q1 -1 5 -16t4.5 -18.5t3.5 -17t4 -20.5t3 -19.5t2.5 -24t0.5 -23.5q-1 -10 -3 -18q-4 -15 -7.5 -22.5t-13 -18 t-26.5 -15.5t-43 -5q-46 0 -68.5 17t-22.5 42zM751 275l9 11q30 -15 70 -29q44 -15 74 -15q17 0 28 4.5t15 10.5t7 14t5 14t7.5 10.5t16 4.5t17 -7.5t6.5 -18.5q0 -17 -20.5 -32t-55.5 -15q-81 0 -179 48zM826 304q0 50 8 82q16 91 28 122q2 3 4.5 11t3.5 10t3.5 8t3.5 8 t3 7t3 7t3.5 6t4.5 6.5t4.5 5.5t5.5 6q17 12 35 12q20 0 35 -10.5t15 -23.5q0 -6 -7.5 -20.5t-19 -31t-22.5 -32t-19 -25.5l-8 -10q-41 -56 -41 -148q0 -17 1 -30q-24 4 -43 11q-1 13 -1 29zM911 38q2 7 4 20q2 -3 4.5 -7.5t4 -8t4 -7.5t4.5 -7t4.5 -6t5.5 -5t6.5 -4t7 -3 t8.5 -1q17 0 30.5 10t36.5 44l1 -1q-29 -62 -71 -62q-30 0 -50 38zM1014 627q9 12 23 28.5t19 23.5q8 12 8 20q0 19 -30 24q5 4 10.5 8.5t10 8t9.5 7t8.5 6.5t7 5t6.5 3t5 1q9 0 16.5 -7.5t10.5 -18.5v-6q0 -26 -58 -72q-5 -4 -12.5 -9t-17.5 -11.5t-16 -10.5z" />
<glyph unicode="&#xc1;" horiz-adv-x="1045" d="M54 127q0 24 20.5 42t61.5 18q23 0 43 -6t38.5 -21t28.5 -38q9 -19 9 -29q-8 -10 -27 -10q-16 0 -22 6v29q0 28 -17 43t-45 15q-25 0 -37.5 -20.5t-12.5 -46.5q0 -28 20 -48.5t51.5 -30.5t59.5 -14.5t53 -4.5q34 0 54 2t49 13.5t52.5 28t66 53.5t88 82.5t120.5 122.5 q41 44 118 145q-14 -57 -17 -90l-75 -84q-84 -93 -144 -149t-109.5 -86t-86.5 -39.5t-85 -9.5q-52 0 -93.5 6t-68 16.5t-46 23t-29.5 27.5t-14 28t-4 26zM298 368q0 35 29 51t74 16q18 0 39 -3.5t38.5 -8.5t41 -14.5t38.5 -16t39 -19t34.5 -18t33 -18.5t26.5 -15l-10 -11 q-41 24 -87.5 48t-95.5 43t-73 19q-34 -1 -59.5 -18t-25.5 -43q0 -31 10 -54t22.5 -33.5t32 -16.5t30.5 -7t26 -1q7 1 9.5 4t2.5 8.5t1 7.5q4 2 14 2q8 0 24 -8t16 -13q0 -9 -12 -14t-28 -5q-84 0 -137 43t-53 95zM715 59q0 23 18 42.5t61 19.5q25 0 42 -6l1 -17 q-15 6 -31 7q-33 0 -45.5 -18t-12.5 -35q0 -16 13.5 -28t42.5 -12q9 0 16.5 3t13 7t9.5 11t6 12.5t3.5 13t2 12t1 10.5l0.5 6q0 66 -19 140q24 -7 39 -9q1 -1 5 -16t4.5 -18.5t3.5 -17t4 -20.5t3 -19.5t2.5 -24t0.5 -23.5q-1 -10 -3 -18q-4 -15 -7.5 -22.5t-13 -18 t-26.5 -15.5t-43 -5q-46 0 -68.5 17t-22.5 42zM751 275l9 11q30 -15 70 -29q44 -15 74 -15q17 0 28 4.5t15 10.5t7 14t5 14t7.5 10.5t16 4.5t17 -7.5t6.5 -18.5q0 -17 -20.5 -32t-55.5 -15q-81 0 -179 48zM826 304q0 50 8 82q16 91 28 122q2 3 4.5 11t3.5 10t3.5 8t3.5 8 t3 7t3 7t3.5 6t4.5 6.5t4.5 5.5t5.5 6q17 12 35 12q20 0 35 -10.5t15 -23.5q0 -6 -7.5 -20.5t-19 -31t-22.5 -32t-19 -25.5l-8 -10q-41 -56 -41 -148q0 -17 1 -30q-24 4 -43 11q-1 13 -1 29zM911 38q2 7 4 20q2 -3 4.5 -7.5t4 -8t4 -7.5t4.5 -7t4.5 -6t5.5 -5t6.5 -4t7 -3 t8.5 -1q17 0 30.5 10t36.5 44l1 -1q-29 -62 -71 -62q-30 0 -50 38zM968 628q0 3 2.5 14.5t5 21t7.5 23.5t11 25q14 25 27.5 34.5t32.5 9.5q25 0 25 -14q0 -8 -17 -53q-16 13 -22 13q-19 0 -36 -19q-4 -5 -35 -56z" />
<glyph unicode="&#xc2;" horiz-adv-x="1045" d="M54 127q0 24 20.5 42t61.5 18q23 0 43 -6t38.5 -21t28.5 -38q9 -19 9 -29q-8 -10 -27 -10q-16 0 -22 6v29q0 28 -17 43t-45 15q-25 0 -37.5 -20.5t-12.5 -46.5q0 -28 20 -48.5t51.5 -30.5t59.5 -14.5t53 -4.5q34 0 54 2t49 13.5t52.5 28t66 53.5t88 82.5t120.5 122.5 q41 44 118 145q-14 -57 -17 -90l-75 -84q-84 -93 -144 -149t-109.5 -86t-86.5 -39.5t-85 -9.5q-52 0 -93.5 6t-68 16.5t-46 23t-29.5 27.5t-14 28t-4 26zM298 368q0 35 29 51t74 16q18 0 39 -3.5t38.5 -8.5t41 -14.5t38.5 -16t39 -19t34.5 -18t33 -18.5t26.5 -15l-10 -11 q-41 24 -87.5 48t-95.5 43t-73 19q-34 -1 -59.5 -18t-25.5 -43q0 -31 10 -54t22.5 -33.5t32 -16.5t30.5 -7t26 -1q7 1 9.5 4t2.5 8.5t1 7.5q4 2 14 2q8 0 24 -8t16 -13q0 -9 -12 -14t-28 -5q-84 0 -137 43t-53 95zM715 59q0 23 18 42.5t61 19.5q25 0 42 -6l1 -17 q-15 6 -31 7q-33 0 -45.5 -18t-12.5 -35q0 -16 13.5 -28t42.5 -12q9 0 16.5 3t13 7t9.5 11t6 12.5t3.5 13t2 12t1 10.5l0.5 6q0 66 -19 140q24 -7 39 -9q1 -1 5 -16t4.5 -18.5t3.5 -17t4 -20.5t3 -19.5t2.5 -24t0.5 -23.5q-1 -10 -3 -18q-4 -15 -7.5 -22.5t-13 -18 t-26.5 -15.5t-43 -5q-46 0 -68.5 17t-22.5 42zM751 275l9 11q30 -15 70 -29q44 -15 74 -15q17 0 28 4.5t15 10.5t7 14t5 14t7.5 10.5t16 4.5t17 -7.5t6.5 -18.5q0 -17 -20.5 -32t-55.5 -15q-81 0 -179 48zM804 631q6 14 21.5 27t32.5 22.5t37.5 29t34.5 44.5h50 q17 -32 38 -54t36.5 -36.5t23.5 -32.5q-45 24 -66 36.5t-32.5 22.5t-27.5 29q-7 -10 -16.5 -17.5t-23 -15t-26.5 -14l-37 -18.5t-45 -23zM826 304q0 50 8 82q16 91 28 122q2 3 4.5 11t3.5 10t3.5 8t3.5 8t3 7t3 7t3.5 6t4.5 6.5t4.5 5.5t5.5 6q17 12 35 12q20 0 35 -10.5 t15 -23.5q0 -6 -7.5 -20.5t-19 -31t-22.5 -32t-19 -25.5l-8 -10q-41 -56 -41 -148q0 -17 1 -30q-24 4 -43 11q-1 13 -1 29zM911 38q2 7 4 20q2 -3 4.5 -7.5t4 -8t4 -7.5t4.5 -7t4.5 -6t5.5 -5t6.5 -4t7 -3t8.5 -1q17 0 30.5 10t36.5 44l1 -1q-29 -62 -71 -62q-30 0 -50 38z " />
<glyph unicode="&#xc3;" horiz-adv-x="1045" d="M54 127q0 24 20.5 42t61.5 18q23 0 43 -6t38.5 -21t28.5 -38q9 -19 9 -29q-8 -10 -27 -10q-16 0 -22 6v29q0 28 -17 43t-45 15q-25 0 -37.5 -20.5t-12.5 -46.5q0 -28 20 -48.5t51.5 -30.5t59.5 -14.5t53 -4.5q34 0 54 2t49 13.5t52.5 28t66 53.5t88 82.5t120.5 122.5 q41 44 118 145q-14 -57 -17 -90l-75 -84q-84 -93 -144 -149t-109.5 -86t-86.5 -39.5t-85 -9.5q-52 0 -93.5 6t-68 16.5t-46 23t-29.5 27.5t-14 28t-4 26zM298 368q0 35 29 51t74 16q18 0 39 -3.5t38.5 -8.5t41 -14.5t38.5 -16t39 -19t34.5 -18t33 -18.5t26.5 -15l-10 -11 q-41 24 -87.5 48t-95.5 43t-73 19q-34 -1 -59.5 -18t-25.5 -43q0 -31 10 -54t22.5 -33.5t32 -16.5t30.5 -7t26 -1q7 1 9.5 4t2.5 8.5t1 7.5q4 2 14 2q8 0 24 -8t16 -13q0 -9 -12 -14t-28 -5q-84 0 -137 43t-53 95zM715 59q0 23 18 42.5t61 19.5q25 0 42 -6l1 -17 q-15 6 -31 7q-33 0 -45.5 -18t-12.5 -35q0 -16 13.5 -28t42.5 -12q9 0 16.5 3t13 7t9.5 11t6 12.5t3.5 13t2 12t1 10.5l0.5 6q0 66 -19 140q24 -7 39 -9q1 -1 5 -16t4.5 -18.5t3.5 -17t4 -20.5t3 -19.5t2.5 -24t0.5 -23.5q-1 -10 -3 -18q-4 -15 -7.5 -22.5t-13 -18 t-26.5 -15.5t-43 -5q-46 0 -68.5 17t-22.5 42zM751 275l9 11q30 -15 70 -29q44 -15 74 -15q17 0 28 4.5t15 10.5t7 14t5 14t7.5 10.5t16 4.5t17 -7.5t6.5 -18.5q0 -17 -20.5 -32t-55.5 -15q-81 0 -179 48zM826 304q0 50 8 82q16 91 28 122q2 3 4.5 11t3.5 10t3.5 8t3.5 8 t3 7t3 7t3.5 6t4.5 6.5t4.5 5.5t5.5 6q17 12 35 12q20 0 35 -10.5t15 -23.5q0 -6 -7.5 -20.5t-19 -31t-22.5 -32t-19 -25.5l-8 -10q-41 -56 -41 -148q0 -17 1 -30q-24 4 -43 11q-1 13 -1 29zM844 678q27 35 47 35q21 0 72 -11.5t67 -11.5q8 0 14.5 0.5t12.5 2.5t9.5 2.5 t9 4.5t7 5t8 6.5t8.5 6.5q2 -2 6 -5.5t7 -6.5t4 -7q-3 -2 -10 -6.5t-10.5 -6.5t-10 -5.5t-11.5 -5t-12.5 -2.5t-15.5 -1q-26 0 -52 6t-47 11.5t-35 5.5q-17 0 -30 -12.5t-17 -12.5q-10 0 -21 8zM911 38q2 7 4 20q2 -3 4.5 -7.5t4 -8t4 -7.5t4.5 -7t4.5 -6t5.5 -5t6.5 -4 t7 -3t8.5 -1q17 0 30.5 10t36.5 44l1 -1q-29 -62 -71 -62q-30 0 -50 38z" />
<glyph unicode="&#xc4;" horiz-adv-x="1045" d="M54 127q0 24 20.5 42t61.5 18q23 0 43 -6t38.5 -21t28.5 -38q9 -19 9 -29q-8 -10 -27 -10q-16 0 -22 6v29q0 28 -17 43t-45 15q-25 0 -37.5 -20.5t-12.5 -46.5q0 -28 20 -48.5t51.5 -30.5t59.5 -14.5t53 -4.5q34 0 54 2t49 13.5t52.5 28t66 53.5t88 82.5t120.5 122.5 q41 44 118 145q-14 -57 -17 -90l-75 -84q-84 -93 -144 -149t-109.5 -86t-86.5 -39.5t-85 -9.5q-52 0 -93.5 6t-68 16.5t-46 23t-29.5 27.5t-14 28t-4 26zM298 368q0 35 29 51t74 16q18 0 39 -3.5t38.5 -8.5t41 -14.5t38.5 -16t39 -19t34.5 -18t33 -18.5t26.5 -15l-10 -11 q-41 24 -87.5 48t-95.5 43t-73 19q-34 -1 -59.5 -18t-25.5 -43q0 -31 10 -54t22.5 -33.5t32 -16.5t30.5 -7t26 -1q7 1 9.5 4t2.5 8.5t1 7.5q4 2 14 2q8 0 24 -8t16 -13q0 -9 -12 -14t-28 -5q-84 0 -137 43t-53 95zM715 59q0 23 18 42.5t61 19.5q25 0 42 -6l1 -17 q-15 6 -31 7q-33 0 -45.5 -18t-12.5 -35q0 -16 13.5 -28t42.5 -12q9 0 16.5 3t13 7t9.5 11t6 12.5t3.5 13t2 12t1 10.5l0.5 6q0 66 -19 140q24 -7 39 -9q1 -1 5 -16t4.5 -18.5t3.5 -17t4 -20.5t3 -19.5t2.5 -24t0.5 -23.5q-1 -10 -3 -18q-4 -15 -7.5 -22.5t-13 -18 t-26.5 -15.5t-43 -5q-46 0 -68.5 17t-22.5 42zM751 275l9 11q30 -15 70 -29q44 -15 74 -15q17 0 28 4.5t15 10.5t7 14t5 14t7.5 10.5t16 4.5t17 -7.5t6.5 -18.5q0 -17 -20.5 -32t-55.5 -15q-81 0 -179 48zM826 304q0 50 8 82q16 91 28 122q2 3 4.5 11t3.5 10t3.5 8t3.5 8 t3 7t3 7t3.5 6t4.5 6.5t4.5 5.5t5.5 6q17 12 35 12q20 0 35 -10.5t15 -23.5q0 -6 -7.5 -20.5t-19 -31t-22.5 -32t-19 -25.5l-8 -10q-41 -56 -41 -148q0 -17 1 -30q-24 4 -43 11q-1 13 -1 29zM871 683q0 6 14 12t14 16q0 2 -1.5 3.5l-3 3l-2.5 2.5q26 10 39.5 10t13.5 -10 q0 -17 -17.5 -32t-37.5 -15q-19 0 -19 10zM911 38q2 7 4 20q2 -3 4.5 -7.5t4 -8t4 -7.5t4.5 -7t4.5 -6t5.5 -5t6.5 -4t7 -3t8.5 -1q17 0 30.5 10t36.5 44l1 -1q-29 -62 -71 -62q-30 0 -50 38zM1071 683q0 6 14 12t14 16q0 4 -7 9q30 10 39 10q14 0 14 -10q0 -17 -17 -32 t-38 -15q-19 0 -19 10z" />
<glyph unicode="&#xc5;" horiz-adv-x="1045" d="M54 127q0 24 20.5 42t61.5 18q23 0 43 -6t38.5 -21t28.5 -38q9 -19 9 -29q-8 -10 -27 -10q-16 0 -22 6v29q0 28 -17 43t-45 15q-25 0 -37.5 -20.5t-12.5 -46.5q0 -28 20 -48.5t51.5 -30.5t59.5 -14.5t53 -4.5q34 0 54 2t49 13.5t52.5 28t66 53.5t88 82.5t120.5 122.5 q41 44 118 145q-14 -57 -17 -90l-75 -84q-84 -93 -144 -149t-109.5 -86t-86.5 -39.5t-85 -9.5q-52 0 -93.5 6t-68 16.5t-46 23t-29.5 27.5t-14 28t-4 26zM298 368q0 35 29 51t74 16q18 0 39 -3.5t38.5 -8.5t41 -14.5t38.5 -16t39 -19t34.5 -18t33 -18.5t26.5 -15l-10 -11 q-41 24 -87.5 48t-95.5 43t-73 19q-34 -1 -59.5 -18t-25.5 -43q0 -31 10 -54t22.5 -33.5t32 -16.5t30.5 -7t26 -1q7 1 9.5 4t2.5 8.5t1 7.5q4 2 14 2q8 0 24 -8t16 -13q0 -9 -12 -14t-28 -5q-84 0 -137 43t-53 95zM715 59q0 23 18 42.5t61 19.5q25 0 42 -6l1 -17 q-15 6 -31 7q-33 0 -45.5 -18t-12.5 -35q0 -16 13.5 -28t42.5 -12q9 0 16.5 3t13 7t9.5 11t6 12.5t3.5 13t2 12t1 10.5l0.5 6q0 66 -19 140q24 -7 39 -9q1 -1 5 -16t4.5 -18.5t3.5 -17t4 -20.5t3 -19.5t2.5 -24t0.5 -23.5q-1 -10 -3 -18q-4 -15 -7.5 -22.5t-13 -18 t-26.5 -15.5t-43 -5q-46 0 -68.5 17t-22.5 42zM751 275l9 11q30 -15 70 -29q44 -15 74 -15q17 0 28 4.5t15 10.5t7 14t5 14t7.5 10.5t16 4.5t17 -7.5t6.5 -18.5q0 -17 -20.5 -32t-55.5 -15q-81 0 -179 48zM826 304q0 50 8 82q16 91 28 122q2 3 4.5 11t3.5 10t3.5 8t3.5 8 t3 7t3 7t3.5 6t4.5 6.5t4.5 5.5t5.5 6q17 12 35 12q20 0 35 -10.5t15 -23.5q0 -6 -7.5 -20.5t-19 -31t-22.5 -32t-19 -25.5l-8 -10q-41 -56 -41 -148q0 -17 1 -30q-24 4 -43 11q-1 13 -1 29zM904 675q0 27 23.5 46t57.5 19t57.5 -19t23.5 -46t-23.5 -46t-57.5 -19t-57.5 19 t-23.5 46zM911 38q2 7 4 20q2 -3 4.5 -7.5t4 -8t4 -7.5t4.5 -7t4.5 -6t5.5 -5t6.5 -4t7 -3t8.5 -1q17 0 30.5 10t36.5 44l1 -1q-29 -62 -71 -62q-30 0 -50 38zM934 673q0 -19 16.5 -32t39.5 -13t39.5 13t16.5 32q0 18 -17 31.5t-39 13.5q-15 0 -28 -6t-20.5 -16.5 t-7.5 -22.5z" />
<glyph unicode="&#xc7;" horiz-adv-x="671" d="M72 316v2q40 4 62.5 7t56.5 11.5t74 22.5l-19 -25q-91 -15 -174 -18zM191 157q0 48 27 97t58 85q6 6 21 24l20 24t18.5 20.5t19.5 21t18.5 18.5t21.5 19t22 17t26 18.5t28 17.5q130 76 204 76q36 0 36 -21v-5q0 -5 -3.5 -9t-19.5 -14.5t-46 -27t-84 -46.5l-150 -79 q19 22 41 40l85 49q118 64 128 76q-86 -17 -164 -63q-49 -28 -155 -142q-26 -27 -60 -87t-34 -98q0 -63 57.5 -106.5t175.5 -43.5q60 0 86 22t26 51q0 26 -13 43.5t-33 17.5q-6 0 -10.5 -0.5t-5.5 -0.5t-1 2t3 5t10.5 5t17.5 2q32 0 60 -22.5t28 -56.5q0 -14 -7 -27 t-23.5 -27.5t-52 -23t-85.5 -8.5q-66 0 -123.5 15.5t-92.5 39.5t-55 51t-20 51zM354 -100q0 2 3 2q7 0 16.5 -11t19.5 -22.5t19 -12.5q12 4 12 35q0 54 -49 106q9 -2 15.5 -3.5t9.5 -2.5q26 -15 40 -37.5t14 -41.5q0 -22 -10 -42t-32 -20q-11 0 -18.5 4.5t-20 20.5t-18.5 21 q-1 2 -1 4z" />
<glyph unicode="&#xc8;" horiz-adv-x="630" d="M54 204q0 47 36.5 88.5t105.5 65.5q1 -8 5 -15q-36 -21 -58 -56t-22 -71q0 -27 5.5 -52t21 -53.5t40 -49t66.5 -34t97 -13.5q15 0 33 2.5t45 10t53.5 27t43.5 47.5q2 -6 4.5 -20t3.5 -17q-30 -28 -67.5 -43.5t-61 -18t-55.5 -2.5q-78 0 -143.5 21.5t-109 69t-43.5 113.5z M209 429q0 16 3.5 34.5t16 43t32.5 43t56 32t83 13.5q40 0 70.5 -10t47 -24t27 -31t13.5 -27.5t3 -17.5q0 -26 -19.5 -37.5t-41.5 -11.5q-42 0 -42 10q0 4 5 5.5t14.5 1.5t14.5 1q20 5 25 13.5t5 21.5q0 26 -20.5 45t-45 26t-47.5 7q-32 0 -57.5 -8t-41 -21.5t-26.5 -29 t-16 -34.5t-7 -34t-2 -30q0 -64 22 -102q19 -31 38 -43.5t49 -12.5q34 0 52 24.5t18 48.5q0 56 -80 56q-38 0 -75 -9l-1 15q37 9 76 9q55 0 89 -23.5t34 -55.5q0 -24 -10 -40.5t-27.5 -25.5t-36 -12.5t-38.5 -3.5q-24 0 -45 7t-27 11t-22 16q-33 26 -55 83q-11 40 -11 77z M466 627q8 10 16.5 20t15.5 18t11 14q7 12 7 20q0 19 -30 24q6 5 15 11.5t14 11t11 8.5t10.5 6t7.5 2q6 0 11.5 -3.5t9 -9.5t5.5 -13v-6q0 -26 -58 -72q-4 -4 -12 -9t-18 -11.5t-16 -10.5zM530 190q0 4 1 5q0 3 21 5.5t34 2.5q5 0 5 -15q-6 -46 -9 -57q-4 17 -6 17 q-6 0 -6 -34q0 -38 6 -52t16 -14q7 0 11.5 2t6 3.5t4 5.5l2.5 4l2 -1q0 -1 -3 -6.5t-8.5 -11t-11.5 -5.5q-40 0 -44 43q-3 13 -5.5 27.5t-4.5 21.5q-11 36 -11 59z" />
<glyph unicode="&#xc9;" horiz-adv-x="630" d="M54 204q0 47 36.5 88.5t105.5 65.5q1 -8 5 -15q-36 -21 -58 -56t-22 -71q0 -27 5.5 -52t21 -53.5t40 -49t66.5 -34t97 -13.5q15 0 33 2.5t45 10t53.5 27t43.5 47.5q2 -6 4.5 -20t3.5 -17q-30 -28 -67.5 -43.5t-61 -18t-55.5 -2.5q-78 0 -143.5 21.5t-109 69t-43.5 113.5z M209 429q0 16 3.5 34.5t16 43t32.5 43t56 32t83 13.5q40 0 70.5 -10t47 -24t27 -31t13.5 -27.5t3 -17.5q0 -26 -19.5 -37.5t-41.5 -11.5q-42 0 -42 10q0 4 5 5.5t14.5 1.5t14.5 1q20 5 25 13.5t5 21.5q0 26 -20.5 45t-45 26t-47.5 7q-32 0 -57.5 -8t-41 -21.5t-26.5 -29 t-16 -34.5t-7 -34t-2 -30q0 -64 22 -102q19 -31 38 -43.5t49 -12.5q34 0 52 24.5t18 48.5q0 56 -80 56q-38 0 -75 -9l-1 15q37 9 76 9q55 0 89 -23.5t34 -55.5q0 -24 -10 -40.5t-27.5 -25.5t-36 -12.5t-38.5 -3.5q-24 0 -45 7t-27 11t-22 16q-33 26 -55 83q-11 40 -11 77z M431 628l4 18.5t9.5 35t13.5 30.5q14 25 27.5 34.5t32.5 9.5q24 0 24 -14q0 -7 -16 -53q-16 13 -22 13q-20 0 -36 -19q-4 -5 -35 -56zM530 190q0 4 1 5q0 3 21 5.5t34 2.5q5 0 5 -15q-6 -46 -9 -57q-4 17 -6 17q-6 0 -6 -34q0 -38 6 -52t16 -14q7 0 11.5 2t6 3.5t4 5.5 l2.5 4l2 -1q0 -1 -3 -6.5t-8.5 -11t-11.5 -5.5q-40 0 -44 43q-3 13 -5.5 27.5t-4.5 21.5q-11 36 -11 59z" />
<glyph unicode="&#xca;" horiz-adv-x="630" d="M54 204q0 47 36.5 88.5t105.5 65.5q1 -8 5 -15q-36 -21 -58 -56t-22 -71q0 -27 5.5 -52t21 -53.5t40 -49t66.5 -34t97 -13.5q15 0 33 2.5t45 10t53.5 27t43.5 47.5q2 -6 4.5 -20t3.5 -17q-30 -28 -67.5 -43.5t-61 -18t-55.5 -2.5q-78 0 -143.5 21.5t-109 69t-43.5 113.5z M209 429q0 16 3.5 34.5t16 43t32.5 43t56 32t83 13.5q40 0 70.5 -10t47 -24t27 -31t13.5 -27.5t3 -17.5q0 -26 -19.5 -37.5t-41.5 -11.5q-42 0 -42 10q0 4 5 5.5t14.5 1.5t14.5 1q20 5 25 13.5t5 21.5q0 26 -20.5 45t-45 26t-47.5 7q-32 0 -57.5 -8t-41 -21.5t-26.5 -29 t-16 -34.5t-7 -34t-2 -30q0 -64 22 -102q19 -31 38 -43.5t49 -12.5q34 0 52 24.5t18 48.5q0 56 -80 56q-38 0 -75 -9l-1 15q37 9 76 9q55 0 89 -23.5t34 -55.5q0 -24 -10 -40.5t-27.5 -25.5t-36 -12.5t-38.5 -3.5q-24 0 -45 7t-27 11t-22 16q-33 26 -55 83q-11 40 -11 77z M310 631q6 14 21.5 27t32.5 22.5t37.5 29t34.5 44.5h50q14 -25 30 -44.5t28 -29t23 -22.5t17 -27q-64 34 -83.5 48t-41.5 40q-10 -12 -24 -22t-27.5 -17t-43 -21.5t-54.5 -27.5zM530 190q0 4 1 5q0 3 21 5.5t34 2.5q5 0 5 -15q-6 -46 -9 -57q-4 17 -6 17q-6 0 -6 -34 q0 -38 6 -52t16 -14q7 0 11.5 2t6 3.5t4 5.5l2.5 4l2 -1q0 -1 -3 -6.5t-8.5 -11t-11.5 -5.5q-40 0 -44 43q-3 13 -5.5 27.5t-4.5 21.5q-11 36 -11 59z" />
<glyph unicode="&#xcb;" horiz-adv-x="630" d="M54 204q0 47 36.5 88.5t105.5 65.5q1 -8 5 -15q-36 -21 -58 -56t-22 -71q0 -27 5.5 -52t21 -53.5t40 -49t66.5 -34t97 -13.5q15 0 33 2.5t45 10t53.5 27t43.5 47.5q2 -6 4.5 -20t3.5 -17q-30 -28 -67.5 -43.5t-61 -18t-55.5 -2.5q-78 0 -143.5 21.5t-109 69t-43.5 113.5z M209 429q0 16 3.5 34.5t16 43t32.5 43t56 32t83 13.5q40 0 70.5 -10t47 -24t27 -31t13.5 -27.5t3 -17.5q0 -26 -19.5 -37.5t-41.5 -11.5q-42 0 -42 10q0 4 5 5.5t14.5 1.5t14.5 1q20 5 25 13.5t5 21.5q0 26 -20.5 45t-45 26t-47.5 7q-32 0 -57.5 -8t-41 -21.5t-26.5 -29 t-16 -34.5t-7 -34t-2 -30q0 -64 22 -102q19 -31 38 -43.5t49 -12.5q34 0 52 24.5t18 48.5q0 56 -80 56q-38 0 -75 -9l-1 15q37 9 76 9q55 0 89 -23.5t34 -55.5q0 -24 -10 -40.5t-27.5 -25.5t-36 -12.5t-38.5 -3.5q-24 0 -45 7t-27 11t-22 16q-33 26 -55 83q-11 40 -11 77z M351 683q0 6 14 12t14 16q0 2 -1.5 3.5l-3 3l-2.5 2.5q26 10 39.5 10t13.5 -10q0 -17 -17.5 -32t-37.5 -15q-19 0 -19 10zM530 190q0 4 1 5q0 3 21 5.5t34 2.5q5 0 5 -15q-6 -46 -9 -57q-4 17 -6 17q-6 0 -6 -34q0 -38 6 -52t16 -14q7 0 11.5 2t6 3.5t4 5.5l2.5 4l2 -1 q0 -1 -3 -6.5t-8.5 -11t-11.5 -5.5q-40 0 -44 43q-3 13 -5.5 27.5t-4.5 21.5q-11 36 -11 59zM551 683q0 6 14 12t14 16q0 4 -7 9q30 10 39 10q14 0 14 -10q0 -17 -17 -32t-38 -15q-19 0 -19 10z" />
<glyph unicode="&#xcc;" horiz-adv-x="641" d="M109 464q0 26 15.5 49.5t46.5 39t70 15.5q38 0 73.5 -11t57.5 -25t48.5 -29.5t44.5 -21.5q39 -13 83 -13q41 0 96 27q0 -4 -0.5 -7.5t-1.5 -6.5l-2 -6t-2.5 -5t-2.5 -4t-1 -3l-1 -1q-26 -8 -59 -8q-42 0 -75.5 5.5t-55.5 14t-41 19.5t-35 21.5t-32.5 19t-39.5 14t-50 5.5 q-29 0 -49 -12.5t-28 -32t-10.5 -32t-2.5 -22.5q0 -20 8.5 -45.5t25.5 -25.5q6 0 8 3.5t2 12.5q0 4 -0.5 12t-0.5 11q0 11 4 11q8 0 23 -9.5t15 -17.5q0 -12 -12 -24.5t-34 -12.5q-27 0 -56 29.5t-29 65.5zM145 142q0 24 28.5 39t61.5 15q31 -1 54.5 -13.5t35.5 -29.5 t17.5 -30.5t5.5 -22.5q-10 -12 -29 -12q-13 0 -21 7q-2 4 -2 15q0 14 -2 25t-7.5 22.5t-18.5 18t-33 6.5q-15 0 -26 -7t-17 -19t-6 -27q0 -29 17 -51.5t40 -34t51 -18.5t45.5 -9t29.5 -2q55 0 80 18q39 29 84 117t88 195t59 136q9 15 17.5 45t20 47t36.5 23q10 0 21 -6 t11 -16q-5 -28 -15 -44q-28 -47 -69 -135.5t-72.5 -159t-68.5 -132t-65 -73.5q-62 -29 -125 -29q-88 0 -157 44.5t-69 97.5zM540 627q9 12 23.5 28.5t18.5 23.5q8 12 8 20q0 19 -30 24q6 5 14.5 11.5t14 11t11.5 8.5t10 6t8 2q9 0 16 -7.5t10 -18.5v-6q0 -26 -58 -72 q-4 -3 -9.5 -7t-11 -7.5t-13 -8.5t-12.5 -8z" />
<glyph unicode="&#xcd;" horiz-adv-x="641" d="M109 464q0 26 15.5 49.5t46.5 39t70 15.5q38 0 73.5 -11t57.5 -25t48.5 -29.5t44.5 -21.5q39 -13 83 -13q41 0 96 27q0 -4 -0.5 -7.5t-1.5 -6.5l-2 -6t-2.5 -5t-2.5 -4t-1 -3l-1 -1q-26 -8 -59 -8q-42 0 -75.5 5.5t-55.5 14t-41 19.5t-35 21.5t-32.5 19t-39.5 14t-50 5.5 q-29 0 -49 -12.5t-28 -32t-10.5 -32t-2.5 -22.5q0 -20 8.5 -45.5t25.5 -25.5q6 0 8 3.5t2 12.5q0 4 -0.5 12t-0.5 11q0 11 4 11q8 0 23 -9.5t15 -17.5q0 -12 -12 -24.5t-34 -12.5q-27 0 -56 29.5t-29 65.5zM145 142q0 24 28.5 39t61.5 15q31 -1 54.5 -13.5t35.5 -29.5 t17.5 -30.5t5.5 -22.5q-10 -12 -29 -12q-13 0 -21 7q-2 4 -2 15q0 14 -2 25t-7.5 22.5t-18.5 18t-33 6.5q-15 0 -26 -7t-17 -19t-6 -27q0 -29 17 -51.5t40 -34t51 -18.5t45.5 -9t29.5 -2q55 0 80 18q39 29 84 117t88 195t59 136q9 15 17.5 45t20 47t36.5 23q10 0 21 -6 t11 -16q-5 -28 -15 -44q-28 -47 -69 -135.5t-72.5 -159t-68.5 -132t-65 -73.5q-62 -29 -125 -29q-88 0 -157 44.5t-69 97.5zM486 628l4 18.5t9.5 35t12.5 30.5q15 25 28.5 34.5t31.5 9.5q26 0 26 -14q0 -8 -17 -53q-16 13 -22 13q-20 0 -37 -19q-3 -5 -34 -56z" />
<glyph unicode="&#xce;" horiz-adv-x="641" d="M109 464q0 26 15.5 49.5t46.5 39t70 15.5q38 0 73.5 -11t57.5 -25t48.5 -29.5t44.5 -21.5q39 -13 83 -13q41 0 96 27q0 -4 -0.5 -7.5t-1.5 -6.5l-2 -6t-2.5 -5t-2.5 -4t-1 -3l-1 -1q-26 -8 -59 -8q-42 0 -75.5 5.5t-55.5 14t-41 19.5t-35 21.5t-32.5 19t-39.5 14t-50 5.5 q-29 0 -49 -12.5t-28 -32t-10.5 -32t-2.5 -22.5q0 -20 8.5 -45.5t25.5 -25.5q6 0 8 3.5t2 12.5q0 4 -0.5 12t-0.5 11q0 11 4 11q8 0 23 -9.5t15 -17.5q0 -12 -12 -24.5t-34 -12.5q-27 0 -56 29.5t-29 65.5zM145 142q0 24 28.5 39t61.5 15q31 -1 54.5 -13.5t35.5 -29.5 t17.5 -30.5t5.5 -22.5q-10 -12 -29 -12q-13 0 -21 7q-2 4 -2 15q0 14 -2 25t-7.5 22.5t-18.5 18t-33 6.5q-15 0 -26 -7t-17 -19t-6 -27q0 -29 17 -51.5t40 -34t51 -18.5t45.5 -9t29.5 -2q55 0 80 18q39 29 84 117t88 195t59 136q9 15 17.5 45t20 47t36.5 23q10 0 21 -6 t11 -16q-5 -28 -15 -44q-28 -47 -69 -135.5t-72.5 -159t-68.5 -132t-65 -73.5q-62 -29 -125 -29q-88 0 -157 44.5t-69 97.5zM374 631q6 14 21.5 27t32.5 22.5t37.5 29t34.5 44.5h50q17 -32 38 -54t36.5 -36.5t23.5 -32.5q-64 34 -83.5 48t-42.5 40q-7 -10 -16.5 -17.5 t-23 -15t-26.5 -14l-37 -18.5t-45 -23z" />
<glyph unicode="&#xcf;" horiz-adv-x="641" d="M109 464q0 26 15.5 49.5t46.5 39t70 15.5q38 0 73.5 -11t57.5 -25t48.5 -29.5t44.5 -21.5q39 -13 83 -13q41 0 96 27q0 -4 -0.5 -7.5t-1.5 -6.5l-2 -6t-2.5 -5t-2.5 -4t-1 -3l-1 -1q-26 -8 -59 -8q-42 0 -75.5 5.5t-55.5 14t-41 19.5t-35 21.5t-32.5 19t-39.5 14t-50 5.5 q-29 0 -49 -12.5t-28 -32t-10.5 -32t-2.5 -22.5q0 -20 8.5 -45.5t25.5 -25.5q6 0 8 3.5t2 12.5q0 4 -0.5 12t-0.5 11q0 11 4 11q8 0 23 -9.5t15 -17.5q0 -12 -12 -24.5t-34 -12.5q-27 0 -56 29.5t-29 65.5zM145 142q0 24 28.5 39t61.5 15q31 -1 54.5 -13.5t35.5 -29.5 t17.5 -30.5t5.5 -22.5q-10 -12 -29 -12q-13 0 -21 7q-2 4 -2 15q0 14 -2 25t-7.5 22.5t-18.5 18t-33 6.5q-15 0 -26 -7t-17 -19t-6 -27q0 -29 17 -51.5t40 -34t51 -18.5t45.5 -9t29.5 -2q55 0 80 18q39 29 84 117t88 195t59 136q9 15 17.5 45t20 47t36.5 23q10 0 21 -6 t11 -16q-5 -28 -15 -44q-28 -47 -69 -135.5t-72.5 -159t-68.5 -132t-65 -73.5q-62 -29 -125 -29q-88 0 -157 44.5t-69 97.5zM400 683q0 6 14 12t14 16q0 2 -1.5 3.5l-3 3l-2.5 2.5q25 10 39 10t14 -10q0 -17 -17.5 -32t-37.5 -15q-19 0 -19 10zM600 683q0 6 14 12t14 16 q0 4 -7 9q29 10 39 10q14 0 14 -10q0 -17 -17.5 -32t-37.5 -15q-19 0 -19 10z" />
<glyph unicode="&#xd0;" horiz-adv-x="1080" d="M126 628q0 14 6 34.5t18.5 47t40.5 51.5t65 40q53 20 136 20q123 0 213 -33q85 -32 142.5 -63.5t113.5 -77.5q91 -76 146 -174q47 -81 47 -214q0 -48 -27 -102.5t-57 -87.5q-18 -20 -62.5 -45t-91.5 -25q-51 0 -79.5 10.5t-94.5 49.5l8 13q32 -18 50 -27.5t50 -19.5 t61 -10q8 0 15 1t13 2.5t12.5 5t10.5 5.5t11 7t9.5 7l10 8t9.5 8q35 28 67 89t32 137q0 84 -31 159q-30 78 -116 163q-117 120 -258 169q-26 10 -79.5 20.5t-81.5 10.5q-60 0 -90.5 -6t-68.5 -23q-36 -16 -65 -66t-29 -89q0 -40 26.5 -81.5t64 -71t78.5 -48t70 -18.5 q28 0 41.5 11.5t13.5 30.5q0 13 -12.5 29.5t-18.5 35.5q0 15 9.5 24t17.5 10.5t17 1.5q26 0 37 -18.5t11 -40.5q0 -33 -26 -71q-18 -28 -71 -28q-57 0 -130.5 35.5t-128.5 93t-55 110.5zM419 126q0 12 4.5 23.5t15 19t23.5 7.5q15 0 23.5 -1t20.5 -7t17 -9t25 -18t32 -23 l-6 -15q-59 41 -69.5 47.5t-16.5 6.5q-11 0 -17.5 -10t-6.5 -24q0 -4 1 -12.5t4 -21.5t8.5 -26t12.5 -24.5t18 -18.5t23 -7q5 0 10.5 2.5t9.5 6t8.5 10t8 12.5t8 15t7.5 15.5t7.5 16t6.5 15.5q23 43 67 140l50 -1q-53 -120 -81 -162q-30 -44 -51.5 -63t-50.5 -19 q-27 0 -50 14t-36 35t-19.5 41t-6.5 35zM544 269q0 11 7 29q17 -1 90 -1.5t95 -0.5q105 2 168 8q-6 -25 -9 -34q-48 -4 -96 -4q-45 0 -128 1.5t-127 1.5zM692 315q81 193 87 251q49 -2 49 -29q0 -3 -11 -33.5t-31.5 -84t-41.5 -105.5z" />
<glyph unicode="&#xd1;" horiz-adv-x="1110" d="M54 132q0 19 9 33t23.5 19.5t25 7.5t18.5 2q99 0 119 -91q0 -13 -25 -13q-15 0 -25 6q2 14 2 25q0 55 -60 55q-17 0 -27.5 -5t-14.5 -15.5t-5.5 -19t-1.5 -22.5q0 -27 33.5 -50.5t76 -35.5t77.5 -12q25 0 42 1.5t48 10.5t57 25t63 48.5t71.5 78t77 115.5t84.5 159 q13 30 14 32q6 13 10 22t6.5 16t4 11t2.5 9t1 7.5t0.5 8t0.5 9.5q3 10 13 18t21 8q14 0 23 -5t11 -9.5t2 -7.5t-1 -6.5t-2.5 -6.5t-3.5 -6t-3 -5q-7 -24 -31 -80q-1 -2 -10.5 -25t-23.5 -55.5t-38 -75t-52.5 -85t-69.5 -84t-86.5 -73.5t-105 -51.5t-123.5 -19.5 q-95 0 -161 42.5t-66 89.5zM162 466q0 28 15.5 47.5t40.5 29.5t49.5 14t50.5 4q42 -1 74.5 -9.5t52.5 -21.5t35.5 -29t27.5 -32t24 -29t29 -21t39 -8q16 0 47.5 16t60.5 36l-13 -27q-58 -40 -94 -40q-28 0 -49.5 8.5t-36.5 22t-28 29.5t-27.5 32t-32 29.5t-44.5 22t-62 8.5 q-57 0 -83.5 -22.5t-26.5 -57.5q0 -34 18 -64.5t40 -30.5q24 0 36.5 6.5t14 14.5t2.5 14.5t4 6.5t9.5 -3t12.5 -10t6 -14q0 -5 -3 -9.5t-10.5 -9t-23 -7t-36.5 -2.5q-50 0 -84.5 32.5t-34.5 73.5zM803 449q14 30 25 63q5 -15 17.5 -38t29.5 -50.5t48.5 -85t65.5 -125.5 q32 -52 41 -76q14 -55 14 -60q0 -31 -17 -54t-33 -23q-17 0 -35.5 13t-18.5 39q0 7 11 40t14 37q4 -9 9 -9q6 0 6 12q0 10 -6 21zM870 678q27 35 48 35q20 0 71 -11.5t67 -11.5q8 0 14.5 0.5t12.5 2.5t9.5 2.5t9 4.5t7 5t8.5 6.5t8 6.5q2 -2 6 -5.5t7 -6.5t4 -7 q-2 -2 -9.5 -6.5t-10.5 -6.5t-10 -5.5t-12 -5t-12.5 -2.5t-15.5 -1q-34 0 -77 11.5t-56 11.5q-18 0 -31 -12.5t-17 -12.5q-10 0 -21 8zM995 240q48 215 137 338.5t180 125.5q68 0 101 -9.5t55 -35.5q1 -2 16 -17q-1 -5 -13.5 -8t-19.5 -3t-12 2.5t-7.5 5.5t-9.5 11t-14 15 q-24 25 -74 25q-39 0 -83 -34.5t-85.5 -98t-76.5 -164.5t-53 -222q-20 37 -41 69z" />
<glyph unicode="&#xd2;" horiz-adv-x="667" d="M81 197q0 114 46 205.5t123.5 141.5t170.5 50q38 0 73.5 -10.5t60 -27.5t39.5 -38t15 -41q0 -28 -32 -95.5t-71 -109.5q-12 -13 -35 -24t-40 -16l-17 -5h-3v7q0 7 11.5 11t31 11.5t34.5 20.5q32 29 55 89.5t23 122.5q0 24 -16 42t-39.5 27t-43 13t-31.5 4 q-72 0 -130.5 -33.5t-96 -91t-58 -131.5t-20.5 -157q0 -30 16 -55.5t40 -41t54 -26.5t57.5 -15.5t51.5 -4.5q57 0 107 27.5t82.5 68.5t56.5 88.5t34.5 86t10.5 62.5q0 46 -17 77q-3 4 -3 10q0 9 3 21.5t3 21.5q1 -1 5 -3q19 -15 28.5 -25t19 -36t9.5 -63t-9.5 -80t-33 -92.5 t-58.5 -89.5t-93 -66.5t-130 -26.5q-34 0 -71 6.5t-75.5 21.5t-68.5 37t-49.5 56.5t-19.5 75.5zM572 627q6 8 13 16t11.5 13.5t10 11.5t8.5 11q7 12 7 20q0 19 -30 24q7 5 15.5 11.5t13.5 11t11 8.5t10.5 6t7.5 2q6 0 11.5 -3.5t9 -9.5t5.5 -13v-6q0 -26 -57 -72 q-5 -4 -12.5 -9t-18 -11.5t-16.5 -10.5z" />
<glyph unicode="&#xd3;" horiz-adv-x="667" d="M81 197q0 114 46 205.5t123.5 141.5t170.5 50q38 0 73.5 -10.5t60 -27.5t39.5 -38t15 -41q0 -28 -32 -95.5t-71 -109.5q-12 -13 -35 -24t-40 -16l-17 -5h-3v7q0 7 11.5 11t31 11.5t34.5 20.5q32 29 55 89.5t23 122.5q0 24 -16 42t-39.5 27t-43 13t-31.5 4 q-72 0 -130.5 -33.5t-96 -91t-58 -131.5t-20.5 -157q0 -30 16 -55.5t40 -41t54 -26.5t57.5 -15.5t51.5 -4.5q57 0 107 27.5t82.5 68.5t56.5 88.5t34.5 86t10.5 62.5q0 46 -17 77q-3 4 -3 10q0 9 3 21.5t3 21.5q1 -1 5 -3q19 -15 28.5 -25t19 -36t9.5 -63t-9.5 -80t-33 -92.5 t-58.5 -89.5t-93 -66.5t-130 -26.5q-34 0 -71 6.5t-75.5 21.5t-68.5 37t-49.5 56.5t-19.5 75.5zM534 628l4 18.5t9 35t13 30.5q14 25 27.5 34.5t32.5 9.5q25 0 25 -14q0 -7 -16 -53q-17 13 -23 13q-19 0 -36 -19q-4 -5 -35 -56z" />
<glyph unicode="&#xd4;" horiz-adv-x="667" d="M81 197q0 114 46 205.5t123.5 141.5t170.5 50q38 0 73.5 -10.5t60 -27.5t39.5 -38t15 -41q0 -28 -32 -95.5t-71 -109.5q-12 -13 -35 -24t-40 -16l-17 -5h-3v7q0 7 11.5 11t31 11.5t34.5 20.5q32 29 55 89.5t23 122.5q0 24 -16 42t-39.5 27t-43 13t-31.5 4 q-72 0 -130.5 -33.5t-96 -91t-58 -131.5t-20.5 -157q0 -30 16 -55.5t40 -41t54 -26.5t57.5 -15.5t51.5 -4.5q57 0 107 27.5t82.5 68.5t56.5 88.5t34.5 86t10.5 62.5q0 46 -17 77q-3 4 -3 10q0 9 3 21.5t3 21.5q1 -1 5 -3q19 -15 28.5 -25t19 -36t9.5 -63t-9.5 -80t-33 -92.5 t-58.5 -89.5t-93 -66.5t-130 -26.5q-34 0 -71 6.5t-75.5 21.5t-68.5 37t-49.5 56.5t-19.5 75.5zM338 631q5 14 21 27t33 22.5t37.5 29t34.5 44.5h50q17 -32 38 -54t36.5 -36.5t22.5 -32.5q-63 34 -83 48t-42 40q-10 -12 -24 -22t-27 -17t-43 -21.5t-54 -27.5z" />
<glyph unicode="&#xd5;" horiz-adv-x="667" d="M81 197q0 114 46 205.5t123.5 141.5t170.5 50q38 0 73.5 -10.5t60 -27.5t39.5 -38t15 -41q0 -28 -32 -95.5t-71 -109.5q-12 -13 -35 -24t-40 -16l-17 -5h-3v7q0 7 11.5 11t31 11.5t34.5 20.5q32 29 55 89.5t23 122.5q0 24 -16 42t-39.5 27t-43 13t-31.5 4 q-72 0 -130.5 -33.5t-96 -91t-58 -131.5t-20.5 -157q0 -30 16 -55.5t40 -41t54 -26.5t57.5 -15.5t51.5 -4.5q57 0 107 27.5t82.5 68.5t56.5 88.5t34.5 86t10.5 62.5q0 46 -17 77q-3 4 -3 10q0 9 3 21.5t3 21.5q1 -1 5 -3q19 -15 28.5 -25t19 -36t9.5 -63t-9.5 -80t-33 -92.5 t-58.5 -89.5t-93 -66.5t-130 -26.5q-34 0 -71 6.5t-75.5 21.5t-68.5 37t-49.5 56.5t-19.5 75.5zM368 678q27 35 47 35q21 0 72 -11.5t67 -11.5q8 0 14.5 0.5t12.5 2.5t9 2.5t9 4.5l7.5 5t8 6.5t7.5 6.5q1 -1 9 -7.5t9 -11.5q-2 -1 -12 -7.5t-13.5 -8t-11.5 -5.5t-16 -5 t-17 -1q-34 0 -77 11.5t-57 11.5q-18 0 -30.5 -12.5t-16.5 -12.5q-10 0 -21 8z" />
<glyph unicode="&#xd6;" horiz-adv-x="667" d="M81 197q0 114 46 205.5t123.5 141.5t170.5 50q38 0 73.5 -10.5t60 -27.5t39.5 -38t15 -41q0 -28 -32 -95.5t-71 -109.5q-12 -13 -35 -24t-40 -16l-17 -5h-3v7q0 7 11.5 11t31 11.5t34.5 20.5q32 29 55 89.5t23 122.5q0 24 -16 42t-39.5 27t-43 13t-31.5 4 q-72 0 -130.5 -33.5t-96 -91t-58 -131.5t-20.5 -157q0 -30 16 -55.5t40 -41t54 -26.5t57.5 -15.5t51.5 -4.5q57 0 107 27.5t82.5 68.5t56.5 88.5t34.5 86t10.5 62.5q0 46 -17 77q-3 4 -3 10q0 9 3 21.5t3 21.5q1 -1 5 -3q19 -15 28.5 -25t19 -36t9.5 -63t-9.5 -80t-33 -92.5 t-58.5 -89.5t-93 -66.5t-130 -26.5q-34 0 -71 6.5t-75.5 21.5t-68.5 37t-49.5 56.5t-19.5 75.5zM382 683q0 6 14 12t14 16q0 2 -1 3.5t-3 3t-2 2.5q25 10 38.5 10t13.5 -10q0 -17 -17.5 -32t-37.5 -15q-19 0 -19 10zM582 683q0 6 14 12t14 16q0 4 -6 9q29 10 38 10 q14 0 14 -10q0 -17 -17 -32t-38 -15q-19 0 -19 10z" />
<glyph unicode="&#xd7;" horiz-adv-x="426" d="M45 152q57 39 139 83l162 90q3 -1 10 -4.5t13 -6t12 -3.5l-172 -97q-85 -53 -124 -80q-12 2 -40 18zM86 313q3 13 14 31l93 -77l-29 -16zM228 198l29 16q51 -40 98 -66q-5 -16 -16 -35q-50 35 -111 85z" />
<glyph unicode="&#xd8;" horiz-adv-x="648" d="M65 8q13 11 38 32q106 88 159.5 134t133 122t154.5 158q1 -6 3 -10.5t3.5 -7.5t3 -5.5t3 -5.5l2.5 -5l-374 -363q-10 -12 -29 -28.5t-35 -30.5t-20 -18zM81 197q0 114 46 205.5t123.5 141.5t170.5 50q41 0 78 -13.5t61.5 -33t37.5 -41.5q9 -32 9 -45q0 -33 -15 -33 q-4 0 -11 7q-7 6 -16 35q0 1 -2 17t-6.5 28t-15.5 27.5t-35 24t-58 8.5q-76 0 -137.5 -33.5t-100 -91.5t-59 -131.5t-20.5 -156.5q0 -34 17 -61q-3 -2 -8 -6.5t-8 -7.5l-3 -3q-48 48 -48 113zM198 37l11 10q64 -33 140 -33q56 0 106.5 28t83.5 70t57.5 89.5t35 87t10.5 63.5 q0 54 -17 78q5 13 5 32q0 9 -1 20q60 -48 60 -127q0 -37 -9.5 -80t-33 -92.5t-58.5 -89.5t-93 -66.5t-130 -26.5q-89 0 -167 37zM611 521l61 71l42 -27l-72 -70q-17 6 -22 6q-5 15 -9 20z" />
<glyph unicode="&#xd9;" horiz-adv-x="1100" d="M102 428q0 13 7 28.5t21.5 31.5t41.5 27t61 11q36 0 65.5 -9t49.5 -22t39.5 -26t44 -21.5t54.5 -8.5q9 0 18 1t19.5 5t16.5 6.5t19.5 10.5t18 10t21.5 13.5t21 13.5l-9 -32q-2 -1 -21 -11.5t-26 -13.5t-22.5 -9.5t-29 -8.5t-28.5 -2q-28 0 -54.5 9t-48 22t-43.5 25.5 t-50.5 22t-60.5 9.5q-26 0 -43 -9t-24.5 -24t-10 -29t-2.5 -32q0 -27 9 -48t26 -21q11 0 11 14q0 4 -2 13t-2 13t4 7q12 0 21.5 -5t13 -9.5t4.5 -6.5q0 -16 -10 -26t-19.5 -12t-19.5 -2q-27 0 -54 30.5t-27 64.5zM491 157q0 19 6 41t20 52t27.5 56.5t39 74.5t44.5 86 q3 15 11 35.5t25 46t36 29.5q31 -5 31 -22q-1 -18 -21 -44q-3 -4 -7.5 -9.5t-7.5 -9.5t-6.5 -9t-6.5 -9.5t-6 -9.5t-5 -10q-7 -17 -45.5 -84.5t-64.5 -129.5t-26 -107q0 -120 105 -120q35 0 92.5 37t119.5 96q15 13 44 54t62 98t57.5 126.5t24.5 124.5q0 10 -2 12 q-39 -41 -101 -167t-62 -190q-19 -27 -29 -36q-3 12 -3 23q0 28 19.5 86.5t47 118.5t60.5 111t58 65q10 5 22 5q30 0 30 -55q0 -98 -85 -241t-130 -179q-91 -73 -125.5 -88t-104.5 -15q-24 0 -46.5 6.5t-46 22t-37.5 48.5t-14 80zM869 627q9 12 23 28.5t19 23.5q8 12 8 20 q0 19 -30 24q4 3 9 7t9 7.5t8.5 7t7.5 6t7 4.5t6.5 3.5t5 2.5t4.5 1q5 0 9 -2t7.5 -5.5t6 -8.5t3.5 -10v-6q0 -26 -57 -72q-5 -4 -12.5 -9t-17.5 -11.5t-16 -10.5zM871 85q9 7 26 26q5 -19 8.5 -28.5t11 -25t15.5 -23.5t20 -14t27 -6q22 0 37.5 15.5t24 31t13.5 15.5 q6 0 13.5 -7.5t12.5 -7.5q3 0 6 2l2 -1q-12 -23 -41.5 -42.5t-70.5 -19.5q-20 0 -37 6t-27.5 14.5t-19 21t-12.5 22t-9 21.5z" />
<glyph unicode="&#xda;" horiz-adv-x="1100" d="M102 428q0 13 7 28.5t21.5 31.5t41.5 27t61 11q36 0 65.5 -9t49.5 -22t39.5 -26t44 -21.5t54.5 -8.5q9 0 18 1t19.5 5t16.5 6.5t19.5 10.5t18 10t21.5 13.5t21 13.5l-9 -32q-2 -1 -21 -11.5t-26 -13.5t-22.5 -9.5t-29 -8.5t-28.5 -2q-28 0 -54.5 9t-48 22t-43.5 25.5 t-50.5 22t-60.5 9.5q-26 0 -43 -9t-24.5 -24t-10 -29t-2.5 -32q0 -27 9 -48t26 -21q11 0 11 14q0 4 -2 13t-2 13t4 7q12 0 21.5 -5t13 -9.5t4.5 -6.5q0 -16 -10 -26t-19.5 -12t-19.5 -2q-27 0 -54 30.5t-27 64.5zM491 157q0 19 6 41t20 52t27.5 56.5t39 74.5t44.5 86 q3 15 11 35.5t25 46t36 29.5q31 -5 31 -22q-1 -18 -21 -44q-3 -4 -7.5 -9.5t-7.5 -9.5t-6.5 -9t-6.5 -9.5t-6 -9.5t-5 -10q-7 -17 -45.5 -84.5t-64.5 -129.5t-26 -107q0 -120 105 -120q35 0 92.5 37t119.5 96q15 13 44 54t62 98t57.5 126.5t24.5 124.5q0 10 -2 12 q-39 -41 -101 -167t-62 -190q-19 -27 -29 -36q-3 12 -3 23q0 28 19.5 86.5t47 118.5t60.5 111t58 65q10 5 22 5q30 0 30 -55q0 -98 -85 -241t-130 -179q-91 -73 -125.5 -88t-104.5 -15q-24 0 -46.5 6.5t-46 22t-37.5 48.5t-14 80zM871 85q9 7 26 26q5 -19 8.5 -28.5t11 -25 t15.5 -23.5t20 -14t27 -6q22 0 37.5 15.5t24 31t13.5 15.5q6 0 13.5 -7.5t12.5 -7.5q3 0 6 2l2 -1q-12 -23 -41.5 -42.5t-70.5 -19.5q-20 0 -37 6t-27.5 14.5t-19 21t-12.5 22t-9 21.5zM879 628l4 18.5t9 35t13 30.5q25 44 60 44q25 0 25 -14q0 -8 -16 -53q-16 13 -23 13 q-19 0 -36 -19q-4 -5 -35 -56z" />
<glyph unicode="&#xdb;" horiz-adv-x="1100" d="M102 428q0 13 7 28.5t21.5 31.5t41.5 27t61 11q36 0 65.5 -9t49.5 -22t39.5 -26t44 -21.5t54.5 -8.5q9 0 18 1t19.5 5t16.5 6.5t19.5 10.5t18 10t21.5 13.5t21 13.5l-9 -32q-2 -1 -21 -11.5t-26 -13.5t-22.5 -9.5t-29 -8.5t-28.5 -2q-28 0 -54.5 9t-48 22t-43.5 25.5 t-50.5 22t-60.5 9.5q-26 0 -43 -9t-24.5 -24t-10 -29t-2.5 -32q0 -27 9 -48t26 -21q11 0 11 14q0 4 -2 13t-2 13t4 7q12 0 21.5 -5t13 -9.5t4.5 -6.5q0 -16 -10 -26t-19.5 -12t-19.5 -2q-27 0 -54 30.5t-27 64.5zM491 157q0 19 6 41t20 52t27.5 56.5t39 74.5t44.5 86 q3 15 11 35.5t25 46t36 29.5q31 -5 31 -22q-1 -18 -21 -44q-3 -4 -7.5 -9.5t-7.5 -9.5t-6.5 -9t-6.5 -9.5t-6 -9.5t-5 -10q-7 -17 -45.5 -84.5t-64.5 -129.5t-26 -107q0 -120 105 -120q35 0 92.5 37t119.5 96q15 13 44 54t62 98t57.5 126.5t24.5 124.5q0 10 -2 12 q-39 -41 -101 -167t-62 -190q-19 -27 -29 -36q-3 12 -3 23q0 28 19.5 86.5t47 118.5t60.5 111t58 65q10 5 22 5q30 0 30 -55q0 -98 -85 -241t-130 -179q-91 -73 -125.5 -88t-104.5 -15q-24 0 -46.5 6.5t-46 22t-37.5 48.5t-14 80zM769 631q6 14 21.5 27t32.5 22.5t37.5 29 t34.5 44.5h50q17 -32 38 -54t36.5 -36.5t22.5 -32.5q-63 34 -82.5 48t-41.5 40q-8 -10 -17.5 -17.5t-23 -15t-26.5 -14l-37 -18.5t-45 -23zM871 85q9 7 26 26q5 -19 8.5 -28.5t11 -25t15.5 -23.5t20 -14t27 -6q22 0 37.5 15.5t24 31t13.5 15.5q6 0 13.5 -7.5t12.5 -7.5 q3 0 6 2l2 -1q-12 -23 -41.5 -42.5t-70.5 -19.5q-20 0 -37 6t-27.5 14.5t-19 21t-12.5 22t-9 21.5z" />
<glyph unicode="&#xdc;" horiz-adv-x="1100" d="M102 428q0 13 7 28.5t21.5 31.5t41.5 27t61 11q36 0 65.5 -9t49.5 -22t39.5 -26t44 -21.5t54.5 -8.5q9 0 18 1t19.5 5t16.5 6.5t19.5 10.5t18 10t21.5 13.5t21 13.5l-9 -32q-2 -1 -21 -11.5t-26 -13.5t-22.5 -9.5t-29 -8.5t-28.5 -2q-28 0 -54.5 9t-48 22t-43.5 25.5 t-50.5 22t-60.5 9.5q-26 0 -43 -9t-24.5 -24t-10 -29t-2.5 -32q0 -27 9 -48t26 -21q11 0 11 14q0 4 -2 13t-2 13t4 7q12 0 21.5 -5t13 -9.5t4.5 -6.5q0 -16 -10 -26t-19.5 -12t-19.5 -2q-27 0 -54 30.5t-27 64.5zM491 157q0 19 6 41t20 52t27.5 56.5t39 74.5t44.5 86 q3 15 11 35.5t25 46t36 29.5q31 -5 31 -22q-1 -18 -21 -44q-3 -4 -7.5 -9.5t-7.5 -9.5t-6.5 -9t-6.5 -9.5t-6 -9.5t-5 -10q-7 -17 -45.5 -84.5t-64.5 -129.5t-26 -107q0 -120 105 -120q35 0 92.5 37t119.5 96q15 13 44 54t62 98t57.5 126.5t24.5 124.5q0 10 -2 12 q-39 -41 -101 -167t-62 -190q-19 -27 -29 -36q-3 12 -3 23q0 28 19.5 86.5t47 118.5t60.5 111t58 65q10 5 22 5q30 0 30 -55q0 -98 -85 -241t-130 -179q-91 -73 -125.5 -88t-104.5 -15q-24 0 -46.5 6.5t-46 22t-37.5 48.5t-14 80zM802 683q0 6 14 12t14 16q0 2 -1 3.5t-3 3 t-2 2.5q25 10 38.5 10t13.5 -10q0 -17 -17.5 -32t-37.5 -15q-19 0 -19 10zM871 85q9 7 26 26q5 -19 8.5 -28.5t11 -25t15.5 -23.5t20 -14t27 -6q22 0 37.5 15.5t24 31t13.5 15.5q6 0 13.5 -7.5t12.5 -7.5q3 0 6 2l2 -1q-12 -23 -41.5 -42.5t-70.5 -19.5q-20 0 -37 6 t-27.5 14.5t-19 21t-12.5 22t-9 21.5zM1002 683q0 6 14 12t14 16q0 4 -6 9q29 10 38 10q14 0 14 -10q0 -17 -17 -32t-38 -15q-19 0 -19 10z" />
<glyph unicode="&#xdd;" horiz-adv-x="1048" d="M109 461q0 43 41 72.5t89 29.5q35 0 65 -7t50.5 -18t43 -23.5t42 -23.5t48 -18t60.5 -7q21 0 39 5.5t30.5 12.5t34.5 22q-4 -17 -13 -34q-49 -21 -79 -21q-50 0 -88.5 10t-62.5 25t-46 29.5t-50.5 24.5t-63.5 10q-24 0 -42 -8.5t-27.5 -20t-15 -27t-7 -26t-1.5 -19.5 q0 -17 4.5 -33t12 -26t17.5 -10t10 14q0 7 -0.5 14t-0.5 17q0 4 6 4q4 0 12.5 -4t16.5 -10.5t8 -12.5q0 -13 -10 -21q-14 -16 -38 -16q-32 0 -58.5 32t-26.5 64zM326 -289q0 12 4.5 22.5t19 20.5t38.5 10q61 0 102 -34q11 -9 25.5 -27.5t14.5 -32.5q-7 -11 -29 -11 q-16 0 -25 7q2 6 2 29q0 17 -12 36q-6 6 -16 11t-19.5 8t-14.5 3q-20 0 -33.5 -21t-13.5 -44q0 -50 61 -78t120 -28q56 0 91.5 24t52.5 52q6 10 44.5 88t92.5 202.5t74 200.5q12 40 34 111q66 219 92.5 277t69.5 58q30 0 30 -65q0 -11 -1 -24t-9.5 -47.5t-23.5 -71.5 t-46.5 -94.5t-74.5 -118.5q20 70 26 96q38 62 65 141t27 150q0 9 -4 12q-13 -16 -25 -41.5t-27.5 -72.5t-25.5 -82t-33 -116.5t-36 -129.5q-16 -55 -83 -218t-138 -290q-6 -11 -21.5 -21t-54 -19.5t-92.5 -11.5q-69 2 -132 28q-49 25 -72.5 51.5t-23.5 60.5zM542 181 q0 16 5 36.5t11 38t20.5 48.5t24 50.5t31.5 63t34 67.5q11 25 16 43q1 9 7 21t19 26.5t29 18.5q9 0 15 -3q7 -1 17.5 -14t10.5 -19v-1q0 -4 -4.5 -8.5t-9.5 -6.5l-4 -2q-2 11 -6 11t-44 -80q-20 -39 -54 -102t-46 -88.5t-23.5 -63.5t-11.5 -73q0 -38 12.5 -65.5t31.5 -40.5 t35.5 -18.5t31.5 -5.5q69 0 187 108l-24 -69q-41 -29 -71 -41t-77 -12q-43 0 -75 15.5t-48 36.5t-26 49.5t-12 46t-2 33.5zM896 628l4 18.5t9.5 35t12.5 30.5q15 25 28.5 34.5t31.5 9.5q26 0 26 -14q0 -8 -17 -53q-16 13 -22 13q-20 0 -37 -19q-3 -5 -34 -56z" />
<glyph unicode="&#xde;" horiz-adv-x="522" d="M4 -99q14 30 37 78t34.5 73t28 62.5t30 73t27.5 76.5l49 -14q-14 -38 -38 -105q-26 -75 -38.5 -109t-29 -75t-26.5 -56t-18 -15q-30 0 -56 11zM166 285l6 16q145 -42 198 -42q16 0 39.5 6t50 17.5t45.5 34t19 51.5q0 33 -18.5 64t-48 54t-61 39t-62.5 26q4 17 8 33 q42 -11 80 -28.5t73 -43.5t55.5 -63.5t20.5 -81.5q0 -45 -55 -88.5t-130 -43.5q-20 0 -40 2.5t-44 8t-39.5 10t-47.5 14.5t-49 15zM179 320q47 151 116 438q2 -2 26.5 -3.5t28.5 -7.5q-20 -98 -36 -157q-5 -24 -30.5 -113t-52.5 -171q-27 8 -52 14z" />
<glyph unicode="&#xdf;" horiz-adv-x="371" d="M-200 -424q8 27 23 27q14 0 26.5 -2.5t18.5 -2.5q20 0 35.5 14.5t32.5 57.5q25 61 113.5 364.5t130.5 411.5q2 6 12.5 11.5t21.5 8.5t18 3q11 0 29.5 -6t38.5 -22.5t20 -39.5q0 -21 -9 -40.5t-20 -32t-31.5 -26.5t-33.5 -20.5t-36 -17.5q-9 -5 -14 -7l5 22 q113 41 113 122q0 13 -22 30t-40 18q-12 -5 -22.5 -28t-29.5 -82t-29 -85q-6 -15 -37 -121.5t-72.5 -246t-68.5 -219.5q-15 -45 -53.5 -69.5t-90.5 -24.5q-14 0 -29 3zM112 80q0 7 9 7q11 0 25 -5q6 -3 13 -16t13.5 -25t25 -21.5t47.5 -9.5q37 0 51 16.5t14 66.5 q0 61 -119 150q23 7 35 13q42 -27 70 -55t39 -51.5t14 -37t3 -25.5q0 -15 -1 -25.5t-7.5 -23t-17.5 -20t-32.5 -13t-51.5 -5.5q-43 0 -77 22q-14 7 -26.5 20.5t-19.5 24t-7 13.5z" />
<glyph unicode="&#xe0;" d="M38 110q0 35 11.5 67t35 58.5t62 42t88.5 15.5q14 -1 25.5 -2.5t19.5 -4.5t14 -6t9.5 -7t6.5 -7.5t4 -7t1.5 -6t0.5 -4v-2.5l-36 -75q9 28 9 49q0 59 -51 59q-58 0 -102 -46q-56 -55 -56 -150q0 -32 19 -50.5t41 -18.5t30.5 2.5t29.5 14.5q19 12 33.5 27.5t19.5 23.5 t14.5 29.5t11.5 25.5q50 100 57 119q10 18 28 18q4 0 9.5 -3.5t5.5 -9.5q0 -10 -6.5 -24t-38.5 -75q-12 -21 -36 -62t-30 -47q-56 -53 -127 -53q-38 0 -70.5 29.5t-32.5 80.5zM269 33q17 16 43 62q-7 -23 -7 -37q0 -44 30 -44q14 0 22.5 1.5t15.5 6t11 8.5t13 14.5t17 18.5 l1 -1q-2 -3 -11.5 -17t-13.5 -18t-14 -12.5t-21 -11.5t-25 -3q-11 0 -22.5 3t-22.5 10.5t-16 19.5zM278 382q7 10 15.5 20t15.5 18t11 14q8 12 8 20q0 19 -30 24q6 5 14.5 11.5t13.5 11t11 8.5t10.5 6t7.5 2q9 0 16 -7.5t10 -18.5v-6q0 -26 -57 -72q-5 -4 -12.5 -9 t-18 -11.5t-15.5 -10.5z" />
<glyph unicode="&#xe1;" d="M38 110q0 35 11.5 67t35 58.5t62 42t88.5 15.5q14 -1 25.5 -2.5t19.5 -4.5t14 -6t9.5 -7t6.5 -7.5t4 -7t1.5 -6t0.5 -4v-2.5l-36 -75q9 28 9 49q0 59 -51 59q-58 0 -102 -46q-56 -55 -56 -150q0 -32 19 -50.5t41 -18.5t30.5 2.5t29.5 14.5q19 12 33.5 27.5t19.5 23.5 t14.5 29.5t11.5 25.5q50 100 57 119q10 18 28 18q4 0 9.5 -3.5t5.5 -9.5q0 -10 -6.5 -24t-38.5 -75q-12 -21 -36 -62t-30 -47q-56 -53 -127 -53q-38 0 -70.5 29.5t-32.5 80.5zM255 382l4 18.5t9 35t13 30.5q15 25 28.5 34.5t31.5 9.5q25 0 25 -14q0 -8 -16 -53 q-16 13 -22 13q-20 0 -37 -19q-3 -5 -34 -56zM269 33q17 16 43 62q-7 -23 -7 -37q0 -44 30 -44q14 0 22.5 1.5t15.5 6t11 8.5t13 14.5t17 18.5l1 -1q-2 -3 -11.5 -17t-13.5 -18t-14 -12.5t-21 -11.5t-25 -3q-11 0 -22.5 3t-22.5 10.5t-16 19.5z" />
<glyph unicode="&#xe2;" d="M38 110q0 35 11.5 67t35 58.5t62 42t88.5 15.5q14 -1 25.5 -2.5t19.5 -4.5t14 -6t9.5 -7t6.5 -7.5t4 -7t1.5 -6t0.5 -4v-2.5l-36 -75q9 28 9 49q0 59 -51 59q-58 0 -102 -46q-56 -55 -56 -150q0 -32 19 -50.5t41 -18.5t30.5 2.5t29.5 14.5q19 12 33.5 27.5t19.5 23.5 t14.5 29.5t11.5 25.5q50 100 57 119q10 18 28 18q4 0 9.5 -3.5t5.5 -9.5q0 -10 -6.5 -24t-38.5 -75q-12 -21 -36 -62t-30 -47q-56 -53 -127 -53q-38 0 -70.5 29.5t-32.5 80.5zM144 385q5 12 15.5 22t24.5 18.5t28.5 18.5t30.5 26.5t27 37.5h50q14 -25 30 -44.5t27.5 -29 t23 -22.5t17.5 -27q-64 34 -83.5 48t-42.5 40q-9 -12 -23 -22t-27.5 -17t-43 -21.5t-54.5 -27.5zM269 33q17 16 43 62q-7 -23 -7 -37q0 -44 30 -44q14 0 22.5 1.5t15.5 6t11 8.5t13 14.5t17 18.5l1 -1q-2 -3 -11.5 -17t-13.5 -18t-14 -12.5t-21 -11.5t-25 -3q-11 0 -22.5 3 t-22.5 10.5t-16 19.5z" />
<glyph unicode="&#xe3;" d="M38 110q0 35 11.5 67t35 58.5t62 42t88.5 15.5q14 -1 25.5 -2.5t19.5 -4.5t14 -6t9.5 -7t6.5 -7.5t4 -7t1.5 -6t0.5 -4v-2.5l-36 -75q9 28 9 49q0 59 -51 59q-58 0 -102 -46q-56 -55 -56 -150q0 -32 19 -50.5t41 -18.5t30.5 2.5t29.5 14.5q19 12 33.5 27.5t19.5 23.5 t14.5 29.5t11.5 25.5q50 100 57 119q10 18 28 18q4 0 9.5 -3.5t5.5 -9.5q0 -10 -6.5 -24t-38.5 -75q-12 -21 -36 -62t-30 -47q-56 -53 -127 -53q-38 0 -70.5 29.5t-32.5 80.5zM180 448q27 35 48 35q20 0 71 -11.5t67 -11.5q8 0 14.5 0.5t12.5 2.5t9.5 2.5t9 4.5t7 5t8.5 6.5 t8 6.5q2 -2 6 -5.5t7 -6.5t4 -7q-1 -1 -11 -7.5t-13.5 -8t-12 -5.5t-16 -5t-17.5 -1q-34 0 -77 11.5t-56 11.5q-18 0 -31 -12.5t-17 -12.5q-10 0 -21 8zM269 33q17 16 43 62q-7 -23 -7 -37q0 -44 30 -44q14 0 22.5 1.5t15.5 6t11 8.5t13 14.5t17 18.5l1 -1q-2 -3 -11.5 -17 t-13.5 -18t-14 -12.5t-21 -11.5t-25 -3q-11 0 -22.5 3t-22.5 10.5t-16 19.5z" />
<glyph unicode="&#xe4;" d="M38 110q0 35 11.5 67t35 58.5t62 42t88.5 15.5q14 -1 25.5 -2.5t19.5 -4.5t14 -6t9.5 -7t6.5 -7.5t4 -7t1.5 -6t0.5 -4v-2.5l-36 -75q9 28 9 49q0 59 -51 59q-58 0 -102 -46q-56 -55 -56 -150q0 -32 19 -50.5t41 -18.5t30.5 2.5t29.5 14.5q19 12 33.5 27.5t19.5 23.5 t14.5 29.5t11.5 25.5q50 100 57 119q10 18 28 18q4 0 9.5 -3.5t5.5 -9.5q0 -10 -6.5 -24t-38.5 -75q-12 -21 -36 -62t-30 -47q-56 -53 -127 -53q-38 0 -70.5 29.5t-32.5 80.5zM174 461q0 5 7 8.5t13.5 7.5t6.5 12q0 3 -6 9q25 10 39 10t14 -10q0 -11 -8.5 -22t-21.5 -18 t-26 -7q-18 0 -18 10zM269 33q17 16 43 62q-7 -23 -7 -37q0 -44 30 -44q14 0 22.5 1.5t15.5 6t11 8.5t13 14.5t17 18.5l1 -1q-2 -3 -11.5 -17t-13.5 -18t-14 -12.5t-21 -11.5t-25 -3q-11 0 -22.5 3t-22.5 10.5t-16 19.5zM374 461q0 5 7 8.5t13.5 7.5t6.5 12q0 4 -6 9 q29 10 39 10q14 0 14 -10q0 -11 -8 -22t-21 -18t-27 -7q-18 0 -18 10z" />
<glyph unicode="&#xe5;" d="M38 110q0 35 11.5 67t35 58.5t62 42t88.5 15.5q14 -1 25.5 -2.5t19.5 -4.5t14 -6t9.5 -7t6.5 -7.5t4 -7t1.5 -6t0.5 -4v-2.5l-36 -75q9 28 9 49q0 59 -51 59q-58 0 -102 -46q-56 -55 -56 -150q0 -32 19 -50.5t41 -18.5t30.5 2.5t29.5 14.5q19 12 33.5 27.5t19.5 23.5 t14.5 29.5t11.5 25.5q50 100 57 119q10 18 28 18q4 0 9.5 -3.5t5.5 -9.5q0 -10 -6.5 -24t-38.5 -75q-12 -21 -36 -62t-30 -47q-56 -53 -127 -53q-38 0 -70.5 29.5t-32.5 80.5zM205 391q0 27 23.5 46t57.5 19t58 -19t24 -46t-24 -46t-58 -19t-57.5 19t-23.5 46zM235 389 q0 -19 16.5 -32t39.5 -13t40 13t17 32q0 18 -17 31.5t-40 13.5t-39.5 -13.5t-16.5 -31.5zM269 33q17 16 43 62q-7 -23 -7 -37q0 -44 30 -44q14 0 22.5 1.5t15.5 6t11 8.5t13 14.5t17 18.5l1 -1q-2 -3 -11.5 -17t-13.5 -18t-14 -12.5t-21 -11.5t-25 -3q-11 0 -22.5 3 t-22.5 10.5t-16 19.5z" />
<glyph unicode="&#xe6;" horiz-adv-x="581" d="M31 83q0 29 17.5 48t44 27t59 13.5t61.5 7.5t53 8t32 17q12 15 29.5 29.5t28.5 21.5l12 7q49 31 116 31q36 0 70 -13.5t34 -37.5q0 -4 -2.5 -11.5t-11 -21.5t-23 -25.5t-42.5 -20t-65 -8.5q-68 0 -85 -1q4 6 8 15q33 1 63 1q48 1 79.5 31.5t31.5 49.5q0 14 -16.5 21 t-38.5 7q-86 0 -147 -126q-20 -48 -20 -71q0 -36 25.5 -52t65.5 -16q34 0 54 16l6.5 6.5t7.5 7t8.5 5t12.5 2.5q1 0 5 -0.5t12 -0.5q24 0 32 2t17 11l1 -1q-18 -22 -35.5 -35.5t-38.5 -19t-34.5 -6.5t-38.5 -1q-30 0 -55.5 5.5t-40 12.5t-25 15.5t-14 13t-4.5 5.5 q-10 26 -11 59q5 24 22 67q-12 -10 -49.5 -15t-72 -7.5t-62 -21.5t-27.5 -54q0 -32 14.5 -49t51.5 -17q33 0 56.5 16t43.5 49q2 -4 4 -12t4.5 -14t6.5 -10q-3 -2 -12.5 -10.5t-12 -10t-11 -7.5t-13.5 -7t-14.5 -4t-20.5 -3.5t-25 -0.5q-64 0 -92.5 23t-28.5 60zM79 235 q41 34 71.5 46t81.5 12q20 0 42.5 -7t36.5 -16t14 -15q-3 -2 -9 -6.5t-10 -8t-8 -9.5q-2 25 -20 36.5t-40 11.5q-18 0 -32 -2t-29 -7t-28.5 -16t-24.5 -27q-15 -4 -25 -4q-19 0 -20 12z" />
<glyph unicode="&#xe7;" horiz-adv-x="330" d="M31 97q0 30 14 63.5t39 63.5t66 49.5t90 19.5q24 0 45.5 -5t35 -12.5t21 -15t7.5 -12.5q0 -10 -11.5 -18t-21.5 -8q-17 0 -17 14q0 6 1.5 14t1.5 10q0 19 -60 19q-51 0 -106.5 -60t-55.5 -143q0 -19 9 -32.5t22.5 -19t25 -8t22.5 -2.5q44 0 63 17q4 3 9 8t8 7t8.5 4 t13.5 2h18t12.5 0.5t8 0.5t6 2l3.5 2l3.5 2.5t3.5 3.5l2 -1q-15 -22 -35.5 -35.5t-44.5 -18.5t-39.5 -6.5t-38.5 -1.5q-13 0 -30.5 3.5t-41.5 12.5t-40.5 30t-16.5 51zM97 -106q0 2 2 2q10 0 27.5 -22.5t27.5 -23.5q13 4 13 35q0 54 -49 106q7 -2 11.5 -3t7.5 -1.5t6 -1.5 q26 -15 40 -37.5t14 -41.5q0 -22 -10 -42t-33 -20q-11 0 -18 4.5t-20 20.5t-18 21q-1 2 -1 4z" />
<glyph unicode="&#xe8;" horiz-adv-x="330" d="M32 95q0 53 36 107q12 20 23 33t29.5 28t45.5 22.5t62 7.5q36 0 73 -13.5t37 -37.5q0 -4 -1.5 -11.5t-9.5 -21.5t-21.5 -25.5t-41 -20t-64.5 -8.5q-18 0 -70 8l5 11q14 -4 51 -4q48 1 76.5 31t28.5 50q0 14 -19 21t-42 7q-37 0 -71 -27.5t-55.5 -73t-21.5 -96.5 q0 -68 84 -68q42 0 62 16l5 5l5.5 5.5t6 5t8 4t9.5 1.5h18h14.5t8.5 1t4.5 1.5l4 4l5.5 5.5l1 -1q-14 -22 -30.5 -35.5t-37.5 -18.5t-35.5 -6.5t-39.5 -1.5q-21 0 -42.5 4t-45.5 13t-39.5 29.5t-15.5 48.5zM241 382q9 12 23.5 28.5t19.5 23.5q7 12 7 20q0 19 -30 24 q6 5 15 11.5t14 11t11 8.5t10.5 6t7.5 2q9 0 16 -7.5t10 -18.5v-6q0 -26 -57 -72q-5 -4 -13 -9t-18 -11.5t-16 -10.5z" />
<glyph unicode="&#xe9;" horiz-adv-x="330" d="M32 95q0 53 36 107q12 20 23 33t29.5 28t45.5 22.5t62 7.5q36 0 73 -13.5t37 -37.5q0 -4 -1.5 -11.5t-9.5 -21.5t-21.5 -25.5t-41 -20t-64.5 -8.5q-18 0 -70 8l5 11q14 -4 51 -4q48 1 76.5 31t28.5 50q0 14 -19 21t-42 7q-37 0 -71 -27.5t-55.5 -73t-21.5 -96.5 q0 -68 84 -68q42 0 62 16l5 5l5.5 5.5t6 5t8 4t9.5 1.5h18h14.5t8.5 1t4.5 1.5l4 4l5.5 5.5l1 -1q-14 -22 -30.5 -35.5t-37.5 -18.5t-35.5 -6.5t-39.5 -1.5q-21 0 -42.5 4t-45.5 13t-39.5 29.5t-15.5 48.5zM252 382q1 0 4.5 18.5t9 35t13.5 30.5q14 25 27.5 34.5t32.5 9.5 q25 0 25 -14q0 -8 -16 -53q-17 13 -23 13q-19 0 -36 -19q-4 -5 -35 -56z" />
<glyph unicode="&#xea;" horiz-adv-x="330" d="M32 95q0 53 36 107q12 20 23 33t29.5 28t45.5 22.5t62 7.5q36 0 73 -13.5t37 -37.5q0 -4 -1.5 -11.5t-9.5 -21.5t-21.5 -25.5t-41 -20t-64.5 -8.5q-18 0 -70 8l5 11q14 -4 51 -4q48 1 76.5 31t28.5 50q0 14 -19 21t-42 7q-37 0 -71 -27.5t-55.5 -73t-21.5 -96.5 q0 -68 84 -68q42 0 62 16l5 5l5.5 5.5t6 5t8 4t9.5 1.5h18h14.5t8.5 1t4.5 1.5l4 4l5.5 5.5l1 -1q-14 -22 -30.5 -35.5t-37.5 -18.5t-35.5 -6.5t-39.5 -1.5q-21 0 -42.5 4t-45.5 13t-39.5 29.5t-15.5 48.5zM138 385q4 12 15 22t25 18.5t28.5 18.5t30 26.5t27.5 37.5h50 q14 -25 30 -44.5t27.5 -29t22.5 -22.5t17 -27q-63 34 -83 48t-42 40q-10 -12 -24 -22t-27 -17t-43 -21.5t-54 -27.5z" />
<glyph unicode="&#xeb;" horiz-adv-x="330" d="M32 95q0 53 36 107q12 20 23 33t29.5 28t45.5 22.5t62 7.5q36 0 73 -13.5t37 -37.5q0 -4 -1.5 -11.5t-9.5 -21.5t-21.5 -25.5t-41 -20t-64.5 -8.5q-18 0 -70 8l5 11q14 -4 51 -4q48 1 76.5 31t28.5 50q0 14 -19 21t-42 7q-37 0 -71 -27.5t-55.5 -73t-21.5 -96.5 q0 -68 84 -68q42 0 62 16l5 5l5.5 5.5t6 5t8 4t9.5 1.5h18h14.5t8.5 1t4.5 1.5l4 4l5.5 5.5l1 -1q-14 -22 -30.5 -35.5t-37.5 -18.5t-35.5 -6.5t-39.5 -1.5q-21 0 -42.5 4t-45.5 13t-39.5 29.5t-15.5 48.5zM168 461q0 5 6.5 8.5t13.5 7.5t7 12q-1 3 -6 9q25 10 38.5 10 t13.5 -10q0 -11 -8 -22t-21 -18t-26 -7q-18 0 -18 10zM368 461q0 5 6.5 8.5t13.5 7.5t7 12q0 4 -6 9q29 10 39 10q13 0 13 -10q0 -11 -8 -22t-20.5 -18t-26.5 -7q-18 0 -18 10z" />
<glyph unicode="&#xec;" horiz-adv-x="231" d="M0 72q27 43 29 45q1 2 17 15q8 26 21.5 59t37 65.5t44.5 32.5q11 0 19 -7t8 -16q0 -21 -22 -61.5t-55 -64.5q-15 -36 -15 -77q0 -49 32 -49q14 0 20.5 3.5t23.5 19.5q2 1 5 4.5t4.5 5t5.5 3t9 1.5h12q7 0 11.5 0.5t7.5 1.5t5.5 3.5t3.5 4t3.5 5t4.5 6.5q0 -1 -2 -4 q-16 -28 -46 -52q-26 -16 -54 -16q-47 0 -71 22.5t-24 54.5q0 14 7 42q-17 -16 -42 -47zM104 162q45 39 52 97q-2 -5 -11 -18.5t-15.5 -23.5t-14 -25.5t-11.5 -29.5zM188 382q9 12 23 28.5t19 23.5q8 12 8 20q0 19 -30 24q6 5 14.5 11.5t13.5 11t11 8.5t10.5 6t7.5 2 q9 0 16 -7.5t10 -18.5v-6q0 -26 -57 -72q-5 -4 -12.5 -9t-18 -11.5t-15.5 -10.5z" />
<glyph unicode="&#xed;" horiz-adv-x="231" d="M0 72q27 43 29 45q1 2 17 15q8 26 21.5 59t37 65.5t44.5 32.5q11 0 19 -7t8 -16q0 -21 -22 -61.5t-55 -64.5q-15 -36 -15 -77q0 -49 32 -49q14 0 20.5 3.5t23.5 19.5q2 1 5 4.5t4.5 5t5.5 3t9 1.5h12q7 0 11.5 0.5t7.5 1.5t5.5 3.5t3.5 4t3.5 5t4.5 6.5q0 -1 -2 -4 q-16 -28 -46 -52q-26 -16 -54 -16q-47 0 -71 22.5t-24 54.5q0 14 7 42q-17 -16 -42 -47zM104 162q45 39 52 97q-2 -5 -11 -18.5t-15.5 -23.5t-14 -25.5t-11.5 -29.5zM184 382l4 18.5t9 35t13 30.5q25 44 60 44q25 0 25 -14q0 -8 -16 -53q-17 13 -23 13q-19 0 -36 -19 q-4 -5 -35 -56z" />
<glyph unicode="&#xee;" horiz-adv-x="231" d="M0 72q27 43 29 45q1 2 17 15q8 26 21.5 59t37 65.5t44.5 32.5q11 0 19 -7t8 -16q0 -21 -22 -61.5t-55 -64.5q-15 -36 -15 -77q0 -49 32 -49q14 0 20.5 3.5t23.5 19.5q2 1 5 4.5t4.5 5t5.5 3t9 1.5h12q7 0 11.5 0.5t7.5 1.5t5.5 3.5t3.5 4t3.5 5t4.5 6.5q0 -1 -2 -4 q-16 -28 -46 -52q-26 -16 -54 -16q-47 0 -71 22.5t-24 54.5q0 14 7 42q-17 -16 -42 -47zM69 385q5 12 15.5 22t24.5 18.5t28.5 18.5t30.5 26.5t27 37.5h50q14 -25 30 -44.5t27.5 -29t23 -22.5t16.5 -27q-63 34 -82.5 48t-41.5 40q-10 -12 -24 -22t-27.5 -17t-43 -21.5 t-54.5 -27.5zM104 162q45 39 52 97q-2 -5 -11 -18.5t-15.5 -23.5t-14 -25.5t-11.5 -29.5z" />
<glyph unicode="&#xef;" horiz-adv-x="231" d="M0 72q27 43 29 45q1 2 17 15q8 26 21.5 59t37 65.5t44.5 32.5q11 0 19 -7t8 -16q0 -21 -22 -61.5t-55 -64.5q-15 -36 -15 -77q0 -49 32 -49q14 0 20.5 3.5t23.5 19.5q2 1 5 4.5t4.5 5t5.5 3t9 1.5h12q7 0 11.5 0.5t7.5 1.5t5.5 3.5t3.5 4t3.5 5t4.5 6.5q0 -1 -2 -4 q-16 -28 -46 -52q-26 -16 -54 -16q-47 0 -71 22.5t-24 54.5q0 14 7 42q-17 -16 -42 -47zM104 162q45 39 52 97q-2 -5 -11 -18.5t-15.5 -23.5t-14 -25.5t-11.5 -29.5zM120 461q0 5 7 8.5t14 7.5t7 12q-1 3 -7 9q25 10 39 10t14 -10q0 -11 -8.5 -22t-21 -18t-25.5 -7 q-19 0 -19 10zM320 461q0 5 7 8.5t14 7.5t7 12q0 4 -7 9q29 10 39 10q14 0 14 -10q0 -8 -5 -17t-12.5 -15.5t-17.5 -10.5t-20 -4q-19 0 -19 10z" />
<glyph unicode="&#xf0;" horiz-adv-x="383" d="M34 97q0 41 18 78.5t45 62.5t56.5 40t52.5 15q27 0 38.5 -12.5t11.5 -24.5q0 -10 -6 -10q-4 0 -11 1.5t-10 1.5q-9 30 -23 30q-6 0 -19 -6.5t-30 -22t-32.5 -37t-26 -57t-10.5 -77.5q0 -27 14 -46t48 -19q61 0 114 79q10 15 17.5 35.5t10 35.5t2.5 24q0 32 -9 67 t-19.5 57.5t-19.5 34.5q-12 18 -31 38l28 22q22 -22 33 -37q36 -46 50.5 -95.5t14.5 -87.5q0 -53 -37 -120q15 -29 30 -29q18 0 36 25l1 -1q-2 -6 -8.5 -13.5t-15 -12t-13.5 -4.5q-23 0 -39 24q-46 -56 -121 -56q-38 0 -66 9t-41.5 21t-21.5 28t-9.5 24t-1.5 15zM134 461 q0 24 16 24q6 0 58 -45l-27 -22q-10 9 -23 20.5t-18.5 16.5t-5.5 6zM140 369q19 17 51 39l29 22q27 21 50 50l19 -13q-73 -61 -85 -71l-46 -40z" />
<glyph unicode="&#xf1;" horiz-adv-x="440" d="M11 83q4 5 10.5 14t12.5 18t13.5 19.5t15 22.5t13.5 23l-3 -19q-25 -39 -61 -79zM56 12q0 14 9 28q28 44 121 202q1 2 4.5 5.5t15 12t25.5 15.5t36.5 12.5t47.5 5.5q47 0 73.5 -11t26.5 -42q0 -27 -14 -57t-30.5 -52t-31 -47.5t-15.5 -43.5q0 -15 4.5 -20.5t21.5 -5.5 q14 0 24.5 3t18.5 9t12.5 10.5t11.5 14t9 12.5l2 -1q-29 -62 -86 -62q-26 0 -44 13t-18 34q0 17 23 54t46 79t23 71q0 28 -43 28q-32 0 -64 -17.5t-46 -39.5q-14 -19 -41 -65t-49.5 -87t-30.5 -60q-7 -10 -19 -10q-23 0 -23 12zM67 73l34 152l10 33q1 1 2.5 5.5t3 6.5 t3.5 6.5t4.5 6.5t6 5t8 4t9.5 1q22 0 22 -21q0 -13 -10.5 -31t-17.5 -23q-7 -16 -17 -51q-1 -4 -8 -15t-15 -24.5t-16 -25.5l-14 -21zM208 448q27 35 47 35q21 0 72 -11.5t67 -11.5q6 0 11.5 0.5t10 1.5t8.5 1.5t7.5 2.5t6 3t6.5 4l6 4.5t6 5t6 5.5q2 -2 6.5 -5.5t7.5 -6.5 t4 -7q-3 -2 -10 -6.5t-10.5 -6.5t-10 -5.5t-11.5 -5t-12.5 -2.5t-15.5 -1q-34 0 -77 11.5t-57 11.5q-18 0 -30.5 -12.5t-16.5 -12.5q-10 0 -21 8z" />
<glyph unicode="&#xf2;" horiz-adv-x="375" d="M38 97q0 41 17.5 78.5t43.5 62.5t56 40t55 15q26 0 42 -15v-32q-1 1 -5 1.5l-8 1t-7 0.5q-8 30 -22 30q-6 0 -19.5 -6t-32 -21.5t-34.5 -37t-27.5 -57t-11.5 -77.5q0 -25 19 -45.5t54 -20.5q43 0 76.5 31.5t48.5 70.5t15 72q0 15 -14 61q0 -7 -12.5 -34.5t-12.5 -55.5 q0 -11 9 -32l-10 -18q-1 3 -5 13t-6 17.5t-2 13.5q0 13 2.5 27.5t6.5 26t8 21t7 14.5l2 5q-1 6 -1 20q0 24 16 24q7 0 20 -7.5t18 -19.5q20 -49 20 -84q0 -48 -36 -113q-43 -67 -130 -67q-38 0 -66 9t-41.5 21t-22 28t-9.5 24t-1 15zM266 382q9 12 23.5 28.5t19.5 23.5 q7 12 7 20q0 19 -30 24q6 5 15 11.5t14 11t11 8.5t10.5 6t7.5 2q9 0 16 -7.5t10 -18.5v-6q0 -26 -58 -72q-3 -3 -7 -6t-9 -6t-9.5 -6t-10 -6.5t-10.5 -6.5zM314 44l5 8q5 -4 13 -4q7 0 10 0.5t8 4t11 10.5l1 -1q-2 -9 -11 -14.5t-19 -5.5q-12 0 -18 2z" />
<glyph unicode="&#xf3;" horiz-adv-x="375" d="M38 97q0 41 17.5 78.5t43.5 62.5t56 40t55 15q26 0 42 -15v-32q-1 1 -5 1.5l-8 1t-7 0.5q-8 30 -22 30q-6 0 -19.5 -6t-32 -21.5t-34.5 -37t-27.5 -57t-11.5 -77.5q0 -25 19 -45.5t54 -20.5q43 0 76.5 31.5t48.5 70.5t15 72q0 15 -14 61q0 -7 -12.5 -34.5t-12.5 -55.5 q0 -11 9 -32l-10 -18q-1 3 -5 13t-6 17.5t-2 13.5q0 13 2.5 27.5t6.5 26t8 21t7 14.5l2 5q-1 6 -1 20q0 24 16 24q7 0 20 -7.5t18 -19.5q20 -49 20 -84q0 -48 -36 -113q-43 -67 -130 -67q-38 0 -66 9t-41.5 21t-22 28t-9.5 24t-1 15zM261 382l4 18.5t9.5 35t13.5 30.5 q14 25 27.5 34.5t32.5 9.5q24 0 24 -14q0 -8 -16 -53q-16 13 -22 13q-20 0 -36 -19q-4 -5 -35 -56zM314 44l5 8q5 -4 13 -4q7 0 10 0.5t8 4t11 10.5l1 -1q-2 -9 -11 -14.5t-19 -5.5q-12 0 -18 2z" />
<glyph unicode="&#xf4;" horiz-adv-x="375" d="M38 97q0 41 17.5 78.5t43.5 62.5t56 40t55 15q26 0 42 -15v-32q-1 1 -5 1.5l-8 1t-7 0.5q-8 30 -22 30q-6 0 -19.5 -6t-32 -21.5t-34.5 -37t-27.5 -57t-11.5 -77.5q0 -25 19 -45.5t54 -20.5q43 0 76.5 31.5t48.5 70.5t15 72q0 15 -14 61q0 -7 -12.5 -34.5t-12.5 -55.5 q0 -11 9 -32l-10 -18q-1 3 -5 13t-6 17.5t-2 13.5q0 13 2.5 27.5t6.5 26t8 21t7 14.5l2 5q-1 6 -1 20q0 24 16 24q7 0 20 -7.5t18 -19.5q20 -49 20 -84q0 -48 -36 -113q-43 -67 -130 -67q-38 0 -66 9t-41.5 21t-22 28t-9.5 24t-1 15zM122 385q5 12 16 22t25 18.5t28.5 18.5 t30 26.5t27.5 37.5h50q14 -25 30 -44.5t27.5 -29t22.5 -22.5t17 -27q-63 34 -83 48t-42 40q-8 -10 -17 -17.5t-22.5 -15t-26.5 -14l-37 -18.5zM314 44l5 8q5 -4 13 -4q7 0 10 0.5t8 4t11 10.5l1 -1q-2 -9 -11 -14.5t-19 -5.5q-12 0 -18 2z" />
<glyph unicode="&#xf5;" horiz-adv-x="375" d="M38 97q0 41 17.5 78.5t43.5 62.5t56 40t55 15q26 0 42 -15v-32q-1 1 -5 1.5l-8 1t-7 0.5q-8 30 -22 30q-6 0 -19.5 -6t-32 -21.5t-34.5 -37t-27.5 -57t-11.5 -77.5q0 -25 19 -45.5t54 -20.5q43 0 76.5 31.5t48.5 70.5t15 72q0 15 -14 61q0 -7 -12.5 -34.5t-12.5 -55.5 q0 -11 9 -32l-10 -18q-1 3 -5 13t-6 17.5t-2 13.5q0 13 2.5 27.5t6.5 26t8 21t7 14.5l2 5q-1 6 -1 20q0 24 16 24q7 0 20 -7.5t18 -19.5q20 -49 20 -84q0 -48 -36 -113q-43 -67 -130 -67q-38 0 -66 9t-41.5 21t-22 28t-9.5 24t-1 15zM159 448q27 35 47 35q21 0 72 -11.5 t67 -11.5q8 0 14.5 0.5t12.5 2.5t9.5 2.5t9 4.5t7 5t8 6.5t8.5 6.5q2 -2 6 -5.5t7 -6.5t4 -7q-2 -1 -11.5 -7.5t-13 -8t-12 -5.5t-16 -5t-17.5 -1q-34 0 -77 11.5t-56 11.5q-18 0 -31 -12.5t-17 -12.5q-10 0 -21 8zM314 44l5 8q5 -4 13 -4q7 0 10 0.5t8 4t11 10.5l1 -1 q-2 -9 -11 -14.5t-19 -5.5q-12 0 -18 2z" />
<glyph unicode="&#xf6;" horiz-adv-x="375" d="M38 97q0 41 17.5 78.5t43.5 62.5t56 40t55 15q26 0 42 -15v-32q-1 1 -5 1.5l-8 1t-7 0.5q-8 30 -22 30q-6 0 -19.5 -6t-32 -21.5t-34.5 -37t-27.5 -57t-11.5 -77.5q0 -25 19 -45.5t54 -20.5q43 0 76.5 31.5t48.5 70.5t15 72q0 15 -14 61q0 -7 -12.5 -34.5t-12.5 -55.5 q0 -11 9 -32l-10 -18q-1 3 -5 13t-6 17.5t-2 13.5q0 13 2.5 27.5t6.5 26t8 21t7 14.5l2 5q-1 6 -1 20q0 24 16 24q7 0 20 -7.5t18 -19.5q20 -49 20 -84q0 -48 -36 -113q-43 -67 -130 -67q-38 0 -66 9t-41.5 21t-22 28t-9.5 24t-1 15zM168 461q0 5 6.5 8.5t13.5 7.5t7 12 q-1 3 -6 9q25 10 38.5 10t13.5 -10q0 -11 -8 -22t-21 -18t-26 -7q-18 0 -18 10zM314 44l5 8q5 -4 13 -4q7 0 10 0.5t8 4t11 10.5l1 -1q-2 -9 -11 -14.5t-19 -5.5q-12 0 -18 2zM368 461q0 5 6.5 8.5t13.5 7.5t7 12q0 4 -6 9q29 10 39 10q13 0 13 -10q0 -11 -8 -22t-20.5 -18 t-26.5 -7q-18 0 -18 10z" />
<glyph unicode="&#xf7;" horiz-adv-x="461" d="M56 219q0 10 8 28q56 -1 215 -1q87 0 137 7q-1 -8 -8 -33q-66 -4 -94 -4q-9 0 -97 1.5t-161 1.5zM180 98q0 13 3.5 21.5t10 11.5t11.5 4t11 1q9 0 16.5 -6.5t7.5 -14.5q0 -28 -34 -28q-21 0 -26 11zM242 358q1 17 8.5 26t13.5 10.5t16 1.5q9 0 16.5 -6.5t7.5 -14.5 q0 -28 -34 -28q-23 0 -28 11z" />
<glyph unicode="&#xf8;" horiz-adv-x="373" d="M25 -1l28 24q2 -3 6 -5.5t9.5 -5.5t7.5 -5l-22 -25zM38 97q0 33 11.5 64t31 54.5t42.5 41.5t45.5 27t41.5 9q20 0 34 -8l-16 -22q-8 16 -18 16q-6 0 -19.5 -6.5t-31.5 -22t-34 -37t-27.5 -57t-11.5 -77.5q0 -18 15 -43q17 -22 53 -22q33 0 59.5 17t41 40.5t24.5 50 t13 43.5t3 23q0 21 -1 32l33 38q18 -33 18 -71q0 -15 -6.5 -40t-22 -61t-52 -61t-86.5 -25q-76 0 -112 35q-28 27 -28 62zM106 73q59 62 142 174l60 86l36 -17l-33 -38q-2 -3 -6.5 -8t-9 -10.5t-10.5 -11.5l-169 -196z" />
<glyph unicode="&#xf9;" horiz-adv-x="457" d="M11 83q5 8 24 31q10 13 18 20l-2 -15q-17 -10 -39 -37zM66 89q0 31 5 51l7 25.5t13 42t17 39.5t25.5 35.5t31.5 12.5q33 0 33 -23q0 -12 -15 -42t-44 -59q6 19 10 30q7 9 14.5 23.5t12.5 28.5t5 20q0 9 -11 9q-8 -7 -23 -41.5t-23 -59.5q-3 -7 -7 -19t-5.5 -17.5t-4 -15 t-3 -19.5t-0.5 -24q0 -29 16.5 -50.5t48.5 -21.5q49 0 75 22t46 71q-1 -8 -1 -22q0 -7 7 -40q-16 -22 -43 -33.5t-83 -11.5q-50 0 -77 28t-27 61zM279 382q7 10 15.5 20t15.5 18t11 14q8 12 8 20q0 19 -30 24q6 5 14.5 11.5t14 11t11 8.5t10 6t7.5 2q9 0 16.5 -7.5 t9.5 -18.5v-6q0 -26 -57 -72q-5 -4 -12.5 -9t-17.5 -11.5t-16 -10.5zM305 97q0 41 9 72q22 54 42 113q7 11 29 11q10 0 17 -4t7 -11q0 -17 -32 -89.5t-32 -105.5q0 -69 33 -69q27 0 47 16q4 3 19 33l1 -1q-1 -4 -4.5 -12.5t-4.5 -11t-4 -8t-6 -8.5t-7 -6.5t-10 -7.5 q-17 -8 -33 -8q-71 0 -71 97z" />
<glyph unicode="&#xfa;" horiz-adv-x="475" d="M11 83q5 8 24 31q10 13 18 20l-2 -15q-17 -10 -39 -37zM66 89q0 31 5 51l7 25.5t13 42t17 39.5t25.5 35.5t31.5 12.5q33 0 33 -23q0 -12 -15 -42t-44 -59q6 19 10 30q7 9 14.5 23.5t12.5 28.5t5 20q0 9 -11 9q-8 -7 -23 -41.5t-23 -59.5q-3 -7 -7 -19t-5.5 -17.5t-4 -15 t-3 -19.5t-0.5 -24q0 -29 16.5 -50.5t48.5 -21.5q49 0 75 22t46 71q-1 -8 -1 -22q0 -7 7 -40q-16 -22 -43 -33.5t-83 -11.5q-50 0 -77 28t-27 61zM268 382l3.5 18.5t9 35t13.5 30.5q14 25 27.5 34.5t32.5 9.5q25 0 25 -14q0 -8 -17 -53q-16 13 -22 13q-19 0 -36 -19 q-4 -5 -35 -56zM305 97q0 41 9 72q22 54 42 113q7 11 29 11q10 0 17 -4t7 -11q0 -17 -32 -89.5t-32 -105.5q0 -69 33 -69q27 0 47 16q4 3 19 33l1 -1q-1 -4 -4.5 -12.5t-4.5 -11t-4 -8t-6 -8.5t-7 -6.5t-10 -7.5q-17 -8 -33 -8q-71 0 -71 97z" />
<glyph unicode="&#xfb;" horiz-adv-x="457" d="M11 83q5 8 24 31q10 13 18 20l-2 -15q-17 -10 -39 -37zM66 89q0 31 5 51l7 25.5t13 42t17 39.5t25.5 35.5t31.5 12.5q33 0 33 -23q0 -12 -15 -42t-44 -59q6 19 10 30q7 9 14.5 23.5t12.5 28.5t5 20q0 9 -11 9q-8 -7 -23 -41.5t-23 -59.5q-3 -7 -7 -19t-5.5 -17.5t-4 -15 t-3 -19.5t-0.5 -24q0 -29 16.5 -50.5t48.5 -21.5q49 0 75 22t46 71q-1 -8 -1 -22q0 -7 7 -40q-16 -22 -43 -33.5t-83 -11.5q-50 0 -77 28t-27 61zM138 385q4 12 15 22t25 18.5t28.5 18.5t30 26.5t27.5 37.5h50q14 -25 30 -44.5t27.5 -29t22.5 -22.5t17 -27q-63 34 -83 48 t-42 40q-10 -12 -24 -22t-27 -17t-43 -21.5t-54 -27.5zM305 97q0 41 9 72q22 54 42 113q7 11 29 11q10 0 17 -4t7 -11q0 -17 -32 -89.5t-32 -105.5q0 -69 33 -69q27 0 47 16q4 3 19 33l1 -1q-1 -4 -4.5 -12.5t-4.5 -11t-4 -8t-6 -8.5t-7 -6.5t-10 -7.5q-17 -8 -33 -8 q-71 0 -71 97z" />
<glyph unicode="&#xfc;" horiz-adv-x="457" d="M11 83q5 8 24 31q10 13 18 20l-2 -15q-17 -10 -39 -37zM66 89q0 31 5 51l7 25.5t13 42t17 39.5t25.5 35.5t31.5 12.5q33 0 33 -23q0 -12 -15 -42t-44 -59q6 19 10 30q7 9 14.5 23.5t12.5 28.5t5 20q0 9 -11 9q-8 -7 -23 -41.5t-23 -59.5q-3 -7 -7 -19t-5.5 -17.5t-4 -15 t-3 -19.5t-0.5 -24q0 -29 16.5 -50.5t48.5 -21.5q49 0 75 22t46 71q-1 -8 -1 -22q0 -7 7 -40q-16 -22 -43 -33.5t-83 -11.5q-50 0 -77 28t-27 61zM180 461q0 5 7 8.5t14 7.5t7 12q-1 3 -7 9q25 10 39 10t14 -10q0 -11 -8.5 -22t-21 -18t-25.5 -7q-19 0 -19 10zM305 97 q0 41 9 72q22 54 42 113q7 11 29 11q10 0 17 -4t7 -11q0 -17 -32 -89.5t-32 -105.5q0 -69 33 -69q27 0 47 16q4 3 19 33l1 -1q-1 -4 -4.5 -12.5t-4.5 -11t-4 -8t-6 -8.5t-7 -6.5t-10 -7.5q-17 -8 -33 -8q-71 0 -71 97zM380 461q0 5 7 8.5t14 7.5t7 12q0 4 -7 9q29 10 39 10 q14 0 14 -10q0 -11 -8 -22t-21 -18t-26 -7q-19 0 -19 10z" />
<glyph unicode="&#xfd;" horiz-adv-x="408" d="M-109 -372q0 36 60 103.5t135 127.5t128 87l-14 -29q-2 -1 -13 -7.5t-20 -12t-27.5 -18.5t-37.5 -28.5t-47.5 -40.5t-59.5 -55q-17 -16 -43.5 -57t-26.5 -68q0 -45 67 -45q109 0 179 196q16 39 31.5 78.5t22 56t14 36.5t14.5 42q23 8 70 66q-64 -188 -151 -375 q-31 -56 -78 -85.5t-103 -29.5q-19 0 -31.5 1.5t-31 6t-28 17.5t-9.5 33zM11 83q3 13 28 37l12 11q-1 -2 -1 -6q0 -5 1 -9q-29 -20 -39 -34zM70 124q0 6 1 13t3 13t5.5 17.5t5.5 20.5q17 64 31 84.5t46 20.5q22 0 29.5 -4.5t7.5 -17.5q0 -5 -2 -13t-7 -21t-16.5 -30 t-27.5 -33q5 20 9 34q7 8 12 18t8 19t4.5 16t1.5 12q0 9 -11 9q-5 -5 -14 -24t-17 -41t-11 -36q-1 0 -2.5 -6.5t-4 -17t-5 -22.5t-4 -26t-1.5 -26q0 -69 61 -69q42 0 73 26.5t47 62.5q7 16 17 44t18 49.5t18 46t19 39.5q10 10 18 12q16 0 21.5 -4.5t5.5 -18.5 q0 -20 -7 -41.5t-13.5 -33.5t-18.5 -29.5t-12 -19.5q-12 -22 -33 -50.5t-40 -50.5t-29 -30q-26 -16 -86 -16q-28 0 -49 13.5t-31.5 34t-15 39.5t-4.5 37zM259 382l4 18.5t9 35t13 30.5q25 44 60 44q25 0 25 -14q0 -8 -16 -53q-16 13 -23 13q-19 0 -36 -19q-4 -5 -35 -56z " />
<glyph unicode="&#xfe;" horiz-adv-x="421" d="M-126 -387q0 3 5 26t22.5 76t43.5 116t74.5 154t109.5 182q26 39 55.5 66t56 39t44.5 16.5t33 4.5q14 0 28 -2.5t29 -9.5t23.5 -21.5t8.5 -35.5q0 -22 -6 -48t-21.5 -58t-38.5 -58q-19 2 -31 13q46 88 46 152q0 17 -2 28t-9.5 18.5t-20.5 7.5q-23 0 -48 -15t-52.5 -45 t-44.5 -51.5t-44 -59t-30 -41.5q-51 -75 -95.5 -178.5t-65 -172.5t-20.5 -86q5 -2 6 -2q33 0 160 387q25 40 33 49q-18 -94 -75 -251t-92 -204q-24 -35 -46 -35q-16 0 -26 11.5t-10 27.5zM11 83q27 36 65 155t68 217.5t40 98.5q9 1 13 1q11 0 11 -24q0 -8 -16.5 -83.5 t-34.5 -154t-19 -86.5q-4 -3 -9.5 -10t-8.5 -13l-4 -5q6 48 6 65q0 19 -6 19q-6 -2 -12.5 -18.5t-13.5 -39.5t-27.5 -58t-50.5 -65zM189 32q0 21 12.5 35.5t39.5 14.5q28 0 60 -24q19 -13 37 -13q44 0 69 18l2 -1q-26 -30 -82 -30q-20 0 -35 13q-9 8 -25 15.5t-22 7.5 q-35 0 -35 -36q0 -6 9 -10.5t20 -5.5q25 0 42 17q10 -8 21 -11q-33 -22 -62 -22q-22 0 -36.5 11.5t-14.5 20.5z" />
<glyph unicode="&#xff;" horiz-adv-x="408" d="M-109 -372q0 36 60 103.5t135 127.5t128 87l-14 -29q-2 -1 -13 -7.5t-20 -12t-27.5 -18.5t-37.5 -28.5t-47.5 -40.5t-59.5 -55q-17 -16 -43.5 -57t-26.5 -68q0 -45 67 -45q109 0 179 196q16 39 31.5 78.5t22 56t14 36.5t14.5 42q23 8 70 66q-64 -188 -151 -375 q-31 -56 -78 -85.5t-103 -29.5q-19 0 -31.5 1.5t-31 6t-28 17.5t-9.5 33zM11 83q3 13 28 37l12 11q-1 -2 -1 -6q0 -5 1 -9q-29 -20 -39 -34zM70 124q0 6 1 13t3 13t5.5 17.5t5.5 20.5q17 64 31 84.5t46 20.5q22 0 29.5 -4.5t7.5 -17.5q0 -5 -2 -13t-7 -21t-16.5 -30 t-27.5 -33q5 20 9 34q7 8 12 18t8 19t4.5 16t1.5 12q0 9 -11 9q-5 -5 -14 -24t-17 -41t-11 -36q-1 0 -2.5 -6.5t-4 -17t-5 -22.5t-4 -26t-1.5 -26q0 -69 61 -69q42 0 73 26.5t47 62.5q7 16 17 44t18 49.5t18 46t19 39.5q10 10 18 12q16 0 21.5 -4.5t5.5 -18.5 q0 -20 -7 -41.5t-13.5 -33.5t-18.5 -29.5t-12 -19.5q-12 -22 -33 -50.5t-40 -50.5t-29 -30q-26 -16 -86 -16q-28 0 -49 13.5t-31.5 34t-15 39.5t-4.5 37zM168 461q0 5 6.5 8.5t13.5 7.5t7 12q-1 3 -6 9q25 10 38.5 10t13.5 -10q0 -11 -8 -22t-21 -18t-26 -7q-18 0 -18 10z M368 461q0 5 6.5 8.5t13.5 7.5t7 12q0 4 -6 9q29 10 39 10q13 0 13 -10q0 -11 -8 -22t-20.5 -18t-26.5 -7q-18 0 -18 10z" />
<glyph unicode="&#x153;" horiz-adv-x="570" d="M31 97q0 41 18.5 78.5t45 62.5t56 40t53.5 15q26 0 42 -15v-32q-1 1 -8.5 2t-11.5 1q-8 30 -22 30q-7 0 -19.5 -6.5t-30 -22t-33 -37t-26 -57t-10.5 -77.5q0 -27 14 -46t49 -19q39 0 65.5 20.5t55.5 72.5q6 13 15 35t19 43.5t26 48.5q48 60 139 60q36 0 73 -13.5 t37 -37.5q0 -4 -1.5 -11.5t-9.5 -21.5t-21.5 -25.5t-41 -20t-64.5 -8.5q-13 0 -26 1t-20 2.5t-14.5 3t-9.5 1.5l5 11q14 -4 51 -4q33 1 59 18t36 34.5t10 28.5q0 14 -19 21t-42 7q-42 0 -77 -32.5t-56 -85.5q-29 -83 -50 -114q-40 -48 -116 -48q-37 0 -65 9t-42 21t-22 28 t-9.5 24t-1.5 15zM264 267q0 24 16 24q6 0 19.5 -7.5t18.5 -19.5q1 -3 5 -14q-13 -12 -32 -54q-1 10 -14 53q0 3 -6.5 8.5t-6.5 9.5zM298 36q11 10 25 47q0 -68 83 -68q42 0 62 16l4.5 4.5l4.5 4.5t5 4.5t5.5 4t6.5 2.5t9 1h17h14.5t8.5 1t4.5 1.5l4 4l5.5 5.5l1 -1 q-14 -22 -30.5 -35.5t-37.5 -18.5t-35.5 -6.5t-39.5 -1.5q-78 0 -117 35z" />
<glyph unicode="&#x178;" horiz-adv-x="1048" d="M109 461q0 43 41 72.5t89 29.5q35 0 65 -7t50.5 -18t43 -23.5t42 -23.5t48 -18t60.5 -7q21 0 39 5.5t30.5 12.5t34.5 22q-4 -17 -13 -34q-49 -21 -79 -21q-50 0 -88.5 10t-62.5 25t-46 29.5t-50.5 24.5t-63.5 10q-24 0 -42 -8.5t-27.5 -20t-15 -27t-7 -26t-1.5 -19.5 q0 -17 4.5 -33t12 -26t17.5 -10t10 14q0 7 -0.5 14t-0.5 17q0 4 6 4q4 0 12.5 -4t16.5 -10.5t8 -12.5q0 -13 -10 -21q-14 -16 -38 -16q-32 0 -58.5 32t-26.5 64zM326 -289q0 12 4.5 22.5t19 20.5t38.5 10q61 0 102 -34q11 -9 25.5 -27.5t14.5 -32.5q-7 -11 -29 -11 q-16 0 -25 7q2 6 2 29q0 17 -12 36q-6 6 -16 11t-19.5 8t-14.5 3q-20 0 -33.5 -21t-13.5 -44q0 -50 61 -78t120 -28q56 0 91.5 24t52.5 52q6 10 44.5 88t92.5 202.5t74 200.5q12 40 34 111q66 219 92.5 277t69.5 58q30 0 30 -65q0 -11 -1 -24t-9.5 -47.5t-23.5 -71.5 t-46.5 -94.5t-74.5 -118.5q20 70 26 96q38 62 65 141t27 150q0 9 -4 12q-13 -16 -25 -41.5t-27.5 -72.5t-25.5 -82t-33 -116.5t-36 -129.5q-16 -55 -83 -218t-138 -290q-6 -11 -21.5 -21t-54 -19.5t-92.5 -11.5q-69 2 -132 28q-49 25 -72.5 51.5t-23.5 60.5zM542 181 q0 16 5 36.5t11 38t20.5 48.5t24 50.5t31.5 63t34 67.5q11 25 16 43q1 9 7 21t19 26.5t29 18.5q9 0 15 -3q7 -1 17.5 -14t10.5 -19v-1q0 -4 -4.5 -8.5t-9.5 -6.5l-4 -2q-2 11 -6 11t-44 -80q-20 -39 -54 -102t-46 -88.5t-23.5 -63.5t-11.5 -73q0 -38 12.5 -65.5t31.5 -40.5 t35.5 -18.5t31.5 -5.5q69 0 187 108l-24 -69q-41 -29 -71 -41t-77 -12q-43 0 -75 15.5t-48 36.5t-26 49.5t-12 46t-2 33.5zM815 683q0 6 13.5 12t13.5 16q0 2 -1 3.5t-2.5 3l-2.5 2.5q25 10 39 10t14 -10q0 -17 -17.5 -32t-37.5 -15q-19 0 -19 10zM1015 683q0 6 13.5 12 t13.5 16q0 4 -6 9q29 10 39 10q14 0 14 -10q0 -17 -17.5 -32t-37.5 -15q-19 0 -19 10z" />
<glyph unicode="&#x2c6;" horiz-adv-x="282" d="M5 385q5 12 16 22t24.5 18.5t28 18.5t30.5 26.5t27 37.5h50q18 -32 39 -54t36.5 -36.5t22.5 -32.5q-64 34 -83.5 48t-41.5 40q-10 -12 -24 -22t-27.5 -17t-43 -21.5t-54.5 -27.5z" />
<glyph unicode="&#x2dc;" horiz-adv-x="345" d="M24 448q27 35 47 35q21 0 72 -11.5t67 -11.5q8 0 14.5 0.5t12.5 2.5t9.5 2.5t9 4.5t7 5t8 6.5t8.5 6.5q1 -1 2.5 -3t3.5 -3t3.5 -2.5l3 -3t3 -3.5t1.5 -4q-2 -1 -11.5 -7.5t-13 -8t-12 -5.5t-16 -5t-17.5 -1q-34 0 -77 11.5t-57 11.5q-17 0 -30 -12.5t-17 -12.5 q-10 0 -21 8z" />
<glyph unicode="&#x2000;" horiz-adv-x="410" />
<glyph unicode="&#x2001;" horiz-adv-x="821" />
<glyph unicode="&#x2002;" horiz-adv-x="410" />
<glyph unicode="&#x2003;" horiz-adv-x="821" />
<glyph unicode="&#x2004;" horiz-adv-x="273" />
<glyph unicode="&#x2005;" horiz-adv-x="205" />
<glyph unicode="&#x2006;" horiz-adv-x="136" />
<glyph unicode="&#x2007;" horiz-adv-x="136" />
<glyph unicode="&#x2008;" horiz-adv-x="102" />
<glyph unicode="&#x2009;" horiz-adv-x="164" />
<glyph unicode="&#x200a;" horiz-adv-x="45" />
<glyph unicode="&#x2010;" horiz-adv-x="480" d="M92 219q0 9 7 28q57 -1 216 -1q87 0 137 7q-6 -25 -8 -33q-65 -4 -95 -4q-8 0 -96 1.5t-161 1.5z" />
<glyph unicode="&#x2011;" horiz-adv-x="480" d="M92 219q0 9 7 28q57 -1 216 -1q87 0 137 7q-6 -25 -8 -33q-65 -4 -95 -4q-8 0 -96 1.5t-161 1.5z" />
<glyph unicode="&#x2012;" horiz-adv-x="480" d="M92 219q0 9 7 28q57 -1 216 -1q87 0 137 7q-6 -25 -8 -33q-65 -4 -95 -4q-8 0 -96 1.5t-161 1.5z" />
<glyph unicode="&#x2013;" horiz-adv-x="632" d="M92 219q0 9 10 28q81 -1 307 -1q124 0 195 7q-9 -25 -11 -33q-93 -4 -135 -4q-12 0 -137 1.5t-229 1.5z" />
<glyph unicode="&#x2014;" horiz-adv-x="1144" d="M92 219q0 9 20 28q162 -1 614 -1q248 0 390 7q-17 -25 -23 -33q-185 -4 -270 -4q-23 0 -273 1.5t-458 1.5z" />
<glyph unicode="&#x202f;" horiz-adv-x="164" />
<glyph unicode="&#x205f;" horiz-adv-x="205" />
<glyph unicode="&#x20ac;" horiz-adv-x="496" d="M13 146l38 13l1 -29l-38 -14q0 3 0.5 7t0.5 7q0 6 -2 16zM34 233q131 47 133 48q144 48 172 59q1 -6 1 -13q0 -5 -1 -12t-1 -9q0 -1 1 -3q-69 -19 -135 -41l-170 -59q1 3 1.5 7t0.5 7q0 6 -2 16zM73 166q0 15 2 31l46 16q-1 -6 -2.5 -17.5t-1.5 -13.5l-3 -32v-24 q0 -31 16.5 -54.5t42 -35.5t51 -18t48.5 -6q26 0 46 11t48 36q36 -2 36 -10q0 -7 -21 -20q-17 -10 -30 -16t-30.5 -9.5t-39.5 -3.5q-31 0 -63.5 7.5t-64 23t-53.5 43t-26 62.5zM91 274q20 59 57 104.5t86.5 71t103.5 25.5q34 0 62 -8t44.5 -21t25.5 -26.5t9 -26.5 q0 -12 -3.5 -28.5t-11.5 -20.5q-7 7 -11.5 12.5t-7.5 12t-4 9.5t-2.5 10.5t-2.5 8.5q0 63 -85 63q-68 0 -122 -46.5t-84 -122.5q-41 -13 -54 -17zM141 159l2 32l14 5q4 1 72 24t92 33q1 -6 1 -13q0 -5 -1 -12t-1 -9q0 -1 1 -3q-45 -12 -127 -39z" />
</font>
</defs>
</svg>
