<?xml version="1.0" standalone="no"?>
<!DOCTYPE svg PUBLIC "-//W3C//DTD SVG 1.1//EN" "http://www.w3.org/Graphics/SVG/1.1/DTD/svg11.dtd" >
<svg xmlns="http://www.w3.org/2000/svg">
<metadata></metadata>
<defs>
<font id="konstytucyjamedium" horiz-adv-x="333" vert-adv-y="1000" >
<font-face units-per-em="1000" ascent="581" descent="-419" />
<missing-glyph horiz-adv-x="292" />
<glyph unicode="r&#x7a;" horiz-adv-x="285" vert-adv-y="570" d="M0 0v285h285v-285h-285z" />
<glyph horiz-adv-x="0" vert-adv-y="0" />
<glyph unicode="&#xd;" horiz-adv-x="1000" vert-adv-y="0" />
<glyph unicode=" " horiz-adv-x="292" vert-adv-y="563" />
<glyph unicode="!" horiz-adv-x="189" vert-adv-y="563" d="M20 4q0 37 28 37q7 0 13 -6.5t6 -13.5q0 -27 -26 -27q-19 0 -21 10zM58 179q0 2 9 52t19 106.5t18 120t8 95.5q0 12 -2 28q11 0 23 -2.5t16 -2.5q8 0 20 5q0 -6 -45 -198.5t-45 -211.5q0 -3 -4 -3q-5 0 -11 4t-6 7z" />
<glyph unicode="&#x22;" horiz-adv-x="267" vert-adv-y="563" d="M119 478q7 10 18.5 26t15.5 24q6 16 6 20q0 18 -23 23q36 38 44 38q14 0 21 -25v-6q0 -6 -3 -13.5t-6.5 -13.5t-9.5 -13.5t-9.5 -11.5t-9.5 -10.5t-7 -7.5q-12 -11 -37 -30zM205 478q8 12 19 28t15 22q6 12 6 20q0 18 -23 23q36 38 44 38q14 0 21 -25v-6q0 -6 -3 -13.5 t-6.5 -13.5t-9.5 -13.5t-9.5 -11.5t-9.5 -10.5t-7 -7.5q-12 -11 -37 -30z" />
<glyph unicode="#" horiz-adv-x="514" vert-adv-y="563" d="M49 180q27 12 60 12q7 0 47 -4q1 12 3 37.5t4 58t3 46.5q-15 0 -23 -0.5t-15.5 -1.5t-10 -1.5t-11 -3.5t-12.5 -4q-3 0 -24 27q26 11 68 11h30q9 89 13 90q2 0 10 0.5t17 4.5q-6 -28 -12 -94h10q42 0 113 -6q1 11 4 30q2 20 3 29t3 19t4 13.5t4 4.5q20 2 27 4 q-8 -33 -17 -103q12 -4 54 -4q31 0 55 12q13 -19 18 -35q-25 -5 -49 -5q-58 0 -83 5q0 -3 -1 -28.5t-2 -60.5t-2 -53h32q37 0 55 13q13 -19 18 -35q-30 -6 -38 -6q-32 0 -68 1v-39q0 -44 5 -57q-19 -12 -35 -19q0 11 1.5 27.5t1.5 38.5q0 35 1 50q-10 0 -43 1t-59 2t-29 1 q-4 -48 -4 -52q0 -48 3 -57q-17 -11 -38 -19q0 15 3 34t4 32q0 3 5 66q-15 3 -36 3q-13 0 -19.5 -1t-13 -3.5t-11.5 -3.5q-3 1 -23 23zM183 185q8 -4 128 -4q3 122 5 144q-34 3 -102 5h-21q-2 -22 -4 -56.5t-3.5 -59t-2.5 -29.5z" />
<glyph unicode="$" horiz-adv-x="338" vert-adv-y="563" d="M42 136q0 16 12 23.5t27 7.5q25 0 45.5 -16t27 -28.5t8.5 -18.5q-5 -8 -16 -8q-6 0 -12 3l-2 8q-1 8 -4 15.5t-8 16t-14.5 14t-21.5 5.5q-20 0 -20 -23q0 -47 34.5 -67t78.5 -21l32 191q-3 3 -14 12.5t-15.5 13.5t-14.5 13t-15 14t-12.5 13.5t-11.5 14.5t-8 13t-6 13.5 t-2 12.5q0 30 35 52.5t87 22.5h3l5 33l25 3l-7 -37q51 -7 73.5 -31.5t22.5 -46.5q0 -12 -7 -20t-16 -8q-16 0 -17 8l6 7q6 7 6 18q0 20 -15.5 39t-54.5 24q-4 -25 -11 -56.5t-11 -55t-6 -50.5q5 -4 22 -17t25.5 -21.5t20 -23t17 -32.5t5.5 -40q0 -85 -120 -89l-16 -95 l-23 -1l17 96q-62 3 -98 34t-36 65zM140 364q0 -15 18 -37.5t36 -36.5l18 -15l22 148q-34 -1 -64 -21t-30 -38zM199 48q35 5 55.5 26.5t24.5 38t4 33.5q0 7 -0.5 12t-3 10t-4.5 8t-8 9.5t-10 9.5t-14.5 12.5t-17.5 15.5z" />
<glyph unicode="%" horiz-adv-x="449" vert-adv-y="0" d="M35 23q22 24 57 61q84 90 113.5 128t130.5 186q8 11 13 18t12 17.5t14 20.5l33 -26l-340 -431zM58 391q0 26 18.5 44.5t44.5 18.5t45 -18.5t19 -44.5q0 -27 -19 -45.5t-45 -18.5t-44.5 18.5t-18.5 45.5zM81 389q0 -19 13 -31.5t31 -12.5t31 13t13 31q0 17 -13.5 30.5 t-30.5 13.5q-18 0 -31 -13.5t-13 -30.5zM250 62q0 27 18.5 45.5t44.5 18.5q27 0 45.5 -18.5t18.5 -45.5q0 -26 -18.5 -44.5t-45.5 -18.5q-26 0 -44.5 18.5t-18.5 44.5zM272 61q0 -18 13.5 -31t30.5 -13q19 0 31.5 13t12.5 31t-12.5 30.5t-31.5 12.5q-18 0 -31 -12.5 t-13 -30.5z" />
<glyph unicode="&#x26;" horiz-adv-x="437" vert-adv-y="563" d="M53 104q0 35 28.5 70t79.5 73t53 40q-26 42 -26 87q0 80 88 80q29 0 48 -21t19 -43q0 -21 -18 -43t-69 -69l88 -145l53 68l12 -12l-55 -71l74 -118h-31l-61 96q-39 -50 -73.5 -73t-82.5 -23q-44 0 -85.5 34.5t-41.5 69.5zM95 110q0 -35 29.5 -65.5t57.5 -30.5h1 q30 0 61 19.5t46 35t36 41.5l-93 148q-18 -16 -44 -37.5t-39.5 -33t-28 -26t-20.5 -26.5t-6 -25zM217 378q0 -41 19 -71q3 2 12 10t14 12t13 11.5t13 13.5t10 13t7.5 14t2.5 13q0 14 -8.5 30t-23.5 16q-59 0 -59 -62z" />
<glyph unicode="'" horiz-adv-x="181" vert-adv-y="563" d="M119 478q7 10 18.5 26t15.5 24q6 16 6 20q0 18 -23 23q36 38 44 38q14 0 21 -25v-6q0 -6 -3 -13.5t-6.5 -13.5t-9.5 -13.5t-9.5 -11.5t-9.5 -10.5t-7 -7.5q-12 -11 -37 -30z" />
<glyph unicode="(" horiz-adv-x="227" vert-adv-y="563" d="M26 89q0 94 27 201.5t50 145.5q33 54 90 84t108 30q3 0 36 -5q-3 0 -15 -1t-14.5 -1.5t-12 -1.5t-13.5 -2.5t-12.5 -4t-14.5 -6t-15.5 -8.5t-19 -12t-20.5 -15q-61 -45 -99 -175t-38 -240q0 -118 92 -157q20 -8 70 -16h-6q-68 0 -113 28q-80 53 -80 156z" />
<glyph unicode=")" horiz-adv-x="381" vert-adv-y="563" d="M8 -95q96 15 150.5 58.5t87.5 129.5q64 161 64 311q0 34 -9.5 59.5t-22.5 39.5t-32 23.5t-32.5 12.5t-30 5t-18.5 3q22 3 38 3q57 0 104.5 -37t47.5 -104q0 -144 -64 -309q-48 -120 -150 -172q-8 -4 -17.5 -7.5t-17 -5.5t-18.5 -4t-17 -3t-17.5 -1.5t-15.5 -0.5 t-16.5 -0.5t-13.5 -0.5z" />
<glyph unicode="*" horiz-adv-x="346" vert-adv-y="563" d="M77 189l73 40l-68 47q1 1 7 6.5t12 10.5l63 -46q0 32 -8 81l15 -3t13 -2q1 -21 2.5 -42t1.5 -31q54 32 72 47q1 -3 5 -13t5 -13q-27 -19 -78 -45q36 -27 76 -46q-3 -3 -11 -10t-10 -9q-58 37 -59 38v-67l-8 1q-8 1 -15 3v20q0 33 1 53l-81 -41z" />
<glyph unicode="+" horiz-adv-x="353" vert-adv-y="563" d="M49 241q29 -1 122 -1q4 20 10.5 66t8.5 56q0 2 6.5 4t15 4.5t12.5 4.5l-25 -135h25q68 0 106 7q7 -8 16 -32q-51 -4 -75 -4q-4 0 -30.5 0.5t-46.5 0.5q-6 -42 -6 -56q0 -1 -2 -15t-3.5 -30t-1.5 -22q-18 -9 -35 -9q4 49 9 73q1 17 11 60q-15 0 -51 0.5t-56 0.5 q-2 0 -2.5 4.5t-2.5 11.5t-5 11z" />
<glyph unicode="," horiz-adv-x="168" vert-adv-y="563" d="M15 -80q6 9 15 21l13.5 18t8 14t3.5 15q0 19 -24 24q6 5 11.5 11t9 9t7.5 6.5t6 5.5t4 3.5t4 2t3 0.5q8 0 15 -9.5t7 -21.5q0 -17 -21 -43q-6 -8 -13 -15.5t-14.5 -14.5t-13 -11.5t-12.5 -10t-8 -6.5z" />
<glyph unicode="-" horiz-adv-x="375" vert-adv-y="563" d="M72 214q0 9 5 27q45 -1 169 -1q68 0 108 7q-4 -20 -7 -32q-51 -4 -75 -4q-6 0 -74.5 1.5t-125.5 1.5z" />
<glyph unicode="." horiz-adv-x="168" vert-adv-y="563" d="M49 4q0 37 28 37q7 0 13.5 -6.5t6.5 -13.5q0 -27 -27 -27q-18 0 -21 10z" />
<glyph unicode="/" horiz-adv-x="421" vert-adv-y="0" d="M20 -12q25 27 81.5 88t75.5 82t62 70.5t71 86.5t71 95t91 128l33 -26l-453 -550z" />
<glyph unicode="0" horiz-adv-x="433" vert-adv-y="563" d="M57 151q0 132 60.5 222.5t145.5 90.5q45 0 75.5 -26.5t30.5 -53.5q0 -41 -12 -48q-14 17 -21 52q0 61 -63 61q-80 0 -132 -97.5t-52 -228.5q0 -57 42.5 -84t86.5 -27q62 0 116 92t54 197q0 25 -6 39q-8 19 -8 24q0 1 0.5 4.5t0.5 5.5q0 5 -1 10t-1 6l1 1q43 -43 43 -111 q0 -36 -9.5 -80t-30 -91t-60.5 -78t-92 -31q-26 0 -54 8.5t-54 25.5t-43 47.5t-17 69.5z" />
<glyph unicode="1" horiz-adv-x="218" vert-adv-y="563" d="M57 171q48 65 87 127q14 18 55 146q4 21 20 21q14 0 14 -16v-1q0 -6 -7 -40t-23 -78.5t-34 -61.5q-38 -172 -38 -229q0 -21 5 -36q-8 -2 -23 -2q-3 0 -12 0.5t-19 0.5q1 31 9 74t17 76t17 61t8 30q-5 -4 -32 -32t-44 -40z" />
<glyph unicode="2" horiz-adv-x="501" vert-adv-y="563" d="M50 80q0 42 32 66.5t91 24.5q38 0 91 -27q127 162 153 207q20 33 20 49q0 39 -80 39q-83 0 -119 -45q-10 -14 -12 -35.5t-5 -30.5q-8 -10 -13 -10q-25 0 -25 8q4 48 39 79l10 9q9 8 11.5 10t12.5 8.5t19 9t22.5 6t30.5 5t38 1.5q50 0 78.5 -20t28.5 -44q0 -19 -26 -61.5 t-54.5 -78.5t-63 -77.5t-36.5 -44.5q26 -17 40 -33.5t16.5 -25.5t5.5 -14.5t9 -5.5q15 0 50 27.5t47 27.5q7 0 12.5 -5.5t6.5 -10.5l2 -6q0 -4 -2 -4q-27 -6 -69.5 -39t-53.5 -33q-13 0 -24 11t-11 25q0 39 -39 72q-90 -113 -150 -113q-47 0 -65 24t-18 55zM75 79 q0 -65 56 -65q46 0 125 117q-46 28 -79 28q-57 0 -79.5 -20t-22.5 -60z" />
<glyph unicode="3" horiz-adv-x="453" vert-adv-y="563" d="M57 146q0 28 10.5 40.5t22.5 12.5q20 0 20 -10q0 -1 -5.5 -6t-10 -17.5t-4.5 -32.5q0 -44 36.5 -81.5t98.5 -37.5q66 0 121.5 45t55.5 100q0 61 -73 94q-8 -8 -23 -8q-32 0 -32 24v2q1 9 17.5 13.5t35.5 8t34.5 20t15.5 46.5q0 34 -22 58.5t-60 24.5q-40 0 -64 -20 t-24 -42q0 -15 17 -20.5t17 -7.5q0 -8 -12 -8q-21 0 -35 11t-14 27q0 30 41 51t83 21q49 0 78.5 -30.5t29.5 -69.5q0 -21 -7 -37t-20.5 -27t-23 -16t-25.5 -11q109 -39 109 -116q0 -54 -51.5 -100t-143.5 -46q-85 0 -139 40t-54 105z" />
<glyph unicode="4" horiz-adv-x="450" vert-adv-y="563" d="M57 167q0 6 4 7q74 47 174.5 138t131.5 116q9 6 13.5 23.5t22.5 22.5q7 0 15.5 -5t8.5 -16q-33 -100 -70 -291q10 0 20.5 0.5t12.5 0.5q16 0 29.5 6t13.5 15q0 7 -11 7q-5 0 -11.5 -1t-10.5 -1q-6 0 -6 5q0 6 5 14.5t13 8.5q16 0 24.5 -10.5t8.5 -21.5q0 -46 -59 -46h-32 q-15 -85 -28 -133q-1 -6 -9 -6h-39q13 31 35 140q-151 2 -234 6q-10 0 -16 6.5t-6 14.5zM90 174q31 -11 227 -11q46 216 52 235q-19 -15 -120 -101t-159 -123z" />
<glyph unicode="5" horiz-adv-x="489" vert-adv-y="563" d="M57 133v1q0 19 21 19q20 0 20 -8q0 -1 -3.5 -10.5t-3.5 -20.5q0 -49 41.5 -74.5t96.5 -25.5q46 0 80.5 16t52 40t26 46.5t8.5 41.5q0 59 -46.5 106t-103.5 47q-65 0 -128 -58q-9 -3 -30 -3q6 23 19 61t22 67t9 43q0 2 -1 10.5t-1 13.5q0 30 19 30q6 0 11 -3t7.5 -6 t2.5 -4l-2 -5q-1 -5 -1 -8q52 -47 95 -47q44 0 90.5 19t78.5 38t42 19q8 0 8 -14q0 -17 -19.5 -34.5t-69 -32t-119.5 -14.5q-21 0 -43.5 8t-33 14.5t-33.5 22.5q-5 -20 -16 -57.5t-20 -65t-9 -28.5q43 48 125 48q70 0 129.5 -51t59.5 -118q0 -53 -51 -104.5t-146 -51.5 q-78 0 -131 37.5t-53 95.5z" />
<glyph unicode="6" horiz-adv-x="495" vert-adv-y="563" d="M57 128q0 60 20.5 137.5t37.5 106.5q11 19 19.5 30t30.5 29.5t60.5 28t91.5 9.5q58 0 108.5 -27t50.5 -77q0 -19 -12.5 -32t-24.5 -13q-21 0 -21 11q0 1 6.5 6t11.5 15.5t5 27.5q0 36 -36.5 55.5t-84.5 19.5q-36 0 -72.5 -12t-58.5 -33q-47 -46 -74 -182q65 85 165 85 q65 0 110.5 -42t45.5 -107q0 -39 -15 -69t-37.5 -47.5t-52 -28.5t-55.5 -15t-52 -4q-30 0 -57 6t-53 19t-41.5 39.5t-15.5 63.5zM100 138q0 -62 33 -93t81 -31q18 0 38.5 3.5t46.5 14t46.5 27.5t35 47t14.5 68q0 53 -31.5 87.5t-84.5 34.5q-61 0 -120 -47t-59 -111z" />
<glyph unicode="7" horiz-adv-x="347" vert-adv-y="563" d="M57 397q0 26 17.5 45t48.5 19q48 0 101 -32t84 -32q28 0 53 18q6 4 13.5 21t20.5 21q4 0 13.5 -5t9.5 -10q-1 -5 -4.5 -9.5t-9.5 -10t-8 -7.5q-29 -40 -30 -41q-106 -104 -156.5 -196.5t-50.5 -152.5v-16q0 -7 -2.5 -8t-15.5 -1h-36q16 65 39.5 120t42 88.5t53.5 73.5 t50.5 55t56.5 53q-32 -9 -47 -9q-35 0 -84.5 32t-86.5 32q-48 0 -48 -53q0 -17 5 -30t13 -13q5 0 5 7q0 2 -0.5 7t-0.5 9q0 7 3 7q4 0 12 -6.5t8 -11.5q0 -3 -1.5 -6.5t-7.5 -8t-15 -4.5q-15 0 -30 17t-15 38z" />
<glyph unicode="8" horiz-adv-x="447" vert-adv-y="563" d="M57 142q0 29 15.5 51.5t47 38t66 25.5t83.5 20q-32 12 -62 38.5t-30 58.5q0 29 38 60.5t78 31.5q45 0 82 -32.5t37 -73.5q0 -47 -90 -91q24 -8 45.5 -19t42 -35.5t20.5 -54.5q0 -57 -54.5 -108.5t-149.5 -51.5q-78 0 -123.5 40.5t-45.5 101.5zM86 123q0 -51 37 -79.5 t90 -28.5q77 0 125.5 51t48.5 101q0 61 -89 96q-69 -14 -113.5 -29.5t-65 -34.5t-27 -35.5t-6.5 -40.5zM206 376q0 -52 79 -94q96 34 96 83q0 33 -29 59t-64 26q-32 0 -57 -25t-25 -49z" />
<glyph unicode="9" horiz-adv-x="464" vert-adv-y="563" d="M57 130q0 14 4 24.5t10 15.5t11 7t8 2q21 0 21 -18q0 -1 -3 -4t-6.5 -7.5t-6 -16.5t-2.5 -29q0 -41 32.5 -63t71.5 -22q33 0 60.5 8.5t46 20t34 33t24 37.5t16.5 44.5t11 42.5t8 43q-65 -56 -150 -56q-36 0 -63.5 13.5t-43 35t-23 44.5t-7.5 45q0 62 52 100.5t134 38.5 q81 0 118 -36.5t37 -88.5q0 -34 -4 -71t-19.5 -88.5t-40.5 -90t-71.5 -66.5t-108.5 -28q-16 0 -37 5t-48.5 17t-46 40.5t-18.5 67.5zM146 320q0 -48 22.5 -81.5t73.5 -33.5q23 0 49 7t54 22.5t46.5 45t18.5 68.5q0 101 -109 101q-79 0 -117 -34.5t-38 -94.5z" />
<glyph unicode=":" horiz-adv-x="168" vert-adv-y="563" d="M49 4q0 37 28 37q7 0 13.5 -6.5t6.5 -13.5q0 -27 -27 -27q-18 0 -21 10zM50 187q0 37 28 37q7 0 13.5 -6.5t6.5 -13.5q0 -27 -27 -27q-18 0 -21 10z" />
<glyph unicode=";" horiz-adv-x="168" vert-adv-y="563" d="M15 -80q6 9 15 21l13.5 18t8 14t3.5 15q0 19 -24 24q6 5 11.5 11t9 9t7.5 6.5t6 5.5t4 3.5t4 2t3 0.5q8 0 15 -9.5t7 -21.5q0 -17 -21 -43q-6 -8 -13 -15.5t-14.5 -14.5t-13 -11.5t-12.5 -10t-8 -6.5zM50 187q0 37 28 37q7 0 13.5 -6.5t6.5 -13.5q0 -27 -27 -27 q-18 0 -21 10z" />
<glyph unicode="&#x3c;" horiz-adv-x="258" vert-adv-y="0" d="M21 285l196 121l21 -37q-106 -52 -181 -95l157 -254l-36 -23q-90 175 -157 288z" />
<glyph unicode="=" horiz-adv-x="365" vert-adv-y="563" d="M21 199q88 -2 183 -2q62 0 107 8q7 -10 15 -33q-38 -3 -74 -3q-7 0 -81.5 1t-131.5 1q-2 0 -4.5 5t-6.5 12t-7 11zM35 283q24 0 96.5 -0.5t86.5 -0.5q62 0 107 8q11 -16 15 -33q-51 -4 -74 -4q-7 0 -82 1.5t-131 1.5q-1 0 -4 5t-7 12t-7 10z" />
<glyph unicode="&#x3e;" horiz-adv-x="281" vert-adv-y="0" d="M21 29l210 214q-45 42 -157 134l30 30l164 -161q-88 -91 -216 -246z" />
<glyph unicode="?" horiz-adv-x="360" vert-adv-y="563" d="M51 492q9 87 120 87q170 0 170 -151q0 -86 -109 -129q-8 -3 -21 -8.5t-19.5 -8.5t-17 -7.5t-15.5 -7t-12 -6.5t-10.5 -7.5t-7 -7.5t-5 -8t-1.5 -9q0 -10 5.5 -30t5.5 -28q0 -3 -8 -3q-11 0 -27 4t-16 7q7 54 35 86q13 16 89 50q40 20 65 54t25 59q0 139 -120 139 q-43 0 -69 -21t-26 -54q0 -17 22 -27t22 -11q0 -2 -6 -5t-11 -3t-25 6q-33 11 -33 40zM69 4q0 37 29 37q7 0 13 -6.5t6 -13.5q0 -27 -26 -27q-19 0 -22 10z" />
<glyph unicode="@" horiz-adv-x="465" vert-adv-y="563" d="M25 164q0 93 58 154t146 61q91 0 151.5 -52.5t60.5 -146.5q0 -40 -34 -77.5t-97 -37.5q-16 0 -27.5 9.5t-11.5 29.5v2q-3 -3 -6 -6.5t-5 -6t-6 -5.5t-9 -6q-26 -14 -45 -14q-40 0 -55.5 25t-15.5 53q0 45 36.5 85t88.5 40q18 0 35 -9.5t17 -16.5q7 13 19 13t12 -15 l-34 -92q-16 -40 -16 -54q0 -22 27 -22q32 0 67 27.5t35 80.5q0 78 -44 132t-142 54q-84 0 -132.5 -55t-48.5 -151q0 -87 52 -140.5t132 -53.5q48 0 81.5 13t53.5 30.5t51 55.5l1 1q-2 -4 -5.5 -11.5t-18.5 -26.5t-34.5 -33.5t-53.5 -26.5t-75 -12q-87 0 -147.5 57.5 t-60.5 147.5zM159 139q0 -34 10.5 -50t22.5 -16q54 4 85 77q3 7 6.5 13t5 10.5t3.5 16.5v-1q-1 -1 -1.5 -2.5t-2.5 -3t-5.5 -4t-8 -5.5t-13 -6.5t-18.5 -6.5q46 24 46 61q0 19 -9.5 30.5t-22.5 11.5q-33 0 -65.5 -43.5t-32.5 -81.5z" />
<glyph unicode="A" horiz-adv-x="816" vert-adv-y="563" d="M42 124q0 23 16 41t48 18q64 0 86 -64q7 -19 7 -28q-6 -10 -21 -10q-12 0 -17 6v28q0 28 -13.5 42.5t-35.5 14.5q-19 0 -29 -20t-10 -46q0 -27 16 -47t40.5 -29.5t46.5 -14t41 -4.5q32 0 53 5t43.5 17.5t51 43.5t62.5 71.5t93 113.5q16 21 25 32q-50 39 -117 78t-96 39 q-27 -1 -46.5 -17.5t-19.5 -41.5q0 -38 13 -64t33.5 -37t35.5 -14.5t29 -3.5q6 1 7.5 4t1.5 8.5t1 7.5q3 2 10 2q15 0 15 -12q0 -18 -31 -18q-65 0 -107 42t-42 92q0 34 23 50t58 16q30 0 69 -16t64 -31.5t64 -42.5t43 -29q17 23 58.5 87.5t62.5 102.5q6 13 13.5 37.5 t16.5 35.5q14 12 27 12q16 0 28 -10t12 -23q0 -10 -15 -39t-30 -53l-15 -24q-32 -55 -32 -145q0 -30 3 -48q1 0 7 -1.5t17 -1.5q19 0 28.5 9t10.5 19.5t6.5 19.5t16.5 9q7 0 12.5 -7.5t5.5 -17.5q0 -17 -15.5 -31.5t-43.5 -14.5q-19 0 -45 7q1 -6 7.5 -38.5t9.5 -58t3 -55.5 q6 -6 20.5 -37t30.5 -31q28 0 62 62l1 -1q-13 -35 -31.5 -52.5t-33.5 -17.5t-24 10t-16 27.5t-11 22.5q-4 -15 -6.5 -22t-9.5 -18t-20.5 -15.5t-33.5 -4.5q-36 0 -53.5 16.5t-17.5 41.5q0 23 14 41.5t47 18.5q31 0 49 -15v1q0 61 -19 133q-39 15 -77 40 q-87 -119 -145 -179.5t-97 -79t-90 -18.5q-59 0 -101 12.5t-62 33t-28 39.5t-8 39zM581 287q27 -17 67 -36q-2 12 -2 46q0 53 5 80q-2 -2 -13.5 -17t-29.5 -38t-27 -35zM584 51q0 -16 11 -27.5t33 -11.5q7 0 13 3t10 7t7 10.5t5 12t3 13t1.5 11.5t0.5 10l1 6q-18 17 -39 18 h-2q-23 0 -33.5 -17.5t-10.5 -34.5z" />
<glyph unicode="B" horiz-adv-x="966" vert-adv-y="563" d="M85 611q0 77 98 77q55 0 133.5 -31.5t154 -63t123.5 -31.5q33 0 71 10t64 10q39 0 70.5 -20t49.5 -50t27 -61t9 -58q-1 -29 -16.5 -60.5t-32.5 -47.5q39 -23 60.5 -71t21.5 -100q0 -18 -5 -34.5t-17.5 -36t-41 -31.5t-69.5 -12q-39 0 -78 26q-19 14 -36.5 41t-17.5 34 q0 8 11 8q10 0 24 -6q6 -4 14.5 -28.5t27.5 -43t57 -18.5q22 0 34 2t26.5 11.5t21 31.5t7.5 59q0 89 -65 147q-39 -30 -93 -30q-42 0 -79 36q-3 -6 -25 -42t-60.5 -89t-65.5 -77q-53 -42 -81 -52t-80 -10q-91 0 -139 41t-48 90q0 21 13 38.5t46 17.5q25 0 44 -7.5t28.5 -18 t15.5 -24t7.5 -22t1.5 -15.5q0 -14 -21 -14q-17 0 -17 13v21q0 21 -14.5 39.5t-38.5 18.5q-36 0 -36 -50q0 -35 18 -59.5t45 -35.5t47 -15t35 -4q43 0 80.5 18.5t87.5 75.5q36 41 117 181q26 48 46 97.5t38.5 108t20.5 62.5q-75 -11 -102 -11q-61 0 -141.5 30.5t-153.5 61 t-117 30.5q-38 0 -56 -17t-18 -43q0 -82 113 -148q60 -31 105 -31q22 0 47.5 15t37.5 19q51 0 77 -24q-9 -10 -44 -17.5t-81 -7.5q-98 0 -182 51q-56 35 -80 78.5t-24 67.5zM658 309q25 17 62 17t77 -19q42 43 42 95q0 32 -14 71.5t-39 60.5q-27 22 -76 22q1 -1 8 -5.5 t13 -11.5t9 -18q-18 -52 -33.5 -92.5t-24 -60t-14.5 -33t-8 -18.5t-2 -8zM695 277q10 -5 17 -5q32 0 48 14q-5 5 -23 5h-12t-9 -1t-6.5 -1.5t-5 -2.5t-3 -2.5l-3.5 -3.5z" />
<glyph unicode="C" horiz-adv-x="524" vert-adv-y="563" d="M57 309v1q9 1 26.5 3t25 3t23 4t27.5 7t30 11.5t39 17.5q7 8 59.5 69.5t80.5 81.5q101 74 159 74q29 0 29 -20v-5q0 -6 -6.5 -13t-32 -26t-81.5 -56q-18 -12 -62 -41t-67 -45t-39 -30q-19 -17 -46.5 -79t-27.5 -102q0 -65 42 -107.5t141 -42.5q46 0 66.5 23t20.5 52 q0 26 -10 42.5t-26 16.5h-8l-4 -1q-1 0 -1 2q0 4 6.5 8t17.5 4q25 0 47 -22t22 -55q0 -31 -29 -57.5t-102 -26.5q-101 0 -164.5 50t-63.5 103q0 84 67 178q-76 -18 -159 -22zM311 399l20 13q20 14 47 32.5t39 26.5q91 61 101 74q-68 -17 -129 -62q-13 -9 -32.5 -30 t-32.5 -37z" />
<glyph unicode="D" horiz-adv-x="843" vert-adv-y="563" d="M99 613q0 14 4.5 34t14.5 46t31.5 50.5t50.5 38.5q41 20 107 20q38 0 69 -4.5t80.5 -19.5t105 -52t111.5 -94q71 -74 114 -170q36 -79 36 -209q0 -22 -6.5 -52.5t-21.5 -66t-36 -65.5t-54 -50t-71 -20q-55 0 -146 68q-35 -66 -73 -66q-28 0 -49.5 24t-30 51t-8.5 47 q0 19 8 32t24 13h11.5t9.5 -1t7.5 -1.5t7.5 -3.5t8.5 -5t10.5 -8t13 -11t17.5 -15t22.5 -19q36 91 86 242.5t55 206.5q38 -2 38 -29q0 -5 -24.5 -88.5t-62.5 -193t-65 -161.5q88 -66 140 -66q47 0 97.5 78.5t50.5 184.5q0 81 -24 156q-24 76 -91 159q-40 51 -85.5 89.5 t-81.5 58t-72.5 31t-55 14t-32.5 2.5q-47 0 -70.5 -6t-53.5 -22q-29 -16 -51 -65t-22 -87q0 -77 67.5 -145t118.5 -68q43 0 43 41q0 12 -10 28t-14 35q0 35 34 35q21 0 29.5 -18t8.5 -39q0 -32 -21 -70q-13 -27 -55 -27q-71 0 -158 77.5t-87 155.5zM362 120q0 -25 13 -66 t40 -41q25 0 47 76q-9 8 -24 21q-50 43 -57 43q-19 0 -19 -33z" />
<glyph unicode="E" horiz-adv-x="492" vert-adv-y="563" d="M42 199q0 50 32.5 92t94.5 65q-6 27 -6 63q0 16 3 34t13 41.5t25 42t43.5 31.5t64.5 13q38 0 65.5 -14t39.5 -34.5t16.5 -35t4.5 -23.5q0 -25 -15 -36.5t-32 -11.5q-34 0 -34 10q0 4 4 5t11.5 0.5t12.5 1.5q25 9 25 38q0 44 -25.5 62.5t-57.5 18.5q-39 0 -65.5 -17.5 t-38.5 -45.5t-16.5 -51.5t-4.5 -47.5q0 -22 2 -33q38 15 75 15q44 0 70.5 -20.5t26.5 -51.5q0 -44 -26 -62.5t-62 -18.5q-7 0 -14 1t-12.5 2.5t-11 4t-9 4.5t-8.5 6t-6.5 5t-6 5.5l-5.5 5.5q-25 24 -43 81q-34 -18 -55.5 -55.5t-21.5 -77.5q0 -26 4 -50.5t16 -52t31 -47.5 t52 -33.5t76 -13.5q14 0 30 3t40.5 13t46 35.5t32.5 62.5q-9 36 -9 58q0 3 1 4q0 8 43 8q4 0 4 -14q0 -48 -16 -80v-13q0 -44 17 -44q14 0 28 24l1 -1q0 -1 -4.5 -8.5t-11 -15.5t-11.5 -8q-31 0 -34 42q-56 -80 -158 -80q-95 0 -163 52t-68 147zM204 356q5 -33 16 -55 q16 -32 30.5 -47t36.5 -15q27 0 41 27t14 51q0 55 -63 55q-40 0 -75 -16z" />
<glyph unicode="F" horiz-adv-x="794" vert-adv-y="563" d="M85 615q0 33 26.5 53t73.5 20q42 0 111.5 -32t146 -64t134.5 -32q57 0 105 4q33 3 105.5 20t98.5 17q47 0 89 -12t42 -39q0 -3 -1.5 -8.5t-6.5 -12t-12 -6.5q-13 0 -23 7.5t-19.5 16.5t-39 16.5t-76.5 7.5q-21 0 -70.5 -13t-81.5 -15l7 -4q7 -4 13 -11t10 -18 q-32 -102 -78 -233q63 -24 86 -24q17 0 28.5 5.5t16 11t11 18t10.5 17.5q18 -16 22 -27q-31 -41 -82 -41q-9 0 -17.5 1t-19 4t-16.5 5t-21.5 8t-23.5 9q-5 -11 -22 -53t-36.5 -79t-45.5 -68q-52 -64 -184 -64q-71 0 -120 41t-49 90q0 58 62 58q25 0 44 -12t28 -29.5t13 -31 t4 -21.5q-15 -11 -23 -11q-13 0 -19 6q1 8 1 22q0 59 -46 59q-15 0 -25.5 -15.5t-10.5 -42.5q0 -38 44.5 -68.5t95.5 -30.5q52 0 90 18t80 78q14 20 26 45t18.5 41t16.5 44t13 36q-6 2 -11 2q-17 0 -26 -12t-13 -24.5t-9 -12.5t-12 5.5t-10 6.5q7 23 18.5 39.5t24.5 17.5 q24 0 44 -8q17 40 39 103t35 107l14 43q-72 -3 -77 -3q-58 0 -122.5 20.5t-110.5 45.5t-97 45.5t-85 20.5q-32 0 -54 -17t-22 -44q0 -74 65.5 -127t149.5 -53q21 0 46 16t35 20q2 0 9 -0.5t11 -0.5t12 -1.5t14.5 -4t14.5 -7.5t15 -11q-9 -10 -43 -18t-80 -8q-68 0 -121 18 t-81.5 43t-46.5 55t-23.5 50t-5.5 33z" />
<glyph unicode="G" horiz-adv-x="585" vert-adv-y="563" d="M42 -289q0 57 53 57q44 0 78 -34q6 -6 21 -35q6 -10 8 -25l-2 -2q-3 -2 -5.5 -4t-7 -3.5t-9.5 -1.5q-11 0 -17 7q0 6 1 15.5t1 13.5q0 16 -12 35q-4 9 -17.5 15t-25.5 6q-14 0 -23.5 -21t-9.5 -45q0 -44 48 -73q50 -29 97 -29q30 0 62 18q33 20 68 102t69.5 190.5 t49.5 141.5q-1 -1 -8 -5.5t-10 -6.5t-11 -6.5t-13.5 -6.5t-15 -5.5t-19 -5t-22 -2.5t-25.5 -1q-33 0 -65 10t-63 31.5t-50 64t-19 99.5q0 89 16.5 144.5t49.5 108.5q8 13 24 30.5t42.5 40t65 37.5t78.5 15q80 0 116.5 -36t36.5 -72q0 -13 -15 -58q-15 -39 -34.5 -73 t-37.5 -54t-33.5 -34t-24.5 -20l-9 -5q-5 13 -5 15q0 4 2 6q9 6 22.5 19t44.5 56.5t49 93.5q9 27 9 54q0 36 -22 61.5t-75 25.5q-49 0 -90 -19t-68.5 -50t-44.5 -60t-28 -59q-1 -4 -5 -17t-5 -17t-4 -15.5t-4 -18t-3.5 -19t-3.5 -23.5t-2.5 -25.5t-2.5 -31.5t-2 -36 q0 -35 11.5 -63t29 -44.5t40 -27.5t42 -15t37.5 -4q82 0 139 95q27 51 40 92q6 16 11.5 32.5t6.5 20.5q6 11 17 11q9 0 17.5 -9t8.5 -25q-1 -12 -3.5 -22t-4.5 -15t-6.5 -16t-7.5 -17q-3 -9 -24 -45q-21 -47 -83 -220.5t-71 -194.5q-31 -75 -67 -101q-16 -11 -44.5 -19.5 t-53.5 -8.5q-45 0 -102 32q-76 43 -76 106z" />
<glyph unicode="H" horiz-adv-x="843" vert-adv-y="563" d="M85 128q0 25 16.5 44.5t44.5 19.5q41 0 66.5 -29t25.5 -62q-9 -10 -21 -10q-13 0 -18 7q0 11 3 19.5t3 14.5q0 14 -10 29q-11 19 -40 21q-18 0 -29.5 -22.5t-11.5 -53.5q0 -26 36 -58.5t94 -32.5q40 0 63 12.5t54 57.5q19 26 114 245q-69 32 -113 32q-34 0 -53 -21 t-19 -39q0 -23 14 -49t32 -26q2 0 4 0.5t4 0.5q9 1 9 16v3q0 11 13 11q15 0 15 -11q0 -6 -14 -17t-26 -11q-27 0 -53.5 25t-26.5 52q0 16 7 37q9 19 33.5 31t50.5 12q54 0 128 -34l51 129q-2 -1 -21.5 -12.5t-33.5 -16t-30 -4.5q-53 0 -90 15.5t-53.5 34t-43 34t-60.5 15.5 q-43 0 -62 -35t-19 -79q0 -54 22 -57q10 0 11 39q0 10 5 10q6 0 16 -7.5t10 -12.5q0 -15 -12 -25.5t-27 -10.5q-21 0 -39.5 25.5t-18.5 57.5q0 36 30 74.5t81 38.5q30 0 55.5 -10.5t44 -25t37.5 -29t44.5 -25t55.5 -10.5q17 0 36.5 8.5t31 15.5t39.5 27q8 8 24 40t32 35 q14 -2 18 -6.5t4 -14.5q0 -17 -24 -43q-10 -11 -17 -27.5t-24.5 -62t-42.5 -100.5l132 -73q44 100 142 269q32 57 64 57q20 0 34.5 -26.5t14.5 -63.5q0 -10 -9 -10q-14 0 -14 21v13q0 33 -17 40h-7t-5.5 -1.5t-4 -2t-4 -4t-3.5 -5.5t-4.5 -8t-6.5 -10q-4 -5 -29 -50 t-61.5 -115t-57.5 -117q60 -23 83 -23q19 0 40 17q1 4 3 15.5t3.5 15.5t7 9t15.5 5q18 0 18 -27q0 -19 -17.5 -34t-54.5 -15q-44 0 -104 25q-33 -74 -33 -101q0 -55 32 -84.5t80 -29.5q7 0 13 2t11 6.5t9 8.5t8 11.5t6 10.5t6 11t4 9q2 1 4 1q4 0 11 -7.5t12 -7.5q4 0 12 12 l1 -1q-42 -70 -97 -70q-59 0 -100.5 34t-41.5 100q0 11 4 27t7 25.5t11 30t10 24.5q-25 13 -62 34.5t-71 39.5q-16 -35 -43 -94t-45 -97.5t-24 -48.5q-17 -26 -36.5 -43t-40 -23t-33 -7.5t-30.5 -1.5q-69 0 -118 40.5t-49 87.5z" />
<glyph unicode="I" horiz-adv-x="500" vert-adv-y="563" d="M85 453q0 39 28.5 70.5t74.5 31.5q38 0 70.5 -17t60.5 -39.5t44 -28.5q31 -13 65 -13q46 0 108 49q11 8 22 38.5t31 36.5q8 0 16.5 -6t8.5 -15q-4 -28 -11 -43q-26 -54 -70 -177.5t-81 -210t-64 -101.5q-51 -28 -98 -28q-76 0 -126.5 42.5t-50.5 96.5q0 23 22.5 37.5 t48.5 14.5q31 -1 52.5 -22t28 -40t6.5 -31q-6 -12 -22 -12q-10 0 -17 7q-1 4 -1 14q0 71 -47 71q-18 0 -28 -15t-10 -37q0 -35 18.5 -60t46 -35t46 -13.5t31.5 -3.5q44 0 63 17q31 28 65.5 114t68.5 191t46 133q-4 -2 -10.5 -5t-9 -4.5t-7.5 -4t-7.5 -3.5t-7 -2.5l-7.5 -2.5 t-7.5 -2t-8 -1t-8.5 -0.5t-10 -0.5q-44 0 -77 10t-52 24t-36 28.5t-40 24.5t-52 10q-23 0 -38.5 -12.5t-21.5 -31t-8 -31t-2 -22.5q0 -19 6.5 -44t19.5 -25q8 0 8 16q0 4 -0.5 11t-0.5 11q0 11 4 11q6 0 18 -9.5t12 -17.5q0 -11 -10 -23.5t-27 -12.5q-21 0 -43.5 29 t-22.5 64z" />
<glyph unicode="J" horiz-adv-x="562" vert-adv-y="563" d="M42 -280q0 23 22 37.5t48 14.5q32 -1 53.5 -21.5t28 -39.5t6.5 -32q-8 -12 -22 -12q-10 0 -17 7q-1 4 -1 14q0 71 -48 71q-17 0 -27.5 -15t-10.5 -37q0 -35 18.5 -60t46.5 -35t46.5 -13.5t31.5 -3.5q44 0 62 18q31 28 99.5 218.5t135.5 399.5t79 238q-31 -16 -46.5 -21 t-40.5 -5q-53 0 -91 15t-55.5 33.5t-45 33.5t-61.5 15q-23 0 -38.5 -12.5t-21.5 -31t-8 -31t-2 -22.5q0 -20 6 -44.5t20 -24.5q8 0 8 16q0 4 -0.5 11t-0.5 11q0 11 4 11q6 0 17.5 -9.5t11.5 -17.5q0 -11 -9.5 -23.5t-26.5 -12.5q-21 0 -44 29t-23 64q0 39 29 70.5t75 31.5 q37 0 68.5 -15.5t51 -33.5t51 -33.5t67.5 -15.5q48 0 110 49q10 8 20.5 38.5t31.5 36.5q8 0 17 -6t9 -15q-5 -28 -12 -43q-26 -55 -102.5 -282t-147.5 -418.5t-98 -207.5q-39 -23 -66 -26q-14 -2 -32 -2q-65 0 -120.5 43.5t-55.5 95.5z" />
<glyph unicode="K" horiz-adv-x="810" vert-adv-y="563" d="M85 421q0 31 26 63.5t77 32.5q34 0 68 -15t57 -32.5t53.5 -32.5t57.5 -15q18 0 36 12t44 35t43 35q7 7 20 38t31 36q22 -4 22 -20q0 -19 -22 -44q-17 -21 -30 -75q-2 -8 -12.5 -47t-12.5 -49q11 0 25 -9q56 58 211 250q81 104 174 104q34 0 58 -7t35 -17.5t15.5 -19 t4.5 -16.5q0 -42 -52 -42q-32 0 -60 13q7 -2 27 -2q52 0 52 38q0 40 -68 40q-70 0 -123 -62q-32 -36 -134.5 -161.5t-115.5 -139.5q4 -3 7.5 -8t6.5 -13t5.5 -14.5t5 -18t4 -19t3.5 -21.5t3 -21.5t3.5 -23.5t3.5 -23q19 -136 57 -136q25 0 41 15q2 2 5.5 6.5t6 7t6.5 5 t9 2.5h13q17 0 23.5 4.5t14.5 16.5l1 -1q-26 -46 -49 -58t-66 -12q-44 0 -65.5 39t-31.5 104q-3 17 -6.5 44.5t-5.5 43.5t-7 32t-11 23l-11 -16q-11 -16 -26.5 -34.5t-33.5 -35.5q-3 -3 -9.5 -8.5t-10.5 -9t-8.5 -9.5t-8.5 -13q-39 -77 -60 -139q-5 -19 -24 -19 q-15 0 -29 11.5t-14 28.5q0 8 3 14q5 10 45.5 62t51.5 64q19 43 31 60q28 39 47 118.5t30 108.5q-9 -3 -50 -33.5t-69 -30.5q-33 0 -73.5 24t-82 48t-79.5 24q-68 0 -68 -92q0 -25 7 -46t20 -21q9 0 9 13q0 5 -1.5 14t-1.5 12q0 4 3 7q9 0 17 -5t10.5 -9t3.5 -7 q0 -15 -8 -24.5t-15.5 -12t-15.5 -2.5q-21 0 -42 30t-21 63zM531 292q2 2 10 11t10 11l-2 3q-2 3 -4 4.5t-5 1.5q-8 -29 -9 -31z" />
<glyph unicode="L" horiz-adv-x="664" vert-adv-y="563" d="M42 104q0 20 7 38t24.5 37t55 30t91.5 11q96 0 156 -32l65 126q-10 -7 -33.5 -18.5t-27.5 -11.5q20 15 70 50q4 7 20 38.5t21 39.5q67 111 122 147q38 22 64 22q20 0 20 -31q0 -25 -40 -63.5t-88 -75.5t-56 -47q-7 -12 -42.5 -85.5t-54.5 -108.5q41 -27 67 -56t33 -48 t15.5 -31.5t20.5 -12.5q20 0 35 15q15 13 24 13h14q11 0 18 3t10 6t10 12l1 -1q-26 -46 -47.5 -58t-65.5 -12q-24 0 -36.5 13t-18 32.5t-29 49t-63.5 55.5q-87 -150 -226 -150q-55 0 -95.5 29.5t-40.5 74.5zM89 88q0 -31 22 -51.5t60 -20.5q29 0 60 16.5t52.5 36t43 46 t28.5 37.5t12 19q-55 33 -127 33q-22 0 -44 -4.5t-48 -15.5t-42.5 -36t-16.5 -60zM532 400q20 17 52 44q72 59 85.5 74t13.5 34q0 8 -8 8q-33 -7 -57 -32t-48 -65q-7 -12 -22 -36.5t-16 -26.5z" />
<glyph unicode="M" horiz-adv-x="1241" vert-adv-y="563" d="M85 589q0 38 21.5 68.5t61.5 30.5q25 0 50.5 -11.5t42.5 -24.5t57.5 -48t69.5 -58q72 -58 111 -58q16 0 78 35t104 46q43 12 83 12q22 0 38 -3t37.5 -13.5t36.5 -35.5t23 -64q88 68 116 83q62 33 167 33q19 0 47 -6.5t60 -6.5q26 0 27 -15q-7 0 -34 -6q-29 -6 -44 -10 t-45.5 -19t-56.5 -37l-4 -5q-5 -6 -13 -15.5t-18 -22.5t-21.5 -30.5t-23 -36.5t-21.5 -42t-18 -46.5t-12.5 -50t-4.5 -51.5q0 -99 28 -133.5t93 -34.5q26 0 42.5 18.5t25.5 18.5h13q11 0 18.5 3.5t9.5 5t11 12.5v-1q-23 -41 -45.5 -56t-53.5 -15q-2 0 -7.5 0.5t-8.5 0.5 q-85 0 -124.5 43.5t-39.5 146.5q0 45 14 92t34 83t40 65.5t34 45.5l14 15q54 50 155 71q-21 3 -69 3q-92 0 -167.5 -49.5t-129.5 -121.5q-4 -13 -10.5 -34.5t-27.5 -79.5t-42 -107t-51 -99.5t-57 -73.5q-28 0 -38 3.5t-10 14.5q0 50 50 147t100 169l50 72q14 42 14 67 q0 96 -94 96q-28 0 -84 -26q9 -9 9 -22q-3 -11 -8.5 -31t-27 -76.5t-47.5 -109.5t-71.5 -118.5t-97.5 -113.5q-60 -48 -89 -60t-84 -12q-96 0 -158 90q-16 23 -16 60q0 17 14.5 34.5t47.5 17.5q35 0 58 -22.5t29.5 -42.5t6.5 -32q-8 -8 -22 -8q-13 0 -16 6q-1 5 -2 22 t-3 28.5t-13 22.5t-32 13q-17 0 -27.5 -22t-10.5 -46q0 -40 48 -73.5t96 -33.5q45 0 79.5 21.5t88.5 83.5q44 52 81.5 112.5t60 110.5t38.5 93t22 67l6 24q-18 -6 -49 -19.5t-55.5 -22.5t-36.5 -9q-11 0 -23 2.5t-21.5 5.5t-21.5 9.5t-18.5 10t-19 12.5t-16 11.5t-15 12.5 t-12.5 10t-16.5 14.5t-35.5 32t-44 35.5t-49 30t-42 12q-16 0 -27.5 -11.5t-17 -28t-7.5 -29.5t-2 -23q0 -37 15.5 -66t38.5 -29q11 0 15 9l27 -8q0 -1 -5.5 -14t-10.5 -21.5t-9 -8.5q-45 0 -74.5 47t-29.5 99zM701 57q33 48 60 96q12 23 32.5 74.5t24.5 70.5 q-2 -4 -31.5 -53.5t-36.5 -60.5q-10 -19 -27.5 -63t-21.5 -64z" />
<glyph unicode="N" horiz-adv-x="867" vert-adv-y="563" d="M42 129q0 25 13.5 39.5t25 17.5t21.5 3q78 0 92 -88q0 -13 -19 -13q-12 0 -20 6q2 14 2 24q0 54 -47 54q-25 0 -31.5 -15.5t-6.5 -45.5q0 -39 50.5 -67t95.5 -28q28 0 47.5 3.5t57 26.5t71 65t79 127t91.5 205q-1 -1 -21.5 -18.5t-38 -27.5t-34.5 -10q-30 0 -51 15 t-35 37t-29 44t-41 37t-63 15q-45 0 -65.5 -22t-20.5 -56q0 -33 14.5 -63t30.5 -30q24 0 33 10t9 20.5t3 10.5q5 0 13 -8t8 -18q0 -27 -56 -27q-39 0 -66 31.5t-27 71.5q0 51 37.5 72t83.5 21q45 -1 76.5 -16.5t47.5 -37t28.5 -42.5t29 -36t39.5 -15q17 0 54.5 27.5 t51.5 46.5q7 17 10.5 27.5t5.5 19t2.5 10.5t1 11t0.5 13q2 9 10 17t16 8q11 0 18 -5t8.5 -9t1.5 -7t-7 -24q0 -23 7.5 -45.5t20 -47.5t41.5 -90t61 -145q37 219 109 348.5t144 131.5q53 0 79 -9.5t42 -34.5q1 -2 13 -17q-1 -5 -10 -8t-15 -3t-9.5 2t-6 5.5t-7.5 11t-11 14.5 q-19 25 -58 25q-31 0 -66 -35.5t-68 -100.5t-60.5 -168t-40.5 -226q8 -64 8 -69q0 -30 -13 -52.5t-26 -22.5t-27.5 13t-14.5 38q0 13 27 98l-144 309q-4 -5 -14 -34t-26 -69t-38 -88.5t-53.5 -95t-69 -85.5t-88.5 -62.5t-108 -23.5q-75 0 -126.5 41.5t-51.5 87.5z" />
<glyph unicode="O" horiz-adv-x="521" vert-adv-y="563" d="M63 192q0 168 77.5 278t188.5 110q58 0 102.5 -39t44.5 -75q0 -27 -25 -93t-55 -107q-10 -13 -28 -24t-32 -16l-13 -4h-2v7q0 7 9 10.5t24.5 11t26.5 20.5q25 28 43 87.5t18 119.5q0 26 -11 44.5t-28 26t-29.5 10.5t-23.5 3q-78 0 -135.5 -57.5t-84.5 -147.5t-27 -199 q0 -51 32 -85.5t68 -46.5t70 -12q44 0 83.5 27.5t65 68t44 87.5t27 85t8.5 62q0 47 -14 75q-8 16 -8 30q0 2 0.5 7t0.5 8q0 1 -0.5 4.5t-0.5 5.5q0 1 -0.5 3.5t-0.5 3.5l1 2q18 -17 27 -27.5t20.5 -40.5t11.5 -68q0 -36 -7 -78t-26 -91t-46 -87.5t-72.5 -64.5t-101.5 -26 q-34 0 -71 11t-71.5 32t-57 60t-22.5 89z" />
<glyph unicode="P" horiz-adv-x="848" vert-adv-y="563" d="M85 615q0 31 27.5 52t62.5 21q41 0 82 -16t97 -42.5t108 -41.5q60 -19 124 -19q28 0 70.5 5.5t65.5 5.5q71 0 117.5 -57.5t46.5 -146.5q0 -36 -10 -66.5t-40 -55.5t-78 -25q-56 0 -125 37q-39 -73 -70 -115q5 -3 21.5 -12t23.5 -13t20.5 -13t20 -15.5t14.5 -15.5 t11.5 -18.5t3.5 -19.5q0 -27 -16 -35.5t-46 -8.5q-12 0 -26 8.5t-22.5 17.5t-8.5 11q3 -1 11.5 -7t20.5 -11t26 -5q44 0 44 29q0 12 -4.5 21t-29.5 28t-74 44q-67 -85 -113 -110.5t-94 -25.5h-23q-48 0 -85 11t-55.5 26t-30 32.5t-14 27t-2.5 13.5q0 15 10 36q13 28 51 47.5 t98 19.5q35 0 65.5 -3t57.5 -10t40.5 -11t38 -13.5t27.5 -10.5q33 49 60 98t46.5 97t29.5 75.5t23 71.5t14 46q-22 -2 -54 -2q-82 0 -157 15q-57 15 -157 60.5t-137 45.5q-30 0 -53.5 -16t-23.5 -45q0 -49 40.5 -91.5t90.5 -63t89 -20.5q24 0 50.5 16t40.5 16q42 0 70 -24 q-9 -11 -47.5 -18t-78.5 -7q-117 0 -201 65t-84 131zM159 120q0 -96 147 -106q2 0 18.5 1t20.5 2t18.5 3.5t21 6.5t21 11t24.5 16.5t24.5 23t29.5 32t31 41.5q-51 20 -70.5 26.5t-57 14t-78.5 7.5q-57 0 -83 -8t-48 -29q-19 -18 -19 -42zM642 282q10 -4 25 -10.5t23.5 -9.5 t20.5 -6t23 -3q16 0 32 3.5t36.5 14t33.5 36t13 62.5q0 18 -3 39t-12.5 47.5t-24.5 47.5t-42.5 35.5t-63.5 14.5q1 -1 8 -5t13.5 -10.5t9.5 -16.5q-21 -61 -30.5 -88.5t-19 -52t-12 -29.5t-13 -28.5t-17.5 -40.5z" />
<glyph unicode="Q" horiz-adv-x="515" vert-adv-y="563" d="M63 192q0 168 77.5 278t188.5 110q58 0 102.5 -39t44.5 -75q0 -27 -25 -93t-55 -107q-10 -13 -28 -24t-32 -16l-13 -4h-2v7q0 7 9 10.5t24.5 11t26.5 20.5q24 27 39.5 86t15.5 121q0 27 -10 45t-25.5 25.5t-27.5 10.5t-23 3q-78 0 -135.5 -57.5t-84.5 -147.5t-27 -199 q0 -51 32 -85.5t68 -46.5t70 -12q45 0 84 25t65 63t44.5 83.5t27 86.5t8.5 72q0 52 -14 75q-9 16 -9 30q0 2 0.5 7t0.5 8q0 1 -0.5 4.5t-0.5 5.5q0 1 -0.5 3.5t-0.5 3.5l1 2q18 -17 27 -27.5t20.5 -40.5t11.5 -68q0 -36 -7 -78t-26 -91t-46 -87.5t-72.5 -64.5t-101.5 -26 q-35 -43 -38 -50q2 -2 5 -2t10 4t22.5 8.5t38.5 4.5q79 0 129 -33q10 -7 28 -20.5t29 -19.5q0 -6 -4.5 -11t-9.5 -7l-5 -2q-3 0 -15.5 9t-33.5 24t-39 25q-39 20 -84 20q-28 0 -46 -6t-30 -14.5t-17 -10.5q-2 6 -2 9q0 10 13 29t14 24q-4 3 -7 5.5t-5 4.5t-3.5 3t-2 3 t-0.5 2.5t-0.5 3t-0.5 3.5q-69 15 -118.5 61.5t-49.5 124.5z" />
<glyph unicode="R" horiz-adv-x="978" vert-adv-y="563" d="M85 616q0 31 26.5 51.5t64.5 20.5q37 0 114 -34t161 -68t137 -34q30 0 68.5 5.5t63.5 5.5q70 0 120 -49.5t50 -129.5q0 -43 -32 -77t-76 -49q15 -22 23 -85t18.5 -111t35.5 -48t40 15q1 1 6.5 8t10 10t11.5 3h13q11 0 19 3.5t10.5 6t8.5 11.5l1 -1q-26 -45 -51 -57.5 t-64 -12.5q-40 0 -66 42t-30 119q-5 64 -18 81q-20 -6 -46 -6q-17 0 -33 8t-24 16l-8 8q-27 -52 -47.5 -88.5t-41.5 -66t-34.5 -48t-34 -32t-32.5 -19.5t-37 -9.5t-41 -4t-51 -0.5q-66 0 -120 41t-54 90q0 17 15.5 37t42.5 20q34 0 54.5 -18t37.5 -49q8 -20 8 -23v-1 q-8 -10 -22 -10q-17 0 -17 16q0 2 0.5 8t0.5 9q0 30 -16.5 43t-32.5 14q-21 0 -30.5 -23.5t-9.5 -42.5q0 -43 52 -71t99 -28q28 0 55 9.5t49.5 23.5t46 42t40.5 51t39 66t35.5 71.5t35.5 83t33.5 85.5l34.5 93l-106 -5q-55 0 -222.5 70t-178.5 70q-33 0 -54 -17.5t-21 -43.5 q0 -42 28 -78.5t66.5 -56.5t72 -31t51.5 -11q22 0 48 16t37 20q28 0 43.5 -4t34.5 -20q-10 -11 -47.5 -18.5t-80.5 -7.5q-38 0 -70 7q-99 22 -156 80.5t-57 108.5zM657 306q19 13 34 13q44 0 72 -34q86 47 86 114q0 23 -11.5 52.5t-46 57.5t-84.5 28h-5q1 -1 8.5 -5 t13.5 -10.5t9 -17.5q-13 -35 -24 -65t-18.5 -48.5t-13.5 -33.5l-9 -22.5t-5.5 -13t-3.5 -7.5t-1.5 -4t-0.5 -4zM681 274q12 -4 28 -4t21 5q-5 9 -25 9q-24 0 -24 -10z" />
<glyph unicode="S" horiz-adv-x="412" vert-adv-y="563" d="M42 124q0 53 44 53q22 0 41 -8.5t29.5 -20t18 -24.5t10.5 -21.5t3 -11.5q-6 -9 -19 -9q-19 0 -19 14q0 1 0.5 3.5t0.5 13.5q0 21 -14.5 38t-35.5 17q-31 0 -31 -66q0 -31 40 -57t94 -31h13q13 1 26 4t30.5 9t34.5 20t29 35q22 34 22 74q0 26 -10 55.5t-33 82t-38 91.5 l-7 14q-19 -16 -36.5 -28.5t-40.5 -31.5t-69 -59q35 41 62 64.5t41 38.5t34 50q0 5 -1.5 23t-1.5 28q0 55 13 76.5t39 21.5q19 0 31.5 -18t12.5 -40q0 -18 -8 -36q-5 -11 -21 -30.5t-25 -36.5q7 -22 32.5 -78.5t45 -110.5t19.5 -94q-2 -51 -20 -76q-26 -40 -59 -51t-87 -11 q-69 0 -113 24t-60 51q-17 21 -17 49zM283 494q0 -5 1.5 -19t1.5 -22q5 7 11 15.5t8 11.5t4.5 7.5t3 7.5t0.5 7q0 26 -12 26q-18 0 -18 -34z" />
<glyph unicode="T" horiz-adv-x="656" vert-adv-y="563" d="M85 615q0 30 25.5 51t58.5 21q49 0 105 -20t98.5 -43.5t97.5 -43.5t103 -20q46 0 141 25.5t161 25.5q46 0 90 -12t44 -38q0 -12 -5.5 -20t-13.5 -8q-12 0 -22.5 7.5t-21 16.5t-42.5 16.5t-81 7.5q-20 -1 -72 -19t-68 -19q1 -1 5.5 -3.5t8.5 -5t8.5 -8.5t7.5 -14 q-20 -44 -54.5 -141.5t-69.5 -179t-73 -129.5q-39 -39 -75.5 -50.5t-92.5 -11.5h-19q-103 0 -152 75q-13 19 -13 51q0 37 17 47.5t51 10.5q31 0 51 -21t24.5 -39t4.5 -31v-1q-9 -10 -21 -10q-19 0 -19 16v17q0 24 -14.5 40.5t-31.5 16.5q-37 0 -37 -69q0 -27 46 -58t92 -31 q60 0 93 17.5t81 71.5q27 38 66.5 137t72 195t38.5 108q-7 0 -34.5 -2t-41.5 -2q-63 0 -128 20.5t-109 45t-92.5 45t-83.5 20.5q-12 0 -18 -1q-17 -2 -37 -16.5t-20 -39.5q0 -84 106 -146q54 -29 104 -29q17 0 29.5 5t26.5 14t27 14h8q40 0 68 -24q-7 -8 -54 -19 q-30 -5 -68 -5t-70 8q-59 12 -105 43q-52 31 -76.5 73t-24.5 68z" />
<glyph unicode="U" horiz-adv-x="898" vert-adv-y="563" d="M85 450q0 19 7.5 39t32 39t62.5 19q39 0 73.5 -15t56 -33.5t50.5 -33.5t59 -15q46 0 108 42q8 7 22 39q7 28 30 33q24 -4 24 -21q-2 -26 -16 -43q-21 -25 -31 -56q-6 -17 -35.5 -82.5t-50 -126t-20.5 -104.5q0 -117 82 -117q27 0 72.5 36t93.5 94q-6 21 -6 40 q0 60 52.5 204.5t90.5 171.5q9 4 17 4q24 0 24 -53q0 -60 -36.5 -164t-112.5 -219q2 -7 6.5 -25t7.5 -27t8.5 -23t11.5 -21t15.5 -12.5t20.5 -5.5q17 0 29 15t19 30t10 15q5 0 11.5 -7t10.5 -7q6 0 13 11l1 -1q-40 -70 -96 -70q-16 0 -29 6t-21.5 14t-15.5 21.5t-10 22 t-6.5 22t-4.5 15.5q-75 -72 -101 -86.5t-79 -14.5q-44 0 -78 33.5t-34 119.5q0 23 9 55.5t19.5 59t36 87t41.5 101.5q-57 -20 -91 -20q-43 0 -77.5 15t-54 33t-49.5 33t-64 15q-39 0 -55.5 -28t-16.5 -66q0 -18 5.5 -41.5t19.5 -25.5q9 0 9 15q0 4 -0.5 11.5t-0.5 10.5 q0 11 5 11q6 0 19 -8.5t13 -17.5q0 -5 -11 -19q-16 -18 -30 -18q-26 0 -45.5 28.5t-19.5 65.5zM725 192q0 -6 2 -18q125 213 125 363q0 10 -2 12q-29 -38 -77 -165.5t-48 -191.5z" />
<glyph unicode="V" horiz-adv-x="370" vert-adv-y="563" d="M42 303q26 34 29 39q18 24 44 85q-1 13 -4 35t-3 35q0 41 7 56q12 26 31 29q25 0 38.5 -18t13.5 -37q0 -18 -6.5 -34.5t-20 -38t-19.5 -34.5q0 -20 60 -123q13 -22 42 -125q48 97 94 152q76 92 76 168q0 63 -28 63q-6 0 -11.5 -3.5t-9.5 -11t-6 -13t-5 -15t-4 -11.5 q2 47 36 80q35 -3 53 -21.5t20 -75.5q-1 -76 -84 -168q-53 -59 -105 -165q-5 -11 -12 -32.5t-10 -29.5q-2 -8 -5.5 -22.5t-7 -25.5t-8.5 -20q-11 -21 -24 -21t-27 6t-14 13q0 2 2.5 4t6 4.5t4.5 3.5q34 31 34 86q0 15 -4 45q-7 62 -27 105q-59 120 -65 127q-2 -2 -7 -8.5 t-16 -20.5t-26 -31q-5 -6 -17.5 -17.5t-14.5 -13.5zM130 499q0 -18 6 -54q5 11 11 22t8 14.5t3 8.5t1 12q0 32 -12 32q-17 0 -17 -35z" />
<glyph unicode="W" horiz-adv-x="997" vert-adv-y="563" d="M85 436q0 43 31.5 72t70.5 29q36 0 62.5 -12.5t40 -28t36.5 -28t51 -12.5q49 0 106 40q9 7 21 38q10 26 31 34q23 0 23 -21q-3 -25 -15 -43q-15 -14 -29 -56q-15 -24 -37 -63.5t-58.5 -131t-36.5 -148.5q0 -91 89 -91q55 0 164 134q-4 15 -4 40q0 75 38.5 169t90.5 134 q9 6 15 6q21 0 21 -42q0 -84 -131 -324q27 -116 68 -116q30 0 74 39q84 70 162.5 216.5t78.5 223.5q-1 29 -17 51t-35 22q-51 0 -51 -69q0 -21 9 -34t18 -20t9 -11q0 -7 -5 -13.5t-11 -6.5q-11 0 -32 28.5t-21 54.5q0 27 20 56t63 29q31 0 58.5 -27t27.5 -55 q0 -21 -12.5 -68t-38 -113t-77 -143.5t-117.5 -139.5q-43 -35 -104 -35q-61 2 -86 103q-11 -10 -30.5 -28t-27 -24.5t-21.5 -18t-21.5 -15t-20 -9t-24 -7t-26.5 -1.5q-124 7 -124 124q0 61 32 145t64 137l32 54q-53 -17 -84 -17q-28 0 -47 4.5t-26 7.5t-23 16.5t-21 17.5 q-44 35 -83 35q-29 0 -46.5 -19t-22 -39t-4.5 -42t6 -44t20 -22q8 0 8 15q0 4 -1 12.5t-1 11.5v5q0 4 5 4q13 0 29 -20v-6q0 -11 -10.5 -21t-26.5 -10q-23 0 -44.5 28t-21.5 59zM653 206q0 -16 3 -29q13 24 33 61t53 115t33 114q0 7 -4 11q-39 -33 -78.5 -120.5 t-39.5 -151.5z" />
<glyph unicode="X" horiz-adv-x="489" vert-adv-y="563" d="M42 97q0 5 2 11q5 -25 16.5 -42t25 -24t22.5 -9t17 -2q45 0 92.5 84t79.5 181q-15 5 -24 5q-11 0 -18 -7.5t-8 -7.5t-11 5q12 18 30 18q14 0 33 -8q10 37 10 96q0 54 -6 89.5t-17 50.5t-20.5 20t-21.5 5q-28 0 -53 -15t-37.5 -30.5t-27.5 -39t-16 -25.5l-14 1 q33 62 65.5 94.5t81.5 33.5q40 0 69.5 -34t29.5 -105q62 139 141 139q48 0 82 -30q19 -20 25 -45q-3 -9 -8 -9q-7 0 -20 24q-28 40 -66 40q-28 0 -51 -29q-69 -78 -114 -239q8 -2 13 -2q12 0 19 3.5t14 10.5t10 9q7 -7 8 -10q-30 -20 -39 -20q-7 0 -27 4q-6 -12 -11 -55 t-5 -65q0 -147 74 -147q11 0 20.5 3t14 5.5t14 10t13.5 10.5q20 2 39 21l1 -1q-16 -29 -43.5 -49.5t-59.5 -20.5q-16 0 -30 4.5t-24 13.5t-18 19t-13 23.5t-9 24.5t-6 24.5t-3 21.5t-1.5 17.5t-0.5 10.5q-15 -38 -59 -98.5t-81 -60.5q-53 0 -76 32.5t-23 64.5z" />
<glyph unicode="Y" horiz-adv-x="819" vert-adv-y="563" d="M85 450q0 43 32.5 71.5t69.5 28.5q39 0 71.5 -15t52.5 -32.5t50.5 -32.5t66.5 -15q7 0 13 0.5t12 2.5t10 3.5t10.5 5.5t9.5 5.5t10.5 8t10 8.5t11.5 10t12 10q9 8 20 38q11 27 30 33q12 0 23 -12t11 -23v-1q-1 -10 -14 -16.5t-16 -10.5q-15 -19 -23 -57 q-17 -45 -40.5 -100t-35.5 -84t-21 -65.5t-9 -69.5q0 -69 29 -98t58 -29q60 0 168 132q9 38 26 106q52 215 72.5 272t54.5 57q24 0 24 -63q0 -11 -1.5 -26.5t-10 -52.5t-23 -78.5t-44 -104t-69.5 -128.5q-10 -48 -63 -209.5t-109 -286.5q-7 -17 -33 -29q-33 -18 -98 -22 q-53 1 -103 27q-75 48 -75 110q0 19 11 35.5t37 16.5q47 0 80 -34q8 -8 19.5 -26.5t11.5 -31.5q-6 -11 -22 -11q-13 0 -20 7q1 6 1 28q0 17 -9 35q-7 8 -19.5 15t-19.5 7q-16 0 -26.5 -21.5t-10.5 -45.5q0 -49 48 -75q42 -27 94 -27q42 0 65 19q33 30 47 57 q15 31 52.5 133.5t67.5 189.5l30 87q-32 -30 -47 -43t-39.5 -23t-54.5 -10q-34 0 -59 15.5t-37.5 36t-20 48t-9 44.5t-1.5 33q0 19 4 39.5t15 53t19 53t28.5 72t30.5 77.5q-55 -32 -83 -32q-39 0 -69 10t-49 24t-36.5 28.5t-39.5 24.5t-50 10q-23 0 -39 -11.5t-22 -30 t-8.5 -32t-2.5 -25.5q0 -26 7.5 -46.5t18.5 -20.5q8 0 8 14q0 6 -0.5 13t-0.5 17q0 4 5 4t17 -9t12 -17q0 -15 -11 -26t-27 -11q-24 0 -45 31.5t-21 62.5zM744 189q9 15 32 68.5t50.5 142.5t27.5 148q0 10 -2 12q-25 -33 -42 -91t-34.5 -145t-31.5 -135z" />
<glyph unicode="Z" horiz-adv-x="678" vert-adv-y="563" d="M42 105q0 20 7 38t24.5 36.5t55 29.5t92.5 11q94 0 156 -32q11 22 42.5 88.5t55.5 109t56 83.5q-48 8 -98 26t-79 31.5t-31 13.5q-3 0 -37 -57.5t-44 -57.5q-8 0 -23 33q64 96 74 110t18 14q11 0 28 -12t36.5 -28t63.5 -34t102 -27q28 35 69 65.5t81 30.5q25 0 25 -39 q0 -40 -38 -58.5t-83 -18.5q-4 0 -12 0.5t-12 0.5q-69 -112 -103 -185.5t-52 -107.5q38 -29 58.5 -51t33.5 -44t17 -27q15 -18 41 -18q8 0 14 2.5t9.5 5.5t12 11t14.5 14h4q5 0 23 -1.5t22 -1.5t13 12l1 -1q-23 -39 -79 -65q-9 -5 -48 -5q-30 0 -46 13t-21.5 31.5t-25.5 49 t-53 56.5q-37 -63 -106.5 -106.5t-121.5 -43.5q-53 0 -94.5 29.5t-41.5 75.5zM89 89q0 -7 3.5 -16.5t11.5 -22t27.5 -21.5t45.5 -9q48 0 110.5 59t80.5 94q-53 33 -128 33q-59 0 -105 -27t-46 -90zM579 477h23q87 0 87 67q0 19 -7 19t-20 -4.5t-37.5 -25.5t-45.5 -56z" />
<glyph unicode="[" horiz-adv-x="240" vert-adv-y="563" d="M11 -132q1 2 8.5 48.5t23.5 139t32 179.5q2 13 13.5 71.5t26.5 138t22 115.5l9 4q0 2 2 8q56 -1 89 -1q12 0 59 5q-2 -8 -5.5 -14.5t-6 -10t-2.5 -4.5v-1q-34 -3 -62 -3q-9 0 -25.5 1t-33.5 1l-49 -268q-54 -298 -63 -381q39 -1 75 -1q13 0 45 7q-2 -8 -5.5 -15.5t-6 -12 t-2.5 -6.5q-34 -3 -62 -3q-6 0 -27.5 1.5t-54.5 1.5z" />
<glyph unicode="\" horiz-adv-x="449" vert-adv-y="0" d="M101 547l38 17l279 -585l-38 -19q-20 48 -50 125t-43 107t-40 88t-60.5 118.5t-85.5 148.5z" />
<glyph unicode="]" horiz-adv-x="219" vert-adv-y="563" d="M-55 -98q19 -7 54 -7q24 0 63 1q27 108 77 381l48 268q-18 0 -34 -1t-25 -1q-28 0 -62 3l-3 30q47 -5 57 -5q33 0 90 1q0 -2 -0.5 -4.5t-0.5 -3.5q8 -3 8 -4q-11 -57 -57 -325q-10 -53 -18.5 -99t-14.5 -78.5t-11 -60t-8.5 -45.5t-6.5 -32t-4.5 -21.5t-2.5 -13t-1.5 -8.5 t-1 -5t-0.5 -4q-34 0 -56 -1.5t-27 -1.5q-18 0 -62 4q1 1 1 2q-2 6 -2 31z" />
<glyph unicode="^" horiz-adv-x="220" vert-adv-y="563" d="M32 376q6 17 23.5 31.5t39.5 36t36 52.5h39q17 -39 43.5 -70t32.5 -50q-49 33 -64.5 47t-33.5 39q-10 -15 -20.5 -24.5t-43.5 -29t-52 -32.5z" />
<glyph unicode="_" horiz-adv-x="493" vert-adv-y="563" d="M24 -139q9 20 11 28q90 -2 183 -2q160 0 205 8q-2 -8 -5.5 -15.5t-6 -11.5t-2.5 -6v-1q-57 -3 -172 -3q-6 0 -81 1.5t-132 1.5z" />
<glyph unicode="`" horiz-adv-x="252" vert-adv-y="563" d="M90 478q7 12 18 27.5t15 22.5q6 12 6 20q0 18 -24 23q40 38 45 38q16 0 21 -25v-6q0 -25 -45 -70q-10 -10 -36 -30z" />
<glyph unicode="a" vert-adv-y="563" d="M24 109q0 65 48 121t110 56q23 0 47 -13t24 -23q8 18 21 18q5 0 10 -5t5 -16q-14 -53 -27 -96.5t-17.5 -59.5t-4.5 -31q0 -45 19 -45t32 10.5t41 45.5l1 -1q-4 -6 -10.5 -18.5t-9.5 -17.5t-10 -13.5t-13 -11.5t-15.5 -6t-21.5 -3q-43 0 -43 50q-38 -50 -91 -50 q-48 0 -71.5 34.5t-23.5 74.5zM62 100q0 -33 8.5 -53.5t17.5 -26.5t18 -6q20 1 29 3.5t25.5 16t32.5 48t34 91.5q-5 -11 -60 -42v2q34 28 50 47.5t16 39.5q0 22 -14.5 37t-32.5 15q-41 0 -82.5 -60t-41.5 -112z" />
<glyph unicode="b" horiz-adv-x="267" vert-adv-y="563" d="M-1 71q4 7 9.5 15.5t9 13.5t3.5 7q0 49 27 131.5t51 137t32 67.5q3 10 13.5 16.5t21.5 6.5q9 0 17 -6.5t8 -16.5q0 -45 -41.5 -157t-79.5 -112q-15 -58 -15 -79q0 -81 58 -81q46 5 81 68t35 123q0 2 -0.5 8.5t-1 10t-1 9.5t-1.5 10t-2.5 9t-3.5 8t-4.5 6t-6.5 4.5t-8 1.5 q-22 0 -41.5 -29t-24.5 -54q-1 -3 -1.5 -7.5t-2 -6t-4.5 -1.5q-16 0 -16 18q0 15 31 54.5t57 39.5q4 0 10 -1t17.5 -7t20 -16t15.5 -30t7 -46q0 -74 -47 -130t-106 -56q-9 0 -21 3t-30 12t-30 30t-12 51q-1 -3 -9.5 -11t-12.5 -15zM79 204q24 5 54.5 89.5t37.5 143.5 q-13 -23 -59 -131q-8 -18 -17.5 -52t-15.5 -50z" />
<glyph unicode="c" horiz-adv-x="257" vert-adv-y="563" d="M24 95q0 66 45 128.5t119 62.5q36 0 60 -16t24 -28q0 -10 -8.5 -17.5t-16.5 -7.5q-14 0 -14 13q0 6 1.5 14t1.5 10q0 18 -47 18q-40 0 -83.5 -59t-43.5 -139q0 -35 20 -47.5t42 -12.5q34 0 50 16q3 3 7 8t6 7t6.5 4t10.5 2q26 0 33 3t20 17l1 -1q-15 -25 -33 -40.5 t-38 -21t-32 -7t-30 -1.5q-15 0 -35 5t-43 28.5t-23 61.5z" />
<glyph unicode="d" horiz-adv-x="329" vert-adv-y="563" d="M24 107q0 74 39.5 126.5t115.5 52.5q25 -1 41.5 -9.5t20.5 -16.5l4 -7q23 93 43 142t32 58.5t28 9.5q14 0 14 -19q0 -49 -50.5 -167t-50.5 -119q-4 -13 -11.5 -37t-12 -39.5t-4.5 -24.5q0 -43 24 -43q10 0 18 2t15.5 9t11 11t13 16.5t13.5 18.5l1 -1q-1 -2 -7 -12.5 t-8.5 -14t-9 -12.5t-11 -12.5t-11 -9t-14 -7.5t-15.5 -2q-49 0 -49 52q-43 -52 -99 -52q-30 0 -55.5 29t-25.5 78zM58 81q0 -32 14.5 -49.5t31.5 -17.5t24 2t23 14q10 8 19.5 20.5t16 24t13 27.5t9 25t7 23t4.5 15q-34 -25 -61 -34q62 44 62 90q0 22 -13.5 36.5t-26.5 14.5 q-43 0 -78 -48q-45 -55 -45 -143zM256 237q4 -6 4 -14q11 14 38.5 86.5t29.5 122.5q-18 -34 -35.5 -81t-26.5 -77.5t-10 -36.5z" />
<glyph unicode="e" horiz-adv-x="251" vert-adv-y="563" d="M-1 71q15 25 21 32q9 49 33 94q43 89 135 89q28 0 54.5 -13t26.5 -37q0 -4 -1.5 -11.5t-8.5 -21t-18.5 -24.5t-33.5 -19.5t-51 -8.5q-18 0 -34.5 4t-17.5 4q-10 0 -34 -20q-11 -33 -11 -59q0 -66 71 -66q26 0 42 15q2 2 5.5 6.5t6 7t6.5 5t9 2.5h14q11 0 18.5 3.5t10 6 t9.5 11.5l1 -1q-14 -25 -27.5 -40t-30 -21t-27.5 -7.5t-30 -1.5q-24 0 -47.5 6t-46.5 28.5t-23 58.5q-3 -2 -20 -23zM75 152q24 18 28 18l7 -1q6 -1 16 -2t20 -1q37 1 61.5 31t24.5 48q0 27 -43 27q-33 0 -59.5 -33t-54.5 -87z" />
<glyph unicode="f" horiz-adv-x="149" vert-adv-y="563" d="M-171 -414q7 26 18 26t21 -2t14 -2q15 0 28 14t28 56q11 31 33.5 127t44.5 196t26 114q-11 -7 -17.5 -13.5t-13.5 -16.5t-11 -15l-1 2q14 24 19.5 31.5t25.5 24.5q12 44 29 104q29 104 60 190q4 10 6 16q3 10 17.5 17.5t24.5 7.5q22 0 22 -55q0 -66 -44.5 -164.5 t-75.5 -106.5q-4 -15 -23 -92t-46 -186t-47 -184q-12 -44 -43 -68t-72 -24q-11 0 -23 3zM90 157q26 25 59.5 104t33.5 140q0 9 -0.5 16.5t-1.5 11.5t-1 5q-14 -25 -26.5 -65t-29.5 -101.5t-34 -110.5z" />
<glyph unicode="g" horiz-adv-x="293" vert-adv-y="563" d="M-94 -363q0 13 1.5 22t8 20.5t11 17t20.5 24t25 29.5q15 18 51.5 61t83.5 106h2q-32 -47 -62 -87.5t-45 -61t-27.5 -37.5t-17.5 -26t-8 -18q-10 -34 -10 -48q0 -44 45 -44q84 0 140 191q53 170 71 240q-29 -26 -67 -26q-37 0 -69 27.5t-32 81.5q0 37 17 79q19 39 47 66 q33 32 91 32q59 0 77 -37q15 26 25 26t10 -25q0 -41 -25 -97q-2 -5 -19.5 -69t-51 -174.5t-73.5 -217.5q-51 -112 -142 -112q-20 0 -33.5 2t-28.5 15.5t-15 39.5zM67 85q0 -71 54 -71q20 0 39.5 15.5t29.5 33.5q13 22 18 34.5t9.5 31t10.5 35.5q-39 -33 -61 -33v1 q19 6 26 12q43 30 43 71q0 23 -15 40t-35 17q-53 0 -95 -81q-24 -49 -24 -106z" />
<glyph unicode="h" horiz-adv-x="310" vert-adv-y="563" d="M-1 71q49 80 72 152q9 26 20.5 59t18 52.5t15 43t14.5 36.5t13 25t13.5 17t13.5 5t13.5 -11.5t6.5 -24.5q0 -16 -43 -92q-4 -8 -15.5 -28.5t-17.5 -31t-13 -28.5t-11 -34q25 48 51 61.5t63 13.5q89 0 89 -57q0 -34 -41 -98.5t-41 -85.5q0 -31 19 -31q16 0 30 10.5 t41 46.5l1 -1q-13 -23 -21 -35t-23.5 -23.5t-32.5 -11.5q-47 0 -47 58q0 19 42 89.5t42 93.5q0 31 -59 31q-29 0 -51.5 -27.5t-78.5 -127.5q-7 -18 -15.5 -49.5t-11.5 -41.5q-12 -26 -27 -26t-15 14l47 149q-3 -5 -60 -93zM139 332q4 4 26 43.5t22 47.5q0 7 -4 7 q-13 0 -28.5 -44.5t-15.5 -52.5v-1z" />
<glyph unicode="i" horiz-adv-x="181" vert-adv-y="563" d="M-1 71q6 12 14 26.5t10 18.5q5 8 13 13q11 47 34 100t46 53q9 0 15.5 -6.5t6.5 -15.5q0 -20 -17.5 -59.5t-43.5 -63.5q-13 -39 -13 -75q0 -48 27 -48q11 0 16 3t18 19q1 1 3.5 4.5t4 5t4.5 3t7 1.5h9q6 0 10 0.5t6.5 3l4 4t4 6.5l3.5 7l1 -1q-13 -29 -38 -54 q-21 -16 -42 -16q-37 0 -56 22t-19 53q0 15 6 41q-13 -15 -33 -46zM81 158q35 38 41 95q-36 -75 -41 -95zM164 450q0 6 11 12t11 16q0 2 -2 5l-3 3q20 10 30 10q11 0 11 -10q0 -16 -14 -31t-29 -15t-15 10z" />
<glyph unicode="j" horiz-adv-x="148" vert-adv-y="563" d="M-245 -363q0 13 1.5 22t8 20.5t11 17t20.5 24t25 29.5q13 16 54 64.5t83 104.5l2 -2q-33 -47 -62.5 -87.5t-45 -61t-28 -37.5t-17.5 -26t-8 -18q-10 -34 -10 -48q0 -44 45 -44q14 0 26 3t22.5 11.5t18.5 15t17 22t13.5 23.5t12.5 28.5t10.5 27.5t10 31t9.5 29 q19 60 57 195t42 152q-19 -4 -33.5 -17t-39.5 -46l-1 1q16 30 28 43.5t28 23.5t26 20q21 90 29 104q16 26 29 26q9 0 9 -26q0 -12 -1 -22.5t-2.5 -18t-5 -17.5t-5.5 -15t-7 -16.5t-7 -16.5q-2 -3 -7 -21q-67 -238 -136 -443q-16 -46 -58 -79t-86 -33q-15 0 -25 1t-24 6 t-21.5 17.5t-7.5 32.5zM169 450q0 5 11 11.5t11 15.5l-4 8q18 11 30 11q11 0 11 -10q0 -18 -15 -32.5t-29 -14.5q-15 0 -15 11z" />
<glyph unicode="k" horiz-adv-x="290" vert-adv-y="563" d="M-1 71q13 31 47.5 101.5t42.5 87.5q16 68 42 135.5t50 67.5q7 0 15 -12t8 -25q0 -20 -40 -100q-4 -6 -18 -32t-24 -41q-7 -21 -12.5 -39t-8.5 -28l-3 -9q18 13 39 27t42.5 30t57.5 46q12 5 18 5q9 0 9 -10q0 -9 -1.5 -19.5t-9 -22.5t-19.5 -12q-2 0 -5 2t-5 2 q-16 -13 -45 -31t-48.5 -30t-19.5 -15q0 -28 39.5 -81.5t71.5 -53.5q7 0 14 3t15.5 11t12.5 12t14 17t11 14l1 -1q-42 -70 -78 -70q-29 0 -60.5 31.5t-48.5 62t-17 37.5q-8 -10 -23 -54q-1 -5 -5 -20l-6 -22.5t-6 -17t-9.5 -14t-12.5 -4.5q-11 0 -11 12q0 15 13.5 59 t27.5 81l13 37q-5 -4 -17.5 -26.5t-27.5 -51t-22 -40.5zM139 322l1 -1q6 5 27 47t21 54q0 9 -4 9q-9 0 -21 -24q-6 -12 -12 -32.5t-9 -35t-3 -17.5zM228 229h4q2 0 3.5 0.5t2.5 2l2 3t1 4.5t0.5 5t1 6t0.5 7q-1 0 -3 -4.5t-5.5 -11.5t-6.5 -12z" />
<glyph unicode="l" horiz-adv-x="242" vert-adv-y="563" d="M-1 71q2 4 5.5 10t5 8.5t4 6t4.5 6t4.5 5.5t5.5 6t7 6.5t9 8.5q44 158 108 308q4 9 18 15.5t24 6.5q19 0 19 -26q0 -61 -42 -151q-3 -7 -10 -21.5t-10.5 -22t-9.5 -20.5t-10 -20.5t-10 -17.5t-10 -16t-9 -12t-10 -9.5t-9 -4.5q-12 -48 -12 -75q0 -26 11.5 -37t37.5 -11 q28 0 42 14q2 2 7 8.5t9.5 10t10.5 3.5q1 0 4.5 -0.5t9.5 -0.5q12 0 19 3t10 6.5t9 12.5l1 -1q-7 -14 -15.5 -25t-16 -18t-17.5 -12.5t-16.5 -8t-16 -4t-14 -2t-13.5 -0.5h-10q-89 0 -89 73q0 19 7 42q-14 -9 -24.5 -24t-16.5 -21zM89 157q7 7 14 17t14 25t11.5 25t13.5 32 t12 29q35 76 39 146q-31 -62 -42 -93q-34 -107 -62 -181z" />
<glyph unicode="m" horiz-adv-x="472" vert-adv-y="563" d="M-1 71q30 54 70 149l8 32q12 34 28 34q18 0 18 -20q0 -27 -21 -53q-1 -4 -8.5 -32t-13.5 -62q33 83 64 127q10 16 33.5 28t44.5 12q27 0 41 -16t14 -41q0 -6 -2 -12l5 7.5t13.5 16.5t22 21t30 16.5t38.5 7.5q35 0 52 -10.5t17 -41.5q0 -42 -35 -107t-36 -88 q0 -10 1 -14.5t5.5 -7.5t13.5 -3q16 0 21 3q7 5 13 9.5t11.5 11t8.5 10t8.5 12t7.5 11.5l1 -1q-3 -4 -8 -13t-6.5 -11.5t-5.5 -8.5l-6 -9t-5.5 -7t-7.5 -7t-9 -7q-12 -7 -29 -7q-20 0 -34 13t-14 33q0 18 36 90.5t36 108.5q0 27 -25 27t-52 -21t-38 -43q-27 -45 -83 -198 q-5 -10 -15 -10q-18 0 -18 12q0 8 7 27q55 148 55 191q0 42 -25 42q-33 0 -69 -62q-23 -40 -52.5 -106.5t-41.5 -91.5q-3 -12 -15 -12q-18 0 -18 13q0 5 4 13q13 61 30 163q-6 -9 -29 -55.5t-35 -63.5z" />
<glyph unicode="n" horiz-adv-x="335" vert-adv-y="563" d="M-1 71q28 54 47.5 99t25.5 63l5 18q6 35 28 35q17 0 17 -23q0 -21 -21 -50q-10 -30 -21 -96q50 112 62 128q30 41 100 41q43 0 59.5 -15.5t16.5 -31.5q0 -39 -38 -109t-39 -91q0 -25 24 -25q26 0 70 57l1 -1q-17 -29 -25 -40t-25 -23q-14 -7 -28 -7q-30 0 -44 26 q-5 11 -5 26q0 12 36.5 84.5t36.5 104.5q0 17 -9 24t-33 7q-21 0 -39.5 -12.5t-25 -22t-17.5 -26.5l-95 -199q-5 -12 -16 -12q-17 0 -17 12q0 5 2 9t2 5q21 107 30 163q-9 -14 -30 -56t-34 -63z" />
<glyph unicode="o" horiz-adv-x="288" vert-adv-y="563" d="M24 95q0 77 47 134t88 57q21 0 32 -13.5t11 -25.5q0 -7 -7 -7q-3 0 -9.5 1.5t-8.5 1.5q-6 29 -18 29q-5 0 -15 -6t-23.5 -21t-25.5 -36.5t-20.5 -56t-8.5 -75.5q0 -63 49 -63q57 0 88 77q-12 24 -12 58q0 20 4 43t8 36l4 13q-1 6 -1 20q0 23 13 23q5 0 15 -7t14 -19 q6 -16 10.5 -34.5t5.5 -29.5l1 -11q0 -53 -30 -118q8 -18 20 -18q15 0 32 24l1 -1q-2 -9 -14 -19t-19 -10q-20 0 -26 14q-36 -55 -95 -55q-36 0 -61 12.5t-34 31.5t-12 30.5t-3 20.5zM202 155q0 -27 8 -51q16 39 16 80q0 23 -9 59q0 -6 -7.5 -33.5t-7.5 -54.5z" />
<glyph unicode="p" horiz-adv-x="309" vert-adv-y="563" d="M-108 -378q1 8 2.5 24t13.5 68.5t29.5 109.5t54 145t83.5 177q4 14 10.5 59t6.5 60q0 5 -5 5q-6 -2 -13.5 -32.5t-26 -80t-47.5 -87.5l-1 1q20 35 38 89.5t29 89t19 34.5q7 1 10 1q9 0 9 -23q0 -46 -11 -98q20 38 43 64.5t43.5 37.5t34 15.5t24.5 4.5q28 0 49.5 -14.5 t21.5 -52.5q0 -37 -15.5 -85.5t-45.5 -86.5q4 -2 10 -2q19 0 51 26l1 -1q-28 -39 -66 -39q-6 0 -8 1q-4 -8 -22.5 -20t-35.5 -12t-28.5 11t-11.5 20q0 49 41 49q21 0 47 -23q43 90 43 163q0 52 -26 52q-15 0 -32.5 -12.5t-33 -30.5t-31.5 -41.5t-26.5 -41.5t-19.5 -34 l-10 -17q-4 -74 -54 -250t-80 -227q-20 -34 -36 -34q-13 0 -20.5 11.5t-7.5 26.5zM-69 -361q4 -2 5 -2q8 0 22.5 34t33 98t31.5 110t31 116l18 70q-39 -73 -74 -174t-51 -168.5t-16 -83.5zM154 31q0 -13 23 -15q6 0 10.5 1t7.5 2t7 5l5.5 5.5t6 7.5t5.5 7q-22 22 -37 22 q-28 0 -28 -35z" />
<glyph unicode="q" horiz-adv-x="290" vert-adv-y="563" d="M24 111q0 82 52.5 128.5t107.5 46.5q48 0 74 -33q9 26 23 26q9 0 9 -26q0 -42 -30 -112q-37 -125 -82 -255t-72 -198l-27 -67q0 -1 6 -1q4 0 30 26q10 10 25.5 23t19.5 16l1 -1q-18 -36 -60 -81q-10 -11 -30 -20t-30 -9t-10 13q0 2 151 429q-27 -16 -66 -16q-44 0 -68 33 t-24 78zM64 98q0 -84 46 -84q12 0 25 5t33.5 26t35.5 56l21 61q-26 -23 -66 -35l-1 2q3 1 8 3t18.5 10.5t23.5 18.5t18 28t8 38q0 18 -15 31.5t-32 13.5q-42 0 -82.5 -48.5t-40.5 -125.5z" />
<glyph unicode="r" horiz-adv-x="283" vert-adv-y="563" d="M-1 71q1 2 8 15t10 18.5t9 18.5t10 23.5t9.5 25.5t9.5 31t7 33q4 24 18.5 35.5t30.5 11.5q19 0 35.5 -15t16.5 -39v-23q6 9 14 32q12 35 12 40q4 8 10 8q7 0 16 -5t9 -10q0 -7 -0.5 -19t-0.5 -17q0 -9 9 -15t20 -6q38 0 38 20q6 6 10.5 12t7 9.5t3.5 3.5q7 0 12 -4t5 -7 q0 -20 -20.5 -36t-44.5 -16q-43 0 -57 28q-7 -8 -26 -50t-35 -80l-16 -37q-5 -30 -16 -51q-5 -6 -10 -6q-25 0 -25 13q0 6 2 11t7.5 15.5t10.5 21.5q35 97 40 157q0 46 -30 46q-10 0 -18.5 -9t-12 -16.5t-3.5 -9.5q-23 -69 -74 -159z" />
<glyph unicode="s" horiz-adv-x="244" vert-adv-y="563" d="M29 64q0 5 1 10q1 0 6.5 1.5t7.5 1.5q10 0 24.5 -6.5t14.5 -15.5q0 -5 -8 -12t-8 -11q0 -8 13.5 -13t30.5 -5q8 0 19.5 3.5t25 11.5t22.5 24.5t9 38.5q0 36 -40 97q-4 6 -6.5 13.5t-3 11t-1.5 3.5q-52 -46 -99 -102l-1 1q25 37 59 80q10 14 28 44q3 4 6 16t5.5 21t5.5 9 h1q7 0 34 -31q5 -33 8 -43q4 -14 25 -54t21 -70q0 -47 -33 -67.5t-72 -20.5q-24 0 -42 6.5t-27.5 16t-16 19t-8.5 16.5z" />
<glyph unicode="t" horiz-adv-x="262" vert-adv-y="563" d="M-1 71q10 15 19 24.5t23 19t19 13.5q25 90 57 177q-3 1 -7 2q-2 1 -3.5 1.5t-3.5 0.5q-15 0 -24 -13.5t-12 -13.5q-4 0 -11 3.5t-7 5.5q11 19 19 24.5t22 5.5q8 0 18 -4.5t12 -4.5l46 125q4 9 15 15t21 6q20 0 20 -22q0 -18 -9 -53.5t-17.5 -61.5t-9.5 -26q18 -2 25 -2 q16 0 26.5 7t24.5 26h1q11 -11 13 -18q-31 -25 -54 -25q-3 0 -38 5q-23 -59 -39.5 -92t-24.5 -42t-20 -18q-13 -39 -13 -69q0 -33 14.5 -43t41.5 -10t42 15q2 3 4.5 6t3.5 4.5t3 3.5l2.5 2.5t2.5 1.5t3 1t3.5 0.5t4.5 0.5h6h6h8h5.5t4.5 1.5t3.5 2t3.5 2.5t3 3.5t4.5 5.5 t5.5 7l1 -1q-1 -2 -4.5 -8t-5 -8t-6 -7.5t-8 -9.5t-10 -10t-13.5 -12q-26 -15 -75 -15q-42 0 -68 17q-23 18 -23 56q0 12 7 42q-33 -16 -57 -45zM104 156q7 6 13 14t10.5 15.5t10 21.5t9 22.5t11 29.5t11.5 32q-2 1 -19 4q-34 -107 -46 -139zM154 304q2 -1 6 -2l8 -2l4 -2 q24 75 29 132z" />
<glyph unicode="u" horiz-adv-x="347" vert-adv-y="563" d="M-1 71q3 7 19 31t28 35q1 3 12 49.5t25.5 74t35.5 27.5q26 0 26 -22q0 -13 -16 -48.5t-46 -66.5q-10 -40 -12 -67q0 -28 13 -49t38 -21q42 0 62.5 26t39.5 86q4 15 17.5 58t27.5 91q4 11 22 11q19 0 19 -15q0 -16 -25 -86.5t-25 -103.5q0 -67 25 -67q22 0 37 15 q3 4 25 42l1 -1q-20 -48 -38 -62q-13 -8 -26 -8t-21.5 2.5t-13.5 10t-6.5 13t-4.5 19.5t-5 20q-10 -20 -13.5 -25.5t-16 -18.5t-31.5 -17t-49 -4q-39 0 -60 27.5t-21 59.5q0 17 3 28q-25 -12 -45 -45zM87 177q13 14 29 45.5t16 44.5q0 8 -9 8q-7 -7 -19.5 -42t-16.5 -56z " />
<glyph unicode="v" horiz-adv-x="294" vert-adv-y="563" d="M-1 71q23 33 47 88.5t29 82.5q0 14 6.5 29t18.5 15q13 -1 13 -18v-3.5t-0.5 -3.5t-0.5 -5.5v-12v-21.5q1 -22 20 -61t22 -57q13 17 37.5 37t30.5 27q42 42 42 79q0 14 -7 14t-16 -16.5t-10 -16.5h-3q0 16 10.5 37t19.5 21q40 -1 42 -42q0 -47 -48 -91q-3 -3 -26.5 -21.5 t-40 -37.5t-27.5 -43q-2 -5 -6 -18t-8 -19.5t-13 -11.5q-4 -2 -7 -2q-30 0 -30 12q0 6 10 9q19 13 19 47q0 47 -18.5 86.5t-21.5 53.5q-2 -3 -11.5 -21.5t-12.5 -24t-11 -21t-13 -23t-11.5 -18.5t-12.5 -18t-11 -12z" />
<glyph unicode="w" horiz-adv-x="383" vert-adv-y="563" d="M-1 71q24 50 38.5 111.5t26.5 90.5q9 13 22 13q27 0 50 -21q12 -14 12 -48q0 -20 -5 -50q3 5 34.5 30t44.5 47q0 10 5 20.5t16 10.5q15 -4 15 -26q0 -6 -1.5 -14.5t-1.5 -10.5q0 -21 7 -60.5t8 -58.5q4 11 27 35.5t42.5 53.5t19.5 55q0 17 -7 17q-4 0 -7.5 -4.5t-6 -9.5 t-5.5 -13t-4 -10q4 57 29 57q31 0 31 -39q0 -28 -16 -56.5t-36 -48.5t-41 -45.5t-28 -46.5q-3 -5 -9 -19.5t-12 -22.5t-14 -8q-22 0 -22 10q0 8 7 11q14 13 18 30t4 50q0 22 -5.5 60t-6.5 51q-4 -5 -37 -33q-22 -22 -32.5 -36t-38.5 -61q-2 -6 -6 -16t-6.5 -18.5t-4.5 -16.5 q-8 -31 -32 -31q-16 0 -16 20q0 12 8 24q6 9 10.5 14.5t6.5 8t4.5 5.5t5.5 8t7 13q7 19 13.5 50.5t9 52t2.5 23.5q0 24 -9 40t-26 16q-5 0 -7 -1t-4.5 -3t-3.5 -3q-6 -6 -27 -84.5t-45 -113.5z" />
<glyph unicode="x" horiz-adv-x="286" vert-adv-y="563" d="M19 42q15 3 23 3q1 0 1 -1q1 0 1 -3q0 -2 -0.5 -6t-0.5 -7q0 -14 17 -14q18 0 31 15q24 28 55 118q12 43 12 77q0 48 -32 48q-15 0 -34.5 -17.5t-28.5 -29.5t-26 -37h-1q50 98 100 98q23 0 34.5 -20t11.5 -47q0 -2 -0.5 -6.5t-0.5 -7.5l3 9q4 8 6.5 13.5t7.5 15t10.5 16 t12 13.5t15 10.5t17.5 3.5q61 0 66 -40q-1 -1 -15.5 -5.5t-15.5 -4.5l-6 18q-7 18 -22 18q-16 0 -29 -15q-25 -29 -44 -92t-19 -106q0 -19 10 -31.5t22 -13.5q22 2 37 11t48 46l1 -1q-15 -23 -25.5 -36t-27.5 -23.5t-37 -10.5t-36 20t-16 37v18q-12 -30 -34.5 -52.5 t-45.5 -22.5q-20 0 -30.5 8.5t-11.5 14t-3 19.5z" />
<glyph unicode="y" horiz-adv-x="309" vert-adv-y="563" d="M-88 -364q0 12 1.5 20t3 14t8.5 15.5t11.5 15t18 21.5t23.5 28q18 22 40 48t44 54t58 76l2 -1q-35 -51 -73 -102t-53 -71.5t-29 -43.5t-17.5 -37t-3.5 -34t12.5 -32t31.5 -12q25 0 52 15q12 8 24.5 24.5t24 42.5t21.5 51.5t22.5 65.5t21 69.5t22.5 78t23 77.5 q-10 -9 -35.5 -14t-42.5 -5q-67 0 -78 115q-31 -21 -45 -45l-1 1q3 15 22 36q2 4 10 13t14 17q8 28 12 47q13 62 23.5 82t36.5 20q8 0 12 -1q17 0 17 -20q0 -9 -3 -22.5t-17 -41t-37 -50.5q-12 -34 -12 -70q0 -67 48 -67q47 0 94 87q4 14 16 55t21 70.5t18 48.5q8 10 15 12 q13 0 17 -4.5t4 -17.5q0 -20 -5.5 -40.5t-11 -33t-14 -28.5t-9.5 -19q-67 -253 -139 -453q-49 -111 -138 -111q-22 0 -36.5 2t-29.5 15.5t-15 38.5zM90 177q13 13 27.5 45t14.5 45q0 8 -9 8q-3 -3 -8 -15t-10 -27t-9 -30.5t-6 -25.5z" />
<glyph unicode="z" horiz-adv-x="267" vert-adv-y="563" d="M-1 71q5 6 21 61t36 104.5t37 49.5q8 -1 13 -8t9 -16.5t6 -11.5q7 -8 23.5 -14.5t29.5 -9.5l14 -4q38 48 51 56q11 7 24 7q18 0 18 -14q0 -18 -22.5 -37.5t-41.5 -24.5q-15 -23 -29 -40.5t-38 -46t-49 -60.5q63 -47 86 -47q11 0 23.5 15.5t15.5 15.5q1 0 4 -1t6 -1 q15 0 31 27l1 -1q-3 -5 -8.5 -14.5t-7.5 -13t-6.5 -11t-7 -10t-6.5 -7.5t-7.5 -6.5t-8 -4t-9 -3t-10.5 -0.5q-35 0 -105 50q-11 -15 -14.5 -19.5t-12.5 -14.5t-16 -13t-16 -3q-26 0 -26 19q0 6 4.5 17.5t20 24.5t37.5 13q11 14 45.5 54t67.5 83q-30 6 -58.5 20.5t-33.5 23.5 q-24 -15 -54 -96.5t-36 -88.5z" />
<glyph unicode="{" horiz-adv-x="315" vert-adv-y="563" d="M22 239q0 28 38 40q13 4 28 13t34 25t31.5 42t12.5 56q0 15 -4.5 43t-4.5 42q0 44 27.5 77t71.5 33q42 0 66.5 -30t24.5 -59q0 -17 -9 -25t-22 -8q-25 0 -25 24q0 13 11 13q14 -14 27 -14q7 0 7 9q0 6 -7.5 20t-30.5 29.5t-55 15.5q-39 0 -56.5 -27.5t-17.5 -54.5 q0 -14 7.5 -42.5t7.5 -47.5q0 -37 -16.5 -69t-36 -49t-39 -33.5t-23.5 -25.5q4 -11 20 -27.5t31 -31.5t27.5 -44t12.5 -64q0 -23 -11.5 -53t-11.5 -46q0 -29 18.5 -58t63.5 -29q25 0 25 -9q0 -5 -8 -9t-19 -4q-47 3 -69.5 38.5t-22.5 72.5q0 19 10.5 50.5t10.5 51.5 q0 28 -13.5 52t-28 37t-47.5 38q-5 4 -12 9t-10 7.5t-6.5 6t-5 7t-1.5 8.5z" />
<glyph unicode="|" horiz-adv-x="99" vert-adv-y="563" d="M31 231q0 7 1.5 141t1.5 190q0 1 5 4t12.5 7t10.5 7q0 -24 -0.5 -155.5t-0.5 -145.5q0 -357 7 -402q-13 -10 -33 -15q-4 51 -4 369z" />
<glyph unicode="}" horiz-adv-x="365" vert-adv-y="563" d="M-20 -49q0 33 32 33q26 0 26 -29q0 -11 -6 -11q-4 0 -17.5 9t-17.5 9q-5 0 -5 -9q0 -8 8 -22.5t30.5 -30t54.5 -15.5q39 0 56.5 28.5t17.5 55.5q0 13 -6 40t-6 44q0 38 17 70t37 48t40.5 31.5t24.5 23.5q-4 11 -18.5 28t-29.5 33t-27 45t-12 64q0 25 13 55.5t13 48.5 q0 29 -17.5 57.5t-57.5 28.5q-25 0 -25 10q0 12 23 12q31 0 61 -30t30 -80q0 -20 -12.5 -53t-12.5 -54q0 -29 13.5 -53.5t27.5 -37t44 -36.5q3 -3 9.5 -7.5t9 -6.5t6.5 -5.5t5.5 -6t2.5 -6t1 -7.5q0 -26 -39 -39q-13 -4 -28 -12.5t-35 -24t-33 -42t-13 -58.5q0 -14 3 -39 t3 -38q0 -46 -27.5 -78.5t-71.5 -32.5q-42 0 -67 29.5t-25 60.5z" />
<glyph unicode="~" horiz-adv-x="269" vert-adv-y="563" d="M19 184q26 42 37 42q16 0 56 -18t52 -18q9 0 15.5 1.5t12 5t8.5 6.5t9 9.5t9 9.5q12 -15 13 -19q-4 -3 -11.5 -10t-12.5 -11t-13 -7.5t-17 -3.5q-27 0 -60.5 18t-44.5 18q-14 0 -24 -16t-13 -16q-8 0 -16 9z" />
<glyph horiz-adv-x="370" vert-adv-y="563" />
<glyph unicode="&#xa0;" horiz-adv-x="292" vert-adv-y="563" />
<glyph unicode="&#xa1;" horiz-adv-x="189" vert-adv-y="563" d="M20 -1q0 7 45 199t45 210q0 4 3 4q5 0 12 -4.5t7 -7.5q0 -1 -6.5 -30t-14 -69t-15.5 -86t-13.5 -93t-5.5 -78q0 -35 1 -45q-10 0 -22 2t-17 2q-11 0 -19 -4zM128 560q0 26 26 26q19 0 22 -10q0 -37 -29 -37q-7 0 -13 7t-6 14z" />
<glyph unicode="&#xa2;" horiz-adv-x="252" vert-adv-y="563" d="M20 95q0 60 37.5 119.5t101.5 69.5l20 103q0 1 5 3.5t12 6.5t11 7q-1 -10 -20 -118q34 -1 57.5 -16.5t23.5 -27.5q0 -10 -9 -17.5t-17 -7.5q-13 0 -13 13q0 6 1 14t1 10q0 18 -46 18l-46 -256q20 4 30 14q3 3 7 8t6 7t6.5 4t10.5 2q28 0 34.5 2.5t19.5 16.5 q-40 -66 -116 -70q-12 -63 -13 -81q-16 -11 -33 -15q1 14 15 97q-86 15 -86 94zM58 74q0 -51 51 -59l46 249q-38 -20 -67.5 -72t-29.5 -118z" />
<glyph unicode="&#xa3;" horiz-adv-x="568" vert-adv-y="563" d="M57 82q0 99 140 99q48 0 100 -28q23 46 30 121q-28 8 -39 8q-16 0 -28 -14.5t-15 -14.5q-9 0 -18 10q20 36 41 36t61 -11q1 9 3 31.5t3 32t4 28.5t6 27.5t8 22.5t12 20.5t16 13.5t21.5 10t27.5 3q103 0 103 -58q0 -35 -43 -35q-27 0 -50 10q7 -2 23 -2q43 0 43 31 q0 36 -70 36q-18 0 -30 -11t-19 -36.5t-10.5 -46.5t-7.5 -60l-3 -27q15 -4 30 -4q10 0 17.5 1t14.5 5.5t9.5 6.5t10.5 11t10 11q16 -18 17 -23q-37 -28 -65 -28q-23 0 -46 5q-11 -81 -35 -124q34 -22 55.5 -45.5t27.5 -39t12 -25.5t16 -10q19 0 30 11t20 11q35 0 35 -10 q0 -9 -29.5 -20t-55.5 -11q-20 0 -30 11t-14.5 26.5t-23.5 40t-52 45.5q-75 -123 -186 -123q-77 0 -77 82zM85 72q0 -28 10.5 -43.5t40.5 -15.5q24 0 48.5 13t42.5 31t32.5 37.5t21.5 31.5t8 14q-38 24 -84 24q-18 0 -35 -3t-38 -11.5t-34 -28.5t-13 -49z" />
<glyph unicode="&#xa4;" horiz-adv-x="353" vert-adv-y="563" d="M32 151q45 36 53 41q-7 15 -7 34q0 29 17 51l-30 31v2q0 2 3 13.5t4 16.5l42 -44q21 15 49 15q34 0 60 -24l43 30q0 1 1 1t12 -5.5t17 -6.5l-58 -40q10 -17 10 -40q0 -28 -15 -48q27 -25 48 -38q0 -4 -12 -35l-55 50l-2 1q-21 -15 -49 -15q-37 0 -60 25q-33 -26 -40 -33 q-17 6 -31 18zM104 226q0 -25 17.5 -42t41.5 -17t41.5 17t17.5 42q0 24 -17.5 41t-41.5 17t-41.5 -17t-17.5 -41z" />
<glyph unicode="&#xa6;" horiz-adv-x="99" vert-adv-y="563" d="M32 105h30q0 -197 6 -228q-13 -10 -33 -15q-3 36 -3 243zM33 356q1 71 1 206q0 1 5 4t12.5 7t10.5 7q0 -143 -1 -224h-28z" />
<glyph unicode="&#xa7;" horiz-adv-x="474" vert-adv-y="563" d="M42 5q0 28 10.5 41t22.5 13q21 0 21 -11q0 -1 -5.5 -6t-10.5 -18t-5 -33q0 -43 43.5 -80.5t106.5 -37.5q68 0 122.5 39t54.5 92q0 30 -15 53t-60 44q-36 -12 -71 -12q-56 0 -90 31t-34 95q0 33 15.5 57t31 33.5t39.5 19.5q-33 11 -52.5 24t-27.5 29t-10 27.5t-2 32.5 q0 51 53 87.5t147 36.5q86 0 140.5 -39.5t54.5 -104.5q0 -54 -26 -54q-20 0 -20 11q0 2 5.5 7t10 17.5t4.5 32.5q0 43 -40.5 80.5t-102.5 37.5q-70 0 -127 -36t-57 -89q0 -21 3 -33.5t18.5 -28t45.5 -29.5q39 6 67 6q136 0 136 -123q0 -25 -8 -44t-25.5 -32.5t-27.5 -19 t-31 -14.5q64 -22 81.5 -48t17.5 -67q0 -51 -51 -91.5t-144 -40.5q-87 0 -147.5 40.5t-60.5 104.5zM177 201q0 -45 22.5 -68.5t58.5 -23.5q49 0 94.5 33t45.5 76q0 47 -28 74t-71 27q-47 0 -84.5 -31.5t-37.5 -86.5z" />
<glyph unicode="&#xa8;" horiz-adv-x="244" vert-adv-y="563" d="M131 450q0 6 10.5 12t10.5 16q0 2 -2 5l-3 3q20 10 31 10q10 0 10 -10q0 -16 -13.5 -31t-28.5 -15t-15 10zM287 450q0 6 11 12t11 16q0 3 -5 8q23 10 30 10q11 0 11 -10q0 -17 -13.5 -31.5t-29.5 -14.5q-15 0 -15 10z" />
<glyph unicode="&#xa9;" horiz-adv-x="465" vert-adv-y="563" d="M13 171q0 86 64.5 147.5t151.5 61.5q86 0 144 -61t58 -148q0 -86 -64.5 -147t-151.5 -61q-86 0 -144 60.5t-58 147.5zM26 171q0 -81 54 -137.5t135 -56.5t141 57t60 137q0 82 -53.5 138.5t-133.5 56.5q-82 0 -142.5 -57.5t-60.5 -137.5zM113 127q0 37 14 74.5t47 67 t78 29.5q33 0 54.5 -14t21.5 -25q0 -9 -8 -16.5t-14 -7.5q-12 0 -12 13q0 5 1 12.5t1 9.5q0 16 -42 16q-36 0 -71.5 -52t-35.5 -126q0 -21 11.5 -34t22.5 -16t22 -3q33 0 49 19q3 3 6.5 7t5.5 6t6 4t10 2q19 0 19 -8q0 -12 -32 -27.5t-64 -15.5q-13 0 -30.5 4.5t-38.5 25.5 t-21 55z" />
<glyph unicode="&#xab;" horiz-adv-x="407" vert-adv-y="0" d="M21 292l196 121l21 -36q-112 -56 -181 -96l157 -255l-36 -22q-84 165 -157 288zM169 285l195 121l23 -37q-102 -49 -183 -95l157 -254l-35 -23q-79 157 -157 288z" />
<glyph unicode="&#xad;" horiz-adv-x="375" vert-adv-y="563" d="M72 214q0 9 5 27q45 -1 169 -1q68 0 108 7q-4 -20 -7 -32q-51 -4 -75 -4q-6 0 -74.5 1.5t-125.5 1.5z" />
<glyph unicode="&#xae;" horiz-adv-x="465" vert-adv-y="563" d="M13 171q0 86 64.5 147.5t151.5 61.5q86 0 144 -61t58 -148q0 -86 -64.5 -147t-151.5 -61q-86 0 -144 60.5t-58 147.5zM26 171q0 -81 54 -137.5t135 -56.5t141 57t60 137q0 82 -53.5 138.5t-133.5 56.5q-82 0 -142.5 -57.5t-60.5 -137.5zM107 50q0 3 3.5 7t9 10t9.5 12 q9 14 19.5 49t25.5 97t22 87q5 21 11 21t22.5 -4.5t39 -14t39.5 -29.5t17 -46q0 -41 -63 -63q10 -11 16.5 -40.5t11.5 -51.5t15 -22t17.5 6t14.5 6q10 0 10 -5q0 -6 -14 -13t-29 -7q-22 0 -32 25t-15 56t-12 38q-18 -3 -25 -3q-6 0 -12 1.5t-9.5 4t-6.5 5t-4 4.5l-2 1 q-27 -132 -51 -132q-19 0 -28 1zM191 199q10 7 16 7q22 0 42 -17q49 25 49 59q0 20 -26 42t-51 22q-27 -106 -30 -113zM203 184q8 -2 17 -2q8 0 11 3q-2 3 -14 3q-14 0 -14 -3v-1z" />
<glyph unicode="&#xaf;" horiz-adv-x="291" vert-adv-y="563" d="M91 481q10 3 39 3q19 0 61 -2t56 -2q35 0 71 9q3 -4 4.5 -18t1.5 -15q-28 -2 -70 -2q-38 0 -66.5 2t-37.5 2q-16 0 -31.5 -0.5t-18.5 -0.5q-2 0 -2 4.5t-1.5 10.5t-5.5 9z" />
<glyph unicode="&#xb0;" horiz-adv-x="208" vert-adv-y="563" d="M57 436q0 21 14.5 36t35.5 15q22 0 37.5 -15t15.5 -36q0 -22 -15 -37t-38 -15q-21 0 -35.5 15t-14.5 37zM75 434q0 -15 10.5 -26t24.5 -11q15 0 25.5 11t10.5 26t-10.5 25.5t-25.5 10.5q-14 0 -24.5 -11t-10.5 -25z" />
<glyph unicode="&#xb1;" horiz-adv-x="353" vert-adv-y="563" d="M21 270q16 -1 63 -1.5t67 -0.5l23 123q0 2 5.5 3.5t13 4t11.5 4.5l-24 -135h24q62 0 107 7q7 -8 15 -33q-57 -3 -74 -3q-5 0 -31 0.5t-46 0.5q-1 -9 -7 -55q0 -1 -2 -15t-3.5 -30.5t-1.5 -22.5q-16 -8 -35 -10q5 48 10 75q1 10 10 59q-15 0 -51 0.5t-56 0.5q-2 0 -4.5 5 t-6.5 12t-7 11zM22 52q2 12 6 27q88 -2 168 -2q65 0 108 8q-1 -5 -3.5 -17t-2.5 -16q-57 -3 -74 -3q-7 0 -76 1.5t-126 1.5z" />
<glyph unicode="&#xb2;" horiz-adv-x="370" vert-adv-y="563" d="M63 375q0 25 16.5 40.5t51.5 15.5q25 0 52 -19q6 8 19 24.5t19.5 24.5t16.5 21.5t15.5 21.5t11 17.5t8 15.5t2.5 11q0 19 -44 19q-40 0 -56 -19q-4 -6 -6 -11.5t-3.5 -12.5t-3.5 -12q-4 -6 -11 -6q-14 0 -14 5q2 26 21 44q2 1 8 6t10 7.5t12.5 6t20.5 5t28 1.5 q28 0 43.5 -11t15.5 -25q0 -10 -14 -33t-29.5 -42.5t-34.5 -42.5t-20 -25q14 -9 22 -18t9 -14.5t2.5 -8.5t4.5 -3q8 0 27.5 15.5t26.5 15.5q4 0 7 -3t4 -6l1 -3l-1 -3q-16 -3 -39.5 -21.5t-29.5 -18.5q-7 0 -12.5 6t-5.5 14q0 21 -23 41q-46 -64 -81 -64q-26 0 -36.5 13.5 t-10.5 30.5zM79 374q0 -34 28 -34q29 0 70 63q-26 17 -45 17q-31 0 -42 -11.5t-11 -34.5z" />
<glyph unicode="&#xb3;" horiz-adv-x="370" vert-adv-y="563" d="M86 409q0 29 18 29q11 0 11 -4q0 -1 -2.5 -4t-4.5 -10t-2 -18q0 -23 21 -40.5t56 -17.5q36 0 63.5 21.5t27.5 51.5q0 34 -39 52q-5 -5 -12 -5q-18 0 -18 13v1q1 6 14.5 8t27 11t13.5 30q0 39 -43 39q-22 0 -33.5 -8t-11.5 -20q0 -9 8 -12t8 -4q0 -3 -7 -3q-28 0 -28 20 q0 17 22.5 28.5t46.5 11.5q27 0 43 -17t16 -39q0 -34 -42 -49q61 -21 61 -64q0 -29 -28.5 -54.5t-79.5 -25.5q-47 0 -76.5 21.5t-29.5 57.5z" />
<glyph unicode="&#xb4;" horiz-adv-x="289" vert-adv-y="563" d="M112 373q14 68 21 82q19 43 47 43q19 0 19 -14q0 -3 -12 -51q-12 12 -18 12q-15 0 -28 -18q-5 -7 -13.5 -24.5t-15.5 -29.5z" />
<glyph unicode="&#xb5;" horiz-adv-x="331" vert-adv-y="563" d="M-24 -154l47 241q1 4 2.5 10.5t2.5 14.5q-13 -10 -16 -16q-3 -4 -6.5 -13.5t-5.5 -12.5l-1 1q12 35 30 66q5 10 13.5 50.5t21.5 70.5t34 30q25 0 25 -22q0 -15 -13.5 -49.5t-43.5 -65.5q-10 -47 -11 -67q0 -28 12.5 -49t37.5 -21q42 0 63.5 26.5t38.5 85.5 q6 19 17.5 63.5t22.5 85.5q5 11 23 11t18 -15q0 -8 -17 -72q-28 -81 -28 -118q0 -67 26 -67q21 0 37 15q5 8 13 22.5t11 19.5l1 -1q-20 -49 -38 -62q-13 -8 -25 -8q-13 0 -21.5 2.5t-13.5 10t-6.5 13t-4.5 19.5t-5 20q-19 -36 -32 -46q-24 -19 -79 -19q-38 0 -61 28 q-7 -29 -16.5 -72t-17.5 -78t-8 -37q-5 -9 -10 -9q-7 0 -12 5.5t-5 8.5zM70 177q13 13 26.5 44.5t13.5 45.5q0 8 -8 8q-6 -6 -17 -40.5t-15 -57.5z" />
<glyph unicode="&#xb7;" horiz-adv-x="147" vert-adv-y="563" d="M49 194q0 37 28 37q7 0 13.5 -6.5t6.5 -13.5q0 -26 -27 -26q-18 0 -21 9z" />
<glyph unicode="&#xb8;" horiz-adv-x="287" vert-adv-y="563" d="M111 -83q0 2 2 2q8 0 21.5 -22t21.5 -23q10 4 10 34q0 53 -38 104q17 -5 19 -6q42 -30 42 -77q0 -22 -7.5 -41.5t-25.5 -19.5q-8 0 -14 5t-15.5 19.5t-14.5 20.5q-1 2 -1 4z" />
<glyph unicode="&#xb9;" horiz-adv-x="222" vert-adv-y="563" d="M84 424q14 16 44 66q3 5 9 20l22 56q2 11 10 11t8 -8q0 -4 -3 -21.5t-10.5 -41.5t-17.5 -32q-23 -105 -23 -120q0 -8 3 -19q-4 -1 -12 -1q-2 0 -7 0.5t-9 0.5q0 16 4 39t8.5 40t9.5 32l4 15q-3 -2 -10.5 -12t-15 -17.5t-14.5 -7.5z" />
<glyph unicode="&#xbb;" horiz-adv-x="422" vert-adv-y="0" d="M21 29l210 214q-45 42 -157 134l30 30l164 -161q-88 -91 -216 -246zM156 29l209 214q-69 63 -157 134l29 30l165 -161q-99 -104 -216 -246z" />
<glyph unicode="&#xbc;" horiz-adv-x="533" vert-adv-y="0" d="M20 -40q19 20 81 86.5t76.5 83.5t61 69.5t72.5 88t69.5 94t91.5 128.5l33 -27l-453 -549zM84 396q14 16 44 66q2 4 9 19q19 49 22 57q2 11 10 11t8 -8q0 -4 -3 -21.5t-10.5 -41.5t-17.5 -33q-23 -103 -23 -119q0 -10 3 -19q-4 -1 -12 -1q-2 0 -7 0.5t-9 0.5q0 16 4 39 t8.5 40t9.5 32l4 15q-3 -2 -10.5 -12.5t-15 -17.5t-14.5 -7zM292 61q0 1 2 3q38 24 92 72.5t69 60.5q4 4 7 13t12 12q14 0 14 -11q-21 -65 -36 -147h20q7 -5 7 -15q0 -3 -9 -3h-20q-3 -11 -7 -34.5t-7 -34.5q-1 -4 -5 -4h-23q7 15 19 73q-108 3 -123 4q-5 0 -8.5 4t-3.5 7z M333 69q15 -5 96 -5q11 54 26 109q-18 -14 -55.5 -49.5t-66.5 -54.5z" />
<glyph unicode="&#xbd;" horiz-adv-x="569" vert-adv-y="0" d="M20 -40q19 20 81 86.5t76.5 83.5t61 69.5t72.5 88t69.5 94t91.5 128.5l33 -27l-453 -549zM84 395q14 17 44 66q2 4 9 19l22 57q2 11 10 11t8 -8q0 -4 -3 -21.5t-10.5 -41.5t-17.5 -33q-23 -104 -23 -119q0 -10 3 -19q-4 -1 -12 -1q-2 0 -7 0.5t-9 0.5q0 16 4 39t8.5 40 t9.5 32l4 15q-3 -2 -10.5 -12t-15 -17.5t-14.5 -7.5zM304 15q0 55 67 55q25 0 52 -18q5 7 15 19t15.5 19t14 18t13.5 17.5t11.5 15.5t10 15t7 12.5t5 11t1.5 8.5q0 19 -44 19q-38 0 -57 -19q-4 -6 -6 -11.5t-3.5 -13t-3.5 -12.5q-3 -5 -10 -5q-15 0 -15 4q2 27 21 44l7 6 q7 6 11 8t13 6t21 5.5t28 1.5q28 0 43 -11.5t15 -24.5q0 -11 -14 -34t-29.5 -42.5t-34.5 -42t-20 -24.5q14 -9 22 -18t9 -14.5t2.5 -8.5t5.5 -3q8 0 27 15t26 15q4 0 7 -3t4 -5l1 -3l-1 -3q-15 -3 -38.5 -21.5t-29.5 -18.5q-8 0 -13.5 6t-5.5 14q0 21 -22 40 q-46 -63 -81 -63q-27 0 -37 13.5t-10 30.5zM319 14q0 -35 29 -35q30 0 69 64q-26 17 -45 17q-31 0 -42 -11.5t-11 -34.5z" />
<glyph unicode="&#xbe;" horiz-adv-x="533" vert-adv-y="0" d="M20 -40q19 20 81 86.5t76.5 83.5t61 69.5t72.5 88t69.5 94t91.5 128.5l33 -27l-453 -549zM64 380q0 29 18 29q12 0 12 -5q0 -1 -2 -4t-4.5 -9.5t-2.5 -17.5q0 -23 20.5 -41t55.5 -18q37 0 64.5 22t27.5 52q0 34 -39 51q-6 -4 -13 -4q-17 0 -17 12v1q1 6 14.5 8.5t26.5 11 t13 30.5q0 39 -43 39q-22 0 -33.5 -8.5t-11.5 -19.5q0 -9 8 -12t8 -4q0 -4 -7 -4q-11 0 -19 6t-8 15q0 17 22.5 28.5t45.5 11.5q27 0 43.5 -17t16.5 -39q0 -32 -42 -50q60 -19 60 -63q0 -29 -28.5 -54.5t-78.5 -25.5q-48 0 -77.5 21.5t-29.5 57.5zM292 61q0 1 2 3 q38 24 92 72.5t69 60.5q4 4 7 13t12 12q14 0 14 -11q-21 -65 -36 -147h20q7 -5 7 -15q0 -3 -9 -3h-20q-3 -11 -7 -34.5t-7 -34.5q-1 -4 -5 -4h-23q7 15 19 73q-108 3 -123 4q-5 0 -8.5 4t-3.5 7zM333 69q15 -5 96 -5q11 54 26 109q-18 -14 -55.5 -49.5t-66.5 -54.5z" />
<glyph unicode="&#xbf;" horiz-adv-x="354" vert-adv-y="563" d="M21 152q0 42 12 66q8 17 30 37.5t39 27.5q15 7 37.5 15.5t35.5 14t26 12t19 14t6 15.5q0 9 -5.5 29t-5.5 28q0 3 8 3q10 0 23 -4.5t13 -7.5q0 -1 -1.5 -10.5t-3.5 -16t-5.5 -17t-10 -21t-14.5 -20.5q-9 -9 -96 -51q-63 -31 -63 -112q0 -142 130 -142q36 0 58.5 10.5 t28 19.5t13.5 26q6 14 6 22q0 13 -15 23q-3 2 -10.5 5l-12.5 5t-5 4q0 3 6 5.5t10 2.5q22 0 40.5 -13t18.5 -32v-1q-2 -23 -8 -32q-27 -57 -128 -57q-21 0 -61 7q-12 2 -26.5 8t-37 20t-37 44.5t-14.5 72.5zM245 562q0 26 26 26q19 0 22 -10q0 -37 -28 -37q-7 0 -13.5 6.5 t-6.5 14.5z" />
<glyph unicode="&#xc0;" horiz-adv-x="816" vert-adv-y="563" d="M42 124q0 23 16 41t48 18q64 0 86 -64q7 -19 7 -28q-6 -10 -21 -10q-12 0 -17 6v28q0 28 -13.5 42.5t-35.5 14.5q-19 0 -29 -20t-10 -46q0 -27 16 -47t40.5 -29.5t46.5 -14t41 -4.5q32 0 53 5t43.5 17.5t51 43.5t62.5 71.5t93 113.5q16 21 25 32q-50 39 -117 78t-96 39 q-27 -1 -46.5 -17.5t-19.5 -41.5q0 -38 13 -64t33.5 -37t35.5 -14.5t29 -3.5q6 1 7.5 4t1.5 8.5t1 7.5q3 2 10 2q15 0 15 -12q0 -18 -31 -18q-65 0 -107 42t-42 92q0 34 23 50t58 16q30 0 69 -16t64 -31.5t64 -42.5t43 -29q17 23 58.5 87.5t62.5 102.5q6 13 13.5 37.5 t16.5 35.5q14 12 27 12q16 0 28 -10t12 -23q0 -10 -15 -39t-30 -53l-15 -24q-32 -55 -32 -145q0 -30 3 -48q1 0 7 -1.5t17 -1.5q19 0 28.5 9t10.5 19.5t6.5 19.5t16.5 9q7 0 12.5 -7.5t5.5 -17.5q0 -17 -15.5 -31.5t-43.5 -14.5q-19 0 -45 7q1 -6 7.5 -38.5t9.5 -58t3 -55.5 q6 -6 20.5 -37t30.5 -31q28 0 62 62l1 -1q-13 -35 -31.5 -52.5t-33.5 -17.5t-24 10t-16 27.5t-11 22.5q-4 -15 -6.5 -22t-9.5 -18t-20.5 -15.5t-33.5 -4.5q-36 0 -53.5 16.5t-17.5 41.5q0 23 14 41.5t47 18.5q31 0 49 -15v1q0 61 -19 133q-39 15 -77 40 q-87 -119 -145 -179.5t-97 -79t-90 -18.5q-59 0 -101 12.5t-62 33t-28 39.5t-8 39zM581 287q27 -17 67 -36q-2 12 -2 46q0 53 5 80q-2 -2 -13.5 -17t-29.5 -38t-27 -35zM584 51q0 -16 11 -27.5t33 -11.5q7 0 13 3t10 7t7 10.5t5 12t3 13t1.5 11.5t0.5 10l1 6q-18 17 -39 18 h-2q-23 0 -33.5 -17.5t-10.5 -34.5zM753 613q7 12 18 27.5t15 22.5q6 12 6 20q0 18 -24 23q40 38 45 38q16 0 21 -25v-6q0 -25 -45 -70q-10 -10 -36 -30z" />
<glyph unicode="&#xc1;" horiz-adv-x="816" vert-adv-y="563" d="M42 124q0 23 16 41t48 18q64 0 86 -64q7 -19 7 -28q-6 -10 -21 -10q-12 0 -17 6v28q0 28 -13.5 42.5t-35.5 14.5q-19 0 -29 -20t-10 -46q0 -27 16 -47t40.5 -29.5t46.5 -14t41 -4.5q32 0 53 5t43.5 17.5t51 43.5t62.5 71.5t93 113.5q16 21 25 32q-50 39 -117 78t-96 39 q-27 -1 -46.5 -17.5t-19.5 -41.5q0 -38 13 -64t33.5 -37t35.5 -14.5t29 -3.5q6 1 7.5 4t1.5 8.5t1 7.5q3 2 10 2q15 0 15 -12q0 -18 -31 -18q-65 0 -107 42t-42 92q0 34 23 50t58 16q30 0 69 -16t64 -31.5t64 -42.5t43 -29q17 23 58.5 87.5t62.5 102.5q6 13 13.5 37.5 t16.5 35.5q14 12 27 12q16 0 28 -10t12 -23q0 -10 -15 -39t-30 -53l-15 -24q-32 -55 -32 -145q0 -30 3 -48q1 0 7 -1.5t17 -1.5q19 0 28.5 9t10.5 19.5t6.5 19.5t16.5 9q7 0 12.5 -7.5t5.5 -17.5q0 -17 -15.5 -31.5t-43.5 -14.5q-19 0 -45 7q1 -6 7.5 -38.5t9.5 -58t3 -55.5 q6 -6 20.5 -37t30.5 -31q28 0 62 62l1 -1q-13 -35 -31.5 -52.5t-33.5 -17.5t-24 10t-16 27.5t-11 22.5q-4 -15 -6.5 -22t-9.5 -18t-20.5 -15.5t-33.5 -4.5q-36 0 -53.5 16.5t-17.5 41.5q0 23 14 41.5t47 18.5q31 0 49 -15v1q0 61 -19 133q-39 15 -77 40 q-87 -119 -145 -179.5t-97 -79t-90 -18.5q-59 0 -101 12.5t-62 33t-28 39.5t-8 39zM581 287q27 -17 67 -36q-2 12 -2 46q0 53 5 80q-2 -2 -13.5 -17t-29.5 -38t-27 -35zM584 51q0 -16 11 -27.5t33 -11.5q7 0 13 3t10 7t7 10.5t5 12t3 13t1.5 11.5t0.5 10l1 6q-18 17 -39 18 h-2q-23 0 -33.5 -17.5t-10.5 -34.5zM756 613q14 68 21 82q19 43 47 43q19 0 19 -14q0 -3 -12 -51q-12 12 -18 12q-15 0 -28 -18q-4 -7 -13 -24.5t-16 -29.5z" />
<glyph unicode="&#xc2;" horiz-adv-x="816" vert-adv-y="563" d="M42 124q0 23 16 41t48 18q64 0 86 -64q7 -19 7 -28q-6 -10 -21 -10q-12 0 -17 6v28q0 28 -13.5 42.5t-35.5 14.5q-19 0 -29 -20t-10 -46q0 -27 16 -47t40.5 -29.5t46.5 -14t41 -4.5q32 0 53 5t43.5 17.5t51 43.5t62.5 71.5t93 113.5q16 21 25 32q-50 39 -117 78t-96 39 q-27 -1 -46.5 -17.5t-19.5 -41.5q0 -38 13 -64t33.5 -37t35.5 -14.5t29 -3.5q6 1 7.5 4t1.5 8.5t1 7.5q3 2 10 2q15 0 15 -12q0 -18 -31 -18q-65 0 -107 42t-42 92q0 34 23 50t58 16q30 0 69 -16t64 -31.5t64 -42.5t43 -29q17 23 58.5 87.5t62.5 102.5q6 13 13.5 37.5 t16.5 35.5q14 12 27 12q16 0 28 -10t12 -23q0 -10 -15 -39t-30 -53l-15 -24q-32 -55 -32 -145q0 -30 3 -48q1 0 7 -1.5t17 -1.5q19 0 28.5 9t10.5 19.5t6.5 19.5t16.5 9q7 0 12.5 -7.5t5.5 -17.5q0 -17 -15.5 -31.5t-43.5 -14.5q-19 0 -45 7q1 -6 7.5 -38.5t9.5 -58t3 -55.5 q6 -6 20.5 -37t30.5 -31q28 0 62 62l1 -1q-13 -35 -31.5 -52.5t-33.5 -17.5t-24 10t-16 27.5t-11 22.5q-4 -15 -6.5 -22t-9.5 -18t-20.5 -15.5t-33.5 -4.5q-36 0 -53.5 16.5t-17.5 41.5q0 23 14 41.5t47 18.5q31 0 49 -15v1q0 61 -19 133q-39 15 -77 40 q-87 -119 -145 -179.5t-97 -79t-90 -18.5q-59 0 -101 12.5t-62 33t-28 39.5t-8 39zM581 287q27 -17 67 -36q-2 12 -2 46q0 53 5 80q-2 -2 -13.5 -17t-29.5 -38t-27 -35zM584 51q0 -16 11 -27.5t33 -11.5q7 0 13 3t10 7t7 10.5t5 12t3 13t1.5 11.5t0.5 10l1 6q-18 17 -39 18 h-2q-23 0 -33.5 -17.5t-10.5 -34.5zM628 616q6 17 23.5 31.5t39.5 36t36 52.5h39q17 -39 43.5 -70t32.5 -50q-49 33 -64.5 46.5t-33.5 39.5q-10 -15 -21.5 -24.5t-42.5 -28.5t-52 -33z" />
<glyph unicode="&#xc3;" horiz-adv-x="816" vert-adv-y="563" d="M42 124q0 23 16 41t48 18q64 0 86 -64q7 -19 7 -28q-6 -10 -21 -10q-12 0 -17 6v28q0 28 -13.5 42.5t-35.5 14.5q-19 0 -29 -20t-10 -46q0 -27 16 -47t40.5 -29.5t46.5 -14t41 -4.5q32 0 53 5t43.5 17.5t51 43.5t62.5 71.5t93 113.5q16 21 25 32q-50 39 -117 78t-96 39 q-27 -1 -46.5 -17.5t-19.5 -41.5q0 -38 13 -64t33.5 -37t35.5 -14.5t29 -3.5q6 1 7.5 4t1.5 8.5t1 7.5q3 2 10 2q15 0 15 -12q0 -18 -31 -18q-65 0 -107 42t-42 92q0 34 23 50t58 16q30 0 69 -16t64 -31.5t64 -42.5t43 -29q17 23 58.5 87.5t62.5 102.5q6 13 13.5 37.5 t16.5 35.5q14 12 27 12q16 0 28 -10t12 -23q0 -10 -15 -39t-30 -53l-15 -24q-32 -55 -32 -145q0 -30 3 -48q1 0 7 -1.5t17 -1.5q19 0 28.5 9t10.5 19.5t6.5 19.5t16.5 9q7 0 12.5 -7.5t5.5 -17.5q0 -17 -15.5 -31.5t-43.5 -14.5q-19 0 -45 7q1 -6 7.5 -38.5t9.5 -58t3 -55.5 q6 -6 20.5 -37t30.5 -31q28 0 62 62l1 -1q-13 -35 -31.5 -52.5t-33.5 -17.5t-24 10t-16 27.5t-11 22.5q-4 -15 -6.5 -22t-9.5 -18t-20.5 -15.5t-33.5 -4.5q-36 0 -53.5 16.5t-17.5 41.5q0 23 14 41.5t47 18.5q31 0 49 -15v1q0 61 -19 133q-39 15 -77 40 q-87 -119 -145 -179.5t-97 -79t-90 -18.5q-59 0 -101 12.5t-62 33t-28 39.5t-8 39zM581 287q27 -17 67 -36q-2 12 -2 46q0 53 5 80q-2 -2 -13.5 -17t-29.5 -38t-27 -35zM584 51q0 -16 11 -27.5t33 -11.5q7 0 13 3t10 7t7 10.5t5 12t3 13t1.5 11.5t0.5 10l1 6q-18 17 -39 18 h-2q-23 0 -33.5 -17.5t-10.5 -34.5zM660 663q21 34 37 34t56 -11.5t52 -11.5q6 0 11 0.5t10 2.5t7.5 2.5t7 4.5t5.5 5l6.5 6.5l6.5 6.5l6 -7q6 -7 7 -12q-32 -26 -54 -26q-27 0 -60.5 11t-44.5 11q-14 0 -24 -12t-13 -12q-8 0 -16 8z" />
<glyph unicode="&#xc4;" horiz-adv-x="816" vert-adv-y="563" d="M42 124q0 23 16 41t48 18q64 0 86 -64q7 -19 7 -28q-6 -10 -21 -10q-12 0 -17 6v28q0 28 -13.5 42.5t-35.5 14.5q-19 0 -29 -20t-10 -46q0 -27 16 -47t40.5 -29.5t46.5 -14t41 -4.5q32 0 53 5t43.5 17.5t51 43.5t62.5 71.5t93 113.5q16 21 25 32q-50 39 -117 78t-96 39 q-27 -1 -46.5 -17.5t-19.5 -41.5q0 -38 13 -64t33.5 -37t35.5 -14.5t29 -3.5q6 1 7.5 4t1.5 8.5t1 7.5q3 2 10 2q15 0 15 -12q0 -18 -31 -18q-65 0 -107 42t-42 92q0 34 23 50t58 16q30 0 69 -16t64 -31.5t64 -42.5t43 -29q17 23 58.5 87.5t62.5 102.5q6 13 13.5 37.5 t16.5 35.5q14 12 27 12q16 0 28 -10t12 -23q0 -10 -15 -39t-30 -53l-15 -24q-32 -55 -32 -145q0 -30 3 -48q1 0 7 -1.5t17 -1.5q19 0 28.5 9t10.5 19.5t6.5 19.5t16.5 9q7 0 12.5 -7.5t5.5 -17.5q0 -17 -15.5 -31.5t-43.5 -14.5q-19 0 -45 7q1 -6 7.5 -38.5t9.5 -58t3 -55.5 q6 -6 20.5 -37t30.5 -31q28 0 62 62l1 -1q-13 -35 -31.5 -52.5t-33.5 -17.5t-24 10t-16 27.5t-11 22.5q-4 -15 -6.5 -22t-9.5 -18t-20.5 -15.5t-33.5 -4.5q-36 0 -53.5 16.5t-17.5 41.5q0 23 14 41.5t47 18.5q31 0 49 -15v1q0 61 -19 133q-39 15 -77 40 q-87 -119 -145 -179.5t-97 -79t-90 -18.5q-59 0 -101 12.5t-62 33t-28 39.5t-8 39zM581 287q27 -17 67 -36q-2 12 -2 46q0 53 5 80q-2 -2 -13.5 -17t-29.5 -38t-27 -35zM584 51q0 -16 11 -27.5t33 -11.5q7 0 13 3t10 7t7 10.5t5 12t3 13t1.5 11.5t0.5 10l1 6q-18 17 -39 18 h-2q-23 0 -33.5 -17.5t-10.5 -34.5zM681 667q0 6 10.5 12t10.5 16q0 2 -2 5l-3 3q20 10 31 10q10 0 10 -10q0 -16 -13.5 -31t-28.5 -15t-15 10zM837 667q0 6 11 12t11 16q0 3 -5 8q23 10 30 10q11 0 11 -10q0 -17 -13.5 -31.5t-29.5 -14.5q-15 0 -15 10z" />
<glyph unicode="&#xc5;" horiz-adv-x="816" vert-adv-y="563" d="M42 124q0 23 16 41t48 18q64 0 86 -64q7 -19 7 -28q-6 -10 -21 -10q-12 0 -17 6v28q0 28 -13.5 42.5t-35.5 14.5q-19 0 -29 -20t-10 -46q0 -27 16 -47t40.5 -29.5t46.5 -14t41 -4.5q32 0 53 5t43.5 17.5t51 43.5t62.5 71.5t93 113.5q16 21 25 32q-50 39 -117 78t-96 39 q-27 -1 -46.5 -17.5t-19.5 -41.5q0 -38 13 -64t33.5 -37t35.5 -14.5t29 -3.5q6 1 7.5 4t1.5 8.5t1 7.5q3 2 10 2q15 0 15 -12q0 -18 -31 -18q-65 0 -107 42t-42 92q0 34 23 50t58 16q30 0 69 -16t64 -31.5t64 -42.5t43 -29q17 23 58.5 87.5t62.5 102.5q6 13 13.5 37.5 t16.5 35.5q14 12 27 12q16 0 28 -10t12 -23q0 -10 -15 -39t-30 -53l-15 -24q-32 -55 -32 -145q0 -30 3 -48q1 0 7 -1.5t17 -1.5q19 0 28.5 9t10.5 19.5t6.5 19.5t16.5 9q7 0 12.5 -7.5t5.5 -17.5q0 -17 -15.5 -31.5t-43.5 -14.5q-19 0 -45 7q1 -6 7.5 -38.5t9.5 -58t3 -55.5 q6 -6 20.5 -37t30.5 -31q28 0 62 62l1 -1q-13 -35 -31.5 -52.5t-33.5 -17.5t-24 10t-16 27.5t-11 22.5q-4 -15 -6.5 -22t-9.5 -18t-20.5 -15.5t-33.5 -4.5q-36 0 -53.5 16.5t-17.5 41.5q0 23 14 41.5t47 18.5q31 0 49 -15v1q0 61 -19 133q-39 15 -77 40 q-87 -119 -145 -179.5t-97 -79t-90 -18.5q-59 0 -101 12.5t-62 33t-28 39.5t-8 39zM581 287q27 -17 67 -36q-2 12 -2 46q0 53 5 80q-2 -2 -13.5 -17t-29.5 -38t-27 -35zM584 51q0 -16 11 -27.5t33 -11.5q7 0 13 3t10 7t7 10.5t5 12t3 13t1.5 11.5t0.5 10l1 6q-18 17 -39 18 h-2q-23 0 -33.5 -17.5t-10.5 -34.5zM695 645q0 26 18.5 44.5t44.5 18.5t45 -18.5t19 -44.5q0 -27 -19 -45.5t-45 -18.5t-44.5 18.5t-18.5 45.5zM718 643q0 -19 13 -31.5t31 -12.5t31 13t13 31q0 17 -13.5 30.5t-30.5 13.5q-18 0 -31 -13.5t-13 -30.5z" />
<glyph unicode="&#xc7;" horiz-adv-x="524" vert-adv-y="563" d="M57 309v1q9 1 26.5 3t25 3t23 4t27.5 7t30 11.5t39 17.5q7 8 59.5 69.5t80.5 81.5q101 74 159 74q29 0 29 -20v-5q0 -9 -19.5 -24.5t-100.5 -70.5q-18 -12 -62 -41t-67 -45t-39 -30q-19 -17 -46.5 -79t-27.5 -102q0 -65 42 -107.5t141 -42.5q46 0 66.5 23t20.5 52 q0 26 -10 42.5t-26 16.5h-8l-4 -1q-1 0 -1 2q0 4 6.5 8t17.5 4q25 0 47 -22t22 -55q0 -31 -29 -57.5t-102 -26.5h-3q34 -31 34 -71q0 -21 -8 -41t-25 -20q-9 0 -14.5 5t-15 19t-14.5 21q-1 2 -1 4t2 2q7 0 20.5 -21.5t22.5 -23.5q10 4 10 34q0 47 -31 93q-92 6 -148.5 54.5 t-56.5 97.5q0 84 67 178q-76 -18 -159 -22zM311 399l20 13q20 14 47 32.5t39 26.5q91 61 101 74q-68 -17 -129 -62q-13 -9 -32.5 -30t-32.5 -37z" />
<glyph unicode="&#xc8;" horiz-adv-x="492" vert-adv-y="563" d="M42 199q0 50 32.5 92t94.5 65q-6 27 -6 63q0 16 3 34t13 41.5t25 42t43.5 31.5t64.5 13q38 0 65.5 -14t39.5 -34.5t16.5 -35t4.5 -23.5q0 -25 -15 -36.5t-32 -11.5q-34 0 -34 10q0 4 4 5t11.5 0.5t12.5 1.5q25 9 25 38q0 44 -25.5 62.5t-57.5 18.5q-39 0 -65.5 -17.5 t-38.5 -45.5t-16.5 -51.5t-4.5 -47.5q0 -22 2 -33q38 15 75 15q44 0 70.5 -20.5t26.5 -51.5q0 -44 -26 -62.5t-62 -18.5q-7 0 -14 1t-12.5 2.5t-11 4t-9 4.5t-8.5 6t-6.5 5t-6 5.5l-5.5 5.5q-25 24 -43 81q-34 -18 -55.5 -55.5t-21.5 -77.5q0 -26 4 -50.5t16 -52t31 -47.5 t52 -33.5t76 -13.5q14 0 30 3t40.5 13t46 35.5t32.5 62.5q-9 36 -9 58q0 3 1 4q0 8 43 8q4 0 4 -14q0 -48 -16 -80v-13q0 -44 17 -44q14 0 28 24l1 -1q0 -1 -4.5 -8.5t-11 -15.5t-11.5 -8q-31 0 -34 42q-56 -80 -158 -80q-95 0 -163 52t-68 147zM204 356q5 -33 16 -55 q16 -32 30.5 -47t36.5 -15q27 0 41 27t14 51q0 55 -63 55q-40 0 -75 -16zM325 613q7 12 18 27.5t15 22.5q6 12 6 20q0 18 -24 23q40 38 45 38q16 0 21 -25v-6q0 -25 -45 -70q-10 -10 -36 -30z" />
<glyph unicode="&#xc9;" horiz-adv-x="492" vert-adv-y="563" d="M42 199q0 50 32.5 92t94.5 65q-6 27 -6 63q0 16 3 34t13 41.5t25 42t43.5 31.5t64.5 13q38 0 65.5 -14t39.5 -34.5t16.5 -35t4.5 -23.5q0 -25 -15 -36.5t-32 -11.5q-34 0 -34 10q0 4 4 5t11.5 0.5t12.5 1.5q25 9 25 38q0 44 -25.5 62.5t-57.5 18.5q-39 0 -65.5 -17.5 t-38.5 -45.5t-16.5 -51.5t-4.5 -47.5q0 -22 2 -33q38 15 75 15q44 0 70.5 -20.5t26.5 -51.5q0 -44 -26 -62.5t-62 -18.5q-7 0 -14 1t-12.5 2.5t-11 4t-9 4.5t-8.5 6t-6.5 5t-6 5.5l-5.5 5.5q-25 24 -43 81q-34 -18 -55.5 -55.5t-21.5 -77.5q0 -26 4 -50.5t16 -52t31 -47.5 t52 -33.5t76 -13.5q14 0 30 3t40.5 13t46 35.5t32.5 62.5q-9 36 -9 58q0 3 1 4q0 8 43 8q4 0 4 -14q0 -48 -16 -80v-13q0 -44 17 -44q14 0 28 24l1 -1q0 -1 -4.5 -8.5t-11 -15.5t-11.5 -8q-31 0 -34 42q-56 -80 -158 -80q-95 0 -163 52t-68 147zM204 356q5 -33 16 -55 q16 -32 30.5 -47t36.5 -15q27 0 41 27t14 51q0 55 -63 55q-40 0 -75 -16zM337 613q14 68 21 82q19 43 47 43q19 0 19 -14q0 -3 -12 -51q-12 12 -18 12q-15 0 -28 -18q-5 -7 -13.5 -24.5t-15.5 -29.5z" />
<glyph unicode="&#xca;" horiz-adv-x="492" vert-adv-y="563" d="M42 199q0 50 32.5 92t94.5 65q-6 27 -6 63q0 16 3 34t13 41.5t25 42t43.5 31.5t64.5 13q38 0 65.5 -14t39.5 -34.5t16.5 -35t4.5 -23.5q0 -25 -15 -36.5t-32 -11.5q-34 0 -34 10q0 4 4 5t11.5 0.5t12.5 1.5q25 9 25 38q0 44 -25.5 62.5t-57.5 18.5q-39 0 -65.5 -17.5 t-38.5 -45.5t-16.5 -51.5t-4.5 -47.5q0 -22 2 -33q38 15 75 15q44 0 70.5 -20.5t26.5 -51.5q0 -44 -26 -62.5t-62 -18.5q-7 0 -14 1t-12.5 2.5t-11 4t-9 4.5t-8.5 6t-6.5 5t-6 5.5l-5.5 5.5q-25 24 -43 81q-34 -18 -55.5 -55.5t-21.5 -77.5q0 -26 4 -50.5t16 -52t31 -47.5 t52 -33.5t76 -13.5q14 0 30 3t40.5 13t46 35.5t32.5 62.5q-9 36 -9 58q0 3 1 4q0 8 43 8q4 0 4 -14q0 -48 -16 -80v-13q0 -44 17 -44q14 0 28 24l1 -1q0 -1 -4.5 -8.5t-11 -15.5t-11.5 -8q-31 0 -34 42q-56 -80 -158 -80q-95 0 -163 52t-68 147zM204 356q5 -33 16 -55 q16 -32 30.5 -47t36.5 -15q27 0 41 27t14 51q0 55 -63 55q-40 0 -75 -16zM242 616q6 17 23.5 31.5t39.5 36t36 52.5h39q17 -39 43.5 -70t32.5 -50q-49 33 -64.5 46.5t-33.5 39.5q-10 -15 -21.5 -24.5t-42.5 -28.5t-52 -33z" />
<glyph unicode="&#xcb;" horiz-adv-x="492" vert-adv-y="563" d="M42 199q0 50 32.5 92t94.5 65q-6 27 -6 63q0 16 3 34t13 41.5t25 42t43.5 31.5t64.5 13q38 0 65.5 -14t39.5 -34.5t16.5 -35t4.5 -23.5q0 -25 -15 -36.5t-32 -11.5q-34 0 -34 10q0 4 4 5t11.5 0.5t12.5 1.5q25 9 25 38q0 44 -25.5 62.5t-57.5 18.5q-39 0 -65.5 -17.5 t-38.5 -45.5t-16.5 -51.5t-4.5 -47.5q0 -22 2 -33q38 15 75 15q44 0 70.5 -20.5t26.5 -51.5q0 -44 -26 -62.5t-62 -18.5q-7 0 -14 1t-12.5 2.5t-11 4t-9 4.5t-8.5 6t-6.5 5t-6 5.5l-5.5 5.5q-25 24 -43 81q-34 -18 -55.5 -55.5t-21.5 -77.5q0 -26 4 -50.5t16 -52t31 -47.5 t52 -33.5t76 -13.5q14 0 30 3t40.5 13t46 35.5t32.5 62.5q-9 36 -9 58q0 3 1 4q0 8 43 8q4 0 4 -14q0 -48 -16 -80v-13q0 -44 17 -44q14 0 28 24l1 -1q0 -1 -4.5 -8.5t-11 -15.5t-11.5 -8q-31 0 -34 42q-56 -80 -158 -80q-95 0 -163 52t-68 147zM204 356q5 -33 16 -55 q16 -32 30.5 -47t36.5 -15q27 0 41 27t14 51q0 55 -63 55q-40 0 -75 -16zM275 667q0 6 10.5 12t10.5 16q0 2 -2 5l-3 3q20 10 31 10q10 0 10 -10q0 -16 -13.5 -31t-28.5 -15t-15 10zM431 667q0 6 11 12t11 16q0 3 -5 8q23 10 30 10q11 0 11 -10q0 -17 -13.5 -31.5 t-29.5 -14.5q-15 0 -15 10z" />
<glyph unicode="&#xcc;" horiz-adv-x="500" vert-adv-y="563" d="M85 453q0 39 28.5 70.5t74.5 31.5q38 0 70.5 -17t60.5 -39.5t44 -28.5q31 -13 65 -13q46 0 108 49q11 8 22 38.5t31 36.5q8 0 16.5 -6t8.5 -15q-4 -28 -11 -43q-26 -54 -70 -177.5t-81 -210t-64 -101.5q-51 -28 -98 -28q-76 0 -126.5 42.5t-50.5 96.5q0 23 22.5 37.5 t48.5 14.5q31 -1 52.5 -22t28 -40t6.5 -31q-6 -12 -22 -12q-10 0 -17 7q-1 4 -1 14q0 71 -47 71q-18 0 -28 -15t-10 -37q0 -35 18.5 -60t46 -35t46 -13.5t31.5 -3.5q44 0 63 17q31 28 65.5 114t68.5 191t46 133q-4 -2 -10.5 -5t-9 -4.5t-7.5 -4t-7.5 -3.5t-7 -2.5l-7.5 -2.5 t-7.5 -2t-8 -1t-8.5 -0.5t-10 -0.5q-44 0 -77 10t-52 24t-36 28.5t-40 24.5t-52 10q-23 0 -38.5 -12.5t-21.5 -31t-8 -31t-2 -22.5q0 -19 6.5 -44t19.5 -25q8 0 8 16q0 4 -0.5 11t-0.5 11q0 11 4 11q6 0 18 -9.5t12 -17.5q0 -11 -10 -23.5t-27 -12.5q-21 0 -43.5 29 t-22.5 64zM383 613q7 12 18 27.5t15 22.5q6 12 6 20q0 18 -24 23q40 38 45 38q16 0 21 -25v-6q0 -25 -45 -70q-10 -10 -36 -30z" />
<glyph unicode="&#xcd;" horiz-adv-x="500" vert-adv-y="563" d="M85 453q0 39 28.5 70.5t74.5 31.5q38 0 70.5 -17t60.5 -39.5t44 -28.5q31 -13 65 -13q46 0 108 49q11 8 22 38.5t31 36.5q8 0 16.5 -6t8.5 -15q-4 -28 -11 -43q-26 -54 -70 -177.5t-81 -210t-64 -101.5q-51 -28 -98 -28q-76 0 -126.5 42.5t-50.5 96.5q0 23 22.5 37.5 t48.5 14.5q31 -1 52.5 -22t28 -40t6.5 -31q-6 -12 -22 -12q-10 0 -17 7q-1 4 -1 14q0 71 -47 71q-18 0 -28 -15t-10 -37q0 -35 18.5 -60t46 -35t46 -13.5t31.5 -3.5q44 0 63 17q31 28 65.5 114t68.5 191t46 133q-4 -2 -10.5 -5t-9 -4.5t-7.5 -4t-7.5 -3.5t-7 -2.5l-7.5 -2.5 t-7.5 -2t-8 -1t-8.5 -0.5t-10 -0.5q-44 0 -77 10t-52 24t-36 28.5t-40 24.5t-52 10q-23 0 -38.5 -12.5t-21.5 -31t-8 -31t-2 -22.5q0 -19 6.5 -44t19.5 -25q8 0 8 16q0 4 -0.5 11t-0.5 11q0 11 4 11q6 0 18 -9.5t12 -17.5q0 -11 -10 -23.5t-27 -12.5q-21 0 -43.5 29 t-22.5 64zM380 613q14 68 21 82q19 43 47 43q19 0 19 -14q0 -3 -12 -51q-12 12 -18 12q-15 0 -28 -18q-5 -7 -13.5 -24.5t-15.5 -29.5z" />
<glyph unicode="&#xce;" horiz-adv-x="500" vert-adv-y="563" d="M85 453q0 39 28.5 70.5t74.5 31.5q38 0 70.5 -17t60.5 -39.5t44 -28.5q31 -13 65 -13q46 0 108 49q11 8 22 38.5t31 36.5q8 0 16.5 -6t8.5 -15q-4 -28 -11 -43q-26 -54 -70 -177.5t-81 -210t-64 -101.5q-51 -28 -98 -28q-76 0 -126.5 42.5t-50.5 96.5q0 23 22.5 37.5 t48.5 14.5q31 -1 52.5 -22t28 -40t6.5 -31q-6 -12 -22 -12q-10 0 -17 7q-1 4 -1 14q0 71 -47 71q-18 0 -28 -15t-10 -37q0 -35 18.5 -60t46 -35t46 -13.5t31.5 -3.5q44 0 63 17q31 28 65.5 114t68.5 191t46 133q-4 -2 -10.5 -5t-9 -4.5t-7.5 -4t-7.5 -3.5t-7 -2.5l-7.5 -2.5 t-7.5 -2t-8 -1t-8.5 -0.5t-10 -0.5q-44 0 -77 10t-52 24t-36 28.5t-40 24.5t-52 10q-23 0 -38.5 -12.5t-21.5 -31t-8 -31t-2 -22.5q0 -19 6.5 -44t19.5 -25q8 0 8 16q0 4 -0.5 11t-0.5 11q0 11 4 11q6 0 18 -9.5t12 -17.5q0 -11 -10 -23.5t-27 -12.5q-21 0 -43.5 29 t-22.5 64zM292 616q6 17 23.5 31.5t39.5 36t36 52.5h39q17 -39 43.5 -70t32.5 -50q-49 33 -64.5 46.5t-33.5 39.5q-10 -15 -21.5 -24.5t-42.5 -28.5t-52 -33z" />
<glyph unicode="&#xcf;" horiz-adv-x="500" vert-adv-y="563" d="M85 453q0 39 28.5 70.5t74.5 31.5q38 0 70.5 -17t60.5 -39.5t44 -28.5q31 -13 65 -13q46 0 108 49q11 8 22 38.5t31 36.5q8 0 16.5 -6t8.5 -15q-4 -28 -11 -43q-26 -54 -70 -177.5t-81 -210t-64 -101.5q-51 -28 -98 -28q-76 0 -126.5 42.5t-50.5 96.5q0 23 22.5 37.5 t48.5 14.5q31 -1 52.5 -22t28 -40t6.5 -31q-6 -12 -22 -12q-10 0 -17 7q-1 4 -1 14q0 71 -47 71q-18 0 -28 -15t-10 -37q0 -35 18.5 -60t46 -35t46 -13.5t31.5 -3.5q44 0 63 17q31 28 65.5 114t68.5 191t46 133q-4 -2 -10.5 -5t-9 -4.5t-7.5 -4t-7.5 -3.5t-7 -2.5l-7.5 -2.5 t-7.5 -2t-8 -1t-8.5 -0.5t-10 -0.5q-44 0 -77 10t-52 24t-36 28.5t-40 24.5t-52 10q-23 0 -38.5 -12.5t-21.5 -31t-8 -31t-2 -22.5q0 -19 6.5 -44t19.5 -25q8 0 8 16q0 4 -0.5 11t-0.5 11q0 11 4 11q6 0 18 -9.5t12 -17.5q0 -11 -10 -23.5t-27 -12.5q-21 0 -43.5 29 t-22.5 64zM313 667q0 6 10.5 12t10.5 16q0 2 -2 5l-3 3q20 10 31 10q10 0 10 -10q0 -16 -13.5 -31t-28.5 -15t-15 10zM469 667q0 6 11 12t11 16q0 3 -5 8q23 10 30 10q11 0 11 -10q0 -17 -13.5 -31.5t-29.5 -14.5q-15 0 -15 10z" />
<glyph unicode="&#xd0;" horiz-adv-x="843" vert-adv-y="563" d="M99 613q0 14 4.5 34t14.5 46t31.5 50.5t50.5 38.5q41 20 107 20q94 0 166 -32q117 -55 200 -138q71 -74 114 -170q36 -79 36 -209q0 -47 -21 -99.5t-44 -86.5q-53 -68 -124 -68q-55 0 -146 68q-35 -66 -73 -66q-28 0 -49.5 24t-30 51t-8.5 47q0 19 8 32t24 13h11.5 t9.5 -1t7.5 -1.5t7.5 -3.5t8.5 -5t10.5 -8t13 -11t17.5 -15t22.5 -19q44 119 58 158q-29 1 -100 1q0 10 6 28q13 -1 49.5 -1.5t53.5 -0.5q69 205 74 264q38 -2 38 -29q0 -2 -9 -35t-26.5 -90t-35.5 -110q82 2 131 8q-5 -25 -7 -33q-37 -4 -75 -4q-34 0 -59 2 q-43 -128 -71 -181q88 -66 140 -66q30 0 71 43q27 27 52 86.5t25 133.5q0 81 -24 156q-24 76 -91 159q-93 118 -201 165q-20 10 -62 20t-64 10q-47 0 -70.5 -6t-53.5 -22q-29 -16 -51 -65t-22 -87q0 -77 67.5 -145t118.5 -68q43 0 43 41q0 12 -10 28t-14 35q0 35 34 35 q21 0 29.5 -18t8.5 -39q0 -32 -21 -70q-13 -27 -55 -27q-71 0 -158 77.5t-87 155.5zM362 120q0 -25 13 -66t40 -41q25 0 47 76q-9 8 -24 21q-50 43 -57 43q-19 0 -19 -33z" />
<glyph unicode="&#xd1;" horiz-adv-x="867" vert-adv-y="563" d="M42 129q0 25 13.5 39.5t25 17.5t21.5 3q78 0 92 -88q0 -13 -19 -13q-12 0 -20 6q2 14 2 24q0 54 -47 54q-25 0 -31.5 -15.5t-6.5 -45.5q0 -39 50.5 -67t95.5 -28q28 0 47.5 3.5t57 26.5t71 65t79 127t91.5 205q-1 -1 -21.5 -18.5t-38 -27.5t-34.5 -10q-30 0 -51 15 t-35 37t-29 44t-41 37t-63 15q-45 0 -65.5 -22t-20.5 -56q0 -33 14.5 -63t30.5 -30q24 0 33 10t9 20.5t3 10.5q5 0 13 -8t8 -18q0 -27 -56 -27q-39 0 -66 31.5t-27 71.5q0 51 37.5 72t83.5 21q45 -1 76.5 -16.5t47.5 -37t28.5 -42.5t29 -36t39.5 -15q17 0 54.5 27.5 t51.5 46.5q7 17 10.5 27.5t5.5 19t2.5 10.5t1 11t0.5 13q2 9 10 17t16 8q11 0 18 -5t8.5 -9t1.5 -7t-7 -24q0 -23 7.5 -45.5t20 -47.5t41.5 -90t61 -145q37 219 109 348.5t144 131.5q53 0 79 -9.5t42 -34.5q1 -2 13 -17q-1 -5 -10 -8t-15 -3t-9.5 2t-6 5.5t-7.5 11t-11 14.5 q-19 25 -58 25q-31 0 -66 -35.5t-68 -100.5t-60.5 -168t-40.5 -226q8 -64 8 -69q0 -30 -13 -52.5t-26 -22.5t-27.5 13t-14.5 38q0 13 27 98l-144 309q-4 -5 -14 -34t-26 -69t-38 -88.5t-53.5 -95t-69 -85.5t-88.5 -62.5t-108 -23.5q-75 0 -126.5 41.5t-51.5 87.5zM680 663 q21 34 37 34t56 -11.5t52 -11.5q6 0 11 0.5t10 2.5t7.5 2.5t7 4.5t5.5 5l6.5 6.5l6.5 6.5l6 -7q6 -7 7 -12q-32 -26 -54 -26q-27 0 -60.5 11t-44.5 11q-14 0 -24 -12t-13 -12q-8 0 -16 8z" />
<glyph unicode="&#xd2;" horiz-adv-x="521" vert-adv-y="563" d="M63 192q0 168 77.5 278t188.5 110q58 0 102.5 -39t44.5 -75q0 -27 -25 -93t-55 -107q-10 -13 -28 -24t-32 -16l-13 -4h-2v7q0 7 9 10.5t24.5 11t26.5 20.5q25 28 43 87.5t18 119.5q0 26 -11 44.5t-28 26t-29.5 10.5t-23.5 3q-78 0 -135.5 -57.5t-84.5 -147.5t-27 -199 q0 -51 32 -85.5t68 -46.5t70 -12q44 0 83.5 27.5t65 68t44 87.5t27 85t8.5 62q0 47 -14 75q-8 16 -8 30q0 2 0.5 7t0.5 8q0 1 -0.5 4.5t-0.5 5.5q0 1 -0.5 3.5t-0.5 3.5l1 2q18 -17 27 -27.5t20.5 -40.5t11.5 -68q0 -36 -7 -78t-26 -91t-46 -87.5t-72.5 -64.5t-101.5 -26 q-34 0 -71 11t-71.5 32t-57 60t-22.5 89zM408 613q7 12 18 27.5t15 22.5q6 12 6 20q0 18 -24 23q40 38 45 38q16 0 21 -25v-6q0 -25 -45 -70q-10 -10 -36 -30z" />
<glyph unicode="&#xd3;" horiz-adv-x="521" vert-adv-y="563" d="M63 192q0 168 77.5 278t188.5 110q58 0 102.5 -39t44.5 -75q0 -27 -25 -93t-55 -107q-10 -13 -28 -24t-32 -16l-13 -4h-2v7q0 7 9 10.5t24.5 11t26.5 20.5q25 28 43 87.5t18 119.5q0 26 -11 44.5t-28 26t-29.5 10.5t-23.5 3q-78 0 -135.5 -57.5t-84.5 -147.5t-27 -199 q0 -51 32 -85.5t68 -46.5t70 -12q44 0 83.5 27.5t65 68t44 87.5t27 85t8.5 62q0 47 -14 75q-8 16 -8 30q0 2 0.5 7t0.5 8q0 1 -0.5 4.5t-0.5 5.5q0 1 -0.5 3.5t-0.5 3.5l1 2q18 -17 27 -27.5t20.5 -40.5t11.5 -68q0 -36 -7 -78t-26 -91t-46 -87.5t-72.5 -64.5t-101.5 -26 q-34 0 -71 11t-71.5 32t-57 60t-22.5 89zM417 613q14 68 21 82q19 43 47 43q19 0 19 -14q0 -3 -12 -51q-12 12 -18 12q-15 0 -28 -18q-5 -7 -13.5 -24.5t-15.5 -29.5z" />
<glyph unicode="&#xd4;" horiz-adv-x="521" vert-adv-y="563" d="M63 192q0 168 77.5 278t188.5 110q58 0 102.5 -39t44.5 -75q0 -27 -25 -93t-55 -107q-10 -13 -28 -24t-32 -16l-13 -4h-2v7q0 7 9 10.5t24.5 11t26.5 20.5q25 28 43 87.5t18 119.5q0 26 -11 44.5t-28 26t-29.5 10.5t-23.5 3q-78 0 -135.5 -57.5t-84.5 -147.5t-27 -199 q0 -51 32 -85.5t68 -46.5t70 -12q44 0 83.5 27.5t65 68t44 87.5t27 85t8.5 62q0 47 -14 75q-8 16 -8 30q0 2 0.5 7t0.5 8q0 1 -0.5 4.5t-0.5 5.5q0 1 -0.5 3.5t-0.5 3.5l1 2q18 -17 27 -27.5t20.5 -40.5t11.5 -68q0 -36 -7 -78t-26 -91t-46 -87.5t-72.5 -64.5t-101.5 -26 q-34 0 -71 11t-71.5 32t-57 60t-22.5 89zM264 616q6 17 23.5 31.5t39.5 36t36 52.5h39q17 -39 43.5 -70t32.5 -50q-49 33 -64.5 46.5t-33.5 39.5q-10 -15 -21.5 -24.5t-42.5 -28.5t-52 -33z" />
<glyph unicode="&#xd5;" horiz-adv-x="521" vert-adv-y="563" d="M63 192q0 168 77.5 278t188.5 110q58 0 102.5 -39t44.5 -75q0 -27 -25 -93t-55 -107q-10 -13 -28 -24t-32 -16l-13 -4h-2v7q0 7 9 10.5t24.5 11t26.5 20.5q25 28 43 87.5t18 119.5q0 26 -11 44.5t-28 26t-29.5 10.5t-23.5 3q-78 0 -135.5 -57.5t-84.5 -147.5t-27 -199 q0 -51 32 -85.5t68 -46.5t70 -12q44 0 83.5 27.5t65 68t44 87.5t27 85t8.5 62q0 47 -14 75q-8 16 -8 30q0 2 0.5 7t0.5 8q0 1 -0.5 4.5t-0.5 5.5q0 1 -0.5 3.5t-0.5 3.5l1 2q18 -17 27 -27.5t20.5 -40.5t11.5 -68q0 -36 -7 -78t-26 -91t-46 -87.5t-72.5 -64.5t-101.5 -26 q-34 0 -71 11t-71.5 32t-57 60t-22.5 89zM288 663q21 34 37 34t56 -11.5t52 -11.5q6 0 11 0.5t10 2.5t7.5 2.5t7 4.5t5.5 5l6.5 6.5l6.5 6.5l6 -7q6 -7 7 -12q-32 -26 -54 -26q-27 0 -60.5 11t-44.5 11q-14 0 -24 -12t-13 -12q-8 0 -16 8z" />
<glyph unicode="&#xd6;" horiz-adv-x="521" vert-adv-y="563" d="M63 192q0 168 77.5 278t188.5 110q58 0 102.5 -39t44.5 -75q0 -27 -25 -93t-55 -107q-10 -13 -28 -24t-32 -16l-13 -4h-2v7q0 7 9 10.5t24.5 11t26.5 20.5q25 28 43 87.5t18 119.5q0 26 -11 44.5t-28 26t-29.5 10.5t-23.5 3q-78 0 -135.5 -57.5t-84.5 -147.5t-27 -199 q0 -51 32 -85.5t68 -46.5t70 -12q44 0 83.5 27.5t65 68t44 87.5t27 85t8.5 62q0 47 -14 75q-8 16 -8 30q0 2 0.5 7t0.5 8q0 1 -0.5 4.5t-0.5 5.5q0 1 -0.5 3.5t-0.5 3.5l1 2q18 -17 27 -27.5t20.5 -40.5t11.5 -68q0 -36 -7 -78t-26 -91t-46 -87.5t-72.5 -64.5t-101.5 -26 q-34 0 -71 11t-71.5 32t-57 60t-22.5 89zM299 667q0 6 10.5 12t10.5 16q0 2 -2 5l-3 3q20 10 31 10q10 0 10 -10q0 -16 -13.5 -31t-28.5 -15t-15 10zM455 667q0 6 11 12t11 16q0 3 -5 8q23 10 30 10q11 0 11 -10q0 -17 -13.5 -31.5t-29.5 -14.5q-15 0 -15 10z" />
<glyph unicode="&#xd7;" vert-adv-y="563" d="M35 148q39 34 109 81l-77 77q2 12 11 30l88 -91l105 72q21 -12 27 -13l-112 -79q52 -54 91 -80q-4 -20 -12 -35q-31 27 -102 99q-68 -52 -97 -78q-2 1 -31 17z" />
<glyph unicode="&#xd8;" horiz-adv-x="506" vert-adv-y="563" d="M51 8l60 62q-48 51 -48 122q0 168 77.5 278t188.5 110q47 0 84.5 -26t53.5 -60l58 84l33 -26l-67 -81q47 -47 47 -124q0 -36 -7 -78t-26 -91t-46 -87.5t-72.5 -64.5t-101.5 -26q-79 0 -144 45l-57 -65zM103 158q0 -44 21 -74q82 87 114.5 122.5t89 104t113.5 148.5 q0 1 -1 13.5t-2.5 21.5t-7.5 23t-15 23t-25.5 15.5t-39.5 6.5q-78 0 -135.5 -57.5t-84.5 -147.5t-27 -199zM149 56q53 -42 123 -42q55 0 101.5 41t73 98t41 108.5t14.5 82.5q0 52 -14 75q-11 21 -15 21q-1 0 -2.5 -11t-7.5 -11q-4 0 -9 7z" />
<glyph unicode="&#xd9;" horiz-adv-x="898" vert-adv-y="563" d="M85 450q0 19 7.5 39t32 39t62.5 19q39 0 73.5 -15t56 -33.5t50.5 -33.5t59 -15q46 0 108 42q8 7 22 39q7 28 30 33q24 -4 24 -21q-2 -26 -16 -43q-21 -25 -31 -56q-6 -17 -35.5 -82.5t-50 -126t-20.5 -104.5q0 -117 82 -117q27 0 72.5 36t93.5 94q-6 21 -6 40 q0 60 52.5 204.5t90.5 171.5q9 4 17 4q24 0 24 -53q0 -60 -36.5 -164t-112.5 -219q2 -7 6.5 -25t7.5 -27t8.5 -23t11.5 -21t15.5 -12.5t20.5 -5.5q17 0 29 15t19 30t10 15q5 0 11.5 -7t10.5 -7q6 0 13 11l1 -1q-40 -70 -96 -70q-16 0 -29 6t-21.5 14t-15.5 21.5t-10 22 t-6.5 22t-4.5 15.5q-75 -72 -101 -86.5t-79 -14.5q-44 0 -78 33.5t-34 119.5q0 23 9 55.5t19.5 59t36 87t41.5 101.5q-57 -20 -91 -20q-43 0 -77.5 15t-54 33t-49.5 33t-64 15q-39 0 -55.5 -28t-16.5 -66q0 -18 5.5 -41.5t19.5 -25.5q9 0 9 15q0 4 -0.5 11.5t-0.5 10.5 q0 11 5 11q6 0 19 -8.5t13 -17.5q0 -5 -11 -19q-16 -18 -30 -18q-26 0 -45.5 28.5t-19.5 65.5zM718 613q7 12 18 27.5t15 22.5q6 12 6 20q0 18 -24 23q40 38 45 38q16 0 21 -25v-6q0 -25 -45 -70q-10 -10 -36 -30zM725 192q0 -6 2 -18q125 213 125 363q0 10 -2 12 q-29 -38 -77 -165.5t-48 -191.5z" />
<glyph unicode="&#xda;" horiz-adv-x="898" vert-adv-y="563" d="M85 450q0 19 7.5 39t32 39t62.5 19q39 0 73.5 -15t56 -33.5t50.5 -33.5t59 -15q46 0 108 42q8 7 22 39q7 28 30 33q24 -4 24 -21q-2 -26 -16 -43q-21 -25 -31 -56q-6 -17 -35.5 -82.5t-50 -126t-20.5 -104.5q0 -117 82 -117q27 0 72.5 36t93.5 94q-6 21 -6 40 q0 60 52.5 204.5t90.5 171.5q9 4 17 4q24 0 24 -53q0 -60 -36.5 -164t-112.5 -219q2 -7 6.5 -25t7.5 -27t8.5 -23t11.5 -21t15.5 -12.5t20.5 -5.5q17 0 29 15t19 30t10 15q5 0 11.5 -7t10.5 -7q6 0 13 11l1 -1q-40 -70 -96 -70q-16 0 -29 6t-21.5 14t-15.5 21.5t-10 22 t-6.5 22t-4.5 15.5q-75 -72 -101 -86.5t-79 -14.5q-44 0 -78 33.5t-34 119.5q0 23 9 55.5t19.5 59t36 87t41.5 101.5q-57 -20 -91 -20q-43 0 -77.5 15t-54 33t-49.5 33t-64 15q-39 0 -55.5 -28t-16.5 -66q0 -18 5.5 -41.5t19.5 -25.5q9 0 9 15q0 4 -0.5 11.5t-0.5 10.5 q0 11 5 11q6 0 19 -8.5t13 -17.5q0 -5 -11 -19q-16 -18 -30 -18q-26 0 -45.5 28.5t-19.5 65.5zM717 613q14 68 21 82q19 43 47 43q19 0 19 -14q0 -3 -12 -51q-12 12 -18 12q-15 0 -28 -18q-5 -7 -13.5 -24.5t-15.5 -29.5zM725 192q0 -6 2 -18q125 213 125 363q0 10 -2 12 q-29 -38 -77 -165.5t-48 -191.5z" />
<glyph unicode="&#xdb;" horiz-adv-x="898" vert-adv-y="563" d="M85 450q0 19 7.5 39t32 39t62.5 19q39 0 73.5 -15t56 -33.5t50.5 -33.5t59 -15q46 0 108 42q8 7 22 39q7 28 30 33q24 -4 24 -21q-2 -26 -16 -43q-21 -25 -31 -56q-6 -17 -35.5 -82.5t-50 -126t-20.5 -104.5q0 -117 82 -117q27 0 72.5 36t93.5 94q-6 21 -6 40 q0 60 52.5 204.5t90.5 171.5q9 4 17 4q24 0 24 -53q0 -60 -36.5 -164t-112.5 -219q2 -7 6.5 -25t7.5 -27t8.5 -23t11.5 -21t15.5 -12.5t20.5 -5.5q17 0 29 15t19 30t10 15q5 0 11.5 -7t10.5 -7q6 0 13 11l1 -1q-40 -70 -96 -70q-16 0 -29 6t-21.5 14t-15.5 21.5t-10 22 t-6.5 22t-4.5 15.5q-75 -72 -101 -86.5t-79 -14.5q-44 0 -78 33.5t-34 119.5q0 23 9 55.5t19.5 59t36 87t41.5 101.5q-57 -20 -91 -20q-43 0 -77.5 15t-54 33t-49.5 33t-64 15q-39 0 -55.5 -28t-16.5 -66q0 -18 5.5 -41.5t19.5 -25.5q9 0 9 15q0 4 -0.5 11.5t-0.5 10.5 q0 11 5 11q6 0 19 -8.5t13 -17.5q0 -5 -11 -19q-16 -18 -30 -18q-26 0 -45.5 28.5t-19.5 65.5zM632 616q6 17 23.5 31.5t39.5 36t36 52.5h39q17 -39 43.5 -70t32.5 -50q-49 33 -64.5 46.5t-33.5 39.5q-10 -15 -21.5 -24.5t-42.5 -28.5t-52 -33zM725 192q0 -6 2 -18 q125 213 125 363q0 10 -2 12q-29 -38 -77 -165.5t-48 -191.5z" />
<glyph unicode="&#xdc;" horiz-adv-x="898" vert-adv-y="563" d="M85 450q0 19 7.5 39t32 39t62.5 19q39 0 73.5 -15t56 -33.5t50.5 -33.5t59 -15q46 0 108 42q8 7 22 39q7 28 30 33q24 -4 24 -21q-2 -26 -16 -43q-21 -25 -31 -56q-6 -17 -35.5 -82.5t-50 -126t-20.5 -104.5q0 -117 82 -117q27 0 72.5 36t93.5 94q-6 21 -6 40 q0 60 52.5 204.5t90.5 171.5q9 4 17 4q24 0 24 -53q0 -60 -36.5 -164t-112.5 -219q2 -7 6.5 -25t7.5 -27t8.5 -23t11.5 -21t15.5 -12.5t20.5 -5.5q17 0 29 15t19 30t10 15q5 0 11.5 -7t10.5 -7q6 0 13 11l1 -1q-40 -70 -96 -70q-16 0 -29 6t-21.5 14t-15.5 21.5t-10 22 t-6.5 22t-4.5 15.5q-75 -72 -101 -86.5t-79 -14.5q-44 0 -78 33.5t-34 119.5q0 23 9 55.5t19.5 59t36 87t41.5 101.5q-57 -20 -91 -20q-43 0 -77.5 15t-54 33t-49.5 33t-64 15q-39 0 -55.5 -28t-16.5 -66q0 -18 5.5 -41.5t19.5 -25.5q9 0 9 15q0 4 -0.5 11.5t-0.5 10.5 q0 11 5 11q6 0 19 -8.5t13 -17.5q0 -5 -11 -19q-16 -18 -30 -18q-26 0 -45.5 28.5t-19.5 65.5zM658 667q0 6 10.5 12t10.5 16q0 2 -3 5l-2 3q20 10 31 10q10 0 10 -10q0 -16 -13.5 -31t-28.5 -15t-15 10zM725 192q0 -6 2 -18q125 213 125 363q0 10 -2 12q-29 -38 -77 -165.5 t-48 -191.5zM814 667q0 6 11 12t11 16q0 3 -5 8q23 10 30 10q11 0 11 -10q0 -17 -13.5 -31.5t-29.5 -14.5q-15 0 -15 10z" />
<glyph unicode="&#xdd;" horiz-adv-x="819" vert-adv-y="563" d="M85 450q0 43 32.5 71.5t69.5 28.5q39 0 71.5 -15t52.5 -32.5t50.5 -32.5t66.5 -15q7 0 13 0.5t12 2.5t10 3.5t10.5 5.5t9.5 5.5t10.5 8t10 8.5t11.5 10t12 10q9 8 20 38q11 27 30 33q12 0 23 -12t11 -23v-1q-1 -10 -14 -16.5t-16 -10.5q-15 -19 -23 -57 q-17 -45 -40.5 -100t-35.5 -84t-21 -65.5t-9 -69.5q0 -69 29 -98t58 -29q60 0 168 132q9 38 26 106q52 215 72.5 272t54.5 57q24 0 24 -63q0 -11 -1.5 -26.5t-10 -52.5t-23 -78.5t-44 -104t-69.5 -128.5q-10 -48 -63 -209.5t-109 -286.5q-7 -17 -33 -29q-33 -18 -98 -22 q-53 1 -103 27q-75 48 -75 110q0 19 11 35.5t37 16.5q47 0 80 -34q8 -8 19.5 -26.5t11.5 -31.5q-6 -11 -22 -11q-13 0 -20 7q1 6 1 28q0 17 -9 35q-7 8 -19.5 15t-19.5 7q-16 0 -26.5 -21.5t-10.5 -45.5q0 -49 48 -75q42 -27 94 -27q42 0 65 19q33 30 47 57 q15 31 52.5 133.5t67.5 189.5l30 87q-32 -30 -47 -43t-39.5 -23t-54.5 -10q-34 0 -59 15.5t-37.5 36t-20 48t-9 44.5t-1.5 33q0 19 4 39.5t15 53t19 53t28.5 72t30.5 77.5q-55 -32 -83 -32q-39 0 -69 10t-49 24t-36.5 28.5t-39.5 24.5t-50 10q-23 0 -39 -11.5t-22 -30 t-8.5 -32t-2.5 -25.5q0 -26 7.5 -46.5t18.5 -20.5q8 0 8 14q0 6 -0.5 13t-0.5 17q0 4 5 4t17 -9t12 -17q0 -15 -11 -26t-27 -11q-24 0 -45 31.5t-21 62.5zM700 613q14 68 21 82q19 43 47 43q19 0 19 -14q0 -3 -12 -51q-12 12 -18 12q-15 0 -28 -18q-5 -7 -13.5 -24.5 t-15.5 -29.5zM744 189q9 15 32 68.5t50.5 142.5t27.5 148q0 10 -2 12q-25 -33 -42 -91t-34.5 -145t-31.5 -135z" />
<glyph unicode="&#xde;" horiz-adv-x="461" vert-adv-y="563" d="M3 -97q8 23 35 93.5t33 87.5t26.5 77.5t29.5 100t27.5 114t36 161t39.5 203.5q2 -2 21.5 -3.5t21.5 -7.5q-13 -83 -28 -153q77 -18 139 -74t62 -144q0 -44 -43 -86.5t-101 -42.5q-53 0 -132 37q-11 -39 -26 -91t-23.5 -82t-19.5 -67t-17.5 -57.5t-14 -40t-13 -27.5 t-9.5 -8q-23 0 -44 10zM176 282q83 -29 113 -29q18 0 43.5 9t51 35t25.5 62q0 47 -31 89.5t-68 65.5t-71 31q-24 -111 -63 -263z" />
<glyph unicode="&#xdf;" horiz-adv-x="290" vert-adv-y="563" d="M-156 -414q6 26 17 26q12 0 21.5 -2.5t13.5 -2.5q16 0 28 14t26 57t36.5 133.5t57.5 241t49 207.5q26 106 48 176q3 9 17 15.5t24 6.5q15 0 41.5 -17.5t26.5 -48.5q0 -73 -91 -128q116 -85 116 -179q0 -19 -2 -31t-10 -26t-26.5 -21t-47.5 -7q-32 0 -60 21 q-16 10 -28.5 30.5t-12.5 26.5q0 7 7 7q16 0 24.5 -11.5t12 -26t18 -26t41.5 -11.5q29 0 40 15.5t11 65.5q0 12 -4 25t-9.5 24.5t-15.5 25t-17.5 22.5t-19 21.5t-17 18t-15.5 14.5l-11 10q-5 -2 -15 -4q-5 -15 -29 -118.5t-56.5 -240.5t-53.5 -214q-12 -44 -42 -68t-71 -24 q-10 0 -22 3zM124 269q105 39 105 123q0 12 -17 29t-30 17q-11 -5 -19.5 -30t-32.5 -115q-4 -15 -6 -24z" />
<glyph unicode="&#xe0;" vert-adv-y="563" d="M24 109q0 65 48 121t110 56q23 0 47 -13t24 -23q8 18 21 18q5 0 10 -5t5 -16q-14 -53 -27 -96.5t-17.5 -59.5t-4.5 -31q0 -45 19 -45t32 10.5t41 45.5l1 -1q-4 -6 -10.5 -18.5t-9.5 -17.5t-10 -13.5t-13 -11.5t-15.5 -6t-21.5 -3q-43 0 -43 50q-38 -50 -91 -50 q-48 0 -71.5 34.5t-23.5 74.5zM62 100q0 -33 8.5 -53.5t17.5 -26.5t18 -6q20 1 29 3.5t25.5 16t32.5 48t34 91.5q-5 -11 -60 -42v2q34 28 50 47.5t16 39.5q0 22 -14.5 37t-32.5 15q-41 0 -82.5 -60t-41.5 -112zM207 374q7 12 18 27.5t15 22.5q6 12 6 20q0 18 -24 23 q40 38 45 38q16 0 21 -25v-6q0 -25 -45 -70q-10 -10 -36 -30z" />
<glyph unicode="&#xe1;" vert-adv-y="563" d="M24 109q0 65 48 121t110 56q23 0 47 -13t24 -23q8 18 21 18q5 0 10 -5t5 -16q-14 -53 -27 -96.5t-17.5 -59.5t-4.5 -31q0 -45 19 -45t32 10.5t41 45.5l1 -1q-4 -6 -10.5 -18.5t-9.5 -17.5t-10 -13.5t-13 -11.5t-15.5 -6t-21.5 -3q-43 0 -43 50q-38 -50 -91 -50 q-48 0 -71.5 34.5t-23.5 74.5zM62 100q0 -33 8.5 -53.5t17.5 -26.5t18 -6q20 1 29 3.5t25.5 16t32.5 48t34 91.5q-5 -11 -60 -42v2q34 28 50 47.5t16 39.5q0 22 -14.5 37t-32.5 15q-41 0 -82.5 -60t-41.5 -112zM209 373q14 68 21 82q19 43 47 43q19 0 19 -14q0 -3 -12 -51 q-12 12 -18 12q-15 0 -28 -18q-4 -7 -13 -24.5t-16 -29.5z" />
<glyph unicode="&#xe2;" vert-adv-y="563" d="M24 109q0 65 48 121t110 56q23 0 47 -13t24 -23q8 18 21 18q5 0 10 -5t5 -16q-14 -53 -27 -96.5t-17.5 -59.5t-4.5 -31q0 -45 19 -45t32 10.5t41 45.5l1 -1q-4 -6 -10.5 -18.5t-9.5 -17.5t-10 -13.5t-13 -11.5t-15.5 -6t-21.5 -3q-43 0 -43 50q-38 -50 -91 -50 q-48 0 -71.5 34.5t-23.5 74.5zM62 100q0 -33 8.5 -53.5t17.5 -26.5t18 -6q20 1 29 3.5t25.5 16t32.5 48t34 91.5q-5 -11 -60 -42v2q34 28 50 47.5t16 39.5q0 22 -14.5 37t-32.5 15q-41 0 -82.5 -60t-41.5 -112zM112 376q6 17 23.5 31.5t39.5 36t36 52.5h39q17 -39 43.5 -70 t32.5 -50q-49 33 -64.5 46.5t-33.5 39.5q-10 -15 -21.5 -24.5t-42.5 -28.5t-52 -33z" />
<glyph unicode="&#xe3;" vert-adv-y="563" d="M24 109q0 65 48 121t110 56q23 0 47 -13t24 -23q8 18 21 18q5 0 10 -5t5 -16q-14 -53 -27 -96.5t-17.5 -59.5t-4.5 -31q0 -45 19 -45t32 10.5t41 45.5l1 -1q-4 -6 -10.5 -18.5t-9.5 -17.5t-10 -13.5t-13 -11.5t-15.5 -6t-21.5 -3q-43 0 -43 50q-38 -50 -91 -50 q-48 0 -71.5 34.5t-23.5 74.5zM62 100q0 -33 8.5 -53.5t17.5 -26.5t18 -6q20 1 29 3.5t25.5 16t32.5 48t34 91.5q-5 -11 -60 -42v2q34 28 50 47.5t16 39.5q0 22 -14.5 37t-32.5 15q-41 0 -82.5 -60t-41.5 -112zM141 438q21 34 37 34t56 -11.5t52 -11.5q6 0 11 0.5t10 2.5 t7.5 2.5t7 4.5t5.5 5l6.5 6.5l6.5 6.5l6 -7q6 -7 7 -12q-32 -26 -54 -26q-27 0 -60.5 11t-44.5 11q-14 0 -24 -12t-13 -12q-8 0 -16 8z" />
<glyph unicode="&#xe4;" vert-adv-y="563" d="M24 109q0 65 48 121t110 56q23 0 47 -13t24 -23q8 18 21 18q5 0 10 -5t5 -16q-14 -53 -27 -96.5t-17.5 -59.5t-4.5 -31q0 -45 19 -45t32 10.5t41 45.5l1 -1q-4 -6 -10.5 -18.5t-9.5 -17.5t-10 -13.5t-13 -11.5t-15.5 -6t-21.5 -3q-43 0 -43 50q-38 -50 -91 -50 q-48 0 -71.5 34.5t-23.5 74.5zM62 100q0 -33 8.5 -53.5t17.5 -26.5t18 -6q20 1 29 3.5t25.5 16t32.5 48t34 91.5q-5 -11 -60 -42v2q34 28 50 47.5t16 39.5q0 22 -14.5 37t-32.5 15q-41 0 -82.5 -60t-41.5 -112zM136 450q0 6 10.5 12t10.5 16q0 2 -3 5l-2 3q20 10 31 10 q10 0 10 -10q0 -16 -13.5 -31t-28.5 -15t-15 10zM292 450q0 6 11 12t11 16q0 3 -5 8q23 10 30 10q11 0 11 -10q0 -17 -13.5 -31.5t-29.5 -14.5q-15 0 -15 10z" />
<glyph unicode="&#xe5;" vert-adv-y="563" d="M24 109q0 65 48 121t110 56q23 0 47 -13t24 -23q8 18 21 18q5 0 10 -5t5 -16q-14 -53 -27 -96.5t-17.5 -59.5t-4.5 -31q0 -45 19 -45t32 10.5t41 45.5l1 -1q-4 -6 -10.5 -18.5t-9.5 -17.5t-10 -13.5t-13 -11.5t-15.5 -6t-21.5 -3q-43 0 -43 50q-38 -50 -91 -50 q-48 0 -71.5 34.5t-23.5 74.5zM62 100q0 -33 8.5 -53.5t17.5 -26.5t18 -6q20 1 29 3.5t25.5 16t32.5 48t34 91.5q-5 -11 -60 -42v2q34 28 50 47.5t16 39.5q0 22 -14.5 37t-32.5 15q-41 0 -82.5 -60t-41.5 -112zM141 353q0 26 18.5 44.5t44.5 18.5t45 -18.5t19 -44.5 q0 -27 -19 -45.5t-45 -18.5t-44.5 18.5t-18.5 45.5zM164 351q0 -19 13 -31.5t31 -12.5t31 13t13 31q0 17 -13.5 30.5t-30.5 13.5q-18 0 -31 -13.5t-13 -30.5z" />
<glyph unicode="&#xe6;" horiz-adv-x="442" vert-adv-y="563" d="M24 81q0 44 32.5 65t72 23.5t72 13t32.5 35.5q0 27 -14.5 40.5t-32.5 13.5q-62 0 -89 -50q-12 -4 -20 -4q-15 0 -15 11q33 34 56.5 45.5t63.5 11.5q23 0 47 -13t24 -23q8 18 21 18q9 0 13 -12q41 30 91 30q28 0 54.5 -13t26.5 -37q0 -4 -1.5 -11.5t-8.5 -21t-18 -24.5 t-33 -19.5t-51 -8.5q-63 0 -82 -2q-16 -46 -16 -69q0 -66 71 -66q27 0 42 15q1 1 6.5 8t10 10t11.5 3h13q11 0 19 3.5t10.5 6t8.5 11.5l1 -1q-14 -25 -27.5 -40t-30 -21t-27.5 -7.5t-30 -1.5q-17 0 -32 3t-26 7.5t-19.5 9.5t-14 10.5t-9 10t-5.5 7.5l-2 3q-7 0 -18 -12.5 t-31.5 -25.5t-50.5 -13q-95 0 -95 81zM62 78q0 -31 11 -47.5t41 -16.5q39 0 62.5 36t51.5 124q-10 -10 -39.5 -14.5t-56.5 -7.5t-48.5 -21t-21.5 -53zM270 164q5 0 23.5 1t42.5 1q37 1 62 31t25 48q0 27 -43 27q-34 0 -59.5 -29t-50.5 -79z" />
<glyph unicode="&#xe7;" horiz-adv-x="257" vert-adv-y="563" d="M24 95q0 66 45 128.5t119 62.5q36 0 60 -16t24 -28q0 -10 -8.5 -17.5t-16.5 -7.5q-14 0 -14 13q0 6 1.5 14t1.5 10q0 18 -47 18q-40 0 -83.5 -59t-43.5 -139q0 -35 20 -47.5t42 -12.5q34 0 50 16q3 3 7 8t6 7t6.5 4t10.5 2q26 0 33 3t20 17l1 -1q-15 -25 -33 -40.5 t-38 -21t-32 -7t-30 -1.5q-9 0 -25 3q39 -30 39 -74q0 -21 -8 -41t-26 -20q-6 0 -12 4t-9.5 9t-10 15.5t-11.5 16.5q-1 2 -1 4l1 2q8 0 21.5 -22t21.5 -23q10 4 10 34q0 52 -37 103q-54 24 -54 84z" />
<glyph unicode="&#xe8;" horiz-adv-x="251" vert-adv-y="563" d="M-1 71q15 25 21 32q9 49 33 94q43 89 135 89q28 0 54.5 -13t26.5 -37q0 -4 -1.5 -11.5t-8.5 -21t-18.5 -24.5t-33.5 -19.5t-51 -8.5q-18 0 -34.5 4t-17.5 4q-10 0 -34 -20q-11 -33 -11 -59q0 -66 71 -66q26 0 42 15q2 2 5.5 6.5t6 7t6.5 5t9 2.5h14q11 0 18.5 3.5t10 6 t9.5 11.5l1 -1q-14 -25 -27.5 -40t-30 -21t-27.5 -7.5t-30 -1.5q-24 0 -47.5 6t-46.5 28.5t-23 58.5q-3 -2 -20 -23zM75 152q24 18 28 18l7 -1q6 -1 16 -2t20 -1q37 1 61.5 31t24.5 48q0 27 -43 27q-33 0 -59.5 -33t-54.5 -87zM208 374q7 12 18 27.5t15 22.5q6 12 6 20 q0 18 -24 23q40 38 45 38q16 0 21 -25v-6q0 -25 -45 -70q-10 -10 -36 -30z" />
<glyph unicode="&#xe9;" horiz-adv-x="251" vert-adv-y="563" d="M-1 71q15 25 21 32q9 49 33 94q43 89 135 89q28 0 54.5 -13t26.5 -37q0 -4 -1.5 -11.5t-8.5 -21t-18.5 -24.5t-33.5 -19.5t-51 -8.5q-18 0 -34.5 4t-17.5 4q-10 0 -34 -20q-11 -33 -11 -59q0 -66 71 -66q26 0 42 15q2 2 5.5 6.5t6 7t6.5 5t9 2.5h14q11 0 18.5 3.5t10 6 t9.5 11.5l1 -1q-14 -25 -27.5 -40t-30 -21t-27.5 -7.5t-30 -1.5q-24 0 -47.5 6t-46.5 28.5t-23 58.5q-3 -2 -20 -23zM75 152q24 18 28 18l7 -1q6 -1 16 -2t20 -1q37 1 61.5 31t24.5 48q0 27 -43 27q-33 0 -59.5 -33t-54.5 -87zM197 373q14 68 21 82q19 43 47 43q19 0 19 -14 q0 -3 -12 -51q-12 12 -18 12q-15 0 -28 -18q-4 -7 -13 -24.5t-16 -29.5z" />
<glyph unicode="&#xea;" horiz-adv-x="251" vert-adv-y="563" d="M-1 71q15 25 21 32q9 49 33 94q43 89 135 89q28 0 54.5 -13t26.5 -37q0 -4 -1.5 -11.5t-8.5 -21t-18.5 -24.5t-33.5 -19.5t-51 -8.5q-18 0 -34.5 4t-17.5 4q-10 0 -34 -20q-11 -33 -11 -59q0 -66 71 -66q26 0 42 15q2 2 5.5 6.5t6 7t6.5 5t9 2.5h14q11 0 18.5 3.5t10 6 t9.5 11.5l1 -1q-14 -25 -27.5 -40t-30 -21t-27.5 -7.5t-30 -1.5q-24 0 -47.5 6t-46.5 28.5t-23 58.5q-3 -2 -20 -23zM75 152q24 18 28 18l7 -1q6 -1 16 -2t20 -1q37 1 61.5 31t24.5 48q0 27 -43 27q-33 0 -59.5 -33t-54.5 -87zM108 376q6 17 23.5 31.5t39.5 36t36 52.5h39 q17 -39 43.5 -70t32.5 -50q-49 33 -64.5 46.5t-33.5 39.5q-10 -15 -21.5 -24.5t-42.5 -28.5t-52 -33z" />
<glyph unicode="&#xeb;" horiz-adv-x="251" vert-adv-y="563" d="M-1 71q15 25 21 32q9 49 33 94q43 89 135 89q28 0 54.5 -13t26.5 -37q0 -4 -1.5 -11.5t-8.5 -21t-18.5 -24.5t-33.5 -19.5t-51 -8.5q-18 0 -34.5 4t-17.5 4q-10 0 -34 -20q-11 -33 -11 -59q0 -66 71 -66q26 0 42 15q2 2 5.5 6.5t6 7t6.5 5t9 2.5h14q11 0 18.5 3.5t10 6 t9.5 11.5l1 -1q-14 -25 -27.5 -40t-30 -21t-27.5 -7.5t-30 -1.5q-24 0 -47.5 6t-46.5 28.5t-23 58.5q-3 -2 -20 -23zM75 152q24 18 28 18l7 -1q6 -1 16 -2t20 -1q37 1 61.5 31t24.5 48q0 27 -43 27q-33 0 -59.5 -33t-54.5 -87zM131 450q0 6 10.5 12t10.5 16q0 2 -2 5l-3 3 q20 10 31 10q10 0 10 -10q0 -16 -13.5 -31t-28.5 -15t-15 10zM287 450q0 6 11 12t11 16q0 3 -5 8q23 10 30 10q11 0 11 -10q0 -17 -13.5 -31.5t-29.5 -14.5q-15 0 -15 10z" />
<glyph unicode="&#xec;" horiz-adv-x="180" vert-adv-y="563" d="M0 70l22 44q1 2 14 15q11 47 34 100t46 53q9 0 15.5 -6.5t6.5 -15.5q0 -20 -17.5 -59.5t-43.5 -63.5q-12 -36 -12 -75q0 -48 26 -48q11 0 16 3t18 19q1 1 3.5 4.5t4 5t4.5 3t7 1.5h9q8 0 12.5 2t6 3t5.5 7t5 8q-16 -32 -38 -54q-21 -16 -42 -16q-37 0 -56 22t-19 53 q0 15 6 41q-13 -15 -33 -46zM81 158q35 38 41 95q-36 -75 -41 -95zM146 373q7 11 18.5 27t15.5 24q6 12 6 19q0 19 -24 24q7 6 18 17.5t17 16t10 4.5q15 0 21 -26v-5q0 -22 -45 -71q-5 -4 -18 -14.5t-19 -15.5z" />
<glyph unicode="&#xed;" horiz-adv-x="180" vert-adv-y="563" d="M0 70l22 44q1 2 14 15q11 47 34 100t46 53q9 0 15.5 -6.5t6.5 -15.5q0 -20 -17.5 -59.5t-43.5 -63.5q-12 -36 -12 -75q0 -48 26 -48q11 0 16 3t18 19q1 1 3.5 4.5t4 5t4.5 3t7 1.5h9q8 0 12.5 2t6 3t5.5 7t5 8q-16 -32 -38 -54q-21 -16 -42 -16q-37 0 -56 22t-19 53 q0 15 6 41q-13 -15 -33 -46zM81 158q35 38 41 95q-36 -75 -41 -95zM143 373q14 68 21 82q19 43 47 43q19 0 19 -14q0 -3 -12 -51q-12 12 -18 12q-15 0 -28 -18q-4 -7 -13 -24.5t-16 -29.5z" />
<glyph unicode="&#xee;" horiz-adv-x="180" vert-adv-y="563" d="M0 70l22 44q1 2 14 15q11 47 34 100t46 53q9 0 15.5 -6.5t6.5 -15.5q0 -20 -17.5 -59.5t-43.5 -63.5q-12 -36 -12 -75q0 -48 26 -48q11 0 16 3t18 19q1 1 3.5 4.5t4 5t4.5 3t7 1.5h9q8 0 12.5 2t6 3t5.5 7t5 8q-16 -32 -38 -54q-21 -16 -42 -16q-37 0 -56 22t-19 53 q0 15 6 41q-13 -15 -33 -46zM54 376q6 17 23.5 31.5t39.5 36t36 52.5h39q17 -39 43.5 -70t32.5 -50q-49 33 -64.5 46.5t-33.5 39.5q-10 -15 -21.5 -24.5t-42.5 -28.5t-52 -33zM81 158q35 38 41 95q-36 -75 -41 -95z" />
<glyph unicode="&#xef;" horiz-adv-x="180" vert-adv-y="563" d="M0 70l22 44q1 2 14 15q11 47 34 100t46 53q9 0 15.5 -6.5t6.5 -15.5q0 -20 -17.5 -59.5t-43.5 -63.5q-12 -36 -12 -75q0 -48 26 -48q11 0 16 3t18 19q1 1 3.5 4.5t4 5t4.5 3t7 1.5h9q8 0 12.5 2t6 3t5.5 7t5 8q-16 -32 -38 -54q-21 -16 -42 -16q-37 0 -56 22t-19 53 q0 15 6 41q-13 -15 -33 -46zM81 158q35 38 41 95q-36 -75 -41 -95zM94 450q0 6 10.5 12t10.5 16q0 2 -3 5l-2 3q20 10 31 10q10 0 10 -10q0 -16 -13.5 -31t-28.5 -15t-15 10zM250 450q0 6 11 12t11 16q0 3 -5 8q23 10 30 10q11 0 11 -10q0 -17 -13.5 -31.5t-29.5 -14.5 q-15 0 -15 10z" />
<glyph unicode="&#xf0;" horiz-adv-x="280" vert-adv-y="563" d="M17 95q0 77 46.5 134t87.5 57q22 0 32.5 -13.5t10.5 -25.5q0 -7 -6 -7q-3 0 -10 1.5t-9 1.5q-6 29 -18 29q-5 0 -14.5 -6t-23 -21t-25.5 -36.5t-20.5 -56t-8.5 -75.5q0 -63 48 -63t89 77q24 43 24 93q0 84 -37 155q-14 24 -34 48l-36 -39l-13 12q16 20 40 38 q-10 12 -21.5 25t-17.5 19.5t-6 7.5q0 24 12 24q6 0 55 -54q23 23 39 49l15 -13l-45 -47q21 -24 35 -48q51 -83 51 -178q0 -51 -29 -118q7 -18 19 -18q17 0 32 24l1 -1q-2 -9 -14 -19t-19 -10q-18 0 -26 14q-36 -55 -95 -55q-36 0 -60.5 12.5t-33.5 31.5t-12 30.5t-3 20.5z " />
<glyph unicode="&#xf1;" horiz-adv-x="335" vert-adv-y="563" d="M-1 71q28 54 47.5 99t25.5 63l5 18q6 35 28 35q17 0 17 -23q0 -21 -21 -50q-10 -30 -21 -96q50 112 62 128q30 41 100 41q43 0 59.5 -15.5t16.5 -31.5q0 -39 -38 -109t-39 -91q0 -25 24 -25q26 0 70 57l1 -1q-17 -29 -25 -40t-25 -23q-14 -7 -28 -7q-30 0 -44 26 q-5 11 -5 26q0 12 36.5 84.5t36.5 104.5q0 17 -9 24t-33 7q-21 0 -39.5 -12.5t-25 -22t-17.5 -26.5l-95 -199q-5 -12 -16 -12q-17 0 -17 12q0 5 2 9t2 5q21 107 30 163q-9 -14 -30 -56t-34 -63zM163 438q21 34 37 34t56 -11.5t52 -11.5q6 0 11 0.5t10 2.5t7.5 2.5t7 4.5 t5.5 5l6.5 6.5l6.5 6.5l6 -7q6 -7 7 -12q-32 -26 -54 -26q-27 0 -60.5 11t-44.5 11q-14 0 -24 -12t-13 -12q-8 0 -16 8z" />
<glyph unicode="&#xf2;" horiz-adv-x="288" vert-adv-y="563" d="M24 95q0 77 47 134t88 57q21 0 32 -13.5t11 -25.5q0 -7 -7 -7q-3 0 -9.5 1.5t-8.5 1.5q-6 29 -18 29q-5 0 -15 -6t-23.5 -21t-25.5 -36.5t-20.5 -56t-8.5 -75.5q0 -63 49 -63q57 0 88 77q-12 24 -12 58q0 20 4 43t8 36l4 13q-1 6 -1 20q0 23 13 23q5 0 15 -7t14 -19 q6 -16 10.5 -34.5t5.5 -29.5l1 -11q0 -53 -30 -118q8 -18 20 -18q15 0 32 24l1 -1q-2 -9 -14 -19t-19 -10q-20 0 -26 14q-36 -55 -95 -55q-36 0 -61 12.5t-34 31.5t-12 30.5t-3 20.5zM202 155q0 -27 8 -51q16 39 16 80q0 23 -9 59q0 -6 -7.5 -33.5t-7.5 -54.5zM208 374 q7 12 18 27.5t15 22.5q6 12 6 20q0 18 -24 23q40 38 45 38q16 0 21 -25v-6q0 -25 -45 -70q-10 -10 -36 -30z" />
<glyph unicode="&#xf3;" horiz-adv-x="288" vert-adv-y="563" d="M24 95q0 77 47 134t88 57q21 0 32 -13.5t11 -25.5q0 -7 -7 -7q-3 0 -9.5 1.5t-8.5 1.5q-6 29 -18 29q-5 0 -15 -6t-23.5 -21t-25.5 -36.5t-20.5 -56t-8.5 -75.5q0 -63 49 -63q57 0 88 77q-12 24 -12 58q0 20 4 43t8 36l4 13q-1 6 -1 20q0 23 13 23q5 0 15 -7t14 -19 q6 -16 10.5 -34.5t5.5 -29.5l1 -11q0 -53 -30 -118q8 -18 20 -18q15 0 32 24l1 -1q-2 -9 -14 -19t-19 -10q-20 0 -26 14q-36 -55 -95 -55q-36 0 -61 12.5t-34 31.5t-12 30.5t-3 20.5zM202 155q0 -27 8 -51q16 39 16 80q0 23 -9 59q0 -6 -7.5 -33.5t-7.5 -54.5zM204 373 q14 68 21 82q19 43 47 43q19 0 19 -14q0 -3 -12 -51q-12 12 -18 12q-15 0 -28 -18q-5 -7 -13.5 -24.5t-15.5 -29.5z" />
<glyph unicode="&#xf4;" horiz-adv-x="288" vert-adv-y="563" d="M24 95q0 77 47 134t88 57q21 0 32 -13.5t11 -25.5q0 -7 -7 -7q-3 0 -9.5 1.5t-8.5 1.5q-6 29 -18 29q-5 0 -15 -6t-23.5 -21t-25.5 -36.5t-20.5 -56t-8.5 -75.5q0 -63 49 -63q57 0 88 77q-12 24 -12 58q0 20 4 43t8 36l4 13q-1 6 -1 20q0 23 13 23q5 0 15 -7t14 -19 q6 -16 10.5 -34.5t5.5 -29.5l1 -11q0 -53 -30 -118q8 -18 20 -18q15 0 32 24l1 -1q-2 -9 -14 -19t-19 -10q-20 0 -26 14q-36 -55 -95 -55q-36 0 -61 12.5t-34 31.5t-12 30.5t-3 20.5zM96 376q6 17 23.5 31.5t39.5 36t36 52.5h39q17 -39 43.5 -70t32.5 -50q-49 33 -64.5 46.5 t-33.5 39.5q-10 -15 -21.5 -24.5t-42.5 -28.5t-52 -33zM202 155q0 -27 8 -51q16 39 16 80q0 23 -9 59q0 -6 -7.5 -33.5t-7.5 -54.5z" />
<glyph unicode="&#xf5;" horiz-adv-x="288" vert-adv-y="563" d="M24 95q0 77 47 134t88 57q21 0 32 -13.5t11 -25.5q0 -7 -7 -7q-3 0 -9.5 1.5t-8.5 1.5q-6 29 -18 29q-5 0 -15 -6t-23.5 -21t-25.5 -36.5t-20.5 -56t-8.5 -75.5q0 -63 49 -63q57 0 88 77q-12 24 -12 58q0 20 4 43t8 36l4 13q-1 6 -1 20q0 23 13 23q5 0 15 -7t14 -19 q6 -16 10.5 -34.5t5.5 -29.5l1 -11q0 -53 -30 -118q8 -18 20 -18q15 0 32 24l1 -1q-2 -9 -14 -19t-19 -10q-20 0 -26 14q-36 -55 -95 -55q-36 0 -61 12.5t-34 31.5t-12 30.5t-3 20.5zM124 438q21 34 37 34t56 -11.5t52 -11.5q6 0 11 0.5t10 2.5t7.5 2.5t7 4.5t5.5 5l6.5 6.5 l6.5 6.5l6 -7q6 -7 7 -12q-32 -26 -54 -26q-27 0 -60.5 11t-44.5 11q-14 0 -24 -12t-13 -12q-8 0 -16 8zM202 155q0 -27 8 -51q16 39 16 80q0 23 -9 59q0 -6 -7.5 -33.5t-7.5 -54.5z" />
<glyph unicode="&#xf6;" horiz-adv-x="288" vert-adv-y="563" d="M24 95q0 77 47 134t88 57q21 0 32 -13.5t11 -25.5q0 -7 -7 -7q-3 0 -9.5 1.5t-8.5 1.5q-6 29 -18 29q-5 0 -15 -6t-23.5 -21t-25.5 -36.5t-20.5 -56t-8.5 -75.5q0 -63 49 -63q57 0 88 77q-12 24 -12 58q0 20 4 43t8 36l4 13q-1 6 -1 20q0 23 13 23q5 0 15 -7t14 -19 q6 -16 10.5 -34.5t5.5 -29.5l1 -11q0 -53 -30 -118q8 -18 20 -18q15 0 32 24l1 -1q-2 -9 -14 -19t-19 -10q-20 0 -26 14q-36 -55 -95 -55q-36 0 -61 12.5t-34 31.5t-12 30.5t-3 20.5zM131 450q0 6 10.5 12t10.5 16q0 2 -2 5l-3 3q20 10 31 10q10 0 10 -10q0 -16 -13.5 -31 t-28.5 -15t-15 10zM202 155q0 -27 8 -51q16 39 16 80q0 23 -9 59q0 -6 -7.5 -33.5t-7.5 -54.5zM287 450q0 6 11 12t11 16q0 3 -5 8q23 10 30 10q11 0 11 -10q0 -17 -13.5 -31.5t-29.5 -14.5q-15 0 -15 10z" />
<glyph unicode="&#xf7;" horiz-adv-x="360" vert-adv-y="563" d="M44 214q0 10 6 27q44 -1 168 -1q68 0 107 7q-1 -7 -7 -32q-51 -4 -73 -4q-7 0 -75.5 1.5t-125.5 1.5zM141 96q0 37 28 37q7 0 13 -6.5t6 -14.5q0 -27 -27 -27q-16 0 -20 11zM189 350q0 17 6 25.5t11 10t13 1.5q7 0 12.5 -6.5t5.5 -14.5q0 -27 -26 -27q-18 0 -22 11z" />
<glyph unicode="&#xf8;" horiz-adv-x="291" vert-adv-y="563" d="M22 2q3 4 13.5 14.5t16.5 17.5q-23 27 -23 61q0 77 47 134t88 57q29 0 40 -25l36 64l29 -16l-26 -38q15 -15 21 -43.5t6 -44.5q0 -14 -5 -39t-17 -60t-41 -59.5t-68 -24.5q-43 0 -71 19l-23 -34zM67 77q0 -11 3 -20q52 64 123 184q-2 1 -5.5 1t-5.5 1q-6 29 -18 29 q-5 0 -15.5 -6t-24.5 -21t-26.5 -36.5t-21.5 -56t-9 -75.5zM79 35q13 -21 41 -21q32 0 55.5 24t34.5 57t15.5 56t4.5 33q0 39 -7 58z" />
<glyph unicode="&#xf9;" horiz-adv-x="347" vert-adv-y="563" d="M-1 71q3 7 19 31t28 35q1 3 12 49.5t25.5 74t35.5 27.5q26 0 26 -22q0 -13 -16 -48.5t-46 -66.5q-10 -40 -12 -67q0 -28 13 -49t38 -21q42 0 62.5 26t39.5 86q4 15 17.5 58t27.5 91q4 11 22 11q19 0 19 -15q0 -16 -25 -86.5t-25 -103.5q0 -67 25 -67q22 0 37 15 q3 4 25 42l1 -1q-20 -48 -38 -62q-13 -8 -26 -8t-21.5 2.5t-13.5 10t-6.5 13t-4.5 19.5t-5 20q-10 -20 -13.5 -25.5t-16 -18.5t-31.5 -17t-49 -4q-39 0 -60 27.5t-21 59.5q0 17 3 28q-25 -12 -45 -45zM87 177q13 14 29 45.5t16 44.5q0 8 -9 8q-7 -7 -19.5 -42t-16.5 -56z M208 374q7 12 18 27.5t15 22.5q6 12 6 20q0 18 -24 23q40 38 45 38q16 0 21 -25v-6q0 -25 -45 -70q-10 -10 -36 -30z" />
<glyph unicode="&#xfa;" horiz-adv-x="371" vert-adv-y="563" d="M-1 71q3 7 19 31t28 35q1 3 12 49.5t25.5 74t35.5 27.5q26 0 26 -22q0 -13 -16 -48.5t-46 -66.5q-10 -40 -12 -67q0 -28 13 -49t38 -21q42 0 62.5 26t39.5 86q4 15 17.5 58t27.5 91q4 11 22 11q19 0 19 -15q0 -16 -25 -86.5t-25 -103.5q0 -67 25 -67q22 0 37 15 q3 4 25 42l1 -1q-20 -48 -38 -62q-13 -8 -26 -8t-21.5 2.5t-13.5 10t-6.5 13t-4.5 19.5t-5 20q-10 -20 -13.5 -25.5t-16 -18.5t-31.5 -17t-49 -4q-39 0 -60 27.5t-21 59.5q0 17 3 28q-25 -12 -45 -45zM87 177q13 14 29 45.5t16 44.5q0 8 -9 8q-7 -7 -19.5 -42t-16.5 -56z M209 373q14 68 21 82q19 43 47 43q19 0 19 -14q0 -3 -12 -51q-12 12 -18 12q-15 0 -28 -18q-4 -7 -13 -24.5t-16 -29.5z" />
<glyph unicode="&#xfb;" horiz-adv-x="347" vert-adv-y="563" d="M-1 71q3 7 19 31t28 35q1 3 12 49.5t25.5 74t35.5 27.5q26 0 26 -22q0 -13 -16 -48.5t-46 -66.5q-10 -40 -12 -67q0 -28 13 -49t38 -21q42 0 62.5 26t39.5 86q4 15 17.5 58t27.5 91q4 11 22 11q19 0 19 -15q0 -16 -25 -86.5t-25 -103.5q0 -67 25 -67q22 0 37 15 q3 4 25 42l1 -1q-20 -48 -38 -62q-13 -8 -26 -8t-21.5 2.5t-13.5 10t-6.5 13t-4.5 19.5t-5 20q-10 -20 -13.5 -25.5t-16 -18.5t-31.5 -17t-49 -4q-39 0 -60 27.5t-21 59.5q0 17 3 28q-25 -12 -45 -45zM87 177q13 14 29 45.5t16 44.5q0 8 -9 8q-7 -7 -19.5 -42t-16.5 -56z M108 376q6 17 23.5 31.5t39.5 36t36 52.5h39q17 -39 43.5 -70t32.5 -50q-49 33 -64.5 46.5t-33.5 39.5q-10 -15 -21.5 -24.5t-42.5 -28.5t-52 -33z" />
<glyph unicode="&#xfc;" horiz-adv-x="347" vert-adv-y="563" d="M-1 71q3 7 19 31t28 35q1 3 12 49.5t25.5 74t35.5 27.5q26 0 26 -22q0 -13 -16 -48.5t-46 -66.5q-10 -40 -12 -67q0 -28 13 -49t38 -21q42 0 62.5 26t39.5 86q4 15 17.5 58t27.5 91q4 11 22 11q19 0 19 -15q0 -16 -25 -86.5t-25 -103.5q0 -67 25 -67q22 0 37 15 q3 4 25 42l1 -1q-20 -48 -38 -62q-13 -8 -26 -8t-21.5 2.5t-13.5 10t-6.5 13t-4.5 19.5t-5 20q-10 -20 -13.5 -25.5t-16 -18.5t-31.5 -17t-49 -4q-39 0 -60 27.5t-21 59.5q0 17 3 28q-25 -12 -45 -45zM87 177q13 14 29 45.5t16 44.5q0 8 -9 8q-7 -7 -19.5 -42t-16.5 -56z M141 450q0 6 10.5 12t10.5 16q0 2 -2 5l-3 3q20 10 31 10q10 0 10 -10q0 -16 -13.5 -31t-28.5 -15t-15 10zM297 450q0 6 11 12t11 16q0 3 -5 8q23 10 30 10q11 0 11 -10q0 -17 -13.5 -31.5t-29.5 -14.5q-15 0 -15 10z" />
<glyph unicode="&#xfd;" horiz-adv-x="309" vert-adv-y="563" d="M-88 -364q0 12 1.5 20t3 14t8.5 15.5t11.5 15t18 21.5t23.5 28q18 22 40 48t44 54t58 76l2 -1q-35 -51 -73 -102t-53 -71.5t-29 -43.5t-17.5 -37t-3.5 -34t12.5 -32t31.5 -12q25 0 52 15q12 8 24.5 24.5t24 42.5t21.5 51.5t22.5 65.5t21 69.5t22.5 78t23 77.5 q-10 -9 -35.5 -14t-42.5 -5q-67 0 -78 115q-31 -21 -45 -45l-1 1q3 15 22 36q2 4 10 13t14 17q8 28 12 47q13 62 23.5 82t36.5 20q8 0 12 -1q17 0 17 -20q0 -9 -3 -22.5t-17 -41t-37 -50.5q-12 -34 -12 -70q0 -67 48 -67q47 0 94 87q4 14 16 55t21 70.5t18 48.5q8 10 15 12 q13 0 17 -4.5t4 -17.5q0 -20 -5.5 -40.5t-11 -33t-14 -28.5t-9.5 -19q-67 -253 -139 -453q-49 -111 -138 -111q-22 0 -36.5 2t-29.5 15.5t-15 38.5zM90 177q13 13 27.5 45t14.5 45q0 8 -9 8q-3 -3 -8 -15t-10 -27t-9 -30.5t-6 -25.5zM202 373q1 3 3 14t3.5 20.5t5.5 23 t9 24.5q11 25 21.5 34t25.5 9q19 0 19 -14q0 -3 -12 -51q-12 12 -18 12q-15 0 -28 -18q-5 -7 -13.5 -24.5t-15.5 -29.5z" />
<glyph unicode="&#xfe;" horiz-adv-x="309" vert-adv-y="563" d="M-95 -395q0 14 15.5 66.5t59 189t74.5 239.5q26 91 26 107q-3 -6 -24.5 -50t-54.5 -87q38 63 91 202q19 47 35.5 113.5t27.5 97t29 30.5q8 0 8 -24q0 -12 -19 -83.5t-39.5 -144.5t-21.5 -77q29 55 59.5 78.5t52.5 23.5q36 0 63 -21.5t27 -61.5q0 -20 -3 -42t-13.5 -52.5 t-28 -53t-50.5 -39t-77 -16.5q-26 0 -69 35q-23 -76 -54.5 -173t-54.5 -164.5t-26 -79.5q-7 -28 -15 -32q-3 -2 -8 -2q-10 0 -10 21zM78 52q39 -35 68 -35q37 0 64.5 21t40 53.5t18 60.5t5.5 52q0 68 -45 68q-18 0 -38 -17t-36.5 -42.5t-30 -50t-23.5 -45.5t-11 -22z" />
<glyph unicode="&#xff;" horiz-adv-x="309" vert-adv-y="563" d="M-88 -364q0 12 1.5 20t3 14t8.5 15.5t11.5 15t18 21.5t23.5 28q18 22 40 48t44 54t58 76l2 -1q-35 -51 -73 -102t-53 -71.5t-29 -43.5t-17.5 -37t-3.5 -34t12.5 -32t31.5 -12q25 0 52 15q12 8 24.5 24.5t24 42.5t21.5 51.5t22.5 65.5t21 69.5t22.5 78t23 77.5 q-10 -9 -35.5 -14t-42.5 -5q-67 0 -78 115q-31 -21 -45 -45l-1 1q3 15 22 36q2 4 10 13t14 17q8 28 12 47q13 62 23.5 82t36.5 20q8 0 12 -1q17 0 17 -20q0 -9 -3 -22.5t-17 -41t-37 -50.5q-12 -34 -12 -70q0 -67 48 -67q47 0 94 87q4 14 16 55t21 70.5t18 48.5q8 10 15 12 q13 0 17 -4.5t4 -17.5q0 -20 -5.5 -40.5t-11 -33t-14 -28.5t-9.5 -19q-67 -253 -139 -453q-49 -111 -138 -111q-22 0 -36.5 2t-29.5 15.5t-15 38.5zM90 177q13 13 27.5 45t14.5 45q0 8 -9 8q-3 -3 -8 -15t-10 -27t-9 -30.5t-6 -25.5zM131 450q0 6 10.5 12t10.5 16 q0 2 -2.5 5l-2.5 3q20 10 31 10q10 0 10 -10q0 -16 -13.5 -31t-28.5 -15t-15 10zM287 450q0 6 11 12t11 16q0 3 -5 8q23 10 30 10q11 0 11 -10q0 -17 -13.5 -31.5t-29.5 -14.5q-15 0 -15 10z" />
<glyph unicode="&#x153;" horiz-adv-x="442" vert-adv-y="563" d="M24 95q0 77 47 134t88 57q21 0 32 -13.5t11 -25.5q0 -7 -7 -7q-3 0 -9.5 1.5t-8.5 1.5q-6 29 -18 29q-5 0 -15 -6t-23.5 -21t-25.5 -36.5t-20.5 -56t-8.5 -75.5q0 -63 49 -63q57 0 88 77q23 54 23 93q0 34 -9 59q-2 6 -6.5 10t-4.5 8q0 23 13 23q5 0 15 -7t14 -19 q2 -6 11 -35q44 63 121 63q28 0 54.5 -13t26.5 -37q0 -4 -2 -11.5t-9 -21t-18 -24.5t-33 -19.5t-51 -8.5q-18 0 -34.5 4t-18.5 4q-22 -5 -24 -7q-21 -54 -21 -72q0 -35 20 -50.5t51 -15.5q27 0 43 15q2 2 5.5 6.5t6 7t6.5 5t9 2.5h13q9 0 15 1t10.5 4.5t6.5 5.5t7 9 q-14 -25 -27.5 -40t-30 -21t-27.5 -7.5t-30 -1.5q-76 0 -105 47q-34 -47 -89 -47q-36 0 -61 12.5t-34 31.5t-12 30.5t-3 20.5zM273 166q3 2 19 4q1 0 7.5 -1t16.5 -2t20 -1q37 1 62 31t25 48q0 27 -43 27q-34 0 -57.5 -27t-49.5 -79z" />
<glyph unicode="&#x178;" horiz-adv-x="819" vert-adv-y="563" d="M85 450q0 43 32.5 71.5t69.5 28.5q39 0 71.5 -15t52.5 -32.5t50.5 -32.5t66.5 -15q7 0 13 0.5t12 2.5t10 3.5t10.5 5.5t9.5 5.5t10.5 8t10 8.5t11.5 10t12 10q9 8 20 38q11 27 30 33q12 0 23 -12t11 -23v-1q-1 -10 -14 -16.5t-16 -10.5q-15 -19 -23 -57 q-17 -45 -40.5 -100t-35.5 -84t-21 -65.5t-9 -69.5q0 -69 29 -98t58 -29q60 0 168 132q9 38 26 106q52 215 72.5 272t54.5 57q24 0 24 -63q0 -11 -1.5 -26.5t-10 -52.5t-23 -78.5t-44 -104t-69.5 -128.5q-10 -48 -63 -209.5t-109 -286.5q-7 -17 -33 -29q-33 -18 -98 -22 q-53 1 -103 27q-75 48 -75 110q0 19 11 35.5t37 16.5q47 0 80 -34q8 -8 19.5 -26.5t11.5 -31.5q-6 -11 -22 -11q-13 0 -20 7q1 6 1 28q0 17 -9 35q-7 8 -19.5 15t-19.5 7q-16 0 -26.5 -21.5t-10.5 -45.5q0 -49 48 -75q42 -27 94 -27q42 0 65 19q33 30 47 57 q15 31 52.5 133.5t67.5 189.5l30 87q-32 -30 -47 -43t-39.5 -23t-54.5 -10q-34 0 -59 15.5t-37.5 36t-20 48t-9 44.5t-1.5 33q0 19 4 39.5t15 53t19 53t28.5 72t30.5 77.5q-55 -32 -83 -32q-39 0 -69 10t-49 24t-36.5 28.5t-39.5 24.5t-50 10q-23 0 -39 -11.5t-22 -30 t-8.5 -32t-2.5 -25.5q0 -26 7.5 -46.5t18.5 -20.5q8 0 8 14q0 6 -0.5 13t-0.5 17q0 4 5 4t17 -9t12 -17q0 -15 -11 -26t-27 -11q-24 0 -45 31.5t-21 62.5zM637 667q0 6 10.5 12t10.5 16q0 2 -2 5l-3 3q20 10 31 10q10 0 10 -10q0 -16 -13.5 -31t-28.5 -15t-15 10zM744 189 q9 15 32 68.5t50.5 142.5t27.5 148q0 10 -2 12q-25 -33 -42 -91t-34.5 -145t-31.5 -135zM793 667q0 6 11 12t11 16q0 3 -5 8q23 10 30 10q11 0 11 -10q0 -17 -13.5 -31.5t-29.5 -14.5q-15 0 -15 10z" />
<glyph unicode="&#x2c6;" horiz-adv-x="220" vert-adv-y="563" d="M4 376q6 17 23.5 31.5t39.5 36t36 52.5h39q17 -39 43.5 -70t32.5 -50q-49 33 -64.5 46.5t-33.5 39.5q-10 -15 -21.5 -24.5t-42.5 -28.5t-52 -33z" />
<glyph unicode="&#x2dc;" horiz-adv-x="269" vert-adv-y="563" d="M19 438q21 34 37 34t56 -11.5t52 -11.5q6 0 11 0.5t10 2.5t7.5 2.5t7 4.5t5.5 5l6.5 6.5l6.5 6.5l6 -7q6 -7 7 -12q-32 -26 -54 -26q-27 0 -60.5 11t-44.5 11q-14 0 -24 -12t-13 -12q-8 0 -16 8z" />
<glyph unicode="&#x2000;" horiz-adv-x="401" vert-adv-y="0" />
<glyph unicode="&#x2001;" horiz-adv-x="802" vert-adv-y="0" />
<glyph unicode="&#x2002;" horiz-adv-x="401" vert-adv-y="0" />
<glyph unicode="&#x2003;" horiz-adv-x="802" vert-adv-y="0" />
<glyph unicode="&#x2004;" horiz-adv-x="267" vert-adv-y="0" />
<glyph unicode="&#x2005;" horiz-adv-x="200" vert-adv-y="0" />
<glyph unicode="&#x2006;" horiz-adv-x="133" vert-adv-y="0" />
<glyph unicode="&#x2007;" horiz-adv-x="133" vert-adv-y="0" />
<glyph unicode="&#x2008;" horiz-adv-x="100" vert-adv-y="0" />
<glyph unicode="&#x2009;" horiz-adv-x="160" vert-adv-y="0" />
<glyph unicode="&#x200a;" horiz-adv-x="44" vert-adv-y="0" />
<glyph unicode="&#x2010;" horiz-adv-x="375" vert-adv-y="563" d="M72 214q0 9 5 27q45 -1 169 -1q68 0 108 7q-4 -20 -7 -32q-51 -4 -75 -4q-6 0 -74.5 1.5t-125.5 1.5z" />
<glyph unicode="&#x2011;" horiz-adv-x="375" vert-adv-y="563" d="M72 214q0 9 5 27q45 -1 169 -1q68 0 108 7q-4 -20 -7 -32q-51 -4 -75 -4q-6 0 -74.5 1.5t-125.5 1.5z" />
<glyph unicode="&#x2012;" horiz-adv-x="375" vert-adv-y="563" d="M72 214q0 9 5 27q45 -1 169 -1q68 0 108 7q-4 -20 -7 -32q-51 -4 -75 -4q-6 0 -74.5 1.5t-125.5 1.5z" />
<glyph unicode="&#x2013;" horiz-adv-x="593" vert-adv-y="563" d="M72 214q0 9 9 27q80 -1 300 -1q120 0 191 7q-7 -20 -12 -32q-91 -4 -133 -4q-11 0 -132.5 1.5t-222.5 1.5z" />
<glyph unicode="&#x2014;" horiz-adv-x="1093" vert-adv-y="563" d="M72 214q0 9 18 27q159 -1 599 -1q241 0 383 7q-14 -20 -25 -32q-181 -4 -266 -4q-21 0 -264 1.5t-445 1.5z" />
<glyph unicode="&#x202f;" horiz-adv-x="160" vert-adv-y="0" />
<glyph unicode="&#x205f;" horiz-adv-x="200" vert-adv-y="0" />
<glyph unicode="&#x20ac;" horiz-adv-x="387" vert-adv-y="563" d="M14 115q0 3 0.5 7t0.5 7q0 8 -1 16q15 5 43 17q0 28 4 51l-34 -15q0 3 0.5 7t0.5 7l-2 16q11 4 40 16q20 98 75 159t123 61q51 0 80.5 -26t29.5 -54q0 -41 -12 -48q-14 17 -21 52q0 61 -67 61q-57 0 -100.5 -51t-66.5 -134q8 4 24 10q121 51 134 58v-12q0 -6 -0.5 -13 t-0.5 -8v-2l1 -1q-52 -18 -105 -40l-61 -27q-6 -31 -7 -51l31 13q112 48 128 56q1 -4 1 -12q0 -6 -1 -13t-1 -8t1 -2v-1q-52 -18 -99 -38l-63 -26v-24q0 -57 40 -84t84 -27q19 0 35 10.5t38 34.5q28 0 28 -9q0 -8 -16 -20q-40 -28 -78 -28q-55 0 -105 33.5t-57 99.5z" />
</font>
</defs>
</svg>
