<?xml version="1.0" standalone="no"?>
<!DOCTYPE svg PUBLIC "-//W3C//DTD SVG 1.1//EN" "http://www.w3.org/Graphics/SVG/1.1/DTD/svg11.dtd" >
<svg xmlns="http://www.w3.org/2000/svg">
<metadata></metadata>
<defs>
<font id="panefresco_1wtitalic" horiz-adv-x="530" >
<font-face units-per-em="1000" ascent="750" descent="-250" />
<missing-glyph horiz-adv-x="235" />
<glyph horiz-adv-x="1000" />
<glyph horiz-adv-x="1000" />
<glyph unicode="&#xd;" horiz-adv-x="235" />
<glyph unicode=" "  horiz-adv-x="235" />
<glyph unicode="&#x09;" horiz-adv-x="235" />
<glyph unicode="&#xa0;" horiz-adv-x="235" />
<glyph unicode="!" horiz-adv-x="262" d="M128 80h40l-17 -80h-40zM273 699h35l-112 -486h-35z" />
<glyph unicode="&#x22;" horiz-adv-x="280" d="M305 470l52 230h37l-54 -230h-35zM157 470l52 230h37l-54 -230h-35z" />
<glyph unicode="#" d="M435 190l-42 -190h-36l42 190h-188l-42 -190h-36l42 190h-120l8 32h120l52 226h-120l7 32h120l44 190h36l-44 -190h188l44 190h36l-44 -190h120l-7 -32h-120l-52 -226h120l-8 -32h-120zM459 448h-188l-52 -226h188z" />
<glyph unicode="$" d="M600 626l-56 6q-24 2 -52 4.5t-51 3.5l-66 -288q30 -15 57.5 -33t47.5 -41t28.5 -53t0.5 -67q-7 -29 -22 -57.5t-41 -51.5t-64 -38t-90 -17l-26 -114l-30 7l24 106q-23 0 -51 2t-54.5 4t-49 4.5t-35.5 4.5l12 34q15 -2 40 -4.5t52 -5t52.5 -4.5t41.5 -3l70 305l-6 3 q-28 15 -58 29.5t-53 35t-34.5 48.5t-2.5 69q15 75 71 114.5t163 42.5l27 118h31l-27 -117q19 -1 41.5 -3t44 -4t41.5 -4.5t34 -4.5zM217 509q-7 -26 2.5 -47t28.5 -38t45.5 -31t53.5 -27l63 275q-34 -1 -64.5 -8.5t-56 -23t-44 -40t-28.5 -60.5zM474 165q7 29 0 51.5 t-23 40.5t-38.5 32.5t-46.5 26.5l-67 -290q31 2 59.5 12t51.5 27.5t40 42.5t24 57z" />
<glyph unicode="%" d="M288 670q-37 0 -58.5 -25t-32.5 -76q-12 -51 -3 -79t46 -28q38 0 59.5 27.5t33.5 78.5q11 51 2 76.5t-47 25.5zM490 701l32 -5l-304 -695l-32 5zM162 569q17 72 52 102.5t82 30.5q46 0 67 -31t5 -103q-17 -72 -53.5 -105t-81.5 -33q-46 0 -67 33t-4 106zM344 139 q17 72 51.5 102.5t81.5 30.5q46 0 67.5 -31t4.5 -103t-52.5 -105t-80.5 -33q-46 0 -67.5 33t-4.5 106zM379 139q-12 -52 -3 -79.5t46 -27.5q38 0 59.5 27.5t32.5 78.5q12 51 3 76.5t-47 25.5q-37 0 -58.5 -25t-32.5 -76z" />
<glyph unicode="&#x26;" horiz-adv-x="700" d="M482 694q41 0 67.5 -11.5t40 -31.5t15.5 -47t-5 -59q-9 -37 -24.5 -64t-40.5 -47.5t-60 -36.5t-81 -30l145 -185q34 59 64 146h35q-19 -52 -38 -94.5t-40 -77.5l108 -137l-30 -26l-101 130q-52 -71 -114 -101.5t-139 -30.5q-62 0 -102 15.5t-61 44.5t-24 70t9 91 q10 43 28 74t44 54.5t60 39.5t76 29q-21 30 -25 64t6 77q7 31 24 57.5t41.5 46t55.5 30t66 10.5zM294 24q68 0 123 29t100 95l-183 235q-83 -23 -130 -62.5t-64 -111.5q-21 -90 15.5 -137.5t138.5 -47.5zM330 550q-7 -32 -5 -65t22 -58l28 -36q45 14 78 28.5t55.5 32.5 t36 41.5t21.5 56.5q12 52 -7.5 82t-84.5 30q-58 0 -95.5 -32t-48.5 -80z" />
<glyph unicode="'" horiz-adv-x="100" d="M191 700h37l-49 -210h-35z" />
<glyph unicode="(" horiz-adv-x="260" d="M360 750q-44 -76 -83 -154q-17 -33 -34 -70t-32.5 -75.5t-28.5 -76.5t-21 -73t-12.5 -72t-6.5 -73.5t-1.5 -71.5t2.5 -66q4 -73 15 -143h-35q-12 67 -16 140q-4 62 -1.5 138.5t19.5 151.5q9 37 22 76t28.5 77.5t32.5 75t34 68.5q39 76 83 148h35z" />
<glyph unicode=")" horiz-adv-x="260" d="M27 -120q44 76 83 154q16 33 33 70t32.5 75t28.5 76t21 74q16 70 18.5 145t-0.5 138q-4 73 -14 143h35q12 -67 16 -139q4 -62 1 -138t-20 -151q-9 -38 -22 -77t-28.5 -77.5t-33 -75t-33.5 -69.5q-39 -77 -82 -148h-35z" />
<glyph unicode="*" d="M413 519l13 -139l-32 -10l-13 140l-140 -86l-12 27l140 87l-99 87l25 24l100 -88l78 142l30 -10l-78 -140h145l-8 -34h-149z" />
<glyph unicode="+" d="M127 319h190l44 190h40l-44 -190h190l-8 -36h-190l-44 -190h-40l44 190h-190z" />
<glyph unicode="," horiz-adv-x="170" d="M17 -123q20 27 38 53.5t31 52.5t19 52t3 52h40q4 -27 -3 -53.5t-21 -52.5t-34 -52t-42 -52h-31z" />
<glyph unicode="-" horiz-adv-x="440" d="M135 288h300l-8 -34h-300z" />
<glyph unicode="." horiz-adv-x="248" d="M115 80h40l-17 -80h-40z" />
<glyph unicode="/" d="M547 702l31 -14l-436 -689l-32 13z" />
<glyph unicode="0" d="M417 670q52 0 90.5 -16t58.5 -56.5t20 -110t-25 -176.5q-22 -96 -53 -158t-69.5 -98t-83.5 -50t-94 -14q-50 0 -88 15.5t-59.5 53t-24 101t19.5 159.5q25 107 57 175t71 107t84.5 53.5t95.5 14.5zM409 636q-45 0 -83.5 -13.5t-71 -49.5t-59.5 -98.5t-49 -160.5 q-20 -89 -19.5 -145t18 -88t49.5 -44t75 -12t80.5 12t70 44t59 89t46.5 146q22 96 24.5 158t-13.5 98t-48.5 50t-78.5 14z" />
<glyph unicode="1" d="M445 660h36l-151 -660h-36l142 619l-213 -126l-11 31z" />
<glyph unicode="2" d="M54 0l6 34l290 239q36 29 65.5 56t53 54t39 56t23.5 62q9 38 3 64t-23.5 41.5t-46.5 22.5t-67 7q-26 0 -59.5 -4t-63.5 -9q-35 -6 -71 -13l3 34q34 7 69 13q30 5 64.5 9t66.5 4q45 0 80 -9.5t57 -30.5t29 -54t-4 -80q-9 -40 -28 -73t-43.5 -61t-53 -52.5t-57.5 -48.5 l-276 -226h373l-7 -35h-422z" />
<glyph unicode="3" d="M212 647q33 6 67 11q29 5 64.5 8.5t69.5 3.5q101 0 138.5 -42t17.5 -127q-11 -47 -34.5 -75.5t-48 -45t-43 -22l-18.5 -5.5q26 -8 47 -19.5t34 -31t15.5 -49.5t-7.5 -75q-23 -97 -86.5 -142t-162.5 -45q-37 0 -74 3t-67 8q-35 5 -67 12l14 34q31 -7 64 -12 q29 -5 64.5 -8.5t73.5 -2.5q168 2 203 154q10 45 4 73.5t-23.5 45.5t-45 24.5t-59.5 9.5h-131l8 34h130q20 0 46.5 8t52 25.5t46 44t28.5 62.5q17 71 -12.5 100.5t-113.5 29.5q-35 0 -70 -3.5t-63 -8.5q-33 -5 -63 -11l2 34v0z" />
<glyph unicode="4" d="M396 132h-332l7 30l331 498h37l-326 -494h291l55 239h36l-55 -239h92l-8 -34h-92l-29 -132h-36z" />
<glyph unicode="5" d="M602 660l-8 -35h-332l-79 -264q30 14 63 25q28 10 60.5 18t64.5 8q43 0 78 -10.5t57 -34t29 -61t-5 -91.5q-13 -58 -39 -100t-61 -69t-77.5 -40t-88.5 -13q-34 0 -69.5 3.5t-64.5 8.5q-34 5 -67 12l13 34q32 -7 65 -12q29 -5 63.5 -8.5t66.5 -3.5q38 0 73.5 12.5 t64.5 36.5t51 60t33 84q11 46 4.5 76.5t-25.5 48.5t-47.5 25.5t-62.5 7.5q-32 0 -65 -8.5t-61 -19.5q-33 -12 -63 -27l-33 4l96 333h366z" />
<glyph unicode="6" d="M591 619q-25 4 -51 8q-23 3 -51 6t-57 3q-46 0 -87 -15t-75.5 -48t-61.5 -86t-45 -129l20.5 7.5t50.5 16.5t65 16.5t64 7.5q100 0 146 -49.5t23 -149.5q-12 -51 -36.5 -91t-60 -68t-79.5 -42.5t-95 -14.5q-55 0 -91 23.5t-53 68t-16.5 108.5t19.5 146q22 94 55 158 t74.5 103t90 55.5t100.5 16.5q28 0 56.5 -3t52.5 -6q27 -4 54 -9zM354 372q-32 0 -67.5 -8t-64.5 -17q-34 -11 -68 -24q-14 -65 -15.5 -119.5t11.5 -94.5t42 -62t77 -22q85 0 145.5 49t80.5 138q10 42 4 72t-25 49.5t-50 29t-70 9.5z" />
<glyph unicode="7" d="M210 660h389l-17 -75l-400 -594l-29 14l394 588l8 33h-353z" />
<glyph unicode="8" d="M421 670q53 0 94.5 -10t67.5 -30.5t35.5 -52.5t-0.5 -75q-8 -33 -22.5 -58t-36 -43t-50.5 -30.5t-65 -22.5q29 -9 53 -22.5t39.5 -34t20.5 -48.5t-4 -67q-13 -56 -40.5 -92t-66 -56.5t-85 -28.5t-97.5 -8q-48 0 -90 9t-70 30t-40 55.5t0 85.5q10 42 27 70t39.5 48 t51 33.5t60.5 25.5q-27 10 -47 24t-32 33t-15 44.5t5 59.5q20 85 90 123t178 38zM272 25q45 0 85 7t71.5 24t53.5 47t33 75q9 40 2 66t-25 42.5t-44 26t-56 17.5h-109q-35 -8 -64 -20t-52 -30.5t-39 -45.5t-25 -65q-10 -42 -0.5 -69.5t32.5 -44t58.5 -23.5t78.5 -7zM413 636 q-92 0 -149 -28.5t-74 -102.5q-14 -61 12.5 -92.5t87.5 -49.5h109q73 17 119.5 48.5t60.5 92.5q16 73 -28 102.5t-138 29.5z" />
<glyph unicode="9" d="M92 44q24 -6 50 -10q23 -4 51 -6.5t57 -2.5q98 0 167.5 64.5t104.5 208.5q-38 -12 -75 -21q-32 -8 -68 -14.5t-65 -6.5q-95 0 -139 51t-21 154q12 50 37.5 89t61 65.5t78.5 40.5t89 14q114 0 148.5 -90t-3.5 -256q-22 -95 -54 -158.5t-73.5 -102.5t-90.5 -55.5 t-105 -16.5q-28 0 -57 3t-53 7q-28 4 -54 11zM323 290q27 0 63 6.5t68 14.5q38 10 77 22q16 70 17.5 126t-12.5 95.5t-44.5 60.5t-79.5 21q-39 0 -75 -13t-65 -36.5t-50 -57.5t-31 -76q-20 -86 16 -124.5t116 -38.5z" />
<glyph unicode=":" horiz-adv-x="141" d="M173 424h40l-18 -80h-40zM94 80h40l-17 -80h-40z" />
<glyph unicode=";" horiz-adv-x="170" d="M97 87h42l-101 -210h-31zM171 424h40l-18 -80h-40z" />
<glyph unicode="&#x3c;" d="M191 299l247 -207l-9 -36l-274 228l8 36l378 219l-10 -44z" />
<glyph unicode="=" d="M151 387h404l-8 -36h-404zM112 220h404l-8 -36h-404z" />
<glyph unicode="&#x3e;" d="M226 502l9 37l276 -219l-8 -36l-380 -228l10 43l343 207z" />
<glyph unicode="?" horiz-adv-x="386" d="M492 551q-8 -33 -28.5 -62t-48 -56t-57.5 -51.5t-57 -49.5t-47 -50.5t-26 -53.5l-9 -38h-35l10 41q7 31 27.5 59t47.5 54t57.5 51.5t57 50.5t46.5 51t27 54q17 72 -14.5 98.5t-111.5 26.5q-18 0 -45 -4t-52 -9q-29 -5 -60 -12l2 33q31 7 61 12q26 5 53.5 9t47.5 4 q96 0 135 -35t19 -123zM157 81h40l-18 -80h-40z" />
<glyph unicode="@" horiz-adv-x="985" d="M990 288q-25 -108 -51 -168.5t-54.5 -89t-59.5 -34.5t-67 -6q-21 0 -37.5 1.5t-28 7.5t-18.5 18.5t-8 35.5q-15 -7 -39 -17.5t-52 -20.5t-58 -17t-57 -7q-15 0 -33 2t-35 9.5t-31 23.5t-21 44t-5.5 70t15.5 103q15 64 36 114t52.5 83.5t76 51t106.5 17.5q21 0 43.5 -4.5 t40.5 -9.5q21 -6 42 -13l4 18h35l-46 -200q-24 -102 -33.5 -158.5t-6.5 -83.5t19.5 -32.5t45.5 -5.5t53.5 5.5t47 31.5t43.5 80t44 151l4 18q23 99 19 171t-38.5 118.5t-102.5 69t-174 22.5q-104 0 -185.5 -21.5t-143.5 -71.5t-105.5 -131.5t-70.5 -201.5 q-29 -125 -23.5 -207t44.5 -131.5t111 -69.5t176 -20q15 0 39.5 1.5t47.5 3.5q27 2 58 5l-4 -33q-29 -3 -56 -5q-23 -2 -48.5 -3t-43.5 -1q-111 0 -189.5 21t-122 73.5t-51 141.5t24.5 224q29 127 77 214.5t116 141.5t156.5 78t199.5 24q114 0 188.5 -25t113 -76t43.5 -129 t-19 -184zM468 23q26 0 54 6.5t54.5 15.5t50 19.5t39.5 18.5q2 35 11.5 87t27.5 130l34 150q-19 7 -40 13q-18 5 -40.5 9.5t-44.5 4.5q-53 0 -91 -15.5t-64.5 -46t-44 -74.5t-30.5 -101q-17 -75 -14 -118t18 -65t37 -28t43 -6z" />
<glyph unicode="A" horiz-adv-x="604" d="M372 619q20 33 45 56.5t63 24.5h31l54 -700h-34l-20 215h-318l-115 -215h-38zM211 249h298l-31 417q-23 1 -40 -14.5t-32 -38.5z" />
<glyph unicode="B" horiz-adv-x="627" d="M498 700q101 0 141 -46.5t21 -127.5q-16 -67 -52 -108t-83 -57q22 -6 41 -19.5t31.5 -34.5t16.5 -49.5t-4 -65.5q-12 -54 -35.5 -90.5t-56 -59t-73.5 -32.5t-88 -10h-249l160 700h230zM221 341l-71 -307h213q38 0 72 9.5t61 29t47 50.5t30 74q11 49 -3.5 78t-40 43.5 t-55 18.5t-48.5 4h-205zM296 666l-67 -292h205q82 0 127.5 44t61.5 113q15 66 -16.5 100.5t-116.5 34.5h-194z" />
<glyph unicode="C" horiz-adv-x="537" d="M488 11q-31 -6 -63 -10q-27 -4 -60 -7t-62 -3q-77 0 -119 26t-57.5 72.5t-9 112t24.5 145.5q18 78 41.5 144.5t60 114.5t91 75.5t134.5 27.5q35 0 67.5 -3t56.5 -7q28 -4 52 -9l-11 -35q-27 6 -56 10q-25 4 -56 7t-61 3q-71 0 -117.5 -24.5t-77.5 -68.5t-50.5 -104 t-35.5 -131q-17 -71 -24 -130.5t4 -102t46.5 -66t104.5 -23.5q26 0 58 3t60 7q33 4 64 10z" />
<glyph unicode="D" horiz-adv-x="653" d="M108 0l160 700h250q66 0 104 -30.5t54 -80t13.5 -111.5t-16.5 -124q-15 -62 -41 -125t-65 -114t-91 -83t-118 -32h-250zM637 367q12 52 14.5 105.5t-10 96.5t-44 70t-87.5 27h-214l-146 -632h214q56 0 101 32.5t79 81.5t57.5 107.5t35.5 111.5z" />
<glyph unicode="E" horiz-adv-x="572" d="M527 341h-125q-19 0 -50.5 -4t-64.5 -19t-61 -44t-41 -78q-11 -43 -7 -74t20.5 -50.5t45.5 -28.5t67 -9h203l-6 -34h-201q-47 0 -83 11t-57 35t-26.5 62t8.5 92q10 37 27.5 64t39.5 46.5t47 32t50 18.5q-39 16 -55 60.5t1 111.5q21 81 82 124t162 43h162l-7 -34h-164 q-85 0 -134 -35.5t-66 -101.5q-9 -35 -7 -63.5t15.5 -48.5t40 -31.5t67.5 -11.5h126z" />
<glyph unicode="F" horiz-adv-x="563" d="M268 700h400l-8 -34h-364l-73 -316h304l-8 -34h-304l-71 -316h-36z" />
<glyph unicode="G" horiz-adv-x="617" d="M435 347h181l-33 -142q-10 -46 -23.5 -83.5t-31 -64.5t-40 -41.5t-50.5 -14.5q-31 -4 -62.5 -7t-57.5 -3q-77 0 -121 26t-62 72.5t-13.5 112t22.5 145.5q18 78 43.5 144.5t64.5 114.5t95.5 75.5t136.5 27.5q39 0 77 -4t67 -9q34 -5 65 -12l-11 -35q-34 7 -69 13 q-30 5 -66.5 9t-70.5 4q-71 0 -119.5 -24.5t-82 -68.5t-55 -104t-37.5 -131q-17 -71 -22 -130.5t8.5 -102t51 -66t106.5 -23.5q24 0 51.5 2t53.5 6q15 2 29.5 6.5t28.5 21t28 49.5t29 92l26 111h-145z" />
<glyph unicode="H" horiz-adv-x="696" d="M628 334h-408l-76 -334h-36l160 700h36l-77 -332h408l77 332h36l-160 -700h-36z" />
<glyph unicode="I" horiz-adv-x="226" d="M255 700h36l-160 -700h-36z" />
<glyph unicode="J" horiz-adv-x="304" d="M232 105q-14 -59 -30 -94.5t-40 -54t-57.5 -24t-82.5 -5.5l7 34q40 0 67 5t45.5 21.5t31 47t24.5 80.5l135 586h36z" />
<glyph unicode="K" horiz-adv-x="597" d="M683 700q-28 -64 -64.5 -118.5t-77 -98t-84.5 -76t-87 -51.5l172 -356h-44l-163 342q-59 -19 -117 -13l-74 -329h-36l160 700h36l-78 -337q61 -2 120 21t113 67.5t101 107.5t84 141h39z" />
<glyph unicode="L" d="M108 0l160 700h36l-154 -666h331l-6 -34h-367z" />
<glyph unicode="M" horiz-adv-x="851" d="M245 600q11 48 28 74t42 26h27l89 -633q11 5 24.5 20.5t24.5 37.5l292 489q25 41 49.5 63.5t49.5 22.5h32l-160 -700h-36l152 666q-16 -11 -30.5 -30.5t-28.5 -42.5l-291 -486q-49 -85 -86 -85h-21l-92 644q-10 -12 -18 -30.5t-13 -44.5l-135 -591h-36z" />
<glyph unicode="N" horiz-adv-x="687" d="M268 700h32q29 1 45 -19t24 -53l135 -532q6 -28 16 -45t27 -17l154 666h36l-160 -700h-29q-33 -2 -49.5 20.5t-24.5 54.5l-135 524q-5 28 -15.5 46.5t-27.5 20.5l-152 -666h-36z" />
<glyph unicode="O" horiz-adv-x="656" d="M332 25q65 0 112.5 18t82.5 57t60 100t45 147q19 81 21.5 142.5t-14.5 103t-55.5 62t-101.5 20.5q-64 0 -111.5 -20.5t-83.5 -61.5t-61 -102.5t-44 -143.5q-19 -83 -22.5 -143.5t13.5 -100t55.5 -59t103.5 -19.5zM324 -9q-74 0 -119 22t-65 67t-18 112.5t23 158.5 q21 89 50 156t70.5 112t96.5 67.5t128 22.5t117.5 -23.5t65 -69t19 -114t-22.5 -158.5q-22 -95 -51.5 -161.5t-70 -109.5t-95.5 -62.5t-128 -19.5z" />
<glyph unicode="P" horiz-adv-x="615" d="M202 257l-58 -257h-36l160 700h245q109 0 145.5 -54.5t12.5 -156.5q-12 -51 -33.5 -93.5t-54 -73t-75.5 -48t-97 -17.5h-209zM419 291q45 0 81 15.5t62 42t44 62.5t27 78q10 42 8 74.5t-17 55.5t-44.5 35t-74.5 12h-209l-86 -375h209z" />
<glyph unicode="Q" horiz-adv-x="656" d="M576 -209q-26 13 -46.5 35t-36.5 50t-28.5 60.5t-22.5 68.5q-51 -14 -118 -14q-81 0 -126.5 25t-63.5 71.5t-13 113t25 149.5q19 82 45 148t65.5 113t96.5 72.5t137 25.5t125 -26.5t63.5 -74.5t14 -115.5t-23.5 -149.5q-14 -61 -31.5 -113t-40.5 -94t-53 -72.5t-69 -48.5 q20 -65 46.5 -116.5t72.5 -76.5zM332 25q72 0 121 21t83 61.5t56 100.5t40 139q17 74 22 134.5t-9.5 103.5t-53.5 66.5t-109 23.5q-71 0 -120.5 -23.5t-83.5 -66t-56.5 -103t-39.5 -135.5q-18 -75 -23.5 -134.5t8.5 -101.5t53.5 -64t111.5 -22z" />
<glyph unicode="R" horiz-adv-x="630" d="M414 290h-205l-65 -290h-36l160 700h241q105 0 144.5 -52t16.5 -150q-9 -38 -24 -71.5t-38.5 -60.5t-55 -45.5t-73.5 -25.5l91 -295h-41l-89 291zM633 500q18 80 -13 123t-119 43h-205l-79 -342h205q49 0 85 14t61.5 38t41 56t23.5 68z" />
<glyph unicode="S" horiz-adv-x="536" d="M611 661q-37 3 -71 7q-29 3 -60.5 5.5t-54.5 2.5q-37 0 -70.5 -7t-61 -23t-48 -43t-30.5 -66q-8 -29 3 -51.5t32.5 -41t50.5 -33.5l58 -30q33 -16 65.5 -35.5t56 -45t34.5 -58t1 -75.5q-7 -32 -24 -63t-46 -55.5t-72 -40t-102 -15.5q-24 0 -54 1.5t-60 4t-55.5 5.5 t-39.5 5l12 36q17 -2 46.5 -5t60 -6t58 -5t39.5 -2q34 0 67 9t60.5 27.5t47 46t27.5 64.5q8 36 -3.5 63t-34 48t-52 37t-57.5 30q-29 15 -60 31t-55 37t-36 50.5t-3 73.5q17 83 79.5 124.5t182.5 41.5q20 0 44.5 -1.5t49 -4t47 -5.5t37.5 -6z" />
<glyph unicode="T" horiz-adv-x="500" d="M169 700h481l-8 -34h-221l-152 -666h-36l152 666h-224z" />
<glyph unicode="U" horiz-adv-x="642" d="M171 196q-20 -88 20.5 -129.5t128.5 -41.5q95 0 157 41.5t82 129.5l116 504h36l-116 -504q-24 -105 -95.5 -155t-184.5 -50q-53 0 -92 12.5t-63 37.5t-30.5 63.5t5.5 91.5l116 504h36l-116 -504v0z" />
<glyph unicode="V" horiz-adv-x="579" d="M699 700l-302 -604q-24 -45 -55 -70t-73 -26h-35l-34 700h34l33 -664q29 3 52.5 19.5t41.5 49.5l300 595h38z" />
<glyph unicode="W" horiz-adv-x="872" d="M244 700l-11 -665q17 1 34 16.5t34 48.5l272 590h40l3 -655q24 -1 41.5 21.5t31.5 57.5l257 586h36l-264 -605q-18 -42 -41.5 -68t-58.5 -27h-36l1 643l-250 -556q-16 -38 -40 -61.5t-61 -25.5h-33l11 700h34z" />
<glyph unicode="X" horiz-adv-x="581" d="M374 374l277 326h45l-299 -353l139 -347h-41l-128 322l-277 -322h-45l300 347l-140 353h41z" />
<glyph unicode="Y" horiz-adv-x="540" d="M289 0h-36l68 301l-131 399h39l117 -359l280 359h44l-313 -399z" />
<glyph unicode="Z" horiz-adv-x="570" d="M225 700h440q5 -56 -63 -121l-462 -496q-11 -12 -19.5 -24.5t-10.5 -24.5h401l-7 -34h-440q-1 30 16.5 60t45.5 60l474 508q8 11 13.5 20t6.5 18h-403z" />
<glyph unicode="[" horiz-adv-x="300" d="M395 717h-147l-187 -808h147l-7 -32h-183l201 872h183z" />
<glyph unicode="\" d="M397 0l-144 687l38 14l143 -687z" />
<glyph unicode="]" horiz-adv-x="300" d="M222 749h183l-201 -872h-183l7 32h147l187 808h-147z" />
<glyph unicode="^" d="M404 624l-217 -291h-42l247 327h37l105 -327h-40z" />
<glyph unicode="_" d="M482 -84l-8 -34h-474l6 34h476z" />
<glyph unicode="`" horiz-adv-x="545" d="M503 636l-21 -27l-172 92l23 31z" />
<glyph unicode="a" horiz-adv-x="533" d="M443 71q5 -21 23 -32.5t39 -16.5l-10 -33q-20 1 -36 9.5t-28 20t-18.5 25t-6.5 24.5q-12 -12 -33 -26t-47.5 -26t-55.5 -19.5t-56 -7.5q-52 0 -77 25t-32.5 63t-2.5 82.5t14 83.5q31 131 95 198.5t175 67.5q26 0 56 -3.5t58 -8.5l44 9zM223 21q28 0 59.5 11.5t60 27.5 t49.5 32.5t27 26.5l80 344q-26 0 -58.5 7t-63.5 7q-87 0 -142.5 -60t-81.5 -170q-8 -32 -14 -71.5t-2 -74t23 -57.5t63 -23z" />
<glyph unicode="b" horiz-adv-x="538" d="M433 509q45 0 71 -19.5t36.5 -53.5t7.5 -80t-17 -100q-17 -65 -39 -114.5t-55.5 -83t-82 -51t-117.5 -17.5q-26 0 -49 1.5t-40 3.5q-20 2 -37 5l167 730h35l-67 -285q13 10 31 21t41.5 20.5t52.5 16t62 6.5zM244 22q56 0 96.5 15.5t69.5 45t49 73t35 99.5q13 49 17.5 90 t-3 70.5t-27 45.5t-53.5 16q-33 0 -62 -8t-53 -20t-43 -25.5t-34 -24.5l-84 -369q16 -2 33 -4q14 -2 29.5 -3t29.5 -1z" />
<glyph unicode="c" horiz-adv-x="447" d="M396 509q29 0 61.5 -6t49.5 -11l-9 -34q-17 4 -48.5 11.5t-60.5 7.5q-93 0 -149 -55.5t-82 -160.5q-13 -53 -18.5 -97t1.5 -75.5t29 -49t64 -17.5q21 0 46 8t49 20t45.5 26t34.5 26l15 -31q-16 -14 -38.5 -28.5t-48.5 -26t-54.5 -19t-56.5 -7.5q-48 0 -76.5 20t-40 56.5 t-7.5 87.5t21 112q18 65 42 111t57 75.5t75.5 43t98.5 13.5z" />
<glyph unicode="d" horiz-adv-x="538" d="M391 509q14 0 30 -2t32 -4.5t29.5 -5.5l22.5 -5l54 238h35l-167 -730h-35l14 60q-36 -26 -85.5 -48t-99.5 -22q-48 0 -76 20.5t-38.5 57t-5.5 87.5t22 112q18 65 41.5 111t55 75t73.5 42.5t98 13.5zM229 22q22 0 49 9t53.5 22t49 28.5t36.5 27.5l80 349q-8 2 -21.5 5 t-29 6t-32 5.5t-30.5 2.5q-93 0 -146.5 -55.5t-79.5 -160.5q-13 -53 -19.5 -97t-0.5 -75.5t27.5 -49t63.5 -17.5z" />
<glyph unicode="e" horiz-adv-x="507" d="M267 23q28 0 55 7.5t51 18.5t44 23t33 21l-1 -38q-31 -19 -64 -33q-29 -13 -63.5 -23t-69.5 -10q-40 0 -67.5 11t-45 31t-25.5 48.5t-8 63.5q0 38 7.5 80.5t23 83t38.5 77t53.5 64.5t69 44.5t84.5 16.5q66 0 100.5 -32.5t34.5 -80.5q0 -43 -18 -76.5t-48 -58t-68.5 -41.5 t-80 -27.5t-82.5 -15.5t-76 -6q-1 -6 -1 -10.5v-8.5q0 -25 3.5 -48t16 -41t37 -29t67.5 -11zM149 207q50 0 108.5 9.5t108.5 31t83 56.5t33 87q0 43 -29.5 64.5t-81.5 21.5q-31 0 -66 -16.5t-67 -50t-56 -84t-33 -119.5z" />
<glyph unicode="f" horiz-adv-x="328" d="M210 468h-68l7 32h69l14 61q12 50 26.5 84t35 55t46.5 30t60 9q13 0 27.5 -0.5t26.5 -1.5q14 -1 27 -1l-7 -31q-15 0 -30 1q-13 0 -26.5 0.5t-24.5 0.5q-26 0 -45 -7.5t-34 -25t-26.5 -45.5t-20.5 -69l-14 -60h162l-7 -32h-162l-107 -468q-11 -42 -24.5 -71.5t-36 -53.5 t-55.5 -46t-82 -47l-7 31q43 23 72 42.5t48 40.5t30 47t20 63z" />
<glyph unicode="g" horiz-adv-x="504" d="M170 -212q-14 0 -32.5 1.5t-35.5 3.5q-19 2 -40 5l10 32q19 -3 38 -5q16 -2 34.5 -3.5t32.5 -1.5q48 0 83.5 13t61.5 39.5t44 67t31 96.5l9 39q-13 -14 -34 -29t-47 -28t-54.5 -21t-55.5 -8q-54 0 -79.5 24t-33.5 61.5t-2.5 82t14.5 86.5q31 131 96.5 198.5t176.5 67.5 q26 0 54 -3.5t56 -8.5l44 9l-109 -473q-15 -66 -37 -112.5t-53.5 -76t-73.5 -43t-98 -13.5zM224 21q28 0 59 12t58.5 28.5t48 33.5t26.5 27l78 341q-26 0 -55.5 7t-60.5 7q-87 0 -143 -60t-82 -170q-4 -18 -9.5 -42t-8 -49t-1 -49.5t11 -43.5t28 -30.5t50.5 -11.5z" />
<glyph unicode="h" horiz-adv-x="567" d="M101 0l167 730h35l-65 -281q10 9 28 19.5t41.5 19.5t52 15t59.5 6q51 0 78.5 -16.5t37.5 -50t4.5 -84.5t-21.5 -120l-54 -238h-35l53 236q14 60 20.5 105t1 75.5t-26.5 45.5t-63 15q-33 0 -61 -6.5t-51.5 -16.5t-41 -20.5t-29.5 -17.5l-95 -416h-35z" />
<glyph unicode="i" horiz-adv-x="215" d="M204 500h35l-114 -500h-35zM250 700h35l-13 -55h-35z" />
<glyph unicode="j" horiz-adv-x="233" d="M222 500h35l-114 -495q-10 -43 -23.5 -73.5t-36 -55t-56 -46.5t-82.5 -48l-7 31q43 23 72 42.5t48 40.5t30 47t20 63zM268 700h35l-13 -55h-35z" />
<glyph unicode="k" horiz-adv-x="483" d="M111 0l167 730h35l-102 -440q52 -3 99.5 14.5t88 47.5t72.5 69t53 79h43q-47 -85 -108.5 -141.5t-131.5 -86.5l126 -272h-39l-120 260q-20 -5 -44 -7t-47 0l-57 -253h-35z" />
<glyph unicode="l" horiz-adv-x="225" d="M262 730h35l-167 -730h-35z" />
<glyph unicode="m" horiz-adv-x="875" d="M121 0l114 500h35l-13 -57q12 9 29.5 20.5t39.5 21.5t48 17t55 7q52 0 79.5 -17t37.5 -52q11 9 30.5 20.5t45 22.5t55 18.5t60.5 7.5q51 0 78.5 -16.5t37.5 -50t4.5 -84.5t-21.5 -120l-54 -238h-35l53 236q14 60 20.5 105t1 75.5t-26.5 45.5t-63 15q-29 0 -55.5 -6.5 t-50 -16t-43 -20.5t-33.5 -20q3 -32 -3 -76t-19 -100l-54 -238h-35l53 236q14 60 20.5 105t1 75.5t-26.5 45.5t-63 15q-30 0 -56.5 -7.5t-49 -18.5t-40 -22.5t-29.5 -20.5l-93 -408h-35z" />
<glyph unicode="n" horiz-adv-x="573" d="M111 0l114 500h35l-13 -53q10 8 27.5 19t41.5 20.5t53 16t61 6.5q51 0 78.5 -16.5t37.5 -50t4.5 -84.5t-21.5 -120l-54 -238h-35l53 236q14 60 20.5 105t1 75.5t-26.5 45.5t-63 15q-33 0 -62 -7t-53 -17t-42 -21t-29 -18l-93 -414h-35z" />
<glyph unicode="o" horiz-adv-x="526" d="M233 -9q-48 0 -76.5 20t-40 56t-7.5 86.5t21 111.5q18 65 42 111.5t57.5 76t77 43.5t100.5 14q48 0 77 -20t41 -56t8 -86.5t-21 -111.5q-18 -65 -42.5 -111.5t-58 -76t-77.5 -43.5t-101 -14zM240 23q96 0 153.5 55.5t83.5 160.5q13 53 18 97t-2.5 75.5t-30.5 49t-66 17.5 q-93 0 -149 -55.5t-82 -160.5q-13 -53 -18.5 -97t1.5 -75.5t28.5 -49t63.5 -17.5z" />
<glyph unicode="p" horiz-adv-x="540" d="M246 22q56 0 96.5 15.5t69.5 45t49 73t35 99.5q13 49 17.5 90t-3 70.5t-27 45.5t-53.5 16q-33 0 -62 -8t-53 -20t-43 -25.5t-34 -24.5l-84 -369q16 -2 33 -4q14 -2 29.5 -3t29.5 -1zM434 509q45 0 71 -19.5t36.5 -53.5t7.5 -80t-17 -100q-17 -65 -39 -114.5t-55.5 -83 t-82 -51t-117.5 -17.5q-31 0 -55 2.5t-40 4.5l-52 -227h-35l169 730h35l-13 -55q13 10 31 21t41.5 20.5t52.5 16t62 6.5z" />
<glyph unicode="q" horiz-adv-x="536" d="M228 21q28 0 60.5 11.5t61.5 27.5t50.5 32.5t27.5 26.5l80 344q-26 0 -58.5 7t-63.5 7q-87 0 -144.5 -60t-83.5 -170q-8 -32 -14 -71.5t-2 -74t23 -57.5t63 -23zM383 -229h-36l68 295q-12 -12 -34 -26t-49 -25t-56 -18.5t-56 -7.5q-34 0 -56.5 11.5t-35.5 31.5t-18 45.5 t-4.5 54t5 57t10.5 54.5q31 131 97 198.5t177 67.5q26 0 56 -3.5t58 -8.5l44 9z" />
<glyph unicode="r" horiz-adv-x="354" d="M215 500h35l-18 -78q31 19 65 36q29 14 66 29t77 23l-9 -37q-35 -8 -72 -22.5t-67 -28.5q-36 -17 -69 -36l-87 -386h-35z" />
<glyph unicode="s" horiz-adv-x="483" d="M501 460q-30 4 -57 8q-24 3 -49.5 6t-44.5 3q-62 0 -106.5 -21.5t-57.5 -74.5q-5 -20 4 -35t26.5 -27t41 -22t48.5 -20q28 -11 55.5 -24.5t48 -31.5t30.5 -42.5t2 -57.5q-6 -27 -18.5 -50.5t-35.5 -41t-58.5 -27.5t-87.5 -10q-20 0 -44.5 2t-48.5 4.5t-45 5t-33 4.5 l11 32q14 -2 38 -4.5t49 -5.5t47 -5t32 -2q58 0 103 24.5t57 76.5q6 27 -3.5 46t-28.5 33.5t-44 25.5t-49 21q-25 11 -51 23t-46.5 28t-30.5 37.5t-2 50.5q8 30 23 52.5t39.5 37.5t61.5 22.5t88 7.5q16 0 36 -2t40 -4.5t38.5 -5.5t31.5 -5z" />
<glyph unicode="t" horiz-adv-x="372" d="M256 468l-61 -262q-12 -52 -17 -87.5t-0.5 -57t21 -30.5t46.5 -9q11 0 26 0.5t29 2.5l34 4l-4 -32q-16 -2 -33 -4q-14 -2 -30.5 -2.5t-29.5 -0.5q-34 0 -56 9t-32.5 30t-10 55t12.5 84l70 300h-79l7 32h79l38 163h35l-38 -163h172l-7 -32h-172z" />
<glyph unicode="u" horiz-adv-x="545" d="M563 500l-114 -500h-35l14 66q-29 -21 -58 -38q-26 -14 -55.5 -25.5t-58.5 -11.5q-51 0 -80 13t-40 42.5t-6.5 77t20.5 116.5l60 260h35l-60 -258q-14 -60 -19 -101.5t3 -68t30.5 -38t64.5 -11.5q29 0 60.5 14t57.5 31q30 20 58 46l88 386h35z" />
<glyph unicode="v" horiz-adv-x="480" d="M189 500l32 -467q25 -1 42 13.5t30 37.5l223 416h39l-230 -429q-21 -38 -47 -54.5t-57 -16.5h-31l-36 500h35z" />
<glyph unicode="w" horiz-adv-x="761" d="M191 500l14 -466q31 6 62 70l204 386h39l29 -456q14 2 26.5 17t24.5 39l204 410h39l-212 -426q-35 -74 -84 -74h-29l-26 448l-186 -358q-24 -51 -47.5 -70t-46.5 -20h-29l-17 500h35z" />
<glyph unicode="x" horiz-adv-x="456" d="M194 500l94 -223l198 223h42l-223 -250l108 -250h-41l-92 223l-194 -223h-43l220 250l-107 250h38z" />
<glyph unicode="y" horiz-adv-x="480" d="M188 500l28 -400q5 -41 18 -55.5t31 -12.5l251 468h39l-268 -496q-23 -43 -46.5 -74t-53.5 -55.5t-70.5 -46.5t-98.5 -48l5 41q50 23 84 40.5t59 37t43.5 43t38.5 58.5q-29 2 -44 22.5t-20 50.5l-31 427h35z" />
<glyph unicode="z" horiz-adv-x="481" d="M174 500h360q3 -28 -32 -60l-393 -408h319l-6 -32h-360q-1 18 10.5 34.5t27.5 32.5l386 401h-319z" />
<glyph unicode="{" horiz-adv-x="285" d="M177 169q-7 -29 -17 -58t-17 -58q-8 -33 -8 -59t12 -44.5t37.5 -29t67.5 -12.5l-9 -32q-95 4 -125.5 48.5t-9.5 133.5q3 15 8 31.5t10.5 32.5t10 30.5t6.5 23.5q11 48 -6 74.5t-70 43.5l8 32q60 14 89.5 42.5t40.5 77.5q3 10 5.5 26.5t5.5 34.5t6 35.5t6 31.5 q10 45 27 77.5t43 54t62.5 32.5t84.5 13l-6 -32q-43 -2 -73 -12t-50.5 -28.5t-32.5 -44.5t-20 -60q-3 -12 -5.5 -28.5l-5 -33t-5 -31.5t-4.5 -26q-8 -33 -19 -57t-26.5 -41.5t-37 -29.5t-51.5 -21q25 -9 41.5 -19.5t25 -26.5t8.5 -38t-7 -53z" />
<glyph unicode="|" d="M414 750h35l-231 -1000h-35z" />
<glyph unicode="}" horiz-adv-x="285" d="M238 454q7 29 17 58t17 58q7 33 7 59t-12 44.5t-36.5 29t-66.5 12.5l8 32q95 -4 125 -48t9 -133q-3 -15 -8 -31.5t-10.5 -33t-9.5 -31t-6 -23.5q-11 -48 6 -74.5t70 -43.5l-7 -32q-61 -14 -91 -42.5t-41 -77.5q-2 -11 -4.5 -27t-5.5 -34t-6 -35.5t-6 -31.5 q-21 -89 -70.5 -131t-144.5 -46l6 32q42 2 71.5 12t49.5 28.5t32.5 44.5t20.5 60q3 12 5.5 28t5 32.5t5 32t4.5 26.5q8 33 18.5 57t26.5 41.5t37.5 29.5t51.5 21q-26 9 -42 19.5t-24.5 26.5t-8.5 37.5t7 53.5z" />
<glyph unicode="~" d="M537 333q-20 -15 -39 -26q-17 -10 -36.5 -18t-36.5 -8q-23 0 -47 8.5t-47.5 18.5t-45 18.5t-39.5 8.5q-14 0 -32 -8.5t-35 -18.5q-19 -11 -40 -26l1 35q20 15 40 27q17 10 37 18.5t37 8.5q24 0 48.5 -8.5t48 -18.5t44.5 -18.5t38 -8.5q14 0 32 8t35 18q19 11 39 27z" />
<glyph unicode="&#xa1;" horiz-adv-x="262" d="M246 419h-40l19 80h40zM101 -200h-35l113 486h35z" />
<glyph unicode="&#xa2;" horiz-adv-x="437" d="M242 41q-46 1 -77 10.5t-46.5 32.5t-16.5 62.5t13 100.5q25 112 81.5 161.5t141.5 52.5l30 130h35l-30 -131q17 -1 36.5 -2.5t36.5 -3.5l40 -4l-10 -35q-27 2 -53 5q-22 2 -45 3.5t-37 1.5q-41 0 -71 -10t-52 -31t-37 -55t-26 -82q-12 -49 -12.5 -82t12.5 -52.5t41 -27.5 t74 -8q14 0 36.5 1t43.5 3q25 2 52 4l-6 -35q-22 -2 -43 -4q-18 -2 -39 -3.5t-37 -1.5l-29 -126h-35z" />
<glyph unicode="&#xa3;" d="M579 637q-30 2 -56 5l-46 4t-36 2q-29 0 -50 -7t-37.5 -26.5t-29.5 -54t-26 -90.5l-15 -64h232l-7 -32h-232l-70 -302q-6 -20 -19 -38h194q19 2 32 4t22.5 4t16.5 4t15 4v-32q-20 -8 -41.5 -11.5t-43.5 -5.5q-78 0 -164 -0.5t-164 -0.5l6 34h73q29 2 38 40l70 300h-79 l7 32h79l15 63q15 65 31.5 106t38 64.5t49.5 32t66 8.5q14 0 37.5 -2t46.5 -4q26 -3 54 -5z" />
<glyph unicode="&#xa4;" horiz-adv-x="529" d="M398 120q-28 -19 -58 -28.5t-58.5 -9.5t-53.5 9.5t-44 28.5l-86 -71l-20 26l87 70q-14 23 -17 50.5t3.5 56t22.5 56.5t40 51l-54 70l32 26l53 -71q28 19 57.5 28.5t58 9.5t54 -9.5t44.5 -28.5l87 71l20 -26l-88 -70q14 -23 17 -51t-3.5 -56.5t-22.5 -56t-40 -50.5l55 -70 l-32 -26zM205 157q15 -19 37.5 -28.5t48.5 -9.5t53 9.5t51 28.5t39 44t21 51t2.5 50.5t-18.5 44.5q-15 19 -38 28.5t-49 9.5t-52.5 -9.5t-50.5 -28.5q-24 -20 -39 -44.5t-21 -50.5t-2.5 -51t18.5 -44z" />
<glyph unicode="&#xa5;" horiz-adv-x="540" d="M130 365h171l-125 295h41l134 -309l273 309h42l-259 -295h168l-8 -34h-190l-18 -20l-22 -95h204l-7 -34h-204l-41 -182h-36l41 182h-205l7 34h205l22 95l-8 20h-193z" />
<glyph unicode="&#xa6;" d="M446 750l-96 -416h-35l96 416h35zM313 176l-98 -426h-35l98 426h35z" />
<glyph unicode="&#xa7;" d="M559 615q-30 3 -58 6q-24 2 -49.5 4.5t-43.5 2.5q-67 0 -109.5 -26.5t-55.5 -83.5q-8 -35 -3.5 -56.5t20 -34.5t41.5 -19.5t62 -12.5q37 -6 65.5 -14.5t46.5 -24t24 -40t-3 -61.5q-6 -25 -17.5 -47.5t-22.5 -40.5q-13 -21 -28 -39q29 -28 15 -93q-18 -78 -72 -118 t-138 -40q-23 0 -51 2t-54 4q-30 3 -60 7l10 32q30 -4 60 -7q26 -3 53.5 -5t48.5 -2q66 0 109.5 31t57.5 95q7 31 2 49.5t-20.5 29t-41.5 16t-60 10.5q-41 6 -72 15.5t-49.5 26t-24.5 41t3 61.5q6 26 19.5 47t27.5 38q16 18 35 35q-18 17 -23.5 43t5.5 71q17 72 71.5 107.5 t136.5 35.5q23 0 50 -2.5t50 -4.5q26 -3 53 -6zM348 363q-31 5 -56.5 10.5t-44.5 15.5q-17 -15 -30 -33q-12 -15 -22.5 -33.5t-15.5 -37.5q-13 -56 18.5 -80t103.5 -34q33 -5 60 -11t45 -16q12 15 23 33q9 15 18 34.5t14 40.5q7 31 1.5 50.5t-20.5 31.5t-39.5 18t-54.5 11z " />
<glyph unicode="&#xa8;" horiz-adv-x="833" d="M272 700h35l-14 -62h-35zM462 700h35l-14 -62h-35z" />
<glyph unicode="&#xa9;" d="M109 434q13 55 43 103.5t72.5 84.5t94 57t106.5 21t97 -21t68 -57t34.5 -84.5t-4.5 -103.5t-43.5 -103.5t-73 -84.5t-94 -56.5t-106.5 -20.5t-97 20.5t-68 56.5t-34 84.5t5 103.5zM141 434q-11 -48 -4.5 -90.5t29 -74t59.5 -50t85 -18.5t93.5 18.5t82.5 50t64 74t38 90.5 t4 91t-29.5 74.5t-59.5 50t-85 18.5t-93.5 -18.5t-82.5 -50t-63.5 -74.5t-37.5 -91zM404 289l-26 -4q-11 -2 -25 -3t-25 -1q-33 0 -51.5 11t-26 31t-6 48t9.5 62t19 62.5t27.5 48.5t40.5 31.5t58 11.5q14 0 27 -1t23 -3q11 -2 22 -3l-8 -32q-12 1 -24 3q-11 2 -23 3t-24 1 q-26 0 -43.5 -8t-29 -24t-19 -38.5t-14.5 -51.5q-13 -57 -5.5 -88.5t55.5 -31.5q11 0 24 1t24 3q13 2 27 4z" />
<glyph unicode="&#xaa;" d="M429 432q3 -8 12.5 -13t19.5 -7l-6 -26q-21 2 -35.5 12.5t-16.5 24.5q-16 -14 -41 -25.5t-51 -11.5q-35 0 -49 18.5t-14 50.5q0 15 2 31.5t6 36.5q17 69 50.5 104.5t93.5 35.5q14 0 24 -1.5t22 -3.5q2 0 4 -0.5t4 -0.5h-1l30 6zM316 413q13 0 27 5.5t27 13t22.5 15.5 t13.5 13q10 43 20 84.5t20 85.5q-6 0 -10.5 1t-10.5 2q-7 2 -14.5 3t-14.5 1q-43 0 -70 -30t-40 -84q-5 -19 -7.5 -36t-2.5 -29q0 -21 9 -33t31 -12z" />
<glyph unicode="&#xab;" horiz-adv-x="479" d="M134 254l108 -117l-9 -41l-135 138l8 36l197 129l-9 -39zM341 254l108 -117l-9 -41l-135 138l8 36l197 129l-9 -39z" />
<glyph unicode="&#xac;" d="M540 332l-47 -206h-36l39 172h-360l8 34h396z" />
<glyph unicode="&#xad;" horiz-adv-x="440" d="M135 288h300l-8 -34h-300z" />
<glyph unicode="&#xae;" d="M109 434q13 55 43 103.5t72.5 84.5t94 57t106.5 21t97 -21t68 -57t34.5 -84.5t-4.5 -103.5t-43.5 -103.5t-73 -84.5t-94 -56.5t-106.5 -20.5t-97 20.5t-68 56.5t-34 84.5t5 103.5zM141 434q-11 -48 -4.5 -90.5t29 -74t59.5 -50t85 -18.5t93.5 18.5t82.5 50t64 74t38 90.5 t4 91t-29.5 74.5t-59.5 50t-85 18.5t-93.5 -18.5t-82.5 -50t-63.5 -74.5t-37.5 -91zM366 407h-79l-30 -131h-32l73 315h91q64 0 84.5 -20t9.5 -70q-8 -35 -26.5 -59t-53.5 -32l34 -134h-35zM375 439q33 0 50.5 13t25.5 49q8 34 -8.5 46t-57.5 12h-62l-28 -120h80z" />
<glyph unicode="&#xaf;" horiz-adv-x="446" d="M244 674h267l-7 -32h-267z" />
<glyph unicode="&#xb0;" d="M237 564q7 30 22.5 55t37.5 43t49.5 28t57.5 10q61 0 90 -37.5t15 -98.5q-7 -30 -22.5 -55t-37.5 -43t-49.5 -27.5t-57.5 -9.5q-61 0 -90 37t-15 98zM271 564q-11 -47 10 -75t68 -28t82 28t46 75t-11 75.5t-69 28.5t-81 -28.5t-45 -75.5z" />
<glyph unicode="&#xb1;" d="M128 321h190l39 169h40l-39 -169h190l-9 -36h-190l-35 -153h-40l35 153h-190zM495 94l-8 -36h-420l8 36h420z" />
<glyph unicode="&#xb2;" horiz-adv-x="265" d="M137 478l8 34l122 104q27 23 48 46t29 53q6 27 -8 38.5t-38 11.5q-13 0 -29 -2t-30 -4l-34 -6l6 33q15 3 32 6q14 2 31 4.5t33 2.5q91 0 72 -85q-8 -35 -32 -62.5t-61 -58.5l-94 -81h148l-8 -34h-195z" />
<glyph unicode="&#xb3;" horiz-adv-x="265" d="M213 788q16 2 34 5q15 2 32.5 4t34.5 2q49 0 68 -19t9 -61q-5 -21 -14.5 -35.5t-20 -23.5t-19.5 -13.5t-12 -5.5q12 -4 21.5 -9t15 -13.5t6.5 -22t-4 -34.5q-11 -48 -42 -70.5t-79 -22.5q-19 0 -37.5 1.5t-33.5 3.5q-18 3 -34 6l11 32q15 -3 32 -5q14 -2 32.5 -3t37.5 -1 q33 0 51.5 16t24.5 42q8 35 -6 48t-40 13h-65l8 34h65q8 0 18 5t19.5 13.5t17 20t10.5 24.5q5 23 -4.5 34.5t-42.5 11.5q-17 0 -34.5 -1.5t-31.5 -3.5q-17 -2 -32 -4l4 32v0z" />
<glyph unicode="&#xb4;" horiz-adv-x="565" d="M509 732l9 -31l-214 -92l-9 27z" />
<glyph unicode="&#xb6;" d="M541 667h-152l-152 -667h-36l79 350h-7q-39 0 -70 12.5t-51 35t-27 55t2 71.5t31.5 71.5t53 56t67 36t75.5 12.5h328l-8 -33h-97l-152 -667h-36z" />
<glyph unicode="&#xb7;" horiz-adv-x="248" d="M177 350h40l-18 -80h-40z" />
<glyph unicode="&#xb8;" horiz-adv-x="833" d="M528 -130q-9 -40 -36 -55.5t-63 -15.5q-17 0 -31.5 0.5t-25.5 1.5q-13 1 -23 2l8 28l26 -2q11 -1 25 -1.5t27 -0.5q22 0 37 10t21 36q5 23 -5.5 32.5t-32.5 9.5h-61l47 86h33l-34 -58q54 0 76 -15.5t12 -57.5z" />
<glyph unicode="&#xb9;" horiz-adv-x="265" d="M319 790h36l-72 -312h-36l63 273l-95 -56l-11 28z" />
<glyph unicode="&#xba;" d="M400 659q57 0 77.5 -32t3.5 -103q-16 -71 -51.5 -104.5t-92.5 -33.5t-78.5 33.5t-5.5 104.5q17 71 53.5 103t93.5 32zM344 418q43 0 66.5 24.5t36.5 81.5q14 57 1 80t-56 23t-67 -23t-38 -80q-13 -57 0.5 -81.5t56.5 -24.5z" />
<glyph unicode="&#xbb;" horiz-adv-x="479" d="M349 360l9 39l137 -129l-8 -36l-199 -138l9 41l162 117zM142 360l9 39l137 -129l-8 -36l-199 -138l9 41l162 117z" />
<glyph unicode="&#xbf;" horiz-adv-x="386" d="M7 -51q7 33 28 62t48 56t57 51.5t57 49.5t46.5 50.5t26.5 53.5l9 38h35l-9 -41q-7 -31 -27.5 -59t-47.5 -54t-57.5 -51.5t-57.5 -50.5t-47 -51t-26 -54q-17 -72 14.5 -98.5t111.5 -26.5q18 0 44.5 3.5t51.5 8.5q29 5 61 13l-3 -33q-31 -8 -61 -13q-26 -5 -53.5 -8.5 t-47.5 -3.5q-96 0 -134 35t-19 123zM341 419h-40l19 80h40z" />
<glyph unicode="&#xc0;" horiz-adv-x="604" d="M372 619q20 33 45 56.5t63 24.5h31l54 -700h-34l-20 215h-318l-115 -215h-38zM211 249h298l-31 417q-23 1 -40 -14.5t-32 -38.5zM515 809l-21 -27l-172 92l23 31z" />
<glyph unicode="&#xc1;" horiz-adv-x="604" d="M372 619q20 33 45 56.5t63 24.5h31l54 -700h-34l-20 215h-318l-115 -215h-38zM211 249h298l-31 417q-23 1 -40 -14.5t-32 -38.5zM615 906l9 -31l-214 -92l-9 27z" />
<glyph unicode="&#xc2;" horiz-adv-x="604" d="M372 619q20 33 45 56.5t63 24.5h31l54 -700h-34l-20 215h-318l-115 -215h-38zM211 249h298l-31 417q-23 1 -40 -14.5t-32 -38.5zM493 899h28l92 -132h-41l-69 100l-116 -100h-45z" />
<glyph unicode="&#xc3;" horiz-adv-x="604" d="M372 619q20 33 45 56.5t63 24.5h31l54 -700h-34l-20 215h-318l-115 -215h-38zM211 249h298l-31 417q-23 1 -40 -14.5t-32 -38.5zM625 848q-15 -12 -30 -22q-13 -8 -27.5 -14.5t-25.5 -6.5q-15 0 -33.5 8.5t-37 18.5t-35.5 18.5t-29 8.5q-8 0 -21.5 -7.5t-26.5 -15.5 q-15 -10 -32 -22l-3 29q17 12 34 23q14 9 30 16.5t29 7.5q15 0 33.5 -8.5t36.5 -18t35 -18t29 -8.5q7 0 19 6t24 14q14 9 29 21z" />
<glyph unicode="&#xc4;" horiz-adv-x="604" d="M372 619q20 33 45 56.5t63 24.5h31l54 -700h-34l-20 215h-318l-115 -215h-38zM211 249h298l-31 417q-23 1 -40 -14.5t-32 -38.5zM382 842h35l-14 -62h-35zM572 842h35l-14 -62h-35z" />
<glyph unicode="&#xc5;" horiz-adv-x="604" d="M573 760q-7 -28 -22.5 -48t-37.5 -31l52 -681h-34l-20 215h-318l-115 -215h-38l364 680q-18 11 -25 31t0 49q10 44 42 68t76 24t65 -24t11 -68zM211 249h298l-31 417h-44zM412 760q-12 -51 30 -60h39q22 5 37.5 20t21.5 40q7 30 -6.5 46t-43.5 16t-50.5 -16t-27.5 -46z " />
<glyph unicode="&#xc6;" horiz-adv-x="847" d="M432 215h-255l-115 -215h-37l375 700h542l-8 -34h-363l-66 -289h303l-8 -34h-303l-72 -309h363l-6 -34h-398zM195 249h245l96 417h-118z" />
<glyph unicode="&#xc7;" horiz-adv-x="537" d="M391 -127q-9 -40 -36 -57t-63 -17q-17 0 -31.5 0.5t-25.5 1.5q-13 1 -23 2l8 28l26 -2q11 -1 25 -1.5t27 -0.5q22 0 37 10t21 36q5 23 -5.5 32.5t-32.5 9.5h-54l18 77q-69 3 -106.5 30.5t-50.5 74t-7 110t24 140.5q18 78 41.5 144.5t60 114.5t91 75.5t134.5 27.5 q35 0 67.5 -3t56.5 -7q28 -4 52 -9l-11 -35q-27 6 -56 10q-25 4 -56 7t-61 3q-71 0 -117.5 -24.5t-77.5 -68.5t-50.5 -104t-35.5 -131q-17 -71 -24 -130.5t4 -102t46.5 -66t104.5 -23.5q26 0 58 3t60 7q33 4 64 10l-5 -34q-28 -5 -58 -9q-26 -4 -56.5 -7t-59.5 -4l-11 -48 q54 0 76 -14t12 -56z" />
<glyph unicode="&#xc8;" horiz-adv-x="572" d="M527 341h-125q-19 0 -50.5 -4t-64.5 -19t-61 -44t-41 -78q-11 -43 -7 -74t20.5 -50.5t45.5 -28.5t67 -9h203l-6 -34h-201q-47 0 -83 11t-57 35t-26.5 62t8.5 92q10 37 27.5 64t39.5 46.5t47 32t50 18.5q-39 16 -55 60.5t1 111.5q21 81 82 124t162 43h162l-7 -34h-164 q-85 0 -134 -35.5t-66 -101.5q-9 -35 -7 -63.5t15.5 -48.5t40 -31.5t67.5 -11.5h126zM624 806l-21 -27l-172 92l23 31z" />
<glyph unicode="&#xc9;" horiz-adv-x="572" d="M527 341h-125q-19 0 -50.5 -4t-64.5 -19t-61 -44t-41 -78q-11 -43 -7 -74t20.5 -50.5t45.5 -28.5t67 -9h203l-6 -34h-201q-47 0 -83 11t-57 35t-26.5 62t8.5 92q10 37 27.5 64t39.5 46.5t47 32t50 18.5q-39 16 -55 60.5t1 111.5q21 81 82 124t162 43h162l-7 -34h-164 q-85 0 -134 -35.5t-66 -101.5q-9 -35 -7 -63.5t15.5 -48.5t40 -31.5t67.5 -11.5h126zM687 902l9 -31l-214 -92l-9 27z" />
<glyph unicode="&#xca;" horiz-adv-x="572" d="M527 341h-125q-19 0 -50.5 -4t-64.5 -19t-61 -44t-41 -78q-11 -43 -7 -74t20.5 -50.5t45.5 -28.5t67 -9h203l-6 -34h-201q-47 0 -83 11t-57 35t-26.5 62t8.5 92q10 37 27.5 64t39.5 46.5t47 32t50 18.5q-39 16 -55 60.5t1 111.5q21 81 82 124t162 43h162l-7 -34h-164 q-85 0 -134 -35.5t-66 -101.5q-9 -35 -7 -63.5t15.5 -48.5t40 -31.5t67.5 -11.5h126zM546 882h28l92 -132h-41l-69 100l-116 -100h-45z" />
<glyph unicode="&#xcb;" horiz-adv-x="572" d="M527 341h-125q-19 0 -50.5 -4t-64.5 -19t-61 -44t-41 -78q-11 -43 -7 -74t20.5 -50.5t45.5 -28.5t67 -9h203l-6 -34h-201q-47 0 -83 11t-57 35t-26.5 62t8.5 92q10 37 27.5 64t39.5 46.5t47 32t50 18.5q-39 16 -55 60.5t1 111.5q21 81 82 124t162 43h162l-7 -34h-164 q-85 0 -134 -35.5t-66 -101.5q-9 -35 -7 -63.5t15.5 -48.5t40 -31.5t67.5 -11.5h126zM435 851h35l-14 -62h-35zM625 851h35l-14 -62h-35z" />
<glyph unicode="&#xcc;" horiz-adv-x="226" d="M255 700h36l-160 -700h-36zM406 826l-21 -27l-172 92l23 31z" />
<glyph unicode="&#xcd;" horiz-adv-x="226" d="M255 700h36l-160 -700h-36zM412 922l9 -31l-214 -92l-9 27z" />
<glyph unicode="&#xce;" horiz-adv-x="226" d="M255 700h36l-160 -700h-36zM312 929h30l105 -125h-45l-82 96l-125 -96h-45z" />
<glyph unicode="&#xcf;" horiz-adv-x="226" d="M255 700h36l-160 -700h-36zM214 900h35l-14 -62h-35zM410 900h35l-14 -62h-35z" />
<glyph unicode="&#xd0;" horiz-adv-x="653" d="M109 368h82l77 332h250q66 0 104 -30.5t54 -79t13.5 -110t-16.5 -123.5q-15 -62 -41 -125.5t-65 -115t-91 -84t-118 -32.5h-250l76 334h-82zM636 363q12 52 15 106t-9.5 98t-44 71.5t-87.5 27.5h-214l-69 -298h172l-7 -34h-172l-70 -300h214q56 0 101 31.5t79 80.5 t57 106.5t35 110.5z" />
<glyph unicode="&#xd1;" horiz-adv-x="687" d="M268 700h32q29 1 45 -19t24 -53l135 -532q6 -28 16 -45t27 -17l154 666h36l-160 -700h-29q-33 -2 -49.5 20.5t-24.5 54.5l-135 524q-5 28 -15.5 46.5t-27.5 20.5l-152 -666h-36zM704 812q-15 -12 -30 -22q-13 -8 -27.5 -14.5t-25.5 -6.5q-15 0 -33.5 8.5t-37 18.5 t-35.5 18.5t-29 8.5q-8 0 -21.5 -7.5t-26.5 -15.5q-15 -10 -32 -22l-3 29q17 12 34 23q14 9 30 16.5t29 7.5q15 0 33.5 -8.5t36.5 -18t35 -18t29 -8.5q7 0 19 6t24 14q14 9 29 21z" />
<glyph unicode="&#xd2;" horiz-adv-x="656" d="M332 25q65 0 112.5 18t82.5 57t60 100t45 147q19 81 21.5 142.5t-14.5 103t-55.5 62t-101.5 20.5q-64 0 -111.5 -20.5t-83.5 -61.5t-61 -102.5t-44 -143.5q-19 -83 -22.5 -143.5t13.5 -100t55.5 -59t103.5 -19.5zM324 -9q-74 0 -119 21.5t-65.5 65.5t-18.5 111t23 158 q21 89 50 157t70.5 113.5t97 68.5t128.5 23t118 -23t65.5 -68t19 -113t-22.5 -158q-22 -95 -51.5 -162t-70.5 -110.5t-96 -63.5t-128 -20zM621 826l-21 -27l-172 92l23 31z" />
<glyph unicode="&#xd3;" horiz-adv-x="656" d="M332 25q65 0 112.5 18t82.5 57t60 100t45 147q19 81 21.5 142.5t-14.5 103t-55.5 62t-101.5 20.5q-64 0 -111.5 -20.5t-83.5 -61.5t-61 -102.5t-44 -143.5q-19 -83 -22.5 -143.5t13.5 -100t55.5 -59t103.5 -19.5zM324 -9q-74 0 -119 21.5t-65.5 65.5t-18.5 111t23 158 q21 89 50 157t70.5 113.5t97 68.5t128.5 23t118 -23t65.5 -68t19 -113t-22.5 -158q-22 -95 -51.5 -162t-70.5 -110.5t-96 -63.5t-128 -20zM627 922l9 -31l-214 -92l-9 27z" />
<glyph unicode="&#xd4;" horiz-adv-x="656" d="M332 25q65 0 112.5 18t82.5 57t60 100t45 147q19 81 21.5 142.5t-14.5 103t-55.5 62t-101.5 20.5q-64 0 -111.5 -20.5t-83.5 -61.5t-61 -102.5t-44 -143.5q-19 -83 -22.5 -143.5t13.5 -100t55.5 -59t103.5 -19.5zM324 -9q-74 0 -119 21.5t-65.5 65.5t-18.5 111t23 158 q21 89 50 157t70.5 113.5t97 68.5t128.5 23t118 -23t65.5 -68t19 -113t-22.5 -158q-22 -95 -51.5 -162t-70.5 -110.5t-96 -63.5t-128 -20zM527 934h30l105 -125h-45l-82 96l-125 -96h-46z" />
<glyph unicode="&#xd5;" horiz-adv-x="656" d="M332 25q65 0 112.5 18t82.5 57t60 100t45 147q19 81 21.5 142.5t-14.5 103t-55.5 62t-101.5 20.5q-64 0 -111.5 -20.5t-83.5 -61.5t-61 -102.5t-44 -143.5q-19 -83 -22.5 -143.5t13.5 -100t55.5 -59t103.5 -19.5zM324 -9q-74 0 -119 21.5t-65.5 65.5t-18.5 111t23 158 q21 89 50 157t70.5 113.5t97 68.5t128.5 23t118 -23t65.5 -68t19 -113t-22.5 -158q-22 -95 -51.5 -162t-70.5 -110.5t-96 -63.5t-128 -20zM702 875q-18 -16 -36 -28q-15 -11 -32 -19t-28 -8q-16 0 -36 10t-40 22t-38 22t-30 10q-8 0 -23 -8.5t-31 -19.5q-18 -12 -39 -27 l-3 29q20 16 39 28q17 11 34 20t30 9q16 0 36 -10t40 -21.5t38 -21.5t30 -10q7 0 21 7.5t28 17.5q17 11 35 26z" />
<glyph unicode="&#xd6;" horiz-adv-x="656" d="M332 25q65 0 112.5 18t82.5 57t60 100t45 147q19 81 21.5 142.5t-14.5 103t-55.5 62t-101.5 20.5q-64 0 -111.5 -20.5t-83.5 -61.5t-61 -102.5t-44 -143.5q-19 -83 -22.5 -143.5t13.5 -100t55.5 -59t103.5 -19.5zM324 -9q-74 0 -119 21.5t-65.5 65.5t-18.5 111t23 158 q21 89 50 157t70.5 113.5t97 68.5t128.5 23t118 -23t65.5 -68t19 -113t-22.5 -158q-22 -95 -51.5 -162t-70.5 -110.5t-96 -63.5t-128 -20zM429 900h35l-14 -62h-35zM625 900h35l-14 -62h-35z" />
<glyph unicode="&#xd7;" d="M342 309l185 148l21 -28l-184 -152l116 -145l-33 -28l-114 149l-183 -149l-21 29l183 148l-114 149l32 27z" />
<glyph unicode="&#xd8;" horiz-adv-x="656" d="M324 -9q-40 0 -70.5 6.5t-55.5 18.5l-89 -127l-30 13l93 133q-45 40 -50 117t22 195q21 89 50 157t70.5 113.5t97 68.5t128.5 23q82 0 132 -31l79 114l30 -14l-85 -121q42 -43 46 -120t-22 -190q-22 -95 -51.5 -162t-70.5 -110.5t-96 -63.5t-128 -20zM182 347 q-24 -104 -23 -172.5t36 -105.5l403 575q-42 31 -116 31q-64 0 -111.5 -20.5t-83.5 -61.5t-61 -102.5t-44 -143.5zM332 25q65 0 112.5 18t82.5 57t60 100t45 147q23 98 21.5 166.5t-31.5 108.5l-401 -574q39 -23 111 -23z" />
<glyph unicode="&#xd9;" horiz-adv-x="642" d="M171 196q-20 -88 20.5 -129.5t128.5 -41.5q95 0 157 41.5t82 129.5l116 504h36l-116 -504q-24 -105 -97 -155t-186 -50q-105 0 -153.5 50t-23.5 155l116 504h36zM614 826l-21 -27l-172 92l23 31z" />
<glyph unicode="&#xda;" horiz-adv-x="642" d="M171 196q-20 -88 20.5 -129.5t128.5 -41.5q95 0 157 41.5t82 129.5l116 504h36l-116 -504q-24 -105 -97 -155t-186 -50q-105 0 -153.5 50t-23.5 155l116 504h36zM620 922l9 -31l-214 -92l-9 27z" />
<glyph unicode="&#xdb;" horiz-adv-x="642" d="M171 196q-20 -88 20.5 -129.5t128.5 -41.5q95 0 157 41.5t82 129.5l116 504h36l-116 -504q-24 -105 -97 -155t-186 -50q-105 0 -153.5 50t-23.5 155l116 504h36zM520 929h30l105 -125h-45l-82 96l-125 -96h-46z" />
<glyph unicode="&#xdc;" horiz-adv-x="642" d="M171 196q-20 -88 20.5 -129.5t128.5 -41.5q95 0 157 41.5t82 129.5l116 504h36l-116 -504q-24 -105 -97 -155t-186 -50q-105 0 -153.5 50t-23.5 155l116 504h36zM423 900h35l-14 -62h-35zM619 900h35l-14 -62h-35z" />
<glyph unicode="&#xdd;" horiz-adv-x="540" d="M289 0h-36l68 301l-131 399h39l117 -359l280 359h44l-313 -399zM569 922l9 -31l-214 -92l-9 27z" />
<glyph unicode="&#xde;" horiz-adv-x="615" d="M391 169q45 0 81 15.5t62 42t44 62.5t27 78q10 42 8 74.5t-17 55.5t-44.5 35t-74.5 12h-209l-86 -375h209zM174 135l-30 -135h-36l160 700h36l-28 -122h209q109 0 145 -54.5t13 -156.5q-12 -51 -33.5 -93.5t-54 -73t-75.5 -48t-97 -17.5h-209z" />
<glyph unicode="&#xdf;" horiz-adv-x="589" d="M101 0l128 561q12 51 30 85.5t43.5 55t60.5 29t80 8.5q48 0 79 -8t47 -24.5t18.5 -42t-5.5 -60.5q-12 -52 -37 -79.5t-60 -44.5q-38 -18 -56.5 -30.5t-23.5 -34.5q-2 -7 -1.5 -14t6.5 -16t20.5 -20.5t40.5 -27.5q32 -19 54 -34t34.5 -31t15.5 -35t-3 -46 q-13 -55 -32.5 -93t-48 -62t-66.5 -34.5t-87 -10.5q-11 0 -29.5 0.5t-35.5 1.5q-20 1 -43 2l12 34q24 -1 45 -2q18 -1 34.5 -1.5t23.5 -0.5q42 0 73 9t53.5 28.5t37 51.5t25.5 77q4 20 1.5 35t-14 28t-31.5 26t-50 31q-27 16 -43 28.5t-24 24.5t-8.5 24t2.5 27 q4 18 11.5 30.5t20 22.5t30 19t41.5 20q28 13 46 34t28 63q13 56 -10.5 78.5t-98.5 22.5q-36 0 -63 -6t-48 -23.5t-36 -48t-26 -79.5l-125 -548h-36z" />
<glyph unicode="&#xe0;" horiz-adv-x="518" d="M443 71q5 -21 23 -32.5t39 -16.5l-10 -33q-20 1 -36 9.5t-28 20t-18.5 25t-6.5 24.5q-12 -12 -33 -26t-47.5 -26t-55.5 -19.5t-56 -7.5q-52 0 -77 25t-32.5 63t-2.5 82.5t14 83.5q31 131 95 198.5t175 67.5q26 0 56 -3.5t58 -8.5l44 9zM223 21q28 0 59.5 11.5t60 27.5 t49.5 32.5t27 26.5l80 344q-26 0 -58.5 7t-63.5 7q-87 0 -142.5 -60t-81.5 -170q-8 -32 -14 -71.5t-2 -74t23 -57.5t63 -23zM504 647l-21 -27l-172 92l23 31z" />
<glyph unicode="&#xe1;" horiz-adv-x="518" d="M443 71q5 -21 23 -32.5t39 -16.5l-10 -33q-20 1 -36 9.5t-28 20t-18.5 25t-6.5 24.5q-12 -12 -33 -26t-47.5 -26t-55.5 -19.5t-56 -7.5q-52 0 -77 25t-32.5 63t-2.5 82.5t14 83.5q31 131 95 198.5t175 67.5q26 0 56 -3.5t58 -8.5l44 9zM223 21q28 0 59.5 11.5t60 27.5 t49.5 32.5t27 26.5l80 344q-26 0 -58.5 7t-63.5 7q-87 0 -142.5 -60t-81.5 -170q-8 -32 -14 -71.5t-2 -74t23 -57.5t63 -23zM557 740l9 -31l-214 -92l-9 27z" />
<glyph unicode="&#xe2;" horiz-adv-x="518" d="M443 71q5 -21 23 -32.5t39 -16.5l-10 -33q-20 1 -36 9.5t-28 20t-18.5 25t-6.5 24.5q-12 -12 -33 -26t-47.5 -26t-55.5 -19.5t-56 -7.5q-52 0 -77 25t-32.5 63t-2.5 82.5t14 83.5q31 131 95 198.5t175 67.5q26 0 56 -3.5t58 -8.5l44 9zM223 21q28 0 59.5 11.5t60 27.5 t49.5 32.5t27 26.5l80 344q-26 0 -58.5 7t-63.5 7q-87 0 -142.5 -60t-81.5 -170q-8 -32 -14 -71.5t-2 -74t23 -57.5t63 -23zM468 751h28l92 -132h-41l-69 100l-116 -100h-45z" />
<glyph unicode="&#xe3;" horiz-adv-x="518" d="M443 71q5 -21 23 -32.5t39 -16.5l-10 -33q-20 1 -36 9.5t-28 20t-18.5 25t-6.5 24.5q-12 -12 -33 -26t-47.5 -26t-55.5 -19.5t-56 -7.5q-52 0 -77 25t-32.5 63t-2.5 82.5t14 83.5q31 131 95 198.5t175 67.5q26 0 56 -3.5t58 -8.5l44 9zM223 21q28 0 59.5 11.5t60 27.5 t49.5 32.5t27 26.5l80 344q-26 0 -58.5 7t-63.5 7q-87 0 -142.5 -60t-81.5 -170q-8 -32 -14 -71.5t-2 -74t23 -57.5t63 -23zM573 673q-15 -12 -30 -22q-13 -8 -27.5 -14.5t-25.5 -6.5q-15 0 -33.5 8.5t-37 18.5t-35.5 18.5t-29 8.5q-8 0 -21.5 -7.5t-26.5 -15.5 q-15 -10 -32 -22l-3 29q17 12 34 23q14 9 30 16.5t29 7.5q15 0 33.5 -8.5t36.5 -18t35 -18t29 -8.5q7 0 19 6t24 14q14 9 29 21z" />
<glyph unicode="&#xe4;" horiz-adv-x="518" d="M443 71q5 -21 23 -32.5t39 -16.5l-10 -33q-20 1 -36 9.5t-28 20t-18.5 25t-6.5 24.5q-12 -12 -33 -26t-47.5 -26t-55.5 -19.5t-56 -7.5q-52 0 -77 25t-32.5 63t-2.5 82.5t14 83.5q31 131 95 198.5t175 67.5q26 0 56 -3.5t58 -8.5l44 9zM223 21q28 0 59.5 11.5t60 27.5 t49.5 32.5t27 26.5l80 344q-26 0 -58.5 7t-63.5 7q-87 0 -142.5 -60t-81.5 -170q-8 -32 -14 -71.5t-2 -74t23 -57.5t63 -23zM344 700h35l-14 -62h-35zM534 700h35l-14 -62h-35z" />
<glyph unicode="&#xe5;" horiz-adv-x="518" d="M443 71q5 -21 23 -32.5t39 -16.5l-10 -33q-20 1 -36 9.5t-28 20t-18.5 25t-6.5 24.5q-12 -12 -33 -26t-47.5 -26t-55.5 -19.5t-56 -7.5q-52 0 -77 25t-32.5 63t-2.5 82.5t14 83.5q31 131 95 198.5t175 67.5q26 0 56 -3.5t58 -8.5l44 9zM223 21q28 0 59.5 11.5t60 27.5 t49.5 32.5t27 26.5l80 344q-26 0 -58.5 7t-63.5 7q-87 0 -142.5 -60t-81.5 -170q-8 -32 -14 -71.5t-2 -74t23 -57.5t63 -23zM338 657q4 20 15.5 37.5t27 30t35 20t39.5 7.5q40 0 61 -27.5t12 -67.5q-10 -41 -43 -68t-73 -27q-41 0 -62.5 27t-11.5 68zM372 657q-7 -26 7 -45 t40 -19t47.5 19t28.5 45q5 26 -8 44.5t-39 18.5t-48.5 -18.5t-27.5 -44.5z" />
<glyph unicode="&#xe6;" horiz-adv-x="828" d="M574 23q26 0 58 1t60 3q33 2 66 5l-4 -32q-34 -3 -67 -5q-29 -2 -62 -3t-60 -1q-52 0 -83 15.5t-46 42.5l-42 -16q-31 -12 -66 -21q-30 -8 -69 -14.5t-81 -6.5q-62 0 -86 36t-7 110q10 42 26 68t42 42t63.5 24.5t88.5 14.5l146 15l12 52q15 66 -7 94t-76 28 q-28 0 -61 -1.5t-62 -3.5q-33 -2 -67 -4l6 33q33 2 66 5q29 2 62.5 3.5t63.5 1.5q115 0 117 -96q39 54 88.5 75t105.5 21q46 0 78.5 -13t50 -42t19.5 -74.5t-13 -110.5l-8 -33h-355q-12 -52 -13.5 -91.5t9.5 -66.5t37 -41t70 -14zM187 23q35 0 74 7t73.5 16t60 17t32.5 11 q-11 35 -5.5 83.5t19.5 110.5l-188 -18q-57 -5 -87.5 -32t-43.5 -81q-13 -56 5 -85t60 -29zM796 268q13 57 13.5 97t-13 65t-39.5 36t-65 11q-75 0 -131.5 -48t-82.5 -161h318z" />
<glyph unicode="&#xe7;" horiz-adv-x="447" d="M290 -127q-9 -40 -36 -57t-63 -17q-17 0 -31.5 0.5t-25.5 1.5q-13 1 -23 2l8 28l26 -2q11 -1 25 -1.5t27 -0.5q22 0 37 10t21 36q5 23 -5.5 32.5t-32.5 9.5h-54l18 81q-33 9 -51.5 32.5t-25 58.5t-1.5 80.5t20 98.5q18 65 42 111t57 75.5t75.5 43t98.5 13.5q29 0 61.5 -6 t49.5 -11l-9 -34q-17 4 -48.5 11.5t-60.5 7.5q-93 0 -149 -55.5t-82 -160.5q-13 -53 -18.5 -97t1.5 -75.5t29 -49t64 -17.5q21 0 46 8t49 20t45.5 26t34.5 26l15 -31q-16 -14 -38.5 -28.5t-48.5 -26t-54.5 -19t-56.5 -7.5q-4 0 -7 0.5t-6 0.5l-11 -48q54 0 76 -14t12 -56z " />
<glyph unicode="&#xe8;" horiz-adv-x="507" d="M267 23q28 0 55 7.5t51 18.5t44 23t33 21l-1 -38q-31 -19 -64 -33q-29 -13 -63.5 -23t-69.5 -10q-40 0 -67.5 11t-45 31t-25.5 48.5t-8 63.5q0 38 7.5 80.5t23 83t38.5 77t53.5 64.5t69 44.5t84.5 16.5q66 0 100.5 -32.5t34.5 -80.5q0 -43 -18 -76.5t-48 -58t-68.5 -41.5 t-80 -27.5t-82.5 -15.5t-76 -6q-1 -6 -1 -10.5v-8.5q0 -25 3.5 -48t16 -41t37 -29t67.5 -11zM149 207q50 0 108.5 9.5t108.5 31t83 56.5t33 87q0 43 -29.5 64.5t-81.5 21.5q-31 0 -66 -16.5t-67 -50t-56 -84t-33 -119.5zM487 644l-21 -27l-172 92l23 31z" />
<glyph unicode="&#xe9;" horiz-adv-x="507" d="M267 23q28 0 55 7.5t51 18.5t44 23t33 21l-1 -38q-31 -19 -64 -33q-29 -13 -63.5 -23t-69.5 -10q-40 0 -67.5 11t-45 31t-25.5 48.5t-8 63.5q0 38 7.5 80.5t23 83t38.5 77t53.5 64.5t69 44.5t84.5 16.5q66 0 100.5 -32.5t34.5 -80.5q0 -43 -18 -76.5t-48 -58t-68.5 -41.5 t-80 -27.5t-82.5 -15.5t-76 -6q-1 -6 -1 -10.5v-8.5q0 -25 3.5 -48t16 -41t37 -29t67.5 -11zM149 207q50 0 108.5 9.5t108.5 31t83 56.5t33 87q0 43 -29.5 64.5t-81.5 21.5q-31 0 -66 -16.5t-67 -50t-56 -84t-33 -119.5zM548 745l9 -31l-214 -92l-9 27z" />
<glyph unicode="&#xea;" horiz-adv-x="507" d="M267 23q28 0 55 7.5t51 18.5t44 23t33 21l-1 -38q-31 -19 -64 -33q-29 -13 -63.5 -23t-69.5 -10q-40 0 -67.5 11t-45 31t-25.5 48.5t-8 63.5q0 38 7.5 80.5t23 83t38.5 77t53.5 64.5t69 44.5t84.5 16.5q66 0 100.5 -32.5t34.5 -80.5q0 -43 -18 -76.5t-48 -58t-68.5 -41.5 t-80 -27.5t-82.5 -15.5t-76 -6q-1 -6 -1 -10.5v-8.5q0 -25 3.5 -48t16 -41t37 -29t67.5 -11zM149 207q50 0 108.5 9.5t108.5 31t83 56.5t33 87q0 43 -29.5 64.5t-81.5 21.5q-31 0 -66 -16.5t-67 -50t-56 -84t-33 -119.5zM419 722h28l92 -132h-41l-69 100l-116 -100h-45z" />
<glyph unicode="&#xeb;" horiz-adv-x="507" d="M267 23q28 0 55 7.5t51 18.5t44 23t33 21l-1 -38q-31 -19 -64 -33q-29 -13 -63.5 -23t-69.5 -10q-40 0 -67.5 11t-45 31t-25.5 48.5t-8 63.5q0 38 7.5 80.5t23 83t38.5 77t53.5 64.5t69 44.5t84.5 16.5q66 0 100.5 -32.5t34.5 -80.5q0 -43 -18 -76.5t-48 -58t-68.5 -41.5 t-80 -27.5t-82.5 -15.5t-76 -6q-1 -6 -1 -10.5v-8.5q0 -25 3.5 -48t16 -41t37 -29t67.5 -11zM149 207q50 0 108.5 9.5t108.5 31t83 56.5t33 87q0 43 -29.5 64.5t-81.5 21.5q-31 0 -66 -16.5t-67 -50t-56 -84t-33 -119.5zM330 698h35l-14 -62h-35zM520 698h35l-14 -62h-35z " />
<glyph unicode="&#xec;" horiz-adv-x="261" d="M227 500h35l-114 -500h-35zM348 636l-21 -27l-171 92l22 31z" />
<glyph unicode="&#xed;" horiz-adv-x="261" d="M416 732l9 -31l-214 -92l-9 27zM227 500h35l-114 -500h-35z" />
<glyph unicode="&#xee;" horiz-adv-x="261" d="M227 500h35l-114 -500h-35zM283 732h28l92 -132h-43l-69 100l-116 -100h-42z" />
<glyph unicode="&#xef;" horiz-adv-x="261" d="M188 700h35l-14 -62h-35zM378 700h35l-14 -62h-35zM227 500h35l-114 -500h-35z" />
<glyph unicode="&#xf0;" d="M272 583l123 72q-53 31 -121 53l20 31q79 -26 138 -63l117 69l14 -27l-103 -61q72 -55 98.5 -130t3.5 -172q-23 -102 -51.5 -171.5t-64.5 -112t-81 -61.5t-102 -19q-100 0 -144 57.5t-19 165.5q11 47 34 86t56 66.5t74.5 43t88.5 15.5q29 0 60.5 -7t57.5 -15 q31 -10 60 -22q14 69 -9.5 135.5t-98.5 119.5l-137 -80zM347 391q-40 0 -74.5 -13t-62 -36.5t-46.5 -56t-28 -71.5q-21 -92 13.5 -140.5t121.5 -48.5q49 0 86 15.5t67 52.5t54 98.5t46 154.5q-31 12 -62 22q-26 8 -57 15.5t-58 7.5z" />
<glyph unicode="&#xf1;" horiz-adv-x="574" d="M111 0l114 500h35l-9 -40q27 13 56 24q25 9 56.5 17t63.5 8q51 0 80 -13t40 -42.5t7 -77t-20 -116.5l-59 -260h-35l58 258q14 60 19 101.5t-2.5 68t-30 38t-64.5 11.5q-34 0 -65.5 -8t-56.5 -17q-29 -11 -55 -25l-97 -427h-35zM603 673q-15 -12 -30 -22 q-13 -8 -27.5 -14.5t-25.5 -6.5q-15 0 -33.5 8.5t-37 18.5t-35.5 18.5t-29 8.5q-8 0 -21.5 -7.5t-26.5 -15.5q-15 -10 -32 -22l-3 29q17 12 34 23q14 9 30 16.5t29 7.5q15 0 33.5 -8.5t36.5 -18t35 -18t29 -8.5q7 0 19 6t24 14q14 9 29 21z" />
<glyph unicode="&#xf2;" horiz-adv-x="536" d="M381 509q102 0 135 -60t3 -190q-15 -66 -35.5 -116.5t-50.5 -84t-72 -50.5t-100 -17q-59 0 -94 15.5t-50 48t-12.5 83.5t19.5 123q15 66 36 113t52 77t72 44t97 14zM269 23q51 0 86 16t59 46t39.5 74t28.5 100q26 113 1 165.5t-109 52.5q-45 0 -79 -11.5t-59 -37 t-43.5 -67t-31.5 -100.5q-14 -61 -18.5 -105.5t6.5 -74t40 -44t80 -14.5zM492 636l-21 -27l-172 92l23 31z" />
<glyph unicode="&#xf3;" horiz-adv-x="536" d="M381 509q102 0 135 -60t3 -190q-15 -66 -35.5 -116.5t-50.5 -84t-72 -50.5t-100 -17q-59 0 -94 15.5t-50 48t-12.5 83.5t19.5 123q15 66 36 113t52 77t72 44t97 14zM269 23q51 0 86 16t59 46t39.5 74t28.5 100q26 113 1 165.5t-109 52.5q-45 0 -79 -11.5t-59 -37 t-43.5 -67t-31.5 -100.5q-14 -61 -18.5 -105.5t6.5 -74t40 -44t80 -14.5zM538 732l9 -31l-214 -92l-9 27z" />
<glyph unicode="&#xf4;" horiz-adv-x="536" d="M381 509q102 0 135 -60t3 -190q-15 -66 -35.5 -116.5t-50.5 -84t-72 -50.5t-100 -17q-59 0 -94 15.5t-50 48t-12.5 83.5t19.5 123q15 66 36 113t52 77t72 44t97 14zM269 23q51 0 86 16t59 46t39.5 74t28.5 100q26 113 1 165.5t-109 52.5q-45 0 -79 -11.5t-59 -37 t-43.5 -67t-31.5 -100.5q-14 -61 -18.5 -105.5t6.5 -74t40 -44t80 -14.5zM416 732h28l92 -132h-43l-69 100l-116 -100h-43z" />
<glyph unicode="&#xf5;" horiz-adv-x="536" d="M381 509q102 0 135 -60t3 -190q-15 -66 -35.5 -116.5t-50.5 -84t-72 -50.5t-100 -17q-59 0 -94 15.5t-50 48t-12.5 83.5t19.5 123q15 66 36 113t52 77t72 44t97 14zM269 23q51 0 86 16t59 46t39.5 74t28.5 100q26 113 1 165.5t-109 52.5q-45 0 -79 -11.5t-59 -37 t-43.5 -67t-31.5 -100.5q-14 -61 -18.5 -105.5t6.5 -74t40 -44t80 -14.5zM568 673q-15 -12 -30 -22q-13 -8 -27.5 -14.5t-25.5 -6.5q-15 0 -33.5 8.5t-37 18.5t-35.5 18.5t-29 8.5q-8 0 -21.5 -7.5t-26.5 -15.5q-15 -10 -32 -22l-3 29q17 12 34 23q14 9 30 16.5t29 7.5 q15 0 33.5 -8.5t36.5 -18t35 -18t29 -8.5q7 0 19 6t24 14q14 9 29 21z" />
<glyph unicode="&#xf6;" horiz-adv-x="536" d="M381 509q102 0 135 -60t3 -190q-15 -66 -35.5 -116.5t-50.5 -84t-72 -50.5t-100 -17q-59 0 -94 15.5t-50 48t-12.5 83.5t19.5 123q15 66 36 113t52 77t72 44t97 14zM269 23q51 0 86 16t59 46t39.5 74t28.5 100q26 113 1 165.5t-109 52.5q-45 0 -79 -11.5t-59 -37 t-43.5 -67t-31.5 -100.5q-14 -61 -18.5 -105.5t6.5 -74t40 -44t80 -14.5zM321 700h35l-14 -62h-35zM511 700h35l-14 -62h-35z" />
<glyph unicode="&#xf7;" d="M362 513h40l-19 -80h-40zM139 320h396l-8 -36h-396zM283 169h40l-19 -80h-40z" />
<glyph unicode="&#xf8;" horiz-adv-x="526" d="M151 15q-42 27 -46 86.5t19 159.5q15 66 36 113t52 77t72 44t97 14q43 0 75 -12l67 105l31 -14l-68 -107q72 -53 33 -222q-15 -66 -35.5 -116.5t-50.5 -84t-72 -50.5t-100 -17q-48 0 -78 9l-65 -101l-32 13zM161 261q-20 -82 -20 -134.5t31 -78.5l265 418q-27 11 -63 11 q-45 0 -79 -11.5t-59 -37t-43.5 -67t-31.5 -100.5zM269 23q51 0 86 16t59 46t39.5 74t28.5 100q33 141 -17 189l-263 -416q25 -9 67 -9z" />
<glyph unicode="&#xf9;" horiz-adv-x="557" d="M570 500l-114 -500h-35l8 40q-27 -14 -55 -25q-24 -9 -53 -16.5t-58 -7.5q-51 0 -80 13t-40 42.5t-6.5 77t20.5 116.5l60 260h35l-60 -258q-14 -60 -19 -101.5t3 -68t30.5 -38t64.5 -11.5q29 0 59 7.5t53 17.5q27 11 53 25l99 427h35zM504 636l-21 -27l-172 92l23 31z " />
<glyph unicode="&#xfa;" horiz-adv-x="557" d="M570 500l-114 -500h-35l8 40q-27 -14 -55 -25q-24 -9 -53 -16.5t-58 -7.5q-51 0 -80 13t-40 42.5t-6.5 77t20.5 116.5l60 260h35l-60 -258q-14 -60 -19 -101.5t3 -68t30.5 -38t64.5 -11.5q29 0 59 7.5t53 17.5q27 11 53 25l99 427h35zM550 732l9 -31l-214 -92l-9 27z" />
<glyph unicode="&#xfb;" horiz-adv-x="557" d="M570 500l-114 -500h-35l8 40q-27 -14 -55 -25q-24 -9 -53 -16.5t-58 -7.5q-51 0 -80 13t-40 42.5t-6.5 77t20.5 116.5l60 260h35l-60 -258q-14 -60 -19 -101.5t3 -68t30.5 -38t64.5 -11.5q29 0 59 7.5t53 17.5q27 11 53 25l99 427h35zM428 732h28l92 -132h-43l-69 100 l-116 -100h-43z" />
<glyph unicode="&#xfc;" horiz-adv-x="557" d="M570 500l-114 -500h-35l8 40q-27 -14 -55 -25q-24 -9 -53 -16.5t-58 -7.5q-51 0 -80 13t-40 42.5t-6.5 77t20.5 116.5l60 260h35l-60 -258q-14 -60 -19 -101.5t3 -68t30.5 -38t64.5 -11.5q29 0 59 7.5t53 17.5q27 11 53 25l99 427h35zM333 700h35l-14 -62h-35zM523 700 h35l-14 -62h-35z" />
<glyph unicode="&#xfd;" horiz-adv-x="480" d="M188 500l28 -400q5 -41 18 -55.5t31 -12.5l251 468h39l-268 -496q-23 -43 -46.5 -74t-53.5 -55.5t-70.5 -46.5t-98.5 -48l5 41q50 23 84 40.5t59 37t43.5 43t38.5 58.5q-29 2 -44 22.5t-20 50.5l-31 427h35zM516 732l9 -31l-214 -92l-9 27z" />
<glyph unicode="&#xfe;" horiz-adv-x="548" d="M273 23q48 0 84.5 14.5t64 43.5t47 74t33.5 106q24 104 2.5 160t-87.5 56q-33 0 -64.5 -8t-55.5 -18q-29 -11 -54 -25l-90 -391q19 -3 39 -6q17 -2 38.5 -4t42.5 -2zM424 509q46 0 74.5 -18t42 -50.5t12.5 -78.5t-14 -102q-31 -133 -94.5 -201t-178.5 -68q-21 0 -43 1.5 t-39 3.5q-20 2 -39 5l-54 -231h-35l222 960h35l-62 -270q25 13 53 24q24 9 55 17t65 8z" />
<glyph unicode="&#xff;" horiz-adv-x="480" d="M188 500l28 -400q5 -41 18 -55.5t31 -12.5l251 468h39l-268 -496q-23 -43 -46.5 -74t-53.5 -55.5t-70.5 -46.5t-98.5 -48l5 41q50 23 84 40.5t59 37t43.5 43t38.5 58.5q-29 2 -44 22.5t-20 50.5l-31 427h35zM276 700h35l-14 -62h-35zM466 700h35l-14 -62h-35z" />
<glyph unicode="&#x152;" horiz-adv-x="944" d="M484 -1q-20 -2 -42 -3t-44 -2.5t-41 -2t-33 -0.5q-77 0 -122.5 23t-65 68t-16.5 111t23 152t48 154t69 114.5t97 71t133 24.5q14 0 33.5 -0.5t40.5 -1.5t42.5 -3t38.5 -4h394l-8 -34h-358l-66 -289h298l-8 -34h-298l-72 -309h358l-8 -35h-393zM332 25q8 0 27.5 1t43 2.5 t47.5 3t41 2.5l146 629q-17 1 -40 3t-45.5 4t-41.5 3.5t-28 1.5q-68 0 -116.5 -22t-83 -64t-58.5 -103t-42 -139q-18 -79 -23 -139t11 -100.5t54.5 -61.5t107.5 -21z" />
<glyph unicode="&#x153;" horiz-adv-x="876" d="M622 23q26 0 58 1t60 3q33 2 66 5l-4 -32q-34 -3 -67 -5q-29 -2 -62 -3t-60 -1q-71 0 -104 28t-40 79q-31 -56 -79.5 -81.5t-128.5 -25.5q-62 0 -98.5 14t-52 45.5t-12.5 83.5t21 127q16 69 38 116.5t53.5 77t73 42t97.5 12.5q72 0 111.5 -28t44.5 -92q41 67 95 93.5 t115 26.5q46 0 78.5 -13t50 -42t19.5 -74.5t-13 -110.5l-8 -33h-355q-12 -52 -13.5 -91.5t9.5 -66.5t37 -41t70 -14zM269 23q55 0 91 14.5t59.5 44t38.5 73.5t29 104q28 120 -1 169t-112 49q-48 0 -82.5 -10t-60 -35t-43 -66.5t-32.5 -104.5q-15 -65 -20 -110t6.5 -73.5 t41.5 -41.5t85 -13zM844 268q13 57 13.5 97t-13 65t-39.5 36t-65 11q-75 0 -131.5 -48t-82.5 -161h318z" />
<glyph unicode="&#x178;" horiz-adv-x="540" d="M289 0h-36l68 301l-131 399h41l117 -359l280 359h42l-313 -399zM366 899h35l-14 -62h-35zM562 899h35l-14 -62h-35z" />
<glyph unicode="&#x2c6;" horiz-adv-x="833" d="M563 732h28l92 -132h-39l-69 100l-116 -100h-47z" />
<glyph unicode="&#x2dc;" horiz-adv-x="436" d="M536 673q-15 -12 -30 -22q-13 -8 -27.5 -14.5t-25.5 -6.5q-15 0 -33.5 8.5t-37 18.5t-35.5 18.5t-29 8.5q-8 0 -21.5 -7.5t-26.5 -15.5q-15 -10 -32 -22l-3 29q17 12 34 23q14 9 30 16.5t29 7.5q15 0 33.5 -8.5t36.5 -18t35 -18t29 -8.5q7 0 19 6t24 14q14 9 29 21z" />
<glyph unicode="&#x2000;" horiz-adv-x="467" />
<glyph unicode="&#x2001;" horiz-adv-x="934" />
<glyph unicode="&#x2002;" horiz-adv-x="467" />
<glyph unicode="&#x2003;" horiz-adv-x="934" />
<glyph unicode="&#x2004;" horiz-adv-x="311" />
<glyph unicode="&#x2005;" horiz-adv-x="233" />
<glyph unicode="&#x2006;" horiz-adv-x="155" />
<glyph unicode="&#x2007;" horiz-adv-x="155" />
<glyph unicode="&#x2008;" horiz-adv-x="116" />
<glyph unicode="&#x2009;" horiz-adv-x="186" />
<glyph unicode="&#x200a;" horiz-adv-x="51" />
<glyph unicode="&#x2010;" horiz-adv-x="440" d="M135 288h300l-8 -34h-300z" />
<glyph unicode="&#x2011;" horiz-adv-x="440" d="M135 288h300l-8 -34h-300z" />
<glyph unicode="&#x2012;" horiz-adv-x="440" d="M135 288h300l-8 -34h-300z" />
<glyph unicode="&#x2013;" horiz-adv-x="500" d="M565 286l-8 -34h-499l8 34h499z" />
<glyph unicode="&#x2014;" horiz-adv-x="1000" d="M1065 286l-8 -34h-999l8 34h999z" />
<glyph unicode="&#x2018;" horiz-adv-x="170" d="M285 727q-42 -51 -61.5 -99.5t-20.5 -100.5h-38q0 4 -0.5 7.5t-0.5 6.5q0 46 25 92.5t67 93.5h29z" />
<glyph unicode="&#x2019;" horiz-adv-x="170" d="M175 527q42 51 61.5 99.5t20.5 100.5h38q0 -4 0.5 -7.5t0.5 -6.5q0 -46 -25 -92.5t-67 -93.5h-29z" />
<glyph unicode="&#x201a;" horiz-adv-x="170" d="M120 115h38l-95 -200h-29z" />
<glyph unicode="&#x201c;" horiz-adv-x="340" d="M305 727q-42 -51 -61.5 -99.5t-20.5 -100.5h-38q0 4 -0.5 7.5t-0.5 6.5q0 46 25 92.5t67 93.5h29zM449 727q-42 -51 -61.5 -99.5t-20.5 -100.5h-38q0 4 -0.5 7.5t-0.5 6.5q0 46 25 92.5t67 93.5h29z" />
<glyph unicode="&#x201d;" horiz-adv-x="300" d="M175 527q42 51 61.5 99.5t20.5 100.5h38q0 -4 0.5 -7.5t0.5 -6.5q0 -46 -25 -92.5t-67 -93.5h-29zM317 527q42 51 61.5 99.5t20.5 100.5h38q0 -4 0.5 -7.5t0.5 -6.5q0 -46 -25 -92.5t-67 -93.5h-29z" />
<glyph unicode="&#x201e;" horiz-adv-x="300" d="M123 115h38l-95 -200h-29zM267 115h38l-95 -200h-29z" />
<glyph unicode="&#x2022;" d="M231 400h250l-67 -290h-250z" />
<glyph unicode="&#x2026;" horiz-adv-x="744" d="M124 80h40l-17 -80h-40zM378 80h40l-17 -80h-40zM632 80h40l-17 -80h-40z" />
<glyph unicode="&#x202f;" horiz-adv-x="186" />
<glyph unicode="&#x2039;" horiz-adv-x="272" d="M134 254l108 -117l-9 -41l-135 138l8 36l197 129l-9 -39z" />
<glyph unicode="&#x203a;" horiz-adv-x="272" d="M142 360l9 39l137 -129l-8 -36l-199 -138l9 41l162 117z" />
<glyph unicode="&#x205f;" horiz-adv-x="233" />
<glyph unicode="&#x20ac;" d="M166 427q19 60 43.5 106.5t60 78.5t84 48.5t116.5 16.5q35 0 66.5 -3t54.5 -7q27 -4 49 -9l-11 -35q-25 6 -53 10q-24 4 -54 7t-60 3q-59 0 -100.5 -14t-71.5 -41.5t-50 -68t-36 -92.5l311 -1l-8 -33h-313l-15 -62l-11 -52l313 -1l-8 -33h-312q-9 -54 -7 -95t19 -69 t52 -42t94 -14q26 0 57.5 3t57.5 7q31 4 62 10l-5 -34q-29 -6 -60 -10q-26 -4 -58.5 -7t-61.5 -3q-67 0 -108 16t-62 48t-24 79.5t7 110.5h-64l8 34h62l11 52l15 62h-62l8 34h64z" />
<glyph unicode="&#x2122;" d="M149 621h200l-7 -31h-83l-60 -258h-33l60 258h-84zM384 621h50l28 -242l143 242h50l-67 -290h-32l59 258l-145 -247h-35l-27 247l-59 -258h-32z" />
<glyph unicode="&#xe000;" horiz-adv-x="500" d="M0 500h500v-500h-500v500z" />
</font>
</defs>
</svg>
