<?xml version="1.0" standalone="no"?>
<!DOCTYPE svg PUBLIC "-//W3C//DTD SVG 1.1//EN" "http://www.w3.org/Graphics/SVG/1.1/DTD/svg11.dtd" >
<svg xmlns="http://www.w3.org/2000/svg">
<metadata></metadata>
<defs>
<font id="gudeabold" horiz-adv-x="503" >
<font-face units-per-em="1000" ascent="800" descent="-200" />
<missing-glyph horiz-adv-x="250" />
<glyph horiz-adv-x="1000" />
<glyph horiz-adv-x="1000" />
<glyph unicode="&#xd;" horiz-adv-x="1000" />
<glyph horiz-adv-x="464" d="M20 287l364 366v-732z" />
<glyph unicode=" "  horiz-adv-x="250" />
<glyph unicode="&#x09;" horiz-adv-x="250" />
<glyph unicode="&#xa0;" horiz-adv-x="250" />
<glyph unicode="!" horiz-adv-x="266" d="M68 0v125h130v-125h-130zM68 190v510h130v-510h-130z" />
<glyph unicode="&#x22;" horiz-adv-x="378" d="M54 441v259h111v-259h-111zM213 441v259h111v-259h-111z" />
<glyph unicode="#" horiz-adv-x="619" d="M21 181v100h118q2 25 8 76.5t9 84.5h-110v99h119l17 160h111l-17 -160h112l17 160h109l-15 -160h89v-99h-100l-16 -161h90v-100h-100q-3 -30 -10 -93t-9 -88h-110l19 181h-112q-2 -21 -9.5 -85.5t-10.5 -95.5h-110l19 181h-108zM249 281h112q15 119 19 161h-113 q-2 -16 -8.5 -71.5t-9.5 -89.5z" />
<glyph unicode="$" horiz-adv-x="508" d="M42 79l32 90q85 -37 169 -37q47 0 74 22t27 62q0 32 -30 53.5t-72.5 36t-85 33.5t-72.5 58.5t-30 98.5q0 73 38.5 115t101.5 49v87h105v-87q27 -4 58.5 -13t49.5 -17l18 -7l-24 -100q-2 2 -25 11t-62 18.5t-70 9.5q-63 0 -63 -64q0 -33 30 -54.5t72.5 -35.5t84.5 -32.5 t72 -58.5t30 -101q0 -78 -44.5 -126t-126.5 -58v-92h-105v90q-81 5 -152 49zM401 523z" />
<glyph unicode="%" horiz-adv-x="737" d="M30 523q0 73 35.5 123t109.5 50q148 0 148 -173q0 -169 -150 -169q-73 0 -108 45.5t-35 123.5zM90 0l388 688h138l-388 -688h-138zM135 524q0 -80 40 -80q43 0 43 80q0 36 -10.5 59t-31.5 23q-19 0 -30 -23.5t-11 -58.5zM400 163q0 73 35.5 123t109.5 50q148 0 148 -173 q0 -169 -150 -169q-73 0 -108 45.5t-35 123.5zM505 164q0 -80 40 -80q43 0 43 80q0 36 -10.5 59t-31.5 23q-19 0 -30 -23.5t-11 -58.5z" />
<glyph unicode="&#x26;" horiz-adv-x="756" d="M49 193q0 46 15.5 79.5t39.5 54.5t67 47q-44 52 -64.5 89.5t-20.5 75.5q0 75 57 123t145 48q90 0 143.5 -44.5t53.5 -115.5q0 -57 -30.5 -100t-98.5 -85l139 -134q22 47 22 130h112q-4 -61 -11.5 -104t-14.5 -62t-21 -48l143 -146h-170l-52 49q-33 -24 -91 -40.5 t-118 -16.5q-119 0 -182 54t-63 146zM174 187q0 -40 32.5 -64.5t87.5 -24.5q37 0 72 12.5t50 27.5l-155 156q-87 -45 -87 -107zM211 553q0 -9 1.5 -17t6 -17l7.5 -15t11 -16l12 -15t14 -17t14 -17q86 50 86 116q0 25 -22 37.5t-56 12.5q-32 0 -53 -13.5t-21 -38.5z" />
<glyph unicode="'" horiz-adv-x="185" d="M37 441v259h111v-259h-111z" />
<glyph unicode="(" horiz-adv-x="299" d="M40 311q0 244 138 453l106 -13q-99 -212 -99 -443q0 -213 97 -426l-109 -12q-133 208 -133 441z" />
<glyph unicode=")" horiz-adv-x="299" d="M15 751l106 13q138 -209 138 -453q0 -233 -133 -441l-109 12q97 213 97 426q0 231 -99 443z" />
<glyph unicode="*" horiz-adv-x="430" d="M20 476l104 50l-103 50l53 85l90 -65q-1 21 -4 61.5t-4 52.5h100l-11 -114l96 65l47 -89l-101 -45l101 -46l-47 -89l-96 64l11 -113h-100l8 114l-95 -64z" />
<glyph unicode="+" horiz-adv-x="469" d="M28 242v105h144v180h115v-180h153v-105h-153v-173h-115v173h-144z" />
<glyph unicode="," horiz-adv-x="244" d="M0 -146l87 257l125 -41l-113 -248z" />
<glyph unicode="-" horiz-adv-x="287" d="M28 234v115h231v-115h-231z" />
<glyph unicode="." horiz-adv-x="183" d="M34 0v136h115v-136h-115z" />
<glyph unicode="/" horiz-adv-x="491" d="M37 -145l295 945h129l-294 -945h-130z" />
<glyph unicode="0" horiz-adv-x="580" d="M45 352q0 72 12 132t39 113t78 83t122 30q240 0 240 -358q0 -57 -7 -106t-24.5 -96.5t-45 -81t-72.5 -54t-103 -20.5q-239 0 -239 358zM170 352q0 -110 28.5 -179t92.5 -69q33 0 57 19.5t37.5 54.5t19.5 77.5t6 94.5v4q0 246 -120 246q-64 0 -92.5 -69t-28.5 -179z" />
<glyph unicode="1" horiz-adv-x="519" d="M18 571l194 129h125v-600h138v-100h-443v100h180v471l-147 -96z" />
<glyph unicode="2" horiz-adv-x="524" d="M47 0v102q160 159 233 256t73 169q0 73 -106 73q-38 0 -80 -6.5t-65 -13.5l-23 -6l-19 103q80 33 185 33q115 0 174.5 -45.5t59.5 -125.5q0 -86 -63.5 -186t-194.5 -243h259l-1 -110h-432z" />
<glyph unicode="3" horiz-adv-x="528" d="M39 41l40 101q80 -38 164 -38q57 0 88.5 25t31.5 66q0 49 -34.5 77.5t-97.5 28.5h-105v110h105q51 0 80.5 29.5t29.5 73.5q0 86 -99 86q-34 0 -74 -10t-64 -20l-23 -11l-24 103q9 5 25.5 13t64.5 21.5t92 13.5q112 0 167 -50.5t55 -137.5q0 -61 -29 -106.5t-75 -56.5 q55 -9 91 -49.5t36 -102.5q0 -100 -66.5 -156.5t-186.5 -56.5q-51 0 -99 12t-70 24z" />
<glyph unicode="4" horiz-adv-x="540" d="M5 111v94l219 495h125l-212 -479h174v161h117v-161h68v-110h-68v-111h-117v111h-306z" />
<glyph unicode="5" horiz-adv-x="558" d="M53 47l38 93q88 -40 172 -40q63 0 97 31.5t34 88.5q0 120 -142 120l-162 1l24 359h377l-5 -105h-258l-11 -146q22 1 43 1q115 0 184.5 -58.5t69.5 -161.5q0 -109 -66 -172.5t-191 -63.5q-52 0 -103 13t-76 27z" />
<glyph unicode="6" horiz-adv-x="576" d="M62 310q0 88 12.5 155.5t42 125t85.5 88.5t136 31q42 0 82 -8t60 -16l19 -9l-28 -100q-70 27 -142 27q-137 0 -150 -188q64 27 125 27q109 0 168.5 -57t59.5 -165q0 -102 -61.5 -164.5t-166.5 -62.5q-242 0 -242 316zM177 301q0 -101 30.5 -151.5t101.5 -50.5 q49 0 78.5 32.5t29.5 81.5q0 125 -117 125q-61 0 -123 -37z" />
<glyph unicode="7" horiz-adv-x="507" d="M16 585v115h471v-115l-300 -585h-133l294 585h-332z" />
<glyph unicode="8" horiz-adv-x="575" d="M52 185q0 36 13 68t34 54.5t37 35t32 21.5q-93 57 -93 155q0 91 60.5 141t165.5 50q97 0 154.5 -48.5t57.5 -116.5q0 -72 -28.5 -122.5t-60.5 -78.5q51 -28 79 -63t28 -87q0 -95 -65 -147.5t-185 -52.5q-113 0 -171 55t-58 136zM167 189q0 -41 30.5 -66.5t93.5 -25.5 q54 0 89.5 24t35.5 64q0 24 -10.5 42.5t-34 34t-45 25.5t-58.5 25q-13 -7 -26.5 -15.5t-32.5 -24.5t-30.5 -37.5t-11.5 -45.5zM188 529q0 -26 10 -46t35 -37.5t41.5 -26t54.5 -25.5q71 61 71 136q0 32 -28 53.5t-73 21.5q-48 0 -79.5 -21t-31.5 -55z" />
<glyph unicode="9" horiz-adv-x="557" d="M43 483q0 102 61.5 164.5t166.5 62.5q242 0 242 -316q0 -88 -12.5 -155.5t-42 -125t-85.5 -88.5t-136 -31q-42 0 -82 8t-59 16l-20 9l28 100q70 -27 142 -27q136 0 149 188q-57 -27 -124 -27q-109 0 -168.5 57t-59.5 165zM158 491q0 -125 117 -125q59 0 123 36v4 q0 99 -30.5 149t-101.5 50q-49 0 -78.5 -32.5t-29.5 -81.5z" />
<glyph unicode=":" horiz-adv-x="217" d="M46 0v146h125v-146h-125zM46 354v146h125v-146h-125z" />
<glyph unicode=";" horiz-adv-x="276" d="M-7 -139l90 307l122 -39l-113 -299zM79 354v146h125v-146h-125z" />
<glyph unicode="&#x3c;" horiz-adv-x="528" d="M51 249v97l412 205v-120l-279 -133l279 -135v-118z" />
<glyph unicode="=" horiz-adv-x="580" d="M65 153v105h450v-105h-450zM65 331v105h450v-105h-450z" />
<glyph unicode="&#x3e;" horiz-adv-x="528" d="M64 45v120l279 133l-279 135v118l412 -204v-97z" />
<glyph unicode="?" horiz-adv-x="463" d="M70 683q86 27 155 27q85 0 134 -43.5t49 -117.5q0 -46 -15 -82t-36.5 -58.5t-43 -43t-36.5 -47.5t-15 -61v-63h-124v58q0 46 15 82t36 59t42.5 43.5t36.5 46.5t15 58q0 53 -71 53q-65 0 -121 -19zM136 0v138h125v-138h-125z" />
<glyph unicode="@" horiz-adv-x="907" d="M66 209q0 501 411 501q363 0 363 -316q0 -174 -85 -243.5t-250 -69.5l-8 36q-59 -41 -109 -41q-68 0 -103 39t-35 102q0 74 22 134t56.5 94t72 52t73.5 18q20 0 38 -5t26 -9t20.5 -13t13.5 -9l16 25h71l-63 -329q139 0 139 223q0 207 -259 207q-156 0 -228 -93t-72 -280 q0 -130 53.5 -189.5t172.5 -59.5h171l4 -94q-85 -8 -179 -8q-332 0 -332 328zM352 225q0 -50 48 -50q26 0 45.5 9t54.5 32l33 178q-1 0 -17 8.5t-36 8.5q-58 0 -93 -57.5t-35 -128.5z" />
<glyph unicode="A" horiz-adv-x="579" d="M-7 0l210 700h171l212 -700h-144l-50 171h-211l-49 -171h-139zM210 286h155l-77 288z" />
<glyph unicode="B" horiz-adv-x="587" d="M71 0v700h220q117 0 175 -46.5t58 -132.5q0 -58 -32.5 -96t-88.5 -46q71 -12 110 -57t39 -112q0 -95 -71 -152.5t-197 -57.5h-213zM209 115h99q48 0 77 25.5t29 63.5q0 49 -32.5 81.5t-94.5 32.5h-78v-203zM209 432h77q39 0 69.5 24t30.5 62q0 62 -90 67h-87v-153z" />
<glyph unicode="C" horiz-adv-x="584" d="M30 353q0 164 86.5 260t240.5 96q84 0 167 -29l-28 -112q-61 26 -144 26t-130 -63t-47 -167q0 -118 44 -186.5t124 -68.5q60 0 171 39l30 -102q-91 -52 -198 -52q-153 0 -234.5 96.5t-81.5 262.5z" />
<glyph unicode="D" horiz-adv-x="647" d="M71 0v700h217q149 0 239 -91t90 -234q0 -169 -98 -272t-262 -103h-186zM212 115h54q84 0 142 71.5t58 196.5q0 94 -51 148t-123 54h-80v-470z" />
<glyph unicode="E" horiz-adv-x="542" d="M71 0v700h417v-115h-272v-147h247v-117h-247v-206h272v-115h-417z" />
<glyph unicode="F" horiz-adv-x="510" d="M71 0v700h418v-115h-273v-147h249v-117h-249v-321h-145z" />
<glyph unicode="G" horiz-adv-x="646" d="M26 353q0 164 86.5 260.5t240.5 96.5q102 0 207 -36l-18 -112q-38 14 -99 23.5t-95 9.5q-83 0 -130 -63.5t-47 -167.5q0 -112 50.5 -183.5t129.5 -71.5q46 0 84 20v136h-116v115h261v-332q-105 -54 -218 -54q-154 0 -245 98t-91 261z" />
<glyph unicode="H" horiz-adv-x="664" d="M71 0v700h145v-279h232v279h145v-700h-145v306h-232v-306h-145z" />
<glyph unicode="I" horiz-adv-x="257" d="M56 0v700h145v-700h-145z" />
<glyph unicode="J" horiz-adv-x="343" d="M-19 4v113q5 0 33.5 -4.5t55.5 -4.5q57 0 57 120v363h-115v109h260v-489q0 -218 -171 -218q-63 0 -120 11z" />
<glyph unicode="K" horiz-adv-x="573" d="M71 0v700h144v-256l192 256h172l-222 -266l218 -434h-164l-155 323l-40 -45v-278h-145z" />
<glyph unicode="L" horiz-adv-x="473" d="M71 0v700h145v-585h270v-115h-415z" />
<glyph unicode="M" horiz-adv-x="737" d="M36 0v700h154l179 -375l187 375h145v-700h-145v434l-125 -270h-126l-125 269v-433h-144z" />
<glyph unicode="N" horiz-adv-x="679" d="M71 0v700h148l244 -452v452h145v-701h-152l-237 431v-430h-148z" />
<glyph unicode="O" horiz-adv-x="648" d="M26 355q0 157 75.5 256t221.5 99q147 0 223 -99t76 -256q0 -101 -31 -180.5t-100 -129.5t-168 -50q-147 0 -222 101.5t-75 258.5zM172 355q0 -105 39 -174.5t113 -69.5q77 0 115 70.5t38 178.5q0 95 -40.5 165t-111.5 70q-53 0 -89 -36.5t-50 -88.5t-14 -115z" />
<glyph unicode="P" horiz-adv-x="541" d="M71 0v700h220q123 0 178 -52.5t55 -159.5q0 -112 -67.5 -165.5t-188.5 -53.5h-52v-269h-145zM216 383h16q76 0 111.5 23t35.5 80q0 52 -29 76t-93 24h-41v-203z" />
<glyph unicode="Q" horiz-adv-x="651" d="M26 355q0 157 75.5 256t221.5 99q147 0 223 -99t76 -256q0 -150 -64 -244l93 -96l-79 -79l-95 101q-61 -44 -154 -44q-99 0 -167.5 50.5t-99 130t-30.5 181.5zM172 355q0 -105 39 -175.5t113 -70.5q39 0 63 18l-48 52l80 79l32 -39q26 51 26 141q0 95 -40.5 165.5 t-112.5 70.5q-78 0 -115 -70t-37 -171z" />
<glyph unicode="R" horiz-adv-x="603" d="M71 1v700h222q113 0 169 -49.5t56 -141.5q0 -56 -39 -102.5t-95 -53.5q40 -11 62 -36.5t46 -82.5l99 -234h-149l-97 224q-21 48 -44.5 63.5t-72.5 15.5h-12v-303h-145zM216 418h63q40 0 62.5 26t22.5 64q0 79 -75 79h-73v-169z" />
<glyph unicode="S" horiz-adv-x="551" d="M35 49l43 107q92 -42 182 -42q51 0 80 23.5t29 65.5q0 32 -33 56.5t-80 44t-94 44t-80 69t-33 105.5q0 91 57 139.5t156 48.5q94 0 201 -35l-24 -117q-3 2 -28.5 9t-69 15t-79.5 8q-68 0 -68 -65q0 -25 23.5 -45.5t59.5 -34t77 -33.5t77 -43t59.5 -63t23.5 -92 q0 -103 -66.5 -161.5t-187.5 -58.5q-62 0 -123.5 16.5t-101.5 38.5zM439 558z" />
<glyph unicode="T" horiz-adv-x="504" d="M20 583v117h464v-117h-159v-583h-144v583h-161z" />
<glyph unicode="U" horiz-adv-x="664" d="M71 258v442h146v-454q0 -66 29.5 -101.5t85.5 -35.5q54 0 84.5 35.5t30.5 101.5v454h146v-442q0 -131 -67 -197.5t-194 -66.5t-194 66.5t-67 197.5z" />
<glyph unicode="V" horiz-adv-x="546" d="M-7 700h154l121 -515l133 515h152l-206 -700h-165z" />
<glyph unicode="W" horiz-adv-x="751" d="M-7 700h156l82 -515l83 325h136l73 -325l86 515h149l-166 -700h-147l-62 306l-85 -306h-142z" />
<glyph unicode="X" horiz-adv-x="584" d="M0 0l222 368l-201 332h165l111 -206l116 206h160l-204 -332l215 -368h-162l-128 245l-133 -245h-161z" />
<glyph unicode="Y" horiz-adv-x="552" d="M-7 700h153l127 -274l135 274h151l-215 -405v-295h-145v295z" />
<glyph unicode="Z" horiz-adv-x="508" d="M19 585v115h449v-107l-287 -477h318v-116h-479v112l290 473h-291z" />
<glyph unicode="[" horiz-adv-x="340" d="M81 -200v1000h227v-105h-102v-791h105v-104h-230z" />
<glyph unicode="\" horiz-adv-x="484" d="M29 800h129l295 -945h-130z" />
<glyph unicode="]" horiz-adv-x="340" d="M29 -96h105v791h-102v105h227v-1000h-230v104z" />
<glyph unicode="^" horiz-adv-x="639" d="M56 275l205 392h116l204 -392h-137l-125 249l-123 -249h-140z" />
<glyph unicode="_" horiz-adv-x="430" d="M0 -131h430v-105h-430v105z" />
<glyph unicode="`" horiz-adv-x="391" d="M56 690l115 46l103 -137l-88 -32z" />
<glyph unicode="a" d="M40 154q0 76 58 118.5t175 42.5h41q0 43 -20.5 69t-62.5 26q-73 0 -148 -20l-22 88q99 32 199 32q182 0 182 -170v-340h-96l-20 50q-35 -32 -62 -44.5t-65 -12.5q-64 0 -111.5 44.5t-47.5 116.5zM173 159q0 -27 15 -45t39 -18q34 0 85 54v69h-43q-56 0 -76 -15t-20 -45z " />
<glyph unicode="b" horiz-adv-x="540" d="M81 0v700h130v-246q77 56 133 56q77 0 123.5 -65.5t46.5 -186.5q0 -126 -53 -192t-136 -66q-64 0 -126 56l-19 -56h-99zM211 156q53 -45 87 -45q41 0 64.5 36t23.5 108q0 139 -84 139q-38 0 -91 -45v-193z" />
<glyph unicode="c" horiz-adv-x="430" d="M35 250q0 123 57 191.5t166 68.5q64 0 146 -24l-47 -91q-55 17 -96 17q-31 0 -51.5 -14t-29.5 -40t-12 -49t-3 -55q0 -88 31 -123t95 -35q54 0 100 13l16 -90q-87 -25 -138 -25q-124 0 -179 65t-55 191z" />
<glyph unicode="d" horiz-adv-x="542" d="M32 246q0 130 50.5 197t132.5 67q54 0 116 -50v240h129v-700h-98l-20 57q-84 -63 -146 -63q-75 0 -119.5 64.5t-44.5 187.5zM162 250q0 -140 76 -140q39 0 92 44v199q-53 44 -88 44q-37 0 -58.5 -37t-21.5 -110z" />
<glyph unicode="e" horiz-adv-x="495" d="M34 248q0 129 57 195.5t166 66.5q90 0 144 -56t54 -166q0 -44 -4 -77h-289q0 -59 32 -87t86 -28t143 24l22 -89q-95 -37 -176 -37q-235 0 -235 254zM161 303h169v7q0 46 -20 74t-63 28t-64 -31t-22 -78z" />
<glyph unicode="f" horiz-adv-x="325" d="M35 393v107h58v76q0 64 36.5 99t92.5 35q72 0 108 -9l-17 -93q-25 5 -43 5q-25 0 -37 -13t-12 -48v-52h82v-107h-82v-393h-129v393h-57z" />
<glyph unicode="g" horiz-adv-x="545" d="M32 246q0 130 50.5 197t132.5 67q57 0 120 -51l19 41h111v-533q0 -50 -16.5 -88.5t-40 -59.5t-55 -34t-56 -16.5t-48.5 -3.5q-113 0 -197 35l19 92q77 -24 150 -24q24 0 41.5 2.5t38 11t32 28.5t11.5 51v97q-85 -64 -148 -64q-75 0 -119.5 64.5t-44.5 187.5zM162 250 q0 -140 76 -140q44 0 97 44v199q-53 44 -93 44q-37 0 -58.5 -37t-21.5 -110z" />
<glyph unicode="h" horiz-adv-x="585" d="M81 0v700h130v-245q43 32 74.5 43.5t73.5 11.5q67 0 106 -44.5t39 -131.5v-334h-130v299q0 41 -16 66.5t-49 25.5q-43 0 -98 -46v-345h-130z" />
<glyph unicode="i" horiz-adv-x="284" d="M77 0v500h130v-500h-130zM77 575v125h130v-125h-130z" />
<glyph unicode="j" horiz-adv-x="276" d="M30 -176q41 53 41 170v506h128v-482q0 -156 -92 -254zM70 575v125h130v-125h-130z" />
<glyph unicode="k" horiz-adv-x="543" d="M81 0v700h130v-381l156 181h147l-183 -204l199 -296h-141l-135 216l-43 -50v-166h-130z" />
<glyph unicode="l" horiz-adv-x="302" d="M81 0v700h130v-700h-130z" />
<glyph unicode="m" horiz-adv-x="848" d="M81 0v500h110l17 -45q43 32 74.5 43.5t73.5 11.5q76 0 111 -69q56 41 90.5 55t75.5 14q62 0 98 -45.5t36 -133.5v-331h-131v296q0 92 -55 92q-41 0 -94 -46v-342h-130v296q0 92 -54 92q-40 0 -91 -43v-345h-131z" />
<glyph unicode="n" horiz-adv-x="586" d="M81 0v500h110l21 -45q43 32 74.5 43.5t73.5 11.5q67 0 106 -44.5t39 -131.5v-334h-132v299q0 41 -16 66.5t-49 25.5q-41 0 -96 -46v-345h-131z" />
<glyph unicode="o" horiz-adv-x="527" d="M32 250q0 121 58 190.5t167 69.5t173 -70.5t64 -189.5q0 -121 -61 -189t-176 -68q-109 0 -167 68t-58 189zM163 251q0 -151 101 -151q54 0 75.5 38.5t21.5 112.5q0 153 -98 153q-100 0 -100 -153z" />
<glyph unicode="p" horiz-adv-x="546" d="M81 -237v737h99l24 -53q37 31 67.5 47t68.5 16q83 0 126.5 -69t43.5 -190q0 -127 -56 -192.5t-132 -65.5q-55 0 -111 48v-278h-130zM211 163q32 -52 84 -52q43 0 61.5 34t18.5 104t-20 108t-50 38q-43 0 -94 -49v-183z" />
<glyph unicode="q" horiz-adv-x="542" d="M32 237q0 124 46.5 198.5t146.5 74.5q56 0 111 -57l26 47h99v-736h-130v282q-1 -1 -11 -10t-18 -14.5t-22 -13t-32.5 -11.5t-40.5 -4q-75 0 -125 59t-50 185zM162 255q0 -31 3 -54.5t11.5 -46t26.5 -34.5t44 -12q25 0 48 13.5t36 36.5v191q-14 18 -43.5 32t-56.5 14 q-36 0 -52.5 -33t-16.5 -107z" />
<glyph unicode="r" horiz-adv-x="391" d="M81 0v500h104l12 -49q40 32 67 45.5t60 13.5q8 0 15 -0.5t12 -1.5t9 -2t6 -2h2l-12 -119q-18 6 -49 6q-42 0 -95 -59v-332h-131z" />
<glyph unicode="s" horiz-adv-x="444" d="M44 37l28 96q67 -34 133 -34q75 0 75 52q0 27 -23.5 44t-57 26.5t-67 22t-57 41t-23.5 73.5q0 73 45 112.5t126 39.5q80 0 152 -28l-21 -104q-66 27 -129 27q-44 0 -44 -30q0 -16 17 -28t42 -18.5t55 -18.5t55 -27.5t42 -45.5t17 -72q0 -79 -53 -125t-147 -46 q-92 0 -165 43z" />
<glyph unicode="t" horiz-adv-x="346" d="M25 390v110h52v143h129v-143h105v-110h-106v-218q0 -67 41 -67q23 0 49 6l21 -104q-46 -13 -84 -13q-65 0 -110.5 26.5t-45.5 87.5v282h-51z" />
<glyph unicode="u" horiz-adv-x="576" d="M71 169v331h132v-306q0 -41 16 -66.5t49 -25.5q41 0 96 46v352h131v-500h-110l-21 48q-43 -32 -74.5 -43t-73.5 -11q-67 0 -106 44t-39 131z" />
<glyph unicode="v" horiz-adv-x="465" d="M1 500h135l97 -370l98 370h133l-159 -500h-146z" />
<glyph unicode="w" horiz-adv-x="689" d="M1 500h128l71 -371l83 371h124l84 -375l69 375h128l-124 -500h-143l-76 335l-77 -335h-141z" />
<glyph unicode="x" horiz-adv-x="456" d="M14 0l146 255l-140 245h133l75 -136l75 136h133l-140 -245l146 -255h-133l-81 158l-81 -158h-133z" />
<glyph unicode="y" horiz-adv-x="455" d="M1 500h130l97 -345l98 345h128l-167 -500q-31 -92 -78 -147t-118 -89l-48 92q40 17 75 51.5t47 82.5z" />
<glyph unicode="z" horiz-adv-x="421" d="M39 0v100l192 295h-192v105h327v-100l-193 -295h205v-105h-339z" />
<glyph unicode="{" horiz-adv-x="356" d="M20 248v106q44 0 60.5 23.5t16.5 73.5v150q0 200 208 200h31v-104h-30q-47 0 -63.5 -23t-16.5 -83v-153q0 -69 -14 -95t-62 -39q44 -9 60 -39t16 -93v-151q0 -70 18 -94t65 -24h27v-104h-33q-99 0 -152.5 45t-53.5 151v150q0 103 -77 103z" />
<glyph unicode="|" horiz-adv-x="291" d="M88 -203v1003h115v-1003h-115z" />
<glyph unicode="}" horiz-adv-x="356" d="M20 -97h30q47 0 63.5 23t16.5 83v153q0 69 14 95t62 39q-44 9 -60 39t-16 93v151q0 70 -18 94t-65 24h-27v104h33q99 0 152.5 -45t53.5 -151v-150q0 -103 77 -103v-106q-44 0 -60.5 -23.5t-16.5 -73.5v-150q0 -200 -208 -200h-31v104z" />
<glyph unicode="~" horiz-adv-x="527" d="M44 303q21 31 55 52t72 21q46 0 100 -30t90 -30t77 36l55 -69q-21 -39 -57.5 -60.5t-79.5 -21.5q-46 0 -100 29.5t-90 29.5t-77 -39z" />
<glyph unicode="&#xa1;" horiz-adv-x="266" d="M73 -106v510h130v-510h-130zM73 469v125h130v-125h-130z" />
<glyph unicode="&#xa2;" horiz-adv-x="381" d="M24 306q0 170 114 203v97h105v-96q47 0 106 -19l-31 -100q-39 13 -83 13q-53 0 -74.5 -22t-21.5 -76q0 -57 19.5 -82.5t68.5 -25.5q41 0 98 15l23 -103q-56 -18 -105 -18v-92h-105v94q-114 36 -114 212z" />
<glyph unicode="&#xa3;" horiz-adv-x="540" d="M40 305v110h68v181q0 61 44.5 88t108.5 27q44 0 104 -19l-21 -109q-30 11 -69 11q-19 0 -30.5 -18t-11.5 -52v-109h157v-110h-157v-190h262v-115h-387v305h-68z" />
<glyph unicode="&#xa4;" horiz-adv-x="608" d="M35 469l93 93l54 -54q43 21 116 21q78 0 128 -28l63 63l86 -86l-66 -66q25 -46 25 -118q0 -66 -23 -117l62 -62l-93 -93l-60 59q-46 -20 -118 -20q-76 0 -121 24l-55 -55l-85 86l58 58q-23 51 -23 120q0 64 18 115zM196 291q0 -54 29 -89.5t76 -35.5q54 0 83.5 33 t29.5 92t-30 96t-84 37q-51 0 -77.5 -37.5t-26.5 -95.5z" />
<glyph unicode="&#xa5;" horiz-adv-x="610" d="M22 700h153l127 -274l135 274h151l-201 -379h159v-105h-173v-47h173v-105h-173v-64h-145v64h-151v105h151v47h-151v105h138z" />
<glyph unicode="&#xa6;" horiz-adv-x="291" d="M88 201h115v-404h-115v404zM88 413v387h115v-387h-115z" />
<glyph unicode="&#xa7;" horiz-adv-x="604" d="M56 312q0 85 109 165q-27 37 -27 85q0 76 48 112t147 36q36 0 74 -7t58 -13l20 -7l-17 -102q-67 24 -137 24q-18 0 -32.5 -11.5t-14.5 -34.5q0 -30 26.5 -56t65 -47t76.5 -44.5t65 -61t27 -84.5t-19 -79t-67 -70q52 -46 52 -118q0 -68 -61 -112t-169 -44q-41 0 -91 13 t-81 30l29 105q74 -43 152 -43q76 0 76 54q0 40 -31.5 69.5t-77 49t-91 41t-77.5 59.5t-32 91zM201 312q0 -26 26.5 -43.5t75.5 -34.5t70 -29q2 2 5.5 6t5 5.5t4.5 5.5t4 6.5t2.5 6.5t2.5 8t1.5 9.5t0.5 11.5q0 30 -20.5 49.5t-68.5 41t-64 31.5q-45 -38 -45 -74z" />
<glyph unicode="&#xa8;" horiz-adv-x="513" d="M78 694v131h121v-131h-121zM297 694v131h121v-131h-121z" />
<glyph unicode="&#xa9;" horiz-adv-x="551" d="M46 254q0 129 56 202t166 73t173 -74t63 -201q0 -126 -61 -199.5t-171 -73.5t-168 73t-58 200zM131 251q0 -88 38.5 -144t101.5 -56q72 0 110 53t38 147q0 93 -39.5 150.5t-109.5 57.5t-104.5 -57t-34.5 -151zM151 256q0 68 33.5 104t99.5 36q14 0 27.5 -2t21.5 -4.5 t20.5 -6.5t15.5 -5l-26 -65q-19 9 -52 9q-28 0 -38.5 -14t-10.5 -49q0 -77 48 -77q32 0 61 10l15 -69q-47 -14 -85 -14q-65 0 -97.5 39t-32.5 108z" />
<glyph unicode="&#xaa;" horiz-adv-x="363" d="M37 453q0 107 143 107l26 -1q0 41 -8.5 52t-37.5 11q-56 0 -98 -14l-9 74q57 18 119 18q133 0 133 -112v-227h-78l-16 18q-34 -21 -70 -21q-49 0 -76.5 26t-27.5 69zM39 234v84h269v-84h-269zM136 456q0 -21 16 -21q25 0 51 15v35h-33q-20 0 -27 -6.5t-7 -22.5z" />
<glyph unicode="&#xab;" horiz-adv-x="511" d="M39 296l139 226l95 -43l-98 -181l98 -183l-96 -43zM234 296l129 216l95 -43l-88 -171l88 -173l-96 -43z" />
<glyph unicode="&#xac;" horiz-adv-x="518" d="M18 249v105h469v-229h-125v124h-344z" />
<glyph unicode="&#xad;" horiz-adv-x="400" d="M0 237v105h400v-105h-400z" />
<glyph unicode="&#xae;" horiz-adv-x="551" d="M56 437q0 129 53.5 202t158.5 73q106 0 166 -74t60 -201q0 -126 -58.5 -199.5t-163.5 -73.5t-160.5 73t-55.5 200zM141 434q0 -88 36 -144t94 -56q68 0 105.5 53.5t37.5 146.5q0 92 -39 150t-105 58q-65 0 -97 -57t-32 -151zM186 305v279h86q95 0 95 -72q0 -23 -11.5 -43 t-26.5 -22q16 -5 23 -13.5t15 -34.5l14 -94h-66l-14 79q-7 42 -28 42h-12v-121h-75zM261 485h11q25 0 25 27q0 16 -24 16h-12v-43z" />
<glyph unicode="&#xaf;" horiz-adv-x="497" d="M68 594v105h357v-105h-357z" />
<glyph unicode="&#xb0;" horiz-adv-x="452" d="M58 610q0 69 49 117.5t118 48.5q70 0 118.5 -48t48.5 -118q0 -69 -49 -117.5t-118 -48.5q-70 0 -118.5 48t-48.5 118zM147 612q0 -34 22.5 -57.5t54.5 -23.5t54.5 23.5t22.5 57.5q0 33 -22.5 56.5t-54.5 23.5t-54.5 -23.5t-22.5 -56.5z" />
<glyph unicode="&#xb1;" d="M36 -1v105h432v-105h-432zM36 337v105h154v180h115v-180h163v-105h-163v-173h-115v173h-154z" />
<glyph unicode="&#xb2;" horiz-adv-x="436" d="M91 323v62q56 51 81 75.5t44.5 52.5t19.5 50q0 26 -41 26q-21 0 -44 -3.5t-35 -7.5l-13 -3l7 70q54 17 106 17q58 0 88 -21.5t30 -57.5q0 -44 -24 -84.5t-84 -98.5h124l-9 -77h-250z" />
<glyph unicode="&#xb3;" horiz-adv-x="425" d="M86 347l15 73q33 -22 82 -22q64 0 64 31q0 23 -67 23h-49v73h51q56 0 56 32q0 16 -10.5 21.5t-39.5 5.5q-20 0 -40 -7t-30 -13l-11 -7l-12 76q46 29 100 29q66 0 98.5 -25t32.5 -68q0 -27 -14 -46.5t-36 -24.5q27 -4 44.5 -24.5t17.5 -49.5q0 -50 -39 -78t-108 -28 q-28 0 -54.5 7t-38.5 15z" />
<glyph unicode="&#xb4;" horiz-adv-x="404" d="M91 599l103 137l115 -46l-130 -123z" />
<glyph unicode="&#xb6;" horiz-adv-x="599" d="M50 531q0 73 53.5 126t165.5 53h285v-110h-65v-803h-105v803h-56v-803h-105v561q-78 0 -125.5 50t-47.5 123z" />
<glyph unicode="&#xb7;" horiz-adv-x="181" d="M33 231v136h115v-136h-115z" />
<glyph unicode="&#xb8;" horiz-adv-x="377" d="M140 -146q26 53 33.5 77.5t7.5 68.5h111q0 -48 -11.5 -80t-51.5 -97z" />
<glyph unicode="&#xb9;" horiz-adv-x="378" d="M33 599l103 63h90v-268h70v-78h-230v78h70v176l-73 -47z" />
<glyph unicode="&#xba;" horiz-adv-x="370" d="M41 527q0 73 34.5 123t105.5 50q143 0 143 -173q0 -169 -145 -169q-70 0 -104 45.5t-34 123.5zM52 234v84h259v-84h-259zM141 528q0 -90 40 -90q43 0 43 90q0 92 -42 92q-20 0 -30.5 -26t-10.5 -66z" />
<glyph unicode="&#xbb;" horiz-adv-x="511" d="M52 125l88 173l-88 171l95 43l129 -216l-128 -214zM237 115l98 183l-98 181l95 43l139 -226l-138 -224z" />
<glyph unicode="&#xbc;" horiz-adv-x="884" d="M33 599l103 63h90v-268h70v-78h-230v78h70v176l-73 -47zM150 0l388 688h138l-388 -688h-138zM489 51v71l120 224h99l-115 -215h79v105h91v-106h48v-79h-48v-51h-91v51h-183z" />
<glyph unicode="&#xbd;" horiz-adv-x="816" d="M33 599l103 63h90v-268h70v-78h-230v78h70v176l-73 -47zM150 0l388 688h138l-388 -688h-138zM513 0v62q56 51 81 75.5t44.5 52.5t19.5 50q0 26 -41 26q-21 0 -44 -3.5t-35 -6.5l-13 -4l7 70q54 17 106 17q58 0 88 -21.5t30 -57.5q0 -44 -24 -84.5t-84 -98.5h124l-9 -77 h-250z" />
<glyph unicode="&#xbe;" horiz-adv-x="886" d="M72 347l15 73q33 -22 82 -22q64 0 64 31q0 23 -67 23h-49v73h51q56 0 56 32q0 16 -10.5 21.5t-39.5 5.5q-20 0 -40 -7t-30 -13l-11 -7l-12 76q46 29 100 29q66 0 98.5 -25t32.5 -68q0 -27 -14 -46.5t-36 -24.5q27 -4 44.5 -24.5t17.5 -49.5q0 -50 -39 -78t-108 -28 q-28 0 -54.5 7t-38.5 15zM150 0l388 688h138l-388 -688h-138zM489 51v71l120 224h99l-115 -215h79v105h91v-106h48v-79h-48v-51h-91v51h-183z" />
<glyph unicode="&#xbf;" horiz-adv-x="463" d="M55 59q0 46 15 82t36.5 58.5t43 43t36.5 47.5t15 61v63h124v-58q0 -46 -15 -82t-36.5 -59t-42.5 -43.5t-36 -46.5t-15 -58q0 -53 71 -53q65 0 121 19l21 -108q-86 -27 -155 -27q-85 0 -134 43.5t-49 117.5zM202 470v138h125v-138h-125z" />
<glyph unicode="&#xc0;" horiz-adv-x="579" d="M-7 0l210 700h171l212 -700h-144l-50 171h-211l-49 -171h-139zM129 877h134l75 -124h-111zM210 286h155l-77 288z" />
<glyph unicode="&#xc1;" horiz-adv-x="579" d="M-7 0l210 700h171l212 -700h-144l-50 171h-211l-49 -171h-139zM210 286h155l-77 288zM229 752l75 124h134l-98 -124h-111z" />
<glyph unicode="&#xc2;" horiz-adv-x="579" d="M-7 0l210 700h171l212 -700h-144l-50 171h-211l-49 -171h-139zM120 800l128 90h87l126 -90l-44 -64l-126 65l-127 -65zM210 286h155l-77 288z" />
<glyph unicode="&#xc3;" horiz-adv-x="579" d="M-7 0l210 700h171l212 -700h-144l-50 171h-211l-49 -171h-139zM91 803q8 10 20.5 24t44.5 37.5t54 23.5q26 0 88 -31q40 -20 50 -20q11 0 26 10.5t25 20.5l10 10l63 -47q-1 -5 -21 -26.5t-50.5 -43.5t-52.5 -22q-25 0 -87 31q-42 20 -51 20q-11 0 -26.5 -11t-25.5 -21 l-10 -11zM210 286h155l-77 288z" />
<glyph unicode="&#xc4;" horiz-adv-x="579" d="M-7 0l210 700h171l212 -700h-144l-50 171h-211l-49 -171h-139zM120 740v131h121v-131h-121zM210 286h155l-77 288zM339 740v131h121v-131h-121z" />
<glyph unicode="&#xc5;" horiz-adv-x="579" d="M-7 0l210 700h171l212 -700h-144l-50 171h-211l-49 -171h-139zM168 863q0 48 30.5 78.5t90.5 30.5t91.5 -30.5t31.5 -78.5q0 -52 -30 -81.5t-92 -29.5t-92 29.5t-30 81.5zM210 286h155l-77 288zM254 863q0 -40 36 -40q38 0 38 40t-38 40q-36 0 -36 -40z" />
<glyph unicode="&#xc6;" horiz-adv-x="852" d="M-7 0l298 700h90h416h1v-115h-1h-271v-147h246h1v-117h-1h-246v-206h271h1v-115h-1h-407h-9v171h-176l-73 -171h-139zM250 286h131v298h-1z" />
<glyph unicode="&#xc7;" horiz-adv-x="584" d="M30 353q0 164 86.5 260t240.5 96q84 0 167 -29l-28 -112q-61 26 -144 26t-130 -63t-47 -167q0 -118 44 -186.5t124 -68.5q60 0 171 39l30 -102q-68 -39 -145 -48q-1 -47 -12.5 -79t-50.5 -96l-89 31q26 53 33.5 77t7.5 67q-125 18 -191.5 111.5t-66.5 243.5z" />
<glyph unicode="&#xc8;" horiz-adv-x="542" d="M71 0v700h417v-115h-272v-147h247v-117h-247v-206h272v-115h-417zM146 877h134l75 -124h-111z" />
<glyph unicode="&#xc9;" horiz-adv-x="542" d="M71 0v700h417v-115h-272v-147h247v-117h-247v-206h272v-115h-417zM190 752l75 124h134l-98 -124h-111z" />
<glyph unicode="&#xca;" horiz-adv-x="542" d="M71 0v700h417v-115h-272v-147h247v-117h-247v-206h272v-115h-417zM110 800l128 90h87l126 -90l-44 -64l-126 65l-127 -65z" />
<glyph unicode="&#xcb;" horiz-adv-x="542" d="M71 0v700h417v-115h-272v-147h247v-117h-247v-206h272v-115h-417zM106 740v131h121v-131h-121zM325 740v131h121v-131h-121z" />
<glyph unicode="&#xcc;" horiz-adv-x="257" d="M-24 877h134l75 -124h-111zM56 0v700h145v-700h-145z" />
<glyph unicode="&#xcd;" horiz-adv-x="257" d="M56 0v700h145v-700h-145zM73 753l75 124h134l-98 -124h-111z" />
<glyph unicode="&#xce;" horiz-adv-x="257" d="M-41 803l128 90h87l126 -90l-44 -64l-126 65l-127 -65zM56 0v700h145v-700h-145z" />
<glyph unicode="&#xcf;" horiz-adv-x="257" d="M-41 740v131h121v-131h-121zM56 0v700h145v-700h-145zM178 740v131h121v-131h-121z" />
<glyph unicode="&#xd0;" horiz-adv-x="676" d="M16 297v105h84v298h217q149 0 239 -91t90 -234q0 -169 -98 -272t-262 -103h-186v297h-84zM241 115h54q84 0 142 71.5t58 196.5q0 94 -51 148t-123 54h-80v-183h155v-105h-155v-182z" />
<glyph unicode="&#xd1;" horiz-adv-x="679" d="M71 0v700h148l244 -452v452h145v-701h-152l-237 431v-430h-148zM138 806q8 10 20.5 24t44.5 37.5t54 23.5q26 0 88 -31q40 -20 50 -20q11 0 26 10t25 20l10 11l63 -47q-1 -5 -21 -26.5t-50.5 -43.5t-52.5 -22q-25 0 -87 31q-42 20 -51 20q-11 0 -26.5 -10.5t-25.5 -21.5 l-10 -11z" />
<glyph unicode="&#xd2;" horiz-adv-x="648" d="M26 355q0 157 75.5 256t221.5 99q147 0 223 -99t76 -256q0 -101 -31 -180.5t-100 -129.5t-168 -50q-147 0 -222 101.5t-75 258.5zM152 877h134l75 -124h-111zM172 355q0 -105 39 -174.5t113 -69.5q77 0 115 70.5t38 178.5q0 95 -40.5 165t-111.5 70q-53 0 -89 -36.5 t-50 -88.5t-14 -115z" />
<glyph unicode="&#xd3;" horiz-adv-x="648" d="M26 355q0 157 75.5 256t221.5 99q147 0 223 -99t76 -256q0 -101 -31 -180.5t-100 -129.5t-168 -50q-147 0 -222 101.5t-75 258.5zM172 355q0 -105 39 -174.5t113 -69.5q77 0 115 70.5t38 178.5q0 95 -40.5 165t-111.5 70q-53 0 -89 -36.5t-50 -88.5t-14 -115zM251 753 l75 124h134l-98 -124h-111z" />
<glyph unicode="&#xd4;" horiz-adv-x="648" d="M26 355q0 157 75.5 256t221.5 99q147 0 223 -99t76 -256q0 -101 -31 -180.5t-100 -129.5t-168 -50q-147 0 -222 101.5t-75 258.5zM153 803l128 90h87l126 -90l-44 -64l-126 65l-127 -65zM172 355q0 -105 39 -174.5t113 -69.5q77 0 115 70.5t38 178.5q0 95 -40.5 165 t-111.5 70q-53 0 -89 -36.5t-50 -88.5t-14 -115z" />
<glyph unicode="&#xd5;" horiz-adv-x="648" d="M26 355q0 157 75.5 256t221.5 99q147 0 223 -99t76 -256q0 -101 -31 -180.5t-100 -129.5t-168 -50q-147 0 -222 101.5t-75 258.5zM142 800q8 10 20.5 24t44.5 37.5t54 23.5q26 0 88 -31q40 -20 50 -20q11 0 26 10t25 20l10 11l63 -47q-1 -5 -21 -26.5t-50.5 -43.5 t-52.5 -22q-25 0 -87 31q-42 20 -51 20q-11 0 -26.5 -10.5t-25.5 -21.5l-10 -11zM172 355q0 -105 39 -174.5t113 -69.5q77 0 115 70.5t38 178.5q0 95 -40.5 165t-111.5 70q-53 0 -89 -36.5t-50 -88.5t-14 -115z" />
<glyph unicode="&#xd6;" horiz-adv-x="648" d="M26 355q0 157 75.5 256t221.5 99q147 0 223 -99t76 -256q0 -101 -31 -180.5t-100 -129.5t-168 -50q-147 0 -222 101.5t-75 258.5zM154 739v131h121v-131h-121zM172 355q0 -105 39 -174.5t113 -69.5q77 0 115 70.5t38 178.5q0 95 -40.5 165t-111.5 70q-53 0 -89 -36.5 t-50 -88.5t-14 -115zM373 739v131h121v-131h-121z" />
<glyph unicode="&#xd7;" horiz-adv-x="608" d="M55 454l88 88l164 -165l167 167l81 -81l-167 -167l165 -166l-88 -88l-165 166l-159 -158l-80 81l158 158z" />
<glyph unicode="&#xd8;" horiz-adv-x="648" d="M26 355q0 157 75.5 256t221.5 99q39 0 77 -8l36 98h109l-52 -140q64 -45 96.5 -124.5t32.5 -180.5t-31 -180.5t-100 -129.5t-168 -50q-33 0 -72 7l-41 -111h-108l55 151q-65 46 -98 128t-33 185zM168 355q0 -114 42 -181l153 419q-18 6 -38 6q-55 0 -91.5 -37t-51 -90 t-14.5 -117zM287 112q14 -5 37 -5q53 0 89.5 36t52 91t15.5 126q0 99 -41 167z" />
<glyph unicode="&#xd9;" horiz-adv-x="664" d="M71 258v442h146v-454q0 -66 29.5 -101.5t85.5 -35.5q54 0 84.5 35.5t30.5 101.5v454h146v-442q0 -131 -67 -197.5t-194 -66.5t-194 66.5t-67 197.5zM183 878h134l75 -124h-111z" />
<glyph unicode="&#xda;" horiz-adv-x="664" d="M71 258v442h146v-454q0 -66 29.5 -101.5t85.5 -35.5q54 0 84.5 35.5t30.5 101.5v454h146v-442q0 -131 -67 -197.5t-194 -66.5t-194 66.5t-67 197.5zM273 753l75 124h134l-98 -124h-111z" />
<glyph unicode="&#xdb;" horiz-adv-x="664" d="M71 258v442h146v-454q0 -66 29.5 -101.5t85.5 -35.5q54 0 84.5 35.5t30.5 101.5v454h146v-442q0 -131 -67 -197.5t-194 -66.5t-194 66.5t-67 197.5zM162 803l128 90h87l126 -90l-44 -64l-126 65l-127 -65z" />
<glyph unicode="&#xdc;" horiz-adv-x="664" d="M71 258v442h146v-454q0 -66 29.5 -101.5t85.5 -35.5q54 0 84.5 35.5t30.5 101.5v454h146v-442q0 -131 -67 -197.5t-194 -66.5t-194 66.5t-67 197.5zM163 739v131h121v-131h-121zM382 739v131h121v-131h-121z" />
<glyph unicode="&#xdd;" horiz-adv-x="552" d="M-7 700h153l127 -274l135 274h151l-215 -405v-295h-145v295zM206 753l75 124h134l-98 -124h-111z" />
<glyph unicode="&#xde;" horiz-adv-x="546" d="M69 0v700h145v-110h75q123 -1 178 -53.5t55 -160.5q0 -111 -67.5 -164t-188.5 -53h-52v-159h-145zM214 273h36q65 0 96 22.5t31 78.5q0 53 -29 77.5t-93 24.5h-41v-203z" />
<glyph unicode="&#xdf;" horiz-adv-x="568" d="M71 0v532q0 92 50.5 135t161.5 43q108 0 165.5 -52t57.5 -127q0 -133 -103 -149q57 -9 94 -58.5t37 -125.5q0 -99 -67.5 -151.5t-192.5 -52.5q-17 0 -32 5v103q157 0 157 107q0 42 -30.5 75.5t-86.5 33.5h-28v114h27q34 0 62 28t28 68q0 34 -20 55.5t-55 21.5 q-62 0 -81 -26t-19 -81v-498h-125z" />
<glyph unicode="&#xe0;" d="M40 154q0 76 58 118.5t175 42.5h41q0 43 -20.5 69t-62.5 26q-73 0 -148 -20l-22 88q99 32 199 32q182 0 182 -170v-340h-96l-20 50q-35 -32 -62 -44.5t-65 -12.5q-64 0 -111.5 44.5t-47.5 116.5zM131 690l115 46l103 -137l-88 -32zM173 159q0 -27 15 -45t39 -18 q34 0 85 54v69h-43q-56 0 -76 -15t-20 -45z" />
<glyph unicode="&#xe1;" d="M40 154q0 76 58 118.5t175 42.5h41q0 43 -20.5 69t-62.5 26q-73 0 -148 -20l-22 88q99 32 199 32q182 0 182 -170v-340h-96l-20 50q-35 -32 -62 -44.5t-65 -12.5q-64 0 -111.5 44.5t-47.5 116.5zM173 159q0 -27 15 -45t39 -18q34 0 85 54v69h-43q-56 0 -76 -15t-20 -45z M209 599l103 137l115 -46l-130 -123z" />
<glyph unicode="&#xe2;" d="M40 154q0 76 58 118.5t175 42.5h41q0 43 -20.5 69t-62.5 26q-73 0 -148 -20l-22 88q99 32 199 32q182 0 182 -170v-340h-96l-20 50q-35 -32 -62 -44.5t-65 -12.5q-64 0 -111.5 44.5t-47.5 116.5zM91 632l128 90h87l126 -90l-44 -64l-126 65l-127 -65zM173 159 q0 -27 15 -45t39 -18q34 0 85 54v69h-43q-56 0 -76 -15t-20 -45z" />
<glyph unicode="&#xe3;" d="M40 154q0 76 58 118.5t175 42.5h41q0 43 -20.5 69t-62.5 26q-73 0 -148 -20l-22 88q99 32 199 32q182 0 182 -170v-340h-96l-20 50q-35 -32 -62 -44.5t-65 -12.5q-64 0 -111.5 44.5t-47.5 116.5zM74 633q8 10 20.5 24t44.5 37.5t54 23.5q26 0 88 -31q40 -20 50 -20 q11 0 26 10.5t25 20.5l10 10l63 -47q-1 -5 -21 -26.5t-50.5 -43.5t-52.5 -22q-25 0 -87 31q-42 20 -51 20q-11 0 -26.5 -11t-25.5 -21l-10 -11zM173 159q0 -27 15 -45t39 -18q34 0 85 54v69h-43q-56 0 -76 -15t-20 -45z" />
<glyph unicode="&#xe4;" d="M40 154q0 76 58 118.5t175 42.5h41q0 43 -20.5 69t-62.5 26q-73 0 -148 -20l-22 88q99 32 199 32q182 0 182 -170v-340h-96l-20 50q-35 -32 -62 -44.5t-65 -12.5q-64 0 -111.5 44.5t-47.5 116.5zM93 579v131h121v-131h-121zM173 159q0 -27 15 -45t39 -18q34 0 85 54v69 h-43q-56 0 -76 -15t-20 -45zM312 579v131h121v-131h-121z" />
<glyph unicode="&#xe5;" d="M40 154q0 76 58 118.5t175 42.5h41q0 43 -20.5 69t-62.5 26q-73 0 -148 -20l-22 88q99 32 199 32q182 0 182 -170v-340h-96l-20 50q-35 -32 -62 -44.5t-65 -12.5q-64 0 -111.5 44.5t-47.5 116.5zM142 663q0 48 30.5 78.5t90.5 30.5t91.5 -30.5t31.5 -78.5 q0 -52 -30 -81.5t-92 -29.5t-92 29.5t-30 81.5zM173 159q0 -27 15 -45t39 -18q34 0 85 54v69h-43q-56 0 -76 -15t-20 -45zM228 663q0 -40 36 -40q38 0 38 40t-38 40q-36 0 -36 -40z" />
<glyph unicode="&#xe6;" horiz-adv-x="778" d="M40 154q0 76 63.5 118.5t191.5 42.5h31q0 95 -65 95q-24 0 -55 -3.5t-64 -10.5t-59 -16l-22 88q96 42 195 42q102 0 147 -45q52 45 137 45t136.5 -56t51.5 -166q0 -44 -4 -77h-269q0 -59 29.5 -87t78.5 -28q50 0 133 24l22 -89q-90 -37 -166 -37q-116 0 -172 66 q-80 -67 -181 -67q-64 0 -111.5 44.5t-47.5 116.5zM173 159q0 -18 7 -32.5t19 -22.5t28 -8q40 0 97 54v69h-33q-68 0 -93 -15t-25 -45zM454 303h149v7q0 46 -17.5 74t-55.5 28q-26 0 -43.5 -16t-24.5 -39.5t-8 -53.5z" />
<glyph unicode="&#xe7;" horiz-adv-x="433" d="M35 250q0 123 57 191.5t166 68.5q64 0 146 -24l-47 -91q-55 17 -96 17q-31 0 -51.5 -14t-29.5 -40t-12 -49t-3 -55q0 -88 31 -123t95 -35q54 0 100 13l16 -90q-63 -19 -95 -22q-1 -47 -12.5 -78.5t-50.5 -95.5l-89 31q26 53 33.5 77.5t7.5 68.5q-88 17 -127 79.5 t-39 170.5z" />
<glyph unicode="&#xe8;" horiz-adv-x="495" d="M34 248q0 129 57 195.5t166 66.5q90 0 144 -56t54 -166q0 -44 -4 -77h-289q0 -59 32 -87t86 -28t143 24l22 -89q-95 -37 -176 -37q-235 0 -235 254zM108 690l115 46l103 -137l-88 -32zM161 303h169v7q0 46 -20 74t-63 28t-64 -31t-22 -78z" />
<glyph unicode="&#xe9;" horiz-adv-x="495" d="M34 248q0 129 57 195.5t166 66.5q90 0 144 -56t54 -166q0 -44 -4 -77h-289q0 -59 32 -87t86 -28t143 24l22 -89q-95 -37 -176 -37q-235 0 -235 254zM161 303h169v7q0 46 -20 74t-63 28t-64 -31t-22 -78zM198 599l103 137l115 -46l-130 -123z" />
<glyph unicode="&#xea;" horiz-adv-x="495" d="M34 248q0 129 57 195.5t166 66.5q90 0 144 -56t54 -166q0 -44 -4 -77h-289q0 -59 32 -87t86 -28t143 24l22 -89q-95 -37 -176 -37q-235 0 -235 254zM84 632l128 90h87l126 -90l-44 -64l-126 65l-127 -65zM161 303h169v7q0 46 -20 74t-63 28t-64 -31t-22 -78z" />
<glyph unicode="&#xeb;" horiz-adv-x="495" d="M34 248q0 129 57 195.5t166 66.5q90 0 144 -56t54 -166q0 -44 -4 -77h-289q0 -59 32 -87t86 -28t143 24l22 -89q-95 -37 -176 -37q-235 0 -235 254zM91 580v131h121v-131h-121zM161 303h169v7q0 46 -20 74t-63 28t-64 -31t-22 -78zM310 580v131h121v-131h-121z" />
<glyph unicode="&#xec;" horiz-adv-x="284" d="M-29 690l115 46l103 -137l-88 -32zM77 0v500h130v-500h-130z" />
<glyph unicode="&#xed;" horiz-adv-x="284" d="M77 0v500h130v-500h-130zM98 599l103 137l115 -46l-130 -123z" />
<glyph unicode="&#xee;" horiz-adv-x="284" d="M-29 632l128 90h87l126 -90l-44 -64l-126 65l-127 -65zM77 0v500h130v-500h-130z" />
<glyph unicode="&#xef;" horiz-adv-x="284" d="M-28 579v131h121v-131h-121zM77 0v500h130v-500h-130zM191 579v131h121v-131h-121z" />
<glyph unicode="&#xf0;" horiz-adv-x="573" d="M63 254q0 121 59 188.5t176 68.5l-72 72l-89 -50l-64 65l93 53q-47 42 -60 52l92 55l61 -57l92 48l63 -63l-92 -48q104 -108 147 -169q67 -96 67 -215q0 -121 -62.5 -190.5t-175.5 -69.5q-114 0 -174.5 69.5t-60.5 190.5zM200 252q0 -153 97 -153q104 0 104 153 q0 76 -25 113.5t-80 37.5q-54 0 -75 -36.5t-21 -114.5z" />
<glyph unicode="&#xf1;" horiz-adv-x="586" d="M81 0v500h110l21 -45q43 32 74.5 43.5t73.5 11.5q67 0 106 -44.5t39 -131.5v-334h-132v299q0 41 -16 66.5t-49 25.5q-41 0 -96 -46v-345h-131zM88 632q8 10 20.5 24t44.5 37.5t54 23.5q26 0 88 -31q40 -20 50 -20q11 0 26 10t25 20l10 11l63 -47q-1 -5 -21 -26.5 t-50.5 -43.5t-52.5 -22q-25 0 -87 31q-42 20 -51 20q-11 0 -26.5 -10.5t-25.5 -21.5l-10 -11z" />
<glyph unicode="&#xf2;" horiz-adv-x="527" d="M32 250q0 121 58 190.5t167 69.5t173 -70.5t64 -189.5q0 -121 -61 -189t-176 -68q-109 0 -167 68t-58 189zM118 690l115 46l103 -137l-88 -32zM163 251q0 -151 101 -151q54 0 75.5 38.5t21.5 112.5q0 153 -98 153q-100 0 -100 -153z" />
<glyph unicode="&#xf3;" horiz-adv-x="527" d="M32 250q0 121 58 190.5t167 69.5t173 -70.5t64 -189.5q0 -121 -61 -189t-176 -68q-109 0 -167 68t-58 189zM163 251q0 -151 101 -151q54 0 75.5 38.5t21.5 112.5q0 153 -98 153q-100 0 -100 -153zM186 599l103 137l115 -46l-130 -123z" />
<glyph unicode="&#xf4;" horiz-adv-x="527" d="M32 250q0 121 58 190.5t167 69.5t173 -70.5t64 -189.5q0 -121 -61 -189t-176 -68q-109 0 -167 68t-58 189zM88 632l128 90h87l126 -90l-44 -64l-126 65l-127 -65zM163 251q0 -151 101 -151q54 0 75.5 38.5t21.5 112.5q0 153 -98 153q-100 0 -100 -153z" />
<glyph unicode="&#xf5;" horiz-adv-x="527" d="M32 250q0 121 58 190.5t167 69.5t173 -70.5t64 -189.5q0 -121 -61 -189t-176 -68q-109 0 -167 68t-58 189zM77 633q8 10 20.5 24t44.5 37.5t54 23.5q26 0 88 -31q40 -20 50 -20q11 0 26 10.5t25 20.5l10 10l63 -47q-1 -5 -21 -26.5t-50.5 -43.5t-52.5 -22q-25 0 -87 31 q-42 20 -51 20q-11 0 -26.5 -11t-25.5 -21l-10 -11zM163 251q0 -151 101 -151q54 0 75.5 38.5t21.5 112.5q0 153 -98 153q-100 0 -100 -153z" />
<glyph unicode="&#xf6;" horiz-adv-x="527" d="M32 250q0 121 58 190.5t167 69.5t173 -70.5t64 -189.5q0 -121 -61 -189t-176 -68q-109 0 -167 68t-58 189zM96 579v131h121v-131h-121zM163 251q0 -151 101 -151q54 0 75.5 38.5t21.5 112.5q0 153 -98 153q-100 0 -100 -153zM315 579v131h121v-131h-121z" />
<glyph unicode="&#xf7;" horiz-adv-x="524" d="M46 208v105h432v-105h-432zM210 0v136h115v-136h-115zM210 364v136h115v-136h-115z" />
<glyph unicode="&#xf8;" horiz-adv-x="527" d="M22 21l51 62q-41 64 -41 167q0 121 58 190.5t167 69.5q78 0 136 -39l60 74l77 -58l-72 -87q36 -64 36 -150q0 -121 -61 -189t-176 -68q-67 0 -113 25l-50 -61zM159 251q0 -39 5 -62l162 197q-25 22 -63 22q-104 0 -104 -157zM215 107q20 -11 49 -11q56 0 78.5 39.5 t22.5 115.5q0 13 -2 37z" />
<glyph unicode="&#xf9;" horiz-adv-x="576" d="M71 169v331h132v-306q0 -41 16 -66.5t49 -25.5q41 0 96 46v352h131v-500h-110l-21 48q-43 -32 -74.5 -43t-73.5 -11q-67 0 -106 44t-39 131zM148 690l115 46l103 -137l-88 -32z" />
<glyph unicode="&#xfa;" horiz-adv-x="576" d="M71 169v331h132v-306q0 -41 16 -66.5t49 -25.5q41 0 96 46v352h131v-500h-110l-21 48q-43 -32 -74.5 -43t-73.5 -11q-67 0 -106 44t-39 131zM226 599l103 137l115 -46l-130 -123z" />
<glyph unicode="&#xfb;" horiz-adv-x="576" d="M71 169v331h132v-306q0 -41 16 -66.5t49 -25.5q41 0 96 46v352h131v-500h-110l-21 48q-43 -32 -74.5 -43t-73.5 -11q-67 0 -106 44t-39 131zM116 632l128 90h87l126 -90l-44 -64l-126 65l-127 -65z" />
<glyph unicode="&#xfc;" horiz-adv-x="576" d="M71 169v331h132v-306q0 -41 16 -66.5t49 -25.5q41 0 96 46v352h131v-500h-110l-21 48q-43 -32 -74.5 -43t-73.5 -11q-67 0 -106 44t-39 131zM116 579v131h121v-131h-121zM335 579v131h121v-131h-121z" />
<glyph unicode="&#xfd;" horiz-adv-x="455" d="M1 500h130l97 -345l98 345h128l-167 -500q-31 -92 -78 -147t-118 -89l-48 92q40 17 75 51.5t47 82.5zM138 599l103 137l115 -46l-130 -123z" />
<glyph unicode="&#xfe;" horiz-adv-x="530" d="M71 -236v936h130v-236q77 46 133 46q73 0 116.5 -65.5t43.5 -186.5q0 -126 -50 -192t-129 -66q-61 0 -114 34v-270h-130zM201 156q53 -45 87 -45q78 0 78 144q0 139 -74 139q-38 0 -91 -35v-203z" />
<glyph unicode="&#xff;" horiz-adv-x="455" d="M1 500h130l97 -345l98 345h128l-167 -500q-31 -92 -78 -147t-118 -89l-48 92q40 17 75 51.5t47 82.5zM60 581v131h121v-131h-121zM279 581v131h121v-131h-121z" />
<glyph unicode="&#x152;" horiz-adv-x="873" d="M26 355q0 156 75 250.5t222 94.5h496v-116h-272v-146h247v-117h-247v-200h272v-121l-496 1q-147 0 -222 99t-75 255zM172 355q0 -103 39 -169t113 -66h77v464h-76q-78 0 -115.5 -65.5t-37.5 -163.5z" />
<glyph unicode="&#x153;" horiz-adv-x="861" d="M37 250q0 121 56 190.5t159 69.5q96 0 155 -59q54 59 152 59q85 0 136.5 -56t51.5 -166q0 -44 -4 -77h-269q0 -59 29.5 -87t78.5 -28q50 0 133 24l22 -89q-90 -37 -166 -37q-106 0 -162 55q-58 -56 -157 -56q-104 0 -159.5 68t-55.5 189zM168 251q0 -151 91 -151 q48 0 67.5 38.5t19.5 112.5q0 153 -88 153q-90 0 -90 -153zM473 303h149v7q0 102 -73 102q-38 0 -56.5 -31t-19.5 -78z" />
<glyph unicode="&#x178;" horiz-adv-x="552" d="M-7 700h153l127 -274l135 274h151l-215 -405v-295h-145v295zM104 801v131h121v-131h-121zM323 801v131h121v-131h-121z" />
<glyph unicode="&#x2c6;" horiz-adv-x="491" d="M75 740l128 90h87l126 -90l-44 -64l-126 65l-127 -65z" />
<glyph unicode="&#x2dc;" horiz-adv-x="516" d="M78 736q8 10 20.5 24t44.5 37.5t54 23.5q26 0 88 -31q40 -20 50 -20q11 0 26 10t25 20l10 11l63 -47q-1 -5 -21 -26.5t-50.5 -43.5t-52.5 -22q-25 0 -87 31q-42 20 -51 20q-11 0 -26.5 -10.5t-25.5 -21.5l-10 -11z" />
<glyph unicode="&#x2000;" horiz-adv-x="486" />
<glyph unicode="&#x2001;" horiz-adv-x="972" />
<glyph unicode="&#x2002;" horiz-adv-x="486" />
<glyph unicode="&#x2003;" horiz-adv-x="972" />
<glyph unicode="&#x2004;" horiz-adv-x="324" />
<glyph unicode="&#x2005;" horiz-adv-x="243" />
<glyph unicode="&#x2006;" horiz-adv-x="162" />
<glyph unicode="&#x2007;" horiz-adv-x="162" />
<glyph unicode="&#x2008;" horiz-adv-x="121" />
<glyph unicode="&#x2009;" horiz-adv-x="194" />
<glyph unicode="&#x200a;" horiz-adv-x="54" />
<glyph unicode="&#x2010;" horiz-adv-x="287" d="M28 234v115h231v-115h-231z" />
<glyph unicode="&#x2011;" horiz-adv-x="287" d="M28 234v115h231v-115h-231z" />
<glyph unicode="&#x2012;" horiz-adv-x="287" d="M28 234v115h231v-115h-231z" />
<glyph unicode="&#x2013;" horiz-adv-x="500" d="M0 237v105h500v-105h-500z" />
<glyph unicode="&#x2014;" horiz-adv-x="800" d="M0 237v105h800v-105h-800z" />
<glyph unicode="&#x2018;" horiz-adv-x="268" d="M37 512l114 257l91 -28l-83 -266z" />
<glyph unicode="&#x2019;" horiz-adv-x="267" d="M23 503l83 266l122 -37l-114 -257z" />
<glyph unicode="&#x201a;" horiz-adv-x="268" d="M21 -132l88 254l121 -36l-113 -248z" />
<glyph unicode="&#x201c;" horiz-adv-x="466" d="M37 512l114 257l91 -28l-83 -266zM237 512l114 257l91 -28l-83 -266z" />
<glyph unicode="&#x201d;" horiz-adv-x="465" d="M23 503l83 266l122 -37l-114 -257zM223 503l83 266l122 -37l-114 -257z" />
<glyph unicode="&#x201e;" horiz-adv-x="465" d="M21 -132l88 254l121 -36l-113 -248zM221 -132l88 254l121 -36l-113 -248z" />
<glyph unicode="&#x2022;" horiz-adv-x="470" d="M79 265q0 62 43.5 105.5t105.5 43.5t105.5 -43.5t43.5 -105.5q0 -63 -43.5 -106t-105.5 -43t-105.5 43t-43.5 106z" />
<glyph unicode="&#x2026;" horiz-adv-x="687" d="M34 0v136h115v-136h-115zM286 0v136h115v-136h-115zM538 0v136h115v-136h-115z" />
<glyph unicode="&#x202f;" horiz-adv-x="194" />
<glyph unicode="&#x2039;" horiz-adv-x="330" d="M39 296l139 226l95 -43l-98 -181l98 -183l-96 -43z" />
<glyph unicode="&#x203a;" horiz-adv-x="330" d="M69 115l98 181l-98 183l96 43l138 -224l-139 -226z" />
<glyph unicode="&#x205f;" horiz-adv-x="243" />
<glyph unicode="&#x20ac;" horiz-adv-x="630" d="M21 225v105h57q0 2 -0.5 15.5t-0.5 16.5q0 4 2 14h-58v105h68q27 107 109.5 168t207.5 61q85 0 176 -30l-38 -112q-64 27 -145 27q-63 0 -104.5 -30t-59.5 -84h206v-106h-216q-2 -16 -2 -18q0 -17 1 -27h217v-105h-210q33 -116 160 -116q72 0 171 39l40 -102 q-96 -52 -208 -52q-127 0 -207 62t-103 169h-63z" />
<glyph unicode="&#x2122;" horiz-adv-x="686" d="M38 622v78h243v-78h-76v-204h-95v204h-72zM332 418v282h81l71 -106l74 106h78v-282h-87v128q-9 -12 -28.5 -36.5t-27.5 -36.5h-28l-47 68v-123h-86z" />
<glyph unicode="&#xe000;" horiz-adv-x="500" d="M0 0v500h500v-500h-500z" />
<glyph unicode="&#xfb01;" horiz-adv-x="556" d="M35 393v107h58v76q0 64 36.5 99t92.5 35q79 0 118 -9l-17 -93q-25 5 -43 5q-30 0 -44.5 -13t-14.5 -48v-52h258v-500h-130v393h-128v-393h-129v393h-57z" />
<glyph unicode="&#xfb02;" horiz-adv-x="570" d="M35 393v107h58v76q0 64 36.5 99t92.5 35q72 0 128 -10l129 11v-711h-130v607q-43 6 -59 6q-35 0 -52 -13t-17 -48v-52h82v-107h-82v-393h-129v393h-57z" />
</font>
</defs>
</svg>
