<?xml version="1.0" standalone="no"?>
<!DOCTYPE svg PUBLIC "-//W3C//DTD SVG 1.1//EN" "http://www.w3.org/Graphics/SVG/1.1/DTD/svg11.dtd" >
<svg xmlns="http://www.w3.org/2000/svg">
<metadata></metadata>
<defs>
<font id="bellotalight_italic" horiz-adv-x="1236" >
<font-face units-per-em="2048" ascent="1638" descent="-410" />
<missing-glyph horiz-adv-x="567" />
<glyph unicode="&#xfb01;" horiz-adv-x="1034" d="M-45 -541l209 1495q34 236 117 353q103 139 262 139q146 0 211 -90l-68 -62q-46 72 -145 72q-65 0 -120.5 -36.5t-88.5 -96.5q-54 -87 -82 -277l-6 -45h561l-107 -757v-15q0 -31 15 -49q25 -22 57 -22q40 0 68 28l69 -51q-19 -24 -57 -47q-39 -16 -84 -16q-74 0 -115 53 q-37 43 -37 94q0 19 2 29l95 673h-478l-192 -1372h-86z" />
<glyph unicode="&#xfb02;" horiz-adv-x="1079" d="M-27 -545l211 1495q32 224 115 353q106 139 291 139q128 0 199 -61.5t71 -178.5q0 -23 -2 -35l-141 -1011q-2 -6 -2 -21q0 -25 12 -43q25 -22 59 -22q40 0 68 28l70 -51q-16 -17 -58 -47q-41 -16 -84 -16q-64 0 -108.5 43t-44.5 106q0 17 2 27l141 1011q2 10 2 33 q0 158 -184 158q-129 0 -203 -90q-79 -83 -100 -234l-80 -540h309l-10 -80h-309l-138 -963h-86z" />
<glyph horiz-adv-x="2048" />
<glyph horiz-adv-x="2048" />
<glyph unicode="&#xd;" horiz-adv-x="2048" />
<glyph unicode=" "  horiz-adv-x="567" />
<glyph unicode="&#x09;" horiz-adv-x="567" />
<glyph unicode="&#xa0;" horiz-adv-x="567" />
<glyph unicode="!" horiz-adv-x="354" d="M-84 47q0 35 23 58.5t57 23.5q30 0 48.5 -18.5t18.5 -47.5q0 -35 -23.5 -58t-57.5 -23q-30 0 -48 18t-18 47zM74 293l143 1151h117l-180 -1151h-80z" />
<glyph unicode="&#x22;" horiz-adv-x="614" d="M195 1030l32 373h119l-72 -373h-79zM424 1030l33 373h118l-69 -373h-82z" />
<glyph unicode="#" horiz-adv-x="1204" d="M37 387l12 80h238l61 438h-237l10 80h237l45 320h89l-46 -320h377l45 320h88l-45 -320h240l-10 -80h-240l-61 -438h239l-12 -80h-240l-45 -321h-82l45 321h-383l-45 -321h-84l46 321h-242zM375 467h377l61 438h-377z" />
<glyph unicode="$" horiz-adv-x="1091" d="M2 127l59 74q168 -115 347 -131l88 602q-83 26 -136.5 54.5t-91.5 74.5q-78 78 -78 192q0 9 5 49q20 132 116 215q112 84 277 101l28 182h93l-29 -182q125 -11 221 -53q89 -36 160 -91l-60 -73q-44 32 -127 71q-57 26 -96 38t-106 20l-80 -533q108 -35 163.5 -61.5 t100.5 -69.5q98 -76 98 -207q0 -202 -157 -323q-117 -78 -305 -92l-21 -127h-92l20 125q-240 15 -397 145zM293 1004q0 -81 43 -132q51 -53 170 -104l74 506q-143 -10 -215 -87.5t-72 -182.5zM500 68q136 3 229 73q67 46 96 115t29 133q0 94 -61 152q-66 53 -209 100z" />
<glyph unicode="%" horiz-adv-x="1499" d="M27 745q0 77 26.5 137.5t71 97t97 55t108.5 18.5q106 0 167.5 -59t61.5 -163q0 -76 -27 -137.5t-71.5 -97.5t-97 -55t-107.5 -19q-106 0 -167.5 59t-61.5 164zM113 745q0 -67 39 -108t110 -41q91 0 151 67t60 166q0 67 -39 108.5t-108 41.5q-94 0 -153.5 -69t-59.5 -165z M299 25l588 1015h90l-586 -1015h-92zM725 248q0 77 26.5 137.5t71 96.5t97 54.5t108.5 18.5q106 0 167.5 -58.5t61.5 -162.5q0 -76 -27 -137.5t-71.5 -97.5t-97 -55t-107.5 -19q-106 0 -167.5 59t-61.5 164zM811 248q0 -67 39.5 -108.5t110.5 -41.5q91 0 150.5 67.5 t59.5 166.5q0 67 -39 108t-108 41q-94 0 -153.5 -69t-59.5 -164z" />
<glyph unicode="&#x26;" horiz-adv-x="1288" d="M49 276q0 55 14.5 112t46 119.5t93 119t145.5 94.5q-82 109 -82 221q0 109 54 192t137 123.5t178 40.5q99 0 170.5 -45.5t97.5 -117.5l-67 -48q-51 125 -201 125q-123 0 -191.5 -73t-68.5 -185q0 -43 11.5 -81.5t36 -75t41 -56.5t48.5 -55q69 -69 192.5 -201t174.5 -188 q120 156 149 354l8 68h82l-10 -76q-31 -225 -170 -403l162 -174l-66 -64l-160 170q-89 -93 -209 -141.5t-249 -48.5q-60 0 -113.5 10.5t-100 33.5t-80.5 57t-53.5 83.5t-19.5 109.5zM139 291q0 -114 81.5 -172t197.5 -58q103 0 212 44t189 124l-278 295l-140 138 q-120 -50 -191 -154t-71 -217z" />
<glyph unicode="'" horiz-adv-x="362" d="M182 1030l31 373h121l-72 -373h-80z" />
<glyph unicode="(" horiz-adv-x="731" d="M47 440q0 82 12 164q43 295 201 539q177 254 447 393l32 -68q-106 -60 -203.5 -155.5t-170.5 -206.5q-78 -113 -133.5 -246.5t-73.5 -261.5q-11 -82 -11 -137q0 -193 66 -369q45 -107 116.5 -201t162.5 -157l-43 -62q-235 146 -330 402q-72 179 -72 366z" />
<glyph unicode=")" horiz-adv-x="731" d="M-123 1456l33 68q267 -138 446 -394q158 -244 201 -538q12 -82 12 -164q0 -190 -71 -367q-95 -255 -330 -401l-43 61q179 124 278 359q66 176 66 369q0 62 -10 137q-18 128 -73.5 261.5t-133.5 246.5q-72 110 -170.5 206t-204.5 156z" />
<glyph unicode="*" horiz-adv-x="749" d="M147 1171l41 91l215 -88l23 249h96l-53 -252l242 91l16 -91l-233 -61l118 -176l-84 -53l-104 202l-162 -204l-65 55l170 178z" />
<glyph unicode="+" horiz-adv-x="862" d="M31 561l12 78h332l47 334h86l-47 -334h332l-13 -78h-331l-48 -336h-86l47 336h-331z" />
<glyph unicode="," horiz-adv-x="360" d="M-43 -150q41 41 59.5 77.5t26.5 101.5q1 6 2.5 18.5t3 25.5t2.5 27q6 52 58 52q27 0 38.5 -17t8.5 -41l-4 -41q-12 -83 -48 -151q-27 -55 -100 -107z" />
<glyph unicode="-" horiz-adv-x="870" d="M117 582l12 90h592l-12 -90h-592z" />
<glyph unicode="." horiz-adv-x="389" d="M31 59q0 35 23 58.5t57 23.5q31 0 49 -18t18 -47q0 -35 -24 -58.5t-58 -23.5q-30 0 -47.5 17.5t-17.5 47.5z" />
<glyph unicode="/" horiz-adv-x="673" d="M-61 -143l686 1683h102l-686 -1683h-102z" />
<glyph unicode="0" horiz-adv-x="1325" d="M92 539q0 59 10 137q19 138 73 261t135 217t194 149t241 55q114 0 204.5 -43.5t147.5 -119.5t87 -176.5t30 -217.5q0 -64 -10 -142q-19 -139 -73 -261.5t-135.5 -215t-194 -146.5t-240.5 -54q-115 0 -205.5 43.5t-147.5 120t-86.5 176.5t-29.5 217zM197 543 q0 -99 22.5 -183.5t67 -150.5t117 -103.5t165.5 -37.5q90 0 171 34.5t141 93.5t107.5 137.5t76 165.5t41.5 179q10 72 10 127q0 132 -39.5 235t-125.5 167.5t-208 64.5q-109 0 -204.5 -51t-162 -136.5t-111 -192.5t-60.5 -224q-8 -57 -8 -125z" />
<glyph unicode="1" horiz-adv-x="716" d="M190 1145q24 1 51 7.5t49 13t55.5 22.5t53.5 26t62.5 34.5t61.5 36t71.5 43t73.5 44.5l-2 -2l-193 -1368h-98l172 1212q-91 -73 -171.5 -109.5t-170.5 -39.5z" />
<glyph unicode="2" horiz-adv-x="1083" d="M14 2q24 165 128 289t302 260q19 13 59.5 39t63.5 42t60.5 42.5t61.5 47t55 49t51 55t39.5 57.5t31.5 65t17 70q4 28 4 43q0 101 -71 163t-193 62q-126 0 -228 -66t-157 -184l-66 41q74 145 185 215t270 70q170 0 258 -75.5t88 -213.5q0 -42 -4 -65q-10 -70 -39 -132 t-64 -106.5t-94.5 -95.5t-107.5 -84.5t-126.5 -88.5t-129.5 -93q-112 -77 -181 -152t-100 -164h780l-12 -90h-881z" />
<glyph unicode="3" horiz-adv-x="1126" d="M16 166l60 65q76 -79 157.5 -119t198.5 -40q118 0 215.5 39.5t160 123.5t62.5 199q0 64 -26.5 115t-71 83.5t-99.5 51t-116 21.5h-217l12 88h211q73 0 148 41.5t125.5 112t50.5 145.5q0 90 -75.5 141t-180.5 51q-140 0 -305 -100l-35 78l8 6q95 57 169.5 82.5t164.5 25.5 q159 0 259.5 -73t100.5 -195q0 -121 -89.5 -225t-215.5 -117l17 -14q55 9 131 -52q64 -43 99.5 -116.5t35.5 -163.5q0 -86 -28.5 -159.5t-78 -125t-115.5 -87.5t-141 -53.5t-155 -17.5q-252 0 -437 189z" />
<glyph unicode="4" horiz-adv-x="1081" d="M2 266l12 86l561 1000h109l-559 -996h553l65 463h101l-66 -463h176l-12 -90h-176l-37 -270h-100l37 270h-664z" />
<glyph unicode="5" horiz-adv-x="1044" d="M35 133l24 76q87 -69 160.5 -100t165.5 -31q181 0 297.5 111.5t140.5 283.5q4 23 4 66q0 75 -28.5 128t-83 82.5t-123 42.5t-158.5 13q-164 0 -272 -41l78 559l671 14l-14 -90l-571 -8l-54 -367q156 21 199 21q210 0 330.5 -98.5t120.5 -272.5q0 -26 -7 -73 q-29 -203 -176 -331t-340 -128q-120 0 -217.5 45.5t-146.5 97.5z" />
<glyph unicode="6" horiz-adv-x="1150" d="M57 391q0 22 9 105q22 154 102.5 306t204.5 275q127 118 281.5 183.5t320.5 68.5l-8 -82q-230 -3 -422 -139q-242 -158 -406 -541q95 145 216 213t251 68q176 0 290 -114.5t114 -284.5q0 -45 -4 -68q-26 -191 -179 -324t-350 -133q-192 0 -306 130t-114 337zM150 330 q0 -133 92.5 -228.5t238.5 -95.5q112 0 216 59t168.5 160.5t64.5 216.5q0 137 -94.5 230.5t-235.5 93.5q-88 0 -172 -38.5t-144.5 -99.5t-97 -140t-36.5 -158z" />
<glyph unicode="7" horiz-adv-x="976" d="M139 1239l13 88l843 10l-714 -1335h-103l674 1245z" />
<glyph unicode="8" horiz-adv-x="1120" d="M53 303q0 41 4 64q10 69 37.5 128t72.5 108t93 87t113 78q-150 76 -150 227q0 13 4 45q22 145 137 234.5t275 89.5q152 0 248 -79t96 -202q0 -65 -24.5 -123t-65.5 -100.5t-82 -71.5t-86 -51q111 -42 175.5 -122t64.5 -197q0 -41 -4 -64q-26 -181 -163.5 -283 t-338.5 -102q-187 0 -296.5 89t-109.5 245zM154 313q0 -120 82.5 -190t226.5 -70q164 0 271 87.5t128 230.5q4 36 4 49q0 39 -11 72.5t-27 58t-45.5 47t-55.5 37.5t-68.5 31.5t-73 26.5t-79.5 24l-53 14l-19 -18q-143 -105 -203 -178t-73 -170q-4 -36 -4 -52zM326 997 q0 -126 157 -174l135 -45l31 -6q44 28 71.5 47t61.5 49t53 58t32.5 67t13.5 82q0 88 -67 145.5t-173 57.5q-132 0 -223.5 -82t-91.5 -199z" />
<glyph unicode="9" horiz-adv-x="1148" d="M113 809q0 42 4 65q17 124 92.5 228t191.5 165.5t246 61.5q97 0 175.5 -34.5t131 -96.5t81 -148t28.5 -188q0 -59 -8 -108q-23 -159 -103 -308t-198 -266q-128 -121 -282.5 -187t-326.5 -69l9 82q231 6 436 154q124 87 217.5 213t153.5 270q-221 -237 -455 -237 q-166 0 -279.5 117.5t-113.5 285.5zM193 815q0 -90 40.5 -164.5t116 -119t170.5 -44.5q89 0 173.5 38.5t145 100.5t97.5 142t37 160q0 89 -44 162t-121 115t-171 42q-100 0 -195 -48t-162 -136t-83 -195q-4 -36 -4 -53z" />
<glyph unicode=":" horiz-adv-x="407" d="M-63 47q0 35 22.5 58.5t56.5 23.5q31 0 49.5 -18.5t18.5 -47.5q0 -35 -24 -58t-58 -23q-30 0 -47.5 17.5t-17.5 47.5zM53 870q0 35 23 58.5t57 23.5q31 0 49.5 -18t18.5 -47q0 -35 -24 -58.5t-58 -23.5q-31 0 -48.5 17.5t-17.5 47.5z" />
<glyph unicode=";" horiz-adv-x="374" d="M-137 -162q41 41 59.5 77.5t26.5 100.5q1 5 2.5 18.5t3 26.5t2.5 27q6 51 57 51q27 0 38.5 -16.5t8.5 -40.5l-4 -41q-12 -87 -47 -152q-26 -53 -100 -106zM53 870q0 35 23 58.5t57 23.5q31 0 49.5 -18t18.5 -47q0 -35 -24 -58.5t-58 -23.5q-31 0 -48.5 17.5t-17.5 47.5z " />
<glyph unicode="&#x3c;" horiz-adv-x="772" d="M35 541l577 366l39 -73l-454 -289l376 -291l-63 -78z" />
<glyph unicode="=" horiz-adv-x="917" d="M90 393l10 80h707l-10 -80h-707zM137 727l10 80h707l-10 -80h-707z" />
<glyph unicode="&#x3e;" horiz-adv-x="772" d="M66 250l454 287l-377 292l64 78l475 -366l-578 -365z" />
<glyph unicode="?" horiz-adv-x="925" d="M147 1159q0 100 79 169t190 97q70 17 129 17q148 0 253 -93t105 -249q0 -22 -4 -68q-14 -97 -59 -170q-21 -36 -47 -65.5t-63.5 -57.5t-56.5 -40.5t-65 -41.5q-12 -7 -41 -22t-39 -20.5t-32 -17.5t-31.5 -18t-25.5 -16.5t-26 -19t-21.5 -19t-22.5 -22.5q-52 -52 -62 -119 q-2 -23 -2 -72l-82 -14q-3 43 6 94q12 87 52 144q11 14 24.5 28t24 24.5t30 24t28 19.5t32.5 20t28.5 17t32.5 18t29 16q93 44 150.5 87.5t93.5 99.5q69 88 69 203q0 119 -82 193.5t-202 74.5q-64 0 -135 -22.5t-124 -66.5t-53 -95q0 -52 70 -58l10 -82h-8 q-75 0 -113.5 33.5t-38.5 89.5zM186 86q0 38 28 67t65 29q34 0 55.5 -20.5t21.5 -52.5q0 -40 -26.5 -68.5t-65.5 -28.5q-34 0 -56 21t-22 53z" />
<glyph unicode="@" horiz-adv-x="1427" d="M68 371q0 60 8 112q26 186 120 329.5t243.5 224.5t332.5 81q244 0 386 -137t142 -356q0 -194 -87.5 -317.5t-237.5 -123.5q-78 0 -124 36t-50 108q-86 -115 -209 -115q-96 0 -154.5 71t-58.5 181q0 86 30 156.5t77.5 112.5t102 64.5t107.5 22.5q20 0 68 -6l72 -4h77 l-59 -422q0 -67 33 -104t90 -37q104 0 174 112t70 267q0 188 -123.5 305t-327.5 117q-241 0 -408.5 -159.5t-201.5 -410.5q-8 -47 -8 -102q0 -201 124 -314.5t351 -113.5q101 0 206.5 23t182.5 61l14 -68q-198 -88 -420 -88q-248 0 -395 128.5t-147 365.5zM455 475 q0 -34 6.5 -65t21 -59t42 -45t65.5 -17q104 0 174 112l18 29l45 315h-131q-103 0 -172 -78t-69 -192z" />
<glyph unicode="A" horiz-adv-x="1650" d="M-25 127l93 12q14 -51 69 -51q28 0 51.5 15t34.5 38l725 1266h21l409 -1405h-100l-131 475h-637l-211 -381q-25 -50 -70.5 -76t-97.5 -26q-62 0 -106 37t-50 96zM561 567h559l-162 580l-2 -2l-20 112l-51 -112l2 2z" />
<glyph unicode="B" horiz-adv-x="1306" d="M129 1237q12 76 77 132t146 56h465q162 0 262.5 -85.5t100.5 -225.5q0 -111 -52.5 -197t-138.5 -129q-1 0 -10.5 -3t-35.5 -10t-66 -17l102 -37q166 -99 166 -291q0 -42 -4 -65q-19 -133 -99 -220t-201.5 -125t-285.5 -38q-139 0 -244 10l-98 10l190 1335 q-102 3 -139 -34q-33 -24 -49 -70zM319 78q64 -3 115 -5t69 -3t33.5 -1.5t30.5 -0.5q437 0 482 307q4 32 4 49q0 130 -91 204t-231 74h-186l12 86h168q141 0 233 76q125 88 125 250q0 102 -67 159.5t-178 63.5h-338z" />
<glyph unicode="C" horiz-adv-x="1503" d="M94 584q0 61 8 110q28 204 150 379.5t303 279t375 103.5q125 0 243 -43.5t160 -130.5q27 -46 27 -98q0 -86 -56 -146.5t-133 -60.5q-47 0 -94 31l60 65q24 -12 41 -12q39 0 69.5 36t30.5 81q0 42 -27 82q-48 56 -139.5 83t-183.5 27q-131 0 -259 -56.5t-228 -149.5 t-169 -218.5t-88 -259.5q-6 -46 -6 -92q0 -153 67.5 -279t192.5 -200t283 -74q150 0 291.5 68t240.5 184l66 -51q-119 -141 -278 -213t-326 -72q-136 0 -253 48.5t-197 132.5t-125.5 199.5t-45.5 246.5z" />
<glyph unicode="D" horiz-adv-x="1640" d="M125 1227q13 75 74 131q70 57 151 57h625q266 -25 411.5 -181t145.5 -417q0 -60 -10 -145q-50 -357 -294 -522.5t-691 -165.5q-148 0 -240 8l-55 4l-29 4l188 1327q-101 4 -145 -43q-33 -22 -43 -61zM324 92l10 -14q255 -10 354 -10q296 0 498 166.5t244 463.5 q8 52 8 115q0 228 -130.5 365t-361.5 149h-448z" />
<glyph unicode="E" horiz-adv-x="1312" d="M123 1214q14 71 72 129q76 60 151 60h950l-12 -88h-807l-74 -527h558l-13 -90h-557l-86 -606h807l-12 -90h-905l186 1313q-49 0 -76.5 -9t-48.5 -30q-30 -20 -45 -66z" />
<glyph unicode="F" horiz-adv-x="1228" d="M123 1212q15 75 72 129q75 60 151 60h950l-12 -88h-807l-74 -527h558l-13 -90h-557l-98 -696h-98l186 1313q-49 0 -76.5 -9t-48.5 -30q-15 -9 -27.5 -28t-17.5 -38z" />
<glyph unicode="G" horiz-adv-x="1525" d="M92 569q0 62 8 111q17 121 70 236t133.5 209t178.5 165.5t211.5 110.5t226.5 39q54 0 109.5 -8t114 -27.5t103.5 -48t74 -74t29 -100.5q0 -94 -56 -153.5t-137 -59.5q-48 0 -90 28l59 66q20 -10 37 -10q41 0 72 38t31 85q0 48 -36.5 84.5t-92.5 55.5t-112 28.5t-107 9.5 q-171 0 -332.5 -95.5t-270 -253t-133.5 -335.5q-6 -46 -6 -95q0 -152 66.5 -279t187.5 -201.5t270 -74.5q198 0 354.5 125t207.5 310l20 151h90l-139 -993q-11 -84 -71.5 -130t-129.5 -46q-86 0 -129 69l80 48q20 -23 57 -23q40 0 68.5 26.5t36.5 59.5l84 586 q-105 -132 -242.5 -199t-288.5 -67q-177 0 -316.5 86t-214.5 229.5t-75 316.5z" />
<glyph unicode="H" horiz-adv-x="1421" d="M143 1348q65 65 150 65q68 0 115 -42t47 -111q0 -19 -2 -29l-64 -455h799l88 627h98l-196 -1401h-99l97 684h-799l-96 -684h-101l174 1233q4 32 -15 55t-50 23q-37 0 -64 -27z" />
<glyph unicode="I" horiz-adv-x="385" d="M35 2l196 1401h99l-197 -1401h-98z" />
<glyph unicode="J" horiz-adv-x="935" d="M31 299q0 33 2 49l88 -12q-2 -12 -2 -35q0 -100 61 -158.5t170 -58.5q77 0 137.5 28.5t97 76t57.5 99t28 107.5l129 910q-48 -41 -131 -41q-55 0 -95 12q-26 6 -88 34.5t-102 28.5q-20 0 -44.5 -5.5t-39.5 -10.5t-45 -16.5t-37 -14.5l-35 82q90 33 129.5 43t75.5 10 q25 0 53.5 -7.5t122.5 -39.5q73 -28 113 -28q27 0 65.5 18.5t63.5 38.5h98l-145 -1024q-11 -79 -42 -147.5t-81 -124t-126.5 -87.5t-170.5 -32q-83 0 -144 24.5t-95.5 68.5t-51 96.5t-16.5 115.5z" />
<glyph unicode="K" horiz-adv-x="1302" d="M35 4l196 1399h99l-92 -653h102q93 3 153 33.5t105 84.5q96 93 178 222q61 87 203 315l125 -4q-93 -139 -162 -241t-94 -140q-20 -24 -66 -88t-65 -88q-68 -76 -142 -131l336 -602q21 -35 64 -35q33 0 61 21.5t37 52.5l92 -5q-17 -78 -75 -118.5t-123 -40.5 q-87 0 -133 77l-351 619q-42 -12 -59 -16t-47 -7.5t-66 -3.5q-12 0 -38 1t-42 1l-94 -653h-102z" />
<glyph unicode="L" horiz-adv-x="1028" d="M35 2l196 1401h99l-185 -1311h684l-12 -90h-782z" />
<glyph unicode="M" horiz-adv-x="2146" d="M-31 82l86 31q16 -37 62 -37q27 0 50.5 15.5t35.5 41.5h2l438 1270h100l269 -1184l18 -131l55 131l603 1184h96l90 -1401h-88l-70 1163l-4 146l-61 -146l2 2l-586 -1165h-102l-254 1161l-21 150l-43 -150l-356 -1040q-21 -60 -69.5 -97.5t-108.5 -37.5q-52 0 -89 26 t-55 68z" />
<glyph unicode="N" horiz-adv-x="1589" d="M-25 156l86 -4q1 -32 22.5 -51t49.5 -19q38 0 68 27.5t35 58.5l174 1235h57l192 -256l590 -854v2l43 -88l162 1194h94l-196 -1399h-17l-815 1172v-3l-43 86l-145 -1093q-8 -55 -44 -95.5t-79.5 -57.5t-85.5 -17q-67 0 -110.5 47t-37.5 115z" />
<glyph unicode="O" horiz-adv-x="1648" d="M94 575q0 35 8 105l4 39q20 145 94 279t182 233t249 158t289 59q136 0 253 -49.5t198 -134.5t127 -201t46 -246q0 -49 -6 -102l-6 -39q-20 -149 -93.5 -283.5t-181 -232.5t-247 -155.5t-285.5 -57.5q-181 0 -326 83.5t-225 226.5t-80 318zM182 586q0 -155 70.5 -282.5 t194.5 -200t276 -72.5q128 0 252.5 52.5t221 140.5t163.5 207.5t86 248.5l4 39q6 46 6 92q0 116 -42 218.5t-114.5 175.5t-173 115t-213.5 42q-130 0 -254.5 -53.5t-220 -142t-161 -207t-82.5 -244.5l-7 -39q-6 -46 -6 -90z" />
<glyph unicode="P" horiz-adv-x="1230" d="M123 1214q14 71 72 129q76 60 151 60h481q161 0 247.5 -95t86.5 -253q0 -128 -42.5 -229t-115 -162.5t-162 -93t-190.5 -31.5q-55 0 -143 10l6 86q86 -6 131 -6q111 0 195.5 33t144.5 112t78 201q6 41 6 72q0 132 -74 197.5t-204 70.5h-293l-185 -1315h-98l186 1315 q-69 0 -95 -8t-48 -31q-38 -23 -47 -66z" />
<glyph unicode="Q" horiz-adv-x="1591" d="M96 584q0 68 8 123q29 206 138 369t279 255t372 92q184 0 321 -77.5t208 -214t71 -312.5q0 -66 -8 -123q-29 -206 -138 -368.5t-278.5 -253.5t-370.5 -90h-69l-166 -201l174 -62q113 -43 229 -43q51 0 97 15t112 55l33 -72q-78 -50 -124.5 -63.5t-106.5 -13.5 q-131 0 -265 45l-209 73l-100 -125l-61 52l305 354q-220 46 -335.5 203.5t-115.5 382.5zM195 586q0 -151 58 -267t174 -183.5t275 -67.5q135 0 255 49.5t208.5 135.5t147 203.5t76.5 252.5q8 52 8 112q0 230 -135.5 373t-370.5 143q-134 0 -253.5 -48.5t-208.5 -133 t-148 -202t-78 -253.5q-8 -52 -8 -114z" />
<glyph unicode="R" horiz-adv-x="1462" d="M123 1214q15 72 72 129q72 60 151 60h494q87 0 155 -35q80 -43 125 -126.5t45 -190.5q0 -189 -110.5 -311t-263.5 -132l-134 -6l95 -35q14 -5 34.5 -22t28.5 -33l258 -408q20 -36 62 -36q30 0 59.5 22.5t40.5 52.5l88 -6q-13 -70 -67 -112.5t-123 -42.5q-89 0 -136 77 l-217 342q-48 82 -102 124t-150 53l13 88h166q145 0 242 89.5t118 233.5q4 36 4 55q0 120 -67 195.5t-181 75.5h-329l-185 -1313h-98l184 1313h-53q-43 0 -82 -31t-49 -74z" />
<glyph unicode="S" horiz-adv-x="1126" d="M14 283l84 26q40 -128 140.5 -201t226.5 -73q158 0 277.5 105t140.5 249q2 14 2 41q0 84 -45 137.5t-131 104.5q-28 15 -92.5 46.5t-102.5 51.5t-91 56t-83 69t-52 81.5t-22 102.5q0 158 122.5 263.5t287.5 105.5q72 0 125 -18q80 -26 120 -75t40 -112q0 -87 -55.5 -143 t-137.5 -51l12 77q37 -3 65.5 32t28.5 79q0 60 -62 92.5t-140 32.5q-124 0 -221 -81.5t-97 -188.5q0 -43 21 -83.5t52.5 -69.5t78 -59.5t86.5 -50.5t89.5 -45.5t76.5 -42.5q213 -116 213 -305q0 -94 -41 -183t-109 -155t-162.5 -106.5t-195.5 -40.5q-157 0 -282.5 92.5 t-166.5 239.5z" />
<glyph unicode="T" horiz-adv-x="1267" d="M150 1245q12 60 61 109q61 49 127 49h956l-12 -90h-498l-184 -1311h-98l184 1311h-350q-33 0 -59.5 -21.5t-36.5 -50.5z" />
<glyph unicode="U" horiz-adv-x="1515" d="M141 1352q69 69 158 69q81 0 125.5 -38.5t44.5 -112.5q0 -13 -4 -41l-96 -684q-7 -51 -7 -86q0 -173 97.5 -281t285.5 -108q115 0 211 43t157 114t98.5 152.5t50.5 169.5l118 856h99l-121 -860q-12 -85 -42 -164.5t-82.5 -152t-121 -126.5t-164 -86t-205.5 -32 q-118 0 -210.5 36t-150 100t-87 148t-29.5 183q0 49 6 98l95 684l2 20q0 39 -21.5 55.5t-48.5 16.5q-43 0 -80 -33z" />
<glyph unicode="V" horiz-adv-x="1255" d="M139 1300q29 55 78 85t105 30q55 0 90.5 -27t44.5 -71l237 -1196l590 1284h96l-653 -1403h-100l-250 1268q-6 23 -24.5 36t-41.5 13q-22 0 -45.5 -13t-38.5 -34z" />
<glyph unicode="W" horiz-adv-x="2174" d="M141 1311q28 55 76 83.5t102 28.5q60 0 101.5 -34.5t50.5 -90.5l201 -1103q1 -16 2.5 -34.5t3 -41.5t2.5 -35l39 109l559 1212h102l219 -1212l15 -191h-68l-235 1268l-590 -1268h-103l-239 1274q-6 27 -25.5 42t-42.5 15q-55 0 -86 -51zM1614 2l20 145q4 16 4 19l9 27 l559 1212h94l-651 -1403h-35z" />
<glyph unicode="X" horiz-adv-x="1353" d="M27 2l528 719l-334 682h109l303 -619l471 619h115l-527 -682l275 -608q15 -33 59 -33q31 0 58 20t38 47l92 -8q-18 -72 -74 -111.5t-126 -39.5q-62 0 -95 33.5t-65 111.5l-233 522l-480 -653h-114z" />
<glyph unicode="Y" horiz-adv-x="1280" d="M133 1280q21 68 77 105.5t120 37.5q96 0 139 -96l252 -604l475 682h113l-553 -789l-82 -614h-109l92 610l-272 676q-23 41 -68 41q-27 0 -54.5 -18t-37.5 -45z" />
<glyph unicode="Z" horiz-adv-x="1189" d="M-14 18l956 1297h-663l12 80h807l-910 -1229l88 -16q46 -10 126 -35.5t149 -42.5t123 -17q129 0 266 105l53 -62q-87 -69 -162 -97t-161 -28q-80 0 -164.5 23t-183.5 56.5t-179 47.5l-94 -123z" />
<glyph unicode="[" horiz-adv-x="659" d="M-16 -360l268 1900h469l-14 -90h-371l-242 -1722h371l-12 -88h-469z" />
<glyph unicode="\" horiz-adv-x="673" d="M176 1540h100l213 -1683h-104z" />
<glyph unicode="]" horiz-adv-x="661" d="M-102 -360l12 88h371l241 1722h-370l14 90h469l-268 -1900h-469z" />
<glyph unicode="^" horiz-adv-x="907" d="M88 750l426 507h27l280 -507l-88 -58l-231 416l-342 -412z" />
<glyph unicode="_" horiz-adv-x="1169" d="M-4 -276l12 86h891l-12 -86h-891z" />
<glyph unicode="`" horiz-adv-x="501" d="M162 1405l67 78l275 -244l-37 -47z" />
<glyph unicode="a" d="M70 395q0 284 159 461.5t414 177.5q115 0 248 -18h104l-123 -862q-4 -39 19 -62.5t55 -23.5q40 0 68 28l69 -51q-55 -63 -139 -63q-70 0 -114 43t-44 110q0 19 2 27l9 35q-109 -215 -357 -215q-182 0 -276 115t-94 298zM160 412q0 -72 17 -134t50 -111t89 -77.5 t128 -28.5q101 0 188.5 51.5t135.5 131.5q39 58 51 139l80 555q-29 -1 -131 7.5t-141 8.5q-126 0 -226 -62t-158.5 -163t-76.5 -227q-6 -47 -6 -90z" />
<glyph unicode="b" horiz-adv-x="1091" d="M39 20l205 1469h86l-92 -651q61 100 155 148t201 48q170 0 266 -112.5t96 -303.5q0 -62 -8 -114q-15 -111 -55.5 -202.5t-108.5 -164.5t-174 -114t-241 -41q-207 0 -330 38zM131 82l121 -14q68 -7 117 -7q118 0 209 37t147.5 102t89 141.5t45.5 168.5q8 49 8 102 q0 163 -78.5 252.5t-205.5 89.5q-118 0 -217 -73q-123 -78 -152 -209z" />
<glyph unicode="c" horiz-adv-x="1044" d="M68 381q0 34 8 108q23 157 91.5 281.5t178.5 198t244 73.5q138 0 231.5 -71.5t93.5 -190.5q0 -4 -1 -13.5t-1 -14.5l-86 4q9 101 -59.5 157t-171.5 56q-75 0 -141 -29.5t-114 -78.5t-85.5 -113.5t-59.5 -132t-32 -136.5q-6 -46 -6 -88q0 -151 82 -236t231 -85 q85 0 164.5 25t175.5 71l35 -68q-183 -108 -379 -108q-198 0 -298.5 103t-100.5 288z" />
<glyph unicode="d" d="M70 397q0 60 8 109q33 237 184.5 382.5t380.5 145.5q118 0 262 -20l70 477h86l-189 -1337q-5 -34 18 -60t58 -26q38 0 66 28l69 -51q-55 -63 -139 -63q-70 0 -114 43t-44 110q0 19 2 27l9 35q-109 -215 -355 -215q-182 0 -277 114.5t-95 300.5zM162 414 q0 -60 10.5 -112.5t33 -97t55 -76t79.5 -49.5t104 -18q90 0 170.5 40.5t136 115t68.5 166.5l80 551q-12 0 -83 10t-134 10q-122 0 -216 -33.5t-154 -95t-95 -139t-49 -174.5q-6 -50 -6 -98z" />
<glyph unicode="e" horiz-adv-x="1048" d="M66 371q0 32 8 102q11 82 37.5 160t71 151.5t102.5 128.5t138 88t171 33q142 0 231.5 -71t89.5 -193q0 -168 -131.5 -259t-357.5 -93h-264q-16 -357 303 -357q88 0 166 24.5t180 72.5l33 -68q-183 -108 -381 -108q-200 0 -298.5 104.5t-98.5 284.5zM168 500h264 q83 0 151 14t124.5 44t88 84t31.5 128q0 92 -66.5 141.5t-162.5 49.5q-77 0 -146 -32t-117 -82t-85 -112.5t-56.5 -122t-25.5 -112.5z" />
<glyph unicode="f" horiz-adv-x="792" d="M-45 -541l221 1579q12 86 30 154t48.5 132t71 106.5t100 68t133.5 25.5q122 0 187 -61.5t65 -178.5q0 -17 -4 -63q-24 -172 -144.5 -262.5t-308.5 -90.5h-116l-52 -368h310l-11 -80h-309l-135 -961h-86zM250 948h112q148 0 243 77t112 206q4 28 4 43q0 79 -45 124.5 t-123 45.5q-72 0 -125.5 -34.5t-86 -97t-50.5 -126.5t-29 -146z" />
<glyph unicode="g" horiz-adv-x="1093" d="M76 440q0 50 6 90q14 99 61 190t118.5 161.5t171 112.5t210.5 42q55 0 129 -6l127 -14h98l-178 -1264q-22 -156 -115.5 -247t-228.5 -91q-125 0 -189.5 77.5t-64.5 189.5q0 90 39.5 171t112.5 134q-88 12 -152 73q-77 64 -111 167t-34 214zM156 428q0 -152 74.5 -259.5 t205.5 -107.5q62 0 121 27q58 25 121.5 74t103.5 114q34 46 41 89l82 577l-213 12h-65q-94 0 -177.5 -39t-142 -103.5t-96.5 -144.5t-51 -165q-4 -25 -4 -74zM301 -303q0 -40 11 -75t32.5 -63.5t58.5 -45.5t84 -17q52 0 95.5 20.5t73.5 56t50 79.5t31 96l60 414 q-25 -18 -59 -45.5t-55.5 -45.5t-23.5 -20q-19 -15 -62.5 -38.5t-83.5 -45t-52 -30.5q-34 -20 -59.5 -40t-50 -49t-37.5 -67t-13 -84z" />
<glyph unicode="h" horiz-adv-x="1198" d="M35 8l209 1487h86l-97 -672q84 113 179.5 165t216.5 52q291 0 291 -247q0 -29 -7 -76l-77 -559q-6 -39 16 -61.5t55 -22.5q40 0 68 28l67 -53q-58 -61 -139 -61q-70 0 -112.5 41t-42.5 106q0 17 2 27l77 553q4 40 4 55q0 191 -221 191q-111 0 -197.5 -55.5t-187.5 -168.5 l-104 -729h-86z" />
<glyph unicode="i" horiz-adv-x="454" d="M33 131q0 19 2 27l121 860h86l-123 -864q-4 -36 19.5 -61t54.5 -25q37 0 65 28l70 -51q-57 -63 -140 -63q-69 0 -112 42t-43 107zM190 1358q0 35 23 58.5t57 23.5q31 0 49.5 -18.5t18.5 -47.5q0 -35 -24 -58.5t-58 -23.5q-30 0 -48 18t-18 48z" />
<glyph unicode="j" horiz-adv-x="460" d="M-137 -473l74 43q19 -25 57 -25q39 0 68.5 26t35.5 64l195 1385h86l-195 -1389q-11 -74 -65.5 -123t-128.5 -49q-83 0 -127 68zM328 1358q0 35 23 58.5t57 23.5q30 0 48.5 -18t18.5 -48q0 -35 -24 -58.5t-58 -23.5q-30 0 -47.5 18t-17.5 48z" />
<glyph unicode="k" horiz-adv-x="1179" d="M35 4l209 1487h86l-101 -715q66 128 166 196t219 68q127 0 200 -68.5t73 -185.5q0 -70 -19 -126.5t-56 -97t-75 -67.5t-90 -53l152 -317v-4q16 -27 61 -27q33 0 59 19t35 49l86 -8q-17 -64 -69.5 -107t-116.5 -43q-45 0 -82.5 22.5t-52.5 61.5l-160 334h-379l-59 -418 h-86zM195 502h256q109 0 172 28q85 33 135.5 98.5t50.5 151.5q0 80 -53.5 131.5t-147.5 51.5q-115 0 -211 -76.5t-153 -212.5q-40 -88 -49 -172z" />
<glyph unicode="l" horiz-adv-x="503" d="M53 135q0 17 2 25l187 1329h86l-187 -1333q-6 -38 17 -62t55 -24t68 28l67 -51q-57 -63 -143 -63q-66 0 -109 43t-43 108z" />
<glyph unicode="m" horiz-adv-x="1830" d="M104 2l103 725q6 43 6 80q0 103 -47 168l53 47q41 -38 58.5 -87.5t19.5 -119.5q135 219 365 219q226 0 256 -215q146 215 362 215q128 0 199 -68.5t71 -187.5q0 -19 -4 -59l-80 -567q-6 -39 18 -62.5t56 -23.5q38 0 66 28l69 -51q-57 -63 -141 -63q-72 0 -113 41t-41 106 q0 19 2 29l78 565q2 14 2 41q0 192 -188 192q-208 0 -352 -219l-105 -733h-86l96 690q4 23 4 64q0 94 -46 146t-138 52q-106 0 -206.5 -63.5t-147.5 -153.5l-103 -735h-86z" />
<glyph unicode="n" horiz-adv-x="1230" d="M70 2l102 725q6 43 6 80q0 103 -47 168l53 47q79 -69 76 -211q90 120 188.5 171.5t217.5 51.5q286 0 286 -252q0 -27 -2 -41l-84 -594q-6 -39 18 -62.5t56 -23.5q36 0 68 29l67 -51q-61 -64 -141 -64q-72 0 -114 43t-42 109q0 17 2 25l76 540q4 23 4 66q0 196 -209 196 q-115 0 -205 -56.5t-188 -166.5l-104 -729h-84z" />
<glyph unicode="o" horiz-adv-x="1228" d="M72 416q0 46 6 92q31 229 190 377.5t385 148.5q201 0 320 -120t119 -318q0 -36 -7 -94q-32 -233 -191 -376.5t-382 -143.5q-204 0 -322 119.5t-118 314.5zM160 422q0 -164 95 -262.5t261 -98.5q193 0 323.5 129.5t157.5 327.5q7 51 7 82q0 162 -95.5 258t-259.5 96 q-196 0 -326 -128.5t-157 -323.5q-6 -40 -6 -80z" />
<glyph unicode="p" horiz-adv-x="1124" d="M-6 -543l178 1270q6 43 6 80q0 103 -47 168l53 47q42 -40 58.5 -87.5t19.5 -115.5q105 215 356 215q183 0 279 -115t96 -301q0 -59 -8 -108q-35 -239 -184.5 -383.5t-380.5 -144.5q-116 0 -264 20l-78 -545h-84zM162 82q212 -21 250 -21q204 0 329 122t154 323q6 46 6 92 q0 156 -73 256t-207 100q-124 0 -235 -80t-138 -202z" />
<glyph unicode="q" horiz-adv-x="1093" d="M70 399q0 59 8 111q33 241 185.5 382.5t410.5 141.5q171 0 313 -39l-213 -1538h-86l100 723q-53 -100 -145 -149t-205 -49q-180 0 -274 114t-94 303zM160 410q0 -157 71.5 -253t206.5 -96q126 0 235 80t138 203l86 588q-105 20 -219 20q-122 0 -215 -32.5t-152.5 -93 t-94 -138t-48.5 -174.5q-8 -74 -8 -104z" />
<glyph unicode="r" horiz-adv-x="698" d="M90 2l103 725q6 43 6 80q0 103 -47 168l53 47q80 -74 80 -209q67 117 164 182q74 39 178 39q29 0 106 -14l-6 -78q-59 10 -100 10q-118 0 -197 -61q-35 -23 -76 -65.5t-73 -90.5l-105 -733h-86z" />
<glyph unicode="s" horiz-adv-x="886" d="M6 94l47 60q132 -93 291 -93q56 0 106.5 13.5t94.5 41t70 76t26 111.5q0 54 -30.5 92t-92.5 70q-35 17 -98 42.5t-102 43.5t-81 46.5t-62.5 67t-20.5 89.5q0 90 47 155t119 95t159 30q64 0 133 -16t113 -43l-25 -76q-107 55 -227 55q-103 0 -165 -49t-62 -133 q0 -55 41.5 -97.5t94 -65t127 -54.5t114.5 -59q112 -70 112 -187q0 -13 -4 -45q-10 -74 -47.5 -130t-93.5 -88.5t-120.5 -48t-137.5 -15.5q-192 0 -326 112z" />
<glyph unicode="t" horiz-adv-x="720" d="M66 201q0 41 6 88l137 987h86l-37 -262h330l-10 -86h-330l-92 -643q-6 -43 -6 -80q0 -71 30 -107.5t103 -36.5q62 0 120.5 30.5t100.5 86.5l59 -49q-114 -147 -282 -147q-113 0 -164 56t-51 163z" />
<glyph unicode="u" horiz-adv-x="1261" d="M127 958l51 68q58 -48 90.5 -94t32.5 -105q0 -18 -2 -28l-68 -471q-4 -23 -4 -66q0 -196 211 -196q115 0 202 53t187 168l107 731h86l-125 -866q-6 -38 18.5 -62t55.5 -24q39 0 67 28l70 -53q-58 -61 -139 -61q-72 0 -115 43t-43 112q0 38 14 66q-97 -119 -188 -167 t-211 -48q-287 0 -287 252q0 27 2 41l74 524q5 33 -11 66t-32.5 50t-42.5 39z" />
<glyph unicode="v" horiz-adv-x="989" d="M131 979l47 63q99 -74 121 -208l135 -717l422 899h84l-475 -1014h-96l-162 860q-17 71 -76 117z" />
<glyph unicode="w" horiz-adv-x="1689" d="M131 981l49 63q90 -75 117 -210l135 -711l420 895h96l164 -895l420 895h86l-473 -1014h-96l-166 895l-420 -895h-98l-158 860q-21 74 -76 117z" />
<glyph unicode="x" horiz-adv-x="1124" d="M20 2l392 508l-252 508h104l215 -445l332 445h104l-383 -504l201 -422q14 -39 64 -39q35 0 60.5 20.5t35.5 49.5l88 -8q-19 -70 -71 -111t-119 -41q-94 0 -138 84l-190 399l-342 -444h-101z" />
<glyph unicode="y" horiz-adv-x="1116" d="M127 958l51 68q60 -51 91.5 -97t31.5 -104q0 -18 -2 -26l-68 -471q-4 -46 -4 -64q0 -198 207 -198q106 0 188 45.5t166 134.5q27 30 37 51.5t13 48.5l96 672h86q-124 -857 -182 -1276q-23 -161 -115 -248.5t-223 -87.5q-124 0 -190 74.5t-66 187.5q0 59 19 124t65.5 123 t109.5 69q-303 3 -303 237q0 18 4 58l74 524q5 35 -23 78.5t-63 76.5zM324 -322q0 -85 46.5 -137.5t131.5 -52.5q100 0 169.5 70.5t84.5 179.5l57 405l-51 -45q-55 -45 -117 -73l-113 -58q-92 -45 -142.5 -103.5t-63.5 -146.5q-2 -14 -2 -39z" />
<glyph unicode="z" horiz-adv-x="1069" d="M0 18l754 916h-549l10 80h703v-8l-697 -844l172 -66q110 -41 230 -41q52 0 96.5 14t111.5 54l35 -70q-66 -43 -121 -60.5t-122 -17.5q-126 0 -250 45l-209 70l-103 -123z" />
<glyph unicode="{" horiz-adv-x="632" d="M-29 623q32 5 43.5 7.5t34.5 10t38.5 20t29.5 31.5q6 15 6 37q0 17 -4 41q-1 8 -17 82l-32 123q-14 52 -22 81t-18 76t-14 85q-4 23 -4 65q0 53 17 86q25 55 69 76q82 54 211 82l25 -68q-116 -27 -174 -65q-33 -30 -45 -60q-6 -24 -6 -53q0 -48 22 -133l31 -129 q39 -133 57 -250q2 -10 2 -31q0 -55 -41 -96q-31 -46 -96 -57l-8 -25q15 6 33 6q34 0 72 -26.5t65 -67.5q21 -40 28 -83t7 -107q2 -27 5.5 -171t10.5 -194q5 -46 33 -86q56 -95 256 -131l-15 -68q-54 11 -71 15t-65 17.5t-73 26.5t-59 37t-59 54q-33 50 -45 131 q-13 100 -19 385q0 7 -1 24.5t-1.5 24t-2 20.5t-3 21t-4.5 18.5t-6.5 18t-8.5 14.5t-12 15q-55 66 -161 79z" />
<glyph unicode="|" horiz-adv-x="385" d="M14 -143l238 1683h98l-237 -1683h-99z" />
<glyph unicode="}" horiz-adv-x="630" d="M-68 -289q200 36 256 131q28 40 33 86q7 50 11 195.5t6 169.5q0 65 6.5 107.5t27.5 82.5q18 27 41 48.5t48.5 34t48.5 12.5q14 0 32 -7l-8 25q-65 11 -96 57q-41 41 -41 97q0 20 2 30q18 117 57 250l31 129q1 3 5.5 20t5.5 22.5t4.5 20t4.5 23t2 21.5t1 26q0 26 -7 54 q-12 29 -45 59q-58 38 -174 65l25 68q129 -28 211 -82q44 -21 69 -76q17 -33 17 -86q0 -42 -4 -65q-10 -88 -53 -242l-33 -123q-2 -7 -6.5 -25t-7 -31.5t-3.5 -25.5q-4 -24 -4 -41q0 -21 6 -36q12 -16 26 -27.5t25 -17.5t31 -11.5t29.5 -7.5t34.5 -6l-8 -90 q-106 -13 -162 -80q-6 -6 -10.5 -12.5t-8 -14t-6.5 -14.5t-4.5 -17t-3 -17t-2.5 -19t-1.5 -19t-1.5 -21.5t-1 -21.5q-6 -285 -19 -385q-12 -81 -45 -131q-38 -46 -98.5 -77.5t-96.5 -41.5t-115 -26q-11 -3 -17 -4z" />
<glyph unicode="~" horiz-adv-x="1064" d="M123 600q62 41 112.5 58.5t114.5 17.5q76 0 165 -35t144 -35q93 0 185 64l47 -68q-98 -68 -203 -78h-29q-64 0 -159 36t-150 36q-86 0 -180 -64z" />
<glyph unicode="&#xa1;" horiz-adv-x="436" d="M12 1006q0 30 18 47.5t48 17.5q34 0 58 -23.5t24 -58.5q0 -29 -18.5 -47t-49.5 -18q-34 0 -57 23.5t-23 58.5zM170 760h80l180 -1151h-117z" />
<glyph unicode="&#xa2;" horiz-adv-x="1015" d="M59 537q0 24 9 112q35 221 147 359q143 157 309 176l33 217h98l-32 -215q71 -6 127.5 -34t89.5 -67q67 -64 67 -157q0 -19 -2 -29l-90 4q7 86 -35 139q-61 61 -164 72l-129 -899q26 1 52 5t45 7.5t44 11.5t38 12t38 15t32.5 14.5t34 16t30.5 14.5l35 -67 q-65 -37 -148 -70q-121 -37 -209 -39l-20 -135h-99l21 139q-196 24 -266 164q-56 92 -56 234zM145 526q0 -102 43 -178q67 -102 201 -127l129 889q-76 -11 -143.5 -65t-110.5 -123q-86 -128 -112 -306q-7 -58 -7 -90z" />
<glyph unicode="&#xa3;" horiz-adv-x="1150" d="M111 635l14 90h172l39 279q22 165 125 260q118 94 323 94q127 0 222 -33l-9 -80q-119 33 -231 33q-144 0 -229 -76q-87 -74 -105 -203l-37 -274h322l-15 -90h-321l-53 -387l-9 -39l-12 -45q149 -56 191.5 -70t76.5 -20q79 -11 105 -11q102 0 219 70l33 -80 q-124 -78 -232 -78q-139 0 -264 45l-160 52q-3 -6 -10.5 -18.5t-13 -22t-12.5 -21t-13.5 -20.5t-11.5 -15l-76 43q37 57 59 108.5t31 121.5l54 387h-172z" />
<glyph unicode="&#xa4;" horiz-adv-x="1425" d="M45 59l246 213q-70 98 -70 234q0 140 58 258q47 92 98 141l-182 215l79 72l187 -219q137 88 293 88q87 0 151 -23.5t121 -68.5l254 223l59 -72l-245 -219q63 -89 63 -225q0 -150 -55 -262q-35 -80 -94 -142l182 -213l-80 -71l-188 219q-70 -42 -140 -66t-153 -24 q-89 0 -151.5 22.5t-123.5 67.5l-250 -219zM326 516q0 -150 80 -233.5t227 -83.5q84 0 151 28q77 30 127 86q70 56 110 150t40 211q0 120 -62 203q-81 100 -247 100q-40 0 -69.5 -4t-43 -8t-41.5 -15q-64 -25 -127 -84q-62 -52 -94 -123q-51 -100 -51 -227z" />
<glyph unicode="&#xa5;" horiz-adv-x="1275" d="M135 356l12 80h402l24 185l-20 45h-375l10 84h332l-297 602h109l307 -623l477 623h111l-463 -602h323l-10 -84h-368l-35 -45l-25 -185h398l-13 -80h-397l-49 -354h-96l49 354h-406z" />
<glyph unicode="&#xa6;" horiz-adv-x="368" d="M12 -143l105 743h98l-104 -743h-99zM145 797l105 743h98l-104 -743h-99z" />
<glyph unicode="&#xa7;" horiz-adv-x="817" d="M96 -53q161 32 238 76q110 49 110 155q0 76 -82 154q-20 16 -57 42t-64.5 48.5t-50.5 48.5q-75 69 -75 160q0 127 73 217q29 29 56.5 41.5t44.5 9.5q-53 74 -53 152q0 79 30.5 133t100.5 96q111 66 307 96l14 -82q-169 -34 -239 -75q-51 -24 -79 -66.5t-28 -87.5 q0 -76 80 -156q20 -15 58 -41.5t65 -49t51 -48.5q75 -69 78 -160q0 -51 -20.5 -113t-55.5 -104q-29 -24 -102 -63q53 -62 53 -146q0 -143 -129 -223q-114 -66 -309 -96zM215 645q0 -67 61 -131q25 -21 79.5 -59t76.5 -60q68 28 103.5 90t35.5 111q0 62 -63 129 q-21 18 -76.5 58.5t-79.5 64.5q-61 -30 -99 -85.5t-38 -117.5z" />
<glyph unicode="&#xa8;" horiz-adv-x="886" d="M137 1303q0 35 23 58t57 23q31 0 49.5 -18t18.5 -47q0 -35 -24 -58.5t-58 -23.5q-30 0 -48 18t-18 48zM602 1303q0 35 23 58t57 23q31 0 49.5 -18t18.5 -47q0 -35 -24 -58.5t-58 -23.5q-30 0 -48 18t-18 48z" />
<glyph unicode="&#xa9;" horiz-adv-x="1501" d="M90 397q0 33 8 103q38 278 233 449t472 171q243 0 391.5 -148.5t148.5 -375.5q0 -30 -8 -100q-38 -277 -232 -448t-472 -171q-243 0 -392 148t-149 372zM174 391q0 -209 123.5 -326.5t337.5 -117.5q121 0 229 44.5t187.5 121t132 179t69.5 218.5q7 54 7 94 q0 213 -121 329t-338 116q-129 0 -244 -49t-199.5 -134.5t-134 -209t-49.5 -265.5zM469 440q0 101 36.5 187t104 138t152.5 52q36 0 76 -9t61 -22l-6 -65q-70 29 -121 29q-57 0 -102.5 -32t-70.5 -81t-37.5 -97.5t-12.5 -90.5q0 -87 45.5 -139t120.5 -52q74 0 164 55l26 -57 q-107 -66 -205 -66q-113 0 -172 68.5t-59 181.5z" />
<glyph unicode="&#xaa;" horiz-adv-x="811" d="M182 1067q0 105 51 180t132 111q47 20 98 20q18 0 65 -4t62 -4h69l-63 -444v-4q0 -9 8.5 -18t18.5 -9q12 0 20 8l51 -37q-29 -32 -73 -32q-78 0 -84 79q-64 -79 -166 -79q-94 0 -141.5 68.5t-47.5 164.5zM248 1065q0 -66 32 -113t91 -47q87 0 155 101l21 28l37 264l-70 7 q-28 4 -37 4q-95 0 -162 -69t-67 -175z" />
<glyph unicode="&#xab;" horiz-adv-x="1241" d="M92 508q0 35 72 96l475 373l47 -66l-508 -399l397 -399l-67 -66l-365 377q-51 48 -51 84zM530 508q0 35 74 96l473 373l49 -66l-508 -399l398 -399l-70 -66l-364 377q-52 49 -52 84z" />
<glyph unicode="&#xac;" horiz-adv-x="974" d="M90 553l12 92h723l-47 -336h-100l35 244h-623z" />
<glyph unicode="&#xad;" horiz-adv-x="1212" d="M23 569l12 90h592l-13 -90h-591z" />
<glyph unicode="&#xae;" horiz-adv-x="1501" d="M143 772q0 38 7 96q20 134 80 250t151 201q196 170 473 170q136 0 243.5 -45.5t176.5 -132.5q121 -139 121 -344q0 -24 -9 -103q-35 -260 -229 -444q-197 -174 -471 -174q-275 0 -422 178q-121 136 -121 348zM225 764q0 -176 97 -299q64 -73 160 -111.5t206 -38.5 q120 0 226 44.5t184 117.5q82 73 136 178t71 224q6 47 6 94q0 182 -94 301q-63 71 -158.5 108t-206.5 37q-115 0 -222 -40.5t-190 -116.5q-171 -148 -207 -398q-8 -70 -8 -100zM539 504q11 93 71 524q4 27 13.5 85t13.5 89h61q25 0 64.5 5t60.5 5q95 0 150 -47t55 -125 q0 -86 -50.5 -142.5t-125.5 -70.5q76 -17 100 -100l49 -176l-75 -31l-39 166q-13 63 -56.5 96t-111.5 33h-64l-45 -311h-71zM662 868h133q47 0 85 23.5t58 60.5t20 78q0 55 -41 85t-108 30q-50 0 -109 -15z" />
<glyph unicode="&#xaf;" horiz-adv-x="882" d="M197 1313l12 90h651l-12 -90h-651z" />
<glyph unicode="&#xb0;" horiz-adv-x="788" d="M178 1053q0 77 26.5 137.5t71 96.5t97 54.5t108.5 18.5q106 0 168 -58.5t62 -162.5q0 -76 -27 -137.5t-71.5 -98t-97 -55.5t-107.5 -19q-106 0 -168 59.5t-62 164.5zM264 1053q0 -67 39.5 -108.5t110.5 -41.5q91 0 151 67.5t60 166.5q0 67 -39.5 108t-108.5 41 q-94 0 -153.5 -69t-59.5 -164z" />
<glyph unicode="&#xb1;" horiz-adv-x="987" d="M16 2l11 80h747l-10 -80h-748zM94 561l12 78h330l47 334h88l-47 -334h330l-12 -78h-330l-47 -336h-88l47 336h-330z" />
<glyph unicode="&#xb2;" horiz-adv-x="587" d="M131 817l4 27q8 64 52 116.5t122 110.5q94 56 126 88q45 47 46 98q0 32 -25 53t-63 21q-50 0 -91 -29.5t-56 -76.5l-56 32q61 138 203 138q73 0 114.5 -35.5t41.5 -97.5q0 -42 -12 -75.5t-39.5 -62t-50 -46.5t-66.5 -48t-66 -47q-82 -57 -98 -96h309l-10 -70h-385z" />
<glyph unicode="&#xb3;" horiz-adv-x="610" d="M119 891l45 49q35 -38 64.5 -55t76.5 -17q66 0 113 34.5t47 92.5q0 41 -32.5 66.5t-74.5 28.5h-106l8 67h100q36 0 74.5 33t38.5 70q0 27 -26.5 44t-61.5 17q-59 0 -129 -49l-27 61l17 15q70 43 141 43q69 0 115.5 -35.5t46.5 -91.5q0 -35 -23.5 -74.5t-60.5 -63.5 q33 -18 53.5 -54.5t20.5 -80.5q0 -89 -67 -140.5t-157 -51.5q-113 0 -196 92z" />
<glyph unicode="&#xb4;" horiz-adv-x="612" d="M195 1239l344 244l45 -78l-365 -213z" />
<glyph unicode="&#xb5;" horiz-adv-x="1058" d="M-61 -520l215 1534h86l-99 -703l2 -2q-4 -46 -4 -63q0 -77 31 -125q48 -60 174 -60q120 0 203 64q91 58 180 164l102 725h86l-100 -727q-6 -43 -6 -80q0 -106 45 -168l-55 -47q-41 38 -54 78q-26 69 -20 143q-162 -231 -383 -231q-158 0 -233 75l-84 -577h-86z" />
<glyph unicode="&#xb6;" horiz-adv-x="1021" d="M76 819q0 125 44.5 218.5t123.5 144.5q139 80 465 80h96l153 -7l-176 -1251h-90l164 1161h-201l-163 -1161h-95l76 520q-258 21 -336 111q-61 70 -61 184z" />
<glyph unicode="&#xb7;" horiz-adv-x="430" d="M92 657q0 51 35.5 87t85.5 36q44 0 72 -28.5t28 -71.5q0 -49 -36.5 -85t-86.5 -36q-42 0 -70 28t-28 70z" />
<glyph unicode="&#xb8;" horiz-adv-x="499" d="M2 -176l43 172h96l-37 -102q63 -4 95 -42.5t32 -97.5q0 -85 -56 -158t-150 -77l6 82q51 6 87 51.5t36 91.5q0 37 -26 58.5t-75 21.5h-51z" />
<glyph unicode="&#xb9;" horiz-adv-x="417" d="M211 1294q6 -2 12 -2q33 0 69.5 18t103.5 60q7 5 12 8l10 6l22 -2l-82 -581h-69l67 467q-65 -44 -133 -41z" />
<glyph unicode="&#xba;" horiz-adv-x="817" d="M186 1102q0 68 27 136.5t78 117.5q90 78 213 78q125 0 188 -84q53 -59 53 -152q0 -150 -102 -260q-93 -80 -209 -80q-131 0 -192 86q-56 62 -56 158zM262 1098q0 -70 27 -115q49 -59 139 -59q104 0 177 81t73 191q0 66 -35 117q-47 55 -139 55t-159 -58t-79 -149 q-4 -23 -4 -63z" />
<glyph unicode="&#xbb;" horiz-adv-x="1241" d="M53 113l508 399l-397 399l67 66l365 -377q51 -48 51 -84q0 -35 -72 -96l-475 -373zM492 113l507 399l-397 399l70 66l362 -377q53 -56 53 -88q0 -31 -73 -92l-473 -373z" />
<glyph unicode="&#xbc;" horiz-adv-x="1435" d="M162 930q6 -2 12 -2q33 0 69.5 18t103.5 60q15 9 22 14l22 -2l-82 -582h-69l67 467q-65 -44 -133 -41zM285 2l587 1016h91l-586 -1016h-92zM799 106l6 54l233 413h78l-225 -397h182l27 184h71l-26 -184h72l-9 -70h-71l-17 -108h-71l16 108h-266z" />
<glyph unicode="&#xbd;" horiz-adv-x="1417" d="M162 930q6 -2 12 -2q33 0 69.5 18t103.5 60q15 9 22 14l22 -2l-82 -582h-69l67 467q-65 -44 -133 -41zM285 2l587 1016h91l-586 -1016h-92zM788 -8l5 26q8 65 52.5 117.5t121.5 110.5q94 56 126 88q45 47 46 98q0 32 -25 53t-63 21q-50 0 -91.5 -30t-56.5 -77l-55 33 q61 137 203 137q73 0 114 -35.5t41 -97.5q0 -42 -12 -75t-39 -62t-49.5 -46.5t-66.5 -47.5t-66 -47q-83 -57 -99 -97h310l-10 -69h-386z" />
<glyph unicode="&#xbe;" horiz-adv-x="1628" d="M106 526l46 49q35 -38 64.5 -54.5t76.5 -16.5q66 0 113 34.5t47 92.5q0 41 -32 66t-75 28h-106l8 68h100q36 0 74.5 32.5t38.5 69.5q0 27 -26.5 44t-61.5 17q-59 0 -129 -49l-27 62l16 14q70 43 142 43q69 0 115.5 -35.5t46.5 -91.5q0 -35 -23.5 -74t-60.5 -63 q33 -17 53 -54t20 -81q0 -89 -67 -141t-156 -52q-114 0 -197 92zM477 2l588 1016h90l-586 -1016h-92zM991 106l6 54l234 413h78l-226 -397h183l26 184h72l-27 -184h72l-8 -70h-72l-16 -108h-72l16 108h-266z" />
<glyph unicode="&#xbf;" horiz-adv-x="1015" d="M137 37q0 21 4 67q13 95 60 170q21 36 47 65.5t62.5 57t56.5 41t65 41.5q10 5 41.5 21.5t39 21t31.5 17.5t32 18.5t25.5 16.5t26.5 19t21 19t23 23q51 51 61 119q2 23 2 71l82 15q3 -44 -6 -95q-12 -87 -51 -143q-10 -13 -20.5 -24.5t-24 -23.5t-23 -20.5t-27.5 -20 t-26 -17t-28.5 -17.5t-26 -15t-29 -16t-25.5 -14q-93 -44 -150 -87t-93 -99q-70 -90 -70 -203q0 -119 82.5 -193.5t202.5 -74.5q64 0 135 22.5t123.5 66.5t52.5 95t-70 57l-10 82h8q75 0 113.5 -33.5t38.5 -89.5q0 -100 -78.5 -169t-189.5 -97q-66 -16 -129 -16 q-96 0 -176.5 39.5t-131.5 119t-51 183.5zM684 1028q0 40 26.5 68t65.5 28q34 0 56 -20.5t22 -52.5q0 -38 -27.5 -67.5t-64.5 -29.5q-34 0 -56 21t-22 53z" />
<glyph unicode="&#xc0;" horiz-adv-x="1650" d="M-25 127l93 12q14 -51 69 -51q28 0 51.5 15t34.5 38l725 1266h21l409 -1405h-100l-131 475h-637l-211 -381q-25 -50 -70.5 -76t-97.5 -26q-62 0 -106 37t-50 96zM561 567h559l-162 580l-2 -2l-20 112l-51 -112l2 2zM696 1794l68 78l274 -244l-37 -47z" />
<glyph unicode="&#xc1;" horiz-adv-x="1650" d="M-25 127l93 12q14 -51 69 -51q28 0 51.5 15t34.5 38l725 1266h21l409 -1405h-100l-131 475h-637l-211 -381q-25 -50 -70.5 -76t-97.5 -26q-62 0 -106 37t-50 96zM561 567h559l-162 580l-2 -2l-20 112l-51 -112l2 2zM950 1628l344 244l45 -78l-364 -213z" />
<glyph unicode="&#xc2;" horiz-adv-x="1650" d="M-25 127l93 12q14 -51 69 -51q28 0 51.5 15t34.5 38l725 1266h21l409 -1405h-100l-131 475h-637l-211 -381q-25 -50 -70.5 -76t-97.5 -26q-62 0 -106 37t-50 96zM561 567h559l-162 580l-2 -2l-20 112l-51 -112l2 2zM717 1655l268 268h88l197 -268h-103l-147 194 l-203 -194h-100z" />
<glyph unicode="&#xc3;" horiz-adv-x="1650" d="M-25 127l93 12q14 -51 69 -51q28 0 51.5 15t34.5 38l725 1266h21l409 -1405h-100l-131 475h-637l-211 -381q-25 -50 -70.5 -76t-97.5 -26q-62 0 -106 37t-50 96zM561 567h559l-162 580l-2 -2l-20 112l-51 -112l2 2zM653 1743q111 80 211 80q64 0 151 -37t132 -37 q69 0 164 66l45 -68q-60 -42 -103 -59t-112 -17q-58 0 -146.5 35t-130.5 35q-71 0 -166 -66z" />
<glyph unicode="&#xc4;" horiz-adv-x="1650" d="M-25 127l93 12q14 -51 69 -51q28 0 51.5 15t34.5 38l725 1266h21l409 -1405h-100l-131 475h-637l-211 -381q-25 -50 -70.5 -76t-97.5 -26q-62 0 -106 37t-50 96zM561 567h559l-162 580l-2 -2l-20 112l-51 -112l2 2zM610 1692q0 35 23 58.5t57 23.5q31 0 49.5 -18.5 t18.5 -47.5q0 -35 -24 -58.5t-58 -23.5q-30 0 -48 18t-18 48zM1075 1692q0 35 23 58.5t57 23.5q31 0 49.5 -18.5t18.5 -47.5q0 -35 -24 -58.5t-58 -23.5q-30 0 -48 18t-18 48z" />
<glyph unicode="&#xc5;" horiz-adv-x="1650" d="M-25 127l93 12q14 -51 69 -51q28 0 51.5 15t34.5 38l725 1266h21l409 -1405h-100l-131 475h-637l-211 -381q-25 -50 -70.5 -76t-97.5 -26q-62 0 -106 37t-50 96zM561 567h559l-162 580l-2 -2l-20 112l-51 -112l2 2zM805 1698q0 108 61.5 172.5t161.5 64.5q84 0 129 -44 t45 -122q0 -108 -64.5 -171.5t-162.5 -63.5q-82 0 -126 44t-44 120zM879 1702q0 -50 27.5 -78.5t72.5 -28.5q64 0 109 50t45 118q0 48 -29 78.5t-76 30.5q-64 0 -106.5 -49.5t-42.5 -120.5z" />
<glyph unicode="&#xc6;" horiz-adv-x="1906" d="M-43 2l932 1401h960l-12 -90h-809l-74 -525h662l-12 -90h-662l-86 -606h850l-12 -90h-949l68 475h-424l-313 -475h-119zM442 567h383l115 819l-76 -167z" />
<glyph unicode="&#xc7;" horiz-adv-x="1503" d="M94 584q0 61 8 110q28 204 150 379.5t303 279t375 103.5q125 0 243 -43.5t160 -130.5q27 -46 27 -98q0 -86 -56 -146.5t-133 -60.5q-47 0 -94 31l60 65q24 -12 41 -12q39 0 69.5 36t30.5 81q0 42 -27 82q-48 56 -139.5 83t-183.5 27q-131 0 -259 -56.5t-228 -149.5 t-169 -218.5t-88 -259.5q-6 -46 -6 -92q0 -153 67.5 -279t192.5 -200t283 -74q150 0 291.5 68t240.5 184l66 -51q-119 -141 -278 -213t-326 -72q-136 0 -253 48.5t-197 132.5t-125.5 199.5t-45.5 246.5zM580 -219l43 172h96l-37 -103q63 -4 95 -42t32 -97 q0 -53 -22.5 -104.5t-71.5 -89.5t-113 -41l6 82q51 6 87 51.5t36 91.5q0 37 -25.5 58.5t-74.5 21.5h-51z" />
<glyph unicode="&#xc8;" horiz-adv-x="1312" d="M123 1214q14 71 72 129q76 60 151 60h950l-12 -88h-807l-74 -527h558l-13 -90h-557l-86 -606h807l-12 -90h-905l186 1313q-49 0 -76.5 -9t-48.5 -30q-30 -20 -45 -66zM571 1790l68 78l274 -244l-36 -47z" />
<glyph unicode="&#xc9;" horiz-adv-x="1312" d="M123 1214q14 71 72 129q76 60 151 60h950l-12 -88h-807l-74 -527h558l-13 -90h-557l-86 -606h807l-12 -90h-905l186 1313q-49 0 -76.5 -9t-48.5 -30q-30 -20 -45 -66zM825 1624l344 244l45 -78l-364 -213z" />
<glyph unicode="&#xca;" horiz-adv-x="1312" d="M123 1214q14 71 72 129q76 60 151 60h950l-12 -88h-807l-74 -527h558l-13 -90h-557l-86 -606h807l-12 -90h-905l186 1313q-49 0 -76.5 -9t-48.5 -30q-30 -20 -45 -66zM592 1651l268 268h88l197 -268h-103l-147 194l-203 -194h-100z" />
<glyph unicode="&#xcb;" horiz-adv-x="1312" d="M123 1214q14 71 72 129q76 60 151 60h950l-12 -88h-807l-74 -527h558l-13 -90h-557l-86 -606h807l-12 -90h-905l186 1313q-49 0 -76.5 -9t-48.5 -30q-30 -20 -45 -66zM485 1688q0 35 23 58t57 23q31 0 49.5 -18t18.5 -47q0 -35 -24 -58.5t-58 -23.5q-30 0 -48 18t-18 48z M950 1688q0 35 23 58t57 23q31 0 49.5 -18t18.5 -47q0 -35 -24 -58.5t-58 -23.5q-30 0 -48 18t-18 48z" />
<glyph unicode="&#xcc;" horiz-adv-x="385" d="M14 1790l68 78l274 -244l-37 -47zM35 2l196 1401h99l-197 -1401h-98z" />
<glyph unicode="&#xcd;" horiz-adv-x="385" d="M35 2l196 1401h99l-197 -1401h-98zM268 1624l344 244l45 -78l-364 -213z" />
<glyph unicode="&#xce;" horiz-adv-x="385" d="M35 2l196 1401h99l-197 -1401h-98zM35 1651l268 268h88l197 -268h-103l-147 194l-203 -194h-100z" />
<glyph unicode="&#xcf;" horiz-adv-x="385" d="M-72 1688q0 35 23 58t57 23q31 0 49.5 -18t18.5 -47q0 -35 -24 -58.5t-58 -23.5q-30 0 -48 18t-18 48zM35 2l196 1401h99l-197 -1401h-98zM393 1688q0 35 23 58t57 23q31 0 49.5 -18t18.5 -47q0 -35 -24 -58.5t-58 -23.5q-30 0 -48 18t-18 48z" />
<glyph unicode="&#xd0;" horiz-adv-x="1640" d="M51 633l12 90h252l86 604q-101 4 -145 -43q-33 -22 -43 -61l-88 4q13 75 74 131q71 58 151 55h625q266 -23 411.5 -179t145.5 -417q0 -60 -10 -145q-50 -357 -294 -522.5t-691 -165.5q-148 0 -240 8l-55 4l-29 4l90 633h-252zM324 92l10 -14q255 -10 354 -10 q296 0 498 166.5t244 463.5q8 52 8 115q0 228 -130.5 365t-361.5 149h-448l-86 -604h243l-12 -90h-244z" />
<glyph unicode="&#xd1;" horiz-adv-x="1589" d="M-25 156l86 -4q1 -32 22.5 -51t49.5 -19q38 0 68 27.5t35 58.5l174 1235h57l192 -256l590 -854v2l43 -88l162 1194h94l-196 -1399h-17l-815 1172v-3l-43 86l-145 -1093q-8 -55 -44 -95.5t-79.5 -57.5t-85.5 -17q-67 0 -110.5 47t-37.5 115zM676 1739q111 80 211 80 q64 0 150.5 -37t131.5 -37q71 0 164 65l45 -67q-60 -42 -103 -59t-112 -17q-58 0 -146 35t-130 35q-71 0 -166 -66z" />
<glyph unicode="&#xd2;" horiz-adv-x="1648" d="M94 575q0 35 8 105l4 39q20 145 94 279t182 233t249 158t289 59q136 0 253 -49.5t198 -134.5t127 -201t46 -246q0 -49 -6 -102l-6 -39q-20 -149 -93.5 -283.5t-181 -232.5t-247 -155.5t-285.5 -57.5q-181 0 -326 83.5t-225 226.5t-80 318zM182 586q0 -155 70.5 -282.5 t194.5 -200t276 -72.5q128 0 252.5 52.5t221 140.5t163.5 207.5t86 248.5l4 39q6 46 6 92q0 116 -42 218.5t-114.5 175.5t-173 115t-213.5 42q-130 0 -254.5 -53.5t-220 -142t-161 -207t-82.5 -244.5l-7 -39q-6 -46 -6 -90zM653 1790l68 78l274 -244l-37 -47z" />
<glyph unicode="&#xd3;" horiz-adv-x="1648" d="M94 575q0 35 8 105l4 39q20 145 94 279t182 233t249 158t289 59q136 0 253 -49.5t198 -134.5t127 -201t46 -246q0 -49 -6 -102l-6 -39q-20 -149 -93.5 -283.5t-181 -232.5t-247 -155.5t-285.5 -57.5q-181 0 -326 83.5t-225 226.5t-80 318zM182 586q0 -155 70.5 -282.5 t194.5 -200t276 -72.5q128 0 252.5 52.5t221 140.5t163.5 207.5t86 248.5l4 39q6 46 6 92q0 116 -42 218.5t-114.5 175.5t-173 115t-213.5 42q-130 0 -254.5 -53.5t-220 -142t-161 -207t-82.5 -244.5l-7 -39q-6 -46 -6 -90zM907 1624l344 244l45 -78l-364 -213z" />
<glyph unicode="&#xd4;" horiz-adv-x="1648" d="M94 575q0 35 8 105l4 39q20 145 94 279t182 233t249 158t289 59q136 0 253 -49.5t198 -134.5t127 -201t46 -246q0 -49 -6 -102l-6 -39q-20 -149 -93.5 -283.5t-181 -232.5t-247 -155.5t-285.5 -57.5q-181 0 -326 83.5t-225 226.5t-80 318zM182 586q0 -155 70.5 -282.5 t194.5 -200t276 -72.5q128 0 252.5 52.5t221 140.5t163.5 207.5t86 248.5l4 39q6 46 6 92q0 116 -42 218.5t-114.5 175.5t-173 115t-213.5 42q-130 0 -254.5 -53.5t-220 -142t-161 -207t-82.5 -244.5l-7 -39q-6 -46 -6 -90zM674 1651l268 268h88l197 -268h-103l-147 194 l-203 -194h-100z" />
<glyph unicode="&#xd5;" horiz-adv-x="1648" d="M94 575q0 35 8 105l4 39q20 145 94 279t182 233t249 158t289 59q136 0 253 -49.5t198 -134.5t127 -201t46 -246q0 -49 -6 -102l-6 -39q-20 -149 -93.5 -283.5t-181 -232.5t-247 -155.5t-285.5 -57.5q-181 0 -326 83.5t-225 226.5t-80 318zM182 586q0 -155 70.5 -282.5 t194.5 -200t276 -72.5q128 0 252.5 52.5t221 140.5t163.5 207.5t86 248.5l4 39q6 46 6 92q0 116 -42 218.5t-114.5 175.5t-173 115t-213.5 42q-130 0 -254.5 -53.5t-220 -142t-161 -207t-82.5 -244.5l-7 -39q-6 -46 -6 -90zM610 1739q111 80 211 80q64 0 151 -37t132 -37 q71 0 164 65l45 -67q-60 -42 -103 -59t-112 -17q-58 0 -146.5 35t-130.5 35q-71 0 -166 -66z" />
<glyph unicode="&#xd6;" horiz-adv-x="1648" d="M94 575q0 35 8 105l4 39q20 145 94 279t182 233t249 158t289 59q136 0 253 -49.5t198 -134.5t127 -201t46 -246q0 -49 -6 -102l-6 -39q-20 -149 -93.5 -283.5t-181 -232.5t-247 -155.5t-285.5 -57.5q-181 0 -326 83.5t-225 226.5t-80 318zM182 586q0 -155 70.5 -282.5 t194.5 -200t276 -72.5q128 0 252.5 52.5t221 140.5t163.5 207.5t86 248.5l4 39q6 46 6 92q0 116 -42 218.5t-114.5 175.5t-173 115t-213.5 42q-130 0 -254.5 -53.5t-220 -142t-161 -207t-82.5 -244.5l-7 -39q-6 -46 -6 -90zM567 1688q0 35 23 58t57 23q31 0 49.5 -18 t18.5 -47q0 -35 -24 -58.5t-58 -23.5q-30 0 -48 18t-18 48zM1032 1688q0 35 23 58t57 23q31 0 49.5 -18t18.5 -47q0 -35 -24 -58.5t-58 -23.5q-30 0 -48 18t-18 48z" />
<glyph unicode="&#xd7;" horiz-adv-x="1034" d="M70 229l354 312l-256 299l80 69l256 -299l338 299l55 -65l-338 -297l268 -311l-79 -68l-267 311l-356 -313z" />
<glyph unicode="&#xd8;" horiz-adv-x="1648" d="M94 575q0 35 8 105l4 39q20 145 94 279t182 233t249 158t289 59q182 0 329 -88l11 12l98 -29l-31 -38q104 -88 160.5 -214.5t56.5 -273.5q0 -49 -6 -102l-6 -39q-20 -149 -93.5 -283.5t-181 -232.5t-247 -155.5t-285.5 -57.5q-231 0 -399 133l-117 -146l-98 31l145 180 q-77 84 -119.5 195t-42.5 235zM182 586q0 -218 131 -371l879 1073q-129 74 -279 74q-130 0 -254.5 -53.5t-220 -142t-161 -207t-82.5 -244.5l-7 -39q-6 -46 -6 -90zM383 147q141 -116 340 -116q128 0 252.5 52.5t221 140.5t163.5 207.5t86 248.5l4 39q6 46 6 92 q0 128 -49 237.5t-137 184.5z" />
<glyph unicode="&#xd9;" horiz-adv-x="1515" d="M141 1352q69 69 158 69q81 0 125.5 -38.5t44.5 -112.5q0 -13 -4 -41l-96 -684q-7 -51 -7 -86q0 -173 97.5 -281t285.5 -108q115 0 211 43t157 114t98.5 152.5t50.5 169.5l118 856h99l-121 -860q-12 -85 -42 -164.5t-82.5 -152t-121 -126.5t-164 -86t-205.5 -32 q-118 0 -210.5 36t-150 100t-87 148t-29.5 183q0 49 6 98l95 684l2 20q0 39 -21.5 55.5t-48.5 16.5q-43 0 -80 -33zM672 1790l67 78l275 -244l-37 -47z" />
<glyph unicode="&#xda;" horiz-adv-x="1515" d="M141 1352q69 69 158 69q81 0 125.5 -38.5t44.5 -112.5q0 -13 -4 -41l-96 -684q-7 -51 -7 -86q0 -173 97.5 -281t285.5 -108q115 0 211 43t157 114t98.5 152.5t50.5 169.5l118 856h99l-121 -860q-12 -85 -42 -164.5t-82.5 -152t-121 -126.5t-164 -86t-205.5 -32 q-118 0 -210.5 36t-150 100t-87 148t-29.5 183q0 49 6 98l95 684l2 20q0 39 -21.5 55.5t-48.5 16.5q-43 0 -80 -33zM926 1624l344 244l45 -78l-365 -213z" />
<glyph unicode="&#xdb;" horiz-adv-x="1515" d="M141 1352q69 69 158 69q81 0 125.5 -38.5t44.5 -112.5q0 -13 -4 -41l-96 -684q-7 -51 -7 -86q0 -173 97.5 -281t285.5 -108q115 0 211 43t157 114t98.5 152.5t50.5 169.5l118 856h99l-121 -860q-12 -85 -42 -164.5t-82.5 -152t-121 -126.5t-164 -86t-205.5 -32 q-118 0 -210.5 36t-150 100t-87 148t-29.5 183q0 49 6 98l95 684l2 20q0 39 -21.5 55.5t-48.5 16.5q-43 0 -80 -33zM692 1651l269 268h88l196 -268h-102l-148 194l-202 -194h-101z" />
<glyph unicode="&#xdc;" horiz-adv-x="1515" d="M141 1352q69 69 158 69q81 0 125.5 -38.5t44.5 -112.5q0 -13 -4 -41l-96 -684q-7 -51 -7 -86q0 -173 97.5 -281t285.5 -108q115 0 211 43t157 114t98.5 152.5t50.5 169.5l118 856h99l-121 -860q-12 -85 -42 -164.5t-82.5 -152t-121 -126.5t-164 -86t-205.5 -32 q-118 0 -210.5 36t-150 100t-87 148t-29.5 183q0 49 6 98l95 684l2 20q0 39 -21.5 55.5t-48.5 16.5q-43 0 -80 -33zM586 1688q0 35 23 58t57 23q31 0 49 -18t18 -47q0 -35 -24 -58.5t-58 -23.5q-30 0 -47.5 18t-17.5 48zM1051 1688q0 35 22.5 58t56.5 23q31 0 49.5 -18 t18.5 -47q0 -35 -24 -58.5t-58 -23.5q-30 0 -47.5 18t-17.5 48z" />
<glyph unicode="&#xdd;" horiz-adv-x="1280" d="M133 1280q21 68 77 105.5t120 37.5q96 0 139 -96l252 -604l475 682h113l-553 -789l-82 -614h-109l92 610l-272 676q-23 41 -68 41q-27 0 -54.5 -18t-37.5 -45zM801 1624l344 244l45 -78l-365 -213z" />
<glyph unicode="&#xde;" horiz-adv-x="1077" d="M33 2l196 1401h99l-35 -254h338q159 -9 246.5 -99t87.5 -245q0 -32 -7 -86q-31 -218 -177.5 -324t-366.5 -106q-64 0 -105 6l8 86q49 -8 105 -8q90 0 169 26t142 77t100 134.5t37 190.5q0 128 -75.5 196t-210.5 68h-303l-150 -1063h-98z" />
<glyph unicode="&#xdf;" horiz-adv-x="1040" d="M-41 -520l217 1542q15 107 40.5 189t69.5 152t114 107t163 37q122 0 187 -57t65 -156q0 -73 -27 -133.5t-65 -100t-76 -73.5t-65 -69t-27 -70q0 -41 18 -74t47.5 -57t61 -44.5t66.5 -46t55 -51.5q69 -75 69 -194q0 -33 -6 -68q-46 -331 -458 -331q-64 0 -263 16h-26 l-74 -518h-86zM127 80q149 -19 250 -19q193 0 290 60t117 198q4 36 4 54q0 106 -71 186q-30 30 -79.5 64t-82 56t-57.5 62.5t-25 94.5q0 52 23 94.5t57 75t69 64.5t64 79t37 104q2 10 2 29q0 69 -47 107t-121 38q-59 0 -106.5 -24t-78 -61t-53.5 -92.5t-35.5 -108 t-21.5 -117.5z" />
<glyph unicode="&#xe0;" d="M70 395q0 284 159 461.5t414 177.5q115 0 248 -18h104l-123 -862q-4 -39 19 -62.5t55 -23.5q40 0 68 28l69 -51q-55 -63 -139 -63q-70 0 -114 43t-44 110q0 19 2 27l9 35q-109 -215 -357 -215q-182 0 -276 115t-94 298zM160 412q0 -72 17 -134t50 -111t89 -77.5 t128 -28.5q101 0 188.5 51.5t135.5 131.5q39 58 51 139l80 555q-29 -1 -131 7.5t-141 8.5q-126 0 -226 -62t-158.5 -163t-76.5 -227q-6 -47 -6 -90zM360 1421l68 78l274 -244l-36 -47z" />
<glyph unicode="&#xe1;" d="M70 395q0 284 159 461.5t414 177.5q115 0 248 -18h104l-123 -862q-4 -39 19 -62.5t55 -23.5q40 0 68 28l69 -51q-55 -63 -139 -63q-70 0 -114 43t-44 110q0 19 2 27l9 35q-109 -215 -357 -215q-182 0 -276 115t-94 298zM160 412q0 -72 17 -134t50 -111t89 -77.5 t128 -28.5q101 0 188.5 51.5t135.5 131.5q39 58 51 139l80 555q-29 -1 -131 7.5t-141 8.5q-126 0 -226 -62t-158.5 -163t-76.5 -227q-6 -47 -6 -90zM614 1255l344 244l46 -78l-365 -213z" />
<glyph unicode="&#xe2;" d="M70 395q0 284 159 461.5t414 177.5q115 0 248 -18h104l-123 -862q-4 -39 19 -62.5t55 -23.5q40 0 68 28l69 -51q-55 -63 -139 -63q-70 0 -114 43t-44 110q0 19 2 27l9 35q-109 -215 -357 -215q-182 0 -276 115t-94 298zM160 412q0 -72 17 -134t50 -111t89 -77.5 t128 -28.5q101 0 188.5 51.5t135.5 131.5q39 58 51 139l80 555q-29 -1 -131 7.5t-141 8.5q-126 0 -226 -62t-158.5 -163t-76.5 -227q-6 -47 -6 -90zM381 1282l268 268h88l197 -268h-103l-147 195l-203 -195h-100z" />
<glyph unicode="&#xe3;" d="M70 395q0 284 159 461.5t414 177.5q115 0 248 -18h104l-123 -862q-4 -39 19 -62.5t55 -23.5q40 0 68 28l69 -51q-55 -63 -139 -63q-70 0 -114 43t-44 110q0 19 2 27l9 35q-109 -215 -357 -215q-182 0 -276 115t-94 298zM160 412q0 -72 17 -134t50 -111t89 -77.5 t128 -28.5q101 0 188.5 51.5t135.5 131.5q39 58 51 139l80 555q-29 -1 -131 7.5t-141 8.5q-126 0 -226 -62t-158.5 -163t-76.5 -227q-6 -47 -6 -90zM317 1370q111 80 211 80q64 0 151 -37t132 -37q69 0 164 66l45 -68q-60 -42 -103 -59t-112 -17q-58 0 -146.5 35t-130.5 35 q-73 0 -166 -65z" />
<glyph unicode="&#xe4;" d="M70 395q0 284 159 461.5t414 177.5q115 0 248 -18h104l-123 -862q-4 -39 19 -62.5t55 -23.5q40 0 68 28l69 -51q-55 -63 -139 -63q-70 0 -114 43t-44 110q0 19 2 27l9 35q-109 -215 -357 -215q-182 0 -276 115t-94 298zM160 412q0 -72 17 -134t50 -111t89 -77.5 t128 -28.5q101 0 188.5 51.5t135.5 131.5q39 58 51 139l80 555q-29 -1 -131 7.5t-141 8.5q-126 0 -226 -62t-158.5 -163t-76.5 -227q-6 -47 -6 -90zM274 1319q0 35 23 58.5t57 23.5q31 0 49.5 -18.5t18.5 -47.5q0 -35 -24 -58.5t-58 -23.5q-30 0 -48 18t-18 48zM739 1319 q0 35 23 58.5t57 23.5q31 0 49.5 -18.5t18.5 -47.5q0 -35 -24 -58.5t-58 -23.5q-30 0 -48 18t-18 48z" />
<glyph unicode="&#xe5;" d="M70 395q0 284 159 461.5t414 177.5q115 0 248 -18h104l-123 -862q-4 -39 19 -62.5t55 -23.5q40 0 68 28l69 -51q-55 -63 -139 -63q-70 0 -114 43t-44 110q0 19 2 27l9 35q-109 -215 -357 -215q-182 0 -276 115t-94 298zM160 412q0 -72 17 -134t50 -111t89 -77.5 t128 -28.5q101 0 188.5 51.5t135.5 131.5q39 58 51 139l80 555q-29 -1 -131 7.5t-141 8.5q-126 0 -226 -62t-158.5 -163t-76.5 -227q-6 -47 -6 -90zM469 1325q0 108 61.5 173t161.5 65q84 0 129 -44t45 -122q0 -109 -64.5 -172.5t-162.5 -63.5q-82 0 -126 44t-44 120z M543 1329q0 -50 27.5 -78t72.5 -28q64 0 109 50t45 118q0 48 -29 78t-76 30q-64 0 -106.5 -49.5t-42.5 -120.5z" />
<glyph unicode="&#xe6;" horiz-adv-x="1685" d="M39 215q0 115 55 193q33 44 84.5 75t110.5 46t112 21.5t107 6.5h219l18 135q7 54 7 82q0 73 -31 121q-51 59 -160 59q-50 0 -100.5 -10.5t-81.5 -23.5q-70 -22 -146 -74l-34 67q68 52 162 86.5t198 34.5q75 0 118.5 -15.5t72.5 -47.5q76 -62 79 -193q42 71 86 118t97 83 q51 29 99.5 42t111.5 13q76 0 140.5 -22t106.5 -64q82 -72 82 -178q0 -105 -57 -190q-82 -107 -258 -144q-77 -15 -174 -18h-264q-3 -91 11.5 -158t55.5 -117q82 -82 242 -82q63 0 129.5 16t107 32.5t103.5 46.5l33 -66q-76 -46 -176 -77t-201 -31q-150 0 -242 67 q-52 34 -83 82.5t-50 138.5q-6 -8 -15 -35.5t-19.5 -56t-40.5 -66t-74 -67.5q-110 -63 -248 -63q-154 0 -226 75q-67 57 -67 158zM129 215q0 -37 11.5 -65t30 -44.5t45 -27t52 -14t54.5 -3.5q147 0 249 80q35 25 62 60t44 75.5t23 83.5l17 121h-215q-144 0 -230 -37 q-70 -32 -106.5 -92t-36.5 -137zM805 500h264q201 0 299 78q50 35 72 86.5t22 105.5q0 39 -12.5 71.5t-34 54.5t-51 36.5t-62.5 21.5t-69 7q-89 0 -162 -40t-123 -104q-39 -44 -70 -98t-49.5 -110t-23.5 -109z" />
<glyph unicode="&#xe7;" horiz-adv-x="1044" d="M68 381q0 34 8 108q23 157 91.5 281.5t178.5 198t244 73.5q138 0 231.5 -71.5t93.5 -190.5q0 -4 -1 -13.5t-1 -14.5l-86 4q9 101 -59.5 157t-171.5 56q-75 0 -141 -29.5t-114 -78.5t-85.5 -113.5t-59.5 -132t-32 -136.5q-6 -46 -6 -88q0 -151 82 -236t231 -85 q85 0 164.5 25t175.5 71l35 -68q-176 -102 -352 -108l-35 -96q63 -4 95 -42.5t32 -97.5q0 -53 -22.5 -104.5t-71.5 -89.5t-113 -41l6 82q51 6 87 51.5t36 91.5q0 37 -25.5 58.5t-74.5 21.5h-52l43 170q-165 17 -248 118t-83 269z" />
<glyph unicode="&#xe8;" horiz-adv-x="1048" d="M66 371q0 32 8 102q11 82 37.5 160t71 151.5t102.5 128.5t138 88t171 33q142 0 231.5 -71t89.5 -193q0 -168 -131.5 -259t-357.5 -93h-264q-16 -357 303 -357q88 0 166 24.5t180 72.5l33 -68q-183 -108 -381 -108q-200 0 -298.5 104.5t-98.5 284.5zM168 500h264 q83 0 151 14t124.5 44t88 84t31.5 128q0 92 -66.5 141.5t-162.5 49.5q-77 0 -146 -32t-117 -82t-85 -112.5t-56.5 -122t-25.5 -112.5zM330 1421l67 78l275 -244l-37 -47z" />
<glyph unicode="&#xe9;" horiz-adv-x="1048" d="M66 371q0 32 8 102q11 82 37.5 160t71 151.5t102.5 128.5t138 88t171 33q142 0 231.5 -71t89.5 -193q0 -168 -131.5 -259t-357.5 -93h-264q-16 -357 303 -357q88 0 166 24.5t180 72.5l33 -68q-183 -108 -381 -108q-200 0 -298.5 104.5t-98.5 284.5zM168 500h264 q83 0 151 14t124.5 44t88 84t31.5 128q0 92 -66.5 141.5t-162.5 49.5q-77 0 -146 -32t-117 -82t-85 -112.5t-56.5 -122t-25.5 -112.5zM584 1255l344 244l45 -78l-365 -213z" />
<glyph unicode="&#xea;" horiz-adv-x="1048" d="M66 371q0 32 8 102q11 82 37.5 160t71 151.5t102.5 128.5t138 88t171 33q142 0 231.5 -71t89.5 -193q0 -168 -131.5 -259t-357.5 -93h-264q-16 -357 303 -357q88 0 166 24.5t180 72.5l33 -68q-183 -108 -381 -108q-200 0 -298.5 104.5t-98.5 284.5zM168 500h264 q83 0 151 14t124.5 44t88 84t31.5 128q0 92 -66.5 141.5t-162.5 49.5q-77 0 -146 -32t-117 -82t-85 -112.5t-56.5 -122t-25.5 -112.5zM350 1282l268 268h89l196 -268h-102l-148 195l-202 -195h-101z" />
<glyph unicode="&#xeb;" horiz-adv-x="1048" d="M66 371q0 32 8 102q11 82 37.5 160t71 151.5t102.5 128.5t138 88t171 33q142 0 231.5 -71t89.5 -193q0 -168 -131.5 -259t-357.5 -93h-264q-16 -357 303 -357q88 0 166 24.5t180 72.5l33 -68q-183 -108 -381 -108q-200 0 -298.5 104.5t-98.5 284.5zM168 500h264 q83 0 151 14t124.5 44t88 84t31.5 128q0 92 -66.5 141.5t-162.5 49.5q-77 0 -146 -32t-117 -82t-85 -112.5t-56.5 -122t-25.5 -112.5zM244 1319q0 35 23 58.5t57 23.5q30 0 48.5 -18.5t18.5 -47.5q0 -35 -24 -58.5t-58 -23.5q-30 0 -47.5 18t-17.5 48zM709 1319 q0 35 22.5 58.5t56.5 23.5q31 0 49.5 -18.5t18.5 -47.5q0 -35 -24 -58.5t-58 -23.5q-30 0 -47.5 18t-17.5 48z" />
<glyph unicode="&#xec;" horiz-adv-x="454" d="M-63 1405l67 78l275 -244l-37 -47zM33 131q0 19 2 27l121 860h86l-123 -864q-4 -36 19.5 -61t54.5 -25q37 0 65 28l70 -51q-57 -63 -140 -63q-69 0 -112 42t-43 107z" />
<glyph unicode="&#xed;" horiz-adv-x="454" d="M33 131q0 19 2 27l121 860h86l-123 -864q-4 -36 19.5 -61t54.5 -25q37 0 65 28l70 -51q-57 -63 -140 -63q-69 0 -112 42t-43 107zM190 1239l345 244l45 -78l-365 -213z" />
<glyph unicode="&#xee;" horiz-adv-x="454" d="M-43 1266l268 268h88l197 -268h-102l-148 194l-203 -194h-100zM33 131q0 19 2 27l121 860h86l-123 -864q-4 -36 19.5 -61t54.5 -25q37 0 65 28l70 -51q-57 -63 -140 -63q-69 0 -112 42t-43 107z" />
<glyph unicode="&#xef;" horiz-adv-x="454" d="M-150 1303q0 35 23 58t57 23q31 0 49.5 -18t18.5 -47q0 -35 -24 -58.5t-58 -23.5q-30 0 -48 18t-18 48zM33 131q0 19 2 27l121 860h86l-123 -864q-4 -36 19.5 -61t54.5 -25q37 0 65 28l70 -51q-57 -63 -140 -63q-69 0 -112 42t-43 107zM315 1303q0 35 23 58t57 23 q31 0 49.5 -18t18.5 -47q0 -35 -24 -58.5t-58 -23.5q-30 0 -48 18t-18 48z" />
<glyph unicode="&#xf0;" horiz-adv-x="1206" d="M70 403q0 33 8 103q31 232 181.5 380t371.5 148q106 0 243 -26l-36 190l-207 -61l-10 86l198 63l-51 217l96 29l49 -217l211 61l13 -86l-207 -65q60 -301 80 -418t20 -191q0 -28 -8 -98q-35 -258 -172.5 -397t-355.5 -139q-204 0 -314 114t-110 307zM162 416 q0 -163 86 -259t246 -96q205 0 323.5 153t118.5 394q0 117 -41 316q-36 4 -78 12t-74.5 12t-72.5 4q-216 0 -345 -118t-157 -324q-6 -50 -6 -94z" />
<glyph unicode="&#xf1;" horiz-adv-x="1230" d="M70 2l102 725q6 43 6 80q0 103 -47 168l53 47q79 -69 76 -211q90 120 188.5 171.5t217.5 51.5q286 0 286 -252q0 -27 -2 -41l-84 -594q-6 -39 18 -62.5t56 -23.5q36 0 68 29l67 -51q-61 -64 -141 -64q-72 0 -114 43t-42 109q0 17 2 25l76 540q4 23 4 66q0 196 -209 196 q-115 0 -205 -56.5t-188 -166.5l-104 -729h-84zM350 1370q111 80 211 80q64 0 151 -37t132 -37q69 0 164 66l45 -68q-60 -42 -103 -59t-112 -17q-58 0 -146.5 35t-130.5 35q-73 0 -166 -65z" />
<glyph unicode="&#xf2;" horiz-adv-x="1228" d="M72 416q0 46 6 92q31 229 190 377.5t385 148.5q201 0 320 -120t119 -318q0 -36 -7 -94q-32 -233 -191 -376.5t-382 -143.5q-204 0 -322 119.5t-118 314.5zM160 422q0 -164 95 -262.5t261 -98.5q193 0 323.5 129.5t157.5 327.5q7 51 7 82q0 162 -95.5 258t-259.5 96 q-196 0 -326 -128.5t-157 -323.5q-6 -40 -6 -80zM393 1407l68 78l274 -244l-37 -47z" />
<glyph unicode="&#xf3;" horiz-adv-x="1228" d="M72 416q0 46 6 92q31 229 190 377.5t385 148.5q201 0 320 -120t119 -318q0 -36 -7 -94q-32 -233 -191 -376.5t-382 -143.5q-204 0 -322 119.5t-118 314.5zM160 422q0 -164 95 -262.5t261 -98.5q193 0 323.5 129.5t157.5 327.5q7 51 7 82q0 162 -95.5 258t-259.5 96 q-196 0 -326 -128.5t-157 -323.5q-6 -40 -6 -80zM647 1241l344 244l45 -78l-364 -213z" />
<glyph unicode="&#xf4;" horiz-adv-x="1228" d="M72 416q0 46 6 92q31 229 190 377.5t385 148.5q201 0 320 -120t119 -318q0 -36 -7 -94q-32 -233 -191 -376.5t-382 -143.5q-204 0 -322 119.5t-118 314.5zM160 422q0 -164 95 -262.5t261 -98.5q193 0 323.5 129.5t157.5 327.5q7 51 7 82q0 162 -95.5 258t-259.5 96 q-196 0 -326 -128.5t-157 -323.5q-6 -40 -6 -80zM414 1268l268 268h88l197 -268h-103l-147 194l-203 -194h-100z" />
<glyph unicode="&#xf5;" horiz-adv-x="1228" d="M72 416q0 46 6 92q31 229 190 377.5t385 148.5q201 0 320 -120t119 -318q0 -36 -7 -94q-32 -233 -191 -376.5t-382 -143.5q-204 0 -322 119.5t-118 314.5zM160 422q0 -164 95 -262.5t261 -98.5q193 0 323.5 129.5t157.5 327.5q7 51 7 82q0 162 -95.5 258t-259.5 96 q-196 0 -326 -128.5t-157 -323.5q-6 -40 -6 -80zM350 1356q111 80 211 80q64 0 151 -37t132 -37q71 0 164 65l45 -67q-60 -42 -103 -59t-112 -17q-58 0 -146.5 35t-130.5 35q-71 0 -166 -66z" />
<glyph unicode="&#xf6;" horiz-adv-x="1228" d="M72 416q0 46 6 92q31 229 190 377.5t385 148.5q201 0 320 -120t119 -318q0 -36 -7 -94q-32 -233 -191 -376.5t-382 -143.5q-204 0 -322 119.5t-118 314.5zM160 422q0 -164 95 -262.5t261 -98.5q193 0 323.5 129.5t157.5 327.5q7 51 7 82q0 162 -95.5 258t-259.5 96 q-196 0 -326 -128.5t-157 -323.5q-6 -40 -6 -80zM307 1305q0 35 23 58t57 23q31 0 49.5 -18t18.5 -47q0 -35 -24 -58.5t-58 -23.5q-30 0 -48 18t-18 48zM772 1305q0 35 23 58t57 23q31 0 49.5 -18t18.5 -47q0 -35 -24 -58.5t-58 -23.5q-30 0 -48 18t-18 48z" />
<glyph unicode="&#xf7;" horiz-adv-x="983" d="M92 561l12 78h748l-12 -78h-748zM260 266q0 35 23 58.5t57 23.5q31 0 49.5 -18t18.5 -47q0 -35 -24 -58.5t-58 -23.5q-30 0 -48 17.5t-18 47.5zM348 891q0 35 23 58.5t57 23.5q31 0 49.5 -18.5t18.5 -47.5q0 -35 -24 -58.5t-58 -23.5q-30 0 -48 18t-18 48z" />
<glyph unicode="&#xf8;" horiz-adv-x="1230" d="M72 412q0 47 6 94q31 229 190 378.5t383 149.5q143 0 244 -63l61 82l70 -47l-70 -80q138 -120 138 -324q0 -36 -7 -94q-18 -128 -76 -231t-138.5 -166.5t-174 -97t-190.5 -33.5q-136 0 -242 65l-61 -82l-68 47l66 78q-131 114 -131 324zM160 406q0 -163 86 -252l598 745 q-55 55 -178 55q-219 0 -362.5 -151t-143.5 -397zM315 104q91 -45 199 -45q83 0 162.5 31.5t146 89t113.5 148t63 200.5q7 54 7 86q0 160 -91 248z" />
<glyph unicode="&#xf9;" horiz-adv-x="1261" d="M127 958l51 68q58 -48 90.5 -94t32.5 -105q0 -18 -2 -28l-68 -471q-4 -23 -4 -66q0 -196 211 -196q115 0 202 53t187 168l107 731h86l-125 -866q-6 -38 18.5 -62t55.5 -24q39 0 67 28l70 -53q-58 -61 -139 -61q-72 0 -115 43t-43 112q0 38 14 66q-97 -119 -188 -167 t-211 -48q-287 0 -287 252q0 27 2 41l74 524q5 33 -11 66t-32.5 50t-42.5 39zM342 1405l68 78l274 -244l-37 -47z" />
<glyph unicode="&#xfa;" horiz-adv-x="1261" d="M127 958l51 68q58 -48 90.5 -94t32.5 -105q0 -18 -2 -28l-68 -471q-4 -23 -4 -66q0 -196 211 -196q115 0 202 53t187 168l107 731h86l-125 -866q-6 -38 18.5 -62t55.5 -24q39 0 67 28l70 -53q-58 -61 -139 -61q-72 0 -115 43t-43 112q0 38 14 66q-97 -119 -188 -167 t-211 -48q-287 0 -287 252q0 27 2 41l74 524q5 33 -11 66t-32.5 50t-42.5 39zM596 1239l344 244l45 -78l-364 -213z" />
<glyph unicode="&#xfb;" horiz-adv-x="1261" d="M127 958l51 68q58 -48 90.5 -94t32.5 -105q0 -18 -2 -28l-68 -471q-4 -23 -4 -66q0 -196 211 -196q115 0 202 53t187 168l107 731h86l-125 -866q-6 -38 18.5 -62t55.5 -24q39 0 67 28l70 -53q-58 -61 -139 -61q-72 0 -115 43t-43 112q0 38 14 66q-97 -119 -188 -167 t-211 -48q-287 0 -287 252q0 27 2 41l74 524q5 33 -11 66t-32.5 50t-42.5 39zM362 1266l269 268h88l196 -268h-102l-147 194l-203 -194h-101z" />
<glyph unicode="&#xfc;" horiz-adv-x="1261" d="M127 958l51 68q58 -48 90.5 -94t32.5 -105q0 -18 -2 -28l-68 -471q-4 -23 -4 -66q0 -196 211 -196q115 0 202 53t187 168l107 731h86l-125 -866q-6 -38 18.5 -62t55.5 -24q39 0 67 28l70 -53q-58 -61 -139 -61q-72 0 -115 43t-43 112q0 38 14 66q-97 -119 -188 -167 t-211 -48q-287 0 -287 252q0 27 2 41l74 524q5 33 -11 66t-32.5 50t-42.5 39zM256 1303q0 35 23 58t57 23q31 0 49 -18t18 -47q0 -35 -23.5 -58.5t-57.5 -23.5q-30 0 -48 18t-18 48zM721 1303q0 35 23 58t57 23q31 0 49 -18t18 -47q0 -35 -24 -58.5t-58 -23.5 q-30 0 -47.5 18t-17.5 48z" />
<glyph unicode="&#xfd;" horiz-adv-x="1116" d="M127 958l51 68q60 -51 91.5 -97t31.5 -104q0 -18 -2 -26l-68 -471q-4 -46 -4 -64q0 -198 207 -198q106 0 188 45.5t166 134.5q27 30 37 51.5t13 48.5l96 672h86q-124 -857 -182 -1276q-23 -161 -115 -248.5t-223 -87.5q-124 0 -190 74.5t-66 187.5q0 59 19 124t65.5 123 t109.5 69q-303 3 -303 237q0 18 4 58l74 524q5 35 -23 78.5t-63 76.5zM324 -322q0 -85 46.5 -137.5t131.5 -52.5q100 0 169.5 70.5t84.5 179.5l57 405l-51 -45q-55 -45 -117 -73l-113 -58q-92 -45 -142.5 -103.5t-63.5 -146.5q-2 -14 -2 -39zM623 1239l344 244l45 -78 l-365 -213z" />
<glyph unicode="&#xfe;" horiz-adv-x="1091" d="M-41 -518l283 2007h86q-49 -340 -103 -664q121 211 363 211q181 0 274.5 -116.5t93.5 -303.5q0 -32 -8 -106q-33 -235 -182.5 -380.5t-380.5 -145.5q-120 0 -264 20l-76 -522h-86zM129 84q208 -21 246 -21q207 0 330.5 121.5t152.5 321.5q6 46 6 92q0 100 -28.5 179 t-93 129t-158.5 50q-121 0 -229.5 -78t-141.5 -204z" />
<glyph unicode="&#xff;" horiz-adv-x="1116" d="M127 958l51 68q60 -51 91.5 -97t31.5 -104q0 -18 -2 -26l-68 -471q-4 -46 -4 -64q0 -198 207 -198q106 0 188 45.5t166 134.5q27 30 37 51.5t13 48.5l96 672h86q-124 -857 -182 -1276q-23 -161 -115 -248.5t-223 -87.5q-124 0 -190 74.5t-66 187.5q0 59 19 124t65.5 123 t109.5 69q-303 3 -303 237q0 18 4 58l74 524q5 35 -23 78.5t-63 76.5zM283 1303q0 35 22.5 58t56.5 23q20 0 35.5 -8t24 -23t8.5 -34q0 -23 -11 -42t-30 -29.5t-41 -10.5q-30 0 -47.5 18t-17.5 48zM324 -322q0 -85 46.5 -137.5t131.5 -52.5q100 0 169.5 70.5t84.5 179.5 l57 405l-51 -45q-55 -45 -117 -73l-113 -58q-92 -45 -142.5 -103.5t-63.5 -146.5q-2 -14 -2 -39zM748 1303q0 23 10.5 41.5t28.5 29t40 10.5q20 0 35.5 -8t24 -23t8.5 -34q0 -35 -24 -58.5t-58 -23.5q-30 0 -47.5 18t-17.5 48z" />
<glyph unicode="&#x152;" horiz-adv-x="2521" d="M94 575q0 35 8 105l4 39q20 145 94 279t182 233t249 158t289 59q209 0 364.5 -111t220.5 -293l49 347h908l-13 -91h-813l-73 -524h604l-13 -90h-604l-86 -606h854l-12 -90h-948l49 348q-115 -178 -296.5 -284.5t-385.5 -106.5q-181 0 -326 83.5t-225 226.5t-80 318z M182 586q0 -155 70.5 -282.5t194.5 -200t276 -72.5q128 0 252.5 52.5t221 140.5t163.5 207.5t86 248.5l4 39q6 46 6 92q0 116 -42 218.5t-114.5 175.5t-173 115t-213.5 42q-130 0 -254.5 -53.5t-220 -142t-161 -207t-82.5 -244.5l-7 -39q-6 -46 -6 -90z" />
<glyph unicode="&#x153;" horiz-adv-x="1949" d="M72 414q0 44 6 94q33 231 192 378.5t385 147.5q165 0 271.5 -83t138.5 -236q64 149 174.5 234t261.5 85q141 0 229.5 -69t88.5 -193q0 -94 -40.5 -164.5t-111.5 -110.5t-154.5 -59t-181.5 -20h-262q-21 -357 301 -357q89 0 167 24.5t179 72.5l33 -68q-175 -108 -377 -108 q-334 0 -377 301q-157 -301 -481 -301q-204 0 -323 118.5t-119 313.5zM162 424q0 -163 94 -263t258 -100q192 0 324 130t159 327q7 51 7 80q0 162 -96 259t-259 97q-209 0 -348 -150t-139 -380zM1075 500h262q115 0 200 25.5t138.5 88t53.5 158.5q0 94 -66 141.5t-158 47.5 q-88 0 -166.5 -42.5t-132 -110t-88 -148t-43.5 -160.5z" />
<glyph unicode="&#x178;" horiz-adv-x="1280" d="M133 1280q21 68 77 105.5t120 37.5q96 0 139 -96l252 -604l475 682h113l-553 -789l-82 -614h-109l92 610l-272 676q-23 41 -68 41q-27 0 -54.5 -18t-37.5 -45zM461 1688q0 35 23 58t57 23q31 0 49 -18t18 -47q0 -35 -24 -58.5t-58 -23.5q-30 0 -47.5 18t-17.5 48z M926 1688q0 35 23 58t57 23q31 0 49 -18t18 -47q0 -35 -24 -58.5t-58 -23.5q-30 0 -47.5 18t-17.5 48z" />
<glyph unicode="&#x2c6;" horiz-adv-x="835" d="M215 1266l268 268h88l197 -268h-102l-148 194l-203 -194h-100z" />
<glyph unicode="&#x2dc;" horiz-adv-x="1007" d="M248 1354q111 80 211 80q64 0 150.5 -37t131.5 -37q71 0 164 65l45 -67q-60 -42 -103 -59t-112 -17q-58 0 -146 35t-130 35q-71 0 -166 -66z" />
<glyph unicode="&#x2000;" horiz-adv-x="967" />
<glyph unicode="&#x2001;" horiz-adv-x="1935" />
<glyph unicode="&#x2002;" horiz-adv-x="967" />
<glyph unicode="&#x2003;" horiz-adv-x="1935" />
<glyph unicode="&#x2004;" horiz-adv-x="645" />
<glyph unicode="&#x2005;" horiz-adv-x="483" />
<glyph unicode="&#x2006;" horiz-adv-x="322" />
<glyph unicode="&#x2007;" horiz-adv-x="322" />
<glyph unicode="&#x2008;" horiz-adv-x="241" />
<glyph unicode="&#x2009;" horiz-adv-x="387" />
<glyph unicode="&#x200a;" horiz-adv-x="107" />
<glyph unicode="&#x2010;" horiz-adv-x="870" d="M117 582l12 90h592l-12 -90h-592z" />
<glyph unicode="&#x2011;" horiz-adv-x="870" d="M117 582l12 90h592l-12 -90h-592z" />
<glyph unicode="&#x2012;" horiz-adv-x="870" d="M117 582l12 90h592l-12 -90h-592z" />
<glyph unicode="&#x2013;" horiz-adv-x="1093" d="M94 582l12 90h863l-13 -90h-862z" />
<glyph unicode="&#x2014;" horiz-adv-x="1427" d="M94 582l12 90h1197l-13 -90h-1196z" />
<glyph unicode="&#x2018;" horiz-adv-x="397" d="M164 1124l2 21q12 87 57 172q48 81 115 127l47 -55q-94 -91 -115 -248l-2 -21q-3 -26 -16 -41q-17 -12 -41 -12t-35 20q-15 12 -12 37z" />
<glyph unicode="&#x2019;" horiz-adv-x="397" d="M158 1104q99 95 116 268q3 24 17 41q17 12 39 12q23 0 32 -20q15 -8 16.5 -24t-3.5 -33q-11 -81 -56 -172q-47 -79 -114 -127z" />
<glyph unicode="&#x201a;" horiz-adv-x="397" d="M-23 -170q94 91 115 248q9 46 19 61q23 13 39 13q23 0 34 -21q12 -8 14 -23.5t-1 -33.5q-11 -76 -58 -172q-43 -78 -114 -127z" />
<glyph unicode="&#x201c;" horiz-adv-x="671" d="M168 1124l2 21q12 87 57 172q48 81 115 127l47 -55q-94 -91 -115 -248l-2 -21q-3 -26 -16 -41q-17 -12 -41 -12t-35 20q-15 12 -12 37zM428 1124l2 21q11 78 57 172q46 78 115 127l47 -55q-93 -90 -114 -248l-3 -21q-3 -26 -16 -41q-17 -12 -39 -12q-24 0 -35 20 q-17 14 -14 37z" />
<glyph unicode="&#x201d;" horiz-adv-x="671" d="M166 1104q100 96 117 268q3 26 16 41q17 12 39 12q24 0 35 -20q19 -13 10 -57q-13 -92 -55 -172q-48 -81 -115 -127zM426 1104q100 96 117 268q3 26 16 41q19 12 41 12q24 0 33 -20q19 -13 10 -57q-13 -92 -55 -172q-42 -76 -113 -127z" />
<glyph unicode="&#x201e;" horiz-adv-x="671" d="M-14 -170q93 90 114 248q9 46 19 61q23 13 39 13q23 0 37 -21q10 -8 11.5 -24.5t-1.5 -32.5q-12 -84 -58 -172q-45 -81 -114 -127zM246 -170q93 90 114 248l5 20q3 25 14 41q26 13 41 13q25 0 35 -21q10 -8 11.5 -24.5t-1.5 -32.5q-13 -94 -57.5 -173t-112.5 -126z" />
<glyph unicode="&#x2022;" horiz-adv-x="546" d="M96 625q0 75 56 128.5t131 53.5q63 0 104 -41t41 -104q0 -76 -54.5 -129.5t-127.5 -53.5q-66 0 -108 41t-42 105z" />
<glyph unicode="&#x2026;" horiz-adv-x="1067" d="M-63 47q0 35 22.5 58.5t56.5 23.5q31 0 49.5 -18.5t18.5 -47.5q0 -35 -24 -58t-58 -23q-30 0 -47.5 17.5t-17.5 47.5zM270 47q0 35 23 58.5t57 23.5q31 0 49.5 -18.5t18.5 -47.5q0 -35 -24 -58t-58 -23q-30 0 -48 18t-18 47zM604 47q0 35 23 58.5t57 23.5 q31 0 49.5 -18.5t18.5 -47.5q0 -35 -24 -58t-58 -23q-30 0 -48 18t-18 47z" />
<glyph unicode="&#x202f;" horiz-adv-x="387" />
<glyph unicode="&#x2039;" horiz-adv-x="751" d="M63 508q0 35 72 96l475 373l47 -66l-507 -399l397 -399l-68 -66l-364 377q-52 49 -52 84z" />
<glyph unicode="&#x203a;" horiz-adv-x="751" d="M31 113l508 399l-398 399l68 66l364 -377q29 -33 37 -53q15 -15 15 -33q0 -36 -72 -94l-475 -373z" />
<glyph unicode="&#x205f;" horiz-adv-x="483" />
<glyph unicode="&#x20ac;" horiz-adv-x="1212" d="M96 498l27 80h139l19 149h-152l27 82h141q24 95 56 171.5t77 144t107.5 117t140.5 79.5q107 39 244 39q73 0 202 -33l-8 -84q-108 31 -211 31q-105 0 -188 -29q-169 -62 -254 -239q-52 -117 -68 -199h514l-24 -82h-504q-3 -17 -6.5 -44t-5.5 -36q-7 -59 -7 -67h478 l-23 -82h-459q-2 -101 17 -178t61.5 -134t116 -86.5t176.5 -29.5q90 0 160 22t151 70l35 -74q-84 -56 -165.5 -80t-184.5 -24q-125 0 -211.5 34t-146.5 107q-63 71 -85 160t-22 215h-164z" />
<glyph unicode="&#x2122;" horiz-adv-x="1251" d="M170 1231l6 43h406l-7 -43h-174l-75 -539h-56l76 539h-176zM586 690l82 584h94l106 -514l258 514h95l-82 -584h-56l80 565l-268 -542h-66l-110 544l-80 -567h-53z" />
<glyph unicode="&#xe000;" horiz-adv-x="1013" d="M0 0v1014h1014v-1014h-1014z" />
<glyph unicode="&#xfb03;" horiz-adv-x="1515" d="M-45 -541l209 1495q34 236 117 353q103 139 286 139q165 0 232 -98q36 45 95 71.5t134 26.5q63 0 118 -26t87 -66l-68 -60q-22 32 -61 52t-82 20q-62 0 -117 -36.5t-92 -96.5q-54 -87 -82 -277l-6 -43h563l-108 -759v-15q0 -32 12 -49q25 -22 61 -22q38 0 66 28l70 -51 q-50 -63 -140 -63q-75 0 -116 53q-39 42 -39 96q0 17 2 27l94 673h-475l-193 -1372h-86l193 1372h-396l-192 -1372h-86zM244 911h395l6 43q13 94 45 195q0 -1 9.5 23t21 56.5t16.5 49.5q-18 42 -68 65t-108 23q-71 0 -131.5 -37t-97.5 -96q-54 -87 -82 -277z" />
<glyph unicode="&#xfb04;" horiz-adv-x="1626" d="M-41 -541l209 1495q33 228 117 353q51 68 113.5 100.5t150.5 32.5q143 0 209 -86l-68 -60q-45 66 -141 66q-70 0 -126 -37t-89 -102q-55 -96 -82 -285l-62 -438h476l65 473q10 68 20.5 119t33.5 115t55 108q98 123 266 123q133 0 201 -84q53 -59 53 -148q0 -25 -2 -37 l-141 -1011v-15q0 -31 12 -51q20 -20 59 -20q36 0 68 28l67 -51q-49 -63 -141 -63q-76 0 -115 53q-37 43 -37 94q0 14 3 29l139 1011q7 85 -39 135t-129 50q-112 0 -182 -78.5t-86 -200.5l-86 -579h309l-10 -80h-310l-137 -963h-84l137 963h-475l-135 -959h-86z" />
</font>
</defs>
</svg>
